<?xml version="1.0" encoding="UTF-8" standalone="no"?>
<!DOCTYPE svg  PUBLIC '-//W3C//DTD SVG 1.1//EN'  'http://www.w3.org/Graphics/SVG/1.1/DTD/svg11.dtd'>
<svg xmlns="http://www.w3.org/2000/svg">
<defs>
<font id="CircularSpotifyText-Light" horiz-adv-x="565">
<font-face underline-position="-50" font-weight="300" descent="-200" panose-1="2 11 4 4 2 1 1 2 1 2" units-per-em="1000" unicode-range="U+000D-FEFF" bbox="-198 -378 4910 1033" x-height="477" underline-thickness="50" font-family="CircularSpotifyText" ascent="800" cap-height="709"/>
<missing-glyph d="M130 50h277v609h-277v-609zM80 0v709h377v-709h-377z" horiz-adv-x="537"/>
<glyph glyph-name="f_f" horiz-adv-x="624" unicode="ff" d="M606 477v-54h-133v-423h-60v423h-238v-423h-60v423h-98v54h98v99q0 73 40 113.5t102 40.5q32 0 54 -10v-54q-18 8 -45 8q-40 0 -65.5 -24t-25.5 -77v-96h238v99q0 73 40 113.5t102 40.5q32 0 54 -10v-54q-18 8 -45 8q-40 0 -65.5 -24t-25.5 -77v-96h133z"/>
<glyph glyph-name="f_f_i" horiz-adv-x="853" unicode="ffi" d="M693 675q0 22 14.5 36t35.5 14t35.5 -14t14.5 -36t-14.5 -36t-35.5 -14t-35.5 14t-14.5 36zM773 477v-477h-60v423h-240v-423h-60v423h-238v-423h-60v423h-98v54h98v99q0 73 40 113.5t102 40.5q32 0 54 -10v-54q-18 8 -45 8q-40 0 -65.5 -24t-25.5 -77v-96h238v99 q0 73 40 113.5t102 40.5q32 0 54 -10v-54q-18 8 -45 8q-40 0 -65.5 -24t-25.5 -77v-96h300z"/>
<glyph glyph-name="f_f_l" horiz-adv-x="853" unicode="ffl" d="M473 573v-96h240v245h60v-722h-60v423h-240v-423h-60v423h-238v-423h-60v423h-98v54h98v99q0 73 40 113.5t102 40.5q32 0 54 -10v-54q-18 8 -45 8q-40 0 -65.5 -24t-25.5 -77v-96h238v99q0 73 40 113.5t102 40.5q32 0 54 -10v-54q-18 8 -45 8q-40 0 -65.5 -24t-25.5 -77z "/>
<glyph glyph-name="f_i" horiz-adv-x="555" unicode="fi" d="M415 423h-240v-423h-60v423h-98v54h98v99q0 73 40 113.5t102 40.5q32 0 54 -10v-54q-18 8 -45 8q-40 0 -65.5 -24t-25.5 -77v-96h300v-477h-60v423zM395 675q0 22 14.5 36t35.5 14t35.5 -14t14.5 -36t-14.5 -36t-35.5 -14t-35.5 14t-14.5 36z"/>
<glyph glyph-name="f_l" horiz-adv-x="555" unicode="fl" d="M415 477v245h60v-722h-60v423h-240v-423h-60v423h-98v54h98v99q0 73 40 113.5t102 40.5q32 0 54 -10v-54q-18 8 -45 8q-40 0 -65.5 -24t-25.5 -77v-96h240z"/>
<glyph glyph-name="f_y" horiz-adv-x="807" unicode="fy" d="M480 -190h-65l119 252l-177 361h-182v-423h-60v423h-98v54h98v99q0 73 40 113.5t102 40.5q32 0 54 -10v-54q-18 8 -45 8q-40 0 -65.5 -24t-25.5 -77v-96h223l167 -352l158 352h66z"/>
<glyph glyph-name=".notdef" d="M130 50h277v609h-277v-609zM80 0v709h377v-709h-377z" horiz-adv-x="537"/>
<glyph glyph-name=".null" horiz-adv-x="0"/>
<glyph glyph-name=".null" horiz-adv-x="0"/>
<glyph glyph-name="uni000D" horiz-adv-x="259" unicode=""/>
<glyph glyph-name="space" horiz-adv-x="259" unicode=" "/>
<glyph glyph-name="exclam" horiz-adv-x="227" unicode="!" d="M112 -4q-21 0 -35.5 14.5t-14.5 34.5q0 21 14.5 35.5t35.5 14.5t35.5 -14.5t14.5 -35.5q0 -20 -14.5 -34.5t-35.5 -14.5zM152 709l-17 -520h-41l-18 520h76z"/>
<glyph glyph-name="quotedbl" horiz-adv-x="319" unicode='&quot;' d="M183 673q0 20 12.5 32t30.5 12q19 0 31 -12t12 -32q0 -18 -3 -33l-29 -152h-22l-28 152q-4 18 -4 33zM50 673q0 20 12.5 32t30.5 12t30.5 -12t12.5 -32q0 -13 -4 -33l-28 -152h-23l-27 152q-4 18 -4 33z"/>
<glyph glyph-name="numbersign" horiz-adv-x="724" unicode="#" d="M375 0l41 207h-173l-41 -207h-55l41 207h-148v50h157l38 192h-146v49h155l42 211h55l-42 -211h173l42 211h55l-42 -211h157v-49h-166l-38 -192h154v-50h-163l-41 -207h-55zM425 257l39 192h-174l-38 -192h173z"/>
<glyph glyph-name="dollar" horiz-adv-x="555" unicode="$" d="M308 -113h-50v114q-97 7 -155 65.5t-66 139.5l54 17q6 -65 50 -113.5t117 -56.5v280l-42 10q-70 16 -111.5 60.5t-41.5 114.5q0 77 56 130t139 60v115h50v-116q81 -7 130 -53.5t64 -114.5l-54 -18q-12 51 -47 87.5t-93 43.5v-270l32 -7q81 -18 125.5 -65t44.5 -119 q0 -76 -55.5 -129.5t-146.5 -60.5v-114zM329 316l-21 5v-268q67 7 104.5 44.5t37.5 89.5q0 101 -121 129zM228 400l30 -7v260q-59 -7 -97.5 -43t-38.5 -87q0 -97 106 -123z"/>
<glyph glyph-name="percent" horiz-adv-x="799" unicode="%" d="M709 146q0 44 -28.5 73.5t-71.5 29.5q-42 0 -71 -30t-29 -73q0 -44 29 -74t71 -30q43 0 71.5 30t28.5 74zM455 146q0 64 45 108.5t109 44.5t109 -44.5t45 -108.5t-45 -109t-109 -45t-109 45t-45 109zM89 564q0 -44 29 -74t72 -30q42 0 71 30t29 74q0 43 -29 73t-71 30 q-43 0 -72 -29.5t-29 -73.5zM344 564q0 -64 -45.5 -109t-108.5 -45q-64 0 -109 45t-45 109t45 108.5t109 44.5q63 0 108.5 -45t45.5 -108zM192 0h-59l473 709h59z"/>
<glyph glyph-name="ampersand" horiz-adv-x="663" unicode="&amp;" d="M249 47q76 0 164 104l-178 183l-33 -26q-40 -32 -62 -64t-22 -74q0 -51 35.5 -87t95.5 -36zM209 447l37 -40l59 46q67 51 67 109q0 45 -31 75.5t-78 30.5t-79 -31t-32 -78q0 -55 57 -112zM558 0l-105 110q-100 -121 -206 -121q-89 0 -141 52t-52 124q0 61 31 105t92 90 l20 15l-31 31q-75 75 -75 149q0 72 50.5 119.5t120.5 47.5q75 0 123.5 -45.5t48.5 -116.5q0 -79 -97 -152l-53 -39l168 -173l146 176v-86l-107 -130l151 -156h-84z"/>
<glyph glyph-name="quotesingle" horiz-adv-x="186" unicode="&apos;" d="M50 673q0 20 12.5 32t30.5 12t30.5 -12t12.5 -32q0 -13 -4 -33l-28 -152h-23l-27 152q-4 18 -4 33z"/>
<glyph glyph-name="parenleft" horiz-adv-x="285" unicode="(" d="M49 317q0 276 184 472l37 -32q-168 -188 -168 -440t168 -440l-37 -32q-184 191 -184 472z"/>
<glyph glyph-name="parenright" horiz-adv-x="285" unicode=")" d="M236 317q0 -281 -184 -472l-37 32q168 188 168 440t-168 440l37 32q184 -196 184 -472z"/>
<glyph glyph-name="asterisk" horiz-adv-x="447" unicode="*" d="M248 709v-147l139 48l15 -46l-140 -48l91 -123l-39 -30l-92 126l-88 -125l-39 30l88 122l-139 47l16 47l137 -49v148h51z"/>
<glyph glyph-name="plus" horiz-adv-x="537" unicode="+" d="M294 580v-207h195v-50h-195v-210h-53v210h-194v50h194v207h53z"/>
<glyph glyph-name="comma" horiz-adv-x="239" unicode="," d="M63 48q0 21 15.5 35.5t38.5 14.5q25 0 42 -18.5t17 -52.5q0 -70 -35 -116t-84 -58v37q33 10 53.5 42.5t21.5 68.5q-5 -5 -19 -5q-21 0 -35.5 14.5t-14.5 37.5z"/>
<glyph glyph-name="hyphen" horiz-adv-x="401" unicode="-" d="M332 260h-263v54h263v-54z"/>
<glyph glyph-name="period" horiz-adv-x="229" unicode="." d="M62 48q0 22 15 37.5t37 15.5t37.5 -15.5t15.5 -37.5t-15.5 -37t-37.5 -15t-37 15t-15 37z"/>
<glyph glyph-name="slash" horiz-adv-x="465" unicode="/" d="M434 709l-342 -709h-60l343 709h59z"/>
<glyph glyph-name="zero" horiz-adv-x="650" unicode="0" d="M58 354q0 71 14 133.5t43.5 116.5t83.5 86t126 32t125.5 -32t83.5 -86t44 -116.5t14 -133.5t-14 -133.5t-44 -116.5t-83.5 -85.5t-125.5 -31.5t-126 31.5t-83.5 86t-43.5 116.5t-14 133zM119 354q0 -141 51.5 -226.5t154.5 -85.5t154.5 86t51.5 226t-51.5 226.5 t-154.5 86.5t-154.5 -86t-51.5 -227z"/>
<glyph glyph-name="one" horiz-adv-x="345" unicode="1" d="M266 709v-709h-61v594q-24 -32 -75.5 -57t-101.5 -26v52q69 6 118.5 47t62.5 99h57z"/>
<glyph glyph-name="two" horiz-adv-x="578" unicode="2" d="M524 0h-469q1 81 44 144.5t133 124.5l105 71q115 78 115 173q0 65 -43 109.5t-117 44.5q-78 0 -125 -48t-47 -126q0 -22 2 -34l-62 9q-2 18 -2 32q0 94 66.5 158t167.5 64q104 0 163.5 -60t59.5 -148q0 -38 -14 -73t-32 -59.5t-52 -53t-58 -44.5t-67.5 -43.5t-62.5 -40.5 q-86 -59 -99 -142h394v-58z"/>
<glyph glyph-name="three" horiz-adv-x="605" unicode="3" d="M335 418q89 0 152 -55t63 -154q0 -97 -71 -159.5t-177 -62.5q-108 0 -178.5 61t-75.5 154l60 14q4 -80 60.5 -127t134.5 -47q80 0 132.5 47t52.5 118q0 75 -50 117.5t-125 42.5q-33 0 -67 -9l-30 52l238 241h-388v58h469v-58l-234 -236q18 3 34 3z"/>
<glyph glyph-name="four" horiz-adv-x="605" unicode="4" d="M387 231v422l-298 -422h298zM31 175v73l326 461h90v-478h126v-56h-126v-175h-60v175h-356z"/>
<glyph glyph-name="five" horiz-adv-x="587" unicode="5" d="M38 195l60 18q5 -74 58.5 -122.5t131.5 -48.5q80 0 133 50.5t53 126.5q0 81 -52.5 131t-132.5 50q-94 0 -160 -72l-62 25l91 356h352v-57h-311l-67 -265q62 68 168 68q104 0 170.5 -65t66.5 -169q0 -99 -69.5 -166.5t-179.5 -67.5q-103 0 -172.5 60t-77.5 148z"/>
<glyph glyph-name="six" horiz-adv-x="622" unicode="6" d="M333 463q104 0 171 -65.5t67 -174.5q0 -105 -73.5 -170.5t-176.5 -65.5q-117 0 -191 86.5t-74 243.5q0 193 99 299t246 106q92 0 152 -39l-20 -53q-53 35 -135 35q-90 0 -155 -48.5t-95.5 -123t-32.5 -166.5q28 64 85.5 100t132.5 36zM136 224q0 -80 55 -131.5t131 -51.5 q78 0 132 51t54 132q0 83 -53 133.5t-131 50.5q-77 0 -132.5 -53t-55.5 -131z"/>
<glyph glyph-name="seven" horiz-adv-x="543" unicode="7" d="M531 709v-63q-280 -259 -322 -646h-64q38 382 320 652h-439v57h505z"/>
<glyph glyph-name="eight" horiz-adv-x="606" unicode="8" d="M303 42q83 0 132.5 41.5t49.5 104.5q0 64 -48.5 106t-133.5 42t-134 -42t-49 -106q0 -63 49.5 -104.5t133.5 -41.5zM303 389q73 0 120 39.5t47 101.5q0 61 -45.5 100.5t-121.5 39.5q-77 0 -122.5 -39.5t-45.5 -100.5q0 -62 47 -101.5t121 -39.5zM303 -13 q-113 0 -179.5 56t-66.5 140q0 65 42.5 113.5t109.5 66.5q-59 16 -97 62t-38 107q0 82 64 136t165 54q100 0 164.5 -54t64.5 -136q0 -60 -38.5 -106.5t-97.5 -62.5q67 -18 109.5 -66.5t42.5 -113.5q0 -84 -66 -140t-179 -56z"/>
<glyph glyph-name="nine" horiz-adv-x="621" unicode="9" d="M483 485q0 79 -55 130t-130 51t-129.5 -51t-54.5 -130q0 -81 53.5 -131t130.5 -50q76 0 130.5 50.5t54.5 130.5zM501 385q-17 -60 -76 -98.5t-136 -38.5q-96 0 -167 65.5t-71 170.5q0 103 73.5 170.5t174.5 67.5q118 0 191 -86.5t73 -243.5q0 -200 -84 -302.5 t-245 -102.5q-43 0 -90 11.5t-77 31.5l23 53q63 -40 145 -40q131 0 198 84t68 243v15z"/>
<glyph glyph-name="colon" horiz-adv-x="243" unicode=":" d="M69 48q0 22 15 37.5t37 15.5t37.5 -15.5t15.5 -37.5t-15.5 -37t-37.5 -15t-37 15t-15 37zM69 428q0 22 15 37.5t37 15.5t37.5 -15.5t15.5 -37.5t-15.5 -37t-37.5 -15t-37 15t-15 37z"/>
<glyph glyph-name="semicolon" horiz-adv-x="262" unicode=";" d="M75 428q0 22 15 37.5t37 15.5t37.5 -15.5t15.5 -37.5t-15.5 -37t-37.5 -15t-37 15t-15 37zM77 47q0 21 15 35t38 14q24 0 41 -18t17 -51q0 -70 -34.5 -115t-82.5 -56v36q32 10 52.5 42t21.5 67q-5 -5 -19 -5q-21 0 -35 14.5t-14 36.5z"/>
<glyph glyph-name="less" horiz-adv-x="524" unicode="&lt;" d="M100 348l343 -174v-61l-402 207v55l402 207v-60z"/>
<glyph glyph-name="equal" horiz-adv-x="591" unicode="=" d="M519 226h-447v51h447v-51zM519 420h-447v50h447v-50z"/>
<glyph glyph-name="greater" horiz-adv-x="524" unicode="&gt;" d="M81 174l344 174l-344 174v60l402 -207v-55l-402 -207v61z"/>
<glyph glyph-name="question" horiz-adv-x="489" unicode="?" d="M234 -4q-21 0 -35.5 14.5t-14.5 34.5q0 21 14.5 35.5t35.5 14.5t35.5 -14.5t14.5 -35.5q0 -20 -14.5 -34.5t-35.5 -14.5zM261 189h-55q-3 10 -3 38q0 92 72 147l44 34q69 53 69 123q0 56 -37.5 95.5t-103.5 39.5q-71 0 -109.5 -43t-38.5 -104q0 -25 8 -54l-61 9 q-8 23 -8 51q0 78 54.5 137.5t154.5 59.5q93 0 148.5 -56.5t55.5 -133.5q0 -97 -100 -172l-45 -33q-47 -34 -47 -106q0 -14 2 -32z"/>
<glyph glyph-name="at" horiz-adv-x="825" unicode="@" d="M521 383q0 48 -25 76.5t-71 28.5q-56 0 -96 -50.5t-40 -119.5q0 -54 25.5 -90t73.5 -36q62 0 96.5 56t36.5 135zM601 145q-41 0 -66 21.5t-28 56.5q-20 -37 -53.5 -58t-71.5 -21q-63 0 -104.5 46.5t-41.5 120.5q0 91 55.5 158t136.5 67q40 0 71.5 -21.5t39.5 -59.5l12 69 h51l-50 -250q-3 -15 -3 -28q0 -56 55 -56q50 0 90 61t40 146q0 114 -82 196t-219 82q-139 0 -233 -97t-94 -245q0 -143 91.5 -236.5t243.5 -93.5q136 0 235 91l27 -34q-47 -48 -118 -76t-144 -28q-172 0 -280 106t-108 272q0 165 111 276.5t268 111.5q155 0 254 -96t99 -228 q0 -108 -56 -180.5t-128 -72.5z"/>
<glyph glyph-name="A" horiz-adv-x="694" unicode="A" d="M346 646l-146 -369h293zM604 0l-88 219h-339l-87 -219h-68l287 709h76l287 -709h-68z"/>
<glyph glyph-name="B" horiz-adv-x="603" unicode="B" d="M164 56h155q73 0 116.5 37.5t43.5 101.5q0 61 -41 98.5t-106 37.5h-168v-275zM164 386h157q59 0 97 36.5t38 93.5q0 63 -41.5 100t-115.5 37h-135v-267zM101 709h204q100 0 157.5 -52t57.5 -137q0 -56 -30 -97.5t-78 -58.5q58 -14 94.5 -62.5t36.5 -110.5 q0 -84 -60.5 -137.5t-157.5 -53.5h-224v709z"/>
<glyph glyph-name="C" horiz-adv-x="746" unicode="C" d="M399 -13q-67 0 -128.5 24.5t-110.5 69.5t-78.5 116t-29.5 157q0 114 51 199.5t129 127t167 41.5q118 0 199 -61.5t106 -164.5l-57 -20q-21 88 -87 138t-161 50q-116 0 -199.5 -82.5t-83.5 -227.5q0 -144 83.5 -226.5t199.5 -82.5q97 0 164 52.5t89 138.5l55 -20 q-26 -102 -108.5 -165.5t-199.5 -63.5z"/>
<glyph glyph-name="D" horiz-adv-x="712" unicode="D" d="M320 0h-219v709h221q143 0 240 -94.5t97 -261.5q0 -166 -98 -259.5t-241 -93.5zM164 56h154q117 0 196.5 77.5t79.5 219.5q0 143 -78.5 221.5t-195.5 78.5h-156v-597z"/>
<glyph glyph-name="E" horiz-adv-x="575" unicode="E" d="M519 0h-418v709h418v-58h-354v-267h323v-58h-323v-268h354v-58z"/>
<glyph glyph-name="F" horiz-adv-x="571" unicode="F" d="M165 0h-64v709h420v-58h-356v-275h325v-58h-325v-318z"/>
<glyph glyph-name="G" horiz-adv-x="766" unicode="G" d="M699 0h-50l-6 137q-26 -58 -90 -104t-167 -46q-63 0 -122.5 24.5t-107 69.5t-76 116.5t-28.5 157.5q0 114 50 199.5t127 126.5t166 41q112 0 194.5 -58t113.5 -155l-57 -24q-27 83 -93 131t-158 48q-115 0 -197 -82t-82 -227q0 -74 23.5 -134.5t62.5 -98t87 -58t99 -20.5 q66 0 117 23t78.5 59.5t41 74t14.5 74.5h-262v58h322v-333z"/>
<glyph glyph-name="H" horiz-adv-x="736" unicode="H" d="M635 0h-64v331h-406v-331h-64v709h64v-320h406v320h64v-709z"/>
<glyph glyph-name="I" horiz-adv-x="266" unicode="I" d="M165 0h-64v709h64v-709z"/>
<glyph glyph-name="J" horiz-adv-x="537" unicode="J" d="M33 208v45l63 15v-57q0 -79 38 -122.5t106 -43.5q67 0 103.5 43.5t36.5 119.5v501h64v-500q0 -99 -55 -160.5t-149 -61.5q-96 0 -151.5 59.5t-55.5 161.5z"/>
<glyph glyph-name="K" horiz-adv-x="638" unicode="K" d="M548 0l-261 349l-122 -130v-219h-64v709h64v-406l376 406h83l-295 -315l299 -394h-80z"/>
<glyph glyph-name="L" horiz-adv-x="544" unicode="L" d="M523 0h-422v709h64v-651h358v-58z"/>
<glyph glyph-name="M" horiz-adv-x="945" unicode="M" d="M844 0h-64v614l-278 -614h-60l-277 614v-614h-64v709h90l282 -626l282 626h89v-709z"/>
<glyph glyph-name="N" horiz-adv-x="763" unicode="N" d="M662 0h-68l-429 630v-630h-64v709h88l409 -605v605h64v-709z"/>
<glyph glyph-name="O" horiz-adv-x="797" unicode="O" d="M52 354q0 114 51 199.5t128.5 127t166.5 41.5t167 -41.5t129 -127t51 -199.5q0 -86 -29.5 -157t-79 -116t-111 -69.5t-127.5 -24.5q-89 0 -166.5 41t-128.5 126.5t-51 199.5zM116 354q0 -144 83 -226.5t199 -82.5t199.5 82.5t83.5 226.5q0 145 -83.5 227.5t-199.5 82.5 t-199 -82.5t-83 -227.5z"/>
<glyph glyph-name="P" horiz-adv-x="585" unicode="P" d="M335 300h-170v-300h-64v709h234q96 0 156.5 -58t60.5 -147t-60 -146.5t-157 -57.5zM165 357h160q75 0 119 40.5t44 106.5t-44 107t-119 41h-160v-295z"/>
<glyph glyph-name="Q" horiz-adv-x="797" unicode="Q" d="M398 45q88 0 160 49l-141 156l44 38l140 -156q80 87 80 222q0 145 -83.5 227.5t-199.5 82.5t-199 -82.5t-83 -227.5q0 -144 83 -226.5t199 -82.5zM692 -53l-94 103q-87 -63 -200 -63q-89 0 -166.5 41t-128.5 126.5t-51 199.5t51 199.5t128.5 127t166.5 41.5t167 -41.5 t129 -127t51 -199.5q0 -162 -103 -267l92 -102z"/>
<glyph glyph-name="R" horiz-adv-x="613" unicode="R" d="M165 364h173q71 0 114 39.5t43 103.5q0 65 -43 105t-114 40h-173v-288zM484 0l-171 307h-148v-307h-64v709h247q94 0 152.5 -57.5t58.5 -144.5q0 -78 -48 -132t-129 -64l176 -311h-74z"/>
<glyph glyph-name="S" horiz-adv-x="582" unicode="S" d="M523 548l-56 -20q-12 60 -55.5 99t-117.5 39q-66 0 -114 -39.5t-48 -100.5q0 -48 29 -80t83 -45l108 -25q84 -20 131 -68.5t47 -121.5q0 -84 -65 -141.5t-170 -57.5q-111 0 -177.5 61.5t-76.5 149.5l59 19q7 -73 59 -123t136 -50q80 0 126 38.5t46 98.5q0 49 -33 84 t-94 49l-107 25q-75 17 -119.5 63.5t-44.5 119.5q0 82 67 141t156 59q101 0 157.5 -49t73.5 -125z"/>
<glyph glyph-name="T" horiz-adv-x="603" unicode="T" d="M584 651h-251v-651h-64v651h-250v58h565v-58z"/>
<glyph glyph-name="U" horiz-adv-x="672" unicode="U" d="M336 -13q-111 0 -177 65t-66 184v473h64v-470q0 -94 46 -144t133 -50t133 50t46 144v470h64v-473q0 -119 -66 -184t-177 -65z"/>
<glyph glyph-name="V" horiz-adv-x="655" unicode="V" d="M328 76l236 633h67l-273 -709h-63l-269 709h68z"/>
<glyph glyph-name="W" horiz-adv-x="990" unicode="W" d="M726 89l174 620h65l-204 -709h-69l-198 626l-198 -626h-66l-207 709h66l175 -620l196 620h69z"/>
<glyph glyph-name="X" horiz-adv-x="591" unicode="X" d="M571 709l-239 -353l238 -356h-75l-199 305l-203 -305h-74l240 356l-238 353h76l199 -304l200 304h75z"/>
<glyph glyph-name="Y" horiz-adv-x="616" unicode="Y" d="M277 303l-248 406h75l204 -347l205 347h74l-248 -406v-303h-62v303z"/>
<glyph glyph-name="Z" horiz-adv-x="624" unicode="Z" d="M583 0h-543v65l466 586h-460v58h534v-63l-467 -588h470v-58z"/>
<glyph glyph-name="bracketleft" horiz-adv-x="260" unicode="[" d="M230 -141h-154v918h154v-49h-101v-820h101v-49z"/>
<glyph glyph-name="backslash" horiz-adv-x="466" unicode="\" d="M373 0l-342 709h61l341 -709h-60z"/>
<glyph glyph-name="bracketright" horiz-adv-x="260" unicode="]" d="M184 -141h-154v49h101v820h-101v49h154v-918z"/>
<glyph glyph-name="asciicircum" horiz-adv-x="530" unicode="^" d="M485 355h-63l-156 293l-158 -293h-63l194 354h53z"/>
<glyph glyph-name="underscore" horiz-adv-x="522" unicode="_" d="M517 -50h-512v50h512v-50z"/>
<glyph glyph-name="grave" horiz-adv-x="248" unicode="`" d="M159 537l-118 139h76l89 -139h-47z"/>
<glyph glyph-name="a" horiz-adv-x="500" unicode="a" d="M208 39q69 0 113 42.5t44 113.5v54q-8 -8 -35 -12l-133 -20q-43 -6 -67 -29.5t-24 -61.5q0 -35 27.5 -61t74.5 -26zM201 -12q-72 0 -114 40t-42 95q0 59 38 95t105 46l127 19q50 7 50 46q0 49 -31.5 78.5t-88.5 29.5t-92.5 -29.5t-41.5 -81.5l-56 12q8 68 60 109.5 t129 41.5q89 0 135 -46.5t46 -119.5v-241q0 -47 7 -82h-59q-6 33 -6 82q-19 -38 -62.5 -66t-103.5 -28z"/>
<glyph glyph-name="b" horiz-adv-x="577" unicode="b" d="M304 41q73 0 119 55.5t46 142.5t-46 142t-119 55t-119 -55t-46 -142t46 -142.5t119 -55.5zM139 0h-59v722h60v-337q19 42 63 73.5t110 31.5q98 0 157 -71t59 -180t-60 -180.5t-158 -71.5q-63 0 -106.5 31t-65.5 75v-93z"/>
<glyph glyph-name="c" horiz-adv-x="529" unicode="c" d="M281 436q-74 0 -124 -54t-50 -144q0 -89 50 -143t124 -54q63 0 102 35t53 82l53 -22q-19 -62 -73.5 -105.5t-134.5 -43.5q-101 0 -167.5 71t-66.5 180q0 110 66.5 181t167.5 71q81 0 133.5 -42.5t70.5 -107.5l-53 -22q-14 50 -51 84t-100 34z"/>
<glyph glyph-name="d" horiz-adv-x="574" unicode="d" d="M434 75v19q-19 -43 -61 -75t-106 -32q-99 0 -159.5 71.5t-60.5 180.5q0 107 61.5 179t158.5 72q68 0 108.5 -31.5t57.5 -71.5v335h60v-631q0 -66 5 -91h-59q-5 30 -5 75zM107 239q0 -86 45.5 -142t119.5 -56q73 0 117.5 56t44.5 142t-44 141.5t-117 55.5q-74 0 -120 -55 t-46 -142z"/>
<glyph glyph-name="e" horiz-adv-x="535" unicode="e" d="M435 154l53 -19q-22 -65 -76 -106.5t-133 -41.5q-98 0 -165 68.5t-67 184.5q0 110 64.5 180t156.5 70q104 0 163 -66.5t60 -174.5q0 -14 -1 -22h-382v-4q1 -81 50 -131.5t121 -50.5q61 0 100.5 31t55.5 82zM110 277h318q-2 69 -44 114t-115 45q-66 0 -110 -46t-49 -113z "/>
<glyph glyph-name="f" horiz-adv-x="326" unicode="f" d="M308 423h-133v-423h-60v423h-98v54h98v99q0 73 40 113.5t102 40.5q32 0 54 -10v-54q-18 8 -45 8q-40 0 -65.5 -24t-25.5 -77v-96h133v-54z"/>
<glyph glyph-name="g" horiz-adv-x="562" unicode="g" d="M268 77q70 0 113 50.5t43 129.5q0 78 -43 128.5t-113 50.5q-71 0 -115.5 -50.5t-44.5 -128.5q0 -79 44.5 -129.5t115.5 -50.5zM48 -27l57 14q6 -58 48.5 -97.5t104.5 -39.5q164 0 164 184v88q-18 -41 -59 -69t-102 -28q-93 0 -153 66t-60 166q0 99 59.5 165t153.5 66 q116 0 162 -93v82h59v-442q0 -45 -11 -84.5t-35 -75.5t-70 -57t-109 -21q-85 0 -142.5 49.5t-66.5 126.5z"/>
<glyph glyph-name="h" horiz-adv-x="537" unicode="h" d="M140 287v-287h-60v722h60v-320q20 38 60 63t93 25q81 0 125 -50.5t44 -127.5v-312h-60v302q0 60 -32.5 97t-96.5 37q-59 0 -96 -44t-37 -105z"/>
<glyph glyph-name="i" horiz-adv-x="220" unicode="i" d="M60 675q0 22 14.5 36t35.5 14t35.5 -14t14.5 -36t-14.5 -36t-35.5 -14t-35.5 14t-14.5 36zM140 0h-60v477h60v-477z"/>
<glyph glyph-name="j" horiz-adv-x="220" unicode="j" d="M60 675q0 22 14.5 36t35.5 14t35.5 -14t14.5 -36t-14.5 -36t-35.5 -14t-35.5 14t-14.5 36zM80 -63v540h60v-542q0 -65 -34 -101.5t-92 -36.5q-35 0 -53 9v51q16 -6 41 -6q78 0 78 86z"/>
<glyph glyph-name="k" horiz-adv-x="496" unicode="k" d="M473 477l-203 -203l207 -274h-75l-174 233l-88 -87v-146h-60v722h60v-497l250 252h83z"/>
<glyph glyph-name="l" horiz-adv-x="220" unicode="l" d="M140 0h-60v722h60v-722z"/>
<glyph glyph-name="m" horiz-adv-x="845" unicode="m" d="M140 0h-60v477h59v-79q17 39 58 65.5t94 26.5q56 0 96 -29t54 -79q22 52 64.5 80t99.5 28q72 0 118.5 -47t46.5 -127v-316h-60v309q0 56 -32 92t-90 36t-95.5 -42t-37.5 -102v-293h-60v309q0 56 -31.5 92t-90.5 36q-58 0 -95.5 -42t-37.5 -102v-293z"/>
<glyph glyph-name="n" horiz-adv-x="537" unicode="n" d="M140 285v-285h-60v477h58v-76q20 40 61 64t94 24q81 0 125 -50.5t44 -127.5v-311h-60v301q0 60 -31.5 97t-97.5 37q-60 0 -96.5 -43.5t-36.5 -106.5z"/>
<glyph glyph-name="o" horiz-adv-x="568" unicode="o" d="M108 238q0 -90 51 -143.5t125 -53.5t125 53.5t51 143.5t-51 143.5t-125 53.5t-125 -53.5t-51 -143.5zM284 -13q-101 0 -169 70.5t-68 180.5q0 111 67.5 181t169.5 70q101 0 169 -70t68 -181q0 -110 -68 -180.5t-169 -70.5z"/>
<glyph glyph-name="p" horiz-adv-x="577" unicode="p" d="M469 239q0 85 -46 141t-120 56q-73 0 -118.5 -56t-45.5 -141q0 -86 45.5 -142t118.5 -56q74 0 120 56.5t46 141.5zM140 -190h-60v667h59v-95q21 44 65 76t109 32q99 0 157.5 -71t58.5 -180t-59.5 -180.5t-158.5 -71.5q-63 0 -106.5 30.5t-64.5 72.5v-280z"/>
<glyph glyph-name="q" horiz-adv-x="574" unicode="q" d="M108 239q0 -85 45.5 -141.5t118.5 -56.5t118 56.5t45 141.5q0 86 -45 141.5t-118 55.5q-74 0 -119 -55.5t-45 -141.5zM494 -190h-60v281q-20 -43 -63 -73.5t-105 -30.5q-98 0 -158 72t-60 180q0 107 60.5 179t156.5 72q68 0 110 -31.5t60 -75.5v94h59v-667z"/>
<glyph glyph-name="r" horiz-adv-x="337" unicode="r" d="M323 478v-63q-18 5 -42 5q-63 0 -102 -41t-39 -120v-259h-60v477h59v-89q42 95 147 95q24 0 37 -5z"/>
<glyph glyph-name="s" horiz-adv-x="439" unicode="s" d="M40 125l55 19q7 -46 41 -75.5t90 -29.5q45 0 75.5 24t30.5 61q0 61 -81 80l-77 18q-55 12 -86 44.5t-31 82.5q0 58 47.5 99t113.5 41q76 0 117.5 -36t53.5 -87l-53 -20q-8 39 -36.5 65t-81.5 26q-42 0 -72 -23.5t-30 -60.5q0 -59 75 -76l76 -17q124 -28 124 -132 q0 -57 -45 -99t-121 -42q-81 0 -129 42t-56 96z"/>
<glyph glyph-name="t" horiz-adv-x="328" unicode="t" d="M177 628v-151h124v-54h-124v-288q0 -86 81 -86q25 0 43 8v-53q-18 -9 -59 -9q-59 0 -92 35t-33 99v294h-101v54h36q35 0 51 16.5t16 53.5v81h58z"/>
<glyph glyph-name="u" horiz-adv-x="539" unicode="u" d="M402 74q-18 -37 -57.5 -62t-92.5 -25q-86 0 -132 54.5t-46 135.5v300h60v-290q0 -63 31.5 -104.5t97.5 -41.5q62 0 98.5 41.5t36.5 103.5v291h60v-386q0 -49 6 -91h-57q-5 25 -5 67v7z"/>
<glyph glyph-name="v" horiz-adv-x="499" unicode="v" d="M470 477l-189 -477h-63l-189 477h68l152 -409l154 409h67z"/>
<glyph glyph-name="w" horiz-adv-x="795" unicode="w" d="M366 477h65l142 -403l125 403h65l-156 -477h-67l-142 404l-142 -404h-67l-158 477h66l127 -403z"/>
<glyph glyph-name="x" horiz-adv-x="478" unicode="x" d="M20 0l182 243l-174 234h71l140 -191l140 191h71l-176 -234l183 -243h-72l-147 200l-146 -200h-72z"/>
<glyph glyph-name="y" horiz-adv-x="501" unicode="y" d="M174 -190h-65l119 252l-203 415h67l167 -352l158 352h66z"/>
<glyph glyph-name="z" horiz-adv-x="464" unicode="z" d="M422 0h-379v53l302 370h-299v54h371v-53l-300 -370h305v-54z"/>
<glyph glyph-name="braceleft" horiz-adv-x="311" unicode="{" d="M23 289v58q47 3 76 30t29 76v160q0 158 147 158h9v-49h-9q-52 0 -73 -25.5t-21 -80.5v-175q0 -49 -28 -82t-77 -41q49 -8 77 -41t28 -82v-175q0 -55 21 -80.5t73 -25.5h9v-48h-9q-147 0 -147 158v159q0 49 -29 76t-76 30z"/>
<glyph glyph-name="bar" horiz-adv-x="205" unicode="|" d="M129 -141h-53v918h53v-918z"/>
<glyph glyph-name="braceright" horiz-adv-x="311" unicode="}" d="M288 347v-58q-47 -3 -76 -30t-29 -76v-159q0 -158 -147 -158h-9v48h9q52 0 73 25.5t21 80.5v175q0 49 28 82t77 41q-49 8 -77 41t-28 82v175q0 55 -21 80.5t-73 25.5h-9v49h9q147 0 147 -158v-160q0 -49 29 -76t76 -30z"/>
<glyph glyph-name="asciitilde" horiz-adv-x="619" unicode="~" d="M319 253l-47 25q-35 19 -64 19q-57 0 -99 -57l-37 30q52 80 135 80q44 0 91 -26l46 -25q38 -20 69 -20q60 0 97 55l37 -30q-52 -79 -134 -79q-40 0 -94 28z"/>
<glyph glyph-name="uni00A0" horiz-adv-x="259" unicode=" "/>
<glyph glyph-name="exclamdown" horiz-adv-x="213" unicode="¡" d="M108 487q21 0 35.5 -14.5t14.5 -34.5q0 -21 -14.5 -35.5t-35.5 -14.5t-35.5 14.5t-14.5 35.5q0 20 14.5 34.5t35.5 14.5zM68 -226l17 520h41l18 -520h-76z"/>
<glyph glyph-name="cent" horiz-adv-x="540" unicode="¢" d="M111 348q0 -78 40.5 -131.5t107.5 -62.5v388q-67 -10 -107.5 -63.5t-40.5 -130.5zM309 98v-98h-50v99q-91 9 -149 77.5t-58 171.5q0 102 58 171t149 79v111h50v-111q72 -6 119.5 -47t63.5 -103l-53 -21q-29 103 -130 116v-389q53 6 87 39t48 76l51 -20q-17 -59 -66 -102 t-120 -49z"/>
<glyph glyph-name="sterling" horiz-adv-x="593" unicode="£" d="M402 310h-181q8 -36 8 -59q0 -121 -98 -196h233q59 0 92.5 36.5t37.5 97.5l57 -8q-5 -82 -51.5 -131.5t-125.5 -49.5h-320v56q48 31 80.5 81t32.5 112q0 31 -9 61h-95v53h79q-2 4 -8.5 19.5t-8.5 21.5t-7 20t-7.5 23t-5.5 22t-4 25t-1 25q0 88 57 145t150 57 q90 0 143.5 -52t59.5 -128l-58 -13q-4 60 -43.5 99t-100.5 39q-64 0 -105 -40.5t-41 -108.5q0 -27 6 -51t20.5 -58t18.5 -45h195v-53z"/>
<glyph glyph-name="currency" horiz-adv-x="614" unicode="¤" d="M151 348q0 -68 46.5 -114.5t112.5 -46.5q67 0 112.5 46.5t45.5 114.5q0 69 -45.5 115t-112.5 46q-66 0 -112.5 -46.5t-46.5 -114.5zM506 106l-70 71q-54 -42 -126 -42q-75 0 -131 46l-72 -75l-38 38l73 75q-45 54 -45 129t47 132l-74 77l38 37l74 -76q57 43 128 43 t123 -40l72 73l37 -37l-69 -73q51 -59 51 -136t-49 -134l69 -70z"/>
<glyph glyph-name="yen" horiz-adv-x="618" unicode="¥" d="M341 0h-63v175h-189v50h189v84h-189v50h160l-214 350h73l203 -338l202 338h70l-214 -350h162v-50h-190v-84h190v-50h-190v-175z"/>
<glyph glyph-name="brokenbar" horiz-adv-x="215" unicode="¦" d="M81 259h53v-400h-53v400zM81 777h53v-399h-53v399z"/>
<glyph glyph-name="section" horiz-adv-x="501" unicode="§" d="M205 188l99 -54q30 10 50.5 36t20.5 59q0 61 -78 103l-100 53q-29 -11 -49 -37t-20 -58q0 -61 77 -102zM68 281q0 43 25.5 77.5t62.5 48.5q-90 56 -90 147q0 74 55 121t131 47q85 0 135 -50t52 -129l-58 -13q-1 64 -35.5 102.5t-94.5 38.5q-51 0 -88 -31t-37 -81 q0 -69 76 -109l106 -57q63 -33 94.5 -67t31.5 -88q0 -43 -25.5 -76t-64.5 -50q94 -56 94 -147q0 -74 -55 -121t-134 -47q-86 0 -136 49t-53 131l57 12q2 -63 37.5 -102t96.5 -39q55 0 91 30.5t36 80.5q0 70 -78 111l-106 57q-63 33 -94.5 66.5t-31.5 87.5z"/>
<glyph glyph-name="dieresis" horiz-adv-x="350" unicode="¨" d="M45 611q0 17 12.5 29.5t29.5 12.5t29.5 -12.5t12.5 -29.5t-12.5 -29.5t-29.5 -12.5t-29.5 12.5t-12.5 29.5zM221 611q0 17 12.5 29.5t29.5 12.5t29.5 -12.5t12.5 -29.5t-12.5 -29.5t-29.5 -12.5t-29.5 12.5t-12.5 29.5z"/>
<glyph glyph-name="copyright" horiz-adv-x="834" unicode="©" d="M417 -13q-152 0 -258 107t-106 260q0 154 106 261t258 107t258 -107t106 -261q0 -153 -106 -260t-258 -107zM417 674q-131 0 -221.5 -92.5t-90.5 -227.5q0 -134 90.5 -226.5t221.5 -92.5t221.5 92.5t90.5 226.5q0 135 -90.5 227.5t-221.5 92.5zM420 513q-60 0 -99.5 -43 t-39.5 -115t39 -115t100 -43q52 0 84 27.5t44 65.5l45 -20q-16 -50 -60.5 -85.5t-110.5 -35.5q-85 0 -139 58t-54 148t54 148t137 58q67 0 111 -35t59 -88l-47 -18q-11 41 -42 67t-81 26z"/>
<glyph glyph-name="ordfeminine" horiz-adv-x="393" unicode="ª" d="M51 463q0 41 27 66.5t72 31.5l93 14q32 5 32 31q0 32 -21.5 51.5t-60.5 19.5q-38 0 -61.5 -21t-28.5 -56l-46 12q5 47 42.5 77.5t92.5 30.5q67 0 100 -33.5t33 -86.5v-169q0 -35 4 -57h-49q-4 20 -4 53q-13 -26 -42.5 -44t-69.5 -18q-52 0 -82.5 28.5t-30.5 69.5z M275 526v23q-5 -6 -23 -9l-91 -15q-59 -10 -59 -60q0 -24 18 -41t51 -17q50 0 77 31.5t27 87.5z"/>
<glyph glyph-name="guillemotleft" horiz-adv-x="465" unicode="«" d="M410 95h-60l-133 191l133 191h60l-132 -191zM241 95h-60l-133 191l133 191h60l-132 -191z"/>
<glyph glyph-name="logicalnot" horiz-adv-x="578" unicode="¬" d="M500 218h-55v201h-385v53h440v-254z"/>
<glyph glyph-name="uni00AD" horiz-adv-x="401" unicode="­" d="M332 261h-263v52h263v-52z"/>
<glyph glyph-name="registered" horiz-adv-x="834" unicode="®" d="M417 -13q-152 0 -258 107t-106 260q0 154 106 261t258 107t258 -107t106 -261q0 -153 -106 -260t-258 -107zM417 674q-131 0 -221.5 -92.5t-90.5 -227.5q0 -134 90.5 -226.5t221.5 -92.5t221.5 92.5t90.5 226.5q0 135 -90.5 227.5t-221.5 92.5zM352 318v-162h-50v400h131 q56 0 91.5 -34t35.5 -85q0 -43 -26 -74.5t-68 -40.5l96 -166h-59l-92 162h-59zM352 362h74q39 0 61.5 20t22.5 54q0 36 -22.5 56t-61.5 20h-74v-150z"/>
<glyph glyph-name="macron" horiz-adv-x="344" unicode="¯" d="M299 583h-254v50h254v-50z"/>
<glyph glyph-name="degree" horiz-adv-x="392" unicode="°" d="M42 566q0 64 45 108.5t109 44.5t109 -44.5t45 -108.5t-45 -109t-109 -45t-109 45t-45 109zM196 462q43 0 71.5 30t28.5 74t-28.5 73.5t-71.5 29.5q-42 0 -71 -30t-29 -73q0 -44 29 -74t71 -30z"/>
<glyph glyph-name="plusminus" horiz-adv-x="604" unicode="±" d="M517 125h-430v51h430v-51zM517 384h-189v-145h-53v145h-188v50h188v145h53v-145h189v-50z"/>
<glyph glyph-name="twosuperior" horiz-adv-x="337" unicode="²" d="M93 575l-50 3q-2 14 -2 24q0 48 35 81t93 33q56 0 90.5 -32t34.5 -78q0 -63 -72 -108l-74 -46q-41 -27 -46 -61h196v-44h-258v5q0 88 78 135l69 42q55 34 55 78q0 27 -20.5 46.5t-53.5 19.5q-34 0 -55.5 -20.5t-21.5 -54.5q0 -7 2 -23z"/>
<glyph glyph-name="threesuperior" horiz-adv-x="355" unicode="³" d="M148 523l-22 39l114 104h-195v44h262v-42l-116 -104q1 0 4.5 0.5t4.5 0.5q48 -2 81.5 -29.5t33.5 -77.5t-38.5 -84t-99.5 -34q-59 0 -97.5 30t-44.5 76l46 17q3 -36 30.5 -58t64.5 -22t62 21.5t25 53.5q0 34 -24 52t-59 18q-17 0 -32 -5z"/>
<glyph glyph-name="acute" horiz-adv-x="249" unicode="´" d="M208 676l-118 -139h-49l89 139h78z"/>
<glyph glyph-name="mu" horiz-adv-x="531" unicode="µ" d="M251 -13q-81 0 -119 54v-231h-60v667h60v-291q0 -63 32 -104t98 -41q62 0 98.5 41.5t36.5 103.5v291h60v-386q0 -49 6 -91h-57q-5 25 -5 67v7q-18 -37 -57.5 -62t-92.5 -25z"/>
<glyph glyph-name="paragraph" horiz-adv-x="614" unicode="¶" d="M312 659v-849h-54v517h-33q-78 0 -134.5 56t-56.5 134q0 84 61.5 138t155.5 54h318v-50h-92v-849h-54v849h-111z"/>
<glyph glyph-name="periodcentered" horiz-adv-x="243" unicode="·" d="M69 284q0 22 15 37.5t37 15.5t37.5 -15.5t15.5 -37.5t-15.5 -37t-37.5 -15t-37 15t-15 37z"/>
<glyph glyph-name="cedilla" horiz-adv-x="306" unicode="¸" d="M120 -95l-24 29l48 74h48l-43 -64q11 4 24 4q40 0 64 -21t24 -55q0 -36 -28.5 -59t-79.5 -23q-70 0 -108 47l27 32q32 -39 80 -39q62 0 62 42q0 41 -57 41q-21 0 -37 -8z"/>
<glyph glyph-name="onesuperior" horiz-adv-x="217" unicode="¹" d="M165 347h-51v286q-31 -32 -87 -37v39q36 5 60 26t29 49h49v-363z"/>
<glyph glyph-name="ordmasculine" horiz-adv-x="423" unicode="º" d="M93 543q0 -61 34 -97t84 -36t84 36t34 97t-34.5 96.5t-83.5 35.5t-83.5 -35.5t-34.5 -96.5zM211 365q-72 0 -120 49.5t-48 128.5q0 78 48 127.5t120 49.5t120.5 -49.5t48.5 -127.5q0 -79 -48 -128.5t-121 -49.5z"/>
<glyph glyph-name="guillemotright" horiz-adv-x="465" unicode="»" d="M115 95h-60l132 191l-132 191h60l133 -191zM284 95h-60l132 191l-132 191h60l133 -191z"/>
<glyph glyph-name="onequarter" horiz-adv-x="749" unicode="¼" d="M591 127v179l-140 -179h140zM401 82v51l180 230h61v-236h71v-45h-71v-82h-51v82h-190zM177 346h-51v286q-31 -32 -87 -37v39q36 5 60 26t29 49h49v-363zM143 0h-57l474 709h55z"/>
<glyph glyph-name="onehalf" horiz-adv-x="766" unicode="½" d="M516 228l-50 3q-2 14 -2 24q0 48 35 81t93 33q56 0 90.5 -32t34.5 -78q0 -63 -72 -108l-74 -46q-41 -27 -46 -61h196v-44h-258v5q0 88 78 135l69 42q55 34 55 78q0 27 -20.5 46.5t-53.5 19.5q-34 0 -55.5 -20.5t-21.5 -54.5q0 -7 2 -23zM175 346h-51v286q-31 -32 -87 -37 v39q36 5 60 26t29 49h49v-363zM141 0h-57l474 709h55z"/>
<glyph glyph-name="threequarters" horiz-adv-x="828" unicode="¾" d="M155 522l-22 39l114 104h-195v44h262v-42l-116 -104q1 0 4.5 0.5t4.5 0.5q48 -2 81.5 -29.5t33.5 -77.5t-38.5 -84t-99.5 -34q-59 0 -97.5 30t-44.5 76l46 17q3 -36 30.5 -58t64.5 -22t62 21.5t25 53.5q0 34 -24 52t-59 18q-17 0 -32 -5zM670 127v179l-140 -179h140z M480 82v51l180 230h61v-236h71v-45h-71v-82h-51v82h-190zM222 0h-57l474 709h55z"/>
<glyph glyph-name="questiondown" horiz-adv-x="479" unicode="¿" d="M250 487q21 0 35.5 -14.5t14.5 -34.5q0 -21 -14.5 -35.5t-35.5 -14.5t-35.5 14.5t-14.5 35.5q0 20 14.5 34.5t35.5 14.5zM223 294h55q3 -10 3 -38q0 -92 -72 -147l-44 -34q-69 -53 -69 -123q0 -56 37.5 -95.5t103.5 -39.5q71 0 109.5 43t38.5 104q0 25 -8 54l61 -9 q8 -23 8 -51q0 -78 -54.5 -137.5t-154.5 -59.5q-93 0 -148.5 56.5t-55.5 133.5q0 97 100 172l45 33q47 34 47 106q0 14 -2 32z"/>
<glyph glyph-name="Agrave" horiz-adv-x="694" unicode="À" d="M315 759l-134 119h84l107 -119h-57zM346 646l-146 -369h293zM604 0l-88 219h-339l-87 -219h-68l287 709h76l287 -709h-68z"/>
<glyph glyph-name="Aacute" horiz-adv-x="694" unicode="Á" d="M512 878l-134 -119h-57l107 119h84zM346 646l-146 -369h293zM604 0l-88 219h-339l-87 -219h-68l287 709h76l287 -709h-68z"/>
<glyph glyph-name="Acircumflex" horiz-adv-x="694" unicode="Â" d="M249 759h-59l115 119h82l116 -119h-59l-98 84zM346 646l-146 -369h293zM604 0l-88 219h-339l-87 -219h-68l287 709h76l287 -709h-68z"/>
<glyph glyph-name="Atilde" horiz-adv-x="694" unicode="Ã" d="M501 871v-11q0 -45 -24 -71t-60 -26q-34 0 -66 23l-21 15q-29 20 -50 20q-39 0 -39 -55h-47v12q0 44 24.5 69.5t61.5 25.5q36 0 72 -27l18 -13q25 -18 45 -18q39 0 39 56h47zM346 646l-146 -369h293zM604 0l-88 219h-339l-87 -219h-68l287 709h76l287 -709h-68z"/>
<glyph glyph-name="Adieresis" horiz-adv-x="694" unicode="Ä" d="M346 646l-146 -369h293zM604 0l-88 219h-339l-87 -219h-68l287 709h76l287 -709h-68zM185 819q0 18 12.5 30.5t30.5 12.5t30.5 -12.5t12.5 -30.5t-12.5 -30.5t-30.5 -12.5t-30.5 12.5t-12.5 30.5zM423 819q0 18 12.5 30.5t30.5 12.5t30.5 -12.5t12.5 -30.5t-12.5 -30.5 t-30.5 -12.5t-30.5 12.5t-12.5 30.5z"/>
<glyph glyph-name="Aring" horiz-adv-x="694" unicode="Å" d="M452 768q0 -28 -15.5 -52.5t-39.5 -37.5l275 -678h-68l-88 219h-339l-87 -219h-68l275 677q-56 29 -56 91q0 44 31.5 74.5t74.5 30.5t74 -30.5t31 -74.5zM404 768q0 26 -16.5 43t-41.5 17q-24 0 -40.5 -17.5t-16.5 -42.5t16.5 -42t40.5 -17q25 0 41.5 17t16.5 42z M346 646l-146 -369h293z"/>
<glyph glyph-name="AE" horiz-adv-x="979" unicode="Æ" d="M505 652l-245 -375h245v375zM923 0h-418v219h-283l-143 -219h-79l472 709h451v-58h-354v-267h323v-58h-323v-268h354v-58z"/>
<glyph glyph-name="Ccedilla" horiz-adv-x="746" unicode="Ç" d="M373 -95l-24 29l34 53q-136 6 -233.5 104.5t-97.5 262.5q0 114 51 199.5t129 127t167 41.5q118 0 199 -61.5t106 -164.5l-57 -20q-21 88 -87 138t-161 50q-116 0 -199.5 -82.5t-83.5 -227.5q0 -144 83.5 -226.5t199.5 -82.5q97 0 164 52.5t89 138.5l55 -20 q-24 -95 -97 -156.5t-178 -70.5l-30 -45q11 4 24 4q40 0 64 -21t24 -55q0 -36 -28.5 -59t-79.5 -23q-70 0 -108 47l27 32q33 -39 80 -39q62 0 62 42q0 41 -57 41q-21 0 -37 -8z"/>
<glyph glyph-name="Egrave" horiz-adv-x="575" unicode="È" d="M519 0h-418v709h418v-58h-354v-267h323v-58h-323v-268h354v-58zM307 759l-134 119h84l107 -119h-57z"/>
<glyph glyph-name="Eacute" horiz-adv-x="575" unicode="É" d="M519 0h-418v709h418v-58h-354v-267h323v-58h-323v-268h354v-58zM442 878l-134 -119h-57l107 119h84z"/>
<glyph glyph-name="Ecircumflex" horiz-adv-x="575" unicode="Ê" d="M519 0h-418v709h418v-58h-354v-267h323v-58h-323v-268h354v-58zM214 759h-59l115 119h82l116 -119h-59l-98 84z"/>
<glyph glyph-name="Edieresis" horiz-adv-x="575" unicode="Ë" d="M371 819q0 18 12.5 30.5t30.5 12.5t30.5 -12.5t12.5 -30.5t-12.5 -30.5t-30.5 -12.5t-30.5 12.5t-12.5 30.5zM167 819q0 18 12.5 30.5t30.5 12.5t30.5 -12.5t12.5 -30.5t-12.5 -30.5t-30.5 -12.5t-30.5 12.5t-12.5 30.5zM519 0h-418v709h418v-58h-354v-267h323v-58h-323 v-268h354v-58z"/>
<glyph glyph-name="Igrave" horiz-adv-x="266" unicode="Ì" d="M104 759l-134 119h84l107 -119h-57zM165 0h-64v709h64v-709z"/>
<glyph glyph-name="Iacute" horiz-adv-x="266" unicode="Í" d="M296 878l-134 -119h-57l107 119h84zM165 0h-64v709h64v-709z"/>
<glyph glyph-name="Icircumflex" horiz-adv-x="266" unicode="Î" d="M36 759h-59l115 119h82l116 -119h-59l-98 84zM165 0h-64v709h64v-709z"/>
<glyph glyph-name="Idieresis" horiz-adv-x="266" unicode="Ï" d="M160 819q0 17 12 28.5t28 11.5t28 -11.5t12 -28.5t-12 -28.5t-28 -11.5t-28 11.5t-12 28.5zM27 819q0 17 11.5 28.5t28.5 11.5t28.5 -11.5t11.5 -28.5t-11.5 -28.5t-28.5 -11.5t-28.5 11.5t-11.5 28.5zM165 0h-64v709h64v-709z"/>
<glyph glyph-name="Eth" horiz-adv-x="713" unicode="Ð" d="M165 56h154q117 0 196.5 77.5t79.5 219.5q0 143 -78.5 221.5t-195.5 78.5h-156v-260h143v-54h-143v-283zM321 0h-219v339h-78v54h78v316h221q143 0 240 -94.5t97 -261.5q0 -166 -98 -259.5t-241 -93.5z"/>
<glyph glyph-name="Ntilde" horiz-adv-x="763" unicode="Ñ" d="M662 0h-68l-429 630v-630h-64v709h88l409 -605v605h64v-709zM542 871v-11q0 -45 -24 -71t-60 -26q-34 0 -66 23l-21 15q-29 20 -50 20q-39 0 -39 -55h-47v12q0 44 24.5 69.5t61.5 25.5q36 0 72 -27l18 -13q25 -18 45 -18q39 0 39 56h47z"/>
<glyph glyph-name="Ograve" horiz-adv-x="797" unicode="Ò" d="M52 354q0 114 51 199.5t128.5 127t166.5 41.5t167 -41.5t129 -127t51 -199.5q0 -86 -29.5 -157t-79 -116t-111 -69.5t-127.5 -24.5q-89 0 -166.5 41t-128.5 126.5t-51 199.5zM116 354q0 -144 83 -226.5t199 -82.5t199.5 82.5t83.5 226.5q0 145 -83.5 227.5t-199.5 82.5 t-199 -82.5t-83 -227.5zM377 759l-134 119h84l107 -119h-57z"/>
<glyph glyph-name="Oacute" horiz-adv-x="797" unicode="Ó" d="M52 354q0 114 51 199.5t128.5 127t166.5 41.5t167 -41.5t129 -127t51 -199.5q0 -86 -29.5 -157t-79 -116t-111 -69.5t-127.5 -24.5q-89 0 -166.5 41t-128.5 126.5t-51 199.5zM116 354q0 -144 83 -226.5t199 -82.5t199.5 82.5t83.5 226.5q0 145 -83.5 227.5t-199.5 82.5 t-199 -82.5t-83 -227.5zM553 878l-134 -119h-57l107 119h84z"/>
<glyph glyph-name="Ocircumflex" horiz-adv-x="797" unicode="Ô" d="M52 354q0 114 51 199.5t128.5 127t166.5 41.5t167 -41.5t129 -127t51 -199.5q0 -86 -29.5 -157t-79 -116t-111 -69.5t-127.5 -24.5q-89 0 -166.5 41t-128.5 126.5t-51 199.5zM116 354q0 -144 83 -226.5t199 -82.5t199.5 82.5t83.5 226.5q0 145 -83.5 227.5t-199.5 82.5 t-199 -82.5t-83 -227.5zM301 759h-59l115 119h82l116 -119h-59l-98 84z"/>
<glyph glyph-name="Otilde" horiz-adv-x="797" unicode="Õ" d="M52 354q0 114 51 199.5t128.5 127t166.5 41.5t167 -41.5t129 -127t51 -199.5q0 -86 -29.5 -157t-79 -116t-111 -69.5t-127.5 -24.5q-89 0 -166.5 41t-128.5 126.5t-51 199.5zM116 354q0 -144 83 -226.5t199 -82.5t199.5 82.5t83.5 226.5q0 145 -83.5 227.5t-199.5 82.5 t-199 -82.5t-83 -227.5zM553 871v-11q0 -45 -24 -71t-60 -26q-34 0 -66 23l-21 15q-29 20 -50 20q-39 0 -39 -55h-47v12q0 44 24.5 69.5t61.5 25.5q36 0 72 -27l18 -13q25 -18 45 -18q39 0 39 56h47z"/>
<glyph glyph-name="Odieresis" horiz-adv-x="797" unicode="Ö" d="M52 354q0 114 51 199.5t128.5 127t166.5 41.5t167 -41.5t129 -127t51 -199.5q0 -86 -29.5 -157t-79 -116t-111 -69.5t-127.5 -24.5q-89 0 -166.5 41t-128.5 126.5t-51 199.5zM116 354q0 -144 83 -226.5t199 -82.5t199.5 82.5t83.5 226.5q0 145 -83.5 227.5t-199.5 82.5 t-199 -82.5t-83 -227.5zM497 819q0 18 12.5 30.5t30.5 12.5t30.5 -12.5t12.5 -30.5t-12.5 -30.5t-30.5 -12.5t-30.5 12.5t-12.5 30.5zM213 819q0 18 12.5 30.5t30.5 12.5t30.5 -12.5t12.5 -30.5t-12.5 -30.5t-30.5 -12.5t-30.5 12.5t-12.5 30.5z"/>
<glyph glyph-name="multiply" horiz-adv-x="569" unicode="×" d="M107 569l178 -184l177 184l36 -36l-179 -185l180 -186l-36 -37l-179 186l-178 -185l-36 36l178 186l-177 184z"/>
<glyph glyph-name="Oslash" horiz-adv-x="798" unicode="Ø" d="M681 354q0 130 -74 216l-369 -476q70 -49 160 -49q116 0 199.5 82.5t83.5 226.5zM116 354q0 -139 81 -225l372 478q-74 57 -171 57q-116 0 -199 -82.5t-83 -227.5zM52 354q0 114 51 199.5t128.5 127t166.5 41.5q115 0 207 -69l74 96l43 -32l-77 -99q100 -103 100 -264 q0 -86 -29.5 -157t-79 -116t-111 -69.5t-127.5 -24.5q-107 0 -196 60l-70 -90l-43 32l71 92q-108 103 -108 273z"/>
<glyph glyph-name="Ugrave" horiz-adv-x="672" unicode="Ù" d="M336 -13q-111 0 -177 65t-66 184v473h64v-470q0 -94 46 -144t133 -50t133 50t46 144v470h64v-473q0 -119 -66 -184t-177 -65zM332 759l-134 119h84l107 -119h-57z"/>
<glyph glyph-name="Uacute" horiz-adv-x="672" unicode="Ú" d="M336 -13q-111 0 -177 65t-66 184v473h64v-470q0 -94 46 -144t133 -50t133 50t46 144v470h64v-473q0 -119 -66 -184t-177 -65zM474 878l-134 -119h-57l107 119h84z"/>
<glyph glyph-name="Ucircumflex" horiz-adv-x="672" unicode="Û" d="M336 -13q-111 0 -177 65t-66 184v473h64v-470q0 -94 46 -144t133 -50t133 50t46 144v470h64v-473q0 -119 -66 -184t-177 -65zM239 759h-59l115 119h82l116 -119h-59l-98 84z"/>
<glyph glyph-name="Udieresis" horiz-adv-x="672" unicode="Ü" d="M336 -13q-111 0 -177 65t-66 184v473h64v-470q0 -94 46 -144t133 -50t133 50t46 144v470h64v-473q0 -119 -66 -184t-177 -65zM394 819q0 18 12.5 30.5t30.5 12.5t30.5 -12.5t12.5 -30.5t-12.5 -30.5t-30.5 -12.5t-30.5 12.5t-12.5 30.5zM195 819q0 18 12.5 30.5 t30.5 12.5t30.5 -12.5t12.5 -30.5t-12.5 -30.5t-30.5 -12.5t-30.5 12.5t-12.5 30.5z"/>
<glyph glyph-name="Yacute" horiz-adv-x="616" unicode="Ý" d="M445 878l-134 -119h-57l107 119h84zM277 303l-248 406h75l204 -347l205 347h74l-248 -406v-303h-62v303z"/>
<glyph glyph-name="Thorn" horiz-adv-x="585" unicode="Þ" d="M165 211h160q75 0 119 40.5t44 106.5t-44 107t-119 41h-160v-295zM165 0h-64v709h64v-146h170q96 0 156.5 -58t60.5 -147t-60 -146.5t-157 -57.5h-170v-154z"/>
<glyph glyph-name="germandbls" horiz-adv-x="545" unicode="ß" d="M331 343q0 -14 10.5 -23.5t33.5 -22.5l38 -20q43 -22 70 -59.5t27 -84.5q0 -57 -41 -101.5t-114 -44.5q-76 0 -115 43t-41 96l56 14q1 -38 25.5 -69.5t74.5 -31.5q45 0 70 27t25 62q0 63 -70 100l-38 20q-71 37 -71 93q0 51 50 85l38 26q57 37 57 100q0 49 -35.5 82.5 t-96.5 33.5q-62 0 -103 -47t-41 -132v-489h-60v492q0 106 58 168t146 62q86 0 139 -48t53 -121q0 -88 -78 -141l-37 -25q-30 -20 -30 -44z"/>
<glyph glyph-name="agrave" horiz-adv-x="500" unicode="à" d="M230 537l-118 139h76l89 -139h-47zM208 39q69 0 113 42.5t44 113.5v54q-8 -8 -35 -12l-133 -20q-43 -6 -67 -29.5t-24 -61.5q0 -35 27.5 -61t74.5 -26zM201 -12q-72 0 -114 40t-42 95q0 59 38 95t105 46l127 19q50 7 50 46q0 49 -31.5 78.5t-88.5 29.5t-92.5 -29.5 t-41.5 -81.5l-56 12q8 68 60 109.5t129 41.5q89 0 135 -46.5t46 -119.5v-241q0 -47 7 -82h-59q-6 33 -6 82q-19 -38 -62.5 -66t-103.5 -28z"/>
<glyph glyph-name="aacute" horiz-adv-x="500" unicode="á" d="M382 676l-118 -139h-49l89 139h78zM208 39q69 0 113 42.5t44 113.5v54q-8 -8 -35 -12l-133 -20q-43 -6 -67 -29.5t-24 -61.5q0 -35 27.5 -61t74.5 -26zM201 -12q-72 0 -114 40t-42 95q0 59 38 95t105 46l127 19q50 7 50 46q0 49 -31.5 78.5t-88.5 29.5t-92.5 -29.5 t-41.5 -81.5l-56 12q8 68 60 109.5t129 41.5q89 0 135 -46.5t46 -119.5v-241q0 -47 7 -82h-59q-6 33 -6 82q-19 -38 -62.5 -66t-103.5 -28z"/>
<glyph glyph-name="acircumflex" horiz-adv-x="500" unicode="â" d="M208 39q69 0 113 42.5t44 113.5v54q-8 -8 -35 -12l-133 -20q-43 -6 -67 -29.5t-24 -61.5q0 -35 27.5 -61t74.5 -26zM201 -12q-72 0 -114 40t-42 95q0 59 38 95t105 46l127 19q50 7 50 46q0 49 -31.5 78.5t-88.5 29.5t-92.5 -29.5t-41.5 -81.5l-56 12q8 68 60 109.5 t129 41.5q89 0 135 -46.5t46 -119.5v-241q0 -47 7 -82h-59q-6 33 -6 82q-19 -38 -62.5 -66t-103.5 -28zM157 538h-54l110 137h72l110 -137h-54l-92 99z"/>
<glyph glyph-name="atilde" horiz-adv-x="500" unicode="ã" d="M401 659v-11q0 -45 -24 -71t-59 -26q-33 0 -65 23l-21 15q-29 20 -49 20q-38 0 -38 -55h-47v12q0 44 24 69.5t61 25.5q35 0 71 -27l18 -13q25 -18 44 -18q38 0 38 56h47zM208 39q69 0 113 42.5t44 113.5v54q-8 -8 -35 -12l-133 -20q-43 -6 -67 -29.5t-24 -61.5 q0 -35 27.5 -61t74.5 -26zM201 -12q-72 0 -114 40t-42 95q0 59 38 95t105 46l127 19q50 7 50 46q0 49 -31.5 78.5t-88.5 29.5t-92.5 -29.5t-41.5 -81.5l-56 12q8 68 60 109.5t129 41.5q89 0 135 -46.5t46 -119.5v-241q0 -47 7 -82h-59q-6 33 -6 82q-19 -38 -62.5 -66 t-103.5 -28z"/>
<glyph glyph-name="adieresis" horiz-adv-x="500" unicode="ä" d="M208 39q69 0 113 42.5t44 113.5v54q-8 -8 -35 -12l-133 -20q-43 -6 -67 -29.5t-24 -61.5q0 -35 27.5 -61t74.5 -26zM201 -12q-72 0 -114 40t-42 95q0 59 38 95t105 46l127 19q50 7 50 46q0 49 -31.5 78.5t-88.5 29.5t-92.5 -29.5t-41.5 -81.5l-56 12q8 68 60 109.5 t129 41.5q89 0 135 -46.5t46 -119.5v-241q0 -47 7 -82h-59q-6 33 -6 82q-19 -38 -62.5 -66t-103.5 -28zM115 611q0 17 12.5 29.5t29.5 12.5t29.5 -12.5t12.5 -29.5t-12.5 -29.5t-29.5 -12.5t-29.5 12.5t-12.5 29.5zM291 611q0 17 12.5 29.5t29.5 12.5t29.5 -12.5t12.5 -29.5 t-12.5 -29.5t-29.5 -12.5t-29.5 12.5t-12.5 29.5z"/>
<glyph glyph-name="aring" horiz-adv-x="500" unicode="å" d="M307 635q0 26 -17.5 44.5t-43.5 18.5t-43.5 -18.5t-17.5 -44.5t17.5 -44.5t43.5 -18.5t43.5 18.5t17.5 44.5zM351 635q0 -43 -30.5 -74t-74.5 -31q-43 0 -74 31t-31 74t31 74t74 31q44 0 74.5 -31t30.5 -74zM208 39q69 0 113 42.5t44 113.5v54q-8 -8 -35 -12l-133 -20 q-43 -6 -67 -29.5t-24 -61.5q0 -35 27.5 -61t74.5 -26zM201 -12q-72 0 -114 40t-42 95q0 59 38 95t105 46l127 19q50 7 50 46q0 49 -31.5 78.5t-88.5 29.5t-92.5 -29.5t-41.5 -81.5l-56 12q8 68 60 109.5t129 41.5q89 0 135 -46.5t46 -119.5v-241q0 -47 7 -82h-59 q-6 33 -6 82q-19 -38 -62.5 -66t-103.5 -28z"/>
<glyph glyph-name="ae" horiz-adv-x="853" unicode="æ" d="M202 -13q-72 0 -114.5 40.5t-42.5 95.5q0 59 38 94.5t106 46.5l127 19q50 8 50 47q0 48 -31.5 78t-88.5 30t-92.5 -30t-40.5 -82l-58 13q8 69 60.5 110t129.5 41q126 0 167 -93q30 44 75.5 68.5t98.5 24.5q104 0 163 -66.5t60 -174.5q0 -14 -1 -22h-382v-12 q3 -78 52 -126t119 -48q61 0 100.5 31t55.5 82l53 -19q-22 -65 -76 -106.5t-133 -41.5q-65 0 -118.5 32t-83.5 91q-22 -54 -70.5 -88.5t-122.5 -34.5zM428 277h318q-2 69 -44 114t-115 45q-66 0 -110 -46t-49 -113zM209 38q69 0 113 42.5t44 114.5v58q-11 -13 -63 -20 l-107 -16q-89 -13 -89 -91q0 -36 27.5 -62t74.5 -26z"/>
<glyph glyph-name="ccedilla" horiz-adv-x="529" unicode="ç" d="M252 -95l-24 29l35 54q-95 7 -155.5 76.5t-60.5 173.5q0 110 66.5 181t167.5 71q81 0 133.5 -42.5t70.5 -107.5l-53 -22q-14 50 -51 84t-100 34q-74 0 -124 -54t-50 -144q0 -89 50 -143t124 -54q63 0 102 35t53 82l53 -22q-17 -56 -63.5 -97.5t-114.5 -49.5l-30 -45 q11 4 24 4q40 0 64 -21t24 -55q0 -36 -28.5 -59t-79.5 -23q-70 0 -108 47l27 32q32 -39 80 -39q62 0 62 42q0 41 -57 41q-21 0 -37 -8z"/>
<glyph glyph-name="egrave" horiz-adv-x="535" unicode="è" d="M255 537l-118 139h76l89 -139h-47zM435 154l53 -19q-22 -65 -76 -106.5t-133 -41.5q-98 0 -165 68.5t-67 184.5q0 110 64.5 180t156.5 70q104 0 163 -66.5t60 -174.5q0 -14 -1 -22h-382v-4q1 -81 50 -131.5t121 -50.5q61 0 100.5 31t55.5 82zM110 277h318q-2 69 -44 114 t-115 45q-66 0 -110 -46t-49 -113z"/>
<glyph glyph-name="eacute" horiz-adv-x="535" unicode="é" d="M435 154l53 -19q-22 -65 -76 -106.5t-133 -41.5q-98 0 -165 68.5t-67 184.5q0 110 64.5 180t156.5 70q104 0 163 -66.5t60 -174.5q0 -14 -1 -22h-382v-4q1 -81 50 -131.5t121 -50.5q61 0 100.5 31t55.5 82zM110 277h318q-2 69 -44 114t-115 45q-66 0 -110 -46t-49 -113z M413 676l-118 -139h-49l89 139h78z"/>
<glyph glyph-name="ecircumflex" horiz-adv-x="535" unicode="ê" d="M435 154l53 -19q-22 -65 -76 -106.5t-133 -41.5q-98 0 -165 68.5t-67 184.5q0 110 64.5 180t156.5 70q104 0 163 -66.5t60 -174.5q0 -14 -1 -22h-382v-4q1 -81 50 -131.5t121 -50.5q61 0 100.5 31t55.5 82zM110 277h318q-2 69 -44 114t-115 45q-66 0 -110 -46t-49 -113z M177 538h-54l110 137h72l110 -137h-54l-92 99z"/>
<glyph glyph-name="edieresis" horiz-adv-x="535" unicode="ë" d="M435 154l53 -19q-22 -65 -76 -106.5t-133 -41.5q-98 0 -165 68.5t-67 184.5q0 110 64.5 180t156.5 70q104 0 163 -66.5t60 -174.5q0 -14 -1 -22h-382v-4q1 -81 50 -131.5t121 -50.5q61 0 100.5 31t55.5 82zM110 277h318q-2 69 -44 114t-115 45q-66 0 -110 -46t-49 -113z M140 611q0 17 12.5 29.5t29.5 12.5t29.5 -12.5t12.5 -29.5t-12.5 -29.5t-29.5 -12.5t-29.5 12.5t-12.5 29.5zM316 611q0 17 12.5 29.5t29.5 12.5t29.5 -12.5t12.5 -29.5t-12.5 -29.5t-29.5 -12.5t-29.5 12.5t-12.5 29.5z"/>
<glyph glyph-name="igrave" horiz-adv-x="220" unicode="ì" d="M90 537l-118 139h76l89 -139h-47zM140 0h-60v477h60v-477z"/>
<glyph glyph-name="iacute" horiz-adv-x="220" unicode="í" d="M140 0h-60v477h60v-477zM252 676l-118 -139h-49l89 139h78z"/>
<glyph glyph-name="icircumflex" horiz-adv-x="220" unicode="î" d="M140 0h-60v477h60v-477zM18 538h-54l110 137h72l110 -137h-54l-92 99z"/>
<glyph glyph-name="idieresis" horiz-adv-x="220" unicode="ï" d="M133 610q0 16 11.5 28t28.5 12t28.5 -12t11.5 -28t-11.5 -28t-28.5 -12t-28.5 12t-11.5 28zM7 610q0 16 11.5 28t28.5 12t28.5 -12t11.5 -28t-11.5 -28t-28.5 -12t-28.5 12t-11.5 28zM140 0h-60v477h60v-477z"/>
<glyph glyph-name="eth" horiz-adv-x="566" unicode="ð" d="M280 41q77 0 125 54.5t48 140.5q0 78 -50.5 125.5t-122.5 47.5t-122.5 -49.5t-50.5 -132.5t49.5 -134.5t123.5 -51.5zM469 650l-95 -47q139 -137 139 -348q0 -117 -62.5 -192.5t-170.5 -75.5q-102 0 -167.5 68.5t-65.5 171.5q0 105 67 170.5t158 65.5q112 0 162 -77 q-31 112 -114 190l-133 -67l-19 41l111 55q-64 49 -137 68l19 49q96 -25 175 -88l113 57z"/>
<glyph glyph-name="ntilde" horiz-adv-x="537" unicode="ñ" d="M140 285v-285h-60v477h58v-76q20 40 61 64t94 24q81 0 125 -50.5t44 -127.5v-311h-60v301q0 60 -31.5 97t-97.5 37q-60 0 -96.5 -43.5t-36.5 -106.5zM430 659v-11q0 -45 -24 -71t-59 -26q-33 0 -65 23l-21 15q-29 20 -49 20q-38 0 -38 -55h-47v12q0 44 24 69.5t61 25.5 q35 0 71 -27l18 -13q25 -18 44 -18q38 0 38 56h47z"/>
<glyph glyph-name="ograve" horiz-adv-x="568" unicode="ò" d="M108 238q0 -90 51 -143.5t125 -53.5t125 53.5t51 143.5t-51 143.5t-125 53.5t-125 -53.5t-51 -143.5zM284 -13q-101 0 -169 70.5t-68 180.5q0 111 67.5 181t169.5 70q101 0 169 -70t68 -181q0 -110 -68 -180.5t-169 -70.5zM262 537l-118 139h76l89 -139h-47z"/>
<glyph glyph-name="oacute" horiz-adv-x="568" unicode="ó" d="M108 238q0 -90 51 -143.5t125 -53.5t125 53.5t51 143.5t-51 143.5t-125 53.5t-125 -53.5t-51 -143.5zM284 -13q-101 0 -169 70.5t-68 180.5q0 111 67.5 181t169.5 70q101 0 169 -70t68 -181q0 -110 -68 -180.5t-169 -70.5zM415 676l-118 -139h-49l89 139h78z"/>
<glyph glyph-name="ocircumflex" horiz-adv-x="568" unicode="ô" d="M108 238q0 -90 51 -143.5t125 -53.5t125 53.5t51 143.5t-51 143.5t-125 53.5t-125 -53.5t-51 -143.5zM284 -13q-101 0 -169 70.5t-68 180.5q0 111 67.5 181t169.5 70q101 0 169 -70t68 -181q0 -110 -68 -180.5t-169 -70.5zM189 538h-54l110 137h72l110 -137h-54l-92 99z "/>
<glyph glyph-name="otilde" horiz-adv-x="568" unicode="õ" d="M434 659v-11q0 -45 -24 -71t-59 -26q-33 0 -65 23l-21 15q-29 20 -49 20q-38 0 -38 -55h-47v12q0 44 24 69.5t61 25.5q35 0 71 -27l18 -13q25 -18 44 -18q38 0 38 56h47zM108 238q0 -90 51 -143.5t125 -53.5t125 53.5t51 143.5t-51 143.5t-125 53.5t-125 -53.5 t-51 -143.5zM284 -13q-101 0 -169 70.5t-68 180.5q0 111 67.5 181t169.5 70q101 0 169 -70t68 -181q0 -110 -68 -180.5t-169 -70.5z"/>
<glyph glyph-name="odieresis" horiz-adv-x="568" unicode="ö" d="M108 238q0 -90 51 -143.5t125 -53.5t125 53.5t51 143.5t-51 143.5t-125 53.5t-125 -53.5t-51 -143.5zM284 -13q-101 0 -169 70.5t-68 180.5q0 111 67.5 181t169.5 70q101 0 169 -70t68 -181q0 -110 -68 -180.5t-169 -70.5zM152 611q0 17 12.5 29.5t29.5 12.5t29.5 -12.5 t12.5 -29.5t-12.5 -29.5t-29.5 -12.5t-29.5 12.5t-12.5 29.5zM328 611q0 17 12.5 29.5t29.5 12.5t29.5 -12.5t12.5 -29.5t-12.5 -29.5t-29.5 -12.5t-29.5 12.5t-12.5 29.5z"/>
<glyph glyph-name="divide" horiz-adv-x="600" unicode="÷" d="M251 525q0 20 14.5 34t33.5 14q20 0 34 -14t14 -34q0 -19 -14.5 -33.5t-33.5 -14.5t-33.5 14.5t-14.5 33.5zM521 322h-442v53h442v-53zM251 170q0 19 14.5 33t33.5 14q20 0 34 -14t14 -33q0 -20 -14.5 -34t-33.5 -14t-33.5 14.5t-14.5 33.5z"/>
<glyph glyph-name="oslash" d="M282 41q73 0 124 53.5t51 143.5q0 76 -39 130l-232 -298q43 -29 96 -29zM108 238q0 -81 42 -134l233 299q-43 33 -101 33q-73 0 -123.5 -54t-50.5 -144zM282 490q77 0 135 -43l55 71l39 -31l-57 -73q63 -71 63 -176q0 -110 -67.5 -180.5t-167.5 -70.5q-73 0 -131 39 l-52 -67l-38 31l53 68q-66 71 -66 180q0 111 66.5 181.5t167.5 70.5z" unicode="ø"/>
<glyph glyph-name="ugrave" horiz-adv-x="539" unicode="ù" d="M262 537l-118 139h76l89 -139h-47zM402 74q-18 -37 -57.5 -62t-92.5 -25q-86 0 -132 54.5t-46 135.5v300h60v-290q0 -63 31.5 -104.5t97.5 -41.5q62 0 98.5 41.5t36.5 103.5v291h60v-386q0 -49 6 -91h-57q-5 25 -5 67v7z"/>
<glyph glyph-name="uacute" horiz-adv-x="539" unicode="ú" d="M402 74q-18 -37 -57.5 -62t-92.5 -25q-86 0 -132 54.5t-46 135.5v300h60v-290q0 -63 31.5 -104.5t97.5 -41.5q62 0 98.5 41.5t36.5 103.5v291h60v-386q0 -49 6 -91h-57q-5 25 -5 67v7zM385 676l-118 -139h-49l89 139h78z"/>
<glyph glyph-name="ucircumflex" horiz-adv-x="539" unicode="û" d="M402 74q-18 -37 -57.5 -62t-92.5 -25q-86 0 -132 54.5t-46 135.5v300h60v-290q0 -63 31.5 -104.5t97.5 -41.5q62 0 98.5 41.5t36.5 103.5v291h60v-386q0 -49 6 -91h-57q-5 25 -5 67v7zM175 538h-54l110 137h72l110 -137h-54l-92 99z"/>
<glyph glyph-name="udieresis" horiz-adv-x="539" unicode="ü" d="M402 74q-18 -37 -57.5 -62t-92.5 -25q-86 0 -132 54.5t-46 135.5v300h60v-290q0 -63 31.5 -104.5t97.5 -41.5q62 0 98.5 41.5t36.5 103.5v291h60v-386q0 -49 6 -91h-57q-5 25 -5 67v7zM135 611q0 17 12.5 29.5t29.5 12.5t29.5 -12.5t12.5 -29.5t-12.5 -29.5t-29.5 -12.5 t-29.5 12.5t-12.5 29.5zM311 611q0 17 12.5 29.5t29.5 12.5t29.5 -12.5t12.5 -29.5t-12.5 -29.5t-29.5 -12.5t-29.5 12.5t-12.5 29.5z"/>
<glyph glyph-name="yacute" horiz-adv-x="501" unicode="ý" d="M373 676l-118 -139h-49l89 139h78zM174 -190h-65l119 252l-203 415h67l167 -352l158 352h66z"/>
<glyph glyph-name="thorn" horiz-adv-x="577" unicode="þ" d="M469 239q0 85 -46 141t-120 56q-73 0 -118.5 -56t-45.5 -141q0 -86 45.5 -142t118.5 -56q74 0 120 56.5t46 141.5zM80 722h60v-338q21 43 65 74.5t108 31.5q99 0 157.5 -71t58.5 -180t-59.5 -180.5t-158.5 -71.5q-63 0 -106.5 30.5t-64.5 72.5v-280h-60v912z"/>
<glyph glyph-name="ydieresis" horiz-adv-x="501" unicode="ÿ" d="M174 -190h-65l119 252l-203 415h67l167 -352l158 352h66zM124 611q0 17 12.5 29.5t29.5 12.5t29.5 -12.5t12.5 -29.5t-12.5 -29.5t-29.5 -12.5t-29.5 12.5t-12.5 29.5zM300 611q0 17 12.5 29.5t29.5 12.5t29.5 -12.5t12.5 -29.5t-12.5 -29.5t-29.5 -12.5t-29.5 12.5 t-12.5 29.5z"/>
<glyph glyph-name="Amacron" horiz-adv-x="694" unicode="Ā" d="M482 793h-272v52h272v-52zM346 646l-146 -369h293zM604 0l-88 219h-339l-87 -219h-68l287 709h76l287 -709h-68z"/>
<glyph glyph-name="amacron" horiz-adv-x="500" unicode="ā" d="M375 583h-254v50h254v-50zM208 39q69 0 113 42.5t44 113.5v54q-8 -8 -35 -12l-133 -20q-43 -6 -67 -29.5t-24 -61.5q0 -35 27.5 -61t74.5 -26zM201 -12q-72 0 -114 40t-42 95q0 59 38 95t105 46l127 19q50 7 50 46q0 49 -31.5 78.5t-88.5 29.5t-92.5 -29.5t-41.5 -81.5 l-56 12q8 68 60 109.5t129 41.5q89 0 135 -46.5t46 -119.5v-241q0 -47 7 -82h-59q-6 33 -6 82q-19 -38 -62.5 -66t-103.5 -28z"/>
<glyph glyph-name="Abreve" horiz-adv-x="694" unicode="Ă" d="M347 754q-64 0 -102.5 37t-42.5 89h52q3 -32 27 -55t66 -23q43 0 66 23t26 55h52q-3 -52 -41.5 -89t-102.5 -37zM346 646l-146 -369h293zM604 0l-88 219h-339l-87 -219h-68l287 709h76l287 -709h-68z"/>
<glyph glyph-name="abreve" horiz-adv-x="500" unicode="ă" d="M247 538q-64 0 -101.5 41.5t-38.5 96.5h47q2 -36 25.5 -62.5t67.5 -26.5t67.5 26.5t25.5 62.5h47q-1 -55 -38.5 -96.5t-101.5 -41.5zM208 39q69 0 113 42.5t44 113.5v54q-8 -8 -35 -12l-133 -20q-43 -6 -67 -29.5t-24 -61.5q0 -35 27.5 -61t74.5 -26zM201 -12 q-72 0 -114 40t-42 95q0 59 38 95t105 46l127 19q50 7 50 46q0 49 -31.5 78.5t-88.5 29.5t-92.5 -29.5t-41.5 -81.5l-56 12q8 68 60 109.5t129 41.5q89 0 135 -46.5t46 -119.5v-241q0 -47 7 -82h-59q-6 33 -6 82q-19 -38 -62.5 -66t-103.5 -28z"/>
<glyph glyph-name="Aogonek" horiz-adv-x="694" unicode="Ą" d="M346 646l-146 -369h293zM604 0l-88 219h-339l-87 -219h-68l287 709h76l287 -709q-83 -43 -83 -106q0 -27 18 -42t45 -15q19 0 34 5v-44q-19 -8 -45 -8q-44 0 -73.5 25t-29.5 68q0 70 73 117h-7z"/>
<glyph glyph-name="aogonek" horiz-adv-x="500" unicode="ą" d="M208 39q69 0 113 42.5t44 113.5v54q-8 -8 -35 -12l-133 -20q-43 -6 -67 -29.5t-24 -61.5q0 -35 27.5 -61t74.5 -26zM298 -117q0 70 74 118q-5 30 -5 81q-19 -38 -62.5 -66t-103.5 -28q-72 0 -114 40t-42 95q0 59 38 95t105 46l127 19q50 7 50 46q0 49 -31.5 78.5 t-88.5 29.5t-92.5 -29.5t-41.5 -81.5l-56 12q8 68 60 109.5t129 41.5q89 0 135 -46.5t46 -119.5v-241q0 -47 7 -82q-83 -43 -83 -106q0 -27 18 -42t45 -15q19 0 34 5v-44q-19 -8 -45 -8q-44 0 -73.5 25t-29.5 68z"/>
<glyph glyph-name="Cacute" horiz-adv-x="746" unicode="Ć" d="M399 -13q-67 0 -128.5 24.5t-110.5 69.5t-78.5 116t-29.5 157q0 114 51 199.5t129 127t167 41.5q118 0 199 -61.5t106 -164.5l-57 -20q-21 88 -87 138t-161 50q-116 0 -199.5 -82.5t-83.5 -227.5q0 -144 83.5 -226.5t199.5 -82.5q97 0 164 52.5t89 138.5l55 -20 q-26 -102 -108.5 -165.5t-199.5 -63.5zM545 878l-134 -119h-57l107 119h84z"/>
<glyph glyph-name="cacute" horiz-adv-x="529" unicode="ć" d="M281 436q-74 0 -124 -54t-50 -144q0 -89 50 -143t124 -54q63 0 102 35t53 82l53 -22q-19 -62 -73.5 -105.5t-134.5 -43.5q-101 0 -167.5 71t-66.5 180q0 110 66.5 181t167.5 71q81 0 133.5 -42.5t70.5 -107.5l-53 -22q-14 50 -51 84t-100 34zM416 676l-118 -139h-49 l89 139h78z"/>
<glyph glyph-name="Ccircumflex" horiz-adv-x="746" unicode="Ĉ" d="M399 -13q-67 0 -128.5 24.5t-110.5 69.5t-78.5 116t-29.5 157q0 114 51 199.5t129 127t167 41.5q118 0 199 -61.5t106 -164.5l-57 -20q-21 88 -87 138t-161 50q-116 0 -199.5 -82.5t-83.5 -227.5q0 -144 83.5 -226.5t199.5 -82.5q97 0 164 52.5t89 138.5l55 -20 q-26 -102 -108.5 -165.5t-199.5 -63.5zM302 759h-59l115 119h82l116 -119h-59l-98 84z"/>
<glyph glyph-name="ccircumflex" horiz-adv-x="529" unicode="ĉ" d="M281 436q-74 0 -124 -54t-50 -144q0 -89 50 -143t124 -54q63 0 102 35t53 82l53 -22q-19 -62 -73.5 -105.5t-134.5 -43.5q-101 0 -167.5 71t-66.5 180q0 110 66.5 181t167.5 71q81 0 133.5 -42.5t70.5 -107.5l-53 -22q-14 50 -51 84t-100 34zM191 538h-54l110 137h72 l110 -137h-54l-92 99z"/>
<glyph glyph-name="Cdotaccent" horiz-adv-x="746" unicode="Ċ" d="M354 818q0 20 14 33.5t33 13.5t33 -13.5t14 -33.5t-14 -33.5t-33 -13.5t-33 13.5t-14 33.5zM399 -13q-67 0 -128.5 24.5t-110.5 69.5t-78.5 116t-29.5 157q0 114 51 199.5t129 127t167 41.5q118 0 199 -61.5t106 -164.5l-57 -20q-21 88 -87 138t-161 50 q-116 0 -199.5 -82.5t-83.5 -227.5q0 -144 83.5 -226.5t199.5 -82.5q97 0 164 52.5t89 138.5l55 -20q-26 -102 -108.5 -165.5t-199.5 -63.5z"/>
<glyph glyph-name="cdotaccent" horiz-adv-x="529" unicode="ċ" d="M237 607q0 19 13.5 33t33.5 14t33.5 -14t13.5 -33t-13.5 -33t-33.5 -14t-33.5 14t-13.5 33zM281 436q-74 0 -124 -54t-50 -144q0 -89 50 -143t124 -54q63 0 102 35t53 82l53 -22q-19 -62 -73.5 -105.5t-134.5 -43.5q-101 0 -167.5 71t-66.5 180q0 110 66.5 181t167.5 71 q81 0 133.5 -42.5t70.5 -107.5l-53 -22q-14 50 -51 84t-100 34z"/>
<glyph glyph-name="Ccaron" horiz-adv-x="746" unicode="Č" d="M399 -13q-67 0 -128.5 24.5t-110.5 69.5t-78.5 116t-29.5 157q0 114 51 199.5t129 127t167 41.5q118 0 199 -61.5t106 -164.5l-57 -20q-21 88 -87 138t-161 50q-116 0 -199.5 -82.5t-83.5 -227.5q0 -144 83.5 -226.5t199.5 -82.5q97 0 164 52.5t89 138.5l55 -20 q-26 -102 -108.5 -165.5t-199.5 -63.5zM243 878h59l97 -84l98 84h59l-116 -119h-82z"/>
<glyph glyph-name="ccaron" horiz-adv-x="529" unicode="č" d="M281 436q-74 0 -124 -54t-50 -144q0 -89 50 -143t124 -54q63 0 102 35t53 82l53 -22q-19 -62 -73.5 -105.5t-134.5 -43.5q-101 0 -167.5 71t-66.5 180q0 110 66.5 181t167.5 71q81 0 133.5 -42.5t70.5 -107.5l-53 -22q-14 50 -51 84t-100 34zM131 675h54l92 -99l92 99h54 l-110 -137h-72z"/>
<glyph glyph-name="Dcaron" horiz-adv-x="712" unicode="Ď" d="M320 0h-219v709h221q143 0 240 -94.5t97 -261.5q0 -166 -98 -259.5t-241 -93.5zM164 56h154q117 0 196.5 77.5t79.5 219.5q0 143 -78.5 221.5t-195.5 78.5h-156v-597zM194 878h59l97 -84l98 84h59l-116 -119h-82z"/>
<glyph glyph-name="dcaron" horiz-adv-x="574" unicode="ď" d="M434 75v19q-19 -43 -61 -75t-106 -32q-99 0 -159.5 71.5t-60.5 180.5q0 107 61.5 179t158.5 72q68 0 108.5 -31.5t57.5 -71.5v335h60v-631q0 -66 5 -91h-59q-5 30 -5 75zM107 239q0 -86 45.5 -142t119.5 -56q73 0 117.5 56t44.5 142t-44 141.5t-117 55.5q-74 0 -120 -55 t-46 -142zM638 722l-58 -176h-46l36 176h68z"/>
<glyph glyph-name="Dcroat" horiz-adv-x="713" unicode="Đ" d="M165 56h154q117 0 196.5 77.5t79.5 219.5q0 143 -78.5 221.5t-195.5 78.5h-156v-260h143v-54h-143v-283zM321 0h-219v339h-78v54h78v316h221q143 0 240 -94.5t97 -261.5q0 -166 -98 -259.5t-241 -93.5z"/>
<glyph glyph-name="dcroat" horiz-adv-x="574" unicode="đ" d="M107 239q0 -86 45.5 -142t119.5 -56q73 0 117.5 56t44.5 142t-44 141.5t-117 55.5q-74 0 -120 -55t-46 -142zM434 75v19q-19 -43 -61 -75t-106 -32q-99 0 -159.5 71.5t-60.5 180.5q0 107 61.5 179t158.5 72q68 0 108.5 -31.5t57.5 -71.5v183h-132v50h132v102h60v-102h94 v-50h-94v-479q0 -66 5 -91h-59q-5 30 -5 75z"/>
<glyph glyph-name="Emacron" horiz-adv-x="575" unicode="Ē" d="M445 793h-272v52h272v-52zM519 0h-418v709h418v-58h-354v-267h323v-58h-323v-268h354v-58z"/>
<glyph glyph-name="emacron" horiz-adv-x="535" unicode="ē" d="M435 154l53 -19q-22 -65 -76 -106.5t-133 -41.5q-98 0 -165 68.5t-67 184.5q0 110 64.5 180t156.5 70q104 0 163 -66.5t60 -174.5q0 -14 -1 -22h-382v-4q1 -81 50 -131.5t121 -50.5q61 0 100.5 31t55.5 82zM110 277h318q-2 69 -44 114t-115 45q-66 0 -110 -46t-49 -113z M396 583h-254v50h254v-50z"/>
<glyph glyph-name="Ebreve" horiz-adv-x="575" unicode="Ĕ" d="M519 0h-418v709h418v-58h-354v-267h323v-58h-323v-268h354v-58zM312 754q-64 0 -102.5 37t-42.5 89h52q3 -32 27 -55t66 -23q43 0 66 23t26 55h52q-3 -52 -41.5 -89t-102.5 -37z"/>
<glyph glyph-name="ebreve" horiz-adv-x="535" unicode="ĕ" d="M269 538q-64 0 -101.5 41.5t-38.5 96.5h47q2 -36 25.5 -62.5t67.5 -26.5t67.5 26.5t25.5 62.5h47q-1 -55 -38.5 -96.5t-101.5 -41.5zM435 154l53 -19q-22 -65 -76 -106.5t-133 -41.5q-98 0 -165 68.5t-67 184.5q0 110 64.5 180t156.5 70q104 0 163 -66.5t60 -174.5 q0 -14 -1 -22h-382v-4q1 -81 50 -131.5t121 -50.5q61 0 100.5 31t55.5 82zM110 277h318q-2 69 -44 114t-115 45q-66 0 -110 -46t-49 -113z"/>
<glyph glyph-name="Edotaccent" horiz-adv-x="575" unicode="Ė" d="M519 0h-418v709h418v-58h-354v-267h323v-58h-323v-268h354v-58zM266 818q0 20 14 33.5t33 13.5t33 -13.5t14 -33.5t-14 -33.5t-33 -13.5t-33 13.5t-14 33.5z"/>
<glyph glyph-name="edotaccent" horiz-adv-x="535" unicode="ė" d="M222 607q0 19 14 33t33 14t33 -14t14 -33t-14 -33t-33 -14t-33 14t-14 33zM435 154l53 -19q-22 -65 -76 -106.5t-133 -41.5q-98 0 -165 68.5t-67 184.5q0 110 64.5 180t156.5 70q104 0 163 -66.5t60 -174.5q0 -14 -1 -22h-382v-4q1 -81 50 -131.5t121 -50.5 q61 0 100.5 31t55.5 82zM110 277h318q-2 69 -44 114t-115 45q-66 0 -110 -46t-49 -113z"/>
<glyph glyph-name="Eogonek" horiz-adv-x="575" unicode="Ę" d="M385 -117q0 70 73 117h-357v709h418v-58h-354v-267h323v-58h-323v-268h354v-58q-83 -43 -83 -106q0 -27 18 -42t45 -15q19 0 34 5v-44q-19 -8 -45 -8q-44 0 -73.5 25t-29.5 68z"/>
<glyph glyph-name="eogonek" horiz-adv-x="535" unicode="ę" d="M110 277h318q-2 69 -44 114t-115 45q-66 0 -110 -46t-49 -113zM224 -117q0 60 55 104q-98 0 -165 68.5t-67 184.5q0 110 64.5 180t156.5 70q104 0 163 -66.5t60 -174.5q0 -14 -1 -22h-382v-4q1 -81 50 -131.5t121 -50.5q61 0 100.5 31t55.5 82l53 -19q-33 -94 -122 -132 q-36 -15 -63.5 -44.5t-27.5 -64.5q0 -27 18 -42t45 -15q19 0 34 5v-44q-19 -8 -45 -8q-44 0 -73.5 25t-29.5 68z"/>
<glyph glyph-name="Ecaron" horiz-adv-x="575" unicode="Ě" d="M519 0h-418v709h418v-58h-354v-267h323v-58h-323v-268h354v-58zM161 878h59l97 -84l98 84h59l-116 -119h-82z"/>
<glyph glyph-name="ecaron" horiz-adv-x="535" unicode="ě" d="M435 154l53 -19q-22 -65 -76 -106.5t-133 -41.5q-98 0 -165 68.5t-67 184.5q0 110 64.5 180t156.5 70q104 0 163 -66.5t60 -174.5q0 -14 -1 -22h-382v-4q1 -81 50 -131.5t121 -50.5q61 0 100.5 31t55.5 82zM110 277h318q-2 69 -44 114t-115 45q-66 0 -110 -46t-49 -113z M123 675h54l92 -99l92 99h54l-110 -137h-72z"/>
<glyph glyph-name="Gcircumflex" horiz-adv-x="766" unicode="Ĝ" d="M699 0h-50l-6 137q-26 -58 -90 -104t-167 -46q-63 0 -122.5 24.5t-107 69.5t-76 116.5t-28.5 157.5q0 114 50 199.5t127 126.5t166 41q112 0 194.5 -58t113.5 -155l-57 -24q-27 83 -93 131t-158 48q-115 0 -197 -82t-82 -227q0 -74 23.5 -134.5t62.5 -98t87 -58t99 -20.5 q66 0 117 23t78.5 59.5t41 74t14.5 74.5h-262v58h322v-333zM298 759h-59l115 119h82l116 -119h-59l-98 84z"/>
<glyph glyph-name="gcircumflex" horiz-adv-x="562" unicode="ĝ" d="M268 77q70 0 113 50.5t43 129.5q0 78 -43 128.5t-113 50.5q-71 0 -115.5 -50.5t-44.5 -128.5q0 -79 44.5 -129.5t115.5 -50.5zM48 -27l57 14q6 -58 48.5 -97.5t104.5 -39.5q164 0 164 184v88q-18 -41 -59 -69t-102 -28q-93 0 -153 66t-60 166q0 99 59.5 165t153.5 66 q116 0 162 -93v82h59v-442q0 -45 -11 -84.5t-35 -75.5t-70 -57t-109 -21q-85 0 -142.5 49.5t-66.5 126.5zM186 538h-54l110 137h72l110 -137h-54l-92 99z"/>
<glyph glyph-name="Gbreve" horiz-adv-x="766" unicode="Ğ" d="M699 0h-50l-6 137q-26 -58 -90 -104t-167 -46q-63 0 -122.5 24.5t-107 69.5t-76 116.5t-28.5 157.5q0 114 50 199.5t127 126.5t166 41q112 0 194.5 -58t113.5 -155l-57 -24q-27 83 -93 131t-158 48q-115 0 -197 -82t-82 -227q0 -74 23.5 -134.5t62.5 -98t87 -58t99 -20.5 q66 0 117 23t78.5 59.5t41 74t14.5 74.5h-262v58h322v-333zM396 754q-64 0 -102.5 37t-42.5 89h52q3 -32 27 -55t66 -23q43 0 66 23t26 55h52q-3 -52 -41.5 -89t-102.5 -37z"/>
<glyph glyph-name="gbreve" horiz-adv-x="562" unicode="ğ" d="M278 538q-64 0 -101.5 41.5t-38.5 96.5h47q2 -36 25.5 -62.5t67.5 -26.5t67.5 26.5t25.5 62.5h47q-1 -55 -38.5 -96.5t-101.5 -41.5zM268 77q70 0 113 50.5t43 129.5q0 78 -43 128.5t-113 50.5q-71 0 -115.5 -50.5t-44.5 -128.5q0 -79 44.5 -129.5t115.5 -50.5zM48 -27 l57 14q6 -58 48.5 -97.5t104.5 -39.5q164 0 164 184v88q-18 -41 -59 -69t-102 -28q-93 0 -153 66t-60 166q0 99 59.5 165t153.5 66q116 0 162 -93v82h59v-442q0 -45 -11 -84.5t-35 -75.5t-70 -57t-109 -21q-85 0 -142.5 49.5t-66.5 126.5z"/>
<glyph glyph-name="Gdotaccent" horiz-adv-x="766" unicode="Ġ" d="M699 0h-50l-6 137q-26 -58 -90 -104t-167 -46q-63 0 -122.5 24.5t-107 69.5t-76 116.5t-28.5 157.5q0 114 50 199.5t127 126.5t166 41q112 0 194.5 -58t113.5 -155l-57 -24q-27 83 -93 131t-158 48q-115 0 -197 -82t-82 -227q0 -74 23.5 -134.5t62.5 -98t87 -58t99 -20.5 q66 0 117 23t78.5 59.5t41 74t14.5 74.5h-262v58h322v-333zM349 818q0 20 13.5 33.5t33.5 13.5t33.5 -13.5t13.5 -33.5t-13.5 -33.5t-33.5 -13.5t-33.5 13.5t-13.5 33.5z"/>
<glyph glyph-name="gdotaccent" horiz-adv-x="562" unicode="ġ" d="M268 77q70 0 113 50.5t43 129.5q0 78 -43 128.5t-113 50.5q-71 0 -115.5 -50.5t-44.5 -128.5q0 -79 44.5 -129.5t115.5 -50.5zM48 -27l57 14q6 -58 48.5 -97.5t104.5 -39.5q164 0 164 184v88q-18 -41 -59 -69t-102 -28q-93 0 -153 66t-60 166q0 99 59.5 165t153.5 66 q116 0 162 -93v82h59v-442q0 -45 -11 -84.5t-35 -75.5t-70 -57t-109 -21q-85 0 -142.5 49.5t-66.5 126.5zM231 607q0 19 13.5 33t33.5 14t33.5 -14t13.5 -33t-13.5 -33t-33.5 -14t-33.5 14t-13.5 33z"/>
<glyph glyph-name="Gcommaaccent" horiz-adv-x="766" unicode="Ģ" d="M699 0h-50l-6 137q-26 -58 -90 -104t-167 -46q-63 0 -122.5 24.5t-107 69.5t-76 116.5t-28.5 157.5q0 114 50 199.5t127 126.5t166 41q112 0 194.5 -58t113.5 -155l-57 -24q-27 83 -93 131t-158 48q-115 0 -197 -82t-82 -227q0 -74 23.5 -134.5t62.5 -98t87 -58t99 -20.5 q66 0 117 23t78.5 59.5t41 74t14.5 74.5h-262v58h322v-333zM351 -84q0 18 13.5 30t32.5 12q20 0 35.5 -15t15.5 -44q0 -48 -29 -76.5t-70 -30.5v30q25 2 43 18.5t20 39.5q-6 -6 -19 -6q-18 0 -30 11.5t-12 30.5z"/>
<glyph glyph-name="gcommaaccent" horiz-adv-x="562" unicode="ģ" d="M268 77q70 0 113 50.5t43 129.5q0 78 -43 128.5t-113 50.5q-71 0 -115.5 -50.5t-44.5 -128.5q0 -79 44.5 -129.5t115.5 -50.5zM48 -27l57 14q6 -58 48.5 -97.5t104.5 -39.5q164 0 164 184v88q-18 -41 -59 -69t-102 -28q-93 0 -153 66t-60 166q0 99 59.5 165t153.5 66 q116 0 162 -93v82h59v-442q0 -45 -11 -84.5t-35 -75.5t-70 -57t-109 -21q-85 0 -142.5 49.5t-66.5 126.5zM326 573q0 -18 -13.5 -30t-32.5 -12q-20 0 -35.5 15t-15.5 44q0 48 29 76.5t70 30.5v-30q-25 -2 -43 -18.5t-20 -39.5q6 6 19 6q18 0 30 -11.5t12 -30.5z"/>
<glyph glyph-name="Hcircumflex" horiz-adv-x="736" unicode="Ĥ" d="M635 0h-64v331h-406v-331h-64v709h64v-320h406v320h64v-709zM270 759h-59l115 119h82l116 -119h-59l-98 84z"/>
<glyph glyph-name="hcircumflex" horiz-adv-x="537" unicode="ĥ" d="M140 287v-287h-60v722h60v-320q20 38 60 63t93 25q81 0 125 -50.5t44 -127.5v-312h-60v302q0 60 -32.5 97t-96.5 37q-59 0 -96 -44t-37 -105zM176 763h-59l115 119h82l116 -119h-59l-98 84z"/>
<glyph glyph-name="Hbar" horiz-adv-x="736" unicode="Ħ" d="M165 389h406v134h-406v-134zM31 523v54h70v132h64v-132h406v132h64v-132h70v-54h-70v-523h-64v331h-406v-331h-64v523h-70z"/>
<glyph glyph-name="hbar" horiz-adv-x="537" unicode="ħ" d="M140 287v-287h-60v570h-94v50h94v102h60v-102h132v-50h-132v-168q20 38 60 63t93 25q81 0 125 -50.5t44 -127.5v-312h-60v302q0 60 -32.5 97t-96.5 37q-59 0 -96 -44t-37 -105z"/>
<glyph glyph-name="Itilde" horiz-adv-x="266" unicode="Ĩ" d="M288 871v-11q0 -45 -24 -71t-60 -26q-34 0 -66 23l-21 15q-29 20 -50 20q-39 0 -39 -55h-47v12q0 44 24.5 69.5t61.5 25.5q36 0 72 -27l18 -13q25 -18 45 -18q39 0 39 56h47zM165 0h-64v709h64v-709z"/>
<glyph glyph-name="itilde" horiz-adv-x="220" unicode="ĩ" d="M262 659v-11q0 -45 -24 -71t-59 -26q-33 0 -65 23l-21 15q-29 20 -49 20q-38 0 -38 -55h-47v12q0 44 24 69.5t61 25.5q35 0 71 -27l18 -13q25 -18 44 -18q38 0 38 56h47zM140 0h-60v477h60v-477z"/>
<glyph glyph-name="Imacron" horiz-adv-x="266" unicode="Ī" d="M269 793h-272v52h272v-52zM165 0h-64v709h64v-709z"/>
<glyph glyph-name="imacron" horiz-adv-x="220" unicode="ī" d="M237 583h-254v50h254v-50zM140 0h-60v477h60v-477z"/>
<glyph glyph-name="Ibreve" horiz-adv-x="266" unicode="Ĭ" d="M134 754q-64 0 -102.5 37t-42.5 89h52q3 -32 27 -55t66 -23q43 0 66 23t26 55h52q-3 -52 -41.5 -89t-102.5 -37zM165 0h-64v709h64v-709z"/>
<glyph glyph-name="ibreve" horiz-adv-x="220" unicode="ĭ" d="M110 538q-64 0 -101.5 41.5t-38.5 96.5h47q2 -36 25.5 -62.5t67.5 -26.5t67.5 26.5t25.5 62.5h47q-1 -55 -38.5 -96.5t-101.5 -41.5zM140 0h-60v477h60v-477z"/>
<glyph glyph-name="Iogonek" horiz-adv-x="266" unicode="Į" d="M31 -117q0 70 73 117h-3v709h64v-709q-83 -43 -83 -106q0 -27 18 -42t45 -15q19 0 34 5v-44q-19 -8 -45 -8q-44 0 -73.5 25t-29.5 68z"/>
<glyph glyph-name="iogonek" horiz-adv-x="220" unicode="į" d="M60 675q0 22 14.5 36t35.5 14t35.5 -14t14.5 -36t-14.5 -36t-35.5 -14t-35.5 14t-14.5 36zM6 -117q0 70 74 117v477h60v-477q-83 -43 -83 -106q0 -27 18 -42t45 -15q19 0 34 5v-44q-19 -8 -45 -8q-44 0 -73.5 25t-29.5 68z"/>
<glyph glyph-name="Idotaccent" horiz-adv-x="266" unicode="İ" d="M87 818q0 20 13.5 33.5t33.5 13.5t33.5 -13.5t13.5 -33.5t-13.5 -33.5t-33.5 -13.5t-33.5 13.5t-13.5 33.5zM165 0h-64v709h64v-709z"/>
<glyph glyph-name="dotlessi" horiz-adv-x="220" unicode="ı" d="M140 0h-60v477h60v-477z"/>
<glyph glyph-name="IJ" horiz-adv-x="597" unicode="Ĳ" d="M93 208v17l63 15v-29q0 -79 38 -122.5t106 -43.5q67 0 103.5 43.5t36.5 119.5v501h64v-500q0 -99 -55 -160.5t-149 -61.5q-96 0 -151.5 59.5t-55.5 161.5zM157 300h-64v409h64v-409z"/>
<glyph glyph-name="ij" horiz-adv-x="440" unicode="ĳ" d="M280 675q0 22 14.5 36t35.5 14t35.5 -14t14.5 -36t-14.5 -36t-35.5 -14t-35.5 14t-14.5 36zM300 -63v540h60v-542q0 -65 -34 -101.5t-92 -36.5q-35 0 -53 9v51q17 -6 41 -6q78 0 78 86zM60 675q0 22 14.5 36t35.5 14t35.5 -14t14.5 -36t-14.5 -36t-35.5 -14t-35.5 14 t-14.5 36zM140 0h-60v477h60v-477z"/>
<glyph glyph-name="Jcircumflex" horiz-adv-x="537" unicode="Ĵ" d="M33 208v45l63 15v-57q0 -79 38 -122.5t106 -43.5q67 0 103.5 43.5t36.5 119.5v501h64v-500q0 -99 -55 -160.5t-149 -61.5q-96 0 -151.5 59.5t-55.5 161.5zM315 759h-59l115 119h82l116 -119h-59l-98 84z"/>
<glyph glyph-name="jcircumflex" horiz-adv-x="220" unicode="ĵ" d="M80 -63v540h60v-542q0 -65 -34 -101.5t-92 -36.5q-35 0 -53 9v51q16 -6 41 -6q78 0 78 86zM18 538h-54l110 137h72l110 -137h-54l-92 99z"/>
<glyph glyph-name="Kcommaaccent" horiz-adv-x="638" unicode="Ķ" d="M303 -84q0 18 13.5 30t32.5 12q20 0 35.5 -15t15.5 -44q0 -48 -29 -76.5t-70 -30.5v30q25 2 43 18.5t20 39.5q-6 -6 -19 -6q-18 0 -30 11.5t-12 30.5zM548 0l-261 349l-122 -130v-219h-64v709h64v-406l376 406h83l-295 -315l299 -394h-80z"/>
<glyph glyph-name="kcommaaccent" horiz-adv-x="496" unicode="ķ" d="M226 -84q0 18 13.5 30t32.5 12q20 0 35.5 -15t15.5 -44q0 -48 -29 -76.5t-70 -30.5v30q25 2 43 18.5t20 39.5q-6 -6 -19 -6q-18 0 -30 11.5t-12 30.5zM473 477l-203 -203l207 -274h-75l-174 233l-88 -87v-146h-60v722h60v-497l250 252h83z"/>
<glyph glyph-name="kgreenlandic" horiz-adv-x="495" unicode="ĸ" d="M472 477l-203 -203l207 -274h-75l-174 233l-88 -87v-146h-59v477h59v-252l250 252h83z"/>
<glyph glyph-name="Lacute" horiz-adv-x="544" unicode="Ĺ" d="M523 0h-422v709h64v-651h358v-58zM296 878l-134 -119h-57l107 119h84z"/>
<glyph glyph-name="lacute" horiz-adv-x="220" unicode="ĺ" d="M140 0h-60v722h60v-722zM273 882l-134 -119h-57l107 119h84z"/>
<glyph glyph-name="Lcommaaccent" horiz-adv-x="544" unicode="Ļ" d="M523 0h-422v709h64v-651h358v-58zM270 -84q0 18 13.5 30t32.5 12q20 0 35.5 -15t15.5 -44q0 -48 -29 -76.5t-70 -30.5v30q25 2 43 18.5t20 39.5q-6 -6 -19 -6q-18 0 -30 11.5t-12 30.5z"/>
<glyph glyph-name="lcommaaccent" horiz-adv-x="220" unicode="ļ" d="M140 0h-60v722h60v-722zM62 -84q0 18 13.5 30t32.5 12q20 0 35.5 -15t15.5 -44q0 -48 -29 -76.5t-70 -30.5v30q25 2 43 18.5t20 39.5q-6 -6 -19 -6q-18 0 -30 11.5t-12 30.5z"/>
<glyph glyph-name="Lcaron" horiz-adv-x="544" unicode="Ľ" d="M523 0h-422v709h64v-651h358v-58zM385 759l-62 -186h-47l38 186h71z"/>
<glyph glyph-name="lcaron" horiz-adv-x="220" unicode="ľ" d="M140 0h-60v722h60v-722zM285 722l-58 -176h-46l36 176h68z"/>
<glyph glyph-name="Ldot" horiz-adv-x="544" unicode="Ŀ" d="M299 373q0 22 15 37.5t37 15.5t37.5 -15.5t15.5 -37.5t-15.5 -37t-37.5 -15t-37 15t-15 37zM523 0h-422v709h64v-651h358v-58z"/>
<glyph glyph-name="ldot" horiz-adv-x="277" unicode="ŀ" d="M197 324q0 20 13.5 33.5t33.5 13.5t33.5 -13.5t13.5 -33.5t-13.5 -33.5t-33.5 -13.5t-33.5 13.5t-13.5 33.5zM140 0h-60v722h60v-722z"/>
<glyph glyph-name="Lslash" horiz-adv-x="555" unicode="Ł" d="M534 0h-422v303l-99 -44v56l99 44v350h64v-322l162 72v-56l-162 -72v-273h358v-58z"/>
<glyph glyph-name="lslash" horiz-adv-x="308" unicode="ł" d="M174 0h-60v294l-95 -41v56l95 41v372h60v-345l107 47v-56l-107 -47v-321z"/>
<glyph glyph-name="Nacute" horiz-adv-x="763" unicode="Ń" d="M524 878l-134 -119h-57l107 119h84zM662 0h-68l-429 630v-630h-64v709h88l409 -605v605h64v-709z"/>
<glyph glyph-name="nacute" horiz-adv-x="537" unicode="ń" d="M140 285v-285h-60v477h58v-76q20 40 61 64t94 24q81 0 125 -50.5t44 -127.5v-311h-60v301q0 60 -31.5 97t-97.5 37q-60 0 -96.5 -43.5t-36.5 -106.5zM396 676l-118 -139h-49l89 139h78z"/>
<glyph glyph-name="Ncommaaccent" horiz-adv-x="763" unicode="Ņ" d="M662 0h-68l-429 630v-630h-64v709h88l409 -605v605h64v-709zM346 -84q0 18 13.5 30t32.5 12q20 0 35.5 -15t15.5 -44q0 -48 -29 -76.5t-70 -30.5v30q25 2 43 18.5t20 39.5q-6 -6 -19 -6q-18 0 -30 11.5t-12 30.5z"/>
<glyph glyph-name="ncommaaccent" horiz-adv-x="537" unicode="ņ" d="M140 285v-285h-60v477h58v-76q20 40 61 64t94 24q81 0 125 -50.5t44 -127.5v-311h-60v301q0 60 -31.5 97t-97.5 37q-60 0 -96.5 -43.5t-36.5 -106.5zM230 -84q0 18 13.5 30t32.5 12q20 0 35.5 -15t15.5 -44q0 -48 -29 -76.5t-70 -30.5v30q25 2 43 18.5t20 39.5 q-6 -6 -19 -6q-18 0 -30 11.5t-12 30.5z"/>
<glyph glyph-name="Ncaron" horiz-adv-x="763" unicode="Ň" d="M662 0h-68l-429 630v-630h-64v709h88l409 -605v605h64v-709zM227 878h59l97 -84l98 84h59l-116 -119h-82z"/>
<glyph glyph-name="ncaron" horiz-adv-x="537" unicode="ň" d="M140 285v-285h-60v477h58v-76q20 40 61 64t94 24q81 0 125 -50.5t44 -127.5v-311h-60v301q0 60 -31.5 97t-97.5 37q-60 0 -96.5 -43.5t-36.5 -106.5zM117 675h54l92 -99l92 99h54l-110 -137h-72z"/>
<glyph glyph-name="napostrophe" horiz-adv-x="537" unicode="ŉ" d="M140 285v-285h-60v477h58v-76q20 40 61 64t94 24q81 0 125 -50.5t44 -127.5v-311h-60v301q0 60 -31.5 97t-97.5 37q-60 0 -96.5 -43.5t-36.5 -106.5zM82 649q0 18 13.5 30t32.5 12q20 0 35.5 -15t15.5 -44q0 -48 -29 -76.5t-70 -30.5v30q25 2 43 18.5t20 39.5 q-6 -6 -19 -6q-18 0 -30 11.5t-12 30.5z"/>
<glyph glyph-name="Eng" horiz-adv-x="763" unicode="Ŋ" d="M662 709v-787q0 -56 -30.5 -90.5t-82.5 -34.5q-38 0 -56 8v52q15 -6 40 -6q66 0 66 72v70l-434 637v-630h-64v709h88l409 -605v605h64z"/>
<glyph glyph-name="eng" horiz-adv-x="537" unicode="ŋ" d="M140 286v-286h-60v477h59v-80q19 42 60 67.5t94 25.5q81 0 125 -50.5t44 -127.5v-391q0 -56 -30 -90t-82 -34q-36 0 -56 8v52q16 -6 41 -6q67 0 67 73v378q0 60 -32.5 97t-96.5 37q-59 0 -96 -44t-37 -106z"/>
<glyph glyph-name="Omacron" horiz-adv-x="797" unicode="Ō" d="M534 793h-272v52h272v-52zM52 354q0 114 51 199.5t128.5 127t166.5 41.5t167 -41.5t129 -127t51 -199.5q0 -86 -29.5 -157t-79 -116t-111 -69.5t-127.5 -24.5q-89 0 -166.5 41t-128.5 126.5t-51 199.5zM116 354q0 -144 83 -226.5t199 -82.5t199.5 82.5t83.5 226.5 q0 145 -83.5 227.5t-199.5 82.5t-199 -82.5t-83 -227.5z"/>
<glyph glyph-name="omacron" horiz-adv-x="568" unicode="ō" d="M108 238q0 -90 51 -143.5t125 -53.5t125 53.5t51 143.5t-51 143.5t-125 53.5t-125 -53.5t-51 -143.5zM284 -13q-101 0 -169 70.5t-68 180.5q0 111 67.5 181t169.5 70q101 0 169 -70t68 -181q0 -110 -68 -180.5t-169 -70.5zM408 583h-254v50h254v-50z"/>
<glyph glyph-name="Obreve" horiz-adv-x="797" unicode="Ŏ" d="M52 354q0 114 51 199.5t128.5 127t166.5 41.5t167 -41.5t129 -127t51 -199.5q0 -86 -29.5 -157t-79 -116t-111 -69.5t-127.5 -24.5q-89 0 -166.5 41t-128.5 126.5t-51 199.5zM116 354q0 -144 83 -226.5t199 -82.5t199.5 82.5t83.5 226.5q0 145 -83.5 227.5t-199.5 82.5 t-199 -82.5t-83 -227.5zM399 754q-64 0 -102.5 37t-42.5 89h52q3 -32 27 -55t66 -23q43 0 66 23t26 55h52q-3 -52 -41.5 -89t-102.5 -37z"/>
<glyph glyph-name="obreve" horiz-adv-x="568" unicode="ŏ" d="M280 538q-64 0 -101.5 41.5t-38.5 96.5h47q2 -36 25.5 -62.5t67.5 -26.5t67.5 26.5t25.5 62.5h47q-1 -55 -38.5 -96.5t-101.5 -41.5zM108 238q0 -90 51 -143.5t125 -53.5t125 53.5t51 143.5t-51 143.5t-125 53.5t-125 -53.5t-51 -143.5zM284 -13q-101 0 -169 70.5 t-68 180.5q0 111 67.5 181t169.5 70q101 0 169 -70t68 -181q0 -110 -68 -180.5t-169 -70.5z"/>
<glyph glyph-name="Ohungarumlaut" horiz-adv-x="797" unicode="Ő" d="M52 354q0 114 51 199.5t128.5 127t166.5 41.5t167 -41.5t129 -127t51 -199.5q0 -86 -29.5 -157t-79 -116t-111 -69.5t-127.5 -24.5q-89 0 -166.5 41t-128.5 126.5t-51 199.5zM116 354q0 -144 83 -226.5t199 -82.5t199.5 82.5t83.5 226.5q0 145 -83.5 227.5t-199.5 82.5 t-199 -82.5t-83 -227.5zM456 878l-97 -119h-45l74 119h68zM571 878l-97 -119h-45l74 119h68z"/>
<glyph glyph-name="ohungarumlaut" horiz-adv-x="568" unicode="ő" d="M337 676l-90 -139h-44l67 139h67zM443 676l-90 -139h-44l67 139h67zM108 238q0 -90 51 -143.5t125 -53.5t125 53.5t51 143.5t-51 143.5t-125 53.5t-125 -53.5t-51 -143.5zM284 -13q-101 0 -169 70.5t-68 180.5q0 111 67.5 181t169.5 70q101 0 169 -70t68 -181 q0 -110 -68 -180.5t-169 -70.5z"/>
<glyph glyph-name="OE" horiz-adv-x="1155" unicode="Œ" d="M116 354q0 -144 83 -226.5t199 -82.5t199.5 82.5t83.5 226.5q0 145 -83.5 227.5t-199.5 82.5t-199 -82.5t-83 -227.5zM1099 0h-418v141q-47 -76 -122.5 -115t-160.5 -39q-89 0 -166.5 41t-128.5 126.5t-51 199.5t51 199.5t128.5 127t166.5 41.5q84 0 160 -40t123 -116 v143h418v-58h-354v-267h323v-58h-323v-268h354v-58z"/>
<glyph glyph-name="oe" horiz-adv-x="944" unicode="œ" d="M519 277h318q-2 69 -44 114t-115 45q-66 0 -110 -46t-49 -113zM281 41q73 0 124 53.5t51 143.5q0 91 -50.5 144.5t-124.5 53.5q-73 0 -123.5 -54t-50.5 -144t50.5 -143.5t123.5 -53.5zM844 154l53 -19q-22 -65 -76 -106.5t-133 -41.5q-66 0 -120 32.5t-83 92.5 q-30 -59 -84 -92t-120 -33q-99 0 -166.5 70.5t-67.5 180.5q0 111 66.5 181.5t167.5 70.5q66 0 120 -33.5t84 -93.5q28 60 79.5 93.5t112.5 33.5q104 0 163 -66.5t60 -174.5q0 -14 -1 -22h-382v-4q1 -81 50 -131.5t121 -50.5q61 0 100.5 31t55.5 82z"/>
<glyph glyph-name="Racute" horiz-adv-x="613" unicode="Ŕ" d="M165 364h173q71 0 114 39.5t43 103.5q0 65 -43 105t-114 40h-173v-288zM484 0l-171 307h-148v-307h-64v709h247q94 0 152.5 -57.5t58.5 -144.5q0 -78 -48 -132t-129 -64l176 -311h-74zM447 878l-134 -119h-57l107 119h84z"/>
<glyph glyph-name="racute" horiz-adv-x="337" unicode="ŕ" d="M323 478v-63q-18 5 -42 5q-63 0 -102 -41t-39 -120v-259h-60v477h59v-89q42 95 147 95q24 0 37 -5zM317 676l-118 -139h-49l89 139h78z"/>
<glyph glyph-name="Rcommaaccent" horiz-adv-x="613" unicode="Ŗ" d="M284 -84q0 18 13.5 30t32.5 12q20 0 35.5 -15t15.5 -44q0 -48 -29 -76.5t-70 -30.5v30q25 2 43 18.5t20 39.5q-6 -6 -19 -6q-18 0 -30 11.5t-12 30.5zM165 364h173q71 0 114 39.5t43 103.5q0 65 -43 105t-114 40h-173v-288zM484 0l-171 307h-148v-307h-64v709h247 q94 0 152.5 -57.5t58.5 -144.5q0 -78 -48 -132t-129 -64l176 -311h-74z"/>
<glyph glyph-name="rcommaaccent" horiz-adv-x="337" unicode="ŗ" d="M62 -84q0 18 13.5 30t32.5 12q20 0 35.5 -15t15.5 -44q0 -48 -29 -76.5t-70 -30.5v30q25 2 43 18.5t20 39.5q-6 -6 -19 -6q-18 0 -30 11.5t-12 30.5zM323 478v-63q-18 5 -42 5q-63 0 -102 -41t-39 -120v-259h-60v477h59v-89q42 95 147 95q24 0 37 -5z"/>
<glyph glyph-name="Rcaron" horiz-adv-x="613" unicode="Ř" d="M165 364h173q71 0 114 39.5t43 103.5q0 65 -43 105t-114 40h-173v-288zM484 0l-171 307h-148v-307h-64v709h247q94 0 152.5 -57.5t58.5 -144.5q0 -78 -48 -132t-129 -64l176 -311h-74zM145 878h59l97 -84l98 84h59l-116 -119h-82z"/>
<glyph glyph-name="rcaron" horiz-adv-x="337" unicode="ř" d="M323 478v-63q-18 5 -42 5q-63 0 -102 -41t-39 -120v-259h-60v477h59v-89q42 95 147 95q24 0 37 -5zM52 675h54l92 -99l92 99h54l-110 -137h-72z"/>
<glyph glyph-name="Sacute" horiz-adv-x="582" unicode="Ś" d="M523 548l-56 -20q-12 60 -55.5 99t-117.5 39q-66 0 -114 -39.5t-48 -100.5q0 -48 29 -80t83 -45l108 -25q84 -20 131 -68.5t47 -121.5q0 -84 -65 -141.5t-170 -57.5q-111 0 -177.5 61.5t-76.5 149.5l59 19q7 -73 59 -123t136 -50q80 0 126 38.5t46 98.5q0 49 -33 84 t-94 49l-107 25q-75 17 -119.5 63.5t-44.5 119.5q0 82 67 141t156 59q101 0 157.5 -49t73.5 -125zM449 878l-134 -119h-57l107 119h84z"/>
<glyph glyph-name="sacute" horiz-adv-x="439" unicode="ś" d="M40 125l55 19q7 -46 41 -75.5t90 -29.5q45 0 75.5 24t30.5 61q0 61 -81 80l-77 18q-55 12 -86 44.5t-31 82.5q0 58 47.5 99t113.5 41q76 0 117.5 -36t53.5 -87l-53 -20q-8 39 -36.5 65t-81.5 26q-42 0 -72 -23.5t-30 -60.5q0 -59 75 -76l76 -17q124 -28 124 -132 q0 -57 -45 -99t-121 -42q-81 0 -129 42t-56 96zM355 676l-118 -139h-49l89 139h78z"/>
<glyph glyph-name="Scircumflex" horiz-adv-x="582" unicode="Ŝ" d="M523 548l-56 -20q-12 60 -55.5 99t-117.5 39q-66 0 -114 -39.5t-48 -100.5q0 -48 29 -80t83 -45l108 -25q84 -20 131 -68.5t47 -121.5q0 -84 -65 -141.5t-170 -57.5q-111 0 -177.5 61.5t-76.5 149.5l59 19q7 -73 59 -123t136 -50q80 0 126 38.5t46 98.5q0 49 -33 84 t-94 49l-107 25q-75 17 -119.5 63.5t-44.5 119.5q0 82 67 141t156 59q101 0 157.5 -49t73.5 -125zM208 759h-59l115 119h82l116 -119h-59l-98 84z"/>
<glyph glyph-name="scircumflex" horiz-adv-x="439" unicode="ŝ" d="M40 125l55 19q7 -46 41 -75.5t90 -29.5q45 0 75.5 24t30.5 61q0 61 -81 80l-77 18q-55 12 -86 44.5t-31 82.5q0 58 47.5 99t113.5 41q76 0 117.5 -36t53.5 -87l-53 -20q-8 39 -36.5 65t-81.5 26q-42 0 -72 -23.5t-30 -60.5q0 -59 75 -76l76 -17q124 -28 124 -132 q0 -57 -45 -99t-121 -42q-81 0 -129 42t-56 96zM136 538h-54l110 137h72l110 -137h-54l-92 99z"/>
<glyph glyph-name="Scedilla" horiz-adv-x="582" unicode="Ş" d="M272 -95l-24 29l34 53q-105 4 -168.5 65t-72.5 146l59 19q7 -73 59 -123t136 -50q80 0 126 38.5t46 98.5q0 49 -33 84t-94 49l-107 25q-75 17 -119.5 63.5t-44.5 119.5q0 82 67 141t156 59q101 0 157.5 -49t73.5 -125l-56 -20q-12 60 -55.5 99t-117.5 39 q-66 0 -114 -39.5t-48 -100.5q0 -48 29 -80t83 -45l108 -25q84 -20 131 -68.5t47 -121.5q0 -76 -54.5 -131.5t-144.5 -65.5l-30 -45q11 4 24 4q40 0 64 -21t24 -55q0 -36 -28.5 -59t-79.5 -23q-70 0 -108 47l27 32q32 -39 80 -39q62 0 62 42q0 41 -57 41q-21 0 -37 -8z"/>
<glyph glyph-name="scedilla" horiz-adv-x="439" unicode="ş" d="M193 -95l-24 29l35 54q-72 6 -114.5 46.5t-49.5 90.5l55 19q7 -46 41 -75.5t90 -29.5q45 0 75.5 24t30.5 61q0 61 -81 80l-77 18q-55 12 -86 44.5t-31 82.5q0 58 47.5 99t113.5 41q76 0 117.5 -36t53.5 -87l-53 -20q-8 39 -36.5 65t-81.5 26q-42 0 -72 -23.5t-30 -60.5 q0 -59 75 -76l76 -17q124 -28 124 -132q0 -51 -37.5 -91t-101.5 -48l-30 -45q11 4 24 4q40 0 64 -21t24 -55q0 -36 -28.5 -59t-79.5 -23q-70 0 -108 47l27 32q33 -39 80 -39q62 0 62 42q0 41 -57 41q-21 0 -37 -8z"/>
<glyph glyph-name="Scaron" horiz-adv-x="582" unicode="Š" d="M523 548l-56 -20q-12 60 -55.5 99t-117.5 39q-66 0 -114 -39.5t-48 -100.5q0 -48 29 -80t83 -45l108 -25q84 -20 131 -68.5t47 -121.5q0 -84 -65 -141.5t-170 -57.5q-111 0 -177.5 61.5t-76.5 149.5l59 19q7 -73 59 -123t136 -50q80 0 126 38.5t46 98.5q0 49 -33 84 t-94 49l-107 25q-75 17 -119.5 63.5t-44.5 119.5q0 82 67 141t156 59q101 0 157.5 -49t73.5 -125zM140 878h59l97 -84l98 84h59l-116 -119h-82z"/>
<glyph glyph-name="scaron" horiz-adv-x="439" unicode="š" d="M40 125l55 19q7 -46 41 -75.5t90 -29.5q45 0 75.5 24t30.5 61q0 61 -81 80l-77 18q-55 12 -86 44.5t-31 82.5q0 58 47.5 99t113.5 41q76 0 117.5 -36t53.5 -87l-53 -20q-8 39 -36.5 65t-81.5 26q-42 0 -72 -23.5t-30 -60.5q0 -59 75 -76l76 -17q124 -28 124 -132 q0 -57 -45 -99t-121 -42q-81 0 -129 42t-56 96zM76 675h54l92 -99l92 99h54l-110 -137h-72z"/>
<glyph glyph-name="Tcommaaccent" horiz-adv-x="603" unicode="Ţ" d="M584 651h-251v-651h-7l-37 -56q11 4 24 4q40 0 64 -21t24 -55q0 -36 -28.5 -59t-79.5 -23q-70 0 -108 47l27 32q33 -39 80 -39q62 0 62 42q0 41 -57 41q-21 0 -37 -8l-24 29l43 66h-10v651h-250v58h565v-58z"/>
<glyph glyph-name="tcommaaccent" horiz-adv-x="328" unicode="ţ" d="M177 628v-151h124v-54h-124v-288q0 -86 81 -86q25 0 43 8v-53q-18 -9 -59 -9q-59 0 -92 35t-33 99v294h-101v54h36q35 0 51 16.5t16 53.5v81h58zM170 -84q0 18 13.5 30t32.5 12q20 0 35.5 -15t15.5 -44q0 -48 -29 -76.5t-70 -30.5v30q25 2 43 18.5t20 39.5q-6 -6 -19 -6 q-18 0 -30 11.5t-12 30.5z"/>
<glyph glyph-name="Tcaron" horiz-adv-x="603" unicode="Ť" d="M584 651h-251v-651h-64v651h-250v58h565v-58zM144 878h59l97 -84l98 84h59l-116 -119h-82z"/>
<glyph glyph-name="tcaron" horiz-adv-x="328" unicode="ť" d="M177 628v-151h124v-54h-124v-288q0 -86 81 -86q25 0 43 8v-53q-18 -9 -59 -9q-59 0 -92 35t-33 99v294h-101v54h36q35 0 51 16.5t16 53.5v81h58zM322 722l-58 -176h-46l36 176h68z"/>
<glyph glyph-name="Tbar" horiz-adv-x="613" unicode="Ŧ" d="M589 651h-251v-279h125v-54h-125v-318h-64v318h-125v54h125v279h-250v58h565v-58z"/>
<glyph glyph-name="tbar" horiz-adv-x="340" unicode="ŧ" d="M186 628v-151h124v-54h-124v-145h124v-50h-124v-93q0 -86 81 -86q25 0 43 8v-53q-18 -9 -59 -9q-59 0 -92 35t-33 99v99h-101v50h101v145h-101v54h36q35 0 51 16.5t16 53.5v81h58z"/>
<glyph glyph-name="Utilde" horiz-adv-x="672" unicode="Ũ" d="M336 -13q-111 0 -177 65t-66 184v473h64v-470q0 -94 46 -144t133 -50t133 50t46 144v470h64v-473q0 -119 -66 -184t-177 -65zM492 871v-11q0 -45 -24 -71t-60 -26q-34 0 -66 23l-21 15q-29 20 -50 20q-39 0 -39 -55h-47v12q0 44 24.5 69.5t61.5 25.5q36 0 72 -27l18 -13 q25 -18 45 -18q39 0 39 56h47z"/>
<glyph glyph-name="utilde" horiz-adv-x="539" unicode="ũ" d="M418 659v-11q0 -45 -24 -71t-59 -26q-33 0 -65 23l-21 15q-29 20 -49 20q-38 0 -38 -55h-47v12q0 44 24 69.5t61 25.5q35 0 71 -27l18 -13q25 -18 44 -18q38 0 38 56h47zM402 74q-18 -37 -57.5 -62t-92.5 -25q-86 0 -132 54.5t-46 135.5v300h60v-290q0 -63 31.5 -104.5 t97.5 -41.5q62 0 98.5 41.5t36.5 103.5v291h60v-386q0 -49 6 -91h-57q-5 25 -5 67v7z"/>
<glyph glyph-name="Umacron" horiz-adv-x="672" unicode="Ū" d="M473 793h-272v52h272v-52zM336 -13q-111 0 -177 65t-66 184v473h64v-470q0 -94 46 -144t133 -50t133 50t46 144v470h64v-473q0 -119 -66 -184t-177 -65z"/>
<glyph glyph-name="umacron" horiz-adv-x="539" unicode="ū" d="M402 74q-18 -37 -57.5 -62t-92.5 -25q-86 0 -132 54.5t-46 135.5v300h60v-290q0 -63 31.5 -104.5t97.5 -41.5q62 0 98.5 41.5t36.5 103.5v291h60v-386q0 -49 6 -91h-57q-5 25 -5 67v7zM393 583h-254v50h254v-50z"/>
<glyph glyph-name="Ubreve" horiz-adv-x="672" unicode="Ŭ" d="M336 -13q-111 0 -177 65t-66 184v473h64v-470q0 -94 46 -144t133 -50t133 50t46 144v470h64v-473q0 -119 -66 -184t-177 -65zM338 754q-64 0 -102.5 37t-42.5 89h52q3 -32 27 -55t66 -23q43 0 66 23t26 55h52q-3 -52 -41.5 -89t-102.5 -37z"/>
<glyph glyph-name="ubreve" horiz-adv-x="539" unicode="ŭ" d="M264 538q-64 0 -101.5 41.5t-38.5 96.5h47q2 -36 25.5 -62.5t67.5 -26.5t67.5 26.5t25.5 62.5h47q-1 -55 -38.5 -96.5t-101.5 -41.5zM402 74q-18 -37 -57.5 -62t-92.5 -25q-86 0 -132 54.5t-46 135.5v300h60v-290q0 -63 31.5 -104.5t97.5 -41.5q62 0 98.5 41.5 t36.5 103.5v291h60v-386q0 -49 6 -91h-57q-5 25 -5 67v7z"/>
<glyph glyph-name="Uring" horiz-adv-x="672" unicode="Ů" d="M337 745q-42 0 -71.5 29t-29.5 71q0 43 30 72.5t71 29.5t71 -29.5t30 -72.5q0 -42 -29.5 -71t-71.5 -29zM337 788q24 0 40 16.5t16 40.5q0 25 -16 42t-40 17t-40 -17t-16 -42q0 -24 16 -40.5t40 -16.5zM336 -13q-111 0 -177 65t-66 184v473h64v-470q0 -94 46 -144 t133 -50t133 50t46 144v470h64v-473q0 -119 -66 -184t-177 -65z"/>
<glyph glyph-name="uring" horiz-adv-x="539" unicode="ů" d="M402 74q-18 -37 -57.5 -62t-92.5 -25q-86 0 -132 54.5t-46 135.5v300h60v-290q0 -63 31.5 -104.5t97.5 -41.5q62 0 98.5 41.5t36.5 103.5v291h60v-386q0 -49 6 -91h-57q-5 25 -5 67v7zM324 635q0 26 -17.5 44.5t-43.5 18.5t-43.5 -18.5t-17.5 -44.5t17.5 -44.5 t43.5 -18.5t43.5 18.5t17.5 44.5zM368 635q0 -43 -31 -74t-74 -31t-74 31t-31 74t31 74t74 31t74 -31t31 -74z"/>
<glyph glyph-name="Uhungarumlaut" horiz-adv-x="672" unicode="Ű" d="M336 -13q-111 0 -177 65t-66 184v473h64v-470q0 -94 46 -144t133 -50t133 50t46 144v470h64v-473q0 -119 -66 -184t-177 -65zM382 878l-97 -119h-45l74 119h68zM497 878l-97 -119h-45l74 119h68z"/>
<glyph glyph-name="uhungarumlaut" horiz-adv-x="539" unicode="ű" d="M308 676l-90 -139h-44l67 139h67zM414 676l-90 -139h-44l67 139h67zM402 74q-18 -37 -57.5 -62t-92.5 -25q-86 0 -132 54.5t-46 135.5v300h60v-290q0 -63 31.5 -104.5t97.5 -41.5q62 0 98.5 41.5t36.5 103.5v291h60v-386q0 -49 6 -91h-57q-5 25 -5 67v7z"/>
<glyph glyph-name="Uogonek" horiz-adv-x="672" unicode="Ų" d="M279 -117q0 60 55 104q-110 1 -175.5 66t-65.5 183v473h64v-470q0 -94 46 -144t133 -50t133 50t46 144v470h64v-473q0 -98 -45.5 -160t-125.5 -80q-7 -1 -16 -8q-62 -45 -62 -94q0 -27 18 -42t45 -15q19 0 34 5v-44q-19 -8 -45 -8q-44 0 -73.5 25t-29.5 68z"/>
<glyph glyph-name="uogonek" horiz-adv-x="539" unicode="ų" d="M330 -117q0 71 76 119q-4 22 -4 65v7q-18 -37 -57.5 -62t-92.5 -25q-86 0 -132 54.5t-46 135.5v300h60v-290q0 -63 31.5 -104.5t97.5 -41.5q62 0 98.5 41.5t36.5 103.5v291h60v-386q0 -49 6 -91q-83 -43 -83 -106q0 -27 18 -42t45 -15q19 0 34 5v-44q-19 -8 -45 -8 q-44 0 -73.5 25t-29.5 68z"/>
<glyph glyph-name="Wcircumflex" horiz-adv-x="990" unicode="Ŵ" d="M726 89l174 620h65l-204 -709h-69l-198 626l-198 -626h-66l-207 709h66l175 -620l196 620h69zM397 759h-59l115 119h82l116 -119h-59l-98 84z"/>
<glyph glyph-name="wcircumflex" horiz-adv-x="795" unicode="ŵ" d="M366 477h65l142 -403l125 403h65l-156 -477h-67l-142 404l-142 -404h-67l-158 477h66l127 -403zM306 538h-54l110 137h72l110 -137h-54l-92 99z"/>
<glyph glyph-name="Ycircumflex" horiz-adv-x="616" unicode="Ŷ" d="M211 759h-59l115 119h82l116 -119h-59l-98 84zM277 303l-248 406h75l204 -347l205 347h74l-248 -406v-303h-62v303z"/>
<glyph glyph-name="ycircumflex" horiz-adv-x="501" unicode="ŷ" d="M174 -190h-65l119 252l-203 415h67l167 -352l158 352h66zM160 538h-54l110 137h72l110 -137h-54l-92 99z"/>
<glyph glyph-name="Ydieresis" horiz-adv-x="616" unicode="Ÿ" d="M367 819q0 18 12.5 30.5t30.5 12.5t30.5 -12.5t12.5 -30.5t-12.5 -30.5t-30.5 -12.5t-30.5 12.5t-12.5 30.5zM163 819q0 18 12.5 30.5t30.5 12.5t30.5 -12.5t12.5 -30.5t-12.5 -30.5t-30.5 -12.5t-30.5 12.5t-12.5 30.5zM277 303l-248 406h75l204 -347l205 347h74 l-248 -406v-303h-62v303z"/>
<glyph glyph-name="Zacute" horiz-adv-x="624" unicode="Ź" d="M583 0h-543v65l466 586h-460v58h534v-63l-467 -588h470v-58zM450 878l-134 -119h-57l107 119h84z"/>
<glyph glyph-name="zacute" horiz-adv-x="464" unicode="ź" d="M422 0h-379v53l302 370h-299v54h371v-53l-300 -370h305v-54zM352 676l-118 -139h-49l89 139h78z"/>
<glyph glyph-name="Zdotaccent" horiz-adv-x="624" unicode="Ż" d="M268 818q0 20 14 33.5t33 13.5t33 -13.5t14 -33.5t-14 -33.5t-33 -13.5t-33 13.5t-14 33.5zM583 0h-543v65l466 586h-460v58h534v-63l-467 -588h470v-58z"/>
<glyph glyph-name="zdotaccent" horiz-adv-x="464" unicode="ż" d="M181 607q0 19 13.5 33t33.5 14t33.5 -14t13.5 -33t-13.5 -33t-33.5 -14t-33.5 14t-13.5 33zM422 0h-379v53l302 370h-299v54h371v-53l-300 -370h305v-54z"/>
<glyph glyph-name="Zcaron" horiz-adv-x="624" unicode="Ž" d="M583 0h-543v65l466 586h-460v58h534v-63l-467 -588h470v-58zM161 878h59l97 -84l98 84h59l-116 -119h-82z"/>
<glyph glyph-name="zcaron" horiz-adv-x="464" unicode="ž" d="M422 0h-379v53l302 370h-299v54h371v-53l-300 -370h305v-54zM83 675h54l92 -99l92 99h54l-110 -137h-72z"/>
<glyph glyph-name="uni018F" horiz-adv-x="784" unicode="Ə" d="M385 45q105 0 184.5 68.5t94.5 189.5h-556q14 -122 93 -190t184 -68zM384 664q-94 0 -169 -53t-101 -138l-57 20q32 101 123 165t204 64q89 0 167 -41.5t129.5 -127t51.5 -199.5q0 -86 -29.5 -157t-79 -116t-111 -69.5t-127.5 -24.5q-139 0 -241.5 99t-102.5 268v7h627 q-2 141 -85.5 222t-198.5 81z"/>
<glyph glyph-name="florin" horiz-adv-x="5120" unicode="ƒ" d="M210 327q0 144 56 274.5t150.5 225t225.5 150.5t274 56q191 0 353.5 -94.5t257 -257t94.5 -354.5q0 -144 -56 -274.5t-150.5 -225t-225 -150t-273.5 -55.5t-274 56t-225.5 150t-150.5 224.5t-56 274.5zM1332 408q15 -9 33 -9q28 0 47.5 19t19.5 47q0 37 -33 56 q-239 139 -593 139q-185 0 -331 -44q-21 -7 -34 -24.5t-13 -38.5q0 -26 18.5 -46.5t46.5 -20.5q10 0 19 3q129 39 300 39q144 0 281.5 -30t238.5 -90zM1277 181q22 0 38.5 16.5t16.5 39.5q0 32 -26 47q-105 64 -238.5 98.5t-271.5 34.5q-150 0 -282 -40q-18 -5 -28.5 -20 t-10.5 -33q0 -23 14.5 -38.5t37.5 -15.5q10 0 16 1t18 5t26 7q97 24 207 24q124 0 243 -30.5t211 -87.5q14 -8 29 -8zM1200 -6q18 0 31 13t13 32q0 24 -21 37q-179 111 -421 111q-123 0 -263 -32q-34 -9 -34 -42q0 -18 12 -31t31 -13q1 0 41 8q111 23 215 23q210 0 373 -99 q12 -7 23 -7zM4838 444h-20v-26h20q16 0 16 12q0 14 -16 14zM4851 407l22 -30h-19l-20 27h-16v-27h-15v81h35q32 0 32 -27q0 -16 -19 -24zM4833 484q-29 0 -48.5 -20t-19.5 -49t19.5 -49.5t48.5 -20.5q30 0 50 20.5t20 50.5q0 28 -20 48t-50 20zM4833 338q-32 0 -54 22.5 t-22 54.5t22 54.5t54 22.5t54.5 -22t22.5 -54t-22.5 -55t-54.5 -23zM3878 708q32 0 55.5 -22.5t23.5 -54.5q0 -33 -23.5 -56t-55.5 -23t-54.5 23t-22.5 56q0 32 22.5 54.5t54.5 22.5zM3823 492h110q7 0 7 -8v-475q0 -9 -7 -9h-110q-7 0 -7 9v475q0 8 7 8zM4294 559 q-1 0 -3.5 1t-7.5 2.5t-10 2.5q-25 6 -43 6q-55 0 -55 -65v-14h186q6 0 8 -4l127 -334l116 333q2 5 7 5h114q8 0 8 -8q0 -3 -2 -7l-188 -485q-29 -76 -66 -107.5t-98 -31.5q-58 0 -116 29q-4 2 -4 6q0 3 1 5l36 82q2 5 7 5q1 0 2 -0.5t2 -0.5q36 -18 60 -18q20 0 33 10 t26 38l-155 373h-102v-373q0 -9 -9 -9h-108q-9 0 -9 9v373h-52q-7 0 -7 8v95q0 7 7 7h52v24q0 80 39.5 121.5t115.5 41.5q52 0 90 -12q6 -2 6 -8v-92q0 -8 -8 -8zM3637 492h120q8 0 8 -8v-94q0 -8 -8 -8h-120v-225q0 -52 51 -52q30 0 54 12q12 5 13 5q8 0 8 -9v-87 q0 -6 -6 -9q-43 -25 -100 -25q-145 0 -145 148v242h-53q-7 0 -7 8v94q0 8 7 8h53v123q0 7 8 7h109q8 0 8 -7v-123zM3183 100q58 0 96.5 41t38.5 103q0 63 -39 104.5t-98 41.5t-97.5 -40.5t-38.5 -103.5q0 -62 39.5 -104t98.5 -42zM3183 502q109 0 185 -74.5t76 -181.5 q0 -108 -76.5 -182t-186.5 -74t-185 73.5t-75 180.5q0 108 76 183t186 75zM2760 246q0 63 -36 104t-92 41t-93.5 -41.5t-37.5 -103.5t37.5 -103.5t93.5 -41.5t92 40.5t36 104.5zM2657 502q92 0 160.5 -68.5t68.5 -187.5t-68.5 -187t-160.5 -68q-93 0 -153 69v-195 q0 -9 -9 -9h-108q-9 0 -9 9v619q0 8 9 8h108q9 0 9 -8v-56q62 74 153 74zM2128 382q111 -27 159.5 -72.5t48.5 -121.5q0 -89 -63.5 -143t-169.5 -54q-153 0 -268 103q-3 3 -3 5q0 4 2 6l67 80q3 3 5 3q4 0 6 -2q92 -81 194 -81q48 0 76 19.5t28 53.5q0 32 -26.5 51 t-110.5 39q-111 26 -163.5 68.5t-52.5 127.5t62.5 138.5t161.5 53.5q135 0 234 -81q3 -3 3 -6q0 -1 -2 -5l-59 -84q-2 -4 -7 -4q-3 0 -5 2q-85 64 -166 64q-43 0 -69 -18.5t-26 -49.5q0 -33 27.5 -51.5t116.5 -40.5z"/>
<glyph glyph-name="uni01B5" horiz-adv-x="632" unicode="Ƶ" d="M587 0h-543v65l218 274h-164v54h207l205 258h-460v58h534v-63l-201 -253h155v-54h-198l-223 -281h470v-58z"/>
<glyph glyph-name="uni01B6" horiz-adv-x="475" unicode="ƶ" d="M429 0h-379v53l140 172h-133v50h174l121 148h-299v54h371v-53l-121 -149h106v-50h-147l-138 -171h305v-54z"/>
<glyph glyph-name="Aringacute" horiz-adv-x="694" unicode="Ǻ" d="M511 1021l-134 -119h-57l107 119h84zM447 767q0 -59 -51 -86l276 -681h-68l-88 219h-339l-87 -219h-68l276 680q-52 29 -52 87q0 43 29 72t71 29t71.5 -29.5t29.5 -71.5zM402 767q0 25 -16 41.5t-41 16.5q-23 0 -39 -16.5t-16 -41.5t16 -41t39 -16q25 0 41 16t16 41z M346 646l-146 -369h293z"/>
<glyph glyph-name="aringacute" horiz-adv-x="500" unicode="ǻ" d="M306 633q0 26 -17.5 44.5t-43.5 18.5t-43.5 -18.5t-17.5 -44.5t17.5 -44.5t43.5 -18.5t43.5 18.5t17.5 44.5zM350 633q0 -43 -31 -74t-74 -31t-74 31t-31 74t31 74t74 31t74 -31t31 -74zM388 918l-118 -139h-49l89 139h78zM208 39q69 0 113 42.5t44 113.5v54 q-8 -8 -35 -12l-133 -20q-43 -6 -67 -29.5t-24 -61.5q0 -35 27.5 -61t74.5 -26zM201 -12q-72 0 -114 40t-42 95q0 59 38 95t105 46l127 19q50 7 50 46q0 49 -31.5 78.5t-88.5 29.5t-92.5 -29.5t-41.5 -81.5l-56 12q8 68 60 109.5t129 41.5q89 0 135 -46.5t46 -119.5v-241 q0 -47 7 -82h-59q-6 33 -6 82q-19 -38 -62.5 -66t-103.5 -28z"/>
<glyph glyph-name="AEacute" horiz-adv-x="979" unicode="Ǽ" d="M505 652l-245 -375h245v375zM923 0h-418v219h-283l-143 -219h-79l472 709h451v-58h-354v-267h323v-58h-323v-268h354v-58zM695 878l-134 -119h-57l107 119h84z"/>
<glyph glyph-name="aeacute" horiz-adv-x="853" unicode="ǽ" d="M202 -13q-72 0 -114.5 40.5t-42.5 95.5q0 59 38 94.5t106 46.5l127 19q50 8 50 47q0 48 -31.5 78t-88.5 30t-92.5 -30t-40.5 -82l-58 13q8 69 60.5 110t129.5 41q126 0 167 -93q30 44 75.5 68.5t98.5 24.5q104 0 163 -66.5t60 -174.5q0 -14 -1 -22h-382v-12 q3 -78 52 -126t119 -48q61 0 100.5 31t55.5 82l53 -19q-22 -65 -76 -106.5t-133 -41.5q-65 0 -118.5 32t-83.5 91q-22 -54 -70.5 -88.5t-122.5 -34.5zM428 277h318q-2 69 -44 114t-115 45q-66 0 -110 -46t-49 -113zM209 38q69 0 113 42.5t44 114.5v58q-11 -13 -63 -20 l-107 -16q-89 -13 -89 -91q0 -36 27.5 -62t74.5 -26zM558 676l-118 -139h-49l89 139h78z"/>
<glyph glyph-name="Oslashacute" horiz-adv-x="798" unicode="Ǿ" d="M553 878l-134 -119h-57l107 119h84zM681 354q0 130 -74 216l-369 -476q70 -49 160 -49q116 0 199.5 82.5t83.5 226.5zM116 354q0 -139 81 -225l372 478q-74 57 -171 57q-116 0 -199 -82.5t-83 -227.5zM52 354q0 114 51 199.5t128.5 127t166.5 41.5q115 0 207 -69l74 96 l43 -32l-77 -99q100 -103 100 -264q0 -86 -29.5 -157t-79 -116t-111 -69.5t-127.5 -24.5q-107 0 -196 60l-70 -90l-43 32l71 92q-108 103 -108 273z"/>
<glyph glyph-name="oslashacute" d="M416 676l-118 -139h-49l89 139h78zM282 41q73 0 124 53.5t51 143.5q0 76 -39 130l-232 -298q43 -29 96 -29zM108 238q0 -81 42 -134l233 299q-43 33 -101 33q-73 0 -123.5 -54t-50.5 -144zM282 490q77 0 135 -43l55 71l39 -31l-57 -73q63 -71 63 -176 q0 -110 -67.5 -180.5t-167.5 -70.5q-73 0 -131 39l-52 -67l-38 31l53 68q-66 71 -66 180q0 111 66.5 181.5t167.5 70.5z" unicode="ǿ"/>
<glyph glyph-name="Scommaaccent" horiz-adv-x="582" unicode="Ș" d="M253 -84q0 18 13.5 30t32.5 12q20 0 35.5 -15t15.5 -44q0 -48 -29 -76.5t-70 -30.5v30q25 2 43 18.5t20 39.5q-6 -6 -19 -6q-18 0 -30 11.5t-12 30.5zM523 548l-56 -20q-12 60 -55.5 99t-117.5 39q-66 0 -114 -39.5t-48 -100.5q0 -48 29 -80t83 -45l108 -25 q84 -20 131 -68.5t47 -121.5q0 -84 -65 -141.5t-170 -57.5q-111 0 -177.5 61.5t-76.5 149.5l59 19q7 -73 59 -123t136 -50q80 0 126 38.5t46 98.5q0 49 -33 84t-94 49l-107 25q-75 17 -119.5 63.5t-44.5 119.5q0 82 67 141t156 59q101 0 157.5 -49t73.5 -125z"/>
<glyph glyph-name="scommaaccent" horiz-adv-x="439" unicode="ș" d="M177 -84q0 18 13.5 30t32.5 12q20 0 35.5 -15t15.5 -44q0 -48 -29 -76.5t-70 -30.5v30q25 2 43 18.5t20 39.5q-6 -6 -19 -6q-18 0 -30 11.5t-12 30.5zM40 125l55 19q7 -46 41 -75.5t90 -29.5q45 0 75.5 24t30.5 61q0 61 -81 80l-77 18q-55 12 -86 44.5t-31 82.5 q0 58 47.5 99t113.5 41q76 0 117.5 -36t53.5 -87l-53 -20q-8 39 -36.5 65t-81.5 26q-42 0 -72 -23.5t-30 -60.5q0 -59 75 -76l76 -17q124 -28 124 -132q0 -57 -45 -99t-121 -42q-81 0 -129 42t-56 96z"/>
<glyph glyph-name="uni021A" horiz-adv-x="603" unicode="Ț" d="M584 651h-251v-651h-64v651h-250v58h565v-58zM254 -84q0 18 13.5 30t32.5 12q20 0 35.5 -15t15.5 -44q0 -48 -29 -76.5t-70 -30.5v30q25 2 43 18.5t20 39.5q-6 -6 -19 -6q-18 0 -30 11.5t-12 30.5z"/>
<glyph glyph-name="uni021B" horiz-adv-x="328" unicode="ț" d="M177 628v-151h124v-54h-124v-288q0 -86 81 -86q25 0 43 8v-53q-15 -8 -53 -9l-34 -51q11 4 24 4q40 0 64 -21t24 -55q0 -36 -28.5 -59t-79.5 -23q-70 0 -108 47l27 32q33 -39 80 -39q62 0 62 42q0 41 -57 41q-21 0 -37 -8l-24 29l42 66q-86 21 -86 129v294h-101v54h36 q35 0 51 16.5t16 53.5v81h58z"/>
<glyph glyph-name="dotlessj" horiz-adv-x="220" unicode="ȷ" d="M80 -63v540h60v-542q0 -65 -34 -101.5t-92 -36.5q-35 0 -53 9v51q16 -6 41 -6q78 0 78 86z"/>
<glyph glyph-name="uni0259" horiz-adv-x="535" unicode="ə" d="M100 323l-53 19q22 65 76 106.5t133 41.5q98 0 165 -68.5t67 -184.5q0 -110 -64.5 -180t-156.5 -70q-104 0 -163 66.5t-60 174.5q0 14 1 22h382v4q-1 81 -50 131.5t-121 50.5q-61 0 -100.5 -31t-55.5 -82zM425 200h-318q2 -69 44 -114t115 -45q66 0 110 46t49 113z"/>
<glyph glyph-name="circumflex" horiz-adv-x="382" unicode="ˆ" d="M99 538h-54l110 137h72l110 -137h-54l-92 99z"/>
<glyph glyph-name="caron" horiz-adv-x="374" unicode="ˇ" d="M41 675h54l92 -99l92 99h54l-110 -137h-72z"/>
<glyph glyph-name="uni02C9" horiz-adv-x="344" unicode="ˉ" d="M299 583h-254v50h254v-50z"/>
<glyph glyph-name="breve" horiz-adv-x="370" unicode="˘" d="M185 538q-64 0 -101.5 41.5t-38.5 96.5h47q2 -36 25.5 -62.5t67.5 -26.5t67.5 26.5t25.5 62.5h47q-1 -55 -38.5 -96.5t-101.5 -41.5z"/>
<glyph glyph-name="dotaccent" horiz-adv-x="168" unicode="˙" d="M37 607q0 19 13.5 33t33.5 14t33.5 -14t13.5 -33t-13.5 -33t-33.5 -14t-33.5 14t-13.5 33z"/>
<glyph glyph-name="ring" horiz-adv-x="300" unicode="˚" d="M211 635q0 26 -17.5 44.5t-43.5 18.5t-43.5 -18.5t-17.5 -44.5t17.5 -44.5t43.5 -18.5t43.5 18.5t17.5 44.5zM255 635q0 -43 -30.5 -74t-74.5 -31q-43 0 -74 31t-31 74t31 74t74 31q44 0 74.5 -31t30.5 -74z"/>
<glyph glyph-name="ogonek" horiz-adv-x="230" unicode="˛" d="M41 -117q0 77 93 129l41 -12q-83 -43 -83 -106q0 -27 18 -42t45 -15q19 0 34 5v-44q-19 -8 -45 -8q-44 0 -73.5 25t-29.5 68z"/>
<glyph glyph-name="tilde" horiz-adv-x="393" unicode="˜" d="M348 659v-11q0 -45 -24 -71t-59 -26q-33 0 -65 23l-21 15q-29 20 -49 20q-38 0 -38 -55h-47v12q0 44 24 69.5t61 25.5q35 0 71 -27l18 -13q25 -18 44 -18q38 0 38 56h47z"/>
<glyph glyph-name="hungarumlaut" horiz-adv-x="330" unicode="˝" d="M179 676l-90 -139h-44l67 139h67zM285 676l-90 -139h-44l67 139h67z"/>
<glyph glyph-name="uni0394" horiz-adv-x="686" unicode="Δ" d="M343 642l-229 -584h458zM24 0l283 709h72l284 -709h-639z"/>
<glyph glyph-name="uni03A9" horiz-adv-x="820" unicode="Ω" d="M410 665q-117 0 -203 -80t-86 -209q0 -115 71.5 -195t170.5 -98v-83h-296v55h222q-97 31 -164.5 117t-67.5 204q0 153 104 249.5t249 96.5t249 -96.5t104 -249.5q0 -118 -67.5 -204t-164.5 -117h222v-55h-296v83q99 18 170.5 98t71.5 195q0 129 -86 209t-203 80z"/>
<glyph glyph-name="uni03BC" horiz-adv-x="546" unicode="μ" d="M259 -13q-81 0 -119 54v-231h-60v667h60v-291q0 -63 32 -104t98 -41q62 0 98.5 41.5t36.5 103.5v291h60v-386q0 -49 6 -91h-57q-5 25 -5 67v7q-18 -37 -57.5 -62t-92.5 -25z"/>
<glyph glyph-name="pi" horiz-adv-x="580" unicode="π" d="M539 5q-28 -10 -57 -10q-50 0 -76.5 30.5t-26.5 76.5v321h-204v-423h-60v423h-95v54h515v-54h-96v-315q0 -29 16.5 -44t44.5 -15q20 0 39 6v-50z"/>
<glyph glyph-name="Wgrave" horiz-adv-x="990" unicode="Ẁ" d="M726 89l174 620h65l-204 -709h-69l-198 626l-198 -626h-66l-207 709h66l175 -620l196 620h69zM466 759l-134 119h84l107 -119h-57z"/>
<glyph glyph-name="wgrave" horiz-adv-x="795" unicode="ẁ" d="M366 477h65l142 -403l125 403h65l-156 -477h-67l-142 404l-142 -404h-67l-158 477h66l127 -403zM374 537l-118 139h76l89 -139h-47z"/>
<glyph glyph-name="Wacute" horiz-adv-x="990" unicode="Ẃ" d="M726 89l174 620h65l-204 -709h-69l-198 626l-198 -626h-66l-207 709h66l175 -620l196 620h69zM658 878l-134 -119h-57l107 119h84z"/>
<glyph glyph-name="wacute" horiz-adv-x="795" unicode="ẃ" d="M366 477h65l142 -403l125 403h65l-156 -477h-67l-142 404l-142 -404h-67l-158 477h66l127 -403zM542 676l-118 -139h-49l89 139h78z"/>
<glyph glyph-name="Wdieresis" horiz-adv-x="990" unicode="Ẅ" d="M726 89l174 620h65l-204 -709h-69l-198 626l-198 -626h-66l-207 709h66l175 -620l196 620h69zM583 819q0 18 12.5 30.5t30.5 12.5t30.5 -12.5t12.5 -30.5t-12.5 -30.5t-30.5 -12.5t-30.5 12.5t-12.5 30.5zM319 819q0 18 12.5 30.5t30.5 12.5t30.5 -12.5t12.5 -30.5 t-12.5 -30.5t-30.5 -12.5t-30.5 12.5t-12.5 30.5z"/>
<glyph glyph-name="wdieresis" horiz-adv-x="795" unicode="ẅ" d="M366 477h65l142 -403l125 403h65l-156 -477h-67l-142 404l-142 -404h-67l-158 477h66l127 -403zM463 610q0 18 12 30.5t30 12.5q17 0 29.5 -13t12.5 -30q0 -18 -12.5 -30t-29.5 -12q-18 0 -30 12t-12 30zM250 610q0 17 12.5 30t29.5 13q18 0 30.5 -13t12.5 -30 q0 -18 -12.5 -30t-30.5 -12q-17 0 -29.5 12t-12.5 30z"/>
<glyph glyph-name="uni1E8A" horiz-adv-x="591" unicode="Ẋ" d="M250 818q0 20 14 33.5t33 13.5t33 -13.5t14 -33.5t-14 -33.5t-33 -13.5t-33 13.5t-14 33.5zM571 709l-239 -353l238 -356h-75l-199 305l-203 -305h-74l240 356l-238 353h76l199 -304l200 304h75z"/>
<glyph glyph-name="uni1E8B" horiz-adv-x="478" unicode="ẋ" d="M191 607q0 19 13.5 33t33.5 14t33.5 -14t13.5 -33t-13.5 -33t-33.5 -14t-33.5 14t-13.5 33zM20 0l182 243l-174 234h71l140 -191l140 191h71l-176 -234l183 -243h-72l-147 200l-146 -200h-72z"/>
<glyph glyph-name="Ygrave" horiz-adv-x="616" unicode="Ỳ" d="M293 759l-134 119h84l107 -119h-57zM277 303l-248 406h75l204 -347l205 347h74l-248 -406v-303h-62v303z"/>
<glyph glyph-name="ygrave" horiz-adv-x="501" unicode="ỳ" d="M247 537l-118 139h76l89 -139h-47zM174 -190h-65l119 252l-203 415h67l167 -352l158 352h66z"/>
<glyph glyph-name="uni2007" horiz-adv-x="606" unicode=" "/>
<glyph glyph-name="uni2008" horiz-adv-x="229" unicode=" "/>
<glyph glyph-name="uni200B" horiz-adv-x="0" unicode="​"/>
<glyph glyph-name="endash" horiz-adv-x="638" unicode="–" d="M569 260h-500v54h500v-54z"/>
<glyph glyph-name="emdash" horiz-adv-x="1057" unicode="—" d="M988 260h-919v54h919v-54z"/>
<glyph glyph-name="quoteleft" horiz-adv-x="211" unicode="‘" d="M154 537q0 -19 -14.5 -33t-35.5 -14q-23 0 -39.5 18t-16.5 49q0 66 33.5 109.5t79.5 54.5v-36q-31 -9 -50.5 -39t-20.5 -65q5 5 18 5q20 0 33 -13.5t13 -35.5z"/>
<glyph glyph-name="quoteright" horiz-adv-x="215" unicode="’" d="M67 669q0 19 14.5 33t35.5 14q23 0 39.5 -18t16.5 -49q0 -66 -33.5 -109.5t-79.5 -54.5v36q31 9 50.5 39t20.5 65q-5 -5 -18 -5q-20 0 -33 13.5t-13 35.5z"/>
<glyph glyph-name="quotesinglbase" horiz-adv-x="234" unicode="‚" d="M64 46q0 19 14.5 33t35.5 14q23 0 39.5 -18t16.5 -49q0 -66 -33.5 -109.5t-79.5 -54.5v36q31 9 50.5 39t20.5 65q-5 -5 -18 -5q-20 0 -33 13.5t-13 35.5z"/>
<glyph glyph-name="quotedblleft" horiz-adv-x="353" unicode="“" d="M296 537q0 -19 -14.5 -33t-35.5 -14q-23 0 -39.5 18t-16.5 49q0 66 33.5 109.5t79.5 54.5v-36q-31 -9 -50.5 -39t-20.5 -65q5 5 18 5q20 0 33 -13.5t13 -35.5zM154 537q0 -19 -14.5 -33t-35.5 -14q-23 0 -39.5 18t-16.5 49q0 66 33.5 109.5t79.5 54.5v-36 q-31 -9 -50.5 -39t-20.5 -65q5 5 18 5q20 0 33 -13.5t13 -35.5z"/>
<glyph glyph-name="quotedblright" horiz-adv-x="357" unicode="”" d="M209 669q0 19 14.5 33t35.5 14q23 0 39.5 -18t16.5 -49q0 -66 -33.5 -109.5t-79.5 -54.5v36q31 9 50.5 39t20.5 65q-5 -5 -18 -5q-20 0 -33 13.5t-13 35.5zM67 669q0 19 14.5 33t35.5 14q23 0 39.5 -18t16.5 -49q0 -66 -33.5 -109.5t-79.5 -54.5v36q31 9 50.5 39t20.5 65 q-5 -5 -18 -5q-20 0 -33 13.5t-13 35.5z"/>
<glyph glyph-name="quotedblbase" horiz-adv-x="383" unicode="„" d="M213 46q0 19 14.5 33t35.5 14q23 0 39.5 -18t16.5 -49q0 -66 -33.5 -109.5t-79.5 -54.5v36q31 9 50.5 39t20.5 65q-5 -5 -18 -5q-20 0 -33 13.5t-13 35.5zM64 46q0 19 14.5 33t35.5 14q23 0 39.5 -18t16.5 -49q0 -66 -33.5 -109.5t-79.5 -54.5v36q31 9 50.5 39t20.5 65 q-5 -5 -18 -5q-20 0 -33 13.5t-13 35.5z"/>
<glyph glyph-name="dagger" horiz-adv-x="409" unicode="†" d="M231 162h-53v335h-136v51h136v161h53v-161h136v-51h-136v-335z"/>
<glyph glyph-name="daggerdbl" horiz-adv-x="1831" unicode="‡" d="M210 327q0 144 56 274.5t150.5 225t225.5 150.5t274 56q191 0 353.5 -94.5t257 -257t94.5 -354.5q0 -144 -56 -274.5t-150.5 -225t-225 -150t-273.5 -55.5t-274 56t-225.5 150t-150.5 224.5t-56 274.5zM1332 408q15 -9 33 -9q28 0 47.5 19t19.5 47q0 37 -33 56 q-239 139 -593 139q-185 0 -331 -44q-21 -7 -34 -24.5t-13 -38.5q0 -26 18.5 -46.5t46.5 -20.5q10 0 19 3q129 39 300 39q144 0 281.5 -30t238.5 -90zM1277 181q22 0 38.5 16.5t16.5 39.5q0 32 -26 47q-105 64 -238.5 98.5t-271.5 34.5q-150 0 -282 -40q-18 -5 -28.5 -20 t-10.5 -33q0 -23 14.5 -38.5t37.5 -15.5q10 0 16 1t18 5t26 7q97 24 207 24q124 0 243 -30.5t211 -87.5q14 -8 29 -8zM1200 -6q18 0 31 13t13 32q0 24 -21 37q-179 111 -421 111q-123 0 -263 -32q-34 -9 -34 -42q0 -18 12 -31t31 -13q1 0 41 8q111 23 215 23q210 0 373 -99 q12 -7 23 -7z"/>
<glyph glyph-name="bullet" horiz-adv-x="566" unicode="•" d="M75 282q0 87 60.5 147.5t147.5 60.5t147.5 -60.5t60.5 -147.5t-60.5 -147.5t-147.5 -60.5t-147.5 60.5t-60.5 147.5z"/>
<glyph glyph-name="ellipsis" horiz-adv-x="722" unicode="…" d="M560 45q0 21 14.5 35t34.5 14t34.5 -14t14.5 -35t-14.5 -35t-34.5 -14t-34.5 14t-14.5 35zM312 45q0 21 14.5 35t34.5 14t34.5 -14t14.5 -35t-14.5 -35t-34.5 -14t-34.5 14t-14.5 35zM64 45q0 21 14.5 35t34.5 14t34.5 -14t14.5 -35t-14.5 -35t-34.5 -14t-34.5 14 t-14.5 35z"/>
<glyph glyph-name="perthousand" horiz-adv-x="1056" unicode="‰" d="M767 146q0 -44 29 -74t71 -30q43 0 71.5 30.5t28.5 76.5q0 42 -29.5 71t-70.5 29q-42 0 -71 -30t-29 -73zM509 146q0 -44 29 -74t71 -30q43 0 71.5 30.5t28.5 76.5q0 42 -29.5 71t-70.5 29q-42 0 -71 -30t-29 -73zM455 146q0 64 45 108.5t109 44.5q84 0 129 -71 q45 71 129 71q64 0 109 -44.5t45 -108.5t-45 -109t-109 -45q-84 0 -129 71q-45 -71 -129 -71q-64 0 -109 45t-45 109zM36 564q0 64 45 108.5t109 44.5q63 0 108.5 -45t45.5 -108q0 -64 -45.5 -109t-108.5 -45q-64 0 -109 45t-45 109zM190 460q42 0 71 30t29 74q0 43 -29 73 t-71 30q-43 0 -72 -29.5t-29 -73.5t29 -74t72 -30zM192 0h-59l473 709h59z"/>
<glyph glyph-name="guilsinglleft" horiz-adv-x="296" unicode="‹" d="M241 95h-60l-133 191l133 191h60l-132 -191z"/>
<glyph glyph-name="guilsinglright" horiz-adv-x="296" unicode="›" d="M115 95h-60l132 191l-132 191h60l133 -191z"/>
<glyph glyph-name="uni2042" horiz-adv-x="822" unicode="⁂" d="M649 312v-132l125 43l14 -41l-126 -44l82 -110l-35 -27l-83 113l-79 -112l-36 27l80 109l-125 43l14 42l123 -44v133h46zM218 312v-132l125 43l14 -41l-126 -44l82 -110l-35 -27l-83 113l-79 -112l-36 27l80 109l-125 43l14 42l123 -44v133h46zM433 709v-132l125 43 l14 -41l-126 -44l82 -110l-35 -27l-83 113l-79 -112l-36 27l80 109l-125 43l14 42l123 -44v133h46z"/>
<glyph glyph-name="fraction" horiz-adv-x="131" unicode="⁄" d="M276 709h55l-472 -709h-57z"/>
<glyph glyph-name="uni2051" horiz-adv-x="444" unicode="⁑" d="M244 312v-132l125 43l14 -41l-126 -44l82 -110l-35 -27l-83 113l-79 -112l-36 27l80 109l-125 43l14 42l123 -44v133h46zM244 709v-132l125 43l14 -41l-126 -44l82 -110l-35 -27l-83 113l-79 -112l-36 27l80 109l-125 43l14 42l123 -44v133h46z"/>
<glyph glyph-name="uni2070" horiz-adv-x="378" unicode="⁰" d="M41 528q0 83 36 134q40 54 112 54t112 -54q36 -49 36 -134q0 -86 -36 -134q-40 -54 -112 -54t-112 54q-36 49 -36 134zM93 528q0 -38 7.5 -68t30 -53t58.5 -23t58.5 23t30 53t7.5 68t-7.5 67.5t-30 52.5t-58.5 23t-58.5 -23t-30 -52.5t-7.5 -67.5z"/>
<glyph glyph-name="uni2074" horiz-adv-x="367" unicode="⁴" d="M217 474v179l-140 -179h140zM27 429v51l180 230h61v-236h71v-45h-71v-82h-51v82h-190z"/>
<glyph glyph-name="uni2075" horiz-adv-x="340" unicode="⁵" d="M30 439l45 20q5 -33 30 -54t60 -21q38 0 62 22.5t24 57.5q0 36 -24 57.5t-61 21.5q-46 0 -78 -34l-45 16l49 185h196v-44h-162l-30 -113q31 31 83 31q55 0 89.5 -33t34.5 -86t-37.5 -89t-100.5 -36q-52 0 -90 29t-45 70z"/>
<glyph glyph-name="uni2076" horiz-adv-x="362" unicode="⁶" d="M100 465q0 -36 26 -58.5t61 -22.5q36 0 61.5 22.5t25.5 58.5t-25.5 58.5t-61.5 22.5q-35 0 -61 -22.5t-26 -58.5zM313 697l-13 -40q-29 16 -69 16q-62 0 -98.5 -40t-41.5 -104q11 25 41 42.5t65 17.5q56 0 92.5 -34t36.5 -90q0 -55 -40.5 -90t-99.5 -35 q-63 0 -104.5 44.5t-41.5 123.5q0 97 53.5 152.5t134.5 55.5q53 0 85 -19z"/>
<glyph glyph-name="uni2077" horiz-adv-x="329" unicode="⁷" d="M309 710v-47q-144 -117 -166 -316h-54q20 195 155 319h-220v44h285z"/>
<glyph glyph-name="uni2078" horiz-adv-x="355" unicode="⁸" d="M178 340q-64 0 -101 29.5t-37 74.5q0 31 20.5 55t53.5 34q-28 10 -45.5 32.5t-17.5 50.5q0 44 35 72t92 28q56 0 91.5 -28t35.5 -72q0 -28 -17.5 -50.5t-46.5 -32.5q34 -10 54 -34t20 -55q0 -45 -36.5 -74.5t-100.5 -29.5zM178 384q40 0 62.5 18t22.5 46q0 29 -22.5 47 t-62.5 18t-63 -18t-23 -47q0 -28 23 -46t63 -18zM178 554q34 0 55 16.5t21 43.5t-20.5 44t-55.5 17t-55.5 -17t-20.5 -44t21 -43.5t55 -16.5z"/>
<glyph glyph-name="uni2079" horiz-adv-x="360" unicode="⁹" d="M259 592q0 36 -25 58t-61 22t-60.5 -22t-24.5 -58t24.5 -58t60.5 -22t61 22t25 58zM48 361l13 40q33 -18 73 -18q60 0 96.5 38t38.5 109q-11 -27 -40 -44t-64 -17q-55 0 -92 34t-37 89q0 53 40.5 88.5t98.5 35.5q62 0 103.5 -44t41.5 -122q0 -97 -48 -154t-136 -57 q-52 0 -88 22z"/>
<glyph glyph-name="uni2080" horiz-adv-x="380" unicode="₀" d="M42 100q0 83 36 134q40 54 112 54t112 -54q36 -49 36 -134q0 -86 -36 -134q-40 -54 -112 -54t-112 54q-36 49 -36 134zM94 100q0 -38 7.5 -68t30 -53t58.5 -23t58.5 23t30 53t7.5 68t-7.5 67.5t-30 52.5t-58.5 23t-58.5 -23t-30 -52.5t-7.5 -67.5z"/>
<glyph glyph-name="uni2081" horiz-adv-x="219" unicode="₁" d="M165 -81h-51v286q-31 -32 -87 -37v39q36 5 60 26t29 49h49v-363z"/>
<glyph glyph-name="uni2082" horiz-adv-x="344" unicode="₂" d="M96 147l-50 3q-2 14 -2 24q0 48 35 81t93 33q56 0 90.5 -32t34.5 -78q0 -63 -72 -108l-74 -46q-41 -27 -46 -61h196v-44h-258v5q0 88 78 135l69 42q55 34 55 78q0 27 -20.5 46.5t-53.5 19.5q-34 0 -55.5 -20.5t-21.5 -54.5q0 -7 2 -23z"/>
<glyph glyph-name="uni2083" horiz-adv-x="356" unicode="₃" d="M148 95l-22 39l114 104h-195v44h262v-42l-116 -104q1 0 4.5 0.5t4.5 0.5q48 -2 81.5 -29.5t33.5 -77.5t-38.5 -84t-99.5 -34q-59 0 -97.5 30t-44.5 76l46 17q3 -36 30.5 -58t64.5 -22t62 21.5t25 53.5q0 34 -24 52t-59 18q-17 0 -32 -5z"/>
<glyph glyph-name="uni2084" horiz-adv-x="368" unicode="₄" d="M218 46v179l-140 -179h140zM28 1v51l180 230h61v-236h71v-45h-71v-82h-51v82h-190z"/>
<glyph glyph-name="uni2085" horiz-adv-x="341" unicode="₅" d="M31 11l45 20q5 -33 30 -54t60 -21q38 0 62 22.5t24 57.5q0 36 -24 57.5t-61 21.5q-46 0 -78 -34l-45 16l49 185h196v-44h-162l-30 -113q31 31 83 31q55 0 89.5 -33t34.5 -86t-37.5 -89t-100.5 -36q-52 0 -90 29t-45 70z"/>
<glyph glyph-name="uni2086" horiz-adv-x="364" unicode="₆" d="M101 37q0 -36 26 -58.5t61 -22.5q36 0 61.5 22.5t25.5 58.5t-25.5 58.5t-61.5 22.5q-35 0 -61 -22.5t-26 -58.5zM314 269l-13 -40q-29 16 -69 16q-62 0 -98.5 -40t-41.5 -104q11 25 41 42.5t65 17.5q56 0 92.5 -34t36.5 -90q0 -55 -40.5 -90t-99.5 -35q-63 0 -104.5 44.5 t-41.5 123.5q0 97 53.5 152.5t134.5 55.5q53 0 85 -19z"/>
<glyph glyph-name="uni2087" horiz-adv-x="329" unicode="₇" d="M310 282v-47q-144 -117 -166 -316h-54q20 195 155 319h-220v44h285z"/>
<glyph glyph-name="uni2088" horiz-adv-x="357" unicode="₈" d="M179 -88q-64 0 -101 29.5t-37 74.5q0 31 20.5 55t53.5 34q-28 10 -45.5 32.5t-17.5 50.5q0 44 35 72t92 28q56 0 91.5 -28t35.5 -72q0 -28 -17.5 -50.5t-46.5 -32.5q34 -10 54 -34t20 -55q0 -45 -36.5 -74.5t-100.5 -29.5zM179 -44q40 0 62.5 18t22.5 46q0 29 -22.5 47 t-62.5 18t-63 -18t-23 -47q0 -28 23 -46t63 -18zM179 126q34 0 55 16.5t21 43.5t-20.5 44t-55.5 17t-55.5 -17t-20.5 -44t21 -43.5t55 -16.5z"/>
<glyph glyph-name="uni2089" horiz-adv-x="363" unicode="₉" d="M261 164q0 36 -25 58t-61 22t-60.5 -22t-24.5 -58t24.5 -58t60.5 -22t61 22t25 58zM50 -67l13 40q33 -18 73 -18q60 0 96.5 38t38.5 109q-11 -27 -40 -44t-64 -17q-55 0 -92 34t-37 89q0 53 40.5 88.5t98.5 35.5q62 0 103.5 -44t41.5 -122q0 -97 -48 -154t-136 -57 q-52 0 -88 22z"/>
<glyph glyph-name="Euro" horiz-adv-x="743" unicode="€" d="M703 64q-86 -77 -215 -77q-123 0 -220 72t-125 199h-99v50h90q-3 24 -3 48q0 10 2 40h-89v49h97q28 128 129 202t225 74q110 0 180 -50l-25 -49q-60 43 -153 43q-101 0 -183.5 -58t-108.5 -162h348l-23 -49h-334q-2 -23 -2 -42q0 -18 2 -46h293l-23 -50h-259 q26 -102 105 -157.5t174 -55.5q55 0 104.5 18.5t79.5 46.5z"/>
<glyph glyph-name="uni2113" horiz-adv-x="378" unicode="ℓ" d="M173 572v-191q114 84 114 209q0 79 -53 79q-61 0 -61 -97zM329 69v-52q-38 -22 -86 -22q-59 0 -93 35t-34 98v161q-42 -19 -70 -26v54q30 9 70 30v224q0 72 32.5 111t82.5 39q56 0 84.5 -36t28.5 -96q0 -166 -171 -273v-180q0 -43 20 -65.5t55 -22.5q42 0 81 21z"/>
<glyph glyph-name="trademark" horiz-adv-x="828" unicode="™" d="M750 355h-50v268l-120 -268h-41l-120 268v-268h-50v354h64l127 -285l127 285h63v-354zM319 664h-116v-309h-50v309h-116v45h282v-45z"/>
<glyph glyph-name="Omega" horiz-adv-x="824" unicode="Ω" d="M412 665q-117 0 -203 -80t-86 -209q0 -115 71.5 -195t170.5 -98v-83h-296v55h222q-97 31 -164.5 117t-67.5 204q0 153 104 249.5t249 96.5t249 -96.5t104 -249.5q0 -118 -67.5 -204t-164.5 -117h222v-55h-296v83q99 18 170.5 98t71.5 195q0 129 -86 209t-203 80z"/>
<glyph glyph-name="uni2160" horiz-adv-x="456" unicode="Ⅰ" d="M422 709v-56h-164v-597h164v-56h-388v56h163v597h-163v56h388z"/>
<glyph glyph-name="uni2161" horiz-adv-x="726" unicode="Ⅱ" d="M257 653v-597h212v597h-212zM692 709v-56h-162v-597h162v-56h-658v56h161v597h-161v56h658z"/>
<glyph glyph-name="uni2162" horiz-adv-x="994" unicode="Ⅲ" d="M528 56h210v597h-210v-597zM257 653v-597h209v597h-209zM960 709v-56h-161v-597h161v-56h-926v56h161v597h-161v56h926z"/>
<glyph glyph-name="uni2163" horiz-adv-x="971" unicode="Ⅳ" d="M588 76l170 577h-341zM352 653h-98v-597h276zM936 56v-56h-902v56h158v597h-158v56h902v-56h-113l-178 -597h291z"/>
<glyph glyph-name="uni2164" horiz-adv-x="751" unicode="Ⅴ" d="M375 76l171 577h-341zM716 56v-56h-681v56h283l-178 597h-105v56h681v-56h-105l-178 -597h283z"/>
<glyph glyph-name="uni2165" horiz-adv-x="970" unicode="Ⅵ" d="M35 0v56h290l-178 597h-112v56h900v-56h-146v-597h146v-56h-900zM383 76l170 577h-340zM727 56v597h-108l-178 -597h286z"/>
<glyph glyph-name="uni2166" horiz-adv-x="1257" unicode="Ⅶ" d="M383 76l170 577h-340zM789 653v-597h210v597h-210zM619 653l-178 -597h286v597h-108zM1224 709v-56h-164v-597h162v-56h-1187v56h290l-178 597h-112v56h1189z"/>
<glyph glyph-name="uni2167" horiz-adv-x="1511" unicode="Ⅷ" d="M384 76l170 577h-341zM1051 653v-597h202v597h-202zM787 653v-597h203v597h-203zM619 653l-178 -597h285v597h-107zM1479 709v-56h-164v-597h160v-56h-1440v56h290l-178 597h-112v56h1444z"/>
<glyph glyph-name="uni2168" horiz-adv-x="941" unicode="Ⅸ" d="M419 653l156 -246l157 246h-313zM419 56h311l-155 244zM538 354l-192 299h-92v-597h93zM804 653l-193 -299l192 -298h104v-56h-873v56h158v597h-158v56h872v-56h-102z"/>
<glyph glyph-name="uni2169" horiz-adv-x="722" unicode="Ⅹ" d="M201 653l158 -250l160 250h-318zM206 56h306l-153 241zM591 653l-196 -302l190 -295h103v-56h-654v56h100l189 293l-194 304h-95v56h654v-56h-97z"/>
<glyph glyph-name="uni216C" horiz-adv-x="613" unicode="Ⅼ" d="M574 0h-539v56h144v597h-144v56h359v-56h-154v-597h274v222h60v-278z"/>
<glyph glyph-name="uni216D" horiz-adv-x="744" unicode="Ⅽ" d="M616 0v113q-69 -125 -229 -125q-143 0 -240 98t-97 268q0 169 97.5 268t237.5 99q154 0 227 -122v110h61v-237h-61q-17 88 -73.5 141.5t-152.5 53.5q-115 0 -195.5 -83.5t-80.5 -229.5t79 -228.5t198 -82.5q98 0 156 56.5t73 140.5h61v-240h-61z"/>
<glyph glyph-name="uni216E" horiz-adv-x="726" unicode="Ⅾ" d="M34 709h317q140 0 232 -91.5t92 -263.5t-92.5 -263t-234.5 -91h-314v56h149v597h-149v56zM244 56h103q115 0 190 74t75 224q0 149 -74 224t-190 75h-104v-597z"/>
<glyph glyph-name="uni216F" horiz-adv-x="1020" unicode="Ⅿ" d="M255 709l253 -622l250 622h225v-56h-135v-597h139v-56h-317v56h117v566l-252 -622h-55l-252 621v-565h122v-56h-315v56h133v597h-133v56h220z"/>
<glyph glyph-name="arrowleft" horiz-adv-x="1019" unicode="←" d="M247 116l-206 174l206 173v-147h700v-53h-700v-147z"/>
<glyph glyph-name="arrowup" horiz-adv-x="416" unicode="↑" d="M208 796l169 -204h-142v-739h-54v739h-142z"/>
<glyph glyph-name="arrowright" horiz-adv-x="1019" unicode="→" d="M978 290l-206 -174v147h-700v53h700v147z"/>
<glyph glyph-name="arrowdown" horiz-adv-x="423" unicode="↓" d="M385 48l-174 -206l-173 206h146v737h54v-737h147z"/>
<glyph glyph-name="uni2196" horiz-adv-x="799" unicode="↖" d="M54 709h250l-106 -106l574 -573l-38 -38l-573 573l-107 -108v252z"/>
<glyph glyph-name="uni2197" horiz-adv-x="800" unicode="↗" d="M495 709h251v-252l-107 108l-573 -573l-39 38l574 573z"/>
<glyph glyph-name="uni2198" horiz-adv-x="801" unicode="↘" d="M746 0h-250l106 106l-574 573l38 38l573 -573l107 108v-252z"/>
<glyph glyph-name="uni2199" horiz-adv-x="802" unicode="↙" d="M306 0h-251v252l107 -108l573 573l39 -38l-574 -573z"/>
<glyph glyph-name="uni21A9" horiz-adv-x="851" unicode="↩" d="M432 601v53h168q84 0 143.5 -57t59.5 -140q0 -86 -61 -141.5t-145 -55.5h-369v-137l-195 164l195 164v-137h367q63 0 109 39.5t46 103.5q0 62 -44.5 103t-109.5 41h-164z"/>
<glyph glyph-name="uni21B0" horiz-adv-x="725" unicode="↰" d="M225 395l-195 164l195 164v-137h418v-586h-53v532h-365v-137z"/>
<glyph glyph-name="uni21B1" horiz-adv-x="743" unicode="↱" d="M135 0h-53v586h437v137l194 -164l-194 -164v137h-384v-532z"/>
<glyph glyph-name="uni21B2" horiz-adv-x="742" unicode="↲" d="M607 717h53v-585h-437v-138l-194 164l194 164v-137h384v532z"/>
<glyph glyph-name="uni21B3" horiz-adv-x="743" unicode="↳" d="M519 322l195 -164l-195 -164v138h-437v585h54v-532h383v137z"/>
<glyph glyph-name="uni21B4" horiz-adv-x="769" unicode="↴" d="M34 656v53h565v-528h137l-164 -194l-164 194h137v475h-511z"/>
<glyph glyph-name="uni21B5" horiz-adv-x="1058" unicode="↵" d="M894 355q0 -152 -107.5 -259.5t-259.5 -107.5q-98 0 -181 47l23 48q73 -42 158 -42q130 0 221.5 92t91.5 222h-132l159 191l159 -191h-132zM189 164l-159 191h130q0 152 107.5 259.5t259.5 107.5q96 0 181 -48l-23 -47q-76 42 -158 42q-130 0 -221.5 -92t-91.5 -222h134z "/>
<glyph glyph-name="uni21C6" horiz-adv-x="1045" unicode="⇆" d="M995 170l-194 -164v137h-722v54h722v137zM247 376l-195 164l195 164v-137h721v-54h-721v-137z"/>
<glyph glyph-name="partialdiff" horiz-adv-x="604" unicode="∂" d="M294 397q-85 0 -135.5 -51t-50.5 -129t51.5 -126.5t125.5 -48.5q51 0 90 22t62 58.5t35 78.5t14 87q-31 53 -81.5 81t-110.5 28zM234 667q-75 0 -139 -32l-20 49q72 38 168 38q137 0 222 -99t85 -278q0 -159 -68.5 -258.5t-199.5 -99.5q-99 0 -167 63.5t-68 169.5 q0 102 68.5 166t169.5 64q65 0 118.5 -25t84.5 -67q-2 67 -17 121t-44 97t-78 67t-115 24z"/>
<glyph glyph-name="Delta" horiz-adv-x="701" unicode="∆" d="M350 642l-229 -584h458zM31 0l283 709h72l284 -709h-639z"/>
<glyph glyph-name="product" horiz-adv-x="665" unicode="∏" d="M586 0h-60v651h-385v-651h-62v709h507v-709z"/>
<glyph glyph-name="summation" horiz-adv-x="587" unicode="∑" d="M47 0v58l282 299l-282 293v59h485v-58h-407l280 -294l-286 -299h413v-58h-485z"/>
<glyph glyph-name="minus" horiz-adv-x="567" unicode="−" d="M494 323h-421v50h421v-50z"/>
<glyph glyph-name="uni2215" horiz-adv-x="367" unicode="∕" d="M365 648l-314 -648h-59l314 648h59z"/>
<glyph glyph-name="uni2219" horiz-adv-x="241" unicode="∙" d="M69 284q0 22 14.5 37t36.5 15t37 -15t15 -37t-15 -36.5t-37 -14.5t-36.5 14.5t-14.5 36.5z"/>
<glyph glyph-name="radical" horiz-adv-x="660" unicode="√" d="M653 796h-126l-268 -796h-57l-182 518h69l143 -417l247 751h174v-56z"/>
<glyph glyph-name="infinity" horiz-adv-x="801" unicode="∞" d="M400 309q-92 -123 -187 -123q-69 0 -116.5 48t-47.5 116t47.5 116t116.5 48q100 0 188 -124q91 124 187 124q69 0 116.5 -48t47.5 -116t-47.5 -116t-116.5 -48q-99 0 -188 123zM699 349q0 47 -32 80t-80 33q-43 0 -79 -29t-76 -83q39 -54 75.5 -83.5t79.5 -29.5 q47 0 79.5 33t32.5 79zM103 349q0 -46 32.5 -79t79.5 -33q75 0 154 112q-79 113 -154 113q-48 0 -80 -33t-32 -80z"/>
<glyph glyph-name="integral" horiz-adv-x="322" unicode="∫" d="M131 -32v589q0 71 39 111.5t105 40.5h28v-54h-24q-40 0 -64 -26.5t-24 -75.5v-590q0 -72 -37.5 -112.5t-102.5 -40.5h-32v54h24q40 0 64 27.5t24 76.5z"/>
<glyph glyph-name="approxequal" horiz-adv-x="620" unicode="≈" d="M514 285l34 -29q-53 -73 -132 -73q-42 0 -96 30l-47 25q-40 20 -70 20q-55 0 -95 -49l-35 30q54 74 130 74q40 0 95 -29l46 -25q42 -22 78 -22q54 0 92 48zM514 479l34 -30q-52 -72 -132 -72q-41 0 -96 29l-47 25q-37 20 -70 20q-55 0 -95 -49l-35 31q54 74 130 74 q38 0 95 -30l46 -24q41 -23 78 -23q55 0 92 49z"/>
<glyph glyph-name="notequal" horiz-adv-x="600" unicode="≠" d="M161 116h-62l81 110h-104v51h142l105 143h-247v50h285l79 107h62l-79 -107h100v-50h-138l-105 -143h243v-51h-281z"/>
<glyph glyph-name="lessequal" horiz-adv-x="582" unicode="≤" d="M489 125h-405v51h405v-51zM489 234l-405 147v53l405 147v-54l-336 -120l336 -118v-55z"/>
<glyph glyph-name="greaterequal" horiz-adv-x="582" unicode="≥" d="M498 125h-405v51h405v-51zM93 234v55l336 118l-336 120v54l405 -147v-53z"/>
<glyph glyph-name="dotmath" horiz-adv-x="241" unicode="⋅" d="M69 284q0 22 14.5 37t36.5 15t37 -15t15 -37t-15 -36.5t-37 -14.5t-36.5 14.5t-14.5 36.5z"/>
<glyph glyph-name="uni24C5" horiz-adv-x="824" unicode="Ⓟ" d="M443 314h-92v-158h-49v400h141q56 0 92 -34.5t36 -86.5t-36 -86.5t-92 -34.5zM351 357h84q39 0 62.5 21t23.5 56q0 36 -23.5 57.5t-62.5 21.5h-84v-156zM412 -13q-152 0 -258 107t-106 260q0 154 106 261t258 107t258 -107t106 -261q0 -153 -106 -260t-258 -107zM412 674 q-131 0 -221.5 -92.5t-90.5 -227.5q0 -134 90.5 -226.5t221.5 -92.5t221.5 92.5t90.5 226.5q0 135 -90.5 227.5t-221.5 92.5z"/>
<glyph glyph-name="filledbox" horiz-adv-x="855" unicode="■" d="M77 0v709h701v-709h-701z"/>
<glyph glyph-name="H22073" horiz-adv-x="855" unicode="□" d="M129 660v-611h596v611h-596zM778 0h-701v709h701v-709z"/>
<glyph glyph-name="uni25AF" horiz-adv-x="574" unicode="▯" d="M130 658v-607h315v607h-315zM497 0h-420v709h420v-709z"/>
<glyph glyph-name="triagup" horiz-adv-x="892" unicode="▲" d="M448 726l418 -726h-840z"/>
<glyph glyph-name="uni25B3" horiz-adv-x="892" unicode="△" d="M776 49l-329 572l-331 -572h660zM448 726l418 -726h-840z"/>
<glyph glyph-name="lozenge" horiz-adv-x="538" unicode="◊" d="M35 354l209 355h50l208 -355l-208 -354h-50zM100 354l169 -282l168 282l-168 283z"/>
<glyph glyph-name="circle" horiz-adv-x="838" unicode="○" d="M104 354q0 -132 91.5 -224.5t222.5 -92.5q132 0 223.5 92.5t91.5 224.5t-91.5 224.5t-223.5 92.5q-131 0 -222.5 -92.5t-91.5 -224.5zM50 354q0 153 108 261t260 108q153 0 261.5 -108t108.5 -261t-108.5 -260.5t-261.5 -107.5q-152 0 -260 107.5t-108 260.5z"/>
<glyph glyph-name="H18533" horiz-adv-x="838" unicode="●" d="M50 354q0 153 108 261t260 108q153 0 261.5 -108t108.5 -261t-108.5 -260.5t-261.5 -107.5q-152 0 -260 107.5t-108 260.5z"/>
<glyph glyph-name="uni262E" horiz-adv-x="828" unicode="☮" d="M189 130q80 -86 196 -94v289zM439 36q113 7 196 92l-196 197v-289zM101 354q0 -101 56 -182l228 228v273q-121 -10 -202.5 -101t-81.5 -218zM725 354q0 127 -82.5 218t-203.5 101v-273l229 -229q57 82 57 183zM778 354q0 -151 -107 -259t-259 -108q-150 0 -256 108 t-106 259q0 152 105.5 260t256.5 108q152 0 259 -108t107 -260z"/>
<glyph glyph-name="uni2713" horiz-adv-x="978" unicode="✓" d="M952 671l-637 -687l-281 314l38 36l246 -270l596 644z"/>
<glyph glyph-name="uni2715" horiz-adv-x="759" unicode="✕" d="M684 -4l-305 311l-304 -311l-38 38l304 311l-303 311l38 38l303 -310l303 310l39 -38l-305 -311l305 -311z"/>
<glyph glyph-name="uni2780" horiz-adv-x="830" unicode="➀" d="M450 174h-51v286q-31 -32 -87 -37v39q36 5 60 26t29 49h49v-363zM415 675q-131 0 -222 -93t-91 -228q0 -133 91 -226.5t222 -93.5t222 93.5t91 226.5q0 135 -91 228t-222 93zM415 722q151 0 258 -108t107 -260q0 -151 -107 -259t-258 -108t-258 108t-107 259 q0 152 107 260t258 108z"/>
<glyph glyph-name="uni2781" horiz-adv-x="830" unicode="➁" d="M337 404l-50 3q-2 14 -2 24q0 48 35 81t93 33q56 0 90.5 -32t34.5 -78q0 -63 -72 -108l-74 -46q-41 -27 -46 -61h196v-44h-258v5q0 88 78 135l69 42q55 34 55 78q0 27 -20.5 46.5t-53.5 19.5q-34 0 -55.5 -20.5t-21.5 -54.5q0 -7 2 -23zM415 675q-131 0 -222 -93 t-91 -228q0 -133 91 -226.5t222 -93.5t222 93.5t91 226.5q0 135 -91 228t-222 93zM415 722q151 0 258 -108t107 -260q0 -151 -107 -259t-258 -108t-258 108t-107 259q0 152 107 260t258 108z"/>
<glyph glyph-name="uni2782" horiz-adv-x="830" unicode="➂" d="M383 352l-22 39l114 104h-195v44h262v-42l-116 -104q1 0 4.5 0.5t4.5 0.5q48 -2 81.5 -29.5t33.5 -77.5t-38.5 -84t-99.5 -34q-59 0 -97.5 30t-44.5 76l46 17q3 -36 30.5 -58t64.5 -22t62 21.5t25 53.5q0 34 -24 52t-59 18q-17 0 -32 -5zM415 675q-131 0 -222 -93 t-91 -228q0 -133 91 -226.5t222 -93.5t222 93.5t91 226.5q0 135 -91 228t-222 93zM415 722q151 0 258 -108t107 -260q0 -151 -107 -259t-258 -108t-258 108t-107 259q0 152 107 260t258 108z"/>
<glyph glyph-name="uni2783" horiz-adv-x="830" unicode="➃" d="M429 303v179l-140 -179h140zM239 258v51l180 230h61v-236h71v-45h-71v-82h-51v82h-190zM415 675q-131 0 -222 -93t-91 -228q0 -133 91 -226.5t222 -93.5t222 93.5t91 226.5q0 135 -91 228t-222 93zM415 722q151 0 258 -108t107 -260q0 -151 -107 -259t-258 -108t-258 108 t-107 259q0 152 107 260t258 108z"/>
<glyph glyph-name="uni2784" horiz-adv-x="830" unicode="➄" d="M271 265l45 20q5 -33 30 -54t60 -21q38 0 62 22.5t24 57.5q0 36 -24 57.5t-61 21.5q-46 0 -78 -34l-45 16l49 185h196v-44h-162l-30 -113q31 31 83 31q55 0 89.5 -33t34.5 -86t-37.5 -89t-100.5 -36q-52 0 -90 29t-45 70zM415 675q-131 0 -222 -93t-91 -228 q0 -133 91 -226.5t222 -93.5t222 93.5t91 226.5q0 135 -91 228t-222 93zM415 722q151 0 258 -108t107 -260q0 -151 -107 -259t-258 -108t-258 108t-107 259q0 152 107 260t258 108z"/>
<glyph glyph-name="uni2785" horiz-adv-x="830" unicode="➅" d="M313 292q0 -36 26 -58.5t61 -22.5q36 0 61.5 22.5t25.5 58.5t-25.5 58.5t-61.5 22.5q-35 0 -61 -22.5t-26 -58.5zM526 524l-13 -40q-29 16 -69 16q-62 0 -98.5 -40t-41.5 -104q11 25 41 42.5t65 17.5q56 0 92.5 -34t36.5 -90q0 -55 -40.5 -90t-99.5 -35 q-63 0 -104.5 44.5t-41.5 123.5q0 97 53.5 152.5t134.5 55.5q53 0 85 -19zM415 675q-131 0 -222 -93t-91 -228q0 -133 91 -226.5t222 -93.5t222 93.5t91 226.5q0 135 -91 228t-222 93zM415 722q151 0 258 -108t107 -260q0 -151 -107 -259t-258 -108t-258 108t-107 259 q0 152 107 260t258 108z"/>
<glyph glyph-name="uni2786" horiz-adv-x="830" unicode="➆" d="M553 536v-47q-144 -117 -166 -316h-54q20 195 155 319h-220v44h285zM415 675q-131 0 -222 -93t-91 -228q0 -133 91 -226.5t222 -93.5t222 93.5t91 226.5q0 135 -91 228t-222 93zM415 722q151 0 258 -108t107 -260q0 -151 -107 -259t-258 -108t-258 108t-107 259 q0 152 107 260t258 108z"/>
<glyph glyph-name="uni2787" horiz-adv-x="830" unicode="➇" d="M415 167q-64 0 -101 29.5t-37 74.5q0 31 20.5 55t53.5 34q-28 10 -45.5 32.5t-17.5 50.5q0 44 35 72t92 28q56 0 91.5 -28t35.5 -72q0 -28 -17.5 -50.5t-46.5 -32.5q34 -10 54 -34t20 -55q0 -45 -36.5 -74.5t-100.5 -29.5zM415 211q40 0 62.5 18t22.5 46q0 29 -22.5 47 t-62.5 18t-63 -18t-23 -47q0 -28 23 -46t63 -18zM415 381q34 0 55 16.5t21 43.5t-20.5 44t-55.5 17t-55.5 -17t-20.5 -44t21 -43.5t55 -16.5zM415 675q-131 0 -222 -93t-91 -228q0 -133 91 -226.5t222 -93.5t222 93.5t91 226.5q0 135 -91 228t-222 93zM415 722 q151 0 258 -108t107 -260q0 -151 -107 -259t-258 -108t-258 108t-107 259q0 152 107 260t258 108z"/>
<glyph glyph-name="uni2788" horiz-adv-x="830" unicode="➈" d="M504 419q0 36 -25 58t-61 22t-60.5 -22t-24.5 -58t24.5 -58t60.5 -22t61 22t25 58zM293 188l13 40q33 -18 73 -18q60 0 96.5 38t38.5 109q-11 -27 -40 -44t-64 -17q-55 0 -92 34t-37 89q0 53 40.5 88.5t98.5 35.5q62 0 103.5 -44t41.5 -122q0 -97 -48 -154t-136 -57 q-52 0 -88 22zM415 675q-131 0 -222 -93t-91 -228q0 -133 91 -226.5t222 -93.5t222 93.5t91 226.5q0 135 -91 228t-222 93zM415 722q151 0 258 -108t107 -260q0 -151 -107 -259t-258 -108t-258 108t-107 259q0 152 107 260t258 108z"/>
<glyph glyph-name="uniE000" horiz-adv-x="769" unicode="" d="M197 -13l-164 194h137v528h565v-53h-511v-475h137z"/>
<glyph glyph-name="uniE002" horiz-adv-x="955" unicode="" d="M606 355l159 191l159 -191h-129q0 -152 -108 -259.5t-260 -107.5t-259.5 107.5t-107.5 259.5t107.5 259.5t259.5 107.5q96 0 181 -48l-23 -47q-74 42 -158 42q-130 0 -221.5 -92t-91.5 -222q0 -131 91.5 -223t221.5 -92t222 92t92 223h-135z"/>
<glyph glyph-name="commaaccent" horiz-adv-x="189" unicode="" d="M47 649q0 18 13.5 30t32.5 12q20 0 35.5 -15t15.5 -44q0 -48 -29 -76.5t-70 -30.5v30q25 2 43 18.5t20 39.5q-6 -6 -19 -6q-18 0 -30 11.5t-12 30.5z"/>
<glyph glyph-name="uniFB00" horiz-adv-x="624" unicode="ﬀ" d="M606 477v-54h-133v-423h-60v423h-238v-423h-60v423h-98v54h98v99q0 73 40 113.5t102 40.5q32 0 54 -10v-54q-18 8 -45 8q-40 0 -65.5 -24t-25.5 -77v-96h238v99q0 73 40 113.5t102 40.5q32 0 54 -10v-54q-18 8 -45 8q-40 0 -65.5 -24t-25.5 -77v-96h133z"/>
<glyph glyph-name="fi" horiz-adv-x="555" unicode="ﬁ" d="M415 423h-240v-423h-60v423h-98v54h98v99q0 73 40 113.5t102 40.5q32 0 54 -10v-54q-18 8 -45 8q-40 0 -65.5 -24t-25.5 -77v-96h300v-477h-60v423zM395 675q0 22 14.5 36t35.5 14t35.5 -14t14.5 -36t-14.5 -36t-35.5 -14t-35.5 14t-14.5 36z"/>
<glyph glyph-name="fl" horiz-adv-x="555" unicode="ﬂ" d="M415 477v245h60v-722h-60v423h-240v-423h-60v423h-98v54h98v99q0 73 40 113.5t102 40.5q32 0 54 -10v-54q-18 8 -45 8q-40 0 -65.5 -24t-25.5 -77v-96h240z"/>
<glyph glyph-name="uniFB03" horiz-adv-x="853" unicode="ﬃ" d="M693 675q0 22 14.5 36t35.5 14t35.5 -14t14.5 -36t-14.5 -36t-35.5 -14t-35.5 14t-14.5 36zM773 477v-477h-60v423h-240v-423h-60v423h-238v-423h-60v423h-98v54h98v99q0 73 40 113.5t102 40.5q32 0 54 -10v-54q-18 8 -45 8q-40 0 -65.5 -24t-25.5 -77v-96h238v99 q0 73 40 113.5t102 40.5q32 0 54 -10v-54q-18 8 -45 8q-40 0 -65.5 -24t-25.5 -77v-96h300z"/>
<glyph glyph-name="uniFB04" horiz-adv-x="853" unicode="ﬄ" d="M473 573v-96h240v245h60v-722h-60v423h-240v-423h-60v423h-238v-423h-60v423h-98v54h98v99q0 73 40 113.5t102 40.5q32 0 54 -10v-54q-18 8 -45 8q-40 0 -65.5 -24t-25.5 -77v-96h238v99q0 73 40 113.5t102 40.5q32 0 54 -10v-54q-18 8 -45 8q-40 0 -65.5 -24t-25.5 -77z "/>
<glyph glyph-name="uniFEFF" horiz-adv-x="0" unicode="﻿"/>
<glyph glyph-name="i.latn_TRK" d="M60 675q0 22 14.5 36t35.5 14t35.5 -14t14.5 -36t-14.5 -36t-35.5 -14t-35.5 14t-14.5 36zM140 0h-60v477h60v-477z" horiz-adv-x="220"/>
<glyph glyph-name="Ldot.latn_CAT" d="M299 373q0 22 15 37.5t37 15.5t37.5 -15.5t15.5 -37.5t-15.5 -37t-37.5 -15t-37 15t-15 37zM523 0h-422v709h64v-651h358v-58z" horiz-adv-x="549"/>
<glyph glyph-name="ldot.latn_CAT" d="M197 324q0 20 13.5 33.5t33.5 13.5t33.5 -13.5t13.5 -33.5t-13.5 -33.5t-33.5 -13.5t-33.5 13.5t-13.5 33.5zM140 0h-60v722h60v-722z" horiz-adv-x="277"/>
<glyph glyph-name="zero.dnom" d="M42 181q0 83 36 134q40 54 112 54t112 -54q36 -49 36 -134q0 -86 -36 -134q-40 -54 -112 -54t-112 54q-36 49 -36 134zM94 181q0 -38 7.5 -68t30 -53t58.5 -23t58.5 23t30 53t7.5 68t-7.5 67.5t-30 52.5t-58.5 23t-58.5 -23t-30 -52.5t-7.5 -67.5z" horiz-adv-x="380"/>
<glyph glyph-name="one.dnom" d="M165 0h-51v286q-31 -32 -87 -37v39q36 5 60 26t29 49h49v-363z" horiz-adv-x="218"/>
<glyph glyph-name="two.dnom" d="M94 228l-50 3q-2 14 -2 24q0 48 35 81t93 33q56 0 90.5 -32t34.5 -78q0 -63 -72 -108l-74 -46q-41 -27 -46 -61h196v-44h-258v5q0 88 78 135l69 42q55 34 55 78q0 27 -20.5 46.5t-53.5 19.5q-34 0 -55.5 -20.5t-21.5 -54.5q0 -7 2 -23z" horiz-adv-x="340"/>
<glyph glyph-name="three.dnom" d="M148 176l-22 39l114 104h-195v44h262v-42l-116 -104q1 0 4.5 0.5t4.5 0.5q48 -2 81.5 -29.5t33.5 -77.5t-38.5 -84t-99.5 -34q-59 0 -97.5 30t-44.5 76l46 17q3 -36 30.5 -58t64.5 -22t62 21.5t25 53.5q0 34 -24 52t-59 18q-17 0 -32 -5z" horiz-adv-x="356"/>
<glyph glyph-name="four.dnom" d="M218 127v179l-140 -179h140zM28 82v51l180 230h61v-236h71v-45h-71v-82h-51v82h-190z" horiz-adv-x="368"/>
<glyph glyph-name="five.dnom" d="M31 92l45 20q5 -33 30 -54t60 -21q38 0 62 22.5t24 57.5q0 36 -24 57.5t-61 21.5q-46 0 -78 -34l-45 16l49 185h196v-44h-162l-30 -113q31 31 83 31q55 0 89.5 -33t34.5 -86t-37.5 -89t-100.5 -36q-52 0 -90 29t-45 70z" horiz-adv-x="342"/>
<glyph glyph-name="six.dnom" d="M101 118q0 -36 26 -58.5t61 -22.5q36 0 61.5 22.5t25.5 58.5t-25.5 58.5t-61.5 22.5q-35 0 -61 -22.5t-26 -58.5zM314 350l-13 -40q-29 16 -69 16q-62 0 -98.5 -40t-41.5 -104q11 25 41 42.5t65 17.5q56 0 92.5 -34t36.5 -90q0 -55 -40.5 -90t-99.5 -35 q-63 0 -104.5 44.5t-41.5 123.5q0 97 53.5 152.5t134.5 55.5q53 0 85 -19z" horiz-adv-x="364"/>
<glyph glyph-name="seven.dnom" d="M310 363v-47q-144 -117 -166 -316h-54q20 195 155 319h-220v44h285z" horiz-adv-x="330"/>
<glyph glyph-name="eight.dnom" d="M179 -7q-64 0 -101 29.5t-37 74.5q0 31 20.5 55t53.5 34q-28 10 -45.5 32.5t-17.5 50.5q0 44 35 72t92 28q56 0 91.5 -28t35.5 -72q0 -28 -17.5 -50.5t-46.5 -32.5q34 -10 54 -34t20 -55q0 -45 -36.5 -74.5t-100.5 -29.5zM179 37q40 0 62.5 18t22.5 46q0 29 -22.5 47 t-62.5 18t-63 -18t-23 -47q0 -28 23 -46t63 -18zM179 207q34 0 55 16.5t21 43.5t-20.5 44t-55.5 17t-55.5 -17t-20.5 -44t21 -43.5t55 -16.5z" horiz-adv-x="357"/>
<glyph glyph-name="nine.dnom" d="M260 246q0 36 -25 58t-61 22t-60.5 -22t-24.5 -58t24.5 -58t60.5 -22t61 22t25 58zM49 15l13 40q33 -18 73 -18q60 0 96.5 38t38.5 109q-11 -27 -40 -44t-64 -17q-55 0 -92 34t-37 89q0 53 40.5 88.5t98.5 35.5q62 0 103.5 -44t41.5 -122q0 -97 -48 -154t-136 -57 q-52 0 -88 22z" horiz-adv-x="362"/>
<glyph glyph-name="space.frac" horiz-adv-x="51"/>
<glyph glyph-name="space.tf"/>
<glyph glyph-name="comma.tf" d="M227 48q0 21 15.5 35.5t38.5 14.5q25 0 42 -18.5t17 -52.5q0 -70 -35 -116t-84 -58v37q33 10 53.5 42.5t21.5 68.5q-5 -5 -19 -5q-21 0 -35.5 14.5t-14.5 37.5z"/>
<glyph glyph-name="period.tf" d="M230 48q0 22 15 37.5t37 15.5t37.5 -15.5t15.5 -37.5t-15.5 -37t-37.5 -15t-37 15t-15 37z"/>
<glyph glyph-name="colon.tf" d="M230 48q0 22 15 37.5t37 15.5t37.5 -15.5t15.5 -37.5t-15.5 -37t-37.5 -15t-37 15t-15 37zM230 428q0 22 15 37.5t37 15.5t37.5 -15.5t15.5 -37.5t-15.5 -37t-37.5 -15t-37 15t-15 37z"/>
<glyph glyph-name="semicolon.tf" d="M229 48q0 21 15.5 35.5t38.5 14.5q25 0 42 -18.5t17 -52.5q0 -70 -35 -116t-84 -58v37q33 10 53.5 42.5t21.5 68.5q-5 -5 -19 -5q-21 0 -35.5 14.5t-14.5 37.5zM228 428q0 22 15 37.5t37 15.5t37.5 -15.5t15.5 -37.5t-15.5 -37t-37.5 -15t-37 15t-15 37z"/>
<glyph glyph-name="section.tf" d="M237 192l98 -54q29 10 49.5 36t20.5 58q0 61 -77 103l-99 52q-29 -11 -49 -36.5t-20 -57.5q0 -60 77 -101zM101 284q0 43 25 77t62 48q-89 55 -89 146q0 74 54.5 120.5t129.5 46.5q84 0 134 -49.5t52 -128.5l-58 -13q-1 64 -35 102t-94 38q-51 0 -87.5 -30.5t-36.5 -80.5 q0 -68 76 -108l105 -57q62 -33 93.5 -66.5t31.5 -87.5q0 -43 -25.5 -75.5t-64.5 -49.5q94 -56 94 -146q0 -73 -55 -120t-133 -47q-85 0 -134.5 49t-52.5 130l56 12q2 -63 37.5 -101.5t95.5 -38.5q55 0 90.5 30t35.5 80q0 69 -77 111l-105 56q-63 33 -94 66.5t-31 86.5z"/>
<glyph glyph-name="florin.tf" d="M156 11l82 412h-117v54h128l23 113q14 69 56 104t98 35q37 0 64 -9v-54q-23 7 -52 7q-86 0 -108 -103l-19 -93h133v-54h-143l-86 -432q-14 -69 -56 -104t-98 -35q-38 0 -65 9v54q32 -7 53 -7q86 0 107 103z"/>
<glyph glyph-name="uni2007.tf"/>
<glyph glyph-name="uni2008.tf"/>
<glyph glyph-name="parenleft.case" d="M54 352q0 251 179 439l36 -32q-163 -179 -163 -407t163 -407l-36 -32q-179 188 -179 439z" horiz-adv-x="299"/>
<glyph glyph-name="parenright.case" d="M245 352q0 -251 -179 -439l-36 32q162 178 162 407t-162 407l36 32q179 -188 179 -439z" horiz-adv-x="300"/>
<glyph glyph-name="hyphen.case" d="M335 310h-263v54h263v-54z" horiz-adv-x="407"/>
<glyph glyph-name="bracketleft.case" d="M233 -62h-154v856h154v-50h-100v-757h100v-49z" horiz-adv-x="276"/>
<glyph glyph-name="bracketright.case" d="M197 -62h-154v49h100v757h-100v50h154v-856z" horiz-adv-x="276"/>
<glyph glyph-name="braceleft.case" d="M31 337v56q47 5 77.5 32t30.5 76v137q0 155 147 155h9v-48h-9q-52 0 -73.5 -24.5t-21.5 -78.5v-154q0 -48 -27 -80t-74 -43q46 -10 73.5 -42.5t27.5 -80.5v-153q0 -54 21.5 -78t73.5 -24h9v-49h-9q-147 0 -147 155v137q0 48 -30.5 75.5t-77.5 31.5z" horiz-adv-x="335"/>
<glyph glyph-name="braceright.case" d="M304 393v-56q-47 -4 -77.5 -31.5t-30.5 -75.5v-137q0 -155 -147 -155h-9v49h9q52 0 73.5 24t21.5 78v153q0 48 27.5 80.5t73.5 42.5q-47 11 -74 43t-27 80v154q0 54 -21.5 78.5t-73.5 24.5h-9v48h9q147 0 147 -155v-137q0 -49 30.5 -76t77.5 -32z" horiz-adv-x="335"/>
<glyph glyph-name="exclamdown.case" d="M120 713q21 0 35.5 -14.5t14.5 -34.5q0 -21 -14.5 -35.5t-35.5 -14.5t-35.5 14.5t-14.5 35.5q0 20 14.5 34.5t35.5 14.5zM80 0l17 520h41l18 -520h-76z" horiz-adv-x="237"/>
<glyph glyph-name="guillemotleft.case" d="M414 147h-60l-133 191l133 191h60l-132 -191zM248 147h-60l-133 191l133 191h60l-132 -191z" horiz-adv-x="480"/>
<glyph glyph-name="uni00AD.case" d="M331 317h-263v53h263v-53z" horiz-adv-x="399"/>
<glyph glyph-name="guillemotright.case" d="M126 147h-60l133 191l-133 191h60l133 -191zM292 147h-60l132 191l-132 191h60l133 -191z" horiz-adv-x="480"/>
<glyph glyph-name="questiondown.case" d="M254 713q21 0 35.5 -14.5t14.5 -34.5q0 -21 -14.5 -35.5t-35.5 -14.5t-35.5 14.5t-14.5 35.5q0 20 14.5 34.5t35.5 14.5zM227 520h55q3 -10 3 -38q0 -92 -72 -147l-44 -34q-69 -53 -69 -123q0 -56 37.5 -95.5t103.5 -39.5q71 0 109.5 43t38.5 104q0 25 -8 54l61 -9 q8 -23 8 -51q0 -78 -54.5 -137.5t-154.5 -59.5q-93 0 -148.5 56.5t-55.5 133.5q0 97 100 172l45 33q47 34 47 106q0 14 -2 32z" horiz-adv-x="487"/>
<glyph glyph-name="endash.case" d="M572 310h-500v54h500v-54z" horiz-adv-x="644"/>
<glyph glyph-name="emdash.case" d="M991 310h-919v54h919v-54z" horiz-adv-x="1063"/>
<glyph glyph-name="guilsinglleft.case" d="M248 147h-60l-133 191l133 191h60l-132 -191z" horiz-adv-x="314"/>
<glyph glyph-name="guilsinglright.case" d="M126 147h-60l132 191l-132 191h60l133 -191z" horiz-adv-x="314"/>
<glyph glyph-name="G.ss01" d="M401 -13q-90 0 -168 42t-129.5 128t-51.5 198q0 85 30 155.5t79 116t111 70.5t128 25q114 0 196 -59.5t111 -159.5l-58 -21q-26 87 -91 134.5t-158 47.5q-116 0 -200 -82.5t-84 -226.5t84 -227t201 -84q105 0 173 62t81 158h-297v56h362v-22q-8 -135 -95 -223t-224 -88z " horiz-adv-x="765"/>
<glyph glyph-name="Gcircumflex.ss01" d="M305 759h-59l115 119h82l116 -119h-59l-98 84zM401 -13q-90 0 -168 42t-129.5 128t-51.5 198q0 85 30 155.5t79 116t111 70.5t128 25q114 0 196 -59.5t111 -159.5l-58 -21q-26 87 -91 134.5t-158 47.5q-116 0 -200 -82.5t-84 -226.5t84 -227t201 -84q105 0 173 62t81 158 h-297v56h362v-22q-8 -135 -95 -223t-224 -88z" horiz-adv-x="765"/>
<glyph glyph-name="Gbreve.ss01" d="M401 754q-64 0 -102.5 37t-42.5 89h52q3 -32 27 -55t66 -23q43 0 66 23t26 55h52q-3 -52 -41.5 -89t-102.5 -37zM401 -13q-90 0 -168 42t-129.5 128t-51.5 198q0 85 30 155.5t79 116t111 70.5t128 25q114 0 196 -59.5t111 -159.5l-58 -21q-26 87 -91 134.5t-158 47.5 q-116 0 -200 -82.5t-84 -226.5t84 -227t201 -84q105 0 173 62t81 158h-297v56h362v-22q-8 -135 -95 -223t-224 -88z" horiz-adv-x="765"/>
<glyph glyph-name="Gdotaccent.ss01" d="M354 818q0 20 14 33.5t33 13.5t33 -13.5t14 -33.5t-14 -33.5t-33 -13.5t-33 13.5t-14 33.5zM401 -13q-90 0 -168 42t-129.5 128t-51.5 198q0 85 30 155.5t79 116t111 70.5t128 25q114 0 196 -59.5t111 -159.5l-58 -21q-26 87 -91 134.5t-158 47.5q-116 0 -200 -82.5 t-84 -226.5t84 -227t201 -84q105 0 173 62t81 158h-297v56h362v-22q-8 -135 -95 -223t-224 -88z" horiz-adv-x="765"/>
<glyph glyph-name="Gcommaaccent.ss01" d="M361 -84q0 18 13.5 30t32.5 12q20 0 35.5 -15t15.5 -44q0 -48 -29 -76.5t-70 -30.5v30q25 2 43 18.5t20 39.5q-6 -6 -19 -6q-18 0 -30 11.5t-12 30.5zM401 -13q-90 0 -168 42t-129.5 128t-51.5 198q0 85 30 155.5t79 116t111 70.5t128 25q114 0 196 -59.5t111 -159.5 l-58 -21q-26 87 -91 134.5t-158 47.5q-116 0 -200 -82.5t-84 -226.5t84 -227t201 -84q105 0 173 62t81 158h-297v56h362v-22q-8 -135 -95 -223t-224 -88z" horiz-adv-x="765"/>
<glyph glyph-name="a.ss02" d="M434 75v19q-19 -43 -61 -74.5t-106 -31.5q-99 0 -159.5 71.5t-60.5 180.5q0 107 61 178t159 71q68 0 108.5 -31t57.5 -71v90h60v-386q0 -66 5 -91h-59q-5 30 -5 75zM108 240q0 -86 45 -142.5t119 -56.5q73 0 117.5 56.5t44.5 142.5q0 85 -44.5 140.5t-116.5 55.5 q-74 0 -119.5 -55t-45.5 -141z" horiz-adv-x="574"/>
<glyph glyph-name="agrave.ss02" d="M261 537l-118 139h76l89 -139h-47zM434 75v19q-19 -43 -61 -74.5t-106 -31.5q-99 0 -159.5 71.5t-60.5 180.5q0 107 61 178t159 71q68 0 108.5 -31t57.5 -71v90h60v-386q0 -66 5 -91h-59q-5 30 -5 75zM108 240q0 -86 45 -142.5t119 -56.5q73 0 117.5 56.5t44.5 142.5 q0 85 -44.5 140.5t-116.5 55.5q-74 0 -119.5 -55t-45.5 -141z" horiz-adv-x="574"/>
<glyph glyph-name="aacute.ss02" d="M434 75v19q-19 -43 -61 -74.5t-106 -31.5q-99 0 -159.5 71.5t-60.5 180.5q0 107 61 178t159 71q68 0 108.5 -31t57.5 -71v90h60v-386q0 -66 5 -91h-59q-5 30 -5 75zM108 240q0 -86 45 -142.5t119 -56.5q73 0 117.5 56.5t44.5 142.5q0 85 -44.5 140.5t-116.5 55.5 q-74 0 -119.5 -55t-45.5 -141zM403 676l-118 -139h-49l89 139h78z" horiz-adv-x="574"/>
<glyph glyph-name="acircumflex.ss02" d="M434 75v19q-19 -43 -61 -74.5t-106 -31.5q-99 0 -159.5 71.5t-60.5 180.5q0 107 61 178t159 71q68 0 108.5 -31t57.5 -71v90h60v-386q0 -66 5 -91h-59q-5 30 -5 75zM108 240q0 -86 45 -142.5t119 -56.5q73 0 117.5 56.5t44.5 142.5q0 85 -44.5 140.5t-116.5 55.5 q-74 0 -119.5 -55t-45.5 -141zM187 538h-54l110 137h72l110 -137h-54l-92 99z" horiz-adv-x="574"/>
<glyph glyph-name="atilde.ss02" d="M428 659v-11q0 -45 -24 -71t-59 -26q-33 0 -65 23l-21 15q-29 20 -49 20q-38 0 -38 -55h-47v12q0 44 24 69.5t61 25.5q35 0 71 -27l18 -13q25 -18 44 -18q38 0 38 56h47zM434 75v19q-19 -43 -61 -74.5t-106 -31.5q-99 0 -159.5 71.5t-60.5 180.5q0 107 61 178t159 71 q68 0 108.5 -31t57.5 -71v90h60v-386q0 -66 5 -91h-59q-5 30 -5 75zM108 240q0 -86 45 -142.5t119 -56.5q73 0 117.5 56.5t44.5 142.5q0 85 -44.5 140.5t-116.5 55.5q-74 0 -119.5 -55t-45.5 -141z" horiz-adv-x="574"/>
<glyph glyph-name="adieresis.ss02" d="M434 75v19q-19 -43 -61 -74.5t-106 -31.5q-99 0 -159.5 71.5t-60.5 180.5q0 107 61 178t159 71q68 0 108.5 -31t57.5 -71v90h60v-386q0 -66 5 -91h-59q-5 30 -5 75zM108 240q0 -86 45 -142.5t119 -56.5q73 0 117.5 56.5t44.5 142.5q0 85 -44.5 140.5t-116.5 55.5 q-74 0 -119.5 -55t-45.5 -141zM152 611q0 17 12.5 29.5t29.5 12.5t29.5 -12.5t12.5 -29.5t-12.5 -29.5t-29.5 -12.5t-29.5 12.5t-12.5 29.5zM328 611q0 17 12.5 29.5t29.5 12.5t29.5 -12.5t12.5 -29.5t-12.5 -29.5t-29.5 -12.5t-29.5 12.5t-12.5 29.5z" horiz-adv-x="574"/>
<glyph glyph-name="aring.ss02" d="M434 75v19q-19 -43 -61 -74.5t-106 -31.5q-99 0 -159.5 71.5t-60.5 180.5q0 107 61 178t159 71q68 0 108.5 -31t57.5 -71v90h60v-386q0 -66 5 -91h-59q-5 30 -5 75zM108 240q0 -86 45 -142.5t119 -56.5q73 0 117.5 56.5t44.5 142.5q0 85 -44.5 140.5t-116.5 55.5 q-74 0 -119.5 -55t-45.5 -141zM336 635q0 26 -17.5 44.5t-43.5 18.5t-43.5 -18.5t-17.5 -44.5t17.5 -44.5t43.5 -18.5t43.5 18.5t17.5 44.5zM380 635q0 -43 -31 -74t-74 -31t-74 31t-31 74t31 74t74 31t74 -31t31 -74z" horiz-adv-x="574"/>
<glyph glyph-name="amacron.ss02" d="M397 583h-254v50h254v-50zM434 75v19q-19 -43 -61 -74.5t-106 -31.5q-99 0 -159.5 71.5t-60.5 180.5q0 107 61 178t159 71q68 0 108.5 -31t57.5 -71v90h60v-386q0 -66 5 -91h-59q-5 30 -5 75zM108 240q0 -86 45 -142.5t119 -56.5q73 0 117.5 56.5t44.5 142.5 q0 85 -44.5 140.5t-116.5 55.5q-74 0 -119.5 -55t-45.5 -141z" horiz-adv-x="574"/>
<glyph glyph-name="abreve.ss02" d="M274 538q-64 0 -101.5 41.5t-38.5 96.5h47q2 -36 25.5 -62.5t67.5 -26.5t67.5 26.5t25.5 62.5h47q-1 -55 -38.5 -96.5t-101.5 -41.5zM434 75v19q-19 -43 -61 -74.5t-106 -31.5q-99 0 -159.5 71.5t-60.5 180.5q0 107 61 178t159 71q68 0 108.5 -31t57.5 -71v90h60v-386 q0 -66 5 -91h-59q-5 30 -5 75zM108 240q0 -86 45 -142.5t119 -56.5q73 0 117.5 56.5t44.5 142.5q0 85 -44.5 140.5t-116.5 55.5q-74 0 -119.5 -55t-45.5 -141z" horiz-adv-x="574"/>
<glyph glyph-name="aogonek.ss02" d="M108 240q0 -86 45 -142.5t119 -56.5q73 0 117.5 56.5t44.5 142.5q0 85 -44.5 140.5t-116.5 55.5q-74 0 -119.5 -55t-45.5 -141zM364 -117q0 70 74 118q-4 24 -4 74v19q-19 -43 -61 -74.5t-106 -31.5q-99 0 -159.5 71.5t-60.5 180.5q0 107 61 178t159 71q68 0 108.5 -31 t57.5 -71v90h60v-386q0 -66 5 -91q-83 -43 -83 -106q0 -27 18 -42t45 -15q19 0 34 5v-44q-19 -8 -45 -8q-44 0 -73.5 25t-29.5 68z" horiz-adv-x="574"/>
<glyph glyph-name="aringacute.ss02" d="M434 75v19q-19 -43 -61 -74.5t-106 -31.5q-99 0 -159.5 71.5t-60.5 180.5q0 107 61 178t159 71q68 0 108.5 -31t57.5 -71v90h60v-386q0 -66 5 -91h-59q-5 30 -5 75zM108 240q0 -86 45 -142.5t119 -56.5q73 0 117.5 56.5t44.5 142.5q0 85 -44.5 140.5t-116.5 55.5 q-74 0 -119.5 -55t-45.5 -141zM334 631q0 26 -17.5 44.5t-43.5 18.5t-43.5 -18.5t-17.5 -44.5t17.5 -44.5t43.5 -18.5t43.5 18.5t17.5 44.5zM378 631q0 -43 -31 -74t-74 -31t-74 31t-31 74t31 74t74 31t74 -31t31 -74zM416 908l-118 -139h-49l89 139h78z" horiz-adv-x="574"/>
<glyph glyph-name="r.ss03" d="M140 0h-60v477h60v-38q2 20 16 32t34 12q21 0 35.5 -14t14.5 -36t-14.5 -36t-35.5 -14q-20 0 -34 12t-16 31v-426z" horiz-adv-x="260"/>
<glyph glyph-name="racute.ss03" d="M267 676l-118 -139h-49l89 139h78zM140 0h-60v477h60v-38q2 20 16 32t34 12q21 0 35.5 -14t14.5 -36t-14.5 -36t-35.5 -14q-20 0 -34 12t-16 31v-426z" horiz-adv-x="260"/>
<glyph glyph-name="rcommaaccent.ss03" d="M62 -84q0 18 13.5 30t32.5 12q20 0 35.5 -15t15.5 -44q0 -48 -29 -76.5t-70 -30.5v30q25 2 43 18.5t20 39.5q-6 -6 -19 -6q-18 0 -30 11.5t-12 30.5zM140 0h-60v477h60v-38q2 20 16 32t34 12q21 0 35.5 -14t14.5 -36t-14.5 -36t-35.5 -14q-20 0 -34 12t-16 31v-426z" horiz-adv-x="260"/>
<glyph glyph-name="rcaron.ss03" d="M12 675h54l92 -99l92 99h54l-110 -137h-72zM140 0h-60v477h60v-38q2 20 16 32t34 12q21 0 35.5 -14t14.5 -36t-14.5 -36t-35.5 -14q-20 0 -34 12t-16 31v-426z" horiz-adv-x="260"/>
<glyph glyph-name="ampersand.ss04" d="M378 258v58h253v-58h-84v-26q0 -105 -69 -175t-180 -70q-106 0 -175 59t-69 148q0 69 41.5 120t109.5 71q-55 16 -86 58.5t-31 99.5q0 73 57.5 126t138.5 53q100 0 155 -51t64 -136l-61 -12q-7 68 -45.5 106t-108.5 38q-56 0 -97 -36.5t-41 -89.5q0 -56 40 -91t108 -36 v-56q-77 -2 -129 -45t-52 -116q0 -65 50 -109.5t131 -44.5q82 0 134.5 53t52.5 136v26h-107z" horiz-adv-x="663"/>
<glyph glyph-name="registered.ss06" d="M234 374q64 0 107 44.5t43 108.5q0 65 -43 109.5t-107 44.5t-107 -44.5t-43 -109.5q0 -64 43 -108.5t107 -44.5zM268 431l-37 71h-25v-71h-36v196h72q29 0 48 -18t19 -44q0 -20 -12 -36t-31 -22l42 -76h-40zM206 532h30q36 0 36 33q0 32 -36 32h-30v-65zM49 528 q0 77 54 131.5t131 54.5t131 -54.5t54 -131.5t-54 -131.5t-131 -54.5t-131 54.5t-54 131.5z" horiz-adv-x="468"/>
<glyph glyph-name="zero.numr" d="M41 527q0 83 36 134q40 54 112 54t112 -54q36 -49 36 -134q0 -86 -36 -134q-40 -54 -112 -54t-112 54q-36 49 -36 134zM93 527q0 -38 7.5 -68t30 -53t58.5 -23t58.5 23t30 53t7.5 68t-7.5 67.5t-30 52.5t-58.5 23t-58.5 -23t-30 -52.5t-7.5 -67.5z" horiz-adv-x="378"/>
<glyph glyph-name="one.numr" d="M165 346h-51v286q-31 -32 -87 -37v39q36 5 60 26t29 49h49v-363z" horiz-adv-x="217"/>
<glyph glyph-name="two.numr" d="M93 575l-50 3q-2 14 -2 24q0 48 35 81t93 33q56 0 90.5 -32t34.5 -78q0 -63 -72 -108l-74 -46q-41 -27 -46 -61h196v-44h-258v5q0 88 78 135l69 42q55 34 55 78q0 27 -20.5 46.5t-53.5 19.5q-34 0 -55.5 -20.5t-21.5 -54.5q0 -7 2 -23z" horiz-adv-x="337"/>
<glyph glyph-name="three.numr" d="M148 522l-22 39l114 104h-195v44h262v-42l-116 -104q1 0 4.5 0.5t4.5 0.5q48 -2 81.5 -29.5t33.5 -77.5t-38.5 -84t-99.5 -34q-59 0 -97.5 30t-44.5 76l46 17q3 -36 30.5 -58t64.5 -22t62 21.5t25 53.5q0 34 -24 52t-59 18q-17 0 -32 -5z" horiz-adv-x="355"/>
<glyph glyph-name="four.numr" d="M218 473v179l-140 -179h140zM28 428v51l180 230h61v-236h71v-45h-71v-82h-51v82h-190z" horiz-adv-x="369"/>
<glyph glyph-name="five.numr" d="M31 438l45 20q5 -33 30 -54t60 -21q38 0 62 22.5t24 57.5q0 36 -24 57.5t-61 21.5q-46 0 -78 -34l-45 16l49 185h196v-44h-162l-30 -113q31 31 83 31q55 0 89.5 -33t34.5 -86t-37.5 -89t-100.5 -36q-52 0 -90 29t-45 70z" horiz-adv-x="341"/>
<glyph glyph-name="six.numr" d="M100 464q0 -36 26 -58.5t61 -22.5q36 0 61.5 22.5t25.5 58.5t-25.5 58.5t-61.5 22.5q-35 0 -61 -22.5t-26 -58.5zM313 696l-13 -40q-29 16 -69 16q-62 0 -98.5 -40t-41.5 -104q11 25 41 42.5t65 17.5q56 0 92.5 -34t36.5 -90q0 -55 -40.5 -90t-99.5 -35 q-63 0 -104.5 44.5t-41.5 123.5q0 97 53.5 152.5t134.5 55.5q53 0 85 -19z" horiz-adv-x="362"/>
<glyph glyph-name="seven.numr" d="M309 709v-47q-144 -117 -166 -316h-54q20 195 155 319h-220v44h285z" horiz-adv-x="329"/>
<glyph glyph-name="eight.numr" d="M178 340q-64 0 -101 29.5t-37 74.5q0 31 20.5 55t53.5 34q-28 10 -45.5 32.5t-17.5 50.5q0 44 35 72t92 28q56 0 91.5 -28t35.5 -72q0 -28 -17.5 -50.5t-46.5 -32.5q34 -10 54 -34t20 -55q0 -45 -36.5 -74.5t-100.5 -29.5zM178 384q40 0 62.5 18t22.5 46q0 29 -22.5 47 t-62.5 18t-63 -18t-23 -47q0 -28 23 -46t63 -18zM178 554q34 0 55 16.5t21 43.5t-20.5 44t-55.5 17t-55.5 -17t-20.5 -44t21 -43.5t55 -16.5z" horiz-adv-x="355"/>
<glyph glyph-name="nine.numr" d="M259 592q0 36 -25 58t-61 22t-60.5 -22t-24.5 -58t24.5 -58t60.5 -22t61 22t25 58zM48 361l13 40q33 -18 73 -18q60 0 96.5 38t38.5 109q-11 -27 -40 -44t-64 -17q-55 0 -92 34t-37 89q0 53 40.5 88.5t98.5 35.5q62 0 103.5 -44t41.5 -122q0 -97 -48 -154t-136 -57 q-52 0 -88 22z" horiz-adv-x="360"/>
<glyph glyph-name="a.ordn" d="M158 407q50 0 77 31.5t27 87.5v23q-5 -7 -40 -12l-74 -12q-59 -10 -59 -60q0 -24 18 -41t51 -17zM38 463q0 41 27 66.5t72 31.5l93 14q32 5 32 31q0 31 -21.5 51t-60.5 20q-38 0 -61.5 -21t-28.5 -56l-46 12q5 47 42.5 77.5t92.5 30.5q67 0 100 -33.5t33 -86.5v-169 q0 -35 4 -57h-49q-4 20 -4 53q-13 -26 -42.5 -44t-69.5 -18q-52 0 -82.5 28.5t-30.5 69.5z" horiz-adv-x="370"/>
<glyph glyph-name="b.ordn" d="M332 544q0 59 -30.5 95t-79.5 36t-80 -36.5t-31 -94.5q0 -59 31 -96.5t80 -37.5t79.5 37.5t30.5 96.5zM111 374h-49v509h50v-232q12 28 43 48.5t75 20.5q72 0 113 -49.5t41 -126.5t-42.5 -128t-113.5 -51q-81 0 -117 72v-63z" horiz-adv-x="423"/>
<glyph glyph-name="c.ordn" d="M205 674q-49 0 -82.5 -36t-33.5 -95q0 -60 33 -96t83 -36q43 0 69 23t36 55l44 -18q-13 -44 -52 -75t-97 -31q-72 0 -119.5 50t-47.5 128q0 77 47.5 127t119.5 50q59 0 97 -30.5t50 -76.5l-45 -19q-23 80 -102 80z" horiz-adv-x="387"/>
<glyph glyph-name="d.ordn" d="M359 883v-445q0 -40 4 -64h-49q-4 20 -4 54v8q-13 -29 -42.5 -50t-71.5 -21q-71 0 -114 51t-43 128q0 75 43.5 125t112.5 50q47 0 75.5 -20t38.5 -46v230h50zM90 544q0 -58 30.5 -96t79.5 -38q50 0 80 37.5t30 96.5q0 58 -30 94t-80 36q-49 0 -79.5 -36t-30.5 -94z" horiz-adv-x="421"/>
<glyph glyph-name="e.ordn" d="M310 485l44 -14q-15 -47 -54.5 -76.5t-94.5 -29.5q-70 0 -118 48.5t-48 130.5q0 77 46.5 126.5t111.5 49.5q74 0 116.5 -47t42.5 -124q0 -9 -2 -17h-264v-2q0 -53 34 -87t81 -34q79 0 105 76zM92 571h211q0 45 -28 75t-77 30q-44 0 -73.5 -30.5t-32.5 -74.5z" horiz-adv-x="393"/>
<glyph glyph-name="f.ordn" d="M229 665h-90v-293h-51v293h-67v45h67v62q0 53 28.5 82t76.5 29q25 0 39 -7v-43q-13 5 -32 5q-26 0 -43.5 -16.5t-17.5 -51.5v-60h90v-45z" horiz-adv-x="246"/>
<glyph glyph-name="g.ordn" d="M197 435q47 0 76.5 33.5t29.5 86.5q0 52 -29.5 85.5t-76.5 33.5q-48 0 -77.5 -33.5t-29.5 -85.5q0 -53 29.5 -86.5t77.5 -33.5zM39 356l48 12q5 -40 33 -66.5t70 -26.5q110 0 110 125v55q-27 -63 -110 -63q-66 0 -108.5 46t-42.5 117q0 69 42.5 116.5t108.5 47.5 q84 0 111 -65v57h49v-310q0 -72 -36.5 -121t-122.5 -49q-62 0 -103.5 35.5t-48.5 89.5z" horiz-adv-x="412"/>
<glyph glyph-name="h.ordn" d="M112 577v-203h-50v509h50v-221q33 58 105 58q58 0 89.5 -36t31.5 -92v-218h-51v209q0 41 -21.5 66t-64.5 25q-39 0 -63 -28t-26 -69z" horiz-adv-x="396"/>
<glyph glyph-name="i.ordn" d="M49 846q0 17 11 28t27 11t27 -11.5t11 -27.5t-11 -27t-27 -11t-27 11t-11 27zM112 374h-50v337h50v-337z" horiz-adv-x="174"/>
<glyph glyph-name="j.ordn" d="M49 847q0 17 10.5 27.5t27.5 10.5q16 0 27 -11t11 -27t-11 -27t-27 -11q-17 0 -27.5 10.5t-10.5 27.5zM62 334v377h50v-380q0 -46 -25 -73t-67 -27q-22 0 -40 6v43q12 -4 29 -4q53 0 53 58z" horiz-adv-x="174"/>
<glyph glyph-name="k.ordn" d="M347 711l-141 -140l147 -197h-63l-119 162l-59 -60v-102h-50v509h50v-339l166 167h69z" horiz-adv-x="361"/>
<glyph glyph-name="l.ordn" d="M112 374h-50v509h50v-509z" horiz-adv-x="174"/>
<glyph glyph-name="m.ordn" d="M62 374v276v34l-1 27h47q0 -1 1 -23t1 -31q13 27 42 45t65 18q37 0 65.5 -20t39.5 -54q15 35 45 54.5t69 19.5q51 0 84.5 -33.5t33.5 -90.5v-222h-50v214q0 38 -21.5 62.5t-61.5 24.5q-38 0 -63 -28.5t-25 -67.5v-205h-50v214q0 38 -21.5 62.5t-60.5 24.5t-64 -28 t-25 -69v-204h-50z" horiz-adv-x="612"/>
<glyph glyph-name="n.ordn" d="M112 575v-201h-50v280q0 8 -1 31t-1 26h49q0 -1 1 -22t1 -32q14 28 42.5 45.5t64.5 17.5q58 0 89 -36t31 -92v-218h-50v210q0 40 -22 65t-65 25q-40 0 -64 -28.5t-25 -70.5z" horiz-adv-x="396"/>
<glyph glyph-name="o.ordn" d="M207 720q72 0 120.5 -49.5t48.5 -127.5q0 -79 -48 -128.5t-121 -49.5q-72 0 -120 49.5t-48 128.5q0 78 48 127.5t120 49.5zM207 410q50 0 84 36t34 97t-34.5 96.5t-83.5 35.5t-83.5 -35.5t-34.5 -96.5t34 -97t84 -36z" horiz-adv-x="415"/>
<glyph glyph-name="p.ordn" d="M333 543q0 57 -31 94t-80 37t-80 -37t-31 -94q0 -58 31 -95.5t80 -37.5t80 37.5t31 95.5zM112 240h-50v471h49v-63q14 29 44.5 50t74.5 21q70 0 111.5 -50t41.5 -126q0 -77 -42.5 -127.5t-112.5 -50.5q-42 0 -72 20t-44 47v-192z" horiz-adv-x="422"/>
<glyph glyph-name="q.ordn" d="M89 544q0 -58 31 -96t80 -38t80 37.5t31 96.5q0 56 -31 93t-80 37t-80 -36.5t-31 -93.5zM360 240h-50v193q-15 -28 -44.5 -48t-71.5 -20q-69 0 -112 51t-43 128q0 75 42 125t112 50q45 0 75 -21t42 -50v63h50v-471z" horiz-adv-x="422"/>
<glyph glyph-name="r.ordn" d="M240 713v-54q-18 4 -30 4q-44 0 -70.5 -28t-26.5 -84v-177h-51v337h48q1 -10 1 -61q28 65 103 65q12 0 26 -2z" horiz-adv-x="257"/>
<glyph glyph-name="s.ordn" d="M35 465l45 14q4 -32 26.5 -52t60.5 -20q31 0 51 15.5t20 39.5q0 43 -54 54l-55 11q-39 8 -61.5 32.5t-22.5 59.5q0 42 34 71.5t82 29.5q56 0 85.5 -27t37.5 -64l-44 -15q-5 27 -24.5 45.5t-54.5 18.5q-28 0 -47.5 -16t-19.5 -40q0 -39 49 -50l54 -11q43 -9 66.5 -33.5 t23.5 -61.5q0 -42 -32 -71.5t-88 -29.5q-60 0 -93.5 30t-38.5 70z" horiz-adv-x="325"/>
<glyph glyph-name="t.ordn" d="M138 820v-109h85v-45h-85v-193q0 -58 55 -58q13 0 30 5v-43q-12 -7 -44 -7q-42 0 -66.5 25t-24.5 71v200h-69v45h24q49 0 49 50v59h46z" horiz-adv-x="251"/>
<glyph glyph-name="u.ordn" d="M289 424q-13 -26 -41 -42.5t-64 -16.5q-61 0 -93.5 38.5t-32.5 95.5v212h50v-204q0 -42 21.5 -69.5t65.5 -27.5q41 0 65.5 27.5t24.5 68.5v205h51v-274q0 -43 4 -63h-48q-3 18 -3 50z" horiz-adv-x="398"/>
<glyph glyph-name="v.ordn" d="M332 711l-134 -337h-51l-136 337h56l106 -278l105 278h54z" horiz-adv-x="344"/>
<glyph glyph-name="w.ordn" d="M254 711h53l97 -274l84 274h53l-110 -337h-54l-97 277l-96 -277h-55l-111 337h54l86 -274z" horiz-adv-x="560"/>
<glyph glyph-name="x.ordn" d="M16 374l128 171l-123 166h60l93 -129l93 129h59l-122 -165q7 -11 64 -87.5t64 -84.5h-60l-99 135q-1 -2 -48.5 -67.5t-49.5 -67.5h-59z" horiz-adv-x="347"/>
<glyph glyph-name="y.ordn" d="M123 237h-54l83 180l-144 294h57l115 -241l106 241h54z" horiz-adv-x="348"/>
<glyph glyph-name="z.ordn" d="M307 374h-270v44l203 248h-200v45h263v-44l-204 -249h208v-44z" horiz-adv-x="343"/>
<glyph glyph-name="numbersign.tf" d="M276 0l45 210h-148l-46 -210h-56l45 210h-101v50h112l43 198h-103v50h114l43 201h57l-43 -201h148l43 201h57l-43 -201h109v-50h-120l-44 -198h106v-50h-116l-45 -210h-57zM332 260l43 198h-148l-44 -198h149z"/>
<glyph glyph-name="dollar.tf" d="M313 -113h-50v114q-96 7 -154 66t-67 139l55 17q6 -65 50 -112.5t116 -56.5v279l-41 10q-154 38 -154 175q0 76 56.5 129.5t138.5 60.5v115h50v-116q81 -7 130 -53.5t64 -114.5l-54 -18q-11 53 -46 88.5t-94 43.5v-271l32 -7q81 -18 126 -65t45 -119q0 -76 -56 -130 t-147 -61v-113zM334 316l-21 5v-267q66 6 104 43t38 90q0 101 -121 129zM234 400l29 -7v261q-57 -6 -96.5 -42.5t-39.5 -88.5q0 -97 107 -123z"/>
<glyph glyph-name="percent.tf" d="M270 126q0 56 39 94.5t95 38.5t95 -38.5t39 -94.5t-39 -94.5t-95 -38.5t-95 38.5t-39 94.5zM319 126q0 -37 24.5 -61.5t60.5 -24.5q37 0 61 24.5t24 61.5t-24 61.5t-61 24.5q-36 0 -60.5 -24.5t-24.5 -61.5zM21 581q0 55 39 94t95 39t95.5 -39t39.5 -94q0 -57 -39 -95.5 t-96 -38.5q-56 0 -95 38.5t-39 95.5zM70 581q0 -37 24.5 -61.5t60.5 -24.5q37 0 61.5 24.5t24.5 61.5t-24.5 61t-61.5 24q-36 0 -60.5 -24t-24.5 -61zM527 553v-59l-482 -328v58z"/>
<glyph glyph-name="plus.tf" d="M308 580v-207h195v-50h-195v-210h-53v210h-193v50h193v207h53z"/>
<glyph glyph-name="zero.tf" d="M476 354q0 63 -9.5 116t-31 98t-60.5 71t-93 26t-93 -25.5t-60 -71t-30.5 -98.5t-9.5 -116q0 -86 16 -151.5t61 -112t116 -46.5q54 0 93 25.5t60.5 71t31 98t9.5 115.5zM26 354q0 152 51 246q66 121 205 121t205 -121q51 -94 51 -246q0 -153 -51 -245q-65 -121 -205 -121 t-205 121q-51 95 -51 245z"/>
<glyph glyph-name="one.tf" d="M76 56h198v540q-14 -30 -67.5 -59t-111.5 -33v53q71 6 119.5 49t62.5 103h58v-653h184v-56h-443v56z"/>
<glyph glyph-name="two.tf" d="M514 0h-462q4 164 141 253l136 89q115 76 115 172q0 65 -42.5 108.5t-115.5 43.5q-78 0 -124.5 -47.5t-46.5 -126.5q0 -18 3 -37l-60 5q-4 20 -4 40q0 94 62.5 157.5t167.5 63.5q102 0 162 -58.5t60 -146.5q0 -122 -135 -212l-147 -96q-38 -25 -65 -64.5t-33 -85.5h388 v-58z"/>
<glyph glyph-name="three.tf" d="M525 209q0 -93 -69 -157t-174 -64q-107 0 -174 62t-72 158l60 13q3 -79 56 -128.5t130 -49.5q78 0 129 46.5t51 119.5q0 75 -47 120t-126 45q-34 0 -68 -12l-28 47l236 243h-376v57h453v-56l-231 -236q18 6 37 6q89 -2 151 -59.5t62 -154.5z"/>
<glyph glyph-name="four.tf" d="M360 230v416l-287 -416h287zM15 174v71l322 464h84v-479h127v-56h-127v-174h-61v174h-345z"/>
<glyph glyph-name="five.tf" d="M39 194l56 15q8 -71 57.5 -118.5t124.5 -47.5q81 0 131 51t50 128q0 82 -50 131.5t-130 49.5q-101 0 -159 -79l-60 23l75 362h357v-57h-314l-53 -264q29 34 74.5 51.5t91.5 17.5q104 0 167 -64t63 -170q0 -100 -67 -167.5t-176 -67.5q-99 0 -164.5 59t-73.5 147z"/>
<glyph glyph-name="six.tf" d="M110 225q0 -79 53.5 -131t128.5 -52q76 0 129.5 51.5t53.5 131.5q0 83 -51 134t-128 51q-78 0 -132 -53.5t-54 -131.5zM308 464q99 0 164 -66.5t65 -172.5q0 -102 -71.5 -169.5t-172.5 -67.5q-117 0 -189.5 87t-72.5 238q0 101 27.5 180.5t75 128.5t109 74t132.5 25 q91 0 151 -40l-19 -52q-59 36 -135 36q-70 0 -124 -27t-87.5 -75t-51 -109t-19.5 -133v-13q15 64 72.5 110t145.5 46z"/>
<glyph glyph-name="seven.tf" d="M540 709v-59q-276 -259 -317 -650h-64q39 394 310 652h-430v57h501z"/>
<glyph glyph-name="eight.tf" d="M283 388q73 0 117.5 39.5t44.5 101.5q0 61 -43.5 100t-118.5 39t-118.5 -39t-43.5 -100q0 -62 44.5 -101.5t117.5 -39.5zM283 -12q-109 0 -173 55.5t-64 140.5q0 65 41 114t108 65q-60 15 -97.5 62t-37.5 107q0 82 62 135.5t161 53.5t161 -53.5t62 -135.5 q0 -60 -37.5 -107t-98.5 -62q68 -16 109 -65t41 -114q0 -85 -64 -140.5t-173 -55.5zM283 337q-83 0 -129.5 -42t-46.5 -106t47.5 -106t128.5 -42t128.5 42t47.5 106t-46.5 106t-129.5 42z"/>
<glyph glyph-name="nine.tf" d="M446 488q0 77 -51.5 127.5t-125.5 50.5q-76 0 -126 -49t-50 -129q0 -83 50 -131.5t127 -48.5q78 0 127 48.5t49 131.5zM33 484q0 104 67 170.5t170 66.5q121 0 189 -89t68 -253q0 -194 -77 -292.5t-213 -98.5q-62 0 -115.5 22t-78.5 53l32 49q57 -69 163 -69 q109 0 168.5 80t60.5 234q0 19 -1 33q-17 -62 -72 -99t-128 -37q-97 0 -165 62.5t-68 167.5z"/>
<glyph glyph-name="less.tf" d="M120 348l343 -174v-61l-402 207v55l402 207v-60z"/>
<glyph glyph-name="equal.tf" d="M506 226h-447v51h447v-51zM506 420h-447v50h447v-50z"/>
<glyph glyph-name="greater.tf" d="M102 174l344 174l-344 174v60l402 -207v-55l-402 -207v61z"/>
<glyph glyph-name="cent.tf" d="M123 348q0 -80 41 -132t107 -62v388q-65 -10 -106.5 -62.5t-41.5 -131.5zM322 98v-98h-51v99q-91 9 -149 77.5t-58 171.5q0 102 58 171t149 79v111h51v-111q71 -6 118.5 -47t63.5 -103l-53 -21q-12 44 -44 76.5t-85 39.5v-390q52 7 86 40t48 76l51 -20 q-17 -59 -65.5 -102t-119.5 -49z"/>
<glyph glyph-name="sterling.tf" d="M532 181q-5 -82 -52 -131.5t-125 -49.5h-311v56q49 31 81.5 81t32.5 112q0 25 -9 61h-95v53h79q-43 96 -43 156q0 88 57.5 145t151.5 57q89 0 140 -51.5t57 -128.5l-57 -13q-4 61 -41 99.5t-100 38.5t-104.5 -40.5t-41.5 -108.5q0 -21 5 -43t10 -36t15.5 -38.5 t14.5 -36.5h192v-53h-177q7 -32 7 -59q0 -121 -98 -196h224q58 0 91.5 36.5t38.5 97.5z"/>
<glyph glyph-name="currency.tf" d="M126 348q0 -68 46.5 -114.5t112.5 -46.5q67 0 113 46.5t46 114.5q0 69 -46 115t-113 46t-113 -46.5t-46 -114.5zM481 106l-70 71q-54 -42 -126 -42q-74 0 -131 46l-72 -75l-38 38l73 75q-45 56 -45 129q0 75 47 132l-74 77l39 37l73 -76q57 43 128 43t123 -40l72 73 l38 -37l-70 -73q51 -59 51 -136q0 -79 -49 -134l69 -70z"/>
<glyph glyph-name="yen.tf" d="M504 175h-191v-175h-62v175h-189v50h189v84h-189v50h160l-207 350h71l198 -339l197 339h67l-206 -350h162v-50h-191v-84h191v-50z"/>
<glyph glyph-name="logicalnot.tf" d="M494 218h-55v201h-385v53h440v-254z"/>
<glyph glyph-name="plusminus.tf" d="M497 125h-430v51h430v-51zM497 384h-189v-145h-53v145h-188v50h188v145h53v-145h189v-50z"/>
<glyph glyph-name="multiply.tf" d="M105 569l178 -184l177 184l36 -36l-179 -185l180 -186l-36 -37l-179 186l-178 -185l-36 36l178 186l-177 184z"/>
<glyph glyph-name="divide.tf" d="M503 322h-441v53h441v-53zM235 525q0 20 14 34t34 14t33.5 -14t13.5 -34t-14 -34t-33 -14q-20 0 -34 14t-14 34zM235 170q0 20 14 33.5t34 13.5q19 0 33 -13.5t14 -33.5t-14 -34t-33 -14q-20 0 -34 14t-14 34z"/>
<glyph glyph-name="perthousand.tf" d="M119 104q0 48 33.5 81.5t81.5 33.5q61 0 93 -49q32 49 93 49q48 0 82 -33.5t34 -81.5t-34 -81t-82 -33q-61 0 -93 49q-32 -49 -93 -49q-48 0 -81.5 33t-33.5 81zM349 104q0 -30 20.5 -50t50.5 -20t50 20t20 50q0 31 -20 51t-50 20t-50.5 -20t-20.5 -51zM164 104 q0 -30 20.5 -50t49.5 -20q30 0 50.5 20t20.5 50q0 31 -20.5 51t-50.5 20t-50 -20.5t-20 -50.5zM63 599q0 -31 20.5 -51t49.5 -20q30 0 50 20t20 51t-20 51t-50 20q-29 0 -49.5 -20t-20.5 -51zM18 599q0 48 33.5 81.5t81.5 33.5t82 -33.5t34 -81.5t-34 -81.5t-82 -33.5 t-81.5 33.5t-33.5 81.5zM524 646v-60l-482 -371v58z"/>
<glyph glyph-name="Euro.tf" d="M539 9q-57 -20 -117 -20q-121 0 -205 72t-110 191h-90v49h83q-3 22 -3 46q0 19 4 55h-84v49h92q29 123 118 196t208 73q59 0 114 -19l-17 -52q-47 15 -97 15q-97 0 -167 -58t-96 -155h296l-14 -49h-292q-4 -36 -4 -56q0 -22 3 -45h265l-14 -49h-243q23 -97 91.5 -152.5 t163.5 -55.5q57 0 101 16z"/>
<glyph glyph-name="minus.tf" d="M493 323h-421v50h421v-50z"/>
<glyph glyph-name="approxequal.tf" d="M487 479l33 -30q-52 -72 -131 -72q-42 0 -97 29l-47 25q-35 20 -69 20q-56 0 -96 -49l-34 31q52 74 129 74q38 0 96 -30l46 -24q41 -23 77 -23q54 0 93 49zM487 285l33 -29q-53 -73 -131 -73q-43 0 -97 30l-47 25q-38 20 -69 20q-56 0 -96 -49l-34 30q52 74 129 74 q40 0 96 -29l46 -25q42 -22 77 -22q54 0 93 48z"/>
<glyph glyph-name="notequal.tf" d="M504 226h-277l-85 -110h-62l85 110h-107v51h145l110 143h-255v50h292l83 107h62l-83 -107h92v-50h-129l-110 -143h239v-51z"/>
<glyph glyph-name="lessequal.tf" d="M480 125h-404v51h404v-51zM480 234l-404 147v53l404 147v-54l-336 -120l336 -118v-55z"/>
<glyph glyph-name="greaterequal.tf" d="M489 125h-404v51h404v-51zM85 234v55l336 118l-336 120v54l404 -147v-53z"/>
<glyph glyph-name="one.ss05" d="M472 0h-418v56h185v540q-14 -30 -66.5 -59t-110.5 -33v53q69 7 117.5 49.5t62.5 102.5h59v-653h171v-56z" horiz-adv-x="492"/>
<glyph glyph-name="florin.ss09" d="M69 11l82 412h-117v54h128l23 113q14 69 56 104t98 35q37 0 64 -9v-54q-23 7 -52 7q-86 0 -108 -103l-19 -93h133v-54h-143l-86 -432q-14 -69 -56 -104t-98 -35q-38 0 -65 9v54q32 -7 53 -7q86 0 107 103z" horiz-adv-x="393"/>
<glyph glyph-name="daggerdbl.ss09" d="M51 212h136v285h-136v51h136v161h53v-161h135v-51h-135v-285h135v-51h-135v-161h-53v161h-136v51z" horiz-adv-x="426"/>
<glyph glyph-name="caron.alt" d="M149 709l-58 -176h-46l36 176h68z" horiz-adv-x="194"/>
<glyph glyph-name="commaturn" d="M142 573q0 -18 -13.5 -30t-32.5 -12q-20 0 -35.5 15t-15.5 44q0 48 29 76.5t70 30.5v-30q-25 -2 -43 -18.5t-20 -39.5q6 6 19 6q18 0 30 -11.5t12 -30.5z" horiz-adv-x="189"/>
<glyph glyph-name="dieresis.narrow" d="M171 610q0 16 11.5 28t28.5 12t28.5 -12t11.5 -28t-11.5 -28t-28.5 -12t-28.5 12t-11.5 28zM45 610q0 16 11.5 28t28.5 12t28.5 -12t11.5 -28t-11.5 -28t-28.5 -12t-28.5 12t-11.5 28z" horiz-adv-x="296"/>
<glyph glyph-name="dieresis.uc.narrow" d="M178 819q0 17 12 28.5t28 11.5t28 -11.5t12 -28.5t-12 -28.5t-28 -11.5t-28 11.5t-12 28.5zM45 819q0 17 11.5 28.5t28.5 11.5t28.5 -11.5t11.5 -28.5t-11.5 -28.5t-28.5 -11.5t-28.5 11.5t-11.5 28.5z" horiz-adv-x="303"/>
<glyph glyph-name="grave.uc" d="M179 759l-134 119h84l107 -119h-57z" horiz-adv-x="281"/>
<glyph glyph-name="dieresis.uc" d="M249 819q0 18 12.5 30.5t30.5 12.5t30.5 -12.5t12.5 -30.5t-12.5 -30.5t-30.5 -12.5t-30.5 12.5t-12.5 30.5zM45 819q0 18 12.5 30.5t30.5 12.5t30.5 -12.5t12.5 -30.5t-12.5 -30.5t-30.5 -12.5t-30.5 12.5t-12.5 30.5z" horiz-adv-x="380"/>
<glyph glyph-name="macron.uc" d="M317 793h-272v52h272v-52z" horiz-adv-x="362"/>
<glyph glyph-name="acute.uc" d="M236 878l-134 -119h-57l107 119h84z" horiz-adv-x="281"/>
<glyph glyph-name="circumflex.uc" d="M98 759h-59l115 119h82l116 -119h-59l-98 84z" horiz-adv-x="390"/>
<glyph glyph-name="caron.uc" d="M39 878h59l97 -84l98 84h59l-116 -119h-82z" horiz-adv-x="390"/>
<glyph glyph-name="breve.uc" d="M190 754q-64 0 -102.5 37t-42.5 89h52q3 -32 27 -55t66 -23q43 0 66 23t26 55h52q-3 -52 -41.5 -89t-102.5 -37z" horiz-adv-x="379"/>
<glyph glyph-name="dotaccent.uc" d="M45 818q0 20 13.5 33.5t33.5 13.5t33.5 -13.5t13.5 -33.5t-13.5 -33.5t-33.5 -13.5t-33.5 13.5t-13.5 33.5z" horiz-adv-x="184"/>
<glyph glyph-name="ring.uc" d="M146 745q-42 0 -71.5 29t-29.5 71q0 43 29.5 72.5t71.5 29.5t71.5 -29.5t29.5 -72.5q0 -42 -29.5 -71t-71.5 -29zM146 788q24 0 40 16.5t16 40.5q0 25 -16 42t-40 17t-40 -17t-16 -42q0 -24 16 -40.5t40 -16.5z" horiz-adv-x="292"/>
<glyph glyph-name="tilde.uc" d="M352 871v-11q0 -45 -24 -71t-60 -26q-34 0 -66 23l-21 15q-29 20 -50 20q-39 0 -39 -55h-47v12q0 44 24.5 69.5t61.5 25.5q36 0 72 -27l18 -13q25 -18 45 -18q39 0 39 56h47z" horiz-adv-x="397"/>
<glyph glyph-name="hungarumlaut.uc" d="M187 878l-97 -119h-45l74 119h68zM302 878l-97 -119h-45l74 119h68z" horiz-adv-x="347"/>
<glyph glyph-name="caron.alt.uc" d="M150 709l-62 -186h-47l38 186h71z" horiz-adv-x="188"/>
<glyph glyph-name="undercommaaccent" d="M47 -84q0 18 13.5 30t32.5 12q20 0 35.5 -15t15.5 -44q0 -48 -29 -76.5t-70 -30.5v30q25 2 43 18.5t20 39.5q-6 -6 -19 -6q-18 0 -30 11.5t-12 30.5z" horiz-adv-x="189"/>
</font>
</defs>
</svg>
