<?xml version="1.0" standalone="no"?>
<!DOCTYPE svg PUBLIC "-//W3C//DTD SVG 1.1//EN" "http://www.w3.org/Graphics/SVG/1.1/DTD/svg11.dtd" >
<svg>
<metadata>
Created by FontForge 20120731 at Tue Dec 15 21:06:17 2015
 By ,,,
Copyright (c) 2008 Linotype GmbH, www.linotype.com. All rights reserved. This font software may not be reproduced, modified, disclosed or transferred without the express written approval of Linotype GmbH. Aptifer is a trademark of Linotype GmbH and may be registered in certain jurisdictions. This typeface is original artwork of Marten Thavenius. The design may be protected in certain jurisdictions.
</metadata>
<defs>
<font id="AptiferSlabLTPro-Black" horiz-adv-x="385" >
  <font-face 
    font-family="Aptifer Slab LT Pro Black"
    font-weight="900"
    font-stretch="normal"
    units-per-em="1000"
    panose-1="2 4 10 3 3 4 3 2 2 4"
    ascent="750"
    descent="-250"
    x-height="505"
    cap-height="680"
    bbox="-105 -249 1435 964"
    underline-thickness="50"
    underline-position="-50"
    unicode-range="U+000D-FB04"
  />
<missing-glyph horiz-adv-x="500" 
d="M210 174v-63h53v63h-53zM211 238v-16h46v28q0 32 7.5 47t38.5 43q35 32 47.5 56.5t12.5 56.5q0 56 -33 90t-85 34q-54 0 -88 -32t-40 -98l48 -8q10 90 77 90q30 0 51 -23.5t21 -56.5q0 -37 -46 -80q-34 -30 -45.5 -55.5t-11.5 -75.5zM438 47h-391v585h391v-585zM0 680
v-680h485v680h-485z" />
    <glyph glyph-name="f_b" unicode="fb" horiz-adv-x="1010" 
d="M39 365v140h65v51q0 80 65.5 128t176.5 48q95 0 166 -38l91 26h70v-263h2q48 60 108 60q203 0 203 -266q0 -126 -58.5 -194.5t-155.5 -68.5q-31 0 -64.5 15t-47.5 36h-2l-5 -39h-165v569q-45 25 -110 25q-40 0 -64.5 -17t-24.5 -49v-23h124v-140h-124v-234l93 -14v-117
h-361v117l83 14v234h-65zM796 251q0 62 -15.5 87.5t-56.5 25.5q-17 0 -30.5 -15.5t-20.5 -33.5v-142q19 -33 47 -33q76 0 76 111z" />
    <glyph glyph-name="f_f_b" unicode="ffb" horiz-adv-x="1394" 
d="M352 720q99 0 189 -48q63 60 190 60q40 0 85.5 -9.5t70.5 -22.5l100 20h70v-263h2q50 60 108 60q203 0 203 -266q0 -126 -58.5 -194.5t-155.5 -68.5q-31 0 -64 14t-48 35h-2l-5 -37h-165v569q-42 25 -110 25q-43 0 -66 -19t-23 -47v-23h124v-140h-124v-234l93 -14v-117
h-341v117l63 14v234h-199v-234l79 -14v-117h-347v117l83 14v234h-65v140h65v29q0 82 73.5 134t174.5 52zM1180 251q0 62 -15.5 87.5t-56.5 25.5q-17 0 -30.5 -15.5t-20.5 -33.5v-142q19 -33 47 -33q76 0 76 111zM289 505h199v27q0 14 3 26q-47 29 -105 29q-97 0 -97 -76v-6z
" />
    <glyph glyph-name="f_f_h" unicode="ffh" horiz-adv-x="1445" 
d="M1126 369q-44 0 -69 -49v-189l64 -14v-117h-312v117l63 14v438q-40 25 -112 25q-36 0 -61.5 -17.5t-25.5 -48.5v-23h124v-140h-124v-234l79 -14v-117h-327v117l63 14v234h-199v-234l79 -14v-117h-347v118l83 13v234h-65v140h65v29q0 82 73.5 134t174.5 52q96 0 190 -49
q65 61 189 61q38 0 84.5 -9.5t71.5 -22.5l100 20h70v-280h2q21 38 58 57.5t79 19.5q72 0 113 -43.5t41 -120.5v-222l83 -14v-117h-268v317q0 52 -39 52zM289 505h199v17q0 25 3 36q-44 29 -106 29q-96 0 -96 -76v-6z" />
    <glyph glyph-name="f_f_j" unicode="ffj" horiz-adv-x="1104" 
d="M352 720q95 0 189 -48q63 60 207 60q125 0 234 -60l-52 -118q-88 37 -166 37q-91 0 -91 -58v-28h384v-432q0 -85 -11 -121t-62 -91l-85 -102l-128 123l70 77q21 23 26 39t5 56v311h-199v-234l93 -14v-117h-341v117l63 14v234h-199v-234l79 -14v-117h-347v117l83 14v234
h-65v140h65v29q0 82 73.5 134t174.5 52zM289 505h199v21q0 23 3 32q-42 29 -104 29q-98 0 -98 -76v-6z" />
    <glyph glyph-name="f_f_k" unicode="ffk" horiz-adv-x="1445" 
d="M1057 136v-5l65 -13v-118h-313v117l63 14v438q-47 25 -111 25q-37 0 -62.5 -18t-25.5 -48v-23h124v-140h-124v-234l79 -14v-117h-327v117l63 14v234h-199v-234l79 -14v-117h-347v117l83 14v234h-65v140h65v29q0 82 73.5 134t174.5 52q98 0 190 -49q61 61 189 61
q29 0 77.5 -8t78.5 -24l100 20h70v-422h2q4 9 84 89l-42 4v114h292v-114l-73 -15l-73 -71l105 -174l83 -14v-117h-208q-8 16 -31.5 60t-38 76.5t-23.5 64.5h-3zM488 517q0 27 3 41q-43 29 -105 29q-97 0 -97 -76v-6h199v12z" />
    <glyph glyph-name="f_f_t" unicode="fft" horiz-adv-x="1223" 
d="M21 0v117l83 14v234h-65v140h65v29q0 82 73.5 134t174.5 52q92 0 188 -47q54 59 140 59q92 0 176 -32l-36 -126q-40 17 -94 17q-18 0 -35.5 -12t-17.5 -40v-34h199v93l185 53v-146h124v-140h-124v-169q0 -27 11 -40t28 -13q30 0 84 17l41 -142q-76 -28 -172 -28
q-76 0 -126.5 36.5t-50.5 109.5v229h-199v-234l93 -14v-117h-341v117l63 14v234h-199v-234l79 -14v-117h-347zM488 530q0 14 3 28q-44 29 -104 29q-98 0 -98 -76v-6h199v25z" />
    <glyph glyph-name="f_h" unicode="fh" horiz-adv-x="1061" 
d="M39 365v140h65v52q0 82 68.5 128.5t173.5 46.5q42 0 90.5 -11.5t75.5 -26.5l90 26h71v-280h2q19 36 57 56.5t80 20.5q72 0 113 -43.5t41 -120.5v-222l83 -14v-117h-268v317q0 52 -39 52q-44 0 -69 -49v-189l64 -14v-117h-312v117l63 14v438q-48 25 -111 25
q-41 0 -64.5 -18t-23.5 -48v-23h124v-140h-124v-234l79 -14v-117h-347v117l83 14v234h-65z" />
    <glyph glyph-name="f_j" unicode="fj" horiz-adv-x="720" 
d="M39 365v140h65v57q0 88 72 129t185 41q54 0 123 -16t114 -43l-52 -119q-26 12 -76 24.5t-95 12.5q-40 0 -63 -15t-23 -43v-28h384v-432q0 -87 -10.5 -122t-62.5 -90l-95 -102l-118 123l70 77q21 23 26 39t5 56v311h-199v-234l93 -14v-117h-361v117l83 14v234h-65z" />
    <glyph glyph-name="f_k" unicode="fk" horiz-adv-x="1061" 
d="M1051 0h-207l-54 108q-27 56 -40 93h-3l-74 -65v-5l65 -12v-119h-313v117l63 14v438q-44 25 -111 25q-36 0 -62 -17t-26 -49v-23h124v-140h-124v-234l79 -14v-117h-347v117l83 14v234h-65v140h65v51q0 80 65.5 128t176.5 48q43 0 93 -12t73 -26l91 26h70v-423h2
q9 17 55 62l29 28l-42 4v114h292v-114l-73 -15l-73 -71l105 -174l83 -14v-117z" />
    <glyph glyph-name="f_f" unicode="ff" horiz-adv-x="811" 
d="M351 720q105 0 183 -40q55 52 143 52t169 -32l-36 -126q-44 17 -88 17q-19 0 -34 -12.5t-15 -39.5v-34h124v-140h-124v-234l93 -14v-117h-341v117l63 14v234h-199v-234l79 -14v-117h-347v117l83 14v234h-65v140h65v29q0 81 72 133.5t175 52.5zM289 505h199v16q0 26 3 37
q-41 29 -105 29q-48 0 -72.5 -18t-24.5 -61v-3z" />
    <glyph glyph-name="fi" unicode="fi" horiz-adv-x="770" 
d="M39 365v140h65v57q0 87 70 128.5t192 41.5q61 0 128 -17.5t104 -42.5l-52 -118q-89 37 -167 37q-90 0 -90 -58v-28h384v-374l83 -14v-117h-331v117l63 14v234h-199v-234l79 -14v-117h-347v117l83 14v234h-65z" />
    <glyph glyph-name="fl" unicode="fl" horiz-adv-x="770" 
d="M39 365v140h65v51q0 84 68 130t174 46q94 0 166 -38l91 26h70v-589l83 -14v-117h-331v117l63 14v438q-44 25 -111 25q-39 0 -63.5 -18t-24.5 -48v-23h124v-140h-124v-234l79 -14v-117h-347v117l83 14v234h-65z" />
    <glyph glyph-name="f_f_i" unicode="ffi" horiz-adv-x="1154" 
d="M289 365v-234l79 -14v-117h-347v117l83 14v234h-65v140h65v29q0 82 73.5 134t174.5 52q93 0 185 -45q67 57 213 57q57 0 122.5 -16.5t109.5 -43.5l-52 -118q-91 37 -167 37q-90 0 -90 -58v-28h384v-374l83 -14v-117h-331v117l63 14v234h-199v-234l79 -14v-117h-327v117
l63 14v234h-199zM289 505h199v11q0 30 3 42q-45 29 -105 29q-45 0 -71 -16.5t-26 -62.5v-3z" />
    <glyph glyph-name="f_f_l" unicode="ffl" horiz-adv-x="1154" 
d="M353 720q96 0 188 -48q64 60 190 60q36 0 84 -9.5t72 -22.5l100 20h70v-589l83 -14v-117h-331v117l63 14v438q-41 25 -111 25q-37 0 -62.5 -17t-25.5 -49v-23h124v-140h-124v-234l79 -14v-117h-327v117l63 14v234h-199v-234l79 -14v-117h-347v117l83 14v234h-65v140h65
v29q0 82 74 134t175 52zM289 505h199v28q0 16 3 25q-46 29 -105 29q-53 0 -75 -20t-22 -57v-5z" />
    <glyph glyph-name="ft" unicode="ft" horiz-adv-x="839" 
d="M837 18q-76 -28 -172 -28q-76 0 -126.5 36.5t-50.5 109.5v229h-199v-234l93 -14v-117h-361v117l83 14v234h-65v140h65v70q0 74 57.5 115.5t134.5 41.5q40 0 92.5 -9.5t83.5 -22.5l-36 -126q-46 17 -94 17q-21 0 -37 -13t-16 -39v-34h199v93l185 53v-146h124v-140h-124
v-169q0 -27 11 -40t28 -13q30 0 84 17z" />
    <glyph glyph-name=".notdef" horiz-adv-x="500" 
d="M210 174v-63h53v63h-53zM211 238v-16h46v28q0 32 7.5 47t38.5 43q35 32 47.5 56.5t12.5 56.5q0 56 -33 90t-85 34q-54 0 -88 -32t-40 -98l48 -8q10 90 77 90q30 0 51 -23.5t21 -56.5q0 -37 -46 -80q-34 -30 -45.5 -55.5t-11.5 -75.5zM438 47h-391v585h391v-585zM0 680
v-680h485v680h-485z" />
    <glyph glyph-name=".null" horiz-adv-x="0" 
 />
    <glyph glyph-name="nonmarkingreturn" horiz-adv-x="333" 
 />
    <glyph glyph-name="CR" unicode="&#xd;" horiz-adv-x="0" 
 />
    <glyph glyph-name="space" unicode=" " horiz-adv-x="225" 
 />
    <glyph glyph-name="exclam" unicode="!" horiz-adv-x="311" 
d="M58 680h194v-131l-31 -300h-132l-31 300v131zM49 97q0 45 31 77t75 32t75 -32t31 -77t-31 -77t-75 -32t-75 32t-31 77z" />
    <glyph glyph-name="quotedbl" unicode="&#x22;" horiz-adv-x="435" 
d="M59 426l-19 200v94h123v-94l-19 -200h-85zM291 426l-19 200v94h123v-94l-19 -200h-85z" />
    <glyph glyph-name="numbersign" unicode="#" horiz-adv-x="580" 
d="M62 398v113h93l20 146h116l-20 -146h88l20 146h116l-20 -146h76v-113h-93l-16 -124h76v-113h-94l-21 -161h-116l21 161h-88l-21 -161h-116l21 161h-75v113h93l16 124h-76zM254 398l-16 -124h88l16 124h-88z" />
    <glyph glyph-name="dollar" unicode="$" horiz-adv-x="580" 
d="M518 219q0 -78 -42.5 -128.5t-119.5 -68.5v-119h-128v112q-64 4 -170 36v190h135l13 -79q17 -7 57 -7q70 0 70 45q0 41 -66 60q-45 13 -76.5 27.5t-60.5 37.5t-44 57t-15 78q0 78 49 123.5t118 57.5v108h125v-103q50 -5 117 -26v-165h-132l-13 60q-7 3 -20 3
q-62 0 -62 -44q0 -19 17 -29.5t51 -20.5q197 -57 197 -205z" />
    <glyph glyph-name="percent" unicode="%" horiz-adv-x="890" 
d="M356 463q0 -204 -169 -204q-83 0 -125 52t-42 152q0 99 42 151.5t125 52.5t126 -52.5t43 -151.5zM227 463q0 100 -40 100q-38 0 -38 -100t38 -100q40 0 40 100zM643 669l-279 -681h-118l279 681h118zM870 194q0 -204 -169 -204q-83 0 -125 52t-42 152q0 99 42 151.5
t125 52.5t126 -52.5t43 -151.5zM741 194q0 100 -40 100q-38 0 -38 -100t38 -100q40 0 40 100z" />
    <glyph glyph-name="ampersand" unicode="&#x26;" horiz-adv-x="757" 
d="M690 0h-172q-2 3 -18.5 20t-22.5 24q-82 -56 -179 -56q-262 0 -262 198q0 55 46 111t113 81q-26 38 -36 54t-18.5 38.5t-8.5 44.5q0 78 65 127.5t149 49.5q97 0 159.5 -49t62.5 -133q0 -52 -43 -100t-105 -81q53 -61 83 -89q18 16 39.5 42t29.5 43h144v-116l-75 -15
q-7 -8 -23 -25t-22 -24q1 -3 3 -6t3 -5l88 -15v-119zM298 510q0 -47 35 -79q28 9 49.5 32t21.5 48q0 19 -16 31t-38 12q-21 0 -36.5 -12.5t-15.5 -31.5zM383 148q-75 91 -96 116q-28 -10 -50 -32.5t-22 -42.5q0 -25 20.5 -42.5t54.5 -17.5q73 0 93 19z" />
    <glyph glyph-name="quotesingle" unicode="'" horiz-adv-x="203" 
d="M59 426l-19 200v94h123v-94l-19 -200h-85z" />
    <glyph glyph-name="parenleft" unicode="(" horiz-adv-x="393" 
d="M94 272q0 129 46 248.5t119 208.5l114 -69q-63 -116 -92 -200t-29 -188t29 -188t92 -200l-114 -69q-73 89 -119 208.5t-46 248.5z" />
    <glyph glyph-name="parenright" unicode=")" horiz-adv-x="393" 
d="M299 272q0 -129 -46 -248.5t-119 -208.5l-114 69q63 116 92 200t29 188t-29 188t-92 200l114 69q73 -89 119 -208.5t46 -248.5z" />
    <glyph glyph-name="asterisk" unicode="*" horiz-adv-x="465" 
d="M24 501l38 117l45 -15l82 -48l2 2l-20 92v48h123v-48l-20 -92l2 -2l82 48l45 15l38 -117l-45 -15l-95 -10l-1 -2l71 -63l28 -38l-99 -73l-28 39l-39 86h-2l-38 -86l-28 -39l-99 73l28 38l71 63l-1 2l-95 10z" />
    <glyph glyph-name="plus" unicode="+" horiz-adv-x="580" 
d="M536 220h-185v-190h-123v190h-184v123h184v179h123v-179h185v-123z" />
    <glyph glyph-name="comma" unicode="," horiz-adv-x="300" 
d="M239 201q1 -8 1 -24q0 -76 -35 -164t-89 -142l-96 17q26 59 42.5 133.5t16.5 129.5q0 19 -1 28z" />
    <glyph glyph-name="hyphen" unicode="-" horiz-adv-x="343" 
d="M30 226v110h283v-110h-283z" />
    <glyph glyph-name="period" unicode="." horiz-adv-x="300" 
d="M44 97q0 45 31 77t75 32t75 -32t31 -77t-31 -77t-75 -32t-75 32t-31 77z" />
    <glyph glyph-name="slash" unicode="/" horiz-adv-x="391" 
d="M251 762h128l-239 -816h-128z" />
    <glyph glyph-name="zero" unicode="0" horiz-adv-x="580" 
d="M555 329q0 -341 -265 -341q-131 0 -198 86.5t-67 254.5q0 167 67 253.5t198 86.5t198 -86.5t67 -253.5zM356 329q0 91 -15 133t-51 42t-51 -42t-15 -133q0 -92 15 -134t51 -42q37 0 51.5 41.5t14.5 134.5z" />
    <glyph glyph-name="one" unicode="1" horiz-adv-x="580" 
d="M508 0h-385v117l98 14v352l-1 2l-105 -53l-49 120l184 105h165v-526l93 -14v-117z" />
    <glyph glyph-name="two" unicode="2" horiz-adv-x="580" 
d="M524 0h-473v81q0 144 70 218q23 24 72.5 53.5t81.5 55t32 52.5q0 23 -14 32.5t-57 9.5q-14 0 -22 -2l-15 -72h-132v201q94 38 219 38q106 0 163 -53.5t57 -152.5q0 -44 -13.5 -79.5t-40 -62t-46 -40t-50.5 -32.5q-5 -3 -21 -12.5t-23 -13.5t-20 -13t-19.5 -15t-13 -14.5
t-9.5 -16.5v-2h126l13 70h135v-230z" />
    <glyph glyph-name="three" unicode="3" horiz-adv-x="580" 
d="M507 230q0 -121 -90 -180.5t-238 -59.5q-56 0 -120 18l27 160q53 -13 89 -13q29 0 49.5 2.5t41.5 10.5t31.5 25t10.5 43q0 45 -66 45l-30 -3l-18 114q54 10 72 28t18 48q0 39 -50 39q-28 0 -32 -3l-16 -68h-132v171q50 32 92 46t104 14q223 0 223 -160q0 -51 -17 -87
t-45 -52v-2q96 -34 96 -136z" />
    <glyph glyph-name="four" unicode="4" horiz-adv-x="580" 
d="M555 164h-62v-38l83 -14v-112h-351v112l82 14v38h-296v126l223 367h209l-141 -229q-21 -35 -77 -105v-2h82v66h186v-66h62v-157z" />
    <glyph glyph-name="five" unicode="5" horiz-adv-x="580" 
d="M529 226q0 -28 -9 -58t-32 -62.5t-57.5 -57.5t-91.5 -41.5t-128 -16.5q-61 0 -92.5 4t-79.5 19l43 158q74 -16 126 -16q122 0 122 66q0 25 -14 39.5t-41 14.5q-30 0 -76 -29l-132 71l36 340h364v-160h-195l-10 -97h2q31 19 83 19q91 0 136.5 -53t45.5 -140z" />
    <glyph glyph-name="six" unicode="6" horiz-adv-x="580" 
d="M555 217q0 -102 -70 -165.5t-194 -63.5q-112 0 -187.5 71.5t-75.5 176.5q0 65 11 122t41.5 116t78 100.5t127 68t182.5 26.5v-156q-190 0 -229 -132h2q42 42 107 42q95 0 151 -55t56 -151zM356 217q0 31 -18 51t-42 20q-39 0 -63 -42q-6 -14 -6 -34q0 -32 17 -51.5
t47 -19.5t47.5 21.5t17.5 54.5z" />
    <glyph glyph-name="seven" unicode="7" horiz-adv-x="580" 
d="M525 511q-176 -235 -176 -511h-194q0 273 153 495v2h-110l-16 -75h-132v235h475v-146z" />
    <glyph glyph-name="eight" unicode="8" horiz-adv-x="580" 
d="M544 184q0 -88 -72.5 -142t-181.5 -54t-181.5 53t-72.5 142q0 61 40 103t90 59v2q-46 30 -71.5 62.5t-25.5 79.5q0 79 65 129.5t159 50.5q93 0 160 -48t67 -123q0 -92 -96 -150v-2q44 -19 82 -62t38 -100zM360 480q0 24 -19 37.5t-48 13.5q-22 0 -37.5 -15.5t-15.5 -39.5
q0 -44 70 -74q50 29 50 78zM357 189q0 25 -13.5 43.5t-27 26t-44.5 22.5q-52 -32 -52 -92q0 -22 19.5 -40.5t53.5 -18.5q28 0 46 19.5t18 39.5z" />
    <glyph glyph-name="nine" unicode="9" horiz-adv-x="580" 
d="M547 421q0 -69 -12 -128t-44 -117t-82.5 -98t-134 -65t-191.5 -25v156q105 0 169.5 31t85.5 105h-2q-44 -41 -105 -41q-97 0 -155 52.5t-58 147.5q0 102 68.5 166t192.5 64q119 0 193.5 -67t74.5 -181zM348 444q0 31 -19.5 52t-49.5 21q-29 0 -45.5 -20.5t-16.5 -52.5
q0 -30 20.5 -48.5t43.5 -18.5q39 0 58 37q9 16 9 30z" />
    <glyph glyph-name="colon" unicode=":" horiz-adv-x="300" 
d="M44 396q0 45 31 77t75 32t75 -32t31 -77t-31 -77t-75 -32t-75 32t-31 77zM44 97q0 45 31 77t75 32t75 -32t31 -77t-31 -77t-75 -32t-75 32t-31 77z" />
    <glyph glyph-name="semicolon" unicode=";" horiz-adv-x="310" 
d="M249 199q1 -8 1 -24q0 -76 -35 -163t-89 -141l-96 17q25 58 42 133t17 131q0 19 -1 28zM57 396q0 45 31 77t75 32t75 -32t31 -77t-31 -77t-75 -32t-75 32t-31 77z" />
    <glyph glyph-name="less" unicode="&#x3c;" horiz-adv-x="580" 
d="M526 0l-472 220v123l472 220v-131l-341 -149v-2l341 -150v-131z" />
    <glyph glyph-name="equal" unicode="=" horiz-adv-x="580" 
d="M44 110v123h492v-123h-492zM44 330v123h492v-123h-492z" />
    <glyph glyph-name="greater" unicode="&#x3e;" horiz-adv-x="580" 
d="M526 220l-472 -220v131l341 150v2l-341 149v131l472 -220v-123z" />
    <glyph glyph-name="question" unicode="?" horiz-adv-x="505" 
d="M314 249h-157v62q0 28 11.5 48.5t27.5 32l32 23t27.5 29.5t11.5 43q0 19 -13.5 28t-24.5 9q-29 0 -37 -2l-14 -74h-132v217q29 9 85 17t93 8q113 0 177.5 -47t64.5 -138q0 -48 -15.5 -84t-38 -55t-45 -32.5t-38 -24.5t-15.5 -22v-38zM129 97q0 45 31 77t75 32t75 -32
t31 -77t-31 -77t-75 -32t-75 32t-31 77z" />
    <glyph glyph-name="at" unicode="@" horiz-adv-x="872" 
d="M574 -1l29 -98q-77 -25 -164 -25q-186 0 -292.5 101.5t-106.5 286.5q0 172 125 290.5t303 118.5q172 0 268 -86.5t96 -234.5q0 -77 -21.5 -134t-58 -87.5t-77.5 -44.5t-88 -14q-23 0 -55 16t-47 38h-2q-13 -22 -45.5 -38t-71.5 -16q-50 0 -88 47.5t-38 113.5
q0 110 66.5 174.5t197.5 64.5q58 0 136 -31l-40 -213q0 -32 35 -32q33 0 52.5 42.5t19.5 106.5q0 211 -239 211q-124 0 -209 -85.5t-85 -207.5q0 -134 69 -207t196 -73q69 0 135 16zM465 227l24 122q-11 3 -22 3q-37 0 -60 -28t-23 -74q0 -31 9 -42.5t28 -11.5q16 0 29 9
t15 22z" />
    <glyph glyph-name="A" unicode="A" horiz-adv-x="720" 
d="M81 131l162 549h237l159 -548l73 -15v-117h-329v123l71 8l-11 49h-169l-11 -49l71 -8v-123h-326v117zM307 324h103l-16 62q-32 126 -35 152h-2q-12 -75 -34 -155z" />
    <glyph glyph-name="B" unicode="B" horiz-adv-x="674" 
d="M109 131v418l-83 14v117h354q111 0 174 -51t63 -131q0 -67 -66 -121v-2q49 -35 73 -73t24 -92q0 -93 -60 -151.5t-187 -58.5h-375v117zM303 535v-104h72q28 0 43 14.5t15 36.5q0 24 -15 38.5t-43 14.5h-72zM303 287v-127h84q30 0 46 18t16 46t-16 45.5t-46 17.5h-84z" />
    <glyph glyph-name="C" unicode="C" horiz-adv-x="568" 
d="M29 340q0 166 97 258t249 92q73 0 147 -27v-213h-132l-15 75q-2 1 -11 1q-54 0 -95 -49t-41 -137q0 -91 34 -138t95 -47q59 0 135 21l47 -155q-98 -31 -183 -31q-153 0 -240 90.5t-87 259.5z" />
    <glyph glyph-name="D" unicode="D" horiz-adv-x="720" 
d="M691 347q0 -167 -88.5 -257t-236.5 -90h-340v117l83 14v418l-83 14v117h349q134 0 225 -85.5t91 -247.5zM492 340q0 91 -37.5 135.5t-94.5 44.5h-57v-360h57q57 0 94.5 44.5t37.5 135.5z" />
    <glyph glyph-name="E" unicode="E" horiz-adv-x="621" 
d="M582 0h-556v117l83 14v418l-83 14v117h538v-196h-132l-10 39h-119v-99h103l8 22h111v-194h-111l-8 26h-103v-118h138l9 50h132v-210z" />
    <glyph glyph-name="F" unicode="F" horiz-adv-x="577" 
d="M407 523h-104v-119h86l7 29h111v-207h-111l-7 29h-86v-124l88 -14v-117h-365v117l83 14v418l-83 14v117h523v-202h-132z" />
    <glyph glyph-name="G" unicode="G" horiz-adv-x="678" 
d="M596 0h-119l-21 46h-2q-71 -58 -134 -58q-143 0 -217 88t-74 262q0 167 95.5 259.5t257.5 92.5q98 0 176 -29v-211h-132l-16 73q-8 2 -30 2q-68 0 -110 -48.5t-42 -138.5q0 -185 110 -185q58 0 86 20v46l-83 13v117h318v-120l-63 -10v-219z" />
    <glyph glyph-name="H" unicode="H" horiz-adv-x="791" 
d="M765 0h-339v117l62 14v135h-185v-135l63 -14v-117h-340v117l83 14v418l-83 14v117h340v-117l-63 -14v-123h185v123l-62 14v117h339v-117l-83 -14v-418l83 -14v-117z" />
    <glyph glyph-name="I" unicode="I" horiz-adv-x="412" 
d="M303 549v-418l83 -14v-117h-360v117l83 14v418l-83 14v117h360v-117z" />
    <glyph glyph-name="J" unicode="J" horiz-adv-x="437" 
d="M332 549v-442q0 -112 -115 -204l-104 -85l-115 138l80 66q2 1 12 9.5t12.5 11t10.5 10t10.5 13t7 13.5t6 17t1.5 20v433l-83 14v117h360v-117z" />
    <glyph glyph-name="K" unicode="K" horiz-adv-x="753" 
d="M746 0h-226l-68 131q-56 105 -74 149h-2l-73 -97v-52l73 -14v-117h-350v117l83 14v418l-83 13v118h311v-121l-34 -10v-120h2q6 11 66 82q6 7 12.5 14.5t14.5 15.5l12 12l-28 7v120h306v-117l-83 -14l-111 -134l169 -284l83 -14v-117z" />
    <glyph glyph-name="L" unicode="L" horiz-adv-x="568" 
d="M548 0h-522v117l83 15v417l-83 14v117h360v-117l-83 -14v-389h104l10 79h131v-239z" />
    <glyph glyph-name="M" unicode="M" horiz-adv-x="865" 
d="M839 0h-360v117l83 14v76q0 113 3 141h-2q-23 -53 -69 -135l-24 -44h-75l-24 44q-55 99 -69 135h-2q3 -28 3 -143v-74l83 -14v-117h-360v117l83 14v418l-83 14v117h259l32 -58q100 -184 114 -220h2q23 53 116 220l32 58h258v-117l-83 -14v-418l83 -14v-117z" />
    <glyph glyph-name="N" unicode="N" horiz-adv-x="799" 
d="M694 0h-171l-129 186q-42 62 -93 154h-2q4 -54 4 -140v-69l78 -14v-117h-355v118l83 13v418l-83 13v118h254l129 -186q48 -70 93 -155h2q-4 42 -4 144v66l-78 14v117h355v-117l-83 -14v-549z" />
    <glyph glyph-name="O" unicode="O" horiz-adv-x="688" 
d="M659 340q0 -168 -85 -260t-230 -92q-146 0 -230.5 92t-84.5 260t84.5 260t230.5 92q145 0 230 -92t85 -260zM460 340q0 90 -31.5 138.5t-84.5 48.5t-84.5 -48.5t-31.5 -138.5q0 -91 31.5 -139t84.5 -48t84.5 48t31.5 139z" />
    <glyph glyph-name="P" unicode="P" horiz-adv-x="649" 
d="M633 450q0 -115 -68 -174t-193 -59h-69v-86l83 -14v-117h-360v117l83 14v418l-83 14v117h337q270 0 270 -230zM434 449q0 28 -18.5 49.5t-47.5 21.5h-65v-143h68q29 0 46 21.5t17 50.5z" />
    <glyph glyph-name="Q" unicode="Q" horiz-adv-x="688" 
d="M659 340q0 -217 -138 -305q57 -46 140 -46q18 0 28 1l-6 -132q-26 -4 -44 -4q-62 0 -112.5 16.5t-79.5 38t-74.5 47t-93.5 38.5q-117 19 -183.5 108.5t-66.5 237.5q0 168 84.5 260t230.5 92q145 0 230 -92t85 -260zM460 340q0 90 -31.5 138.5t-84.5 48.5t-84.5 -48.5
t-31.5 -138.5q0 -91 31.5 -139t84.5 -48t84.5 48t31.5 139z" />
    <glyph glyph-name="R" unicode="R" horiz-adv-x="701" 
d="M691 0h-233l-90 237h-65v-106l73 -14v-117h-350v117l83 14v418l-83 14v117h337q140 0 205 -55.5t65 -165.5q0 -125 -92 -181v-2q18 -32 49 -103l18 -41l83 -15v-117zM434 459q0 28 -17.5 44.5t-47.5 16.5h-66v-122h67q30 0 47 16.5t17 44.5z" />
    <glyph glyph-name="S" unicode="S" horiz-adv-x="578" 
d="M543 222q0 -48 -13.5 -87.5t-44.5 -73t-88 -52.5t-136 -19q-84 0 -224 43v206h135l13 -79q36 -12 76 -12q83 0 83 54q0 20 -17 34.5t-60 26.5q-52 14 -86.5 28.5t-67.5 39.5t-49.5 62.5t-16.5 88.5q0 97 72.5 152.5t203.5 55.5q75 0 187 -30v-202h-132l-16 71
q-19 7 -44 7q-74 0 -74 -47q0 -11 6 -19t21 -14.5t25.5 -10t32.5 -9.5q50 -14 83.5 -28.5t66 -38.5t48.5 -61t16 -86z" />
    <glyph glyph-name="T" unicode="T" horiz-adv-x="646" 
d="M628 446h-132l-16 74h-59v-389l83 -14v-117h-360v117l83 14v389h-61l-16 -74h-132v234h610v-234z" />
    <glyph glyph-name="U" unicode="U" horiz-adv-x="763" 
d="M665 244q0 -127 -75.5 -191.5t-208.5 -64.5q-132 0 -207.5 65t-75.5 191v305l-83 14v117h339v-117l-62 -15v-283q0 -112 89 -112q90 0 90 112v284l-62 14v117h339v-117l-83 -14v-305z" />
    <glyph glyph-name="V" unicode="V" horiz-adv-x="691" 
d="M618 549l-153 -549h-237l-155 549l-63 14v117h311v-117l-55 -14l35 -155q26 -114 46 -223h2q4 30 47 223l35 155l-55 14v117h305v-117z" />
    <glyph glyph-name="W" unicode="W" horiz-adv-x="987" 
d="M904 548l-155 -548h-192l-38 158q-20 87 -26 130h-2q-2 -20 -28 -133l-37 -155h-193l-150 549l-73 14v117h333v-117l-72 -14l20 -98q40 -193 42 -209h2q18 108 40 196l62 242h114l61 -237q15 -59 42 -201h2q4 29 39 195l23 111l-71 15v117h330v-117z" />
    <glyph glyph-name="X" unicode="X" horiz-adv-x="767" 
d="M760 0h-353v117l50 10l-19 26q-41 61 -56 89h-2q-18 -37 -54 -86l-21 -29l50 -10v-117h-348v117l73 14l190 233l-147 184l-73 15v117h309v-121l-29 -6l15 -20q21 -28 39 -69h2q18 38 41 70l14 19l-29 6v121h323v-117l-73 -16l-166 -183l191 -233l73 -14v-117z" />
    <glyph glyph-name="Y" unicode="Y" horiz-adv-x="724" 
d="M641 549l-182 -326v-92l83 -14v-117h-360v117l83 14v92l-182 327l-73 13v117h328v-122l-44 -9l22 -48q31 -71 46 -116h2q18 66 45 116l23 44l-44 12v123h326v-117z" />
    <glyph glyph-name="Z" unicode="Z" horiz-adv-x="583" 
d="M553 0h-521v145l188 251q15 20 100 122v2h-113l-16 -74h-132v234h483v-146l-203 -271q-48 -63 -81 -101v-2h147l13 79h135v-239z" />
    <glyph glyph-name="bracketleft" unicode="[" horiz-adv-x="400" 
d="M84 -159v862h291v-107l-126 -20v-608l126 -20v-107h-291z" />
    <glyph glyph-name="backslash" unicode="\" horiz-adv-x="391" 
d="M251 -54l-239 816h128l239 -816h-128z" />
    <glyph glyph-name="bracketright" unicode="]" horiz-adv-x="400" 
d="M316 703v-862h-291v107l126 20v608l-126 20v107h291z" />
    <glyph glyph-name="asciicircum" unicode="^" horiz-adv-x="580" 
d="M545 282h-134l-121 267h-2l-120 -267h-134l191 398h129z" />
    <glyph glyph-name="underscore" unicode="_" horiz-adv-x="500" 
d="M0 -125v50h500v-50h-500z" />
    <glyph glyph-name="grave" unicode="`" horiz-adv-x="500" 
d="M326 585h-129l-159 141h175z" />
    <glyph glyph-name="a" unicode="a" horiz-adv-x="592" 
d="M582 16l-155 -18h-88l-13 47h-2q-47 -32 -75.5 -44.5t-64.5 -12.5q-74 0 -114 45t-40 114q0 74 38.5 116t114.5 42q29 0 69 -6t62 -6v25q0 56 -82 56q-17 0 -39 -5l-9 -32h-123v145q100 33 196 33q121 0 181.5 -46.5t60.5 -155.5v-143q0 -28 3 -39l80 -14v-101zM314 137
v65q-10 0 -28.5 3t-29.5 3q-51 0 -51 -44q0 -54 48 -54q16 0 61 27z" />
    <glyph glyph-name="b" unicode="b" horiz-adv-x="577" 
d="M553 251q0 -126 -58.5 -194.5t-155.5 -68.5q-29 0 -62.5 15.5t-49.5 35.5h-2l-5 -39h-165v579l-83 9v111l183 21h85v-265h2q55 62 108 62q203 0 203 -266zM363 251q0 62 -15.5 87.5t-56.5 25.5q-17 0 -30.5 -15.5t-20.5 -33.5v-142q19 -33 47 -33q76 0 76 111z" />
    <glyph glyph-name="c" unicode="c" horiz-adv-x="453" 
d="M427 11q-76 -21 -129 -21q-130 0 -202 67.5t-72 195.5q0 126 73.5 194t195.5 68q50 0 114 -15v-204h-112l-9 63q-2 1 -7 1q-25 0 -45 -25.5t-20 -81.5q0 -60 21.5 -84t67.5 -24q39 0 91 15z" />
    <glyph glyph-name="d" unicode="d" horiz-adv-x="619" 
d="M605 16l-156 -18h-88l-9 52h-2q-16 -23 -48.5 -42.5t-63.5 -19.5q-97 0 -155.5 68.5t-58.5 194.5q0 266 202 266q54 0 109 -57h2v119l-83 9v111l183 21h85v-590l83 -13v-101zM337 179v142q-21 43 -51 43q-41 0 -56.5 -25.5t-15.5 -87.5q0 -110 77 -110q13 0 27.5 14
t18.5 24z" />
    <glyph glyph-name="e" unicode="e" horiz-adv-x="524" 
d="M504 208h-311q0 -32 33 -56.5t77 -24.5q73 0 148 20l31 -133q-86 -24 -174 -24q-284 0 -284 262q0 128 67.5 196.5t184.5 68.5q228 0 228 -268v-41zM355 316v3q0 32 -23.5 54.5t-55.5 22.5q-33 0 -58 -23.5t-25 -56.5h162z" />
    <glyph glyph-name="f" unicode="f" horiz-adv-x="427" 
d="M462 700l-36 -126q-49 17 -88 17q-18 0 -33.5 -13t-15.5 -39v-34h124v-140h-124v-234l93 -14v-117h-361v117l83 14v234h-65v140h65v70q0 70 55 113.5t134 43.5q38 0 88 -9.5t81 -22.5z" />
    <glyph glyph-name="g" unicode="g" horiz-adv-x="591" 
d="M568 407h-69v-3q15 -21 15 -58q0 -82 -62 -128t-171 -46q-27 0 -65 6q-23 -7 -23 -28q0 -25 58 -25h116q95 0 151.5 -33.5t56.5 -105.5q0 -60 -46.5 -108.5t-117 -74t-147.5 -25.5q-125 0 -183.5 37.5t-58.5 113.5q0 33 25 61.5t54 39.5v2q-54 35 -54 97q0 30 19.5 56.5
t42.5 37.5v2q-63 44 -63 121q0 81 62.5 126t172.5 45q65 0 104 -12h183v-98zM349 346q0 21 -17 36.5t-51 15.5q-35 0 -50.5 -15t-15.5 -37t15 -38t51 -16q34 0 51 16t17 38zM392 -39q0 33 -64 33h-97q-43 -11 -43 -47q0 -48 99 -48q45 0 75 19t30 43z" />
    <glyph glyph-name="h" unicode="h" horiz-adv-x="668" 
d="M656 0h-268v317q0 52 -39 52q-44 0 -69 -49v-189l64 -14v-117h-332v117l83 14v448l-83 9v111l183 21h85v-282h2q19 38 56.5 58.5t80.5 20.5q72 0 113 -43.5t41 -120.5v-222l83 -14v-117z" />
    <glyph glyph-name="i" unicode="i" horiz-adv-x="386" 
d="M372 0h-351v117l83 14v233l-83 9v112l183 20h85v-374l83 -14v-117zM88 654q0 39 31 66.5t73 27.5q44 0 75 -27.5t31 -66.5t-31 -66.5t-75 -27.5q-42 0 -73 27.5t-31 66.5z" />
    <glyph glyph-name="j" unicode="j" horiz-adv-x="336" 
d="M-5 -103l69 78q21 23 26 39t5 56v294l-83 9v112l183 20h85v-415q0 -87 -11 -123.5t-62 -89.5l-97 -99zM79 654q0 39 31 66.5t73 27.5q44 0 75 -27.5t31 -66.5t-31 -66.5t-75 -27.5q-42 0 -73 27.5t-31 66.5z" />
    <glyph glyph-name="k" unicode="k" horiz-adv-x="668" 
d="M658 0h-208l-54 110q-31 64 -39 91h-2l-75 -65v-5l65 -12v-119h-333v117l83 14v448l-83 9v111l183 21h85v-420h2q17 23 53 57l31 30l-42 4v114h292v-114l-73 -15l-73 -71l105 -174l83 -14v-117z" />
    <glyph glyph-name="l" unicode="l" horiz-adv-x="377" 
d="M95 131v448l-83 9v111l183 21h85v-589l83 -14v-117h-351v117z" />
    <glyph glyph-name="m" unicode="m" horiz-adv-x="940" 
d="M928 0h-268v317q0 52 -35 52q-15 0 -26.5 -8.5t-16.5 -17t-16 -28.5v-184l50 -10v-121h-234v317q0 52 -34 52q-22 0 -33.5 -12.5t-25.5 -41.5v-184l49 -10v-121h-317v117l83 14v233l-83 9v112l183 20h68l8 -72h2q16 37 53 60.5t78 23.5q105 0 138 -89h2q17 38 56 63.5
t82 25.5q72 0 113 -43.5t41 -120.5v-222l83 -14v-117z" />
    <glyph glyph-name="n" unicode="n" horiz-adv-x="677" 
d="M665 0h-268v318q0 51 -39 51q-42 0 -69 -53v-185l64 -14v-117h-332v117l83 14v233l-83 9v112l183 20h68l9 -72h2q15 36 59 60t87 24q72 0 112.5 -43t40.5 -121v-222l83 -14v-117z" />
    <glyph glyph-name="o" unicode="o" horiz-adv-x="557" 
d="M279 -12q-113 0 -184 69.5t-71 194.5q0 126 71 195.5t184 69.5q112 0 183 -69.5t71 -195.5q0 -125 -71 -194.5t-183 -69.5zM279 143q32 0 48 25t16 84q0 60 -16 85t-48 25q-33 0 -49 -25t-16 -85q0 -59 16 -84t49 -25z" />
    <glyph glyph-name="p" unicode="p" horiz-adv-x="610" 
d="M586 252q0 -126 -58 -195t-155 -69q-75 0 -97 43h-2v-110l83 -14v-117h-351v117l83 14v443l-83 9v112l183 20h65l5 -60h2q18 32 53.5 52t70.5 20q201 0 201 -265zM396 252q0 62 -15.5 87.5t-55.5 25.5q-14 0 -28.5 -13t-22.5 -30v-159q13 -23 46 -23q76 0 76 112z" />
    <glyph glyph-name="q" unicode="q" horiz-adv-x="585" 
d="M605 -210h-351v117l83 14v109h-2q-32 -42 -97 -42q-97 0 -155.5 68.5t-58.5 194.5q0 266 203 266q31 0 65.5 -18t57.5 -49h2l5 55h165v-584l83 -14v-117zM337 173v147q-19 44 -51 44q-40 0 -56 -26t-16 -87q0 -110 77 -110q13 0 28 11t18 21z" />
    <glyph glyph-name="r" unicode="r" horiz-adv-x="519" 
d="M507 291h-112l-9 68q-1 1 -11 1q-31 0 -55 -23t-31 -60v-146l93 -14v-117h-361v117l83 14v233l-83 9v112l183 20h65l4 -84h2q7 37 44.5 65.5t76.5 28.5q57 0 111 -25v-199z" />
    <glyph glyph-name="s" unicode="s" horiz-adv-x="451" 
d="M427 166q0 -80 -53 -128t-170 -48q-82 0 -174 25v173h116l11 -48q22 -5 36 -5q64 0 64 25q0 7 -3 12t-12 9.5t-13.5 6.5t-18 5.5t-15.5 4.5q-78 23 -117 56t-39 102q0 72 55 117t145 45q88 0 162 -23v-148h-112l-9 37q-8 2 -17 2q-25 0 -36.5 -8t-11.5 -18q0 -14 12 -20
t40 -12q21 -5 38 -10t41.5 -17.5t40.5 -29t28 -44t12 -61.5z" />
    <glyph glyph-name="t" unicode="t" horiz-adv-x="431" 
d="M429 20q-86 -30 -178 -30q-76 0 -126.5 36.5t-50.5 109.5v229h-66v140h66v93l185 53v-146h127v-140h-127v-169q0 -27 11 -40t28 -13q36 0 90 17z" />
    <glyph glyph-name="u" unicode="u" horiz-adv-x="661" 
d="M647 16l-161 -18h-83l-13 69h-2q-19 -37 -59.5 -58t-83.5 -21q-71 0 -111 43t-40 121v212l-83 9v112l183 20h85v-318q0 -51 36 -51q25 0 38.5 11.5t25.5 36.5v180l-56 9v111l156 21h85v-375l83 -13v-101z" />
    <glyph glyph-name="v" unicode="v" horiz-adv-x="665" 
d="M585 376l-139 -376h-228l-138 376l-73 15v114h302v-123l-41 -6l29 -93q28 -91 36 -136h2q9 51 36 136l30 93l-41 6v123h298v-114z" />
    <glyph glyph-name="w" unicode="w" horiz-adv-x="834" 
d="M754 376l-124 -376h-149l-28 87q-25 76 -34 129h-2q-9 -48 -34 -128l-28 -88h-149l-126 376l-73 15v114h293v-119l-46 -10l15 -48q18 -56 27 -109h2q12 71 39 166l34 120h97l34 -120q12 -43 38 -166h2q8 45 30 115l13 42l-46 10v119h288v-114z" />
    <glyph glyph-name="x" unicode="x" horiz-adv-x="572" 
d="M562 0h-202l-41 72q-16 28 -35 69h-2q-14 -32 -34 -68l-42 -73h-196v117l76 14l97 135l-80 110l-73 15v114h204l31 -57q18 -34 25 -56h2q8 24 23 55l33 58h194v-114l-73 -15l-78 -110l98 -135l73 -14v-117z" />
    <glyph glyph-name="y" unicode="y" horiz-adv-x="663" 
d="M583 376l-98 -224q-39 -89 -86.5 -164.5t-84.5 -111.5l-122 -120l-108 113l55 57q49 48 86 101l-145 349l-73 15v114h302v-122l-41 -7l22 -62q21 -59 40 -137h2q10 42 45 139l21 59l-41 8v122h299v-114z" />
    <glyph glyph-name="z" unicode="z" horiz-adv-x="518" 
d="M488 0h-456v135l133 128q41 40 99 90v2h-94l-9 -53h-112v203h435v-135l-170 -163q-37 -35 -63 -56v-2h110l11 63h116v-212z" />
    <glyph glyph-name="braceleft" unicode="{" horiz-adv-x="401" 
d="M33 205v132q37 0 56.5 25.5t19.5 70.5v115q0 67 45 111t115 44h107v-136h-45q-33 0 -45 -18.5t-12 -64.5v-81q0 -44 -21.5 -83.5t-63.5 -47.5v-2q41 -7 63 -47t22 -84v-81q0 -46 12 -64.5t45 -18.5h45v-136h-107q-70 0 -115 44t-45 110v116q0 45 -19.5 70.5t-56.5 25.5z
" />
    <glyph glyph-name="bar" unicode="|" horiz-adv-x="343" 
d="M110 720h123v-930h-123v930z" />
    <glyph glyph-name="braceright" unicode="}" horiz-adv-x="401" 
d="M368 205q-37 0 -56.5 -25.5t-19.5 -70.5v-116q0 -66 -45 -110t-115 -44h-107v136h45q33 0 45 18.5t12 64.5v81q0 44 21.5 84t63.5 47v2q-44 10 -64.5 48.5t-20.5 82.5v81q0 46 -12 64.5t-45 18.5h-45v136h107q70 0 115 -44t45 -111v-115q0 -45 19.5 -70.5t56.5 -25.5
v-132z" />
    <glyph glyph-name="asciitilde" unicode="~" horiz-adv-x="580" 
d="M529 264q-45 -39 -82 -59t-80 -20q-40 0 -84.5 28.5t-70.5 28.5q-23 0 -42 -12t-55 -42l-65 101q45 39 82 59t80 20q42 0 85.5 -28t69.5 -28q23 0 42.5 12t54.5 41z" />
    <glyph glyph-name="uni00A0" unicode="&#xa0;" horiz-adv-x="225" 
 />
    <glyph glyph-name="exclamdown" unicode="&#xa1;" horiz-adv-x="311" 
d="M252 -210h-194v165l31 299h133l30 -299v-165zM49 408q0 45 31 77t75 32t75 -32t31 -77t-31 -77t-75 -32t-75 32t-31 77z" />
    <glyph glyph-name="cent" unicode="&#xa2;" horiz-adv-x="580" 
d="M397 0h-125v80q-74 15 -126 89t-52 167q0 92 52.5 163.5t127.5 85.5v72h125v-65q62 -7 90 -17v-196h-112l-9 63q-4 2 -16 2q-32 0 -54.5 -31.5t-22.5 -75.5q0 -47 23 -80.5t56 -33.5q66 0 103 11l44 -142q-38 -14 -104 -22v-70z" />
    <glyph glyph-name="sterling" unicode="&#xa3;" horiz-adv-x="580" 
d="M45 0v127q26 26 49 69t27 73h-66v131h78v70q0 84 69.5 141.5t169.5 57.5q69 0 152 -34v-182h-122l-10 63q-4 2 -14 2q-24 0 -42.5 -19t-18.5 -45v-54h118v-131h-125q-12 -84 -47 -121v-2h126l13 68h135v-214h-492z" />
    <glyph glyph-name="currency" unicode="&#xa4;" horiz-adv-x="580" 
d="M48 507l59 63l77 -81q48 25 106 25q57 0 105 -24l79 79l58 -62l-75 -78q31 -47 31 -112t-30 -112l74 -80l-58 -60l-79 79q-45 -24 -105 -24q-61 0 -106 25l-77 -81l-60 62l75 79q-30 49 -30 112t30 112zM217 317q0 -38 18.5 -61.5t54.5 -23.5q71 0 73 85q0 38 -19 61
t-54 23q-36 0 -54.5 -23t-18.5 -61z" />
    <glyph glyph-name="yen" unicode="&#xa5;" horiz-adv-x="580" 
d="M-28 657h296v-122l-41 -9l13 -29q17 -40 49 -127h2q0 1 7.5 21t17.5 46t20 48l17 37l-41 12v123h296v-117l-73 -14l-64 -123v-2h82v-85h-130l-24 -50v-2h154v-86h-172v-47l83 -14v-117h-349v117l83 14v47h-172v86h154v2l-24 50h-130v85h84v2l-64 124l-74 13v117z" />
    <glyph glyph-name="brokenbar" unicode="&#xa6;" horiz-adv-x="343" 
d="M110 681h123v-337h-123v337zM110 167h123v-337h-123v337z" />
    <glyph glyph-name="section" unicode="&#xa7;" horiz-adv-x="614" 
d="M37 293q0 48 23 81.5t76 59.5v2q-19 15 -33 41.5t-14 49.5q0 75 63 120t167 45q90 0 192 -30v-160h-122l-9 49q-10 5 -30 5q-74 0 -74 -28q0 -6 3.5 -12t11.5 -11t14 -9t19 -9t18.5 -7t20 -7t17.5 -6q30 -10 47 -16t49.5 -22.5t50.5 -33t33 -44t15 -59.5q0 -103 -86 -145
v-2q19 -13 31.5 -36.5t12.5 -50.5q0 -84 -70.5 -129.5t-183.5 -45.5q-119 0 -221 33v176h130l11 -63q16 -6 49 -6q45 0 67.5 5t22.5 25q0 14 -19.5 25.5t-66.5 25.5l-47 15q-29 10 -44 16.5t-43 22t-42.5 32t-26.5 43.5t-12 60zM198 305q0 -6 2.5 -12t7.5 -10.5t9.5 -8
t13.5 -8t15 -7l18 -7.5t18 -8q54 -23 102 -32q12 10 16 15t8 15t4 24q0 34 -91 70q-67 27 -89 30q-34 -30 -34 -61z" />
    <glyph glyph-name="dieresis" unicode="&#xa8;" horiz-adv-x="500" 
d="M33 653q0 35 28 60t66 25q40 0 68 -25t28 -60t-28 -60t-68 -25q-38 0 -66 25t-28 60zM277 653q0 35 28 60t66 25q40 0 68 -25t28 -60t-28 -60t-68 -25q-38 0 -66 25t-28 60z" />
    <glyph glyph-name="copyright" unicode="&#xa9;" horiz-adv-x="842" 
d="M709 338q0 128 -83 217t-205 89q-123 0 -206 -89t-83 -217q0 -129 82.5 -217.5t206.5 -88.5q122 0 205 89t83 217zM813 338q0 -168 -113 -285t-279 -117t-279 117t-113 285q0 167 113 284.5t279 117.5t279 -117.5t113 -284.5zM533 229l31 -103q-74 -20 -123 -20
q-98 0 -156.5 59t-58.5 164q0 110 60 174.5t155 64.5q26 0 55.5 -5t45.5 -9l16 -5v-138h-97l-11 46q-4 2 -11 2q-35 0 -56.5 -32t-21.5 -90t22 -89.5t58 -31.5q48 0 92 13z" />
    <glyph glyph-name="ordfeminine" unicode="&#xaa;" horiz-adv-x="376" 
d="M368 280l-95 -12h-63l-9 25h-1q-50 -31 -85 -31q-47 0 -71 25t-24 64q0 40 23.5 64.5t71.5 24.5q19 0 41.5 -4.5t36.5 -4.5v22q0 30 -46 30q-11 0 -19 -3l-6 -22h-82v89q53 17 122 17q76 0 115 -27t39 -93v-56q0 -26 3 -37l49 -8v-63zM193 349v28q-5 0 -14 2t-15 2
q-12 0 -20 -6.5t-8 -14.5q0 -23 26 -23q10 0 31 12z" />
    <glyph glyph-name="guillemotleft" unicode="&#xab;" horiz-adv-x="620" 
d="M576 65h-170l-108 216l108 216h170l-110 -215v-2zM316 65h-170l-108 216l108 216h170l-110 -215v-2z" />
    <glyph glyph-name="logicalnot" unicode="&#xac;" horiz-adv-x="580" 
d="M536 118h-123v190h-369v123h492v-313z" />
    <glyph glyph-name="uni00AD" unicode="&#xad;" horiz-adv-x="343" 
d="M30 226v110h283v-110h-283z" />
    <glyph glyph-name="registered" unicode="&#xae;" horiz-adv-x="515" 
d="M243 596v-37h20q19 0 19 18q0 19 -20 19h-19zM152 611v36h108q87 0 87 -70q0 -42 -29 -57q1 -2 3.5 -6.5t5 -10t5.5 -11.5l7 -17l29 -5v-36h-78l-28 73h-19v-32l23 -5v-36h-114v36l28 5v131zM410 538q0 67 -44 114.5t-109 47.5t-108.5 -47.5t-43.5 -114.5
q0 -68 43.5 -115.5t108.5 -47.5t109 47.5t44 115.5zM471 538q0 -92 -62 -155.5t-152 -63.5t-151.5 63.5t-61.5 155.5q0 90 61.5 154t151.5 64t152 -63.5t62 -154.5z" />
    <glyph glyph-name="macron" unicode="&#xaf;" horiz-adv-x="500" 
d="M80 606v94h340v-94h-340z" />
    <glyph glyph-name="degree" unicode="&#xb0;" horiz-adv-x="414" 
d="M394 502q0 -80 -55 -135.5t-131 -55.5q-78 0 -133 55.5t-55 135.5t55 135.5t133 55.5q76 0 131 -55.5t55 -135.5zM285 501q0 38 -22.5 66t-54.5 28q-34 0 -57 -28t-23 -66t23 -65t57 -27q32 0 54.5 27t22.5 65z" />
    <glyph glyph-name="plusminus" unicode="&#xb1;" horiz-adv-x="580" 
d="M536 310h-185v-170h-123v170h-184v123h184v159h123v-159h185v-123zM536 -30h-492v123h492v-123z" />
    <glyph glyph-name="twosuperior" unicode="&#xb2;" 
d="M342 429h-299v52q0 82 44 126q14 14 45 31t51 32t20 30q0 24 -44 24q-18 0 -22 -2l-10 -36h-83v114q62 26 148 26q68 0 104 -33t36 -93q0 -26 -8.5 -46.5t-24 -35.5t-28.5 -23.5t-32 -18.5q-5 -3 -19.5 -10t-21.5 -11t-15 -10.5t-11 -13.5v-2h77l8 36h85v-136z" />
    <glyph glyph-name="threesuperior" unicode="&#xb3;" 
d="M344 559q0 -71 -56.5 -105t-152.5 -34q-37 0 -75 11l17 100q37 -8 55 -8q21 0 31.5 0.5t25 4t20.5 12.5t6 23q0 27 -41 27l-17 -2l-13 69q34 5 44.5 15.5t10.5 27.5q0 11 -7.5 19t-21.5 8t-21 -3l-10 -36h-83v103q58 34 124 34q143 0 143 -101q0 -62 -39 -82v-2
q32 -9 46 -27t14 -54z" />
    <glyph glyph-name="acute" unicode="&#xb4;" horiz-adv-x="500" 
d="M303 585h-129l113 141h175z" />
    <glyph glyph-name="mu" unicode="&#xb5;" horiz-adv-x="661" 
d="M647 16l-162 -18h-82q-5 18 -13 69h-2q-13 -33 -43 -54.5t-60 -21.5q-20 0 -24 2h-2v-203h-165v574l-83 9v112l183 20h85v-317q0 -51 37 -51q25 0 38 11t25 37v179l-56 9v111l156 21h85v-375l83 -13v-101z" />
    <glyph glyph-name="paragraph" unicode="&#xb6;" horiz-adv-x="781" 
d="M50 457q0 99 67 161t178 62h446v-118h-87v-688h-143v688h-77v-688h-143v351q-110 0 -175.5 66t-65.5 166z" />
    <glyph glyph-name="periodcentered" unicode="&#xb7;" horiz-adv-x="300" 
d="M44 277q0 45 31 77t75 32t75 -32t31 -77t-31 -77t-75 -32t-75 32t-31 77z" />
    <glyph glyph-name="cedilla" unicode="&#xb8;" horiz-adv-x="500" 
d="M358 -119q0 -47 -32 -74t-79 -27q-66 0 -106 21l27 64q45 -16 65 -16q40 0 40 27q0 12 -6 19t-22 10.5t-31 4.5t-44 2l33 98h75l-16 -43v-2q43 -2 69.5 -26t26.5 -58z" />
    <glyph glyph-name="onesuperior" unicode="&#xb9;" 
d="M342 429h-276v69l80 11v202l-2 2l-64 -31l-31 72l116 63h107v-308l70 -11v-69z" />
    <glyph glyph-name="ordmasculine" unicode="&#xba;" horiz-adv-x="349" 
d="M334 413q0 -72 -45 -111.5t-114 -39.5q-70 0 -114.5 39.5t-44.5 111.5q0 73 44.5 112.5t114.5 39.5q69 0 114 -39.5t45 -112.5zM207 413q0 51 -32 51t-32 -51q0 -50 32 -50t32 50z" />
    <glyph glyph-name="guillemotright" unicode="&#xbb;" horiz-adv-x="620" 
d="M214 65h-170l110 215v2l-110 215h170l108 -216zM474 65h-170l110 215v2l-110 215h170l108 -216z" />
    <glyph glyph-name="onequarter" unicode="&#xbc;" horiz-adv-x="870" 
d="M313 269h-276v69l80 11v202l-2 2l-64 -31l-31 72l116 63h107v-308l70 -11v-69zM818 103h-36v-23l52 -11v-69h-229v69l57 11v23h-181v81l139 204h136l-139 -192v-2h45v40h120v-40h36v-91zM636 669l-279 -681h-118l279 681h118z" />
    <glyph glyph-name="onehalf" unicode="&#xbd;" horiz-adv-x="870" 
d="M313 269h-276v69l80 11v202l-2 2l-64 -31l-31 72l116 63h107v-308l70 -11v-69zM842 0h-299v52q0 82 44 126q14 14 45 31t51 32t20 30q0 24 -44 24q-18 0 -22 -2l-10 -36h-83v114q62 26 148 26q68 0 104 -33t36 -93q0 -26 -8.5 -46.5t-24 -35.5t-28.5 -23.5t-32 -18.5
q-5 -3 -19.5 -10t-21.5 -11t-15 -10.5t-11 -13.5v-2h77l8 36h85v-136zM634 669l-279 -681h-118l279 681h118z" />
    <glyph glyph-name="threequarters" unicode="&#xbe;" horiz-adv-x="870" 
d="M346 399q0 -71 -56.5 -105t-152.5 -34q-37 0 -75 11l17 100q37 -8 55 -8q21 0 31.5 0.5t25 4t20.5 12.5t6 23q0 27 -41 27l-17 -2l-13 69q34 5 44.5 15.5t10.5 27.5q0 11 -7.5 19t-21.5 8t-21 -3l-10 -36h-83v103q58 34 124 34q143 0 143 -101q0 -62 -39 -82v-2
q32 -9 46 -27t14 -54zM830 103h-36v-23l52 -11v-69h-229v69l57 11v23h-181v81l139 204h136l-139 -192v-2h45v40h120v-40h36v-91zM638 669l-279 -681h-118l279 681h118z" />
    <glyph glyph-name="questiondown" unicode="&#xbf;" horiz-adv-x="508" 
d="M190 188v66h158v-90q0 -28 -11.5 -48.5t-27.5 -32.5t-32 -23.5t-27.5 -30t-11.5 -43.5q0 -21 15 -31.5t36 -10.5q16 0 25 3l13 74h135v-219q-27 -8 -86.5 -15t-94.5 -7q-112 0 -177 48t-65 140q0 48 15.5 84t37.5 55.5t44.5 33t38 25t15.5 22.5zM165 408q0 45 31 77
t75 32t75 -32t31 -77t-31 -77t-75 -32t-75 32t-31 77z" />
    <glyph glyph-name="Agrave" unicode="&#xc0;" horiz-adv-x="720" 
d="M81 131l162 549h237l159 -548l73 -15v-117h-329v123l71 8l-11 49h-169l-11 -49l71 -8v-123h-326v117zM307 324h103l-16 62q-32 126 -35 152h-2q-12 -75 -34 -155zM449 745h-139l-196 128h195z" />
    <glyph glyph-name="Aacute" unicode="&#xc1;" horiz-adv-x="720" 
d="M81 131l162 549h237l159 -548l73 -15v-117h-329v123l71 8l-11 49h-169l-11 -49l71 -8v-123h-326v117zM307 324h103l-16 62q-32 126 -35 152h-2q-12 -75 -34 -155zM406 745h-139l140 128h195z" />
    <glyph glyph-name="Acircumflex" unicode="&#xc2;" horiz-adv-x="720" 
d="M81 131l162 549h237l159 -548l73 -15v-117h-329v123l71 8l-11 49h-169l-11 -49l71 -8v-123h-326v117zM307 324h103l-16 62q-32 126 -35 152h-2q-12 -75 -34 -155zM291 745h-151l148 128h134l153 -128h-151l-68 64h-2z" />
    <glyph glyph-name="Atilde" unicode="&#xc3;" horiz-adv-x="720" 
d="M81 131l162 549h237l159 -548l73 -15v-117h-329v123l71 8l-11 49h-169l-11 -49l71 -8v-123h-326v117zM307 324h103l-16 62q-32 126 -35 152h-2q-12 -75 -34 -155zM574 798q-82 -57 -147 -57q-36 0 -76.5 20.5t-63.5 20.5q-33 0 -89 -39l-57 77q85 57 146 57
q38 0 77.5 -21t62.5 -21q31 0 89 41z" />
    <glyph glyph-name="Adieresis" unicode="&#xc4;" horiz-adv-x="720" 
d="M81 131l162 549h237l159 -548l73 -15v-117h-329v123l71 8l-11 49h-169l-11 -49l71 -8v-123h-326v117zM307 324h103l-16 62q-32 126 -35 152h-2q-12 -75 -34 -155zM131 809q0 35 28 60t66 25q40 0 68 -25t28 -60t-28 -60t-68 -25q-38 0 -66 25t-28 60zM395 809q0 35 28 60
t66 25q40 0 68 -25t28 -60t-28 -60t-68 -25q-38 0 -66 25t-28 60z" />
    <glyph glyph-name="Aring" unicode="&#xc5;" horiz-adv-x="720" 
d="M81 131l162 549h237l159 -548l73 -15v-117h-329v123l71 8l-11 49h-169l-11 -49l71 -8v-123h-326v117zM307 324h103l-16 62q-32 126 -35 152h-2q-12 -75 -34 -155zM229 833q0 53 38 92t90 39t90.5 -39t38.5 -92t-38 -91.5t-91 -38.5q-52 0 -90 38.5t-38 91.5zM308 833
q0 -25 14 -42t35 -17t35.5 17t14.5 42t-14.5 42.5t-35.5 17.5t-35 -17.5t-14 -42.5z" />
    <glyph glyph-name="AE" unicode="&#xc6;" horiz-adv-x="948" 
d="M909 0h-534v119l60 12v49h-147l-19 -49l60 -12v-119h-339v117l83 15l201 417l-75 14v117h692v-196h-132l-10 39h-119v-99h103l8 22h111v-194h-111l-8 26h-103v-119h138l9 51h132v-210zM354 324h81v77q0 73 2 127h-2q-24 -65 -50 -127z" />
    <glyph glyph-name="Ccedilla" unicode="&#xc7;" horiz-adv-x="568" 
d="M430 -119q0 -47 -32 -74t-79 -27q-66 0 -106 21l27 64q45 -16 65 -16q40 0 40 27q0 12 -6 19t-22 10.5t-31 4.5t-44 2l29 86q-115 24 -178.5 111.5t-63.5 230.5q0 166 97 258t249 92q73 0 147 -27v-213h-132l-15 75q-2 1 -11 1q-54 0 -95 -49t-41 -137q0 -91 34 -138
t95 -47q59 0 135 21l47 -155q-98 -31 -183 -31h-14l-8 -23v-2q43 -2 69.5 -26t26.5 -58z" />
    <glyph glyph-name="Egrave" unicode="&#xc8;" horiz-adv-x="621" 
d="M582 0h-556v117l83 14v418l-83 14v117h538v-196h-132l-10 39h-119v-99h103l8 22h111v-194h-111l-8 26h-103v-118h138l9 50h132v-210zM411 745h-139l-196 128h195z" />
    <glyph glyph-name="Eacute" unicode="&#xc9;" horiz-adv-x="621" 
d="M582 0h-556v117l83 14v418l-83 14v117h538v-196h-132l-10 39h-119v-99h103l8 22h111v-194h-111l-8 26h-103v-118h138l9 50h132v-210zM368 745h-139l140 128h195z" />
    <glyph glyph-name="Ecircumflex" unicode="&#xca;" horiz-adv-x="621" 
d="M582 0h-556v117l83 14v418l-83 14v117h538v-196h-132l-10 39h-119v-99h103l8 22h111v-194h-111l-8 26h-103v-118h138l9 50h132v-210zM253 745h-151l148 128h134l153 -128h-151l-68 64h-2z" />
    <glyph glyph-name="Edieresis" unicode="&#xcb;" horiz-adv-x="621" 
d="M582 0h-556v117l83 14v418l-83 14v117h538v-196h-132l-10 39h-119v-99h103l8 22h111v-194h-111l-8 26h-103v-118h138l9 50h132v-210zM93 809q0 35 28 60t66 25q40 0 68 -25t28 -60t-28 -60t-68 -25q-38 0 -66 25t-28 60zM357 809q0 35 28 60t66 25q40 0 68 -25t28 -60
t-28 -60t-68 -25q-38 0 -66 25t-28 60z" />
    <glyph glyph-name="Igrave" unicode="&#xcc;" horiz-adv-x="412" 
d="M303 549v-418l83 -14v-117h-360v117l83 14v418l-83 14v117h360v-117zM297 745h-139l-196 128h195z" />
    <glyph glyph-name="Iacute" unicode="&#xcd;" horiz-adv-x="412" 
d="M303 549v-418l83 -14v-117h-360v117l83 14v418l-83 14v117h360v-117zM254 745h-139l140 128h195z" />
    <glyph glyph-name="Icircumflex" unicode="&#xce;" horiz-adv-x="412" 
d="M303 549v-418l83 -14v-117h-360v117l83 14v418l-83 14v117h360v-117zM139 745h-151l148 128h134l153 -128h-151l-68 64h-2z" />
    <glyph glyph-name="Idieresis" unicode="&#xcf;" horiz-adv-x="412" 
d="M303 549v-418l83 -14v-117h-360v117l83 14v418l-83 14v117h360v-117zM-21 809q0 35 28 60t66 25q40 0 68 -25t28 -60t-28 -60t-68 -25q-38 0 -66 25t-28 60zM243 809q0 35 28 60t66 25q40 0 68 -25t28 -60t-28 -60t-68 -25q-38 0 -66 25t-28 60z" />
    <glyph glyph-name="Eth" unicode="&#xd0;" horiz-adv-x="724" 
d="M52 284v133h61v132l-83 14v117h349q134 0 225 -85.5t91 -247.5q0 -167 -89 -257t-236 -90h-340v117l83 14v153h-61zM496 340q0 91 -37.5 135.5t-94.5 44.5h-57v-103h91v-133h-91v-124h57q57 0 94.5 44.5t37.5 135.5z" />
    <glyph glyph-name="Ntilde" unicode="&#xd1;" horiz-adv-x="799" 
d="M694 0h-171l-129 186q-42 62 -93 154h-2q4 -54 4 -140v-69l78 -14v-117h-355v118l83 13v418l-83 13v118h254l129 -186q48 -70 93 -155h2q-4 42 -4 144v66l-78 14v117h355v-117l-83 -14v-549zM606 798q-82 -57 -147 -57q-36 0 -76.5 20.5t-63.5 20.5q-33 0 -89 -39l-57 77
q85 57 146 57q38 0 77.5 -21t62.5 -21q31 0 89 41z" />
    <glyph glyph-name="Ograve" unicode="&#xd2;" horiz-adv-x="688" 
d="M659 340q0 -168 -85 -260t-230 -92q-146 0 -230.5 92t-84.5 260t84.5 260t230.5 92q145 0 230 -92t85 -260zM460 340q0 90 -31.5 138.5t-84.5 48.5t-84.5 -48.5t-31.5 -138.5q0 -91 31.5 -139t84.5 -48t84.5 48t31.5 139zM435 745h-139l-196 128h195z" />
    <glyph glyph-name="Oacute" unicode="&#xd3;" horiz-adv-x="688" 
d="M659 340q0 -168 -85 -260t-230 -92q-146 0 -230.5 92t-84.5 260t84.5 260t230.5 92q145 0 230 -92t85 -260zM460 340q0 90 -31.5 138.5t-84.5 48.5t-84.5 -48.5t-31.5 -138.5q0 -91 31.5 -139t84.5 -48t84.5 48t31.5 139zM392 745h-139l140 128h195z" />
    <glyph glyph-name="Ocircumflex" unicode="&#xd4;" horiz-adv-x="688" 
d="M659 340q0 -168 -85 -260t-230 -92q-146 0 -230.5 92t-84.5 260t84.5 260t230.5 92q145 0 230 -92t85 -260zM460 340q0 90 -31.5 138.5t-84.5 48.5t-84.5 -48.5t-31.5 -138.5q0 -91 31.5 -139t84.5 -48t84.5 48t31.5 139zM277 745h-151l148 128h134l153 -128h-151l-68 64
h-2z" />
    <glyph glyph-name="Otilde" unicode="&#xd5;" horiz-adv-x="688" 
d="M659 340q0 -168 -85 -260t-230 -92q-146 0 -230.5 92t-84.5 260t84.5 260t230.5 92q145 0 230 -92t85 -260zM460 340q0 90 -31.5 138.5t-84.5 48.5t-84.5 -48.5t-31.5 -138.5q0 -91 31.5 -139t84.5 -48t84.5 48t31.5 139zM560 798q-82 -57 -147 -57q-36 0 -76.5 20.5
t-63.5 20.5q-33 0 -89 -39l-57 77q85 57 146 57q38 0 77.5 -21t62.5 -21q31 0 89 41z" />
    <glyph glyph-name="Odieresis" unicode="&#xd6;" horiz-adv-x="688" 
d="M659 340q0 -168 -85 -260t-230 -92q-146 0 -230.5 92t-84.5 260t84.5 260t230.5 92q145 0 230 -92t85 -260zM460 340q0 90 -31.5 138.5t-84.5 48.5t-84.5 -48.5t-31.5 -138.5q0 -91 31.5 -139t84.5 -48t84.5 48t31.5 139zM117 809q0 35 28 60t66 25q40 0 68 -25t28 -60
t-28 -60t-68 -25q-38 0 -66 25t-28 60zM381 809q0 35 28 60t66 25q40 0 68 -25t28 -60t-28 -60t-68 -25q-38 0 -66 25t-28 60z" />
    <glyph glyph-name="multiply" unicode="&#xd7;" horiz-adv-x="580" 
d="M437 50l-143 143l-148 -147l-87 87l148 147l-143 143l87 87l143 -143l139 140l87 -87l-139 -140l143 -143z" />
    <glyph glyph-name="Oslash" unicode="&#xd8;" horiz-adv-x="698" 
d="M48 6l60 89q-79 101 -79 245q0 168 86.5 260t232.5 92q83 0 149 -34l53 78l99 -64l-60 -88q80 -100 80 -244q0 -168 -87.5 -260t-233.5 -92q-81 0 -147 33l-53 -78zM226 340q0 -26 8 -55h2l160 226q-22 16 -48 16q-53 0 -87.5 -49t-34.5 -138zM472 340q0 23 -10 55h-2
l-159 -227q22 -15 47 -15q54 0 89 48.5t35 138.5z" />
    <glyph glyph-name="Ugrave" unicode="&#xd9;" horiz-adv-x="763" 
d="M665 244q0 -127 -75.5 -191.5t-208.5 -64.5q-132 0 -207.5 65t-75.5 191v305l-83 14v117h339v-117l-62 -15v-283q0 -112 89 -112q90 0 90 112v284l-62 14v117h339v-117l-83 -14v-305zM472 745h-139l-196 128h195z" />
    <glyph glyph-name="Uacute" unicode="&#xda;" horiz-adv-x="763" 
d="M665 244q0 -127 -75.5 -191.5t-208.5 -64.5q-132 0 -207.5 65t-75.5 191v305l-83 14v117h339v-117l-62 -15v-283q0 -112 89 -112q90 0 90 112v284l-62 14v117h339v-117l-83 -14v-305zM429 745h-139l140 128h195z" />
    <glyph glyph-name="Ucircumflex" unicode="&#xdb;" horiz-adv-x="763" 
d="M665 244q0 -127 -75.5 -191.5t-208.5 -64.5q-132 0 -207.5 65t-75.5 191v305l-83 14v117h339v-117l-62 -15v-283q0 -112 89 -112q90 0 90 112v284l-62 14v117h339v-117l-83 -14v-305zM314 745h-151l148 128h134l153 -128h-151l-68 64h-2z" />
    <glyph glyph-name="Udieresis" unicode="&#xdc;" horiz-adv-x="763" 
d="M665 244q0 -127 -75.5 -191.5t-208.5 -64.5q-132 0 -207.5 65t-75.5 191v305l-83 14v117h339v-117l-62 -15v-283q0 -112 89 -112q90 0 90 112v284l-62 14v117h339v-117l-83 -14v-305zM154 809q0 35 28 60t66 25q40 0 68 -25t28 -60t-28 -60t-68 -25q-38 0 -66 25t-28 60z
M418 809q0 35 28 60t66 25q40 0 68 -25t28 -60t-28 -60t-68 -25q-38 0 -66 25t-28 60z" />
    <glyph glyph-name="Yacute" unicode="&#xdd;" horiz-adv-x="724" 
d="M641 549l-182 -326v-92l83 -14v-117h-360v117l83 14v92l-182 327l-73 13v117h328v-122l-44 -9l22 -48q31 -71 46 -116h2q18 66 45 116l23 44l-44 12v123h326v-117zM411 745h-139l140 128h195z" />
    <glyph glyph-name="Thorn" unicode="&#xde;" horiz-adv-x="628" 
d="M613 340q0 -101 -62 -144t-187 -43h-61v-22l83 -14v-117h-360v117l83 14v418l-83 14v117h360v-117l-83 -14v-24h52q138 0 198 -44t60 -141zM414 340q0 40 -55 40h-56v-82h60q51 0 51 42z" />
    <glyph glyph-name="germandbls" unicode="&#xdf;" horiz-adv-x="743" 
d="M733 179q0 -87 -66 -138t-155 -51q-63 0 -126 14v189h112l10 -47q8 -2 19 -2t22 8.5t11 26.5q0 17 -15.5 30.5t-43 29t-40.5 27.5q-55 49 -55 122q0 40 23 78.5t23 61.5q0 26 -22.5 42.5t-56.5 16.5q-35 0 -59.5 -18.5t-24.5 -51.5v-386l59 -14v-117h-327v117l83 14v224
h-65v150h65v37q0 60 41 105t97 65t114 20q46 0 89.5 -9.5t84 -29.5t65 -57.5t24.5 -88.5q0 -45 -22.5 -85.5t-22.5 -69.5q0 -15 8.5 -28.5t18 -21t28 -19t25.5 -17.5q26 -20 38.5 -31.5t26.5 -38t14 -57.5z" />
    <glyph glyph-name="agrave" unicode="&#xe0;" horiz-adv-x="592" 
d="M582 16l-155 -18h-88l-13 47h-2q-47 -32 -75.5 -44.5t-64.5 -12.5q-74 0 -114 45t-40 114q0 74 38.5 116t114.5 42q29 0 69 -6t62 -6v25q0 56 -82 56q-17 0 -39 -5l-9 -32h-123v145q100 33 196 33q121 0 181.5 -46.5t60.5 -155.5v-143q0 -28 3 -39l80 -14v-101zM314 137
v65q-10 0 -28.5 3t-29.5 3q-51 0 -51 -44q0 -54 48 -54q16 0 61 27zM352 585h-129l-159 141h175z" />
    <glyph glyph-name="aacute" unicode="&#xe1;" horiz-adv-x="592" 
d="M582 16l-155 -18h-88l-13 47h-2q-47 -32 -75.5 -44.5t-64.5 -12.5q-74 0 -114 45t-40 114q0 74 38.5 116t114.5 42q29 0 69 -6t62 -6v25q0 56 -82 56q-17 0 -39 -5l-9 -32h-123v145q100 33 196 33q121 0 181.5 -46.5t60.5 -155.5v-143q0 -28 3 -39l80 -14v-101zM314 137
v65q-10 0 -28.5 3t-29.5 3q-51 0 -51 -44q0 -54 48 -54q16 0 61 27zM329 585h-129l113 141h175z" />
    <glyph glyph-name="acircumflex" unicode="&#xe2;" horiz-adv-x="592" 
d="M582 16l-155 -18h-88l-13 47h-2q-47 -32 -75.5 -44.5t-64.5 -12.5q-74 0 -114 45t-40 114q0 74 38.5 116t114.5 42q29 0 69 -6t62 -6v25q0 56 -82 56q-17 0 -39 -5l-9 -32h-123v145q100 33 196 33q121 0 181.5 -46.5t60.5 -155.5v-143q0 -28 3 -39l80 -14v-101zM314 137
v65q-10 0 -28.5 3t-29.5 3q-51 0 -51 -44q0 -54 48 -54q16 0 61 27zM215 585h-134l136 141h118l136 -141h-134l-60 76h-2z" />
    <glyph glyph-name="atilde" unicode="&#xe3;" horiz-adv-x="592" 
d="M582 16l-155 -18h-88l-13 47h-2q-47 -32 -75.5 -44.5t-64.5 -12.5q-74 0 -114 45t-40 114q0 74 38.5 116t114.5 42q29 0 69 -6t62 -6v25q0 56 -82 56q-17 0 -39 -5l-9 -32h-123v145q100 33 196 33q121 0 181.5 -46.5t60.5 -155.5v-143q0 -28 3 -39l80 -14v-101zM314 137
v65q-10 0 -28.5 3t-29.5 3q-51 0 -51 -44q0 -54 48 -54q16 0 61 27zM472 645q-75 -68 -133 -68q-33 0 -69.5 24t-58.5 24q-18 0 -34 -10t-45 -36l-53 82q76 67 132 67q35 0 71 -24t57 -24q18 0 34.5 10.5t44.5 35.5z" />
    <glyph glyph-name="adieresis" unicode="&#xe4;" horiz-adv-x="592" 
d="M582 16l-155 -18h-88l-13 47h-2q-47 -32 -75.5 -44.5t-64.5 -12.5q-74 0 -114 45t-40 114q0 74 38.5 116t114.5 42q29 0 69 -6t62 -6v25q0 56 -82 56q-17 0 -39 -5l-9 -32h-123v145q100 33 196 33q121 0 181.5 -46.5t60.5 -155.5v-143q0 -28 3 -39l80 -14v-101zM314 137
v65q-10 0 -28.5 3t-29.5 3q-51 0 -51 -44q0 -54 48 -54q16 0 61 27zM59 653q0 35 28 60t66 25q40 0 68 -25t28 -60t-28 -60t-68 -25q-38 0 -66 25t-28 60zM303 653q0 35 28 60t66 25q40 0 68 -25t28 -60t-28 -60t-68 -25q-38 0 -66 25t-28 60z" />
    <glyph glyph-name="aring" unicode="&#xe5;" horiz-adv-x="592" 
d="M582 16l-155 -18h-88l-13 47h-2q-47 -32 -75.5 -44.5t-64.5 -12.5q-74 0 -114 45t-40 114q0 74 38.5 116t114.5 42q29 0 69 -6t62 -6v25q0 56 -82 56q-17 0 -39 -5l-9 -32h-123v145q100 33 196 33q121 0 181.5 -46.5t60.5 -155.5v-143q0 -28 3 -39l80 -14v-101zM314 137
v65q-10 0 -28.5 3t-29.5 3q-51 0 -51 -44q0 -54 48 -54q16 0 61 27zM147 669q0 53 38 92t90 39t90.5 -39t38.5 -92t-38 -91.5t-91 -38.5q-52 0 -90 38.5t-38 91.5zM226 669q0 -25 14 -42t35 -17t35.5 17t14.5 42t-14.5 42.5t-35.5 17.5t-35 -17.5t-14 -42.5z" />
    <glyph glyph-name="ae" unicode="&#xe6;" horiz-adv-x="801" 
d="M30 145q0 75 38 117.5t117 42.5q29 0 67.5 -6t61.5 -6v28q0 53 -81 53q-23 0 -40 -5l-9 -32h-123v145q100 33 192 33q45 0 85 -20t55 -47h2q19 29 63 49t85 20q238 0 238 -268v-41h-311q0 -31 33 -56t73 -25q77 0 152 20l31 -133q-86 -24 -184 -24q-66 0 -118.5 22.5
t-76.5 56.5h-2q-18 -36 -68 -58.5t-124 -22.5q-75 0 -115.5 44t-40.5 113zM205 164q0 -54 44 -54q45 0 87 29q-17 33 -21 62q-11 0 -30 3.5t-31 3.5q-49 0 -49 -44zM470 316h162q0 37 -24 58.5t-57 21.5q-28 0 -54.5 -22t-26.5 -58z" />
    <glyph glyph-name="ccedilla" unicode="&#xe7;" horiz-adv-x="453" 
d="M367 -119q0 -47 -32 -74t-79 -27q-66 0 -106 21l27 64q45 -16 65 -16q40 0 40 27q0 12 -6 19t-22 10.5t-31 4.5t-44 2l29 88q-88 21 -136 85t-48 168q0 126 73.5 194t195.5 68q50 0 114 -15v-204h-112l-9 63q-2 1 -7 1q-25 0 -45 -25.5t-20 -81.5q0 -60 21.5 -84
t67.5 -24q39 0 91 15l33 -149q-76 -21 -129 -21h-19l-8 -23v-2q43 -2 69.5 -26t26.5 -58z" />
    <glyph glyph-name="egrave" unicode="&#xe8;" horiz-adv-x="524" 
d="M504 208h-311q0 -32 33 -56.5t77 -24.5q73 0 148 20l31 -133q-86 -24 -174 -24q-284 0 -284 262q0 128 67.5 196.5t184.5 68.5q228 0 228 -268v-41zM355 316v3q0 32 -23.5 54.5t-55.5 22.5q-33 0 -58 -23.5t-25 -56.5h162zM352 585h-129l-159 141h175z" />
    <glyph glyph-name="eacute" unicode="&#xe9;" horiz-adv-x="524" 
d="M504 208h-311q0 -32 33 -56.5t77 -24.5q73 0 148 20l31 -133q-86 -24 -174 -24q-284 0 -284 262q0 128 67.5 196.5t184.5 68.5q228 0 228 -268v-41zM355 316v3q0 32 -23.5 54.5t-55.5 22.5q-33 0 -58 -23.5t-25 -56.5h162zM329 585h-129l113 141h175z" />
    <glyph glyph-name="ecircumflex" unicode="&#xea;" horiz-adv-x="524" 
d="M504 208h-311q0 -32 33 -56.5t77 -24.5q73 0 148 20l31 -133q-86 -24 -174 -24q-284 0 -284 262q0 128 67.5 196.5t184.5 68.5q228 0 228 -268v-41zM355 316v3q0 32 -23.5 54.5t-55.5 22.5q-33 0 -58 -23.5t-25 -56.5h162zM215 585h-134l136 141h118l136 -141h-134
l-60 76h-2z" />
    <glyph glyph-name="edieresis" unicode="&#xeb;" horiz-adv-x="524" 
d="M504 208h-311q0 -32 33 -56.5t77 -24.5q73 0 148 20l31 -133q-86 -24 -174 -24q-284 0 -284 262q0 128 67.5 196.5t184.5 68.5q228 0 228 -268v-41zM355 316v3q0 32 -23.5 54.5t-55.5 22.5q-33 0 -58 -23.5t-25 -56.5h162zM59 653q0 35 28 60t66 25q40 0 68 -25t28 -60
t-28 -60t-68 -25q-38 0 -66 25t-28 60zM303 653q0 35 28 60t66 25q40 0 68 -25t28 -60t-28 -60t-68 -25q-38 0 -66 25t-28 60z" />
    <glyph glyph-name="igrave" unicode="&#xec;" horiz-adv-x="386" 
d="M372 0h-351v117l83 14v233l-83 9v112l183 20h85v-374l83 -14v-117zM264 585h-129l-159 141h175z" />
    <glyph glyph-name="iacute" unicode="&#xed;" horiz-adv-x="386" 
d="M372 0h-351v117l83 14v233l-83 9v112l183 20h85v-374l83 -14v-117zM241 585h-129l113 141h175z" />
    <glyph glyph-name="icircumflex" unicode="&#xee;" horiz-adv-x="386" 
d="M372 0h-351v117l83 14v233l-83 9v112l183 20h85v-374l83 -14v-117zM127 585h-134l136 141h118l136 -141h-134l-60 76h-2z" />
    <glyph glyph-name="idieresis" unicode="&#xef;" horiz-adv-x="386" 
d="M372 0h-351v117l83 14v233l-83 9v112l183 20h85v-374l83 -14v-117zM-29 653q0 35 28 60t66 25q40 0 68 -25t28 -60t-28 -60t-68 -25q-38 0 -66 25t-28 60zM215 653q0 35 28 60t66 25q40 0 68 -25t28 -60t-28 -60t-68 -25q-38 0 -66 25t-28 60z" />
    <glyph glyph-name="eth" unicode="&#xf0;" horiz-adv-x="555" 
d="M113 489l-30 77l100 35v2q-22 21 -84 64l132 65q50 -31 93 -70l119 46l29 -78l-88 -31v-2q65 -67 106 -159.5t41 -198.5q0 -118 -71.5 -184.5t-179.5 -66.5q-109 0 -182.5 66.5t-73.5 184.5q0 108 68.5 175.5t161.5 67.5q19 0 31 -5l2 1q-13 28 -43 61zM214 239
q0 -96 63 -96q64 0 64 96q0 99 -64 99q-63 0 -63 -99z" />
    <glyph glyph-name="ntilde" unicode="&#xf1;" horiz-adv-x="677" 
d="M665 0h-268v318q0 51 -39 51q-42 0 -69 -53v-185l64 -14v-117h-332v117l83 14v233l-83 9v112l183 20h68l9 -72h2q15 36 59 60t87 24q72 0 112.5 -43t40.5 -121v-222l83 -14v-117zM516 645q-75 -68 -133 -68q-33 0 -69.5 24t-58.5 24q-18 0 -34 -10t-45 -36l-53 82
q76 67 132 67q35 0 71 -24t57 -24q18 0 34.5 10.5t44.5 35.5z" />
    <glyph glyph-name="ograve" unicode="&#xf2;" horiz-adv-x="557" 
d="M279 -12q-113 0 -184 69.5t-71 194.5q0 126 71 195.5t184 69.5q112 0 183 -69.5t71 -195.5q0 -125 -71 -194.5t-183 -69.5zM279 143q32 0 48 25t16 84q0 60 -16 85t-48 25q-33 0 -49 -25t-16 -85q0 -59 16 -84t49 -25zM355 585h-129l-159 141h175z" />
    <glyph glyph-name="oacute" unicode="&#xf3;" horiz-adv-x="557" 
d="M279 -12q-113 0 -184 69.5t-71 194.5q0 126 71 195.5t184 69.5q112 0 183 -69.5t71 -195.5q0 -125 -71 -194.5t-183 -69.5zM279 143q32 0 48 25t16 84q0 60 -16 85t-48 25q-33 0 -49 -25t-16 -85q0 -59 16 -84t49 -25zM332 585h-129l113 141h175z" />
    <glyph glyph-name="ocircumflex" unicode="&#xf4;" horiz-adv-x="557" 
d="M279 -12q-113 0 -184 69.5t-71 194.5q0 126 71 195.5t184 69.5q112 0 183 -69.5t71 -195.5q0 -125 -71 -194.5t-183 -69.5zM279 143q32 0 48 25t16 84q0 60 -16 85t-48 25q-33 0 -49 -25t-16 -85q0 -59 16 -84t49 -25zM218 585h-134l136 141h118l136 -141h-134l-60 76h-2
z" />
    <glyph glyph-name="otilde" unicode="&#xf5;" horiz-adv-x="557" 
d="M279 -12q-113 0 -184 69.5t-71 194.5q0 126 71 195.5t184 69.5q112 0 183 -69.5t71 -195.5q0 -125 -71 -194.5t-183 -69.5zM279 143q32 0 48 25t16 84q0 60 -16 85t-48 25q-33 0 -49 -25t-16 -85q0 -59 16 -84t49 -25zM475 645q-75 -68 -133 -68q-33 0 -69.5 24t-58.5 24
q-18 0 -34 -10t-45 -36l-53 82q76 67 132 67q35 0 71 -24t57 -24q18 0 34.5 10.5t44.5 35.5z" />
    <glyph glyph-name="odieresis" unicode="&#xf6;" horiz-adv-x="557" 
d="M279 -12q-113 0 -184 69.5t-71 194.5q0 126 71 195.5t184 69.5q112 0 183 -69.5t71 -195.5q0 -125 -71 -194.5t-183 -69.5zM279 143q32 0 48 25t16 84q0 60 -16 85t-48 25q-33 0 -49 -25t-16 -85q0 -59 16 -84t49 -25zM62 653q0 35 28 60t66 25q40 0 68 -25t28 -60
t-28 -60t-68 -25q-38 0 -66 25t-28 60zM306 653q0 35 28 60t66 25q40 0 68 -25t28 -60t-28 -60t-68 -25q-38 0 -66 25t-28 60z" />
    <glyph glyph-name="divide" unicode="&#xf7;" horiz-adv-x="580" 
d="M390 474q0 -42 -29 -70.5t-71 -28.5t-71 28.5t-29 70.5t29 71.5t71 29.5t71 -29.5t29 -71.5zM390 87q0 -42 -29 -70.5t-71 -28.5t-71 28.5t-29 70.5t29 71.5t71 29.5t71 -29.5t29 -71.5zM536 220h-492v123h492v-123z" />
    <glyph glyph-name="oslash" unicode="&#xf8;" horiz-adv-x="568" 
d="M24 252q0 125 74 195t187 70q71 0 126 -30l41 59l52 -36l-41 -59q82 -75 82 -199q0 -125 -73.5 -194.5t-186.5 -69.5q-68 0 -130 30l-43 -62l-49 38l42 60q-81 75 -81 198zM361 252q0 19 -6 43h-2l-107 -147q16 -13 39 -13q76 0 76 117zM208 252q0 -23 5 -41h2l107 147
q-16 12 -37 12q-77 0 -77 -118z" />
    <glyph glyph-name="ugrave" unicode="&#xf9;" horiz-adv-x="661" 
d="M647 16l-161 -18h-83l-13 69h-2q-19 -37 -59.5 -58t-83.5 -21q-71 0 -111 43t-40 121v212l-83 9v112l183 20h85v-318q0 -51 36 -51q25 0 38.5 11.5t25.5 36.5v180l-56 9v111l156 21h85v-375l83 -13v-101zM391 585h-129l-159 141h175z" />
    <glyph glyph-name="uacute" unicode="&#xfa;" horiz-adv-x="661" 
d="M647 16l-161 -18h-83l-13 69h-2q-19 -37 -59.5 -58t-83.5 -21q-71 0 -111 43t-40 121v212l-83 9v112l183 20h85v-318q0 -51 36 -51q25 0 38.5 11.5t25.5 36.5v180l-56 9v111l156 21h85v-375l83 -13v-101zM368 585h-129l113 141h175z" />
    <glyph glyph-name="ucircumflex" unicode="&#xfb;" horiz-adv-x="661" 
d="M647 16l-161 -18h-83l-13 69h-2q-19 -37 -59.5 -58t-83.5 -21q-71 0 -111 43t-40 121v212l-83 9v112l183 20h85v-318q0 -51 36 -51q25 0 38.5 11.5t25.5 36.5v180l-56 9v111l156 21h85v-375l83 -13v-101zM254 585h-134l136 141h118l136 -141h-134l-60 76h-2z" />
    <glyph glyph-name="udieresis" unicode="&#xfc;" horiz-adv-x="661" 
d="M647 16l-161 -18h-83l-13 69h-2q-19 -37 -59.5 -58t-83.5 -21q-71 0 -111 43t-40 121v212l-83 9v112l183 20h85v-318q0 -51 36 -51q25 0 38.5 11.5t25.5 36.5v180l-56 9v111l156 21h85v-375l83 -13v-101zM98 653q0 35 28 60t66 25q40 0 68 -25t28 -60t-28 -60t-68 -25
q-38 0 -66 25t-28 60zM342 653q0 35 28 60t66 25q40 0 68 -25t28 -60t-28 -60t-68 -25q-38 0 -66 25t-28 60z" />
    <glyph glyph-name="yacute" unicode="&#xfd;" horiz-adv-x="663" 
d="M583 376l-98 -224q-39 -89 -86.5 -164.5t-84.5 -111.5l-122 -120l-108 113l55 57q49 48 86 101l-145 349l-73 15v114h302v-122l-41 -7l22 -62q21 -59 40 -137h2q10 42 45 139l21 59l-41 8v122h299v-114zM383 585h-129l113 141h175z" />
    <glyph glyph-name="thorn" unicode="&#xfe;" horiz-adv-x="604" 
d="M580 252q0 -126 -58 -195t-155 -69q-70 0 -97 44h-2v-111l83 -14v-117h-351v117l83 14v658l-83 9v112l183 20h85v-275h2q43 72 109 72q201 0 201 -265zM390 252q0 62 -15.5 87.5t-55.5 25.5q-14 0 -28.5 -13t-22.5 -30v-159q13 -23 46 -23q76 0 76 112z" />
    <glyph glyph-name="ydieresis" unicode="&#xff;" horiz-adv-x="663" 
d="M583 376l-98 -224q-39 -89 -86.5 -164.5t-84.5 -111.5l-122 -120l-108 113l55 57q49 48 86 101l-145 349l-73 15v114h302v-122l-41 -7l22 -62q21 -59 40 -137h2q10 42 45 139l21 59l-41 8v122h299v-114zM113 653q0 35 28 60t66 25q40 0 68 -25t28 -60t-28 -60t-68 -25
q-38 0 -66 25t-28 60zM357 653q0 35 28 60t66 25q40 0 68 -25t28 -60t-28 -60t-68 -25q-38 0 -66 25t-28 60z" />
    <glyph glyph-name="Amacron" unicode="&#x100;" horiz-adv-x="720" 
d="M81 131l162 549h237l159 -548l73 -15v-117h-329v123l71 8l-11 49h-169l-11 -49l71 -8v-123h-326v117zM307 324h103l-16 62q-32 126 -35 152h-2q-12 -75 -34 -155zM188 762v94h340v-94h-340z" />
    <glyph glyph-name="amacron" unicode="&#x101;" horiz-adv-x="592" 
d="M582 16l-155 -18h-88l-13 47h-2q-47 -32 -75.5 -44.5t-64.5 -12.5q-74 0 -114 45t-40 114q0 74 38.5 116t114.5 42q29 0 69 -6t62 -6v25q0 56 -82 56q-17 0 -39 -5l-9 -32h-123v145q100 33 196 33q121 0 181.5 -46.5t60.5 -155.5v-143q0 -28 3 -39l80 -14v-101zM314 137
v65q-10 0 -28.5 3t-29.5 3q-51 0 -51 -44q0 -54 48 -54q16 0 61 27zM106 606v94h340v-94h-340z" />
    <glyph glyph-name="Abreve" unicode="&#x102;" horiz-adv-x="720" 
d="M81 131l162 549h237l159 -548l73 -15v-117h-329v123l71 8l-11 49h-169l-11 -49l71 -8v-123h-326v117zM307 324h103l-16 62q-32 126 -35 152h-2q-12 -75 -34 -155zM185 873h92q1 -25 25 -43.5t56 -18.5t56 18.5t25 43.5h92q0 -55 -51 -93t-122 -38t-122 38t-51 93z" />
    <glyph glyph-name="abreve" unicode="&#x103;" horiz-adv-x="592" 
d="M582 16l-155 -18h-88l-13 47h-2q-47 -32 -75.5 -44.5t-64.5 -12.5q-74 0 -114 45t-40 114q0 74 38.5 116t114.5 42q29 0 69 -6t62 -6v25q0 56 -82 56q-17 0 -39 -5l-9 -32h-123v145q100 33 196 33q121 0 181.5 -46.5t60.5 -155.5v-143q0 -28 3 -39l80 -14v-101zM314 137
v65q-10 0 -28.5 3t-29.5 3q-51 0 -51 -44q0 -54 48 -54q16 0 61 27zM103 727h92q1 -28 25 -48t56 -20t56 20t25 48h92q0 -61 -51 -104.5t-122 -43.5t-122 43.5t-51 104.5z" />
    <glyph glyph-name="Aogonek" unicode="&#x104;" horiz-adv-x="720" 
d="M397 -121q0 32 29 66.5t74 54.5h-117v123l71 8l-11 49h-169l-11 -49l71 -8v-123h-326v117l73 14l162 549h237l159 -548l73 -15v-117h-93q-38 -21 -61.5 -48.5t-23.5 -48.5q0 -14 8 -24.5t22 -10.5q12 0 26 4l19 -77q-39 -15 -77 -15q-61 0 -98 25t-37 74zM307 324h103
l-16 62q-32 126 -35 152h-2q-12 -75 -34 -155z" />
    <glyph glyph-name="aogonek" unicode="&#x105;" horiz-adv-x="592" 
d="M234 -121q0 33 29.5 67t74.5 54l-12 45h-2q-47 -32 -75.5 -44.5t-64.5 -12.5q-74 0 -114 45t-40 114q0 74 38.5 116t114.5 42q29 0 69 -6t62 -6v25q0 56 -82 56q-17 0 -39 -5l-9 -32h-123v145q100 33 196 33q121 0 181.5 -46.5t60.5 -155.5v-143q0 -28 3 -39l80 -14v-101
l-122 -14q-39 -22 -64 -50t-25 -49q0 -14 8 -24.5t22 -10.5q12 0 26 4l19 -77q-39 -15 -77 -15q-61 0 -98 25t-37 74zM314 137v65q-10 0 -28.5 3t-29.5 3q-51 0 -51 -44q0 -54 48 -54q16 0 61 27z" />
    <glyph glyph-name="Cacute" unicode="&#x106;" horiz-adv-x="568" 
d="M29 340q0 166 97 258t249 92q73 0 147 -27v-213h-132l-15 75q-2 1 -11 1q-54 0 -95 -49t-41 -137q0 -91 34 -138t95 -47q59 0 135 21l47 -155q-98 -31 -183 -31q-153 0 -240 90.5t-87 259.5zM383 745h-139l140 128h195z" />
    <glyph glyph-name="cacute" unicode="&#x107;" horiz-adv-x="453" 
d="M427 11q-76 -21 -129 -21q-130 0 -202 67.5t-72 195.5q0 126 73.5 194t195.5 68q50 0 114 -15v-204h-112l-9 63q-2 1 -7 1q-25 0 -45 -25.5t-20 -81.5q0 -60 21.5 -84t67.5 -24q39 0 91 15zM319 585h-129l113 141h175z" />
    <glyph glyph-name="Ccircumflex" unicode="&#x108;" horiz-adv-x="568" 
d="M29 340q0 166 97 258t249 92q73 0 147 -27v-213h-132l-15 75q-2 1 -11 1q-54 0 -95 -49t-41 -137q0 -91 34 -138t95 -47q59 0 135 21l47 -155q-98 -31 -183 -31q-153 0 -240 90.5t-87 259.5zM268 745h-151l148 128h134l153 -128h-151l-68 64h-2z" />
    <glyph glyph-name="ccircumflex" unicode="&#x109;" horiz-adv-x="453" 
d="M427 11q-76 -21 -129 -21q-130 0 -202 67.5t-72 195.5q0 126 73.5 194t195.5 68q50 0 114 -15v-204h-112l-9 63q-2 1 -7 1q-25 0 -45 -25.5t-20 -81.5q0 -60 21.5 -84t67.5 -24q39 0 91 15zM205 585h-134l136 141h118l136 -141h-134l-60 76h-2z" />
    <glyph glyph-name="Cdotaccent" unicode="&#x10a;" horiz-adv-x="568" 
d="M29 340q0 166 97 258t249 92q73 0 147 -27v-213h-132l-15 75q-2 1 -11 1q-54 0 -95 -49t-41 -137q0 -91 34 -138t95 -47q59 0 135 21l47 -155q-98 -31 -183 -31q-153 0 -240 90.5t-87 259.5zM230 812q0 39 31 66.5t73 27.5q44 0 75 -27.5t31 -66.5t-31 -66.5t-75 -27.5
q-42 0 -73 27.5t-31 66.5z" />
    <glyph glyph-name="cdotaccent" unicode="&#x10b;" horiz-adv-x="453" 
d="M427 11q-76 -21 -129 -21q-130 0 -202 67.5t-72 195.5q0 126 73.5 194t195.5 68q50 0 114 -15v-204h-112l-9 63q-2 1 -7 1q-25 0 -45 -25.5t-20 -81.5q0 -60 21.5 -84t67.5 -24q39 0 91 15zM161 654q0 39 31 66.5t73 27.5q44 0 75 -27.5t31 -66.5t-31 -66.5t-75 -27.5
q-42 0 -73 27.5t-31 66.5z" />
    <glyph glyph-name="Ccaron" unicode="&#x10c;" horiz-adv-x="568" 
d="M29 340q0 166 97 258t249 92q73 0 147 -27v-213h-132l-15 75q-2 1 -11 1q-54 0 -95 -49t-41 -137q0 -91 34 -138t95 -47q59 0 135 21l47 -155q-98 -31 -183 -31q-153 0 -240 90.5t-87 259.5zM117 873h151l63 -64h2l68 64h151l-153 -128h-134z" />
    <glyph glyph-name="ccaron" unicode="&#x10d;" horiz-adv-x="453" 
d="M427 11q-76 -21 -129 -21q-130 0 -202 67.5t-72 195.5q0 126 73.5 194t195.5 68q50 0 114 -15v-204h-112l-9 63q-2 1 -7 1q-25 0 -45 -25.5t-20 -81.5q0 -60 21.5 -84t67.5 -24q39 0 91 15zM71 726h134l60 -76h2l60 76h134l-136 -141h-118z" />
    <glyph glyph-name="Dcaron" unicode="&#x10e;" horiz-adv-x="720" 
d="M691 347q0 -167 -88.5 -257t-236.5 -90h-340v117l83 14v418l-83 14v117h349q134 0 225 -85.5t91 -247.5zM492 340q0 91 -37.5 135.5t-94.5 44.5h-57v-360h57q57 0 94.5 44.5t37.5 135.5zM96 873h151l63 -64h2l68 64h151l-153 -128h-134z" />
    <glyph glyph-name="dcaron" unicode="&#x10f;" horiz-adv-x="659" 
d="M605 16l-156 -18h-88l-9 52h-2q-16 -23 -48.5 -42.5t-63.5 -19.5q-97 0 -155.5 68.5t-58.5 194.5q0 266 202 266q54 0 109 -57h2v119l-83 9v111l183 21h85v-590l83 -13v-101zM337 179v142q-21 43 -51 43q-41 0 -56.5 -25.5t-15.5 -87.5q0 -110 77 -110q13 0 27.5 14
t18.5 24zM608 727l106 13q1 -4 1 -13q0 -44 -23 -93.5t-58 -79.5l-63 10q38 74 38 148q0 9 -1 15z" />
    <glyph glyph-name="Dcroat" unicode="&#x110;" horiz-adv-x="724" 
d="M52 284v133h61v132l-83 14v117h349q134 0 225 -85.5t91 -247.5q0 -167 -89 -257t-236 -90h-340v117l83 14v153h-61zM496 340q0 91 -37.5 135.5t-94.5 44.5h-57v-103h91v-133h-91v-124h57q57 0 94.5 44.5t37.5 135.5z" />
    <glyph glyph-name="dcroat" unicode="&#x111;" horiz-adv-x="619" 
d="M154 528v60h183v11l-83 9v91l183 21h85v-132h62v-60h-62v-397l83 -14v-117h-248l-5 50h-2q-16 -23 -48.5 -42.5t-63.5 -19.5q-97 0 -155.5 68.5t-58.5 194.5q0 266 203 266q53 0 108 -57h2v68h-183zM337 179v142q-21 43 -51 43q-41 0 -56.5 -25.5t-15.5 -87.5
q0 -110 77 -110q13 0 27.5 14t18.5 24z" />
    <glyph glyph-name="Emacron" unicode="&#x112;" horiz-adv-x="621" 
d="M582 0h-556v117l83 14v418l-83 14v117h538v-196h-132l-10 39h-119v-99h103l8 22h111v-194h-111l-8 26h-103v-118h138l9 50h132v-210zM150 762v94h340v-94h-340z" />
    <glyph glyph-name="emacron" unicode="&#x113;" horiz-adv-x="524" 
d="M504 208h-311q0 -32 33 -56.5t77 -24.5q73 0 148 20l31 -133q-86 -24 -174 -24q-284 0 -284 262q0 128 67.5 196.5t184.5 68.5q228 0 228 -268v-41zM355 316v3q0 32 -23.5 54.5t-55.5 22.5q-33 0 -58 -23.5t-25 -56.5h162zM106 606v94h340v-94h-340z" />
    <glyph glyph-name="Ebreve" unicode="&#x114;" horiz-adv-x="621" 
d="M582 0h-556v117l83 14v418l-83 14v117h538v-196h-132l-10 39h-119v-99h103l8 22h111v-194h-111l-8 26h-103v-118h138l9 50h132v-210zM147 873h92q1 -25 25 -43.5t56 -18.5t56 18.5t25 43.5h92q0 -55 -51 -93t-122 -38t-122 38t-51 93z" />
    <glyph glyph-name="ebreve" unicode="&#x115;" horiz-adv-x="524" 
d="M504 208h-311q0 -32 33 -56.5t77 -24.5q73 0 148 20l31 -133q-86 -24 -174 -24q-284 0 -284 262q0 128 67.5 196.5t184.5 68.5q228 0 228 -268v-41zM355 316v3q0 32 -23.5 54.5t-55.5 22.5q-33 0 -58 -23.5t-25 -56.5h162zM103 727h92q1 -28 25 -48t56 -20t56 20t25 48
h92q0 -61 -51 -104.5t-122 -43.5t-122 43.5t-51 104.5z" />
    <glyph glyph-name="Edotaccent" unicode="&#x116;" horiz-adv-x="621" 
d="M582 0h-556v117l83 14v418l-83 14v117h538v-196h-132l-10 39h-119v-99h103l8 22h111v-194h-111l-8 26h-103v-118h138l9 50h132v-210zM215 812q0 39 31 66.5t73 27.5q44 0 75 -27.5t31 -66.5t-31 -66.5t-75 -27.5q-42 0 -73 27.5t-31 66.5z" />
    <glyph glyph-name="edotaccent" unicode="&#x117;" horiz-adv-x="524" 
d="M504 208h-311q0 -32 33 -56.5t77 -24.5q73 0 148 20l31 -133q-86 -24 -174 -24q-284 0 -284 262q0 128 67.5 196.5t184.5 68.5q228 0 228 -268v-41zM355 316v3q0 32 -23.5 54.5t-55.5 22.5q-33 0 -58 -23.5t-25 -56.5h162zM171 654q0 39 31 66.5t73 27.5q44 0 75 -27.5
t31 -66.5t-31 -66.5t-75 -27.5q-42 0 -73 27.5t-31 66.5z" />
    <glyph glyph-name="Eogonek" unicode="&#x118;" horiz-adv-x="621" 
d="M582 0q-39 -23 -63.5 -49.5t-24.5 -47.5q0 -14 8 -24.5t22 -10.5q12 0 26 4l19 -77q-39 -15 -77 -15q-61 0 -98 25t-37 74q0 34 29.5 67.5t73.5 53.5h-434v117l83 14v418l-83 14v117h538v-196h-132l-10 39h-119v-99h103l8 22h111v-194h-111l-8 26h-103v-118h138l9 50h132
v-210z" />
    <glyph glyph-name="eogonek" unicode="&#x119;" horiz-adv-x="524" 
d="M504 208h-311q0 -32 33 -56.5t77 -24.5q77 0 148 19l31 -132q-43 -23 -72 -56t-29 -55q0 -14 8 -24.5t22 -10.5q12 0 26 4l19 -77q-39 -15 -77 -15q-61 0 -98 25t-37 74q0 30 23.5 60.5t59.5 51.5q-8 -1 -19 -1q-284 0 -284 262q0 128 67.5 196.5t184.5 68.5
q228 0 228 -268v-41zM355 316v5q0 32 -23.5 53.5t-55.5 21.5q-34 0 -59 -23.5t-25 -56.5h163z" />
    <glyph glyph-name="Ecaron" unicode="&#x11a;" horiz-adv-x="621" 
d="M582 0h-556v117l83 14v418l-83 14v117h538v-196h-132l-10 39h-119v-99h103l8 22h111v-194h-111l-8 26h-103v-118h138l9 50h132v-210zM102 873h151l63 -64h2l68 64h151l-153 -128h-134z" />
    <glyph glyph-name="ecaron" unicode="&#x11b;" horiz-adv-x="524" 
d="M504 208h-311q0 -32 33 -56.5t77 -24.5q73 0 148 20l31 -133q-86 -24 -174 -24q-284 0 -284 262q0 128 67.5 196.5t184.5 68.5q228 0 228 -268v-41zM355 316v3q0 32 -23.5 54.5t-55.5 22.5q-33 0 -58 -23.5t-25 -56.5h162zM81 726h134l60 -76h2l60 76h134l-136 -141h-118
z" />
    <glyph glyph-name="Gcircumflex" unicode="&#x11c;" horiz-adv-x="678" 
d="M596 0h-119l-21 46h-2q-71 -58 -134 -58q-143 0 -217 88t-74 262q0 167 95.5 259.5t257.5 92.5q98 0 176 -29v-211h-132l-16 73q-8 2 -30 2q-68 0 -110 -48.5t-42 -138.5q0 -185 110 -185q58 0 86 20v46l-83 13v117h318v-120l-63 -10v-219zM292 745h-151l148 128h134
l153 -128h-151l-68 64h-2z" />
    <glyph glyph-name="gcircumflex" unicode="&#x11d;" horiz-adv-x="591" 
d="M568 407h-69v-3q15 -21 15 -58q0 -82 -62 -128t-171 -46q-27 0 -65 6q-23 -7 -23 -28q0 -25 58 -25h116q95 0 151.5 -33.5t56.5 -105.5q0 -60 -46.5 -108.5t-117 -74t-147.5 -25.5q-125 0 -183.5 37.5t-58.5 113.5q0 33 25 61.5t54 39.5v2q-54 35 -54 97q0 30 19.5 56.5
t42.5 37.5v2q-63 44 -63 121q0 81 62.5 126t172.5 45q65 0 104 -12h183v-98zM349 346q0 21 -17 36.5t-51 15.5q-35 0 -50.5 -15t-15.5 -37t15 -38t51 -16q34 0 51 16t17 38zM392 -39q0 33 -64 33h-97q-43 -11 -43 -47q0 -48 99 -48q45 0 75 19t30 43zM220 585h-134l136 141
h118l136 -141h-134l-60 76h-2z" />
    <glyph glyph-name="Gbreve" unicode="&#x11e;" horiz-adv-x="678" 
d="M596 0h-119l-21 46h-2q-71 -58 -134 -58q-143 0 -217 88t-74 262q0 167 95.5 259.5t257.5 92.5q98 0 176 -29v-211h-132l-16 73q-8 2 -30 2q-68 0 -110 -48.5t-42 -138.5q0 -185 110 -185q58 0 86 20v46l-83 13v117h318v-120l-63 -10v-219zM186 873h92q1 -25 25 -43.5
t56 -18.5t56 18.5t25 43.5h92q0 -55 -51 -93t-122 -38t-122 38t-51 93z" />
    <glyph glyph-name="gbreve" unicode="&#x11f;" horiz-adv-x="591" 
d="M568 407h-69v-3q15 -21 15 -58q0 -82 -62 -128t-171 -46q-27 0 -65 6q-23 -7 -23 -28q0 -25 58 -25h116q95 0 151.5 -33.5t56.5 -105.5q0 -60 -46.5 -108.5t-117 -74t-147.5 -25.5q-125 0 -183.5 37.5t-58.5 113.5q0 33 25 61.5t54 39.5v2q-54 35 -54 97q0 30 19.5 56.5
t42.5 37.5v2q-63 44 -63 121q0 81 62.5 126t172.5 45q65 0 104 -12h183v-98zM349 346q0 21 -17 36.5t-51 15.5q-35 0 -50.5 -15t-15.5 -37t15 -38t51 -16q34 0 51 16t17 38zM392 -39q0 33 -64 33h-97q-43 -11 -43 -47q0 -48 99 -48q45 0 75 19t30 43zM108 727h92
q1 -28 25 -48t56 -20t56 20t25 48h92q0 -61 -51 -104.5t-122 -43.5t-122 43.5t-51 104.5z" />
    <glyph glyph-name="Gdotaccent" unicode="&#x120;" horiz-adv-x="678" 
d="M596 0h-119l-21 46h-2q-71 -58 -134 -58q-143 0 -217 88t-74 262q0 167 95.5 259.5t257.5 92.5q98 0 176 -29v-211h-132l-16 73q-8 2 -30 2q-68 0 -110 -48.5t-42 -138.5q0 -185 110 -185q58 0 86 20v46l-83 13v117h318v-120l-63 -10v-219zM254 812q0 39 31 66.5t73 27.5
q44 0 75 -27.5t31 -66.5t-31 -66.5t-75 -27.5q-42 0 -73 27.5t-31 66.5z" />
    <glyph glyph-name="gdotaccent" unicode="&#x121;" horiz-adv-x="591" 
d="M568 407h-69v-3q15 -21 15 -58q0 -82 -62 -128t-171 -46q-27 0 -65 6q-23 -7 -23 -28q0 -25 58 -25h116q95 0 151.5 -33.5t56.5 -105.5q0 -60 -46.5 -108.5t-117 -74t-147.5 -25.5q-125 0 -183.5 37.5t-58.5 113.5q0 33 25 61.5t54 39.5v2q-54 35 -54 97q0 30 19.5 56.5
t42.5 37.5v2q-63 44 -63 121q0 81 62.5 126t172.5 45q65 0 104 -12h183v-98zM349 346q0 21 -17 36.5t-51 15.5q-35 0 -50.5 -15t-15.5 -37t15 -38t51 -16q34 0 51 16t17 38zM392 -39q0 33 -64 33h-97q-43 -11 -43 -47q0 -48 99 -48q45 0 75 19t30 43zM176 654q0 39 31 66.5
t73 27.5q44 0 75 -27.5t31 -66.5t-31 -66.5t-75 -27.5q-42 0 -73 27.5t-31 66.5z" />
    <glyph glyph-name="Gcommaaccent" unicode="&#x122;" horiz-adv-x="678" 
d="M596 0h-119l-21 46h-2q-71 -58 -134 -58q-143 0 -217 88t-74 262q0 167 95.5 259.5t257.5 92.5q98 0 176 -29v-211h-132l-16 73q-8 2 -30 2q-68 0 -110 -48.5t-42 -138.5q0 -185 110 -185q58 0 86 20v46l-83 13v117h318v-120l-63 -10v-219zM391 -42q1 -5 1 -14
q0 -94 -116 -166l-77 26q17 25 29.5 61t12.5 63q0 11 -1 17z" />
    <glyph glyph-name="gcommaaccent" unicode="&#x123;" horiz-adv-x="591" 
d="M568 407h-69v-3q15 -21 15 -58q0 -82 -62 -128t-171 -46q-27 0 -65 6q-23 -7 -23 -28q0 -25 58 -25h116q95 0 151.5 -33.5t56.5 -105.5q0 -60 -46.5 -108.5t-117 -74t-147.5 -25.5q-125 0 -183.5 37.5t-58.5 113.5q0 33 25 61.5t54 39.5v2q-54 35 -54 97q0 30 19.5 56.5
t42.5 37.5v2q-63 44 -63 121q0 81 62.5 126t172.5 45q65 0 104 -12h183v-98zM349 346q0 21 -17 36.5t-51 15.5q-35 0 -50.5 -15t-15.5 -37t15 -38t51 -16q34 0 51 16t17 38zM392 -39q0 33 -64 33h-97q-43 -11 -43 -47q0 -48 99 -48q45 0 75 19t30 43zM207 576q-1 3 -1 12
q0 84 104 150l69 -24q-15 -22 -26.5 -54.5t-11.5 -56.5q0 -10 1 -16z" />
    <glyph glyph-name="Hcircumflex" unicode="&#x124;" horiz-adv-x="791" 
d="M765 0h-339v117l62 14v135h-185v-135l63 -14v-117h-340v117l83 14v418l-83 14v117h340v-117l-63 -14v-123h185v123l-62 14v117h339v-117l-83 -14v-418l83 -14v-117zM329 745h-151l148 128h134l153 -128h-151l-68 64h-2z" />
    <glyph glyph-name="hcircumflex" unicode="&#x125;" horiz-adv-x="668" 
d="M656 0h-268v317q0 52 -39 52q-44 0 -69 -49v-189l64 -14v-117h-332v117l83 14v448l-83 9v111l183 21h85v-282h2q19 38 56.5 58.5t80.5 20.5q72 0 113 -43.5t41 -120.5v-222l83 -14v-117zM111 765h-151l148 128h134l153 -128h-151l-68 64h-2z" />
    <glyph glyph-name="Hbar" unicode="&#x126;" horiz-adv-x="791" 
d="M36 436v83h73v30l-83 14v117h340v-117l-63 -14v-30h185v30l-62 14v117h339v-117l-83 -14v-30h73v-83h-73v-305l83 -14v-117h-339v117l62 14v121h-185v-121l63 -14v-117h-340v117l83 14v305h-73zM303 402h185v34h-185v-34z" />
    <glyph glyph-name="hbar" unicode="&#x127;" horiz-adv-x="668" 
d="M462 528h-182v-90h2q19 38 56.5 58.5t80.5 20.5q72 0 113 -43.5t41 -120.5v-222l83 -14v-117h-268v317q0 52 -39 52q-44 0 -69 -49v-189l63 -14v-117h-331v117l83 14v397h-78v60h78v11l-83 9v91l183 21h85v-132h182v-60z" />
    <glyph glyph-name="Itilde" unicode="&#x128;" horiz-adv-x="412" 
d="M303 549v-418l83 -14v-117h-360v117l83 14v418l-83 14v117h360v-117zM422 798q-82 -57 -147 -57q-36 0 -76.5 20.5t-63.5 20.5q-33 0 -89 -39l-57 77q85 57 146 57q38 0 77.5 -21t62.5 -21q31 0 89 41z" />
    <glyph glyph-name="itilde" unicode="&#x129;" horiz-adv-x="386" 
d="M372 0h-351v117l83 14v233l-83 9v112l183 20h85v-374l83 -14v-117zM384 645q-75 -68 -133 -68q-33 0 -69.5 24t-58.5 24q-18 0 -34 -10t-45 -36l-53 82q76 67 132 67q35 0 71 -24t57 -24q18 0 34.5 10.5t44.5 35.5z" />
    <glyph glyph-name="Imacron" unicode="&#x12a;" horiz-adv-x="412" 
d="M303 549v-418l83 -14v-117h-360v117l83 14v418l-83 14v117h360v-117zM36 762v94h340v-94h-340z" />
    <glyph glyph-name="imacron" unicode="&#x12b;" horiz-adv-x="386" 
d="M372 0h-351v117l83 14v233l-83 9v112l183 20h85v-374l83 -14v-117zM18 606v94h340v-94h-340z" />
    <glyph glyph-name="Ibreve" unicode="&#x12c;" horiz-adv-x="412" 
d="M303 549v-418l83 -14v-117h-360v117l83 14v418l-83 14v117h360v-117zM33 873h92q1 -25 25 -43.5t56 -18.5t56 18.5t25 43.5h92q0 -55 -51 -93t-122 -38t-122 38t-51 93z" />
    <glyph glyph-name="ibreve" unicode="&#x12d;" horiz-adv-x="386" 
d="M372 0h-351v117l83 14v233l-83 9v112l183 20h85v-374l83 -14v-117zM15 727h92q1 -28 25 -48t56 -20t56 20t25 48h92q0 -61 -51 -104.5t-122 -43.5t-122 43.5t-51 104.5z" />
    <glyph glyph-name="Iogonek" unicode="&#x12e;" horiz-adv-x="412" 
d="M52 -121q0 32 29 66.5t74 54.5h-129v117l83 14v418l-83 14v117h360v-117l-83 -14v-418l83 -14v-117h-112q-38 -21 -61.5 -48.5t-23.5 -48.5q0 -14 8 -24.5t22 -10.5q12 0 26 4l19 -77q-39 -15 -77 -15q-61 0 -98 25t-37 74z" />
    <glyph glyph-name="iogonek" unicode="&#x12f;" horiz-adv-x="386" 
d="M40 -121q0 32 29 66.5t74 54.5h-122v117l83 14v233l-83 9v112l183 20h85v-374l83 -14v-117h-110q-38 -21 -61.5 -48.5t-23.5 -48.5q0 -14 8 -24.5t22 -10.5q12 0 26 4l19 -77q-39 -15 -77 -15q-61 0 -98 25t-37 74zM88 654q0 39 31 66.5t73 27.5q44 0 75 -27.5t31 -66.5
t-31 -66.5t-75 -27.5q-42 0 -73 27.5t-31 66.5z" />
    <glyph glyph-name="Idotaccent" unicode="&#x130;" horiz-adv-x="412" 
d="M303 549v-418l83 -14v-117h-360v117l83 14v418l-83 14v117h360v-117zM101 812q0 39 31 66.5t73 27.5q44 0 75 -27.5t31 -66.5t-31 -66.5t-75 -27.5q-42 0 -73 27.5t-31 66.5z" />
    <glyph glyph-name="dotlessi" unicode="&#x131;" horiz-adv-x="386" 
d="M372 0h-351v117l83 14v233l-83 9v112l183 20h85v-374l83 -14v-117z" />
    <glyph glyph-name="IJ" unicode="&#x132;" horiz-adv-x="849" 
d="M303 549v-418l83 -14v-117h-360v117l83 14v418l-83 14v117h360v-117zM744 549v-442q0 -112 -115 -204l-104 -85l-115 138l80 66q2 1 12 9.5t12.5 11t10.5 10t10.5 13t7 13.5t6 17t1.5 20v433l-83 14v117h360v-117z" />
    <glyph glyph-name="ij" unicode="&#x133;" horiz-adv-x="722" 
d="M372 0h-351v117l83 14v233l-83 9v112l183 20h85v-374l83 -14v-117zM88 654q0 39 31 66.5t73 27.5q44 0 75 -27.5t31 -66.5t-31 -66.5t-75 -27.5q-42 0 -73 27.5t-31 66.5zM381 -119l69 78q21 23 26 39t5 56v310l-83 9v112l183 20h85v-431q0 -87 -11 -123.5t-62 -89.5
l-97 -99zM465 654q0 39 31 66.5t73 27.5q44 0 75 -27.5t31 -66.5t-31 -66.5t-75 -27.5q-42 0 -73 27.5t-31 66.5z" />
    <glyph glyph-name="Jcircumflex" unicode="&#x134;" horiz-adv-x="437" 
d="M332 549v-442q0 -112 -115 -204l-104 -85l-115 138l80 66q2 1 12 9.5t12.5 11t10.5 10t10.5 13t7 13.5t6 17t1.5 20v433l-83 14v117h360v-117zM168 745h-151l148 128h134l153 -128h-151l-68 64h-2z" />
    <glyph glyph-name="jcircumflex" unicode="&#x135;" horiz-adv-x="335" 
d="M-5 -103l69 78q21 23 26 39t5 56v294l-83 9v112l183 20h85v-415q0 -87 -11 -123.5t-62 -89.5l-97 -99zM118 585h-134l136 141h118l136 -141h-134l-60 76h-2z" />
    <glyph glyph-name="Kcommaaccent" unicode="&#x136;" horiz-adv-x="753" 
d="M746 0h-226l-68 131q-56 105 -74 149h-2l-73 -97v-52l73 -14v-117h-350v117l83 14v418l-83 13v118h311v-121l-34 -10v-120h2q6 11 66 82q6 7 12.5 14.5t14.5 15.5l12 12l-28 7v120h306v-117l-83 -14l-111 -134l169 -284l83 -14v-117zM482 -42q1 -5 1 -14q0 -94 -116 -166
l-77 26q17 25 29.5 61t12.5 63q0 11 -1 17z" />
    <glyph glyph-name="kcommaaccent" unicode="&#x137;" horiz-adv-x="668" 
d="M658 0h-208l-54 110q-31 64 -39 91h-2l-75 -65v-5l65 -12v-119h-333v117l83 14v448l-83 9v111l183 21h85v-420h2q17 23 53 57l31 30l-42 4v114h292v-114l-73 -15l-73 -71l105 -174l83 -14v-117zM446 -42q1 -5 1 -14q0 -94 -116 -166l-77 26q17 25 29.5 61t12.5 63
q0 11 -1 17z" />
    <glyph glyph-name="kgreenlandic" unicode="&#x138;" horiz-adv-x="677" 
d="M667 0h-208l-48 97q-31 60 -45 104h-2l-75 -65v-5l62 -12v-119h-330v117l83 14v233l-83 9v111l183 21h85v-206h2q5 10 51 56l33 32l-42 4v114h292v-113l-72 -15l-73 -72l104 -174l83 -14v-117z" />
    <glyph glyph-name="Lacute" unicode="&#x139;" horiz-adv-x="568" 
d="M548 0h-522v117l83 15v417l-83 14v117h360v-117l-83 -14v-389h104l10 79h131v-239zM254 745h-139l140 128h195z" />
    <glyph glyph-name="lacute" unicode="&#x13a;" horiz-adv-x="377" 
d="M95 131v448l-83 9v111l183 21h85v-589l83 -14v-117h-351v117zM226 765h-139l140 128h195z" />
    <glyph glyph-name="Lcommaaccent" unicode="&#x13b;" horiz-adv-x="568" 
d="M548 0h-522v117l83 15v417l-83 14v117h360v-117l-83 -14v-389h104l10 79h131v-239zM368 -42q1 -5 1 -14q0 -94 -116 -166l-77 26q17 25 29.5 61t12.5 63q0 11 -1 17z" />
    <glyph glyph-name="lcommaaccent" unicode="&#x13c;" horiz-adv-x="377" 
d="M95 131v448l-83 9v111l183 21h85v-589l83 -14v-117h-351v117zM270 -42q1 -5 1 -14q0 -94 -116 -166l-77 26q17 25 29.5 61t12.5 63q0 11 -1 17z" />
    <glyph glyph-name="Lcaron" unicode="&#x13d;" horiz-adv-x="564" 
d="M544 0h-522v117l83 15v417l-83 14v117h360v-117l-83 -14v-389h104l10 79h131v-239zM435 687l106 13q1 -4 1 -13q0 -44 -23 -93.5t-58 -79.5l-63 10q38 74 38 148q0 9 -1 15z" />
    <glyph glyph-name="lcaron" unicode="&#x13e;" horiz-adv-x="417" 
d="M95 131v448l-83 9v111l183 21h85v-589l83 -14v-117h-351v117zM366 727l106 13q1 -4 1 -13q0 -44 -23 -93.5t-58 -79.5l-63 10q38 74 38 148q0 9 -1 15z" />
    <glyph glyph-name="Ldot" unicode="&#x13f;" horiz-adv-x="568" 
d="M548 0h-522v117l83 15v417l-83 14v117h360v-117l-83 -14v-389h104l10 79h131v-239zM348 383q0 34 28 59t66 25q40 0 67.5 -24.5t27.5 -59.5t-27.5 -60t-67.5 -25q-38 0 -66 25t-28 60z" />
    <glyph glyph-name="ldot" unicode="&#x140;" horiz-adv-x="479" 
d="M95 131v448l-83 9v111l183 21h85v-589l83 -14v-117h-351v117zM324 401q0 39 31 66.5t73 27.5q44 0 75 -27.5t31 -66.5t-31 -66.5t-75 -27.5q-42 0 -73 27.5t-31 66.5z" />
    <glyph glyph-name="Lslash" unicode="&#x141;" horiz-adv-x="564" 
d="M39 187v156l66 35v171l-83 14v117h360v-117l-83 -14v-69l133 70v-155l-133 -71v-164h104l10 79h131v-239h-522v117l83 15v90z" />
    <glyph glyph-name="lslash" unicode="&#x142;" horiz-adv-x="377" 
d="M46 212v154l49 25v188l-83 9v111l183 21h85v-231l80 42v-154l-80 -42v-204l83 -14v-117h-351v117l83 14v106z" />
    <glyph glyph-name="Nacute" unicode="&#x143;" horiz-adv-x="799" 
d="M694 0h-171l-129 186q-42 62 -93 154h-2q4 -54 4 -140v-69l78 -14v-117h-355v118l83 13v418l-83 13v118h254l129 -186q48 -70 93 -155h2q-4 42 -4 144v66l-78 14v117h355v-117l-83 -14v-549zM438 745h-139l140 128h195z" />
    <glyph glyph-name="nacute" unicode="&#x144;" horiz-adv-x="677" 
d="M665 0h-268v318q0 51 -39 51q-42 0 -69 -53v-185l64 -14v-117h-332v117l83 14v233l-83 9v112l183 20h68l9 -72h2q15 36 59 60t87 24q72 0 112.5 -43t40.5 -121v-222l83 -14v-117zM373 585h-129l113 141h175z" />
    <glyph glyph-name="Ncommaaccent" unicode="&#x145;" horiz-adv-x="799" 
d="M694 0h-171l-129 186q-42 62 -93 154h-2q4 -54 4 -140v-69l78 -14v-117h-355v118l83 13v418l-83 13v118h254l129 -186q48 -70 93 -155h2q-4 42 -4 144v66l-78 14v117h355v-117l-83 -14v-549zM458 -42q1 -5 1 -14q0 -94 -116 -166l-77 26q17 25 29.5 61t12.5 63
q0 11 -1 17z" />
    <glyph glyph-name="ncommaaccent" unicode="&#x146;" horiz-adv-x="677" 
d="M665 0h-268v318q0 51 -39 51q-42 0 -69 -53v-185l64 -14v-117h-332v117l83 14v233l-83 9v112l183 20h68l9 -72h2q15 36 59 60t87 24q72 0 112.5 -43t40.5 -121v-222l83 -14v-117zM420 -42q1 -5 1 -14q0 -94 -116 -166l-77 26q17 25 29.5 61t12.5 63q0 11 -1 17z" />
    <glyph glyph-name="Ncaron" unicode="&#x147;" horiz-adv-x="799" 
d="M694 0h-171l-129 186q-42 62 -93 154h-2q4 -54 4 -140v-69l78 -14v-117h-355v118l83 13v418l-83 13v118h254l129 -186q48 -70 93 -155h2q-4 42 -4 144v66l-78 14v117h355v-117l-83 -14v-549zM172 873h151l63 -64h2l68 64h151l-153 -128h-134z" />
    <glyph glyph-name="ncaron" unicode="&#x148;" horiz-adv-x="677" 
d="M665 0h-268v318q0 51 -39 51q-42 0 -69 -53v-185l64 -14v-117h-332v117l83 14v233l-83 9v112l183 20h68l9 -72h2q15 36 59 60t87 24q72 0 112.5 -43t40.5 -121v-222l83 -14v-117zM125 726h134l60 -76h2l60 76h134l-136 -141h-118z" />
    <glyph glyph-name="napostrophe" unicode="&#x149;" horiz-adv-x="677" 
d="M665 0h-303v117l35 14v187q0 51 -39 51q-42 0 -69 -53v-185l46 -14v-117h-314v117l83 14v233l-83 9v112l183 20h68l9 -72h2q15 36 59 60t87 24q72 0 112.5 -43t40.5 -121v-222l83 -14v-117zM141 727l107 13v-13q0 -44 -23 -93.5t-58 -79.5l-64 10q39 73 39 148
q0 11 -1 15z" />
    <glyph glyph-name="Eng" unicode="&#x14a;" horiz-adv-x="793" 
d="M109 131v418l-83 13v118h254l124 -186q59 -88 95 -156h1q-3 58 -3 145v66l-78 14v117h352v-117l-80 -14v-363q0 -117 -37 -192.5t-106 -131.5l-55 -44l-105 128l68 58q15 13 19 23.5t4 31.5l-85 127q-54 80 -93 152h-2q4 -54 4 -138v-69l79 -14v-117h-356v118z" />
    <glyph glyph-name="eng" unicode="&#x14b;" horiz-adv-x="637" 
d="M343 -67l16 21q24 32 31 51.5t7 58.5v254q0 51 -39 51q-42 0 -69 -53v-185l59 -14v-117h-327v118l83 12v234l-83 9v112l183 20h68l9 -72h2q15 36 59 60t87 24q72 0 112.5 -43t40.5 -121v-229q0 -172 -76 -258l-43 -49z" />
    <glyph glyph-name="Omacron" unicode="&#x14c;" horiz-adv-x="688" 
d="M659 340q0 -168 -85 -260t-230 -92q-146 0 -230.5 92t-84.5 260t84.5 260t230.5 92q145 0 230 -92t85 -260zM460 340q0 90 -31.5 138.5t-84.5 48.5t-84.5 -48.5t-31.5 -138.5q0 -91 31.5 -139t84.5 -48t84.5 48t31.5 139zM174 762v94h340v-94h-340z" />
    <glyph glyph-name="omacron" unicode="&#x14d;" horiz-adv-x="557" 
d="M279 -12q-113 0 -184 69.5t-71 194.5q0 126 71 195.5t184 69.5q112 0 183 -69.5t71 -195.5q0 -125 -71 -194.5t-183 -69.5zM279 143q32 0 48 25t16 84q0 60 -16 85t-48 25q-33 0 -49 -25t-16 -85q0 -59 16 -84t49 -25zM109 606v94h340v-94h-340z" />
    <glyph glyph-name="Obreve" unicode="&#x14e;" horiz-adv-x="688" 
d="M659 340q0 -168 -85 -260t-230 -92q-146 0 -230.5 92t-84.5 260t84.5 260t230.5 92q145 0 230 -92t85 -260zM460 340q0 90 -31.5 138.5t-84.5 48.5t-84.5 -48.5t-31.5 -138.5q0 -91 31.5 -139t84.5 -48t84.5 48t31.5 139zM171 873h92q1 -25 25 -43.5t56 -18.5t56 18.5
t25 43.5h92q0 -55 -51 -93t-122 -38t-122 38t-51 93z" />
    <glyph glyph-name="obreve" unicode="&#x14f;" horiz-adv-x="557" 
d="M279 -12q-113 0 -184 69.5t-71 194.5q0 126 71 195.5t184 69.5q112 0 183 -69.5t71 -195.5q0 -125 -71 -194.5t-183 -69.5zM279 143q32 0 48 25t16 84q0 60 -16 85t-48 25q-33 0 -49 -25t-16 -85q0 -59 16 -84t49 -25zM106 727h92q1 -28 25 -48t56 -20t56 20t25 48h92
q0 -61 -51 -104.5t-122 -43.5t-122 43.5t-51 104.5z" />
    <glyph glyph-name="Ohungarumlaut" unicode="&#x150;" horiz-adv-x="688" 
d="M659 340q0 -168 -85 -260t-230 -92q-146 0 -230.5 92t-84.5 260t84.5 260t230.5 92q145 0 230 -92t85 -260zM460 340q0 90 -31.5 138.5t-84.5 48.5t-84.5 -48.5t-31.5 -138.5q0 -91 31.5 -139t84.5 -48t84.5 48t31.5 139zM524 745h-134l140 128h190zM295 745h-134
l140 128h190z" />
    <glyph glyph-name="ohungarumlaut" unicode="&#x151;" horiz-adv-x="557" 
d="M279 -12q-113 0 -184 69.5t-71 194.5q0 126 71 195.5t184 69.5q112 0 183 -69.5t71 -195.5q0 -125 -71 -194.5t-183 -69.5zM279 143q32 0 48 25t16 84q0 60 -16 85t-48 25q-33 0 -49 -25t-16 -85q0 -59 16 -84t49 -25zM225 585h-114l130 158h160zM453 585h-115l130 158
h161z" />
    <glyph glyph-name="OE" unicode="&#x152;" horiz-adv-x="952" 
d="M29 340q0 168 84.5 260t230.5 92q65 0 96 -12h455v-196h-132l-10 39h-119v-99h103l8 22h111v-194h-111l-8 26h-103v-119h138l9 51h132v-210h-473q-40 -12 -96 -12q-146 0 -230.5 92t-84.5 260zM228 340q0 -91 32 -139.5t84 -48.5q62 0 96 10v351q-40 16 -96 16
q-52 0 -84 -49.5t-32 -139.5z" />
    <glyph glyph-name="oe" unicode="&#x153;" horiz-adv-x="840" 
d="M24 252q0 126 72.5 195.5t185.5 69.5q44 0 83.5 -20.5t61.5 -50.5h2q19 30 66 50.5t95 20.5q116 0 173 -69t57 -199v-41h-311q0 -31 33 -56t73 -25q77 0 152 20l31 -133q-86 -24 -178 -24q-60 0 -114.5 21t-73.5 51h-2q-19 -29 -62 -51.5t-86 -22.5q-113 0 -185.5 69.5
t-72.5 194.5zM214 252q0 -109 65 -109q33 0 49 24t16 85t-16.5 85.5t-48.5 24.5q-65 0 -65 -110zM509 316h162q0 37 -24.5 58.5t-56.5 21.5q-29 0 -55 -22t-26 -58z" />
    <glyph glyph-name="Racute" unicode="&#x154;" horiz-adv-x="701" 
d="M691 0h-233l-90 237h-65v-106l73 -14v-117h-350v117l83 14v418l-83 14v117h337q140 0 205 -55.5t65 -165.5q0 -125 -92 -181v-2q18 -32 49 -103l18 -41l83 -15v-117zM434 459q0 28 -17.5 44.5t-47.5 16.5h-66v-122h67q30 0 47 16.5t17 44.5zM377 745h-139l140 128h195z
" />
    <glyph glyph-name="racute" unicode="&#x155;" horiz-adv-x="519" 
d="M507 291h-112l-9 68q-1 1 -11 1q-31 0 -55 -23t-31 -60v-146l93 -14v-117h-361v117l83 14v233l-83 9v112l183 20h65l4 -84h2q7 37 44.5 65.5t76.5 28.5q57 0 111 -25v-199zM296 585h-129l113 141h175z" />
    <glyph glyph-name="Rcommaaccent" unicode="&#x156;" horiz-adv-x="701" 
d="M691 0h-233l-90 237h-65v-106l73 -14v-117h-350v117l83 14v418l-83 14v117h337q140 0 205 -55.5t65 -165.5q0 -125 -92 -181v-2q18 -32 49 -103l18 -41l83 -15v-117zM434 459q0 28 -17.5 44.5t-47.5 16.5h-66v-122h67q30 0 47 16.5t17 44.5zM439 -42q1 -5 1 -14
q0 -94 -116 -166l-77 26q17 25 29.5 61t12.5 63q0 11 -1 17z" />
    <glyph glyph-name="rcommaaccent" unicode="&#x157;" horiz-adv-x="519" 
d="M507 291h-112l-9 68q-1 1 -11 1q-31 0 -55 -23t-31 -60v-146l93 -14v-117h-361v117l83 14v233l-83 9v112l183 20h65l4 -84h2q7 37 44.5 65.5t76.5 28.5q57 0 111 -25v-199zM280 -42q1 -5 1 -14q0 -94 -116 -166l-77 26q17 25 29.5 61t12.5 63q0 11 -1 17z" />
    <glyph glyph-name="Rcaron" unicode="&#x158;" horiz-adv-x="701" 
d="M691 0h-233l-90 237h-65v-106l73 -14v-117h-350v117l83 14v418l-83 14v117h337q140 0 205 -55.5t65 -165.5q0 -125 -92 -181v-2q18 -32 49 -103l18 -41l83 -15v-117zM434 459q0 28 -17.5 44.5t-47.5 16.5h-66v-122h67q30 0 47 16.5t17 44.5zM111 873h151l63 -64h2l68 64
h151l-153 -128h-134z" />
    <glyph glyph-name="rcaron" unicode="&#x159;" horiz-adv-x="519" 
d="M507 291h-112l-9 68q-1 1 -11 1q-31 0 -55 -23t-31 -60v-146l93 -14v-117h-361v117l83 14v233l-83 9v112l183 20h65l4 -84h2q7 37 44.5 65.5t76.5 28.5q57 0 111 -25v-199zM48 726h134l60 -76h2l60 76h134l-136 -141h-118z" />
    <glyph glyph-name="Sacute" unicode="&#x15a;" horiz-adv-x="578" 
d="M543 222q0 -48 -13.5 -87.5t-44.5 -73t-88 -52.5t-136 -19q-84 0 -224 43v206h135l13 -79q36 -12 76 -12q83 0 83 54q0 20 -17 34.5t-60 26.5q-52 14 -86.5 28.5t-67.5 39.5t-49.5 62.5t-16.5 88.5q0 97 72.5 152.5t203.5 55.5q75 0 187 -30v-202h-132l-16 71
q-19 7 -44 7q-74 0 -74 -47q0 -11 6 -19t21 -14.5t25.5 -10t32.5 -9.5q50 -14 83.5 -28.5t66 -38.5t48.5 -61t16 -86zM347 745h-139l140 128h195z" />
    <glyph glyph-name="sacute" unicode="&#x15b;" horiz-adv-x="451" 
d="M427 166q0 -80 -53 -128t-170 -48q-82 0 -174 25v173h116l11 -48q22 -5 36 -5q64 0 64 25q0 7 -3 12t-12 9.5t-13.5 6.5t-18 5.5t-15.5 4.5q-78 23 -117 56t-39 102q0 72 55 117t145 45q88 0 162 -23v-148h-112l-9 37q-8 2 -17 2q-25 0 -36.5 -8t-11.5 -18q0 -14 12 -20
t40 -12q21 -5 38 -10t41.5 -17.5t40.5 -29t28 -44t12 -61.5zM286 585h-129l113 141h175z" />
    <glyph glyph-name="Scircumflex" unicode="&#x15c;" horiz-adv-x="578" 
d="M543 222q0 -48 -13.5 -87.5t-44.5 -73t-88 -52.5t-136 -19q-84 0 -224 43v206h135l13 -79q36 -12 76 -12q83 0 83 54q0 20 -17 34.5t-60 26.5q-52 14 -86.5 28.5t-67.5 39.5t-49.5 62.5t-16.5 88.5q0 97 72.5 152.5t203.5 55.5q75 0 187 -30v-202h-132l-16 71
q-19 7 -44 7q-74 0 -74 -47q0 -11 6 -19t21 -14.5t25.5 -10t32.5 -9.5q50 -14 83.5 -28.5t66 -38.5t48.5 -61t16 -86zM232 745h-151l148 128h134l153 -128h-151l-68 64h-2z" />
    <glyph glyph-name="scircumflex" unicode="&#x15d;" horiz-adv-x="451" 
d="M427 166q0 -80 -53 -128t-170 -48q-82 0 -174 25v173h116l11 -48q22 -5 36 -5q64 0 64 25q0 7 -3 12t-12 9.5t-13.5 6.5t-18 5.5t-15.5 4.5q-78 23 -117 56t-39 102q0 72 55 117t145 45q88 0 162 -23v-148h-112l-9 37q-8 2 -17 2q-25 0 -36.5 -8t-11.5 -18q0 -14 12 -20
t40 -12q21 -5 38 -10t41.5 -17.5t40.5 -29t28 -44t12 -61.5zM172 585h-134l136 141h118l136 -141h-134l-60 76h-2z" />
    <glyph glyph-name="Scedilla" unicode="&#x15e;" horiz-adv-x="578" 
d="M394 -119q0 -47 -32 -74t-79 -27q-66 0 -106 21l27 64q45 -16 65 -16q40 0 40 27q0 12 -6 19t-22 10.5t-31 4.5t-44 2l26 79q-75 5 -195 42v206h135l13 -79q36 -12 76 -12q83 0 83 54q0 20 -17 34.5t-60 26.5q-52 14 -86.5 28.5t-67.5 39.5t-49.5 62.5t-16.5 88.5
q0 97 72.5 152.5t203.5 55.5q75 0 187 -30v-202h-132l-16 71q-19 7 -44 7q-74 0 -74 -47q0 -11 6 -19t21 -14.5t25.5 -10t32.5 -9.5q50 -14 83.5 -28.5t66 -38.5t48.5 -61t16 -86q0 -44 -11.5 -81t-37.5 -69.5t-73.5 -53.5t-113.5 -26l-9 -25v-2q43 -2 69.5 -26t26.5 -58z
" />
    <glyph glyph-name="scedilla" unicode="&#x15f;" horiz-adv-x="451" 
d="M332 -119q0 -47 -32 -74t-79 -27q-66 0 -106 21l27 64q45 -16 65 -16q40 0 40 27q0 12 -6 19t-22 10.5t-31 4.5t-44 2l26 79q-70 5 -140 24v173h116l11 -48q22 -5 36 -5q64 0 64 25q0 7 -3 12t-12 9.5t-13.5 6.5t-18 5.5t-15.5 4.5q-78 23 -117 56t-39 102q0 72 55 117
t145 45q88 0 162 -23v-148h-112l-9 37q-8 2 -17 2q-25 0 -36.5 -8t-11.5 -18q0 -14 12 -20t40 -12q21 -5 38 -10t41.5 -17.5t40.5 -29t28 -44t12 -61.5q0 -73 -43.5 -119t-138.5 -55l-9 -25v-2q43 -2 69.5 -26t26.5 -58z" />
    <glyph glyph-name="Scaron" unicode="&#x160;" horiz-adv-x="578" 
d="M543 222q0 -48 -13.5 -87.5t-44.5 -73t-88 -52.5t-136 -19q-84 0 -224 43v206h135l13 -79q36 -12 76 -12q83 0 83 54q0 20 -17 34.5t-60 26.5q-52 14 -86.5 28.5t-67.5 39.5t-49.5 62.5t-16.5 88.5q0 97 72.5 152.5t203.5 55.5q75 0 187 -30v-202h-132l-16 71
q-19 7 -44 7q-74 0 -74 -47q0 -11 6 -19t21 -14.5t25.5 -10t32.5 -9.5q50 -14 83.5 -28.5t66 -38.5t48.5 -61t16 -86zM81 873h151l63 -64h2l68 64h151l-153 -128h-134z" />
    <glyph glyph-name="scaron" unicode="&#x161;" horiz-adv-x="451" 
d="M427 166q0 -80 -53 -128t-170 -48q-82 0 -174 25v173h116l11 -48q22 -5 36 -5q64 0 64 25q0 7 -3 12t-12 9.5t-13.5 6.5t-18 5.5t-15.5 4.5q-78 23 -117 56t-39 102q0 72 55 117t145 45q88 0 162 -23v-148h-112l-9 37q-8 2 -17 2q-25 0 -36.5 -8t-11.5 -18q0 -14 12 -20
t40 -12q21 -5 38 -10t41.5 -17.5t40.5 -29t28 -44t12 -61.5zM38 726h134l60 -76h2l60 76h134l-136 -141h-118z" />
    <glyph glyph-name="Tcommaaccent" unicode="&#x162;" horiz-adv-x="646" 
d="M628 446h-132l-16 74h-59v-389l83 -14v-117h-360v117l83 14v389h-61l-16 -74h-132v234h610v-234zM408 -42q1 -5 1 -14q0 -94 -116 -166l-77 26q17 25 29.5 61t12.5 63q0 11 -1 17z" />
    <glyph glyph-name="tcommaaccent" unicode="&#x163;" horiz-adv-x="431" 
d="M429 20q-86 -30 -178 -30q-76 0 -126.5 36.5t-50.5 109.5v229h-66v140h66v93l185 53v-146h127v-140h-127v-169q0 -27 11 -40t28 -13q36 0 90 17zM305 -42q1 -5 1 -14q0 -94 -116 -166l-77 26q17 25 29.5 61t12.5 63q0 11 -1 17z" />
    <glyph glyph-name="Tcaron" unicode="&#x164;" horiz-adv-x="646" 
d="M628 446h-132l-16 74h-59v-389l83 -14v-117h-360v117l83 14v389h-61l-16 -74h-132v234h610v-234zM105 873h151l63 -64h2l68 64h151l-153 -128h-134z" />
    <glyph glyph-name="tcaron" unicode="&#x165;" horiz-adv-x="449" 
d="M429 20q-86 -30 -178 -30q-76 0 -126.5 36.5t-50.5 109.5v229h-66v140h66v93l185 53v-146h127v-140h-127v-169q0 -27 11 -40t28 -13q36 0 90 17zM369 727l106 13q1 -4 1 -13q0 -44 -23 -93.5t-58 -79.5l-63 10q38 74 38 148q0 9 -1 15z" />
    <glyph glyph-name="Tbar" unicode="&#x166;" horiz-adv-x="646" 
d="M628 446h-132l-16 74h-59v-109h117v-123h-117v-157l83 -14v-117h-360v117l83 14v157h-119v123h119v109h-61l-16 -74h-132v234h610v-234z" />
    <glyph glyph-name="tbar" unicode="&#x167;" horiz-adv-x="431" 
d="M14 201v110h60v54h-66v140h66v93l185 53v-146h127v-140h-127v-54h89v-110h-89v-5q0 -27 11 -40t28 -13q36 0 90 17l41 -140q-86 -30 -178 -30q-76 0 -126.5 36.5t-50.5 109.5v65h-60z" />
    <glyph glyph-name="Utilde" unicode="&#x168;" horiz-adv-x="763" 
d="M665 244q0 -127 -75.5 -191.5t-208.5 -64.5q-132 0 -207.5 65t-75.5 191v305l-83 14v117h339v-117l-62 -15v-283q0 -112 89 -112q90 0 90 112v284l-62 14v117h339v-117l-83 -14v-305zM597 798q-82 -57 -147 -57q-36 0 -76.5 20.5t-63.5 20.5q-34 0 -89 -39l-57 77
q85 57 146 57q38 0 77.5 -21t62.5 -21q31 0 89 41z" />
    <glyph glyph-name="utilde" unicode="&#x169;" horiz-adv-x="661" 
d="M647 16l-161 -18h-83l-13 69h-2q-19 -37 -59.5 -58t-83.5 -21q-71 0 -111 43t-40 121v212l-83 9v112l183 20h85v-318q0 -51 36 -51q25 0 38.5 11.5t25.5 36.5v180l-56 9v111l156 21h85v-375l83 -13v-101zM511 645q-75 -68 -133 -68q-33 0 -69.5 24t-58.5 24
q-18 0 -34 -10t-45 -36l-53 82q76 67 132 67q35 0 71 -24t57 -24q18 0 34.5 10.5t44.5 35.5z" />
    <glyph glyph-name="Umacron" unicode="&#x16a;" horiz-adv-x="763" 
d="M665 244q0 -127 -75.5 -191.5t-208.5 -64.5q-132 0 -207.5 65t-75.5 191v305l-83 14v117h339v-117l-62 -15v-283q0 -112 89 -112q90 0 90 112v284l-62 14v117h339v-117l-83 -14v-305zM211 762v94h340v-94h-340z" />
    <glyph glyph-name="umacron" unicode="&#x16b;" horiz-adv-x="661" 
d="M647 16l-161 -18h-83l-13 69h-2q-19 -37 -59.5 -58t-83.5 -21q-71 0 -111 43t-40 121v212l-83 9v112l183 20h85v-318q0 -51 36 -51q25 0 38.5 11.5t25.5 36.5v180l-56 9v111l156 21h85v-375l83 -13v-101zM145 606v94h340v-94h-340z" />
    <glyph glyph-name="Ubreve" unicode="&#x16c;" horiz-adv-x="763" 
d="M665 244q0 -127 -75.5 -191.5t-208.5 -64.5q-132 0 -207.5 65t-75.5 191v305l-83 14v117h339v-117l-62 -15v-283q0 -112 89 -112q90 0 90 112v284l-62 14v117h339v-117l-83 -14v-305zM208 873h92q1 -25 25 -43.5t56 -18.5t56 18.5t25 43.5h92q0 -55 -51 -93t-122 -38
t-122 38t-51 93z" />
    <glyph glyph-name="ubreve" unicode="&#x16d;" horiz-adv-x="661" 
d="M647 16l-161 -18h-83l-13 69h-2q-19 -37 -59.5 -58t-83.5 -21q-71 0 -111 43t-40 121v212l-83 9v112l183 20h85v-318q0 -51 36 -51q25 0 38.5 11.5t25.5 36.5v180l-56 9v111l156 21h85v-375l83 -13v-101zM142 727h92q1 -28 25 -48t56 -20t56 20t25 48h92
q0 -61 -51 -104.5t-122 -43.5t-122 43.5t-51 104.5z" />
    <glyph glyph-name="Uring" unicode="&#x16e;" horiz-adv-x="763" 
d="M665 244q0 -127 -75.5 -191.5t-208.5 -64.5q-132 0 -207.5 65t-75.5 191v305l-83 14v117h339v-117l-62 -15v-283q0 -112 89 -112q90 0 90 112v284l-62 14v117h339v-117l-83 -14v-305zM252 833q0 53 38 92t90 39t90.5 -39t38.5 -92t-38 -91.5t-91 -38.5q-52 0 -90 38.5
t-38 91.5zM331 833q0 -25 14 -42t35 -17t35.5 17t14.5 42t-14.5 42.5t-35.5 17.5t-35 -17.5t-14 -42.5z" />
    <glyph glyph-name="uring" unicode="&#x16f;" horiz-adv-x="661" 
d="M647 16l-161 -18h-83l-13 69h-2q-19 -37 -59.5 -58t-83.5 -21q-71 0 -111 43t-40 121v212l-83 9v112l183 20h85v-318q0 -51 36 -51q25 0 38.5 11.5t25.5 36.5v180l-56 9v111l156 21h85v-375l83 -13v-101zM186 669q0 53 38 92t90 39t90.5 -39t38.5 -92t-38 -91.5
t-91 -38.5q-52 0 -90 38.5t-38 91.5zM265 669q0 -25 14 -42t35 -17t35.5 17t14.5 42t-14.5 42.5t-35.5 17.5t-35 -17.5t-14 -42.5z" />
    <glyph glyph-name="Uhungarumlaut" unicode="&#x170;" horiz-adv-x="763" 
d="M665 244q0 -127 -75.5 -191.5t-208.5 -64.5q-132 0 -207.5 65t-75.5 191v305l-83 14v117h339v-117l-62 -15v-283q0 -112 89 -112q90 0 90 112v284l-62 14v117h339v-117l-83 -14v-305zM561 745h-134l140 128h190zM332 745h-134l140 128h190z" />
    <glyph glyph-name="uhungarumlaut" unicode="&#x171;" horiz-adv-x="661" 
d="M647 16l-161 -18h-83l-13 69h-2q-19 -37 -59.5 -58t-83.5 -21q-71 0 -111 43t-40 121v212l-83 9v112l183 20h85v-318q0 -51 36 -51q25 0 38.5 11.5t25.5 36.5v180l-56 9v111l156 21h85v-375l83 -13v-101zM261 585h-114l130 158h160zM489 585h-115l130 158h161z" />
    <glyph glyph-name="Uogonek" unicode="&#x172;" horiz-adv-x="763" 
d="M260 -121q0 28 22.5 58.5t60.5 52.5q-115 8 -180 72.5t-65 181.5v305l-83 14v117h339v-117l-62 -15v-283q0 -112 89 -112q90 0 90 112v284l-62 14v117h339v-117l-83 -14v-305q0 -100 -48 -161.5t-136 -83.5q-37 -21 -60.5 -48.5t-23.5 -47.5q0 -14 8 -24.5t22 -10.5
q12 0 26 4l19 -77q-39 -15 -77 -15q-61 0 -98 25t-37 74z" />
    <glyph glyph-name="uogonek" unicode="&#x173;" horiz-adv-x="661" 
d="M298 -121q0 33 29 67.5t75 54.5l-12 66h-2q-19 -37 -59.5 -58t-83.5 -21q-71 0 -111 43t-40 121v212l-83 9v112l183 20h85v-318q0 -51 36 -51q25 0 38.5 11.5t25.5 36.5v180l-56 9v111l156 21h85v-375l83 -13v-101l-122 -14q-39 -21 -64.5 -49.5t-25.5 -49.5
q0 -14 8 -24.5t22 -10.5q12 0 26 4l19 -77q-39 -15 -77 -15q-61 0 -98 25t-37 74z" />
    <glyph glyph-name="Wcircumflex" unicode="&#x174;" horiz-adv-x="987" 
d="M904 548l-155 -548h-192l-38 158q-20 87 -26 130h-2q-2 -20 -28 -133l-37 -155h-193l-150 549l-73 14v117h333v-117l-72 -14l20 -98q40 -193 42 -209h2q18 108 40 196l62 242h114l61 -237q15 -59 42 -201h2q4 29 39 195l23 111l-71 15v117h330v-117zM425 745h-151
l148 128h134l153 -128h-151l-68 64h-2z" />
    <glyph glyph-name="wcircumflex" unicode="&#x175;" horiz-adv-x="834" 
d="M754 376l-124 -376h-149l-28 87q-25 76 -34 129h-2q-9 -48 -34 -128l-28 -88h-149l-126 376l-73 15v114h293v-119l-46 -10l15 -48q18 -56 27 -109h2q12 71 39 166l34 120h97l34 -120q12 -43 38 -166h2q8 45 30 115l13 42l-46 10v119h288v-114zM356 585h-134l136 141h118
l136 -141h-134l-60 76h-2z" />
    <glyph glyph-name="Ycircumflex" unicode="&#x176;" horiz-adv-x="724" 
d="M641 549l-182 -326v-92l83 -14v-117h-360v117l83 14v92l-182 327l-73 13v117h328v-122l-44 -9l22 -48q31 -71 46 -116h2q18 66 45 116l23 44l-44 12v123h326v-117zM296 745h-151l148 128h134l153 -128h-151l-68 64h-2z" />
    <glyph glyph-name="ycircumflex" unicode="&#x177;" horiz-adv-x="663" 
d="M583 376l-98 -224q-39 -89 -86.5 -164.5t-84.5 -111.5l-122 -120l-108 113l55 57q49 48 86 101l-145 349l-73 15v114h302v-122l-41 -7l22 -62q21 -59 40 -137h2q10 42 45 139l21 59l-41 8v122h299v-114zM269 585h-134l136 141h118l136 -141h-134l-60 76h-2z" />
    <glyph glyph-name="Ydieresis" unicode="&#x178;" horiz-adv-x="724" 
d="M641 549l-182 -326v-92l83 -14v-117h-360v117l83 14v92l-182 327l-73 13v117h328v-122l-44 -9l22 -48q31 -71 46 -116h2q18 66 45 116l23 44l-44 12v123h326v-117zM136 809q0 35 28 60t66 25q40 0 68 -25t28 -60t-28 -60t-68 -25q-38 0 -66 25t-28 60zM400 809
q0 35 28 60t66 25q40 0 68 -25t28 -60t-28 -60t-68 -25q-38 0 -66 25t-28 60z" />
    <glyph glyph-name="Zacute" unicode="&#x179;" horiz-adv-x="583" 
d="M553 0h-521v145l188 251q15 20 100 122v2h-113l-16 -74h-132v234h483v-146l-203 -271q-48 -63 -81 -101v-2h147l13 79h135v-239zM350 745h-139l140 128h195z" />
    <glyph glyph-name="zacute" unicode="&#x17a;" horiz-adv-x="518" 
d="M488 0h-456v135l133 128q41 40 99 90v2h-94l-9 -53h-112v203h435v-135l-170 -163q-37 -35 -63 -56v-2h110l11 63h116v-212zM326 585h-129l113 141h175z" />
    <glyph glyph-name="Zdotaccent" unicode="&#x17b;" horiz-adv-x="583" 
d="M553 0h-521v145l188 251q15 20 100 122v2h-113l-16 -74h-132v234h483v-146l-203 -271q-48 -63 -81 -101v-2h147l13 79h135v-239zM197 812q0 39 31 66.5t73 27.5q44 0 75 -27.5t31 -66.5t-31 -66.5t-75 -27.5q-42 0 -73 27.5t-31 66.5z" />
    <glyph glyph-name="zdotaccent" unicode="&#x17c;" horiz-adv-x="518" 
d="M488 0h-456v135l133 128q41 40 99 90v2h-94l-9 -53h-112v203h435v-135l-170 -163q-37 -35 -63 -56v-2h110l11 63h116v-212zM168 654q0 39 31 66.5t73 27.5q44 0 75 -27.5t31 -66.5t-31 -66.5t-75 -27.5q-42 0 -73 27.5t-31 66.5z" />
    <glyph glyph-name="Zcaron" unicode="&#x17d;" horiz-adv-x="583" 
d="M553 0h-521v145l188 251q15 20 100 122v2h-113l-16 -74h-132v234h483v-146l-203 -271q-48 -63 -81 -101v-2h147l13 79h135v-239zM84 873h151l63 -64h2l68 64h151l-153 -128h-134z" />
    <glyph glyph-name="zcaron" unicode="&#x17e;" horiz-adv-x="518" 
d="M488 0h-456v135l133 128q41 40 99 90v2h-94l-9 -53h-112v203h435v-135l-170 -163q-37 -35 -63 -56v-2h110l11 63h116v-212zM78 726h134l60 -76h2l60 76h134l-136 -141h-118z" />
    <glyph glyph-name="florin" unicode="&#x192;" horiz-adv-x="580" 
d="M117 262v146h82l25 125q13 65 71 100.5t129 35.5q55 0 137 -21l-50 -140q-41 11 -73 11q-41 0 -48 -42l-12 -69h98v-146h-120l-33 -183q-20 -112 -69 -168t-136 -56q-70 0 -125 15l29 129q32 -7 49 -7q33 0 50.5 25.5t28.5 92.5l26 152h-59z" />
    <glyph glyph-name="AEacute" unicode="&#x1fc;" horiz-adv-x="948" 
d="M909 0h-534v119l60 12v49h-147l-19 -49l60 -12v-119h-339v117l83 15l201 417l-75 14v117h692v-196h-132l-10 39h-119v-99h103l8 22h111v-194h-111l-8 26h-103v-119h138l9 51h132v-210zM354 324h81v77q0 73 2 127h-2q-24 -65 -50 -127zM580 745h-139l140 128h195z" />
    <glyph glyph-name="aeacute" unicode="&#x1fd;" horiz-adv-x="801" 
d="M30 145q0 75 38 117.5t117 42.5q29 0 67.5 -6t61.5 -6v28q0 53 -81 53q-23 0 -40 -5l-9 -32h-123v145q100 33 192 33q45 0 85 -20t55 -47h2q19 29 63 49t85 20q238 0 238 -268v-41h-311q0 -31 33 -56t73 -25q77 0 152 20l31 -133q-86 -24 -184 -24q-66 0 -118.5 22.5
t-76.5 56.5h-2q-18 -36 -68 -58.5t-124 -22.5q-75 0 -115.5 44t-40.5 113zM205 164q0 -54 44 -54q45 0 87 29q-17 33 -21 62q-11 0 -30 3.5t-31 3.5q-49 0 -49 -44zM470 316h162q0 37 -24 58.5t-57 21.5q-28 0 -54.5 -22t-26.5 -58zM453 585h-129l113 141h175z" />
    <glyph glyph-name="Oslashacute" unicode="&#x1fe;" horiz-adv-x="698" 
d="M48 6l60 89q-79 101 -79 245q0 168 86.5 260t232.5 92q83 0 149 -34l53 78l99 -64l-60 -88q80 -100 80 -244q0 -168 -87.5 -260t-233.5 -92q-81 0 -147 33l-53 -78zM226 340q0 -26 8 -55h2l160 226q-22 16 -48 16q-53 0 -87.5 -49t-34.5 -138zM472 340q0 23 -10 55h-2
l-159 -227q22 -15 47 -15q54 0 89 48.5t35 138.5zM401 730h-129l113 141h175z" />
    <glyph glyph-name="oslashacute" unicode="&#x1ff;" horiz-adv-x="568" 
d="M24 252q0 125 74 195t187 70q71 0 126 -30l41 59l52 -36l-41 -59q82 -75 82 -199q0 -125 -73.5 -194.5t-186.5 -69.5q-68 0 -130 30l-43 -62l-49 38l42 60q-81 75 -81 198zM361 252q0 19 -6 43h-2l-107 -147q16 -13 39 -13q76 0 76 117zM208 252q0 -23 5 -41h2l107 147
q-16 12 -37 12q-77 0 -77 -118zM338 585h-129l113 141h175z" />
    <glyph glyph-name="Scommaaccent" unicode="&#x218;" horiz-adv-x="578" 
d="M543 222q0 -48 -13.5 -87.5t-44.5 -73t-88 -52.5t-136 -19q-84 0 -224 43v206h135l13 -79q36 -12 76 -12q83 0 83 54q0 20 -17 34.5t-60 26.5q-52 14 -86.5 28.5t-67.5 39.5t-49.5 62.5t-16.5 88.5q0 97 72.5 152.5t203.5 55.5q75 0 187 -30v-202h-132l-16 71
q-19 7 -44 7q-74 0 -74 -47q0 -11 6 -19t21 -14.5t25.5 -10t32.5 -9.5q50 -14 83.5 -28.5t66 -38.5t48.5 -61t16 -86zM370 -42q1 -5 1 -14q0 -94 -116 -166l-77 26q17 25 29.5 61t12.5 63q0 11 -1 17z" />
    <glyph glyph-name="scommaaccent" unicode="&#x219;" horiz-adv-x="451" 
d="M427 166q0 -80 -53 -128t-170 -48q-82 0 -174 25v173h116l11 -48q22 -5 36 -5q64 0 64 25q0 7 -3 12t-12 9.5t-13.5 6.5t-18 5.5t-15.5 4.5q-78 23 -117 56t-39 102q0 72 55 117t145 45q88 0 162 -23v-148h-112l-9 37q-8 2 -17 2q-25 0 -36.5 -8t-11.5 -18q0 -14 12 -20
t40 -12q21 -5 38 -10t41.5 -17.5t40.5 -29t28 -44t12 -61.5zM308 -42q1 -5 1 -14q0 -94 -116 -166l-77 26q17 25 29.5 61t12.5 63q0 11 -1 17z" />
    <glyph glyph-name="uni021A" unicode="&#x21a;" horiz-adv-x="646" 
d="M628 446h-132l-16 74h-59v-389l83 -14v-117h-360v117l83 14v389h-61l-16 -74h-132v234h610v-234zM408 -42q1 -5 1 -14q0 -94 -116 -166l-77 26q17 25 29.5 61t12.5 63q0 11 -1 17z" />
    <glyph glyph-name="uni021B" unicode="&#x21b;" horiz-adv-x="431" 
d="M429 20q-86 -30 -178 -30q-76 0 -126.5 36.5t-50.5 109.5v229h-66v140h66v93l185 53v-146h127v-140h-127v-169q0 -27 11 -40t28 -13q36 0 90 17zM305 -42q1 -5 1 -14q0 -94 -116 -166l-77 26q17 25 29.5 61t12.5 63q0 11 -1 17z" />
    <glyph glyph-name="dotlessj" unicode="&#x237;" horiz-adv-x="335" 
d="M-5 -103l69 78q21 23 26 39t5 56v294l-83 9v112l183 20h85v-415q0 -87 -11 -123.5t-62 -89.5l-97 -99z" />
    <glyph glyph-name="circumflex" unicode="&#x2c6;" horiz-adv-x="500" 
d="M189 585h-134l136 141h118l136 -141h-134l-60 76h-2z" />
    <glyph glyph-name="caron" unicode="&#x2c7;" horiz-adv-x="500" 
d="M55 726h134l60 -76h2l60 76h134l-136 -141h-118z" />
    <glyph glyph-name="uni02C9" unicode="&#x2c9;" horiz-adv-x="500" 
d="M80 606v94h340v-94h-340z" />
    <glyph glyph-name="breve" unicode="&#x2d8;" horiz-adv-x="500" 
d="M77 727h92q1 -28 25 -48t56 -20t56 20t25 48h92q0 -61 -51 -104.5t-122 -43.5t-122 43.5t-51 104.5z" />
    <glyph glyph-name="dotaccent" unicode="&#x2d9;" horiz-adv-x="500" 
d="M145 654q0 39 31 66.5t73 27.5q44 0 75 -27.5t31 -66.5t-31 -66.5t-75 -27.5q-42 0 -73 27.5t-31 66.5z" />
    <glyph glyph-name="ring" unicode="&#x2da;" horiz-adv-x="500" 
d="M121 669q0 53 38 92t90 39t90.5 -39t38.5 -92t-38 -91.5t-91 -38.5q-52 0 -90 38.5t-38 91.5zM200 669q0 -25 14 -42t35 -17t35.5 17t14.5 42t-14.5 42.5t-35.5 17.5t-35 -17.5t-14 -42.5z" />
    <glyph glyph-name="ogonek" unicode="&#x2db;" horiz-adv-x="500" 
d="M94 -121q0 35 33 71t82 55h117q-41 -22 -68 -51.5t-27 -50.5q0 -14 8 -24.5t22 -10.5q12 0 26 4l19 -77q-39 -15 -77 -15q-61 0 -98 25t-37 74z" />
    <glyph glyph-name="tilde" unicode="&#x2dc;" horiz-adv-x="500" 
d="M446 645q-75 -68 -133 -68q-33 0 -69.5 24t-58.5 24q-18 0 -34 -10t-45 -36l-53 82q76 67 132 67q35 0 71 -24t57 -24q18 0 34.5 10.5t44.5 35.5z" />
    <glyph glyph-name="hungarumlaut" unicode="&#x2dd;" horiz-adv-x="500" 
d="M196 585h-114l130 158h160zM424 585h-115l130 158h161z" />
    <glyph glyph-name="uni0394" unicode="&#x394;" horiz-adv-x="647" 
d="M617 0h-587v126l181 554h225l181 -554v-126zM208 145h229l-43 140q-37 122 -70 253h-2q-39 -155 -70 -251z" />
    <glyph glyph-name="uni03A9" unicode="&#x3a9;" horiz-adv-x="868" 
d="M10 0v211h135l10 -51h73v3q-52 31 -83 84.5t-31 119.5q0 152 87.5 238.5t232.5 86.5t232.5 -86.5t87.5 -238.5q0 -66 -31 -119.5t-83 -84.5v-3h73l10 50h135v-210h-391v140q50 56 69 102t19 110q0 88 -33 131.5t-87 43.5t-88 -43.5t-34 -131.5q0 -65 18.5 -110t69.5 -102
v-140h-391z" />
    <glyph glyph-name="uni03BC" unicode="&#x3bc;" horiz-adv-x="661" 
d="M647 16l-162 -18h-82q-5 18 -13 69h-2q-13 -33 -43 -54.5t-60 -21.5q-20 0 -24 2h-2v-203h-165v574l-83 9v112l183 20h85v-317q0 -51 37 -51q25 0 38 11t25 37v179l-56 9v111l156 21h85v-375l83 -13v-101z" />
    <glyph glyph-name="pi" unicode="&#x3c0;" horiz-adv-x="662" 
d="M281 0h-185v355h-86v150h642v-150h-86v-215q0 -64 17 -140h-181q-21 66 -21 134v221h-100v-355z" />
    <glyph glyph-name="Wgrave" unicode="&#x1e80;" horiz-adv-x="987" 
d="M904 548l-155 -548h-192l-38 158q-20 87 -26 130h-2q-2 -20 -28 -133l-37 -155h-193l-150 549l-73 14v117h333v-117l-72 -14l20 -98q40 -193 42 -209h2q18 108 40 196l62 242h114l61 -237q15 -59 42 -201h2q4 29 39 195l23 111l-71 15v117h330v-117zM583 745h-139
l-196 128h195z" />
    <glyph glyph-name="wgrave" unicode="&#x1e81;" horiz-adv-x="834" 
d="M754 376l-124 -376h-149l-28 87q-25 76 -34 129h-2q-9 -48 -34 -128l-28 -88h-149l-126 376l-73 15v114h293v-119l-46 -10l15 -48q18 -56 27 -109h2q12 71 39 166l34 120h97l34 -120q12 -43 38 -166h2q8 45 30 115l13 42l-46 10v119h288v-114zM493 585h-129l-159 141h175
z" />
    <glyph glyph-name="Wacute" unicode="&#x1e82;" horiz-adv-x="987" 
d="M904 548l-155 -548h-192l-38 158q-20 87 -26 130h-2q-2 -20 -28 -133l-37 -155h-193l-150 549l-73 14v117h333v-117l-72 -14l20 -98q40 -193 42 -209h2q18 108 40 196l62 242h114l61 -237q15 -59 42 -201h2q4 29 39 195l23 111l-71 15v117h330v-117zM540 745h-139
l140 128h195z" />
    <glyph glyph-name="wacute" unicode="&#x1e83;" horiz-adv-x="834" 
d="M754 376l-124 -376h-149l-28 87q-25 76 -34 129h-2q-9 -48 -34 -128l-28 -88h-149l-126 376l-73 15v114h293v-119l-46 -10l15 -48q18 -56 27 -109h2q12 71 39 166l34 120h97l34 -120q12 -43 38 -166h2q8 45 30 115l13 42l-46 10v119h288v-114zM470 585h-129l113 141h175z
" />
    <glyph glyph-name="Wdieresis" unicode="&#x1e84;" horiz-adv-x="987" 
d="M904 548l-155 -548h-192l-38 158q-20 87 -26 130h-2q-2 -20 -28 -133l-37 -155h-193l-150 549l-73 14v117h333v-117l-72 -14l20 -98q40 -193 42 -209h2q18 108 40 196l62 242h114l61 -237q15 -59 42 -201h2q4 29 39 195l23 111l-71 15v117h330v-117zM265 809q0 35 28 60
t66 25q40 0 68 -25t28 -60t-28 -60t-68 -25q-38 0 -66 25t-28 60zM529 809q0 35 28 60t66 25q40 0 68 -25t28 -60t-28 -60t-68 -25q-38 0 -66 25t-28 60z" />
    <glyph glyph-name="wdieresis" unicode="&#x1e85;" horiz-adv-x="834" 
d="M754 376l-124 -376h-149l-28 87q-25 76 -34 129h-2q-9 -48 -34 -128l-28 -88h-149l-126 376l-73 15v114h293v-119l-46 -10l15 -48q18 -56 27 -109h2q12 71 39 166l34 120h97l34 -120q12 -43 38 -166h2q8 45 30 115l13 42l-46 10v119h288v-114zM200 653q0 35 28 60t66 25
q40 0 68 -25t28 -60t-28 -60t-68 -25q-38 0 -66 25t-28 60zM444 653q0 35 28 60t66 25q40 0 68 -25t28 -60t-28 -60t-68 -25q-38 0 -66 25t-28 60z" />
    <glyph glyph-name="Ygrave" unicode="&#x1ef2;" horiz-adv-x="724" 
d="M641 549l-182 -326v-92l83 -14v-117h-360v117l83 14v92l-182 327l-73 13v117h328v-122l-44 -9l22 -48q31 -71 46 -116h2q18 66 45 116l23 44l-44 12v123h326v-117zM454 745h-139l-196 128h195z" />
    <glyph glyph-name="ygrave" unicode="&#x1ef3;" horiz-adv-x="663" 
d="M583 376l-98 -224q-39 -89 -86.5 -164.5t-84.5 -111.5l-122 -120l-108 113l55 57q49 48 86 101l-145 349l-73 15v114h302v-122l-41 -7l22 -62q21 -59 40 -137h2q10 42 45 139l21 59l-41 8v122h299v-114zM406 585h-129l-159 141h175z" />
    <glyph glyph-name="endash" unicode="&#x2013;" horiz-adv-x="500" 
d="M35 220v123h430v-123h-430z" />
    <glyph glyph-name="emdash" unicode="&#x2014;" horiz-adv-x="1000" 
d="M35 220v123h930v-123h-930z" />
    <glyph glyph-name="quoteleft" unicode="&#x2018;" horiz-adv-x="290" 
d="M46 415q-1 7 -1 22q0 72 33 154.5t83 133.5l90 -16q-24 -54 -39.5 -124.5t-15.5 -122.5q0 -18 1 -26z" />
    <glyph glyph-name="quoteright" unicode="&#x2019;" horiz-adv-x="290" 
d="M93 704l151 21q1 -7 1 -22q0 -72 -33 -154.5t-83 -133.5l-90 16q24 54 39.5 124.5t15.5 122.5q0 18 -1 26z" />
    <glyph glyph-name="quotesinglbase" unicode="&#x201a;" horiz-adv-x="290" 
d="M244 200q1 -7 1 -22q0 -72 -33 -154.5t-83 -133.5l-90 16q24 54 39.5 124.5t15.5 122.5q0 18 -1 26z" />
    <glyph glyph-name="quotedblleft" unicode="&#x201c;" horiz-adv-x="526" 
d="M282 415q-1 7 -1 22q0 72 33 154.5t83 133.5l90 -16q-24 -54 -39.5 -124.5t-15.5 -122.5q0 -18 1 -26zM46 415q-1 7 -1 22q0 72 33 154.5t83 133.5l90 -16q-24 -54 -39.5 -124.5t-15.5 -122.5q0 -18 1 -26z" />
    <glyph glyph-name="quotedblright" unicode="&#x201d;" horiz-adv-x="526" 
d="M244 725q1 -7 1 -22q0 -72 -33 -154.5t-83 -133.5l-90 16q24 54 39.5 124.5t15.5 122.5q0 18 -1 26zM480 725q1 -7 1 -22q0 -72 -33 -154.5t-83 -133.5l-90 16q24 54 39.5 124.5t15.5 122.5q0 18 -1 26z" />
    <glyph glyph-name="quotedblbase" unicode="&#x201e;" horiz-adv-x="526" 
d="M244 200q1 -7 1 -22q0 -72 -33 -154.5t-83 -133.5l-90 16q24 54 39.5 124.5t15.5 122.5q0 18 -1 26zM480 200q1 -7 1 -22q0 -72 -33 -154.5t-83 -133.5l-90 16q24 54 39.5 124.5t15.5 122.5q0 18 -1 26z" />
    <glyph glyph-name="dagger" unicode="&#x2020;" horiz-adv-x="486" 
d="M25 377v128h143v183h150v-183h143v-133h-143v-422h-150v427h-143z" />
    <glyph glyph-name="daggerdbl" unicode="&#x2021;" horiz-adv-x="486" 
d="M25 377v128h143v183h150v-183h143v-133h-143v-129h143v-133h-143v-160h-150v160h-143v133h143v134h-143z" />
    <glyph glyph-name="bullet" unicode="&#x2022;" horiz-adv-x="397" 
d="M347 317q0 -63 -43 -108t-104 -45q-62 0 -106 45t-44 108t43.5 104.5t106.5 41.5q62 0 104.5 -41t42.5 -105z" />
    <glyph glyph-name="ellipsis" unicode="&#x2026;" horiz-adv-x="1000" 
d="M61 97q0 45 31 77t75 32t75 -32t31 -77t-31 -77t-75 -32t-75 32t-31 77zM394 97q0 45 31 77t75 32t75 -32t31 -77t-31 -77t-75 -32t-75 32t-31 77zM727 97q0 45 31 77t75 32t75 -32t31 -77t-31 -77t-75 -32t-75 32t-31 77z" />
    <glyph glyph-name="perthousand" unicode="&#x2030;" horiz-adv-x="1280" 
d="M356 463q0 -204 -169 -204q-83 0 -125 52t-42 152q0 99 42 151.5t125 52.5t126 -52.5t43 -151.5zM227 463q0 100 -40 100q-38 0 -38 -100t38 -100q40 0 40 100zM644 669l-279 -681h-118l279 681h118zM879 194q0 -204 -169 -204q-83 0 -125 52t-42 152q0 99 42 151.5
t125 52.5t126 -52.5t43 -151.5zM750 194q0 100 -40 100q-38 0 -38 -100t38 -100q40 0 40 100zM1260 194q0 -204 -169 -204q-83 0 -125 52t-42 152q0 99 42 151.5t125 52.5t126 -52.5t43 -151.5zM1131 194q0 100 -40 100q-38 0 -38 -100t38 -100q40 0 40 100z" />
    <glyph glyph-name="guilsinglleft" unicode="&#x2039;" horiz-adv-x="360" 
d="M316 65h-170l-108 216l108 216h170l-110 -215v-2z" />
    <glyph glyph-name="guilsinglright" unicode="&#x203a;" horiz-adv-x="360" 
d="M214 65h-170l110 215v2l-110 215h170l108 -216z" />
    <glyph glyph-name="fraction" unicode="&#x2044;" horiz-adv-x="187" 
d="M292 669l-279 -681h-118l279 681h118z" />
    <glyph glyph-name="zero.superior" unicode="&#x2070;" 
d="M360 623q0 -204 -169 -204q-83 0 -125 52t-42 152q0 99 42 151.5t125 52.5t126 -52.5t43 -151.5zM231 623q0 100 -40 100q-38 0 -38 -100t38 -100q40 0 40 100z" />
    <glyph glyph-name="i.superior" unicode="&#x2071;" horiz-adv-x="253" 
d="M125 585q-29 0 -49 17t-20 41q0 25 20 41t49 16t49 -16t20 -41q0 -24 -20 -41t-49 -17zM238 269h-223v74l51 8v120l-51 5v71l118 11h56v-207l49 -8v-74z" />
    <glyph glyph-name="four.superior" unicode="&#x2074;" 
d="M354 532h-36v-23l52 -11v-69h-229v69l57 11v23h-181v81l139 204h136l-139 -192v-2h45v40h120v-40h36v-91z" />
    <glyph glyph-name="five.superior" unicode="&#x2075;" 
d="M349 561q0 -21 -9.5 -43t-30.5 -45.5t-63 -38t-98 -14.5q-61 0 -110 14l27 97q42 -9 81 -9q74 0 74 37q0 30 -32 30q-19 0 -46 -17l-86 43l23 202h232v-100h-123l-6 -52h2q23 14 51 14q58 0 86 -33t28 -85z" />
    <glyph glyph-name="six.superior" unicode="&#x2076;" 
d="M364 556q0 -60 -44.5 -98.5t-123.5 -38.5q-71 0 -119 43.5t-48 105.5q0 38 7 72t26 69t49 60.5t81 41.5t117 16v-95q-119 0 -144 -76h2q29 25 66 25q61 0 96 -34t35 -91zM235 556q0 17 -11 28t-25 11q-22 0 -38 -23q-3 -6 -3 -19q0 -16 10.5 -26.5t27.5 -10.5
q18 0 28.5 11.5t10.5 28.5z" />
    <glyph glyph-name="seven.superior" unicode="&#x2077;" 
d="M350 726q-113 -140 -113 -297h-126q0 159 97 286v2h-71l-10 -36h-83v136h306v-91z" />
    <glyph glyph-name="eight.superior" unicode="&#x2078;" 
d="M355 540q0 -53 -46.5 -87t-115.5 -34t-116 33.5t-47 86.5q0 35 25.5 60.5t56.5 36.5v1q-61 37 -61 83q0 47 42 77t102 30q59 0 102 -28.5t43 -72.5q0 -54 -60 -89v-1q27 -11 51 -37.5t24 -58.5zM236 712q0 28 -40 28q-13 0 -22.5 -8t-9.5 -21q0 -23 42 -41q30 19 30 42z
M233 545q0 20 -13 31t-38 20q-31 -18 -31 -51q0 -13 11.5 -24.5t32.5 -11.5q17 0 27.5 12t10.5 24z" />
    <glyph glyph-name="nine.superior" unicode="&#x2079;" 
d="M364 678q0 -52 -13 -94.5t-44 -81.5t-91.5 -61t-146.5 -22v96q135 0 158 78h-2q-26 -23 -63 -23q-61 0 -97.5 31.5t-36.5 87.5q0 61 43.5 99.5t121.5 38.5q75 0 123 -40.5t48 -108.5zM235 692q0 16 -11.5 28t-30.5 12q-17 0 -26.5 -11.5t-9.5 -28.5q0 -15 12.5 -25
t25.5 -10q25 0 36 18q4 6 4 17z" />
    <glyph glyph-name="plus.superior" unicode="&#x207a;" 
d="M347 559h-117v-112h-77v112h-116v72h116v106h77v-106h117v-72z" />
    <glyph glyph-name="minus.superior" unicode="&#x207b;" 
d="M37 559v72h310v-72h-310z" />
    <glyph glyph-name="equal.superior" unicode="&#x207c;" 
d="M37 494v72h310v-72h-310zM37 624v72h310v-72h-310z" />
    <glyph glyph-name="parenleft.superior" unicode="&#x207d;" horiz-adv-x="231" 
d="M60 589q0 149 104 270l72 -41q-39 -68 -57.5 -117.5t-18.5 -111.5t18.5 -111t57.5 -117l-72 -41q-104 121 -104 269z" />
    <glyph glyph-name="parenright.superior" unicode="&#x207e;" horiz-adv-x="231" 
d="M171 589q0 -150 -104 -269l-72 41q40 67 58.5 116.5t18.5 111.5t-18.5 112t-58.5 117l72 41q104 -119 104 -270z" />
    <glyph glyph-name="n.superior" unicode="&#x207f;" horiz-adv-x="434" 
d="M424 269h-172v174q0 24 -25 24q-27 0 -40 -27v-89l35 -8v-74h-207v74l49 8v120l-49 5v71l115 11h47l5 -40h1q8 20 39.5 33.5t57.5 13.5q46 0 70.5 -24.5t24.5 -69.5v-120l49 -8v-74z" />
    <glyph glyph-name="zero.inferior" unicode="&#x2080;" 
d="M360 54q0 -204 -169 -204q-83 0 -125 52t-42 152q0 99 42 151.5t125 52.5t126 -52.5t43 -151.5zM231 54q0 100 -40 100q-38 0 -38 -100t38 -100q40 0 40 100z" />
    <glyph glyph-name="one.inferior" unicode="&#x2081;" 
d="M342 -140h-276v69l80 11v202l-2 2l-64 -31l-31 72l116 63h107v-308l70 -11v-69z" />
    <glyph glyph-name="two.inferior" unicode="&#x2082;" 
d="M342 -140h-299v52q0 82 44 126q14 14 45 31t51 32t20 30q0 24 -44 24q-18 0 -22 -2l-10 -36h-83v114q62 26 148 26q68 0 104 -33t36 -93q0 -26 -8.5 -46.5t-24 -35.5t-28.5 -23.5t-32 -18.5q-5 -3 -19.5 -10t-21.5 -11t-15 -10.5t-11 -13.5v-2h77l8 36h85v-136z" />
    <glyph glyph-name="three.inferior" unicode="&#x2083;" 
d="M344 -10q0 -71 -56.5 -105t-152.5 -34q-37 0 -75 11l17 100q37 -8 55 -8q21 0 31.5 0.5t25 4t20.5 12.5t6 23q0 27 -41 27l-17 -2l-13 69q34 5 44.5 15.5t10.5 27.5q0 11 -7.5 19t-21.5 8t-21 -3l-10 -36h-83v103q58 34 124 34q143 0 143 -101q0 -63 -39 -82v-2
q32 -9 46 -27t14 -54z" />
    <glyph glyph-name="four.inferior" unicode="&#x2084;" 
d="M354 -37h-36v-23l52 -11v-69h-229v69l57 11v23h-181v81l139 204h136l-139 -192v-2h45v40h120v-40h36v-91z" />
    <glyph glyph-name="five.inferior" unicode="&#x2085;" 
d="M349 -8q0 -21 -9.5 -43t-30.5 -45.5t-63 -38t-98 -14.5q-61 0 -110 14l27 97q42 -9 81 -9q74 0 74 37q0 30 -32 30q-19 0 -46 -17l-86 43l23 202h232v-100h-123l-6 -52h2q23 14 51 14q58 0 86 -33t28 -85z" />
    <glyph glyph-name="six.inferior" unicode="&#x2086;" 
d="M364 -13q0 -60 -44.5 -98.5t-123.5 -38.5q-71 0 -119 43.5t-48 105.5q0 38 7 72t26 69t49 60.5t81 41.5t117 16v-95q-119 0 -144 -76h2q29 25 66 25q61 0 96 -34t35 -91zM235 -13q0 17 -11 28t-25 11q-22 0 -38 -23q-3 -6 -3 -19q0 -16 10.5 -26.5t27.5 -10.5
q18 0 28.5 11.5t10.5 28.5z" />
    <glyph glyph-name="seven.inferior" unicode="&#x2087;" 
d="M350 157q-113 -140 -113 -297h-126q0 159 97 286v2h-71l-10 -36h-83v136h306v-91z" />
    <glyph glyph-name="eight.inferior" unicode="&#x2088;" 
d="M355 -29q0 -53 -46.5 -87t-115.5 -34t-116 33.5t-47 86.5q0 35 25.5 60.5t56.5 36.5v1q-61 37 -61 83q0 47 42 77t102 30q59 0 102 -28.5t43 -72.5q0 -54 -60 -89v-1q27 -11 51 -37.5t24 -58.5zM236 143q0 28 -40 28q-13 0 -22.5 -7.5t-9.5 -21.5q0 -23 42 -41
q30 19 30 42zM233 -24q0 20 -13 31t-38 20q-31 -18 -31 -51q0 -12 11.5 -24t32.5 -12q17 0 27.5 12t10.5 24z" />
    <glyph glyph-name="nine.inferior" unicode="&#x2089;" 
d="M364 109q0 -52 -13 -94.5t-44 -81.5t-91.5 -61t-146.5 -22v96q135 0 158 78h-2q-26 -23 -63 -23q-61 0 -97.5 31.5t-36.5 87.5q0 61 43.5 99.5t121.5 38.5q75 0 123 -40.5t48 -108.5zM235 123q0 16 -11.5 28t-30.5 12q-17 0 -26.5 -11.5t-9.5 -28.5q0 -15 12.5 -25
t25.5 -10q25 0 36 18q4 6 4 17z" />
    <glyph glyph-name="plus.inferior" unicode="&#x208a;" 
d="M347 -10h-117v-112h-77v112h-116v72h116v106h77v-106h117v-72z" />
    <glyph glyph-name="minus.inferior" unicode="&#x208b;" 
d="M37 -10v72h310v-72h-310z" />
    <glyph glyph-name="equal.inferior" unicode="&#x208c;" 
d="M37 -75v72h310v-72h-310zM37 55v72h310v-72h-310z" />
    <glyph glyph-name="parenleft.inferior" unicode="&#x208d;" horiz-adv-x="231" 
d="M60 20q0 149 104 270l72 -41q-39 -68 -57.5 -117.5t-18.5 -111.5t18.5 -111t57.5 -117l-72 -41q-104 121 -104 269z" />
    <glyph glyph-name="parenright.inferior" unicode="&#x208e;" horiz-adv-x="231" 
d="M171 20q0 -150 -104 -269l-72 41q40 67 58.5 116.5t18.5 111.5t-18.5 112t-58.5 117l72 41q104 -119 104 -270z" />
    <glyph glyph-name="Euro" unicode="&#x20ac;" horiz-adv-x="580" 
d="M29 355v81h62q24 108 102.5 169.5t192.5 61.5q52 0 81.5 -6t69.5 -21v-171h-132l-15 43q-2 1 -14 1q-26 0 -53 -22t-40 -55h163v-81h-183q-1 -8 -1 -27v-18h144v-80h-128q13 -37 42.5 -61.5t61.5 -24.5q66 0 131 19l40 -144q-87 -29 -167 -29q-116 0 -195 63.5
t-101 176.5h-61v80h51q-1 9 -1 24q0 13 1 21h-51z" />
    <glyph glyph-name="afii61289" unicode="&#x2113;" horiz-adv-x="508" 
d="M41 128l-44 107q70 41 93 56v138q0 46 9 87.5t31 83t66 66.5t105 25q89 0 135.5 -47t46.5 -131q0 -82 -63 -155.5t-145 -122.5v-21q0 -30 12 -50.5t33 -20.5q40 0 84 20l46 -131q-23 -16 -72.5 -29t-90.5 -13q-53 0 -94 16.5t-62 41.5t-31 50t-10 48v7q-3 -2 -11.5 -6
t-19.5 -10t-18 -9zM275 472v-89q30 23 49 52t19 51q0 32 -12.5 44t-25.5 12q-30 0 -30 -70z" />
    <glyph glyph-name="afii61352" unicode="&#x2116;" horiz-adv-x="1152" 
d="M820 235v78h312v-78h-312zM1136 502q0 -74 -45 -116.5t-115 -42.5t-115 42.5t-45 116.5t45 116.5t115 42.5t115 -42.5t45 -116.5zM1017 502q0 68 -41 68t-41 -68t41 -68t41 68zM690 0h-171l-129 186q-42 62 -93 154h-2q4 -54 4 -140v-69l78 -14v-117h-355v118l83 13v418
l-83 13v118h254l129 -186q48 -70 93 -155h2q-4 42 -4 144v66l-78 14v117h355v-117l-83 -14v-549z" />
    <glyph glyph-name="trademark" unicode="&#x2122;" horiz-adv-x="728" 
d="M236 607h-37v-169l35 -7v-51h-161v51l38 7v169h-37l-6 -36h-57v109h291v-109h-59zM697 380h-158v51l35 7v15q0 12 4 72h-3q-7 -16 -30 -45l-19 -24h-33l-19 24q-17 22 -29 45h-2q3 -21 3 -72v-15l32 -7v-51h-158v51l38 7v184l-38 7v51h118l27 -42q33 -53 43 -78h3
q12 27 45 78l27 42h114v-51l-35 -7v-184l35 -7v-51z" />
    <glyph glyph-name="Omega" unicode="&#x2126;" horiz-adv-x="868" 
d="M10 0v211h135l10 -51h73v3q-52 31 -83 84.5t-31 119.5q0 152 87.5 238.5t232.5 86.5t232.5 -86.5t87.5 -238.5q0 -66 -31 -119.5t-83 -84.5v-3h73l10 50h135v-210h-391v140q50 56 69 102t19 110q0 88 -33 131.5t-87 43.5t-88 -43.5t-34 -131.5q0 -65 18.5 -110t69.5 -102
v-140h-391z" />
    <glyph glyph-name="estimated" unicode="&#x212e;" horiz-adv-x="822" 
d="M408 629q-61 0 -122 -26t-100 -66q-11 -11 -11 -22v-161q0 -4 3.5 -8t8.5 -4h448q5 0 8.5 4t3.5 8v162q0 10 -15 25q-40 38 -103 63t-121 25zM45 329q0 142 103.5 240t259.5 98q158 0 263.5 -97.5t105.5 -236.5v-14h-590q-5 0 -8.5 -3.5t-3.5 -8.5v-157q0 -11 10 -25
q31 -40 93.5 -68t129.5 -28q64 0 127 28t102 71h74q-43 -56 -130 -96.5t-173 -40.5q-156 0 -259.5 98t-103.5 240z" />
    <glyph glyph-name="onethird" unicode="&#x2153;" horiz-adv-x="870" 
d="M313 269h-276v69l80 11v202l-2 2l-64 -31l-31 72l116 63h107v-308l70 -11v-69zM842 130q0 -71 -56.5 -105t-152.5 -34q-37 0 -75 11l17 100q37 -8 55 -8q21 0 31.5 0.5t25 4t20.5 12.5t6 23q0 27 -41 27l-17 -2l-13 69q34 5 44.5 15.5t10.5 27.5q0 11 -7.5 19t-21.5 8
t-21 -3l-10 -36h-83v103q58 34 124 34q143 0 143 -101q0 -63 -39 -82v-2q32 -9 46 -27t14 -54zM644 669l-279 -681h-118l279 681h118z" />
    <glyph glyph-name="twothirds" unicode="&#x2154;" horiz-adv-x="870" 
d="M335 269h-299v52q0 82 44 126q14 14 45 31t51 32t20 30q0 24 -44 24q-18 0 -22 -2l-10 -36h-83v114q62 26 148 26q68 0 104 -33t36 -93q0 -26 -8.5 -46.5t-24 -35.5t-28.5 -23.5t-32 -18.5q-5 -3 -19.5 -10t-21.5 -11t-15 -10.5t-11 -13.5v-2h77l8 36h85v-136zM845 130
q0 -71 -56.5 -105t-152.5 -34q-37 0 -75 11l17 100q37 -8 55 -8q21 0 31.5 0.5t25 4t20.5 12.5t6 23q0 27 -41 27l-17 -2l-13 69q34 5 44.5 15.5t10.5 27.5q0 11 -7.5 19t-21.5 8q-13 0 -21 -3l-10 -36h-83v103q58 34 124 34q143 0 143 -101q0 -63 -39 -82v-2q32 -9 46 -27
t14 -54zM648 669l-279 -681h-118l279 681h118z" />
    <glyph glyph-name="oneeighth" unicode="&#x215b;" horiz-adv-x="870" 
d="M313 269h-276v69l80 11v202l-2 2l-64 -31l-31 72l116 63h107v-308l70 -11v-69zM851 111q0 -53 -46.5 -87t-115.5 -34t-116 33.5t-47 86.5q0 35 25.5 60.5t56.5 36.5v1q-61 37 -61 83q0 47 42 77t102 30q59 0 102 -28.5t43 -72.5q0 -54 -60 -89v-1q27 -11 51 -37.5
t24 -58.5zM732 283q0 28 -40 28q-13 0 -22.5 -7.5t-9.5 -21.5q0 -23 42 -41q30 19 30 42zM729 116q0 20 -13 31t-38 20q-31 -18 -31 -51q0 -12 11.5 -24t32.5 -12q17 0 27.5 12t10.5 24zM642 669l-279 -681h-118l279 681h118z" />
    <glyph glyph-name="threeeighths" unicode="&#x215c;" horiz-adv-x="870" 
d="M346 399q0 -71 -56.5 -105t-152.5 -34q-37 0 -75 11l17 100q37 -8 55 -8q21 0 31.5 0.5t25 4t20.5 12.5t6 23q0 27 -41 27l-17 -2l-13 69q34 5 44.5 15.5t10.5 27.5q0 11 -7.5 19t-21.5 8t-21 -3l-10 -36h-83v103q58 34 124 34q143 0 143 -101q0 -62 -39 -82v-2
q32 -9 46 -27t14 -54zM861 111q0 -53 -46.5 -87t-115.5 -34t-116 33.5t-47 86.5q0 35 25.5 60.5t56.5 36.5v1q-61 37 -61 83q0 47 42 77t102 30q59 0 102 -28.5t43 -72.5q0 -54 -60 -89v-1q27 -11 51 -37.5t24 -58.5zM742 283q0 28 -40 28q-13 0 -22.5 -7.5t-9.5 -21.5
q0 -23 42 -41q30 19 30 42zM739 116q0 20 -13 31t-38 20q-31 -18 -31 -51q0 -12 11.5 -24t32.5 -12q17 0 27.5 12t10.5 24zM643 669l-279 -681h-118l279 681h118z" />
    <glyph glyph-name="fiveeighths" unicode="&#x215d;" horiz-adv-x="870" 
d="M345 401q0 -21 -9.5 -43t-30.5 -45.5t-63 -38t-98 -14.5q-61 0 -110 14l27 97q42 -9 81 -9q74 0 74 37q0 30 -32 30q-19 0 -46 -17l-86 43l23 202h232v-100h-123l-6 -52h2q23 14 51 14q58 0 86 -33t28 -85zM839 111q0 -53 -46.5 -87t-115.5 -34t-116 33.5t-47 86.5
q0 35 25.5 60.5t56.5 36.5v1q-61 37 -61 83q0 47 42 77t102 30q59 0 102 -28.5t43 -72.5q0 -54 -60 -89v-1q27 -11 51 -37.5t24 -58.5zM720 283q0 28 -40 28q-13 0 -22.5 -7.5t-9.5 -21.5q0 -23 42 -41q30 19 30 42zM717 116q0 20 -13 31t-38 20q-31 -18 -31 -51
q0 -12 11.5 -24t32.5 -12q17 0 27.5 12t10.5 24zM631 669l-279 -681h-118l279 681h118z" />
    <glyph glyph-name="seveneighths" unicode="&#x215e;" horiz-adv-x="870" 
d="M343 566q-113 -140 -113 -297h-126q0 159 97 286v2h-71l-10 -36h-83v136h306v-91zM822 111q0 -53 -46.5 -87t-115.5 -34t-116 33.5t-47 86.5q0 35 25.5 60.5t56.5 36.5v1q-61 37 -61 83q0 47 42 77t102 30q59 0 102 -28.5t43 -72.5q0 -54 -60 -89v-1q27 -11 51 -37.5
t24 -58.5zM703 283q0 28 -40 28q-13 0 -22.5 -7.5t-9.5 -21.5q0 -23 42 -41q30 19 30 42zM700 116q0 20 -13 31t-38 20q-31 -18 -31 -51q0 -12 12 -24t32 -12q17 0 27.5 12t10.5 24zM606 669l-279 -681h-118l279 681h118z" />
    <glyph glyph-name="uni2190" unicode="&#x2190;" horiz-adv-x="1000" 
d="M367 593l116 -116l-124 -116h576v-160h-576l124 -116l-116 -116l-312 312z" />
    <glyph glyph-name="uni2191" unicode="&#x2191;" horiz-adv-x="734" 
d="M679 409l-116 -116l-111 119v-571h-170v571l-111 -119l-116 116l312 312z" />
    <glyph glyph-name="uni2192" unicode="&#x2192;" horiz-adv-x="1000" 
d="M517 477l116 116l312 -312l-312 -312l-116 116l124 116h-576v160h576z" />
    <glyph glyph-name="uni2193" unicode="&#x2193;" horiz-adv-x="734" 
d="M563 269l116 -116l-312 -312l-312 312l116 116l111 -119v571h170v-571z" />
    <glyph glyph-name="uni2194" unicode="&#x2194;" horiz-adv-x="1194" 
d="M367 593l116 -116l-124 -116h476l-124 116l116 116l312 -312l-312 -312l-116 116l124 116h-476l124 -116l-116 -116l-312 312z" />
    <glyph glyph-name="uni2195" unicode="&#x2195;" horiz-adv-x="734" 
d="M55 66l116 116l111 -119v436l-111 -119l-116 116l312 312l312 -312l-116 -116l-111 119v-436l111 119l116 -116l-312 -312z" />
    <glyph glyph-name="uni2196" unicode="&#x2196;" horiz-adv-x="834" 
d="M531 592v-164l-170 6l408 -408l-113 -113l-408 408l6 -170h-164v441h441z" />
    <glyph glyph-name="uni2197" unicode="&#x2197;" horiz-adv-x="834" 
d="M303 428v164h441v-441h-164l6 170l-408 -408l-113 113l408 408z" />
    <glyph glyph-name="uni2198" unicode="&#x2198;" horiz-adv-x="834" 
d="M580 353h164v-441h-441v164l170 -6l-408 408l113 113l408 -408z" />
    <glyph glyph-name="uni2199" unicode="&#x2199;" horiz-adv-x="834" 
d="M531 76v-164h-441v441h164l-6 -170l408 408l113 -113l-408 -408z" />
    <glyph glyph-name="partialdiff" unicode="&#x2202;" horiz-adv-x="610" 
d="M220 211q0 -27 19.5 -45.5t48.5 -18.5t49 23t20 53q0 10 -1 13q-6 21 -23 36.5t-41 15.5q-27 0 -49.5 -23t-22.5 -54zM22 216q0 96 63.5 162.5t148.5 66.5q95 0 146 -78h2q1 9 1 24q-4 71 -60 106.5t-134 35.5q-38 0 -76 -17l-48 148q67 28 150 28q156 -1 258 -104
t102 -276q0 -134 -73.5 -229t-203.5 -95q-122 0 -199 65t-77 163z" />
    <glyph glyph-name="Delta" unicode="&#x2206;" horiz-adv-x="647" 
d="M617 0h-587v126l181 554h225l181 -554v-126zM208 145h229l-43 140q-37 122 -70 253h-2q-39 -155 -70 -251z" />
    <glyph glyph-name="product" unicode="&#x220f;" horiz-adv-x="771" 
d="M358 -90h-343v117l83 14v485l-83 14v117h741v-117l-83 -14v-485l83 -14v-117h-343v117l66 14v455h-187v-455l66 -14v-117z" />
    <glyph glyph-name="summation" unicode="&#x2211;" horiz-adv-x="557" 
d="M547 -90h-494v146l165 241l-167 214v146h474v-234h-132l-13 74h-135v-2l166 -202l-164 -221v-2h152l13 79h135v-239z" />
    <glyph glyph-name="minus" unicode="&#x2212;" horiz-adv-x="580" 
d="M536 220h-492v123h492v-123z" />
    <glyph glyph-name="uni2215" unicode="&#x2215;" horiz-adv-x="187" 
d="M292 669l-279 -681h-118l279 681h118z" />
    <glyph glyph-name="uni2219" unicode="&#x2219;" horiz-adv-x="300" 
d="M44 277q0 45 31 77t75 32t75 -32t31 -77t-31 -77t-75 -32t-75 32t-31 77z" />
    <glyph glyph-name="radical" unicode="&#x221a;" horiz-adv-x="739" 
d="M722 800l-268 -872h-146l-136 399l-117 -37l-36 112l280 103l48 -170q37 -135 46 -185h2q17 89 48 200l124 450h155z" />
    <glyph glyph-name="infinity" unicode="&#x221e;" horiz-adv-x="796" 
d="M23 282q0 81 58 135t139 54q54 0 95.5 -30.5t81.5 -82.5h2q83 113 178 113q81 0 138.5 -54.5t57.5 -134.5q0 -81 -57.5 -135.5t-138.5 -54.5q-94 0 -178 112h-2q-82 -112 -177 -112q-82 0 -139.5 54.5t-57.5 135.5zM153 282q0 -33 20.5 -52t48.5 -19q43 0 95 71
q-52 70 -95 70q-28 0 -48.5 -18.5t-20.5 -51.5zM479 282q52 -71 96 -71q26 0 47 19t21 52q0 32 -21 51t-47 19q-44 0 -96 -70z" />
    <glyph glyph-name="integral" unicode="&#x222b;" horiz-adv-x="516" 
d="M-13 -191l37 133q51 -17 89 -17q20 0 34 19.5t14 46.5v569q0 70 55 120t132 50q87 0 172 -29l-37 -133q-51 17 -89 17q-20 0 -34 -19.5t-14 -46.5v-569q0 -70 -55 -120t-132 -50q-79 0 -172 29z" />
    <glyph glyph-name="approxequal" unicode="&#x2248;" horiz-adv-x="580" 
d="M542 362q-34 -30 -83 -51.5t-89 -21.5t-89.5 28.5t-75.5 28.5q-19 0 -52.5 -14.5t-54.5 -32.5l-60 94q35 30 83.5 51t88.5 21q42 0 90.5 -28t74.5 -28q20 0 53.5 14.5t54.5 32.5zM542 161q-34 -30 -83 -51.5t-89 -21.5t-89.5 28.5t-75.5 28.5q-19 0 -52.5 -14.5
t-54.5 -32.5l-60 94q35 30 83.5 51t88.5 21q42 0 90.5 -28t74.5 -28q20 0 53.5 14.5t54.5 32.5z" />
    <glyph glyph-name="notequal" unicode="&#x2260;" horiz-adv-x="580" 
d="M44 330v123h298l54 85h110l-54 -85h84v-123h-161l-61 -97h222v-123h-300l-54 -87h-110l54 87h-82v123h160l61 97h-221z" />
    <glyph glyph-name="lessequal" unicode="&#x2264;" horiz-adv-x="580" 
d="M526 110l-472 170v123l472 170v-129l-339 -101v-2l339 -102v-129zM526 -30h-472v108h472v-108z" />
    <glyph glyph-name="greaterequal" unicode="&#x2265;" horiz-adv-x="580" 
d="M526 -30h-472v108h472v-108zM526 280l-472 -170v129l337 102v2l-337 101v129l472 -170v-123z" />
    <glyph glyph-name="uni25A0" unicode="&#x25a0;" horiz-adv-x="626" 
d="M128 501h370v-378h-370v378z" />
    <glyph glyph-name="uni25B2" unicode="&#x25b2;" horiz-adv-x="794" 
d="M731 0h-668l334 612z" />
    <glyph glyph-name="uni25B3" unicode="&#x25b3;" horiz-adv-x="794" 
d="M731 0h-668l334 612zM241 98h312l-156 287z" />
    <glyph glyph-name="uni25B6" unicode="&#x25b6;" horiz-adv-x="794" 
d="M90 -12v668l612 -334z" />
    <glyph glyph-name="uni25B7" unicode="&#x25b7;" horiz-adv-x="794" 
d="M90 -12v668l612 -334zM210 471v-298l276 149z" />
    <glyph glyph-name="uni25BC" unicode="&#x25bc;" horiz-adv-x="794" 
d="M63 600h668l-334 -612z" />
    <glyph glyph-name="uni25BD" unicode="&#x25bd;" horiz-adv-x="794" 
d="M63 600h668l-334 -612zM553 502h-312l156 -287z" />
    <glyph glyph-name="uni25C0" unicode="&#x25c0;" horiz-adv-x="794" 
d="M692 656v-668l-612 334z" />
    <glyph glyph-name="uni25C1" unicode="&#x25c1;" horiz-adv-x="794" 
d="M692 656v-668l-612 334zM572 173v298l-276 -149z" />
    <glyph glyph-name="uni25C6" unicode="&#x25c6;" horiz-adv-x="626" 
d="M52 312l261 264l261 -264l-261 -264z" />
    <glyph glyph-name="uni25C9" unicode="&#x25c9;" horiz-adv-x="626" 
d="M50 312q0 108 79 186t184 78q106 0 184.5 -78t78.5 -186q0 -109 -79 -187.5t-184 -78.5q-107 0 -185 78t-78 188zM146 312q0 -74 49.5 -126.5t117.5 -52.5q70 0 118.5 52.5t48.5 126.5q0 73 -49 125t-118 52q-70 0 -118.5 -51.5t-48.5 -125.5zM212 312q0 45 29 75.5
t72 30.5t72 -30.5t29 -75.5q0 -46 -29 -77t-72 -31t-72 31t-29 77z" />
    <glyph glyph-name="lozenge" unicode="&#x25ca;" horiz-adv-x="594" 
d="M255 0l-240 328l240 329h83l240 -329l-240 -328h-83zM168 328l66 -89q47 -64 62 -95h2q20 41 61 95l65 89l-69 94q-43 59 -58 91h-2q-12 -27 -58 -90z" />
    <glyph glyph-name="uni25CB" unicode="&#x25cb;" horiz-adv-x="626" 
d="M50 312q0 108 79 186t184 78q106 0 184.5 -78t78.5 -186q0 -109 -79 -187.5t-184 -78.5q-107 0 -185 78t-78 188zM146 312q0 -74 49.5 -126.5t117.5 -52.5q70 0 118.5 52.5t48.5 126.5q0 73 -49 125t-118 52q-70 0 -118.5 -51.5t-48.5 -125.5z" />
    <glyph glyph-name="uni25CE" unicode="&#x25ce;" horiz-adv-x="626" 
d="M275 312q0 -21 10.5 -35.5t27.5 -14.5q16 0 27 14.5t11 35.5q0 20 -11 33.5t-27 13.5q-17 0 -27.5 -13.5t-10.5 -33.5zM50 312q0 108 79 186t184 78q106 0 184.5 -78t78.5 -186q0 -109 -79 -187.5t-184 -78.5q-107 0 -185 78t-78 188zM146 312q0 -74 49.5 -126.5
t117.5 -52.5q70 0 118.5 52.5t48.5 126.5q0 73 -49 125t-118 52q-70 0 -118.5 -51.5t-48.5 -125.5zM212 312q0 45 29 75.5t72 30.5t72 -30.5t29 -75.5q0 -46 -29 -77t-72 -31t-72 31t-29 77z" />
    <glyph glyph-name="uni25CF" unicode="&#x25cf;" horiz-adv-x="626" 
d="M50 312q0 108 79 186t184 78q106 0 184.5 -78t78.5 -186q0 -109 -79 -187.5t-184 -78.5q-107 0 -185 78t-78 188z" />
    <glyph glyph-name="uni2610" unicode="&#x2610;" horiz-adv-x="819" 
d="M105 33v619h609v-619h-609zM181 581v-477h457v477h-457z" />
    <glyph glyph-name="uni2611" unicode="&#x2611;" horiz-adv-x="819" 
d="M201 253l50 72l104 -71l191 278l67 -45l-239 -351zM105 33v619h609v-619h-609zM181 581v-477h457v477h-457z" />
    <glyph glyph-name="uni2612" unicode="&#x2612;" horiz-adv-x="819" 
d="M231 474l52 53l126 -130l126 130l52 -53l-127 -130l127 -130l-52 -53l-126 130l-126 -130l-52 53l127 130zM105 33v619h609v-619h-609zM181 581v-477h457v477h-457z" />
    <glyph glyph-name="grave.cap" unicode="&#xe000;" horiz-adv-x="500" 
d="M341 745h-139l-196 128h195z" />
    <glyph glyph-name="grave.sc" unicode="&#xe001;" horiz-adv-x="500" 
d="M326 600h-129l-159 141h175z" />
    <glyph glyph-name="acute.cap" unicode="&#xe002;" horiz-adv-x="500" 
d="M298 745h-139l140 128h195z" />
    <glyph glyph-name="acute.sc" unicode="&#xe003;" horiz-adv-x="500" 
d="M303 600h-129l113 141h175z" />
    <glyph glyph-name="circumflex.cap" unicode="&#xe004;" horiz-adv-x="500" 
d="M183 745h-151l148 128h134l153 -128h-151l-68 64h-2z" />
    <glyph glyph-name="circumflex.sc" unicode="&#xe005;" horiz-adv-x="500" 
d="M189 600h-134l136 141h118l136 -141h-134l-60 76h-2z" />
    <glyph glyph-name="caron.cap" unicode="&#xe006;" horiz-adv-x="500" 
d="M32 873h151l63 -64h2l68 64h151l-153 -128h-134z" />
    <glyph glyph-name="caron.sc" unicode="&#xe007;" horiz-adv-x="500" 
d="M55 741h134l60 -76h2l60 76h134l-136 -141h-118z" />
    <glyph glyph-name="caron.alt" unicode="&#xe008;" horiz-adv-x="500" 
d="M232 727l106 13q1 -4 1 -13q0 -44 -23 -93.5t-58 -79.5l-63 10q38 74 38 148q0 9 -1 15z" />
    <glyph glyph-name="tilde.cap" unicode="&#xe009;" horiz-adv-x="500" 
d="M466 798q-82 -57 -147 -57q-36 0 -76.5 20.5t-63.5 20.5q-33 0 -89 -39l-57 77q85 57 146 57q38 0 77.5 -21t62.5 -21q31 0 89 41z" />
    <glyph glyph-name="tilde.sc" unicode="&#xe00a;" horiz-adv-x="500" 
d="M446 660q-75 -68 -133 -68q-33 0 -69.5 24t-58.5 24q-18 0 -34 -10t-45 -36l-53 82q76 67 132 67q35 0 71 -24t57 -24q18 0 34.5 10.5t44.5 35.5z" />
    <glyph glyph-name="dieresis.cap" unicode="&#xe00b;" horiz-adv-x="500" 
d="M23 809q0 35 28 60t66 25q40 0 68 -25t28 -60t-28 -60t-68 -25q-38 0 -66 25t-28 60zM287 809q0 35 28 60t66 25q40 0 68 -25t28 -60t-28 -60t-68 -25q-38 0 -66 25t-28 60z" />
    <glyph glyph-name="dieresis.sc" unicode="&#xe00c;" horiz-adv-x="500" 
d="M33 668q0 35 28 60t66 25q40 0 68 -25t28 -60t-28 -60t-68 -25q-38 0 -66 25t-28 60zM277 668q0 35 28 60t66 25q40 0 68 -25t28 -60t-28 -60t-68 -25q-38 0 -66 25t-28 60z" />
    <glyph glyph-name="macron.cap" unicode="&#xe00d;" horiz-adv-x="500" 
d="M80 762v94h340v-94h-340z" />
    <glyph glyph-name="macron.sc" unicode="&#xe00e;" horiz-adv-x="500" 
d="M80 621v94h340v-94h-340z" />
    <glyph glyph-name="breve.cap" unicode="&#xe00f;" horiz-adv-x="500" 
d="M77 873h92q1 -25 25 -43.5t56 -18.5t56 18.5t25 43.5h92q0 -55 -51 -93t-122 -38t-122 38t-51 93z" />
    <glyph glyph-name="breve.sc" unicode="&#xe010;" horiz-adv-x="500" 
d="M77 742h92q1 -28 25 -48t56 -20t56 20t25 48h92q0 -61 -51 -104.5t-122 -43.5t-122 43.5t-51 104.5z" />
    <glyph glyph-name="ring.cap" unicode="&#xe011;" horiz-adv-x="500" 
d="M121 833q0 53 38 92t90 39t90.5 -39t38.5 -92t-38 -91.5t-91 -38.5q-52 0 -90 38.5t-38 91.5zM200 833q0 -25 14 -42t35 -17t35.5 17t14.5 42t-14.5 42.5t-35.5 17.5t-35 -17.5t-14 -42.5z" />
    <glyph glyph-name="ring.sc" unicode="&#xe012;" horiz-adv-x="500" 
d="M121 684q0 53 38 92t90 39t90.5 -39t38.5 -92t-38 -91.5t-91 -38.5q-52 0 -90 38.5t-38 91.5zM200 684q0 -25 14 -42t35 -17t35.5 17t14.5 42t-14.5 42.5t-35.5 17.5t-35 -17.5t-14 -42.5z" />
    <glyph glyph-name="hungarumlaut.cap" unicode="&#xe013;" horiz-adv-x="500" 
d="M430 745h-134l140 128h190zM201 745h-134l140 128h190z" />
    <glyph glyph-name="hungarumlaut.sc" unicode="&#xe014;" horiz-adv-x="500" 
d="M196 600h-114l130 158h160zM424 600h-115l130 158h161z" />
    <glyph glyph-name="dotaccent.cap" unicode="&#xe015;" horiz-adv-x="500" 
d="M145 812q0 39 31 66.5t73 27.5q44 0 75 -27.5t31 -66.5t-31 -66.5t-75 -27.5q-42 0 -73 27.5t-31 66.5z" />
    <glyph glyph-name="dotaccent.sc" unicode="&#xe016;" horiz-adv-x="500" 
d="M145 669q0 39 31 66.5t73 27.5q44 0 75 -27.5t31 -66.5t-31 -66.5t-75 -27.5q-42 0 -73 27.5t-31 66.5z" />
    <glyph glyph-name="commaaccent" unicode="&#xe017;" horiz-adv-x="500" 
d="M334 -42q1 -5 1 -14q0 -94 -116 -166l-77 26q17 25 29.5 61t12.5 63q0 11 -1 17z" />
    <glyph glyph-name="commaaccent.alt" unicode="&#xe01a;" horiz-adv-x="500" 
d="M207 576q-1 3 -1 12q0 84 104 150l69 -24q-15 -22 -26.5 -54.5t-11.5 -56.5q0 -10 1 -16z" />
    <glyph glyph-name="cedilla.cap" unicode="&#xe022;" horiz-adv-x="500" 
d="M358 -119q0 -47 -32 -74t-79 -27q-66 0 -106 21l27 64q45 -16 65 -16q40 0 40 27q0 12 -6 19t-22 10.5t-31 4.5t-44 2l33 98h75l-16 -43v-2q43 -2 69.5 -26t26.5 -58z" />
    <glyph glyph-name="cedilla.sc" unicode="&#xe023;" horiz-adv-x="500" 
d="M358 -119q0 -47 -32 -74t-79 -27q-66 0 -106 21l27 64q45 -16 65 -16q40 0 40 27q0 12 -6 19t-22 10.5t-31 4.5t-44 2l33 98h75l-16 -43v-2q43 -2 69.5 -26t26.5 -58z" />
    <glyph glyph-name="ogonek.cap" unicode="&#xe024;" horiz-adv-x="500" 
d="M96 -121q0 35 33 71t82 55h117q-41 -22 -68 -51.5t-27 -50.5q0 -14 8 -24.5t22 -10.5q12 0 26 4l19 -77q-39 -15 -77 -15q-61 0 -98 25t-37 74z" />
    <glyph glyph-name="ogonek.sc" unicode="&#xe025;" horiz-adv-x="500" 
d="M94 -121q0 35 33 71t82 55h117q-41 -22 -68 -51.5t-27 -50.5q0 -14 8 -24.5t22 -10.5q12 0 26 4l19 -77q-39 -15 -77 -15q-61 0 -98 25t-37 74z" />
    <glyph glyph-name="A.sc" unicode="&#xe4c3;" horiz-adv-x="638" 
d="M10 0v115l67 11l128 408h227l129 -408l67 -11v-115h-289v114l49 12l-7 30h-129l-7 -30l49 -11v-115h-284zM287 283h61l-8 31q-11 43 -22 101h-2q-6 -42 -21 -102z" />
    <glyph glyph-name="A.superior" unicode="&#xe4c5;" horiz-adv-x="450" 
d="M443 269h-200v77l32 5l-7 30h-90l-6 -30l33 -5v-77h-198v74l44 8l94 306h160l94 -306l44 -8v-74zM201 468h46l-12 46q-9 33 -11 55h-2q0 -18 -10 -56z" />
    <glyph glyph-name="B.sc" unicode="&#xe4ce;" horiz-adv-x="620" 
d="M590 169q0 -73 -52 -121t-168 -48h-343v115l77 11v282l-77 11v115h330q103 0 157.5 -39.5t54.5 -106.5q0 -59 -47 -89v-2q68 -46 68 -128zM391 379q0 16 -10.5 28t-28.5 12h-62v-76h60q41 0 41 36zM399 177q0 46 -40 46h-69v-90h67q19 0 30.5 13.5t11.5 30.5z" />
    <glyph glyph-name="B.superior" unicode="&#xe4d0;" horiz-adv-x="424" 
d="M404 390q0 -54 -37 -87.5t-118 -33.5h-234v74l50 8v224l-50 8v74h224q70 0 108 -29.5t38 -75.5q0 -36 -39 -68v-1q58 -40 58 -93zM264 542q0 24 -28 24h-41v-48h40q29 0 29 24zM272 399q0 30 -31 30h-46v-60h46q15 0 23 8.5t8 21.5z" />
    <glyph glyph-name="C.sc" unicode="&#xe4d9;" horiz-adv-x="514" 
d="M313 -10q-131 0 -206 67t-75 201q0 135 77.5 211t203.5 76q80 0 145 -22v-199h-125l-13 63q-2 1 -15 1q-32 0 -57 -33t-25 -92q0 -58 26 -87t63 -29q55 0 117 19l43 -147q-79 -29 -159 -29z" />
    <glyph glyph-name="C.superior" unicode="&#xe4db;" horiz-adv-x="357" 
d="M305 381l28 -101q-55 -17 -111 -17q-94 0 -148 47.5t-54 142.5q0 97 56 153.5t146 56.5q53 0 100 -18v-126h-83l-10 36q-2 1 -11 1q-27 0 -46.5 -27.5t-19.5 -70.5q0 -45 19 -66.5t46 -21.5q39 0 88 11z" />
    <glyph glyph-name="D.sc" unicode="&#xe4e4;" horiz-adv-x="636" 
d="M604 276q0 -135 -73.5 -205.5t-193.5 -70.5h-310v116l77 10v282l-77 11v115h320q49 0 93.5 -15t82 -44.5t59.5 -80.5t22 -118zM413 268q0 62 -24.5 88t-56.5 26h-42v-230h42q31 0 56 28t25 88z" />
    <glyph glyph-name="D.superior" unicode="&#xe4e6;" horiz-adv-x="448" 
d="M428 467q0 -95 -55 -146.5t-146 -51.5h-212v74l49 8v224l-49 8v74h219q81 0 137.5 -48.5t56.5 -141.5zM296 463q0 45 -21.5 68t-50.5 23h-30v-182h30q29 0 50.5 23t21.5 68z" />
    <glyph glyph-name="E.sc" unicode="&#xe4ef;" horiz-adv-x="548" 
d="M509 0h-482v115l77 12v281l-77 11v115h467v-161h-125l-8 29h-71v-72h61l6 16h106v-146h-106l-6 18h-61v-87h81l8 38h130v-169z" />
    <glyph glyph-name="E.superior" unicode="&#xe4f1;" horiz-adv-x="379" 
d="M359 269h-344v74l49 8v224l-49 8v74h333v-118h-86l-6 16h-62v-46h53l3 12h75v-109h-75l-4 14h-52v-54h74l5 19h86v-122z" />
    <glyph glyph-name="F.sc" unicode="&#xe4fa;" horiz-adv-x="513" 
d="M347 400h-57v-75h45l4 16h107v-157h-107l-4 18h-45v-76l82 -11v-115h-345v115l77 11v282l-77 11v115h454v-162h-125z" />
    <glyph glyph-name="F.superior" unicode="&#xe4fc;" horiz-adv-x="357" 
d="M248 558h-54v-63h45l3 15h72v-123h-72l-3 15h-45v-51l49 -8v-74h-228v74l49 8v224l-49 8v74h324v-120h-85z" />
    <glyph glyph-name="G.sc" unicode="&#xe505;" horiz-adv-x="595" 
d="M519 0h-110l-13 29h-2q-46 -41 -110 -41q-121 0 -186.5 69t-65.5 210q0 136 80.5 206.5t219.5 70.5q100 0 165 -27v-181h-125l-13 50q-3 1 -29 1q-47 0 -77 -30t-30 -90t21.5 -91t54.5 -31q48 0 67 8v24l-65 11v112h272v-112l-54 -11v-177z" />
    <glyph glyph-name="G.superior" unicode="&#xe507;" horiz-adv-x="419" 
d="M370 269h-79l-14 26h-2q-30 -32 -78 -32q-177 0 -177 199q0 97 57 149t157 52q63 0 117 -18v-126h-88l-8 36q-1 1 -22 1q-37 0 -59 -24.5t-22 -69.5q0 -44 15 -69t43 -25q34 0 45 7v23l-43 6v72h195v-72l-37 -6v-129z" />
    <glyph glyph-name="H.sc" unicode="&#xe510;" horiz-adv-x="725" 
d="M698 0h-313v115l50 11v70h-145v-70l50 -11v-115h-313v115l77 11v282l-77 11v115h313v-118l-50 -8v-60h145v60l-50 8v118h313v-115l-77 -11v-282l77 -11v-115z" />
    <glyph glyph-name="H.superior" unicode="&#xe512;" horiz-adv-x="489" 
d="M474 269h-212v74l33 8v63h-101v-63l33 -8v-74h-212v74l49 8v224l-49 8v74h212v-74l-33 -8v-58h101v58l-33 8v74h212v-74l-49 -8v-224l49 -8v-74z" />
    <glyph glyph-name="I.sc" unicode="&#xe51b;" horiz-adv-x="394" 
d="M27 0v115l77 11v282l-77 11v115h340v-115l-77 -11v-282l77 -11v-115h-340z" />
    <glyph glyph-name="I.superior" unicode="&#xe51d;" horiz-adv-x="258" 
d="M243 269h-228v74l49 8v224l-49 8v74h228v-74l-49 -8v-224l49 -8v-74z" />
    <glyph glyph-name="J.sc" unicode="&#xe526;" horiz-adv-x="399" 
d="M298 408v-323q0 -41 -27 -85.5t-69 -77.5l-89 -71l-111 132l62 54q48 40 48 66v305l-77 11v115h340v-115z" />
    <glyph glyph-name="J.superior" unicode="&#xe528;" horiz-adv-x="271" 
d="M210 575v-245q0 -63 -73 -118l-66 -49l-76 87l49 37q2 1 8.5 6t8.5 7t7 6.5t7 8t3.5 9.5t1.5 12v239l-49 8v74h228v-74z" />
    <glyph glyph-name="K.sc" unicode="&#xe531;" horiz-adv-x="661" 
d="M651 0h-208l-58 115q-39 79 -42 88h-2l-51 -61v-16l58 -11v-115h-321v115l77 11v282l-77 11v115h282v-121l-19 -4v-89h2q5 8 45 59q13 16 26 29l-20 5v121h271v-115l-72 -11l-81 -90l114 -192l76 -11v-115z" />
    <glyph glyph-name="K.superior" unicode="&#xe533;" horiz-adv-x="469" 
d="M464 269h-146l-40 74q-31 55 -40 77h-2l-42 -50v-19l42 -8v-74h-221v74l49 8v224l-49 8v74h194v-76l-15 -6v-64h2q10 14 41 48q11 11 21 19l-18 4v75h192v-74l-49 -8l-68 -73l99 -151l50 -8v-74z" />
    <glyph glyph-name="L.sc" unicode="&#xe53c;" horiz-adv-x="497" 
d="M475 0h-448v115l77 11v282l-77 11v115h340v-115l-77 -11v-256h49l9 68h127v-220z" />
    <glyph glyph-name="L.superior" unicode="&#xe53e;" horiz-adv-x="346" 
d="M336 269h-321v74l49 8v224l-49 8v74h229v-74l-50 -8v-203h50l6 41h86v-144z" />
    <glyph glyph-name="M.sc" unicode="&#xe547;" horiz-adv-x="785" 
d="M750 0h-320v115l65 11v31q0 37 4 89h-2l-67 -87h-75l-67 87h-2q4 -58 4 -89v-31l65 -11v-115h-328v115l77 11v282l-77 11v115h246l60 -87q36 -51 58 -97h2q25 49 54 90l66 94h245v-111l-77 -11v-286l69 -11v-115z" />
    <glyph glyph-name="M.superior" unicode="&#xe549;" horiz-adv-x="546" 
d="M531 269h-228v74l49 8v35q0 52 2 70h-1l-55 -80h-50l-54 80h-1q1 -8 1 -71v-34l49 -8v-74h-228v74l49 8v224l-49 8v74h166l50 -70q29 -44 41 -64h2q19 35 41 64l51 70h165v-74l-49 -8v-224l49 -8v-74z" />
    <glyph glyph-name="N.sc" unicode="&#xe552;" horiz-adv-x="728" 
d="M627 0h-163l-87 118q-65 89 -90 130h-2q5 -43 5 -89v-33l57 -11v-115h-320v115l77 11v282l-77 11v115h239l73 -97q82 -112 105 -151h2q-5 42 -5 94v32l-57 10v112h320v-111l-77 -11v-412z" />
    <glyph glyph-name="N.superior" unicode="&#xe554;" horiz-adv-x="492" 
d="M428 269h-114l-67 92q-22 30 -55 82h-1q3 -51 3 -73v-19l41 -8v-74h-220v74l49 8v224l-49 8v74h163l67 -91q26 -37 54 -83h2q0 3 -1.5 30.5t-1.5 44.5v17l-41 8v74h220v-74l-49 -8v-306z" />
    <glyph glyph-name="O.sc" unicode="&#xe55d;" horiz-adv-x="607" 
d="M575 266q0 -133 -75 -205.5t-195 -72.5q-121 0 -197 72.5t-76 205.5q0 134 76 207t197 73q120 0 195 -73t75 -207zM384 266q0 123 -79 123q-38 0 -60 -30.5t-22 -92.5q0 -60 22.5 -90.5t59.5 -30.5t58 30t21 91z" />
    <glyph glyph-name="O.superior" unicode="&#xe55f;" horiz-adv-x="430" 
d="M410 463q0 -96 -52.5 -148.5t-142.5 -52.5t-142.5 52t-52.5 149t52.5 149t142.5 52t142.5 -52.5t52.5 -148.5zM278 463q0 44 -18 69t-45 25q-28 0 -45.5 -25t-17.5 -69t17.5 -69t45.5 -25q27 0 45 25t18 69z" />
    <glyph glyph-name="P.sc" unicode="&#xe568;" horiz-adv-x="586" 
d="M570 347q0 -187 -228 -187h-52v-34l77 -11v-115h-340v115l77 11v282l-77 11v115h309q126 0 180 -48.5t54 -138.5zM389 343q0 20 -9 34.5t-24 14.5h-66v-93h66q14 0 23.5 13t9.5 31z" />
    <glyph glyph-name="P.superior" unicode="&#xe56a;" horiz-adv-x="403" 
d="M393 523q0 -67 -43 -102t-121 -35h-35v-35l49 -8v-74h-228v74l49 8v224l-49 8v74h208q170 0 170 -134zM261 522q0 14 -10 24t-24 10h-33v-67h34q13 0 23 10t10 23z" />
    <glyph glyph-name="Q.sc" unicode="&#xe573;" horiz-adv-x="607" 
d="M575 268q0 -165 -114 -238q51 -40 113 -40q17 0 26 1l-8 -118q-14 -3 -32 -3q-55 0 -102 17t-75.5 38t-67.5 42.5t-75 27.5q-24 3 -50 13t-55 31t-51.5 50.5t-37 76t-14.5 102.5q0 134 75.5 206t196.5 72q120 0 195.5 -73t75.5 -205zM384 268q0 60 -22 90.5t-58 30.5
q-37 0 -59 -30t-22 -91q0 -60 22 -91.5t59 -31.5q36 0 58 31.5t22 91.5z" />
    <glyph glyph-name="Q.superior" unicode="&#xe575;" horiz-adv-x="430" 
d="M410 463q0 -129 -98 -179q34 -29 85 -29q15 0 22 1l-4 -78q-8 -2 -30 -2q-39 0 -73.5 11.5t-56 26t-50 31t-53.5 23.5q-24 7 -43 17.5t-41.5 31t-35 58t-12.5 88.5q0 97 52.5 149t142.5 52t142.5 -52t52.5 -149zM278 463q0 44 -18 69t-45 25q-28 0 -45.5 -25t-17.5 -69
q0 -45 17.5 -69.5t45.5 -24.5q27 0 45 24.5t18 69.5z" />
    <glyph glyph-name="R.sc" unicode="&#xe57e;" horiz-adv-x="635" 
d="M620 0h-203l-66 172h-61v-46l56 -11v-115h-319v115l77 11v282l-77 11v115h315q123 0 179 -45.5t56 -138.5q0 -92 -64 -139v-2q13 -22 23 -44l16 -39l68 -11v-115zM396 349q0 21 -10 35.5t-26 14.5h-70v-95h70q16 0 26 13t10 32z" />
    <glyph glyph-name="R.superior" unicode="&#xe580;" horiz-adv-x="429" 
d="M424 269h-143l-51 129h-36v-47l38 -8v-74h-217v74l49 8v224l-49 8v74h209q89 0 130 -32.5t41 -97.5q0 -68 -53 -102v-2q7 -9 25 -50l8 -22l49 -8v-74zM263 527q0 30 -32 30h-37v-58h37q32 0 32 28z" />
    <glyph glyph-name="S.sc" unicode="&#xe589;" horiz-adv-x="512" 
d="M478 183q0 -38 -11 -69.5t-37.5 -61t-78 -46t-123.5 -16.5q-94 0 -192 29v177h130l9 -54q12 -6 49 -6q21 0 33 1.5t21 8.5t9 20q0 19 -23 30t-65.5 22t-63.5 21q-35 18 -58.5 55.5t-23.5 78.5q0 82 61 126.5t177 44.5q69 0 160 -24v-163h-125l-13 45q-6 3 -21 3
q-53 0 -53 -33q0 -15 23 -23.5t63.5 -18t65.5 -21.5q35 -18 61 -51.5t26 -74.5z" />
    <glyph glyph-name="S.superior" unicode="&#xe58b;" horiz-adv-x="366" 
d="M346 399q0 -136 -178 -136q-53 0 -145 25v120h90l10 -41q22 -6 45 -6q46 0 46 24q0 17 -44 28q-67 17 -101 44.5t-34 83.5q0 57 46 89.5t129 32.5q50 0 118 -18v-113h-86l-10 30q-10 5 -25 5q-40 0 -40 -19q0 -3 1 -5.5t4 -4.5t5.5 -3.5t7.5 -3t8 -2.5t10 -3t10 -3
q66 -19 99.5 -44.5t33.5 -79.5z" />
    <glyph glyph-name="T.sc" unicode="&#xe594;" horiz-adv-x="585" 
d="M428 382h-42v-256l77 -11v-115h-340v115l77 11v256h-43l-13 -63h-125v215h547v-215h-125z" />
    <glyph glyph-name="T.superior" unicode="&#xe596;" horiz-adv-x="408" 
d="M302 551h-33v-200l49 -8v-74h-228v74l49 8v200h-33l-10 -36h-86v142h388v-142h-86z" />
    <glyph glyph-name="U.sc" unicode="&#xe59f;" horiz-adv-x="696" 
d="M600 200q0 -212 -252 -212q-121 0 -186.5 52.5t-65.5 159.5v208l-77 11v115h305v-115l-42 -11v-187q0 -34 16 -55t50 -21q66 0 66 76v187l-44 11v115h307v-115l-77 -11v-208z" />
    <glyph glyph-name="U.superior" unicode="&#xe5a1;" horiz-adv-x="477" 
d="M418 412q0 -75 -47.5 -112.5t-133.5 -37.5q-83 0 -130.5 37.5t-47.5 112.5v163l-49 8v74h213v-74l-34 -8v-145q0 -61 48 -61q51 0 51 61v145l-34 8v74h213v-74l-49 -8v-163z" />
    <glyph glyph-name="V.sc" unicode="&#xe5aa;" horiz-adv-x="657" 
d="M579 408l-134 -408h-229l-138 408l-67 11v115h300v-115l-44 -11l11 -41q48 -177 55 -221h2q6 37 55 224l10 38l-44 11v115h290v-115z" />
    <glyph glyph-name="V.superior" unicode="&#xe5ac;" horiz-adv-x="446" 
d="M397 575l-94 -306h-160l-94 306l-44 8v74h203v-74l-31 -8l20 -71q18 -61 26 -123h2q4 37 27 123l19 71l-31 8v74h201v-74z" />
    <glyph glyph-name="W.sc" unicode="&#xe5b5;" horiz-adv-x="855" 
d="M777 408l-127 -408h-171l-17 55q-15 46 -32 132h-2q-17 -80 -32 -128l-18 -59h-176l-124 408l-67 11v115h302v-115l-50 -11l13 -56q6 -26 13 -56.5t11.5 -50t5.5 -23.5h2q18 107 40 200l26 112h112l27 -116q25 -107 39 -196h2q17 88 27 126l16 60l-50 11v115h297v-115z
" />
    <glyph glyph-name="W.superior" unicode="&#xe5b7;" horiz-adv-x="601" 
d="M552 575l-98 -306h-122l-18 80q-10 39 -13 62h-1q0 -5 -13 -64l-19 -78h-123l-96 306l-44 8v74h210v-74l-40 -8l10 -37q17 -63 23 -113h2q7 41 24 107l31 125h73l31 -122q23 -91 27 -110h2q5 38 19 106l10 44l-40 8v74h209v-74z" />
    <glyph glyph-name="X.sc" unicode="&#xe5c0;" horiz-adv-x="643" 
d="M29 534h272v-119l-20 -8l9 -9q6 -7 14.5 -16t12.5 -14t5 -6h2q10 14 32 36l9 9l-20 8v119h268v-116l-67 -11l-113 -125l133 -156l67 -11v-115h-292v117l37 9l-14 14q-6 7 -17 19.5t-18.5 21t-10.5 12.5h-2q-1 -2 -7 -9t-17 -19t-19 -22l-16 -17l37 -9v-117h-284v115
l67 11l132 156l-113 125l-67 11v116z" />
    <glyph glyph-name="X.superior" unicode="&#xe5c2;" horiz-adv-x="481" 
d="M476 269h-220v74l23 4l-16 18q-11 13 -23 36h-1q-13 -20 -26 -37l-14 -17l23 -4v-74h-217v74l44 8l114 126l-90 98l-43 8v74h194v-76l-15 -2l6 -7q26 -29 26 -35h1q4 10 25 33l8 9l-16 2v76h205v-74l-44 -9l-103 -97l116 -126l43 -8v-74z" />
    <glyph glyph-name="Y.sc" unicode="&#xe5cb;" horiz-adv-x="630" 
d="M552 408l-143 -230v-52l77 -11v-115h-340v115l77 11v52l-145 230l-67 11v115h281v-115l-31 -11l9 -14q22 -33 44 -80h2q16 34 44 81l8 13l-31 11v115h282v-115z" />
    <glyph glyph-name="Y.superior" unicode="&#xe5cd;" horiz-adv-x="450" 
d="M401 575l-111 -182v-42l49 -8v-74h-228v74l49 8v42l-111 182l-44 8v74h206v-76l-21 -6l11 -24q16 -36 22 -54h2q8 28 27 60l10 18l-21 6v76h204v-74z" />
    <glyph glyph-name="Z.sc" unicode="&#xe5d6;" horiz-adv-x="545" 
d="M512 0h-482v143l170 164q57 54 82 73v2h-87l-18 -54h-125v206h455v-143l-176 -165q-35 -34 -82 -72v-2h124l9 70h130v-222z" />
    <glyph glyph-name="Z.superior" unicode="&#xe5d8;" horiz-adv-x="365" 
d="M347 269h-327v96l120 130q40 42 56 58v1h-65l-10 -38h-86v141h305v-96l-116 -126q-24 -26 -60 -62v-1h85l9 43h89v-146z" />
    <glyph glyph-name="Eng.sc" unicode="&#xe5e1;" horiz-adv-x="725" 
d="M104 126v282l-77 11v115h239l72 -97q67 -91 103 -151h2q-5 48 -5 109v17l-54 10v112h317v-111l-77 -11v-291q0 -58 -23.5 -114t-62.5 -90l-81 -70l-98 120l53 46q12 11 12 38l-48 67q-76 108 -89 130h-2q5 -43 5 -103v-19l54 -11v-115h-317v115z" />
    <glyph glyph-name="a.sc" unicode="&#xe5ec;" horiz-adv-x="638" 
d="M10 0v115l67 11l128 408h227l129 -408l67 -11v-115h-289v114l49 12l-7 30h-129l-7 -30l49 -11v-115h-284zM287 283h61l-8 31q-11 43 -22 101h-2q-6 -42 -21 -102z" />
    <glyph glyph-name="a.superior" unicode="&#xe5ed;" horiz-adv-x="376" 
d="M368 280l-95 -12h-63l-9 25h-1q-50 -31 -85 -31q-47 0 -71 25t-24 64q0 40 23.5 64.5t71.5 24.5q19 0 41.5 -4.5t36.5 -4.5v22q0 30 -46 30q-11 0 -19 -3l-6 -22h-82v89q53 17 122 17q76 0 115 -27t39 -93v-56q0 -26 3 -37l49 -8v-63zM193 349v28q-5 0 -14 2t-15 2
q-12 0 -20 -6.5t-8 -14.5q0 -23 26 -23q10 0 31 12z" />
    <glyph glyph-name="b.sc" unicode="&#xe5f5;" horiz-adv-x="620" 
d="M590 169q0 -73 -52 -121t-168 -48h-343v115l77 11v282l-77 11v115h330q103 0 157.5 -39.5t54.5 -106.5q0 -59 -47 -89v-2q68 -46 68 -128zM391 379q0 16 -10.5 28t-28.5 12h-62v-76h60q41 0 41 36zM399 177q0 46 -40 46h-69v-90h67q19 0 30.5 13.5t11.5 30.5z" />
    <glyph glyph-name="b.superior" unicode="&#xe5f6;" horiz-adv-x="355" 
d="M340 412q0 -72 -35.5 -111t-95.5 -39q-17 0 -36.5 8.5t-28.5 19.5h-1l-4 -21h-110v324l-49 5v70l117 12h55v-148h1q31 33 63 33q124 0 124 -153zM213 412q0 29 -7.5 40.5t-29.5 11.5q-9 0 -15.5 -8t-8.5 -16v-61q11 -16 22 -16q39 0 39 49z" />
    <glyph glyph-name="c.sc" unicode="&#xe5ff;" horiz-adv-x="514" 
d="M313 -10q-131 0 -206 67t-75 201q0 135 77.5 211t203.5 76q80 0 145 -22v-199h-125l-13 63q-2 1 -15 1q-32 0 -57 -33t-25 -92q0 -58 26 -87t63 -29q55 0 117 19l43 -147q-79 -29 -159 -29z" />
    <glyph glyph-name="c.superior" unicode="&#xe600;" horiz-adv-x="285" 
d="M267 275q-53 -12 -80 -12q-81 0 -126 38.5t-45 113.5q0 72 46 110.5t122 38.5q32 0 76 -8v-130h-73l-6 36q-2 1 -10 1q-9 0 -18.5 -12.5t-9.5 -35.5q0 -51 49 -51q22 0 54 8z" />
    <glyph glyph-name="d.sc" unicode="&#xe609;" horiz-adv-x="636" 
d="M604 276q0 -135 -73.5 -205.5t-193.5 -70.5h-310v116l77 10v282l-77 11v115h320q49 0 93.5 -15t82 -44.5t59.5 -80.5t22 -118zM413 268q0 62 -24.5 88t-56.5 26h-42v-230h42q31 0 56 28t25 88z" />
    <glyph glyph-name="d.superior" unicode="&#xe60a;" horiz-adv-x="390" 
d="M375 280l-95 -12h-64l-3 28h-1q-9 -13 -28 -23.5t-37 -10.5q-60 0 -95.5 39t-35.5 111q0 153 124 153q32 0 62 -30h1v58l-49 5v70l116 12h56v-329l49 -8v-63zM203 382v62q-9 20 -23 20q-21 0 -29 -12.5t-8 -39.5q0 -49 40 -49q7 0 13.5 7.5t6.5 11.5z" />
    <glyph glyph-name="e.sc" unicode="&#xe613;" horiz-adv-x="548" 
d="M509 0h-482v115l77 12v281l-77 11v115h467v-161h-125l-8 29h-71v-72h61l6 16h106v-146h-106l-6 18h-61v-87h81l8 38h130v-169z" />
    <glyph glyph-name="e.superior" unicode="&#xe614;" horiz-adv-x="328" 
d="M315 381h-185q0 -13 18 -22.5t43 -9.5q43 0 87 11l19 -80q-54 -17 -103 -17q-178 0 -178 149q0 74 41.5 113.5t114.5 39.5q143 0 143 -155v-29zM215 451v3q0 15 -13 24.5t-30 9.5t-29.5 -11.5t-12.5 -25.5h85z" />
    <glyph glyph-name="f.sc" unicode="&#xe61c;" horiz-adv-x="513" 
d="M347 400h-57v-75h45l4 16h107v-157h-107l-4 18h-45v-76l82 -11v-115h-345v115l77 11v282l-77 11v115h454v-162h-125z" />
    <glyph glyph-name="f.superior" unicode="&#xe61d;" horiz-adv-x="282" 
d="M294 669l-23 -83q-31 12 -53 12q-31 0 -31 -28v-12h76v-98h-76v-109l56 -8v-74h-228v74l49 8v109h-39v98h39v37q0 40 36.5 65t83.5 25q52 0 110 -16z" />
    <glyph glyph-name="g.sc" unicode="&#xe626;" horiz-adv-x="595" 
d="M519 0h-110l-13 29h-2q-46 -41 -110 -41q-121 0 -186.5 69t-65.5 210q0 136 80.5 206.5t219.5 70.5q100 0 165 -27v-181h-125l-13 50q-3 1 -29 1q-47 0 -77 -30t-30 -90t21.5 -91t54.5 -31q48 0 67 8v24l-65 11v112h272v-112l-54 -11v-177z" />
    <glyph glyph-name="g.superior" unicode="&#xe627;" horiz-adv-x="352" 
d="M341 479h-36v-1q1 -3 1 -9q0 -46 -36.5 -72.5t-101.5 -26.5q-20 0 -36 3q-5 -5 -5 -10q0 -18 24 -18h69q119 0 119 -81q0 -52 -56.5 -87t-124.5 -35q-75 0 -109.5 22t-34.5 67q0 19 11.5 34.5t26.5 20.5v1q-24 18 -24 59q0 18 9.5 34t21.5 22v1q-30 21 -30 66
q0 46 36.5 71t102.5 25q43 0 66 -7h107v-79zM202 469q0 24 -34 24t-34 -24q0 -25 34 -25t34 25zM227 248q0 17 -33 17h-49q-21 -4 -21 -22q0 -24 48 -24q22 0 38.5 9t16.5 20z" />
    <glyph glyph-name="h.sc" unicode="&#xe630;" horiz-adv-x="725" 
d="M698 0h-313v115l50 11v70h-145v-70l50 -11v-115h-313v115l77 11v282l-77 11v115h313v-118l-50 -8v-60h145v60l-50 8v118h313v-115l-77 -11v-282l77 -11v-115z" />
    <glyph glyph-name="h.superior" unicode="&#xe631;" horiz-adv-x="434" 
d="M424 269h-172v173q0 25 -25 25q-27 0 -40 -25v-91l35 -8v-74h-207v74l49 8v242l-49 5v71l118 11h54v-160h1q11 21 37.5 33t54.5 12q45 0 70 -25t25 -69v-120l49 -8v-74z" />
    <glyph glyph-name="i.sc" unicode="&#xe63a;" horiz-adv-x="394" 
d="M27 0v115l77 11v282l-77 11v115h340v-115l-77 -11v-282l77 -11v-115h-340z" />
    <glyph glyph-name="j.sc" unicode="&#xe643;" horiz-adv-x="399" 
d="M298 408v-323q0 -41 -27 -85.5t-69 -77.5l-89 -71l-111 132l62 54q48 40 48 66v305l-77 11v115h340v-115z" />
    <glyph glyph-name="j.superior" unicode="&#xe644;" horiz-adv-x="212" 
d="M-3 217l40 45q13 13 16 21.5t3 30.5v157l-50 5v71l119 11h54v-232q0 -50 -7 -72t-39 -53l-60 -59zM115 585q-29 0 -49 17t-20 41q0 25 20 41t49 16t49 -16t20 -41q0 -24 -20 -41t-49 -17z" />
    <glyph glyph-name="k.sc" unicode="&#xe64d;" horiz-adv-x="661" 
d="M651 0h-208l-58 115q-39 79 -42 88h-2l-51 -61v-16l58 -11v-115h-321v115l77 11v282l-77 11v115h282v-121l-19 -4v-89h2q5 8 45 59q13 16 26 29l-20 5v121h271v-115l-72 -11l-81 -90l114 -192l76 -11v-115z" />
    <glyph glyph-name="k.superior" unicode="&#xe64e;" horiz-adv-x="427" 
d="M419 269h-134l-24 51q-25 51 -29 64h-1l-44 -31v-2l38 -8v-74h-210v74l49 8v242l-49 5v70l116 12h56v-238h1q17 22 31 32l14 11l-22 4v69h183v-71l-43 -8l-41 -37l60 -91l49 -8v-74z" />
    <glyph glyph-name="l.sc" unicode="&#xe657;" horiz-adv-x="497" 
d="M475 0h-448v115l77 11v282l-77 11v115h340v-115l-77 -11v-256h49l9 68h127v-220z" />
    <glyph glyph-name="l.superior" unicode="&#xe658;" horiz-adv-x="251" 
d="M64 351v242l-49 5v70l117 12h55v-329l49 -8v-74h-221v74z" />
    <glyph glyph-name="m.sc" unicode="&#xe661;" horiz-adv-x="785" 
d="M750 0h-320v115l65 11v31q0 37 4 89h-2l-67 -87h-75l-67 87h-2q4 -58 4 -89v-31l65 -11v-115h-328v115l77 11v282l-77 11v115h246l60 -87q36 -51 58 -97h2q25 49 54 90l66 94h245v-111l-77 -11v-286l69 -11v-115z" />
    <glyph glyph-name="m.superior" unicode="&#xe662;" horiz-adv-x="603" 
d="M593 269h-172v174q0 24 -23 24q-20 0 -33 -27v-89l26 -6v-76h-148v174q0 24 -23 24q-22 0 -33 -27v-89l26 -6v-76h-198v74l49 8v120l-49 5v71l117 11h45l5 -40h1q9 19 36 33t51 14q66 0 86 -51h1q9 22 37 36.5t54 14.5q45 0 70.5 -27t25.5 -72v-115l49 -8v-74z" />
    <glyph glyph-name="n.sc" unicode="&#xe66b;" horiz-adv-x="728" 
d="M627 0h-163l-87 118q-65 89 -90 130h-2q5 -43 5 -89v-33l57 -11v-115h-320v115l77 11v282l-77 11v115h239l73 -97q82 -112 105 -151h2q-5 42 -5 94v32l-57 10v112h320v-111l-77 -11v-412z" />
    <glyph glyph-name="o.sc" unicode="&#xe674;" horiz-adv-x="607" 
d="M575 266q0 -133 -75 -205.5t-195 -72.5q-121 0 -197 72.5t-76 205.5q0 134 76 207t197 73q120 0 195 -73t75 -207zM384 266q0 123 -79 123q-38 0 -60 -30.5t-22 -92.5q0 -60 22.5 -90.5t59.5 -30.5t58 30t21 91z" />
    <glyph glyph-name="o.superior" unicode="&#xe675;" horiz-adv-x="349" 
d="M334 413q0 -72 -45 -111.5t-114 -39.5q-70 0 -114.5 39.5t-44.5 111.5q0 73 44.5 112.5t114.5 39.5q69 0 114 -39.5t45 -112.5zM207 413q0 51 -32 51t-32 -51q0 -50 32 -50t32 50z" />
    <glyph glyph-name="p.sc" unicode="&#xe67d;" horiz-adv-x="586" 
d="M570 347q0 -187 -228 -187h-52v-34l77 -11v-115h-340v115l77 11v282l-77 11v115h309q126 0 180 -48.5t54 -138.5zM389 343q0 20 -9 34.5t-24 14.5h-66v-93h66q14 0 23.5 13t9.5 31z" />
    <glyph glyph-name="p.superior" unicode="&#xe67e;" horiz-adv-x="378" 
d="M363 413q0 -73 -35.5 -112t-94.5 -39q-44 0 -56 22h-1v-53l49 -8v-74h-220v74l49 8v240l-49 5v71l116 11h41l3 -32h3q10 18 31 28.5t41 10.5q123 0 123 -152zM236 413q0 27 -7.5 39t-28.5 12q-16 0 -24 -20v-72q4 -9 21 -9q39 0 39 50z" />
    <glyph glyph-name="q.sc" unicode="&#xe687;" horiz-adv-x="607" 
d="M575 268q0 -165 -114 -238q51 -40 113 -40q17 0 26 1l-8 -118q-14 -3 -32 -3q-55 0 -102 17t-75.5 38t-67.5 42.5t-75 27.5q-24 3 -50 13t-55 31t-51.5 50.5t-37 76t-14.5 102.5q0 134 75.5 206t196.5 72q120 0 195.5 -73t75.5 -205zM384 268q0 60 -22 90.5t-58 30.5
q-37 0 -59 -30t-22 -91q0 -60 22 -91.5t59 -31.5q36 0 58 31.5t22 91.5z" />
    <glyph glyph-name="q.superior" unicode="&#xe688;" horiz-adv-x="365" 
d="M375 149h-221v74l49 8v53h-1q-17 -22 -55 -22q-60 0 -95.5 39t-35.5 111q0 153 124 153q44 0 72 -36h1l3 29h110v-327l49 -8v-74zM203 378v65q-8 21 -23 21q-21 0 -29 -12t-8 -40q0 -49 40 -49q7 0 13.5 5.5t6.5 9.5z" />
    <glyph glyph-name="r.sc" unicode="&#xe691;" horiz-adv-x="635" 
d="M620 0h-203l-66 172h-61v-46l56 -11v-115h-319v115l77 11v282l-77 11v115h315q123 0 179 -45.5t56 -138.5q0 -92 -64 -139v-2q13 -22 23 -44l16 -39l68 -11v-115zM396 349q0 21 -10 35.5t-26 14.5h-70v-95h70q16 0 26 13t10 32z" />
    <glyph glyph-name="r.superior" unicode="&#xe692;" horiz-adv-x="325" 
d="M311 422h-73l-9 40q-2 1 -9 1q-8 0 -19.5 -13.5t-13.5 -31.5v-67l55 -8v-74h-227v74l49 8v120l-49 5v71l117 11h40l4 -46h1q4 20 29.5 36t49.5 16q19 0 55 -14v-128z" />
    <glyph glyph-name="s.sc" unicode="&#xe69b;" horiz-adv-x="512" 
d="M478 183q0 -38 -11 -69.5t-37.5 -61t-78 -46t-123.5 -16.5q-94 0 -192 29v177h130l9 -54q12 -6 49 -6q21 0 33 1.5t21 8.5t9 20q0 19 -23 30t-65.5 22t-63.5 21q-35 18 -58.5 55.5t-23.5 78.5q0 82 61 126.5t177 44.5q69 0 160 -24v-163h-125l-13 45q-6 3 -21 3
q-53 0 -53 -33q0 -15 23 -23.5t63.5 -18t65.5 -21.5q35 -18 61 -51.5t26 -74.5z" />
    <glyph glyph-name="s.superior" unicode="&#xe69c;" horiz-adv-x="291" 
d="M276 366q0 -47 -35 -75t-111 -28q-61 0 -113 16v98h75l7 -23q6 -4 23 -4q35 0 35 11q0 3 -2 6t-6.5 4.5t-8.5 2.5t-9.5 2.5t-8.5 2.5q-49 14 -72.5 33t-23.5 59q0 42 34.5 68t91.5 26q58 0 105 -13v-85h-70l-4 22q-4 2 -14 2q-27 0 -27 -15q0 -11 27 -16q17 -4 26.5 -6.5
t27 -10t27.5 -16.5t18 -25t8 -36z" />
    <glyph glyph-name="t.sc" unicode="&#xe6a5;" horiz-adv-x="585" 
d="M428 382h-42v-256l77 -11v-115h-340v115l77 11v256h-43l-13 -63h-125v215h547v-215h-125z" />
    <glyph glyph-name="t.superior" unicode="&#xe6a6;" horiz-adv-x="270" 
d="M269 280q-46 -16 -111 -16q-49 0 -81 21.5t-32 65.5v109h-40v98h40v54l123 32v-86h75v-98h-75v-70q0 -31 23 -31q18 0 51 10z" />
    <glyph glyph-name="u.sc" unicode="&#xe6af;" horiz-adv-x="696" 
d="M600 200q0 -212 -252 -212q-121 0 -186.5 52.5t-65.5 159.5v208l-77 11v115h305v-115l-42 -11v-187q0 -34 16 -55t50 -21q66 0 66 76v187l-44 11v115h307v-115l-77 -11v-208z" />
    <glyph glyph-name="u.superior" unicode="&#xe6b0;" horiz-adv-x="420" 
d="M405 280l-91 -12h-69l-5 39h-1q-11 -20 -39.5 -32.5t-55.5 -12.5q-45 0 -68.5 24.5t-23.5 68.5v116l-49 5v71l116 11h56v-175q0 -25 22 -25q25 0 36 26v87l-28 5v71l97 11h54v-207l49 -8v-63z" />
    <glyph glyph-name="v.sc" unicode="&#xe6b9;" horiz-adv-x="657" 
d="M579 408l-134 -408h-229l-138 408l-67 11v115h300v-115l-44 -11l11 -41q48 -177 55 -221h2q6 37 55 224l10 38l-44 11v115h290v-115z" />
    <glyph glyph-name="v.superior" unicode="&#xe6ba;" horiz-adv-x="413" 
d="M365 479l-83 -210h-152l-82 210l-44 8v71h189v-76l-20 -3l9 -25q21 -62 26 -95h1q7 46 25 95l9 25l-19 3v76h185v-71z" />
    <glyph glyph-name="w.sc" unicode="&#xe6c3;" horiz-adv-x="855" 
d="M777 408l-127 -408h-171l-17 55q-15 46 -32 132h-2q-17 -80 -32 -128l-18 -59h-176l-124 408l-67 11v115h302v-115l-50 -11l13 -56q6 -26 13 -56.5t11.5 -50t5.5 -23.5h2q18 107 40 200l26 112h112l27 -116q25 -107 39 -196h2q17 88 27 126l16 60l-50 11v115h297v-115z
" />
    <glyph glyph-name="w.superior" unicode="&#xe6c4;" horiz-adv-x="514" 
d="M466 479l-74 -210h-99l-14 36q-19 63 -20 70h-2q-6 -29 -20 -70l-13 -36h-99l-77 210l-44 8v71h184v-75l-24 -4l5 -14q14 -42 16 -64h1q8 37 20 75l26 82h54l24 -82q17 -62 20 -75h2q4 27 16 64l5 14l-24 4v75h181v-71z" />
    <glyph glyph-name="x.sc" unicode="&#xe6cd;" horiz-adv-x="643" 
d="M29 534h272v-119l-20 -8l9 -9q6 -7 14.5 -16t12.5 -14t5 -6h2q10 14 32 36l9 9l-20 8v119h268v-116l-67 -11l-113 -125l133 -156l67 -11v-115h-292v117l37 9l-14 14q-6 7 -17 19.5t-18.5 21t-10.5 12.5h-2q-1 -2 -7 -9t-17 -19t-19 -22l-16 -17l37 -9v-117h-284v115
l67 11l132 156l-113 125l-67 11v116z" />
    <glyph glyph-name="x.superior" unicode="&#xe6ce;" horiz-adv-x="345" 
d="M338 269h-127l-16 28q-11 17 -24 47h-1q0 -1 -4.5 -10t-9.5 -18.5t-9 -17.5l-17 -29h-123v74l44 8l53 70l-46 58l-44 8v71h133l10 -18q11 -23 18 -41h1q6 18 19 41l10 18h124v-71l-44 -8l-43 -58l52 -70l44 -8v-74z" />
    <glyph glyph-name="y.sc" unicode="&#xe6d6;" horiz-adv-x="630" 
d="M552 408l-143 -230v-52l77 -11v-115h-340v115l77 11v52l-145 230l-67 11v115h281v-115l-31 -11l9 -14q22 -33 44 -80h2q16 34 44 81l8 13l-31 11v115h282v-115z" />
    <glyph glyph-name="y.superior" unicode="&#xe6d7;" horiz-adv-x="411" 
d="M363 479l-58 -115q-62 -122 -108 -165l-78 -71l-71 70l33 32q42 40 58 59l-91 190l-44 8v71h188v-76l-18 -3l13 -36q15 -41 19 -67h1q0 12 20 67l13 34l-18 5v76h185v-71z" />
    <glyph glyph-name="z.sc" unicode="&#xe6e0;" horiz-adv-x="545" 
d="M512 0h-482v143l170 164q57 54 82 73v2h-87l-18 -54h-125v206h455v-143l-176 -165q-35 -34 -82 -72v-2h124l9 70h130v-222z" />
    <glyph glyph-name="z.superior" unicode="&#xe6e1;" horiz-adv-x="332" 
d="M312 269h-290v87l90 72q39 30 45 34v1h-47l-7 -23h-75v118h279v-86l-84 -69q-33 -26 -49 -37v-1h58l5 27h75v-123z" />
    <glyph glyph-name="eng.sc" unicode="&#xe6ea;" horiz-adv-x="725" 
d="M104 126v282l-77 11v115h239l72 -97q67 -91 103 -151h2q-5 48 -5 109v17l-54 10v112h317v-111l-77 -11v-291q0 -58 -23.5 -114t-62.5 -90l-81 -70l-98 120l53 46q12 11 12 38l-48 67q-76 108 -89 130h-2q5 -43 5 -103v-19l54 -11v-115h-317v115z" />
    <glyph glyph-name="Agrave.sc" unicode="&#xe6f4;" horiz-adv-x="638" 
d="M10 0v115l67 11l128 408h227l129 -408l67 -11v-115h-289v114l49 12l-7 30h-129l-7 -30l49 -11v-115h-284zM287 283h61l-8 31q-11 43 -22 101h-2q-6 -42 -21 -102zM393 600h-129l-159 141h175z" />
    <glyph glyph-name="Aacute.sc" unicode="&#xe6ff;" horiz-adv-x="638" 
d="M10 0v115l67 11l128 408h227l129 -408l67 -11v-115h-289v114l49 12l-7 30h-129l-7 -30l49 -11v-115h-284zM287 283h61l-8 31q-11 43 -22 101h-2q-6 -42 -21 -102zM370 600h-129l113 141h175z" />
    <glyph glyph-name="Acircumflex.sc" unicode="&#xe70a;" horiz-adv-x="638" 
d="M10 0v115l67 11l128 408h227l129 -408l67 -11v-115h-289v114l49 12l-7 30h-129l-7 -30l49 -11v-115h-284zM287 283h61l-8 31q-11 43 -22 101h-2q-6 -42 -21 -102zM256 600h-134l136 141h118l136 -141h-134l-60 76h-2z" />
    <glyph glyph-name="Atilde.sc" unicode="&#xe715;" horiz-adv-x="638" 
d="M10 0v115l67 11l128 408h227l129 -408l67 -11v-115h-289v114l49 12l-7 30h-129l-7 -30l49 -11v-115h-284zM287 283h61l-8 31q-11 43 -22 101h-2q-6 -42 -21 -102zM513 660q-75 -68 -133 -68q-33 0 -69.5 24t-58.5 24q-18 0 -34 -10t-45 -36l-53 82q76 67 132 67
q35 0 71 -24t57 -24q18 0 34.5 10.5t44.5 35.5z" />
    <glyph glyph-name="Adieresis.sc" unicode="&#xe720;" horiz-adv-x="638" 
d="M10 0v115l67 11l128 408h227l129 -408l67 -11v-115h-289v114l49 12l-7 30h-129l-7 -30l49 -11v-115h-284zM287 283h61l-8 31q-11 43 -22 101h-2q-6 -42 -21 -102zM100 668q0 35 28 60t66 25q40 0 68 -25t28 -60t-28 -60t-68 -25q-38 0 -66 25t-28 60zM344 668q0 35 28 60
t66 25q40 0 68 -25t28 -60t-28 -60t-68 -25q-38 0 -66 25t-28 60z" />
    <glyph glyph-name="Amacron.sc" unicode="&#xe72b;" horiz-adv-x="638" 
d="M10 0v115l67 11l128 408h227l129 -408l67 -11v-115h-289v114l49 12l-7 30h-129l-7 -30l49 -11v-115h-284zM287 283h61l-8 31q-11 43 -22 101h-2q-6 -42 -21 -102zM147 621v94h340v-94h-340z" />
    <glyph glyph-name="Abreve.sc" unicode="&#xe736;" horiz-adv-x="638" 
d="M10 0v115l67 11l128 408h227l129 -408l67 -11v-115h-289v114l49 12l-7 30h-129l-7 -30l49 -11v-115h-284zM287 283h61l-8 31q-11 43 -22 101h-2q-6 -42 -21 -102zM144 742h92q1 -28 25 -48t56 -20t56 20t25 48h92q0 -61 -51 -104.5t-122 -43.5t-122 43.5t-51 104.5z" />
    <glyph glyph-name="Aring.sc" unicode="&#xe741;" horiz-adv-x="638" 
d="M10 0v115l67 11l128 408h227l129 -408l67 -11v-115h-289v114l49 12l-7 30h-129l-7 -30l49 -11v-115h-284zM287 283h61l-8 31q-11 43 -22 101h-2q-6 -42 -21 -102zM188 684q0 53 38 92t90 39t90.5 -39t38.5 -92t-38 -91.5t-91 -38.5q-52 0 -90 38.5t-38 91.5zM267 684
q0 -25 14 -42t35 -17t35.5 17t14.5 42t-14.5 42.5t-35.5 17.5t-35 -17.5t-14 -42.5z" />
    <glyph glyph-name="Aogonek.sc" unicode="&#xe757;" horiz-adv-x="638" 
d="M320 -121q0 32 29 66.5t74 54.5h-84v114l49 12l-7 30h-129l-7 -30l49 -11v-115h-284v115l67 11l128 408h227l129 -408l67 -11v-115h-86q-38 -21 -61.5 -48.5t-23.5 -48.5q0 -14 8 -24.5t22 -10.5q12 0 26 4l19 -77q-39 -15 -77 -15q-61 0 -98 25t-37 74zM287 283h61
l-8 31q-11 43 -22 101h-2q-6 -42 -21 -102z" />
    <glyph glyph-name="AE.sc" unicode="&#xe762;" horiz-adv-x="791" 
d="M62 126l158 306l-61 10v92h578v-161h-127l-7 29h-70v-72h59l6 16h108v-146h-108l-6 18h-59v-87h80l8 38h131v-169h-450v115l45 12v29h-120l-13 -30l44 -11v-115h-263v114zM286 283h61v21q0 26 3 117h-2q-10 -24 -50 -112z" />
    <glyph glyph-name="AEacute.sc" unicode="&#xe76d;" horiz-adv-x="791" 
d="M62 126l158 306l-61 10v92h578v-161h-127l-7 29h-70v-72h59l6 16h108v-146h-108l-6 18h-59v-87h80l8 38h131v-169h-450v115l45 12v29h-120l-13 -30l44 -11v-115h-263v114zM286 283h61v21q0 26 3 117h-2q-10 -24 -50 -112zM488 600h-129l113 141h175z" />
    <glyph glyph-name="Cacute.sc" unicode="&#xe778;" horiz-adv-x="514" 
d="M313 -10q-131 0 -206 67t-75 201q0 135 77.5 211t203.5 76q80 0 145 -22v-199h-125l-13 63q-2 1 -15 1q-32 0 -57 -33t-25 -92q0 -58 26 -87t63 -29q55 0 117 19l43 -147q-79 -29 -159 -29zM343 600h-129l113 141h175z" />
    <glyph glyph-name="Ccircumflex.sc" unicode="&#xe783;" horiz-adv-x="514" 
d="M313 -10q-131 0 -206 67t-75 201q0 135 77.5 211t203.5 76q80 0 145 -22v-199h-125l-13 63q-2 1 -15 1q-32 0 -57 -33t-25 -92q0 -58 26 -87t63 -29q55 0 117 19l43 -147q-79 -29 -159 -29zM229 600h-134l136 141h118l136 -141h-134l-60 76h-2z" />
    <glyph glyph-name="Ccaron.sc" unicode="&#xe78e;" horiz-adv-x="514" 
d="M313 -10q-131 0 -206 67t-75 201q0 135 77.5 211t203.5 76q80 0 145 -22v-199h-125l-13 63q-2 1 -15 1q-32 0 -57 -33t-25 -92q0 -58 26 -87t63 -29q55 0 117 19l43 -147q-79 -29 -159 -29zM95 741h134l60 -76h2l60 76h134l-136 -141h-118z" />
    <glyph glyph-name="Cdotaccent.sc" unicode="&#xe799;" horiz-adv-x="514" 
d="M313 -10q-131 0 -206 67t-75 201q0 135 77.5 211t203.5 76q80 0 145 -22v-199h-125l-13 63q-2 1 -15 1q-32 0 -57 -33t-25 -92q0 -58 26 -87t63 -29q55 0 117 19l43 -147q-79 -29 -159 -29zM185 669q0 39 31 66.5t73 27.5q44 0 75 -27.5t31 -66.5t-31 -66.5t-75 -27.5
q-42 0 -73 27.5t-31 66.5z" />
    <glyph glyph-name="Ccedilla.sc" unicode="&#xe7a4;" horiz-adv-x="514" 
d="M390 -119q0 -47 -32 -74t-79 -27q-66 0 -106 21l27 64q45 -16 65 -16q40 0 40 27q0 12 -6 19t-22 10.5t-31 4.5t-44 2l29 86q-94 19 -146.5 84t-52.5 176q0 135 77.5 211t203.5 76q80 0 145 -22v-199h-125l-13 63q-2 1 -15 1q-32 0 -57 -33t-25 -92q0 -58 26 -87t63 -29
q55 0 117 19l43 -147q-79 -29 -159 -29h-11l-8 -23v-2q43 -2 69.5 -26t26.5 -58z" />
    <glyph glyph-name="Dcaron.sc" unicode="&#xe7af;" horiz-adv-x="636" 
d="M604 276q0 -135 -73.5 -205.5t-193.5 -70.5h-310v116l77 10v282l-77 11v115h320q49 0 93.5 -15t82 -44.5t59.5 -80.5t22 -118zM413 268q0 62 -24.5 88t-56.5 26h-42v-230h42q31 0 56 28t25 88zM106 741h134l60 -76h2l60 76h134l-136 -141h-118z" />
    <glyph glyph-name="Dcroat.sc" unicode="&#xe7ba;" horiz-adv-x="641" 
d="M65 229v94h45v85l-77 11v115h319q49 0 93.5 -15t82 -44.5t59.5 -80.5t22 -118q0 -135 -73.5 -205.5t-193.5 -70.5h-309v116l77 10v103h-45zM418 268q0 62 -24.5 88t-56.5 26h-41v-59h56v-94h-56v-77h41q31 0 56 28t25 88z" />
    <glyph glyph-name="Eth.sc" unicode="&#xe7c5;" horiz-adv-x="641" 
d="M65 229v94h45v85l-77 11v115h319q49 0 93.5 -15t82 -44.5t59.5 -80.5t22 -118q0 -135 -73.5 -205.5t-193.5 -70.5h-309v116l77 10v103h-45zM418 268q0 62 -24.5 88t-56.5 26h-41v-59h56v-94h-56v-77h41q31 0 56 28t25 88z" />
    <glyph glyph-name="Egrave.sc" unicode="&#xe7d0;" horiz-adv-x="548" 
d="M509 0h-482v115l77 12v281l-77 11v115h467v-161h-125l-8 29h-71v-72h61l6 16h106v-146h-106l-6 18h-61v-87h81l8 38h130v-169zM348 600h-129l-159 141h175z" />
    <glyph glyph-name="Egrave.superior" unicode="&#xe7d2;" horiz-adv-x="379" 
d="M277 692h-88l-124 75h124zM359 269h-344v74l49 8v224l-49 8v74h333v-118h-86l-6 16h-62v-46h53l3 12h75v-109h-75l-4 14h-52v-54h74l5 19h86v-122z" />
    <glyph glyph-name="Eacute.sc" unicode="&#xe7db;" horiz-adv-x="548" 
d="M509 0h-482v115l77 12v281l-77 11v115h467v-161h-125l-8 29h-71v-72h61l6 16h106v-146h-106l-6 18h-61v-87h81l8 38h130v-169zM325 600h-129l113 141h175z" />
    <glyph glyph-name="Ecircumflex.sc" unicode="&#xe7e6;" horiz-adv-x="548" 
d="M509 0h-482v115l77 12v281l-77 11v115h467v-161h-125l-8 29h-71v-72h61l6 16h106v-146h-106l-6 18h-61v-87h81l8 38h130v-169zM211 600h-134l136 141h118l136 -141h-134l-60 76h-2z" />
    <glyph glyph-name="Ecaron.sc" unicode="&#xe7f1;" horiz-adv-x="548" 
d="M509 0h-482v115l77 12v281l-77 11v115h467v-161h-125l-8 29h-71v-72h61l6 16h106v-146h-106l-6 18h-61v-87h81l8 38h130v-169zM77 741h134l60 -76h2l60 76h134l-136 -141h-118z" />
    <glyph glyph-name="Edieresis.sc" unicode="&#xe7fc;" horiz-adv-x="548" 
d="M509 0h-482v115l77 12v281l-77 11v115h467v-161h-125l-8 29h-71v-72h61l6 16h106v-146h-106l-6 18h-61v-87h81l8 38h130v-169zM55 668q0 35 28 60t66 25q40 0 68 -25t28 -60t-28 -60t-68 -25q-38 0 -66 25t-28 60zM299 668q0 35 28 60t66 25q40 0 68 -25t28 -60t-28 -60
t-68 -25q-38 0 -66 25t-28 60z" />
    <glyph glyph-name="Emacron.sc" unicode="&#xe807;" horiz-adv-x="548" 
d="M509 0h-482v115l77 12v281l-77 11v115h467v-161h-125l-8 29h-71v-72h61l6 16h106v-146h-106l-6 18h-61v-87h81l8 38h130v-169zM102 621v94h340v-94h-340z" />
    <glyph glyph-name="Ebreve.sc" unicode="&#xe812;" horiz-adv-x="548" 
d="M509 0h-482v115l77 12v281l-77 11v115h467v-161h-125l-8 29h-71v-72h61l6 16h106v-146h-106l-6 18h-61v-87h81l8 38h130v-169zM99 742h92q1 -28 25 -48t56 -20t56 20t25 48h92q0 -61 -51 -104.5t-122 -43.5t-122 43.5t-51 104.5z" />
    <glyph glyph-name="Edotaccent.sc" unicode="&#xe81d;" horiz-adv-x="548" 
d="M509 0h-482v115l77 12v281l-77 11v115h467v-161h-125l-8 29h-71v-72h61l6 16h106v-146h-106l-6 18h-61v-87h81l8 38h130v-169zM167 669q0 39 31 66.5t73 27.5q44 0 75 -27.5t31 -66.5t-31 -66.5t-75 -27.5q-42 0 -73 27.5t-31 66.5z" />
    <glyph glyph-name="Eogonek.sc" unicode="&#xe828;" horiz-adv-x="548" 
d="M284 -121q0 34 29.5 67.5t73.5 53.5h-360v115l77 12v281l-77 11v115h467v-161h-125l-8 29h-71v-72h61l6 16h106v-146h-106l-6 18h-61v-87h81l8 38h130v-169q-39 -23 -63.5 -49.5t-24.5 -47.5q0 -14 8 -24.5t22 -10.5q12 0 26 4l19 -77q-39 -15 -77 -15q-61 0 -98 25
t-37 74z" />
    <glyph glyph-name="Gcircumflex.sc" unicode="&#xe833;" horiz-adv-x="595" 
d="M519 0h-110l-13 29h-2q-46 -41 -110 -41q-121 0 -186.5 69t-65.5 210q0 136 80.5 206.5t219.5 70.5q100 0 165 -27v-181h-125l-13 50q-3 1 -29 1q-47 0 -77 -30t-30 -90t21.5 -91t54.5 -31q48 0 67 8v24l-65 11v112h272v-112l-54 -11v-177zM252 600h-134l136 141h118
l136 -141h-134l-60 76h-2z" />
    <glyph glyph-name="Gbreve.sc" unicode="&#xe83e;" horiz-adv-x="595" 
d="M519 0h-110l-13 29h-2q-46 -41 -110 -41q-121 0 -186.5 69t-65.5 210q0 136 80.5 206.5t219.5 70.5q100 0 165 -27v-181h-125l-13 50q-3 1 -29 1q-47 0 -77 -30t-30 -90t21.5 -91t54.5 -31q48 0 67 8v24l-65 11v112h272v-112l-54 -11v-177zM140 742h92q1 -28 25 -48
t56 -20t56 20t25 48h92q0 -61 -51 -104.5t-122 -43.5t-122 43.5t-51 104.5z" />
    <glyph glyph-name="Gdotaccent.sc" unicode="&#xe849;" horiz-adv-x="595" 
d="M519 0h-110l-13 29h-2q-46 -41 -110 -41q-121 0 -186.5 69t-65.5 210q0 136 80.5 206.5t219.5 70.5q100 0 165 -27v-181h-125l-13 50q-3 1 -29 1q-47 0 -77 -30t-30 -90t21.5 -91t54.5 -31q48 0 67 8v24l-65 11v112h272v-112l-54 -11v-177zM208 669q0 39 31 66.5t73 27.5
q44 0 75 -27.5t31 -66.5t-31 -66.5t-75 -27.5q-42 0 -73 27.5t-31 66.5z" />
    <glyph glyph-name="Gcommaaccent.sc" unicode="&#xe854;" horiz-adv-x="595" 
d="M519 0h-110l-13 29h-2q-46 -41 -110 -41q-121 0 -186.5 69t-65.5 210q0 136 80.5 206.5t219.5 70.5q100 0 165 -27v-181h-125l-13 50q-3 1 -29 1q-47 0 -77 -30t-30 -90t21.5 -91t54.5 -31q48 0 67 8v24l-65 11v112h272v-112l-54 -11v-177zM383 -42q1 -5 1 -14
q0 -94 -116 -166l-77 26q17 25 29.5 61t12.5 63q0 11 -1 17z" />
    <glyph glyph-name="Hcircumflex.sc" unicode="&#xe85f;" horiz-adv-x="725" 
d="M698 0h-313v115l50 11v70h-145v-70l50 -11v-115h-313v115l77 11v282l-77 11v115h313v-118l-50 -8v-60h145v60l-50 8v118h313v-115l-77 -11v-282l77 -11v-115zM302 600h-134l136 141h118l136 -141h-134l-60 76h-2z" />
    <glyph glyph-name="Hbar.sc" unicode="&#xe86a;" horiz-adv-x="725" 
d="M45 327v65h59v16l-77 11v115h313v-118l-50 -8v-16h145v16l-50 8v118h313v-115l-77 -11v-16h59v-65h-59v-201l77 -11v-115h-313v115l50 11v40h-145v-40l50 -11v-115h-313v115l77 11v201h-59zM290 304h145v23h-145v-23z" />
    <glyph glyph-name="Igrave.sc" unicode="&#xe875;" horiz-adv-x="394" 
d="M27 0v115l77 11v282l-77 11v115h340v-115l-77 -11v-282l77 -11v-115h-340zM273 600h-129l-159 141h175z" />
    <glyph glyph-name="Iacute.sc" unicode="&#xe880;" horiz-adv-x="394" 
d="M27 0v115l77 11v282l-77 11v115h340v-115l-77 -11v-282l77 -11v-115h-340zM250 600h-129l113 141h175z" />
    <glyph glyph-name="Ibreve.sc" unicode="&#xe88b;" horiz-adv-x="394" 
d="M27 0v115l77 11v282l-77 11v115h340v-115l-77 -11v-282l77 -11v-115h-340zM24 742h92q1 -28 25 -48t56 -20t56 20t25 48h92q0 -61 -51 -104.5t-122 -43.5t-122 43.5t-51 104.5z" />
    <glyph glyph-name="Icircumflex.sc" unicode="&#xe896;" horiz-adv-x="394" 
d="M27 0v115l77 11v282l-77 11v115h340v-115l-77 -11v-282l77 -11v-115h-340zM136 600h-134l136 141h118l136 -141h-134l-60 76h-2z" />
    <glyph glyph-name="Itilde.sc" unicode="&#xe8a1;" horiz-adv-x="394" 
d="M27 0v115l77 11v282l-77 11v115h340v-115l-77 -11v-282l77 -11v-115h-340zM393 660q-75 -68 -133 -68q-33 0 -69.5 24t-58.5 24q-18 0 -34 -10t-45 -36l-53 82q76 67 132 67q35 0 71 -24t57 -24q18 0 34.5 10.5t44.5 35.5z" />
    <glyph glyph-name="Idieresis.sc" unicode="&#xe8ac;" horiz-adv-x="394" 
d="M27 0v115l77 11v282l-77 11v115h340v-115l-77 -11v-282l77 -11v-115h-340zM-20 668q0 35 28 60t66 25q40 0 68 -25t28 -60t-28 -60t-68 -25q-38 0 -66 25t-28 60zM224 668q0 35 28 60t66 25q40 0 68 -25t28 -60t-28 -60t-68 -25q-38 0 -66 25t-28 60z" />
    <glyph glyph-name="Imacron.sc" unicode="&#xe8b7;" horiz-adv-x="394" 
d="M27 0v115l77 11v282l-77 11v115h340v-115l-77 -11v-282l77 -11v-115h-340zM27 621v94h340v-94h-340z" />
    <glyph glyph-name="Idotaccent.sc" unicode="&#xe8c2;" horiz-adv-x="394" 
d="M27 0v115l77 11v282l-77 11v115h340v-115l-77 -11v-282l77 -11v-115h-340zM92 669q0 39 31 66.5t73 27.5q44 0 75 -27.5t31 -66.5t-31 -66.5t-75 -27.5q-42 0 -73 27.5t-31 66.5z" />
    <glyph glyph-name="Iogonek.sc" unicode="&#xe8cd;" horiz-adv-x="394" 
d="M27 0v115l77 11v282l-77 11v115h340v-115l-77 -11v-282l77 -11v-115h-104q-38 -21 -61.5 -48.5t-23.5 -48.5q0 -14 8 -24.5t22 -10.5q12 0 26 4l19 -77q-39 -15 -77 -15q-61 0 -98 25t-37 74q0 32 29 66.5t74 54.5h-117z" />
    <glyph glyph-name="Jcircumflex.sc" unicode="&#xe8d8;" horiz-adv-x="399" 
d="M298 408v-323q0 -41 -27 -85.5t-69 -77.5l-89 -71l-111 132l62 54q48 40 48 66v305l-77 11v115h340v-115zM144 600h-134l136 141h118l136 -141h-134l-60 76h-2z" />
    <glyph glyph-name="Kcommaaccent.sc" unicode="&#xe8e3;" horiz-adv-x="661" 
d="M651 0h-208l-58 115q-39 79 -42 88h-2l-51 -61v-16l58 -11v-115h-321v115l77 11v282l-77 11v115h282v-121l-19 -4v-89h2q5 8 45 59q13 16 26 29l-20 5v121h271v-115l-72 -11l-81 -90l114 -192l76 -11v-115zM434 -42q1 -5 1 -14q0 -94 -116 -166l-77 26q17 25 29.5 61
t12.5 63q0 11 -1 17z" />
    <glyph glyph-name="Lacute.sc" unicode="&#xe8ee;" horiz-adv-x="497" 
d="M475 0h-448v115l77 11v282l-77 11v115h340v-115l-77 -11v-256h49l9 68h127v-220zM250 600h-129l113 141h175z" />
    <glyph glyph-name="Lcaron.sc" unicode="&#xe8f9;" horiz-adv-x="497" 
d="M475 0h-448v115l77 11v282l-77 11v115h340v-115l-77 -11v-256h49l9 68h127v-220zM422 541l106 13q1 -4 1 -13q0 -44 -23 -93.5t-58 -79.5l-63 10q38 74 38 148q0 9 -1 15z" />
    <glyph glyph-name="Lcommaaccent.sc" unicode="&#xe904;" horiz-adv-x="497" 
d="M475 0h-448v115l77 11v282l-77 11v115h340v-115l-77 -11v-256h49l9 68h127v-220zM335 -42q1 -5 1 -14q0 -94 -116 -166l-77 26q17 25 29.5 61t12.5 63q0 11 -1 17z" />
    <glyph glyph-name="Lslash.sc" unicode="&#xe90f;" horiz-adv-x="495" 
d="M44 136v110l58 30v132l-77 11v115h340v-115l-77 -11v-35l106 56v-111l-106 -55v-111h49l9 68h127v-220h-448v115l77 11v40z" />
    <glyph glyph-name="Ldot.sc" unicode="&#xe91a;" horiz-adv-x="497" 
d="M475 0h-448v115l77 11v282l-77 11v115h340v-115l-77 -11v-256h49l9 68h127v-220zM320 318q0 27 21.5 46t50.5 19q31 0 52.5 -19t21.5 -46t-21.5 -46t-52.5 -19q-29 0 -50.5 19t-21.5 46z" />
    <glyph glyph-name="Nacute.sc" unicode="&#xe925;" horiz-adv-x="728" 
d="M627 0h-163l-87 118q-65 89 -90 130h-2q5 -43 5 -89v-33l57 -11v-115h-320v115l77 11v282l-77 11v115h239l73 -97q82 -112 105 -151h2q-5 42 -5 94v32l-57 10v112h320v-111l-77 -11v-412zM408 600h-129l113 141h175z" />
    <glyph glyph-name="Ncaron.sc" unicode="&#xe930;" horiz-adv-x="728" 
d="M627 0h-163l-87 118q-65 89 -90 130h-2q5 -43 5 -89v-33l57 -11v-115h-320v115l77 11v282l-77 11v115h239l73 -97q82 -112 105 -151h2q-5 42 -5 94v32l-57 10v112h320v-111l-77 -11v-412zM160 741h134l60 -76h2l60 76h134l-136 -141h-118z" />
    <glyph glyph-name="Ntilde.sc" unicode="&#xe93b;" horiz-adv-x="728" 
d="M627 0h-163l-87 118q-65 89 -90 130h-2q5 -43 5 -89v-33l57 -11v-115h-320v115l77 11v282l-77 11v115h239l73 -97q82 -112 105 -151h2q-5 42 -5 94v32l-57 10v112h320v-111l-77 -11v-412zM551 660q-75 -68 -133 -68q-33 0 -69.5 24t-58.5 24q-18 0 -34 -10t-45 -36
l-53 82q76 67 132 67q35 0 71 -24t57 -24q18 0 34.5 10.5t44.5 35.5z" />
    <glyph glyph-name="Ncommaaccent.sc" unicode="&#xe946;" horiz-adv-x="728" 
d="M627 0h-163l-87 118q-65 89 -90 130h-2q5 -43 5 -89v-33l57 -11v-115h-320v115l77 11v282l-77 11v115h239l73 -97q82 -112 105 -151h2q-5 42 -5 94v32l-57 10v112h320v-111l-77 -11v-412zM436 -42q1 -5 1 -14q0 -94 -116 -166l-77 26q17 25 29.5 61t12.5 63q0 11 -1 17z
" />
    <glyph glyph-name="Ograve.sc" unicode="&#xe951;" horiz-adv-x="607" 
d="M575 266q0 -133 -75 -205.5t-195 -72.5q-121 0 -197 72.5t-76 205.5q0 134 76 207t197 73q120 0 195 -73t75 -207zM384 266q0 123 -79 123q-38 0 -60 -30.5t-22 -92.5q0 -60 22.5 -90.5t59.5 -30.5t58 30t21 91zM381 600h-129l-159 141h175z" />
    <glyph glyph-name="Oacute.sc" unicode="&#xe95c;" horiz-adv-x="607" 
d="M575 266q0 -133 -75 -205.5t-195 -72.5q-121 0 -197 72.5t-76 205.5q0 134 76 207t197 73q120 0 195 -73t75 -207zM384 266q0 123 -79 123q-38 0 -60 -30.5t-22 -92.5q0 -60 22.5 -90.5t59.5 -30.5t58 30t21 91zM358 600h-129l113 141h175z" />
    <glyph glyph-name="Ocircumflex.sc" unicode="&#xe967;" horiz-adv-x="607" 
d="M575 266q0 -133 -75 -205.5t-195 -72.5q-121 0 -197 72.5t-76 205.5q0 134 76 207t197 73q120 0 195 -73t75 -207zM384 266q0 123 -79 123q-38 0 -60 -30.5t-22 -92.5q0 -60 22.5 -90.5t59.5 -30.5t58 30t21 91zM244 600h-134l136 141h118l136 -141h-134l-60 76h-2z" />
    <glyph glyph-name="Otilde.sc" unicode="&#xe972;" horiz-adv-x="607" 
d="M575 266q0 -133 -75 -205.5t-195 -72.5q-121 0 -197 72.5t-76 205.5q0 134 76 207t197 73q120 0 195 -73t75 -207zM384 266q0 123 -79 123q-38 0 -60 -30.5t-22 -92.5q0 -60 22.5 -90.5t59.5 -30.5t58 30t21 91zM501 660q-75 -68 -133 -68q-33 0 -69.5 24t-58.5 24
q-18 0 -34 -10t-45 -36l-53 82q76 67 132 67q35 0 71 -24t57 -24q18 0 34.5 10.5t44.5 35.5z" />
    <glyph glyph-name="Odieresis.sc" unicode="&#xe97d;" horiz-adv-x="607" 
d="M575 266q0 -133 -75 -205.5t-195 -72.5q-121 0 -197 72.5t-76 205.5q0 134 76 207t197 73q120 0 195 -73t75 -207zM384 266q0 123 -79 123q-38 0 -60 -30.5t-22 -92.5q0 -60 22.5 -90.5t59.5 -30.5t58 30t21 91zM88 668q0 35 28 60t66 25q40 0 68 -25t28 -60t-28 -60
t-68 -25q-38 0 -66 25t-28 60zM332 668q0 35 28 60t66 25q40 0 68 -25t28 -60t-28 -60t-68 -25q-38 0 -66 25t-28 60z" />
    <glyph glyph-name="Omacron.sc" unicode="&#xe988;" horiz-adv-x="607" 
d="M575 266q0 -133 -75 -205.5t-195 -72.5q-121 0 -197 72.5t-76 205.5q0 134 76 207t197 73q120 0 195 -73t75 -207zM384 266q0 123 -79 123q-38 0 -60 -30.5t-22 -92.5q0 -60 22.5 -90.5t59.5 -30.5t58 30t21 91zM135 621v94h340v-94h-340z" />
    <glyph glyph-name="Obreve.sc" unicode="&#xe993;" horiz-adv-x="607" 
d="M575 266q0 -133 -75 -205.5t-195 -72.5q-121 0 -197 72.5t-76 205.5q0 134 76 207t197 73q120 0 195 -73t75 -207zM384 266q0 123 -79 123q-38 0 -60 -30.5t-22 -92.5q0 -60 22.5 -90.5t59.5 -30.5t58 30t21 91zM132 742h92q1 -28 25 -48t56 -20t56 20t25 48h92
q0 -61 -51 -104.5t-122 -43.5t-122 43.5t-51 104.5z" />
    <glyph glyph-name="Ohungarumlaut.sc" unicode="&#xe99e;" horiz-adv-x="607" 
d="M575 266q0 -133 -75 -205.5t-195 -72.5q-121 0 -197 72.5t-76 205.5q0 134 76 207t197 73q120 0 195 -73t75 -207zM384 266q0 123 -79 123q-38 0 -60 -30.5t-22 -92.5q0 -60 22.5 -90.5t59.5 -30.5t58 30t21 91zM251 600h-114l130 158h160zM479 600h-115l130 158h161z
" />
    <glyph glyph-name="Oslash.sc" unicode="&#xe9a9;" horiz-adv-x="618" 
d="M32 266q0 133 78.5 206.5t199.5 73.5q67 0 124 -26l39 59l56 -37l-38 -58q94 -78 94 -218q0 -132 -77 -204.5t-198 -72.5q-71 0 -128 27l-38 -59l-55 36l37 58q-94 78 -94 215zM404 266q0 36 -11 67h-2l-122 -184q18 -12 41 -12q40 0 67 33t27 96zM214 266q0 -31 10 -61
h2l123 182q-20 11 -39 11q-41 0 -68.5 -33.5t-27.5 -98.5z" />
    <glyph glyph-name="Oslashacute.sc" unicode="&#xe9b4;" horiz-adv-x="618" 
d="M32 266q0 133 78.5 206.5t199.5 73.5q67 0 124 -26l39 59l56 -37l-38 -58q94 -78 94 -218q0 -132 -77 -204.5t-198 -72.5q-71 0 -128 27l-38 -59l-55 36l37 58q-94 78 -94 215zM404 266q0 36 -11 67h-2l-122 -184q18 -12 41 -12q40 0 67 33t27 96zM214 266q0 -31 10 -61
h2l123 182q-20 11 -39 11q-41 0 -68.5 -33.5t-27.5 -98.5zM363 600h-129l113 141h175z" />
    <glyph glyph-name="OE.sc" unicode="&#xe9bf;" horiz-adv-x="818" 
d="M32 268q0 134 74.5 206t195.5 72q43 0 72 -12h390v-161h-127l-8 29h-69v-72h59l6 16h108v-146h-108l-6 18h-59v-87h79l8 38h132v-169h-405q-40 -12 -72 -12q-120 0 -195 73t-75 207zM223 268q0 -57 25 -91t54 -34q42 0 72 10v223q-32 16 -72 16q-30 0 -54.5 -32.5
t-24.5 -91.5z" />
    <glyph glyph-name="Racute.sc" unicode="&#xe9ca;" horiz-adv-x="635" 
d="M620 0h-203l-66 172h-61v-46l56 -11v-115h-319v115l77 11v282l-77 11v115h315q123 0 179 -45.5t56 -138.5q0 -92 -64 -139v-2q13 -22 23 -44l16 -39l68 -11v-115zM396 349q0 21 -10 35.5t-26 14.5h-70v-95h70q16 0 26 13t10 32zM364 600h-129l113 141h175z" />
    <glyph glyph-name="Rcaron.sc" unicode="&#xe9d5;" horiz-adv-x="635" 
d="M620 0h-203l-66 172h-61v-46l56 -11v-115h-319v115l77 11v282l-77 11v115h315q123 0 179 -45.5t56 -138.5q0 -92 -64 -139v-2q13 -22 23 -44l16 -39l68 -11v-115zM396 349q0 21 -10 35.5t-26 14.5h-70v-95h70q16 0 26 13t10 32zM116 741h134l60 -76h2l60 76h134
l-136 -141h-118z" />
    <glyph glyph-name="Rcommaaccent.sc" unicode="&#xe9e0;" horiz-adv-x="635" 
d="M620 0h-203l-66 172h-61v-46l56 -11v-115h-319v115l77 11v282l-77 11v115h315q123 0 179 -45.5t56 -138.5q0 -92 -64 -139v-2q13 -22 23 -44l16 -39l68 -11v-115zM396 349q0 21 -10 35.5t-26 14.5h-70v-95h70q16 0 26 13t10 32zM427 -42q1 -5 1 -14q0 -94 -116 -166
l-77 26q17 25 29.5 61t12.5 63q0 11 -1 17z" />
    <glyph glyph-name="Sacute.sc" unicode="&#xe9eb;" horiz-adv-x="512" 
d="M478 183q0 -38 -11 -69.5t-37.5 -61t-78 -46t-123.5 -16.5q-94 0 -192 29v177h130l9 -54q12 -6 49 -6q21 0 33 1.5t21 8.5t9 20q0 19 -23 30t-65.5 22t-63.5 21q-35 18 -58.5 55.5t-23.5 78.5q0 82 61 126.5t177 44.5q69 0 160 -24v-163h-125l-13 45q-6 3 -21 3
q-53 0 -53 -33q0 -15 23 -23.5t63.5 -18t65.5 -21.5q35 -18 61 -51.5t26 -74.5zM327 600h-129l113 141h175z" />
    <glyph glyph-name="Scircumflex.sc" unicode="&#xe9f6;" horiz-adv-x="512" 
d="M478 183q0 -38 -11 -69.5t-37.5 -61t-78 -46t-123.5 -16.5q-94 0 -192 29v177h130l9 -54q12 -6 49 -6q21 0 33 1.5t21 8.5t9 20q0 19 -23 30t-65.5 22t-63.5 21q-35 18 -58.5 55.5t-23.5 78.5q0 82 61 126.5t177 44.5q69 0 160 -24v-163h-125l-13 45q-6 3 -21 3
q-53 0 -53 -33q0 -15 23 -23.5t63.5 -18t65.5 -21.5q35 -18 61 -51.5t26 -74.5zM213 600h-134l136 141h118l136 -141h-134l-60 76h-2z" />
    <glyph glyph-name="Scaron.sc" unicode="&#xea01;" horiz-adv-x="512" 
d="M478 183q0 -38 -11 -69.5t-37.5 -61t-78 -46t-123.5 -16.5q-94 0 -192 29v177h130l9 -54q12 -6 49 -6q21 0 33 1.5t21 8.5t9 20q0 19 -23 30t-65.5 22t-63.5 21q-35 18 -58.5 55.5t-23.5 78.5q0 82 61 126.5t177 44.5q69 0 160 -24v-163h-125l-13 45q-6 3 -21 3
q-53 0 -53 -33q0 -15 23 -23.5t63.5 -18t65.5 -21.5q35 -18 61 -51.5t26 -74.5zM79 741h134l60 -76h2l60 76h134l-136 -141h-118z" />
    <glyph glyph-name="Scedilla.sc" unicode="&#xea0c;" horiz-adv-x="512" 
d="M360 -119q0 -47 -32 -74t-79 -27q-66 0 -106 21l27 64q45 -16 65 -16q40 0 40 27q0 12 -6 19t-22 10.5t-31 4.5t-44 2l26 79q-84 5 -162 28v177h130l9 -54q12 -6 49 -6q21 0 33 1.5t21 8.5t9 20q0 19 -23 30t-65.5 22t-63.5 21q-35 18 -58.5 55.5t-23.5 78.5
q0 82 61 126.5t177 44.5q69 0 160 -24v-163h-125l-13 45q-6 3 -21 3q-53 0 -53 -33q0 -15 23 -23.5t63.5 -18t65.5 -21.5q35 -18 61 -51.5t26 -74.5q0 -75 -46.5 -128t-158.5 -63l-9 -25v-2q43 -2 69.5 -26t26.5 -58z" />
    <glyph glyph-name="Scommaaccent.sc" unicode="&#xea17;" horiz-adv-x="512" 
d="M478 183q0 -38 -11 -69.5t-37.5 -61t-78 -46t-123.5 -16.5q-94 0 -192 29v177h130l9 -54q12 -6 49 -6q21 0 33 1.5t21 8.5t9 20q0 19 -23 30t-65.5 22t-63.5 21q-35 18 -58.5 55.5t-23.5 78.5q0 82 61 126.5t177 44.5q69 0 160 -24v-163h-125l-13 45q-6 3 -21 3
q-53 0 -53 -33q0 -15 23 -23.5t63.5 -18t65.5 -21.5q35 -18 61 -51.5t26 -74.5zM336 -42q1 -5 1 -14q0 -94 -116 -166l-77 26q17 25 29.5 61t12.5 63q0 11 -1 17z" />
    <glyph glyph-name="Tcaron.sc" unicode="&#xea22;" horiz-adv-x="585" 
d="M428 382h-42v-256l77 -11v-115h-340v115l77 11v256h-43l-13 -63h-125v215h547v-215h-125zM98 741h134l60 -76h2l60 76h134l-136 -141h-118z" />
    <glyph glyph-name="Tcommaaccent.sc" unicode="&#xea2d;" horiz-adv-x="585" 
d="M428 382h-42v-256l77 -11v-115h-340v115l77 11v256h-43l-13 -63h-125v215h547v-215h-125zM377 -42q1 -5 1 -14q0 -94 -116 -166l-77 26q17 25 29.5 61t12.5 63q0 11 -1 17z" />
    <glyph glyph-name="Tbar.sc" unicode="&#xea38;" horiz-adv-x="585" 
d="M428 382h-42v-79h87v-91h-87v-86l77 -11v-115h-340v115l77 11v86h-86v91h86v79h-43l-13 -63h-125v215h547v-215h-125z" />
    <glyph glyph-name="Thorn.sc" unicode="&#xea43;" horiz-adv-x="538" 
d="M527 267q0 -42 -15 -69t-42 -38.5t-49.5 -15t-53.5 -3.5q-53 0 -77 7v-22l77 -11v-115h-340v115l77 11v282l-77 11v115h340v-115l-77 -11v-17q42 7 76 7q161 0 161 -131zM361 270q0 20 -35 20h-36v-39h36q35 0 35 19z" />
    <glyph glyph-name="Ugrave.sc" unicode="&#xea4e;" horiz-adv-x="696" 
d="M600 200q0 -212 -252 -212q-121 0 -186.5 52.5t-65.5 159.5v208l-77 11v115h305v-115l-42 -11v-187q0 -34 16 -55t50 -21q66 0 66 76v187l-44 11v115h307v-115l-77 -11v-208zM424 600h-129l-159 141h175z" />
    <glyph glyph-name="Uacute.sc" unicode="&#xea59;" horiz-adv-x="696" 
d="M600 200q0 -212 -252 -212q-121 0 -186.5 52.5t-65.5 159.5v208l-77 11v115h305v-115l-42 -11v-187q0 -34 16 -55t50 -21q66 0 66 76v187l-44 11v115h307v-115l-77 -11v-208zM401 600h-129l113 141h175z" />
    <glyph glyph-name="Ucircumflex.sc" unicode="&#xea64;" horiz-adv-x="696" 
d="M600 200q0 -212 -252 -212q-121 0 -186.5 52.5t-65.5 159.5v208l-77 11v115h305v-115l-42 -11v-187q0 -34 16 -55t50 -21q66 0 66 76v187l-44 11v115h307v-115l-77 -11v-208zM287 600h-134l136 141h118l136 -141h-134l-60 76h-2z" />
    <glyph glyph-name="Utilde.sc" unicode="&#xea6f;" horiz-adv-x="696" 
d="M600 200q0 -212 -252 -212q-121 0 -186.5 52.5t-65.5 159.5v208l-77 11v115h305v-115l-42 -11v-187q0 -34 16 -55t50 -21q66 0 66 76v187l-44 11v115h307v-115l-77 -11v-208zM544 660q-75 -68 -133 -68q-33 0 -69.5 24t-58.5 24q-18 0 -34 -10t-45 -36l-53 82
q76 67 132 67q35 0 71 -24t57 -24q18 0 34.5 10.5t44.5 35.5z" />
    <glyph glyph-name="Udieresis.sc" unicode="&#xea7a;" horiz-adv-x="696" 
d="M600 200q0 -212 -252 -212q-121 0 -186.5 52.5t-65.5 159.5v208l-77 11v115h305v-115l-42 -11v-187q0 -34 16 -55t50 -21q66 0 66 76v187l-44 11v115h307v-115l-77 -11v-208zM131 668q0 35 28 60t66 25q40 0 68 -25t28 -60t-28 -60t-68 -25q-38 0 -66 25t-28 60zM375 668
q0 35 28 60t66 25q40 0 68 -25t28 -60t-28 -60t-68 -25q-38 0 -66 25t-28 60z" />
    <glyph glyph-name="Umacron.sc" unicode="&#xea85;" horiz-adv-x="696" 
d="M600 200q0 -212 -252 -212q-121 0 -186.5 52.5t-65.5 159.5v208l-77 11v115h305v-115l-42 -11v-187q0 -34 16 -55t50 -21q66 0 66 76v187l-44 11v115h307v-115l-77 -11v-208zM178 621v94h340v-94h-340z" />
    <glyph glyph-name="Ubreve.sc" unicode="&#xea90;" horiz-adv-x="696" 
d="M600 200q0 -212 -252 -212q-121 0 -186.5 52.5t-65.5 159.5v208l-77 11v115h305v-115l-42 -11v-187q0 -34 16 -55t50 -21q66 0 66 76v187l-44 11v115h307v-115l-77 -11v-208zM175 742h92q1 -28 25 -48t56 -20t56 20t25 48h92q0 -61 -51 -104.5t-122 -43.5t-122 43.5
t-51 104.5z" />
    <glyph glyph-name="Uring.sc" unicode="&#xea9b;" horiz-adv-x="696" 
d="M600 200q0 -212 -252 -212q-121 0 -186.5 52.5t-65.5 159.5v208l-77 11v115h305v-115l-42 -11v-187q0 -34 16 -55t50 -21q66 0 66 76v187l-44 11v115h307v-115l-77 -11v-208zM219 684q0 53 38 92t90 39t90.5 -39t38.5 -92t-38 -91.5t-91 -38.5q-52 0 -90 38.5t-38 91.5z
M298 684q0 -25 14 -42t35 -17t35.5 17t14.5 42t-14.5 42.5t-35.5 17.5t-35 -17.5t-14 -42.5z" />
    <glyph glyph-name="Uhungarumlaut.sc" unicode="&#xeaa6;" horiz-adv-x="696" 
d="M600 200q0 -212 -252 -212q-121 0 -186.5 52.5t-65.5 159.5v208l-77 11v115h305v-115l-42 -11v-187q0 -34 16 -55t50 -21q66 0 66 76v187l-44 11v115h307v-115l-77 -11v-208zM294 600h-114l130 158h160zM522 600h-115l130 158h161z" />
    <glyph glyph-name="Uogonek.sc" unicode="&#xeab1;" horiz-adv-x="696" 
d="M223 -121q0 28 22.5 58.5t60.5 52.5q-210 16 -210 210v208l-77 11v115h305v-115l-42 -11v-187q0 -34 16 -55t50 -21q66 0 66 76v187l-44 11v115h307v-115l-77 -11v-208q0 -168 -159 -203q-36 -21 -58.5 -47.5t-22.5 -46.5q0 -14 8 -24.5t22 -10.5q12 0 26 4l19 -77
q-39 -15 -77 -15q-61 0 -98 25t-37 74z" />
    <glyph glyph-name="Wacute.sc" unicode="&#xeabc;" horiz-adv-x="855" 
d="M777 408l-127 -408h-171l-17 55q-15 46 -32 132h-2q-17 -80 -32 -128l-18 -59h-176l-124 408l-67 11v115h302v-115l-50 -11l13 -56q6 -26 13 -56.5t11.5 -50t5.5 -23.5h2q18 107 40 200l26 112h112l27 -116q25 -107 39 -196h2q17 88 27 126l16 60l-50 11v115h297v-115z
M482 600h-129l113 141h175z" />
    <glyph glyph-name="Wcircumflex.sc" unicode="&#xeac7;" horiz-adv-x="855" 
d="M777 408l-127 -408h-171l-17 55q-15 46 -32 132h-2q-17 -80 -32 -128l-18 -59h-176l-124 408l-67 11v115h302v-115l-50 -11l13 -56q6 -26 13 -56.5t11.5 -50t5.5 -23.5h2q18 107 40 200l26 112h112l27 -116q25 -107 39 -196h2q17 88 27 126l16 60l-50 11v115h297v-115z
M368 600h-134l136 141h118l136 -141h-134l-60 76h-2z" />
    <glyph glyph-name="Wdieresis.sc" unicode="&#xead2;" horiz-adv-x="855" 
d="M777 408l-127 -408h-171l-17 55q-15 46 -32 132h-2q-17 -80 -32 -128l-18 -59h-176l-124 408l-67 11v115h302v-115l-50 -11l13 -56q6 -26 13 -56.5t11.5 -50t5.5 -23.5h2q18 107 40 200l26 112h112l27 -116q25 -107 39 -196h2q17 88 27 126l16 60l-50 11v115h297v-115z
M212 668q0 35 28 60t66 25q40 0 68 -25t28 -60t-28 -60t-68 -25q-38 0 -66 25t-28 60zM456 668q0 35 28 60t66 25q40 0 68 -25t28 -60t-28 -60t-68 -25q-38 0 -66 25t-28 60z" />
    <glyph glyph-name="Wgrave.sc" unicode="&#xeadd;" horiz-adv-x="855" 
d="M777 408l-127 -408h-171l-17 55q-15 46 -32 132h-2q-17 -80 -32 -128l-18 -59h-176l-124 408l-67 11v115h302v-115l-50 -11l13 -56q6 -26 13 -56.5t11.5 -50t5.5 -23.5h2q18 107 40 200l26 112h112l27 -116q25 -107 39 -196h2q17 88 27 126l16 60l-50 11v115h297v-115z
M505 600h-129l-159 141h175z" />
    <glyph glyph-name="Yacute.sc" unicode="&#xeae8;" horiz-adv-x="630" 
d="M552 408l-143 -230v-52l77 -11v-115h-340v115l77 11v52l-145 230l-67 11v115h281v-115l-31 -11l9 -14q22 -33 44 -80h2q16 34 44 81l8 13l-31 11v115h282v-115zM368 600h-129l113 141h175z" />
    <glyph glyph-name="Ycircumflex.sc" unicode="&#xeaf3;" horiz-adv-x="630" 
d="M552 408l-143 -230v-52l77 -11v-115h-340v115l77 11v52l-145 230l-67 11v115h281v-115l-31 -11l9 -14q22 -33 44 -80h2q16 34 44 81l8 13l-31 11v115h282v-115zM254 600h-134l136 141h118l136 -141h-134l-60 76h-2z" />
    <glyph glyph-name="Ydieresis.sc" unicode="&#xeafe;" horiz-adv-x="630" 
d="M552 408l-143 -230v-52l77 -11v-115h-340v115l77 11v52l-145 230l-67 11v115h281v-115l-31 -11l9 -14q22 -33 44 -80h2q16 34 44 81l8 13l-31 11v115h282v-115zM98 668q0 35 28 60t66 25q40 0 68 -25t28 -60t-28 -60t-68 -25q-38 0 -66 25t-28 60zM342 668q0 35 28 60
t66 25q40 0 68 -25t28 -60t-28 -60t-68 -25q-38 0 -66 25t-28 60z" />
    <glyph glyph-name="Ygrave.sc" unicode="&#xeb09;" horiz-adv-x="630" 
d="M552 408l-143 -230v-52l77 -11v-115h-340v115l77 11v52l-145 230l-67 11v115h281v-115l-31 -11l9 -14q22 -33 44 -80h2q16 34 44 81l8 13l-31 11v115h282v-115zM391 600h-129l-159 141h175z" />
    <glyph glyph-name="Zacute.sc" unicode="&#xeb14;" horiz-adv-x="545" 
d="M512 0h-482v143l170 164q57 54 82 73v2h-87l-18 -54h-125v206h455v-143l-176 -165q-35 -34 -82 -72v-2h124l9 70h130v-222zM334 600h-129l113 141h175z" />
    <glyph glyph-name="Zcaron.sc" unicode="&#xeb1f;" horiz-adv-x="545" 
d="M512 0h-482v143l170 164q57 54 82 73v2h-87l-18 -54h-125v206h455v-143l-176 -165q-35 -34 -82 -72v-2h124l9 70h130v-222zM86 741h134l60 -76h2l60 76h134l-136 -141h-118z" />
    <glyph glyph-name="Zdotaccent.sc" unicode="&#xeb2a;" horiz-adv-x="545" 
d="M512 0h-482v143l170 164q57 54 82 73v2h-87l-18 -54h-125v206h455v-143l-176 -165q-35 -34 -82 -72v-2h124l9 70h130v-222zM176 669q0 39 31 66.5t73 27.5q44 0 75 -27.5t31 -66.5t-31 -66.5t-75 -27.5q-42 0 -73 27.5t-31 66.5z" />
    <glyph glyph-name="agrave.sc" unicode="&#xeb35;" horiz-adv-x="638" 
d="M10 0v115l67 11l128 408h227l129 -408l67 -11v-115h-289v114l49 12l-7 30h-129l-7 -30l49 -11v-115h-284zM287 283h61l-8 31q-11 43 -22 101h-2q-6 -42 -21 -102zM393 600h-129l-159 141h175z" />
    <glyph glyph-name="aacute.sc" unicode="&#xeb3f;" horiz-adv-x="638" 
d="M10 0v115l67 11l128 408h227l129 -408l67 -11v-115h-289v114l49 12l-7 30h-129l-7 -30l49 -11v-115h-284zM287 283h61l-8 31q-11 43 -22 101h-2q-6 -42 -21 -102zM370 600h-129l113 141h175z" />
    <glyph glyph-name="acircumflex.sc" unicode="&#xeb49;" horiz-adv-x="638" 
d="M10 0v115l67 11l128 408h227l129 -408l67 -11v-115h-289v114l49 12l-7 30h-129l-7 -30l49 -11v-115h-284zM287 283h61l-8 31q-11 43 -22 101h-2q-6 -42 -21 -102zM256 600h-134l136 141h118l136 -141h-134l-60 76h-2z" />
    <glyph glyph-name="atilde.sc" unicode="&#xeb53;" horiz-adv-x="638" 
d="M10 0v115l67 11l128 408h227l129 -408l67 -11v-115h-289v114l49 12l-7 30h-129l-7 -30l49 -11v-115h-284zM287 283h61l-8 31q-11 43 -22 101h-2q-6 -42 -21 -102zM513 660q-75 -68 -133 -68q-33 0 -69.5 24t-58.5 24q-18 0 -34 -10t-45 -36l-53 82q76 67 132 67
q35 0 71 -24t57 -24q18 0 34.5 10.5t44.5 35.5z" />
    <glyph glyph-name="adieresis.sc" unicode="&#xeb5d;" horiz-adv-x="638" 
d="M10 0v115l67 11l128 408h227l129 -408l67 -11v-115h-289v114l49 12l-7 30h-129l-7 -30l49 -11v-115h-284zM287 283h61l-8 31q-11 43 -22 101h-2q-6 -42 -21 -102zM100 668q0 35 28 60t66 25q40 0 68 -25t28 -60t-28 -60t-68 -25q-38 0 -66 25t-28 60zM344 668q0 35 28 60
t66 25q40 0 68 -25t28 -60t-28 -60t-68 -25q-38 0 -66 25t-28 60z" />
    <glyph glyph-name="amacron.sc" unicode="&#xeb67;" horiz-adv-x="638" 
d="M10 0v115l67 11l128 408h227l129 -408l67 -11v-115h-289v114l49 12l-7 30h-129l-7 -30l49 -11v-115h-284zM287 283h61l-8 31q-11 43 -22 101h-2q-6 -42 -21 -102zM147 621v94h340v-94h-340z" />
    <glyph glyph-name="abreve.sc" unicode="&#xeb71;" horiz-adv-x="638" 
d="M10 0v115l67 11l128 408h227l129 -408l67 -11v-115h-289v114l49 12l-7 30h-129l-7 -30l49 -11v-115h-284zM287 283h61l-8 31q-11 43 -22 101h-2q-6 -42 -21 -102zM144 742h92q1 -28 25 -48t56 -20t56 20t25 48h92q0 -61 -51 -104.5t-122 -43.5t-122 43.5t-51 104.5z" />
    <glyph glyph-name="aring.sc" unicode="&#xeb7b;" horiz-adv-x="638" 
d="M10 0v115l67 11l128 408h227l129 -408l67 -11v-115h-289v114l49 12l-7 30h-129l-7 -30l49 -11v-115h-284zM287 283h61l-8 31q-11 43 -22 101h-2q-6 -42 -21 -102zM188 684q0 53 38 92t90 39t90.5 -39t38.5 -92t-38 -91.5t-91 -38.5q-52 0 -90 38.5t-38 91.5zM267 684
q0 -25 14 -42t35 -17t35.5 17t14.5 42t-14.5 42.5t-35.5 17.5t-35 -17.5t-14 -42.5z" />
    </font>
</defs>
</svg>
