<?xml version="1.0" standalone="no"?>
<!DOCTYPE svg PUBLIC "-//W3C//DTD SVG 1.1//EN" "http://www.w3.org/Graphics/SVG/1.1/DTD/svg11.dtd" >
<svg>
<metadata>
Created by FontForge 20120731 at Tue Dec 15 21:06:51 2015
 By ,,,
Copyright (c) Olivier Gourvat - Mostardesign Studio, 2004-2011. All rights reserved.
</metadata>
<defs>
<font id="IntervalSansPro-LightItalic" horiz-adv-x="324" >
  <font-face 
    font-family="Interval Sans Pro Light"
    font-weight="300"
    font-style="italic"
    font-stretch="normal"
    units-per-em="1000"
    panose-1="2 11 5 3 0 0 0 2 0 4"
    ascent="750"
    descent="-250"
    x-height="484"
    cap-height="674"
    bbox="-76 -211 1196 1046"
    underline-thickness="50"
    underline-position="-50"
    slope="-12"
    unicode-range="U+0020-FB06"
  />
<missing-glyph horiz-adv-x="500" 
 />
    <glyph glyph-name="ff" unicode="ff" horiz-adv-x="506" 
d="M80 484h74l7 52q6 43 21 73.5t30.5 45t37.5 22t32.5 8t24.5 0.5h3q30 0 57 -13l-13 -39q-18 8 -38 8q-27 0 -46.5 -9t-29 -26t-13 -29t-6.5 -29l-9 -64h195l7 52q6 43 21 73.5t30.5 45t37.5 22t32.5 8t24.5 0.5h3q30 0 57 -13l-13 -39q-18 8 -38 8q-27 0 -46.5 -9
t-29 -26t-13 -29t-6.5 -29l-9 -64h101l-7 -47h-101l-90 -637h-59l91 637h-195l-90 -637h-59l91 637h-74z" />
    <glyph glyph-name="fi" unicode="fi" horiz-adv-x="432" 
d="M313 0l61 437h-169l-89 -637h-59l90 637h-74l7 47h74l7 52q6 43 21 73.5t30.5 45t37.5 22t32.5 8t24.5 0.5h3q30 0 57 -13l-13 -39q-18 8 -38 8q-27 0 -46.5 -9t-29 -26t-13 -29t-6.5 -29l-9 -64h228l-68 -484h-59z" />
    <glyph glyph-name="fl" unicode="fl" horiz-adv-x="432" 
d="M313 0l88 627h-87q-27 0 -46.5 -9t-29 -26t-13 -29t-6.5 -29l-7 -50h101l-7 -47h-101l-90 -637h-59l91 637h-74l7 47h73l6 41q6 42 22 72t33 44.5t39.5 22.5t33 9t21.5 1h158l-94 -674h-59z" />
    <glyph glyph-name="f_f_i" unicode="ffi" horiz-adv-x="685" 
d="M566 0l61 437h-169l-89 -637h-59l90 637h-195l-89 -637h-59l90 637h-74l7 47h74l7 52q6 43 21 73.5t30.5 45t37.5 22t32.5 8t24.5 0.5h3q30 0 57 -13l-13 -39q-18 8 -38 8q-27 0 -46.5 -9t-29 -26t-13 -29t-6.5 -29l-9 -64h195l7 52q6 43 21 73.5t30.5 45t37.5 22t32.5 8
t24.5 0.5h3q30 0 57 -13l-13 -39q-18 8 -38 8q-27 0 -46.5 -9t-29 -26t-13 -29t-6.5 -29l-9 -64h228l-68 -484h-59z" />
    <glyph glyph-name="f_f_l" unicode="ffl" horiz-adv-x="685" 
d="M566 0l88 628h-88q-27 0 -46 -9t-28.5 -25.5t-13 -28.5t-6.5 -28l-7 -53h101l-7 -47h-101l-90 -637h-59l91 637h-195l-90 -637h-59l91 637h-74l7 47h74l7 52q6 43 21 73.5t30.5 45t37.5 22t32.5 8t24.5 0.5h3q30 0 57 -13l-13 -39q-18 8 -38 8q-27 0 -46.5 -9t-29 -26
t-13 -29t-6.5 -29l-9 -64h194l6 41q6 42 22 72t33 44.5t39.5 22.5t33 9t21.5 1h158l-94 -674h-59z" />
    <glyph glyph-name="f_f_j" unicode="ffj" horiz-adv-x="706" 
d="M713 484l-76 -536q-6 -43 -21.5 -73t-30.5 -44.5t-38 -22t-33.5 -8t-27.5 -0.5q-28 0 -57 12l14 42q30 -7 44 -7q27 0 46 9.5t28 27.5t13 32.5t6 35.5l68 485h-190l-90 -637h-59l91 637h-195l-90 -637h-59l91 637h-74l7 47h74l7 52q6 43 21 73.5t30.5 45t37.5 22t32.5 8
t24.5 0.5h3q30 0 57 -13l-13 -39q-18 8 -38 8q-27 0 -46.5 -9t-29 -26t-13 -29t-6.5 -29l-9 -64h195l7 52q6 43 21 73.5t30.5 45t37.5 22t32.5 8t24.5 0.5h3q30 0 57 -13l-13 -39q-18 8 -38 8q-27 0 -46.5 -9t-29 -26t-13 -29t-6.5 -29l-9 -64h248z" />
    <glyph glyph-name="f_j" unicode="fj" horiz-adv-x="453" 
d="M460 484l-76 -536q-6 -43 -21.5 -73t-30.5 -44.5t-38 -22t-33.5 -8t-27.5 -0.5q-28 0 -57 12l14 42q30 -7 44 -7q27 0 46 9.5t28 27.5t13 32.5t6 35.5l68 485h-190l-89 -637h-59l90 637h-74l7 47h74l7 52q6 43 21 73.5t30.5 45t37.5 22t32.5 8t24.5 0.5h3q30 0 57 -13
l-13 -39q-18 8 -38 8q-27 0 -46.5 -9t-29 -26t-13 -29t-6.5 -29l-9 -64h248z" />
    <glyph glyph-name="f_b" unicode="fb" horiz-adv-x="790" 
d="M466 674l-35 -251q52 74 171 74q94 0 142.5 -56.5t48.5 -152.5q0 -131 -68.5 -216t-188.5 -85q-98 0 -158 68l-7 -55h-58l88 627h-87q-27 0 -46.5 -9t-29 -26t-13 -29t-6.5 -29l-7 -50h101l-7 -47h-101l-89 -637h-59l90 637h-74l7 47h73l6 41q6 42 22 72t33 44.5
t39.5 22.5t33 9t21.5 1h158zM579 447q-39 0 -95.5 -31.5t-65.5 -87.5l-23 -159q-5 -32 3.5 -56.5t24 -38t38 -22.5t41.5 -11.5t38 -2.5q37 0 67.5 11.5t49.5 28.5t33.5 41t22 46t11.5 47.5t5 40t1 28.5q0 27 -6 52.5t-21 53t-47 44t-77 16.5z" />
    <glyph glyph-name="f_f_b" unicode="ffb" horiz-adv-x="1043" 
d="M719 674l-35 -251q52 74 171 74q94 0 142.5 -56.5t48.5 -152.5q0 -131 -68.5 -216t-188.5 -85q-99 0 -158 68l-7 -55h-58l88 627h-87q-27 0 -46.5 -9t-29 -26t-13 -29t-6.5 -29l-7 -50h101l-7 -47h-101l-90 -637h-59l91 637h-195l-90 -637h-59l91 637h-74l7 47h74l7 52
q6 43 21 73.5t30.5 45t37.5 22t32.5 8t24.5 0.5h3q30 0 57 -13l-13 -39q-18 8 -38 8q-27 0 -46.5 -9t-29 -26t-13 -29t-6.5 -29l-9 -64h194l6 41q6 42 22 72t33 44.5t39.5 22.5t33 9t21.5 1h158zM832 447q-39 0 -95.5 -31.5t-65.5 -87.5l-23 -159q-5 -32 3.5 -56.5t24 -38
t38 -22.5t41.5 -11.5t38 -2.5q51 0 89 21.5t56.5 49.5t29.5 67t13 61t2 44q0 27 -6 52.5t-21 53t-47 44t-77 16.5z" />
    <glyph glyph-name="f_h" unicode="fh" horiz-adv-x="784" 
d="M764 288l-40 -288h-59l40 288q23 159 -108 159q-21 0 -45 -5.5t-55.5 -20.5t-54.5 -48.5t-30 -81.5l-70 -491h-58l117 827h-87q-27 0 -46.5 -9t-29 -26t-13 -29t-6.5 -29l-7 -50h101l-7 -47h-101l-90 -637h-59l91 637h-74l7 47h73l6 41q6 42 22 72t33 44.5t39.5 22.5
t33 9t21.5 1h158l-36 -260q28 37 67 57t63 23t57 3q82 0 122 -50.5t25 -158.5z" />
    <glyph glyph-name="f_f_h" unicode="ffh" horiz-adv-x="1037" 
d="M1017 288l-40 -288h-59l40 288q23 159 -108 159q-21 0 -45 -5.5t-55.5 -20.5t-54.5 -48.5t-30 -81.5l-41 -291h-58l88 627h-87q-27 0 -46.5 -9t-29 -26t-13 -29t-6.5 -29l-7 -50h101l-7 -47h-101l-89 -637h-59l90 637h-195l-89 -637h-59l90 637h-74l7 47h74l7 52
q6 43 21 73.5t30.5 45t37.5 22t32.5 8t24.5 0.5h3q30 0 57 -13l-13 -39q-18 8 -38 8q-27 0 -46.5 -9t-29 -26t-13 -29t-6.5 -29l-9 -64h194l6 41q6 42 22 72t33 44.5t39.5 22.5t33 9t21.5 1h158l-36 -260q28 37 67 57t63 23t57 3q82 0 122 -50.5t25 -158.5z" />
    <glyph glyph-name="f_k" unicode="fk" horiz-adv-x="712" 
d="M534 308l173 -308h-68l-151 278l-88 -78l-28 -200h-59l88 627h-87q-27 0 -46.5 -9t-29 -26t-13 -29t-6.5 -29l-7 -50h101l-7 -47h-101l-90 -637h-59l91 637h-74l7 47h73l6 41q6 42 22 72t33 44.5t39.5 22.5t33 9t21.5 1h158l-57 -407l256 217h71z" />
    <glyph glyph-name="f_f_k" unicode="ffk" horiz-adv-x="965" 
d="M787 308l173 -308h-68l-151 278l-88 -78l-28 -200h-59l88 627h-87q-27 0 -46.5 -9t-29 -26t-13 -29t-6.5 -29l-7 -50h101l-7 -47h-101l-89 -637h-59l90 637h-195l-89 -637h-59l90 637h-74l7 47h74l7 52q6 43 21 73.5t30.5 45t37.5 22t32.5 8t24.5 0.5h3q30 0 57 -13
l-13 -39q-18 8 -38 8q-27 0 -46.5 -9t-29 -26t-13 -29t-6.5 -29l-9 -64h194l6 41q6 42 22 72t33 44.5t39.5 22.5t33 9t21.5 1h158l-57 -407l256 217h71z" />
    <glyph glyph-name="f_t" unicode="ft" horiz-adv-x="568" 
d="M420 437h-83h-122l-89 -637h-59l90 637h-74l7 47h74l7 52q6 43 21 73.5t30.5 45t37.5 22t32.5 8t24.5 0.5h3q30 0 57 -13l-13 -39q-18 8 -38 8q-27 0 -46.5 -9t-29 -26t-13 -29t-6.5 -29l-9 -64h122h83l18 129h58l-18 -129h118l-7 -47h-118l-42 -298q-3 -26 -4 -49.5
t17.5 -39.5t58.5 -16q20 0 39 5l1 -39q-31 -13 -65 -13q-15 0 -24.5 1t-30 8.5t-31.5 21.5t-18 44.5t-1 73.5z" />
    <glyph glyph-name="f_f_t" unicode="fft" horiz-adv-x="821" 
d="M673 437h-83h-122l-89 -637h-59l90 637h-195l-89 -637h-59l90 637h-74l7 47h74l7 52q6 43 21 73.5t30.5 45t37.5 22t32.5 8t24.5 0.5h3q30 0 57 -13l-13 -39q-18 8 -38 8q-27 0 -46.5 -9t-29 -26t-13 -29t-6.5 -29l-9 -64h195l7 52q6 43 21 73.5t30.5 45t37.5 22t32.5 8
t24.5 0.5h3q30 0 57 -13l-13 -39q-18 8 -38 8q-27 0 -46.5 -9t-29 -26t-13 -29t-6.5 -29l-9 -64h122h83l18 129h58l-18 -129h118l-7 -47h-118l-42 -298q-3 -26 -4 -49.5t17.5 -39.5t58.5 -16q20 0 39 5l1 -39q-31 -13 -65 -13q-15 0 -24.5 1t-30 8.5t-31.5 21.5t-18 44.5
t-1 73.5z" />
    <glyph glyph-name="t_h" unicode="th" horiz-adv-x="836" 
d="M365 0l61 437h-211l-42 -298q-3 -26 -4 -49.5t17.5 -39.5t58.5 -16q20 0 39 5l1 -39q-31 -13 -65 -13q-15 0 -24.5 1t-30 8.5t-31.5 21.5t-18 44.5t-1 73.5l42 301h-83l7 47h83l18 129h58l-18 -129h211l26 190h59l-36 -260q28 37 67 57t63 23t57 3q82 0 122 -50.5
t25 -158.5l-40 -288h-59l40 288q23 159 -108 159q-21 0 -45 -5.5t-55.5 -20.5t-54.5 -48.5t-30 -81.5l-41 -291h-58z" />
    <glyph glyph-name=".notdef" horiz-adv-x="500" 
 />
    <glyph glyph-name=".null" horiz-adv-x="0" 
 />
    <glyph glyph-name="nonmarkingreturn" horiz-adv-x="333" 
 />
    <glyph glyph-name="space" unicode=" " horiz-adv-x="278" 
 />
    <glyph glyph-name="space" unicode="&#xa0;" horiz-adv-x="278" 
 />
    <glyph glyph-name="exclam" unicode="!" horiz-adv-x="200" 
d="M94 142l71 532h60l-79 -532h-52zM70 0l11 76h59l-11 -76h-59z" />
    <glyph glyph-name="quotedbl" unicode="&#x22;" horiz-adv-x="293" 
d="M112 388l33 286h57l-46 -286h-44zM247 388l34 286h57l-47 -286h-44z" />
    <glyph glyph-name="numbersign" unicode="#" horiz-adv-x="571" 
d="M362 674h52l-88 -190h141l88 190h50l-87 -190h96l-6 -46h-112l-85 -186h106l-7 -46h-120l-96 -206h-47l94 206h-139l-99 -206h-49l94 206h-94l6 46h108l85 186h-109l7 46h123zM306 438l-85 -186h141l85 186h-141z" />
    <glyph glyph-name="dollar" unicode="$" horiz-adv-x="548" 
d="M236 -91l11 82q-123 11 -207 83q1 2 14 21t20 26q40 -33 98.5 -55.5t120.5 -22.5q57 0 108.5 26.5t70.5 76.5q34 89 -61 132l-194 76q-60 24 -85.5 70t-8.5 111q17 63 78.5 104t143.5 45l10 75h49l-10 -75q107 -8 176 -65l-30 -47q-78 58 -182 58q-59 0 -106 -24.5
t-68 -75.5q-4 -21 -6 -35.5t6.5 -28t15.5 -22.5t23 -18.5t28.5 -15t30.5 -12.5l165 -68q43 -16 66.5 -44.5t28.5 -54t0 -50.5q-14 -86 -84.5 -138t-161.5 -54l-11 -80h-49z" />
    <glyph glyph-name="percent" unicode="%" horiz-adv-x="853" 
d="M188 0l493 674h47l-492 -674h-48zM109 481q0 89 51 142.5t129 53.5q61 0 97 -38t36 -104q0 -89 -51.5 -142.5t-128.5 -53.5q-61 0 -97 38t-36 104zM365 534q0 92 -83 92q-117 0 -117 -144q0 -91 84 -91q61 0 88.5 40t27.5 103zM525 130q0 89 51 142.5t129 53.5
q61 0 97 -38t36 -104q0 -89 -52 -142.5t-129 -53.5q-61 0 -96.5 38t-35.5 104zM780 183q0 92 -82 92q-117 0 -117 -144q0 -91 84 -91q115 0 115 143z" />
    <glyph glyph-name="ampersand" unicode="&#x26;" horiz-adv-x="605" 
d="M123 159q0 -60 38 -92t112 -32q108 0 183 115l-159 181q-67 -12 -120.5 -57t-53.5 -115zM453 542q2 43 -22 69.5t-73 26.5q-48 0 -80.5 -29t-41.5 -66q-20 -103 80 -159q69 34 99 67t38 91zM355 353l134 -157q32 53 44 136h52q-12 -104 -58 -168q37 -44 53 -80t10 -84
h-54v14v13t-0.5 11.5t-2.5 13t-5 12.5t-7.5 15.5t-11 17t-15.5 21.5q-78 -131 -228 -131q-100 0 -151.5 47.5t-51.5 119.5q0 149 191 209q-92 69 -76 166q11 80 65.5 118t120.5 38q65 0 109.5 -37.5t33.5 -112.5q-18 -118 -152 -182z" />
    <glyph glyph-name="quotesingle" unicode="'" horiz-adv-x="157" 
d="M112 388l33 286h57l-46 -286h-44z" />
    <glyph glyph-name="parenleft" unicode="(" horiz-adv-x="326" 
d="M273 -93l-6 -48q-106 6 -151.5 110t-16.5 306q29 195 102.5 292.5t179.5 106.5l-6 -46q-51 -6 -90 -31.5t-71.5 -78t-50 -145.5t-17.5 -222q0 -230 127 -244z" />
    <glyph glyph-name="parenright" unicode=")" horiz-adv-x="326" 
d="M128 628l7 46q103 -9 150 -107t20 -292q-29 -203 -103 -307.5t-182 -110.5l7 47q39 4 72.5 22t63 55t50 91.5t32.5 135t12 181.5q0 126 -34 179t-95 60z" />
    <glyph glyph-name="asterisk" unicode="*" horiz-adv-x="374" 
d="M283 541l113 71l19 -35l-111 -62l91 -61l-26 -37l-93 72l-19 -134h-39l19 133l-116 -71l-15 37l108 61l-93 62l27 35l96 -70l19 132h39z" />
    <glyph glyph-name="plus" unicode="+" horiz-adv-x="554" 
d="M379 566l-30 -217h214l-8 -54h-214l-30 -214h-54l30 214h-206l8 54h206l30 217h54z" />
    <glyph glyph-name="comma" unicode="," horiz-adv-x="220" 
d="M9 -100l109 174h72l-126 -174h-55z" />
    <glyph glyph-name="hyphen" unicode="-" horiz-adv-x="399" 
d="M392 232h-319l8 58h319z" />
    <glyph glyph-name="period" unicode="." horiz-adv-x="171" 
d="M50 0l12 86h71l-12 -86h-71z" />
    <glyph glyph-name="slash" unicode="/" horiz-adv-x="350" 
d="M411 674l-328 -674h-53l327 674h54z" />
    <glyph glyph-name="zero" unicode="0" horiz-adv-x="570" 
d="M280 -14q-93 0 -143.5 69.5t-50.5 196.5q0 190 80 304t210 114q97 0 148 -68.5t51 -197.5q0 -190 -80 -304t-215 -114zM369 620q-70 0 -123 -55t-78 -135t-25 -169q0 -99 36 -162.5t108 -63.5q74 0 128 55.5t77.5 134.5t23.5 168q0 99 -36 163t-111 64z" />
    <glyph glyph-name="one" unicode="1" horiz-adv-x="570" 
d="M282 488l-25 42l155 129h67l-92 -659h-59l83 597z" />
    <glyph glyph-name="two" unicode="2" horiz-adv-x="570" 
d="M381 615q-51 0 -101.5 -27t-81.5 -58l-30 42q31 34 87.5 66t129.5 32q87 0 139 -46.5t52 -117.5q0 -111 -105 -183q-29 -20 -126 -74.5t-147.5 -98.5t-59.5 -95h372l-8 -55h-439l3 23q11 55 36.5 98t66 75.5t77.5 55t92 52.5t89 53q49 33 69 64.5t20 72.5
q0 46 -36.5 83.5t-98.5 37.5z" />
    <glyph glyph-name="three" unicode="3" horiz-adv-x="570" 
d="M282 -14q-128 0 -200 82l31 40q73 -68 171 -68q83 0 131.5 43.5t48.5 102.5q0 51 -38 87t-109 36h-42l8 56h38q82 0 130 41t48 96q0 48 -36.5 82t-101.5 34q-92 0 -166 -67q-19 39 -19 40q79 79 198 79q81 0 131.5 -41t50.5 -116q0 -57 -42 -112.5t-116 -63.5
q55 -2 90.5 -44.5t35.5 -99.5q0 -90 -74.5 -149.5t-167.5 -57.5z" />
    <glyph glyph-name="four" unicode="4" horiz-adv-x="570" 
d="M429 0h-56l20 143h-329l8 55q31 47 66.5 93.5t80 99.5t73.5 86t85 95.5t77 86.5h68l-66 -466h96l-7 -50h-96zM129 193h271l56 395q-224 -231 -327 -395z" />
    <glyph glyph-name="five" unicode="5" horiz-adv-x="570" 
d="M481 231q0 65 -36 109t-104 44q-43 0 -75.5 -10.5t-63.5 -43.5h-69q18 62 46.5 178t38.5 151h332l-8 -55h-284l-54 -215q52 48 144 48q82 0 135 -54t53 -141q0 -121 -78 -187.5t-193 -66.5q-66 0 -107.5 23t-79.5 67l35 55q20 -40 60 -66.5t89 -26.5q65 0 111 19.5
t68 51.5t31 61t9 59z" />
    <glyph glyph-name="six" unicode="6" horiz-adv-x="570" 
d="M545 644l-21 -45q-54 24 -97 24q-109 0 -176 -78t-88 -217q64 105 195 105q86 0 134 -51.5t48 -139.5q0 -119 -71 -187t-179 -68q-55 0 -94.5 23t-59.5 61.5t-28.5 78.5t-8.5 85q0 208 90 321.5t229 113.5q78 0 127 -26zM295 37q60 0 104.5 32.5t64 75t19.5 85.5
q0 61 -33.5 106.5t-107.5 45.5q-84 0 -134.5 -58t-50.5 -137q0 -66 36.5 -108t101.5 -42z" />
    <glyph glyph-name="seven" unicode="7" horiz-adv-x="570" 
d="M149 604l8 55h442l-9 -63q-134 -145 -227 -287t-171 -309h-69q103 198 191 334.5t215 269.5h-380z" />
    <glyph glyph-name="eight" unicode="8" horiz-adv-x="570" 
d="M283 -14q-101 0 -152.5 44.5t-51.5 112.5q0 21 7 46.5t24 58.5t54 60t88 37q-51 5 -76.5 46.5t-25.5 90.5q0 75 55 127t123 58l15 2q9 1 36 1q26 0 35 -1l14 -2q55 -6 94 -46t39 -100q0 -57 -39.5 -112.5t-107.5 -63.5q37 -7 63 -26t38 -43.5t17 -46t5 -42.5
q0 -85 -65.5 -143t-188.5 -58zM329 314q-90 0 -141 -47t-51 -108q0 -52 40 -89.5t112 -37.5q86 0 139 47.5t53 108.5q0 52 -39 89t-113 37zM372 624q-80 0 -122.5 -42t-42.5 -99q0 -109 130 -109q146 0 165 128q7 50 -25 86t-105 36z" />
    <glyph glyph-name="nine" unicode="9" horiz-adv-x="570" 
d="M118 13l21 45q52 -24 97 -24q109 0 177 78.5t86 216.5q-61 -105 -194 -105q-87 0 -135 51.5t-48 139.5q0 118 71.5 186.5t179.5 68.5q55 0 94.5 -23t59.5 -61.5t28.5 -78.5t8.5 -85q0 -208 -90 -321.5t-229 -113.5q-78 0 -127 26zM368 620q-60 0 -104.5 -32.5t-64 -75
t-19.5 -85.5q0 -61 33.5 -106.5t107.5 -45.5q84 0 134.5 58t50.5 137q0 66 -37 108t-101 42z" />
    <glyph glyph-name="colon" unicode=":" horiz-adv-x="161" 
d="M106 398l12 86h62l-12 -86h-62zM50 0l12 86h62l-12 -86h-62z" />
    <glyph glyph-name="semicolon" unicode=";" horiz-adv-x="250" 
d="M184 398l12 86h62l-12 -86h-62zM27 -100l109 174h72l-126 -174h-55z" />
    <glyph glyph-name="less" unicode="&#x3c;" horiz-adv-x="570" 
d="M576 473l-8 -56l-431 -176l382 -176l-8 -57l-450 214l5 39z" />
    <glyph glyph-name="equal" unicode="=" horiz-adv-x="577" 
d="M585 407h-477l7 51h477zM557 211h-477l7 51h477z" />
    <glyph glyph-name="greater" unicode="&#x3e;" horiz-adv-x="570" 
d="M118 417l8 56q44 -21 202 -95t249 -117l-6 -39l-510 -214l8 57l430 176z" />
    <glyph glyph-name="question" unicode="?" horiz-adv-x="518" 
d="M291 142h-52q11 80 40.5 118.5t127.5 115.5q85 65 85 141q0 52 -37.5 86t-107.5 34q-48 0 -93 -27.5t-71 -58.5q-11 7 -21 17t-15 14q30 39 83 71.5t129 32.5q84 0 137.5 -42t53.5 -122q0 -54 -29.5 -100t-95.5 -96q-70 -53 -96.5 -84t-34.5 -82zM218 0l11 76h59l-11 -76
h-59z" />
    <glyph glyph-name="at" unicode="@" horiz-adv-x="862" 
d="M735 54l15 -32q-60 -42 -148 -69.5t-169 -27.5q-165 0 -255 90.5t-90 234.5q0 117 63 218t165 159t215 58q86 0 153 -26t105 -68.5t57.5 -91t19.5 -100.5q0 -81 -27.5 -144.5t-70.5 -98t-88 -52t-87 -17.5q-30 0 -49.5 17.5t-14.5 56.5q-65 -52 -148 -52q-112 0 -112 114
q0 106 67.5 179.5t173.5 73.5q32 0 56.5 -15.5t32.5 -41.5q8 14 19 49h54q-17 -48 -46.5 -130.5t-43.5 -121.5q-15 -38 -7 -61.5t35 -23.5q30 0 64 14.5t67 43t54.5 82.5t21.5 124q0 61 -24.5 108.5t-66 76.5t-93 44t-108.5 15q-157 0 -271 -112t-114 -272q0 -131 81 -209
t210 -78q161 0 304 86zM505 435q-118 0 -168 -142q-13 -37 -13 -69q0 -70 74 -70q111 0 142 83l41 124q5 37 -23.5 55.5t-52.5 18.5z" />
    <glyph glyph-name="A" unicode="A" horiz-adv-x="650" 
d="M71 0h-61l375 674h70l185 -674h-61l-44 164h-375zM412 620l-224 -402h335z" />
    <glyph glyph-name="B" unicode="B" horiz-adv-x="593" 
d="M408 312h-241l-36 -258h241q76 0 118.5 42t42.5 100q0 49 -32 82.5t-93 33.5zM493 346q45 -6 73.5 -49.5t28.5 -97.5q0 -72 -55.5 -135.5t-147.5 -63.5h-327l95 674h291q79 0 117 -42.5t38 -105.5q0 -27 -7.5 -56t-34.5 -65.5t-71 -58.5zM175 367h230q42 4 71.5 20
t42.5 40t18 44t5 41q0 108 -120 108h-212z" />
    <glyph glyph-name="C" unicode="C" horiz-adv-x="588" 
d="M83 287q0 165 108.5 281.5t275.5 116.5q122 0 183 -29q-5 -10 -13.5 -25t-11.5 -20q-68 19 -141 19q-70 0 -128 -20.5t-96.5 -54t-65 -78t-38 -90.5t-11.5 -94q0 -49 14 -92t43 -80t80 -58t119 -21q81 0 149 19q2 -11 5.5 -25.5t4.5 -19.5q-70 -29 -191 -29
q-133 0 -209.5 85t-76.5 215z" />
    <glyph glyph-name="D" unicode="D" horiz-adv-x="657" 
d="M297 0h-232l95 674h232q139 0 213.5 -70t74.5 -207q0 -191 -102.5 -294t-280.5 -103zM132 54h177q134 0 223.5 84t89.5 251q0 119 -63 175t-174 56h-174z" />
    <glyph glyph-name="E" unicode="E" horiz-adv-x="543" 
d="M498 0h-433l95 674h426l-8 -54h-368l-35 -252h341l-8 -55h-341l-36 -259h375z" />
    <glyph glyph-name="F" unicode="F" horiz-adv-x="502" 
d="M123 0h-58l95 674h402l-8 -54h-344l-35 -252h317l-8 -55h-317z" />
    <glyph glyph-name="G" unicode="G" horiz-adv-x="670" 
d="M614 291h-147l8 55h197l-44 -317q-84 -40 -230 -40q-147 0 -231 85.5t-84 217.5q0 163 116.5 278t296.5 115q123 0 196 -46l-31 -48q-29 20 -73 30t-75 10q-74 0 -136 -19.5t-104 -52.5t-71.5 -76t-43 -88.5t-13.5 -92.5q0 -106 70 -182t203 -76q86 0 166 27z" />
    <glyph glyph-name="H" unicode="H" horiz-adv-x="644" 
d="M567 327h-398l-46 -327h-58l95 674h58l-41 -292h398l41 292h58l-95 -674h-58z" />
    <glyph glyph-name="I" unicode="I" horiz-adv-x="208" 
d="M75 0l95 674h58l-95 -674h-58z" />
    <glyph glyph-name="J" unicode="J" horiz-adv-x="393" 
d="M13 19l20 47q58 -25 119 -25q45 0 75 14q33 17 48.5 45t23.5 84l69 490h55l-70 -497q-8 -54 -27.5 -92t-47.5 -58t-57.5 -29t-64.5 -9q-82 0 -143 30z" />
    <glyph glyph-name="K" unicode="K" horiz-adv-x="557" 
d="M547 0h-76l-198 326l-121 -120l-29 -206h-58l95 674h58l-55 -389l366 389h71l-284 -301z" />
    <glyph glyph-name="L" unicode="L" horiz-adv-x="507" 
d="M218 674l-87 -620h344l-8 -55h-402l95 675h58z" />
    <glyph glyph-name="M" unicode="M" horiz-adv-x="833" 
d="M387 0l-177 612l-106 -612h-59l122 674h81l178 -610l349 610h81l-68 -674h-58l65 612l-348 -612h-60z" />
    <glyph glyph-name="N" unicode="N" horiz-adv-x="652" 
d="M516 0l-308 603l-85 -603h-58l95 674h81l298 -600l85 600h58l-95 -674h-71z" />
    <glyph glyph-name="O" unicode="O" horiz-adv-x="715" 
d="M356 -13q-129 0 -201.5 77.5t-72.5 213.5q0 185 102.5 296t269.5 111q131 0 202.5 -76t71.5 -212q0 -186 -102 -298t-270 -112zM447 634q-94 0 -163.5 -50.5t-103 -128.5t-33.5 -171q0 -110 55 -178t161 -68q94 0 164 49t103.5 127t33.5 172q0 108 -55.5 178t-161.5 70z
" />
    <glyph glyph-name="P" unicode="P" horiz-adv-x="562" 
d="M403 271h-242l-38 -271h-58l95 674h293q57 0 94 -28t50 -65.5t13 -82.5q0 -15 -4 -38t-17.5 -57.5t-35 -62.5t-61 -48.5t-89.5 -20.5zM169 326h227q45 0 77 18t47 46.5t21 52.5t6 46q0 56 -30.5 93.5t-96.5 37.5h-210z" />
    <glyph glyph-name="Q" unicode="Q" horiz-adv-x="705" 
d="M431 -13h-75q-129 0 -201.5 77.5t-72.5 213.5q0 185 102.5 296t269.5 111q131 0 202.5 -76t71.5 -212q0 -135 -60.5 -233.5t-170.5 -152.5q47 -59 150 -59h20l-6 -46h-16q-58 0 -104 15t-65 28.5t-45 37.5zM447 634q-94 0 -163.5 -50.5t-103 -128.5t-33.5 -171
q0 -110 55 -178t161 -68q94 0 164 49t103.5 127t33.5 172q0 108 -55.5 178t-161.5 70z" />
    <glyph glyph-name="R" unicode="R" horiz-adv-x="592" 
d="M457 300q30 -18 39.5 -33.5t21.5 -66.5q2 -10 5.5 -33t12.5 -64t25 -103h-62l-49 213q-8 35 -31.5 51.5t-67.5 16.5h-189l-39 -281h-58l95 674h282q48 0 83 -15t52.5 -40.5t25.5 -53t8 -59.5q0 -20 -5 -44.5t-19 -59t-48 -63t-82 -39.5zM170 335h227q43 0 75.5 17t49 43
t24 51t7.5 48q0 54 -30.5 90t-95.5 36h-217z" />
    <glyph glyph-name="S" unicode="S" horiz-adv-x="548" 
d="M365 685q126 0 205 -66l-30 -47q-78 58 -182 58q-59 0 -106 -24.5t-68 -75.5q-4 -21 -6 -35.5t6.5 -28t15.5 -22.5t23 -18.5t28.5 -15t30.5 -12.5l165 -68q43 -16 66.5 -44.5t28.5 -54t0 -50.5q-14 -88 -87.5 -140t-166.5 -52q-147 0 -248 85q1 2 14 21t20 26
q40 -33 98.5 -55.5t120.5 -22.5q57 0 108.5 26.5t70.5 76.5q34 89 -61 132l-194 76q-60 24 -85.5 70.5t-8.5 110.5q20 67 86 108.5t156 41.5z" />
    <glyph glyph-name="T" unicode="T" horiz-adv-x="518" 
d="M600 620h-225l-87 -620h-58l87 620h-225l8 54h508z" />
    <glyph glyph-name="U" unicode="U" horiz-adv-x="673" 
d="M334 -13q-132 0 -192 68t-37 225l55 394h59l-55 -388q-17 -128 24.5 -189t152.5 -61q112 0 171.5 61t76.5 189l55 388h59l-55 -394q-23 -157 -102 -225t-212 -68z" />
    <glyph glyph-name="V" unicode="V" horiz-adv-x="601" 
d="M105 674h59l145 -616q45 89 154.5 298t163.5 318h59l-350 -674h-71z" />
    <glyph glyph-name="W" unicode="W" horiz-adv-x="930" 
d="M592 648l97 -576q42 98 132 301t132 301h62l-301 -674h-70l-98 572q-36 -81 -126 -277t-133 -295h-71l-111 674h62l95 -602l259 576h71z" />
    <glyph glyph-name="X" unicode="X" horiz-adv-x="587" 
d="M505 0l-172 287q-40 -48 -126 -143.5t-126 -143.5h-71l298 333l-193 341h72l159 -296l244 296h71l-288 -341l204 -333h-72z" />
    <glyph glyph-name="Y" unicode="Y" horiz-adv-x="598" 
d="M330 0h-62l33 236l-196 438h70l165 -382l271 382h72l-320 -438z" />
    <glyph glyph-name="Z" unicode="Z" horiz-adv-x="576" 
d="M527 0h-497l10 72l522 548h-427l8 54h498l-10 -68l-531 -550h435z" />
    <glyph glyph-name="bracketleft" unicode="[" horiz-adv-x="249" 
d="M298 631h-97l-103 -730h97l-6 -43h-149l115 816h149z" />
    <glyph glyph-name="backslash" unicode="\" horiz-adv-x="346" 
d="M263 0l-138 674h54l137 -674h-53z" />
    <glyph glyph-name="bracketright" unicode="]" horiz-adv-x="249" 
d="M226 631h-97l6 43h149l-115 -816h-149l6 43h97z" />
    <glyph glyph-name="asciicircum" unicode="^" horiz-adv-x="378" 
d="M90 389l175 285h38l95 -285h-52l-71 226l-134 -226h-51z" />
    <glyph glyph-name="underscore" unicode="_" horiz-adv-x="608" 
d="M20 -75h548l-8 -54h-548z" />
    <glyph glyph-name="grave" unicode="`" horiz-adv-x="229" 
d="M204 674l62 -129h-50l-81 129h69z" />
    <glyph glyph-name="a" unicode="a" horiz-adv-x="472" 
d="M417 0h-60l8 55q-54 -68 -167 -68q-65 0 -108 33t-43 92q0 95 87 138t267 52l6 43q0 34 -6 50q-22 51 -100 51q-83 0 -155 -32l-9 47q72 36 175 36q49 0 85 -15q83 -32 69 -134zM216 37q16 0 36.5 4t50.5 14.5t52 37t28 65.5l14 97q-281 -14 -293 -122q-4 -45 27 -70.5
t85 -25.5z" />
    <glyph glyph-name="b" unicode="b" horiz-adv-x="537" 
d="M214 674l-36 -251q52 74 172 74q94 0 142 -56.5t48 -152.5q0 -131 -68.5 -216t-188.5 -85q-98 0 -157 68l-8 -55h-58l95 674h59zM327 447q-39 0 -96 -31.5t-66 -87.5l-22 -159q-6 -39 7 -67t39 -41t49.5 -18t48.5 -5q51 0 89 21.5t57 49.5t30 66.5t13 61.5t2 44
q0 27 -6 52.5t-21 53t-47 44t-77 16.5z" />
    <glyph glyph-name="c" unicode="c" horiz-adv-x="438" 
d="M65 199q0 136 76 217t204 81q84 0 130 -21l-19 -47q-46 16 -110 16q-63 0 -108 -22t-68 -59t-33 -77t-10 -85q0 -73 38 -118.5t123 -45.5q63 0 116 17q1 -9 2 -24t3 -23q-54 -22 -136 -22q-99 0 -153.5 56.5t-54.5 156.5z" />
    <glyph glyph-name="d" unicode="d" horiz-adv-x="537" 
d="M477 421l36 253h59l-95 -674h-58l8 55q-80 -68 -177 -68q-90 0 -137.5 57t-47.5 152q0 131 69 216t193 85q45 0 89 -17t61 -59zM336 447q-58 0 -101 -24t-65.5 -63t-32.5 -79.5t-10 -82.5q0 -66 30 -113t103 -47q25 0 50 5t54.5 18t50.5 41t27 67l22 159q6 39 -20.5 68
t-56.5 40t-51 11z" />
    <glyph glyph-name="e" unicode="e" horiz-adv-x="520" 
d="M270 -13q-91 0 -147.5 58t-56.5 158q0 123 78.5 208.5t185.5 85.5q87 0 140.5 -56.5t53.5 -152.5q0 -43 -9 -67h-387q-12 -80 34.5 -131t132.5 -51q73 0 141 25l13 -44q-70 -33 -179 -33zM323 446q-66 0 -121.5 -53t-65.5 -123h328q11 86 -29.5 131t-111.5 45z" />
    <glyph glyph-name="f" unicode="f" horiz-adv-x="253" 
d="M80 484h74l7 52q6 43 21 73.5t30.5 45t37.5 22t32.5 8t24.5 0.5h3q30 0 57 -13l-13 -39q-18 8 -38 8q-27 0 -46.5 -9t-29 -26t-13 -29t-6.5 -29l-9 -64h101l-7 -47h-101l-90 -637h-59l91 637h-74z" />
    <glyph glyph-name="g" unicode="g" horiz-adv-x="537" 
d="M280 38q15 0 37 5t49 15.5t47.5 33.5t25.5 53l24 176q5 32 -3.5 56t-24 37t-38 21t-41 10t-38.5 2q-66 0 -110.5 -40t-61.5 -93.5t-17 -115.5q0 -160 151 -160zM413 -42l14 97q-65 -68 -163 -68q-93 0 -146 52.5t-53 155.5q0 146 72.5 224t185.5 78q17 0 36 -1.5t60 -18
t61 -46.5l7 53h58l-76 -542q-11 -81 -77.5 -116.5t-155.5 -35.5q-113 0 -162 32l21 48q59 -30 141 -30q45 0 77.5 8t49.5 18t28.5 28.5t15 31t6.5 32.5z" />
    <glyph glyph-name="h" unicode="h" horiz-adv-x="531" 
d="M511 288l-40 -288h-59l40 288q23 159 -107 159q-21 0 -45 -5.5t-55.5 -20.5t-54.5 -48.5t-30 -81.5l-41 -291h-59l95 674h59l-37 -260q29 37 68 57t62.5 23t57.5 3q175 0 146 -209z" />
    <glyph glyph-name="i" unicode="i" horiz-adv-x="179" 
d="M60 0l68 484h59l-68 -484h-59zM143 588l12 86h59l-12 -86h-59z" />
    <glyph glyph-name="j" unicode="j" horiz-adv-x="200" 
d="M208 484l-76 -536q-6 -43 -21.5 -73.5t-30 -44.5t-38.5 -21.5t-33.5 -8t-27.5 -0.5q-28 0 -57 12l14 42q28 -7 44 -7q26 0 44 9t27 24t13.5 30.5t7.5 33.5q1 6 1 8l74 532h59zM164 588l12 86h59l-12 -86h-59z" />
    <glyph glyph-name="k" unicode="k" horiz-adv-x="459" 
d="M281 308l173 -308h-68l-151 278l-88 -78l-28 -200h-59l95 674h59l-57 -407l255 217h71z" />
    <glyph glyph-name="l" unicode="l" horiz-adv-x="179" 
d="M60 0l95 674h59l-95 -674h-59z" />
    <glyph glyph-name="m" unicode="m" horiz-adv-x="822" 
d="M382 0l44 303q7 59 -19 101.5t-91 42.5q-52 0 -98.5 -39t-59.5 -130l-39 -278h-59l68 484h53l-10 -73q58 86 168 86q43 0 82 -23t55 -76q56 99 178 99q177 0 151 -193l-43 -304h-59l40 287q12 81 -12.5 120.5t-94.5 39.5q-12 0 -31.5 -5.5t-47 -19t-48.5 -44.5t-27 -74
l-43 -304h-57z" />
    <glyph glyph-name="n" unicode="n" horiz-adv-x="531" 
d="M511 286l-40 -286h-59l40 286q23 161 -107 161q-20 0 -44.5 -6t-55.5 -21.5t-54.5 -49.5t-30.5 -81l-41 -289h-59l68 484h52l-11 -79q64 92 175 92q95 0 139.5 -48t27.5 -163z" />
    <glyph glyph-name="o" unicode="o" horiz-adv-x="510" 
d="M55 198q0 136 74 217.5t196 81.5q94 0 146 -56t52 -155q0 -137 -74 -218.5t-196 -81.5q-94 0 -146 56t-52 156zM464 272q0 74 -38 125.5t-108 51.5q-91 0 -147.5 -73t-56.5 -166q0 -74 38 -125t108 -51q89 0 146.5 73t57.5 165z" />
    <glyph glyph-name="p" unicode="p" horiz-adv-x="537" 
d="M128 61l-37 -261h-59l96 684h58l-8 -55q79 68 177 68q90 0 137.5 -57t47.5 -152q0 -131 -69 -216t-193 -85q-119 0 -150 74zM269 37q58 0 101 24t65.5 63t32.5 79.5t10 82.5q0 66 -30 113t-103 47q-25 0 -50 -5t-54.5 -18t-50.5 -41t-27 -67l-22 -159q-5 -39 21 -68
t55.5 -40t51.5 -11z" />
    <glyph glyph-name="q" unicode="q" horiz-adv-x="537" 
d="M390 -200l37 261q-52 -74 -172 -74q-94 0 -142 56.5t-48 152.5q0 131 68.5 216t188.5 85q98 0 157 -68l8 55h58l-96 -684h-59zM278 37q21 0 54.5 11t68 40t39.5 68l22 159q6 39 -7 67t-39 41t-49.5 18t-48.5 5q-37 0 -67.5 -11.5t-49.5 -28.5t-33.5 -41t-22 -46
t-11.5 -47.5t-5 -40t-1 -28.5q0 -27 6 -52.5t20.5 -53t46.5 -44t77 -16.5z" />
    <glyph glyph-name="r" unicode="r" horiz-adv-x="292" 
d="M333 497h17l-8 -59h-27q-55 0 -97.5 -35t-51.5 -103l-42 -300h-59l68 484h53l-11 -75q59 88 158 88z" />
    <glyph glyph-name="s" unicode="s" horiz-adv-x="417" 
d="M336 94q13 26 7.5 46t-14.5 30t-21 15q-12 6 -146 60q-47 24 -63.5 58t-1.5 86q14 48 62 78.5t113 30.5q86 0 154 -46l-29 -45q-72 39 -125 39q-54 0 -85 -21t-35 -54q-5 -32 13.5 -52t63.5 -36l98 -39q40 -17 60 -45t20 -59q0 -67 -57.5 -110.5t-134.5 -43.5
q-102 0 -178 61l32 45q83 -56 145 -56q88 0 122 58z" />
    <glyph glyph-name="t" unicode="t" horiz-adv-x="314" 
d="M166 437h-83l7 47h83l18 129h58l-18 -129h118l-7 -47h-118l-42 -298q-3 -26 -4 -49.5t17.5 -39.5t58.5 -16q20 0 39 5l1 -39q-31 -13 -65 -13q-73 0 -96 46q-18 38 -9 103z" />
    <glyph glyph-name="u" unicode="u" horiz-adv-x="531" 
d="M87 198l41 286h59l-41 -286q-11 -78 13.5 -120t104.5 -42q16 0 35 3.5t51 15.5t56 44t31 80l43 305h59l-68 -484h-52l9 64q-21 -33 -65.5 -52.5t-68 -22t-39.5 -2.5q-96 0 -139.5 48.5t-28.5 162.5z" />
    <glyph glyph-name="v" unicode="v" horiz-adv-x="512" 
d="M296 0h-80l-138 484h62l123 -437l245 437h62z" />
    <glyph glyph-name="w" unicode="w" horiz-adv-x="793" 
d="M78 484h63l82 -424l202 424h80l83 -424l202 424h61l-235 -484h-69l-88 439l-210 -439h-70z" />
    <glyph glyph-name="x" unicode="x" horiz-adv-x="475" 
d="M452 484h68l-207 -239l152 -245h-69l-128 214l-190 -214h-68l221 245l-140 239h68l118 -206z" />
    <glyph glyph-name="y" unicode="y" horiz-adv-x="512" 
d="M52 -203l10 45q38 -7 65.5 2.5t51.5 48.5l50 90l-151 501h62l126 -434l242 434h62l-352 -621q-24 -42 -59.5 -57.5t-64.5 -15.5q-19 0 -42 7z" />
    <glyph glyph-name="z" unicode="z" horiz-adv-x="446" 
d="M25 0l8 58l388 380h-323l6 46h385l-8 -59l-387 -379h322l-6 -46h-385z" />
    <glyph glyph-name="braceleft" unicode="{" horiz-adv-x="328" 
d="M93 238l5 35q53 9 75.5 45t32.5 101l22 153q6 43 41 72.5t69 29.5h44q-1 -8 -2.5 -21t-3.5 -21h-23q-62 0 -73 -65l-23 -162q-5 -42 -24 -78t-34 -50.5t-25 -20.5q57 -57 41 -150l-20 -142q-9 -65 55 -65h23l-3 -24t-2 -17h-44q-36 0 -62 29.5t-20 72.5l18 132
q9 64 -3.5 100.5t-63.5 45.5z" />
    <glyph glyph-name="bar" unicode="|" horiz-adv-x="169" 
d="M44 -111l121 863h49l-121 -863h-49z" />
    <glyph glyph-name="braceright" unicode="}" horiz-adv-x="328" 
d="M306 273l-5 -35q-53 -9 -75.5 -45t-32.5 -101l-19 -132q-6 -43 -40.5 -72.5t-69.5 -29.5h-44q3 29 6 41h23q64 0 73 65l20 142q11 95 84 150q-10 8 -20 21t-19.5 49t-2.5 79l23 162q9 65 -55 65h-23q2 8 3.5 21t2.5 21h44q35 0 61 -29.5t20 -72.5l-21 -153
q-9 -64 4 -100.5t63 -45.5z" />
    <glyph glyph-name="asciitilde" unicode="~" horiz-adv-x="474" 
d="M208 362q27 0 75 -22.5t77 -22.5q60 0 70 62h46q-13 -113 -125 -113q-28 0 -74.5 22t-74.5 22q-58 0 -72 -65h-46q21 117 124 117z" />
    <glyph glyph-name="exclamdown" unicode="&#xa1;" horiz-adv-x="200" 
d="M42 -201l80 543h52l-72 -543h-60zM128 408l10 76h59l-10 -76h-59z" />
    <glyph glyph-name="cent" unicode="&#xa2;" horiz-adv-x="438" 
d="M384 577l-11 -81q70 -6 102 -20l-19 -47q-46 16 -111 16q-63 0 -108 -22t-68 -59t-32.5 -76.5t-9.5 -85.5q0 -73 38 -118.5t123 -45.5q63 0 116 17q1 -9 2 -24t3 -23q-41 -16 -108 -21l-13 -91h-49l13 91q-90 5 -138.5 60.5t-48.5 150.5q0 130 70 211t189 87l11 81h49z
" />
    <glyph glyph-name="sterling" unicode="&#xa3;" horiz-adv-x="469" 
d="M222 367l-44 -312h278l-8 -55h-410l8 55h71l43 312h-88l6 45h87l6 46q34 227 249 227q77 0 126 -31l-32 -39q-44 25 -100 25q-77 0 -122.5 -49.5t-58.5 -132.5l-6 -46h183l-6 -45h-182z" />
    <glyph glyph-name="currency" unicode="&#xa4;" horiz-adv-x="502" 
d="M121 303q12 67 47 99l-52 67l43 36l47 -62q26 17 59 25t74 2t75 -30l69 63q8 -11 19 -21.5t16 -16.5l-69 -59q24 -41 15 -104q-11 -61 -45 -103l53 -62q-36 -28 -46 -38l-50 62q-68 -35 -122.5 -32.5t-86.5 30.5l-65 -62l-33 36l70 67q-26 34 -18 103zM417 304
q9 57 -27.5 88t-82.5 31q-47 0 -89.5 -31t-51.5 -91t25 -91t81 -31t91.5 32t53.5 93z" />
    <glyph glyph-name="yen" unicode="&#xa5;" horiz-adv-x="538" 
d="M300 0h-61l19 132h-175l6 41h175l11 83h-175l6 42h164l-159 386h69l139 -357l232 357h70l-269 -386h162l-6 -42h-172l-11 -83h172l-6 -41h-172z" />
    <glyph glyph-name="brokenbar" unicode="&#xa6;" horiz-adv-x="168" 
d="M103 302l52 372h48l-52 -372h-48zM42 -129l52 372h48l-52 -372h-48z" />
    <glyph glyph-name="section" unicode="&#xa7;" horiz-adv-x="430" 
d="M329 85q13 28 5 56t-35 28l-7 4q-7 4 -33.5 16t-65.5 29q-24 12 -35 18.5t-30 21t-27.5 31t-8.5 37.5q0 34 27 68t74 57q-65 50 -45 134q15 44 61 72t106 28q78 0 144 -42l-26 -37q-51 32 -119 32q-45 0 -77.5 -18t-38.5 -47q-8 -35 11 -57.5t70 -43.5l40.5 -13.5t40 -17
t40.5 -24t26 -30.5t12 -41q0 -76 -98 -127q41 -24 48.5 -68.5t-19.5 -92.5q-18 -33 -60 -52t-96 -19q-97 0 -167 56l27 39q66 -49 147 -49q78 0 109 52zM343 391l-106 32q-52 -17 -74.5 -48.5t-13.5 -58.5q6 -20 33 -34.5t107 -46.5q94 46 94 101q0 36 -40 55z" />
    <glyph glyph-name="dieresis" unicode="&#xa8;" horiz-adv-x="273" 
d="M124 598l11 76h61l-11 -76h-61zM255 598l11 76h62l-11 -76h-62z" />
    <glyph glyph-name="copyright" unicode="&#xa9;" horiz-adv-x="770" 
d="M84 297q0 103 56 193t147.5 142.5t193.5 52.5q129 0 214.5 -89t85.5 -219q0 -156 -120.5 -272.5t-277.5 -116.5q-129 0 -214 89.5t-85 219.5zM133 302q0 -112 73 -188.5t184 -76.5q135 0 238 100t103 235q0 112 -73 188t-184 76q-134 0 -237.5 -99.5t-103.5 -234.5z
M236 334q12 90 74.5 149.5t153.5 59.5q72 0 116 -22l-15 -28q0 -1 -1.5 -3.5t-3 -6.5t-2.5 -9q-46 16 -88 16q-88 0 -134 -54.5t-46 -124.5q0 -56 33 -95t103 -39q47 0 93 14l4 -23l4 -23q-47 -21 -122 -21q-90 0 -135.5 60t-33.5 150z" />
    <glyph glyph-name="ordfeminine" unicode="&#xaa;" 
d="M334 356h-39l4 28q-51 -36 -102 -36q-40 0 -68.5 18.5t-28.5 59.5q0 61 52.5 89.5t166.5 34.5l4 29v3v7t-0.5 8t-2 8.5t-4 8t-7.5 8t-11 6.5t-15.5 4.5t-20.5 1.5q-37 0 -92 -21l-4 38q15 7 33 12q31 11 70 11q30 2 53 -9q52 -21 43 -84zM203 387q10 0 23.5 3t31.5 10.5
t32 26t18 44.5l6 42q-101 -6 -134.5 -22t-33.5 -61q0 -25 14 -34t43 -9zM82 304h244l-6 -45h-244z" />
    <glyph glyph-name="guillemotleft" unicode="&#xab;" horiz-adv-x="435" 
d="M314 539l-163 -231l103 -232h-63l-98 232l163 231h58zM455 539l-163 -231l103 -232h-63l-98 232l163 231h58z" />
    <glyph glyph-name="logicalnot" unicode="&#xac;" horiz-adv-x="598" 
d="M531 321h-426l7 53h478l-28 -199h-52z" />
    <glyph glyph-name="registered" unicode="&#xae;" horiz-adv-x="770" 
d="M84 297q0 103 56 193t147.5 142.5t193.5 52.5q129 0 214.5 -89t85.5 -219q0 -156 -120.5 -272.5t-277.5 -116.5q-129 0 -214 89.5t-85 219.5zM133 302q0 -112 73 -188.5t184 -76.5q135 0 238 100t103 235q0 112 -73 188t-184 76q-134 0 -237.5 -99.5t-103.5 -234.5z
M593 435q0 -33 -18.5 -68t-66.5 -51q14 -7 20.5 -17.5t12.5 -35.5q17 -89 30 -125h-52q-13 33 -21 76q-6 32 -12 51q-10 33 -50 33h-99l-23 -160h-48l57 400h167q56 0 79.5 -30t23.5 -73zM344 346h121q42 0 60.5 26t18.5 54t-15.5 46.5t-49.5 18.5h-115z" />
    <glyph glyph-name="macron" unicode="&#xaf;" horiz-adv-x="300" 
d="M132 650h220l-8 -54h-220z" />
    <glyph glyph-name="degree" unicode="&#xb0;" horiz-adv-x="361" 
d="M107 507q0 67 50.5 117t117.5 50q55 0 90.5 -37.5t35.5 -94.5q0 -67 -50.5 -116t-117.5 -49q-55 0 -90.5 37.5t-35.5 92.5zM152 512q0 -39 24.5 -64.5t62.5 -25.5q48 0 82.5 34t34.5 82q0 39 -24.5 65t-63.5 26q-46 0 -81 -34.5t-35 -82.5z" />
    <glyph glyph-name="plusminus" unicode="&#xb1;" horiz-adv-x="567" 
d="M98 377h213l28 197h52l-28 -197h212l-8 -56h-212l-28 -199h-52l28 199h-213zM522 0h-477l8 55h477z" />
    <glyph glyph-name="twosuperior" unicode="&#xb2;" 
d="M281 815q-57 0 -104 -50l-19 30q14 20 51 40t76 20q51 0 81.5 -27t30.5 -70q0 -57 -60 -105q-31 -20 -59 -35q-38 -22 -56.5 -33.5t-40.5 -32t-27 -40.5h200l-6 -42h-249l3 20q6 30 18.5 53.5t34.5 42t39.5 29.5t47.5 28q62 35 65 37q48 31 48 70q0 24 -20.5 44.5
t-53.5 20.5z" />
    <glyph glyph-name="threesuperior" unicode="&#xb3;" 
d="M226 461q-67 0 -117 50l24 31q46 -41 96 -41q45 0 69.5 22.5t24.5 53.5q0 26 -20.5 45t-57.5 19h-29l6 41h27q45 0 69.5 21t24.5 50q0 25 -19 43t-53 18q-50 0 -96 -42l-4 10q-3 10 -10 21q49 49 117 49q47 0 77 -24t30 -68q0 -29 -22.5 -59.5t-58.5 -37.5l1 -2
q29 -2 45.5 -26t16.5 -53q0 -54 -43 -87.5t-98 -33.5z" />
    <glyph glyph-name="acute" unicode="&#xb4;" horiz-adv-x="229" 
d="M117 545l98 129h69l-117 -129h-50z" />
    <glyph glyph-name="mu" unicode="&#xb5;" horiz-adv-x="531" 
d="M126 50l-37 -260h-59l98 694h59l-41 -289q-9 -70 17 -113.5t91 -43.5q10 0 20.5 1t32 4.5t40.5 13.5t38.5 24t33 39.5t18.5 58.5l43 305h59l-68 -484h-52l10 72q-21 -28 -49.5 -47t-55 -26t-40.5 -9.5t-22 -2.5h-7h-12t-14.5 0.5t-17.5 2.5l-18 4.5t-18.5 7.5t-17.5 11.5
t-17 16t-14 20.5z" />
    <glyph glyph-name="mu" unicode="&#x3bc;" horiz-adv-x="531" 
d="M126 50l-37 -260h-59l98 694h59l-41 -289q-9 -70 17 -113.5t91 -43.5q10 0 20.5 1t32 4.5t40.5 13.5t38.5 24t33 39.5t18.5 58.5l43 305h59l-68 -484h-52l10 72q-21 -28 -49.5 -47t-55 -26t-40.5 -9.5t-22 -2.5h-7h-12t-14.5 0.5t-17.5 2.5l-18 4.5t-18.5 7.5t-17.5 11.5
t-17 16t-14 20.5z" />
    <glyph glyph-name="paragraph" unicode="&#xb6;" horiz-adv-x="436" 
d="M205 -200l70 502q-77 0 -127.5 49t-50.5 120q0 86 64.5 149.5t151.5 63.5h159l-124 -884h-39l119 852h-63l-119 -852h-41z" />
    <glyph glyph-name="periodcentered" unicode="&#xb7;" horiz-adv-x="171" 
d="M89 277l12 86h71l-12 -86h-71z" />
    <glyph glyph-name="cedilla" unicode="&#xb8;" horiz-adv-x="288" 
d="M137 10h49q31 -43 36 -84q6 -55 -27.5 -93t-95.5 -32q-33 4 -74 23l6 40l39 -12q72 -22 96 29t-29 129z" />
    <glyph glyph-name="onesuperior" unicode="&#xb9;" horiz-adv-x="280" 
d="M186 738l-18 32l92 77h44l-53 -377h-44l45 324z" />
    <glyph glyph-name="ordmasculine" unicode="&#xba;" horiz-adv-x="361" 
d="M110 491q0 84 45 133.5t120 49.5q57 0 89 -34t32 -95q0 -84 -45 -134t-120 -50q-57 0 -89 34.5t-32 95.5zM352 534q0 41 -21.5 70.5t-61.5 29.5q-51 0 -83.5 -41.5t-32.5 -92.5q0 -42 21.5 -70.5t61.5 -28.5q51 0 83.5 40.5t32.5 92.5zM88 304h271l-7 -45h-271z" />
    <glyph glyph-name="guillemotright" unicode="&#xbb;" horiz-adv-x="435" 
d="M371 308l-99 231h58l99 -231l-164 -232h-63zM230 308l-99 231h58l99 -231l-164 -232h-63z" />
    <glyph glyph-name="onequarter" unicode="&#xbc;" horiz-adv-x="662" 
d="M84 0l491 674h47l-490 -674h-48zM549 0h-49l11 79h-182l5 37q51 78 216 261h52l-36 -258h53l-6 -40h-53zM388 119h129l26 189q-95 -98 -155 -189zM162 569l-18 32l92 77h44l-53 -377h-44l46 326z" />
    <glyph glyph-name="onehalf" unicode="&#xbd;" horiz-adv-x="708" 
d="M90 0l491 674h47l-490 -674h-48zM162 569l-18 32l92 77h44l-53 -377h-44l46 326zM572 344q-57 0 -104 -50l-19 30q14 20 51 40t76 20q51 0 81.5 -27t30.5 -70q0 -57 -60 -105q-31 -20 -59 -35q-38 -22 -56.5 -33.5t-40.5 -32t-27 -40.5h200l-6 -42h-249l3 20
q6 30 18.5 53.5t34.5 42t39.5 29.5t47.5 28q54 31 64 37q49 32 49 70q0 24 -20 44.5t-54 20.5z" />
    <glyph glyph-name="threequarters" unicode="&#xbe;" horiz-adv-x="763" 
d="M178 0l491 674h47l-490 -674h-48zM650 0h-49l11 79h-182l5 37q51 78 216 261h52l-36 -258h53l-6 -40h-53zM489 119h129l26 189q-95 -98 -155 -189zM225 293q-67 0 -117 50l24 31q46 -41 96 -41q45 0 69.5 22.5t24.5 53.5q0 26 -20.5 45t-57.5 19h-29l6 41h27
q45 0 69.5 21t24.5 50q0 25 -19 43t-53 18q-50 0 -96 -42l-4 10q-3 10 -10 21q49 49 117 49q47 0 77 -24t30 -68q0 -29 -22.5 -59.5t-58.5 -37.5l1 -2q29 -2 45.5 -26t16.5 -53q0 -54 -43 -87.5t-98 -33.5z" />
    <glyph glyph-name="questiondown" unicode="&#xbf;" horiz-adv-x="518" 
d="M321 342h51q-12 -81 -43 -124.5t-126 -118.5q-85 -65 -85 -141q0 -52 38 -86t108 -34q48 0 93 27.5t71 58.5q9 -7 18.5 -16.5t16.5 -14.5q-30 -39 -82.5 -71.5t-128.5 -32.5q-85 0 -138.5 42t-53.5 122q0 54 29.5 100t95.5 96t95.5 87t37.5 88zM398 484l-10 -76h-59
l10 76h59z" />
    <glyph glyph-name="Agrave" unicode="&#xc0;" horiz-adv-x="650" 
d="M71 0h-61l375 674h70l185 -674h-61l-44 164h-375zM412 620l-224 -402h335zM396 864l62 -129h-50l-81 129h69z" />
    <glyph glyph-name="Aacute" unicode="&#xc1;" horiz-adv-x="650" 
d="M71 0h-61l375 674h70l185 -674h-61l-44 164h-375zM412 620l-224 -402h335zM396 735l98 129h69l-117 -129h-50z" />
    <glyph glyph-name="Acircumflex" unicode="&#xc2;" horiz-adv-x="650" 
d="M71 0h-61l375 674h70l185 -674h-61l-44 164h-375zM412 620l-224 -402h335zM411 864h69l75 -109h-48l-67 67l-86 -67h-48z" />
    <glyph glyph-name="Atilde" unicode="&#xc3;" horiz-adv-x="650" 
d="M71 0h-61l375 674h70l185 -674h-61l-44 164h-375zM412 620l-224 -402h335zM393 856q19 0 49.5 -15t50.5 -15q18 0 28.5 8.5t17.5 29.5h37q-6 -37 -29.5 -60t-61.5 -23q-19 0 -47 15t-49 15q-38 0 -46 -35h-39q6 36 29 58t60 22z" />
    <glyph glyph-name="Adieresis" unicode="&#xc4;" horiz-adv-x="650" 
d="M71 0h-61l375 674h70l185 -674h-61l-44 164h-375zM412 620l-224 -402h335zM339 788l10 76h61l-10 -76h-61zM470 788l10 76h62l-10 -76h-62z" />
    <glyph glyph-name="Aring" unicode="&#xc5;" horiz-adv-x="650" 
d="M71 0h-61l375 674h70l185 -674h-61l-44 164h-375zM412 620l-224 -402h335zM360 835q0 40 24.5 69t71.5 29q72 0 72 -70q0 -43 -23 -71.5t-73 -28.5q-37 0 -54.5 20t-17.5 52zM398 840q0 -41 39 -41q28 0 40.5 17t12.5 41q0 39 -39 39q-27 0 -40 -16t-13 -40z" />
    <glyph glyph-name="AE" unicode="&#xc6;" horiz-adv-x="928" 
d="M470 620l-260 -402h275l56 402h-71zM520 54h376l-8 -54h-434l23 164h-296l-107 -164h-64q170 269 430 674h535l-8 -54h-367l-35 -252h340l-8 -55h-341z" />
    <glyph glyph-name="Ccedilla" unicode="&#xc7;" horiz-adv-x="588" 
d="M83 287q0 165 108.5 281.5t275.5 116.5q122 0 183 -29q-5 -10 -13.5 -25t-11.5 -20q-68 19 -141 19q-70 0 -128 -20.5t-96.5 -54t-65 -78t-38 -90.5t-11.5 -94q0 -49 14 -92t43 -80t80 -58t119 -21q81 0 149 19q2 -11 5.5 -25.5t4.5 -19.5q-65 -27 -181 -29
q18 -32 23 -61q6 -55 -28.5 -93t-95.5 -32q-33 4 -74 23l6 40l39 -12q66 -20 92.5 23.5t-12.5 113.5q-116 12 -181 95t-65 203z" />
    <glyph glyph-name="Egrave" unicode="&#xc8;" horiz-adv-x="543" 
d="M498 0h-433l95 674h426l-8 -54h-368l-35 -252h341l-8 -55h-341l-36 -259h375zM364 864l62 -129h-50l-81 129h69z" />
    <glyph glyph-name="Eacute" unicode="&#xc9;" horiz-adv-x="543" 
d="M498 0h-433l95 674h426l-8 -54h-368l-35 -252h341l-8 -55h-341l-36 -259h375zM336 735l98 129h69l-117 -129h-50z" />
    <glyph glyph-name="Ecircumflex" unicode="&#xca;" horiz-adv-x="543" 
d="M498 0h-433l95 674h426l-8 -54h-368l-35 -252h341l-8 -55h-341l-36 -259h375zM358 864h69l75 -109h-48l-67 67l-86 -67h-48z" />
    <glyph glyph-name="Edieresis" unicode="&#xcb;" horiz-adv-x="543" 
d="M498 0h-433l95 674h426l-8 -54h-368l-35 -252h341l-8 -55h-341l-36 -259h375zM288 788l10 76h61l-10 -76h-61zM419 788l10 76h62l-10 -76h-62z" />
    <glyph glyph-name="Igrave" unicode="&#xcc;" horiz-adv-x="208" 
d="M75 0l95 674h58l-95 -674h-58zM179 864l62 -129h-50l-81 129h69z" />
    <glyph glyph-name="Iacute" unicode="&#xcd;" horiz-adv-x="208" 
d="M75 0l95 674h58l-95 -674h-58zM173 735l98 129h69l-117 -129h-50z" />
    <glyph glyph-name="Icircumflex" unicode="&#xce;" horiz-adv-x="208" 
d="M75 0l95 674h58l-95 -674h-58zM190 864h69l75 -109h-48l-67 67l-86 -67h-48z" />
    <glyph glyph-name="Idieresis" unicode="&#xcf;" horiz-adv-x="208" 
d="M75 0l95 674h58l-95 -674h-58zM119 788l10 76h61l-10 -76h-61zM250 788l10 76h62l-10 -76h-62z" />
    <glyph glyph-name="Eth" unicode="&#xd0;" horiz-adv-x="707" 
d="M210 674h231q139 0 214 -70.5t75 -207.5q0 -191 -102.5 -293.5t-281.5 -102.5h-231l43 303h-105l6 42h105zM181 54h177q64 0 119.5 19.5t100 59t70 105t25.5 151.5q0 119 -63.5 175t-174.5 56h-174l-39 -275h215l-6 -42h-215z" />
    <glyph glyph-name="Ntilde" unicode="&#xd1;" horiz-adv-x="652" 
d="M516 0l-307 610l-86 -610h-58l95 674h81l297 -607l86 607h58l-95 -674h-71zM394 856q19 0 49.5 -15t50.5 -15q18 0 28.5 8.5t17.5 29.5h37q-6 -37 -29.5 -60t-61.5 -23q-19 0 -47 15t-49 15q-38 0 -46 -35h-39q6 36 29 58t60 22z" />
    <glyph glyph-name="Ograve" unicode="&#xd2;" horiz-adv-x="715" 
d="M356 -13q-129 0 -201.5 77.5t-72.5 213.5q0 185 102.5 296t269.5 111q131 0 202.5 -76t71.5 -212q0 -186 -102 -298t-270 -112zM447 634q-94 0 -163.5 -50.5t-103 -128.5t-33.5 -171q0 -110 55 -178t161 -68q94 0 164 49t103.5 127t33.5 172q0 108 -55.5 178t-161.5 70z
M423 864l62 -129h-50l-81 129h69z" />
    <glyph glyph-name="Oacute" unicode="&#xd3;" horiz-adv-x="715" 
d="M356 -13q-129 0 -201.5 77.5t-72.5 213.5q0 185 102.5 296t269.5 111q131 0 202.5 -76t71.5 -212q0 -186 -102 -298t-270 -112zM447 634q-94 0 -163.5 -50.5t-103 -128.5t-33.5 -171q0 -110 55 -178t161 -68q94 0 164 49t103.5 127t33.5 172q0 108 -55.5 178t-161.5 70z
M427 735l98 129h69l-117 -129h-50z" />
    <glyph glyph-name="Ocircumflex" unicode="&#xd4;" horiz-adv-x="715" 
d="M356 -13q-129 0 -201.5 77.5t-72.5 213.5q0 185 102.5 296t269.5 111q131 0 202.5 -76t71.5 -212q0 -186 -102 -298t-270 -112zM447 634q-94 0 -163.5 -50.5t-103 -128.5t-33.5 -171q0 -110 55 -178t161 -68q94 0 164 49t103.5 127t33.5 172q0 108 -55.5 178t-161.5 70z
M444 864h69l75 -109h-48l-68 67l-85 -67h-48z" />
    <glyph glyph-name="Otilde" unicode="&#xd5;" horiz-adv-x="715" 
d="M356 -13q-129 0 -201.5 77.5t-72.5 213.5q0 185 102.5 296t269.5 111q131 0 202.5 -76t71.5 -212q0 -186 -102 -298t-270 -112zM447 634q-94 0 -163.5 -50.5t-103 -128.5t-33.5 -171q0 -110 55 -178t161 -68q94 0 164 49t103.5 127t33.5 172q0 108 -55.5 178t-161.5 70z
M425 856q19 0 49.5 -15t50.5 -15q18 0 28.5 8.5t17.5 29.5h37q-6 -37 -29.5 -60t-61.5 -23q-19 0 -47 15t-49 15q-38 0 -46 -35h-39q6 36 29 58t60 22z" />
    <glyph glyph-name="Odieresis" unicode="&#xd6;" horiz-adv-x="715" 
d="M356 -13q-129 0 -201.5 77.5t-72.5 213.5q0 185 102.5 296t269.5 111q131 0 202.5 -76t71.5 -212q0 -186 -102 -298t-270 -112zM447 634q-94 0 -163.5 -50.5t-103 -128.5t-33.5 -171q0 -110 55 -178t161 -68q94 0 164 49t103.5 127t33.5 172q0 108 -55.5 178t-161.5 70z
M372 788l10 76h61l-10 -76h-61zM503 788l10 76h62l-10 -76h-62z" />
    <glyph glyph-name="multiply" unicode="&#xd7;" horiz-adv-x="561" 
d="M57 124l233 203l-171 198l43 37l170 -198l224 197l32 -37l-223 -197l173 -202l-42 -37l-175 202l-231 -204z" />
    <glyph glyph-name="Oslash" unicode="&#xd8;" horiz-adv-x="724" 
d="M195 109h1l391 480q-56 45 -140 45q-94 0 -163.5 -50.5t-103 -129t-33.5 -172.5q0 -113 48 -173zM69 -45l86 105q-73 73 -73 217q0 186 102.5 297t270.5 111q102 0 172 -48l54 66h55l-77 -94q69 -72 69 -213q0 -185 -102 -297t-270 -112q-102 0 -168 45l-64 -77h-55z
M616 558l-391 -479q53 -41 139 -41q94 0 163.5 49t103 127t33.5 172q0 109 -48 172z" />
    <glyph glyph-name="Ugrave" unicode="&#xd9;" horiz-adv-x="673" 
d="M334 -13q-132 0 -192 68t-37 225l55 394h59l-55 -388q-17 -128 24.5 -189t152.5 -61q112 0 171.5 61t76.5 189l55 388h59l-55 -394q-23 -157 -102 -225t-212 -68zM410 864l62 -129h-50l-81 129h69z" />
    <glyph glyph-name="Uacute" unicode="&#xda;" horiz-adv-x="673" 
d="M334 -13q-132 0 -192 68t-37 225l55 394h59l-55 -388q-17 -128 24.5 -189t152.5 -61q112 0 171.5 61t76.5 189l55 388h59l-55 -394q-23 -157 -102 -225t-212 -68zM398 735l98 129h69l-117 -129h-50z" />
    <glyph glyph-name="Ucircumflex" unicode="&#xdb;" horiz-adv-x="673" 
d="M334 -13q-132 0 -192 68t-37 225l55 394h59l-55 -388q-17 -128 24.5 -189t152.5 -61q112 0 171.5 61t76.5 189l55 388h59l-55 -394q-23 -157 -102 -225t-212 -68zM424 864h69l74 -109h-45l-69 73l-90 -73h-45z" />
    <glyph glyph-name="Udieresis" unicode="&#xdc;" horiz-adv-x="673" 
d="M334 -13q-132 0 -192 68t-37 225l55 394h59l-55 -388q-17 -128 24.5 -189t152.5 -61q112 0 171.5 61t76.5 189l55 388h59l-55 -394q-23 -157 -102 -225t-212 -68zM351 788l11 76h61l-11 -76h-61zM482 788l11 76h62l-11 -76h-62z" />
    <glyph glyph-name="Yacute" unicode="&#xdd;" horiz-adv-x="598" 
d="M330 0h-62l33 236l-196 438h70l165 -382l271 382h72l-320 -438zM356 735l98 129h69l-117 -129h-50z" />
    <glyph glyph-name="Thorn" unicode="&#xde;" horiz-adv-x="535" 
d="M218 674l-24 -167q63 67 168 67q86 0 137 -51.5t51 -151.5q0 -143 -71.5 -219.5t-182.5 -76.5q-105 0 -156 56l-18 -131h-57l95 674h58zM339 526q-15 0 -36.5 -6t-46.5 -18t-46.5 -35t-28.5 -53l-22 -161q-5 -32 3.5 -56.5t23.5 -38t36.5 -22t40 -11t37.5 -2.5
q65 0 109 39t61 92.5t17 114.5q0 157 -148 157z" />
    <glyph glyph-name="germandbls" unicode="&#xdf;" horiz-adv-x="561" 
d="M299 0h-91l7 52h91q90 0 138.5 41.5t48.5 109.5q0 61 -40 97t-108 37l8 56q55 0 100 33t45 100q0 47 -33.5 78.5t-91.5 31.5q-74 0 -124 -49t-62 -129l-64 -458h-58l64 458q16 106 80 166.5t171 60.5q72 0 122.5 -36t50.5 -113q0 -56 -32.5 -103t-94.5 -64
q62 -9 92.5 -54.5t30.5 -104.5q0 -89 -61 -149.5t-189 -60.5z" />
    <glyph glyph-name="agrave" unicode="&#xe0;" horiz-adv-x="472" 
d="M291 674l62 -129h-50l-81 129h69zM417 0h-60l8 55q-54 -68 -167 -68q-65 0 -108 33t-43 92q0 95 87 138t267 52l6 43q0 34 -6 50q-22 51 -100 51q-83 0 -155 -32l-9 47q72 36 175 36q49 0 85 -15q83 -32 69 -134zM216 37q16 0 36.5 4t50.5 14.5t52 37t28 65.5l14 97
q-281 -14 -293 -122q-4 -45 27 -70.5t85 -25.5z" />
    <glyph glyph-name="aacute" unicode="&#xe1;" horiz-adv-x="472" 
d="M260 545l98 129h69l-117 -129h-50zM417 0h-60l8 55q-54 -68 -167 -68q-65 0 -108 33t-43 92q0 95 87 138t267 52l6 43q0 34 -6 50q-22 51 -100 51q-83 0 -155 -32l-9 47q72 36 175 36q49 0 85 -15q83 -32 69 -134zM216 37q16 0 36.5 4t50.5 14.5t52 37t28 65.5l14 97
q-281 -14 -293 -122q-4 -45 27 -70.5t85 -25.5z" />
    <glyph glyph-name="acircumflex" unicode="&#xe2;" horiz-adv-x="472" 
d="M303 674h69l75 -109h-48l-68 67l-85 -67h-48zM417 0h-60l8 55q-54 -68 -167 -68q-65 0 -108 33t-43 92q0 95 87 138t267 52l6 43q0 34 -6 50q-22 51 -100 51q-83 0 -155 -32l-9 47q72 36 175 36q49 0 85 -15q83 -32 69 -134zM216 37q16 0 36.5 4t50.5 14.5t52 37t28 65.5
l14 97q-281 -14 -293 -122q-4 -45 27 -70.5t85 -25.5z" />
    <glyph glyph-name="atilde" unicode="&#xe3;" horiz-adv-x="472" 
d="M274 666q19 0 49.5 -15t50.5 -15q18 0 27.5 8.5t18.5 29.5h37q-6 -37 -30 -60t-62 -23q-19 0 -46.5 15t-48.5 15q-38 0 -46 -35h-39q6 36 29 58t60 22zM417 0h-60l8 55q-54 -68 -167 -68q-65 0 -108 33t-43 92q0 95 87 138t267 52l6 43q0 34 -6 50q-22 51 -100 51
q-83 0 -155 -32l-9 47q72 36 175 36q49 0 85 -15q83 -32 69 -134zM216 37q16 0 36.5 4t50.5 14.5t52 37t28 65.5l14 97q-281 -14 -293 -122q-4 -45 27 -70.5t85 -25.5z" />
    <glyph glyph-name="adieresis" unicode="&#xe4;" horiz-adv-x="472" 
d="M219 598l11 76h61l-11 -76h-61zM350 598l11 76h62l-11 -76h-62zM417 0h-60l8 55q-54 -68 -167 -68q-65 0 -108 33t-43 92q0 95 87 138t267 52l6 43q0 34 -6 50q-22 51 -100 51q-83 0 -155 -32l-9 47q72 36 175 36q49 0 85 -15q83 -32 69 -134zM216 37q16 0 36.5 4
t50.5 14.5t52 37t28 65.5l14 97q-281 -14 -293 -122q-4 -45 27 -70.5t85 -25.5z" />
    <glyph glyph-name="aring" unicode="&#xe5;" horiz-adv-x="472" 
d="M251 645q0 40 24.5 69t71.5 29q72 0 72 -70q0 -43 -23.5 -71.5t-72.5 -28.5q-37 0 -54.5 20t-17.5 52zM289 650q0 -41 39 -41q28 0 40.5 17t12.5 41q0 39 -39 39q-27 0 -40 -16t-13 -40zM417 0h-60l8 55q-54 -68 -167 -68q-65 0 -108 33t-43 92q0 95 87 138t267 52l6 43
q0 34 -6 50q-22 51 -100 51q-83 0 -155 -32l-9 47q72 36 175 36q49 0 85 -15q83 -32 69 -134zM216 37q16 0 36.5 4t50.5 14.5t52 37t28 65.5l14 97q-281 -14 -293 -122q-4 -45 27 -70.5t85 -25.5z" />
    <glyph glyph-name="ae" unicode="&#xe6;" horiz-adv-x="839" 
d="M598 -13q-68 0 -116 33.5t-69 89.5q-13 -35 -35.5 -60t-43.5 -37t-51.5 -18t-46.5 -7t-42 -1q-62 0 -103 32.5t-41 91.5q0 181 347 173l9 61q0 92 -86 104q-12 1 -24 1q-76 0 -145 -30q-2 8 -13 41q7 4 24 11t59 16.5t85 9.5q38 2 70 -9q72 -22 87 -81q79 90 186 90
q88 0 141.5 -52.5t53.5 -147.5q0 -45 -8 -66h-388l-1 -8q-10 -78 36.5 -131.5t130.5 -53.5q73 0 141 25l13 -44q-70 -33 -170 -33zM212 37q16 0 36.5 4t50 14.5t51 37t26.5 65.5l10 78q-270 -5 -281 -103q-4 -45 25.5 -70.5t81.5 -25.5zM642 447q-67 0 -121.5 -48.5
t-64.5 -117.5h329q11 85 -29.5 125.5t-113.5 40.5z" />
    <glyph glyph-name="ccedilla" unicode="&#xe7;" horiz-adv-x="438" 
d="M65 199q0 136 76 217t204 81q84 0 130 -21l-19 -47q-46 16 -110 16q-63 0 -108 -22t-68 -59t-33 -77t-10 -85q0 -73 38 -118.5t123 -45.5q63 0 116 17q1 -9 2 -24t3 -23q-41 -16 -119 -22q16 -30 22 -60q6 -55 -28.5 -93t-95.5 -32q-33 4 -74 23l6 40l39 -12
q66 -20 92.5 23t-11.5 113q-84 8 -129.5 63t-45.5 148z" />
    <glyph glyph-name="egrave" unicode="&#xe8;" horiz-adv-x="520" 
d="M270 -13q-91 0 -147.5 58t-56.5 158q0 123 78.5 208.5t185.5 85.5q87 0 140.5 -56.5t53.5 -152.5q0 -43 -9 -67h-387q-12 -80 34.5 -131t132.5 -51q73 0 141 25l13 -44q-70 -33 -179 -33zM323 446q-66 0 -121.5 -53t-65.5 -123h328q11 86 -29.5 131t-111.5 45zM313 674
l62 -129h-50l-81 129h69z" />
    <glyph glyph-name="eacute" unicode="&#xe9;" horiz-adv-x="520" 
d="M270 -13q-91 0 -147.5 58t-56.5 158q0 123 78.5 208.5t185.5 85.5q87 0 140.5 -56.5t53.5 -152.5q0 -43 -9 -67h-387q-12 -80 34.5 -131t132.5 -51q73 0 141 25l13 -44q-70 -33 -179 -33zM323 446q-66 0 -121.5 -53t-65.5 -123h328q11 86 -29.5 131t-111.5 45zM303 545
l98 129h69l-117 -129h-50z" />
    <glyph glyph-name="ecircumflex" unicode="&#xea;" horiz-adv-x="520" 
d="M270 -13q-91 0 -147.5 58t-56.5 158q0 123 78.5 208.5t185.5 85.5q87 0 140.5 -56.5t53.5 -152.5q0 -43 -9 -67h-387q-12 -80 34.5 -131t132.5 -51q73 0 141 25l13 -44q-70 -33 -179 -33zM323 446q-66 0 -121.5 -53t-65.5 -123h328q11 86 -29.5 131t-111.5 45zM320 674
h69l75 -109h-48l-68 67l-85 -67h-48z" />
    <glyph glyph-name="edieresis" unicode="&#xeb;" horiz-adv-x="520" 
d="M270 -13q-91 0 -147.5 58t-56.5 158q0 123 78.5 208.5t185.5 85.5q87 0 140.5 -56.5t53.5 -152.5q0 -43 -9 -67h-387q-12 -80 34.5 -131t132.5 -51q73 0 141 25l13 -44q-70 -33 -179 -33zM323 446q-66 0 -121.5 -53t-65.5 -123h328q11 86 -29.5 131t-111.5 45zM247 598
l11 76h61l-11 -76h-61zM378 598l11 76h62l-11 -76h-62z" />
    <glyph glyph-name="igrave" unicode="&#xec;" horiz-adv-x="173" 
d="M60 0l68 484h53l-68 -484h-53zM131 674l62 -129h-50l-81 129h69z" />
    <glyph glyph-name="iacute" unicode="&#xed;" horiz-adv-x="173" 
d="M60 0l68 484h53l-68 -484h-53zM137 545l98 129h69l-117 -129h-50z" />
    <glyph glyph-name="icircumflex" unicode="&#xee;" horiz-adv-x="173" 
d="M60 0l68 484h53l-68 -484h-53zM146 674h69l75 -109h-48l-68 67l-85 -67h-48z" />
    <glyph glyph-name="idieresis" unicode="&#xef;" horiz-adv-x="173" 
d="M60 0l68 484h53l-68 -484h-53zM74 598l11 76h61l-11 -76h-61zM205 598l11 76h62l-11 -76h-62z" />
    <glyph glyph-name="eth" unicode="&#xf0;" horiz-adv-x="520" 
d="M330 498q52 0 98 -29q-26 48 -66 89t-74 58l-87 -78l-28 27l86 77q-19 13 -85 48q22 18 46 39q51 -29 81 -50l76 67l28 -26l-75 -66q225 -181 194 -411q-18 -120 -88.5 -188t-177.5 -68q-94 0 -146 56t-52 156q0 136 74 217.5t196 81.5zM469 273q0 74 -38 125.5
t-108 51.5q-91 0 -147.5 -73t-56.5 -166q0 -74 38 -125t108 -51q89 0 146.5 73t57.5 165z" />
    <glyph glyph-name="ntilde" unicode="&#xf1;" horiz-adv-x="531" 
d="M511 286l-40 -286h-59l40 286q23 161 -107 161q-20 0 -44.5 -6t-55.5 -21.5t-54.5 -49.5t-30.5 -81l-41 -289h-59l68 484h52l-11 -79q64 92 175 92q95 0 139.5 -48t27.5 -163zM307 666q20 0 49 -15t50 -15q32 0 47 38h37q-7 -37 -31 -60t-61 -23q-19 0 -47 15t-49 15
q-36 0 -46 -35h-39q6 36 29.5 58t60.5 22z" />
    <glyph glyph-name="ograve" unicode="&#xf2;" horiz-adv-x="510" 
d="M55 198q0 136 74 217.5t196 81.5q94 0 146 -56t52 -155q0 -137 -74 -218.5t-196 -81.5q-94 0 -146 56t-52 156zM464 272q0 74 -38 125.5t-108 51.5q-91 0 -147.5 -73t-56.5 -166q0 -74 38 -125t108 -51q89 0 146.5 73t57.5 165zM302 674l62 -129h-50l-81 129h69z" />
    <glyph glyph-name="oacute" unicode="&#xf3;" horiz-adv-x="510" 
d="M55 198q0 136 74 217.5t196 81.5q94 0 146 -56t52 -155q0 -137 -74 -218.5t-196 -81.5q-94 0 -146 56t-52 156zM464 272q0 74 -38 125.5t-108 51.5q-91 0 -147.5 -73t-56.5 -166q0 -74 38 -125t108 -51q89 0 146.5 73t57.5 165zM295 545l98 129h69l-117 -129h-50z" />
    <glyph glyph-name="ocircumflex" unicode="&#xf4;" horiz-adv-x="510" 
d="M55 198q0 136 74 217.5t196 81.5q94 0 146 -56t52 -155q0 -137 -74 -218.5t-196 -81.5q-94 0 -146 56t-52 156zM464 272q0 74 -38 125.5t-108 51.5q-91 0 -147.5 -73t-56.5 -166q0 -74 38 -125t108 -51q89 0 146.5 73t57.5 165zM315 674h69l74 -109h-48l-67 67l-86 -67
h-48z" />
    <glyph glyph-name="otilde" unicode="&#xf5;" horiz-adv-x="510" 
d="M55 198q0 136 74 217.5t196 81.5q94 0 146 -56t52 -155q0 -137 -74 -218.5t-196 -81.5q-94 0 -146 56t-52 156zM464 272q0 74 -38 125.5t-108 51.5q-91 0 -147.5 -73t-56.5 -166q0 -74 38 -125t108 -51q89 0 146.5 73t57.5 165zM297 666q20 0 49 -15t50 -15q32 0 47 38
h37q-7 -37 -31 -60t-61 -23q-19 0 -47 15t-49 15q-36 0 -46 -35h-39q6 36 29.5 58t60.5 22z" />
    <glyph glyph-name="odieresis" unicode="&#xf6;" horiz-adv-x="510" 
d="M55 198q0 136 74 217.5t196 81.5q94 0 146 -56t52 -155q0 -137 -74 -218.5t-196 -81.5q-94 0 -146 56t-52 156zM464 272q0 74 -38 125.5t-108 51.5q-91 0 -147.5 -73t-56.5 -166q0 -74 38 -125t108 -51q89 0 146.5 73t57.5 165zM242 598l11 76h61l-11 -76h-61zM373 598
l11 76h62l-11 -76h-62z" />
    <glyph glyph-name="divide" unicode="&#xf7;" horiz-adv-x="520" 
d="M236 69l12 88h68l-12 -88h-68zM292 468l12 85h68l-12 -85h-68zM87 336h440l-7 -52h-440z" />
    <glyph glyph-name="oslash" unicode="&#xf8;" horiz-adv-x="537" 
d="M455 397l-267 -326q39 -37 99 -37q89 0 146.5 73t57.5 165q0 78 -36 125zM559 526l-64 -80q55 -53 55 -160q0 -137 -74 -218.5t-196 -81.5q-80 0 -130 39l-57 -68h-55l82 98q-38 50 -38 142q0 137 74 218.5t196 81.5q63 0 107 -25l46 54h54zM162 106l262 320
q-32 23 -79 23q-91 0 -147.5 -73t-56.5 -167q0 -64 21 -103z" />
    <glyph glyph-name="ugrave" unicode="&#xf9;" horiz-adv-x="531" 
d="M87 198l41 286h59l-41 -286q-11 -78 13.5 -120t104.5 -42q16 0 35 3.5t51 15.5t56 44t31 80l43 305h59l-68 -484h-52l9 64q-21 -33 -65.5 -52.5t-68 -22t-39.5 -2.5q-96 0 -139.5 48.5t-28.5 162.5zM354 674l62 -129h-50l-81 129h69z" />
    <glyph glyph-name="uacute" unicode="&#xfa;" horiz-adv-x="531" 
d="M87 198l41 286h59l-41 -286q-11 -78 13.5 -120t104.5 -42q16 0 35 3.5t51 15.5t56 44t31 80l43 305h59l-68 -484h-52l9 64q-21 -33 -65.5 -52.5t-68 -22t-39.5 -2.5q-96 0 -139.5 48.5t-28.5 162.5zM267 545l98 129h69l-117 -129h-50z" />
    <glyph glyph-name="ucircumflex" unicode="&#xfb;" horiz-adv-x="531" 
d="M87 198l41 286h59l-41 -286q-11 -78 13.5 -120t104.5 -42q16 0 35 3.5t51 15.5t56 44t31 80l43 305h59l-68 -484h-52l9 64q-21 -33 -65.5 -52.5t-68 -22t-39.5 -2.5q-96 0 -139.5 48.5t-28.5 162.5zM325 674h69l75 -109h-48l-68 67l-85 -67h-48z" />
    <glyph glyph-name="udieresis" unicode="&#xfc;" horiz-adv-x="531" 
d="M87 198l41 286h59l-41 -286q-11 -78 13.5 -120t104.5 -42q16 0 35 3.5t51 15.5t56 44t31 80l43 305h59l-68 -484h-52l9 64q-21 -33 -65.5 -52.5t-68 -22t-39.5 -2.5q-96 0 -139.5 48.5t-28.5 162.5zM253 598l10 76h61l-10 -76h-61zM384 598l10 76h62l-10 -76h-62z" />
    <glyph glyph-name="yacute" unicode="&#xfd;" horiz-adv-x="512" 
d="M289 545l98 129h69l-117 -129h-50zM52 -203l10 45q38 -7 65.5 2.5t51.5 48.5l50 90l-151 501h62l126 -434l242 434h62l-352 -621q-24 -42 -59.5 -57.5t-64.5 -15.5q-19 0 -42 7z" />
    <glyph glyph-name="thorn" unicode="&#xfe;" horiz-adv-x="535" 
d="M218 674l-34 -242q63 67 167 67q87 0 138 -51.5t51 -151.5q0 -143 -74 -226t-183 -83q-107 0 -155 55l-34 -243h-57l123 875h58zM329 451q-15 0 -36.5 -6t-46.5 -18t-46.5 -35t-28.5 -53l-25 -175q-5 -32 3.5 -56t23.5 -37.5t36.5 -22t40.5 -11t38 -2.5q49 0 87 24.5
t59 64t31.5 83t10.5 87.5q0 157 -147 157z" />
    <glyph glyph-name="ydieresis" unicode="&#xff;" horiz-adv-x="512" 
d="M243 598l10 76h61l-10 -76h-61zM374 598l10 76h62l-10 -76h-62zM52 -203l10 45q38 -7 65.5 2.5t51.5 48.5l50 90l-151 501h62l126 -434l242 434h62l-352 -621q-24 -42 -59.5 -57.5t-64.5 -15.5q-19 0 -42 7z" />
    <glyph glyph-name="Amacron" unicode="&#x100;" horiz-adv-x="650" 
d="M71 0h-61l375 674h70l185 -674h-61l-44 164h-375zM412 620l-224 -402h335zM333 840h220l-8 -54h-220z" />
    <glyph glyph-name="amacron" unicode="&#x101;" horiz-adv-x="472" 
d="M214 650h220l-8 -54h-220zM417 0h-60l8 55q-54 -68 -167 -68q-65 0 -108 33t-43 92q0 95 87 138t267 52l6 43q0 34 -6 50q-22 51 -100 51q-83 0 -155 -32l-9 47q72 36 175 36q49 0 85 -15q83 -32 69 -134zM216 37q16 0 36.5 4t50.5 14.5t52 37t28 65.5l14 97
q-281 -14 -293 -122q-4 -45 27 -70.5t85 -25.5z" />
    <glyph glyph-name="Abreve" unicode="&#x102;" horiz-adv-x="650" 
d="M71 0h-61l375 674h70l185 -674h-61l-44 164h-375zM412 620l-224 -402h335zM428 728q-65 0 -94 38t-20 98h45q-5 -87 75 -87q82 0 99 87h44q-9 -60 -47 -98t-102 -38z" />
    <glyph glyph-name="abreve" unicode="&#x103;" horiz-adv-x="472" 
d="M318 538q-65 0 -94 38t-20 98h45q-6 -87 75 -87q80 0 99 87h44q-9 -60 -47 -98t-102 -38zM417 0h-60l8 55q-54 -68 -167 -68q-65 0 -108 33t-43 92q0 95 87 138t267 52l6 43q0 34 -6 50q-22 51 -100 51q-83 0 -155 -32l-9 47q72 36 175 36q49 0 85 -15q83 -32 69 -134z
M216 37q16 0 36.5 4t50.5 14.5t52 37t28 65.5l14 97q-281 -14 -293 -122q-4 -45 27 -70.5t85 -25.5z" />
    <glyph glyph-name="Aogonek" unicode="&#x104;" horiz-adv-x="650" 
d="M71 0h-61l375 674h70l185 -674h-20q-43 -48 -52 -88.5t16 -57.5t74 -2l43 12l-6 -40q-42 -19 -80 -23q-63 -6 -86.5 32t-2.5 93q11 29 52 76l-43 162h-375zM412 620l-224 -402h335z" />
    <glyph glyph-name="aogonek" unicode="&#x105;" horiz-adv-x="480" 
d="M425 0h-17q-42 -48 -51 -88.5t16 -57.5t74 -2l42 12l-5 -40q-45 -19 -81 -23q-63 -6 -87 32t-1 93q12 31 50 74l8 55q-53 -68 -169 -68q-65 0 -108 33t-43 92q0 95 88 138t268 52l6 43q0 34 -6 50q-22 51 -100 51q-83 0 -155 -32l-9 47q72 36 175 36q49 0 85 -15
q83 -32 69 -134zM222 37q16 0 37 4t51 14.5t52.5 37t28.5 65.5l14 97q-283 -14 -295 -122q-4 -45 27 -70.5t85 -25.5z" />
    <glyph glyph-name="Cacute" unicode="&#x106;" horiz-adv-x="588" 
d="M83 287q0 165 108.5 281.5t275.5 116.5q122 0 183 -29q-5 -10 -13.5 -25t-11.5 -20q-68 19 -141 19q-70 0 -128 -20.5t-96.5 -54t-65 -78t-38 -90.5t-11.5 -94q0 -49 14 -92t43 -80t80 -58t119 -21q81 0 149 19q2 -11 5.5 -25.5t4.5 -19.5q-70 -29 -191 -29
q-133 0 -209.5 85t-76.5 215zM440 735l98 129h69l-117 -129h-50z" />
    <glyph glyph-name="cacute" unicode="&#x107;" horiz-adv-x="438" 
d="M65 199q0 136 76 217t204 81q84 0 130 -21l-19 -47q-46 16 -110 16q-63 0 -108 -22t-68 -59t-33 -77t-10 -85q0 -73 38 -118.5t123 -45.5q63 0 116 17q1 -9 2 -24t3 -23q-54 -22 -136 -22q-99 0 -153.5 56.5t-54.5 156.5zM276 545l98 129h69l-117 -129h-50z" />
    <glyph glyph-name="Ccircumflex" unicode="&#x108;" horiz-adv-x="588" 
d="M83 287q0 165 108.5 281.5t275.5 116.5q122 0 183 -29q-5 -10 -13.5 -25t-11.5 -20q-68 19 -141 19q-70 0 -128 -20.5t-96.5 -54t-65 -78t-38 -90.5t-11.5 -94q0 -49 14 -92t43 -80t80 -58t119 -21q81 0 149 19q2 -11 5.5 -25.5t4.5 -19.5q-70 -29 -191 -29
q-133 0 -209.5 85t-76.5 215zM455 864h69l75 -109h-48l-67 67l-86 -67h-48z" />
    <glyph glyph-name="ccircumflex" unicode="&#x109;" horiz-adv-x="438" 
d="M65 199q0 136 76 217t204 81q84 0 130 -21l-19 -47q-46 16 -110 16q-63 0 -108 -22t-68 -59t-33 -77t-10 -85q0 -73 38 -118.5t123 -45.5q63 0 116 17q1 -9 2 -24t3 -23q-54 -22 -136 -22q-99 0 -153.5 56.5t-54.5 156.5zM311 674h69l74 -109h-48l-67 67l-86 -67h-48z
" />
    <glyph glyph-name="Cdotaccent" unicode="&#x10a;" horiz-adv-x="588" 
d="M83 287q0 165 108.5 281.5t275.5 116.5q122 0 183 -29q-5 -10 -13.5 -25t-11.5 -20q-68 19 -141 19q-70 0 -128 -20.5t-96.5 -54t-65 -78t-38 -90.5t-11.5 -94q0 -49 14 -92t43 -80t80 -58t119 -21q81 0 149 19q2 -11 5.5 -25.5t4.5 -19.5q-70 -29 -191 -29
q-133 0 -209.5 85t-76.5 215zM449 778l12 86h61l-12 -86h-61z" />
    <glyph glyph-name="cdotaccent" unicode="&#x10b;" horiz-adv-x="438" 
d="M65 199q0 136 76 217t204 81q84 0 130 -21l-19 -47q-46 16 -110 16q-63 0 -108 -22t-68 -59t-33 -77t-10 -85q0 -73 38 -118.5t123 -45.5q63 0 116 17q1 -9 2 -24t3 -23q-54 -22 -136 -22q-99 0 -153.5 56.5t-54.5 156.5zM325 588l12 86h61l-12 -86h-61z" />
    <glyph glyph-name="Ccaron" unicode="&#x10c;" horiz-adv-x="588" 
d="M83 287q0 165 108.5 281.5t275.5 116.5q122 0 183 -29q-5 -10 -13.5 -25t-11.5 -20q-68 19 -141 19q-70 0 -128 -20.5t-96.5 -54t-65 -78t-38 -90.5t-11.5 -94q0 -49 14 -92t43 -80t80 -58t119 -21q81 0 149 19q2 -11 5.5 -25.5t4.5 -19.5q-70 -29 -191 -29
q-133 0 -209.5 85t-76.5 215zM507 755h-69l-75 109h48l68 -67l85 67h48z" />
    <glyph glyph-name="ccaron" unicode="&#x10d;" horiz-adv-x="438" 
d="M65 199q0 136 76 217t204 81q84 0 130 -21l-19 -47q-46 16 -110 16q-63 0 -108 -22t-68 -59t-33 -77t-10 -85q0 -73 38 -118.5t123 -45.5q63 0 116 17q1 -9 2 -24t3 -23q-54 -22 -136 -22q-99 0 -153.5 56.5t-54.5 156.5zM366 565h-69l-74 109h48l67 -67l86 67h48z" />
    <glyph glyph-name="Dcaron" unicode="&#x10e;" horiz-adv-x="657" 
d="M297 0h-232l95 674h232q139 0 213.5 -70t74.5 -207q0 -191 -102.5 -294t-280.5 -103zM132 54h177q134 0 223.5 84t89.5 251q0 119 -63 175t-174 56h-174zM469 755h-69l-75 109h48l68 -67l85 67h48z" />
    <glyph glyph-name="dcaron" unicode="&#x10f;" horiz-adv-x="612" 
d="M467 421l36 253h59l-95 -674h-58l8 55q-80 -68 -177 -68q-90 0 -137.5 57t-47.5 152q0 131 69 216t193 85q45 0 89 -17t61 -59zM326 447q-58 0 -101 -24t-65.5 -63t-32.5 -79.5t-10 -82.5q0 -66 30 -113t103 -47q25 0 50 5t54.5 18t50.5 41t27 67l22 159q6 39 -20.5 68
t-56.5 40t-51 11zM579 507l112 167h70l-136 -167h-46z" />
    <glyph glyph-name="Dcroat" unicode="&#x110;" horiz-adv-x="747" 
d="M240 674h231q139 0 214 -70.5t75 -207.5q0 -191 -102.5 -293.5t-281.5 -102.5h-231l43 303h-105l6 42h105zM211 54h177q64 0 119.5 19.5t100 59t70 105t25.5 151.5q0 119 -63.5 175t-174.5 56h-174l-39 -275h215l-6 -42h-215z" />
    <glyph glyph-name="dcroat" unicode="&#x111;" horiz-adv-x="527" 
d="M326 447q-58 0 -101 -24t-65.5 -63t-32.5 -79.5t-10 -82.5q0 -66 30 -113t103 -47q25 0 50 5t54.5 18t50.5 41t27 67l22 159q6 39 -20.5 68t-56.5 40t-51 11zM548 575l-81 -575h-58l8 55q-80 -68 -177 -68q-90 0 -137.5 57t-47.5 152q0 131 69 216t193 85q45 0 89 -17
t61 -59l22 154h-169l6 43h169l8 56h59l-8 -56h55l-6 -43h-55z" />
    <glyph glyph-name="Emacron" unicode="&#x112;" horiz-adv-x="543" 
d="M498 0h-433l95 674h426l-8 -54h-368l-35 -252h341l-8 -55h-341l-36 -259h375zM279 840h220l-8 -54h-220z" />
    <glyph glyph-name="emacron" unicode="&#x113;" horiz-adv-x="520" 
d="M270 -13q-91 0 -147.5 58t-56.5 158q0 123 78.5 208.5t185.5 85.5q87 0 140.5 -56.5t53.5 -152.5q0 -43 -9 -67h-387q-12 -80 34.5 -131t132.5 -51q73 0 141 25l13 -44q-70 -33 -179 -33zM323 446q-66 0 -121.5 -53t-65.5 -123h328q11 86 -29.5 131t-111.5 45zM242 650
h220l-8 -54h-220z" />
    <glyph glyph-name="Ebreve" unicode="&#x114;" horiz-adv-x="543" 
d="M498 0h-433l95 674h426l-8 -54h-368l-35 -252h341l-8 -55h-341l-36 -259h375zM375 728q-65 0 -94 38t-20 98h45q-5 -87 75 -87q82 0 99 87h44q-9 -60 -47 -98t-102 -38z" />
    <glyph glyph-name="ebreve" unicode="&#x115;" horiz-adv-x="520" 
d="M270 -13q-91 0 -147.5 58t-56.5 158q0 123 78.5 208.5t185.5 85.5q87 0 140.5 -56.5t53.5 -152.5q0 -43 -9 -67h-387q-12 -80 34.5 -131t132.5 -51q73 0 141 25l13 -44q-70 -33 -179 -33zM323 446q-66 0 -121.5 -53t-65.5 -123h328q11 86 -29.5 131t-111.5 45zM337 538
q-65 0 -94 38t-20 98h45q-6 -87 75 -87q80 0 99 87h44q-9 -60 -47 -98t-102 -38z" />
    <glyph glyph-name="Edotaccent" unicode="&#x116;" horiz-adv-x="543" 
d="M498 0h-433l95 674h426l-8 -54h-368l-35 -252h341l-8 -55h-341l-36 -259h375zM367 778l12 86h61l-12 -86h-61z" />
    <glyph glyph-name="edotaccent" unicode="&#x117;" horiz-adv-x="520" 
d="M270 -13q-91 0 -147.5 58t-56.5 158q0 123 78.5 208.5t185.5 85.5q87 0 140.5 -56.5t53.5 -152.5q0 -43 -9 -67h-387q-12 -80 34.5 -131t132.5 -51q73 0 141 25l13 -44q-70 -33 -179 -33zM323 446q-66 0 -121.5 -53t-65.5 -123h328q11 86 -29.5 131t-111.5 45zM312 588
l12 86h61l-12 -86h-61z" />
    <glyph glyph-name="Eogonek" unicode="&#x118;" horiz-adv-x="543" 
d="M506 54l-8 -54q-71 -66 -63 -116q7 -38 55 -38q17 0 38 6l43 12l-6 -40q-42 -19 -80 -23q-63 -6 -87.5 32.5t-1.5 92.5q11 28 51 74h-382l95 674h426l-8 -54h-368l-35 -252h341l-8 -55h-341l-36 -259h375z" />
    <glyph glyph-name="eogonek" unicode="&#x119;" horiz-adv-x="520" 
d="M436 64l13 -44q-82 -88 -71 -141q9 -42 70 -31q9 1 18 4l42 12l-5 -40q-45 -19 -81 -23q-63 -6 -87 32t-1 93q11 27 49 73q-55 -12 -113 -12q-91 0 -147.5 58t-56.5 158q0 123 78.5 208.5t185.5 85.5q87 0 140.5 -56.5t53.5 -152.5q0 -43 -9 -67h-387q-12 -80 34.5 -131
t132.5 -51q73 0 141 25zM323 446q-66 0 -121.5 -53t-65.5 -123h328q11 86 -29.5 131t-111.5 45z" />
    <glyph glyph-name="Ecaron" unicode="&#x11a;" horiz-adv-x="543" 
d="M498 0h-433l95 674h426l-8 -54h-368l-35 -252h341l-8 -55h-341l-36 -259h375zM412 755h-69l-75 109h48l68 -67l85 67h48z" />
    <glyph glyph-name="ecaron" unicode="&#x11b;" horiz-adv-x="520" 
d="M270 -13q-91 0 -147.5 58t-56.5 158q0 123 78.5 208.5t185.5 85.5q87 0 140.5 -56.5t53.5 -152.5q0 -43 -9 -67h-387q-12 -80 34.5 -131t132.5 -51q73 0 141 25l13 -44q-70 -33 -179 -33zM323 446q-66 0 -121.5 -53t-65.5 -123h328q11 86 -29.5 131t-111.5 45zM374 565
h-69l-75 109h48l68 -67l85 67h48z" />
    <glyph glyph-name="Gcircumflex" unicode="&#x11c;" horiz-adv-x="670" 
d="M614 291h-147l8 55h197l-44 -317q-84 -40 -230 -40q-147 0 -231 85.5t-84 217.5q0 163 116.5 278t296.5 115q123 0 196 -46l-31 -48q-29 20 -73 30t-75 10q-74 0 -136 -19.5t-104 -52.5t-71.5 -76t-43 -88.5t-13.5 -92.5q0 -106 70 -182t203 -76q86 0 166 27zM491 864h69
l75 -109h-48l-68 67l-85 -67h-48z" />
    <glyph glyph-name="gcircumflex" unicode="&#x11d;" horiz-adv-x="537" 
d="M280 38q15 0 37 5t49 15.5t47.5 33.5t25.5 53l24 176q5 32 -3.5 56t-24 37t-38 21t-41 10t-38.5 2q-66 0 -110.5 -40t-61.5 -93.5t-17 -115.5q0 -160 151 -160zM413 -42l14 97q-65 -68 -163 -68q-93 0 -146 52.5t-53 155.5q0 146 72.5 224t185.5 78q17 0 36 -1.5t60 -18
t61 -46.5l7 53h58l-76 -542q-11 -81 -77.5 -116.5t-155.5 -35.5q-113 0 -162 32l21 48q59 -30 141 -30q45 0 77.5 8t49.5 18t28.5 28.5t15 31t6.5 32.5zM329 674h69l75 -109h-48l-68 67l-85 -67h-48z" />
    <glyph glyph-name="Gbreve" unicode="&#x11e;" horiz-adv-x="670" 
d="M614 291h-147l8 55h197l-44 -317q-84 -40 -230 -40q-147 0 -231 85.5t-84 217.5q0 163 116.5 278t296.5 115q123 0 196 -46l-31 -48q-29 20 -73 30t-75 10q-74 0 -136 -19.5t-104 -52.5t-71.5 -76t-43 -88.5t-13.5 -92.5q0 -106 70 -182t203 -76q86 0 166 27zM487 728
q-65 0 -94 38t-20 98h45q-6 -87 75 -87q80 0 99 87h44q-9 -60 -47.5 -98t-101.5 -38z" />
    <glyph glyph-name="gbreve" unicode="&#x11f;" horiz-adv-x="537" 
d="M280 38q15 0 37 5t49 15.5t47.5 33.5t25.5 53l24 176q5 32 -3.5 56t-24 37t-38 21t-41 10t-38.5 2q-66 0 -110.5 -40t-61.5 -93.5t-17 -115.5q0 -160 151 -160zM413 -42l14 97q-65 -68 -163 -68q-93 0 -146 52.5t-53 155.5q0 146 72.5 224t185.5 78q17 0 36 -1.5t60 -18
t61 -46.5l7 53h58l-76 -542q-11 -81 -77.5 -116.5t-155.5 -35.5q-113 0 -162 32l21 48q59 -30 141 -30q45 0 77.5 8t49.5 18t28.5 28.5t15 31t6.5 32.5zM346 538q-65 0 -94 38t-20 98h45q-6 -87 75 -87q80 0 99 87h44q-9 -60 -47.5 -98t-101.5 -38z" />
    <glyph glyph-name="Gdotaccent" unicode="&#x120;" horiz-adv-x="670" 
d="M614 291h-147l8 55h197l-44 -317q-84 -40 -230 -40q-147 0 -231 85.5t-84 217.5q0 163 116.5 278t296.5 115q123 0 196 -46l-31 -48q-29 20 -73 30t-75 10q-74 0 -136 -19.5t-104 -52.5t-71.5 -76t-43 -88.5t-13.5 -92.5q0 -106 70 -182t203 -76q86 0 166 27zM465 778
l12 86h61l-12 -86h-61z" />
    <glyph glyph-name="gdotaccent" unicode="&#x121;" horiz-adv-x="537" 
d="M280 38q15 0 37 5t49 15.5t47.5 33.5t25.5 53l24 176q5 32 -3.5 56t-24 37t-38 21t-41 10t-38.5 2q-66 0 -110.5 -40t-61.5 -93.5t-17 -115.5q0 -160 151 -160zM413 -42l14 97q-65 -68 -163 -68q-93 0 -146 52.5t-53 155.5q0 146 72.5 224t185.5 78q17 0 36 -1.5t60 -18
t61 -46.5l7 53h58l-76 -542q-11 -81 -77.5 -116.5t-155.5 -35.5q-113 0 -162 32l21 48q59 -30 141 -30q45 0 77.5 8t49.5 18t28.5 28.5t15 31t6.5 32.5zM321 588l12 86h61l-12 -86h-61z" />
    <glyph glyph-name="Gcommaaccent" unicode="&#x122;" horiz-adv-x="670" 
d="M614 291h-147l8 55h197l-44 -317q-84 -40 -230 -40q-147 0 -231 85.5t-84 217.5q0 163 116.5 278t296.5 115q123 0 196 -46l-31 -48q-29 20 -73 30t-75 10q-74 0 -136 -19.5t-104 -52.5t-71.5 -76t-43 -88.5t-13.5 -92.5q0 -106 70 -182t203 -76q86 0 166 27zM250 -198
l95 153h72l-112 -153h-55z" />
    <glyph glyph-name="gcommaaccent" unicode="&#x123;" horiz-adv-x="537" 
d="M280 38q15 0 37 5t49 15.5t47.5 33.5t25.5 53l24 176q5 32 -3.5 56t-24 37t-38 21t-41 10t-38.5 2q-66 0 -110.5 -40t-61.5 -93.5t-17 -115.5q0 -160 151 -160zM413 -42l14 97q-65 -68 -163 -68q-93 0 -146 52.5t-53 155.5q0 146 72.5 224t185.5 78q17 0 36 -1.5t60 -18
t61 -46.5l7 53h58l-76 -542q-11 -81 -77.5 -116.5t-155.5 -35.5q-113 0 -162 32l21 48q59 -30 141 -30q45 0 77.5 8t49.5 18t28.5 28.5t15 31t6.5 32.5zM454 673l-98 -129h-69l117 129h50z" />
    <glyph glyph-name="Hcircumflex" unicode="&#x124;" horiz-adv-x="644" 
d="M567 327h-398l-46 -327h-58l95 674h58l-41 -292h398l41 292h58l-95 -674h-58zM408 864h69l75 -109h-48l-67 67l-86 -67h-48z" />
    <glyph glyph-name="hcircumflex" unicode="&#x125;" horiz-adv-x="531" 
d="M511 288l-40 -288h-59l40 288q23 159 -107 159q-21 0 -45 -5.5t-55.5 -20.5t-54.5 -48.5t-30 -81.5l-41 -291h-59l95 674h59l-37 -260q29 37 68 57t62.5 23t57.5 3q175 0 146 -209zM174 848h69l75 -109h-48l-68 67l-85 -67h-48z" />
    <glyph glyph-name="Hbar" unicode="&#x126;" horiz-adv-x="644" 
d="M567 327h-398l-46 -327h-58l95 674h58l-41 -292h398l41 292h58l-95 -674h-58zM330 840h220l-8 -54h-220z" />
    <glyph glyph-name="hbar" unicode="&#x127;" horiz-adv-x="531" 
d="M98 618h49l8 56h59l-8 -56h155l-6 -43h-155l-23 -161q29 37 68 57t62.5 23t57.5 3q82 0 121.5 -50.5t24.5 -158.5l-40 -288h-59l40 288q23 159 -107 159q-21 0 -45 -5.5t-55.5 -20.5t-54.5 -48.5t-30 -81.5l-41 -291h-59l81 575h-49z" />
    <glyph glyph-name="Itilde" unicode="&#x128;" horiz-adv-x="208" 
d="M75 0l95 674h58l-95 -674h-58zM172 856q19 0 49.5 -15t50.5 -15q18 0 28.5 8.5t17.5 29.5h37q-6 -37 -29.5 -60t-61.5 -23q-19 0 -47 15t-49 15q-38 0 -46 -35h-39q6 36 29 58t60 22z" />
    <glyph glyph-name="itilde" unicode="&#x129;" horiz-adv-x="173" 
d="M60 0l68 484h53l-68 -484h-53zM129 666q20 0 49 -15t50 -15q32 0 47 38h37q-7 -37 -31 -60t-61 -23q-19 0 -47 15t-49 15q-36 0 -46 -35h-39q6 36 29.5 58t60.5 22z" />
    <glyph glyph-name="imacron" unicode="&#x12b;" horiz-adv-x="173" 
d="M60 0l68 484h53l-68 -484h-53zM68 650h220l-7 -54h-220z" />
    <glyph glyph-name="Ibreve" unicode="&#x12c;" horiz-adv-x="208" 
d="M75 0l95 674h58l-95 -674h-58zM208 728q-65 0 -94 38t-20 98h45q-5 -87 75 -87q82 0 99 87h44q-9 -60 -47 -98t-102 -38z" />
    <glyph glyph-name="ibreve" unicode="&#x12d;" horiz-adv-x="173" 
d="M60 0l68 484h53l-68 -484h-53zM163 538q-65 0 -93.5 38t-19.5 98h45q-6 -87 74 -87q81 0 100 87h44q-9 -60 -47.5 -98t-102.5 -38z" />
    <glyph glyph-name="Iogonek" unicode="&#x12e;" horiz-adv-x="208" 
d="M75 0l95 674h58l-95 -674h-9q-66 -74 -55 -123q10 -40 69 -29q9 1 18 4l43 12l-5 -40q-45 -19 -81 -23q-63 -6 -87 32t-1 93q12 31 50 74z" />
    <glyph glyph-name="iogonek" unicode="&#x12f;" horiz-adv-x="179" 
d="M60 0l68 484h59l-68 -484h-10q-66 -74 -55 -123q10 -40 69 -29q9 1 18 4l43 12l-5 -40q-45 -19 -81 -23q-63 -6 -87 32t-1 93q12 31 50 74zM143 588l12 86h59l-12 -86h-59z" />
    <glyph glyph-name="Idotaccent" unicode="&#x130;" horiz-adv-x="208" 
d="M75 0l95 674h58l-95 -674h-58zM182 778l12 86h61l-12 -86h-61z" />
    <glyph glyph-name="dotlessi" unicode="&#x131;" horiz-adv-x="173" 
d="M60 0l68 484h53l-68 -484h-53z" />
    <glyph glyph-name="IJ" unicode="&#x132;" horiz-adv-x="601" 
d="M75 0l95 674h58l-95 -674h-58zM221 19l19 47q60 -25 120 -25q45 0 75 14q33 17 48.5 45t23.5 84l69 490h55l-70 -497q-14 -102 -69 -145t-129 -43q-81 0 -142 30z" />
    <glyph glyph-name="ij" unicode="&#x133;" horiz-adv-x="379" 
d="M60 0l68 484h59l-68 -484h-59zM143 588l12 86h59l-12 -86h-59zM387 484l-76 -536q-6 -43 -21.5 -73.5t-30 -44.5t-38.5 -21.5t-33.5 -8t-27.5 -0.5q-28 0 -57 12l13 42q30 -7 44 -7q27 0 46 9.5t28 27.5t13 32.5t6 35.5l75 532h59zM343 588l12 86h59l-12 -86h-59z" />
    <glyph glyph-name="Jcircumflex" unicode="&#x134;" horiz-adv-x="393" 
d="M13 19l20 47q58 -25 119 -25q45 0 75 14q33 17 48.5 45t23.5 84l69 490h55l-70 -497q-8 -54 -27.5 -92t-47.5 -58t-57.5 -29t-64.5 -9q-82 0 -143 30zM388 864h69l74 -109h-48l-67 67l-86 -67h-48z" />
    <glyph glyph-name="jcircumflex" unicode="&#x135;" horiz-adv-x="200" 
d="M208 484l-76 -536q-6 -43 -21.5 -73.5t-30 -44.5t-38.5 -21.5t-33.5 -8t-27.5 -0.5q-28 0 -57 12l14 42q28 -7 44 -7q26 0 44 9t27 24t13.5 30.5t7.5 33.5q1 6 1 8l74 532h59zM169 674h69l75 -109h-48l-68 67l-85 -67h-48z" />
    <glyph glyph-name="Kcommaaccent" unicode="&#x136;" horiz-adv-x="557" 
d="M547 0h-71l-200 331l-124 -125l-29 -206h-58l95 674h58l-55 -389l366 389h71l-284 -301zM136 -198l96 153h72l-113 -153h-55z" />
    <glyph glyph-name="kcedilla" unicode="&#x137;" horiz-adv-x="459" 
d="M281 308l173 -308h-68l-151 278l-88 -78l-28 -200h-59l95 674h59l-57 -407l255 217h71zM208 10h49q31 -41 37 -84q6 -55 -28.5 -93t-95.5 -32q-33 4 -74 23l6 40l39 -12q73 -22 96.5 29t-29.5 129z" />
    <glyph glyph-name="kgreenlandic" unicode="&#x138;" horiz-adv-x="480" 
d="M296 290l175 -290h-70l-150 252l-110 -99l-22 -153h-59l68 484h59l-36 -256l289 256h71z" />
    <glyph glyph-name="Lacute" unicode="&#x139;" horiz-adv-x="507" 
d="M218 674l-87 -620h344l-8 -55h-402l95 675h58zM168 735l99 129h69l-118 -129h-50z" />
    <glyph glyph-name="lacute" unicode="&#x13a;" horiz-adv-x="179" 
d="M60 0l95 674h59l-95 -674h-59zM160 730l98 129h69l-117 -129h-50z" />
    <glyph glyph-name="Lcommaaccent" unicode="&#x13b;" horiz-adv-x="507" 
d="M218 674l-87 -620h344l-8 -55h-402l95 675h58zM127 -198l96 153h72l-113 -153h-55z" />
    <glyph glyph-name="lcommaaccent" unicode="&#x13c;" horiz-adv-x="179" 
d="M60 0l95 674h59l-95 -674h-59zM-43 -198l96 153h72l-113 -153h-55z" />
    <glyph glyph-name="Lcaron" unicode="&#x13d;" horiz-adv-x="507" 
d="M218 674l-87 -620h344l-8 -55h-402l95 675h58zM297 505l112 167h70l-136 -167h-46z" />
    <glyph glyph-name="lcaron" unicode="&#x13e;" horiz-adv-x="271" 
d="M60 0l95 674h59l-95 -674h-59zM238 507l112 167h70l-136 -167h-46z" />
    <glyph glyph-name="Ldot" unicode="&#x13f;" horiz-adv-x="507" 
d="M218 674l-87 -620h344l-8 -55h-402l95 675h58zM415 409l12 86h71l-12 -86h-71z" />
    <glyph glyph-name="ldot" unicode="&#x140;" horiz-adv-x="350" 
d="M60 0l95 674h59l-95 -674h-59zM268 277l12 86h71l-12 -86h-71z" />
    <glyph glyph-name="Lslash" unicode="&#x141;" horiz-adv-x="566" 
d="M123 -1l38 267l-130 -78l8 56l130 77l49 353h58l-44 -312l130 82l-9 -62l-129 -77l-35 -251h344l-8 -55h-402z" />
    <glyph glyph-name="lslash" unicode="&#x142;" horiz-adv-x="328" 
d="M249 394l-55 -394h-59l49 354l-132 -81l8 59l133 80l36 262h59l-31 -222l131 80l-8 -60z" />
    <glyph glyph-name="Nacute" unicode="&#x143;" horiz-adv-x="652" 
d="M516 0l-308 603l-85 -603h-58l95 674h81l298 -600l85 600h58l-95 -674h-71zM396 735l98 129h69l-117 -129h-50z" />
    <glyph glyph-name="nacute" unicode="&#x144;" horiz-adv-x="531" 
d="M511 286l-40 -286h-59l40 286q23 161 -107 161q-20 0 -44.5 -6t-55.5 -21.5t-54.5 -49.5t-30.5 -81l-41 -289h-59l68 484h52l-11 -79q64 92 175 92q95 0 139.5 -48t27.5 -163zM296 545l98 129h69l-117 -129h-50z" />
    <glyph glyph-name="Ncommaaccent" unicode="&#x145;" horiz-adv-x="652" 
d="M516 0l-308 603l-85 -603h-58l95 674h81l298 -600l85 600h58l-95 -674h-71zM166 -198l96 153h72l-113 -153h-55z" />
    <glyph glyph-name="ncommaaccent" unicode="&#x146;" horiz-adv-x="531" 
d="M511 286l-40 -286h-59l40 286q23 161 -107 161q-20 0 -44.5 -6t-55.5 -21.5t-54.5 -49.5t-30.5 -81l-41 -289h-59l68 484h52l-11 -79q64 92 175 92q95 0 139.5 -48t27.5 -163zM121 -198l96 153h72l-113 -153h-55z" />
    <glyph glyph-name="Ncaron" unicode="&#x147;" horiz-adv-x="652" 
d="M516 0l-308 603l-85 -603h-58l95 674h81l298 -600l85 600h58l-95 -674h-71zM466 755h-69l-75 109h48l68 -67l85 67h48z" />
    <glyph glyph-name="ncaron" unicode="&#x148;" horiz-adv-x="531" 
d="M511 286l-40 -286h-59l40 286q23 161 -107 161q-20 0 -44.5 -6t-55.5 -21.5t-54.5 -49.5t-30.5 -81l-41 -289h-59l68 484h52l-11 -79q64 92 175 92q95 0 139.5 -48t27.5 -163zM379 565h-69l-74 109h48l67 -67l86 67h48z" />
    <glyph glyph-name="Eng" unicode="&#x14a;" horiz-adv-x="652" 
d="M532 0l-324 603l-85 -603h-58l95 674h81l302 -575l81 575h58l-97 -687q-8 -54 -27.5 -92t-47.5 -58t-57.5 -29t-64.5 -9q-29 0 -54 4l7 51q21 -3 43 -3q45 0 75 14q33 17 48 45t24 84z" />
    <glyph glyph-name="eng" unicode="&#x14b;" horiz-adv-x="531" 
d="M511 286l-42 -299q-14 -102 -70 -145t-131 -43q-29 0 -54 4l7 51q21 -3 43 -3q45 0 75 14q33 17 48.5 45t23.5 84l41 292q23 161 -107 161q-20 0 -44.5 -6t-55.5 -21.5t-54.5 -49.5t-30.5 -81l-41 -289h-59l68 484h52l-11 -79q64 92 175 92q95 0 139.5 -48t27.5 -163z
" />
    <glyph glyph-name="Omacron" unicode="&#x14c;" horiz-adv-x="715" 
d="M356 -13q-129 0 -201.5 77.5t-72.5 213.5q0 185 102.5 296t269.5 111q131 0 202.5 -76t71.5 -212q0 -186 -102 -298t-270 -112zM447 634q-94 0 -163.5 -50.5t-103 -128.5t-33.5 -171q0 -110 55 -178t161 -68q94 0 164 49t103.5 127t33.5 172q0 108 -55.5 178t-161.5 70z
M365 840h220l-8 -54h-220z" />
    <glyph glyph-name="omacron" unicode="&#x14d;" horiz-adv-x="510" 
d="M55 198q0 136 74 217.5t196 81.5q94 0 146 -56t52 -155q0 -137 -74 -218.5t-196 -81.5q-94 0 -146 56t-52 156zM464 272q0 74 -38 125.5t-108 51.5q-91 0 -147.5 -73t-56.5 -166q0 -74 38 -125t108 -51q89 0 146.5 73t57.5 165zM236 650h220l-7 -54h-220z" />
    <glyph glyph-name="Obreve" unicode="&#x14e;" horiz-adv-x="715" 
d="M356 -13q-129 0 -201.5 77.5t-72.5 213.5q0 185 102.5 296t269.5 111q131 0 202.5 -76t71.5 -212q0 -186 -102 -298t-270 -112zM447 634q-94 0 -163.5 -50.5t-103 -128.5t-33.5 -171q0 -110 55 -178t161 -68q94 0 164 49t103.5 127t33.5 172q0 108 -55.5 178t-161.5 70z
M461 728q-65 0 -94 38t-20 98h45q-5 -87 75 -87q82 0 99 87h44q-9 -60 -47 -98t-102 -38z" />
    <glyph glyph-name="obreve" unicode="&#x14f;" horiz-adv-x="510" 
d="M55 198q0 136 74 217.5t196 81.5q94 0 146 -56t52 -155q0 -137 -74 -218.5t-196 -81.5q-94 0 -146 56t-52 156zM464 272q0 74 -38 125.5t-108 51.5q-91 0 -147.5 -73t-56.5 -166q0 -74 38 -125t108 -51q89 0 146.5 73t57.5 165zM332 538q-65 0 -94 38t-20 98h45
q-6 -87 74 -87q81 0 100 87h44q-9 -60 -47.5 -98t-101.5 -38z" />
    <glyph glyph-name="Ohungarumlaut" unicode="&#x150;" horiz-adv-x="715" 
d="M356 -13q-129 0 -201.5 77.5t-72.5 213.5q0 185 102.5 296t269.5 111q131 0 202.5 -76t71.5 -212q0 -186 -102 -298t-270 -112zM447 634q-94 0 -163.5 -50.5t-103 -128.5t-33.5 -171q0 -110 55 -178t161 -68q94 0 164 49t103.5 127t33.5 172q0 108 -55.5 178t-161.5 70z
M486 735l86 129h70l-110 -129h-46zM357 735l86 129h70l-110 -129h-46z" />
    <glyph glyph-name="ohungarumlaut" unicode="&#x151;" horiz-adv-x="510" 
d="M55 198q0 136 74 217.5t196 81.5q94 0 146 -56t52 -155q0 -137 -74 -218.5t-196 -81.5q-94 0 -146 56t-52 156zM464 272q0 74 -38 125.5t-108 51.5q-91 0 -147.5 -73t-56.5 -166q0 -74 38 -125t108 -51q89 0 146.5 73t57.5 165zM366 545l86 129h70l-110 -129h-46z
M237 545l86 129h70l-110 -129h-46z" />
    <glyph glyph-name="OE" unicode="&#x152;" horiz-adv-x="1076" 
d="M436 634q-94 0 -163.5 -50.5t-103 -128.5t-33.5 -171q0 -109 55 -176.5t162 -67.5q142 0 217.5 100.5t75.5 248.5q0 107 -52.5 176t-157.5 69zM602 0l20 139q-42 -72 -120.5 -111t-156.5 -39q-131 0 -202 76t-71 212q0 186 101.5 297t269.5 111q38 0 73.5 -8t68.5 -25
t57.5 -48t34.5 -73l20 143h426l-8 -54h-368l-35 -252h341l-8 -55h-341l-36 -259h376l-8 -54h-434z" />
    <glyph glyph-name="oe" unicode="&#x153;" horiz-adv-x="902" 
d="M667 -14q-65 0 -122.5 34.5t-70.5 96.5q-32 -63 -92.5 -97t-126.5 -34q-95 0 -147.5 56.5t-52.5 156.5q0 134 75.5 216.5t196.5 82.5q69 0 120 -36.5t62 -111.5q33 72 95.5 110t120.5 38q90 0 140.5 -54.5t50.5 -151.5q0 -47 -9 -71h-387q-8 -84 37.5 -134t118.5 -50
q74 0 155 24l11 -40q-80 -35 -175 -35zM465 272q0 74 -37.5 125.5t-107.5 51.5q-92 0 -149.5 -72.5t-57.5 -165.5q0 -74 38.5 -125.5t110.5 -51.5q89 0 146 73t57 165zM718 446h-2q-69 0 -122 -53.5t-63 -122.5h327q8 86 -29.5 131t-110.5 45z" />
    <glyph glyph-name="Racute" unicode="&#x154;" horiz-adv-x="592" 
d="M347 735l98 129h69l-117 -129h-50zM457 300q30 -18 39.5 -33.5t21.5 -66.5q2 -10 5.5 -33t12.5 -64t25 -103h-62l-47 213q-12 35 -35 51.5t-66 16.5h-189l-39 -281h-58l95 674h282q48 0 83 -15t52.5 -40.5t25.5 -53t8 -59.5q0 -20 -5 -44.5t-19 -59t-48 -63t-82 -39.5z
M170 335h227q43 0 75.5 17t49 43t24 51t7.5 48q0 54 -30.5 90t-95.5 36h-217z" />
    <glyph glyph-name="racute" unicode="&#x155;" horiz-adv-x="292" 
d="M164 545l98 129h69l-117 -129h-50zM333 497h17l-8 -59h-27q-55 0 -97.5 -35t-51.5 -103l-42 -300h-59l68 484h53l-11 -75q59 88 158 88z" />
    <glyph glyph-name="Rcommaaccent" unicode="&#x156;" horiz-adv-x="592" 
d="M154 -198l96 153h72l-113 -153h-55zM457 300q30 -18 39.5 -33.5t21.5 -66.5q2 -10 5.5 -33t12.5 -64t25 -103h-62l-47 213q-12 35 -35 51.5t-66 16.5h-189l-39 -281h-58l95 674h282q48 0 83 -15t52.5 -40.5t25.5 -53t8 -59.5q0 -20 -5 -44.5t-19 -59t-48 -63t-82 -39.5z
M170 335h227q43 0 75.5 17t49 43t24 51t7.5 48q0 54 -30.5 90t-95.5 36h-217z" />
    <glyph glyph-name="rcommaaccent" unicode="&#x157;" horiz-adv-x="292" 
d="M333 497h17l-9 -59h-27q-55 0 -97 -35t-51 -103l-42 -300h-59l68 484h53l-11 -75q59 88 158 88zM-36 -198l96 153h72l-113 -153h-55z" />
    <glyph glyph-name="Rcaron" unicode="&#x158;" horiz-adv-x="592" 
d="M436 755h-69l-75 109h48l68 -67l85 67h48zM457 300q30 -18 39.5 -33.5t21.5 -66.5q2 -10 5.5 -33t12.5 -64t25 -103h-62l-47 213q-12 35 -35 51.5t-66 16.5h-189l-39 -281h-58l95 674h282q48 0 83 -15t52.5 -40.5t25.5 -53t8 -59.5q0 -20 -5 -44.5t-19 -59t-48 -63
t-82 -39.5zM170 335h227q43 0 75.5 17t49 43t24 51t7.5 48q0 54 -30.5 90t-95.5 36h-217z" />
    <glyph glyph-name="rcaron" unicode="&#x159;" horiz-adv-x="292" 
d="M333 497h17l-8 -59h-27q-55 0 -97.5 -35t-51.5 -103l-42 -300h-59l68 484h53l-11 -75q59 88 158 88zM263 565h-69l-75 109h48l68 -67l85 67h48z" />
    <glyph glyph-name="Sacute" unicode="&#x15a;" horiz-adv-x="548" 
d="M365 685q126 0 205 -66l-30 -47q-78 58 -182 58q-59 0 -106 -24.5t-68 -75.5q-4 -21 -6 -35.5t6.5 -28t15.5 -22.5t23 -18.5t28.5 -15t30.5 -12.5l165 -68q43 -16 66.5 -44.5t28.5 -54t0 -50.5q-14 -88 -87.5 -140t-166.5 -52q-147 0 -248 85q1 2 14 21t20 26
q40 -33 98.5 -55.5t120.5 -22.5q57 0 108.5 26.5t70.5 76.5q34 89 -61 132l-194 76q-60 24 -85.5 70.5t-8.5 110.5q20 67 86 108.5t156 41.5zM334 735l98 129h69l-117 -129h-50z" />
    <glyph glyph-name="sacute" unicode="&#x15b;" horiz-adv-x="417" 
d="M336 94q13 26 7.5 46t-14.5 30t-21 15q-12 6 -146 60q-47 24 -63.5 58t-1.5 86q14 48 62 78.5t113 30.5q86 0 154 -46l-29 -45q-72 39 -125 39q-54 0 -85 -21t-35 -54q-5 -32 13.5 -52t63.5 -36l98 -39q40 -17 60 -45t20 -59q0 -67 -57.5 -110.5t-134.5 -43.5
q-102 0 -178 61l32 45q83 -56 145 -56q88 0 122 58zM246 545l98 129h69l-117 -129h-50z" />
    <glyph glyph-name="Scircumflex" unicode="&#x15c;" horiz-adv-x="548" 
d="M365 685q126 0 205 -66l-30 -47q-78 58 -182 58q-59 0 -106 -24.5t-68 -75.5q-4 -21 -6 -35.5t6.5 -28t15.5 -22.5t23 -18.5t28.5 -15t30.5 -12.5l165 -68q43 -16 66.5 -44.5t28.5 -54t0 -50.5q-14 -88 -87.5 -140t-166.5 -52q-147 0 -248 85q1 2 14 21t20 26
q40 -33 98.5 -55.5t120.5 -22.5q57 0 108.5 26.5t70.5 76.5q34 89 -61 132l-194 76q-60 24 -85.5 70.5t-8.5 110.5q20 67 86 108.5t156 41.5zM360 864h69l75 -109h-48l-68 67l-85 -67h-48z" />
    <glyph glyph-name="scircumflex" unicode="&#x15d;" horiz-adv-x="417" 
d="M336 94q13 26 7.5 46t-14.5 30t-21 15q-12 6 -146 60q-47 24 -63.5 58t-1.5 86q14 48 62 78.5t113 30.5q86 0 154 -46l-29 -45q-72 39 -125 39q-54 0 -85 -21t-35 -54q-5 -32 13.5 -52t63.5 -36l98 -39q40 -17 60 -45t20 -59q0 -67 -57.5 -110.5t-134.5 -43.5
q-102 0 -178 61l32 45q83 -56 145 -56q88 0 122 58zM269 674h69l75 -109h-48l-68 67l-85 -67h-48z" />
    <glyph glyph-name="Scedilla" unicode="&#x15e;" horiz-adv-x="548" 
d="M321 -9q19 -36 24 -65q6 -55 -27.5 -93t-95.5 -32q-33 4 -74 23l6 40l39 -12q66 -20 94.5 24t-10.5 113q-144 5 -237 85q1 2 14 21t20 26q40 -33 98.5 -55.5t120.5 -22.5q57 0 108.5 26.5t70.5 76.5q34 89 -61 132l-194 76q-60 24 -85.5 70t-8.5 111q20 67 86 108.5
t156 41.5q126 0 205 -66l-30 -47q-78 58 -182 58q-59 0 -106 -24.5t-68 -75.5q-4 -21 -6 -35.5t6.5 -28t15.5 -22.5t23 -18.5t28.5 -15t30.5 -12.5l165 -68q43 -16 66.5 -44.5t28.5 -54t0 -50.5q-14 -80 -75.5 -131t-145.5 -59z" />
    <glyph glyph-name="scedilla" unicode="&#x15f;" horiz-adv-x="417" 
d="M256 -10q19 -37 24 -64q6 -55 -28.5 -93t-95.5 -32q-37 4 -73 23l5 40l40 -12q66 -20 93.5 22t-8.5 112q-105 2 -176 61l32 45q83 -56 145 -56q88 0 122 58q13 26 7.5 46t-14.5 30t-21 15q-12 6 -146 60q-47 24 -63.5 57.5t-2.5 86.5q16 49 64 79t112 30q86 0 154 -46
l-29 -45q-72 39 -125 39q-58 0 -89.5 -24t-31.5 -61q0 -49 78 -78l98 -39q40 -17 60 -45t20 -59q0 -58 -43.5 -99t-107.5 -51z" />
    <glyph glyph-name="Scaron" unicode="&#x160;" horiz-adv-x="548" 
d="M365 685q126 0 205 -66l-30 -47q-78 58 -182 58q-59 0 -106 -24.5t-68 -75.5q-4 -21 -6 -35.5t6.5 -28t15.5 -22.5t23 -18.5t28.5 -15t30.5 -12.5l165 -68q43 -16 66.5 -44.5t28.5 -54t0 -50.5q-14 -88 -87.5 -140t-166.5 -52q-147 0 -248 85q1 2 14 21t20 26
q40 -33 98.5 -55.5t120.5 -22.5q57 0 108.5 26.5t70.5 76.5q34 89 -61 132l-194 76q-60 24 -85.5 70.5t-8.5 110.5q20 67 86 108.5t156 41.5zM414 755h-69l-75 109h48l68 -67l85 67h48z" />
    <glyph glyph-name="scaron" unicode="&#x161;" horiz-adv-x="417" 
d="M336 94q13 26 7.5 46t-14.5 30t-21 15q-12 6 -146 60q-47 24 -63.5 58t-1.5 86q14 48 62 78.5t113 30.5q86 0 154 -46l-29 -45q-72 39 -125 39q-54 0 -85 -21t-35 -54q-5 -32 13.5 -52t63.5 -36l98 -39q40 -17 60 -45t20 -59q0 -67 -57.5 -110.5t-134.5 -43.5
q-102 0 -178 61l32 45q83 -56 145 -56q88 0 122 58zM323 565h-69l-75 109h48l68 -67l85 67h48z" />
    <glyph glyph-name="Tcommaaccent" unicode="&#x162;" horiz-adv-x="518" 
d="M600 620h-225l-87 -620h-58l87 620h-225l8 54h508zM126 -198l96 153h72l-113 -153h-55z" />
    <glyph glyph-name="tcommaaccent" unicode="&#x163;" horiz-adv-x="305" 
d="M158 437h-83l6 47h83l18 129h58l-18 -129h118l-6 -47h-118l-42 -298q-3 -26 -4 -49.5t17.5 -39.5t58.5 -16q20 0 39 5v-39q-31 -13 -65 -13q-15 0 -24.5 0.5t-30 8.5t-31.5 22t-18 44.5t-1 73.5zM42 -200l96 153h72l-113 -153h-55z" />
    <glyph glyph-name="Tcaron" unicode="&#x164;" horiz-adv-x="518" 
d="M600 620h-225l-87 -620h-58l87 620h-225l8 54h508zM399 755h-69l-75 109h48l68 -67l85 67h48z" />
    <glyph glyph-name="tcaron" unicode="&#x165;" horiz-adv-x="353" 
d="M157 437h-83l7 47h83l18 129h58l-18 -129h118l-7 -47h-118l-42 -298q-3 -26 -4 -49.5t17.5 -39.5t58.5 -16q20 0 39 5l1 -39q-31 -13 -65 -13q-73 0 -96 46q-18 38 -9 103zM285 553l112 167h70l-136 -167h-46z" />
    <glyph glyph-name="Tbar" unicode="&#x166;" horiz-adv-x="518" 
d="M600 620h-225l-87 -620h-58l87 620h-225l8 54h508zM176 371h270l-6 -45h-270z" />
    <glyph glyph-name="tbar" unicode="&#x167;" horiz-adv-x="305" 
d="M189 252l-16 -113q-3 -26 -4 -49.5t17.5 -39.5t58.5 -16q20 0 39 5l1 -39q-31 -13 -65 -13q-15 0 -24.5 0.5t-30 8.5t-31.5 22t-18 44.5t-1 73.5l16 116h-72l6 42h72l20 143h-83l7 47h83l18 129h58l-18 -129h118l-7 -47h-118l-20 -143h85l-6 -42h-85z" />
    <glyph glyph-name="Utilde" unicode="&#x168;" horiz-adv-x="673" 
d="M334 -13q-132 0 -192 68t-37 225l55 394h59l-55 -388q-17 -128 24.5 -189t152.5 -61q112 0 171.5 61t76.5 189l55 388h59l-55 -394q-23 -157 -102 -225t-212 -68zM405 856q20 0 49 -15t50 -15q32 0 47 38h37q-7 -37 -31 -60t-61 -23q-19 0 -47 15t-49 15q-36 0 -46 -35
h-39q6 36 29.5 58t60.5 22z" />
    <glyph glyph-name="utilde" unicode="&#x169;" horiz-adv-x="531" 
d="M87 198l41 286h59l-41 -286q-11 -78 13.5 -120t104.5 -42q16 0 35 3.5t51 15.5t56 44t31 80l43 305h59l-68 -484h-52l9 64q-21 -33 -65.5 -52.5t-68 -22t-39.5 -2.5q-96 0 -139.5 48.5t-28.5 162.5zM306 666q19 0 49.5 -15t50.5 -15q18 0 28.5 8.5t17.5 29.5h37
q-6 -37 -29.5 -60t-61.5 -23q-19 0 -47 15t-49 15q-38 0 -46 -35h-39q6 36 29 58t60 22z" />
    <glyph glyph-name="Umacron" unicode="&#x16a;" horiz-adv-x="673" 
d="M334 -13q-132 0 -192 68t-37 225l55 394h59l-55 -388q-17 -128 24.5 -189t152.5 -61q112 0 171.5 61t76.5 189l55 388h59l-55 -394q-23 -157 -102 -225t-212 -68zM344 840h220l-7 -54h-220z" />
    <glyph glyph-name="umacron" unicode="&#x16b;" horiz-adv-x="531" 
d="M87 198l41 286h59l-41 -286q-11 -78 13.5 -120t104.5 -42q16 0 35 3.5t51 15.5t56 44t31 80l43 305h59l-68 -484h-52l9 64q-21 -33 -65.5 -52.5t-68 -22t-39.5 -2.5q-96 0 -139.5 48.5t-28.5 162.5zM246 650h220l-8 -54h-220z" />
    <glyph glyph-name="Ubreve" unicode="&#x16c;" horiz-adv-x="673" 
d="M334 -13q-132 0 -192 68t-37 225l55 394h59l-55 -388q-17 -128 24.5 -189t152.5 -61q112 0 171.5 61t76.5 189l55 388h59l-55 -394q-23 -157 -102 -225t-212 -68zM441 728q-65 0 -94 38t-20 98h45q-6 -87 74 -87q81 0 100 87h44q-9 -60 -47.5 -98t-101.5 -38z" />
    <glyph glyph-name="ubreve" unicode="&#x16d;" horiz-adv-x="531" 
d="M87 198l41 286h59l-41 -286q-11 -78 13.5 -120t104.5 -42q16 0 35 3.5t51 15.5t56 44t31 80l43 305h59l-68 -484h-52l9 64q-21 -33 -65.5 -52.5t-68 -22t-39.5 -2.5q-96 0 -139.5 48.5t-28.5 162.5zM342 538q-65 0 -94 38t-20 98h45q-5 -87 75 -87q82 0 99 87h44
q-9 -60 -47 -98t-102 -38z" />
    <glyph glyph-name="Uring" unicode="&#x16e;" horiz-adv-x="673" 
d="M334 -13q-132 0 -192 68t-37 225l55 394h59l-55 -388q-17 -128 24.5 -189t152.5 -61q112 0 171.5 61t76.5 189l55 388h59l-55 -394q-23 -157 -102 -225t-212 -68zM371 835q0 40 24.5 69t71.5 29q73 0 73 -70q0 -43 -23.5 -71.5t-72.5 -28.5q-37 0 -55 20t-18 52zM410 840
q0 -41 39 -41q52 0 52 58q0 39 -39 39q-27 0 -39.5 -16t-12.5 -40z" />
    <glyph glyph-name="uring" unicode="&#x16f;" horiz-adv-x="531" 
d="M87 198l41 286h59l-41 -286q-11 -78 13.5 -120t104.5 -42q16 0 35 3.5t51 15.5t56 44t31 80l43 305h59l-68 -484h-52l9 64q-21 -33 -65.5 -52.5t-68 -22t-39.5 -2.5q-96 0 -139.5 48.5t-28.5 162.5zM273 645q0 40 24.5 69t71.5 29q72 0 72 -70q0 -43 -23 -71.5t-73 -28.5
q-37 0 -54.5 20t-17.5 52zM311 650q0 -41 39 -41q28 0 40.5 17t12.5 41q0 39 -39 39q-27 0 -40 -16t-13 -40z" />
    <glyph glyph-name="Uhungarumlaut" unicode="&#x170;" horiz-adv-x="673" 
d="M334 -13q-132 0 -192 68t-37 225l55 394h59l-55 -388q-17 -128 24.5 -189t152.5 -61q112 0 171.5 61t76.5 189l55 388h59l-55 -394q-23 -157 -102 -225t-212 -68zM452 735l86 129h70l-110 -129h-46zM323 735l86 129h70l-110 -129h-46z" />
    <glyph glyph-name="uhungarumlaut" unicode="&#x171;" horiz-adv-x="531" 
d="M87 198l41 286h59l-41 -286q-11 -78 13.5 -120t104.5 -42q16 0 35 3.5t51 15.5t56 44t31 80l43 305h59l-68 -484h-52l9 64q-21 -33 -65.5 -52.5t-68 -22t-39.5 -2.5q-96 0 -139.5 48.5t-28.5 162.5zM363 545l86 129h70l-110 -129h-46zM234 545l86 129h70l-110 -129h-46z
" />
    <glyph glyph-name="Uogonek" unicode="&#x172;" horiz-adv-x="673" 
d="M358 -12q-58 -70 -43.5 -113t86.5 -23l43 12l-6 -40q-42 -19 -80 -23q-63 -6 -86.5 32t-2.5 93q11 26 40 62q-119 6 -172.5 74t-32.5 218l55 394h60l-55 -388q-18 -130 23.5 -190t153.5 -60t171 61t77 189l55 388h58l-55 -394q-21 -150 -94 -218t-195 -74z" />
    <glyph glyph-name="uogonek" unicode="&#x173;" horiz-adv-x="531" 
d="M87 198l41 286h58l-40 -286q-11 -78 13.5 -120t104.5 -42q11 0 24.5 1.5t39.5 9.5t46.5 22t39 42.5t23.5 67.5l43 305h59l-68 -484h-4q-67 -74 -55 -123q9 -40 69 -29q9 1 18 4l42 12l-5 -40q-42 -19 -80 -23q-63 -6 -87.5 32.5t-1.5 92.5q14 35 52 75l9 63
q-21 -33 -65.5 -52.5t-68 -22t-39.5 -2.5q-96 0 -139.5 48.5t-28.5 162.5z" />
    <glyph glyph-name="Wcircumflex" unicode="&#x174;" horiz-adv-x="930" 
d="M592 648l97 -576q42 98 132 301t132 301h62l-301 -674h-70l-98 572q-36 -81 -126 -277t-133 -295h-71l-111 674h62l95 -602l259 576h71zM552 864h69l74 -109h-48l-67 67l-86 -67h-48z" />
    <glyph glyph-name="wcircumflex" unicode="&#x175;" horiz-adv-x="793" 
d="M78 484h63l82 -424l202 424h80l83 -424l202 424h61l-235 -484h-69l-88 439l-210 -439h-70zM457 674h69l74 -109h-48l-67 67l-86 -67h-48z" />
    <glyph glyph-name="Ycircumflex" unicode="&#x176;" horiz-adv-x="598" 
d="M330 0h-62l33 236l-196 438h70l165 -382l271 382h72l-320 -438zM386 864h69l74 -109h-48l-67 67l-86 -67h-48z" />
    <glyph glyph-name="ycircumflex" unicode="&#x177;" horiz-adv-x="512" 
d="M315 674h69l75 -109h-48l-68 67l-85 -67h-48zM52 -203l10 45q38 -7 65.5 2.5t51.5 48.5l50 90l-151 501h62l126 -434l242 434h62l-352 -621q-24 -42 -59.5 -57.5t-64.5 -15.5q-19 0 -42 7z" />
    <glyph glyph-name="Ydieresis" unicode="&#x178;" horiz-adv-x="598" 
d="M330 0h-62l33 236l-196 438h70l165 -382l271 382h72l-320 -438zM313 788l11 76h61l-11 -76h-61zM444 788l11 76h62l-11 -76h-62z" />
    <glyph glyph-name="Zacute" unicode="&#x179;" horiz-adv-x="576" 
d="M527 0h-497l10 72l522 548h-427l8 54h498l-10 -68l-531 -550h435zM346 735l98 129h69l-117 -129h-50z" />
    <glyph glyph-name="zacute" unicode="&#x17a;" horiz-adv-x="446" 
d="M25 0l8 58l388 380h-323l6 46h385l-8 -59l-387 -379h322l-6 -46h-385zM253 545l98 129h69l-117 -129h-50z" />
    <glyph glyph-name="Zdotaccent" unicode="&#x17b;" horiz-adv-x="576" 
d="M527 0h-497l10 72l522 548h-427l8 54h498l-10 -68l-531 -550h435zM383 778l12 86h61l-12 -86h-61z" />
    <glyph glyph-name="zdotaccent" unicode="&#x17c;" horiz-adv-x="446" 
d="M25 0l8 58l388 380h-323l6 46h385l-8 -59l-387 -379h322l-6 -46h-385zM275 588l12 86h61l-12 -86h-61z" />
    <glyph glyph-name="Zcaron" unicode="&#x17d;" horiz-adv-x="576" 
d="M527 0h-497l10 72l522 548h-427l8 54h498l-10 -68l-531 -550h435zM428 755h-69l-75 109h48l68 -67l85 67h48z" />
    <glyph glyph-name="zcaron" unicode="&#x17e;" horiz-adv-x="446" 
d="M25 0l8 58l388 380h-323l6 46h385l-8 -59l-387 -379h322l-6 -46h-385zM336 565h-69l-74 109h48l67 -67l86 67h48z" />
    <glyph glyph-name="longs" unicode="&#x17f;" horiz-adv-x="253" 
d="M80 484h74l7 52q6 43 21 73.5t30.5 45t37.5 22t32.5 8t24.5 0.5h3q30 0 57 -13l-13 -39q-18 8 -38 8q-27 0 -46.5 -9t-29 -26t-13 -29t-6.5 -29l-77 -548h-59l62 437h-74z" />
    <glyph glyph-name="florin" unicode="&#x192;" horiz-adv-x="547" 
d="M134 -74l205 516q-9 0 -31 -0.5t-34 -0.5l17 43l63 -2l24 61q61 154 187 152h3q29 0 52 -11l-16 -41q-24 6 -45 6q-85 0 -117 -88l-32 -79q15 0 50 1t53 1l-17 -43l-101 1l-196 -498q-61 -156 -187 -154h-3q-24 0 -51 13l17 41q24 -6 44 -6q83 0 115 88z" />
    <glyph glyph-name="Aringacute" unicode="&#x1fa;" horiz-adv-x="650" 
d="M71 0h-61l375 674h70l185 -674h-61l-44 164h-375zM412 620l-224 -402h335zM353 785q0 40 24.5 69t71.5 29q72 0 72 -70q0 -43 -23.5 -71.5t-72.5 -28.5q-37 0 -54.5 20t-17.5 52zM391 790q0 -41 39 -41q53 0 53 58q0 39 -39 39q-27 0 -40 -16t-13 -40zM429 917l98 129h69
l-117 -129h-50z" />
    <glyph glyph-name="aringacute" unicode="&#x1fb;" horiz-adv-x="472" 
d="M245 609q0 40 24.5 69t71.5 29q72 0 72 -70q0 -43 -23.5 -71.5t-72.5 -28.5q-37 0 -54.5 20t-17.5 52zM283 614q0 -41 39 -41q28 0 40.5 17t12.5 41q0 39 -39 39q-27 0 -40 -16t-13 -40zM321 741l98 129h69l-117 -129h-50zM417 0h-60l8 55q-54 -68 -167 -68
q-65 0 -108 33t-43 92q0 95 87 138t267 52l6 43q0 34 -6 50q-22 51 -100 51q-83 0 -155 -32l-9 47q72 36 175 36q49 0 85 -15q83 -32 69 -134zM216 37q16 0 36.5 4t50.5 14.5t52 37t28 65.5l14 97q-281 -14 -293 -122q-4 -45 27 -70.5t85 -25.5z" />
    <glyph glyph-name="AEacute" unicode="&#x1fc;" horiz-adv-x="928" 
d="M470 620l-260 -402h275l56 402h-71zM520 54h376l-8 -54h-434l23 164h-296l-107 -164h-64q170 269 430 674h535l-8 -54h-367l-35 -252h340l-8 -55h-341zM492 735l98 129h69l-117 -129h-50z" />
    <glyph glyph-name="aeacute" unicode="&#x1fd;" horiz-adv-x="839" 
d="M464 545l98 129h69l-117 -129h-50zM598 -13q-68 0 -116 33.5t-69 89.5q-13 -35 -35.5 -60t-43.5 -37t-51.5 -18t-46.5 -7t-42 -1q-62 0 -103 32.5t-41 91.5q0 181 347 173l9 61q0 92 -86 104q-12 1 -24 1q-76 0 -145 -30q-2 8 -13 41q7 4 24 11t59 16.5t85 9.5
q38 2 70 -9q72 -22 87 -81q79 90 186 90q88 0 141.5 -52.5t53.5 -147.5q0 -45 -8 -66h-388l-1 -8q-10 -78 36.5 -131.5t130.5 -53.5q73 0 141 25l13 -44q-70 -33 -170 -33zM212 37q16 0 36.5 4t50 14.5t51 37t26.5 65.5l10 78q-270 -5 -281 -103q-4 -45 25.5 -70.5
t81.5 -25.5zM642 447q-67 0 -121.5 -48.5t-64.5 -117.5h329q11 85 -29.5 125.5t-113.5 40.5z" />
    <glyph glyph-name="Oslashacute" unicode="&#x1fe;" horiz-adv-x="724" 
d="M434 721l98 129h69l-117 -129h-50zM195 109h1l391 480q-56 45 -140 45q-94 0 -163.5 -50.5t-103 -129t-33.5 -172.5q0 -113 48 -173zM69 -45l86 105q-73 73 -73 217q0 186 102.5 297t270.5 111q102 0 172 -48l54 66h55l-77 -94q69 -72 69 -213q0 -185 -102 -297
t-270 -112q-102 0 -168 45l-64 -77h-55zM616 558l-391 -479q53 -41 139 -41q94 0 163.5 49t103 127t33.5 172q0 109 -48 172z" />
    <glyph glyph-name="oslashacute" unicode="&#x1ff;" horiz-adv-x="537" 
d="M327 535l98 129h69l-117 -129h-50zM455 397l-267 -326q39 -37 99 -37q89 0 146.5 73t57.5 165q0 78 -36 125zM559 526l-64 -80q55 -53 55 -160q0 -137 -74 -218.5t-196 -81.5q-80 0 -130 39l-57 -68h-55l82 98q-38 50 -38 142q0 137 74 218.5t196 81.5q63 0 107 -25
l46 54h54zM162 106l262 320q-32 23 -79 23q-91 0 -147.5 -73t-56.5 -167q0 -64 21 -103z" />
    <glyph glyph-name="Scommaaccent" unicode="&#x218;" horiz-adv-x="548" 
d="M136 -198l95 153h72l-112 -153h-55zM365 685q126 0 205 -66l-30 -47q-78 58 -182 58q-59 0 -106 -24.5t-68 -75.5q-4 -21 -6 -35.5t6.5 -28t15.5 -22.5t23 -18.5t28.5 -15t30.5 -12.5l165 -68q43 -16 66.5 -44.5t28.5 -54t0 -50.5q-14 -88 -87.5 -140t-166.5 -52
q-147 0 -248 85q1 2 14 21t20 26q40 -33 98.5 -55.5t120.5 -22.5q57 0 108.5 26.5t70.5 76.5q34 89 -61 132l-194 76q-60 24 -85.5 70.5t-8.5 110.5q20 67 86 108.5t156 41.5z" />
    <glyph glyph-name="scommaaccent" unicode="&#x219;" horiz-adv-x="417" 
d="M80 -198l95 153h72l-112 -153h-55zM336 94q13 26 7.5 46t-14.5 30t-21 15q-12 6 -146 60q-47 24 -63.5 58t-1.5 86q14 48 62 78.5t113 30.5q86 0 154 -46l-29 -45q-72 39 -125 39q-54 0 -85 -21t-35 -54q-5 -32 13.5 -52t63.5 -36l98 -39q40 -17 60 -45t20 -59
q0 -67 -57.5 -110.5t-134.5 -43.5q-102 0 -178 61l32 45q83 -56 145 -56q88 0 122 58z" />
    <glyph glyph-name="hsuperior" unicode="&#x2b0;" horiz-adv-x="299" 
d="M364 605l-25 -175h-53l25 175q9 87 -55 87q-17 0 -34.5 -5t-38.5 -25.5t-26 -54.5l-25 -177h-52l57 406h52l-21 -149q37 45 101 45q52 0 78 -31t17 -96z" />
    <glyph glyph-name="jsuperior" unicode="&#x2b2;" horiz-adv-x="126" 
d="M199 725l-46 -319q-5 -33 -17 -54.5t-30 -28.5t-27 -8.5t-24 -1.5q-21 0 -43 9l12 37q21 -7 33 -7q17 0 27.5 10t13 20t4.5 26l45 317h52zM154 774l8 62h52l-8 -62h-52z" />
    <glyph glyph-name="wsuperior" unicode="&#x2b7;" horiz-adv-x="486" 
d="M107 725h57l42 -234l108 234h62l43 -234l109 234h55l-142 -295h-57l-46 245l-113 -245h-57z" />
    <glyph glyph-name="ysuperior" unicode="&#x2b8;" horiz-adv-x="320" 
d="M94 313l7 37q50 -7 69 26v-1l28 51l-91 299h54l69 -238l135 238h52l-209 -371q-26 -47 -82 -47q-8 0 -32 6z" />
    <glyph glyph-name="circumflex" unicode="&#x2c6;" horiz-adv-x="329" 
d="M223 674h69l75 -109h-48l-68 67l-85 -67h-48z" />
    <glyph glyph-name="caron" unicode="&#x2c7;" horiz-adv-x="329" 
d="M279 565h-69l-75 109h48l68 -67l85 67h48z" />
    <glyph glyph-name="breve" unicode="&#x2d8;" horiz-adv-x="343" 
d="M248 538q-65 0 -93.5 38t-19.5 98h45q-6 -87 74 -87q81 0 100 87h44q-9 -60 -47.5 -98t-102.5 -38z" />
    <glyph glyph-name="dotaccent" unicode="&#x2d9;" horiz-adv-x="141" 
d="M123 588l12 86h61l-12 -86h-61z" />
    <glyph glyph-name="ring" unicode="&#x2da;" horiz-adv-x="246" 
d="M131 645q0 40 24.5 69t71.5 29q73 0 73 -70q0 -43 -23.5 -71.5t-72.5 -28.5q-37 0 -55 20t-18 52zM170 650q0 -41 39 -41q52 0 52 58q0 39 -39 39q-27 0 -39.5 -16t-12.5 -40z" />
    <glyph glyph-name="ogonek" unicode="&#x2db;" horiz-adv-x="288" 
d="M105 10h49q-74 -76 -66 -128q6 -40 60 -35q13 1 28 5l43 12l-5 -40q-45 -19 -81 -23q-63 -6 -87 32t-1 93q13 37 60 84z" />
    <glyph glyph-name="tilde" unicode="&#x2dc;" horiz-adv-x="340" 
d="M208 666q20 0 49 -15t50 -15q32 0 47 38h37q-7 -37 -31 -60t-61 -23q-19 0 -47 15t-49 15q-36 0 -46 -35h-39q6 36 29.5 58t60.5 22z" />
    <glyph glyph-name="hungarumlaut" unicode="&#x2dd;" horiz-adv-x="347" 
d="M246 545l86 129h70l-110 -129h-46zM117 545l86 129h70l-110 -129h-46z" />
    <glyph glyph-name="xsuperior" unicode="&#x2e3;" horiz-adv-x="306" 
d="M334 725h59l-126 -146q14 -24 47 -75t47 -74h-61l-70 118l-106 -118h-59l135 149l-85 146h58l65 -114z" />
    <glyph glyph-name="Delta" unicode="&#x394;" horiz-adv-x="650" 
d="M10 0l375 674h70l185 -674h-630zM412 617l-311 -562h463z" />
    <glyph glyph-name="Delta" unicode="&#x2206;" horiz-adv-x="650" 
d="M10 0l375 674h70l185 -674h-630zM412 617l-311 -562h463z" />
    <glyph glyph-name="Omega" unicode="&#x3a9;" horiz-adv-x="710" 
d="M442 617q-124 0 -206.5 -102.5t-82.5 -233.5q0 -91 41 -158t115 -80l-6 -43h-252l8 55h128q-42 24 -68.5 82.5t-26.5 139.5q0 101 44 191.5t127.5 148.5t186.5 58q123 0 191.5 -86.5t68.5 -212.5q0 -115 -50.5 -200.5t-120.5 -120.5h128l-8 -55h-252l6 43q70 12 124.5 61
t83 118.5t28.5 145.5q0 105 -54.5 177t-152.5 72z" />
    <glyph glyph-name="Omega" unicode="&#x2126;" horiz-adv-x="710" 
d="M442 617q-124 0 -206.5 -102.5t-82.5 -233.5q0 -91 41 -158t115 -80l-6 -43h-252l8 55h128q-42 24 -68.5 82.5t-26.5 139.5q0 101 44 191.5t127.5 148.5t186.5 58q123 0 191.5 -86.5t68.5 -212.5q0 -115 -50.5 -200.5t-120.5 -120.5h128l-8 -55h-252l6 43q70 12 124.5 61
t83 118.5t28.5 145.5q0 105 -54.5 177t-152.5 72z" />
    <glyph glyph-name="pi" unicode="&#x3c0;" horiz-adv-x="586" 
d="M190 442h-103l7 53h536l-7 -53h-102l-62 -442h-53l62 442h-225l-62 -442h-53z" />
    <glyph glyph-name="Wgrave" unicode="&#x1e80;" horiz-adv-x="930" 
d="M592 648l97 -576q42 98 132 301t132 301h62l-301 -674h-70l-98 572q-36 -81 -126 -277t-133 -295h-71l-111 674h62l95 -602l259 576h71zM541 864l62 -129h-50l-81 129h69z" />
    <glyph glyph-name="wgrave" unicode="&#x1e81;" horiz-adv-x="793" 
d="M78 484h63l82 -424l202 424h80l83 -424l202 424h61l-235 -484h-69l-88 439l-210 -439h-70zM449 674l62 -129h-50l-81 129h69z" />
    <glyph glyph-name="Wacute" unicode="&#x1e82;" horiz-adv-x="930" 
d="M592 648l97 -576q42 98 132 301t132 301h62l-301 -674h-70l-98 572q-36 -81 -126 -277t-133 -295h-71l-111 674h62l95 -602l259 576h71zM538 735l98 129h69l-117 -129h-50z" />
    <glyph glyph-name="wacute" unicode="&#x1e83;" horiz-adv-x="793" 
d="M78 484h63l82 -424l202 424h80l83 -424l202 424h61l-235 -484h-69l-88 439l-210 -439h-70zM435 545l98 129h69l-117 -129h-50z" />
    <glyph glyph-name="Wdieresis" unicode="&#x1e84;" horiz-adv-x="930" 
d="M592 648l97 -576q42 98 132 301t132 301h62l-301 -674h-70l-98 572q-36 -81 -126 -277t-133 -295h-71l-111 674h62l95 -602l259 576h71zM479 788l11 76h61l-11 -76h-61zM610 788l11 76h62l-11 -76h-62z" />
    <glyph glyph-name="wdieresis" unicode="&#x1e85;" horiz-adv-x="793" 
d="M78 484h63l82 -424l202 424h80l83 -424l202 424h61l-235 -484h-69l-88 439l-210 -439h-70zM384 598l11 76h61l-11 -76h-61zM515 598l11 76h62l-11 -76h-62z" />
    <glyph glyph-name="Ygrave" unicode="&#x1ef2;" horiz-adv-x="598" 
d="M330 0h-62l33 236l-196 438h70l165 -382l271 382h72l-320 -438zM374 864l62 -129h-50l-81 129h69z" />
    <glyph glyph-name="ygrave" unicode="&#x1ef3;" horiz-adv-x="512" 
d="M318 674l62 -129h-50l-81 129h69zM52 -203l10 45q38 -7 65.5 2.5t51.5 48.5l50 90l-151 501h62l126 -434l242 434h62l-352 -621q-24 -42 -59.5 -57.5t-64.5 -15.5q-19 0 -42 7z" />
    <glyph glyph-name="endash" unicode="&#x2013;" horiz-adv-x="552" 
d="M81 290h472l-8 -55h-472z" />
    <glyph glyph-name="emdash" unicode="&#x2014;" horiz-adv-x="896" 
d="M81 290h816l-8 -54h-816z" />
    <glyph glyph-name="quoteleft" unicode="&#x2018;" horiz-adv-x="258" 
d="M210 507l-65 167h46l89 -167h-70z" />
    <glyph glyph-name="quoteright" unicode="&#x2019;" horiz-adv-x="258" 
d="M121 507l111 167h70l-135 -167h-46z" />
    <glyph glyph-name="quotesinglbase" unicode="&#x201a;" horiz-adv-x="258" 
d="M37 -91l111 167h70l-135 -167h-46z" />
    <glyph glyph-name="quotedblleft" unicode="&#x201c;" horiz-adv-x="402" 
d="M354 507l-65 167h46l89 -167h-70zM210 507l-65 167h46l89 -167h-70z" />
    <glyph glyph-name="quotedblright" unicode="&#x201d;" horiz-adv-x="402" 
d="M265 507l111 167h70l-135 -167h-46zM121 507l111 167h70l-135 -167h-46z" />
    <glyph glyph-name="quotedblbase" unicode="&#x201e;" horiz-adv-x="402" 
d="M181 -91l111 167h70l-135 -167h-46zM37 -91l111 167h70l-135 -167h-46z" />
    <glyph glyph-name="dagger" unicode="&#x2020;" horiz-adv-x="432" 
d="M468 473h-162l-66 -473h-50l66 473h-160l6 45h160l22 156h50l-22 -156h162z" />
    <glyph glyph-name="daggerdbl" unicode="&#x2021;" horiz-adv-x="432" 
d="M467 466h-162l-40 -287h162l-6 -41h-162l-19 -138h-50l19 138h-160l6 41h160l40 287h-160l6 41h160l23 167h50l-23 -167h162z" />
    <glyph glyph-name="bullet" unicode="&#x2022;" horiz-adv-x="299" 
d="M92 297q0 46 34.5 80.5t80.5 34.5q38 0 62.5 -26t24.5 -65q0 -46 -35 -80t-81 -34q-38 0 -62 25.5t-24 64.5z" />
    <glyph glyph-name="ellipsis" unicode="&#x2026;" horiz-adv-x="676" 
d="M50 0l12 86h60l-12 -86h-60zM288 0l12 86h61l-12 -86h-61zM547 0l12 86h61l-12 -86h-61z" />
    <glyph glyph-name="perthousand" unicode="&#x2030;" horiz-adv-x="1211" 
d="M189 0l492 674h47l-491 -674h-48zM109 481q0 89 51 142.5t129 53.5q61 0 97 -38t36 -104q0 -89 -51.5 -142.5t-128.5 -53.5q-61 0 -97 38t-36 104zM365 534q0 92 -83 92q-117 0 -117 -144q0 -91 84 -91q61 0 88.5 40t27.5 103zM525 130q0 89 51 142.5t129 53.5
q61 0 97 -38t36 -104q0 -89 -52 -142.5t-129 -53.5q-61 0 -96.5 38t-35.5 104zM780 183q0 92 -82 92q-117 0 -117 -144q0 -91 84 -91q115 0 115 143zM883 130q0 89 51 142.5t129 53.5q61 0 97 -38t36 -104q0 -89 -52 -142.5t-129 -53.5q-61 0 -96.5 38t-35.5 104zM1138 183
q0 92 -82 92q-117 0 -117 -144q0 -91 84 -91q115 0 115 143z" />
    <glyph glyph-name="guilsinglleft" unicode="&#x2039;" horiz-adv-x="294" 
d="M314 539l-163 -231l103 -232h-63l-98 232l163 231h58z" />
    <glyph glyph-name="guilsinglright" unicode="&#x203a;" horiz-adv-x="294" 
d="M230 309l-99 231h58l99 -231l-164 -232h-63z" />
    <glyph glyph-name="fraction" unicode="&#x2044;" horiz-adv-x="503" 
d="M30 0l491 674h47l-490 -674h-48z" />
    <glyph glyph-name="zerosuperior" unicode="&#x2070;" 
d="M224 462q-54 0 -83 40t-29 112q0 108 45 173.5t121 65.5q57 0 87 -39.5t30 -112.5q0 -108 -46.5 -173.5t-124.5 -65.5zM273 815q-54 0 -86.5 -59.5t-32.5 -134.5q0 -53 19 -87.5t56 -34.5q40 0 68.5 30t40.5 73t12 91q0 53 -19 87.5t-58 34.5z" />
    <glyph glyph-name="foursuperior" unicode="&#x2074;" 
d="M314 470h-43l11 80h-183l5 36q48 74 201 245l14 16h48l-37 -259h53l-5 -38h-53zM150 588h137l28 198q-108 -113 -165 -198z" />
    <glyph glyph-name="fivesuperior" unicode="&#x2075;" 
d="M330 603q0 31 -18 56t-53 25q-46 0 -73 -31h-49l50 195h194l-6 -42h-157l-23 -95h5q24 14 65 14q48 0 78.5 -31.5t30.5 -82.5q0 -69 -45.5 -108t-111.5 -39q-62 0 -110 55l27 43q31 -57 82 -57q34 0 58.5 10.5t35.5 27.5t15.5 31.5t4.5 28.5z" />
    <glyph glyph-name="sixsuperior" unicode="&#x2076;" 
d="M381 836l-17 -34q-38 14 -58 14q-54 0 -90 -37t-49 -109h5q35 50 98 50q50 0 78.5 -29.5t28.5 -80.5q0 -69 -42 -108.5t-105 -39.5q-61 0 -86 42.5t-25 100.5q0 118 52 182.5t132 64.5q40 0 78 -16zM234 499q47 0 73.5 33t26.5 69q0 32 -18 56.5t-57 24.5
q-43 0 -69.5 -30.5t-26.5 -72.5q0 -36 19 -58t52 -22z" />
    <glyph glyph-name="sevensuperior" unicode="&#x2077;" 
d="M145 807l6 40h258l-6 -41l1 1q-119 -122 -224 -337h-50q59 112 107 188.5t114 148.5h-206z" />
    <glyph glyph-name="eightsuperior" unicode="&#x2078;" 
d="M226 462q-59 0 -88.5 26t-29.5 67q0 27 18.5 61.5t63.5 50.5q-43 21 -43 77q0 43 32.5 73.5t72.5 34.5q6 0 9 1q5 1 20 1t20 -1q3 -1 7 -1q34 -6 57 -29t23 -58q0 -28 -18 -56t-49 -42q54 -23 54 -87q0 -49 -39 -83.5t-110 -34.5zM253 650q-47 0 -74 -27t-27 -60
q0 -28 20.5 -47t58.5 -19q46 0 73.5 25t27.5 58q0 29 -20 49.5t-59 20.5zM276 817q-41 0 -63 -21.5t-22 -51.5q0 -61 66 -61q43 0 65 22t22 57q0 24 -16 39.5t-52 15.5z" />
    <glyph glyph-name="ninesuperior" unicode="&#x2079;" 
d="M127 480l18 34q38 -14 57 -14q55 0 91 37t48 109h-5q-34 -50 -99 -50q-50 0 -77.5 29.5t-27.5 80.5q0 69 41.5 108.5t104.5 39.5q61 0 86 -42.5t25 -100.5q0 -118 -52 -182.5t-132 -64.5q-40 0 -78 16zM273 817q-46 0 -72 -33t-26 -69q0 -32 18 -56.5t56 -24.5
q44 0 70 30.5t26 73.5q0 35 -19 57t-53 22z" />
    <glyph glyph-name="nsuperior" unicode="&#x207f;" horiz-adv-x="299" 
d="M363 604l-24 -174h-53l24 174q12 88 -54 88q-16 0 -34 -5.5t-39 -26.5t-26 -55l-25 -175h-52l41 295h48l-5 -39q41 46 92 46q60 0 88 -29t19 -99z" />
    <glyph glyph-name="zeroinferior" unicode="&#x2080;" 
d="M137 -158q-54 0 -83 40t-29 112q0 109 45 174t121 65q57 0 87 -39.5t30 -112.5q0 -109 -46 -174t-125 -65zM186 195q-54 0 -86.5 -59.5t-32.5 -134.5q0 -53 19 -87.5t56 -34.5q40 0 68.5 30t40.5 73t12 91q0 53 -19 87.5t-58 34.5z" />
    <glyph glyph-name="oneinferior" unicode="&#x2081;" horiz-adv-x="280" 
d="M116 118l-18 32l92 77h44l-53 -377h-44l45 324z" />
    <glyph glyph-name="twoinferior" unicode="&#x2082;" 
d="M194 195q-57 0 -104 -50l-19 30q14 20 51 40t76 20q51 0 81.5 -27t30.5 -70q0 -57 -60 -105q-31 -20 -59 -35q-38 -22 -56.5 -33.5t-40.5 -32t-27 -40.5h200l-6 -42h-249l3 20q6 30 18.5 53.5t34.5 42t39.5 29.5t47.5 28q62 35 65 37q48 31 48 70q0 24 -20 44.5t-54 20.5
z" />
    <glyph glyph-name="threeinferior" unicode="&#x2083;" 
d="M139 -157q-67 0 -117 50l24 31q46 -41 96 -41q45 0 69.5 22.5t24.5 53.5q0 26 -20.5 45t-57.5 19h-29l6 41h27q45 0 69.5 21t24.5 50q0 25 -19 43t-53 18q-50 0 -96 -42l-4 10q-3 10 -10 21q49 49 117 49q47 0 77 -24t30 -68q0 -29 -22.5 -59.5t-58.5 -37.5l1 -2
q29 -2 45.5 -26t16.5 -53q0 -54 -43 -87.5t-98 -33.5z" />
    <glyph glyph-name="fourinferior" unicode="&#x2084;" 
d="M227 -150h-43l11 80h-183l5 36q48 74 201 245l14 16h48l-37 -259h53l-5 -38h-53zM63 -32h137l28 198q-108 -113 -165 -198z" />
    <glyph glyph-name="fiveinferior" unicode="&#x2085;" 
d="M243 -17q0 31 -18 56t-53 25q-46 0 -73 -31h-49l50 195h194l-6 -42h-157l-23 -95h5q24 14 65 14q48 0 78.5 -31.5t30.5 -82.5q0 -69 -45.5 -108t-111.5 -39q-62 0 -110 55l27 43q31 -57 82 -57q34 0 58.5 10.5t35.5 27.5t15.5 31.5t4.5 28.5z" />
    <glyph glyph-name="sixinferior" unicode="&#x2086;" 
d="M294 218l-17 -34q-38 14 -58 14q-54 0 -90 -37t-49 -109h5q35 50 98 50q50 0 78.5 -29.5t28.5 -80.5q0 -69 -42 -108.5t-105 -39.5q-61 0 -86 42.5t-25 100.5q0 118 52 182.5t132 64.5q40 0 78 -16zM147 -119q47 0 73.5 33t26.5 69q0 32 -18 56.5t-57 24.5
q-44 0 -70 -30.5t-26 -72.5q0 -36 19 -58t52 -22z" />
    <glyph glyph-name="seveninferior" unicode="&#x2087;" 
d="M58 187l6 40h258l-6 -41l1 1q-119 -122 -224 -337h-50q59 112 107 188.5t114 148.5h-206z" />
    <glyph glyph-name="eightinferior" unicode="&#x2088;" 
d="M139 -158q-59 0 -88.5 26t-29.5 67q0 27 18.5 61.5t63.5 50.5q-43 21 -43 77q0 43 32.5 73.5t72.5 34.5q6 0 9 1q5 1 20 1t20 -1q3 -1 7 -1q34 -6 57 -29t23 -58q0 -28 -18 -56t-49 -42q54 -23 54 -87q0 -49 -39 -83.5t-110 -34.5zM166 30q-47 0 -74 -27t-27 -60
q0 -28 20.5 -47t58.5 -19q46 0 73.5 25t27.5 58q0 29 -20 49.5t-59 20.5zM189 197q-41 0 -63 -21.5t-22 -51.5q0 -61 66 -61q43 0 65 22t22 57q0 23 -17 39t-51 16z" />
    <glyph glyph-name="nineinferior" unicode="&#x2089;" 
d="M39 -142l18 34q38 -14 57 -14q55 0 91 37t48 109h-5q-34 -50 -99 -50q-50 0 -77.5 29.5t-27.5 80.5q0 69 41.5 108.5t104.5 39.5q61 0 86 -42.5t25 -100.5q0 -118 -52 -182.5t-132 -64.5q-40 0 -78 16zM185 195q-46 0 -72 -33t-26 -69q0 -32 18 -56.5t56 -24.5
q44 0 70 30.5t26 73.5q0 35 -19 57t-53 22z" />
    <glyph glyph-name="Euro" unicode="&#x20ac;" horiz-adv-x="649" 
d="M190 380h-116q5 10 11.5 21t9.5 18h105q43 123 141.5 199.5t226.5 76.5q78 0 134 -29q-9 -17 -25 -43q-45 21 -91 21q-120 0 -204 -63.5t-123 -161.5h317l-23 -38h-304q-13 -57 -12 -89h268l-23 -38h-243q15 -93 80.5 -153.5t181.5 -60.5q48 0 101 21l10 -43
q-68 -30 -143 -30q-126 0 -201.5 73t-87.5 193h-124l21 38h101q5 60 12 88z" />
    <glyph glyph-name="afii61289" unicode="&#x2113;" horiz-adv-x="321" 
d="M358 546l-23 -162q-8 -56 -30.5 -95.5t-48.5 -56.5t-44.5 -23.5t-30.5 -6.5h-5q-4 -1 -9.5 -1.5t-16.5 0.5t-23 4l-11 -79q-4 -12 -2.5 -27.5t6.5 -30t25.5 -24t53.5 -9.5q30 0 68 7l-1 -39q-48 -15 -99 -15h-22.5t-29.5 7.5t-34 21t-19.5 45t-2.5 75.5l58 409
q6 43 21.5 73.5t31 45t38 22t32.5 8t24 0.5h3q7 0 12.5 -0.5t17.5 -3.5t20.5 -8.5t19.5 -16t15 -26.5t8.5 -39.5t-2.5 -54.5zM275 372l26 186q1 20 3 38.5t-10.5 32.5t-41.5 14q-22 0 -37.5 -7.5t-23 -22t-10.5 -26t-5 -29.5l-43 -307q11 -3 30 -3q31 0 54 14.5t34.5 36.5
t17 39.5t6.5 33.5z" />
    <glyph glyph-name="trademark" unicode="&#x2122;" horiz-adv-x="865" 
d="M145 674h400l86 -347l186 347h79l-41 -396h-49l39 362l-189 -358h-60l-89 358l-60 -362h-51l63 352h-151l-49 -352h-48l49 352h-121z" />
    <glyph glyph-name="estimated" unicode="&#x212e;" horiz-adv-x="678" 
d="M652 282h-429l-27 -193q57 -63 143 -63q77 0 126 32t102 95l28 -19q-56 -70 -114.5 -105.5t-145.5 -35.5q-107 0 -170.5 72.5t-63.5 179.5q0 134 90 231t229 97q124 0 186 -84t46 -207zM537 315l23 163q-60 62 -145 62q-96 0 -164 -62l-23 -163h309z" />
    <glyph glyph-name="onethird" unicode="&#x2153;" horiz-adv-x="710" 
d="M522 -8q-76 0 -120 51l26 34q51 -43 97 -43q43 0 66.5 22t23.5 52q0 26 -19 44.5t-55 18.5h-32l6 43h30q43 0 66 20.5t23 48.5q0 25 -18 42.5t-50 17.5q-44 0 -97 -44q-11 29 -15 34q50 50 120 50q49 0 79 -24t30 -68q0 -29 -23 -60t-59 -38q30 -3 47 -27t17 -54
q0 -52 -43.5 -86t-99.5 -34zM87 0l491 674h47l-490 -674h-48zM162 569l-18 32l92 77h44l-53 -377h-44l46 326z" />
    <glyph glyph-name="twothirds" unicode="&#x2154;" horiz-adv-x="835" 
d="M647 -8q-76 0 -120 51l26 34q51 -43 97 -43q42 0 66 22t24 52q0 26 -19 44.5t-55 18.5h-32l6 43h30q43 0 66.5 20.5t23.5 48.5q0 25 -18 42.5t-50 17.5q-45 0 -98 -44q-9 25 -15 34q50 50 120 50q49 0 79.5 -24t30.5 -68q0 -29 -23 -60t-59 -38q30 -3 47 -27t17 -54
q0 -52 -44 -86t-100 -34zM204 0l491 674h47l-490 -674h-48zM285 648q-57 0 -104 -50l-19 30q14 20 51 40t76 20q51 0 81.5 -27t30.5 -70q0 -57 -60 -105q-31 -20 -59 -35q-38 -22 -56.5 -33.5t-40.5 -32t-27 -40.5h202l-6 -42h-251l3 20q6 30 18.5 53.5t34.5 42t39.5 29.5
t47.5 28q62 35 65 37q48 31 48 70q0 24 -20 44.5t-54 20.5z" />
    <glyph glyph-name="oneeighth" unicode="&#x215b;" horiz-adv-x="702" 
d="M74 0l491 674h47l-490 -674h-48zM506 -8q-61 0 -91 26t-30 67q0 27 18.5 61.5t63.5 50.5q-43 21 -43 77q0 43 33 73.5t75 34.5q6 0 9 1q5 1 20 1q17 0 20 -1t8 -1q34 -6 57.5 -29t23.5 -58q0 -28 -18 -56t-49 -42q54 -23 54 -87q0 -50 -39.5 -84t-111.5 -34zM532 179
q-45 0 -71 -27t-26 -58q0 -27 20 -46t56 -19q44 0 70.5 24.5t26.5 56.5q0 29 -19.5 49t-56.5 20zM555 345q-40 0 -61 -21t-21 -50q0 -60 64 -60q40 0 61.5 22.5t21.5 55.5q0 22 -16 37.5t-49 15.5zM162 569l-18 32l92 77h44l-53 -377h-44l46 326z" />
    <glyph glyph-name="threeeighths" unicode="&#x215c;" horiz-adv-x="796" 
d="M172 0l491 674h47l-490 -674h-48zM600 -8q-61 0 -91.5 26t-30.5 67q0 27 18.5 61.5t63.5 50.5q-42 20 -42 77q0 43 33 73.5t74 34.5q6 0 9 1q7 1 21 1q17 0 20 -1t7 -1q34 -6 58 -29.5t24 -57.5q0 -28 -18.5 -56t-49.5 -42q55 -23 55 -87q0 -50 -40 -84t-111 -34z
M626 179q-45 0 -71.5 -27t-26.5 -58q0 -27 20.5 -46t56.5 -19q44 0 70.5 24.5t26.5 56.5q0 29 -19.5 49t-56.5 20zM649 345q-40 0 -61 -21t-21 -50q0 -60 64 -60q40 0 61 22.5t21 55.5q0 23 -15.5 38t-48.5 15zM225 293q-67 0 -117 50l24 31q46 -41 96 -41q45 0 69.5 22.5
t24.5 53.5q0 26 -20.5 45t-57.5 19h-29l6 41h27q45 0 69.5 21t24.5 50q0 25 -19 43t-53 18q-50 0 -96 -42l-4 10q-3 10 -10 21q49 49 117 49q47 0 77 -24t30 -68q0 -29 -22.5 -59.5t-58.5 -37.5l1 -2q29 -2 45.5 -26t16.5 -53q0 -54 -43 -87.5t-98 -33.5z" />
    <glyph glyph-name="fiveeighths" unicode="&#x215d;" horiz-adv-x="794" 
d="M165 0l491 674h47l-490 -674h-48zM598 -8q-61 0 -91 26t-30 67q0 27 18.5 61.5t63.5 50.5q-43 21 -43 77q0 43 33 73.5t75 34.5q6 0 9 1q5 1 20 1q17 0 20 -1t8 -1q34 -6 57.5 -29t23.5 -58q0 -28 -18 -56t-49 -42q54 -23 54 -87q0 -50 -39.5 -84t-111.5 -34zM624 179
q-45 0 -71 -27t-26 -58q0 -27 20 -46t56 -19q44 0 70.5 24.5t26.5 56.5q0 29 -19.5 49t-56.5 20zM648 345q-40 0 -61.5 -21t-21.5 -50q0 -60 64 -60q40 0 61.5 22.5t21.5 55.5q0 23 -15.5 38t-48.5 15zM332 432q0 31 -18 56t-53 25q-46 0 -73 -31h-49l50 195h194l-6 -42
h-157l-23 -95h5q24 14 65 14q48 0 78.5 -31.5t30.5 -82.5q0 -69 -45.5 -108t-111.5 -39q-62 0 -110 55l27 43q31 -57 82 -57q34 0 58.5 10.5t35.5 27.5t15.5 31.5t4.5 28.5z" />
    <glyph glyph-name="seveneighths" unicode="&#x215e;" horiz-adv-x="731" 
d="M101 0l491 674h47l-490 -674h-48zM535 -8q-61 0 -91 26t-30 67q0 27 18.5 61.5t63.5 50.5q-43 21 -43 77q0 43 33 73.5t75 34.5q6 0 9 1q5 1 20 1q17 0 20 -1t8 -1q34 -6 57.5 -29t23.5 -58q0 -28 -18 -56t-49 -42q54 -23 54 -87q0 -50 -39.5 -84t-111.5 -34zM561 179
q-45 0 -71 -27t-26 -58q0 -27 20 -46t56 -19q44 0 70.5 24.5t26.5 56.5q0 29 -19.5 49t-56.5 20zM584 345q-40 0 -61 -21t-21 -50q0 -60 64 -60q40 0 61.5 22.5t21.5 55.5q0 22 -16 37.5t-49 15.5zM150 638l5 40h258l-6 -41l2 1q-23 -16 -44 -35.5t-41 -47t-33 -45.5
t-32 -55t-26 -50t-26.5 -55.5t-22.5 -48.5h-50q58 111 107 188.5t115 148.5h-206z" />
    <glyph glyph-name="arrowleft" unicode="&#x2190;" horiz-adv-x="765" 
d="M375 351h393l-12 -80h-393l-18 -131l-258 171l306 172z" />
    <glyph glyph-name="arrowup" unicode="&#x2191;" horiz-adv-x="763" 
d="M476 393l-55 -393h-80l55 393h-131l211 282l132 -282h-132z" />
    <glyph glyph-name="arrowright" unicode="&#x2192;" horiz-adv-x="765" 
d="M92 351h393l19 132l258 -172l-306 -171l18 131h-393z" />
    <glyph glyph-name="arrowdown" unicode="&#x2193;" horiz-adv-x="763" 
d="M515 674l-55 -393h132l-212 -282l-131 282h131l55 393h80z" />
    <glyph glyph-name="partialdiff" unicode="&#x2202;" horiz-adv-x="591" 
d="M294 599v45q61 26 141 26q77 0 120.5 -38.5t50 -118.5t-37.5 -204q-19 -55 -44.5 -103.5t-66.5 -102t-100.5 -85t-130.5 -31.5q-95 0 -135 58t-5 161q36 102 115.5 164.5t176.5 62.5q130 0 142 -105q50 136 20.5 215.5t-138.5 79.5q-43 0 -108 -24zM245 37q73 0 134.5 50
t88.5 126q27 66 1 117.5t-101 51.5q-84 0 -142.5 -54.5t-83.5 -121.5q-10 -38 -10 -75.5t29 -65.5t84 -28z" />
    <glyph glyph-name="product" unicode="&#x220f;" horiz-adv-x="586" 
d="M215 622h-103l7 53h536l-7 -53h-102l-87 -622h-53l87 622h-225l-87 -622h-53z" />
    <glyph glyph-name="summation" unicode="&#x2211;" horiz-adv-x="571" 
d="M36 -99l275 345l-178 345l10 76h471l-7 -55h-418l191 -366l-294 -366h418l-8 -55h-471z" />
    <glyph glyph-name="minus" unicode="&#x2212;" horiz-adv-x="520" 
d="M82 297h440l-8 -54h-440z" />
    <glyph glyph-name="radical" unicode="&#x221a;" horiz-adv-x="628" 
d="M88 484h165l90 -437l309 627h60l-335 -674h-80l-92 430h-125z" />
    <glyph glyph-name="infinity" unicode="&#x221e;" horiz-adv-x="785" 
d="M431 275q-31 -43 -81.5 -74t-103.5 -31q-76 0 -114.5 38t-38.5 92q0 64 51 114t143 50q52 0 94 -30t62 -72q29 42 81 72t104 30q76 0 114.5 -38t38.5 -92q0 -64 -51 -114t-143 -50q-55 0 -96.5 29.5t-59.5 75.5zM255 221q51 0 83.5 23.5t61.5 72.5q-16 49 -42 73t-76 24
q-68 0 -101 -31t-33 -80q0 -37 26.5 -59.5t80.5 -22.5zM592 222q67 0 101.5 30t34.5 77q0 38 -27 61.5t-82 23.5q-93 0 -148 -97q16 -45 43.5 -70t77.5 -25z" />
    <glyph glyph-name="integral" unicode="&#x222b;" horiz-adv-x="356" 
d="M282 535l-83 -592q-6 -43 -21 -73.5t-30.5 -45t-37.5 -22t-32.5 -8t-24.5 -0.5h-3q-30 0 -57 13l14 42q21 -8 38 -8q48 0 68 26t27 71l84 598q6 43 21 73.5t30.5 45t37.5 22t32.5 8t24.5 0.5h3q29 0 58 -13l-14 -43q-18 8 -38 8q-80 0 -97 -102z" />
    <glyph glyph-name="approxequal" unicode="&#x2248;" horiz-adv-x="474" 
d="M216 412q27 0 75 -22.5t77 -22.5q60 0 69 62h46q-5 -53 -37 -83t-88 -30q-27 0 -73.5 22t-74.5 22q-59 0 -73 -65h-46q24 117 125 117zM192 245q27 0 75 -22.5t77 -22.5q60 0 70 62h46q-13 -113 -125 -113q-28 0 -74.5 22t-74.5 22q-58 0 -72 -65h-46q21 117 124 117z
" />
    <glyph glyph-name="notequal" unicode="&#x2260;" horiz-adv-x="577" 
d="M557 211h-294l-153 -211h-48l154 211h-136l7 51h166l105 145h-251l7 51h281l158 216h47l-158 -216h149l-7 -51h-179l-105 -145h264z" />
    <glyph glyph-name="lessequal" unicode="&#x2264;" horiz-adv-x="580" 
d="M609 559l-8 -56l-430 -176l380 -176l-8 -57l-450 214l6 39zM63 54h475l-8 -54h-475z" />
    <glyph glyph-name="greaterequal" unicode="&#x2265;" horiz-adv-x="580" 
d="M121 503l8 56l450 -212l-6 -39l-510 -214l8 57l430 176zM58 54h475l-8 -54h-475z" />
    <glyph glyph-name="triangleright" unicode="&#x22b2;" horiz-adv-x="466" 
d="M78 125l59 420l317 -210z" />
    <glyph glyph-name="triangleleft" unicode="&#x22b3;" horiz-adv-x="466" 
d="M483 545l-60 -420l-316 210z" />
    <glyph glyph-name="uni2318" unicode="&#x2318;" horiz-adv-x="701" 
d="M263 156l10 67h-68q-31 0 -54 -22t-23 -53q0 -25 16 -43t42 -18q28 0 50.5 20.5t26.5 48.5zM303 440l10 68q4 29 -12.5 48.5t-44.5 19.5q-31 0 -54.5 -22.5t-23.5 -53.5q0 -25 16.5 -42.5t42.5 -17.5h66zM327 269h124l18 125h-124zM617 164q0 25 -16 42t-40 17h-69
l-9 -67q-4 -28 12.5 -48.5t44.5 -20.5q31 0 54 23t23 54zM666 516q0 27 -15.5 43.5t-41.5 16.5q-28 0 -50 -19.5t-26 -48.5l-10 -68h68q30 0 52.5 23t22.5 53zM664 169q0 -51 -39.5 -89.5t-90.5 -38.5q-48 0 -76.5 33.5t-22.5 81.5l9 67h-124l-9 -67q-6 -47 -45 -81t-86 -34
q-44 0 -71.5 29.5t-27.5 72.5q0 51 40 88.5t91 37.5h67l18 125h-66q-44 0 -72 29t-28 72q0 51 40 89t92 38q48 0 76 -33t22 -81l-10 -68h124l10 68q6 47 45 80.5t86 33.5q42 0 70 -29.5t28 -71.5q0 -51 -39.5 -89t-90.5 -38h-67l-18 -125h67q42 0 70 -29t28 -71z" />
    <glyph glyph-name="blacksquare" unicode="&#x25a0;" horiz-adv-x="539" 
d="M73 91l59 419h419l-59 -419h-419z" />
    <glyph glyph-name="lozenge" unicode="&#x25ca;" horiz-adv-x="588" 
d="M317 -1h-46l-174 337l269 338h46l173 -338zM522 336l-142 276l-220 -276l142 -275z" />
    <glyph glyph-name="circlesolid" unicode="&#x25cf;" horiz-adv-x="536" 
d="M100 278q0 94 72.5 163t167.5 69q78 0 129.5 -53t51.5 -131q0 -94 -72.5 -163t-167.5 -69q-78 0 -129.5 53t-51.5 131z" />
    <glyph glyph-name="blackstar" unicode="&#x2605;" horiz-adv-x="687" 
d="M683 400l-194 -128l39 -206l-158 127l-193 -127l96 206l-157 128h216l96 206l38 -206h217z" />
    <glyph glyph-name="diamond" unicode="&#x2666;" horiz-adv-x="621" 
d="M608 331l-286 -250l-215 250l285 251z" />
    <glyph glyph-name="s_t" unicode="&#xfb06;" horiz-adv-x="722" 
d="M388 534l-8 -58q22 -10 46 -24l-29 -45q-72 39 -125 39q-58 0 -89.5 -24t-31.5 -61q0 -49 78 -78l98 -39q40 -17 60 -45t20 -59q0 -67 -57.5 -110.5t-134.5 -43.5q-102 0 -178 61l32 45q83 -56 145 -56q88 0 122 58q13 26 7.5 46t-14.5 30t-21 15q-12 6 -146 60
q-47 24 -63.5 57.5t-2.5 86.5q16 49 64 79t112 30q21 0 53 -5l4 32q5 42 21 72t33 44.5t40 22.5t33.5 9t21.5 1h188l-27 -190h118l-6 -47h-118l-42 -298q-3 -26 -4 -49.5t17.5 -39.5t58.5 -16q20 0 39 5v-39q-29 -13 -64 -13q-15 0 -24.5 0.5t-30 8.5t-31.5 22t-18 44.5
t-1 73.5l42 301h-83l6 47h83l21 143h-118q-81 0 -96 -93z" />
    <glyph glyph-name="CR" horiz-adv-x="278" 
 />
    <glyph glyph-name="_224" horiz-adv-x="0" 
 />
    <glyph glyph-name="_231" horiz-adv-x="0" 
 />
    <glyph glyph-name="Imacron" horiz-adv-x="208" 
d="M75 0l95 674h58l-95 -674h-58zM112 840h220l-8 -54h-220z" />
    <glyph glyph-name="kcommaaccent" horiz-adv-x="459" 
d="M281 308l173 -308h-68l-151 278l-88 -78l-28 -200h-59l95 674h59l-57 -407l255 217h71zM110 -198l96 153h72l-113 -153h-55z" />
    <glyph glyph-name="zero.taboldstyle" horiz-adv-x="570" 
d="M281 -10q-67 0 -103 50t-36 141q0 137 57 218.5t151 81.5q69 0 106.5 -50t37.5 -141q0 -136 -57.5 -218t-155.5 -82zM343 430q-47 0 -82 -37t-51.5 -90t-16.5 -112q0 -67 23.5 -109t71.5 -42q73 0 113.5 72.5t40.5 166.5q0 65 -24.5 108t-74.5 43z" />
    <glyph glyph-name="one.taboldstyle" horiz-adv-x="570" 
d="M136 51h138l51 360l-122 -82l-24 42l151 101h58l-59 -421h136l-7 -51h-329z" />
    <glyph glyph-name="two.taboldstyle" horiz-adv-x="570" 
d="M353 422q-103 0 -165 -70l-32 33q80 87 200 87q79 0 123.5 -36t44.5 -91q0 -26 -11 -48.5t-23.5 -36t-41 -30.5t-42 -23.5t-47.5 -21.5l-20 -9l-38 -18q-46 -22 -65.5 -32.5t-44 -31t-31.5 -43.5h312l-7 -51h-372l4 25q14 60 64.5 101.5t128.5 77.5l25 10q156 58 156 124
q0 36 -33.5 60t-84.5 24z" />
    <glyph glyph-name="six.taboldstyle" horiz-adv-x="570" 
d="M545 644l-21 -45q-54 24 -97 24q-109 0 -176 -78t-88 -217q64 105 195 105q86 0 134 -51.5t48 -139.5q0 -119 -71 -187t-179 -68q-55 0 -94.5 23t-59.5 61.5t-28.5 78.5t-8.5 85q0 208 90 321.5t229 113.5q78 0 127 -26zM295 37q60 0 104.5 32.5t64 75t19.5 85.5
q0 61 -33.5 106.5t-107.5 45.5q-84 0 -134.5 -58t-50.5 -137q0 -66 36.5 -108t101.5 -42z" />
    <glyph glyph-name="eight.taboldstyle" horiz-adv-x="570" 
d="M283 -14q-101 0 -152.5 44.5t-51.5 112.5q0 21 7 46.5t24 58.5t54 60t88 37q-51 5 -76.5 46.5t-25.5 90.5q0 75 55 127t123 58l15 2q9 1 36 1q26 0 35 -1l14 -2q55 -6 94 -46t39 -100q0 -57 -39.5 -112.5t-107.5 -63.5q37 -7 63 -26t38 -43.5t17 -46t5 -42.5
q0 -85 -65.5 -143t-188.5 -58zM329 314q-90 0 -141 -47t-51 -108q0 -52 40 -89.5t112 -37.5q86 0 139 47.5t53 108.5q0 52 -39 89t-113 37zM372 624q-80 0 -122.5 -42t-42.5 -99q0 -109 130 -109q146 0 165 128q7 50 -25 86t-105 36z" />
    <glyph glyph-name="three.taboldstyle" horiz-adv-x="570" 
d="M255 -204q-128 0 -200 82l31 40q73 -68 171 -68q83 0 131.5 43.5t48.5 102.5q0 51 -38 87t-109 36h-42l8 56h38q82 0 130 41t48 96q0 48 -36.5 82t-101.5 34q-92 0 -166 -67q-19 39 -19 40q79 79 198 79q81 0 131.5 -41t50.5 -116q0 -57 -42 -112.5t-116 -63.5
q55 -2 90.5 -44.5t35.5 -99.5q0 -90 -74.5 -149.5t-167.5 -57.5z" />
    <glyph glyph-name="four.taboldstyle" horiz-adv-x="570" 
d="M402 -190h-56l20 143h-329l8 55q31 47 66.5 93.5t80 99.5t73.5 86t85 95.5t77 86.5h68l-66 -466h96l-7 -50h-96zM102 3h271l56 395q-224 -231 -327 -395z" />
    <glyph glyph-name="five.taboldstyle" horiz-adv-x="570" 
d="M451 38q0 60 -35.5 108t-101.5 48q-43 0 -75.5 -10.5t-63.5 -43.5h-69q18 62 46.5 178t38.5 151h332l-8 -55h-284l-54 -215q52 48 144 48q82 0 135 -54t53 -141q0 -121 -78 -187.5t-193 -66.5q-66 0 -107.5 23t-79.5 67l35 55q20 -40 60 -66.5t89 -26.5q53 0 94 14.5
t63 35.5t36.5 48t18.5 48.5t4 41.5z" />
    <glyph glyph-name="seven.taboldstyle" horiz-adv-x="570" 
d="M122 414l8 55h442l-9 -63q-134 -145 -227 -287t-171 -309h-69q106 203 192.5 337.5t213.5 266.5h-380z" />
    <glyph glyph-name="nine.taboldstyle" horiz-adv-x="570" 
d="M91 -177l21 45q52 -24 97 -24q109 0 177 78.5t86 216.5q-61 -105 -194 -105q-87 0 -135 51.5t-48 139.5q0 118 71.5 186.5t179.5 68.5q55 0 94.5 -23t59.5 -61.5t28.5 -78.5t8.5 -85q0 -208 -90 -321.5t-229 -113.5q-78 0 -127 26zM341 430q-60 0 -104.5 -32.5t-64 -75
t-19.5 -85.5q0 -61 33.5 -106.5t107.5 -45.5q84 0 134.5 58t50.5 137q0 66 -37 108t-101 42z" />
    <glyph glyph-name="zero.titling" horiz-adv-x="590" 
d="M290 -14q-93 0 -143.5 69.5t-50.5 196.5q0 190 80 304t210 114q97 0 148 -68.5t51 -197.5q0 -190 -80 -304t-215 -114zM379 620q-70 0 -123 -55t-78 -135t-25 -169q0 -99 36 -162.5t108 -63.5q74 0 128 55.5t77.5 134.5t23.5 168q0 99 -36 163t-111 64z" />
    <glyph glyph-name="one.titling" horiz-adv-x="357" 
d="M142 488l-25 42l155 129h67l-92 -659h-59l83 597z" />
    <glyph glyph-name="two.titling" horiz-adv-x="555" 
d="M374 615q-51 0 -101.5 -27t-81.5 -58l-30 42q31 34 87.5 66t129.5 32q87 0 139 -46.5t52 -117.5q0 -111 -105 -183q-29 -20 -126 -74.5t-147.5 -98.5t-59.5 -95h372l-8 -55h-439l3 23q11 55 36.5 98t66 75.5t77.5 55t92 52.5t89 53q49 33 69 64.5t20 72.5
q0 46 -36.5 83.5t-98.5 37.5z" />
    <glyph glyph-name="three.titling" horiz-adv-x="530" 
d="M262 -14q-128 0 -200 82l31 40q73 -68 171 -68q83 0 131.5 43.5t48.5 102.5q0 51 -38 87t-109 36h-42l8 56h38q82 0 130 41t48 96q0 48 -36.5 82t-101.5 34q-92 0 -166 -67q-19 39 -19 40q79 79 198 79q81 0 131.5 -41t50.5 -116q0 -57 -42 -112.5t-116 -63.5
q55 -2 90.5 -44.5t35.5 -99.5q0 -90 -74.5 -149.5t-167.5 -57.5z" />
    <glyph glyph-name="four.titling" horiz-adv-x="550" 
d="M419 0h-56l20 143h-329l8 55q31 47 66.5 93.5t80 99.5t73.5 86t85 95.5t77 86.5h68l-66 -466h96l-7 -50h-96zM119 193h271l56 395q-224 -231 -327 -395z" />
    <glyph glyph-name="five.titling" horiz-adv-x="550" 
d="M468 228q0 60 -35.5 108t-101.5 48q-43 0 -75.5 -10.5t-63.5 -43.5h-69q18 62 46.5 178t38.5 151h332l-8 -55h-284l-54 -215q52 48 144 48q82 0 135 -54t53 -141q0 -121 -78 -187.5t-193 -66.5q-66 0 -107.5 23t-79.5 67l35 55q20 -40 60 -66.5t89 -26.5q53 0 94 14.5
t63 35.5t36.5 48t18.5 48.5t4 41.5z" />
    <glyph glyph-name="six.titling" horiz-adv-x="550" 
d="M535 644l-21 -45q-54 24 -97 24q-109 0 -176 -78t-88 -217q64 105 195 105q86 0 134 -51.5t48 -139.5q0 -119 -71 -187t-179 -68q-55 0 -94.5 23t-59.5 61.5t-28.5 78.5t-8.5 85q0 208 90 321.5t229 113.5q78 0 127 -26zM285 37q60 0 104.5 32.5t64 75t19.5 85.5
q0 61 -33.5 106.5t-107.5 45.5q-84 0 -134.5 -58t-50.5 -137q0 -66 36.5 -108t101.5 -42z" />
    <glyph glyph-name="seven.titling" horiz-adv-x="510" 
d="M119 604l8 55h442l-9 -63q-134 -145 -227 -287t-171 -309h-69q103 198 191 334.5t215 269.5h-380z" />
    <glyph glyph-name="eight.titling" horiz-adv-x="550" 
d="M273 -14q-101 0 -152.5 44.5t-51.5 112.5q0 21 7 46.5t24 58.5t54 60t88 37q-51 5 -76.5 46.5t-25.5 90.5q0 75 55 127t123 58l15 2q9 1 36 1q26 0 35 -1l14 -2q55 -6 94 -46t39 -100q0 -57 -39.5 -112.5t-107.5 -63.5q37 -7 63 -26t38 -43.5t17 -46t5 -42.5
q0 -85 -65.5 -143t-188.5 -58zM319 314q-90 0 -141 -47t-51 -108q0 -52 40 -89.5t112 -37.5q86 0 139 47.5t53 108.5q0 52 -39 89t-113 37zM362 624q-80 0 -122.5 -42t-42.5 -99q0 -109 130 -109q146 0 165 128q7 50 -25 86t-105 36z" />
    <glyph glyph-name="nine.titling" horiz-adv-x="550" 
d="M108 13l21 45q52 -24 97 -24q109 0 177 78.5t86 216.5q-61 -105 -194 -105q-87 0 -135 51.5t-48 139.5q0 118 71.5 186.5t179.5 68.5q55 0 94.5 -23t59.5 -61.5t28.5 -78.5t8.5 -85q0 -208 -90 -321.5t-229 -113.5q-78 0 -127 26zM358 620q-60 0 -104.5 -32.5t-64 -75
t-19.5 -85.5q0 -61 33.5 -106.5t107.5 -45.5q84 0 134.5 58t50.5 137q0 66 -37 108t-101 42z" />
    <glyph glyph-name="zero.denominator" 
d="M158 -8q-54 0 -83 40t-29 112q0 108 45 173.5t121 65.5q57 0 87 -39.5t30 -112.5q0 -108 -46.5 -173.5t-124.5 -65.5zM207 345q-54 0 -86.5 -59.5t-32.5 -134.5q0 -53 19 -87.5t56 -34.5q40 0 68.5 30t40.5 73t12 91q0 53 -19 87.5t-58 34.5z" />
    <glyph glyph-name="one.denominator" horiz-adv-x="280" 
d="M111 268l-18 32l92 77h44l-53 -377h-44l45 324z" />
    <glyph glyph-name="two.denominator" horiz-adv-x="317" 
d="M214 346q-57 0 -104 -50l-19 30q14 20 51 40t76 20q51 0 81.5 -27t30.5 -70q0 -57 -60 -105q-31 -20 -59 -35q-38 -22 -56.5 -33.5t-40.5 -32t-27 -40.5h200l-6 -42h-249l3 20q6 30 18.5 53.5t34.5 42t39.5 29.5t47.5 28q62 35 65 37q48 31 48 70q0 24 -20 44.5t-54 20.5
z" />
    <glyph glyph-name="three.denominator" 
d="M158 -7q-67 0 -117 50l24 31q46 -41 96 -41q45 0 69.5 22.5t24.5 53.5q0 26 -20.5 45t-57.5 19h-29l6 41h27q45 0 69.5 21t24.5 50q0 25 -19 43t-53 18q-50 0 -96 -42l-4 10q-3 10 -10 21q49 49 117 49q47 0 77 -24t30 -68q0 -29 -22.5 -59.5t-58.5 -37.5l1 -2
q29 -2 45.5 -26t16.5 -53q0 -54 -43 -87.5t-98 -33.5z" />
    <glyph glyph-name="four.denominator" 
d="M246 0h-43l11 80h-183l5 36q48 74 201 245l14 16h48l-37 -259h53l-5 -38h-53zM82 118h137l28 198q-108 -113 -165 -198z" />
    <glyph glyph-name="five.denominator" 
d="M263 132q0 31 -18 56t-53 25q-46 0 -73 -31h-49l50 195h194l-6 -42h-157l-23 -95h5q24 14 65 14q48 0 78.5 -31.5t30.5 -82.5q0 -69 -45.5 -108t-111.5 -39q-62 0 -110 55l27 43q31 -57 82 -57q34 0 58.5 10.5t35.5 27.5t15.5 31.5t4.5 28.5z" />
    <glyph glyph-name="six.denominator" 
d="M313 368l-17 -34q-38 14 -58 14q-54 0 -90 -37t-49 -109h5q35 50 98 50q50 0 78.5 -29.5t28.5 -80.5q0 -69 -42 -108.5t-105 -39.5q-61 0 -86 42.5t-25 100.5q0 118 52 182.5t132 64.5q40 0 78 -16zM166 31q47 0 73.5 33t26.5 69q0 32 -18 56.5t-57 24.5
q-43 0 -69.5 -30.5t-26.5 -72.5q0 -36 19 -58t52 -22z" />
    <glyph glyph-name="seven.denominator" 
d="M78 337l6 40h258l-6 -41l1 1q-119 -122 -224 -337h-50q59 112 107 188.5t114 148.5h-206z" />
    <glyph glyph-name="eight.denominator" 
d="M160 -8q-59 0 -88.5 26t-29.5 67q0 27 18.5 61.5t63.5 50.5q-43 21 -43 77q0 43 32.5 73.5t72.5 34.5q6 0 9 1q5 1 20 1t20 -1q3 -1 7 -1q34 -6 57 -29t23 -58q0 -28 -18 -56t-49 -42q54 -23 54 -87q0 -49 -39 -83.5t-110 -34.5zM187 180q-47 0 -74 -27t-27 -60
q0 -28 20.5 -47t58.5 -19q46 0 73.5 25t27.5 58q0 29 -20 49.5t-59 20.5zM210 347q-41 0 -63 -21.5t-22 -51.5q0 -61 66 -61q43 0 65 22.5t22 56.5q0 24 -16 39.5t-52 15.5z" />
    <glyph glyph-name="nine.denominator" 
d="M60 11l18 34q38 -14 57 -14q55 0 91 37t48 109h-5q-34 -50 -99 -50q-50 0 -77.5 29.5t-27.5 80.5q0 69 41.5 108.5t104.5 39.5q61 0 86 -42.5t25 -100.5q0 -118 -52 -182.5t-132 -64.5q-40 0 -78 16zM206 348q-46 0 -72 -33t-26 -69q0 -32 18 -56.5t56 -24.5
q44 0 70 30.5t26 73.5q0 35 -19 57t-53 22z" />
    <glyph glyph-name="zero.numerator" 
d="M200 293q-54 0 -83 40t-29 112q0 108 45 173.5t121 65.5q57 0 87 -39.5t30 -112.5q0 -109 -46 -174t-125 -65zM249 646q-54 0 -86.5 -59.5t-32.5 -134.5q0 -53 19 -87.5t56 -34.5q40 0 68.5 30t40.5 73t12 91q0 53 -19 87.5t-58 34.5z" />
    <glyph glyph-name="one.numerator" horiz-adv-x="280" 
d="M153 569l-18 32l92 77h44l-53 -377h-44l46 326z" />
    <glyph glyph-name="two.numerator" 
d="M255 646q-57 0 -104 -50l-19 30q14 20 51 40t76 20q51 0 81.5 -27t30.5 -70q0 -57 -60 -105q-31 -20 -59 -35q-38 -22 -56.5 -33.5t-40.5 -32t-27 -40.5h200l-6 -42h-249l3 20q6 30 18.5 53.5t34.5 42t39.5 29.5t47.5 28q41 21 65 37q48 31 48 70q0 24 -20 44.5t-54 20.5
z" />
    <glyph glyph-name="three.numerator" 
d="M200 293q-67 0 -117 50l24 31q46 -41 96 -41q45 0 69.5 22.5t24.5 53.5q0 26 -20.5 45t-57.5 19h-29l6 41h27q45 0 69.5 21t24.5 50q0 25 -19 43t-53 18q-50 0 -96 -42l-4 10q-3 10 -10 21q49 49 117 49q47 0 77 -24t30 -68q0 -29 -22.5 -59.5t-58.5 -37.5l1 -2
q29 -2 45.5 -26t16.5 -53q0 -54 -43 -87.5t-98 -33.5z" />
    <glyph glyph-name="four.numerator" 
d="M290 301h-43l11 80h-183l5 36q51 78 200 245l16 16h47l-37 -259h53l-5 -38h-53zM126 419h137l28 198q-108 -113 -165 -198z" />
    <glyph glyph-name="five.numerator" 
d="M304 432q0 31 -18 56t-53 25q-46 0 -73 -31h-49l50 195h194l-6 -42h-157l-23 -95h5q24 14 65 14q48 0 78.5 -31.5t30.5 -82.5q0 -69 -45.5 -108t-111.5 -39q-62 0 -110 55l27 43q31 -57 82 -57q34 0 58.5 10.5t35.5 27.5t15.5 31.5t4.5 28.5z" />
    <glyph glyph-name="six.numerator" 
d="M355 668l-17 -34q-38 14 -58 14q-54 0 -90 -37t-49 -109h5q35 50 98 50q50 0 78.5 -29.5t28.5 -80.5q0 -69 -42 -108.5t-105 -39.5q-61 0 -86 42.5t-25 100.5q0 118 52 182.5t132 64.5q40 0 78 -16zM208 331q47 0 73.5 33t26.5 69q0 32 -18 56.5t-57 24.5
q-43 0 -69.5 -30.5t-26.5 -72.5q0 -36 19 -58t52 -22z" />
    <glyph glyph-name="seven.numerator" 
d="M120 638l6 40h258l-6 -41l1 1q-128 -141 -224 -337h-50q59 112 107 188.5t114 148.5h-206z" />
    <glyph glyph-name="eight.numerator" 
d="M201 293q-59 0 -88.5 26t-29.5 67q0 27 18.5 61.5t63.5 50.5q-43 21 -43 77q0 43 32.5 73.5t72.5 34.5q6 0 9 1q5 1 20 1t20 -1q3 -1 7 -1q34 -6 57 -29t23 -58q0 -28 -18 -56t-49 -42q54 -23 54 -87q0 -49 -39 -83.5t-110 -34.5zM228 481q-47 0 -74 -27t-27 -60
q0 -28 20.5 -47t58.5 -19q46 0 73.5 25t27.5 58q0 29 -20 49.5t-59 20.5zM251 648q-41 0 -63 -21.5t-22 -51.5q0 -61 66 -61q43 0 65 22t22 57q0 24 -16 39.5t-52 15.5z" />
    <glyph glyph-name="nine.numerator" 
d="M102 310l18 34q38 -14 57 -14q55 0 91 37t48 109h-5q-34 -50 -99 -50q-50 0 -77.5 29.5t-27.5 80.5q0 69 41.5 108.5t104.5 39.5q61 0 86 -42.5t25 -100.5q0 -118 -52 -182.5t-132 -64.5q-40 0 -78 16zM248 647q-46 0 -72 -33t-26 -69q0 -32 18 -56.5t56 -24.5
q44 0 70 30.5t26 73.5q0 35 -19 57t-53 22z" />
    <glyph glyph-name="a.alt" horiz-adv-x="546" 
d="M486 425l9 59h59l-68 -484h-58l7 51q-74 -64 -172 -64q-93 0 -145.5 59.5t-52.5 155.5q0 127 76 211t198 84q117 0 147 -72zM348 447q-49 0 -88 -14t-62 -38.5t-38.5 -50.5t-22.5 -55.5t-9.5 -48.5t-2.5 -35q0 -68 34 -117.5t114 -49.5q25 0 50 5t53 18t48 41t26 67
l23 159q6 39 -19.5 68t-55 40t-50.5 11z" />
    <glyph glyph-name="aacute.alt" horiz-adv-x="546" 
d="M324 545l98 129h69l-117 -129h-50zM486 425l9 59h59l-68 -484h-58l7 51q-74 -64 -172 -64q-93 0 -145.5 59.5t-52.5 155.5q0 127 76 211t198 84q117 0 147 -72zM348 447q-49 0 -88 -14t-62 -38.5t-38.5 -50.5t-22.5 -55.5t-9.5 -48.5t-2.5 -35q0 -68 34 -117.5t114 -49.5
q25 0 50 5t53 18t48 41t26 67l23 159q6 39 -19.5 68t-55 40t-50.5 11z" />
    <glyph glyph-name="agrave.alt" horiz-adv-x="546" 
d="M345 674l62 -129h-50l-81 129h69zM486 425l9 59h59l-68 -484h-58l7 51q-74 -64 -172 -64q-93 0 -145.5 59.5t-52.5 155.5q0 127 76 211t198 84q117 0 147 -72zM348 447q-49 0 -88 -14t-62 -38.5t-38.5 -50.5t-22.5 -55.5t-9.5 -48.5t-2.5 -35q0 -68 34 -117.5t114 -49.5
q25 0 50 5t53 18t48 41t26 67l23 159q6 39 -19.5 68t-55 40t-50.5 11z" />
    <glyph glyph-name="acircumflex.alt" horiz-adv-x="546" 
d="M333 674h69l75 -109h-48l-68 67l-85 -67h-48zM486 425l9 59h59l-68 -484h-58l7 51q-74 -64 -172 -64q-93 0 -145.5 59.5t-52.5 155.5q0 127 76 211t198 84q117 0 147 -72zM348 447q-49 0 -88 -14t-62 -38.5t-38.5 -50.5t-22.5 -55.5t-9.5 -48.5t-2.5 -35q0 -68 34 -117.5
t114 -49.5q25 0 50 5t53 18t48 41t26 67l23 159q6 39 -19.5 68t-55 40t-50.5 11z" />
    <glyph glyph-name="adieresis.alt" horiz-adv-x="546" 
d="M267 598l10 76h61l-10 -76h-61zM398 598l10 76h62l-10 -76h-62zM486 425l9 59h59l-68 -484h-58l7 51q-74 -64 -172 -64q-93 0 -145.5 59.5t-52.5 155.5q0 127 76 211t198 84q117 0 147 -72zM348 447q-49 0 -88 -14t-62 -38.5t-38.5 -50.5t-22.5 -55.5t-9.5 -48.5
t-2.5 -35q0 -68 34 -117.5t114 -49.5q25 0 50 5t53 18t48 41t26 67l23 159q6 39 -19.5 68t-55 40t-50.5 11z" />
    <glyph glyph-name="atilde.alt" horiz-adv-x="546" 
d="M324 666q19 0 49.5 -15t50.5 -15q18 0 28.5 8.5t17.5 29.5h37q-6 -37 -29.5 -60t-61.5 -23q-19 0 -47 15t-49 15q-38 0 -46 -35h-39q6 36 29 58t60 22zM486 425l9 59h59l-68 -484h-58l7 51q-74 -64 -172 -64q-93 0 -145.5 59.5t-52.5 155.5q0 127 76 211t198 84
q117 0 147 -72zM348 447q-49 0 -88 -14t-62 -38.5t-38.5 -50.5t-22.5 -55.5t-9.5 -48.5t-2.5 -35q0 -68 34 -117.5t114 -49.5q25 0 50 5t53 18t48 41t26 67l23 159q6 39 -19.5 68t-55 40t-50.5 11z" />
    <glyph glyph-name="aring.alt" horiz-adv-x="546" 
d="M293 645q0 40 24.5 69t71.5 29q72 0 72 -70q0 -43 -23 -71.5t-73 -28.5q-37 0 -54.5 20t-17.5 52zM331 650q0 -41 39 -41q28 0 40.5 17t12.5 41q0 39 -39 39q-27 0 -40 -16t-13 -40zM486 425l9 59h59l-68 -484h-58l7 51q-74 -64 -172 -64q-93 0 -145.5 59.5t-52.5 155.5
q0 127 76 211t198 84q117 0 147 -72zM348 447q-49 0 -88 -14t-62 -38.5t-38.5 -50.5t-22.5 -55.5t-9.5 -48.5t-2.5 -35q0 -68 34 -117.5t114 -49.5q25 0 50 5t53 18t48 41t26 67l23 159q6 39 -19.5 68t-55 40t-50.5 11z" />
    <glyph glyph-name="abreve.alt" horiz-adv-x="546" 
d="M353 538q-65 0 -94 38t-20 98h45q-5 -87 75 -87q82 0 99 87h44q-9 -60 -47 -98t-102 -38zM486 425l9 59h59l-68 -484h-58l7 51q-74 -64 -172 -64q-93 0 -145.5 59.5t-52.5 155.5q0 127 76 211t198 84q117 0 147 -72zM348 447q-49 0 -88 -14t-62 -38.5t-38.5 -50.5
t-22.5 -55.5t-9.5 -48.5t-2.5 -35q0 -68 34 -117.5t114 -49.5q25 0 50 5t53 18t48 41t26 67l23 159q6 39 -19.5 68t-55 40t-50.5 11z" />
    <glyph glyph-name="amacron.alt" horiz-adv-x="546" 
d="M256 650h220l-8 -54h-220zM486 425l9 59h59l-68 -484h-58l7 51q-74 -64 -172 -64q-93 0 -145.5 59.5t-52.5 155.5q0 127 76 211t198 84q117 0 147 -72zM348 447q-49 0 -88 -14t-62 -38.5t-38.5 -50.5t-22.5 -55.5t-9.5 -48.5t-2.5 -35q0 -68 34 -117.5t114 -49.5
q25 0 50 5t53 18t48 41t26 67l23 159q6 39 -19.5 68t-55 40t-50.5 11z" />
    <glyph glyph-name="aogonek.alt" horiz-adv-x="545" 
d="M428 0l7 51q-74 -64 -172 -64q-93 0 -145.5 59.5t-52.5 155.5q0 127 76 211t198 84q117 0 147 -72l9 59h59l-68 -484h-15q-42 -48 -51.5 -88.5t15.5 -57.5t74 -2l42 12l-5 -40q-42 -19 -80 -23q-63 -6 -87.5 32.5t-1.5 92.5q13 32 51 74zM348 447q-49 0 -88 -14
t-62 -38.5t-38.5 -50.5t-22.5 -55.5t-9.5 -48.5t-2.5 -35q0 -68 34 -117.5t114 -49.5q25 0 50 5t53 18t48 41t26 67l23 159q6 39 -19.5 68t-55 40t-50.5 11z" />
    <glyph glyph-name="aringacute.alt" horiz-adv-x="546" 
d="M282 609q0 40 24.5 69t71.5 29q72 0 72 -70q0 -43 -23.5 -71.5t-72.5 -28.5q-37 0 -54.5 20t-17.5 52zM320 614q0 -41 39 -41q28 0 40.5 17t12.5 41q0 39 -39 39q-27 0 -40 -16t-13 -40zM358 741l98 129h69l-117 -129h-50zM486 425l9 59h59l-68 -484h-58l7 51
q-74 -64 -172 -64q-93 0 -145.5 59.5t-52.5 155.5q0 127 76 211t198 84q117 0 147 -72zM348 447q-49 0 -88 -14t-62 -38.5t-38.5 -50.5t-22.5 -55.5t-9.5 -48.5t-2.5 -35q0 -68 34 -117.5t114 -49.5q25 0 50 5t53 18t48 41t26 67l23 159q6 39 -19.5 68t-55 40t-50.5 11z" />
    <glyph glyph-name="T_h" horiz-adv-x="1049" 
d="M1029 288l-40 -288h-59l40 288q23 159 -107 159q-21 0 -45 -5.5t-55.5 -20.5t-54.5 -48.5t-30 -81.5l-41 -291h-59l87 620h-290l-87 -620h-58l87 620h-225l8 54h632l-37 -260q28 37 67.5 57t63.5 23t57 3q175 0 146 -209z" />
    <glyph glyph-name="c_t" horiz-adv-x="743" 
d="M409 534l-6 -41q39 -4 72 -17l-19 -47q-46 16 -111 16q-63 0 -108 -22t-68 -59t-32.5 -76.5t-9.5 -85.5q0 -73 38 -118.5t123 -45.5q63 0 116 17q1 -9 2 -24t3 -23q-54 -22 -136 -22q-99 0 -153.5 56.5t-54.5 156.5q0 136 76 217t204 81h1l4 28q6 42 22 72t33 44.5
t39.5 22.5t33 9t21.5 1h188l-27 -190h118l-7 -47h-118l-42 -298q-3 -26 -4 -49.5t17.5 -39.5t59.5 -16q19 0 38 5l1 -39q-31 -13 -65 -13q-15 0 -24.5 1t-30 8.5t-31.5 21.5t-18 44.5t-1 73.5l42 301h-83l7 47h83l20 143h-118q-27 0 -46 -9.5t-28.5 -26t-13.5 -29t-7 -28.5z
" />
    <glyph glyph-name="asuperior" horiz-adv-x="288" 
d="M320 430h-52l4 29q-11 -15 -42 -26t-53 -11q-40 0 -68 20.5t-28 57.5q0 60 52 86t162 32l3 20v1v9t-2.5 13t-8 15t-17 11t-27.5 5q-55 0 -97 -20l-7 36l7 2q6 3 16.5 6.5t23.5 7t30.5 6t34.5 2.5h5.5t9.5 -0.5t12.5 -1.5t14.5 -3t15 -5.5t14.5 -8.5t12.5 -11.5t9.5 -15.5
t5.5 -20.5t-1 -25.5zM190 463q8 0 19.5 2t28.5 8t29.5 20.5t15.5 35.5l7 50q-151 -11 -158 -65q-2 -24 14 -37.5t44 -13.5z" />
    <glyph glyph-name="bsuperior" horiz-adv-x="322" 
d="M197 836l-20 -140q38 36 91 36q60 0 90 -34t30 -93q0 -79 -42.5 -131t-117.5 -52q-62 0 -84 39l-4 -31h-52l57 406h52zM253 692q-20 0 -51 -17t-34 -47l-13 -94q-4 -28 10.5 -44.5t31 -21t35.5 -4.5q32 0 54.5 15.5t31.5 40t12.5 43.5t3.5 37q0 35 -18 63.5t-63 28.5z
" />
    <glyph glyph-name="csuperior" horiz-adv-x="263" 
d="M92 551q0 85 46.5 133t127.5 48q54 0 85 -14l-14 -38q-30 11 -73 11q-65 0 -91.5 -40t-26.5 -96q0 -91 86 -91q40 0 76 11q1 -10 1.5 -18.5t1 -12t1.5 -6.5q-39 -16 -90 -16q-62 0 -96 34t-34 95z" />
    <glyph glyph-name="dsuperior" horiz-adv-x="321" 
d="M338 691l21 145h52l-57 -406h-52l4 30q-45 -38 -94 -38q-58 0 -87 34.5t-29 93.5q0 80 42 131t120 51q55 0 80 -41zM263 692q-59 0 -86.5 -43.5t-27.5 -96.5q0 -36 16 -62t55 -26q13 0 26 2.5t29 9.5t27 22t14 36l14 94q3 30 -22 47t-45 17z" />
    <glyph glyph-name="esuperior" horiz-adv-x="312" 
d="M220 422q-58 0 -92.5 35t-34.5 97q0 75 48.5 126.5t115.5 51.5q55 0 88.5 -34.5t33.5 -93.5q0 -25 -7 -44h-226q-4 -43 20.5 -69.5t71.5 -26.5q41 0 87 17l11 -35q-54 -24 -116 -24zM251 692q-33 0 -62 -27.5t-37 -64.5h175q4 44 -18 68t-58 24z" />
    <glyph glyph-name="fsuperior" horiz-adv-x="160" 
d="M108 725h44l4 25q12 93 96 93q18 0 43 -12l-14 -32q-20 7 -26 7q-38 0 -47 -49l-5 -32h59l-5 -39h-59l-36 -256h-52l37 256h-44z" />
    <glyph glyph-name="gsuperior" horiz-adv-x="322" 
d="M228 464q21 0 50 14t34 43l14 103q5 40 -19.5 54t-57.5 14q-50 0 -76 -42.5t-26 -97.5q0 -88 81 -88zM296 411l6 45q-34 -34 -84 -34q-58 0 -91.5 32.5t-33.5 94.5q0 89 45 136t115 47q56 0 83 -37l4 30h52l-45 -323q-8 -51 -49 -73t-97 -22q-67 0 -104 22l17 37
q37 -18 88 -18q29 0 48.5 5.5t28.5 16t12.5 19.5t4.5 22z" />
    <glyph glyph-name="isuperior" horiz-adv-x="107" 
d="M87 430l41 295h52l-41 -295h-52zM135 774l9 62h52l-9 -62h-52z" />
    <glyph glyph-name="ksuperior" horiz-adv-x="282" 
d="M236 615l104 -185h-57l-85 158l-41 -36l-17 -122h-52l57 406h52l-32 -226l135 115h61z" />
    <glyph glyph-name="lsuperior" horiz-adv-x="107" 
d="M87 430l57 406h52l-57 -406h-52z" />
    <glyph glyph-name="msuperior" horiz-adv-x="469" 
d="M269 430l27 183q4 32 -10 55.5t-47 23.5q-28 0 -52 -21t-31 -72l-24 -169h-52l41 295h49l-5 -38q35 45 88 45q58 0 80 -46q35 46 100 46q118 0 102 -119l-26 -183h-52l24 174q12 88 -54 88q-7 0 -17.5 -3t-25 -10.5t-25.5 -24.5t-14 -41l-26 -183h-50z" />
    <glyph glyph-name="osuperior" horiz-adv-x="311" 
d="M91 551q0 84 45.5 132.5t121.5 48.5q60 0 92 -34t32 -95q0 -83 -46 -132t-122 -49q-59 0 -91 34t-32 95zM330 595q0 41 -20 69t-58 28q-48 0 -78.5 -40.5t-30.5 -92.5q0 -41 20 -69.5t57 -28.5q48 0 79 41.5t31 92.5z" />
    <glyph glyph-name="psuperior" horiz-adv-x="322" 
d="M145 461l-21 -148h-52l58 412h52l-5 -33q45 40 95 40q58 0 87.5 -34t29.5 -93q0 -79 -43.5 -131t-120.5 -52q-61 0 -80 39zM221 463q60 0 86.5 43t26.5 96q0 90 -70 90q-31 0 -61.5 -16t-35.5 -56l-13 -92q-3 -30 22 -47.5t45 -17.5z" />
    <glyph glyph-name="qsuperior" horiz-adv-x="322" 
d="M282 313l21 147q-18 -18 -45 -28t-46 -10q-59 0 -89 34.5t-30 93.5q0 80 41.5 131t117.5 51q56 0 83 -42l5 35h52l-58 -412h-52zM227 463q20 0 50.5 17.5t35.5 47.5l12 92q5 40 -19.5 56t-56.5 16t-54.5 -15.5t-32 -40.5t-13 -44.5t-3.5 -37.5q0 -34 18 -62.5t63 -28.5z
" />
    <glyph glyph-name="rsuperior" horiz-adv-x="175" 
d="M257 732h19l-6 -45h-24q-29 0 -51 -19.5t-28 -56.5l-25 -181h-51l41 295h48l-5 -36q35 43 82 43z" />
    <glyph glyph-name="ssuperior" horiz-adv-x="252" 
d="M254 492h-1q13 34 -11 46q-20 8 -32.5 14t-18.5 8q-5 2 -17.5 6t-17.5 7q-58 28 -43 91q10 30 41 49.5t72 19.5q56 0 99 -31l-24 -34q-39 24 -78 24q-29 0 -45 -13t-16 -31q0 -26 42 -40l56 -24q53 -21 53 -66q0 -43 -36.5 -69.5t-86.5 -26.5q-61 0 -113 40l27 33
q48 -32 87 -32q46 0 63 29z" />
    <glyph glyph-name="tsuperior" horiz-adv-x="183" 
d="M145 686h-49l5 39h49l11 76h51l-11 -76h69l-5 -39h-69l-24 -169q-6 -20 0 -38t35 -18q5 0 30 5l1 -32q-28 -12 -48 -12q-10 0 -16.5 0.5t-19.5 5.5t-20.5 14t-12 28t-0.5 46z" />
    <glyph glyph-name="usuperior" horiz-adv-x="299" 
d="M98 552l24 173h52l-24 -173q-14 -89 60 -89q14 0 28.5 2.5t36.5 21.5t27 53l26 185h53l-41 -295h-49l4 31q-12 -14 -34.5 -24t-36.5 -12.5t-20 -2.5q-60 0 -87.5 29.5t-18.5 100.5z" />
    <glyph glyph-name="vsuperior" horiz-adv-x="319" 
d="M250 430h-58l-85 295h53l66 -248l138 248h52z" />
    <glyph glyph-name="zsuperior" horiz-adv-x="290" 
d="M80 430l6 42l219 215h-182l5 38h243l-5 -42l-219 -214h181l-5 -39h-243z" />
    <glyph glyph-name="zero.oldstyle" horiz-adv-x="442" 
d="M217 -10q-67 0 -103 50t-36 141q0 137 57 218.5t151 81.5q69 0 106.5 -50t37.5 -141q0 -136 -57.5 -218t-155.5 -82zM279 430q-47 0 -82 -37t-51.5 -90t-16.5 -112q0 -67 23.5 -109t71.5 -42q73 0 113.5 72.5t40.5 166.5q0 65 -24.5 108t-74.5 43z" />
    <glyph glyph-name="one.oldstyle" horiz-adv-x="396" 
d="M50 51h138l51 360l-122 -82l-24 42l151 101h58l-59 -421h136l-7 -51h-329z" />
    <glyph glyph-name="two.oldstyle" horiz-adv-x="473" 
d="M300 422q-103 0 -165 -70l-32 33q80 87 200 87q79 0 123.5 -36t44.5 -91q0 -26 -11 -48.5t-23.5 -36t-41 -30.5t-42 -23.5t-47.5 -21.5l-20 -9l-38 -18q-46 -22 -65.5 -32.5t-44 -31t-31.5 -43.5h312l-7 -51h-372l4 25q14 60 64.5 101.5t128.5 77.5l25 10q156 58 156 124
q0 36 -33.5 60t-84.5 24z" />
    <glyph glyph-name="three.oldstyle" horiz-adv-x="483" 
d="M201 -204q-128 0 -200 82l31 40q73 -68 171 -68q83 0 131.5 43.5t48.5 102.5q0 51 -38 87t-109 36h-42l8 56h38q82 0 130 41t48 96q0 48 -36.5 82t-101.5 34q-92 0 -166 -67q-19 39 -19 40q79 79 198 79q81 0 131.5 -41t50.5 -116q0 -57 -42 -112.5t-116 -63.5
q55 -2 90.5 -44.5t35.5 -99.5q0 -90 -74.5 -149.5t-167.5 -57.5z" />
    <glyph glyph-name="four.oldstyle" horiz-adv-x="541" 
d="M388 -190h-56l20 143h-329l8 55q31 47 66.5 93.5t80 99.5t73.5 86t85 95.5t77 86.5h68l-66 -466h96l-7 -50h-96zM88 3h271l56 395q-224 -231 -327 -395z" />
    <glyph glyph-name="five.oldstyle" horiz-adv-x="516" 
d="M424 38q0 60 -35.5 108t-101.5 48q-43 0 -75.5 -10.5t-63.5 -43.5h-69q18 62 46.5 178t38.5 151h332l-8 -55h-284l-54 -215q52 48 144 48q82 0 135 -54t53 -141q0 -121 -78 -187.5t-193 -66.5q-66 0 -107.5 23t-79.5 67l35 55q20 -40 60 -66.5t89 -26.5q53 0 94 14.5
t63 35.5t36.5 48t18.5 48.5t4 41.5z" />
    <glyph glyph-name="six.oldstyle" horiz-adv-x="526" 
d="M523 644l-21 -45q-54 24 -97 24q-109 0 -176 -78t-88 -217q64 105 195 105q86 0 134 -51.5t48 -139.5q0 -119 -71 -187t-179 -68q-55 0 -94.5 23t-59.5 61.5t-28.5 78.5t-8.5 85q0 208 90 321.5t229 113.5q78 0 127 -26zM273 37q60 0 104.5 32.5t64 75t19.5 85.5
q0 61 -33.5 106.5t-107.5 45.5q-84 0 -134.5 -58t-50.5 -137q0 -66 36.5 -108t101.5 -42z" />
    <glyph glyph-name="seven.oldstyle" horiz-adv-x="482" 
d="M78 414l8 55h442l-9 -63q-134 -145 -227 -287t-171 -309h-69q106 203 192.5 337.5t213.5 266.5h-380z" />
    <glyph glyph-name="eight.oldstyle" horiz-adv-x="544" 
d="M270 -14q-101 0 -152.5 44.5t-51.5 112.5q0 21 7 46.5t24 58.5t54 60t88 37q-51 5 -76.5 46.5t-25.5 90.5q0 75 55 127t123 58l15 2q9 1 36 1q26 0 35 -1l14 -2q55 -6 94 -46t39 -100q0 -57 -39.5 -112.5t-107.5 -63.5q37 -7 63 -26t38 -43.5t17 -46t5 -42.5
q0 -85 -65.5 -143t-188.5 -58zM316 314q-90 0 -141 -47t-51 -108q0 -52 40 -89.5t112 -37.5q86 0 139 47.5t53 108.5q0 52 -39 89t-113 37zM359 624q-80 0 -122.5 -42t-42.5 -99q0 -109 130 -109q146 0 165 128q7 50 -25 86t-105 36z" />
    <glyph glyph-name="nine.oldstyle" horiz-adv-x="526" 
d="M69 -177l21 45q52 -24 97 -24q109 0 177 78.5t86 216.5q-61 -105 -194 -105q-87 0 -135 51.5t-48 139.5q0 118 71.5 186.5t179.5 68.5q55 0 94.5 -23t59.5 -61.5t28.5 -78.5t8.5 -85q0 -208 -90 -321.5t-229 -113.5q-78 0 -127 26zM319 430q-60 0 -104.5 -32.5t-64 -75
t-19.5 -85.5q0 -61 33.5 -106.5t107.5 -45.5q84 0 134.5 58t50.5 137q0 66 -37 108t-101 42z" />
    <glyph glyph-name="zero.pzero" horiz-adv-x="555" 
d="M135 44l-32 -44h-48l57 78q-33 57 -33 173q0 190 80 304.5t210 114.5q86 0 136 -53l41 57h47l-64 -87q39 -62 39 -183q0 -190 -80 -304t-215 -114q-89 0 -138 58zM152 134l316 434q-39 52 -106 52q-70 0 -123 -55t-78 -135t-25 -169q0 -80 16 -127zM488 530l-317 -436
q38 -59 109 -59q74 0 128 55.5t77.5 134t23.5 167.5t-21 138z" />
    <glyph glyph-name="zero.tzero" horiz-adv-x="555" 
d="M152 134l316 434q-39 52 -106 52q-70 0 -123 -55t-78 -135t-25 -169q0 -80 16 -127zM135 44l-32 -44h-48l57 78q-33 57 -33 173q0 190 80 304.5t210 114.5q83 0 136 -53l41 57h47l-64 -87q39 -62 39 -183q0 -190 -80 -304t-215 -114q-89 0 -138 58zM488 530l-317 -436
q38 -59 109 -59q74 0 128 55.5t77.5 134t23.5 167.5t-21 138z" />
    <glyph glyph-name="triangleup" horiz-adv-x="540" 
d="M503 162h-420l259 346z" />
    <glyph glyph-name="triangledown" horiz-adv-x="540" 
d="M131 508h420l-259 -346z" />
    <glyph glyph-name="zero.ozero" horiz-adv-x="442" 
d="M366 380l-212 -292q23 -48 78 -48q73 0 113 72.5t40 165.5q0 65 -19 102zM140 134l202 277q-23 19 -56 19q-47 0 -82 -37t-51.5 -90.5t-16.5 -112.5q0 -36 4 -56zM442 484l-40 -54q35 -47 35 -140q0 -136 -57.5 -218t-154.5 -82q-70 0 -106 50l-29 -40h-48l57 78
q-14 39 -14 103q0 137 57.5 218.5t151.5 81.5q48 0 81 -24l20 27h47z" />
    <glyph glyph-name="zero.tozero" horiz-adv-x="570" 
d="M430 380l-212 -292q23 -48 78 -48q73 0 113 72.5t40 165.5q0 65 -19 102zM204 134l202 277q-23 19 -56 19q-47 0 -82 -37t-51.5 -90.5t-16.5 -112.5q0 -36 4 -56zM506 484l-40 -54q35 -47 35 -140q0 -136 -57.5 -218t-154.5 -82q-70 0 -106 50l-29 -40h-48l57 78
q-14 39 -14 103q0 137 57.5 218.5t151.5 81.5q48 0 81 -24l20 27h47z" />
    <glyph glyph-name="A.small" horiz-adv-x="474" 
d="M72 0h-62l263 472h61l130 -472h-61l-31 112h-239zM294 405l-135 -243h202z" />
    <glyph glyph-name="B.small" horiz-adv-x="415" 
d="M281 212h-155l-23 -161h155q46 0 72 26t26 62q0 30 -19 51.5t-56 21.5zM425 366q0 -78 -67 -122q27 -11 44 -39.5t17 -62.5q0 -51 -41 -96.5t-109 -45.5h-232l66 472h208q59 0 86.5 -30t27.5 -76zM133 263h146q33 2 53 19.5t25.5 35t5.5 36.5q0 68 -73 68h-135z" />
    <glyph glyph-name="C.small" horiz-adv-x="417" 
d="M55 201q0 116 77 197t196 81q85 0 135 -23l-12 -22l-13 -21q-50 16 -102 16q-108 0 -163 -68t-55 -155q0 -70 39.5 -117t124.5 -47q54 0 110 16l5 -29q0 -2 1 -4l4 -9q-57 -25 -142 -25q-96 0 -150.5 59.5t-54.5 150.5z" />
    <glyph glyph-name="D.small" horiz-adv-x="460" 
d="M206 0h-169l66 472h169q98 0 151.5 -49t53.5 -146q0 -134 -72.5 -205.5t-198.5 -71.5zM105 51h110q88 0 145 54.5t57 165.5q0 78 -40.5 114.5t-110.5 36.5h-109z" />
    <glyph glyph-name="E.small" horiz-adv-x="372" 
d="M352 0h-315l66 472h310l-7 -50h-251l-22 -158h232l-7 -51h-232l-23 -162h256z" />
    <glyph glyph-name="F.small" horiz-adv-x="351" 
d="M96 0h-59l66 472h293l-7 -50h-234l-22 -158h216l-7 -51h-216z" />
    <glyph glyph-name="G.small" horiz-adv-x="469" 
d="M411 198h-100l8 51h154l-32 -226q-61 -31 -168 -31q-104 0 -163 60t-59 153q0 115 82 194.5t209 79.5q86 0 144 -36l-28 -45q-50 32 -106 32q-116 0 -177.5 -66t-61.5 -151q0 -70 44.5 -119.5t131.5 -49.5q53 0 103 15z" />
    <glyph glyph-name="H.small" horiz-adv-x="459" 
d="M387 223h-252l-31 -223h-59l66 472h59l-28 -199h252l28 199h58l-66 -472h-58z" />
    <glyph glyph-name="I.small" horiz-adv-x="149" 
d="M45 0l66 472h59l-66 -472h-59z" />
    <glyph glyph-name="J.small" horiz-adv-x="275" 
d="M0 17l17 45q58 -20 90 -20q27 0 46 8h-1q21 11 30 28.5t14 53.5l48 340h57l-49 -345q-20 -135 -145 -135q-60 0 -107 25z" />
    <glyph glyph-name="K.small" horiz-adv-x="396" 
d="M391 0h-73l-130 215l-72 -71l-20 -144h-59l66 472h59l-34 -246q34 37 73 78.5t85.5 90.5t72.5 77h70l-198 -212z" />
    <glyph glyph-name="L.small" horiz-adv-x="355" 
d="M162 472l-59 -421h234l-7 -52h-293l66 473h59z" />
    <glyph glyph-name="M.small" horiz-adv-x="583" 
d="M261 0l-111 378l-65 -378h-61l85 472h72l117 -398q41 72 120.5 210.5t107.5 187.5h72l-48 -472h-59l41 382l-217 -382h-54z" />
    <glyph glyph-name="N.small" horiz-adv-x="465" 
d="M356 0l-197 386l-54 -386h-60l66 472h71l192 -383l53 383h59l-66 -472h-64z" />
    <glyph glyph-name="O.small" horiz-adv-x="501" 
d="M250 -9q-93 0 -144 54t-51 150q0 129 73 206.5t191 77.5q93 0 143.5 -53t50.5 -149q0 -129 -72.5 -207.5t-190.5 -78.5zM312 432q-89 0 -141.5 -68.5t-52.5 -162.5q0 -72 36 -116.5t103 -44.5q90 0 141.5 66t51.5 162q0 72 -35 118t-103 46z" />
    <glyph glyph-name="P.small" horiz-adv-x="393" 
d="M277 185h-155l-26 -185h-59l66 472h210q61 0 88 -37t27 -89q0 -11 -3 -27t-12.5 -40.5t-25 -44.5t-44.5 -34.5t-66 -14.5zM129 235h145q35 0 57.5 20.5t29 42t6.5 41.5q0 36 -19 59.5t-60 23.5h-133z" />
    <glyph glyph-name="Q.small" horiz-adv-x="501" 
d="M297 -9h-47q-93 0 -144 54t-51 150q0 129 73 206.5t191 77.5q93 0 143.5 -53t50.5 -149q0 -181 -153 -263q38 -33 91 -33h23l-7 -45h-20q-41 0 -73 10t-45.5 19.5t-31.5 25.5zM312 432q-89 0 -141.5 -68.5t-52.5 -162.5q0 -72 36 -116.5t103 -44.5q90 0 141.5 66
t51.5 162q0 72 -35 118t-103 46z" />
    <glyph glyph-name="R.small" horiz-adv-x="414" 
d="M429 352q0 -13 -3.5 -29.5t-12.5 -39t-30 -43t-52 -31.5q16 -10 22 -21.5t12 -42.5l33 -145h-64l-34 149q-10 42 -58 42h-119l-27 -191h-59l66 472h202q68 0 96 -34.5t28 -85.5zM130 241h145q50 0 72.5 33t22.5 68t-18.5 57.5t-58.5 22.5h-138z" />
    <glyph glyph-name="S.small" horiz-adv-x="393" 
d="M261 479q90 0 150 -49l-29 -47q-67 46 -127 46q-81 0 -108 -63q-7 -23 1.5 -39.5t21 -23.5t38.5 -18l113 -47q82 -31 70 -108q-9 -62 -63 -100t-121 -38q-103 0 -179 63l34 46q67 -58 150 -58q36 0 67.5 16t44.5 49q22 55 -37 82q-25 9 -72 27.5t-59 23.5
q-43 16 -62.5 49.5t-7.5 80.5q15 49 62.5 78.5t112.5 29.5z" />
    <glyph glyph-name="T.small" horiz-adv-x="385" 
d="M434 422h-152l-59 -422h-60l59 422h-153l7 50h365z" />
    <glyph glyph-name="U.small" horiz-adv-x="480" 
d="M239 -9q-95 0 -138 48t-28 158l38 275h61l-38 -271q-11 -85 14.5 -124t96.5 -39t109 39.5t49 123.5l38 271h60l-38 -275q-28 -206 -224 -206z" />
    <glyph glyph-name="V.small" horiz-adv-x="429" 
d="M71 472h58l96 -399l206 399h59l-245 -472h-62z" />
    <glyph glyph-name="W.small" horiz-adv-x="654" 
d="M423 455l61 -364l168 381h63l-211 -472h-63l-63 363l-163 -363h-65l-79 472h63l60 -383l165 366h64z" />
    <glyph glyph-name="X.small" horiz-adv-x="427" 
d="M351 0l-112 188l-164 -188h-70l209 233l-136 239h70l104 -193l158 193h70l-201 -239l143 -233h-71z" />
    <glyph glyph-name="Y.small" horiz-adv-x="443" 
d="M252 0h-61l23 165l-138 307h69l107 -248l176 248h71l-224 -307z" />
    <glyph glyph-name="Z.small" horiz-adv-x="403" 
d="M371 0h-357l8 57l346 365h-283l7 50h358l-7 -55l-354 -365h289z" />
    <glyph glyph-name="Eth.small" horiz-adv-x="523" 
d="M158 472h167q100 0 153 -49t53 -146q0 -133 -73 -205t-199 -72h-167l29 206h-71l6 42h71zM158 51h111q88 0 145.5 55t57.5 165q0 77 -40.5 114t-112.5 37h-109l-24 -174h147l-6 -42h-147z" />
    <glyph glyph-name="Lslash.small" horiz-adv-x="396" 
d="M77 -1l24 174l-88 -53l8 56l88 51l34 245h59l-28 -203l10 8q61 40 78 49l-9 -63l-87 -52l-23 -160h234l-7 -52h-293z" />
    <glyph glyph-name="Scaron.small" horiz-adv-x="384" 
d="M252 479q90 0 150 -49l-28 -47q-67 46 -128 46q-82 0 -108 -64v1q-3 -10 -3 -19t1.5 -15.5t7 -13t10.5 -10.5t14.5 -9t15 -7t16.5 -7l113 -47h-1q82 -31 70 -108q-9 -62 -62 -100t-121 -38q-104 0 -180 63l13 19q0 1 -5 -3l27 30q67 -58 150 -58q36 0 67 16t44 49
q21 55 -38 82h1q-24 9 -69 27t-61 24q-44 16 -63 49.5t-7 80.5q14 49 62 78.5t112 29.5zM290 513h-59l-61 89h55l41 -43l54 43h55z" />
    <glyph glyph-name="Yacute.small" horiz-adv-x="443" 
d="M243 500l78 102h70l-92 -102h-56zM252 0h-61l23 165l-138 307h69l107 -248l176 248h71l-224 -307z" />
    <glyph glyph-name="Zcaron.small" horiz-adv-x="403" 
d="M371 0h-357l8 57l346 365h-283l7 50h358l-7 -55l-354 -365h289zM299 513h-58l-60 89h55l41 -43l54 43h54z" />
    <glyph glyph-name="Thorn.small" horiz-adv-x="374" 
d="M162 472l-13 -98q40 30 102 30q63 0 100 -36t37 -108q0 -101 -52 -155t-134 -54q-62 0 -96 27l-11 -78h-58l66 472h59zM233 358q-23 0 -55.5 -17.5t-41.5 -52.5l-15 -109q-5 -32 11 -51.5t35.5 -25t41.5 -5.5q59 0 87.5 48.5t28.5 111.5q0 101 -92 101z" />
    <glyph glyph-name="Adieresis.small" horiz-adv-x="474" 
d="M72 0h-62l263 472h61l130 -472h-61l-31 112h-239zM294 405l-135 -243h202zM237 536l10 66h60l-10 -66h-60zM325 536l10 66h63l-10 -66h-63z" />
    <glyph glyph-name="Aring.small" horiz-adv-x="474" 
d="M252 574q0 32 19 53t57 21q59 0 59 -54q0 -31 -19.5 -53t-57.5 -22q-29 0 -43.5 15.5t-14.5 39.5zM298 578q0 -21 17 -21q26 0 26 32q0 20 -18 20q-25 0 -25 -31zM72 0h-62l263 472h61l130 -472h-61l-31 112h-239zM294 405l-135 -243h202z" />
    <glyph glyph-name="Ccedilla.small" horiz-adv-x="412" 
d="M50 201q0 116 77 197t196 81q85 0 135 -23l-12 -22l-13 -21q-50 16 -102 16q-108 0 -163 -68t-55 -155q0 -70 39.5 -117t124.5 -47q54 0 110 16l5 -29q0 -6 5 -14q-44 -18 -121 -24q9 -17 11 -33q2 -38 -25.5 -67.5t-70.5 -25.5q-29 5 -58 19l5 41l40 -12q24 -8 39.5 1.5
t15.5 32.5q0 24 -11 45q-82 9 -127 67t-45 142z" />
    <glyph glyph-name="Eacute.small" horiz-adv-x="372" 
d="M352 0h-315l66 472h310l-7 -50h-251l-22 -158h232l-7 -51h-232l-23 -162h256zM216 500l78 102h69l-92 -102h-55z" />
    <glyph glyph-name="Ntilde.small" horiz-adv-x="465" 
d="M356 0l-196 390l-55 -390h-60l66 472h71l191 -388l54 388h59l-66 -472h-64zM282 596q20 0 37 -11q22 -10 31 -10q12 0 22 27h44q-6 -32 -24.5 -51t-49.5 -19q-18 0 -36 10q-17 10 -29 10q-15 0 -24 -24h-44q12 68 73 68z" />
    <glyph glyph-name="Odieresis.small" horiz-adv-x="501" 
d="M252 536l9 66h60l-9 -66h-60zM340 536l9 66h62l-9 -66h-62zM250 -9q-93 0 -144 54t-51 150q0 129 73 206.5t191 77.5q93 0 143.5 -53t50.5 -149q0 -129 -72.5 -207.5t-190.5 -78.5zM312 432q-89 0 -141.5 -68.5t-52.5 -162.5q0 -72 36 -116.5t103 -44.5q90 0 141.5 66
t51.5 162q0 72 -35 118t-103 46z" />
    <glyph glyph-name="Udieresis.small" horiz-adv-x="480" 
d="M237 536l9 66h61l-9 -66h-61zM326 536l9 66h62l-9 -66h-62zM239 -9q-95 0 -138 48t-28 158l39 275h60l-38 -271q-11 -85 14.5 -124t96.5 -39t109 39.5t49 123.5l38 271h61l-39 -275q-28 -206 -224 -206z" />
    <glyph glyph-name="AE.small" horiz-adv-x="646" 
d="M338 422l-169 -260h165l36 260h-32zM376 51h257l-7 -51h-315l16 112h-185l-73 -112h-64l300 472h381l-7 -50h-250l-22 -158h231l-7 -51h-232z" />
    <glyph glyph-name="Oslash.small" horiz-adv-x="513" 
d="M118 198q0 -69 23 -105l255 312q-34 27 -84 27q-90 0 -142 -69t-52 -165zM34 -41l67 88q-46 56 -46 151q0 128 72.5 204.5t191.5 76.5q70 0 114 -28l49 56h58l-72 -85q44 -57 44 -150q0 -126 -72 -203.5t-190 -77.5q-66 0 -113 26l-46 -58h-57zM426 372l-253 -310
q34 -22 84 -22q90 0 141.5 66t51.5 164q0 62 -24 102z" />
    <glyph glyph-name="Agrave.small" horiz-adv-x="474" 
d="M287 602l48 -102h-56l-61 102h69zM72 0h-62l263 472h61l130 -472h-61l-31 112h-239zM294 405l-135 -243h202z" />
    <glyph glyph-name="Atilde.small" horiz-adv-x="474" 
d="M286 596q20 0 37 -11q22 -10 31 -10q11 0 23 27h43q-6 -32 -24.5 -51t-49.5 -19q-18 0 -36 10q-17 10 -29 10q-16 0 -23 -24h-45q12 68 73 68zM72 0h-62l263 472h61l130 -472h-61l-31 112h-239zM294 405l-135 -243h202z" />
    <glyph glyph-name="Otilde.small" horiz-adv-x="501" 
d="M296 596q11 0 37 -12q16 -9 30 -9q15 0 24 27h44q-6 -31 -25 -50.5t-49 -19.5q-19 0 -35 10q-18 10 -31 10q-15 0 -22 -24h-45q12 68 72 68zM250 -9q-93 0 -144 54t-51 150q0 129 73 206.5t191 77.5q93 0 143.5 -53t50.5 -149q0 -129 -72.5 -207.5t-190.5 -78.5zM312 432
q-89 0 -141.5 -68.5t-52.5 -162.5q0 -72 36 -116.5t103 -44.5q90 0 141.5 66t51.5 162q0 72 -35 118t-103 46z" />
    <glyph glyph-name="OE.small" horiz-adv-x="749" 
d="M311 432q-89 0 -141 -68.5t-52 -162.5q0 -72 35.5 -116t102.5 -44q92 0 141 66t49 164q0 71 -33.5 116t-101.5 45zM414 0l10 66q-32 -36 -80.5 -55t-94.5 -19q-93 0 -143.5 53.5t-50.5 149.5q0 129 72.5 206.5t190.5 77.5q112 0 154 -73l9 66h310l-7 -50h-251l-22 -158
h232l-8 -51h-232l-22 -162h256l-8 -51h-315z" />
    <glyph glyph-name="Ydieresis.small" horiz-adv-x="443" 
d="M223 536l9 66h61l-9 -66h-61zM313 536l9 66h61l-9 -66h-61zM252 0h-61l23 165l-138 307h69l107 -248l176 248h71l-224 -307z" />
    <glyph glyph-name="Acircumflex.small" horiz-adv-x="474" 
d="M72 0h-62l263 472h61l130 -472h-61l-31 112h-239zM294 405l-135 -243h202zM293 602h58l60 -89h-54l-41 43l-54 -43h-55z" />
    <glyph glyph-name="Ecircumflex.small" horiz-adv-x="372" 
d="M352 0h-315l66 472h310l-7 -50h-251l-22 -158h232l-7 -51h-232l-23 -162h256zM243 602h59l59 -89h-53l-43 43q-14 -13 -54 -43h-54z" />
    <glyph glyph-name="Aacute.small" horiz-adv-x="474" 
d="M72 0h-62l263 472h61l130 -472h-61l-31 112h-239zM294 405l-135 -243h202zM282 500l78 102h69l-92 -102h-55z" />
    <glyph glyph-name="Edieresis.small" horiz-adv-x="372" 
d="M352 0h-315l66 472h310l-7 -50h-251l-22 -158h232l-7 -51h-232l-23 -162h256zM189 536l10 66h61l-10 -66h-61zM278 536l10 66h61l-10 -66h-61z" />
    <glyph glyph-name="Egrave.small" horiz-adv-x="372" 
d="M260 602l48 -102h-55l-62 102h69zM352 0h-315l66 472h310l-7 -50h-251l-22 -158h232l-7 -51h-232l-23 -162h256z" />
    <glyph glyph-name="Iacute.small" horiz-adv-x="146" 
d="M42 0l66 472h60l-66 -472h-60zM112 500l79 102h69l-92 -102h-56z" />
    <glyph glyph-name="Icircumflex.small" horiz-adv-x="146" 
d="M43 0l66 472h59l-66 -472h-59zM128 602h59l60 -89h-54l-42 43l-54 -43h-55z" />
    <glyph glyph-name="Idieresis.small" horiz-adv-x="146" 
d="M43 0l66 472h59l-66 -472h-59zM73 536l10 66h60l-10 -66h-60zM162 536l10 66h62l-10 -66h-62z" />
    <glyph glyph-name="Igrave.small" horiz-adv-x="146" 
d="M124 602l48 -102h-55l-63 102h70zM43 0l66 472h60l-66 -472h-60z" />
    <glyph glyph-name="Oacute.small" horiz-adv-x="501" 
d="M281 500l77 102h69l-91 -102h-55zM250 -9q-93 0 -144 54t-51 150q0 129 73 206.5t191 77.5q93 0 143.5 -53t50.5 -149q0 -129 -72.5 -207.5t-190.5 -78.5zM312 432q-89 0 -141.5 -68.5t-52.5 -162.5q0 -72 36 -116.5t103 -44.5q90 0 141.5 66t51.5 162q0 72 -35 118
t-103 46z" />
    <glyph glyph-name="Ocircumflex.small" horiz-adv-x="501" 
d="M303 602h59l61 -89h-54l-42 43l-53 -43h-56zM250 -9q-93 0 -144 54t-51 150q0 129 73 206.5t191 77.5q93 0 143.5 -53t50.5 -149q0 -129 -72.5 -207.5t-190.5 -78.5zM312 432q-89 0 -141.5 -68.5t-52.5 -162.5q0 -72 36 -116.5t103 -44.5q90 0 141.5 66t51.5 162
q0 72 -35 118t-103 46z" />
    <glyph glyph-name="Ograve.small" horiz-adv-x="501" 
d="M301 602l50 -102h-56l-63 102h69zM250 -9q-93 0 -144 54t-51 150q0 129 73 206.5t191 77.5q93 0 143.5 -53t50.5 -149q0 -129 -72.5 -207.5t-190.5 -78.5zM312 432q-89 0 -141.5 -68.5t-52.5 -162.5q0 -72 36 -116.5t103 -44.5q90 0 141.5 66t51.5 162q0 72 -35 118
t-103 46z" />
    <glyph glyph-name="Uacute.small" horiz-adv-x="480" 
d="M266 500l77 102h69l-91 -102h-55zM239 -9q-95 0 -138 48t-28 158l39 275h60l-38 -271q-11 -85 14.5 -124t96.5 -39t109 39.5t49 123.5l38 271h61l-39 -275q-28 -206 -224 -206z" />
    <glyph glyph-name="Ucircumflex.small" horiz-adv-x="480" 
d="M295 602h59l61 -89h-54l-43 46l-55 -46h-53zM239 -9q-95 0 -138 48t-28 158l39 275h60l-38 -271q-11 -85 14.5 -124t96.5 -39t109 39.5t49 123.5l38 271h61l-39 -275q-28 -206 -224 -206z" />
    <glyph glyph-name="Ugrave.small" horiz-adv-x="480" 
d="M239 -9q-95 0 -138 48t-28 158l38 275h61l-38 -271q-11 -85 14.5 -124t96.5 -39t109 39.5t49 123.5l38 271h60l-38 -275q-28 -206 -224 -206zM298 602l50 -102h-56l-64 102h70z" />
    <glyph glyph-name="Cdotaccent.small" horiz-adv-x="417" 
d="M299 530l11 72h61l-11 -72h-61zM55 201q0 116 77 197t196 81q85 0 135 -23l-12 -22l-13 -21q-50 16 -102 16q-108 0 -163 -68t-55 -155q0 -70 39.5 -117t124.5 -47q54 0 110 16l5 -29q0 -2 1 -4l4 -9q-57 -25 -142 -25q-96 0 -150.5 59.5t-54.5 150.5z" />
    <glyph glyph-name="Ibreve.small" horiz-adv-x="146" 
d="M143 496q-50 0 -71 29.5t-14 76.5h50q-6 -60 40 -60q47 0 59 60h49q-7 -48 -35.5 -77t-77.5 -29zM45 0l66 472h59l-66 -472h-59z" />
    <glyph glyph-name="Idotaccent.small" horiz-adv-x="146" 
d="M42 0l66 472h59l-66 -472h-59zM115 530l11 72h61l-11 -72h-61z" />
    <glyph glyph-name="Ycircumflex.small" horiz-adv-x="443" 
d="M266 602h58l61 -89h-55l-41 43q-27 -24 -55 -43h-53zM252 0h-61l23 165l-138 307h69l107 -248l176 248h71l-224 -307z" />
    <glyph glyph-name="Wcircumflex.small" horiz-adv-x="654" 
d="M375 602h59l60 -89h-53l-42 43l-53 -43h-56zM423 455l61 -364l168 381h63l-211 -472h-63l-63 363l-163 -363h-65l-79 472h63l60 -383l165 366h64z" />
    <glyph glyph-name="Tcaron.small" horiz-adv-x="385" 
d="M434 422h-152l-59 -422h-60l59 422h-153l7 50h365zM294 513h-59l-61 89h54l41 -43l54 43h56z" />
    <glyph glyph-name="Utilde.small" horiz-adv-x="480" 
d="M289 596q20 0 37 -11q23 -10 31 -10q12 0 21 27h44q-12 -70 -73 -70q-20 0 -36 10q-17 10 -30 10q-14 0 -23 -24h-44q12 68 73 68zM239 -9q-95 0 -138 48t-28 158l39 275h60l-38 -271q-11 -85 14.5 -124t96.5 -39t109 39.5t49 123.5l38 271h61l-39 -275
q-28 -206 -224 -206z" />
    <glyph glyph-name="Scircumflex.small" horiz-adv-x="393" 
d="M239 602h59l60 -89h-54l-42 43l-53 -43h-56zM261 479q90 0 150 -49l-29 -47q-67 46 -127 46q-81 0 -108 -63q-7 -23 1.5 -39.5t21 -23.5t38.5 -18l113 -47q82 -31 70 -108q-9 -62 -63 -100t-121 -38q-103 0 -179 63l34 46q67 -58 150 -58q35 0 67 16.5t44 48.5
q23 55 -36 82q-25 9 -72 27.5t-59 23.5q-43 16 -62.5 49.5t-7.5 80.5q15 49 62.5 78.5t112.5 29.5z" />
    <glyph glyph-name="Rcaron.small" horiz-adv-x="414" 
d="M305 513h-58l-60 89h54l41 -43l54 43h55zM429 352q0 -13 -3.5 -29.5t-12.5 -39t-30 -43t-52 -31.5q16 -10 22 -21.5t12 -42.5l33 -145h-64l-32 149q-14 42 -60 42h-119l-27 -191h-59l66 472h202q68 0 96 -35t28 -85zM130 241h145q50 0 72.5 33t22.5 68t-18.5 57.5
t-58.5 22.5h-138z" />
    <glyph glyph-name="Ncaron.small" horiz-adv-x="465" 
d="M334 513h-58l-60 89h53l42 -43l53 43h56zM356 0l-197 386l-54 -386h-60l66 472h71l192 -383l53 383h59l-66 -472h-64z" />
    <glyph glyph-name="Jcircumflex.small" horiz-adv-x="275" 
d="M0 17l18 45q56 -20 89 -20q26 0 47 8h-1q20 11 29 28.5t14 53.5l48 340h57l-49 -345q-20 -135 -145 -135q-60 0 -107 25zM261 602h58l61 -89h-53l-42 43l-53 -43h-56z" />
    <glyph glyph-name="Itilde.small" horiz-adv-x="146" 
d="M42 0l66 472h59l-66 -472h-59zM120 596q13 0 37 -11q18 -10 31 -10q14 0 23 27h44q-14 -70 -74 -70q-19 0 -37 10q-20 10 -28 10q-16 0 -23 -24h-45q12 68 72 68z" />
    <glyph glyph-name="Hcircumflex.small" horiz-adv-x="459" 
d="M387 223h-252l-31 -223h-59l66 472h59l-28 -199h252l28 199h58l-66 -472h-58zM286 602h58l60 -89h-54l-42 43q-51 -40 -55 -43h-53z" />
    <glyph glyph-name="Gcircumflex.small" horiz-adv-x="472" 
d="M420 198h-100l8 51h154l-32 -226q-61 -31 -168 -31q-104 0 -163 60t-59 153q0 115 82 194.5t209 79.5q86 0 144 -36l-28 -45q-50 32 -106 32q-116 0 -177.5 -66t-61.5 -151q0 -70 44.5 -119.5t131.5 -49.5q53 0 103 15zM342 602h58l61 -89h-53l-42 43l-53 -43h-56z" />
    <glyph glyph-name="Ecaron.small" horiz-adv-x="372" 
d="M352 0h-315l66 472h310l-7 -50h-251l-22 -158h232l-7 -51h-232l-23 -162h256zM289 513h-59l-60 89h54l42 -43q4 3 24 19t31 24h53z" />
    <glyph glyph-name="Dcaron.small" horiz-adv-x="460" 
d="M206 0h-169l66 472h169q98 0 151.5 -49t53.5 -146q0 -134 -72.5 -205.5t-198.5 -71.5zM105 51h110q88 0 145 54.5t57 165.5q0 78 -40.5 114.5t-110.5 36.5h-109zM328 513h-58l-60 89h53l42 -43l54 43h55z" />
    <glyph glyph-name="Lcaron.small" horiz-adv-x="355" 
d="M162 472l-59 -421h234l-7 -52h-293l66 473h59zM212 371l78 102h70l-93 -102h-55z" />
    <glyph glyph-name="Ccaron.small" horiz-adv-x="417" 
d="M354 513h-59l-60 89h54l42 -43l53 43h56zM55 201q0 116 77 197t196 81q85 0 135 -23l-12 -22l-13 -21q-50 16 -102 16q-108 0 -163 -68t-55 -155q0 -70 39.5 -117t124.5 -47q54 0 110 16l5 -29q0 -2 1 -4l4 -9q-57 -25 -142 -25q-96 0 -150.5 59.5t-54.5 150.5z" />
    <glyph glyph-name="Ccircumflex.small" horiz-adv-x="417" 
d="M310 602h58l60 -89h-56l-40 43q-51 -40 -55 -43h-53zM55 201q0 116 77 197t196 81q85 0 135 -23l-12 -22l-13 -21q-50 16 -102 16q-108 0 -163 -68t-55 -155q0 -70 39.5 -117t124.5 -47q54 0 110 16l5 -29q0 -2 1 -4l4 -9q-57 -25 -142 -25q-96 0 -150.5 59.5
t-54.5 150.5z" />
    <glyph glyph-name="Zacute.small" horiz-adv-x="403" 
d="M371 0h-357l8 57l346 365h-283l7 50h358l-7 -55l-354 -365h289zM222 500l79 102h69l-92 -102h-56z" />
    <glyph glyph-name="Wgrave.small" horiz-adv-x="654" 
d="M423 455l61 -364l81 182q10 24 41 93.5t46 105.5h63l-211 -472h-63l-63 363q-13 -29 -38.5 -84.5t-36.5 -79.5q-37 -80 -88 -199h-65l-79 472h63l60 -383l165 366h64zM386 602l49 -102h-55l-63 102h69z" />
    <glyph glyph-name="Wacute.small" horiz-adv-x="654" 
d="M354 500l78 102h69l-91 -102h-56zM423 455l61 -364l168 381h63l-211 -472h-63l-63 363l-163 -363h-65l-79 472h63l60 -383l165 366h64z" />
    <glyph glyph-name="Ygrave.small" horiz-adv-x="443" 
d="M252 0h-61l23 165l-138 307h69l107 -248q34 47 98 137.5t78 110.5h71l-224 -307zM280 602l49 -102h-55l-63 102h69z" />
    <glyph glyph-name="Sacute.small" horiz-adv-x="393" 
d="M224 500l77 102h69l-91 -102h-55zM261 479q90 0 150 -49l-29 -47q-67 46 -127 46q-81 0 -108 -63q-7 -23 1.5 -39.5t21 -23.5t38.5 -18l113 -47q82 -31 70 -108q-9 -62 -63 -100t-121 -38q-103 0 -179 63l34 46q67 -58 150 -58q35 0 67 16.5t44 48.5q23 55 -36 82
q-25 9 -72 27.5t-59 23.5q-43 16 -62.5 49.5t-7.5 80.5q15 49 62.5 78.5t112.5 29.5z" />
    <glyph glyph-name="Racute.small" horiz-adv-x="414" 
d="M224 500l78 102h69l-92 -102h-55zM429 352q0 -13 -3.5 -29.5t-12.5 -39t-30 -43t-52 -31.5q16 -10 22 -21.5t12 -42.5l33 -145h-64l-32 149q-14 42 -60 42h-119l-27 -191h-59l66 472h202q68 0 96 -35t28 -85zM130 241h145q50 0 72.5 33t22.5 68t-18.5 57.5t-58.5 22.5
h-138z" />
    <glyph glyph-name="Lacute.small" horiz-adv-x="355" 
d="M101 500l78 102h70l-93 -102h-55zM162 472l-59 -421h234l-7 -52h-293l66 473h59z" />
    <glyph glyph-name="Cacute.small" horiz-adv-x="417" 
d="M272 500l78 102h69l-92 -102h-55zM55 201q0 116 77 197t196 81q85 0 135 -23l-12 -22l-13 -21q-50 16 -102 16q-108 0 -163 -68t-55 -155q0 -70 39.5 -117t124.5 -47q54 0 110 16l5 -29q0 -2 1 -4l4 -9q-57 -25 -142 -25q-96 0 -150.5 59.5t-54.5 150.5z" />
    <glyph glyph-name="Gdotaccent.small" horiz-adv-x="472" 
d="M420 198h-100l8 51h154l-32 -226q-61 -31 -168 -31q-104 0 -163 60t-59 153q0 115 82 194.5t209 79.5q86 0 144 -36l-28 -45q-50 32 -106 32q-116 0 -177.5 -66t-61.5 -151q0 -70 44.5 -119.5t131.5 -49.5q53 0 103 15zM319 530l10 72h61l-10 -72h-61z" />
    <glyph glyph-name="Edotaccent.small" horiz-adv-x="372" 
d="M352 0h-315l66 472h310l-7 -50h-251l-22 -158h232l-7 -51h-232l-23 -162h256zM243 530l11 72h60l-11 -72h-60z" />
    <glyph glyph-name="Ohungarumlaut.small" horiz-adv-x="501" 
d="M321 500l68 102h70l-87 -102h-51zM234 500l66 102h70l-86 -102h-50zM250 -9q-93 0 -144 54t-51 150q0 129 73 206.5t191 77.5q93 0 143.5 -53t50.5 -149q0 -129 -72.5 -207.5t-190.5 -78.5zM312 432q-89 0 -141.5 -68.5t-52.5 -162.5q0 -72 36 -116.5t103 -44.5
q90 0 141.5 66t51.5 162q0 72 -35 118t-103 46z" />
    <glyph glyph-name="Uhungarumlaut.small" horiz-adv-x="480" 
d="M305 500l66 102h70l-86 -102h-50zM216 500l68 102h70l-87 -102h-51zM239 -9q-95 0 -138 48t-28 158l39 275h60l-38 -271q-11 -85 14.5 -124t96.5 -39t109 39.5t49 123.5l38 271h61l-39 -275q-28 -206 -224 -206z" />
    <glyph glyph-name="Uring.small" horiz-adv-x="480" 
d="M255 574q0 32 19 53t57 21q58 0 58 -54q0 -31 -18.5 -53t-57.5 -22q-58 0 -58 55zM300 578q0 -21 18 -21q25 0 25 32q0 20 -18 20q-25 0 -25 -31zM239 -9q-95 0 -138 48t-28 158l39 275h60l-38 -271q-11 -85 14.5 -124t96.5 -39t109 39.5t49 123.5l38 271h61l-39 -275
q-28 -206 -224 -206z" />
    <glyph glyph-name="Ldot.small" horiz-adv-x="355" 
d="M162 472l-59 -421h234l-7 -52h-293l66 473h59zM277 279l10 72h61l-10 -72h-61z" />
    <glyph glyph-name="Ubreve.small" horiz-adv-x="480" 
d="M312 496q-50 0 -71.5 29.5t-15.5 76.5h50q-5 -60 42 -60q45 0 57 60h50q-6 -48 -34.5 -77t-77.5 -29zM239 -9q-95 0 -138 48t-28 158l39 275h60l-38 -271q-11 -85 14.5 -124t96.5 -39t109 39.5t49 123.5l38 271h61l-39 -275q-28 -206 -224 -206z" />
    <glyph glyph-name="Obreve.small" horiz-adv-x="501" 
d="M250 -9q-93 0 -144 54t-51 150q0 129 73 206.5t191 77.5q93 0 143.5 -53t50.5 -149q0 -129 -72.5 -207.5t-190.5 -78.5zM312 432q-89 0 -141.5 -68.5t-52.5 -162.5q0 -72 36 -116.5t103 -44.5q90 0 141.5 66t51.5 162q0 72 -35 118t-103 46zM321 496q-49 0 -70 29.5
t-15 76.5h51q-5 -60 41 -60t57 60h50q-6 -47 -35.5 -76.5t-78.5 -29.5z" />
    <glyph glyph-name="Gbreve.small" horiz-adv-x="472" 
d="M339 496q-49 0 -70 29.5t-15 76.5h50q-5 -60 42 -60q45 0 57 60h49q-6 -47 -35 -76.5t-78 -29.5zM420 198h-100l8 51h154l-32 -226q-61 -31 -168 -31q-104 0 -163 60t-59 153q0 115 82 194.5t209 79.5q86 0 144 -36l-28 -45q-50 32 -106 32q-116 0 -177.5 -66t-61.5 -151
q0 -70 44.5 -119.5t131.5 -49.5q53 0 103 15z" />
    <glyph glyph-name="Ebreve.small" horiz-adv-x="372" 
d="M258 496q-50 0 -71 29.5t-14 76.5h50q-5 -60 40 -60t59 60h50q-7 -48 -36 -77t-78 -29zM352 0h-315l66 472h310l-7 -50h-251l-22 -158h232l-7 -51h-232l-23 -162h256z" />
    <glyph glyph-name="Abreve.small" horiz-adv-x="474" 
d="M308 496q-50 0 -71 29.5t-14 76.5h50q-6 -60 40 -60t58 60h50q-7 -48 -35.5 -77t-77.5 -29zM72 0h-62l263 472h61l130 -472h-61l-31 112h-239zM294 405l-135 -243h202z" />
    <glyph glyph-name="Nacute.small" horiz-adv-x="465" 
d="M265 500l78 102h69l-92 -102h-55zM356 0l-197 386l-54 -386h-60l66 472h71l192 -383l53 383h59l-66 -472h-64z" />
    <glyph glyph-name="Zdotaccent.small" horiz-adv-x="403" 
d="M371 0h-357l8 57l346 365h-283l7 50h358l-7 -55l-354 -365h289zM254 530l11 72h60l-11 -72h-60z" />
    <glyph glyph-name="Wdieresis.small" horiz-adv-x="654" 
d="M321 536l9 66h60l-9 -66h-60zM409 536l9 66h62l-9 -66h-62zM423 455l61 -364l168 381h63l-211 -472h-63l-63 363l-163 -363h-65l-79 472h63l60 -383l165 366h64z" />
    <glyph glyph-name="Umacron.small" horiz-adv-x="480" 
d="M237 585h169l-7 -50h-169zM239 -9q-95 0 -138 48t-28 158l39 275h60l-38 -271q-11 -85 14.5 -124t96.5 -39t109 39.5t49 123.5l38 271h61l-39 -275q-28 -206 -224 -206z" />
    <glyph glyph-name="Amacron.small" horiz-adv-x="474" 
d="M234 585h169l-7 -50h-169zM72 0h-62l263 472h61l130 -472h-61l-31 112h-239zM294 405l-135 -243h202z" />
    <glyph glyph-name="Emacron.small" horiz-adv-x="372" 
d="M352 0h-315l66 472h310l-7 -50h-251l-22 -158h232l-7 -51h-232l-23 -162h256zM185 585h169l-7 -50h-169z" />
    <glyph glyph-name="Omacron.small" horiz-adv-x="501" 
d="M245 585h169l-7 -50h-169zM250 -9q-93 0 -144 54t-51 150q0 129 73 206.5t191 77.5q93 0 143.5 -53t50.5 -149q0 -129 -72.5 -207.5t-190.5 -78.5zM312 432q-89 0 -141.5 -68.5t-52.5 -162.5q0 -72 36 -116.5t103 -44.5q90 0 141.5 66t51.5 162q0 72 -35 118t-103 46z
" />
    <glyph glyph-name="lacute.small" horiz-adv-x="125" 
d="M32 0l66 472h60l-66 -472h-60zM96 497l76 101h69l-91 -101h-54z" />
    <glyph glyph-name="Imacron.small" horiz-adv-x="146" 
d="M42 0l66 472h59l-66 -472h-59zM69 585h170l-7 -50h-170z" />
    <glyph glyph-name="Uogonek.small" horiz-adv-x="480" 
d="M501 472l-38 -275q-15 -104 -66 -152t-136 -52q-26 -30 -26 -58q0 -34 48 -22q37 10 42 12l-5 -41q-29 -14 -64 -19q-45 -4 -65 25.5t-5 67.5q7 19 22 35q-163 13 -135 204l38 275h61l-38 -271q-11 -85 14.5 -124t96.5 -39t109 39.5t49 123.5l38 271h60z" />
    <glyph glyph-name="Aogonek.small" horiz-adv-x="466" 
d="M66 0h-61l262 472h61l131 -472h-22q-31 -37 -31 -63q0 -37 51 -24q37 10 42 12l-5 -41q-29 -14 -64 -19q-45 -4 -64 25.5t-6 67.5q8 23 34 51q-2 8 -12 45t-15 58h-239zM288 405l-135 -243h202z" />
    <glyph glyph-name="Eogonek.small" horiz-adv-x="380" 
d="M359 51l-6 -46q-44 -42 -44 -69q0 -36 53 -23q18 2 41 12l-5 -41q-30 -14 -64 -19q-45 -4 -64 25.5t-6 67.5q5 14 27 42h-254l66 472h310l-7 -50h-250l-22 -158h232l-7 -51h-232l-23 -162h255z" />
    <glyph glyph-name="Hbar.small" horiz-adv-x="459" 
d="M387 223h-252l-31 -223h-59l66 472h59l-28 -199h252l28 199h58l-66 -472h-58zM227 585h169l-7 -50h-169z" />
    <glyph glyph-name="Scedilla.small" horiz-adv-x="393" 
d="M391 130q-9 -54 -50 -89.5t-97 -44.5q10 -22 12 -38q4 -37 -24.5 -67t-70.5 -26q-31 4 -58 19l6 41l38 -12q26 -8 42.5 2t16.5 34q0 21 -12 43q-96 5 -166 63l34 46q67 -58 150 -58q36 0 67.5 16t44.5 49q21 55 -38 82q-24 9 -69 27t-61 24q-43 16 -62.5 49.5t-7.5 80.5
q15 49 62.5 78.5t112.5 29.5q90 0 150 -49l-29 -47q-67 46 -127 46q-82 0 -108 -64q-3 -10 -3.5 -19t1.5 -15t7.5 -12.5t10 -10.5t13.5 -8.5l15 -7.5t17 -7l114 -47q81 -33 69 -108z" />
    <glyph glyph-name="Tbar.small" horiz-adv-x="385" 
d="M434 422h-152l-59 -422h-60l59 422h-153l7 50h365zM128 266h204l-6 -44h-204z" />
    <glyph glyph-name="Eng.small" horiz-adv-x="465" 
d="M364 6l-205 381l-54 -387h-60l66 472h71l194 -368l51 368h59l-66 -474q-20 -135 -145 -135q-22 0 -47 4l7 49q20 -3 39 -3q33 0 48 7h-1q20 11 28.5 28.5t13.5 54.5z" />
    <glyph glyph-name="Ncommaaccent.small" horiz-adv-x="465" 
d="M356 0l-197 386l-54 -386h-60l66 472h71l192 -383l53 383h59l-66 -472h-64zM111 -135l74 118h70l-87 -118h-57z" />
    <glyph glyph-name="Kcommaaccent.small" horiz-adv-x="396" 
d="M391 0h-70l-132 218q-8 -8 -23 -22.5t-26.5 -26.5t-22.5 -23l-21 -146h-59l66 472h59l-34 -246q34 37 73 78.5t85.5 90.5t72.5 77h70l-198 -212zM81 -142l75 118h70l-87 -118h-58z" />
    <glyph glyph-name="Gcommaaccent.small" horiz-adv-x="469" 
d="M411 198h-100l8 51h154l-32 -226q-61 -31 -168 -31q-104 0 -163 60t-59 153q0 115 82 194.5t209 79.5q86 0 144 -36l-28 -45q-50 32 -106 32q-116 0 -177.5 -66t-61.5 -151q0 -70 44.5 -119.5t131.5 -49.5q53 0 103 15zM159 -141l73 118h70l-85 -118h-58z" />
    <glyph glyph-name="Lcommaaccent.small" horiz-adv-x="355" 
d="M162 472l-59 -421h234l-7 -52h-293l66 473h59zM79 -142l74 118h71l-87 -118h-58z" />
    <glyph glyph-name="Rcommaaccent.small" horiz-adv-x="419" 
d="M429 352q0 -13 -3.5 -29.5t-12.5 -39t-30 -43t-52 -31.5q16 -10 22 -21.5t12 -42.5l8 -36l5 -21q4 -31 25 -88h-64q-15 31 -25 87q-11 60 -12 62q-14 42 -60 42h-119l-27 -191h-59l66 472h202q68 0 96 -34.5t28 -85.5zM130 241h145q50 0 72.5 33t22.5 68t-18.5 57.5
t-58.5 22.5h-138zM93 -141l74 118h71l-87 -118h-58z" />
    <glyph glyph-name="Dcroat.small" horiz-adv-x="523" 
d="M158 472h167q100 0 153 -49t53 -146q0 -133 -73 -205t-199 -72h-167l29 206h-71l6 42h71zM158 51h111q88 0 145.5 55t57.5 165q0 77 -40.5 114t-112.5 37h-109l-24 -174h147l-6 -42h-147z" />
    <glyph glyph-name="Aringacute.small" horiz-adv-x="474" 
d="M72 0h-62l263 472h61l130 -472h-61l-31 112h-239zM294 405l-135 -243h202zM267 542q0 24 14 41.5t40 17.5q41 0 41 -42q0 -25 -13.5 -42.5t-41.5 -17.5q-40 0 -40 43zM274 544q0 -35 35 -35q24 0 35.5 13.5t11.5 33.5q0 33 -36 33q-23 0 -34.5 -13t-11.5 -32zM294 624
l76 101h69l-91 -101h-54z" />
    <glyph glyph-name="AEacute.small" horiz-adv-x="646" 
d="M338 422l-169 -260h165l36 260h-32zM376 51h257l-7 -51h-315l16 112h-185l-73 -112h-64l131 206q29 47 86.5 136.5t82.5 129.5h381l-7 -50h-250l-22 -158h231l-7 -51h-232zM330 500l78 102h70l-92 -102h-56z" />
    <glyph glyph-name="IJ.small" horiz-adv-x="423" 
d="M45 0l66 472h59l-66 -472h-59zM144 17l20 45q53 -20 87 -20q26 0 47 8h-1q20 11 29.5 28.5t14.5 53.5l47 340h56l-48 -345q-20 -135 -145 -135q-58 0 -107 25z" />
    <glyph glyph-name="Oslashacute.small" horiz-adv-x="513" 
d="M290 506l76 101h70l-92 -101h-54zM118 198q0 -69 23 -105l255 312q-34 27 -84 27q-90 0 -142 -69t-52 -165zM34 -41l67 88q-46 56 -46 151q0 128 72.5 204.5t191.5 76.5q70 0 114 -28l49 56h58l-72 -85q44 -57 44 -150q0 -126 -72 -203.5t-190 -77.5q-66 0 -113 26
l-46 -58h-57zM426 372l-253 -310q34 -22 84 -22q90 0 141.5 66t51.5 164q0 62 -24 102z" />
    <glyph glyph-name="Tcommaaccent.small" horiz-adv-x="385" 
d="M434 422h-152l-59 -422h-60l59 422h-153l7 50h365zM83 -141l73 118h70l-86 -118h-57z" />
    <glyph glyph-name="Scommaaccent.small" horiz-adv-x="393" 
d="M92 -142l74 118h70l-87 -118h-57zM261 479q90 0 150 -49l-29 -47q-67 46 -127 46q-81 0 -108 -63q-7 -23 1.5 -39.5t21 -23.5t38.5 -18l113 -47q82 -31 70 -108q-9 -62 -63 -100t-121 -38q-103 0 -179 63l13 19l21 27q67 -58 150 -58q36 0 67.5 16t44.5 49q22 55 -37 82
q-25 9 -72 27.5t-59 23.5q-43 16 -62.5 49.5t-7.5 80.5q15 49 62.5 78.5t112.5 29.5z" />
    <glyph glyph-name="parenleft.small" horiz-adv-x="228" 
d="M199 -51l-7 -46q-78 0 -115 74.5t-17 215.5q20 136 75.5 205t136.5 75l-6 -44q-155 -20 -155 -316q0 -155 88 -164z" />
    <glyph glyph-name="parenright.small" horiz-adv-x="228" 
d="M5 -97l6 46q70 7 113 82t43 236q0 153 -88 162l6 44q168 -13 134 -280q-20 -140 -78 -215t-136 -75z" />
    <glyph glyph-name="braceleft.small" horiz-adv-x="230" 
d="M56 164l5 34q35 6 51 29.5t22 64.5l15 104q4 32 31.5 54t53.5 22h40l-6 -42h-26q-33 0 -39 -37l-15 -111q-9 -65 -54 -101q35 -35 25 -102l-13 -96q-6 -38 28 -38h26l-6 -41h-40q-28 0 -48 21.5t-16 54.5l13 89q6 41 -3.5 65t-43.5 30z" />
    <glyph glyph-name="braceright.small" horiz-adv-x="230" 
d="M222 198l-4 -34q-37 -6 -52.5 -29.5t-21.5 -65.5l-12 -89q-6 -32 -32 -54t-54 -22h-40l6 41h25q33 0 39 38l14 96q6 63 53 102q-36 46 -25 101l16 111q4 37 -29 37h-25l6 42h40q27 0 47.5 -22t16.5 -54l-14 -104q-7 -40 2 -64t44 -30z" />
    <glyph glyph-name="bracketleft.small" horiz-adv-x="174" 
d="M214 430h-66l-68 -483h66l-6 -43h-121l80 568h121z" />
    <glyph glyph-name="bracketright.small" horiz-adv-x="174" 
d="M146 430h-66l6 42h120l-80 -568h-120l6 43h66z" />
    <glyph glyph-name="ampersand.small" horiz-adv-x="423" 
d="M97 115q0 -78 94 -78q63 0 112 71l-103 117q-41 -9 -72 -37t-31 -73zM219 276q41 19 59 40t24 58q1 27 -13 43.5t-42 16.5q-29 0 -48.5 -18t-23.5 -40q-14 -67 44 -100zM257 246l78 -90q15 32 22 83h55q-9 -77 -38 -120q24 -30 34.5 -56.5t5.5 -62.5h-56v15q0 32 -17 57
q-53 -81 -157 -81q-73 0 -110 33.5t-37 85.5q0 100 124 146q-47 39 -47 96q0 64 42 95.5t97 31.5q43 0 74.5 -23.5t31.5 -70.5q0 -85 -102 -139z" />
    <glyph glyph-name="asterisk.small" horiz-adv-x="262" 
d="M207 392l70 42l20 -36l-73 -42l60 -38l-28 -39l-58 45l-12 -83h-45l12 84q-14 -9 -40 -25.5t-33 -20.5l-17 39l70 39q-10 6 -30 20.5t-30 20.5l29 35l60 -43l12 82h45z" />
    <glyph glyph-name="at.small" horiz-adv-x="603" 
d="M511 56l16 -37q-45 -30 -108.5 -50.5t-119.5 -20.5q-115 0 -179 64t-64 164q0 124 94 213.5t218 89.5q117 0 176.5 -60t59.5 -140q0 -57 -20 -101.5t-50.5 -69t-62.5 -37t-62 -12.5q-50 0 -54 40q-43 -25 -91 -25q-86 0 -86 84q0 76 48.5 127.5t127.5 51.5q36 0 57 -24
l7 19h56q-7 -21 -21 -61.5t-18 -50.5v1l-24 -69q-10 -23 -6.5 -36t17.5 -13q44 0 86.5 43t42.5 129q0 77 -55 118t-135 41q-103 0 -177 -74t-74 -179q0 -86 53 -137.5t136 -51.5q105 0 212 64zM348 295q-73 0 -104 -90q-9 -27 -9 -45q0 -41 42 -41q64 0 87 51l27 84v-1
q3 22 -13 32t-30 10z" />
    <glyph glyph-name="exclam.small" horiz-adv-x="140" 
d="M55 96l50 376h60l-56 -376h-54zM39 0l9 65h59l-9 -65h-59z" />
    <glyph glyph-name="question.small" horiz-adv-x="363" 
d="M210 96h-55q9 61 30 89t89 82q55 41 55 91q0 32 -23.5 53.5t-66.5 21.5q-49 0 -111 -62l-20 16l-17 13q60 80 157 80q61 0 100.5 -30.5t39.5 -87.5q0 -71 -91 -138q-43 -31 -60.5 -53t-23.5 -55zM140 0l9 65h59l-9 -65h-59z" />
    <glyph glyph-name="exclamdown.small" horiz-adv-x="140" 
d="M20 -137l57 383h54l-51 -383h-60zM78 278l9 65h59l-9 -65h-59z" />
    <glyph glyph-name="questiondown.small" horiz-adv-x="363" 
d="M232 247h54q-10 -62 -29.5 -88t-89.5 -83q-54 -44 -54 -91q0 -32 23.5 -53.5t66.5 -21.5q31 0 61.5 20t49.5 42l20 -16l17 -13q-22 -30 -62 -55t-96 -25q-60 0 -99.5 30.5t-39.5 87.5q0 72 90 138q43 31 61 53t24 55zM302 343l-9 -65h-59l9 65h59z" />
    <glyph glyph-name="emdash.small" horiz-adv-x="627" 
d="M51 211h574l-7 -51h-574z" />
    <glyph glyph-name="endash.small" horiz-adv-x="386" 
d="M49 211h340l-7 -52h-340z" />
    <glyph glyph-name="guillemotleft.small" horiz-adv-x="304" 
d="M235 402l-116 -164l74 -165h-64l-71 165l117 164h60zM331 402l-117 -164l74 -165h-64l-69 165l115 164h61z" />
    <glyph glyph-name="guillemotright.small" horiz-adv-x="304" 
d="M247 238l-70 164h60l71 -164l-117 -165h-64zM152 238l-71 164h61l69 -164l-115 -165h-64z" />
    <glyph glyph-name="guilsinglleft.small" horiz-adv-x="206" 
d="M235 402l-116 -164l74 -165h-64l-71 165l117 164h60z" />
    <glyph glyph-name="guilsinglright.small" horiz-adv-x="206" 
d="M151 238l-70 164h60l71 -164l-117 -165h-64z" />
    <glyph glyph-name="periodcentered.small" horiz-adv-x="120" 
d="M52 189l10 71h68l-10 -71h-68z" />
    <glyph glyph-name="iacute.small" horiz-adv-x="173" 
d="M60 0l68 484h53l-68 -484h-53zM137 545l98 129h69l-117 -129h-50z" />
    <glyph glyph-name="apple" horiz-adv-x="715" 
d="M60 686h595v-552h-595v552zM580 207v405h-122q-16 -47 -51 -145.5t-50 -145.5l-100 291h-122v-405h64v367l131 -359h53l133 359v-367h64zM99 0h-14l-6 54q0 6 -1 18.5t-1 16.5h-2q0 -1 1 -8.5t1 -12.5v-68h-17v109h25l5 -45q0 -1 2 -12.5t2 -19.5q0 27 2 32l3 45h25v-109
h-15v50v39q0 -4 -1 -21.5t-1 -20.5zM135 17v74q0 21 18 21q23 0 23 -21v-74q0 -19 -23 -19q-6 0 -12 5t-6 14zM151 91v-74q0 -4 2 -4q7 0 7 4v74q0 5 -1 6t-6 1q-2 0 -2 -7zM202 42v-25q0 -4 5 -4q6 0 6 4v11q0 8 -14 24.5t-14 26.5v12q0 21 22 21q21 0 21 -21v-21h-15v21
q0 7 -6 7q-5 0 -5 -7v-12q0 -4 13 -20.5t13 -21.5v-20q0 -9 -7 -14t-14 -5q-22 0 -22 19v25h17zM234 109h45v-13h-13v-96h-17v96h-15v13zM274 0l12 109h25l12 -109h-16l-5 28h-11l-3 -28h-14zM294 45h8l-4 44h-2zM343 0h-15v109h22q22 0 22 -20v-12q0 -14 -17 -17
q13 0 17 -15v-45h-15q-2 9 -2 42q0 8 -12 8v-50zM343 98v-34h3q9 0 9 6v21q0 7 -5 7h-7zM379 0v109h21q13 0 17 -5t4 -19v-65q0 -20 -19 -20h-23zM396 98v-83h4q4 0 4 5v69q0 9 -4 9h-4zM468 0h-39v109h39v-13h-22v-28h20v-14h-20v-39h22v-15zM491 42v-25q0 -4 2 -4q7 0 7 4
v11q0 8 -13 24.5t-13 26.5v12q0 21 19 21q23 0 23 -21v-21h-16v21q0 5 -1 6t-6 1q-2 0 -2 -7v-12q0 -4 12.5 -20.5t12.5 -21.5v-20q0 -19 -23 -19q-7 0 -13 5t-6 14v25h17zM541 0h-16v109h16v-109zM572 54h21v-54h-8v6q-8 -8 -17 -8q-6 0 -12.5 5t-6.5 14v74q0 21 23 21
q21 0 21 -21v-21h-17v21q0 7 -4 7q-6 0 -6 -7v-74q0 -4 6 -4q4 0 4 4v25h-4v12zM603 109h25l2 -30q8 -22 8 -62v6v31v55h15v-109h-25l-7 57q-5 18 -5 34v-12v-79h-13v109z" />
    </font>
</defs>
</svg>
