<?xml version="1.0" standalone="no"?>
<!DOCTYPE svg PUBLIC "-//W3C//DTD SVG 1.1//EN" "http://www.w3.org/Graphics/SVG/1.1/DTD/svg11.dtd" >
<svg>
<metadata>
Created by FontForge 20120731 at Tue Dec 15 21:06:50 2015
 By ,,,
Copyright (c) Olivier Gourvat - Mostardesign Studio, 2004-2011. All rights reserved.
</metadata>
<defs>
<font id="IntervalSansPro-BlackItalic" horiz-adv-x="594" >
  <font-face 
    font-family="Interval Sans Pro Black"
    font-weight="900"
    font-style="italic"
    font-stretch="normal"
    units-per-em="1000"
    panose-1="2 0 5 3 0 0 0 2 0 4"
    ascent="750"
    descent="-250"
    x-height="484"
    cap-height="674"
    bbox="-75 -220 1292 1102"
    underline-thickness="50"
    underline-position="-50"
    slope="-12"
    unicode-range="U+0020-FB06"
  />
<missing-glyph horiz-adv-x="500" 
 />
    <glyph glyph-name="ff" unicode="ff" horiz-adv-x="670" 
d="M85 484h52l5 35q7 47 27.5 81t42 49.5t51 24.5t43 10t29.5 1q49 0 111 -36l-42 -97q-21 12 -49 12q-15 0 -23 -9.5t-9 -20.5l-7 -50h159l5 35q7 47 27.5 81t42 49.5t51 24.5t43 10t29.5 1q49 0 111 -36l-42 -97q-21 12 -49 12q-15 0 -23 -9.5t-9 -20.5l-7 -50h82
l-15 -110h-82l-79 -548h-180l80 548h-159l-79 -548h-180l80 548h-52z" />
    <glyph glyph-name="fi" unicode="fi" horiz-adv-x="647" 
d="M410 0l53 374h-162l-79 -548h-180l80 548h-52l15 110h52l5 35q7 47 27.5 81t42 49.5t51 24.5t43 10t29.5 1q49 0 111 -36l-42 -97q-21 12 -49 12q-15 0 -23 -9.5t-9 -20.5l-7 -50h342l-68 -484h-180z" />
    <glyph glyph-name="fl" unicode="fl" horiz-adv-x="647" 
d="M410 0l78 553h-134q-15 0 -23 -9.5t-9 -20.5l-5 -39h81l-15 -110h-82l-78 -548h-180l79 548h-52l15 110h52l3 24q6 47 26.5 81t42 49.5t52 24.5t44 10t29.5 1h351l-95 -674h-180z" />
    <glyph glyph-name="f_f_i" unicode="ffi" horiz-adv-x="985" 
d="M748 0l53 374h-162l-77 -548h-180l78 548h-159l-77 -548h-180l78 548h-52l15 110h52l5 35q7 47 27.5 81t42 49.5t51 24.5t43 10t29.5 1q49 0 111 -36l-42 -97q-21 12 -49 12q-15 0 -23 -9.5t-9 -20.5l-7 -50h159l5 35q7 47 27.5 81t42 49.5t51 24.5t43 10t29.5 1
q49 0 111 -36l-42 -97q-21 12 -49 12q-15 0 -23 -9.5t-9 -20.5l-7 -50h342l-68 -484h-180z" />
    <glyph glyph-name="f_f_l" unicode="ffl" horiz-adv-x="985" 
d="M748 0l78 553h-134q-15 0 -23 -9.5t-9 -20.5l-5 -39h81l-15 -110h-82l-80 -548h-180l81 548h-159l-80 -548h-180l81 548h-52l15 110h52l5 35q7 47 27.5 81t42 49.5t51 24.5t43 10t29.5 1q49 0 111 -36l-42 -97q-21 12 -49 12q-15 0 -23 -9.5t-9 -20.5l-7 -50h159l3 24
q6 47 26.5 81t42 49.5t52 24.5t44 10t29.5 1h351l-95 -674h-180z" />
    <glyph glyph-name="f_f_j" unicode="ffj" horiz-adv-x="991" 
d="M1001 484l-71 -508q-24 -166 -192 -166q-54 0 -121 39l41 98l60 -13q12 -2 20 6.5t9 14.5t4 21l56 398h-168l-79 -548h-180l80 548h-159l-79 -548h-180l80 548h-52l15 110h52l5 35q7 47 27.5 81t42 49.5t51 24.5t43 10t29.5 1q49 0 111 -36l-42 -97q-21 12 -49 12
q-15 0 -23 -9.5t-9 -20.5l-7 -50h159l5 35q7 47 27.5 81t42 49.5t51 24.5t43 10t29.5 1q49 0 111 -36l-42 -97q-21 12 -49 12q-15 0 -23 -9.5t-9 -20.5l-7 -50h347z" />
    <glyph glyph-name="f_j" unicode="fj" horiz-adv-x="653" 
d="M663 484l-71 -508q-24 -166 -192 -166q-54 0 -121 39l41 98l60 -13q12 -2 20 6.5t9 14.5t4 21l56 398h-168l-79 -548h-180l80 548h-52l15 110h52l5 35q7 47 27.5 81t42 49.5t51 24.5t43 10t29.5 1q49 0 111 -36l-42 -97q-21 12 -49 12q-15 0 -23 -9.5t-9 -20.5l-7 -50
h347z" />
    <glyph glyph-name="f_b" unicode="fb" horiz-adv-x="932" 
d="M685 674l-36 -251q17 32 52 53t69 21q74 0 121 -54t47 -154q0 -140 -66.5 -218.5t-155.5 -78.5q-83 0 -119 63l-8 -55h-179l78 553h-134q-15 0 -23 -9.5t-9 -20.5l-5 -39h81l-15 -110h-82l-79 -548h-180l80 548h-52l15 110h52l3 24q6 47 26.5 81t42 49.5t52 24.5t44 10
t29.5 1h351zM692 363q-9 0 -19.5 -4t-23.5 -19.5t-17 -39.5l-17 -121q-4 -23 7.5 -37t24 -17.5t26.5 -3.5q37 0 63 45.5t26 100.5q0 43 -17 69.5t-53 26.5z" />
    <glyph glyph-name="f_f_b" unicode="ffb" horiz-adv-x="1270" 
d="M1023 674l-36 -251q17 32 52 53t69 21q74 0 121 -54t47 -154q0 -140 -66.5 -218.5t-155.5 -78.5q-83 0 -119 63l-8 -55h-179l78 553h-134q-15 0 -23 -9.5t-9 -20.5l-5 -39h81l-15 -110h-82l-77 -548h-180l78 548h-159l-77 -548h-180l78 548h-52l15 110h52l5 35
q7 47 27.5 81t42 49.5t51 24.5t43 10t29.5 1q49 0 111 -36l-42 -97q-21 12 -49 12q-15 0 -23 -9.5t-9 -20.5l-7 -50h159l3 24q6 47 26.5 81t42 49.5t52 24.5t44 10t29.5 1h351zM1030 363q-9 0 -19.5 -4t-23.5 -19.5t-17 -39.5l-17 -121q-4 -23 7.5 -37t24 -17.5t26.5 -3.5
q37 0 63 45.5t26 100.5q0 43 -17 69.5t-53 26.5z" />
    <glyph glyph-name="f_h" unicode="fh" horiz-adv-x="933" 
d="M915 280l-39 -280h-180l39 280q12 83 -27 83q-13 0 -26.5 -4.5t-30 -24t-21.5 -52.5l-40 -282h-180l78 553h-134q-15 0 -23 -9.5t-9 -20.5l-5 -39h81l-15 -110h-82l-78 -548h-180l79 548h-52l15 110h52l3 24q6 47 26.5 81t42 49.5t52 24.5t44 10t29.5 1h351l-36 -251
q21 40 56 57t59 17q180 0 151 -217z" />
    <glyph glyph-name="f_f_h" unicode="ffh" horiz-adv-x="1271" 
d="M1253 280l-39 -280h-180l39 280q12 83 -27 83q-13 0 -26.5 -4.5t-30 -24t-21.5 -52.5l-40 -282h-180l78 553h-134q-15 0 -23 -9.5t-9 -20.5l-5 -39h81l-15 -110h-82l-78 -548h-180l79 548h-159l-78 -548h-180l79 548h-52l15 110h52l5 35q7 47 27.5 81t42 49.5t51 24.5
t43 10t29.5 1q49 0 111 -36l-42 -97q-21 12 -49 12q-15 0 -23 -9.5t-9 -20.5l-7 -50h159l3 24q6 47 26.5 81t42 49.5t52 24.5t44 10t29.5 1h351l-36 -251q21 40 56 57t59 17q180 0 151 -217z" />
    <glyph glyph-name="f_k" unicode="fk" horiz-adv-x="908" 
d="M737 292l164 -292h-201l-84 184l-26 -184h-180l78 553h-134q-15 0 -23 -9.5t-9 -20.5l-5 -39h81l-15 -110h-82l-78 -548h-180l79 548h-52l15 110h52l3 24q6 47 26.5 81t42 49.5t52 24.5t44 10t29.5 1h351l-42 -295l96 105h215z" />
    <glyph glyph-name="f_f_k" unicode="ffk" horiz-adv-x="1246" 
d="M1075 292l164 -292h-201l-84 184l-26 -184h-180l78 553h-134q-15 0 -23 -9.5t-9 -20.5l-5 -39h81l-15 -110h-82l-77 -548h-180l78 548h-159l-77 -548h-180l78 548h-52l15 110h52l5 35q7 47 27.5 81t42 49.5t51 24.5t43 10t29.5 1q49 0 111 -36l-42 -97q-21 12 -49 12
q-15 0 -23 -9.5t-9 -20.5l-7 -50h159l3 24q6 47 26.5 81t42 49.5t52 24.5t44 10t29.5 1h351l-42 -295l96 105h215z" />
    <glyph glyph-name="f_t" unicode="ft" horiz-adv-x="722" 
d="M468 374h-167l-78 -548h-180l79 548h-52l15 110h52l5 35q7 47 27.5 81t42 49.5t51 24.5t43 10t29.5 1q49 0 111 -36l-42 -97q-21 12 -49 12q-15 0 -23 -9.5t-9 -20.5l-7 -50h168l16 114h186l-16 -114h91l-15 -110h-92l-32 -231q-5 -26 11 -26q33 0 84 19l-9 -112
q-72 -35 -123 -35h-2q-27 0 -46 3.5t-50 17t-44 52t-5 98.5z" />
    <glyph glyph-name="f_f_t" unicode="fft" horiz-adv-x="1060" 
d="M806 374h-167l-78 -548h-180l79 548h-159l-78 -548h-180l79 548h-52l15 110h52l5 35q7 47 27.5 81t42 49.5t51 24.5t43 10t29.5 1q49 0 111 -36l-42 -97q-21 12 -49 12q-15 0 -23 -9.5t-9 -20.5l-7 -50h159l5 35q7 47 27.5 81t42 49.5t51 24.5t43 10t29.5 1q49 0 111 -36
l-42 -97q-21 12 -49 12q-15 0 -23 -9.5t-9 -20.5l-7 -50h168l16 114h186l-16 -114h91l-15 -110h-92l-32 -231q-5 -26 11 -26q33 0 84 19l-9 -112q-72 -35 -123 -35h-2q-27 0 -46 3.5t-50 17t-44 52t-5 98.5z" />
    <glyph glyph-name="t_h" unicode="th" horiz-adv-x="970" 
d="M447 0l53 374h-183l-32 -231q-5 -26 11 -26q33 0 84 19l-9 -112q-73 -35 -123 -35h-2q-27 0 -46 3.5t-50 17t-44 52t-5 98.5l30 214h-69l15 110h69l16 114h186l-16 -114h183l27 190h180l-35 -251q21 40 55.5 57t58.5 17q181 0 152 -217l-39 -280h-180l39 280
q12 83 -28 83q-13 0 -26.5 -4.5t-30 -24t-21.5 -52.5l-40 -282h-180z" />
    <glyph glyph-name=".notdef" horiz-adv-x="500" 
 />
    <glyph glyph-name=".null" horiz-adv-x="0" 
 />
    <glyph glyph-name="nonmarkingreturn" horiz-adv-x="333" 
 />
    <glyph glyph-name="space" unicode=" " horiz-adv-x="278" 
 />
    <glyph glyph-name="space" unicode="&#xa0;" horiz-adv-x="278" 
 />
    <glyph glyph-name="exclam" unicode="!" horiz-adv-x="315" 
d="M112 196l54 478h173l-80 -478h-147zM67 0l20 141h181l-20 -141h-181z" />
    <glyph glyph-name="quotedbl" unicode="&#x22;" horiz-adv-x="461" 
d="M113 357l19 317h174l-71 -317h-122zM326 357l19 317h174l-71 -317h-122z" />
    <glyph glyph-name="numbersign" unicode="#" horiz-adv-x="624" 
d="M347 674h133l-85 -191h66l85 191h131l-85 -191h63l-14 -100h-96l-45 -98h72l-15 -103h-104l-85 -182h-128l85 182h-67l-86 -182h-132l84 182h-61l14 103h93l43 98h-72l15 100h106zM348 383l-45 -98h68l45 98h-68z" />
    <glyph glyph-name="dollar" unicode="$" horiz-adv-x="617" 
d="M230 -117l16 114q-33 3 -65 15q-92 37 -140 89l82 128q37 -39 101 -66.5t122 -27.5q33 0 58 13.5t25 43.5q0 29 -25 42l-164 67q-128 53 -128 159q0 85 65 145t165 75l14 97h122l-13 -96q53 -8 95 -29.5t88 -60.5l-70 -121q-49 34 -92.5 51t-57 18t-38.5 1
q-40 0 -65 -15.5t-25 -36.5q0 -26 35 -46l163 -64q122 -49 122 -157q0 -95 -73 -155.5t-179 -70.5l-16 -112h-122z" />
    <glyph glyph-name="percent" unicode="%" horiz-adv-x="814" 
d="M90 479q0 89 53.5 142t141.5 53q71 0 110.5 -38t39.5 -105q0 -89 -55 -142.5t-143 -53.5q-69 0 -108 38.5t-39 105.5zM306 516q0 24 -9.5 40t-26.5 16q-20 0 -36 -24t-16 -55q0 -24 9.5 -39t24.5 -15q21 0 37.5 23.5t16.5 53.5zM472 139q0 89 54 142t141 53
q71 0 110.5 -38t39.5 -105q0 -89 -55 -142.5t-143 -53.5q-69 0 -108 38.5t-39 105.5zM688 176q0 24 -10 40t-25 16q-21 0 -37 -24t-16 -55q0 -24 9.5 -39t24.5 -15q21 0 37.5 23.5t16.5 53.5zM155 0l493 674h80l-492 -674h-81z" />
    <glyph glyph-name="ampersand" unicode="&#x26;" horiz-adv-x="644" 
d="M240 181q0 -67 63 -67q22 0 46.5 15.5t41.5 35.5l-91 105q-22 -12 -41 -36.5t-19 -52.5zM390 492q3 21 -3.5 37t-23.5 16q-31 0 -42 -52q-5 -25 1 -47.5t21 -31.5q19 12 32.5 34.5t14.5 43.5zM447 331l37 -41q16 16 22 53h133q-11 -71 -21 -103.5t-35 -68.5
q32 -34 43 -68t0 -103h-154q1 7 3 18.5t2.5 18.5t0 15.5t-3.5 15.5q-29 -30 -82 -54t-107 -24q-111 0 -167.5 50t-56.5 125q0 123 131 193q-51 61 -36 138q15 75 80.5 117t142.5 42q73 0 125 -39t52 -109q0 -41 -26 -89.5t-83 -86.5z" />
    <glyph glyph-name="quotesingle" unicode="'" horiz-adv-x="248" 
d="M113 357l19 317h174l-71 -317h-122z" />
    <glyph glyph-name="parenleft" unicode="(" horiz-adv-x="428" 
d="M93 253q28 194 130 309.5t243 115.5l-14 -104q-73 0 -146 -111t-73 -281q0 -115 39 -184t89 -69l-14 -103q-141 0 -210.5 117t-43.5 310z" />
    <glyph glyph-name="parenright" unicode=")" horiz-adv-x="428" 
d="M407 253q-28 -193 -130.5 -310t-243.5 -117l14 103q73 0 146 111.5t73 281.5q0 113 -39.5 182.5t-88.5 69.5l15 104q141 0 210.5 -115.5t43.5 -309.5z" />
    <glyph glyph-name="asterisk" unicode="*" horiz-adv-x="422" 
d="M339 584l81 47l42 -88l-94 -42l82 -40l-67 -90l-67 47l-8 -86h-98l17 86l-85 -47l-40 90l94 41q-2 1 -7.5 2.5t-7.5 3.5l-68 33l66 90l70 -47l4 42l4 44h98z" />
    <glyph glyph-name="plus" unicode="+" horiz-adv-x="593" 
d="M93 400h178l24 175h164l-24 -175h177l-19 -134h-177l-25 -175h-164l25 175h-178z" />
    <glyph glyph-name="comma" unicode="," horiz-adv-x="379" 
d="M25 -88l154 239h185l-190 -239h-149z" />
    <glyph glyph-name="hyphen" unicode="-" horiz-adv-x="465" 
d="M454 185h-391l21 148h391z" />
    <glyph glyph-name="period" unicode="." horiz-adv-x="281" 
d="M47 0l21 151h187l-21 -151h-187z" />
    <glyph glyph-name="slash" unicode="/" horiz-adv-x="413" 
d="M481 674l-331 -674h-123l330 674h124z" />
    <glyph glyph-name="zero" unicode="0" 
d="M292 -12q-103 0 -160.5 71.5t-57.5 196.5q0 177 86.5 286t224.5 109q107 0 165 -71.5t58 -196.5q0 -178 -86.5 -286.5t-229.5 -108.5zM367 519q-49 0 -83.5 -81t-34.5 -175q0 -61 15.5 -102t46.5 -41q36 0 65 39.5t43 97t14 116.5q0 63 -16 104.5t-50 41.5z" />
    <glyph glyph-name="one" unicode="1" 
d="M222 379l-70 100l211 161h144l-90 -640h-174l62 441z" />
    <glyph glyph-name="two" unicode="2" 
d="M365 495q-37 0 -80.5 -24.5t-69.5 -53.5l-75 97q36 34 63.5 56t80 44.5t105.5 22.5q90 0 150 -50.5t60 -132.5q0 -24 -8 -47.5t-16 -39.5t-30.5 -37t-32.5 -30.5t-43.5 -30t-41.5 -25t-46 -26.5h1q-96 -56 -120 -78h283l-20 -140h-467l8 60q7 52 25.5 90.5t56 73
t77.5 61.5t110 70q33 20 51 31q40 28 40 55q0 22 -16 38t-45 16z" />
    <glyph glyph-name="three" unicode="3" 
d="M302 -10q-144 0 -237 99l85 95q55 -61 138 -61q102 0 102 75q0 25 -15 42.5t-44 17.5h-80l19 137h77q33 0 53 21t20 48q0 23 -13.5 39t-38.5 16q-96 0 -159 -63l-61 90q22 30 88 67.5t156 37.5q91 0 149 -44.5t58 -124.5q0 -105 -106 -152q38 -13 57.5 -53t19.5 -76
q0 -91 -82.5 -151t-185.5 -60z" />
    <glyph glyph-name="four" unicode="4" 
d="M476 0l-175 1l16 113h-268l16 112q63 112 154.5 222.5t187.5 191.5h159l-55 -392h84l-19 -135h-84zM217 248h119l26 183q-100 -106 -145 -183z" />
    <glyph glyph-name="five" unicode="5" 
d="M414 237q0 34 -18 59.5t-55 25.5q-23 0 -48 -12t-39 -39h-150l113 370h374l-20 -141h-254l-30 -99q43 41 128 41q71 0 117.5 -50t46.5 -135q0 -69 -27 -123t-72 -85.5t-96.5 -47.5t-106.5 -16q-140 0 -216 103l90 110q64 -75 138 -75q65 0 95 34.5t30 79.5z" />
    <glyph glyph-name="six" unicode="6" 
d="M595 589l-58 -104q-50 37 -123 37q-44 0 -88.5 -37.5t-49.5 -105.5q55 56 123 56q78 0 128 -52t50 -138q0 -119 -79.5 -188t-197.5 -69q-62 0 -106.5 22.5t-66.5 60.5t-31.5 77t-9.5 84q0 193 94 306t239 113q93 0 176 -62zM316 117q36 0 58 36t22 74q0 32 -13.5 57
t-40.5 25q-33 0 -55 -33.5t-22 -78.5q0 -36 13.5 -58t37.5 -22z" />
    <glyph glyph-name="seven" unicode="7" 
d="M121 501l20 139h491l-15 -106q-111 -118 -191 -246.5t-152 -287.5h-195q146 280 354 501h-312z" />
    <glyph glyph-name="eight" unicode="8" 
d="M294 -12q-111 0 -167.5 49t-56.5 124q0 51 35 103.5t101 68.5q-37 17 -56.5 53t-19.5 72q0 78 62 125.5t147 61.5q36 4 48 4q25 0 53 -4q64 -11 109.5 -51t45.5 -104q0 -43 -24.5 -86.5t-86.5 -70.5q46 -12 68 -54t22 -82q0 -83 -73.5 -146t-206.5 -63zM314 124
q38 0 65 22t27 54q0 30 -19.5 48t-52.5 18q-41 0 -65.5 -24.5t-24.5 -60.5q0 -27 20.5 -42t49.5 -15zM351 403q31 0 56.5 17.5t25.5 47.5q0 25 -17.5 39t-46.5 14q-35 0 -57.5 -18t-22.5 -48q0 -25 18 -38.5t44 -13.5z" />
    <glyph glyph-name="nine" unicode="9" 
d="M89 50l58 104q50 -37 123 -37q44 0 88.5 37.5t49.5 105.5q-55 -56 -123 -56q-78 0 -128 52t-50 138q0 119 79.5 188t197.5 69q62 0 106.5 -22.5t66.5 -60.5t31.5 -77t9.5 -84q0 -193 -94 -306t-239 -113q-93 0 -176 62zM368 522q-36 0 -58 -36t-22 -74q0 -31 13.5 -56.5
t40.5 -25.5q33 0 55 33.5t22 78.5q0 36 -13.5 58t-37.5 22z" />
    <glyph glyph-name="colon" unicode=":" horiz-adv-x="262" 
d="M37 0l21 151h188l-21 -151h-188zM84 333l21 151h188l-21 -151h-188z" />
    <glyph glyph-name="semicolon" unicode=";" horiz-adv-x="379" 
d="M202 333l21 151h187l-21 -151h-187zM25 -88l154 239h185l-190 -239h-149z" />
    <glyph glyph-name="less" unicode="&#x3c;" horiz-adv-x="606" 
d="M621 512l-22 -155l-312 -117l279 -116l-21 -153l-490 231l11 80z" />
    <glyph glyph-name="equal" unicode="=" horiz-adv-x="530" 
d="M543 358h-456l18 126h456zM515 160h-456l18 126h456z" />
    <glyph glyph-name="greater" unicode="&#x3e;" horiz-adv-x="607" 
d="M107 357l22 155l490 -230l-12 -80l-554 -231l22 153l311 116z" />
    <glyph glyph-name="question" unicode="?" horiz-adv-x="571" 
d="M383 418q40 33 40 76q0 25 -15 42t-41 17q-38 0 -76.5 -25.5t-58.5 -56.5l-92 82q12 18 31 37.5t49.5 42t74.5 37t93 14.5q95 0 155.5 -45.5t60.5 -131.5q0 -69 -48.5 -127t-112.5 -94q-2 -1 -11 -8t-10.5 -8t-8.5 -7.5t-8.5 -10t-6.5 -11t-6.5 -14.5t-4.5 -17.5
t-5 -23.5h-157q5 34 8 53t14 41.5t15 30.5t28.5 30.5t36.5 32t56 44.5zM189 0l20 141h181l-20 -141h-181z" />
    <glyph glyph-name="at" unicode="@" horiz-adv-x="827" 
d="M716 106l35 -59q-61 -56 -154 -90.5t-175 -34.5q-152 0 -244.5 91t-92.5 238q0 124 61 223t159.5 151t212.5 52q83 0 146.5 -25t99.5 -66.5t53.5 -88t17.5 -96.5q0 -79 -27.5 -142.5t-70 -100t-88.5 -55t-89 -18.5q-36 0 -55.5 27.5t-17.5 60.5q-17 -29 -43 -46
t-41 -20.5t-26 -3.5q-136 0 -136 127q0 106 73.5 181.5t158.5 75.5q52 0 61 -55l17 47h137l-89 -244q-14 -48 9 -48q12 0 30.5 12.5t39.5 35.5t36 65t15 92q0 94 -65.5 142t-158.5 48q-131 0 -221 -90.5t-90 -232.5q0 -111 63.5 -180.5t179.5 -69.5q128 0 279 97zM484 387
q-49 0 -77 -49.5t-28 -99.5q0 -36 21 -36q18 0 42.5 13t33.5 39l33 107q3 14 -6 20t-19 6z" />
    <glyph glyph-name="A" unicode="A" horiz-adv-x="742" 
d="M205 0h-196l375 674h164l185 -674h-196l-36 147h-219zM440 500l-101 -220h142z" />
    <glyph glyph-name="B" unicode="B" horiz-adv-x="654" 
d="M424 272h-137l-19 -134h137q31 0 50.5 22t19.5 51q0 25 -13 43t-38 18zM671 505q0 -100 -94 -146q41 -8 63 -51.5t22 -89.5q0 -35 -16.5 -72.5t-46.5 -70.5t-79 -54t-108 -21h-350l95 674h320q98 0 146 -48t48 -121zM306 406h123q23 0 39 24.5t16 48.5q0 25 -13 41
t-36 16h-111z" />
    <glyph glyph-name="C" unicode="C" horiz-adv-x="653" 
d="M80 292q0 163 114.5 278t291.5 115q55 0 119.5 -14.5t109.5 -40.5l-64 -119q-79 32 -165 32q-72 0 -123 -38t-72 -90.5t-21 -110.5q0 -73 39 -122t120 -49q73 0 176 33l27 -120q-117 -54 -243 -54q-144 0 -226.5 84.5t-82.5 215.5z" />
    <glyph glyph-name="D" unicode="D" horiz-adv-x="713" 
d="M328 0h-266l95 674h266q149 0 229.5 -71t80.5 -210q0 -189 -108 -291t-297 -102zM268 141h84q85 0 140.5 59t55.5 177q0 80 -38.5 118t-105.5 38h-81z" />
    <glyph glyph-name="E" unicode="E" horiz-adv-x="613" 
d="M571 0h-509l95 674h503l-20 -141h-317l-17 -123h293l-20 -141h-293l-18 -128h323z" />
    <glyph glyph-name="F" unicode="F" horiz-adv-x="571" 
d="M250 -1l-188 1l95 674h477l-20 -141h-289l-17 -123h266l-20 -141h-266z" />
    <glyph glyph-name="G" unicode="G" horiz-adv-x="717" 
d="M538 258h-130l19 135h304l-48 -337q-48 -28 -128.5 -45.5t-140.5 -17.5q-155 0 -244 84.5t-89 216.5q0 163 121 277t310 114q133 0 241 -74l-78 -116q-42 27 -92 38t-82 11q-61 0 -107.5 -22t-72.5 -57.5t-38.5 -74.5t-12.5 -79q0 -74 44.5 -125.5t129.5 -51.5
q37 0 78 10z" />
    <glyph glyph-name="H" unicode="H" horiz-adv-x="705" 
d="M495 275h-207l-39 -275h-187l95 674h187l-37 -258h207l37 258h187l-95 -674h-187z" />
    <glyph glyph-name="I" unicode="I" horiz-adv-x="310" 
d="M62 0l95 674h186l-95 -674h-186z" />
    <glyph glyph-name="J" unicode="J" horiz-adv-x="487" 
d="M13 45l59 121q27 -18 63.5 -31t63.5 -13q58 0 70 81l66 471h184l-67 -477q-30 -204 -243 -204q-93 0 -196 52z" />
    <glyph glyph-name="K" unicode="K" horiz-adv-x="669" 
d="M662 0h-222l-142 243l-19 -19l-31 -224h-186l95 674h186l-32 -223l193 223h214l-288 -306z" />
    <glyph glyph-name="L" unicode="L" horiz-adv-x="583" 
d="M345 674l-75 -532h296l-20 -142h-484l95 674h188z" />
    <glyph glyph-name="M" unicode="M" horiz-adv-x="894" 
d="M373 0l-69 358l-73 -358h-184l147 674h201l84 -444q32 65 103.5 218t107.5 226h200l-43 -674h-182l27 358l-171 -358h-148z" />
    <glyph glyph-name="N" unicode="N" horiz-adv-x="709" 
d="M441 0l-139 388l-55 -388h-185l95 674h215l131 -382l54 382h185l-95 -674h-206z" />
    <glyph glyph-name="O" unicode="O" horiz-adv-x="757" 
d="M377 -7q-142 0 -220 76t-78 213q0 183 108.5 293t286.5 110q140 0 219 -78t79 -215q0 -183 -108 -291t-287 -108zM454 546q-84 0 -133 -75t-49 -177q0 -73 31.5 -118t92.5 -45q86 0 134 71t48 175q0 74 -31.5 121.5t-92.5 47.5z" />
    <glyph glyph-name="P" unicode="P" horiz-adv-x="627" 
d="M422 233h-140l-33 -233h-187l95 674h320q54 0 94.5 -18t62 -48t31.5 -62.5t10 -68.5q0 -15 -5 -39.5t-21.5 -62t-42.5 -68t-74 -52.5t-110 -22zM302 374h112q40 0 60 30.5t20 60.5q0 29 -14.5 48.5t-44.5 19.5h-111z" />
    <glyph glyph-name="Q" unicode="Q" horiz-adv-x="747" 
d="M470 -4l-93 -8q-136 0 -216.5 79.5t-80.5 216.5q0 182 108.5 291.5t286.5 109.5q140 0 219 -78t79 -215q0 -207 -161 -328q10 -16 36 -16h78l-18 -127h-83q-37 0 -63 4t-42 13t-23.5 16.5t-17.5 21.5zM455 546q-84 0 -133 -75t-49 -178q0 -74 31 -119.5t92 -45.5
q86 0 134.5 72.5t48.5 176.5q0 74 -31.5 121.5t-92.5 47.5z" />
    <glyph glyph-name="R" unicode="R" horiz-adv-x="671" 
d="M677 495q0 -21 -4 -42t-16.5 -50.5t-43 -56t-75.5 -43.5q45 -11 59 -79l57 -224h-191l-52 192q-6 26 -17.5 37t-31.5 12h-80l-34 -241h-186l95 674h311q60 0 103 -15.5t65 -42.5t31.5 -56.5t9.5 -64.5zM302 382h114q37 0 56.5 29t19.5 57t-13.5 46.5t-41.5 18.5h-114z
" />
    <glyph glyph-name="S" unicode="S" horiz-adv-x="617" 
d="M404 685q80 0 132.5 -22t111.5 -72l-70 -121q-49 34 -92.5 51t-57 18t-38.5 1q-40 0 -65 -15.5t-25 -36.5q0 -26 36 -46l162 -64q122 -49 122 -157q0 -106 -88 -167t-207 -61q-99 0 -144 19q-92 37 -140 89l82 128q37 -39 101 -66.5t122 -27.5q33 0 58 13.5t25 43.5
q0 29 -25 42l-164 67q-128 53 -128 159q0 100 84.5 162.5t207.5 62.5z" />
    <glyph glyph-name="T" unicode="T" horiz-adv-x="591" 
d="M657 533h-194l-75 -533h-186l75 533h-193l20 141h573z" />
    <glyph glyph-name="U" unicode="U" horiz-adv-x="727" 
d="M361 -12q-147 0 -213.5 72.5t-43.5 242.5l52 371h187l-52 -372q-12 -88 9.5 -131t80.5 -43q62 0 95 42.5t45 131.5l52 372h186l-52 -371q-23 -171 -110.5 -243t-235.5 -72z" />
    <glyph glyph-name="V" unicode="V" horiz-adv-x="694" 
d="M104 674h192l84 -449l209 449h191l-349 -674h-166z" />
    <glyph glyph-name="W" unicode="W" horiz-adv-x="968" 
d="M661 652l42 -398l157 420h194l-301 -674h-170l-43 387l-155 -387h-169l-112 674h191l42 -420l155 398h169z" />
    <glyph glyph-name="X" unicode="X" horiz-adv-x="728" 
d="M503 0l-110 210l-170 -210h-214l299 333l-192 341h213l100 -210l160 210h212l-288 -341l206 -333h-216z" />
    <glyph glyph-name="Y" unicode="Y" horiz-adv-x="724" 
d="M457 0h-189l34 238l-198 436h213l101 -284l178 284h214l-319 -435z" />
    <glyph glyph-name="Z" unicode="Z" horiz-adv-x="624" 
d="M586 0h-564l17 121l393 412h-319l20 141h564l-17 -118l-399 -413h325z" />
    <glyph glyph-name="bracketleft" unicode="[" horiz-adv-x="366" 
d="M388 559h-103l-87 -619h103l-16 -114h-252l119 848h252z" />
    <glyph glyph-name="backslash" unicode="\" horiz-adv-x="413" 
d="M263 0l-141 674h124l140 -674h-123z" />
    <glyph glyph-name="bracketright" unicode="]" horiz-adv-x="366" 
d="M239 559h-103l16 115h252l-119 -848h-252l16 114h103z" />
    <glyph glyph-name="asciicircum" unicode="^" horiz-adv-x="490" 
d="M88 361l199 313h107l110 -313h-150l-35 162l-82 -162h-149z" />
    <glyph glyph-name="underscore" unicode="_" horiz-adv-x="651" 
d="M35 -12h577l-16 -114h-577z" />
    <glyph glyph-name="grave" unicode="`" horiz-adv-x="326" 
d="M310 708l57 -154h-130l-100 154h173z" />
    <glyph glyph-name="a" unicode="a" horiz-adv-x="536" 
d="M485 0h-179l9 63q-20 -28 -60.5 -47.5t-88.5 -19.5q-53 0 -85.5 36.5t-32.5 92.5q0 169 305 195l2 15q2 25 -12.5 34.5t-44.5 9.5q-51 0 -104 -21q-17 -7 -47 -21l-28 104q0 2 29.5 15.5t86.5 28t112 14.5q122 0 166 -68q26 -41 18 -102zM243 120q8 0 19.5 2.5t27.5 8
t28.5 18t15.5 30.5l6 46q-43 0 -84.5 -23.5t-41.5 -54.5q0 -27 29 -27z" />
    <glyph glyph-name="b" unicode="b" horiz-adv-x="579" 
d="M332 674l-36 -251q17 32 52 53t69 21q74 0 121 -54t47 -154q0 -140 -66.5 -218.5t-155.5 -78.5q-83 0 -119 63l-8 -55h-179l95 674h180zM339 363q-9 0 -19.5 -4t-23.5 -19.5t-17 -39.5l-17 -121q-4 -23 7.5 -37t24 -17.5t26.5 -3.5q37 0 63 45.5t26 100.5q0 43 -17 69.5
t-53 26.5z" />
    <glyph glyph-name="c" unicode="c" horiz-adv-x="501" 
d="M63 204q0 133 82.5 213t217.5 80q90 0 174 -46l-53 -115q-11 7 -22.5 12t-22.5 7.5t-20.5 4.5t-20 2.5t-16 0.5h-14h-9.5q-54 0 -85.5 -43t-31.5 -99q0 -42 21.5 -70.5t61.5 -28.5q71 0 133 25l21 -114q-95 -45 -188 -45q-108 0 -168 57.5t-60 158.5z" />
    <glyph glyph-name="d" unicode="d" horiz-adv-x="579" 
d="M402 423l35 251h180l-95 -674h-179l8 55q-52 -63 -137 -63q-66 0 -109 52t-43 149q0 143 71 223.5t169 80.5q34 0 63 -21t37 -53zM342 363q-51 0 -77.5 -44t-26.5 -102q0 -40 14.5 -68t40.5 -28q66 0 75 58l17 121q5 34 -11.5 48.5t-31.5 14.5z" />
    <glyph glyph-name="e" unicode="e" horiz-adv-x="562" 
d="M290 -7q-109 0 -168 61t-59 155q0 122 81 205t208 83q103 0 159 -60.5t56 -155.5q0 -39 -15 -95h-320q1 -33 27 -52t73 -19q63 0 149 29l27 -98q-94 -53 -218 -53zM245 293h163q4 36 -13 61t-56 25q-41 0 -65.5 -26.5t-28.5 -59.5z" />
    <glyph glyph-name="f" unicode="f" horiz-adv-x="332" 
d="M85 484h52l5 35q7 47 27.5 81t42 49.5t51 24.5t43 10t29.5 1q49 0 111 -36l-42 -97q-21 12 -49 12q-15 0 -23 -9.5t-9 -20.5l-7 -50h82l-15 -110h-82l-79 -548h-180l80 548h-52z" />
    <glyph glyph-name="g" unicode="g" horiz-adv-x="581" 
d="M309 121q17 0 36 14t24 46l18 124q4 24 -7.5 38t-24 17.5t-27.5 3.5q-39 0 -59.5 -49.5t-20.5 -106.5q0 -87 61 -87zM266 -64q73 0 85 55l9 64q-42 -61 -100 -61q-79 0 -138 55t-59 156q0 134 68 213t161 79q40 0 71.5 -19.5t40.5 -54.5l9 61h179l-71 -507
q-7 -47 -32 -81.5t-63 -53t-79.5 -26.5t-88.5 -8q-58 0 -114.5 17t-83.5 41l57 110q61 -40 149 -40z" />
    <glyph glyph-name="h" unicode="h" horiz-adv-x="580" 
d="M562 280l-39 -280h-180l39 280q12 83 -27 83q-13 0 -26.5 -4.5t-30 -24t-21.5 -52.5l-40 -282h-180l95 674h180l-36 -251q21 40 56 57t59 17q180 0 151 -217z" />
    <glyph glyph-name="i" unicode="i" horiz-adv-x="294" 
d="M57 0l68 484h180l-68 -484h-180zM133 538l19 136h180l-19 -136h-180z" />
    <glyph glyph-name="j" unicode="j" horiz-adv-x="300" 
d="M310 484l-71 -508q-24 -166 -191 -166q-55 0 -122 39l41 98l52 -15q12 -2 20 1.5t12.5 13.5t5.5 14t3 15l71 508h179zM139 538l19 136h180l-19 -136h-180z" />
    <glyph glyph-name="k" unicode="k" horiz-adv-x="555" 
d="M384 292l164 -292h-201l-84 184l-26 -184h-180l95 674h180l-42 -295l96 105h215z" />
    <glyph glyph-name="l" unicode="l" horiz-adv-x="294" 
d="M57 0l95 674h180l-95 -674h-180z" />
    <glyph glyph-name="m" unicode="m" horiz-adv-x="815" 
d="M320 0l41 292q10 71 -31 71q-40 0 -54 -92l-38 -271h-181l68 484h175l-9 -61q23 40 63.5 57t69.5 17q86 0 109 -74q32 43 67.5 58.5t84.5 15.5q57 0 93.5 -47t20.5 -157l-41 -293h-179l39 279q13 84 -27 84q-7 0 -15 -2.5t-20 -20t-17 -47.5l-41 -293h-178z" />
    <glyph glyph-name="n" unicode="n" horiz-adv-x="580" 
d="M562 278l-39 -278h-180l39 278q12 87 -27 87q-21 0 -46.5 -19.5t-32.5 -65.5l-39 -280h-180l68 484h174l-9 -61q26 40 63 57t61 17q88 0 126.5 -50.5t21.5 -168.5z" />
    <glyph glyph-name="o" unicode="o" horiz-adv-x="569" 
d="M63 204q0 132 80.5 212.5t210.5 80.5q104 0 162.5 -57.5t58.5 -157.5q0 -133 -80 -211t-212 -78q-105 0 -162.5 55.5t-57.5 155.5zM394 267q0 41 -15.5 70t-43.5 29q-40 0 -66 -46.5t-26 -102.5q0 -42 15 -70t43 -28q39 0 66 46.5t27 101.5z" />
    <glyph glyph-name="p" unicode="p" horiz-adv-x="579" 
d="M244 56l-32 -230h-179l92 658h178l-8 -61q20 30 55 52t64 22q77 0 124.5 -53t47.5 -153q0 -144 -73 -221t-179 -77q-26 0 -56.5 17.5t-33.5 45.5zM304 121q97 0 97 155q0 87 -47 87q-66 0 -75 -57l-16 -120q-4 -26 5 -42t18.5 -19.5t17.5 -3.5z" />
    <glyph glyph-name="q" unicode="q" horiz-adv-x="579" 
d="M318 -174l33 230q-11 -28 -46.5 -45.5t-61.5 -17.5q-80 0 -130.5 52.5t-50.5 152.5q0 140 70.5 219.5t172.5 79.5q29 0 57.5 -22t40.5 -52l9 61h178l-93 -658h-179zM309 121q8 0 18.5 3.5t24 19.5t17.5 42l17 120q4 24 -7.5 37.5t-24 16.5t-27.5 3q-38 0 -59 -48.5
t-21 -105.5q0 -88 62 -88z" />
    <glyph glyph-name="r" unicode="r" horiz-adv-x="394" 
d="M430 490l-21 -150h-29q-47 0 -74.5 -31.5t-34.5 -77.5l-31 -231h-178l68 484h174l-11 -78q46 84 115 84h22z" />
    <glyph glyph-name="s" unicode="s" horiz-adv-x="489" 
d="M37 71l82 97q45 -37 107.5 -50.5t77.5 11.5q14 24 -9 32l-112 44q-98 45 -98 122q0 76 65 122.5t165 46.5q34 0 58 -2.5t62.5 -17.5t76.5 -42l-70 -102q-65 45 -140 45q-24 0 -30 -19q-4 -20 25 -31l83 -29q70 -25 93.5 -85t-14.5 -133q-26 -41 -80 -64t-124 -23
q-133 0 -218 78z" />
    <glyph glyph-name="t" unicode="t" horiz-adv-x="384" 
d="M131 374h-69l15 110h69l16 114h186l-16 -114h91l-15 -110h-91l-32 -231q-5 -26 11 -26q33 0 84 19l-9 -112q-73 -35 -123 -35q-22 0 -35 0.5t-41 9.5t-43 25t-25 51t-3 85z" />
    <glyph glyph-name="u" unicode="u" horiz-adv-x="580" 
d="M86 206l39 278h180l-39 -278q-12 -85 27 -85q7 0 15.5 1.5t23 7.5t25 21.5t13.5 38.5l41 294h180l-68 -484h-174l8 56q-45 -63 -118 -63q-32 0 -60.5 10.5t-54 33t-36.5 66.5t-2 103z" />
    <glyph glyph-name="v" unicode="v" horiz-adv-x="593" 
d="M378 0h-162l-139 484h190l56 -298l140 298h189z" />
    <glyph glyph-name="w" unicode="w" horiz-adv-x="812" 
d="M77 484h188l25 -263l98 263h172l25 -260l99 260h187l-236 -484h-154l-42 238l-106 -238h-156z" />
    <glyph glyph-name="x" unicode="x" horiz-adv-x="604" 
d="M445 484h202l-207 -239l155 -245h-204l-70 135l-109 -135h-203l219 245l-140 239h204l60 -127z" />
    <glyph glyph-name="y" unicode="y" horiz-adv-x="595" 
d="M66 -149l30 110q18 -6 48 -8q26 -2 42 26l29 51q-11 39 -138 454h189l62 -285l136 285h190l-323 -571q-15 -27 -38.5 -46t-49 -27t-44 -11t-34.5 -3q-32 0 -99 25z" />
    <glyph glyph-name="z" unicode="z" horiz-adv-x="496" 
d="M22 0l15 104l261 252h-218l18 128h444l-15 -104l-259 -252h216l-18 -128h-444z" />
    <glyph glyph-name="braceleft" unicode="{" horiz-adv-x="395" 
d="M346 538l-23 -160q-4 -36 -30.5 -71t-61.5 -52q30 -12 47 -49.5t11 -73.5l-24 -170q-2 -10 2 -17t15 -7h67l-15 -112h-89q-63 0 -98 35.5t-27 92.5l23 165q2 22 1.5 41.5t-14.5 33.5t-43 18l12 86q72 6 83 92l22 156q8 57 53 92.5t107 35.5h89l-16 -112h-68
q-17 0 -23 -24z" />
    <glyph glyph-name="bar" unicode="|" horiz-adv-x="236" 
d="M42 -108l123 878h122l-123 -878h-122z" />
    <glyph glyph-name="braceright" unicode="}" horiz-adv-x="395" 
d="M179 378l22 160q2 10 -2 17t-15 7h-68l16 112h89q63 0 97.5 -35.5t26.5 -92.5l-22 -156q-1 -21 -1 -40.5t14.5 -34.5t43.5 -17l-12 -86q-43 -5 -60 -29.5t-22 -63.5l-23 -165q-8 -57 -53 -92.5t-108 -35.5h-89l16 112h67q18 0 24 24l24 170q4 36 31.5 73.5t60.5 49.5
q-30 16 -46.5 51.5t-10.5 71.5z" />
    <glyph glyph-name="asciitilde" unicode="~" horiz-adv-x="526" 
d="M250 371q23 0 59 -20.5t58 -20.5q38 0 48 55h128q-13 -92 -59 -138t-131 -46q-23 0 -61 20.5t-59 20.5q-36 0 -43 -56h-127q14 96 58.5 140.5t128.5 44.5z" />
    <glyph glyph-name="exclamdown" unicode="&#xa1;" horiz-adv-x="315" 
d="M47 -174l78 462h147l-52 -462h-173zM116 344l19 140h181l-19 -140h-181z" />
    <glyph glyph-name="cent" unicode="&#xa2;" horiz-adv-x="501" 
d="M190 -108l15 107q-69 19 -105.5 72t-36.5 132q0 108 56 182t155 100l13 93h122l-12 -83q83 -13 141 -44l-53 -115q-11 7 -22.5 12t-23 7.5t-20.5 4.5t-19.5 2.5t-16.5 0.5h-14.5h-9.5q-55 0 -85.5 -42.5t-30.5 -99.5q0 -43 20.5 -71t62.5 -28q70 0 132 25l21 -114
q-74 -35 -153 -43l-14 -98h-122z" />
    <glyph glyph-name="sterling" unicode="&#xa3;" horiz-adv-x="553" 
d="M314 307l-27 -190h225l-18 -129h-463l18 129h57l27 190h-73l17 119h73v2q8 54 30.5 97.5t54 69.5t65 41.5t68.5 19.5h-1q9 3 56 3q91 0 162 -56l-65 -102q-69 30 -115 30q-29 0 -48.5 -28.5t-25.5 -74.5v-2h149l-17 -119h-149z" />
    <glyph glyph-name="currency" unicode="&#xa4;" horiz-adv-x="534" 
d="M100 450l85 79l57 -66q45 19 89 19q42 0 84 -19l74 64l70 -84l-73 -63q11 -26 11 -60q0 -49 -40 -111l54 -60l-92 -78l-51 60q-48 -23 -91 -23t-82 16l-76 -64l-62 82l65 58q-15 29 -15 75q0 65 45 114zM359 304q0 23 -15.5 36t-34.5 13q-23 0 -43 -17.5t-20 -49.5
q0 -24 14 -36.5t32 -12.5q25 0 46 17.5t21 49.5z" />
    <glyph glyph-name="yen" unicode="&#xa5;" horiz-adv-x="630" 
d="M404 0h-177l11 81h-144l15 104h144l7 55h-144l15 105h103l-131 329h196l75 -255l146 255h195l-224 -329h102l-15 -105h-141l-7 -55h141l-15 -104h-141z" />
    <glyph glyph-name="brokenbar" unicode="&#xa6;" horiz-adv-x="236" 
d="M42 -108l56 395h122l-56 -395h-122zM110 376l56 395h122l-56 -395h-122z" />
    <glyph glyph-name="section" unicode="&#xa7;" horiz-adv-x="499" 
d="M273 121q20 0 24 10q7 11 -6 18l-76 34q-116 52 -116 134q0 62 62 114q-32 50 -15 111q17 57 72 91t133 34q89 0 188 -73l-74 -99q-54 40 -127 40q-20 0 -26 -17q-2 -6 3.5 -10t28.5 -13q102 -39 131 -67q35 -38 35 -86q0 -69 -60 -118q18 -36 18 -77q0 -66 -60.5 -112.5
t-152.5 -46.5q-124 0 -207 87l81 102q60 -56 144 -56zM342 339l-67 28q-11 -13 -11 -26q0 -29 43 -48q8 -4 21 -8q9 7 15.5 16t9 20.5t-10.5 17.5z" />
    <glyph glyph-name="dieresis" unicode="&#xa8;" horiz-adv-x="412" 
d="M115 555l19 136h148l-19 -136h-148zM305 555l19 136h148l-19 -136h-148z" />
    <glyph glyph-name="copyright" unicode="&#xa9;" horiz-adv-x="784" 
d="M81 296q0 104 57 194t151 142.5t199 52.5q133 0 221.5 -89.5t88.5 -219.5q0 -157 -123.5 -273t-284.5 -116q-133 0 -221 89.5t-88 219.5zM243 306q0 96 64.5 163t164.5 67q78 0 118 -23l-27 -51q-40 17 -87 17q-82 0 -121 -51t-39 -119q0 -52 28 -86t91 -34q46 0 94 16
l11 -50q-46 -23 -124 -23q-81 0 -127 49t-46 125zM150 303q0 -107 71.5 -179.5t180.5 -72.5q131 0 231.5 94t100.5 222q0 107 -71.5 179.5t-180.5 72.5q-131 0 -231.5 -94t-100.5 -222z" />
    <glyph glyph-name="ordfeminine" unicode="&#xaa;" horiz-adv-x="357" 
d="M91 401h295l-11 -79h-295zM392 443h-131l5 33q-12 -14 -39 -25.5t-43 -11.5q-31 0 -56.5 22t-25.5 68q0 100 190 117q0 1 0.5 6.5t0 8.5t-2 7.5t-5.5 7t-11 2.5q-27 0 -67 -10q-22 -5 -34 -11l-28 60q-1 1 19.5 13.5t58.5 25.5t75 13q1 1 15 0t34 -6t39 -16t30 -34.5
t6 -56.5zM235 525q6 0 14 2t18.5 10t11.5 21l4 27q-58 -13 -58 -47q0 -13 10 -13z" />
    <glyph glyph-name="guillemotleft" unicode="&#xab;" horiz-adv-x="612" 
d="M244 325l100 -232h-153l-98 232l164 232h153zM478 325l100 -232h-153l-98 232l164 232h153z" />
    <glyph glyph-name="logicalnot" unicode="&#xac;" 
d="M438 279h-362l20 144h520l-37 -266h-158z" />
    <glyph glyph-name="registered" unicode="&#xae;" horiz-adv-x="784" 
d="M599 433q0 -11 -2.5 -23.5t-9.5 -31.5t-25 -36t-44 -25q22 -14 30 -46l35 -126h-74l-35 123q-12 28 -39 28h-81l-22 -151h-70l55 390h173q59 0 84 -29.5t25 -72.5zM362 353h104q35 0 49 23t14 49q0 55 -51 55h-99zM81 296q0 104 57 194t151 142.5t199 52.5
q133 0 221.5 -89.5t88.5 -219.5q0 -157 -123.5 -273t-284.5 -116q-133 0 -221 89.5t-88 219.5zM150 303q0 -107 71.5 -179.5t180.5 -72.5q131 0 231.5 94t100.5 222q0 107 -71.5 179.5t-180.5 72.5q-131 0 -231.5 -94t-100.5 -222z" />
    <glyph glyph-name="macron" unicode="&#xaf;" horiz-adv-x="363" 
d="M118 575l16 117h289l-16 -117h-289z" />
    <glyph glyph-name="degree" unicode="&#xb0;" horiz-adv-x="389" 
d="M107 490q0 66 53.5 113.5t124.5 47.5q60 0 99.5 -37.5t39.5 -91.5q0 -66 -54 -113t-125 -47q-60 0 -99 37t-39 91zM213 501q0 -19 12.5 -31.5t32.5 -12.5q24 0 42 16t18 38q0 19 -13 31.5t-33 12.5q-23 0 -41 -16t-18 -38z" />
    <glyph glyph-name="plusminus" unicode="&#xb1;" horiz-adv-x="595" 
d="M103 467h180l23 166h162l-23 -166h179l-18 -127h-179l-23 -165h-162l23 165h-180zM558 0h-521l18 125h521z" />
    <glyph glyph-name="twosuperior" unicode="&#xb2;" horiz-adv-x="379" 
d="M291 757q-39 0 -89 -46l-49 54q72 77 153 77q55 0 91.5 -30.5t36.5 -79.5q0 -25 -10.5 -46t-33 -39t-39 -28.5t-48.5 -27.5q-43 -23 -63 -41h163l-12 -87h-285l8 54q3 23 14 42.5t31.5 36.5t37.5 29t45 28q77 42 77 70q0 13 -7.5 23.5t-20.5 10.5z" />
    <glyph glyph-name="threesuperior" unicode="&#xb3;" horiz-adv-x="338" 
d="M219 457q-83 0 -144 63l58 58q39 -39 84 -39q27 0 39 13.5t12 31.5q0 32 -37 32h-50l12 79h48q45 0 45 41q0 13 -7.5 22.5t-21.5 9.5q-53 0 -91 -37l-43 53q66 66 150 66q56 1 91.5 -26t35.5 -76q0 -54 -62 -88q22 -11 34 -31.5t12 -42.5q0 -55 -51 -92t-114 -37z" />
    <glyph glyph-name="acute" unicode="&#xb4;" horiz-adv-x="326" 
d="M115 554l101 154h173l-144 -154h-130z" />
    <glyph glyph-name="mu" unicode="&#xb5;" horiz-adv-x="580" 
d="M236 -12l-23 -162h-180l92 658h180l-40 -288q-4 -33 6.5 -54t31.5 -21q6 0 13 1.5t19.5 7.5t22 21.5t12.5 38.5l41 294h180l-68 -484h-174l8 55q0 -1 -6.5 -8t-9 -9.5l-10 -10t-13 -11t-14.5 -9.5t-17.5 -9t-20 -6t-23.5 -4h-7z" />
    <glyph glyph-name="mu" unicode="&#x3bc;" horiz-adv-x="580" 
d="M236 -12l-23 -162h-180l92 658h180l-40 -288q-4 -33 6.5 -54t31.5 -21q6 0 13 1.5t19.5 7.5t22 21.5t12.5 38.5l41 294h180l-68 -484h-174l8 55q0 -1 -6.5 -8t-9 -9.5l-10 -10t-13 -11t-14.5 -9.5t-17.5 -9t-20 -6t-23.5 -4h-7z" />
    <glyph glyph-name="paragraph" unicode="&#xb6;" horiz-adv-x="576" 
d="M176 -185l66 468q-67 12 -108.5 59t-41.5 113q0 89 73 154t169 65h280l-121 -859h-123l106 753h-71l-106 -753h-123z" />
    <glyph glyph-name="periodcentered" unicode="&#xb7;" horiz-adv-x="281" 
d="M79 226l21 151h187l-21 -151h-187z" />
    <glyph glyph-name="cedilla" unicode="&#xb8;" horiz-adv-x="270" 
d="M83 10h95q12 -16 23.5 -42t12.5 -42q10 -63 -24 -97t-99 -28q-39 4 -79 23l13 95l46 -13q52 -16 46 25q-4 28 -34 79z" />
    <glyph glyph-name="onesuperior" unicode="&#xb9;" horiz-adv-x="270" 
d="M156 670l-46 58l130 116h94l-53 -381h-115l34 244z" />
    <glyph glyph-name="ordmasculine" unicode="&#xba;" horiz-adv-x="389" 
d="M92 401h318l-11 -79h-318zM110 578q0 87 52.5 139.5t138.5 52.5q70 0 109 -37.5t39 -103.5q0 -87 -53.5 -139t-140.5 -52q-69 0 -107 37t-38 103zM318 619q0 25 -8 41.5t-22 16.5q-20 0 -34.5 -28.5t-14.5 -61.5q0 -24 7.5 -40.5t20.5 -16.5q20 0 35.5 28t15.5 61z" />
    <glyph glyph-name="guillemotright" unicode="&#xbb;" horiz-adv-x="612" 
d="M294 93l166 232l-101 232h153l99 -232l-164 -232h-153zM60 93l166 232l-101 232h153l99 -232l-164 -232h-153z" />
    <glyph glyph-name="onequarter" unicode="&#xbc;" horiz-adv-x="774" 
d="M155 498l-46 58l130 116h94l-53 -381h-115l34 244zM123 0l493 674h80l-492 -674h-81zM694 0l-117 1l9 65h-154l10 71q71 124 200 244h105l-31 -227h48l-13 -88h-48zM532 154h67l14 100q-19 -17 -44.5 -47.5t-36.5 -52.5z" />
    <glyph glyph-name="onehalf" unicode="&#xbd;" horiz-adv-x="794" 
d="M170 498l-46 58l130 116h94l-53 -381h-115l34 244zM640 289q-43 0 -88 -41l-49 54q72 77 153 77q55 0 91.5 -30.5t36.5 -79.5q0 -25 -10.5 -46t-33 -39t-39 -28.5t-48.5 -27.5q-43 -23 -63 -41h163l-12 -87h-281l8 54q6 43 38.5 75t85.5 61q77 42 77 70q0 11 -7.5 20
t-21.5 9zM138 0l493 674h80l-492 -674h-81z" />
    <glyph glyph-name="threequarters" unicode="&#xbe;" horiz-adv-x="790" 
d="M168 0l493 674h80l-492 -674h-81zM722 0l-117 1l9 65h-154l10 71q75 132 201 244h105l-32 -227h48l-13 -88h-48zM560 154h67l14 100q-19 -17 -44.5 -47.5t-36.5 -52.5zM212 285q-83 0 -144 63l58 58q39 -39 84 -39q27 0 39 13.5t12 31.5q0 32 -37 32h-50l12 79h48
q45 0 45 41q0 32 -29 32q-53 0 -91 -37l-43 53q66 66 150 66q56 1 91.5 -26t35.5 -76q0 -54 -62 -88q22 -11 34 -31.5t12 -42.5q0 -55 -51 -92t-114 -37z" />
    <glyph glyph-name="questiondown" unicode="&#xbf;" horiz-adv-x="507" 
d="M258 77q-40 -33 -40 -76q0 -25 15 -42t41 -17q38 0 75.5 25.5t59.5 56.5l92 -82q-18 -26 -44.5 -52t-83 -52.5t-120.5 -26.5q-95 0 -155.5 45.5t-60.5 131.5q0 69 48.5 127t112.5 94q6 4 20.5 13.5t18 14.5t10 20t10.5 41h157q-4 -26 -7.5 -42.5t-6 -30.5t-11 -26.5
t-11.5 -19.5t-20 -21.5t-23.5 -20t-34.5 -27.5zM450 484l-20 -141h-181l20 141h181z" />
    <glyph glyph-name="Agrave" unicode="&#xc0;" horiz-adv-x="742" 
d="M505 898l58 -154h-130l-101 154h173zM205 0h-196l375 674h164l185 -674h-196l-36 147h-219zM440 500l-101 -220h142z" />
    <glyph glyph-name="Aacute" unicode="&#xc1;" horiz-adv-x="742" 
d="M399 744l100 154h173l-143 -154h-130zM205 0h-196l375 674h164l185 -674h-196l-36 147h-219zM440 500l-101 -220h142z" />
    <glyph glyph-name="Acircumflex" unicode="&#xc2;" horiz-adv-x="742" 
d="M420 906h154l87 -167h-148l-28 84l-48 -84h-149zM205 0h-196l375 674h164l185 -674h-196l-36 147h-219zM440 500l-101 -220h142z" />
    <glyph glyph-name="Atilde" unicode="&#xc3;" horiz-adv-x="742" 
d="M442 776q-27 0 -36 -42h-91q10 79 39 118t88 39q24 0 49 -16q29 -17 40 -17q29 0 31 40h93q-10 -71 -38.5 -114t-89.5 -43q-22 0 -48 18q-4 2 -10 6l-9 6t-8 3.5t-10 1.5zM205 0h-196l375 674h164l185 -674h-196l-36 147h-219zM440 500l-101 -220h142z" />
    <glyph glyph-name="Adieresis" unicode="&#xc4;" horiz-adv-x="742" 
d="M305 733l19 136h148l-19 -136h-148zM495 733l19 136h148l-19 -136h-148zM205 0h-196l375 674h164l185 -674h-196l-36 147h-219zM440 500l-101 -220h142z" />
    <glyph glyph-name="Aring" unicode="&#xc5;" horiz-adv-x="742" 
d="M378 839q0 50 31.5 85t96.5 35q99 0 99 -87q0 -52 -30 -86.5t-98 -34.5q-51 0 -75 24.5t-24 63.5zM518 861q0 26 -23 26q-33 0 -33 -39q0 -26 24 -26q32 0 32 39zM205 0h-196l375 674h164l185 -674h-196l-36 147h-219zM440 500l-101 -220h142z" />
    <glyph glyph-name="AE" unicode="&#xc6;" horiz-adv-x="966" 
d="M488 525l-127 -244h92zM621 141h323l-20 -141h-510l20 142h-133l-89 -142h-205l433 674h572l-20 -141h-315l-17 -123h293l-20 -141h-294z" />
    <glyph glyph-name="Ccedilla" unicode="&#xc7;" horiz-adv-x="653" 
d="M80 291q0 163 115 278.5t291 115.5q55 0 119.5 -14.5t109.5 -40.5l-64 -119q-79 32 -165 32q-72 0 -123 -38t-72 -90.5t-21 -110.5q0 -73 39 -122t120 -49q73 0 176 33l27 -120q-99 -47 -224 -53q21 -40 25 -67q12 -63 -23 -97t-100 -28q-39 4 -79 23l14 95l45 -13
q48 -14 46 19q-1 24 -28 75q-108 21 -168 100.5t-60 190.5z" />
    <glyph glyph-name="Egrave" unicode="&#xc8;" horiz-adv-x="613" 
d="M571 0h-509l95 674h503l-20 -141h-317l-17 -123h293l-20 -141h-293l-18 -128h323zM432 898l58 -154h-130l-101 154h173z" />
    <glyph glyph-name="Eacute" unicode="&#xc9;" horiz-adv-x="613" 
d="M571 0h-509l95 674h503l-20 -141h-317l-17 -123h293l-20 -141h-293l-18 -128h323zM317 744l100 154h163l-137 -154h-126z" />
    <glyph glyph-name="Ecircumflex" unicode="&#xca;" horiz-adv-x="613" 
d="M571 0h-509l95 674h503l-20 -141h-317l-17 -123h293l-20 -141h-293l-18 -128h323zM356 906h154l87 -167h-148l-28 84l-48 -84h-149z" />
    <glyph glyph-name="Edieresis" unicode="&#xcb;" horiz-adv-x="613" 
d="M571 0h-509l95 674h503l-20 -141h-317l-17 -123h293l-20 -141h-293l-18 -128h323zM242 745l19 136h148l-19 -136h-148zM432 745l19 136h148l-19 -136h-148z" />
    <glyph glyph-name="Igrave" unicode="&#xcc;" horiz-adv-x="310" 
d="M62 0l95 674h186l-95 -674h-186zM294 898l58 -154h-130l-101 154h173z" />
    <glyph glyph-name="Iacute" unicode="&#xcd;" horiz-adv-x="310" 
d="M62 0l95 674h186l-95 -674h-186zM165 744l100 154h173l-143 -154h-130z" />
    <glyph glyph-name="Icircumflex" unicode="&#xce;" horiz-adv-x="310" 
d="M62 0l95 674h186l-95 -674h-186zM205 906h154l87 -167h-148l-28 84l-48 -84h-149z" />
    <glyph glyph-name="Idieresis" unicode="&#xcf;" horiz-adv-x="310" 
d="M62 0l95 674h186l-95 -674h-186zM91 745l19 136h148l-19 -136h-148zM281 745l19 136h148l-19 -136h-148z" />
    <glyph glyph-name="Eth" unicode="&#xd0;" horiz-adv-x="746" 
d="M194 674h267q148 0 229 -71.5t81 -209.5q0 -191 -108.5 -292t-296.5 -101h-267l38 271h-90l19 135h90zM305 141h85q83 0 139 59.5t56 176.5q0 80 -38 118t-105 38h-82l-18 -127h151l-19 -135h-151z" />
    <glyph glyph-name="Ntilde" unicode="&#xd1;" horiz-adv-x="709" 
d="M441 0l-139 388l-55 -388h-185l95 674h215l131 -382l54 382h185l-95 -674h-206zM426 776q-27 0 -36 -42h-91q10 79 39 118t88 39q24 0 49 -16q29 -17 40 -17q29 0 31 40h93q-10 -71 -38.5 -114t-89.5 -43q-22 0 -48 18q-4 2 -10 6l-9 6t-8 3.5t-10 1.5z" />
    <glyph glyph-name="Ograve" unicode="&#xd2;" horiz-adv-x="757" 
d="M377 -7q-142 0 -220 76t-78 213q0 183 108.5 293t286.5 110q140 0 219 -78t79 -215q0 -183 -108 -291t-287 -108zM454 546q-84 0 -133 -75t-49 -177q0 -73 31.5 -118t92.5 -45q86 0 134 71t48 175q0 74 -31.5 121.5t-92.5 47.5zM502 898l57 -154h-130l-100 154h173z" />
    <glyph glyph-name="Oacute" unicode="&#xd3;" horiz-adv-x="757" 
d="M377 -7q-142 0 -220 76t-78 213q0 183 108.5 293t286.5 110q140 0 219 -78t79 -215q0 -183 -108 -291t-287 -108zM454 546q-84 0 -133 -75t-49 -177q0 -73 31.5 -118t92.5 -45q86 0 134 71t48 175q0 74 -31.5 121.5t-92.5 47.5zM402 744l101 154h173l-144 -154h-130z" />
    <glyph glyph-name="Ocircumflex" unicode="&#xd4;" horiz-adv-x="757" 
d="M377 -7q-142 0 -220 76t-78 213q0 183 108.5 293t286.5 110q140 0 219 -78t79 -215q0 -183 -108 -291t-287 -108zM454 546q-84 0 -133 -75t-49 -177q0 -73 31.5 -118t92.5 -45q86 0 134 71t48 175q0 74 -31.5 121.5t-92.5 47.5zM428 906h154l86 -167h-148l-28 84l-48 -84
h-149z" />
    <glyph glyph-name="Otilde" unicode="&#xd5;" horiz-adv-x="757" 
d="M377 -7q-142 0 -220 76t-78 213q0 183 108.5 293t286.5 110q140 0 219 -78t79 -215q0 -183 -108 -291t-287 -108zM454 546q-84 0 -133 -75t-49 -177q0 -73 31.5 -118t92.5 -45q86 0 134 71t48 175q0 74 -31.5 121.5t-92.5 47.5zM450 776q-27 0 -36 -42h-91
q10 79 38.5 118t88.5 39q23 0 48 -16q29 -17 40 -17q30 0 32 40h93q-10 -71 -38.5 -114t-89.5 -43q-23 0 -49 18q-4 2 -9.5 6t-8.5 6t-8 3.5t-10 1.5z" />
    <glyph glyph-name="Odieresis" unicode="&#xd6;" horiz-adv-x="757" 
d="M377 -7q-142 0 -220 76t-78 213q0 183 108.5 293t286.5 110q140 0 219 -78t79 -215q0 -183 -108 -291t-287 -108zM454 546q-84 0 -133 -75t-49 -177q0 -73 31.5 -118t92.5 -45q86 0 134 71t48 175q0 74 -31.5 121.5t-92.5 47.5zM312 733l19 136h148l-19 -136h-148z
M502 733l19 136h148l-19 -136h-148z" />
    <glyph glyph-name="multiply" unicode="&#xd7;" horiz-adv-x="612" 
d="M57 145l190 166l-143 166l117 103l143 -167l189 166l89 -102l-190 -166l143 -165l-117 -103l-143 165l-189 -166z" />
    <glyph glyph-name="Oslash" unicode="&#xd8;" horiz-adv-x="757" 
d="M279 223l242 305q-31 18 -66 18q-84 0 -133.5 -75.5t-49.5 -180.5q0 -40 7 -67zM59 -53l95 119q-74 72 -74 214q0 185 108.5 295t286.5 110q85 0 148 -28l47 59h126l-93 -116q70 -70 70 -206q0 -185 -108.5 -295.5t-287.5 -110.5q-80 0 -141 23l-52 -64h-125zM575 438
l-236 -298q25 -14 57 -14q85 0 134.5 74.5t49.5 180.5q0 32 -5 57z" />
    <glyph glyph-name="Ugrave" unicode="&#xd9;" horiz-adv-x="727" 
d="M361 -12q-147 0 -213.5 72.5t-43.5 242.5l52 371h187l-52 -372q-12 -88 9.5 -131t80.5 -43q62 0 95 42.5t45 131.5l52 372h186l-52 -371q-23 -171 -110.5 -243t-235.5 -72zM497 898l57 -154h-130l-100 154h173z" />
    <glyph glyph-name="Uacute" unicode="&#xda;" horiz-adv-x="727" 
d="M361 -12q-147 0 -213.5 72.5t-43.5 242.5l52 371h187l-52 -372q-12 -88 9.5 -131t80.5 -43q62 0 95 42.5t45 131.5l52 372h186l-52 -371q-23 -171 -110.5 -243t-235.5 -72zM379 744l101 154h173l-144 -154h-130z" />
    <glyph glyph-name="Ucircumflex" unicode="&#xdb;" horiz-adv-x="727" 
d="M361 -12q-147 0 -213.5 72.5t-43.5 242.5l52 371h187l-52 -372q-12 -88 9.5 -131t80.5 -43q62 0 95 42.5t45 131.5l52 372h186l-52 -371q-23 -171 -110.5 -243t-235.5 -72zM413 906h154l87 -167h-148l-29 84l-47 -84h-149z" />
    <glyph glyph-name="Udieresis" unicode="&#xdc;" horiz-adv-x="727" 
d="M361 -12q-147 0 -213.5 72.5t-43.5 242.5l52 371h187l-52 -372q-12 -88 9.5 -131t80.5 -43q62 0 95 42.5t45 131.5l52 372h186l-52 -371q-23 -171 -110.5 -243t-235.5 -72zM297 733l19 136h148l-19 -136h-148zM487 733l19 136h148l-19 -136h-148z" />
    <glyph glyph-name="Yacute" unicode="&#xdd;" horiz-adv-x="724" 
d="M457 0h-189l34 238l-198 436h213l101 -284l178 284h214l-319 -435zM386 744l100 154h173l-143 -154h-130z" />
    <glyph glyph-name="Thorn" unicode="&#xde;" horiz-adv-x="605" 
d="M343 674l-21 -144q54 58 113 58q80 0 134 -56t54 -161q0 -147 -80.5 -227t-199.5 -80q-21 0 -44.5 14t-34.5 41q-2 -14 -8 -58.5t-9 -60.5h-185l95 674h186zM366 453q-7 0 -14 -2t-18 -8.5t-20 -23.5t-13 -42l-17 -119q-4 -23 8 -37t26 -17.5t29 -3.5q29 0 48.5 27.5
t27.5 62.5t8 72q0 91 -65 91z" />
    <glyph glyph-name="germandbls" unicode="&#xdf;" horiz-adv-x="605" 
d="M318 0h-38l18 130h38q38 0 63.5 31.5t25.5 71.5q0 85 -79 85q-4 0 -7.5 0.5t-9.5 0.5l14 99h16q30 0 46 24t16 53q0 22 -15 36t-45 14q-54 0 -69 -102l-62 -443h-181l62 443q16 104 88 167t180 63q52 0 99.5 -14.5t84 -53.5t36.5 -97q0 -48 -21.5 -79.5t-72.5 -55.5
q46 -19 67.5 -59t21.5 -85q0 -88 -75 -158.5t-201 -70.5z" />
    <glyph glyph-name="agrave" unicode="&#xe0;" horiz-adv-x="536" 
d="M361 708l57 -154h-130l-100 154h173zM485 0h-179l9 63q-20 -28 -60.5 -47.5t-88.5 -19.5q-53 0 -85.5 36.5t-32.5 92.5q0 169 305 195l2 15q2 25 -12.5 34.5t-44.5 9.5q-51 0 -104 -21q-17 -7 -47 -21l-28 104q0 2 29.5 15.5t86.5 28t112 14.5q122 0 166 -68
q26 -41 18 -102zM243 120q8 0 19.5 2.5t27.5 8t28.5 18t15.5 30.5l6 46q-43 0 -84.5 -23.5t-41.5 -54.5q0 -27 29 -27z" />
    <glyph glyph-name="aacute" unicode="&#xe1;" horiz-adv-x="536" 
d="M253 554l101 154h173l-144 -154h-130zM485 0h-179l9 63q-20 -28 -60.5 -47.5t-88.5 -19.5q-53 0 -85.5 36.5t-32.5 92.5q0 169 305 195l2 15q2 25 -12.5 34.5t-44.5 9.5q-51 0 -104 -21q-17 -7 -47 -21l-28 104q0 2 29.5 15.5t86.5 28t112 14.5h13.5t28.5 -3t40.5 -8
t40 -17.5t37 -30t21.5 -46.5t3 -65zM243 120q8 0 19.5 2.5t27.5 8t28.5 18t15.5 30.5l6 46q-43 0 -84.5 -23.5t-41.5 -54.5q0 -27 29 -27z" />
    <glyph glyph-name="acircumflex" unicode="&#xe2;" horiz-adv-x="536" 
d="M291 716h154l87 -167h-148l-29 84l-47 -84h-149zM485 0h-179l9 63q-20 -28 -60.5 -47.5t-88.5 -19.5q-53 0 -85.5 36.5t-32.5 92.5q0 169 305 195l2 15q2 25 -12.5 34.5t-44.5 9.5q-51 0 -104 -21q-17 -7 -47 -21l-28 104q0 2 29.5 15.5t86.5 28t112 14.5q122 0 166 -68
q26 -41 18 -102zM243 120q8 0 19.5 2.5t27.5 8t28.5 18t15.5 30.5l6 46q-43 0 -84.5 -23.5t-41.5 -54.5q0 -27 29 -27z" />
    <glyph glyph-name="atilde" unicode="&#xe3;" horiz-adv-x="536" 
d="M313 586q-27 0 -36 -42h-91q10 79 39 118t88 39q24 0 49 -16q29 -17 39 -17q30 0 32 40h93q-10 -71 -38.5 -114t-89.5 -43q-23 0 -49 18q-4 2 -9.5 6t-8.5 6t-8 3.5t-10 1.5zM485 0h-179l9 63q-20 -28 -60.5 -47.5t-88.5 -19.5q-53 0 -85.5 36.5t-32.5 92.5
q0 169 305 195l2 15q2 25 -12.5 34.5t-44.5 9.5q-51 0 -104 -21q-17 -7 -47 -21l-28 104q0 2 29.5 15.5t86.5 28t112 14.5q122 0 166 -68q26 -41 18 -102zM243 120q8 0 19.5 2.5t27.5 8t28.5 18t15.5 30.5l6 46q-43 0 -84.5 -23.5t-41.5 -54.5q0 -27 29 -27z" />
    <glyph glyph-name="adieresis" unicode="&#xe4;" horiz-adv-x="536" 
d="M177 555l19 136h148l-19 -136h-148zM367 555l19 136h148l-19 -136h-148zM485 0h-179l9 63q-20 -28 -60.5 -47.5t-88.5 -19.5q-53 0 -85.5 36.5t-32.5 92.5q0 169 305 195l2 15q2 25 -12.5 34.5t-44.5 9.5q-51 0 -104 -21q-17 -7 -47 -21l-28 104q0 2 29.5 15.5t86.5 28
t112 14.5h13.5t28.5 -3t40.5 -8t40 -17.5t37 -30t21.5 -46.5t3 -65zM243 120q8 0 19.5 2.5t27.5 8t28.5 18t15.5 30.5l6 46q-43 0 -84.5 -23.5t-41.5 -54.5q0 -27 29 -27z" />
    <glyph glyph-name="aring" unicode="&#xe5;" horiz-adv-x="536" 
d="M248 649q0 50 31.5 85t96.5 35q99 0 99 -87q0 -52 -30 -86.5t-98 -34.5q-51 0 -75 24.5t-24 63.5zM388 671q0 26 -23 26q-32 0 -32 -39q0 -26 23 -26q32 0 32 39zM485 0h-179l9 63q-20 -28 -60.5 -47.5t-88.5 -19.5q-53 0 -85.5 36.5t-32.5 92.5q0 169 305 195l2 15
q2 25 -12.5 34.5t-44.5 9.5q-51 0 -104 -21q-17 -7 -47 -21l-28 104q0 2 29.5 15.5t86.5 28t112 14.5q122 0 166 -68q26 -41 18 -102zM243 120q8 0 19.5 2.5t27.5 8t28.5 18t15.5 30.5l6 46q-43 0 -84.5 -23.5t-41.5 -54.5q0 -27 29 -27z" />
    <glyph glyph-name="ae" unicode="&#xe6;" horiz-adv-x="835" 
d="M563 -7q-121 0 -182 74q-30 -39 -88 -55.5t-105 -16.5q-49 0 -95 33.5t-46 102.5q0 84 74.5 129t222.5 58q9 57 -53 57q-52 0 -99 -19q-30 -12 -43 -19l-37 92q12 8 32.5 19.5t80 31t113.5 19.5q9 0 26.5 -2t53.5 -15.5t58 -36.5q70 52 149 52q102 0 159 -61t57 -155
q0 -39 -15 -95h-320q11 -71 100 -71q79 0 153 34l27 -103q-94 -53 -223 -53zM243 120q11 0 26 3.5t33.5 18t22.5 37.5l6 44q-50 -9 -83 -28t-33 -43q0 -14 7.5 -23t20.5 -9zM519 293h163q4 36 -13 61t-56 25q-41 0 -65.5 -26.5t-28.5 -59.5z" />
    <glyph glyph-name="ccedilla" unicode="&#xe7;" horiz-adv-x="501" 
d="M323 -10q19 -37 24 -64q10 -63 -24.5 -97t-99.5 -28q-43 5 -78 23l13 95l45 -13q46 -14 46 16q1 23 -25 73q-78 15 -119.5 69.5t-41.5 138.5q0 133 82.5 213.5t217.5 80.5q91 0 175 -46l-53 -115q-11 7 -22.5 12t-23 7.5t-20.5 4.5t-19.5 2.5t-16.5 0.5h-14.5h-9.5
q-55 0 -85.5 -42.5t-30.5 -99.5q0 -43 20.5 -71t62.5 -28q70 0 132 25l21 -114q-73 -34 -156 -43z" />
    <glyph glyph-name="egrave" unicode="&#xe8;" horiz-adv-x="562" 
d="M290 -7q-109 0 -168 61t-59 155q0 122 81 205t208 83q103 0 159 -60.5t56 -155.5q0 -39 -15 -95h-320q1 -33 27 -52t73 -19q63 0 149 29l27 -98q-94 -53 -218 -53zM245 293h163q4 36 -13 61t-56 25q-41 0 -65.5 -26.5t-28.5 -59.5zM370 708l58 -154h-130l-101 154h173z
" />
    <glyph glyph-name="eacute" unicode="&#xe9;" horiz-adv-x="562" 
d="M290 -7q-109 0 -168 61t-59 155q0 122 81 205t208 83q103 0 159 -60.5t56 -155.5q0 -39 -15 -95h-320q1 -33 27 -52t73 -19q63 0 149 29l27 -98q-94 -53 -218 -53zM245 293h163q4 36 -13 61t-56 25q-41 0 -65.5 -26.5t-28.5 -59.5zM279 554l100 154h173l-143 -154h-130z
" />
    <glyph glyph-name="ecircumflex" unicode="&#xea;" horiz-adv-x="562" 
d="M290 -7q-109 0 -168 61t-59 155q0 122 81 205t208 83q103 0 159 -60.5t56 -155.5q0 -39 -15 -95h-320q1 -33 27 -52t73 -19q63 0 149 29l27 -98q-94 -53 -218 -53zM245 293h163q4 36 -13 61t-56 25q-41 0 -65.5 -26.5t-28.5 -59.5zM303 716h154l87 -167h-148l-28 84
l-48 -84h-149z" />
    <glyph glyph-name="edieresis" unicode="&#xeb;" horiz-adv-x="562" 
d="M290 -7q-109 0 -168 61t-59 155q0 122 81 205t208 83q103 0 159 -60.5t56 -155.5q0 -39 -15 -95h-320q1 -33 27 -52t73 -19q63 0 149 29l27 -98q-94 -53 -218 -53zM245 293h163q4 36 -13 61t-56 25q-41 0 -65.5 -26.5t-28.5 -59.5zM190 555l19 136h148l-19 -136h-148z
M380 555l19 136h148l-19 -136h-148z" />
    <glyph glyph-name="igrave" unicode="&#xec;" horiz-adv-x="294" 
d="M57 0l68 484h180l-68 -484h-180zM258 708l57 -154h-130l-100 154h173z" />
    <glyph glyph-name="iacute" unicode="&#xed;" horiz-adv-x="294" 
d="M57 0l68 484h180l-68 -484h-180zM135 554l101 154h173l-144 -154h-130z" />
    <glyph glyph-name="icircumflex" unicode="&#xee;" horiz-adv-x="294" 
d="M57 0l68 484h180l-68 -484h-180zM170 716h154l87 -167h-148l-28 84l-48 -84h-149z" />
    <glyph glyph-name="idieresis" unicode="&#xef;" horiz-adv-x="294" 
d="M57 0l68 484h180l-68 -484h-180zM56 555l19 136h148l-19 -136h-148zM246 555l19 136h148l-19 -136h-148z" />
    <glyph glyph-name="eth" unicode="&#xf0;" horiz-adv-x="558" 
d="M185 451l-58 62l66 61q-13 13 -52 40l104 86q35 -11 62 -30l73 64l64 -59l-66 -56q72 -45 130.5 -149t58.5 -200q0 -126 -80.5 -203t-209.5 -77q-105 0 -162.5 56t-57.5 155q0 107 79.5 183t171.5 76q12 0 32 -6q-13 51 -69 75zM382 264q0 38 -14 64.5t-39 26.5
q-37 0 -61 -43.5t-24 -95.5q0 -37 13.5 -63t39.5 -26q35 0 60 43t25 94z" />
    <glyph glyph-name="ntilde" unicode="&#xf1;" horiz-adv-x="580" 
d="M562 278l-39 -278h-180l39 278q12 87 -27 87q-21 0 -46.5 -19.5t-32.5 -65.5l-39 -280h-180l68 484h174l-9 -61q26 40 63 57t61 17q88 0 126.5 -50.5t21.5 -168.5zM334 586q-27 0 -36 -42h-91q10 79 39.5 118t88.5 39q23 0 48 -16q29 -17 40 -17q27 0 32 40h93
q-22 -157 -129 -157q-22 0 -48 18q-4 2 -10 6l-9 6t-8 3.5t-10 1.5z" />
    <glyph glyph-name="ograve" unicode="&#xf2;" horiz-adv-x="569" 
d="M63 204q0 132 80.5 212.5t210.5 80.5q104 0 162.5 -57.5t58.5 -157.5q0 -133 -80 -211t-212 -78q-105 0 -162.5 55.5t-57.5 155.5zM394 267q0 41 -15.5 70t-43.5 29q-40 0 -66 -46.5t-26 -102.5q0 -42 15 -70t43 -28q39 0 66 46.5t27 101.5zM378 708l57 -154h-130
l-100 154h173z" />
    <glyph glyph-name="oacute" unicode="&#xf3;" horiz-adv-x="569" 
d="M63 204q0 132 80.5 212.5t210.5 80.5q104 0 162.5 -57.5t58.5 -157.5q0 -133 -80 -211t-212 -78q-105 0 -162.5 55.5t-57.5 155.5zM394 267q0 41 -15.5 70t-43.5 29q-40 0 -66 -46.5t-26 -102.5q0 -42 15 -70t43 -28q39 0 66 46.5t27 101.5zM289 554l101 154h173
l-144 -154h-130z" />
    <glyph glyph-name="ocircumflex" unicode="&#xf4;" horiz-adv-x="569" 
d="M63 204q0 132 80.5 212.5t210.5 80.5q104 0 162.5 -57.5t58.5 -157.5q0 -133 -80 -211t-212 -78q-105 0 -162.5 55.5t-57.5 155.5zM394 267q0 41 -15.5 70t-43.5 29q-40 0 -66 -46.5t-26 -102.5q0 -42 15 -70t43 -28q39 0 66 46.5t27 101.5zM308 716h154l86 -167h-148
l-28 84l-48 -84h-149z" />
    <glyph glyph-name="otilde" unicode="&#xf5;" horiz-adv-x="569" 
d="M63 204q0 132 80.5 212.5t210.5 80.5q104 0 162.5 -57.5t58.5 -157.5q0 -133 -80 -211t-212 -78q-105 0 -162.5 55.5t-57.5 155.5zM394 267q0 41 -15.5 70t-43.5 29q-40 0 -66 -46.5t-26 -102.5q0 -42 15 -70t43 -28q39 0 66 46.5t27 101.5zM329 586q-27 0 -36 -42h-91
q10 79 39.5 118t88.5 39q23 0 48 -16q29 -17 40 -17q27 0 32 40h93q-22 -157 -129 -157q-22 0 -48 18q-4 2 -10 6l-9 6t-8 3.5t-10 1.5z" />
    <glyph glyph-name="odieresis" unicode="&#xf6;" horiz-adv-x="569" 
d="M63 204q0 132 80.5 212.5t210.5 80.5q104 0 162.5 -57.5t58.5 -157.5q0 -133 -80 -211t-212 -78q-105 0 -162.5 55.5t-57.5 155.5zM394 267q0 41 -15.5 70t-43.5 29q-40 0 -66 -46.5t-26 -102.5q0 -42 15 -70t43 -28q39 0 66 46.5t27 101.5zM193 555l19 136h148l-19 -136
h-148zM383 555l19 136h148l-19 -136h-148z" />
    <glyph glyph-name="divide" unicode="&#xf7;" horiz-adv-x="593" 
d="M93 400h519l-19 -134h-519zM260 449l20 144h187l-20 -144h-187zM208 78l20 143h187l-20 -143h-187z" />
    <glyph glyph-name="oslash" unicode="&#xf8;" horiz-adv-x="569" 
d="M243 207l124 147q-15 12 -32 12q-40 0 -66 -46t-26 -102v-11zM170 14l-34 -40h-91l67 80q-50 55 -50 149q0 133 80.5 213.5t211.5 80.5q63 0 115 -23l29 34h92l-65 -76q49 -54 49 -150q0 -133 -80 -211t-211 -78q-65 0 -113 21zM393 276l-124 -146q14 -11 31 -11
q40 0 67 46t27 99q0 9 -1 12z" />
    <glyph glyph-name="ugrave" unicode="&#xf9;" horiz-adv-x="580" 
d="M86 206l39 278h180l-39 -278q-12 -85 27 -85q7 0 15.5 1.5t23 7.5t25 21.5t13.5 38.5l41 294h180l-68 -484h-174l8 56q-45 -63 -118 -63q-32 0 -60.5 10.5t-54 33t-36.5 66.5t-2 103zM397 708l57 -154h-130l-100 154h173z" />
    <glyph glyph-name="uacute" unicode="&#xfa;" horiz-adv-x="580" 
d="M86 206l39 278h180l-39 -278q-12 -85 27 -85q7 0 15.5 1.5t23 7.5t25 21.5t13.5 38.5l41 294h180l-68 -484h-174l8 56q-45 -63 -118 -63q-32 0 -60.5 10.5t-54 33t-36.5 66.5t-2 103zM268 554l101 154h173l-144 -154h-130z" />
    <glyph glyph-name="ucircumflex" unicode="&#xfb;" horiz-adv-x="580" 
d="M86 206l39 278h180l-39 -278q-12 -85 27 -85q7 0 15.5 1.5t23 7.5t25 21.5t13.5 38.5l41 294h180l-68 -484h-174l8 56q-45 -63 -118 -63q-32 0 -60.5 10.5t-54 33t-36.5 66.5t-2 103zM313 716h154l87 -167h-148l-29 84l-47 -84h-149z" />
    <glyph glyph-name="udieresis" unicode="&#xfc;" horiz-adv-x="580" 
d="M86 206l39 278h180l-39 -278q-12 -85 27 -85q7 0 15.5 1.5t23 7.5t25 21.5t13.5 38.5l41 294h180l-68 -484h-174l8 56q-45 -63 -118 -63q-32 0 -60.5 10.5t-54 33t-36.5 66.5t-2 103zM199 555l19 136h148l-19 -136h-148zM389 555l19 136h148l-19 -136h-148z" />
    <glyph glyph-name="yacute" unicode="&#xfd;" horiz-adv-x="595" 
d="M66 -149l30 110q18 -6 48 -8q26 -2 42 26l29 51q-11 39 -138 454h189l62 -285l136 285h190l-323 -571q-15 -27 -38.5 -46t-49 -27t-44 -11t-34.5 -3q-32 0 -99 25zM282 554l100 154h173l-143 -154h-130z" />
    <glyph glyph-name="thorn" unicode="&#xfe;" horiz-adv-x="585" 
d="M336 663l-33 -231q40 65 107 65q81 0 131.5 -54t50.5 -155q0 -143 -71 -219t-185 -76q-9 0 -23 2t-36.5 16t-28.5 37l-31 -222h-179l118 837h180zM345 363q-8 0 -18.5 -3t-24.5 -19t-18 -43l-16 -119q-3 -19 2 -31t16 -16.5t19.5 -5.5t20.5 -1q41 0 61 47t20 103
q0 88 -62 88z" />
    <glyph glyph-name="ydieresis" unicode="&#xff;" horiz-adv-x="595" 
d="M66 -149l30 110q18 -6 48 -8q26 -2 42 26l29 51q-11 39 -138 454h189l62 -285l136 285h190l-323 -571q-15 -27 -38.5 -46t-49 -27t-44 -11t-34.5 -3q-32 0 -99 25zM206 555l19 136h148l-19 -136h-148zM396 555l19 136h148l-19 -136h-148z" />
    <glyph glyph-name="Amacron" unicode="&#x100;" horiz-adv-x="742" 
d="M334 765l16 117h289l-16 -117h-289zM205 0h-196l375 674h164l185 -674h-196l-36 147h-219zM440 500l-101 -220h142z" />
    <glyph glyph-name="amacron" unicode="&#x101;" horiz-adv-x="536" 
d="M204 575l17 117h289l-17 -117h-289zM485 0h-179l9 63q-20 -28 -60.5 -47.5t-88.5 -19.5q-53 0 -85.5 36.5t-32.5 92.5q0 169 305 195l2 15q2 25 -12.5 34.5t-44.5 9.5q-51 0 -104 -21q-17 -7 -47 -21l-28 104q0 2 29.5 15.5t86.5 28t112 14.5h13.5t28.5 -3t40.5 -8
t40 -17.5t37 -30t21.5 -46.5t3 -65zM243 120q8 0 19.5 2.5t27.5 8t28.5 18t15.5 30.5l6 46q-43 0 -84.5 -23.5t-41.5 -54.5q0 -27 29 -27z" />
    <glyph glyph-name="Abreve" unicode="&#x102;" horiz-adv-x="742" 
d="M475 735q-80 0 -115 49.5t-25 126.5h104q-4 -40 6 -54.5t44 -14.5t48.5 15.5t21.5 53.5h104q-10 -76 -59 -126t-129 -50zM205 0h-196l375 674h164l185 -674h-196l-36 147h-219zM440 500l-101 -220h142z" />
    <glyph glyph-name="abreve" unicode="&#x103;" horiz-adv-x="536" 
d="M346 545q-81 0 -115.5 49.5t-24.5 126.5h104q-4 -40 6 -54.5t44 -14.5t48.5 15.5t21.5 53.5h104q-10 -76 -59 -126t-129 -50zM485 0h-179l9 63q-20 -28 -60.5 -47.5t-88.5 -19.5q-53 0 -85.5 36.5t-32.5 92.5q0 169 305 195l2 15q2 25 -12.5 34.5t-44.5 9.5
q-51 0 -104 -21q-17 -7 -47 -21l-28 104q0 2 29.5 15.5t86.5 28t112 14.5h13.5t28.5 -3t40.5 -8t40 -17.5t37 -30t21.5 -46.5t3 -65zM243 120q8 0 19.5 2.5t27.5 8t28.5 18t15.5 30.5l6 46q-43 0 -84.5 -23.5t-41.5 -54.5q0 -27 29 -27z" />
    <glyph glyph-name="Aogonek" unicode="&#x104;" horiz-adv-x="742" 
d="M537 0l-36 147h-219l-77 -147h-196l375 674h164l185 -674h-100q-80 -99 -33 -98q10 0 25 4l49 13l-14 -95q-41 -18 -85 -23q-66 -7 -90.5 27.5t2.5 97.5q15 34 50 74zM440 500l-101 -220h142z" />
    <glyph glyph-name="aogonek" unicode="&#x105;" horiz-adv-x="536" 
d="M308 0h-2l9 63q-20 -28 -60.5 -47.5t-88.5 -19.5q-53 0 -85.5 36.5t-32.5 92.5q0 169 305 195l2 15q2 25 -12.5 34.5t-44.5 9.5q-51 0 -104 -21q-17 -7 -47 -21l-28 104q0 2 29.5 15.5t86.5 28t112 14.5q122 0 166 -68q26 -41 18 -102l-46 -329h-81q-80 -99 -33 -98
q10 0 25 4l49 13l-13 -95q-43 -18 -86 -23q-66 -7 -90.5 27.5t2.5 97.5q15 34 50 74zM243 120q8 0 19.5 2.5t27.5 8t28.5 18t15.5 30.5l6 46q-43 0 -84.5 -23.5t-41.5 -54.5q0 -27 29 -27z" />
    <glyph glyph-name="Cacute" unicode="&#x106;" horiz-adv-x="653" 
d="M80 292q0 163 114.5 278t291.5 115q55 0 119.5 -14.5t109.5 -40.5l-64 -119q-79 32 -165 32q-72 0 -123 -38t-72 -90.5t-21 -110.5q0 -73 39 -122t120 -49q73 0 176 33l27 -120q-117 -54 -243 -54q-144 0 -226.5 84.5t-82.5 215.5zM400 744l100 154h173l-143 -154h-130z
" />
    <glyph glyph-name="cacute" unicode="&#x107;" horiz-adv-x="501" 
d="M63 204q0 133 82.5 213t217.5 80q90 0 174 -46l-53 -115q-11 7 -22.5 12t-22.5 7.5t-20.5 4.5t-20 2.5t-16 0.5h-14h-9.5q-54 0 -85.5 -43t-31.5 -99q0 -42 21.5 -70.5t61.5 -28.5q71 0 133 25l21 -114q-95 -45 -188 -45q-108 0 -168 57.5t-60 158.5zM248 554l101 154
h173l-144 -154h-130z" />
    <glyph glyph-name="Ccircumflex" unicode="&#x108;" horiz-adv-x="653" 
d="M80 292q0 163 114.5 278t291.5 115q55 0 119.5 -14.5t109.5 -40.5l-64 -119q-79 32 -165 32q-72 0 -123 -38t-72 -90.5t-21 -110.5q0 -73 39 -122t120 -49q73 0 176 33l27 -120q-117 -54 -243 -54q-144 0 -226.5 84.5t-82.5 215.5zM415 906h154l87 -167h-148l-28 84
l-48 -84h-149z" />
    <glyph glyph-name="ccircumflex" unicode="&#x109;" horiz-adv-x="501" 
d="M63 204q0 133 82.5 213t217.5 80q90 0 174 -46l-53 -115q-11 7 -22.5 12t-22.5 7.5t-20.5 4.5t-20 2.5t-16 0.5h-14h-9.5q-54 0 -85.5 -43t-31.5 -99q0 -42 21.5 -70.5t61.5 -28.5q71 0 133 25l21 -114q-95 -45 -188 -45q-108 0 -168 57.5t-60 158.5zM298 716h154
l86 -167h-148l-28 84l-48 -84h-149z" />
    <glyph glyph-name="Cdotaccent" unicode="&#x10a;" horiz-adv-x="653" 
d="M80 292q0 163 114.5 278t291.5 115q55 0 119.5 -14.5t109.5 -40.5l-64 -119q-79 32 -165 32q-72 0 -123 -38t-72 -90.5t-21 -110.5q0 -73 39 -122t120 -49q73 0 176 33l27 -120q-117 -54 -243 -54q-144 0 -226.5 84.5t-82.5 215.5zM396 753l18 130h169l-18 -130h-169z
" />
    <glyph glyph-name="cdotaccent" unicode="&#x10b;" horiz-adv-x="501" 
d="M63 204q0 133 82.5 213t217.5 80q90 0 174 -46l-53 -115q-11 7 -22.5 12t-22.5 7.5t-20.5 4.5t-20 2.5t-16 0.5h-14h-9.5q-54 0 -85.5 -43t-31.5 -99q0 -42 21.5 -70.5t61.5 -28.5q71 0 133 25l21 -114q-95 -45 -188 -45q-108 0 -168 57.5t-60 158.5zM274 563l18 130h169
l-18 -130h-169z" />
    <glyph glyph-name="Ccaron" unicode="&#x10c;" horiz-adv-x="653" 
d="M80 292q0 163 114.5 278t291.5 115q55 0 119.5 -14.5t109.5 -40.5l-64 -119q-79 32 -165 32q-72 0 -123 -38t-72 -90.5t-21 -110.5q0 -73 39 -122t120 -49q73 0 176 33l27 -120q-117 -54 -243 -54q-144 0 -226.5 84.5t-82.5 215.5zM559 738h-154l-87 167h148l28 -84
l48 84h149z" />
    <glyph glyph-name="ccaron" unicode="&#x10d;" horiz-adv-x="501" 
d="M63 204q0 133 82.5 213t217.5 80q90 0 174 -46l-53 -115q-11 7 -22.5 12t-22.5 7.5t-20.5 4.5t-20 2.5t-16 0.5h-14h-9.5q-54 0 -85.5 -43t-31.5 -99q0 -42 21.5 -70.5t61.5 -28.5q71 0 133 25l21 -114q-95 -45 -188 -45q-108 0 -168 57.5t-60 158.5zM405 548h-154
l-87 167h148l29 -84l47 84h149z" />
    <glyph glyph-name="Dcaron" unicode="&#x10e;" horiz-adv-x="713" 
d="M328 0h-266l95 674h266q149 0 229.5 -71t80.5 -210q0 -189 -108 -291t-297 -102zM268 141h84q85 0 140.5 59t55.5 177q0 80 -38.5 118t-105.5 38h-81zM538 738h-154l-87 167h148l28 -84l48 84h149z" />
    <glyph glyph-name="dcaron" unicode="&#x10f;" horiz-adv-x="832" 
d="M402 423l35 251h180l-95 -674h-179l8 55q-52 -63 -137 -63q-66 0 -109 52t-43 149q0 143 71 223.5t169 80.5q34 0 63 -21t37 -53zM342 363q-51 0 -77.5 -44t-26.5 -102q0 -40 14.5 -68t40.5 -28q66 0 75 58l17 121q5 34 -11.5 48.5t-31.5 14.5zM637 436l132 238h170
l-166 -238h-136z" />
    <glyph glyph-name="Dcroat" unicode="&#x110;" horiz-adv-x="713" 
d="M328 0h-266l95 674h266q149 0 229.5 -71t80.5 -210q0 -189 -108 -291t-297 -102zM268 141h84q85 0 140.5 59t55.5 177q0 80 -38.5 118t-105.5 38h-81zM320 765l16 117h289l-16 -117h-289z" />
    <glyph glyph-name="dcroat" unicode="&#x111;" horiz-adv-x="626" 
d="M417 528h-136l13 94h136l7 52h180l-7 -52h92l-13 -94h-92l-75 -528h-179l8 55q-52 -63 -137 -63q-66 0 -109 52t-43 149q0 143 71 223.5t169 80.5q34 0 63 -21t37 -53zM342 363q-51 0 -77.5 -44t-26.5 -102q0 -40 14.5 -68t40.5 -28q66 0 75 58l17 121q5 34 -11.5 48.5
t-31.5 14.5z" />
    <glyph glyph-name="Emacron" unicode="&#x112;" horiz-adv-x="613" 
d="M571 0h-509l95 674h503l-20 -141h-317l-17 -123h293l-20 -141h-293l-18 -128h323zM270 765l16 117h289l-16 -117h-289z" />
    <glyph glyph-name="emacron" unicode="&#x113;" horiz-adv-x="562" 
d="M290 -7q-109 0 -168 61t-59 155q0 122 81 205t208 83q103 0 159 -60.5t56 -155.5q0 -39 -15 -95h-320q1 -33 27 -52t73 -19q63 0 149 29l27 -98q-94 -53 -218 -53zM245 293h163q4 36 -13 61t-56 25q-41 0 -65.5 -26.5t-28.5 -59.5zM217 575l16 117h289l-16 -117h-289z
" />
    <glyph glyph-name="Ebreve" unicode="&#x114;" horiz-adv-x="613" 
d="M571 0h-509l95 674h503l-20 -141h-317l-17 -123h293l-20 -141h-293l-18 -128h323zM410 735q-80 0 -115 49.5t-25 126.5h104q-4 -40 6 -54.5t44 -14.5t48.5 15.5t21.5 53.5h104q-10 -76 -59 -126t-129 -50z" />
    <glyph glyph-name="ebreve" unicode="&#x115;" horiz-adv-x="562" 
d="M290 -7q-109 0 -168 61t-59 155q0 122 81 205t208 83q103 0 159 -60.5t56 -155.5q0 -39 -15 -95h-320q1 -33 27 -52t73 -19q63 0 149 29l27 -98q-94 -53 -218 -53zM245 293h163q4 36 -13 61t-56 25q-41 0 -65.5 -26.5t-28.5 -59.5zM358 545q-80 0 -115 49.5t-25 126.5
h104q-4 -40 6 -54.5t44 -14.5t48.5 15.5t21.5 53.5h104q-10 -76 -59 -126t-129 -50z" />
    <glyph glyph-name="Edotaccent" unicode="&#x116;" horiz-adv-x="613" 
d="M571 0h-509l95 674h503l-20 -141h-317l-17 -123h293l-20 -141h-293l-18 -128h323zM328 753l18 130h169l-18 -130h-169z" />
    <glyph glyph-name="edotaccent" unicode="&#x117;" horiz-adv-x="562" 
d="M290 -7q-109 0 -168 61t-59 155q0 122 81 205t208 83q103 0 159 -60.5t56 -155.5q0 -39 -15 -95h-320q1 -33 27 -52t73 -19q63 0 149 29l27 -98q-94 -53 -218 -53zM245 293h163q4 36 -13 61t-56 25q-41 0 -65.5 -26.5t-28.5 -59.5zM275 563l18 130h169l-18 -130h-169z
" />
    <glyph glyph-name="Eogonek" unicode="&#x118;" horiz-adv-x="613" 
d="M571 0h-2q-80 -99 -33 -98q10 0 25 4l49 13l-14 -95q-41 -18 -85 -23q-66 -7 -90.5 27.5t2.5 97.5q15 34 50 74h-411l95 674h503l-20 -141h-317l-17 -123h293l-20 -141h-293l-18 -128h323z" />
    <glyph glyph-name="eogonek" unicode="&#x119;" horiz-adv-x="562" 
d="M481 144l27 -98q-102 -131 -73 -143q10 -4 35 3l48 13l-13 -95q-41 -18 -85 -23q-66 -7 -91 27.5t2 97.5q12 27 52 76q-52 -9 -93 -9q-109 0 -168 61t-59 155q0 122 81 205t208 83q103 0 159 -60.5t56 -155.5q0 -39 -15 -95h-320q1 -33 27 -52t73 -19q63 0 149 29z
M245 293h163q4 36 -13 61t-56 25q-41 0 -65.5 -26.5t-28.5 -59.5z" />
    <glyph glyph-name="Ecaron" unicode="&#x11a;" horiz-adv-x="613" 
d="M571 0h-509l95 674h503l-20 -141h-317l-17 -123h293l-20 -141h-293l-18 -128h323zM488 738h-154l-87 167h148l28 -84l48 84h149z" />
    <glyph glyph-name="ecaron" unicode="&#x11b;" horiz-adv-x="562" 
d="M290 -7q-109 0 -168 61t-59 155q0 122 81 205t208 83q103 0 159 -60.5t56 -155.5q0 -39 -15 -95h-320q1 -33 27 -52t73 -19q63 0 149 29l27 -98q-94 -53 -218 -53zM245 293h163q4 36 -13 61t-56 25q-41 0 -65.5 -26.5t-28.5 -59.5zM435 548h-154l-87 167h148l29 -84
l47 84h149z" />
    <glyph glyph-name="Gcircumflex" unicode="&#x11c;" horiz-adv-x="717" 
d="M538 258h-130l19 135h304l-48 -337q-48 -28 -128.5 -45.5t-140.5 -17.5q-155 0 -244 84.5t-89 216.5q0 163 121 277t310 114q133 0 241 -74l-78 -116q-42 27 -92 38t-82 11q-61 0 -107.5 -22t-72.5 -57.5t-38.5 -74.5t-12.5 -79q0 -74 44.5 -125.5t129.5 -51.5
q37 0 78 10zM456 906h154l86 -167h-148l-28 84l-48 -84h-149z" />
    <glyph glyph-name="gcircumflex" unicode="&#x11d;" horiz-adv-x="581" 
d="M309 121q17 0 36 14t24 46l18 124q4 24 -7.5 38t-24 17.5t-27.5 3.5q-39 0 -59.5 -49.5t-20.5 -106.5q0 -87 61 -87zM266 -64q73 0 85 55l9 64q-42 -61 -100 -61q-79 0 -138 55t-59 156q0 134 68 213t161 79q40 0 71.5 -19.5t40.5 -54.5l9 61h179l-71 -507
q-7 -47 -32 -81.5t-63 -53t-79.5 -26.5t-88.5 -8q-58 0 -114.5 17t-83.5 41l57 110q61 -40 149 -40zM313 716h154l87 -167h-148l-28 84l-48 -84h-149z" />
    <glyph glyph-name="Gbreve" unicode="&#x11e;" horiz-adv-x="717" 
d="M538 258h-130l19 135h304l-48 -337q-48 -28 -128.5 -45.5t-140.5 -17.5q-155 0 -244 84.5t-89 216.5q0 163 121 277t310 114q133 0 241 -74l-78 -116q-42 27 -92 38t-82 11q-61 0 -107.5 -22t-72.5 -57.5t-38.5 -74.5t-12.5 -79q0 -74 44.5 -125.5t129.5 -51.5
q37 0 78 10zM490 735q-81 0 -116 49.5t-25 126.5h104q-4 -39 6.5 -54t44.5 -15t48 15t21 54h104q-10 -77 -58.5 -126.5t-128.5 -49.5z" />
    <glyph glyph-name="gbreve" unicode="&#x11f;" horiz-adv-x="581" 
d="M309 121q17 0 36 14t24 46l18 124q4 24 -7.5 38t-24 17.5t-27.5 3.5q-39 0 -59.5 -49.5t-20.5 -106.5q0 -87 61 -87zM266 -64q73 0 85 55l9 64q-42 -61 -100 -61q-79 0 -138 55t-59 156q0 134 68 213t161 79q40 0 71.5 -19.5t40.5 -54.5l9 61h179l-71 -507
q-7 -47 -32 -81.5t-63 -53t-79.5 -26.5t-88.5 -8q-58 0 -114.5 17t-83.5 41l57 110q61 -40 149 -40zM367 545q-80 0 -115 49.5t-25 126.5h104q-4 -40 6 -54.5t44 -14.5t48.5 15.5t21.5 53.5h104q-10 -76 -59 -126t-129 -50z" />
    <glyph glyph-name="Gdotaccent" unicode="&#x120;" horiz-adv-x="717" 
d="M538 258h-130l19 135h304l-48 -337q-48 -28 -128.5 -45.5t-140.5 -17.5q-155 0 -244 84.5t-89 216.5q0 163 121 277t310 114q133 0 241 -74l-78 -116q-42 27 -92 38t-82 11q-61 0 -107.5 -22t-72.5 -57.5t-38.5 -74.5t-12.5 -79q0 -74 44.5 -125.5t129.5 -51.5
q37 0 78 10zM424 753l18 130h169l-18 -130h-169z" />
    <glyph glyph-name="gdotaccent" unicode="&#x121;" horiz-adv-x="581" 
d="M309 121q17 0 36 14t24 46l18 124q4 24 -7.5 38t-24 17.5t-27.5 3.5q-39 0 -59.5 -49.5t-20.5 -106.5q0 -87 61 -87zM266 -64q73 0 85 55l9 64q-42 -61 -100 -61q-79 0 -138 55t-59 156q0 134 68 213t161 79q40 0 71.5 -19.5t40.5 -54.5l9 61h179l-71 -507
q-7 -47 -32 -81.5t-63 -53t-79.5 -26.5t-88.5 -8q-58 0 -114.5 17t-83.5 41l57 110q61 -40 149 -40zM285 563l18 130h169l-18 -130h-169z" />
    <glyph glyph-name="Gcommaaccent" unicode="&#x122;" horiz-adv-x="717" 
d="M538 258h-130l19 135h304l-48 -337q-48 -28 -128.5 -45.5t-140.5 -17.5q-155 0 -244 84.5t-89 216.5q0 163 121 277t310 114q133 0 241 -74l-78 -116q-42 27 -92 38t-82 11q-61 0 -107.5 -22t-72.5 -57.5t-38.5 -74.5t-12.5 -79q0 -74 44.5 -125.5t129.5 -51.5
q37 0 78 10zM195 -220l119 179h173l-162 -179h-130z" />
    <glyph glyph-name="gcommaaccent" unicode="&#x123;" horiz-adv-x="581" 
d="M309 121q17 0 36 14t24 46l18 124q4 24 -7.5 38t-24 17.5t-27.5 3.5q-39 0 -59.5 -49.5t-20.5 -106.5q0 -87 61 -87zM266 -64q73 0 85 55l9 64q-42 -61 -100 -61q-79 0 -138 55t-59 156q0 134 68 213t161 79q40 0 71.5 -19.5t40.5 -54.5l9 61h179l-71 -507
q-7 -47 -32 -81.5t-63 -53t-79.5 -26.5t-88.5 -8q-58 0 -114.5 17t-83.5 41l57 110q61 -40 149 -40zM553 799l-156 -238h-185l190 238h151z" />
    <glyph glyph-name="Hcircumflex" unicode="&#x124;" horiz-adv-x="705" 
d="M495 275h-207l-39 -275h-187l95 674h187l-37 -258h207l37 258h187l-95 -674h-187zM402 906h154l87 -167h-148l-28 84l-48 -84h-149z" />
    <glyph glyph-name="hcircumflex" unicode="&#x125;" horiz-adv-x="580" 
d="M562 280l-39 -280h-180l39 280q12 83 -27 83q-13 0 -26.5 -4.5t-30 -24t-21.5 -52.5l-40 -282h-180l95 674h180l-36 -251q21 40 56 57t59 17q180 0 151 -217zM195 897h154l87 -167h-148l-29 84l-47 -84h-149z" />
    <glyph glyph-name="Hbar" unicode="&#x126;" horiz-adv-x="705" 
d="M495 275h-207l-39 -275h-187l95 674h187l-37 -258h207l37 258h187l-95 -674h-187zM316 765l16 117h289l-16 -117h-289z" />
    <glyph glyph-name="hbar" unicode="&#x127;" horiz-adv-x="619" 
d="M86 528l13 94h84l8 52h180l-8 -52h133l-13 -94h-133l-15 -105q21 40 56 57t59 17q180 0 151 -217l-39 -280h-180l39 280q12 83 -27 83q-13 0 -26.5 -4.5t-30.5 -24t-22 -52.5l-40 -282h-179l74 528h-84z" />
    <glyph glyph-name="Itilde" unicode="&#x128;" horiz-adv-x="310" 
d="M62 0l95 674h186l-95 -674h-186zM227 776q-27 0 -36 -42h-91q10 79 39 118t88 39q24 0 49 -16q29 -17 40 -17q29 0 31 40h93q-10 -71 -38.5 -114t-89.5 -43q-22 0 -48 18q-4 2 -10 6l-9 6t-8 3.5t-10 1.5z" />
    <glyph glyph-name="itilde" unicode="&#x129;" horiz-adv-x="294" 
d="M57 0l68 484h180l-68 -484h-180zM192 586q-27 0 -36 -42h-91q10 79 39.5 118t88.5 39q23 0 48 -16q29 -17 40 -17q27 0 32 40h93q-22 -157 -129 -157q-22 0 -48 18q-4 2 -10 6l-9 6t-8 3.5t-10 1.5z" />
    <glyph glyph-name="imacron" unicode="&#x12b;" horiz-adv-x="294" 
d="M57 0l68 484h180l-68 -484h-180zM84 575l16 117h289l-16 -117h-289z" />
    <glyph glyph-name="Ibreve" unicode="&#x12c;" horiz-adv-x="310" 
d="M62 0l95 674h186l-95 -674h-186zM259 735q-80 0 -115 49.5t-25 126.5h104q-4 -40 6 -54.5t44 -14.5t48.5 15.5t21.5 53.5h104q-10 -76 -59 -126t-129 -50z" />
    <glyph glyph-name="Iogonek" unicode="&#x12e;" horiz-adv-x="310" 
d="M62 0l95 674h186l-95 -674h-90q-80 -99 -33 -98q10 0 25 4l49 13l-14 -95q-41 -18 -85 -23q-66 -7 -90.5 27.5t2.5 97.5q15 34 50 74z" />
    <glyph glyph-name="iogonek" unicode="&#x12f;" horiz-adv-x="294" 
d="M57 0l68 484h180l-68 -484h-83q-80 -99 -33 -98q10 0 25 4l49 13l-14 -95q-41 -18 -85 -23q-66 -7 -90.5 27.5t2.5 97.5q15 34 50 74h-1zM133 538l19 136h180l-19 -136h-180z" />
    <glyph glyph-name="Idotaccent" unicode="&#x130;" horiz-adv-x="310" 
d="M62 0l95 674h186l-95 -674h-186zM176 753l18 130h169l-18 -130h-169z" />
    <glyph glyph-name="dotlessi" unicode="&#x131;" horiz-adv-x="294" 
d="M57 0l68 484h180l-68 -484h-180z" />
    <glyph glyph-name="IJ" unicode="&#x132;" horiz-adv-x="803" 
d="M62 0l95 674h186l-95 -674h-186zM329 45l59 121q27 -19 63.5 -31.5t63.5 -12.5q59 0 71 81l66 471h184l-67 -477q-30 -204 -244 -204q-93 0 -196 52z" />
    <glyph glyph-name="ij" unicode="&#x133;" horiz-adv-x="600" 
d="M57 0l68 484h180l-68 -484h-180zM133 538l19 136h180l-19 -136h-180zM439 538l19 136h180l-19 -136h-180zM610 484l-71 -508q-24 -166 -192 -166q-54 0 -121 39l41 98l51 -15q16 -2 26 7t11.5 16l4.5 21l71 508h179z" />
    <glyph glyph-name="Jcircumflex" unicode="&#x134;" horiz-adv-x="487" 
d="M13 45l59 121q27 -18 63.5 -31t63.5 -13q58 0 70 81l66 471h184l-67 -477q-30 -204 -243 -204q-93 0 -196 52zM384 906h154l87 -167h-148l-29 84l-47 -84h-149z" />
    <glyph glyph-name="jcircumflex" unicode="&#x135;" horiz-adv-x="300" 
d="M174 716h154l86 -167h-148l-28 84l-48 -84h-149zM309 484l-71 -508q-24 -166 -191 -166q-55 0 -122 39l41 98l52 -15q12 -2 20 1.5t12.5 13.5t5.5 14t3 15l71 508h179z" />
    <glyph glyph-name="Kcommaaccent" unicode="&#x136;" horiz-adv-x="669" 
d="M662 0h-222l-142 243l-19 -19l-31 -224h-186l95 674h186l-32 -223l193 223h214l-288 -306zM135 -220l118 179h173l-161 -179h-130z" />
    <glyph glyph-name="kcedilla" unicode="&#x137;" horiz-adv-x="555" 
d="M384 292l164 -292h-201l-84 184l-26 -184h-180l95 674h180l-42 -295l96 105h215zM246 10h72q33 -45 37 -84q10 -63 -24.5 -97t-99.5 -28q-39 4 -79 23l14 95l45 -13q30 -9 46 0.5t14 37t-25 66.5z" />
    <glyph glyph-name="kgreenlandic" unicode="&#x138;" horiz-adv-x="555" 
d="M408 248l140 -248h-201l-84 184l-26 -184h-180l68 484h180l-24 -170l143 170h196z" />
    <glyph glyph-name="Lacute" unicode="&#x139;" horiz-adv-x="583" 
d="M345 674l-75 -532h296l-20 -142h-484l95 674h188zM181 744l100 154h173l-143 -154h-130z" />
    <glyph glyph-name="lacute" unicode="&#x13a;" horiz-adv-x="294" 
d="M57 0l95 674h180l-95 -674h-180zM162 720l101 154h173l-144 -154h-130z" />
    <glyph glyph-name="Lcommaaccent" unicode="&#x13b;" horiz-adv-x="583" 
d="M345 674l-75 -532h296l-20 -142h-484l95 674h188zM112 -220l118 179h173l-161 -179h-130z" />
    <glyph glyph-name="lcommaaccent" unicode="&#x13c;" horiz-adv-x="294" 
d="M57 0l95 674h180l-95 -674h-180zM-62 -220l118 179h173l-161 -179h-130z" />
    <glyph glyph-name="Lcaron" unicode="&#x13d;" horiz-adv-x="607" 
d="M345 674l-75 -532h296l-20 -142h-484l95 674h188zM352 436l157 238h185l-191 -238h-151z" />
    <glyph glyph-name="lcaron" unicode="&#x13e;" horiz-adv-x="583" 
d="M57 0l95 674h180l-95 -674h-180zM330 436l157 238h185l-191 -238h-151z" />
    <glyph glyph-name="Ldot" unicode="&#x13f;" horiz-adv-x="583" 
d="M345 674l-75 -532h296l-20 -142h-484l95 674h188zM400 429l22 151h187l-22 -151h-187z" />
    <glyph glyph-name="ldot" unicode="&#x140;" horiz-adv-x="519" 
d="M57 0l95 674h180l-95 -674h-180zM317 226l21 151h187l-21 -151h-187z" />
    <glyph glyph-name="Lslash" unicode="&#x141;" horiz-adv-x="635" 
d="M114 0l35 251l-111 -63l15 109l112 67l43 310h187l-28 -202l110 66l-15 -109l-110 -66l-31 -221h297l-20 -142h-484z" />
    <glyph glyph-name="lslash" unicode="&#x142;" horiz-adv-x="399" 
d="M339 352l-49 -352h-181l32 229l-106 -65l16 115l107 71l46 324h181l-30 -211l106 66l-16 -113z" />
    <glyph glyph-name="Nacute" unicode="&#x143;" horiz-adv-x="709" 
d="M441 0l-139 388l-55 -388h-185l95 674h215l131 -382l54 382h185l-95 -674h-206zM379 744l100 154h173l-143 -154h-130z" />
    <glyph glyph-name="nacute" unicode="&#x144;" horiz-adv-x="580" 
d="M562 278l-39 -278h-180l39 278q12 87 -27 87q-21 0 -46.5 -19.5t-32.5 -65.5l-39 -280h-180l68 484h174l-9 -61q26 40 63 57t61 17q88 0 126.5 -50.5t21.5 -168.5zM242 554l101 154h173l-144 -154h-130z" />
    <glyph glyph-name="Ncommaaccent" unicode="&#x145;" horiz-adv-x="709" 
d="M441 0l-139 388l-55 -388h-185l95 674h215l131 -382l54 382h185l-95 -674h-206zM135 -220l118 179h173l-161 -179h-130z" />
    <glyph glyph-name="ncommaaccent" unicode="&#x146;" horiz-adv-x="580" 
d="M562 278l-39 -278h-180l39 278q12 87 -27 87q-21 0 -46.5 -19.5t-32.5 -65.5l-39 -280h-180l68 484h174l-9 -61q26 40 63 57t61 17q88 0 126.5 -50.5t21.5 -168.5zM93 -220l118 179h173l-161 -179h-130z" />
    <glyph glyph-name="Ncaron" unicode="&#x147;" horiz-adv-x="709" 
d="M441 0l-139 388l-55 -388h-185l95 674h215l131 -382l54 382h185l-95 -674h-206zM536 738h-154l-87 167h148l28 -84l48 84h149z" />
    <glyph glyph-name="ncaron" unicode="&#x148;" horiz-adv-x="580" 
d="M562 278l-39 -278h-180l39 278q12 87 -27 87q-21 0 -46.5 -19.5t-32.5 -65.5l-39 -280h-180l68 484h174l-9 -61q26 40 63 57t61 17q88 0 126.5 -50.5t21.5 -168.5zM444 548h-154l-87 167h148l29 -84l47 84h149z" />
    <glyph glyph-name="Eng" unicode="&#x14a;" horiz-adv-x="709" 
d="M461 0l-158 400l-56 -400h-185l95 674h215l131 -382l54 382h185l-95 -674q-36 -184 -241 -184q-6 0 -34 1t-35 1l18 127h41q33 0 46.5 12t18.5 43z" />
    <glyph glyph-name="eng" unicode="&#x14b;" horiz-adv-x="580" 
d="M562 278l-39 -278q-36 -184 -241 -184q-6 0 -34 1t-35 1l18 127h47q33 0 46.5 12t18.5 43l39 278q12 87 -27 87q-21 0 -46.5 -19.5t-32.5 -65.5l-39 -280h-180l68 484h174l-9 -61q26 40 63 57t61 17q88 0 126.5 -50.5t21.5 -168.5z" />
    <glyph glyph-name="Omacron" unicode="&#x14c;" horiz-adv-x="757" 
d="M377 -7q-142 0 -220 76t-78 213q0 183 108.5 293t286.5 110q140 0 219 -78t79 -215q0 -183 -108 -291t-287 -108zM454 546q-84 0 -133 -75t-49 -177q0 -73 31.5 -118t92.5 -45q86 0 134 71t48 175q0 74 -31.5 121.5t-92.5 47.5zM341 765l17 117h289l-17 -117h-289z" />
    <glyph glyph-name="omacron" unicode="&#x14d;" horiz-adv-x="569" 
d="M63 204q0 132 80.5 212.5t210.5 80.5q104 0 162.5 -57.5t58.5 -157.5q0 -133 -80 -211t-212 -78q-105 0 -162.5 55.5t-57.5 155.5zM394 267q0 41 -15.5 70t-43.5 29q-40 0 -66 -46.5t-26 -102.5q0 -42 15 -70t43 -28q39 0 66 46.5t27 101.5zM221 575l16 117h289l-16 -117
h-289z" />
    <glyph glyph-name="Obreve" unicode="&#x14e;" horiz-adv-x="757" 
d="M377 -7q-142 0 -220 76t-78 213q0 183 108.5 293t286.5 110q140 0 219 -78t79 -215q0 -183 -108 -291t-287 -108zM454 546q-84 0 -133 -75t-49 -177q0 -73 31.5 -118t92.5 -45q86 0 134 71t48 175q0 74 -31.5 121.5t-92.5 47.5zM482 735q-81 0 -115.5 49.5t-24.5 126.5
h104q-4 -40 6 -54.5t44 -14.5t48.5 15.5t21.5 53.5h104q-10 -76 -59 -126t-129 -50z" />
    <glyph glyph-name="obreve" unicode="&#x14f;" horiz-adv-x="569" 
d="M63 204q0 132 80.5 212.5t210.5 80.5q104 0 162.5 -57.5t58.5 -157.5q0 -133 -80 -211t-212 -78q-105 0 -162.5 55.5t-57.5 155.5zM394 267q0 41 -15.5 70t-43.5 29q-40 0 -66 -46.5t-26 -102.5q0 -42 15 -70t43 -28q39 0 66 46.5t27 101.5zM362 545q-81 0 -116 49.5
t-25 126.5h104q-4 -39 6.5 -54t44.5 -15t48 15t21 54h104q-10 -77 -58.5 -126.5t-128.5 -49.5z" />
    <glyph glyph-name="Ohungarumlaut" unicode="&#x150;" horiz-adv-x="757" 
d="M377 -7q-142 0 -220 76t-78 213q0 183 108.5 293t286.5 110q140 0 219 -78t79 -215q0 -183 -108 -291t-287 -108zM454 546q-84 0 -133 -75t-49 -177q0 -73 31.5 -118t92.5 -45q86 0 134 71t48 175q0 74 -31.5 121.5t-92.5 47.5zM328 741l101 164h144l-128 -164h-117z
M505 741l101 164h144l-128 -164h-117z" />
    <glyph glyph-name="ohungarumlaut" unicode="&#x151;" horiz-adv-x="569" 
d="M63 204q0 132 80.5 212.5t210.5 80.5q104 0 162.5 -57.5t58.5 -157.5q0 -133 -80 -211t-212 -78q-105 0 -162.5 55.5t-57.5 155.5zM394 267q0 41 -15.5 70t-43.5 29q-40 0 -66 -46.5t-26 -102.5q0 -42 15 -70t43 -28q39 0 66 46.5t27 101.5zM201 551l101 164h144
l-128 -164h-117zM378 551l101 164h144l-128 -164h-117z" />
    <glyph glyph-name="OE" unicode="&#x152;" horiz-adv-x="1081" 
d="M454 546q-85 0 -134.5 -74.5t-49.5 -177.5q0 -73 32 -118t94 -45q86 0 134.5 71t48.5 175q0 73 -32 121t-93 48zM529 0l7 50q-70 -58 -174 -58q-131 0 -207 77t-76 213q0 182 109.5 292.5t271.5 110.5q98 0 155 -68l8 57h503l-20 -141h-316l-17 -123h292l-20 -141h-292
l-18 -128h323l-19 -141h-510z" />
    <glyph glyph-name="oe" unicode="&#x153;" horiz-adv-x="894" 
d="M622 -7q-99 0 -162 53q-74 -53 -177 -53q-104 0 -162 55.5t-58 155.5q0 132 80.5 212.5t210.5 80.5q102 0 161 -53q72 53 169 53q102 0 159 -61t57 -155q0 -35 -16 -95h-320q11 -71 100 -71q81 0 154 34l27 -103q-94 -53 -223 -53zM395 267q0 41 -15.5 70t-43.5 29
q-40 0 -66.5 -47t-26.5 -102q0 -42 15 -70t43 -28q40 0 67 46.5t27 101.5zM578 296h163q4 31 -17 50t-54 19q-32 0 -60 -20.5t-32 -48.5z" />
    <glyph glyph-name="Racute" unicode="&#x154;" horiz-adv-x="671" 
d="M335 744l100 154h173l-143 -154h-130zM677 495q0 -21 -4 -42t-16.5 -50.5t-43 -56t-75.5 -43.5q45 -11 59 -79l57 -224h-191l-52 192q-6 26 -17.5 37t-31.5 12h-80l-34 -241h-186l95 674h311q60 0 103 -15.5t65 -42.5t31.5 -56.5t9.5 -64.5zM302 382h114q37 0 56.5 29
t19.5 57t-13.5 46.5t-41.5 18.5h-114z" />
    <glyph glyph-name="racute" unicode="&#x155;" horiz-adv-x="394" 
d="M149 554l101 154h173l-144 -154h-130zM430 490l-21 -150h-29q-48 0 -74.5 -31t-33.5 -78l-32 -231h-178l68 484h174l-11 -78q46 84 115 84h22z" />
    <glyph glyph-name="Rcommaaccent" unicode="&#x156;" horiz-adv-x="671" 
d="M135 -220l118 179h173l-161 -179h-130zM677 495q0 -21 -4 -42t-16.5 -50.5t-43 -56t-75.5 -43.5q45 -11 59 -79l57 -224h-191l-52 192q-6 26 -17.5 37t-31.5 12h-80l-34 -241h-186l95 674h311q60 0 103 -15.5t65 -42.5t31.5 -56.5t9.5 -64.5zM302 382h114q37 0 56.5 29
t19.5 57t-13.5 46.5t-41.5 18.5h-114z" />
    <glyph glyph-name="rcommaaccent" unicode="&#x157;" horiz-adv-x="394" 
d="M-58 -220l118 179h173l-161 -179h-130zM430 490l-21 -150h-29q-47 0 -74.5 -31.5t-34.5 -77.5l-32 -231h-177l68 484h174l-11 -78q46 84 115 84h22z" />
    <glyph glyph-name="Rcaron" unicode="&#x158;" horiz-adv-x="671" 
d="M517 738h-154l-87 167h148l28 -84l48 84h149zM677 495q0 -21 -4 -42t-16.5 -50.5t-43 -56t-75.5 -43.5q45 -11 59 -79l57 -224h-191l-52 192q-6 26 -17.5 37t-31.5 12h-80l-34 -241h-186l95 674h311q60 0 103 -15.5t65 -42.5t31.5 -56.5t9.5 -64.5zM302 382h114
q37 0 56.5 29t19.5 57t-13.5 46.5t-41.5 18.5h-114z" />
    <glyph glyph-name="rcaron" unicode="&#x159;" horiz-adv-x="394" 
d="M352 548h-154l-87 167h148l29 -84l47 84h149zM430 490l-21 -150h-29q-48 0 -74.5 -31t-33.5 -78l-32 -231h-178l68 484h174l-11 -78q46 84 115 84h22z" />
    <glyph glyph-name="Sacute" unicode="&#x15a;" horiz-adv-x="617" 
d="M404 685q80 0 132.5 -22t111.5 -72l-70 -121q-49 34 -92.5 51t-57 18t-38.5 1q-40 0 -65 -15.5t-25 -36.5q0 -26 36 -46l162 -64q122 -49 122 -157q0 -106 -88 -167t-207 -61q-99 0 -144 19q-92 37 -140 89l82 128q37 -39 101 -66.5t122 -27.5q33 0 58 13.5t25 43.5
q0 29 -25 42l-164 67q-128 53 -128 159q0 100 84.5 162.5t207.5 62.5zM326 744l101 154h173l-144 -154h-130z" />
    <glyph glyph-name="sacute" unicode="&#x15b;" horiz-adv-x="489" 
d="M37 71l82 97q45 -37 107.5 -50.5t77.5 11.5q14 24 -9 32l-112 44q-98 45 -98 122q0 76 65 122.5t165 46.5q34 0 58 -2.5t62.5 -17.5t76.5 -42l-70 -102q-65 45 -140 45q-24 0 -30 -19q-4 -20 25 -31l83 -29q70 -25 93.5 -85t-14.5 -133q-26 -41 -80 -64t-124 -23
q-133 0 -218 78zM254 554l101 154h173l-144 -154h-130z" />
    <glyph glyph-name="Scircumflex" unicode="&#x15c;" horiz-adv-x="617" 
d="M404 685q80 0 132.5 -22t111.5 -72l-70 -121q-49 34 -92.5 51t-57 18t-38.5 1q-40 0 -65 -15.5t-25 -36.5q0 -26 36 -46l162 -64q122 -49 122 -157q0 -106 -88 -167t-207 -61q-99 0 -144 19q-92 37 -140 89l82 128q37 -39 101 -66.5t122 -27.5q33 0 58 13.5t25 43.5
q0 29 -25 42l-164 67q-128 53 -128 159q0 100 84.5 162.5t207.5 62.5zM358 906h154l87 -167h-148l-29 84l-47 -84h-149z" />
    <glyph glyph-name="scircumflex" unicode="&#x15d;" horiz-adv-x="489" 
d="M37 71l82 97q45 -37 107.5 -50.5t77.5 11.5q14 24 -9 32l-112 44q-98 45 -98 122q0 76 65 122.5t165 46.5q34 0 58 -2.5t62.5 -17.5t76.5 -42l-70 -102q-65 45 -140 45q-24 0 -30 -19q-4 -20 25 -31l83 -29q70 -25 93.5 -85t-14.5 -133q-26 -41 -80 -64t-124 -23
q-133 0 -218 78zM268 716h154l86 -167h-148l-28 84l-48 -84h-149z" />
    <glyph glyph-name="Scedilla" unicode="&#x15e;" horiz-adv-x="617" 
d="M352 -6q21 -37 26 -68q12 -63 -23 -97t-100 -28q-39 4 -79 23l13 95l46 -13q50 -17 45 25q-4 23 -25 65q-55 7 -75 16q-91 36 -139 89l82 128q37 -39 101 -66.5t122 -27.5q33 0 58 13.5t25 43.5q0 29 -25 42l-164 67q-128 53 -128 159q0 100 84.5 162.5t207.5 62.5
q80 0 132.5 -22t111.5 -72l-70 -121q-49 34 -92.5 51t-57 18t-38.5 1q-40 0 -65 -15.5t-25 -36.5q0 -26 35 -46l163 -64q122 -49 122 -157q0 -99 -78.5 -160t-189.5 -67z" />
    <glyph glyph-name="scedilla" unicode="&#x15f;" horiz-adv-x="489" 
d="M288 -5q23 -44 27 -69q12 -63 -24 -97t-100 -28q-39 4 -79 23l14 95l45 -13q48 -16 45 21q-1 25 -26 71q-90 14 -153 73l82 97q45 -37 107.5 -50.5t77.5 11.5q14 24 -9 32l-112 44q-98 45 -98 122q0 76 65 122.5t165 46.5q34 0 58 -2.5t62.5 -17.5t76.5 -42l-70 -102
q-65 45 -140 45q-24 0 -30 -19q-4 -20 25 -31l82 -29q70 -25 94 -84.5t-14 -133.5q-48 -74 -171 -85z" />
    <glyph glyph-name="Scaron" unicode="&#x160;" horiz-adv-x="617" 
d="M404 685q80 0 132.5 -22t111.5 -72l-70 -121q-49 34 -92.5 51t-57 18t-38.5 1q-40 0 -65 -15.5t-25 -36.5q0 -26 36 -46l162 -64q122 -49 122 -157q0 -106 -88 -167t-207 -61q-99 0 -144 19q-92 37 -140 89l82 128q37 -39 101 -66.5t122 -27.5q33 0 58 13.5t25 43.5
q0 29 -25 42l-164 67q-128 53 -128 159q0 100 84.5 162.5t207.5 62.5zM490 738h-154l-87 167h148l28 -84l48 84h149z" />
    <glyph glyph-name="scaron" unicode="&#x161;" horiz-adv-x="489" 
d="M37 71l82 97q45 -37 107.5 -50.5t77.5 11.5q14 24 -9 32l-112 44q-98 45 -98 122q0 76 65 122.5t165 46.5q34 0 58 -2.5t62.5 -17.5t76.5 -42l-70 -102q-65 45 -140 45q-24 0 -30 -19q-4 -20 25 -31l83 -29q70 -25 93.5 -85t-14.5 -133q-26 -41 -80 -64t-124 -23
q-133 0 -218 78zM399 548h-154l-86 167h148l28 -84l48 84h149z" />
    <glyph glyph-name="Tcommaaccent" unicode="&#x162;" horiz-adv-x="591" 
d="M657 533h-194l-75 -533h-186l75 533h-193l20 141h573zM80 -220l118 179h173l-161 -179h-130z" />
    <glyph glyph-name="tcommaaccent" unicode="&#x163;" horiz-adv-x="384" 
d="M130 374h-69l16 110h69l16 114h186l-16 -114h91l-16 -110h-91l-32 -231q-5 -26 11 -26q33 0 84 19l-9 -112q-72 -35 -123 -35h-2q-27 0 -46 3.5t-50 17t-44 52t-5 98.5zM1 -220l118 179h173l-161 -179h-130z" />
    <glyph glyph-name="Tcaron" unicode="&#x164;" horiz-adv-x="591" 
d="M657 533h-194l-75 -533h-186l75 533h-193l20 141h573zM477 738h-154l-87 167h148l28 -84l48 84h149z" />
    <glyph glyph-name="tcaron" unicode="&#x165;" horiz-adv-x="556" 
d="M131 374h-69l15 110h69l16 114h186l-16 -114h91l-15 -110h-91l-32 -231q-5 -26 11 -26q33 0 84 19l-9 -112q-73 -35 -123 -35h-2q-27 0 -46 3.5t-50 17t-44 52t-5 98.5zM396 547l133 238h170l-167 -238h-136z" />
    <glyph glyph-name="Tbar" unicode="&#x166;" horiz-adv-x="591" 
d="M657 533h-194l-75 -533h-186l75 533h-193l20 141h573zM259 765l16 117h289l-16 -117h-289z" />
    <glyph glyph-name="tbar" unicode="&#x167;" horiz-adv-x="384" 
d="M108 210h-49l14 100h49l9 64h-69l16 110h69l16 114h186l-16 -114h91l-16 -110h-91l-9 -64h64l-14 -100h-64l-9 -67q-5 -26 11 -26q33 0 84 19l-9 -112q-73 -35 -123 -35h-2q-27 0 -46 3.5t-50 17t-44 52t-5 98.5z" />
    <glyph glyph-name="Utilde" unicode="&#x168;" horiz-adv-x="727" 
d="M361 -12q-147 0 -213.5 72.5t-43.5 242.5l52 371h187l-52 -372q-12 -88 9.5 -131t80.5 -43q62 0 95 42.5t45 131.5l52 372h186l-52 -371q-23 -171 -110.5 -243t-235.5 -72zM435 776q-27 0 -36 -42h-91q10 79 39 118t88 39q24 0 49 -16q29 -17 39 -17q30 0 32 40h93
q-10 -71 -38.5 -114t-89.5 -43q-23 0 -49 18q-4 2 -9.5 6t-8.5 6t-8 3.5t-10 1.5z" />
    <glyph glyph-name="utilde" unicode="&#x169;" horiz-adv-x="580" 
d="M86 206l39 278h180l-39 -278q-12 -85 27 -85q7 0 15.5 1.5t23 7.5t25 21.5t13.5 38.5l41 294h180l-68 -484h-174l8 56q-45 -63 -118 -63q-32 0 -60.5 10.5t-54 33t-36.5 66.5t-2 103zM335 586q-27 0 -36 -42h-91q10 79 39 118t88 39q24 0 49 -16q29 -17 39 -17
q30 0 32 40h93q-10 -71 -38.5 -114t-89.5 -43q-23 0 -49 18q-4 2 -9.5 6t-8.5 6t-8 3.5t-10 1.5z" />
    <glyph glyph-name="Umacron" unicode="&#x16a;" horiz-adv-x="727" 
d="M361 -12q-147 0 -213.5 72.5t-43.5 242.5l52 371h187l-52 -372q-12 -88 9.5 -131t80.5 -43q62 0 95 42.5t45 131.5l52 372h186l-52 -371q-23 -171 -110.5 -243t-235.5 -72zM326 765l17 117h289l-17 -117h-289z" />
    <glyph glyph-name="umacron" unicode="&#x16b;" horiz-adv-x="580" 
d="M86 206l39 278h180l-39 -278q-12 -85 27 -85q7 0 15.5 1.5t23 7.5t25 21.5t13.5 38.5l41 294h180l-68 -484h-174l8 56q-45 -63 -118 -63q-32 0 -60.5 10.5t-54 33t-36.5 66.5t-2 103zM226 575l17 117h289l-17 -117h-289z" />
    <glyph glyph-name="Ubreve" unicode="&#x16c;" horiz-adv-x="727" 
d="M361 -12q-147 0 -213.5 72.5t-43.5 242.5l52 371h187l-52 -372q-12 -88 9.5 -131t80.5 -43q62 0 95 42.5t45 131.5l52 372h186l-52 -371q-23 -171 -110.5 -243t-235.5 -72zM467 735q-81 0 -115.5 49.5t-24.5 126.5h104q-4 -40 6 -54.5t44 -14.5t48.5 15.5t21.5 53.5h104
q-10 -76 -59 -126t-129 -50z" />
    <glyph glyph-name="ubreve" unicode="&#x16d;" horiz-adv-x="580" 
d="M86 206l39 278h180l-39 -278q-12 -85 27 -85q7 0 15.5 1.5t23 7.5t25 21.5t13.5 38.5l41 294h180l-68 -484h-174l8 56q-45 -63 -118 -63q-32 0 -60.5 10.5t-54 33t-36.5 66.5t-2 103zM368 545q-81 0 -115.5 49.5t-24.5 126.5h104q-4 -40 6 -54.5t44 -14.5t48.5 15.5
t21.5 53.5h104q-10 -76 -59 -126t-129 -50z" />
    <glyph glyph-name="Uring" unicode="&#x16e;" horiz-adv-x="727" 
d="M361 -12q-147 0 -213.5 72.5t-43.5 242.5l52 371h187l-52 -372q-12 -88 9.5 -131t80.5 -43q62 0 95 42.5t45 131.5l52 372h186l-52 -371q-23 -171 -110.5 -243t-235.5 -72zM369 839q0 50 32 85t97 35q98 0 98 -87q0 -52 -30 -86.5t-98 -34.5q-51 0 -75 24.5t-24 63.5z
M509 861q0 26 -23 26q-32 0 -32 -39q0 -26 23 -26q32 0 32 39z" />
    <glyph glyph-name="uring" unicode="&#x16f;" horiz-adv-x="580" 
d="M86 206l39 278h180l-39 -278q-12 -85 27 -85q7 0 15.5 1.5t23 7.5t25 21.5t13.5 38.5l41 294h180l-68 -484h-174l8 56q-45 -63 -118 -63q-32 0 -60.5 10.5t-54 33t-36.5 66.5t-2 103zM270 649q0 50 31.5 85t96.5 35q99 0 99 -87q0 -52 -30 -86.5t-98 -34.5
q-51 0 -75 24.5t-24 63.5zM410 671q0 26 -23 26q-32 0 -32 -39q0 -26 23 -26q32 0 32 39z" />
    <glyph glyph-name="Uhungarumlaut" unicode="&#x170;" horiz-adv-x="727" 
d="M361 -12q-147 0 -213.5 72.5t-43.5 242.5l52 371h187l-52 -372q-12 -88 9.5 -131t80.5 -43q62 0 95 42.5t45 131.5l52 372h186l-52 -371q-23 -171 -110.5 -243t-235.5 -72zM297 741l101 164h144l-128 -164h-117zM474 741l101 164h144l-128 -164h-117z" />
    <glyph glyph-name="uhungarumlaut" unicode="&#x171;" horiz-adv-x="580" 
d="M86 206l39 278h180l-39 -278q-12 -85 27 -85q7 0 15.5 1.5t23 7.5t25 21.5t13.5 38.5l41 294h180l-68 -484h-174l8 56q-45 -63 -118 -63q-32 0 -60.5 10.5t-54 33t-36.5 66.5t-2 103zM210 551l101 164h144l-128 -164h-117zM387 551l101 164h144l-128 -164h-117z" />
    <glyph glyph-name="Uogonek" unicode="&#x172;" horiz-adv-x="727" 
d="M409 -10q-69 -88 -24 -88q10 0 25 4l48 13l-13 -95q-41 -18 -85 -23q-66 -7 -91 27.5t2 97.5q14 29 42 64q-122 10 -176 83.5t-33 229.5l52 371h187l-52 -372q-12 -88 9.5 -131t80.5 -43q62 0 95 42.5t45 131.5l52 372h186l-52 -371q-23 -157 -97.5 -230t-200.5 -83z" />
    <glyph glyph-name="uogonek" unicode="&#x173;" horiz-adv-x="580" 
d="M86 206l39 278h180l-39 -278q-12 -85 27 -85q7 0 15.5 1.5t23 7.5t25 21.5t13.5 38.5l41 294h180l-68 -484h-78q-80 -99 -33 -98q10 0 25 4l49 13l-13 -95q-43 -18 -86 -23q-66 -7 -90.5 27.5t2.5 97.5q15 34 50 74l8 56q-45 -63 -118 -63q-32 0 -60.5 10.5t-54 33
t-36.5 66.5t-2 103z" />
    <glyph glyph-name="Wcircumflex" unicode="&#x174;" horiz-adv-x="968" 
d="M661 652l42 -398l157 420h194l-301 -674h-170l-43 387l-155 -387h-169l-112 674h191l42 -420l155 398h169zM534 906h154l86 -167h-148l-28 84l-48 -84h-149z" />
    <glyph glyph-name="wcircumflex" unicode="&#x175;" horiz-adv-x="812" 
d="M77 484h188l25 -263l98 263h172l25 -260l99 260h187l-236 -484h-154l-42 238l-106 -238h-156zM429 716h154l86 -167h-148l-28 84l-48 -84h-149z" />
    <glyph glyph-name="Ycircumflex" unicode="&#x176;" horiz-adv-x="724" 
d="M457 0h-189l34 238l-198 436h213l101 -284l178 284h214l-319 -435zM412 906h154l86 -167h-148l-28 84l-48 -84h-149z" />
    <glyph glyph-name="ycircumflex" unicode="&#x177;" horiz-adv-x="595" 
d="M66 -149l30 110q18 -6 48 -8q26 -2 42 26l29 51q-11 39 -138 454h189l62 -285l136 285h190l-323 -571q-15 -27 -38.5 -46t-49 -27t-44 -11t-34.5 -3q-32 0 -99 25zM321 716h154l86 -167h-148l-28 84l-48 -84h-149z" />
    <glyph glyph-name="Ydieresis" unicode="&#x178;" horiz-adv-x="724" 
d="M457 0h-189l34 238l-198 436h213l101 -284l178 284h214l-319 -435zM298 745l19 136h148l-19 -136h-148zM488 745l19 136h148l-19 -136h-148z" />
    <glyph glyph-name="Zacute" unicode="&#x179;" horiz-adv-x="624" 
d="M586 0h-564l17 121l393 412h-319l20 141h564l-17 -118l-399 -413h325zM330 744l100 154h173l-143 -154h-130z" />
    <glyph glyph-name="zacute" unicode="&#x17a;" horiz-adv-x="496" 
d="M22 0l15 104l261 252h-218l18 128h444l-15 -104l-259 -252h216l-18 -128h-444zM229 554l101 154h173l-144 -154h-130z" />
    <glyph glyph-name="Zdotaccent" unicode="&#x17b;" horiz-adv-x="624" 
d="M586 0h-564l17 121l393 412h-319l20 141h564l-17 -118l-399 -413h325zM333 753l18 130h169l-18 -130h-169z" />
    <glyph glyph-name="zdotaccent" unicode="&#x17c;" horiz-adv-x="496" 
d="M22 0l15 104l261 252h-218l18 128h444l-15 -104l-259 -252h216l-18 -128h-444zM242 563l18 130h169l-18 -130h-169z" />
    <glyph glyph-name="Zcaron" unicode="&#x17d;" horiz-adv-x="624" 
d="M586 0h-564l17 121l393 412h-319l20 141h564l-17 -118l-399 -413h325zM493 738h-154l-87 167h148l28 -84l48 84h149z" />
    <glyph glyph-name="zcaron" unicode="&#x17e;" horiz-adv-x="496" 
d="M22 0l15 104l261 252h-218l18 128h444l-15 -104l-259 -252h216l-18 -128h-444zM402 548h-154l-87 167h148l29 -84l47 84h149z" />
    <glyph glyph-name="longs" unicode="&#x17f;" horiz-adv-x="328" 
d="M81 484h52l5 35q7 47 27.5 81t42 49.5t51 24.5t43 10t29.5 1q49 0 111 -36l-42 -97q-21 12 -49 12q-15 0 -23 -9.5t-9 -20.5l-75 -534h-180l54 374h-52z" />
    <glyph glyph-name="florin" unicode="&#x192;" horiz-adv-x="582" 
d="M117 -5l143 364h-52l39 101h53l15 38q65 160 219 157h5q50 0 108 -39l-42 -106q-25 17 -78 17q-11 0 -20.5 -12.5t-13.5 -24.5l-11 -30h81l-39 -101h-82l-146 -370q-66 -159 -223 -159q-52 0 -109 39l39 109q43 -18 79 -18q22 0 35 35z" />
    <glyph glyph-name="Aringacute" unicode="&#x1fa;" horiz-adv-x="742" 
d="M372 796q0 50 31.5 85t96.5 35q99 0 99 -87q0 -52 -30 -86.5t-98 -34.5q-51 0 -75 24.5t-24 63.5zM512 818q0 26 -23 26q-17 0 -25 -12t-8 -27q0 -26 23 -26q33 0 33 39zM442 948l101 154h173l-144 -154h-130zM205 0h-196l375 674h164l185 -674h-196l-36 147h-219z
M440 500l-101 -220h142z" />
    <glyph glyph-name="aringacute" unicode="&#x1fb;" horiz-adv-x="536" 
d="M238 634q0 50 31.5 85t96.5 35q99 0 99 -87q0 -52 -30 -86.5t-98 -34.5q-51 0 -75 24.5t-24 63.5zM378 656q0 26 -23 26q-32 0 -32 -39q0 -26 23 -26q32 0 32 39zM305 779l100 154h173l-143 -154h-130zM485 0h-179l9 63q-20 -28 -60.5 -47.5t-88.5 -19.5
q-53 0 -85.5 36.5t-32.5 92.5q0 169 305 195l2 15q2 25 -12.5 34.5t-44.5 9.5q-51 0 -104 -21q-17 -7 -47 -21l-28 104q0 2 29.5 15.5t86.5 28t112 14.5h13.5t28.5 -3t40.5 -8t40 -17.5t37 -30t21.5 -46.5t3 -65zM243 120q8 0 19.5 2.5t27.5 8t28.5 18t15.5 30.5l6 46
q-43 0 -84.5 -23.5t-41.5 -54.5q0 -27 29 -27z" />
    <glyph glyph-name="AEacute" unicode="&#x1fc;" horiz-adv-x="966" 
d="M462 744l100 154h173l-143 -154h-130zM488 525l-127 -244h92zM621 141h323l-20 -141h-510l20 142h-133l-89 -142h-205l433 674h572l-20 -141h-315l-17 -123h293l-20 -141h-294z" />
    <glyph glyph-name="aeacute" unicode="&#x1fd;" horiz-adv-x="835" 
d="M563 -7q-121 0 -182 74q-30 -39 -88 -55.5t-105 -16.5q-49 0 -95 33.5t-46 102.5q0 84 74.5 129t222.5 58q9 57 -53 57q-52 0 -99 -19q-30 -12 -43 -19l-37 92q12 8 32.5 19.5t80 31t113.5 19.5q9 0 26.5 -2t53.5 -15.5t58 -36.5q70 52 149 52q102 0 159 -61t57 -155
q0 -39 -15 -95h-320q11 -71 100 -71q79 0 153 34l27 -103q-94 -53 -223 -53zM243 120q11 0 26 3.5t33.5 18t22.5 37.5l6 44q-50 -9 -83 -28t-33 -43q0 -14 7.5 -23t20.5 -9zM404 554l101 154h173l-144 -154h-130zM519 293h163q4 36 -13 61t-56 25q-41 0 -65.5 -26.5
t-28.5 -59.5z" />
    <glyph glyph-name="Oslashacute" unicode="&#x1fe;" horiz-adv-x="757" 
d="M414 744l101 154h173l-144 -154h-130zM279 223l242 305q-31 18 -66 18q-84 0 -133.5 -75.5t-49.5 -180.5q0 -40 7 -67zM59 -53l95 119q-74 72 -74 214q0 185 108.5 295t286.5 110q85 0 148 -28l47 59h126l-93 -116q70 -70 70 -206q0 -185 -108.5 -295.5t-287.5 -110.5
q-80 0 -141 23l-52 -64h-125zM575 438l-236 -298q25 -14 57 -14q85 0 134.5 74.5t49.5 180.5q0 32 -5 57z" />
    <glyph glyph-name="oslashacute" unicode="&#x1ff;" horiz-adv-x="569" 
d="M304 554l100 154h173l-143 -154h-130zM243 207l124 147q-15 12 -32 12q-40 0 -66 -46t-26 -102v-11zM170 14l-34 -40h-91l67 80q-50 55 -50 149q0 133 80.5 213.5t211.5 80.5q63 0 115 -23l29 34h92l-65 -76q49 -54 49 -150q0 -133 -80 -211t-211 -78q-65 0 -113 21z
M393 276l-124 -146q14 -11 31 -11q40 0 67 46t27 99q0 9 -1 12z" />
    <glyph glyph-name="Scommaaccent" unicode="&#x218;" horiz-adv-x="617" 
d="M404 685q80 0 132.5 -22t111.5 -72l-70 -121q-49 34 -92.5 51t-57 18t-38.5 1q-40 0 -65 -15.5t-25 -36.5q0 -26 36 -46l162 -64q122 -49 122 -157q0 -106 -88 -167t-207 -61q-99 0 -144 19q-92 37 -140 89l82 128q37 -39 101 -66.5t122 -27.5q33 0 58 13.5t25 43.5
q0 29 -25 42l-164 67q-128 53 -128 159q0 100 84.5 162.5t207.5 62.5zM112 -220l118 179h173l-161 -179h-130z" />
    <glyph glyph-name="scommaaccent" unicode="&#x219;" horiz-adv-x="483" 
d="M270 121q24 0 33 16q5 8 3.5 16t-7.5 10l-115 45q-94 45 -94 120t63 122t160 47q54 0 96 -15.5t98 -58.5l-68 -103q-66 51 -139 51q-22 0 -29 -16q-5 -8 2.5 -15.5t30.5 -16.5l70 -28q69 -25 92 -83t-14 -132q-26 -41 -78.5 -64t-120.5 -23q-62 0 -103 14q-63 22 -112 72
l84 109q67 -67 148 -67zM32 -220l118 179h173l-161 -179h-130z" />
    <glyph glyph-name="hsuperior" unicode="&#x2b0;" horiz-adv-x="377" 
d="M432 624l-25 -181h-132l25 181q7 49 -8 49q-6 0 -13.5 -2.5t-16 -14t-10.5 -30.5l-26 -183h-132l60 428h132l-21 -148q30 44 64 44q124 0 103 -143z" />
    <glyph glyph-name="jsuperior" unicode="&#x2b2;" horiz-adv-x="201" 
d="M275 758l-44 -316q-16 -110 -132 -110q-34 0 -86 28l28 66q52 -22 58 19l44 313h132zM149 787l12 84h131l-12 -84h-131z" />
    <glyph glyph-name="wsuperior" unicode="&#x2b7;" horiz-adv-x="539" 
d="M116 761h139l7 -165l63 165h104l16 -165l54 165h138l-155 -318h-111l-15 167l-61 -167h-113z" />
    <glyph glyph-name="ysuperior" unicode="&#x2b8;" horiz-adv-x="405" 
d="M110 354l22 80q18 -8 29.5 -10.5t19.5 4t11 12t10 23.5q2 5 3 7l-89 291h138l34 -166l78 166h137l-207 -366q-20 -31 -54.5 -44.5t-58.5 -13.5q-22 0 -73 17z" />
    <glyph glyph-name="circumflex" unicode="&#x2c6;" horiz-adv-x="447" 
d="M246 716h154l87 -167h-148l-28 84l-48 -84h-149z" />
    <glyph glyph-name="caron" unicode="&#x2c7;" horiz-adv-x="447" 
d="M378 548h-154l-87 167h148l28 -84l48 84h149z" />
    <glyph glyph-name="breve" unicode="&#x2d8;" horiz-adv-x="402" 
d="M279 545q-81 0 -116 49.5t-25 126.5h104q-4 -39 6.5 -54t44.5 -15t48.5 15.5t20.5 53.5h104q-10 -77 -58.5 -126.5t-128.5 -49.5z" />
    <glyph glyph-name="dotaccent" unicode="&#x2d9;" horiz-adv-x="243" 
d="M116 563l18 130h169l-18 -130h-169z" />
    <glyph glyph-name="ring" unicode="&#x2da;" horiz-adv-x="298" 
d="M129 649q0 50 31.5 85t96.5 35q99 0 99 -87q0 -52 -30 -86.5t-98 -34.5q-51 0 -75 24.5t-24 63.5zM269 671q0 26 -23 26q-32 0 -32 -39q0 -26 23 -26q32 0 32 39z" />
    <glyph glyph-name="ogonek" unicode="&#x2db;" horiz-adv-x="270" 
d="M94 10h95q-93 -111 -40 -108q10 0 24 4l49 13l-14 -95q-41 -18 -85 -23q-66 -6 -91 27.5t3 97.5q15 33 59 84z" />
    <glyph glyph-name="tilde" unicode="&#x2dc;" horiz-adv-x="391" 
d="M240 586q-27 0 -36 -42h-91q10 79 39 118t88 39q24 0 49 -16q29 -17 39 -17q30 0 32 40h93q-10 -71 -38.5 -114t-89.5 -43q-23 0 -49 18q-4 2 -9.5 6t-8.5 6t-8 3.5t-10 1.5z" />
    <glyph glyph-name="hungarumlaut" unicode="&#x2dd;" horiz-adv-x="473" 
d="M114 551l101 164h144l-128 -164h-117zM291 551l101 164h144l-128 -164h-117z" />
    <glyph glyph-name="xsuperior" unicode="&#x2e3;" horiz-adv-x="419" 
d="M358 761h149l-136 -157l101 -161h-151l-35 97l-64 -97h-151l146 161l-91 157h149l27 -87z" />
    <glyph glyph-name="Omega" unicode="&#x3a9;" horiz-adv-x="708" 
d="M430 542q-88 0 -133 -71t-45 -177q0 -136 96 -170l-17 -124h-292l20 140h97q-32 26 -51 83t-19 112q0 148 99.5 247t264.5 99q132 0 204 -73t72 -196q0 -76 -39.5 -155.5t-94.5 -116.5h97l-20 -140h-292l17 124q160 53 160 271q0 62 -30 104.5t-94 42.5z" />
    <glyph glyph-name="Omega" unicode="&#x2126;" horiz-adv-x="708" 
d="M430 542q-88 0 -133 -71t-45 -177q0 -136 96 -170l-17 -124h-292l20 140h97q-32 26 -51 83t-19 112q0 148 99.5 247t264.5 99q132 0 204 -73t72 -196q0 -76 -39.5 -155.5t-94.5 -116.5h97l-20 -140h-292l17 124q160 53 160 271q0 62 -30 104.5t-94 42.5z" />
    <glyph glyph-name="pi" unicode="&#x3c0;" horiz-adv-x="667" 
d="M378 0l50 354h-85l-50 -354h-167l50 354h-89l18 130h593l-18 -130h-85l-50 -354h-167z" />
    <glyph glyph-name="Wgrave" unicode="&#x1e80;" horiz-adv-x="968" 
d="M661 652l42 -398l157 420h194l-301 -674h-170l-43 387l-155 -387h-169l-112 674h191l42 -420l155 398h169zM623 898l58 -154h-130l-101 154h173z" />
    <glyph glyph-name="wgrave" unicode="&#x1e81;" horiz-adv-x="812" 
d="M77 484h188l25 -263l98 263h172l25 -260l99 260h187l-236 -484h-154l-42 238l-106 -238h-156zM520 708l58 -154h-130l-101 154h173z" />
    <glyph glyph-name="Wacute" unicode="&#x1e82;" horiz-adv-x="968" 
d="M661 652l42 -398l157 420h194l-301 -674h-170l-43 387l-155 -387h-169l-112 674h191l42 -420l155 398h169zM508 744l100 154h173l-143 -154h-130z" />
    <glyph glyph-name="wacute" unicode="&#x1e83;" horiz-adv-x="812" 
d="M77 484h188l25 -263l98 263h172l25 -260l99 260h187l-236 -484h-154l-42 238l-106 -238h-156zM387 554l100 154h173l-143 -154h-130z" />
    <glyph glyph-name="Wdieresis" unicode="&#x1e84;" horiz-adv-x="968" 
d="M661 652l42 -398l157 420h194l-301 -674h-170l-43 387l-155 -387h-169l-112 674h191l42 -420l155 398h169zM420 745l19 136h148l-19 -136h-148zM610 745l19 136h148l-19 -136h-148z" />
    <glyph glyph-name="wdieresis" unicode="&#x1e85;" horiz-adv-x="812" 
d="M77 484h188l25 -263l98 263h172l25 -260l99 260h187l-236 -484h-154l-42 238l-106 -238h-156zM315 555l19 136h148l-19 -136h-148zM505 555l19 136h148l-19 -136h-148z" />
    <glyph glyph-name="Ygrave" unicode="&#x1ef2;" horiz-adv-x="724" 
d="M457 0h-189l34 238l-198 436h213l101 -284l178 284h214l-319 -435zM502 898l58 -154h-130l-101 154h173z" />
    <glyph glyph-name="ygrave" unicode="&#x1ef3;" horiz-adv-x="595" 
d="M66 -149l30 110q18 -6 48 -8q26 -2 42 26l29 51q-11 39 -138 454h189l62 -285l136 285h190l-323 -571q-15 -27 -38.5 -46t-49 -27t-44 -11t-34.5 -3q-32 0 -99 25zM411 708l58 -154h-130l-101 154h173z" />
    <glyph glyph-name="endash" unicode="&#x2013;" horiz-adv-x="589" 
d="M83 327h515l-20 -141h-515z" />
    <glyph glyph-name="emdash" unicode="&#x2014;" horiz-adv-x="744" 
d="M83 327h670l-20 -140h-670z" />
    <glyph glyph-name="quoteleft" unicode="&#x2018;" horiz-adv-x="382" 
d="M439 674l-156 -238h-185l190 238h151z" />
    <glyph glyph-name="quoteright" unicode="&#x2019;" horiz-adv-x="382" 
d="M98 436l156 238h185l-190 -238h-151z" />
    <glyph glyph-name="quotesinglbase" unicode="&#x201a;" horiz-adv-x="382" 
d="M22 -108l156 238h185l-190 -238h-151z" />
    <glyph glyph-name="quotedblleft" unicode="&#x201c;" horiz-adv-x="620" 
d="M555 674l90 -238h-151l-124 238h185zM317 674l90 -238h-151l-124 238h185z" />
    <glyph glyph-name="quotedblright" unicode="&#x201d;" horiz-adv-x="620" 
d="M98 436l156 238h185l-190 -238h-151zM336 436l156 238h185l-190 -238h-151z" />
    <glyph glyph-name="quotedblbase" unicode="&#x201e;" horiz-adv-x="623" 
d="M22 -108l156 238h185l-190 -238h-151zM263 -108l156 238h185l-190 -238h-151z" />
    <glyph glyph-name="dagger" unicode="&#x2020;" horiz-adv-x="508" 
d="M526 394h-141l-55 -394h-153l55 394h-140l16 111h140l22 158h153l-22 -158h141z" />
    <glyph glyph-name="daggerdbl" unicode="&#x2021;" horiz-adv-x="508" 
d="M529 414h-141l-21 -153h141l-16 -111h-141l-21 -150h-153l21 150h-140l16 111h140l21 153h-140l16 111h140l19 138h153l-19 -138h141z" />
    <glyph glyph-name="bullet" unicode="&#x2022;" horiz-adv-x="387" 
d="M88 283q0 58 49.5 100.5t115.5 42.5q56 0 93 -33.5t37 -82.5q0 -59 -49.5 -100.5t-116.5 -41.5q-56 0 -92.5 33t-36.5 82z" />
    <glyph glyph-name="ellipsis" unicode="&#x2026;" horiz-adv-x="764" 
d="M47 0l21 151h181l-21 -151h-181zM292 0l21 151h180l-21 -151h-180zM538 0l21 151h179l-21 -151h-179z" />
    <glyph glyph-name="perthousand" unicode="&#x2030;" horiz-adv-x="1208" 
d="M91 479q0 89 53.5 142t141.5 53q71 0 110.5 -38t39.5 -105q0 -89 -55 -142.5t-143 -53.5q-69 0 -108 38.5t-39 105.5zM307 516q0 24 -9.5 40t-26.5 16q-20 0 -36 -24t-16 -55q0 -24 9.5 -39t24.5 -15q21 0 37.5 23.5t16.5 53.5zM473 139q0 89 54 142t141 53
q71 0 110.5 -38t39.5 -105q0 -89 -55 -142.5t-143 -53.5q-69 0 -108 38.5t-39 105.5zM689 176q0 24 -10 40t-25 16q-21 0 -37 -24t-16 -55q0 -24 9.5 -39t24.5 -15q21 0 37.5 23.5t16.5 53.5zM156 0l493 674h80l-492 -674h-81zM866 139q0 89 54 142t141 53q71 0 110.5 -38
t39.5 -105q0 -89 -55 -142.5t-143 -53.5q-69 0 -108 38.5t-39 105.5zM1082 176q0 24 -10 40t-25 16q-21 0 -37 -24t-16 -55q0 -24 9.5 -39t24.5 -15q21 0 37.5 23.5t16.5 53.5z" />
    <glyph glyph-name="guilsinglleft" unicode="&#x2039;" horiz-adv-x="378" 
d="M244 325l100 -232h-153l-98 232l164 232h153z" />
    <glyph glyph-name="guilsinglright" unicode="&#x203a;" horiz-adv-x="378" 
d="M60 93l166 232l-101 232h153l99 -232l-164 -232h-153z" />
    <glyph glyph-name="fraction" unicode="&#x2044;" horiz-adv-x="552" 
d="M37 0l493 674h80l-492 -674h-81z" />
    <glyph glyph-name="zerosuperior" unicode="&#x2070;" horiz-adv-x="371" 
d="M248 456q-63 0 -98 42.5t-35 117.5q0 105 52 169.5t136 64.5q65 0 100.5 -42.5t35.5 -117.5q0 -105 -52.5 -169.5t-138.5 -64.5zM291 764q-24 0 -43 -45.5t-19 -97.5q0 -79 31 -79q27 0 45.5 45.5t18.5 97.5q0 33 -8.5 56t-24.5 23z" />
    <glyph glyph-name="foursuperior" unicode="&#x2074;" horiz-adv-x="356" 
d="M343 463l-117 1l9 65h-154l10 71q36 63 90.5 129t109.5 115h105l-32 -227h48l-12 -88h-48zM180 617h67l14 100q-17 -15 -42 -46t-39 -54z" />
    <glyph glyph-name="fivesuperior" unicode="&#x2075;" horiz-adv-x="364" 
d="M306 605q0 17 -9 30t-28 13q-12 0 -18.5 -1t-15 -7.5t-16.5 -19.5h-96l69 225h231l-12 -88h-148l-18 -56q32 26 78 26q34 0 63 -30t29 -81q0 -79 -55.5 -120.5t-128.5 -41.5q-81 0 -131 63l56 65q8 -9 16 -16t15.5 -11t14 -6.5t13.5 -3.5l10.5 -1.5t9.5 0.5h6
q33 0 49 18.5t16 42.5z" />
    <glyph glyph-name="sixsuperior" unicode="&#x2076;" horiz-adv-x="364" 
d="M423 811l-36 -63q-35 18 -68 18q-11 0 -19 -1.5t-23 -8t-25.5 -25.5t-15.5 -48q37 41 87 41q38 0 64.5 -30.5t26.5 -82.5q0 -72 -48 -113.5t-121 -41.5q-72 0 -101.5 43.5t-29.5 103.5q0 114 57 180.5t144 66.5q63 0 108 -39zM255 540q18 0 28.5 19.5t10.5 40.5
q0 41 -24 41q-16 0 -26.5 -17.5t-10.5 -41.5q0 -42 22 -42z" />
    <glyph glyph-name="sevensuperior" unicode="&#x2077;" horiz-adv-x="362" 
d="M133 753l13 91h300l-10 -67q-117 -128 -203 -314h-125q77 152 211 290h-186z" />
    <glyph glyph-name="eightsuperior" unicode="&#x2078;" horiz-adv-x="361" 
d="M241 455q-68 0 -103 30t-35 75q0 29 22.5 60t58.5 39q-20 8 -32.5 30.5t-12.5 43.5q0 53 50 84t107 31q52 0 89 -26t37 -71q0 -53 -62 -92q50 -16 50 -75q0 -52 -44.5 -90.5t-124.5 -38.5zM251 537q19 0 32.5 15t13.5 33q0 37 -34 37q-23 0 -33.5 -16t-10.5 -33
q0 -15 9 -25.5t23 -10.5zM273 695q18 0 29 13.5t11 27.5q0 13 -7.5 23.5t-20.5 10.5q-17 0 -29 -13t-12 -28q0 -34 29 -34z" />
    <glyph glyph-name="ninesuperior" unicode="&#x2079;" horiz-adv-x="361" 
d="M117 495l37 63q39 -18 67 -18q11 0 19 1.5t23 8.5t25.5 25.5t15.5 47.5q-37 -41 -87 -41q-38 0 -64.5 30.5t-26.5 82.5q0 72 48.5 113.5t121.5 41.5q72 0 101 -43.5t29 -103.5q0 -114 -56.5 -180.5t-143.5 -66.5q-64 0 -109 39zM285 766q-17 0 -28 -19.5t-11 -40.5
q0 -41 25 -41q16 0 26.5 17.5t10.5 41.5q0 42 -23 42z" />
    <glyph glyph-name="nsuperior" unicode="&#x207f;" horiz-adv-x="377" 
d="M432 624l-25 -181h-128l25 181q7 51 -11 51q-11 0 -26 -11.5t-18 -38.5l-26 -182h-129l44 316h125l-5 -40q35 49 73 49q60 0 86 -33.5t15 -110.5z" />
    <glyph glyph-name="zeroinferior" unicode="&#x2080;" horiz-adv-x="371" 
d="M163 -155q-63 0 -98 42.5t-35 117.5q0 105 52 169.5t136 64.5q65 0 100.5 -42.5t35.5 -117.5q0 -105 -52.5 -169.5t-138.5 -64.5zM206 153q-24 0 -43 -45.5t-19 -97.5q0 -79 31 -79q27 0 45.5 45.5t18.5 97.5q0 33 -8.5 56t-24.5 23z" />
    <glyph glyph-name="oneinferior" unicode="&#x2081;" horiz-adv-x="270" 
d="M70 59l-46 58l130 116h94l-53 -381h-115l34 244z" />
    <glyph glyph-name="twoinferior" unicode="&#x2082;" horiz-adv-x="379" 
d="M206 148q-18 0 -36.5 -9t-27.5 -16t-26 -23l-49 54q72 77 153 77q55 0 91.5 -30.5t36.5 -79.5q0 -25 -10.5 -46t-33 -39t-39 -28.5t-48.5 -27.5q-43 -23 -63 -41h163l-12 -87h-285l8 54q3 23 14 42.5t31.5 36.5t37.5 29t45 28q77 42 77 70q0 13 -7 24.5t-20 11.5z" />
    <glyph glyph-name="threeinferior" unicode="&#x2083;" horiz-adv-x="338" 
d="M133 -154q-83 0 -144 63l58 58q39 -39 84 -39q27 0 39 13.5t12 31.5q0 32 -37 32h-50l12 79h48q45 0 45 41q0 13 -7.5 22.5t-21.5 9.5q-53 0 -91 -37l-43 53q66 66 150 66q56 1 91.5 -26t35.5 -76q0 -54 -62 -88q22 -11 34 -31.5t12 -42.5q0 -55 -51 -92t-114 -37z" />
    <glyph glyph-name="fourinferior" unicode="&#x2084;" horiz-adv-x="356" 
d="M257 -148h-117l9 66h-154l10 71q36 63 90.5 129t109.5 115h105l-32 -227h48l-12 -88h-48zM94 6h67l14 100q-17 -15 -42 -46t-39 -54z" />
    <glyph glyph-name="fiveinferior" unicode="&#x2085;" horiz-adv-x="364" 
d="M220 -6q0 17 -9 30t-28 13q-12 0 -18.5 -1t-15 -7.5t-16.5 -19.5h-96l69 225h231l-12 -88h-148l-18 -56q32 26 78 26q34 0 63 -30t29 -81q0 -79 -55.5 -120.5t-128.5 -41.5q-81 0 -131 63l56 65q8 -9 16 -16t15.5 -11t14 -6.5t13.5 -3.5l10.5 -1.5t9.5 -0.5l6 1
q33 0 49 18.5t16 42.5z" />
    <glyph glyph-name="sixinferior" unicode="&#x2086;" horiz-adv-x="364" 
d="M337 200l-36 -63q-35 18 -68 18q-11 0 -19 -1.5t-23 -8t-25.5 -25.5t-15.5 -48q37 41 87 41q38 0 64.5 -30.5t26.5 -82.5q0 -72 -48.5 -113.5t-120.5 -41.5t-101.5 43.5t-29.5 103.5q0 114 57.5 180.5t143.5 66.5q63 0 108 -39zM169 -71q18 0 28.5 19.5t10.5 40.5
q0 41 -24 41q-16 0 -26.5 -17.5t-10.5 -41.5q0 -42 22 -42z" />
    <glyph glyph-name="seveninferior" unicode="&#x2087;" horiz-adv-x="362" 
d="M47 142l13 91h300l-10 -67q-117 -128 -203 -314h-125q77 152 211 290h-186z" />
    <glyph glyph-name="eightinferior" unicode="&#x2088;" horiz-adv-x="361" 
d="M156 -155q-68 0 -103 30t-35 75q0 28 22.5 59.5t58.5 39.5q-20 8 -32.5 30.5t-12.5 43.5q0 53 50 84t107 31q52 0 89 -26t37 -71q0 -53 -62 -92q50 -16 50 -75q0 -52 -44.5 -90.5t-124.5 -38.5zM166 -73q19 0 32.5 15t13.5 33q0 37 -34 37q-23 0 -33.5 -16t-10.5 -33
q0 -15 9 -25.5t23 -10.5zM188 85q18 0 29 13.5t11 27.5q0 13 -7.5 23.5t-20.5 10.5q-17 0 -29 -13t-12 -28q0 -34 29 -34z" />
    <glyph glyph-name="nineinferior" unicode="&#x2089;" horiz-adv-x="361" 
d="M31 -116l37 63q36 -18 67 -18q11 0 19 1.5t23 8t25.5 25.5t15.5 48q-37 -41 -87 -41q-38 0 -64.5 30.5t-26.5 82.5q0 72 48.5 113.5t121.5 41.5q72 0 101 -43.5t29 -103.5q0 -114 -56.5 -180.5t-143.5 -66.5q-64 0 -109 39zM199 155q-17 0 -28 -19.5t-11 -40.5
q0 -41 25 -41q16 0 26.5 17.5t10.5 41.5q0 42 -23 42z" />
    <glyph glyph-name="Euro" unicode="&#x20ac;" horiz-adv-x="702" 
d="M51 216l59 89h64q0 23 7 48h-115l65 88h79q49 102 143 167.5t214 65.5q110 0 185 -55l-72 -109q-60 32 -112 32q-55 0 -99.5 -29t-71.5 -72h251l-65 -88h-226q-10 -25 -6 -48h211l-66 -89h-124q17 -39 52 -64.5t85 -25.5q56 0 117 32l38 -113q-113 -52 -192 -52
q-122 0 -198 61t-92 162h-131z" />
    <glyph glyph-name="afii61289" unicode="&#x2113;" horiz-adv-x="368" 
d="M411 499l-19 -137q-7 -48 -26.5 -84.5t-42 -56t-48.5 -31.5t-43 -15.5t-29 -3.5q-2 0 -3.5 -0.5t-3.5 0.5l-4 -28q-1 -7 -1 -16t8 -16.5t22 -7.5q25 0 106 23v-104q-38 -17 -81.5 -25t-61.5 -8q-19 0 -27.5 0.5t-36.5 8.5t-43 23t-25.5 49.5t-3.5 83.5l49 345
q23 165 185 165q14 0 26.5 -1t36.5 -10t39 -25t24.5 -49.5t2.5 -79.5zM257 352l22 158q2 13 -4 30t-13 17q-11 0 -19 -47l-31 -220q41 33 45 62z" />
    <glyph glyph-name="trademark" unicode="&#x2122;" horiz-adv-x="823" 
d="M433 605h-125l-46 -330h-91l46 330h-120l10 69h445l59 -292l142 292h104l-32 -399h-89l25 261l-128 -261h-73l-55 260l-48 -260h-90z" />
    <glyph glyph-name="estimated" unicode="&#x212e;" horiz-adv-x="622" 
d="M624 282h-429l-27 -193q57 -63 143 -63q77 0 126 32t102 95l28 -19q-56 -70 -114.5 -105.5t-145.5 -35.5q-107 0 -170.5 72.5t-63.5 179.5q0 134 90 231t229 97q124 0 186 -84t46 -207zM509 315l23 163q-60 62 -145 62q-96 0 -164 -62l-23 -163h309z" />
    <glyph glyph-name="onethird" unicode="&#x2153;" horiz-adv-x="844" 
d="M186 498l-46 58l130 116h94l-53 -381h-115l34 244zM154 0l493 674h80l-492 -674h-81zM634 -6q-87 0 -144 63l58 58q39 -39 84 -39q27 0 38.5 13.5t11.5 31.5q0 32 -36 32h-50l11 79h48q46 0 46 41q0 13 -7.5 22.5t-21.5 9.5q-53 0 -91 -37l-43 53q66 66 150 66
q56 1 91.5 -26t35.5 -76q0 -54 -62 -88q22 -11 34 -31.5t12 -42.5q0 -55 -51 -92t-114 -37z" />
    <glyph glyph-name="twothirds" unicode="&#x2154;" horiz-adv-x="879" 
d="M214 0l492 674h80l-491 -674h-81zM694 -6q-87 0 -144 63l58 58q39 -39 83 -39q28 0 39.5 13.5t11.5 31.5q0 32 -36 32h-50l11 79h48q46 0 46 41q0 13 -7.5 22.5t-22.5 9.5q-51 0 -91 -37l-42 53q66 66 150 66q56 1 91.5 -26t35.5 -76q0 -29 -14.5 -49.5t-48.5 -38.5
q22 -11 34 -31.5t12 -42.5q0 -55 -50.5 -92t-113.5 -37zM264 595q-40 0 -89 -45l-49 54q72 77 153 77q55 0 91.5 -30.5t36.5 -79.5q0 -25 -10.5 -46t-33 -39t-39 -28.5t-48.5 -27.5q-43 -23 -63 -41h163l-12 -87h-285l8 54q3 23 14 42.5t31.5 36.5t37.5 29t45 28
q83 44 83 69q0 12 -10 23t-24 11z" />
    <glyph glyph-name="oneeighth" unicode="&#x215b;" horiz-adv-x="814" 
d="M614 -7q-68 0 -103 30t-35 75q0 27 20 57.5t54 41.5q-19 9 -28.5 30t-9.5 42q0 53 50.5 85t106.5 32q52 0 89.5 -26t37.5 -71q0 -52 -62 -92q49 -16 49 -75q0 -53 -43.5 -91t-125.5 -38zM624 75q20 0 33.5 15t13.5 33q0 37 -35 37q-23 0 -33 -16t-10 -33q0 -15 8.5 -25.5
t22.5 -10.5zM647 233q18 0 28.5 13.5t10.5 27.5q0 13 -7.5 23.5t-20.5 10.5q-17 0 -28.5 -13t-11.5 -28q0 -34 29 -34zM147 0l493 674h80l-492 -674h-81zM171 498l-46 58l130 116h94l-53 -381h-115l34 244z" />
    <glyph glyph-name="threeeighths" unicode="&#x215c;" horiz-adv-x="875" 
d="M665 -7q-68 0 -102.5 30t-34.5 75q0 27 19.5 57.5t53.5 41.5q-19 9 -28.5 30t-9.5 42q0 53 50.5 85t106.5 32q52 0 89.5 -26t37.5 -71q0 -52 -62 -92q50 -16 50 -75q0 -52 -44.5 -90.5t-125.5 -38.5zM676 75q19 0 32.5 15t13.5 33q0 37 -34 37q-23 0 -33.5 -16t-10.5 -33
q0 -15 9 -25.5t23 -10.5zM698 233q18 0 28.5 13.5t10.5 27.5q0 13 -7.5 23.5t-20.5 10.5q-17 0 -28.5 -13t-11.5 -28q0 -34 29 -34zM198 0l493 674h80l-492 -674h-81zM250 285q-83 0 -144 63l58 58q39 -39 84 -39q27 0 39 13.5t12 31.5q0 32 -37 32h-50l12 79h48q45 0 45 41
q0 32 -29 32q-53 0 -91 -37l-43 53q66 66 150 66q56 1 91.5 -26t35.5 -76q0 -54 -62 -88q22 -11 34 -31.5t12 -42.5q0 -55 -51 -92t-114 -37z" />
    <glyph glyph-name="fiveeighths" unicode="&#x215d;" horiz-adv-x="874" 
d="M664 -7q-68 0 -103 30t-35 75q0 63 63 99q-28 27 -28 68q0 57 50.5 89t107.5 32q52 0 89 -26t37 -71q0 -47 -51 -92q40 -23 40 -68q0 -57 -44 -96.5t-126 -39.5zM674 75q19 0 32.5 15t13.5 33q0 37 -34 37q-23 0 -33.5 -16t-10.5 -33q0 -15 9 -25.5t23 -10.5zM696 233
q18 0 29 13.5t11 27.5q0 13 -7.5 23.5t-20.5 10.5q-17 0 -29 -13t-12 -28q0 -34 29 -34zM311 433q0 17 -9 30t-28 13q-12 0 -18.5 -1t-15 -7.5t-16.5 -19.5h-96l69 225h231l-12 -88h-148l-18 -56q32 26 78 26q34 0 63 -30t29 -81q0 -79 -55.5 -120.5t-128.5 -41.5
q-81 0 -131 63l56 65q8 -9 16 -16t15.5 -11t14 -6.5t13.5 -3.5l10.5 -1.5t9.5 0.5h6q33 0 49 18.5t16 42.5zM197 0l492 674h80l-491 -674h-81z" />
    <glyph glyph-name="seveneighths" unicode="&#x215e;" horiz-adv-x="789" 
d="M584 -7q-68 0 -102.5 30t-34.5 75q0 63 63 99q-28 27 -28 68q0 57 50 89t107 32q52 0 89.5 -26t37.5 -71q0 -46 -51 -92q40 -23 40 -68q0 -57 -44.5 -96.5t-126.5 -39.5zM595 75q19 0 32.5 15t13.5 33q0 37 -34 37q-23 0 -33.5 -16t-10.5 -33q0 -15 9 -25.5t23 -10.5z
M617 233q18 0 28.5 13.5t10.5 27.5q0 13 -7.5 23.5t-20.5 10.5q-17 0 -28.5 -13t-11.5 -28q0 -34 29 -34zM117 0l493 674h80l-492 -674h-81zM134 581l13 91h300l-10 -67q-117 -128 -203 -314h-125q77 152 211 290h-186z" />
    <glyph glyph-name="arrowleft" unicode="&#x2190;" horiz-adv-x="759" 
d="M374 351h393l-12 -80h-393l-18 -131l-258 171l306 172z" />
    <glyph glyph-name="arrowup" unicode="&#x2191;" horiz-adv-x="757" 
d="M339 0l55 393h-132l212 282l131 -282h-131l-55 -393h-80z" />
    <glyph glyph-name="arrowright" unicode="&#x2192;" horiz-adv-x="759" 
d="M91 351h393l19 132l258 -172l-306 -171l18 131h-393z" />
    <glyph glyph-name="arrowdown" unicode="&#x2193;" horiz-adv-x="757" 
d="M378 281l55 393h80l-55 -393h131l-211 -282l-132 282h132z" />
    <glyph glyph-name="partialdiff" unicode="&#x2202;" horiz-adv-x="605" 
d="M390 522q-92 0 -172 -54l-15 104q7 4 43 23t57 28t60.5 18.5t78.5 9.5q90 0 139 -50.5t49 -146.5q0 -63 -33 -161q-18 -52 -43 -98.5t-67 -96.5t-105.5 -80t-140.5 -30q-86 0 -134.5 39.5t-48.5 110.5q0 34 16 77q35 99 121 159.5t179 60.5q57 0 80 -56q10 30 13.5 52.5
t0 44.5t-23 34t-54.5 12zM281 117q30 0 59 29.5t44 73.5q9 27 9 41q0 48 -37 48q-34 0 -63 -32.5t-41 -67.5q-8 -21 -8 -41q0 -51 37 -51z" />
    <glyph glyph-name="Delta" unicode="&#x2206;" horiz-adv-x="786" 
d="M37 0l368 663h161l183 -663h-712zM459 479l-160 -346h226z" />
    <glyph glyph-name="product" unicode="&#x220f;" horiz-adv-x="667" 
d="M378 0l76 544h-85l-76 -544h-167l76 544h-89l18 130h593l-18 -130h-85l-76 -544h-167z" />
    <glyph glyph-name="summation" unicode="&#x2211;" horiz-adv-x="604" 
d="M536 -147h-510l14 103l240 305l-154 307l15 102h510l-19 -132h-299l147 -277l-225 -276h300z" />
    <glyph glyph-name="minus" unicode="&#x2212;" horiz-adv-x="503" 
d="M95 410h429l-21 -148h-429z" />
    <glyph glyph-name="radical" unicode="&#x221a;" horiz-adv-x="660" 
d="M272 0l-63 358h-142l18 126h276l27 -209l177 399h172l-317 -674h-148z" />
    <glyph glyph-name="infinity" unicode="&#x221e;" horiz-adv-x="740" 
d="M553 161q-49 0 -88.5 23.5t-60.5 61.5q-31 -39 -77.5 -62t-95.5 -23q-76 0 -114 39t-38 95q0 67 51 118.5t144 51.5q49 0 88.5 -23t60.5 -60q32 37 78.5 60t94.5 23q76 0 114 -39t38 -95q0 -67 -51.5 -118.5t-143.5 -51.5zM256 281q35 0 59 32q-16 32 -50 32
q-45 0 -45 -36q0 -28 36 -28zM561 280q47 0 47 38q0 29 -38 29q-39 0 -60 -34q12 -33 51 -33z" />
    <glyph glyph-name="integral" unicode="&#x222b;" horiz-adv-x="438" 
d="M130 14l70 493q23 169 190 166h5q48 0 111 -36l-44 -100q-27 14 -54 14q-6 0 -10 -1.5t-6.5 -3.5t-4.5 -6t-2.5 -5.5t-2 -6.5t-1.5 -6l-75 -535q-23 -170 -188 -167h-5q-46 0 -111 37l43 99q32 -13 60 -13q17 0 20 29z" />
    <glyph glyph-name="approxequal" unicode="&#x2248;" horiz-adv-x="526" 
d="M270 514q23 0 59.5 -20.5t58.5 -20.5q40 0 47 55h128q-13 -93 -58.5 -138.5t-130.5 -45.5q-24 0 -62 20.5t-59 20.5q-36 0 -43 -56h-127q14 96 58.5 140.5t128.5 44.5zM239 290q23 0 59 -20.5t58 -20.5q38 0 48 55h128q-13 -92 -58.5 -138t-131.5 -46q-23 0 -61 20.5
t-59 20.5q-36 0 -43 -56h-127q14 96 58.5 140.5t128.5 44.5z" />
    <glyph glyph-name="notequal" unicode="&#x2260;" horiz-adv-x="534" 
d="M61 0l102 160h-104l18 126h168l46 72h-204l18 126h268l122 190h96l-122 -190h92l-18 -126h-155l-46 -72h191l-18 -126h-255l-102 -160h-97z" />
    <glyph glyph-name="lessequal" unicode="&#x2264;" horiz-adv-x="597" 
d="M659 702l-22 -155l-312 -117l279 -116l-21 -153l-490 231l11 80zM54 122h523l-17 -122h-523z" />
    <glyph glyph-name="greaterequal" unicode="&#x2265;" horiz-adv-x="597" 
d="M114 547l22 155l489 -230l-11 -80l-554 -231l21 153l311 116zM54 122h523l-17 -122h-523z" />
    <glyph glyph-name="triangleright" unicode="&#x22b2;" horiz-adv-x="460" 
d="M75 125l59 420l317 -210z" />
    <glyph glyph-name="triangleleft" unicode="&#x22b3;" horiz-adv-x="460" 
d="M480 545l-60 -420l-316 210z" />
    <glyph glyph-name="uni2318" unicode="&#x2318;" horiz-adv-x="695" 
d="M260 156l10 67h-68q-31 0 -54 -22t-23 -53q0 -25 16 -43t42 -18q28 0 50.5 20.5t26.5 48.5zM300 440l10 68q4 29 -12.5 48.5t-44.5 19.5q-31 0 -54.5 -22.5t-23.5 -53.5q0 -25 16.5 -42.5t42.5 -17.5h66zM324 269h124l18 125h-124zM614 164q0 25 -16 42t-40 17h-69
l-9 -67q-4 -28 12.5 -48.5t44.5 -20.5q31 0 54 23t23 54zM663 516q0 27 -15.5 43.5t-41.5 16.5q-28 0 -50 -19.5t-26 -48.5l-10 -68h68q30 0 52.5 23t22.5 53zM661 169q0 -51 -39.5 -89.5t-90.5 -38.5q-48 0 -76.5 33.5t-22.5 81.5l9 67h-124l-9 -67q-6 -47 -45 -81t-86 -34
q-44 0 -71.5 29.5t-27.5 72.5q0 51 40 88.5t91 37.5h67l18 125h-66q-44 0 -72 29t-28 72q0 51 40 89t92 38q48 0 76 -33t22 -81l-10 -68h124l10 68q6 47 45 80.5t86 33.5q42 0 70 -29.5t28 -71.5q0 -51 -39.5 -89t-90.5 -38h-67l-18 -125h67q42 0 70 -29t28 -71z" />
    <glyph glyph-name="blacksquare" unicode="&#x25a0;" horiz-adv-x="533" 
d="M70 91l59 419h419l-59 -419h-419z" />
    <glyph glyph-name="lozenge" unicode="&#x25ca;" horiz-adv-x="562" 
d="M304 -1h-46l-174 337l269 338h46l173 -338zM348 481l-103 -145l63 -142l103 142z" />
    <glyph glyph-name="circlesolid" unicode="&#x25cf;" horiz-adv-x="530" 
d="M97 278q0 94 72.5 163t167.5 69q78 0 129.5 -53t51.5 -131q0 -94 -72.5 -163t-167.5 -69q-78 0 -129.5 53t-51.5 131z" />
    <glyph glyph-name="blackstar" unicode="&#x2605;" horiz-adv-x="681" 
d="M680 400l-194 -128l39 -206l-158 127l-193 -127l96 206l-157 128h216l96 206l38 -206h217z" />
    <glyph glyph-name="diamond" unicode="&#x2666;" horiz-adv-x="615" 
d="M605 331l-286 -250l-215 250l285 251z" />
    <glyph glyph-name="s_t" unicode="&#xfb06;" horiz-adv-x="873" 
d="M648 574h-152q-32 0 -46 -21t-11 -45t3 -42q34 -19 65 -43l-68 -103q-66 51 -139 51q-22 0 -29 -16q-4 -9 3 -16t30 -16l71 -28q68 -25 91 -83t-14 -132q-26 -41 -78.5 -64t-120.5 -23q-62 0 -103 14q-63 22 -112 72l84 109q67 -67 148 -67q24 0 33 16q5 8 3.5 16
t-7.5 10l-115 45q-94 45 -94 120q0 74 61.5 120.5t156.5 48.5q-1 45 10 79t31 53.5t39.5 32t44.5 17t36.5 5.5t23.5 1h229h127l-28 -201h91l-16 -110h-91l-32 -231q-5 -26 11 -26q33 0 84 19l-9 -112q-73 -35 -123 -35h-2q-27 0 -46 3.5t-50 17t-44 52t-5 98.5l30 214h-69
l16 110h69z" />
    <glyph glyph-name="CR" horiz-adv-x="278" 
 />
    <glyph glyph-name="_224" horiz-adv-x="0" 
 />
    <glyph glyph-name="apple" horiz-adv-x="709" 
d="M153 686h595l-77 -552h-595zM606 207l57 405h-122q-21 -44 -70 -142.5t-72 -148.5l-59 291h-122l-57 -405h64l52 367l80 -359h53l184 359l-52 -367h64zM96 0h-14l2 54q0 4 0.5 11.5t1 13.5t1.5 10h-2q-1 -2 -1 -9v-12l-10 -68h-17l15 109h26l-2 -45v-21q0 8 6 21l9 45h25
l-15 -109h-15l7 50l6 39q0 -4 -4 -21.5t-4 -20.5zM134 17l11 74q3 21 21 21q12 0 17 -4t3 -17l-11 -74q-3 -19 -25 -19q-7 0 -12.5 5t-3.5 14zM161 91l-11 -74q0 -4 2 -4q7 0 7 4l11 74q1 5 0 6t-6 1q-2 0 -3 -7zM205 42l-4 -25q0 -4 5 -4t6 4l2 11q1 8 -11 24.5t-10 26.5
l2 12q3 21 25 21q21 0 18 -21l-3 -21h-15l3 21q1 7 -5 7q-5 0 -6 -7l-2 -12q0 -4 10 -20.5t10 -21.5l-3 -20q-4 -19 -23 -19q-9 0 -15.5 5t-4.5 14l4 25h17zM246 109h45l-2 -13h-13l-13 -96h-17l13 96h-15zM271 0l27 109h25l-3 -109h-16l-1 28h-11l-7 -28h-14zM297 45h8
l3 44h-2zM340 0h-15l15 109h22q24 0 20 -20l-2 -12q-1 -13 -20 -17q14 0 15 -15q-2 -7 -3.5 -22.5t-2.5 -22.5h-15v9q0 32 -0.5 36.5t-6.5 4.5zM354 98l-5 -34h3q10 0 10 6l3 21q1 7 -4 7h-7zM376 0l15 109h21q13 0 16.5 -5t1.5 -19l-9 -65q-5 -20 -22 -20h-23zM407 98
l-12 -83h4q3 0 5 5l10 69q2 9 -3 9h-4zM465 0h-39l15 109h39l-2 -13h-22l-3 -28h20l-2 -14h-20l-6 -39h22zM494 42l-4 -25q0 -4 2 -4q6 0 7 4l2 11q1 8 -10 24.5t-9 26.5l2 12q3 21 22 21q11 0 16.5 -4t3.5 -17l-3 -21h-16l3 21q1 5 0 6t-6 1q-2 0 -3 -7l-2 -12
q0 -4 9.5 -20.5t9.5 -21.5l-3 -20q-4 -19 -25 -19q-7 0 -13 5t-4 14l4 25h17zM538 0h-16l15 109h16zM577 54h21l-8 -54h-8l1 6q-8 -8 -18 -8q-7 0 -13 5t-4 14l11 74q3 21 26 21q21 0 18 -21l-3 -21h-17l3 21q1 7 -3 7q-6 0 -7 -7l-11 -74q0 -4 6 -4q4 0 4 4l4 25h-4z
M615 109h25l-2 -30q4 -27 -1 -62l1 6q2 5 3 15t2 16l8 55h14l-15 -109h-25l1 57v34q0 -1 -0.5 -2.5t-1 -4t-0.5 -5.5l-11 -79h-13z" />
    <glyph glyph-name="Imacron" horiz-adv-x="310" 
d="M62 0l95 674h186l-95 -674h-186zM119 765l16 117h289l-16 -117h-289z" />
    <glyph glyph-name="kcommaaccent" horiz-adv-x="555" 
d="M384 292l164 -292h-201l-84 184l-26 -184h-180l95 674h180l-42 -295l96 105h215zM81 -220l118 179h173l-161 -179h-130z" />
    <glyph glyph-name="ibreve" horiz-adv-x="294" 
d="M57 0l68 484h180l-68 -484h-180zM225 545q-81 0 -116 49.5t-25 126.5h104q-4 -39 6.5 -54t44.5 -15t48 15t21 54h104q-10 -77 -58.5 -126.5t-128.5 -49.5z" />
    <glyph glyph-name="zero.taboldstyle" 
d="M293 -8q-92 0 -143 53t-51 147q0 124 72.5 200t188.5 76q95 0 147 -52.5t52 -146.5q0 -124 -73 -200.5t-193 -76.5zM343 351q-36 0 -58.5 -47t-22.5 -103q0 -39 12 -65.5t35 -26.5q35 0 60.5 46t25.5 101q0 40 -13.5 67.5t-38.5 27.5z" />
    <glyph glyph-name="one.taboldstyle" 
d="M76 0l18 125h139l22 160l-105 -52l-50 110l210 117h139l-47 -335h136l-18 -125h-444z" />
    <glyph glyph-name="two.taboldstyle" 
d="M344 360q-74 0 -144 -66l-76 79q35 27 61 44t76 35t102 18q88 0 146.5 -38.5t58.5 -101.5q0 -24 -13 -46.5t-27.5 -37t-46.5 -33t-49 -27t-55 -25.5q-24 -10 -44 -18.5t-29.5 -13t-16.5 -6.5h242l-17 -123h-444l10 71q4 36 40 68t83.5 55.5t94.5 44.5t79.5 42t32.5 41
q0 17 -22 27.5t-42 10.5z" />
    <glyph glyph-name="six.taboldstyle" 
d="M596 595l-58 -104q-50 37 -123 37q-44 0 -88.5 -37.5t-49.5 -105.5q55 56 123 56q78 0 128 -52t50 -138q0 -119 -79 -188t-198 -69q-62 0 -106.5 22.5t-66.5 60.5t-31.5 77t-9.5 84q0 193 94 306t239 113q93 0 176 -62zM317 123q36 0 58 36t22 74q0 32 -13.5 57t-40.5 25
q-33 0 -55 -33.5t-22 -78.5q0 -36 13.5 -58t37.5 -22z" />
    <glyph glyph-name="eight.taboldstyle" 
d="M295 -6q-111 0 -167.5 49t-56.5 124q0 51 35 103.5t101 68.5q-37 17 -56.5 53t-19.5 72q0 78 62 125.5t147 61.5q36 4 48 4q25 0 53 -4q64 -11 109.5 -51t45.5 -104q0 -43 -24.5 -86.5t-86.5 -70.5q46 -12 68 -54t22 -82q0 -83 -73.5 -146t-206.5 -63zM315 130
q38 0 65 22t27 54q0 30 -19 48t-53 18q-41 0 -65.5 -24.5t-24.5 -60.5q0 -27 20.5 -42t49.5 -15zM352 409q31 0 56.5 17.5t25.5 47.5q0 25 -17.5 39t-46.5 14q-35 0 -57.5 -18t-22.5 -48q0 -25 18 -38.5t44 -13.5z" />
    <glyph glyph-name="three.taboldstyle" 
d="M276 -192q-144 0 -237 99l85 95q55 -61 138 -61q102 0 102 75q0 25 -15 42.5t-44 17.5h-80l19 137h77q33 0 53 21t20 48q0 23 -13.5 39t-38.5 16q-96 0 -159 -63l-61 90q22 30 88 67.5t156 37.5q91 0 149 -44.5t58 -124.5q0 -105 -106 -152q38 -13 57.5 -53t19.5 -76
q0 -91 -82.5 -151t-185.5 -60z" />
    <glyph glyph-name="four.taboldstyle" 
d="M452 -174h-175l16 114h-268l16 112q63 112 154.5 222.5t187.5 191.5h159l-55 -392h84l-19 -135h-84zM193 74h119l26 183q-100 -106 -145 -183z" />
    <glyph glyph-name="five.taboldstyle" 
d="M389 60q0 34 -18 59.5t-55 25.5q-23 0 -48 -12t-39 -39h-150l113 370h374l-20 -141h-254l-30 -99q43 41 128 41q71 0 117.5 -50t46.5 -135q0 -69 -27 -123t-72 -85.5t-96.5 -47.5t-106.5 -16q-140 0 -216 103l90 110q64 -75 138 -75q65 0 95 34.5t30 79.5z" />
    <glyph glyph-name="seven.taboldstyle" 
d="M94 309l20 139h491l-15 -106q-111 -118 -191 -246.5t-152 -287.5h-195q146 280 354 501h-312z" />
    <glyph glyph-name="nine.taboldstyle" 
d="M64 -128l58 104q50 -37 123 -37q44 0 88.5 37.5t49.5 105.5q-55 -56 -123 -56q-78 0 -128 52t-50 138q0 119 79 188t198 69q62 0 106.5 -22.5t66.5 -60.5t31.5 -77t9.5 -84q0 -193 -94 -306t-239 -113q-93 0 -176 62zM343 344q-36 0 -58 -36t-22 -74q0 -31 13.5 -56.5
t40.5 -25.5q33 0 55 33.5t22 78.5q0 36 -13.5 58t-37.5 22z" />
    <glyph glyph-name="zero.titling" horiz-adv-x="617" 
d="M304 -12q-103 0 -160.5 71.5t-57.5 196.5q0 177 86.5 286t224.5 109q107 0 165 -71.5t58 -196.5q0 -178 -86.5 -286.5t-229.5 -108.5zM379 519q-49 0 -83.5 -81t-34.5 -175q0 -61 15.5 -102t46.5 -41q36 0 65 39.5t43 97t14 116.5q0 63 -16 104.5t-50 41.5z" />
    <glyph glyph-name="one.titling" horiz-adv-x="434" 
d="M152 379l-70 100l211 161h144l-90 -640h-174l62 441z" />
    <glyph glyph-name="two.titling" horiz-adv-x="602" 
d="M369 495q-37 0 -80.5 -24.5t-69.5 -53.5l-75 97q36 34 63.5 56t80 44.5t105.5 22.5q90 0 150 -50.5t60 -132.5q0 -24 -8 -47.5t-16 -39.5t-30.5 -37t-32.5 -30.5t-43.5 -30t-41.5 -25t-46 -26.5h1q-96 -56 -120 -78h283l-20 -140h-467l8 60q7 52 25.5 90.5t56 73
t77.5 61.5t110 70q33 20 51 31q40 28 40 55q0 22 -16 38t-45 16z" />
    <glyph glyph-name="three.titling" horiz-adv-x="556" 
d="M259 -10q-144 0 -237 99l85 95q55 -61 138 -61q102 0 102 75q0 25 -15 42.5t-44 17.5h-80l19 137h77q33 0 53 21t20 48q0 23 -13.5 39t-38.5 16q-96 0 -159 -63l-61 90q22 30 88 67.5t156 37.5q91 0 149 -44.5t58 -124.5q0 -105 -106 -152q38 -13 57.5 -53t19.5 -76
q0 -91 -82.5 -151t-185.5 -60z" />
    <glyph glyph-name="four.titling" horiz-adv-x="578" 
d="M472 0l-175 1l16 113h-268l16 112q63 112 154.5 222.5t187.5 191.5h159l-55 -392h84l-19 -135h-84zM213 248h119l26 183q-100 -106 -145 -183z" />
    <glyph glyph-name="five.titling" horiz-adv-x="590" 
d="M412 237q0 34 -18 59.5t-55 25.5q-23 0 -48 -12t-39 -39h-150l113 370h374l-20 -141h-254l-30 -99q43 41 128 41q71 0 117.5 -50t46.5 -135q0 -69 -27 -123t-72 -85.5t-96.5 -47.5t-106.5 -16q-140 0 -216 103l90 110q64 -75 138 -75q65 0 95 34.5t30 79.5z" />
    <glyph glyph-name="six.titling" horiz-adv-x="578" 
d="M587 589l-58 -104q-50 37 -123 37q-44 0 -88.5 -37.5t-49.5 -105.5q55 56 123 56q78 0 128 -52t50 -138q0 -119 -79.5 -188t-197.5 -69q-62 0 -106.5 22.5t-66.5 60.5t-31.5 77t-9.5 84q0 193 94 306t239 113q93 0 176 -62zM308 117q36 0 58 36t22 74q0 32 -13.5 57
t-40.5 25q-33 0 -55 -33.5t-22 -78.5q0 -36 13.5 -58t37.5 -22z" />
    <glyph glyph-name="seven.titling" horiz-adv-x="535" 
d="M92 501l20 139h491l-15 -106q-111 -118 -191 -246.5t-152 -287.5h-195q146 280 354 501h-312z" />
    <glyph glyph-name="eight.titling" horiz-adv-x="575" 
d="M285 -12q-111 0 -167.5 49t-56.5 124q0 51 35 103.5t101 68.5q-37 17 -56.5 53t-19.5 72q0 78 62 125.5t147 61.5q36 4 48 4q25 0 53 -4q64 -11 109.5 -51t45.5 -104q0 -43 -24.5 -86.5t-86.5 -70.5q46 -12 68 -54t22 -82q0 -83 -73.5 -146t-206.5 -63zM305 124
q38 0 65 22t27 54q0 30 -19.5 48t-52.5 18q-41 0 -65.5 -24.5t-24.5 -60.5q0 -27 20.5 -42t49.5 -15zM342 403q31 0 56.5 17.5t25.5 47.5q0 25 -17.5 39t-46.5 14q-35 0 -57.5 -18t-22.5 -48q0 -25 18 -38.5t44 -13.5z" />
    <glyph glyph-name="nine.titling" horiz-adv-x="568" 
d="M76 50l58 104q50 -37 123 -37q44 0 88.5 37.5t49.5 105.5q-55 -56 -123 -56q-78 0 -128 52t-50 138q0 119 79.5 188t197.5 69q62 0 106.5 -22.5t66.5 -60.5t31.5 -77t9.5 -84q0 -193 -94 -306t-239 -113q-93 0 -176 62zM355 522q-36 0 -58 -36t-22 -74q0 -31 13.5 -56.5
t40.5 -25.5q33 0 55 33.5t22 78.5q0 36 -13.5 58t-37.5 22z" />
    <glyph glyph-name="zero.denominator" horiz-adv-x="371" 
d="M183 -7q-63 0 -98 42.5t-35 117.5q0 105 52 169.5t136 64.5q65 0 100.5 -42.5t35.5 -117.5q0 -105 -52.5 -169.5t-138.5 -64.5zM226 301q-24 0 -43 -45.5t-19 -97.5q0 -79 31 -79q27 0 45.5 45.5t18.5 97.5q0 33 -8.5 56t-24.5 23z" />
    <glyph glyph-name="one.denominator" horiz-adv-x="270" 
d="M91 207l-46 58l130 116h94l-53 -381h-115l34 244z" />
    <glyph glyph-name="two.denominator" horiz-adv-x="379" 
d="M227 296q-18 0 -36.5 -9t-27.5 -16t-26 -23l-49 54q72 77 153 77q55 0 91.5 -30.5t36.5 -79.5q0 -25 -10.5 -46t-33 -39t-39 -28.5t-48.5 -27.5q-43 -23 -63 -41h163l-12 -87h-285l8 54q3 23 14 42.5t31.5 36.5t37.5 29t45 28q77 42 77 70q0 13 -7 24.5t-20 11.5z" />
    <glyph glyph-name="three.denominator" horiz-adv-x="338" 
d="M154 -6q-83 0 -144 63l58 58q39 -39 84 -39q27 0 39 13.5t12 31.5q0 32 -37 32h-50l12 79h48q45 0 45 41q0 13 -7.5 22.5t-21.5 9.5q-53 0 -91 -37l-43 53q66 66 150 66q56 1 91.5 -26t35.5 -76q0 -54 -62 -88q22 -11 34 -31.5t12 -42.5q0 -55 -51 -92t-114 -37z" />
    <glyph glyph-name="four.denominator" horiz-adv-x="356" 
d="M278 0l-117 1l9 65h-154l10 71q36 63 90.5 129t109.5 115h105l-32 -227h48l-12 -88h-48zM115 154h67l14 100q-17 -15 -42 -46t-39 -54z" />
    <glyph glyph-name="five.denominator" horiz-adv-x="364" 
d="M241 142q0 17 -9 30t-28 13q-12 0 -18.5 -1t-15 -7.5t-16.5 -19.5h-96l69 225h231l-12 -88h-148l-18 -56q32 26 78 26q34 0 63 -30t29 -81q0 -79 -55.5 -120.5t-128.5 -41.5q-81 0 -131 63l56 65q8 -9 16 -16t15.5 -11t14 -6.5t13.5 -3.5l10.5 -1.5t9.5 -0.5l6 1
q33 0 49 18.5t16 42.5z" />
    <glyph glyph-name="six.denominator" horiz-adv-x="363" 
d="M358 348l-36 -63q-35 18 -68 18q-11 0 -19 -1.5t-23 -8t-25.5 -25.5t-15.5 -48q37 41 87 41q38 0 64.5 -30.5t26.5 -82.5q0 -72 -48 -113.5t-121 -41.5q-72 0 -101.5 43.5t-29.5 103.5q0 114 57 180.5t144 66.5q63 0 108 -39zM190 77q17 0 28 19.5t11 40.5q0 41 -24 41
q-16 0 -26.5 -17.5t-10.5 -41.5q0 -42 22 -42z" />
    <glyph glyph-name="seven.denominator" horiz-adv-x="361" 
d="M68 290l13 91h300l-10 -67q-117 -128 -203 -314h-125q77 152 211 290h-186z" />
    <glyph glyph-name="eight.denominator" horiz-adv-x="361" 
d="M176 -7q-68 0 -103 30t-35 75q0 29 22.5 60t58.5 39q-20 8 -32.5 30.5t-12.5 43.5q0 53 50 84t107 31q52 0 89 -26t37 -71q0 -53 -62 -92q50 -16 50 -75q0 -53 -43.5 -91t-125.5 -38zM186 75q19 0 32.5 15t13.5 33q0 37 -34 37q-23 0 -33.5 -16t-10.5 -33q0 -15 9 -25.5
t23 -10.5zM208 233q18 0 29 13.5t11 27.5q0 13 -7.5 23.5t-20.5 10.5q-17 0 -29 -13t-12 -28q0 -34 29 -34z" />
    <glyph glyph-name="nine.denominator" horiz-adv-x="361" 
d="M51 32l37 63q39 -18 67 -18q11 0 19 1.5t23 8.5t25.5 25.5t15.5 47.5q-37 -41 -87 -41q-38 0 -64.5 30.5t-26.5 82.5q0 72 48.5 113.5t121.5 41.5q72 0 101 -43.5t29 -103.5q0 -114 -56.5 -180.5t-143.5 -66.5q-64 0 -109 39zM219 303q-17 0 -28 -19.5t-11 -40.5
q0 -41 25 -41q16 0 26.5 17.5t10.5 41.5q0 42 -23 42z" />
    <glyph glyph-name="zero.numerator" horiz-adv-x="371" 
d="M224 284q-63 0 -98 42.5t-35 117.5q0 105 52 169.5t136 64.5q65 0 100.5 -42.5t35.5 -117.5q0 -105 -52.5 -169.5t-138.5 -64.5zM267 592q-24 0 -43 -45.5t-19 -97.5q0 -79 31 -79q27 0 45.5 45.5t18.5 97.5q0 33 -8.5 56t-24.5 23z" />
    <glyph glyph-name="one.numerator" horiz-adv-x="270" 
d="M132 498l-46 58l130 116h94l-53 -381h-115l34 244z" />
    <glyph glyph-name="two.numerator" horiz-adv-x="379" 
d="M267 585q-39 0 -89 -46l-49 54q72 77 153 77q55 0 91.5 -30.5t36.5 -79.5q0 -25 -10.5 -46t-33 -39t-39 -28.5t-48.5 -27.5q-43 -23 -63 -41h163l-12 -87h-285l8 54q3 23 14 42.5t31.5 36.5t37.5 29t45 28q77 42 77 70q0 13 -7.5 23.5t-20.5 10.5z" />
    <glyph glyph-name="three.numerator" horiz-adv-x="338" 
d="M195 285q-83 0 -144 63l58 58q39 -39 84 -39q27 0 39 13.5t12 31.5q0 32 -37 32h-50l12 79h48q45 0 45 41q0 32 -29 32q-53 0 -91 -37l-43 53q66 66 150 66q56 1 91.5 -26t35.5 -76q0 -54 -62 -88q22 -11 34 -31.5t12 -42.5q0 -55 -51 -92t-114 -37z" />
    <glyph glyph-name="four.numerator" horiz-adv-x="356" 
d="M319 291l-117 1l9 65h-154l10 71q36 63 90.5 129t109.5 115h105l-32 -227h48l-12 -88h-48zM156 445h67l14 100q-17 -15 -42 -46t-39 -54z" />
    <glyph glyph-name="five.numerator" horiz-adv-x="364" 
d="M281 433q0 17 -9 30t-28 13q-12 0 -18.5 -1t-15 -7.5t-16.5 -19.5h-96l69 225h231l-12 -88h-148l-18 -56q32 26 78 26q34 0 63 -30t29 -81q0 -79 -55.5 -120.5t-128.5 -41.5q-81 0 -131 63l56 65q8 -9 16 -16t15.5 -11t14 -6.5t13.5 -3.5l10.5 -1.5t9.5 0.5h6
q33 0 49 18.5t16 42.5z" />
    <glyph glyph-name="six.numerator" horiz-adv-x="363" 
d="M398 639l-36 -63q-35 18 -68 18q-11 0 -19 -1.5t-23 -8t-25.5 -25.5t-15.5 -48q37 41 87 41q38 0 64.5 -30.5t26.5 -82.5q0 -72 -48.5 -113.5t-120.5 -41.5t-101.5 43.5t-29.5 103.5q0 114 57 180.5t144 66.5q63 0 108 -39zM230 368q18 0 28.5 19.5t10.5 40.5
q0 41 -24 41q-16 0 -26.5 -17.5t-10.5 -41.5q0 -42 22 -42z" />
    <glyph glyph-name="seven.numerator" horiz-adv-x="361" 
d="M109 581l13 91h300l-10 -67q-117 -128 -203 -314h-125q77 152 211 290h-186z" />
    <glyph glyph-name="eight.numerator" horiz-adv-x="361" 
d="M217 283q-68 0 -103 30t-35 75q0 29 22.5 60t58.5 39q-20 8 -32.5 30.5t-12.5 43.5q0 53 50 84t107 31q52 0 89 -26t37 -71q0 -53 -62 -92q50 -16 50 -75q0 -52 -44.5 -90.5t-124.5 -38.5zM227 365q19 0 32.5 15t13.5 33q0 37 -34 37q-23 0 -33.5 -16t-10.5 -33
q0 -15 9 -25.5t23 -10.5zM249 523q18 0 29 13.5t11 27.5q0 13 -7.5 23.5t-20.5 10.5q-17 0 -29 -13t-12 -28q0 -34 29 -34z" />
    <glyph glyph-name="nine.numerator" horiz-adv-x="361" 
d="M92 323l37 63q39 -18 67 -18q11 0 19 1.5t23 8.5t25.5 25.5t15.5 47.5q-37 -41 -87 -41q-38 0 -64.5 30.5t-26.5 82.5q0 72 48.5 113.5t121.5 41.5q72 0 101 -43.5t29 -103.5q0 -114 -56.5 -180.5t-143.5 -66.5q-64 0 -109 39zM260 594q-17 0 -28 -19.5t-11 -40.5
q0 -41 25 -41q16 0 26.5 17.5t10.5 41.5q0 42 -23 42z" />
    <glyph glyph-name="a.alt" horiz-adv-x="579" 
d="M402 423l8 61h180l-68 -484h-179l8 55q-49 -60 -136 -60q-67 0 -110 50.5t-43 147.5q0 143 70.5 221.5t169.5 78.5q34 0 63 -19t37 -51zM342 363q-51 0 -77.5 -44t-26.5 -102q0 -40 14.5 -68t40.5 -28q66 0 75 58l17 121q5 34 -11.5 48.5t-31.5 14.5z" />
    <glyph glyph-name="aacute.alt" horiz-adv-x="579" 
d="M284 554l101 154h173l-144 -154h-130zM402 423l8 61h180l-68 -484h-179l8 55q-49 -60 -136 -60q-67 0 -110 50.5t-43 147.5q0 143 70.5 221.5t169.5 78.5q34 0 63 -19t37 -51zM342 363q-51 0 -77.5 -44t-26.5 -102q0 -40 14.5 -68t40.5 -28q66 0 75 58l17 121
q5 34 -11.5 48.5t-31.5 14.5z" />
    <glyph glyph-name="agrave.alt" horiz-adv-x="579" 
d="M393 708l57 -154h-130l-100 154h173zM402 423l8 61h180l-68 -484h-179l8 55q-49 -60 -136 -60q-67 0 -110 50.5t-43 147.5q0 143 70.5 221.5t169.5 78.5q34 0 63 -19t37 -51zM342 363q-51 0 -77.5 -44t-26.5 -102q0 -40 14.5 -68t40.5 -28q66 0 75 58l17 121
q5 34 -11.5 48.5t-31.5 14.5z" />
    <glyph glyph-name="acircumflex.alt" horiz-adv-x="579" 
d="M306 716h154l87 -167h-148l-29 84l-47 -84h-149zM402 423l8 61h180l-68 -484h-179l8 55q-49 -60 -136 -60q-67 0 -110 50.5t-43 147.5q0 143 70.5 221.5t169.5 78.5q34 0 63 -19t37 -51zM342 363q-51 0 -77.5 -44t-26.5 -102q0 -40 14.5 -68t40.5 -28q66 0 75 58l17 121
q5 34 -11.5 48.5t-31.5 14.5z" />
    <glyph glyph-name="adieresis.alt" horiz-adv-x="579" 
d="M204 555l20 136h148l-20 -136h-148zM394 555l20 136h148l-20 -136h-148zM402 423l8 61h180l-68 -484h-179l8 55q-49 -60 -136 -60q-67 0 -110 50.5t-43 147.5q0 143 70.5 221.5t169.5 78.5q34 0 63 -19t37 -51zM342 363q-51 0 -77.5 -44t-26.5 -102q0 -40 14.5 -68
t40.5 -28q66 0 75 58l17 121q5 34 -11.5 48.5t-31.5 14.5z" />
    <glyph glyph-name="atilde.alt" horiz-adv-x="579" 
d="M323 586q-27 0 -36 -42h-91q10 79 39 118t88 39q24 0 49 -16q29 -17 39 -17q30 0 32 40h93q-10 -71 -38.5 -114t-89.5 -43q-23 0 -49 18q-4 2 -9.5 6t-8.5 6t-8 3.5t-10 1.5zM402 423l8 61h180l-68 -484h-179l8 55q-49 -60 -136 -60q-67 0 -110 50.5t-43 147.5
q0 143 70.5 221.5t169.5 78.5q34 0 63 -19t37 -51zM342 363q-51 0 -77.5 -44t-26.5 -102q0 -40 14.5 -68t40.5 -28q66 0 75 58l17 121q5 34 -11.5 48.5t-31.5 14.5z" />
    <glyph glyph-name="aring.alt" horiz-adv-x="579" 
d="M267 649q0 50 31.5 85t96.5 35q99 0 99 -87q0 -52 -30 -86.5t-98 -34.5q-51 0 -75 24.5t-24 63.5zM407 671q0 26 -23 26q-32 0 -32 -39q0 -26 23 -26q32 0 32 39zM402 423l8 61h180l-68 -484h-179l8 55q-49 -60 -136 -60q-67 0 -110 50.5t-43 147.5q0 143 70.5 221.5
t169.5 78.5q34 0 63 -19t37 -51zM342 363q-51 0 -77.5 -44t-26.5 -102q0 -40 14.5 -68t40.5 -28q66 0 75 58l17 121q5 34 -11.5 48.5t-31.5 14.5z" />
    <glyph glyph-name="abreve.alt" horiz-adv-x="579" 
d="M373 545q-81 0 -115.5 49.5t-24.5 126.5h104q-4 -40 6 -54.5t44 -14.5t48.5 15.5t21.5 53.5h104q-10 -76 -59 -126t-129 -50zM402 423l8 61h180l-68 -484h-179l8 55q-49 -60 -136 -60q-67 0 -110 50.5t-43 147.5q0 143 70.5 221.5t169.5 78.5q34 0 63 -19t37 -51z
M342 363q-51 0 -77.5 -44t-26.5 -102q0 -40 14.5 -68t40.5 -28q66 0 75 58l17 121q5 34 -11.5 48.5t-31.5 14.5z" />
    <glyph glyph-name="amacron.alt" horiz-adv-x="579" 
d="M228 575l17 117h289l-17 -117h-289zM402 423l8 61h180l-68 -484h-179l8 55q-49 -60 -136 -60q-67 0 -110 50.5t-43 147.5q0 143 70.5 221.5t169.5 78.5q34 0 63 -19t37 -51zM342 363q-51 0 -77.5 -44t-26.5 -102q0 -40 14.5 -68t40.5 -28q66 0 75 58l17 121
q5 34 -11.5 48.5t-31.5 14.5z" />
    <glyph glyph-name="aogonek.alt" horiz-adv-x="579" 
d="M343 0l8 55q-49 -60 -136 -60q-67 0 -110 50.5t-43 147.5q0 143 70.5 221.5t169.5 78.5q34 0 63 -19t37 -51l8 61h180l-68 -484h-83q-80 -99 -33 -98q10 0 25 4l49 13l-13 -95q-43 -18 -86 -23q-66 -7 -90.5 27.5t2.5 97.5q15 34 50 74zM342 363q-51 0 -77.5 -44
t-26.5 -102q0 -40 14.5 -68t40.5 -28q66 0 75 58l17 121q5 34 -11.5 48.5t-31.5 14.5z" />
    <glyph glyph-name="aringacute.alt" horiz-adv-x="579" 
d="M263 634q0 50 31.5 85t96.5 35q99 0 99 -87q0 -52 -30 -86.5t-98 -34.5q-51 0 -75 24.5t-24 63.5zM403 656q0 26 -23 26q-32 0 -32 -39q0 -26 23 -26q32 0 32 39zM330 779l101 154h173l-144 -154h-130zM402 423l8 61h180l-68 -484h-179l8 55q-49 -60 -136 -60
q-67 0 -110 50.5t-43 147.5q0 143 70.5 221.5t169.5 78.5q34 0 63 -19t37 -51zM342 363q-51 0 -77.5 -44t-26.5 -102q0 -40 14.5 -68t40.5 -28q66 0 75 58l17 121q5 34 -11.5 48.5t-31.5 14.5z" />
    <glyph glyph-name="T_h" horiz-adv-x="1171" 
d="M1153 280l-39 -280h-180l39 280q12 83 -27 83q-13 0 -26.5 -4.5t-30 -24t-21.5 -52.5l-40 -282h-180l75 533h-260l-75 -533h-186l75 533h-193l20 141h819l-35 -251q21 40 55.5 57t58.5 17q180 0 151 -217z" />
    <glyph glyph-name="c_t" horiz-adv-x="891" 
d="M63 204q0 122 71 200.5t191 90.5q1 54 19 92.5t39.5 56.5t52 28.5t45 11.5t30.5 1h356l-28 -201h91l-15 -110h-92l-32 -231q-5 -26 11 -26q33 0 84 19l-9 -112q-72 -35 -123 -35h-2q-27 0 -46 3.5t-50 17t-44 52t-5 98.5l30 214h-68l15 110h69l13 90h-152
q-29 0 -42.5 -16t-13 -36.5t0.5 -39.5q42 -11 78 -31l-53 -115q-11 7 -22.5 12t-22.5 7.5t-20.5 4.5t-20 2.5t-16 0.5h-14h-9.5q-54 0 -85.5 -43t-31.5 -99q0 -42 21.5 -70.5t61.5 -28.5q71 0 133 25l21 -114q-95 -45 -188 -45q-108 0 -168 57.5t-60 158.5z" />
    <glyph glyph-name="asuperior" horiz-adv-x="347" 
d="M377 443h-131l5 33q-12 -14 -39 -25.5t-43 -11.5q-31 0 -56.5 22t-25.5 68q0 100 190 117q0 1 0.5 6.5t0 8.5t-2 7.5t-5.5 7t-11 2.5q-27 0 -67 -10q-22 -5 -34 -11l-28 60q-1 1 19.5 13.5t58.5 25.5t75 13q8 0 16 -0.5t32.5 -6t40.5 -16t27.5 -34t7.5 -56.5zM220 525
q6 0 14 2t18.5 10t11.5 21l4 27q-58 -13 -58 -47q0 -13 10 -13z" />
    <glyph glyph-name="bsuperior" horiz-adv-x="366" 
d="M281 871l-21 -147q32 43 67 43q50 0 82 -35t32 -101q0 -93 -44 -144t-111 -51q-41 0 -61 44l-5 -37h-131l60 428h132zM276 672q-4 0 -9.5 -2.5t-11 -10.5t-7.5 -21l-11 -78q-3 -30 29 -30q19 0 30 29.5t11 62.5q0 50 -31 50z" />
    <glyph glyph-name="csuperior" horiz-adv-x="314" 
d="M94 578q0 87 55 139t145 52q57 0 118 -33l-38 -82q-12 7 -23.5 12t-21.5 6t-17 1.5t-14.5 0t-8.5 -0.5q-30 0 -47 -25.5t-17 -58.5q0 -57 44 -57q53 0 91 15l15 -78q-60 -32 -128 -32q-72 0 -112.5 37.5t-40.5 103.5z" />
    <glyph glyph-name="dsuperior" horiz-adv-x="366" 
d="M308 724l21 147h132l-60 -428h-131l5 37q-31 -44 -73 -44q-50 0 -79.5 33.5t-29.5 98.5q0 94 47 146.5t114 52.5q34 0 54 -43zM278 672q-51 0 -51 -94q0 -48 21 -48q33 0 37 30l11 78q3 18 -3.5 26t-14.5 8z" />
    <glyph glyph-name="esuperior" horiz-adv-x="365" 
d="M251 438q-72 0 -111.5 41t-39.5 102q0 79 53.5 133.5t136.5 54.5q69 0 107 -40t38 -102q0 -21 -9 -55h-200q-1 -18 13.5 -31t37.5 -13q42 0 105 23l17 -73q-64 -40 -148 -40zM232 639h83q-5 36 -35 36q-35 0 -48 -36z" />
    <glyph glyph-name="fsuperior" horiz-adv-x="217" 
d="M112 752h32l3 16q15 112 128 110h3q36 0 78 -26l-28 -66q-13 6 -33 6q-13 0 -16 -15l-4 -25h52l-10 -74h-52l-33 -235h-131l33 235h-32z" />
    <glyph glyph-name="gsuperior" horiz-adv-x="372" 
d="M258 531q8 0 17 7.5t12 25.5l11 79q5 32 -30 32q-19 0 -30 -31t-11 -63q0 -50 31 -50zM275 445l4 28q-8 -13 -28.5 -22t-35.5 -9q-47 0 -84 35.5t-37 101.5q0 87 45.5 138.5t104.5 51.5q43 0 66 -40l4 31h132l-44 -313q-8 -60 -60 -91.5t-117 -31.5q-39 0 -76.5 12
t-55.5 30l36 67q36 -25 98 -25q38 0 48 37z" />
    <glyph glyph-name="isuperior" horiz-adv-x="195" 
d="M94 443l45 317h131l-45 -317h-131zM142 787l12 84h131l-12 -84h-131z" />
    <glyph glyph-name="ksuperior" horiz-adv-x="367" 
d="M313 623l109 -180h-145l-40 105l-15 -105h-133l60 428h133l-24 -172l43 61h147z" />
    <glyph glyph-name="lsuperior" horiz-adv-x="195" 
d="M94 443l60 428h131l-60 -428h-131z" />
    <glyph glyph-name="msuperior" horiz-adv-x="525" 
d="M260 443l27 190q6 40 -11 40q-18 0 -27 -53l-25 -177h-130l44 316h123l-5 -37q31 46 69 46q20 0 34.5 -8.5t27.5 -33.5q39 42 85 42q129 0 110 -134l-27 -191h-128l25 181q7 49 -12 49q-17 0 -22 -39l-27 -191h-131z" />
    <glyph glyph-name="osuperior" horiz-adv-x="369" 
d="M100 578q0 87 52.5 139.5t138.5 52.5q70 0 109 -37.5t39 -103.5q0 -87 -53.5 -139t-140.5 -52q-69 0 -107 37t-38 103zM308 619q0 25 -8 41.5t-22 16.5q-20 0 -34.5 -28.5t-14.5 -61.5q0 -24 7.5 -40.5t20.5 -16.5q20 0 35.5 28t15.5 61z" />
    <glyph glyph-name="psuperior" horiz-adv-x="366" 
d="M225 470l-20 -140h-132l60 428h131l-5 -37q16 22 36.5 33.5t36.5 11.5q50 0 79.5 -34t29.5 -99q0 -94 -47 -146t-114 -52q-39 0 -55 35zM256 529q51 0 51 94q0 48 -21 48q-33 0 -37 -30l-11 -78q-3 -18 3.5 -26t14.5 -8z" />
    <glyph glyph-name="qsuperior" horiz-adv-x="366" 
d="M254 330l19 140q-25 -35 -65 -35q-50 0 -82 35.5t-32 99.5q0 93 44 144.5t111 51.5q16 0 33 -11.5t28 -33.5l5 37h131l-60 -428h-132zM259 529q4 0 9.5 2.5t11 10.5t7.5 21l10 78q4 30 -28 30q-19 0 -30 -29.5t-11 -62.5q0 -50 31 -50z" />
    <glyph glyph-name="rsuperior" horiz-adv-x="255" 
d="M356 768l-14 -100h-37q-49 0 -57 -52l-24 -173h-130l44 316h128l-6 -47q17 29 38.5 42.5t37.5 13.5h20z" />
    <glyph glyph-name="ssuperior" horiz-adv-x="344" 
d="M277 530q1 5 0 8.5t-7.5 6.5t-15 6t-25.5 10t-35 16q-63 30 -63 80t42.5 81.5t107.5 31.5q37 0 66 -10.5t68 -40.5l-53 -68q-8 6 -29 16t-43.5 15t-27.5 -9q-1 -3 2 -5.5t14 -7.5l44 -17q72 -26 72 -90q0 -26 -18 -54q-18 -27 -54.5 -44t-81.5 -17q-76 0 -143 61l60 70
q25 -25 69 -40.5t51 1.5z" />
    <glyph glyph-name="tsuperior" horiz-adv-x="255" 
d="M145 678h-46l11 76h46l10 72h130l-10 -72h60l-11 -76h-60l-20 -139q0 -12 15 -12t49 14l-6 -80q-52 -25 -85 -25q-14 0 -23 0.5t-28.5 6t-30 16t-18 33t-2.5 54.5z" />
    <glyph glyph-name="usuperior" horiz-adv-x="377" 
d="M113 578l26 181h129l-26 -181q-7 -49 11 -49q5 0 11.5 1.5t16.5 11t12 26.5l27 191h132l-45 -316h-128l6 41q-35 -48 -77 -48q-116 0 -95 142z" />
    <glyph glyph-name="vsuperior" horiz-adv-x="404" 
d="M321 443h-115l-90 318h137l31 -179l81 179h137z" />
    <glyph glyph-name="zsuperior" horiz-adv-x="337" 
d="M79 443l10 74l159 152h-131l13 92h297l-11 -74l-157 -152h132l-13 -92h-299z" />
    <glyph glyph-name="zero.oldstyle" horiz-adv-x="467" 
d="M230 -8q-92 0 -143 53t-51 147q0 124 72.5 200t188.5 76q95 0 147 -52.5t52 -146.5q0 -124 -73 -200.5t-193 -76.5zM280 351q-36 0 -58.5 -47t-22.5 -103q0 -39 12 -65.5t35 -26.5q35 0 60.5 46t25.5 101q0 40 -13.5 67.5t-38.5 27.5z" />
    <glyph glyph-name="one.oldstyle" horiz-adv-x="542" 
d="M61 0l18 125h139l22 160l-105 -52l-50 110l210 117h139l-47 -335h136l-18 -125h-444z" />
    <glyph glyph-name="two.oldstyle" horiz-adv-x="528" 
d="M313 360q-74 0 -144 -66l-76 79q35 27 61 44t76 35t102 18q88 0 146.5 -38.5t58.5 -101.5q0 -24 -13 -46.5t-27.5 -37t-46.5 -33t-49 -27t-55 -25.5q-24 -10 -44 -18.5t-29.5 -13t-16.5 -6.5h242l-17 -123h-444l10 71q4 36 40 68t83.5 55.5t94.5 44.5t79.5 42t32.5 41
q0 17 -22 27.5t-42 10.5z" />
    <glyph glyph-name="three.oldstyle" horiz-adv-x="528" 
d="M227 -192q-144 0 -237 99l85 95q55 -61 138 -61q102 0 102 75q0 25 -15 42.5t-44 17.5h-80l19 137h77q33 0 53 21t20 48q0 23 -13.5 39t-38.5 16q-96 0 -159 -63l-61 90q22 30 88 67.5t156 37.5q91 0 149 -44.5t58 -124.5q0 -105 -106 -152q38 -13 57.5 -53t19.5 -76
q0 -91 -82.5 -151t-185.5 -60z" />
    <glyph glyph-name="four.oldstyle" horiz-adv-x="591" 
d="M456 -174h-175l16 114h-268l16 112q63 112 154.5 222.5t187.5 191.5h159l-55 -392h84l-19 -135h-84zM197 74h119l26 183q-100 -106 -145 -183z" />
    <glyph glyph-name="five.oldstyle" horiz-adv-x="590" 
d="M387 60q0 34 -18 59.5t-55 25.5q-23 0 -48 -12t-39 -39h-150l113 370h374l-20 -141h-254l-30 -99q43 41 128 41q71 0 117.5 -50t46.5 -135q0 -69 -27 -123t-72 -85.5t-96.5 -47.5t-106.5 -16q-140 0 -216 103l90 110q64 -75 138 -75q65 0 95 34.5t30 79.5z" />
    <glyph glyph-name="six.oldstyle" horiz-adv-x="580" 
d="M593 595l-58 -104q-50 37 -123 37q-44 0 -88.5 -37.5t-49.5 -105.5q55 56 123 56q78 0 128 -52t50 -138q0 -119 -79 -188t-198 -69q-62 0 -106.5 22.5t-66.5 60.5t-31.5 77t-9.5 84q0 193 94 306t239 113q93 0 176 -62zM314 123q36 0 58 36t22 74q0 32 -13.5 57t-40.5 25
q-33 0 -55 -33.5t-22 -78.5q0 -36 13.5 -58t37.5 -22z" />
    <glyph glyph-name="seven.oldstyle" horiz-adv-x="557" 
d="M70 309l20 139h491l-15 -106q-111 -118 -191 -246.5t-152 -287.5h-195q146 280 354 501h-312z" />
    <glyph glyph-name="eight.oldstyle" horiz-adv-x="575" 
d="M286 -6q-111 0 -167.5 49t-56.5 124q0 51 35 103.5t101 68.5q-37 17 -56.5 53t-19.5 72q0 78 62 125.5t147 61.5q36 4 48 4q25 0 53 -4q64 -11 109.5 -51t45.5 -104q0 -43 -24.5 -86.5t-86.5 -70.5q46 -12 68 -54t22 -82q0 -83 -73.5 -146t-206.5 -63zM306 130
q38 0 65 22t27 54q0 30 -19 48t-53 18q-41 0 -65.5 -24.5t-24.5 -60.5q0 -27 20.5 -42t49.5 -15zM343 409q31 0 56.5 17.5t25.5 47.5q0 25 -17.5 39t-46.5 14q-35 0 -57.5 -18t-22.5 -48q0 -25 18 -38.5t44 -13.5z" />
    <glyph glyph-name="nine.oldstyle" horiz-adv-x="578" 
d="M51 -128l58 104q50 -37 123 -37q44 0 88.5 37.5t49.5 105.5q-55 -56 -123 -56q-78 0 -128 52t-50 138q0 119 79 188t198 69q62 0 106.5 -22.5t66.5 -60.5t31.5 -77t9.5 -84q0 -193 -94 -306t-239 -113q-93 0 -176 62zM330 344q-36 0 -58 -36t-22 -74q0 -31 13.5 -56.5
t40.5 -25.5q33 0 55 33.5t22 78.5q0 36 -13.5 58t-37.5 22z" />
    <glyph glyph-name="zero.pzero" horiz-adv-x="614" 
d="M169 37l-55 -68h-81l95 119q-34 61 -34 168q0 177 86.5 286t224.5 109q86 0 139 -43l42 53h80l-80 -99q42 -67 42 -180q0 -177 -86.5 -285.5t-229.5 -108.5q-90 0 -143 49zM268 263l170 213q-18 43 -52 43q-40 0 -71.5 -60t-41.5 -140q-3 -19 -5 -56zM453 394l-176 -220
q15 -54 53 -54q36 0 65 39.5t43.5 96.5t14.5 116v22z" />
    <glyph glyph-name="zero.tzero" horiz-adv-x="628" 
d="M176 37l-55 -68h-81l95 119q-34 61 -34 168q0 177 86.5 286t224.5 109q86 0 139 -43l42 53h80l-80 -99q42 -67 42 -180q0 -177 -86.5 -285.5t-229.5 -108.5q-90 0 -143 49zM275 263l170 213q-18 43 -52 43q-40 0 -71.5 -60t-41.5 -140q-3 -19 -5 -56zM460 394l-176 -220
q15 -54 53 -54q36 0 65 39.5t43.5 96.5t14.5 116v22z" />
    <glyph glyph-name="triangleup" horiz-adv-x="534" 
d="M500 162h-420l259 346z" />
    <glyph glyph-name="triangledown" horiz-adv-x="534" 
d="M128 508h420l-259 -346z" />
    <glyph glyph-name="zero.ozero" horiz-adv-x="470" 
d="M125 17l-42 -50h-81l76 90q-40 47 -40 134q0 125 72 201t189 76q61 0 105 -23l33 39h80l-63 -75q44 -49 44 -141q0 -124 -72.5 -200t-192.5 -76q-64 0 -108 25zM201 204l112 133q-12 14 -30 14q-30 0 -51 -36t-28 -85zM334 266l-118 -139q12 -18 33 -18q35 0 60 46
t25 100v11z" />
    <glyph glyph-name="zero.tozero" horiz-adv-x="597" 
d="M188 17l-42 -50h-81l76 90q-40 47 -40 134q0 125 72 201t189 76q61 0 105 -23l33 39h80l-63 -75q44 -49 44 -141q0 -124 -72.5 -200t-192.5 -76q-64 0 -108 25zM264 204l112 133q-12 14 -30 14q-30 0 -51 -36t-28 -85zM397 266l-118 -139q12 -18 33 -18q35 0 60 46
t25 100v11z" />
    <glyph glyph-name="A.small" horiz-adv-x="559" 
d="M179 0h-170l269 484h139l133 -484h-169l-27 101h-122zM330 354l-59 -146h76z" />
    <glyph glyph-name="B.small" horiz-adv-x="485" 
d="M295 190h-68l-11 -77h68q13 0 25 13t12 30q0 34 -26 34zM493 368q0 -29 -16 -59.5t-55 -49.5q63 -19 63 -97q0 -63 -51 -112.5t-140 -49.5h-257l68 484h236q77 0 114.5 -32.5t37.5 -83.5zM242 297h51q16 0 25.5 14t9.5 27q0 14 -7.5 23.5t-20.5 9.5h-48z" />
    <glyph glyph-name="C.small" horiz-adv-x="465" 
d="M48 210q0 117 84 199.5t213 82.5q95 0 176 -45l-55 -102q-72 28 -124 28q-64 0 -97 -47t-33 -106q0 -47 23 -77.5t71 -30.5h4q46 0 130 28l23 -102q-96 -44 -188 -44q-106 0 -166.5 60.5t-60.5 155.5z" />
    <glyph glyph-name="D.small" horiz-adv-x="518" 
d="M236 0h-199l68 484h199q110 0 170 -51t60 -151q0 -137 -79.5 -209.5t-218.5 -72.5zM215 118h41q49 0 82 38t33 113q0 97 -84 97h-38z" />
    <glyph glyph-name="E.small" horiz-adv-x="442" 
d="M420 0h-383l68 484h379l-17 -118h-218l-9 -64h202l-16 -117h-202l-9 -67h222z" />
    <glyph glyph-name="F.small" horiz-adv-x="406" 
d="M201 -1l-164 1l68 484h362l-17 -118h-198l-9 -64h183l-16 -117h-183z" />
    <glyph glyph-name="G.small" horiz-adv-x="507" 
d="M373 179h-101l16 112h243l-35 -246q-39 -23 -99 -36.5t-104 -13.5q-115 0 -180 61t-65 156q0 117 88.5 198.5t226.5 81.5q98 0 183 -59l-66 -95q-53 36 -128 36q-71 0 -105 -46t-34 -104q0 -46 26 -78.5t77 -32.5q28 0 48 4z" />
    <glyph glyph-name="H.small" horiz-adv-x="508" 
d="M334 188h-108l-26 -188h-163l68 484h163l-25 -177h108l25 177h163l-68 -484h-163z" />
    <glyph glyph-name="I.small" horiz-adv-x="236" 
d="M37 0l68 484h162l-68 -484h-162z" />
    <glyph glyph-name="J.small" horiz-adv-x="365" 
d="M10 37l50 92q37 -24 100 -24q23 0 29 45l47 334h160l-48 -339q-20 -150 -185 -150q-70 0 -153 42z" />
    <glyph glyph-name="K.small" horiz-adv-x="499" 
d="M492 0h-190l-81 165l-23 -165h-161l68 484h161l-18 -131l101 131h184l-191 -221z" />
    <glyph glyph-name="L.small" horiz-adv-x="415" 
d="M268 484l-51 -365h203l-17 -119h-366l68 484h163z" />
    <glyph glyph-name="M.small" horiz-adv-x="660" 
d="M266 0l-24 232l-44 -232h-161l106 484h168l46 -290l128 290h168l-30 -484h-159l20 234l-89 -234h-129z" />
    <glyph glyph-name="N.small" horiz-adv-x="510" 
d="M302 0l-70 240l-34 -240h-161l68 484h177l63 -251l35 251h161l-68 -484h-171z" />
    <glyph glyph-name="O.small" horiz-adv-x="538" 
d="M269 -5q-105 0 -163 54.5t-58 153.5q0 131 80 210t211 79q105 0 162.5 -56t57.5 -155q0 -131 -79.5 -208.5t-210.5 -77.5zM322 375q-49 0 -77.5 -49t-28.5 -115q0 -100 69 -100q49 0 77.5 46t28.5 113q0 46 -17.5 75.5t-51.5 29.5z" />
    <glyph glyph-name="P.small" horiz-adv-x="464" 
d="M300 160h-78l-22 -160h-163l68 484h236q80 0 116.5 -43.5t36.5 -101.5q0 -11 -3.5 -29t-16.5 -45t-32.5 -49.5t-56.5 -39t-85 -16.5zM239 278h69q18 0 26.5 17.5t8.5 33.5q0 37 -33 37h-59z" />
    <glyph glyph-name="Q.small" horiz-adv-x="558" 
d="M280 -9h-2q-101 0 -160.5 57.5t-59.5 156.5q0 131 79.5 209t210.5 78q105 0 163 -56t58 -155q0 -140 -110 -226h79l-15 -110h-74q-39 0 -64 7t-33.5 15t-18.5 23l-2 6zM332 375q-49 0 -78 -49t-29 -115q0 -47 17.5 -74.5t52.5 -27.5q49 0 77.5 47t28.5 114
q0 46 -17.5 75.5t-51.5 29.5z" />
    <glyph glyph-name="R.small" horiz-adv-x="489" 
d="M495 351q0 -92 -98 -131q19 -4 29 -15t16 -37l38 -168h-166l-35 139q-5 26 -27 26h-30l-23 -165h-162l68 484h231q87 0 123 -38t36 -95zM239 283h68q34 0 34 47q0 36 -30 36h-61z" />
    <glyph glyph-name="S.small" horiz-adv-x="466" 
d="M301 492q59 0 98.5 -17.5t87.5 -55.5l-60 -102q-34 29 -75.5 41.5t-62.5 12.5q-43 0 -43 -26q0 -16 14 -22l112 -44q94 -35 94 -116q0 -77 -66.5 -122.5t-155.5 -45.5q-65 0 -105 15q-69 27 -106 68l69 107q30 -30 76 -50.5t84 -20.5q14 0 26.5 7.5t12.5 22.5t-9 18
l-113 46q-96 41 -96 118q0 74 63 120t155 46z" />
    <glyph glyph-name="T.small" horiz-adv-x="446" 
d="M488 366h-133l-51 -366h-163l51 366h-132l17 118h428z" />
    <glyph glyph-name="U.small" horiz-adv-x="523" 
d="M260 -6q-109 0 -159 51.5t-33 173.5l37 265h163l-37 -266q-8 -54 3 -77.5t44 -23.5t50.5 23t25.5 78l37 266h163l-37 -265q-17 -123 -82 -174t-175 -51z" />
    <glyph glyph-name="V.small" horiz-adv-x="526" 
d="M77 484h166l46 -298l130 298h166l-251 -484h-141z" />
    <glyph glyph-name="W.small" horiz-adv-x="711" 
d="M494 469l19 -234l87 249h170l-216 -484h-145l-21 238l-86 -238h-146l-79 484h167l18 -251l87 236h145z" />
    <glyph glyph-name="X.small" horiz-adv-x="558" 
d="M362 0l-65 137l-104 -137h-184l215 240l-139 244h184l59 -136l97 136h182l-205 -245l147 -239h-187z" />
    <glyph glyph-name="Y.small" horiz-adv-x="551" 
d="M358 0h-164l24 173l-141 311h183l57 -195l110 195h183l-228 -310z" />
    <glyph glyph-name="Z.small" horiz-adv-x="476" 
d="M444 0h-422l13 96l257 270h-209l17 118h422l-13 -94l-261 -270h213z" />
    <glyph glyph-name="Eth.small" horiz-adv-x="550" 
d="M136 484h201q110 0 169 -51t59 -151q0 -137 -79 -209.5t-217 -72.5h-201l27 193h-61l14 101h61zM247 118h41q50 0 83 37.5t33 113.5q0 97 -83 97h-39l-10 -72h81l-14 -101h-81z" />
    <glyph glyph-name="Lslash.small" horiz-adv-x="456" 
d="M77 0l22 157l-76 -43l14 97l76 45l32 228h163l-18 -131l75 45l-14 -97l-75 -45l-19 -137h204l-17 -119h-367z" />
    <glyph glyph-name="Scaron.small" horiz-adv-x="466" 
d="M301 492q59 0 98.5 -17.5t87.5 -55.5l-60 -102q-34 29 -75.5 41.5t-62.5 12.5q-43 0 -43 -26q0 -15 15 -22l111 -44q94 -37 94 -116q0 -77 -66.5 -122.5t-155.5 -45.5q-65 0 -105 15q-69 27 -106 68l69 107q30 -30 76 -50.5t84 -20.5q14 0 26.5 7.5t12.5 22.5
q0 14 -10 18l-112 46q-96 39 -96 118q0 74 63 120t155 46zM380 539h-135l-76 146h133l21 -74l38 74h134z" />
    <glyph glyph-name="Yacute.small" horiz-adv-x="551" 
d="M358 0h-164l24 173l-141 311h183l57 -195l110 195h183l-228 -310zM245 541l99 144h163l-148 -144h-114z" />
    <glyph glyph-name="Zcaron.small" horiz-adv-x="476" 
d="M376 539h-135l-76 146h133l21 -74l38 74h134zM444 0h-422l13 96l257 270h-209l17 118h422l-13 -94l-261 -270h213z" />
    <glyph glyph-name="Thorn.small" horiz-adv-x="438" 
d="M263 484l-16 -111q18 26 41 39t38 13q55 0 92 -40t37 -116q0 -107 -57 -166t-133 -59q-37 0 -60 37l-11 -81h-160l68 484h161zM259 311q-21 0 -26 -41l-12 -83q-3 -28 28 -28q18 0 28.5 34t10.5 67q0 51 -29 51z" />
    <glyph glyph-name="Adieresis.small" horiz-adv-x="559" 
d="M374 548l17 120h134l-17 -120h-134zM197 548l17 120h134l-17 -120h-134zM179 0h-170l269 484h139l133 -484h-169l-27 101h-122zM330 354l-59 -146h76z" />
    <glyph glyph-name="Aring.small" horiz-adv-x="559" 
d="M355 533q-44 0 -64.5 21.5t-20.5 55.5q0 44 27.5 75.5t83.5 31.5q44 0 64.5 -22t20.5 -57q0 -44 -27.5 -74.5t-83.5 -30.5zM364 599q15 0 22.5 9t7.5 20q0 22 -23 22q-15 0 -23 -9t-8 -20q0 -22 24 -22zM179 0h-170l269 484h139l133 -484h-169l-27 101h-122zM330 354
l-59 -146h76z" />
    <glyph glyph-name="Ccedilla.small" horiz-adv-x="465" 
d="M48 212q0 116 84 198t213 82q95 0 176 -45l-55 -102q-72 28 -124 28q-64 0 -97 -47t-33 -106q0 -47 23 -77.5t71 -30.5h4q46 0 130 28l23 -102q-67 -32 -150 -41q3 -7 7 -20l5 -13q1 -7 1 -20q0 -44 -28.5 -65t-77.5 -16q-36 5 -69 22l12 86l52 -14q7 -2 12 1.5t5.5 13
t-7.5 25.5q-82 14 -129.5 74t-47.5 141z" />
    <glyph glyph-name="Eacute.small" horiz-adv-x="442" 
d="M420 0h-383l68 484h379l-17 -118h-218l-9 -64h202l-16 -117h-202l-9 -67h222zM210 541l99 144h163l-148 -144h-114z" />
    <glyph glyph-name="Ntilde.small" horiz-adv-x="510" 
d="M318 575q-15 0 -24 -39h-87q11 73 36.5 110.5t74.5 29.5q20 -3 35.5 -11t24 -14t11.5 -6q14 0 16 37h91q-10 -67 -35 -107t-77 -33q-17 2 -31.5 10.5t-23 15.5t-11.5 7zM302 0l-70 240l-34 -240h-161l68 484h177l63 -251l35 251h161l-68 -484h-171z" />
    <glyph glyph-name="Odieresis.small" horiz-adv-x="538" 
d="M366 548l17 120h134l-17 -120h-134zM189 548l17 120h134l-17 -120h-134zM269 -5q-105 0 -163 54.5t-58 153.5q0 131 80 210t211 79q105 0 162.5 -56t57.5 -155q0 -131 -79.5 -208.5t-210.5 -77.5zM322 375q-49 0 -77.5 -49t-28.5 -115q0 -100 69 -100q49 0 77.5 46
t28.5 113q0 46 -17.5 75.5t-51.5 29.5z" />
    <glyph glyph-name="Udieresis.small" horiz-adv-x="523" 
d="M359 548l17 120h134l-17 -120h-134zM182 548l17 120h134l-17 -120h-134zM260 -6q-109 0 -159 51.5t-33 173.5l37 265h163l-37 -266q-8 -54 3 -77.5t44 -23.5t50.5 23t25.5 78l37 266h163l-37 -265q-17 -123 -82 -174t-175 -51z" />
    <glyph glyph-name="AE.small" horiz-adv-x="701" 
d="M355 368l-83 -154h61zM468 118h228l-17 -118h-376l14 98h-83l-55 -98h-170l311 484h423l-17 -118h-224l-9 -64h208l-16 -117h-208z" />
    <glyph glyph-name="Oslash.small" horiz-adv-x="538" 
d="M215 204l132 165q-17 6 -25 6q-42 0 -68.5 -37.5t-35.5 -95.5q-3 -12 -3 -38zM25 -36l73 91q-51 51 -51 146q0 133 80 212t211 79q54 0 94 -15l29 36h122l-70 -89q46 -52 46 -143q0 -132 -80 -211t-211 -79q-48 0 -89 13l-33 -40h-121zM391 271l-127 -161q9 -3 20 -3
q41 0 68 37.5t36 97.5q0 3 1.5 13t1.5 16z" />
    <glyph glyph-name="Agrave.small" horiz-adv-x="559" 
d="M366 685l59 -144h-114l-108 144h163zM179 0h-170l269 484h139l133 -484h-169l-27 101h-122zM330 354l-59 -146h76z" />
    <glyph glyph-name="Atilde.small" horiz-adv-x="559" 
d="M318 575q-15 0 -24 -39h-87q11 73 36.5 110.5t74.5 29.5q20 -3 35.5 -11t24 -14t11.5 -6q14 0 16 37h91q-10 -67 -35 -107t-77 -33q-17 2 -31.5 10.5t-23 15.5t-11.5 7zM179 0h-170l269 484h139l133 -484h-169l-27 101h-122zM330 354l-59 -146h76z" />
    <glyph glyph-name="Otilde.small" horiz-adv-x="538" 
d="M318 575q-16 0 -23 -39h-87q11 74 35.5 111t74.5 29q20 -3 35.5 -11t24 -14t11.5 -6q7 0 11.5 11t4.5 26h91q-10 -67 -34.5 -107t-76.5 -33q-16 2 -31 10.5t-24 15.5t-12 7zM269 -5q-105 0 -163 54.5t-58 153.5q0 131 80 210t211 79q105 0 162.5 -56t57.5 -155
q0 -131 -79.5 -208.5t-210.5 -77.5zM322 375q-49 0 -77.5 -49t-28.5 -115q0 -100 69 -100q49 0 77.5 46t28.5 113q0 46 -17.5 75.5t-51.5 29.5z" />
    <glyph glyph-name="OE.small" horiz-adv-x="761" 
d="M322 375q-51 0 -80 -48.5t-29 -114.5q0 -101 72 -101q49 0 77.5 46t28.5 113q0 46 -17.5 75.5t-51.5 29.5zM355 0h-96q-98 0 -154.5 53t-56.5 151q0 130 79 205t200 75h96h379l-16 -118h-217l-9 -64h201l-17 -117h-201l-9 -67h222l-17 -118h-384z" />
    <glyph glyph-name="Ydieresis.small" horiz-adv-x="551" 
d="M374 548l17 120h134l-17 -120h-134zM197 548l17 120h134l-17 -120h-134zM358 0h-164l24 173l-141 311h183l57 -195l110 195h183l-228 -310z" />
    <glyph glyph-name="Acircumflex.small" horiz-adv-x="559" 
d="M303 685h135l76 -146h-133l-21 74l-38 -74h-134zM179 0h-170l269 484h139l133 -484h-169l-27 101h-122zM330 354l-59 -146h76z" />
    <glyph glyph-name="Ecircumflex.small" horiz-adv-x="442" 
d="M253 685h135l76 -146h-133l-21 74l-38 -74h-134zM420 0h-383l68 484h379l-17 -118h-218l-9 -64h202l-16 -117h-202l-9 -67h222z" />
    <glyph glyph-name="Aacute.small" horiz-adv-x="559" 
d="M284 541l99 144h163l-148 -144h-114zM179 0h-170l269 484h139l133 -484h-169l-27 101h-122zM330 354l-59 -146h76z" />
    <glyph glyph-name="Edieresis.small" horiz-adv-x="442" 
d="M330 548l17 120h134l-17 -120h-134zM153 548l17 120h134l-17 -120h-134zM420 0h-383l68 484h379l-17 -118h-218l-9 -64h202l-16 -117h-202l-9 -67h222z" />
    <glyph glyph-name="Egrave.small" horiz-adv-x="442" 
d="M323 685l59 -144h-114l-108 144h163zM420 0h-383l68 484h379l-17 -118h-218l-9 -64h202l-16 -117h-202l-9 -67h222z" />
    <glyph glyph-name="Iacute.small" horiz-adv-x="236" 
d="M115 541l99 144h163l-148 -144h-114zM37 0l68 484h162l-68 -484h-162z" />
    <glyph glyph-name="Icircumflex.small" horiz-adv-x="236" 
d="M147 685h135l75 -146h-133l-21 74l-38 -74h-134zM37 0l68 484h162l-68 -484h-162z" />
    <glyph glyph-name="Idieresis.small" horiz-adv-x="236" 
d="M218 548l17 120h134l-17 -120h-134zM41 548l17 120h134l-17 -120h-134zM37 0l68 484h162l-68 -484h-162z" />
    <glyph glyph-name="Igrave.small" horiz-adv-x="236" 
d="M218 685l59 -144h-114l-108 144h163zM37 0l68 484h162l-68 -484h-162z" />
    <glyph glyph-name="Oacute.small" horiz-adv-x="538" 
d="M267 541l100 144h163l-149 -144h-114zM269 -5q-105 0 -163 54.5t-58 153.5q0 131 80 210t211 79q105 0 162.5 -56t57.5 -155q0 -131 -79.5 -208.5t-210.5 -77.5zM322 375q-49 0 -77.5 -49t-28.5 -115q0 -100 69 -100q49 0 77.5 46t28.5 113q0 46 -17.5 75.5t-51.5 29.5z
" />
    <glyph glyph-name="Ocircumflex.small" horiz-adv-x="538" 
d="M297 685h135l75 -146h-133l-20 74l-39 -74h-134zM269 -5q-105 0 -163 54.5t-58 153.5q0 131 80 210t211 79q105 0 162.5 -56t57.5 -155q0 -131 -79.5 -208.5t-210.5 -77.5zM322 375q-49 0 -77.5 -49t-28.5 -115q0 -100 69 -100q49 0 77.5 46t28.5 113q0 46 -17.5 75.5
t-51.5 29.5z" />
    <glyph glyph-name="Ograve.small" horiz-adv-x="538" 
d="M338 685l58 -144h-114l-107 144h163zM269 -5q-105 0 -163 54.5t-58 153.5q0 131 80 210t211 79q105 0 162.5 -56t57.5 -155q0 -131 -79.5 -208.5t-210.5 -77.5zM322 375q-49 0 -77.5 -49t-28.5 -115q0 -100 69 -100q49 0 77.5 46t28.5 113q0 46 -17.5 75.5t-51.5 29.5z
" />
    <glyph glyph-name="Uacute.small" horiz-adv-x="523" 
d="M242 541l100 144h163l-149 -144h-114zM260 -6q-109 0 -159 51.5t-33 173.5l37 265h163l-37 -266q-8 -54 3 -77.5t44 -23.5t50.5 23t25.5 78l37 266h163l-37 -265q-17 -123 -82 -174t-175 -51z" />
    <glyph glyph-name="Ucircumflex.small" horiz-adv-x="523" 
d="M289 685h135l75 -146h-133l-21 74l-38 -74h-134zM260 -6q-109 0 -159 51.5t-33 173.5l37 265h163l-37 -266q-8 -54 3 -77.5t44 -23.5t50.5 23t25.5 78l37 266h163l-37 -265q-17 -123 -82 -174t-175 -51z" />
    <glyph glyph-name="Ugrave.small" horiz-adv-x="523" 
d="M357 685l58 -144h-114l-107 144h163zM260 -6q-109 0 -159 51.5t-33 173.5l37 265h163l-37 -266q-8 -54 3 -77.5t44 -23.5t50.5 23t25.5 78l37 266h163l-37 -265q-17 -123 -82 -174t-175 -51z" />
    <glyph glyph-name="Cdotaccent.small" horiz-adv-x="465" 
d="M48 210q0 117 84 199.5t213 82.5q95 0 176 -45l-55 -102q-72 28 -124 28q-64 0 -97 -47t-33 -106q0 -47 23 -77.5t71 -30.5h4q46 0 130 28l23 -102q-96 -44 -188 -44q-106 0 -166.5 60.5t-60.5 155.5zM271 544l19 130h145l-19 -130h-145z" />
    <glyph glyph-name="Ibreve.small" horiz-adv-x="236" 
d="M37 0l68 484h162l-68 -484h-162zM193 531q-65 0 -94 41t-20 102h92q-6 -50 34 -50q38 0 49 50h91q-9 -61 -49.5 -102t-102.5 -41z" />
    <glyph glyph-name="Idotaccent.small" horiz-adv-x="236" 
d="M37 0l68 484h162l-68 -484h-162zM113 544l19 130h162l-19 -130h-162z" />
    <glyph glyph-name="Ycircumflex.small" horiz-adv-x="551" 
d="M304 685h135l76 -146h-133l-21 74l-38 -74h-134zM358 0h-164l24 173l-141 311h183l57 -195l110 195h183l-228 -310z" />
    <glyph glyph-name="Wcircumflex.small" horiz-adv-x="711" 
d="M379 685h135l76 -146h-133l-21 74l-38 -74h-134zM494 469l19 -234q16 41 45.5 128.5t41.5 120.5h170l-216 -484h-145l-21 238l-86 -238h-146l-79 484h167l18 -251q9 24 40 109.5t47 126.5h145z" />
    <glyph glyph-name="Tcaron.small" horiz-adv-x="446" 
d="M361 539h-135l-75 146h133l20 -74l39 74h134zM488 366h-133l-51 -366h-163l51 366h-132l17 118h428z" />
    <glyph glyph-name="Utilde.small" horiz-adv-x="523" 
d="M318 575q-16 0 -23 -39h-87q11 74 35.5 111t74.5 29q20 -3 35.5 -11t24 -14t11.5 -6q7 0 11.5 11t4.5 26h91q-10 -67 -35 -107t-77 -33q-17 2 -31.5 10.5t-23 15.5t-11.5 7zM260 -6q-109 0 -159 51.5t-33 173.5l37 265h163l-37 -266q-8 -54 3 -77.5t44 -23.5t50.5 23
t25.5 78l37 266h163l-37 -265q-17 -123 -82 -174t-175 -51z" />
    <glyph glyph-name="Scircumflex.small" horiz-adv-x="466" 
d="M260 685h135l76 -146h-133l-21 74l-38 -74h-134zM301 492q59 0 98.5 -17.5t87.5 -55.5l-60 -102q-34 29 -75.5 41.5t-62.5 12.5q-43 0 -43 -26q0 -15 15 -22l111 -44q94 -37 94 -116q0 -77 -66.5 -122.5t-155.5 -45.5q-65 0 -105 15q-69 27 -106 68l69 107
q30 -30 76 -50.5t84 -20.5q14 0 26.5 7.5t12.5 22.5q0 14 -10 18l-112 46q-96 39 -96 118q0 74 63 120t155 46z" />
    <glyph glyph-name="Rcaron.small" horiz-adv-x="489" 
d="M376 539h-135l-76 146h133l21 -74l38 74h134zM495 351q0 -92 -98 -131q19 -4 29 -15t16 -37l38 -168h-166l-35 139q-5 26 -27 26h-30l-23 -165h-162l68 484h231q87 0 123 -38t36 -95zM239 283h68q34 0 34 47q0 36 -30 36h-61z" />
    <glyph glyph-name="Ncaron.small" horiz-adv-x="510" 
d="M376 539h-135l-76 146h133l21 -74l38 74h134zM302 0l-70 240l-34 -240h-161l68 484h177l63 -251l35 251h161l-68 -484h-171z" />
    <glyph glyph-name="Jcircumflex.small" horiz-adv-x="452" 
d="M280 685h135l76 -146h-133l-21 74l-38 -74h-134zM10 37l50 92q37 -24 100 -24q23 0 29 45l47 334h160l-48 -339q-20 -150 -185 -150q-70 0 -153 42z" />
    <glyph glyph-name="Itilde.small" horiz-adv-x="236" 
d="M172 575q-15 0 -24 -39h-87q11 73 36.5 110.5t74.5 29.5q20 -3 35.5 -11t24 -14t11.5 -6q14 0 16 37h91q-10 -67 -35 -107t-77 -33q-17 2 -31.5 10.5t-23 15.5t-11.5 7zM37 0l68 484h162l-68 -484h-162z" />
    <glyph glyph-name="Hcircumflex.small" horiz-adv-x="508" 
d="M281 685h135l76 -146h-133l-21 74l-38 -74h-134zM334 188h-108l-26 -188h-163l68 484h163l-25 -177h108l25 177h163l-68 -484h-163z" />
    <glyph glyph-name="Gcircumflex.small" horiz-adv-x="507" 
d="M295 685h135l75 -146h-133l-20 74l-39 -74h-134zM373 179h-101l16 112h243l-35 -246q-39 -23 -99 -36.5t-104 -13.5q-115 0 -180 61t-65 156q0 117 88.5 198.5t226.5 81.5q98 0 183 -59l-66 -95q-53 36 -128 36q-71 0 -105 -46t-34 -104q0 -46 26 -78.5t77 -32.5
q28 0 48 4z" />
    <glyph glyph-name="Ecaron.small" horiz-adv-x="442" 
d="M362 539h-135l-76 146h133l21 -74l38 74h134zM420 0h-383l68 484h379l-17 -118h-218l-9 -64h202l-16 -117h-202l-9 -67h222z" />
    <glyph glyph-name="Dcaron.small" horiz-adv-x="518" 
d="M391 539h-135l-76 146h133l21 -74l38 74h134zM236 0h-199l68 484h199q110 0 170 -51t60 -151q0 -137 -79.5 -209.5t-218.5 -72.5zM215 118h41q49 0 82 38t33 113q0 97 -84 97h-38z" />
    <glyph glyph-name="Lcaron.small" horiz-adv-x="442" 
d="M268 484l-51 -365h203l-17 -119h-366l68 484h163zM272 330l86 154h150l-122 -154h-114z" />
    <glyph glyph-name="Ccaron.small" horiz-adv-x="465" 
d="M406 539h-135l-76 146h133l21 -74l38 74h134zM48 210q0 117 84 199.5t213 82.5q95 0 176 -45l-55 -102q-72 28 -124 28q-64 0 -97 -47t-33 -106q0 -47 23 -77.5t71 -30.5h4q46 0 130 28l23 -102q-96 -44 -188 -44q-106 0 -166.5 60.5t-60.5 155.5z" />
    <glyph glyph-name="Ccircumflex.small" horiz-adv-x="465" 
d="M290 685h135l76 -146h-133l-21 74l-38 -74h-134zM48 210q0 117 84 199.5t213 82.5q95 0 176 -45l-55 -102q-72 28 -124 28q-64 0 -97 -47t-33 -106q0 -47 23 -77.5t71 -30.5h4q46 0 130 28l23 -102q-96 -44 -188 -44q-106 0 -166.5 60.5t-60.5 155.5z" />
    <glyph glyph-name="Zacute.small" horiz-adv-x="476" 
d="M237 541l99 144h163l-148 -144h-114zM444 0h-422l13 96l257 270h-209l17 118h422l-13 -94l-261 -270h213z" />
    <glyph glyph-name="Wgrave.small" horiz-adv-x="711" 
d="M427 685l59 -144h-114l-108 144h163zM494 469l19 -234l87 249h170l-216 -484h-145l-21 238l-86 -238h-146l-79 484h167l18 -251l87 236h145z" />
    <glyph glyph-name="Wacute.small" horiz-adv-x="711" 
d="M364 541l99 144h163l-148 -144h-114zM494 469l19 -234l87 249h170l-216 -484h-145l-21 238l-86 -238h-146l-79 484h167l18 -251l87 236h145z" />
    <glyph glyph-name="Ygrave.small" horiz-adv-x="551" 
d="M360 685l59 -144h-114l-108 144h163zM358 0h-164l24 173l-141 311h183l57 -195l110 195h183l-228 -310z" />
    <glyph glyph-name="Sacute.small" horiz-adv-x="466" 
d="M235 541l99 144h163l-148 -144h-114zM301 492q59 0 98.5 -17.5t87.5 -55.5l-60 -102q-34 29 -75.5 41.5t-62.5 12.5q-43 0 -43 -26q0 -15 15 -22l111 -44q94 -37 94 -116q0 -77 -66.5 -122.5t-155.5 -45.5q-65 0 -105 15q-69 27 -106 68l69 107q30 -30 76 -50.5t84 -20.5
q14 0 26.5 7.5t12.5 22.5q0 14 -10 18l-112 46q-96 39 -96 118q0 74 63 120t155 46z" />
    <glyph glyph-name="Racute.small" horiz-adv-x="489" 
d="M210 541l99 144h163l-148 -144h-114zM495 351q0 -92 -98 -131q19 -4 29 -15t16 -37l38 -168h-166l-35 139q-5 26 -27 26h-30l-23 -165h-162l68 484h231q87 0 123 -38t36 -95zM239 283h68q34 0 34 47q0 36 -30 36h-61z" />
    <glyph glyph-name="Lacute.small" horiz-adv-x="415" 
d="M115 541l99 144h163l-148 -144h-114zM268 484l-51 -365h203l-17 -119h-366l68 484h163z" />
    <glyph glyph-name="Cacute.small" horiz-adv-x="465" 
d="M255 541l99 144h163l-148 -144h-114zM48 210q0 117 84 199.5t213 82.5q95 0 176 -45l-55 -102q-72 28 -124 28q-64 0 -97 -47t-33 -106q0 -47 23 -77.5t71 -30.5h4q46 0 130 28l23 -102q-96 -44 -188 -44q-106 0 -166.5 60.5t-60.5 155.5z" />
    <glyph glyph-name="Gdotaccent.small" horiz-adv-x="507" 
d="M279 544l18 130h145l-18 -130h-145zM373 179h-101l16 112h243l-35 -246q-39 -23 -99 -36.5t-104 -13.5q-115 0 -180 61t-65 156q0 117 88.5 198.5t226.5 81.5q98 0 183 -59l-66 -95q-53 36 -128 36q-71 0 -105 -46t-34 -104q0 -46 26 -78.5t77 -32.5q28 0 48 4z" />
    <glyph glyph-name="Edotaccent.small" horiz-adv-x="442" 
d="M240 544l19 130h145l-19 -130h-145zM420 0h-383l68 484h379l-17 -118h-218l-9 -64h202l-16 -117h-202l-9 -67h222z" />
    <glyph glyph-name="Ohungarumlaut.small" horiz-adv-x="538" 
d="M224 520l85 154h122l-121 -154h-86zM372 520l85 154h122l-121 -154h-86zM269 -5q-105 0 -163 54.5t-58 153.5q0 131 80 210t211 79q105 0 162.5 -56t57.5 -155q0 -131 -79.5 -208.5t-210.5 -77.5zM322 375q-49 0 -77.5 -49t-28.5 -115q0 -100 69 -100q49 0 77.5 46
t28.5 113q0 46 -17.5 75.5t-51.5 29.5z" />
    <glyph glyph-name="Uhungarumlaut.small" horiz-adv-x="523" 
d="M193 520l86 154h122l-122 -154h-86zM341 520l86 154h122l-122 -154h-86zM260 -6q-109 0 -159 51.5t-33 173.5l37 265h163l-37 -266q-8 -54 3 -77.5t44 -23.5t50.5 23t25.5 78l37 266h163l-37 -265q-17 -123 -82 -174t-175 -51z" />
    <glyph glyph-name="Uring.small" horiz-adv-x="523" 
d="M260 -9q-109 0 -159 52.5t-33 175.5l37 265h163l-37 -266q-16 -109 46 -109q32 0 50.5 26.5t26.5 82.5l37 266h163l-37 -265q-17 -123 -82 -175.5t-175 -52.5zM337 533q-43 0 -63.5 21.5t-20.5 55.5q0 44 27 75.5t83 31.5q44 0 64.5 -22t20.5 -57q0 -44 -27.5 -74.5
t-83.5 -30.5zM346 599q30 0 30 29q0 22 -22 22q-15 0 -23 -9t-8 -20q0 -22 23 -22z" />
    <glyph glyph-name="Ldot.small" horiz-adv-x="420" 
d="M268 484l-51 -365h203l-17 -119h-366l68 484h163zM299 292l18 130h145l-18 -130h-145z" />
    <glyph glyph-name="Ubreve.small" horiz-adv-x="523" 
d="M330 531q-65 0 -94 41t-20 102h92q-6 -50 34 -50q38 0 49 50h91q-9 -61 -49.5 -102t-102.5 -41zM260 -6q-109 0 -159 51.5t-33 173.5l37 265h163l-37 -266q-8 -54 3 -77.5t44 -23.5t50.5 23t25.5 78l37 266h163l-37 -265q-17 -123 -82 -174t-175 -51z" />
    <glyph glyph-name="Obreve.small" horiz-adv-x="538" 
d="M346 531q-65 0 -94 41t-20 102h92q-6 -50 34 -50q38 0 49 50h91q-9 -61 -49.5 -102t-102.5 -41zM269 -5q-105 0 -163 54.5t-58 153.5q0 131 80 210t211 79q105 0 162.5 -56t57.5 -155q0 -131 -79.5 -208.5t-210.5 -77.5zM322 375q-49 0 -77.5 -49t-28.5 -115
q0 -100 69 -100q49 0 77.5 46t28.5 113q0 46 -17.5 75.5t-51.5 29.5z" />
    <glyph glyph-name="Gbreve.small" horiz-adv-x="507" 
d="M359 531q-65 0 -94 41t-20 102h92q-6 -50 34 -50t49 50h91q-9 -61 -49.5 -102t-102.5 -41zM373 179h-101l16 112h243l-35 -246q-39 -23 -99 -36.5t-104 -13.5q-115 0 -180 61t-65 156q0 117 88.5 198.5t226.5 81.5q98 0 183 -59l-66 -95q-53 36 -128 36q-71 0 -105 -46
t-34 -104q0 -46 26 -78.5t77 -32.5q28 0 48 4z" />
    <glyph glyph-name="Ebreve.small" horiz-adv-x="442" 
d="M300 531q-65 0 -94 41t-20 102h92q-6 -50 34 -50q38 0 49 50h91q-9 -61 -49.5 -102t-102.5 -41zM420 0h-383l68 484h379l-17 -118h-218l-9 -64h202l-16 -117h-202l-9 -67h222z" />
    <glyph glyph-name="Abreve.small" horiz-adv-x="559" 
d="M355 531q-65 0 -94 41t-20 102h92q-6 -50 34 -50q38 0 49 50h91q-9 -61 -49.5 -102t-102.5 -41zM179 0h-170l269 484h139l133 -484h-169l-27 101h-122zM326 329l-51 -116h69z" />
    <glyph glyph-name="Nacute.small" horiz-adv-x="510" 
d="M228 541l99 144h163l-148 -144h-114zM302 0l-70 240l-34 -240h-161l68 484h177l63 -251l35 251h161l-68 -484h-171z" />
    <glyph glyph-name="Zdotaccent.small" horiz-adv-x="476" 
d="M246 544l19 130h145l-19 -130h-145zM444 0h-422l13 96l257 270h-209l17 118h422l-13 -94l-261 -270h213z" />
    <glyph glyph-name="Wdieresis.small" horiz-adv-x="711" 
d="M454 548l17 120h134l-17 -120h-134zM277 548l17 120h134l-17 -120h-134zM494 469l19 -234l87 249h170l-216 -484h-145l-21 238l-86 -238h-146l-79 484h167l18 -251l87 236h145z" />
    <glyph glyph-name="Umacron.small" horiz-adv-x="523" 
d="M221 553l15 108h248l-15 -108h-248zM260 -6q-109 0 -159 51.5t-33 173.5l37 265h163l-37 -266q-8 -54 3 -77.5t44 -23.5t50.5 23t25.5 78l37 266h163l-37 -265q-17 -123 -82 -174t-175 -51z" />
    <glyph glyph-name="Amacron.small" horiz-adv-x="559" 
d="M229 553l15 108h248l-15 -108h-248zM179 0h-170l269 484h139l133 -484h-169l-27 101h-122zM326 329l-51 -116h69z" />
    <glyph glyph-name="Emacron.small" horiz-adv-x="442" 
d="M420 0h-383l68 484h379l-17 -118h-218l-9 -64h202l-16 -117h-202l-9 -67h222zM183 553l15 108h248l-15 -108h-248z" />
    <glyph glyph-name="Omacron.small" horiz-adv-x="542" 
d="M229 553l15 108h248l-15 -108h-248zM275 -5q-105 0 -163 54.5t-58 153.5q0 131 80 210t211 79q105 0 162.5 -56t57.5 -155q0 -131 -79.5 -208.5t-210.5 -77.5zM328 375q-49 0 -77.5 -49t-28.5 -115q0 -100 69 -100q49 0 77.5 46t28.5 113q0 46 -17.5 75.5t-51.5 29.5z
" />
    <glyph glyph-name="lacute.small" horiz-adv-x="236" 
d="M116 541l99 144h163l-148 -144h-114zM37 0l68 484h162l-68 -484h-162z" />
    <glyph glyph-name="Imacron.small" horiz-adv-x="236" 
d="M37 0l68 484h162l-68 -484h-162zM70 553l15 108h248l-15 -108h-248z" />
    <glyph glyph-name="Uogonek.small" horiz-adv-x="523" 
d="M301 -4q-7 -11 -8.5 -21.5t7.5 -18.5t32 -4l31 5l-11 -79q-46 -18 -76 -22q-41 -4 -64 13.5t-23 50.5q0 34 28 76q-86 9 -125 61.5t-24 161.5l37 265h162l-37 -266q-8 -54 3 -77.5t44 -23.5t50.5 23t25.5 78l37 266h164l-37 -265q-15 -111 -69.5 -162.5t-146.5 -60.5z
" />
    <glyph glyph-name="Aogonek.small" horiz-adv-x="559" 
d="M381 0l-27 101h-122l-53 -101h-170l269 484h139l133 -484h-85q-5 -6 -8.5 -14t-5.5 -18t7.5 -15t31.5 -1l31 5l-11 -79q-41 -18 -75 -22q-41 -4 -64.5 13.5t-23.5 50.5q0 22 12 44q9 19 23 36h-1zM330 354l-59 -146h76z" />
    <glyph glyph-name="Eogonek.small" horiz-adv-x="448" 
d="M420 0l-2 -2q-23 -33 -14 -42t43 -4l31 5l-11 -79q-41 -18 -75 -22q-41 -4 -64.5 13.5t-23.5 50.5q0 38 32 80h-299l68 484h379l-17 -118h-218l-9 -64h202l-16 -117h-202l-9 -67h222z" />
    <glyph glyph-name="Hbar.small" horiz-adv-x="508" 
d="M207 553l15 108h248l-15 -108h-248zM334 188h-108l-26 -188h-163l68 484h163l-25 -177h108l25 177h163l-68 -484h-163z" />
    <glyph glyph-name="Scedilla.small" horiz-adv-x="466" 
d="M284 -2q11 -25 11 -57q0 -42 -30 -66t-78 -19q-31 4 -69 22l11 79l29 -5q23 -4 34.5 3.5t10.5 19.5t-2 22q-104 11 -168 81l69 107q30 -30 76 -50.5t84 -20.5q14 0 26.5 7.5t12.5 22.5t-9 18l-112 46q-97 41 -97 118q0 74 63 120t155 46q59 0 98.5 -17.5t87.5 -55.5
l-60 -102q-34 29 -75.5 41.5t-62.5 12.5q-43 0 -43 -26q0 -15 15 -22l111 -44q94 -37 94 -116q0 -69 -52 -111.5t-130 -53.5z" />
    <glyph glyph-name="Tbar.small" horiz-adv-x="446" 
d="M179 553l15 108h248l-15 -108h-248zM488 366h-133l-51 -366h-163l51 366h-132l17 118h428z" />
    <glyph glyph-name="Eng.small" horiz-adv-x="510" 
d="M313 11l-81 232l-34 -243h-161l68 484h177l65 -235l33 235h161l-67 -474q-13 -75 -65 -107t-119 -32h-24q-5 0 -22 0.5t-18 0.5l14 98h45q19 0 28 41z" />
    <glyph glyph-name="Ncommaaccent.small" horiz-adv-x="510" 
d="M65 -186l109 156h159l-156 -156h-112zM302 0l-70 240l-34 -240h-161l68 484h177l63 -251l35 251h161l-68 -484h-171z" />
    <glyph glyph-name="Kcommaaccent.small" horiz-adv-x="499" 
d="M65 -186l109 156h159l-156 -156h-112zM492 0h-190l-81 165l-23 -165h-161l68 484h161l-18 -131l101 131h184l-191 -221z" />
    <glyph glyph-name="Gcommaaccent.small" horiz-adv-x="507" 
d="M97 -186l109 156h159l-156 -156h-112zM373 179h-101l16 112h243l-35 -246q-39 -23 -99 -36.5t-104 -13.5q-115 0 -180 61t-65 156q0 117 88.5 198.5t226.5 81.5q98 0 183 -59l-66 -95q-53 36 -128 36q-71 0 -105 -46t-34 -104q0 -46 26 -78.5t77 -32.5q28 0 48 4z" />
    <glyph glyph-name="Lcommaaccent.small" horiz-adv-x="415" 
d="M36 -186l109 156h159l-156 -156h-112zM268 484l-51 -365h203l-17 -119h-366l68 484h163z" />
    <glyph glyph-name="Rcommaaccent.small" horiz-adv-x="489" 
d="M65 -186l109 156h159l-156 -156h-112zM495 351q0 -92 -98 -131q19 -4 29 -15t16 -37l38 -168h-166l-35 139q-5 26 -27 26h-30l-23 -165h-162l68 484h231q87 0 123 -38t36 -95zM239 283h68q34 0 34 47q0 36 -30 36h-61z" />
    <glyph glyph-name="Dcroat.small" horiz-adv-x="518" 
d="M184 553l15 108h248l-15 -108h-248zM236 0h-199l68 484h199q110 0 170 -51t60 -151q0 -137 -79.5 -209.5t-218.5 -72.5zM215 118h41q49 0 82 38t33 113q0 97 -84 97h-38z" />
    <glyph glyph-name="Aringacute.small" horiz-adv-x="559" 
d="M179 0h-170l266 479q-16 19 -16 52q0 44 27.5 75.5t83.5 31.5q44 0 64.5 -22t20.5 -57q0 -50 -37 -81l132 -478h-169l-27 101h-122zM305 661l99 144h163l-148 -144h-114zM326 329l-51 -116h69zM353 520q15 0 22.5 9t7.5 20q0 22 -23 22q-15 0 -23 -9t-8 -20q0 -22 24 -22
z" />
    <glyph glyph-name="AEacute.small" horiz-adv-x="701" 
d="M329 541l99 144h163l-148 -144h-114zM355 368l-83 -154h61zM468 118h228l-17 -118h-376l14 98h-83l-55 -98h-170l311 484h423l-17 -118h-224l-9 -64h208l-16 -117h-208z" />
    <glyph glyph-name="IJ.small" horiz-adv-x="583" 
d="M37 0l68 484h162l-68 -484h-162zM228 37l50 92q37 -24 100 -24q23 0 29 45l47 334h160l-48 -339q-20 -150 -185 -150q-70 0 -153 42z" />
    <glyph glyph-name="Oslashacute.small" horiz-adv-x="538" 
d="M264 541l99 144h163l-148 -144h-114zM215 204l132 165q-17 6 -25 6q-42 0 -68.5 -37.5t-35.5 -95.5q-3 -12 -3 -38zM25 -36l73 91q-51 51 -51 146q0 133 80 212t211 79q54 0 94 -15l29 36h122l-70 -89q46 -52 46 -143q0 -132 -80 -211t-211 -79q-48 0 -89 13l-33 -40
h-121zM391 271l-127 -161q9 -3 20 -3q41 0 68 37.5t36 97.5q0 3 1.5 13t1.5 16z" />
    <glyph glyph-name="Tcommaaccent.small" horiz-adv-x="446" 
d="M34 -186l109 156h159l-156 -156h-112zM489 366h-133l-52 -366h-163l52 366h-132l16 118h428z" />
    <glyph glyph-name="Scommaaccent.small" horiz-adv-x="466" 
d="M301 492q59 0 98.5 -17.5t87.5 -55.5l-60 -102q-34 29 -75.5 41.5t-62.5 12.5q-43 0 -43 -26q0 -15 15 -22l111 -44q94 -37 94 -116q0 -77 -66.5 -122.5t-155.5 -45.5q-65 0 -105 15q-69 27 -106 68l69 107q30 -30 76 -50.5t84 -20.5q14 0 26.5 7.5t12.5 22.5
q0 14 -10 18l-112 46q-96 39 -96 118q0 74 63 120t155 46zM34 -186l109 156h159l-156 -156h-112z" />
    <glyph glyph-name="parenleft.small" horiz-adv-x="345" 
d="M79 157q21 140 103.5 233.5t193.5 93.5l-12 -88q-29 0 -68.5 -36t-71 -103t-31.5 -139q0 -82 33.5 -145t68.5 -63l-12 -87q-110 0 -166 96t-38 238z" />
    <glyph glyph-name="parenright.small" horiz-adv-x="345" 
d="M310 157q-21 -142 -104.5 -238t-193.5 -96l12 87q48 0 110 88.5t62 194.5q0 81 -34 142t-69 61l12 88q111 0 167 -93.5t38 -233.5z" />
    <glyph glyph-name="braceleft.small" horiz-adv-x="338" 
d="M280 382l-19 -134q-4 -45 -68 -89l-3 -2l2 -2q20 -17 33.5 -42t10.5 -48l-19 -136q-3 -22 13 -22h58l-12 -81h-90q-36 0 -65 27t-23 65l20 139q9 61 -44 67l9 66q33 3 45.5 20.5t17.5 47.5l19 135q6 39 42 65t72 26h90l-12 -81h-58q-14 0 -19 -21z" />
    <glyph glyph-name="braceright.small" horiz-adv-x="338" 
d="M146 248l19 134q5 21 -13 21h-58l11 81h90q37 0 66 -26t23 -65l-19 -135q-4 -29 4 -47t39 -21l-9 -66q-33 -3 -45 -20t-18 -47l-19 -139q-6 -38 -41.5 -65t-72.5 -27h-90l11 81h58q16 0 19 22l20 136q7 46 68 90l3 2l-2 2q-50 45 -44 89z" />
    <glyph glyph-name="bracketleft.small" horiz-adv-x="305" 
d="M323 387h-82l-65 -464h82l-14 -97h-211l92 658h211z" />
    <glyph glyph-name="bracketright.small" horiz-adv-x="305" 
d="M174 387h-82l13 97h211l-92 -658h-211l14 97h82z" />
    <glyph glyph-name="ampersand.small" horiz-adv-x="463" 
d="M173 136q0 -21 13 -35t35 -14q24 0 53 29l-62 75q-39 -21 -39 -55zM234 359q-3 -14 2 -30t14 -22q29 19 34 52q2 12 -3.5 21.5t-16.5 9.5q-24 0 -30 -31zM331 243l24 -27q17 15 22 53h96q-10 -91 -54 -129q24 -27 33.5 -57.5t2.5 -82.5h-113q3 22 1 41
q-21 -22 -57.5 -35.5t-77.5 -13.5q-81 0 -122 37t-41 94q0 93 91 140q-32 41 -21 100q11 57 59 88.5t103 31.5t94.5 -32t33.5 -87q-7 -70 -74 -121z" />
    <glyph glyph-name="asterisk.small" horiz-adv-x="382" 
d="M316 598l71 41l37 -77l-83 -38q71 -34 73 -35l-59 -80l-59 42l-8 -76h-86l15 76q-63 -34 -75 -42l-36 80l83 36q-2 1 -6.5 2.5t-6.5 3.5l-60 29l58 79l62 -41l3 37q2 30 5 39h86z" />
    <glyph glyph-name="at.small" horiz-adv-x="590" 
d="M517 73l23 -41q-45 -41 -111 -65t-128 -24q-111 0 -178.5 66.5t-67.5 172.5q0 135 94 221.5t223 86.5q116 0 173.5 -60t57.5 -139q0 -110 -64.5 -169.5t-136.5 -59.5q-42 0 -57 43q-42 -29 -76 -29q-97 0 -97 89q0 76 53 130.5t110 54.5q35 0 48 -35l11 30h78l-59 -179
q-6 -12 2.5 -22.5t21.5 -10.5q8 0 21.5 9t29 26t26 48t10.5 68q0 69 -47.5 105t-113.5 36q-96 0 -162.5 -67.5t-66.5 -170.5q0 -82 47 -133t131 -51q92 0 205 70zM341 283q-33 0 -58.5 -34t-25.5 -68q0 -39 23 -39q14 0 31.5 11t22.5 29l29 79q3 11 -6 16.5t-16 5.5z" />
    <glyph glyph-name="exclam.small" horiz-adv-x="227" 
d="M72 147l33 337h153l-61 -337h-125zM39 0l15 109h149l-15 -109h-149z" />
    <glyph glyph-name="question.small" horiz-adv-x="417" 
d="M264 305q24 20 24 42q0 15 -13 24t-27 9q-46 0 -91 -52l-69 60q24 37 72.5 70t118.5 33q73 0 119 -34t46 -97q0 -91 -118 -161q-3 -3 -9 -7t-8.5 -6.5t-6.5 -7.5t-6 -12.5t-3 -18.5h-143q4 32 7 48t13 30.5t17 20t32 24.5t45 35zM126 0l16 109h149l-16 -109h-149z" />
    <glyph glyph-name="exclamdown.small" horiz-adv-x="227" 
d="M19 -130l61 337h125l-33 -337h-153zM74 245l15 109h149l-15 -109h-149z" />
    <glyph glyph-name="questiondown.small" horiz-adv-x="356" 
d="M203 49q-24 -20 -24 -42q0 -15 13 -24t27 -9q45 0 92 52l68 -60q-24 -37 -72.5 -70t-118.5 -33q-73 0 -119 34t-46 97q0 87 118 161q3 3 9 7t8.5 6.5t6.5 7.5t6 12.5t3 18.5h143q-4 -32 -7 -47.5t-13.5 -31t-16 -20.5t-32 -24.5t-45.5 -34.5zM341 354l-16 -109h-149
l16 109h149z" />
    <glyph glyph-name="emdash.small" horiz-adv-x="569" 
d="M72 246h495l-17 -118h-495z" />
    <glyph glyph-name="endash.small" horiz-adv-x="462" 
d="M72 246h388l-17 -118h-388z" />
    <glyph glyph-name="guillemotleft.small" horiz-adv-x="451" 
d="M184 233l73 -169h-115l-72 169l120 171h115zM350 233l73 -169h-115l-72 169l120 171h115z" />
    <glyph glyph-name="guillemotright.small" horiz-adv-x="451" 
d="M212 64l121 169l-73 171h115l72 -171l-120 -169h-115zM46 64l121 169l-73 171h115l72 -171l-120 -169h-115z" />
    <glyph glyph-name="guilsinglleft.small" horiz-adv-x="285" 
d="M184 233l73 -169h-115l-72 169l120 171h115z" />
    <glyph glyph-name="guilsinglright.small" horiz-adv-x="285" 
d="M46 64l121 169l-73 171h115l72 -171l-120 -169h-115z" />
    <glyph glyph-name="periodcentered.small" horiz-adv-x="217" 
d="M49 155l18 125h163l-18 -125h-163z" />
    <glyph glyph-name="iacute.small" horiz-adv-x="254" 
d="M37 0l68 484h180l-68 -484h-180zM115 554l101 154h173l-144 -154h-130z" />
    </font>
</defs>
</svg>
