<?xml version="1.0" standalone="no"?>
<!DOCTYPE svg PUBLIC "-//W3C//DTD SVG 1.1//EN" "http://www.w3.org/Graphics/SVG/1.1/DTD/svg11.dtd" >
<svg>
<metadata>
Created by FontForge 20120731 at Tue Dec 15 21:05:30 2015
 By ,,,
Copyright (c) 2013 Parachute, www.parachute.gr.  All rights reserved.
</metadata>
<defs>
<font id="PFBagueSansPro-Black" horiz-adv-x="0" >
  <font-face 
    font-family="PF Bague Sans Pro"
    font-weight="900"
    font-stretch="normal"
    units-per-em="1000"
    panose-1="2 0 5 3 0 0 0 2 0 3"
    ascent="800"
    descent="-200"
    x-height="446"
    cap-height="659"
    bbox="-485 -343 1754 955"
    underline-thickness="80"
    underline-position="-40"
    unicode-range="U+0020-FB06"
  />
<missing-glyph horiz-adv-x="460" 
d="M454 0h-449v699h449v-699zM344 72l-115 206l-115 -206h230zM344 626h-231l116 -206zM381 543l-108 -194l108 -195v389zM76 154l110 195l-110 195v-390z" />
    <glyph glyph-name="fj" unicode="fj" horiz-adv-x="579" 
d="M279 -233l-52 133q74 6 100 38q27 32 27 107v271h-105v-316h-174v316h-70v116l70 15v77q0 110 63 166t180 56q90 0 166 -26v-141q-68 31 -133 31q-54 0 -78 -24t-24 -75v-65h281v-400q0 -132 -65.5 -201.5t-185.5 -77.5z" />
    <glyph glyph-name="ffj" unicode="ffj" horiz-adv-x="874" 
d="M646 317h-106v-317h-175v316h-116v-316h-174v316h-70v116l70 15v57q0 108 59 166t167 58q77 0 141 -26q61 44 168 44q94 0 166 -26v-141q-69 31 -133 31q-54 0 -78.5 -24t-24.5 -75v-64h282v-407q0 -128 -66 -196.5t-186 -75.5l-52 133q76 6 102 41t26 121v254zM366 447
v77q0 37 7 61q-27 9 -47 9q-77 0 -77 -90v-57h117z" />
    <glyph glyph-name="f_t" unicode="ft" horiz-adv-x="681" 
d="M359 447l159 150h23v-151h115v-129h-115v-127q0 -67 54 -67q32 0 72 22v-125q-53 -33 -131 -33q-169 0 -169 182v147h-118v-316h-174v316h-70v116l70 15v47q0 234 224 234q51 0 109 -15v-133q-39 14 -73 14q-86 0 -86 -94v-53h110z" />
    <glyph glyph-name="ff" unicode="ff" horiz-adv-x="665" 
d="M5 432l70 15v58q0 107 60 165t168 58q86 0 157 -34q52 33 135 33q48 0 106 -14v-134q-36 14 -72 14q-87 0 -87 -93v-53h123v-131h-123v-316h-174v316h-119v-316h-174v316h-70v116zM249 447h119v70q0 37 9 67q-29 8 -47 8q-81 0 -81 -88v-57z" />
    <glyph glyph-name="fi" unicode="fi" horiz-adv-x="578" 
d="M531 446v-446h-177v317h-105v-317h-174v317h-70v116l70 14v78q0 221 244 221q94 0 166 -26v-141q-69 31 -133 31q-54 0 -78.5 -23.5t-24.5 -74.5v-66h282z" />
    <glyph glyph-name="fl" unicode="fl" horiz-adv-x="593" 
d="M249 446h83v-130h-83v-316h-174v316h-70v116l70 15v74q0 110 60.5 165.5t173.5 55.5q123 0 236 -25v-717h-176v601q-10 3 -25 3q-50 0 -72.5 -23.5t-22.5 -72.5v-62z" />
    <glyph glyph-name="ffi" unicode="ffi" horiz-adv-x="876" 
d="M540 511v-64q80 0 144 -1h143v-446h-177v316h-110v-316h-175v316h-116v-316h-174v316h-70v116l70 15v42q0 117 57.5 178t168.5 61q77 0 141 -26q59 43 174 43q94 0 160 -25v-141q-69 31 -133 31q-54 0 -78.5 -24t-24.5 -75zM249 447h117v77q0 37 7 61q-27 9 -47 9
q-77 0 -77 -90v-57z" />
    <glyph glyph-name="ffl" unicode="ffl" horiz-adv-x="885" 
d="M539 446h83v-130h-83v-316h-175v316h-115v-316h-174v316h-70v116l70 15v46q0 115 58 175t168 60q70 0 142 -27q73 47 189 47q109 0 205 -25v-723h-176v601q-9 3 -26 3q-50 0 -73 -23.5t-23 -72.5v-62zM249 447h115v74q0 36 8 65q-24 8 -44 8q-38 0 -58.5 -23.5
t-20.5 -66.5v-57z" />
    <glyph glyph-name="longs_t" unicode="&#x17f;t" horiz-adv-x="686" 
d="M249 500v-500h-174v316h-70v116l70 15v43q0 238 225 238q61 0 121 -20v-134q-46 20 -86 20q-86 0 -86 -94zM305 410l217 187h24v-151h115v-128h-115v-128q0 -65 53 -65q32 0 72 22v-127q-53 -33 -131 -33q-87 0 -128 46t-41 144v141h-66v92z" />
    <glyph glyph-name=".notdef" horiz-adv-x="460" 
d="M454 0h-449v699h449v-699zM344 72l-115 206l-115 -206h230zM344 626h-231l116 -206zM381 543l-108 -194l108 -195v389zM76 154l110 195l-110 195v-390z" />
    <glyph glyph-name=".null" 
 />
    <glyph glyph-name="nonmarkingreturn" horiz-adv-x="333" 
 />
    <glyph glyph-name="space" unicode=" " horiz-adv-x="240" 
 />
    <glyph glyph-name="exclam" unicode="!" horiz-adv-x="339" 
d="M258 694l-16 -488h-145q-2 87 -17 488h178zM255 72q0 -34 -25 -58.5t-59 -24.5q-36 0 -62 24.5t-26 58.5q0 36 26 61.5t62 25.5q34 0 59 -25.5t25 -61.5z" />
    <glyph glyph-name="quotedbl" unicode="&#x22;" horiz-adv-x="391" 
d="M173 684v-251h-124v251h124zM342 684v-251h-124v251h124z" />
    <glyph glyph-name="numbersign" unicode="#" horiz-adv-x="580" 
d="M355 460l37 167h95l-36 -167h89v-81h-106l-22 -96h94v-83h-111l-44 -200h-97q33 147 44 200h-87l-42 -200h-99l44 200h-76v83h94q6 30 22 96h-85v81h102l37 167h97l-36 -167h86zM337 379h-87l-20 -96h87z" />
    <glyph glyph-name="dollar" unicode="$" horiz-adv-x="588" 
d="M349 -111h-95v110q-111 9 -185 52v154q39 -30 110 -54q74 -23 117 -23q77 0 77 57q0 47 -105 91q-39 16 -67.5 31t-60.5 39t-49 58t-16 75q0 69 47 118.5t132 61.5v117h95v-116q83 -9 152 -39v-139q-90 56 -188 56q-73 0 -73 -56q0 -21 27 -40.5t79 -43.5
q197 -80 196 -206q0 -67 -48 -124q-49 -56 -145 -68v-111z" />
    <glyph glyph-name="percent" unicode="%" horiz-adv-x="841" 
d="M594 685h103l-463 -716h-103zM390 521q0 -70 -49 -119t-128 -49q-81 0 -129.5 46.5t-48.5 121.5q0 71 49 119q50 48 129 48q80 0 128 -48q49 -48 49 -119zM158 521q0 -29 15 -46.5t41 -17.5q25 0 40.5 18t15.5 46q0 27 -15.5 44.5t-40.5 17.5t-40.5 -17.5t-15.5 -44.5z
M623 -13q-81 0 -129.5 46t-48.5 121q0 71 49 119q49 49 129 49t128 -48q49 -48 49 -119t-49 -120q-49 -48 -128 -48zM624 217q-24 0 -40 -18.5t-16 -43.5q0 -30 15 -47.5t41 -17.5t41.5 18t15.5 47q0 26 -16.5 44t-40.5 18z" />
    <glyph glyph-name="ampersand" unicode="&#x26;" horiz-adv-x="730" 
d="M730 19l-115 -90q-83 47 -150 95q-86 -53 -185 -53q-112 0 -173 50t-61 140q0 54 33 107.5t93 85.5q-28 63 -28 116q0 96 59.5 149t162.5 53q98 0 174 -43l-12 -126q-90 38 -139 38q-38 0 -59.5 -19.5t-21.5 -55.5q0 -50 43 -118.5t120 -141.5q54 74 87 189l113 -77
q-35 -116 -99 -198q80 -62 158 -101zM301 94q32 0 58 16q-71 64 -117 129q-35 -27 -35 -71q3 -34 28.5 -54t65.5 -20z" />
    <glyph glyph-name="quotesingle" unicode="'" horiz-adv-x="229" 
d="M177 684v-251h-125v251h125z" />
    <glyph glyph-name="parenleft" unicode="(" horiz-adv-x="326" 
d="M223 735l96 -40q-120 -193 -120 -398q0 -207 121 -391l-98 -47q-83 92 -126 208t-43 229t44 231q45 116 126 208z" />
    <glyph glyph-name="parenright" unicode=")" horiz-adv-x="326" 
d="M18 695l96 40q83 -92 126 -209q45 -117 45 -230q0 -111 -44 -229q-43 -116 -126 -208q-11 5 -97 47q120 184 120 391q0 205 -120 398z" />
    <glyph glyph-name="asterisk" unicode="*" horiz-adv-x="459" 
d="M298 513l94 -35l-52 -91l-76 65l14 -102h-103l14 101l-78 -65l-52 92l97 33l-97 35l52 93l77 -67l-14 102h104l-15 -101l77 64l52 -91z" />
    <glyph glyph-name="plus" unicode="+" horiz-adv-x="588" 
d="M505 240h-160v-165h-103v165h-161v99h161v163h103v-163h160v-99z" />
    <glyph glyph-name="comma" unicode="," horiz-adv-x="273" 
d="M48 71q0 37 25 62t60 25q38 0 61.5 -25.5t23.5 -64.5q0 -52 -36 -120q-37 -70 -81 -121l-62 9l53 161q-44 20 -44 74z" />
    <glyph glyph-name="hyphen" unicode="-" horiz-adv-x="373" 
d="M323 193h-273v108h273v-108z" />
    <glyph glyph-name="period" unicode="." horiz-adv-x="283" 
d="M223 73q0 -34 -25.5 -59t-58.5 -25q-35 0 -60.5 25t-25.5 59q0 36 25.5 61.5t60.5 25.5q34 0 59 -25.5t25 -61.5z" />
    <glyph glyph-name="slash" unicode="/" horiz-adv-x="367" 
d="M379 680l-264 -772h-123l261 772h126z" />
    <glyph glyph-name="zero" unicode="0" horiz-adv-x="588" 
d="M295 672q74 0 129.5 -29t86.5 -81q57 -95 57 -231q0 -66 -14.5 -124.5t-45.5 -108.5t-86 -79.5t-129 -29.5q-150 0 -215 105q-58 97 -58 237q0 52 8.5 99.5t28.5 92.5t51 77.5t79 52t108 19.5zM295 531q-97 0 -97 -198q0 -203 97 -203q94 0 94 203q0 198 -94 198z" />
    <glyph glyph-name="one" unicode="1" horiz-adv-x="588" 
d="M410 670h21v-670h-184v434l-154 -63v158z" />
    <glyph glyph-name="two" unicode="2" horiz-adv-x="588" 
d="M541 0h-486l-19 15q4 117 59 188q48 62 124 112l29 19l31 21q2 1 5.5 4t9 7.5t10.5 7.5q20 15 42 44q18 23 18 54q0 32 -21.5 50.5t-53.5 18.5q-34 0 -56 -23t-22 -61q0 -19 7 -48l-157 29q-5 28 -5 45q0 86 72 140q71 55 169 55q102 0 172 -53q70 -52 70 -149
q0 -107 -128 -196q-22 -15 -50 -34q-45 -30 -54 -38q-52 -40 -64 -80h298v-128z" />
    <glyph glyph-name="three" unicode="3" horiz-adv-x="588" 
d="M171 324l-16 20l136 184l-1 2v2h-234v127h483v-21l-167 -223q78 -21 118 -73t40 -125q0 -98 -76 -162q-74 -64 -196 -64t-216 48v149q74 -63 183 -63q63 0 100.5 28.5t37.5 76.5q0 50 -37.5 75.5t-96.5 25.5q-29 0 -58 -7z" />
    <glyph glyph-name="four" unicode="4" horiz-adv-x="588" 
d="M342 323l61 113h113v-173h59v-127h-59v-136h-174v136h-338v17l264 506h183l-216 -396h107v60z" />
    <glyph glyph-name="five" unicode="5" horiz-adv-x="588" 
d="M310 437q101 0 170 -57q69 -56 69 -160q0 -100 -75 -165q-74 -64 -197 -64q-121 0 -215 48v150q30 -29 81 -46.5t102 -17.5q63 0 100 28.5t37 75.5q0 49 -35.5 74t-97.5 25q-77 0 -145 -30l-19 12l45 350h386v-127h-262l-15 -105q31 9 71 9z" />
    <glyph glyph-name="six" unicode="6" horiz-adv-x="588" 
d="M118 442l134 217h191l-156 -240q0 -1 0.5 -3l0.5 -2q29 6 56 6q98 0 155 -59q58 -58 58 -148q0 -101 -72 -162q-70 -61 -189 -61q-117 0 -191 59q-73 60 -73 167q0 42 15 85q16 48 28 68zM296 309q-39 0 -65 -26t-26 -64q0 -40 25 -65t66 -25t66 25t25 65q0 37 -26 63.5
t-65 26.5z" />
    <glyph glyph-name="seven" unicode="7" horiz-adv-x="588" 
d="M552 640l-285 -640h-182l236 531h-262v128h493v-19z" />
    <glyph glyph-name="eight" unicode="8" horiz-adv-x="588" 
d="M374 464q0 32 -21 52t-55 20q-32 0 -53 -20.5t-21 -52.5q0 -31 20.5 -50.5t54.5 -19.5q33 0 54 20t21 51zM387 214q0 39 -24.5 63.5t-65.5 24.5q-40 0 -65 -25t-25 -63q0 -37 25 -62t65 -25t65 25t25 62zM462 354v-5q95 -47 95 -155q0 -93 -70 -148q-71 -56 -190 -56
q-124 0 -194 55t-70 147q0 49 24.5 91t68.5 63l1 4q-69 40 -69 129q0 86 68 139q69 54 171 54q105 0 170 -53t65 -138q0 -37 -19 -72t-51 -55z" />
    <glyph glyph-name="nine" unicode="9" horiz-adv-x="588" 
d="M337 0h-191l158 242q0 1 -1 3q-1 1 -1 2q-28 -6 -56 -6q-97 0 -155 58q-57 59 -57 149q0 100 71 162q73 62 190 62t190 -60t73 -167q0 -72 -47 -160q-25 -48 -174 -285zM295 353q39 0 64.5 26t25.5 63q0 40 -24.5 65.5t-65.5 25.5t-66 -25.5t-25 -65.5q0 -37 26 -63
t65 -26z" />
    <glyph glyph-name="colon" unicode=":" horiz-adv-x="290" 
d="M225 72q0 -34 -24.5 -58.5t-58.5 -24.5q-35 0 -60.5 24.5t-25.5 58.5q0 36 25.5 61t60.5 25q34 0 58.5 -25t24.5 -61zM142 257q-35 0 -60 24.5t-25 59.5t25 59.5t60 24.5q34 0 58.5 -25t24.5 -59t-24.5 -59t-58.5 -25z" />
    <glyph glyph-name="semicolon" unicode=";" horiz-adv-x="293" 
d="M228 341q0 -34 -25 -59t-59 -25q-35 0 -60 25t-25 59t25 59t60 25q34 0 59 -24.5t25 -59.5zM56 71q0 37 25 62t60 25q38 0 61.5 -25.5t23.5 -64.5q0 -52 -36 -120q-37 -70 -81 -121l-62 9l53 161q-44 20 -44 74z" />
    <glyph glyph-name="less" unicode="&#x3c;" horiz-adv-x="588" 
d="M272 285l234 -130v-126l-424 246v19l424 248v-128z" />
    <glyph glyph-name="equal" unicode="=" horiz-adv-x="588" 
d="M501 428v-97h-415v97h415zM501 251v-96h-415v96h415z" />
    <glyph glyph-name="greater" unicode="&#x3e;" horiz-adv-x="588" 
d="M506 275l-424 -246v126l233 132l-233 127v128l424 -248v-19z" />
    <glyph glyph-name="question" unicode="?" horiz-adv-x="537" 
d="M298 486q0 28 -21.5 45t-59.5 17q-81 0 -169 -49v152q99 41 200 41q120 0 182 -54t62 -133q0 -37 -20.5 -72t-50 -62t-59 -51t-50 -48t-20.5 -44q0 -13 7 -23l-137 -23q-19 37 -19 67q0 29 16 57t38.5 50t45.5 42.5t39 43t16 44.5zM326 68q0 -34 -24.5 -58.5t-58.5 -24.5
q-39 0 -63 23.5t-24 59.5t24.5 60.5t62.5 24.5q36 0 59.5 -24.5t23.5 -60.5z" />
    <glyph glyph-name="at" unicode="@" horiz-adv-x="943" 
d="M502 268v16h-31q-59 0 -59 -43q0 -33 39 -33q24 0 37.5 16.5t13.5 43.5zM386 118q-53 0 -83.5 28.5t-30.5 74.5q0 57 46 90t127 33h56v8q0 48 -70 48q-54 0 -109 -29v104q63 26 148 26q173 0 173 -163v-73q0 -30 10 -44.5t34 -14.5q34 0 55 31.5t21 85.5q0 115 -72 184
q-71 70 -201 70q-140 0 -226 -81q-85 -79 -85 -205q0 -131 76 -208q77 -77 215 -77q107 0 203 51v-105q-88 -50 -204 -50q-189 0 -296 108q-107 109 -107 277q0 169 120 281q122 113 303 113q175 0 281 -97q106 -96 106 -249q0 -95 -55 -162q-54 -66 -157 -66
q-47 0 -82 21.5t-44 55.5q-1 1 -4 1q-49 -67 -148 -67z" />
    <glyph glyph-name="A" unicode="A" horiz-adv-x="688" 
d="M681 0h-192l-32 74h-229l-33 -74h-188l329 675h23zM346 331h-4l-58 -131h118z" />
    <glyph glyph-name="B" unicode="B" horiz-adv-x="657" 
d="M509 359v-4q53 -23 80.5 -65.5t27.5 -94.5q0 -79 -59 -138q-58 -57 -151 -57h-348v660h326q87 0 139 -48q53 -48 53 -120q0 -83 -68 -133zM430 213q0 29 -21.5 46.5t-58.5 17.5h-100v-130h105q75 0 75 66zM330 517h-81v-114h79q27 0 46.5 14.5t19.5 42.5q0 25 -17.5 41
t-46.5 16z" />
    <glyph glyph-name="C" unicode="C" horiz-adv-x="627" 
d="M590 183l1 -163q-83 -34 -190 -34q-169 0 -266 95q-95 97 -95 246q0 145 99 245q99 101 267 101q97 0 167 -26v-160q-66 29 -139 29q-85 0 -141 -49q-56 -50 -56 -141q0 -88 50.5 -135.5t136.5 -47.5q82 0 166 40z" />
    <glyph glyph-name="D" unicode="D" horiz-adv-x="706" 
d="M473 333q0 86 -40 132.5t-117 46.5h-63v-364h40q89 0 134.5 44t45.5 141zM327 0h-269v659h253q171 0 262 -93q92 -92 92 -234q0 -67 -21 -126t-62 -105.5t-106.5 -73.5t-148.5 -27z" />
    <glyph glyph-name="E" unicode="E" horiz-adv-x="575" 
d="M254 148h283v-148h-479v659h465v-147h-269v-101h234v-141h-234v-122z" />
    <glyph glyph-name="F" unicode="F" horiz-adv-x="545" 
d="M254 246v-246h-196v659h471v-147h-275v-125h233v-141h-233z" />
    <glyph glyph-name="G" unicode="G" horiz-adv-x="687" 
d="M39 325q0 148 100 248q101 101 271 101q114 0 195 -36v-166q-76 43 -177 43q-87 0 -138.5 -52t-51.5 -142q0 -83 42 -131.5t126 -48.5q30 0 59 8v199h170v-323q-100 -38 -240 -38q-173 0 -264 91q-92 92 -92 247z" />
    <glyph glyph-name="H" unicode="H" horiz-adv-x="708" 
d="M649 659v-659h-197v266h-198v-266h-196v659h196v-244h198v244h197z" />
    <glyph glyph-name="I" unicode="I" horiz-adv-x="319" 
d="M257 659v-659h-196v659h196z" />
    <glyph glyph-name="J" unicode="J" horiz-adv-x="524" 
d="M266 283v376h199v-360q0 -136 -52 -217q-61 -95 -225 -95q-101 0 -171 37v158q71 -40 134 -40q61 0 88 35t27 106z" />
    <glyph glyph-name="K" unicode="K" horiz-adv-x="678" 
d="M58 659h197v-298l197 298h209l-223 -318l234 -341h-216l-201 320v-320h-197v659z" />
    <glyph glyph-name="L" unicode="L" horiz-adv-x="542" 
d="M59 0v659h196v-511h276v-148h-472z" />
    <glyph glyph-name="M" unicode="M" horiz-adv-x="815" 
d="M563 273l-142 -152h-24l-147 152h-3v-273h-189v674h23l328 -338l326 338h21v-674h-190v136q1 57 1 137h-4z" />
    <glyph glyph-name="N" unicode="N" horiz-adv-x="721" 
d="M254 322v-322h-196v676h23l381 -325h4v308h196v-674h-21l-384 337h-3z" />
    <glyph glyph-name="O" unicode="O" horiz-adv-x="805" 
d="M401 -12q-163 0 -263 97q-99 97 -99 245q0 145 102 244q103 99 262 99t260 -99q101 -98 101 -244q0 -148 -102 -245q-101 -97 -261 -97zM404 513q-75 0 -122 -53t-47 -130q0 -82 46 -134q47 -53 123 -53t121 53q46 52 46 134q0 78 -45 130q-45 53 -122 53z" />
    <glyph glyph-name="P" unicode="P" horiz-adv-x="604" 
d="M254 0h-196v659h271q126 0 192 -66q67 -64 67 -158q0 -96 -67 -160q-67 -65 -180 -65h-87v-210zM302 516h-49v-166h29q113 0 113 82q0 37 -24.5 60.5t-68.5 23.5z" />
    <glyph glyph-name="Q" unicode="Q" horiz-adv-x="812" 
d="M408 513q-75 0 -122 -53t-47 -130q0 -83 46 -135t123 -52q76 0 121 53q46 52 46 134q0 78 -45 130q-45 53 -122 53zM406 673q160 0 261 -99q101 -98 101 -244q0 -96 -48.5 -176t-133.5 -124l176 -48l-60 -149l-394 166q-122 27 -194 117q-71 92 -71 215q0 145 102 243
q102 99 261 99z" />
    <glyph glyph-name="R" unicode="R" horiz-adv-x="657" 
d="M58 659h288q108 0 182 -60q74 -59 74 -163q0 -123 -103 -193l149 -243h-212l-140 263v16q55 11 84 46.5t29 78.5q0 48 -27 78t-74 30h-55v-512h-195v659z" />
    <glyph glyph-name="S" unicode="S" horiz-adv-x="566" 
d="M31 40v169q41 -32 106 -54q67 -21 114 -21q87 0 87 52q0 47 -106 92q-40 17 -68 32t-61 40t-50 59t-16 75q0 80 63 136q65 56 180 56q111 0 212 -43v-157q-31 20 -87 37q-54 17 -93 17q-79 0 -79 -46q0 -17 22.5 -33t55.5 -28t72.5 -32.5t72.5 -44.5t55.5 -65.5
t22.5 -94.5q0 -80 -64 -140t-194 -60q-149 0 -245 54z" />
    <glyph glyph-name="T" unicode="T" horiz-adv-x="578" 
d="M566 660v-148h-180v-512h-196v512h-179v148h555z" />
    <glyph glyph-name="U" unicode="U" horiz-adv-x="714" 
d="M459 260v399h196v-385q0 -129 -76 -208q-77 -78 -222 -78q-147 0 -223 74.5t-76 205.5v391h197v-393q0 -51 27.5 -85t75.5 -34q47 0 74 32.5t27 80.5z" />
    <glyph glyph-name="V" unicode="V" horiz-adv-x="678" 
d="M671 659l-315 -676h-25l-325 676h210l123 -295h4l124 295h204z" />
    <glyph glyph-name="W" unicode="W" horiz-adv-x="998" 
d="M672 -17l-174 357l-173 -357h-24l-295 676h210l123 -285h4l143 296h23l149 -296h4q23 59 60 142q49 112 61 143h208l-295 -676h-24z" />
    <glyph glyph-name="X" unicode="X" horiz-adv-x="704" 
d="M16 659h211l124 -275l125 275h211l-160 -318l170 -341h-211l-135 298l-134 -298h-211l170 341z" />
    <glyph glyph-name="Y" unicode="Y" horiz-adv-x="648" 
d="M217 659l110 -255h4q10 32 44 114l56 141h210l-219 -415v-244h-196v244l-220 415h211z" />
    <glyph glyph-name="Z" unicode="Z" horiz-adv-x="616" 
d="M58 659h540v-17l-288 -495h273v-147h-567v18l290 494h-248v147z" />
    <glyph glyph-name="bracketleft" unicode="[" horiz-adv-x="306" 
d="M273 -133h-216v857h216v-105h-69v-653h69v-99z" />
    <glyph glyph-name="backslash" unicode="\" horiz-adv-x="367" 
d="M116 680l263 -772h-125l-262 772h124z" />
    <glyph glyph-name="bracketright" unicode="]" horiz-adv-x="306" 
d="M39 724h215v-857h-215v99h68v653h-68v105z" />
    <glyph glyph-name="asciicircum" unicode="^" horiz-adv-x="521" 
d="M267 645l227 -341h-128l-110 175l-111 -175h-127l226 341h23z" />
    <glyph glyph-name="underscore" unicode="_" horiz-adv-x="488" 
d="M487 -150h-486v87h486v-87z" />
    <glyph glyph-name="grave" unicode="`" horiz-adv-x="527" 
d="M226 703l126 -194h-93l-147 137z" />
    <glyph glyph-name="a" unicode="a" horiz-adv-x="533" 
d="M331 0l-10 47h-3q-54 -59 -152 -59q-65 0 -102.5 34.5t-37.5 92.5q0 68 54.5 110.5t155.5 42.5h73v8q0 62 -88 62q-25 0 -65 -10t-69 -25v126q84 32 182 32q215 0 215 -202v-259h-153zM193 139q0 -44 48 -44q32 0 51 23t19 59v16h-47q-71 0 -71 -54z" />
    <glyph glyph-name="b" unicode="b" horiz-adv-x="594" 
d="M215 711v-291q1 -1 4 -1q46 41 122 41q102 0 164 -65t62 -170q0 -102 -64 -169q-63 -66 -171 -66q-94 0 -146 54h-4l-14 -44h-123v711h170zM225 225q0 -45 23 -71.5t63 -26.5q39 0 63 27t24 71q0 41 -24 69t-62 28q-40 0 -63.5 -28t-23.5 -69z" />
    <glyph glyph-name="c" unicode="c" horiz-adv-x="444" 
d="M281 461q66 0 120 -20v-139q-43 22 -91 22t-77 -27t-29 -74t27.5 -73t75.5 -26q56 0 109 29v-134q-58 -31 -152 -31q-111 0 -174 64t-63 166q0 110 70 176q70 67 184 67z" />
    <glyph glyph-name="d" unicode="d" horiz-adv-x="596" 
d="M372 226q0 42 -23.5 69.5t-64.5 27.5q-38 0 -61.5 -28t-23.5 -71q0 -45 23 -71t63 -26q38 0 62.5 28t24.5 71zM416 0l-13 44l-6 1q-51 -55 -151 -55q-105 0 -162 62q-57 63 -57 164q0 109 64 176q65 68 164 68q73 0 119 -34l5 3v141q1 63 1 140h170v-355q1 -157 1 -355
h-135z" />
    <glyph glyph-name="e" unicode="e" horiz-adv-x="523" 
d="M495 226v-26h-295q8 -89 115 -89q79 0 156 47v-122q-80 -48 -179 -48q-130 0 -198 68q-67 67 -67 170q0 101 65 169t172 68q108 0 169.5 -63t61.5 -174zM271 340q-25 0 -44 -19t-24 -48h134q-10 67 -66 67z" />
    <glyph glyph-name="f" unicode="f" horiz-adv-x="376" 
d="M408 713v-133q-39 14 -73 14q-86 0 -86 -94v-53h122v-130h-122v-317h-174v317h-70v115l70 15v60q0 108 58.5 164.5t166.5 56.5q56 0 108 -15z" />
    <glyph glyph-name="g" unicode="g" horiz-adv-x="529" 
d="M24 -98q0 74 69 114l-21 3q-28 4 -44 21.5t-16 40.5v3l1 3l83 86q-45 41 -45 112q0 77 59 127q61 50 148 50q41 0 92 -16h165v-75l-60 -12q21 -39 21 -77q0 -65 -53 -112q-52 -46 -146 -46q-49 0 -91 13l-19 -32l218 -25q128 -15 128 -125q0 -57 -55 -113
q-29 -32 -85.5 -51.5t-129.5 -19.5q-114 0 -167 41q-52 40 -52 90zM326 294q0 26 -16.5 43.5t-42.5 17.5t-41.5 -17t-15.5 -44q0 -30 15 -47t42 -17t43 18t16 46zM246 -105q41 0 66 18.5t25 45.5q0 17 -12.5 24t-44.5 10l-91 10q-19 -23 -19 -51q0 -25 20.5 -41t55.5 -16z
" />
    <glyph glyph-name="h" unicode="h" horiz-adv-x="568" 
d="M519 292v-292h-176v251q0 71 -53 71q-31 0 -49.5 -24t-18.5 -69v-229h-177v711h171v-311h1q1 -1 2 -1q53 60 138 60q78 0 120 -43.5t42 -123.5z" />
    <glyph glyph-name="i" unicode="i" horiz-adv-x="283" 
d="M230 446v-446h-178v446h178zM237 603q0 -40 -26 -67t-67 -27t-67 27t-26 66t28 66t65 27q40 0 66.5 -26.5t26.5 -65.5z" />
    <glyph glyph-name="j" unicode="j" horiz-adv-x="279" 
d="M232 603q0 -40 -26 -67t-67 -27t-67 27t-26 66t27.5 65.5t65.5 26.5q41 0 67 -26t26 -65zM-22 -233l-26 67l-27 66q74 6 100 38q27 32 27 107v401h176v-415q0 -141 -78 -203q-68 -55 -172 -61z" />
    <glyph glyph-name="k" unicode="k" horiz-adv-x="559" 
d="M351 446h195l-145 -214l153 -232h-200l-125 213v-213h-183v711h183v-463z" />
    <glyph glyph-name="l" unicode="l" horiz-adv-x="274" 
d="M226 711v-711h-177v711h177z" />
    <glyph glyph-name="m" unicode="m" horiz-adv-x="843" 
d="M191 446l17 -52l5 -2q55 69 142 69q100 0 136 -85q51 85 145 85q158 0 158 -181v-280h-177v257q0 29 -12 47t-35 18q-61 0 -61 -92v-230h-175v251q0 71 -51 71q-27 0 -43 -23t-16 -65v-234h-176v446h143z" />
    <glyph glyph-name="n" unicode="n" horiz-adv-x="571" 
d="M191 446l19 -55l4 -1q58 70 150 70q77 0 117.5 -43.5t40.5 -124.5v-292h-177v251q0 32 -13.5 51.5t-38.5 19.5q-31 0 -50 -24t-19 -69v-229h-176v446h143z" />
    <glyph glyph-name="o" unicode="o" horiz-adv-x="572" 
d="M287 461q120 0 188 -67q70 -66 70 -169q0 -104 -71 -170q-71 -65 -187 -65q-119 0 -190 65q-70 66 -70 170q0 101 71 169q71 67 189 67zM289 322q-38 0 -62 -27t-24 -68q0 -46 22.5 -72.5t63.5 -26.5q40 0 63.5 27.5t23.5 71.5q0 42 -24 68.5t-63 26.5z" />
    <glyph glyph-name="p" unicode="p" horiz-adv-x="605" 
d="M232 221q0 -42 23.5 -69.5t63.5 -27.5q38 0 61.5 28t23.5 71q0 45 -22.5 71t-62.5 26q-38 0 -62.5 -28t-24.5 -71zM220 26v-243h-175v663h144l16 -53h4q24 32 64.5 49.5t82.5 17.5q106 0 163 -65q58 -64 58 -168q0 -108 -64 -172q-65 -65 -164 -65q-79 0 -124 39
q-1 0 -3 -2q-1 -1 -2 -1z" />
    <glyph glyph-name="q" unicode="q" horiz-adv-x="599" 
d="M381 -217v251h-1l-2 1q-21 -20 -57 -32.5t-71 -12.5q-103 0 -163 62.5t-60 167.5q0 104 63 171q64 69 171 69q91 0 148 -57h4l14 44h126v-664h-172zM369 222q0 45 -23 71.5t-63 26.5t-63.5 -27t-23.5 -71q0 -42 23.5 -69.5t61.5 -27.5q40 0 64 28t24 69z" />
    <glyph glyph-name="r" unicode="r" horiz-adv-x="413" 
d="M181 446l18 -72h5q34 85 128 85q36 0 72 -14v-159q-38 21 -81 21q-45 0 -72 -31t-27 -89v-187h-176v446h133z" />
    <glyph glyph-name="s" unicode="s" horiz-adv-x="414" 
d="M21 28v134q31 -26 78 -42q49 -17 81 -17q48 0 48 26q0 12 -20.5 24.5t-50 26t-59 31t-50 47t-20.5 66.5q0 59 48.5 97.5t132.5 38.5q78 0 157 -32v-124q-64 37 -130 37q-42 0 -42 -24q0 -12 31 -26t67.5 -28.5t67.5 -50t31 -84.5q0 -56 -47 -98q-47 -41 -144 -41
q-106 0 -179 39z" />
    <glyph glyph-name="t" unicode="t" horiz-adv-x="394" 
d="M13 415l217 182h24v-151h115v-128h-115v-128q0 -65 53 -65q32 0 72 22v-127q-53 -33 -131 -33q-87 0 -128 46t-41 144v141h-66v97z" />
    <glyph glyph-name="u" unicode="u" horiz-adv-x="564" 
d="M48 165v281h176v-255q0 -27 14 -46t38 -19q62 0 62 90v230h177v-446h-148l-15 62h-5q-51 -69 -145 -69q-154 0 -154 172z" />
    <glyph glyph-name="v" unicode="v" horiz-adv-x="558" 
d="M550 446l-258 -457h-27l-258 457h185l42 -81q22 -42 44 -96h4q10 26 39 89l41 88h188z" />
    <glyph glyph-name="w" unicode="w" horiz-adv-x="777" 
d="M266 267l111 192h20l120 -192h4l79 179h178l-226 -457h-23l-140 229l-137 -229h-23l-229 457h180l82 -179h4z" />
    <glyph glyph-name="x" unicode="x" horiz-adv-x="547" 
d="M540 0h-179l-88 191l-90 -191h-177l116 230l-110 216h177l84 -178l84 178h177l-110 -216z" />
    <glyph glyph-name="y" unicode="y" horiz-adv-x="520" 
d="M177 447l75 -239h6l80 239h177l-288 -664h-170l116 253l-174 411h178z" />
    <glyph glyph-name="z" unicode="z" horiz-adv-x="458" 
d="M41 446h403v-13l-192 -304h179v-129h-420v13l191 303h-161v130z" />
    <glyph glyph-name="braceleft" unicode="{" horiz-adv-x="380" 
d="M191 319v-5q75 -16 75 -114v-167q0 -35 11.5 -50t43.5 -15h21v-101h-77q-147 0 -147 164v157q0 103 -64 116v20q64 15 64 103v125q0 172 145 172h79v-104h-16q-34 0 -47 -16.5t-13 -51.5v-136q0 -79 -75 -97z" />
    <glyph glyph-name="bar" unicode="|" horiz-adv-x="370" 
d="M248 -148h-125v885h125v-885z" />
    <glyph glyph-name="braceright" unicode="}" horiz-adv-x="380" 
d="M197 314v5q-76 17 -76 97v136q0 35 -13 51.5t-46 16.5h-17v104h79q146 0 146 -159v-135q0 -85 64 -100v-23q-64 -13 -64 -119v-161q0 -160 -147 -160h-78v101h22q31 0 42.5 15t11.5 50v167q0 98 76 114z" />
    <glyph glyph-name="asciitilde" unicode="~" horiz-adv-x="575" 
d="M402 208q-44 0 -116 24q-71 25 -98 25q-57 0 -79 -64l-82 66q50 125 148 125q33 0 103 -26q68 -25 99 -25t52 17t36 60l83 -69q-21 -63 -59.5 -98t-86.5 -35z" />
    <glyph glyph-name="uni00A0" unicode="&#xa0;" horiz-adv-x="240" 
 />
    <glyph glyph-name="exclamdown" unicode="&#xa1;" horiz-adv-x="339" 
d="M97 243h145l16 -486h-178q14 391 17 486zM255 378q0 -36 -25 -61.5t-59 -25.5q-36 0 -62 25.5t-26 61.5q0 34 26 58.5t62 24.5q34 0 59 -24.5t25 -58.5z" />
    <glyph glyph-name="cent" unicode="&#xa2;" horiz-adv-x="580" 
d="M372 -32h-95v113q-88 14 -138 75t-50 152q0 92 50.5 155t137.5 81v113h95v-108q49 -4 90 -19v-138q-42 21 -98 21q-48 0 -77 -27t-29 -74t27.5 -73t75.5 -26q63 0 116 29v-133q-39 -22 -105 -29v-112z" />
    <glyph glyph-name="sterling" unicode="&#xa3;" horiz-adv-x="588" 
d="M523 637v-145q-71 33 -126 33q-41 0 -65 -22.5t-24 -66.5l-1 -48h135v-102h-140q-4 -109 -36 -157h272v-129h-495v16q75 105 82 270h-57v102h61l2 55q6 114 71 171q64 57 160 57q86 0 161 -34z" />
    <glyph glyph-name="currency" unicode="&#xa4;" horiz-adv-x="588" 
d="M88 291q0 51 26 101l-60 62l76 76l59 -61q47 27 103 27q58 0 104 -28l59 61l77 -76l-61 -61q26 -47 26 -101q0 -51 -27 -101l62 -59l-77 -77l-60 60q-48 -28 -103 -28t-103 28l-59 -60l-75 77l59 59q-26 44 -26 101zM291 194q41 0 70 28.5t29 68.5q0 41 -28.5 69.5
t-70.5 28.5q-40 0 -68.5 -29t-28.5 -69t28.5 -68.5t68.5 -28.5z" />
    <glyph glyph-name="yen" unicode="&#xa5;" horiz-adv-x="588" 
d="M53 152v59h492v-59h-152v-152h-196v152h-144zM545 311v-61h-492v61h123l-161 348h205l80 -268h3q7 19 37 134t37 134h202q-10 -18 -81 -172q-63 -137 -84 -176h131z" />
    <glyph glyph-name="brokenbar" unicode="&#xa6;" horiz-adv-x="369" 
d="M248 738v-368h-125v368h125zM123 -149v404h125v-404h-125z" />
    <glyph glyph-name="section" unicode="&#xa7;" horiz-adv-x="590" 
d="M526 310q0 -31 -18 -63.5t-48 -49.5q61 -43 61 -107q0 -84 -67 -127t-167 -43q-116 0 -199 42v141q29 -23 89 -44q56 -19 100 -19q32 0 53 11.5t21 32.5q0 40 -100 77q-29 11 -50 20t-48.5 25t-44.5 33.5t-29 43t-11 55.5q0 72 63 109q-47 44 -47 100q0 71 56 119
q56 49 170 49q89 0 170 -34v-127q-79 35 -162 35q-76 0 -76 -38q0 -31 66 -53q218 -57 218 -188zM371 305q0 25 -29 45t-88 40q-33 -20 -33 -46q0 -37 61 -64q24 -10 57 -22q32 23 32 47z" />
    <glyph glyph-name="dieresis" unicode="&#xa8;" horiz-adv-x="565" 
d="M188 529q-33 0 -54.5 22.5t-21.5 53.5q0 33 22.5 54.5t53.5 21.5q32 0 53.5 -22t21.5 -53t-21.5 -54t-53.5 -23zM388 529q-33 0 -54 22t-21 54q0 33 22 54.5t53 21.5q32 0 53.5 -22t21.5 -53t-21.5 -54t-53.5 -23z" />
    <glyph glyph-name="copyright" unicode="&#xa9;" horiz-adv-x="875" 
d="M437 -39q-168 0 -273 109q-105 110 -105 278q0 164 110 274q110 109 270 109q156 0 266 -110t110 -273q0 -164 -110 -276q-110 -111 -268 -111zM147 348q0 -128 81 -216q82 -88 209 -88t206 88q81 88 81 216q0 124 -81 213q-81 88 -205 88t-208 -88q-83 -89 -83 -213z
M581 247l1 -106q-51 -23 -124 -23q-112 0 -175 63t-63 162q0 95 65 163q66 67 176 67q62 0 110 -17v-105q-42 18 -91 18q-57 0 -93.5 -33.5t-36.5 -92.5q0 -57 34.5 -89.5t90.5 -32.5q59 0 106 26z" />
    <glyph glyph-name="ordfeminine" unicode="&#xaa;" horiz-adv-x="369" 
d="M338 299h-109l-9 30q-38 -38 -103 -38q-47 0 -74 24t-27 64q0 46 40 71.5t110 25.5h42v8q0 35 -51 35q-52 0 -100 -22v86q59 21 129 21q152 0 152 -134v-171zM210 416v9h-23q-21 0 -34.5 -8.5t-13.5 -23.5q0 -23 29 -23q19 0 30.5 12.5t11.5 33.5z" />
    <glyph glyph-name="guillemotleft" unicode="&#xab;" horiz-adv-x="528" 
d="M307 408l-134 -195l134 -202h-156l-125 194v10l126 193h155zM512 408l-134 -195l134 -202h-156l-125 194v10l126 193h155z" />
    <glyph glyph-name="logicalnot" unicode="&#xac;" horiz-adv-x="588" 
d="M81 339h425v-264h-104v165h-321v99z" />
    <glyph glyph-name="sfthyphen" unicode="&#xad;" horiz-adv-x="373" 
d="M323 193h-273v108h273v-108z" />
    <glyph glyph-name="registered" unicode="&#xae;" horiz-adv-x="594" 
d="M374 416l58 -103h-88l-55 117v9q48 11 48 47q0 15 -10 24.5t-28 9.5h-24v-207h-83v270h122q47 0 77 -25.5t30 -67.5q0 -48 -47 -74zM299 186q-114 0 -183 72q-68 74 -68 185q0 109 73 181q73 73 178 73q106 0 178 -73q73 -72 73 -181t-74 -183t-177 -74zM491 443
q0 83 -55 141q-54 59 -137 59q-82 0 -138 -59t-56 -141q0 -87 54 -145t140 -58q84 0 138 58t54 145z" />
    <glyph glyph-name="overscore" unicode="&#xaf;" horiz-adv-x="557" 
d="M443 539h-333v103h333v-103z" />
    <glyph glyph-name="degree" unicode="&#xb0;" horiz-adv-x="363" 
d="M183 418q-57 0 -92 35t-35 88t37 87q37 36 90 36q52 0 88 -36q37 -34 37 -87q0 -50 -37 -87q-36 -36 -88 -36zM182 599q-24 0 -41.5 -17t-17.5 -41q0 -27 16 -43.5t43 -16.5q26 0 43 17.5t17 42.5q0 24 -17.5 41t-42.5 17z" />
    <glyph glyph-name="plusminus" unicode="&#xb1;" horiz-adv-x="588" 
d="M81 0v99h424v-99h-424zM505 278h-160v-144h-103v144h-161v100h161v143h103v-143h160v-100z" />
    <glyph glyph-name="twosuperior" unicode="&#xb2;" horiz-adv-x="379" 
d="M133 622l-105 19q-4 12 -4 30q0 51 48 86q47 34 112 34q69 0 113.5 -33.5t44.5 -89.5q0 -32 -20.5 -61t-50.5 -49q-86 -55 -103 -82h175v-88h-321l-7 9q4 94 74 151q14 11 54.5 39t56.5 45t16 34q0 15 -11 23t-27 8q-22 0 -36 -13.5t-14 -36.5q0 -7 5 -25z" />
    <glyph glyph-name="threesuperior" unicode="&#xb3;" horiz-adv-x="379" 
d="M118 576l-13 14l78 102h-149v90h318v-18l-101 -129q46 -12 71 -42.5t25 -73.5q0 -59 -49 -98q-50 -39 -128 -39q-83 0 -144 31v107q56 -45 126 -45q34 0 53.5 15t19.5 38t-18.5 38t-48.5 15q-18 0 -40 -5z" />
    <glyph glyph-name="acute" unicode="&#xb4;" horiz-adv-x="527" 
d="M435 646l-148 -137h-92l126 194z" />
    <glyph glyph-name="mu" unicode="&#xb5;" horiz-adv-x="564" 
d="M48 -217v663h176v-258q0 -23 14.5 -42.5t36.5 -19.5q30 0 46.5 23t16.5 65v232h177v-446h-148l-15 62h-5q-20 -26 -54.5 -41t-63.5 -15h-5v-223h-176z" />
    <glyph glyph-name="mu" unicode="&#x3bc;" horiz-adv-x="564" 
d="M48 -217v663h176v-258q0 -23 14.5 -42.5t36.5 -19.5q30 0 46.5 23t16.5 65v232h177v-446h-148l-15 62h-5q-20 -26 -54.5 -41t-63.5 -15h-5v-223h-176z" />
    <glyph glyph-name="paragraph" unicode="&#xb6;" horiz-adv-x="596" 
d="M341 674v-435h-79q-96 0 -159 63t-63 156q0 92 63 153q65 63 159 63h79zM309 -204l-50 129q71 5 97.5 35.5t26.5 105.5v609h166v-622q0 -131 -67 -191q-66 -60 -173 -66z" />
    <glyph glyph-name="middot" unicode="&#xb7;" horiz-adv-x="290" 
d="M225 251q0 -34 -24.5 -58.5t-58.5 -24.5q-35 0 -60.5 24.5t-25.5 58.5q0 36 25 60.5t61 24.5q34 0 58.5 -24.5t24.5 -60.5z" />
    <glyph glyph-name="cedilla" unicode="&#xb8;" horiz-adv-x="443" 
d="M359 -149q0 -41 -34 -75q-33 -34 -109 -34q-43 0 -90 16v73q37 -19 81 -19q22 0 38 11.5t16 29.5q0 17 -13.5 26t-34.5 9q-18 0 -36 -9l-16 10l77 157l47 -17l-40 -81q55 -4 84.5 -30.5t29.5 -66.5z" />
    <glyph glyph-name="onesuperior" unicode="&#xb9;" horiz-adv-x="365" 
d="M248 787h19v-399h-127v249l-43 -18l-47 -20v106z" />
    <glyph glyph-name="ordmasculine" unicode="&#xba;" horiz-adv-x="393" 
d="M196 606q82 0 130 -45q49 -43 49 -112t-49 -112.5t-130 -43.5q-83 0 -132 43t-49 113q0 68 50 112q49 45 131 45zM196 506q-23 0 -37 -15.5t-14 -39.5q0 -28 13.5 -44t37.5 -16t39 16.5t15 43.5q0 24 -15 39.5t-39 15.5z" />
    <glyph glyph-name="guillemotright" unicode="&#xbb;" horiz-adv-x="528" 
d="M175 11h-156l134 202l-134 195h155l126 -193v-10zM379 11h-156l134 202l-134 195h156l125 -193v-10z" />
    <glyph glyph-name="onequarter" unicode="&#xbc;" horiz-adv-x="861" 
d="M442 93l160 298h117l-129 -228h57v23l41 74h81v-97h38v-88h-38v-75h-121v75h-206v18zM596 685h103l-462 -716h-103zM261 699h19v-399h-127v249l-43 -18l-47 -20v106z" />
    <glyph glyph-name="onehalf" unicode="&#xbd;" horiz-adv-x="861" 
d="M602 232l-105 19q-4 12 -4 30q0 51 48 86q47 34 112 34q69 0 113.5 -33.5t44.5 -89.5q0 -32 -20.5 -61t-50.5 -49q-86 -55 -103 -82h175v-88h-321l-7 9q4 94 74 151q14 11 54.5 39t56.5 45t16 34q0 15 -11 23t-27 8q-22 0 -36 -13.5t-14 -36.5q0 -7 5 -25zM573 685h103
l-462 -716h-103zM248 699h19v-399h-127v249l-43 -18l-47 -20v106z" />
    <glyph glyph-name="threequarters" unicode="&#xbe;" horiz-adv-x="861" 
d="M458 93l160 298h117l-129 -228h57v23l41 74h81v-97h38v-88h-38v-75h-121v75h-206v18zM149 486l-13 14l78 102h-149v90h318v-18l-101 -129q46 -12 71 -42.5t25 -73.5q0 -59 -49 -98t-128 -39q-83 0 -144 31v107q55 -45 126 -45q34 0 53.5 15t19.5 38t-18.5 38t-48.5 15
q-18 0 -40 -5zM623 685h103l-462 -716h-103z" />
    <glyph glyph-name="questiondown" unicode="&#xbf;" horiz-adv-x="537" 
d="M241 -40q0 -27 22.5 -44.5t58.5 -17.5q40 0 87.5 14.5t81.5 35.5v-153q-99 -41 -199 -41q-122 0 -183 54t-61 133q0 71 70 134q11 10 34.5 30t36.5 32t28.5 27.5t22.5 29t7 24.5q0 12 -6 23l136 23q23 -48 18.5 -80t-29.5 -64t-52.5 -55t-50 -51.5t-22.5 -53.5zM213 378
q0 34 25 58.5t59 24.5q39 0 62.5 -23t23.5 -60q0 -36 -24.5 -60.5t-61.5 -24.5q-36 0 -60 24.5t-24 60.5z" />
    <glyph glyph-name="Agrave" unicode="&#xc0;" horiz-adv-x="688" 
d="M681 0h-192l-32 74h-229l-33 -74h-188l329 675h23zM346 331h-4l-58 -131h118zM267 901l140 -191h-104l-156 134z" />
    <glyph glyph-name="Aacute" unicode="&#xc1;" horiz-adv-x="688" 
d="M681 0h-192l-32 74h-229l-33 -74h-188l329 675h23zM346 331h-4l-58 -131h118zM543 844l-156 -134h-105l140 191z" />
    <glyph glyph-name="Acircumflex" unicode="&#xc2;" horiz-adv-x="688" 
d="M681 0h-192l-32 74h-229l-33 -74h-188l329 675h23zM346 331h-4l-58 -131h118zM365 892l172 -181h-130l-56 67l-62 -67h-125l178 181h23z" />
    <glyph glyph-name="Atilde" unicode="&#xc3;" horiz-adv-x="688" 
d="M681 0h-192l-32 74h-229l-33 -74h-188l329 675h23zM346 331h-4l-58 -131h118zM470 883l42 -67q-32 -90 -97 -90q-27 0 -73 25q-47 26 -64 26q-33 0 -57 -56l-47 68q16 40 43 65.5t59 25.5q22 0 69 -27q46 -27 67 -27q30 0 58 57z" />
    <glyph glyph-name="Adieresis" unicode="&#xc4;" horiz-adv-x="688" 
d="M681 0h-192l-32 74h-229l-33 -74h-188l329 675h23zM346 331h-4l-58 -131h118zM322 793q0 -33 -21.5 -55.5t-54.5 -22.5t-55 22.5t-22 53.5q0 33 23 55t54 22q32 0 54 -22.5t22 -52.5zM522 793q0 -33 -21 -55.5t-54 -22.5t-54.5 22.5t-21.5 53.5q0 33 22.5 55t53.5 22
q32 0 53.5 -22t21.5 -53z" />
    <glyph glyph-name="Aring" unicode="&#xc5;" horiz-adv-x="688" 
d="M681 0h-192l-32 74h-229l-33 -74h-188l315 646q-49 7 -79.5 41.5t-30.5 82.5q0 54 38 92q38 39 93 39q57 0 95 -38q39 -37 39 -93q0 -45 -29.5 -79t-75.5 -43zM346 331h-4l-58 -131h118zM343 820q-18 0 -31 -15t-13 -35q0 -18 12.5 -31t31.5 -13q20 0 33 13t13 31
q0 21 -13 35.5t-33 14.5z" />
    <glyph glyph-name="AE" unicode="&#xc6;" horiz-adv-x="940" 
d="M902 148v-148h-461v89h-175l-63 -89h-205l488 659h402v-147h-269v-101h234v-141h-234v-122h283zM446 350h-4l-110 -153h114v153z" />
    <glyph glyph-name="Ccedilla" unicode="&#xc7;" horiz-adv-x="627" 
d="M486 -162q0 -41 -34 -75q-33 -34 -109 -34q-43 0 -90 16v73q37 -19 81 -19q22 0 38 11.5t16 29.5q0 17 -13.5 26t-34.5 9q-18 0 -36 -9l-16 10l55 114q-145 17 -224 108q-79 92 -79 229q0 145 99 245q99 101 267 101q97 0 167 -26v-160q-66 29 -139 29q-85 0 -141 -49
q-56 -50 -56 -141q0 -88 50.5 -135.5t136.5 -47.5q82 0 166 40l1 -163q-83 -34 -190 -34h-4l-25 -51q55 -4 84.5 -30.5t29.5 -66.5z" />
    <glyph glyph-name="Egrave" unicode="&#xc8;" horiz-adv-x="575" 
d="M254 148h283v-148h-479v659h465v-147h-269v-101h234v-141h-234v-122zM253 901l140 -191h-104l-156 134l38 17z" />
    <glyph glyph-name="Eacute" unicode="&#xc9;" horiz-adv-x="575" 
d="M254 148h283v-148h-479v659h465v-147h-269v-101h234v-141h-234v-122zM462 844l-156 -134h-105l140 191z" />
    <glyph glyph-name="Ecircumflex" unicode="&#xca;" horiz-adv-x="575" 
d="M254 148h283v-148h-479v659h465v-147h-269v-101h234v-141h-234v-122zM310 893l172 -181h-130l-56 67l-62 -67h-125l178 181h23z" />
    <glyph glyph-name="Edieresis" unicode="&#xcb;" horiz-adv-x="575" 
d="M266 793q0 -33 -21.5 -55.5t-54.5 -22.5t-55 22.5t-22 53.5q0 33 23 55t54 22q32 0 54 -22.5t22 -52.5zM466 793q0 -33 -21 -55.5t-54 -22.5t-54.5 22.5t-21.5 53.5q0 33 22.5 55t53.5 22q32 0 53.5 -22t21.5 -53zM254 148h283v-148h-479v659h465v-147h-269v-101h234
v-141h-234v-122z" />
    <glyph glyph-name="Igrave" unicode="&#xcc;" horiz-adv-x="319" 
d="M95 901l140 -191h-104l-156 134zM257 659v-659h-196v659h196z" />
    <glyph glyph-name="Iacute" unicode="&#xcd;" horiz-adv-x="319" 
d="M355 844l-156 -134h-105l140 191zM257 659v-659h-196v659h196z" />
    <glyph glyph-name="Icircumflex" unicode="&#xce;" horiz-adv-x="319" 
d="M176 893l172 -181h-130l-56 67l-62 -67h-125l178 181h23zM257 659v-659h-196v659h196z" />
    <glyph glyph-name="Idieresis" unicode="&#xcf;" horiz-adv-x="319" 
d="M257 659v-659h-196v659h196zM137 793q0 -33 -21.5 -55.5t-54.5 -22.5t-55 22.5t-22 53.5q0 33 23 55t54 22q32 0 54 -22.5t22 -52.5zM337 793q0 -33 -21 -55.5t-54 -22.5t-54.5 22.5t-21.5 53.5q0 33 22.5 55t53.5 22q32 0 53.5 -22t21.5 -53z" />
    <glyph glyph-name="Eth" unicode="&#xd0;" horiz-adv-x="706" 
d="M327 0h-269v290h-49v88h49v281h253q171 0 262 -93q92 -92 92 -234q0 -67 -21 -126t-62 -105.5t-106.5 -73.5t-148.5 -27zM473 333q0 179 -171 179h-49v-134h109v-88h-109v-142h50q170 0 170 185z" />
    <glyph glyph-name="Ntilde" unicode="&#xd1;" horiz-adv-x="721" 
d="M254 322v-322h-196v676h23l381 -325h4v308h196v-674h-21l-384 337h-3zM481 881l42 -67q-31 -90 -97 -90q-27 0 -73 25q-47 26 -64 26q-33 0 -57 -56l-47 68q16 40 43 65.5t59 25.5q23 0 69 -27q47 -27 67 -27q17 0 29.5 13t28.5 44z" />
    <glyph glyph-name="Ograve" unicode="&#xd2;" horiz-adv-x="805" 
d="M401 -12q-163 0 -263 97q-99 97 -99 245q0 145 102 244q103 99 262 99t260 -99q101 -98 101 -244q0 -148 -102 -245q-101 -97 -261 -97zM404 513q-75 0 -122 -53t-47 -130q0 -82 46 -134q47 -53 123 -53t121 53q46 52 46 134q0 78 -45 130q-45 53 -122 53zM338 901
l140 -191h-104l-156 134l38 17z" />
    <glyph glyph-name="Oacute" unicode="&#xd3;" horiz-adv-x="805" 
d="M401 -12q-163 0 -263 97q-99 97 -99 245q0 145 102 244q103 99 262 99t260 -99q101 -98 101 -244q0 -148 -102 -245q-101 -97 -261 -97zM404 513q-75 0 -122 -53t-47 -130q0 -82 46 -134q47 -53 123 -53t121 53q46 52 46 134q0 78 -45 130q-45 53 -122 53zM602 844
l-156 -134h-105l140 191z" />
    <glyph glyph-name="Ocircumflex" unicode="&#xd4;" horiz-adv-x="805" 
d="M401 -12q-163 0 -263 97q-99 97 -99 245q0 145 102 244q103 99 262 99t260 -99q101 -98 101 -244q0 -148 -102 -245q-101 -97 -261 -97zM404 513q-75 0 -122 -53t-47 -130q0 -82 46 -134q47 -53 123 -53t121 53q46 52 46 134q0 78 -45 130q-45 53 -122 53zM432 893
l172 -181h-130l-56 67l-62 -67h-125l178 181h23z" />
    <glyph glyph-name="Otilde" unicode="&#xd5;" horiz-adv-x="805" 
d="M401 -12q-163 0 -263 97q-99 97 -99 245q0 145 102 244q103 99 262 99t260 -99q101 -98 101 -244q0 -148 -102 -245q-101 -97 -261 -97zM404 513q-75 0 -122 -53t-47 -130q0 -82 46 -134q47 -53 123 -53t121 53q46 52 46 134q0 78 -45 130q-45 53 -122 53zM532 883
l42 -67q-32 -90 -97 -90q-27 0 -73 25q-47 26 -64 26q-33 0 -57 -56l-47 68q16 40 43 65.5t59 25.5q22 0 69 -27q46 -27 67 -27q30 0 58 57z" />
    <glyph glyph-name="Odieresis" unicode="&#xd6;" horiz-adv-x="805" 
d="M401 -12q-163 0 -263 97q-99 97 -99 245q0 145 102 244q103 99 262 99t260 -99q101 -98 101 -244q0 -148 -102 -245q-101 -97 -261 -97zM404 513q-75 0 -122 -53t-47 -130q0 -82 46 -134q47 -53 123 -53t121 53q46 52 46 134q0 78 -45 130q-45 53 -122 53zM379 793
q0 -33 -21.5 -55.5t-54.5 -22.5t-55 22.5t-22 53.5q0 33 23 55t54 22q32 0 54 -22.5t22 -52.5zM579 793q0 -33 -21 -55.5t-54 -22.5t-54.5 22.5t-21.5 53.5q0 33 22.5 55t53.5 22q32 0 53.5 -22t21.5 -53z" />
    <glyph glyph-name="multiply" unicode="&#xd7;" horiz-adv-x="588" 
d="M409 102l-114 114l-116 -116l-72 72l116 116l-114 115l70 70l114 -114l115 115l72 -73l-114 -115l113 -113q-57 -59 -70 -71z" />
    <glyph glyph-name="Oslash" unicode="&#xd8;" horiz-adv-x="805" 
d="M401 -13q-114 0 -197 49l-28 -36h-66l52 64q-122 98 -122 266q0 145 102 244q104 99 261 99q116 0 205 -56l34 43h63l-57 -72q116 -99 116 -258q0 -148 -102 -245q-103 -98 -261 -98zM230 330q0 -78 42 -129l231 288q-44 30 -98 30q-78 0 -127 -55q-48 -54 -48 -134z
M405 137q78 0 124 55q47 56 47 138q0 69 -38 122l-230 -287q43 -28 97 -28z" />
    <glyph glyph-name="Ugrave" unicode="&#xd9;" horiz-adv-x="714" 
d="M459 260v399h196v-385q0 -129 -76 -208q-77 -78 -222 -78q-147 0 -223 74.5t-76 205.5v391h197v-393q0 -51 27.5 -85t75.5 -34q47 0 74 32.5t27 80.5zM303 901l140 -191h-104l-156 134l38 17z" />
    <glyph glyph-name="Uacute" unicode="&#xda;" horiz-adv-x="714" 
d="M459 260v399h196v-385q0 -129 -76 -208q-77 -78 -222 -78q-147 0 -223 74.5t-76 205.5v391h197v-393q0 -51 27.5 -85t75.5 -34q47 0 74 32.5t27 80.5zM546 844l-156 -134h-105l140 191z" />
    <glyph glyph-name="Ucircumflex" unicode="&#xdb;" horiz-adv-x="714" 
d="M459 260v399h196v-385q0 -129 -76 -208q-77 -78 -222 -78q-147 0 -223 74.5t-76 205.5v391h197v-393q0 -51 27.5 -85t75.5 -34q47 0 74 32.5t27 80.5zM374 891l177 -179h-134l-57 66l-64 -66h-129l184 179h23z" />
    <glyph glyph-name="Udieresis" unicode="&#xdc;" horiz-adv-x="714" 
d="M333 793q0 -33 -21.5 -55.5t-54.5 -22.5t-55 22.5t-22 53.5q0 33 23 55t54 22q32 0 54 -22.5t22 -52.5zM533 793q0 -33 -21 -55.5t-54 -22.5t-54.5 22.5t-21.5 53.5q0 33 22.5 55t53.5 22q32 0 53.5 -22t21.5 -53zM459 260v399h196v-385q0 -129 -76 -208
q-77 -78 -222 -78q-147 0 -223 74.5t-76 205.5v391h197v-393q0 -51 27.5 -85t75.5 -34q47 0 74 32.5t27 80.5z" />
    <glyph glyph-name="Yacute" unicode="&#xdd;" horiz-adv-x="648" 
d="M217 659l110 -255h4q10 32 44 114l56 141h210l-219 -415v-244h-196v244l-220 415h211zM513 842l-156 -134h-105l140 191z" />
    <glyph glyph-name="Thorn" unicode="&#xde;" horiz-adv-x="604" 
d="M589 355q0 -85 -63 -153q-61 -67 -179 -67h-93v-135h-195v660h194v-85h83q123 0 187 -64q66 -63 66 -156zM311 432h-58v-158h58q53 -3 75 37.5t0.5 81.5t-75.5 39z" />
    <glyph glyph-name="germandbls" unicode="&#xdf;" horiz-adv-x="614" 
d="M231 513v-513h-176v481q0 108 65 178q64 69 185 69q104 0 166 -52q63 -52 63 -135q0 -26 -14 -62t-52 -59v-5q56 -20 86 -72t30 -122q0 -43 -12.5 -82.5t-37.5 -73.5t-68.5 -54.5t-100.5 -20.5q-36 0 -78 13v132q15 -4 35 -4q43 0 66 30t23 77q0 105 -114 108v114
q35 1 54 21t19 51q0 29 -20 48t-46 19q-37 0 -55 -24t-18 -62z" />
    <glyph glyph-name="agrave" unicode="&#xe0;" horiz-adv-x="533" 
d="M331 0l-10 47h-3q-54 -59 -152 -59q-65 0 -102.5 34.5t-37.5 92.5q0 68 54.5 110.5t155.5 42.5h73v8q0 62 -88 62q-25 0 -65 -10t-69 -25v126q84 32 182 32q215 0 215 -202v-259h-153zM193 139q0 -44 48 -44q32 0 51 23t19 59v16h-47q-71 0 -71 -54zM224 703l126 -194
h-93l-147 137z" />
    <glyph glyph-name="aacute" unicode="&#xe1;" horiz-adv-x="533" 
d="M331 0l-10 47h-3q-54 -59 -152 -59q-65 0 -102.5 34.5t-37.5 92.5q0 68 54.5 110.5t155.5 42.5h73v8q0 62 -88 62q-25 0 -65 -10t-69 -25v126q84 32 182 32q215 0 215 -202v-259h-153zM193 139q0 -44 48 -44q32 0 51 23t19 59v16h-47q-71 0 -71 -54zM435 646l-148 -137
h-92l126 194z" />
    <glyph glyph-name="acircumflex" unicode="&#xe2;" horiz-adv-x="533" 
d="M331 0l-10 47h-3q-54 -59 -152 -59q-65 0 -102.5 34.5t-37.5 92.5q0 68 54.5 110.5t155.5 42.5h73v8q0 62 -88 62q-25 0 -65 -10t-69 -25v126q84 32 182 32q215 0 215 -202v-259h-153zM193 139q0 -44 48 -44q32 0 51 23t19 59v16h-47q-71 0 -71 -54zM294 699l163 -190
h-125l-53 73l-58 -73h-120l169 190h24z" />
    <glyph glyph-name="atilde" unicode="&#xe3;" horiz-adv-x="533" 
d="M331 0l-10 47h-3q-54 -59 -152 -59q-65 0 -102.5 34.5t-37.5 92.5q0 68 54.5 110.5t155.5 42.5h73v8q0 62 -88 62q-25 0 -65 -10t-69 -25v126q84 32 182 32q215 0 215 -202v-259h-153zM193 139q0 -44 48 -44q32 0 51 23t19 59v16h-47q-71 0 -71 -54zM397 676l42 -67
q-31 -90 -97 -90q-27 0 -73 25q-47 26 -64 26q-33 0 -57 -56l-47 68q16 40 43 65.5t59 25.5q23 0 69 -27t67 -27q17 0 29.5 13t28.5 44z" />
    <glyph glyph-name="adieresis" unicode="&#xe4;" horiz-adv-x="533" 
d="M331 0l-10 47h-3q-54 -59 -152 -59q-65 0 -102.5 34.5t-37.5 92.5q0 68 54.5 110.5t155.5 42.5h73v8q0 62 -88 62q-25 0 -65 -10t-69 -25v126q84 32 182 32q215 0 215 -202v-259h-153zM193 139q0 -44 48 -44q32 0 51 23t19 59v16h-47q-71 0 -71 -54zM179 529
q-33 0 -54.5 22.5t-21.5 53.5q0 33 22.5 54.5t53.5 21.5q32 0 53.5 -22t21.5 -53t-21.5 -54t-53.5 -23zM379 529q-33 0 -54 22t-21 54q0 33 22 54.5t53 21.5q32 0 53.5 -22t21.5 -53t-21.5 -54t-53.5 -23z" />
    <glyph glyph-name="aring" unicode="&#xe5;" horiz-adv-x="533" 
d="M331 0l-10 47h-3q-54 -59 -152 -59q-65 0 -102.5 34.5t-37.5 92.5q0 68 54.5 110.5t155.5 42.5h73v8q0 62 -88 62q-25 0 -65 -10t-69 -25v126q84 32 182 32q215 0 215 -202v-259h-153zM193 139q0 -44 48 -44q32 0 51 23t19 59v16h-47q-71 0 -71 -54zM145 625q0 54 38 92
q37 39 93 39q57 0 95 -38q39 -38 39 -93q0 -53 -39 -89q-37 -36 -95 -36q-57 0 -94 35.5t-37 89.5zM276 675q-18 0 -31 -15t-13 -35q0 -18 12.5 -31t31.5 -13q20 0 33 13t13 31q0 21 -13 35.5t-33 14.5z" />
    <glyph glyph-name="ae" unicode="&#xe6;" horiz-adv-x="813" 
d="M553 463q109 0 170.5 -61.5t61.5 -172.5v-28h-296q7 -94 116 -94q82 0 156 46v-117q-79 -48 -180 -48q-133 0 -193 72q-68 -74 -193 -74q-78 0 -125.5 35t-47.5 94q0 67 53.5 109t147.5 43l83 1v8q0 62 -88 62q-26 0 -67.5 -10t-70.5 -25v126q84 32 183 32q101 0 148 -53
q61 55 142 55zM192 144q0 -22 13 -34.5t35 -12.5q32 0 50.5 24.5t18.5 64.5v13h-41q-76 0 -76 -55zM561 340q-30 0 -49 -20t-21 -53h137q-4 73 -67 73z" />
    <glyph glyph-name="ccedilla" unicode="&#xe7;" horiz-adv-x="444" 
d="M355 -149q0 -41 -34 -75q-33 -34 -109 -34q-43 0 -90 16v73q37 -19 81 -19q22 0 38 11.5t16 29.5q0 17 -13.5 26t-34.5 9q-18 0 -36 -9l-16 10l51 104q-85 16 -133 76t-48 149q0 110 70 176q70 67 184 67q66 0 120 -20v-139q-43 22 -91 22t-77 -27t-29 -74t27.5 -73
t75.5 -26q56 0 109 29v-134q-58 -31 -152 -31h-3l-20 -40q55 -4 84.5 -30.5t29.5 -66.5z" />
    <glyph glyph-name="egrave" unicode="&#xe8;" horiz-adv-x="523" 
d="M495 226v-26h-295q8 -89 115 -89q79 0 156 47v-122q-80 -48 -179 -48q-130 0 -198 68q-67 67 -67 170q0 101 65 169t172 68q108 0 169.5 -63t61.5 -174zM226 703l126 -194h-93l-147 137zM271 340q-25 0 -44 -19t-24 -48h134q-10 67 -66 67z" />
    <glyph glyph-name="eacute" unicode="&#xe9;" horiz-adv-x="523" 
d="M495 226v-26h-295q8 -89 115 -89q79 0 156 47v-122q-80 -48 -179 -48q-130 0 -198 68q-67 67 -67 170q0 101 65 169t172 68q108 0 169.5 -63t61.5 -174zM428 646l-148 -137h-92l126 194zM271 340q-25 0 -44 -19t-24 -48h134q-10 67 -66 67z" />
    <glyph glyph-name="ecircumflex" unicode="&#xea;" horiz-adv-x="523" 
d="M495 226v-26h-295q8 -89 115 -89q79 0 156 47v-122q-80 -48 -179 -48q-130 0 -198 68q-67 67 -67 170q0 101 65 169t172 68q108 0 169.5 -63t61.5 -174zM287 699l163 -190h-125l-53 73l-58 -73h-120l169 190h24zM271 340q-25 0 -44 -19t-24 -48h134q-10 67 -66 67z" />
    <glyph glyph-name="edieresis" unicode="&#xeb;" horiz-adv-x="523" 
d="M495 226v-26h-295q8 -89 115 -89q79 0 156 47v-122q-80 -48 -179 -48q-130 0 -198 68q-67 67 -67 170q0 101 65 169t172 68q108 0 169.5 -63t61.5 -174zM172 529q-33 0 -54.5 22.5t-21.5 53.5q0 33 22.5 54.5t53.5 21.5q32 0 53.5 -22t21.5 -53t-21.5 -54t-53.5 -23z
M372 529q-33 0 -54 22t-21 54q0 33 22 54.5t53 21.5q32 0 53.5 -22t21.5 -53t-21.5 -54t-53.5 -23zM271 340q-25 0 -44 -19t-24 -48h134q-10 67 -66 67z" />
    <glyph glyph-name="igrave" unicode="&#xec;" horiz-adv-x="283" 
d="M230 446v-446h-178v446h178zM86 703l126 -194h-93l-147 137z" />
    <glyph glyph-name="iacute" unicode="&#xed;" horiz-adv-x="283" 
d="M311 646l-148 -137h-92l126 194zM230 446v-446h-178v446h178z" />
    <glyph glyph-name="icircumflex" unicode="&#xee;" horiz-adv-x="283" 
d="M161 699l163 -190h-125l-53 73l-58 -73h-120l169 190h24zM230 446v-446h-178v446h178z" />
    <glyph glyph-name="idieresis" unicode="&#xef;" horiz-adv-x="283" 
d="M46 529q-33 0 -54.5 22.5t-21.5 53.5q0 33 22.5 54.5t53.5 21.5q32 0 53.5 -22t21.5 -53t-21.5 -54t-53.5 -23zM246 529q-33 0 -54 22t-21 54q0 33 22 54.5t53 21.5q32 0 53.5 -22t21.5 -53t-21.5 -54t-53.5 -23zM230 446v-446h-178v446h178z" />
    <glyph glyph-name="eth" unicode="&#xf0;" horiz-adv-x="577" 
d="M185 483v75l37 25q-49 39 -123 83l121 67q62 -34 115 -74l89 60v-79l-37 -24q77 -73 120.5 -166.5t43.5 -188.5q0 -51 -14.5 -97.5t-44 -86.5t-81.5 -63.5t-120 -23.5q-124 0 -192 64q-69 64 -69 169q0 98 71 166q71 69 175 69q48 0 71 -21l3 3q-20 48 -78 100zM205 225
q0 -45 22.5 -71t63.5 -26q39 0 62.5 27t23.5 70q0 41 -23.5 67t-62.5 26q-38 0 -62 -26.5t-24 -66.5z" />
    <glyph glyph-name="ntilde" unicode="&#xf1;" horiz-adv-x="572" 
d="M191 446l19 -55l4 -1q58 70 150 70q77 0 117.5 -43.5t40.5 -124.5v-292h-177v251q0 32 -13.5 51.5t-38.5 19.5q-31 0 -50 -24t-19 -69v-229h-176v446h143zM399 679l42 -67q-31 -90 -97 -90q-27 0 -73 25q-47 26 -64 26q-33 0 -57 -56l-47 68q16 40 43 65.5t59 25.5
q23 0 69 -27q47 -27 67 -27q17 0 29.5 13t28.5 44z" />
    <glyph glyph-name="ograve" unicode="&#xf2;" horiz-adv-x="572" 
d="M287 461q120 0 188 -67q70 -66 70 -169q0 -104 -71 -170q-71 -65 -187 -65q-119 0 -190 65q-70 66 -70 170q0 101 71 169q71 67 189 67zM289 322q-38 0 -62 -27t-24 -68q0 -46 22.5 -72.5t63.5 -26.5q40 0 63.5 27.5t23.5 71.5q0 42 -24 68.5t-63 26.5zM233 703l126 -194
h-93l-147 137z" />
    <glyph glyph-name="oacute" unicode="&#xf3;" horiz-adv-x="572" 
d="M287 461q120 0 188 -67q70 -66 70 -169q0 -104 -71 -170q-71 -65 -187 -65q-119 0 -190 65q-70 66 -70 170q0 101 71 169q71 67 189 67zM289 322q-38 0 -62 -27t-24 -68q0 -46 22.5 -72.5t63.5 -26.5q40 0 63.5 27.5t23.5 71.5q0 42 -24 68.5t-63 26.5zM457 646
l-148 -137h-92l126 194z" />
    <glyph glyph-name="ocircumflex" unicode="&#xf4;" horiz-adv-x="572" 
d="M287 461q120 0 188 -67q70 -66 70 -169q0 -104 -71 -170q-71 -65 -187 -65q-119 0 -190 65q-70 66 -70 170q0 101 71 169q71 67 189 67zM289 322q-38 0 -62 -27t-24 -68q0 -46 22.5 -72.5t63.5 -26.5q40 0 63.5 27.5t23.5 71.5q0 42 -24 68.5t-63 26.5zM303 699l163 -190
h-125l-53 73l-58 -73h-120l169 190h24z" />
    <glyph glyph-name="otilde" unicode="&#xf5;" horiz-adv-x="572" 
d="M287 461q120 0 188 -67q70 -66 70 -169q0 -104 -71 -170q-71 -65 -187 -65q-119 0 -190 65q-70 66 -70 170q0 101 71 169q71 67 189 67zM289 322q-38 0 -62 -27t-24 -68q0 -46 22.5 -72.5t63.5 -26.5q40 0 63.5 27.5t23.5 71.5q0 42 -24 68.5t-63 26.5zM413 675l42 -67
q-31 -90 -97 -90q-27 0 -73 25q-47 26 -64 26q-33 0 -57 -56l-47 68q16 40 43 65.5t59 25.5q23 0 69 -27q47 -27 67 -27q17 0 29.5 13t28.5 44z" />
    <glyph glyph-name="odieresis" unicode="&#xf6;" horiz-adv-x="572" 
d="M287 461q120 0 188 -67q70 -66 70 -169q0 -104 -71 -170q-71 -65 -187 -65q-119 0 -190 65q-70 66 -70 170q0 101 71 169q71 67 189 67zM289 322q-38 0 -62 -27t-24 -68q0 -46 22.5 -72.5t63.5 -26.5q40 0 63.5 27.5t23.5 71.5q0 42 -24 68.5t-63 26.5zM187 529
q-33 0 -54.5 22.5t-21.5 53.5q0 33 22.5 54.5t53.5 21.5q32 0 53.5 -22t21.5 -53t-21.5 -54t-53.5 -23zM387 529q-33 0 -54 22t-21 54q0 33 22 54.5t53 21.5q32 0 53.5 -22t21.5 -53t-21.5 -54t-53.5 -23z" />
    <glyph glyph-name="divide" unicode="&#xf7;" horiz-adv-x="588" 
d="M352 519q24 -23 24 -57t-24 -58q-23 -23 -57 -23t-58 23q-23 24 -23 58t23 57q24 24 58 24t57 -24zM507 344v-101h-428v101h428zM352 184q24 -23 24 -57t-24 -58q-23 -23 -57 -23t-58 23q-23 24 -23 58t23 57q24 24 58 24t57 -24z" />
    <glyph glyph-name="oslash" unicode="&#xf8;" horiz-adv-x="577" 
d="M289 461q90 0 149 -37l20 22h54l-41 -47q76 -67 76 -174q0 -104 -71 -170q-71 -65 -187 -65q-81 0 -143 33l-20 -23h-55l40 46q-81 64 -81 179q0 101 71 169q70 67 188 67zM292 331q-41 0 -67 -29.5t-26 -74.5q0 -36 14 -62l132 149q-23 17 -53 17zM385 227q0 31 -13 56
l-132 -150q19 -13 52 -13q42 0 67.5 29.5t25.5 77.5z" />
    <glyph glyph-name="ugrave" unicode="&#xf9;" horiz-adv-x="565" 
d="M48 165v281h176v-255q0 -27 14 -46t38 -19q62 0 62 90v230h177v-446h-148l-15 62h-5q-51 -69 -145 -69q-154 0 -154 172zM228 703l126 -194h-93l-147 137z" />
    <glyph glyph-name="uacute" unicode="&#xfa;" horiz-adv-x="565" 
d="M48 165v281h176v-255q0 -27 14 -46t38 -19q62 0 62 90v230h177v-446h-148l-15 62h-5q-51 -69 -145 -69q-154 0 -154 172zM450 646l-148 -137h-92l126 194z" />
    <glyph glyph-name="ucircumflex" unicode="&#xfb;" horiz-adv-x="565" 
d="M48 165v281h176v-255q0 -27 14 -46t38 -19q62 0 62 90v230h177v-446h-148l-15 62h-5q-51 -69 -145 -69q-154 0 -154 172zM296 699l163 -190h-125l-53 73l-58 -73h-120l169 190h24z" />
    <glyph glyph-name="udieresis" unicode="&#xfc;" horiz-adv-x="565" 
d="M48 165v281h176v-255q0 -27 14 -46t38 -19q62 0 62 90v230h177v-446h-148l-15 62h-5q-51 -69 -145 -69q-154 0 -154 172zM181 529q-33 0 -54.5 22.5t-21.5 53.5q0 33 22.5 54.5t53.5 21.5q32 0 53.5 -22t21.5 -53t-21.5 -54t-53.5 -23zM381 529q-33 0 -54 22t-21 54
q0 33 22 54.5t53 21.5q32 0 53.5 -22t21.5 -53t-21.5 -54t-53.5 -23z" />
    <glyph glyph-name="yacute" unicode="&#xfd;" horiz-adv-x="520" 
d="M177 447l75 -239h6l80 239h177l-288 -664h-170l116 253l-174 411h178zM439 646l-148 -137h-92l126 194z" />
    <glyph glyph-name="thorn" unicode="&#xfe;" horiz-adv-x="606" 
d="M226 32l-5 -4v-245h-175v928h175v-303q2 -2 4 -2q49 52 135 52q107 0 163 -66q57 -66 57 -167q0 -106 -65 -171q-64 -64 -164 -64q-80 0 -125 42zM320 123q38 0 62 28.5t24 70.5q0 45 -23 71.5t-63 26.5q-39 0 -63 -28.5t-24 -71.5q0 -42 24 -69.5t63 -27.5z" />
    <glyph glyph-name="ydieresis" unicode="&#xff;" horiz-adv-x="520" 
d="M177 447l75 -239h6l80 239h177l-288 -664h-170l116 253l-174 411h178zM158 527q-33 0 -54.5 22.5t-21.5 53.5q0 33 22.5 54.5t53.5 21.5q32 0 53.5 -22t21.5 -53t-21.5 -54t-53.5 -23zM358 527q-33 0 -54 22t-21 54q0 33 22 54.5t53 21.5q32 0 53.5 -22t21.5 -53
t-21.5 -54t-53.5 -23z" />
    <glyph glyph-name="Amacron" unicode="&#x100;" horiz-adv-x="688" 
d="M681 0h-192l-32 74h-229l-33 -74h-188l329 675h23zM346 331h-4l-58 -131h118zM512 734h-337v104h337v-104z" />
    <glyph glyph-name="amacron" unicode="&#x101;" horiz-adv-x="533" 
d="M331 0l-10 47h-3q-54 -59 -152 -59q-65 0 -102.5 34.5t-37.5 92.5q0 68 54.5 110.5t155.5 42.5h73v8q0 62 -88 62q-25 0 -65 -10t-69 -25v126q84 32 182 32q215 0 215 -202v-259h-153zM193 139q0 -44 48 -44q32 0 51 23t19 59v16h-47q-71 0 -71 -54zM435 539h-333v103
h333v-103z" />
    <glyph glyph-name="Abreve" unicode="&#x102;" horiz-adv-x="688" 
d="M681 0h-192l-32 74h-229l-33 -74h-188l329 675h23zM346 331h-4l-58 -131h118zM180 878h81q3 -41 27 -63t62 -22q33 0 56.5 24t28.5 61h79q-4 -67 -46 -121q-40 -51 -121 -51q-80 0 -122 50q-42 49 -45 122z" />
    <glyph glyph-name="abreve" unicode="&#x103;" horiz-adv-x="533" 
d="M331 0l-10 47h-3q-54 -59 -152 -59q-65 0 -102.5 34.5t-37.5 92.5q0 68 54.5 110.5t155.5 42.5h73v8q0 62 -88 62q-25 0 -65 -10t-69 -25v126q84 32 182 32q215 0 215 -202v-259h-153zM193 139q0 -44 48 -44q32 0 51 23t19 59v16h-47q-71 0 -71 -54zM106 680h80
q4 -42 28 -63.5t62 -21.5q33 0 56 23t28 62h79q-5 -72 -46 -124q-40 -52 -121 -52q-77 0 -120 49t-46 127z" />
    <glyph glyph-name="Aogonek" unicode="&#x104;" horiz-adv-x="688" 
d="M359 675l322 -675h-131q-70 -66 -70 -122q0 -51 64 -51q47 0 99 29l-1 -70q-65 -38 -147 -38q-59 0 -89 24t-30 67q0 40 28.5 86t80.5 83l-28 66h-229l-33 -74h-188l329 675h23zM346 331h-4l-58 -131h118z" />
    <glyph glyph-name="aogonek" unicode="&#x105;" horiz-adv-x="533" 
d="M329 7l-8 40h-3q-54 -59 -152 -59q-65 0 -102.5 34.5t-37.5 92.5q0 68 54.5 110.5t155.5 42.5h73v8q0 62 -88 62q-25 0 -65 -10t-69 -25v126q84 32 182 32q215 0 215 -202v-259h-89q-70 -66 -70 -122q0 -51 64 -51q47 0 99 29l-1 -70q-65 -38 -147 -38q-59 0 -89 24
t-30 67q0 40 28 85.5t80 82.5zM193 139q0 -44 48 -44q32 0 51 23t19 59v16h-47q-71 0 -71 -54z" />
    <glyph glyph-name="Cacute" unicode="&#x106;" horiz-adv-x="627" 
d="M590 183l1 -163q-83 -34 -190 -34q-169 0 -266 95q-95 97 -95 246q0 145 99 245q99 101 267 101q97 0 167 -26v-160q-66 29 -139 29q-85 0 -141 -49q-56 -50 -56 -141q0 -88 50.5 -135.5t136.5 -47.5q82 0 166 40zM548 844l-156 -134h-105l140 191z" />
    <glyph glyph-name="cacute" unicode="&#x107;" horiz-adv-x="444" 
d="M281 461q66 0 120 -20v-139q-43 22 -91 22t-77 -27t-29 -74t27.5 -73t75.5 -26q56 0 109 29v-134q-58 -31 -152 -31q-111 0 -174 64t-63 166q0 110 70 176q70 67 184 67zM413 646l-148 -137h-92l126 194z" />
    <glyph glyph-name="Ccircumflex" unicode="&#x108;" horiz-adv-x="627" 
d="M590 183l1 -163q-83 -34 -190 -34q-169 0 -266 95q-95 97 -95 246q0 145 99 245q99 101 267 101q97 0 167 -26v-160q-66 29 -139 29q-85 0 -141 -49q-56 -50 -56 -141q0 -88 50.5 -135.5t136.5 -47.5q82 0 166 40zM395 900l172 -181h-130l-56 67l-62 -67h-125l178 181h23
z" />
    <glyph glyph-name="ccircumflex" unicode="&#x109;" horiz-adv-x="444" 
d="M281 461q66 0 120 -20v-139q-43 22 -91 22t-77 -27t-29 -74t27.5 -73t75.5 -26q56 0 109 29v-134q-58 -31 -152 -31q-111 0 -174 64t-63 166q0 110 70 176q70 67 184 67zM265 699l163 -190h-125l-53 73l-58 -73h-120l169 190h24z" />
    <glyph glyph-name="Cdotaccent" unicode="&#x10a;" horiz-adv-x="627" 
d="M590 183l1 -163q-83 -34 -190 -34q-169 0 -266 95q-95 97 -95 246q0 145 99 245q99 101 267 101q97 0 167 -26v-160q-66 29 -139 29q-85 0 -141 -49q-56 -50 -56 -141q0 -88 50.5 -135.5t136.5 -47.5q82 0 166 40zM482 811q0 -40 -26 -67.5t-67 -27.5t-67 27t-26 66
t28 66t65 27q39 0 66 -27t27 -64z" />
    <glyph glyph-name="cdotaccent" unicode="&#x10b;" horiz-adv-x="444" 
d="M281 461q66 0 120 -20v-139q-43 22 -91 22t-77 -27t-29 -74t27.5 -73t75.5 -26q56 0 109 29v-134q-58 -31 -152 -31q-111 0 -174 64t-63 166q0 110 70 176q70 67 184 67zM362 604q0 -40 -26 -67.5t-67 -27.5t-67 27t-26 66t28 66t65 27q39 0 66 -27t27 -64z" />
    <glyph glyph-name="Ccaron" unicode="&#x10c;" horiz-adv-x="627" 
d="M590 183l1 -163q-83 -34 -190 -34q-169 0 -266 95q-95 97 -95 246q0 145 99 245q99 101 267 101q97 0 167 -26v-160q-66 29 -139 29q-85 0 -141 -49q-56 -50 -56 -141q0 -88 50.5 -135.5t136.5 -47.5q82 0 166 40zM382 821l56 73h130l-172 -181h-23l-177 181h125z" />
    <glyph glyph-name="ccaron" unicode="&#x10d;" horiz-adv-x="444" 
d="M281 461q66 0 120 -20v-139q-43 22 -91 22t-77 -27t-29 -74t27.5 -73t75.5 -26q56 0 109 29v-134q-58 -31 -152 -31q-111 0 -174 64t-63 166q0 110 70 176q70 67 184 67zM259 617l54 75h125l-163 -191h-24l-169 191h120z" />
    <glyph glyph-name="Dcaron" unicode="&#x10e;" horiz-adv-x="706" 
d="M473 333q0 86 -40 132.5t-117 46.5h-63v-364h40q89 0 134.5 44t45.5 141zM327 0h-269v659h253q171 0 262 -93q92 -92 92 -234q0 -67 -21 -126t-62 -105.5t-106.5 -73.5t-148.5 -27zM308 814l56 73h130l-172 -181h-23l-177 181h125z" />
    <glyph glyph-name="dcaron" unicode="&#x10f;" horiz-adv-x="759" 
d="M377 226q0 42 -23.5 69.5t-64.5 27.5q-38 0 -61.5 -28t-23.5 -71q0 -45 23 -71t63 -26q38 0 62.5 28t24.5 71zM421 0l-13 44l-6 1q-51 -55 -151 -55q-105 0 -162 62q-57 63 -57 164q0 109 64 176q65 68 164 68q73 0 119 -34l5 3v141q1 63 1 140h170v-355q1 -157 1 -355
h-135zM605 638q0 34 23 57.5t55 23.5q36 0 58 -24t22 -63q0 -44 -32 -103q-30 -55 -70 -101l-57 9l53 127q-52 19 -52 74z" />
    <glyph glyph-name="Dcroat" unicode="&#x110;" horiz-adv-x="706" 
d="M327 0h-269v290h-49v88h49v281h253q171 0 262 -93q92 -92 92 -234q0 -67 -21 -126t-62 -105.5t-106.5 -73.5t-148.5 -27zM473 333q0 179 -171 179h-49v-134h109v-88h-109v-142h50q170 0 170 185z" />
    <glyph glyph-name="dslash" unicode="&#x111;" horiz-adv-x="598" 
d="M417 0l-13 44l-6 1q-51 -55 -151 -55q-105 0 -162 62q-57 63 -57 164q0 109 64 176q65 68 164 68q73 0 119 -34l5 3v110h-152v74h153v97h170v-97h51v-74h-51v-270q1 -119 1 -269h-135zM373 226q0 42 -23.5 69.5t-64.5 27.5q-38 0 -61.5 -28t-23.5 -71q0 -45 23 -71
t63 -26q38 0 62.5 28t24.5 71z" />
    <glyph glyph-name="Emacron" unicode="&#x112;" horiz-adv-x="575" 
d="M254 148h283v-148h-479v659h465v-147h-269v-101h234v-141h-234v-122zM466 735h-337v104h337v-104z" />
    <glyph glyph-name="emacron" unicode="&#x113;" horiz-adv-x="523" 
d="M495 226v-26h-295q8 -89 115 -89q79 0 156 47v-122q-80 -48 -179 -48q-130 0 -198 68q-67 67 -67 170q0 101 65 169t172 68q108 0 169.5 -63t61.5 -174zM436 539h-333v103h333v-103zM271 340q-25 0 -44 -19t-24 -48h134q-10 67 -66 67z" />
    <glyph glyph-name="Ebreve" unicode="&#x114;" horiz-adv-x="575" 
d="M136 878h81q3 -41 27 -63t62 -22q33 0 56.5 24t28.5 61h79q-4 -67 -46 -121q-40 -51 -121 -51q-80 0 -122 50q-42 49 -45 122zM254 148h283v-148h-479v659h465v-147h-269v-101h234v-141h-234v-122z" />
    <glyph glyph-name="ebreve" unicode="&#x115;" horiz-adv-x="523" 
d="M495 226v-26h-295q8 -89 115 -89q79 0 156 47v-122q-80 -48 -179 -48q-130 0 -198 68q-67 67 -67 170q0 101 65 169t172 68q108 0 169.5 -63t61.5 -174zM107 680h80q4 -42 28 -63.5t62 -21.5q33 0 56 23t28 62h79q-5 -72 -46 -124q-40 -52 -121 -52q-77 0 -120 49
t-46 127zM271 340q-25 0 -44 -19t-24 -48h134q-10 67 -66 67z" />
    <glyph glyph-name="Edotaccent" unicode="&#x116;" horiz-adv-x="575" 
d="M254 148h283v-148h-479v659h465v-147h-269v-101h234v-141h-234v-122zM398 804q0 -40 -26 -67.5t-67 -27.5t-67 27t-26 66t28 66t65 27q39 0 66 -27t27 -64z" />
    <glyph glyph-name="edotaccent" unicode="&#x117;" horiz-adv-x="523" 
d="M495 226v-26h-295q8 -89 115 -89q79 0 156 47v-122q-80 -48 -179 -48q-130 0 -198 68q-67 67 -67 170q0 101 65 169t172 68q108 0 169.5 -63t61.5 -174zM365 603q0 -40 -26 -67.5t-67 -27.5t-67 27t-26 66t28 66t65 27q39 0 66 -27t27 -64zM271 340q-25 0 -44 -19
t-24 -48h134q-10 67 -66 67z" />
    <glyph glyph-name="Eogonek" unicode="&#x118;" horiz-adv-x="575" 
d="M254 148h283v-148h-73q-30 -28 -49 -61t-19 -59q0 -51 64 -51q47 0 99 29l-1 -70q-65 -38 -147 -38q-59 0 -89 24t-30 67q0 37 24.5 80.5t71.5 78.5h-330v659h465v-147h-269v-101h234v-141h-234v-122z" />
    <glyph glyph-name="eogonek" unicode="&#x119;" horiz-adv-x="523" 
d="M495 226v-26h-295q8 -89 115 -89q79 0 156 47v-122q-36 -21 -75 -33q-60 -62 -60 -112q0 -51 64 -51q47 0 99 29l-1 -70q-65 -38 -147 -38q-59 0 -89 24t-30 67q0 70 69 136h-9q-130 0 -198 68q-67 67 -67 170q0 101 65 169t172 68q108 0 169.5 -63t61.5 -174zM271 340
q-25 0 -44 -19t-24 -48h134q-10 67 -66 67z" />
    <glyph glyph-name="Ecaron" unicode="&#x11a;" horiz-adv-x="575" 
d="M254 148h283v-148h-479v659h465v-147h-269v-101h234v-141h-234v-122zM297 814l56 73h130l-172 -181h-23l-177 181h125z" />
    <glyph glyph-name="ecaron" unicode="&#x11b;" horiz-adv-x="523" 
d="M495 226v-26h-295q8 -89 115 -89q79 0 156 47v-122q-80 -48 -179 -48q-130 0 -198 68q-67 67 -67 170q0 101 65 169t172 68q108 0 169.5 -63t61.5 -174zM263 614l54 75h125l-163 -191h-24l-169 191h120zM271 340q-25 0 -44 -19t-24 -48h134q-10 67 -66 67z" />
    <glyph glyph-name="Gcircumflex" unicode="&#x11c;" horiz-adv-x="687" 
d="M39 325q0 148 100 248q101 101 271 101q114 0 195 -36v-166q-76 43 -177 43q-87 0 -138.5 -52t-51.5 -142q0 -83 42 -131.5t126 -48.5q30 0 59 8v199h170v-323q-100 -38 -240 -38q-173 0 -264 91q-92 92 -92 247zM419 894l172 -181h-130l-56 67l-62 -67h-125l178 181h23z
" />
    <glyph glyph-name="gcircumflex" unicode="&#x11d;" horiz-adv-x="529" 
d="M24 -98q0 74 69 114l-21 3q-28 4 -44 21.5t-16 40.5v3l1 3l83 86q-45 41 -45 112q0 77 59 127q61 50 148 50q41 0 92 -16h165v-75l-60 -12q21 -39 21 -77q0 -65 -53 -112q-52 -46 -146 -46q-49 0 -91 13l-19 -32l218 -25q128 -15 128 -125q0 -57 -55 -113
q-29 -32 -85.5 -51.5t-129.5 -19.5q-114 0 -167 41q-52 40 -52 90zM326 294q0 26 -16.5 43.5t-42.5 17.5t-41.5 -17t-15.5 -44q0 -30 15 -47t42 -17t43 18t16 46zM246 -105q41 0 66 18.5t25 45.5q0 17 -12.5 24t-44.5 10l-91 10q-19 -23 -19 -51q0 -25 20.5 -41t55.5 -16z
M284 699l163 -190h-125l-53 73l-58 -73h-120l169 190h24z" />
    <glyph glyph-name="Gbreve" unicode="&#x11e;" horiz-adv-x="687" 
d="M39 325q0 148 100 248q101 101 271 101q114 0 195 -36v-166q-76 43 -177 43q-87 0 -138.5 -52t-51.5 -142q0 -83 42 -131.5t126 -48.5q30 0 59 8v199h170v-323q-100 -38 -240 -38q-173 0 -264 91q-92 92 -92 247zM238 878h81q3 -41 27 -63t62 -22q33 0 56.5 24t28.5 61
h79q-4 -67 -46 -121q-40 -51 -121 -51q-80 0 -122 50q-42 49 -45 122z" />
    <glyph glyph-name="gbreve" unicode="&#x11f;" horiz-adv-x="529" 
d="M24 -98q0 74 69 114l-21 3q-28 4 -44 21.5t-16 40.5v3l1 3l83 86q-45 41 -45 112q0 77 59 127q61 50 148 50q41 0 92 -16h165v-75l-60 -12q21 -39 21 -77q0 -65 -53 -112q-52 -46 -146 -46q-49 0 -91 13l-19 -32l218 -25q128 -15 128 -125q0 -57 -55 -113
q-29 -32 -85.5 -51.5t-129.5 -19.5q-114 0 -167 41q-52 40 -52 90zM326 294q0 26 -16.5 43.5t-42.5 17.5t-41.5 -17t-15.5 -44q0 -30 15 -47t42 -17t43 18t16 46zM246 -105q41 0 66 18.5t25 45.5q0 17 -12.5 24t-44.5 10l-91 10q-19 -23 -19 -51q0 -25 20.5 -41t55.5 -16z
M103 680h80q4 -42 28 -63.5t62 -21.5q33 0 56 23t28 62h79q-5 -72 -46 -124q-40 -52 -121 -52q-77 0 -120 49t-46 127z" />
    <glyph glyph-name="Gdotaccent" unicode="&#x120;" horiz-adv-x="687" 
d="M39 325q0 148 100 248q101 101 271 101q114 0 195 -36v-166q-76 43 -177 43q-87 0 -138.5 -52t-51.5 -142q0 -83 42 -131.5t126 -48.5q30 0 59 8v199h170v-323q-100 -38 -240 -38q-173 0 -264 91q-92 92 -92 247zM499 811q0 -40 -26 -67.5t-67 -27.5t-67 27t-26 66t28 66
t65 27q39 0 66 -27t27 -64z" />
    <glyph glyph-name="gdotaccent" unicode="&#x121;" horiz-adv-x="529" 
d="M24 -98q0 74 69 114l-21 3q-28 4 -44 21.5t-16 40.5v3l1 3l83 86q-45 41 -45 112q0 77 59 127q61 50 148 50q41 0 92 -16h165v-75l-60 -12q21 -39 21 -77q0 -65 -53 -112q-52 -46 -146 -46q-49 0 -91 13l-19 -32l218 -25q128 -15 128 -125q0 -57 -55 -113
q-29 -32 -85.5 -51.5t-129.5 -19.5q-114 0 -167 41q-52 40 -52 90zM326 294q0 26 -16.5 43.5t-42.5 17.5t-41.5 -17t-15.5 -44q0 -30 15 -47t42 -17t43 18t16 46zM246 -105q41 0 66 18.5t25 45.5q0 17 -12.5 24t-44.5 10l-91 10q-19 -23 -19 -51q0 -25 20.5 -41t55.5 -16z
M363 602q0 -40 -26 -67.5t-67 -27.5t-67 27t-26 66t28 66t65 27q39 0 66 -27t27 -64z" />
    <glyph glyph-name="Gcommaaccent" unicode="&#x122;" horiz-adv-x="687" 
d="M39 325q0 148 100 248q101 101 271 101q114 0 195 -36v-166q-76 43 -177 43q-87 0 -138.5 -52t-51.5 -142q0 -83 42 -131.5t126 -48.5q30 0 59 8v199h170v-323q-100 -38 -240 -38q-173 0 -264 91q-92 92 -92 247zM323 -133q0 34 23 57.5t55 23.5q36 0 58 -24t22 -63
q0 -44 -32 -102q-30 -55 -70 -102l-57 9l53 127q-52 19 -52 74z" />
    <glyph glyph-name="gcommaaccent" unicode="&#x123;" horiz-adv-x="529" 
d="M24 -98q0 74 69 114l-21 3q-28 4 -44 21.5t-16 40.5v3l1 3l83 86q-45 41 -45 112q0 77 59 127q61 50 148 50q41 0 92 -16h165v-75l-60 -12q21 -39 21 -77q0 -65 -53 -112q-52 -46 -146 -46q-49 0 -91 13l-19 -32l218 -25q128 -15 128 -125q0 -57 -55 -113
q-29 -32 -85.5 -51.5t-129.5 -19.5q-114 0 -167 41q-52 40 -52 90zM326 294q0 26 -16.5 43.5t-42.5 17.5t-41.5 -17t-15.5 -44q0 -30 15 -47t42 -17t43 18t16 46zM246 -105q41 0 66 18.5t25 45.5q0 17 -12.5 24t-44.5 10l-91 10q-19 -23 -19 -51q0 -25 20.5 -41t55.5 -16z
M344 588q0 -34 -23 -57.5t-55 -23.5q-36 0 -58 24t-22 63q0 44 32 102q30 55 70 102l57 -9l-53 -127q52 -19 52 -74z" />
    <glyph glyph-name="Hcircumflex" unicode="&#x124;" horiz-adv-x="708" 
d="M649 659v-659h-197v266h-198v-266h-196v659h196v-244h198v244h197zM369 893l172 -181h-130l-56 67l-62 -67h-125l178 181h23z" />
    <glyph glyph-name="hcircumflex" unicode="&#x125;" horiz-adv-x="569" 
d="M519 292v-292h-176v251q0 71 -53 71q-31 0 -49.5 -24t-18.5 -69v-229h-177v711h171v-311h1q1 -1 2 -1q53 60 138 60q78 0 120 -43.5t42 -123.5zM143 932l172 -181h-130l-56 67l-62 -67h-125l178 181h23z" />
    <glyph glyph-name="Hbar" unicode="&#x126;" horiz-adv-x="708" 
d="M58 500h-42v76h42v83h196v-83h198v83h197v-83h41v-76h-41v-500h-197v266h-198v-266h-196v500zM254 500v-85h198v85h-198z" />
    <glyph glyph-name="hbar" unicode="&#x127;" horiz-adv-x="568" 
d="M519 292v-292h-176v251q0 28 -15 49.5t-38 21.5q-31 0 -49.5 -24t-18.5 -69v-229h-177v539h-42v74h42v98h171v-98h156v-74h-156v-139h1q1 -1 2 -1q54 62 138 62q78 0 120 -44t42 -125z" />
    <glyph glyph-name="Itilde" unicode="&#x128;" horiz-adv-x="319" 
d="M291 872l42 -67q-31 -90 -97 -90q-27 0 -73 25q-47 26 -64 26q-33 0 -57 -56l-47 68q16 40 43 65.5t59 25.5q23 0 69 -27t67 -27q17 0 29.5 13t28.5 44zM257 659v-659h-196v659h196z" />
    <glyph glyph-name="itilde" unicode="&#x129;" horiz-adv-x="283" 
d="M269 677l42 -67q-31 -90 -97 -90q-27 0 -73 25q-47 26 -64 26q-33 0 -57 -56l-47 68q16 40 43 65.5t59 25.5q23 0 69 -27q47 -27 67 -27q17 0 29.5 13t28.5 44zM230 446v-446h-178v446h178z" />
    <glyph glyph-name="Imacron" unicode="&#x12a;" horiz-adv-x="319" 
d="M257 659v-659h-196v659h196zM331 734h-337v104h337v-104z" />
    <glyph glyph-name="imacron" unicode="&#x12b;" horiz-adv-x="283" 
d="M230 446v-446h-178v446h178zM308 539h-333v103h333v-103z" />
    <glyph glyph-name="Ibreve" unicode="&#x12c;" horiz-adv-x="361" 
d="M15 880h81q3 -41 27 -63t62 -22q33 0 56.5 24t28.5 61h79q-4 -67 -46 -121q-41 -51 -121 -51t-122 50q-42 49 -45 122zM277 659v-659h-196v659h196z" />
    <glyph glyph-name="ibreve" unicode="&#x12d;" horiz-adv-x="283" 
d="M-22 680h80q4 -42 28 -63.5t62 -21.5q33 0 56 23t28 62h79q-5 -72 -46 -124q-40 -52 -121 -52q-77 0 -120 49t-46 127zM230 446v-446h-178v446h178z" />
    <glyph glyph-name="Iogonek" unicode="&#x12e;" horiz-adv-x="319" 
d="M257 659v-659h-63q-69 -67 -69 -121q0 -51 64 -51q47 0 99 29l-1 -70q-65 -38 -147 -38q-59 0 -89 24t-30 67q0 38 25 80.5t72 79.5h-57v659h196z" />
    <glyph glyph-name="iogonek" unicode="&#x12f;" horiz-adv-x="283" 
d="M230 446v-446h-59q-69 -67 -69 -121q0 -51 64 -51q47 0 99 29l-1 -70q-65 -38 -147 -38q-59 0 -89 24t-30 67q0 38 25 80.5t72 79.5h-43v446h178zM237 603q0 -40 -26 -67t-67 -27t-67 27t-26 66t28 66t65 27q40 0 66.5 -26.5t26.5 -65.5z" />
    <glyph glyph-name="Idot" unicode="&#x130;" horiz-adv-x="319" 
d="M256 803q0 -40 -26 -67.5t-67 -27.5t-67 27t-26 66t28 66t65 27q39 0 66 -27t27 -64zM257 659v-659h-196v659h196z" />
    <glyph glyph-name="dotlessi" unicode="&#x131;" horiz-adv-x="283" 
d="M230 446v-446h-178v446h178z" />
    <glyph glyph-name="IJ" unicode="&#x132;" horiz-adv-x="814" 
d="M554 283v376h199v-360q0 -136 -52 -217q-61 -95 -225 -95q-101 0 -171 37v158q71 -40 134 -40q61 0 88 35t27 106zM255 659v-659h-196v659h196z" />
    <glyph glyph-name="ij" unicode="&#x133;" horiz-adv-x="547" 
d="M228 446v-446h-178v446h178zM235 603q0 -40 -26 -67t-67 -27t-67 27t-26 66t28 66t65 27q40 0 66.5 -26.5t26.5 -65.5zM503 603q0 -40 -26 -67t-67 -27t-67 27t-26 66t27.5 65.5t65.5 26.5q41 0 67 -26t26 -65zM249 -233q-9 26 -27 67q-21 50 -26 66q74 6 100 38
q27 32 27 107v401h176v-415q0 -141 -78 -203q-68 -55 -172 -61z" />
    <glyph glyph-name="Jcircumflex" unicode="&#x134;" horiz-adv-x="524" 
d="M266 284v376h199v-360q0 -136 -52 -217q-61 -95 -225 -95q-101 0 -171 37v158q71 -40 134 -40q61 0 88 35t27 106zM382 893l172 -181h-130l-56 67l-62 -67h-125l178 181h23z" />
    <glyph glyph-name="jcircumflex" unicode="&#x135;" horiz-adv-x="279" 
d="M-22 -233l-52 132q71 6 98.5 38.5t27.5 107.5v401h175v-396q0 -270 -249 -283zM152 699l163 -190h-125l-53 73l-58 -73h-120l169 190h24z" />
    <glyph glyph-name="Kcommaaccent" unicode="&#x136;" horiz-adv-x="678" 
d="M58 659h197v-298l197 298h209l-223 -318l234 -341h-216l-201 320v-320h-197v659zM255 -118q0 34 23 57.5t55 23.5q36 0 58 -24t22 -63q0 -44 -32 -102q-30 -55 -70 -102l-57 9l53 127q-52 19 -52 74z" />
    <glyph glyph-name="kcommaaccent" unicode="&#x137;" horiz-adv-x="559" 
d="M351 446h195l-145 -214l153 -232h-200l-125 213v-213h-183v711h183v-463zM196 -122q0 34 23 57.5t55 23.5q36 0 58 -24t22 -63q0 -44 -32 -102q-30 -55 -70 -102l-57 9l53 127q-52 19 -52 74z" />
    <glyph glyph-name="kgreenlandic" unicode="&#x138;" horiz-adv-x="559" 
d="M359 446h186l-156 -214l163 -232h-190l-135 213v-213h-183v446h183v-198z" />
    <glyph glyph-name="Lacute" unicode="&#x139;" horiz-adv-x="542" 
d="M59 0v659h196v-511h276v-148h-472zM343 844l-156 -134h-105l140 191z" />
    <glyph glyph-name="lacute" unicode="&#x13a;" horiz-adv-x="275" 
d="M333 884l-156 -134h-105l140 191zM226 711v-711h-177v711h177z" />
    <glyph glyph-name="Lcommaaccent" unicode="&#x13b;" horiz-adv-x="542" 
d="M219 -123q0 34 23 57.5t55 23.5q36 0 58 -24t22 -63q0 -44 -32 -102q-30 -55 -70 -102l-57 9l53 127q-52 19 -52 74zM59 0v659h196v-511h276v-148h-472z" />
    <glyph glyph-name="lcommaaccent" unicode="&#x13c;" horiz-adv-x="275" 
d="M64 -123q0 34 23 57.5t55 23.5q36 0 58 -24t22 -63q0 -44 -32 -102q-30 -55 -70 -102l-57 9l53 127q-52 19 -52 74zM226 711v-711h-177v711h177z" />
    <glyph glyph-name="Lcaron" unicode="&#x13d;" horiz-adv-x="542" 
d="M371 591q0 34 23 57.5t55 23.5q36 0 58 -24t22 -63q0 -44 -32 -103q-30 -55 -70 -101l-57 9l53 127q-52 19 -52 74zM59 0v659h196v-511h276v-148h-472z" />
    <glyph glyph-name="lcaron" unicode="&#x13e;" horiz-adv-x="443" 
d="M289 640q0 34 23 57.5t55 23.5q36 0 58 -24t22 -63q0 -44 -32 -103q-30 -55 -70 -101l-57 9l53 127q-52 19 -52 74zM245 711v-711h-177v711h177z" />
    <glyph glyph-name="Ldot" unicode="&#x13f;" horiz-adv-x="542" 
d="M518 365q0 -40 -26 -67.5t-67 -27.5t-67 27t-26 66t28 66t65 27q39 0 66 -27t27 -64zM59 0v659h196v-511h276v-148h-472z" />
    <glyph glyph-name="ldot" unicode="&#x140;" horiz-adv-x="463" 
d="M465 364q0 -40 -26 -67.5t-67 -27.5t-67 27t-26 66t28 66t65 27q39 0 66 -27t27 -64zM245 711v-711h-177v711h177z" />
    <glyph glyph-name="Lslash" unicode="&#x141;" horiz-adv-x="542" 
d="M59 244l-62 -24v76l62 25v338h196v-271l116 48v-80l-116 -46v-162h276v-148h-472v244z" />
    <glyph glyph-name="lslash" unicode="&#x142;" horiz-adv-x="275" 
d="M226 324v-324h-178v266l-31 -13q-24 -8 -31 -12v76l31 13l31 13v368h178v-307l69 28v-80q-7 -4 -36 -15z" />
    <glyph glyph-name="Nacute" unicode="&#x143;" horiz-adv-x="721" 
d="M254 322v-322h-196v676h23l381 -325h4v308h196v-674h-21l-384 337h-3zM519 843l-156 -134h-105l140 191z" />
    <glyph glyph-name="nacute" unicode="&#x144;" horiz-adv-x="572" 
d="M191 446l19 -55l4 -1q58 70 150 70q77 0 117.5 -43.5t40.5 -124.5v-292h-177v251q0 32 -13.5 51.5t-38.5 19.5q-31 0 -50 -24t-19 -69v-229h-176v446h143zM426 646l-148 -137h-92l126 194z" />
    <glyph glyph-name="Ncommaaccent" unicode="&#x145;" horiz-adv-x="721" 
d="M254 322v-322h-196v676h23l381 -325h4v308h196v-674h-21l-384 337h-3zM302 -118q0 34 23 57.5t55 23.5q36 0 58 -24t22 -63q0 -44 -32 -102q-30 -55 -70 -102l-57 9l53 127q-52 19 -52 74z" />
    <glyph glyph-name="ncommaaccent" unicode="&#x146;" horiz-adv-x="572" 
d="M191 446l19 -55l4 -1q58 70 150 70q77 0 117.5 -43.5t40.5 -124.5v-292h-177v251q0 32 -13.5 51.5t-38.5 19.5q-31 0 -50 -24t-19 -69v-229h-176v446h143zM207 -121q0 34 23 57.5t55 23.5q36 0 58 -24t22 -63q0 -44 -32 -102q-30 -55 -70 -102l-57 9l53 127
q-52 19 -52 74z" />
    <glyph glyph-name="Ncaron" unicode="&#x147;" horiz-adv-x="721" 
d="M254 322v-322h-196v676h23l381 -325h4v308h196v-674h-21l-384 337h-3zM366 814l56 73h130l-172 -181h-23l-177 181h125z" />
    <glyph glyph-name="ncaron" unicode="&#x148;" horiz-adv-x="572" 
d="M191 446l19 -55l4 -1q58 70 150 70q77 0 117.5 -43.5t40.5 -124.5v-292h-177v251q0 32 -13.5 51.5t-38.5 19.5q-31 0 -50 -24t-19 -69v-229h-176v446h143zM269 614l54 75h125l-163 -191h-24l-169 191h120z" />
    <glyph glyph-name="napostrophe" unicode="&#x149;" horiz-adv-x="649" 
d="M268 446l19 -55l4 -1q58 70 150 70q77 0 117.5 -43.5t40.5 -124.5v-292h-177v251q0 32 -13.5 51.5t-38.5 19.5q-31 0 -50 -24t-19 -69v-229h-176v446h143zM3 660q0 34 23 57.5t55 23.5q36 0 58 -24t22 -63q0 -44 -32 -103q-30 -55 -70 -101l-57 9l53 127q-52 19 -52 74z
" />
    <glyph glyph-name="Eng" unicode="&#x14a;" horiz-adv-x="721" 
d="M254 335v-335h-196v678h23l381 -342h4v323h196v-607q0 -276 -259 -289l-59 135q71 6 99.5 41.5t28.5 111.5v70l-215 214h-3z" />
    <glyph glyph-name="eng" unicode="&#x14b;" horiz-adv-x="572" 
d="M523 292v-247q0 -264 -252 -278l-52 131q72 6 99 38.5t27 107.5v39v88q1 36 1 78q0 29 -15 51t-37 22q-31 0 -50 -24t-19 -69v-229h-177v446h145l20 -59q57 73 151 73q77 0 118 -43.5t41 -124.5z" />
    <glyph glyph-name="Omacron" unicode="&#x14c;" horiz-adv-x="805" 
d="M401 -12q-163 0 -263 97q-99 97 -99 245q0 145 102 244q103 99 262 99t260 -99q101 -98 101 -244q0 -148 -102 -245q-101 -97 -261 -97zM404 513q-75 0 -122 -53t-47 -130q0 -82 46 -134q47 -53 123 -53t121 53q46 52 46 134q0 78 -45 130q-45 53 -122 53zM570 735h-337
v104h337v-104z" />
    <glyph glyph-name="omacron" unicode="&#x14d;" horiz-adv-x="572" 
d="M287 461q120 0 188 -67q70 -66 70 -169q0 -104 -71 -170q-71 -65 -187 -65q-119 0 -190 65q-70 66 -70 170q0 101 71 169q71 67 189 67zM289 322q-38 0 -62 -27t-24 -68q0 -46 22.5 -72.5t63.5 -26.5q40 0 63.5 27.5t23.5 71.5q0 42 -24 68.5t-63 26.5zM455 539h-333v103
h333v-103z" />
    <glyph glyph-name="Obreve" unicode="&#x14e;" horiz-adv-x="805" 
d="M401 -12q-163 0 -263 97q-99 97 -99 245q0 145 102 244q103 99 262 99t260 -99q101 -98 101 -244q0 -148 -102 -245q-101 -97 -261 -97zM404 513q-75 0 -122 -53t-47 -130q0 -82 46 -134q47 -53 123 -53t121 53q46 52 46 134q0 78 -45 130q-45 53 -122 53zM237 878h81
q3 -41 27 -63t62 -22q33 0 56.5 24t28.5 61h79q-4 -67 -46 -121q-41 -51 -121 -51t-122 50q-42 49 -45 122z" />
    <glyph glyph-name="obreve" unicode="&#x14f;" horiz-adv-x="572" 
d="M287 461q120 0 188 -67q70 -66 70 -169q0 -104 -71 -170q-71 -65 -187 -65q-119 0 -190 65q-70 66 -70 170q0 101 71 169q71 67 189 67zM289 322q-38 0 -62 -27t-24 -68q0 -46 22.5 -72.5t63.5 -26.5q40 0 63.5 27.5t23.5 71.5q0 42 -24 68.5t-63 26.5zM122 680h80
q4 -42 28 -63.5t62 -21.5q33 0 56 23t28 62h79q-5 -72 -46 -124q-40 -52 -121 -52q-77 0 -120 49t-46 127z" />
    <glyph glyph-name="Ohungarumlaut" unicode="&#x150;" horiz-adv-x="805" 
d="M401 -12q-163 0 -263 97q-99 97 -99 245q0 145 102 244q103 99 262 99t260 -99q101 -98 101 -244q0 -148 -102 -245q-101 -97 -261 -97zM404 513q-75 0 -122 -53t-47 -130q0 -82 46 -134q47 -53 123 -53t121 53q46 52 46 134q0 78 -45 130q-45 53 -122 53zM672 844
l-156 -134h-104l139 191zM498 844l-156 -134h-104l139 191z" />
    <glyph glyph-name="ohungarumlaut" unicode="&#x151;" horiz-adv-x="572" 
d="M287 461q120 0 188 -67q70 -66 70 -169q0 -104 -71 -170q-71 -65 -187 -65q-119 0 -190 65q-70 66 -70 170q0 101 71 169q71 67 189 67zM289 322q-38 0 -62 -27t-24 -68q0 -46 22.5 -72.5t63.5 -26.5q40 0 63.5 27.5t23.5 71.5q0 42 -24 68.5t-63 26.5zM540 660
l-148 -137h-92l126 194zM372 660l-148 -137h-92l126 194z" />
    <glyph glyph-name="OE" unicode="&#x152;" horiz-adv-x="987" 
d="M666 147h283v-147h-443q-48 -12 -105 -12q-164 0 -263 96q-99 98 -99 246q0 146 101 245q102 99 262 99q62 0 114 -15h418v-147h-268v-101h233v-141h-233v-123zM404 143q35 0 66 14v344q-36 14 -66 14q-76 0 -123 -53q-46 -52 -46 -132q0 -83 46 -135t123 -52z" />
    <glyph glyph-name="oe" unicode="&#x153;" horiz-adv-x="872" 
d="M286 461q112 0 170 -67q58 69 157 69q108 0 170 -63t62 -174v-24h-295q6 -92 115 -92q83 0 156 46v-120q-79 -48 -179 -48q-120 0 -184 70q-59 -68 -178 -68t-187 65q-67 64 -67 170q0 101 71 169q71 67 189 67zM288 322q-38 0 -62 -27t-24 -68q0 -46 22.5 -72.5
t63.5 -26.5q40 0 63.5 27.5t23.5 71.5q0 42 -24 68.5t-63 26.5zM621 340q-25 0 -44 -19t-24 -48h134q-10 67 -66 67z" />
    <glyph glyph-name="Racute" unicode="&#x154;" horiz-adv-x="657" 
d="M58 659h288q108 0 182 -60q74 -59 74 -163q0 -123 -103 -193l149 -243h-212l-140 263v16q55 11 84 46.5t29 78.5q0 48 -27 78t-74 30h-55v-512h-195v659zM473 844l-156 -134h-105l140 191z" />
    <glyph glyph-name="racute" unicode="&#x155;" horiz-adv-x="413" 
d="M181 446l18 -72h5q34 85 128 85q36 0 72 -14v-159q-38 21 -81 21q-45 0 -72 -31t-27 -89v-187h-176v446h133zM338 646l-148 -137h-92l126 194z" />
    <glyph glyph-name="Rcommaaccent" unicode="&#x156;" horiz-adv-x="657" 
d="M58 659h288q108 0 182 -60q74 -59 74 -163q0 -123 -103 -193l149 -243h-212l-140 263v16q55 11 84 46.5t29 78.5q0 48 -27 78t-74 30h-55v-512h-195v659zM242 -117q0 34 23 57.5t55 23.5q36 0 58 -24t22 -63q0 -44 -32 -102q-30 -55 -70 -102l-57 9l53 127q-52 19 -52 74
z" />
    <glyph glyph-name="rcommaaccent" unicode="&#x157;" horiz-adv-x="413" 
d="M181 446l18 -72h5q34 85 128 85q36 0 72 -14v-159q-38 21 -81 21q-45 0 -72 -31t-27 -89v-187h-176v446h133zM59 -123q0 34 23 57.5t55 23.5q36 0 58 -24t22 -63q0 -44 -32 -102q-30 -55 -70 -102l-57 9l53 127q-52 19 -52 74z" />
    <glyph glyph-name="Rcaron" unicode="&#x158;" horiz-adv-x="657" 
d="M58 659h288q108 0 182 -60q74 -59 74 -163q0 -123 -103 -193l149 -243h-212l-140 263v16q55 11 84 46.5t29 78.5q0 48 -27 78t-74 30h-55v-512h-195v659zM302 814l56 73h130l-172 -181h-23l-177 181h125z" />
    <glyph glyph-name="rcaron" unicode="&#x159;" horiz-adv-x="413" 
d="M181 446l18 -72h5q34 85 128 85q36 0 72 -14v-159q-38 21 -81 21q-45 0 -72 -31t-27 -89v-187h-176v446h133zM194 614l54 75h125l-163 -191h-24l-169 191h120z" />
    <glyph glyph-name="Sacute" unicode="&#x15a;" horiz-adv-x="566" 
d="M31 40v169q41 -32 106 -54q67 -21 114 -21q87 0 87 52q0 47 -106 92q-40 17 -68 32t-61 40t-50 59t-16 75q0 80 63 136q65 56 180 56q111 0 212 -43v-157q-31 20 -87 37q-54 17 -93 17q-79 0 -79 -46q0 -17 22.5 -33t55.5 -28t72.5 -32.5t72.5 -44.5t55.5 -65.5
t22.5 -94.5q0 -80 -64 -140t-194 -60q-149 0 -245 54zM445 843l-156 -134h-105l140 191z" />
    <glyph glyph-name="sacute" unicode="&#x15b;" horiz-adv-x="414" 
d="M21 28v134q31 -26 78 -42q49 -17 81 -17q48 0 48 26q0 12 -20.5 24.5t-50 26t-59 31t-50 47t-20.5 66.5q0 59 48.5 97.5t132.5 38.5q78 0 157 -32v-124q-64 37 -130 37q-42 0 -42 -24q0 -12 31 -26t67.5 -28.5t67.5 -50t31 -84.5q0 -56 -47 -98q-47 -41 -144 -41
q-106 0 -179 39zM358 646l-148 -137h-92l126 194z" />
    <glyph glyph-name="Scircumflex" unicode="&#x15c;" horiz-adv-x="566" 
d="M31 40v169q41 -32 106 -54q67 -21 114 -21q87 0 87 52q0 47 -106 92q-40 17 -68 32t-61 40t-50 59t-16 75q0 80 63 136q65 56 180 56q111 0 212 -43v-157q-31 20 -87 37q-54 17 -93 17q-79 0 -79 -46q0 -17 22.5 -33t55.5 -28t72.5 -32.5t72.5 -44.5t55.5 -65.5
t22.5 -94.5q0 -80 -64 -140t-194 -60q-149 0 -245 54zM303 895l172 -181h-130l-56 67l-62 -67h-125l178 181h23z" />
    <glyph glyph-name="scircumflex" unicode="&#x15d;" horiz-adv-x="414" 
d="M21 28v134q31 -26 78 -42q49 -17 81 -17q48 0 48 26q0 12 -20.5 24.5t-50 26t-59 31t-50 47t-20.5 66.5q0 59 48.5 97.5t132.5 38.5q78 0 157 -32v-124q-64 37 -130 37q-42 0 -42 -24q0 -12 31 -26t67.5 -28.5t67.5 -50t31 -84.5q0 -56 -47 -98q-47 -41 -144 -41
q-106 0 -179 39zM223 699l163 -190h-125l-53 73l-58 -73h-120l169 190h24z" />
    <glyph glyph-name="Scedilla" unicode="&#x15e;" horiz-adv-x="566" 
d="M383 -150q0 -41 -34 -75q-33 -34 -109 -34q-43 0 -90 16v73q37 -19 81 -19q22 0 38 11.5t16 29.5q0 17 -13.5 26t-34.5 9q-18 0 -36 -9l-16 10l49 100q-125 8 -203 52v169q41 -32 106 -54q67 -21 114 -21q87 0 87 52q0 47 -106 92q-40 17 -68 32t-61 40t-50 59t-16 75
q0 80 63 136q65 56 180 56q111 0 212 -43v-157q-31 20 -87 37q-54 17 -93 17q-79 0 -79 -46q0 -17 22.5 -33t55.5 -28t72.5 -32.5t72.5 -44.5t55.5 -65.5t22.5 -94.5q0 -74 -55 -132q-60 -63 -191 -68l-19 -39q55 -4 84.5 -30.5t29.5 -66.5z" />
    <glyph glyph-name="scedilla" unicode="&#x15f;" horiz-adv-x="414" 
d="M305 -149q0 -41 -34 -75q-33 -34 -109 -34q-43 0 -90 16v73q37 -19 81 -19q22 0 38 11.5t16 29.5q0 17 -13.5 26t-34.5 9q-18 0 -36 -9l-16 10l50 102q-85 9 -136 37v134q31 -26 78 -42q49 -17 81 -17q48 0 48 26q0 12 -20.5 24.5t-50 26t-59 31t-50 47t-20.5 66.5
q0 59 48.5 97.5t132.5 38.5q78 0 157 -32v-124q-64 37 -130 37q-42 0 -42 -24q0 -12 31 -26t67.5 -28.5t67.5 -50t31 -84.5q0 -58 -46 -97t-134 -42l-20 -41q55 -4 84.5 -30.5t29.5 -66.5z" />
    <glyph glyph-name="Scaron" unicode="&#x160;" horiz-adv-x="566" 
d="M31 40v169q41 -32 106 -54q67 -21 114 -21q87 0 87 52q0 47 -106 92q-40 17 -68 32t-61 40t-50 59t-16 75q0 80 63 136q65 56 180 56q111 0 212 -43v-157q-31 20 -87 37q-54 17 -93 17q-79 0 -79 -46q0 -17 22.5 -33t55.5 -28t72.5 -32.5t72.5 -44.5t55.5 -65.5
t22.5 -94.5q0 -80 -64 -140t-194 -60q-149 0 -245 54zM269 814l56 73h130l-172 -181h-23l-177 181h125z" />
    <glyph glyph-name="scaron" unicode="&#x161;" horiz-adv-x="414" 
d="M21 28v134q31 -26 78 -42q49 -17 81 -17q48 0 48 26q0 12 -20.5 24.5t-50 26t-59 31t-50 47t-20.5 66.5q0 59 48.5 97.5t132.5 38.5q78 0 157 -32v-124q-64 37 -130 37q-42 0 -42 -24q0 -12 31 -26t67.5 -28.5t67.5 -50t31 -84.5q0 -56 -47 -98q-47 -41 -144 -41
q-106 0 -179 39zM203 614l54 75h125l-163 -191h-24l-169 191h120z" />
    <glyph glyph-name="Tcommaaccent" unicode="&#x162;" horiz-adv-x="578" 
d="M404 -149q0 -41 -34 -75q-33 -34 -109 -34q-43 0 -90 16v73q37 -19 81 -19q22 0 38 11.5t16 29.5q0 17 -13.5 26t-34.5 9q-18 0 -36 -9l-16 10l54 111h-70v512h-179v148h555v-148h-180v-512h-71l-25 -52q55 -4 84.5 -30.5t29.5 -66.5z" />
    <glyph glyph-name="tcommaaccent" unicode="&#x163;" horiz-adv-x="394" 
d="M308 -149q0 -41 -34 -75q-33 -34 -109 -34q-43 0 -90 16v73q37 -19 81 -19q22 0 38 11.5t16 29.5q0 17 -13.5 26t-34.5 9q-18 0 -36 -9l-16 10l55 112q-86 36 -86 176v141h-66v97l217 182h24v-151h115v-128h-115v-128q0 -65 53 -65q32 0 72 22v-127q-53 -33 -131 -33
q-4 0 -34 2l-20 -41q55 -4 84.5 -30.5t29.5 -66.5z" />
    <glyph glyph-name="Tcaron" unicode="&#x164;" horiz-adv-x="578" 
d="M566 660v-148h-180v-512h-196v512h-179v148h555zM290 814l56 73h130l-172 -181h-23l-177 181h125z" />
    <glyph glyph-name="tcaron" unicode="&#x165;" horiz-adv-x="470" 
d="M3 415l217 182h24v-151h115v-128h-115v-128q0 -65 53 -65q32 0 72 22v-127q-53 -33 -131 -33q-87 0 -128 46t-41 144v141h-66v97zM317 690q0 34 23 57.5t55 23.5q36 0 58 -24t22 -63q0 -44 -32 -103q-30 -55 -70 -101l-57 9l53 127q-52 19 -52 74z" />
    <glyph glyph-name="Tbar" unicode="&#x166;" horiz-adv-x="578" 
d="M566 660v-148h-180v-147h132v-76h-132v-289h-196v289h-131v76h131v147h-179v148h555z" />
    <glyph glyph-name="tbar" unicode="&#x167;" horiz-adv-x="395" 
d="M13 414l217 183h24v-151h115v-128h-115v-40h92v-65h-92v-32q0 -32 11.5 -45t41.5 -13q32 0 72 22v-125q-53 -33 -131 -33q-169 0 -169 182v44h-54v65h54v40h-66v96z" />
    <glyph glyph-name="Utilde" unicode="&#x168;" horiz-adv-x="714" 
d="M459 260v399h196v-385q0 -129 -76 -208q-77 -78 -222 -78q-147 0 -223 74.5t-76 205.5v391h197v-393q0 -51 27.5 -85t75.5 -34q47 0 74 32.5t27 80.5zM484 875l42 -67q-32 -90 -97 -90q-27 0 -73 25q-47 26 -64 26q-33 0 -57 -56l-47 68q16 40 43 65.5t59 25.5
q22 0 69 -27t67 -27q30 0 58 57z" />
    <glyph glyph-name="utilde" unicode="&#x169;" horiz-adv-x="565" 
d="M48 165v281h176v-255q0 -27 14 -46t38 -19q62 0 62 90v230h177v-446h-148l-15 62h-5q-51 -69 -145 -69q-154 0 -154 172zM409 675l42 -67q-32 -90 -97 -90q-27 0 -73 25q-47 26 -64 26q-33 0 -57 -56l-47 68q16 40 43 65.5t59 25.5q23 0 69 -27t67 -27q17 0 29.5 13
t28.5 44z" />
    <glyph glyph-name="Umacron" unicode="&#x16a;" horiz-adv-x="714" 
d="M459 260v399h196v-385q0 -129 -76 -208q-77 -78 -222 -78q-147 0 -223 74.5t-76 205.5v391h197v-393q0 -51 27.5 -85t75.5 -34q47 0 74 32.5t27 80.5zM528 734h-337v104h337v-104z" />
    <glyph glyph-name="umacron" unicode="&#x16b;" horiz-adv-x="565" 
d="M48 165v281h176v-255q0 -27 14 -46t38 -19q62 0 62 90v230h177v-446h-148l-15 62h-5q-51 -69 -145 -69q-154 0 -154 172zM450 539h-333v103h333v-103z" />
    <glyph glyph-name="Ubreve" unicode="&#x16c;" horiz-adv-x="714" 
d="M198 878h81q3 -41 27 -63t62 -22q33 0 56.5 24t28.5 61h79q-4 -67 -46 -121q-40 -51 -121 -51q-80 0 -122 50q-42 49 -45 122zM459 260v399h196v-385q0 -129 -76 -208q-77 -78 -222 -78q-147 0 -223 74.5t-76 205.5v391h197v-393q0 -51 27.5 -85t75.5 -34q47 0 74 32.5
t27 80.5z" />
    <glyph glyph-name="ubreve" unicode="&#x16d;" horiz-adv-x="565" 
d="M48 165v281h176v-255q0 -27 14 -46t38 -19q62 0 62 90v230h177v-446h-148l-15 62h-5q-51 -69 -145 -69q-154 0 -154 172zM115 678h80q4 -42 28 -63.5t62 -21.5q33 0 56 23t28 62h79q-5 -72 -46 -124q-40 -52 -121 -52q-77 0 -120 49t-46 127z" />
    <glyph glyph-name="Uring" unicode="&#x16e;" horiz-adv-x="714" 
d="M226 824q0 54 38 92q38 39 93 39q57 0 95 -38q39 -37 39 -93q0 -53 -39 -89q-38 -36 -95 -36t-94 35.5t-37 89.5zM357 874q-18 0 -31 -15t-13 -35q0 -18 12.5 -31t31.5 -13q20 0 33 13t13 31q0 21 -13 35.5t-33 14.5zM459 260v399h196v-385q0 -129 -76 -208
q-77 -78 -222 -78q-147 0 -223 74.5t-76 205.5v391h197v-393q0 -51 27.5 -85t75.5 -34q47 0 74 32.5t27 80.5z" />
    <glyph glyph-name="uring" unicode="&#x16f;" horiz-adv-x="565" 
d="M150 621q0 54 38 92q38 39 93 39q57 0 95 -38q39 -38 39 -93q0 -53 -39 -89q-38 -36 -95 -36t-94 35.5t-37 89.5zM281 671q-18 0 -31 -15t-13 -35q0 -18 12.5 -31t31.5 -13q20 0 33 13t13 31q0 21 -13 35.5t-33 14.5zM48 165v281h176v-255q0 -27 14 -46t38 -19
q62 0 62 90v230h177v-446h-148l-15 62h-5q-51 -69 -145 -69q-154 0 -154 172z" />
    <glyph glyph-name="Uhungarumlaut" unicode="&#x170;" horiz-adv-x="714" 
d="M459 260v399h196v-385q0 -129 -76 -208q-77 -78 -222 -78q-147 0 -223 74.5t-76 205.5v391h197v-393q0 -51 27.5 -85t75.5 -34q47 0 74 32.5t27 80.5zM628 844l-156 -134h-104l139 191zM454 844l-156 -134h-104l139 191z" />
    <glyph glyph-name="uhungarumlaut" unicode="&#x171;" horiz-adv-x="565" 
d="M48 165v281h176v-255q0 -27 14 -46t38 -19q62 0 62 90v230h177v-446h-148l-15 62h-5q-51 -69 -145 -69q-154 0 -154 172zM519 660l-148 -137h-92l126 194zM351 660l-148 -137h-92l126 194z" />
    <glyph glyph-name="Uogonek" unicode="&#x172;" horiz-adv-x="714" 
d="M459 260v399h196v-385q0 -120 -65.5 -196t-188.5 -88q-64 -64 -64 -116q0 -51 64 -51q47 0 99 29l-1 -70q-65 -38 -147 -38q-59 0 -89 24t-30 67q0 36 23 78t66 77q-130 9 -197 82t-67 196v391h197v-393q0 -51 27.5 -85t75.5 -34q47 0 74 32.5t27 80.5z" />
    <glyph glyph-name="uogonek" unicode="&#x173;" horiz-adv-x="565" 
d="M48 165v281h176v-255q0 -27 14 -46t38 -19q62 0 62 90v230h177v-446h-87q-62 -60 -62 -113q0 -50 64 -50q47 0 99 29q0 -8 -0.5 -35.5t-0.5 -35.5q-64 -37 -147 -37q-58 0 -88.5 24t-30.5 67q0 38 26.5 82.5t75.5 79.5l-12 51h-5q-51 -71 -142 -71q-157 0 -157 174z" />
    <glyph glyph-name="Wcircumflex" unicode="&#x174;" horiz-adv-x="998" 
d="M672 -17l-174 357l-173 -357h-24l-295 676h210l123 -285h4l143 296h23l149 -296h4q23 59 60 142q49 112 61 143h208l-295 -676h-24zM512 893l172 -181h-130l-56 67l-62 -67h-125l178 181h23z" />
    <glyph glyph-name="wcircumflex" unicode="&#x175;" horiz-adv-x="777" 
d="M266 267l111 192h20l120 -192h4l79 179h178l-226 -457h-23l-140 229l-137 -229h-23l-229 457h180l82 -179h4zM402 699l163 -190h-125l-53 73l-58 -73h-120l169 190h24z" />
    <glyph glyph-name="Ycircumflex" unicode="&#x176;" horiz-adv-x="648" 
d="M217 659l110 -255h4q10 32 44 114l56 141h210l-219 -415v-244h-196v244l-220 415h211zM343 893l172 -181h-130l-56 67l-62 -67h-125l178 181h23z" />
    <glyph glyph-name="ycircumflex" unicode="&#x177;" horiz-adv-x="520" 
d="M177 447l75 -239h6l80 239h177l-288 -664h-170l116 253l-174 411h178zM275 699l163 -190h-125l-53 73l-58 -73h-120l169 190h24z" />
    <glyph glyph-name="Ydieresis" unicode="&#x178;" horiz-adv-x="648" 
d="M306 789q0 -33 -21.5 -55.5t-54.5 -22.5t-55 22.5t-22 53.5q0 33 23 55t54 22q32 0 54 -22.5t22 -52.5zM506 789q0 -33 -21 -55.5t-54 -22.5t-54.5 22.5t-21.5 53.5q0 33 22.5 55t53.5 22q32 0 53.5 -22t21.5 -53zM217 659l110 -255h4q10 32 44 114l56 141h210l-219 -415
v-244h-196v244l-220 415h211z" />
    <glyph glyph-name="Zacute" unicode="&#x179;" horiz-adv-x="616" 
d="M58 659h540v-17l-288 -495h273v-147h-567v18l290 494h-248v147zM503 844l-156 -134h-105l140 191z" />
    <glyph glyph-name="zacute" unicode="&#x17a;" horiz-adv-x="458" 
d="M41 446h403v-13l-192 -304h179v-129h-420v13l191 303h-161v130zM409 646l-148 -137h-92l126 194z" />
    <glyph glyph-name="Zdotaccent" unicode="&#x17b;" horiz-adv-x="616" 
d="M58 659h540v-17l-288 -495h273v-147h-567v18l290 494h-248v147zM431 805q0 -40 -26 -67.5t-67 -27.5t-67 27t-26 66t28 66t65 27q39 0 66 -27t27 -64z" />
    <glyph glyph-name="zdotaccent" unicode="&#x17c;" horiz-adv-x="458" 
d="M41 446h403v-13l-192 -304h179v-129h-420v13l191 303h-161v130zM338 599q0 -40 -26 -67.5t-67 -27.5t-67 27t-26 66t28 66t65 27q39 0 66 -27t27 -64z" />
    <glyph glyph-name="Zcaron" unicode="&#x17d;" horiz-adv-x="616" 
d="M58 659h540v-17l-288 -495h273v-147h-567v18l290 494h-248v147zM333 814l56 73h130l-172 -181h-23l-177 181h125z" />
    <glyph glyph-name="zcaron" unicode="&#x17e;" horiz-adv-x="458" 
d="M41 446h403v-13l-192 -304h179v-129h-420v13l191 303h-161v130zM242 614l54 75h125l-163 -191h-24l-169 191h120z" />
    <glyph glyph-name="longs" unicode="&#x17f;" horiz-adv-x="324" 
d="M408 713v-133q-39 14 -73 14q-86 0 -86 -94v-500h-174v317h-70v115l70 15v60q0 108 58.5 164.5t166.5 56.5q56 0 108 -15z" />
    <glyph glyph-name="florin" unicode="&#x192;" horiz-adv-x="588" 
d="M206 289h-79v115h91l6 62q16 210 195 210q59 0 120 -18v-142q-36 11 -63 11q-67 0 -74 -73l-5 -50h108v-115h-118l-14 -144q-13 -132 -63.5 -191.5t-147.5 -59.5q-51 0 -118 23v145q42 -14 70 -14q40 0 56 30q18 32 25 111z" />
    <glyph glyph-name="AEacute" unicode="&#x1fc;" horiz-adv-x="940" 
d="M902 148v-148h-461v89h-175l-63 -89h-205l488 659h402v-147h-269v-101h234v-141h-234v-122h283zM446 350h-4l-110 -153h114v153zM774 844l-156 -134h-105l140 191z" />
    <glyph glyph-name="aeacute" unicode="&#x1fd;" horiz-adv-x="813" 
d="M553 463q109 0 170.5 -61.5t61.5 -172.5v-28h-296q7 -94 116 -94q82 0 156 46v-117q-79 -48 -180 -48q-133 0 -193 72q-68 -74 -193 -74q-78 0 -125.5 35t-47.5 94q0 67 53.5 109t147.5 43l83 1v8q0 62 -88 62q-26 0 -67.5 -10t-70.5 -25v126q84 32 183 32q101 0 148 -53
q61 55 142 55zM596 646l-148 -137h-92l126 194zM192 144q0 -22 13 -34.5t35 -12.5q32 0 50.5 24.5t18.5 64.5v13h-41q-76 0 -76 -55zM561 340q-30 0 -49 -20t-21 -53h137q-4 73 -67 73z" />
    <glyph glyph-name="Oslashacute" unicode="&#x1fe;" horiz-adv-x="805" 
d="M401 -13q-114 0 -197 49l-28 -36h-66l52 64q-122 98 -122 266q0 145 102 244q104 99 261 99q116 0 205 -56l34 43h63l-57 -72q116 -99 116 -258q0 -148 -102 -245q-103 -98 -261 -98zM230 330q0 -78 42 -129l231 288q-44 30 -98 30q-78 0 -127 -55q-48 -54 -48 -134z
M405 137q78 0 124 55q47 56 47 138q0 69 -38 122l-230 -287q43 -28 97 -28zM603 848l-156 -134h-105l140 191z" />
    <glyph glyph-name="oslashacute" unicode="&#x1ff;" horiz-adv-x="577" 
d="M289 461q90 0 149 -37l20 22h54l-41 -47q76 -67 76 -174q0 -104 -71 -170q-71 -65 -187 -65q-81 0 -143 33l-20 -23h-55l40 46q-81 64 -81 179q0 101 71 169q70 67 188 67zM292 331q-41 0 -67 -29.5t-26 -74.5q0 -36 14 -62l132 149q-23 17 -53 17zM385 227q0 31 -13 56
l-132 -150q19 -13 52 -13q42 0 67.5 29.5t25.5 77.5zM472 646l-148 -137h-92l126 194z" />
    <glyph glyph-name="Scommaaccent" unicode="&#x218;" horiz-adv-x="566" 
d="M31 40v169q41 -32 106 -54q67 -21 114 -21q87 0 87 52q0 47 -106 92q-40 17 -68 32t-61 40t-50 59t-16 75q0 80 63 136q65 56 180 56q111 0 212 -43v-157q-31 20 -87 37q-54 17 -93 17q-79 0 -79 -46q0 -17 22.5 -33t55.5 -28t72.5 -32.5t72.5 -44.5t55.5 -65.5
t22.5 -94.5q0 -80 -64 -140t-194 -60q-149 0 -245 54zM178 -123q0 34 23 57.5t55 23.5q36 0 58 -24t22 -63q0 -44 -32 -102q-30 -55 -70 -102l-57 9l53 127q-52 19 -52 74z" />
    <glyph glyph-name="scommaaccent" unicode="&#x219;" horiz-adv-x="414" 
d="M21 28v134q31 -26 78 -42q49 -17 81 -17q48 0 48 26q0 12 -20.5 24.5t-50 26t-59 31t-50 47t-20.5 66.5q0 59 48.5 97.5t132.5 38.5q78 0 157 -32v-124q-64 37 -130 37q-42 0 -42 -24q0 -12 31 -26t67.5 -28.5t67.5 -50t31 -84.5q0 -56 -47 -98q-47 -41 -144 -41
q-106 0 -179 39zM120 -123q0 34 23 57.5t55 23.5q36 0 58 -24t22 -63q0 -44 -32 -102q-30 -55 -70 -102l-57 9l53 127q-52 19 -52 74z" />
    <glyph glyph-name="uni021A" unicode="&#x21a;" horiz-adv-x="578" 
d="M566 660v-148h-180v-512h-196v512h-179v148h555zM206 -119q0 34 23 57.5t55 23.5q36 0 58 -24t22 -63q0 -44 -32 -102q-30 -55 -70 -102l-57 9l53 127q-52 19 -52 74z" />
    <glyph glyph-name="uni021B" unicode="&#x21b;" horiz-adv-x="394" 
d="M13 415l217 182h24v-151h115v-128h-115v-128q0 -65 53 -65q32 0 72 22v-127q-53 -33 -131 -33q-87 0 -128 46t-41 144v141h-66v97zM107 -123q0 34 23 57.5t55 23.5q36 0 58 -24t22 -63q0 -44 -32 -102q-30 -55 -70 -102l-57 9l53 127q-52 19 -52 74z" />
    <glyph glyph-name="schwa" unicode="&#x259;" horiz-adv-x="535" 
d="M269 -12q-108 0 -170 63t-62 174v22h296q-8 98 -115 98q-78 0 -155 -47v117q79 48 193 48q129 0 189 -67q60 -68 60 -171q0 -101 -65 -169t-171 -68zM261 111q29 0 48.5 22.5t21.5 55.5h-137q4 -78 67 -78z" />
    <glyph glyph-name="primemod" unicode="&#x2b9;" horiz-adv-x="281" 
d="M265 571l-157 -278h-91l135 335z" />
    <glyph glyph-name="circumflex" unicode="&#x2c6;" horiz-adv-x="527" 
d="M282 699l163 -190h-125l-53 73l-58 -73h-120l169 190h24z" />
    <glyph glyph-name="caron" unicode="&#x2c7;" horiz-adv-x="527" 
d="M267 614l54 75h125l-163 -191h-24l-169 191h120z" />
    <glyph glyph-name="breve" unicode="&#x2d8;" horiz-adv-x="557" 
d="M111 680h80q4 -42 28 -63.5t62 -21.5q33 0 56 23t28 62h79q-5 -72 -46 -124q-40 -52 -121 -52q-77 0 -120 49t-46 127z" />
    <glyph glyph-name="dotaccent" unicode="&#x2d9;" horiz-adv-x="546" 
d="M379 599q0 -40 -26 -67.5t-67 -27.5t-67 27t-26 66t28 66t65 27q39 0 66 -27t27 -64z" />
    <glyph glyph-name="ring" unicode="&#x2da;" horiz-adv-x="533" 
d="M143 623q0 54 38 92q37 39 93 39q57 0 95 -38q39 -38 39 -93q0 -53 -39 -89q-37 -36 -95 -36q-57 0 -94 35.5t-37 89.5zM274 673q-18 0 -31 -15t-13 -35q0 -18 12.5 -31t31.5 -13q20 0 33 13t13 31q0 21 -13 35.5t-33 14.5z" />
    <glyph glyph-name="ogonek" unicode="&#x2db;" horiz-adv-x="534" 
d="M393 47l27 -26q-37 -31 -60.5 -68t-23.5 -66q0 -51 64 -51q47 0 99 29l-1 -70q-65 -38 -147 -38q-59 0 -89 24t-30 67q0 49 42 105t119 94z" />
    <glyph glyph-name="tilde" unicode="&#x2dc;" horiz-adv-x="527" 
d="M397 675l42 -67q-31 -90 -97 -90q-27 0 -73 25q-47 26 -64 26q-33 0 -57 -56l-47 68q16 40 43 65.5t59 25.5q23 0 69 -27t67 -27q17 0 29.5 13t28.5 44z" />
    <glyph glyph-name="hungarumlaut" unicode="&#x2dd;" horiz-adv-x="527" 
d="M507 660l-148 -137h-92l126 194zM339 660l-148 -137h-92l126 194z" />
    <glyph glyph-name="tonos" unicode="&#x384;" horiz-adv-x="527" 
d="M435 660l-148 -137h-92l126 194z" />
    <glyph glyph-name="dieresistonos" unicode="&#x385;" horiz-adv-x="565" 
d="M49 606q0 32 22.5 54t53.5 22q32 1 54 -22.5t21.5 -53t-21.5 -53.5q-21 -23 -54 -23q-32 0 -54 22.5t-22 53.5zM386 606q0 32 22 54t53 22q51 2 71 -47t-16 -82q-23 -23 -55 -23t-53.5 22.5t-21.5 53.5zM410 684l-135 -161h-93l114 218z" />
    <glyph glyph-name="Alphatonos" unicode="&#x386;" horiz-adv-x="688" 
d="M681 0h-192l-32 74h-229l-33 -74h-188l329 675h23zM346 331h-4l-58 -131h118zM211 637l-148 -137h-92l126 194z" />
    <glyph glyph-name="anoteleia" unicode="&#x387;" horiz-adv-x="290" 
d="M225 333q0 -34 -24.5 -59t-58.5 -25q-35 0 -60.5 25t-25.5 59q0 35 25.5 60t60.5 25q34 0 58.5 -25t24.5 -60z" />
    <glyph glyph-name="Epsilontonos" unicode="&#x388;" horiz-adv-x="575" 
d="M254 148h283v-148h-479v659h465v-147h-269v-101h234v-141h-234v-122zM25 637l-148 -137h-92l126 194z" />
    <glyph glyph-name="Etatonos" unicode="&#x389;" horiz-adv-x="708" 
d="M649 659v-659h-197v266h-198v-266h-196v659h196v-244h198v244h197zM25 637l-148 -137h-92l126 194z" />
    <glyph glyph-name="Iotatonos" unicode="&#x38a;" horiz-adv-x="319" 
d="M30 637l-148 -137h-92l126 194zM257 659v-659h-196v659h196z" />
    <glyph glyph-name="Omicrontonos" unicode="&#x38c;" horiz-adv-x="805" 
d="M401 -12q-163 0 -263 97q-99 97 -99 245q0 145 102 244q103 99 262 99t260 -99q101 -98 101 -244q0 -148 -102 -245q-101 -97 -261 -97zM404 513q-75 0 -122 -53t-47 -130q0 -82 46 -134q47 -53 123 -53t121 53q46 52 46 134q0 78 -45 130q-45 53 -122 53zM86 637
l-148 -137h-92l126 194z" />
    <glyph glyph-name="Upsilontonos" unicode="&#x38e;" horiz-adv-x="648" 
d="M217 659l110 -255h4q10 32 44 114l56 141h210l-219 -415v-244h-196v244l-220 415h211zM-6 637l-148 -137h-92l126 194z" />
    <glyph glyph-name="Omegatonos" unicode="&#x38f;" horiz-adv-x="803" 
d="M402 513q-79 0 -122 -58q-42 -59 -42 -147q0 -80 30 -162q31 -82 79 -124v-22h-323v147h87q2 2 2 4q-66 95 -66 206q0 137 98 227q97 90 258 90q157 0 255 -89t98 -224q0 -113 -67 -210q1 -1 1 -4h85v-147h-323v22q51 38 83 120q31 81 31 164q0 90 -42 148
q-42 59 -122 59zM77 637l-148 -137h-92l126 194z" />
    <glyph glyph-name="iotadieresistonos" unicode="&#x390;" horiz-adv-x="281" 
d="M-98 606q0 32 22.5 54t53.5 22q32 1 54 -22.5t21.5 -53t-21.5 -53.5q-21 -23 -54 -23q-32 0 -54 22.5t-22 53.5zM239 606q0 32 22 54t53 22q51 2 71 -47t-16 -82q-23 -23 -55 -23t-53.5 22.5t-21.5 53.5zM263 684l-135 -161h-93l114 218zM229 446v-446h-178v446h178z" />
    <glyph glyph-name="Alpha" unicode="&#x391;" horiz-adv-x="688" 
d="M681 0h-192l-32 74h-229l-33 -74h-188l329 675h23zM346 331h-4l-58 -131h118z" />
    <glyph glyph-name="Beta" unicode="&#x392;" horiz-adv-x="657" 
d="M509 359v-4q53 -23 80.5 -65.5t27.5 -94.5q0 -79 -59 -138q-58 -57 -151 -57h-348v660h326q87 0 139 -48q53 -48 53 -120q0 -83 -68 -133zM430 213q0 29 -21.5 46.5t-58.5 17.5h-100v-130h105q75 0 75 66zM330 517h-81v-114h79q27 0 46.5 14.5t19.5 42.5q0 25 -17.5 41
t-46.5 16z" />
    <glyph glyph-name="Gamma" unicode="&#x393;" horiz-adv-x="545" 
d="M529 512h-275v-512h-196v659h471v-147z" />
    <glyph glyph-name="increment" unicode="&#x394;" horiz-adv-x="695" 
d="M339 675h23l325 -675h-679zM347 357h-2l-99 -211h198z" />
    <glyph glyph-name="increment" unicode="&#x2206;" horiz-adv-x="695" 
d="M339 675h23l325 -675h-679zM347 357h-2l-99 -211h198z" />
    <glyph glyph-name="Epsilon" unicode="&#x395;" horiz-adv-x="575" 
d="M254 148h283v-148h-479v659h465v-147h-269v-101h234v-141h-234v-122z" />
    <glyph glyph-name="Zeta" unicode="&#x396;" horiz-adv-x="616" 
d="M58 659h540v-17l-288 -495h273v-147h-567v18l290 494h-248v147z" />
    <glyph glyph-name="Eta" unicode="&#x397;" horiz-adv-x="708" 
d="M649 659v-659h-197v266h-198v-266h-196v659h196v-244h198v244h197z" />
    <glyph glyph-name="Theta" unicode="&#x398;" horiz-adv-x="805" 
d="M401 -13q-162 0 -262 97t-100 246q0 145 103 244q103 100 261 100q161 0 261 -99q101 -99 101 -245q0 -148 -103 -245q-103 -98 -261 -98zM404 514q-75 0 -122 -53t-47 -131q0 -80 47 -135q47 -53 122 -53t122 53q46 53 46 135q0 79 -46 131q-45 53 -122 53zM515 272
h-225v118h225v-118z" />
    <glyph glyph-name="Iota" unicode="&#x399;" horiz-adv-x="319" 
d="M257 659v-659h-196v659h196z" />
    <glyph glyph-name="Kappa" unicode="&#x39a;" horiz-adv-x="678" 
d="M58 659h197v-298l197 298h209l-223 -318l234 -341h-216l-201 320v-320h-197v659z" />
    <glyph glyph-name="Lambda" unicode="&#x39b;" horiz-adv-x="688" 
d="M681 0h-200l-135 299h-4l-140 -299h-195l329 675h23z" />
    <glyph glyph-name="Mu" unicode="&#x39c;" horiz-adv-x="815" 
d="M563 273l-142 -152h-24l-147 152h-3v-273h-189v674h23l328 -338l326 338h21v-674h-190v136q1 57 1 137h-4z" />
    <glyph glyph-name="Nu" unicode="&#x39d;" horiz-adv-x="721" 
d="M254 322v-322h-196v676h23l381 -325h4v308h196v-674h-21l-384 337h-3z" />
    <glyph glyph-name="Xi" unicode="&#x39e;" horiz-adv-x="632" 
d="M588 660v-148h-545v148h545zM35 0v149h562v-149h-562zM103 270v143h434v-143h-434z" />
    <glyph glyph-name="Omicron" unicode="&#x39f;" horiz-adv-x="805" 
d="M401 -12q-163 0 -263 97q-99 97 -99 245q0 145 102 244q103 99 262 99t260 -99q101 -98 101 -244q0 -148 -102 -245q-101 -97 -261 -97zM404 513q-75 0 -122 -53t-47 -130q0 -82 46 -134q47 -53 123 -53t121 53q46 52 46 134q0 78 -45 130q-45 53 -122 53z" />
    <glyph glyph-name="Pi" unicode="&#x3a0;" horiz-adv-x="710" 
d="M650 659v-659h-196v512h-200v-512h-196v659h592z" />
    <glyph glyph-name="Rho" unicode="&#x3a1;" horiz-adv-x="604" 
d="M254 0h-196v659h271q126 0 192 -66q67 -64 67 -158q0 -96 -67 -160q-67 -65 -180 -65h-87v-210zM302 516h-49v-166h29q113 0 113 82q0 37 -24.5 60.5t-68.5 23.5z" />
    <glyph glyph-name="Sigma" unicode="&#x3a3;" horiz-adv-x="610" 
d="M316 512l103 -169l-113 -196h293v-147h-586q0 2 0.5 9t0.5 9l187 323l-179 301v17h559v-147h-265z" />
    <glyph glyph-name="Tau" unicode="&#x3a4;" horiz-adv-x="578" 
d="M566 660v-148h-180v-512h-196v512h-179v148h555z" />
    <glyph glyph-name="Upsilon" unicode="&#x3a5;" horiz-adv-x="648" 
d="M217 659l110 -255h4q10 32 44 114l56 141h210l-219 -415v-244h-196v244l-220 415h211z" />
    <glyph glyph-name="Phi" unicode="&#x3a6;" horiz-adv-x="918" 
d="M882 341q0 -113 -87 -191q-85 -76 -239 -90v-60h-192v60q-158 7 -244 84q-85 76 -85 197q0 114 91 192q92 79 238 86v40h193v-41q147 -9 235 -88q90 -80 90 -189zM695 340q0 55 -39 97q-37 43 -101 48v-292q62 6 101 47.5t39 99.5zM364 193v293q-64 -7 -103 -49t-39 -98
q0 -57 37.5 -97t104.5 -49z" />
    <glyph glyph-name="Chi" unicode="&#x3a7;" horiz-adv-x="704" 
d="M16 659h211l124 -275l125 275h211l-160 -318l170 -341h-211l-135 298l-134 -298h-211l170 341z" />
    <glyph glyph-name="Psi" unicode="&#x3a8;" horiz-adv-x="874" 
d="M535 166v-166h-196v166q-145 9 -219.5 86t-74.5 206v202h197v-211q0 -47 26.5 -82.5t70.5 -39.5v332h196v-331q46 4 71.5 36.5t25.5 78.5v217h197v-196q0 -126 -75 -208q-75 -81 -219 -90z" />
    <glyph glyph-name="Omega" unicode="&#x3a9;" horiz-adv-x="803" 
d="M402 513q-79 0 -122 -58q-42 -59 -42 -147q0 -80 30 -162q31 -82 79 -124v-22h-323v147h87q2 2 2 4q-66 95 -66 206q0 137 98 227q97 90 258 90q157 0 255 -89t98 -224q0 -113 -67 -210q1 -1 1 -4h85v-147h-323v22q51 38 83 120q31 81 31 164q0 90 -42 148
q-42 59 -122 59z" />
    <glyph glyph-name="Iotadieresis" unicode="&#x3aa;" horiz-adv-x="319" 
d="M257 659v-659h-196v659h196zM137 793q0 -33 -21.5 -55.5t-54.5 -22.5t-55 22.5t-22 53.5q0 33 23 55t54 22q32 0 54 -22.5t22 -52.5zM337 793q0 -33 -21 -55.5t-54 -22.5t-54.5 22.5t-21.5 53.5q0 33 22.5 55t53.5 22q32 0 53.5 -22t21.5 -53z" />
    <glyph glyph-name="Upsilondieresis" unicode="&#x3ab;" horiz-adv-x="648" 
d="M305 786q0 -33 -21.5 -55.5t-54.5 -22.5t-55 22.5t-22 53.5q0 33 23 55t54 22q32 0 54 -22.5t22 -52.5zM505 786q0 -33 -21 -55.5t-54 -22.5t-54.5 22.5t-21.5 53.5q0 33 22.5 55t53.5 22q32 0 53.5 -22t21.5 -53zM217 659l110 -255h4q10 32 44 114l56 141h210l-219 -415
v-244h-196v244l-220 415h211z" />
    <glyph glyph-name="alphatonos" unicode="&#x3ac;" horiz-adv-x="603" 
d="M289 321q-38 0 -62 -27t-24 -68q0 -46 22.5 -72.5t63.5 -26.5q40 0 63.5 27.5t23.5 71.5q0 42 -24 68.5t-63 26.5zM264 460q97 0 153 -62l21 49h116v-447h-133l-17 51q-62 -60 -157 -60q-102 0 -161 60.5t-59 165.5q0 103 63 173q64 70 174 70zM441 660l-148 -137h-92
l126 194z" />
    <glyph glyph-name="epsilontonos" unicode="&#x3ad;" horiz-adv-x="427" 
d="M216 -10q-95 0 -144.5 34t-49.5 92q0 33 21 65.5t61 51.5v4q-35 12 -54 36.5t-19 55.5q0 59 52 96.5t143 37.5q81 0 159 -27v-129q-19 12 -55.5 21t-66.5 9q-65 0 -65 -32q0 -27 41 -27h65v-97h-47q-56 0 -56 -35q0 -33 65 -33q30 0 70.5 12.5t68.5 30.5v-126
q-76 -40 -189 -40zM374 660l-148 -137h-92l126 194z" />
    <glyph glyph-name="etatonos" unicode="&#x3ae;" horiz-adv-x="572" 
d="M191 446l19 -55l4 -1q58 70 150 70q77 0 117.5 -43.5t40.5 -124.5v-292h-177v251q0 32 -13.5 51.5t-38.5 19.5q-31 0 -50 -24t-19 -69v-229h-176v446h143zM425 660l-148 -137h-92l126 194z" />
    <glyph glyph-name="iotatonos" unicode="&#x3af;" horiz-adv-x="281" 
d="M315 660l-148 -137h-92l126 194zM229 446v-446h-178v446h178z" />
    <glyph glyph-name="upsilondieresistonos" unicode="&#x3b0;" horiz-adv-x="564" 
d="M41 606q0 32 22.5 54t53.5 22q32 1 54 -22.5t21.5 -53t-21.5 -53.5q-21 -23 -54 -23q-32 0 -54 22.5t-22 53.5zM378 606q0 32 22 54t53 22q51 2 71 -47t-16 -82q-23 -23 -55 -23t-53.5 22.5t-21.5 53.5zM402 684l-135 -161h-93l114 218zM339 207v239h177v-214
q0 -69 -22.5 -119t-60 -75.5t-77 -36.5t-83.5 -11q-106 0 -166 53t-60 149v254h176v-252q0 -31 14.5 -49.5t42.5 -18.5q59 0 59 81z" />
    <glyph glyph-name="alpha" unicode="&#x3b1;" horiz-adv-x="603" 
d="M289 321q-38 0 -62 -27t-24 -68q0 -46 22.5 -72.5t63.5 -26.5q40 0 63.5 27.5t23.5 71.5q0 42 -24 68.5t-63 26.5zM264 460q97 0 153 -62l21 49h116v-447h-133l-17 51q-62 -60 -157 -60q-102 0 -161 60.5t-59 165.5q0 103 63 173q64 70 174 70z" />
    <glyph glyph-name="beta" unicode="&#x3b2;" horiz-adv-x="597" 
d="M216 27v-236h-179v638q0 131 62 214q63 83 195 83q103 0 162 -52q60 -52 60 -130q0 -42 -19.5 -77t-58.5 -52v-5q64 -23 96 -74t32 -116q0 -102 -64 -166q-63 -64 -155 -64q-71 0 -125 39q-4 0 -6 -2zM300 124q41 0 65.5 30t24.5 76q0 52 -32.5 81t-85.5 29v107
q38 1 57.5 20.5t19.5 50.5q0 27 -17.5 46.5t-46.5 19.5q-72 0 -72 -106v-249q0 -48 22 -76.5t65 -28.5z" />
    <glyph glyph-name="gamma" unicode="&#x3b3;" horiz-adv-x="548" 
d="M276 187h4l39 127l43 132h180l-173 -452v-105q1 -47 1 -107h-179l2 214l-188 450h187l41 -124q7 -19 20 -64q10 -33 23 -71z" />
    <glyph glyph-name="delta" unicode="&#x3b4;" horiz-adv-x="578" 
d="M378 237q0 95 -91 120q-38 -9 -60.5 -43t-22.5 -77q0 -49 22.5 -79t65.5 -30q39 0 62.5 31.5t23.5 77.5zM304 726q111 0 176 -39v-128q-32 17 -76 27q-44 12 -79 12q-70 0 -70 -41q0 -19 18.5 -32.5t61 -32t66.5 -32.5q40 -24 71 -48q34 -26 55 -72.5t21 -103.5
q0 -106 -70 -176q-69 -70 -189 -70q-121 0 -190 66t-69 174q0 65 33 120.5t89 81.5v6q-66 40 -66 119q0 73 59 121t159 48z" />
    <glyph glyph-name="epsilon" unicode="&#x3b5;" horiz-adv-x="427" 
d="M216 -10q-95 0 -144.5 34t-49.5 92q0 33 21 65.5t61 51.5v4q-35 12 -54 36.5t-19 55.5q0 59 52 96.5t143 37.5q81 0 159 -27v-129q-19 12 -55.5 21t-66.5 9q-65 0 -65 -32q0 -27 41 -27h65v-97h-47q-56 0 -56 -35q0 -33 65 -33q30 0 70.5 12.5t68.5 30.5v-126
q-76 -40 -189 -40z" />
    <glyph glyph-name="zeta" unicode="&#x3b6;" horiz-adv-x="449" 
d="M261 578q-1 1 -1 7h-196v128h470v-15q-129 -132 -231 -273q-101 -140 -101 -201q0 -33 41 -61q39 -23 42 -25q39 -21 53 -28q26 -12 55 -29q75 -42 75 -85q0 -40 -43 -96q-41 -58 -98 -102l-111 56q26 30 30 35l22 24q21 25 21 40q0 13 -30 30l-43 21q-99 47 -144.5 92
t-45.5 107q0 75 67 176t168 199z" />
    <glyph glyph-name="eta" unicode="&#x3b7;" horiz-adv-x="571" 
d="M191 446l19 -55l4 -1q58 70 150 70q77 0 117.5 -43.5t40.5 -124.5v-292h-177v251q0 32 -13.5 51.5t-38.5 19.5q-31 0 -50 -24t-19 -69v-229h-176v446h143z" />
    <glyph glyph-name="theta" unicode="&#x3b8;" horiz-adv-x="591" 
d="M556 353q0 -111 -33 -197q-27 -76 -84.5 -121t-145.5 -45q-144 0 -206 113q-55 106 -55 250q0 72 14 136t43.5 118.5t82 86.5t122.5 32q73 0 127.5 -33.5t82.5 -92.5q52 -107 52 -247zM207 429h176q-2 68 -25.5 111t-63.5 43t-62.5 -43.5t-24.5 -110.5zM386 311h-180
q2 -180 88 -180q90 0 92 180z" />
    <glyph glyph-name="iota" unicode="&#x3b9;" horiz-adv-x="281" 
d="M229 446v-446h-178v446h178z" />
    <glyph glyph-name="kappa" unicode="&#x3ba;" horiz-adv-x="562" 
d="M363 446h186l-156 -214l163 -232h-190l-135 213v-213h-183v446h183v-198z" />
    <glyph glyph-name="lambda" unicode="&#x3bb;" horiz-adv-x="537" 
d="M348 0l-76 252h-5l-88 -252h-173l187 444l-98 278h173l263 -722h-183z" />
    <glyph glyph-name="nu" unicode="&#x3bd;" horiz-adv-x="558" 
d="M550 446l-258 -457h-27l-258 457h185l42 -81q22 -42 44 -96h4q10 26 39 89l41 88h188z" />
    <glyph glyph-name="xi" unicode="&#x3be;" horiz-adv-x="468" 
d="M315 594q-44 0 -70 -19.5t-26 -52.5q0 -74 102 -74h89v-119h-112q-47 0 -72 -21.5t-25 -61.5q0 -35 43 -69q41 -33 95 -58q50 -22 95 -57q44 -35 44 -69q0 -74 -140 -182l-106 56q65 65 65 91q0 11 -18 23.5t-65 34.5q-92 45 -139 89q-47 45 -47 116q0 59 32 106.5
t93 70.5v5q-55 14 -82 52t-27 85q0 75 62 129q61 55 172 55q105 0 174 -31v-132q-61 33 -137 33z" />
    <glyph glyph-name="omicron" unicode="&#x3bf;" horiz-adv-x="572" 
d="M287 461q120 0 188 -67q70 -66 70 -169q0 -104 -71 -170q-71 -65 -187 -65q-119 0 -190 65q-70 66 -70 170q0 101 71 169q71 67 189 67zM289 322q-38 0 -62 -27t-24 -68q0 -46 22.5 -72.5t63.5 -26.5q40 0 63.5 27.5t23.5 71.5q0 42 -24 68.5t-63 26.5z" />
    <glyph glyph-name="pi" unicode="&#x3c0;" horiz-adv-x="574" 
d="M524 447v-447h-176v315h-124v-315h-176v447h476z" />
    <glyph glyph-name="rho" unicode="&#x3c1;" horiz-adv-x="595" 
d="M216 24l-4 -2v-232h-177v386q0 130 71 207q72 77 197 77q118 0 189 -67q72 -67 72 -174q0 -102 -63 -165q-62 -63 -163 -63q-72 0 -122 33zM390 224q0 45 -23.5 72.5t-64.5 27.5t-65.5 -28.5t-24.5 -74.5q0 -41 24 -68.5t65 -27.5q39 0 64 27.5t25 71.5z" />
    <glyph glyph-name="sigma1" unicode="&#x3c2;" horiz-adv-x="472" 
d="M30 221q0 102 62 170q63 69 194 69q82 0 148 -32v-131q-44 28 -123 28q-49 0 -76.5 -22.5t-27.5 -59.5q-1 -38 25.5 -65.5t93.5 -60.5q62 -31 89.5 -56.5t27.5 -55.5q0 -78 -144 -175l-106 57q62 62 62 77q0 11 -43 33l-30 15l-21 11q-131 65 -131 198z" />
    <glyph glyph-name="sigma" unicode="&#x3c3;" horiz-adv-x="595" 
d="M579 317l-77 3l-1 -4q22 -18 35.5 -52t13.5 -65q0 -87 -68 -149q-67 -61 -190 -61q-126 0 -194 66q-67 66 -67 159q0 100 71 166q70 66 189 66l288 1v-130zM301 321q-41 -1 -66.5 -29t-25.5 -69q0 -44 23 -70.5t63 -26.5q39 0 63 27.5t24 70.5q0 39 -21.5 65.5
t-59.5 31.5z" />
    <glyph glyph-name="tau" unicode="&#x3c4;" horiz-adv-x="415" 
d="M4 317v128l386 3v-131h-122v-127q0 -67 53 -67q32 0 72 22v-125q-53 -33 -131 -33q-169 0 -169 179v151h-89z" />
    <glyph glyph-name="upsilon" unicode="&#x3c5;" horiz-adv-x="564" 
d="M339 207v239h177v-214q0 -69 -22.5 -119t-60 -75.5t-77 -36.5t-83.5 -11q-106 0 -166 53t-60 149v254h176v-252q0 -31 14.5 -49.5t42.5 -18.5q59 0 59 81z" />
    <glyph glyph-name="phi" unicode="&#x3c6;" horiz-adv-x="775" 
d="M30 219q0 77 49 138q50 62 147 83l51 -87q-75 -37 -75 -124q0 -39 27 -74q29 -36 74 -37l1 334h171q121 0 195 -63q75 -63 75 -166q0 -97 -76 -164q-75 -68 -196 -72v-205h-174l3 206q-137 7 -205 75q-67 67 -67 156zM579 222q0 45 -27 74t-82 32v-213q47 3 78 34t31 73z
" />
    <glyph glyph-name="chi" unicode="&#x3c7;" horiz-adv-x="547" 
d="M540 0h-179l-88 191l-90 -191h-177l116 230l-110 216h177l84 -178l84 178h177l-110 -216z" />
    <glyph glyph-name="psi" unicode="&#x3c8;" horiz-adv-x="780" 
d="M478 -218h-177v204q-122 8 -188 80q-66 74 -66 180v200h173v-218q0 -39 22 -71q23 -33 59 -36v325h176v-325q37 2 59 30.5t22 77.5v217h174v-199q0 -100 -67 -176t-188 -85v-101q1 -46 1 -103z" />
    <glyph glyph-name="omega" unicode="&#x3c9;" horiz-adv-x="781" 
d="M750 220q0 -99 -55 -164q-56 -65 -157 -65q-106 0 -149 64h-5q-54 -64 -145 -64q-99 0 -155 63q-54 65 -54 164q0 103 60 168t167 73l33 -114q-38 -7 -59.5 -40.5t-21.5 -84.5q0 -96 59 -96q24 0 38.5 18t14.5 46v110h138v-112q0 -28 15 -45t36 -17q61 0 61 96
q0 51 -21 84.5t-59 40.5l34 114q107 -8 166 -72t59 -167z" />
    <glyph glyph-name="iotadieresis" unicode="&#x3ca;" horiz-adv-x="281" 
d="M44 529q-33 0 -54.5 22.5t-21.5 53.5q0 33 22.5 54.5t53.5 21.5q32 0 53.5 -22t21.5 -53t-21.5 -54t-53.5 -23zM244 529q-33 0 -54 22t-21 54q0 33 22 54.5t53 21.5q32 0 53.5 -22t21.5 -53t-21.5 -54t-53.5 -23zM229 446v-446h-178v446h178z" />
    <glyph glyph-name="upsilondieresis" unicode="&#x3cb;" horiz-adv-x="564" 
d="M183 529q-33 0 -54.5 22.5t-21.5 53.5q0 33 22.5 54.5t53.5 21.5q32 0 53.5 -22t21.5 -53t-21.5 -54t-53.5 -23zM383 529q-33 0 -54 22t-21 54q0 33 22 54.5t53 21.5q32 0 53.5 -22t21.5 -53t-21.5 -54t-53.5 -23zM339 207v239h177v-214q0 -69 -22.5 -119t-60 -75.5
t-77 -36.5t-83.5 -11q-106 0 -166 53t-60 149v254h176v-252q0 -31 14.5 -49.5t42.5 -18.5q59 0 59 81z" />
    <glyph glyph-name="omicrontonos" unicode="&#x3cc;" horiz-adv-x="580" 
d="M290 461q120 0 188 -67q70 -66 70 -169q0 -104 -71 -170q-71 -65 -187 -65q-119 0 -190 65q-70 66 -70 170q0 101 71 169q71 67 189 67zM292 322q-38 0 -62 -27t-24 -68q0 -46 22.5 -72.5t63.5 -26.5q40 0 63.5 27.5t23.5 71.5q0 42 -24 68.5t-63 26.5zM467 660
l-148 -137h-92l126 194z" />
    <glyph glyph-name="upsilontonos" unicode="&#x3cd;" horiz-adv-x="574" 
d="M348 207v239h177v-214q0 -69 -22.5 -119t-60 -75.5t-77 -36.5t-83.5 -11q-106 0 -166 53t-60 149v254h176v-252q0 -31 14.5 -49.5t42.5 -18.5q59 0 59 81zM455 660l-148 -137h-92l126 194z" />
    <glyph glyph-name="omegatonos" unicode="&#x3ce;" horiz-adv-x="781" 
d="M750 220q0 -99 -55 -164q-56 -65 -157 -65q-106 0 -149 64h-5q-54 -64 -145 -64q-99 0 -155 63q-54 65 -54 164q0 103 60 168t167 73l33 -114q-38 -7 -59.5 -40.5t-21.5 -84.5q0 -96 59 -96q24 0 38.5 18t14.5 46v110h138v-112q0 -28 15 -45t36 -17q61 0 61 96
q0 51 -21 84.5t-59 40.5l34 114q107 -8 166 -72t59 -167zM566 653l-148 -137h-92l126 194z" />
    <glyph glyph-name="afii10023" unicode="&#x401;" horiz-adv-x="575" 
d="M270 793q0 -33 -21.5 -55.5t-54.5 -22.5t-55 22.5t-22 53.5q0 33 23 55t54 22q32 0 54 -22.5t22 -52.5zM470 793q0 -33 -21 -55.5t-54 -22.5t-54.5 22.5t-21.5 53.5q0 33 22.5 55t53.5 22q32 0 53.5 -22t21.5 -53zM254 148h283v-148h-479v659h465v-147h-269v-101h234
v-141h-234v-122z" />
    <glyph glyph-name="afii10051" unicode="&#x402;" horiz-adv-x="847" 
d="M586 660v-148h-200v-132q81 29 161 29q116 0 190 -62t74 -179q0 -106 -61 -188q-61 -84 -148 -125l-113 80q57 34 89 88q33 55 33 108q0 67 -33 104t-94 37q-46 0 -98 -20v-252h-196v512h-179v148h575z" />
    <glyph glyph-name="afii10052" unicode="&#x403;" horiz-adv-x="545" 
d="M529 512h-275v-512h-196v659h471v-147zM457 844l-156 -134h-105l140 191z" />
    <glyph glyph-name="afii10053" unicode="&#x404;" horiz-adv-x="627" 
d="M590 183v-163q-79 -33 -190 -33q-168 0 -265 95q-96 94 -96 245q0 145 99 245q99 101 267 101q97 0 168 -27v-159q-65 28 -139 28q-64 0 -112.5 -29t-65.5 -81h223v-129h-234q9 -65 57 -99.5t122 -34.5q81 0 166 41z" />
    <glyph glyph-name="afii10054" unicode="&#x405;" horiz-adv-x="566" 
d="M31 40v169q41 -32 106 -54q67 -21 114 -21q87 0 87 52q0 47 -106 92q-40 17 -68 32t-61 40t-50 59t-16 75q0 80 63 136q65 56 180 56q111 0 212 -43v-157q-31 20 -87 37q-54 17 -93 17q-79 0 -79 -46q0 -17 22.5 -33t55.5 -28t72.5 -32.5t72.5 -44.5t55.5 -65.5
t22.5 -94.5q0 -80 -64 -140t-194 -60q-149 0 -245 54z" />
    <glyph glyph-name="afii10055" unicode="&#x406;" horiz-adv-x="319" 
d="M257 659v-659h-196v659h196z" />
    <glyph glyph-name="afii10056" unicode="&#x407;" horiz-adv-x="363" 
d="M157 793q0 -33 -21.5 -55.5t-54.5 -22.5t-55 22.5t-22 53.5q0 33 23 55t54 22q32 0 54 -22.5t22 -52.5zM357 793q0 -33 -21 -55.5t-54 -22.5t-54.5 22.5t-21.5 53.5q0 33 22.5 55t53.5 22q32 0 53.5 -22t21.5 -53zM278 659v-659h-196v659h196z" />
    <glyph glyph-name="afii10057" unicode="&#x408;" horiz-adv-x="524" 
d="M266 283v376h199v-360q0 -136 -52 -217q-61 -95 -225 -95q-101 0 -171 37v158q71 -40 134 -40q61 0 88 35t27 106z" />
    <glyph glyph-name="afii10058" unicode="&#x409;" horiz-adv-x="1042" 
d="M450 520h-115l-22 -243q-3 -35 -8 -69q-12 -86 -39 -125q-63 -94 -192 -109l-73 133q69 15 95 44q25 28 30 98l34 410h486v-245h107q129 0 192 -58q25 -22 42 -55q24 -49 24 -102q0 -90 -64 -145q-63 -54 -157 -54h-340v520zM732 283h-86v-144h91q35 0 56 19.5t21 52.5
t-23 52.5t-59 19.5z" />
    <glyph glyph-name="afii10059" unicode="&#x40a;" horiz-adv-x="1041" 
d="M789 0h-342v277h-192v-277h-196v660h196v-250h192v250h197v-249h107q130 0 192 -57q25 -22 42 -55q24 -49 24 -101q0 -90 -63 -144t-157 -54zM730 281h-86v-140h91q36 0 56.5 18t20.5 51t-22.5 52t-59.5 19z" />
    <glyph glyph-name="afii10060" unicode="&#x40b;" horiz-adv-x="827" 
d="M579 660v-148h-193v-134q99 29 178 29q100 0 154.5 -47t54.5 -140v-220h-198v166q0 49 -22 71.5t-70 22.5q-41 0 -97 -19v-241h-196v512h-179v148h568z" />
    <glyph glyph-name="afii10061" unicode="&#x40c;" horiz-adv-x="678" 
d="M58 659h197v-298l197 298h209l-223 -318l234 -341h-216l-201 320v-320h-197v659zM522 846l-156 -134h-105l140 191z" />
    <glyph glyph-name="afii10062" unicode="&#x40e;" horiz-adv-x="646" 
d="M234 154l7 16l-239 489h209l111 -302h4l116 302h202l-247 -549q-34 -76 -79 -104q-44 -28 -119 -28q-71 0 -133 28v129q47 -26 100 -26q48 0 68 45zM165 878h81q3 -41 27 -63t62 -22q33 0 56.5 24t28.5 61h79q-4 -67 -46 -121q-40 -51 -121 -51q-80 0 -122 50
q-42 49 -45 122z" />
    <glyph glyph-name="afii10145" unicode="&#x40f;" horiz-adv-x="716" 
d="M460 147v512h197v-659h-217v-166h-168v166h-214v659h198v-512h204z" />
    <glyph glyph-name="afii10017" unicode="&#x410;" horiz-adv-x="688" 
d="M681 0h-192l-32 74h-229l-33 -74h-188l329 675h23zM346 331h-4l-58 -131h118z" />
    <glyph glyph-name="afii10018" unicode="&#x411;" horiz-adv-x="651" 
d="M384 0h-326v329q1 147 1 330h494v-139h-297v-107h106q129 0 192 -56q26 -23 42 -53q24 -47 24 -100q0 -44 -16 -80.5t-41.5 -58.5t-57.5 -37.5t-62.5 -21.5t-58.5 -6zM341 283h-85v-143h71q96 0 96 71q0 33 -23 52.5t-59 19.5z" />
    <glyph glyph-name="afii10019" unicode="&#x412;" horiz-adv-x="657" 
d="M509 359v-4q53 -23 80.5 -65.5t27.5 -94.5q0 -79 -59 -138q-58 -57 -151 -57h-348v660h326q87 0 139 -48q53 -48 53 -120q0 -83 -68 -133zM430 213q0 29 -21.5 46.5t-58.5 17.5h-100v-130h105q75 0 75 66zM330 517h-81v-114h79q27 0 46.5 14.5t19.5 42.5q0 25 -17.5 41
t-46.5 16z" />
    <glyph glyph-name="afii10020" unicode="&#x413;" horiz-adv-x="545" 
d="M529 512h-275v-512h-196v659h471v-147z" />
    <glyph glyph-name="afii10021" unicode="&#x414;" horiz-adv-x="832" 
d="M215 659h510v-512h92v-303h-160v156h-492v-156h-159v303h84q45 42 63 98q19 53 31 155zM526 520h-151l-14 -120q-12 -102 -28 -155q-14 -53 -47 -98h240v373z" />
    <glyph glyph-name="afii10022" unicode="&#x415;" horiz-adv-x="575" 
d="M254 148h283v-148h-479v659h465v-147h-269v-101h234v-141h-234v-122z" />
    <glyph glyph-name="afii10024" unicode="&#x416;" horiz-adv-x="1028" 
d="M225 659l190 -298v298h197v-298l190 298h209l-220 -318l231 -341h-214l-196 320v-320h-197v320l-196 -320h-214l231 341l-220 318h209z" />
    <glyph glyph-name="afii10025" unicode="&#x417;" horiz-adv-x="591" 
d="M250 -13q-125 0 -218 34v162q86 -44 195 -44q64 0 98 20.5t34 56.5q0 31 -27 48t-71 17h-85v125h79q36 0 62 15.5t26 38.5q0 28 -29 43t-78 15q-44 0 -100 -10q-60 -11 -84 -22v156q93 33 216 33q133 0 205 -56q58 -41 58 -123q0 -41 -27 -80.5t-72 -59.5v-2
q56 -15 87 -58t31 -96q0 -96 -81 -155q-80 -58 -219 -58z" />
    <glyph glyph-name="afii10026" unicode="&#x418;" horiz-adv-x="731" 
d="M671 676v-676h-195v334h-4l-392 -349h-22v674h196v-332h4l390 349h23z" />
    <glyph glyph-name="afii10027" unicode="&#x419;" horiz-adv-x="731" 
d="M671 676v-676h-195v334h-4l-392 -349h-22v674h196v-332h4l390 349h23zM224 877h80q4 -42 28 -63.5t62 -21.5q33 0 56 23t28 62h79q-5 -72 -46 -124q-40 -52 -121 -52q-77 0 -120 49t-46 127z" />
    <glyph glyph-name="afii10028" unicode="&#x41a;" horiz-adv-x="678" 
d="M58 659h197v-298l197 298h209l-223 -318l234 -341h-216l-201 320v-320h-197v659z" />
    <glyph glyph-name="afii10029" unicode="&#x41b;" horiz-adv-x="709" 
d="M452 259v261h-118l-18 -209q-14 -136 -33 -188q-40 -109 -163 -139q-23 -6 -47 -9l-72 132q69 15 94 44q25 28 31 98q8 107 34 410h489v-659h-196q0 144 -1 259z" />
    <glyph glyph-name="afii10030" unicode="&#x41c;" horiz-adv-x="815" 
d="M563 273l-142 -152h-24l-147 152h-3v-273h-189v674h23l328 -338l326 338h21v-674h-190v136q1 57 1 137h-4z" />
    <glyph glyph-name="afii10031" unicode="&#x41d;" horiz-adv-x="708" 
d="M649 659v-659h-197v266h-198v-266h-196v659h196v-244h198v244h197z" />
    <glyph glyph-name="afii10032" unicode="&#x41e;" horiz-adv-x="805" 
d="M401 -12q-163 0 -263 97q-99 97 -99 245q0 145 102 244q103 99 262 99t260 -99q101 -98 101 -244q0 -148 -102 -245q-101 -97 -261 -97zM404 513q-75 0 -122 -53t-47 -130q0 -82 46 -134q47 -53 123 -53t121 53q46 52 46 134q0 78 -45 130q-45 53 -122 53z" />
    <glyph glyph-name="afii10033" unicode="&#x41f;" horiz-adv-x="710" 
d="M650 659v-659h-196v512h-200v-512h-196v659h592z" />
    <glyph glyph-name="afii10034" unicode="&#x420;" horiz-adv-x="604" 
d="M254 0h-196v659h271q126 0 192 -66q67 -64 67 -158q0 -96 -67 -160q-67 -65 -180 -65h-87v-210zM302 516h-49v-166h29q113 0 113 82q0 37 -24.5 60.5t-68.5 23.5z" />
    <glyph glyph-name="afii10035" unicode="&#x421;" horiz-adv-x="627" 
d="M590 183l1 -163q-83 -34 -190 -34q-169 0 -266 95q-95 97 -95 246q0 145 99 245q99 101 267 101q97 0 167 -26v-160q-66 29 -139 29q-85 0 -141 -49q-56 -50 -56 -141q0 -88 50.5 -135.5t136.5 -47.5q82 0 166 40z" />
    <glyph glyph-name="afii10036" unicode="&#x422;" horiz-adv-x="578" 
d="M566 660v-148h-180v-512h-196v512h-179v148h555z" />
    <glyph glyph-name="afii10037" unicode="&#x423;" horiz-adv-x="646" 
d="M234 154l7 16l-239 489h209l111 -302h4l116 302h202l-247 -549q-34 -76 -79 -104q-44 -28 -119 -28q-71 0 -133 28v129q47 -26 100 -26q48 0 68 45z" />
    <glyph glyph-name="afii10038" unicode="&#x424;" horiz-adv-x="918" 
d="M882 341q0 -113 -87 -191q-85 -76 -239 -90v-60h-192v60q-158 7 -244 84q-85 76 -85 197q0 114 91 192q92 79 238 86v40h193v-41q147 -9 235 -88q90 -80 90 -189zM695 340q0 55 -39 97q-37 43 -101 48v-292q62 6 101 47.5t39 99.5zM364 193v293q-64 -7 -103 -49t-39 -98
q0 -57 37.5 -97t104.5 -49z" />
    <glyph glyph-name="afii10039" unicode="&#x425;" horiz-adv-x="704" 
d="M16 659h211l124 -275l125 275h211l-160 -318l170 -341h-211l-135 298l-134 -298h-211l170 341z" />
    <glyph glyph-name="afii10040" unicode="&#x426;" horiz-adv-x="762" 
d="M657 659v-512h95v-303h-160v156h-534v659h198v-512h204v512h197z" />
    <glyph glyph-name="afii10041" unicode="&#x427;" horiz-adv-x="696" 
d="M637 0h-197v285q-88 -22 -159 -22q-109 0 -169.5 48.5t-60.5 144.5v203h197v-176q0 -43 20.5 -64.5t69.5 -21.5q52 0 102 19v243h197v-659z" />
    <glyph glyph-name="afii10042" unicode="&#x428;" horiz-adv-x="1051" 
d="M796 660h196v-660h-933v660h197v-513h171v513h197v-513h172v513z" />
    <glyph glyph-name="afii10043" unicode="&#x429;" horiz-adv-x="1097" 
d="M256 147h171q0 143 -1 256v256h198v-512h171v512h197v-512h95v-303h-160v156h-869v659h198v-512z" />
    <glyph glyph-name="afii10044" unicode="&#x42a;" horiz-adv-x="850" 
d="M453 659v-246h107q129 0 193 -57q26 -23 41 -55q24 -49 24 -102q0 -89 -63 -145q-63 -54 -157 -54h-340q0 143 -1 256v256h-251v147h447zM539 283h-86v-144h72q96 0 96 72q0 33 -23 52.5t-59 19.5z" />
    <glyph glyph-name="afii10045" unicode="&#x42b;" horiz-adv-x="932" 
d="M400 0h-342v329q1 147 1 330h196v-246h107q128 0 192 -57q25 -22 42 -55q24 -49 24 -102q0 -90 -64 -145q-63 -54 -156 -54zM341 283h-86v-144h72q96 0 96 72q0 33 -23 52.5t-59 19.5zM873 659v-659h-197v659h197z" />
    <glyph glyph-name="afii10046" unicode="&#x42c;" horiz-adv-x="651" 
d="M400 0h-341v660h196v-246h107q130 0 193 -58q26 -23 41 -55q24 -49 24 -102q0 -89 -63 -145q-63 -54 -157 -54zM341 283h-86v-144h91q35 0 56.5 19.5t21.5 52.5t-23.5 52.5t-59.5 19.5z" />
    <glyph glyph-name="afii10047" unicode="&#x42d;" horiz-adv-x="627" 
d="M35 20v81q1 37 1 82q87 -41 166 -41q75 0 122.5 35.5t56.5 98.5h-233v129h222q-12 54 -56 82t-109 28q-85 0 -150 -28v157q81 29 191 29q70 0 127 -18.5t96.5 -50t66 -75.5t39 -94.5t12.5 -106.5q0 -146 -96 -244q-94 -97 -265 -97q-105 0 -191 33z" />
    <glyph glyph-name="afii10048" unicode="&#x42e;" horiz-adv-x="1103" 
d="M255 272v-272h-197v659h197v-255h111q21 120 115 194q95 75 230 75q160 0 255 -98q96 -98 96 -245q0 -148 -97 -245q-96 -97 -256 -97q-142 0 -236 79q-95 80 -109 205h-109zM711 506q-73 0 -116 -52q-43 -50 -43 -128q0 -75 44 -128q45 -51 115 -51q73 0 115 51
q43 50 43 128q0 80 -42.5 130t-115.5 50z" />
    <glyph glyph-name="afii10049" unicode="&#x42f;" horiz-adv-x="657" 
d="M212 0h-204l160 260q-113 62 -113 181q0 104 73 161q74 57 182 57h288v-659h-195v512h-60q-43 0 -69 -27t-26 -67q0 -37 31.5 -70t86.5 -47v-16z" />
    <glyph glyph-name="afii10065" unicode="&#x430;" horiz-adv-x="533" 
d="M331 0l-10 47h-3q-54 -59 -152 -59q-65 0 -102.5 34.5t-37.5 92.5q0 68 54.5 110.5t155.5 42.5h73v8q0 62 -88 62q-25 0 -65 -10t-69 -25v126q84 32 182 32q215 0 215 -202v-259h-153zM193 139q0 -44 48 -44q32 0 51 23t19 59v16h-47q-71 0 -71 -54z" />
    <glyph glyph-name="afii10066" unicode="&#x431;" horiz-adv-x="577" 
d="M187 396l4 -1q41 56 136 56q100 0 160 -63q61 -62 61 -166q0 -101 -68 -167q-68 -65 -185 -65q-268 0 -268 282q0 141 48 233t161 146q73 38 202 83l88 -99l-97 -40q-61 -24 -91 -38q-128 -60 -151 -161zM293 322q-38 0 -62 -27.5t-24 -68.5q0 -45 22 -71.5t63 -26.5
q40 0 63.5 27t23.5 71q0 43 -23 69.5t-63 26.5z" />
    <glyph glyph-name="afii10067" unicode="&#x432;" horiz-adv-x="545" 
d="M431 249v-4q87 -25 87 -114q0 -58 -44.5 -94.5t-116.5 -36.5h-309v447h285q35 0 69 -8q35 -9 59.5 -35t24.5 -64q0 -29 -15.5 -54.5t-39.5 -36.5zM349 152q0 36 -44 36h-80v-73h81q20 0 31.5 10.5t11.5 26.5zM290 337h-66v-62h66q36 0 36 30q0 32 -36 32z" />
    <glyph glyph-name="afii10068" unicode="&#x433;" horiz-adv-x="461" 
d="M447 316h-222v-316h-177v446h399v-130z" />
    <glyph glyph-name="afii10069" unicode="&#x434;" horiz-adv-x="665" 
d="M164 446h410v-317h77v-258h-143v129h-354v-129h-142q0 72 -1 129v129h81q36 35 47 114zM397 318h-93l-6 -50q-12 -95 -42 -139h141v189z" />
    <glyph glyph-name="afii10070" unicode="&#x435;" horiz-adv-x="523" 
d="M495 226v-26h-295q8 -89 115 -89q79 0 156 47v-122q-80 -48 -179 -48q-130 0 -198 68q-67 67 -67 170q0 101 65 169t172 68q108 0 169.5 -63t61.5 -174zM271 340q-25 0 -44 -19t-24 -48h134q-10 67 -66 67z" />
    <glyph glyph-name="afii10072" unicode="&#x436;" horiz-adv-x="832" 
d="M5 0l158 232l-151 214h185l127 -197v197h183v-197l127 197h185l-152 -214l159 -232h-189l-130 213v-213h-183v213l-130 -213h-189z" />
    <glyph glyph-name="afii10073" unicode="&#x437;" horiz-adv-x="463" 
d="M201 -13q-101 0 -166 31v127q60 -36 140 -36q88 0 88 43q0 28 -51 28h-62v92h51q52 0 52 30q0 35 -73 35q-64 0 -129 -30v128q65 24 164 24q89 0 147 -30t58 -96q0 -28 -18 -54t-53 -40q40 -12 62.5 -40t22.5 -59q0 -72 -62.5 -112.5t-170.5 -40.5z" />
    <glyph glyph-name="afii10074" unicode="&#x438;" horiz-adv-x="575" 
d="M227 241l271 210h27v-451h-176v195h-2l-271 -204h-28v455h176v-205h3z" />
    <glyph glyph-name="afii10075" unicode="&#x439;" horiz-adv-x="575" 
d="M227 241l271 210h27v-451h-176v195h-2l-271 -204h-28v455h176v-205h3zM135 676h80q4 -42 28 -63.5t62 -21.5q33 0 56 23t28 62h79q-5 -72 -46 -124q-40 -52 -121 -52q-77 0 -120 49t-46 127z" />
    <glyph glyph-name="afii10076" unicode="&#x43a;" horiz-adv-x="562" 
d="M363 446h186l-156 -214l163 -232h-190l-135 213v-213h-183v446h183v-198z" />
    <glyph glyph-name="afii10077" unicode="&#x43b;" horiz-adv-x="563" 
d="M339 316h-73l-11 -116q-6 -52 -8 -62q-6 -28 -17 -56q-17 -45 -58 -70t-118 -33q-16 36 -49 117q56 6 73 39q15 29 20 76q17 186 22 236h394v-447h-175v316z" />
    <glyph glyph-name="afii10078" unicode="&#x43c;" horiz-adv-x="686" 
d="M462 168l-105 -100h-23l-112 98v-166h-174v453h28l270 -220l264 220h28v-453h-176v168z" />
    <glyph glyph-name="afii10079" unicode="&#x43d;" horiz-adv-x="576" 
d="M527 446v-446h-176q0 47 -1 86v86h-125v-172h-177v446h176v-160h126v160h177z" />
    <glyph glyph-name="afii10080" unicode="&#x43e;" horiz-adv-x="572" 
d="M287 461q120 0 188 -67q70 -66 70 -169q0 -104 -71 -170q-71 -65 -187 -65q-119 0 -190 65q-70 66 -70 170q0 101 71 169q71 67 189 67zM289 322q-38 0 -62 -27t-24 -68q0 -46 22.5 -72.5t63.5 -26.5q40 0 63.5 27.5t23.5 71.5q0 42 -24 68.5t-63 26.5z" />
    <glyph glyph-name="afii10081" unicode="&#x43f;" horiz-adv-x="574" 
d="M524 447v-447h-176v315h-124v-315h-176v447h476z" />
    <glyph glyph-name="afii10082" unicode="&#x440;" horiz-adv-x="608" 
d="M232 221q0 -42 23.5 -69.5t63.5 -27.5q38 0 61.5 28t23.5 71q0 45 -22.5 71t-62.5 26q-38 0 -62.5 -28t-24.5 -71zM220 26v-243h-175v663h144l16 -53h4q24 32 64.5 49.5t82.5 17.5q106 0 163 -65q58 -64 58 -168q0 -108 -64 -172q-65 -65 -164 -65q-79 0 -124 39
q-1 0 -3 -2q-1 -1 -2 -1z" />
    <glyph glyph-name="afii10083" unicode="&#x441;" horiz-adv-x="444" 
d="M281 461q66 0 120 -20v-139q-43 22 -91 22t-77 -27t-29 -74t27.5 -73t75.5 -26q56 0 109 29v-134q-58 -31 -152 -31q-111 0 -174 64t-63 166q0 110 70 176q70 67 184 67z" />
    <glyph glyph-name="afii10084" unicode="&#x442;" horiz-adv-x="470" 
d="M322 316v-316h-174v316h-142v130h457v-130h-141z" />
    <glyph glyph-name="afii10085" unicode="&#x443;" horiz-adv-x="520" 
d="M177 447l75 -239h6l80 239h177l-288 -664h-170l116 253l-174 411h178z" />
    <glyph glyph-name="afii10086" unicode="&#x444;" horiz-adv-x="771" 
d="M299 451v260h171v-260q131 -6 203 -69t72 -160q0 -94 -74 -160q-73 -64 -201 -72v-207h-171v208q-141 8 -207 74q-67 67 -67 159q0 93 74 155q75 61 200 72zM470 327v-210q45 3 75.5 34t30.5 73q0 43 -27 69.5t-79 33.5zM196 224q0 -46 29 -75t75 -32v208
q-45 -3 -74.5 -32.5t-29.5 -68.5z" />
    <glyph glyph-name="afii10087" unicode="&#x445;" horiz-adv-x="547" 
d="M540 0h-179l-88 191l-90 -191h-177l116 230l-110 216h177l84 -178l84 178h177l-110 -216z" />
    <glyph glyph-name="afii10088" unicode="&#x446;" horiz-adv-x="613" 
d="M348 131v316h176v-315h77v-261h-144v129h-409v447h176v-316h124z" />
    <glyph glyph-name="afii10089" unicode="&#x447;" horiz-adv-x="565" 
d="M516 0h-182v189q-62 -41 -139 -41q-79 0 -118.5 36t-39.5 113v149h176v-94q0 -37 18 -59t44 -22q34 0 59 25v150h182v-446z" />
    <glyph glyph-name="afii10090" unicode="&#x448;" horiz-adv-x="846" 
d="M225 130h110v316h176v-316h109v317h177v-447h-749v446h177v-316z" />
    <glyph glyph-name="afii10091" unicode="&#x449;" horiz-adv-x="884" 
d="M225 130h110v316h176v-316h109v317h177v-315h76v-261h-143v129h-682v446h177v-316z" />
    <glyph glyph-name="afii10092" unicode="&#x44a;" horiz-adv-x="692" 
d="M495 0h-302v318h-188v129h364v-130h117q72 0 125 -41q54 -40 54 -116q0 -72 -46.5 -116t-123.5 -44zM439 213h-70v-100h72q56 0 56 51q0 22 -15.5 35.5t-42.5 13.5z" />
    <glyph glyph-name="afii10093" unicode="&#x44b;" horiz-adv-x="794" 
d="M351 0h-303v447h177v-130h117q72 0 125 -41q54 -40 54 -116q0 -71 -47 -116q-47 -44 -123 -44zM295 213h-70v-100h72q56 0 56 51q0 22 -15.5 35.5t-42.5 13.5zM745 446v-446h-177v446h177z" />
    <glyph glyph-name="afii10094" unicode="&#x44c;" horiz-adv-x="548" 
d="M351 0h-303v447h177v-130h117q72 0 125 -41q54 -40 54 -116q0 -71 -47 -116q-47 -44 -123 -44zM295 213h-70v-100h72q56 0 56 51q0 22 -15.5 35.5t-42.5 13.5z" />
    <glyph glyph-name="afii10095" unicode="&#x44d;" horiz-adv-x="444" 
d="M232 180h-116v95h113q-19 49 -91 49q-47 0 -95 -23v136q69 25 137 25q107 0 172 -65t65 -173q0 -102 -64 -169q-63 -67 -173 -67q-95 0 -151 31v134q53 -29 110 -29q73 0 93 56z" />
    <glyph glyph-name="afii10096" unicode="&#x44e;" horiz-adv-x="830" 
d="M225 182v-182h-176v446h176v-171h78q16 84 82.5 135t164.5 51q116 0 183 -67q67 -66 67 -169q0 -104 -69 -170q-68 -65 -181 -65q-103 0 -169 52t-79 140h-77zM552 322q-37 0 -60 -27t-23 -68q0 -46 22 -73t61 -27t62 27.5t23 72.5q0 43 -23 69t-62 26z" />
    <glyph glyph-name="afii10097" unicode="&#x44f;" horiz-adv-x="553" 
d="M187 0h-183l128 182q-39 15 -60.5 48t-21.5 70q0 69 49 107.5t135 38.5h269v-446h-175v330h-39q-31 0 -47.5 -15.5t-16.5 -40.5q0 -23 18.5 -40t53.5 -23v-24z" />
    <glyph glyph-name="afii10071" unicode="&#x451;" horiz-adv-x="523" 
d="M495 226v-26h-295q8 -89 115 -89q79 0 156 47v-122q-80 -48 -179 -48q-130 0 -198 68q-67 67 -67 170q0 101 65 169t172 68q108 0 169.5 -63t61.5 -174zM173 536q-33 0 -54.5 22.5t-21.5 53.5q0 33 22.5 54.5t53.5 21.5q32 0 53.5 -22t21.5 -53t-21.5 -54t-53.5 -23z
M373 536q-33 0 -54 22t-21 54q0 33 22 54.5t53 21.5q32 0 53.5 -22t21.5 -53t-21.5 -54t-53.5 -23zM271 340q-25 0 -44 -19t-24 -48h134q-10 67 -66 67z" />
    <glyph glyph-name="afii10099" unicode="&#x452;" horiz-adv-x="593" 
d="M46 614v97h170v-97h160v-74h-160v-133l6 -2q56 50 140 50q88 0 145 -60q58 -59 58 -183q0 -105 -58 -191q-58 -87 -130 -131l-113 64q129 86 129 226q0 135 -98 135q-79 0 -79 -90v-225h-170v540h-44v74h44z" />
    <glyph glyph-name="afii10100" unicode="&#x453;" horiz-adv-x="461" 
d="M447 316h-222v-316h-177v446h399v-130zM388 646l-148 -137h-92l126 194z" />
    <glyph glyph-name="afii10101" unicode="&#x454;" horiz-adv-x="444" 
d="M281 461q66 0 120 -20v-139q-43 22 -91 22q-68 0 -94 -51h108v-95h-111q23 -54 94 -54q56 0 109 29v-134q-58 -31 -152 -31q-111 0 -174 64t-63 166q0 110 70 176q70 67 184 67z" />
    <glyph glyph-name="afii10102" unicode="&#x455;" horiz-adv-x="414" 
d="M21 28v134q31 -26 78 -42q49 -17 81 -17q48 0 48 26q0 12 -20.5 24.5t-50 26t-59 31t-50 47t-20.5 66.5q0 59 48.5 97.5t132.5 38.5q78 0 157 -32v-124q-64 37 -130 37q-42 0 -42 -24q0 -12 31 -26t67.5 -28.5t67.5 -50t31 -84.5q0 -56 -47 -98q-47 -41 -144 -41
q-106 0 -179 39z" />
    <glyph glyph-name="afii10103" unicode="&#x456;" horiz-adv-x="283" 
d="M230 446v-446h-178v446h178zM237 603q0 -40 -26 -67t-67 -27t-67 27t-26 66t28 66t65 27q40 0 66.5 -26.5t26.5 -65.5z" />
    <glyph glyph-name="afii10104" unicode="&#x457;" horiz-adv-x="283" 
d="M45 529q-33 0 -54.5 22.5t-21.5 53.5q0 33 22.5 54.5t53.5 21.5q32 0 53.5 -22t21.5 -53t-21.5 -54t-53.5 -23zM245 529q-33 0 -54 22t-21 54q0 33 22 54.5t53 21.5q32 0 53.5 -22t21.5 -53t-21.5 -54t-53.5 -23zM230 446v-446h-178v446h178z" />
    <glyph glyph-name="afii10105" unicode="&#x458;" horiz-adv-x="279" 
d="M232 603q0 -40 -26 -67t-67 -27t-67 27t-26 66t27.5 65.5t65.5 26.5q41 0 67 -26t26 -65zM-22 -233l-26 67l-27 66q74 6 100 38q27 32 27 107v401h176v-415q0 -141 -78 -203q-68 -55 -172 -61z" />
    <glyph glyph-name="afii10106" unicode="&#x459;" horiz-adv-x="823" 
d="M631 0h-293v318h-72q-2 -15 -5 -56t-4 -55q-2 -58 -20 -106q-17 -54 -58 -83q-45 -33 -125 -39q-16 36 -49 117q56 6 73 39q14 26 20 76q2 22 22 235h393v-152h109q72 0 122 -37q52 -37 52 -113q0 -68 -45.5 -106t-119.5 -38zM580 191h-67v-87h69q22 0 35.5 12t13.5 31
t-14.5 31.5t-36.5 12.5z" />
    <glyph glyph-name="afii10107" unicode="&#x45a;" horiz-adv-x="825" 
d="M343 185h-118v-185h-177v446h176v-156h119v156h175v-155h107q72 0 122 -37q52 -36 52 -111q0 -67 -45.5 -105t-119.5 -38h-291v185zM583 185h-65v-81h67q36 -3 46 27q9 29 -13 46q-14 10 -35 8z" />
    <glyph glyph-name="afii10108" unicode="&#x45b;" horiz-adv-x="568" 
d="M519 292v-292h-176v251q0 28 -15 49.5t-38 21.5q-31 0 -49.5 -24t-18.5 -69v-229h-177v539h-42v74h42v98h171v-98h156v-74h-156v-139h1q1 -1 2 -1q54 62 138 62q78 0 120 -44t42 -125z" />
    <glyph glyph-name="afii10109" unicode="&#x45c;" horiz-adv-x="562" 
d="M363 446h186l-156 -214l163 -232h-190l-135 213v-213h-183v446h183v-198zM443 646l-148 -137h-92l126 194z" />
    <glyph glyph-name="afii10110" unicode="&#x45e;" horiz-adv-x="520" 
d="M177 447l75 -239h6l80 239h177l-288 -664h-170l116 253l-174 411h178zM105 680h80q4 -42 28 -63.5t62 -21.5q33 0 56 23t28 62h79q-5 -72 -46 -124q-40 -52 -121 -52q-77 0 -120 49t-46 127z" />
    <glyph glyph-name="afii10193" unicode="&#x45f;" horiz-adv-x="592" 
d="M355 130v317h175v-447h-163v-143h-146v143h-163v446h176v-316h121z" />
    <glyph glyph-name="afii10050" unicode="&#x490;" horiz-adv-x="566" 
d="M557 519h-302v-519h-197v659h344v119h155v-259z" />
    <glyph glyph-name="afii10098" unicode="&#x491;" horiz-adv-x="455" 
d="M447 316h-222v-316h-176l-1 446h264v108h135v-238z" />
    <glyph glyph-name="schwacyrillic" unicode="&#x4d9;" horiz-adv-x="535" 
d="M269 -12q-108 0 -170 63t-62 174v22h296q-8 98 -115 98q-78 0 -155 -47v117q79 48 193 48q129 0 189 -67q60 -68 60 -171q0 -101 -65 -169t-171 -68zM261 111q29 0 48.5 22.5t21.5 55.5h-137q4 -78 67 -78z" />
    <glyph glyph-name="Wgrave" unicode="&#x1e80;" horiz-adv-x="998" 
d="M672 -17l-174 357l-173 -357h-24l-295 676h210l123 -285h4l143 296h23l149 -296h4q23 59 60 142q49 112 61 143h208l-295 -676h-24zM442 901l140 -191h-104l-156 134z" />
    <glyph glyph-name="wgrave" unicode="&#x1e81;" horiz-adv-x="777" 
d="M266 267l111 192h20l120 -192h4l79 179h178l-226 -457h-23l-140 229l-137 -229h-23l-229 457h180l82 -179h4zM337 703l126 -194h-93l-147 137z" />
    <glyph glyph-name="Wacute" unicode="&#x1e82;" horiz-adv-x="998" 
d="M672 -17l-174 357l-173 -357h-24l-295 676h210l123 -285h4l143 296h23l149 -296h4q23 59 60 142q49 112 61 143h208l-295 -676h-24zM690 844l-156 -134h-105l140 191z" />
    <glyph glyph-name="wacute" unicode="&#x1e83;" horiz-adv-x="777" 
d="M266 267l111 192h20l120 -192h4l79 179h178l-226 -457h-23l-140 229l-137 -229h-23l-229 457h180l82 -179h4zM559 646l-148 -137h-92l126 194z" />
    <glyph glyph-name="Wdieresis" unicode="&#x1e84;" horiz-adv-x="998" 
d="M672 -17l-174 357l-173 -357h-24l-295 676h210l123 -285h4l143 296h23l149 -296h4q23 59 60 142q49 112 61 143h208l-295 -676h-24zM477 793q0 -33 -21.5 -55.5t-54.5 -22.5t-55 22.5t-22 53.5q0 33 23 55t54 22q32 0 54 -22.5t22 -52.5zM677 793q0 -33 -21 -55.5
t-54 -22.5t-54.5 22.5t-21.5 53.5q0 33 22.5 55t53.5 22q32 0 53.5 -22t21.5 -53z" />
    <glyph glyph-name="wdieresis" unicode="&#x1e85;" horiz-adv-x="777" 
d="M266 267l111 192h20l120 -192h4l79 179h178l-226 -457h-23l-140 229l-137 -229h-23l-229 457h180l82 -179h4zM287 512q-33 0 -54.5 22.5t-21.5 53.5q0 33 22.5 54.5t53.5 21.5q32 0 53.5 -22t21.5 -53t-21.5 -54t-53.5 -23zM487 512q-33 0 -54 22t-21 54q0 33 22 54.5
t53 21.5q32 0 53.5 -22t21.5 -53t-21.5 -54t-53.5 -23z" />
    <glyph glyph-name="Ygrave" unicode="&#x1ef2;" horiz-adv-x="648" 
d="M217 659l110 -255h4q10 32 44 114l56 141h210l-219 -415v-244h-196v244l-220 415h211zM276 901l140 -191h-104l-156 134l38 17z" />
    <glyph glyph-name="ygrave" unicode="&#x1ef3;" horiz-adv-x="520" 
d="M177 447l75 -239h6l80 239h177l-288 -664h-170l116 253l-174 411h178zM216 703l126 -194h-93l-147 137z" />
    <glyph glyph-name="endash" unicode="&#x2013;" horiz-adv-x="615" 
d="M590 192h-564v121h564v-121z" />
    <glyph glyph-name="emdash" unicode="&#x2014;" horiz-adv-x="854" 
d="M826 192h-798v121h798v-121z" />
    <glyph glyph-name="afii00208" unicode="&#x2015;" horiz-adv-x="854" 
d="M826 192h-798v121h798v-121z" />
    <glyph glyph-name="quoteleft" unicode="&#x2018;" horiz-adv-x="249" 
d="M207 444q0 -35 -23.5 -59.5t-57.5 -24.5q-36 0 -59.5 23t-23.5 59q0 48 36 116q41 73 80 118l59 -9l-65 -145q54 -20 54 -78z" />
    <glyph glyph-name="quoteright" unicode="&#x2019;" horiz-adv-x="249" 
d="M45 587q0 36 23.5 60.5t58.5 24.5q36 0 59 -23.5t23 -58.5q0 -50 -37 -117q-37 -69 -79 -117l-59 9l65 145q-54 20 -54 77z" />
    <glyph glyph-name="quotesinglbase" unicode="&#x201a;" horiz-adv-x="254" 
d="M45 69q0 37 24 62t59 25q38 0 61.5 -24t23.5 -60q0 -50 -37 -117q-38 -71 -79 -120l-61 10l64 145q-55 22 -55 79z" />
    <glyph glyph-name="quotedblleft" unicode="&#x201c;" horiz-adv-x="450" 
d="M207 444q0 -35 -23.5 -59.5t-57.5 -24.5q-36 0 -59.5 23.5t-23.5 58.5q0 48 36 116q37 66 81 118l59 -9l-65 -145q53 -20 53 -78zM399 444q0 -35 -24 -59.5t-58 -24.5q-36 0 -59 23.5t-23 58.5q0 48 36 116q41 73 80 118l59 -9l-65 -145q54 -20 54 -78z" />
    <glyph glyph-name="quotedblright" unicode="&#x201d;" horiz-adv-x="450" 
d="M241 587q0 36 23.5 60.5t58.5 24.5q36 0 59.5 -23.5t23.5 -58.5q0 -49 -37 -116q-34 -65 -80 -118l-59 9l65 145q-54 20 -54 77zM50 587q0 36 23.5 60.5t58.5 24.5q36 0 59 -23.5t23 -58.5q0 -50 -37 -117q-37 -69 -79 -117l-59 9l65 145q-54 20 -54 77z" />
    <glyph glyph-name="quotedblbase" unicode="&#x201e;" horiz-adv-x="453" 
d="M46 69q0 37 24.5 62t59.5 25q38 0 61.5 -24t23.5 -60q0 -50 -37 -117q-38 -71 -79 -120l-61 10l64 145q-56 23 -56 79zM243 69q0 37 24 62t59 25q38 0 62 -24t24 -60q0 -51 -37 -118q-40 -73 -80 -119l-61 10l64 145q-55 22 -55 79z" />
    <glyph glyph-name="dagger" unicode="&#x2020;" horiz-adv-x="596" 
d="M207 351h-149v142h148v177h174v-177h157v-142h-156v-470h-174v470z" />
    <glyph glyph-name="daggerdbl" unicode="&#x2021;" horiz-adv-x="596" 
d="M207 363h-149v138h148v169h173v-169h158v-138h-157v-168h157v-140h-157v-174h-173v174h-149v140h149v168z" />
    <glyph glyph-name="bullet" unicode="&#x2022;" horiz-adv-x="490" 
d="M246 397q64 0 108 -45q45 -45 45 -108q0 -64 -45 -108q-44 -44 -108 -44q-62 0 -108 44q-45 45 -45 108t45 108t108 45z" />
    <glyph glyph-name="trianglebullet" unicode="&#x2023;" horiz-adv-x="506" 
d="M86 68v408l390 -199z" />
    <glyph glyph-name="ellipsis" unicode="&#x2026;" horiz-adv-x="772" 
d="M228 73q0 -34 -25 -59t-58 -25q-36 0 -62 25t-26 59q0 36 26 61t62 25q33 0 58 -25t25 -61zM473 73q0 -34 -25 -59t-59 -25q-36 0 -61.5 24.5t-25.5 59.5q0 36 25.5 61t61.5 25q34 0 59 -25t25 -61zM717 73q0 -34 -25 -59t-59 -25q-35 0 -61 25t-26 59q0 36 25.5 61
t61.5 25q35 0 59.5 -25t24.5 -61z" />
    <glyph glyph-name="perthousand" unicode="&#x2030;" horiz-adv-x="1227" 
d="M594 685h103l-463 -716h-103zM390 521q0 -70 -49 -119t-128 -49q-81 0 -129.5 46.5t-48.5 121.5q0 71 49 119q50 48 129 48q80 0 128 -48q49 -48 49 -119zM158 521q0 -29 15 -46.5t41 -17.5q25 0 40.5 18t15.5 46q0 27 -15.5 44.5t-40.5 17.5t-40.5 -17.5t-15.5 -44.5z
M623 -13q-81 0 -129.5 46t-48.5 121q0 71 49 119q49 49 129 49t128 -48q49 -48 49 -119t-49 -120q-49 -48 -128 -48zM624 217q-24 0 -40 -18.5t-16 -43.5q0 -30 15 -47.5t41 -17.5t41.5 18t15.5 47q0 26 -16.5 44t-40.5 18zM1197 155q0 -70 -50 -120q-49 -48 -128 -48
q-81 0 -129.5 46t-48.5 121q0 71 49 119q49 49 129 49t129 -49q49 -48 49 -118zM1020 217q-24 0 -40 -18.5t-16 -43.5q0 -30 15 -47.5t41 -17.5q25 0 40.5 18t15.5 47q0 26 -16 44t-40 18z" />
    <glyph glyph-name="guilsinglleft" unicode="&#x2039;" horiz-adv-x="325" 
d="M307 408l-134 -195l134 -202h-156l-125 194v10l126 193h155z" />
    <glyph glyph-name="guilsinglright" unicode="&#x203a;" horiz-adv-x="325" 
d="M175 11h-156l134 202l-134 195h155l126 -193v-10z" />
    <glyph glyph-name="fraction" unicode="&#x2044;" horiz-adv-x="107" 
d="M240 685h103l-462 -716h-103z" />
    <glyph glyph-name="fraction" unicode="&#x2215;" horiz-adv-x="107" 
d="M240 685h103l-462 -716h-103z" />
    <glyph glyph-name="zerosuperior" unicode="&#x2070;" horiz-adv-x="379" 
d="M365 585q0 -86 -43 -145q-44 -59 -135 -59q-93 0 -134 57q-41 59 -41 147q0 85 42 144q44 59 135 59q92 0 134 -59t42 -144zM236 586q0 105 -47 105q-49 0 -49 -105q0 -107 49 -107q47 0 47 107z" />
    <glyph glyph-name="foursuperior" unicode="&#x2074;" horiz-adv-x="379" 
d="M6 482l161 297h116l-128 -228h57v23l41 74h80v-97h39v-87h-39v-76h-120v76h-207v18z" />
    <glyph glyph-name="fivesuperior" unicode="&#x2075;" horiz-adv-x="379" 
d="M194 656q68 0 112.5 -35.5t44.5 -97.5q0 -58 -50 -99q-49 -40 -127 -40q-81 0 -143 31v107q55 -45 123 -45q34 0 55.5 14.5t21.5 37.5q0 48 -79 48q-54 0 -89 -15q-2 1 -15 8q2 18 26 212h255v-88h-164l-5 -41q11 3 34 3z" />
    <glyph glyph-name="sixsuperior" unicode="&#x2076;" horiz-adv-x="379" 
d="M360 520q0 -61 -47.5 -98.5t-125.5 -37.5t-125 37t-47 100q0 21 7 42q17 47 42 88l28 43l34 47l30 41h142l-97 -134q74 0 116.5 -34.5t42.5 -93.5zM187 566q-20 0 -33 -12.5t-13 -30.5q0 -19 12.5 -30.5t33.5 -11.5q22 0 35.5 11.5t13.5 30.5q0 18 -14 30.5t-35 12.5z
" />
    <glyph glyph-name="sevensuperior" unicode="&#x2077;" horiz-adv-x="375" 
d="M354 763l-182 -375h-131l148 303h-162v91h327v-19z" />
    <glyph glyph-name="eightsuperior" unicode="&#x2078;" horiz-adv-x="379" 
d="M189 695q-21 2 -30.5 -16t0 -35.5t32.5 -15.5q22 0 31 17t-0.5 33.5t-32.5 16.5zM235 521q3 26 -21 36.5t-48 0t-22 -36.5q0 -18 12.5 -29.5t33.5 -11.5q20 0 32.5 11.5t12.5 29.5zM344 671q0 -49 -43 -74q28 -12 43 -36t15 -52q0 -57 -46 -91.5t-123 -34.5
q-80 0 -126.5 34t-46.5 91q0 25 15 50.5t39 39.5q-39 22 -39 72q0 53 45 86q46 34 113 34q69 0 111.5 -33t42.5 -86z" />
    <glyph glyph-name="ninesuperior" unicode="&#x2079;" horiz-adv-x="379" 
d="M16 653q0 60 47.5 98t125.5 38t125 -37t47 -100q0 -58 -60 -145l-81 -118h-143l96 135h-8q-68 0 -108.5 35t-40.5 94zM189 606q20 0 33.5 12.5t13.5 30.5q3 26 -22 36.5t-50.5 0t-23.5 -36.5q0 -18 14 -30.5t35 -12.5z" />
    <glyph glyph-name="plussuperior" unicode="&#x207a;" horiz-adv-x="382" 
d="M151 506h-104v70h104v95h78v-95h102v-70h-102v-96h-78v96z" />
    <glyph glyph-name="hyphensuperior" unicode="&#x207b;" horiz-adv-x="246" 
d="M218 491h-192v75h192v-75z" />
    <glyph glyph-name="equalsuperior" unicode="&#x207c;" horiz-adv-x="382" 
d="M328 545h-279v70h279v-70zM328 439h-279v69h279v-69z" />
    <glyph glyph-name="parenleftsuperior" unicode="&#x207d;" horiz-adv-x="212" 
d="M135 828l74 -30q-74 -99 -74 -227q0 -126 71 -233l-71 -33q-107 107 -107 264q0 70 30 139q30 70 77 120z" />
    <glyph glyph-name="parenrightsuperior" unicode="&#x207e;" horiz-adv-x="212" 
d="M8 797l74 30q48 -51 77 -120.5t29 -138.5q0 -158 -106 -264l-72 33q71 104 71 233q0 130 -73 227z" />
    <glyph glyph-name="nsuperior" unicode="&#x207f;" horiz-adv-x="392" 
d="M158 300h-129v296h104l13 -39q39 47 102 47q112 0 112 -112v-192h-129v166q0 17 -8.5 28t-22.5 11q-42 0 -42 -86v-119z" />
    <glyph glyph-name="zeroinferior" unicode="&#x2080;" horiz-adv-x="379" 
d="M365 105q0 -86 -43 -144q-44 -60 -135 -60q-94 0 -134 58q-41 58 -41 146q0 85 42 144q44 59 135 59q92 0 134 -59t42 -144zM236 106q0 105 -47 105q-49 0 -49 -105q0 -107 49 -107q47 0 47 107z" />
    <glyph glyph-name="oneinferior" unicode="&#x2081;" horiz-adv-x="365" 
d="M250 308h19v-398h-127v248l-43 -18l-47 -20v107z" />
    <glyph glyph-name="twoinferior" unicode="&#x2082;" horiz-adv-x="379" 
d="M129 142l-105 19q-4 12 -4 30q0 51 48 86q47 34 112 34q69 0 113.5 -33.5t44.5 -89.5q0 -32 -20.5 -61t-50.5 -49q-86 -55 -103 -82h175v-88h-321l-7 9q4 94 74 151q14 11 54.5 39t56.5 45t16 34q0 15 -11 23t-27 8q-22 0 -36 -13.5t-14 -36.5q0 -7 5 -25z" />
    <glyph glyph-name="threeinferior" unicode="&#x2083;" horiz-adv-x="379" 
d="M117 96l-12 14l77 102h-148v90h317v-18l-100 -129q46 -12 70.5 -42.5t24.5 -73.5q0 -59 -49 -98t-128 -39q-83 0 -144 31v107q55 -45 126 -45q34 0 54 15t20 38t-19 38t-49 15q-18 0 -40 -5z" />
    <glyph glyph-name="fourinferior" unicode="&#x2084;" horiz-adv-x="379" 
d="M3 3l160 298h117l-129 -228h57v23l41 74h81v-97h38v-88h-38v-75h-121v75h-206v18z" />
    <glyph glyph-name="fiveinferior" unicode="&#x2085;" horiz-adv-x="379" 
d="M194 176q68 0 112.5 -35.5t44.5 -97.5q0 -59 -50 -98q-49 -40 -127 -40q-82 0 -143 30v107q55 -45 123 -45q34 0 55.5 14.5t21.5 37.5q0 48 -79 48q-54 0 -89 -15q-2 1 -15 8q2 18 26 212h255v-88h-164l-5 -41q10 3 34 3z" />
    <glyph glyph-name="sixinferior" unicode="&#x2086;" horiz-adv-x="379" 
d="M360 40q0 -61 -47.5 -98.5t-125.5 -37.5t-125 37t-47 100q0 21 7 42q17 47 42 88l28 43l34 47l30 41h142l-97 -134q74 0 116.5 -34.5t42.5 -93.5zM187 86q-20 0 -33 -12.5t-13 -30.5q0 -19 12.5 -30.5t33.5 -11.5q22 0 35.5 11.5t13.5 30.5q0 18 -14 30.5t-35 12.5z" />
    <glyph glyph-name="seveninferior" unicode="&#x2087;" horiz-adv-x="375" 
d="M354 283l-182 -375h-131l148 303h-162v91h327v-19z" />
    <glyph glyph-name="eightinferior" unicode="&#x2088;" horiz-adv-x="379" 
d="M189 215q-21 2 -30.5 -16t0 -35.5t32.5 -15.5q22 0 31 17t-0.5 33.5t-32.5 16.5zM235 41q3 26 -21 36.5t-48 0t-22 -36.5q0 -18 12.5 -29.5t33.5 -11.5q20 0 32.5 11.5t12.5 29.5zM344 191q0 -49 -43 -74q28 -12 43 -36t15 -52q0 -57 -46 -91.5t-123 -34.5
q-80 0 -126.5 34t-46.5 91q0 25 15 50.5t39 39.5q-39 22 -39 72q0 53 45 86q46 34 113 34q69 0 111.5 -33t42.5 -86z" />
    <glyph glyph-name="nineinferior" unicode="&#x2089;" horiz-adv-x="379" 
d="M16 174q0 60 47.5 98t125.5 38t125 -37t47 -100q0 -58 -60 -145l-81 -118h-143l96 135h-8q-68 0 -108.5 35t-40.5 94zM189 127q20 0 33.5 12.5t13.5 30.5q3 26 -22 36.5t-50.5 0t-23.5 -36.5q0 -18 14 -30.5t35 -12.5z" />
    <glyph glyph-name="plusinferior" unicode="&#x208a;" horiz-adv-x="382" 
d="M151 40h-104v70h104v94h78v-94h102v-70h-102v-96h-78v96z" />
    <glyph glyph-name="hypheninferior" unicode="&#x208b;" horiz-adv-x="246" 
d="M218 24h-192v76h192v-76z" />
    <glyph glyph-name="equalinferior" unicode="&#x208c;" horiz-adv-x="382" 
d="M328 79h-279v69h279v-69zM328 -27h-279v68h279v-68z" />
    <glyph glyph-name="parenleftinferior" unicode="&#x208d;" horiz-adv-x="212" 
d="M133 364l39 -15l35 -14q-73 -100 -73 -228q0 -124 71 -231l-72 -33q-106 106 -106 263q0 69 29 139t77 119z" />
    <glyph glyph-name="parenrightinferior" unicode="&#x208e;" horiz-adv-x="212" 
d="M6 334l39 15l35 14q48 -49 77 -119t29 -139q0 -157 -106 -263l-71 33q70 103 70 231q0 131 -73 228z" />
    <glyph glyph-name="Euro" unicode="&#x20ac;" horiz-adv-x="588" 
d="M463 414v-61h-434v61h47q23 115 105 185q82 72 214 72q75 0 141 -23v-156q-58 24 -117 24q-121 0 -158 -102h202zM29 255v61h434v-61h-207q30 -110 154 -110q68 0 140 34v-159q-68 -28 -160 -28q-131 0 -214.5 70t-101.5 193h-45z" />
    <glyph glyph-name="centigrade" unicode="&#x2103;" horiz-adv-x="878" 
d="M156 432q-57 0 -92 35t-35 88t37 87q38 36 90 36t88 -36q37 -34 37 -87q0 -50 -37 -87q-36 -36 -88 -36zM155 613q-24 0 -41.5 -17t-17.5 -41q0 -27 16 -43.5t43 -16.5q26 0 43 17.5t17 42.5q0 24 -17.5 41t-42.5 17zM840 183l1 -163q-83 -34 -190 -34q-169 0 -266 95
q-95 97 -95 246q0 145 99 245q99 101 267 101q97 0 167 -26v-160q-66 29 -139 29q-85 0 -141 -49q-56 -50 -56 -141q0 -88 50.5 -135.5t136.5 -47.5q82 0 166 40z" />
    <glyph glyph-name="fahrenheit" unicode="&#x2109;" horiz-adv-x="831" 
d="M160 432q-57 0 -92 35t-35 88t37 87q38 36 90 36t88 -36q37 -34 37 -87q0 -50 -37 -87q-36 -36 -88 -36zM159 613q-24 0 -41.5 -17t-17.5 -41q0 -27 16 -43.5t43 -16.5q26 0 43 17.5t17 42.5q0 24 -17.5 41t-42.5 17zM540 246v-246h-196v659h471v-147h-275v-125h233v-141
h-233z" />
    <glyph glyph-name="afii61289" unicode="&#x2113;" horiz-adv-x="505" 
d="M67 151l-50 78l85 60v190q0 114 44 170t123 56q60 0 97 -34.5t37 -100.5q0 -146 -192 -324v-53q0 -96 65 -96q53 0 111 103q3 -2 8.5 -5.5t15 -9t16.5 -10.5q41 -26 44 -28q-83 -156 -197 -156q-78 0 -122 49t-49 134q-27 -19 -36 -23zM265 606q-30 0 -43 -52.5
t-13 -165.5q89 107 89 181q0 37 -33 37z" />
    <glyph glyph-name="afii61352" unicode="&#x2116;" horiz-adv-x="1072" 
d="M1017 323v-100h-335v100h335zM254 324v-324h-196v676h23l344 -326h4v309h196v-674h-22l-346 339h-3zM847 677q82 0 130 -45q49 -43 49 -112t-49 -112.5t-130 -43.5q-83 0 -132 43t-49 113q0 68 50 112q50 45 131 45zM847 577q-23 0 -37 -15.5t-14 -39.5q0 -28 13.5 -44
t37.5 -16t39 16.5t15 43.5q0 24 -15 39.5t-39 15.5z" />
    <glyph glyph-name="published" unicode="&#x2117;" horiz-adv-x="871" 
d="M650 406q0 -62 -45 -106q-44 -43 -120 -43h-58v-137h-129l1 435h179q83 0 127 -44q45 -43 45 -105zM522 403q0 25 -16.5 42.5t-43.5 17.5h-35v-121h36q28 0 43.5 17.5t15.5 43.5zM436 -39q-172 0 -275 108q-102 108 -102 279q0 167 109 276t268 109q157 0 266 -109
q110 -110 110 -276q0 -165 -110 -277q-110 -110 -266 -110zM436 649q-124 0 -206 -88q-82 -86 -82 -213q0 -130 78 -217q80 -87 208 -87q127 0 206 88q81 88 81 216q0 127 -81 214q-80 87 -204 87z" />
    <glyph glyph-name="trademark" unicode="&#x2122;" horiz-adv-x="830" 
d="M387 681l181 -179l181 179h12v-378h-111v159h-3l-71 -83h-14l-75 81h-2v-157h-111v378h13zM341 600h-98v-297h-108v297h-98v79h304v-79z" />
    <glyph glyph-name="Ohm" unicode="&#x2126;" horiz-adv-x="803" 
d="M402 513q-79 0 -122 -58q-42 -59 -42 -147q0 -80 30 -162q31 -82 79 -124v-22h-323v147h87q2 2 2 4q-66 95 -66 206q0 137 98 227q97 90 258 90q157 0 255 -89t98 -224q0 -113 -67 -210q1 -1 1 -4h85v-147h-323v22q51 38 83 120q31 81 31 164q0 90 -42 148
q-42 59 -122 59z" />
    <glyph glyph-name="angstrom" unicode="&#x212b;" horiz-adv-x="688" 
d="M681 0h-192l-32 74h-229l-33 -74h-188l314 644q-48 7 -78 41.5t-30 82.5q0 54 38 92q37 39 93 39q57 0 95 -38q39 -37 39 -93q0 -45 -29.5 -79t-75.5 -43zM346 331h-4l-58 -131h118zM344 818q-18 0 -31 -15t-13 -35q0 -18 12.5 -31t31.5 -13q20 0 33 13t13 31
q0 21 -13 35.5t-33 14.5z" />
    <glyph glyph-name="estimated" unicode="&#x212e;" horiz-adv-x="817" 
d="M751 311h-557v-171q29 -48 89 -82q61 -32 122 -32q62 0 119 28.5t99 79.5h67q-58 -69 -133 -107t-153 -38q-142 0 -245 100q-102 101 -102 240q0 137 102 234q101 97 245 97q146 0 246 -100q101 -101 101 -249zM194 346h419v172q-29 47 -88 76q-59 30 -120 30
q-52 0 -108 -30t-103 -81v-167z" />
    <glyph glyph-name="onethird" unicode="&#x2153;" horiz-adv-x="861" 
d="M569 685h103l-462 -716h-103zM254 699h19v-399h-127v249l-43 -18l-47 -20v106zM603 186l-12 14l77 102h-148v90h317v-18l-100 -129q46 -12 70.5 -42.5t24.5 -73.5q0 -59 -49 -98t-128 -39q-83 0 -144 31v107q55 -45 126 -45q34 0 54 15t20 38t-19 38t-49 15q-18 0 -40 -5
z" />
    <glyph glyph-name="twothirds" unicode="&#x2154;" horiz-adv-x="861" 
d="M127 532l-105 19q-4 12 -4 30q0 51 48 86q47 34 112 34q69 0 113.5 -33.5t44.5 -89.5q0 -32 -20.5 -61t-50.5 -49q-86 -55 -103 -82h175v-88h-321l-7 9q4 94 74 151q14 11 54.5 39t56.5 45t16 34q0 15 -11 23t-27 8q-22 0 -36 -13.5t-14 -36.5q0 -7 5 -25zM620 186
l-12 14l77 102h-148v90h317v-18l-100 -129q46 -12 70.5 -42.5t24.5 -73.5q0 -59 -49 -98q-50 -39 -128 -39q-83 0 -144 31v107q56 -45 126 -45q34 0 54 15t20 38t-19 38t-49 15q-18 0 -40 -5zM606 685h103l-462 -716h-103z" />
    <glyph glyph-name="onefifth" unicode="&#x2155;" horiz-adv-x="861" 
d="M644 266q68 0 112.5 -35.5t44.5 -97.5q0 -58 -50 -99q-50 -39 -127 -39q-82 0 -143 30v107q55 -45 123 -45q34 0 55.5 14.5t21.5 37.5q0 48 -79 48q-54 0 -89 -15q-2 1 -15 8q2 18 26 212h255v-88h-164l-5 -41q10 3 34 3zM565 685h103l-462 -716h-103zM243 699h19v-399
h-127v249l-43 -18l-47 -20v106z" />
    <glyph glyph-name="twofifths" unicode="&#x2156;" horiz-adv-x="861" 
d="M629 685h103l-462 -716h-103zM139 532l-105 19q-4 12 -4 30q0 51 48 86q47 34 112 34q69 0 113.5 -33.5t44.5 -89.5q0 -32 -20.5 -61t-50.5 -49q-86 -55 -103 -82h175v-88h-321l-7 9q4 94 74 151q14 11 54.5 39t56.5 45t16 34q0 15 -11 23t-27 8q-22 0 -36 -13.5
t-14 -36.5q0 -7 5 -25zM685 266q68 0 112.5 -35.5t44.5 -97.5q0 -58 -50 -99q-50 -39 -127 -39q-81 0 -143 30v107q56 -45 123 -45q34 0 55.5 14.5t21.5 37.5q0 48 -79 48q-55 0 -89 -15q-2 1 -15 8q2 18 26 212h255v-88h-164l-5 -41q11 3 34 3z" />
    <glyph glyph-name="threefifths" unicode="&#x2157;" horiz-adv-x="861" 
d="M599 685h103l-462 -716h-103zM134 486l-13 14l78 102h-149v90h318v-18l-101 -129q46 -12 71 -42.5t25 -73.5q0 -59 -49 -98q-50 -39 -128 -39q-83 0 -144 31v107q56 -45 126 -45q34 0 53.5 15t19.5 38t-18.5 38t-48.5 15q-18 0 -40 -5zM661 266q68 0 112.5 -35.5
t44.5 -97.5q0 -58 -50 -99q-50 -39 -127 -39q-82 0 -143 30v107q56 -45 123 -45q34 0 55.5 14.5t21.5 37.5q0 48 -79 48q-55 0 -89 -15q-2 1 -15 8q2 18 26 212h255v-88h-164l-5 -41q11 3 34 3z" />
    <glyph glyph-name="fourfifths" unicode="&#x2158;" horiz-adv-x="861" 
d="M8 392l161 297h116l-128 -228h57v23l41 74h80v-97h39v-87h-39v-76h-120v76h-207v18zM688 266q68 0 112.5 -35.5t44.5 -97.5q0 -58 -50 -99q-49 -39 -127 -39q-82 0 -143 30v107q55 -45 123 -45q34 0 55.5 14.5t21.5 37.5q0 48 -79 48q-55 0 -89 -15q-2 1 -15 8
q2 18 26 212h255v-88h-164l-5 -41q10 3 34 3zM619 685h103l-462 -716h-103z" />
    <glyph glyph-name="onesixth" unicode="&#x2159;" horiz-adv-x="861" 
d="M805 130q0 -61 -47.5 -98.5t-125.5 -37.5t-125 37t-47 100q0 21 7 42q17 47 42 88l28 43l34 47l30 41h142l-97 -134q74 0 116.5 -34.5t42.5 -93.5zM632 176q-20 0 -33 -12.5t-13 -30.5q0 -19 12.5 -30.5t33.5 -11.5q22 0 35.5 11.5t13.5 30.5q0 18 -14 30.5t-35 12.5z
M593 685h103l-462 -716h-103zM277 699h19v-399h-127v249l-43 -18l-47 -20v106z" />
    <glyph glyph-name="fivesixths" unicode="&#x215a;" horiz-adv-x="861" 
d="M614 685h103l-462 -716h-103zM213 566q68 0 112.5 -35.5t44.5 -97.5q0 -58 -50 -99q-49 -40 -127 -40q-81 0 -143 31v107q56 -45 123 -45q34 0 55.5 14.5t21.5 37.5q0 48 -79 48q-55 0 -89 -15q-2 1 -15 8q2 18 26 212h255v-88h-164l-5 -41q10 3 34 3zM820 130
q0 -61 -47.5 -98.5t-125.5 -37.5t-125 37t-47 100q0 21 7 42q17 47 42 88l28 43l34 47l30 41h142l-97 -134q74 0 116.5 -34.5t42.5 -93.5zM647 176q-20 0 -33 -12.5t-13 -30.5q0 -19 12.5 -30.5t33.5 -11.5q22 0 35.5 11.5t13.5 30.5q0 18 -14 30.5t-35 12.5z" />
    <glyph glyph-name="oneeighth" unicode="&#x215b;" horiz-adv-x="861" 
d="M639 305q-21 2 -30.5 -16t0 -35.5t32.5 -15.5q22 0 31 17t-0.5 33.5t-32.5 16.5zM685 131q3 26 -21 36.5t-48 0t-22 -36.5q0 -18 12.5 -29.5t33.5 -11.5q20 0 32.5 11.5t12.5 29.5zM794 281q0 -49 -43 -74q28 -12 43 -36t15 -52q0 -57 -46 -91.5t-123 -34.5
q-80 0 -126.5 34t-46.5 91q0 25 15 50.5t39 39.5q-39 22 -39 72q0 53 45 86q46 34 113 34q69 0 111.5 -33t42.5 -86zM563 685h103l-462 -716h-103zM245 699h19v-399h-127v249l-43 -18l-47 -20v106z" />
    <glyph glyph-name="threeeighths" unicode="&#x215c;" horiz-adv-x="861" 
d="M657 305q-21 2 -30.5 -16t0 -35.5t32.5 -15.5q22 0 31 17t-0.5 33.5t-32.5 16.5zM703 131q3 26 -21 36.5t-48 0t-22 -36.5q0 -18 12.5 -29.5t33.5 -11.5q20 0 32.5 11.5t12.5 29.5zM812 281q0 -49 -43 -74q28 -12 43 -36t15 -52q0 -57 -46 -91.5t-123 -34.5
q-80 0 -126.5 34t-46.5 91q0 25 15 50.5t39 39.5q-39 22 -39 72q0 53 45 86q46 34 113 34q69 0 111.5 -33t42.5 -86zM133 486l-13 14l78 102h-149v90h318v-18l-101 -129q46 -12 71 -42.5t25 -73.5q0 -59 -49 -98t-128 -39q-83 0 -144 31v107q55 -45 126 -45q34 0 53.5 15
t19.5 38t-18.5 38t-48.5 15q-18 0 -40 -5zM594 685h103l-462 -716h-103z" />
    <glyph glyph-name="fiveeighths" unicode="&#x215d;" horiz-adv-x="861" 
d="M601 685h103l-462 -716h-103zM202 566q68 0 112.5 -35.5t44.5 -97.5q0 -58 -50 -99q-49 -40 -127 -40q-81 0 -143 31v107q55 -45 123 -45q34 0 55.5 14.5t21.5 37.5q0 48 -79 48q-54 0 -89 -15q-2 1 -15 8q2 18 26 212h255v-88h-164l-5 -41q10 3 34 3zM668 238
q22 0 31 17t-0.5 33.5t-32.5 16.5q-22 2 -31 -16t0.5 -35.5t32.5 -15.5zM712 131q3 26 -21 36.5t-48 0t-22 -36.5q0 -18 12.5 -29.5t33.5 -11.5q20 0 32.5 11.5t12.5 29.5zM821 281q0 -49 -43 -74q28 -12 43 -36t15 -52q0 -57 -46 -91.5t-123 -34.5q-80 0 -126.5 34
t-46.5 91q0 25 15 50.5t39 39.5q-39 22 -39 72q0 53 45 86q46 34 113 34q69 0 111.5 -33t42.5 -86z" />
    <glyph glyph-name="seveneighths" unicode="&#x215e;" horiz-adv-x="861" 
d="M641 305q-21 2 -30.5 -16t0 -35.5t32.5 -15.5q22 0 31 17t-0.5 33.5t-32.5 16.5zM687 131q3 26 -21 36.5t-48 0t-22 -36.5q0 -18 12.5 -29.5t33.5 -11.5q20 0 32.5 11.5t12.5 29.5zM796 281q0 -49 -43 -74q28 -12 43 -36t15 -52q0 -57 -46 -91.5t-123 -34.5
q-80 0 -126.5 34t-46.5 91q0 25 15 50.5t39 39.5q-39 22 -39 72q0 53 45 86q46 34 113 34q69 0 111.5 -33t42.5 -86zM389 673l-182 -375h-131l148 303h-162v91h327v-19zM560 685h103l-462 -716h-103z" />
    <glyph glyph-name="uni215F" unicode="&#x215f;" horiz-adv-x="463" 
d="M573 685h103l-462 -716h-103zM258 699h19v-399h-127v249l-43 -18l-47 -20v106z" />
    <glyph glyph-name="partialdiff" unicode="&#x2202;" horiz-adv-x="672" 
d="M321 -12q-98 0 -162 62q-62 62 -62 174q0 104 63 168t156 64q67 0 111 -29q-4 84 -50 133.5t-117 49.5q-35 0 -69 -10l16 113q36 7 83 7q143 0 213 -103q71 -104 71 -270q0 -170 -71 -265q-70 -94 -182 -94zM322 104q53 0 83 57q29 56 31 132q-53 53 -115 53
q-40 0 -65 -35t-25 -85q0 -59 25 -90.5t66 -31.5z" />
    <glyph glyph-name="gradient" unicode="&#x2207;" horiz-adv-x="705" 
d="M12 659h678l-324 -674h-23zM449 512h-203l103 -238h2z" />
    <glyph glyph-name="product" unicode="&#x220f;" horiz-adv-x="692" 
d="M635 659v-778h-196v631h-187v-631h-196v778h579z" />
    <glyph glyph-name="summation" unicode="&#x2211;" horiz-adv-x="619" 
d="M322 512l104 -231l-114 -251h291v-147h-585q0 2 0.5 9t0.5 9l188 380l-179 361v17h556v-147h-262z" />
    <glyph glyph-name="minus" unicode="&#x2212;" horiz-adv-x="588" 
d="M506 339v-99h-425v99h425z" />
    <glyph glyph-name="radical" unicode="&#x221a;" horiz-adv-x="584" 
d="M25 332l166 72l79 -179q22 61 52 156q31 96 62 200l49 159h126l-266 -789h-23l-147 305l-62 -25q-3 10 -20 57z" />
    <glyph glyph-name="infinity" unicode="&#x221e;" horiz-adv-x="776" 
d="M218 434q83 0 172 -83q81 83 177 83q79 0 129 -49q51 -48 51 -123q0 -72 -53 -123q-52 -51 -135 -51q-77 0 -168 86q-46 -45 -86 -65.5t-91 -20.5q-77 0 -129 49q-51 49 -51 124q0 73 51 122q52 51 133 51zM220 327q-24 0 -40 -19.5t-16 -46.5t16 -46.5t39 -19.5
q41 0 97 65q-57 67 -96 67zM563 327q-37 0 -98 -66l36 -36q35 -30 60 -30q24 0 40 20t16 47q0 29 -16 47t-38 18z" />
    <glyph glyph-name="logicaland" unicode="&#x2227;" horiz-adv-x="586" 
d="M303 473l261 -473h-152l-123 242l-118 -242h-151l256 473h27z" />
    <glyph glyph-name="logicalor" unicode="&#x2228;" horiz-adv-x="586" 
d="M289 229l123 243h152l-261 -472h-27l-256 472h151z" />
    <glyph glyph-name="intersection" unicode="&#x2229;" horiz-adv-x="591" 
d="M293 351q-53 0 -83 -32t-30 -78v-241h-139v244q0 100 70 167t182 67q122 0 189 -70q69 -69 69 -186v-222h-141v239q0 49 -29 80.5t-88 31.5z" />
    <glyph glyph-name="union" unicode="&#x222a;" horiz-adv-x="591" 
d="M293 121q58 0 87.5 31.5t29.5 79.5v240h141v-222q0 -116 -69 -187q-68 -69 -189 -69q-112 0 -182 67t-70 167v244h139v-242q0 -45 30 -77t83 -32z" />
    <glyph glyph-name="integral" unicode="&#x222b;" horiz-adv-x="390" 
d="M147 22q-1 92 -17 260t-17 264q-2 91 40.5 142t125.5 51q47 0 100 -14v-111q-43 9 -66 9q-37 0 -52 -18t-14 -63q1 -77 11 -178l12 -137q11 -122 13 -212q2 -87 -41.5 -136t-124.5 -49q-43 0 -103 17v117q51 -16 75 -16q60 0 58 74z" />
    <glyph glyph-name="approxequal" unicode="&#x2248;" horiz-adv-x="588" 
d="M380 313q-31 0 -86 20q-52 21 -79 21q-35 0 -72 -55l-57 55q21 45 51.5 70.5t66.5 25.5q29 0 87 -20t85 -20q36 0 66 52l59 -54q-18 -43 -50.5 -69t-70.5 -26zM378 143q-31 0 -86 20q-53 21 -79 21q-35 0 -72 -55l-57 55q21 45 51.5 70.5t66.5 25.5q29 0 87 -20t85 -20
q36 0 66 52l59 -54q-18 -43 -50.5 -69t-70.5 -26z" />
    <glyph glyph-name="notequal" unicode="&#x2260;" horiz-adv-x="588" 
d="M165 71h-85l69 83h-67v99h146l62 74h-208v100h288l62 75h83l-65 -75h53v-100h-130l-63 -74h193v-99h-271z" />
    <glyph glyph-name="lessequal" unicode="&#x2264;" horiz-adv-x="588" 
d="M510 236v-112l-432 190v18l432 183v-112q-182 -69 -206 -79v-2zM510 6h-434v93h434v-93z" />
    <glyph glyph-name="greaterequal" unicode="&#x2265;" horiz-adv-x="588" 
d="M76 99h434v-93h-434v93zM509 332v-18l-433 -190v112l206 86v2q-24 10 -206 79v112z" />
    <glyph glyph-name="lozenge" unicode="&#x25ca;" horiz-adv-x="547" 
d="M287 0h-29l-223 333l223 332h29l224 -332zM395 333l-122 189l-122 -189l122 -198z" />
    <glyph glyph-name="zero.text" unicode="&#xe000;" horiz-adv-x="588" 
d="M295 672q74 0 129.5 -29t86.5 -81q57 -95 57 -231q0 -66 -14.5 -124.5t-45.5 -108.5t-86 -79.5t-129 -29.5q-150 0 -215 105q-58 97 -58 237q0 52 8.5 99.5t28.5 92.5t51 77.5t79 52t108 19.5zM295 531q-97 0 -97 -198q0 -203 97 -203q94 0 94 203q0 198 -94 198z" />
    <glyph glyph-name="one.text" unicode="&#xe001;" horiz-adv-x="481" 
d="M360 670h21v-670h-184v434l-154 -63v158z" />
    <glyph glyph-name="two.text" unicode="&#xe002;" horiz-adv-x="588" 
d="M541 0h-486l-19 15q4 117 59 188q48 62 124 112l29 19l31 21q2 1 5.5 4t9 7.5t10.5 7.5q20 15 42 44q18 23 18 54q0 32 -21.5 50.5t-53.5 18.5q-34 0 -56 -23t-22 -61q0 -19 7 -48l-157 29q-5 28 -5 45q0 86 72 140q71 55 169 55q102 0 172 -53q70 -52 70 -149
q0 -107 -128 -196q-22 -15 -50 -34q-45 -30 -54 -38q-52 -40 -64 -80h298v-128z" />
    <glyph glyph-name="three.text" unicode="&#xe003;" horiz-adv-x="576" 
d="M164 324l-16 20l136 184v2l-1 2h-234v127h483v-21l-167 -223q78 -21 118 -73t40 -125q0 -98 -76 -162q-74 -64 -196 -64q-121 0 -216 48v149q73 -63 183 -63q63 0 100.5 28.5t37.5 76.5q0 50 -37.5 75.5t-96.5 25.5q-29 0 -58 -7z" />
    <glyph glyph-name="four.text" unicode="&#xe004;" horiz-adv-x="588" 
d="M342 323l61 113h113v-173h59v-127h-59v-136h-174v136h-338v17l264 506h183l-216 -396h107v60z" />
    <glyph glyph-name="five.text" unicode="&#xe005;" horiz-adv-x="588" 
d="M310 437q101 0 170 -57q69 -56 69 -160q0 -100 -75 -165q-74 -64 -197 -64q-121 0 -215 48v150q30 -29 81 -46.5t102 -17.5q63 0 100 28.5t37 75.5q0 49 -35.5 74t-97.5 25q-77 0 -145 -30l-19 12l45 350h386v-127h-262l-15 -105q31 9 71 9z" />
    <glyph glyph-name="six.text" unicode="&#xe006;" horiz-adv-x="588" 
d="M118 442l134 217h191l-156 -240q0 -1 0.5 -3l0.5 -2q29 6 56 6q98 0 155 -59q58 -58 58 -148q0 -101 -72 -162q-70 -61 -189 -61q-117 0 -191 59q-73 60 -73 167q0 42 15 85q16 48 28 68zM296 309q-39 0 -65 -26t-26 -64q0 -40 25 -65t66 -25t66 25t25 65q0 37 -26 63.5
t-65 26.5z" />
    <glyph glyph-name="seven.text" unicode="&#xe007;" horiz-adv-x="516" 
d="M520 640l-285 -640h-182l236 531h-262v128h493v-19z" />
    <glyph glyph-name="eight.text" unicode="&#xe008;" horiz-adv-x="588" 
d="M374 464q0 32 -21 52t-55 20q-32 0 -53 -20.5t-21 -52.5q0 -31 20.5 -50.5t54.5 -19.5q33 0 54 20t21 51zM387 214q0 39 -24.5 63.5t-65.5 24.5q-40 0 -65 -25t-25 -63q0 -37 25 -62t65 -25t65 25t25 62zM462 354v-5q95 -47 95 -155q0 -93 -70 -148q-71 -56 -190 -56
q-124 0 -194 55t-70 147q0 49 24.5 91t68.5 63l1 4q-69 40 -69 129q0 86 68 139q69 54 171 54q105 0 170 -53t65 -138q0 -37 -19 -72t-51 -55z" />
    <glyph glyph-name="nine.text" unicode="&#xe009;" horiz-adv-x="588" 
d="M337 0h-191l158 242q0 1 -1 3q-1 1 -1 2q-28 -6 -56 -6q-97 0 -155 58q-57 59 -57 149q0 100 71 162q73 62 190 62t190 -60t73 -167q0 -72 -47 -160q-25 -48 -174 -285zM295 353q39 0 64.5 26t25.5 63q0 40 -24.5 65.5t-65.5 25.5t-66 -25.5t-25 -65.5q0 -37 26 -63
t65 -26z" />
    <glyph glyph-name="numbersign.text" unicode="&#xe00a;" horiz-adv-x="580" 
d="M355 460l37 167h95l-36 -167h89v-81h-106l-22 -96h94v-83h-111l-44 -200h-97q33 147 44 200h-87l-42 -200h-99l44 200h-76v83h94q6 30 22 96h-85v81h102l37 167h97l-36 -167h86zM337 379h-87l-20 -96h87z" />
    <glyph glyph-name="dollar.text" unicode="&#xe00b;" horiz-adv-x="588" 
d="M349 -111h-95v110q-111 9 -185 52v154q39 -30 110 -54q74 -23 117 -23q77 0 77 57q0 47 -105 91q-39 16 -67.5 31t-60.5 39t-49 58t-16 75q0 69 47 118.5t132 61.5v117h95v-116q83 -9 152 -39v-139q-90 56 -188 56q-73 0 -73 -56q0 -21 27 -40.5t79 -43.5
q197 -80 196 -206q0 -67 -48 -124q-49 -56 -145 -68v-111z" />
    <glyph glyph-name="euro.text" unicode="&#xe00c;" horiz-adv-x="588" 
d="M463 414v-61h-434v61h47q23 115 105 185q82 72 214 72q75 0 141 -23v-156q-58 24 -117 24q-121 0 -158 -102h202zM29 255v61h434v-61h-207q30 -110 154 -110q68 0 140 34v-159q-68 -28 -160 -28q-131 0 -214.5 70t-101.5 193h-45z" />
    <glyph glyph-name="florin.text" unicode="&#xe00d;" horiz-adv-x="535" 
d="M164 289h-79v115h91l6 62q16 210 195 210q59 0 120 -18v-142q-36 11 -63 11q-67 0 -74 -73l-5 -50h108v-115h-118l-14 -144q-13 -132 -63.5 -191.5t-147.5 -59.5q-51 0 -118 23v145q42 -14 70 -14q40 0 56 30q18 32 25 111z" />
    <glyph glyph-name="sterling.text" unicode="&#xe00e;" horiz-adv-x="588" 
d="M523 637v-145q-71 33 -126 33q-41 0 -65 -22.5t-24 -66.5l-1 -48h135v-102h-140q-4 -109 -36 -157h272v-129h-495v16q75 105 82 270h-57v102h61l2 55q6 114 71 171q64 57 160 57q86 0 161 -34z" />
    <glyph glyph-name="cent.text" unicode="&#xe00f;" horiz-adv-x="514" 
d="M343 2h-95v113q-88 14 -138 75t-50 152q0 92 50.5 155t137.5 81v113h95v-108q49 -4 90 -19v-138q-42 21 -98 21q-48 0 -77 -27t-29 -74t27.5 -73t75.5 -26q63 0 116 29v-133q-39 -22 -105 -29v-112z" />
    <glyph glyph-name="yen.text" unicode="&#xe010;" horiz-adv-x="588" 
d="M60 152v59h492v-59h-152v-152h-196v152h-144zM552 311v-61h-492v61h123l-161 348h205l80 -268h3q7 19 37 134t37 134h202q-10 -18 -81 -172q-63 -137 -84 -176h131z" />
    <glyph glyph-name="zero.taboldstyle" unicode="&#xe024;" horiz-adv-x="580" 
d="M291 463q124 0 195 -67q72 -66 72 -169q0 -104 -73 -171q-73 -66 -194 -66q-123 0 -196 65q-72 66 -72 170q0 102 74 170t194 68zM292 325q-39 0 -64.5 -28t-25.5 -68q0 -47 23.5 -74t66.5 -27q42 0 68 28t26 73q0 42 -26 69t-68 27z" />
    <glyph glyph-name="one.taboldstyle" unicode="&#xe025;" horiz-adv-x="580" 
d="M531 0h-440v129h132v150l-125 -34v137l286 83h22v-336h125v-129z" />
    <glyph glyph-name="two.taboldstyle" unicode="&#xe026;" horiz-adv-x="580" 
d="M216 262l-147 20q-3 14 -3 28q0 76 64 116q65 41 160 41q101 0 163 -40q64 -40 64 -109q0 -40 -30 -75t-73 -55l-77 -34q-37 -16 -45 -26h232v-128h-473l-3 4q-3 4 -4 6q6 138 139 199l34 15l59 28q29 15 42.5 27.5t13.5 27.5q0 16 -16.5 27t-43.5 11t-44 -15.5
t-17 -42.5q0 -13 5 -25z" />
    <glyph glyph-name="three.taboldstyle" unicode="&#xe027;" horiz-adv-x="580" 
d="M157 137l-15 15l126 164h-211v130h448v-20l-147 -202q68 -23 104 -72t36 -116q0 -92 -70 -150q-70 -60 -183 -60t-201 46v144q70 -60 171 -60q52 0 83.5 27.5t31.5 69.5q0 44 -32 68.5t-82 24.5q-30 0 -59 -9z" />
    <glyph glyph-name="four.taboldstyle" unicode="&#xe028;" horiz-adv-x="580" 
d="M6 15l254 431h174l-206 -324h97v51q6 10 56 88h113v-139h60v-122h-60v-168h-168v168h-320v15z" />
    <glyph glyph-name="five.taboldstyle" unicode="&#xe029;" horiz-adv-x="580" 
d="M298 245q95 0 160 -53q66 -52 66 -151q0 -92 -71 -154t-186 -62q-106 0 -205 47v149q33 -29 80.5 -46t94.5 -17q54 0 87 26t33 66q0 37 -32 64t-84 27q-71 0 -134 -29l-20 11l40 323h364v-130h-245l-11 -78q27 7 63 7z" />
    <glyph glyph-name="six.taboldstyle" unicode="&#xe02a;" horiz-adv-x="580" 
d="M541 197q0 -92 -71 -149q-70 -57 -184 -57q-112 0 -181 54q-69 56 -69 152q0 36 14 78q15 41 27 63q20 34 43 69l126 198h187l-145 -215q0 -4 1 -5q32 2 37 2q98 0 157 -53q58 -52 58 -137zM288 284q-35 0 -58.5 -24t-23.5 -58q0 -37 22.5 -60t59.5 -23q39 0 63.5 23
t24.5 60q0 34 -25 58t-63 24z" />
    <glyph glyph-name="seven.taboldstyle" unicode="&#xe02b;" horiz-adv-x="580" 
d="M529 425l-261 -593h-182l212 484h-254v129h485v-20z" />
    <glyph glyph-name="eight.taboldstyle" unicode="&#xe02c;" horiz-adv-x="580" 
d="M212 195q0 -32 22.5 -54.5t58.5 -22.5q34 0 56.5 22.5t22.5 54.5q0 34 -22 57t-57 23q-36 0 -58.5 -23t-22.5 -57zM514 441q0 -34 -17.5 -66.5t-46.5 -52.5v-1q-1 -1 -1 -2q88 -43 88 -140q0 -87 -65.5 -138t-178.5 -51q-117 0 -184 50.5t-67 135.5q0 43 24 82t63 59v3
q-61 37 -61 118q0 80 64 129q64 51 161 51q98 0 160 -50q61 -49 61 -127zM227 424q0 -27 18.5 -44t48.5 -17q28 0 47 18t19 44q0 28 -19 45.5t-48 17.5t-47.5 -18t-18.5 -46z" />
    <glyph glyph-name="nine.taboldstyle" unicode="&#xe02d;" horiz-adv-x="580" 
d="M36 253q0 92 70 149q70 58 186 58q112 0 180 -55q69 -55 69 -152q0 -52 -19 -94q-17 -41 -57 -104l-138 -223h-188l150 229q0 3 -1 4q-18 -2 -37 -2q-99 0 -157 52t-58 138zM289 166q35 0 58.5 24t23.5 58q0 37 -22.5 60t-59.5 23q-39 0 -63 -23t-24 -60q0 -34 24.5 -58
t62.5 -24z" />
    <glyph glyph-name="numbersign.taboldstyle" unicode="&#xe02e;" horiz-adv-x="580" 
d="M353 396l28 126h92q-7 -28 -28 -126h74v-85h-92l-16 -71h79v-43q1 -19 1 -42h-98l-34 -155h-94q2 9 17 76l18 79h-65l-34 -155h-96l35 155h-61v85h80q15 67 16 71h-70v85h88l28 126h94l-28 -126h66zM335 311h-66l-16 -71h65z" />
    <glyph glyph-name="dollar.taboldstyle" unicode="&#xe02f;" horiz-adv-x="580" 
d="M339 -111h-91v107q-103 8 -168 41v140q34 -27 93 -45q60 -17 101 -17q34 0 54.5 11.5t20.5 32.5q0 39 -93 75q-35 13 -59.5 26t-53 33.5t-43 48.5t-14.5 62q0 58 43 100t119 53v107h91v-105q80 -8 146 -34v-127q-27 16 -76 30q-48 14 -82 14q-67 0 -67 -40
q0 -14 19.5 -27t48.5 -23.5t63 -27t63 -36t48.5 -53.5t19.5 -76q0 -60 -46 -106q-45 -46 -137 -57v-107z" />
    <glyph glyph-name="euro.taboldstyle" unicode="&#xe030;" horiz-adv-x="580" 
d="M443 345v-54h-405v54h45q24 96 101.5 153.5t195.5 57.5q70 0 132 -18v-134q-58 20 -109 20q-106 0 -140 -79h180zM38 205v53h405v-53h-187q27 -87 148 -87q59 1 120 28v-136q-72 -23 -150 -23q-120 0 -198 58t-96 160h-42z" />
    <glyph glyph-name="florin.taboldstyle" unicode="&#xe031;" horiz-adv-x="580" 
d="M199 235h-76v100h87l5 54q18 183 188 183q58 0 116 -15v-125q-29 10 -60 10q-63 0 -71 -63l-5 -44h105v-100h-115l-13 -126q-11 -114 -59.5 -166.5t-142.5 -52.5q-49 0 -114 20v126q38 -12 68 -12q36 0 52.5 26.5t24.5 96.5z" />
    <glyph glyph-name="sterling.taboldstyle" unicode="&#xe032;" horiz-adv-x="580" 
d="M497 530v-126q-69 28 -120 28q-83 0 -83 -73l-1 -35h126v-88h-131q-5 -77 -22 -107h244v-129h-469v14q70 74 77 222h-53v88h56l3 44q5 96 66 142q61 48 152 48q83 0 155 -28z" />
    <glyph glyph-name="cent.taboldstyle" unicode="&#xe033;" horiz-adv-x="580" 
d="M358 -38h-93v101q-83 12 -130 65t-47 133t48 135t129 71v103h93v-99q46 -4 81 -17v-125q-40 20 -92 20q-43 0 -69 -22.5t-26 -62.5q0 -38 25 -60t67 -22q55 0 109 27v-121q-33 -17 -95 -26v-100z" />
    <glyph glyph-name="yen.taboldstyle" unicode="&#xe034;" horiz-adv-x="580" 
d="M522 260v-55h-464v55h114l-149 287h195l73 -220h3l67 220h194l-154 -287h121zM58 121v53h464v-53h-141v-121h-189v121h-134z" />
    <glyph glyph-name="zero.textoldstyle" unicode="&#xe048;" horiz-adv-x="580" 
d="M291 461q124 0 195 -67q72 -66 72 -169q0 -104 -73 -170q-73 -65 -194 -65q-123 0 -196 65q-72 66 -72 170q0 101 74 169q73 67 194 67zM292 323q-39 0 -64.5 -27.5t-25.5 -67.5q0 -46 24 -73t66 -27t68 27.5t26 72.5q0 42 -26 68.5t-68 26.5z" />
    <glyph glyph-name="one.textoldstyle" unicode="&#xe049;" horiz-adv-x="523" 
d="M487 0h-440v129h131v150l-125 -38v142l287 90h21v-344h126v-129z" />
    <glyph glyph-name="two.textoldstyle" unicode="&#xe04a;" horiz-adv-x="580" 
d="M216 262l-147 20q-3 14 -3 28q0 76 64 116q65 41 160 41q101 0 163 -40q64 -40 64 -109q0 -40 -30 -75t-73 -55l-77 -34q-37 -16 -45 -26h234v-128h-475l-3 4q-3 4 -4 6q6 138 139 199l34 15l59 28q29 15 42.5 27.5t13.5 27.5q0 16 -16.5 27t-43.5 11t-44 -15.5
t-17 -42.5q0 -13 5 -25z" />
    <glyph glyph-name="three.textoldstyle" unicode="&#xe04b;" horiz-adv-x="533" 
d="M142 137l-15 15l126 164h-211v130h448v-20l-147 -202q68 -23 104 -72t36 -116q0 -92 -70 -150q-71 -60 -183 -60q-113 0 -201 46v144q71 -60 171 -60q52 0 83.5 27.5t31.5 69.5q0 44 -32 68.5t-82 24.5q-31 0 -59 -9z" />
    <glyph glyph-name="four.textoldstyle" unicode="&#xe04c;" horiz-adv-x="580" 
d="M11 15l254 431h174l-206 -324h97v51q6 10 56 88h113v-139h60v-122h-60v-168h-168v168h-320v15z" />
    <glyph glyph-name="five.textoldstyle" unicode="&#xe04d;" horiz-adv-x="545" 
d="M273 245q95 0 160 -53q66 -52 66 -151q0 -92 -71 -154t-186 -62q-106 0 -205 47v149q33 -29 81 -46t94 -17q54 0 87 26t33 66q0 37 -32 64t-84 27q-71 0 -134 -29l-20 11l40 323h364v-130h-245l-10 -78q27 7 62 7z" />
    <glyph glyph-name="six.textoldstyle" unicode="&#xe04e;" horiz-adv-x="580" 
d="M541 197q0 -92 -71 -149q-70 -57 -184 -57q-112 0 -181 54q-69 56 -69 152q0 36 14 78q15 41 27 63q20 34 43 69l126 198h187l-145 -216q0 -3 1 -4q32 2 37 2q98 0 157 -53q58 -52 58 -137zM288 284q-35 0 -58.5 -24t-23.5 -58q0 -37 22.5 -60t59.5 -23q39 0 63.5 23
t24.5 60q0 34 -25 58t-63 24z" />
    <glyph glyph-name="seven.textoldstyle" unicode="&#xe04f;" horiz-adv-x="515" 
d="M499 425l-259 -593h-183l210 485h-251v128h483v-20z" />
    <glyph glyph-name="eight.textoldstyle" unicode="&#xe050;" horiz-adv-x="580" 
d="M212 195q0 -32 22.5 -54.5t58.5 -22.5q34 0 56.5 22.5t22.5 54.5q0 34 -22 57t-57 23q-36 0 -58.5 -23t-22.5 -57zM514 441q0 -34 -17.5 -66.5t-46.5 -52.5v-1q-1 -1 -1 -2q88 -43 88 -140q0 -87 -65.5 -138t-178.5 -51q-117 0 -184 50.5t-67 135.5q0 43 24 82t63 59v3
q-61 37 -61 118q0 80 64 129q64 51 161 51q98 0 160 -50q61 -49 61 -127zM227 424q0 -27 18.5 -44t48.5 -17q28 0 47 18t19 44q0 28 -19 45.5t-48 17.5t-47.5 -18t-18.5 -46z" />
    <glyph glyph-name="nine.textoldstyle" unicode="&#xe051;" horiz-adv-x="580" 
d="M36 253q0 92 70 149q70 58 186 58q112 0 180 -55q69 -55 69 -152q0 -37 -13 -73q-13 -39 -25 -60q-1 -2 -38 -65l-138 -223h-188l150 229q0 3 -1 4q-18 -2 -37 -2q-99 0 -157 52t-58 138zM289 166q35 0 58.5 24t23.5 58q0 37 -22.5 60t-59.5 23q-39 0 -63 -23t-24 -60
q0 -34 24.5 -58t62.5 -24z" />
    <glyph glyph-name="numbersign.textoldstyle" unicode="&#xe052;" horiz-adv-x="529" 
d="M323 396l28 126h92q-7 -28 -28 -126h74v-85h-92l-16 -71h79v-43q1 -19 1 -42h-98l-34 -155h-94q2 9 17 76l18 79h-65l-34 -155h-96l35 155h-61v85h80q15 67 16 71h-70v85h88l28 126h94l-28 -126h66zM305 311h-66l-16 -71h65z" />
    <glyph glyph-name="dollar.textoldstyle" unicode="&#xe053;" horiz-adv-x="540" 
d="M300 -111h-92v107q-103 8 -167 41v140q35 -27 93 -45q60 -17 101 -17q34 0 54.5 11.5t20.5 32.5q0 39 -93 75q-35 13 -59.5 26t-53 33.5t-43 48.5t-14.5 62q0 59 42.5 100.5t119.5 52.5v107h91v-105q80 -8 146 -34v-127q-27 16 -76 30q-48 14 -82 14q-67 0 -67 -40
q0 -14 19.5 -27t48.5 -23.5t63 -27t63 -36t48.5 -53.5t19.5 -76q0 -60 -46 -106q-45 -46 -137 -57v-107z" />
    <glyph glyph-name="euro.textoldstyle" unicode="&#xe054;" horiz-adv-x="575" 
d="M446 345v-54h-405v54h45q24 96 101.5 153.5t195.5 57.5q71 0 132 -18v-134q-58 20 -109 20q-106 0 -140 -79h180zM41 205v53h405v-53h-187q27 -87 148 -87q59 1 120 28v-136q-72 -23 -150 -23q-120 0 -198 58t-96 160h-42z" />
    <glyph glyph-name="florin.textoldstyle" unicode="&#xe055;" horiz-adv-x="514" 
d="M160 235h-76v100h87l5 54q16 183 188 183q58 0 116 -15v-125q-29 10 -61 10q-65 0 -70 -63l-5 -44h105v-100h-115l-13 -126q-11 -114 -59.5 -166.5t-142.5 -52.5q-49 0 -114 20v126q37 -12 68 -12q36 0 52.5 26.5t24.5 96.5z" />
    <glyph glyph-name="sterling.textoldstyle" unicode="&#xe056;" horiz-adv-x="538" 
d="M493 530v-126q-72 28 -120 28q-83 0 -83 -74l-1 -34h126v-88h-131q-5 -77 -22 -107h244v-129h-469v14q70 74 77 222h-53v88h57l2 44q5 96 66 142q61 48 152 48q83 0 155 -28z" />
    <glyph glyph-name="cent.textoldstyle" unicode="&#xe057;" horiz-adv-x="480" 
d="M321 -38h-93v101q-83 12 -130 65t-47 133t48 135t129 71v103h93v-99q48 -4 81 -17v-125q-40 20 -92 20q-43 0 -69 -22.5t-26 -62.5q0 -38 25 -60t67 -22q55 0 109 27v-121q-33 -17 -95 -26v-100z" />
    <glyph glyph-name="yen.textoldstyle" unicode="&#xe058;" horiz-adv-x="566" 
d="M515 260v-54h-464v54h114l-150 287h196l31 -93q35 -104 44 -127l39 124l29 96h194l-154 -287h121zM51 121v53h464v-53h-141v-121h-189v121h-134z" />
    <glyph glyph-name="percent.text" unicode="&#xe059;" horiz-adv-x="734" 
d="M347 451q0 -60 -43 -103q-44 -42 -111 -42q-71 0 -113.5 40.5t-42.5 104.5q0 62 43 104q44 42 113 42q70 0 112 -42t42 -104zM193 500q-20 0 -32 -14t-12 -35q0 -50 44 -50q20 0 32.5 14t12.5 36q0 21 -13 35t-32 14zM544 283q71 0 113 -42q42 -41 42 -102
q0 -62 -43 -105q-44 -42 -112 -42q-71 0 -113 40.5t-42 106.5q0 62 43 103t112 41zM500 139q-3 -31 20.5 -44.5t47 0t21.5 44.5q0 20 -13 33.5t-32 13.5q-18 0 -31 -14t-13 -33zM508 595h94l-383 -617h-92z" />
    <glyph glyph-name="perthousand.text" unicode="&#xe05a;" horiz-adv-x="1074" 
d="M347 451q0 -60 -43 -103q-44 -42 -111 -42q-71 0 -113.5 40.5t-42.5 104.5q0 62 43 104q44 42 113 42q70 0 112 -42t42 -104zM193 500q-20 0 -32 -14t-12 -35q0 -50 44 -50q20 0 32.5 14t12.5 36q0 21 -13 35t-32 14zM544 283q71 0 113 -42q42 -41 42 -102
q0 -62 -43 -105q-44 -42 -112 -42q-71 0 -113 40.5t-42 106.5q0 62 43 103t112 41zM500 139q-3 -31 20.5 -44.5t47 0t21.5 44.5q0 20 -13 33.5t-32 13.5q-18 0 -31 -14t-13 -33zM508 595h94l-383 -617h-92zM885 283q70 0 112 -41t42 -103t-43 -105q-42 -42 -111 -42
q-71 0 -113 40.5t-42 106.5q0 62 43 103t112 41zM885 186q-20 0 -32 -14t-12 -33q-3 -31 20.5 -44.5t47 0t21.5 44.5q0 20 -13 33.5t-32 13.5z" />
    <glyph glyph-name="asuperior" unicode="&#xe06c;" horiz-adv-x="369" 
d="M338 299h-109l-9 30q-38 -38 -103 -38q-47 0 -74 24t-27 64q0 46 40 71.5t110 25.5h42v8q0 35 -51 35q-52 0 -100 -22v86q59 21 129 21q152 0 152 -134v-171zM210 416v9h-23q-21 0 -34.5 -8.5t-13.5 -23.5q0 -23 29 -23q19 0 30.5 12.5t11.5 33.5z" />
    <glyph glyph-name="bsuperior" unicode="&#xe06d;" horiz-adv-x="411" 
d="M130 334q-1 -4 -6.5 -17.5t-6.5 -16.5h-88v464h124v-186q33 24 83 24q72 0 115 -42t43 -111t-45 -113t-119 -44q-26 0 -54.5 11t-45.5 31zM215 505q-24 0 -39 -16t-15 -40q0 -27 14.5 -42.5t38.5 -15.5q25 0 40 16t15 42q0 24 -15 40t-39 16z" />
    <glyph glyph-name="dsuperior" unicode="&#xe06f;" horiz-adv-x="414" 
d="M255 581v92q1 47 1 91h125l1 -464h-96l-16 34q-38 -42 -101 -42q-73 0 -113.5 41.5t-40.5 109.5q0 72 45 116.5t115 44.5q48 0 80 -23zM196 506q-24 0 -39 -16.5t-15 -40.5q0 -27 14.5 -42.5t39.5 -15.5q23 0 38.5 16.5t15.5 42.5q0 24 -15 40t-39 16z" />
    <glyph glyph-name="esuperior" unicode="&#xe070;" horiz-adv-x="362" 
d="M180 607q76 0 119.5 -41.5t43.5 -115.5q0 -12 -1 -15h-199q2 -27 23 -44t49 -17q56 0 112 34v-82q-61 -34 -128 -34q-89 0 -136.5 43.5t-47.5 114.5q0 66 45 111q46 46 120 46zM187 529q-18 0 -31 -12.5t-16 -30.5h91q-7 43 -44 43z" />
    <glyph glyph-name="egravesuperior" unicode="&#xe071;" horiz-adv-x="368" 
d="M153 787l101 -149h-75l-115 99zM183 607q76 0 119 -41.5t43 -115.5v-15h-200q3 -27 24 -44t49 -17q55 0 111 34v-82q-61 -34 -127 -34q-89 0 -137 43.5t-48 114.5q0 66 45 111q46 46 121 46zM190 529q-18 0 -31.5 -12.5t-15.5 -30.5h90q-7 43 -43 43z" />
    <glyph glyph-name="hsuperior" unicode="&#xe073;" horiz-adv-x="391" 
d="M29 764h125v-198q38 38 94 38q54 0 83 -28t29 -82v-194h-129v167q0 38 -32 38q-18 0 -29.5 -15t-11.5 -43v-147h-129v464z" />
    <glyph glyph-name="isuperior" unicode="&#xe074;" horiz-adv-x="193" 
d="M30 595h130v-295h-130v295zM96 756q29 1 49 -19t20 -45t-20 -46q-19 -19 -49 -19q-29 0 -48.5 19t-19.5 46t20 45.5t48 18.5z" />
    <glyph glyph-name="lsuperior" unicode="&#xe077;" horiz-adv-x="188" 
d="M28 764h130v-464h-130v464z" />
    <glyph glyph-name="msuperior" unicode="&#xe078;" horiz-adv-x="582" 
d="M158 300h-128v295h102l15 -40q16 23 42.5 35.5t52.5 12.5q68 0 96 -51q36 52 101 52q52 0 81 -29t29 -82v-193h-130v169q0 36 -28 36q-37 0 -37 -51v-154h-129v164q0 41 -30 41q-16 0 -26.5 -13.5t-10.5 -37.5v-154z" />
    <glyph glyph-name="osuperior" unicode="&#xe079;" horiz-adv-x="393" 
d="M196 606q82 0 130 -45q49 -43 49 -112t-49 -112.5t-130 -43.5q-83 0 -132 43t-49 113q0 68 50 112q49 45 131 45zM196 506q-23 0 -37 -15.5t-14 -39.5q0 -28 13.5 -44t37.5 -16t39 16.5t15 43.5q0 24 -15 39.5t-39 15.5z" />
    <glyph glyph-name="rsuperior" unicode="&#xe07c;" horiz-adv-x="291" 
d="M29 595h93l16 -49q24 57 91 57q33 0 57 -10v-112q-36 15 -63 15q-38 0 -51.5 -23t-13.5 -83v-90h-129v295z" />
    <glyph glyph-name="ssuperior" unicode="&#xe07d;" horiz-adv-x="286" 
d="M10 319v98q24 -18 57.5 -31t55.5 -13q30 0 30 15q0 7 -21.5 17t-47.5 20.5t-47.5 33.5t-21.5 54q0 40 34.5 66t93.5 26q55 0 112 -22v-89q-47 27 -93 27q-26 0 -26 -13q0 -6 21 -14.5t47 -17.5t47 -32.5t21 -56.5q0 -41 -35 -68t-99 -27q-74 0 -128 27z" />
    <glyph glyph-name="tsuperior" unicode="&#xe07e;" horiz-adv-x="272" 
d="M5 569l149 123h25v-96h77v-93h-77v-78q0 -37 31 -37q19 0 53 17v-90q-37 -25 -94 -25q-120 0 -120 125v88h-44v66z" />
    <glyph glyph-name="i.dot" unicode="&#xe096;" horiz-adv-x="283" 
d="M230 446v-446h-178v446h178zM237 603q0 -40 -26 -67t-67 -27t-67 27t-26 66t28 66t65 27q40 0 66.5 -26.5t26.5 -65.5z" />
    <glyph glyph-name="a.alt" unicode="&#xe0a8;" horiz-adv-x="603" 
d="M289 321q-38 0 -62 -27t-24 -68q0 -46 22.5 -72.5t63.5 -26.5q40 0 63.5 27.5t23.5 71.5q0 42 -24 68.5t-63 26.5zM264 460q97 0 153 -62l21 49h116v-447h-133l-17 51q-62 -60 -157 -60q-102 0 -161 60.5t-59 165.5q0 103 63 173q64 70 174 70z" />
    <glyph glyph-name="g.alt" unicode="&#xe0a9;" horiz-adv-x="602" 
d="M382 13v28l-1 1h-2q-47 -45 -128 -45q-104 0 -163.5 59.5t-59.5 163.5t64 171q64 69 171 69q91 0 148 -57h4l13 44h127v-380q0 -301 -299 -301q-52 0 -107 13t-91 34v150q102 -63 188 -63q62 0 99 31t37 82zM370 226q0 44 -23 69t-62 25t-63 -26t-24 -68
q0 -41 23.5 -67.5t61.5 -26.5q40 0 63.5 27t23.5 67z" />
    <glyph glyph-name="two.alt" unicode="&#xe0aa;" horiz-adv-x="575" 
d="M350 133l1 -3h195v-130h-521v20q320 243 320 411q0 47 -25.5 72.5t-71.5 25.5q-74 0 -178 -59v138q91 67 216 67q114 0 175.5 -56.5t61.5 -149.5q0 -74 -45 -164q-44 -88 -128 -172z" />
    <glyph glyph-name="two_taboldstyle.alt" unicode="&#xe0ab;" horiz-adv-x="580" 
d="M399 131q0 -1 1 -2v-1h141v-128h-515v22q105 47 197 110q104 73 104 142q0 49 -80 49q-36 0 -92 -14q-53 -13 -84 -30v130q101 60 214 60q120 0 171 -46.5t51 -112.5q0 -42 -29 -91t-79 -88z" />
    <glyph glyph-name="two_textoldstyle.alt" unicode="&#xe0ac;" horiz-adv-x="580" 
d="M394 131v-2l1 -1h146v-128h-515v22q105 47 197 110q104 73 104 142q0 49 -80 49q-36 0 -92 -14q-53 -13 -84 -30v130q101 60 214 60q120 0 171 -46.5t51 -112.5q0 -42 -30.5 -89.5t-82.5 -89.5z" />
    <glyph glyph-name="A2.alt" unicode="&#xe0b6;" horiz-adv-x="688" 
d="M681 0h-200l-135 299h-4l-140 -299h-195l329 675h23z" />
    <glyph glyph-name="F.alt" unicode="&#xe0b7;" horiz-adv-x="545" 
d="M254 246v-463h-196v876h471v-147h-275v-125h233v-141h-233z" />
    <glyph glyph-name="I.alt" unicode="&#xe0b8;" horiz-adv-x="319" 
d="M257 872v-872h-196v872h196z" />
    <glyph glyph-name="L.alt" unicode="&#xe0b9;" horiz-adv-x="542" 
d="M59 0v872h196v-724h276v-148h-472z" />
    <glyph glyph-name="P2.alt" unicode="&#xe0ba;" horiz-adv-x="604" 
d="M254 -217h-196v876h271q126 0 192 -66q67 -64 67 -158q0 -96 -67 -160q-67 -65 -180 -65h-87v-427zM302 516h-49v-166h29q113 0 113 82q0 37 -24.5 60.5t-68.5 23.5z" />
    <glyph glyph-name="T.alt" unicode="&#xe0bb;" horiz-adv-x="578" 
d="M566 872v-148h-180v-724h-196v724h-179v148h555z" />
    <glyph glyph-name="Y.alt" unicode="&#xe0bc;" horiz-adv-x="710" 
d="M348 -217h-192l90 233l-243 643h206l46 -138q66 -187 93 -298h4q37 131 147 436h205z" />
    <glyph glyph-name="Q.alt" unicode="&#xe0bd;" horiz-adv-x="805" 
d="M401 -12q-163 0 -263 97q-99 97 -99 245q0 145 102 244q103 99 262 99t260 -99q101 -98 101 -244q0 -148 -102 -245q-101 -97 -261 -97zM404 513q-75 0 -122 -53t-47 -130q0 -82 46 -134q47 -53 123 -53t121 53q46 52 46 134q0 78 -45 130q-45 53 -122 53zM351 -46
l401 -72l-45 -157l-401 71q7 27 45 158z" />
    <glyph glyph-name="Q2.alt" unicode="&#xe0be;" horiz-adv-x="805" 
d="M490 -217h-177q0 60 -1 108v107q-127 23 -200 114t-73 218q0 145 102 244q103 99 262 99t260 -99q101 -98 101 -244q0 -126 -76 -217q-75 -91 -198 -115v-215zM404 513q-75 0 -122 -53t-47 -130q0 -51 23 -91.5t62 -58.5v154h163v-162q41 19 64.5 61.5t23.5 96.5
q0 78 -45 130q-45 53 -122 53z" />
    <glyph glyph-name="uniE0C0" unicode="&#xe0c0;" horiz-adv-x="545" 
d="M529 724h-275v-724h-196v871h471v-147z" />
    <glyph glyph-name="uniE0C4" unicode="&#xe0c4;" horiz-adv-x="910" 
d="M556 -16v-201h-196v198q-162 19 -242 114q-79 94 -79 221q0 106 59 188q58 80 151.5 122t207.5 42q170 4 293.5 -95t122.5 -257q0 -114 -74 -209q-79 -103 -243 -123zM228 322q0 -68 33 -124q34 -55 99 -64v376q-60 -10 -97 -67q-35 -56 -35 -121zM683 325q0 66 -34 121
q-35 57 -93 63v-376q57 9 92 65q35 58 35 127z" />
    <glyph glyph-name="uniE0C5" unicode="&#xe0c5;" horiz-adv-x="874" 
d="M535 -10v-207h-196v207q-143 7 -218.5 86.5t-75.5 209.5v374h197v-389q0 -43 26 -81q26 -36 71 -41v510h196v-509q46 4 71.5 36.5t25.5 78.5v395h197v-368q0 -128 -76 -211q-78 -84 -218 -91z" />
    <glyph glyph-name="Parenleft" unicode="&#xe0d8;" horiz-adv-x="326" 
d="M223 765l96 -40q-120 -193 -120 -398q0 -207 121 -391l-98 -47q-83 92 -126 208t-43 229t44 231q45 116 126 208z" />
    <glyph glyph-name="Parenright" unicode="&#xe0d9;" horiz-adv-x="326" 
d="M18 725l96 40q83 -92 126 -209q45 -117 45 -230q0 -111 -44 -229q-43 -116 -126 -208q-11 5 -97 47q120 185 120 391q0 205 -120 398z" />
    <glyph glyph-name="Hyphen" unicode="&#xe0da;" horiz-adv-x="373" 
d="M323 223h-273v108h273v-108z" />
    <glyph glyph-name="Bracketleft" unicode="&#xe0db;" horiz-adv-x="306" 
d="M273 -103h-216v857h216v-105h-69v-653h69v-99z" />
    <glyph glyph-name="Bracketright" unicode="&#xe0dc;" horiz-adv-x="306" 
d="M39 754h215v-857h-215v99h68v653h-68v105z" />
    <glyph glyph-name="Braceleft" unicode="&#xe0dd;" horiz-adv-x="380" 
d="M191 349v-5q75 -16 75 -114v-167q0 -35 11.5 -50t43.5 -15h21v-101h-77q-147 0 -147 164v157q0 103 -64 116v20q64 15 64 103v125q0 172 145 172h79v-104h-16q-34 0 -47 -16.5t-13 -51.5v-136q0 -79 -75 -97z" />
    <glyph glyph-name="Braceright" unicode="&#xe0de;" horiz-adv-x="380" 
d="M197 344v5q-76 17 -76 97v136q0 35 -13 51.5t-46 16.5h-17v104h79q146 0 146 -159v-135q0 -85 64 -100v-23q-64 -13 -64 -119v-161q0 -160 -147 -160h-78v101h22q31 0 42.5 15t11.5 50v167q0 98 76 114z" />
    <glyph glyph-name="Endash" unicode="&#xe0df;" horiz-adv-x="615" 
d="M590 222h-564v121h564v-121z" />
    <glyph glyph-name="Emdash" unicode="&#xe0e0;" horiz-adv-x="854" 
d="M826 222h-798v121h798v-121z" />
    <glyph glyph-name="Exclamdown" unicode="&#xe0e1;" horiz-adv-x="339" 
d="M97 273h145l16 -486h-178q14 391 17 486zM255 408q0 -36 -25 -61.5t-59 -25.5q-36 0 -62 25.5t-26 61.5q0 34 26 58.5t62 24.5q34 0 59 -24.5t25 -58.5z" />
    <glyph glyph-name="Questiondown" unicode="&#xe0e2;" horiz-adv-x="537" 
d="M241 -10q0 -27 22.5 -44.5t58.5 -17.5q40 0 87.5 14.5t81.5 35.5v-153q-99 -41 -199 -41q-122 0 -183 54t-61 133q0 71 70 134q11 10 34.5 30t36.5 32t28.5 27.5t22.5 29t7 24.5q0 12 -6 23l136 23q23 -48 18.5 -80t-29.5 -64t-52.5 -55t-50 -51.5t-22.5 -53.5zM213 408
q0 34 25 58.5t59 24.5q39 0 62.5 -23t23.5 -60q0 -36 -24.5 -60.5t-61.5 -24.5q-36 0 -60 24.5t-24 60.5z" />
    <glyph glyph-name="Guillemotleft" unicode="&#xe0e3;" horiz-adv-x="528" 
d="M307 438l-134 -195l134 -202h-156l-125 194v10l126 193h155zM512 438l-134 -195l134 -202h-156l-125 194v10l126 193h155z" />
    <glyph glyph-name="Guillemotright" unicode="&#xe0e4;" horiz-adv-x="528" 
d="M175 41h-156l134 202l-134 195h155l126 -193v-10zM379 41h-156l134 202l-134 195h156l125 -193v-10z" />
    <glyph glyph-name="uniE12C" unicode="&#xe12c;" horiz-adv-x="1791" 
d="M1491 0h-193l-35 89h-223l-35 -89h-383l-364 322h-4v-322h-195v676h22l382 -327h3v311h465v-148h-268v-100h233v-142h-233v-122h229l247 511h330q108 0 182 -56t74 -155q0 -112 -116 -178l145 -270h-189l-143 286v15q55 12 82 44t27 74t-30 67.5t-81 25.5h-171zM1156 368
h-4l-71 -171h142z" />
    <glyph glyph-name="uniE16E" unicode="&#xe16e;" horiz-adv-x="1147" 
d="M1088 676v-676h-195v334h-4l-392 -349h-22v349h-3l-392 -349h-22v674h196v-332h4l390 349h23v-349h4l390 349h23zM940 877h79q-5 -72 -46 -124q-40 -52 -121 -52q-77 0 -120 49t-46 127h80q4 -42 28 -63.5t62 -21.5q31 0 55 24t29 61z" />
    <glyph glyph-name="uniE16F" unicode="&#xe16f;" horiz-adv-x="1124" 
d="M671 266v-266h-196v335h-3l-394 -350h-20v674h196v-332h4l392 349h21v-261h198v244h196v-659h-196v266h-198z" />
    <glyph glyph-name="uniE170" unicode="&#xe170;" horiz-adv-x="1124" 
d="M1065 676v-676h-195v334h-4l-394 -349h-20v281h-198v-266h-196v659h196v-244h198v244h196v-331h4l392 348h21z" />
    <glyph glyph-name="uniE171" unicode="&#xe171;" horiz-adv-x="1124" 
d="M1065 676v-676h-195v335h-4l-394 -350h-20v525h-198v-510h-196v659h590v-331h4l392 348h21z" />
    <glyph glyph-name="uniE172" unicode="&#xe172;" horiz-adv-x="825" 
d="M766 676v-676h-196v167q1 73 1 167h-4l-395 -350h-19v741h-178v147h554v-147h-180v-397h4l391 348h22z" />
    <glyph glyph-name="uniE173" unicode="&#xe173;" horiz-adv-x="1199" 
d="M1140 659v-659h-196v266h-198v-266h-196v177q-39 -89 -122.5 -139t-201.5 -50q-109 0 -191 32v81q1 37 1 82q87 -41 166 -41q75 0 122.5 35.5t56.5 98.5h-233v129h222q-12 54 -56 82t-109 28q-87 0 -150 -28v157q81 29 191 29q114 0 192 -49t112 -136v171h196v-244h198
v244h196z" />
    <glyph glyph-name="uniE174" unicode="&#xe174;" horiz-adv-x="1097" 
d="M747 0h-196v180q-40 -91 -123 -141.5t-201 -50.5q-110 0 -192 32v81q1 37 1 82q87 -41 166 -41q75 0 122.5 35.5t56.5 98.5h-233v129h222q-12 54 -56 82t-109 28q-87 0 -150 -28v157q81 29 191 29q115 0 192 -49.5t113 -138.5v174h271q126 0 192 -66q67 -64 67 -158
q0 -96 -67 -160q-67 -65 -180 -65h-87v-210zM795 516h-50v-166h47q46 0 71 22.5t25 59.5t-24.5 60.5t-68.5 23.5z" />
    <glyph glyph-name="uniE175" unicode="&#xe175;" horiz-adv-x="948" 
d="M209 0h-201l165 266q-118 63 -118 182q0 100 73 155q74 56 182 56h364q125 0 192 -65q67 -64 67 -157q0 -96 -67 -160q-65 -64 -180 -64h-87v-213h-196v512h-60q-43 0 -69 -27t-26 -67q0 -37 30.5 -70t84.5 -47v-16zM647 517h-49v-166h45q61 -3 86 40t0.5 86t-82.5 40z
" />
    <glyph glyph-name="uniE176" unicode="&#xe176;" horiz-adv-x="1186" 
d="M935 0h-342v274h-339v-126h283v-148h-479v659h465v-147h-269v-97h339v244h495v-139h-297v-109h106q130 0 192 -57q25 -22 42 -55q24 -49 24 -101q0 -89 -64 -144q-63 -54 -156 -54zM876 281h-85v-141h71q97 0 97 70q0 32 -23 51.5t-60 19.5z" />
    <glyph glyph-name="A.alt" unicode="&#xe188;" horiz-adv-x="688" 
d="M445 104l-425 -139l-14 17l330 693h22l322 -675h-192zM341 351l-86 -193l152 51l-62 142h-4z" />
    <glyph glyph-name="P.alt" unicode="&#xe189;" horiz-adv-x="598" 
d="M254 0h-196v659h266q124 0 192 -66q67 -66 67 -163q0 -91 -56.5 -154t-164.5 -89l-108 -26v-161zM392 427q0 40 -25 64.5t-69 24.5h-45v-204q77 21 108 42q31 22 31 73z" />
    <glyph glyph-name="R.alt" unicode="&#xe18a;" horiz-adv-x="639" 
d="M254 0h-196v659h266q123 0 191 -65t68 -161q0 -119 -98 -184l130 -249h-201l-90 189q-49 -10 -70 -16v-173zM392 435q0 37 -23 59t-66 22h-50v-191l43 11q49 12 72.5 36t23.5 63z" />
    <glyph glyph-name="K.alt" unicode="&#xe18b;" horiz-adv-x="687" 
d="M454 350v-3q30 -13 54 -43t56 -89l116 -215h-214l-96 213q-28 57 -64 57q-10 0 -22 -3l-29 -7v-260h-197v659h197v-258l29 6q26 3 45 20q18 16 47 72l82 160h210l-84 -142l-32 -51q-57 -92 -98 -116z" />
    <glyph glyph-name="B.alt" unicode="&#xe18c;" horiz-adv-x="657" 
d="M431 215q0 29 -17 45.5t-47 16.5q-14 0 -29 -3l-88 -21v-106h100q40 0 60.5 19.5t20.5 48.5zM329 516h-80v-131l87 22q57 17 57 54q0 25 -17 40t-47 15zM508 359v-4q53 -23 80.5 -65.5t27.5 -95.5q0 -78 -59 -137q-59 -57 -151 -57h-348v659h260q58 0 93 -4
q77 -7 121.5 -51.5t44.5 -112.5q0 -81 -69 -132z" />
    <glyph glyph-name="A_P.3" unicode="&#xe196;" horiz-adv-x="991" 
d="M642 0h-200v79h-177l-30 -42l-26 -37h-211l488 659h231q125 0 192 -65q67 -64 67 -157q0 -96 -67 -160q-65 -64 -180 -64h-87v-213zM690 517h-50v-166h46q61 -3 86 40t0.5 86t-82.5 40zM451 350h-4l-108 -150h112v150z" />
    <glyph glyph-name="A_R.4" unicode="&#xe197;" horiz-adv-x="1045" 
d="M869 265l168 -265h-203l-152 286v15q55 11 85 44t30 73q0 43 -25.5 68.5t-69.5 25.5h-60v-512h-200v79h-177l-30 -42l-26 -37h-211l488 659h252q107 0 179 -57q73 -55 73 -154q0 -119 -121 -183zM451 350h-4l-108 -150h112v150z" />
    <glyph glyph-name="A_B" unicode="&#xe198;" horiz-adv-x="1025" 
d="M775 0h-334v79h-182l-56 -79h-205l488 659h267q87 0 140 -48t53 -120q0 -82 -69 -133l1 -2v-2q52 -23 79.5 -65.5t27.5 -94.5q0 -78 -59 -137q-58 -57 -151 -57zM798 213q0 29 -21.5 46.5t-58.5 17.5h-99v-130h105q39 0 56.5 18.5t17.5 47.5zM698 516h-80v-116h78
q18 0 43 14q24 15 24 45q0 26 -17.5 41.5t-47.5 15.5zM446 351h-4l-108 -151h112v151z" />
    <glyph glyph-name="A_B.2" unicode="&#xe199;" horiz-adv-x="961" 
d="M711 0h-223l-32 79h-230l-32 -79h-187l322 660h360q87 0 139 -48q53 -48 53 -120q0 -83 -68 -133l1 -4q53 -23 80 -65.5t27 -94.5q0 -79 -59 -138q-58 -57 -151 -57zM634 517h-198l53 -117h143q26 0 46.5 16t20.5 44q0 25 -17.5 41t-47.5 16zM655 278h-106l59 -131h52
q39 0 56.5 18.5t17.5 47.5t-21.5 47t-57.5 18zM345 368h-4l-69 -168h140z" />
    <glyph glyph-name="A_D" unicode="&#xe19a;" horiz-adv-x="1053" 
d="M194 0h-187l321 659h322q172 0 267 -93t95 -234q0 -134 -89 -234q-89 -98 -225 -98h-211l-15 37l-16 42h-230zM643 512h-205l170 -364h40q83 0 127.5 49t44.5 136q0 83 -48 131t-129 48zM345 362h-4q-19 -47 -32 -74l-37 -88h139z" />
    <glyph glyph-name="A_D.2" unicode="&#xe19b;" horiz-adv-x="1072" 
d="M693 0h-252v79h-182l-56 -79h-205l488 659h191q171 0 262 -93q92 -92 92 -234q0 -67 -21 -126t-62 -105.5t-106.5 -73.5t-148.5 -27zM839 333q0 85 -41 132t-116 47h-63v-364h59q74 0 117.5 47.5t43.5 137.5zM446 350h-4l-108 -150h112v150z" />
    <glyph glyph-name="A_E.2" unicode="&#xe19c;" horiz-adv-x="872" 
d="M834 0h-347q-14 32 -32 79h-229l-32 -79h-187l321 659h492v-147h-382q36 -81 46 -101h302v-141h-233l55 -122h226v-148zM345 362h-4l-34 -78q-27 -63 -35 -84h139z" />
    <glyph glyph-name="A_F" unicode="&#xe19d;" horiz-adv-x="909" 
d="M486 659h408v-147h-276v-125h234v-141h-234v-246h-177v79h-182l-56 -79h-205zM446 350h-4l-108 -150h112v150z" />
    <glyph glyph-name="A_H" unicode="&#xe19e;" horiz-adv-x="1024" 
d="M681 0h-193l-32 79h-230l-32 -79h-187l329 675h23l124 -261h286v246h196v-660h-196v270h-217zM345 359h-4l-69 -159h139z" />
    <glyph glyph-name="A_K" unicode="&#xe1a0;" horiz-adv-x="1062" 
d="M637 0h-192v79h-182l-55 -79h-210l488 659h151v-298l196 298h209l-223 -318l234 -341h-215l-201 320v-320zM448 351h-4l-102 -151h106v151z" />
    <glyph glyph-name="A_M" unicode="&#xe1a1;" horiz-adv-x="1209" 
d="M640 275v-275h-189v79h-208l-54 -79h-212l474 674h23l328 -340l326 340h22v-674h-190v273h-4l-141 -150h-25q-26 29 -76 79q-43 43 -71 73h-3zM451 387h-3l-129 -187h132v187z" />
    <glyph glyph-name="A_N" unicode="&#xe1a2;" horiz-adv-x="1114" 
d="M647 322v-322h-196v79h-208l-55 -79h-211l474 676h23l381 -327h4v310h196v-674h-21l-384 337h-3zM451 388h-3l-130 -188h133v188z" />
    <glyph glyph-name="A_P.2" unicode="&#xe1a3;" horiz-adv-x="879" 
d="M617 213h-38l102 -213h-194l-15 37l-16 42h-230l-32 -79h-187l321 659h277q125 0 192 -65q66 -64 66 -157q0 -96 -67 -160q-65 -64 -179 -64zM578 517h-142l76 -166h69q43 0 66 23.5t23 59.5q0 37 -24 60t-68 23zM345 360h-4l-69 -160h139z" />
    <glyph glyph-name="A_R" unicode="&#xe1a4;" horiz-adv-x="971" 
d="M681 0h-193l-32 79h-230l-32 -79h-187l322 659h320q108 0 181 -58q74 -59 74 -158q0 -52 -27 -99.5t-80 -79.5l144 -264h-197l-142 286v15q55 12 82 44t27 74t-30.5 67.5t-81.5 25.5h-160zM345 363h-4l-69 -163h140z" />
    <glyph glyph-name="A_R.2" unicode="&#xe1a5;" horiz-adv-x="971" 
d="M7 0l321 659h322q43 0 86 -12.5t81.5 -36.5t62.5 -67.5t24 -99.5q0 -107 -107 -176l143 -267h-197l-141 285v16q55 11 82 43t27 74t-30.5 68t-81.5 26h-163l245 -512h-198l-139 347h-3l-144 -347h-190z" />
    <glyph glyph-name="A_R.3" unicode="&#xe1a6;" horiz-adv-x="971" 
d="M7 0l321 659h322q43 0 86 -12.5t81.5 -36.5t62.5 -67.5t24 -99.5q0 -107 -107 -176l143 -267h-197l-141 285v16q55 11 82 43t27 74t-30.5 68t-81.5 26h-163l245 -512h-187l-150 344h-3l-154 -344h-180zM409 103q0 -28 -19 -47t-48 -19t-48 19t-19 47t19.5 47.5t47.5 19.5
t47.5 -19t19.5 -48z" />
    <glyph glyph-name="A_V" unicode="&#xe1a7;" horiz-adv-x="883" 
d="M554 -17h-25l-45 96h-255l-35 -79h-187l337 675h23l164 -358h5l138 342h202zM359 354h-2l-70 -154h140z" />
    <glyph glyph-name="A_W" unicode="&#xe1a8;" horiz-adv-x="1216" 
d="M890 -17l-177 377l-171 -377h-24l-42 96h-246l-36 -79h-187l337 675h23l170 -347h4l161 342h24l152 -327h4l123 316h204l-295 -676h-24zM356 352l-69 -152h134q-32 77 -65 152z" />
    <glyph glyph-name="A_W_A" unicode="&#xe1a9;" horiz-adv-x="1413" 
d="M892 323h4l165 352h23l322 -675h-193q-14 32 -32 79h-225l-20 -51l-17 -45h-24l-180 382l-173 -382h-24l-42 96h-246l-36 -79h-187l337 675h23l170 -347h4l161 342h24zM1071 364h-2l-65 -164h133zM356 352l-69 -152h134q-32 77 -65 152z" />
    <glyph glyph-name="uniE1AB" unicode="&#xe1ab;" horiz-adv-x="1112" 
d="M1036 659v-659h-197v512h-199v-512h-195v79h-182l-55 -79h-210l488 659h550zM448 351h-4l-102 -151h106v151z" />
    <glyph glyph-name="uniE1AC" unicode="&#xe1ac;" horiz-adv-x="1027" 
d="M557 270l130 -270h-680l333 676h22l125 -262h285v246h196v-660h-196v270h-215zM348 379h-4l-102 -233h202z" />
    <glyph glyph-name="uniE1AD" unicode="&#xe1ad;" horiz-adv-x="1115" 
d="M759 676h21l326 -676h-1048v659h465v-147h-269v-101h234v-141h-234v-122h247zM766 385h-2l-102 -239h202z" />
    <glyph glyph-name="uniE1AE" unicode="&#xe1ae;" horiz-adv-x="997" 
d="M649 213v-213h-197v266h-198v-266h-196v659h196v-244h198v244h271q125 0 192 -65q67 -64 67 -157q0 -96 -67 -160q-65 -64 -180 -64h-86zM696 517h-47v-166h44q61 -3 85.5 40t0 86t-82.5 40z" />
    <glyph glyph-name="uniE1AF" unicode="&#xe1af;" horiz-adv-x="953" 
d="M468 512h-214v-512h-196v659h410v212h471v-147h-275v-724h-196v512z" />
    <glyph glyph-name="C_A" unicode="&#xe1ba;" horiz-adv-x="1108" 
d="M1100 0h-193l-34 84h-226l-34 -84h-88q-64 -14 -124 -14q-169 0 -266 95q-95 97 -95 246q0 145 99 245q99 101 267 101q97 0 167 -26v-160q-66 29 -139 29q-85 0 -141 -49q-56 -50 -56 -141q0 -88 50.5 -135.5t136.5 -47.5q37 0 76 9l255 523h23zM764 354h-4l-69 -154
h140z" />
    <glyph glyph-name="C_K" unicode="&#xe1bb;" horiz-adv-x="1001" 
d="M776 0l-206 327v23l202 309h212l-217 -317l228 -342h-219zM590 183l1 -163q-83 -34 -190 -34q-169 0 -266 95q-95 97 -95 246q0 145 99 245q99 101 267 101q97 0 167 -26v-160q-66 29 -139 29q-85 0 -141 -49q-56 -50 -56 -141q0 -88 50.5 -135.5t136.5 -47.5
q82 0 166 40z" />
    <glyph glyph-name="D_E" unicode="&#xe1cb;" horiz-adv-x="1118" 
d="M796 148h283v-148h-479v123q-92 -123 -273 -123h-269v659h253q193 0 289 -122v122h465v-147h-269v-101h234v-141h-234v-122zM473 333q0 86 -40 132.5t-117 46.5h-63v-364h40q89 0 134.5 44t45.5 141z" />
    <glyph glyph-name="D_H" unicode="&#xe1cc;" horiz-adv-x="1247" 
d="M1189 659v-659h-197v266h-198v-266h-196v120q-93 -120 -271 -120h-269v659h253q193 0 287 -120v120h196v-244h198v244h197zM473 333q0 86 -40 132.5t-117 46.5h-63v-364h40q89 0 134.5 44t45.5 141z" />
    <glyph glyph-name="D_L" unicode="&#xe1cd;" horiz-adv-x="1078" 
d="M599 538v121h196v-511h276v-148h-472v121q-91 -121 -272 -121h-269v659h253q194 0 288 -121zM473 333q0 86 -40 132.5t-117 46.5h-63v-364h40q89 0 134.5 44t45.5 141z" />
    <glyph glyph-name="D_M" unicode="&#xe1ce;" horiz-adv-x="1352" 
d="M1101 280l-142 -159h-24l-147 157q-1 -1 -3 -1v-277h-189v117q-92 -117 -269 -117h-269v659h253q189 0 285 -117v132h23l328 -338l326 338h21v-674h-190v139q1 59 1 140q-1 1 -4 1zM473 333q0 86 -40 132.5t-117 46.5h-63v-364h40q89 0 134.5 44t45.5 141z" />
    <glyph glyph-name="D_N" unicode="&#xe1cf;" horiz-adv-x="1260" 
d="M794 322v-322h-196v120q-93 -120 -271 -120h-269v659h253q193 0 287 -120v137h23l381 -325h4v308h196v-674h-21l-384 337h-3zM473 333q0 86 -40 132.5t-117 46.5h-63v-364h40q89 0 134.5 44t45.5 141z" />
    <glyph glyph-name="D_O" unicode="&#xe1d1;" horiz-adv-x="1129" 
d="M327 0h-269v659h253q117 0 202 -48q95 62 215 62q160 0 260 -99q101 -98 101 -244q0 -148 -102 -245q-101 -97 -261 -97q-122 0 -213 57q-77 -45 -186 -45zM729 513q-53 0 -97 -30q33 -68 33 -151q0 -89 -34 -158q40 -31 98 -31q76 0 121 53q46 52 46 134q0 78 -45 130
q-45 53 -122 53zM473 333q0 86 -40 132.5t-117 46.5h-63v-364h40q89 0 134.5 44t45.5 141z" />
    <glyph glyph-name="D_P" unicode="&#xe1d2;" horiz-adv-x="1142" 
d="M793 0h-196v119q-93 -119 -270 -119h-269v659h253q192 0 286 -118v118h271q126 0 192 -66q67 -64 67 -158q0 -96 -67 -160q-67 -65 -180 -65h-87v-210zM473 333q0 86 -40 132.5t-117 46.5h-63v-364h40q89 0 134.5 44t45.5 141zM841 516h-49v-166h29q113 0 113 82
q0 37 -24.5 60.5t-68.5 23.5z" />
    <glyph glyph-name="D_R" unicode="&#xe1d3;" horiz-adv-x="1195" 
d="M595 659h288q109 0 182 -58q74 -59 74 -158q0 -118 -115 -185l161 -258h-206l-152 285v16q57 12 88 45t31 72q0 42 -26 68t-70 26h-60v-512h-195v116q-93 -116 -268 -116h-269v659h253q189 0 284 -116v116zM473 333q0 86 -40 132.5t-117 46.5h-63v-364h40q89 0 134.5 44
t45.5 141z" />
    <glyph glyph-name="D_U" unicode="&#xe1d4;" horiz-adv-x="1254" 
d="M1000 260v399h196v-385q0 -129 -76 -208q-76 -78 -222 -78q-220 0 -280 162q-89 -150 -291 -150h-269v659h253q194 0 288 -121v121h197v-393q0 -51 27.5 -85t75.5 -34q47 0 74 32.5t27 80.5zM473 333q0 86 -40 132.5t-117 46.5h-63v-364h40q89 0 134.5 44t45.5 141z" />
    <glyph glyph-name="E_A" unicode="&#xe1dc;" horiz-adv-x="1111" 
d="M1103 0h-193l-34 84h-226l-34 -84h-558v659h465v-147h-269v-101h234v-141h-234v-122h248l256 527h23zM767 364h-4l-69 -164h140z" />
    <glyph glyph-name="E_D" unicode="&#xe1dd;" horiz-adv-x="1243" 
d="M864 0h-269v270h-341v-122h283v-148h-479v659h465v-147h-269v-101h341v248h253q170 0 262 -93q92 -92 92 -234q0 -67 -21 -126t-62 -105.5t-106.5 -73.5t-148.5 -27zM1010 333q0 179 -171 179h-49v-101h87v-141h-87v-122h50q170 0 170 185z" />
    <glyph glyph-name="E_H" unicode="&#xe1de;" horiz-adv-x="1251" 
d="M1192 659v-659h-196v266h-198v-266h-196v270h-348v-122h283v-148h-479v659h465v-147h-269v-101h348v248h196v-244h198v244h196z" />
    </font>
</defs>
</svg>
