<?xml version="1.0" standalone="no"?>
<!DOCTYPE svg PUBLIC "-//W3C//DTD SVG 1.1//EN" "http://www.w3.org/Graphics/SVG/1.1/DTD/svg11.dtd" >
<svg>
<metadata>
Created by FontForge 20120731 at Tue Dec 15 21:07:57 2015
 By ,,,
(c)2013 Optimo. wf-rip
</metadata>
<defs>
<font id="Plain-LightIta" horiz-adv-x="560" >
  <font-face 
    font-family="Plain Light"
    font-weight="300"
    font-style="italic"
    font-stretch="normal"
    units-per-em="1000"
    panose-1="2 11 0 4 2 2 2 2 2 4"
    ascent="803"
    descent="-197"
    x-height="525"
    cap-height="715"
    bbox="-107 -271 1322 1077"
    underline-thickness="50"
    underline-position="-50"
    slope="-10"
    unicode-range="U+000D-FB02"
  />
<missing-glyph horiz-adv-x="644" 
d="M50 240v49l309 309q14 -8 26 -23zM50 142v49l347 347v-15q0 -20 -13.5 -37.5t-41.5 -39.5t-37 -31q-23 -23 -36 -54zM104 0h-49l261 261h49l-93 -93h-23v-23zM321 168l273 273v-49l-224 -224h-49zM50 338v49l148 148l39 -2q0 29 20 52t55 23h8zM398 0h-49l33 33h2v2
l210 210v-49zM384 133l210 210v-49l-210 -210v49zM50 44v49l206 206v-38h11zM50 583l196 196h49l-44 -44q-54 -14 -93 -53.5t-54 -93.5l-54 -54v49zM537 482l57 57v-49l-216 -216v7q0 12 2.5 21t11 18.5t12.5 13.5t21 16t23 16q1 1 10 7.5t14 10.5t14.5 12.5t15.5 16.5
t13.5 18.5t13 23.5t8.5 27zM50 681l98 98h49l-147 -147v49zM496 0h-49l147 147v-49zM459 698l81 81h49l-104 -104q-25 22 -26 23zM50 436v49l56 56l46 -3zM506 647l88 88v-49l-70 -70q-6 13 -18 31zM202 0h-49l96 96v-49zM395 732l47 47h49l-62 -62q-15 8 -34 15zM536 579
l58 58v-49l-52 -52q0 13 -6 43zM307 742l37 37h49l-38 -38q-18 2 -28 2q-2 0 -6.5 -0.5t-6.5 -0.5h-7zM300 0h-49l33 33h49zM594 49v-49h-49zM50 779h49l-49 -49v49z" />
    <glyph glyph-name="fi" unicode="fi" horiz-adv-x="506" 
d="M342 718l-12 -67q-14 2 -24 2q-66 0 -77 -69l-10 -59h89l-11 -62h-89l-82 -463h-83l82 463h-69l11 62h69l8 49q23 147 161 147q19 0 37 -3zM486 614h-85l18 101h85zM387 525h81l-93 -525h-81z" />
    <glyph glyph-name="fl" unicode="fl" horiz-adv-x="509" 
d="M342 718l-12 -67q-14 2 -24 2q-66 0 -77 -69l-10 -59h89l-11 -62h-89l-82 -463h-83l82 463h-69l11 62h69l8 49q23 147 161 147q19 0 37 -3zM291 0l127 715h83l-127 -715h-83z" />
    <glyph glyph-name=".notdef" horiz-adv-x="644" 
d="M50 240v49l309 309q14 -8 26 -23zM50 142v49l347 347v-15q0 -20 -13.5 -37.5t-41.5 -39.5t-37 -31q-23 -23 -36 -54zM104 0h-49l261 261h49l-93 -93h-23v-23zM321 168l273 273v-49l-224 -224h-49zM50 338v49l148 148l39 -2q0 29 20 52t55 23h8zM398 0h-49l33 33h2v2
l210 210v-49zM384 133l210 210v-49l-210 -210v49zM50 44v49l206 206v-38h11zM50 583l196 196h49l-44 -44q-54 -14 -93 -53.5t-54 -93.5l-54 -54v49zM537 482l57 57v-49l-216 -216v7q0 12 2.5 21t11 18.5t12.5 13.5t21 16t23 16q1 1 10 7.5t14 10.5t14.5 12.5t15.5 16.5
t13.5 18.5t13 23.5t8.5 27zM50 681l98 98h49l-147 -147v49zM496 0h-49l147 147v-49zM459 698l81 81h49l-104 -104q-25 22 -26 23zM50 436v49l56 56l46 -3zM506 647l88 88v-49l-70 -70q-6 13 -18 31zM202 0h-49l96 96v-49zM395 732l47 47h49l-62 -62q-15 8 -34 15zM536 579
l58 58v-49l-52 -52q0 13 -6 43zM307 742l37 37h49l-38 -38q-18 2 -28 2q-2 0 -6.5 -0.5t-6.5 -0.5h-7zM300 0h-49l33 33h49zM594 49v-49h-49zM50 779h49l-49 -49v49z" />
    <glyph glyph-name=".null" horiz-adv-x="0" 
 />
    <glyph glyph-name="nonmarkingreturn" horiz-adv-x="333" 
 />
    <glyph glyph-name="NULL" horiz-adv-x="0" 
 />
    <glyph glyph-name="NULL" horiz-adv-x="0" 
 />
    <glyph glyph-name="CR" unicode="&#xd;" horiz-adv-x="0" 
 />
    <glyph glyph-name="space" unicode=" " horiz-adv-x="257" 
 />
    <glyph glyph-name="exclam" unicode="!" horiz-adv-x="271" 
d="M141 186h-55q46 340 60 421l20 108h83l-20 -108q-12 -72 -26.5 -141.5t-35 -161t-26.5 -118.5zM37 0l20 111h88l-20 -111h-88z" />
    <glyph glyph-name="quotedbl" unicode="&#x22;" horiz-adv-x="351" 
d="M158 451h-57q0 12 13.5 123t19.5 141h85q-15 -78 -61 -264zM297 451h-57q0 12 13.5 123t19.5 141h85q-15 -78 -61 -264z" />
    <glyph glyph-name="numbersign" unicode="#" 
d="M258 0l75 241h-154l-74 -241h-49l75 241h-111l15 46h110l49 158h-106l14 46h106l70 224h49l-70 -224h153l70 224h49l-70 -224h102l-14 -46h-102l-49 -158h98l-15 -46h-98l-74 -241h-49zM243 445l-49 -158h153l49 158h-153z" />
    <glyph glyph-name="dollar" unicode="$" 
d="M7 207h83q3 -68 49.5 -107t122.5 -39q78 0 123 34t45 94q0 37 -25.5 66.5t-53.5 44t-69 29.5l-44 17q-84 32 -123 72.5t-39 108.5q0 84 60.5 137t161.5 57l19 107h79l-20 -111q83 -14 127 -63.5t47 -126.5h-81q-10 129 -159 129q-71 0 -108.5 -28.5t-37.5 -80.5
q0 -49 30 -77t100 -57l64 -28q77 -35 104 -57q56 -47 56 -119q0 -95 -67 -153t-180 -62l-20 -112h-79l21 117q-86 14 -135 67.5t-51 140.5z" />
    <glyph glyph-name="percent" unicode="%" horiz-adv-x="893" 
d="M222 386q36 0 61.5 21.5t36 55.5t14.5 60.5t4 51.5q0 96 -79 96q-36 0 -61.5 -21.5t-36 -55.5t-14.5 -60.5t-4 -51.5q0 -96 79 -96zM225 0l402 715h65l-402 -715h-65zM213 330q-69 0 -105 38t-36 107q0 28 4 56.5t16.5 65t32.5 64t57 46.5t85 19q69 0 105 -38t36 -107
q0 -28 -4 -56.5t-16.5 -65t-32.5 -64t-57 -46.5t-85 -19zM653 42q36 0 61.5 21.5t36 55.5t14.5 60.5t4 51.5q0 96 -79 96q-36 0 -61.5 -21.5t-36 -55.5t-14.5 -60.5t-4 -51.5q0 -96 79 -96zM644 -14q-69 0 -105 38t-36 107q0 28 4 56.5t16.5 65t32.5 64t57 46.5t85 19
q69 0 105 -38t36 -107q0 -28 -4 -56.5t-16.5 -65t-32.5 -64t-57 -46.5t-85 -19z" />
    <glyph glyph-name="ampersand" unicode="&#x26;" horiz-adv-x="660" 
d="M565 380l77 -7q-64 -134 -132 -213q16 -22 45.5 -62t41.5 -57l-62 -49q-24 30 -80 109q-116 -111 -239 -111q-87 0 -136 48t-49 123q0 84 56.5 141t153.5 104q-62 86 -62 156q0 72 50.5 119t137.5 47q73 0 119.5 -35t46.5 -99q0 -70 -52.5 -122.5t-132.5 -87.5
q57 -92 117 -168q56 69 100 164zM312 439l33 16q107 50 107 129q0 38 -25 59.5t-67 21.5q-49 0 -75.5 -25.5t-26.5 -65.5q0 -65 54 -135zM415 155q-45 58 -140 199q-35 -18 -55.5 -30t-47.5 -34t-40 -50.5t-13 -63.5q0 -54 32.5 -85.5t86.5 -31.5q88 0 177 96z" />
    <glyph glyph-name="quotesingle" unicode="'" horiz-adv-x="212" 
d="M158 451h-57q0 12 13.5 123t19.5 141h85q-15 -78 -61 -264z" />
    <glyph glyph-name="parenleft" unicode="(" horiz-adv-x="302" 
d="M34 215q0 165 82.5 309.5t231.5 233.5l-14 -81q-222 -191 -222 -463q0 -174 89 -290l-14 -80q-69 47 -111 151t-42 220z" />
    <glyph glyph-name="parenright" unicode=")" horiz-adv-x="302" 
d="M266 389q0 -167 -82 -313t-232 -232l14 81q222 189 222 463q0 174 -89 290l14 80q68 -50 110.5 -150.5t42.5 -218.5z" />
    <glyph glyph-name="asterisk" unicode="*" horiz-adv-x="448" 
d="M327 707l-34 -138l140 29l8 -66l-142 -8l72 -124l-60 -28l-52 131l-96 -105l-45 47l109 91l-131 58l32 58l120 -77l15 143z" />
    <glyph glyph-name="plus" unicode="+" 
d="M61 289v65h188v196h65v-196h189v-65h-189v-197h-65v197h-188z" />
    <glyph glyph-name="comma" unicode="," horiz-adv-x="242" 
d="M144 111l-122 -232h-70l105 232h87z" />
    <glyph glyph-name="hyphen" unicode="-" horiz-adv-x="404" 
d="M57 257l13 73h272l-13 -73h-272z" />
    <glyph glyph-name="period" unicode="." horiz-adv-x="222" 
d="M14 0l19 111h88l-19 -111h-88z" />
    <glyph glyph-name="slash" unicode="/" horiz-adv-x="381" 
d="M-38 -105l375 820h80l-375 -820h-80z" />
    <glyph glyph-name="zero" unicode="0" 
d="M346 729q203 0 203 -231q0 -66 -13 -140q-12 -63 -26.5 -112t-39 -100t-55.5 -84t-77.5 -54.5t-104.5 -21.5q-203 0 -203 225q0 64 13 144q11 62 24.5 112t38 100.5t56 84.5t78.5 55.5t106 21.5zM339 661q-61 0 -105 -44q-53 -53 -85.5 -181.5t-32.5 -233.5
q0 -150 120 -150q85 0 139 91q39 65 62.5 175.5t23.5 197.5q0 145 -122 145z" />
    <glyph glyph-name="one" unicode="1" 
d="M230 0l97 547h-172l10 55q95 2 142.5 27.5t67.5 85.5h66l-127 -715h-84z" />
    <glyph glyph-name="two" unicode="2" 
d="M461 0h-469l13 72q27 19 81 61q3 2 157 120q6 4 17 13q37 28 56.5 43.5t51 46t48.5 55t30.5 58.5t13.5 68q0 58 -33 90.5t-94 32.5q-138 0 -167 -170h-85q15 108 82.5 173.5t177.5 65.5q103 0 156.5 -47.5t53.5 -129.5q0 -58 -23 -110.5t-70 -101.5t-88 -83t-108 -82
q-8 -6 -25.5 -17.5t-51 -34t-72.5 -49.5h361z" />
    <glyph glyph-name="three" unicode="3" 
d="M15 206h83q-4 -78 37 -115.5t106 -37.5q77 0 123 46.5t46 119.5q0 67 -42 101.5t-109 34.5h-26l12 65h5q79 0 133.5 34t54.5 106q0 45 -31.5 73t-80.5 28q-115 0 -142 -123h-83q18 89 78 140t157 51q89 0 138.5 -41.5t49.5 -109.5q0 -71 -43.5 -121t-113.5 -65
q59 -15 96 -59t37 -107q0 -110 -72.5 -175t-193.5 -65q-107 0 -165.5 57t-53.5 163z" />
    <glyph glyph-name="four" unicode="4" 
d="M522 230l-12 -66h-99l-29 -164h-81l29 164h-341l10 62l286 326l141 163h83l-86 -485h99zM413 611h-2q-22 -29 -149 -181l-59 -69q-33 -36 -74 -84q-19 -24 -41 -47h254l22 124q30 179 49 257z" />
    <glyph glyph-name="five" unicode="5" 
d="M68 337l110 378h371l-13 -74h-305l-71 -235q53 55 146 55q90 0 145.5 -53.5t55.5 -146.5q0 -119 -70.5 -197.5t-192.5 -78.5q-102 0 -163.5 53t-69.5 157h85q4 -63 44 -102.5t111 -39.5q78 0 124 52t46 138q0 73 -41.5 112t-106.5 39q-83 0 -132 -70z" />
    <glyph glyph-name="six" unicode="6" 
d="M552 531h-86q-5 64 -37 97.5t-86 33.5q-155 0 -208 -284q21 32 67 57t107 25q94 0 150.5 -55t56.5 -152q0 -117 -71.5 -192t-188.5 -75q-222 0 -222 241q0 104 30 224.5t94 193.5q73 84 190 84q102 0 151 -56t53 -142zM286 393q-80 0 -124 -54t-44 -132q0 -73 39 -114
t105 -41q77 0 122.5 56t45.5 137q0 67 -38.5 107.5t-105.5 40.5z" />
    <glyph glyph-name="seven" unicode="7" 
d="M172 0h-101q31 54 65.5 110.5t83 132.5t68.5 108q87 137 196 292v1q-19 -1 -55 -1h-307l13 72h443l-12 -66l-33 -53q-235 -369 -361 -596z" />
    <glyph glyph-name="eight" unicode="8" 
d="M182 387q-76 57 -76 143q0 88 62.5 143.5t170.5 55.5q91 0 145 -46t54 -116q0 -67 -37 -115.5t-98 -69.5q105 -54 105 -163q0 -106 -72.5 -169.5t-193.5 -63.5q-102 0 -165.5 49t-63.5 139q0 75 44 131t125 82zM328 662q-64 0 -104 -34.5t-40 -96.5q0 -54 33 -84.5
t93 -30.5q64 0 105 38t41 99q0 50 -35 79.5t-93 29.5zM276 350q-74 0 -126 -45t-52 -117q0 -64 41 -100t110 -36q81 0 128.5 45.5t47.5 122.5q0 60 -40.5 95t-108.5 35z" />
    <glyph glyph-name="nine" unicode="9" 
d="M25 184h86q5 -64 37 -97.5t86 -33.5q155 0 208 284q-21 -32 -67 -57t-107 -25q-94 0 -150.5 55t-56.5 152q0 117 71.5 192t188.5 75q222 0 222 -241q0 -105 -29.5 -226t-94.5 -192q-73 -84 -190 -84q-101 0 -151.5 56.5t-52.5 141.5zM291 322q80 0 124 54t44 132
q0 73 -39 114t-105 41q-77 0 -122.5 -56t-45.5 -137q0 -67 38.5 -107.5t105.5 -40.5z" />
    <glyph glyph-name="colon" unicode=":" horiz-adv-x="221" 
d="M12 0l20 111h88l-20 -111h-88zM79 379l20 111h88l-20 -111h-88z" />
    <glyph glyph-name="semicolon" unicode=";" horiz-adv-x="269" 
d="M108 379l20 111h88l-20 -111h-88zM159 111l-122 -232h-70l105 232h87z" />
    <glyph glyph-name="less" unicode="&#x3c;" 
d="M63 287v65q226 117 396 208v-75q-180 -85 -325 -160v-3q306 -153 325 -162v-78q-79 42 -227 118t-169 87z" />
    <glyph glyph-name="equal" unicode="=" 
d="M60 382v65h442v-65h-442zM60 201v65h442v-65h-442z" />
    <glyph glyph-name="greater" unicode="&#x3e;" 
d="M498 352v-65q-21 -11 -169 -87t-227 -118v78q19 9 325 162v3q-145 75 -325 160v75q170 -91 396 -208z" />
    <glyph glyph-name="question" unicode="?" horiz-adv-x="512" 
d="M266 199h-76q14 68 38.5 107t74.5 80l35 28q43 33 66 65.5t23 78.5q0 48 -31 75t-87 27q-69 0 -106.5 -40.5t-46.5 -108.5h-83q12 102 75.5 160t170.5 58q96 0 145.5 -45t49.5 -116q0 -64 -37 -115.5t-104 -100.5q-28 -22 -39.5 -31.5t-28 -28.5t-25 -40.5t-14.5 -52.5z
M149 0l19 107h88l-19 -107h-88z" />
    <glyph glyph-name="at" unicode="@" horiz-adv-x="837" 
d="M579 534h69l-52 -286q-8 -45 37 -45q46 0 80.5 61t34.5 143q0 120 -81 197.5t-216 77.5q-145 0 -236.5 -94t-91.5 -236q0 -146 96 -237t244 -91q75 0 128 21t105 62l45 -23q-120 -110 -285 -110q-175 0 -285 104.5t-110 273.5q0 160 110 269.5t280 109.5q153 0 253 -87.5
t100 -222.5q0 -119 -57.5 -193t-145.5 -74q-66 0 -83 48q-40 -49 -119 -49q-73 0 -115 43t-42 122q0 92 54.5 159t143.5 67q87 0 128 -64zM447 489q-62 0 -96 -51.5t-34 -121.5q0 -52 25.5 -83.5t75.5 -31.5q66 0 100 51.5t34 121.5q0 115 -105 115z" />
    <glyph glyph-name="A" unicode="A" horiz-adv-x="686" 
d="M-53 0l419 715h108l161 -715h-83l-50 225h-336l-129 -225h-90zM410 649h-2q-19 -33 -55 -95.5t-63 -110t-46 -81.5l-40 -68h284l-17 77q-8 41 -29.5 133.5t-31.5 144.5z" />
    <glyph glyph-name="B" unicode="B" horiz-adv-x="642" 
d="M38 0l127 715h204q72 0 117 -10q120 -28 120 -138q0 -80 -41 -128t-103 -64q116 -34 116 -145q0 -144 -133 -200q-73 -30 -182 -30h-225zM181 332l-46 -259h164q74 0 120 25q68 40 68 129q0 56 -40.5 80.5t-121.5 24.5h-144zM236 643l-42 -240h139q88 0 134 37t46 106
q0 55 -40 76t-125 21h-112z" />
    <glyph glyph-name="C" unicode="C" horiz-adv-x="762" 
d="M630 206h90q-103 -220 -345 -220q-142 0 -232 83.5t-90 236.5q0 84 26.5 159.5t74.5 134.5t123 94t165 35q126 0 206.5 -59.5t104.5 -169.5h-89q-49 158 -229 158q-92 0 -160 -50t-99 -124.5t-31 -162.5q0 -126 61.5 -195.5t176.5 -69.5q170 0 247 150z" />
    <glyph glyph-name="D" unicode="D" horiz-adv-x="721" 
d="M38 0l127 715h122q94 0 143 -8q122 -20 188.5 -87t66.5 -203q0 -166 -89 -277q-35 -45 -79 -74t-98 -43t-103.5 -18.5t-117.5 -4.5h-160zM237 643l-101 -570h108q118 0 194 40q156 79 156 300q0 155 -127 208q-57 22 -139 22h-91z" />
    <glyph glyph-name="E" unicode="E" horiz-adv-x="588" 
d="M38 0l127 715h444l-14 -74h-359l-41 -237h335l-13 -74h-335l-45 -256h366l-14 -74h-451z" />
    <glyph glyph-name="F" unicode="F" horiz-adv-x="575" 
d="M123 0h-85l127 715h432l-14 -74h-347l-41 -237h323l-13 -74h-323z" />
    <glyph glyph-name="G" unicode="G" horiz-adv-x="791" 
d="M623 109q-92 -123 -262 -123q-130 0 -219 84.5t-89 233.5q0 114 44.5 209.5t135 155.5t211.5 60q124 0 204.5 -59.5t104.5 -169.5h-89q-49 158 -229 158q-92 0 -160 -50t-99 -124.5t-31 -162.5q0 -126 61.5 -195.5t176.5 -69.5q108 0 178.5 63t97.5 175h-284l13 74h358
l-65 -368h-79l10 54q5 22 11 55z" />
    <glyph glyph-name="H" unicode="H" horiz-adv-x="702" 
d="M38 0l127 715h85l-55 -312h347l55 312h85l-127 -715h-85l59 330h-347l-59 -330h-85z" />
    <glyph glyph-name="I" unicode="I" horiz-adv-x="270" 
d="M38 0l127 715h85l-127 -715h-85z" />
    <glyph glyph-name="J" unicode="J" horiz-adv-x="474" 
d="M2 173h81q-1 -4 -1 -11v-16q0 -93 85 -93q22 0 39 5.5t29.5 20t20 25.5t14.5 38.5t10 41.5t10 49l85 482h85l-91 -515q-20 -108 -64 -161t-140 -53q-165 0 -165 151q0 18 1 25q0 8 1 11z" />
    <glyph glyph-name="K" unicode="K" horiz-adv-x="585" 
d="M38 0l127 715h86l-58 -328l354 328h114l-378 -341q37 -54 123.5 -179.5t132.5 -194.5h-104q-14 21 -97.5 145t-148.5 223l-65 -368h-86z" />
    <glyph glyph-name="L" unicode="L" horiz-adv-x="523" 
d="M165 715h85l-113 -641h322l-14 -74h-407z" />
    <glyph glyph-name="M" unicode="M" horiz-adv-x="864" 
d="M38 0l127 715h142l54 -427q11 -110 24 -206h1q18 33 55.5 114.5t46.5 98.5l212 420h144l-127 -715h-85l64 362q7 43 29 155t26 136h-1q-3 -5 -28.5 -59.5t-54.5 -114t-55 -109.5l-189 -370h-108l-58 471q0 1 -19 182h-1q-4 -23 -18 -109.5t-25 -142.5l-71 -401h-85z" />
    <glyph glyph-name="N" unicode="N" horiz-adv-x="734" 
d="M587 0h-120l-162 428q-54 138 -71 195h-2q-1 -4 -46 -271l-63 -352h-85l127 715h126l165 -441q10 -27 33.5 -90.5t32.5 -90.5h2q4 18 15.5 95t18.5 114l73 413h83z" />
    <glyph glyph-name="O" unicode="O" horiz-adv-x="808" 
d="M448 729q147 0 236 -84.5t89 -232.5q0 -186 -106.5 -306t-288.5 -120q-145 0 -235 84.5t-90 236.5q0 178 106.5 300t288.5 122zM439 658q-94 0 -162.5 -50t-100 -125.5t-31.5 -164.5q0 -125 61.5 -193.5t177.5 -68.5q98 0 167 52t100 130.5t31 172.5q0 113 -65.5 180
t-177.5 67z" />
    <glyph glyph-name="P" unicode="P" horiz-adv-x="586" 
d="M38 0l127 715h167q129 0 192.5 -38.5t63.5 -132.5q0 -63 -27.5 -117t-79.5 -87q-65 -41 -203 -41h-102l-53 -299h-85zM237 643l-48 -272h108q201 0 201 160q0 62 -43.5 87t-122.5 25h-95z" />
    <glyph glyph-name="Q" unicode="Q" horiz-adv-x="807" 
d="M444 729q147 0 238 -84t91 -230q0 -121 -46 -216.5t-132 -151.5l81 -97h-102l-52 60q-69 -24 -144 -24q-146 0 -235.5 83t-89.5 235q0 114 44.5 209.5t135 155.5t211.5 60zM344 220h106l98 -117q66 47 100 129t34 179q0 114 -65.5 180.5t-179.5 66.5q-71 0 -128 -29
t-92 -77.5t-53.5 -108t-18.5 -125.5q0 -125 61.5 -193.5t177.5 -68.5q53 0 90 11z" />
    <glyph glyph-name="R" unicode="R" horiz-adv-x="604" 
d="M38 0l126 715h206q100 0 157 -33q72 -44 72 -137q0 -99 -57.5 -161t-158.5 -75l133 -309h-96l-126 301h-118l-54 -301h-84zM236 643l-48 -272h119q99 0 149 40q24 19 38.5 51t14.5 68q0 61 -41.5 87t-123.5 26h-108z" />
    <glyph glyph-name="S" unicode="S" horiz-adv-x="603" 
d="M23 204h85q3 -69 50.5 -109t125.5 -40q79 0 125 34.5t46 96.5q0 29 -12.5 51.5t-40.5 40.5t-44.5 26.5t-52.5 23.5l-46 18q-86 35 -125.5 75t-39.5 109q0 90 67.5 144.5t178.5 54.5q112 0 173 -53t65 -146h-83q-11 132 -162 132q-71 0 -110 -30.5t-39 -82.5q0 -50 30 -77
t102 -58l66 -28q23 -10 30.5 -13.5t30 -15t32.5 -19.5t26.5 -23t23.5 -29.5t13.5 -35.5t6.5 -44q0 -100 -73 -159.5t-195 -59.5q-116 0 -184 56.5t-70 160.5z" />
    <glyph glyph-name="T" unicode="T" horiz-adv-x="537" 
d="M171 0l113 641h-200l14 74h485l-14 -74h-200l-113 -641h-85z" />
    <glyph glyph-name="U" unicode="U" horiz-adv-x="689" 
d="M304 -15q-115 0 -174 52.5t-59 153.5q0 30 8 80l78 444h85l-77 -437q-6 -38 -6 -71q0 -69 36.5 -111t120.5 -42q51 0 86.5 16t57 49.5t33 68.5t21.5 90l77 437h85l-78 -446q-24 -140 -80 -204q-71 -80 -214 -80z" />
    <glyph glyph-name="V" unicode="V" horiz-adv-x="661" 
d="M282 72h2q19 39 59.5 114.5t51.5 95.5l230 433h94l-392 -715h-111q-24 108 -75.5 399.5t-56.5 315.5h88l75 -439q2 -14 15.5 -86.5t19.5 -117.5z" />
    <glyph glyph-name="W" unicode="W" horiz-adv-x="894" 
d="M937 715l-284 -715h-119l-15 391q-1 22 -10 261h-2q-18 -47 -61.5 -154.5t-54.5 -135.5l-148 -362h-121l-24 715h88l6 -440q0 -23 1.5 -101t-0.5 -102h3q20 58 80 202l182 441h124l19 -433q5 -138 5 -207h2q7 18 34 88t44 120l161 432h90z" />
    <glyph glyph-name="X" unicode="X" horiz-adv-x="614" 
d="M48 0h-100q43 48 322 368q-53 100 -180 347h92q35 -74 65.5 -134t52.5 -101t28 -54q152 175 242 289h101q-30 -34 -304 -353l190 -362h-94l-156 304l-111 -129q-22 -26 -56.5 -66t-57.5 -67.5t-34 -41.5z" />
    <glyph glyph-name="Y" unicode="Y" horiz-adv-x="590" 
d="M194 0l49 275l-167 440h89q21 -64 70.5 -194t62.5 -168q248 343 261 362h95l-326 -440l-49 -275h-85z" />
    <glyph glyph-name="Z" unicode="Z" horiz-adv-x="569" 
d="M-18 0l13 71q35 43 113 133l308 356q13 15 36 40.5t35 40.5h-389l14 74h489l-13 -71q-67 -81 -106 -126l-295 -341q-33 -35 -90 -103h395l-14 -74h-496z" />
    <glyph glyph-name="bracketleft" unicode="[" horiz-adv-x="312" 
d="M214 -53l-10 -60h-183l145 828h183l-10 -60h-103l-125 -708h103z" />
    <glyph glyph-name="backslash" unicode="\" horiz-adv-x="466" 
d="M174 715l199 -814h-81l-198 814h80z" />
    <glyph glyph-name="bracketright" unicode="]" horiz-adv-x="312" 
d="M-38 -113l10 60h102l125 708h-103l10 60h183l-145 -828h-182z" />
    <glyph glyph-name="asciicircum" unicode="^" 
d="M240 684h84q24 -46 64 -125t74.5 -145.5t66.5 -125.5h-85q-77 166 -160 327h-3q-86 -167 -162 -327h-84q32 59 66.5 125.5t74.5 145.5t64 125z" />
    <glyph glyph-name="underscore" unicode="_" horiz-adv-x="609" 
d="M-14 -148l13 71h476l-13 -71h-476z" />
    <glyph glyph-name="grave" unicode="`" horiz-adv-x="429" 
d="M222 596l-141 119h115l114 -119h-88z" />
    <glyph glyph-name="a" unicode="a" horiz-adv-x="548" 
d="M151 366h-79q15 77 74.5 125t154.5 48q86 0 135 -39t49 -120q0 -33 -21 -147l-23 -129q-9 -50 -9 -83q0 -14 1 -21h-76q0 46 7 81q-74 -91 -195 -91q-74 0 -117.5 33.5t-43.5 95.5q0 146 253 181q81 13 140 17q5 32 5 48q0 109 -118 109q-110 0 -137 -108zM387 233
q5 24 6 26l-46 -6q-39 -5 -64 -9t-57.5 -10.5t-52.5 -15t-39.5 -21t-28.5 -29.5t-9 -38q0 -82 102 -82q76 0 124.5 47.5t64.5 137.5z" />
    <glyph glyph-name="b" unicode="b" horiz-adv-x="626" 
d="M101 0h-78l127 715h83l-23 -129q-5 -30 -13.5 -69.5t-10.5 -50.5q66 73 173 73q97 0 157.5 -62t60.5 -181q0 -129 -77.5 -220t-197.5 -91q-73 0 -119 29.5t-65 68.5q-2 -15 -9 -47t-8 -36zM294 51q92 0 144 69.5t52 170.5q0 85 -40.5 133.5t-112.5 48.5q-95 0 -145.5 -74
t-50.5 -177q0 -80 39.5 -125.5t113.5 -45.5z" />
    <glyph glyph-name="c" unicode="c" horiz-adv-x="592" 
d="M557 353h-83q-30 119 -154 119q-94 0 -147.5 -68t-53.5 -170q0 -87 43 -135.5t121 -48.5q120 0 173 116h84q-71 -184 -263 -184q-111 0 -177.5 63.5t-66.5 182.5q0 129 78.5 220t210.5 91q98 0 159 -48t76 -138z" />
    <glyph glyph-name="d" unicode="d" horiz-adv-x="625" 
d="M621 715l-127 -715h-75l14 70q-28 -39 -75.5 -62.5t-106.5 -23.5q-97 0 -157.5 62.5t-60.5 182.5q0 126 77.5 217.5t197.5 91.5q71 0 116.5 -27.5t64.5 -66.5l21 113l28 158h83zM316 472q-92 0 -144 -69.5t-52 -170.5q0 -85 40.5 -133.5t112.5 -48.5q95 0 145.5 74
t50.5 177q0 80 -39.5 125.5t-113.5 45.5z" />
    <glyph glyph-name="e" unicode="e" horiz-adv-x="603" 
d="M560 249h-443v-15q0 -86 44 -135t123 -49q114 0 168 98h85q-33 -78 -99.5 -122t-160.5 -44q-112 0 -178 63.5t-66 182.5q0 129 79 220t212 91q119 0 178.5 -67.5t59.5 -180.5q0 -12 -2 -42zM320 472q-75 0 -126 -44.5t-68 -116.5h356q-3 76 -45.5 118.5t-116.5 42.5z" />
    <glyph glyph-name="f" unicode="f" horiz-adv-x="286" 
d="M342 718l-12 -67q-14 2 -24 2q-66 0 -77 -69l-10 -59h89l-11 -62h-89l-82 -463h-83l82 463h-69l11 62h69l8 49q23 147 161 147q19 0 37 -3z" />
    <glyph glyph-name="g" unicode="g" horiz-adv-x="630" 
d="M592 525l-76 -430q-25 -141 -93 -212.5t-196 -71.5q-95 0 -153.5 50.5t-64.5 121.5h85q7 -42 43 -73.5t103 -31.5q82 0 127 53t69 157q0 3 1 6l2 6t1 4q-67 -80 -184 -80q-95 0 -156.5 57t-61.5 171q0 123 76.5 204.5t193.5 81.5q73 0 121.5 -28.5t66.5 -66.5l14 82h82z
M316 472q-89 0 -140 -61t-51 -153q0 -79 43 -123.5t117 -44.5q91 0 140 65.5t49 158.5q0 71 -42 114.5t-116 43.5z" />
    <glyph glyph-name="h" unicode="h" horiz-adv-x="580" 
d="M23 0l127 715h83l-26 -144q-18 -99 -23 -120q72 88 174 88q78 0 119 -39.5t41 -108.5q0 -30 -11 -98l-52 -293h-83l52 295q9 56 9 79q0 46 -28 72t-81 26q-66 0 -107.5 -44.5t-54.5 -112.5l-56 -315h-83z" />
    <glyph glyph-name="i" unicode="i" horiz-adv-x="235" 
d="M215 614h-85l18 101h85zM116 525h81l-93 -525h-81z" />
    <glyph glyph-name="j" unicode="j" horiz-adv-x="238" 
d="M-105 -194l11 65q15 -1 29 -1q34 0 52.5 15t26.5 60l102 580h83l-99 -566q-15 -85 -50.5 -121t-112.5 -36q-33 0 -42 4zM217 614h-85l18 101h85z" />
    <glyph glyph-name="k" unicode="k" horiz-adv-x="500" 
d="M442 0h-107l-43 65q-43 65 -67 99l-71 104l-48 -268h-83l127 715h83l-75 -426l97 91q108 102 151 145h112q-100 -91 -179 -160l-95 -84z" />
    <glyph glyph-name="l" unicode="l" horiz-adv-x="245" 
d="M27 0l127 715h83l-127 -715h-83z" />
    <glyph glyph-name="m" unicode="m" horiz-adv-x="917" 
d="M792 0h-83l52 295q9 56 9 79q0 98 -106 98q-65 0 -105.5 -44t-53.5 -113l-56 -315h-83l52 295q9 56 9 79q0 98 -106 98q-65 0 -105.5 -44t-53.5 -113l-56 -315h-83l79 446q12 75 13 79h82l-14 -75q72 89 173 89q123 0 150 -98h1q26 39 75.5 68.5t116.5 29.5
q77 0 116.5 -39t39.5 -109q0 -30 -11 -98z" />
    <glyph glyph-name="n" unicode="n" horiz-adv-x="580" 
d="M23 0l79 446q12 75 13 79h82l-14 -75q72 89 175 89q78 0 119 -39.5t41 -108.5q0 -30 -11 -98l-52 -293h-83l52 295q9 56 9 79q0 46 -28 72t-81 26q-66 0 -107.5 -44.5t-54.5 -112.5l-56 -315h-83z" />
    <glyph glyph-name="o" unicode="o" horiz-adv-x="619" 
d="M284 50q93 0 146 67t53 170q0 86 -42 135.5t-121 49.5q-94 0 -147.5 -68t-53.5 -170q0 -87 43.5 -135.5t121.5 -48.5zM327 539q114 0 178 -62.5t64 -177.5q0 -140 -76.5 -228.5t-215.5 -88.5q-114 0 -179 63t-65 183q0 130 79 220.5t215 90.5z" />
    <glyph glyph-name="p" unicode="p" horiz-adv-x="626" 
d="M116 526h80l-13 -64q70 77 177 77q96 0 156.5 -61t60.5 -178q0 -132 -77 -223.5t-198 -91.5q-130 0 -182 93q-2 -10 -13 -75t-20 -108l-14 -75h-82zM294 51q92 0 144 69.5t52 170.5q0 85 -40.5 133.5t-112.5 48.5q-95 0 -145.5 -74t-50.5 -177q0 -80 39.5 -125.5
t113.5 -45.5z" />
    <glyph glyph-name="q" unicode="q" horiz-adv-x="626" 
d="M463 -180h-83l21 115q6 33 14.5 70.5t11.5 56.5q-61 -78 -176 -78q-97 0 -157.5 62.5t-60.5 182.5q0 126 77.5 217.5t197.5 91.5q71 0 117 -27.5t65 -66.5q4 27 14 81h83zM316 472q-92 0 -144 -69.5t-52 -170.5q0 -85 40.5 -133.5t112.5 -48.5q95 0 145.5 74t50.5 177
q0 80 -39.5 125.5t-113.5 45.5z" />
    <glyph glyph-name="r" unicode="r" horiz-adv-x="320" 
d="M194 525l-15 -85q21 43 62 70t88 27q11 0 16 -1l-14 -79q-8 3 -34 3q-109 0 -140 -173l-51 -287h-83l79 446q12 75 13 79h79z" />
    <glyph glyph-name="s" unicode="s" horiz-adv-x="497" 
d="M13 159h81q18 -112 131 -112q59 0 93 26t34 66q0 32 -24.5 49t-78.5 36l-54 19q-70 25 -103 56.5t-33 84.5q0 68 55 111.5t151 43.5q83 0 134.5 -40t53.5 -112h-78q-15 87 -120 87q-112 0 -112 -73q0 -34 22 -51.5t77 -38.5l55 -21q29 -10 48.5 -19t42.5 -25t35 -40
t12 -54q0 -76 -58.5 -123t-159.5 -47q-87 0 -142.5 45t-61.5 132z" />
    <glyph glyph-name="t" unicode="t" horiz-adv-x="297" 
d="M122 463h-81l11 62h81l25 142h82l-25 -142h100l-11 -62h-100l-58 -329q-3 -18 -3 -28q0 -53 63 -53q8 0 16 1l-11 -62q-18 -2 -31 -2q-62 0 -92 22t-30 71q0 21 4 38z" />
    <glyph glyph-name="u" unicode="u" horiz-adv-x="572" 
d="M534 525l-79 -446q-13 -75 -13 -79h-82l14 75q-69 -89 -171 -89q-76 0 -116 39t-40 109q0 30 11 98l52 293h83l-52 -295q-9 -56 -9 -79q0 -47 26.5 -72.5t78.5 -25.5q65 0 105 44t53 113l56 315h83z" />
    <glyph glyph-name="v" unicode="v" horiz-adv-x="523" 
d="M251 0h-96q-92 477 -102 525h86l48 -277q5 -29 13.5 -79t14.5 -91h2q16 32 30 59.5t33 62t33 60.5l140 265h91z" />
    <glyph glyph-name="w" unicode="w" horiz-adv-x="813" 
d="M237 0h-109l-26 199q-8 65 -24 184.5t-19 141.5h84l30 -272q12 -95 18 -185h2q10 25 90 207l110 250h104l14 -238q11 -184 13 -218h2q19 43 59 127.5t48 102.5l108 226h88q-18 -36 -74.5 -151t-87.5 -175l-99 -199h-111l-14 203q-3 44 -7.5 131.5t-5.5 108.5h-3
q-7 -17 -46.5 -105.5t-60.5 -139.5z" />
    <glyph glyph-name="x" unicode="x" horiz-adv-x="495" 
d="M50 0h-90q110 121 238 267l-140 258h88q8 -14 47 -91.5t57 -111.5q111 129 173 203h92l-231 -258q11 -20 65 -121.5t79 -145.5h-88q-13 26 -52 102t-56 112q-29 -35 -97 -114.5t-85 -99.5z" />
    <glyph glyph-name="y" unicode="y" horiz-adv-x="520" 
d="M140 -180h-83l105 180q-15 72 -110 525h88l79 -431q15 27 64 116t95.5 174.5t74.5 140.5h89q-46 -80 -125 -220t-147 -259t-130 -226z" />
    <glyph glyph-name="z" unicode="z" horiz-adv-x="491" 
d="M-20 0l11 62l278 289q27 27 63.5 65t42.5 44q-17 0 -76 -0.5t-79 -0.5h-150l12 66h406l-12 -67l-266 -274q-111 -111 -120 -119q18 0 74 0.5t79 0.5h169l-12 -66h-420z" />
    <glyph glyph-name="braceleft" unicode="{" horiz-adv-x="289" 
d="M34 291l7 36q39 6 55.5 27.5t26.5 80.5l29 163q12 74 35.5 97.5t93.5 23.5q4 0 12 -0.5t11 -0.5q3 -1 10 -1l-10 -59h-10q-30 0 -43 -14t-21 -61l-24 -133q-16 -81 -32.5 -106.5t-60.5 -37.5l-1 -2q29 -12 40 -26.5t11 -42.5q0 -30 -10 -83l-23 -130q-4 -20 -4 -38
q0 -24 11 -32.5t40 -10.5l-10 -58q-3 -1 -8 -1h-20q-55 0 -76.5 16.5t-21.5 52.5q0 22 7 62l30 169q5 33 5 48q0 28 -11 40t-38 21z" />
    <glyph glyph-name="bar" unicode="|" horiz-adv-x="269" 
d="M30 -62l139 793h80l-139 -793h-80z" />
    <glyph glyph-name="braceright" unicode="}" horiz-adv-x="289" 
d="M253 312l-7 -36q-39 -6 -55.5 -27.5t-26.5 -80.5l-29 -165q-12 -75 -35.5 -98.5t-93.5 -23.5q-16 0 -23 1q-7 0 -10 1l10 59h10q31 0 42.5 13.5t21.5 61.5l24 136q13 79 30.5 105.5t62.5 38.5l1 2q-29 12 -40 26.5t-11 42.5q0 30 10 83l23 128q4 20 4 38q0 24 -11 32.5
t-40 10.5l10 58h8q2 0 8.5 0.5t11.5 0.5q55 0 76.5 -16.5t21.5 -52.5q0 -22 -7 -62l-30 -167q-5 -33 -5 -48q0 -28 11 -40t38 -21z" />
    <glyph glyph-name="asciitilde" unicode="~" 
d="M480 369l54 -36q-61 -105 -146 -105q-41 0 -107 31l-42 20q-50 24 -79 24q-57 0 -85 -68l-52 38q59 100 141 100q43 0 100 -27l46 -22q52 -25 77 -25q55 0 93 70z" />
    <glyph glyph-name="uni00A0" unicode="&#xa0;" horiz-adv-x="257" 
 />
    <glyph glyph-name="exclamdown" unicode="&#xa1;" horiz-adv-x="251" 
d="M104 337h55q-48 -353 -60 -424l-21 -109h-83l20 109q18 108 89 424zM209 525l-21 -112h-88l20 112h89z" />
    <glyph glyph-name="cent" unicode="&#xa2;" 
d="M541 353h-83q-24 90 -101 112l-74 -414q108 7 157 115h84q-31 -82 -94.5 -131t-158.5 -53l-11 -64h-75l12 70q-84 15 -132 76.5t-48 164.5q0 126 75.5 215.5t202.5 93.5l15 84h75l-16 -89q146 -29 172 -180zM103 234q0 -143 107 -176l73 413q-85 -8 -132.5 -75
t-47.5 -162z" />
    <glyph glyph-name="sterling" unicode="&#xa3;" 
d="M462 71l-13 -71h-443l11 64q78 14 116 61.5t38 119.5q0 45 -13 90h-107l12 67h79q-8 43 -8 89q0 105 61 171.5t167 66.5q98 0 147.5 -49t49.5 -135v-13h-79q-2 127 -127 127q-67 0 -100 -47t-33 -117q0 -51 10 -90h173l-13 -70h-147q9 -43 9 -82q0 -115 -98 -184
q31 2 147 2h161z" />
    <glyph glyph-name="currency" unicode="&#xa4;" 
d="M480 112l-48 48q-63 -46 -142 -46q-80 0 -143 46l-49 -49l-58 58l49 49q-44 63 -44 141q0 79 46 142l-51 51l58 58l51 -51q64 45 141 45q76 0 140 -45l50 50l58 -58l-49 -49q46 -63 46 -143q0 -77 -45 -141l48 -48zM113 359q0 -73 52 -125t125 -52t125 52t52 125t-52 125
t-125 52t-125 -52t-52 -125z" />
    <glyph glyph-name="yen" unicode="&#xa5;" 
d="M10 216l9 61h209l-48 127h-138l10 61h105l-95 250h89q21 -64 70.5 -194t62.5 -168q248 343 261 362h95l-186 -250h102l-10 -61h-137l-94 -127h208l-10 -61h-210l-38 -216h-85l38 216h-208z" />
    <glyph glyph-name="brokenbar" unicode="&#xa6;" horiz-adv-x="224" 
d="M93 428l53 303h80l-53 -303h-80zM7 -62l53 303h80l-53 -303h-80z" />
    <glyph glyph-name="section" unicode="&#xa7;" 
d="M301 494l87 -39q116 -55 116 -137q0 -107 -119 -146q55 -36 55 -102q0 -81 -65 -129t-162 -48q-89 0 -145 45.5t-62 131.5h82q5 -52 38.5 -82t92.5 -30q65 0 101 25.5t36 70.5q0 32 -21.5 52t-74.5 46l-77 38q-114 54 -114 145q0 48 31.5 81.5t86.5 48.5q-21 14 -33 42.5
t-12 59.5q0 73 57 115.5t146 42.5q94 0 143 -43.5t49 -108.5h-78q-5 40 -36 63.5t-86 23.5q-53 0 -82 -21t-29 -58q0 -33 18.5 -51t56.5 -36zM226 260l100 -49q37 4 66 27t29 62q0 53 -73 87l-97 45q-41 -4 -69.5 -25t-28.5 -58q0 -55 73 -89z" />
    <glyph glyph-name="dieresis" unicode="&#xa8;" horiz-adv-x="491" 
d="M142 609l15 90h89l-15 -90h-89zM302 609l15 90h88l-15 -90h-88z" />
    <glyph glyph-name="copyright" unicode="&#xa9;" horiz-adv-x="858" 
d="M575 275h65q-24 -67 -76.5 -104t-126.5 -37q-95 0 -154.5 62t-59.5 162t60.5 162t156.5 62q154 0 199 -146h-64q-33 93 -135 93q-71 0 -112 -47t-41 -123t41 -124t112 -48q96 0 135 88zM815 360q0 -158 -110 -267.5t-268 -109.5q-156 0 -265.5 110t-109.5 267
t109.5 266.5t267.5 109.5q156 0 266 -110t110 -266zM764 360q0 137 -95.5 232.5t-229.5 95.5q-137 0 -231 -95t-94 -233q0 -137 94 -233.5t230 -96.5q135 0 230.5 96t95.5 234z" />
    <glyph glyph-name="ordfeminine" unicode="&#xaa;" horiz-adv-x="447" 
d="M114 453l-1 1q10 57 54.5 93t116.5 36q139 0 139 -119q0 -26 -10 -82q-3 -8 -5 -28l-18 -97q-6 -36 -6 -61v-17h-59q0 33 4 56q-52 -63 -143 -63q-56 0 -88.5 24.5t-32.5 71.5q0 108 190 137q47 8 103 13q4 15 4 35q0 80 -87 80q-81 0 -101 -80h-60zM348 354l4 18l-33 -4
q-43 -6 -68.5 -11.5t-56.5 -15.5t-46 -26t-15 -38q0 -60 75 -60q116 0 140 137z" />
    <glyph glyph-name="guillemotleft" unicode="&#xab;" horiz-adv-x="482" 
d="M268 473l-130 -181l61 -194h-73l-77 194l137 181h82zM455 473l-125 -181l56 -194h-71l-77 194l137 181h80z" />
    <glyph glyph-name="logicalnot" unicode="&#xac;" 
d="M24 395v65h503v-323h-67v258h-436z" />
    <glyph glyph-name="uni00AD" unicode="&#xad;" horiz-adv-x="350" 
d="M42 327l13 73h272l-13 -73h-272z" />
    <glyph glyph-name="registered" unicode="&#xae;" horiz-adv-x="561" 
d="M232 367v263h76q50 0 70 -14q31 -21 31 -63q0 -62 -61 -74l68 -112h-48l-62 106h-35v-106h-39zM271 595v-87h38q28 0 44 11q15 12 15 33q0 25 -20 36q-13 7 -39 7h-38zM547 500q0 -98 -68.5 -166t-165.5 -68q-96 0 -164.5 68.5t-68.5 165.5t68 165t166 68
q96 0 164.5 -68.5t68.5 -164.5zM506 500q0 80 -56.5 137t-135.5 57q-81 0 -136.5 -56.5t-55.5 -137.5t55.5 -138t135.5 -57t136.5 57t56.5 138z" />
    <glyph glyph-name="macron" unicode="&#xaf;" horiz-adv-x="428" 
d="M92 628l9 53h244l-9 -53h-244z" />
    <glyph glyph-name="degree" unicode="&#xb0;" horiz-adv-x="425" 
d="M256 400q-70 0 -118.5 47.5t-48.5 116.5q0 70 48.5 117.5t118.5 47.5t118 -47.5t48 -117.5t-47.5 -117t-118.5 -47zM150 564q0 -44 31 -74.5t75 -30.5q45 0 75 30t30 75q0 44 -31 75t-74 31q-44 0 -75 -31t-31 -75z" />
    <glyph glyph-name="plusminus" unicode="&#xb1;" 
d="M43 310v65h188v176h65v-176h189v-65h-189v-177h-65v177h-188zM44 0v65h442v-65h-442z" />
    <glyph glyph-name="twosuperior" unicode="&#xb2;" horiz-adv-x="417" 
d="M348 284h-288l9 49q25 17 51 36q88 65 105 79q111 82 111 155q0 32 -18.5 49t-51.5 17q-76 0 -90 -96h-64q9 67 51.5 109t112.5 42q62 0 95 -30t33 -80q0 -35 -13.5 -66t-45 -62.5t-52 -48.5t-65.5 -51q-15 -11 -42 -27.5t-32 -19.5h203z" />
    <glyph glyph-name="threesuperior" unicode="&#xb3;" horiz-adv-x="392" 
d="M65 415h58q-3 -46 20 -68t60 -22q44 0 69.5 25.5t25.5 68.5q0 38 -23 57t-62 19h-20l12 47q47 0 78.5 19t31.5 60q0 26 -17 40.5t-45 14.5q-65 0 -81 -72h-57q8 55 45.5 87.5t94.5 32.5q58 0 88.5 -25t30.5 -68q0 -39 -22.5 -68t-58.5 -41q30 -12 48.5 -38.5t18.5 -60.5
q0 -66 -44 -105.5t-117 -39.5q-66 0 -102 35.5t-32 101.5z" />
    <glyph glyph-name="acute" unicode="&#xb4;" horiz-adv-x="427" 
d="M360 715l-141 -119h-88l114 119h115z" />
    <glyph glyph-name="mu" unicode="&#xb5;" horiz-adv-x="578" 
d="M540 525l-82 -460q-6 -35 -10 -65h-82l13 72q-63 -84 -173 -84q-57 0 -96 30l-36 -198h-83l125 705h83l-52 -295q-9 -56 -9 -79q0 -47 26.5 -72.5t78.5 -25.5q65 0 105 44t53 113l56 315h83z" />
    <glyph glyph-name="paragraph" unicode="&#xb6;" horiz-adv-x="625" 
d="M623 715l-11 -67h-43l-134 -761h-73l134 761h-125l-134 -761h-73l84 485q-84 0 -128.5 43t-44.5 111q0 119 106 167q48 22 143 22h299z" />
    <glyph glyph-name="periodcentered" unicode="&#xb7;" horiz-adv-x="222" 
d="M59 261l19 111h88l-19 -111h-88z" />
    <glyph glyph-name="cedilla" unicode="&#xb8;" horiz-adv-x="369" 
d="M107 -163l94 115h86l-75 -115h-105z" />
    <glyph glyph-name="onesuperior" unicode="&#xb9;" horiz-adv-x="272" 
d="M188 608h-107l6 37q60 1 91 17t45 53h47l-75 -431h-64z" />
    <glyph glyph-name="ordmasculine" unicode="&#xba;" horiz-adv-x="494" 
d="M266 219q68 0 108 49.5t40 125.5q0 64 -31 100.5t-90 36.5q-69 0 -109 -50.5t-40 -125.5q0 -64 32 -100t90 -36zM298 583q87 0 135 -46.5t48 -133.5q0 -104 -57.5 -170.5t-161.5 -66.5q-87 0 -135.5 47t-48.5 137q0 99 59 166t161 67z" />
    <glyph glyph-name="guillemotright" unicode="&#xbb;" horiz-adv-x="481" 
d="M206 98l130 181l-61 194h73l77 -194l-137 -181h-82zM19 98l125 181l-56 194h71l77 -194l-137 -181h-80z" />
    <glyph glyph-name="onequarter" unicode="&#xbc;" horiz-adv-x="797" 
d="M131 0l402 715h65l-402 -715h-65zM194 608h-107l6 37q60 1 91 17t46 53h47l-76 -431h-64zM602 89h-221l9 49q141 159 257 298h77l-51 -294h59l-10 -53h-59l-16 -89h-61zM612 142l16 95q2 8 12.5 64t13.5 68h-1l-28 -32l-57 -67l-54 -64q-7 -8 -19.5 -23.5t-18.5 -21.5
q-2 -2 -7.5 -9t-8.5 -10h152z" />
    <glyph glyph-name="onehalf" unicode="&#xbd;" horiz-adv-x="812" 
d="M711 0h-291l9 49l52 37q100 75 106 79q32 25 52.5 44t40 50.5t19.5 62.5q0 32 -18.5 49.5t-52.5 17.5q-73 0 -91 -97h-64q9 67 51.5 109.5t113.5 42.5q63 0 96.5 -30t33.5 -81q0 -35 -14 -67t-44 -62.5t-54 -50.5t-66 -50q-15 -11 -43 -28.5t-32 -19.5h205zM131 0
l402 715h65l-402 -715h-65zM194 608h-107l6 37q60 1 91 17t46 53h47l-76 -431h-64z" />
    <glyph glyph-name="threequarters" unicode="&#xbe;" horiz-adv-x="888" 
d="M58 415h58q-3 -46 20 -68t60 -22q44 0 69.5 25.5t25.5 68.5q0 38 -23 57t-62 19h-20l12 47q47 0 78.5 19t31.5 60q0 26 -17 40.5t-45 14.5q-65 0 -81 -72h-57q8 55 45.5 87.5t94.5 32.5q58 0 88.5 -25t30.5 -68q0 -39 -22.5 -68t-58.5 -41q30 -12 48.5 -38.5t18.5 -60.5
q0 -66 -44 -105.5t-117 -39.5q-66 0 -102 35.5t-32 101.5zM223 0l402 715h65l-402 -715h-65zM694 89h-221l9 49q141 159 257 298h77l-51 -294h59l-10 -53h-59l-16 -89h-61zM704 142l16 95q2 8 12.5 64t13.5 68h-1l-28 -32l-57 -67l-54 -64q-7 -8 -19.5 -23.5t-18.5 -21.5
q-2 -2 -7.5 -9t-8.5 -10h152z" />
    <glyph glyph-name="questiondown" unicode="&#xbf;" horiz-adv-x="501" 
d="M223 326h76q-14 -68 -38.5 -107t-74.5 -80l-35 -28q-43 -33 -66 -65.5t-23 -78.5q0 -48 31 -75t87 -27q69 0 106.5 40.5t46.5 108.5h83q-12 -102 -75.5 -160t-170.5 -58q-96 0 -145.5 45t-49.5 116q0 64 37 115.5t104 100.5q28 22 39.5 31.5t28 28.5t25 40.5t14.5 52.5z
M340 525l-19 -107h-88l19 107h88z" />
    <glyph glyph-name="Agrave" unicode="&#xc0;" horiz-adv-x="686" 
d="M-53 0l419 715h108l161 -715h-83l-50 225h-336l-129 -225h-90zM410 649h-2q-19 -33 -55 -95.5t-63 -110t-46 -81.5l-40 -68h284l-17 77q-8 41 -29.5 133.5t-31.5 144.5zM386 761l-138 114h115l111 -114h-88z" />
    <glyph glyph-name="Aacute" unicode="&#xc1;" horiz-adv-x="686" 
d="M-53 0l419 715h108l161 -715h-83l-50 225h-336l-129 -225h-90zM410 649h-2q-19 -33 -55 -95.5t-63 -110t-46 -81.5l-40 -68h284l-17 77q-8 41 -29.5 133.5t-31.5 144.5zM599 875l-138 -114h-88l111 114h115z" />
    <glyph glyph-name="Acircumflex" unicode="&#xc2;" horiz-adv-x="686" 
d="M-53 0l419 715h108l161 -715h-83l-50 225h-336l-129 -225h-90zM410 649h-2q-19 -33 -55 -95.5t-63 -110t-46 -81.5l-40 -68h284l-17 77q-8 41 -29.5 133.5t-31.5 144.5zM394 876h84q13 -19 43 -60t40 -55h-76l-54 64l-72 -64h-81q22 21 63 62.5t53 52.5z" />
    <glyph glyph-name="Atilde" unicode="&#xc3;" horiz-adv-x="686" 
d="M-53 0l419 715h108l161 -715h-83l-50 225h-336l-129 -225h-90zM410 649h-2q-19 -33 -55 -95.5t-63 -110t-46 -81.5l-40 -68h284l-17 77q-8 41 -29.5 133.5t-31.5 144.5zM335 765h-58q7 102 84 102q27 0 72 -22q38 -18 54 -18q26 0 33 40h56q-3 -47 -24 -75t-57 -28
q-22 0 -67 19q-46 21 -59 21q-29 0 -34 -39z" />
    <glyph glyph-name="Adieresis" unicode="&#xc4;" horiz-adv-x="686" 
d="M-53 0l419 715h108l161 -715h-83l-50 225h-336l-129 -225h-90zM410 649h-2q-19 -33 -55 -95.5t-63 -110t-46 -81.5l-40 -68h284l-17 77q-8 41 -29.5 133.5t-31.5 144.5zM293 766l15 90h89l-15 -90h-89zM453 766l15 90h88l-15 -90h-88z" />
    <glyph glyph-name="Aring" unicode="&#xc5;" horiz-adv-x="686" 
d="M-53 0l419 715h108l161 -715h-83l-50 225h-336l-129 -225h-90zM410 649h-2q-19 -33 -55 -95.5t-63 -110t-46 -81.5l-40 -68h284l-17 77q-8 41 -29.5 133.5t-31.5 144.5zM431 748q-37 0 -62 25.5t-25 63.5q0 36 25.5 61.5t62.5 25.5t62.5 -25.5t25.5 -61.5
q0 -38 -25.5 -63.5t-63.5 -25.5zM385 837q0 -21 13 -35t33 -14t33.5 14t13.5 35q0 19 -13.5 33t-33.5 14t-33 -14t-13 -33z" />
    <glyph glyph-name="AE" unicode="&#xc6;" horiz-adv-x="909" 
d="M930 715l-14 -74h-341l-35 -237h311l-13 -74h-310l-38 -256h334l-14 -74h-417l31 201h-249l-150 -201h-88l529 715h464zM434 274l27 172q6 40 11.5 72t11.5 65.5t10 54.5h-5l-106 -153l-154 -211h205z" />
    <glyph glyph-name="Ccedilla" unicode="&#xc7;" horiz-adv-x="762" 
d="M630 206h90q-103 -220 -345 -220q-142 0 -232 83.5t-90 236.5q0 84 26.5 159.5t74.5 134.5t123 94t165 35q126 0 206.5 -59.5t104.5 -169.5h-89q-49 158 -229 158q-92 0 -160 -50t-99 -124.5t-31 -162.5q0 -126 61.5 -195.5t176.5 -69.5q170 0 247 150zM245 -163l94 115
h86l-75 -115h-105z" />
    <glyph glyph-name="Egrave" unicode="&#xc8;" horiz-adv-x="588" 
d="M38 0l127 715h444l-14 -74h-359l-41 -237h335l-13 -74h-335l-45 -256h366l-14 -74h-451zM357 761l-138 114h115l111 -114h-88z" />
    <glyph glyph-name="Eacute" unicode="&#xc9;" horiz-adv-x="588" 
d="M38 0l127 715h444l-14 -74h-359l-41 -237h335l-13 -74h-335l-45 -256h366l-14 -74h-451zM535 875l-138 -114h-88l111 114h115z" />
    <glyph glyph-name="Ecircumflex" unicode="&#xca;" horiz-adv-x="588" 
d="M38 0l127 715h444l-14 -74h-359l-41 -237h335l-13 -74h-335l-45 -256h366l-14 -74h-451zM364 876h84q13 -19 43 -60t40 -55h-76l-54 64l-72 -64h-81q22 21 63 62.5t53 52.5z" />
    <glyph glyph-name="Edieresis" unicode="&#xcb;" horiz-adv-x="588" 
d="M38 0l127 715h444l-14 -74h-359l-41 -237h335l-13 -74h-335l-45 -256h366l-14 -74h-451zM267 766l15 90h89l-15 -90h-89zM427 766l15 90h88l-15 -90h-88z" />
    <glyph glyph-name="Igrave" unicode="&#xcc;" horiz-adv-x="270" 
d="M38 0l127 715h85l-127 -715h-85zM177 761l-138 114h115l111 -114h-88z" />
    <glyph glyph-name="Iacute" unicode="&#xcd;" horiz-adv-x="270" 
d="M38 0l127 715h85l-127 -715h-85zM392 875l-138 -114h-88l111 114h115z" />
    <glyph glyph-name="Icircumflex" unicode="&#xce;" horiz-adv-x="270" 
d="M38 0l127 715h85l-127 -715h-85zM188 876h84q13 -19 43 -60t40 -55h-76l-54 64l-72 -64h-81q22 21 63 62.5t53 52.5z" />
    <glyph glyph-name="Idieresis" unicode="&#xcf;" horiz-adv-x="270" 
d="M38 0l127 715h85l-127 -715h-85zM93 766l15 90h89l-15 -90h-89zM253 766l15 90h88l-15 -90h-88z" />
    <glyph glyph-name="Eth" unicode="&#xd0;" horiz-adv-x="722" 
d="M14 327l13 71h82l57 317h120q92 0 141 -8q124 -20 191.5 -86.5t67.5 -203.5q0 -166 -89 -277q-35 -45 -79 -74t-98 -43t-103.5 -18.5t-117.5 -4.5h-160l58 327h-83zM238 643l-44 -245h147l-13 -71h-146l-45 -254h108q118 0 194 40q156 79 156 300q0 155 -127 208
q-53 22 -139 22h-91z" />
    <glyph glyph-name="Ntilde" unicode="&#xd1;" horiz-adv-x="734" 
d="M587 0h-120l-162 428q-54 138 -71 195h-2q-1 -4 -46 -271l-63 -352h-85l127 715h126l165 -441q10 -27 33.5 -90.5t32.5 -90.5h2q4 18 15.5 95t18.5 114l73 413h83zM359 765h-58q7 102 84 102q27 0 72 -22q38 -18 54 -18q26 0 33 40h56q-3 -47 -24 -75t-57 -28
q-22 0 -67 19q-46 21 -59 21q-29 0 -34 -39z" />
    <glyph glyph-name="Ograve" unicode="&#xd2;" horiz-adv-x="808" 
d="M448 729q147 0 236 -84.5t89 -232.5q0 -186 -106.5 -306t-288.5 -120q-145 0 -235 84.5t-90 236.5q0 178 106.5 300t288.5 122zM439 658q-94 0 -162.5 -50t-100 -125.5t-31.5 -164.5q0 -125 61.5 -193.5t177.5 -68.5q98 0 167 52t100 130.5t31 172.5q0 113 -65.5 180
t-177.5 67zM458 761l-138 114h115l111 -114h-88z" />
    <glyph glyph-name="Oacute" unicode="&#xd3;" horiz-adv-x="808" 
d="M448 729q147 0 236 -84.5t89 -232.5q0 -186 -106.5 -306t-288.5 -120q-145 0 -235 84.5t-90 236.5q0 178 106.5 300t288.5 122zM439 658q-94 0 -162.5 -50t-100 -125.5t-31.5 -164.5q0 -125 61.5 -193.5t177.5 -68.5q98 0 167 52t100 130.5t31 172.5q0 113 -65.5 180
t-177.5 67zM631 875l-138 -114h-88l111 114h115z" />
    <glyph glyph-name="Ocircumflex" unicode="&#xd4;" horiz-adv-x="808" 
d="M448 729q147 0 236 -84.5t89 -232.5q0 -186 -106.5 -306t-288.5 -120q-145 0 -235 84.5t-90 236.5q0 178 106.5 300t288.5 122zM439 658q-94 0 -162.5 -50t-100 -125.5t-31.5 -164.5q0 -125 61.5 -193.5t177.5 -68.5q98 0 167 52t100 130.5t31 172.5q0 113 -65.5 180
t-177.5 67zM442 876h84q13 -19 43 -60t40 -55h-76l-54 64l-72 -64h-81q22 21 63 62.5t53 52.5z" />
    <glyph glyph-name="Otilde" unicode="&#xd5;" horiz-adv-x="808" 
d="M448 729q147 0 236 -84.5t89 -232.5q0 -186 -106.5 -306t-288.5 -120q-145 0 -235 84.5t-90 236.5q0 178 106.5 300t288.5 122zM439 658q-94 0 -162.5 -50t-100 -125.5t-31.5 -164.5q0 -125 61.5 -193.5t177.5 -68.5q98 0 167 52t100 130.5t31 172.5q0 113 -65.5 180
t-177.5 67zM381 765h-58q7 102 84 102q27 0 72 -22q38 -18 54 -18q26 0 33 40h56q-3 -47 -24 -75t-57 -28q-22 0 -67 19q-46 21 -59 21q-29 0 -34 -39z" />
    <glyph glyph-name="Odieresis" unicode="&#xd6;" horiz-adv-x="808" 
d="M448 729q147 0 236 -84.5t89 -232.5q0 -186 -106.5 -306t-288.5 -120q-145 0 -235 84.5t-90 236.5q0 178 106.5 300t288.5 122zM439 658q-94 0 -162.5 -50t-100 -125.5t-31.5 -164.5q0 -125 61.5 -193.5t177.5 -68.5q98 0 167 52t100 130.5t31 172.5q0 113 -65.5 180
t-177.5 67zM335 766l15 90h89l-15 -90h-89zM495 766l15 90h88l-15 -90h-88z" />
    <glyph glyph-name="multiply" unicode="&#xd7;" 
d="M115 110l-46 46l164 165l-164 165l46 46l164 -165l166 165l46 -46l-166 -165l166 -165l-46 -46l-166 165z" />
    <glyph glyph-name="Oslash" unicode="&#xd8;" horiz-adv-x="807" 
d="M444 729q97 0 173 -39l61 82l58 -42l-60 -80q97 -84 97 -235q0 -186 -107 -307.5t-288 -121.5q-97 0 -170 37l-67 -89l-58 39l67 89q-97 87 -97 242q0 114 44.5 209.5t135 155.5t211.5 60zM437 658q-71 0 -128 -29t-92 -77.5t-53.5 -108t-18.5 -125.5q0 -119 56 -187
l369 495q-56 32 -133 32zM682 411q0 102 -57 170l-370 -495q53 -30 129 -30q98 0 167 52t100 130.5t31 172.5z" />
    <glyph glyph-name="Ugrave" unicode="&#xd9;" horiz-adv-x="689" 
d="M304 -15q-115 0 -174 52.5t-59 153.5q0 30 8 80l78 444h85l-77 -437q-6 -38 -6 -71q0 -69 36.5 -111t120.5 -42q51 0 86.5 16t57 49.5t33 68.5t21.5 90l77 437h85l-78 -446q-24 -140 -80 -204q-71 -80 -214 -80zM407 761l-138 114h115l111 -114h-88z" />
    <glyph glyph-name="Uacute" unicode="&#xda;" horiz-adv-x="689" 
d="M304 -15q-115 0 -174 52.5t-59 153.5q0 30 8 80l78 444h85l-77 -437q-6 -38 -6 -71q0 -69 36.5 -111t120.5 -42q51 0 86.5 16t57 49.5t33 68.5t21.5 90l77 437h85l-78 -446q-24 -140 -80 -204q-71 -80 -214 -80zM577 875l-138 -114h-88l111 114h115z" />
    <glyph glyph-name="Ucircumflex" unicode="&#xdb;" horiz-adv-x="689" 
d="M304 -15q-115 0 -174 52.5t-59 153.5q0 30 8 80l78 444h85l-77 -437q-6 -38 -6 -71q0 -69 36.5 -111t120.5 -42q51 0 86.5 16t57 49.5t33 68.5t21.5 90l77 437h85l-78 -446q-24 -140 -80 -204q-71 -80 -214 -80zM395 876h84q13 -19 43 -60t40 -55h-76l-54 64l-72 -64h-81
q22 21 63 62.5t53 52.5z" />
    <glyph glyph-name="Udieresis" unicode="&#xdc;" horiz-adv-x="689" 
d="M304 -15q-115 0 -174 52.5t-59 153.5q0 30 8 80l78 444h85l-77 -437q-6 -38 -6 -71q0 -69 36.5 -111t120.5 -42q51 0 86.5 16t57 49.5t33 68.5t21.5 90l77 437h85l-78 -446q-24 -140 -80 -204q-71 -80 -214 -80zM295 766l15 90h89l-15 -90h-89zM455 766l15 90h88l-15 -90
h-88z" />
    <glyph glyph-name="Yacute" unicode="&#xdd;" horiz-adv-x="590" 
d="M194 0l49 275l-167 440h89q21 -64 70.5 -194t62.5 -168q248 343 261 362h95l-326 -440l-49 -275h-85zM518 875l-138 -114h-88l111 114h115z" />
    <glyph glyph-name="Thorn" unicode="&#xde;" horiz-adv-x="572" 
d="M164 715h84l-21 -121h83q129 0 192.5 -38.5t63.5 -132.5q0 -63 -27.5 -117t-79.5 -87q-65 -41 -203 -41h-102l-31 -178h-85zM215 522l-48 -272h108q201 0 201 160q0 62 -43.5 87t-122.5 25h-95z" />
    <glyph glyph-name="germandbls" unicode="&#xdf;" horiz-adv-x="574" 
d="M23 0l88 500q22 128 91 181q56 42 145 42q94 0 141.5 -40.5t47.5 -103.5q0 -125 -137 -169q51 -20 86 -60t35 -104q0 -114 -78.5 -181.5t-196.5 -67.5q-33 0 -43 2l11 61q8 -1 24 -1q85 0 140.5 47.5t55.5 132.5q0 63 -43 99.5t-113 36.5h-9l10 57q70 0 121 33t51 101
q0 94 -112 94q-63 0 -96.5 -39t-46.5 -115l-89 -506h-83z" />
    <glyph glyph-name="agrave" unicode="&#xe0;" horiz-adv-x="548" 
d="M151 366h-79q15 77 74.5 125t154.5 48q86 0 135 -39t49 -120q0 -33 -21 -147l-23 -129q-9 -50 -9 -83q0 -14 1 -21h-76q0 46 7 81q-74 -91 -195 -91q-74 0 -117.5 33.5t-43.5 95.5q0 146 253 181q81 13 140 17q5 32 5 48q0 109 -118 109q-110 0 -137 -108zM387 233
q5 24 6 26l-46 -6q-39 -5 -64 -9t-57.5 -10.5t-52.5 -15t-39.5 -21t-28.5 -29.5t-9 -38q0 -82 102 -82q76 0 124.5 47.5t64.5 137.5zM305 596l-141 119h115l114 -119h-88z" />
    <glyph glyph-name="aacute" unicode="&#xe1;" horiz-adv-x="548" 
d="M151 366h-79q15 77 74.5 125t154.5 48q86 0 135 -39t49 -120q0 -33 -21 -147l-23 -129q-9 -50 -9 -83q0 -14 1 -21h-76q0 46 7 81q-74 -91 -195 -91q-74 0 -117.5 33.5t-43.5 95.5q0 146 253 181q81 13 140 17q5 32 5 48q0 109 -118 109q-110 0 -137 -108zM387 233
q5 24 6 26l-46 -6q-39 -5 -64 -9t-57.5 -10.5t-52.5 -15t-39.5 -21t-28.5 -29.5t-9 -38q0 -82 102 -82q76 0 124.5 47.5t64.5 137.5zM485 715l-141 -119h-88l114 119h115z" />
    <glyph glyph-name="acircumflex" unicode="&#xe2;" horiz-adv-x="548" 
d="M151 366h-79q15 77 74.5 125t154.5 48q86 0 135 -39t49 -120q0 -33 -21 -147l-23 -129q-9 -50 -9 -83q0 -14 1 -21h-76q0 46 7 81q-74 -91 -195 -91q-74 0 -117.5 33.5t-43.5 95.5q0 146 253 181q81 13 140 17q5 32 5 48q0 109 -118 109q-110 0 -137 -108zM387 233
q5 24 6 26l-46 -6q-39 -5 -64 -9t-57.5 -10.5t-52.5 -15t-39.5 -21t-28.5 -29.5t-9 -38q0 -82 102 -82q76 0 124.5 47.5t64.5 137.5zM298 715h85q14 -20 45 -66.5l35 -52.5h-76l-52 68l-74 -68h-81q19 18 59.5 60t58.5 59z" />
    <glyph glyph-name="atilde" unicode="&#xe3;" horiz-adv-x="548" 
d="M151 366h-79q15 77 74.5 125t154.5 48q86 0 135 -39t49 -120q0 -33 -21 -147l-23 -129q-9 -50 -9 -83q0 -14 1 -21h-76q0 46 7 81q-74 -91 -195 -91q-74 0 -117.5 33.5t-43.5 95.5q0 146 253 181q81 13 140 17q5 32 5 48q0 109 -118 109q-110 0 -137 -108zM387 233
q5 24 6 26l-46 -6q-39 -5 -64 -9t-57.5 -10.5t-52.5 -15t-39.5 -21t-28.5 -29.5t-9 -38q0 -82 102 -82q76 0 124.5 47.5t64.5 137.5zM240 614h-58q7 102 84 102q27 0 72 -22q38 -18 54 -18q26 0 33 40h56q-3 -47 -24 -75t-57 -28q-22 0 -67 19q-46 21 -59 21q-30 0 -34 -39z
" />
    <glyph glyph-name="adieresis" unicode="&#xe4;" horiz-adv-x="548" 
d="M151 366h-79q15 77 74.5 125t154.5 48q86 0 135 -39t49 -120q0 -33 -21 -147l-23 -129q-9 -50 -9 -83q0 -14 1 -21h-76q0 46 7 81q-74 -91 -195 -91q-74 0 -117.5 33.5t-43.5 95.5q0 146 253 181q81 13 140 17q5 32 5 48q0 109 -118 109q-110 0 -137 -108zM387 233
q5 24 6 26l-46 -6q-39 -5 -64 -9t-57.5 -10.5t-52.5 -15t-39.5 -21t-28.5 -29.5t-9 -38q0 -82 102 -82q76 0 124.5 47.5t64.5 137.5zM198 609l15 90h89l-15 -90h-89zM358 609l15 90h88l-15 -90h-88z" />
    <glyph glyph-name="aring" unicode="&#xe5;" horiz-adv-x="548" 
d="M151 366h-79q15 77 74.5 125t154.5 48q86 0 135 -39t49 -120q0 -33 -21 -147l-23 -129q-9 -50 -9 -83q0 -14 1 -21h-76q0 46 7 81q-74 -91 -195 -91q-74 0 -117.5 33.5t-43.5 95.5q0 146 253 181q81 13 140 17q5 32 5 48q0 109 -118 109q-110 0 -137 -108zM387 233
q5 24 6 26l-46 -6q-39 -5 -64 -9t-57.5 -10.5t-52.5 -15t-39.5 -21t-28.5 -29.5t-9 -38q0 -82 102 -82q76 0 124.5 47.5t64.5 137.5zM324 588q-37 0 -62 25.5t-25 63.5q0 36 25.5 61.5t62.5 25.5t62.5 -25.5t25.5 -61.5q0 -38 -25.5 -63.5t-63.5 -25.5zM278 677
q0 -21 13 -35t33 -14t33.5 14t13.5 35q0 19 -13.5 33t-33.5 14t-33 -14t-13 -33z" />
    <glyph glyph-name="ae" unicode="&#xe6;" horiz-adv-x="946" 
d="M903 249h-439v-15q0 -87 43.5 -135.5t121.5 -48.5q112 0 166 98h85q-71 -166 -260 -166q-159 0 -215 121q-75 -113 -228 -113q-81 0 -125 33t-44 96q0 146 253 181q81 13 140 17q5 32 5 48q0 109 -118 109q-110 0 -137 -108h-79q14 77 74 125t155 48q127 0 167 -83
q80 83 203 83q117 0 175.5 -67.5t58.5 -180.5q0 -12 -2 -42zM665 472q-74 0 -124.5 -44.5t-67.5 -116.5h352q-3 76 -44.5 118.5t-115.5 42.5zM387 233q5 24 6 26l-46 -6q-39 -5 -64 -9t-57.5 -10.5t-52.5 -15t-39.5 -21t-28.5 -29.5t-9 -38q0 -82 102 -82q76 0 124.5 47.5
t64.5 137.5z" />
    <glyph glyph-name="ccedilla" unicode="&#xe7;" horiz-adv-x="592" 
d="M557 353h-83q-30 119 -154 119q-94 0 -147.5 -68t-53.5 -170q0 -87 43 -135.5t121 -48.5q120 0 173 116h84q-71 -184 -263 -184q-111 0 -177.5 63.5t-66.5 182.5q0 129 78.5 220t210.5 91q98 0 159 -48t76 -138zM134 -163l94 115h86l-75 -115h-105z" />
    <glyph glyph-name="egrave" unicode="&#xe8;" horiz-adv-x="603" 
d="M560 249h-443v-15q0 -86 44 -135t123 -49q114 0 168 98h85q-33 -78 -99.5 -122t-160.5 -44q-112 0 -178 63.5t-66 182.5q0 129 79 220t212 91q119 0 178.5 -67.5t59.5 -180.5q0 -12 -2 -42zM320 472q-75 0 -126 -44.5t-68 -116.5h356q-3 76 -45.5 118.5t-116.5 42.5z
M319 596l-141 119h115l114 -119h-88z" />
    <glyph glyph-name="eacute" unicode="&#xe9;" horiz-adv-x="603" 
d="M560 249h-443v-15q0 -86 44 -135t123 -49q114 0 168 98h85q-33 -78 -99.5 -122t-160.5 -44q-112 0 -178 63.5t-66 182.5q0 129 79 220t212 91q119 0 178.5 -67.5t59.5 -180.5q0 -12 -2 -42zM320 472q-75 0 -126 -44.5t-68 -116.5h356q-3 76 -45.5 118.5t-116.5 42.5z
M508 715l-141 -119h-88l114 119h115z" />
    <glyph glyph-name="ecircumflex" unicode="&#xea;" horiz-adv-x="603" 
d="M560 249h-443v-15q0 -86 44 -135t123 -49q114 0 168 98h85q-33 -78 -99.5 -122t-160.5 -44q-112 0 -178 63.5t-66 182.5q0 129 79 220t212 91q119 0 178.5 -67.5t59.5 -180.5q0 -12 -2 -42zM320 472q-75 0 -126 -44.5t-68 -116.5h356q-3 76 -45.5 118.5t-116.5 42.5z
M317 715h85q14 -20 45 -66.5l35 -52.5h-76l-52 68l-74 -68h-81q19 18 59.5 60t58.5 59z" />
    <glyph glyph-name="edieresis" unicode="&#xeb;" horiz-adv-x="603" 
d="M560 249h-443v-15q0 -86 44 -135t123 -49q114 0 168 98h85q-33 -78 -99.5 -122t-160.5 -44q-112 0 -178 63.5t-66 182.5q0 129 79 220t212 91q119 0 178.5 -67.5t59.5 -180.5q0 -12 -2 -42zM320 472q-75 0 -126 -44.5t-68 -116.5h356q-3 76 -45.5 118.5t-116.5 42.5z
M215 609l15 90h89l-15 -90h-89zM375 609l15 90h88l-15 -90h-88z" />
    <glyph glyph-name="igrave" unicode="&#xec;" horiz-adv-x="235" 
d="M116 525h81l-93 -525h-81zM132 596l-141 119h115l114 -119h-88z" />
    <glyph glyph-name="iacute" unicode="&#xed;" horiz-adv-x="235" 
d="M116 525h81l-93 -525h-81zM347 715l-141 -119h-88l114 119h115z" />
    <glyph glyph-name="icircumflex" unicode="&#xee;" horiz-adv-x="235" 
d="M116 525h81l-93 -525h-81zM142 715h85q14 -20 45 -66.5l35 -52.5h-76l-52 68l-74 -68h-81q19 18 59.5 60t58.5 59z" />
    <glyph glyph-name="idieresis" unicode="&#xef;" horiz-adv-x="235" 
d="M116 525h81l-93 -525h-81zM47 609l15 90h89l-15 -90h-89zM207 609l15 90h88l-15 -90h-88z" />
    <glyph glyph-name="eth" unicode="&#xf0;" horiz-adv-x="620" 
d="M216 715h140q18 -11 36 -24l95 39l35 -44l-82 -35q130 -128 130 -331q0 -153 -74.5 -245.5t-219.5 -92.5q-117 0 -180 65.5t-63 185.5q0 128 79.5 217t207.5 89q84 0 130 -38l4 3q-29 59 -94 114l-131 -54l-39 45l120 49q-48 33 -94 57zM284 50q93 0 146 67t53 170
q0 86 -42 135.5t-121 49.5q-94 0 -147.5 -68t-53.5 -170q0 -87 43.5 -135.5t121.5 -48.5z" />
    <glyph glyph-name="ntilde" unicode="&#xf1;" horiz-adv-x="580" 
d="M23 0l79 446q12 75 13 79h82l-14 -75q72 89 175 89q78 0 119 -39.5t41 -108.5q0 -30 -11 -98l-52 -293h-83l52 295q9 56 9 79q0 46 -28 72t-81 26q-66 0 -107.5 -44.5t-54.5 -112.5l-56 -315h-83zM258 613h-58q7 102 84 102q27 0 72 -22q38 -18 54 -18q26 0 33 40h56
q-3 -47 -24 -75t-57 -28q-22 0 -67 19q-46 21 -59 21q-30 0 -34 -39z" />
    <glyph glyph-name="ograve" unicode="&#xf2;" horiz-adv-x="619" 
d="M284 50q93 0 146 67t53 170q0 86 -42 135.5t-121 49.5q-94 0 -147.5 -68t-53.5 -170q0 -87 43.5 -135.5t121.5 -48.5zM327 539q114 0 178 -62.5t64 -177.5q0 -140 -76.5 -228.5t-215.5 -88.5q-114 0 -179 63t-65 183q0 130 79 220.5t215 90.5zM321 596l-141 119h115
l114 -119h-88z" />
    <glyph glyph-name="oacute" unicode="&#xf3;" horiz-adv-x="619" 
d="M284 50q93 0 146 67t53 170q0 86 -42 135.5t-121 49.5q-94 0 -147.5 -68t-53.5 -170q0 -87 43.5 -135.5t121.5 -48.5zM327 539q114 0 178 -62.5t64 -177.5q0 -140 -76.5 -228.5t-215.5 -88.5q-114 0 -179 63t-65 183q0 130 79 220.5t215 90.5zM509 715l-141 -119h-88
l114 119h115z" />
    <glyph glyph-name="ocircumflex" unicode="&#xf4;" horiz-adv-x="619" 
d="M284 50q93 0 146 67t53 170q0 86 -42 135.5t-121 49.5q-94 0 -147.5 -68t-53.5 -170q0 -87 43.5 -135.5t121.5 -48.5zM327 539q114 0 178 -62.5t64 -177.5q0 -140 -76.5 -228.5t-215.5 -88.5q-114 0 -179 63t-65 183q0 130 79 220.5t215 90.5zM320 715h85
q14 -20 45 -66.5l35 -52.5h-76l-52 68l-74 -68h-81q19 18 59.5 60t58.5 59z" />
    <glyph glyph-name="otilde" unicode="&#xf5;" horiz-adv-x="619" 
d="M284 50q93 0 146 67t53 170q0 86 -42 135.5t-121 49.5q-94 0 -147.5 -68t-53.5 -170q0 -87 43.5 -135.5t121.5 -48.5zM327 539q114 0 178 -62.5t64 -177.5q0 -140 -76.5 -228.5t-215.5 -88.5q-114 0 -179 63t-65 183q0 130 79 220.5t215 90.5zM260 613h-58q7 102 84 102
q27 0 72 -22q38 -18 54 -18q26 0 33 40h56q-3 -47 -24 -75t-57 -28q-22 0 -67 19q-46 21 -59 21q-30 0 -34 -39z" />
    <glyph glyph-name="odieresis" unicode="&#xf6;" horiz-adv-x="619" 
d="M284 50q93 0 146 67t53 170q0 86 -42 135.5t-121 49.5q-94 0 -147.5 -68t-53.5 -170q0 -87 43.5 -135.5t121.5 -48.5zM327 539q114 0 178 -62.5t64 -177.5q0 -140 -76.5 -228.5t-215.5 -88.5q-114 0 -179 63t-65 183q0 130 79 220.5t215 90.5zM215 609l15 90h89l-15 -90
h-89zM375 609l15 90h88l-15 -90h-88z" />
    <glyph glyph-name="divide" unicode="&#xf7;" 
d="M61 289v65h442v-65h-442zM235 95v111h88v-111h-88zM235 437v111h88v-111h-88z" />
    <glyph glyph-name="oslash" unicode="&#xf8;" horiz-adv-x="619" 
d="M327 539q72 0 126 -27l57 77l57 -42l-57 -76q59 -62 59 -172q0 -140 -76.5 -228.5t-215.5 -88.5q-59 0 -116 21l-59 -79l-56 42l56 75q-69 64 -69 187q0 130 79 220.5t215 90.5zM119 234q0 -78 34 -124l254 340q-37 22 -87 22q-94 0 -147.5 -68t-53.5 -170zM284 50
q93 0 146 67t53 170q0 65 -26 112l-250 -334q33 -15 77 -15z" />
    <glyph glyph-name="ugrave" unicode="&#xf9;" horiz-adv-x="572" 
d="M534 525l-79 -446q-13 -75 -13 -79h-82l14 75q-69 -89 -171 -89q-76 0 -116 39t-40 109q0 30 11 98l52 293h83l-52 -295q-9 -56 -9 -79q0 -47 26.5 -72.5t78.5 -25.5q65 0 105 44t53 113l56 315h83zM314 596l-141 119h115l114 -119h-88z" />
    <glyph glyph-name="uacute" unicode="&#xfa;" horiz-adv-x="572" 
d="M534 525l-79 -446q-13 -75 -13 -79h-82l14 75q-69 -89 -171 -89q-76 0 -116 39t-40 109q0 30 11 98l52 293h83l-52 -295q-9 -56 -9 -79q0 -47 26.5 -72.5t78.5 -25.5q65 0 105 44t53 113l56 315h83zM494 715l-141 -119h-88l114 119h115z" />
    <glyph glyph-name="ucircumflex" unicode="&#xfb;" horiz-adv-x="572" 
d="M534 525l-79 -446q-13 -75 -13 -79h-82l14 75q-69 -89 -171 -89q-76 0 -116 39t-40 109q0 30 11 98l52 293h83l-52 -295q-9 -56 -9 -79q0 -47 26.5 -72.5t78.5 -25.5q65 0 105 44t53 113l56 315h83zM308 715h85q14 -20 45 -66.5l35 -52.5h-76l-52 68l-74 -68h-81
q19 18 59.5 60t58.5 59z" />
    <glyph glyph-name="udieresis" unicode="&#xfc;" horiz-adv-x="572" 
d="M534 525l-79 -446q-13 -75 -13 -79h-82l14 75q-69 -89 -171 -89q-76 0 -116 39t-40 109q0 30 11 98l52 293h83l-52 -295q-9 -56 -9 -79q0 -47 26.5 -72.5t78.5 -25.5q65 0 105 44t53 113l56 315h83zM208 609l15 90h89l-15 -90h-89zM368 609l15 90h88l-15 -90h-88z" />
    <glyph glyph-name="yacute" unicode="&#xfd;" horiz-adv-x="520" 
d="M140 -180h-83l105 180q-15 72 -110 525h88l79 -431q15 27 64 116t95.5 174.5t74.5 140.5h89q-46 -80 -125 -220t-147 -259t-130 -226zM470 715l-141 -119h-88l114 119h115z" />
    <glyph glyph-name="thorn" unicode="&#xfe;" horiz-adv-x="626" 
d="M149 716l85 -1l-26 -135q-7 -33 -13 -66t-10 -49q67 74 174 74q97 0 157.5 -61t60.5 -178q0 -133 -77 -224t-198 -91q-130 0 -182 93q-2 -10 -13 -75t-20 -108l-14 -75h-82zM294 51q92 0 144 69.5t52 170.5q0 85 -40.5 133.5t-112.5 48.5q-95 0 -145.5 -74t-50.5 -177
q0 -80 39.5 -125.5t113.5 -45.5z" />
    <glyph glyph-name="ydieresis" unicode="&#xff;" horiz-adv-x="520" 
d="M140 -180h-83l105 180q-15 72 -110 525h88l79 -431q15 27 64 116t95.5 174.5t74.5 140.5h89q-46 -80 -125 -220t-147 -259t-130 -226zM185 609l15 90h89l-15 -90h-89zM345 609l15 90h88l-15 -90h-88z" />
    <glyph glyph-name="Amacron" unicode="&#x100;" horiz-adv-x="686" 
d="M-53 0l419 715h108l161 -715h-83l-50 225h-336l-129 -225h-90zM410 649h-2q-19 -33 -55 -95.5t-63 -110t-46 -81.5l-40 -68h284l-17 77q-8 41 -29.5 133.5t-31.5 144.5zM304 785l9 53h244l-9 -53h-244z" />
    <glyph glyph-name="amacron" unicode="&#x101;" horiz-adv-x="548" 
d="M151 366h-79q15 77 74.5 125t154.5 48q86 0 135 -39t49 -120q0 -33 -21 -147l-23 -129q-9 -50 -9 -83q0 -14 1 -21h-76q0 46 7 81q-74 -91 -195 -91q-74 0 -117.5 33.5t-43.5 95.5q0 146 253 181q81 13 140 17q5 32 5 48q0 109 -118 109q-110 0 -137 -108zM387 233
q5 24 6 26l-46 -6q-39 -5 -64 -9t-57.5 -10.5t-52.5 -15t-39.5 -21t-28.5 -29.5t-9 -38q0 -82 102 -82q76 0 124.5 47.5t64.5 137.5zM204 628l9 53h244l-9 -53h-244z" />
    <glyph glyph-name="Abreve" unicode="&#x102;" horiz-adv-x="686" 
d="M-53 0l419 715h108l161 -715h-83l-50 225h-336l-129 -225h-90zM410 649h-2q-19 -33 -55 -95.5t-63 -110t-46 -81.5l-40 -68h284l-17 77q-8 41 -29.5 133.5t-31.5 144.5zM437 823q55 0 80 56h63q-37 -110 -150 -110q-116 0 -122 110h62q1 -21 17.5 -38.5t49.5 -17.5z" />
    <glyph glyph-name="abreve" unicode="&#x103;" horiz-adv-x="548" 
d="M151 366h-79q15 77 74.5 125t154.5 48q86 0 135 -39t49 -120q0 -33 -21 -147l-23 -129q-9 -50 -9 -83q0 -14 1 -21h-76q0 46 7 81q-74 -91 -195 -91q-74 0 -117.5 33.5t-43.5 95.5q0 146 253 181q81 13 140 17q5 32 5 48q0 109 -118 109q-110 0 -137 -108zM387 233
q5 24 6 26l-46 -6q-39 -5 -64 -9t-57.5 -10.5t-52.5 -15t-39.5 -21t-28.5 -29.5t-9 -38q0 -82 102 -82q76 0 124.5 47.5t64.5 137.5zM328 659q55 0 80 56h63q-37 -110 -150 -110q-116 0 -122 110h62q1 -21 17.5 -38.5t49.5 -17.5z" />
    <glyph glyph-name="Aogonek" unicode="&#x104;" horiz-adv-x="686" 
d="M-53 0l419 715h108l161 -715h-83l-50 225h-336l-129 -225h-90zM410 649h-2q-19 -33 -55 -95.5t-63 -110t-46 -81.5l-40 -68h284l-17 77q-8 41 -29.5 133.5t-31.5 144.5zM633 -48l94 -115h-102l-75 115h83z" />
    <glyph glyph-name="aogonek" unicode="&#x105;" horiz-adv-x="548" 
d="M151 366h-79q15 77 74.5 125t154.5 48q86 0 135 -39t49 -120q0 -33 -21 -147l-23 -129q-9 -50 -9 -83q0 -14 1 -21h-76q0 46 7 81q-74 -91 -195 -91q-74 0 -117.5 33.5t-43.5 95.5q0 146 253 181q81 13 140 17q5 32 5 48q0 109 -118 109q-110 0 -137 -108zM387 233
q5 24 6 26l-46 -6q-39 -5 -64 -9t-57.5 -10.5t-52.5 -15t-39.5 -21t-28.5 -29.5t-9 -38q0 -82 102 -82q76 0 124.5 47.5t64.5 137.5zM426 -48l94 -115h-102l-75 115h83z" />
    <glyph glyph-name="Cacute" unicode="&#x106;" horiz-adv-x="762" 
d="M630 206h90q-103 -220 -345 -220q-142 0 -232 83.5t-90 236.5q0 84 26.5 159.5t74.5 134.5t123 94t165 35q126 0 206.5 -59.5t104.5 -169.5h-89q-49 158 -229 158q-92 0 -160 -50t-99 -124.5t-31 -162.5q0 -126 61.5 -195.5t176.5 -69.5q170 0 247 150zM636 875
l-138 -114h-88l111 114h115z" />
    <glyph glyph-name="cacute" unicode="&#x107;" horiz-adv-x="592" 
d="M557 353h-83q-30 119 -154 119q-94 0 -147.5 -68t-53.5 -170q0 -87 43 -135.5t121 -48.5q120 0 173 116h84q-71 -184 -263 -184q-111 0 -177.5 63.5t-66.5 182.5q0 129 78.5 220t210.5 91q98 0 159 -48t76 -138zM517 715l-141 -119h-88l114 119h115z" />
    <glyph glyph-name="Ccircumflex" unicode="&#x108;" horiz-adv-x="762" 
d="M630 206h90q-103 -220 -345 -220q-142 0 -232 83.5t-90 236.5q0 84 26.5 159.5t74.5 134.5t123 94t165 35q126 0 206.5 -59.5t104.5 -169.5h-89q-49 158 -229 158q-92 0 -160 -50t-99 -124.5t-31 -162.5q0 -126 61.5 -195.5t176.5 -69.5q170 0 247 150zM432 876h84
q13 -19 43 -60t40 -55h-76l-54 64l-72 -64h-81q22 21 63 62.5t53 52.5z" />
    <glyph glyph-name="ccircumflex" unicode="&#x109;" horiz-adv-x="592" 
d="M557 353h-83q-30 119 -154 119q-94 0 -147.5 -68t-53.5 -170q0 -87 43 -135.5t121 -48.5q120 0 173 116h84q-71 -184 -263 -184q-111 0 -177.5 63.5t-66.5 182.5q0 129 78.5 220t210.5 91q98 0 159 -48t76 -138zM319 715h85q14 -20 45 -66.5l35 -52.5h-76l-52 68l-74 -68
h-81q19 18 59.5 60t58.5 59z" />
    <glyph glyph-name="Cdotaccent" unicode="&#x10a;" horiz-adv-x="762" 
d="M630 206h90q-103 -220 -345 -220q-142 0 -232 83.5t-90 236.5q0 84 26.5 159.5t74.5 134.5t123 94t165 35q126 0 206.5 -59.5t104.5 -169.5h-89q-49 158 -229 158q-92 0 -160 -50t-99 -124.5t-31 -162.5q0 -126 61.5 -195.5t176.5 -69.5q170 0 247 150zM416 769l15 90h91
l-15 -90h-91z" />
    <glyph glyph-name="cdotaccent" unicode="&#x10b;" horiz-adv-x="592" 
d="M557 353h-83q-30 119 -154 119q-94 0 -147.5 -68t-53.5 -170q0 -87 43 -135.5t121 -48.5q120 0 173 116h84q-71 -184 -263 -184q-111 0 -177.5 63.5t-66.5 182.5q0 129 78.5 220t210.5 91q98 0 159 -48t76 -138zM300 609l15 90h91l-15 -90h-91z" />
    <glyph glyph-name="Ccaron" unicode="&#x10c;" horiz-adv-x="762" 
d="M630 206h90q-103 -220 -345 -220q-142 0 -232 83.5t-90 236.5q0 84 26.5 159.5t74.5 134.5t123 94t165 35q126 0 206.5 -59.5t104.5 -169.5h-89q-49 158 -229 158q-92 0 -160 -50t-99 -124.5t-31 -162.5q0 -126 61.5 -195.5t176.5 -69.5q170 0 247 150zM507 761h-85
q-12 18 -41 57.5t-41 57.5h76l54 -64l72 64h81q-22 -21 -63 -62.5t-53 -52.5z" />
    <glyph glyph-name="ccaron" unicode="&#x10d;" horiz-adv-x="592" 
d="M557 353h-83q-30 119 -154 119q-94 0 -147.5 -68t-53.5 -170q0 -87 43 -135.5t121 -48.5q120 0 173 116h84q-71 -184 -263 -184q-111 0 -177.5 63.5t-66.5 182.5q0 129 78.5 220t210.5 91q98 0 159 -48t76 -138zM396 596h-86q-13 19 -41 61.5t-38 57.5h76l52 -68l74 68
h81q-19 -18 -59.5 -60t-58.5 -59z" />
    <glyph glyph-name="Dcaron" unicode="&#x10e;" horiz-adv-x="721" 
d="M38 0l127 715h122q94 0 143 -8q122 -20 188.5 -87t66.5 -203q0 -166 -89 -277q-35 -45 -79 -74t-98 -43t-103.5 -18.5t-117.5 -4.5h-160zM237 643l-101 -570h108q118 0 194 40q156 79 156 300q0 155 -127 208q-57 22 -139 22h-91zM436 761h-85q-12 18 -41 57.5t-41 57.5
h76l54 -64l72 64h81q-22 -21 -63 -62.5t-53 -52.5z" />
    <glyph glyph-name="dcaron" unicode="&#x10f;" horiz-adv-x="695" 
d="M621 715l-127 -715h-75l14 70q-28 -39 -75.5 -62.5t-106.5 -23.5q-97 0 -157.5 62.5t-60.5 182.5q0 126 77.5 217.5t197.5 91.5q71 0 116.5 -27.5t64.5 -66.5l21 113l28 158h83zM316 472q-92 0 -144 -69.5t-52 -170.5q0 -85 40.5 -133.5t112.5 -48.5q95 0 145.5 74
t50.5 177q0 80 -39.5 125.5t-113.5 45.5zM838 715l-122 -232h-70l105 232h87z" />
    <glyph glyph-name="Dcroat" unicode="&#x110;" horiz-adv-x="722" 
d="M14 327l13 71h82l57 317h120q92 0 141 -8q124 -20 191.5 -86.5t67.5 -203.5q0 -166 -89 -277q-35 -45 -79 -74t-98 -43t-103.5 -18.5t-117.5 -4.5h-160l58 327h-83zM238 643l-44 -245h147l-13 -71h-146l-45 -254h108q118 0 194 40q156 79 156 300q0 155 -127 208
q-53 22 -139 22h-91z" />
    <glyph glyph-name="dcroat" unicode="&#x111;" horiz-adv-x="625" 
d="M433 587l11 60h82l12 68h83l-12 -68h65l-11 -60h-65l-104 -587h-75l14 70q-28 -39 -75.5 -62.5t-106.5 -23.5q-97 0 -157.5 62.5t-60.5 182.5q0 126 77.5 217.5t197.5 91.5q71 0 116.5 -27.5t64.5 -66.5l21 113l5 30h-82zM316 472q-92 0 -144 -69.5t-52 -170.5
q0 -85 40.5 -133.5t112.5 -48.5q95 0 145.5 74t50.5 177q0 80 -39.5 125.5t-113.5 45.5z" />
    <glyph glyph-name="Emacron" unicode="&#x112;" horiz-adv-x="588" 
d="M38 0l127 715h444l-14 -74h-359l-41 -237h335l-13 -74h-335l-45 -256h366l-14 -74h-451zM261 785l9 53h244l-9 -53h-244z" />
    <glyph glyph-name="emacron" unicode="&#x113;" horiz-adv-x="603" 
d="M560 249h-443v-15q0 -86 44 -135t123 -49q114 0 168 98h85q-33 -78 -99.5 -122t-160.5 -44q-112 0 -178 63.5t-66 182.5q0 129 79 220t212 91q119 0 178.5 -67.5t59.5 -180.5q0 -12 -2 -42zM320 472q-75 0 -126 -44.5t-68 -116.5h356q-3 76 -45.5 118.5t-116.5 42.5z
M223 628l9 53h244l-9 -53h-244z" />
    <glyph glyph-name="Ebreve" unicode="&#x114;" horiz-adv-x="588" 
d="M38 0l127 715h444l-14 -74h-359l-41 -237h335l-13 -74h-335l-45 -256h366l-14 -74h-451zM401 823q55 0 80 56h63q-37 -110 -150 -110q-116 0 -122 110h62q1 -21 17.5 -38.5t49.5 -17.5z" />
    <glyph glyph-name="ebreve" unicode="&#x115;" horiz-adv-x="603" 
d="M560 249h-443v-15q0 -86 44 -135t123 -49q114 0 168 98h85q-33 -78 -99.5 -122t-160.5 -44q-112 0 -178 63.5t-66 182.5q0 129 79 220t212 91q119 0 178.5 -67.5t59.5 -180.5q0 -12 -2 -42zM320 472q-75 0 -126 -44.5t-68 -116.5h356q-3 76 -45.5 118.5t-116.5 42.5z
M364 659q55 0 80 56h63q-37 -110 -150 -110q-116 0 -122 110h62q1 -21 17.5 -38.5t49.5 -17.5z" />
    <glyph glyph-name="Edotaccent" unicode="&#x116;" horiz-adv-x="588" 
d="M38 0l127 715h444l-14 -74h-359l-41 -237h335l-13 -74h-335l-45 -256h366l-14 -74h-451zM342 769l15 90h91l-15 -90h-91z" />
    <glyph glyph-name="edotaccent" unicode="&#x117;" horiz-adv-x="603" 
d="M560 249h-443v-15q0 -86 44 -135t123 -49q114 0 168 98h85q-33 -78 -99.5 -122t-160.5 -44q-112 0 -178 63.5t-66 182.5q0 129 79 220t212 91q119 0 178.5 -67.5t59.5 -180.5q0 -12 -2 -42zM320 472q-75 0 -126 -44.5t-68 -116.5h356q-3 76 -45.5 118.5t-116.5 42.5z
M291 609l15 90h91l-15 -90h-91z" />
    <glyph glyph-name="Eogonek" unicode="&#x118;" horiz-adv-x="588" 
d="M38 0l127 715h444l-14 -74h-359l-41 -237h335l-13 -74h-335l-45 -256h366l-14 -74h-451zM300 -48l94 -115h-102l-75 115h83z" />
    <glyph glyph-name="eogonek" unicode="&#x119;" horiz-adv-x="603" 
d="M560 249h-443v-15q0 -86 44 -135t123 -49q114 0 168 98h85q-33 -78 -99.5 -122t-160.5 -44q-112 0 -178 63.5t-66 182.5q0 129 79 220t212 91q119 0 178.5 -67.5t59.5 -180.5q0 -12 -2 -42zM320 472q-75 0 -126 -44.5t-68 -116.5h356q-3 76 -45.5 118.5t-116.5 42.5z
M302 -48l94 -115h-102l-75 115h83z" />
    <glyph glyph-name="Ecaron" unicode="&#x11a;" horiz-adv-x="588" 
d="M38 0l127 715h444l-14 -74h-359l-41 -237h335l-13 -74h-335l-45 -256h366l-14 -74h-451zM426 761h-85q-11 18 -41 57.5t-41 57.5h76l54 -64l72 64h81q-22 -21 -63 -62.5t-53 -52.5z" />
    <glyph glyph-name="ecaron" unicode="&#x11b;" horiz-adv-x="603" 
d="M560 249h-443v-15q0 -86 44 -135t123 -49q114 0 168 98h85q-33 -78 -99.5 -122t-160.5 -44q-112 0 -178 63.5t-66 182.5q0 129 79 220t212 91q119 0 178.5 -67.5t59.5 -180.5q0 -12 -2 -42zM320 472q-75 0 -126 -44.5t-68 -116.5h356q-3 76 -45.5 118.5t-116.5 42.5z
M379 596h-86q-13 19 -41 61.5t-38 57.5h76l52 -68l74 68h81q-19 -18 -59.5 -60t-58.5 -59z" />
    <glyph glyph-name="Gcircumflex" unicode="&#x11c;" horiz-adv-x="791" 
d="M623 109q-92 -123 -262 -123q-130 0 -219 84.5t-89 233.5q0 114 44.5 209.5t135 155.5t211.5 60q124 0 204.5 -59.5t104.5 -169.5h-89q-49 158 -229 158q-92 0 -160 -50t-99 -124.5t-31 -162.5q0 -126 61.5 -195.5t176.5 -69.5q108 0 178.5 63t97.5 175h-284l13 74h358
l-65 -368h-79l10 54q5 22 11 55zM440 876h84q13 -19 43 -60t40 -55h-76l-54 64l-72 -64h-81q22 21 63 62.5t53 52.5z" />
    <glyph glyph-name="gcircumflex" unicode="&#x11d;" horiz-adv-x="630" 
d="M592 525l-76 -430q-25 -141 -93 -212.5t-196 -71.5q-95 0 -153.5 50.5t-64.5 121.5h85q7 -42 43 -73.5t103 -31.5q82 0 127 53t69 157q0 3 1 6l2 6t1 4q-67 -80 -184 -80q-95 0 -156.5 57t-61.5 171q0 123 76.5 204.5t193.5 81.5q73 0 121.5 -28.5t66.5 -66.5l14 82h82z
M316 472q-89 0 -140 -61t-51 -153q0 -79 43 -123.5t117 -44.5q91 0 140 65.5t49 158.5q0 71 -42 114.5t-116 43.5zM324 715h85q14 -20 45 -66.5l35 -52.5h-76l-52 68l-74 -68h-81q19 18 59.5 60t58.5 59z" />
    <glyph glyph-name="Gbreve" unicode="&#x11e;" horiz-adv-x="791" 
d="M623 109q-92 -123 -262 -123q-130 0 -219 84.5t-89 233.5q0 114 44.5 209.5t135 155.5t211.5 60q124 0 204.5 -59.5t104.5 -169.5h-89q-49 158 -229 158q-92 0 -160 -50t-99 -124.5t-31 -162.5q0 -126 61.5 -195.5t176.5 -69.5q108 0 178.5 63t97.5 175h-284l13 74h358
l-65 -368h-79l10 54q5 22 11 55zM473 823q55 0 80 56h63q-37 -110 -150 -110q-116 0 -122 110h62q1 -21 17.5 -38.5t49.5 -17.5z" />
    <glyph glyph-name="gbreve" unicode="&#x11f;" horiz-adv-x="630" 
d="M592 525l-76 -430q-25 -141 -93 -212.5t-196 -71.5q-95 0 -153.5 50.5t-64.5 121.5h85q7 -42 43 -73.5t103 -31.5q82 0 127 53t69 157q0 3 1 6l2 6t1 4q-67 -80 -184 -80q-95 0 -156.5 57t-61.5 171q0 123 76.5 204.5t193.5 81.5q73 0 121.5 -28.5t66.5 -66.5l14 82h82z
M316 472q-89 0 -140 -61t-51 -153q0 -79 43 -123.5t117 -44.5q91 0 140 65.5t49 158.5q0 71 -42 114.5t-116 43.5zM358 659q55 0 80 56h63q-37 -110 -150 -110q-116 0 -122 110h62q1 -21 17.5 -38.5t49.5 -17.5z" />
    <glyph glyph-name="Gdotaccent" unicode="&#x120;" horiz-adv-x="791" 
d="M623 109q-92 -123 -262 -123q-130 0 -219 84.5t-89 233.5q0 114 44.5 209.5t135 155.5t211.5 60q124 0 204.5 -59.5t104.5 -169.5h-89q-49 158 -229 158q-92 0 -160 -50t-99 -124.5t-31 -162.5q0 -126 61.5 -195.5t176.5 -69.5q108 0 178.5 63t97.5 175h-284l13 74h358
l-65 -368h-79l10 54q5 22 11 55zM418 769l15 90h91l-15 -90h-91z" />
    <glyph glyph-name="gdotaccent" unicode="&#x121;" horiz-adv-x="630" 
d="M592 525l-76 -430q-25 -141 -93 -212.5t-196 -71.5q-95 0 -153.5 50.5t-64.5 121.5h85q7 -42 43 -73.5t103 -31.5q82 0 127 53t69 157q0 3 1 6l2 6t1 4q-67 -80 -184 -80q-95 0 -156.5 57t-61.5 171q0 123 76.5 204.5t193.5 81.5q73 0 121.5 -28.5t66.5 -66.5l14 82h82z
M316 472q-89 0 -140 -61t-51 -153q0 -79 43 -123.5t117 -44.5q91 0 140 65.5t49 158.5q0 71 -42 114.5t-116 43.5zM300 609l15 90h91l-15 -90h-91z" />
    <glyph glyph-name="Gcommaaccent" unicode="&#x122;" horiz-adv-x="791" 
d="M623 109q-92 -123 -262 -123q-130 0 -219 84.5t-89 233.5q0 114 44.5 209.5t135 155.5t211.5 60q124 0 204.5 -59.5t104.5 -169.5h-89q-49 158 -229 158q-92 0 -160 -50t-99 -124.5t-31 -162.5q0 -126 61.5 -195.5t176.5 -69.5q108 0 178.5 63t97.5 175h-284l13 74h358
l-65 -368h-79l10 54q5 22 11 55zM231 -163l94 115h83l-75 -115h-102z" />
    <glyph glyph-name="gcommaaccent" unicode="&#x123;" horiz-adv-x="630" 
d="M592 525l-76 -430q-25 -141 -93 -212.5t-196 -71.5q-95 0 -153.5 50.5t-64.5 121.5h85q7 -42 43 -73.5t103 -31.5q82 0 127 53t69 157q0 3 1 6l2 6t1 4q-67 -80 -184 -80q-95 0 -156.5 57t-61.5 171q0 123 76.5 204.5t193.5 81.5q73 0 121.5 -28.5t66.5 -66.5l14 82h82z
M316 472q-89 0 -140 -61t-51 -153q0 -79 43 -123.5t117 -44.5q91 0 140 65.5t49 158.5q0 71 -42 114.5t-116 43.5zM482 715l-94 -115h-83l75 115h102z" />
    <glyph glyph-name="Hcircumflex" unicode="&#x124;" horiz-adv-x="702" 
d="M38 0l127 715h85l-55 -312h347l55 312h85l-127 -715h-85l59 330h-347l-59 -330h-85zM395 876h84q13 -19 43 -60t40 -55h-76l-54 64l-72 -64h-81q22 21 63 62.5t53 52.5z" />
    <glyph glyph-name="hcircumflex" unicode="&#x125;" horiz-adv-x="580" 
d="M23 0l127 715h83l-26 -144q-18 -99 -23 -120q72 88 174 88q78 0 119 -39.5t41 -108.5q0 -30 -11 -98l-52 -293h-83l52 295q9 56 9 79q0 46 -28 72t-81 26q-66 0 -107.5 -44.5t-54.5 -112.5l-56 -315h-83zM178 876h84q13 -19 43 -60t40 -55h-76l-54 64l-72 -64h-81
q22 21 63 62.5t53 52.5z" />
    <glyph glyph-name="Hbar" unicode="&#x126;" horiz-adv-x="702" 
d="M38 0l127 715h85l-18 -98h347l18 98h85l-127 -715h-85l59 330h-347l-59 -330h-85zM195 403h347l24 140h-347z" />
    <glyph glyph-name="hbar" unicode="&#x127;" horiz-adv-x="580" 
d="M66 587l11 60h61l12 68h83l-12 -68h86l-11 -60h-86l-3 -16q-18 -99 -23 -120q72 88 174 88q78 0 119 -39.5t41 -108.5q0 -30 -11 -98l-52 -293h-83l52 295q9 56 9 79q0 46 -28 72t-81 26q-66 0 -107.5 -44.5t-54.5 -112.5l-56 -315h-83l104 587h-61z" />
    <glyph glyph-name="Itilde" unicode="&#x128;" horiz-adv-x="270" 
d="M38 0l127 715h85l-127 -715h-85zM127 765h-58q7 102 84 102q27 0 72 -22q38 -18 54 -18q26 0 33 40h56q-3 -47 -24 -75t-57 -28q-22 0 -67 19q-46 21 -59 21q-29 0 -34 -39z" />
    <glyph glyph-name="itilde" unicode="&#x129;" horiz-adv-x="235" 
d="M116 525h81l-93 -525h-81zM80 613h-58q7 102 84 102q27 0 72 -22q38 -18 54 -18q26 0 33 40h56q-3 -47 -24 -75t-57 -28q-22 0 -67 19q-46 21 -59 21q-30 0 -34 -39z" />
    <glyph glyph-name="Imacron" unicode="&#x12a;" horiz-adv-x="270" 
d="M38 0l127 715h85l-127 -715h-85zM93 785l9 53h244l-9 -53h-244z" />
    <glyph glyph-name="imacron" unicode="&#x12b;" horiz-adv-x="235" 
d="M116 525h81l-93 -525h-81zM48 628l9 53h244l-9 -53h-244z" />
    <glyph glyph-name="Ibreve" unicode="&#x12c;" horiz-adv-x="270" 
d="M38 0l127 715h85l-127 -715h-85zM228 823q55 0 80 56h63q-37 -110 -150 -110q-116 0 -122 110h62q1 -21 17.5 -38.5t49.5 -17.5z" />
    <glyph glyph-name="ibreve" unicode="&#x12d;" horiz-adv-x="235" 
d="M116 525h81l-93 -525h-81zM177 659q55 0 80 56h63q-37 -110 -150 -110q-116 0 -122 110h62q1 -21 17.5 -38.5t49.5 -17.5z" />
    <glyph glyph-name="Iogonek" unicode="&#x12e;" horiz-adv-x="270" 
d="M38 0l127 715h85l-127 -715h-85zM116 -48l94 -115h-105l-75 115h86z" />
    <glyph glyph-name="iogonek" unicode="&#x12f;" horiz-adv-x="235" 
d="M215 614h-85l18 101h85zM116 525h81l-93 -525h-81zM104 -48l94 -115h-102l-75 115h83z" />
    <glyph glyph-name="Idotaccent" unicode="&#x130;" horiz-adv-x="270" 
d="M38 0l127 715h85l-127 -715h-85zM170 769l15 90h91l-15 -90h-91z" />
    <glyph glyph-name="dotlessi" unicode="&#x131;" horiz-adv-x="235" 
d="M116 525h81l-93 -525h-81z" />
    <glyph glyph-name="IJ" unicode="&#x132;" horiz-adv-x="744" 
d="M38 0l127 715h85l-127 -715h-85zM272 173h81q-1 -4 -1 -11v-16q0 -93 85 -93q22 0 39 5.5t29.5 20t20 25.5t14.5 38.5t10 41.5t10 49l85 482h85l-91 -515q-20 -108 -64 -161t-140 -53q-165 0 -165 151q0 18 1 25q0 8 1 11z" />
    <glyph glyph-name="ij" unicode="&#x133;" horiz-adv-x="473" 
d="M215 614h-85l18 101h85zM116 525h81l-93 -525h-81zM130 -194l11 65q15 -1 29 -1q34 0 52.5 15t26.5 60l102 580h83l-99 -566q-15 -85 -50.5 -121t-112.5 -36q-33 0 -42 4zM452 614h-85l18 101h85z" />
    <glyph glyph-name="Jcircumflex" unicode="&#x134;" horiz-adv-x="474" 
d="M2 173h81q-1 -4 -1 -11v-16q0 -93 85 -93q22 0 39 5.5t29.5 20t20 25.5t14.5 38.5t10 41.5t10 49l85 482h85l-91 -515q-20 -108 -64 -161t-140 -53q-165 0 -165 151q0 18 1 25q0 8 1 11zM395 876h84q13 -19 43 -60t40 -55h-76l-54 64l-72 -64h-81q22 21 63 62.5t53 52.5z
" />
    <glyph glyph-name="jcircumflex" unicode="&#x135;" horiz-adv-x="238" 
d="M-105 -194l11 65q15 -1 29 -1q34 0 52.5 15t26.5 60l102 580h83l-99 -566q-15 -85 -50.5 -121t-112.5 -36q-33 0 -42 4zM145 715h85q14 -20 45 -66.5l35 -52.5h-76l-52 68l-74 -68h-81q19 18 59.5 60t58.5 59z" />
    <glyph glyph-name="Kcommaaccent" unicode="&#x136;" horiz-adv-x="585" 
d="M38 0l127 715h86l-58 -328l354 328h114l-378 -341q37 -54 123.5 -179.5t132.5 -194.5h-104q-14 21 -97.5 145t-148.5 223l-65 -368h-86zM131 -163l94 115h83l-75 -115h-102z" />
    <glyph glyph-name="kcommaaccent" unicode="&#x137;" horiz-adv-x="500" 
d="M442 0h-107l-43 65q-43 65 -67 99l-71 104l-48 -268h-83l127 715h83l-75 -426l97 91q108 102 151 145h112q-100 -91 -179 -160l-95 -84zM74 -163l94 115h83l-75 -115h-102z" />
    <glyph glyph-name="kgreenlandic" unicode="&#x138;" horiz-adv-x="500" 
d="M116 525h84l-42 -236l97 91q108 102 151 145h112q-100 -91 -179 -160l-95 -84l198 -281h-107l-43 65q-43 65 -67 99l-71 104l-48 -268h-83z" />
    <glyph glyph-name="Lacute" unicode="&#x139;" horiz-adv-x="523" 
d="M165 715h85l-113 -641h322l-14 -74h-407zM393 875l-138 -114h-88l111 114h115z" />
    <glyph glyph-name="lacute" unicode="&#x13a;" horiz-adv-x="245" 
d="M27 0l127 715h83l-127 -715h-83zM379 875l-138 -114h-88l111 114h115z" />
    <glyph glyph-name="Lcommaaccent" unicode="&#x13b;" horiz-adv-x="523" 
d="M165 715h85l-113 -641h322l-14 -74h-407zM114 -163l94 115h83l-75 -115h-102z" />
    <glyph glyph-name="lcommaaccent" unicode="&#x13c;" horiz-adv-x="245" 
d="M27 0l127 715h83l-127 -715h-83zM-63 -163l94 115h83l-75 -115h-102z" />
    <glyph glyph-name="Lcaron" unicode="&#x13d;" horiz-adv-x="523" 
d="M165 715h85l-113 -641h322l-14 -74h-407zM490 715l-122 -232h-70l105 232h87z" />
    <glyph glyph-name="lcaron" unicode="&#x13e;" horiz-adv-x="320" 
d="M27 0l127 715h83l-127 -715h-83zM463 715l-122 -232h-70l105 232h87z" />
    <glyph glyph-name="Ldot" unicode="&#x13f;" horiz-adv-x="523" 
d="M165 715h85l-113 -641h322l-14 -74h-407zM283 261l19 111h88l-19 -111h-88z" />
    <glyph glyph-name="ldot" unicode="&#x140;" horiz-adv-x="361" 
d="M27 0l127 715h83l-127 -715h-83zM256 261l19 111h88l-19 -111h-88z" />
    <glyph glyph-name="Lslash" unicode="&#x141;" horiz-adv-x="529" 
d="M172 715h85l-52 -290l152 89l-14 -82l-152 -88l-47 -270h322l-14 -74h-407l51 288l-86 -52l14 82l87 52z" />
    <glyph glyph-name="lslash" unicode="&#x142;" horiz-adv-x="260" 
d="M34 0l56 313l-80 -47l14 81l80 47l57 321h83l-48 -267l91 54l-14 -81l-91 -54l-65 -367h-83z" />
    <glyph glyph-name="Nacute" unicode="&#x143;" horiz-adv-x="734" 
d="M587 0h-120l-162 428q-54 138 -71 195h-2q-1 -4 -46 -271l-63 -352h-85l127 715h126l165 -441q10 -27 33.5 -90.5t32.5 -90.5h2q4 18 15.5 95t18.5 114l73 413h83zM602 875l-138 -114h-88l111 114h115z" />
    <glyph glyph-name="nacute" unicode="&#x144;" horiz-adv-x="580" 
d="M23 0l79 446q12 75 13 79h82l-14 -75q72 89 175 89q78 0 119 -39.5t41 -108.5q0 -30 -11 -98l-52 -293h-83l52 295q9 56 9 79q0 46 -28 72t-81 26q-66 0 -107.5 -44.5t-54.5 -112.5l-56 -315h-83zM507 715l-141 -119h-88l114 119h115z" />
    <glyph glyph-name="Ncommaaccent" unicode="&#x145;" horiz-adv-x="734" 
d="M587 0h-120l-162 428q-54 138 -71 195h-2q-1 -4 -46 -271l-63 -352h-85l127 715h126l165 -441q10 -27 33.5 -90.5t32.5 -90.5h2q4 18 15.5 95t18.5 114l73 413h83zM359 -47l-94 -115h-83l75 115h102z" />
    <glyph glyph-name="ncommaaccent" unicode="&#x146;" horiz-adv-x="580" 
d="M23 0l79 446q12 75 13 79h82l-14 -75q72 89 175 89q78 0 119 -39.5t41 -108.5q0 -30 -11 -98l-52 -293h-83l52 295q9 56 9 79q0 46 -28 72t-81 26q-66 0 -107.5 -44.5t-54.5 -112.5l-56 -315h-83zM298 -47l-94 -115h-83l75 115h102z" />
    <glyph glyph-name="Ncaron" unicode="&#x147;" horiz-adv-x="734" 
d="M587 0h-120l-162 428q-54 138 -71 195h-2q-1 -4 -46 -271l-63 -352h-85l127 715h126l165 -441q10 -27 33.5 -90.5t32.5 -90.5h2q4 18 15.5 95t18.5 114l73 413h83zM492 761h-85q-11 18 -41 57.5t-41 57.5h76l54 -64l72 64h81q-22 -21 -63 -62.5t-53 -52.5z" />
    <glyph glyph-name="ncaron" unicode="&#x148;" horiz-adv-x="580" 
d="M23 0l79 446q12 75 13 79h82l-14 -75q72 89 175 89q78 0 119 -39.5t41 -108.5q0 -30 -11 -98l-52 -293h-83l52 295q9 56 9 79q0 46 -28 72t-81 26q-66 0 -107.5 -44.5t-54.5 -112.5l-56 -315h-83zM399 596h-86q-13 19 -41 61.5t-38 57.5h76l52 -68l74 68h81
q-19 -18 -59.5 -60t-58.5 -59z" />
    <glyph glyph-name="napostrophe" unicode="&#x149;" horiz-adv-x="661" 
d="M104 0l79 446q13 75 13 79h82l-14 -75q72 89 175 89q78 0 119 -39.5t41 -108.5q0 -30 -11 -98l-52 -293h-83l52 295q9 56 9 79q0 46 -28 72t-81 26q-66 0 -107.5 -44.5t-54.5 -112.5l-56 -315h-83zM213 715l-122 -232h-70l105 232h87z" />
    <glyph glyph-name="Eng" unicode="&#x14a;" horiz-adv-x="734" 
d="M714 715l-124 -695q-20 -108 -64.5 -161t-139.5 -53q-164 0 -164 151q0 18 1 25q0 8 1 11h80q-1 -4 -1 -11v-16q0 -93 89 -93q50 0 75.5 32t38.5 95h-39l-162 428q-54 138 -71 195h-2q-1 -4 -46 -271l-63 -352h-85l127 715h126l165 -441q10 -27 33.5 -90.5t32.5 -90.5h2
q4 18 15.5 95t18.5 114l73 413h83z" />
    <glyph glyph-name="eng" unicode="&#x14b;" horiz-adv-x="581" 
d="M507 293l-59 -334q-15 -85 -50.5 -121t-112.5 -36q-33 0 -42 4l11 65q15 -1 29 -1q34 0 52.5 15t26.5 60l62 350q9 56 9 79q0 46 -28 72t-81 26q-66 0 -107.5 -44.5t-54.5 -112.5l-56 -315h-83l79 446q12 75 13 79h82l-14 -75q72 89 175 89q78 0 119 -39.5t41 -108.5
q0 -30 -11 -98z" />
    <glyph glyph-name="Omacron" unicode="&#x14c;" horiz-adv-x="808" 
d="M448 729q147 0 236 -84.5t89 -232.5q0 -186 -106.5 -306t-288.5 -120q-145 0 -235 84.5t-90 236.5q0 178 106.5 300t288.5 122zM439 658q-94 0 -162.5 -50t-100 -125.5t-31.5 -164.5q0 -125 61.5 -193.5t177.5 -68.5q98 0 167 52t100 130.5t31 172.5q0 113 -65.5 180
t-177.5 67zM341 785l9 53h244l-9 -53h-244z" />
    <glyph glyph-name="omacron" unicode="&#x14d;" horiz-adv-x="619" 
d="M284 50q93 0 146 67t53 170q0 86 -42 135.5t-121 49.5q-94 0 -147.5 -68t-53.5 -170q0 -87 43.5 -135.5t121.5 -48.5zM327 539q114 0 178 -62.5t64 -177.5q0 -140 -76.5 -228.5t-215.5 -88.5q-114 0 -179 63t-65 183q0 130 79 220.5t215 90.5zM235 628l9 53h244l-9 -53
h-244z" />
    <glyph glyph-name="Obreve" unicode="&#x14e;" horiz-adv-x="808" 
d="M448 729q147 0 236 -84.5t89 -232.5q0 -186 -106.5 -306t-288.5 -120q-145 0 -235 84.5t-90 236.5q0 178 106.5 300t288.5 122zM439 658q-94 0 -162.5 -50t-100 -125.5t-31.5 -164.5q0 -125 61.5 -193.5t177.5 -68.5q98 0 167 52t100 130.5t31 172.5q0 113 -65.5 180
t-177.5 67zM470 823q55 0 80 56h63q-37 -110 -150 -110q-116 0 -122 110h62q1 -21 17.5 -38.5t49.5 -17.5z" />
    <glyph glyph-name="obreve" unicode="&#x14f;" horiz-adv-x="619" 
d="M284 50q93 0 146 67t53 170q0 86 -42 135.5t-121 49.5q-94 0 -147.5 -68t-53.5 -170q0 -87 43.5 -135.5t121.5 -48.5zM327 539q114 0 178 -62.5t64 -177.5q0 -140 -76.5 -228.5t-215.5 -88.5q-114 0 -179 63t-65 183q0 130 79 220.5t215 90.5zM354 659q55 0 80 56h63
q-37 -110 -150 -110q-116 0 -122 110h62q1 -21 17.5 -38.5t49.5 -17.5z" />
    <glyph glyph-name="Ohungarumlaut" unicode="&#x150;" horiz-adv-x="808" 
d="M448 729q147 0 236 -84.5t89 -232.5q0 -186 -106.5 -306t-288.5 -120q-145 0 -235 84.5t-90 236.5q0 178 106.5 300t288.5 122zM439 658q-94 0 -162.5 -50t-100 -125.5t-31.5 -164.5q0 -125 61.5 -193.5t177.5 -68.5q98 0 167 52t100 130.5t31 172.5q0 113 -65.5 180
t-177.5 67zM528 875l-138 -114h-86l111 114h113zM714 875l-138 -114h-86l111 114h113z" />
    <glyph glyph-name="ohungarumlaut" unicode="&#x151;" horiz-adv-x="619" 
d="M284 50q93 0 146 67t53 170q0 86 -42 135.5t-121 49.5q-94 0 -147.5 -68t-53.5 -170q0 -87 43.5 -135.5t121.5 -48.5zM327 539q114 0 178 -62.5t64 -177.5q0 -140 -76.5 -228.5t-215.5 -88.5q-114 0 -179 63t-65 183q0 130 79 220.5t215 90.5zM408 715l-141 -119h-86
l114 119h113zM594 715l-141 -119h-86l114 119h113z" />
    <glyph glyph-name="OE" unicode="&#x152;" horiz-adv-x="1154" 
d="M439 729q183 0 271 -132l21 118h444l-14 -74h-359l-41 -237h335l-13 -74h-335l-45 -256h366l-14 -74h-447l14 83q-102 -97 -248 -97q-143 0 -232 84.5t-89 237.5q0 113 44 207.5t133.5 154t208.5 59.5zM435 658q-93 0 -160.5 -50t-98.5 -125.5t-31 -164.5
q0 -125 61 -193.5t177 -68.5q73 0 131 29.5t92.5 80t52.5 113t18 132.5q0 114 -64.5 180.5t-177.5 66.5z" />
    <glyph glyph-name="oe" unicode="&#x153;" horiz-adv-x="1036" 
d="M327 539q151 0 211 -109q83 109 223 109q117 0 175.5 -67.5t58.5 -180.5q0 -12 -2 -42h-439v-15q0 -87 43.5 -135.5t121.5 -48.5q112 0 166 98h85q-71 -166 -260 -166q-145 0 -206 105q-80 -105 -227 -105q-114 0 -179 63t-65 183q0 130 79 220.5t215 90.5zM284 50
q93 0 146 67t53 170q0 86 -42 135.5t-121 49.5q-94 0 -147.5 -68t-53.5 -170q0 -87 43.5 -135.5t121.5 -48.5zM755 472q-74 0 -124.5 -44.5t-67.5 -116.5h352q-3 76 -44.5 118.5t-115.5 42.5z" />
    <glyph glyph-name="Racute" unicode="&#x154;" horiz-adv-x="604" 
d="M38 0l126 715h206q100 0 157 -33q72 -44 72 -137q0 -99 -57.5 -161t-158.5 -75l133 -309h-96l-126 301h-118l-54 -301h-84zM236 643l-48 -272h119q99 0 149 40q24 19 38.5 51t14.5 68q0 61 -41.5 87t-123.5 26h-108zM541 875l-138 -114h-88l111 114h115z" />
    <glyph glyph-name="racute" unicode="&#x155;" horiz-adv-x="320" 
d="M194 525l-15 -85q21 43 62 70t88 27q11 0 16 -1l-14 -79q-8 3 -34 3q-109 0 -140 -173l-51 -287h-83l79 446q12 75 13 79h79zM362 715l-141 -119h-88l114 119h115z" />
    <glyph glyph-name="Rcommaaccent" unicode="&#x156;" horiz-adv-x="604" 
d="M38 0l126 715h206q100 0 157 -33q72 -44 72 -137q0 -99 -57.5 -161t-158.5 -75l133 -309h-96l-126 301h-118l-54 -301h-84zM236 643l-48 -272h119q99 0 149 40q24 19 38.5 51t14.5 68q0 61 -41.5 87t-123.5 26h-108zM132 -163l94 115h83l-75 -115h-102z" />
    <glyph glyph-name="rcommaaccent" unicode="&#x157;" horiz-adv-x="320" 
d="M194 525l-15 -85q21 43 62 70t88 27q11 0 16 -1l-14 -79q-8 3 -34 3q-109 0 -140 -173l-51 -287h-83l79 446q12 75 13 79h79zM-48 -163l94 115h83l-75 -115h-102z" />
    <glyph glyph-name="Rcaron" unicode="&#x158;" horiz-adv-x="604" 
d="M38 0l126 715h206q100 0 157 -33q72 -44 72 -137q0 -99 -57.5 -161t-158.5 -75l133 -309h-96l-126 301h-118l-54 -301h-84zM236 643l-48 -272h119q99 0 149 40q24 19 38.5 51t14.5 68q0 61 -41.5 87t-123.5 26h-108zM417 761h-85q-11 18 -40.5 57.5t-41.5 57.5h76l54 -64
l72 64h81q-22 -21 -63 -62.5t-53 -52.5z" />
    <glyph glyph-name="rcaron" unicode="&#x159;" horiz-adv-x="320" 
d="M194 525l-15 -85q21 43 62 70t88 27q11 0 16 -1l-14 -79q-8 3 -34 3q-109 0 -140 -173l-51 -287h-83l79 446q12 75 13 79h79zM224 596h-86q-13 19 -41 61.5t-38 57.5h76l52 -68l74 68h81q-19 -18 -59.5 -60t-58.5 -59z" />
    <glyph glyph-name="Sacute" unicode="&#x15a;" horiz-adv-x="603" 
d="M23 204h85q3 -69 50.5 -109t125.5 -40q79 0 125 34.5t46 96.5q0 29 -12.5 51.5t-40.5 40.5t-44.5 26.5t-52.5 23.5l-46 18q-86 35 -125.5 75t-39.5 109q0 90 67.5 144.5t178.5 54.5q112 0 173 -53t65 -146h-83q-11 132 -162 132q-71 0 -110 -30.5t-39 -82.5q0 -50 30 -77
t102 -58l66 -28q23 -10 30.5 -13.5t30 -15t32.5 -19.5t26.5 -23t23.5 -29.5t13.5 -35.5t6.5 -44q0 -100 -73 -159.5t-195 -59.5q-116 0 -184 56.5t-70 160.5zM527 875l-138 -114h-88l111 114h115z" />
    <glyph glyph-name="sacute" unicode="&#x15b;" horiz-adv-x="497" 
d="M13 159h81q18 -112 131 -112q59 0 93 26t34 66q0 32 -24.5 49t-78.5 36l-54 19q-70 25 -103 56.5t-33 84.5q0 68 55 111.5t151 43.5q83 0 134.5 -40t53.5 -112h-78q-15 87 -120 87q-112 0 -112 -73q0 -34 22 -51.5t77 -38.5l55 -21q29 -10 48.5 -19t42.5 -25t35 -40
t12 -54q0 -76 -58.5 -123t-159.5 -47q-87 0 -142.5 45t-61.5 132zM448 715l-141 -119h-88l114 119h115z" />
    <glyph glyph-name="Scircumflex" unicode="&#x15c;" horiz-adv-x="603" 
d="M23 204h85q3 -69 50.5 -109t125.5 -40q79 0 125 34.5t46 96.5q0 29 -12.5 51.5t-40.5 40.5t-44.5 26.5t-52.5 23.5l-46 18q-86 35 -125.5 75t-39.5 109q0 90 67.5 144.5t178.5 54.5q112 0 173 -53t65 -146h-83q-11 132 -162 132q-71 0 -110 -30.5t-39 -82.5q0 -50 30 -77
t102 -58l66 -28q23 -10 30.5 -13.5t30 -15t32.5 -19.5t26.5 -23t23.5 -29.5t13.5 -35.5t6.5 -44q0 -100 -73 -159.5t-195 -59.5q-116 0 -184 56.5t-70 160.5zM325 876h84q13 -19 43 -60t40 -55h-76l-54 64l-72 -64h-81q22 21 63 62.5t53 52.5z" />
    <glyph glyph-name="scircumflex" unicode="&#x15d;" horiz-adv-x="497" 
d="M13 159h81q18 -112 131 -112q59 0 93 26t34 66q0 32 -24.5 49t-78.5 36l-54 19q-70 25 -103 56.5t-33 84.5q0 68 55 111.5t151 43.5q83 0 134.5 -40t53.5 -112h-78q-15 87 -120 87q-112 0 -112 -73q0 -34 22 -51.5t77 -38.5l55 -21q29 -10 48.5 -19t42.5 -25t35 -40
t12 -54q0 -76 -58.5 -123t-159.5 -47q-87 0 -142.5 45t-61.5 132zM253 715h85q14 -20 45 -66.5l35 -52.5h-76l-52 68l-74 -68h-81q19 18 59.5 60t58.5 59z" />
    <glyph glyph-name="Scedilla" unicode="&#x15e;" horiz-adv-x="603" 
d="M23 204h85q3 -69 50.5 -109t125.5 -40q79 0 125 34.5t46 96.5q0 29 -12.5 51.5t-40.5 40.5t-44.5 26.5t-52.5 23.5l-46 18q-86 35 -125.5 75t-39.5 109q0 90 67.5 144.5t178.5 54.5q112 0 173 -53t65 -146h-83q-11 132 -162 132q-71 0 -110 -30.5t-39 -82.5q0 -50 30 -77
t102 -58l66 -28q23 -10 30.5 -13.5t30 -15t32.5 -19.5t26.5 -23t23.5 -29.5t13.5 -35.5t6.5 -44q0 -100 -73 -159.5t-195 -59.5q-116 0 -184 56.5t-70 160.5zM127 -163l94 115h86l-75 -115h-105z" />
    <glyph glyph-name="scedilla" unicode="&#x15f;" horiz-adv-x="497" 
d="M13 159h81q18 -112 131 -112q59 0 93 26t34 66q0 32 -24.5 49t-78.5 36l-54 19q-70 25 -103 56.5t-33 84.5q0 68 55 111.5t151 43.5q83 0 134.5 -40t53.5 -112h-78q-15 87 -120 87q-112 0 -112 -73q0 -34 22 -51.5t77 -38.5l55 -21q29 -10 48.5 -19t42.5 -25t35 -40
t12 -54q0 -76 -58.5 -123t-159.5 -47q-87 0 -142.5 45t-61.5 132zM76 -163l94 115h86l-75 -115h-105z" />
    <glyph glyph-name="Scaron" unicode="&#x160;" horiz-adv-x="603" 
d="M23 204h85q3 -69 50.5 -109t125.5 -40q79 0 125 34.5t46 96.5q0 29 -12.5 51.5t-40.5 40.5t-44.5 26.5t-52.5 23.5l-46 18q-86 35 -125.5 75t-39.5 109q0 90 67.5 144.5t178.5 54.5q112 0 173 -53t65 -146h-83q-11 132 -162 132q-71 0 -110 -30.5t-39 -82.5q0 -50 30 -77
t102 -58l66 -28q23 -10 30.5 -13.5t30 -15t32.5 -19.5t26.5 -23t23.5 -29.5t13.5 -35.5t6.5 -44q0 -100 -73 -159.5t-195 -59.5q-116 0 -184 56.5t-70 160.5zM400 761h-85q-11 18 -41 57.5t-41 57.5h76l54 -64l72 64h81q-22 -21 -63 -62.5t-53 -52.5z" />
    <glyph glyph-name="scaron" unicode="&#x161;" horiz-adv-x="497" 
d="M13 159h81q18 -112 131 -112q59 0 93 26t34 66q0 32 -24.5 49t-78.5 36l-54 19q-70 25 -103 56.5t-33 84.5q0 68 55 111.5t151 43.5q83 0 134.5 -40t53.5 -112h-78q-15 87 -120 87q-112 0 -112 -73q0 -34 22 -51.5t77 -38.5l55 -21q29 -10 48.5 -19t42.5 -25t35 -40
t12 -54q0 -76 -58.5 -123t-159.5 -47q-87 0 -142.5 45t-61.5 132zM327 596h-86q-13 19 -41 61.5t-38 57.5h76l52 -68l74 68h81q-19 -18 -59.5 -60t-58.5 -59z" />
    <glyph glyph-name="uni0162" unicode="&#x162;" horiz-adv-x="537" 
d="M171 0l113 641h-200l14 74h485l-14 -74h-200l-113 -641h-85zM83 -163l94 115h83l-75 -115h-102z" />
    <glyph glyph-name="uni0163" unicode="&#x163;" horiz-adv-x="297" 
d="M122 463h-81l11 62h81l25 142h82l-25 -142h100l-11 -62h-100l-58 -329q-3 -18 -3 -28q0 -53 63 -53q8 0 16 1l-11 -62q-18 -2 -31 -2q-62 0 -92 22t-30 71q0 21 4 38zM18 -163l94 115h83l-75 -115h-102z" />
    <glyph glyph-name="Tcaron" unicode="&#x164;" horiz-adv-x="537" 
d="M171 0l113 641h-200l14 74h485l-14 -74h-200l-113 -641h-85zM393 761h-85q-11 18 -40.5 57.5t-41.5 57.5h76l54 -64l72 64h81q-22 -21 -63 -62.5t-53 -52.5z" />
    <glyph glyph-name="tcaron" unicode="&#x165;" horiz-adv-x="358" 
d="M122 463h-81l11 62h81l25 142h82l-25 -142h100l-11 -62h-100l-58 -329q-3 -18 -3 -28q0 -53 63 -53q8 0 16 1l-11 -62q-18 -2 -31 -2q-62 0 -92 22t-30 71q0 21 4 38zM524 715l-122 -232h-70l105 232h87z" />
    <glyph glyph-name="Tbar" unicode="&#x166;" horiz-adv-x="559" 
d="M89 327l13 72h150l42 242h-200l14 74h485l-14 -74h-200l-42 -242h163l-13 -72h-163l-58 -327h-85l58 327h-150z" />
    <glyph glyph-name="tbar" unicode="&#x167;" horiz-adv-x="300" 
d="M125 463h-81l11 62h81l25 142h82l-25 -142h100l-11 -62h-100l-20 -113h76l-10 -60h-77l-27 -156q-3 -18 -3 -28q0 -53 63 -53q8 0 16 1l-11 -62q-18 -2 -31 -2q-62 0 -92 22t-30 71q0 21 4 38l29 169h-71l10 60h72z" />
    <glyph glyph-name="Utilde" unicode="&#x168;" horiz-adv-x="689" 
d="M304 -15q-115 0 -174 52.5t-59 153.5q0 30 8 80l78 444h85l-77 -437q-6 -38 -6 -71q0 -69 36.5 -111t120.5 -42q51 0 86.5 16t57 49.5t33 68.5t21.5 90l77 437h85l-78 -446q-24 -140 -80 -204q-71 -80 -214 -80zM340 765h-58q7 102 84 102q27 0 72 -22q38 -18 54 -18
q26 0 33 40h56q-3 -47 -24 -75t-57 -28q-22 0 -67 19q-46 21 -59 21q-30 0 -34 -39z" />
    <glyph glyph-name="utilde" unicode="&#x169;" horiz-adv-x="572" 
d="M534 525l-79 -446q-13 -75 -13 -79h-82l14 75q-69 -89 -171 -89q-76 0 -116 39t-40 109q0 30 11 98l52 293h83l-52 -295q-9 -56 -9 -79q0 -47 26.5 -72.5t78.5 -25.5q65 0 105 44t53 113l56 315h83zM251 613h-58q7 102 84 102q27 0 72 -22q38 -18 54 -18q26 0 33 40h56
q-3 -47 -24 -75t-57 -28q-22 0 -67 19q-46 21 -59 21q-29 0 -34 -39z" />
    <glyph glyph-name="Umacron" unicode="&#x16a;" horiz-adv-x="689" 
d="M304 -15q-115 0 -174 52.5t-59 153.5q0 30 8 80l78 444h85l-77 -437q-6 -38 -6 -71q0 -69 36.5 -111t120.5 -42q51 0 86.5 16t57 49.5t33 68.5t21.5 90l77 437h85l-78 -446q-24 -140 -80 -204q-71 -80 -214 -80zM301 785l9 53h244l-9 -53h-244z" />
    <glyph glyph-name="umacron" unicode="&#x16b;" horiz-adv-x="572" 
d="M534 525l-79 -446q-13 -75 -13 -79h-82l14 75q-69 -89 -171 -89q-76 0 -116 39t-40 109q0 30 11 98l52 293h83l-52 -295q-9 -56 -9 -79q0 -47 26.5 -72.5t78.5 -25.5q65 0 105 44t53 113l56 315h83zM218 628l9 53h244l-9 -53h-244z" />
    <glyph glyph-name="Ubreve" unicode="&#x16c;" horiz-adv-x="689" 
d="M304 -15q-115 0 -174 52.5t-59 153.5q0 30 8 80l78 444h85l-77 -437q-6 -38 -6 -71q0 -69 36.5 -111t120.5 -42q51 0 86.5 16t57 49.5t33 68.5t21.5 90l77 437h85l-78 -446q-24 -140 -80 -204q-71 -80 -214 -80zM431 823q55 0 80 56h63q-37 -110 -150 -110
q-116 0 -122 110h62q1 -21 17.5 -38.5t49.5 -17.5z" />
    <glyph glyph-name="ubreve" unicode="&#x16d;" horiz-adv-x="572" 
d="M534 525l-79 -446q-13 -75 -13 -79h-82l14 75q-69 -89 -171 -89q-76 0 -116 39t-40 109q0 30 11 98l52 293h83l-52 -295q-9 -56 -9 -79q0 -47 26.5 -72.5t78.5 -25.5q65 0 105 44t53 113l56 315h83zM341 659q55 0 80 56h63q-37 -110 -150 -110q-116 0 -122 110h62
q1 -21 17.5 -38.5t49.5 -17.5z" />
    <glyph glyph-name="Uring" unicode="&#x16e;" horiz-adv-x="689" 
d="M304 -15q-115 0 -174 52.5t-59 153.5q0 30 8 80l78 444h85l-77 -437q-6 -38 -6 -71q0 -69 36.5 -111t120.5 -42q51 0 86.5 16t57 49.5t33 68.5t21.5 90l77 437h85l-78 -446q-24 -140 -80 -204q-71 -80 -214 -80zM420 748q-37 0 -62 25.5t-25 63.5q0 36 25.5 61.5
t62.5 25.5t62.5 -25.5t25.5 -61.5q0 -38 -25.5 -63.5t-63.5 -25.5zM374 837q0 -21 13 -35t33 -14t33.5 14t13.5 35q0 19 -13.5 33t-33.5 14t-33 -14t-13 -33z" />
    <glyph glyph-name="uring" unicode="&#x16f;" horiz-adv-x="572" 
d="M534 525l-79 -446q-13 -75 -13 -79h-82l14 75q-69 -89 -171 -89q-76 0 -116 39t-40 109q0 30 11 98l52 293h83l-52 -295q-9 -56 -9 -79q0 -47 26.5 -72.5t78.5 -25.5q65 0 105 44t53 113l56 315h83zM343 588q-37 0 -62 25.5t-25 63.5q0 36 25.5 61.5t62.5 25.5
t62.5 -25.5t25.5 -61.5q0 -38 -25.5 -63.5t-63.5 -25.5zM297 677q0 -21 13 -35t33 -14t33.5 14t13.5 35q0 19 -13.5 33t-33.5 14t-33 -14t-13 -33z" />
    <glyph glyph-name="Uhungarumlaut" unicode="&#x170;" horiz-adv-x="689" 
d="M304 -15q-115 0 -174 52.5t-59 153.5q0 30 8 80l78 444h85l-77 -437q-6 -38 -6 -71q0 -69 36.5 -111t120.5 -42q51 0 86.5 16t57 49.5t33 68.5t21.5 90l77 437h85l-78 -446q-24 -140 -80 -204q-71 -80 -214 -80zM482 875l-138 -114h-86l111 114h113zM668 875l-138 -114
h-86l111 114h113z" />
    <glyph glyph-name="uhungarumlaut" unicode="&#x171;" horiz-adv-x="572" 
d="M534 525l-79 -446q-13 -75 -13 -79h-82l14 75q-69 -89 -171 -89q-76 0 -116 39t-40 109q0 30 11 98l52 293h83l-52 -295q-9 -56 -9 -79q0 -47 26.5 -72.5t78.5 -25.5q65 0 105 44t53 113l56 315h83zM394 715l-141 -119h-86l114 119h113zM580 715l-141 -119h-86l114 119
h113z" />
    <glyph glyph-name="Uogonek" unicode="&#x172;" horiz-adv-x="689" 
d="M304 -15q-115 0 -174 52.5t-59 153.5q0 30 8 80l78 444h85l-77 -437q-6 -38 -6 -71q0 -69 36.5 -111t120.5 -42q51 0 86.5 16t57 49.5t33 68.5t21.5 90l77 437h85l-78 -446q-24 -140 -80 -204q-71 -80 -214 -80zM334 -48l94 -115h-102l-75 115h83z" />
    <glyph glyph-name="uogonek" unicode="&#x173;" horiz-adv-x="572" 
d="M534 525l-79 -446q-13 -75 -13 -79h-82l14 75q-69 -89 -171 -89q-76 0 -116 39t-40 109q0 30 11 98l52 293h83l-52 -295q-9 -56 -9 -79q0 -47 26.5 -72.5t78.5 -25.5q65 0 105 44t53 113l56 315h83zM259 -48l94 -115h-102l-75 115h83z" />
    <glyph glyph-name="Wcircumflex" unicode="&#x174;" horiz-adv-x="894" 
d="M937 715l-284 -715h-119l-15 391q-1 22 -10 261h-2q-18 -47 -61.5 -154.5t-54.5 -135.5l-148 -362h-121l-24 715h88l6 -440q0 -23 1.5 -101t-0.5 -102h3q20 58 80 202l182 441h124l19 -433q5 -138 5 -207h2q7 18 34 88t44 120l161 432h90zM503 876h84q13 -19 43 -60
t40 -55h-76l-54 64l-72 -64h-81q22 21 63 62.5t53 52.5z" />
    <glyph glyph-name="wcircumflex" unicode="&#x175;" horiz-adv-x="813" 
d="M237 0h-109l-26 199q-8 65 -24 184.5t-19 141.5h84l30 -272q12 -95 18 -185h2q10 25 90 207l110 250h104l14 -238q11 -184 13 -218h2q19 43 59 127.5t48 102.5l108 226h88q-18 -36 -74.5 -151t-87.5 -175l-99 -199h-111l-14 203q-3 44 -7.5 131.5t-5.5 108.5h-3
q-7 -17 -46.5 -105.5t-60.5 -139.5zM428 715h85q14 -20 45 -66.5l35 -52.5h-76l-52 68l-74 -68h-81q19 18 59.5 60t58.5 59z" />
    <glyph glyph-name="Ycircumflex" unicode="&#x176;" horiz-adv-x="590" 
d="M194 0l49 275l-167 440h89q21 -64 70.5 -194t62.5 -168q248 343 261 362h95l-326 -440l-49 -275h-85zM334 876h84q13 -19 43 -60t40 -55h-76l-54 64l-72 -64h-81q22 21 63 62.5t53 52.5z" />
    <glyph glyph-name="ycircumflex" unicode="&#x177;" horiz-adv-x="520" 
d="M140 -180h-83l105 180q-15 72 -110 525h88l79 -431q15 27 64 116t95.5 174.5t74.5 140.5h89q-46 -80 -125 -220t-147 -259t-130 -226zM273 715h85q14 -20 45 -66.5l35 -52.5h-76l-52 68l-74 -68h-81q19 18 59.5 60t58.5 59z" />
    <glyph glyph-name="Ydieresis" unicode="&#x178;" horiz-adv-x="590" 
d="M194 0l49 275l-167 440h89q21 -64 70.5 -194t62.5 -168q248 343 261 362h95l-326 -440l-49 -275h-85zM252 766l15 90h89l-15 -90h-89zM412 766l15 90h88l-15 -90h-88z" />
    <glyph glyph-name="Zacute" unicode="&#x179;" horiz-adv-x="569" 
d="M-18 0l13 71q35 43 113 133l308 356q13 15 36 40.5t35 40.5h-389l14 74h489l-13 -71q-67 -81 -106 -126l-295 -341q-33 -35 -90 -103h395l-14 -74h-496zM508 875l-138 -114h-88l111 114h115z" />
    <glyph glyph-name="zacute" unicode="&#x17a;" horiz-adv-x="491" 
d="M-20 0l11 62l278 289q27 27 63.5 65t42.5 44q-17 0 -76 -0.5t-79 -0.5h-150l12 66h406l-12 -67l-266 -274q-111 -111 -120 -119q18 0 74 0.5t79 0.5h169l-12 -66h-420zM451 715l-141 -119h-88l114 119h115z" />
    <glyph glyph-name="Zdotaccent" unicode="&#x17b;" horiz-adv-x="569" 
d="M-18 0l13 71q35 43 113 133l308 356q13 15 36 40.5t35 40.5h-389l14 74h489l-13 -71q-67 -81 -106 -126l-295 -341q-33 -35 -90 -103h395l-14 -74h-496zM308 769l15 90h91l-15 -90h-91z" />
    <glyph glyph-name="zdotaccent" unicode="&#x17c;" horiz-adv-x="491" 
d="M-20 0l11 62l278 289q27 27 63.5 65t42.5 44q-17 0 -76 -0.5t-79 -0.5h-150l12 66h406l-12 -67l-266 -274q-111 -111 -120 -119q18 0 74 0.5t79 0.5h169l-12 -66h-420zM246 609l15 90h91l-15 -90h-91z" />
    <glyph glyph-name="Zcaron" unicode="&#x17d;" horiz-adv-x="569" 
d="M-18 0l13 71q35 43 113 133l308 356q13 15 36 40.5t35 40.5h-389l14 74h489l-13 -71q-67 -81 -106 -126l-295 -341q-33 -35 -90 -103h395l-14 -74h-496zM395 761h-85q-11 18 -40.5 57.5t-41.5 57.5h76l54 -64l72 64h81q-22 -21 -63 -62.5t-53 -52.5z" />
    <glyph glyph-name="zcaron" unicode="&#x17e;" horiz-adv-x="491" 
d="M-20 0l11 62l278 289q27 27 63.5 65t42.5 44q-17 0 -76 -0.5t-79 -0.5h-150l12 66h406l-12 -67l-266 -274q-111 -111 -120 -119q18 0 74 0.5t79 0.5h169l-12 -66h-420zM325 596h-86q-13 19 -41 61.5t-38 57.5h76l52 -68l74 68h81q-19 -18 -59.5 -60t-58.5 -59z" />
    <glyph glyph-name="uni0186" unicode="&#x186;" horiz-adv-x="761" 
d="M149 509h-90q103 220 345 220q142 0 232 -83.5t90 -236.5q0 -84 -26.5 -159.5t-74.5 -134.5t-123 -94t-165 -35q-126 0 -206.5 59.5t-104.5 169.5h89q49 -158 229 -158q92 0 160 50t99 124.5t31 162.5q0 126 -61.5 195.5t-176.5 69.5q-170 0 -247 -150z" />
    <glyph glyph-name="uni018F" unicode="&#x18f;" horiz-adv-x="783" 
d="M48 379l612 3q6 126 -61 201.5t-184 75.5q-45 0 -83.5 -10.5t-63.5 -25t-46.5 -37.5t-32.5 -39.5t-23 -38.5h-89q17 39 42.5 74t66 70t102.5 56t138 21q164 0 251 -104t69 -264q-16 -165 -121 -270t-272 -105q-172 0 -250 109t-55 284zM652 317h-526q-8 -124 54 -194.5
t178 -70.5q120 0 197.5 75.5t96.5 189.5z" />
    <glyph glyph-name="uni0190" unicode="&#x190;" horiz-adv-x="555" 
d="M565 509h-83q4 78 -37 115.5t-106 37.5q-77 0 -123 -46.5t-46 -119.5q0 -67 42 -101.5t109 -34.5h26l-12 -65h-5q-79 0 -133.5 -34t-54.5 -106q0 -45 31.5 -73t80.5 -28q115 0 142 123h83q-18 -89 -78 -140t-157 -51q-89 0 -138.5 41.5t-49.5 109.5q0 71 43.5 121
t113.5 65q-59 15 -96 59t-37 107q0 110 72.5 175t193.5 65q107 0 165.5 -57t53.5 -163z" />
    <glyph glyph-name="florin" unicode="&#x192;" horiz-adv-x="380" 
d="M46 421l9 60h117l2 10q19 124 61.5 177.5t138.5 53.5q20 0 38 -3l-9 -67q-10 2 -32 2q-56 0 -80.5 -38.5t-35.5 -119.5l-2 -15h121l-9 -60h-121l-50 -351q-22 -146 -64 -199.5t-139 -53.5q-27 0 -42 4l9 65q14 -2 28 -2q64 0 87.5 38.5t36.5 136.5l53 362h-117z" />
    <glyph glyph-name="uni019D" unicode="&#x19d;" horiz-adv-x="734" 
d="M186 352l-71 -393q-16 -85 -51 -121t-112 -36q-33 0 -42 4l11 65q15 -1 29 -1q34 0 52.5 15t26.5 60l136 770h126l165 -441q10 -27 33.5 -90.5t32.5 -90.5h2q4 18 15.5 95t18.5 114l73 413h83l-127 -715h-120l-162 428q-54 138 -71 195h-2q-1 -4 -46 -271z" />
    <glyph glyph-name="uni019F" unicode="&#x19f;" horiz-adv-x="808" 
d="M448 729q147 0 236 -85t89 -232q0 -186 -106.5 -306t-288.5 -120q-145 0 -235 84.5t-90 236.5q0 178 106.5 300t288.5 122zM384 56q123 0 197.5 76t93.5 195h-530v-9q0 -125 61.5 -193.5t177.5 -68.5zM439 658q-118 0 -193 -74t-94 -186h530v13q0 113 -65.5 180
t-177.5 67z" />
    <glyph glyph-name="Ohorn" unicode="&#x1a0;" horiz-adv-x="808" 
d="M448 729q147 0 236 -84.5t89 -232.5q0 -186 -106.5 -306t-288.5 -120q-145 0 -235 84.5t-90 236.5q0 178 106.5 300t288.5 122zM439 658q-94 0 -162.5 -50t-100 -125.5t-31.5 -164.5q0 -125 61.5 -193.5t177.5 -68.5q98 0 167 52t100 130.5t31 172.5q0 113 -65.5 180
t-177.5 67zM746 906l-108 -191h-69l88 191h89z" />
    <glyph glyph-name="ohorn" unicode="&#x1a1;" horiz-adv-x="619" 
d="M284 50q93 0 146 67t53 170q0 86 -42 135.5t-121 49.5q-94 0 -147.5 -68t-53.5 -170q0 -87 43.5 -135.5t121.5 -48.5zM327 539q114 0 178 -62.5t64 -177.5q0 -140 -76.5 -228.5t-215.5 -88.5q-114 0 -179 63t-65 183q0 130 79 220.5t215 90.5zM607 715l-108 -191h-69
l88 191h89z" />
    <glyph glyph-name="Uhorn" unicode="&#x1af;" horiz-adv-x="689" 
d="M737 906l-108 -191h47l-78 -446q-24 -140 -80 -204q-71 -80 -214 -80q-115 0 -174 52.5t-59 153.5q0 30 8 80l78 444h85l-77 -437q-6 -38 -6 -71q0 -69 36.5 -111t120.5 -42q51 0 86.5 16t57 49.5t33 68.5t21.5 90l77 437h-31l88 191h89z" />
    <glyph glyph-name="uhorn" unicode="&#x1b0;" horiz-adv-x="572" 
d="M599 715l-108 -190h43l-79 -446q-13 -75 -13 -79h-82l14 75q-69 -89 -171 -89q-76 0 -116 39t-40 109q0 30 11 98l52 293h83l-52 -295q-9 -56 -9 -79q0 -47 26.5 -72.5t78.5 -25.5q65 0 105 44t53 113l56 314h-29l88 191h89z" />
    <glyph glyph-name="uni01C4" unicode="&#x1c4;" horiz-adv-x="1290" 
d="M38 0l127 715h122q94 0 143 -8q122 -20 188.5 -87t66.5 -203q0 -166 -89 -277q-35 -45 -79 -74t-98 -43t-103.5 -18.5t-117.5 -4.5h-160zM237 643l-101 -570h108q118 0 194 40q156 79 156 300q0 155 -127 208q-57 22 -139 22h-91zM703 0l13 71q35 43 113 133l308 356
q13 15 36 40.5t35 40.5h-389l14 74h489l-13 -71q-67 -81 -106 -126l-295 -341q-33 -35 -90 -103h395l-14 -74h-496zM1116 761h-85q-11 18 -41 57.5t-41 57.5h76l54 -64l72 64h81q-22 -21 -63 -62.5t-53 -52.5z" />
    <glyph glyph-name="uni01C5" unicode="&#x1c5;" horiz-adv-x="1212" 
d="M38 0l127 715h122q94 0 143 -8q122 -20 188.5 -87t66.5 -203q0 -166 -89 -277q-35 -45 -79 -74t-98 -43t-103.5 -18.5t-117.5 -4.5h-160zM237 643l-101 -570h108q118 0 194 40q156 79 156 300q0 155 -127 208q-57 22 -139 22h-91zM701 0l11 62l278 289q27 27 63.5 65
t42.5 44q-18 0 -76 -0.5t-79 -0.5h-150l12 66h406l-12 -67l-266 -274q-111 -111 -120 -119q18 0 74 0.5t79 0.5h169l-12 -66h-420zM1046 596h-86q-13 19 -41 61.5t-38 57.5h76l52 -68l74 68h81q-19 -18 -59.5 -60t-58.5 -59z" />
    <glyph glyph-name="uni01C6" unicode="&#x1c6;" horiz-adv-x="1116" 
d="M621 715l-127 -715h-75l14 70q-28 -39 -75.5 -62.5t-106.5 -23.5q-97 0 -157.5 62.5t-60.5 182.5q0 126 77.5 217.5t197.5 91.5q71 0 116.5 -27.5t64.5 -66.5l21 113l28 158h83zM316 472q-92 0 -144 -69.5t-52 -170.5q0 -85 40.5 -133.5t112.5 -48.5q95 0 145.5 74
t50.5 177q0 80 -39.5 125.5t-113.5 45.5zM605 0l11 62l278 289q27 27 63.5 65t42.5 44q-18 0 -76 -0.5t-79 -0.5h-150l12 66h406l-12 -67l-266 -274q-111 -111 -120 -119q18 0 74 0.5t79 0.5h169l-12 -66h-420zM950 596h-86q-13 19 -41 61.5t-38 57.5h76l52 -68l74 68h81
q-19 -18 -59.5 -60t-58.5 -59z" />
    <glyph glyph-name="uni01C7" unicode="&#x1c7;" horiz-adv-x="997" 
d="M165 715h85l-113 -641h322l-14 -74h-407zM525 173h81q-1 -4 -1 -11v-16q0 -93 85 -93q22 0 39 5.5t29.5 20t20 25.5t14.5 38.5t10 41.5t10 49l85 482h85l-91 -515q-20 -108 -64 -161t-140 -53q-165 0 -165 151q0 18 1 25q0 8 1 11z" />
    <glyph glyph-name="uni01C8" unicode="&#x1c8;" horiz-adv-x="761" 
d="M165 715h85l-113 -641h322l-14 -74h-407zM418 -194l11 65q15 -1 29 -1q34 0 52.5 15t26.5 60l102 580h83l-99 -566q-15 -85 -50.5 -121t-112.5 -36q-33 0 -42 4zM740 614h-85l18 101h85z" />
    <glyph glyph-name="uni01C9" unicode="&#x1c9;" horiz-adv-x="483" 
d="M27 0l127 715h83l-127 -715h-83zM140 -194l11 65q15 -1 29 -1q34 0 52.5 15t26.5 60l102 580h83l-99 -566q-15 -85 -50.5 -121t-112.5 -36q-33 0 -42 4zM462 614h-85l18 101h85z" />
    <glyph glyph-name="uni01CA" unicode="&#x1ca;" horiz-adv-x="1208" 
d="M587 0h-120l-162 428q-54 138 -71 195h-2q-1 -4 -46 -271l-63 -352h-85l127 715h126l165 -441q10 -27 33.5 -90.5t32.5 -90.5h2q4 18 15.5 95t18.5 114l73 413h83zM736 173h81q-1 -4 -1 -11v-16q0 -93 85 -93q22 0 39 5.5t29.5 20t20 25.5t14.5 38.5t10 41.5t10 49
l85 482h85l-91 -515q-20 -108 -64 -161t-140 -53q-165 0 -165 151q0 18 1 25q0 8 1 11z" />
    <glyph glyph-name="uni01CB" unicode="&#x1cb;" horiz-adv-x="972" 
d="M587 0h-120l-162 428q-54 138 -71 195h-2q-1 -4 -46 -271l-63 -352h-85l127 715h126l165 -441q10 -27 33.5 -90.5t32.5 -90.5h2q4 18 15.5 95t18.5 114l73 413h83zM629 -194l11 65q15 -1 29 -1q34 0 52.5 15t26.5 60l102 580h83l-99 -566q-15 -85 -50.5 -121t-112.5 -36
q-33 0 -42 4zM951 614h-85l18 101h85z" />
    <glyph glyph-name="uni01CC" unicode="&#x1cc;" horiz-adv-x="818" 
d="M23 0l79 446q12 75 13 79h82l-14 -75q72 89 175 89q78 0 119 -39.5t41 -108.5q0 -30 -11 -98l-52 -293h-83l52 295q9 56 9 79q0 46 -28 72t-81 26q-66 0 -107.5 -44.5t-54.5 -112.5l-56 -315h-83zM475 -194l11 65q15 -1 29 -1q34 0 52.5 15t26.5 60l102 580h83l-99 -566
q-15 -85 -50.5 -121t-112.5 -36q-33 0 -42 4zM797 614h-85l18 101h85z" />
    <glyph glyph-name="uni01F1" unicode="&#x1f1;" horiz-adv-x="1277" 
d="M38 0l127 715h122q94 0 143 -8q122 -20 188.5 -87t66.5 -203q0 -166 -89 -277q-35 -45 -79 -74t-98 -43t-103.5 -18.5t-117.5 -4.5h-160zM237 643l-101 -570h108q118 0 194 40q156 79 156 300q0 155 -127 208q-57 22 -139 22h-91zM690 0l13 71q35 43 113 133l308 356
q13 15 36 40.5t35 40.5h-389l14 74h489l-13 -71q-67 -81 -106 -126l-295 -341q-33 -35 -90 -103h395l-14 -74h-496z" />
    <glyph glyph-name="uni01F2" unicode="&#x1f2;" horiz-adv-x="1212" 
d="M38 0l127 715h122q94 0 143 -8q122 -20 188.5 -87t66.5 -203q0 -166 -89 -277q-35 -45 -79 -74t-98 -43t-103.5 -18.5t-117.5 -4.5h-160zM237 643l-101 -570h108q118 0 194 40q156 79 156 300q0 155 -127 208q-57 22 -139 22h-91zM701 0l11 62l278 289q27 27 63.5 65
t42.5 44q-18 0 -76 -0.5t-79 -0.5h-150l12 66h406l-12 -67l-266 -274q-111 -111 -120 -119q18 0 74 0.5t79 0.5h169l-12 -66h-420z" />
    <glyph glyph-name="uni01F3" unicode="&#x1f3;" horiz-adv-x="1116" 
d="M621 715l-127 -715h-75l14 70q-28 -39 -75.5 -62.5t-106.5 -23.5q-97 0 -157.5 62.5t-60.5 182.5q0 126 77.5 217.5t197.5 91.5q71 0 116.5 -27.5t64.5 -66.5l21 113l28 158h83zM316 472q-92 0 -144 -69.5t-52 -170.5q0 -85 40.5 -133.5t112.5 -48.5q95 0 145.5 74
t50.5 177q0 80 -39.5 125.5t-113.5 45.5zM605 0l11 62l278 289q27 27 63.5 65t42.5 44q-18 0 -76 -0.5t-79 -0.5h-150l12 66h406l-12 -67l-266 -274q-111 -111 -120 -119q18 0 74 0.5t79 0.5h169l-12 -66h-420z" />
    <glyph glyph-name="Aringacute" unicode="&#x1fa;" horiz-adv-x="686" 
d="M-53 0l419 715h108l161 -715h-83l-50 225h-336l-129 -225h-90zM410 649h-2q-19 -33 -55 -95.5t-63 -110t-46 -81.5l-40 -68h284l-17 77q-8 41 -29.5 133.5t-31.5 144.5zM438 748q-37 0 -62 25.5t-25 63.5q0 36 25.5 61.5t62.5 25.5t62.5 -25.5t25.5 -61.5
q0 -38 -25.5 -63.5t-63.5 -25.5zM392 837q0 -21 13 -35t33 -14t33.5 14t13.5 35q0 19 -13.5 33t-33.5 14t-33 -14t-13 -33zM624 1077l-141 -119h-88l114 119h115z" />
    <glyph glyph-name="aringacute" unicode="&#x1fb;" horiz-adv-x="548" 
d="M151 366h-79q15 77 74.5 125t154.5 48q86 0 135 -39t49 -120q0 -33 -21 -147l-23 -129q-9 -50 -9 -83q0 -14 1 -21h-76q0 46 7 81q-74 -91 -195 -91q-74 0 -117.5 33.5t-43.5 95.5q0 146 253 181q81 13 140 17q5 32 5 48q0 109 -118 109q-110 0 -137 -108zM387 233
q5 24 6 26l-46 -6q-39 -5 -64 -9t-57.5 -10.5t-52.5 -15t-39.5 -21t-28.5 -29.5t-9 -38q0 -82 102 -82q76 0 124.5 47.5t64.5 137.5zM332 574q-37 0 -62 25.5t-25 63.5q0 36 25.5 61.5t62.5 25.5t62.5 -25.5t25.5 -61.5q0 -38 -25.5 -63.5t-63.5 -25.5zM286 663
q0 -21 13 -35t33 -14t33.5 14t13.5 35q0 19 -13.5 33t-33.5 14t-33 -14t-13 -33zM521 902l-141 -119h-88l114 119h115z" />
    <glyph glyph-name="AEacute" unicode="&#x1fc;" horiz-adv-x="909" 
d="M930 715l-14 -74h-341l-35 -237h311l-13 -74h-310l-38 -256h334l-14 -74h-417l31 201h-249l-150 -201h-88l529 715h464zM434 274l27 172q6 40 11.5 72t11.5 65.5t10 54.5h-5l-106 -153l-154 -211h205zM837 875l-138 -114h-88l111 114h115z" />
    <glyph glyph-name="aeacute" unicode="&#x1fd;" horiz-adv-x="946" 
d="M903 249h-439v-15q0 -87 43.5 -135.5t121.5 -48.5q112 0 166 98h85q-71 -166 -260 -166q-159 0 -215 121q-75 -113 -228 -113q-81 0 -125 33t-44 96q0 146 253 181q81 13 140 17q5 32 5 48q0 109 -118 109q-110 0 -137 -108h-79q14 77 74 125t155 48q127 0 167 -83
q80 83 203 83q117 0 175.5 -67.5t58.5 -180.5q0 -12 -2 -42zM665 472q-74 0 -124.5 -44.5t-67.5 -116.5h352q-3 76 -44.5 118.5t-115.5 42.5zM387 233q5 24 6 26l-46 -6q-39 -5 -64 -9t-57.5 -10.5t-52.5 -15t-39.5 -21t-28.5 -29.5t-9 -38q0 -82 102 -82q76 0 124.5 47.5
t64.5 137.5zM667 715l-141 -119h-88l114 119h115z" />
    <glyph glyph-name="Oslashacute" unicode="&#x1fe;" horiz-adv-x="807" 
d="M444 729q97 0 173 -39l61 82l58 -42l-60 -80q97 -84 97 -235q0 -186 -107 -307.5t-288 -121.5q-97 0 -170 37l-67 -89l-58 39l67 89q-97 87 -97 242q0 114 44.5 209.5t135 155.5t211.5 60zM437 658q-71 0 -128 -29t-92 -77.5t-53.5 -108t-18.5 -125.5q0 -119 56 -187
l369 495q-56 32 -133 32zM682 411q0 102 -57 170l-370 -495q53 -30 129 -30q98 0 167 52t100 130.5t31 172.5zM616 875l-138 -114h-88l111 114h115z" />
    <glyph glyph-name="oslashacute" unicode="&#x1ff;" horiz-adv-x="619" 
d="M522 715l-141 -119h-88l114 119h115zM327 539q72 0 126 -27l57 77l57 -42l-57 -76q59 -62 59 -172q0 -140 -76.5 -228.5t-215.5 -88.5q-59 0 -116 21l-59 -79l-56 42l56 75q-69 64 -69 187q0 130 79 220.5t215 90.5zM119 234q0 -78 34 -124l254 340q-37 22 -87 22
q-94 0 -147.5 -68t-53.5 -170zM284 50q93 0 146 67t53 170q0 65 -26 112l-250 -334q33 -15 77 -15z" />
    <glyph glyph-name="uni0218" unicode="&#x218;" horiz-adv-x="603" 
d="M23 204h85q3 -69 50.5 -109t125.5 -40q79 0 125 34.5t46 96.5q0 29 -12.5 51.5t-40.5 40.5t-44.5 26.5t-52.5 23.5l-46 18q-86 35 -125.5 75t-39.5 109q0 90 67.5 144.5t178.5 54.5q112 0 173 -53t65 -146h-83q-11 132 -162 132q-71 0 -110 -30.5t-39 -82.5q0 -50 30 -77
t102 -58l66 -28q23 -10 30.5 -13.5t30 -15t32.5 -19.5t26.5 -23t23.5 -29.5t13.5 -35.5t6.5 -44q0 -100 -73 -159.5t-195 -59.5q-116 0 -184 56.5t-70 160.5zM127 -163l94 115h86l-75 -115h-105z" />
    <glyph glyph-name="uni0219" unicode="&#x219;" horiz-adv-x="497" 
d="M13 159h81q18 -112 131 -112q59 0 93 26t34 66q0 32 -24.5 49t-78.5 36l-54 19q-70 25 -103 56.5t-33 84.5q0 68 55 111.5t151 43.5q83 0 134.5 -40t53.5 -112h-78q-15 87 -120 87q-112 0 -112 -73q0 -34 22 -51.5t77 -38.5l55 -21q29 -10 48.5 -19t42.5 -25t35 -40
t12 -54q0 -76 -58.5 -123t-159.5 -47q-87 0 -142.5 45t-61.5 132zM76 -163l94 115h86l-75 -115h-105z" />
    <glyph glyph-name="uni021A" unicode="&#x21a;" horiz-adv-x="537" 
d="M171 0l113 641h-200l14 74h485l-14 -74h-200l-113 -641h-85zM83 -163l94 115h83l-75 -115h-102z" />
    <glyph glyph-name="uni021B" unicode="&#x21b;" horiz-adv-x="297" 
d="M122 463h-81l11 62h81l25 142h82l-25 -142h100l-11 -62h-100l-58 -329q-3 -18 -3 -28q0 -53 63 -53q8 0 16 1l-11 -62q-18 -2 -31 -2q-62 0 -92 22t-30 71q0 21 4 38zM18 -163l94 115h83l-75 -115h-102z" />
    <glyph glyph-name="uni021D" unicode="&#x21d;" horiz-adv-x="536" 
d="M-22 18h83q-4 -78 37 -115.5t106 -37.5q77 0 123 46.5t46 119.5q0 67 -42 101.5t-109 34.5h-26l12 65h5q79 0 133.5 34t54.5 106q0 45 -31.5 73t-80.5 28q-115 0 -142 -123h-83q18 89 78 140t157 51q89 0 138.5 -41.5t49.5 -109.5q0 -71 -43.5 -121t-113.5 -65
q59 -15 96 -59t37 -107q0 -110 -72.5 -175t-193.5 -65q-107 0 -165.5 57t-53.5 163z" />
    <glyph glyph-name="uni0226" unicode="&#x226;" horiz-adv-x="686" 
d="M-53 0l419 715h108l161 -715h-83l-50 225h-336l-129 -225h-90zM410 649h-2q-19 -33 -55 -95.5t-63 -110t-46 -81.5l-40 -68h284l-17 77q-8 41 -29.5 133.5t-31.5 144.5zM381 769l15 90h91l-15 -90h-91z" />
    <glyph glyph-name="uni0227" unicode="&#x227;" horiz-adv-x="548" 
d="M151 366h-79q15 77 74.5 125t154.5 48q86 0 135 -39t49 -120q0 -33 -21 -147l-23 -129q-9 -50 -9 -83q0 -14 1 -21h-76q0 46 7 81q-74 -91 -195 -91q-74 0 -117.5 33.5t-43.5 95.5q0 146 253 181q81 13 140 17q5 32 5 48q0 109 -118 109q-110 0 -137 -108zM387 233
q5 24 6 26l-46 -6q-39 -5 -64 -9t-57.5 -10.5t-52.5 -15t-39.5 -21t-28.5 -29.5t-9 -38q0 -82 102 -82q76 0 124.5 47.5t64.5 137.5zM274 609l15 90h91l-15 -90h-91z" />
    <glyph glyph-name="uni0232" unicode="&#x232;" horiz-adv-x="590" 
d="M194 0l49 275l-167 440h89q21 -64 70.5 -194t62.5 -168q248 343 261 362h95l-326 -440l-49 -275h-85zM248 785l9 53h244l-9 -53h-244z" />
    <glyph glyph-name="uni0233" unicode="&#x233;" horiz-adv-x="520" 
d="M140 -180h-83l105 180q-15 72 -110 525h88l79 -431q15 27 64 116t95.5 174.5t74.5 140.5h89q-46 -80 -125 -220t-147 -259t-130 -226zM186 628l9 53h244l-9 -53h-244z" />
    <glyph glyph-name="dotlessj" unicode="&#x237;" horiz-adv-x="238" 
d="M-105 -194l11 65q15 -1 29 -1q34 0 52.5 15t26.5 60l102 580h83l-99 -566q-15 -85 -50.5 -121t-112.5 -36q-33 0 -42 4z" />
    <glyph glyph-name="uni0254" unicode="&#x254;" horiz-adv-x="592" 
d="M20 173h83q30 -119 154 -119q94 0 147.5 68t53.5 170q0 87 -43 135.5t-121 48.5q-120 0 -173 -116h-84q71 184 263 184q111 0 177.5 -63.5t66.5 -182.5q0 -129 -78.5 -220t-210.5 -91q-98 0 -159 48t-76 138z" />
    <glyph glyph-name="uni0259" unicode="&#x259;" horiz-adv-x="604" 
d="M28 276h443v15q0 86 -44 135t-123 49q-114 0 -168 -98h-85q33 78 99.5 122t160.5 44q112 0 178 -63.5t66 -182.5q0 -129 -79 -220t-212 -91q-119 0 -178.5 67.5t-59.5 180.5q0 12 2 42zM268 53q75 0 126 44.5t68 116.5h-356q3 -76 45.5 -118.5t116.5 -42.5z" />
    <glyph glyph-name="uni025B" unicode="&#x25b;" horiz-adv-x="547" 
d="M526 320h-83q4 78 -37 115.5t-106 37.5q-77 0 -123 -46.5t-46 -119.5q0 -67 42 -101.5t109 -34.5h26l-12 -65h-5q-79 0 -133.5 -34t-54.5 -106q0 -45 31.5 -73t80.5 -28q115 0 142 123h83q-18 -89 -78 -140t-157 -51q-89 0 -138.5 41.5t-49.5 109.5q0 71 43.5 121
t113.5 65q-59 15 -96 59t-37 107q0 110 72.5 175t193.5 65q107 0 165.5 -57t53.5 -163z" />
    <glyph glyph-name="uni0272" unicode="&#x272;" horiz-adv-x="580" 
d="M162 315l-64 -356q-16 -85 -51 -121t-112 -36q-33 0 -42 4l11 65q15 -1 29 -1q34 0 51.5 14.5t27.5 60.5l90 501q12 75 13 79h82l-14 -75q72 89 175 89q78 0 119 -39.5t41 -108.5q0 -30 -11 -98l-52 -293h-83l52 295q9 56 9 79q0 46 -28 72t-81 26q-66 0 -107.5 -44.5
t-54.5 -112.5z" />
    <glyph glyph-name="uni0275" unicode="&#x275;" horiz-adv-x="619" 
d="M327 539q114 0 178 -62.5t64 -177.5q0 -140 -76.5 -228.5t-215.5 -88.5q-114 0 -179 63t-65 183q0 130 79 220.5t215 90.5zM284 50q79 0 130 50t66 132h-363q0 -85 44 -133.5t123 -48.5zM320 472q-78 0 -128.5 -47t-67.5 -123h360q-4 79 -46.5 124.5t-117.5 45.5z" />
    <glyph glyph-name="apostrophemod" unicode="&#x2bc;" horiz-adv-x="176" 
d="M228 715l-122 -232h-70l105 232h87z" />
    <glyph glyph-name="circumflex" unicode="&#x2c6;" horiz-adv-x="503" 
d="M221 715h85q14 -20 45 -66.5l35 -52.5h-76l-52 68l-74 -68h-81q19 18 59.5 60t58.5 59z" />
    <glyph glyph-name="caron" unicode="&#x2c7;" horiz-adv-x="502" 
d="M268 596h-86q-13 19 -41 61.5t-38 57.5h76l52 -68l74 68h81q-19 -18 -59.5 -60t-58.5 -59z" />
    <glyph glyph-name="breve" unicode="&#x2d8;" horiz-adv-x="465" 
d="M239 659q55 0 80 56h63q-37 -110 -150 -110q-116 0 -122 110h62q1 -21 17.5 -38.5t49.5 -17.5z" />
    <glyph glyph-name="dotaccent" unicode="&#x2d9;" horiz-adv-x="328" 
d="M112 609l15 90h91l-15 -90h-91z" />
    <glyph glyph-name="ring" unicode="&#x2da;" horiz-adv-x="405" 
d="M240 588q-37 0 -62 25.5t-25 63.5q0 36 25.5 61.5t62.5 25.5t62.5 -25.5t25.5 -61.5q0 -38 -25.5 -63.5t-63.5 -25.5zM194 677q0 -21 13 -35t33 -14t33.5 14t13.5 35q0 19 -13.5 33t-33.5 14t-33 -14t-13 -33z" />
    <glyph glyph-name="ogonek" unicode="&#x2db;" horiz-adv-x="331" 
d="M170 -48l94 -115h-102l-75 115h83z" />
    <glyph glyph-name="tilde" unicode="&#x2dc;" horiz-adv-x="470" 
d="M219 613h-58q7 102 84 102q27 0 72 -22q38 -18 54 -18q26 0 33 40h56q-3 -47 -24 -75t-57 -28q-22 0 -67 19q-46 21 -59 21q-29 0 -34 -39z" />
    <glyph glyph-name="hungarumlaut" unicode="&#x2dd;" horiz-adv-x="612" 
d="M355 715l-141 -119h-86l114 119h113zM541 715l-141 -119h-86l114 119h113z" />
    <glyph glyph-name="uni032C" unicode="&#x32c;" horiz-adv-x="503" 
d="M156 -48h85q14 -20 45 -66.5l35 -52.5h-76l-52 68l-74 -68h-81q19 18 59.5 60t58.5 59z" />
    <glyph glyph-name="uni0394" unicode="&#x394;" horiz-adv-x="678" 
d="M257 715h113l280 -715h-673zM314 651l-230 -585h460z" />
    <glyph glyph-name="uni03A9" unicode="&#x3a9;" horiz-adv-x="835" 
d="M412 729q163 0 255 -98.5t92 -237.5q0 -210 -169 -319v-2h24q6 0 26 0.5t32 0.5h89v-73h-276v72q184 116 184 315q0 118 -67 194.5t-190 76.5t-189.5 -76t-66.5 -195q0 -199 184 -315v-72h-276v73h89q13 0 32 -0.5t26 -0.5h24v2q-169 109 -169 319q0 139 91.5 237.5
t254.5 98.5z" />
    <glyph glyph-name="uni03BC" unicode="&#x3bc;" horiz-adv-x="578" 
d="M540 525l-82 -460q-6 -35 -10 -65h-82l13 72q-63 -84 -173 -84q-57 0 -96 30l-36 -198h-83l125 705h83l-52 -295q-9 -56 -9 -79q0 -47 26.5 -72.5t78.5 -25.5q65 0 105 44t53 113l56 315h83z" />
    <glyph glyph-name="pi" unicode="&#x3c0;" horiz-adv-x="633" 
d="M529 463l-58 -329q-3 -18 -3 -28q0 -53 63 -53q8 0 16 1l-11 -62q-18 -2 -31 -2q-62 0 -92 22t-30 71q0 21 4 38l60 342h-218l-82 -463h-81l82 463h-112l11 62h593l-11 -62h-100z" />
    <glyph glyph-name="Wgrave" unicode="&#x1e80;" horiz-adv-x="894" 
d="M937 715l-284 -715h-119l-15 391q-1 22 -10 261h-2q-18 -47 -61.5 -154.5t-54.5 -135.5l-148 -362h-121l-24 715h88l6 -440q0 -23 1.5 -101t-0.5 -102h3q20 58 80 202l182 441h124l19 -433q5 -138 5 -207h2q7 18 34 88t44 120l161 432h90zM489 761l-138 114h115l111 -114
h-88z" />
    <glyph glyph-name="wgrave" unicode="&#x1e81;" horiz-adv-x="813" 
d="M237 0h-109l-26 199q-8 65 -24 184.5t-19 141.5h84l30 -272q12 -95 18 -185h2q10 25 90 207l110 250h104l14 -238q11 -184 13 -218h2q19 43 59 127.5t48 102.5l108 226h88q-18 -36 -74.5 -151t-87.5 -175l-99 -199h-111l-14 203q-3 44 -7.5 131.5t-5.5 108.5h-3
q-7 -17 -46.5 -105.5t-60.5 -139.5zM417 596l-141 119h115l114 -119h-88z" />
    <glyph glyph-name="Wacute" unicode="&#x1e82;" horiz-adv-x="894" 
d="M937 715l-284 -715h-119l-15 391q-1 22 -10 261h-2q-18 -47 -61.5 -154.5t-54.5 -135.5l-148 -362h-121l-24 715h88l6 -440q0 -23 1.5 -101t-0.5 -102h3q20 58 80 202l182 441h124l19 -433q5 -138 5 -207h2q7 18 34 88t44 120l161 432h90zM690 875l-138 -114h-88l111 114
h115z" />
    <glyph glyph-name="wacute" unicode="&#x1e83;" horiz-adv-x="813" 
d="M237 0h-109l-26 199q-8 65 -24 184.5t-19 141.5h84l30 -272q12 -95 18 -185h2q10 25 90 207l110 250h104l14 -238q11 -184 13 -218h2q19 43 59 127.5t48 102.5l108 226h88q-18 -36 -74.5 -151t-87.5 -175l-99 -199h-111l-14 203q-3 44 -7.5 131.5t-5.5 108.5h-3
q-7 -17 -46.5 -105.5t-60.5 -139.5zM627 715l-141 -119h-88l114 119h115z" />
    <glyph glyph-name="Wdieresis" unicode="&#x1e84;" horiz-adv-x="894" 
d="M937 715l-284 -715h-119l-15 391q-1 22 -10 261h-2q-18 -47 -61.5 -154.5t-54.5 -135.5l-148 -362h-121l-24 715h88l6 -440q0 -23 1.5 -101t-0.5 -102h3q20 58 80 202l182 441h124l19 -433q5 -138 5 -207h2q7 18 34 88t44 120l161 432h90zM402 766l15 90h89l-15 -90h-89z
M562 766l15 90h88l-15 -90h-88z" />
    <glyph glyph-name="wdieresis" unicode="&#x1e85;" horiz-adv-x="813" 
d="M237 0h-109l-26 199q-8 65 -24 184.5t-19 141.5h84l30 -272q12 -95 18 -185h2q10 25 90 207l110 250h104l14 -238q11 -184 13 -218h2q19 43 59 127.5t48 102.5l108 226h88q-18 -36 -74.5 -151t-87.5 -175l-99 -199h-111l-14 203q-3 44 -7.5 131.5t-5.5 108.5h-3
q-7 -17 -46.5 -105.5t-60.5 -139.5zM331 609l15 90h89l-15 -90h-89zM491 609l15 90h88l-15 -90h-88z" />
    <glyph glyph-name="uni1EA0" unicode="&#x1ea0;" horiz-adv-x="686" 
d="M-53 0l419 715h108l161 -715h-83l-50 225h-336l-129 -225h-90zM410 649h-2q-19 -33 -55 -95.5t-63 -110t-46 -81.5l-40 -68h284l-17 77q-8 41 -29.5 133.5t-31.5 144.5zM230 -152l15 90h91l-15 -90h-91z" />
    <glyph glyph-name="uni1EA1" unicode="&#x1ea1;" horiz-adv-x="548" 
d="M151 366h-79q15 77 74.5 125t154.5 48q86 0 135 -39t49 -120q0 -33 -21 -147l-23 -129q-9 -50 -9 -83q0 -14 1 -21h-76q0 46 7 81q-74 -91 -195 -91q-74 0 -117.5 33.5t-43.5 95.5q0 146 253 181q81 13 140 17q5 32 5 48q0 109 -118 109q-110 0 -137 -108zM387 233
q5 24 6 26l-46 -6q-39 -5 -64 -9t-57.5 -10.5t-52.5 -15t-39.5 -21t-28.5 -29.5t-9 -38q0 -82 102 -82q76 0 124.5 47.5t64.5 137.5zM142 -152l15 90h91l-15 -90h-91z" />
    <glyph glyph-name="uni1EB8" unicode="&#x1eb8;" horiz-adv-x="588" 
d="M38 0l127 715h444l-14 -74h-359l-41 -237h335l-13 -74h-335l-45 -256h366l-14 -74h-451zM199 -152l15 90h91l-15 -90h-91z" />
    <glyph glyph-name="uni1EB9" unicode="&#x1eb9;" horiz-adv-x="603" 
d="M560 249h-443v-15q0 -86 44 -135t123 -49q114 0 168 98h85q-33 -78 -99.5 -122t-160.5 -44q-112 0 -178 63.5t-66 182.5q0 129 79 220t212 91q119 0 178.5 -67.5t59.5 -180.5q0 -12 -2 -42zM320 472q-75 0 -126 -44.5t-68 -116.5h356q-3 76 -45.5 118.5t-116.5 42.5z
M192 -152l15 90h91l-15 -90h-91z" />
    <glyph glyph-name="uni1ECA" unicode="&#x1eca;" horiz-adv-x="270" 
d="M38 0l127 715h85l-127 -715h-85zM12 -152l15 90h91l-15 -90h-91z" />
    <glyph glyph-name="uni1ECB" unicode="&#x1ecb;" horiz-adv-x="235" 
d="M215 614h-85l18 101h85zM116 525h81l-93 -525h-81zM-6 -152l15 90h91l-15 -90h-91z" />
    <glyph glyph-name="uni1ECC" unicode="&#x1ecc;" horiz-adv-x="808" 
d="M448 729q147 0 236 -84.5t89 -232.5q0 -186 -106.5 -306t-288.5 -120q-145 0 -235 84.5t-90 236.5q0 178 106.5 300t288.5 122zM439 658q-94 0 -162.5 -50t-100 -125.5t-31.5 -164.5q0 -125 61.5 -193.5t177.5 -68.5q98 0 167 52t100 130.5t31 172.5q0 113 -65.5 180
t-177.5 67zM301 -152l15 90h91l-15 -90h-91z" />
    <glyph glyph-name="uni1ECD" unicode="&#x1ecd;" horiz-adv-x="619" 
d="M284 50q93 0 146 67t53 170q0 86 -42 135.5t-121 49.5q-94 0 -147.5 -68t-53.5 -170q0 -87 43.5 -135.5t121.5 -48.5zM327 539q114 0 178 -62.5t64 -177.5q0 -140 -76.5 -228.5t-215.5 -88.5q-114 0 -179 63t-65 183q0 130 79 220.5t215 90.5zM207 -152l15 90h91l-15 -90
h-91z" />
    <glyph glyph-name="uni1EE4" unicode="&#x1ee4;" horiz-adv-x="689" 
d="M304 -15q-115 0 -174 52.5t-59 153.5q0 30 8 80l78 444h85l-77 -437q-6 -38 -6 -71q0 -69 36.5 -111t120.5 -42q51 0 86.5 16t57 49.5t33 68.5t21.5 90l77 437h85l-78 -446q-24 -140 -80 -204q-71 -80 -214 -80zM224 -152l15 90h91l-15 -90h-91z" />
    <glyph glyph-name="uni1EE5" unicode="&#x1ee5;" horiz-adv-x="572" 
d="M534 525l-79 -446q-13 -75 -13 -79h-82l14 75q-69 -89 -171 -89q-76 0 -116 39t-40 109q0 30 11 98l52 293h83l-52 -295q-9 -56 -9 -79q0 -47 26.5 -72.5t78.5 -25.5q65 0 105 44t53 113l56 315h83zM155 -152l15 90h91l-15 -90h-91z" />
    <glyph glyph-name="Ygrave" unicode="&#x1ef2;" horiz-adv-x="590" 
d="M194 0l49 275l-167 440h89q21 -64 70.5 -194t62.5 -168q248 343 261 362h95l-326 -440l-49 -275h-85zM335 761l-138 114h115l111 -114h-88z" />
    <glyph glyph-name="ygrave" unicode="&#x1ef3;" horiz-adv-x="520" 
d="M140 -180h-83l105 180q-15 72 -110 525h88l79 -431q15 27 64 116t95.5 174.5t74.5 140.5h89q-46 -80 -125 -220t-147 -259t-130 -226zM274 596l-141 119h115l114 -119h-88z" />
    <glyph glyph-name="enspace" unicode="&#x2002;" horiz-adv-x="500" 
 />
    <glyph glyph-name="emspace" unicode="&#x2003;" horiz-adv-x="1000" 
 />
    <glyph glyph-name="threeperemspace" unicode="&#x2004;" horiz-adv-x="0" 
 />
    <glyph glyph-name="fourperemspace" unicode="&#x2005;" horiz-adv-x="250" 
 />
    <glyph glyph-name="thinspace" unicode="&#x2009;" horiz-adv-x="133" 
 />
    <glyph glyph-name="hairspace" unicode="&#x200a;" horiz-adv-x="75" 
 />
    <glyph glyph-name="endash" unicode="&#x2013;" horiz-adv-x="612" 
d="M60 267l13 71h476l-13 -71h-476z" />
    <glyph glyph-name="emdash" unicode="&#x2014;" horiz-adv-x="977" 
d="M60 267l13 71h841l-13 -71h-841z" />
    <glyph glyph-name="quoteleft" unicode="&#x2018;" horiz-adv-x="244" 
d="M82 483l122 232h70l-105 -232h-87z" />
    <glyph glyph-name="quoteright" unicode="&#x2019;" horiz-adv-x="241" 
d="M276 715l-122 -232h-70l105 232h87z" />
    <glyph glyph-name="quotesinglbase" unicode="&#x201a;" horiz-adv-x="242" 
d="M144 111l-122 -232h-70l105 232h87z" />
    <glyph glyph-name="quotedblleft" unicode="&#x201c;" horiz-adv-x="411" 
d="M82 483l122 232h70l-105 -232h-87zM249 483l122 232h70l-105 -232h-87z" />
    <glyph glyph-name="quotedblright" unicode="&#x201d;" horiz-adv-x="408" 
d="M443 715l-122 -232h-70l105 232h87zM276 715l-122 -232h-70l105 232h87z" />
    <glyph glyph-name="quotedblbase" unicode="&#x201e;" horiz-adv-x="409" 
d="M311 111l-122 -232h-70l105 232h87zM144 111l-122 -232h-70l105 232h87z" />
    <glyph glyph-name="dagger" unicode="&#x2020;" horiz-adv-x="514" 
d="M148 -68l92 517h-180l14 81h180l33 185h83l-33 -185h180l-14 -81h-180l-92 -517h-83z" />
    <glyph glyph-name="daggerdbl" unicode="&#x2021;" horiz-adv-x="543" 
d="M163 -68l48 267h-180l14 81h180l30 169h-180l14 81h180l33 185h83l-33 -185h180l-14 -81h-180l-30 -169h180l-14 -81h-180l-48 -267h-83z" />
    <glyph glyph-name="bullet" unicode="&#x2022;" horiz-adv-x="411" 
d="M209 206q-54 0 -91.5 37.5t-37.5 90.5t37.5 90t91.5 37q53 0 90.5 -37t37.5 -90t-37.5 -90.5t-90.5 -37.5z" />
    <glyph glyph-name="ellipsis" unicode="&#x2026;" horiz-adv-x="891" 
d="M346 0l19 111h88l-19 -111h-88zM14 0l19 111h88l-19 -111h-88zM683 0l19 111h88l-19 -111h-88z" />
    <glyph glyph-name="perthousand" unicode="&#x2030;" horiz-adv-x="1309" 
d="M222 386q36 0 61.5 21.5t36 55.5t14.5 60.5t4 51.5q0 96 -79 96q-36 0 -61.5 -21.5t-36 -55.5t-14.5 -60.5t-4 -51.5q0 -96 79 -96zM225 0l402 715h65l-402 -715h-65zM213 330q-69 0 -105 38t-36 107q0 28 4 56.5t16.5 65t32.5 64t57 46.5t85 19q69 0 105 -38t36 -107
q0 -28 -4 -56.5t-16.5 -65t-32.5 -64t-57 -46.5t-85 -19zM653 42q36 0 61.5 21.5t36 55.5t14.5 60.5t4 51.5q0 96 -79 96q-36 0 -61.5 -21.5t-36 -55.5t-14.5 -60.5t-4 -51.5q0 -96 79 -96zM644 -14q-69 0 -105 38t-36 107q0 28 4 56.5t16.5 65t32.5 64t57 46.5t85 19
q69 0 105 -38t36 -107q0 -28 -4 -56.5t-16.5 -65t-32.5 -64t-57 -46.5t-85 -19zM1069 42q36 0 61.5 21.5t36 55.5t14.5 60.5t4 51.5q0 96 -79 96q-36 0 -61.5 -21.5t-36 -55.5t-14.5 -60.5t-4 -51.5q0 -96 79 -96zM1060 -14q-69 0 -105 38t-36 107q0 28 4 56.5t16.5 65
t32.5 64t57 46.5t85 19q69 0 105 -38t36 -107q0 -28 -4 -56.5t-16.5 -65t-32.5 -64t-57 -46.5t-85 -19z" />
    <glyph glyph-name="guilsinglleft" unicode="&#x2039;" horiz-adv-x="295" 
d="M268 473l-130 -181l61 -194h-73l-77 194l137 181h82z" />
    <glyph glyph-name="guilsinglright" unicode="&#x203a;" horiz-adv-x="294" 
d="M19 98l130 181l-61 194h73l77 -194l-137 -181h-82z" />
    <glyph glyph-name="fraction" unicode="&#x2044;" horiz-adv-x="331" 
d="M-62 -105l375 820h80l-375 -820h-80z" />
    <glyph glyph-name="Euro" unicode="&#x20ac;" 
d="M25 396l31 66h49q74 267 276 267q204 0 199 -230h-80q3 162 -122 162q-127 0 -184 -199h259l-31 -66h-245q-9 -38 -15 -80h229l-30 -66h-206q-1 -17 -1 -48q0 -150 121 -150q65 0 104 43t67 118h83q-76 -227 -257 -227q-203 0 -203 225q0 24 1 39h-74l29 66h51l6 39l8 41
h-65z" />
    <glyph glyph-name="trademark" unicode="&#x2122;" horiz-adv-x="890" 
d="M640 300h-65q-8 55 -20.5 182t-20.5 182h-3q-4 -33 -19.5 -115.5t-19.5 -110.5l-24 -138h-59l73 415h101q24 -167 37 -352q51 125 159 352h103l-73 -415h-60l33 190q6 30 17.5 96t14.5 80h-3q-94 -211 -171 -366zM398 715l-9 -53h-103l-64 -362h-62l64 362h-105l9 53h270
z" />
    <glyph glyph-name="Omega" unicode="&#x2126;" horiz-adv-x="835" 
d="M412 729q163 0 255 -98.5t92 -237.5q0 -210 -169 -319v-2h24q6 0 26 0.5t32 0.5h89v-73h-276v72q184 116 184 315q0 118 -67 194.5t-190 76.5t-189.5 -76t-66.5 -195q0 -199 184 -315v-72h-276v73h89q13 0 32 -0.5t26 -0.5h24v2q-169 109 -169 319q0 139 91.5 237.5
t254.5 98.5z" />
    <glyph glyph-name="onethird" unicode="&#x2153;" horiz-adv-x="797" 
d="M602 89h-221l9 49q141 159 257 298h77l-51 -294h59l-10 -53h-59l-16 -89h-61zM612 142l16 95q2 8 12.5 64t13.5 68h-1l-28 -32l-57 -67l-54 -64q-7 -8 -19.5 -23.5t-18.5 -21.5q-2 -2 -7.5 -9t-8.5 -10h152zM131 0l402 715h65l-402 -715h-65zM194 608h-107l6 37
q60 1 91 17t46 53h47l-76 -431h-64z" />
    <glyph glyph-name="twothirds" unicode="&#x2154;" horiz-adv-x="909" 
d="M335 284h-288l9 49q26 17 51 36q88 65 105 79q111 82 111 155q0 32 -18.5 49t-51.5 17q-76 0 -90 -96h-64q9 67 51.5 109t112.5 42q62 0 95 -30t33 -80q0 -35 -13.5 -66t-45 -62.5t-52 -48.5t-65.5 -51q-15 -11 -42 -27.5t-32 -19.5h203zM235 0l402 715h65l-402 -715h-65
zM536 130h61q-3 -49 20.5 -71t62.5 -22q44 0 71 27t27 70q0 40 -24.5 59.5t-63.5 19.5h-20l12 47q46 0 79.5 20.5t33.5 61.5q0 27 -17.5 41.5t-48.5 14.5q-65 0 -80 -73h-60q8 56 46.5 89.5t96.5 33.5q61 0 93 -26t32 -70q0 -39 -24 -69.5t-60 -42.5q67 -27 67 -102
q0 -69 -44.5 -108.5t-119.5 -39.5q-68 0 -106 36t-34 104z" />
    <glyph glyph-name="oneeighth" unicode="&#x215b;" horiz-adv-x="818" 
d="M433 111q0 45 26 78.5t74 49.5q-44 40 -44 84q0 56 38.5 91t106.5 35q59 0 94.5 -29t35.5 -73q0 -80 -78 -113q59 -34 59 -97q0 -65 -46 -104.5t-121 -39.5q-63 0 -104 31t-41 87zM630 397q-36 0 -58.5 -20t-22.5 -56q0 -30 18.5 -47.5t51.5 -17.5q36 0 59.5 22t23.5 57
q0 29 -19.5 45.5t-52.5 16.5zM599 211q-43 0 -72.5 -25t-29.5 -67q0 -36 23 -56t62 -20q47 0 74 25t27 70q0 34 -23 53.5t-61 19.5zM131 0l402 715h65l-402 -715h-65zM194 608h-107l6 37q60 1 91 17t46 53h47l-76 -431h-64z" />
    <glyph glyph-name="threeeighths" unicode="&#x215c;" horiz-adv-x="904" 
d="M523 111q0 45 26 78.5t74 49.5q-44 40 -44 84q0 56 38.5 91t106.5 35q59 0 94.5 -29t35.5 -73q0 -80 -78 -113q59 -34 59 -97q0 -65 -46 -104.5t-121 -39.5q-63 0 -104 31t-41 87zM720 397q-36 0 -58.5 -20t-22.5 -56q0 -30 18.5 -47.5t51.5 -17.5q36 0 59.5 22t23.5 57
q0 29 -19.5 45.5t-52.5 16.5zM689 211q-43 0 -72.5 -25t-29.5 -67q0 -36 23 -56t62 -20q47 0 74 25t27 70q0 34 -23 53.5t-61 19.5zM56 415h58q-3 -46 20 -68t60 -22q44 0 69.5 25.5t25.5 68.5q0 38 -23 57t-62 19h-20l12 47q47 0 78.5 19t31.5 60q0 26 -17 40.5t-45 14.5
q-65 0 -81 -72h-57q8 55 45.5 87.5t94.5 32.5q58 0 88.5 -25t30.5 -68q0 -39 -22.5 -68t-58.5 -41q30 -12 48.5 -38.5t18.5 -60.5q0 -66 -44 -105.5t-117 -39.5q-66 0 -102 35.5t-32 101.5zM221 0l402 715h65l-402 -715h-65z" />
    <glyph glyph-name="fiveeighths" unicode="&#x215d;" horiz-adv-x="901" 
d="M86 484l67 231h227l-8 -49h-181l-38 -125q31 24 79 24q54 0 87.5 -33.5t33.5 -91.5q0 -72 -42 -119t-117 -47q-61 0 -98.5 33.5t-42.5 98.5h58q2 -37 24.5 -60t62.5 -23q45 0 71 29.5t26 78.5q0 41 -23 63t-60 22q-49 0 -77 -41zM518 111q0 45 26 78.5t74 49.5
q-44 40 -44 84q0 56 38.5 91t106.5 35q59 0 94.5 -29t35.5 -73q0 -80 -78 -113q59 -34 59 -97q0 -65 -46 -104.5t-121 -39.5q-63 0 -104 31t-41 87zM715 397q-36 0 -58.5 -20t-22.5 -56q0 -30 18.5 -47.5t51.5 -17.5q36 0 59.5 22t23.5 57q0 29 -19.5 45.5t-52.5 16.5z
M684 211q-43 0 -72.5 -25t-29.5 -67q0 -36 23 -56t62 -20q47 0 74 25t27 70q0 34 -23 53.5t-61 19.5zM216 0l402 715h65l-402 -715h-65z" />
    <glyph glyph-name="seveneighths" unicode="&#x215e;" horiz-adv-x="818" 
d="M145 283h-76q105 184 241 374h-213l11 58h280l-10 -54q-129 -192 -233 -378zM435 111q0 45 26 78.5t74 49.5q-44 40 -44 84q0 56 38.5 91t106.5 35q59 0 94.5 -29t35.5 -73q0 -80 -78 -113q59 -34 59 -97q0 -65 -46 -104.5t-121 -39.5q-63 0 -104 31t-41 87zM632 397
q-36 0 -58.5 -20t-22.5 -56q0 -30 18.5 -47.5t51.5 -17.5q36 0 59.5 22t23.5 57q0 29 -19.5 45.5t-52.5 16.5zM601 211q-43 0 -72.5 -25t-29.5 -67q0 -36 23 -56t62 -20q47 0 74 25t27 70q0 34 -23 53.5t-61 19.5zM133 0l402 715h65l-402 -715h-65z" />
    <glyph glyph-name="arrowleft" unicode="&#x2190;" horiz-adv-x="820" 
d="M783 287h-621q10 -10 68.5 -69.5t94.5 -95.5q111 -114 119 -122h-112q-31 32 -147.5 155t-161.5 170q49 49 172 180t137 145h112l-119 -123q-24 -24 -61.5 -62.5t-63 -64t-38.5 -37.5h621v-76z" />
    <glyph glyph-name="arrowup" unicode="&#x2191;" horiz-adv-x="720" 
d="M334 0v615l-164 -163q-18 -18 -58.5 -57.5t-62.5 -61.5v107q28 27 152.5 144t172.5 165q50 -51 185 -177.5t140 -131.5v-107q-10 9 -55 53t-67 66t-61.5 60.5t-64.5 64t-37 38.5v-615h-80z" />
    <glyph glyph-name="arrowright" unicode="&#x2192;" horiz-adv-x="820" 
d="M664 287h-621v76h621q-13 12 -38.5 37.5t-63 64t-61.5 62.5l-119 123h112q5 -5 131.5 -140t177.5 -185q-48 -48 -165 -172.5t-144 -152.5h-112q8 8 119 122q36 36 94.5 95.5t68.5 69.5z" />
    <glyph glyph-name="arrowdown" unicode="&#x2193;" horiz-adv-x="720" 
d="M323 100v615h80v-615l163 163q22 22 67 66t55 53v-107q-14 -14 -145 -137t-180 -172q-47 45 -170 161.5t-155 147.5v107q22 -22 62.5 -61.5t58.5 -57.5z" />
    <glyph glyph-name="uni2196" unicode="&#x2196;" horiz-adv-x="750" 
d="M620 -5l-440 441q0 -14 -0.5 -97t-0.5 -134q-1 -53 -1 -171l-73 71q7 243 7 454q243 0 451 6l72 -70q-61 -1 -170 -1h-231l442 -442z" />
    <glyph glyph-name="uni2197" unicode="&#x2197;" horiz-adv-x="750" 
d="M548 436l-440 -441l-56 57l442 442h-231q-109 0 -170 1l72 70q208 -6 451 -6q0 -211 7 -454l-73 -71q0 118 -1 171q0 51 -0.5 134t-0.5 97z" />
    <glyph glyph-name="uni2198" unicode="&#x2198;" horiz-adv-x="750" 
d="M119 564l440 -441q0 14 0.5 96.5t0.5 134.5q1 53 1 171l73 -71q-7 -243 -7 -454q-347 0 -451 -3l-72 70h170q51 0 134 -1t97 -1l-442 442z" />
    <glyph glyph-name="uni2199" unicode="&#x2199;" horiz-adv-x="750" 
d="M191 123l440 441l56 -57l-442 -442q14 0 97 1t134 1h170l-72 -70q-104 3 -451 3q0 211 -7 454l73 71q0 -118 1 -171q0 -52 0.5 -134.5t0.5 -96.5z" />
    <glyph glyph-name="partialdiff" unicode="&#x2202;" horiz-adv-x="620" 
d="M216 715h140q96 -57 155 -155.5t59 -239.5q0 -153 -74.5 -245.5t-219.5 -92.5q-117 0 -180 65.5t-63 185.5q0 128 79.5 217t207.5 89q84 0 130 -38l4 3q-29 59 -93 114.5t-145 96.5zM284 50q93 0 146 67t53 170q0 86 -42 135.5t-121 49.5q-94 0 -147.5 -68t-53.5 -170
q0 -87 43.5 -135.5t121.5 -48.5z" />
    <glyph glyph-name="Delta" unicode="&#x2206;" horiz-adv-x="763" 
d="M292 715h113l280 -715h-673zM349 651l-230 -585h460z" />
    <glyph glyph-name="product" unicode="&#x220f;" horiz-adv-x="878" 
d="M733 642v-755h-85v755h-348v-755h-85v755h-116v73h750v-73h-116z" />
    <glyph glyph-name="summation" unicode="&#x2211;" horiz-adv-x="751" 
d="M96 -49l276 352l-272 343v69h533v-72h-427l265 -336l-275 -345h448v-75h-548v64z" />
    <glyph glyph-name="minus" unicode="&#x2212;" 
d="M60 289v65h442v-65h-442z" />
    <glyph glyph-name="uni2219" unicode="&#x2219;" horiz-adv-x="222" 
d="M59 261l19 111h88l-19 -111h-88z" />
    <glyph glyph-name="radical" unicode="&#x221a;" 
d="M31 460v65h149l79 -243q13 -40 35.5 -107t32.5 -97h2q12 47 61 216l123 421h81l-220 -715h-97q-138 390 -160 460h-86z" />
    <glyph glyph-name="infinity" unicode="&#x221e;" horiz-adv-x="849" 
d="M219 502q56 0 102 -30.5t107 -91.5q40 40 65.5 62t65.5 41t79 19q74 0 117.5 -45.5t43.5 -121.5q0 -73 -40.5 -120.5t-119.5 -47.5q-54 0 -101 29t-110 92q-63 -63 -110 -92t-101 -29q-79 0 -119.5 47.5t-40.5 120.5q0 76 44 121.5t118 45.5zM222 232q41 0 76 22.5
t93 78.5q-3 2 -21 20t-23.5 22.5t-22 18.5t-25.5 19t-23.5 12.5t-28 10.5t-27.5 3q-44 0 -69 -28.5t-25 -74.5q0 -49 24.5 -76.5t71.5 -27.5zM634 232q47 0 71.5 27.5t24.5 76.5q0 46 -25 74.5t-69 28.5q-14 0 -27.5 -3t-28 -10.5t-24 -13t-25 -18.5t-22 -19t-23.5 -22
t-21 -20q55 -54 91.5 -77.5t77.5 -23.5z" />
    <glyph glyph-name="integral" unicode="&#x222b;" 
d="M347 496l-61 -426q-22 -146 -64 -199.5t-139 -53.5q-27 0 -42 4l9 65q14 -2 28 -2q64 0 87.5 38.5t36.5 136.5l64 432q19 124 61.5 177.5t138.5 53.5q20 0 38 -3l-9 -67q-10 2 -32 2q-56 0 -80.5 -38.5t-35.5 -119.5z" />
    <glyph glyph-name="approxequal" unicode="&#x2248;" 
d="M481 491l54 -36q-61 -105 -146 -105q-41 0 -107 31l-42 20q-50 24 -79 24q-57 0 -85 -68l-52 38q59 100 141 100q43 0 100 -27l46 -22q52 -25 77 -25q55 0 93 70zM479 241l54 -36q-61 -105 -146 -105q-41 0 -107 31l-42 20q-50 24 -79 24q-57 0 -85 -68l-52 38
q59 100 141 100q43 0 100 -27l46 -22q52 -25 77 -25q55 0 93 70z" />
    <glyph glyph-name="notequal" unicode="&#x2260;" 
d="M58 382v65h242l55 113h75l-55 -113h125v-65h-156l-56 -116h212v-65h-244l-58 -121h-75l58 121h-123v65h155l56 116h-211z" />
    <glyph glyph-name="lessequal" unicode="&#x2264;" 
d="M64 317v65q59 30 191.5 95t204.5 103v-76q-35 -17 -113.5 -53t-135 -62.5t-70.5 -33.5v-3q34 -17 319 -152v-78q-71 38 -203 100.5t-193 94.5zM64 0v65h396v-65h-396z" />
    <glyph glyph-name="greaterequal" unicode="&#x2265;" 
d="M475 382v-65q-61 -32 -193 -94.5t-203 -100.5v78q285 135 319 152v3q-14 7 -70.5 33.5t-135 62.5t-113.5 53v76q72 -38 204.5 -103t191.5 -95zM475 65v-65h-396v65h396z" />
    <glyph glyph-name="dotmath" unicode="&#x22c5;" horiz-adv-x="222" 
d="M59 261l19 111h88l-19 -111h-88z" />
    <glyph glyph-name="lozenge" unicode="&#x25ca;" 
d="M331 0h-84l-230 356l230 359h84l229 -359zM289 65l184 291l-184 295l-185 -295z" />
    <glyph glyph-name="commaaccent" unicode="&#xf6c3;" horiz-adv-x="369" 
d="M107 -163l94 115h83l-75 -115h-102z" />
    <glyph glyph-name="uniF8FF" unicode="&#xf8ff;" horiz-adv-x="357" 
d="M179 206q-54 0 -91.5 37.5t-37.5 90.5t37.5 90t91.5 37q53 0 90.5 -37t37.5 -90t-37.5 -90.5t-90.5 -37.5z" />
    <glyph glyph-name="acute.caps" horiz-adv-x="427" 
d="M373 875l-138 -114h-88l111 114h115z" />
    <glyph glyph-name="grave.caps" horiz-adv-x="512" 
d="M295 761l-138 114h115l111 -114h-88z" />
    <glyph glyph-name="circumflex.caps" horiz-adv-x="503" 
d="M227 876h84q13 -19 43 -60t40 -55h-76l-54 64l-72 -64h-81q22 21 63 62.5t53 52.5z" />
    <glyph glyph-name="caron.caps" horiz-adv-x="502" 
d="M278 761h-85q-11 18 -40.5 57.5t-41.5 57.5h76l54 -64l72 64h81q-22 -21 -63 -62.5t-53 -52.5z" />
    <glyph glyph-name="tilde.caps" horiz-adv-x="470" 
d="M155 765h-58q7 102 84 102q27 0 72 -22q38 -18 54 -18q26 0 33 40h56q-3 -47 -24 -75t-57 -28q-22 0 -67 19q-46 21 -59 21q-29 0 -34 -39z" />
    <glyph glyph-name="macron.caps" horiz-adv-x="428" 
d="M118 785l9 53h244l-9 -53h-244z" />
    <glyph glyph-name="breve.caps" horiz-adv-x="465" 
d="M245 823q55 0 80 56h63q-37 -110 -150 -110q-116 0 -122 110h62q1 -21 17.5 -38.5t49.5 -17.5z" />
    <glyph glyph-name="dotaccent.caps" horiz-adv-x="328" 
d="M111 769l15 90h91l-15 -90h-91z" />
    <glyph glyph-name="ring.caps" horiz-adv-x="405" 
d="M246 748q-37 0 -62 25.5t-25 63.5q0 36 25.5 61.5t62.5 25.5t62.5 -25.5t25.5 -61.5q0 -38 -25.5 -63.5t-63.5 -25.5zM200 837q0 -21 13 -35t33 -14t33.5 14t13.5 35q0 19 -13.5 33t-33.5 14t-33 -14t-13 -33z" />
    <glyph glyph-name="cedilla.caps" horiz-adv-x="369" 
d="M104 -163l94 115h86l-75 -115h-105z" />
    <glyph glyph-name="ogonek.caps" horiz-adv-x="331" 
d="M173 -48l94 -115h-105l-75 115h86z" />
    <glyph glyph-name="hungarumlaut.caps" horiz-adv-x="612" 
d="M378 875l-138 -114h-86l111 114h113zM564 875l-138 -114h-86l111 114h113z" />
    <glyph glyph-name="dieresis.caps" horiz-adv-x="491" 
d="M129 766l15 90h89l-15 -90h-89zM289 766l15 90h88l-15 -90h-88z" />
    <glyph glyph-name="horn" horiz-adv-x="264" 
d="M216 715l-108 -191h-69l88 191h89z" />
    <glyph glyph-name="zero.plf" horiz-adv-x="607" 
d="M369 729q203 0 203 -231q0 -66 -13 -140q-12 -63 -26.5 -112t-39 -100t-55.5 -84t-77.5 -54.5t-104.5 -21.5q-203 0 -203 225q0 64 13 144q11 62 24.5 112t38 100.5t56 84.5t78.5 55.5t106 21.5zM362 661q-61 0 -105 -44q-53 -53 -85.5 -181.5t-32.5 -233.5
q0 -150 120 -150q85 0 139 91q39 65 62.5 175.5t23.5 197.5q0 145 -122 145z" />
    <glyph glyph-name="one.plf" horiz-adv-x="385" 
d="M143 0l97 547h-172l10 55q95 2 142.5 27.5t67.5 85.5h66l-127 -715h-84z" />
    <glyph glyph-name="two.plf" horiz-adv-x="573" 
d="M468 0h-469l13 72q27 19 81 61q3 2 157 120q6 4 17 13q37 28 56.5 43.5t51 46t48.5 55t30.5 58.5t13.5 68q0 58 -33 90.5t-94 32.5q-138 0 -167 -170h-85q15 108 82.5 173.5t177.5 65.5q103 0 156.5 -47.5t53.5 -129.5q0 -58 -23 -110.5t-70 -101.5t-88 -83t-108 -82
q-8 -6 -25.5 -17.5t-51 -34t-72.5 -49.5h361z" />
    <glyph glyph-name="three.plf" horiz-adv-x="575" 
d="M23 206h83q-4 -78 37 -115.5t106 -37.5q77 0 123 46.5t46 119.5q0 67 -42 101.5t-109 34.5h-26l12 65h5q79 0 133.5 34t54.5 106q0 45 -31.5 73t-80.5 28q-115 0 -142 -123h-83q18 89 78 140t157 51q89 0 138.5 -41.5t49.5 -109.5q0 -71 -43.5 -121t-113.5 -65
q59 -15 96 -59t37 -107q0 -109 -73.5 -174.5t-192.5 -65.5q-107 0 -165.5 57t-53.5 163z" />
    <glyph glyph-name="four.plf" horiz-adv-x="589" 
d="M541 230l-12 -66h-105l-29 -164h-81l29 164h-341l10 62l286 326l141 163h83l-86 -485h105zM426 611h-2q-22 -29 -149 -181l-59 -69q-33 -36 -74 -84q-19 -24 -41 -47h254l22 124q30 179 49 257z" />
    <glyph glyph-name="five.plf" horiz-adv-x="567" 
d="M72 337l110 378h371l-13 -74h-305l-71 -235q53 55 146 55q90 0 145.5 -53.5t55.5 -146.5q0 -119 -70.5 -197.5t-192.5 -78.5q-102 0 -163.5 53t-69.5 157h85q4 -63 44 -102.5t111 -39.5q78 0 124 52t46 138q0 73 -41.5 112t-106.5 39q-83 0 -132 -70z" />
    <glyph glyph-name="six.plf" horiz-adv-x="599" 
d="M572 531h-86q-5 64 -37 97.5t-86 33.5q-155 0 -208 -284q21 32 67 57t107 25q94 0 150.5 -55t56.5 -152q0 -117 -71.5 -192t-188.5 -75q-222 0 -222 241q0 104 30 224.5t94 193.5q73 84 190 84q102 0 151 -56t53 -142zM306 393q-80 0 -124 -54t-44 -132q0 -73 39 -114
t105 -41q77 0 122.5 56t45.5 137q0 67 -38.5 107.5t-105.5 40.5z" />
    <glyph glyph-name="seven.plf" horiz-adv-x="487" 
d="M136 0h-101q31 54 65.5 110.5t83 132.5t68.5 108q87 137 196 292v1q-19 -1 -55 -1h-307l13 72h443l-12 -66l-33 -53q-235 -369 -361 -596z" />
    <glyph glyph-name="eight.plf" horiz-adv-x="592" 
d="M198 387q-76 57 -76 143q0 88 62.5 143.5t170.5 55.5q91 0 145 -46t54 -116q0 -67 -37 -115.5t-98 -69.5q105 -54 105 -163q0 -106 -72.5 -169.5t-193.5 -63.5q-102 0 -165.5 49t-63.5 139q0 75 44 131t125 82zM344 662q-64 0 -104 -34.5t-40 -96.5q0 -54 33 -84.5
t93 -30.5q64 0 105 38t41 99q0 50 -35 79.5t-93 29.5zM292 350q-74 0 -126 -45t-52 -117q0 -64 41 -100t110 -36q81 0 128.5 45.5t47.5 122.5q0 60 -40.5 95t-108.5 35z" />
    <glyph glyph-name="nine.plf" horiz-adv-x="599" 
d="M45 184h86q5 -64 37 -97.5t86 -33.5q155 0 208 284q-21 -32 -67 -57t-107 -25q-94 0 -150.5 55t-56.5 152q0 117 71.5 192t188.5 75q222 0 222 -241q0 -105 -29.5 -226t-94.5 -192q-73 -84 -190 -84q-101 0 -151.5 56.5t-52.5 141.5zM311 322q80 0 124 54t44 132
q0 73 -39 114t-105 41q-77 0 -122.5 -56t-45.5 -137q0 -67 38.5 -107.5t105.5 -40.5z" />
    <glyph glyph-name="Gtilde" horiz-adv-x="791" 
d="M623 109q-92 -123 -262 -123q-130 0 -219 84.5t-89 233.5q0 114 44.5 209.5t135 155.5t211.5 60q124 0 204.5 -59.5t104.5 -169.5h-89q-49 158 -229 158q-92 0 -160 -50t-99 -124.5t-31 -162.5q0 -126 61.5 -195.5t176.5 -69.5q108 0 178.5 63t97.5 175h-284l13 74h358
l-65 -368h-79l10 54q5 22 11 55zM380 765h-58q7 102 84 102q27 0 72 -22q38 -18 54 -18q26 0 33 40h56q-3 -47 -24 -75t-57 -28q-22 0 -67 19q-46 21 -59 21q-30 0 -34 -39z" />
    <glyph glyph-name="gtilde" horiz-adv-x="630" 
d="M592 525l-76 -430q-25 -141 -93 -212.5t-196 -71.5q-95 0 -153.5 50.5t-64.5 121.5h85q7 -42 43 -73.5t103 -31.5q82 0 127 53t69 157q0 3 1 6l2 6t1 4q-67 -80 -184 -80q-95 0 -156.5 57t-61.5 171q0 123 76.5 204.5t193.5 81.5q73 0 121.5 -28.5t66.5 -66.5l14 82h82z
M316 472q-89 0 -140 -61t-51 -153q0 -79 43 -123.5t117 -44.5q91 0 140 65.5t49 158.5q0 71 -42 114.5t-116 43.5zM276 613h-58q7 102 84 102q27 0 72 -22q38 -18 54 -18q26 0 33 40h56q-3 -47 -24 -75t-57 -28q-22 0 -67 19q-46 21 -59 21q-30 0 -34 -39z" />
    <glyph glyph-name="Mcircumflex" horiz-adv-x="864" 
d="M38 0l127 715h142l54 -427q11 -110 24 -206h1q18 33 55.5 114.5t46.5 98.5l212 420h144l-127 -715h-85l64 362q7 43 29 155t26 136h-1q-3 -5 -28.5 -59.5t-54.5 -114t-55 -109.5l-189 -370h-108l-58 471q0 1 -19 182h-1q-4 -23 -18 -109.5t-25 -142.5l-71 -401h-85z
M473 876h84q13 -19 43 -60t40 -55h-76l-54 64l-72 -64h-81q22 21 63 62.5t53 52.5z" />
    <glyph glyph-name="mcircumflex" horiz-adv-x="917" 
d="M792 0h-83l52 295q9 56 9 79q0 98 -106 98q-65 0 -105.5 -44t-53.5 -113l-56 -315h-83l52 295q9 56 9 79q0 98 -106 98q-65 0 -105.5 -44t-53.5 -113l-56 -315h-83l79 446q12 75 13 79h82l-14 -75q72 89 173 89q123 0 150 -98h1q26 39 75.5 68.5t116.5 29.5
q77 0 116.5 -39t39.5 -109q0 -30 -11 -98zM492 715h85q14 -20 45 -66.5l35 -52.5h-76l-52 68l-74 -68h-81q19 18 59.5 60t58.5 59z" />
    <glyph glyph-name="Mmacron" horiz-adv-x="864" 
d="M38 0l127 715h142l54 -427q11 -110 24 -206h1q18 33 55.5 114.5t46.5 98.5l212 420h144l-127 -715h-85l64 362q7 43 29 155t26 136h-1q-3 -5 -28.5 -59.5t-54.5 -114t-55 -109.5l-189 -370h-108l-58 471q0 1 -19 182h-1q-4 -23 -18 -109.5t-25 -142.5l-71 -401h-85z
M383 785l9 53h244l-9 -53h-244z" />
    <glyph glyph-name="mmacron" horiz-adv-x="917" 
d="M792 0h-83l52 295q9 56 9 79q0 98 -106 98q-65 0 -105.5 -44t-53.5 -113l-56 -315h-83l52 295q9 56 9 79q0 98 -106 98q-65 0 -105.5 -44t-53.5 -113l-56 -315h-83l79 446q12 75 13 79h82l-14 -75q72 89 173 89q123 0 150 -98h1q26 39 75.5 68.5t116.5 29.5
q77 0 116.5 -39t39.5 -109q0 -30 -11 -98zM399 628l9 53h244l-9 -53h-244z" />
    <glyph glyph-name="Ncircumflex" horiz-adv-x="734" 
d="M587 0h-120l-162 428q-54 138 -71 195h-2q-1 -4 -46 -271l-63 -352h-85l127 715h126l165 -441q10 -27 33.5 -90.5t32.5 -90.5h2q4 18 15.5 95t18.5 114l73 413h83zM432 876h84q13 -19 43 -60t40 -55h-76l-54 64l-72 -64h-81q22 21 63 62.5t53 52.5z" />
    <glyph glyph-name="ncircumflex" horiz-adv-x="580" 
d="M23 0l79 446q12 75 13 79h82l-14 -75q72 89 175 89q78 0 119 -39.5t41 -108.5q0 -30 -11 -98l-52 -293h-83l52 295q9 56 9 79q0 46 -28 72t-81 26q-66 0 -107.5 -44.5t-54.5 -112.5l-56 -315h-83zM319 715h85q14 -20 45 -66.5l35 -52.5h-76l-52 68l-74 -68h-81
q19 18 59.5 60t58.5 59z" />
    <glyph glyph-name="Ndieresis" horiz-adv-x="734" 
d="M587 0h-120l-162 428q-54 138 -71 195h-2q-1 -4 -46 -271l-63 -352h-85l127 715h126l165 -441q10 -27 33.5 -90.5t32.5 -90.5h2q4 18 15.5 95t18.5 114l73 413h83zM329 766l15 90h89l-15 -90h-89zM489 766l15 90h88l-15 -90h-88z" />
    <glyph glyph-name="ndieresis" horiz-adv-x="580" 
d="M23 0l79 446q12 75 13 79h82l-14 -75q72 89 175 89q78 0 119 -39.5t41 -108.5q0 -30 -11 -98l-52 -293h-83l52 295q9 56 9 79q0 46 -28 72t-81 26q-66 0 -107.5 -44.5t-54.5 -112.5l-56 -315h-83zM227 609l15 90h89l-15 -90h-89zM387 609l15 90h88l-15 -90h-88z" />
    <glyph glyph-name="Nmacron" horiz-adv-x="734" 
d="M587 0h-120l-162 428q-54 138 -71 195h-2q-1 -4 -46 -271l-63 -352h-85l127 715h126l165 -441q10 -27 33.5 -90.5t32.5 -90.5h2q4 18 15.5 95t18.5 114l73 413h83zM338 785l9 53h244l-9 -53h-244z" />
    <glyph glyph-name="nmacron" horiz-adv-x="580" 
d="M23 0l79 446q12 75 13 79h82l-14 -75q72 89 175 89q78 0 119 -39.5t41 -108.5q0 -30 -11 -98l-52 -293h-83l52 295q9 56 9 79q0 46 -28 72t-81 26q-66 0 -107.5 -44.5t-54.5 -112.5l-56 -315h-83zM232 628l9 53h244l-9 -53h-244z" />
    <glyph glyph-name="Pmacron" horiz-adv-x="586" 
d="M38 0l127 715h167q129 0 192.5 -38.5t63.5 -132.5q0 -63 -27.5 -117t-79.5 -87q-65 -41 -203 -41h-102l-53 -299h-85zM237 643l-48 -272h108q201 0 201 160q0 62 -43.5 87t-122.5 25h-95zM235 785l9 53h244l-9 -53h-244z" />
    <glyph glyph-name="pmacron" horiz-adv-x="626" 
d="M116 526h80l-13 -64q70 77 177 77q96 0 156.5 -61t60.5 -178q0 -132 -77 -223.5t-198 -91.5q-130 0 -182 93q-2 -10 -13 -75t-20 -108l-14 -75h-82zM294 51q92 0 144 69.5t52 170.5q0 85 -40.5 133.5t-112.5 48.5q-95 0 -145.5 -74t-50.5 -177q0 -80 39.5 -125.5
t113.5 -45.5zM252 628l9 53h244l-9 -53h-244z" />
    <glyph glyph-name="at.case" horiz-adv-x="837" 
d="M579 534h69l-52 -286q-8 -45 37 -45q46 0 80.5 61t34.5 143q0 120 -81 197.5t-216 77.5q-145 0 -236.5 -94t-91.5 -236q0 -146 96 -237t244 -91q75 0 128 21t105 62l45 -23q-120 -110 -285 -110q-175 0 -285 104.5t-110 273.5q0 160 110 269.5t280 109.5q153 0 253 -87.5
t100 -222.5q0 -119 -57.5 -193t-145.5 -74q-66 0 -83 48q-40 -49 -119 -49q-73 0 -115 43t-42 122q0 92 54.5 159t143.5 67q87 0 128 -64zM447 489q-62 0 -96 -51.5t-34 -121.5q0 -52 25.5 -83.5t75.5 -31.5q66 0 100 51.5t34 121.5q0 115 -105 115z" />
    <glyph glyph-name="bar.case" horiz-adv-x="284" 
d="M41 -42l139 793h80l-139 -793h-80z" />
    <glyph glyph-name="plus.case" 
d="M70 339v65h188v196h65v-196h189v-65h-189v-197h-65v197h-188z" />
    <glyph glyph-name="minus.case" 
d="M68 339v65h442v-65h-442z" />
    <glyph glyph-name="plusminus.case" 
d="M49 360v65h188v176h65v-176h189v-65h-189v-177h-65v177h-188zM50 50v65h442v-65h-442z" />
    <glyph glyph-name="multiply.case" 
d="M124 160l-46 46l164 165l-164 165l46 46l164 -165l166 165l46 -46l-166 -165l166 -165l-46 -46l-166 165z" />
    <glyph glyph-name="divide.case" 
d="M70 339v65h442v-65h-442zM244 145v111h88v-111h-88zM244 487v111h88v-111h-88z" />
    <glyph glyph-name="equal.case" 
d="M67 432v65h442v-65h-442zM67 251v65h442v-65h-442z" />
    <glyph glyph-name="notequal.case" 
d="M64 432v65h242l55 113h75l-55 -113h125v-65h-156l-56 -116h212v-65h-244l-58 -121h-75l58 121h-123v65h155l56 116h-211z" />
    <glyph glyph-name="approxequal.case" 
d="M483 501l54 -36q-61 -105 -146 -105q-41 0 -107 31l-42 20q-50 24 -79 24q-57 0 -85 -68l-52 38q59 100 141 100q43 0 100 -27l46 -22q52 -25 77 -25q55 0 93 70zM480 251l54 -36q-61 -105 -146 -105q-41 0 -107 31l-42 20q-50 24 -79 24q-57 0 -85 -68l-52 38
q59 100 141 100q43 0 100 -27l46 -22q52 -25 77 -25q55 0 93 70z" />
    <glyph glyph-name="logicalnot.case" 
d="M26 445v65h503v-323h-67v258h-436z" />
    <glyph glyph-name="parenleft.case" horiz-adv-x="314" 
d="M46 265q0 165 82.5 309.5t231.5 233.5l-14 -81q-222 -191 -222 -463q0 -174 89 -290l-14 -80q-69 47 -111 151t-42 220z" />
    <glyph glyph-name="parenright.case" horiz-adv-x="314" 
d="M284 439q0 -167 -82 -313t-232 -232l14 81q222 189 222 463q0 174 -89 290l14 80q68 -50 110.5 -150.5t42.5 -218.5z" />
    <glyph glyph-name="hyphen.case" horiz-adv-x="413" 
d="M73 327l13 73h272l-13 -73h-272z" />
    <glyph glyph-name="bracketleft.case" horiz-adv-x="327" 
d="M230 -3l-10 -60h-183l145 828h183l-10 -60h-103l-125 -708h103z" />
    <glyph glyph-name="bracketright.case" horiz-adv-x="326" 
d="M-22 -63l10 60h102l125 708h-103l10 60h183l-145 -828h-182z" />
    <glyph glyph-name="braceleft.case" horiz-adv-x="302" 
d="M47 341l7 36q39 6 55.5 27.5t26.5 80.5l29 163q12 74 35.5 97.5t93.5 23.5q4 0 12 -0.5t11 -0.5q3 -1 10 -1l-10 -59h-10q-30 0 -43 -14t-21 -61l-24 -133q-16 -81 -32.5 -106.5t-60.5 -37.5l-1 -2q29 -12 40 -26.5t11 -42.5q0 -30 -10 -83l-23 -130q-4 -20 -4 -38
q0 -24 11 -32.5t40 -10.5l-10 -58q-3 -1 -8 -1h-20q-55 0 -76.5 16.5t-21.5 52.5q0 22 7 62l30 169q5 33 5 48q0 28 -11 40t-38 21z" />
    <glyph glyph-name="braceright.case" horiz-adv-x="300" 
d="M271 362l-7 -36q-39 -6 -55.5 -27.5t-26.5 -80.5l-29 -165q-12 -75 -35.5 -98.5t-93.5 -23.5q-16 0 -23 1q-7 0 -10 1l10 59h10q31 0 42.5 13.5t21.5 61.5l24 136q13 79 30.5 105.5t62.5 38.5l1 2q-29 12 -40 26.5t-11 42.5q0 30 10 83l23 128q4 20 4 38q0 24 -11 32.5
t-40 10.5l10 58h8q2 0 8.5 0.5t11.5 0.5q55 0 76.5 -16.5t21.5 -52.5q0 -22 -7 -62l-30 -167q-5 -33 -5 -48q0 -28 11 -40t38 -21z" />
    <glyph glyph-name="guillemotleft.case" horiz-adv-x="498" 
d="M286 533l-130 -181l61 -194h-73l-77 194l137 181h82zM473 533l-125 -181l56 -194h-71l-77 194l137 181h80z" />
    <glyph glyph-name="guillemotright.case" horiz-adv-x="494" 
d="M223 158l130 181l-61 194h73l77 -194l-137 -181h-82zM36 158l125 181l-56 194h71l77 -194l-137 -181h-80z" />
    <glyph glyph-name="endash.case" horiz-adv-x="618" 
d="M73 327l13 71h476l-13 -71h-476z" />
    <glyph glyph-name="emdash.case" horiz-adv-x="983" 
d="M73 327l13 71h841l-13 -71h-841z" />
    <glyph glyph-name="guilsinglleft.case" horiz-adv-x="308" 
d="M286 533l-130 -181l61 -194h-73l-77 194l137 181h82z" />
    <glyph glyph-name="guilsinglright.case" horiz-adv-x="307" 
d="M36 158l130 181l-61 194h73l77 -194l-137 -181h-82z" />
    <glyph glyph-name="brokenbar.case" horiz-adv-x="228" 
d="M99 448l53 303h80l-53 -303h-80zM13 -42l53 303h80l-53 -303h-80z" />
    <glyph glyph-name="registered.alt" horiz-adv-x="850" 
d="M303 143v429h125q76 0 111 -24q51 -37 51 -101q0 -53 -29 -83t-75 -37l113 -184h-73l-103 175h-59v-175h-61zM364 518v-147h63q49 0 70 16q28 18 28 58q0 44 -35 62q-24 11 -63 11h-63zM811 360q0 -158 -110 -267.5t-268 -109.5q-156 0 -265.5 110t-109.5 267
t109.5 266.5t267.5 109.5q156 0 266 -110t110 -266zM760 360q0 137 -95.5 232.5t-229.5 95.5q-137 0 -231 -95t-94 -233q0 -137 94 -233.5t230 -96.5q135 0 230.5 96t95.5 234z" />
    <glyph glyph-name="less.case" 
d="M67 327v65q226 117 396 208v-75q-180 -85 -325 -160v-3q306 -153 325 -162v-78q-79 42 -227 118t-169 87z" />
    <glyph glyph-name="greater.case" 
d="M512 392v-65q-21 -11 -169 -87t-227 -118v78q19 9 325 162v3q-145 75 -325 160v75q170 -91 396 -208z" />
    <glyph glyph-name="lessequal.case" 
d="M66 310v91l396 179v-95q-55 -22 -173.5 -72.5t-121.5 -51.5v-3q14 -6 129 -56t166 -71v-97q-67 30 -198 88t-198 88zM462 0h-396v87h396v-87z" />
    <glyph glyph-name="greaterequal.case" 
d="M475 401v-91q-67 -30 -198.5 -88t-197.5 -88v97q51 21 166 71t129 56v3q-3 1 -121.5 51.5t-173.5 72.5v95zM475 0h-396v87h396v-87z" />
    <glyph glyph-name="infinity.case" horiz-adv-x="849" 
d="M224 532q56 0 102 -30.5t107 -91.5q40 40 65.5 62t65.5 41t79 19q74 0 117.5 -45.5t43.5 -121.5q0 -73 -41 -120.5t-119 -47.5q-54 0 -101 29t-110 92q-63 -63 -110 -92t-101 -29q-78 0 -119 47.5t-41 120.5q0 76 44 121.5t118 45.5zM227 262q41 0 76 22.5t93 78.5
q-3 2 -21 20t-23.5 22.5t-22 18.5t-25.5 19t-23.5 12.5t-28 10.5t-27.5 3q-44 0 -69 -28.5t-25 -74.5q0 -49 24.5 -76.5t71.5 -27.5zM639 262q47 0 71.5 27.5t24.5 76.5q0 46 -25 74.5t-69 28.5q-14 0 -27.5 -3t-28 -10.5t-24 -13t-25 -18.5t-22 -19t-23.5 -22t-21 -20
q55 -54 91.5 -77.5t77.5 -23.5z" />
    <glyph glyph-name="uni00AD.case" horiz-adv-x="413" 
d="M73 327l13 73h272l-13 -73h-272z" />
    <glyph glyph-name="zero.posf" horiz-adv-x="608" 
d="M369 715q203 0 203 -227q0 -66 -13 -137q-12 -62 -26.5 -110t-39 -98t-55.5 -82.5t-77.5 -53.5t-104.5 -21q-203 0 -203 221q0 63 13 141q11 60 24.5 109t38 99t56 83.5t78.5 54.5t106 21zM362 648q-60 0 -105 -43q-53 -53 -85.5 -178.5t-32.5 -228.5q0 -147 120 -147
q87 0 139 89q39 64 62.5 173t23.5 193q0 142 -122 142z" />
    <glyph glyph-name="one.posf" horiz-adv-x="386" 
d="M142 0l97 536h-172l10 54q94 2 142 27.5t68 83.5h66l-127 -701h-84z" />
    <glyph glyph-name="two.posf" horiz-adv-x="574" 
d="M468 0h-469l13 71q40 29 81 60q153 114 157 117t30.5 23t34 26t31 25.5t32.5 29.5t27.5 29t26 34t17.5 34t14 38.5t4 39.5q0 56 -33 88t-94 32q-138 0 -167 -167h-85q15 107 82.5 171t177.5 64q102 0 156 -47t54 -127q0 -46 -18 -90.5t-41 -77.5t-68 -73.5t-75.5 -64
t-86.5 -63.5q-9 -7 -26 -18t-51.5 -33.5t-71.5 -47.5h361z" />
    <glyph glyph-name="three.posf" horiz-adv-x="574" 
d="M22 202h83q-4 -77 37 -113.5t106 -36.5q77 0 123 45.5t46 117.5q0 66 -42 99.5t-109 33.5h-26l12 64h5q79 0 133.5 33.5t54.5 103.5q0 45 -31.5 72t-80.5 27q-115 0 -142 -121h-83q18 87 78 137.5t157 50.5q89 0 138.5 -40.5t49.5 -107.5q0 -69 -43.5 -119t-113.5 -64
q58 -12 95.5 -56.5t37.5 -105.5q0 -107 -73.5 -171.5t-192.5 -64.5q-107 0 -165.5 56t-53.5 160z" />
    <glyph glyph-name="four.posf" horiz-adv-x="590" 
d="M541 226l-12 -65h-105l-29 -161h-81l29 161h-341l10 61l286 319q28 32 77.5 88t63.5 72h83l-86 -475h105zM426 599h-2q-38 -49 -149 -177l-59 -68q-37 -39 -74 -82l-41 -46h254l22 121q27 162 49 252z" />
    <glyph glyph-name="five.posf" horiz-adv-x="568" 
d="M72 331l110 371h371l-13 -73h-305l-71 -230q54 54 146 54q90 0 145.5 -52.5t55.5 -143.5q0 -117 -70.5 -194t-192.5 -77q-102 0 -163.5 52.5t-69.5 153.5h85q4 -61 44 -100t111 -39q77 0 123.5 51t46.5 135q0 72 -41.5 110t-106.5 38q-83 0 -132 -68z" />
    <glyph glyph-name="six.posf" horiz-adv-x="599" 
d="M571 521h-86q-5 63 -37 95.5t-86 32.5q-155 0 -208 -278q20 32 66.5 56t107.5 24q94 0 150.5 -54t56.5 -149q0 -115 -71.5 -188.5t-188.5 -73.5q-222 0 -222 237q0 102 30 219.5t94 189.5q73 83 190 83q102 0 151 -55t53 -139zM305 385q-80 0 -124 -53t-44 -129
q0 -71 39 -111.5t105 -40.5q77 0 122.5 54.5t45.5 134.5q0 66 -38.5 105.5t-105.5 39.5z" />
    <glyph glyph-name="seven.posf" horiz-adv-x="492" 
d="M137 0h-101q31 53 67 110.5t80.5 125.5t69.5 108q96 148 196 286v1q-19 -1 -55 -1h-307l13 71h443l-12 -65l-33 -52q-236 -359 -361 -584z" />
    <glyph glyph-name="eight.posf" horiz-adv-x="594" 
d="M198 379q-76 57 -76 141q0 85 63 140t170 55q91 0 145 -44.5t54 -114.5q0 -66 -36.5 -113t-98.5 -68q52 -27 78.5 -64t26.5 -96q0 -104 -72.5 -166.5t-193.5 -62.5q-102 0 -165.5 48.5t-63.5 136.5q0 75 44 129t125 79zM344 649q-64 0 -104 -34t-40 -94q0 -53 33 -83
t93 -30q64 0 105 37.5t41 96.5q0 50 -35 78.5t-93 28.5zM292 343q-75 0 -126.5 -43.5t-51.5 -115.5q0 -62 41 -97.5t110 -35.5q80 0 128 45t48 120q0 58 -40.5 92.5t-108.5 34.5z" />
    <glyph glyph-name="nine.posf" horiz-adv-x="599" 
d="M44 180h86q5 -63 37 -95.5t86 -32.5q155 0 208 278q-20 -32 -66.5 -56t-107.5 -24q-94 0 -150.5 54t-56.5 149q0 115 71.5 188.5t188.5 73.5q222 0 222 -237q0 -102 -30 -219.5t-94 -189.5q-73 -83 -190 -83q-101 0 -151.5 55t-52.5 139zM310 316q80 0 124 53t44 129
q0 71 -39 111.5t-105 40.5q-77 0 -122.5 -54.5t-45.5 -134.5q0 -66 38.5 -105.5t105.5 -39.5z" />
    <glyph glyph-name="idotaccent" horiz-adv-x="235" 
d="M215 614h-85l18 101h85zM116 525h81l-93 -525h-81z" />
    <glyph glyph-name="zero.slashplf" horiz-adv-x="607" 
d="M369 729q203 0 203 -231q0 -66 -13 -140q-12 -63 -26.5 -112t-39 -100t-55.5 -84t-77.5 -54.5t-104.5 -21.5q-203 0 -203 225q0 64 13 144q11 62 24.5 112t38 100.5t56 84.5t78.5 55.5t106 21.5zM484 516q0 47 -13 76l-278 -524q26 -16 66 -16q85 0 139 91
q39 65 62.5 175.5t23.5 197.5zM362 661q-61 0 -105 -44q-53 -53 -85.5 -181.5t-32.5 -233.5q0 -44 10 -73l276 517q-25 15 -63 15z" />
    <glyph glyph-name="zero.slash" 
d="M346 729q203 0 203 -231q0 -66 -13 -140q-12 -63 -26.5 -112t-39 -100t-55.5 -84t-77.5 -54.5t-104.5 -21.5q-203 0 -203 225q0 64 13 144q11 62 24.5 112t38 100.5t56 84.5t78.5 55.5t106 21.5zM461 516q0 47 -13 76l-278 -524q26 -16 66 -16q85 0 139 91
q39 65 62.5 175.5t23.5 197.5zM339 661q-61 0 -105 -44q-53 -53 -85.5 -181.5t-32.5 -233.5q0 -44 10 -73l276 517q-26 15 -63 15z" />
    <glyph glyph-name="zero.tosf" 
d="M345 715q203 0 203 -227q0 -66 -13 -137q-12 -62 -26.5 -110t-39 -98t-55.5 -82.5t-77.5 -53.5t-104.5 -21q-203 0 -203 221q0 63 13 141q11 60 24.5 109t38 99t56 83.5t78.5 54.5t106 21zM338 648q-60 0 -105 -43q-53 -53 -85.5 -178.5t-32.5 -228.5q0 -147 120 -147
q87 0 139 89q39 64 62.5 173t23.5 193q0 142 -122 142z" />
    <glyph glyph-name="one.tosf" 
d="M229 0l97 536h-172l10 54q94 2 142 27.5t68 83.5h66l-127 -701h-84z" />
    <glyph glyph-name="two.tosf" 
d="M461 0h-469l13 71q41 29 81 60q153 114 157 117t30.5 23t34 26t31 25.5t32.5 29.5t27.5 29t26 34t17.5 34t14 38.5t4 39.5q0 56 -33 88t-94 32q-138 0 -167 -167h-85q15 107 82.5 171t177.5 64q102 0 156 -47t54 -127q0 -46 -18 -90.5t-41 -77.5t-68 -73.5t-75.5 -64
t-86.5 -63.5q-9 -7 -26 -18t-51.5 -33.5t-71.5 -47.5h361z" />
    <glyph glyph-name="three.tosf" 
d="M14 202h83q-4 -77 37 -113.5t106 -36.5q77 0 123 45.5t46 117.5q0 66 -42 99.5t-109 33.5h-26l12 64h5q79 0 133.5 33.5t54.5 103.5q0 45 -31.5 72t-80.5 27q-115 0 -142 -121h-83q18 87 78 137.5t157 50.5q89 0 138.5 -40.5t49.5 -107.5q0 -69 -43.5 -119t-113.5 -64
q58 -12 95.5 -56.5t37.5 -105.5q0 -107 -73.5 -171.5t-191.5 -64.5q-108 0 -166.5 56t-53.5 160z" />
    <glyph glyph-name="four.tosf" 
d="M521 226l-12 -65h-99l-29 -161h-81l29 161h-341l10 61l286 319q28 32 77.5 88t63.5 72h83l-86 -475h99zM412 599h-2q-38 -49 -149 -177l-59 -68q-37 -39 -74 -82l-41 -46h254l22 121q27 162 49 252z" />
    <glyph glyph-name="five.tosf" 
d="M67 330l110 371h371l-13 -73h-305l-71 -230q54 54 146 54q90 0 145.5 -52.5t55.5 -143.5q0 -117 -70.5 -194t-192.5 -77q-102 0 -163.5 52.5t-69.5 153.5h85q4 -61 44 -100t111 -39q77 0 123.5 51t46.5 135q0 72 -41.5 110t-106.5 38q-83 0 -132 -68z" />
    <glyph glyph-name="six.tosf" 
d="M551 521h-86q-5 63 -37 95.5t-86 32.5q-155 0 -208 -278q20 32 66.5 56t107.5 24q94 0 150.5 -54t56.5 -149q0 -115 -71.5 -188.5t-188.5 -73.5q-222 0 -222 237q0 102 30 219.5t94 189.5q73 83 190 83q102 0 151 -55t53 -139zM285 385q-80 0 -124 -53t-44 -129
q0 -71 39 -111.5t105 -40.5q77 0 122.5 54.5t45.5 134.5q0 66 -38.5 105.5t-105.5 39.5z" />
    <glyph glyph-name="seven.tosf" 
d="M171 0h-101q31 53 67 110.5t80.5 125.5t69.5 108q96 148 196 286v1q-19 -1 -55 -1h-307l13 71h443l-12 -65l-33 -52q-236 -359 -361 -584z" />
    <glyph glyph-name="eight.tosf" 
d="M181 379q-76 57 -76 141q0 85 63 140t170 55q91 0 145 -44.5t54 -114.5q0 -66 -36.5 -113t-98.5 -68q52 -27 78.5 -64t26.5 -96q0 -104 -72.5 -166.5t-193.5 -62.5q-102 0 -165.5 48.5t-63.5 136.5q0 75 44 129t125 79zM327 649q-64 0 -104 -34t-40 -94q0 -53 33 -83
t93 -30q64 0 105 37.5t41 96.5q0 50 -35 78.5t-93 28.5zM275 343q-75 0 -126.5 -43.5t-51.5 -115.5q0 -62 41 -97.5t110 -35.5q80 0 128 45t48 120q0 58 -40.5 92.5t-108.5 34.5z" />
    <glyph glyph-name="nine.tosf" 
d="M24 180h86q5 -63 37 -95.5t86 -32.5q155 0 208 278q-20 -32 -66.5 -56t-107.5 -24q-94 0 -150.5 54t-56.5 149q0 115 71.5 188.5t188.5 73.5q222 0 222 -237q0 -102 -30 -219.5t-94 -189.5q-73 -83 -190 -83q-101 0 -151.5 55t-52.5 139zM290 316q80 0 124 53t44 129
q0 71 -39 111.5t-105 40.5q-77 0 -122.5 -54.5t-45.5 -134.5q0 -66 38.5 -105.5t105.5 -39.5z" />
    <glyph glyph-name="a.sub" horiz-adv-x="403" 
d="M40 151l-1 1q10 57 54.5 93t116.5 36q139 0 139 -119q0 -26 -10 -82q-3 -9 -5 -28l-18 -97q-6 -36 -6 -61v-17h-59q0 33 4 56q-52 -63 -143 -63q-56 0 -88.5 24.5t-32.5 71.5q0 108 190 137q47 8 103 13q4 15 4 35q0 80 -87 80q-81 0 -101 -80h-60zM274 52l4 18l-33 -4
q-43 -6 -68.5 -11.5t-56.5 -15.5t-46 -26t-15 -38q0 -60 75 -60q116 0 140 137z" />
    <glyph glyph-name="b.sub" horiz-adv-x="463" 
d="M56 -123h-61l95 537h65l-18 -98q-6 -39 -11 -58l-7 -28q49 52 128 52q73 0 119 -47t46 -137q0 -95 -58.5 -163.5t-149.5 -68.5q-97 0 -137 71l-5 -28q-4 -15 -6 -32zM198 -82q68 0 107 51t39 127q0 63 -29.5 98.5t-83.5 35.5q-70 0 -107.5 -55t-37.5 -131q0 -60 29 -93
t83 -33z" />
    <glyph glyph-name="c.sub" horiz-adv-x="447" 
d="M406 140h-64q-20 88 -114 88q-69 0 -109 -50.5t-40 -125.5q0 -64 32 -100t90 -36q88 0 128 86h65q-24 -64 -75 -101.5t-126 -37.5q-84 0 -132.5 47t-48.5 138q0 97 59 164.5t158 67.5q74 0 120 -36.5t57 -103.5z" />
    <glyph glyph-name="d.sub" horiz-adv-x="463" 
d="M454 414l-95 -537h-58l9 48q-48 -60 -133 -60q-74 0 -119.5 46.5t-45.5 137.5q0 95 58 163.5t149 68.5q95 0 134 -68l8 38l8 43l21 120h64zM225 229q-67 0 -106 -51.5t-39 -126.5q0 -63 29.5 -98.5t83.5 -35.5q70 0 107.5 55t37.5 131q0 60 -29 93t-84 33z" />
    <glyph glyph-name="e.sub" horiz-adv-x="455" 
d="M408 63h-331v-10q0 -64 33 -100t90 -36q88 0 126 72h65q-51 -125 -196 -125q-85 0 -134 47t-49 137q0 98 59 165.5t159 67.5q90 0 135 -50t45 -136q0 -11 -2 -27v-5zM227 229q-55 0 -92.5 -32.5t-50.5 -85.5h264q-3 55 -35 86.5t-86 31.5z" />
    <glyph glyph-name="f.sub" horiz-adv-x="219" 
d="M247 416l-9 -53q-14 2 -19 2q-25 0 -38 -12t-18 -39l-8 -43h66l-8 -49h-66q-49 -277 -61 -345h-65l62 345h-52l8 49h52l6 36q19 111 121 111q11 0 29 -2z" />
    <glyph glyph-name="g.sub" horiz-adv-x="467" 
d="M433 270l-57 -321q-19 -100 -72.5 -157t-144.5 -57q-71 0 -115.5 38.5t-48.5 92.5h66q4 -32 31 -55.5t77 -23.5q109 0 145 157v5q-49 -54 -133 -54q-72 0 -118 42.5t-46 128.5q0 94 56.5 154t147.5 60q52 0 87 -20t51 -47q1 9 5.5 28t5.5 29h63zM226 229q-66 0 -104 -46
t-38 -115q0 -57 32 -89.5t86 -32.5q66 0 103.5 49t37.5 117q0 53 -31 85t-86 32z" />
    <glyph glyph-name="h.sub" horiz-adv-x="419" 
d="M-5 -123l95 537h64l-19 -109q-1 -6 -3 -18.5t-4 -18.5q-2 -9 -4 -24.5t-4 -23.5q50 62 126 62q59 0 90 -29.5t31 -81.5q0 -28 -8 -74l-39 -220h-64l39 222q6 38 6 59q0 34 -20.5 52.5t-59.5 18.5q-48 0 -79.5 -33t-40.5 -82l-42 -237h-64z" />
    <glyph glyph-name="i.sub" horiz-adv-x="162" 
d="M141 336h-66l14 78h65zM65 271h63l-70 -394h-63z" />
    <glyph glyph-name="j.sub" horiz-adv-x="163" 
d="M-92 -218l1 1q11 -1 21 -1q25 0 39 12t20 43l76 434h64l-74 -423q-10 -64 -37.5 -91.5t-85.5 -27.5q-12 0 -33 3zM142 336h-65l14 78h64z" />
    <glyph glyph-name="k.sub" horiz-adv-x="361" 
d="M311 -123h-83l-82 121q-47 70 -52 77l-35 -198h-64l95 537h64l-56 -317l183 174h88q-81 -73 -134 -120l-71 -63z" />
    <glyph glyph-name="l.sub" horiz-adv-x="163" 
d="M-5 -123l95 537h64l-95 -537h-64z" />
    <glyph glyph-name="m.sub" horiz-adv-x="672" 
d="M573 -123h-65l40 228q6 34 6 53q0 71 -77 71q-48 0 -78 -32.5t-41 -82.5l-42 -237h-64l40 228q6 34 6 53q0 71 -78 71q-48 0 -78.5 -33t-39.5 -82l-42 -237h-64l59 334l4 20q4 18 6 40h63l-10 -53q50 64 128 64q90 0 113 -72q19 28 56 50t87 22q59 0 88.5 -29.5
t29.5 -81.5q0 -24 -8 -74z" />
    <glyph glyph-name="n.sub" horiz-adv-x="420" 
d="M-4 -123l59 334l4 20q4 18 6 40h63l-10 -53q50 64 129 64q59 0 90 -29.5t31 -81.5q0 -28 -8 -74l-39 -220h-64l39 222q6 38 6 59q0 71 -80 71q-48 0 -79.5 -33t-40.5 -82l-42 -237h-64z" />
    <glyph glyph-name="o.sub" horiz-adv-x="468" 
d="M201 -83q68 0 108 49.5t40 125.5q0 64 -31 100.5t-90 36.5q-69 0 -109 -50.5t-40 -125.5q0 -64 32 -100t90 -36zM233 281q87 0 135 -46.5t48 -133.5q0 -104 -57.5 -170.5t-161.5 -66.5q-87 0 -135.5 47t-48.5 137q0 99 59 166t161 67z" />
    <glyph glyph-name="p.sub" horiz-adv-x="463" 
d="M65 271h62l-10 -45q51 55 131 55q73 0 118.5 -46t45.5 -135q0 -98 -58 -166t-150 -68q-93 0 -135 66q-1 -6 -3 -18.5t-3 -18.5l-18 -96l-10 -57h-64zM198 -83q68 0 107 51t39 127q0 63 -29.5 99t-83.5 36q-70 0 -107.5 -55t-37.5 -132q0 -59 29 -92.5t83 -33.5z" />
    <glyph glyph-name="q.sub" horiz-adv-x="464" 
d="M337 -257h-65l16 87q3 17 17 80l2 10q-51 -54 -129 -54q-74 0 -119.5 46.5t-45.5 136.5q0 96 58 164t148 68q94 0 136 -67l4 22l6 35h65zM225 230q-67 0 -106 -51.5t-39 -126.5q0 -63 30 -99t84 -36q70 0 107.5 55t37.5 131q0 60 -29 93.5t-85 33.5z" />
    <glyph glyph-name="r.sub" horiz-adv-x="231" 
d="M125 271l-11 -60q16 31 46 50t65 19q9 0 13 -1l-11 -61q-14 2 -26 2q-82 0 -103 -128l-39 -215h-64l59 334l4 20q4 18 6 40h61z" />
    <glyph glyph-name="s.sub" horiz-adv-x="374" 
d="M-4 -2h63q11 -83 97 -83q44 0 68.5 19t24.5 48q0 17 -11 29t-24.5 18.5t-39.5 15.5l-41 14q-52 18 -77.5 42.5t-25.5 64.5q0 51 41.5 83.5t114.5 32.5q62 0 100.5 -30t40.5 -85h-61q-12 65 -89 65q-82 0 -82 -53q0 -18 10 -30.5t22.5 -18.5t41.5 -18l40 -15
q21 -7 36.5 -14.5t32.5 -20t26 -30.5t9 -40q0 -57 -43.5 -92t-119.5 -35q-66 0 -108 33.5t-46 99.5z" />
    <glyph glyph-name="t.sub" horiz-adv-x="233" 
d="M79 222h-61l8 49h61l19 106h63l-18 -106h74l-9 -49h-74q-6 -35 -21 -118.5t-22 -125.5q-2 -6 -2 -21q0 -38 46 -38q6 0 13 1l-8 -49q-7 -1 -25 -1q-92 0 -92 69q0 20 3 29z" />
    <glyph glyph-name="u.sub" horiz-adv-x="414" 
d="M380 271l-59 -334l-4 -20q-4 -18 -6 -40h-63l10 53q-50 -64 -126 -64q-58 0 -88 29.5t-30 81.5q0 28 8 74l39 220h64l-39 -222q-6 -38 -6 -59q0 -71 77 -71q48 0 78 32.5t39 82.5l42 237h64z" />
    <glyph glyph-name="v.sub" horiz-adv-x="388" 
d="M102 -123l-27 140q-29 155 -50 253h67l36 -207l7 -39l6 -39t8 -46q14 29 40 75l30 58l106 198h71l-221 -393h-73z" />
    <glyph glyph-name="w.sub" horiz-adv-x="604" 
d="M82 -123l-1 1q-2 18 -9 70t-11 79l-32 243h65l23 -204l2 -19q2 -19 6 -53.5t7 -59.5q0 1 65 149l82 187h80l10 -178l3 -48l8 -110q76 161 79 167l80 169h69q-10 -19 -35 -68.5t-47 -94t-40 -81.5l-74 -149h-85l-11 152l-8 140l-4 35q-4 -10 -15.5 -35.5t-18.5 -41.5
l-43 -102q-4 -9 -27.5 -64.5t-34.5 -83.5h-83z" />
    <glyph glyph-name="x.sub" horiz-adv-x="360" 
d="M-50 -123l-1 2q1 2 73.5 81.5t105.5 117.5l-106 192h69q5 -7 30 -60q39 -76 47 -90l48 58q5 6 35 40t45 52h73q-16 -16 -113 -124l-63 -70q2 -4 27.5 -49.5t37.5 -69.5l44 -80h-69l-59 120q-15 25 -20 38q-5 -6 -48 -57.5t-64 -73.5q-3 -4 -11 -13t-12 -14h-69z" />
    <glyph glyph-name="y.sub" horiz-adv-x="384" 
d="M91 -258h-65l80 137q-20 102 -53 249q-1 4 -30 143h68l20 -106q26 -137 39 -213q79 142 174 319h69l-117 -204q-7 -12 -76.5 -135.5t-108.5 -189.5z" />
    <glyph glyph-name="z.sub" horiz-adv-x="370" 
d="M-28 -123l9 48l208 216l46 48q4 4 10 12t10.5 12.5t9.5 6.5q-14 0 -55.5 -0.5t-56.5 -0.5h-113l9 51h305l-9 -52l-198 -204l-88 -87h49q12 0 33 0.5t30 0.5h126l-9 -51h-316z" />
    <glyph glyph-name="zero.sub" horiz-adv-x="454" 
d="M263 423q81 0 117 -44.5t36 -128.5q0 -52 -10 -105q-11 -58 -26.5 -103.5t-41.5 -87.5t-66.5 -65t-92.5 -23q-153 0 -153 169q0 55 10 108q10 59 25 104.5t40 87.5t66 65t96 23zM258 370q-44 0 -77 -33q-41 -39 -65 -134.5t-24 -174.5q0 -111 89 -111q56 0 103 68
q28 50 46 132.5t18 145.5q0 107 -90 107z" />
    <glyph glyph-name="one.sub" horiz-adv-x="293" 
d="M96 -123l73 410h-129l7 42q71 1 107 20.5t51 64.5h50l-94 -537h-65z" />
    <glyph glyph-name="two.sub" horiz-adv-x="431" 
d="M339 -123h-353l10 56q28 23 60 45q11 8 53.5 40t64.5 50l13 10q149 112 149 202q0 42 -24.5 66t-68.5 24q-102 0 -125 -126h-65q10 81 60.5 130.5t134.5 49.5q76 0 117 -36t41 -97q0 -36 -13.5 -70.5t-30 -59t-51.5 -56.5t-56 -48.5t-65 -49.5l-38 -26q-70 -45 -71 -46
h267z" />
    <glyph glyph-name="three.sub" horiz-adv-x="432" 
d="M4 33h64q-3 -57 28 -85.5t78 -28.5q56 0 90.5 34.5t34.5 88.5q0 50 -30.5 75.5t-80.5 25.5h-21l9 50h5q58 0 98.5 25.5t40.5 78.5q0 33 -23 53.5t-59 20.5q-85 0 -106 -91h-64q13 67 58.5 105.5t118.5 38.5q67 0 104 -30.5t37 -82.5q0 -54 -30.5 -91t-82.5 -49
q43 -12 69 -44.5t26 -79.5q0 -82 -55 -131t-146 -49q-82 0 -125 43t-38 123z" />
    <glyph glyph-name="four.sub" horiz-adv-x="446" 
d="M396 51l-9 -52h-79l-22 -122h-62l22 122h-256l8 49l214 244q5 6 14.5 16.5t14.5 15.5l76 90h64l-64 -363h79zM305 325q0 1 1 2q0 3 1 5q-2 -2 -47 -57.5t-63 -75.5l-44 -52l-54 -62l-30 -34h185q2 16 8.5 46.5t8.5 45.5q21 122 34 182zM308 334h-1v-2q0 1 1 2z" />
    <glyph glyph-name="five.sub" horiz-adv-x="428" 
d="M42 130l82 285h280l-10 -58h-228l-52 -170q44 38 107 38q67 0 109 -40t42 -111q0 -90 -52.5 -148.5t-144.5 -58.5q-77 0 -123.5 41t-52.5 118h66q3 -47 32.5 -76.5t82.5 -29.5q57 0 91.5 38.5t34.5 102.5q0 54 -31 83t-78 29q-62 0 -98 -53z" />
    <glyph glyph-name="six.sub" horiz-adv-x="450" 
d="M415 273h-66q-4 47 -28 72t-63 25q-55 0 -93 -47t-61 -159q17 23 51 40t78 17q70 0 112.5 -41t42.5 -115q0 -88 -53 -144t-142 -56q-167 0 -167 181q0 77 23 167.5t70 145.5q53 63 142 63q76 0 113.5 -42.5t40.5 -106.5zM216 169q-60 0 -92.5 -40.5t-32.5 -97.5
q0 -53 29 -84t78 -31q56 0 90 41.5t34 101.5q0 49 -29 79.5t-77 30.5z" />
    <glyph glyph-name="seven.sub" horiz-adv-x="374" 
d="M93 -123h-78q33 57 121 197l43 68q67 109 145 216h-269l9 56h334l-9 -52l-25 -39q-192 -301 -271 -446z" />
    <glyph glyph-name="eight.sub" horiz-adv-x="447" 
d="M9 7q0 56 32 98t92 62q-55 39 -55 107q0 65 47.5 107t128.5 42q68 0 108.5 -34t40.5 -87q0 -50 -27 -86.5t-73 -52.5q39 -22 58.5 -49.5t19.5 -72.5q0 -80 -54 -127.5t-146 -47.5q-77 0 -124.5 37t-47.5 104zM246 371q-47 0 -77 -25.5t-30 -70.5q0 -40 24 -63t69 -23
q46 0 77 28.5t31 73.5q0 36 -26 58t-68 22zM207 138q-55 0 -94 -33.5t-39 -87.5q0 -47 30.5 -73.5t82.5 -26.5q59 0 94.5 33.5t35.5 90.5q0 45 -30.5 71t-79.5 26z" />
    <glyph glyph-name="nine.sub" horiz-adv-x="450" 
d="M21 15h66q4 -47 27.5 -72t63.5 -25q114 0 153 205q-41 -56 -127 -56q-71 0 -113.5 41t-42.5 115q0 88 53.5 144t142.5 56q166 0 166 -181q0 -79 -22 -169.5t-71 -143.5q-57 -63 -142 -63q-76 0 -113.5 42.5t-40.5 106.5zM221 119q60 0 92 40.5t32 97.5q0 54 -29 84.5
t-77 30.5q-57 0 -91 -41.5t-34 -101.5q0 -49 28.5 -79.5t78.5 -30.5z" />
    <glyph glyph-name="a.sup" horiz-adv-x="403" 
d="M93 576l-1 1q10 57 54.5 93t116.5 36q139 0 139 -119q0 -26 -10 -82q-3 -9 -5 -28l-18 -97q-6 -36 -6 -61v-17h-59q0 33 4 56q-52 -63 -143 -63q-56 0 -88.5 24.5t-32.5 71.5q0 108 190 137q47 8 103 13q4 15 4 35q0 80 -87 80q-81 0 -101 -80h-60zM327 477l4 18l-33 -4
q-43 -6 -68.5 -11.5t-56.5 -15.5t-46 -26t-15 -38q0 -60 75 -60q116 0 140 137z" />
    <glyph glyph-name="b.sup" horiz-adv-x="464" 
d="M110 302h-61l95 537h65l-18 -98q-6 -39 -11 -58l-7 -28q49 52 128 52q73 0 119 -47t46 -137q0 -95 -58.5 -163.5t-149.5 -68.5q-97 0 -137 71l-5 -28q-4 -15 -6 -32zM252 343q68 0 107 51t39 127q0 63 -29.5 98.5t-83.5 35.5q-70 0 -107.5 -55t-37.5 -131q0 -60 29 -93
t83 -33z" />
    <glyph glyph-name="c.sup" horiz-adv-x="447" 
d="M460 565h-64q-20 88 -114 88q-69 0 -109 -50.5t-40 -125.5q0 -64 32 -100t90 -36q88 0 128 86h65q-24 -64 -75 -101.5t-126 -37.5q-84 0 -132.5 47t-48.5 138q0 97 59 164.5t158 67.5q74 0 120 -36.5t57 -103.5z" />
    <glyph glyph-name="d.sup" horiz-adv-x="464" 
d="M508 839l-95 -537h-58l9 48q-48 -60 -133 -60q-74 0 -119.5 46.5t-45.5 137.5q0 95 58 163.5t149 68.5q95 0 134 -68l8 38l8 43l21 120h64zM279 654q-67 0 -106 -51.5t-39 -126.5q0 -63 29.5 -98.5t83.5 -35.5q70 0 107.5 55t37.5 131q0 60 -29 93t-84 33z" />
    <glyph glyph-name="e.sup" horiz-adv-x="456" 
d="M462 488h-331v-10q0 -64 33 -100t90 -36q88 0 126 72h65q-51 -125 -196 -125q-85 0 -134 47t-49 137q0 98 59 165.5t159 67.5q90 0 135 -50t45 -136q0 -11 -2 -27v-5zM281 654q-55 0 -92.5 -32.5t-50.5 -85.5h264q-3 55 -35 86.5t-86 31.5z" />
    <glyph glyph-name="f.sup" horiz-adv-x="221" 
d="M301 841l-9 -53q-14 2 -19 2q-25 0 -38 -12t-18 -39l-8 -43h66l-8 -49h-66q-49 -277 -61 -345h-65l62 345h-52l8 49h52l6 36q19 111 121 111q11 0 29 -2z" />
    <glyph glyph-name="g.sup" horiz-adv-x="466" 
d="M486 695l-57 -321q-19 -100 -72.5 -157t-144.5 -57q-71 0 -115.5 38.5t-48.5 92.5h66q4 -32 31 -55.5t77 -23.5q109 0 145 157v5q-49 -54 -133 -54q-72 0 -118 42.5t-46 128.5q0 94 56.5 154t147.5 60q52 0 87 -20t51 -47q2 9 5.5 28t5.5 29h63zM279 654q-66 0 -104 -46
t-38 -115q0 -57 32 -89.5t86 -32.5q66 0 103.5 49t37.5 117q0 53 -31 85t-86 32z" />
    <glyph glyph-name="h.sup" horiz-adv-x="420" 
d="M49 302l95 537h64l-19 -109q-1 -6 -3 -18.5t-4 -18.5q-2 -9 -4 -24.5t-4 -23.5q50 62 126 62q59 0 90 -29.5t31 -81.5q0 -28 -8 -74l-39 -220h-64l39 222q6 38 6 59q0 34 -20.5 52.5t-59.5 18.5q-48 0 -79.5 -33t-40.5 -82l-42 -237h-64z" />
    <glyph glyph-name="i.sup" horiz-adv-x="163" 
d="M195 761h-66l14 78h65zM119 696h63l-70 -394h-63z" />
    <glyph glyph-name="j.sup" horiz-adv-x="163" 
d="M-39 207l1 1q11 -1 21 -1q25 0 39 12t20 43l76 434h64l-74 -423q-10 -64 -37.5 -91.5t-85.5 -27.5q-12 0 -33 3zM195 761h-65l14 78h64z" />
    <glyph glyph-name="k.sup" horiz-adv-x="362" 
d="M365 302h-83l-82 121q-48 70 -52 77l-35 -198h-64l95 537h64l-56 -317l183 174h88q-81 -73 -134 -120l-71 -63z" />
    <glyph glyph-name="l.sup" horiz-adv-x="164" 
d="M49 302l95 537h64l-95 -537h-64z" />
    <glyph glyph-name="m.sup" horiz-adv-x="672" 
d="M626 302h-65l40 228q6 34 6 53q0 71 -77 71q-48 0 -78 -32.5t-41 -82.5l-42 -237h-64l40 228q6 34 6 53q0 71 -78 71q-48 0 -78.5 -33t-39.5 -82l-42 -237h-64l59 334l4 20q4 18 6 40h63l-10 -53q50 64 128 64q90 0 113 -72q19 28 56 50t87 22q59 0 88.5 -29.5
t29.5 -81.5q0 -24 -8 -74z" />
    <glyph glyph-name="n.sup" horiz-adv-x="420" 
d="M49 302l59 334l4 20q4 18 6 40h63l-10 -53q50 64 129 64q59 0 90 -29.5t31 -81.5q0 -28 -8 -74l-39 -220h-64l39 222q6 38 6 59q0 71 -80 71q-48 0 -79.5 -33t-40.5 -82l-42 -237h-64z" />
    <glyph glyph-name="o.sup" horiz-adv-x="468" 
d="M254 342q68 0 108 49.5t40 125.5q0 64 -31 100.5t-90 36.5q-69 0 -109 -50.5t-40 -125.5q0 -64 32 -100t90 -36zM286 706q87 0 135 -46.5t48 -133.5q0 -104 -57.5 -170.5t-161.5 -66.5q-87 0 -135.5 47t-48.5 137q0 99 59 166t161 67z" />
    <glyph glyph-name="p.sup" horiz-adv-x="464" 
d="M119 696h62l-10 -45q51 55 131 55q73 0 118.5 -46t45.5 -135q0 -98 -58 -166t-150 -68q-93 0 -135 66q-1 -7 -2.5 -19t-3.5 -18l-18 -96l-10 -57h-64zM252 342q68 0 107 51t39 127q0 63 -29.5 99t-83.5 36q-70 0 -107.5 -55t-37.5 -132q0 -59 29 -92.5t83 -33.5z" />
    <glyph glyph-name="q.sup" horiz-adv-x="464" 
d="M390 168h-65l16 87q3 17 17 80l2 10q-51 -54 -129 -54q-74 0 -119.5 46.5t-45.5 136.5q0 96 58 164t148 68q94 0 136 -67l4 22l6 35h65zM278 655q-67 0 -106 -51.5t-39 -126.5q0 -63 30 -99t84 -36q70 0 107.5 55t37.5 131q0 60 -29 93.5t-85 33.5z" />
    <glyph glyph-name="r.sup" horiz-adv-x="231" 
d="M179 696l-11 -60q16 31 46 50t65 19q9 0 13 -1l-11 -61q-14 2 -26 2q-82 0 -103 -128l-39 -215h-64l59 334l4 20q4 18 6 40h61z" />
    <glyph glyph-name="s.sup" horiz-adv-x="375" 
d="M50 423h63q11 -83 97 -83q44 0 68.5 19t24.5 48q0 17 -11 29t-24.5 18.5t-39.5 15.5l-41 14q-52 18 -77.5 42.5t-25.5 64.5q0 51 41.5 83.5t114.5 32.5q62 0 100.5 -30t40.5 -85h-61q-12 65 -89 65q-82 0 -82 -53q0 -18 10 -30.5t22.5 -18.5t41.5 -18l40 -15
q21 -7 36.5 -14.5t32.5 -20t26 -30.5t9 -40q0 -57 -43.5 -92t-119.5 -35q-66 0 -108 33.5t-46 99.5z" />
    <glyph glyph-name="t.sup" horiz-adv-x="237" 
d="M134 647h-61l8 49h61l19 106h63l-18 -106h74l-9 -49h-74q-6 -35 -21 -118.5t-22 -125.5q-2 -6 -2 -21q0 -38 46 -38q6 0 13 1l-8 -49q-7 -1 -25 -1q-92 0 -92 69q0 20 3 29z" />
    <glyph glyph-name="u.sup" horiz-adv-x="414" 
d="M433 696l-59 -334l-4 -20q-4 -18 -6 -40h-63l10 53q-50 -64 -126 -64q-58 0 -88 29.5t-30 81.5q0 28 8 74l39 220h64l-39 -222q-6 -38 -6 -59q0 -71 77 -71q48 0 78 32.5t39 82.5l42 237h64z" />
    <glyph glyph-name="v.sup" horiz-adv-x="386" 
d="M154 302l-27 140q-29 155 -50 253h67l36 -207l7 -39l6 -39t8 -46q14 29 40 75l30 58l106 198h71l-221 -393h-73z" />
    <glyph glyph-name="w.sup" horiz-adv-x="603" 
d="M135 302l-1 1q-2 18 -9 70t-11 79l-32 243h65l23 -204l2 -19q2 -19 6 -53.5t7 -59.5q0 1 65 149l82 187h80l10 -178l3 -48l8 -110q76 161 79 167l80 169h69l-122 -244l-74 -149h-85l-11 152l-8 140l-4 35q-4 -10 -15.5 -35.5t-18.5 -41.5l-43 -102q-4 -9 -27.5 -64.5
t-34.5 -83.5h-83z" />
    <glyph glyph-name="x.sup" horiz-adv-x="358" 
d="M3 302l-1 2q1 2 73.5 81.5t105.5 117.5l-106 192h69q5 -7 30 -60q39 -76 47 -90l48 58q5 6 35 40t45 52h73q-16 -17 -113 -124l-63 -70q2 -4 27.5 -49.5t37.5 -69.5l44 -80h-69l-59 120q-15 25 -20 38q-5 -6 -48 -57.5t-64 -73.5q-4 -4 -12 -13t-11 -14h-69z" />
    <glyph glyph-name="y.sup" horiz-adv-x="385" 
d="M145 167h-65l80 137q-20 102 -53 249q-1 4 -30 143h68l20 -106q26 -137 39 -213q79 142 174 319h69l-117 -204q-7 -12 -76.5 -135.5t-108.5 -189.5z" />
    <glyph glyph-name="z.sup" horiz-adv-x="370" 
d="M25 302l9 48l208 216l46 48q4 4 10 12t10.5 12.5t9.5 6.5q-14 0 -55.5 -0.5t-56.5 -0.5h-113l9 51h305l-9 -52l-198 -204l-88 -87h49q12 0 33 0.5t30 0.5h126l-9 -51h-316z" />
    <glyph glyph-name="zero.sup" horiz-adv-x="454" 
d="M316 848q81 0 117 -44.5t36 -128.5q0 -52 -10 -105q-11 -58 -26.5 -103.5t-41.5 -87.5t-66.5 -65t-92.5 -23q-153 0 -153 169q0 55 10 108q10 59 25 104.5t40 87.5t66 65t96 23zM311 795q-44 0 -77 -33q-41 -39 -65 -134.5t-24 -174.5q0 -111 89 -111q56 0 103 68
q28 50 46 132.5t18 145.5q0 107 -90 107z" />
    <glyph glyph-name="one.sup" horiz-adv-x="294" 
d="M150 302l73 410h-129l7 42q71 1 107 20.5t51 64.5h50l-94 -537h-65z" />
    <glyph glyph-name="two.sup" horiz-adv-x="430" 
d="M391 302h-353l10 56q28 22 60 45q11 8 53.5 40t64.5 50l13 10q149 112 149 202q0 42 -24.5 66t-68.5 24q-102 0 -125 -126h-65q10 81 60.5 130.5t134.5 49.5q76 0 117 -36t41 -97q0 -36 -13.5 -70.5t-30 -59t-51.5 -56.5t-56 -48.5t-65 -49.5l-38 -26q-70 -45 -71 -46
h267z" />
    <glyph glyph-name="three.sup" horiz-adv-x="430" 
d="M56 458h64q-3 -57 28 -85.5t78 -28.5q56 0 90.5 34t34.5 89q0 50 -30.5 75.5t-80.5 25.5h-21l9 50h5q58 0 98.5 25.5t40.5 78.5q0 33 -23 53.5t-59 20.5q-85 0 -106 -91h-64q13 67 58.5 105.5t118.5 38.5q67 0 104 -30.5t37 -82.5q0 -54 -30.5 -91t-82.5 -49
q43 -12 69 -44.5t26 -79.5q0 -82 -55 -131t-146 -49q-82 0 -125 43t-38 123z" />
    <glyph glyph-name="four.sup" horiz-adv-x="447" 
d="M450 476l-9 -52h-79l-22 -122h-62l22 122h-256l8 49l214 244q4 5 14 15.5t15 16.5l76 90h64l-64 -363h79zM359 750l1 2q0 3 1 5q-2 -2 -47 -57.5t-63 -75.5l-44 -52l-54 -62l-30 -34h185q3 15 8.5 46t8.5 46q21 122 34 182zM362 759h-1v-2q0 1 1 2z" />
    <glyph glyph-name="five.sup" horiz-adv-x="426" 
d="M94 555l82 285h280l-10 -58h-228l-52 -170q44 38 107 38q67 0 109 -40t42 -111q0 -90 -52.5 -148.5t-144.5 -58.5q-77 0 -123.5 41t-52.5 118h66q3 -47 32.5 -76.5t82.5 -29.5q57 0 91.5 38.5t34.5 102.5q0 54 -31 83t-78 29q-62 0 -98 -53z" />
    <glyph glyph-name="six.sup" horiz-adv-x="449" 
d="M468 698h-66q-4 47 -28 72t-63 25q-55 0 -93 -47t-61 -159q17 23 51 40t78 17q70 0 112.5 -41t42.5 -115q0 -88 -53 -144t-142 -56q-167 0 -167 181q0 77 23 167.5t70 145.5q53 63 142 63q76 0 113.5 -42.5t40.5 -106.5zM269 594q-60 0 -92.5 -40.5t-32.5 -97.5
q0 -53 29 -84t78 -31q56 0 90 41.5t34 101.5q0 49 -29 79.5t-77 30.5z" />
    <glyph glyph-name="seven.sup" horiz-adv-x="374" 
d="M146 302h-78q33 57 121 197l43 68q67 109 145 216h-269l9 56h334l-9 -52l-25 -39q-192 -301 -271 -446z" />
    <glyph glyph-name="eight.sup" horiz-adv-x="446" 
d="M62 432q0 56 32 98t92 62q-55 39 -55 107q0 65 47.5 107t128.5 42q68 0 108.5 -34t40.5 -87q0 -50 -27 -86.5t-73 -52.5q39 -22 58.5 -49.5t19.5 -72.5q0 -80 -54 -127.5t-146 -47.5q-77 0 -124.5 37t-47.5 104zM299 796q-47 0 -77 -25.5t-30 -70.5q0 -40 24 -63t69 -23
q46 0 77 28.5t31 73.5q0 36 -26 58t-68 22zM260 563q-55 0 -94 -33.5t-39 -87.5q0 -47 30.5 -73.5t82.5 -26.5q59 0 94.5 33.5t35.5 90.5q0 45 -30.5 71t-79.5 26z" />
    <glyph glyph-name="nine.sup" horiz-adv-x="450" 
d="M74 440h66q4 -47 27.5 -72t63.5 -25q114 0 153 205q-41 -56 -127 -56q-71 0 -113.5 41t-42.5 115q0 88 53.5 144t142.5 56q166 0 166 -181q0 -79 -22 -169.5t-71 -143.5q-57 -63 -142 -63q-76 0 -113.5 42.5t-40.5 106.5zM274 544q60 0 92 40t32 98q0 54 -29 84.5
t-77 30.5q-57 0 -91 -41.5t-34 -101.5q0 -49 28.5 -79.5t78.5 -30.5z" />
    </font>
</defs>
</svg>
