<?xml version="1.0" standalone="no"?>
<!DOCTYPE svg PUBLIC "-//W3C//DTD SVG 1.1//EN" "http://www.w3.org/Graphics/SVG/1.1/DTD/svg11.dtd" >
<svg>
<metadata>
Created by FontForge 20120731 at Tue Dec 15 21:07:54 2015
 By ,,,
(c)2013 Optimo.
</metadata>
<defs>
<font id="Plain-Skeleton" horiz-adv-x="560" >
  <font-face 
    font-family="Plain Skeleton"
    font-weight="50"
    font-stretch="normal"
    units-per-em="1000"
    panose-1="2 11 0 4 2 2 2 2 2 4"
    ascent="803"
    descent="-197"
    x-height="525"
    cap-height="715"
    bbox="-50 -270 1246 1076"
    underline-thickness="50"
    underline-position="-50"
    unicode-range="U+000D-FB02"
  />
<missing-glyph horiz-adv-x="644" 
d="M50 240v49l309 309q14 -8 26 -23zM50 142v49l347 347v-15q0 -20 -13.5 -37.5t-41.5 -39.5t-37 -31q-23 -23 -36 -54zM104 0h-49l261 261h49l-93 -93h-23v-23zM321 168l273 273v-49l-224 -224h-49zM50 338v49l148 148l39 -2q0 29 20 52t55 23h8zM398 0h-49l33 33h2v2
l210 210v-49zM384 133l210 210v-49l-210 -210v49zM50 44v49l206 206v-38h11zM50 583l196 196h49l-44 -44q-54 -14 -93 -53.5t-54 -93.5l-54 -54v49zM537 482l57 57v-49l-216 -216v7q0 12 2.5 21t11 18.5t12.5 13.5t21 16t23 16q1 1 10 7.5t14 10.5t14.5 12.5t15.5 16.5
t13.5 18.5t13 23.5t8.5 27zM50 681l98 98h49l-147 -147v49zM496 0h-49l147 147v-49zM459 698l81 81h49l-104 -104q-25 22 -26 23zM50 436v49l56 56l46 -3zM506 647l88 88v-49l-70 -70q-6 13 -18 31zM202 0h-49l96 96v-49zM395 732l47 47h49l-62 -62q-15 8 -34 15zM536 579
l58 58v-49l-52 -52q0 13 -6 43zM307 742l37 37h49l-38 -38q-18 2 -28 2q-2 0 -6.5 -0.5t-6.5 -0.5h-7zM300 0h-49l33 33h49zM594 49v-49h-49zM50 779h49l-49 -49v49z" />
    <glyph glyph-name="fi" unicode="fi" horiz-adv-x="403" 
d="M215 715v-10q-14 2 -24 2q-40 0 -59 -22q-21 -25 -21 -87v-73h104v-10h-104v-515h-10v515h-75v10h75v73q0 62 21 90q23 29 69 29q10 0 24 -2zM303 525h10v-525h-10v525zM313 604h-10v111h10v-111z" />
    <glyph glyph-name="fl" unicode="fl" horiz-adv-x="407" 
d="M215 715v-10q-14 2 -24 2q-40 0 -59 -22q-21 -25 -21 -87v-73h104v-10h-104v-515h-10v515h-75v10h75v73q0 62 21 90q23 29 69 29q10 0 24 -2zM302 715h10v-715h-10v715z" />
    <glyph glyph-name=".notdef" horiz-adv-x="644" 
d="M50 240v49l309 309q14 -8 26 -23zM50 142v49l347 347v-15q0 -20 -13.5 -37.5t-41.5 -39.5t-37 -31q-23 -23 -36 -54zM104 0h-49l261 261h49l-93 -93h-23v-23zM321 168l273 273v-49l-224 -224h-49zM50 338v49l148 148l39 -2q0 29 20 52t55 23h8zM398 0h-49l33 33h2v2
l210 210v-49zM384 133l210 210v-49l-210 -210v49zM50 44v49l206 206v-38h11zM50 583l196 196h49l-44 -44q-54 -14 -93 -53.5t-54 -93.5l-54 -54v49zM537 482l57 57v-49l-216 -216v7q0 12 2.5 21t11 18.5t12.5 13.5t21 16t23 16q1 1 10 7.5t14 10.5t14.5 12.5t15.5 16.5
t13.5 18.5t13 23.5t8.5 27zM50 681l98 98h49l-147 -147v49zM496 0h-49l147 147v-49zM459 698l81 81h49l-104 -104q-25 22 -26 23zM50 436v49l56 56l46 -3zM506 647l88 88v-49l-70 -70q-6 13 -18 31zM202 0h-49l96 96v-49zM395 732l47 47h49l-62 -62q-15 8 -34 15zM536 579
l58 58v-49l-52 -52q0 13 -6 43zM307 742l37 37h49l-38 -38q-18 2 -28 2q-2 0 -6.5 -0.5t-6.5 -0.5h-7zM300 0h-49l33 33h49zM594 49v-49h-49zM50 779h49l-49 -49v49z" />
    <glyph glyph-name=".null" horiz-adv-x="0" 
 />
    <glyph glyph-name="nonmarkingreturn" horiz-adv-x="333" 
 />
    <glyph glyph-name="NULL" horiz-adv-x="0" 
 />
    <glyph glyph-name="NULL" horiz-adv-x="0" 
 />
    <glyph glyph-name="CR" unicode="&#xd;" horiz-adv-x="0" 
 />
    <glyph glyph-name="space" unicode=" " horiz-adv-x="284" 
 />
    <glyph glyph-name="exclam" unicode="!" horiz-adv-x="228" 
d="M118 186h-8q-1 42 -1 461v68h10v-68q0 -419 -1 -461zM109 0v111h10v-111h-10z" />
    <glyph glyph-name="quotedbl" unicode="&#x22;" horiz-adv-x="303" 
d="M92 451h-8q-1 35 -1 101v163h10q0 -20 -0.5 -76.5t-0.5 -86.5v-101zM219 451h-8q-1 35 -1 101v163h10q0 -20 -0.5 -76.5t-0.5 -86.5v-101z" />
    <glyph glyph-name="numbersign" unicode="#" 
d="M319 0l51 250h-224l-51 -250h-10l51 250h-117l2 10h117l46 221h-120l2 10h120l46 224h10l-46 -224h224l46 224h10l-46 -224h110l-2 -10h-110l-46 -221h113l-2 -10h-113l-51 -250h-10zM194 481l-46 -221h224l46 221h-224z" />
    <glyph glyph-name="dollar" unicode="$" 
d="M31 206h10q34 -203 240 -203q109 0 171 51t62 129q0 31 -10 55.5t-23 40t-43 30.5t-53.5 23.5t-69.5 23.5l-62 19q-111 33 -154 69.5t-43 109.5q0 75 58 120.5t161 47.5v106h10v-106q101 -2 159.5 -53t67.5 -142h-10q-25 185 -223 185q-102 0 -158 -44t-56 -114
q0 -67 41 -102.5t148 -68.5l63 -19q104 -32 138 -54q69 -44 69 -127t-65.5 -135.5t-173.5 -54.5v-110h-10v110q-214 5 -244 213z" />
    <glyph glyph-name="percent" unicode="%" horiz-adv-x="869" 
d="M198 332q-75 0 -115.5 53.5t-40.5 143.5q0 94 39 145t116 51t116.5 -50.5t39.5 -145.5q0 -89 -39.5 -143t-115.5 -54zM52 529q0 -88 37.5 -138t108.5 -50t108 50t37 138q0 91 -37 139t-109 48q-145 0 -145 -187zM292 0l275 715h11l-275 -715h-11zM672 -17
q-75 0 -115.5 53.5t-40.5 143.5q0 94 39 145t116 51t116.5 -50.5t39.5 -145.5q0 -89 -39.5 -143t-115.5 -54zM526 180q0 -88 37.5 -138t108.5 -50t108 50t37 138q0 91 -37 139t-109 48q-145 0 -145 -187z" />
    <glyph glyph-name="ampersand" unicode="&#x26;" horiz-adv-x="657" 
d="M606 378l8 -2q-43 -126 -115 -233q42 -49 112 -123l-8 -7l-110 122q-108 -145 -244 -145q-91 0 -141.5 50t-50.5 134q0 73 50.5 122.5t156.5 105.5q-3 3 -15 17t-15.5 18t-13.5 16.5t-13.5 18t-12 17.5t-11.5 19.5t-8 19t-7 21t-4 21t-2 23.5q0 59 38 97t111 38
t111.5 -34t38.5 -93q0 -60 -45 -108t-137 -94q52 -63 213 -250q30 42 63 110.5t51 118.5zM273 406q4 1 14.5 7t24 13.5t18.5 10.5q121 75 121 164q0 56 -37.5 87t-102.5 31q-71 0 -105 -36.5t-34 -89.5q0 -16 3 -31.5t10 -31.5t12.5 -27t18 -27t18 -23t20.5 -25t19 -22z
M486 141l-217 254q-104 -59 -138 -89q-64 -57 -64 -132q0 -81 48.5 -127.5t133.5 -46.5q133 0 237 141z" />
    <glyph glyph-name="quotesingle" unicode="'" horiz-adv-x="174" 
d="M91 451h-8q-1 35 -1 101v163h10q0 -20 -0.5 -76.5t-0.5 -86.5v-101z" />
    <glyph glyph-name="parenleft" unicode="(" horiz-adv-x="274" 
d="M54 300q0 145 51.5 263.5t141.5 190.5v-10q-183 -159 -183 -444q0 -286 183 -444v-10q-89 69 -141 189.5t-52 264.5z" />
    <glyph glyph-name="parenright" unicode=")" horiz-adv-x="274" 
d="M220 300q0 -144 -52 -264.5t-141 -189.5v10q183 158 183 444q0 285 -183 444v10q90 -72 141.5 -190.5t51.5 -263.5z" />
    <glyph glyph-name="asterisk" unicode="*" horiz-adv-x="444" 
d="M228 715l-1 -155l147 50l3 -9l-148 -48l93 -125l-8 -5l-91 125l-90 -126l-8 6l92 125l-148 47l3 9l147 -49l-1 155h10z" />
    <glyph glyph-name="plus" unicode="+" 
d="M502 317h-217v-222h-10v222h-218v10h218v223h10v-223h217v-10z" />
    <glyph glyph-name="comma" unicode="," horiz-adv-x="202" 
d="M118 111l-76 -232h-10l76 232h10z" />
    <glyph glyph-name="hyphen" unicode="-" horiz-adv-x="426" 
d="M77 289v10h272v-10h-272z" />
    <glyph glyph-name="period" unicode="." horiz-adv-x="164" 
d="M77 0v111h10v-111h-10z" />
    <glyph glyph-name="slash" unicode="/" horiz-adv-x="380" 
d="M41 -105l289 820h10l-289 -820h-10z" />
    <glyph glyph-name="zero" unicode="0" 
d="M279 -4q124 0 176.5 91.5t52.5 268.5q0 82 -11 145t-36.5 113.5t-71 77t-110.5 26.5t-110.5 -26.5t-70.5 -77t-36 -113t-11 -145.5q0 -177 52.5 -268.5t175.5 -91.5zM279 -14q-69 0 -116.5 27.5t-73.5 79.5t-37 115.5t-11 147.5q0 78 10 139t35 116.5t74 86t119 30.5
q239 0 239 -372q0 -84 -11 -147.5t-37 -115.5t-74 -79.5t-117 -27.5z" />
    <glyph glyph-name="one" unicode="1" 
d="M337 0v582h-196v9h117q57 0 68 6.5t11 41.5l1 76h9v-715h-10z" />
    <glyph glyph-name="two" unicode="2" 
d="M506 0h-454v7q33 27 70 60t90.5 82.5t67.5 62.5q111 101 153.5 170.5t42.5 145.5q0 82 -48 136.5t-145 54.5q-199 0 -210 -208h-10q4 101 59.5 159.5t160.5 58.5q100 0 151.5 -57t51.5 -144q0 -49 -16 -94t-51 -88.5t-61.5 -71t-75.5 -72.5q-164 -154 -213 -192h437v-10z
" />
    <glyph glyph-name="three" unicode="3" 
d="M50 196h10q19 -200 219 -200q101 0 159.5 60.5t58.5 143.5q0 91 -65 137t-170 46h-24v10q100 0 163.5 45.5t63.5 126.5q0 66 -47 110t-136 44q-91 0 -141 -46t-55 -124h-10q5 84 59 132t147 48q91 0 142 -44t51 -118q0 -75 -48 -120.5t-128 -55.5v-2q90 -4 149 -52
t59 -137q0 -95 -65.5 -154.5t-162.5 -59.5q-103 0 -162 53t-67 157z" />
    <glyph glyph-name="four" unicode="4" 
d="M532 198v-10h-140v-188h-10v188h-361v6l366 522h5v-518h140zM383 693h-2q-3 -5 -31 -45t-70.5 -100.5t-69.5 -100.5l-50 -71q-76 -108 -79 -113l-46 -65h347v172q0 66 0.5 191t0.5 132z" />
    <glyph glyph-name="five" unicode="5" 
d="M91 351l37 364h343v-10h-335l-35 -348q69 89 186 89q96 0 155 -59.5t59 -162.5q0 -105 -62 -171.5t-164 -66.5q-96 0 -153.5 52t-68.5 147h10q7 -77 59 -133t153 -56q104 0 160 66.5t56 161.5q0 93 -52.5 153t-151.5 60q-115 0 -183 -90z" />
    <glyph glyph-name="six" unicode="6" 
d="M502 531h-10q-6 31 -14 55t-23.5 50t-35.5 43.5t-52 28.5t-72 11q-111 0 -171 -88t-60 -290q0 -74 6 -128h1q-2 100 61 167t163 67q103 0 161 -60.5t58 -165.5q0 -107 -62.5 -171t-165.5 -64q-146 0 -198 124q-34 81 -34 231q0 202 61 295t180 93q171 0 207 -198z
M295 437q-95 0 -155 -61.5t-60 -158.5q0 -102 55 -161.5t151 -59.5q98 0 158 60t60 165q0 97 -54 156.5t-155 59.5z" />
    <glyph glyph-name="seven" unicode="7" 
d="M194 0h-11q66 157 159 351q26 54 82.5 174t85.5 180h-443v10h453v-8l-28 -62q-36 -77 -100.5 -212t-112.5 -238.5t-85 -194.5z" />
    <glyph glyph-name="eight" unicode="8" 
d="M280 -4q108 0 167.5 51.5t59.5 140.5q0 84 -59 136t-168 52t-168 -52t-59 -136q0 -89 59.5 -140.5t167.5 -51.5zM280 385q91 0 144.5 47.5t53.5 120.5q0 72 -53.5 119t-144.5 47t-144.5 -47t-53.5 -119q0 -73 53.5 -120.5t144.5 -47.5zM280 -14q-111 0 -174 54.5
t-63 147.5q0 79 51.5 133t139.5 60q-73 8 -117.5 56t-44.5 116q0 77 57 126.5t151 49.5t151 -49.5t57 -126.5q0 -68 -44.5 -116t-117.5 -56q88 -6 139.5 -60t51.5 -133q0 -93 -63 -147.5t-174 -54.5z" />
    <glyph glyph-name="nine" unicode="9" 
d="M57 184h10q6 -31 14 -55t23.5 -50t35.5 -43.5t52 -28.5t72 -11q111 0 171 88t60 290q0 74 -6 128h-1q2 -100 -61 -167t-163 -67q-103 0 -161 60.5t-58 165.5q0 107 62.5 171t165.5 64q146 0 198 -124q34 -81 34 -231q0 -202 -61 -295t-180 -93q-171 0 -207 198zM264 278
q95 0 155 61.5t60 158.5q0 102 -55 161.5t-151 59.5q-98 0 -158 -60t-60 -165q0 -97 54 -156.5t155 -59.5z" />
    <glyph glyph-name="colon" unicode=":" horiz-adv-x="164" 
d="M77 0v111h10v-111h-10zM77 379v111h10v-111h-10z" />
    <glyph glyph-name="semicolon" unicode=";" horiz-adv-x="223" 
d="M107 379v111h10v-111h-10zM135 111l-76 -232h-10l76 232h10z" />
    <glyph glyph-name="less" unicode="&#x3c;" 
d="M66 320v8l396 218v-11l-384 -210v-1l384 -216v-11z" />
    <glyph glyph-name="equal" unicode="=" 
d="M59 410v10h442v-10h-442zM59 225v10h442v-10h-442z" />
    <glyph glyph-name="greater" unicode="&#x3e;" 
d="M493 328v-8l-396 -223v11l384 216v1l-384 210v11z" />
    <glyph glyph-name="question" unicode="?" horiz-adv-x="475" 
d="M241 201h-10q0 58 18 90t70 82l26 24q39 36 60 73.5t21 91.5q0 72 -45 114.5t-133 42.5q-100 0 -147.5 -56.5t-49.5 -151.5h-10q0 101 53.5 159.5t153.5 58.5q92 0 140 -45.5t48 -121.5q0 -58 -25.5 -99.5t-68.5 -80.5l-14 -13q-54 -52 -70.5 -80.5t-16.5 -87.5zM231 0
v111h10v-111h-10z" />
    <glyph glyph-name="at" unicode="@" horiz-adv-x="844" 
d="M592 527h10q-24 -147 -49 -271q-4 -17 -4 -36q0 -27 14.5 -39.5t49.5 -12.5q70 0 121 68.5t51 183.5q0 134 -92 217.5t-246 83.5q-171 0 -274.5 -108t-103.5 -263q0 -160 103 -262.5t279 -102.5q156 0 271 99l7 -7q-111 -102 -278 -102q-173 0 -282.5 102.5t-109.5 272.5
q0 160 108 270.5t280 110.5q156 0 252 -86.5t96 -223.5q0 -116 -53 -189t-129 -73q-73 0 -73 59q0 17 6 41h-1q-15 -43 -53 -72.5t-90 -29.5q-70 0 -109 42t-39 121q0 87 49 152t134 65q64 0 98 -39t34 -99h1zM437 527q-78 0 -125.5 -60t-47.5 -147q0 -73 36 -113.5
t102 -40.5q43 0 75 20t50 53t26.5 70t8.5 77q0 62 -31 101.5t-94 39.5z" />
    <glyph glyph-name="A" unicode="A" horiz-adv-x="636" 
d="M315 715h9l277 -715h-11l-108 281h-329l-110 -281h-11zM320 700h-1l-46 -117l-84 -214l-31 -78h319l-31 84q-15 38 -41.5 105.5t-47.5 121.5t-37 98z" />
    <glyph glyph-name="B" unicode="B" horiz-adv-x="629" 
d="M109 0v715h167q58 0 107 -7q156 -23 156 -167q0 -75 -44 -119t-121 -51v-1q88 -6 142.5 -49.5t54.5 -125.5q0 -105 -78 -155q-66 -40 -192 -40h-192zM119 364v-354h182q123 0 186 38q74 45 74 147q0 88 -67.5 128.5t-183.5 40.5h-191zM119 705v-331h191q219 0 219 167
q0 134 -150 157q-45 7 -103 7h-157z" />
    <glyph glyph-name="C" unicode="C" horiz-adv-x="773" 
d="M711 206h11q-37 -104 -119.5 -162t-198.5 -58q-156 0 -251.5 103t-95.5 269t96 268.5t251 102.5q118 0 201 -61t119 -168h-11q-34 103 -114.5 161t-194.5 58q-152 0 -244.5 -99.5t-92.5 -261.5q0 -161 93 -261.5t244 -100.5q111 0 191 55.5t116 154.5z" />
    <glyph glyph-name="D" unicode="D" horiz-adv-x="704" 
d="M109 0v715h136q142 0 229 -42q170 -83 170 -312q0 -187 -109 -279q-52 -44 -116 -63t-176 -19h-134zM119 705v-695h124q152 0 235 45q156 86 156 306q0 227 -171 306q-81 38 -218 38h-126z" />
    <glyph glyph-name="E" unicode="E" horiz-adv-x="605" 
d="M109 0v715h431v-10h-421v-332h397v-10h-397v-353h428v-10h-438z" />
    <glyph glyph-name="F" unicode="F" horiz-adv-x="590" 
d="M119 0h-10v715h420v-10h-410v-332h386v-10h-386v-363z" />
    <glyph glyph-name="G" unicode="G" horiz-adv-x="793" 
d="M713 237q-16 -107 -100 -179t-206 -72q-158 0 -254 102.5t-96 268.5q0 165 96.5 268.5t252.5 103.5q121 0 202 -60.5t117 -168.5h-10q-37 100 -113 159.5t-196 59.5q-153 0 -246 -102t-93 -259q0 -161 92 -261.5t248 -100.5q72 0 131.5 27.5t96 71t56.5 94.5t20 102v39
h-319v10h329v-340h-10v91q0 50 1 83q0 40 1 63z" />
    <glyph glyph-name="H" unicode="H" horiz-adv-x="709" 
d="M590 367h-471v-367h-10v715h10v-338h471v338h10v-715h-10v367z" />
    <glyph glyph-name="I" unicode="I" horiz-adv-x="228" 
d="M109 715h10v-715h-10v715z" />
    <glyph glyph-name="J" unicode="J" horiz-adv-x="452" 
d="M340 715h10v-508q0 -103 -29 -152q-39 -69 -136 -69q-152 0 -152 187h10q0 -177 142 -177q92 0 127 63q28 49 28 147v509z" />
    <glyph glyph-name="K" unicode="K" horiz-adv-x="553" 
d="M109 0v715h10v-335l398 335h14l-398 -336l405 -379h-14l-405 378v-378h-10z" />
    <glyph glyph-name="L" unicode="L" horiz-adv-x="549" 
d="M109 715h10v-705h400v-10h-410v715z" />
    <glyph glyph-name="M" unicode="M" horiz-adv-x="758" 
d="M378 0h-12l-169 480q-64 182 -78 223h-1q0 -24 0.5 -136t0.5 -166v-401h-10v715h15l153 -428q12 -34 47.5 -136.5t47.5 -137.5h1q47 145 106 291l158 411h12v-715h-10v372q0 301 2 331h-1q-5 -18 -122 -325z" />
    <glyph glyph-name="N" unicode="N" horiz-adv-x="699" 
d="M109 715h13l288 -440q156 -236 170 -262h1q0 17 -0.5 127.5t-0.5 148.5v426h10v-715h-13l-282 431q-158 243 -176 271h-1q0 -16 0.5 -161t0.5 -180v-361h-10v715z" />
    <glyph glyph-name="O" unicode="O" horiz-adv-x="808" 
d="M404 729q154 0 250.5 -103t96.5 -268q0 -166 -95.5 -269t-251.5 -103t-251.5 103t-95.5 269t96 268.5t251 102.5zM404 -4q151 0 244 100t93 262t-93 261.5t-244 99.5q-152 0 -244.5 -99.5t-92.5 -261.5q0 -161 93 -261.5t244 -100.5z" />
    <glyph glyph-name="P" unicode="P" horiz-adv-x="571" 
d="M109 0v715h162q123 0 189 -44.5t66 -153.5t-69 -159.5t-191 -50.5h-147v-307h-10zM119 705v-388h147q123 0 186.5 50.5t63.5 149.5q0 100 -60.5 144t-184.5 44h-152z" />
    <glyph glyph-name="Q" unicode="Q" horiz-adv-x="808" 
d="M404 729q154 0 250.5 -103t96.5 -268q0 -105 -38.5 -186t-110.5 -129l96 -93h-14l-90 87q-82 -51 -190 -51q-156 0 -251.5 103t-95.5 269t96 268.5t251 102.5zM407 220h14l173 -169q70 46 108.5 125.5t38.5 181.5q0 162 -93 261.5t-244 99.5q-152 0 -244.5 -99.5
t-92.5 -261.5q0 -161 93 -261.5t244 -100.5q105 0 182 49z" />
    <glyph glyph-name="R" unicode="R" horiz-adv-x="585" 
d="M109 0v715h162q79 0 125 -14q133 -39 133 -179q0 -89 -55 -138.5t-142 -58.5l197 -325h-14l-195 324h-201v-324h-10zM119 705v-371h177q100 0 160 48q63 49 63 140q0 132 -128 170q-41 13 -120 13h-152z" />
    <glyph glyph-name="S" unicode="S" horiz-adv-x="607" 
d="M48 203h10q19 -101 77 -154t168 -53t174 52.5t64 129.5q0 32 -10.5 57.5t-26 42.5t-44.5 32t-54 24.5t-66 21.5l-65 19q-113 33 -157.5 71t-44.5 112q0 77 61 124t167 47q107 0 168 -51.5t70 -147.5h-10q-24 189 -228 189q-104 0 -161 -45t-57 -116q0 -68 42 -104.5
t151 -69.5l66 -20q44 -13 64 -20t53.5 -23.5t49.5 -33t29 -45t13 -64.5q0 -85 -68.5 -138.5t-179.5 -53.5q-222 0 -255 217z" />
    <glyph glyph-name="T" unicode="T" horiz-adv-x="531" 
d="M261 0v705h-238v10h485v-10h-237v-705h-10z" />
    <glyph glyph-name="U" unicode="U" horiz-adv-x="666" 
d="M333 -4q123 0 173 63t50 190v466h10v-466q0 -139 -55 -201t-178 -62t-178 62t-55 201v466h10v-466q0 -127 50 -190t173 -63z" />
    <glyph glyph-name="V" unicode="V" horiz-adv-x="634" 
d="M445 342l144 373h11l-277 -715h-9l-283 715h11l146 -369q0 -1 85 -214l45 -117h1q14 39 126 327z" />
    <glyph glyph-name="W" unicode="W" horiz-adv-x="753" 
d="M704 715l-159 -715h-9l-90 406q-8 38 -31.5 142t-32.5 150h-2q-7 -34 -74 -321l-89 -377h-11l-155 715h11l96 -449q41 -183 53 -248h1q7 37 16.5 78.5t22 91.5t18.5 78l106 449h12l99 -440q31 -137 54 -255h1q21 104 55 258l97 437h11z" />
    <glyph glyph-name="X" unicode="X" horiz-adv-x="581" 
d="M546 715l-250 -348l267 -367h-12l-261 358l-258 -358h-12l264 367l-253 348h12l247 -340l244 340h12z" />
    <glyph glyph-name="Y" unicode="Y" horiz-adv-x="596" 
d="M292 0v272l-260 443h12q31 -52 117.5 -200.5t135.5 -231.5q29 48 126 208.5t134 223.5h12l-267 -443v-272h-10z" />
    <glyph glyph-name="Z" unicode="Z" horiz-adv-x="570" 
d="M33 0v7q12 15 59.5 82.5t59.5 84.5l273 385q21 29 60 85.5t42 60.5h-492v10h506v-7q-46 -69 -115 -165l-259 -366q-79 -107 -120 -167h484v-10h-498z" />
    <glyph glyph-name="bracketleft" unicode="[" horiz-adv-x="260" 
d="M225 -103v-10h-119v828h119v-10h-109v-808h109z" />
    <glyph glyph-name="backslash" unicode="\" horiz-adv-x="380" 
d="M50 715l289 -820h-10l-289 820h10z" />
    <glyph glyph-name="bracketright" unicode="]" horiz-adv-x="260" 
d="M35 -113v10h109v808h-109v10h119v-828h-119z" />
    <glyph glyph-name="asciicircum" unicode="^" 
d="M278 684h8l218 -396h-11l-210 384h-1l-216 -384h-11z" />
    <glyph glyph-name="underscore" unicode="_" horiz-adv-x="606" 
d="M65 -125v10h476v-10h-476z" />
    <glyph glyph-name="grave" unicode="`" horiz-adv-x="429" 
d="M267 596l-133 119h15l131 -119h-13z" />
    <glyph glyph-name="a" unicode="a" horiz-adv-x="536" 
d="M83 367h-10q0 74 52 123t141 49q188 0 188 -217q0 -32 -0.5 -60t-0.5 -29v-124q0 -66 9 -109h-10q-12 45 -7 145h-1q-17 -77 -78.5 -117t-143.5 -40q-74 0 -122.5 37t-48.5 106q0 36 16 62t49.5 42t70 25.5t92.5 18.5q14 2 45 6t69 8t51 6v29q0 201 -179 201
q-87 0 -133.5 -46.5t-48.5 -115.5zM444 202v88q-166 -20 -187 -24q-96 -16 -146 -46.5t-50 -88.5q0 -57 43 -95t118 -38q91 0 156.5 52t65.5 152z" />
    <glyph glyph-name="b" unicode="b" horiz-adv-x="618" 
d="M90 0v715h10v-261q0 -75 -1 -112q13 81 73.5 139t150.5 58q107 0 173.5 -76t66.5 -201q0 -129 -66 -202t-174 -73q-91 0 -150.5 56t-73.5 141v-31q0 -9 0.5 -26.5t0.5 -22.5v-104h-10zM323 -3q104 0 167 71.5t63 193.5q0 120 -63.5 193.5t-166.5 73.5q-101 0 -162.5 -74
t-61.5 -192q0 -121 61 -193.5t163 -72.5z" />
    <glyph glyph-name="c" unicode="c" horiz-adv-x="590" 
d="M530 167h10q-22 -83 -84 -131.5t-153 -48.5q-115 0 -182 75.5t-67 199.5q0 123 68.5 200t182.5 77q91 0 154.5 -51t81.5 -135h-10q-21 81 -80 128.5t-146 47.5q-111 0 -176 -75t-65 -192q0 -118 64.5 -191.5t174.5 -73.5q86 0 146.5 45.5t80.5 124.5z" />
    <glyph glyph-name="d" unicode="d" horiz-adv-x="617" 
d="M527 715v-715h-10v104v49q0 20 1 31q-14 -85 -73.5 -141t-150.5 -56q-108 0 -174 73t-66 202q0 125 66.5 201t173.5 76q90 0 150.5 -58t73.5 -139q-1 37 -1 112v261h10zM294 -3q102 0 163 72.5t61 193.5q0 118 -61.5 192t-162.5 74q-103 0 -166.5 -73.5t-63.5 -193.5
q0 -122 63 -193.5t167 -71.5z" />
    <glyph glyph-name="e" unicode="e" horiz-adv-x="587" 
d="M539 279h-475v-13q0 -121 62.5 -195t173.5 -74q83 0 139.5 40.5t80.5 112.5h10q-24 -76 -83.5 -119.5t-146.5 -43.5q-116 0 -181 76.5t-65 198.5q0 123 67 200t180 77q109 0 171.5 -72.5t66.5 -187.5zM301 529q-102 0 -166 -67t-70 -173h463q-6 104 -65.5 172t-161.5 68z
" />
    <glyph glyph-name="f" unicode="f" horiz-adv-x="226" 
d="M215 715v-10q-14 2 -24 2q-40 0 -59 -22q-21 -25 -21 -87v-73h104v-10h-104v-515h-10v515h-75v10h75v73q0 62 21 90q23 29 69 29q10 0 24 -2z" />
    <glyph glyph-name="g" unicode="g" horiz-adv-x="587" 
d="M285 -180q107 0 155 63t48 191q0 8 1 64t1 74q-11 -77 -65.5 -132t-142.5 -55q-104 0 -165 70.5t-61 183.5q0 116 62.5 188t163.5 72q88 0 142 -52t65 -124q-1 15 -1 40v49v73h10v-451q0 -128 -49 -196t-164 -68q-94 0 -146 48.5t-65 124.5h11q10 -67 58.5 -115
t141.5 -48zM282 35q96 0 151.5 70t55.5 180q0 105 -51.5 174.5t-156.5 69.5q-101 0 -158 -72.5t-57 -177.5q0 -104 56.5 -174t159.5 -70z" />
    <glyph glyph-name="h" unicode="h" horiz-adv-x="570" 
d="M90 715h10v-227q0 -9 -0.5 -40.5t-0.5 -48.5v-57q1 30 12 62t33 63.5t62 51.5t91 20q128 0 171 -103q19 -41 19 -117v-319h-10v319q0 71 -19 113q-44 97 -161 97q-94 0 -145.5 -68.5t-51.5 -163.5v-297h-10v715z" />
    <glyph glyph-name="i" unicode="i" horiz-adv-x="190" 
d="M90 525h10v-525h-10v525zM100 604h-10v111h10v-111z" />
    <glyph glyph-name="j" unicode="j" horiz-adv-x="190" 
d="M90 525h10v-598q0 -66 -21.5 -95t-70.5 -29q-7 0 -21 2v10q10 -2 21 -2q44 0 63 25.5t19 87.5v599zM100 604h-10v111h10v-111z" />
    <glyph glyph-name="k" unicode="k" horiz-adv-x="430" 
d="M409 0h-14l-295 276v-276h-10v715h10v-432l281 242h15l-285 -245z" />
    <glyph glyph-name="l" unicode="l" horiz-adv-x="200" 
d="M95 715h10v-715h-10v715z" />
    <glyph glyph-name="m" unicode="m" horiz-adv-x="939" 
d="M90 0v445q0 53 -1 80h11v-37q0 -23 -0.5 -79t-0.5 -60q2 30 13 61t32.5 61t60 49t88.5 19q84 0 133 -52.5t49 -130.5q3 40 23 80t65.5 71.5t107.5 31.5q123 0 166 -103q19 -41 19 -117v-319h-10v319q0 71 -19 113q-44 97 -156 97q-92 0 -142.5 -66t-50.5 -158v-305h-10
v319q0 71 -19 113q-44 97 -156 97q-94 0 -143.5 -68.5t-49.5 -163.5v-297h-10z" />
    <glyph glyph-name="n" unicode="n" horiz-adv-x="570" 
d="M90 0v445q0 53 -1 80h11v-37q0 -9 -0.5 -40.5t-0.5 -48.5v-57q1 30 12 62t33 63.5t62 51.5t91 20q128 0 171 -103q19 -41 19 -117v-319h-10v319q0 71 -19 113q-44 97 -161 97q-94 0 -145.5 -68.5t-51.5 -163.5v-297h-10z" />
    <glyph glyph-name="o" unicode="o" horiz-adv-x="610" 
d="M304 -3q110 0 176 72.5t66 192.5q0 118 -66 192.5t-175 74.5t-175 -74.5t-66 -192.5q0 -120 65 -192.5t175 -72.5zM303 -13q-115 0 -182 76.5t-67 198.5q0 124 69 200.5t182 76.5t182 -76.5t69 -200.5q0 -122 -68.5 -198.5t-184.5 -76.5z" />
    <glyph glyph-name="p" unicode="p" horiz-adv-x="618" 
d="M90 -180v705h10v-104q0 -5 -0.5 -22.5t-0.5 -26.5v-31q15 85 74 141t150 56q108 0 174 -73t66 -202q0 -125 -66.5 -201t-173.5 -76q-90 0 -150.5 58t-73.5 139q1 -37 1 -112v-251h-10zM323 528q-102 0 -163 -72.5t-61 -193.5q0 -118 61.5 -192t162.5 -74
q103 0 166.5 73.5t63.5 193.5q0 122 -63 193.5t-167 71.5z" />
    <glyph glyph-name="q" unicode="q" horiz-adv-x="617" 
d="M527 525v-706h-10v252q0 75 1 112q-13 -81 -73.5 -139t-150.5 -58q-107 0 -173.5 76t-66.5 201q0 129 66 202t174 73q91 0 150 -56t74 -141q-1 11 -1 31v49v104h10zM294 528q-104 0 -167 -71.5t-63 -193.5q0 -120 63.5 -193.5t166.5 -73.5q101 0 162.5 74t61.5 192
q0 121 -61 193.5t-163 72.5z" />
    <glyph glyph-name="r" unicode="r" horiz-adv-x="259" 
d="M98 348h1q2 77 37 133t94 56q10 0 17 -1v-10q-7 1 -17 1q-36 0 -62.5 -22t-40.5 -61t-20.5 -82.5t-6.5 -94.5v-267h-10v446q0 55 -1 79h11v-69q0 -10 -1 -51.5t-1 -56.5z" />
    <glyph glyph-name="s" unicode="s" horiz-adv-x="494" 
d="M46 141h10q31 -144 190 -144q91 0 138 39t47 99q0 53 -35.5 78t-118.5 47l-48 14q-90 23 -125 50.5t-35 85.5q0 57 48.5 93t128.5 36t128 -35t59 -99h-10q-25 124 -177 124q-80 0 -123 -33t-44 -86q0 -52 32 -78t120 -49l50 -14q83 -21 121.5 -48t38.5 -86
q0 -69 -52.5 -108.5t-142.5 -39.5q-170 0 -200 154z" />
    <glyph glyph-name="t" unicode="t" horiz-adv-x="229" 
d="M206 5v-10q-14 -2 -23 -2q-53 0 -69 29.5t-16 96.5v396h-74v10h74v142h10v-142h98v-10h-98v-396q0 -66 14 -91t61 -25q9 0 23 2z" />
    <glyph glyph-name="u" unicode="u" horiz-adv-x="563" 
d="M473 525v-445q0 -53 1 -80h-11v37v89q0 37 1 57q-1 -30 -12 -62t-32.5 -63.5t-61 -51.5t-90.5 -20q-123 0 -166 103q-19 41 -19 117v319h10v-319q0 -71 19 -113q44 -97 156 -97q93 0 144 68.5t51 163.5v297h10z" />
    <glyph glyph-name="v" unicode="v" horiz-adv-x="475" 
d="M243 0h-11l-196 525h10l112 -300q10 -28 37.5 -101t41.5 -112h2q18 52 82 223l109 290h10z" />
    <glyph glyph-name="w" unicode="w" horiz-adv-x="745" 
d="M371 525h13l80 -290q12 -47 31.5 -118t27.5 -104h2q12 33 25 74q6 17 21.5 64.5t23.5 69.5l105 304h10q-58 -160 -112 -322l-69 -203h-11l-140 513h-2l-152 -513h-11l-174 525h10l101 -302q34 -108 44 -136l24 -74h2q32 122 66 232z" />
    <glyph glyph-name="x" unicode="x" horiz-adv-x="471" 
d="M429 525h12l-200 -264l199 -261h-12l-193 254l-192 -254h-12l198 262l-199 263h13l192 -256z" />
    <glyph glyph-name="y" unicode="y" horiz-adv-x="482" 
d="M177 -180h-10l70 180l-206 525h11l115 -298q10 -26 40 -100t44 -114h2q10 30 24 66.5t32 82.5t28 73l111 290h10q-15 -40 -54 -142t-103.5 -268.5t-113.5 -294.5z" />
    <glyph glyph-name="z" unicode="z" horiz-adv-x="487" 
d="M39 0v8l266 339l131 168h-398v10h412v-8l-257 -328q-9 -11 -69 -87.5t-73 -91.5h396v-10h-408z" />
    <glyph glyph-name="braceleft" unicode="{" horiz-adv-x="253" 
d="M42 298v9q47 15 60.5 36t13.5 83v208q0 49 17.5 65.5t61.5 16.5q4 0 8.5 -0.5t5.5 -0.5h5v-9q-8 1 -21 1q-41 0 -54 -15t-13 -58v-208q0 -58 -12.5 -84t-56.5 -39v-1q44 -13 56.5 -39t12.5 -84v-211q0 -43 13 -58t54 -15q13 0 21 1v-9q-1 -1 -5 -1h-14q-44 0 -61.5 16.5
t-17.5 65.5v211q0 62 -13.5 83t-60.5 36z" />
    <glyph glyph-name="bar" unicode="|" horiz-adv-x="224" 
d="M107 731h10v-794h-10v794z" />
    <glyph glyph-name="braceright" unicode="}" horiz-adv-x="253" 
d="M211 307v-9q-47 -15 -60.5 -36t-13.5 -83v-211q0 -49 -17.5 -65.5t-61.5 -16.5h-14q-4 0 -5 1v9q8 -1 21 -1q41 0 54 15t13 58v211q0 58 12.5 84t56.5 39v1q-44 13 -56.5 39t-12.5 84v208q0 43 -13 58t-54 15q-13 0 -21 -1v9h5q1 0 5.5 0.5t8.5 0.5q44 0 61.5 -16.5
t17.5 -65.5v-208q0 -62 13.5 -83t60.5 -36z" />
    <glyph glyph-name="asciitilde" unicode="~" 
d="M299 275l-64 30q-52 24 -80 24q-25 0 -46 -13t-30.5 -24.5t-26.5 -35.5l-8 4q46 79 111 79q38 0 96 -30l67 -32q46 -24 84 -24q36 0 61 20t49 57l8 -4q-50 -83 -118 -83q-35 0 -103 32z" />
    <glyph glyph-name="uni00A0" unicode="&#xa0;" horiz-adv-x="284" 
 />
    <glyph glyph-name="exclamdown" unicode="&#xa1;" horiz-adv-x="208" 
d="M101 337h8q1 -42 1 -464v-69h-10v69q0 422 1 464zM100 413v112h10v-112h-10z" />
    <glyph glyph-name="cent" unicode="&#xa2;" 
d="M515 167h10q-22 -82 -83.5 -130.5t-150.5 -49.5v-69h-10v69q-112 2 -177 78t-65 197t66 197t176 80v83h10v-83q89 0 153 -52t82 -134h-10q-21 80 -80 128t-145 49v-534q85 1 144.5 46.5t79.5 124.5zM49 262q0 -118 62.5 -191t169.5 -75v534q-108 -4 -170 -78.5
t-62 -189.5z" />
    <glyph glyph-name="sterling" unicode="&#xa3;" 
d="M484 10v-10h-420v8q70 11 104.5 63.5t34.5 116.5q0 70 -48 177h-108v10h104q-41 97 -41 169q0 80 51.5 132.5t143.5 52.5q91 0 141.5 -48t54.5 -140h-10q-11 178 -186 178q-88 0 -136.5 -49t-48.5 -126q0 -73 42 -169h200v-10h-196q1 -3 6.5 -15.5t7 -16t6 -15.5t6 -17.5
t5.5 -17t5.5 -18.5t4 -18t3.5 -19.5t2 -19t1 -20.5q0 -59 -27.5 -108t-85.5 -71q17 1 114 1h270z" />
    <glyph glyph-name="currency" unicode="&#xa4;" 
d="M496 137l-46 46q-71 -69 -170 -69q-100 0 -171 69l-47 -47l-7 7l47 47q-67 72 -67 169q0 99 69 170l-49 49l7 7l49 -49q70 68 169 68q96 0 168 -67l48 47l7 -7l-48 -47q70 -72 70 -171t-68 -169l46 -46zM45 359q0 -97 68.5 -166t166.5 -69t166.5 69t68.5 166t-68.5 166
t-166.5 69t-166.5 -69t-68.5 -166z" />
    <glyph glyph-name="yen" unicode="&#xa5;" 
d="M28 262v10h238l-96 163h-142v10h136l-158 270h12l253 -432q29 48 126 208.5t134 223.5h12l-163 -270h152v-10h-158l-98 -163h256v-10h-256v-262h-10v262h-238z" />
    <glyph glyph-name="brokenbar" unicode="&#xa6;" horiz-adv-x="174" 
d="M82 428v303h10v-303h-10zM82 -62v303h10v-303h-10z" />
    <glyph glyph-name="section" unicode="&#xa7;" 
d="M477 592h-9q-31 124 -179 124q-81 0 -122.5 -32.5t-41.5 -79.5q0 -48 32.5 -75t107.5 -59l82 -35q71 -30 102 -58.5t31 -79.5q0 -58 -39 -95.5t-91 -51.5q58 -26 86.5 -53t28.5 -69q0 -66 -51 -103.5t-141 -37.5q-81 0 -134 38t-67 116h10q31 -144 191 -144
q86 0 134 35.5t48 94.5q0 20 -8 36.5t-16.5 27t-32.5 24.5t-36.5 20t-48.5 22l-108 49q-36 17 -50.5 24.5t-37 25t-31 39t-8.5 51.5q0 55 38 89t99 47q-50 24 -75 49t-25 73q0 55 47.5 88.5t126.5 33.5q76 0 126 -34t62 -100zM211 214l129 -59q53 13 91.5 51t38.5 91
q0 48 -30 74.5t-96 54.5l-116 50q-55 -7 -97.5 -41t-42.5 -89q0 -49 29.5 -76.5t93.5 -55.5z" />
    <glyph glyph-name="dieresis" unicode="&#xa8;" horiz-adv-x="491" 
d="M217 616v80h10v-80h-10zM330 616v80h10v-80h-10z" />
    <glyph glyph-name="copyright" unicode="&#xa9;" horiz-adv-x="869" 
d="M624 275h10q-54 -139 -197 -139q-93 0 -151 61.5t-58 160.5q0 98 59 160t151 62q158 0 193 -144h-10q-13 58 -59 96t-124 38q-91 0 -145.5 -60.5t-54.5 -150.5t54 -151.5t145 -61.5q130 0 187 129zM811 360q0 -158 -110 -267.5t-268 -109.5q-156 0 -265.5 110t-109.5 267
t109.5 266.5t267.5 109.5q156 0 266 -110t110 -266zM801 360q0 151 -107 258.5t-259 107.5q-155 0 -261 -107t-106 -259t105 -259.5t261 -107.5q153 0 260 107.5t107 259.5z" />
    <glyph glyph-name="ordfeminine" unicode="&#xaa;" horiz-adv-x="452" 
d="M90 453h-9q0 56 39 93t106 37q142 0 142 -163q0 -16 -0.5 -33t-0.5 -21v-105q0 -52 7 -82h-10q-6 24 -6 78q0 3 0.5 11t-0.5 11q-15 -55 -59.5 -82t-104.5 -27q-56 0 -93 27.5t-37 79.5q0 50 43.5 74t127.5 38q7 1 56.5 7t66.5 8v21q0 149 -133 149q-64 0 -98.5 -34.5
t-36.5 -86.5zM358 330v65l-34 -4q-97 -13 -105 -14q-71 -11 -108 -33.5t-37 -66.5q0 -42 32 -70t88 -28q67 0 115.5 39t48.5 112z" />
    <glyph glyph-name="guillemotleft" unicode="&#xab;" horiz-adv-x="433" 
d="M361 473l-109 -187l109 -188h-10l-110 188l110 187h10zM185 473l-109 -187l109 -188h-10l-110 188l110 187h10z" />
    <glyph glyph-name="logicalnot" unicode="&#xac;" 
d="M34 437v10h503v-310h-10v300h-493z" />
    <glyph glyph-name="uni00AD" unicode="&#xad;" horiz-adv-x="437" 
d="M91 364v10h272v-10h-272z" />
    <glyph glyph-name="registered" unicode="&#xae;" horiz-adv-x="583" 
d="M227 366v264h68q93 0 93 -70q0 -33 -19.5 -53.5t-52.5 -23.5l70 -117h-9l-69 116h-74v-116h-7zM234 622v-132h63q83 0 83 69q0 63 -85 63h-61zM525 500q0 -98 -68.5 -166t-165.5 -68q-96 0 -164.5 68.5t-68.5 165.5t68 165t166 68q96 0 164.5 -68.5t68.5 -164.5zM516 500
q0 92 -65.5 158.5t-158.5 66.5q-97 0 -161.5 -66t-64.5 -159t64.5 -159t160.5 -66q95 0 160 66t65 159z" />
    <glyph glyph-name="macron" unicode="&#xaf;" horiz-adv-x="428" 
d="M97 652v10h244v-10h-244z" />
    <glyph glyph-name="degree" unicode="&#xb0;" horiz-adv-x="451" 
d="M226 400q-70 0 -118.5 47.5t-48.5 116.5q0 70 48.5 117.5t118.5 47.5t118 -47.5t48 -117.5t-47.5 -117t-118.5 -47zM69 564q0 -64 45.5 -109.5t111.5 -45.5q68 0 112 44.5t44 110.5q0 64 -45.5 110t-110.5 46q-67 0 -112 -45.5t-45 -110.5z" />
    <glyph glyph-name="plusminus" unicode="&#xb1;" 
d="M60 0v10h442v-10h-442zM502 326h-217v-213h-10v213h-218v10h218v214h10v-214h217v-10z" />
    <glyph glyph-name="twosuperior" unicode="&#xb2;" horiz-adv-x="428" 
d="M345 281h-270v9q18 14 54 46l93 81q59 53 86.5 96t27.5 88q0 52 -30.5 81.5t-87.5 29.5q-58 0 -89.5 -34.5t-35.5 -88.5h-10q4 59 39.5 96t95.5 37t94 -32.5t34 -87.5q0 -57 -36 -105t-106 -108q-6 -5 -27.5 -24t-44 -38t-45.5 -36h258v-10z" />
    <glyph glyph-name="threesuperior" unicode="&#xb3;" horiz-adv-x="400" 
d="M90 619h-10q6 48 37 77.5t85 29.5q53 0 83.5 -28t30.5 -73q0 -84 -93 -102v-1q52 -5 83 -35t31 -80q0 -57 -37 -92t-99 -35q-119 0 -137 120h10q18 -111 127 -111q62 0 94 34t32 83q0 53 -37.5 81.5t-98.5 28.5h-20v8q62 0 99 27t37 74q0 42 -28.5 66.5t-77.5 24.5
q-44 0 -74.5 -26.5t-36.5 -70.5z" />
    <glyph glyph-name="acute" unicode="&#xb4;" horiz-adv-x="427" 
d="M334 715l-133 -119h-13l131 119h15z" />
    <glyph glyph-name="mu" unicode="&#xb5;" horiz-adv-x="570" 
d="M100 -180h-10v705h10v-335q0 -54 19 -97q44 -97 156 -97q93 0 144 68.5t51 163.5v297h10v-445q0 -53 1 -80h-11v37q0 21 0.5 78t0.5 61q-2 -30 -13.5 -61t-33.5 -61t-61 -49t-88 -19q-72 0 -116 36.5t-59 98.5v-301z" />
    <glyph glyph-name="paragraph" unicode="&#xb6;" horiz-adv-x="422" 
d="M148 576v129q-83 0 -83 -63q0 -32 22 -49t61 -17zM158 705v-818h-10v679q-44 0 -68.5 20t-24.5 56q0 73 93 73h228v-10h-87v-818h-10v818h-121z" />
    <glyph glyph-name="periodcentered" unicode="&#xb7;" horiz-adv-x="164" 
d="M77 261v111h10v-111h-10z" />
    <glyph glyph-name="cedilla" unicode="&#xb8;" horiz-adv-x="369" 
d="M177 -163l78 115h11l-77 -115h-12z" />
    <glyph glyph-name="onesuperior" unicode="&#xb9;" horiz-adv-x="250" 
d="M155 631h-113v9h57h18t13.5 1.5t10 2t6.5 5t4 6.5t2.5 10.5t1.5 12t0.5 17t0.5 20.5h9v-424h-10v340z" />
    <glyph glyph-name="ordmasculine" unicode="&#xba;" horiz-adv-x="497" 
d="M247 179q82 0 131.5 54t49.5 143q0 87 -50 142.5t-130 55.5t-129.5 -55.5t-49.5 -142.5q0 -89 48.5 -143t129.5 -54zM246 170q-87 0 -136.5 56.5t-49.5 149.5t51.5 150.5t136.5 57.5q86 0 137.5 -57.5t51.5 -150.5t-51.5 -149.5t-139.5 -56.5z" />
    <glyph glyph-name="guillemotright" unicode="&#xbb;" horiz-adv-x="433" 
d="M181 286l-109 187h10l110 -187l-110 -188h-10zM357 286l-109 187h10l110 -187l-110 -188h-10z" />
    <glyph glyph-name="onequarter" unicode="&#xbc;" horiz-adv-x="730" 
d="M583 110h-207v8q48 69 207 316h10v-314h98v-10h-98v-110h-10v110zM583 120v127q0 13 1 88t1 85h-1q-8 -12 -33.5 -52t-44.5 -68l-42 -64q-14 -20 -48 -74l-27 -42h194zM187 0l275 715h11l-275 -715h-11zM151 631h-113v9h57h18t13.5 1.5t10 2t6.5 5t4 6.5t2.5 10.5t1.5 12
t0.5 17t0.5 20.5h9v-424h-10v340z" />
    <glyph glyph-name="onehalf" unicode="&#xbd;" horiz-adv-x="780" 
d="M724 0h-270v9q18 14 54 46l93 81q59 53 86.5 96t27.5 88q0 52 -30.5 81.5t-87.5 29.5q-58 0 -89.5 -34.5t-35.5 -88.5h-10q4 59 39.5 96t95.5 37t94 -32.5t34 -87.5q0 -57 -36 -105t-106 -108q-6 -5 -27.5 -24t-44 -38t-45.5 -36h258v-10zM187 0l275 715h11l-275 -715
h-11zM151 631h-113v9h57h18t13.5 1.5t10 2t6.5 5t4 6.5t2.5 10.5t1.5 12t0.5 17t0.5 20.5h9v-424h-10v340z" />
    <glyph glyph-name="threequarters" unicode="&#xbe;" horiz-adv-x="843" 
d="M78 619h-10q6 48 37 77.5t85 29.5q53 0 83.5 -28t30.5 -73q0 -84 -93 -102v-1q52 -5 83 -35t31 -80q0 -57 -37 -92t-99 -35q-119 0 -137 120h10q18 -111 127 -111q62 0 94 34t32 83q0 53 -37.5 81.5t-98.5 28.5h-20v8q62 0 99 27t37 74q0 42 -28.5 66.5t-77.5 24.5
q-44 0 -74.5 -26.5t-36.5 -70.5zM697 110h-207v8q48 69 207 316h10v-314h98v-10h-98v-110h-10v110zM697 120v127q0 13 1 88t1 85h-1q-8 -12 -33.5 -52t-44.5 -68l-42 -64q-14 -20 -48 -74l-27 -42h194zM301 0l275 715h11l-275 -715h-11z" />
    <glyph glyph-name="questiondown" unicode="&#xbf;" horiz-adv-x="464" 
d="M228 324h10q0 -58 -18 -90t-70 -82l-26 -24q-39 -36 -60 -73.5t-21 -91.5q0 -72 45 -114.5t133 -42.5q100 0 147.5 56.5t49.5 151.5h10q0 -101 -53.5 -159.5t-153.5 -58.5q-92 0 -140 45.5t-48 121.5q0 58 25.5 99.5t68.5 80.5l14 13q54 52 70.5 80.5t16.5 87.5zM238 525
v-111h-10v111h10z" />
    <glyph glyph-name="Agrave" unicode="&#xc0;" horiz-adv-x="636" 
d="M315 715h9l277 -715h-11l-108 281h-329l-110 -281h-11zM320 700h-1l-46 -117l-84 -214l-31 -78h319l-31 84q-15 38 -41.5 105.5t-47.5 121.5t-37 98zM340 761l-128 116h15l126 -116h-13z" />
    <glyph glyph-name="Aacute" unicode="&#xc1;" horiz-adv-x="636" 
d="M315 715h9l277 -715h-11l-108 281h-329l-110 -281h-11zM320 700h-1l-46 -117l-84 -214l-31 -78h319l-31 84q-15 38 -41.5 105.5t-47.5 121.5t-37 98zM420 877l-128 -116h-13l126 116h15z" />
    <glyph glyph-name="Acircumflex" unicode="&#xc2;" horiz-adv-x="636" 
d="M315 715h9l277 -715h-11l-108 281h-329l-110 -281h-11zM320 700h-1l-46 -117l-84 -214l-31 -78h319l-31 84q-15 38 -41.5 105.5t-47.5 121.5t-37 98zM315 875h10q17 -20 54 -62t46 -53h-12l-93 106l-93 -106h-12q9 11 46 53t54 62z" />
    <glyph glyph-name="Atilde" unicode="&#xc3;" horiz-adv-x="636" 
d="M315 715h9l277 -715h-11l-108 281h-329l-110 -281h-11zM320 700h-1l-46 -117l-84 -214l-31 -78h319l-31 84q-15 38 -41.5 105.5t-47.5 121.5t-37 98zM339 798l-51 25q-28 13 -44 13q-37 0 -50 -59h-10q14 69 60 69q22 0 53 -17l47 -23q32 -15 47 -15q40 0 52 61h10
q-13 -71 -62 -71q-16 0 -52 17z" />
    <glyph glyph-name="Adieresis" unicode="&#xc4;" horiz-adv-x="636" 
d="M315 715h9l277 -715h-11l-108 281h-329l-110 -281h-11zM320 700h-1l-46 -117l-84 -214l-31 -78h319l-31 84q-15 38 -41.5 105.5t-47.5 121.5t-37 98zM258 766v80h10v-80h-10zM371 766v80h10v-80h-10z" />
    <glyph glyph-name="Aring" unicode="&#xc5;" horiz-adv-x="636" 
d="M315 715h9l277 -715h-11l-108 281h-329l-110 -281h-11zM320 700h-1l-46 -117l-84 -214l-31 -78h319l-31 84q-15 38 -41.5 105.5t-47.5 121.5t-37 98zM318 759q-32 0 -54 22.5t-22 55.5q0 32 22 54t54 22t55 -22t23 -54q0 -33 -22.5 -55.5t-55.5 -22.5zM251 837
q0 -29 19 -49t48 -20t49 19.5t20 49.5q0 28 -20 47.5t-49 19.5t-48 -19.5t-19 -47.5z" />
    <glyph glyph-name="AE" unicode="&#xc6;" horiz-adv-x="862" 
d="M797 715v-10h-402l7 -332h371v-10h-371l6 -353h396v-10h-405l-4 260h-247l-139 -260h-11l387 715h412zM395 270l-4 184q-3 95 -3 251h-1q-55 -111 -101 -192l-133 -243h242z" />
    <glyph glyph-name="Ccedilla" unicode="&#xc7;" horiz-adv-x="773" 
d="M711 206h11q-37 -104 -119.5 -162t-198.5 -58q-156 0 -251.5 103t-95.5 269t96 268.5t251 102.5q118 0 201 -61t119 -168h-11q-34 103 -114.5 161t-194.5 58q-152 0 -244.5 -99.5t-92.5 -261.5q0 -161 93 -261.5t244 -100.5q111 0 191 55.5t116 154.5zM311 -163l78 115
h11l-77 -115h-12z" />
    <glyph glyph-name="Egrave" unicode="&#xc8;" horiz-adv-x="605" 
d="M109 0v715h431v-10h-421v-332h397v-10h-397v-353h428v-10h-438zM347 761l-128 116h15l126 -116h-13z" />
    <glyph glyph-name="Eacute" unicode="&#xc9;" horiz-adv-x="605" 
d="M109 0v715h431v-10h-421v-332h397v-10h-397v-353h428v-10h-438zM415 877l-128 -116h-13l126 116h15z" />
    <glyph glyph-name="Ecircumflex" unicode="&#xca;" horiz-adv-x="605" 
d="M109 0v715h431v-10h-421v-332h397v-10h-397v-353h428v-10h-438zM320 875h10q17 -20 54 -62t46 -53h-12l-93 106l-93 -106h-12q9 11 46 53t54 62z" />
    <glyph glyph-name="Edieresis" unicode="&#xcb;" horiz-adv-x="605" 
d="M109 0v715h431v-10h-421v-332h397v-10h-397v-353h428v-10h-438zM260 766v80h10v-80h-10zM373 766v80h10v-80h-10z" />
    <glyph glyph-name="Igrave" unicode="&#xcc;" horiz-adv-x="228" 
d="M109 715h10v-715h-10v715zM132 761l-128 116h15l126 -116h-13z" />
    <glyph glyph-name="Iacute" unicode="&#xcd;" horiz-adv-x="228" 
d="M109 715h10v-715h-10v715zM221 877l-128 -116h-13l126 116h15z" />
    <glyph glyph-name="Icircumflex" unicode="&#xce;" horiz-adv-x="228" 
d="M109 715h10v-715h-10v715zM110 875h10q17 -20 54 -62t46 -53h-12l-93 106l-93 -106h-12q9 11 46 53t54 62z" />
    <glyph glyph-name="Idieresis" unicode="&#xcf;" horiz-adv-x="228" 
d="M109 715h10v-715h-10v715zM54 766v80h10v-80h-10zM167 766v80h10v-80h-10z" />
    <glyph glyph-name="Eth" unicode="&#xd0;" horiz-adv-x="713" 
d="M39 355v10h79v350h136q142 0 229 -42q170 -83 170 -312q0 -187 -109 -279q-52 -44 -116 -63t-176 -19h-134v355h-79zM128 705v-340h183v-10h-183v-345h124q152 0 235 45q156 86 156 306q0 227 -171 306q-81 38 -218 38h-126z" />
    <glyph glyph-name="Ntilde" unicode="&#xd1;" horiz-adv-x="699" 
d="M109 715h13l288 -440q156 -236 170 -262h1q0 17 -0.5 127.5t-0.5 148.5v426h10v-715h-13l-282 431q-158 243 -176 271h-1q0 -16 0.5 -161t0.5 -180v-361h-10v715zM372 798l-51 25q-28 13 -44 13q-37 0 -50 -59h-10q14 69 60 69q22 0 53 -17l47 -23q32 -15 47 -15
q40 0 52 61h10q-13 -71 -62 -71q-16 0 -52 17z" />
    <glyph glyph-name="Ograve" unicode="&#xd2;" horiz-adv-x="808" 
d="M404 729q154 0 250.5 -103t96.5 -268q0 -166 -95.5 -269t-251.5 -103t-251.5 103t-95.5 269t96 268.5t251 102.5zM404 -4q151 0 244 100t93 262t-93 261.5t-244 99.5q-152 0 -244.5 -99.5t-92.5 -261.5q0 -161 93 -261.5t244 -100.5zM438 761l-128 116h15l126 -116h-13z
" />
    <glyph glyph-name="Oacute" unicode="&#xd3;" horiz-adv-x="808" 
d="M404 729q154 0 250.5 -103t96.5 -268q0 -166 -95.5 -269t-251.5 -103t-251.5 103t-95.5 269t96 268.5t251 102.5zM404 -4q151 0 244 100t93 262t-93 261.5t-244 99.5q-152 0 -244.5 -99.5t-92.5 -261.5q0 -161 93 -261.5t244 -100.5zM503 877l-128 -116h-13l126 116h15z
" />
    <glyph glyph-name="Ocircumflex" unicode="&#xd4;" horiz-adv-x="808" 
d="M404 729q154 0 250.5 -103t96.5 -268q0 -166 -95.5 -269t-251.5 -103t-251.5 103t-95.5 269t96 268.5t251 102.5zM404 -4q151 0 244 100t93 262t-93 261.5t-244 99.5q-152 0 -244.5 -99.5t-92.5 -261.5q0 -161 93 -261.5t244 -100.5zM402 875h10q17 -20 54 -62t46 -53
h-12l-93 106l-93 -106h-12q9 11 46 53t54 62z" />
    <glyph glyph-name="Otilde" unicode="&#xd5;" horiz-adv-x="808" 
d="M404 729q154 0 250.5 -103t96.5 -268q0 -166 -95.5 -269t-251.5 -103t-251.5 103t-95.5 269t96 268.5t251 102.5zM404 -4q151 0 244 100t93 262t-93 261.5t-244 99.5q-152 0 -244.5 -99.5t-92.5 -261.5q0 -161 93 -261.5t244 -100.5zM428 798l-51 25q-28 13 -44 13
q-37 0 -50 -59h-10q14 69 60 69q22 0 53 -17l47 -23q32 -15 47 -15q40 0 52 61h10q-13 -71 -62 -71q-16 0 -52 17z" />
    <glyph glyph-name="Odieresis" unicode="&#xd6;" horiz-adv-x="808" 
d="M404 729q154 0 250.5 -103t96.5 -268q0 -166 -95.5 -269t-251.5 -103t-251.5 103t-95.5 269t96 268.5t251 102.5zM404 -4q151 0 244 100t93 262t-93 261.5t-244 99.5q-152 0 -244.5 -99.5t-92.5 -261.5q0 -161 93 -261.5t244 -100.5zM343 766v80h10v-80h-10zM456 766v80
h10v-80h-10z" />
    <glyph glyph-name="multiply" unicode="&#xd7;" 
d="M96 129l-7 7l183 183l-183 184l7 7l183 -184l185 185l7 -7l-185 -185l185 -184l-7 -7l-185 184z" />
    <glyph glyph-name="Oslash" unicode="&#xd8;" horiz-adv-x="808" 
d="M404 729q104 0 185 -50l49 86l8 -6l-48 -85q73 -48 113 -129.5t40 -186.5q0 -166 -95.5 -269t-251.5 -103q-96 0 -175 42l-55 -96l-9 4l55 97q-78 46 -120.5 130t-42.5 195q0 166 96 268.5t251 102.5zM67 358q0 -107 41.5 -188.5t117.5 -126.5l358 628q-76 48 -180 48
q-152 0 -244.5 -99.5t-92.5 -261.5zM404 -4q151 0 244 100t93 262q0 103 -39 181.5t-109 125.5l-359 -627q76 -42 170 -42z" />
    <glyph glyph-name="Ugrave" unicode="&#xd9;" horiz-adv-x="666" 
d="M333 -4q123 0 173 63t50 190v466h10v-466q0 -139 -55 -201t-178 -62t-178 62t-55 201v466h10v-466q0 -127 50 -190t173 -63zM368 761l-128 116h15l126 -116h-13z" />
    <glyph glyph-name="Uacute" unicode="&#xda;" horiz-adv-x="666" 
d="M333 -4q123 0 173 63t50 190v466h10v-466q0 -139 -55 -201t-178 -62t-178 62t-55 201v466h10v-466q0 -127 50 -190t173 -63zM419 877l-128 -116h-13l126 116h15z" />
    <glyph glyph-name="Ucircumflex" unicode="&#xdb;" horiz-adv-x="666" 
d="M333 -4q123 0 173 63t50 190v466h10v-466q0 -139 -55 -201t-178 -62t-178 62t-55 201v466h10v-466q0 -127 50 -190t173 -63zM323 875h10q17 -20 54 -62t46 -53h-12l-93 106l-93 -106h-12q9 11 46 53t54 62z" />
    <glyph glyph-name="Udieresis" unicode="&#xdc;" horiz-adv-x="666" 
d="M333 -4q123 0 173 63t50 190v466h10v-466q0 -139 -55 -201t-178 -62t-178 62t-55 201v466h10v-466q0 -127 50 -190t173 -63zM270 766v80h10v-80h-10zM383 766v80h10v-80h-10z" />
    <glyph glyph-name="Yacute" unicode="&#xdd;" horiz-adv-x="596" 
d="M292 0v272l-260 443h12q31 -52 117.5 -200.5t135.5 -231.5q29 48 126 208.5t134 223.5h12l-267 -443v-272h-10zM395 877l-128 -116h-13l126 116h15z" />
    <glyph glyph-name="Thorn" unicode="&#xde;" horiz-adv-x="564" 
d="M109 715h10v-121h152q123 0 189 -44.5t66 -153.5t-69 -159.5t-191 -50.5h-147v-186h-10v715zM119 584v-388h147q123 0 186.5 50.5t63.5 149.5q0 100 -60.5 144t-184.5 44h-152z" />
    <glyph glyph-name="germandbls" unicode="&#xdf;" horiz-adv-x="555" 
d="M90 0v513q0 109 46 163q47 53 141 53q91 0 137 -43t46 -116q0 -139 -146 -163v-1q86 -4 138 -53t52 -144q0 -109 -64 -160t-176 -51h-8v9h8q105 0 167.5 47.5t62.5 154.5q0 98 -55 144t-167 48v9q93 4 135.5 47.5t42.5 112.5q0 72 -44.5 110.5t-128.5 38.5
q-91 0 -134 -49t-43 -157v-513h-10z" />
    <glyph glyph-name="agrave" unicode="&#xe0;" horiz-adv-x="536" 
d="M83 367h-10q0 74 52 123t141 49q188 0 188 -217q0 -32 -0.5 -60t-0.5 -29v-124q0 -66 9 -109h-10q-12 45 -7 145h-1q-17 -77 -78.5 -117t-143.5 -40q-74 0 -122.5 37t-48.5 106q0 36 16 62t49.5 42t70 25.5t92.5 18.5q14 2 45 6t69 8t51 6v29q0 201 -179 201
q-87 0 -133.5 -46.5t-48.5 -115.5zM444 202v88q-166 -20 -187 -24q-96 -16 -146 -46.5t-50 -88.5q0 -57 43 -95t118 -38q91 0 156.5 52t65.5 152zM301 596l-133 119h15l131 -119h-13z" />
    <glyph glyph-name="aacute" unicode="&#xe1;" horiz-adv-x="536" 
d="M83 367h-10q0 74 52 123t141 49q188 0 188 -217q0 -32 -0.5 -60t-0.5 -29v-124q0 -66 9 -109h-10q-12 45 -7 145h-1q-17 -77 -78.5 -117t-143.5 -40q-74 0 -122.5 37t-48.5 106q0 36 16 62t49.5 42t70 25.5t92.5 18.5q14 2 45 6t69 8t51 6v29q0 201 -179 201
q-87 0 -133.5 -46.5t-48.5 -115.5zM444 202v88q-166 -20 -187 -24q-96 -16 -146 -46.5t-50 -88.5q0 -57 43 -95t118 -38q91 0 156.5 52t65.5 152zM370 715l-133 -119h-13l131 119h15z" />
    <glyph glyph-name="acircumflex" unicode="&#xe2;" horiz-adv-x="536" 
d="M83 367h-10q0 74 52 123t141 49q188 0 188 -217q0 -32 -0.5 -60t-0.5 -29v-124q0 -66 9 -109h-10q-12 45 -7 145h-1q-17 -77 -78.5 -117t-143.5 -40q-74 0 -122.5 37t-48.5 106q0 36 16 62t49.5 42t70 25.5t92.5 18.5q14 2 45 6t69 8t51 6v29q0 201 -179 201
q-87 0 -133.5 -46.5t-48.5 -115.5zM444 202v88q-166 -20 -187 -24q-96 -16 -146 -46.5t-50 -88.5q0 -57 43 -95t118 -38q91 0 156.5 52t65.5 152zM262 715h10q12 -15 102 -119h-12l-95 110l-95 -110h-12q90 104 102 119z" />
    <glyph glyph-name="atilde" unicode="&#xe3;" horiz-adv-x="536" 
d="M83 367h-10q0 74 52 123t141 49q188 0 188 -217q0 -32 -0.5 -60t-0.5 -29v-124q0 -66 9 -109h-10q-12 45 -7 145h-1q-17 -77 -78.5 -117t-143.5 -40q-74 0 -122.5 37t-48.5 106q0 36 16 62t49.5 42t70 25.5t92.5 18.5q14 2 45 6t69 8t51 6v29q0 201 -179 201
q-87 0 -133.5 -46.5t-48.5 -115.5zM444 202v88q-166 -20 -187 -24q-96 -16 -146 -46.5t-50 -88.5q0 -57 43 -95t118 -38q91 0 156.5 52t65.5 152zM291 649l-51 25q-28 13 -44 13q-37 0 -50 -59h-10q14 69 60 69q22 0 53 -17l47 -23q32 -15 47 -15q40 0 52 61h10
q-13 -71 -62 -71q-16 0 -52 17z" />
    <glyph glyph-name="adieresis" unicode="&#xe4;" horiz-adv-x="536" 
d="M83 367h-10q0 74 52 123t141 49q188 0 188 -217q0 -32 -0.5 -60t-0.5 -29v-124q0 -66 9 -109h-10q-12 45 -7 145h-1q-17 -77 -78.5 -117t-143.5 -40q-74 0 -122.5 37t-48.5 106q0 36 16 62t49.5 42t70 25.5t92.5 18.5q14 2 45 6t69 8t51 6v29q0 201 -179 201
q-87 0 -133.5 -46.5t-48.5 -115.5zM444 202v88q-166 -20 -187 -24q-96 -16 -146 -46.5t-50 -88.5q0 -57 43 -95t118 -38q91 0 156.5 52t65.5 152zM203 616v80h10v-80h-10zM316 616v80h10v-80h-10z" />
    <glyph glyph-name="aring" unicode="&#xe5;" horiz-adv-x="536" 
d="M83 367h-10q0 74 52 123t141 49q188 0 188 -217q0 -32 -0.5 -60t-0.5 -29v-124q0 -66 9 -109h-10q-12 45 -7 145h-1q-17 -77 -78.5 -117t-143.5 -40q-74 0 -122.5 37t-48.5 106q0 36 16 62t49.5 42t70 25.5t92.5 18.5q14 2 45 6t69 8t51 6v29q0 201 -179 201
q-87 0 -133.5 -46.5t-48.5 -115.5zM444 202v88q-166 -20 -187 -24q-96 -16 -146 -46.5t-50 -88.5q0 -57 43 -95t118 -38q91 0 156.5 52t65.5 152zM271 599q-32 0 -54 22.5t-22 55.5q0 32 22 54t54 22t55 -22t23 -54q0 -33 -22.5 -55.5t-55.5 -22.5zM204 677q0 -29 19 -49
t48 -20t49 19.5t20 49.5q0 28 -20 47.5t-49 19.5t-48 -19.5t-19 -47.5z" />
    <glyph glyph-name="ae" unicode="&#xe6;" horiz-adv-x="965" 
d="M917 279h-464v-13q0 -121 60.5 -195t169.5 -74q165 0 215 153h10q-24 -77 -81 -120t-144 -43q-93 0 -154 54t-77 148q-2 -54 -23.5 -95t-56 -63t-72 -32.5t-78.5 -10.5q-74 0 -122.5 37t-48.5 106q0 32 13 56t42 40.5t58.5 27t82.5 17t91.5 10t105.5 7.5v39
q0 201 -179 201q-87 0 -133.5 -46.5t-48.5 -115.5h-10q0 74 52 123t141 49q186 0 186 -202q17 89 76 145.5t156 56.5q108 0 168.5 -72t64.5 -188zM684 529q-100 0 -162 -67t-68 -173h452q-6 105 -63 172.5t-159 67.5zM444 202v77q-205 -10 -294 -41t-89 -107q0 -57 43 -95
t118 -38q91 0 156.5 52t65.5 152z" />
    <glyph glyph-name="ccedilla" unicode="&#xe7;" horiz-adv-x="590" 
d="M530 167h10q-22 -83 -84 -131.5t-153 -48.5q-115 0 -182 75.5t-67 199.5q0 123 68.5 200t182.5 77q91 0 154.5 -51t81.5 -135h-10q-21 81 -80 128.5t-146 47.5q-111 0 -176 -75t-65 -192q0 -118 64.5 -191.5t174.5 -73.5q86 0 146.5 45.5t80.5 124.5zM225 -163l78 115h11
l-77 -115h-12z" />
    <glyph glyph-name="egrave" unicode="&#xe8;" horiz-adv-x="587" 
d="M539 279h-475v-13q0 -121 62.5 -195t173.5 -74q83 0 139.5 40.5t80.5 112.5h10q-24 -76 -83.5 -119.5t-146.5 -43.5q-116 0 -181 76.5t-65 198.5q0 123 67 200t180 77q109 0 171.5 -72.5t66.5 -187.5zM301 529q-102 0 -166 -67t-70 -173h463q-6 104 -65.5 172t-161.5 68z
M336 596l-133 119h15l131 -119h-13z" />
    <glyph glyph-name="eacute" unicode="&#xe9;" horiz-adv-x="587" 
d="M539 279h-475v-13q0 -121 62.5 -195t173.5 -74q83 0 139.5 40.5t80.5 112.5h10q-24 -76 -83.5 -119.5t-146.5 -43.5q-116 0 -181 76.5t-65 198.5q0 123 67 200t180 77q109 0 171.5 -72.5t66.5 -187.5zM301 529q-102 0 -166 -67t-70 -173h463q-6 104 -65.5 172t-161.5 68z
M399 715l-133 -119h-13l131 119h15z" />
    <glyph glyph-name="ecircumflex" unicode="&#xea;" horiz-adv-x="587" 
d="M539 279h-475v-13q0 -121 62.5 -195t173.5 -74q83 0 139.5 40.5t80.5 112.5h10q-24 -76 -83.5 -119.5t-146.5 -43.5q-116 0 -181 76.5t-65 198.5q0 123 67 200t180 77q109 0 171.5 -72.5t66.5 -187.5zM301 529q-102 0 -166 -67t-70 -173h463q-6 104 -65.5 172t-161.5 68z
M295 715h10q12 -15 102 -119h-12l-95 110l-95 -110h-12q90 104 102 119z" />
    <glyph glyph-name="edieresis" unicode="&#xeb;" horiz-adv-x="587" 
d="M539 279h-475v-13q0 -121 62.5 -195t173.5 -74q83 0 139.5 40.5t80.5 112.5h10q-24 -76 -83.5 -119.5t-146.5 -43.5q-116 0 -181 76.5t-65 198.5q0 123 67 200t180 77q109 0 171.5 -72.5t66.5 -187.5zM301 529q-102 0 -166 -67t-70 -173h463q-6 104 -65.5 172t-161.5 68z
M239 616v80h10v-80h-10zM352 616v80h10v-80h-10z" />
    <glyph glyph-name="igrave" unicode="&#xec;" horiz-adv-x="190" 
d="M90 525h10v-525h-10v525zM107 596l-133 119h15l131 -119h-13z" />
    <glyph glyph-name="iacute" unicode="&#xed;" horiz-adv-x="190" 
d="M90 525h10v-525h-10v525zM210 715l-133 -119h-13l131 119h15z" />
    <glyph glyph-name="icircumflex" unicode="&#xee;" horiz-adv-x="190" 
d="M90 525h10v-525h-10v525zM91 715h10q12 -15 102 -119h-12l-95 110l-95 -110h-12q90 104 102 119z" />
    <glyph glyph-name="idieresis" unicode="&#xef;" horiz-adv-x="190" 
d="M90 525h10v-525h-10v525zM35 616v80h10v-80h-10zM148 616v80h10v-80h-10z" />
    <glyph glyph-name="eth" unicode="&#xf0;" horiz-adv-x="612" 
d="M240 715h18q36 -21 65 -41l105 47l8 -7l-104 -47q103 -75 163.5 -179.5t60.5 -217.5q0 -137 -72 -210t-183 -73t-179 74.5t-68 200.5q0 128 68.5 202.5t181.5 74.5q151 0 220 -136l2 1q-66 160 -204 259l-157 -70l-6 8l154 68q-7 5 -73 46zM304 -3q110 0 176 72.5
t66 192.5q0 118 -65.5 192.5t-176.5 74.5q-110 0 -175 -74.5t-65 -192.5q0 -120 65 -192.5t175 -72.5z" />
    <glyph glyph-name="ntilde" unicode="&#xf1;" horiz-adv-x="570" 
d="M90 0v445q0 53 -1 80h11v-37q0 -9 -0.5 -40.5t-0.5 -48.5v-57q1 30 12 62t33 63.5t62 51.5t91 20q128 0 171 -103q19 -41 19 -117v-319h-10v319q0 71 -19 113q-44 97 -161 97q-94 0 -145.5 -68.5t-51.5 -163.5v-297h-10zM317 648l-51 25q-28 13 -44 13q-37 0 -50 -59h-10
q14 69 60 69q22 0 53 -17l47 -23q32 -15 47 -15q40 0 52 61h10q-13 -71 -62 -71q-16 0 -52 17z" />
    <glyph glyph-name="ograve" unicode="&#xf2;" horiz-adv-x="610" 
d="M304 -3q110 0 176 72.5t66 192.5q0 118 -66 192.5t-175 74.5t-175 -74.5t-66 -192.5q0 -120 65 -192.5t175 -72.5zM303 -13q-115 0 -182 76.5t-67 198.5q0 124 69 200.5t182 76.5t182 -76.5t69 -200.5q0 -122 -68.5 -198.5t-184.5 -76.5zM348 596l-133 119h15l131 -119
h-13z" />
    <glyph glyph-name="oacute" unicode="&#xf3;" horiz-adv-x="610" 
d="M304 -3q110 0 176 72.5t66 192.5q0 118 -66 192.5t-175 74.5t-175 -74.5t-66 -192.5q0 -120 65 -192.5t175 -72.5zM303 -13q-115 0 -182 76.5t-67 198.5q0 124 69 200.5t182 76.5t182 -76.5t69 -200.5q0 -122 -68.5 -198.5t-184.5 -76.5zM413 715l-133 -119h-13l131 119
h15z" />
    <glyph glyph-name="ocircumflex" unicode="&#xf4;" horiz-adv-x="610" 
d="M304 -3q110 0 176 72.5t66 192.5q0 118 -66 192.5t-175 74.5t-175 -74.5t-66 -192.5q0 -120 65 -192.5t175 -72.5zM303 -13q-115 0 -182 76.5t-67 198.5q0 124 69 200.5t182 76.5t182 -76.5t69 -200.5q0 -122 -68.5 -198.5t-184.5 -76.5zM304 715h10q12 -15 102 -119h-12
l-95 110l-95 -110h-12q90 104 102 119z" />
    <glyph glyph-name="otilde" unicode="&#xf5;" horiz-adv-x="610" 
d="M304 -3q110 0 176 72.5t66 192.5q0 118 -66 192.5t-175 74.5t-175 -74.5t-66 -192.5q0 -120 65 -192.5t175 -72.5zM303 -13q-115 0 -182 76.5t-67 198.5q0 124 69 200.5t182 76.5t182 -76.5t69 -200.5q0 -122 -68.5 -198.5t-184.5 -76.5zM330 648l-51 25q-28 13 -44 13
q-37 0 -50 -59h-10q14 69 60 69q22 0 53 -17l47 -23q32 -15 47 -15q40 0 52 61h10q-13 -71 -62 -71q-16 0 -52 17z" />
    <glyph glyph-name="odieresis" unicode="&#xf6;" horiz-adv-x="610" 
d="M304 -3q110 0 176 72.5t66 192.5q0 118 -66 192.5t-175 74.5t-175 -74.5t-66 -192.5q0 -120 65 -192.5t175 -72.5zM303 -13q-115 0 -182 76.5t-67 198.5q0 124 69 200.5t182 76.5t182 -76.5t69 -200.5q0 -122 -68.5 -198.5t-184.5 -76.5zM244 616v80h10v-80h-10zM357 616
v80h10v-80h-10z" />
    <glyph glyph-name="divide" unicode="&#xf7;" 
d="M59 317v10h442v-10h-442zM275 95v111h10v-111h-10zM275 438v111h10v-111h-10z" />
    <glyph glyph-name="oslash" unicode="&#xf8;" horiz-adv-x="610" 
d="M303 -13q-70 0 -123 29l-43 -76l-8 4l43 76q-57 34 -87.5 97t-30.5 145q0 124 69 200.5t182 76.5q80 0 139 -40l41 73l9 -4l-42 -74q104 -77 104 -232q0 -122 -68.5 -198.5t-184.5 -76.5zM64 262q0 -166 113 -233l262 461q-58 39 -134 39q-109 0 -175 -74.5t-66 -192.5z
M304 -3q110 0 176 72.5t66 192.5q0 150 -99 223l-262 -460q52 -28 119 -28z" />
    <glyph glyph-name="ugrave" unicode="&#xf9;" horiz-adv-x="563" 
d="M473 525v-445q0 -53 1 -80h-11v37v89q0 37 1 57q-1 -30 -12 -62t-32.5 -63.5t-61 -51.5t-90.5 -20q-123 0 -166 103q-19 41 -19 117v319h10v-319q0 -71 19 -113q44 -97 156 -97q93 0 144 68.5t51 163.5v297h10zM307 596l-133 119h15l131 -119h-13z" />
    <glyph glyph-name="uacute" unicode="&#xfa;" horiz-adv-x="563" 
d="M473 525v-445q0 -53 1 -80h-11v37v89q0 37 1 57q-1 -30 -12 -62t-32.5 -63.5t-61 -51.5t-90.5 -20q-123 0 -166 103q-19 41 -19 117v319h10v-319q0 -71 19 -113q44 -97 156 -97q93 0 144 68.5t51 163.5v297h10zM375 715l-133 -119h-13l131 119h15z" />
    <glyph glyph-name="ucircumflex" unicode="&#xfb;" horiz-adv-x="563" 
d="M473 525v-445q0 -53 1 -80h-11v37v89q0 37 1 57q-1 -30 -12 -62t-32.5 -63.5t-61 -51.5t-90.5 -20q-123 0 -166 103q-19 41 -19 117v319h10v-319q0 -71 19 -113q44 -97 156 -97q93 0 144 68.5t51 163.5v297h10zM276 715h10q12 -15 102 -119h-12l-95 110l-95 -110h-12
q90 104 102 119z" />
    <glyph glyph-name="udieresis" unicode="&#xfc;" horiz-adv-x="563" 
d="M473 525v-445q0 -53 1 -80h-11v37v89q0 37 1 57q-1 -30 -12 -62t-32.5 -63.5t-61 -51.5t-90.5 -20q-123 0 -166 103q-19 41 -19 117v319h10v-319q0 -71 19 -113q44 -97 156 -97q93 0 144 68.5t51 163.5v297h10zM215 616v80h10v-80h-10zM328 616v80h10v-80h-10z" />
    <glyph glyph-name="yacute" unicode="&#xfd;" horiz-adv-x="482" 
d="M177 -180h-10l70 180l-206 525h11l115 -298q10 -26 40 -100t44 -114h2q10 30 24 66.5t32 82.5t28 73l111 290h10q-15 -40 -54 -142t-103.5 -268.5t-113.5 -294.5zM348 715l-133 -119h-13l131 119h15z" />
    <glyph glyph-name="thorn" unicode="&#xfe;" horiz-adv-x="618" 
d="M90 -180v895h10v-294q0 -5 -0.5 -22.5t-0.5 -26.5v-31q15 85 74 141t150 56q108 0 174 -73t66 -202q0 -125 -66.5 -201t-173.5 -76q-90 0 -150.5 58t-73.5 139q1 -37 1 -112v-251h-10zM323 528q-102 0 -163 -72.5t-61 -193.5q0 -118 61.5 -192t162.5 -74
q103 0 166.5 73.5t63.5 193.5q0 122 -63 193.5t-167 71.5z" />
    <glyph glyph-name="ydieresis" unicode="&#xff;" horiz-adv-x="482" 
d="M177 -180h-10l70 180l-206 525h11l115 -298q10 -26 40 -100t44 -114h2q10 30 24 66.5t32 82.5t28 73l111 290h10q-15 -40 -54 -142t-103.5 -268.5t-113.5 -294.5zM179 616v80h10v-80h-10zM292 616v80h10v-80h-10z" />
    <glyph glyph-name="Amacron" unicode="&#x100;" horiz-adv-x="636" 
d="M315 715h9l277 -715h-11l-108 281h-329l-110 -281h-11zM320 700h-1l-46 -117l-84 -214l-31 -78h319l-31 84q-15 38 -41.5 105.5t-47.5 121.5t-37 98zM197 802v10h244v-10h-244z" />
    <glyph glyph-name="amacron" unicode="&#x101;" horiz-adv-x="536" 
d="M83 367h-10q0 74 52 123t141 49q188 0 188 -217q0 -32 -0.5 -60t-0.5 -29v-124q0 -66 9 -109h-10q-12 45 -7 145h-1q-17 -77 -78.5 -117t-143.5 -40q-74 0 -122.5 37t-48.5 106q0 36 16 62t49.5 42t70 25.5t92.5 18.5q14 2 45 6t69 8t51 6v29q0 201 -179 201
q-87 0 -133.5 -46.5t-48.5 -115.5zM444 202v88q-166 -20 -187 -24q-96 -16 -146 -46.5t-50 -88.5q0 -57 43 -95t118 -38q91 0 156.5 52t65.5 152zM133 652v10h244v-10h-244z" />
    <glyph glyph-name="Abreve" unicode="&#x102;" horiz-adv-x="636" 
d="M315 715h9l277 -715h-11l-108 281h-329l-110 -281h-11zM320 700h-1l-46 -117l-84 -214l-31 -78h319l-31 84q-15 38 -41.5 105.5t-47.5 121.5t-37 98zM321 793q84 0 103 86h10q-18 -96 -113 -96t-113 96h10q13 -86 103 -86z" />
    <glyph glyph-name="abreve" unicode="&#x103;" horiz-adv-x="536" 
d="M83 367h-10q0 74 52 123t141 49q188 0 188 -217q0 -32 -0.5 -60t-0.5 -29v-124q0 -66 9 -109h-10q-12 45 -7 145h-1q-17 -77 -78.5 -117t-143.5 -40q-74 0 -122.5 37t-48.5 106q0 36 16 62t49.5 42t70 25.5t92.5 18.5q14 2 45 6t69 8t51 6v29q0 201 -179 201
q-87 0 -133.5 -46.5t-48.5 -115.5zM444 202v88q-166 -20 -187 -24q-96 -16 -146 -46.5t-50 -88.5q0 -57 43 -95t118 -38q91 0 156.5 52t65.5 152zM255 629q84 0 103 86h10q-18 -96 -113 -96t-113 96h10q13 -86 103 -86z" />
    <glyph glyph-name="Aogonek" unicode="&#x104;" horiz-adv-x="636" 
d="M315 715h9l277 -715h-11l-108 281h-329l-110 -281h-11zM320 700h-1l-46 -117l-84 -214l-31 -78h319l-31 84q-15 38 -41.5 105.5t-47.5 121.5t-37 98zM601 -48l78 -115h-12l-77 115h11z" />
    <glyph glyph-name="aogonek" unicode="&#x105;" horiz-adv-x="536" 
d="M83 367h-10q0 74 52 123t141 49q188 0 188 -217q0 -32 -0.5 -60t-0.5 -29v-124q0 -66 9 -109h-10q-12 45 -7 145h-1q-17 -77 -78.5 -117t-143.5 -40q-74 0 -122.5 37t-48.5 106q0 36 16 62t49.5 42t70 25.5t92.5 18.5q14 2 45 6t69 8t51 6v29q0 201 -179 201
q-87 0 -133.5 -46.5t-48.5 -115.5zM444 202v88q-166 -20 -187 -24q-96 -16 -146 -46.5t-50 -88.5q0 -57 43 -95t118 -38q91 0 156.5 52t65.5 152zM437 -48l78 -115h-12l-77 115h11z" />
    <glyph glyph-name="Cacute" unicode="&#x106;" horiz-adv-x="773" 
d="M711 206h11q-37 -104 -119.5 -162t-198.5 -58q-156 0 -251.5 103t-95.5 269t96 268.5t251 102.5q118 0 201 -61t119 -168h-11q-34 103 -114.5 161t-194.5 58q-152 0 -244.5 -99.5t-92.5 -261.5q0 -161 93 -261.5t244 -100.5q111 0 191 55.5t116 154.5zM524 877l-128 -116
h-13l126 116h15z" />
    <glyph glyph-name="cacute" unicode="&#x107;" horiz-adv-x="590" 
d="M530 167h10q-22 -83 -84 -131.5t-153 -48.5q-115 0 -182 75.5t-67 199.5q0 123 68.5 200t182.5 77q91 0 154.5 -51t81.5 -135h-10q-21 81 -80 128.5t-146 47.5q-111 0 -176 -75t-65 -192q0 -118 64.5 -191.5t174.5 -73.5q86 0 146.5 45.5t80.5 124.5zM410 715l-133 -119
h-13l131 119h15z" />
    <glyph glyph-name="Ccircumflex" unicode="&#x108;" horiz-adv-x="773" 
d="M711 206h11q-37 -104 -119.5 -162t-198.5 -58q-156 0 -251.5 103t-95.5 269t96 268.5t251 102.5q118 0 201 -61t119 -168h-11q-34 103 -114.5 161t-194.5 58q-152 0 -244.5 -99.5t-92.5 -261.5q0 -161 93 -261.5t244 -100.5q111 0 191 55.5t116 154.5zM401 875h10
q17 -20 54 -62t46 -53h-12l-93 106l-93 -106h-12q9 11 46 53t54 62z" />
    <glyph glyph-name="ccircumflex" unicode="&#x109;" horiz-adv-x="590" 
d="M530 167h10q-22 -83 -84 -131.5t-153 -48.5q-115 0 -182 75.5t-67 199.5q0 123 68.5 200t182.5 77q91 0 154.5 -51t81.5 -135h-10q-21 81 -80 128.5t-146 47.5q-111 0 -176 -75t-65 -192q0 -118 64.5 -191.5t174.5 -73.5q86 0 146.5 45.5t80.5 124.5zM294 715h10
q12 -15 102 -119h-12l-95 110l-95 -110h-12q90 104 102 119z" />
    <glyph glyph-name="Cdotaccent" unicode="&#x10a;" horiz-adv-x="773" 
d="M711 206h11q-37 -104 -119.5 -162t-198.5 -58q-156 0 -251.5 103t-95.5 269t96 268.5t251 102.5q118 0 201 -61t119 -168h-11q-34 103 -114.5 161t-194.5 58q-152 0 -244.5 -99.5t-92.5 -261.5q0 -161 93 -261.5t244 -100.5q111 0 191 55.5t116 154.5zM399 766v80h10v-80
h-10z" />
    <glyph glyph-name="cdotaccent" unicode="&#x10b;" horiz-adv-x="590" 
d="M530 167h10q-22 -83 -84 -131.5t-153 -48.5q-115 0 -182 75.5t-67 199.5q0 123 68.5 200t182.5 77q91 0 154.5 -51t81.5 -135h-10q-21 81 -80 128.5t-146 47.5q-111 0 -176 -75t-65 -192q0 -118 64.5 -191.5t174.5 -73.5q86 0 146.5 45.5t80.5 124.5zM295 616v80h10v-80
h-10z" />
    <glyph glyph-name="Ccaron" unicode="&#x10c;" horiz-adv-x="773" 
d="M711 206h11q-37 -104 -119.5 -162t-198.5 -58q-156 0 -251.5 103t-95.5 269t96 268.5t251 102.5q118 0 201 -61t119 -168h-11q-34 103 -114.5 161t-194.5 58q-152 0 -244.5 -99.5t-92.5 -261.5q0 -161 93 -261.5t244 -100.5q111 0 191 55.5t116 154.5zM413 760h-10
q-17 20 -54 62t-46 53h12l93 -106l93 106h12q-9 -11 -46 -53t-54 -62z" />
    <glyph glyph-name="ccaron" unicode="&#x10d;" horiz-adv-x="590" 
d="M530 167h10q-22 -83 -84 -131.5t-153 -48.5q-115 0 -182 75.5t-67 199.5q0 123 68.5 200t182.5 77q91 0 154.5 -51t81.5 -135h-10q-21 81 -80 128.5t-146 47.5q-111 0 -176 -75t-65 -192q0 -118 64.5 -191.5t174.5 -73.5q86 0 146.5 45.5t80.5 124.5zM302 596h-10
q-12 15 -102 119h12l95 -110l95 110h12q-90 -104 -102 -119z" />
    <glyph glyph-name="Dcaron" unicode="&#x10e;" horiz-adv-x="704" 
d="M109 0v715h136q142 0 229 -42q170 -83 170 -312q0 -187 -109 -279q-52 -44 -116 -63t-176 -19h-134zM119 705v-695h124q152 0 235 45q156 86 156 306q0 227 -171 306q-81 38 -218 38h-126zM321 760h-10q-17 20 -54 62t-46 53h12l93 -106l93 106h12q-9 -11 -46 -53
t-54 -62z" />
    <glyph glyph-name="dcaron" unicode="&#x10f;" horiz-adv-x="659" 
d="M527 715v-715h-10v104v49q0 20 1 31q-14 -85 -73.5 -141t-150.5 -56q-108 0 -174 73t-66 202q0 125 66.5 201t173.5 76q90 0 150.5 -58t73.5 -139q-1 37 -1 112v261h10zM294 -3q102 0 163 72.5t61 193.5q0 118 -61.5 192t-162.5 74q-103 0 -166.5 -73.5t-63.5 -193.5
q0 -122 63 -193.5t167 -71.5zM712 715l-76 -232h-10l76 232h10z" />
    <glyph glyph-name="Dcroat" unicode="&#x110;" horiz-adv-x="713" 
d="M39 355v10h79v350h136q142 0 229 -42q170 -83 170 -312q0 -187 -109 -279q-52 -44 -116 -63t-176 -19h-134v355h-79zM128 705v-340h183v-10h-183v-345h124q152 0 235 45q156 86 156 306q0 227 -171 306q-81 38 -218 38h-126z" />
    <glyph glyph-name="dcroat" unicode="&#x111;" horiz-adv-x="617" 
d="M527 715v-83h69v-10h-69v-622h-10v104v49q0 20 1 31q-14 -85 -73.5 -141t-150.5 -56q-108 0 -174 73t-66 202q0 125 66.5 201t173.5 76q90 0 150.5 -58t73.5 -139q-1 37 -1 112v168h-140v10h140v83h10zM294 -3q102 0 163 72.5t61 193.5q0 118 -61.5 192t-162.5 74
q-103 0 -166.5 -73.5t-63.5 -193.5q0 -122 63 -193.5t167 -71.5z" />
    <glyph glyph-name="Emacron" unicode="&#x112;" horiz-adv-x="605" 
d="M109 0v715h431v-10h-421v-332h397v-10h-397v-353h428v-10h-438zM204 802v10h244v-10h-244z" />
    <glyph glyph-name="emacron" unicode="&#x113;" horiz-adv-x="587" 
d="M539 279h-475v-13q0 -121 62.5 -195t173.5 -74q83 0 139.5 40.5t80.5 112.5h10q-24 -76 -83.5 -119.5t-146.5 -43.5q-116 0 -181 76.5t-65 198.5q0 123 67 200t180 77q109 0 171.5 -72.5t66.5 -187.5zM301 529q-102 0 -166 -67t-70 -173h463q-6 104 -65.5 172t-161.5 68z
M179 652v10h244v-10h-244z" />
    <glyph glyph-name="Ebreve" unicode="&#x114;" horiz-adv-x="605" 
d="M109 0v715h431v-10h-421v-332h397v-10h-397v-353h428v-10h-438zM321 793q84 0 103 86h10q-18 -96 -113 -96t-113 96h10q13 -86 103 -86z" />
    <glyph glyph-name="ebreve" unicode="&#x115;" horiz-adv-x="587" 
d="M539 279h-475v-13q0 -121 62.5 -195t173.5 -74q83 0 139.5 40.5t80.5 112.5h10q-24 -76 -83.5 -119.5t-146.5 -43.5q-116 0 -181 76.5t-65 198.5q0 123 67 200t180 77q109 0 171.5 -72.5t66.5 -187.5zM301 529q-102 0 -166 -67t-70 -173h463q-6 104 -65.5 172t-161.5 68z
M300 629q84 0 103 86h10q-18 -96 -113 -96t-113 96h10q13 -86 103 -86z" />
    <glyph glyph-name="Edotaccent" unicode="&#x116;" horiz-adv-x="605" 
d="M109 0v715h431v-10h-421v-332h397v-10h-397v-353h428v-10h-438zM321 766v80h10v-80h-10z" />
    <glyph glyph-name="edotaccent" unicode="&#x117;" horiz-adv-x="587" 
d="M539 279h-475v-13q0 -121 62.5 -195t173.5 -74q83 0 139.5 40.5t80.5 112.5h10q-24 -76 -83.5 -119.5t-146.5 -43.5q-116 0 -181 76.5t-65 198.5q0 123 67 200t180 77q109 0 171.5 -72.5t66.5 -187.5zM301 529q-102 0 -166 -67t-70 -173h463q-6 104 -65.5 172t-161.5 68z
M297 616v80h10v-80h-10z" />
    <glyph glyph-name="Eogonek" unicode="&#x118;" horiz-adv-x="605" 
d="M109 0v715h431v-10h-421v-332h397v-10h-397v-353h428v-10h-438zM311 -48l78 -115h-12l-77 115h11z" />
    <glyph glyph-name="eogonek" unicode="&#x119;" horiz-adv-x="587" 
d="M539 279h-475v-13q0 -121 62.5 -195t173.5 -74q83 0 139.5 40.5t80.5 112.5h10q-24 -76 -83.5 -119.5t-146.5 -43.5q-116 0 -181 76.5t-65 198.5q0 123 67 200t180 77q109 0 171.5 -72.5t66.5 -187.5zM301 529q-102 0 -166 -67t-70 -173h463q-6 104 -65.5 172t-161.5 68z
M288 -48l78 -115h-12l-77 115h11z" />
    <glyph glyph-name="Ecaron" unicode="&#x11a;" horiz-adv-x="605" 
d="M109 0v715h431v-10h-421v-332h397v-10h-397v-353h428v-10h-438zM325 760h-10q-17 20 -54 62t-46 53h12l93 -106l93 106h12q-9 -11 -46 -53t-54 -62z" />
    <glyph glyph-name="ecaron" unicode="&#x11b;" horiz-adv-x="587" 
d="M539 279h-475v-13q0 -121 62.5 -195t173.5 -74q83 0 139.5 40.5t80.5 112.5h10q-24 -76 -83.5 -119.5t-146.5 -43.5q-116 0 -181 76.5t-65 198.5q0 123 67 200t180 77q109 0 171.5 -72.5t66.5 -187.5zM301 529q-102 0 -166 -67t-70 -173h463q-6 104 -65.5 172t-161.5 68z
M306 596h-10q-12 15 -102 119h12l95 -110l95 110h12q-90 -104 -102 -119z" />
    <glyph glyph-name="Gcircumflex" unicode="&#x11c;" horiz-adv-x="793" 
d="M713 237q-16 -107 -100 -179t-206 -72q-158 0 -254 102.5t-96 268.5q0 165 96.5 268.5t252.5 103.5q121 0 202 -60.5t117 -168.5h-10q-37 100 -113 159.5t-196 59.5q-153 0 -246 -102t-93 -259q0 -161 92 -261.5t248 -100.5q72 0 131.5 27.5t96 71t56.5 94.5t20 102v39
h-319v10h329v-340h-10v91q0 50 1 83q0 40 1 63zM407 875h10q17 -20 54 -62t46 -53h-12l-93 106l-93 -106h-12q9 11 46 53t54 62z" />
    <glyph glyph-name="gcircumflex" unicode="&#x11d;" horiz-adv-x="587" 
d="M285 -180q107 0 155 63t48 191q0 8 1 64t1 74q-11 -77 -65.5 -132t-142.5 -55q-104 0 -165 70.5t-61 183.5q0 116 62.5 188t163.5 72q88 0 142 -52t65 -124q-1 15 -1 40v49v73h10v-451q0 -128 -49 -196t-164 -68q-94 0 -146 48.5t-65 124.5h11q10 -67 58.5 -115
t141.5 -48zM282 35q96 0 151.5 70t55.5 180q0 105 -51.5 174.5t-156.5 69.5q-101 0 -158 -72.5t-57 -177.5q0 -104 56.5 -174t159.5 -70zM286 715h10q12 -15 102 -119h-12l-95 110l-95 -110h-12q90 104 102 119z" />
    <glyph glyph-name="Gbreve" unicode="&#x11e;" horiz-adv-x="793" 
d="M713 237q-16 -107 -100 -179t-206 -72q-158 0 -254 102.5t-96 268.5q0 165 96.5 268.5t252.5 103.5q121 0 202 -60.5t117 -168.5h-10q-37 100 -113 159.5t-196 59.5q-153 0 -246 -102t-93 -259q0 -161 92 -261.5t248 -100.5q72 0 131.5 27.5t96 71t56.5 94.5t20 102v39
h-319v10h329v-340h-10v91q0 50 1 83q0 40 1 63zM408 793q84 0 103 86h10q-18 -96 -113 -96t-113 96h10q13 -86 103 -86z" />
    <glyph glyph-name="gbreve" unicode="&#x11f;" horiz-adv-x="587" 
d="M285 -180q107 0 155 63t48 191q0 8 1 64t1 74q-11 -77 -65.5 -132t-142.5 -55q-104 0 -165 70.5t-61 183.5q0 116 62.5 188t163.5 72q88 0 142 -52t65 -124q-1 15 -1 40v49v73h10v-451q0 -128 -49 -196t-164 -68q-94 0 -146 48.5t-65 124.5h11q10 -67 58.5 -115
t141.5 -48zM282 35q96 0 151.5 70t55.5 180q0 105 -51.5 174.5t-156.5 69.5q-101 0 -158 -72.5t-57 -177.5q0 -104 56.5 -174t159.5 -70zM295 629q84 0 103 86h10q-18 -96 -113 -96t-113 96h10q13 -86 103 -86z" />
    <glyph glyph-name="Gdotaccent" unicode="&#x120;" horiz-adv-x="793" 
d="M713 237q-16 -107 -100 -179t-206 -72q-158 0 -254 102.5t-96 268.5q0 165 96.5 268.5t252.5 103.5q121 0 202 -60.5t117 -168.5h-10q-37 100 -113 159.5t-196 59.5q-153 0 -246 -102t-93 -259q0 -161 92 -261.5t248 -100.5q72 0 131.5 27.5t96 71t56.5 94.5t20 102v39
h-319v10h329v-340h-10v91q0 50 1 83q0 40 1 63zM404 766v80h10v-80h-10z" />
    <glyph glyph-name="gdotaccent" unicode="&#x121;" horiz-adv-x="587" 
d="M285 -180q107 0 155 63t48 191q0 8 1 64t1 74q-11 -77 -65.5 -132t-142.5 -55q-104 0 -165 70.5t-61 183.5q0 116 62.5 188t163.5 72q88 0 142 -52t65 -124q-1 15 -1 40v49v73h10v-451q0 -128 -49 -196t-164 -68q-94 0 -146 48.5t-65 124.5h11q10 -67 58.5 -115
t141.5 -48zM282 35q96 0 151.5 70t55.5 180q0 105 -51.5 174.5t-156.5 69.5q-101 0 -158 -72.5t-57 -177.5q0 -104 56.5 -174t159.5 -70zM283 616v80h10v-80h-10z" />
    <glyph glyph-name="Gcommaaccent" unicode="&#x122;" horiz-adv-x="793" 
d="M713 237q-16 -107 -100 -179t-206 -72q-158 0 -254 102.5t-96 268.5q0 165 96.5 268.5t252.5 103.5q121 0 202 -60.5t117 -168.5h-10q-37 100 -113 159.5t-196 59.5q-153 0 -246 -102t-93 -259q0 -161 92 -261.5t248 -100.5q72 0 131.5 27.5t96 71t56.5 94.5t20 102v39
h-319v10h329v-340h-10v91q0 50 1 83q0 40 1 63zM339 -163l78 115h11l-77 -115h-12z" />
    <glyph glyph-name="gcommaaccent" unicode="&#x123;" horiz-adv-x="587" 
d="M285 -180q107 0 155 63t48 191q0 8 1 64t1 74q-11 -77 -65.5 -132t-142.5 -55q-104 0 -165 70.5t-61 183.5q0 116 62.5 188t163.5 72q88 0 142 -52t65 -124q-1 15 -1 40v49v73h10v-451q0 -128 -49 -196t-164 -68q-94 0 -146 48.5t-65 124.5h11q10 -67 58.5 -115
t141.5 -48zM282 35q96 0 151.5 70t55.5 180q0 105 -51.5 174.5t-156.5 69.5q-101 0 -158 -72.5t-57 -177.5q0 -104 56.5 -174t159.5 -70zM363 715l-78 -115h-11l77 115h12z" />
    <glyph glyph-name="Hcircumflex" unicode="&#x124;" horiz-adv-x="709" 
d="M590 367h-471v-367h-10v715h10v-338h471v338h10v-715h-10v367zM349 875h10q17 -20 54 -62t46 -53h-12l-93 106l-93 -106h-12q9 11 46 53t54 62z" />
    <glyph glyph-name="hcircumflex" unicode="&#x125;" horiz-adv-x="570" 
d="M90 715h10v-227q0 -9 -0.5 -40.5t-0.5 -48.5v-57q1 30 12 62t33 63.5t62 51.5t91 20q128 0 171 -103q19 -41 19 -117v-319h-10v319q0 71 -19 113q-44 97 -161 97q-94 0 -145.5 -68.5t-51.5 -163.5v-297h-10v715zM93 875h10q17 -20 54 -62t46 -53h-12l-93 106l-93 -106
h-12q9 11 46 53t54 62z" />
    <glyph glyph-name="Hbar" unicode="&#x126;" horiz-adv-x="709" 
d="M590 367h-471v-367h-10v715h10v-128h471v128h10v-715h-10v367zM119 377h471v200h-471v-200z" />
    <glyph glyph-name="hbar" unicode="&#x127;" horiz-adv-x="570" 
d="M7 622v10h83v83h10v-83h126v-10h-126v-134q0 -23 -0.5 -79t-0.5 -60q2 30 14 61t34 61t61 49t89 19q128 0 171 -103q19 -41 19 -117v-319h-10v319q0 71 -19 113q-44 97 -161 97q-94 0 -145.5 -68.5t-51.5 -163.5v-297h-10v622h-83z" />
    <glyph glyph-name="Itilde" unicode="&#x128;" horiz-adv-x="228" 
d="M109 715h10v-715h-10v715zM136 798l-51 25q-28 13 -44 13q-37 0 -50 -59h-10q14 69 60 69q22 0 53 -17l47 -23q32 -15 47 -15q40 0 52 61h10q-13 -71 -62 -71q-16 0 -52 17z" />
    <glyph glyph-name="itilde" unicode="&#x129;" horiz-adv-x="190" 
d="M90 525h10v-525h-10v525zM116 648l-51 25q-28 13 -44 13q-37 0 -50 -59h-10q14 69 60 69q22 0 53 -17l47 -23q32 -15 47 -15q40 0 52 61h10q-13 -71 -62 -71q-16 0 -52 17z" />
    <glyph glyph-name="Imacron" unicode="&#x12a;" horiz-adv-x="228" 
d="M109 715h10v-715h-10v715zM-7 802v10h244v-10h-244z" />
    <glyph glyph-name="imacron" unicode="&#x12b;" horiz-adv-x="190" 
d="M90 525h10v-525h-10v525zM-26 652v10h244v-10h-244z" />
    <glyph glyph-name="Ibreve" unicode="&#x12c;" horiz-adv-x="228" 
d="M109 715h10v-715h-10v715zM115 793q84 0 103 86h10q-18 -96 -113 -96t-113 96h10q13 -86 103 -86z" />
    <glyph glyph-name="ibreve" unicode="&#x12d;" horiz-adv-x="190" 
d="M90 525h10v-525h-10v525zM96 629q84 0 103 86h10q-18 -96 -113 -96t-113 96h10q13 -86 103 -86z" />
    <glyph glyph-name="Iogonek" unicode="&#x12e;" horiz-adv-x="228" 
d="M109 715h10v-715h-10v715zM104 -48l78 -115h-12l-77 115h11z" />
    <glyph glyph-name="iogonek" unicode="&#x12f;" horiz-adv-x="190" 
d="M90 525h10v-525h-10v525zM100 604h-10v111h10v-111zM84 -48l78 -115h-12l-77 115h11z" />
    <glyph glyph-name="Idotaccent" unicode="&#x130;" horiz-adv-x="228" 
d="M109 715h10v-715h-10v715zM111 766v80h10v-80h-10z" />
    <glyph glyph-name="dotlessi" unicode="&#x131;" horiz-adv-x="190" 
d="M90 525h10v-525h-10v525z" />
    <glyph glyph-name="IJ" unicode="&#x132;" horiz-adv-x="680" 
d="M109 715h10v-715h-10v715zM568 715h10v-508q0 -103 -29 -152q-39 -69 -136 -69q-152 0 -152 187h10q0 -177 142 -177q92 0 127 63q28 49 28 147v509z" />
    <glyph glyph-name="ij" unicode="&#x133;" horiz-adv-x="380" 
d="M90 525h10v-525h-10v525zM100 604h-10v111h10v-111zM280 525h10v-598q0 -66 -21.5 -95t-70.5 -29q-7 0 -21 2v10q10 -2 21 -2q44 0 63 25.5t19 87.5v599zM290 604h-10v111h10v-111z" />
    <glyph glyph-name="Jcircumflex" unicode="&#x134;" horiz-adv-x="452" 
d="M340 715h10v-508q0 -103 -29 -152q-39 -69 -136 -69q-152 0 -152 187h10q0 -177 142 -177q92 0 127 63q28 49 28 147v509zM337 875h10q17 -20 54 -62t46 -53h-12l-93 106l-93 -106h-12q9 11 46 53t54 62z" />
    <glyph glyph-name="jcircumflex" unicode="&#x135;" horiz-adv-x="190" 
d="M90 525h10v-598q0 -66 -21.5 -95t-70.5 -29q-7 0 -21 2v10q10 -2 21 -2q44 0 63 25.5t19 87.5v599zM93 715h10q12 -15 102 -119h-12l-95 110l-95 -110h-12q90 104 102 119z" />
    <glyph glyph-name="Kcommaaccent" unicode="&#x136;" horiz-adv-x="553" 
d="M109 0v715h10v-335l398 335h14l-398 -336l405 -379h-14l-405 378v-378h-10zM225 -163l78 115h11l-77 -115h-12z" />
    <glyph glyph-name="kcommaaccent" unicode="&#x137;" horiz-adv-x="430" 
d="M409 0h-14l-295 276v-276h-10v715h10v-432l281 242h15l-285 -245zM165 -163l78 115h11l-77 -115h-12z" />
    <glyph glyph-name="kgreenlandic" unicode="&#x138;" horiz-adv-x="430" 
d="M409 0h-14l-295 276v-276h-10v525h10v-242l281 242h15l-285 -245z" />
    <glyph glyph-name="Lacute" unicode="&#x139;" horiz-adv-x="549" 
d="M109 715h10v-705h400v-10h-410v715zM231 877l-128 -116h-13l126 116h15z" />
    <glyph glyph-name="lacute" unicode="&#x13a;" horiz-adv-x="200" 
d="M95 715h10v-715h-10v715zM212 877l-128 -116h-13l126 116h15z" />
    <glyph glyph-name="Lcommaaccent" unicode="&#x13b;" horiz-adv-x="549" 
d="M109 715h10v-705h400v-10h-410v715zM239 -163l78 115h11l-77 -115h-12z" />
    <glyph glyph-name="lcommaaccent" unicode="&#x13c;" horiz-adv-x="200" 
d="M95 715h10v-715h-10v715zM39 -163l78 115h11l-77 -115h-12z" />
    <glyph glyph-name="Lcaron" unicode="&#x13d;" horiz-adv-x="549" 
d="M109 715h10v-705h400v-10h-410v715zM410 715l-76 -232h-10l76 232h10z" />
    <glyph glyph-name="lcaron" unicode="&#x13e;" horiz-adv-x="239" 
d="M95 715h10v-715h-10v715zM292 715l-76 -232h-10l76 232h10z" />
    <glyph glyph-name="Ldot" unicode="&#x13f;" horiz-adv-x="549" 
d="M109 715h10v-705h400v-10h-410v715zM316 261v111h10v-111h-10z" />
    <glyph glyph-name="ldot" unicode="&#x140;" horiz-adv-x="285" 
d="M95 715h10v-715h-10v715zM240 261v111h10v-111h-10z" />
    <glyph glyph-name="Lslash" unicode="&#x141;" horiz-adv-x="549" 
d="M109 715h10v-363l201 132v-11l-201 -131v-332h400v-10h-410v335l-81 -52v10l81 53v369z" />
    <glyph glyph-name="lslash" unicode="&#x142;" horiz-adv-x="205" 
d="M97 715h10v-332l87 56v-11l-87 -56v-372h-10v365l-84 -54v11l84 54v339z" />
    <glyph glyph-name="Nacute" unicode="&#x143;" horiz-adv-x="699" 
d="M109 715h13l288 -440q156 -236 170 -262h1q0 17 -0.5 127.5t-0.5 148.5v426h10v-715h-13l-282 431q-158 243 -176 271h-1q0 -16 0.5 -161t0.5 -180v-361h-10v715zM446 877l-128 -116h-13l126 116h15z" />
    <glyph glyph-name="nacute" unicode="&#x144;" horiz-adv-x="570" 
d="M90 0v445q0 53 -1 80h11v-37q0 -9 -0.5 -40.5t-0.5 -48.5v-57q1 30 12 62t33 63.5t62 51.5t91 20q128 0 171 -103q19 -41 19 -117v-319h-10v319q0 71 -19 113q-44 97 -161 97q-94 0 -145.5 -68.5t-51.5 -163.5v-297h-10zM381 715l-133 -119h-13l131 119h15z" />
    <glyph glyph-name="Ncommaaccent" unicode="&#x145;" horiz-adv-x="699" 
d="M109 715h13l288 -440q156 -236 170 -262h1q0 17 -0.5 127.5t-0.5 148.5v426h10v-715h-13l-282 431q-158 243 -176 271h-1q0 -16 0.5 -161t0.5 -180v-361h-10v715zM362 -47l-78 -115h-11l77 115h12z" />
    <glyph glyph-name="ncommaaccent" unicode="&#x146;" horiz-adv-x="570" 
d="M90 0v445q0 53 -1 80h11v-37q0 -9 -0.5 -40.5t-0.5 -48.5v-57q1 30 12 62t33 63.5t62 51.5t91 20q128 0 171 -103q19 -41 19 -117v-319h-10v319q0 71 -19 113q-44 97 -161 97q-94 0 -145.5 -68.5t-51.5 -163.5v-297h-10zM305 -47l-78 -115h-11l77 115h12z" />
    <glyph glyph-name="Ncaron" unicode="&#x147;" horiz-adv-x="699" 
d="M109 715h13l288 -440q156 -236 170 -262h1q0 17 -0.5 127.5t-0.5 148.5v426h10v-715h-13l-282 431q-158 243 -176 271h-1q0 -16 0.5 -161t0.5 -180v-361h-10v715zM361 760h-10q-17 20 -54 62t-46 53h12l93 -106l93 106h12q-9 -11 -46 -53t-54 -62z" />
    <glyph glyph-name="ncaron" unicode="&#x148;" horiz-adv-x="570" 
d="M90 0v445q0 53 -1 80h11v-37q0 -9 -0.5 -40.5t-0.5 -48.5v-57q1 30 12 62t33 63.5t62 51.5t91 20q128 0 171 -103q19 -41 19 -117v-319h-10v319q0 71 -19 113q-44 97 -161 97q-94 0 -145.5 -68.5t-51.5 -163.5v-297h-10zM301 596h-10q-12 15 -102 119h12l95 -110l95 110
h12q-90 -104 -102 -119z" />
    <glyph glyph-name="napostrophe" unicode="&#x149;" horiz-adv-x="609" 
d="M129 0v445q0 53 -1 80h11v-37q0 -9 -0.5 -40.5t-0.5 -48.5v-57q1 30 12 62t33 63.5t62 51.5t91 20q128 0 171 -103q19 -41 19 -117v-319h-10v319q0 71 -19 113q-44 97 -161 97q-94 0 -145.5 -68.5t-51.5 -163.5v-297h-10zM95 715l-76 -232h-10l76 232h10z" />
    <glyph glyph-name="Eng" unicode="&#x14a;" horiz-adv-x="699" 
d="M580 715h10v-688q0 -103 -29 -152q-39 -69 -136 -69q-152 0 -152 187h10q0 -177 142 -177q92 0 127 63q22 40 27 121h-2l-282 431q-158 243 -176 271h-1q0 -16 0.5 -161t0.5 -180v-361h-10v715h13l288 -440q156 -236 170 -262v702z" />
    <glyph glyph-name="eng" unicode="&#x14b;" horiz-adv-x="570" 
d="M90 0v445q0 53 -1 80h11v-37q0 -23 -0.5 -79t-0.5 -60q2 30 14 61t34 61t61 49t89 19q128 0 171 -103q19 -41 19 -117v-392q0 -66 -21.5 -95t-70.5 -29q-7 0 -21 2v10q10 -2 21 -2q44 0 63 25.5t19 87.5v393q0 71 -19 113q-44 97 -161 97q-94 0 -145.5 -68.5
t-51.5 -163.5v-297h-10z" />
    <glyph glyph-name="Omacron" unicode="&#x14c;" horiz-adv-x="808" 
d="M404 729q154 0 250.5 -103t96.5 -268q0 -166 -95.5 -269t-251.5 -103t-251.5 103t-95.5 269t96 268.5t251 102.5zM404 -4q151 0 244 100t93 262t-93 261.5t-244 99.5q-152 0 -244.5 -99.5t-92.5 -261.5q0 -161 93 -261.5t244 -100.5zM286 802v10h244v-10h-244z" />
    <glyph glyph-name="omacron" unicode="&#x14d;" horiz-adv-x="610" 
d="M304 -3q110 0 176 72.5t66 192.5q0 118 -66 192.5t-175 74.5t-175 -74.5t-66 -192.5q0 -120 65 -192.5t175 -72.5zM303 -13q-115 0 -182 76.5t-67 198.5q0 124 69 200.5t182 76.5t182 -76.5t69 -200.5q0 -122 -68.5 -198.5t-184.5 -76.5zM184 652v10h244v-10h-244z" />
    <glyph glyph-name="Obreve" unicode="&#x14e;" horiz-adv-x="808" 
d="M404 729q154 0 250.5 -103t96.5 -268q0 -166 -95.5 -269t-251.5 -103t-251.5 103t-95.5 269t96 268.5t251 102.5zM404 -4q151 0 244 100t93 262t-93 261.5t-244 99.5q-152 0 -244.5 -99.5t-92.5 -261.5q0 -161 93 -261.5t244 -100.5zM410 793q84 0 103 86h10
q-18 -96 -113 -96t-113 96h10q13 -86 103 -86z" />
    <glyph glyph-name="obreve" unicode="&#x14f;" horiz-adv-x="610" 
d="M304 -3q110 0 176 72.5t66 192.5q0 118 -66 192.5t-175 74.5t-175 -74.5t-66 -192.5q0 -120 65 -192.5t175 -72.5zM303 -13q-115 0 -182 76.5t-67 198.5q0 124 69 200.5t182 76.5t182 -76.5t69 -200.5q0 -122 -68.5 -198.5t-184.5 -76.5zM306 629q84 0 103 86h10
q-18 -96 -113 -96t-113 96h10q13 -86 103 -86z" />
    <glyph glyph-name="Ohungarumlaut" unicode="&#x150;" horiz-adv-x="808" 
d="M404 729q154 0 250.5 -103t96.5 -268q0 -166 -95.5 -269t-251.5 -103t-251.5 103t-95.5 269t96 268.5t251 102.5zM404 -4q151 0 244 100t93 262t-93 261.5t-244 99.5q-152 0 -244.5 -99.5t-92.5 -261.5q0 -161 93 -261.5t244 -100.5zM454 877l-126 -116h-14l126 116h14z
M624 877l-126 -116h-14l126 116h14z" />
    <glyph glyph-name="ohungarumlaut" unicode="&#x151;" horiz-adv-x="610" 
d="M304 -3q110 0 176 72.5t66 192.5q0 118 -66 192.5t-175 74.5t-175 -74.5t-66 -192.5q0 -120 65 -192.5t175 -72.5zM303 -13q-115 0 -182 76.5t-67 198.5q0 124 69 200.5t182 76.5t182 -76.5t69 -200.5q0 -122 -68.5 -198.5t-184.5 -76.5zM356 715l-131 -119h-14l131 119
h14zM511 715l-131 -119h-14l131 119h14z" />
    <glyph glyph-name="OE" unicode="&#x152;" horiz-adv-x="1236" 
d="M404 729q137 0 226.5 -79t110.5 -205h1q-2 23 -2 147v123h431v-10h-421v-332h397v-10h-397v-353h428v-10h-438v103q1 22 1 65q0 77 1 102h-1q-20 -128 -111 -206t-226 -78q-156 0 -251.5 103t-95.5 269t96 268.5t251 102.5zM404 -4q151 0 244 100t93 262t-93 261.5
t-244 99.5q-152 0 -244.5 -99.5t-92.5 -261.5q0 -161 93 -261.5t244 -100.5z" />
    <glyph glyph-name="oe" unicode="&#x153;" horiz-adv-x="1062" 
d="M544 216q-10 -106 -75 -167.5t-170 -61.5q-115 0 -180 76t-65 199q0 124 67 200.5t180 76.5q98 0 164.5 -61.5t78.5 -161.5q12 100 74.5 161.5t161.5 61.5q108 0 169 -72t65 -188h-465v-13q0 -121 60.5 -195t169.5 -74q166 0 216 153h10q-24 -76 -81.5 -119.5
t-144.5 -43.5q-97 0 -160 59t-75 170zM300 -3q110 0 174.5 72.5t64.5 192.5q0 118 -64.5 192.5t-173.5 74.5t-173 -74.5t-64 -192.5q0 -121 63 -193t173 -72zM780 529q-100 0 -162.5 -67t-68.5 -173h454q-6 105 -64 172.5t-159 67.5z" />
    <glyph glyph-name="Racute" unicode="&#x154;" horiz-adv-x="585" 
d="M109 0v715h162q79 0 125 -14q133 -39 133 -179q0 -89 -55 -138.5t-142 -58.5l197 -325h-14l-195 324h-201v-324h-10zM119 705v-371h177q100 0 160 48q63 49 63 140q0 132 -128 170q-41 13 -120 13h-152zM395 877l-128 -116h-13l126 116h15z" />
    <glyph glyph-name="racute" unicode="&#x155;" horiz-adv-x="259" 
d="M98 348h1q2 77 37 133t94 56q10 0 17 -1v-10q-7 1 -17 1q-36 0 -62.5 -22t-40.5 -61t-20.5 -82.5t-6.5 -94.5v-267h-10v446q0 55 -1 79h11v-69q0 -10 -1 -51.5t-1 -56.5zM217 715l-133 -119h-13l131 119h15z" />
    <glyph glyph-name="Rcommaaccent" unicode="&#x156;" horiz-adv-x="585" 
d="M109 0v715h162q79 0 125 -14q133 -39 133 -179q0 -89 -55 -138.5t-142 -58.5l197 -325h-14l-195 324h-201v-324h-10zM119 705v-371h177q100 0 160 48q63 49 63 140q0 132 -128 170q-41 13 -120 13h-152zM217 -163l78 115h11l-77 -115h-12z" />
    <glyph glyph-name="rcommaaccent" unicode="&#x157;" horiz-adv-x="259" 
d="M98 348h1q2 77 37 133t94 56q10 0 17 -1v-10q-7 1 -17 1q-36 0 -62.5 -22t-40.5 -61t-20.5 -82.5t-6.5 -94.5v-267h-10v446q0 55 -1 79h11v-69q0 -10 -1 -51.5t-1 -56.5zM41 -163l78 115h11l-77 -115h-12z" />
    <glyph glyph-name="Rcaron" unicode="&#x158;" horiz-adv-x="585" 
d="M109 0v715h162q79 0 125 -14q133 -39 133 -179q0 -89 -55 -138.5t-142 -58.5l197 -325h-14l-195 324h-201v-324h-10zM119 705v-371h177q100 0 160 48q63 49 63 140q0 132 -128 170q-41 13 -120 13h-152zM299 760h-10q-17 20 -54 62t-46 53h12l93 -106l93 106h12
q-9 -11 -46 -53t-54 -62z" />
    <glyph glyph-name="rcaron" unicode="&#x159;" horiz-adv-x="259" 
d="M98 348h1q2 77 37 133t94 56q10 0 17 -1v-10q-7 1 -17 1q-36 0 -62.5 -22t-40.5 -61t-20.5 -82.5t-6.5 -94.5v-267h-10v446q0 55 -1 79h11v-69q0 -10 -1 -51.5t-1 -56.5zM123 596h-10q-12 15 -102 119h12l95 -110l95 110h12q-90 -104 -102 -119z" />
    <glyph glyph-name="Sacute" unicode="&#x15a;" horiz-adv-x="607" 
d="M48 203h10q19 -101 77 -154t168 -53t174 52.5t64 129.5q0 32 -10.5 57.5t-26 42.5t-44.5 32t-54 24.5t-66 21.5l-65 19q-113 33 -157.5 71t-44.5 112q0 77 61 124t167 47q107 0 168 -51.5t70 -147.5h-10q-24 189 -228 189q-104 0 -161 -45t-57 -116q0 -68 42 -104.5
t151 -69.5l66 -20q44 -13 64 -20t53.5 -23.5t49.5 -33t29 -45t13 -64.5q0 -85 -68.5 -138.5t-179.5 -53.5q-222 0 -255 217zM417 877l-128 -116h-13l126 116h15z" />
    <glyph glyph-name="sacute" unicode="&#x15b;" horiz-adv-x="494" 
d="M46 141h10q31 -144 190 -144q91 0 138 39t47 99q0 53 -35.5 78t-118.5 47l-48 14q-90 23 -125 50.5t-35 85.5q0 57 48.5 93t128.5 36t128 -35t59 -99h-10q-25 124 -177 124q-80 0 -123 -33t-44 -86q0 -52 32 -78t120 -49l50 -14q83 -21 121.5 -48t38.5 -86
q0 -69 -52.5 -108.5t-142.5 -39.5q-170 0 -200 154zM357 715l-133 -119h-13l131 119h15z" />
    <glyph glyph-name="Scircumflex" unicode="&#x15c;" horiz-adv-x="607" 
d="M48 203h10q19 -101 77 -154t168 -53t174 52.5t64 129.5q0 32 -10.5 57.5t-26 42.5t-44.5 32t-54 24.5t-66 21.5l-65 19q-113 33 -157.5 71t-44.5 112q0 77 61 124t167 47q107 0 168 -51.5t70 -147.5h-10q-24 189 -228 189q-104 0 -161 -45t-57 -116q0 -68 42 -104.5
t151 -69.5l66 -20q44 -13 64 -20t53.5 -23.5t49.5 -33t29 -45t13 -64.5q0 -85 -68.5 -138.5t-179.5 -53.5q-222 0 -255 217zM307 875h10q17 -20 54 -62t46 -53h-12l-93 106l-93 -106h-12q9 11 46 53t54 62z" />
    <glyph glyph-name="scircumflex" unicode="&#x15d;" horiz-adv-x="494" 
d="M46 141h10q31 -144 190 -144q91 0 138 39t47 99q0 53 -35.5 78t-118.5 47l-48 14q-90 23 -125 50.5t-35 85.5q0 57 48.5 93t128.5 36t128 -35t59 -99h-10q-25 124 -177 124q-80 0 -123 -33t-44 -86q0 -52 32 -78t120 -49l50 -14q83 -21 121.5 -48t38.5 -86
q0 -69 -52.5 -108.5t-142.5 -39.5q-170 0 -200 154zM250 715h10q12 -15 102 -119h-12l-95 110l-95 -110h-12q90 104 102 119z" />
    <glyph glyph-name="Scedilla" unicode="&#x15e;" horiz-adv-x="607" 
d="M48 203h10q19 -101 77 -154t168 -53t174 52.5t64 129.5q0 32 -10.5 57.5t-26 42.5t-44.5 32t-54 24.5t-66 21.5l-65 19q-113 33 -157.5 71t-44.5 112q0 77 61 124t167 47q107 0 168 -51.5t70 -147.5h-10q-24 189 -228 189q-104 0 -161 -45t-57 -116q0 -68 42 -104.5
t151 -69.5l66 -20q44 -13 64 -20t53.5 -23.5t49.5 -33t29 -45t13 -64.5q0 -85 -68.5 -138.5t-179.5 -53.5q-222 0 -255 217zM223 -163l78 115h11l-77 -115h-12z" />
    <glyph glyph-name="scedilla" unicode="&#x15f;" horiz-adv-x="494" 
d="M46 141h10q31 -144 190 -144q91 0 138 39t47 99q0 53 -35.5 78t-118.5 47l-48 14q-90 23 -125 50.5t-35 85.5q0 57 48.5 93t128.5 36t128 -35t59 -99h-10q-25 124 -177 124q-80 0 -123 -33t-44 -86q0 -52 32 -78t120 -49l50 -14q83 -21 121.5 -48t38.5 -86
q0 -69 -52.5 -108.5t-142.5 -39.5q-170 0 -200 154zM180 -163l78 115h11l-77 -115h-12z" />
    <glyph glyph-name="Scaron" unicode="&#x160;" horiz-adv-x="607" 
d="M48 203h10q19 -101 77 -154t168 -53t174 52.5t64 129.5q0 32 -10.5 57.5t-26 42.5t-44.5 32t-54 24.5t-66 21.5l-65 19q-113 33 -157.5 71t-44.5 112q0 77 61 124t167 47q107 0 168 -51.5t70 -147.5h-10q-24 189 -228 189q-104 0 -161 -45t-57 -116q0 -68 42 -104.5
t151 -69.5l66 -20q44 -13 64 -20t53.5 -23.5t49.5 -33t29 -45t13 -64.5q0 -85 -68.5 -138.5t-179.5 -53.5q-222 0 -255 217zM312 760h-10q-17 20 -54 62t-46 53h12l93 -106l93 106h12q-9 -11 -46 -53t-54 -62z" />
    <glyph glyph-name="scaron" unicode="&#x161;" horiz-adv-x="494" 
d="M46 141h10q31 -144 190 -144q91 0 138 39t47 99q0 53 -35.5 78t-118.5 47l-48 14q-90 23 -125 50.5t-35 85.5q0 57 48.5 93t128.5 36t128 -35t59 -99h-10q-25 124 -177 124q-80 0 -123 -33t-44 -86q0 -52 32 -78t120 -49l50 -14q83 -21 121.5 -48t38.5 -86
q0 -69 -52.5 -108.5t-142.5 -39.5q-170 0 -200 154zM257 596h-10q-12 15 -102 119h12l95 -110l95 110h12q-90 -104 -102 -119z" />
    <glyph glyph-name="uni0162" unicode="&#x162;" horiz-adv-x="531" 
d="M261 0v705h-238v10h485v-10h-237v-705h-10zM198 -163l78 115h11l-77 -115h-12z" />
    <glyph glyph-name="uni0163" unicode="&#x163;" horiz-adv-x="229" 
d="M206 5v-10q-14 -2 -23 -2q-53 0 -69 29.5t-16 96.5v396h-74v10h74v142h10v-142h98v-10h-98v-396q0 -66 14 -91t61 -25q9 0 23 2zM95 -163l78 115h11l-77 -115h-12z" />
    <glyph glyph-name="Tcaron" unicode="&#x164;" horiz-adv-x="531" 
d="M261 0v705h-238v10h485v-10h-237v-705h-10zM271 760h-10q-17 20 -54 62t-46 53h12l93 -106l93 106h12q-9 -11 -46 -53t-54 -62z" />
    <glyph glyph-name="tcaron" unicode="&#x165;" horiz-adv-x="263" 
d="M206 5v-10q-14 -2 -23 -2q-53 0 -69 29.5t-16 96.5v396h-74v10h74v142h10v-142h98v-10h-98v-396q0 -66 14 -91t61 -25q9 0 23 2zM324 715l-76 -232h-10l76 232h10z" />
    <glyph glyph-name="Tbar" unicode="&#x166;" horiz-adv-x="556" 
d="M111 362v10h161v333h-238v10h485v-10h-237v-333h173v-10h-173v-362h-10v362h-161z" />
    <glyph glyph-name="tbar" unicode="&#x167;" horiz-adv-x="235" 
d="M27 320v10h74v185h-74v10h74v142h10v-142h98v-10h-98v-185h98v-10h-98v-201q0 -66 14 -91t61 -25q9 0 23 2v-10q-14 -2 -23 -2q-53 0 -69 29.5t-16 96.5v201h-74z" />
    <glyph glyph-name="Utilde" unicode="&#x168;" horiz-adv-x="666" 
d="M333 -4q123 0 173 63t50 190v466h10v-466q0 -139 -55 -201t-178 -62t-178 62t-55 201v466h10v-466q0 -127 50 -190t173 -63zM355 798l-51 25q-28 13 -44 13q-37 0 -50 -59h-10q14 69 60 69q22 0 53 -17l47 -23q32 -15 47 -15q40 0 52 61h10q-13 -71 -62 -71q-16 0 -52 17
z" />
    <glyph glyph-name="utilde" unicode="&#x169;" horiz-adv-x="563" 
d="M473 525v-445q0 -53 1 -80h-11v37v89q0 37 1 57q-1 -30 -12 -62t-32.5 -63.5t-61 -51.5t-90.5 -20q-123 0 -166 103q-19 41 -19 117v319h10v-319q0 -71 19 -113q44 -97 156 -97q93 0 144 68.5t51 163.5v297h10zM307 648l-51 25q-28 13 -44 13q-37 0 -50 -59h-10
q14 69 60 69q22 0 53 -17l47 -23q32 -15 47 -15q40 0 52 61h10q-13 -71 -62 -71q-16 0 -52 17z" />
    <glyph glyph-name="Umacron" unicode="&#x16a;" horiz-adv-x="666" 
d="M333 -4q123 0 173 63t50 190v466h10v-466q0 -139 -55 -201t-178 -62t-178 62t-55 201v466h10v-466q0 -127 50 -190t173 -63zM210 802v10h244v-10h-244z" />
    <glyph glyph-name="umacron" unicode="&#x16b;" horiz-adv-x="563" 
d="M473 525v-445q0 -53 1 -80h-11v37v89q0 37 1 57q-1 -30 -12 -62t-32.5 -63.5t-61 -51.5t-90.5 -20q-123 0 -166 103q-19 41 -19 117v319h10v-319q0 -71 19 -113q44 -97 156 -97q93 0 144 68.5t51 163.5v297h10zM156 652v10h244v-10h-244z" />
    <glyph glyph-name="Ubreve" unicode="&#x16c;" horiz-adv-x="666" 
d="M333 -4q123 0 173 63t50 190v466h10v-466q0 -139 -55 -201t-178 -62t-178 62t-55 201v466h10v-466q0 -127 50 -190t173 -63zM327 793q84 0 103 86h10q-18 -96 -113 -96t-113 96h10q13 -86 103 -86z" />
    <glyph glyph-name="ubreve" unicode="&#x16d;" horiz-adv-x="563" 
d="M473 525v-445q0 -53 1 -80h-11v37v89q0 37 1 57q-1 -30 -12 -62t-32.5 -63.5t-61 -51.5t-90.5 -20q-123 0 -166 103q-19 41 -19 117v319h10v-319q0 -71 19 -113q44 -97 156 -97q93 0 144 68.5t51 163.5v297h10zM281 629q84 0 103 86h10q-18 -96 -113 -96t-113 96h10
q13 -86 103 -86z" />
    <glyph glyph-name="Uring" unicode="&#x16e;" horiz-adv-x="666" 
d="M333 -4q123 0 173 63t50 190v466h10v-466q0 -139 -55 -201t-178 -62t-178 62t-55 201v466h10v-466q0 -127 50 -190t173 -63zM333 759q-32 0 -54 22.5t-22 55.5q0 32 22 54t54 22t55 -22t23 -54q0 -33 -22.5 -55.5t-55.5 -22.5zM266 837q0 -29 19 -49t48 -20t49 19.5
t20 49.5q0 28 -20 47.5t-49 19.5t-48 -19.5t-19 -47.5z" />
    <glyph glyph-name="uring" unicode="&#x16f;" horiz-adv-x="563" 
d="M473 525v-445q0 -53 1 -80h-11v37v89q0 37 1 57q-1 -30 -12 -62t-32.5 -63.5t-61 -51.5t-90.5 -20q-123 0 -166 103q-19 41 -19 117v319h10v-319q0 -71 19 -113q44 -97 156 -97q93 0 144 68.5t51 163.5v297h10zM283 599q-32 0 -54 22.5t-22 55.5q0 32 22 54t54 22t55 -22
t23 -54q0 -33 -22.5 -55.5t-55.5 -22.5zM216 677q0 -29 19 -49t48 -20t49 19.5t20 49.5q0 28 -20 47.5t-49 19.5t-48 -19.5t-19 -47.5z" />
    <glyph glyph-name="Uhungarumlaut" unicode="&#x170;" horiz-adv-x="666" 
d="M333 -4q123 0 173 63t50 190v466h10v-466q0 -139 -55 -201t-178 -62t-178 62t-55 201v466h10v-466q0 -127 50 -190t173 -63zM351 877l-126 -116h-14l126 116h14zM521 877l-126 -116h-14l126 116h14z" />
    <glyph glyph-name="uhungarumlaut" unicode="&#x171;" horiz-adv-x="563" 
d="M473 525v-445q0 -53 1 -80h-11v37v89q0 37 1 57q-1 -30 -12 -62t-32.5 -63.5t-61 -51.5t-90.5 -20q-123 0 -166 103q-19 41 -19 117v319h10v-319q0 -71 19 -113q44 -97 156 -97q93 0 144 68.5t51 163.5v297h10zM316 715l-131 -119h-14l131 119h14zM471 715l-131 -119h-14
l131 119h14z" />
    <glyph glyph-name="Uogonek" unicode="&#x172;" horiz-adv-x="666" 
d="M333 -4q123 0 173 63t50 190v466h10v-466q0 -139 -55 -201t-178 -62t-178 62t-55 201v466h10v-466q0 -127 50 -190t173 -63zM320 -48l78 -115h-12l-77 115h11z" />
    <glyph glyph-name="uogonek" unicode="&#x173;" horiz-adv-x="563" 
d="M473 525v-445q0 -53 1 -80h-11v37v89q0 37 1 57q-1 -30 -12 -62t-32.5 -63.5t-61 -51.5t-90.5 -20q-123 0 -166 103q-19 41 -19 117v319h10v-319q0 -71 19 -113q44 -97 156 -97q93 0 144 68.5t51 163.5v297h10zM274 -48l78 -115h-12l-77 115h11z" />
    <glyph glyph-name="Wcircumflex" unicode="&#x174;" horiz-adv-x="753" 
d="M704 715l-159 -715h-9l-90 406q-8 38 -31.5 142t-32.5 150h-2q-7 -34 -74 -321l-89 -377h-11l-155 715h11l96 -449q41 -183 53 -248h1q7 37 16.5 78.5t22 91.5t18.5 78l106 449h12l99 -440q31 -137 54 -255h1q21 104 55 258l97 437h11zM376 875h10q17 -20 54 -62t46 -53
h-12l-93 106l-93 -106h-12q9 11 46 53t54 62z" />
    <glyph glyph-name="wcircumflex" unicode="&#x175;" horiz-adv-x="745" 
d="M371 525h13l80 -290q12 -47 31.5 -118t27.5 -104h2q12 33 25 74q6 17 21.5 64.5t23.5 69.5l105 304h10q-58 -160 -112 -322l-69 -203h-11l-140 513h-2l-152 -513h-11l-174 525h10l101 -302q34 -108 44 -136l24 -74h2q32 122 66 232zM372 715h10q12 -15 102 -119h-12
l-95 110l-95 -110h-12q90 104 102 119z" />
    <glyph glyph-name="Ycircumflex" unicode="&#x176;" horiz-adv-x="596" 
d="M292 0v272l-260 443h12q31 -52 117.5 -200.5t135.5 -231.5q29 48 126 208.5t134 223.5h12l-267 -443v-272h-10zM292 875h10q17 -20 54 -62t46 -53h-12l-93 106l-93 -106h-12q9 11 46 53t54 62z" />
    <glyph glyph-name="ycircumflex" unicode="&#x177;" horiz-adv-x="482" 
d="M177 -180h-10l70 180l-206 525h11l115 -298q10 -26 40 -100t44 -114h2q10 30 24 66.5t32 82.5t28 73l111 290h10q-15 -40 -54 -142t-103.5 -268.5t-113.5 -294.5zM244 715h10q12 -15 102 -119h-12l-95 110l-95 -110h-12q90 104 102 119z" />
    <glyph glyph-name="Ydieresis" unicode="&#x178;" horiz-adv-x="596" 
d="M292 0v272l-260 443h12q31 -52 117.5 -200.5t135.5 -231.5q29 48 126 208.5t134 223.5h12l-267 -443v-272h-10zM236 766v80h10v-80h-10zM349 766v80h10v-80h-10z" />
    <glyph glyph-name="Zacute" unicode="&#x179;" horiz-adv-x="570" 
d="M33 0v7q12 15 59.5 82.5t59.5 84.5l273 385q21 29 60 85.5t42 60.5h-492v10h506v-7q-46 -69 -115 -165l-259 -366q-79 -107 -120 -167h484v-10h-498zM377 877l-128 -116h-13l126 116h15z" />
    <glyph glyph-name="zacute" unicode="&#x17a;" horiz-adv-x="487" 
d="M39 0v8l266 339l131 168h-398v10h412v-8l-257 -328q-9 -11 -69 -87.5t-73 -91.5h396v-10h-408zM337 715l-133 -119h-13l131 119h15z" />
    <glyph glyph-name="Zdotaccent" unicode="&#x17b;" horiz-adv-x="570" 
d="M33 0v7q12 15 59.5 82.5t59.5 84.5l273 385q21 29 60 85.5t42 60.5h-492v10h506v-7q-46 -69 -115 -165l-259 -366q-79 -107 -120 -167h484v-10h-498zM278 766v80h10v-80h-10z" />
    <glyph glyph-name="zdotaccent" unicode="&#x17c;" horiz-adv-x="487" 
d="M39 0v8l266 339l131 168h-398v10h412v-8l-257 -328q-9 -11 -69 -87.5t-73 -91.5h396v-10h-408zM240 616v80h10v-80h-10z" />
    <glyph glyph-name="Zcaron" unicode="&#x17d;" horiz-adv-x="570" 
d="M33 0v7q12 15 59.5 82.5t59.5 84.5l273 385q21 29 60 85.5t42 60.5h-492v10h506v-7q-46 -69 -115 -165l-259 -366q-79 -107 -120 -167h484v-10h-498zM288 760h-10q-17 20 -54 62t-46 53h12l93 -106l93 106h12q-9 -11 -46 -53t-54 -62z" />
    <glyph glyph-name="zcaron" unicode="&#x17e;" horiz-adv-x="487" 
d="M39 0v8l266 339l131 168h-398v10h412v-8l-257 -328q-9 -11 -69 -87.5t-73 -91.5h396v-10h-408zM252 596h-10q-12 15 -102 119h12l95 -110l95 110h12q-90 -104 -102 -119z" />
    <glyph glyph-name="uni0186" unicode="&#x186;" horiz-adv-x="773" 
d="M51 206h11q36 -99 116 -154.5t191 -55.5q151 0 244 100.5t93 261.5q0 162 -92.5 261.5t-244.5 99.5q-114 0 -194.5 -58t-114.5 -161h-11q36 107 119 168t201 61q155 0 251 -102.5t96 -268.5t-95.5 -269t-251.5 -103q-116 0 -198.5 58t-119.5 162z" />
    <glyph glyph-name="uni018F" unicode="&#x18f;" horiz-adv-x="793" 
d="M46 350v10h680q0 161 -93.5 260t-243.5 99q-113 0 -193 -55.5t-116 -155.5h-10q36 104 119.5 162.5t199.5 58.5q154 0 250.5 -103t96.5 -268q0 -166 -95.5 -269t-251.5 -103q-155 0 -248 99.5t-95 264.5zM389 -4q148 0 241.5 97.5t95.5 256.5h-670q2 -160 93 -257
t240 -97z" />
    <glyph glyph-name="uni0190" unicode="&#x190;" horiz-adv-x="557" 
d="M502 196h10q-8 -104 -67 -157t-162 -53q-97 0 -162.5 59.5t-65.5 154.5q0 89 59 137t149 52v2q-80 10 -128 55.5t-48 120.5q0 74 51 118t142 44q93 0 147 -48t59 -132h-10q-5 78 -55 124t-141 46q-89 0 -136 -44t-47 -110q0 -81 63.5 -126.5t163.5 -45.5v-10h-24
q-105 0 -170 -46t-65 -137q0 -83 58.5 -143.5t159.5 -60.5q200 0 219 200z" />
    <glyph glyph-name="florin" unicode="&#x192;" horiz-adv-x="423" 
d="M64 471l2 10h131l3 18q19 122 53.5 172.5t117.5 50.5q14 0 25 -1l-1 -10q-9 1 -25 1q-68 0 -103.5 -41t-52.5 -159l-5 -31h144l-2 -10h-143l-62 -416q-21 -142 -55 -194.5t-116 -52.5q-11 0 -25 2l2 10q14 -2 23 -2q77 0 107 50.5t52 187.5l62 415h-132z" />
    <glyph glyph-name="uni019D" unicode="&#x19d;" horiz-adv-x="699" 
d="M109 715h13l288 -440q156 -236 170 -262h1q0 17 -0.5 127.5t-0.5 148.5v426h10v-715h-13l-282 431q-158 243 -176 271h-1q0 -16 0.5 -161t0.5 -180v-434q0 -66 -21.5 -95t-70.5 -29q-7 0 -21 2v10q10 -2 21 -2q44 0 63 25.5t19 87.5v789z" />
    <glyph glyph-name="uni019F" unicode="&#x19f;" horiz-adv-x="808" 
d="M404 729q154 0 250.5 -103t96.5 -268q0 -166 -95.5 -269t-251.5 -103t-251.5 103t-95.5 269t96 268.5t251 102.5zM404 -4q150 0 243.5 100t93.5 261h-674q0 -162 93 -261.5t244 -99.5zM404 719q-149 0 -242 -97t-95 -255h674q-4 158 -96.5 255t-240.5 97z" />
    <glyph glyph-name="Ohorn" unicode="&#x1a0;" horiz-adv-x="808" 
d="M404 729q154 0 250.5 -103t96.5 -268q0 -166 -95.5 -269t-251.5 -103t-251.5 103t-95.5 269t96 268.5t251 102.5zM404 -4q151 0 244 100t93 262t-93 261.5t-244 99.5q-152 0 -244.5 -99.5t-92.5 -261.5q0 -161 93 -261.5t244 -100.5zM665 906l-70 -191h-11l70 191h11z
" />
    <glyph glyph-name="ohorn" unicode="&#x1a1;" horiz-adv-x="610" 
d="M304 -3q110 0 176 72.5t66 192.5q0 118 -66 192.5t-175 74.5t-175 -74.5t-66 -192.5q0 -120 65 -192.5t175 -72.5zM303 -13q-115 0 -182 76.5t-67 198.5q0 124 69 200.5t182 76.5t182 -76.5t69 -200.5q0 -122 -68.5 -198.5t-184.5 -76.5zM528 715l-70 -191h-11l70 191h11
z" />
    <glyph glyph-name="Uhorn" unicode="&#x1af;" horiz-adv-x="666" 
d="M630 906l-70 -191h6v-466q0 -139 -55 -201t-178 -62t-178 62t-55 201v466h10v-466q0 -127 50 -190t173 -63t173 63t50 190v466h-7l70 191h11z" />
    <glyph glyph-name="uhorn" unicode="&#x1b0;" horiz-adv-x="563" 
d="M538 715l-71 -190h6v-445q0 -53 1 -80h-11v37q0 21 0.5 78t0.5 61q-2 -30 -13.5 -61t-33.5 -61t-61 -49t-88 -19q-123 0 -166 103q-19 41 -19 117v319h10v-319q0 -71 19 -113q44 -97 156 -97q93 0 144 68.5t51 163.5v296h-6l70 191h11z" />
    <glyph glyph-name="uni01C4" unicode="&#x1c4;" horiz-adv-x="1274" 
d="M109 0v715h136q142 0 229 -42q170 -83 170 -312q0 -187 -109 -279q-52 -44 -116 -63t-176 -19h-134zM119 705v-695h124q152 0 235 45q156 86 156 306q0 227 -171 306q-81 38 -218 38h-126zM737 0v7q12 15 59.5 82.5t59.5 84.5l273 385q21 29 60 85.5t42 60.5h-492v10h506
v-7q-46 -69 -115 -165l-259 -366q-79 -107 -120 -167h484v-10h-498zM992 760h-10q-17 20 -54 62t-46 53h12l93 -106l93 106h12q-9 -11 -46 -53t-54 -62z" />
    <glyph glyph-name="uni01C5" unicode="&#x1c5;" horiz-adv-x="1191" 
d="M109 0v715h136q142 0 229 -42q170 -83 170 -312q0 -187 -109 -279q-52 -44 -116 -63t-176 -19h-134zM119 705v-695h124q152 0 235 45q156 86 156 306q0 227 -171 306q-81 38 -218 38h-126zM743 0v8l266 339l131 168h-398v10h412v-8l-257 -328q-9 -11 -69 -87.5t-73 -91.5
h396v-10h-408zM955 596h-10q-12 15 -102 119h12l95 -110l95 110h12q-90 -104 -102 -119z" />
    <glyph glyph-name="uni01C6" unicode="&#x1c6;" horiz-adv-x="1104" 
d="M527 715v-715h-10v104v49q0 20 1 31q-14 -85 -73.5 -141t-150.5 -56q-108 0 -174 73t-66 202q0 125 66.5 201t173.5 76q90 0 150.5 -58t73.5 -139q-1 37 -1 112v261h10zM294 -3q102 0 163 72.5t61 193.5q0 118 -61.5 192t-162.5 74q-103 0 -166.5 -73.5t-63.5 -193.5
q0 -122 63 -193.5t167 -71.5zM656 0v8l266 339l131 168h-398v10h412v-8l-257 -328q-9 -11 -69 -87.5t-73 -91.5h396v-10h-408zM868 596h-10q-12 15 -102 119h12l95 -110l95 110h12q-90 -104 -102 -119z" />
    <glyph glyph-name="uni01C7" unicode="&#x1c7;" horiz-adv-x="1001" 
d="M109 715h10v-705h400v-10h-410v715zM889 715h10v-508q0 -103 -29 -152q-39 -69 -136 -69q-152 0 -152 187h10q0 -177 142 -177q92 0 127 63q28 49 28 147v509z" />
    <glyph glyph-name="uni01C8" unicode="&#x1c8;" horiz-adv-x="739" 
d="M109 715h10v-705h400v-10h-410v715zM639 525h10v-598q0 -66 -21.5 -95t-70.5 -29q-7 0 -21 2v10q10 -2 21 -2q44 0 63 25.5t19 87.5v599zM649 604h-10v111h10v-111z" />
    <glyph glyph-name="uni01C9" unicode="&#x1c9;" horiz-adv-x="390" 
d="M95 715h10v-715h-10v715zM290 525h10v-598q0 -66 -21.5 -95t-70.5 -29q-7 0 -21 2v10q10 -2 21 -2q44 0 63 25.5t19 87.5v599zM300 604h-10v111h10v-111z" />
    <glyph glyph-name="uni01CA" unicode="&#x1ca;" horiz-adv-x="1151" 
d="M109 715h13l288 -440q156 -236 170 -262h1q0 17 -0.5 127.5t-0.5 148.5v426h10v-715h-13l-282 431q-158 243 -176 271h-1q0 -16 0.5 -161t0.5 -180v-361h-10v715zM1039 715h10v-508q0 -103 -29 -152q-39 -69 -136 -69q-152 0 -152 187h10q0 -177 142 -177q92 0 127 63
q28 49 28 147v509z" />
    <glyph glyph-name="uni01CB" unicode="&#x1cb;" horiz-adv-x="889" 
d="M109 715h13l288 -440q156 -236 170 -262h1q0 17 -0.5 127.5t-0.5 148.5v426h10v-715h-13l-282 431q-158 243 -176 271h-1q0 -16 0.5 -161t0.5 -180v-361h-10v715zM789 525h10v-598q0 -66 -21.5 -95t-70.5 -29q-7 0 -21 2v10q10 -2 21 -2q44 0 63 25.5t19 87.5v599z
M799 604h-10v111h10v-111z" />
    <glyph glyph-name="uni01CC" unicode="&#x1cc;" horiz-adv-x="760" 
d="M90 0v445q0 53 -1 80h11v-37q0 -9 -0.5 -40.5t-0.5 -48.5v-57q1 30 12 62t33 63.5t62 51.5t91 20q128 0 171 -103q19 -41 19 -117v-319h-10v319q0 71 -19 113q-44 97 -161 97q-94 0 -145.5 -68.5t-51.5 -163.5v-297h-10zM660 525h10v-598q0 -66 -21.5 -95t-70.5 -29
q-7 0 -21 2v10q10 -2 21 -2q44 0 63 25.5t19 87.5v599zM670 604h-10v111h10v-111z" />
    <glyph glyph-name="uni01F1" unicode="&#x1f1;" horiz-adv-x="1255" 
d="M109 0v715h136q142 0 229 -42q170 -83 170 -312q0 -187 -109 -279q-52 -44 -116 -63t-176 -19h-134zM119 705v-695h124q152 0 235 45q156 86 156 306q0 227 -171 306q-81 38 -218 38h-126zM718 0v7q12 15 59.5 82.5t59.5 84.5l273 385q21 29 60 85.5t42 60.5h-492v10h506
v-7q-46 -69 -115 -165l-259 -366q-79 -107 -120 -167h484v-10h-498z" />
    <glyph glyph-name="uni01F2" unicode="&#x1f2;" horiz-adv-x="1191" 
d="M109 0v715h136q142 0 229 -42q170 -83 170 -312q0 -187 -109 -279q-52 -44 -116 -63t-176 -19h-134zM119 705v-695h124q152 0 235 45q156 86 156 306q0 227 -171 306q-81 38 -218 38h-126zM743 0v8l266 339l131 168h-398v10h412v-8l-257 -328q-9 -11 -69 -87.5t-73 -91.5
h396v-10h-408z" />
    <glyph glyph-name="uni01F3" unicode="&#x1f3;" horiz-adv-x="1104" 
d="M527 715v-715h-10v104v49q0 20 1 31q-14 -85 -73.5 -141t-150.5 -56q-108 0 -174 73t-66 202q0 125 66.5 201t173.5 76q90 0 150.5 -58t73.5 -139q-1 37 -1 112v261h10zM294 -3q102 0 163 72.5t61 193.5q0 118 -61.5 192t-162.5 74q-103 0 -166.5 -73.5t-63.5 -193.5
q0 -122 63 -193.5t167 -71.5zM656 0v8l266 339l131 168h-398v10h412v-8l-257 -328q-9 -11 -69 -87.5t-73 -91.5h396v-10h-408z" />
    <glyph glyph-name="Aringacute" unicode="&#x1fa;" horiz-adv-x="636" 
d="M315 715h9l277 -715h-11l-108 281h-329l-110 -281h-11zM320 700h-1l-46 -117l-84 -214l-31 -78h319l-31 84q-15 38 -41.5 105.5t-47.5 121.5t-37 98zM319 765q-32 0 -54 22.5t-22 55.5q0 32 22 54t54 22t55 -22t23 -54q0 -33 -22.5 -55.5t-55.5 -22.5zM252 843
q0 -29 19 -49t48 -20t49 19.5t20 49.5q0 28 -20 47.5t-49 19.5t-48 -19.5t-19 -47.5zM430 1076l-133 -119h-13l131 119h15z" />
    <glyph glyph-name="aringacute" unicode="&#x1fb;" horiz-adv-x="536" 
d="M83 367h-10q0 74 52 123t141 49q188 0 188 -217q0 -32 -0.5 -60t-0.5 -29v-124q0 -66 9 -109h-10q-12 45 -7 145h-1q-17 -77 -78.5 -117t-143.5 -40q-74 0 -122.5 37t-48.5 106q0 36 16 62t49.5 42t70 25.5t92.5 18.5q14 2 45 6t69 8t51 6v29q0 201 -179 201
q-87 0 -133.5 -46.5t-48.5 -115.5zM444 202v88q-166 -20 -187 -24q-96 -16 -146 -46.5t-50 -88.5q0 -57 43 -95t118 -38q91 0 156.5 52t65.5 152zM255 585q-32 0 -54 22.5t-22 55.5q0 32 22 54t54 22t55 -22t23 -54q0 -33 -22.5 -55.5t-55.5 -22.5zM188 663q0 -29 19 -49
t48 -20t49 19.5t20 49.5q0 28 -20 47.5t-49 19.5t-48 -19.5t-19 -47.5zM357 902l-133 -119h-13l131 119h15z" />
    <glyph glyph-name="AEacute" unicode="&#x1fc;" horiz-adv-x="862" 
d="M797 715v-10h-402l7 -332h371v-10h-371l6 -353h396v-10h-405l-4 260h-247l-139 -260h-11l387 715h412zM395 270l-4 184q-3 95 -3 251h-1q-55 -111 -101 -192l-133 -243h242zM669 877l-128 -116h-13l126 116h15z" />
    <glyph glyph-name="aeacute" unicode="&#x1fd;" horiz-adv-x="965" 
d="M917 279h-464v-13q0 -121 60.5 -195t169.5 -74q165 0 215 153h10q-24 -77 -81 -120t-144 -43q-93 0 -154 54t-77 148q-2 -54 -23.5 -95t-56 -63t-72 -32.5t-78.5 -10.5q-74 0 -122.5 37t-48.5 106q0 32 13 56t42 40.5t58.5 27t82.5 17t91.5 10t105.5 7.5v39
q0 201 -179 201q-87 0 -133.5 -46.5t-48.5 -115.5h-10q0 74 52 123t141 49q186 0 186 -202q17 89 76 145.5t156 56.5q108 0 168.5 -72t64.5 -188zM684 529q-100 0 -162 -67t-68 -173h452q-6 105 -63 172.5t-159 67.5zM444 202v77q-205 -10 -294 -41t-89 -107q0 -57 43 -95
t118 -38q91 0 156.5 52t65.5 152zM587 715l-133 -119h-13l131 119h15z" />
    <glyph glyph-name="Oslashacute" unicode="&#x1fe;" horiz-adv-x="808" 
d="M404 729q104 0 185 -50l49 86l8 -6l-48 -85q73 -48 113 -129.5t40 -186.5q0 -166 -95.5 -269t-251.5 -103q-96 0 -175 42l-55 -96l-9 4l55 97q-78 46 -120.5 130t-42.5 195q0 166 96 268.5t251 102.5zM67 358q0 -107 41.5 -188.5t117.5 -126.5l358 628q-76 48 -180 48
q-152 0 -244.5 -99.5t-92.5 -261.5zM404 -4q151 0 244 100t93 262q0 103 -39 181.5t-109 125.5l-359 -627q76 -42 170 -42zM522 877l-128 -116h-13l126 116h15z" />
    <glyph glyph-name="oslashacute" unicode="&#x1ff;" horiz-adv-x="610" 
d="M415 715l-133 -119h-13l131 119h15zM303 -13q-70 0 -123 29l-43 -76l-8 4l43 76q-57 34 -87.5 97t-30.5 145q0 124 69 200.5t182 76.5q80 0 139 -40l41 73l9 -4l-42 -74q104 -77 104 -232q0 -122 -68.5 -198.5t-184.5 -76.5zM64 262q0 -166 113 -233l262 461
q-58 39 -134 39q-109 0 -175 -74.5t-66 -192.5zM304 -3q110 0 176 72.5t66 192.5q0 150 -99 223l-262 -460q52 -28 119 -28z" />
    <glyph glyph-name="uni0218" unicode="&#x218;" horiz-adv-x="607" 
d="M48 203h10q19 -101 77 -154t168 -53t174 52.5t64 129.5q0 32 -10.5 57.5t-26 42.5t-44.5 32t-54 24.5t-66 21.5l-65 19q-113 33 -157.5 71t-44.5 112q0 77 61 124t167 47q107 0 168 -51.5t70 -147.5h-10q-24 189 -228 189q-104 0 -161 -45t-57 -116q0 -68 42 -104.5
t151 -69.5l66 -20q44 -13 64 -20t53.5 -23.5t49.5 -33t29 -45t13 -64.5q0 -85 -68.5 -138.5t-179.5 -53.5q-222 0 -255 217zM222 -163l78 115h11l-77 -115h-12z" />
    <glyph glyph-name="uni0219" unicode="&#x219;" horiz-adv-x="494" 
d="M46 141h10q31 -144 190 -144q91 0 138 39t47 99q0 53 -35.5 78t-118.5 47l-48 14q-90 23 -125 50.5t-35 85.5q0 57 48.5 93t128.5 36t128 -35t59 -99h-10q-25 124 -177 124q-80 0 -123 -33t-44 -86q0 -52 32 -78t120 -49l50 -14q83 -21 121.5 -48t38.5 -86
q0 -69 -52.5 -108.5t-142.5 -39.5q-170 0 -200 154zM180 -163l78 115h11l-77 -115h-12z" />
    <glyph glyph-name="uni021A" unicode="&#x21a;" horiz-adv-x="531" 
d="M261 0v705h-238v10h485v-10h-237v-705h-10zM198 -163l78 115h11l-77 -115h-12z" />
    <glyph glyph-name="uni021B" unicode="&#x21b;" horiz-adv-x="229" 
d="M206 5v-10q-14 -2 -23 -2q-53 0 -69 29.5t-16 96.5v396h-74v10h74v142h10v-142h98v-10h-98v-396q0 -66 14 -91t61 -25q9 0 23 2zM95 -163l78 115h11l-77 -115h-12z" />
    <glyph glyph-name="uni021D" unicode="&#x21d;" horiz-adv-x="535" 
d="M37 8h10q19 -200 219 -200q101 0 159.5 60.5t58.5 143.5q0 91 -65 137t-170 46h-24v10q100 0 163.5 45.5t63.5 126.5q0 66 -47 110t-136 44q-91 0 -141 -46t-55 -124h-10q5 84 59 132t147 48q91 0 142 -44t51 -118q0 -75 -48 -120.5t-128 -55.5v-2q90 -4 149 -52t59 -137
q0 -95 -65.5 -154.5t-162.5 -59.5q-103 0 -162 53t-67 157z" />
    <glyph glyph-name="uni0226" unicode="&#x226;" horiz-adv-x="636" 
d="M315 715h9l277 -715h-11l-108 281h-329l-110 -281h-11zM320 700h-1l-46 -117l-84 -214l-31 -78h319l-31 84q-15 38 -41.5 105.5t-47.5 121.5t-37 98zM315 766v80h10v-80h-10z" />
    <glyph glyph-name="uni0227" unicode="&#x227;" horiz-adv-x="536" 
d="M83 367h-10q0 74 52 123t141 49q188 0 188 -217q0 -32 -0.5 -60t-0.5 -29v-124q0 -66 9 -109h-10q-12 45 -7 145h-1q-17 -77 -78.5 -117t-143.5 -40q-74 0 -122.5 37t-48.5 106q0 36 16 62t49.5 42t70 25.5t92.5 18.5q14 2 45 6t69 8t51 6v29q0 201 -179 201
q-87 0 -133.5 -46.5t-48.5 -115.5zM444 202v88q-166 -20 -187 -24q-96 -16 -146 -46.5t-50 -88.5q0 -57 43 -95t118 -38q91 0 156.5 52t65.5 152zM267 616v80h10v-80h-10z" />
    <glyph glyph-name="uni0232" unicode="&#x232;" horiz-adv-x="596" 
d="M292 0v272l-260 443h12q31 -52 117.5 -200.5t135.5 -231.5q29 48 126 208.5t134 223.5h12l-267 -443v-272h-10zM175 802v10h244v-10h-244z" />
    <glyph glyph-name="uni0233" unicode="&#x233;" horiz-adv-x="482" 
d="M177 -180h-10l70 180l-206 525h11l115 -298q10 -26 40 -100t44 -114h2q10 30 24 66.5t32 82.5t28 73l111 290h10q-15 -40 -54 -142t-103.5 -268.5t-113.5 -294.5zM123 652v10h244v-10h-244z" />
    <glyph glyph-name="dotlessj" unicode="&#x237;" horiz-adv-x="190" 
d="M90 525h10v-598q0 -66 -21.5 -95t-70.5 -29q-7 0 -21 2v10q10 -2 21 -2q44 0 63 25.5t19 87.5v599z" />
    <glyph glyph-name="uni0254" unicode="&#x254;" horiz-adv-x="590" 
d="M60 359h-10q22 83 84 131.5t153 48.5q115 0 182 -75.5t67 -199.5q0 -123 -68.5 -200t-182.5 -77q-91 0 -154.5 51t-81.5 135h10q21 -81 80 -128.5t146 -47.5q111 0 176 75t65 192q0 118 -64.5 191.5t-174.5 73.5q-86 0 -146.5 -45.5t-80.5 -124.5z" />
    <glyph glyph-name="uni0259" unicode="&#x259;" horiz-adv-x="587" 
d="M48 246h475v13q0 121 -62.5 195t-173.5 74q-83 0 -139.5 -40.5t-80.5 -112.5h-10q24 76 83.5 119.5t146.5 43.5q116 0 181 -76.5t65 -198.5q0 -123 -67 -200t-180 -77q-109 0 -171.5 72.5t-66.5 187.5zM286 -4q102 0 166 67t70 173h-463q6 -104 65.5 -172t161.5 -68z" />
    <glyph glyph-name="uni025B" unicode="&#x25b;" horiz-adv-x="535" 
d="M489 8h10q-8 -104 -67 -157t-162 -53q-97 0 -162.5 59.5t-65.5 154.5q0 89 59 137t149 52v2q-80 10 -128 55.5t-48 120.5q0 74 51 118t142 44q93 0 147 -48t59 -132h-10q-5 78 -55 124t-141 46q-89 0 -136 -44t-47 -110q0 -81 63.5 -126.5t163.5 -45.5v-10h-24
q-105 0 -170 -46t-65 -137q0 -83 58.5 -143.5t159.5 -60.5q200 0 219 200z" />
    <glyph glyph-name="uni0272" unicode="&#x272;" horiz-adv-x="570" 
d="M90 -74v519q0 53 -1 80h11v-37q0 -23 -0.5 -79t-0.5 -60q2 30 14 61t34 61t61 49t89 19q128 0 171 -103q19 -41 19 -117v-319h-10v319q0 71 -19 113q-44 97 -161 97q-94 0 -145.5 -68.5t-51.5 -163.5v-370q0 -66 -21.5 -95t-70.5 -29q-7 0 -21 2v10q10 -2 21 -2
q44 0 63 25.5t19 87.5z" />
    <glyph glyph-name="uni0275" unicode="&#x275;" horiz-adv-x="610" 
d="M303 -13q-115 0 -182 76.5t-67 198.5q0 124 69 200.5t182 76.5t182 -76.5t69 -200.5q0 -122 -68.5 -198.5t-184.5 -76.5zM304 -3q110 0 176 72.5t66 192.5h-482q0 -120 65 -192.5t175 -72.5zM305 529q-106 0 -172.5 -71.5t-68.5 -185.5h482q-4 114 -69 185.5t-172 71.5z
" />
    <glyph glyph-name="apostrophemod" unicode="&#x2bc;" horiz-adv-x="125" 
d="M104 715l-76 -232h-10l76 232h10z" />
    <glyph glyph-name="circumflex" unicode="&#x2c6;" horiz-adv-x="503" 
d="M252 715h10q12 -15 102 -119h-12l-95 110l-95 -110h-12q90 104 102 119z" />
    <glyph glyph-name="caron" unicode="&#x2c7;" horiz-adv-x="502" 
d="M262 596h-10q-12 15 -102 119h12l95 -110l95 110h12q-90 -104 -102 -119z" />
    <glyph glyph-name="breve" unicode="&#x2d8;" horiz-adv-x="465" 
d="M241 629q84 0 103 86h10q-18 -96 -113 -96t-113 96h10q13 -86 103 -86z" />
    <glyph glyph-name="dotaccent" unicode="&#x2d9;" horiz-adv-x="328" 
d="M157 616v80h10v-80h-10z" />
    <glyph glyph-name="ring" unicode="&#x2da;" horiz-adv-x="405" 
d="M240 599q-32 0 -54 22.5t-22 55.5q0 32 22 54t54 22t55 -22t23 -54q0 -33 -22.5 -55.5t-55.5 -22.5zM173 677q0 -29 19 -49t48 -20t49 19.5t20 49.5q0 28 -20 47.5t-49 19.5t-48 -19.5t-19 -47.5z" />
    <glyph glyph-name="ogonek" unicode="&#x2db;" horiz-adv-x="331" 
d="M127 -48l78 -115h-12l-77 115h11z" />
    <glyph glyph-name="tilde" unicode="&#x2dc;" horiz-adv-x="317" 
d="M173 648l-51 25q-28 13 -44 13q-37 0 -50 -59h-10q14 69 60 69q22 0 53 -17l47 -23q32 -15 47 -15q40 0 52 61h10q-13 -71 -62 -71q-16 0 -52 17z" />
    <glyph glyph-name="hungarumlaut" unicode="&#x2dd;" horiz-adv-x="612" 
d="M333 715l-131 -119h-14l131 119h14zM488 715l-131 -119h-14l131 119h14z" />
    <glyph glyph-name="uni032C" unicode="&#x32c;" horiz-adv-x="503" 
d="M247 -48h10q12 -15 102 -119h-12l-95 110l-95 -110h-12q90 104 102 119z" />
    <glyph glyph-name="uni0394" unicode="&#x394;" horiz-adv-x="678" 
d="M334 715h12l314 -715h-641zM340 707l-307 -697h612z" />
    <glyph glyph-name="uni03A9" unicode="&#x3a9;" horiz-adv-x="806" 
d="M403 719q-159 0 -246.5 -94.5t-87.5 -236.5q0 -68 19 -126.5t54.5 -104.5t75.5 -81t94 -69v-7h-255v10h126q11 0 37 -0.5t38 -0.5q13 -1 41 -1q-46 27 -85.5 61.5t-77 82t-58.5 109t-19 129.5q2 148 92.5 243.5t251.5 95.5q162 0 251 -95t93 -244q1 -55 -13.5 -106.5
t-37.5 -91t-55.5 -76t-65 -61.5t-68.5 -47q28 0 41 1q12 0 38 0.5t37 0.5h126v-10h-255v7q53 34 93 69t76 81t55 104.5t19 126.5q0 142 -88 236.5t-246 94.5z" />
    <glyph glyph-name="uni03BC" unicode="&#x3bc;" horiz-adv-x="570" 
d="M100 -180h-10v705h10v-335q0 -54 19 -97q44 -97 156 -97q93 0 144 68.5t51 163.5v297h10v-445q0 -53 1 -80h-11v37q0 21 0.5 78t0.5 61q-2 -30 -13.5 -61t-33.5 -61t-61 -49t-88 -19q-72 0 -116 36.5t-59 98.5v-301z" />
    <glyph glyph-name="pi" unicode="&#x3c0;" horiz-adv-x="587" 
d="M556 515h-108v-396q0 -66 14 -91t61 -25q9 0 23 2v-10q-14 -2 -23 -2q-53 0 -69 29.5t-16 96.5v396h-306v-515h-10v515h-113v10h547v-10z" />
    <glyph glyph-name="Wgrave" unicode="&#x1e80;" horiz-adv-x="753" 
d="M704 715l-159 -715h-9l-90 406q-8 38 -31.5 142t-32.5 150h-2q-7 -34 -74 -321l-89 -377h-11l-155 715h11l96 -449q41 -183 53 -248h1q7 37 16.5 78.5t22 91.5t18.5 78l106 449h12l99 -440q31 -137 54 -255h1q21 104 55 258l97 437h11zM408 761l-128 116h15l126 -116h-13
z" />
    <glyph glyph-name="wgrave" unicode="&#x1e81;" horiz-adv-x="745" 
d="M371 525h13l80 -290q12 -47 31.5 -118t27.5 -104h2q12 33 25 74q6 17 21.5 64.5t23.5 69.5l105 304h10q-58 -160 -112 -322l-69 -203h-11l-140 513h-2l-152 -513h-11l-174 525h10l101 -302q34 -108 44 -136l24 -74h2q32 122 66 232zM412 596l-133 119h15l131 -119h-13z
" />
    <glyph glyph-name="Wacute" unicode="&#x1e82;" horiz-adv-x="753" 
d="M704 715l-159 -715h-9l-90 406q-8 38 -31.5 142t-32.5 150h-2q-7 -34 -74 -321l-89 -377h-11l-155 715h11l96 -449q41 -183 53 -248h1q7 37 16.5 78.5t22 91.5t18.5 78l106 449h12l99 -440q31 -137 54 -255h1q21 104 55 258l97 437h11zM475 877l-128 -116h-13l126 116h15
z" />
    <glyph glyph-name="wacute" unicode="&#x1e83;" horiz-adv-x="745" 
d="M371 525h13l80 -290q12 -47 31.5 -118t27.5 -104h2q12 33 25 74q6 17 21.5 64.5t23.5 69.5l105 304h10q-58 -160 -112 -322l-69 -203h-11l-140 513h-2l-152 -513h-11l-174 525h10l101 -302q34 -108 44 -136l24 -74h2q32 122 66 232zM483 715l-133 -119h-13l131 119h15z
" />
    <glyph glyph-name="Wdieresis" unicode="&#x1e84;" horiz-adv-x="753" 
d="M704 715l-159 -715h-9l-90 406q-8 38 -31.5 142t-32.5 150h-2q-7 -34 -74 -321l-89 -377h-11l-155 715h11l96 -449q41 -183 53 -248h1q7 37 16.5 78.5t22 91.5t18.5 78l106 449h12l99 -440q31 -137 54 -255h1q21 104 55 258l97 437h11zM320 766v80h10v-80h-10zM433 766
v80h10v-80h-10z" />
    <glyph glyph-name="wdieresis" unicode="&#x1e85;" horiz-adv-x="745" 
d="M371 525h13l80 -290q12 -47 31.5 -118t27.5 -104h2q12 33 25 74q6 17 21.5 64.5t23.5 69.5l105 304h10q-58 -160 -112 -322l-69 -203h-11l-140 513h-2l-152 -513h-11l-174 525h10l101 -302q34 -108 44 -136l24 -74h2q32 122 66 232zM316 616v80h10v-80h-10zM429 616v80
h10v-80h-10z" />
    <glyph glyph-name="uni1EA0" unicode="&#x1ea0;" horiz-adv-x="636" 
d="M315 715h9l277 -715h-11l-108 281h-329l-110 -281h-11zM320 700h-1l-46 -117l-84 -214l-31 -78h319l-31 84q-15 38 -41.5 105.5t-47.5 121.5t-37 98zM314 -145v80h10v-80h-10z" />
    <glyph glyph-name="uni1EA1" unicode="&#x1ea1;" horiz-adv-x="536" 
d="M83 367h-10q0 74 52 123t141 49q188 0 188 -217q0 -32 -0.5 -60t-0.5 -29v-124q0 -66 9 -109h-10q-12 45 -7 145h-1q-17 -77 -78.5 -117t-143.5 -40q-74 0 -122.5 37t-48.5 106q0 36 16 62t49.5 42t70 25.5t92.5 18.5q14 2 45 6t69 8t51 6v29q0 201 -179 201
q-87 0 -133.5 -46.5t-48.5 -115.5zM444 202v88q-166 -20 -187 -24q-96 -16 -146 -46.5t-50 -88.5q0 -57 43 -95t118 -38q91 0 156.5 52t65.5 152zM262 -145v80h10v-80h-10z" />
    <glyph glyph-name="uni1EB8" unicode="&#x1eb8;" horiz-adv-x="605" 
d="M109 0v715h431v-10h-421v-332h397v-10h-397v-353h428v-10h-438zM320 -145v80h10v-80h-10z" />
    <glyph glyph-name="uni1EB9" unicode="&#x1eb9;" horiz-adv-x="587" 
d="M539 279h-475v-13q0 -121 62.5 -195t173.5 -74q83 0 139.5 40.5t80.5 112.5h10q-24 -76 -83.5 -119.5t-146.5 -43.5q-116 0 -181 76.5t-65 198.5q0 123 67 200t180 77q109 0 171.5 -72.5t66.5 -187.5zM301 529q-102 0 -166 -67t-70 -173h463q-6 104 -65.5 172t-161.5 68z
M295 -145v80h10v-80h-10z" />
    <glyph glyph-name="uni1ECA" unicode="&#x1eca;" horiz-adv-x="228" 
d="M109 715h10v-715h-10v715zM110 -145v80h10v-80h-10z" />
    <glyph glyph-name="uni1ECB" unicode="&#x1ecb;" horiz-adv-x="190" 
d="M90 525h10v-525h-10v525zM100 604h-10v111h10v-111zM90 -145v80h10v-80h-10z" />
    <glyph glyph-name="uni1ECC" unicode="&#x1ecc;" horiz-adv-x="808" 
d="M404 729q154 0 250.5 -103t96.5 -268q0 -166 -95.5 -269t-251.5 -103t-251.5 103t-95.5 269t96 268.5t251 102.5zM404 -4q151 0 244 100t93 262t-93 261.5t-244 99.5q-152 0 -244.5 -99.5t-92.5 -261.5q0 -161 93 -261.5t244 -100.5zM403 -145v80h10v-80h-10z" />
    <glyph glyph-name="uni1ECD" unicode="&#x1ecd;" horiz-adv-x="610" 
d="M304 -3q110 0 176 72.5t66 192.5q0 118 -66 192.5t-175 74.5t-175 -74.5t-66 -192.5q0 -120 65 -192.5t175 -72.5zM303 -13q-115 0 -182 76.5t-67 198.5q0 124 69 200.5t182 76.5t182 -76.5t69 -200.5q0 -122 -68.5 -198.5t-184.5 -76.5zM299 -145v80h10v-80h-10z" />
    <glyph glyph-name="uni1EE4" unicode="&#x1ee4;" horiz-adv-x="666" 
d="M333 -4q123 0 173 63t50 190v466h10v-466q0 -139 -55 -201t-178 -62t-178 62t-55 201v466h10v-466q0 -127 50 -190t173 -63zM328 -145v80h10v-80h-10z" />
    <glyph glyph-name="uni1EE5" unicode="&#x1ee5;" horiz-adv-x="563" 
d="M473 525v-445q0 -53 1 -80h-11v37v89q0 37 1 57q-1 -30 -12 -62t-32.5 -63.5t-61 -51.5t-90.5 -20q-123 0 -166 103q-19 41 -19 117v319h10v-319q0 -71 19 -113q44 -97 156 -97q93 0 144 68.5t51 163.5v297h10zM275 -145v80h10v-80h-10z" />
    <glyph glyph-name="Ygrave" unicode="&#x1ef2;" horiz-adv-x="596" 
d="M292 0v272l-260 443h12q31 -52 117.5 -200.5t135.5 -231.5q29 48 126 208.5t134 223.5h12l-267 -443v-272h-10zM343 761l-128 116h15l126 -116h-13z" />
    <glyph glyph-name="ygrave" unicode="&#x1ef3;" horiz-adv-x="482" 
d="M177 -180h-10l70 180l-206 525h11l115 -298q10 -26 40 -100t44 -114h2q10 30 24 66.5t32 82.5t28 73l111 290h10q-15 -40 -54 -142t-103.5 -268.5t-113.5 -294.5zM281 596l-133 119h15l131 -119h-13z" />
    <glyph glyph-name="enspace" unicode="&#x2002;" horiz-adv-x="500" 
 />
    <glyph glyph-name="emspace" unicode="&#x2003;" horiz-adv-x="1000" 
 />
    <glyph glyph-name="threeperemspace" unicode="&#x2004;" horiz-adv-x="0" 
 />
    <glyph glyph-name="fourperemspace" unicode="&#x2005;" horiz-adv-x="250" 
 />
    <glyph glyph-name="thinspace" unicode="&#x2009;" horiz-adv-x="133" 
 />
    <glyph glyph-name="hairspace" unicode="&#x200a;" horiz-adv-x="75" 
 />
    <glyph glyph-name="endash" unicode="&#x2013;" horiz-adv-x="670" 
d="M97 298v10h476v-10h-476z" />
    <glyph glyph-name="emdash" unicode="&#x2014;" horiz-adv-x="1035" 
d="M97 298v10h841v-10h-841z" />
    <glyph glyph-name="quoteleft" unicode="&#x2018;" horiz-adv-x="203" 
d="M68 483l76 232h10l-76 -232h-10z" />
    <glyph glyph-name="quoteright" unicode="&#x2019;" horiz-adv-x="203" 
d="M154 715l-76 -232h-10l76 232h10z" />
    <glyph glyph-name="quotesinglbase" unicode="&#x201a;" horiz-adv-x="202" 
d="M118 111l-76 -232h-10l76 232h10z" />
    <glyph glyph-name="quotedblleft" unicode="&#x201c;" horiz-adv-x="342" 
d="M207 483l76 232h10l-76 -232h-10zM68 483l76 232h10l-76 -232h-10z" />
    <glyph glyph-name="quotedblright" unicode="&#x201d;" horiz-adv-x="342" 
d="M154 715l-76 -232h-10l76 232h10zM293 715l-76 -232h-10l76 232h10z" />
    <glyph glyph-name="quotedblbase" unicode="&#x201e;" horiz-adv-x="341" 
d="M118 111l-76 -232h-10l76 232h10zM257 111l-76 -232h-10l76 232h10z" />
    <glyph glyph-name="dagger" unicode="&#x2020;" horiz-adv-x="513" 
d="M40 501v10h208v204h10v-204h214v-10h-214v-570h-10v570h-208z" />
    <glyph glyph-name="daggerdbl" unicode="&#x2021;" horiz-adv-x="569" 
d="M286 501v-243h214v-10h-214v-318h-10v318h-208v10h208v243h-208v10h208v204h10v-204h214v-10h-214z" />
    <glyph glyph-name="bullet" unicode="&#x2022;" horiz-adv-x="247" 
d="M124 316q-18 0 -18 18q0 17 18 17q7 0 12 -5t5 -12q0 -18 -17 -18z" />
    <glyph glyph-name="ellipsis" unicode="&#x2026;" horiz-adv-x="833" 
d="M409 0v111h10v-111h-10zM77 0v111h10v-111h-10zM746 0v111h10v-111h-10z" />
    <glyph glyph-name="perthousand" unicode="&#x2030;" horiz-adv-x="1288" 
d="M198 332q-75 0 -115.5 53.5t-40.5 143.5q0 94 39 145t116 51t116.5 -50.5t39.5 -145.5q0 -89 -39.5 -143t-115.5 -54zM52 529q0 -88 37.5 -138t108.5 -50t108 50t37 138q0 91 -37 139t-109 48q-145 0 -145 -187zM292 0l275 715h11l-275 -715h-11zM672 -17
q-75 0 -115.5 53.5t-40.5 143.5q0 94 39 145t116 51t116.5 -50.5t39.5 -145.5q0 -89 -39.5 -143t-115.5 -54zM526 180q0 -88 37.5 -138t108.5 -50t108 50t37 138q0 91 -37 139t-109 48q-145 0 -145 -187zM1091 -17q-75 0 -115.5 53.5t-40.5 143.5q0 94 39 145t116 51
t116.5 -50.5t39.5 -145.5q0 -89 -39.5 -143t-115.5 -54zM945 180q0 -88 37.5 -138t108.5 -50t108 50t37 138q0 91 -37 139t-109 48q-145 0 -145 -187z" />
    <glyph glyph-name="guilsinglleft" unicode="&#x2039;" horiz-adv-x="257" 
d="M185 473l-109 -187l109 -188h-10l-110 188l110 187h10z" />
    <glyph glyph-name="guilsinglright" unicode="&#x203a;" horiz-adv-x="257" 
d="M181 286l-109 187h10l110 -187l-110 -188h-10z" />
    <glyph glyph-name="fraction" unicode="&#x2044;" horiz-adv-x="318" 
d="M10 -105l289 820h10l-289 -820h-10z" />
    <glyph glyph-name="Euro" unicode="&#x20ac;" 
d="M16 428l3 10h57q20 290 234 290q188 0 222 -227l-10 -1q-18 106 -67 162t-145 56q-110 0 -161.5 -73t-62.5 -207h330l-3 -10h-328q-2 -46 -2 -72q0 -55 2 -70h295l-3 -10h-292q10 -138 63 -209t162 -71q96 0 147 55t66 162h10q-17 -110 -68.5 -168.5t-154.5 -58.5
q-216 0 -235 290h-64l3 10h61q-2 15 -2 70q0 56 2 72h-59z" />
    <glyph glyph-name="trademark" unicode="&#x2122;" horiz-adv-x="847" 
d="M618 300h-10q-86 254 -133 405h-1q0 -28 1 -126.5t1 -134.5v-144h-9v415h13q18 -56 72.5 -221.5t60.5 -187.5l132 409h13v-415h-9v216q0 27 0.5 98.5t0.5 90.5h-1q-36 -122 -131 -405zM329 715v-9h-130v-406h-9v406h-131v9h270z" />
    <glyph glyph-name="Omega" unicode="&#x2126;" horiz-adv-x="806" 
d="M403 719q-159 0 -246.5 -94.5t-87.5 -236.5q0 -68 19 -126.5t54.5 -104.5t75.5 -81t94 -69v-7h-255v10h126q11 0 37 -0.5t38 -0.5q13 -1 41 -1q-46 27 -85.5 61.5t-77 82t-58.5 109t-19 129.5q2 148 92.5 243.5t251.5 95.5q162 0 251 -95t93 -244q1 -55 -13.5 -106.5
t-37.5 -91t-55.5 -76t-65 -61.5t-68.5 -47q28 0 41 1q12 0 38 0.5t37 0.5h126v-10h-255v7q53 34 93 69t76 81t55 104.5t19 126.5q0 142 -88 236.5t-246 94.5z" />
    <glyph glyph-name="onethird" unicode="&#x2153;" horiz-adv-x="779" 
d="M187 0l275 715h11l-275 -715h-11zM151 631h-113v9h57h18t13.5 1.5t10 2t6.5 5t4 6.5t2.5 10.5t1.5 12t0.5 17t0.5 20.5h9v-424h-10v340zM483 334h-10q6 48 37 77.5t85 29.5q53 0 83.5 -28t30.5 -73q0 -84 -93 -102v-1q52 -5 83 -35t31 -80q0 -57 -37 -92t-99 -35
q-119 0 -137 120h10q18 -111 127 -111q62 0 94 34t32 83q0 53 -37.5 81.5t-98.5 28.5h-20v8q62 0 99 27t37 74q0 42 -28.5 66.5t-77.5 24.5q-48 0 -76.5 -26t-34.5 -71z" />
    <glyph glyph-name="twothirds" unicode="&#x2154;" horiz-adv-x="873" 
d="M283 0l275 715h11l-275 -715h-11zM579 334h-10q6 48 37 77.5t85 29.5q53 0 83.5 -28t30.5 -73q0 -84 -93 -102v-1q52 -5 83 -35t31 -80q0 -57 -37 -92t-99 -35q-119 0 -137 120h10q18 -111 127 -111q62 0 94 34t32 83q0 53 -37.5 81.5t-98.5 28.5h-20v8q62 0 99 27t37 74
q0 42 -28.5 66.5t-77.5 24.5q-48 0 -76.5 -26t-34.5 -71zM329 281h-270v9q18 14 54 46l93 81q59 53 86.5 96t27.5 88q0 52 -30.5 81.5t-87.5 29.5q-58 0 -89.5 -34.5t-35.5 -88.5h-10q4 59 39.5 96t95.5 37t94 -32.5t34 -87.5q0 -57 -36 -105t-106 -108q-6 -5 -27.5 -24
t-44 -38t-45.5 -36h258v-10z" />
    <glyph glyph-name="oneeighth" unicode="&#x215b;" horiz-adv-x="780" 
d="M588 3q66 0 99.5 32t33.5 81t-38 80t-95 31t-95 -31t-38 -80t33.5 -81t99.5 -32zM588 237q47 0 81.5 27t34.5 71q0 43 -29.5 70t-86.5 27t-86.5 -27t-29.5 -70q0 -44 34.5 -71t81.5 -27zM187 0l275 715h11l-275 -715h-11zM151 631h-113v9h57h18t13.5 1.5t10 2t6.5 5
t4 6.5t2.5 10.5t1.5 12t0.5 17t0.5 20.5h9v-424h-10v340zM588 -6q-68 0 -105.5 33t-37.5 88q0 49 32.5 79t81.5 39q-42 9 -69.5 35.5t-27.5 66.5q0 45 33 75.5t93 30.5t93 -30.5t33 -75.5q0 -40 -27.5 -66.5t-69.5 -35.5q49 -9 81.5 -39t32.5 -79q0 -55 -37.5 -88
t-105.5 -33z" />
    <glyph glyph-name="threeeighths" unicode="&#x215c;" horiz-adv-x="890" 
d="M76 619h-10q6 48 37 77.5t85 29.5q53 0 83.5 -28t30.5 -73q0 -84 -93 -102v-1q52 -5 83 -35t31 -80q0 -57 -37 -92t-99 -35q-119 0 -137 120h10q18 -111 127 -111q62 0 94 34t32 83q0 53 -37.5 81.5t-98.5 28.5h-20v8q62 0 99 27t37 74q0 42 -28.5 66.5t-77.5 24.5
q-44 0 -74.5 -26.5t-36.5 -70.5zM700 3q66 0 99.5 32t33.5 81t-38 80t-95 31t-95 -31t-38 -80t33.5 -81t99.5 -32zM700 237q47 0 81.5 27t34.5 71q0 43 -29.5 70t-86.5 27t-86.5 -27t-29.5 -70q0 -44 34.5 -71t81.5 -27zM299 0l275 715h11l-275 -715h-11zM700 -6
q-68 0 -105.5 33t-37.5 88q0 49 32.5 79t81.5 39q-42 9 -69.5 35.5t-27.5 66.5q0 45 33 75.5t93 30.5t93 -30.5t33 -75.5q0 -40 -27.5 -66.5t-69.5 -35.5q49 -9 81.5 -39t32.5 -79q0 -55 -37.5 -88t-105.5 -33z" />
    <glyph glyph-name="fiveeighths" unicode="&#x215d;" horiz-adv-x="868" 
d="M67 495l20 220h204v-10h-195l-19 -195q43 47 110 47q59 0 93.5 -35.5t34.5 -94.5q0 -64 -37.5 -104t-100.5 -40q-115 0 -134 115h10q17 -105 124 -105q63 0 95.5 38.5t32.5 95.5t-31.5 88.5t-86.5 31.5q-72 0 -111 -53zM678 3q66 0 99.5 32t33.5 81t-38 80t-95 31
t-95 -31t-38 -80t33.5 -81t99.5 -32zM678 237q47 0 81.5 27t34.5 71q0 43 -29.5 70t-86.5 27t-86.5 -27t-29.5 -70q0 -44 34.5 -71t81.5 -27zM277 0l275 715h11l-275 -715h-11zM678 -6q-68 0 -105.5 33t-37.5 88q0 49 32.5 79t81.5 39q-42 9 -69.5 35.5t-27.5 66.5
q0 45 33 75.5t93 30.5t93 -30.5t33 -75.5q0 -40 -27.5 -66.5t-69.5 -35.5q49 -9 81.5 -39t32.5 -79q0 -55 -37.5 -88t-105.5 -33z" />
    <glyph glyph-name="seveneighths" unicode="&#x215e;" horiz-adv-x="794" 
d="M120 286h-12q28 66 94 211q71 151 94 209q-7 -1 -22 -1h-43h-193v10h268v-8l-33 -78q-99 -220 -153 -343zM601 3q66 0 99.5 32t33.5 81t-38 80t-95 31t-95 -31t-38 -80t33.5 -81t99.5 -32zM601 237q47 0 81.5 27t34.5 71q0 43 -29.5 70t-86.5 27t-86.5 -27t-29.5 -70
q0 -44 34.5 -71t81.5 -27zM200 0l275 715h11l-275 -715h-11zM601 -6q-68 0 -105.5 33t-37.5 88q0 49 32.5 79t81.5 39q-42 9 -69.5 35.5t-27.5 66.5q0 45 33 75.5t93 30.5t93 -30.5t33 -75.5q0 -40 -27.5 -66.5t-69.5 -35.5q49 -9 81.5 -39t32.5 -79q0 -55 -37.5 -88
t-105.5 -33z" />
    <glyph glyph-name="arrowleft" unicode="&#x2190;" horiz-adv-x="820" 
d="M778 320h-743q11 -11 174 -181l131 -139h-13q-31 32 -147.5 155t-161.5 170q49 49 172 180t137 145h13l-131 -139q-24 -25 -66 -70t-68.5 -72t-39.5 -39h743v-10z" />
    <glyph glyph-name="arrowup" unicode="&#x2191;" horiz-adv-x="720" 
d="M355 0v730q-11 -11 -181 -174l-139 -131v13q28 27 152.5 144t172.5 165q50 -51 185 -177.5t140 -131.5v-13l-139 131q-25 24 -70 66t-72 68.5t-39 39.5v-730h-10z" />
    <glyph glyph-name="arrowright" unicode="&#x2192;" horiz-adv-x="820" 
d="M785 320h-743v10h743q-13 12 -39.5 39t-68.5 72t-66 70l-131 139h13q5 -5 131.5 -140t177.5 -185q-48 -48 -165 -172.5t-144 -152.5h-13l131 139q163 170 174 181z" />
    <glyph glyph-name="arrowdown" unicode="&#x2193;" horiz-adv-x="720" 
d="M355 -15v730h10v-730q12 13 39 39.5t72 68.5t70 66l139 131v-13q-14 -14 -145 -137t-180 -172q-47 45 -170 161.5t-155 147.5v13l139 -131q170 -163 181 -174z" />
    <glyph glyph-name="uni2196" unicode="&#x2196;" horiz-adv-x="750" 
d="M655 20l-517 516q0 -13 -1 -103.5t-1 -147.5l-3 -191l-9 9q6 206 6 449q309 0 448 4l9 -9l-191 -2q-58 0 -148 -1t-103 -1l517 -516z" />
    <glyph glyph-name="uni2197" unicode="&#x2197;" horiz-adv-x="750" 
d="M612 536l-517 -516l-7 7l517 516q-13 0 -103.5 1t-147.5 1l-191 2l9 9q139 -4 448 -4q0 -243 6 -449l-9 -9l-3 191q-2 67 -2 251z" />
    <glyph glyph-name="uni2198" unicode="&#x2198;" horiz-adv-x="750" 
d="M94 532l517 -516q0 184 2 251l3 191l9 -9q-6 -206 -6 -449q-309 0 -448 -4l-9 9l191 2q57 0 147.5 1t103.5 1l-517 516z" />
    <glyph glyph-name="uni2199" unicode="&#x2199;" horiz-adv-x="750" 
d="M139 16l517 516l7 -7l-517 -516q13 0 103.5 -1t147.5 -1l191 -2l-9 -9q-139 4 -448 4q0 243 -6 449l9 9l3 -191q0 -58 1 -148t1 -103z" />
    <glyph glyph-name="partialdiff" unicode="&#x2202;" horiz-adv-x="612" 
d="M240 715h18q135 -74 216.5 -193t81.5 -252q0 -137 -72 -210t-183 -73t-179 74.5t-68 200.5q0 128 68.5 202.5t181.5 74.5q151 0 220 -136l2 1q-45 114 -118 185.5t-168 125.5zM304 -3q110 0 176 72.5t66 192.5q0 118 -65.5 192.5t-176.5 74.5q-110 0 -175 -74.5
t-65 -192.5q0 -120 65 -192.5t175 -72.5z" />
    <glyph glyph-name="Delta" unicode="&#x2206;" horiz-adv-x="701" 
d="M345 715h12l314 -715h-641zM351 707l-307 -697h612z" />
    <glyph glyph-name="product" unicode="&#x220f;" horiz-adv-x="818" 
d="M626 -113v818h-433v-818h-10v818h-149v10h750v-10h-148v-818h-10z" />
    <glyph glyph-name="summation" unicode="&#x2211;" horiz-adv-x="655" 
d="M38 -106l324 413l-320 399v9h540v-10h-526l319 -398l-322 -410h540v-10h-555v7z" />
    <glyph glyph-name="minus" unicode="&#x2212;" 
d="M59 317v10h442v-10h-442z" />
    <glyph glyph-name="uni2219" unicode="&#x2219;" horiz-adv-x="164" 
d="M77 261v111h10v-111h-10z" />
    <glyph glyph-name="radical" unicode="&#x221a;" 
d="M334 0h-13q-27 71 -182 515h-107v10h114l101 -291l80 -225h1q10 32 72 235l144 471h10z" />
    <glyph glyph-name="infinity" unicode="&#x221e;" horiz-adv-x="882" 
d="M441 340q7 8 30 33.5t34 37.5t34 32.5t40 30.5t40.5 18.5t46.5 8.5q66 0 108 -46t42 -121q0 -73 -39 -120t-111 -47q-21 0 -42.5 7.5t-36 14.5t-38.5 28t-33.5 30.5t-38 39.5t-36.5 39q-8 -9 -36.5 -39t-38 -39.5t-33.5 -30.5t-38.5 -28t-36 -14.5t-42.5 -7.5
q-72 0 -111 47t-39 120q0 75 42 121t108 46q27 0 53 -9.5t51.5 -30t41.5 -36.5t42.5 -45.5t36.5 -39.5zM216 177q28 0 54.5 10.5t57.5 38t48.5 45.5t57.5 62q-10 11 -33.5 37t-35 38t-33 31.5t-37 28t-37 16t-42.5 7.5q-65 0 -102.5 -43t-37.5 -113q0 -72 35 -115t105 -43z
M666 177q70 0 105 43t35 115q0 70 -37.5 113t-102.5 43q-14 0 -28 -2.5t-28 -9t-24.5 -12t-25 -18t-22.5 -19t-23.5 -23.5t-21.5 -23t-23 -26t-22 -25q35 -38 46 -50.5t39.5 -40t44.5 -37t40.5 -19t47.5 -9.5z" />
    <glyph glyph-name="integral" unicode="&#x222b;" 
d="M320 512l-68 -457q-21 -142 -55 -194.5t-116 -52.5q-11 0 -25 2l2 10q14 -2 23 -2q77 0 107 50.5t52 187.5l66 440q10 62 20.5 100t29.5 69t48 44t73 13q14 0 25 -1l-1 -10q-9 1 -25 1q-68 0 -103.5 -41t-52.5 -159z" />
    <glyph glyph-name="approxequal" unicode="&#x2248;" 
d="M299 387l-64 30q-52 24 -80 24q-25 0 -46 -13t-30.5 -24.5t-26.5 -35.5l-8 4q46 79 111 79q38 0 96 -30l67 -32q46 -24 84 -24q36 0 61 20t49 57l8 -4q-50 -83 -118 -83q-35 0 -103 32zM297 157l-64 30q-52 24 -80 24q-25 0 -46 -13t-30.5 -24.5t-26.5 -35.5l-8 4
q46 79 111 79q38 0 96 -30l67 -32q46 -24 84 -24q36 0 61 20t49 57l8 -4q-50 -83 -118 -83q-35 0 -103 32z" />
    <glyph glyph-name="notequal" unicode="&#x2260;" 
d="M59 410v10h271l74 140h12l-75 -140h160v-10h-165l-93 -175h258v-10h-263l-77 -145h-12l77 145h-167v10h172l93 175h-265z" />
    <glyph glyph-name="lessequal" unicode="&#x2264;" 
d="M79 0v10h396v-10h-396zM79 340v8l396 218v-11l-384 -210v-1l384 -216v-11z" />
    <glyph glyph-name="greaterequal" unicode="&#x2265;" 
d="M480 10v-10h-396v10h396zM480 348v-8l-396 -223v11l384 216v1l-384 210v11z" />
    <glyph glyph-name="dotmath" unicode="&#x22c5;" horiz-adv-x="164" 
d="M77 261v111h10v-111h-10z" />
    <glyph glyph-name="lozenge" unicode="&#x25ca;" 
d="M284 0h-11l-238 356l239 359h10l242 -359zM515 356l-236 350l-233 -350l233 -348z" />
    <glyph glyph-name="commaaccent" unicode="&#xf6c3;" horiz-adv-x="369" 
d="M180 -163l78 115h11l-77 -115h-12z" />
    <glyph glyph-name="uniF8FF" unicode="&#xf8ff;" horiz-adv-x="130" 
d="M61 261v111h10v-111h-10z" />
    <glyph glyph-name="acute.caps" horiz-adv-x="427" 
d="M317 877l-128 -116h-13l126 116h15z" />
    <glyph glyph-name="grave.caps" horiz-adv-x="512" 
d="M314 761l-128 116h15l126 -116h-13z" />
    <glyph glyph-name="circumflex.caps" horiz-adv-x="503" 
d="M247 875h10q17 -20 54 -62t46 -53h-12l-93 106l-93 -106h-12q9 11 46 53t54 62z" />
    <glyph glyph-name="caron.caps" horiz-adv-x="502" 
d="M257 760h-10q-17 20 -54 62t-46 53h12l93 -106l93 106h12q-9 -11 -46 -53t-54 -62z" />
    <glyph glyph-name="tilde.caps" horiz-adv-x="470" 
d="M271 798l-51 25q-28 13 -44 13q-37 0 -50 -59h-10q14 69 60 69q22 0 53 -17l47 -23q32 -15 47 -15q40 0 52 61h10q-13 -71 -62 -71q-16 0 -52 17z" />
    <glyph glyph-name="macron.caps" horiz-adv-x="428" 
d="M123 802v10h244v-10h-244z" />
    <glyph glyph-name="breve.caps" horiz-adv-x="465" 
d="M250 793q84 0 103 86h10q-18 -96 -113 -96t-113 96h10q13 -86 103 -86z" />
    <glyph glyph-name="dotaccent.caps" horiz-adv-x="328" 
d="M156 766v80h10v-80h-10z" />
    <glyph glyph-name="ring.caps" horiz-adv-x="405" 
d="M246 759q-32 0 -54 22.5t-22 55.5q0 32 22 54t54 22t55 -22t23 -54q0 -33 -22.5 -55.5t-55.5 -22.5zM179 837q0 -29 19 -49t48 -20t49 19.5t20 49.5q0 28 -20 47.5t-49 19.5t-48 -19.5t-19 -47.5z" />
    <glyph glyph-name="cedilla.caps" horiz-adv-x="369" 
d="M177 -163l78 115h11l-77 -115h-12z" />
    <glyph glyph-name="ogonek.caps" horiz-adv-x="331" 
d="M127 -48l78 -115h-12l-77 115h11z" />
    <glyph glyph-name="hungarumlaut.caps" horiz-adv-x="612" 
d="M327 877l-126 -116h-14l126 116h14zM497 877l-126 -116h-14l126 116h14z" />
    <glyph glyph-name="dieresis.caps" horiz-adv-x="491" 
d="M200 766v80h10v-80h-10zM313 766v80h10v-80h-10z" />
    <glyph glyph-name="horn" horiz-adv-x="264" 
d="M166 715l-70 -191h-11l70 191h11z" />
    <glyph glyph-name="Gtilde" horiz-adv-x="793" 
d="M713 237q-16 -107 -100 -179t-206 -72q-158 0 -254 102.5t-96 268.5q0 165 96.5 268.5t252.5 103.5q121 0 202 -60.5t117 -168.5h-10q-37 100 -113 159.5t-196 59.5q-153 0 -246 -102t-93 -259q0 -161 92 -261.5t248 -100.5q72 0 131.5 27.5t96 71t56.5 94.5t20 102v39
h-319v10h329v-340h-10v91q0 50 1 83q0 40 1 63zM433 798l-51 25q-28 13 -44 13q-37 0 -50 -59h-10q14 69 60 69q22 0 53 -17l47 -23q32 -15 47 -15q40 0 52 61h10q-13 -71 -62 -71q-16 0 -52 17z" />
    <glyph glyph-name="gtilde" horiz-adv-x="587" 
d="M285 -180q107 0 155 63t48 191q0 8 1 64t1 74q-11 -77 -65.5 -132t-142.5 -55q-104 0 -165 70.5t-61 183.5q0 116 62.5 188t163.5 72q88 0 142 -52t65 -124q-1 15 -1 40v49v73h10v-451q0 -128 -49 -196t-164 -68q-94 0 -146 48.5t-65 124.5h11q10 -67 58.5 -115
t141.5 -48zM282 35q96 0 151.5 70t55.5 180q0 105 -51.5 174.5t-156.5 69.5q-101 0 -158 -72.5t-57 -177.5q0 -104 56.5 -174t159.5 -70zM310 648l-51 25q-28 13 -44 13q-37 0 -50 -59h-10q14 69 60 69q22 0 53 -17l47 -23q32 -15 47 -15q40 0 52 61h10q-13 -71 -62 -71
q-16 0 -52 17z" />
    <glyph glyph-name="Mcircumflex" horiz-adv-x="758" 
d="M378 0h-12l-169 480q-64 182 -78 223h-1q0 -24 0.5 -136t0.5 -166v-401h-10v715h15l153 -428q12 -34 47.5 -136.5t47.5 -137.5h1q47 145 106 291l158 411h12v-715h-10v372q0 301 2 331h-1q-5 -18 -122 -325zM366 875h10q17 -20 54 -62t46 -53h-12l-93 106l-93 -106h-12
q9 11 46 53t54 62z" />
    <glyph glyph-name="mcircumflex" horiz-adv-x="939" 
d="M90 0v445q0 53 -1 80h11v-37q0 -23 -0.5 -79t-0.5 -60q2 30 13 61t32.5 61t60 49t88.5 19q84 0 133 -52.5t49 -130.5q3 40 23 80t65.5 71.5t107.5 31.5q123 0 166 -103q19 -41 19 -117v-319h-10v319q0 71 -19 113q-44 97 -156 97q-92 0 -142.5 -66t-50.5 -158v-305h-10
v319q0 71 -19 113q-44 97 -156 97q-94 0 -143.5 -68.5t-49.5 -163.5v-297h-10zM463 715h10q12 -15 102 -119h-12l-95 110l-95 -110h-12q90 104 102 119z" />
    <glyph glyph-name="Mmacron" horiz-adv-x="758" 
d="M378 0h-12l-169 480q-64 182 -78 223h-1q0 -24 0.5 -136t0.5 -166v-401h-10v715h15l153 -428q12 -34 47.5 -136.5t47.5 -137.5h1q47 145 106 291l158 411h12v-715h-10v372q0 301 2 331h-1q-5 -18 -122 -325zM250 802v10h244v-10h-244z" />
    <glyph glyph-name="mmacron" horiz-adv-x="939" 
d="M90 0v445q0 53 -1 80h11v-37q0 -23 -0.5 -79t-0.5 -60q2 30 13 61t32.5 61t60 49t88.5 19q84 0 133 -52.5t49 -130.5q3 40 23 80t65.5 71.5t107.5 31.5q123 0 166 -103q19 -41 19 -117v-319h-10v319q0 71 -19 113q-44 97 -156 97q-92 0 -142.5 -66t-50.5 -158v-305h-10
v319q0 71 -19 113q-44 97 -156 97q-94 0 -143.5 -68.5t-49.5 -163.5v-297h-10zM347 652v10h244v-10h-244z" />
    <glyph glyph-name="Ncircumflex" horiz-adv-x="699" 
d="M109 715h13l288 -440q156 -236 170 -262h1q0 17 -0.5 127.5t-0.5 148.5v426h10v-715h-13l-282 431q-158 243 -176 271h-1q0 -16 0.5 -161t0.5 -180v-361h-10v715zM352 875h10q17 -20 54 -62t46 -53h-12l-93 106l-93 -106h-12q9 11 46 53t54 62z" />
    <glyph glyph-name="ncircumflex" horiz-adv-x="570" 
d="M90 0v445q0 53 -1 80h11v-37q0 -9 -0.5 -40.5t-0.5 -48.5v-57q1 30 12 62t33 63.5t62 51.5t91 20q128 0 171 -103q19 -41 19 -117v-319h-10v319q0 71 -19 113q-44 97 -161 97q-94 0 -145.5 -68.5t-51.5 -163.5v-297h-10zM296 715h10q12 -15 102 -119h-12l-95 110
l-95 -110h-12q90 104 102 119z" />
    <glyph glyph-name="Ndieresis" horiz-adv-x="699" 
d="M109 715h13l288 -440q156 -236 170 -262h1q0 17 -0.5 127.5t-0.5 148.5v426h10v-715h-13l-282 431q-158 243 -176 271h-1q0 -16 0.5 -161t0.5 -180v-361h-10v715zM289 766v80h10v-80h-10zM402 766v80h10v-80h-10z" />
    <glyph glyph-name="ndieresis" horiz-adv-x="570" 
d="M90 0v445q0 53 -1 80h11v-37q0 -9 -0.5 -40.5t-0.5 -48.5v-57q1 30 12 62t33 63.5t62 51.5t91 20q128 0 171 -103q19 -41 19 -117v-319h-10v319q0 71 -19 113q-44 97 -161 97q-94 0 -145.5 -68.5t-51.5 -163.5v-297h-10zM231 616v80h10v-80h-10zM344 616v80h10v-80h-10z
" />
    <glyph glyph-name="Nmacron" horiz-adv-x="699" 
d="M109 715h13l288 -440q156 -236 170 -262h1q0 17 -0.5 127.5t-0.5 148.5v426h10v-715h-13l-282 431q-158 243 -176 271h-1q0 -16 0.5 -161t0.5 -180v-361h-10v715zM236 802v10h244v-10h-244z" />
    <glyph glyph-name="nmacron" horiz-adv-x="570" 
d="M90 0v445q0 53 -1 80h11v-37q0 -9 -0.5 -40.5t-0.5 -48.5v-57q1 30 12 62t33 63.5t62 51.5t91 20q128 0 171 -103q19 -41 19 -117v-319h-10v319q0 71 -19 113q-44 97 -161 97q-94 0 -145.5 -68.5t-51.5 -163.5v-297h-10zM178 652v10h244v-10h-244z" />
    <glyph glyph-name="Pmacron" horiz-adv-x="571" 
d="M109 0v715h162q123 0 189 -44.5t66 -153.5t-69 -159.5t-191 -50.5h-147v-307h-10zM119 705v-388h147q123 0 186.5 50.5t63.5 149.5q0 100 -60.5 144t-184.5 44h-152zM176 802v10h244v-10h-244z" />
    <glyph glyph-name="pmacron" horiz-adv-x="618" 
d="M90 -180v705h10v-104q0 -5 -0.5 -22.5t-0.5 -26.5v-31q15 85 74 141t150 56q108 0 174 -73t66 -202q0 -125 -66.5 -201t-173.5 -76q-90 0 -150.5 58t-73.5 139q1 -37 1 -112v-251h-10zM323 528q-102 0 -163 -72.5t-61 -193.5q0 -118 61.5 -192t162.5 -74
q103 0 166.5 73.5t63.5 193.5q0 122 -63 193.5t-167 71.5zM203 652v10h244v-10h-244z" />
    <glyph glyph-name="at.case" horiz-adv-x="844" 
d="M592 527h10q-24 -147 -49 -271q-4 -17 -4 -36q0 -27 14.5 -39.5t49.5 -12.5q70 0 121 68.5t51 183.5q0 134 -92 217.5t-246 83.5q-171 0 -274.5 -108t-103.5 -263q0 -160 103 -262.5t279 -102.5q156 0 271 99l7 -7q-111 -102 -278 -102q-173 0 -282.5 102.5t-109.5 272.5
q0 160 108 270.5t280 110.5q156 0 252 -86.5t96 -223.5q0 -116 -53 -189t-129 -73q-73 0 -73 59q0 17 6 41h-1q-15 -43 -53 -72.5t-90 -29.5q-70 0 -109 42t-39 121q0 87 49 152t134 65q64 0 98 -39t34 -99h1zM437 527q-78 0 -125.5 -60t-47.5 -147q0 -73 36 -113.5
t102 -40.5q43 0 75 20t50 53t26.5 70t8.5 77q0 62 -31 101.5t-94 39.5z" />
    <glyph glyph-name="bar.case" horiz-adv-x="236" 
d="M113 751h10v-794h-10v794z" />
    <glyph glyph-name="plus.case" 
d="M503 367h-217v-222h-10v222h-218v10h218v223h10v-223h217v-10z" />
    <glyph glyph-name="minus.case" 
d="M59 367v10h442v-10h-442z" />
    <glyph glyph-name="plusminus.case" 
d="M60 50v10h442v-10h-442zM502 376h-217v-213h-10v213h-218v10h218v214h10v-214h217v-10z" />
    <glyph glyph-name="multiply.case" 
d="M96 179l-7 7l183 183l-183 184l7 7l183 -184l185 185l7 -7l-185 -185l185 -184l-7 -7l-185 184z" />
    <glyph glyph-name="divide.case" 
d="M59 367v10h442v-10h-442zM275 145v111h10v-111h-10zM275 488v111h10v-111h-10z" />
    <glyph glyph-name="equal.case" 
d="M59 460v10h442v-10h-442zM59 275v10h442v-10h-442z" />
    <glyph glyph-name="notequal.case" 
d="M59 460v10h271l74 140h12l-75 -140h160v-10h-165l-93 -175h258v-10h-263l-77 -145h-12l77 145h-167v10h172l93 175h-265z" />
    <glyph glyph-name="approxequal.case" 
d="M299 397l-64 30q-52 24 -80 24q-25 0 -46 -13t-30.5 -24.5t-26.5 -35.5l-8 4q46 79 111 79q38 0 96 -30l67 -32q46 -24 84 -24q36 0 61 20t49 57l8 -4q-50 -83 -118 -83q-35 0 -103 32zM297 167l-64 30q-52 24 -80 24q-25 0 -46 -13t-30.5 -24.5t-26.5 -35.5l-8 4
q46 79 111 79q38 0 96 -30l67 -32q46 -24 84 -24q36 0 61 20t49 57l8 -4q-50 -83 -118 -83q-35 0 -103 32z" />
    <glyph glyph-name="logicalnot.case" 
d="M32 487v10h503v-310h-10v300h-493z" />
    <glyph glyph-name="parenleft.case" horiz-adv-x="283" 
d="M56 350q0 145 51.5 263.5t141.5 190.5v-10q-183 -159 -183 -444q0 -286 183 -444v-10q-89 69 -141 189.5t-52 264.5z" />
    <glyph glyph-name="parenright.case" horiz-adv-x="284" 
d="M227 350q0 -144 -52 -264.5t-141 -189.5v10q183 158 183 444q0 285 -183 444v10q90 -72 141.5 -190.5t51.5 -263.5z" />
    <glyph glyph-name="hyphen.case" horiz-adv-x="432" 
d="M80 364v10h272v-10h-272z" />
    <glyph glyph-name="bracketleft.case" horiz-adv-x="273" 
d="M231 -53v-10h-119v828h119v-10h-109v-808h109z" />
    <glyph glyph-name="bracketright.case" horiz-adv-x="273" 
d="M42 -63v10h109v808h-109v10h119v-828h-119z" />
    <glyph glyph-name="braceleft.case" horiz-adv-x="264" 
d="M48 352v9q47 15 60.5 36t13.5 83v208q0 49 17.5 65.5t61.5 16.5q4 0 8.5 -0.5t5.5 -0.5h5v-9q-8 1 -21 1q-41 0 -54 -15t-13 -58v-208q0 -58 -12.5 -84t-56.5 -39v-1q44 -13 56.5 -39t12.5 -84v-211q0 -43 13 -58t54 -15q13 0 21 1v-9q-1 -1 -5 -1h-14q-44 0 -61.5 16.5
t-17.5 65.5v211q0 62 -13.5 83t-60.5 36z" />
    <glyph glyph-name="braceright.case" horiz-adv-x="264" 
d="M216 361v-9q-47 -15 -60.5 -36t-13.5 -83v-211q0 -49 -17.5 -65.5t-61.5 -16.5h-14q-4 0 -5 1v9q8 -1 21 -1q41 0 54 15t13 58v211q0 58 12.5 84t56.5 39v1q-44 13 -56.5 39t-12.5 84v208q0 43 -13 58t-54 15q-13 0 -21 -1v9h5q1 0 5.5 0.5t8.5 0.5q44 0 61.5 -16.5
t17.5 -65.5v-208q0 -62 13.5 -83t60.5 -36z" />
    <glyph glyph-name="guillemotleft.case" horiz-adv-x="446" 
d="M368 533l-109 -187l109 -188h-10l-110 188l110 187h10zM192 533l-109 -187l109 -188h-10l-110 188l110 187h10z" />
    <glyph glyph-name="guillemotright.case" horiz-adv-x="446" 
d="M187 346l-109 187h10l110 -187l-110 -188h-10zM363 346l-109 187h10l110 -187l-110 -188h-10z" />
    <glyph glyph-name="endash.case" horiz-adv-x="634" 
d="M80 366v10h476v-10h-476z" />
    <glyph glyph-name="emdash.case" horiz-adv-x="989" 
d="M75 365v10h841v-10h-841z" />
    <glyph glyph-name="guilsinglleft.case" horiz-adv-x="270" 
d="M192 533l-109 -187l109 -188h-10l-110 188l110 187h10z" />
    <glyph glyph-name="guilsinglright.case" horiz-adv-x="270" 
d="M187 346l-109 187h10l110 -187l-110 -188h-10z" />
    <glyph glyph-name="brokenbar.case" horiz-adv-x="180" 
d="M85 448v303h10v-303h-10zM85 -42v303h10v-303h-10z" />
    <glyph glyph-name="registered.alt" horiz-adv-x="863" 
d="M318 143v427h116q147 0 147 -115q0 -108 -118 -122l115 -190h-12l-113 188h-125v-188h-10zM328 560v-219h106q137 0 137 114q0 105 -137 105h-106zM808 360q0 -158 -110 -267.5t-268 -109.5q-156 0 -265.5 110t-109.5 267t109.5 266.5t267.5 109.5q156 0 266 -110
t110 -266zM798 360q0 151 -107 258.5t-259 107.5q-155 0 -261 -107t-106 -259t105 -259.5t261 -107.5q153 0 260 107.5t107 259.5z" />
    <glyph glyph-name="less.case" 
d="M65 360v8l396 218v-11l-384 -210v-1l384 -216v-11z" />
    <glyph glyph-name="greater.case" 
d="M495 368v-8l-396 -223v11l384 216v1l-384 210v11z" />
    <glyph glyph-name="lessequal.case" 
d="M79 0v10h396v-10h-396zM79 340v8l396 218v-11l-384 -210v-1l384 -216v-11z" />
    <glyph glyph-name="greaterequal.case" 
d="M480 10v-10h-396v10h396zM480 348v-8l-396 -223v11l384 216v1l-384 210v11z" />
    <glyph glyph-name="infinity.case" horiz-adv-x="882" 
d="M441 370q7 8 30 33.5t34 37.5t34 32.5t40 30.5t40.5 18.5t46.5 8.5q66 0 108 -46t42 -121q0 -73 -39 -120t-111 -47q-21 0 -42.5 7.5t-36 14.5t-38.5 28t-33.5 30.5t-38 39.5t-36.5 39q-8 -9 -36.5 -39t-38 -39.5t-33.5 -30.5t-38.5 -28t-36 -14.5t-42.5 -7.5
q-72 0 -111 47t-39 120q0 75 42 121t108 46q27 0 53 -9.5t51.5 -30t41.5 -36.5t42.5 -45.5t36.5 -39.5zM216 207q28 0 54.5 10.5t57.5 38t48.5 45.5t57.5 62q-10 11 -33.5 37t-35 38t-33 31.5t-37 28t-37 16t-42.5 7.5q-65 0 -102.5 -43t-37.5 -113q0 -72 35 -115t105 -43z
M666 207q70 0 105 43t35 115q0 70 -37.5 113t-102.5 43q-14 0 -28 -2.5t-28 -9t-24.5 -12t-25 -18t-22.5 -19t-23.5 -23.5t-21.5 -23t-23 -26t-22 -25q35 -38 46 -50.5t39.5 -40t44.5 -37t40.5 -19t47.5 -9.5z" />
    <glyph glyph-name="uni00AD.case" horiz-adv-x="432" 
d="M80 364v10h272v-10h-272z" />
    <glyph glyph-name="idotaccent" horiz-adv-x="190" 
d="M90 525h10v-525h-10v525zM100 604h-10v111h10v-111z" />
    <glyph glyph-name="zero.slashplf" horiz-adv-x="617" 
d="M308 -14q-69 0 -116.5 27.5t-73.5 79.5t-37 115.5t-11 147.5q0 78 10 139t35 116.5t74 86t119 30.5q239 0 239 -372q0 -84 -11 -147.5t-37 -115.5t-74 -79.5t-117 -27.5zM80 356q0 -257 108 -329l241 658q-48 33 -121 33q-65 0 -110.5 -26.5t-70.5 -77t-36 -113
t-11 -145.5zM308 -4q124 0 176.5 91.5t52.5 268.5q0 243 -100 322l-241 -656q44 -26 112 -26z" />
    <glyph glyph-name="zero.slash" 
d="M279 -14q-69 0 -116.5 27.5t-73.5 79.5t-37 115.5t-11 147.5q0 78 10 139t35 116.5t74 86t119 30.5q239 0 239 -372q0 -84 -11 -147.5t-37 -115.5t-74 -79.5t-117 -27.5zM51 356q0 -257 108 -329l241 658q-48 33 -121 33q-65 0 -110.5 -26.5t-70.5 -77t-36 -113
t-11 -145.5zM279 -4q124 0 176.5 91.5t52.5 268.5q0 243 -100 322l-241 -656q44 -26 112 -26z" />
    <glyph glyph-name="zero.tosf" 
d="M279 -4q124 0 176.5 90t52.5 263q0 81 -11 142.5t-36.5 111t-71 75.5t-110.5 26t-110.5 -26t-70.5 -75.5t-36 -111t-11 -142.5q0 -174 52.5 -263.5t175.5 -89.5zM279 -14q-69 0 -116.5 27t-73.5 78t-37 113.5t-11 144.5q0 76 10 136.5t35 114.5t74 84t119 30
q239 0 239 -365q0 -82 -11 -144.5t-37 -113.5t-74 -78t-117 -27z" />
    <glyph glyph-name="one.tosf" 
d="M338 0v571h-196v8h117q56 0 67.5 6.5t11.5 40.5l1 75h9v-701h-10z" />
    <glyph glyph-name="two.tosf" 
d="M506 0h-454v7q33 26 71.5 60.5t87 78.5t69.5 62q110 99 153 167.5t43 142.5q0 81 -48 134t-145 53q-199 0 -210 -204h-10q4 99 59.5 156.5t160.5 57.5q100 0 151.5 -56t51.5 -141q0 -48 -16.5 -92.5t-50.5 -87t-62 -70.5t-75 -70q-177 -160 -213 -188h437v-10z" />
    <glyph glyph-name="three.tosf" 
d="M49 192h10q19 -196 219 -196q101 0 159.5 59.5t58.5 140.5q0 89 -65 134t-170 45h-24v10q99 0 163 45t64 124q0 65 -47 108t-136 43q-91 0 -140.5 -45t-55.5 -122h-10q5 82 59 129.5t147 47.5q91 0 142 -43t51 -116q0 -74 -48 -118.5t-128 -54.5v-2q90 -4 149 -50.5
t59 -134.5q0 -93 -65.5 -151.5t-162.5 -58.5q-103 0 -162 52.5t-67 153.5z" />
    <glyph glyph-name="four.tosf" 
d="M532 194v-10h-140v-184h-10v184h-361v6l366 512h5v-508h140zM383 679h-2q-5 -8 -171 -241l-50 -69q-7 -10 -35.5 -50.5t-43.5 -61.5l-46 -63h347v169q0 64 0.5 187t0.5 129z" />
    <glyph glyph-name="five.tosf" 
d="M91 344l37 357h343v-10h-335l-35 -341q71 87 186 87q96 0 155 -57.5t59 -159.5q0 -103 -62 -168.5t-164 -65.5q-96 0 -153.5 51t-68.5 144h10q7 -75 59 -130t153 -55q104 0 160 65.5t56 158.5q0 91 -52 149.5t-152 58.5q-115 0 -183 -88z" />
    <glyph glyph-name="six.tosf" 
d="M502 521h-10q-8 38 -19.5 66.5t-33 57.5t-58 44.5t-86.5 15.5q-73 0 -122.5 -34t-79 -118t-29.5 -219q0 -75 6 -125h1q-2 98 61 163.5t163 65.5q103 0 161 -59t58 -162q0 -106 -62.5 -168.5t-165.5 -62.5q-146 0 -198 122q-34 78 -34 226q0 197 61 289t180 92
q92 0 140.5 -50.5t66.5 -143.5zM295 428q-95 0 -155 -60.5t-60 -154.5q0 -100 55 -158.5t151 -58.5q98 0 158 59t60 162q0 95 -54.5 153t-154.5 58z" />
    <glyph glyph-name="seven.tosf" 
d="M196 0h-11q62 146 159 344q28 57 84.5 174.5t83.5 172.5h-443v10h453v-8l-28 -61q-33 -69 -100 -205.5t-113.5 -236.5t-84.5 -190z" />
    <glyph glyph-name="eight.tosf" 
d="M280 -4q107 0 167 51t60 137q0 83 -59 134t-168 51t-168 -51t-59 -134q0 -86 60 -137t167 -51zM280 377q91 0 144.5 47t53.5 118t-53.5 117t-144.5 46t-144.5 -46t-53.5 -117t53.5 -118t144.5 -47zM280 -14q-111 0 -174 53.5t-63 144.5q0 77 51.5 130.5t139.5 59.5
q-74 8 -118 54.5t-44 113.5q0 76 57 124.5t151 48.5t151 -48.5t57 -124.5q0 -67 -44 -113.5t-118 -54.5q88 -6 139.5 -59.5t51.5 -130.5q0 -91 -63 -144.5t-174 -53.5z" />
    <glyph glyph-name="nine.tosf" 
d="M58 180h10q8 -38 19.5 -66.5t33 -57.5t58 -44.5t86.5 -15.5q73 0 122.5 34t79 118t29.5 219q0 75 -6 125h-1q2 -99 -60.5 -164t-163.5 -65q-103 0 -161 59t-58 162q0 106 62.5 168.5t165.5 62.5q146 0 198 -122q34 -78 34 -226q0 -197 -61 -289t-180 -92
q-92 0 -140.5 50.5t-66.5 143.5zM265 273q95 0 155 60.5t60 154.5q0 100 -55 158.5t-151 58.5q-98 0 -158 -59t-60 -162q0 -95 54 -153t155 -58z" />
    <glyph glyph-name="zero.sub" horiz-adv-x="458" 
d="M229 -123q92 0 131 68t39 200q0 127 -38.5 198.5t-131.5 71.5t-131.5 -71.5t-38.5 -198.5q0 -132 39 -200t131 -68zM229 -132q-69 0 -110 38t-55 95.5t-14 143.5q0 59 7.5 105t26 87.5t55.5 64t90 22.5t89.5 -22.5t55.5 -64t26.5 -87.5t7.5 -105q0 -86 -14 -143.5
t-55 -95.5t-110 -38z" />
    <glyph glyph-name="one.sub" horiz-adv-x="273" 
d="M180 -122v436h-147v9h88q43 0 51 4.5t8 29.5v58h9v-537h-9z" />
    <glyph glyph-name="two.sub" horiz-adv-x="419" 
d="M378 -123h-341v7q10 8 120 107l51 46q77 74 111.5 128.5t34.5 107.5q0 61 -35.5 101t-107.5 40q-146 0 -157 -155h-9q2 76 44.5 120.5t121.5 44.5q75 0 113.5 -43t38.5 -108q0 -37 -12 -70.5t-38.5 -67t-46 -53.5t-55.5 -54l-26 -25q-97 -90 -131 -116h324v-10z" />
    <glyph glyph-name="three.sub" horiz-adv-x="426" 
d="M38 24h10q6 -68 46 -108.5t117 -40.5q74 0 117.5 45.5t43.5 105.5q0 68 -48.5 102.5t-125.5 34.5h-19v9q74 0 121.5 34t47.5 94q0 49 -34.5 81.5t-100.5 32.5q-68 0 -105 -34.5t-41 -92.5h-9q3 64 43.5 100t111.5 36q68 0 106.5 -33t38.5 -88t-33 -89t-89 -44
q62 -4 104 -41t42 -102q0 -71 -49 -115.5t-122 -44.5q-78 0 -122.5 40t-50.5 118z" />
    <glyph glyph-name="four.sub" horiz-adv-x="436" 
d="M408 27v-10h-105v-140h-9v140h-270v7l273 390h6v-387h105zM294 27v366l-52 -75q-12 -18 -37.5 -53t-36.5 -53q-6 -9 -19 -26.5t-19 -27.5l-59 -84l-34 -47h257zM295 395h-1v-2z" />
    <glyph glyph-name="five.sub" horiz-adv-x="412" 
d="M64 140l28 274h258v-10h-250q-4 -41 -13 -126t-13 -129q50 64 138 64q73 0 117 -44t44 -123t-46.5 -129t-123.5 -50q-72 0 -115.5 39.5t-51.5 110.5h9q7 -58 45 -99t113 -41q76 0 118 50t42 119t-38.5 113.5t-112.5 44.5q-37 0 -66.5 -12.5t-42 -24t-27.5 -30.5z" />
    <glyph glyph-name="six.sub" horiz-adv-x="440" 
d="M387 275h-9q-27 140 -146 140q-83 0 -127.5 -65.5t-44.5 -216.5q0 -62 3 -81q9 69 55 115.5t114 46.5q77 0 120.5 -46t43.5 -125q0 -81 -46.5 -128.5t-124.5 -47.5q-111 0 -149 94q-26 63 -26 172q0 291 182 291q130 0 155 -149zM232 204q-70 0 -115 -46.5t-45 -117.5
q0 -76 40.5 -120t112.5 -44t117 45t45 122q0 72 -40.5 116.5t-114.5 44.5z" />
    <glyph glyph-name="seven.sub" horiz-adv-x="388" 
d="M129 -123h-10q27 67 119 264l44 96l80 167h-330v10h340v-7l-21 -47l-83 -175q-96 -201 -139 -308z" />
    <glyph glyph-name="eight.sub" horiz-adv-x="445" 
d="M223 -124q79 0 123.5 38.5t44.5 103.5q0 63 -43.5 101.5t-124.5 38.5t-125 -38.5t-44 -101.5q0 -65 44.5 -103.5t124.5 -38.5zM223 167q67 0 106.5 36t39.5 89t-39.5 88t-106.5 35q-68 0 -108 -35t-40 -88t40 -89t108 -36zM223 -133q-84 0 -131.5 40.5t-47.5 110.5
q0 57 36.5 97t99.5 48q-53 8 -83.5 43t-30.5 86q0 58 42.5 95t114.5 37q71 0 113.5 -37t42.5 -95q0 -51 -31 -86t-84 -43q64 -8 100.5 -47.5t36.5 -97.5q0 -70 -47 -110.5t-131 -40.5z" />
    <glyph glyph-name="nine.sub" horiz-adv-x="439" 
d="M52 16h10q12 -62 44.5 -101t102.5 -39q83 0 127 65.5t44 216.5q0 60 -3 81q-9 -69 -54.5 -115.5t-113.5 -46.5q-78 0 -122 46t-44 125q0 81 47 128.5t125 47.5q109 0 149 -94q25 -60 25 -172q0 -151 -45.5 -221t-134.5 -70q-130 0 -157 149zM209 87q69 0 114 46.5
t45 117.5q0 76 -40.5 120t-112.5 44t-117 -45t-45 -122q0 -72 40.5 -116.5t115.5 -44.5z" />
    <glyph glyph-name="a.sub" horiz-adv-x="389" 
d="M59 151h-9q0 56 39 93t106 37q142 0 142 -163q0 -16 -0.5 -33t-0.5 -21v-105q0 -52 7 -82h-10q-6 24 -6 78v22q-15 -55 -59.5 -82t-104.5 -27q-56 0 -93 27.5t-37 79.5q0 50 43.5 74t127.5 38q7 1 56.5 7t66.5 8v21q0 149 -133 149q-64 0 -98.5 -34.5t-36.5 -86.5z
M327 28v65l-34 -4q-97 -13 -105 -14q-71 -11 -108 -33.5t-37 -66.5q0 -42 32 -70t88 -28q67 0 115.5 39t48.5 112z" />
    <glyph glyph-name="b.sub" horiz-adv-x="452" 
d="M56 -123v536h10v-197v-69q13 56 57 95t108 39q81 0 131 -57t50 -151q0 -98 -49 -152t-132 -54q-64 0 -107.5 37.5t-57.5 95.5v-123h-10zM231 -124q78 0 124.5 52.5t46.5 144.5q0 88 -47.5 143t-123.5 55q-74 0 -120 -55t-46 -142q0 -90 45 -144t121 -54z" />
    <glyph glyph-name="c.sub" horiz-adv-x="438" 
d="M395 4h9q-16 -63 -63 -99.5t-115 -36.5q-86 0 -136.5 56.5t-50.5 149.5q0 94 51 151t137 57q69 0 116.5 -38.5t61.5 -102.5h-9q-15 61 -59.5 96t-109.5 35q-82 0 -130.5 -55.5t-48.5 -142.5q0 -88 48.5 -142.5t129.5 -54.5q64 0 109 34t60 93z" />
    <glyph glyph-name="d.sub" horiz-adv-x="452" 
d="M396 413v-536h-10v124q-13 -60 -56.5 -97t-109.5 -37q-82 0 -131 54t-49 152q0 94 50 151t130 57q63 0 108 -39.5t58 -94.5v22v26v21v197h10zM220 -124q76 0 121.5 54t45.5 144q0 87 -46 142t-121 55t-122.5 -55t-47.5 -143q0 -92 46.5 -144.5t123.5 -52.5z" />
    <glyph glyph-name="e.sub" horiz-adv-x="436" 
d="M403 86h-355v-9q0 -89 46.5 -144.5t128.5 -55.5q62 0 104 30.5t60 83.5h10q-18 -56 -63.5 -89.5t-110.5 -33.5q-87 0 -135.5 57t-48.5 149q0 94 50 151t135 57q83 0 129 -54t50 -142zM224 272q-73 0 -119.5 -49.5t-55.5 -127.5h344q-6 76 -51 126.5t-118 50.5z" />
    <glyph glyph-name="f.sub" horiz-adv-x="172" 
d="M164 413v-10q-8 2 -19 2q-29 0 -43 -17q-16 -19 -16 -64v-54h78v-9h-78v-384h-9v384h-56v9h56v54q0 48 16 69q17 21 52 21q15 0 19 -1z" />
    <glyph glyph-name="g.sub" horiz-adv-x="429" 
d="M212 -255q79 0 115 47t36 142q0 6 0.5 40t0.5 47q-13 -53 -52.5 -89t-101.5 -36q-79 0 -124.5 52.5t-45.5 138.5q0 87 47 141t123 54q62 0 102.5 -34.5t51.5 -85.5q0 9 -0.5 30.5t-0.5 24.5v54h10v-337q0 -96 -37 -147.5t-124 -51.5q-70 0 -109.5 37t-48.5 95h10
q7 -50 43 -86t105 -36zM210 -94q71 0 112.5 51.5t41.5 133.5q0 78 -39 129.5t-116 51.5q-75 0 -117 -53.5t-42 -131.5q0 -77 41.5 -129t118.5 -52z" />
    <glyph glyph-name="h.sub" horiz-adv-x="406" 
d="M56 414h9v-172q0 -8 -0.5 -27t-0.5 -29v-32q7 48 44.5 88t102.5 40q93 0 129 -79q14 -33 14 -86v-240h-9v240q0 52 -14 83q-32 72 -120 72q-70 0 -108 -51t-38 -121v-223h-9v537z" />
    <glyph glyph-name="i.sub" horiz-adv-x="122" 
d="M56 271h10v-394h-10v394zM66 328h-10v86h10v-86z" />
    <glyph glyph-name="j.sub" horiz-adv-x="122" 
d="M56 271h10v-447q0 -51 -16 -72.5t-54 -21.5q-2 0 -5.5 0.5t-4.5 0.5h-7v10q8 -2 17 -2q32 0 46 19.5t14 64.5v448zM66 329h-10v85h10v-85z" />
    <glyph glyph-name="k.sub" horiz-adv-x="300" 
d="M298 -124h-14l-219 204v-204h-9v537h9v-321l208 178h15l-217 -184z" />
    <glyph glyph-name="l.sub" horiz-adv-x="122" 
d="M56 414h10v-537h-10v537z" />
    <glyph glyph-name="m.sub" horiz-adv-x="682" 
d="M56 -123v333q0 41 -1 61h10v-29q0 -9 -0.5 -34t-0.5 -38v-13q10 50 45 87.5t100 37.5q58 0 94 -36t42 -90q7 48 44 87t102 39q92 0 125 -78q14 -31 14 -87v-240h-9v240q0 55 -15 84q-29 71 -115 71q-68 0 -105.5 -49t-37.5 -117v-229h-10v240q0 57 -14 84q-32 71 -115 71
q-70 0 -107 -51t-37 -121v-223h-9z" />
    <glyph glyph-name="n.sub" horiz-adv-x="407" 
d="M56 -123v394h10v-28q0 -8 -0.5 -27t-0.5 -29v-33q7 49 44.5 88.5t102.5 39.5q95 0 129 -78q14 -31 14 -87v-240h-9v240q0 55 -15 84q-29 71 -119 71q-70 0 -108 -51t-38 -121v-223h-10z" />
    <glyph glyph-name="o.sub" horiz-adv-x="455" 
d="M226 -123q82 0 131.5 54t49.5 143q0 87 -50 142.5t-130 55.5t-129.5 -55.5t-49.5 -142.5q0 -89 48.5 -143t129.5 -54zM225 -132q-87 0 -136.5 56.5t-49.5 149.5t51.5 150.5t136.5 57.5q86 0 137.5 -57.5t51.5 -150.5t-51.5 -149.5t-139.5 -56.5z" />
    <glyph glyph-name="p.sub" horiz-adv-x="452" 
d="M56 -257v528h10v-123q13 60 56 96.5t109 36.5q83 0 132 -54t49 -152q0 -94 -50 -151t-131 -57q-62 0 -107 39.5t-58 94.5v-22v-26v-21v-189h-10zM231 272q-76 0 -121 -54t-45 -144q0 -87 46 -142t120 -55q76 0 123.5 55t47.5 143q0 92 -46.5 144.5t-124.5 52.5z" />
    <glyph glyph-name="q.sub" horiz-adv-x="452" 
d="M396 272v-529h-10v190q0 3 -0.5 34t0.5 35q-13 -56 -57 -95t-109 -39q-80 0 -130 57t-50 151q0 98 49 152t131 54q66 0 109.5 -37t56.5 -97v124h10zM220 273q-77 0 -123.5 -52.5t-46.5 -144.5q0 -88 47.5 -143t122.5 -55t121 55t46 142q0 90 -45.5 144t-121.5 54z" />
    <glyph glyph-name="r.sub" horiz-adv-x="175" 
d="M66 271v-53q0 -4 -0.5 -22.5t-0.5 -30.5q6 49 31.5 82t65.5 33q10 0 13 -1v-9h-13q-27 0 -46.5 -16t-30 -44.5t-15 -61t-4.5 -71.5v-200h-10v394h10z" />
    <glyph glyph-name="s.sub" horiz-adv-x="364" 
d="M30 -17h10q25 -107 141 -107q67 0 102 29.5t35 72.5q0 21 -7 35.5t-25.5 25.5t-33.5 16.5t-48 15.5l-35 10q-69 20 -95 39.5t-26 63.5q0 43 36.5 70t96.5 27q122 0 141 -102h-10q-18 92 -131 92q-58 0 -90.5 -24.5t-33.5 -62.5t24 -58t89 -36l37 -11q64 -17 92.5 -36.5
t28.5 -64.5q0 -51 -40 -81t-107 -30q-128 0 -151 116z" />
    <glyph glyph-name="t.sub" horiz-adv-x="179" 
d="M157 -117v-9q-10 -2 -18 -2q-41 0 -53 22t-12 73v295h-55v9h55v107h10v-107h73v-9h-73v-295q0 -48 10.5 -66.5t44.5 -18.5q15 0 18 1z" />
    <glyph glyph-name="u.sub" horiz-adv-x="401" 
d="M345 271v-333q0 -41 1 -61h-10v112q-9 -47 -45.5 -85t-98.5 -38q-93 0 -126 78q-14 31 -14 87v240h9v-240q0 -55 15 -84q29 -71 116 -71q68 0 106 50.5t38 121.5v223h9z" />
    <glyph glyph-name="v.sub" horiz-adv-x="335" 
d="M173 -123h-11l-147 393h10l84 -225l22 -58l38 -97q32 97 59 163l82 217h9z" />
    <glyph glyph-name="w.sub" horiz-adv-x="538" 
d="M267 270h12l60 -217q3 -11 8 -29.5t7 -26.5l29 -108l52 153l78 228h9q-11 -30 -39.5 -115t-43.5 -126q-40 -115 -52 -152h-10l-105 380l-112 -380h-11l-130 393h9l76 -226q47 -155 51 -155q16 62 42 146l7 25z" />
    <glyph glyph-name="x.sub" horiz-adv-x="334" 
d="M311 270h13l-150 -198l149 -195h-13l-143 188l-143 -188h-13l150 196l-151 197h14l143 -190z" />
    <glyph glyph-name="y.sub" horiz-adv-x="342" 
d="M125 -259h-10l53 136q-18 46 -73 184.5t-82 208.5h10l87 -224q13 -37 28 -70q31 -76 35 -86q25 71 44 117l17 45l83 218h10z" />
    <glyph glyph-name="z.sub" horiz-adv-x="357" 
d="M25 -123v8l201 253q14 19 44 57t32 41l20 25h-298v9h310v-8l-192 -245l-43 -53q-44 -53 -63 -78h296v-9h-307z" />
    <glyph glyph-name="zero.sup" horiz-adv-x="455" 
d="M228 302q92 0 131 68t39 200q0 127 -38.5 198.5t-131.5 71.5t-131.5 -71.5t-38.5 -198.5q0 -132 39 -200t131 -68zM228 293q-69 0 -110 38t-55 95.5t-14 143.5q0 59 7.5 105t26 87.5t55.5 64t90 22.5t89.5 -22.5t55.5 -64t26.5 -87.5t7.5 -105q0 -86 -14 -143.5
t-55 -95.5t-110 -38z" />
    <glyph glyph-name="one.sup" horiz-adv-x="273" 
d="M180 303v436h-147v9h88q43 0 51 4.5t8 29.5v58h9v-537h-9z" />
    <glyph glyph-name="two.sup" horiz-adv-x="417" 
d="M377 302h-341v7q10 8 120 107l51 46q77 74 111.5 128.5t34.5 107.5q0 61 -35.5 101t-107.5 40q-146 0 -157 -155h-9q2 76 44.5 120.5t121.5 44.5q75 0 113.5 -43t38.5 -108q0 -37 -12 -70.5t-38.5 -67t-46 -53.5t-55.5 -54l-26 -25q-97 -90 -131 -116h324v-10z" />
    <glyph glyph-name="three.sup" horiz-adv-x="426" 
d="M38 449h10q6 -68 46 -108.5t117 -40.5q74 0 117.5 45.5t43.5 105.5q0 68 -48.5 102.5t-125.5 34.5h-19v9q74 0 121.5 34t47.5 94q0 49 -34.5 81.5t-100.5 32.5q-68 0 -105 -34.5t-41 -92.5h-9q3 64 43.5 100t111.5 36q68 0 106.5 -33t38.5 -88t-33 -89t-89 -44
q62 -4 104 -41t42 -102q0 -71 -49 -115.5t-122 -44.5q-78 0 -122.5 40t-50.5 118z" />
    <glyph glyph-name="four.sup" horiz-adv-x="436" 
d="M408 452v-10h-105v-140h-9v140h-270v7l273 390h6v-387h105zM294 452v366l-52 -75q-12 -18 -37.5 -53t-36.5 -53q-6 -10 -19 -27.5t-19 -26.5l-59 -84l-34 -47h257zM295 820h-1v-2z" />
    <glyph glyph-name="five.sup" horiz-adv-x="411" 
d="M63 565l28 274h258v-10h-250q-4 -41 -13 -126t-13 -129q50 64 138 64q73 0 117 -44t44 -123t-46.5 -129t-123.5 -50q-72 0 -115.5 39.5t-51.5 110.5h9q7 -58 45 -99t113 -41q76 0 118 50t42 119t-38.5 113.5t-112.5 44.5q-37 0 -66.5 -12.5t-42 -24t-27.5 -30.5z" />
    <glyph glyph-name="six.sup" horiz-adv-x="437" 
d="M385 700h-9q-27 140 -146 140q-83 0 -127.5 -65.5t-44.5 -216.5q0 -62 3 -81q9 69 55 115.5t114 46.5q77 0 120.5 -46t43.5 -125q0 -81 -46.5 -128.5t-124.5 -47.5q-111 0 -149 94q-26 63 -26 172q0 291 182 291q130 0 155 -149zM230 629q-70 0 -115 -46.5t-45 -117.5
q0 -76 40.5 -120t112.5 -44t117 45t45 122q0 72 -40.5 116.5t-114.5 44.5z" />
    <glyph glyph-name="seven.sup" horiz-adv-x="388" 
d="M130 302h-10q27 67 119 264l44 96l80 167h-330v10h340v-7l-21 -47l-83 -175q-96 -201 -139 -308z" />
    <glyph glyph-name="eight.sup" horiz-adv-x="445" 
d="M223 301q79 0 123.5 38.5t44.5 103.5q0 63 -43.5 101.5t-124.5 38.5t-125 -38.5t-44 -101.5q0 -65 44.5 -103.5t124.5 -38.5zM223 592q67 0 106.5 36t39.5 89t-39.5 88t-106.5 35q-68 0 -108 -35t-40 -88t40 -89t108 -36zM223 292q-84 0 -131.5 40.5t-47.5 110.5
q0 57 36.5 97t99.5 48q-53 8 -83.5 43t-30.5 86q0 58 42.5 95t114.5 37q71 0 113.5 -37t42.5 -95q0 -51 -31 -86t-84 -43q64 -8 100.5 -47.5t36.5 -97.5q0 -70 -47 -110.5t-131 -40.5z" />
    <glyph glyph-name="nine.sup" horiz-adv-x="437" 
d="M52 441h10q12 -62 44.5 -101t102.5 -39q83 0 127 65.5t44 216.5q0 60 -3 81q-9 -69 -54.5 -115.5t-113.5 -46.5q-78 0 -122 46t-44 125q0 81 47 128.5t125 47.5q109 0 149 -94q25 -60 25 -172q0 -151 -45.5 -221t-134.5 -70q-130 0 -157 149zM209 512q69 0 114 46.5
t45 117.5q0 76 -40.5 120t-112.5 44t-117 -45t-45 -122q0 -72 40.5 -116.5t115.5 -44.5z" />
    <glyph glyph-name="a.sup" horiz-adv-x="389" 
d="M59 576h-9q0 56 39 93t106 37q142 0 142 -163q0 -15 -0.5 -33t-0.5 -21v-105q0 -52 7 -82h-10q-6 24 -6 78q0 3 0.5 11t-0.5 11q-15 -55 -59.5 -82t-104.5 -27q-56 0 -93 27.5t-37 79.5q0 50 43.5 74t127.5 38q7 1 56.5 7t66.5 8v21q0 149 -133 149q-64 0 -98.5 -34.5
t-36.5 -86.5zM327 453v65l-34 -4q-98 -12 -105 -14q-71 -11 -108 -33.5t-37 -66.5q0 -42 32 -70t88 -28q67 0 115.5 39t48.5 112z" />
    <glyph glyph-name="b.sup" horiz-adv-x="452" 
d="M56 302v536h10v-197v-69q13 56 57 95t108 39q81 0 131 -57t50 -151q0 -98 -49 -152t-132 -54q-64 0 -107.5 37.5t-57.5 95.5v-123h-10zM231 301q78 0 124.5 52.5t46.5 144.5q0 88 -47.5 143t-123.5 55q-74 0 -120 -55t-46 -142q0 -90 45 -144t121 -54z" />
    <glyph glyph-name="c.sup" horiz-adv-x="437" 
d="M395 429h9q-16 -63 -63 -99.5t-115 -36.5q-86 0 -136.5 56.5t-50.5 149.5q0 94 51 151t137 57q69 0 116.5 -38.5t61.5 -102.5h-9q-15 61 -59.5 96t-109.5 35q-82 0 -130.5 -55.5t-48.5 -142.5q0 -88 48.5 -142.5t129.5 -54.5q64 0 109 34t60 93z" />
    <glyph glyph-name="d.sup" horiz-adv-x="452" 
d="M396 838v-536h-10v124q-13 -60 -56.5 -97t-109.5 -37q-82 0 -131 54t-49 152q0 94 50 151t130 57q63 0 108 -39.5t58 -94.5v69v197h10zM220 301q76 0 121.5 54t45.5 144q0 87 -46 142t-121 55t-122.5 -55t-47.5 -143q0 -92 46.5 -144.5t123.5 -52.5z" />
    <glyph glyph-name="e.sup" horiz-adv-x="438" 
d="M404 511h-355v-9q0 -89 46.5 -144.5t128.5 -55.5q62 0 104 30.5t60 83.5h10q-18 -56 -63.5 -89.5t-110.5 -33.5q-87 0 -135.5 57t-48.5 149q0 94 50 151t135 57q83 0 129 -54t50 -142zM225 697q-73 0 -119.5 -49.5t-55.5 -127.5h344q-6 76 -51 126.5t-118 50.5z" />
    <glyph glyph-name="f.sup" horiz-adv-x="171" 
d="M162 838v-10q-8 2 -19 2q-29 0 -43 -17q-16 -19 -16 -64v-54h78v-9h-78v-384h-9v384h-56v9h56v54q0 48 16 69q17 21 52 21q15 0 19 -1z" />
    <glyph glyph-name="g.sup" horiz-adv-x="430" 
d="M213 170q79 0 115 47t36 142q0 6 0.5 40t0.5 47q-13 -53 -52.5 -89t-101.5 -36q-79 0 -124.5 52.5t-45.5 138.5q0 87 47 141t123 54q62 0 102.5 -34.5t51.5 -85.5q0 9 -0.5 30.5t-0.5 24.5v54h10v-337q0 -96 -37 -147.5t-124 -51.5q-70 0 -109.5 37t-48.5 95h10
q7 -50 43 -86t105 -36zM211 331q71 0 112.5 51.5t41.5 133.5q0 78 -39 129.5t-116 51.5q-75 0 -117 -53.5t-42 -131.5q0 -77 41.5 -129t118.5 -52z" />
    <glyph glyph-name="h.sup" horiz-adv-x="406" 
d="M56 839h9v-172q0 -8 -0.5 -27t-0.5 -29v-32q7 48 44.5 88t102.5 40q93 0 129 -79q14 -33 14 -86v-240h-9v240q0 52 -14 83q-32 72 -120 72q-70 0 -108 -51t-38 -121v-223h-9v537z" />
    <glyph glyph-name="i.sup" horiz-adv-x="122" 
d="M56 696h10v-394h-10v394zM66 753h-10v86h10v-86z" />
    <glyph glyph-name="j.sup" horiz-adv-x="122" 
d="M56 696h10v-447q0 -51 -16 -72.5t-54 -21.5q-2 0 -5.5 0.5t-4.5 0.5h-7v10q8 -2 17 -2q32 0 46 19.5t14 64.5v448zM66 754h-10v85h10v-85z" />
    <glyph glyph-name="k.sup" horiz-adv-x="298" 
d="M298 301h-14l-219 204v-204h-9v537h9v-321l208 178h15l-217 -184z" />
    <glyph glyph-name="l.sup" horiz-adv-x="122" 
d="M56 839h10v-537h-10v537z" />
    <glyph glyph-name="m.sup" horiz-adv-x="682" 
d="M56 302v333q0 41 -1 61h10v-29q0 -9 -0.5 -34t-0.5 -38v-13q10 50 45 87.5t100 37.5q58 0 94 -36t42 -90q7 48 44 87t102 39q92 0 125 -78q14 -31 14 -87v-240h-9v240q0 55 -15 84q-29 71 -115 71q-68 0 -105.5 -49t-37.5 -117v-229h-10v240q0 57 -14 84q-32 71 -115 71
q-70 0 -107 -51t-37 -121v-223h-9z" />
    <glyph glyph-name="n.sup" horiz-adv-x="407" 
d="M56 302v394h10v-28q0 -8 -0.5 -27t-0.5 -29v-33q7 49 44.5 88.5t102.5 39.5q95 0 129 -78q14 -31 14 -87v-240h-9v240q0 55 -15 84q-29 71 -119 71q-70 0 -108 -51t-38 -121v-223h-10z" />
    <glyph glyph-name="o.sup" horiz-adv-x="455" 
d="M226 302q82 0 131.5 54t49.5 143q0 87 -50 142.5t-130 55.5t-129.5 -55.5t-49.5 -142.5q0 -89 48.5 -143t129.5 -54zM225 293q-87 0 -136.5 56.5t-49.5 149.5t51.5 150.5t136.5 57.5q86 0 137.5 -57.5t51.5 -150.5t-51.5 -149.5t-139.5 -56.5z" />
    <glyph glyph-name="p.sup" horiz-adv-x="452" 
d="M56 168v528h10v-123q13 60 56 96.5t109 36.5q83 0 132 -54t49 -152q0 -94 -50 -151t-131 -57q-62 0 -107 39.5t-58 94.5v-22v-26v-21v-189h-10zM231 697q-76 0 -121 -54t-45 -144q0 -87 46 -142t120 -55q76 0 123.5 55t47.5 143q0 92 -46.5 144.5t-124.5 52.5z" />
    <glyph glyph-name="q.sup" horiz-adv-x="452" 
d="M396 697v-529h-10v190v69q-13 -56 -57 -95t-109 -39q-80 0 -130 57t-50 151q0 98 49 152t131 54q66 0 109.5 -37t56.5 -97v124h10zM220 698q-77 0 -123.5 -52.5t-46.5 -144.5q0 -88 47.5 -143t122.5 -55t121 55t46 142q0 90 -45.5 144t-121.5 54z" />
    <glyph glyph-name="r.sup" horiz-adv-x="178" 
d="M66 696v-53q0 -4 -0.5 -22.5t-0.5 -30.5q6 49 31.5 82t65.5 33q10 0 13 -1v-9h-13q-27 0 -46.5 -16t-30 -44.5t-15 -61t-4.5 -71.5v-200h-10v394h10z" />
    <glyph glyph-name="s.sup" horiz-adv-x="364" 
d="M29 408h10q25 -107 141 -107q67 0 102 29.5t35 72.5q0 21 -7 35.5t-25.5 25.5t-33.5 16.5t-48 15.5l-35 10q-69 20 -95 39.5t-26 63.5q0 43 36.5 70t96.5 27q122 0 141 -102h-10q-18 92 -131 92q-58 0 -90.5 -24.5t-33.5 -62.5t24 -58t89 -36l37 -11q64 -17 92.5 -36.5
t28.5 -64.5q0 -51 -40 -81t-107 -30q-128 0 -151 116z" />
    <glyph glyph-name="t.sup" horiz-adv-x="180" 
d="M158 308v-9q-10 -2 -18 -2q-41 0 -53 22t-12 73v295h-55v9h55v107h10v-107h73v-9h-73v-295q0 -48 10.5 -66.5t44.5 -18.5q15 0 18 1z" />
    <glyph glyph-name="u.sup" horiz-adv-x="401" 
d="M345 696v-333q0 -41 1 -61h-10v112q-9 -47 -45.5 -85t-98.5 -38q-93 0 -126 78q-14 31 -14 87v240h9v-240q0 -55 15 -84q29 -71 116 -71q68 0 106 50.5t38 121.5v223h9z" />
    <glyph glyph-name="v.sup" horiz-adv-x="332" 
d="M172 302h-11l-147 393h10l84 -225l22 -58l38 -97q32 97 59 163l82 217h9z" />
    <glyph glyph-name="w.sup" horiz-adv-x="536" 
d="M266 695h12l60 -217q3 -11 8 -29.5t7 -26.5l29 -108l52 153l78 228h9q-11 -30 -39.5 -115t-43.5 -126q-40 -115 -52 -152h-10l-105 380l-112 -380h-11l-130 393h9l76 -226q47 -155 51 -155q16 62 42 146l7 25z" />
    <glyph glyph-name="x.sup" horiz-adv-x="330" 
d="M309 695h13l-150 -198l149 -195h-13l-143 188l-143 -188h-13l150 196l-151 197h14l143 -190z" />
    <glyph glyph-name="y.sup" horiz-adv-x="340" 
d="M124 166h-10l53 136q-18 46 -73 184.5t-82 208.5h10l87 -224q13 -37 28 -70q31 -76 35 -86q25 71 44 117l17 45l83 218h10z" />
    <glyph glyph-name="z.sup" horiz-adv-x="358" 
d="M26 302v8l201 253q14 19 44 57t32 41l20 25h-298v9h310v-8l-192 -245l-43 -53q-44 -53 -63 -78h296v-9h-307z" />
    <glyph glyph-name="zero.plf" horiz-adv-x="617" 
d="M308 -4q124 0 176.5 91.5t52.5 268.5q0 82 -11 145t-36.5 113.5t-71 77t-110.5 26.5t-110.5 -26.5t-70.5 -77t-36 -113t-11 -145.5q0 -177 52.5 -268.5t175.5 -91.5zM308 -14q-69 0 -116.5 27.5t-73.5 79.5t-37 115.5t-11 147.5q0 78 10 139t35 116.5t74 86t119 30.5
q239 0 239 -372q0 -84 -11 -147.5t-37 -115.5t-74 -79.5t-117 -27.5z" />
    <glyph glyph-name="one.plf" horiz-adv-x="363" 
d="M239 0v582h-196v9h117q57 0 68 6.5t11 41.5l1 76h9v-715h-10z" />
    <glyph glyph-name="two.plf" horiz-adv-x="562" 
d="M507 0h-454v7q33 27 70 60t90.5 82.5t67.5 62.5q111 101 153.5 170.5t42.5 145.5q0 82 -48 136.5t-145 54.5q-199 0 -210 -208h-10q4 101 59.5 159.5t160.5 58.5q100 0 151.5 -57t51.5 -144q0 -49 -16 -94t-51 -88.5t-61.5 -71t-75.5 -72.5q-164 -154 -213 -192h437v-10z
" />
    <glyph glyph-name="three.plf" horiz-adv-x="574" 
d="M57 196h10q19 -200 219 -200q101 0 159.5 60.5t58.5 143.5q0 91 -65 137t-170 46h-24v10q100 0 163.5 45.5t63.5 126.5q0 66 -47 110t-136 44q-91 0 -141 -46t-55 -124h-10q5 84 59 132t147 48q91 0 142 -44t51 -118q0 -75 -48 -120.5t-128 -55.5v-2q90 -4 149 -52
t59 -137q0 -95 -65.5 -154.5t-162.5 -59.5q-103 0 -162 53t-67 157z" />
    <glyph glyph-name="four.plf" horiz-adv-x="581" 
d="M543 198v-10h-140v-188h-10v188h-361v6l366 522h5v-518h140zM394 693h-2q-3 -5 -31 -45t-70.5 -100.5t-69.5 -100.5l-50 -71q-76 -108 -79 -113l-46 -65h347v172q0 66 0.5 191t0.5 132z" />
    <glyph glyph-name="five.plf" horiz-adv-x="553" 
d="M88 351l37 364h343v-10h-335l-35 -348q69 89 186 89q96 0 155 -59.5t59 -162.5q0 -105 -62 -171.5t-164 -66.5q-96 0 -153.5 52t-68.5 147h10q7 -77 59 -133t153 -56q104 0 160 66.5t56 161.5q0 93 -52.5 153t-151.5 60q-116 0 -183 -90z" />
    <glyph glyph-name="six.plf" horiz-adv-x="591" 
d="M518 531h-10q-6 31 -14 55t-23.5 50t-35.5 43.5t-52 28.5t-72 11q-111 0 -171 -88t-60 -290q0 -74 6 -128h1q-2 100 61 167t163 67q103 0 161 -60.5t58 -165.5q0 -107 -62.5 -171t-165.5 -64q-146 0 -198 124q-34 81 -34 231q0 202 61 295t180 93q171 0 207 -198z
M311 437q-95 0 -155 -61.5t-60 -158.5q0 -102 55 -161.5t151 -59.5q98 0 158 60t60 165q0 97 -54 156.5t-155 59.5z" />
    <glyph glyph-name="seven.plf" horiz-adv-x="506" 
d="M167 0h-11q66 157 159 351q26 54 82.5 174t85.5 180h-443v10h453v-8l-28 -62q-36 -77 -100.5 -212t-112.5 -238.5t-85 -194.5z" />
    <glyph glyph-name="eight.plf" horiz-adv-x="596" 
d="M298 -4q108 0 167.5 51.5t59.5 140.5q0 84 -59 136t-168 52t-168 -52t-59 -136q0 -89 59.5 -140.5t167.5 -51.5zM298 385q91 0 144.5 47.5t53.5 120.5q0 72 -53.5 119t-144.5 47t-144.5 -47t-53.5 -119q0 -73 53.5 -120.5t144.5 -47.5zM298 -14q-111 0 -174 54.5
t-63 147.5q0 79 51.5 133t139.5 60q-73 8 -117.5 56t-44.5 116q0 77 57 126.5t151 49.5t151 -49.5t57 -126.5q0 -68 -44.5 -116t-117.5 -56q88 -6 139.5 -60t51.5 -133q0 -93 -63 -147.5t-174 -54.5z" />
    <glyph glyph-name="nine.plf" horiz-adv-x="591" 
d="M73 184h10q6 -31 14 -55t23.5 -50t35.5 -43.5t52 -28.5t72 -11q111 0 171 88t60 290q0 74 -6 128h-1q2 -100 -61 -167t-163 -67q-103 0 -161 60.5t-58 165.5q0 107 62.5 171t165.5 64q146 0 198 -124q34 -81 34 -231q0 -202 -61 -295t-180 -93q-171 0 -207 198zM280 278
q95 0 155 61.5t60 158.5q0 102 -55 161.5t-151 59.5q-98 0 -158 -60t-60 -165q0 -97 54 -156.5t155 -59.5z" />
    <glyph glyph-name="zero.posf" horiz-adv-x="617" 
d="M308 -4q124 0 176.5 90t52.5 263q0 81 -11 142.5t-36.5 111t-71 75.5t-110.5 26t-110.5 -26t-70.5 -75.5t-36 -111t-11 -142.5q0 -174 52.5 -263.5t175.5 -89.5zM308 -14q-69 0 -116.5 27t-73.5 78t-37 113.5t-11 144.5q0 76 10 136.5t35 114.5t74 84t119 30
q239 0 239 -365q0 -82 -11 -144.5t-37 -113.5t-74 -78t-117 -27z" />
    <glyph glyph-name="one.posf" horiz-adv-x="364" 
d="M240 0v571h-196v8h117q56 0 67.5 6.5t11.5 40.5l1 75h9v-701h-10z" />
    <glyph glyph-name="two.posf" horiz-adv-x="563" 
d="M508 0h-454v7q33 26 71.5 60.5t87 78.5t69.5 62q110 99 153 167.5t43 142.5q0 81 -48 134t-145 53q-199 0 -210 -204h-10q4 99 59.5 156.5t160.5 57.5q100 0 151.5 -56t51.5 -141q0 -48 -16.5 -92.5t-50.5 -87t-62 -70.5t-75 -70q-177 -160 -213 -188h437v-10z" />
    <glyph glyph-name="three.posf" horiz-adv-x="575" 
d="M57 192h10q19 -196 219 -196q101 0 159.5 59.5t58.5 140.5q0 89 -65 134t-170 45h-24v10q99 0 163 45t64 124q0 65 -47 108t-136 43q-91 0 -140.5 -45t-55.5 -122h-10q5 82 59 129.5t147 47.5q91 0 142 -43t51 -116q0 -74 -48 -118.5t-128 -54.5v-2q90 -4 149 -50.5
t59 -134.5q0 -93 -65.5 -151.5t-162.5 -58.5q-103 0 -162 52.5t-67 153.5z" />
    <glyph glyph-name="four.posf" horiz-adv-x="583" 
d="M544 194v-10h-140v-184h-10v184h-361v6l366 512h5v-508h140zM395 679h-2q-5 -8 -171 -241l-50 -69q-7 -10 -35 -50.5t-44 -61.5l-46 -63h347v169q0 64 0.5 187t0.5 129z" />
    <glyph glyph-name="five.posf" horiz-adv-x="554" 
d="M88 344l37 357h343v-10h-335l-35 -341q71 87 186 87q96 0 155 -57.5t59 -159.5q0 -103 -62 -168.5t-164 -65.5q-96 0 -153.5 51t-68.5 144h10q7 -75 59 -130t153 -55q104 0 160 65.5t56 158.5q0 91 -52 149.5t-152 58.5q-115 0 -183 -88z" />
    <glyph glyph-name="six.posf" horiz-adv-x="592" 
d="M518 521h-10q-8 38 -19.5 66.5t-33 57.5t-58 44.5t-86.5 15.5q-73 0 -122.5 -34t-79 -118t-29.5 -219q0 -75 6 -125h1q-2 98 61 163.5t163 65.5q103 0 161 -59t58 -162q0 -106 -62.5 -168.5t-165.5 -62.5q-146 0 -198 122q-34 78 -34 226q0 197 61 289t180 92
q92 0 140.5 -50.5t66.5 -143.5zM311 428q-95 0 -155 -60.5t-60 -154.5q0 -100 55 -158.5t151 -58.5q98 0 158 59t60 162q0 95 -54.5 153t-154.5 58z" />
    <glyph glyph-name="seven.posf" horiz-adv-x="517" 
d="M174 0h-11q62 146 159 344q28 57 84.5 174.5t83.5 172.5h-443v10h453v-8l-28 -61q-33 -69 -100 -205.5t-113.5 -236.5t-84.5 -190z" />
    <glyph glyph-name="eight.posf" horiz-adv-x="596" 
d="M298 -4q107 0 167 51t60 137q0 83 -59 134t-168 51t-168 -51t-59 -134q0 -86 60 -137t167 -51zM298 377q91 0 144.5 47t53.5 118t-53.5 117t-144.5 46t-144.5 -46t-53.5 -117t53.5 -118t144.5 -47zM298 -14q-111 0 -174 53.5t-63 144.5q0 77 51.5 130.5t139.5 59.5
q-74 8 -118 54.5t-44 113.5q0 76 57 124.5t151 48.5t151 -48.5t57 -124.5q0 -67 -44 -113.5t-118 -54.5q88 -6 139.5 -59.5t51.5 -130.5q0 -91 -63 -144.5t-174 -53.5z" />
    <glyph glyph-name="nine.posf" horiz-adv-x="592" 
d="M74 180h10q8 -38 19.5 -66.5t33 -57.5t58 -44.5t86.5 -15.5q73 0 122.5 34t79 118t29.5 219q0 75 -6 125h-1q2 -99 -60.5 -164t-163.5 -65q-103 0 -161 59t-58 162q0 106 62.5 168.5t165.5 62.5q146 0 198 -122q34 -78 34 -226q0 -197 -61 -289t-180 -92
q-92 0 -140.5 50.5t-66.5 143.5zM281 273q95 0 155 60.5t60 154.5q0 100 -55 158.5t-151 58.5q-98 0 -158 -59t-60 -162q0 -95 54 -153t155 -58z" />
    </font>
</defs>
</svg>
