<?xml version="1.0" standalone="no"?>
<!DOCTYPE svg PUBLIC "-//W3C//DTD SVG 1.1//EN" "http://www.w3.org/Graphics/SVG/1.1/DTD/svg11.dtd" >
<svg>
<metadata>
Created by FontForge 20120731 at Tue Dec 15 21:07:57 2015
 By ,,,
(c)2013 Optimo. wf-rip
</metadata>
<defs>
<font id="Plain-Regular" horiz-adv-x="575" >
  <font-face 
    font-family="Plain"
    font-weight="400"
    font-stretch="normal"
    units-per-em="1000"
    panose-1="2 11 0 4 2 2 2 2 2 4"
    ascent="803"
    descent="-197"
    x-height="525"
    cap-height="715"
    bbox="-58 -271 1273 1077"
    underline-thickness="50"
    underline-position="-50"
    unicode-range="U+000D-FB02"
  />
<missing-glyph horiz-adv-x="644" 
d="M50 240v49l309 309q14 -8 26 -23zM50 142v49l347 347v-15q0 -20 -13.5 -37.5t-41.5 -39.5t-37 -31q-23 -23 -36 -54zM104 0h-49l261 261h49l-93 -93h-23v-23zM321 168l273 273v-49l-224 -224h-49zM50 338v49l148 148l39 -2q0 29 20 52t55 23h8zM398 0h-49l33 33h2v2
l210 210v-49zM384 133l210 210v-49l-210 -210v49zM50 44v49l206 206v-38h11zM50 583l196 196h49l-44 -44q-54 -14 -93 -53.5t-54 -93.5l-54 -54v49zM537 482l57 57v-49l-216 -216v7q0 12 2.5 21t11 18.5t12.5 13.5t21 16t23 16q1 1 10 7.5t14 10.5t14.5 12.5t15.5 16.5
t13.5 18.5t13 23.5t8.5 27zM50 681l98 98h49l-147 -147v49zM496 0h-49l147 147v-49zM459 698l81 81h49l-104 -104q-25 22 -26 23zM50 436v49l56 56l46 -3zM506 647l88 88v-49l-70 -70q-6 13 -18 31zM202 0h-49l96 96v-49zM395 732l47 47h49l-62 -62q-15 8 -34 15zM536 579
l58 58v-49l-52 -52q0 13 -6 43zM307 742l37 37h49l-38 -38q-18 2 -28 2q-2 0 -6.5 -0.5t-6.5 -0.5h-7zM300 0h-49l33 33h49zM594 49v-49h-49zM50 779h49l-49 -49v49z" />
    <glyph glyph-name="fi" unicode="fi" horiz-adv-x="541" 
d="M94 0v447h-70v78h70v37q0 74 39 117t112 43q19 0 38 -3v-82q-16 2 -23 2q-65 0 -65 -59v-55h88v-78h-88v-447h-101zM367 525h101v-525h-101v525zM365 601v114h105v-114h-105z" />
    <glyph glyph-name="fl" unicode="fl" horiz-adv-x="543" 
d="M94 0v447h-70v78h70v37q0 74 39 117t112 43q19 0 38 -3v-82q-16 2 -23 2q-65 0 -65 -59v-55h88v-78h-88v-447h-101zM365 0v715h101v-715h-101z" />
    <glyph glyph-name=".notdef" horiz-adv-x="644" 
d="M50 240v49l309 309q14 -8 26 -23zM50 142v49l347 347v-15q0 -20 -13.5 -37.5t-41.5 -39.5t-37 -31q-23 -23 -36 -54zM104 0h-49l261 261h49l-93 -93h-23v-23zM321 168l273 273v-49l-224 -224h-49zM50 338v49l148 148l39 -2q0 29 20 52t55 23h8zM398 0h-49l33 33h2v2
l210 210v-49zM384 133l210 210v-49l-210 -210v49zM50 44v49l206 206v-38h11zM50 583l196 196h49l-44 -44q-54 -14 -93 -53.5t-54 -93.5l-54 -54v49zM537 482l57 57v-49l-216 -216v7q0 12 2.5 21t11 18.5t12.5 13.5t21 16t23 16q1 1 10 7.5t14 10.5t14.5 12.5t15.5 16.5
t13.5 18.5t13 23.5t8.5 27zM50 681l98 98h49l-147 -147v49zM496 0h-49l147 147v-49zM459 698l81 81h49l-104 -104q-25 22 -26 23zM50 436v49l56 56l46 -3zM506 647l88 88v-49l-70 -70q-6 13 -18 31zM202 0h-49l96 96v-49zM395 732l47 47h49l-62 -62q-15 8 -34 15zM536 579
l58 58v-49l-52 -52q0 13 -6 43zM307 742l37 37h49l-38 -38q-18 2 -28 2q-2 0 -6.5 -0.5t-6.5 -0.5h-7zM300 0h-49l33 33h49zM594 49v-49h-49zM50 779h49l-49 -49v49z" />
    <glyph glyph-name=".null" horiz-adv-x="0" 
 />
    <glyph glyph-name="nonmarkingreturn" horiz-adv-x="333" 
 />
    <glyph glyph-name="NULL" horiz-adv-x="0" 
 />
    <glyph glyph-name="NULL" horiz-adv-x="0" 
 />
    <glyph glyph-name="CR" unicode="&#xd;" horiz-adv-x="0" 
 />
    <glyph glyph-name="space" unicode=" " horiz-adv-x="252" 
 />
    <glyph glyph-name="exclam" unicode="!" horiz-adv-x="284" 
d="M179 186h-74q-14 350 -14 421v108h102v-108q0 -71 -14 -421zM90 0v120h103v-120h-103z" />
    <glyph glyph-name="quotedbl" unicode="&#x22;" horiz-adv-x="381" 
d="M149 451h-74q0 5 -6.5 122t-6.5 142h100q0 -25 -6.5 -142t-6.5 -122zM306 451h-74q0 5 -6.5 122t-6.5 142h100q0 -25 -6.5 -142t-6.5 -122z" />
    <glyph glyph-name="numbersign" unicode="#" 
d="M290 0l47 228h-148l-47 -228h-59l47 228h-107l11 56h107l33 158h-108l11 56h108l45 217h59l-45 -217h148l45 217h59l-45 -217h100l-11 -56h-100l-33 -158h101l-11 -56h-101l-47 -228h-59zM233 442l-33 -158h148l33 158h-148z" />
    <glyph glyph-name="dollar" unicode="$" 
d="M35 206h102q11 -58 49 -93.5t106 -35.5q66 0 103 31t37 85q0 22 -8 40t-19 29.5t-32.5 22.5t-37 16.5t-44.5 14.5l-42 14q-97 32 -144 77t-47 123q0 74 48 124.5t131 64.5v109h100v-108q83 -12 129.5 -62.5t55.5 -130.5h-102q-19 110 -133 110q-57 0 -90 -26.5t-33 -71.5
q0 -49 33 -73.5t101 -46.5l46 -15q48 -16 78 -30t59 -36.5t42.5 -55t13.5 -76.5q0 -84 -54.5 -141t-145.5 -69v-114h-100v115q-90 12 -142.5 66.5t-59.5 142.5z" />
    <glyph glyph-name="percent" unicode="%" horiz-adv-x="900" 
d="M199 330q-80 0 -122.5 52.5t-42.5 146.5q0 92 42 144.5t122 52.5t122.5 -53t42.5 -145q0 -94 -42 -146t-122 -52zM115 527q0 -133 83 -133q84 0 84 133q0 66 -18.5 101t-65.5 35t-65 -35t-18 -101zM278 0l274 714h71q-53 -141 -150.5 -395t-122.5 -319h-72zM703 -15
q-81 0 -123.5 52t-42.5 146q0 93 42.5 145.5t122.5 52.5q79 0 121.5 -53.5t42.5 -145.5q0 -94 -41.5 -145.5t-121.5 -51.5zM618 181q0 -133 84 -133t84 133q0 136 -84 136q-48 0 -66 -35t-18 -101z" />
    <glyph glyph-name="ampersand" unicode="&#x26;" horiz-adv-x="681" 
d="M546 384l102 -8q-47 -124 -99 -201l111 -119l-79 -66q-15 15 -90 99q-88 -103 -207 -103q-107 0 -170 58.5t-63 150.5q0 129 164 214q-77 83 -77 158q0 71 51 118t133 47q77 0 126.5 -44.5t49.5 -111.5q0 -113 -140 -185q5 -6 127 -146q36 70 61 139zM302 453l17 9
q80 42 80 107q0 36 -22.5 57t-58.5 21q-35 0 -57 -21.5t-22 -56.5q0 -53 63 -116zM429 158q-119 135 -157 182q-110 -56 -110 -143q0 -55 35.5 -88t90.5 -33q80 0 141 82z" />
    <glyph glyph-name="quotesingle" unicode="'" horiz-adv-x="224" 
d="M149 451h-74q0 5 -6.5 122t-6.5 142h100q0 -25 -6.5 -142t-6.5 -122z" />
    <glyph glyph-name="parenleft" unicode="(" horiz-adv-x="321" 
d="M40 298q0 150 67 278t177 183v-100q-141 -144 -141 -360q0 -211 141 -354v-101q-109 54 -176.5 180.5t-67.5 273.5z" />
    <glyph glyph-name="parenright" unicode=")" horiz-adv-x="320" 
d="M280 298q0 -147 -67.5 -273.5t-176.5 -180.5v101q141 143 141 354q0 216 -141 360v100q110 -56 177 -183.5t67 -277.5z" />
    <glyph glyph-name="asterisk" unicode="*" horiz-adv-x="447" 
d="M266 715l-12 -137l125 55l26 -80l-134 -32l91 -101l-68 -50l-71 117l-69 -117l-69 49l90 103l-133 30l26 81l125 -54l-12 136h85z" />
    <glyph glyph-name="plus" unicode="+" 
d="M66 278v87h177v185h87v-185h178v-87h-178v-186h-87v186h-177z" />
    <glyph glyph-name="comma" unicode="," horiz-adv-x="255" 
d="M191 120l-85 -241h-87l68 241h104z" />
    <glyph glyph-name="hyphen" unicode="-" horiz-adv-x="400" 
d="M64 251v85h272v-85h-272z" />
    <glyph glyph-name="period" unicode="." horiz-adv-x="235" 
d="M64 0v120h107v-120h-107z" />
    <glyph glyph-name="slash" unicode="/" horiz-adv-x="433" 
d="M25 -105l290 820h94l-288 -820h-96z" />
    <glyph glyph-name="zero" unicode="0" 
d="M287 729q253 0 253 -373q0 -84 -12 -148t-39.5 -116t-78 -79.5t-123.5 -27.5t-123.5 27.5t-78 79.5t-39 115.5t-11.5 148.5q0 373 252 373zM287 644q-42 0 -70 -22t-42.5 -64t-20.5 -90t-6 -112q0 -67 6.5 -116.5t21.5 -89.5t43 -60.5t68 -20.5q41 0 69 20.5t43 60.5
t21 89.5t6 116.5q0 64 -5.5 112t-20 90t-43 64t-70.5 22z" />
    <glyph glyph-name="one" unicode="1" 
d="M285 0v453v22.5v27v23.5q-14 -1 -41 -1h-130v76q93 2 136 28t51 86h88v-715h-104z" />
    <glyph glyph-name="two" unicode="2" 
d="M522 0h-467v90q0 5 52 52l166 150q71 64 102 114.5t31 106.5q0 55 -32.5 88.5t-88.5 33.5q-127 0 -132 -149h-106q2 111 64 177t174 66q111 0 172.5 -60t61.5 -156q0 -141 -181 -292l-56 -47q-9 -7 -32 -25.5t-40.5 -33t-28.5 -25.5h341v-90z" />
    <glyph glyph-name="three" unicode="3" 
d="M34 207h110q6 -63 41.5 -96.5t97.5 -33.5q61 0 96.5 38t35.5 96q0 66 -42.5 98.5t-112.5 32.5h-23v87q146 0 146 109q0 48 -29.5 73t-72.5 25q-48 0 -76 -26t-32 -74h-105q2 87 60 140t156 53q96 0 153.5 -48.5t57.5 -128.5q0 -115 -114 -160q151 -38 151 -185
q0 -99 -69 -160t-182 -61q-111 0 -174.5 57.5t-72.5 163.5z" />
    <glyph glyph-name="four" unicode="4" 
d="M549 241v-83h-100v-158h-100v158h-334v77l221 318q16 23 43.5 64.5t46 68.5t20.5 29h103v-474h100zM349 241v58v135q0 42 2 92.5t2 58.5h-2l-97 -154l-70 -101l-22 -32q-5 -8 -12 -17.5t-11.5 -16t-8.5 -12t-5.5 -8.5t-0.5 -3h225z" />
    <glyph glyph-name="five" unicode="5" 
d="M165 311l-100 16q8 68 22 197.5t21 190.5h376v-92h-290l-24 -198q58 45 140 45q100 0 162 -65.5t62 -170.5q0 -108 -69 -178.5t-179 -70.5q-105 0 -169.5 54.5t-78.5 156.5h111q7 -51 38.5 -86t95.5 -35q66 0 102.5 42.5t36.5 112.5q0 64 -36.5 107.5t-98.5 43.5
q-88 0 -122 -70z" />
    <glyph glyph-name="six" unicode="6" 
d="M534 531h-112q-18 113 -120 113q-62 0 -102.5 -52t-52.5 -138q-6 -34 -8 -83q56 90 179 90q101 0 162.5 -63.5t61.5 -168.5q0 -110 -68.5 -176.5t-179.5 -66.5q-259 0 -259 342q0 193 67 297t201 104q102 0 159 -53t72 -145zM288 378q-65 0 -103 -42t-38 -112
q0 -71 37.5 -113t104.5 -42q65 0 102.5 42.5t37.5 110.5q0 71 -37 113.5t-104 42.5z" />
    <glyph glyph-name="seven" unicode="7" 
d="M248 0h-116q33 86 151 350q67 151 131 272q-10 -1 -29 -1h-314v94h448v-86l-24 -50q-149 -304 -247 -579z" />
    <glyph glyph-name="eight" unicode="8" 
d="M176 386v2q-43 17 -75.5 56.5t-32.5 103.5q0 79 58.5 130t161.5 51t161.5 -51t58.5 -130q0 -64 -32.5 -103.5t-75.5 -56.5v-2q70 -27 104 -73t34 -118q0 -96 -67 -153t-183 -57q-117 0 -184 57.5t-67 153.5q0 138 139 190zM288 336q-68 0 -106 -35.5t-38 -96.5
q0 -59 38 -95t106 -36q67 0 105 36.5t38 94.5q0 60 -38.5 96t-104.5 36zM288 636q-54 0 -85.5 -28t-31.5 -76q0 -46 32 -75t85 -29q54 0 86 29t32 76q0 46 -32.5 74.5t-85.5 28.5z" />
    <glyph glyph-name="nine" unicode="9" 
d="M40 184h112q4 -46 33 -79.5t87 -33.5q122 0 155 189q2 16 4.5 45.5t3.5 37.5h-1q-20 -33 -65 -59t-113 -26q-101 0 -162 62.5t-61 167.5q0 108 68.5 174.5t179.5 66.5q258 0 258 -342q0 -401 -268 -401q-100 0 -158 53t-73 145zM286 646q-65 0 -103 -41.5t-38 -109.5
q0 -70 38 -112t103 -42t103.5 41.5t38.5 110.5q0 70 -38 111.5t-104 41.5z" />
    <glyph glyph-name="colon" unicode=":" horiz-adv-x="235" 
d="M64 0v120h107v-120h-107zM64 372v121h107v-121h-107z" />
    <glyph glyph-name="semicolon" unicode=";" horiz-adv-x="277" 
d="M90 372v121h107v-121h-107zM205 120l-85 -241h-87l68 241h104z" />
    <glyph glyph-name="less" unicode="&#x3c;" 
d="M473 574v-102l-299 -145v-3q16 -7 69 -33t123 -60.5t107 -52.5v-106q-67 36 -198.5 104t-198.5 104v84q153 82 397 210z" />
    <glyph glyph-name="equal" unicode="=" 
d="M65 450h445v-85h-445v85zM65 287h445v-85h-445v85z" />
    <glyph glyph-name="greater" unicode="&#x3e;" 
d="M102 472v102q153 -81 397 -210v-84q-59 -32 -192 -100.5t-205 -107.5v106q34 16 105.5 52t123.5 61.5t70 32.5v3q-6 2 -16 7t-26 13.5t-29 14.5z" />
    <glyph glyph-name="question" unicode="?" horiz-adv-x="517" 
d="M301 0h-103v119h103v-119zM300 198h-96q0 76 15 113t60 76q34 30 47 43t29.5 43t16.5 63q0 47 -29.5 74t-83.5 27q-114 0 -119 -131h-106q0 102 61.5 162.5t166.5 60.5q102 0 160 -53.5t58 -137.5q0 -103 -106 -189q-39 -33 -56.5 -65t-17.5 -86z" />
    <glyph glyph-name="at" unicode="@" horiz-adv-x="827" 
d="M553 537h83l-51 -289q-1 -3 -1 -10q0 -27 29 -27q44 0 77 57.5t33 137.5q0 116 -78.5 191t-210.5 75q-140 0 -230 -92t-90 -229q0 -143 93 -230.5t238 -87.5q129 0 226 78l52 -29q-120 -108 -283 -108q-174 0 -284.5 105t-110.5 272q0 161 110 270.5t279 109.5
q152 0 252.5 -88.5t100.5 -224.5q0 -117 -59 -191.5t-148 -74.5q-67 0 -81 41q-13 -15 -45.5 -30t-73.5 -15q-73 0 -116 45t-43 125q0 92 55.5 160t144.5 68q88 0 125 -55l3 21zM431 474q-58 0 -89.5 -46.5t-31.5 -109.5q0 -47 24 -75t68 -28q60 0 92 46.5t32 109.5
q0 103 -95 103z" />
    <glyph glyph-name="A" unicode="A" horiz-adv-x="697" 
d="M104 0h-108q48 120 145 357.5t145 357.5h127l285 -715h-111l-86 216h-313zM347 619h-2q-24 -58 -65 -165.5t-58 -150.5h245q-11 27 -29.5 77.5t-48.5 127.5q-6 15 -21.5 55.5t-20.5 55.5z" />
    <glyph glyph-name="B" unicode="B" horiz-adv-x="640" 
d="M87 0v715h214q133 0 199 -41t66 -134q0 -125 -105 -163q135 -38 135 -173q0 -204 -282 -204h-227zM191 323v-235h148q67 0 107.5 28t40.5 90q0 63 -43.5 90t-125.5 27h-127zM191 626v-217h116q75 0 110.5 25.5t35.5 85.5q0 66 -43.5 86t-136.5 20h-82z" />
    <glyph glyph-name="C" unicode="C" horiz-adv-x="756" 
d="M615 209h110q-38 -105 -121.5 -164t-207.5 -59q-156 0 -254.5 103.5t-98.5 268.5t99.5 268t258.5 103q125 0 208 -59.5t117 -171.5h-108q-62 142 -218 142q-114 0 -178.5 -77t-64.5 -204t65 -206t179 -79q150 0 214 135z" />
    <glyph glyph-name="D" unicode="D" horiz-adv-x="724" 
d="M87 0v715h195q198 0 297.5 -91.5t99.5 -267.5q0 -76 -21.5 -139t-65.5 -112.5t-119 -77t-174 -27.5h-212zM193 624v-535h81q146 0 218.5 62t72.5 205q0 132 -72.5 200.5t-208.5 68.5q-10 0 -30 -0.5t-29 -0.5h-32z" />
    <glyph glyph-name="E" unicode="E" horiz-adv-x="587" 
d="M87 0v715h448v-92h-342v-212h318v-91h-318v-229h349v-91h-455z" />
    <glyph glyph-name="F" unicode="F" horiz-adv-x="569" 
d="M87 0v715h438v-92h-332v-211h308v-92h-308v-320h-106z" />
    <glyph glyph-name="G" unicode="G" horiz-adv-x="784" 
d="M371 378h355v-378h-96v36q0 35 1 54q-88 -106 -240 -106q-153 0 -250.5 102t-97.5 270q0 163 99 268t261 105q129 0 211.5 -62.5t111.5 -165.5h-109q-59 139 -215 139q-112 0 -178.5 -75t-66.5 -208q0 -130 66 -207.5t177 -77.5q56 0 100 19t71.5 50.5t42.5 68.5t18 77
h-261v91z" />
    <glyph glyph-name="H" unicode="H" horiz-adv-x="715" 
d="M192 0h-105v715h105v-303h332v303h104v-715h-104v323h-332v-323z" />
    <glyph glyph-name="I" unicode="I" horiz-adv-x="279" 
d="M87 0v715h105v-715h-105z" />
    <glyph glyph-name="J" unicode="J" horiz-adv-x="490" 
d="M25 173h100q0 -105 86 -105q30 0 49.5 12.5t28.5 38.5t12 53t3 67v476h105v-503q0 -104 -46 -165t-148 -61q-187 0 -190 187z" />
    <glyph glyph-name="K" unicode="K" horiz-adv-x="605" 
d="M87 0v715h104v-325l286 325h129l-303 -327q52 -67 158 -197t154 -191h-133q-52 69 -151.5 190.5t-139.5 173.5v-364h-104z" />
    <glyph glyph-name="L" unicode="L" horiz-adv-x="534" 
d="M87 0v715h106v-624h314v-91h-420z" />
    <glyph glyph-name="M" unicode="M" horiz-adv-x="889" 
d="M87 0v715h170l127 -391l30 -95l16 -53l15 -48h1l16 50l18 56l17 53l15 44l126 384h164v-715h-102v369v62l1 69q2 94 2 119h-1q-7 -27 -77 -242l-127 -377h-111l-151 449q-16 47 -49 170h-1q2 -118 2 -240v-379h-101z" />
    <glyph glyph-name="N" unicode="N" horiz-adv-x="749" 
d="M87 0v715h140l243 -418l89 -155l1 1q0 17 -1 87t-1 108v377h104v-715h-136l-237 402q-95 166 -98 172h-1v-48q0 -21 0.5 -71.5t0.5 -76.5v-378h-104z" />
    <glyph glyph-name="O" unicode="O" horiz-adv-x="806" 
d="M402 729q162 0 261.5 -103t99.5 -269t-99 -268.5t-261 -102.5t-261 102.5t-99 268.5t99.5 269t259.5 103zM401 640q-114 0 -179.5 -78t-65.5 -204q0 -125 66.5 -204.5t179.5 -79.5t179.5 79t66.5 205t-66 204t-181 78z" />
    <glyph glyph-name="P" unicode="P" horiz-adv-x="602" 
d="M87 0v715h193q71 0 111 -7t81 -28q46 -25 71.5 -72t25.5 -107q0 -122 -88 -179q-38 -25 -84.5 -33t-117.5 -8h-87v-281h-105zM192 622v-250h111q71 0 113 31t42 97q0 64 -40 94t-122 29z" />
    <glyph glyph-name="Q" unicode="Q" horiz-adv-x="806" 
d="M762 -50h-127q-13 13 -37.5 36.5t-33.5 32.5q-78 -33 -161 -33q-162 0 -261 102.5t-99 268.5t99.5 269t259.5 103q162 0 261.5 -103t99.5 -269q0 -182 -119 -287zM359 218h134q8 -10 78 -76q77 80 77 215q0 128 -66 205.5t-181 77.5q-114 0 -179.5 -78t-65.5 -204
t66.5 -205.5t179.5 -79.5q49 0 89 15q-33 33 -75.5 73.5t-56.5 56.5z" />
    <glyph glyph-name="R" unicode="R" horiz-adv-x="619" 
d="M87 0v715h216q128 0 188 -41q85 -56 85 -168q0 -88 -48 -137.5t-125 -65.5q90 -146 183 -303h-126q-8 15 -166 287h-102v-287h-105zM192 622v-244h110q160 0 160 124q0 121 -160 121h-57q-36 0 -53 -1z" />
    <glyph glyph-name="S" unicode="S" horiz-adv-x="611" 
d="M36 203h107q23 -133 165 -133q70 0 110.5 32.5t40.5 87.5q0 19 -4 34t-16 27t-20.5 19.5t-31 16.5t-33 12.5l-40.5 13.5l-47 15q-105 33 -157 78.5t-52 126.5q0 87 68.5 142t179.5 55q112 0 175.5 -53t73.5 -147h-108q-19 113 -144 113q-62 0 -97 -27.5t-35 -73.5
q0 -50 34.5 -74.5t106.5 -46.5l50 -15q105 -31 156.5 -75.5t51.5 -127.5q0 -98 -73 -157.5t-190 -59.5q-121 0 -192.5 57t-78.5 160z" />
    <glyph glyph-name="T" unicode="T" horiz-adv-x="545" 
d="M220 0v623h-194v92h493v-92h-194v-623h-105z" />
    <glyph glyph-name="U" unicode="U" horiz-adv-x="688" 
d="M185 715v-434q0 -95 22 -137q17 -33 53.5 -52t82.5 -19t83.5 19t54.5 52q22 41 22 137v434h105v-437q0 -130 -47 -195q-33 -45 -91 -70t-127 -25t-126 24.5t-89 68.5q-29 41 -38.5 84.5t-9.5 112.5v437h105z" />
    <glyph glyph-name="V" unicode="V" horiz-adv-x="668" 
d="M397 0h-127q-27 70 -260 715h117l140 -403q44 -126 69 -203h2q13 40 40 115.5t33 93.5l140 397h111z" />
    <glyph glyph-name="W" unicode="W" horiz-adv-x="930" 
d="M333 0h-153l-153 715h114q9 -47 25.5 -128t30 -148.5t24.5 -128.5q35 -189 38 -206h3q6 37 12 66.5t16.5 71.5t16.5 67l93 406h143l106 -475q8 -35 26 -136h2q10 48 11 53l10 50q4 19 11.5 58t9.5 51l79 399h108q-18 -83 -73.5 -330.5t-85.5 -384.5h-149l-95 433
q-9 37 -20.5 102.5t-13.5 74.5h-2q-6 -37 -30 -147z" />
    <glyph glyph-name="X" unicode="X" horiz-adv-x="630" 
d="M112 0h-114q175 247 257 366q-92 130 -240 349h118q28 -42 72.5 -108.5t74.5 -111t35 -52.5q31 51 99.5 151.5t81.5 120.5h115q-37 -54 -118.5 -169.5t-119.5 -171.5l261 -374h-125q-35 49 -103.5 152t-93.5 146q-90 -138 -200 -298z" />
    <glyph glyph-name="Y" unicode="Y" horiz-adv-x="594" 
d="M244 0v277q-40 74 -119.5 219t-119.5 219h119q52 -99 122 -234l55 -104q5 10 18 34t54.5 102.5t105.5 201.5h112q-43 -80 -125.5 -227t-117.5 -211v-277h-104z" />
    <glyph glyph-name="Z" unicode="Z" horiz-adv-x="578" 
d="M35 0v84q9 13 40.5 60.5t47.5 70.5l231 327q8 11 55 81h-361v92h485v-86l-22 -34q-21 -29 -53 -79l-237 -340q-11 -14 -25.5 -35t-17.5 -26q-4 -5 -10.5 -14t-6.5 -10h380v-91h-506z" />
    <glyph glyph-name="bracketleft" unicode="[" horiz-adv-x="336" 
d="M302 717v-67h-86q-18 0 -27 1v-702q9 1 27 1h86v-67h-210v834h210z" />
    <glyph glyph-name="backslash" unicode="\" horiz-adv-x="434" 
d="M25 717h95l289 -816h-97z" />
    <glyph glyph-name="bracketright" unicode="]" horiz-adv-x="336" 
d="M34 717h210v-834h-210v67h85q19 0 28 -1v702q-9 -1 -28 -1h-85v67z" />
    <glyph glyph-name="asciicircum" unicode="^" 
d="M545 292h-104q-150 306 -151 309h-3l-38 -73q-22 -41 -64 -130t-51 -106h-104q26 48 206 395h103q10 -18 86.5 -167t119.5 -228z" />
    <glyph glyph-name="underscore" unicode="_" horiz-adv-x="605" 
d="M64 -77h477v-72h-477v72z" />
    <glyph glyph-name="grave" unicode="`" horiz-adv-x="408" 
d="M60 717h133q56 -61 113 -119h-106z" />
    <glyph glyph-name="a" unicode="a" horiz-adv-x="557" 
d="M503 0h-95q-4 27 -5 72q-58 -82 -177 -82q-85 0 -137.5 40t-52.5 112q0 41 18.5 71t54 49t77 30t98.5 19q48 7 108 12q0 75 -28.5 105.5t-84.5 30.5q-108 0 -119 -98h-99q4 83 64.5 130.5t155.5 47.5q46 0 80.5 -9.5t65.5 -34t47 -74.5t16 -124v-102q0 -126 13 -195z
M394 250q-138 -13 -193.5 -34.5t-55.5 -72.5q0 -37 28 -58.5t76 -21.5q71 0 107.5 40.5t36.5 118.5v16q0 9 1 12z" />
    <glyph glyph-name="b" unicode="b" horiz-adv-x="630" 
d="M73 0v715h102v-205q0 -33 -1 -52q60 83 171 83q110 0 177.5 -78t67.5 -199q0 -123 -68 -199.5t-176 -76.5q-121 0 -178 86v-74h-95zM325 456q-72 0 -114 -54t-42 -139q0 -88 41.5 -140t115.5 -52q73 0 114 51.5t41 140.5q0 86 -41.5 139.5t-114.5 53.5z" />
    <glyph glyph-name="c" unicode="c" horiz-adv-x="584" 
d="M444 168h105q-21 -82 -83.5 -131.5t-158.5 -49.5q-122 0 -194.5 78t-72.5 199q0 120 73.5 197.5t194.5 77.5q99 0 161 -50.5t81 -136.5h-104q-17 49 -54 76t-88 27q-73 0 -115 -53.5t-42 -138.5q0 -89 41.5 -140.5t115.5 -51.5q103 0 140 97z" />
    <glyph glyph-name="d" unicode="d" horiz-adv-x="629" 
d="M556 0h-94v74q-57 -86 -178 -86q-108 0 -176 76.5t-68 199.5q0 121 67.5 199t179.5 78q57 0 101 -24t68 -60q-1 19 -1 52v206h101v-715zM305 456q-73 0 -114.5 -53.5t-41.5 -139.5q0 -89 41 -140.5t114 -51.5q74 0 115 52t41 140q0 86 -41.5 139.5t-113.5 53.5z" />
    <glyph glyph-name="e" unicode="e" horiz-adv-x="588" 
d="M553 236h-411q2 -71 47 -118t118 -47q87 0 134 79h101q-22 -74 -85 -118.5t-154 -44.5q-121 0 -192 74.5t-71 198.5t73 202t190 78q121 0 185.5 -78.5t64.5 -192.5v-33zM146 316h302q-7 65 -45 103.5t-102 38.5q-63 0 -105 -38t-50 -104z" />
    <glyph glyph-name="f" unicode="f" horiz-adv-x="301" 
d="M94 0v447h-70v78h70v37q0 74 39 117t112 43q19 0 38 -3v-82q-16 2 -23 2q-65 0 -65 -59v-55h88v-78h-88v-447h-101z" />
    <glyph glyph-name="g" unicode="g" horiz-adv-x="631" 
d="M559 525v-424q0 -293 -263 -293q-96 0 -156 46t-82 127h106q36 -91 134 -91q88 0 125.5 53t37.5 164l-2 1q-51 -85 -176 -85q-110 0 -176 71.5t-66 185.5q0 116 68 188.5t175 72.5q117 0 176 -82q-1 5 -1 16v50h100zM306 456q-72 0 -113.5 -47t-41.5 -128
q0 -78 41.5 -126.5t113.5 -48.5q69 0 112.5 47t43.5 131q0 78 -42 125t-114 47z" />
    <glyph glyph-name="h" unicode="h" horiz-adv-x="590" 
d="M73 715h101v-190q0 -13 -0.5 -36.5t-0.5 -32.5q17 33 60 58.5t106 25.5q89 0 136.5 -56.5t47.5 -157.5v-326h-102v284q0 170 -117 170q-59 0 -94.5 -43t-35.5 -105v-306h-101v715z" />
    <glyph glyph-name="i" unicode="i" horiz-adv-x="247" 
d="M73 525h101v-525h-101v525zM71 601v114h105v-114h-105z" />
    <glyph glyph-name="j" unicode="j" horiz-adv-x="248" 
d="M73 525h102v-566q0 -95 -37 -125.5t-113 -30.5q-32 0 -49 4v76q2 -2 23 -2q39 0 56.5 14.5t17.5 60.5v569zM71 601v114h106v-114h-106z" />
    <glyph glyph-name="k" unicode="k" horiz-adv-x="521" 
d="M73 0v715h102v-423l54 64l142 169h125l-217 -236l38 -47l63 -75l140 -167h-135q-53 64 -129 161l-81 103v-264h-102z" />
    <glyph glyph-name="l" unicode="l" horiz-adv-x="255" 
d="M77 0v715h101v-715h-101z" />
    <glyph glyph-name="m" unicode="m" horiz-adv-x="927" 
d="M172 525v-71q52 86 165 86q116 0 158 -97q30 43 71 70t110 27q92 0 138 -56.5t46 -160.5v-323h-102v283q0 171 -114 171q-59 0 -93 -43.5t-34 -108.5v-302h-102v283q0 84 -26.5 127.5t-87.5 43.5q-59 0 -93 -43.5t-34 -109.5v-301h-101v484q0 27 -1 41h100z" />
    <glyph glyph-name="n" unicode="n" horiz-adv-x="590" 
d="M172 525v-71q52 86 167 86q90 0 137 -57t47 -160v-323h-102v285q0 169 -117 169q-61 0 -95.5 -43t-34.5 -108v-303h-101v485q0 27 -1 40h100z" />
    <glyph glyph-name="o" unicode="o" horiz-adv-x="611" 
d="M306 539q121 0 193 -77t72 -201q0 -122 -71.5 -198t-195.5 -76t-194 75.5t-70 198.5q0 124 72 201t194 77zM303 455q-73 0 -114.5 -53.5t-41.5 -139.5q0 -89 41 -140t115 -51t115.5 51t41.5 140q0 86 -42 139.5t-115 53.5z" />
    <glyph glyph-name="p" unicode="p" horiz-adv-x="628" 
d="M170 525v-68q61 84 172 84q110 0 178 -78t68 -199q0 -123 -67.5 -199.5t-175.5 -76.5q-119 0 -173 78v-8t0.5 -19t1 -26.5t0.5 -33v-36.5v-123h-101v705h97zM324 456q-72 0 -114 -54t-42 -139q0 -88 41.5 -140t114.5 -52q74 0 115 51.5t41 140.5q0 86 -41.5 139.5
t-114.5 53.5z" />
    <glyph glyph-name="q" unicode="q" horiz-adv-x="628" 
d="M456 525h99v-705h-101v132v35.5t0.5 32t1 24.5t0.5 17.5v7.5q-55 -81 -171 -81q-112 0 -178.5 76t-66.5 200q0 121 68 199t178 78q57 0 102 -24.5t69 -59.5q-1 9 -1 23v45zM304 456q-73 0 -114.5 -53.5t-41.5 -139.5q0 -89 41 -140.5t115 -51.5q73 0 114.5 53t41.5 141
q0 85 -42 138t-114 53z" />
    <glyph glyph-name="r" unicode="r" horiz-adv-x="339" 
d="M72 525h97v-67q13 37 47.5 58.5t79.5 21.5q12 0 26 -2v-92q-9 3 -35 3q-66 0 -89.5 -43.5t-23.5 -131.5v-272h-101v478q0 31 -1 47z" />
    <glyph glyph-name="s" unicode="s" horiz-adv-x="503" 
d="M33 160h100q27 -90 127 -90q46 0 74.5 19.5t28.5 54.5q0 33 -28.5 48.5t-95.5 31.5l-37 10q-72 17 -112 52t-40 99q0 69 56 111.5t145 42.5t142 -38.5t62 -114.5h-96q-23 73 -111 73q-47 0 -71 -17.5t-24 -47.5t20.5 -44t74.5 -30l56 -16q85 -24 122.5 -56t37.5 -94
q0 -75 -58 -120.5t-149 -45.5q-193 0 -224 172z" />
    <glyph glyph-name="t" unicode="t" horiz-adv-x="322" 
d="M199 667v-142h98v-78h-98v-315q0 -36 16 -50.5t48 -14.5q11 0 25 2v-75q-20 -4 -39 -4q-75 0 -113.5 30.5t-38.5 105.5v321h-79v78h79v142h102z" />
    <glyph glyph-name="u" unicode="u" horiz-adv-x="585" 
d="M416 0v75q-53 -88 -167 -88q-182 0 -182 211v327h101v-289q0 -165 116 -165q39 0 65 16.5t39 48t18 66t5 82.5v241h101v-486q0 -26 1 -39h-97z" />
    <glyph glyph-name="v" unicode="v" horiz-adv-x="535" 
d="M321 0h-110l-196 525h115l82 -239l58 -177h2q10 31 31 88.5t34 99.5l77 228h109z" />
    <glyph glyph-name="w" unicode="w" horiz-adv-x="809" 
d="M20 525h108l83 -296q13 -47 33 -126h3q3 12 34 135l72 287h108l51 -203q46 -193 53 -219h2l30 112l9 31l80 279h104l-167 -525h-120q-52 182 -96 388h-3q-24 -102 -62 -240t-41 -148h-115q-31 92 -86 270.5t-80 254.5z" />
    <glyph glyph-name="x" unicode="x" horiz-adv-x="517" 
d="M381 525h113q-29 -43 -98 -137.5t-81 -112.5q125 -181 193 -275h-120q-74 108 -131 200q-23 -36 -75 -113t-59 -87h-112l82 115l108 151l-180 259h120l21 -33q67 -104 99 -149z" />
    <glyph glyph-name="y" unicode="y" horiz-adv-x="534" 
d="M415 525h110q-36 -92 -134 -333.5t-147 -371.5h-105q71 167 76 180l-201 525h116l97 -286l42 -126h2q24 73 44 129z" />
    <glyph glyph-name="z" unicode="z" horiz-adv-x="497" 
d="M37 0v77l247 304q9 11 21 25.5t19.5 23.5t11.5 16q-13 -1 -48 -1h-243v80h405v-81l-211 -259l-88 -106v-1q54 2 101 2h207v-80h-422z" />
    <glyph glyph-name="braceleft" unicode="{" horiz-adv-x="305" 
d="M130 301v-2q44 -20 55.5 -46.5t11.5 -108.5v-124q1 -46 14 -61t50 -15v-65h-31q-79 0 -104.5 26t-25.5 98v166q0 57 -13.5 79t-51.5 32v39q37 11 51 31.5t14 76.5v165q0 76 24.5 102.5t105.5 26.5h10t8.5 -0.5t6.5 -0.5h5h1v-65q-39 -4 -51.5 -17t-12.5 -60v-123
q0 -81 -12 -108.5t-55 -45.5z" />
    <glyph glyph-name="bar" unicode="|" horiz-adv-x="277" 
d="M92 732h93v-802h-93v802z" />
    <glyph glyph-name="braceright" unicode="}" horiz-adv-x="305" 
d="M175 299v2q-43 18 -55 45.5t-12 108.5v123q0 47 -12.5 60t-51.5 17v65h2h4t6.5 0.5t8.5 0.5h10q79 0 104.5 -27t25.5 -99v-166q0 -58 13.5 -79t51.5 -31v-39q-37 -11 -51 -32t-14 -77v-165q0 -75 -24.5 -101t-105.5 -26h-31v65q36 0 50 15.5t14 60.5v124q0 82 11.5 108.5
t55.5 46.5z" />
    <glyph glyph-name="asciitilde" unicode="~" 
d="M93 232l-61 44q61 108 144 108q42 0 110 -33l14 -7q61 -33 97 -34q52 0 88 70q9 -7 30 -20.5t32 -21.5q-61 -111 -146 -111q-44 0 -126 40q-9 3 -30.5 12.5t-38.5 15t-31 5.5q-53 0 -82 -68z" />
    <glyph glyph-name="uni00A0" unicode="&#xa0;" horiz-adv-x="252" 
 />
    <glyph glyph-name="exclamdown" unicode="&#xa1;" horiz-adv-x="264" 
d="M95 337h74q14 -350 14 -424v-109h-102v109q0 74 14 424zM80 404v121h103v-121h-103z" />
    <glyph glyph-name="cent" unicode="&#xa2;" 
d="M439 167h106q-20 -71 -70.5 -118.5t-128.5 -58.5v-72h-87v72q-104 14 -164 89t-60 185q0 108 61 182t163 90v86h87v-86q81 -11 131.5 -59t68.5 -124h-105q-30 73 -95 95v-370q63 18 93 89zM142 263q0 -75 30 -124t87 -63v374q-56 -14 -86.5 -64t-30.5 -123z" />
    <glyph glyph-name="sterling" unicode="&#xa3;" 
d="M518 89v-89h-455v82q123 17 123 130q0 50 -29 114h-116v85h80q-20 67 -20 114q0 86 60.5 145t163.5 59q100 0 153 -52.5t55 -144.5h-102q-15 104 -109 104q-54 0 -81 -33t-27 -86q0 -56 20 -103h169v-88h-142q30 -76 30 -119q0 -67 -53 -119h57q12 0 30.5 0.5t23.5 0.5
h169z" />
    <glyph glyph-name="currency" unicode="&#xa4;" 
d="M474 108l-49 49q-64 -43 -138 -43q-75 0 -139 43l-50 -50l-65 65l50 50q-41 59 -41 137q0 74 43 138l-52 52l65 65l52 -52q61 42 137 42q75 0 136 -42l51 51l65 -65l-51 -51q44 -64 44 -138q0 -76 -42 -137l49 -49zM126 359q0 -66 47.5 -113.5t113.5 -47.5t113.5 47.5
t47.5 113.5t-47.5 113.5t-113.5 47.5t-113.5 -47.5t-47.5 -113.5z" />
    <glyph glyph-name="yen" unicode="&#xa5;" 
d="M35 206v71h198l-63 117h-135v71h96l-134 250h119l80 -155t96 -184l176 339h112l-137 -250h96v-71h-135l-64 -117h199v-71h-200v-206h-105v206h-199z" />
    <glyph glyph-name="brokenbar" unicode="&#xa6;" horiz-adv-x="227" 
d="M69 428v303h89v-303h-89zM69 -62v303h89v-303h-89z" />
    <glyph glyph-name="section" unicode="&#xa7;" 
d="M296 726q85 0 139 -39t62 -114h-96q-8 36 -38 53.5t-72 17.5q-41 0 -67 -16t-26 -44t16 -42t56 -31l97 -42q70 -31 107.5 -66t37.5 -93q0 -85 -85 -132q23 -19 34.5 -31t22.5 -35t11 -52q0 -73 -56.5 -119.5t-151.5 -46.5q-99 0 -154 46t-68 125h102q24 -88 122 -88
q50 0 77.5 19t27.5 54q0 38 -44 62q-11 6 -56 27l-87 39q-68 30 -105.5 65.5t-37.5 97.5q0 82 95 122q-20 16 -30 25t-21.5 33.5t-11.5 55.5q0 66 56.5 107.5t143.5 41.5zM246 270l102 -48q63 21 63 74q0 32 -26 52t-86 45l-66 27q-28 -2 -47.5 -19t-19.5 -44
q0 -30 19 -48.5t61 -38.5z" />
    <glyph glyph-name="dieresis" unicode="&#xa8;" horiz-adv-x="491" 
d="M141 603v96h98v-96h-98zM310 603v96h97v-96h-97z" />
    <glyph glyph-name="copyright" unicode="&#xa9;" horiz-adv-x="841" 
d="M545 272h75q-25 -65 -76 -101.5t-125 -36.5q-94 0 -154.5 62t-60.5 161t60.5 161.5t156.5 62.5q76 0 127 -37t72 -106h-74q-36 83 -125 83q-66 0 -104 -45t-38 -118t38 -118.5t104 -45.5q86 0 124 78zM797 360q0 -158 -110 -267.5t-268 -109.5q-156 0 -265.5 110
t-109.5 267t109.5 266.5t267.5 109.5q156 0 266 -110t110 -266zM740 360q0 135 -93.5 228.5t-225.5 93.5q-135 0 -227 -93.5t-92 -228.5t92 -229.5t226 -94.5q132 0 226 94.5t94 229.5z" />
    <glyph glyph-name="ordfeminine" unicode="&#xaa;" horiz-adv-x="457" 
d="M143 449h-79q6 62 50 97.5t115 35.5q79 0 119 -37.5t40 -141.5v-79q0 -104 8 -145h-73q-2 10 -4 46v5q-43 -59 -129 -59q-64 0 -103.5 31t-39.5 85q0 25 10.5 44.5t31.5 33t43 23t56.5 16t59.5 10t63 7.5q-2 55 -23 77t-60 22q-79 0 -85 -71zM311 345v11q0 7 1 9
q-6 -1 -20.5 -3t-21.5 -2q-73 -11 -106 -26t-33 -47q0 -27 20.5 -42.5t55.5 -15.5q104 0 104 116z" />
    <glyph glyph-name="guillemotleft" unicode="&#xab;" horiz-adv-x="498" 
d="M248 473l-96 -187l96 -188h-96l-104 188l104 187h96zM444 473l-91 -187l91 -188h-94l-104 188l104 187h94z" />
    <glyph glyph-name="logicalnot" unicode="&#xac;" 
d="M28 380v87h504v-330h-89v243h-415z" />
    <glyph glyph-name="uni00AD" unicode="&#xad;" horiz-adv-x="400" 
d="M64 251v85h272v-85h-272z" />
    <glyph glyph-name="registered" unicode="&#xae;" horiz-adv-x="553" 
d="M191 367v263h91q45 0 69 -15q31 -19 31 -61q0 -62 -62 -78l66 -109h-54l-62 103h-31v-103h-48zM239 590v-80h39q57 0 57 41q0 39 -57 39h-39zM510 500q0 -98 -68 -166t-166 -68q-96 0 -164.5 68.5t-68.5 165.5t68 165t166 68q96 0 164.5 -68.5t68.5 -164.5zM465 500
q0 79 -55.5 134.5t-132.5 55.5q-79 0 -133.5 -55.5t-54.5 -134.5q0 -80 54 -135.5t133 -55.5q78 0 133.5 56t55.5 135z" />
    <glyph glyph-name="macron" unicode="&#xaf;" horiz-adv-x="428" 
d="M88 618v67h262v-67h-262z" />
    <glyph glyph-name="degree" unicode="&#xb0;" horiz-adv-x="419" 
d="M210 400q-70 0 -118.5 47.5t-48.5 116.5q0 70 48.5 117.5t118.5 47.5t118 -47.5t48 -117.5t-47.5 -117t-118.5 -47zM114 564q0 -40 28 -67.5t68 -27.5t67.5 27t27.5 68q0 40 -28 68t-67 28q-40 0 -68 -27.5t-28 -68.5z" />
    <glyph glyph-name="plusminus" unicode="&#xb1;" 
d="M66 319v87h177v145h87v-145h178v-87h-178v-145h-87v145h-177zM67 0v87h442v-87h-442z" />
    <glyph glyph-name="twosuperior" unicode="&#xb2;" horiz-adv-x="415" 
d="M64 278v63q100 87 155 145q52 52 52 104q0 31 -17.5 50t-49.5 19q-34 0 -52.5 -22.5t-20.5 -59.5h-72v10q0 60 42 99t104 39q67 0 106.5 -38t39.5 -96q0 -43 -28 -87q-36 -51 -84 -93q-62 -54 -79 -67h190v-66h-286z" />
    <glyph glyph-name="threesuperior" unicode="&#xb3;" horiz-adv-x="395" 
d="M164 490v60q86 2 86 60q0 26 -15.5 40t-39.5 14q-23 0 -38.5 -14.5t-18.5 -36.5h-72q2 52 37 82.5t94 30.5q60 0 94.5 -29t34.5 -80q0 -56 -59 -94q82 -36 82 -112q0 -60 -42.5 -98.5t-111.5 -38.5t-107.5 36t-44.5 96h77q5 -32 25.5 -50.5t51.5 -18.5q33 0 53.5 21.5
t20.5 54.5q0 77 -90 77h-17z" />
    <glyph glyph-name="acute" unicode="&#xb4;" horiz-adv-x="427" 
d="M363 715l-141 -119h-106l114 119h133z" />
    <glyph glyph-name="mu" unicode="&#xb5;" horiz-adv-x="591" 
d="M175 -180h-102v705h102v-288q0 -165 115 -165q58 0 92 43.5t34 108.5v301h102v-485q0 -27 1 -40h-98v76q-53 -89 -167 -89q-45 0 -79 16v-183z" />
    <glyph glyph-name="paragraph" unicode="&#xb6;" horiz-adv-x="624" 
d="M318 637v-750h-85v469q-84 0 -143 50.5t-59 130.5q0 93 72 142q31 22 65.5 29t88.5 7h299v-78h-43v-750h-85v750h-110z" />
    <glyph glyph-name="periodcentered" unicode="&#xb7;" horiz-adv-x="235" 
d="M64 261v120h107v-120h-107z" />
    <glyph glyph-name="cedilla" unicode="&#xb8;" horiz-adv-x="369" 
d="M104 -163l94 115h106l-75 -115h-125z" />
    <glyph glyph-name="onesuperior" unicode="&#xb9;" horiz-adv-x="284" 
d="M138 597h-107v50q55 2 80 17.5t32 50.5h70v-435h-75v317z" />
    <glyph glyph-name="ordmasculine" unicode="&#xba;" horiz-adv-x="489" 
d="M243 236q55 0 86 38t31 103q0 63 -31.5 102.5t-85.5 39.5q-53 0 -84 -39.5t-31 -102.5q0 -64 30.5 -102.5t84.5 -38.5zM243 170q-93 0 -145.5 57t-52.5 149q0 94 54 151t146 57t146 -57t54 -151q0 -92 -54 -149t-148 -57z" />
    <glyph glyph-name="guillemotright" unicode="&#xbb;" horiz-adv-x="498" 
d="M346 286l-96 187h96l104 -187l-104 -188h-96zM145 286l-91 187h94l104 -187l-104 -188h-94z" />
    <glyph glyph-name="onequarter" unicode="&#xbc;" horiz-adv-x="799" 
d="M635 88h-213v59q159 230 201 294l82 -1v-290h58v-62h-58v-88h-70v88zM187 0l275 715h72l-275 -715h-72zM140 597h-107v50q55 2 80 17.5t32 50.5h70v-435h-75v317zM499 150h136v113q0 19 1 54t1 41h-1l-17 -26q-5 -7 -18 -28t-22 -34l-43 -64q-9 -13 -27 -41
q-3 -5 -10 -15z" />
    <glyph glyph-name="onehalf" unicode="&#xbd;" horiz-adv-x="814" 
d="M481 0v63q100 87 155 145q52 52 52 104q0 31 -17.5 50t-49.5 19q-34 0 -52.5 -22.5t-20.5 -59.5h-72v10q0 60 42 99t104 39q67 0 106.5 -38t39.5 -96q0 -43 -28 -87q-36 -51 -84 -93q-62 -54 -79 -67h190v-66h-286zM187 0l275 715h72l-275 -715h-72zM140 597h-107v50
q55 2 80 17.5t32 50.5h70v-435h-75v317z" />
    <glyph glyph-name="threequarters" unicode="&#xbe;" horiz-adv-x="907" 
d="M745 88h-213v59q159 230 201 294l82 -1v-290h58v-62h-58v-88h-70v88zM157 490v60q86 2 86 60q0 26 -15.5 40t-39.5 14q-23 0 -38.5 -14.5t-18.5 -36.5h-72q2 52 37 82.5t94 30.5q60 0 94.5 -29t34.5 -80q0 -56 -59 -94q82 -36 82 -112q0 -60 -42.5 -98.5t-111.5 -38.5
t-107.5 36t-44.5 96h77q5 -32 25.5 -50.5t51.5 -18.5q33 0 53.5 21.5t20.5 54.5q0 77 -90 77h-17zM297 0l275 715h72l-275 -715h-72zM609 150h136v113q0 19 1 54t1 41h-1l-17 -26q-5 -7 -18 -28t-22 -34l-43 -64q-9 -13 -27 -41q-2 -5 -10 -15z" />
    <glyph glyph-name="questiondown" unicode="&#xbf;" horiz-adv-x="507" 
d="M210 525h103v-119h-103v119zM211 327h96q0 -76 -15 -113t-60 -76q-34 -30 -47 -43t-29.5 -43t-16.5 -63q0 -47 29.5 -74t83.5 -27q114 0 119 131h106q0 -102 -61.5 -162.5t-166.5 -60.5q-102 0 -160 53.5t-58 137.5q0 103 106 189q39 33 56.5 65t17.5 86z" />
    <glyph glyph-name="Agrave" unicode="&#xc0;" horiz-adv-x="697" 
d="M104 0h-108q48 120 145 357.5t145 357.5h127l285 -715h-111l-86 216h-313zM347 619h-2q-24 -58 -65 -165.5t-58 -150.5h245q-11 27 -29.5 77.5t-48.5 127.5q-6 15 -21.5 55.5t-20.5 55.5zM314 761l-135 114h133l108 -114h-106z" />
    <glyph glyph-name="Aacute" unicode="&#xc1;" horiz-adv-x="697" 
d="M104 0h-108q48 120 145 357.5t145 357.5h127l285 -715h-111l-86 216h-313zM347 619h-2q-24 -58 -65 -165.5t-58 -150.5h245q-11 27 -29.5 77.5t-48.5 127.5q-6 15 -21.5 55.5t-20.5 55.5zM506 875l-135 -114h-106l108 114h133z" />
    <glyph glyph-name="Acircumflex" unicode="&#xc2;" horiz-adv-x="697" 
d="M104 0h-108q48 120 145 357.5t145 357.5h127l285 -715h-111l-86 216h-313zM347 619h-2q-24 -58 -65 -165.5t-58 -150.5h245q-11 27 -29.5 77.5t-48.5 127.5q-6 15 -21.5 55.5t-20.5 55.5zM291 875h109q15 -17 48 -56.5t49 -57.5h-93l-59 61l-57 -61h-94q11 13 45 53.5
t52 60.5z" />
    <glyph glyph-name="Atilde" unicode="&#xc3;" horiz-adv-x="697" 
d="M104 0h-108q48 120 145 357.5t145 357.5h127l285 -715h-111l-86 216h-313zM347 619h-2q-24 -58 -65 -165.5t-58 -150.5h245q-11 27 -29.5 77.5t-48.5 127.5q-6 15 -21.5 55.5t-20.5 55.5zM264 763h-62q2 49 24.5 78.5t61.5 29.5q29 0 74 -23q38 -18 52 -18q25 0 32 40h60
q-2 -49 -24.5 -79t-59.5 -30q-27 0 -67 19q-43 22 -58 22q-25 0 -33 -39z" />
    <glyph glyph-name="Adieresis" unicode="&#xc4;" horiz-adv-x="697" 
d="M104 0h-108q48 120 145 357.5t145 357.5h127l285 -715h-111l-86 216h-313zM347 619h-2q-24 -58 -65 -165.5t-58 -150.5h245q-11 27 -29.5 77.5t-48.5 127.5q-6 15 -21.5 55.5t-20.5 55.5zM215 766v96h98v-96h-98zM384 766v96h97v-96h-97z" />
    <glyph glyph-name="Aring" unicode="&#xc5;" horiz-adv-x="697" 
d="M104 0h-108q48 120 145 357.5t145 357.5h127l285 -715h-111l-86 216h-313zM347 619h-2q-24 -58 -65 -165.5t-58 -150.5h245q-11 27 -29.5 77.5t-48.5 127.5q-6 15 -21.5 55.5t-20.5 55.5zM346 748q-37 0 -62 25.5t-25 63.5q0 36 25.5 61.5t62.5 25.5t62.5 -25.5
t25.5 -61.5q0 -38 -25.5 -63.5t-63.5 -25.5zM303 837q0 -19 12.5 -32t30.5 -13q19 0 31.5 12.5t12.5 32.5q0 17 -13 30t-31 13t-30.5 -13t-12.5 -30z" />
    <glyph glyph-name="AE" unicode="&#xc6;" horiz-adv-x="899" 
d="M848 715v-92h-322l6 -211h292v-92h-289l6 -228h314v-92h-416l-4 184h-238l-99 -184h-112l402 715h460zM431 274l-3 142q-1 23 -1 59v131h-5l-14 -27q-36 -75 -64 -124l-97 -181h184z" />
    <glyph glyph-name="Ccedilla" unicode="&#xc7;" horiz-adv-x="756" 
d="M615 209h110q-38 -105 -121.5 -164t-207.5 -59q-156 0 -254.5 103.5t-98.5 268.5t99.5 268t258.5 103q125 0 208 -59.5t117 -171.5h-108q-62 142 -218 142q-114 0 -178.5 -77t-64.5 -204t65 -206t179 -79q150 0 214 135zM263 -163l94 115h106l-75 -115h-125z" />
    <glyph glyph-name="Egrave" unicode="&#xc8;" horiz-adv-x="587" 
d="M87 0v715h448v-92h-342v-212h318v-91h-318v-229h349v-91h-455zM296 761l-135 114h133l108 -114h-106z" />
    <glyph glyph-name="Eacute" unicode="&#xc9;" horiz-adv-x="587" 
d="M87 0v715h448v-92h-342v-212h318v-91h-318v-229h349v-91h-455zM464 875l-135 -114h-106l108 114h133z" />
    <glyph glyph-name="Ecircumflex" unicode="&#xca;" horiz-adv-x="587" 
d="M87 0v715h448v-92h-342v-212h318v-91h-318v-229h349v-91h-455zM261 875h109q15 -17 48 -56.5t49 -57.5h-93l-59 61l-57 -61h-94q11 13 45 53.5t52 60.5z" />
    <glyph glyph-name="Edieresis" unicode="&#xcb;" horiz-adv-x="587" 
d="M87 0v715h448v-92h-342v-212h318v-91h-318v-229h349v-91h-455zM190 766v96h98v-96h-98zM359 766v96h97v-96h-97z" />
    <glyph glyph-name="Igrave" unicode="&#xcc;" horiz-adv-x="279" 
d="M87 0v715h105v-715h-105zM117 761l-135 114h133l108 -114h-106z" />
    <glyph glyph-name="Iacute" unicode="&#xcd;" horiz-adv-x="279" 
d="M87 0v715h105v-715h-105zM310 875l-135 -114h-106l108 114h133z" />
    <glyph glyph-name="Icircumflex" unicode="&#xce;" horiz-adv-x="279" 
d="M87 0v715h105v-715h-105zM87 875h109q15 -17 48 -56.5t49 -57.5h-93l-59 61l-57 -61h-94q11 13 45 53.5t52 60.5z" />
    <glyph glyph-name="Idieresis" unicode="&#xcf;" horiz-adv-x="279" 
d="M87 0v715h105v-715h-105zM7 766v96h98v-96h-98zM176 766v96h97v-96h-97z" />
    <glyph glyph-name="Eth" unicode="&#xd0;" horiz-adv-x="729" 
d="M25 318v90h68v307h196q127 0 213 -39q182 -86 182 -320q0 -185 -121 -281q-48 -38 -108 -56.5t-151 -18.5h-211v318h-68zM199 623v-215h140v-90h-140v-229h80q145 0 218 62t73 205q0 132 -72.5 200.5t-207.5 68.5h-46q-15 0 -45 -2z" />
    <glyph glyph-name="Ntilde" unicode="&#xd1;" horiz-adv-x="749" 
d="M87 0v715h140l243 -418l89 -155l1 1q0 17 -1 87t-1 108v377h104v-715h-136l-237 402q-95 166 -98 172h-1v-48q0 -21 0.5 -71.5t0.5 -76.5v-378h-104zM293 763h-62q2 49 24.5 78.5t61.5 29.5q29 0 74 -23q38 -18 52 -18q25 0 32 40h60q-2 -49 -24.5 -79t-59.5 -30
q-27 0 -67 19q-43 22 -58 22q-26 0 -33 -39z" />
    <glyph glyph-name="Ograve" unicode="&#xd2;" horiz-adv-x="806" 
d="M402 729q162 0 261.5 -103t99.5 -269t-99 -268.5t-261 -102.5t-261 102.5t-99 268.5t99.5 269t259.5 103zM401 640q-114 0 -179.5 -78t-65.5 -204q0 -125 66.5 -204.5t179.5 -79.5t179.5 79t66.5 205t-66 204t-181 78zM386 761l-135 114h133l108 -114h-106z" />
    <glyph glyph-name="Oacute" unicode="&#xd3;" horiz-adv-x="806" 
d="M402 729q162 0 261.5 -103t99.5 -269t-99 -268.5t-261 -102.5t-261 102.5t-99 268.5t99.5 269t259.5 103zM401 640q-114 0 -179.5 -78t-65.5 -204q0 -125 66.5 -204.5t179.5 -79.5t179.5 79t66.5 205t-66 204t-181 78zM557 875l-135 -114h-106l108 114h133z" />
    <glyph glyph-name="Ocircumflex" unicode="&#xd4;" horiz-adv-x="806" 
d="M402 729q162 0 261.5 -103t99.5 -269t-99 -268.5t-261 -102.5t-261 102.5t-99 268.5t99.5 269t259.5 103zM401 640q-114 0 -179.5 -78t-65.5 -204q0 -125 66.5 -204.5t179.5 -79.5t179.5 79t66.5 205t-66 204t-181 78zM348 875h109q15 -17 48 -56.5t49 -57.5h-93l-59 61
l-57 -61h-94q11 13 45 53.5t52 60.5z" />
    <glyph glyph-name="Otilde" unicode="&#xd5;" horiz-adv-x="806" 
d="M402 729q162 0 261.5 -103t99.5 -269t-99 -268.5t-261 -102.5t-261 102.5t-99 268.5t99.5 269t259.5 103zM401 640q-114 0 -179.5 -78t-65.5 -204q0 -125 66.5 -204.5t179.5 -79.5t179.5 79t66.5 205t-66 204t-181 78zM313 763h-62q2 49 24.5 78.5t61.5 29.5q29 0 74 -23
q38 -18 52 -18q25 0 32 40h60q-2 -49 -24.5 -79t-59.5 -30q-27 0 -67 19q-43 22 -58 22q-26 0 -33 -39z" />
    <glyph glyph-name="Odieresis" unicode="&#xd6;" horiz-adv-x="806" 
d="M402 729q162 0 261.5 -103t99.5 -269t-99 -268.5t-261 -102.5t-261 102.5t-99 268.5t99.5 269t259.5 103zM401 640q-114 0 -179.5 -78t-65.5 -204q0 -125 66.5 -204.5t179.5 -79.5t179.5 79t66.5 205t-66 204t-181 78zM272 766v96h98v-96h-98zM441 766v96h97v-96h-97z
" />
    <glyph glyph-name="multiply" unicode="&#xd7;" 
d="M128 104l-59 59l159 158l-159 158l59 59l158 -158l159 159l59 -59l-159 -159l159 -159l-59 -59l-159 159z" />
    <glyph glyph-name="Oslash" unicode="&#xd8;" horiz-adv-x="806" 
d="M402 729q76 0 145 -26l50 88l83 -48l-50 -88q133 -103 133 -298q0 -166 -98.5 -268.5t-261.5 -102.5q-71 0 -140 24l-50 -89l-83 45l50 89q-137 102 -137 302q0 165 99.5 268.5t259.5 103.5zM401 640q-114 0 -179.5 -78t-65.5 -204q0 -136 75 -214l269 477q-45 19 -99 19
zM648 358q0 127 -69 207l-269 -473q43 -17 92 -17q113 0 179.5 79t66.5 204z" />
    <glyph glyph-name="Ugrave" unicode="&#xd9;" horiz-adv-x="688" 
d="M185 715v-434q0 -95 22 -137q17 -33 53.5 -52t82.5 -19t83.5 19t54.5 52q22 41 22 137v434h105v-437q0 -130 -47 -195q-33 -45 -91 -70t-127 -25t-126 24.5t-89 68.5q-29 41 -38.5 84.5t-9.5 112.5v437h105zM321 761l-135 114h133l108 -114h-106z" />
    <glyph glyph-name="Uacute" unicode="&#xda;" horiz-adv-x="688" 
d="M185 715v-434q0 -95 22 -137q17 -33 53.5 -52t82.5 -19t83.5 19t54.5 52q22 41 22 137v434h105v-437q0 -130 -47 -195q-33 -45 -91 -70t-127 -25t-126 24.5t-89 68.5q-29 41 -38.5 84.5t-9.5 112.5v437h105zM499 875l-135 -114h-106l108 114h133z" />
    <glyph glyph-name="Ucircumflex" unicode="&#xdb;" horiz-adv-x="688" 
d="M185 715v-434q0 -95 22 -137q17 -33 53.5 -52t82.5 -19t83.5 19t54.5 52q22 41 22 137v434h105v-437q0 -130 -47 -195q-33 -45 -91 -70t-127 -25t-126 24.5t-89 68.5q-29 41 -38.5 84.5t-9.5 112.5v437h105zM291 875h109q15 -17 48 -56.5t49 -57.5h-93l-59 61l-57 -61
h-94q11 13 45 53.5t52 60.5z" />
    <glyph glyph-name="Udieresis" unicode="&#xdc;" horiz-adv-x="688" 
d="M185 715v-434q0 -95 22 -137q17 -33 53.5 -52t82.5 -19t83.5 19t54.5 52q22 41 22 137v434h105v-437q0 -130 -47 -195q-33 -45 -91 -70t-127 -25t-126 24.5t-89 68.5q-29 41 -38.5 84.5t-9.5 112.5v437h105zM213 766v96h98v-96h-98zM382 766v96h97v-96h-97z" />
    <glyph glyph-name="Yacute" unicode="&#xdd;" horiz-adv-x="594" 
d="M244 0v277q-40 74 -119.5 219t-119.5 219h119q52 -99 122 -234l55 -104q5 10 18 34t54.5 102.5t105.5 201.5h112q-43 -80 -125.5 -227t-117.5 -211v-277h-104zM458 875l-135 -114h-106l108 114h133z" />
    <glyph glyph-name="Thorn" unicode="&#xde;" horiz-adv-x="589" 
d="M87 715h105v-121h85q73 0 111.5 -6.5t79.5 -27.5q47 -25 72.5 -72t25.5 -108q0 -121 -87 -179q-38 -25 -85 -33t-118 -8h-84v-160h-105v715zM192 502v-251h109q69 0 111 31.5t42 96.5q0 63 -39 93t-120 30h-103z" />
    <glyph glyph-name="germandbls" unicode="&#xdf;" horiz-adv-x="576" 
d="M73 0v484q0 68 12.5 111.5t43.5 74.5q56 53 159 53q97 0 152 -41t55 -116q0 -102 -95 -145q136 -63 136 -196q0 -113 -66 -170.5t-169 -57.5q-25 0 -56 4v77q19 -3 36 -3q63 0 105 35.5t42 111.5q0 44 -14.5 74t-40 43.5t-43.5 18.5t-42 8q-14 2 -23 2h-20v74
q143 0 143 105q0 46 -27.5 70t-77.5 24q-108 0 -108 -131v-510h-102z" />
    <glyph glyph-name="agrave" unicode="&#xe0;" horiz-adv-x="557" 
d="M503 0h-95q-4 27 -5 72q-58 -82 -177 -82q-85 0 -137.5 40t-52.5 112q0 41 18.5 71t54 49t77 30t98.5 19q48 7 108 12q0 75 -28.5 105.5t-84.5 30.5q-108 0 -119 -98h-99q4 83 64.5 130.5t155.5 47.5q46 0 80.5 -9.5t65.5 -34t47 -74.5t16 -124v-102q0 -126 13 -195z
M394 250q-138 -13 -193.5 -34.5t-55.5 -72.5q0 -37 28 -58.5t76 -21.5q71 0 107.5 40.5t36.5 118.5v16q0 9 1 12zM114 717h133q56 -61 113 -119h-106z" />
    <glyph glyph-name="aacute" unicode="&#xe1;" horiz-adv-x="557" 
d="M503 0h-95q-4 27 -5 72q-58 -82 -177 -82q-85 0 -137.5 40t-52.5 112q0 41 18.5 71t54 49t77 30t98.5 19q48 7 108 12q0 75 -28.5 105.5t-84.5 30.5q-108 0 -119 -98h-99q4 83 64.5 130.5t155.5 47.5q46 0 80.5 -9.5t65.5 -34t47 -74.5t16 -124v-102q0 -126 13 -195z
M394 250q-138 -13 -193.5 -34.5t-55.5 -72.5q0 -37 28 -58.5t76 -21.5q71 0 107.5 40.5t36.5 118.5v16q0 9 1 12zM446 715l-141 -119h-106l114 119h133z" />
    <glyph glyph-name="acircumflex" unicode="&#xe2;" horiz-adv-x="557" 
d="M503 0h-95q-4 27 -5 72q-58 -82 -177 -82q-85 0 -137.5 40t-52.5 112q0 41 18.5 71t54 49t77 30t98.5 19q48 7 108 12q0 75 -28.5 105.5t-84.5 30.5q-108 0 -119 -98h-99q4 83 64.5 130.5t155.5 47.5q46 0 80.5 -9.5t65.5 -34t47 -74.5t16 -124v-102q0 -126 13 -195z
M394 250q-138 -13 -193.5 -34.5t-55.5 -72.5q0 -37 28 -58.5t76 -21.5q71 0 107.5 40.5t36.5 118.5v16q0 9 1 12zM227 715h109q13 -15 48 -57t53 -62h-93l-63 66l-61 -66h-94q18 20 53 62t48 57z" />
    <glyph glyph-name="atilde" unicode="&#xe3;" horiz-adv-x="557" 
d="M503 0h-95q-4 27 -5 72q-58 -82 -177 -82q-85 0 -137.5 40t-52.5 112q0 41 18.5 71t54 49t77 30t98.5 19q48 7 108 12q0 75 -28.5 105.5t-84.5 30.5q-108 0 -119 -98h-99q4 83 64.5 130.5t155.5 47.5q46 0 80.5 -9.5t65.5 -34t47 -74.5t16 -124v-102q0 -126 13 -195z
M394 250q-138 -13 -193.5 -34.5t-55.5 -72.5q0 -37 28 -58.5t76 -21.5q71 0 107.5 40.5t36.5 118.5v16q0 9 1 12zM191 609h-62q2 49 24.5 78.5t61.5 29.5q29 0 74 -23q38 -18 52 -18q25 0 32 40h60q-2 -49 -24.5 -79t-59.5 -30q-27 0 -67 19q-43 22 -58 22q-26 0 -33 -39z
" />
    <glyph glyph-name="adieresis" unicode="&#xe4;" horiz-adv-x="557" 
d="M503 0h-95q-4 27 -5 72q-58 -82 -177 -82q-85 0 -137.5 40t-52.5 112q0 41 18.5 71t54 49t77 30t98.5 19q48 7 108 12q0 75 -28.5 105.5t-84.5 30.5q-108 0 -119 -98h-99q4 83 64.5 130.5t155.5 47.5q46 0 80.5 -9.5t65.5 -34t47 -74.5t16 -124v-102q0 -126 13 -195z
M394 250q-138 -13 -193.5 -34.5t-55.5 -72.5q0 -37 28 -58.5t76 -21.5q71 0 107.5 40.5t36.5 118.5v16q0 9 1 12zM138 603v96h98v-96h-98zM307 603v96h97v-96h-97z" />
    <glyph glyph-name="aring" unicode="&#xe5;" horiz-adv-x="557" 
d="M503 0h-95q-4 27 -5 72q-58 -82 -177 -82q-85 0 -137.5 40t-52.5 112q0 41 18.5 71t54 49t77 30t98.5 19q48 7 108 12q0 75 -28.5 105.5t-84.5 30.5q-108 0 -119 -98h-99q4 83 64.5 130.5t155.5 47.5q46 0 80.5 -9.5t65.5 -34t47 -74.5t16 -124v-102q0 -126 13 -195z
M394 250q-138 -13 -193.5 -34.5t-55.5 -72.5q0 -37 28 -58.5t76 -21.5q71 0 107.5 40.5t36.5 118.5v16q0 9 1 12zM281 588q-37 0 -62 25.5t-25 63.5q0 36 25.5 61.5t62.5 25.5t62.5 -25.5t25.5 -61.5q0 -38 -25.5 -63.5t-63.5 -25.5zM238 677q0 -19 12.5 -32t30.5 -13
q19 0 31.5 12.5t12.5 32.5q0 17 -12.5 30t-31.5 13q-18 0 -30.5 -13t-12.5 -30z" />
    <glyph glyph-name="ae" unicode="&#xe6;" horiz-adv-x="932" 
d="M897 237h-412q4 -73 48 -119t117 -46q87 0 135 78h101q-25 -74 -87 -118.5t-153 -44.5q-140 0 -213 99q-73 -96 -208 -96q-84 0 -136.5 41.5t-52.5 112.5q0 30 11 54t27.5 41t46 30t55 21t67.5 14.5t70.5 10t75.5 7.5q0 77 -28 106t-84 29q-105 0 -116 -95h-102
q8 82 66.5 129t153.5 47q132 0 176 -80q76 82 192 82q122 0 186.5 -79.5t64.5 -193.5q0 -6 -0.5 -13.5t-0.5 -9.5v-7zM390 221v17q0 9 1 11l-57 -6q-103 -13 -146 -33.5t-43 -65.5q0 -37 27.5 -58.5t75.5 -21.5q69 0 105.5 40.5t36.5 116.5zM489 317h303q-7 64 -45.5 102.5
t-101.5 38.5t-105.5 -38t-50.5 -103z" />
    <glyph glyph-name="ccedilla" unicode="&#xe7;" horiz-adv-x="584" 
d="M444 168h105q-21 -82 -83.5 -131.5t-158.5 -49.5q-122 0 -194.5 78t-72.5 199q0 120 73.5 197.5t194.5 77.5q99 0 161 -50.5t81 -136.5h-104q-17 49 -54 76t-88 27q-73 0 -115 -53.5t-42 -138.5q0 -89 41.5 -140.5t115.5 -51.5q103 0 140 97zM171 -163l94 115h106
l-75 -115h-125z" />
    <glyph glyph-name="egrave" unicode="&#xe8;" horiz-adv-x="588" 
d="M553 236h-411q2 -71 47 -118t118 -47q87 0 134 79h101q-22 -74 -85 -118.5t-154 -44.5q-121 0 -192 74.5t-71 198.5t73 202t190 78q121 0 185.5 -78.5t64.5 -192.5v-33zM146 316h302q-7 65 -45 103.5t-102 38.5q-63 0 -105 -38t-50 -104zM124 717h133q56 -61 113 -119
h-106z" />
    <glyph glyph-name="eacute" unicode="&#xe9;" horiz-adv-x="588" 
d="M553 236h-411q2 -71 47 -118t118 -47q87 0 134 79h101q-22 -74 -85 -118.5t-154 -44.5q-121 0 -192 74.5t-71 198.5t73 202t190 78q121 0 185.5 -78.5t64.5 -192.5v-33zM146 316h302q-7 65 -45 103.5t-102 38.5q-63 0 -105 -38t-50 -104zM468 715l-141 -119h-106l114 119
h133z" />
    <glyph glyph-name="ecircumflex" unicode="&#xea;" horiz-adv-x="588" 
d="M553 236h-411q2 -71 47 -118t118 -47q87 0 134 79h101q-22 -74 -85 -118.5t-154 -44.5q-121 0 -192 74.5t-71 198.5t73 202t190 78q121 0 185.5 -78.5t64.5 -192.5v-33zM146 316h302q-7 65 -45 103.5t-102 38.5q-63 0 -105 -38t-50 -104zM253 715h109q13 -15 48 -57
t53 -62h-93l-63 66l-61 -66h-94q18 20 53 62t48 57z" />
    <glyph glyph-name="edieresis" unicode="&#xeb;" horiz-adv-x="588" 
d="M553 236h-411q2 -71 47 -118t118 -47q87 0 134 79h101q-22 -74 -85 -118.5t-154 -44.5q-121 0 -192 74.5t-71 198.5t73 202t190 78q121 0 185.5 -78.5t64.5 -192.5v-33zM146 316h302q-7 65 -45 103.5t-102 38.5q-63 0 -105 -38t-50 -104zM168 603v96h98v-96h-98zM337 603
v96h97v-96h-97z" />
    <glyph glyph-name="igrave" unicode="&#xec;" horiz-adv-x="248" 
d="M73 525h102v-525h-102v525zM-58 717h133q56 -61 113 -119h-106z" />
    <glyph glyph-name="iacute" unicode="&#xed;" horiz-adv-x="248" 
d="M73 525h102v-525h-102v525zM307 715l-141 -119h-106l114 119h133z" />
    <glyph glyph-name="icircumflex" unicode="&#xee;" horiz-adv-x="248" 
d="M73 525h102v-525h-102v525zM72 715h109q13 -15 48 -57t53 -62h-93l-63 66l-61 -66h-94q18 20 53 62t48 57z" />
    <glyph glyph-name="idieresis" unicode="&#xef;" horiz-adv-x="248" 
d="M73 525h102v-525h-102v525zM-9 603v96h98v-96h-98zM160 603v96h97v-96h-97z" />
    <glyph glyph-name="eth" unicode="&#xf0;" horiz-adv-x="613" 
d="M140 611l91 40q-38 24 -117 64h165l41 -25l96 42l42 -42l-84 -38q196 -156 196 -382q0 -129 -69.5 -206t-197.5 -77q-123 0 -193 74t-70 199q0 126 71 200.5t177 74.5q67 0 99 -22l3 3q-29 45 -102 97l-101 -45zM303 72q74 0 115.5 51.5t41.5 139.5q0 85 -42.5 138.5
t-114.5 53.5q-73 0 -115 -53.5t-42 -138.5q0 -88 41.5 -139.5t115.5 -51.5z" />
    <glyph glyph-name="ntilde" unicode="&#xf1;" horiz-adv-x="590" 
d="M172 525v-71q52 86 167 86q90 0 137 -57t47 -160v-323h-102v285q0 169 -117 169q-61 0 -95.5 -43t-34.5 -108v-303h-101v485q0 27 -1 40h100zM214 608h-62q2 49 24.5 78.5t61.5 29.5q29 0 74 -23q38 -18 52 -18q25 0 32 40h60q-2 -49 -24.5 -79t-59.5 -30q-27 0 -67 19
q-43 22 -58 22q-25 0 -33 -39z" />
    <glyph glyph-name="ograve" unicode="&#xf2;" horiz-adv-x="611" 
d="M306 539q121 0 193 -77t72 -201q0 -122 -71.5 -198t-195.5 -76t-194 75.5t-70 198.5q0 124 72 201t194 77zM303 455q-73 0 -114.5 -53.5t-41.5 -139.5q0 -89 41 -140t115 -51t115.5 51t41.5 140q0 86 -42 139.5t-115 53.5zM147 717h133q56 -61 113 -119h-106z" />
    <glyph glyph-name="oacute" unicode="&#xf3;" horiz-adv-x="611" 
d="M306 539q121 0 193 -77t72 -201q0 -122 -71.5 -198t-195.5 -76t-194 75.5t-70 198.5q0 124 72 201t194 77zM303 455q-73 0 -114.5 -53.5t-41.5 -139.5q0 -89 41 -140t115 -51t115.5 51t41.5 140q0 86 -42 139.5t-115 53.5zM470 715l-141 -119h-106l114 119h133z" />
    <glyph glyph-name="ocircumflex" unicode="&#xf4;" horiz-adv-x="611" 
d="M306 539q121 0 193 -77t72 -201q0 -122 -71.5 -198t-195.5 -76t-194 75.5t-70 198.5q0 124 72 201t194 77zM303 455q-73 0 -114.5 -53.5t-41.5 -139.5q0 -89 41 -140t115 -51t115.5 51t41.5 140q0 86 -42 139.5t-115 53.5zM250 715h109q13 -15 48 -57t53 -62h-93l-63 66
l-61 -66h-94q18 20 53 62t48 57z" />
    <glyph glyph-name="otilde" unicode="&#xf5;" horiz-adv-x="611" 
d="M306 539q121 0 193 -77t72 -201q0 -122 -71.5 -198t-195.5 -76t-194 75.5t-70 198.5q0 124 72 201t194 77zM303 455q-73 0 -114.5 -53.5t-41.5 -139.5q0 -89 41 -140t115 -51t115.5 51t41.5 140q0 86 -42 139.5t-115 53.5zM214 608h-62q2 49 24.5 78.5t61.5 29.5
q29 0 74 -23q38 -18 52 -18q25 0 32 40h60q-2 -49 -24.5 -79t-59.5 -30q-27 0 -67 19q-43 22 -58 22q-25 0 -33 -39z" />
    <glyph glyph-name="odieresis" unicode="&#xf6;" horiz-adv-x="611" 
d="M306 539q121 0 193 -77t72 -201q0 -122 -71.5 -198t-195.5 -76t-194 75.5t-70 198.5q0 124 72 201t194 77zM303 455q-73 0 -114.5 -53.5t-41.5 -139.5q0 -89 41 -140t115 -51t115.5 51t41.5 140q0 86 -42 139.5t-115 53.5zM170 603v96h98v-96h-98zM339 603v96h97v-96h-97
z" />
    <glyph glyph-name="divide" unicode="&#xf7;" 
d="M66 278v87h442v-87h-442zM232 92v114h107v-114h-107zM232 436v114h107v-114h-107z" />
    <glyph glyph-name="oslash" unicode="&#xf8;" horiz-adv-x="611" 
d="M304 -13q-46 0 -90 13l-42 -74l-81 44l41 73q-92 75 -92 219q0 123 72 200t194 77q54 0 99 -16l40 70l82 -44l-42 -73q87 -79 87 -214q0 -122 -72 -198.5t-196 -76.5zM147 263q0 -83 36 -132l178 313q-28 11 -57 11q-73 0 -115 -53.5t-42 -138.5zM304 72q74 0 115.5 51.5
t41.5 139.5q0 69 -29 119l-174 -304q21 -6 46 -6z" />
    <glyph glyph-name="ugrave" unicode="&#xf9;" horiz-adv-x="585" 
d="M416 0v75q-53 -88 -167 -88q-182 0 -182 211v327h101v-289q0 -165 116 -165q39 0 65 16.5t39 48t18 66t5 82.5v241h101v-486q0 -26 1 -39h-97zM110 717h133q56 -61 113 -119h-106z" />
    <glyph glyph-name="uacute" unicode="&#xfa;" horiz-adv-x="585" 
d="M416 0v75q-53 -88 -167 -88q-182 0 -182 211v327h101v-289q0 -165 116 -165q39 0 65 16.5t39 48t18 66t5 82.5v241h101v-486q0 -26 1 -39h-97zM453 715l-141 -119h-106l114 119h133z" />
    <glyph glyph-name="ucircumflex" unicode="&#xfb;" horiz-adv-x="585" 
d="M416 0v75q-53 -88 -167 -88q-182 0 -182 211v327h101v-289q0 -165 116 -165q39 0 65 16.5t39 48t18 66t5 82.5v241h101v-486q0 -26 1 -39h-97zM241 715h109q13 -15 48 -57t53 -62h-93l-63 66l-61 -66h-94q18 20 53 62t48 57z" />
    <glyph glyph-name="udieresis" unicode="&#xfc;" horiz-adv-x="585" 
d="M416 0v75q-53 -88 -167 -88q-182 0 -182 211v327h101v-289q0 -165 116 -165q39 0 65 16.5t39 48t18 66t5 82.5v241h101v-486q0 -26 1 -39h-97zM162 603v96h98v-96h-98zM331 603v96h97v-96h-97z" />
    <glyph glyph-name="yacute" unicode="&#xfd;" horiz-adv-x="534" 
d="M415 525h110q-36 -92 -134 -333.5t-147 -371.5h-105q71 167 76 180l-201 525h116l97 -286l42 -126h2q24 73 44 129zM448 715l-141 -119h-106l114 119h133z" />
    <glyph glyph-name="thorn" unicode="&#xfe;" horiz-adv-x="632" 
d="M73 715h102v-186q0 -46 -1 -69q23 35 67.5 57.5t102.5 22.5q112 0 180 -78t68 -198q0 -123 -68.5 -199.5t-176.5 -76.5q-123 0 -174 78q0 -25 1 -38q0 -10 0.5 -39t0.5 -46v-123h-102v895zM326 72q74 0 115.5 51.5t41.5 139.5q0 85 -42.5 138.5t-114.5 53.5
q-73 0 -115 -53.5t-42 -138.5q0 -88 41.5 -139.5t115.5 -51.5z" />
    <glyph glyph-name="ydieresis" unicode="&#xff;" horiz-adv-x="534" 
d="M415 525h110q-36 -92 -134 -333.5t-147 -371.5h-105q71 167 76 180l-201 525h116l97 -286l42 -126h2q24 73 44 129zM138 603v96h98v-96h-98zM307 603v96h97v-96h-97z" />
    <glyph glyph-name="Amacron" unicode="&#x100;" horiz-adv-x="697" 
d="M104 0h-108q48 120 145 357.5t145 357.5h127l285 -715h-111l-86 216h-313zM347 619h-2q-24 -58 -65 -165.5t-58 -150.5h245q-11 27 -29.5 77.5t-48.5 127.5q-6 15 -21.5 55.5t-20.5 55.5zM214 781v67h262v-67h-262z" />
    <glyph glyph-name="amacron" unicode="&#x101;" horiz-adv-x="557" 
d="M503 0h-95q-4 27 -5 72q-58 -82 -177 -82q-85 0 -137.5 40t-52.5 112q0 41 18.5 71t54 49t77 30t98.5 19q48 7 108 12q0 75 -28.5 105.5t-84.5 30.5q-108 0 -119 -98h-99q4 83 64.5 130.5t155.5 47.5q46 0 80.5 -9.5t65.5 -34t47 -74.5t16 -124v-102q0 -126 13 -195z
M394 250q-138 -13 -193.5 -34.5t-55.5 -72.5q0 -37 28 -58.5t76 -21.5q71 0 107.5 40.5t36.5 118.5v16q0 9 1 12zM146 618v67h262v-67h-262z" />
    <glyph glyph-name="Abreve" unicode="&#x102;" horiz-adv-x="697" 
d="M104 0h-108q48 120 145 357.5t145 357.5h127l285 -715h-111l-86 216h-313zM347 619h-2q-24 -58 -65 -165.5t-58 -150.5h245q-11 27 -29.5 77.5t-48.5 127.5q-6 15 -21.5 55.5t-20.5 55.5zM346 826q58 0 72 53h74q-9 -57 -46.5 -87t-99.5 -30q-61 0 -99 30t-47 87h75
q14 -53 71 -53z" />
    <glyph glyph-name="abreve" unicode="&#x103;" horiz-adv-x="557" 
d="M503 0h-95q-4 27 -5 72q-58 -82 -177 -82q-85 0 -137.5 40t-52.5 112q0 41 18.5 71t54 49t77 30t98.5 19q48 7 108 12q0 75 -28.5 105.5t-84.5 30.5q-108 0 -119 -98h-99q4 83 64.5 130.5t155.5 47.5q46 0 80.5 -9.5t65.5 -34t47 -74.5t16 -124v-102q0 -126 13 -195z
M394 250q-138 -13 -193.5 -34.5t-55.5 -72.5q0 -37 28 -58.5t76 -21.5q71 0 107.5 40.5t36.5 118.5v16q0 9 1 12zM281 662q58 0 72 53h74q-9 -57 -46.5 -87t-99.5 -30q-61 0 -99 30t-47 87h75q14 -53 71 -53z" />
    <glyph glyph-name="Aogonek" unicode="&#x104;" horiz-adv-x="697" 
d="M104 0h-108q48 120 145 357.5t145 357.5h127l285 -715h-111l-86 216h-313zM347 619h-2q-24 -58 -65 -165.5t-58 -150.5h245q-11 27 -29.5 77.5t-48.5 127.5q-6 15 -21.5 55.5t-20.5 55.5zM670 -48l94 -115h-125l-75 115h106z" />
    <glyph glyph-name="aogonek" unicode="&#x105;" horiz-adv-x="557" 
d="M503 0h-95q-4 27 -5 72q-58 -82 -177 -82q-85 0 -137.5 40t-52.5 112q0 41 18.5 71t54 49t77 30t98.5 19q48 7 108 12q0 75 -28.5 105.5t-84.5 30.5q-108 0 -119 -98h-99q4 83 64.5 130.5t155.5 47.5q46 0 80.5 -9.5t65.5 -34t47 -74.5t16 -124v-102q0 -126 13 -195z
M394 250q-138 -13 -193.5 -34.5t-55.5 -72.5q0 -37 28 -58.5t76 -21.5q71 0 107.5 40.5t36.5 118.5v16q0 9 1 12zM496 -48l94 -115h-125l-75 115h106z" />
    <glyph glyph-name="Cacute" unicode="&#x106;" horiz-adv-x="756" 
d="M615 209h110q-38 -105 -121.5 -164t-207.5 -59q-156 0 -254.5 103.5t-98.5 268.5t99.5 268t258.5 103q125 0 208 -59.5t117 -171.5h-108q-62 142 -218 142q-114 0 -178.5 -77t-64.5 -204t65 -206t179 -79q150 0 214 135zM577 875l-135 -114h-106l108 114h133z" />
    <glyph glyph-name="cacute" unicode="&#x107;" horiz-adv-x="584" 
d="M444 168h105q-21 -82 -83.5 -131.5t-158.5 -49.5q-122 0 -194.5 78t-72.5 199q0 120 73.5 197.5t194.5 77.5q99 0 161 -50.5t81 -136.5h-104q-17 49 -54 76t-88 27q-73 0 -115 -53.5t-42 -138.5q0 -89 41.5 -140.5t115.5 -51.5q103 0 140 97zM488 715l-141 -119h-106
l114 119h133z" />
    <glyph glyph-name="Ccircumflex" unicode="&#x108;" horiz-adv-x="756" 
d="M615 209h110q-38 -105 -121.5 -164t-207.5 -59q-156 0 -254.5 103.5t-98.5 268.5t99.5 268t258.5 103q125 0 208 -59.5t117 -171.5h-108q-62 142 -218 142q-114 0 -178.5 -77t-64.5 -204t65 -206t179 -79q150 0 214 135zM349 875h109q15 -17 48 -56.5t49 -57.5h-93
l-59 61l-57 -61h-94q11 13 45 53.5t52 60.5z" />
    <glyph glyph-name="ccircumflex" unicode="&#x109;" horiz-adv-x="584" 
d="M444 168h105q-21 -82 -83.5 -131.5t-158.5 -49.5q-122 0 -194.5 78t-72.5 199q0 120 73.5 197.5t194.5 77.5q99 0 161 -50.5t81 -136.5h-104q-17 49 -54 76t-88 27q-73 0 -115 -53.5t-42 -138.5q0 -89 41.5 -140.5t115.5 -51.5q103 0 140 97zM252 715h109q13 -15 48 -57
t53 -62h-93l-63 66l-61 -66h-94q18 20 53 62t48 57z" />
    <glyph glyph-name="Cdotaccent" unicode="&#x10a;" horiz-adv-x="756" 
d="M615 209h110q-38 -105 -121.5 -164t-207.5 -59q-156 0 -254.5 103.5t-98.5 268.5t99.5 268t258.5 103q125 0 208 -59.5t117 -171.5h-108q-62 142 -218 142q-114 0 -178.5 -77t-64.5 -204t65 -206t179 -79q150 0 214 135zM353 767v96h98v-96h-98z" />
    <glyph glyph-name="cdotaccent" unicode="&#x10b;" horiz-adv-x="584" 
d="M444 168h105q-21 -82 -83.5 -131.5t-158.5 -49.5q-122 0 -194.5 78t-72.5 199q0 120 73.5 197.5t194.5 77.5q99 0 161 -50.5t81 -136.5h-104q-17 49 -54 76t-88 27q-73 0 -115 -53.5t-42 -138.5q0 -89 41.5 -140.5t115.5 -51.5q103 0 140 97zM258 611v96h98v-96h-98z" />
    <glyph glyph-name="Ccaron" unicode="&#x10c;" horiz-adv-x="756" 
d="M615 209h110q-38 -105 -121.5 -164t-207.5 -59q-156 0 -254.5 103.5t-98.5 268.5t99.5 268t258.5 103q125 0 208 -59.5t117 -171.5h-108q-62 142 -218 142q-114 0 -178.5 -77t-64.5 -204t65 -206t179 -79q150 0 214 135zM456 761h-109q-18 20 -52 60.5t-45 53.5h94
l57 -61l59 61h93q-16 -18 -49 -57.5t-48 -56.5z" />
    <glyph glyph-name="ccaron" unicode="&#x10d;" horiz-adv-x="584" 
d="M444 168h105q-21 -82 -83.5 -131.5t-158.5 -49.5q-122 0 -194.5 78t-72.5 199q0 120 73.5 197.5t194.5 77.5q99 0 161 -50.5t81 -136.5h-104q-17 49 -54 76t-88 27q-73 0 -115 -53.5t-42 -138.5q0 -89 41.5 -140.5t115.5 -51.5q103 0 140 97zM364 596h-109q-13 15 -48 57
t-53 62h94l61 -66l63 66h93q-18 -20 -53 -62t-48 -57z" />
    <glyph glyph-name="Dcaron" unicode="&#x10e;" horiz-adv-x="724" 
d="M87 0v715h195q198 0 297.5 -91.5t99.5 -267.5q0 -76 -21.5 -139t-65.5 -112.5t-119 -77t-174 -27.5h-212zM193 624v-535h81q146 0 218.5 62t72.5 205q0 132 -72.5 200.5t-208.5 68.5q-10 0 -30 -0.5t-29 -0.5h-32zM393 761h-109q-18 20 -52 60.5t-45 53.5h94l57 -61
l59 61h93q-16 -18 -49 -57.5t-48 -56.5z" />
    <glyph glyph-name="dcaron" unicode="&#x10f;" horiz-adv-x="713" 
d="M556 0h-94v74q-57 -86 -178 -86q-108 0 -176 76.5t-68 199.5q0 121 67.5 199t179.5 78q57 0 101 -24t68 -60q-1 19 -1 52v206h101v-715zM305 456q-73 0 -114.5 -53.5t-41.5 -139.5q0 -89 41 -140.5t114 -51.5q74 0 115 52t41 140q0 86 -41.5 139.5t-113.5 53.5zM788 715
l-85 -241h-87l68 241h104z" />
    <glyph glyph-name="Dcroat" unicode="&#x110;" horiz-adv-x="729" 
d="M25 318v90h68v307h196q127 0 213 -39q182 -86 182 -320q0 -185 -121 -281q-48 -38 -108 -56.5t-151 -18.5h-211v318h-68zM199 623v-215h140v-90h-140v-229h80q145 0 218 62t73 205q0 132 -72.5 200.5t-207.5 68.5h-46q-15 0 -45 -2z" />
    <glyph glyph-name="dcroat" unicode="&#x111;" horiz-adv-x="632" 
d="M383 573v78h74v64h102v-64h54v-78h-54v-573h-95v73q-56 -85 -179 -85q-108 0 -176.5 76.5t-68.5 199.5q0 120 68 198t180 78q58 0 102 -23.5t68 -59.5q-1 18 -1 51v65h-74zM306 72q74 0 115.5 51.5t41.5 139.5q0 85 -42.5 138.5t-114.5 53.5q-73 0 -115 -53.5t-42 -138.5
q0 -88 41.5 -139.5t115.5 -51.5z" />
    <glyph glyph-name="Emacron" unicode="&#x112;" horiz-adv-x="587" 
d="M87 0v715h448v-92h-342v-212h318v-91h-318v-229h349v-91h-455zM181 781v67h262v-67h-262z" />
    <glyph glyph-name="emacron" unicode="&#x113;" horiz-adv-x="588" 
d="M553 236h-411q2 -71 47 -118t118 -47q87 0 134 79h101q-22 -74 -85 -118.5t-154 -44.5q-121 0 -192 74.5t-71 198.5t73 202t190 78q121 0 185.5 -78.5t64.5 -192.5v-33zM146 316h302q-7 65 -45 103.5t-102 38.5q-63 0 -105 -38t-50 -104zM172 618v67h262v-67h-262z" />
    <glyph glyph-name="Ebreve" unicode="&#x114;" horiz-adv-x="587" 
d="M87 0v715h448v-92h-342v-212h318v-91h-318v-229h349v-91h-455zM323 826q58 0 72 53h74q-9 -57 -46.5 -87t-99.5 -30q-61 0 -99 30t-47 87h75q14 -53 71 -53z" />
    <glyph glyph-name="ebreve" unicode="&#x115;" horiz-adv-x="588" 
d="M553 236h-411q2 -71 47 -118t118 -47q87 0 134 79h101q-22 -74 -85 -118.5t-154 -44.5q-121 0 -192 74.5t-71 198.5t73 202t190 78q121 0 185.5 -78.5t64.5 -192.5v-33zM146 316h302q-7 65 -45 103.5t-102 38.5q-63 0 -105 -38t-50 -104zM299 662q58 0 72 53h74
q-9 -57 -46.5 -87t-99.5 -30q-61 0 -99 30t-47 87h75q14 -53 71 -53z" />
    <glyph glyph-name="Edotaccent" unicode="&#x116;" horiz-adv-x="587" 
d="M87 0v715h448v-92h-342v-212h318v-91h-318v-229h349v-91h-455zM265 767v96h98v-96h-98z" />
    <glyph glyph-name="edotaccent" unicode="&#x117;" horiz-adv-x="588" 
d="M553 236h-411q2 -71 47 -118t118 -47q87 0 134 79h101q-22 -74 -85 -118.5t-154 -44.5q-121 0 -192 74.5t-71 198.5t73 202t190 78q121 0 185.5 -78.5t64.5 -192.5v-33zM146 316h302q-7 65 -45 103.5t-102 38.5q-63 0 -105 -38t-50 -104zM253 611v96h98v-96h-98z" />
    <glyph glyph-name="Eogonek" unicode="&#x118;" horiz-adv-x="587" 
d="M87 0v715h448v-92h-342v-212h318v-91h-318v-229h349v-91h-455zM362 -48l94 -115h-125l-75 115h106z" />
    <glyph glyph-name="eogonek" unicode="&#x119;" horiz-adv-x="588" 
d="M553 236h-411q2 -71 47 -118t118 -47q87 0 134 79h101q-22 -74 -85 -118.5t-154 -44.5q-121 0 -192 74.5t-71 198.5t73 202t190 78q121 0 185.5 -78.5t64.5 -192.5v-33zM146 316h302q-7 65 -45 103.5t-102 38.5q-63 0 -105 -38t-50 -104zM339 -48l94 -115h-125l-75 115
h106z" />
    <glyph glyph-name="Ecaron" unicode="&#x11a;" horiz-adv-x="587" 
d="M87 0v715h448v-92h-342v-212h318v-91h-318v-229h349v-91h-455zM374 761h-109q-18 20 -52 60.5t-45 53.5h94l57 -61l59 61h93q-16 -18 -49 -57.5t-48 -56.5z" />
    <glyph glyph-name="ecaron" unicode="&#x11b;" horiz-adv-x="588" 
d="M553 236h-411q2 -71 47 -118t118 -47q87 0 134 79h101q-22 -74 -85 -118.5t-154 -44.5q-121 0 -192 74.5t-71 198.5t73 202t190 78q121 0 185.5 -78.5t64.5 -192.5v-33zM146 316h302q-7 65 -45 103.5t-102 38.5q-63 0 -105 -38t-50 -104zM357 596h-109q-13 15 -48 57
t-53 62h94l61 -66l63 66h93q-18 -20 -53 -62t-48 -57z" />
    <glyph glyph-name="Gcircumflex" unicode="&#x11c;" horiz-adv-x="784" 
d="M371 378h355v-378h-96v36q0 35 1 54q-88 -106 -240 -106q-153 0 -250.5 102t-97.5 270q0 163 99 268t261 105q129 0 211.5 -62.5t111.5 -165.5h-109q-59 139 -215 139q-112 0 -178.5 -75t-66.5 -208q0 -130 66 -207.5t177 -77.5q56 0 100 19t71.5 50.5t42.5 68.5t18 77
h-261v91zM350 875h109q15 -17 48 -56.5t49 -57.5h-93l-59 61l-57 -61h-94q11 13 45 53.5t52 60.5z" />
    <glyph glyph-name="gcircumflex" unicode="&#x11d;" horiz-adv-x="631" 
d="M559 525v-424q0 -293 -263 -293q-96 0 -156 46t-82 127h106q36 -91 134 -91q88 0 125.5 53t37.5 164l-2 1q-51 -85 -176 -85q-110 0 -176 71.5t-66 185.5q0 116 68 188.5t175 72.5q117 0 176 -82q-1 5 -1 16v50h100zM306 456q-72 0 -113.5 -47t-41.5 -128
q0 -78 41.5 -126.5t113.5 -48.5q69 0 112.5 47t43.5 131q0 78 -42 125t-114 47zM263 715h109q13 -15 48 -57t53 -62h-93l-63 66l-61 -66h-94q18 20 53 62t48 57z" />
    <glyph glyph-name="Gbreve" unicode="&#x11e;" horiz-adv-x="784" 
d="M371 378h355v-378h-96v36q0 35 1 54q-88 -106 -240 -106q-153 0 -250.5 102t-97.5 270q0 163 99 268t261 105q129 0 211.5 -62.5t111.5 -165.5h-109q-59 139 -215 139q-112 0 -178.5 -75t-66.5 -208q0 -130 66 -207.5t177 -77.5q56 0 100 19t71.5 50.5t42.5 68.5t18 77
h-261v91zM402 826q58 0 72 53h74q-9 -57 -46.5 -87t-99.5 -30q-61 0 -99 30t-47 87h75q14 -53 71 -53z" />
    <glyph glyph-name="gbreve" unicode="&#x11f;" horiz-adv-x="631" 
d="M559 525v-424q0 -293 -263 -293q-96 0 -156 46t-82 127h106q36 -91 134 -91q88 0 125.5 53t37.5 164l-2 1q-51 -85 -176 -85q-110 0 -176 71.5t-66 185.5q0 116 68 188.5t175 72.5q117 0 176 -82q-1 5 -1 16v50h100zM306 456q-72 0 -113.5 -47t-41.5 -128
q0 -78 41.5 -126.5t113.5 -48.5q69 0 112.5 47t43.5 131q0 78 -42 125t-114 47zM311 662q58 0 72 53h74q-9 -57 -46.5 -87t-99.5 -30q-61 0 -99 30t-47 87h75q14 -53 71 -53z" />
    <glyph glyph-name="Gdotaccent" unicode="&#x120;" horiz-adv-x="784" 
d="M371 378h355v-378h-96v36q0 35 1 54q-88 -106 -240 -106q-153 0 -250.5 102t-97.5 270q0 163 99 268t261 105q129 0 211.5 -62.5t111.5 -165.5h-109q-59 139 -215 139q-112 0 -178.5 -75t-66.5 -208q0 -130 66 -207.5t177 -77.5q56 0 100 19t71.5 50.5t42.5 68.5t18 77
h-261v91zM354 767v96h98v-96h-98z" />
    <glyph glyph-name="gdotaccent" unicode="&#x121;" horiz-adv-x="631" 
d="M559 525v-424q0 -293 -263 -293q-96 0 -156 46t-82 127h106q36 -91 134 -91q88 0 125.5 53t37.5 164l-2 1q-51 -85 -176 -85q-110 0 -176 71.5t-66 185.5q0 116 68 188.5t175 72.5q117 0 176 -82q-1 5 -1 16v50h100zM306 456q-72 0 -113.5 -47t-41.5 -128
q0 -78 41.5 -126.5t113.5 -48.5q69 0 112.5 47t43.5 131q0 78 -42 125t-114 47zM254 611v96h98v-96h-98z" />
    <glyph glyph-name="Gcommaaccent" unicode="&#x122;" horiz-adv-x="784" 
d="M371 378h355v-378h-96v36q0 35 1 54q-88 -106 -240 -106q-153 0 -250.5 102t-97.5 270q0 163 99 268t261 105q129 0 211.5 -62.5t111.5 -165.5h-109q-59 139 -215 139q-112 0 -178.5 -75t-66.5 -208q0 -130 66 -207.5t177 -77.5q56 0 100 19t71.5 50.5t42.5 68.5t18 77
h-261v91zM259 -163l94 115h106l-75 -115h-125z" />
    <glyph glyph-name="gcommaaccent" unicode="&#x123;" horiz-adv-x="631" 
d="M559 525v-424q0 -293 -263 -293q-96 0 -156 46t-82 127h106q36 -91 134 -91q88 0 125.5 53t37.5 164l-2 1q-51 -85 -176 -85q-110 0 -176 71.5t-66 185.5q0 116 68 188.5t175 72.5q117 0 176 -82q-1 5 -1 16v50h100zM306 456q-72 0 -113.5 -47t-41.5 -128
q0 -78 41.5 -126.5t113.5 -48.5q69 0 112.5 47t43.5 131q0 78 -42 125t-114 47zM428 715l-94 -115h-106l75 115h125z" />
    <glyph glyph-name="Hcircumflex" unicode="&#x124;" horiz-adv-x="715" 
d="M192 0h-105v715h105v-303h332v303h104v-715h-104v323h-332v-323zM307 875h109q15 -17 48 -56.5t49 -57.5h-93l-59 61l-57 -61h-94q11 13 45 53.5t52 60.5z" />
    <glyph glyph-name="hcircumflex" unicode="&#x125;" horiz-adv-x="590" 
d="M73 715h101v-190q0 -13 -0.5 -36.5t-0.5 -32.5q17 33 60 58.5t106 25.5q89 0 136.5 -56.5t47.5 -157.5v-326h-102v284q0 170 -117 170q-59 0 -94.5 -43t-35.5 -105v-306h-101v715zM71 875h109q15 -17 48 -56.5t49 -57.5h-93l-59 61l-57 -61h-94q11 13 45 53.5t52 60.5z
" />
    <glyph glyph-name="Hbar" unicode="&#x126;" horiz-adv-x="712" 
d="M87 0v715h105v-98h328v98h105v-715h-105v322h-328v-322h-105zM192 411h328v116h-328v-116z" />
    <glyph glyph-name="hbar" unicode="&#x127;" horiz-adv-x="591" 
d="M73 715h102v-64h74v-78h-74v-63q0 -40 -1 -55q17 32 60 58t106 26q89 0 136 -57t47 -158v-324h-102v283q0 170 -117 170q-58 0 -92.5 -41.5t-36.5 -104.5v-307h-102v573h-54v78h54v64z" />
    <glyph glyph-name="Itilde" unicode="&#x128;" horiz-adv-x="279" 
d="M87 0v715h105v-715h-105zM52 763h-62q2 49 24.5 78.5t61.5 29.5q29 0 74 -23q38 -18 52 -18q25 0 32 40h60q-2 -49 -24.5 -79t-59.5 -30q-27 0 -67 19q-43 22 -58 22q-25 0 -33 -39z" />
    <glyph glyph-name="itilde" unicode="&#x129;" horiz-adv-x="248" 
d="M73 525h102v-525h-102v525zM37 608h-62q2 49 24.5 78.5t61.5 29.5q29 0 74 -23q38 -18 52 -18q25 0 32 40h60q-2 -49 -24.5 -79t-59.5 -30q-27 0 -67 19q-43 22 -58 22q-26 0 -33 -39z" />
    <glyph glyph-name="Imacron" unicode="&#x12a;" horiz-adv-x="279" 
d="M87 0v715h105v-715h-105zM9 781v67h262v-67h-262z" />
    <glyph glyph-name="imacron" unicode="&#x12b;" horiz-adv-x="248" 
d="M73 525h102v-525h-102v525zM-8 618v67h262v-67h-262z" />
    <glyph glyph-name="Ibreve" unicode="&#x12c;" horiz-adv-x="279" 
d="M87 0v715h105v-715h-105zM141 826q58 0 72 53h74q-9 -57 -46.5 -87t-99.5 -30q-61 0 -99 30t-47 87h75q14 -53 71 -53z" />
    <glyph glyph-name="ibreve" unicode="&#x12d;" horiz-adv-x="248" 
d="M73 525h102v-525h-102v525zM124 662q58 0 72 53h74q-9 -57 -46.5 -87t-99.5 -30q-61 0 -99 30t-47 87h75q14 -53 71 -53z" />
    <glyph glyph-name="Iogonek" unicode="&#x12e;" horiz-adv-x="279" 
d="M87 0v715h105v-715h-105zM190 -48l94 -115h-125l-75 115h106z" />
    <glyph glyph-name="iogonek" unicode="&#x12f;" horiz-adv-x="247" 
d="M73 525h101v-525h-101v525zM71 601v114h105v-114h-105zM167 -48l94 -115h-125l-75 115h106z" />
    <glyph glyph-name="Idotaccent" unicode="&#x130;" horiz-adv-x="279" 
d="M87 0v715h105v-715h-105zM92 767v96h98v-96h-98z" />
    <glyph glyph-name="dotlessi" unicode="&#x131;" horiz-adv-x="248" 
d="M73 525h102v-525h-102v525z" />
    <glyph glyph-name="IJ" unicode="&#x132;" horiz-adv-x="769" 
d="M87 0v715h105v-715h-105zM304 173h100q0 -105 86 -105q30 0 49.5 12.5t28.5 38.5t12 53t3 67v476h105v-503q0 -104 -46 -165t-148 -61q-187 0 -190 187z" />
    <glyph glyph-name="ij" unicode="&#x133;" horiz-adv-x="495" 
d="M73 525h101v-525h-101v525zM71 601v114h105v-114h-105zM320 525h102v-566q0 -95 -37 -125.5t-113 -30.5q-32 0 -49 4v76q2 -2 23 -2q39 0 56.5 14.5t17.5 60.5v569zM318 601v114h106v-114h-106z" />
    <glyph glyph-name="Jcircumflex" unicode="&#x134;" horiz-adv-x="490" 
d="M25 173h100q0 -105 86 -105q30 0 49.5 12.5t28.5 38.5t12 53t3 67v476h105v-503q0 -104 -46 -165t-148 -61q-187 0 -190 187zM302 875h109q15 -17 48 -56.5t49 -57.5h-93l-59 61l-57 -61h-94q11 13 45 53.5t52 60.5z" />
    <glyph glyph-name="jcircumflex" unicode="&#x135;" horiz-adv-x="248" 
d="M73 525h102v-565q0 -90 -34 -124q-33 -33 -116 -33q-33 0 -49 4v75q1 -1 6 -1h16q47 0 63 21q12 16 12 52v571zM71 715h109q13 -15 48 -57t53 -62h-93l-63 66l-61 -66h-94q18 20 53 62t48 57z" />
    <glyph glyph-name="Kcommaaccent" unicode="&#x136;" horiz-adv-x="605" 
d="M87 0v715h104v-325l286 325h129l-303 -327q52 -67 158 -197t154 -191h-133q-52 69 -151.5 190.5t-139.5 173.5v-364h-104zM192 -163l94 115h106l-75 -115h-125z" />
    <glyph glyph-name="kcommaaccent" unicode="&#x137;" horiz-adv-x="521" 
d="M73 0v715h102v-423l54 64l142 169h125l-217 -236l38 -47l63 -75l140 -167h-135q-53 64 -129 161l-81 103v-264h-102zM137 -163l94 115h106l-75 -115h-125z" />
    <glyph glyph-name="kgreenlandic" unicode="&#x138;" horiz-adv-x="521" 
d="M520 0h-136l-128 161l-80 102v-263h-103v525h103v-234q7 8 34 41t42 50q22 27 63.5 77t54.5 66h125l-142 -156l-73 -80q3 -4 240 -289z" />
    <glyph glyph-name="Lacute" unicode="&#x139;" horiz-adv-x="534" 
d="M87 0v715h106v-624h314v-91h-420zM341 875l-135 -114h-106l108 114h133z" />
    <glyph glyph-name="lacute" unicode="&#x13a;" horiz-adv-x="255" 
d="M77 0v715h101v-715h-101zM306 875l-135 -114h-106l108 114h133z" />
    <glyph glyph-name="Lcommaaccent" unicode="&#x13b;" horiz-adv-x="534" 
d="M87 0v715h106v-624h314v-91h-420zM182 -163l94 115h106l-75 -115h-125z" />
    <glyph glyph-name="lcommaaccent" unicode="&#x13c;" horiz-adv-x="255" 
d="M77 0v715h101v-715h-101zM-6 -163l94 115h106l-75 -115h-125z" />
    <glyph glyph-name="Lcaron" unicode="&#x13d;" horiz-adv-x="534" 
d="M87 0v715h106v-624h314v-91h-420zM460 715l-85 -241h-87l68 241h104z" />
    <glyph glyph-name="lcaron" unicode="&#x13e;" horiz-adv-x="334" 
d="M77 0v715h101v-715h-101zM409 715l-85 -241h-87l68 241h104z" />
    <glyph glyph-name="Ldot" unicode="&#x13f;" horiz-adv-x="534" 
d="M87 0v715h106v-624h314v-91h-420zM268 261v120h107v-120h-107z" />
    <glyph glyph-name="ldot" unicode="&#x140;" horiz-adv-x="366" 
d="M77 0v715h101v-715h-101zM257 261v120h107v-120h-107z" />
    <glyph glyph-name="Lslash" unicode="&#x141;" horiz-adv-x="542" 
d="M95 715h106v-274l129 84v-93l-129 -84v-256h310v-92h-416v278l-84 -54v93l84 54v344z" />
    <glyph glyph-name="lslash" unicode="&#x142;" horiz-adv-x="279" 
d="M85 0v303l-75 -49v93l75 49v319h102v-252l84 55v-93l-84 -55v-370h-102z" />
    <glyph glyph-name="Nacute" unicode="&#x143;" horiz-adv-x="749" 
d="M87 0v715h140l243 -418l89 -155l1 1q0 17 -1 87t-1 108v377h104v-715h-136l-237 402q-95 166 -98 172h-1v-48q0 -21 0.5 -71.5t0.5 -76.5v-378h-104zM549 875l-135 -114h-106l108 114h133z" />
    <glyph glyph-name="nacute" unicode="&#x144;" horiz-adv-x="590" 
d="M172 525v-71q52 86 167 86q90 0 137 -57t47 -160v-323h-102v285q0 169 -117 169q-61 0 -95.5 -43t-34.5 -108v-303h-101v485q0 27 -1 40h100zM477 715l-141 -119h-106l114 119h133z" />
    <glyph glyph-name="Ncommaaccent" unicode="&#x145;" horiz-adv-x="749" 
d="M87 0v715h140l243 -418l89 -155l1 1q0 17 -1 87t-1 108v377h104v-715h-136l-237 402q-95 166 -98 172h-1v-48q0 -21 0.5 -71.5t0.5 -76.5v-378h-104zM465 -48l-94 -115h-106l75 115h125z" />
    <glyph glyph-name="ncommaaccent" unicode="&#x146;" horiz-adv-x="590" 
d="M172 525v-71q52 86 167 86q90 0 137 -57t47 -160v-323h-102v285q0 169 -117 169q-61 0 -95.5 -43t-34.5 -108v-303h-101v485q0 27 -1 40h100zM387 -48l-94 -115h-106l75 115h125z" />
    <glyph glyph-name="Ncaron" unicode="&#x147;" horiz-adv-x="749" 
d="M87 0v715h140l243 -418l89 -155l1 1q0 17 -1 87t-1 108v377h104v-715h-136l-237 402q-95 166 -98 172h-1v-48q0 -21 0.5 -71.5t0.5 -76.5v-378h-104zM446 761h-109q-18 20 -52 60.5t-45 53.5h94l57 -61l59 61h93q-16 -18 -49 -57.5t-48 -56.5z" />
    <glyph glyph-name="ncaron" unicode="&#x148;" horiz-adv-x="590" 
d="M172 525v-71q52 86 167 86q90 0 137 -57t47 -160v-323h-102v285q0 169 -117 169q-61 0 -95.5 -43t-34.5 -108v-303h-101v485q0 27 -1 40h100zM372 596h-109q-13 15 -48 57t-53 62h94l61 -66l63 66h93q-18 -20 -53 -62t-48 -57z" />
    <glyph glyph-name="napostrophe" unicode="&#x149;" horiz-adv-x="647" 
d="M229 525v-71q52 86 167 86q90 0 137 -57t47 -160v-323h-102v285q0 169 -117 169q-61 0 -95.5 -43t-34.5 -108v-303h-101v485q0 27 -1 40h100zM168 715l-85 -241h-87l68 241h104z" />
    <glyph glyph-name="Eng" unicode="&#x14a;" horiz-adv-x="749" 
d="M87 0v715h140l244 -418l34 -59l28 -49l26 -47l1 1q0 17 -1 87t-1 108v377h104v-667q0 -79 -19 -130q-44 -110 -176 -110q-186 0 -189 187h100q0 -45 21 -75t68 -30q88 0 90 110h-33l-235 399q-79 136 -97 172h-1v-48q0 -21 0.5 -70.5t0.5 -74.5v-378h-105z" />
    <glyph glyph-name="eng" unicode="&#x14b;" horiz-adv-x="591" 
d="M175 0h-102v485q0 27 -1 40h101v-72q50 86 167 86q89 0 136 -57t47 -158v-364q0 -90 -34 -124q-33 -33 -116 -33q-33 0 -49 4v75q1 -1 6 -1h16q47 0 63 21q12 16 12 52v329q0 170 -117 170q-58 0 -93.5 -44t-35.5 -108v-301z" />
    <glyph glyph-name="Omacron" unicode="&#x14c;" horiz-adv-x="806" 
d="M402 729q162 0 261.5 -103t99.5 -269t-99 -268.5t-261 -102.5t-261 102.5t-99 268.5t99.5 269t259.5 103zM401 640q-114 0 -179.5 -78t-65.5 -204q0 -125 66.5 -204.5t179.5 -79.5t179.5 79t66.5 205t-66 204t-181 78zM274 781v67h262v-67h-262z" />
    <glyph glyph-name="omacron" unicode="&#x14d;" horiz-adv-x="611" 
d="M306 539q121 0 193 -77t72 -201q0 -122 -71.5 -198t-195.5 -76t-194 75.5t-70 198.5q0 124 72 201t194 77zM303 455q-73 0 -114.5 -53.5t-41.5 -139.5q0 -89 41 -140t115 -51t115.5 51t41.5 140q0 86 -42 139.5t-115 53.5zM173 618v67h262v-67h-262z" />
    <glyph glyph-name="Obreve" unicode="&#x14e;" horiz-adv-x="806" 
d="M402 729q162 0 261.5 -103t99.5 -269t-99 -268.5t-261 -102.5t-261 102.5t-99 268.5t99.5 269t259.5 103zM401 640q-114 0 -179.5 -78t-65.5 -204q0 -125 66.5 -204.5t179.5 -79.5t179.5 79t66.5 205t-66 204t-181 78zM404 826q58 0 72 53h74q-9 -57 -46.5 -87t-99.5 -30
q-61 0 -99 30t-47 87h75q14 -53 71 -53z" />
    <glyph glyph-name="obreve" unicode="&#x14f;" horiz-adv-x="611" 
d="M306 539q121 0 193 -77t72 -201q0 -122 -71.5 -198t-195.5 -76t-194 75.5t-70 198.5q0 124 72 201t194 77zM303 455q-73 0 -114.5 -53.5t-41.5 -139.5q0 -89 41 -140t115 -51t115.5 51t41.5 140q0 86 -42 139.5t-115 53.5zM303 662q58 0 72 53h74q-9 -57 -46.5 -87
t-99.5 -30q-61 0 -99 30t-47 87h75q14 -53 71 -53z" />
    <glyph glyph-name="Ohungarumlaut" unicode="&#x150;" horiz-adv-x="806" 
d="M402 729q162 0 261.5 -103t99.5 -269t-99 -268.5t-261 -102.5t-261 102.5t-99 268.5t99.5 269t259.5 103zM401 640q-114 0 -179.5 -78t-65.5 -204q0 -125 66.5 -204.5t179.5 -79.5t179.5 79t66.5 205t-66 204t-181 78zM465 875l-134 -114h-101l107 114h128zM658 875
l-134 -114h-101l107 114h128z" />
    <glyph glyph-name="ohungarumlaut" unicode="&#x151;" horiz-adv-x="611" 
d="M306 539q121 0 193 -77t72 -201q0 -122 -71.5 -198t-195.5 -76t-194 75.5t-70 198.5q0 124 72 201t194 77zM303 455q-73 0 -114.5 -53.5t-41.5 -139.5q0 -89 41 -140t115 -51t115.5 51t41.5 140q0 86 -42 139.5t-115 53.5zM378 715l-141 -119h-101l114 119h128zM571 715
l-141 -119h-101l114 119h128z" />
    <glyph glyph-name="OE" unicode="&#x152;" horiz-adv-x="1129" 
d="M634 0v74q-84 -88 -241 -88t-253.5 104t-96.5 266q0 163 96.5 267t253.5 104q138 0 241 -88v76h443v-92h-339v-211h315v-92h-315v-228h346v-92h-450zM398 640q-114 0 -178 -78t-64 -204q0 -125 65 -204t178 -79q112 0 177.5 79t65.5 204q0 126 -65 204t-179 78z" />
    <glyph glyph-name="oe" unicode="&#x153;" horiz-adv-x="1007" 
d="M860 151h101q-22 -74 -85.5 -119t-154.5 -45q-137 0 -208 96q-70 -96 -209 -96q-123 0 -193.5 76.5t-70.5 198.5q0 124 72 201t194 77q138 0 209 -100q75 101 207 101q122 0 186.5 -79.5t64.5 -194.5v-11t-0.5 -8.5t-0.5 -5.5v-4v-1h-413q4 -73 48 -119.5t118 -46.5
q87 0 135 80zM304 456q-73 0 -115 -53.5t-42 -139.5q0 -89 41.5 -140.5t115.5 -51.5t116 51.5t42 140.5q0 85 -43 139t-115 54zM563 317h304q-7 64 -46 103t-101 39q-63 0 -106 -38t-51 -104z" />
    <glyph glyph-name="Racute" unicode="&#x154;" horiz-adv-x="619" 
d="M87 0v715h216q128 0 188 -41q85 -56 85 -168q0 -88 -48 -137.5t-125 -65.5q90 -146 183 -303h-126q-8 15 -166 287h-102v-287h-105zM192 622v-244h110q160 0 160 124q0 121 -160 121h-57q-36 0 -53 -1zM461 875l-135 -114h-106l108 114h133z" />
    <glyph glyph-name="racute" unicode="&#x155;" horiz-adv-x="339" 
d="M72 525h97v-67q13 37 47.5 58.5t79.5 21.5q12 0 26 -2v-92q-9 3 -35 3q-66 0 -89.5 -43.5t-23.5 -131.5v-272h-101v478q0 31 -1 47zM317 715l-141 -119h-106l114 119h133z" />
    <glyph glyph-name="Rcommaaccent" unicode="&#x156;" horiz-adv-x="619" 
d="M87 0v715h216q128 0 188 -41q85 -56 85 -168q0 -88 -48 -137.5t-125 -65.5q90 -146 183 -303h-126q-8 15 -166 287h-102v-287h-105zM192 622v-244h110q160 0 160 124q0 121 -160 121h-57q-36 0 -53 -1zM193 -163l94 115h106l-75 -115h-125z" />
    <glyph glyph-name="rcommaaccent" unicode="&#x157;" horiz-adv-x="339" 
d="M72 525h97v-67q13 37 47.5 58.5t79.5 21.5q12 0 26 -2v-92q-9 3 -35 3q-66 0 -89.5 -43.5t-23.5 -131.5v-272h-101v478q0 31 -1 47zM10 -163l94 115h106l-75 -115h-125z" />
    <glyph glyph-name="Rcaron" unicode="&#x158;" horiz-adv-x="619" 
d="M87 0v715h216q128 0 188 -41q85 -56 85 -168q0 -88 -48 -137.5t-125 -65.5q90 -146 183 -303h-126q-8 15 -166 287h-102v-287h-105zM192 622v-244h110q160 0 160 124q0 121 -160 121h-57q-36 0 -53 -1zM360 761h-109q-18 20 -52 60.5t-45 53.5h94l57 -61l59 61h93
q-16 -18 -49 -57.5t-48 -56.5z" />
    <glyph glyph-name="rcaron" unicode="&#x159;" horiz-adv-x="339" 
d="M72 525h97v-67q13 37 47.5 58.5t79.5 21.5q12 0 26 -2v-92q-9 3 -35 3q-66 0 -89.5 -43.5t-23.5 -131.5v-272h-101v478q0 31 -1 47zM205 596h-109q-13 15 -48 57t-53 62h94l61 -66l63 66h93q-18 -20 -53 -62t-48 -57z" />
    <glyph glyph-name="Sacute" unicode="&#x15a;" horiz-adv-x="611" 
d="M36 203h107q23 -133 165 -133q70 0 110.5 32.5t40.5 87.5q0 19 -4 34t-16 27t-20.5 19.5t-31 16.5t-33 12.5l-40.5 13.5l-47 15q-105 33 -157 78.5t-52 126.5q0 87 68.5 142t179.5 55q112 0 175.5 -53t73.5 -147h-108q-19 113 -144 113q-62 0 -97 -27.5t-35 -73.5
q0 -50 34.5 -74.5t106.5 -46.5l50 -15q105 -31 156.5 -75.5t51.5 -127.5q0 -98 -73 -157.5t-190 -59.5q-121 0 -192.5 57t-78.5 160zM476 875l-135 -114h-106l108 114h133z" />
    <glyph glyph-name="sacute" unicode="&#x15b;" horiz-adv-x="503" 
d="M33 160h100q27 -90 127 -90q46 0 74.5 19.5t28.5 54.5q0 33 -28.5 48.5t-95.5 31.5l-37 10q-72 17 -112 52t-40 99q0 69 56 111.5t145 42.5t142 -38.5t62 -114.5h-96q-23 73 -111 73q-47 0 -71 -17.5t-24 -47.5t20.5 -44t74.5 -30l56 -16q85 -24 122.5 -56t37.5 -94
q0 -75 -58 -120.5t-149 -45.5q-193 0 -224 172zM424 715l-141 -119h-106l114 119h133z" />
    <glyph glyph-name="Scircumflex" unicode="&#x15c;" horiz-adv-x="611" 
d="M36 203h107q23 -133 165 -133q70 0 110.5 32.5t40.5 87.5q0 19 -4 34t-16 27t-20.5 19.5t-31 16.5t-33 12.5l-40.5 13.5l-47 15q-105 33 -157 78.5t-52 126.5q0 87 68.5 142t179.5 55q112 0 175.5 -53t73.5 -147h-108q-19 113 -144 113q-62 0 -97 -27.5t-35 -73.5
q0 -50 34.5 -74.5t106.5 -46.5l50 -15q105 -31 156.5 -75.5t51.5 -127.5q0 -98 -73 -157.5t-190 -59.5q-121 0 -192.5 57t-78.5 160zM251 875h109q15 -17 48 -56.5t49 -57.5h-93l-59 61l-57 -61h-94q11 13 45 53.5t52 60.5z" />
    <glyph glyph-name="scircumflex" unicode="&#x15d;" horiz-adv-x="503" 
d="M33 160h100q27 -90 127 -90q46 0 74.5 19.5t28.5 54.5q0 33 -28.5 48.5t-95.5 31.5l-37 10q-72 17 -112 52t-40 99q0 69 56 111.5t145 42.5t142 -38.5t62 -114.5h-96q-23 73 -111 73q-47 0 -71 -17.5t-24 -47.5t20.5 -44t74.5 -30l56 -16q85 -24 122.5 -56t37.5 -94
q0 -75 -58 -120.5t-149 -45.5q-193 0 -224 172zM197 715h109q13 -15 48 -57t53 -62h-93l-63 66l-61 -66h-94q18 20 53 62t48 57z" />
    <glyph glyph-name="Scedilla" unicode="&#x15e;" horiz-adv-x="611" 
d="M36 203h107q23 -133 165 -133q70 0 110.5 32.5t40.5 87.5q0 19 -4 34t-16 27t-20.5 19.5t-31 16.5t-33 12.5l-40.5 13.5l-47 15q-105 33 -157 78.5t-52 126.5q0 87 68.5 142t179.5 55q112 0 175.5 -53t73.5 -147h-108q-19 113 -144 113q-62 0 -97 -27.5t-35 -73.5
q0 -50 34.5 -74.5t106.5 -46.5l50 -15q105 -31 156.5 -75.5t51.5 -127.5q0 -98 -73 -157.5t-190 -59.5q-121 0 -192.5 57t-78.5 160zM161 -163l94 115h106l-75 -115h-125z" />
    <glyph glyph-name="scedilla" unicode="&#x15f;" horiz-adv-x="503" 
d="M33 160h100q27 -90 127 -90q46 0 74.5 19.5t28.5 54.5q0 33 -28.5 48.5t-95.5 31.5l-37 10q-72 17 -112 52t-40 99q0 69 56 111.5t145 42.5t142 -38.5t62 -114.5h-96q-23 73 -111 73q-47 0 -71 -17.5t-24 -47.5t20.5 -44t74.5 -30l56 -16q85 -24 122.5 -56t37.5 -94
q0 -75 -58 -120.5t-149 -45.5q-193 0 -224 172zM117 -163l94 115h106l-75 -115h-125z" />
    <glyph glyph-name="Scaron" unicode="&#x160;" horiz-adv-x="611" 
d="M36 203h107q23 -133 165 -133q70 0 110.5 32.5t40.5 87.5q0 19 -4 34t-16 27t-20.5 19.5t-31 16.5t-33 12.5l-40.5 13.5l-47 15q-105 33 -157 78.5t-52 126.5q0 87 68.5 142t179.5 55q112 0 175.5 -53t73.5 -147h-108q-19 113 -144 113q-62 0 -97 -27.5t-35 -73.5
q0 -50 34.5 -74.5t106.5 -46.5l50 -15q105 -31 156.5 -75.5t51.5 -127.5q0 -98 -73 -157.5t-190 -59.5q-121 0 -192.5 57t-78.5 160zM371 761h-109q-18 20 -52 60.5t-45 53.5h94l57 -61l59 61h93q-16 -18 -49 -57.5t-48 -56.5z" />
    <glyph glyph-name="scaron" unicode="&#x161;" horiz-adv-x="503" 
d="M33 160h100q27 -90 127 -90q46 0 74.5 19.5t28.5 54.5q0 33 -28.5 48.5t-95.5 31.5l-37 10q-72 17 -112 52t-40 99q0 69 56 111.5t145 42.5t142 -38.5t62 -114.5h-96q-23 73 -111 73q-47 0 -71 -17.5t-24 -47.5t20.5 -44t74.5 -30l56 -16q85 -24 122.5 -56t37.5 -94
q0 -75 -58 -120.5t-149 -45.5q-193 0 -224 172zM313 596h-109q-13 15 -48 57t-53 62h94l61 -66l63 66h93q-18 -20 -53 -62t-48 -57z" />
    <glyph glyph-name="uni0162" unicode="&#x162;" horiz-adv-x="545" 
d="M137 -163l94 115h106l-75 -115h-125zM220 0v623h-194v92h493v-92h-194v-623h-105z" />
    <glyph glyph-name="uni0163" unicode="&#x163;" horiz-adv-x="322" 
d="M60 -163l94 115h106l-75 -115h-125zM199 667v-142h98v-78h-98v-315q0 -36 16 -50.5t48 -14.5q11 0 25 2v-75q-20 -4 -39 -4q-75 0 -113.5 30.5t-38.5 105.5v321h-79v78h79v142h102z" />
    <glyph glyph-name="Tcaron" unicode="&#x164;" horiz-adv-x="545" 
d="M220 0v623h-194v92h493v-92h-194v-623h-105zM326 761h-109q-18 20 -52 60.5t-45 53.5h94l57 -61l59 61h93q-16 -18 -49 -57.5t-48 -56.5z" />
    <glyph glyph-name="tcaron" unicode="&#x165;" horiz-adv-x="393" 
d="M199 667v-142h98v-78h-98v-315q0 -36 16 -50.5t48 -14.5q11 0 25 2v-75q-20 -4 -39 -4q-75 0 -113.5 30.5t-38.5 105.5v321h-79v78h79v142h102zM487 715l-85 -241h-87l68 241h104z" />
    <glyph glyph-name="Tbar" unicode="&#x166;" horiz-adv-x="557" 
d="M85 317v92h140v214h-190v92h485v-92h-190v-214h153v-92h-153v-317h-105v317h-140z" />
    <glyph glyph-name="tbar" unicode="&#x167;" horiz-adv-x="327" 
d="M22 272v78h78v97h-78v78h78v142h102v-142h97v-78h-97v-97h97v-78h-97v-140q0 -36 16 -50.5t48 -14.5q13 0 23 2v-76q-21 -3 -38 -3q-74 0 -112.5 30.5t-38.5 104.5v147h-78z" />
    <glyph glyph-name="Utilde" unicode="&#x168;" horiz-adv-x="688" 
d="M185 715v-434q0 -95 22 -137q17 -33 53.5 -52t82.5 -19t83.5 19t54.5 52q22 41 22 137v434h105v-437q0 -130 -47 -195q-33 -45 -91 -70t-127 -25t-126 24.5t-89 68.5q-29 41 -38.5 84.5t-9.5 112.5v437h105zM265 763h-62q2 49 24.5 78.5t61.5 29.5q29 0 74 -23
q38 -18 52 -18q25 0 32 40h60q-2 -49 -24.5 -79t-59.5 -30q-27 0 -67 19q-43 22 -58 22q-26 0 -33 -39z" />
    <glyph glyph-name="utilde" unicode="&#x169;" horiz-adv-x="585" 
d="M416 0v75q-53 -88 -167 -88q-182 0 -182 211v327h101v-289q0 -165 116 -165q39 0 65 16.5t39 48t18 66t5 82.5v241h101v-486q0 -26 1 -39h-97zM218 608h-62q2 49 24.5 78.5t61.5 29.5q29 0 74 -23q38 -18 52 -18q25 0 32 40h60q-2 -49 -24.5 -79t-59.5 -30q-27 0 -67 19
q-43 22 -58 22q-25 0 -33 -39z" />
    <glyph glyph-name="Umacron" unicode="&#x16a;" horiz-adv-x="688" 
d="M185 715v-434q0 -95 22 -137q17 -33 53.5 -52t82.5 -19t83.5 19t54.5 52q22 41 22 137v434h105v-437q0 -130 -47 -195q-33 -45 -91 -70t-127 -25t-126 24.5t-89 68.5q-29 41 -38.5 84.5t-9.5 112.5v437h105zM211 781v67h262v-67h-262z" />
    <glyph glyph-name="umacron" unicode="&#x16b;" horiz-adv-x="585" 
d="M416 0v75q-53 -88 -167 -88q-182 0 -182 211v327h101v-289q0 -165 116 -165q39 0 65 16.5t39 48t18 66t5 82.5v241h101v-486q0 -26 1 -39h-97zM168 618v67h262v-67h-262z" />
    <glyph glyph-name="Ubreve" unicode="&#x16c;" horiz-adv-x="688" 
d="M185 715v-434q0 -95 22 -137q17 -33 53.5 -52t82.5 -19t83.5 19t54.5 52q22 41 22 137v434h105v-437q0 -130 -47 -195q-33 -45 -91 -70t-127 -25t-126 24.5t-89 68.5q-29 41 -38.5 84.5t-9.5 112.5v437h105zM342 826q58 0 72 53h74q-9 -57 -46.5 -87t-99.5 -30
q-61 0 -99 30t-47 87h75q14 -53 71 -53z" />
    <glyph glyph-name="ubreve" unicode="&#x16d;" horiz-adv-x="585" 
d="M416 0v75q-53 -88 -167 -88q-182 0 -182 211v327h101v-289q0 -165 116 -165q39 0 65 16.5t39 48t18 66t5 82.5v241h101v-486q0 -26 1 -39h-97zM295 662q58 0 72 53h74q-9 -57 -46.5 -87t-99.5 -30q-61 0 -99 30t-47 87h75q14 -53 71 -53z" />
    <glyph glyph-name="Uring" unicode="&#x16e;" horiz-adv-x="688" 
d="M185 715v-434q0 -95 22 -137q17 -33 53.5 -52t82.5 -19t83.5 19t54.5 52q22 41 22 137v434h105v-437q0 -130 -47 -195q-33 -45 -91 -70t-127 -25t-126 24.5t-89 68.5q-29 41 -38.5 84.5t-9.5 112.5v437h105zM342 748q-37 0 -62 25.5t-25 63.5q0 36 25.5 61.5t62.5 25.5
t62.5 -25.5t25.5 -61.5q0 -38 -25.5 -63.5t-63.5 -25.5zM299 837q0 -19 12.5 -32t30.5 -13q19 0 31.5 12.5t12.5 32.5q0 17 -13 30t-31 13t-30.5 -13t-12.5 -30z" />
    <glyph glyph-name="uring" unicode="&#x16f;" horiz-adv-x="585" 
d="M416 0v75q-53 -88 -167 -88q-182 0 -182 211v327h101v-289q0 -165 116 -165q39 0 65 16.5t39 48t18 66t5 82.5v241h101v-486q0 -26 1 -39h-97zM294 588q-37 0 -62 25.5t-25 63.5q0 36 25.5 61.5t62.5 25.5t62.5 -25.5t25.5 -61.5q0 -38 -25.5 -63.5t-63.5 -25.5zM251 677
q0 -19 12.5 -32t30.5 -13q19 0 31.5 12.5t12.5 32.5q0 17 -13 30t-31 13t-30.5 -13t-12.5 -30z" />
    <glyph glyph-name="Uhungarumlaut" unicode="&#x170;" horiz-adv-x="688" 
d="M185 715v-434q0 -95 22 -137q17 -33 53.5 -52t82.5 -19t83.5 19t54.5 52q22 41 22 137v434h105v-437q0 -130 -47 -195q-33 -45 -91 -70t-127 -25t-126 24.5t-89 68.5q-29 41 -38.5 84.5t-9.5 112.5v437h105zM407 875l-134 -114h-101l107 114h128zM600 875l-134 -114h-101
l107 114h128z" />
    <glyph glyph-name="uhungarumlaut" unicode="&#x171;" horiz-adv-x="585" 
d="M416 0v75q-53 -88 -167 -88q-182 0 -182 211v327h101v-289q0 -165 116 -165q39 0 65 16.5t39 48t18 66t5 82.5v241h101v-486q0 -26 1 -39h-97zM559 715l-141 -119h-101l114 119h128zM366 715l-141 -119h-101l114 119h128z" />
    <glyph glyph-name="Uogonek" unicode="&#x172;" horiz-adv-x="688" 
d="M185 715v-434q0 -95 22 -137q17 -33 53.5 -52t82.5 -19t83.5 19t54.5 52q22 41 22 137v434h105v-437q0 -130 -47 -195q-33 -45 -91 -70t-127 -25t-126 24.5t-89 68.5q-29 41 -38.5 84.5t-9.5 112.5v437h105zM381 -48l94 -115h-125l-75 115h106z" />
    <glyph glyph-name="uogonek" unicode="&#x173;" horiz-adv-x="585" 
d="M416 0v75q-53 -88 -167 -88q-182 0 -182 211v327h101v-289q0 -165 116 -165q39 0 65 16.5t39 48t18 66t5 82.5v241h101v-486q0 -26 1 -39h-97zM322 -48l94 -115h-125l-75 115h106z" />
    <glyph glyph-name="Wcircumflex" unicode="&#x174;" horiz-adv-x="930" 
d="M333 0h-153l-153 715h114q9 -47 25.5 -128t30 -148.5t24.5 -128.5q35 -189 38 -206h3q6 37 12 66.5t16.5 71.5t16.5 67l93 406h143l106 -475q8 -35 26 -136h2q10 48 11 53l10 50q4 19 11.5 58t9.5 51l79 399h108q-18 -83 -73.5 -330.5t-85.5 -384.5h-149l-95 433
q-9 37 -20.5 102.5t-13.5 74.5h-2q-6 -37 -30 -147zM413 875h109q15 -17 48 -56.5t49 -57.5h-93l-59 61l-57 -61h-94q11 13 45 53.5t52 60.5z" />
    <glyph glyph-name="wcircumflex" unicode="&#x175;" horiz-adv-x="809" 
d="M20 525h108l83 -296q13 -47 33 -126h3q3 12 34 135l72 287h108l51 -203q46 -193 53 -219h2l30 112l9 31l80 279h104l-167 -525h-120q-52 182 -96 388h-3q-24 -102 -62 -240t-41 -148h-115q-31 92 -86 270.5t-80 254.5zM350 715h109q13 -15 48 -57t53 -62h-93l-63 66
l-61 -66h-94q18 20 53 62t48 57z" />
    <glyph glyph-name="Ycircumflex" unicode="&#x176;" horiz-adv-x="594" 
d="M244 0v277q-40 74 -119.5 219t-119.5 219h119q52 -99 122 -234l55 -104q5 10 18 34t54.5 102.5t105.5 201.5h112q-43 -80 -125.5 -227t-117.5 -211v-277h-104zM245 875h109q15 -17 48 -56.5t49 -57.5h-93l-59 61l-57 -61h-94q11 13 45 53.5t52 60.5z" />
    <glyph glyph-name="ycircumflex" unicode="&#x177;" horiz-adv-x="534" 
d="M415 525h110q-36 -92 -134 -333.5t-147 -371.5h-105q71 167 76 180l-201 525h116l97 -286l42 -126h2q24 73 44 129zM217 715h109q13 -15 48 -57t53 -62h-93l-63 66l-61 -66h-94q18 20 53 62t48 57z" />
    <glyph glyph-name="Ydieresis" unicode="&#x178;" horiz-adv-x="594" 
d="M244 0v277q-40 74 -119.5 219t-119.5 219h119q52 -99 122 -234l55 -104q5 10 18 34t54.5 102.5t105.5 201.5h112q-43 -80 -125.5 -227t-117.5 -211v-277h-104zM163 766v96h98v-96h-98zM332 766v96h97v-96h-97z" />
    <glyph glyph-name="Zacute" unicode="&#x179;" horiz-adv-x="578" 
d="M35 0v84q9 13 40.5 60.5t47.5 70.5l231 327q8 11 55 81h-361v92h485v-86l-22 -34q-21 -29 -53 -79l-237 -340q-11 -14 -25.5 -35t-17.5 -26q-4 -5 -10.5 -14t-6.5 -10h380v-91h-506zM449 875l-135 -114h-106l108 114h133z" />
    <glyph glyph-name="zacute" unicode="&#x17a;" horiz-adv-x="497" 
d="M37 0v77l247 304q9 11 21 25.5t19.5 23.5t11.5 16q-13 -1 -48 -1h-243v80h405v-81l-211 -259l-88 -106v-1q54 2 101 2h207v-80h-422zM410 715l-141 -119h-106l114 119h133z" />
    <glyph glyph-name="Zdotaccent" unicode="&#x17b;" horiz-adv-x="578" 
d="M35 0v84q9 13 40.5 60.5t47.5 70.5l231 327q8 11 55 81h-361v92h485v-86l-22 -34q-21 -29 -53 -79l-237 -340q-11 -14 -25.5 -35t-17.5 -26q-4 -5 -10.5 -14t-6.5 -10h380v-91h-506zM237 767v96h98v-96h-98z" />
    <glyph glyph-name="zdotaccent" unicode="&#x17c;" horiz-adv-x="497" 
d="M37 0v77l247 304q9 11 21 25.5t19.5 23.5t11.5 16q-13 -1 -48 -1h-243v80h405v-81l-211 -259l-88 -106v-1q54 2 101 2h207v-80h-422zM198 611v96h98v-96h-98z" />
    <glyph glyph-name="Zcaron" unicode="&#x17d;" horiz-adv-x="578" 
d="M35 0v84q9 13 40.5 60.5t47.5 70.5l231 327q8 11 55 81h-361v92h485v-86l-22 -34q-21 -29 -53 -79l-237 -340q-11 -14 -25.5 -35t-17.5 -26q-4 -5 -10.5 -14t-6.5 -10h380v-91h-506zM337 761h-109q-18 20 -52 60.5t-45 53.5h94l57 -61l59 61h93q-16 -18 -49 -57.5
t-48 -56.5z" />
    <glyph glyph-name="zcaron" unicode="&#x17e;" horiz-adv-x="497" 
d="M37 0v77l247 304q9 11 21 25.5t19.5 23.5t11.5 16q-13 -1 -48 -1h-243v80h405v-81l-211 -259l-88 -106v-1q54 2 101 2h207v-80h-422zM306 596h-109q-13 15 -48 57t-53 62h94l61 -66l63 66h93q-18 -20 -53 -62t-48 -57z" />
    <glyph glyph-name="uni0186" unicode="&#x186;" horiz-adv-x="756" 
d="M31 209h110q64 -135 214 -135q114 0 179 79t65 206t-64.5 204t-178.5 77q-156 0 -218 -142h-108q34 112 117 171.5t208 59.5q159 0 258.5 -103t99.5 -268t-98.5 -268.5t-254.5 -103.5q-124 0 -207.5 59t-121.5 164z" />
    <glyph glyph-name="uni018F" unicode="&#x18f;" horiz-adv-x="772" 
d="M36 393h581q-10 113 -74 180t-169 67q-88 0 -141 -40t-73 -92h-111q34 96 115 158t214 62q161 0 256 -105t95 -266q0 -162 -96.5 -266.5t-254.5 -104.5q-165 0 -254 106t-89 270v14q0 9 1 14v3zM616 306h-472q2 -106 65.5 -169.5t170.5 -63.5q56 0 100 20t71 54.5t43 74
t22 84.5z" />
    <glyph glyph-name="uni0190" unicode="&#x190;" horiz-adv-x="564" 
d="M430 207h110q-9 -106 -72.5 -163.5t-174.5 -57.5q-113 0 -182 61t-69 160q0 147 151 185q-114 45 -114 160q0 80 57.5 128.5t153.5 48.5q98 0 156 -53t60 -140h-105q-4 48 -32 74t-76 26q-43 0 -72.5 -25t-29.5 -73q0 -109 146 -109v-87h-23q-70 0 -112.5 -32.5
t-42.5 -98.5q0 -58 35.5 -96t96.5 -38q62 0 97.5 33.5t41.5 96.5z" />
    <glyph glyph-name="florin" unicode="&#x192;" horiz-adv-x="436" 
d="M49 405l11 78h109q16 122 64.5 180.5t145.5 58.5q5 0 38 -3l-11 -81q-2 1 -20 1q-56 0 -81.5 -38.5t-34.5 -117.5h110l-11 -78h-110l-47 -326q-22 -148 -65 -205t-143 -57q-32 0 -55 6l11 78q6 -2 12 -2h15q63 0 86 40t37 135l47 331h-108z" />
    <glyph glyph-name="uni019D" unicode="&#x19d;" horiz-adv-x="749" 
d="M87 715h140l244 -418l88 -155l1 1q0 17 -1 87t-1 108v377h104v-715h-138l-235 399q-79 136 -97 172h-1v-48q0 -21 0.5 -70.5t0.5 -74.5v-418q0 -90 -34 -124q-33 -33 -115 -33q-37 0 -53 4v75q1 -1 6 -1h16q47 0 63 21q12 16 12 52v761z" />
    <glyph glyph-name="uni019F" unicode="&#x19f;" horiz-adv-x="806" 
d="M402 729q162 0 261.5 -103t99.5 -269t-98.5 -268.5t-261.5 -102.5q-162 0 -261 103t-99 268t99.5 268.5t259.5 103.5zM402 75q103 0 167.5 66.5t76.5 175.5h-488q10 -108 75.5 -175t168.5 -67zM401 640q-102 0 -166.5 -64t-76.5 -170h487q-12 106 -77 170t-167 64z" />
    <glyph glyph-name="Ohorn" unicode="&#x1a0;" horiz-adv-x="806" 
d="M402 729q162 0 261.5 -103t99.5 -269t-99 -268.5t-261 -102.5t-261 102.5t-99 268.5t99.5 269t259.5 103zM401 640q-114 0 -179.5 -78t-65.5 -204q0 -125 66.5 -204.5t179.5 -79.5t179.5 79t66.5 205t-66 204t-181 78zM733 906l-75 -191h-87l55 191h107z" />
    <glyph glyph-name="ohorn" unicode="&#x1a1;" horiz-adv-x="611" 
d="M306 539q121 0 193 -77t72 -201q0 -122 -71.5 -198t-195.5 -76t-194 75.5t-70 198.5q0 124 72 201t194 77zM303 455q-73 0 -114.5 -53.5t-41.5 -139.5q0 -89 41 -140t115 -51t115.5 51t41.5 140q0 86 -42 139.5t-115 53.5zM596 715l-75 -191h-87l55 191h107z" />
    <glyph glyph-name="Uhorn" unicode="&#x1af;" horiz-adv-x="685" 
d="M629 907l-75 -191h51v-440q0 -128 -47 -193q-32 -44 -90 -69.5t-126 -25.5q-69 0 -126 25t-89 70q-47 65 -47 193v439l105 1v-434q0 -95 21 -134q17 -34 53.5 -54t82.5 -20q47 0 83.5 20t53.5 54q21 39 21 134v434h-33l55 191h107z" />
    <glyph glyph-name="uhorn" unicode="&#x1b0;" horiz-adv-x="585" 
d="M536 715l-75 -190h51v-485q0 -27 1 -40h-98v76q-54 -90 -167 -90q-90 0 -135.5 54.5t-45.5 155.5v329h102v-288q0 -165 115 -165q58 0 92 43.5t34 108.5v301h-36l55 190h107z" />
    <glyph glyph-name="uni01C4" unicode="&#x1c4;" horiz-adv-x="1302" 
d="M87 0v715h195q198 0 297.5 -91.5t99.5 -267.5q0 -76 -21.5 -139t-65.5 -112.5t-119 -77t-174 -27.5h-212zM193 624v-535h81q146 0 218.5 62t72.5 205q0 132 -72.5 200.5t-208.5 68.5q-10 0 -30 -0.5t-29 -0.5h-32zM759 0v84q9 13 40.5 60.5t47.5 70.5l231 327q8 11 55 81
h-361v92h485v-86l-22 -34q-21 -29 -53 -79l-237 -340q-11 -14 -25.5 -35t-17.5 -26q-4 -5 -10.5 -14t-6.5 -10h380v-91h-506zM1061 761h-109q-18 20 -52 60.5t-45 53.5h94l57 -61l59 61h93q-16 -18 -49 -57.5t-48 -56.5z" />
    <glyph glyph-name="uni01C5" unicode="&#x1c5;" horiz-adv-x="1221" 
d="M87 0v715h195q198 0 297.5 -91.5t99.5 -267.5q0 -76 -21.5 -139t-65.5 -112.5t-119 -77t-174 -27.5h-212zM193 624v-535h81q146 0 218.5 62t72.5 205q0 132 -72.5 200.5t-208.5 68.5q-10 0 -30 -0.5t-29 -0.5h-32zM761 0v77l247 304q9 11 21 25.5t19.5 23.5t11.5 16
q-13 -1 -48 -1h-243v80h405v-81l-211 -259l-88 -106v-1q54 2 101 2h207v-80h-422zM1030 596h-109q-13 15 -48 57t-53 62h94l61 -66l63 66h93q-18 -20 -53 -62t-48 -57z" />
    <glyph glyph-name="uni01C6" unicode="&#x1c6;" horiz-adv-x="1126" 
d="M556 0h-94v74q-57 -86 -178 -86q-108 0 -176 76.5t-68 199.5q0 121 67.5 199t179.5 78q57 0 101 -24t68 -60q-1 19 -1 52v206h101v-715zM666 0v77l247 304q9 11 21 25.5t19.5 23.5t11.5 16q-13 -1 -48 -1h-243v80h405v-81l-211 -259l-88 -106v-1q54 2 101 2h207v-80h-422
zM305 456q-73 0 -114.5 -53.5t-41.5 -139.5q0 -89 41 -140.5t114 -51.5q74 0 115 52t41 140q0 86 -41.5 139.5t-113.5 53.5zM935 596h-109q-13 15 -48 57t-53 62h94l61 -66l63 66h93q-18 -20 -53 -62t-48 -57z" />
    <glyph glyph-name="uni01C7" unicode="&#x1c7;" horiz-adv-x="1024" 
d="M87 0v715h106v-624h314v-91h-420zM559 173h100q0 -105 86 -105q30 0 49.5 12.5t28.5 38.5t12 53t3 67v476h105v-503q0 -104 -46 -165t-148 -61q-187 0 -190 187z" />
    <glyph glyph-name="uni01C8" unicode="&#x1c8;" horiz-adv-x="782" 
d="M87 0v715h106v-624h314v-91h-420zM607 525h102v-566q0 -95 -37 -125.5t-113 -30.5q-32 0 -49 4v76q2 -2 23 -2q39 0 56.5 14.5t17.5 60.5v569zM605 601v114h106v-114h-106z" />
    <glyph glyph-name="uni01C9" unicode="&#x1c9;" horiz-adv-x="503" 
d="M77 0v715h101v-715h-101zM328 525h102v-566q0 -95 -37 -125.5t-113 -30.5q-32 0 -49 4v76q2 -2 23 -2q39 0 56.5 14.5t17.5 60.5v569zM326 601v114h106v-114h-106z" />
    <glyph glyph-name="uni01CA" unicode="&#x1ca;" horiz-adv-x="1239" 
d="M87 0v715h140l243 -418l89 -155l1 1q0 17 -1 87t-1 108v377h104v-715h-136l-237 402q-95 166 -98 172h-1v-48q0 -21 0.5 -71.5t0.5 -76.5v-378h-104zM774 173h100q0 -105 86 -105q30 0 49.5 12.5t28.5 38.5t12 53t3 67v476h105v-503q0 -104 -46 -165t-148 -61
q-187 0 -190 187z" />
    <glyph glyph-name="uni01CB" unicode="&#x1cb;" horiz-adv-x="997" 
d="M87 0v715h140l243 -418l89 -155l1 1q0 17 -1 87t-1 108v377h104v-715h-136l-237 402q-95 166 -98 172h-1v-48q0 -21 0.5 -71.5t0.5 -76.5v-378h-104zM822 525h102v-566q0 -95 -37 -125.5t-113 -30.5q-32 0 -49 4v76q2 -2 23 -2q39 0 56.5 14.5t17.5 60.5v569zM820 601
v114h106v-114h-106z" />
    <glyph glyph-name="uni01CC" unicode="&#x1cc;" horiz-adv-x="838" 
d="M172 525v-71q52 86 167 86q90 0 137 -57t47 -160v-323h-102v285q0 169 -117 169q-61 0 -95.5 -43t-34.5 -108v-303h-101v485q0 27 -1 40h100zM663 525h102v-566q0 -95 -37 -125.5t-113 -30.5q-32 0 -49 4v76q2 -2 23 -2q39 0 56.5 14.5t17.5 60.5v569zM661 601v114h106
v-114h-106z" />
    <glyph glyph-name="uni01F1" unicode="&#x1f1;" horiz-adv-x="1289" 
d="M87 0v715h195q198 0 297.5 -91.5t99.5 -267.5q0 -76 -21.5 -139t-65.5 -112.5t-119 -77t-174 -27.5h-212zM193 624v-535h81q146 0 218.5 62t72.5 205q0 132 -72.5 200.5t-208.5 68.5q-10 0 -30 -0.5t-29 -0.5h-32zM746 0v84q9 13 40.5 60.5t47.5 70.5l231 327q8 11 55 81
h-361v92h485v-86l-22 -34q-21 -29 -53 -79l-237 -340q-11 -14 -25.5 -35t-17.5 -26q-4 -5 -10.5 -14t-6.5 -10h380v-91h-506z" />
    <glyph glyph-name="uni01F2" unicode="&#x1f2;" horiz-adv-x="1221" 
d="M87 0v715h195q198 0 297.5 -91.5t99.5 -267.5q0 -76 -21.5 -139t-65.5 -112.5t-119 -77t-174 -27.5h-212zM193 624v-535h81q146 0 218.5 62t72.5 205q0 132 -72.5 200.5t-208.5 68.5q-10 0 -30 -0.5t-29 -0.5h-32zM761 0v77l247 304q9 11 21 25.5t19.5 23.5t11.5 16
q-13 -1 -48 -1h-243v80h405v-81l-211 -259l-88 -106v-1q54 2 101 2h207v-80h-422z" />
    <glyph glyph-name="uni01F3" unicode="&#x1f3;" horiz-adv-x="1126" 
d="M556 0h-94v74q-57 -86 -178 -86q-108 0 -176 76.5t-68 199.5q0 121 67.5 199t179.5 78q57 0 101 -24t68 -60q-1 19 -1 52v206h101v-715zM666 0v77l247 304q9 11 21 25.5t19.5 23.5t11.5 16q-13 -1 -48 -1h-243v80h405v-81l-211 -259l-88 -106v-1q54 2 101 2h207v-80h-422
zM305 456q-73 0 -114.5 -53.5t-41.5 -139.5q0 -89 41 -140.5t114 -51.5q74 0 115 52t41 140q0 86 -41.5 139.5t-113.5 53.5z" />
    <glyph glyph-name="Aringacute" unicode="&#x1fa;" horiz-adv-x="697" 
d="M104 0h-108q48 120 145 357.5t145 357.5h127l285 -715h-111l-86 216h-313zM347 619h-2q-24 -58 -65 -165.5t-58 -150.5h245q-11 27 -29.5 77.5t-48.5 127.5q-6 15 -21.5 55.5t-20.5 55.5zM343 748q-37 0 -62 25.5t-25 63.5q0 36 25.5 61.5t62.5 25.5t62.5 -25.5
t25.5 -61.5q0 -38 -25.5 -63.5t-63.5 -25.5zM300 837q0 -19 12.5 -32t30.5 -13q19 0 31.5 12.5t12.5 32.5q0 17 -12.5 30t-31.5 13q-18 0 -30.5 -13t-12.5 -30zM513 1077l-141 -119h-106l114 119h133z" />
    <glyph glyph-name="aringacute" unicode="&#x1fb;" horiz-adv-x="557" 
d="M503 0h-95q-4 27 -5 72q-58 -82 -177 -82q-85 0 -137.5 40t-52.5 112q0 41 18.5 71t54 49t77 30t98.5 19q48 7 108 12q0 75 -28.5 105.5t-84.5 30.5q-108 0 -119 -98h-99q4 83 64.5 130.5t155.5 47.5q46 0 80.5 -9.5t65.5 -34t47 -74.5t16 -124v-102q0 -126 13 -195z
M394 250q-138 -13 -193.5 -34.5t-55.5 -72.5q0 -37 28 -58.5t76 -21.5q71 0 107.5 40.5t36.5 118.5v16q0 9 1 12zM285 573q-37 0 -62 25.5t-25 63.5q0 36 25.5 61.5t62.5 25.5t62.5 -25.5t25.5 -61.5q0 -38 -25.5 -63.5t-63.5 -25.5zM456 902l-141 -119h-106l114 119h133z
M242 662q0 -19 12.5 -32t30.5 -13q19 0 31.5 12.5t12.5 32.5q0 18 -12.5 30.5t-31.5 12.5q-18 0 -30.5 -13t-12.5 -30z" />
    <glyph glyph-name="AEacute" unicode="&#x1fc;" horiz-adv-x="899" 
d="M848 715v-92h-322l6 -211h292v-92h-289l6 -228h314v-92h-416l-4 184h-238l-99 -184h-112l402 715h460zM431 274l-3 142q-1 23 -1 59v131h-5l-14 -27q-36 -75 -64 -124l-97 -181h184zM740 875l-135 -114h-106l108 114h133z" />
    <glyph glyph-name="aeacute" unicode="&#x1fd;" horiz-adv-x="932" 
d="M897 237h-412q4 -73 48 -119t117 -46q87 0 135 78h101q-25 -74 -87 -118.5t-153 -44.5q-140 0 -213 99q-73 -96 -208 -96q-84 0 -136.5 41.5t-52.5 112.5q0 30 11 54t27.5 41t46 30t55 21t67.5 14.5t70.5 10t75.5 7.5q0 77 -28 106t-84 29q-105 0 -116 -95h-102
q8 82 66.5 129t153.5 47q132 0 176 -80q76 82 192 82q122 0 186.5 -79.5t64.5 -193.5q0 -6 -0.5 -13.5t-0.5 -9.5v-7zM390 221v17q0 9 1 11l-57 -6q-103 -13 -146 -33.5t-43 -65.5q0 -37 27.5 -58.5t75.5 -21.5q69 0 105.5 40.5t36.5 116.5zM489 317h303q-7 64 -45.5 102.5
t-101.5 38.5t-105.5 -38t-50.5 -103zM632 715l-141 -119h-106l114 119h133z" />
    <glyph glyph-name="Oslashacute" unicode="&#x1fe;" horiz-adv-x="806" 
d="M402 729q76 0 145 -26l50 88l83 -48l-50 -88q133 -103 133 -298q0 -166 -98.5 -268.5t-261.5 -102.5q-71 0 -140 24l-50 -89l-83 45l50 89q-137 102 -137 302q0 165 99.5 268.5t259.5 103.5zM401 640q-114 0 -179.5 -78t-65.5 -204q0 -136 75 -214l269 477q-45 19 -99 19
zM648 358q0 127 -69 207l-269 -473q43 -17 92 -17q113 0 179.5 79t66.5 204zM597 875l-135 -114h-106l108 114h133z" />
    <glyph glyph-name="oslashacute" unicode="&#x1ff;" horiz-adv-x="611" 
d="M501 715l-141 -119h-106l114 119h133zM304 -13q-46 0 -90 13l-42 -74l-81 44l41 73q-92 75 -92 219q0 123 72 200t194 77q54 0 99 -16l40 70l82 -44l-42 -73q87 -79 87 -214q0 -122 -72 -198.5t-196 -76.5zM147 263q0 -83 36 -132l178 313q-28 11 -57 11
q-73 0 -115 -53.5t-42 -138.5zM304 72q74 0 115.5 51.5t41.5 139.5q0 69 -29 119l-174 -304q21 -6 46 -6z" />
    <glyph glyph-name="uni0218" unicode="&#x218;" horiz-adv-x="611" 
d="M155 -163l94 115h106l-75 -115h-125zM36 203h107q23 -133 165 -133q70 0 110.5 32.5t40.5 87.5q0 19 -4 34t-16 27t-20.5 19.5t-31 16.5t-33 12.5l-40.5 13.5l-47 15q-105 33 -157 78.5t-52 126.5q0 87 68.5 142t179.5 55q112 0 175.5 -53t73.5 -147h-108
q-19 113 -144 113q-62 0 -97 -27.5t-35 -73.5q0 -50 34.5 -74.5t106.5 -46.5l50 -15q105 -31 156.5 -75.5t51.5 -127.5q0 -98 -73 -157.5t-190 -59.5q-121 0 -192.5 57t-78.5 160z" />
    <glyph glyph-name="uni0219" unicode="&#x219;" horiz-adv-x="503" 
d="M120 -163l94 115h106l-75 -115h-125zM33 160h100q27 -90 127 -90q46 0 74.5 19.5t28.5 54.5q0 33 -28.5 48.5t-95.5 31.5l-37 10q-72 17 -112 52t-40 99q0 69 56 111.5t145 42.5t142 -38.5t62 -114.5h-96q-23 73 -111 73q-47 0 -71 -17.5t-24 -47.5t20.5 -44t74.5 -30
l56 -16q85 -24 122.5 -56t37.5 -94q0 -75 -58 -120.5t-149 -45.5q-193 0 -224 172z" />
    <glyph glyph-name="uni021A" unicode="&#x21a;" horiz-adv-x="545" 
d="M146 -163l94 115h106l-75 -115h-125zM220 0v623h-194v92h493v-92h-194v-623h-105z" />
    <glyph glyph-name="uni021B" unicode="&#x21b;" horiz-adv-x="322" 
d="M50 -163l94 115h106l-75 -115h-125zM199 667v-142h98v-78h-98v-315q0 -36 16 -50.5t48 -14.5q11 0 25 2v-75q-20 -4 -39 -4q-75 0 -113.5 30.5t-38.5 105.5v321h-79v78h79v142h102z" />
    <glyph glyph-name="uni021D" unicode="&#x21d;" horiz-adv-x="545" 
d="M19 18h110q6 -63 41.5 -96.5t97.5 -33.5q61 0 96.5 38t35.5 96q0 66 -42.5 98.5t-112.5 32.5h-23v87q146 0 146 109q0 48 -29.5 73t-72.5 25q-48 0 -76 -26t-32 -74h-105q2 87 60 140t156 53q96 0 153.5 -48.5t57.5 -128.5q0 -115 -114 -160q151 -38 151 -185
q0 -99 -69 -160t-182 -61q-111 0 -174.5 57.5t-72.5 163.5z" />
    <glyph glyph-name="uni0226" unicode="&#x226;" horiz-adv-x="697" 
d="M104 0h-108q48 120 145 357.5t145 357.5h127l285 -715h-111l-86 216h-313zM347 619h-2q-24 -58 -65 -165.5t-58 -150.5h245q-11 27 -29.5 77.5t-48.5 127.5q-6 15 -21.5 55.5t-20.5 55.5zM299 767v96h98v-96h-98z" />
    <glyph glyph-name="uni0227" unicode="&#x227;" horiz-adv-x="557" 
d="M503 0h-95q-4 27 -5 72q-58 -82 -177 -82q-85 0 -137.5 40t-52.5 112q0 41 18.5 71t54 49t77 30t98.5 19q48 7 108 12q0 75 -28.5 105.5t-84.5 30.5q-108 0 -119 -98h-99q4 83 64.5 130.5t155.5 47.5q46 0 80.5 -9.5t65.5 -34t47 -74.5t16 -124v-102q0 -126 13 -195z
M394 250q-138 -13 -193.5 -34.5t-55.5 -72.5q0 -37 28 -58.5t76 -21.5q71 0 107.5 40.5t36.5 118.5v16q0 9 1 12zM235 611v96h98v-96h-98z" />
    <glyph glyph-name="uni0232" unicode="&#x232;" horiz-adv-x="594" 
d="M244 0v277q-40 74 -119.5 219t-119.5 219h119q52 -99 122 -234l55 -104q5 10 18 34t54.5 102.5t105.5 201.5h112q-43 -80 -125.5 -227t-117.5 -211v-277h-104zM168 781v67h262v-67h-262z" />
    <glyph glyph-name="uni0233" unicode="&#x233;" horiz-adv-x="534" 
d="M415 525h110q-36 -92 -134 -333.5t-147 -371.5h-105q71 167 76 180l-201 525h116l97 -286l42 -126h2q24 73 44 129zM144 618v67h262v-67h-262z" />
    <glyph glyph-name="dotlessj" unicode="&#x237;" horiz-adv-x="248" 
d="M73 525h102v-565q0 -90 -34 -124q-33 -33 -116 -33q-33 0 -49 4v75q1 -1 6 -1h16q47 0 63 21q12 16 12 52v571z" />
    <glyph glyph-name="uni0254" unicode="&#x254;" horiz-adv-x="584" 
d="M140 358h-105q21 82 83.5 131.5t158.5 49.5q122 0 194.5 -78t72.5 -199q0 -120 -73.5 -197.5t-194.5 -77.5q-99 0 -161 50.5t-81 136.5h104q17 -49 54 -76t88 -27q73 0 115 53.5t42 138.5q0 89 -41.5 140.5t-115.5 51.5q-103 0 -140 -97z" />
    <glyph glyph-name="uni0259" unicode="&#x259;" horiz-adv-x="588" 
d="M35 289h411q-2 71 -47 118t-118 47q-87 0 -134 -79h-101q22 74 85 118.5t154 44.5q121 0 192 -74.5t71 -198.5t-73 -202t-190 -78q-121 0 -185.5 78.5t-64.5 192.5v33zM442 209h-302q7 -65 45 -103.5t102 -38.5q63 0 105 38t50 104z" />
    <glyph glyph-name="uni025B" unicode="&#x25b;" horiz-adv-x="545" 
d="M416 18h110q-9 -106 -72.5 -163.5t-174.5 -57.5q-113 0 -182 61t-69 160q0 147 151 185q-114 45 -114 160q0 80 57.5 128.5t153.5 48.5q98 0 156 -53t60 -140h-105q-4 48 -32 74t-76 26q-43 0 -72.5 -25t-29.5 -73q0 -109 146 -109v-87h-23q-70 0 -112.5 -32.5
t-42.5 -98.5q0 -58 35.5 -96t96.5 -38q62 0 97.5 33.5t41.5 96.5z" />
    <glyph glyph-name="uni0272" unicode="&#x272;" horiz-adv-x="591" 
d="M73 -46v531q0 27 -1 40h101v-72q50 86 167 86q89 0 136 -57t47 -158v-324h-102v283q0 170 -117 170q-58 0 -93.5 -44t-35.5 -108v-341q0 -90 -34 -124q-33 -33 -116 -33q-33 0 -49 4v75q1 -1 6 -1h16q47 0 63 21q12 16 12 52z" />
    <glyph glyph-name="uni0275" unicode="&#x275;" horiz-adv-x="612" 
d="M304 -13q-123 0 -193.5 76.5t-70.5 198.5q0 123 72 200t194 77t194 -77t72 -200q0 -122 -72 -198.5t-196 -76.5zM304 72q65 0 105.5 40.5t49.5 112.5h-310q8 -72 48.5 -112.5t106.5 -40.5zM304 455q-62 0 -102.5 -39.5t-51.5 -106.5h307q-11 67 -51 106.5t-102 39.5z" />
    <glyph glyph-name="apostrophemod" unicode="&#x2bc;" horiz-adv-x="200" 
d="M184 715l-85 -241h-87l68 241h104z" />
    <glyph glyph-name="circumflex" unicode="&#x2c6;" horiz-adv-x="503" 
d="M201 715h109q13 -15 48 -57t53 -62h-93l-63 66l-61 -66h-94q18 20 53 62t48 57z" />
    <glyph glyph-name="caron" unicode="&#x2c7;" horiz-adv-x="502" 
d="M310 596h-109q-13 15 -48 57t-53 62h94l61 -66l63 66h93q-18 -20 -53 -62t-48 -57z" />
    <glyph glyph-name="breve" unicode="&#x2d8;" horiz-adv-x="465" 
d="M236 662q58 0 72 53h74q-9 -57 -46.5 -87t-99.5 -30q-61 0 -99 30t-47 87h75q14 -53 71 -53z" />
    <glyph glyph-name="dotaccent" unicode="&#x2d9;" horiz-adv-x="328" 
d="M117 611v96h98v-96h-98z" />
    <glyph glyph-name="ring" unicode="&#x2da;" horiz-adv-x="405" 
d="M239 588q-37 0 -62 25.5t-25 63.5q0 36 25.5 61.5t62.5 25.5t62.5 -25.5t25.5 -61.5q0 -38 -25.5 -63.5t-63.5 -25.5zM196 677q0 -19 12.5 -32t30.5 -13q19 0 31.5 12.5t12.5 32.5q0 17 -12.5 30t-31.5 13q-18 0 -30.5 -13t-12.5 -30z" />
    <glyph glyph-name="ogonek" unicode="&#x2db;" horiz-adv-x="331" 
d="M180 -48l94 -115h-125l-75 115h106z" />
    <glyph glyph-name="tilde" unicode="&#x2dc;" horiz-adv-x="470" 
d="M219 608h-62q2 49 24.5 78.5t61.5 29.5q29 0 74 -23q38 -18 52 -18q25 0 32 40h60q-2 -49 -24.5 -79t-59.5 -30q-27 0 -67 19q-43 22 -58 22q-26 0 -33 -39z" />
    <glyph glyph-name="hungarumlaut" unicode="&#x2dd;" horiz-adv-x="612" 
d="M358 715l-141 -119h-101l114 119h128zM551 715l-141 -119h-101l114 119h128z" />
    <glyph glyph-name="uni032C" unicode="&#x32c;" horiz-adv-x="503" 
d="M195 -49h109q13 -15 48 -57t53 -62h-93l-63 66l-61 -66h-94q18 20 53 62t48 57z" />
    <glyph glyph-name="uni0394" unicode="&#x394;" horiz-adv-x="693" 
d="M270 715h153l260 -715h-673zM347 651l-193 -567h386z" />
    <glyph glyph-name="uni03A9" unicode="&#x3a9;" horiz-adv-x="806" 
d="M401 640q-113 0 -174.5 -72t-61.5 -180q0 -195 174 -300l2 -88h-288v92h153q-153 107 -153 300q0 139 93 238t255 99q165 0 258.5 -99t93.5 -238q0 -193 -153 -300h153v-92h-288l2 88q174 105 174 300q0 108 -62 180t-178 72z" />
    <glyph glyph-name="uni03BC" unicode="&#x3bc;" horiz-adv-x="591" 
d="M175 -180h-102v705h102v-288q0 -165 115 -165q58 0 92 43.5t34 108.5v301h102v-485q0 -27 1 -40h-98v76q-53 -89 -167 -89q-45 0 -79 16v-183z" />
    <glyph glyph-name="pi" unicode="&#x3c0;" horiz-adv-x="641" 
d="M218 0h-102v447h-101v78h591v-78h-95v-315q0 -36 16 -50.5t48 -14.5q13 0 23 2v-76q-21 -3 -38 -3q-74 0 -112.5 30.5t-38.5 104.5v322h-191v-447z" />
    <glyph glyph-name="Wgrave" unicode="&#x1e80;" horiz-adv-x="930" 
d="M333 0h-153l-153 715h114q9 -47 25.5 -128t30 -148.5t24.5 -128.5q35 -189 38 -206h3q6 37 12 66.5t16.5 71.5t16.5 67l93 406h143l106 -475q8 -35 26 -136h2q10 48 11 53l10 50q4 19 11.5 58t9.5 51l79 399h108q-18 -83 -73.5 -330.5t-85.5 -384.5h-149l-95 433
q-9 37 -20.5 102.5t-13.5 74.5h-2q-6 -37 -30 -147zM452 761l-135 114h133l108 -114h-106z" />
    <glyph glyph-name="wgrave" unicode="&#x1e81;" horiz-adv-x="809" 
d="M20 525h108l83 -296q13 -47 33 -126h3q3 12 34 135l72 287h108l51 -203q46 -193 53 -219h2l30 112l9 31l80 279h104l-167 -525h-120q-52 182 -96 388h-3q-24 -102 -62 -240t-41 -148h-115q-31 92 -86 270.5t-80 254.5zM229 717h133q56 -61 113 -119h-106z" />
    <glyph glyph-name="Wacute" unicode="&#x1e82;" horiz-adv-x="930" 
d="M333 0h-153l-153 715h114q9 -47 25.5 -128t30 -148.5t24.5 -128.5q35 -189 38 -206h3q6 37 12 66.5t16.5 71.5t16.5 67l93 406h143l106 -475q8 -35 26 -136h2q10 48 11 53l10 50q4 19 11.5 58t9.5 51l79 399h108q-18 -83 -73.5 -330.5t-85.5 -384.5h-149l-95 433
q-9 37 -20.5 102.5t-13.5 74.5h-2q-6 -37 -30 -147zM637 875l-135 -114h-106l108 114h133z" />
    <glyph glyph-name="wacute" unicode="&#x1e83;" horiz-adv-x="809" 
d="M20 525h108l83 -296q13 -47 33 -126h3q3 12 34 135l72 287h108l51 -203q46 -193 53 -219h2l30 112l9 31l80 279h104l-167 -525h-120q-52 182 -96 388h-3q-24 -102 -62 -240t-41 -148h-115q-31 92 -86 270.5t-80 254.5zM585 715l-141 -119h-106l114 119h133z" />
    <glyph glyph-name="Wdieresis" unicode="&#x1e84;" horiz-adv-x="930" 
d="M333 0h-153l-153 715h114q9 -47 25.5 -128t30 -148.5t24.5 -128.5q35 -189 38 -206h3q6 37 12 66.5t16.5 71.5t16.5 67l93 406h143l106 -475q8 -35 26 -136h2q10 48 11 53l10 50q4 19 11.5 58t9.5 51l79 399h108q-18 -83 -73.5 -330.5t-85.5 -384.5h-149l-95 433
q-9 37 -20.5 102.5t-13.5 74.5h-2q-6 -37 -30 -147zM334 766v96h98v-96h-98zM503 766v96h97v-96h-97z" />
    <glyph glyph-name="wdieresis" unicode="&#x1e85;" horiz-adv-x="809" 
d="M20 525h108l83 -296q13 -47 33 -126h3q3 12 34 135l72 287h108l51 -203q46 -193 53 -219h2l30 112l9 31l80 279h104l-167 -525h-120q-52 182 -96 388h-3q-24 -102 -62 -240t-41 -148h-115q-31 92 -86 270.5t-80 254.5zM272 603v96h98v-96h-98zM441 603v96h97v-96h-97z
" />
    <glyph glyph-name="uni1EA0" unicode="&#x1ea0;" horiz-adv-x="697" 
d="M104 0h-108q48 120 145 357.5t145 357.5h127l285 -715h-111l-86 216h-313zM347 619h-2q-24 -58 -65 -165.5t-58 -150.5h245q-11 27 -29.5 77.5t-48.5 127.5q-6 15 -21.5 55.5t-20.5 55.5zM297 -151v96h98v-96h-98z" />
    <glyph glyph-name="uni1EA1" unicode="&#x1ea1;" horiz-adv-x="557" 
d="M503 0h-95q-4 27 -5 72q-58 -82 -177 -82q-85 0 -137.5 40t-52.5 112q0 41 18.5 71t54 49t77 30t98.5 19q48 7 108 12q0 75 -28.5 105.5t-84.5 30.5q-108 0 -119 -98h-99q4 83 64.5 130.5t155.5 47.5q46 0 80.5 -9.5t65.5 -34t47 -74.5t16 -124v-102q0 -126 13 -195z
M394 250q-138 -13 -193.5 -34.5t-55.5 -72.5q0 -37 28 -58.5t76 -21.5q71 0 107.5 40.5t36.5 118.5v16q0 9 1 12zM217 -151v96h98v-96h-98z" />
    <glyph glyph-name="uni1EB8" unicode="&#x1eb8;" horiz-adv-x="587" 
d="M87 0v715h448v-92h-342v-212h318v-91h-318v-229h349v-91h-455zM260 -151v96h98v-96h-98z" />
    <glyph glyph-name="uni1EB9" unicode="&#x1eb9;" horiz-adv-x="588" 
d="M553 236h-411q2 -71 47 -118t118 -47q87 0 134 79h101q-22 -74 -85 -118.5t-154 -44.5q-121 0 -192 74.5t-71 198.5t73 202t190 78q121 0 185.5 -78.5t64.5 -192.5v-33zM146 316h302q-7 65 -45 103.5t-102 38.5q-63 0 -105 -38t-50 -104zM251 -151v96h98v-96h-98z" />
    <glyph glyph-name="uni1ECA" unicode="&#x1eca;" horiz-adv-x="279" 
d="M87 0v715h105v-715h-105zM90 -151v96h98v-96h-98z" />
    <glyph glyph-name="uni1ECB" unicode="&#x1ecb;" horiz-adv-x="247" 
d="M73 525h101v-525h-101v525zM71 601v114h105v-114h-105zM75 -151v96h98v-96h-98z" />
    <glyph glyph-name="uni1ECC" unicode="&#x1ecc;" horiz-adv-x="806" 
d="M402 729q162 0 261.5 -103t99.5 -269t-99 -268.5t-261 -102.5t-261 102.5t-99 268.5t99.5 269t259.5 103zM401 640q-114 0 -179.5 -78t-65.5 -204q0 -125 66.5 -204.5t179.5 -79.5t179.5 79t66.5 205t-66 204t-181 78zM350 -151v96h98v-96h-98z" />
    <glyph glyph-name="uni1ECD" unicode="&#x1ecd;" horiz-adv-x="611" 
d="M306 539q121 0 193 -77t72 -201q0 -122 -71.5 -198t-195.5 -76t-194 75.5t-70 198.5q0 124 72 201t194 77zM303 455q-73 0 -114.5 -53.5t-41.5 -139.5q0 -89 41 -140t115 -51t115.5 51t41.5 140q0 86 -42 139.5t-115 53.5zM255 -151v96h98v-96h-98z" />
    <glyph glyph-name="uni1EE4" unicode="&#x1ee4;" horiz-adv-x="688" 
d="M185 715v-434q0 -95 22 -137q17 -33 53.5 -52t82.5 -19t83.5 19t54.5 52q22 41 22 137v434h105v-437q0 -130 -47 -195q-33 -45 -91 -70t-127 -25t-126 24.5t-89 68.5q-29 41 -38.5 84.5t-9.5 112.5v437h105zM290 -151v96h98v-96h-98z" />
    <glyph glyph-name="uni1EE5" unicode="&#x1ee5;" horiz-adv-x="585" 
d="M416 0v75q-53 -88 -167 -88q-182 0 -182 211v327h101v-289q0 -165 116 -165q39 0 65 16.5t39 48t18 66t5 82.5v241h101v-486q0 -26 1 -39h-97zM252 -151v96h98v-96h-98z" />
    <glyph glyph-name="Ygrave" unicode="&#x1ef2;" horiz-adv-x="594" 
d="M244 0v277q-40 74 -119.5 219t-119.5 219h119q52 -99 122 -234l55 -104q5 10 18 34t54.5 102.5t105.5 201.5h112q-43 -80 -125.5 -227t-117.5 -211v-277h-104zM285 761l-135 114h133l108 -114h-106z" />
    <glyph glyph-name="ygrave" unicode="&#x1ef3;" horiz-adv-x="534" 
d="M415 525h110q-36 -92 -134 -333.5t-147 -371.5h-105q71 167 76 180l-201 525h116l97 -286l42 -126h2q24 73 44 129zM110 717h133q56 -61 113 -119h-106z" />
    <glyph glyph-name="enspace" unicode="&#x2002;" horiz-adv-x="500" 
 />
    <glyph glyph-name="emspace" unicode="&#x2003;" horiz-adv-x="1000" 
 />
    <glyph glyph-name="threeperemspace" unicode="&#x2004;" horiz-adv-x="0" 
 />
    <glyph glyph-name="fourperemspace" unicode="&#x2005;" horiz-adv-x="250" 
 />
    <glyph glyph-name="thinspace" unicode="&#x2009;" horiz-adv-x="133" 
 />
    <glyph glyph-name="hairspace" unicode="&#x200a;" horiz-adv-x="75" 
 />
    <glyph glyph-name="endash" unicode="&#x2013;" horiz-adv-x="614" 
d="M69 261v83h476v-83h-476z" />
    <glyph glyph-name="emdash" unicode="&#x2014;" horiz-adv-x="979" 
d="M69 261v83h841v-83h-841z" />
    <glyph glyph-name="quoteleft" unicode="&#x2018;" horiz-adv-x="255" 
d="M47 474l85 241h87l-68 -241h-104z" />
    <glyph glyph-name="quoteright" unicode="&#x2019;" horiz-adv-x="253" 
d="M222 715l-85 -241h-87l68 241h104z" />
    <glyph glyph-name="quotesinglbase" unicode="&#x201a;" horiz-adv-x="255" 
d="M191 120l-85 -241h-87l68 241h104z" />
    <glyph glyph-name="quotedblleft" unicode="&#x201c;" horiz-adv-x="431" 
d="M223 474l85 241h87l-68 -241h-104zM47 474l85 241h87l-68 -241h-104z" />
    <glyph glyph-name="quotedblright" unicode="&#x201d;" horiz-adv-x="429" 
d="M222 715l-85 -241h-87l68 241h104zM398 715l-85 -241h-87l68 241h104z" />
    <glyph glyph-name="quotedblbase" unicode="&#x201e;" horiz-adv-x="431" 
d="M191 120l-85 -241h-87l68 241h104zM367 120l-85 -241h-87l68 241h104z" />
    <glyph glyph-name="dagger" unicode="&#x2020;" horiz-adv-x="514" 
d="M309 715v-185h171v-96h-171v-502h-101v502h-174v96h174v185h101z" />
    <glyph glyph-name="daggerdbl" unicode="&#x2021;" horiz-adv-x="544" 
d="M324 434v-151h171v-96h-171v-255h-101v255h-174v96h174v151h-174v96h174v185h101v-185h171v-96h-171z" />
    <glyph glyph-name="bullet" unicode="&#x2022;" horiz-adv-x="443" 
d="M222 183q-63 0 -107.5 44t-44.5 107t44.5 106.5t107.5 43.5t107 -43.5t44 -106.5t-44.5 -107t-106.5 -44z" />
    <glyph glyph-name="ellipsis" unicode="&#x2026;" horiz-adv-x="904" 
d="M396 0v120h107v-120h-107zM64 0v120h107v-120h-107zM733 0v120h107v-120h-107z" />
    <glyph glyph-name="perthousand" unicode="&#x2030;" horiz-adv-x="1307" 
d="M199 330q-80 0 -122.5 52.5t-42.5 146.5q0 92 42 144.5t122 52.5t122.5 -53t42.5 -145q0 -94 -42 -146t-122 -52zM115 527q0 -133 83 -133q84 0 84 133q0 66 -18.5 101t-65.5 35t-65 -35t-18 -101zM278 0l274 714h71q-53 -141 -150.5 -395t-122.5 -319h-72zM703 -15
q-81 0 -123.5 52t-42.5 146q0 93 42.5 145.5t122.5 52.5q79 0 121.5 -53.5t42.5 -145.5q0 -94 -41.5 -145.5t-121.5 -51.5zM618 181q0 -133 84 -133t84 133q0 136 -84 136q-48 0 -66 -35t-18 -101zM1110 -15q-81 0 -123.5 52t-42.5 146q0 93 42.5 145.5t122.5 52.5
q79 0 121.5 -53.5t42.5 -145.5q0 -94 -41.5 -145.5t-121.5 -51.5zM1025 181q0 -133 84 -133t84 133q0 136 -84 136q-48 0 -66 -35t-18 -101z" />
    <glyph glyph-name="guilsinglleft" unicode="&#x2039;" horiz-adv-x="302" 
d="M248 473l-91 -187l91 -188h-96l-104 188l104 187h96z" />
    <glyph glyph-name="guilsinglright" unicode="&#x203a;" horiz-adv-x="302" 
d="M145 286l-91 187h96l104 -187l-104 -188h-96z" />
    <glyph glyph-name="fraction" unicode="&#x2044;" horiz-adv-x="385" 
d="M0 -105l290 820h96l-288 -820h-98z" />
    <glyph glyph-name="Euro" unicode="&#x20ac;" 
d="M8 384l24 86h48q34 259 245 259q110 0 165 -59.5t70 -170.5h-107q-13 70 -43 107.5t-85 37.5q-114 0 -133 -174h237l-24 -86h-218v-55h208l-24 -86h-178q10 -85 41 -129.5t91 -44.5q102 0 128 144l107 1q-26 -229 -235 -229q-116 0 -173 67t-72 191h-75l24 86h45v55h-66z
" />
    <glyph glyph-name="trademark" unicode="&#x2122;" horiz-adv-x="921" 
d="M662 297h-68q-21 59 -56.5 178t-52.5 170h-3q1 -30 1 -100v-248h-71v418h118q98 -313 104 -332q8 25 45 154.5t52 177.5h116v-418h-72v202q0 27 0.5 77.5t0.5 69.5h-3q-8 -24 -48 -153.5t-63 -195.5zM341 715v-62h-105v-356h-75v356h-105v62h285z" />
    <glyph glyph-name="Omega" unicode="&#x2126;" horiz-adv-x="806" 
d="M401 640q-113 0 -174.5 -72t-61.5 -180q0 -195 174 -300l2 -88h-288v92h153q-153 107 -153 300q0 139 93 238t255 99q165 0 258.5 -99t93.5 -238q0 -193 -153 -300h153v-92h-288l2 88q174 105 174 300q0 108 -62 180t-178 72z" />
    <glyph glyph-name="onethird" unicode="&#x2153;" horiz-adv-x="812" 
d="M589 210v60q86 2 86 60q0 26 -15.5 40t-39.5 14q-23 0 -38.5 -14.5t-18.5 -36.5h-72q2 52 37 82.5t94 30.5q60 0 94.5 -29t34.5 -80q0 -56 -59 -94q82 -36 82 -112q0 -60 -42.5 -98.5t-111.5 -38.5t-107.5 36t-44.5 96h77q5 -32 25.5 -50.5t51.5 -18.5q33 0 53.5 21.5
t20.5 54.5q0 77 -90 77h-17zM187 0l275 715h72l-275 -715h-72zM140 597h-107v50q55 2 80 17.5t32 50.5h70v-435h-75v317z" />
    <glyph glyph-name="twothirds" unicode="&#x2154;" horiz-adv-x="912" 
d="M692 210v60q86 2 86 60q0 26 -15.5 40t-39.5 14q-23 0 -38.5 -14.5t-18.5 -36.5h-72q2 52 37 82.5t94 30.5q60 0 94.5 -29t34.5 -80q0 -56 -59 -94q82 -36 82 -112q0 -60 -42.5 -98.5t-111.5 -38.5t-107.5 36t-44.5 96h77q5 -32 25.5 -50.5t51.5 -18.5q33 0 53.5 21.5
t20.5 54.5q0 77 -90 77h-17zM290 0l275 715h72l-275 -715h-72zM51 278v63q100 87 155 145q52 52 52 104q0 31 -17.5 50t-49.5 19q-34 0 -52.5 -22.5t-20.5 -59.5h-72v10q0 60 42 99t104 39q67 0 106.5 -38t39.5 -96q0 -43 -28 -87q-36 -51 -84 -93q-62 -54 -79 -67h190v-66
h-286z" />
    <glyph glyph-name="oneeighth" unicode="&#x215b;" horiz-adv-x="819" 
d="M465 121q0 80 78 115q-60 35 -60 96q0 48 37.5 81.5t101.5 33.5t102 -33.5t38 -81.5q0 -61 -59 -96q36 -18 57 -48.5t21 -66.5q0 -60 -44 -96t-115 -36q-70 0 -113.5 36t-43.5 96zM622 206q-36 0 -56.5 -21.5t-20.5 -56.5q0 -34 20 -55.5t57 -21.5t57.5 21.5t20.5 55.5
q0 35 -20.5 56.5t-57.5 21.5zM622 383q-30 0 -47 -16.5t-17 -42.5q0 -27 17 -44.5t47 -17.5t47.5 17.5t17.5 44.5q0 26 -17.5 42.5t-47.5 16.5zM187 0l275 715h72l-275 -715h-72zM140 597h-107v50q55 2 80 17.5t32 50.5h70v-435h-75v317z" />
    <glyph glyph-name="threeeighths" unicode="&#x215c;" horiz-adv-x="906" 
d="M555 121q0 80 78 115q-60 35 -60 96q0 48 37.5 81.5t101.5 33.5t102 -33.5t38 -81.5q0 -61 -59 -96q36 -18 57 -48.5t21 -66.5q0 -60 -44 -96t-115 -36q-70 0 -113.5 36t-43.5 96zM712 206q-36 0 -56.5 -21.5t-20.5 -56.5q0 -34 20 -55.5t57 -21.5t57.5 21.5t20.5 55.5
q0 35 -20.5 56.5t-57.5 21.5zM712 383q-30 0 -47 -16.5t-17 -42.5q0 -27 17 -44.5t47 -17.5t47.5 17.5t17.5 44.5q0 26 -17.5 42.5t-47.5 16.5zM277 0l275 715h72l-275 -715h-72zM156 490v60q86 2 86 60q0 26 -15.5 40t-39.5 14q-23 0 -38.5 -14.5t-18.5 -36.5h-72
q2 52 37 82.5t94 30.5q60 0 94.5 -29t34.5 -80q0 -56 -59 -94q82 -36 82 -112q0 -60 -42.5 -98.5t-111.5 -38.5t-107.5 36t-44.5 96h77q5 -32 25.5 -50.5t51.5 -18.5q33 0 53.5 21.5t20.5 54.5q0 77 -90 77h-17z" />
    <glyph glyph-name="fiveeighths" unicode="&#x215d;" horiz-adv-x="909" 
d="M51 481l26 234h234v-63h-174l-12 -104q34 21 76 21q64 0 102.5 -38t38.5 -103q0 -67 -43 -110.5t-112 -43.5q-66 0 -105 35.5t-48 96.5h75q16 -68 76 -68q38 0 59 23.5t21 63.5q0 37 -21 60t-57 23q-48 0 -67 -37q-12 2 -34.5 5t-34.5 5zM557 121q0 80 78 115
q-60 35 -60 96q0 48 37.5 81.5t101.5 33.5t102 -33.5t38 -81.5q0 -61 -59 -96q36 -18 57 -48.5t21 -66.5q0 -60 -44 -96t-115 -36q-70 0 -113.5 36t-43.5 96zM714 206q-36 0 -56.5 -21.5t-20.5 -56.5q0 -34 20 -55.5t57 -21.5t57.5 21.5t20.5 55.5q0 35 -20.5 56.5
t-57.5 21.5zM714 383q-30 0 -47 -16.5t-17 -42.5q0 -27 17 -44.5t47 -17.5t47.5 17.5t17.5 44.5q0 26 -17.5 42.5t-47.5 16.5zM279 0l275 715h72l-275 -715h-72z" />
    <glyph glyph-name="seveneighths" unicode="&#x215e;" horiz-adv-x="826" 
d="M156 279h-87q70 178 171 366h-205v70h285v-63l-16 -33q-85 -175 -148 -340zM475 121q0 80 78 115q-60 35 -60 96q0 48 37.5 81.5t101.5 33.5t102 -33.5t38 -81.5q0 -61 -59 -96q36 -18 57 -48.5t21 -66.5q0 -60 -44 -96t-115 -36q-70 0 -113.5 36t-43.5 96zM632 206
q-36 0 -56.5 -21.5t-20.5 -56.5q0 -34 20 -55.5t57 -21.5t57.5 21.5t20.5 55.5q0 35 -20.5 56.5t-57.5 21.5zM632 383q-30 0 -47 -16.5t-17 -42.5q0 -27 17 -44.5t47 -17.5t47.5 17.5t17.5 44.5q0 26 -17.5 42.5t-47.5 16.5zM197 0l275 715h72l-275 -715h-72z" />
    <glyph glyph-name="arrowleft" unicode="&#x2190;" horiz-adv-x="820" 
d="M780 280h-595l113 -113l47 -48q76 -76 117 -119h-133q-26 27 -144 152.5t-165 173.5q49 49 174.5 182t134.5 142h133q-41 -43 -117 -119l-47 -48l-46 -46l-25.5 -25.5t-25 -25.5t-16.5 -16h595v-90z" />
    <glyph glyph-name="arrowup" unicode="&#x2191;" horiz-adv-x="720" 
d="M313 0v584l-160 -160l-118 -116v133q14 14 145 137t180 172q49 -51 184.5 -177.5t140.5 -131.5v-133l-118 116l-48 47l-85 84l-27 29v-584h-94z" />
    <glyph glyph-name="arrowright" unicode="&#x2192;" horiz-adv-x="820" 
d="M634 280h-595v90h595q-8 7 -32 31l-36 36l-45 46l-47 48q-76 76 -117 119h133q26 -27 144 -152t165 -172q-50 -50 -171 -179t-138 -147h-133q41 43 117 119l47 48z" />
    <glyph glyph-name="arrowdown" unicode="&#x2193;" horiz-adv-x="720" 
d="M313 131v584h94v-584l27 28l85 85l48 47l118 116v-133q-304 -288 -325 -309q-46 45 -169.5 161.5t-155.5 147.5v133l118 -116z" />
    <glyph glyph-name="uni2196" unicode="&#x2196;" horiz-adv-x="750" 
d="M617 -4l-413 413v-226q0 -107 -1 -166l-90 88q0 51 3 222t3 232q61 0 232 3t221 3l90 -89q-59 -1 -166 -1h-226l413 -413z" />
    <glyph glyph-name="uni2197" unicode="&#x2197;" horiz-adv-x="750" 
d="M546 409l-413 -413l-66 66l413 413h-226q-107 0 -166 1l90 89q50 0 221 -3t232 -3q0 -61 3 -232t3 -222l-90 -88q-1 59 -1 166v226z" />
    <glyph glyph-name="uni2198" unicode="&#x2198;" horiz-adv-x="750" 
d="M131 565l413 -413v226q0 107 1 166l90 -88q0 -51 -3 -222t-3 -232q-61 0 -232 -2t-221 -2l-90 89h232q24 0 64.5 -0.5t55.5 -0.5h40l-413 413z" />
    <glyph glyph-name="uni2199" unicode="&#x2199;" horiz-adv-x="750" 
d="M205 152l413 413l66 -66l-413 -413h40q15 0 55 0.5t64 0.5h233l-90 -89q-50 0 -221 2t-232 2q0 61 -3 232t-3 222l90 88q1 -59 1 -166v-226z" />
    <glyph glyph-name="partialdiff" unicode="&#x2202;" horiz-adv-x="613" 
d="M114 715h165q291 -163 291 -445q0 -129 -69.5 -206t-197.5 -77q-123 0 -193 74t-70 199q0 126 71 200.5t177 74.5q67 0 99 -22l3 3q-64 95 -276 199zM303 72q74 0 115.5 51.5t41.5 139.5q0 85 -42.5 138.5t-114.5 53.5q-73 0 -115 -53.5t-42 -138.5q0 -88 41.5 -139.5
t115.5 -51.5z" />
    <glyph glyph-name="Delta" unicode="&#x2206;" horiz-adv-x="723" 
d="M285 715h153l260 -715h-673zM362 651l-193 -567h386z" />
    <glyph glyph-name="product" unicode="&#x220f;" horiz-adv-x="814" 
d="M666 623v-736h-105v736h-308v-736h-105v736h-116v92h750v-92h-116z" />
    <glyph glyph-name="summation" unicode="&#x2211;" horiz-adv-x="631" 
d="M40 -29l266 328l-262 327v89h533v-92h-394l252 -316l-261 -325h414v-95h-548v84z" />
    <glyph glyph-name="minus" unicode="&#x2212;" 
d="M66 278v87h442v-87h-442z" />
    <glyph glyph-name="uni2219" unicode="&#x2219;" horiz-adv-x="235" 
d="M64 261v120h107v-120h-107z" />
    <glyph glyph-name="radical" unicode="&#x221a;" 
d="M13 447v78h159l80 -243q2 -5 4.5 -14t5 -15.5t4.5 -12.5l14 -38q5 -14 30 -91h2q10 39 25.5 94t24.5 89l121 421h102l-224 -715h-109q-25 71 -83 226t-81 221h-75z" />
    <glyph glyph-name="infinity" unicode="&#x221e;" horiz-adv-x="838" 
d="M219 507q12 0 23.5 -1.5t24 -6t21.5 -7.5t22.5 -11.5t20.5 -12.5t22.5 -16t21 -16t23.5 -19t23 -19q80 69 113 86q42 23 85 23q78 0 124 -48t46 -126q0 -70 -43 -120t-123 -50q-38 0 -78 19t-65 39.5t-62 56.5l-15 -14q-34 -33 -57 -51t-58.5 -34t-72.5 -16
q-80 0 -123 50t-43 120q0 78 46 126t124 48zM616 254q38 0 60 22t22 61q0 35 -22 58t-58 23q-54 0 -149 -85l16 -13q29 -23 42.5 -33t39 -21.5t49.5 -11.5zM222 254q34 0 63 16t67 49l17 14q-95 85 -149 85q-36 0 -58 -23t-22 -58q0 -39 22 -61t60 -22z" />
    <glyph glyph-name="integral" unicode="&#x222b;" 
d="M375 482l-58 -403q-21 -147 -64.5 -204.5t-143.5 -57.5q-33 0 -55 6l11 78q6 -2 12 -2h15q63 0 86 40t37 135l59 409q16 122 64.5 180.5t145.5 58.5q5 0 38 -3l-11 -81q-2 1 -20 1q-56 0 -80.5 -38t-35.5 -119z" />
    <glyph glyph-name="approxequal" unicode="&#x2248;" 
d="M93 354l-61 44q61 108 144 108q42 0 110 -33l14 -7q61 -33 97 -34q52 0 88 70q9 -7 30 -20.5t32 -21.5q-61 -111 -146 -111q-44 0 -126 40q-9 3 -30.5 12.5t-38.5 15t-31 5.5q-53 0 -82 -68zM90 103l-61 44q61 108 144 108q42 0 110 -33l14 -7q61 -33 97 -34q52 0 88 70
q9 -7 30 -20.5t32 -21.5q-61 -111 -146 -111q-44 0 -126 40q-9 3 -30.5 12.5t-38.5 15t-31 5.5q-53 0 -82 -68z" />
    <glyph glyph-name="notequal" unicode="&#x2260;" 
d="M66 362v85h233l55 113h94l-55 -113h115v-85h-156l-37 -76h193v-85h-234l-58 -121h-94l58 121h-114v85h155l37 76h-192z" />
    <glyph glyph-name="lessequal" unicode="&#x2264;" 
d="M86 310v91l396 179v-95q-55 -22 -173.5 -72.5t-121.5 -51.5v-3q14 -6 129 -56t166 -71v-97q-67 30 -198 88t-198 88zM482 0h-396v87h396v-87z" />
    <glyph glyph-name="greaterequal" unicode="&#x2265;" 
d="M488 401v-91q-67 -30 -198.5 -88t-197.5 -88v97q51 21 166 71t129 56v3q-3 1 -121.5 51.5t-173.5 72.5v95zM488 0h-396v87h396v-87z" />
    <glyph glyph-name="dotmath" unicode="&#x22c5;" horiz-adv-x="235" 
d="M64 261v120h107v-120h-107z" />
    <glyph glyph-name="lozenge" unicode="&#x25ca;" 
d="M339 0h-104l-220 356l220 359h104l219 -359zM287 93l154 263l-154 267l-155 -267z" />
    <glyph glyph-name="commaaccent" unicode="&#xf6c3;" horiz-adv-x="369" 
d="M104 -163l94 115h106l-75 -115h-125z" />
    <glyph glyph-name="uniF8FF" unicode="&#xf8ff;" horiz-adv-x="403" 
d="M202 183q-63 0 -107.5 44t-44.5 107t44.5 106.5t107.5 43.5t107 -43.5t44 -106.5t-44.5 -107t-106.5 -44z" />
    <glyph glyph-name="acute.caps" horiz-adv-x="427" 
d="M379 875l-135 -114h-106l108 114h133z" />
    <glyph glyph-name="grave.caps" horiz-adv-x="512" 
d="M278 761l-135 114h133l108 -114h-106z" />
    <glyph glyph-name="circumflex.caps" horiz-adv-x="503" 
d="M199 875h109q15 -17 48 -56.5t49 -57.5h-93l-59 61l-57 -61h-94q11 13 45 53.5t52 60.5z" />
    <glyph glyph-name="caron.caps" horiz-adv-x="502" 
d="M307 761h-109q-18 20 -52 60.5t-45 53.5h94l57 -61l59 61h93q-16 -18 -49 -57.5t-48 -56.5z" />
    <glyph glyph-name="tilde.caps" horiz-adv-x="470" 
d="M156 763h-62q2 49 24.5 78.5t61.5 29.5q29 0 74 -23q38 -18 52 -18q25 0 32 40h60q-2 -49 -24.5 -79t-59.5 -30q-27 0 -67 19q-43 22 -58 22q-25 0 -33 -39z" />
    <glyph glyph-name="macron.caps" horiz-adv-x="428" 
d="M115 781v67h262v-67h-262z" />
    <glyph glyph-name="breve.caps" horiz-adv-x="465" 
d="M249 826q58 0 72 53h74q-9 -57 -46.5 -87t-99.5 -30q-61 0 -99 30t-47 87h75q14 -53 71 -53z" />
    <glyph glyph-name="dotaccent.caps" horiz-adv-x="328" 
d="M115 767v96h98v-96h-98z" />
    <glyph glyph-name="ring.caps" horiz-adv-x="405" 
d="M246 748q-37 0 -62 25.5t-25 63.5q0 36 25.5 61.5t62.5 25.5t62.5 -25.5t25.5 -61.5q0 -38 -25.5 -63.5t-63.5 -25.5zM203 837q0 -19 12.5 -32t30.5 -13q19 0 31.5 12.5t12.5 32.5q0 17 -13 30t-31 13t-30.5 -13t-12.5 -30z" />
    <glyph glyph-name="cedilla.caps" horiz-adv-x="369" 
d="M104 -163l94 115h106l-75 -115h-125z" />
    <glyph glyph-name="ogonek.caps" horiz-adv-x="331" 
d="M180 -48l94 -115h-125l-75 115h106z" />
    <glyph glyph-name="hungarumlaut.caps" horiz-adv-x="612" 
d="M379 875l-134 -114h-101l107 114h128zM572 875l-134 -114h-101l107 114h128z" />
    <glyph glyph-name="dieresis.caps" horiz-adv-x="491" 
d="M130 766v96h98v-96h-98zM299 766v96h97v-96h-97z" />
    <glyph glyph-name="horn" horiz-adv-x="264" 
d="M218 715l-75 -191h-87l55 191h107z" />
    <glyph glyph-name="zero.plf" horiz-adv-x="611" 
d="M305 729q253 0 253 -373q0 -84 -12 -148t-39.5 -116t-78 -79.5t-123.5 -27.5t-123.5 27.5t-78 79.5t-39 115.5t-11.5 148.5q0 373 252 373zM305 644q-42 0 -70 -22t-42.5 -64t-20.5 -90t-6 -112q0 -67 6.5 -116.5t21.5 -89.5t43 -60.5t68 -20.5q41 0 69 20.5t43 60.5
t21 89.5t6 116.5q0 64 -5.5 112t-20 90t-43 64t-70.5 22z" />
    <glyph glyph-name="one.plf" horiz-adv-x="403" 
d="M199 0v453v73q-14 -1 -41 -1h-130v76q93 2 136 28t51 86h88v-715h-104z" />
    <glyph glyph-name="two.plf" horiz-adv-x="574" 
d="M522 0h-467v90q0 5 52 52l166 150q71 64 102 114.5t31 106.5q0 55 -32.5 88.5t-88.5 33.5q-127 0 -132 -149h-106q2 111 64 177t174 66q111 0 172.5 -60t61.5 -156q0 -141 -181 -292l-56 -47q-9 -7 -32 -25.5t-40.5 -33t-28.5 -25.5h341v-90z" />
    <glyph glyph-name="three.plf" horiz-adv-x="581" 
d="M37 207h110q6 -63 41.5 -96.5t97.5 -33.5q61 0 96.5 38t35.5 96q0 66 -42.5 98.5t-112.5 32.5h-23v87q146 0 146 109q0 48 -29.5 73t-72.5 25q-48 0 -76 -26t-32 -74h-105q2 87 60 140t156 53q96 0 153.5 -48.5t57.5 -128.5q0 -115 -114 -160q151 -38 151 -185
q0 -99 -69 -160t-182 -61q-111 0 -174.5 57.5t-72.5 163.5z" />
    <glyph glyph-name="four.plf" horiz-adv-x="596" 
d="M560 241v-83h-100v-158h-100v158h-334v77l221 318q16 23 43.5 64.5t46 68.5t20.5 29h103v-474h100zM360 241v58v135q0 42 2 92.5t2 58.5h-2l-97 -154l-70 -101l-22 -32q-5 -8 -12 -17.5t-11.5 -16t-8.5 -12t-5.5 -8.5t-0.5 -3h225z" />
    <glyph glyph-name="five.plf" horiz-adv-x="571" 
d="M163 311l-100 16q8 68 22 197.5t21 190.5h376v-92h-290l-24 -198q58 45 140 45q100 0 162 -65.5t62 -170.5q0 -108 -69 -178.5t-179 -70.5q-105 0 -169.5 54.5t-78.5 156.5h111q7 -51 38.5 -86t95.5 -35q66 0 102.5 42.5t36.5 112.5q0 64 -36.5 107.5t-98.5 43.5
q-88 0 -122 -70z" />
    <glyph glyph-name="six.plf" horiz-adv-x="607" 
d="M550 531h-112q-18 113 -120 113q-62 0 -102.5 -52t-52.5 -138q-6 -34 -8 -83q56 90 179 90q101 0 162.5 -63.5t61.5 -168.5q0 -110 -68.5 -176.5t-179.5 -66.5q-259 0 -259 342q0 193 67 297t201 104q102 0 159 -53t72 -145zM304 378q-65 0 -103 -42t-38 -112
q0 -71 37.5 -113t104.5 -42q65 0 102.5 42.5t37.5 110.5q0 71 -37 113.5t-104 42.5z" />
    <glyph glyph-name="seven.plf" horiz-adv-x="494" 
d="M208 0h-116q33 86 151 350q67 151 131 272q-10 -1 -29 -1h-314v94h448v-86l-24 -50q-149 -304 -247 -579z" />
    <glyph glyph-name="eight.plf" horiz-adv-x="595" 
d="M186 386v2q-43 17 -75.5 56.5t-32.5 103.5q0 79 58.5 130t161.5 51t161.5 -51t58.5 -130q0 -64 -32.5 -103.5t-75.5 -56.5v-2q70 -27 104 -73t34 -118q0 -96 -67 -153t-183 -57q-117 0 -184 57.5t-67 153.5q0 138 139 190zM298 336q-68 0 -106 -35.5t-38 -96.5
q0 -59 38 -95t106 -36q67 0 105 36.5t38 94.5q0 60 -38.5 96t-104.5 36zM298 636q-54 0 -85.5 -28t-31.5 -76q0 -46 32 -75t85 -29q54 0 86 29t32 76q0 46 -32.5 74.5t-85.5 28.5z" />
    <glyph glyph-name="nine.plf" horiz-adv-x="606" 
d="M56 184h112q4 -46 33 -79.5t87 -33.5q122 0 155 189q2 16 4.5 45.5t3.5 37.5h-1q-20 -33 -65 -59t-113 -26q-101 0 -162 62.5t-61 167.5q0 108 68.5 174.5t179.5 66.5q258 0 258 -342q0 -401 -268 -401q-100 0 -158 53t-73 145zM302 646q-65 0 -103 -41.5t-38 -109.5
q0 -70 38 -112t103 -42t103.5 41.5t38.5 110.5q0 70 -38 111.5t-104 41.5z" />
    <glyph glyph-name="Gtilde" horiz-adv-x="784" 
d="M371 378h355v-378h-96v36q0 35 1 54q-88 -106 -240 -106q-153 0 -250.5 102t-97.5 270q0 163 99 268t261 105q129 0 211.5 -62.5t111.5 -165.5h-109q-59 139 -215 139q-112 0 -178.5 -75t-66.5 -208q0 -130 66 -207.5t177 -77.5q56 0 100 19t71.5 50.5t42.5 68.5t18 77
h-261v91zM308 763h-62q2 49 24.5 78.5t61.5 29.5q29 0 74 -23q38 -18 52 -18q25 0 32 40h60q-2 -49 -24.5 -79t-59.5 -30q-27 0 -67 19q-43 22 -58 22q-25 0 -33 -39z" />
    <glyph glyph-name="gtilde" horiz-adv-x="631" 
d="M559 525v-424q0 -293 -263 -293q-96 0 -156 46t-82 127h106q36 -91 134 -91q88 0 125.5 53t37.5 164l-2 1q-51 -85 -176 -85q-110 0 -176 71.5t-66 185.5q0 116 68 188.5t175 72.5q117 0 176 -82q-1 5 -1 16v50h100zM306 456q-72 0 -113.5 -47t-41.5 -128
q0 -78 41.5 -126.5t113.5 -48.5q69 0 112.5 47t43.5 131q0 78 -42 125t-114 47zM219 608h-62q2 49 24.5 78.5t61.5 29.5q29 0 74 -23q38 -18 52 -18q25 0 32 40h60q-2 -49 -24.5 -79t-59.5 -30q-27 0 -67 19q-43 22 -58 22q-26 0 -33 -39z" />
    <glyph glyph-name="Mcircumflex" horiz-adv-x="889" 
d="M87 0v715h170l127 -391l30 -95l16 -53l15 -48h1l16 50l18 56l17 53l15 44l126 384h164v-715h-102v369v62l1 69q2 94 2 119h-1q-7 -27 -77 -242l-127 -377h-111l-151 449q-16 47 -49 170h-1q2 -118 2 -240v-379h-101zM389 875h109q15 -17 48 -56.5t49 -57.5h-93l-59 61
l-57 -61h-94q11 13 45 53.5t52 60.5z" />
    <glyph glyph-name="mcircumflex" horiz-adv-x="927" 
d="M172 525v-71q52 86 165 86q116 0 158 -97q30 43 71 70t110 27q92 0 138 -56.5t46 -160.5v-323h-102v283q0 171 -114 171q-59 0 -93 -43.5t-34 -108.5v-302h-102v283q0 84 -26.5 127.5t-87.5 43.5q-59 0 -93 -43.5t-34 -109.5v-301h-101v484q0 27 -1 41h100zM420 715h109
q13 -15 48 -57t53 -62h-93l-63 66l-61 -66h-94q18 20 53 62t48 57z" />
    <glyph glyph-name="Mmacron" horiz-adv-x="889" 
d="M87 0v715h170l127 -391l30 -95l16 -53l15 -48h1l16 50l18 56l17 53l15 44l126 384h164v-715h-102v369v62l1 69q2 94 2 119h-1q-7 -27 -77 -242l-127 -377h-111l-151 449q-16 47 -49 170h-1q2 -118 2 -240v-379h-101zM310 781v67h262v-67h-262z" />
    <glyph glyph-name="mmacron" horiz-adv-x="927" 
d="M172 525v-71q52 86 165 86q116 0 158 -97q30 43 71 70t110 27q92 0 138 -56.5t46 -160.5v-323h-102v283q0 171 -114 171q-59 0 -93 -43.5t-34 -108.5v-302h-102v283q0 84 -26.5 127.5t-87.5 43.5q-59 0 -93 -43.5t-34 -109.5v-301h-101v484q0 27 -1 41h100zM340 618v67
h262v-67h-262z" />
    <glyph glyph-name="Ncircumflex" horiz-adv-x="749" 
d="M87 0v715h140l243 -418l89 -155l1 1q0 17 -1 87t-1 108v377h104v-715h-136l-237 402q-95 166 -98 172h-1v-48q0 -21 0.5 -71.5t0.5 -76.5v-378h-104zM336 875h109q15 -17 48 -56.5t49 -57.5h-93l-59 61l-57 -61h-94q11 13 45 53.5t52 60.5z" />
    <glyph glyph-name="ncircumflex" horiz-adv-x="590" 
d="M172 525v-71q52 86 167 86q90 0 137 -57t47 -160v-323h-102v285q0 169 -117 169q-61 0 -95.5 -43t-34.5 -108v-303h-101v485q0 27 -1 40h100zM266 715h109q13 -15 48 -57t53 -62h-93l-63 66l-61 -66h-94q18 20 53 62t48 57z" />
    <glyph glyph-name="Ndieresis" horiz-adv-x="749" 
d="M87 0v715h140l243 -418l89 -155l1 1q0 17 -1 87t-1 108v377h104v-715h-136l-237 402q-95 166 -98 172h-1v-48q0 -21 0.5 -71.5t0.5 -76.5v-378h-104zM255 766v96h98v-96h-98zM424 766v96h97v-96h-97z" />
    <glyph glyph-name="ndieresis" horiz-adv-x="590" 
d="M172 525v-71q52 86 167 86q90 0 137 -57t47 -160v-323h-102v285q0 169 -117 169q-61 0 -95.5 -43t-34.5 -108v-303h-101v485q0 27 -1 40h100zM182 603v96h98v-96h-98zM351 603v96h97v-96h-97z" />
    <glyph glyph-name="Nmacron" horiz-adv-x="749" 
d="M87 0v715h140l243 -418l89 -155l1 1q0 17 -1 87t-1 108v377h104v-715h-136l-237 402q-95 166 -98 172h-1v-48q0 -21 0.5 -71.5t0.5 -76.5v-378h-104zM251 781v67h262v-67h-262z" />
    <glyph glyph-name="nmacron" horiz-adv-x="590" 
d="M172 525v-71q52 86 167 86q90 0 137 -57t47 -160v-323h-102v285q0 169 -117 169q-61 0 -95.5 -43t-34.5 -108v-303h-101v485q0 27 -1 40h100zM186 618v67h262v-67h-262z" />
    <glyph glyph-name="Pmacron" horiz-adv-x="602" 
d="M87 0v715h193q71 0 111 -7t81 -28q46 -25 71.5 -72t25.5 -107q0 -122 -88 -179q-38 -25 -84.5 -33t-117.5 -8h-87v-281h-105zM192 622v-250h111q71 0 113 31t42 97q0 64 -40 94t-122 29zM172 781v67h262v-67h-262z" />
    <glyph glyph-name="pmacron" horiz-adv-x="628" 
d="M170 525v-68q61 84 172 84q110 0 178 -78t68 -199q0 -123 -67.5 -199.5t-175.5 -76.5q-119 0 -173 78v-8t0.5 -19t1 -26.5t0.5 -33v-36.5v-123h-101v705h97zM324 456q-72 0 -114 -54t-42 -139q0 -88 41.5 -140t114.5 -52q74 0 115 51.5t41 140.5q0 86 -41.5 139.5
t-114.5 53.5zM200 618v67h262v-67h-262z" />
    <glyph glyph-name="at.case" horiz-adv-x="827" 
d="M553 537h83l-51 -289q-1 -3 -1 -10q0 -27 29 -27q44 0 77 57.5t33 137.5q0 116 -78.5 191t-210.5 75q-140 0 -230 -92t-90 -229q0 -143 93 -230.5t238 -87.5q129 0 226 78l52 -29q-120 -108 -283 -108q-174 0 -284.5 105t-110.5 272q0 161 110 270.5t279 109.5
q152 0 252.5 -88.5t100.5 -224.5q0 -117 -59 -191.5t-148 -74.5q-67 0 -81 41q-13 -15 -45.5 -30t-73.5 -15q-73 0 -116 45t-43 125q0 92 55.5 160t144.5 68q88 0 125 -55l3 21zM431 474q-58 0 -89.5 -46.5t-31.5 -109.5q0 -47 24 -75t68 -28q60 0 92 46.5t32 109.5
q0 103 -95 103z" />
    <glyph glyph-name="bar.case" horiz-adv-x="289" 
d="M98 752h93v-802h-93v802z" />
    <glyph glyph-name="plus.case" 
d="M66 328v87h177v185h87v-185h178v-87h-178v-186h-87v186h-177z" />
    <glyph glyph-name="minus.case" 
d="M66 328v87h442v-87h-442z" />
    <glyph glyph-name="plusminus.case" 
d="M66 369v87h177v145h87v-145h178v-87h-178v-145h-87v145h-177zM67 50v87h442v-87h-442z" />
    <glyph glyph-name="multiply.case" 
d="M128 154l-59 59l159 158l-159 158l59 59l158 -158l159 159l59 -59l-159 -159l159 -159l-59 -59l-159 159z" />
    <glyph glyph-name="divide.case" 
d="M66 328v87h442v-87h-442zM232 142v114h107v-114h-107zM232 486v114h107v-114h-107z" />
    <glyph glyph-name="equal.case" 
d="M65 500h445v-85h-445v85zM65 337h445v-85h-445v85z" />
    <glyph glyph-name="notequal.case" 
d="M66 412v85h233l55 113h94l-55 -113h115v-85h-156l-37 -76h193v-85h-234l-58 -121h-94l58 121h-114v85h155l37 76h-192z" />
    <glyph glyph-name="approxequal.case" 
d="M94 364l-61 44q61 108 144 108q42 0 110 -33l14 -7q61 -33 97 -34q52 0 88 70q9 -7 30 -20.5t32 -21.5q-61 -111 -146 -111q-44 0 -126 40q-9 3 -30.5 12.5t-38.5 15t-31 5.5q-53 0 -82 -68zM91 113l-61 44q61 108 144 108q42 0 110 -33l14 -7q61 -33 97 -34q52 0 88 70
q9 -7 30 -20.5t32 -21.5q-61 -111 -146 -111q-44 0 -126 40q-9 3 -30.5 12.5t-38.5 15t-31 5.5q-53 0 -82 -68z" />
    <glyph glyph-name="logicalnot.case" 
d="M24 430v87h504v-330h-89v243h-415z" />
    <glyph glyph-name="parenleft.case" horiz-adv-x="330" 
d="M42 348q0 150 67 278t177 183v-100q-141 -144 -141 -360q0 -211 141 -354v-101q-109 54 -176.5 180.5t-67.5 273.5z" />
    <glyph glyph-name="parenright.case" horiz-adv-x="330" 
d="M288 348q0 -147 -67.5 -273.5t-176.5 -180.5v101q141 143 141 354q0 216 -141 360v100q110 -56 177 -183.5t67 -277.5z" />
    <glyph glyph-name="hyphen.case" horiz-adv-x="404" 
d="M66 321v85h272v-85h-272z" />
    <glyph glyph-name="bracketleft.case" horiz-adv-x="347" 
d="M307 767v-67h-86q-18 0 -27 1v-702q9 1 27 1h86v-67h-210v834h210z" />
    <glyph glyph-name="bracketright.case" horiz-adv-x="347" 
d="M40 767h210v-834h-210v67h85q19 0 28 -1v702q-9 -1 -28 -1h-85v67z" />
    <glyph glyph-name="braceleft.case" horiz-adv-x="318" 
d="M136 351v-2q44 -20 55.5 -46.5t11.5 -108.5v-124q1 -46 14 -61t50 -15v-65h-31q-79 0 -104.5 26t-25.5 98v166q0 57 -13.5 79t-51.5 32v39q37 11 51 31.5t14 76.5v165q0 76 24.5 102.5t105.5 26.5h10t8.5 -0.5t6.5 -0.5h5h1v-65q-39 -4 -51.5 -17t-12.5 -60v-123
q0 -81 -12 -108.5t-55 -45.5z" />
    <glyph glyph-name="braceright.case" horiz-adv-x="318" 
d="M182 349v2q-43 18 -55 45.5t-12 108.5v123q0 47 -12.5 60t-51.5 17v65h1h5t6.5 0.5t8.5 0.5h10q79 0 104.5 -27t25.5 -99v-166q0 -58 13.5 -79t51.5 -31v-39q-37 -11 -51 -32t-14 -77v-165q0 -75 -24.5 -101t-105.5 -26h-31v65q36 0 50 15.5t14 60.5v124q0 82 11.5 108.5
t55.5 46.5z" />
    <glyph glyph-name="guillemotleft.case" horiz-adv-x="507" 
d="M253 533l-96 -187l96 -188h-96l-104 188l104 187h96zM449 533l-91 -187l91 -188h-94l-104 188l104 187h94z" />
    <glyph glyph-name="guillemotright.case" horiz-adv-x="507" 
d="M350 346l-96 187h96l104 -187l-104 -188h-96zM149 346l-91 187h94l104 -187l-104 -188h-94z" />
    <glyph glyph-name="endash.case" horiz-adv-x="608" 
d="M66 321v83h476v-83h-476z" />
    <glyph glyph-name="emdash.case" horiz-adv-x="973" 
d="M66 321v83h841v-83h-841z" />
    <glyph glyph-name="guilsinglleft.case" horiz-adv-x="311" 
d="M253 533l-91 -187l91 -188h-96l-104 188l104 187h96z" />
    <glyph glyph-name="guilsinglright.case" horiz-adv-x="311" 
d="M149 346l-91 187h96l104 -187l-104 -188h-96z" />
    <glyph glyph-name="brokenbar.case" horiz-adv-x="231" 
d="M71 448v303h89v-303h-89zM71 -42v303h89v-303h-89z" />
    <glyph glyph-name="registered.alt" horiz-adv-x="837" 
d="M795 360q0 -158 -110 -267.5t-268 -109.5q-156 0 -265.5 110t-109.5 267t109.5 266.5t267.5 109.5q156 0 266 -110t110 -266zM738 360q0 135 -93.5 228.5t-225.5 93.5q-135 0 -227 -93.5t-92 -228.5t92 -229.5t226 -94.5q132 0 226 94.5t94 229.5zM287 143v429h130
q75 0 114 -25q52 -36 52 -103q0 -52 -28.5 -83t-71.5 -40l108 -178h-83l-98 168h-53v-168h-70zM357 510v-138h61q90 0 90 70q0 68 -90 68h-61z" />
    <glyph glyph-name="less.case" 
d="M468 614v-102l-299 -145v-3q16 -7 69 -33t123 -60.5t107 -52.5v-106q-67 36 -198.5 104t-198.5 104v84q153 81 397 210z" />
    <glyph glyph-name="greater.case" 
d="M106 512v102q153 -81 397 -210v-84q-59 -32 -192 -100.5t-205 -107.5v106q34 16 105.5 52t123.5 61.5t70 32.5v3q-6 2 -16 7t-26 13.5t-29 14.5z" />
    <glyph glyph-name="lessequal.case" 
d="M86 310v91l396 179v-95q-55 -22 -173.5 -72.5t-121.5 -51.5v-3q14 -6 129 -56t166 -71v-97q-67 30 -198 88t-198 88zM482 0h-396v87h396v-87z" />
    <glyph glyph-name="greaterequal.case" 
d="M488 401v-91q-67 -30 -198.5 -88t-197.5 -88v97q51 21 166 71t129 56v3q-3 1 -121.5 51.5t-173.5 72.5v95zM488 0h-396v87h396v-87z" />
    <glyph glyph-name="infinity.case" horiz-adv-x="836" 
d="M218 537q12 0 23.5 -1.5t24 -6t21.5 -7.5t22.5 -11.5t20.5 -12.5t22.5 -16t21 -16t23.5 -19t23 -19q80 69 113 86q42 23 85 23q78 0 124 -48t46 -126q0 -70 -43 -120t-123 -50q-38 0 -78 19t-65 39.5t-62 56.5l-15 -14q-34 -33 -57 -51t-58.5 -34t-72.5 -16
q-80 0 -123 50t-43 120q0 78 46 126t124 48zM615 284q38 0 60 22t22 61q0 35 -22 58t-58 23q-54 0 -149 -85l16 -13q29 -23 42.5 -33t39 -21.5t49.5 -11.5zM221 284q34 0 63 16t67 49l17 14q-95 85 -149 85q-36 0 -58 -23t-22 -58q0 -39 22 -61t60 -22z" />
    <glyph glyph-name="uni00AD.case" horiz-adv-x="404" 
d="M66 321v85h272v-85h-272z" />
    <glyph glyph-name="zero.posf" horiz-adv-x="610" 
d="M305 715q75 0 126.5 -30t78 -84.5t37 -114.5t10.5 -137q0 -82 -11.5 -144t-38.5 -114t-78 -79t-124 -27t-124 27t-78 79t-38.5 114t-11.5 144q0 77 10.5 137t37 114.5t78 84.5t126.5 30zM305 631q-42 0 -70.5 -21.5t-42.5 -63t-19.5 -87.5t-5.5 -109q0 -66 6 -114
t21 -87.5t43 -60t68 -20.5q78 0 108 72.5t30 209.5q0 62 -5.5 108.5t-20 88t-42.5 63t-70 21.5z" />
    <glyph glyph-name="one.posf" horiz-adv-x="404" 
d="M200 0v516h-172v74q93 2 135.5 27.5t52.5 83.5h88v-701h-104z" />
    <glyph glyph-name="two.posf" horiz-adv-x="574" 
d="M522 0h-466v91q25 23 77 67q118 104 141 126q70 64 101 114t31 105t-32.5 87.5t-88.5 32.5q-126 0 -131 -146h-106q0 107 63 172.5t174 65.5t172.5 -58.5t61.5 -153.5q0 -50 -19.5 -97t-59.5 -92t-71.5 -73.5t-84.5 -71.5q-15 -13 -55 -44t-46 -36h339v-89z" />
    <glyph glyph-name="three.posf" horiz-adv-x="580" 
d="M37 202h111q14 -125 138 -125q59 0 95 37.5t36 93.5q0 66 -42.5 97t-112.5 31h-23v87q144 0 144 105q0 47 -28 71t-72 24q-46 0 -73.5 -25.5t-31.5 -71.5l-106 1q2 85 59 136.5t155 51.5q96 0 153 -47.5t57 -125.5q0 -112 -113 -156q151 -36 151 -182q0 -97 -68.5 -157.5
t-182.5 -60.5q-110 0 -173 56.5t-73 159.5z" />
    <glyph glyph-name="four.posf" horiz-adv-x="595" 
d="M559 235v-81h-99v-154h-100v154h-334v75l221 312q101 150 111 160h102v-466h99zM364 572h-2q-56 -92 -97 -150l-47 -68q-34 -48 -54 -78l-29 -41h225v112q0 93 4 225z" />
    <glyph glyph-name="five.posf" horiz-adv-x="571" 
d="M64 321l44 380h374v-90h-288q-1 -9 -8 -67t-16 -126q58 43 139 43q100 0 161.5 -64t61.5 -168q0 -105 -69 -174.5t-179 -69.5q-105 0 -169 53.5t-78 153.5h111q7 -48 38.5 -83t94.5 -35q65 0 102 41.5t37 109.5q0 64 -36.5 106t-98.5 42q-85 0 -121 -67z" />
    <glyph glyph-name="six.posf" horiz-adv-x="607" 
d="M550 521h-113q-18 110 -119 110q-78 0 -119 -74t-43 -192q57 87 178 87q101 0 162.5 -62t61.5 -165q0 -108 -68.5 -173.5t-179.5 -65.5q-259 0 -259 335q0 394 268 394q100 0 158 -52t73 -142zM304 371q-66 0 -103.5 -41t-37.5 -110q0 -70 37 -111t105 -41q65 0 102 41.5
t37 108.5q0 69 -36.5 111t-103.5 42z" />
    <glyph glyph-name="seven.posf" horiz-adv-x="496" 
d="M207 0h-116q16 42 37 90t36 81t41.5 89.5t38.5 83.5q90 191 130 265v1q-9 -1 -28 -1h-313v92h446v-84l-24 -49q-148 -302 -248 -568z" />
    <glyph glyph-name="eight.posf" horiz-adv-x="594" 
d="M297 -15q-116 0 -183 56.5t-67 150.5q0 71 33.5 115.5t103.5 71.5v2q-106 45 -106 157q0 78 58 127.5t161 49.5t161 -49.5t58 -127.5q0 -112 -106 -157v-2q70 -27 103.5 -71.5t33.5 -115.5q0 -94 -67 -150.5t-183 -56.5zM297 330q-68 0 -105.5 -34.5t-37.5 -94.5
q0 -58 37.5 -93t105.5 -35q67 0 104.5 35t37.5 93q0 60 -38 94.5t-104 34.5zM297 623q-53 0 -84.5 -28t-31.5 -73t31.5 -73t84.5 -28q54 0 85.5 28t31.5 73t-31.5 73t-85.5 28z" />
    <glyph glyph-name="nine.posf" horiz-adv-x="607" 
d="M57 180h113q5 -44 33 -76.5t86 -32.5q78 0 118 73.5t44 190.5q-56 -82 -178 -82q-101 0 -162 61.5t-61 163.5q0 106 68.5 171.5t179.5 65.5q258 0 258 -335q0 -192 -66.5 -293t-201.5 -101q-100 0 -158 52t-73 142zM304 334q65 0 103 40.5t38 108.5q0 67 -38.5 108.5
t-103.5 41.5t-102.5 -40.5t-37.5 -107.5q0 -68 38 -109.5t103 -41.5z" />
    <glyph glyph-name="zero.slash" 
d="M287 729q75 0 126.5 -30.5t78 -86t37 -117t10.5 -139.5q0 -84 -11.5 -147.5t-38.5 -116t-78 -80t-124 -27.5t-124 27.5t-78 80t-38.5 116t-11.5 147.5q0 78 10.5 139.5t37 117t78 86t126.5 30.5zM425 357q0 125 -22 191l-167 -469q19 -10 51 -10q78 0 108 74.5t30 213.5z
M287 644q-42 0 -70.5 -22t-42.5 -64.5t-19.5 -89.5t-5.5 -111q0 -121 20 -186l166 463q-21 10 -48 10z" />
    <glyph glyph-name="zero.tosf" 
d="M287 715q75 0 126.5 -30t78 -84.5t37 -114.5t10.5 -137q0 -82 -11.5 -144t-38.5 -114t-78 -79t-124 -27t-124 27t-78 79t-38.5 114t-11.5 144q0 77 10.5 137t37 114.5t78 84.5t126.5 30zM287 631q-42 0 -70.5 -21.5t-42.5 -63t-19.5 -87.5t-5.5 -109q0 -66 6 -114
t21 -87.5t43 -60t68 -20.5q78 0 108 72.5t30 209.5q0 62 -5.5 108.5t-20 88t-42.5 63t-70 21.5z" />
    <glyph glyph-name="one.tosf" 
d="M285 0v516h-172v74q93 2 135.5 27.5t52.5 83.5h88v-701h-104z" />
    <glyph glyph-name="two.tosf" 
d="M522 0h-466v91q25 23 77 67q118 104 141 126q70 64 101 114t31 105t-32.5 87.5t-88.5 32.5q-126 0 -131 -146h-106q0 107 63 172.5t174 65.5t172.5 -58.5t61.5 -153.5q0 -50 -19.5 -97t-59.5 -92t-71.5 -73.5t-84.5 -71.5q-15 -13 -55 -44t-46 -36h339v-89z" />
    <glyph glyph-name="three.tosf" 
d="M34 202h111q14 -125 138 -125q59 0 95 37.5t36 93.5q0 66 -42.5 97t-112.5 31h-23v87q144 0 144 105q0 47 -28 71t-72 24q-46 0 -73.5 -25t-31.5 -71h-106q2 85 59 136.5t155 51.5q96 0 153 -47.5t57 -125.5q0 -112 -113 -156q151 -36 151 -182q0 -97 -68.5 -157.5
t-182.5 -60.5q-110 0 -173 56.5t-73 159.5z" />
    <glyph glyph-name="four.tosf" 
d="M549 235v-81h-99v-154h-100v154h-334v75l221 312q101 150 111 160h102v-466h99zM354 572h-2q-56 -92 -97 -150l-47 -68q-34 -48 -54 -78l-29 -41h225v112q0 93 4 225z" />
    <glyph glyph-name="five.tosf" 
d="M66 321l44 380h374v-90h-288q-1 -9 -8 -67t-16 -126q58 43 139 43q100 0 161.5 -64t61.5 -168q0 -105 -69 -174.5t-179 -69.5q-105 0 -169 53.5t-78 153.5h111q7 -48 38.5 -83t94.5 -35q65 0 102 41.5t37 109.5q0 64 -36.5 106t-98.5 42q-85 0 -121 -67z" />
    <glyph glyph-name="six.tosf" 
d="M534 521h-113q-18 110 -119 110q-78 0 -119 -74t-43 -192q57 87 178 87q101 0 162.5 -62t61.5 -165q0 -108 -68.5 -173.5t-179.5 -65.5q-259 0 -259 335q0 394 268 394q100 0 158 -52t73 -142zM288 371q-66 0 -103.5 -41t-37.5 -110q0 -70 37 -111t105 -41q65 0 102 41.5
t37 108.5q0 69 -36.5 111t-103.5 42z" />
    <glyph glyph-name="seven.tosf" 
d="M246 0h-116q16 42 37 90t36 81t41.5 89.5t38.5 83.5q90 191 130 265v1q-9 -1 -28 -1h-313v92h446v-84l-24 -49q-148 -302 -248 -568z" />
    <glyph glyph-name="eight.tosf" 
d="M287 -15q-116 0 -183 56.5t-67 150.5q0 71 33.5 115.5t103.5 71.5v2q-106 45 -106 157q0 78 58 127.5t161 49.5t161 -49.5t58 -127.5q0 -112 -106 -157v-2q70 -27 103.5 -71.5t33.5 -115.5q0 -94 -67 -150.5t-183 -56.5zM287 330q-68 0 -105.5 -34.5t-37.5 -94.5
q0 -58 37.5 -93t105.5 -35q67 0 104.5 35t37.5 93q0 60 -38 94.5t-104 34.5zM287 623q-53 0 -84.5 -28t-31.5 -73t31.5 -73t84.5 -28q54 0 85.5 28t31.5 73t-31.5 73t-85.5 28z" />
    <glyph glyph-name="nine.tosf" 
d="M41 180h113q5 -44 33 -76.5t86 -32.5q78 0 118 73.5t44 190.5q-56 -82 -178 -82q-101 0 -162 61.5t-61 163.5q0 106 68.5 171.5t179.5 65.5q258 0 258 -335q0 -192 -66.5 -293t-201.5 -101q-100 0 -158 52t-73 142zM288 334q65 0 103 40.5t38 108.5q0 67 -38.5 108.5
t-103.5 41.5t-102.5 -40.5t-37.5 -107.5q0 -68 38 -109.5t103 -41.5z" />
    <glyph glyph-name="a.sub" horiz-adv-x="413" 
d="M122 147h-79q6 62 50 97.5t115 35.5q79 0 119 -37.5t40 -141.5v-79q0 -104 8 -145h-73q-2 10 -4 46v5q-43 -59 -129 -59q-64 0 -103.5 31t-39.5 85q0 25 10.5 44.5t31.5 33t43 23t56.5 16t59.5 10t63 7.5q-2 55 -23 77t-60 22q-79 0 -85 -71zM290 43v11q0 7 1 9l-21 -3
t-21 -2q-73 -11 -106 -26t-33 -47q0 -27 20.5 -42.5t55.5 -15.5q104 0 104 116z" />
    <glyph glyph-name="b.sub" horiz-adv-x="469" 
d="M48 -123v536h78v-190q44 59 127 59t134 -59t51 -148q0 -93 -51.5 -150t-133.5 -57q-87 0 -132 60v-51h-73zM238 -68q54 0 85 38.5t31 103.5q0 63 -31.5 102.5t-84.5 39.5t-84.5 -39.5t-31.5 -102.5q0 -65 31 -103.5t85 -38.5z" />
    <glyph glyph-name="c.sub" horiz-adv-x="439" 
d="M333 4h81q-17 -61 -63 -98.5t-120 -37.5q-91 0 -145.5 58t-54.5 150q0 90 55 148t146 58q74 0 121 -38t62 -103h-81q-27 76 -105 76q-53 0 -84.5 -39.5t-31.5 -102.5q0 -64 31 -102.5t85 -38.5q76 0 104 70z" />
    <glyph glyph-name="d.sub" horiz-adv-x="470" 
d="M422 413v-536h-73v51q-45 -60 -133 -60q-81 0 -132.5 57t-51.5 150q0 89 51.5 148t134.5 59q82 0 126 -59v190h78zM231 -68q55 0 86 38.5t31 103.5q0 63 -31.5 102.5t-85.5 39.5q-53 0 -84 -39.5t-31 -102.5q0 -64 31 -103t84 -39z" />
    <glyph glyph-name="e.sub" horiz-adv-x="445" 
d="M418 54h-308q4 -53 36.5 -87t85.5 -34q65 0 100 57h78q-20 -56 -66 -89.5t-115 -33.5q-91 0 -144.5 56t-53.5 150q0 92 55 150.5t143 58.5q93 0 141.5 -59t48.5 -146q0 -5 -0.5 -11t-0.5 -7v-5zM228 218q-44 0 -76 -28t-39 -74h224q-6 46 -34.5 74t-74.5 28zM337 115l1 1
h-1v-1z" />
    <glyph glyph-name="f.sub" horiz-adv-x="232" 
d="M217 416v-63q-3 1 -9 1h-9q-46 0 -46 -43v-40h64v-61h-64v-333h-78v333h-51v61h51v27q0 56 29 88.5t84 32.5q16 0 29 -3z" />
    <glyph glyph-name="g.sub" horiz-adv-x="470" 
d="M225 -204q64 0 92.5 39t27.5 117q-38 -59 -132 -59q-83 0 -132 53t-49 139q0 87 50.5 141t131.5 54q89 0 131 -56v45h77v-316q0 -64 -19 -113q-46 -109 -180 -109q-70 0 -115.5 35t-63.5 97h81q29 -67 100 -67zM231 -42q51 0 83.5 34t32.5 96q0 58 -31 93t-85 35
q-53 0 -84 -35.5t-31 -94.5q0 -58 31 -93t84 -35z" />
    <glyph glyph-name="h.sub" horiz-adv-x="431" 
d="M48 414h79v-142q0 -37 -1 -50q15 23 46.5 41.5t75.5 18.5q68 0 103.5 -43t35.5 -119v-243h-79v213q0 125 -87 125q-42 0 -67.5 -30.5t-26.5 -76.5v-231h-79v537z" />
    <glyph glyph-name="i.sub" horiz-adv-x="174" 
d="M128 326h-82v88h82v-88zM48 271h78v-394h-78v394z" />
    <glyph glyph-name="j.sub" horiz-adv-x="174" 
d="M48 270h78v-422q0 -67 -25 -94q-24 -25 -88 -25q-25 0 -38 3v58q1 -1 5 -1h13q34 0 46 16q9 12 9 38v427zM128 325h-82v88h82v-88z" />
    <glyph glyph-name="k.sub" horiz-adv-x="380" 
d="M386 -123h-106q-6 7 -94 120l-59 75v-195h-79v537h79v-315l143 172h97l-107 -117l-55 -60q7 -8 43 -52t74 -90t64 -75z" />
    <glyph glyph-name="l.sub" horiz-adv-x="174" 
d="M48 -123v537h78v-537h-78z" />
    <glyph glyph-name="m.sub" horiz-adv-x="683" 
d="M48 -123v394h77v-51q41 62 122 62q86 0 119 -70q46 70 136 70q68 0 102.5 -42.5t34.5 -119.5v-243h-78v213q0 125 -84 125q-43 0 -68.5 -32t-25.5 -80v-226h-78v213q0 125 -84 125q-43 0 -68.5 -32t-25.5 -80v-226h-79z" />
    <glyph glyph-name="n.sub" horiz-adv-x="431" 
d="M127 -123h-79v363q0 21 -1 31h78v-51q41 62 123 62q68 0 103.5 -43t35.5 -119v-243h-79v213q0 125 -87 125q-43 0 -68.5 -32.5t-25.5 -79.5v-226z" />
    <glyph glyph-name="o.sub" horiz-adv-x="462" 
d="M229 -66q55 0 86 38t31 103q0 63 -31.5 102.5t-85.5 39.5q-53 0 -84 -39.5t-31 -102.5q0 -64 30.5 -102.5t84.5 -38.5zM229 -132q-93 0 -145.5 57t-52.5 149q0 94 54 151t146 57t146 -57t54 -151q0 -92 -54 -149t-148 -57z" />
    <glyph glyph-name="p.sub" horiz-adv-x="470" 
d="M48 -258v529h75v-28v-19q46 58 128 58q85 0 136 -58t51 -149q0 -92 -51.5 -149.5t-133.5 -57.5q-89 0 -128 54q0 -3 0.5 -33.5t0.5 -53.5v-93h-78zM238 -67q54 0 85 38.5t31 102.5q0 63 -31.5 103t-84.5 40t-84.5 -40t-31.5 -103q0 -64 31 -102.5t85 -38.5z" />
    <glyph glyph-name="q.sub" horiz-adv-x="470" 
d="M422 271v-529h-78v159q0 17 1 24q-42 -57 -128 -57q-84 0 -134.5 57t-50.5 150q0 90 51 148.5t135 58.5q83 0 128 -57q-1 11 -1 26v20h77zM231 -67q56 0 86.5 38.5t30.5 104.5q0 63 -31.5 102t-85.5 39q-53 0 -84 -40t-31 -103q0 -64 30.5 -102.5t84.5 -38.5z" />
    <glyph glyph-name="r.sub" horiz-adv-x="243" 
d="M233 278v-71q-7 3 -26 3q-48 0 -64.5 -31.5t-16.5 -96.5v-205h-78v358q0 24 -1 36h75v-45q23 54 91 54q12 0 20 -2z" />
    <glyph glyph-name="s.sub" horiz-adv-x="377" 
d="M25 -3h77q21 -65 94 -65q33 0 53.5 13.5t20.5 39.5q0 24 -16 33.5t-56 20.5l-45 12q-54 14 -84.5 40t-30.5 75q0 52 42.5 84t108.5 32t105.5 -30t46.5 -86h-74q-18 52 -80 52q-33 0 -51.5 -12.5t-18.5 -33.5t16.5 -32.5t51.5 -21.5l44 -12q63 -17 91 -41.5t28 -71.5
q0 -57 -43 -91t-112 -34q-143 0 -168 129z" />
    <glyph glyph-name="t.sub" horiz-adv-x="248" 
d="M72 210h-58v61h58v106h79v-106h71v-61h-71v-234q0 -48 46 -48q10 0 18 2v-58q-10 -2 -15 -2h-15q-55 0 -84 23t-29 78v239z" />
    <glyph glyph-name="u.sub" horiz-adv-x="427" 
d="M301 271h78v-363q0 -21 1 -31h-75v54q-41 -65 -124 -65q-136 0 -136 158v247h78v-216q0 -122 84 -122q43 0 68.5 32t25.5 80v226z" />
    <glyph glyph-name="v.sub" horiz-adv-x="396" 
d="M156 -123l-1 1q-94 253 -147 392h89l61 -180l18 -51l26 -76l14 45q6 18 14 40l18 51l58 171h84l-152 -393h-82z" />
    <glyph glyph-name="w.sub" horiz-adv-x="598" 
d="M137 -123l-1 1q-5 15 -68 212l-57 180h84l50 -179q5 -17 18 -62.5t19 -69.5l16 63l22 87l39 161h82l38 -152q4 -12 9 -36.5t8 -36.5l23 -86l47 167q4 16 18.5 66.5t21.5 77.5h81l-125 -393h-92q-45 157 -72 281q-65 -250 -74 -281h-87z" />
    <glyph glyph-name="x.sub" horiz-adv-x="376" 
d="M4 -123l-1 2q5 8 20.5 29.5t50 69t70.5 98.5l-135 194h93l89 -134q16 27 48.5 76t38.5 58h88q-14 -23 -134 -187q23 -36 145 -206h-94q-78 117 -95 147q-1 -1 -99 -147h-85z" />
    <glyph glyph-name="y.sub" horiz-adv-x="395" 
d="M182 -258h-82l57 137l-77 202l-73 190h89l104 -305q8 23 48 138.5t58 166.5h84l-77 -195q-72 -185 -131 -334z" />
    <glyph glyph-name="z.sub" horiz-adv-x="373" 
d="M28 -123v59l158 194l62 79q-7 0 -26 -0.5t-30 -0.5h-158v62h304v-62l-157 -194l-63 -76h43q14 0 30.5 0.5t20.5 0.5h132v-62h-316z" />
    <glyph glyph-name="a.sup" horiz-adv-x="412" 
d="M122 572h-79q6 62 50 97.5t115 35.5q79 0 119 -37.5t40 -141.5v-79q0 -104 8 -145h-73q-2 10 -4 46v5q-43 -59 -129 -59q-64 0 -103.5 31t-39.5 85q0 25 10.5 44.5t31.5 33t43 23t56.5 16t59.5 10t63 7.5q-2 55 -23 77t-60 22q-79 0 -85 -71zM290 468v11q0 7 1 9
q-6 0 -20.5 -2t-21.5 -3q-73 -11 -106 -26t-33 -47q0 -27 20.5 -42.5t55.5 -15.5q104 0 104 116z" />
    <glyph glyph-name="b.sup" horiz-adv-x="470" 
d="M48 302v536h78v-190q44 59 127 59t134 -59t51 -148q0 -93 -51.5 -150t-133.5 -57q-87 0 -132 60v-51h-73zM238 357q54 0 85 38.5t31 103.5q0 63 -31.5 102.5t-84.5 39.5t-84.5 -39.5t-31.5 -102.5q0 -65 31 -103.5t85 -38.5z" />
    <glyph glyph-name="c.sup" horiz-adv-x="440" 
d="M333 429h81q-17 -61 -63 -98.5t-120 -37.5q-91 0 -145.5 58t-54.5 150q0 90 55 148t146 58q74 0 121 -38t62 -103h-81q-27 76 -105 76q-53 0 -84.5 -39.5t-31.5 -102.5q0 -64 31 -102.5t85 -38.5q76 0 104 70z" />
    <glyph glyph-name="d.sup" horiz-adv-x="470" 
d="M422 838v-536h-73v51q-45 -60 -133 -60q-81 0 -132.5 57t-51.5 150q0 89 51.5 148t134.5 59q82 0 126 -59v190h78zM231 357q55 0 86 38.5t31 103.5q0 63 -31.5 102.5t-85.5 39.5q-53 0 -84 -39.5t-31 -102.5q0 -64 31 -103t84 -39z" />
    <glyph glyph-name="e.sup" horiz-adv-x="445" 
d="M418 479h-308q4 -53 36.5 -87t85.5 -34q65 0 100 57h78q-20 -56 -66 -89.5t-115 -33.5q-91 0 -144.5 56t-53.5 150q0 92 55 150.5t143 58.5q93 0 141.5 -59t48.5 -146q0 -5 -0.5 -11t-0.5 -7v-5zM228 643q-44 0 -76 -28t-39 -74h224q-6 46 -34.5 74t-74.5 28zM337 540
l1 1h-1v-1z" />
    <glyph glyph-name="f.sup" horiz-adv-x="232" 
d="M217 841v-63q-3 1 -9 1h-9q-46 0 -46 -43v-40h64v-61h-64v-333h-78v333h-51v61h51v27q0 56 29 88.5t84 32.5q16 0 29 -3z" />
    <glyph glyph-name="g.sup" horiz-adv-x="470" 
d="M225 221q64 0 92.5 39t27.5 117q-38 -59 -132 -59q-83 0 -132 53t-49 139q0 87 50.5 141t131.5 54q89 0 131 -56v45h77v-316q0 -64 -19 -113q-46 -109 -180 -109q-70 0 -115.5 35t-63.5 97h81q29 -67 100 -67zM231 383q51 0 83.5 34t32.5 96q0 58 -31 93t-85 35
q-53 0 -84 -35.5t-31 -94.5q0 -58 31 -93t84 -35z" />
    <glyph glyph-name="h.sup" horiz-adv-x="431" 
d="M48 839h79v-142q0 -37 -1 -50q15 23 46.5 41.5t75.5 18.5q68 0 103.5 -43t35.5 -119v-243h-79v213q0 125 -87 125q-42 0 -67.5 -30.5t-26.5 -76.5v-231h-79v537z" />
    <glyph glyph-name="i.sup" horiz-adv-x="174" 
d="M128 751h-82v88h82v-88zM48 696h78v-394h-78v394z" />
    <glyph glyph-name="j.sup" horiz-adv-x="174" 
d="M48 695h78v-422q0 -67 -25 -94q-24 -25 -88 -25q-25 0 -38 3v58q1 -1 5 -1h13q34 0 46 16q9 12 9 38v427zM128 750h-82v88h82v-88z" />
    <glyph glyph-name="k.sup" horiz-adv-x="380" 
d="M386 302h-106q-6 7 -94 120l-59 75v-195h-79v537h79v-315l143 172h97l-107 -117l-55 -60q7 -8 43 -52t74 -90t64 -75z" />
    <glyph glyph-name="l.sup" horiz-adv-x="174" 
d="M48 302v537h78v-537h-78z" />
    <glyph glyph-name="m.sup" horiz-adv-x="683" 
d="M48 302v394h77v-51q41 62 122 62q86 0 119 -70q46 70 136 70q68 0 102.5 -42.5t34.5 -119.5v-243h-78v213q0 125 -84 125q-43 0 -68.5 -32t-25.5 -80v-226h-78v213q0 125 -84 125q-43 0 -68.5 -32t-25.5 -80v-226h-79z" />
    <glyph glyph-name="n.sup" horiz-adv-x="431" 
d="M127 302h-79v363q0 21 -1 31h78v-51q41 62 123 62q68 0 103.5 -43t35.5 -119v-243h-79v213q0 125 -87 125q-43 0 -68.5 -32.5t-25.5 -79.5v-226z" />
    <glyph glyph-name="o.sup" horiz-adv-x="464" 
d="M230 359q55 0 86 38t31 103q0 63 -31.5 102.5t-85.5 39.5q-53 0 -84 -39.5t-31 -102.5q0 -64 30.5 -102.5t84.5 -38.5zM230 293q-93 0 -145.5 57t-52.5 149q0 94 54 151t146 57t146 -57t54 -151q0 -92 -54 -149t-148 -57z" />
    <glyph glyph-name="p.sup" horiz-adv-x="470" 
d="M48 167v529h75v-28v-19q46 58 128 58q85 0 136 -58t51 -149q0 -92 -51.5 -149.5t-133.5 -57.5q-89 0 -128 54q0 -3 0.5 -33.5t0.5 -53.5v-93h-78zM238 358q54 0 85 38.5t31 102.5q0 63 -31.5 103t-84.5 40t-84.5 -40t-31.5 -103q0 -64 31 -102.5t85 -38.5z" />
    <glyph glyph-name="q.sup" horiz-adv-x="470" 
d="M422 696v-529h-78v159q0 17 1 24q-42 -57 -128 -57q-84 0 -134.5 57t-50.5 150q0 90 51 148.5t135 58.5q83 0 128 -57q-1 11 -1 26v20h77zM231 358q56 0 86.5 38.5t30.5 104.5q0 63 -31.5 102t-85.5 39q-53 0 -84 -40t-31 -103q0 -64 30.5 -102.5t84.5 -38.5z" />
    <glyph glyph-name="r.sup" horiz-adv-x="244" 
d="M233 703v-71q-7 3 -26 3q-48 0 -64.5 -31.5t-16.5 -96.5v-205h-78v358q0 24 -1 36h75v-45q23 54 91 54q12 0 20 -2z" />
    <glyph glyph-name="s.sup" horiz-adv-x="378" 
d="M25 422h77q21 -65 94 -65q33 0 53.5 13.5t20.5 39.5q0 24 -16 33.5t-56 20.5l-45 12q-54 14 -84.5 40t-30.5 75q0 52 42.5 84t108.5 32t105.5 -30t46.5 -86h-74q-18 52 -80 52q-33 0 -51.5 -12.5t-18.5 -33.5t16.5 -32.5t51.5 -21.5l44 -12q63 -17 91 -41.5t28 -71.5
q0 -57 -43 -91t-112 -34q-143 0 -168 129z" />
    <glyph glyph-name="t.sup" horiz-adv-x="250" 
d="M73 635h-58v61h58v106h79v-106h71v-61h-71v-234q0 -48 46 -48q10 0 18 2v-58q-10 -2 -15 -2h-15q-55 0 -84 23t-29 78v239z" />
    <glyph glyph-name="u.sup" horiz-adv-x="426" 
d="M300 696h78v-364q0 -20 1 -30h-75v54q-41 -65 -124 -65q-136 0 -136 158v247h78v-216q0 -122 84 -122q43 0 68.5 32t25.5 80v226z" />
    <glyph glyph-name="v.sup" horiz-adv-x="394" 
d="M155 302l-1 1q-94 253 -147 392h89l61 -180l18 -51l26 -76l14 45q6 18 14 40l18 51l58 171h84l-152 -393h-82z" />
    <glyph glyph-name="w.sup" horiz-adv-x="597" 
d="M137 302l-1 1q-5 15 -68 212q-6 20 -18 57.5t-21.5 67.5t-17.5 55h84l50 -179q5 -17 18 -62.5t19 -69.5l16 63l22 87l39 161h82l38 -152q4 -12 9 -36.5t8 -36.5l23 -86l47 167q4 16 18.5 66.5t21.5 77.5h81l-125 -393h-92q-45 157 -72 281q-65 -250 -74 -281h-87z" />
    <glyph glyph-name="x.sup" horiz-adv-x="375" 
d="M3 302l-1 2q5 8 20.5 29.5t50 69t70.5 98.5l-135 194h93l89 -134q16 27 48.5 76t38.5 58h88q-14 -23 -134 -187q23 -36 145 -206h-94q-78 117 -95 147q-1 -1 -99 -147h-85z" />
    <glyph glyph-name="y.sup" horiz-adv-x="397" 
d="M183 167h-82l57 137l-77 202l-73 190h89l104 -305q8 23 48 138.5t58 166.5h84l-77 -195q-72 -185 -131 -334z" />
    <glyph glyph-name="z.sup" horiz-adv-x="373" 
d="M28 302v59l158 194l62 79q-7 0 -26 -0.5t-30 -0.5h-158v62h304v-62l-157 -194l-63 -76h43q14 0 30.5 0.5t20.5 0.5h132v-62h-316z" />
    <glyph glyph-name="zero.sub" horiz-adv-x="461" 
d="M231 427q45 0 79.5 -15.5t55 -41t33 -63t17 -75.5t4.5 -85q0 -63 -8.5 -110.5t-29 -87t-58.5 -60t-93 -20.5q-56 0 -94 20.5t-58.5 60t-29 87t-8.5 110.5q0 47 4.5 85t17.5 75.5t33.5 63t54.5 41t80 15.5zM231 361q-59 0 -81 -57t-22 -156q0 -103 22.5 -158.5t80.5 -55.5
q57 0 79 55.5t22 158.5q0 64 -7 107.5t-30.5 74.5t-63.5 31z" />
    <glyph glyph-name="one.sub" horiz-adv-x="308" 
d="M152 -123v394h-129v58q70 2 102 21t39 64h67v-537h-79z" />
    <glyph glyph-name="two.sub" horiz-adv-x="433" 
d="M393 -123h-351v72l58 51q59 52 106 96q52 48 75 86.5t23 79.5t-23.5 65t-65.5 24q-94 0 -97 -110h-82q0 82 47.5 132.5t131.5 50.5q83 0 129 -44.5t46 -117.5q0 -38 -14.5 -74t-44 -70.5t-54 -57.5t-62.5 -55q-22 -21 -55 -43q-4 -2 -9 -7t-9 -8h251v-70z" />
    <glyph glyph-name="three.sub" horiz-adv-x="438" 
d="M28 35h85q10 -95 103 -95q44 0 70 28t26 70q0 50 -31.5 74t-82.5 24h-18v68q107 0 107 80q0 34 -21 52t-52 18q-34 0 -54.5 -19t-23.5 -54l-82 1q2 65 45 104.5t117 39.5q72 0 114.5 -36t42.5 -96q0 -87 -82 -119q111 -30 111 -140q0 -73 -51.5 -119.5t-136.5 -46.5
q-83 0 -130.5 43.5t-55.5 122.5z" />
    <glyph glyph-name="four.sub" horiz-adv-x="451" 
d="M422 58v-64h-74v-117h-77v117h-249v60l248 360h78v-356h74zM271 58v85q0 89 3 170q-46 -77 -71 -114l-35 -52l-40 -59q-6 -9 -22 -30h165zM275 314v1l-1 -1h1z" />
    <glyph glyph-name="five.sub" horiz-adv-x="430" 
d="M48 124l33 292h282v-71h-215q-2 -10 -4.5 -31t-3.5 -31l-10 -80q41 30 103 30q75 0 121 -49t46 -129q0 -82 -51.5 -134.5t-134.5 -52.5q-79 0 -127.5 41t-58.5 118h85q5 -36 28.5 -62.5t70.5 -26.5q48 0 75 31t27 83q0 48 -26.5 80t-72.5 32q-64 0 -91 -52z" />
    <glyph glyph-name="six.sub" horiz-adv-x="459" 
d="M415 276h-87q-18 83 -87 83q-56 0 -87.5 -56t-33.5 -142q49 64 133 64q75 0 121.5 -48t46.5 -127q0 -83 -51.5 -132.5t-134.5 -49.5q-196 0 -196 256q0 301 202 301q76 0 119 -40t55 -109zM230 161q-49 0 -77 -31.5t-28 -83.5t28 -83t78 -31q48 0 75 31t27 82
q0 52 -27 84t-76 32z" />
    <glyph glyph-name="seven.sub" horiz-adv-x="376" 
d="M158 -123h-89q28 73 101 233l14 31q49 112 95 201q-7 -1 -20 -1h-233v73h335v-66l-18 -36q-110 -235 -185 -435z" />
    <glyph glyph-name="eight.sub" horiz-adv-x="449" 
d="M225 -132q-89 0 -139 42.5t-50 115.5q0 54 25 88.5t76 56.5q-31 12 -54 42t-23 78q0 59 43.5 97t121.5 38t121 -38t43 -97q0 -85 -77 -122q100 -42 100 -143q0 -73 -49.5 -115.5t-137.5 -42.5zM225 131q-50 0 -78 -26t-28 -72q0 -43 28 -69.5t78 -26.5q48 0 76 26.5
t28 69.5q0 45 -27.5 71.5t-76.5 26.5zM225 354q-39 0 -62.5 -20.5t-23.5 -54.5t23.5 -55.5t62.5 -21.5t62.5 21.5t23.5 55.5q0 33 -23.5 54t-62.5 21z" />
    <glyph glyph-name="nine.sub" horiz-adv-x="458" 
d="M43 18h87q12 -83 88 -83q56 0 86 55t34 142q-48 -60 -132 -60q-76 0 -122 46.5t-46 126.5q0 82 51.5 131.5t135.5 49.5q194 0 194 -256q0 -301 -201 -301q-149 0 -175 149zM230 136q47 0 75 31t28 82t-28 82t-76 31q-47 0 -75.5 -31t-28.5 -80q0 -52 28.5 -83.5
t76.5 -31.5z" />
    <glyph glyph-name="zero.sup" horiz-adv-x="459" 
d="M230 852q45 0 79.5 -15.5t55 -41t33 -63t17 -75.5t4.5 -85q0 -63 -8.5 -110.5t-29 -87t-58.5 -60t-93 -20.5q-56 0 -94 20.5t-58.5 60t-29 87t-8.5 110.5q0 47 4.5 85t17.5 75.5t33.5 63t54.5 41t80 15.5zM230 786q-59 0 -81 -57t-22 -156q0 -103 22.5 -158.5t80.5 -55.5
q57 0 79 55.5t22 158.5q0 64 -7 107.5t-30.5 74.5t-63.5 31z" />
    <glyph glyph-name="one.sup" horiz-adv-x="309" 
d="M153 302v394h-129v58q70 2 102 21t39 64h67v-537h-79z" />
    <glyph glyph-name="two.sup" horiz-adv-x="432" 
d="M393 302h-351v72l58 51q59 52 106 96q52 48 75 86.5t23 79.5t-23.5 65t-65.5 24q-94 0 -97 -110h-82q0 82 47.5 132.5t131.5 50.5q83 0 129 -44.5t46 -117.5q0 -38 -14.5 -74t-44 -70.5t-54 -57.5t-62.5 -55q-22 -21 -55 -43q-3 -3 -9 -8t-9 -7h251v-70z" />
    <glyph glyph-name="three.sup" horiz-adv-x="438" 
d="M28 460h85q10 -95 103 -95q44 0 70 28t26 70q0 50 -31.5 74t-82.5 24h-18v68q107 0 107 80q0 34 -21 52t-52 18q-34 0 -54.5 -19t-23.5 -54l-82 1q2 65 45 104.5t117 39.5q72 0 114.5 -36t42.5 -96q0 -87 -82 -119q111 -30 111 -140q0 -73 -51.5 -119.5t-136.5 -46.5
q-83 0 -130.5 43.5t-55.5 122.5z" />
    <glyph glyph-name="four.sup" horiz-adv-x="451" 
d="M422 483v-64h-74v-117h-77v117h-249v60l248 360h78v-356h74zM271 483v85q0 89 3 170q-46 -77 -71 -114l-35 -52l-40 -59q-6 -9 -22 -30h165zM275 739v1l-1 -1h1z" />
    <glyph glyph-name="five.sup" horiz-adv-x="430" 
d="M48 549l33 292h282v-71h-215q-2 -10 -4.5 -31t-3.5 -31l-10 -80q41 30 103 30q75 0 121 -49t46 -129q0 -82 -51.5 -134.5t-134.5 -52.5q-79 0 -127.5 41t-58.5 118h85q5 -36 28.5 -62.5t70.5 -26.5q48 0 75 31t27 83q0 48 -26.5 80t-72.5 32q-64 0 -91 -52z" />
    <glyph glyph-name="six.sup" horiz-adv-x="459" 
d="M415 701h-87q-18 83 -87 83q-56 0 -87.5 -56t-33.5 -142q49 64 133 64q75 0 121.5 -48t46.5 -127q0 -83 -51.5 -132.5t-134.5 -49.5q-196 0 -196 256q0 301 202 301q76 0 119 -40t55 -109zM230 586q-49 0 -77 -31.5t-28 -83.5t28 -83t78 -31q48 0 75 31t27 82
q0 52 -27 84t-76 32z" />
    <glyph glyph-name="seven.sup" horiz-adv-x="375" 
d="M158 302h-89q28 73 101 233l14 31q49 112 95 201q-7 -1 -20 -1h-233v73h335v-66l-18 -36q-110 -235 -185 -435z" />
    <glyph glyph-name="eight.sup" horiz-adv-x="449" 
d="M225 293q-89 0 -139 42.5t-50 115.5q0 54 25 88.5t76 56.5q-31 12 -54 42t-23 78q0 59 43.5 97t121.5 38t121 -38t43 -97q0 -85 -77 -122q100 -42 100 -143q0 -73 -49.5 -115.5t-137.5 -42.5zM225 556q-50 0 -78 -26t-28 -72q0 -43 28 -69.5t78 -26.5q48 0 76 26.5
t28 69.5q0 45 -27.5 71.5t-76.5 26.5zM225 779q-39 0 -62.5 -20.5t-23.5 -54.5t23.5 -55.5t62.5 -21.5t62.5 21.5t23.5 55.5q0 33 -23.5 54t-62.5 21z" />
    <glyph glyph-name="nine.sup" horiz-adv-x="457" 
d="M42 443h87q12 -83 88 -83q56 0 86 55t34 142q-47 -60 -132 -60q-76 0 -122 46.5t-46 126.5q0 82 51.5 131.5t135.5 49.5q194 0 194 -256q0 -301 -201 -301q-149 0 -175 149zM229 561q47 0 75 31t28 82t-28 82t-76 31q-47 0 -75.5 -31t-28.5 -80q0 -52 28.5 -83.5
t76.5 -31.5z" />
    <glyph glyph-name="idotaccent" horiz-adv-x="247" 
d="M73 525h101v-525h-101v525zM71 601v114h105v-114h-105z" />
    <glyph glyph-name="zero.slashplf" horiz-adv-x="610" 
d="M305 729q75 0 126.5 -30.5t78 -86t37 -117t10.5 -139.5q0 -84 -11.5 -147.5t-38.5 -116t-78 -80t-124 -27.5t-124 27.5t-78 80t-38.5 116t-11.5 147.5q0 78 10.5 139.5t37 117t78 86t126.5 30.5zM443 357q0 125 -22 191l-167 -469q19 -10 51 -10q78 0 108 74.5t30 213.5z
M305 644q-42 0 -70.5 -22t-42.5 -64.5t-19.5 -89.5t-5.5 -111q0 -121 20 -186l166 463q-21 10 -48 10z" />
    </font>
</defs>
</svg>
