<?xml version="1.0" standalone="no"?>
<!DOCTYPE svg PUBLIC "-//W3C//DTD SVG 1.1//EN" "http://www.w3.org/Graphics/SVG/1.1/DTD/svg11.dtd" >
<svg>
<metadata>
Created by FontForge 20120731 at Tue Dec 15 21:06:17 2015
 By ,,,
Copyright (c) 2008 Linotype GmbH, www.linotype.com. All rights reserved. This font software may not be reproduced, modified, disclosed or transferred without the express written approval of Linotype GmbH. Aptifer is a trademark of Linotype GmbH and may be registered in certain jurisdictions. This typeface is original artwork of Marten Thavenius. The design may be protected in certain jurisdictions.
</metadata>
<defs>
<font id="AptiferSlabLTPro-Light" horiz-adv-x="333" >
  <font-face 
    font-family="Aptifer Slab LT Pro Light"
    font-weight="300"
    font-stretch="normal"
    units-per-em="1000"
    panose-1="2 4 4 3 3 4 3 2 2 4"
    ascent="750"
    descent="-250"
    x-height="493"
    cap-height="680"
    bbox="-134 -232 1192 900"
    underline-thickness="50"
    underline-position="-50"
    unicode-range="U+000D-FB04"
  />
<missing-glyph horiz-adv-x="500" 
d="M210 174v-63h53v63h-53zM211 238v-16h46v28q0 32 7.5 47t38.5 43q35 32 47.5 56.5t12.5 56.5q0 56 -33 90t-85 34q-54 0 -88 -32t-40 -98l48 -8q10 90 77 90q30 0 51 -23.5t21 -56.5q0 -37 -46 -80q-34 -30 -45.5 -55.5t-11.5 -75.5zM438 47h-391v585h391v-585zM0 680
v-680h485v680h-485z" />
    <glyph glyph-name="f_b" unicode="fb" horiz-adv-x="892" 
d="M54 438v55h66v87q0 66 51.5 108t132.5 42q62 0 122 -20l40 10h34v-303h2q22 26 39 42.5t46.5 30.5t61.5 14q96 0 147 -67t51 -192q0 -116 -56.5 -185.5t-152.5 -69.5q-42 0 -79.5 17t-61.5 44h-2l-5 -51h-60v650q-14 9 -49.5 16t-70.5 7q-53 0 -86.5 -28.5t-33.5 -73.5
v-78h126v-55h-126v-384l91 -14v-40h-242v40l81 14v384h-66zM776 245q0 198 -144 198q-61 0 -132 -88v-241q20 -24 58.5 -44t69.5 -20q66 0 107 49t41 146z" />
    <glyph glyph-name="f_f_b" unicode="ffb" horiz-adv-x="1202" 
d="M313 713q83 0 154 -39q51 56 147 56q68 0 120 -19l42 9h33v-302h2q21 25 38 40.5t48 30.5t63 15q96 0 146.5 -67t50.5 -192q0 -116 -56.5 -185.5t-152.5 -69.5q-88 0 -142 61h-2l-3 -51h-61v650q-14 8 -50 15.5t-71 7.5q-53 0 -86 -28.5t-33 -73.5v-78h126v-55h-126v-384
l91 -14v-40h-239v40l78 14v384h-240v-384l89 -14v-40h-240v40l81 14v384h-66v55h66v47q0 75 57.5 124t135.5 49zM1086 245q0 198 -143 198q-60 0 -134 -88v-241q21 -24 59.5 -44t68.5 -20q67 0 108 48.5t41 146.5zM190 493h240v83q0 27 11 52q-48 29 -122 29
q-56 0 -92.5 -34.5t-36.5 -90.5v-39z" />
    <glyph glyph-name="f_f_h" unicode="ffh" horiz-adv-x="1221" 
d="M39 0v40l81 14v384h-66v55h66v47q0 75 58 124t135 49q81 0 155 -39q50 56 145 56q71 0 121 -19l41 9h34v-297h2q62 80 163 80q59 0 98.5 -38t39.5 -120v-291l80 -14v-40h-224v40l74 14v284q0 52 -22.5 78.5t-57.5 26.5q-86 0 -153 -78v-311l76 -14v-40h-223v40l78 14v596
q-42 23 -122 23q-53 0 -85.5 -29.5t-32.5 -72.5v-78h126v-55h-126v-384l89 -14v-40h-237v40l78 14v384h-240v-384l89 -14v-40h-240zM190 493h240v82q0 22 11 53q-48 29 -123 29q-54 0 -91 -34.5t-37 -90.5v-39z" />
    <glyph glyph-name="f_f_j" unicode="ffj" horiz-adv-x="885" 
d="M309 713q85 0 155 -37q52 54 150 54q100 0 168 -44l-23 -47q-25 13 -67 23.5t-72 10.5q-50 0 -85 -23t-35 -70v-87h309v-386q0 -105 -8.5 -139.5t-50.5 -72.5l-92 -83l-45 49l85 77q28 25 35 45.5t7 75.5v379h-240v-384l91 -14v-40h-239v40l78 14v384h-240v-384l89 -14
v-40h-240v40l81 14v384h-66v55h66v47q0 74 57.5 123.5t131.5 49.5zM190 493h240v90q0 22 9 47q-47 27 -124 27q-51 0 -88 -34.5t-37 -90.5v-39z" />
    <glyph glyph-name="f_f_k" unicode="ffk" horiz-adv-x="1172" 
d="M809 181v-127l79 -14v-40h-225v40l77 14v596q-42 23 -121 23q-50 0 -84.5 -27.5t-34.5 -74.5v-78h126v-55h-126v-384l89 -14v-40h-237v40l78 14v384h-240v-384l89 -14v-40h-240v40l81 14v384h-66v55h66v47q0 75 58 124t135 49q79 0 155 -39q50 56 146 56q72 0 120 -19
l42 9h33v-460h4q22 31 154 181l-60 10v42h217v-40l-82 -14l-107 -120l151 -265l78 -14v-40h-123q-12 22 -51 90t-64 114.5t-35 69.5h-2zM430 573q0 29 11 56q-51 28 -122 28q-53 0 -91 -34t-38 -91v-39h240v80z" />
    <glyph glyph-name="f_f_t" unicode="fft" horiz-adv-x="981" 
d="M39 0v40l81 14v384h-66v55h66v47q0 75 58 124t135 49q78 0 146 -34q41 51 118 51q66 0 122 -24l-19 -51q-48 18 -95 18q-37 0 -61 -21.5t-24 -59.5v-99h240v93l69 29v-122h118v-55h-118v-339q0 -48 49 -48q32 0 79 19l22 -56q-58 -23 -110 -23q-50 0 -79.5 25.5
t-29.5 70.5v351h-240v-384l91 -14v-40h-239v40l78 14v384h-240v-384l89 -14v-40h-240zM430 591q0 20 7 40q-45 26 -118 26q-53 0 -91 -34t-38 -91v-39h240v98z" />
    <glyph glyph-name="f_h" unicode="fh" horiz-adv-x="903" 
d="M54 438v55h66v87q0 65 52.5 107.5t132.5 42.5q66 0 121 -20l39 10h35v-297h2q56 80 157 80q57 0 95.5 -38t38.5 -120v-291l81 -14v-40h-224v40l73 14v284q0 53 -21 79t-55 26q-84 0 -147 -78v-311l75 -15v-39h-223v39l78 15v596q-12 8 -47.5 15.5t-72.5 7.5
q-51 0 -85.5 -27.5t-34.5 -74.5v-78h126v-55h-126v-384l89 -14v-40h-240v40l81 14v384h-66z" />
    <glyph glyph-name="f_j" unicode="fj" horiz-adv-x="576" 
d="M54 438v55h66v96q0 70 55 105.5t134 35.5q40 0 87 -12t76 -32l-23 -48q-63 35 -136 35q-55 0 -89 -25t-34 -68v-87h310v-431q0 -71 -11 -101.5t-50 -65.5l-92 -83l-44 49l86 77q27 25 34 45.5t7 75.5v379h-240v-384l91 -14v-40h-242v40l81 14v384h-66z" />
    <glyph glyph-name="f_k" unicode="fk" horiz-adv-x="862" 
d="M855 0h-123l-89 159q-53 98 -61 115h-2l-80 -93v-127l80 -13v-41h-228v40l78 14v596q-46 23 -121 23q-52 0 -85.5 -29t-33.5 -73v-78h126v-55h-126v-384l89 -14v-40h-240v40l81 14v384h-66v55h66v87q0 64 51 107t133 43q73 0 122 -20l40 10h34v-460h3q34 43 80 96l75 85
l-61 10v42h217v-40l-82 -14l-107 -120l152 -265l78 -14v-40z" />
    <glyph glyph-name="f_f" unicode="ff" horiz-adv-x="650" 
d="M313 713q83 0 145 -33q41 50 114 50q58 0 109 -24l-20 -51q-42 18 -81 18q-34 0 -57 -20.5t-23 -60.5v-99h126v-55h-126v-384l99 -14v-40h-247v40l78 14v384h-240v-384l89 -14v-40h-240v40l81 14v384h-66v55h66v47q0 74 58 123.5t135 49.5zM190 493h240v96q0 24 7 42
q-48 26 -118 26q-55 0 -92 -34.5t-37 -91.5v-38z" />
    <glyph glyph-name="fi" unicode="fi" horiz-adv-x="608" 
d="M54 438v55h66v96q0 67 53 104t137 37q42 0 87.5 -12.5t74.5 -31.5l-23 -48q-67 35 -135 35q-55 0 -89.5 -24.5t-34.5 -68.5v-87h309v-439l81 -14v-40h-228v40l77 14v384h-239v-384l89 -14v-40h-240v40l81 14v384h-66z" />
    <glyph glyph-name="fl" unicode="fl" horiz-adv-x="609" 
d="M54 438v55h66v87q0 67 52.5 108.5t131.5 41.5q66 0 122 -20l40 10h34v-666l81 -14v-40h-229v40l78 14v596q-41 23 -121 23q-51 0 -85 -28.5t-34 -73.5v-78h126v-55h-126v-384l89 -14v-40h-240v40l81 14v384h-66z" />
    <glyph glyph-name="f_f_i" unicode="ffi" horiz-adv-x="919" 
d="M190 438v-384l89 -14v-40h-240v40l81 14v384h-66v55h66v47q0 76 55.5 124.5t137.5 48.5q79 0 151 -36q52 53 156 53q41 0 87 -12t75 -32l-23 -48q-66 35 -135 35q-56 0 -90 -25t-34 -68v-87h309v-439l82 -14v-40h-229v40l78 14v384h-240v-384l89 -14v-40h-237v40l78 14
v384h-240zM190 493h240v88q0 24 8 48q-46 28 -119 28q-57 0 -93 -34t-36 -92v-38z" />
    <glyph glyph-name="f_f_l" unicode="ffl" horiz-adv-x="919" 
d="M313 713q82 0 155 -39q50 56 146 56q65 0 120 -19l42 9h33v-666l82 -14v-40h-229v40l78 14v596q-42 23 -121 23q-51 0 -85 -28t-34 -74v-78h126v-55h-126v-384l89 -14v-40h-237v40l78 14v384h-240v-384l89 -14v-40h-240v40l81 14v384h-66v55h66v47q0 75 58 124t135 49z
M190 493h240v83q0 28 11 52q-49 29 -122 29q-55 0 -92 -35t-37 -91v-38z" />
    <glyph glyph-name="ft" unicode="ft" horiz-adv-x="672" 
d="M649 14q-60 -23 -110 -23t-79.5 25.5t-29.5 70.5v351h-240v-384l91 -14v-40h-242v40l81 14v384h-66v55h66v106q0 57 41.5 94t105.5 37q72 0 122 -24l-19 -51q-45 18 -95 18q-39 0 -62 -22.5t-23 -58.5v-99h240v93l70 29v-122h116v-55h-116v-339q0 -48 47 -48q33 0 80 19z
" />
    <glyph glyph-name=".notdef" horiz-adv-x="500" 
d="M210 174v-63h53v63h-53zM211 238v-16h46v28q0 32 7.5 47t38.5 43q35 32 47.5 56.5t12.5 56.5q0 56 -33 90t-85 34q-54 0 -88 -32t-40 -98l48 -8q10 90 77 90q30 0 51 -23.5t21 -56.5q0 -37 -46 -80q-34 -30 -45.5 -55.5t-11.5 -75.5zM438 47h-391v585h391v-585zM0 680
v-680h485v680h-485z" />
    <glyph glyph-name=".null" horiz-adv-x="0" 
 />
    <glyph glyph-name="nonmarkingreturn" 
 />
    <glyph glyph-name="CR" unicode="&#xd;" horiz-adv-x="0" 
 />
    <glyph glyph-name="space" unicode=" " horiz-adv-x="233" 
 />
    <glyph glyph-name="exclam" unicode="!" horiz-adv-x="243" 
d="M81 680h79v-187l-14 -323h-50l-15 323v187zM70 43q0 22 15 38t36 16q22 0 37 -15.5t15 -38.5q0 -22 -15 -37.5t-37 -15.5q-21 0 -36 15.5t-15 37.5z" />
    <glyph glyph-name="quotedbl" unicode="&#x22;" horiz-adv-x="299" 
d="M59 497l-11 137v86h63v-86l-11 -137h-41zM199 497l-11 137v86h63v-86l-11 -137h-41z" />
    <glyph glyph-name="numbersign" unicode="#" horiz-adv-x="502" 
d="M60 442v49h89l20 166h50l-20 -166h143l20 166h50l-20 -166h79v-49h-86l-25 -199h83v-50h-89l-24 -193h-50l24 193h-143l-23 -193h-50l23 193h-80v50h87l24 199h-82zM192 442l-24 -199h142l25 199h-143z" />
    <glyph glyph-name="dollar" unicode="$" horiz-adv-x="502" 
d="M432 192q0 -74 -43.5 -120.5t-107.5 -56.5v-102h-57v100q-71 4 -157 36v126h45l14 -81q52 -22 120 -22q47 0 80.5 31.5t33.5 84.5q0 91 -109 124q-35 10 -60 21.5t-52.5 31t-42 50t-14.5 70.5q0 64 42 108.5t103 50.5v97h57v-95q37 -3 103 -24v-122h-45l-14 79
q-32 10 -70 10q-47 0 -76 -29.5t-29 -72.5q0 -45 28 -67.5t90 -42.5q72 -23 116.5 -66t44.5 -119z" />
    <glyph glyph-name="percent" unicode="%" horiz-adv-x="765" 
d="M309 463q0 -97 -35 -149.5t-105 -52.5t-105 52.5t-35 149.5q0 95 35.5 148t103.5 53q69 0 105 -53t36 -148zM251 463q0 152 -82 152t-82 -152q0 -153 82 -153t82 153zM587 667l-360 -677h-50l359 677h51zM736 194q0 -97 -35 -149.5t-105 -52.5t-105 52.5t-35 149.5
q0 95 35.5 148t103.5 53q69 0 105 -53t36 -148zM678 194q0 152 -82 152t-82 -152q0 -153 82 -153t82 153z" />
    <glyph glyph-name="ampersand" unicode="&#x26;" horiz-adv-x="659" 
d="M626 0h-117q-62 75 -71 86q-40 -40 -98.5 -68t-110.5 -28q-88 0 -145 45.5t-57 131.5q0 62 54.5 121t126.5 98q-42 56 -59.5 89.5t-17.5 72.5q0 67 48 104.5t106 37.5q69 0 115 -38.5t46 -104.5q0 -49 -40 -90.5t-109 -87.5q49 -69 149 -193q52 71 79 127h112v-40
l-80 -13q-46 -87 -74 -119q12 -16 33.5 -42t27.5 -34l82 -14v-41zM197 547q0 -53 65 -133q118 76 118 132q0 40 -26.5 63t-66.5 23q-35 0 -62.5 -24.5t-27.5 -60.5zM399 133q-151 200 -156 208q-58 -34 -103 -81.5t-45 -93.5q0 -53 38.5 -85.5t92.5 -32.5q39 0 90 25t83 60z
" />
    <glyph glyph-name="quotesingle" unicode="'" horiz-adv-x="159" 
d="M59 497l-11 137v86h63v-86l-11 -137h-41z" />
    <glyph glyph-name="parenleft" unicode="(" horiz-adv-x="306" 
d="M96 283q0 240 163 434l40 -31q-67 -95 -102.5 -189t-35.5 -214t35.5 -214t102.5 -189l-40 -31q-163 193 -163 434z" />
    <glyph glyph-name="parenright" unicode=")" horiz-adv-x="306" 
d="M210 283q0 -239 -163 -434l-40 31q67 94 102 188t35 215t-35 215t-102 188l40 31q76 -91 119.5 -194.5t43.5 -239.5z" />
    <glyph glyph-name="asterisk" unicode="*" horiz-adv-x="421" 
d="M29 537l20 60l40 -13l100 -46l2 2l-12 110v42h63v-42l-12 -110l2 -2l100 46l40 13l20 -60l-40 -12l-107 -23l-1 -2l73 -82l26 -33l-51 -38l-25 34l-55 95h-2l-56 -95l-24 -34l-52 38l26 33l73 82l-1 2l-107 23z" />
    <glyph glyph-name="plus" unicode="+" horiz-adv-x="502" 
d="M464 251h-187v-188h-51v188h-188v52h188v186h51v-186h187v-52z" />
    <glyph glyph-name="comma" unicode="," horiz-adv-x="201" 
d="M145 116q1 -5 1 -19q0 -51 -26.5 -112t-67.5 -106l-37 11q23 41 38.5 96t15.5 97q0 15 -1 22z" />
    <glyph glyph-name="hyphen" unicode="-" horiz-adv-x="325" 
d="M34 248v56h257v-56h-257z" />
    <glyph glyph-name="period" unicode="." horiz-adv-x="201" 
d="M49 43q0 22 15 38t36 16q22 0 37 -15.5t15 -38.5q0 -22 -15 -37.5t-37 -15.5q-21 0 -36 15.5t-15 37.5z" />
    <glyph glyph-name="slash" unicode="/" horiz-adv-x="374" 
d="M327 762h59l-340 -816h-58z" />
    <glyph glyph-name="zero" unicode="0" horiz-adv-x="502" 
d="M466 328q0 -163 -53.5 -250.5t-161.5 -87.5t-161 87t-53 251q0 162 54 250.5t159 88.5q106 0 161 -88.5t55 -250.5zM391 328q0 275 -140 275t-140 -275q0 -274 140 -274t140 274z" />
    <glyph glyph-name="one" unicode="1" horiz-adv-x="502" 
d="M396 0h-261v39l97 15v533l-2 1l-120 -67l-21 47l154 89h61v-603l92 -15v-39z" />
    <glyph glyph-name="two" unicode="2" horiz-adv-x="502" 
d="M449 0h-395v35q0 138 93 244q26 30 66.5 59t69 47t50 48t21.5 68q0 43 -27.5 72t-88.5 29q-49 0 -101 -26l-14 -80h-44v124q88 46 168 46q87 0 134 -43t47 -120q0 -41 -13 -73.5t-37 -55t-48 -39.5t-55 -38.5t-50 -40.5q-94 -94 -96 -191v-2h261l14 85h45v-148z" />
    <glyph glyph-name="three" unicode="3" horiz-adv-x="502" 
d="M429 207q0 -97 -76 -156.5t-184 -59.5q-55 0 -112 19l15 62q56 -17 96 -17q75 0 130.5 39.5t55.5 113.5q0 51 -32 86t-78 35l-44 -6l-8 54q70 12 101.5 43.5t31.5 89.5q0 48 -31.5 70.5t-75.5 22.5q-48 0 -99 -35l-15 -78h-44v115q86 61 163 61q75 0 125 -37.5t50 -111.5
q0 -55 -22.5 -93t-61.5 -54v-2q49 -11 82 -55t33 -106z" />
    <glyph glyph-name="four" unicode="4" horiz-adv-x="502" 
d="M462 149h-66v-96l82 -14v-39h-235v39l82 14v96h-292v53l245 455h78l-166 -309q-43 -80 -77 -135v-2h212v178h71v-178h66v-62z" />
    <glyph glyph-name="five" unicode="5" horiz-adv-x="502" 
d="M452 226q0 -103 -80 -169t-183 -66q-64 0 -137 18l18 63q65 -17 117 -17q73 0 132 52t59 120q0 130 -127 130q-57 0 -126 -50l-51 36l44 314h281v-63h-219l-31 -216h2q51 40 123 40q88 0 133 -54t45 -138z" />
    <glyph glyph-name="six" unicode="6" horiz-adv-x="502" 
d="M461 211q0 -92 -57 -156.5t-144 -64.5q-92 0 -150.5 66.5t-58.5 167.5q0 89 21 167.5t62.5 141t109.5 98.5t155 36v-61q-57 0 -106 -25t-81.5 -65t-52.5 -84.5t-25 -87.5h2q52 79 138 79q83 0 135 -56t52 -156zM387 211q0 71 -34 112t-88 41q-38 0 -79 -27t-57 -75
q-3 -21 -3 -45q0 -72 37.5 -118t96.5 -46q55 0 91 46t36 112z" />
    <glyph glyph-name="seven" unicode="7" horiz-adv-x="502" 
d="M434 599q-191 -284 -191 -599h-73q0 162 51.5 315t135.5 277v2h-232l-15 -82h-44v145h368v-58z" />
    <glyph glyph-name="eight" unicode="8" horiz-adv-x="502" 
d="M448 165q0 -73 -53 -124t-142 -51t-144.5 51t-55.5 122q0 127 132 184v2q-44 27 -72.5 63t-28.5 95q0 64 47 112t125 48t125.5 -48t47.5 -110t-30 -104t-77 -60v-2q126 -51 126 -178zM362 506q0 36 -26.5 69t-79.5 33q-52 0 -77.5 -33.5t-25.5 -69.5q0 -50 33 -84t82 -53
q94 39 94 138zM376 166q0 106 -142 157q-56 -26 -82.5 -62.5t-26.5 -96.5q0 -41 36 -77.5t92 -36.5q55 0 89 36.5t34 79.5z" />
    <glyph glyph-name="nine" unicode="9" horiz-adv-x="502" 
d="M452 436q0 -95 -20 -174t-62.5 -141t-114 -96.5t-167.5 -34.5v60q66 0 119.5 24t86.5 63.5t52 84.5t25 94h-2q-53 -75 -136 -75q-84 0 -137.5 54t-53.5 153q0 92 55.5 155.5t142.5 63.5q94 0 153 -64.5t59 -166.5zM378 443q0 72 -39 116.5t-99 44.5q-55 0 -89.5 -44.5
t-34.5 -110.5q0 -70 35.5 -109t90.5 -39q38 0 77 25t55 73q4 28 4 44z" />
    <glyph glyph-name="colon" unicode=":" horiz-adv-x="201" 
d="M49 418q0 22 15 38t36 16q22 0 37 -15.5t15 -38.5q0 -22 -15 -37.5t-37 -15.5q-21 0 -36 15.5t-15 37.5zM49 43q0 22 15 38t36 16q22 0 37 -15.5t15 -38.5q0 -22 -15 -37.5t-37 -15.5q-21 0 -36 15.5t-15 37.5z" />
    <glyph glyph-name="semicolon" unicode=";" horiz-adv-x="212" 
d="M156 115q1 -5 1 -19q0 -51 -26.5 -111.5t-68.5 -105.5l-36 11q23 41 38.5 96.5t15.5 97.5q0 15 -1 22zM57 418q0 22 15 38t36 16q22 0 37 -15.5t15 -38.5q0 -22 -15 -37.5t-37 -15.5q-21 0 -36 15.5t-15 37.5z" />
    <glyph glyph-name="less" unicode="&#x3c;" horiz-adv-x="502" 
d="M454 33l-406 217v54l406 217v-55l-356 -188v-2l356 -188v-55z" />
    <glyph glyph-name="equal" unicode="=" horiz-adv-x="502" 
d="M38 174v52h426v-52h-426zM38 328v52h426v-52h-426z" />
    <glyph glyph-name="greater" unicode="&#x3e;" horiz-adv-x="502" 
d="M454 250l-406 -217v55l357 188v2l-357 188v55l406 -217v-54z" />
    <glyph glyph-name="question" unicode="?" horiz-adv-x="385" 
d="M184 170h-62v75q0 38 24 75.5t52 63.5t52 63.5t24 75.5q0 45 -27.5 73t-79.5 28q-38 0 -68 -12l-14 -84h-45v134q66 26 126 26q89 0 135.5 -43.5t46.5 -117.5q0 -39 -17 -75t-41 -62.5t-48 -50.5t-41 -49t-17 -49v-71zM102 43q0 22 15 38t36 16q22 0 37 -15.5t15 -38.5
q0 -22 -15 -37.5t-37 -15.5q-21 0 -36 15.5t-15 37.5z" />
    <glyph glyph-name="at" unicode="@" horiz-adv-x="814" 
d="M581 -36l15 -47q-79 -25 -187 -25q-167 0 -260 98t-93 263q0 103 53.5 193t144.5 143t196 53q141 0 224.5 -83t83.5 -233q0 -125 -63.5 -196t-141.5 -71q-71 0 -86 60h-2q-45 -60 -117 -60q-62 0 -95.5 44t-33.5 117q0 111 70.5 183.5t187.5 72.5q41 0 95 -22l-51 -293
q0 -28 10.5 -37.5t33.5 -9.5q51 0 92 56.5t41 153.5q0 130 -65 196.5t-183 66.5q-135 0 -233.5 -100t-98.5 -235q0 -141 76 -224.5t214 -83.5q97 0 173 20zM467 194l39 221q-18 6 -34 6q-80 0 -135 -55t-55 -142q0 -57 20 -83.5t63 -26.5q36 0 66.5 24.5t35.5 55.5z" />
    <glyph glyph-name="A" unicode="A" horiz-adv-x="645" 
d="M80 54l201 626h83l201 -626l74 -14v-40h-225v41l79 13l-43 135h-258l-42 -135l79 -13v-41h-223v40zM209 249h223l-32 104q-59 190 -78 261h-2q-23 -87 -79 -262z" />
    <glyph glyph-name="B" unicode="B" horiz-adv-x="605" 
d="M124 54v572l-82 14v40h292q87 0 139.5 -47t52.5 -121q0 -88 -77 -140v-2q55 -25 86.5 -69t31.5 -103q0 -91 -52 -144.5t-147 -53.5h-326v40zM197 620v-228h143q53 0 83.5 35t30.5 82q0 50 -34.5 80.5t-92.5 30.5h-130zM197 332v-269h163q63 0 98 37t35 100
q0 57 -39.5 94.5t-98.5 37.5h-158z" />
    <glyph glyph-name="C" unicode="C" horiz-adv-x="540" 
d="M48 340q0 159 89 254t228 95q60 0 126 -23v-132h-44l-14 82q-32 9 -70 9q-103 0 -172 -78.5t-69 -206.5q0 -132 58 -208.5t160 -76.5q70 0 145 26l19 -61q-84 -29 -165 -29q-135 0 -213 94t-78 255z" />
    <glyph glyph-name="D" unicode="D" horiz-adv-x="653" 
d="M605 341q0 -159 -79 -250t-218 -91h-266v40l82 14v572l-82 14v40h268q135 0 215 -91.5t80 -247.5zM531 340q0 127 -61 202t-163 75h-110v-554h110q104 0 164 74t60 203z" />
    <glyph glyph-name="E" unicode="E" horiz-adv-x="580" 
d="M532 0h-490v40l82 14v572l-82 14v40h468v-138h-44l-13 76h-256v-234h223l13 60h41v-180h-41l-13 60h-223v-261h277l13 83h45v-146z" />
    <glyph glyph-name="F" unicode="F" horiz-adv-x="532" 
d="M438 618h-241v-251h205l13 61h41v-182h-41l-13 61h-205v-253l88 -14v-40h-243v40l82 14v572l-82 14v40h453v-139h-44z" />
    <glyph glyph-name="G" unicode="G" horiz-adv-x="640" 
d="M558 0h-48l-12 58h-2q-30 -29 -74 -48.5t-90 -19.5q-137 0 -210.5 90.5t-73.5 257.5q0 157 88 254t229 97q84 0 162 -30v-131h-44l-14 81q-46 16 -105 16q-105 0 -173.5 -79.5t-68.5 -207.5q0 -137 54 -210.5t159 -73.5q75 0 154 61v144l-81 14v41h216v-40l-66 -15v-259z
" />
    <glyph glyph-name="H" unicode="H" horiz-adv-x="714" 
d="M672 0h-232v40l78 14v261h-321v-261l77 -14v-40h-232v40l82 14v572l-82 14v40h232v-40l-77 -14v-248h321v248l-78 14v40h232v-40l-82 -14v-572l82 -14v-40z" />
    <glyph glyph-name="I" unicode="I" horiz-adv-x="320" 
d="M197 626v-572l81 -14v-40h-236v40l82 14v572l-82 14v40h236v-40z" />
    <glyph glyph-name="J" unicode="J" horiz-adv-x="321" 
d="M211 626v-519q0 -53 -14.5 -93t-31 -60t-46.5 -45l-83 -71l-43 52l73 65q25 22 37 35t23.5 44t11.5 75v517l-81 14v40h235v-40z" />
    <glyph glyph-name="K" unicode="K" horiz-adv-x="624" 
d="M626 0h-131l-104 178q-87 150 -107 189h-2l-85 -110v-203l79 -14v-40h-234v40l82 14v572l-82 14v40h227v-41l-72 -13v-273h2q16 22 86 112q98 123 131 163l-64 11v41h226v-40l-81 -14l-172 -209l220 -363l81 -14v-40z" />
    <glyph glyph-name="L" unicode="L" horiz-adv-x="524" 
d="M509 0h-467v40l82 14v572l-82 14v40h236v-40l-81 -14v-563h255l13 93h44v-156z" />
    <glyph glyph-name="M" unicode="M" horiz-adv-x="782" 
d="M740 0h-235v40l81 14v245q0 178 3 244h-2q-42 -90 -123 -243l-52 -100h-42l-52 100q-99 191 -122 243h-2q3 -66 3 -244v-245l82 -14v-40h-237v40l82 14v572l-82 14v40h148l103 -201q71 -136 97 -197h2q25 63 96 197l103 201h149v-40l-81 -14v-572l81 -14v-40z" />
    <glyph glyph-name="N" unicode="N" horiz-adv-x="712" 
d="M601 0h-66l-219 351q-84 137 -121 203h-2q4 -76 4 -202v-298l80 -14v-40h-235v40l82 14v572l-82 14v40h148l221 -354q78 -125 118 -200h2q-3 43 -3 203v297l-80 14v40h234v-40l-81 -14v-626z" />
    <glyph glyph-name="O" unicode="O" horiz-adv-x="658" 
d="M610 340q0 -162 -75.5 -256t-205.5 -94q-131 0 -206 94t-75 256q0 161 75.5 255.5t205.5 94.5t205.5 -94.5t75.5 -255.5zM536 340q0 131 -57 208.5t-150 77.5q-94 0 -150.5 -77.5t-56.5 -208.5q0 -133 55.5 -209.5t151.5 -76.5t151.5 76.5t55.5 209.5z" />
    <glyph glyph-name="P" unicode="P" horiz-adv-x="571" 
d="M547 486q0 -98 -56.5 -155.5t-153.5 -57.5h-140v-219l81 -14v-40h-236v40l82 14v572l-82 14v40h280q103 0 164 -51.5t61 -142.5zM473 486q0 56 -40 93.5t-113 37.5h-123v-281h137q70 0 104.5 44t34.5 106z" />
    <glyph glyph-name="Q" unicode="Q" horiz-adv-x="658" 
d="M610 340q0 -132 -50 -219t-140 -115q44 -27 81.5 -39.5t98.5 -12.5q24 0 37 1l1 -59q-22 -2 -46 -2q-72 0 -116.5 15t-91.5 42t-93 41q-115 14 -179 105.5t-64 242.5q0 161 75.5 255.5t205.5 94.5t205.5 -94.5t75.5 -255.5zM536 340q0 131 -57 208.5t-150 77.5
q-94 0 -150.5 -77.5t-56.5 -208.5q0 -133 55.5 -209.5t151.5 -76.5t151.5 76.5t55.5 209.5z" />
    <glyph glyph-name="R" unicode="R" horiz-adv-x="633" 
d="M632 0h-132l-162 305h-141v-251l79 -14v-40h-234v40l82 14v572l-82 14v40h295q99 0 152 -47t53 -132q0 -71 -36 -119.5t-99 -64.5v-2q7 -12 55 -100l89 -161l81 -14v-40zM468 501q0 55 -37.5 85.5t-103.5 30.5h-130v-249h131q41 0 70 12.5t43.5 33t20.5 42t6 45.5z" />
    <glyph glyph-name="S" unicode="S" horiz-adv-x="505" 
d="M462 191q0 -93 -61 -146.5t-154 -53.5q-97 0 -206 40v135h45l14 -85q69 -27 147 -27q57 0 98.5 36t41.5 97q0 55 -32 85.5t-101 51.5q-44 13 -69.5 23.5t-60 32t-51.5 55t-17 78.5q0 77 57 126.5t147 49.5q69 0 147 -26v-131h-45l-14 80q-42 15 -89 15q-58 0 -93 -31.5
t-35 -80.5q0 -28 9.5 -47.5t32.5 -34t43 -22t60 -20.5q85 -26 135.5 -70.5t50.5 -129.5z" />
    <glyph glyph-name="T" unicode="T" horiz-adv-x="550" 
d="M527 535h-44l-15 82h-156v-563l81 -14v-40h-235v40l81 14v563h-157l-15 -82h-44v145h504v-145z" />
    <glyph glyph-name="U" unicode="U" horiz-adv-x="681" 
d="M575 209q0 -103 -61.5 -161t-172.5 -58q-110 0 -172.5 58t-62.5 161v417l-81 14v40h232v-40l-78 -14v-414q0 -72 41 -115t121 -43t120.5 42.5t40.5 115.5v414l-77 14v40h231v-40l-81 -14v-417z" />
    <glyph glyph-name="V" unicode="V" horiz-adv-x="599" 
d="M527 626l-187 -626h-80l-188 626l-64 14v40h206v-40l-68 -14l84 -292q64 -235 70 -259h2q7 33 70 259l85 292l-65 14v40h200v-40z" />
    <glyph glyph-name="W" unicode="W" horiz-adv-x="909" 
d="M827 626l-177 -626h-72l-73 303q-25 102 -49 224h-2q-3 -20 -52 -229l-71 -298h-72l-177 626l-74 14v40h226v-40l-79 -14l71 -259q52 -191 68 -273h2q30 139 58 254l81 332h43l80 -324q44 -189 58 -262h2q10 54 64 254l76 278l-80 14v40h224v-40z" />
    <glyph glyph-name="X" unicode="X" horiz-adv-x="622" 
d="M610 0h-232v40l76 14l-71 120q-42 73 -73 132h-2q-43 -84 -73 -132l-70 -120l75 -14v-40h-231v40l76 14l186 305l-162 267l-76 14v40h225v-41l-72 -13l48 -80q32 -52 76 -139h2q24 49 75 139l47 81l-72 12v41h227v-40l-76 -15l-165 -266l186 -305l76 -14v-40z" />
    <glyph glyph-name="Y" unicode="Y" horiz-adv-x="587" 
d="M505 626l-176 -383v-189l82 -14v-40h-236v40l82 14v189l-175 383l-74 14v40h226v-41l-74 -13l45 -104q50 -117 88 -218h2q39 105 88 215l45 106l-75 14v41h227v-40z" />
    <glyph glyph-name="Z" unicode="Z" horiz-adv-x="509" 
d="M473 0h-436v58l256 429q32 52 83 128v2h-256l-14 -82h-45v145h394v-58l-245 -405q-21 -35 -94 -152v-2h298l14 87h45v-150z" />
    <glyph glyph-name="bracketleft" unicode="[" horiz-adv-x="307" 
d="M108 -136v837h173v-46l-107 -9v-727l107 -9v-46h-173z" />
    <glyph glyph-name="backslash" unicode="\" horiz-adv-x="370" 
d="M328 -54l-340 816h55l339 -816h-54z" />
    <glyph glyph-name="bracketright" unicode="]" horiz-adv-x="307" 
d="M199 701v-837h-173v46l107 9v727l-107 9v46h173z" />
    <glyph glyph-name="asciicircum" unicode="^" horiz-adv-x="502" 
d="M465 277h-56l-157 354h-2l-156 -354h-58l186 403h58z" />
    <glyph glyph-name="underscore" unicode="_" horiz-adv-x="500" 
d="M0 -125v50h500v-50h-500z" />
    <glyph glyph-name="grave" unicode="`" horiz-adv-x="417" 
d="M251 579h-57l-124 119h90z" />
    <glyph glyph-name="a" unicode="a" horiz-adv-x="517" 
d="M491 14l-94 -16h-39l-12 54h-2q-12 -7 -37 -22.5t-32 -19t-22 -10.5t-26.5 -8.5t-27.5 -1.5q-62 0 -105.5 35.5t-43.5 114.5q0 85 41 122.5t102 37.5q19 0 69.5 -9.5t77.5 -10.5v63q0 58 -23 79t-73 21q-51 0 -107 -21l-13 -64h-43v107q5 1 32.5 9.5t37 11t31 7.5t38.5 7
t35 2q87 0 121 -40.5t34 -109.5v-250q0 -18 4 -44l77 -8v-36zM340 99v135q-20 2 -70 8.5t-64 6.5q-88 0 -88 -106q0 -44 23.5 -71t69.5 -27q13 0 22 1t21.5 6.5t19.5 9t29 16.5t37 21z" />
    <glyph glyph-name="b" unicode="b" horiz-adv-x="551" 
d="M506 245q0 -116 -56.5 -185.5t-152.5 -69.5q-80 0 -143 61h-2l-4 -51h-60v659l-81 5v38l111 18h39v-303h2q3 2 13.5 13t15 15t15.5 14t18 14.5t18.5 11t21 10t22 6t25.5 2.5q96 0 147 -66.5t51 -191.5zM435 245q0 197 -144 197q-59 0 -134 -87v-241q21 -24 60 -44t69 -20
q67 0 108 49t41 146z" />
    <glyph glyph-name="c" unicode="c" horiz-adv-x="428" 
d="M387 13q-68 -22 -118 -22q-107 0 -165.5 67.5t-58.5 187.5q0 118 60.5 187t162.5 69q46 0 108 -17v-120h-41l-13 68q-23 8 -56 8q-67 0 -108.5 -52.5t-41.5 -142.5q0 -91 40.5 -142.5t113.5 -51.5q47 0 101 20z" />
    <glyph glyph-name="d" unicode="d" horiz-adv-x="572" 
d="M544 14l-96 -16h-44l-5 66h-2q-72 -74 -143 -74q-95 0 -152 69.5t-57 185.5q0 125 51 191.5t147 66.5q32 0 62 -14t46.5 -28.5t39.5 -38.5h2v237l-81 5v38l111 18h40v-662l81 -8v-36zM393 123v237q-69 82 -133 82q-144 0 -144 -197q0 -97 41 -146t108 -49q30 0 68.5 23.5
t59.5 49.5z" />
    <glyph glyph-name="e" unicode="e" horiz-adv-x="489" 
d="M445 243h-333q0 -94 43.5 -144t115.5 -50q63 0 137 21l14 -57q-82 -22 -150 -22q-110 0 -168.5 68.5t-58.5 190.5q0 116 57.5 184.5t152.5 68.5q190 0 190 -242v-18zM381 293q0 69 -31.5 112t-94.5 43q-58 0 -96 -42t-45 -113h267z" />
    <glyph glyph-name="f" unicode="f" horiz-adv-x="340" 
d="M371 706l-19 -51q-50 18 -82 18q-33 0 -56.5 -20.5t-23.5 -60.5v-99h126v-55h-126v-384l91 -14v-40h-242v40l81 14v384h-66v55h66v106q0 57 40.5 94t101.5 37q58 0 109 -24z" />
    <glyph glyph-name="g" unicode="g" horiz-adv-x="527" 
d="M500 449h-110v-3q25 -18 41.5 -48.5t16.5 -64.5q0 -73 -56.5 -122t-141.5 -49q-32 0 -70 12q-20 -10 -37.5 -33.5t-17.5 -42.5q0 -35 82 -35h111q106 0 145 -28t39 -83q0 -68 -76 -120t-190 -52q-93 0 -142.5 33.5t-49.5 89.5q0 36 29.5 66t69.5 46v2q-36 8 -56.5 27
t-20.5 47q0 27 22.5 58.5t48.5 41.5v2q-38 22 -61 59t-23 81q0 73 57 121.5t142 48.5q39 0 69 -10h179v-44zM382 333q0 48 -37.5 81.5t-93.5 33.5q-54 0 -92.5 -34t-38.5 -81q0 -49 37 -83t93 -34q57 0 94.5 34t37.5 83zM432 -56q0 32 -24 47t-97 15h-105q-96 -45 -96 -100
q0 -34 37 -53.5t97 -19.5q82 0 135 36.5t53 74.5z" />
    <glyph glyph-name="h" unicode="h" horiz-adv-x="594" 
d="M565 0h-221v40l70 14v284q0 53 -22 79t-57 26q-88 0 -154 -78v-311l75 -14v-40h-226v40l81 14v605l-81 5v38l111 18h40v-295h2q61 78 164 78q59 0 98 -38t39 -120v-291l81 -14v-40z" />
    <glyph glyph-name="i" unicode="i" horiz-adv-x="299" 
d="M271 0h-232v40l81 14v378l-81 5v38l111 18h40v-439l81 -14v-40zM103 636q0 20 15 34.5t36 14.5q20 0 34.5 -14.5t14.5 -34.5t-14.5 -35t-34.5 -15q-21 0 -36 15t-15 35z" />
    <glyph glyph-name="j" unicode="j" horiz-adv-x="280" 
d="M1 -174l80 77q27 26 33.5 46.5t6.5 74.5v408l-81 5v38l111 18h40v-466q0 -71 -10.5 -102.5t-47.5 -64.5l-91 -80zM104 636q0 20 15 34.5t36 14.5q20 0 34.5 -14.5t14.5 -34.5t-14.5 -35t-34.5 -15q-21 0 -36 15t-15 35z" />
    <glyph glyph-name="k" unicode="k" horiz-adv-x="543" 
d="M536 0h-123l-89 159q-54 96 -61 115h-2l-80 -93v-127l78 -13v-41h-229v40l81 14v605l-81 5v38l111 18h40v-460h4q14 21 79 95l75 86l-60 10v42h217v-40l-83 -14l-106 -120l151 -265l78 -14v-40z" />
    <glyph glyph-name="l" unicode="l" horiz-adv-x="290" 
d="M111 54v605l-81 5v38l111 18h40v-666l81 -14v-40h-232v40z" />
    <glyph glyph-name="m" unicode="m" horiz-adv-x="877" 
d="M849 0h-221v41l70 13v283q0 106 -73 106q-43 0 -76 -21t-70 -65v-303l73 -13v-41h-213v41l70 13v283q0 106 -73 106q-43 0 -74.5 -21t-71.5 -66v-302l73 -13v-41h-224v40l81 14v378l-81 5v38l111 18h31l5 -79h2q62 89 160 89q43 0 76 -23t45 -69h2q69 92 166 92
q58 0 94 -38t36 -121v-290l82 -14v-40z" />
    <glyph glyph-name="n" unicode="n" horiz-adv-x="603" 
d="M574 0h-221v40l70 14v283q0 54 -22 80t-56 26q-83 0 -155 -87v-302l75 -14v-40h-226v40l81 14v378l-81 5v38l111 18h31l5 -79h2q26 38 71 63.5t98 25.5q59 0 97.5 -38.5t38.5 -121.5v-289l81 -14v-40z" />
    <glyph glyph-name="o" unicode="o" horiz-adv-x="522" 
d="M261 -10q-99 0 -157.5 69.5t-58.5 187.5t58.5 187t157.5 69t157.5 -69t58.5 -187t-58.5 -187.5t-157.5 -69.5zM261 51q68 0 106.5 52.5t38.5 143.5t-38.5 143t-106.5 52t-106.5 -51.5t-38.5 -143.5t38.5 -144t106.5 -52z" />
    <glyph glyph-name="p" unicode="p" horiz-adv-x="565" 
d="M520 245q0 -116 -56.5 -185.5t-151.5 -69.5q-42 0 -80.5 18t-57.5 43h-2v-208l81 -13v-40h-232v40l81 14v588l-81 5v38l111 18h30l5 -80h2q70 90 153 90q96 0 147 -66.5t51 -191.5zM449 245q0 101 -38 149.5t-106 48.5q-31 0 -68.5 -26.5t-64.5 -59.5v-245
q21 -24 58.5 -43t68.5 -19q67 0 108.5 49t41.5 146z" />
    <glyph glyph-name="q" unicode="q" horiz-adv-x="547" 
d="M544 -210h-232v40l81 14v212h-2q-58 -66 -137 -66q-95 0 -152 69.5t-57 185.5q0 125 51 191.5t147 66.5q77 0 152 -89h2l5 79h61v-649l81 -14v-40zM393 118v238q-28 34 -64.5 60t-68.5 26q-68 0 -106 -48.5t-38 -148.5q0 -98 41.5 -146.5t109.5 -48.5q29 0 67 21.5
t59 46.5z" />
    <glyph glyph-name="r" unicode="r" horiz-adv-x="405" 
d="M383 364h-41l-13 72q-12 5 -31 5q-32 0 -62 -29.5t-46 -80.5v-277l91 -14v-40h-242v40l81 14v378l-81 5v38l111 18h31l3 -91h2q9 39 41.5 69.5t74.5 30.5q39 0 81 -26v-112z" />
    <glyph glyph-name="s" unicode="s" horiz-adv-x="424" 
d="M373 140q0 -69 -49.5 -109t-122.5 -40q-77 0 -155 27v118h42l14 -69q55 -17 97 -17t74 23t32 66q0 41 -22 59.5t-70 32.5q-28 8 -44 13.5t-38.5 17.5t-35 25t-21.5 35t-9 50q0 58 44.5 94t114.5 36q57 0 120 -20v-109h-41l-13 63q-27 9 -62 9q-42 0 -68 -20.5t-26 -52.5
q0 -11 2.5 -19.5t5 -15t10.5 -12.5t12 -9.5t17 -8t18.5 -6.5t23.5 -7.5t25 -7.5q56 -17 90.5 -49.5t34.5 -96.5z" />
    <glyph glyph-name="t" unicode="t" horiz-adv-x="348" 
d="M326 18q-62 -27 -113 -27t-81.5 25.5t-30.5 70.5v351h-67v55h67v93l70 29v-122h120v-55h-120v-339q0 -48 50 -48q36 0 84 20z" />
    <glyph glyph-name="u" unicode="u" horiz-adv-x="577" 
d="M549 14l-98 -16h-43l-6 71h-2q-54 -79 -163 -79q-59 0 -96.5 38t-37.5 120v284l-81 5v37l111 19h40v-339q0 -105 76 -105q84 0 149 77v306l-77 5v37l107 19h39v-435l82 -8v-36z" />
    <glyph glyph-name="v" unicode="v" horiz-adv-x="569" 
d="M486 439l-163 -439h-77l-163 439l-74 11v43h218v-45l-74 -9l69 -196q42 -117 61 -188h2q18 64 63 188l69 196l-74 9v45h218v-43z" />
    <glyph glyph-name="w" unicode="w" horiz-adv-x="773" 
d="M690 439l-135 -439h-66l-63 235q-21 75 -38 144h-2q-18 -64 -38 -143l-65 -236h-65l-135 439l-74 11v43h217v-44l-75 -10l54 -193q35 -115 46 -166h2q12 67 45 176l68 237h43l67 -237q32 -106 46 -176h2q17 76 46 168l54 191l-75 10v44h215v-43z" />
    <glyph glyph-name="x" unicode="x" horiz-adv-x="539" 
d="M530 0h-120l-68 102q-40 57 -73 113h-2q-13 -23 -78 -120l-63 -95h-117v39l76 15l147 213l-119 172l-76 15v39h119l56 -84q45 -66 58 -90h2q23 38 58 90l56 84h115v-39l-76 -15l-117 -172l146 -213l76 -15v-39z" />
    <glyph glyph-name="y" unicode="y" horiz-adv-x="568" 
d="M484 439l-143 -382q-50 -127 -113 -192l-86 -88l-41 40l73 76q48 53 72 109l-163 437l-74 11v43h218v-45l-74 -9l59 -162q42 -114 71 -213h2q24 75 73 214l57 161l-74 9v45h218v-43z" />
    <glyph glyph-name="z" unicode="z" horiz-adv-x="456" 
d="M411 0h-368v54l189 260q45 63 90 117v2h-210l-13 -67h-41v127h344v-55l-207 -281q-31 -43 -74 -96v-2h235l14 74h41v-133z" />
    <glyph glyph-name="braceleft" unicode="{" horiz-adv-x="307" 
d="M57 258v55q68 0 68 80v192q0 54 33.5 87t92.5 33h42v-57h-30q-72 0 -72 -73v-189q0 -37 -16 -67t-46 -33v-2q29 -3 45.5 -32.5t16.5 -66.5v-190q0 -72 72 -72h30v-58h-42q-59 0 -92.5 33t-33.5 87v192q0 81 -68 81z" />
    <glyph glyph-name="bar" unicode="|" horiz-adv-x="255" 
d="M102 720h51v-930h-51v930z" />
    <glyph glyph-name="braceright" unicode="}" horiz-adv-x="307" 
d="M250 258q-69 0 -69 -81v-192q0 -54 -33 -87t-92 -33h-43v58h31q71 0 71 72v190q0 36 16 65t46 34v2q-32 7 -47 35t-15 65v189q0 73 -71 73h-31v57h43q59 0 92 -33t33 -87v-192q0 -80 69 -80v-55z" />
    <glyph glyph-name="asciitilde" unicode="~" horiz-adv-x="502" 
d="M470 286q-5 -4 -18.5 -15.5t-18 -15.5t-15.5 -12.5t-16 -11.5t-15 -8t-17.5 -7t-17.5 -3.5t-21 -1.5q-26 0 -49.5 11.5t-38 25t-34 25t-38.5 11.5q-8 0 -15 -1t-14.5 -4.5t-12.5 -6.5t-14.5 -9.5t-14.5 -10.5t-17.5 -14.5t-18.5 -15.5l-32 43q36 32 48.5 42t38 21.5
t52.5 11.5q26 0 49 -11.5t37.5 -25t34.5 -25t39 -11.5q11 0 20 2t20.5 9.5t17.5 12t23.5 18.5t25.5 21z" />
    <glyph glyph-name="uni00A0" unicode="&#xa0;" horiz-adv-x="233" 
 />
    <glyph glyph-name="exclamdown" unicode="&#xa1;" horiz-adv-x="243" 
d="M161 -210h-79v210l14 319h51l14 -319v-210zM70 449q0 22 15 38t36 16q22 0 37 -15.5t15 -38.5q0 -22 -15 -37.5t-37 -15.5q-21 0 -36 15.5t-15 37.5z" />
    <glyph glyph-name="cent" unicode="&#xa2;" horiz-adv-x="502" 
d="M319 0h-56v80q-73 10 -124.5 83t-51.5 167q0 97 51.5 170.5t125.5 82.5v74h56v-72q35 -1 88 -19v-119h-41l-13 68q-24 8 -56 8q-58 0 -99 -56t-41 -137q0 -79 42 -134.5t99 -55.5q54 0 107 16l18 -58q-52 -18 -105 -21v-77z" />
    <glyph glyph-name="sterling" unicode="&#xa3;" horiz-adv-x="502" 
d="M73 0v51q36 44 61.5 116t28.5 137h-81v58h85v142q0 73 44 118t114 45q50 0 106 -28v-122h-43l-13 80q-23 9 -54 9q-39 0 -61 -32.5t-22 -73.5v-138h129v-58h-132q-6 -70 -27 -140t-52 -102v-2h241l14 86h45v-146h-383z" />
    <glyph glyph-name="currency" unicode="&#xa4;" horiz-adv-x="502" 
d="M42 502l33 34l65 -67q48 38 111 38q64 0 112 -38l65 67l32 -34l-65 -69q32 -48 32 -110q-2 -73 -33 -117l66 -71l-32 -35l-66 69q-44 -38 -110 -38q-67 0 -111 38l-66 -69l-33 35l67 70q-33 49 -33 118q0 64 31 110zM132 323q0 -60 32.5 -102t87.5 -42q54 0 86.5 42
t32.5 102q0 57 -34.5 96t-84.5 39q-51 0 -85.5 -38.5t-34.5 -96.5z" />
    <glyph glyph-name="yen" unicode="&#xa5;" horiz-adv-x="502" 
d="M-11 657h220v-41l-74 -13l41 -99q53 -130 74 -194h2q18 55 73 189l43 103l-74 14v41h218v-40l-76 -14l-118 -276v-2h109v-46h-128l-9 -22v-23h137v-46h-140v-134l81 -14v-40h-233v40l81 14v134h-140v46h137v23l-10 22h-127v46h108v2l-118 276l-77 14v40z" />
    <glyph glyph-name="brokenbar" unicode="&#xa6;" horiz-adv-x="255" 
d="M102 680h51v-336h-51v336zM102 167h51v-337h-51v337z" />
    <glyph glyph-name="section" unicode="&#xa7;" horiz-adv-x="501" 
d="M60 333q0 62 72 108v2q-37 40 -37 99q0 63 48 105.5t125 42.5q61 0 129 -22v-110h-43l-13 66q-31 9 -68 9q-46 0 -77 -27t-31 -64q0 -25 11.5 -46t37 -40.5t43.5 -30t54 -29.5q31 -16 47.5 -26t38.5 -29t32.5 -44.5t10.5 -57.5q0 -62 -67 -106v-2q38 -44 38 -97
q0 -66 -51.5 -108t-134.5 -42q-64 0 -148 30v117h44l14 -71q40 -18 85 -18q52 0 85.5 25.5t33.5 65.5q0 31 -25 60t-46.5 42t-69.5 38q-7 4 -11 6q-28 14 -46.5 26t-39 30.5t-31 43t-10.5 54.5zM126 335q0 -19 7 -33.5t24 -28t28.5 -20.5t37.5 -21q77 -38 115 -67
q39 39 39 69q0 25 -17 47t-35 34t-46 27q-8 4 -30.5 15t-33 16.5t-25 15t-24.5 19.5q-40 -40 -40 -73z" />
    <glyph glyph-name="dieresis" unicode="&#xa8;" horiz-adv-x="417" 
d="M71 637q0 19 13.5 33t33.5 14t33.5 -14t13.5 -33q0 -18 -14 -32t-33 -14t-33 14t-14 32zM252 637q0 19 14 33t33 14q20 0 34 -14t14 -33q0 -18 -14.5 -32t-33.5 -14t-33 14t-14 32z" />
    <glyph glyph-name="copyright" unicode="&#xa9;" horiz-adv-x="818" 
d="M716 339q0 135 -87 230.5t-220 95.5t-220 -95.5t-87 -230.5q0 -136 87 -230.5t220 -94.5t220 94.5t87 230.5zM772 340q0 -158 -103 -267t-260 -109q-156 0 -259.5 109t-103.5 267q0 157 103.5 266t259.5 109q157 0 260 -109t103 -266zM519 166l13 -48q-65 -21 -120 -21
q-92 0 -146 63t-54 169q0 112 55 179.5t145 67.5q54 0 106 -18v-95h-39l-13 55q-25 5 -54 5q-65 0 -101.5 -50.5t-36.5 -139.5q0 -88 35.5 -135.5t102.5 -47.5q55 0 107 16z" />
    <glyph glyph-name="ordfeminine" unicode="&#xaa;" horiz-adv-x="330" 
d="M315 274l-61 -6h-33l-8 30h-1q-5 -3 -13.5 -8t-11.5 -7t-9.5 -5.5t-9.5 -4.5t-8 -3.5t-8.5 -3t-8.5 -1.5t-9.5 -1.5t-9.5 -0.5q-39 0 -65.5 21t-26.5 65q0 47 25 70t64 23q14 0 43 -5t45 -6v29q0 30 -13.5 41.5t-42.5 11.5q-27 0 -56 -9l-9 -39h-36v71q71 21 108 21
q105 0 105 -92v-135q0 -6 2 -22l48 -8v-26zM209 331v66q-14 1 -40.5 4.5t-33.5 3.5q-49 0 -49 -53q0 -48 52 -48q6 0 11 0.5t8.5 1.5t10 4t10 4.5t14 7.5t17.5 9z" />
    <glyph glyph-name="guillemotleft" unicode="&#xab;" horiz-adv-x="431" 
d="M391 72h-71l-121 205l121 204h71l-122 -202v-3zM220 72h-71l-121 205l121 204h71l-122 -202v-3z" />
    <glyph glyph-name="logicalnot" unicode="&#xac;" horiz-adv-x="502" 
d="M464 148h-51v188h-375v51h426v-239z" />
    <glyph glyph-name="uni00AD" unicode="&#xad;" horiz-adv-x="325" 
d="M34 248v56h257v-56h-257z" />
    <glyph glyph-name="registered" unicode="&#xae;" horiz-adv-x="511" 
d="M223 616v-70h38q39 0 39 38q0 32 -39 32h-38zM157 627v20h109q34 0 53 -17t19 -46q0 -51 -43 -66q8 -11 22 -39l19 -35l29 -5v-20h-54l-50 95h-38v-70l28 -5v-20h-94v20l30 5v177zM415 530q0 69 -45.5 118.5t-114.5 49.5t-114 -49t-45 -119q0 -71 45 -120t114 -49
t114.5 49t45.5 120zM450 530q0 -84 -56 -142t-139 -58t-138.5 58t-55.5 142q0 83 55.5 141.5t138.5 58.5t139 -58.5t56 -141.5z" />
    <glyph glyph-name="macron" unicode="&#xaf;" horiz-adv-x="417" 
d="M78 614v47h262v-47h-262z" />
    <glyph glyph-name="degree" unicode="&#xb0;" horiz-adv-x="393" 
d="M352 532q0 -66 -46 -113t-110 -47q-63 0 -109 47t-46 113t46 112.5t109 46.5q64 0 110 -46.5t46 -112.5zM299 531q0 45 -30.5 79t-72.5 34q-43 0 -73 -33.5t-30 -79.5q0 -47 30 -79.5t73 -32.5t73 33t30 79z" />
    <glyph glyph-name="plusminus" unicode="&#xb1;" horiz-adv-x="502" 
d="M464 267h-187v-185h-51v185h-188v51h188v183h51v-183h187v-51zM464 -22h-426v51h426v-51z" />
    <glyph glyph-name="twosuperior" unicode="&#xb2;" 
d="M298 429h-254v26q0 80 56 140q19 20 54 41t55 39.5t20 45.5q0 23 -16.5 38.5t-53.5 15.5q-29 0 -55 -11l-11 -41h-36v73q55 28 112 28q56 0 87 -27t31 -74q0 -37 -18.5 -61.5t-57 -48.5t-49.5 -34q-57 -51 -61 -102v-2h150l11 45h36v-91z" />
    <glyph glyph-name="threesuperior" unicode="&#xb3;" 
d="M284 552q0 -59 -49.5 -94.5t-120.5 -35.5q-33 0 -72 11l11 48q38 -10 60 -10q46 0 80 20.5t34 60.5q0 29 -19.5 48t-47.5 19l-27 -3l-6 37q43 7 62 24t19 49q0 26 -18.5 38t-43.5 12q-28 0 -55 -15l-11 -46h-36v73q56 35 105 35q51 0 83 -22.5t32 -67.5q0 -66 -53 -86v-2
q32 -5 52.5 -30.5t20.5 -62.5z" />
    <glyph glyph-name="acute" unicode="&#xb4;" horiz-adv-x="417" 
d="M224 579h-57l90 119h90z" />
    <glyph glyph-name="mu" unicode="&#xb5;" horiz-adv-x="577" 
d="M549 14l-99 -16h-42q-4 34 -6 71h-2q-58 -79 -156 -79q-50 0 -74 25h-2v-225h-65v642l-81 5v37l111 19h40v-339q0 -104 76 -104q85 0 149 76v306l-77 5v37l107 19h39v-435l82 -8v-36z" />
    <glyph glyph-name="paragraph" unicode="&#xb6;" horiz-adv-x="566" 
d="M58 489q0 85 63 138t163 53h238v-46h-68v-742h-55v742h-65v-742h-55v397q-98 0 -159.5 57t-61.5 143z" />
    <glyph glyph-name="periodcentered" unicode="&#xb7;" horiz-adv-x="201" 
d="M49 279q0 22 15 38t36 16q22 0 37 -15.5t15 -38.5q0 -22 -15 -37.5t-37 -15.5q-21 0 -36 15.5t-15 37.5z" />
    <glyph glyph-name="cedilla" unicode="&#xb8;" horiz-adv-x="417" 
d="M295 -130q0 -40 -29.5 -64.5t-74.5 -24.5q-46 0 -82 18l16 38q35 -14 62 -14q25 0 40.5 12t15.5 33q0 20 -14.5 31t-32 14.5t-51.5 5.5l31 89h48l-20 -51v-2q39 -4 65 -26.5t26 -58.5z" />
    <glyph glyph-name="onesuperior" unicode="&#xb9;" 
d="M263 429h-177v28l63 11v298l-2 2l-72 -38l-16 32l100 55h46v-349l58 -11v-28z" />
    <glyph glyph-name="ordmasculine" unicode="&#xba;" horiz-adv-x="337" 
d="M305 411q0 -69 -37 -108.5t-99 -39.5t-99.5 40t-37.5 108t37.5 107.5t99.5 39.5t99 -39.5t37 -107.5zM248 411q0 47 -21 72.5t-58 25.5q-38 0 -59 -26t-21 -72q0 -47 21 -73.5t59 -26.5q37 0 58 26.5t21 73.5z" />
    <glyph glyph-name="guillemotright" unicode="&#xbb;" horiz-adv-x="431" 
d="M111 72h-71l122 204v3l-122 202h71l121 -204zM282 72h-71l122 204v3l-122 202h71l121 -204z" />
    <glyph glyph-name="onequarter" unicode="&#xbc;" horiz-adv-x="746" 
d="M241 269h-177v28l63 11v298l-2 2l-72 -38l-16 32l100 55h46v-349l58 -11v-28zM676 86h-40v-49l51 -10v-27h-159v27l54 10v49h-182v40l151 262h59l-152 -255v-2h124v96h54v-96h40v-45zM580 667l-360 -677h-50l359 677h51z" />
    <glyph glyph-name="onehalf" unicode="&#xbd;" horiz-adv-x="746" 
d="M241 269h-177v28l63 11v298l-2 2l-72 -38l-16 32l100 55h46v-349l58 -11v-28zM709 0h-254v26q0 80 56 140q19 20 54 41t55 39.5t20 45.5q0 23 -16.5 38.5t-53.5 15.5q-29 0 -55 -11l-11 -41h-36v73q55 28 112 28q56 0 87 -27t31 -74q0 -37 -18.5 -61.5t-57 -48.5
t-49.5 -34q-57 -51 -61 -102v-2h150l11 45h36v-91zM573 667l-360 -677h-50l359 677h51z" />
    <glyph glyph-name="threequarters" unicode="&#xbe;" horiz-adv-x="746" 
d="M296 392q0 -59 -49.5 -94.5t-120.5 -35.5q-33 0 -72 11l11 48q38 -10 60 -10q46 0 80 20.5t34 60.5q0 29 -19.5 48t-47.5 19l-27 -3l-6 37q43 7 62 24t19 49q0 26 -18.5 38t-43.5 12q-28 0 -55 -15l-11 -46h-36v73q56 35 105 35q51 0 83 -22.5t32 -67.5q0 -66 -53 -86v-2
q32 -5 52.5 -30.5t20.5 -62.5zM692 86h-40v-49l51 -10v-27h-159v27l54 10v49h-182v40l151 262h59l-152 -255v-2h124v96h54v-96h40v-45zM595 667l-360 -677h-50l359 677h51z" />
    <glyph glyph-name="questiondown" unicode="&#xbf;" horiz-adv-x="383" 
d="M200 226v93h63v-97q0 -32 -15.5 -61.5t-38 -53t-45 -46.5t-38 -52.5t-15.5 -60.5q0 -45 28 -73.5t81 -28.5q30 0 64 12l14 88h45v-138q-66 -26 -125 -26q-88 0 -134.5 44t-46.5 117q0 39 17 75t40.5 62t47.5 49.5t41 48t17 48.5zM181 449q0 22 15 38t36 16q22 0 37 -15.5
t15 -38.5q0 -22 -15 -37.5t-37 -15.5q-21 0 -36 15.5t-15 37.5z" />
    <glyph glyph-name="Agrave" unicode="&#xc0;" horiz-adv-x="645" 
d="M80 54l201 626h83l201 -626l74 -14v-40h-225v41l79 13l-43 135h-258l-42 -135l79 -13v-41h-223v40zM209 249h223l-32 104q-59 190 -78 261h-2q-23 -87 -79 -262zM375 743h-63l-155 109h97z" />
    <glyph glyph-name="Aacute" unicode="&#xc1;" horiz-adv-x="645" 
d="M80 54l201 626h83l201 -626l74 -14v-40h-225v41l79 13l-43 135h-258l-42 -135l79 -13v-41h-223v40zM209 249h223l-32 104q-59 190 -78 261h-2q-23 -87 -79 -262zM337 743h-63l121 109h98z" />
    <glyph glyph-name="Acircumflex" unicode="&#xc2;" horiz-adv-x="645" 
d="M80 54l201 626h83l201 -626l74 -14v-40h-225v41l79 13l-43 135h-258l-42 -135l79 -13v-41h-223v40zM209 249h223l-32 104q-59 190 -78 261h-2q-23 -87 -79 -262zM242 743h-76l125 109h58l126 -109h-76l-78 78h-2z" />
    <glyph glyph-name="Atilde" unicode="&#xc3;" horiz-adv-x="645" 
d="M80 54l201 626h83l201 -626l74 -14v-40h-225v41l79 13l-43 135h-258l-42 -135l79 -13v-41h-223v40zM209 249h223l-32 104q-59 190 -78 261h-2q-23 -87 -79 -262zM476 795q-22 -17 -34 -24.5t-30.5 -14t-37.5 -6.5q-28 0 -59 19.5t-50 19.5q-6 0 -12 -1.5t-10.5 -2.5
t-11.5 -5t-10.5 -6.5t-13 -9t-14.5 -9.5l-27 40q31 23 51.5 33t47.5 10q29 0 60 -19t49 -19q26 0 72 34z" />
    <glyph glyph-name="Adieresis" unicode="&#xc4;" horiz-adv-x="645" 
d="M80 54l201 626h83l201 -626l74 -14v-40h-225v41l79 13l-43 135h-258l-42 -135l79 -13v-41h-223v40zM209 249h223l-32 104q-59 190 -78 261h-2q-23 -87 -79 -262zM167 795q0 19 13.5 32.5t33.5 13.5t33.5 -13.5t13.5 -32.5t-14 -32.5t-33 -13.5t-33 13.5t-14 32.5z
M380 795q0 19 13.5 32.5t33.5 13.5t33.5 -13.5t13.5 -32.5t-14 -32.5t-33 -13.5t-33 13.5t-14 32.5z" />
    <glyph glyph-name="Aring" unicode="&#xc5;" horiz-adv-x="645" 
d="M80 54l201 626h83l201 -626l74 -14v-40h-225v41l79 13l-43 135h-258l-42 -135l79 -13v-41h-223v40zM209 249h223l-32 104q-59 190 -78 261h-2q-23 -87 -79 -262zM230 805q0 40 26.5 67.5t64.5 27.5t64.5 -27.5t26.5 -67.5t-26.5 -67.5t-64.5 -27.5t-64.5 27.5t-26.5 67.5
zM272 805q0 -24 14 -40.5t35 -16.5q19 0 33.5 16.5t14.5 40.5t-14.5 40.5t-33.5 16.5q-21 0 -35 -16.5t-14 -40.5z" />
    <glyph glyph-name="AE" unicode="&#xc6;" horiz-adv-x="916" 
d="M868 0h-486v41l78 13v135h-253l-82 -135l66 -13v-41h-218v40l76 14l351 572l-72 12v42h518v-138h-44l-13 76h-256v-234h223l13 60h41v-180h-41l-13 60h-223v-262h277l13 83h45v-145zM239 249h221v104q0 154 3 259h-2q-43 -74 -154 -252z" />
    <glyph glyph-name="Ccedilla" unicode="&#xc7;" horiz-adv-x="540" 
d="M417 -130q0 -40 -29.5 -64.5t-74.5 -24.5q-46 0 -82 18l16 38q35 -14 62 -14q25 0 40.5 12t15.5 33q0 20 -14.5 31t-32 14.5t-51.5 5.5l26 75q-115 16 -180 107.5t-65 238.5q0 159 89 254t228 95q60 0 126 -23v-132h-44l-14 82q-32 9 -70 9q-103 0 -172 -78.5t-69 -206.5
q0 -132 58 -208.5t160 -76.5q70 0 145 26l19 -61q-84 -29 -165 -29l-13 -34v-2q39 -4 65 -26.5t26 -58.5z" />
    <glyph glyph-name="Egrave" unicode="&#xc8;" horiz-adv-x="580" 
d="M532 0h-490v40l82 14v572l-82 14v40h468v-138h-44l-13 76h-256v-234h223l13 60h41v-180h-41l-13 60h-223v-261h277l13 83h45v-146zM353 743h-63l-155 109h97z" />
    <glyph glyph-name="Eacute" unicode="&#xc9;" horiz-adv-x="580" 
d="M532 0h-490v40l82 14v572l-82 14v40h468v-138h-44l-13 76h-256v-234h223l13 60h41v-180h-41l-13 60h-223v-261h277l13 83h45v-146zM315 743h-63l121 109h98z" />
    <glyph glyph-name="Ecircumflex" unicode="&#xca;" horiz-adv-x="580" 
d="M532 0h-490v40l82 14v572l-82 14v40h468v-138h-44l-13 76h-256v-234h223l13 60h41v-180h-41l-13 60h-223v-261h277l13 83h45v-146zM220 743h-76l125 109h58l126 -109h-76l-78 78h-2z" />
    <glyph glyph-name="Edieresis" unicode="&#xcb;" horiz-adv-x="580" 
d="M532 0h-490v40l82 14v572l-82 14v40h468v-138h-44l-13 76h-256v-234h223l13 60h41v-180h-41l-13 60h-223v-261h277l13 83h45v-146zM145 795q0 19 13.5 32.5t33.5 13.5t33.5 -13.5t13.5 -32.5t-14 -32.5t-33 -13.5t-33 13.5t-14 32.5zM358 795q0 19 13.5 32.5t33.5 13.5
t33.5 -13.5t13.5 -32.5t-14 -32.5t-33 -13.5t-33 13.5t-14 32.5z" />
    <glyph glyph-name="Igrave" unicode="&#xcc;" horiz-adv-x="320" 
d="M197 626v-572l81 -14v-40h-236v40l82 14v572l-82 14v40h236v-40zM215 743h-63l-155 109h97z" />
    <glyph glyph-name="Iacute" unicode="&#xcd;" horiz-adv-x="320" 
d="M197 626v-572l81 -14v-40h-236v40l82 14v572l-82 14v40h236v-40zM177 743h-63l121 109h98z" />
    <glyph glyph-name="Icircumflex" unicode="&#xce;" horiz-adv-x="320" 
d="M197 626v-572l81 -14v-40h-236v40l82 14v572l-82 14v40h236v-40zM82 743h-76l125 109h58l126 -109h-76l-78 78h-2z" />
    <glyph glyph-name="Idieresis" unicode="&#xcf;" horiz-adv-x="320" 
d="M197 626v-572l81 -14v-40h-236v40l82 14v572l-82 14v40h236v-40zM7 795q0 19 13.5 32.5t33.5 13.5t33.5 -13.5t13.5 -32.5t-14 -32.5t-33 -13.5t-33 13.5t-14 32.5zM220 795q0 19 13.5 32.5t33.5 13.5t33.5 -13.5t13.5 -32.5t-14 -32.5t-33 -13.5t-33 13.5t-14 32.5z" />
    <glyph glyph-name="Eth" unicode="&#xd0;" horiz-adv-x="652" 
d="M54 319v58h69v249l-81 14v40h267q134 0 214.5 -91.5t80.5 -247.5q0 -159 -79 -250t-218 -91h-265v40l81 14v265h-69zM530 340q0 127 -61 202t-163 75h-110v-240h133v-58h-133v-256h110q104 0 164 74t60 203z" />
    <glyph glyph-name="Ntilde" unicode="&#xd1;" horiz-adv-x="712" 
d="M601 0h-66l-219 351q-84 137 -121 203h-2q4 -76 4 -202v-298l80 -14v-40h-235v40l82 14v572l-82 14v40h148l221 -354q78 -125 118 -200h2q-3 43 -3 203v297l-80 14v40h234v-40l-81 -14v-626zM513 795q-22 -17 -34 -24.5t-30.5 -14t-37.5 -6.5q-27 0 -59 19.5t-50 19.5
q-6 0 -12 -1.5t-10.5 -2.5t-11.5 -5t-10.5 -6.5t-13 -9t-14.5 -9.5l-27 40q31 23 51.5 33t47.5 10q29 0 60 -19t49 -19q26 0 72 34z" />
    <glyph glyph-name="Ograve" unicode="&#xd2;" horiz-adv-x="658" 
d="M610 340q0 -162 -75.5 -256t-205.5 -94q-131 0 -206 94t-75 256q0 161 75.5 255.5t205.5 94.5t205.5 -94.5t75.5 -255.5zM536 340q0 131 -57 208.5t-150 77.5q-94 0 -150.5 -77.5t-56.5 -208.5q0 -133 55.5 -209.5t151.5 -76.5t151.5 76.5t55.5 209.5zM384 743h-63
l-155 109h97z" />
    <glyph glyph-name="Oacute" unicode="&#xd3;" horiz-adv-x="658" 
d="M610 340q0 -162 -75.5 -256t-205.5 -94q-131 0 -206 94t-75 256q0 161 75.5 255.5t205.5 94.5t205.5 -94.5t75.5 -255.5zM536 340q0 131 -57 208.5t-150 77.5q-94 0 -150.5 -77.5t-56.5 -208.5q0 -133 55.5 -209.5t151.5 -76.5t151.5 76.5t55.5 209.5zM346 743h-63
l121 109h98z" />
    <glyph glyph-name="Ocircumflex" unicode="&#xd4;" horiz-adv-x="658" 
d="M610 340q0 -162 -75.5 -256t-205.5 -94q-131 0 -206 94t-75 256q0 161 75.5 255.5t205.5 94.5t205.5 -94.5t75.5 -255.5zM536 340q0 131 -57 208.5t-150 77.5q-94 0 -150.5 -77.5t-56.5 -208.5q0 -133 55.5 -209.5t151.5 -76.5t151.5 76.5t55.5 209.5zM251 743h-76
l125 109h58l126 -109h-76l-78 78h-2z" />
    <glyph glyph-name="Otilde" unicode="&#xd5;" horiz-adv-x="658" 
d="M610 340q0 -162 -75.5 -256t-205.5 -94q-131 0 -206 94t-75 256q0 161 75.5 255.5t205.5 94.5t205.5 -94.5t75.5 -255.5zM536 340q0 131 -57 208.5t-150 77.5q-94 0 -150.5 -77.5t-56.5 -208.5q0 -133 55.5 -209.5t151.5 -76.5t151.5 76.5t55.5 209.5zM485 795
q-22 -17 -34 -24.5t-30.5 -14t-37.5 -6.5q-27 0 -59 19.5t-50 19.5q-6 0 -12 -1.5t-10.5 -2.5t-11.5 -5t-10.5 -6.5t-13 -9t-14.5 -9.5l-27 40q31 23 51.5 33t47.5 10q29 0 60 -19t49 -19q26 0 72 34z" />
    <glyph glyph-name="Odieresis" unicode="&#xd6;" horiz-adv-x="658" 
d="M610 340q0 -162 -75.5 -256t-205.5 -94q-131 0 -206 94t-75 256q0 161 75.5 255.5t205.5 94.5t205.5 -94.5t75.5 -255.5zM536 340q0 131 -57 208.5t-150 77.5q-94 0 -150.5 -77.5t-56.5 -208.5q0 -133 55.5 -209.5t151.5 -76.5t151.5 76.5t55.5 209.5zM176 795
q0 19 13.5 32.5t33.5 13.5t33.5 -13.5t13.5 -32.5t-14 -32.5t-33 -13.5t-33 13.5t-14 32.5zM389 795q0 19 13.5 32.5t33.5 13.5t33.5 -13.5t13.5 -32.5t-14 -32.5t-33 -13.5t-33 13.5t-14 32.5z" />
    <glyph glyph-name="multiply" unicode="&#xd7;" horiz-adv-x="502" 
d="M404 88l-152 153l-153 -154l-37 37l154 153l-153 152l37 36l152 -152l151 152l37 -37l-152 -151l153 -152z" />
    <glyph glyph-name="Oslash" unicode="&#xd8;" horiz-adv-x="663" 
d="M41 8l71 93q-63 92 -63 239q0 161 76.5 255.5t205.5 94.5q110 0 182 -72l63 83l46 -31l-73 -93q66 -94 66 -237q0 -162 -76.5 -256t-207.5 -94q-111 0 -182 69l-63 -81zM123 340q0 -103 37 -172h2l307 393q-51 65 -138 65q-94 0 -151 -78t-57 -208zM540 340q0 41 -11 91
t-27 80h-2l-309 -394q54 -63 140 -63q96 0 152.5 76.5t56.5 209.5z" />
    <glyph glyph-name="Ugrave" unicode="&#xd9;" horiz-adv-x="681" 
d="M575 209q0 -103 -61.5 -161t-172.5 -58q-110 0 -172.5 58t-62.5 161v417l-81 14v40h232v-40l-78 -14v-414q0 -72 41 -115t121 -43t120.5 42.5t40.5 115.5v414l-77 14v40h231v-40l-81 -14v-417zM395 743h-63l-155 109h97z" />
    <glyph glyph-name="Uacute" unicode="&#xda;" horiz-adv-x="681" 
d="M575 209q0 -103 -61.5 -161t-172.5 -58q-110 0 -172.5 58t-62.5 161v417l-81 14v40h232v-40l-78 -14v-414q0 -72 41 -115t121 -43t120.5 42.5t40.5 115.5v414l-77 14v40h231v-40l-81 -14v-417zM357 743h-63l121 109h98z" />
    <glyph glyph-name="Ucircumflex" unicode="&#xdb;" horiz-adv-x="681" 
d="M575 209q0 -103 -61.5 -161t-172.5 -58q-110 0 -172.5 58t-62.5 161v417l-81 14v40h232v-40l-78 -14v-414q0 -72 41 -115t121 -43t120.5 42.5t40.5 115.5v414l-77 14v40h231v-40l-81 -14v-417zM262 743h-76l125 109h58l126 -109h-76l-78 78h-2z" />
    <glyph glyph-name="Udieresis" unicode="&#xdc;" horiz-adv-x="681" 
d="M575 209q0 -103 -61.5 -161t-172.5 -58q-110 0 -172.5 58t-62.5 161v417l-81 14v40h232v-40l-78 -14v-414q0 -72 41 -115t121 -43t120.5 42.5t40.5 115.5v414l-77 14v40h231v-40l-81 -14v-417zM187 795q0 19 13.5 32.5t33.5 13.5t33.5 -13.5t13.5 -32.5t-14 -32.5
t-33 -13.5t-33 13.5t-14 32.5zM400 795q0 19 13.5 32.5t33.5 13.5t33.5 -13.5t13.5 -32.5t-14 -32.5t-33 -13.5t-33 13.5t-14 32.5z" />
    <glyph glyph-name="Yacute" unicode="&#xdd;" horiz-adv-x="587" 
d="M505 626l-176 -383v-189l82 -14v-40h-236v40l82 14v189l-175 383l-74 14v40h226v-41l-74 -13l45 -104q50 -117 88 -218h2q39 105 88 215l45 106l-75 14v41h227v-40zM310 743h-63l121 109h98z" />
    <glyph glyph-name="Thorn" unicode="&#xde;" horiz-adv-x="569" 
d="M545 359q0 -96 -56 -150.5t-153 -54.5h-139v-100l81 -14v-40h-236v40l82 14v572l-82 14v40h236v-40l-81 -14v-81h124q103 0 163.5 -49t60.5 -137zM470 359q0 55 -38.5 90.5t-112.5 35.5h-122v-271h136q70 0 103.5 42.5t33.5 102.5z" />
    <glyph glyph-name="germandbls" unicode="&#xdf;" horiz-adv-x="609" 
d="M573 143q0 -72 -48 -112t-118 -40q-46 0 -104 17v132h42l13 -81q35 -7 52 -7q41 0 68 23.5t27 64.5q0 31 -19 52.5t-60 47.5t-56 38q-55 48 -55 108q0 29 16 55t34.5 42.5t34.5 41t16 50.5q0 47 -33 71.5t-84 24.5q-47 0 -78 -27t-31 -71v-519l77 -14v-40h-228v40l81 14
v379h-66v60h66v87q0 68 51 109t123 41q78 0 133 -39.5t55 -112.5q0 -34 -15.5 -62.5t-34 -45t-34 -39t-15.5 -45.5q0 -22 13 -42t28 -31t42.5 -28.5t40.5 -27.5q66 -49 66 -114z" />
    <glyph glyph-name="agrave" unicode="&#xe0;" horiz-adv-x="517" 
d="M491 14l-94 -16h-39l-12 54h-2q-12 -7 -37 -22.5t-32 -19t-22 -10.5t-26.5 -8.5t-27.5 -1.5q-62 0 -105.5 35.5t-43.5 114.5q0 85 41 122.5t102 37.5q19 0 69.5 -9.5t77.5 -10.5v63q0 58 -23 79t-73 21q-51 0 -107 -21l-13 -64h-43v107q5 1 32.5 9.5t37 11t31 7.5t38.5 7
t35 2q87 0 121 -40.5t34 -109.5v-250q0 -18 4 -44l77 -8v-36zM340 99v135q-20 2 -70 8.5t-64 6.5q-88 0 -88 -106q0 -44 23.5 -71t69.5 -27q13 0 22 1t21.5 6.5t19.5 9t29 16.5t37 21zM292 579h-57l-124 119h90z" />
    <glyph glyph-name="aacute" unicode="&#xe1;" horiz-adv-x="517" 
d="M491 14l-94 -16h-39l-12 54h-2q-12 -7 -37 -22.5t-32 -19t-22 -10.5t-26.5 -8.5t-27.5 -1.5q-62 0 -105.5 35.5t-43.5 114.5q0 85 41 122.5t102 37.5q19 0 69.5 -9.5t77.5 -10.5v63q0 58 -23 79t-73 21q-51 0 -107 -21l-13 -64h-43v107q5 1 32.5 9.5t37 11t31 7.5t38.5 7
t35 2q87 0 121 -40.5t34 -109.5v-250q0 -18 4 -44l77 -8v-36zM340 99v135q-20 2 -70 8.5t-64 6.5q-88 0 -88 -106q0 -44 23.5 -71t69.5 -27q13 0 22 1t21.5 6.5t19.5 9t29 16.5t37 21zM265 579h-57l90 119h90z" />
    <glyph glyph-name="acircumflex" unicode="&#xe2;" horiz-adv-x="517" 
d="M491 14l-94 -16h-39l-12 54h-2q-12 -7 -37 -22.5t-32 -19t-22 -10.5t-26.5 -8.5t-27.5 -1.5q-62 0 -105.5 35.5t-43.5 114.5q0 85 41 122.5t102 37.5q19 0 69.5 -9.5t77.5 -10.5v63q0 58 -23 79t-73 21q-51 0 -107 -21l-13 -64h-43v107q5 1 32.5 9.5t37 11t31 7.5t38.5 7
t35 2q87 0 121 -40.5t34 -109.5v-250q0 -18 4 -44l77 -8v-36zM340 99v135q-20 2 -70 8.5t-64 6.5q-88 0 -88 -106q0 -44 23.5 -71t69.5 -27q13 0 22 1t21.5 6.5t19.5 9t29 16.5t37 21zM185 579h-63l101 119h54l101 -119h-64l-63 86h-2z" />
    <glyph glyph-name="atilde" unicode="&#xe3;" horiz-adv-x="517" 
d="M491 14l-94 -16h-39l-12 54h-2q-12 -7 -37 -22.5t-32 -19t-22 -10.5t-26.5 -8.5t-27.5 -1.5q-62 0 -105.5 35.5t-43.5 114.5q0 85 41 122.5t102 37.5q19 0 69.5 -9.5t77.5 -10.5v63q0 58 -23 79t-73 21q-51 0 -107 -21l-13 -64h-43v107q5 1 32.5 9.5t37 11t31 7.5t38.5 7
t35 2q87 0 121 -40.5t34 -109.5v-250q0 -18 4 -44l77 -8v-36zM340 99v135q-20 2 -70 8.5t-64 6.5q-88 0 -88 -106q0 -44 23.5 -71t69.5 -27q13 0 22 1t21.5 6.5t19.5 9t29 16.5t37 21zM390 638q-28 -25 -47.5 -36t-44.5 -11t-53.5 20.5t-45.5 20.5q-10 0 -21.5 -6t-16.5 -10
t-26 -21l-25 42q20 17 30.5 24.5t26 14t32.5 6.5q26 0 54.5 -20t44.5 -20q15 0 27 7t37 28z" />
    <glyph glyph-name="adieresis" unicode="&#xe4;" horiz-adv-x="517" 
d="M491 14l-94 -16h-39l-12 54h-2q-12 -7 -37 -22.5t-32 -19t-22 -10.5t-26.5 -8.5t-27.5 -1.5q-62 0 -105.5 35.5t-43.5 114.5q0 85 41 122.5t102 37.5q19 0 69.5 -9.5t77.5 -10.5v63q0 58 -23 79t-73 21q-51 0 -107 -21l-13 -64h-43v107q5 1 32.5 9.5t37 11t31 7.5t38.5 7
t35 2q87 0 121 -40.5t34 -109.5v-250q0 -18 4 -44l77 -8v-36zM340 99v135q-20 2 -70 8.5t-64 6.5q-88 0 -88 -106q0 -44 23.5 -71t69.5 -27q13 0 22 1t21.5 6.5t19.5 9t29 16.5t37 21zM112 637q0 19 14 33t33 14t33 -14t14 -33q0 -18 -14 -32t-33 -14t-33 14t-14 32z
M293 637q0 19 13.5 33t33.5 14t34 -14t14 -33q0 -18 -14.5 -32t-33.5 -14t-33 14t-14 32z" />
    <glyph glyph-name="aring" unicode="&#xe5;" horiz-adv-x="517" 
d="M491 14l-94 -16h-39l-12 54h-2q-12 -7 -37 -22.5t-32 -19t-22 -10.5t-26.5 -8.5t-27.5 -1.5q-62 0 -105.5 35.5t-43.5 114.5q0 85 41 122.5t102 37.5q19 0 69.5 -9.5t77.5 -10.5v63q0 58 -23 79t-73 21q-51 0 -107 -21l-13 -64h-43v107q5 1 32.5 9.5t37 11t31 7.5t38.5 7
t35 2q87 0 121 -40.5t34 -109.5v-250q0 -18 4 -44l77 -8v-36zM340 99v135q-20 2 -70 8.5t-64 6.5q-88 0 -88 -106q0 -44 23.5 -71t69.5 -27q13 0 22 1t21.5 6.5t19.5 9t29 16.5t37 21zM159 645q0 40 26.5 67.5t64.5 27.5t64.5 -27.5t26.5 -67.5t-26.5 -67.5t-64.5 -27.5
t-64.5 27.5t-26.5 67.5zM201 645q0 -24 14 -40t35 -16q19 0 33.5 16t14.5 40t-14.5 40.5t-33.5 16.5q-21 0 -35 -16.5t-14 -40.5z" />
    <glyph glyph-name="ae" unicode="&#xe6;" horiz-adv-x="784" 
d="M50 140q0 85 41 122.5t103 37.5q19 0 72.5 -11t80.5 -13v68q0 56 -26.5 77.5t-76.5 21.5q-41 0 -107 -21l-13 -64h-43v107q7 2 32.5 10t36 11t31 7.5t38 6.5t35.5 2q60 0 94 -28t39 -68h2q16 40 63 68.5t97 28.5q191 0 191 -242v-18h-333q0 -96 42.5 -145t114.5 -49
q66 0 139 21l14 -57q-83 -22 -151 -22q-64 0 -112 26.5t-67 66.5h-2q-29 -44 -79 -69t-107 -25q-62 0 -105.5 35.5t-43.5 114.5zM118 143q0 -43 23.5 -70.5t68.5 -27.5q39 0 87.5 26.5t68.5 53.5q-16 38 -19 106q-24 2 -76.5 10t-64.5 8q-88 0 -88 -106zM409 293h268
q-1 70 -32.5 112.5t-94.5 42.5q-57 0 -95.5 -42t-45.5 -113z" />
    <glyph glyph-name="ccedilla" unicode="&#xe7;" horiz-adv-x="428" 
d="M346 -130q0 -40 -29.5 -64.5t-74.5 -24.5q-46 0 -82 18l16 38q35 -14 62 -14q25 0 40.5 12t15.5 33q0 20 -14.5 31t-32 14.5t-51.5 5.5l26 76q-85 14 -131 80t-46 171q0 118 60.5 187t162.5 69q46 0 108 -17v-120h-41l-13 68q-23 8 -56 8q-67 0 -108.5 -52.5
t-41.5 -142.5q0 -91 40.5 -142.5t113.5 -51.5q47 0 101 20l16 -59q-68 -22 -118 -22h-1l-13 -34v-2q39 -4 65 -26.5t26 -58.5z" />
    <glyph glyph-name="egrave" unicode="&#xe8;" horiz-adv-x="489" 
d="M445 243h-333q0 -94 43.5 -144t115.5 -50q63 0 137 21l14 -57q-82 -22 -150 -22q-110 0 -168.5 68.5t-58.5 190.5q0 116 57.5 184.5t152.5 68.5q190 0 190 -242v-18zM381 293q0 69 -31.5 112t-94.5 43q-58 0 -96 -42t-45 -113h267zM297 579h-57l-124 119h90z" />
    <glyph glyph-name="eacute" unicode="&#xe9;" horiz-adv-x="489" 
d="M445 243h-333q0 -94 43.5 -144t115.5 -50q63 0 137 21l14 -57q-82 -22 -150 -22q-110 0 -168.5 68.5t-58.5 190.5q0 116 57.5 184.5t152.5 68.5q190 0 190 -242v-18zM381 293q0 69 -31.5 112t-94.5 43q-58 0 -96 -42t-45 -113h267zM270 579h-57l90 119h90z" />
    <glyph glyph-name="ecircumflex" unicode="&#xea;" horiz-adv-x="489" 
d="M445 243h-333q0 -94 43.5 -144t115.5 -50q63 0 137 21l14 -57q-82 -22 -150 -22q-110 0 -168.5 68.5t-58.5 190.5q0 116 57.5 184.5t152.5 68.5q190 0 190 -242v-18zM381 293q0 69 -31.5 112t-94.5 43q-58 0 -96 -42t-45 -113h267zM190 579h-63l101 119h54l101 -119h-64
l-63 86h-2z" />
    <glyph glyph-name="edieresis" unicode="&#xeb;" horiz-adv-x="489" 
d="M445 243h-333q0 -94 43.5 -144t115.5 -50q63 0 137 21l14 -57q-82 -22 -150 -22q-110 0 -168.5 68.5t-58.5 190.5q0 116 57.5 184.5t152.5 68.5q190 0 190 -242v-18zM381 293q0 69 -31.5 112t-94.5 43q-58 0 -96 -42t-45 -113h267zM117 637q0 19 13.5 33t33.5 14
t33.5 -14t13.5 -33q0 -18 -14 -32t-33 -14t-33 14t-14 32zM298 637q0 19 14 33t33 14q20 0 34 -14t14 -33q0 -18 -14.5 -32t-33.5 -14t-33 14t-14 32z" />
    <glyph glyph-name="igrave" unicode="&#xec;" horiz-adv-x="299" 
d="M271 0h-232v40l81 14v378l-81 5v38l111 18h40v-439l81 -14v-40zM191 579h-57l-124 119h90z" />
    <glyph glyph-name="iacute" unicode="&#xed;" horiz-adv-x="299" 
d="M271 0h-232v40l81 14v378l-81 5v38l111 18h40v-439l81 -14v-40zM164 579h-57l90 119h90z" />
    <glyph glyph-name="icircumflex" unicode="&#xee;" horiz-adv-x="299" 
d="M271 0h-232v40l81 14v378l-81 5v38l111 18h40v-439l81 -14v-40zM84 579h-63l101 119h54l101 -119h-64l-63 86h-2z" />
    <glyph glyph-name="idieresis" unicode="&#xef;" horiz-adv-x="299" 
d="M271 0h-232v40l81 14v378l-81 5v38l111 18h40v-439l81 -14v-40zM11 637q0 19 13.5 33t33.5 14t33.5 -14t13.5 -33q0 -18 -14 -32t-33 -14t-33 14t-14 32zM192 637q0 19 14 33t33 14q20 0 34 -14t14 -33q0 -18 -14.5 -32t-33.5 -14t-33 14t-14 32z" />
    <glyph glyph-name="eth" unicode="&#xf0;" horiz-adv-x="521" 
d="M138 533l-20 41l107 46v2q-26 25 -91 73l43 36q45 -29 102 -82l114 52l20 -42l-102 -44v-2q72 -76 119 -171.5t47 -197.5q0 -118 -59 -186t-157 -68q-97 0 -156.5 68t-59.5 186q0 117 58 185t157 68q55 0 78 -19l1 1q-32 55 -83 107zM116 244q0 -91 39 -142t105 -51
t105.5 50.5t39.5 142.5q0 82 -36.5 138t-106.5 56q-68 0 -107 -52t-39 -142z" />
    <glyph glyph-name="ntilde" unicode="&#xf1;" horiz-adv-x="603" 
d="M574 0h-221v40l70 14v283q0 54 -22 80t-56 26q-83 0 -155 -87v-302l75 -14v-40h-226v40l81 14v378l-81 5v38l111 18h31l5 -79h2q26 38 71 63.5t98 25.5q59 0 97.5 -38.5t38.5 -121.5v-289l81 -14v-40zM443 638q-28 -25 -47.5 -36t-44.5 -11t-53.5 20.5t-45.5 20.5
q-10 0 -21.5 -6t-16.5 -10t-26 -21l-25 42q20 17 30.5 24.5t26 14t32.5 6.5q26 0 54.5 -20t44.5 -20q15 0 27 7t37 28z" />
    <glyph glyph-name="ograve" unicode="&#xf2;" horiz-adv-x="522" 
d="M261 -10q-99 0 -157.5 69.5t-58.5 187.5t58.5 187t157.5 69t157.5 -69t58.5 -187t-58.5 -187.5t-157.5 -69.5zM261 51q68 0 106.5 52.5t38.5 143.5t-38.5 143t-106.5 52t-106.5 -51.5t-38.5 -143.5t38.5 -144t106.5 -52zM303 579h-57l-124 119h90z" />
    <glyph glyph-name="oacute" unicode="&#xf3;" horiz-adv-x="522" 
d="M261 -10q-99 0 -157.5 69.5t-58.5 187.5t58.5 187t157.5 69t157.5 -69t58.5 -187t-58.5 -187.5t-157.5 -69.5zM261 51q68 0 106.5 52.5t38.5 143.5t-38.5 143t-106.5 52t-106.5 -51.5t-38.5 -143.5t38.5 -144t106.5 -52zM276 579h-57l90 119h90z" />
    <glyph glyph-name="ocircumflex" unicode="&#xf4;" horiz-adv-x="522" 
d="M261 -10q-99 0 -157.5 69.5t-58.5 187.5t58.5 187t157.5 69t157.5 -69t58.5 -187t-58.5 -187.5t-157.5 -69.5zM261 51q68 0 106.5 52.5t38.5 143.5t-38.5 143t-106.5 52t-106.5 -51.5t-38.5 -143.5t38.5 -144t106.5 -52zM196 579h-63l101 119h54l101 -119h-64l-63 86h-2z
" />
    <glyph glyph-name="otilde" unicode="&#xf5;" horiz-adv-x="522" 
d="M261 -10q-99 0 -157.5 69.5t-58.5 187.5t58.5 187t157.5 69t157.5 -69t58.5 -187t-58.5 -187.5t-157.5 -69.5zM261 51q68 0 106.5 52.5t38.5 143.5t-38.5 143t-106.5 52t-106.5 -51.5t-38.5 -143.5t38.5 -144t106.5 -52zM401 638q-28 -25 -47.5 -36t-44.5 -11t-53.5 20.5
t-45.5 20.5q-10 0 -21.5 -6t-16.5 -10t-26 -21l-25 42q20 17 30.5 24.5t26 14t32.5 6.5q26 0 54.5 -20t44.5 -20q15 0 27 7t37 28z" />
    <glyph glyph-name="odieresis" unicode="&#xf6;" horiz-adv-x="522" 
d="M261 -10q-99 0 -157.5 69.5t-58.5 187.5t58.5 187t157.5 69t157.5 -69t58.5 -187t-58.5 -187.5t-157.5 -69.5zM261 51q68 0 106.5 52.5t38.5 143.5t-38.5 143t-106.5 52t-106.5 -51.5t-38.5 -143.5t38.5 -144t106.5 -52zM123 637q0 19 13.5 33t33.5 14t33.5 -14t13.5 -33
q0 -18 -14 -32t-33 -14t-33 14t-14 32zM304 637q0 19 14 33t33 14q20 0 34 -14t14 -33q0 -18 -14.5 -32t-33.5 -14t-33 14t-14 32z" />
    <glyph glyph-name="divide" unicode="&#xf7;" horiz-adv-x="502" 
d="M293 425q0 -18 -12 -30.5t-30 -12.5t-30 12.5t-12 30.5t12 32t30 14t30 -14t12 -32zM293 127q0 -18 -12 -31t-30 -13t-30 13t-12 31t12 31.5t30 13.5t30 -13.5t12 -31.5zM464 251h-426v52h426v-52z" />
    <glyph glyph-name="oslash" unicode="&#xf8;" horiz-adv-x="525" 
d="M45 247q0 117 59.5 186.5t158.5 69.5q74 0 126 -40l43 61l35 -26l-46 -64q60 -73 60 -187q0 -118 -59.5 -187.5t-158.5 -69.5q-78 0 -130 42l-43 -60l-35 25l46 65q-56 70 -56 185zM410 247q0 75 -31 127h-2l-208 -290q38 -35 94 -35q68 0 107.5 53t39.5 145zM115 247
q0 -75 28 -125h2l207 289q-38 32 -89 32q-69 0 -108.5 -52t-39.5 -144z" />
    <glyph glyph-name="ugrave" unicode="&#xf9;" horiz-adv-x="577" 
d="M549 14l-98 -16h-43l-6 71h-2q-54 -79 -163 -79q-59 0 -96.5 38t-37.5 120v284l-81 5v37l111 19h40v-339q0 -105 76 -105q84 0 149 77v306l-77 5v37l107 19h39v-435l82 -8v-36zM317 579h-57l-124 119h90z" />
    <glyph glyph-name="uacute" unicode="&#xfa;" horiz-adv-x="577" 
d="M549 14l-98 -16h-43l-6 71h-2q-54 -79 -163 -79q-59 0 -96.5 38t-37.5 120v284l-81 5v37l111 19h40v-339q0 -105 76 -105q84 0 149 77v306l-77 5v37l107 19h39v-435l82 -8v-36zM290 579h-57l90 119h90z" />
    <glyph glyph-name="ucircumflex" unicode="&#xfb;" horiz-adv-x="577" 
d="M549 14l-98 -16h-43l-6 71h-2q-54 -79 -163 -79q-59 0 -96.5 38t-37.5 120v284l-81 5v37l111 19h40v-339q0 -105 76 -105q84 0 149 77v306l-77 5v37l107 19h39v-435l82 -8v-36zM210 579h-63l101 119h54l101 -119h-64l-63 86h-2z" />
    <glyph glyph-name="udieresis" unicode="&#xfc;" horiz-adv-x="577" 
d="M549 14l-98 -16h-43l-6 71h-2q-54 -79 -163 -79q-59 0 -96.5 38t-37.5 120v284l-81 5v37l111 19h40v-339q0 -105 76 -105q84 0 149 77v306l-77 5v37l107 19h39v-435l82 -8v-36zM137 637q0 19 13.5 33t33.5 14t33.5 -14t13.5 -33q0 -18 -14 -32t-33 -14t-33 14t-14 32z
M318 637q0 19 14 33t33 14q20 0 34 -14t14 -33q0 -18 -14.5 -32t-33.5 -14t-33 14t-14 32z" />
    <glyph glyph-name="yacute" unicode="&#xfd;" horiz-adv-x="568" 
d="M484 439l-143 -382q-50 -127 -113 -192l-86 -88l-41 40l73 76q48 53 72 109l-163 437l-74 11v43h218v-45l-74 -9l59 -162q42 -114 71 -213h2q24 75 73 214l57 161l-74 9v45h218v-43zM300 579h-57l90 119h90z" />
    <glyph glyph-name="thorn" unicode="&#xfe;" horiz-adv-x="547" 
d="M502 245q0 -116 -56.5 -185.5t-151.5 -69.5q-81 0 -138 61h-2v-208l81 -13v-40h-232v40l82 14v815l-82 5v38l112 18h39v-307h2q66 90 149 90q95 0 146 -66.5t51 -191.5zM431 245q0 101 -38 149.5t-105 48.5q-32 0 -68.5 -26.5t-65.5 -59.5v-245q21 -24 59 -43t68 -19
q68 0 109 48.5t41 146.5z" />
    <glyph glyph-name="ydieresis" unicode="&#xff;" horiz-adv-x="568" 
d="M484 439l-143 -382q-50 -127 -113 -192l-86 -88l-41 40l73 76q48 53 72 109l-163 437l-74 11v43h218v-45l-74 -9l59 -162q42 -114 71 -213h2q24 75 73 214l57 161l-74 9v45h218v-43zM147 637q0 19 13.5 33t33.5 14t33.5 -14t13.5 -33q0 -18 -14 -32t-33 -14t-33 14
t-14 32zM328 637q0 19 14 33t33 14q20 0 34 -14t14 -33q0 -18 -14.5 -32t-33.5 -14t-33 14t-14 32z" />
    <glyph glyph-name="Amacron" unicode="&#x100;" horiz-adv-x="645" 
d="M80 54l201 626h83l201 -626l74 -14v-40h-225v41l79 13l-43 135h-258l-42 -135l79 -13v-41h-223v40zM209 249h223l-32 104q-59 190 -78 261h-2q-23 -87 -79 -262zM190 772v47h262v-47h-262z" />
    <glyph glyph-name="amacron" unicode="&#x101;" horiz-adv-x="517" 
d="M491 14l-94 -16h-39l-12 54h-2q-12 -7 -37 -22.5t-32 -19t-22 -10.5t-26.5 -8.5t-27.5 -1.5q-62 0 -105.5 35.5t-43.5 114.5q0 85 41 122.5t102 37.5q19 0 69.5 -9.5t77.5 -10.5v63q0 58 -23 79t-73 21q-51 0 -107 -21l-13 -64h-43v107q5 1 32.5 9.5t37 11t31 7.5t38.5 7
t35 2q87 0 121 -40.5t34 -109.5v-250q0 -18 4 -44l77 -8v-36zM340 99v135q-20 2 -70 8.5t-64 6.5q-88 0 -88 -106q0 -44 23.5 -71t69.5 -27q13 0 22 1t21.5 6.5t19.5 9t29 16.5t37 21zM119 614v47h262v-47h-262z" />
    <glyph glyph-name="Abreve" unicode="&#x102;" horiz-adv-x="645" 
d="M80 54l201 626h83l201 -626l74 -14v-40h-225v41l79 13l-43 135h-258l-42 -135l79 -13v-41h-223v40zM209 249h223l-32 104q-59 190 -78 261h-2q-23 -87 -79 -262zM200 852h46q3 -26 25 -44.5t50 -18.5t49.5 18.5t24.5 44.5h47q0 -43 -35.5 -73t-85.5 -30t-85.5 30
t-35.5 73z" />
    <glyph glyph-name="abreve" unicode="&#x103;" horiz-adv-x="517" 
d="M491 14l-94 -16h-39l-12 54h-2q-12 -7 -37 -22.5t-32 -19t-22 -10.5t-26.5 -8.5t-27.5 -1.5q-62 0 -105.5 35.5t-43.5 114.5q0 85 41 122.5t102 37.5q19 0 69.5 -9.5t77.5 -10.5v63q0 58 -23 79t-73 21q-51 0 -107 -21l-13 -64h-43v107q5 1 32.5 9.5t37 11t31 7.5t38.5 7
t35 2q87 0 121 -40.5t34 -109.5v-250q0 -18 4 -44l77 -8v-36zM340 99v135q-20 2 -70 8.5t-64 6.5q-88 0 -88 -106q0 -44 23.5 -71t69.5 -27q13 0 22 1t21.5 6.5t19.5 9t29 16.5t37 21zM129 691h46q3 -27 25 -45.5t50 -18.5t49.5 18.5t24.5 45.5h47q0 -44 -35.5 -75
t-85.5 -31t-85.5 31t-35.5 75z" />
    <glyph glyph-name="Aogonek" unicode="&#x104;" horiz-adv-x="645" 
d="M413 -133q0 35 27.5 71.5t66.5 61.5h-93v41l79 13l-43 135h-258l-42 -135l79 -13v-41h-223v40l74 14l201 626h83l201 -626l74 -14v-40h-79q-37 -28 -61.5 -62t-24.5 -61q0 -20 10.5 -34.5t25.5 -14.5q19 0 32 4l9 -44q-24 -7 -48 -7q-39 0 -64.5 22t-25.5 64zM209 249
h223l-32 104q-59 190 -78 261h-2q-23 -87 -79 -262z" />
    <glyph glyph-name="aogonek" unicode="&#x105;" horiz-adv-x="517" 
d="M263 -133q0 35 27.5 71.5t66.5 61.5l-11 52h-2q-12 -7 -37 -22.5t-32 -19t-22 -10.5t-26.5 -8.5t-27.5 -1.5q-62 0 -105.5 35.5t-43.5 114.5q0 85 41 122.5t102 37.5q19 0 69.5 -9.5t77.5 -10.5v63q0 58 -23 79t-73 21q-51 0 -107 -21l-13 -64h-43v107q5 1 32.5 9.5
t37 11t31 7.5t38.5 7t35 2q87 0 121 -40.5t34 -109.5v-250q0 -18 4 -44l77 -8v-36l-81 -14q-37 -28 -61.5 -62t-24.5 -61q0 -20 10.5 -34.5t25.5 -14.5q19 0 32 4l9 -44q-24 -7 -48 -7q-39 0 -64.5 22t-25.5 64zM340 99v135q-20 2 -70 8.5t-64 6.5q-88 0 -88 -106
q0 -44 23.5 -71t69.5 -27q13 0 22 1t21.5 6.5t19.5 9t29 16.5t37 21z" />
    <glyph glyph-name="Cacute" unicode="&#x106;" horiz-adv-x="540" 
d="M48 340q0 159 89 254t228 95q60 0 126 -23v-132h-44l-14 82q-32 9 -70 9q-103 0 -172 -78.5t-69 -206.5q0 -132 58 -208.5t160 -76.5q70 0 145 26l19 -61q-84 -29 -165 -29q-135 0 -213 94t-78 255zM352 743h-63l121 109h98z" />
    <glyph glyph-name="cacute" unicode="&#x107;" horiz-adv-x="428" 
d="M387 13q-68 -22 -118 -22q-107 0 -165.5 67.5t-58.5 187.5q0 118 60.5 187t162.5 69q46 0 108 -17v-120h-41l-13 68q-23 8 -56 8q-67 0 -108.5 -52.5t-41.5 -142.5q0 -91 40.5 -142.5t113.5 -51.5q47 0 101 20zM265 579h-57l90 119h90z" />
    <glyph glyph-name="Ccircumflex" unicode="&#x108;" horiz-adv-x="540" 
d="M48 340q0 159 89 254t228 95q60 0 126 -23v-132h-44l-14 82q-32 9 -70 9q-103 0 -172 -78.5t-69 -206.5q0 -132 58 -208.5t160 -76.5q70 0 145 26l19 -61q-84 -29 -165 -29q-135 0 -213 94t-78 255zM257 743h-76l125 109h58l126 -109h-76l-78 78h-2z" />
    <glyph glyph-name="ccircumflex" unicode="&#x109;" horiz-adv-x="428" 
d="M387 13q-68 -22 -118 -22q-107 0 -165.5 67.5t-58.5 187.5q0 118 60.5 187t162.5 69q46 0 108 -17v-120h-41l-13 68q-23 8 -56 8q-67 0 -108.5 -52.5t-41.5 -142.5q0 -91 40.5 -142.5t113.5 -51.5q47 0 101 20zM185 579h-63l101 119h54l101 -119h-64l-63 86h-2z" />
    <glyph glyph-name="Cdotaccent" unicode="&#x10a;" horiz-adv-x="540" 
d="M48 340q0 159 89 254t228 95q60 0 126 -23v-132h-44l-14 82q-32 9 -70 9q-103 0 -172 -78.5t-69 -206.5q0 -132 58 -208.5t160 -76.5q70 0 145 26l19 -61q-84 -29 -165 -29q-135 0 -213 94t-78 255zM285 794q0 20 15 34.5t36 14.5q20 0 34.5 -14.5t14.5 -34.5t-14.5 -35
t-34.5 -15q-21 0 -36 15t-15 35z" />
    <glyph glyph-name="cdotaccent" unicode="&#x10b;" horiz-adv-x="428" 
d="M387 13q-68 -22 -118 -22q-107 0 -165.5 67.5t-58.5 187.5q0 118 60.5 187t162.5 69q46 0 108 -17v-120h-41l-13 68q-23 8 -56 8q-67 0 -108.5 -52.5t-41.5 -142.5q0 -91 40.5 -142.5t113.5 -51.5q47 0 101 20zM199 636q0 20 15 34.5t36 14.5q20 0 34.5 -14.5t14.5 -34.5
t-14.5 -35t-34.5 -15q-21 0 -36 15t-15 35z" />
    <glyph glyph-name="Ccaron" unicode="&#x10c;" horiz-adv-x="540" 
d="M48 340q0 159 89 254t228 95q60 0 126 -23v-132h-44l-14 82q-32 9 -70 9q-103 0 -172 -78.5t-69 -206.5q0 -132 58 -208.5t160 -76.5q70 0 145 26l19 -61q-84 -29 -165 -29q-135 0 -213 94t-78 255zM181 852h76l77 -77h2l78 77h76l-126 -109h-58z" />
    <glyph glyph-name="ccaron" unicode="&#x10d;" horiz-adv-x="428" 
d="M387 13q-68 -22 -118 -22q-107 0 -165.5 67.5t-58.5 187.5q0 118 60.5 187t162.5 69q46 0 108 -17v-120h-41l-13 68q-23 8 -56 8q-67 0 -108.5 -52.5t-41.5 -142.5q0 -91 40.5 -142.5t113.5 -51.5q47 0 101 20zM122 698h63l64 -86h2l63 86h64l-101 -119h-54z" />
    <glyph glyph-name="Dcaron" unicode="&#x10e;" horiz-adv-x="653" 
d="M605 341q0 -159 -79 -250t-218 -91h-266v40l82 14v572l-82 14v40h268q135 0 215 -91.5t80 -247.5zM531 340q0 127 -61 202t-163 75h-110v-554h110q104 0 164 74t60 203zM129 852h76l77 -77h2l78 77h76l-126 -109h-58z" />
    <glyph glyph-name="dcaron" unicode="&#x10f;" horiz-adv-x="593" 
d="M544 14l-96 -16h-44l-5 66h-2q-72 -74 -143 -74q-95 0 -152 69.5t-57 185.5q0 125 51 191.5t147 66.5q32 0 62 -14t46.5 -28.5t39.5 -38.5h2v237l-81 5v38l111 18h40v-662l81 -8v-36zM393 123v237q-69 82 -133 82q-144 0 -144 -197q0 -97 41 -146t108 -49q30 0 68.5 23.5
t59.5 49.5zM563 739l60 8q1 -4 1 -14q0 -39 -21.5 -82.5t-55.5 -76.5l-30 6q47 80 47 143q0 11 -1 16z" />
    <glyph glyph-name="Dcroat" unicode="&#x110;" horiz-adv-x="652" 
d="M54 319v58h69v249l-81 14v40h267q134 0 214.5 -91.5t80.5 -247.5q0 -159 -79 -250t-218 -91h-265v40l81 14v265h-69zM530 340q0 127 -61 202t-163 75h-110v-240h133v-58h-133v-256h110q104 0 164 74t60 203z" />
    <glyph glyph-name="dcroat" unicode="&#x111;" horiz-adv-x="572" 
d="M213 560v40h180v63l-81 4v35l111 18h40v-120h73v-40h-73v-506l81 -14v-40h-142l-3 64h-2q-72 -74 -143 -74q-95 0 -152 69.5t-57 185.5q0 125 51 191.5t147 66.5q32 0 62 -14t46.5 -28.5t39.5 -38.5h2v138h-180zM393 123v237q-69 82 -133 82q-143 0 -143 -197
q0 -98 40.5 -146.5t107.5 -48.5q30 0 68.5 23.5t59.5 49.5z" />
    <glyph glyph-name="Emacron" unicode="&#x112;" horiz-adv-x="580" 
d="M532 0h-490v40l82 14v572l-82 14v40h468v-138h-44l-13 76h-256v-234h223l13 60h41v-180h-41l-13 60h-223v-261h277l13 83h45v-146zM168 772v47h262v-47h-262z" />
    <glyph glyph-name="emacron" unicode="&#x113;" horiz-adv-x="489" 
d="M445 243h-333q0 -94 43.5 -144t115.5 -50q63 0 137 21l14 -57q-82 -22 -150 -22q-110 0 -168.5 68.5t-58.5 190.5q0 116 57.5 184.5t152.5 68.5q190 0 190 -242v-18zM381 293q0 69 -31.5 112t-94.5 43q-58 0 -96 -42t-45 -113h267zM124 614v47h262v-47h-262z" />
    <glyph glyph-name="Ebreve" unicode="&#x114;" horiz-adv-x="580" 
d="M532 0h-490v40l82 14v572l-82 14v40h468v-138h-44l-13 76h-256v-234h223l13 60h41v-180h-41l-13 60h-223v-261h277l13 83h45v-146zM178 852h46q3 -26 25 -44.5t50 -18.5t49.5 18.5t24.5 44.5h47q0 -43 -35.5 -73t-85.5 -30t-85.5 30t-35.5 73z" />
    <glyph glyph-name="ebreve" unicode="&#x115;" horiz-adv-x="489" 
d="M445 243h-333q0 -94 43.5 -144t115.5 -50q63 0 137 21l14 -57q-82 -22 -150 -22q-110 0 -168.5 68.5t-58.5 190.5q0 116 57.5 184.5t152.5 68.5q190 0 190 -242v-18zM381 293q0 69 -31.5 112t-94.5 43q-58 0 -96 -42t-45 -113h267zM134 691h46q3 -27 25 -45.5t50 -18.5
t49.5 18.5t24.5 45.5h47q0 -44 -35.5 -75t-85.5 -31t-85.5 31t-35.5 75z" />
    <glyph glyph-name="Edotaccent" unicode="&#x116;" horiz-adv-x="580" 
d="M532 0h-490v40l82 14v572l-82 14v40h468v-138h-44l-13 76h-256v-234h223l13 60h41v-180h-41l-13 60h-223v-261h277l13 83h45v-146zM248 794q0 20 15 34.5t36 14.5q20 0 34.5 -14.5t14.5 -34.5t-14.5 -35t-34.5 -15q-21 0 -36 15t-15 35z" />
    <glyph glyph-name="edotaccent" unicode="&#x117;" horiz-adv-x="489" 
d="M445 243h-333q0 -94 43.5 -144t115.5 -50q63 0 137 21l14 -57q-82 -22 -150 -22q-110 0 -168.5 68.5t-58.5 190.5q0 116 57.5 184.5t152.5 68.5q190 0 190 -242v-18zM381 293q0 69 -31.5 112t-94.5 43q-58 0 -96 -42t-45 -113h267zM204 636q0 20 15 34.5t36 14.5
q20 0 34.5 -14.5t14.5 -34.5t-14.5 -35t-34.5 -15q-21 0 -36 15t-15 35z" />
    <glyph glyph-name="Eogonek" unicode="&#x118;" horiz-adv-x="580" 
d="M532 0q-86 -69 -86 -123q0 -20 10.5 -34.5t26.5 -14.5q17 0 32 4l9 -44q-26 -7 -49 -7q-39 0 -64 22t-25 64q0 68 93 133h-437v40l82 14v572l-82 14v40h468v-138h-44l-13 76h-256v-234h223l13 60h41v-180h-41l-13 60h-223v-261h277l13 83h45v-146z" />
    <glyph glyph-name="eogonek" unicode="&#x119;" horiz-adv-x="489" 
d="M445 243h-333q0 -94 43.5 -144t115.5 -50q63 0 137 21l14 -57q-44 -29 -73 -68t-29 -68q0 -21 10 -35t26 -14q18 0 31 4l10 -44q-26 -7 -49 -7q-39 0 -64 22t-25 64q0 34 25.5 69.5t62.5 61.5q-31 -7 -75 -7q-110 0 -168.5 68.5t-58.5 190.5q0 116 57.5 184.5t152.5 68.5
q190 0 190 -242v-18zM381 293v2q0 68 -31.5 110.5t-94.5 42.5q-58 0 -96 -42t-45 -113h267z" />
    <glyph glyph-name="Ecaron" unicode="&#x11a;" horiz-adv-x="580" 
d="M532 0h-490v40l82 14v572l-82 14v40h468v-138h-44l-13 76h-256v-234h223l13 60h41v-180h-41l-13 60h-223v-261h277l13 83h45v-146zM144 852h76l77 -77h2l78 77h76l-126 -109h-58z" />
    <glyph glyph-name="ecaron" unicode="&#x11b;" horiz-adv-x="489" 
d="M445 243h-333q0 -94 43.5 -144t115.5 -50q63 0 137 21l14 -57q-82 -22 -150 -22q-110 0 -168.5 68.5t-58.5 190.5q0 116 57.5 184.5t152.5 68.5q190 0 190 -242v-18zM381 293q0 69 -31.5 112t-94.5 43q-58 0 -96 -42t-45 -113h267zM127 698h63l64 -86h2l63 86h64
l-101 -119h-54z" />
    <glyph glyph-name="Gcircumflex" unicode="&#x11c;" horiz-adv-x="640" 
d="M558 0h-48l-12 58h-2q-30 -29 -74 -48.5t-90 -19.5q-137 0 -210.5 90.5t-73.5 257.5q0 157 88 254t229 97q84 0 162 -30v-131h-44l-14 81q-46 16 -105 16q-105 0 -173.5 -79.5t-68.5 -207.5q0 -137 54 -210.5t159 -73.5q75 0 154 61v144l-81 14v41h216v-40l-66 -15v-259z
M257 743h-76l125 109h58l126 -109h-76l-78 78h-2z" />
    <glyph glyph-name="gcircumflex" unicode="&#x11d;" horiz-adv-x="527" 
d="M500 449h-110v-3q25 -18 41.5 -48.5t16.5 -64.5q0 -73 -56.5 -122t-141.5 -49q-32 0 -70 12q-20 -10 -37.5 -33.5t-17.5 -42.5q0 -35 82 -35h111q106 0 145 -28t39 -83q0 -68 -76 -120t-190 -52q-93 0 -142.5 33.5t-49.5 89.5q0 36 29.5 66t69.5 46v2q-36 8 -56.5 27
t-20.5 47q0 27 22.5 58.5t48.5 41.5v2q-38 22 -61 59t-23 81q0 73 57 121.5t142 48.5q39 0 69 -10h179v-44zM382 333q0 48 -37.5 81.5t-93.5 33.5q-54 0 -92.5 -34t-38.5 -81q0 -49 37 -83t93 -34q57 0 94.5 34t37.5 83zM432 -56q0 32 -24 47t-97 15h-105q-96 -45 -96 -100
q0 -34 37 -53.5t97 -19.5q82 0 135 36.5t53 74.5zM188 579h-63l101 119h54l101 -119h-64l-63 86h-2z" />
    <glyph glyph-name="Gbreve" unicode="&#x11e;" horiz-adv-x="640" 
d="M558 0h-48l-12 58h-2q-30 -29 -74 -48.5t-90 -19.5q-137 0 -210.5 90.5t-73.5 257.5q0 157 88 254t229 97q84 0 162 -30v-131h-44l-14 81q-46 16 -105 16q-105 0 -173.5 -79.5t-68.5 -207.5q0 -137 54 -210.5t159 -73.5q75 0 154 61v144l-81 14v41h216v-40l-66 -15v-259z
M215 852h46q3 -26 25 -44.5t50 -18.5t49.5 18.5t24.5 44.5h47q0 -43 -35.5 -73t-85.5 -30t-85.5 30t-35.5 73z" />
    <glyph glyph-name="gbreve" unicode="&#x11f;" horiz-adv-x="527" 
d="M500 449h-110v-3q25 -18 41.5 -48.5t16.5 -64.5q0 -73 -56.5 -122t-141.5 -49q-32 0 -70 12q-20 -10 -37.5 -33.5t-17.5 -42.5q0 -35 82 -35h111q106 0 145 -28t39 -83q0 -68 -76 -120t-190 -52q-93 0 -142.5 33.5t-49.5 89.5q0 36 29.5 66t69.5 46v2q-36 8 -56.5 27
t-20.5 47q0 27 22.5 58.5t48.5 41.5v2q-38 22 -61 59t-23 81q0 73 57 121.5t142 48.5q39 0 69 -10h179v-44zM382 333q0 48 -37.5 81.5t-93.5 33.5q-54 0 -92.5 -34t-38.5 -81q0 -49 37 -83t93 -34q57 0 94.5 34t37.5 83zM432 -56q0 32 -24 47t-97 15h-105q-96 -45 -96 -100
q0 -34 37 -53.5t97 -19.5q82 0 135 36.5t53 74.5zM132 691h46q3 -27 25 -45.5t50 -18.5t49.5 18.5t24.5 45.5h47q0 -44 -35.5 -75t-85.5 -31t-85.5 31t-35.5 75z" />
    <glyph glyph-name="Gdotaccent" unicode="&#x120;" horiz-adv-x="640" 
d="M558 0h-48l-12 58h-2q-30 -29 -74 -48.5t-90 -19.5q-137 0 -210.5 90.5t-73.5 257.5q0 157 88 254t229 97q84 0 162 -30v-131h-44l-14 81q-46 16 -105 16q-105 0 -173.5 -79.5t-68.5 -207.5q0 -137 54 -210.5t159 -73.5q75 0 154 61v144l-81 14v41h216v-40l-66 -15v-259z
M285 794q0 20 15 34.5t36 14.5q20 0 34.5 -14.5t14.5 -34.5t-14.5 -35t-34.5 -15q-21 0 -36 15t-15 35z" />
    <glyph glyph-name="gdotaccent" unicode="&#x121;" horiz-adv-x="527" 
d="M500 449h-110v-3q25 -18 41.5 -48.5t16.5 -64.5q0 -73 -56.5 -122t-141.5 -49q-32 0 -70 12q-20 -10 -37.5 -33.5t-17.5 -42.5q0 -35 82 -35h111q106 0 145 -28t39 -83q0 -68 -76 -120t-190 -52q-93 0 -142.5 33.5t-49.5 89.5q0 36 29.5 66t69.5 46v2q-36 8 -56.5 27
t-20.5 47q0 27 22.5 58.5t48.5 41.5v2q-38 22 -61 59t-23 81q0 73 57 121.5t142 48.5q39 0 69 -10h179v-44zM382 333q0 48 -37.5 81.5t-93.5 33.5q-54 0 -92.5 -34t-38.5 -81q0 -49 37 -83t93 -34q57 0 94.5 34t37.5 83zM432 -56q0 32 -24 47t-97 15h-105q-96 -45 -96 -100
q0 -34 37 -53.5t97 -19.5q82 0 135 36.5t53 74.5zM202 636q0 20 15 34.5t36 14.5q20 0 34.5 -14.5t14.5 -34.5t-14.5 -35t-34.5 -15q-21 0 -36 15t-15 35z" />
    <glyph glyph-name="Gcommaaccent" unicode="&#x122;" horiz-adv-x="640" 
d="M558 0h-48l-12 58h-2q-30 -29 -74 -48.5t-90 -19.5q-137 0 -210.5 90.5t-73.5 257.5q0 157 88 254t229 97q84 0 162 -30v-131h-44l-14 81q-46 16 -105 16q-105 0 -173.5 -79.5t-68.5 -207.5q0 -137 54 -210.5t159 -73.5q75 0 154 61v144l-81 14v41h216v-40l-66 -15v-259z
M370 -40q1 -4 1 -13q0 -33 -23 -70t-59 -66l-27 14q41 50 41 113q0 10 -1 14z" />
    <glyph glyph-name="gcommaaccent" unicode="&#x123;" horiz-adv-x="527" 
d="M500 449h-110v-3q25 -18 41.5 -48.5t16.5 -64.5q0 -73 -56.5 -122t-141.5 -49q-32 0 -70 12q-20 -10 -37.5 -33.5t-17.5 -42.5q0 -35 82 -35h111q106 0 145 -28t39 -83q0 -68 -76 -120t-190 -52q-93 0 -142.5 33.5t-49.5 89.5q0 36 29.5 66t69.5 46v2q-36 8 -56.5 27
t-20.5 47q0 27 22.5 58.5t48.5 41.5v2q-38 22 -61 59t-23 81q0 73 57 121.5t142 48.5q39 0 69 -10h179v-44zM382 333q0 48 -37.5 81.5t-93.5 33.5q-54 0 -92.5 -34t-38.5 -81q0 -49 37 -83t93 -34q57 0 94.5 34t37.5 83zM432 -56q0 32 -24 47t-97 15h-105q-96 -45 -96 -100
q0 -34 37 -53.5t97 -19.5q82 0 135 36.5t53 74.5zM208 565q-1 3 -1 11q0 30 22 63t58 60l25 -12q-40 -46 -40 -102q0 -9 1 -14z" />
    <glyph glyph-name="Hcircumflex" unicode="&#x124;" horiz-adv-x="714" 
d="M672 0h-232v40l78 14v261h-321v-261l77 -14v-40h-232v40l82 14v572l-82 14v40h232v-40l-77 -14v-248h321v248l-78 14v40h232v-40l-82 -14v-572l82 -14v-40zM279 743h-76l125 109h58l126 -109h-76l-78 78h-2z" />
    <glyph glyph-name="hcircumflex" unicode="&#x125;" horiz-adv-x="594" 
d="M565 0h-221v40l70 14v284q0 53 -22 79t-57 26q-88 0 -154 -78v-311l75 -14v-40h-226v40l81 14v605l-81 5v38l111 18h40v-295h2q61 78 164 78q59 0 98 -38t39 -120v-291l81 -14v-40zM57 751h-76l125 109h58l126 -109h-76l-78 78h-2z" />
    <glyph glyph-name="Hbar" unicode="&#x126;" horiz-adv-x="714" 
d="M65 481v44h59v101l-82 14v40h232v-40l-77 -14v-101h321v101l-78 14v40h232v-40l-82 -14v-101h61v-44h-61v-427l82 -14v-40h-232v40l78 14v259h-321v-259l77 -14v-40h-232v40l82 14v427h-59zM197 374h321v107h-321v-107z" />
    <glyph glyph-name="hbar" unicode="&#x127;" horiz-adv-x="594" 
d="M31 560v40h80v63l-81 4v35l111 18h40v-120h180v-40h-180v-135h2q61 78 164 78q59 0 98 -38t39 -120v-291l81 -14v-40h-224v40l73 14v284q0 53 -22 79t-57 26q-88 0 -154 -78v-311l75 -14v-40h-226v40l81 14v506h-80z" />
    <glyph glyph-name="Itilde" unicode="&#x128;" horiz-adv-x="320" 
d="M197 626v-572l81 -14v-40h-236v40l82 14v572l-82 14v40h236v-40zM316 795q-22 -17 -34 -24.5t-30.5 -14t-37.5 -6.5q-28 0 -59 19.5t-50 19.5q-6 0 -12 -1.5t-10.5 -2.5t-11.5 -5t-10.5 -6.5t-13 -9t-14.5 -9.5l-27 40q31 23 51.5 33t47.5 10q29 0 60 -19t49 -19
q26 0 72 34z" />
    <glyph glyph-name="itilde" unicode="&#x129;" horiz-adv-x="299" 
d="M271 0h-232v40l81 14v378l-81 5v38l111 18h40v-439l81 -14v-40zM289 638q-28 -25 -47.5 -36t-44.5 -11t-53.5 20.5t-45.5 20.5q-10 0 -21.5 -6t-16.5 -10t-26 -21l-25 42q20 17 30.5 24.5t26 14t32.5 6.5q26 0 54.5 -20t44.5 -20q15 0 27 7t37 28z" />
    <glyph glyph-name="Imacron" unicode="&#x12a;" horiz-adv-x="320" 
d="M197 626v-572l81 -14v-40h-236v40l82 14v572l-82 14v40h236v-40zM30 772v47h262v-47h-262z" />
    <glyph glyph-name="imacron" unicode="&#x12b;" horiz-adv-x="299" 
d="M271 0h-232v40l81 14v378l-81 5v38l111 18h40v-439l81 -14v-40zM18 614v47h262v-47h-262z" />
    <glyph glyph-name="Ibreve" unicode="&#x12c;" horiz-adv-x="320" 
d="M197 626v-572l81 -14v-40h-236v40l82 14v572l-82 14v40h236v-40zM40 852h46q3 -26 25 -44.5t50 -18.5t49.5 18.5t24.5 44.5h47q0 -43 -35.5 -73t-85.5 -30t-85.5 30t-35.5 73z" />
    <glyph glyph-name="ibreve" unicode="&#x12d;" horiz-adv-x="299" 
d="M271 0h-232v40l81 14v378l-81 5v38l111 18h40v-439l81 -14v-40zM28 691h46q3 -27 25 -45.5t50 -18.5t49.5 18.5t24.5 45.5h47q0 -44 -35.5 -75t-85.5 -31t-85.5 31t-35.5 75z" />
    <glyph glyph-name="Iogonek" unicode="&#x12e;" horiz-adv-x="320" 
d="M40 -133q0 35 27.5 71.5t66.5 61.5h-92v40l82 14v572l-82 14v40h236v-40l-81 -14v-572l81 -14v-40h-91q-37 -28 -61.5 -62t-24.5 -61q0 -20 10.5 -34.5t25.5 -14.5q19 0 32 4l9 -44q-24 -7 -48 -7q-39 0 -64.5 22t-25.5 64z" />
    <glyph glyph-name="iogonek" unicode="&#x12f;" horiz-adv-x="299" 
d="M32 -133q0 35 27.5 71.5t66.5 61.5h-87v40l81 14v378l-81 5v38l111 18h40v-439l81 -14v-40h-92q-37 -28 -61.5 -62t-24.5 -61q0 -20 10.5 -34.5t25.5 -14.5q19 0 32 4l9 -44q-24 -7 -48 -7q-39 0 -64.5 22t-25.5 64zM103 636q0 20 15 34.5t36 14.5q20 0 34.5 -14.5
t14.5 -34.5t-14.5 -35t-34.5 -15q-21 0 -36 15t-15 35z" />
    <glyph glyph-name="Idotaccent" unicode="&#x130;" horiz-adv-x="320" 
d="M197 626v-572l81 -14v-40h-236v40l82 14v572l-82 14v40h236v-40zM110 794q0 20 15 34.5t36 14.5q20 0 34.5 -14.5t14.5 -34.5t-14.5 -35t-34.5 -15q-21 0 -36 15t-15 35z" />
    <glyph glyph-name="dotlessi" unicode="&#x131;" horiz-adv-x="299" 
d="M271 0h-232v40l81 14v378l-81 5v38l111 18h40v-439l81 -14v-40z" />
    <glyph glyph-name="IJ" unicode="&#x132;" horiz-adv-x="641" 
d="M197 626v-572l81 -14v-40h-236v40l82 14v572l-82 14v40h236v-40zM531 626v-519q0 -53 -14.5 -93t-31 -60t-46.5 -45l-83 -71l-43 52l73 65q25 22 37 35t23.5 44t11.5 75v517l-81 14v40h235v-40z" />
    <glyph glyph-name="ij" unicode="&#x133;" horiz-adv-x="579" 
d="M271 0h-232v40l81 14v378l-81 5v38l111 18h40v-439l81 -14v-40zM103 636q0 20 15 34.5t36 14.5q20 0 34.5 -14.5t14.5 -34.5t-14.5 -35t-34.5 -15q-21 0 -36 15t-15 35zM300 -139l80 77q27 25 33.5 45.5t6.5 75.5v373l-81 5v38l111 18h40v-431q0 -70 -10.5 -101.5
t-47.5 -65.5l-91 -80zM403 636q0 20 15 34.5t36 14.5q20 0 34.5 -14.5t14.5 -34.5t-14.5 -35t-34.5 -15q-21 0 -36 15t-15 35z" />
    <glyph glyph-name="Jcircumflex" unicode="&#x134;" horiz-adv-x="321" 
d="M211 626v-519q0 -53 -14.5 -93t-31 -60t-46.5 -45l-83 -71l-43 52l73 65q25 22 37 35t23.5 44t11.5 75v517l-81 14v40h235v-40zM95 743h-76l125 109h58l126 -109h-76l-78 78h-2z" />
    <glyph glyph-name="jcircumflex" unicode="&#x135;" horiz-adv-x="275" 
d="M1 -174l80 77q27 26 33.5 46.5t6.5 74.5v408l-81 5v38l111 18h40v-466q0 -71 -10.5 -102.5t-47.5 -64.5l-91 -80zM85 579h-63l101 119h54l101 -119h-64l-63 86h-2z" />
    <glyph glyph-name="Kcommaaccent" unicode="&#x136;" horiz-adv-x="624" 
d="M626 0h-131l-104 178q-87 150 -107 189h-2l-85 -110v-203l79 -14v-40h-234v40l82 14v572l-82 14v40h227v-41l-72 -13v-273h2q16 22 86 112q98 123 131 163l-64 11v41h226v-40l-81 -14l-172 -209l220 -363l81 -14v-40zM371 -40q1 -4 1 -13q0 -33 -23 -70t-59 -66l-27 14
q41 50 41 113q0 10 -1 14z" />
    <glyph glyph-name="kcommaaccent" unicode="&#x137;" horiz-adv-x="543" 
d="M536 0h-123l-89 159q-54 96 -61 115h-2l-80 -93v-127l78 -13v-41h-229v40l81 14v605l-81 5v38l111 18h40v-460h4q14 21 79 95l75 86l-60 10v42h217v-40l-83 -14l-106 -120l151 -265l78 -14v-40zM331 -40q1 -4 1 -13q0 -33 -23 -70t-59 -66l-27 14q41 50 41 113
q0 10 -1 14z" />
    <glyph glyph-name="kgreenlandic" unicode="&#x138;" horiz-adv-x="544" 
d="M537 0h-120l-96 152q-51 82 -63 106h-1l-67 -77v-127l78 -13v-41h-229v40l81 14v378l-81 5v38l111 18h40v-234h3q28 39 72 88l83 94l-60 10v42h217v-40l-82 -14l-123 -136l159 -249l78 -14v-40z" />
    <glyph glyph-name="Lacute" unicode="&#x139;" horiz-adv-x="524" 
d="M509 0h-467v40l82 14v572l-82 14v40h236v-40l-81 -14v-563h255l13 93h44v-156zM177 743h-63l121 109h98z" />
    <glyph glyph-name="lacute" unicode="&#x13a;" horiz-adv-x="290" 
d="M111 54v605l-81 5v38l111 18h40v-666l81 -14v-40h-232v40zM152 751h-63l121 109h98z" />
    <glyph glyph-name="Lcommaaccent" unicode="&#x13b;" horiz-adv-x="524" 
d="M509 0h-467v40l82 14v572l-82 14v40h236v-40l-81 -14v-563h255l13 93h44v-156zM316 -40q1 -4 1 -13q0 -33 -23 -70t-59 -66l-27 14q41 50 41 113q0 10 -1 14z" />
    <glyph glyph-name="lcommaaccent" unicode="&#x13c;" horiz-adv-x="290" 
d="M111 54v605l-81 5v38l111 18h40v-666l81 -14v-40h-232v40zM186 -40q1 -4 1 -13q0 -33 -23 -70t-59 -66l-27 14q41 50 41 113q0 10 -1 14z" />
    <glyph glyph-name="Lcaron" unicode="&#x13d;" horiz-adv-x="520" 
d="M505 0h-467v40l82 14v572l-82 14v40h236v-40l-81 -14v-563h255l13 93h44v-156zM347 699l60 8q1 -4 1 -14q0 -39 -21.5 -82.5t-55.5 -76.5l-30 6q47 80 47 143q0 11 -1 16z" />
    <glyph glyph-name="lcaron" unicode="&#x13e;" horiz-adv-x="310" 
d="M108 54v605l-81 5v38l111 18h40v-666l81 -14v-40h-232v40zM279 739l60 8q1 -4 1 -14q0 -39 -21.5 -82.5t-55.5 -76.5l-30 6q47 80 47 143q0 11 -1 16z" />
    <glyph glyph-name="Ldot" unicode="&#x13f;" horiz-adv-x="524" 
d="M509 0h-467v40l82 14v572l-82 14v40h236v-40l-81 -14v-563h255l13 93h44v-156zM288 374q0 19 15 33.5t35 14.5t34 -14t14 -34t-14 -35t-34 -15t-35 15t-15 35z" />
    <glyph glyph-name="ldot" unicode="&#x140;" horiz-adv-x="308" 
d="M111 54v605l-81 5v38l111 18h40v-666l81 -14v-40h-232v40zM247 352q0 20 15 34.5t36 14.5q20 0 34.5 -14.5t14.5 -34.5t-14.5 -35t-34.5 -15q-21 0 -36 15t-15 35z" />
    <glyph glyph-name="Lslash" unicode="&#x141;" horiz-adv-x="520" 
d="M51 251v64l69 38v273l-82 14v40h236v-40l-81 -14v-232l175 98v-63l-175 -99v-267h255l13 93h44v-156h-467v40l82 14v235z" />
    <glyph glyph-name="lslash" unicode="&#x142;" horiz-adv-x="290" 
d="M53 294v61l58 32v272l-81 5v38l111 18h40v-294l73 41v-59l-73 -42v-312l81 -14v-40h-232v40l81 14v273z" />
    <glyph glyph-name="Nacute" unicode="&#x143;" horiz-adv-x="712" 
d="M601 0h-66l-219 351q-84 137 -121 203h-2q4 -76 4 -202v-298l80 -14v-40h-235v40l82 14v572l-82 14v40h148l221 -354q78 -125 118 -200h2q-3 43 -3 203v297l-80 14v40h234v-40l-81 -14v-626zM374 743h-63l121 109h98z" />
    <glyph glyph-name="nacute" unicode="&#x144;" horiz-adv-x="603" 
d="M574 0h-221v40l70 14v283q0 54 -22 80t-56 26q-83 0 -155 -87v-302l75 -14v-40h-226v40l81 14v378l-81 5v38l111 18h31l5 -79h2q26 38 71 63.5t98 25.5q59 0 97.5 -38.5t38.5 -121.5v-289l81 -14v-40zM318 579h-57l90 119h90z" />
    <glyph glyph-name="Ncommaaccent" unicode="&#x145;" horiz-adv-x="712" 
d="M601 0h-66l-219 351q-84 137 -121 203h-2q4 -76 4 -202v-298l80 -14v-40h-235v40l82 14v572l-82 14v40h148l221 -354q78 -125 118 -200h2q-3 43 -3 203v297l-80 14v40h234v-40l-81 -14v-626zM393 -40q1 -4 1 -13q0 -33 -23 -70t-59 -66l-27 14q41 50 41 113q0 10 -1 14z
" />
    <glyph glyph-name="ncommaaccent" unicode="&#x146;" horiz-adv-x="603" 
d="M574 0h-221v40l70 14v283q0 54 -22 80t-56 26q-83 0 -155 -87v-302l75 -14v-40h-226v40l81 14v378l-81 5v38l111 18h31l5 -79h2q26 38 71 63.5t98 25.5q59 0 97.5 -38.5t38.5 -121.5v-289l81 -14v-40zM347 -40q1 -4 1 -13q0 -33 -23 -70t-59 -66l-27 14q41 50 41 113
q0 10 -1 14z" />
    <glyph glyph-name="Ncaron" unicode="&#x147;" horiz-adv-x="712" 
d="M601 0h-66l-219 351q-84 137 -121 203h-2q4 -76 4 -202v-298l80 -14v-40h-235v40l82 14v572l-82 14v40h148l221 -354q78 -125 118 -200h2q-3 43 -3 203v297l-80 14v40h234v-40l-81 -14v-626zM203 852h76l77 -77h2l78 77h76l-126 -109h-58z" />
    <glyph glyph-name="ncaron" unicode="&#x148;" horiz-adv-x="603" 
d="M574 0h-221v40l70 14v283q0 54 -22 80t-56 26q-83 0 -155 -87v-302l75 -14v-40h-226v40l81 14v378l-81 5v38l111 18h31l5 -79h2q26 38 71 63.5t98 25.5q59 0 97.5 -38.5t38.5 -121.5v-289l81 -14v-40zM175 698h63l64 -86h2l63 86h64l-101 -119h-54z" />
    <glyph glyph-name="napostrophe" unicode="&#x149;" horiz-adv-x="603" 
d="M574 0h-221v40l70 14v283q0 54 -22 80t-56 26q-83 0 -155 -87v-302l75 -14v-40h-226v40l81 14v378l-81 5v38l111 18h31l5 -79h2q26 38 71 63.5t98 25.5q59 0 97.5 -38.5t38.5 -121.5v-289l81 -14v-40zM143 735l62 9q1 -4 1 -15q0 -39 -22 -83t-56 -78l-32 6q48 83 48 145
q0 11 -1 16z" />
    <glyph glyph-name="Eng" unicode="&#x14a;" horiz-adv-x="710" 
d="M124 54v572l-82 14v40h148l220 -354q79 -129 119 -200h1q-2 38 -2 203v297l-81 14v40h234v-40l-81 -14v-489q0 -93 -22.5 -140t-71.5 -90l-58 -49l-39 49l59 53q44 38 46 71l-198 320q-67 108 -121 202h-2q4 -74 4 -201v-298l80 -14v-40h-235v40z" />
    <glyph glyph-name="eng" unicode="&#x14b;" horiz-adv-x="577" 
d="M336 -86l49 46q26 24 32 48.5t6 85.5v243q0 54 -22 80t-56 26q-83 0 -155 -87v-302l77 -14v-40h-228v40l81 14v378l-81 5v38l111 18h31l5 -79h2q26 38 71 63.5t98 25.5q59 0 97.5 -38.5t38.5 -121.5v-239q0 -68 -13 -109.5t-47 -73.5l-57 -52z" />
    <glyph glyph-name="Omacron" unicode="&#x14c;" horiz-adv-x="658" 
d="M610 340q0 -162 -75.5 -256t-205.5 -94q-131 0 -206 94t-75 256q0 161 75.5 255.5t205.5 94.5t205.5 -94.5t75.5 -255.5zM536 340q0 131 -57 208.5t-150 77.5q-94 0 -150.5 -77.5t-56.5 -208.5q0 -133 55.5 -209.5t151.5 -76.5t151.5 76.5t55.5 209.5zM199 772v47h262
v-47h-262z" />
    <glyph glyph-name="omacron" unicode="&#x14d;" horiz-adv-x="522" 
d="M261 -10q-99 0 -157.5 69.5t-58.5 187.5t58.5 187t157.5 69t157.5 -69t58.5 -187t-58.5 -187.5t-157.5 -69.5zM261 51q68 0 106.5 52.5t38.5 143.5t-38.5 143t-106.5 52t-106.5 -51.5t-38.5 -143.5t38.5 -144t106.5 -52zM130 614v47h262v-47h-262z" />
    <glyph glyph-name="Obreve" unicode="&#x14e;" horiz-adv-x="658" 
d="M610 340q0 -162 -75.5 -256t-205.5 -94q-131 0 -206 94t-75 256q0 161 75.5 255.5t205.5 94.5t205.5 -94.5t75.5 -255.5zM536 340q0 131 -57 208.5t-150 77.5q-94 0 -150.5 -77.5t-56.5 -208.5q0 -133 55.5 -209.5t151.5 -76.5t151.5 76.5t55.5 209.5zM209 852h46
q3 -26 25 -44.5t50 -18.5t49.5 18.5t24.5 44.5h47q0 -43 -35.5 -73t-85.5 -30t-85.5 30t-35.5 73z" />
    <glyph glyph-name="obreve" unicode="&#x14f;" horiz-adv-x="522" 
d="M261 -10q-99 0 -157.5 69.5t-58.5 187.5t58.5 187t157.5 69t157.5 -69t58.5 -187t-58.5 -187.5t-157.5 -69.5zM261 51q68 0 106.5 52.5t38.5 143.5t-38.5 143t-106.5 52t-106.5 -51.5t-38.5 -143.5t38.5 -144t106.5 -52zM140 691h46q3 -27 25 -45.5t50 -18.5t49.5 18.5
t24.5 45.5h47q0 -44 -35.5 -75t-85.5 -31t-85.5 31t-35.5 75z" />
    <glyph glyph-name="Ohungarumlaut" unicode="&#x150;" horiz-adv-x="658" 
d="M610 340q0 -162 -75.5 -256t-205.5 -94q-131 0 -206 94t-75 256q0 161 75.5 255.5t205.5 94.5t205.5 -94.5t75.5 -255.5zM536 340q0 131 -57 208.5t-150 77.5q-94 0 -150.5 -77.5t-56.5 -208.5q0 -133 55.5 -209.5t151.5 -76.5t151.5 76.5t55.5 209.5zM411 743h-62
l121 109h96zM272 743h-62l121 109h97z" />
    <glyph glyph-name="ohungarumlaut" unicode="&#x151;" horiz-adv-x="522" 
d="M261 -10q-99 0 -157.5 69.5t-58.5 187.5t58.5 187t157.5 69t157.5 -69t58.5 -187t-58.5 -187.5t-157.5 -69.5zM261 51q68 0 106.5 52.5t38.5 143.5t-38.5 143t-106.5 52t-106.5 -51.5t-38.5 -143.5t38.5 -144t106.5 -52zM208 579h-51l94 122h83zM344 579h-51l94 122h83z
" />
    <glyph glyph-name="OE" unicode="&#x152;" horiz-adv-x="893" 
d="M48 340q0 161 76 255.5t206 94.5q70 0 107 -10h387v-138h-45l-13 76h-257v-234h225l13 60h41v-180h-41l-13 60h-225v-262h279l13 83h44v-145h-408q-45 -10 -107 -10q-132 0 -207 94t-75 256zM122 340q0 -133 56 -209.5t152 -76.5q67 0 107 10v550q-33 12 -107 12
q-94 0 -151 -77.5t-57 -208.5z" />
    <glyph glyph-name="oe" unicode="&#x153;" horiz-adv-x="842" 
d="M45 247q0 117 58.5 186.5t157.5 69.5q125 0 171 -111h2q21 50 69 80.5t104 30.5q191 0 191 -243v-17h-333q0 -95 44 -144.5t114 -49.5q65 0 138 21l14 -57q-83 -22 -151 -22t-120 30t-71 81h-2q-21 -52 -65.5 -82t-104.5 -30q-99 0 -157.5 69.5t-58.5 187.5zM116 247
q0 -91 39 -143.5t106 -52.5t102 51.5t35 147.5q0 94 -35 143t-102 49t-106 -52t-39 -143zM467 293h268q-1 69 -33 112t-96 43q-57 0 -94.5 -41.5t-44.5 -113.5z" />
    <glyph glyph-name="Racute" unicode="&#x154;" horiz-adv-x="633" 
d="M632 0h-132l-162 305h-141v-251l79 -14v-40h-234v40l82 14v572l-82 14v40h295q99 0 152 -47t53 -132q0 -71 -36 -119.5t-99 -64.5v-2q7 -12 55 -100l89 -161l81 -14v-40zM468 501q0 55 -37.5 85.5t-103.5 30.5h-130v-249h131q41 0 70 12.5t43.5 33t20.5 42t6 45.5z
M300 743h-63l121 109h98z" />
    <glyph glyph-name="racute" unicode="&#x155;" horiz-adv-x="405" 
d="M383 364h-41l-13 72q-12 5 -31 5q-32 0 -62 -29.5t-46 -80.5v-277l91 -14v-40h-242v40l81 14v378l-81 5v38l111 18h31l3 -91h2q9 39 41.5 69.5t74.5 30.5q39 0 81 -26v-112zM215 579h-57l90 119h90z" />
    <glyph glyph-name="Rcommaaccent" unicode="&#x156;" horiz-adv-x="633" 
d="M632 0h-132l-162 305h-141v-251l79 -14v-40h-234v40l82 14v572l-82 14v40h295q99 0 152 -47t53 -132q0 -71 -36 -119.5t-99 -64.5v-2q7 -12 55 -100l89 -161l81 -14v-40zM468 501q0 55 -37.5 85.5t-103.5 30.5h-130v-249h131q41 0 70 12.5t43.5 33t20.5 42t6 45.5z
M381 -40q1 -4 1 -13q0 -33 -23 -70t-59 -66l-27 14q41 50 41 113q0 10 -1 14z" />
    <glyph glyph-name="rcommaaccent" unicode="&#x157;" horiz-adv-x="405" 
d="M383 364h-41l-13 72q-12 5 -31 5q-32 0 -62 -29.5t-46 -80.5v-277l91 -14v-40h-242v40l81 14v378l-81 5v38l111 18h31l3 -91h2q9 39 41.5 69.5t74.5 30.5q39 0 81 -26v-112zM195 -40q1 -4 1 -13q0 -33 -23 -70t-59 -66l-27 14q41 50 41 113q0 10 -1 14z" />
    <glyph glyph-name="Rcaron" unicode="&#x158;" horiz-adv-x="633" 
d="M632 0h-132l-162 305h-141v-251l79 -14v-40h-234v40l82 14v572l-82 14v40h295q99 0 152 -47t53 -132q0 -71 -36 -119.5t-99 -64.5v-2q7 -12 55 -100l89 -161l81 -14v-40zM468 501q0 55 -37.5 85.5t-103.5 30.5h-130v-249h131q41 0 70 12.5t43.5 33t20.5 42t6 45.5z
M129 852h76l77 -77h2l78 77h76l-126 -109h-58z" />
    <glyph glyph-name="rcaron" unicode="&#x159;" horiz-adv-x="405" 
d="M383 364h-41l-13 72q-12 5 -31 5q-32 0 -62 -29.5t-46 -80.5v-277l91 -14v-40h-242v40l81 14v378l-81 5v38l111 18h31l3 -91h2q9 39 41.5 69.5t74.5 30.5q39 0 81 -26v-112zM72 698h63l64 -86h2l63 86h64l-101 -119h-54z" />
    <glyph glyph-name="Sacute" unicode="&#x15a;" horiz-adv-x="505" 
d="M462 191q0 -93 -61 -146.5t-154 -53.5q-97 0 -206 40v135h45l14 -85q69 -27 147 -27q57 0 98.5 36t41.5 97q0 55 -32 85.5t-101 51.5q-44 13 -69.5 23.5t-60 32t-51.5 55t-17 78.5q0 77 57 126.5t147 49.5q69 0 147 -26v-131h-45l-14 80q-42 15 -89 15q-58 0 -93 -31.5
t-35 -80.5q0 -28 9.5 -47.5t32.5 -34t43 -22t60 -20.5q85 -26 135.5 -70.5t50.5 -129.5zM273 743h-63l121 109h98z" />
    <glyph glyph-name="sacute" unicode="&#x15b;" horiz-adv-x="424" 
d="M373 140q0 -69 -49.5 -109t-122.5 -40q-77 0 -155 27v118h42l14 -69q55 -17 97 -17t74 23t32 66q0 41 -22 59.5t-70 32.5q-28 8 -44 13.5t-38.5 17.5t-35 25t-21.5 35t-9 50q0 58 44.5 94t114.5 36q57 0 120 -20v-109h-41l-13 63q-27 9 -62 9q-42 0 -68 -20.5t-26 -52.5
q0 -11 2.5 -19.5t5 -15t10.5 -12.5t12 -9.5t17 -8t18.5 -6.5t23.5 -7.5t25 -7.5q56 -17 90.5 -49.5t34.5 -96.5zM234 579h-57l90 119h90z" />
    <glyph glyph-name="Scircumflex" unicode="&#x15c;" horiz-adv-x="505" 
d="M462 191q0 -93 -61 -146.5t-154 -53.5q-97 0 -206 40v135h45l14 -85q69 -27 147 -27q57 0 98.5 36t41.5 97q0 55 -32 85.5t-101 51.5q-44 13 -69.5 23.5t-60 32t-51.5 55t-17 78.5q0 77 57 126.5t147 49.5q69 0 147 -26v-131h-45l-14 80q-42 15 -89 15q-58 0 -93 -31.5
t-35 -80.5q0 -28 9.5 -47.5t32.5 -34t43 -22t60 -20.5q85 -26 135.5 -70.5t50.5 -129.5zM178 743h-76l125 109h58l126 -109h-76l-78 78h-2z" />
    <glyph glyph-name="scircumflex" unicode="&#x15d;" horiz-adv-x="424" 
d="M373 140q0 -69 -49.5 -109t-122.5 -40q-77 0 -155 27v118h42l14 -69q55 -17 97 -17t74 23t32 66q0 41 -22 59.5t-70 32.5q-28 8 -44 13.5t-38.5 17.5t-35 25t-21.5 35t-9 50q0 58 44.5 94t114.5 36q57 0 120 -20v-109h-41l-13 63q-27 9 -62 9q-42 0 -68 -20.5t-26 -52.5
q0 -11 2.5 -19.5t5 -15t10.5 -12.5t12 -9.5t17 -8t18.5 -6.5t23.5 -7.5t25 -7.5q56 -17 90.5 -49.5t34.5 -96.5zM154 579h-63l101 119h54l101 -119h-64l-63 86h-2z" />
    <glyph glyph-name="Scedilla" unicode="&#x15e;" horiz-adv-x="505" 
d="M344 -130q0 -40 -29.5 -64.5t-74.5 -24.5q-46 0 -82 18l16 38q35 -14 62 -14q25 0 40.5 12t15.5 33q0 20 -14.5 31t-32 14.5t-51.5 5.5l25 73q-84 4 -178 39v135h45l14 -85q69 -27 147 -27q57 0 98.5 36t41.5 97q0 55 -32 85.5t-101 51.5q-44 13 -69.5 23.5t-60 32
t-51.5 55t-17 78.5q0 77 57 126.5t147 49.5q69 0 147 -26v-131h-45l-14 80q-42 15 -89 15q-58 0 -93 -31.5t-35 -80.5q0 -28 9.5 -47.5t32.5 -34t43 -22t60 -20.5q85 -26 135.5 -70.5t50.5 -129.5q0 -88 -55 -141t-141 -58l-13 -35v-2q39 -4 65 -26.5t26 -58.5z" />
    <glyph glyph-name="scedilla" unicode="&#x15f;" horiz-adv-x="424" 
d="M292 -130q0 -40 -29.5 -64.5t-74.5 -24.5q-46 0 -82 18l16 38q35 -14 62 -14q25 0 40.5 12t15.5 33q0 20 -14.5 31t-32 14.5t-51.5 5.5l25 73q-60 5 -121 26v118h42l14 -69q55 -17 97 -17t74 23t32 66q0 41 -22 59.5t-70 32.5q-28 8 -44 13.5t-38.5 17.5t-35 25t-21.5 35
t-9 50q0 58 44.5 94t114.5 36q57 0 120 -20v-109h-41l-13 63q-27 9 -62 9q-42 0 -68 -20.5t-26 -52.5q0 -11 2.5 -19.5t5 -15t10.5 -12.5t12 -9.5t17 -8t18.5 -6.5t23.5 -7.5t25 -7.5q56 -17 90.5 -49.5t34.5 -96.5q0 -66 -45 -105t-114 -43l-13 -35v-2q39 -4 65 -26.5
t26 -58.5z" />
    <glyph glyph-name="Scaron" unicode="&#x160;" horiz-adv-x="505" 
d="M462 191q0 -93 -61 -146.5t-154 -53.5q-97 0 -206 40v135h45l14 -85q69 -27 147 -27q57 0 98.5 36t41.5 97q0 55 -32 85.5t-101 51.5q-44 13 -69.5 23.5t-60 32t-51.5 55t-17 78.5q0 77 57 126.5t147 49.5q69 0 147 -26v-131h-45l-14 80q-42 15 -89 15q-58 0 -93 -31.5
t-35 -80.5q0 -28 9.5 -47.5t32.5 -34t43 -22t60 -20.5q85 -26 135.5 -70.5t50.5 -129.5zM102 852h76l77 -77h2l78 77h76l-126 -109h-58z" />
    <glyph glyph-name="scaron" unicode="&#x161;" horiz-adv-x="424" 
d="M373 140q0 -69 -49.5 -109t-122.5 -40q-77 0 -155 27v118h42l14 -69q55 -17 97 -17t74 23t32 66q0 41 -22 59.5t-70 32.5q-28 8 -44 13.5t-38.5 17.5t-35 25t-21.5 35t-9 50q0 58 44.5 94t114.5 36q57 0 120 -20v-109h-41l-13 63q-27 9 -62 9q-42 0 -68 -20.5t-26 -52.5
q0 -11 2.5 -19.5t5 -15t10.5 -12.5t12 -9.5t17 -8t18.5 -6.5t23.5 -7.5t25 -7.5q56 -17 90.5 -49.5t34.5 -96.5zM91 698h63l64 -86h2l63 86h64l-101 -119h-54z" />
    <glyph glyph-name="Tcommaaccent" unicode="&#x162;" horiz-adv-x="550" 
d="M527 535h-44l-15 82h-156v-563l81 -14v-40h-235v40l81 14v563h-157l-15 -82h-44v145h504v-145zM316 -40q1 -4 1 -13q0 -33 -23 -70t-59 -66l-27 14q41 50 41 113q0 10 -1 14z" />
    <glyph glyph-name="tcommaaccent" unicode="&#x163;" horiz-adv-x="348" 
d="M326 18q-62 -27 -113 -27t-81.5 25.5t-30.5 70.5v351h-67v55h67v93l70 29v-122h120v-55h-120v-339q0 -48 50 -48q36 0 84 20zM233 -40q1 -4 1 -13q0 -33 -23 -70t-59 -66l-27 14q41 50 41 113q0 10 -1 14z" />
    <glyph glyph-name="Tcaron" unicode="&#x164;" horiz-adv-x="550" 
d="M527 535h-44l-15 82h-156v-563l81 -14v-40h-235v40l81 14v563h-157l-15 -82h-44v145h504v-145zM121 852h76l77 -77h2l78 77h76l-126 -109h-58z" />
    <glyph glyph-name="tcaron" unicode="&#x165;" horiz-adv-x="357" 
d="M326 18q-62 -27 -113 -27t-81.5 25.5t-30.5 70.5v351h-67v55h67v93l70 29v-122h120v-55h-120v-339q0 -48 50 -48q36 0 84 20zM294 739l60 8q1 -4 1 -14q0 -39 -21.5 -82.5t-55.5 -76.5l-30 6q47 80 47 143q0 11 -1 16z" />
    <glyph glyph-name="Tbar" unicode="&#x166;" horiz-adv-x="550" 
d="M527 535h-44l-15 82h-156v-220h133v-51h-133v-292l81 -14v-40h-235v40l81 14v292h-136v51h136v220h-157l-15 -82h-44v145h504v-145z" />
    <glyph glyph-name="tbar" unicode="&#x167;" horiz-adv-x="348" 
d="M44 270v48h57v120h-67v55h67v93l70 29v-122h120v-55h-120v-120h99v-48h-99v-171q0 -48 50 -48q36 0 84 20l21 -53q-62 -27 -113 -27t-81.5 25.5t-30.5 70.5v183h-57z" />
    <glyph glyph-name="Utilde" unicode="&#x168;" horiz-adv-x="681" 
d="M575 209q0 -103 -61.5 -161t-172.5 -58q-110 0 -172.5 58t-62.5 161v417l-81 14v40h232v-40l-78 -14v-414q0 -72 41 -115t121 -43t120.5 42.5t40.5 115.5v414l-77 14v40h231v-40l-81 -14v-417zM496 795q-22 -17 -34 -24.5t-30.5 -14t-37.5 -6.5q-28 0 -59 19.5t-50 19.5
q-6 0 -12 -1.5t-10.5 -2.5t-11.5 -5t-10.5 -6.5t-13 -9t-14.5 -9.5l-27 40q31 23 51.5 33t47.5 10q29 0 60 -19t49 -19q26 0 72 34z" />
    <glyph glyph-name="utilde" unicode="&#x169;" horiz-adv-x="577" 
d="M549 14l-98 -16h-43l-6 71h-2q-54 -79 -163 -79q-59 0 -96.5 38t-37.5 120v284l-81 5v37l111 19h40v-339q0 -105 76 -105q84 0 149 77v306l-77 5v37l107 19h39v-435l82 -8v-36zM415 638q-28 -25 -47.5 -36t-44.5 -11t-53.5 20.5t-45.5 20.5q-10 0 -21.5 -6t-16.5 -10
t-26 -21l-25 42q20 17 30.5 24.5t26 14t32.5 6.5q26 0 54.5 -20t44.5 -20q15 0 27 7t37 28z" />
    <glyph glyph-name="Umacron" unicode="&#x16a;" horiz-adv-x="681" 
d="M575 209q0 -103 -61.5 -161t-172.5 -58q-110 0 -172.5 58t-62.5 161v417l-81 14v40h232v-40l-78 -14v-414q0 -72 41 -115t121 -43t120.5 42.5t40.5 115.5v414l-77 14v40h231v-40l-81 -14v-417zM210 772v47h262v-47h-262z" />
    <glyph glyph-name="umacron" unicode="&#x16b;" horiz-adv-x="577" 
d="M549 14l-98 -16h-43l-6 71h-2q-54 -79 -163 -79q-59 0 -96.5 38t-37.5 120v284l-81 5v37l111 19h40v-339q0 -105 76 -105q84 0 149 77v306l-77 5v37l107 19h39v-435l82 -8v-36zM144 614v47h262v-47h-262z" />
    <glyph glyph-name="Ubreve" unicode="&#x16c;" horiz-adv-x="681" 
d="M575 209q0 -103 -61.5 -161t-172.5 -58q-110 0 -172.5 58t-62.5 161v417l-81 14v40h232v-40l-78 -14v-414q0 -72 41 -115t121 -43t120.5 42.5t40.5 115.5v414l-77 14v40h231v-40l-81 -14v-417zM220 852h46q3 -26 25 -44.5t50 -18.5t49.5 18.5t24.5 44.5h47
q0 -43 -35.5 -73t-85.5 -30t-85.5 30t-35.5 73z" />
    <glyph glyph-name="ubreve" unicode="&#x16d;" horiz-adv-x="577" 
d="M549 14l-98 -16h-43l-6 71h-2q-54 -79 -163 -79q-59 0 -96.5 38t-37.5 120v284l-81 5v37l111 19h40v-339q0 -105 76 -105q84 0 149 77v306l-77 5v37l107 19h39v-435l82 -8v-36zM154 691h46q3 -27 25 -45.5t50 -18.5t49.5 18.5t24.5 45.5h47q0 -44 -35.5 -75t-85.5 -31
t-85.5 31t-35.5 75z" />
    <glyph glyph-name="Uring" unicode="&#x16e;" horiz-adv-x="681" 
d="M575 209q0 -103 -61.5 -161t-172.5 -58q-110 0 -172.5 58t-62.5 161v417l-81 14v40h232v-40l-78 -14v-414q0 -72 41 -115t121 -43t120.5 42.5t40.5 115.5v414l-77 14v40h231v-40l-81 -14v-417zM250 805q0 40 26.5 67.5t64.5 27.5t64.5 -27.5t26.5 -67.5t-26.5 -67.5
t-64.5 -27.5t-64.5 27.5t-26.5 67.5zM292 805q0 -24 14 -40.5t35 -16.5q19 0 33.5 16.5t14.5 40.5t-14.5 40.5t-33.5 16.5q-21 0 -35 -16.5t-14 -40.5z" />
    <glyph glyph-name="uring" unicode="&#x16f;" horiz-adv-x="577" 
d="M549 14l-98 -16h-43l-6 71h-2q-54 -79 -163 -79q-59 0 -96.5 38t-37.5 120v284l-81 5v37l111 19h40v-339q0 -105 76 -105q84 0 149 77v306l-77 5v37l107 19h39v-435l82 -8v-36zM184 645q0 40 26.5 67.5t64.5 27.5t64.5 -27.5t26.5 -67.5t-26.5 -67.5t-64.5 -27.5
t-64.5 27.5t-26.5 67.5zM226 645q0 -24 14 -40t35 -16q19 0 33.5 16t14.5 40t-14.5 40.5t-33.5 16.5q-21 0 -35 -16.5t-14 -40.5z" />
    <glyph glyph-name="Uhungarumlaut" unicode="&#x170;" horiz-adv-x="681" 
d="M575 209q0 -103 -61.5 -161t-172.5 -58q-110 0 -172.5 58t-62.5 161v417l-81 14v40h232v-40l-78 -14v-414q0 -72 41 -115t121 -43t120.5 42.5t40.5 115.5v414l-77 14v40h231v-40l-81 -14v-417zM422 743h-62l121 109h96zM283 743h-62l121 109h97z" />
    <glyph glyph-name="uhungarumlaut" unicode="&#x171;" horiz-adv-x="577" 
d="M549 14l-98 -16h-43l-6 71h-2q-54 -79 -163 -79q-59 0 -96.5 38t-37.5 120v284l-81 5v37l111 19h40v-339q0 -105 76 -105q84 0 149 77v306l-77 5v37l107 19h39v-435l82 -8v-36zM222 579h-51l94 122h83zM358 579h-51l94 122h83z" />
    <glyph glyph-name="Uogonek" unicode="&#x172;" horiz-adv-x="681" 
d="M267 -133q0 63 80 123h-6q-110 0 -172.5 58t-62.5 161v417l-81 14v40h232v-40l-78 -14v-414q0 -72 41 -115t121 -43t120.5 42.5t40.5 115.5v414l-77 14v40h231v-40l-81 -14v-417q0 -85 -43 -140t-122 -72q-35 -27 -58.5 -60t-23.5 -60q0 -20 10.5 -34.5t25.5 -14.5
q19 0 32 4l9 -44q-25 -7 -48 -7q-39 0 -64.5 22t-25.5 64z" />
    <glyph glyph-name="uogonek" unicode="&#x173;" horiz-adv-x="577" 
d="M314 -133q0 35 27 71t67 62l-6 69h-2q-54 -79 -163 -79q-59 0 -96.5 38t-37.5 120v284l-81 5v37l111 19h40v-339q0 -105 76 -105q84 0 149 77v306l-77 5v37l107 19h39v-435l82 -8v-36l-89 -14q-36 -28 -60.5 -62t-24.5 -61q0 -20 10.5 -34.5t25.5 -14.5q19 0 32 4l9 -44
q-24 -7 -48 -7q-39 0 -64.5 22t-25.5 64z" />
    <glyph glyph-name="Wcircumflex" unicode="&#x174;" horiz-adv-x="909" 
d="M827 626l-177 -626h-72l-73 303q-25 102 -49 224h-2q-3 -20 -52 -229l-71 -298h-72l-177 626l-74 14v40h226v-40l-79 -14l71 -259q52 -191 68 -273h2q30 139 58 254l81 332h43l80 -324q44 -189 58 -262h2q10 54 64 254l76 278l-80 14v40h224v-40zM377 743h-76l125 109h58
l126 -109h-76l-78 78h-2z" />
    <glyph glyph-name="wcircumflex" unicode="&#x175;" horiz-adv-x="773" 
d="M690 439l-135 -439h-66l-63 235q-21 75 -38 144h-2q-18 -64 -38 -143l-65 -236h-65l-135 439l-74 11v43h217v-44l-75 -10l54 -193q35 -115 46 -166h2q12 67 45 176l68 237h43l67 -237q32 -106 46 -176h2q17 76 46 168l54 191l-75 10v44h215v-43zM323 579h-63l101 119h54
l101 -119h-64l-63 86h-2z" />
    <glyph glyph-name="Ycircumflex" unicode="&#x176;" horiz-adv-x="587" 
d="M505 626l-176 -383v-189l82 -14v-40h-236v40l82 14v189l-175 383l-74 14v40h226v-41l-74 -13l45 -104q50 -117 88 -218h2q39 105 88 215l45 106l-75 14v41h227v-40zM215 743h-76l125 109h58l126 -109h-76l-78 78h-2z" />
    <glyph glyph-name="ycircumflex" unicode="&#x177;" horiz-adv-x="568" 
d="M484 439l-143 -382q-50 -127 -113 -192l-86 -88l-41 40l73 76q48 53 72 109l-163 437l-74 11v43h218v-45l-74 -9l59 -162q42 -114 71 -213h2q24 75 73 214l57 161l-74 9v45h218v-43zM220 579h-63l101 119h54l101 -119h-64l-63 86h-2z" />
    <glyph glyph-name="Ydieresis" unicode="&#x178;" horiz-adv-x="587" 
d="M505 626l-176 -383v-189l82 -14v-40h-236v40l82 14v189l-175 383l-74 14v40h226v-41l-74 -13l45 -104q50 -117 88 -218h2q39 105 88 215l45 106l-75 14v41h227v-40zM140 795q0 19 13.5 32.5t33.5 13.5t33.5 -13.5t13.5 -32.5t-14 -32.5t-33 -13.5t-33 13.5t-14 32.5z
M353 795q0 19 13.5 32.5t33.5 13.5t33.5 -13.5t13.5 -32.5t-14 -32.5t-33 -13.5t-33 13.5t-14 32.5z" />
    <glyph glyph-name="Zacute" unicode="&#x179;" horiz-adv-x="509" 
d="M473 0h-436v58l256 429q32 52 83 128v2h-256l-14 -82h-45v145h394v-58l-245 -405q-21 -35 -94 -152v-2h298l14 87h45v-150zM279 743h-63l121 109h98z" />
    <glyph glyph-name="zacute" unicode="&#x17a;" horiz-adv-x="456" 
d="M411 0h-368v54l189 260q45 63 90 117v2h-210l-13 -67h-41v127h344v-55l-207 -281q-31 -43 -74 -96v-2h235l14 74h41v-133zM247 579h-57l90 119h90z" />
    <glyph glyph-name="Zdotaccent" unicode="&#x17b;" horiz-adv-x="509" 
d="M473 0h-436v58l256 429q32 52 83 128v2h-256l-14 -82h-45v145h394v-58l-245 -405q-21 -35 -94 -152v-2h298l14 87h45v-150zM212 794q0 20 15 34.5t36 14.5q20 0 34.5 -14.5t14.5 -34.5t-14.5 -35t-34.5 -15q-21 0 -36 15t-15 35z" />
    <glyph glyph-name="zdotaccent" unicode="&#x17c;" horiz-adv-x="456" 
d="M411 0h-368v54l189 260q45 63 90 117v2h-210l-13 -67h-41v127h344v-55l-207 -281q-31 -43 -74 -96v-2h235l14 74h41v-133zM181 636q0 20 15 34.5t36 14.5q20 0 34.5 -14.5t14.5 -34.5t-14.5 -35t-34.5 -15q-21 0 -36 15t-15 35z" />
    <glyph glyph-name="Zcaron" unicode="&#x17d;" horiz-adv-x="509" 
d="M473 0h-436v58l256 429q32 52 83 128v2h-256l-14 -82h-45v145h394v-58l-245 -405q-21 -35 -94 -152v-2h298l14 87h45v-150zM108 852h76l77 -77h2l78 77h76l-126 -109h-58z" />
    <glyph glyph-name="zcaron" unicode="&#x17e;" horiz-adv-x="456" 
d="M411 0h-368v54l189 260q45 63 90 117v2h-210l-13 -67h-41v127h344v-55l-207 -281q-31 -43 -74 -96v-2h235l14 74h41v-133zM104 698h63l64 -86h2l63 86h64l-101 -119h-54z" />
    <glyph glyph-name="florin" unicode="&#x192;" horiz-adv-x="502" 
d="M152 364v60h64l26 154q8 45 42.5 67t80.5 22q36 0 85 -17l-21 -55q-37 12 -67 12q-19 0 -33.5 -11t-17.5 -28l-25 -144h100v-60h-110l-40 -253q-10 -58 -19.5 -95.5t-26.5 -75t-43.5 -55.5t-63.5 -18t-54 5l13 54q10 -3 33 -3q39 0 58.5 52.5t35.5 154.5l37 234h-54z" />
    <glyph glyph-name="AEacute" unicode="&#x1fc;" horiz-adv-x="916" 
d="M868 0h-486v41l78 13v135h-253l-82 -135l66 -13v-41h-218v40l76 14l351 572l-72 12v42h518v-138h-44l-13 76h-256v-234h223l13 60h41v-180h-41l-13 60h-223v-262h277l13 83h45v-145zM239 249h221v104q0 154 3 259h-2q-43 -74 -154 -252zM569 743h-63l121 109h98z" />
    <glyph glyph-name="aeacute" unicode="&#x1fd;" horiz-adv-x="784" 
d="M50 140q0 85 41 122.5t103 37.5q19 0 72.5 -11t80.5 -13v68q0 56 -26.5 77.5t-76.5 21.5q-41 0 -107 -21l-13 -64h-43v107q7 2 32.5 10t36 11t31 7.5t38 6.5t35.5 2q60 0 94 -28t39 -68h2q16 40 63 68.5t97 28.5q191 0 191 -242v-18h-333q0 -96 42.5 -145t114.5 -49
q66 0 139 21l14 -57q-83 -22 -151 -22q-64 0 -112 26.5t-67 66.5h-2q-29 -44 -79 -69t-107 -25q-62 0 -105.5 35.5t-43.5 114.5zM118 143q0 -43 23.5 -70.5t68.5 -27.5q39 0 87.5 26.5t68.5 53.5q-16 38 -19 106q-24 2 -76.5 10t-64.5 8q-88 0 -88 -106zM409 293h268
q-1 70 -32.5 112.5t-94.5 42.5q-57 0 -95.5 -42t-45.5 -113zM415 579h-57l90 119h90z" />
    <glyph glyph-name="Oslashacute" unicode="&#x1fe;" horiz-adv-x="663" 
d="M41 8l71 93q-63 92 -63 239q0 161 76.5 255.5t205.5 94.5q110 0 182 -72l63 83l46 -31l-73 -93q66 -94 66 -237q0 -162 -76.5 -256t-207.5 -94q-111 0 -182 69l-63 -81zM123 340q0 -103 37 -172h2l307 393q-51 65 -138 65q-94 0 -151 -78t-57 -208zM540 340q0 41 -11 91
t-27 80h-2l-309 -394q54 -63 140 -63q96 0 152.5 76.5t56.5 209.5zM347 737h-57l90 119h90z" />
    <glyph glyph-name="oslashacute" unicode="&#x1ff;" horiz-adv-x="525" 
d="M45 247q0 117 59.5 186.5t158.5 69.5q74 0 126 -40l43 61l35 -26l-46 -64q60 -73 60 -187q0 -118 -59.5 -187.5t-158.5 -69.5q-78 0 -130 42l-43 -60l-35 25l46 65q-56 70 -56 185zM410 247q0 75 -31 127h-2l-208 -290q38 -35 94 -35q68 0 107.5 53t39.5 145zM115 247
q0 -75 28 -125h2l207 289q-38 32 -89 32q-69 0 -108.5 -52t-39.5 -144zM278 579h-57l90 119h90z" />
    <glyph glyph-name="Scommaaccent" unicode="&#x218;" horiz-adv-x="505" 
d="M462 191q0 -93 -61 -146.5t-154 -53.5q-97 0 -206 40v135h45l14 -85q69 -27 147 -27q57 0 98.5 36t41.5 97q0 55 -32 85.5t-101 51.5q-44 13 -69.5 23.5t-60 32t-51.5 55t-17 78.5q0 77 57 126.5t147 49.5q69 0 147 -26v-131h-45l-14 80q-42 15 -89 15q-58 0 -93 -31.5
t-35 -80.5q0 -28 9.5 -47.5t32.5 -34t43 -22t60 -20.5q85 -26 135.5 -70.5t50.5 -129.5zM298 -40q1 -4 1 -13q0 -33 -23 -70t-59 -66l-27 14q41 50 41 113q0 10 -1 14z" />
    <glyph glyph-name="scommaaccent" unicode="&#x219;" horiz-adv-x="424" 
d="M373 140q0 -69 -49.5 -109t-122.5 -40q-77 0 -155 27v118h42l14 -69q55 -17 97 -17t74 23t32 66q0 41 -22 59.5t-70 32.5q-28 8 -44 13.5t-38.5 17.5t-35 25t-21.5 35t-9 50q0 58 44.5 94t114.5 36q57 0 120 -20v-109h-41l-13 63q-27 9 -62 9q-42 0 -68 -20.5t-26 -52.5
q0 -11 2.5 -19.5t5 -15t10.5 -12.5t12 -9.5t17 -8t18.5 -6.5t23.5 -7.5t25 -7.5q56 -17 90.5 -49.5t34.5 -96.5zM246 -40q1 -4 1 -13q0 -33 -23 -70t-59 -66l-27 14q41 50 41 113q0 10 -1 14z" />
    <glyph glyph-name="uni021A" unicode="&#x21a;" horiz-adv-x="550" 
d="M527 535h-44l-15 82h-156v-563l81 -14v-40h-235v40l81 14v563h-157l-15 -82h-44v145h504v-145zM316 -40q1 -4 1 -13q0 -33 -23 -70t-59 -66l-27 14q41 50 41 113q0 10 -1 14z" />
    <glyph glyph-name="uni021B" unicode="&#x21b;" horiz-adv-x="348" 
d="M326 18q-62 -27 -113 -27t-81.5 25.5t-30.5 70.5v351h-67v55h67v93l70 29v-122h120v-55h-120v-339q0 -48 50 -48q36 0 84 20zM233 -40q1 -4 1 -13q0 -33 -23 -70t-59 -66l-27 14q41 50 41 113q0 10 -1 14z" />
    <glyph glyph-name="dotlessj" unicode="&#x237;" horiz-adv-x="275" 
d="M1 -174l80 77q27 26 33.5 46.5t6.5 74.5v408l-81 5v38l111 18h40v-466q0 -71 -10.5 -102.5t-47.5 -64.5l-91 -80z" />
    <glyph glyph-name="circumflex" unicode="&#x2c6;" horiz-adv-x="417" 
d="M144 579h-63l101 119h54l101 -119h-64l-63 86h-2z" />
    <glyph glyph-name="caron" unicode="&#x2c7;" horiz-adv-x="417" 
d="M81 698h63l64 -86h2l63 86h64l-101 -119h-54z" />
    <glyph glyph-name="uni02C9" unicode="&#x2c9;" horiz-adv-x="417" 
d="M78 614v47h262v-47h-262z" />
    <glyph glyph-name="breve" unicode="&#x2d8;" horiz-adv-x="417" 
d="M88 691h46q3 -27 25 -45.5t50 -18.5t49.5 18.5t24.5 45.5h47q0 -44 -35.5 -75t-85.5 -31t-85.5 31t-35.5 75z" />
    <glyph glyph-name="dotaccent" unicode="&#x2d9;" horiz-adv-x="417" 
d="M158 636q0 20 15 34.5t36 14.5q20 0 34.5 -14.5t14.5 -34.5t-14.5 -35t-34.5 -15q-21 0 -36 15t-15 35z" />
    <glyph glyph-name="ring" unicode="&#x2da;" horiz-adv-x="417" 
d="M118 645q0 40 26.5 67.5t64.5 27.5t64.5 -27.5t26.5 -67.5t-26.5 -67.5t-64.5 -27.5t-64.5 27.5t-26.5 67.5zM160 645q0 -24 14 -40t35 -16q19 0 33.5 16t14.5 40t-14.5 40.5t-33.5 16.5q-21 0 -35 -16.5t-14 -40.5z" />
    <glyph glyph-name="ogonek" unicode="&#x2db;" horiz-adv-x="417" 
d="M87 -133q0 36 29 73.5t70 62.5h52q-38 -28 -64 -63t-26 -63q0 -20 10.5 -34.5t25.5 -14.5q19 0 32 4l9 -44q-25 -7 -48 -7q-39 0 -64.5 22t-25.5 64z" />
    <glyph glyph-name="tilde" unicode="&#x2dc;" horiz-adv-x="417" 
d="M349 638q-28 -25 -47.5 -36t-44.5 -11t-53.5 20.5t-45.5 20.5q-10 0 -21.5 -6t-16.5 -10t-26 -21l-25 42q20 17 30.5 24.5t26 14t32.5 6.5q26 0 54.5 -20t44.5 -20q15 0 27 7t37 28z" />
    <glyph glyph-name="hungarumlaut" unicode="&#x2dd;" horiz-adv-x="417" 
d="M156 579h-51l94 122h83zM292 579h-51l94 122h83z" />
    <glyph glyph-name="uni0394" unicode="&#x394;" horiz-adv-x="542" 
d="M516 0h-489v54l202 626h85l202 -626v-54zM97 60h348l-101 313q-45 137 -72 239h-2q-22 -77 -72 -239z" />
    <glyph glyph-name="uni03A9" unicode="&#x3a9;" horiz-adv-x="683" 
d="M28 0v145h45l14 -82h124v2q-62 43 -102 118t-40 174q0 155 73.5 244t199.5 89q125 0 199 -89.5t74 -243.5q0 -98 -41.5 -172.5t-105.5 -119.5v-2h129l13 82h45v-145h-271v53q156 108 156 297q0 130 -54 203t-144 73q-91 0 -145 -73.5t-54 -202.5q0 -192 152 -297v-53
h-267z" />
    <glyph glyph-name="uni03BC" unicode="&#x3bc;" horiz-adv-x="577" 
d="M549 14l-99 -16h-42q-4 34 -6 71h-2q-58 -79 -156 -79q-50 0 -74 25h-2v-225h-65v642l-81 5v37l111 19h40v-339q0 -104 76 -104q85 0 149 76v306l-77 5v37l107 19h39v-435l82 -8v-36z" />
    <glyph glyph-name="pi" unicode="&#x3c0;" horiz-adv-x="539" 
d="M166 0h-69v434h-83v59h511v-59h-83v-301q0 -75 21 -133h-68q-22 48 -22 132v302h-207v-434z" />
    <glyph glyph-name="Wgrave" unicode="&#x1e80;" horiz-adv-x="909" 
d="M827 626l-177 -626h-72l-73 303q-25 102 -49 224h-2q-3 -20 -52 -229l-71 -298h-72l-177 626l-74 14v40h226v-40l-79 -14l71 -259q52 -191 68 -273h2q30 139 58 254l81 332h43l80 -324q44 -189 58 -262h2q10 54 64 254l76 278l-80 14v40h224v-40zM510 743h-63l-155 109
h97z" />
    <glyph glyph-name="wgrave" unicode="&#x1e81;" horiz-adv-x="773" 
d="M690 439l-135 -439h-66l-63 235q-21 75 -38 144h-2q-18 -64 -38 -143l-65 -236h-65l-135 439l-74 11v43h217v-44l-75 -10l54 -193q35 -115 46 -166h2q12 67 45 176l68 237h43l67 -237q32 -106 46 -176h2q17 76 46 168l54 191l-75 10v44h215v-43zM430 579h-57l-124 119h90
z" />
    <glyph glyph-name="Wacute" unicode="&#x1e82;" horiz-adv-x="909" 
d="M827 626l-177 -626h-72l-73 303q-25 102 -49 224h-2q-3 -20 -52 -229l-71 -298h-72l-177 626l-74 14v40h226v-40l-79 -14l71 -259q52 -191 68 -273h2q30 139 58 254l81 332h43l80 -324q44 -189 58 -262h2q10 54 64 254l76 278l-80 14v40h224v-40zM472 743h-63l121 109h98
z" />
    <glyph glyph-name="wacute" unicode="&#x1e83;" horiz-adv-x="773" 
d="M690 439l-135 -439h-66l-63 235q-21 75 -38 144h-2q-18 -64 -38 -143l-65 -236h-65l-135 439l-74 11v43h217v-44l-75 -10l54 -193q35 -115 46 -166h2q12 67 45 176l68 237h43l67 -237q32 -106 46 -176h2q17 76 46 168l54 191l-75 10v44h215v-43zM403 579h-57l90 119h90z
" />
    <glyph glyph-name="Wdieresis" unicode="&#x1e84;" horiz-adv-x="909" 
d="M827 626l-177 -626h-72l-73 303q-25 102 -49 224h-2q-3 -20 -52 -229l-71 -298h-72l-177 626l-74 14v40h226v-40l-79 -14l71 -259q52 -191 68 -273h2q30 139 58 254l81 332h43l80 -324q44 -189 58 -262h2q10 54 64 254l76 278l-80 14v40h224v-40zM302 795q0 19 13.5 32.5
t33.5 13.5t33.5 -13.5t13.5 -32.5t-14 -32.5t-33 -13.5t-33 13.5t-14 32.5zM515 795q0 19 13.5 32.5t33.5 13.5t33.5 -13.5t13.5 -32.5t-14 -32.5t-33 -13.5t-33 13.5t-14 32.5z" />
    <glyph glyph-name="wdieresis" unicode="&#x1e85;" horiz-adv-x="773" 
d="M690 439l-135 -439h-66l-63 235q-21 75 -38 144h-2q-18 -64 -38 -143l-65 -236h-65l-135 439l-74 11v43h217v-44l-75 -10l54 -193q35 -115 46 -166h2q12 67 45 176l68 237h43l67 -237q32 -106 46 -176h2q17 76 46 168l54 191l-75 10v44h215v-43zM250 637q0 19 14 33
t33 14t33 -14t14 -33q0 -18 -14 -32t-33 -14t-33 14t-14 32zM431 637q0 19 13.5 33t33.5 14t34 -14t14 -33q0 -18 -14.5 -32t-33.5 -14t-33 14t-14 32z" />
    <glyph glyph-name="Ygrave" unicode="&#x1ef2;" horiz-adv-x="587" 
d="M505 626l-176 -383v-189l82 -14v-40h-236v40l82 14v189l-175 383l-74 14v40h226v-41l-74 -13l45 -104q50 -117 88 -218h2q39 105 88 215l45 106l-75 14v41h227v-40zM348 743h-63l-155 109h97z" />
    <glyph glyph-name="ygrave" unicode="&#x1ef3;" horiz-adv-x="568" 
d="M484 439l-143 -382q-50 -127 -113 -192l-86 -88l-41 40l73 76q48 53 72 109l-163 437l-74 11v43h218v-45l-74 -9l59 -162q42 -114 71 -213h2q24 75 73 214l57 161l-74 9v45h218v-43zM327 579h-57l-124 119h90z" />
    <glyph glyph-name="endash" unicode="&#x2013;" horiz-adv-x="500" 
d="M35 251v52h430v-52h-430z" />
    <glyph glyph-name="emdash" unicode="&#x2014;" horiz-adv-x="1000" 
d="M35 251v52h930v-52h-930z" />
    <glyph glyph-name="quoteleft" unicode="&#x2018;" horiz-adv-x="198" 
d="M39 493q-1 4 -1 18q0 52 25.5 110t66.5 102l36 -9q-55 -106 -55 -188q0 -16 1 -22z" />
    <glyph glyph-name="quoteright" unicode="&#x2019;" horiz-adv-x="198" 
d="M89 711l72 12q1 -5 1 -19q0 -52 -25.5 -110t-65.5 -101l-36 8q55 106 55 189q0 15 -1 21z" />
    <glyph glyph-name="quotesinglbase" unicode="&#x201a;" horiz-adv-x="198" 
d="M161 116q1 -5 1 -19q0 -52 -25.5 -110t-65.5 -101l-36 8q55 108 55 189q0 15 -1 22z" />
    <glyph glyph-name="quotedblleft" unicode="&#x201c;" horiz-adv-x="344" 
d="M185 493q-1 4 -1 18q0 52 25.5 110t65.5 102l36 -9q-55 -106 -55 -188q0 -16 1 -22zM39 493q-1 4 -1 18q0 52 25.5 110t66.5 102l36 -9q-55 -106 -55 -188q0 -16 1 -22z" />
    <glyph glyph-name="quotedblright" unicode="&#x201d;" horiz-adv-x="344" 
d="M161 723q1 -5 1 -19q0 -52 -25.5 -110t-65.5 -101l-36 8q55 106 55 189q0 15 -1 21zM307 723q1 -5 1 -19q0 -52 -25.5 -110t-66.5 -101l-36 8q55 106 55 189q0 15 -1 21z" />
    <glyph glyph-name="quotedblbase" unicode="&#x201e;" horiz-adv-x="344" 
d="M161 116q1 -5 1 -19q0 -52 -25.5 -110t-65.5 -101l-36 8q55 108 55 189q0 15 -1 22zM307 116q1 -5 1 -19q0 -52 -25.5 -110t-66.5 -101l-36 8q55 108 55 189q0 15 -1 22z" />
    <glyph glyph-name="dagger" unicode="&#x2020;" horiz-adv-x="428" 
d="M25 437v56h157v191h63v-191h158v-57h-158v-486h-63v487h-157z" />
    <glyph glyph-name="daggerdbl" unicode="&#x2021;" horiz-adv-x="428" 
d="M25 437v56h157v191h63v-191h158v-57h-158v-267h158v-57h-158v-162h-63v162h-157v57h157v268h-157z" />
    <glyph glyph-name="bullet" unicode="&#x2022;" horiz-adv-x="271" 
d="M227 316q0 -39 -25.5 -70t-62.5 -31q-41 0 -68.5 30.5t-27.5 70.5q0 41 27 69t69 28q37 0 62.5 -28.5t25.5 -68.5z" />
    <glyph glyph-name="ellipsis" unicode="&#x2026;" horiz-adv-x="1000" 
d="M115 43q0 22 15 38t36 16q22 0 37 -15.5t15 -38.5q0 -22 -15 -37.5t-37 -15.5q-21 0 -36 15.5t-15 37.5zM448 43q0 22 15 38t36 16q22 0 37 -15.5t15 -38.5q0 -22 -15 -37.5t-37 -15.5q-21 0 -36 15.5t-15 37.5zM781 43q0 22 15 38t36 16q22 0 37 -15.5t15 -38.5
q0 -22 -15 -37.5t-37 -15.5q-21 0 -36 15.5t-15 37.5z" />
    <glyph glyph-name="perthousand" unicode="&#x2030;" horiz-adv-x="1103" 
d="M309 463q0 -97 -35 -149.5t-105 -52.5t-105 52.5t-35 149.5q0 95 35.5 148t103.5 53q69 0 105 -53t36 -148zM251 463q0 152 -82 152t-82 -152q0 -153 82 -153t82 153zM583 667l-360 -677h-50l359 677h51zM738 194q0 -97 -35 -149.5t-105 -52.5t-105 52.5t-35 149.5
q0 95 35.5 148t103.5 53q69 0 105 -53t36 -148zM680 194q0 152 -82 152t-82 -152q0 -153 82 -153t82 153zM1075 194q0 -97 -35 -149.5t-105 -52.5t-105 52.5t-35 149.5q0 95 35.5 148t103.5 53q69 0 105 -53t36 -148zM1017 194q0 152 -82 152t-82 -152q0 -153 82 -153
t82 153z" />
    <glyph glyph-name="guilsinglleft" unicode="&#x2039;" horiz-adv-x="260" 
d="M220 72h-71l-121 205l121 204h71l-122 -202v-3z" />
    <glyph glyph-name="guilsinglright" unicode="&#x203a;" horiz-adv-x="260" 
d="M111 72h-71l122 204v3l-122 202h71l121 -204z" />
    <glyph glyph-name="fraction" unicode="&#x2044;" horiz-adv-x="142" 
d="M276 667l-360 -677h-50l359 677h51z" />
    <glyph glyph-name="zero.superior" unicode="&#x2070;" 
d="M306 623q0 -97 -35 -149.5t-105 -52.5t-105 52.5t-35 149.5q0 95 35.5 148t103.5 53q69 0 105 -53t36 -148zM248 623q0 152 -82 152t-82 -152q0 -153 82 -153t82 153z" />
    <glyph glyph-name="i.superior" unicode="&#x2071;" horiz-adv-x="194" 
d="M97 595q-15 0 -26 11t-11 24q0 14 11 24t26 10q16 0 27 -10t11 -24q0 -13 -11.5 -24t-26.5 -11zM175 269h-152v31l49 8v201l-49 2v30l74 10h30v-243l48 -8v-31z" />
    <glyph glyph-name="four.superior" unicode="&#x2074;" 
d="M299 515h-40v-49l51 -10v-27h-159v27l54 10v49h-182v40l151 262h59l-152 -255v-2h124v96h54v-96h40v-45z" />
    <glyph glyph-name="five.superior" unicode="&#x2075;" 
d="M295 562q0 -60 -50 -100t-120 -40q-45 0 -89 11l13 48q44 -10 74 -10q45 0 80 27t35 64q0 68 -74 68q-33 0 -74 -27l-40 26l27 188h184v-46h-136l-17 -118h2q28 24 73 24q56 0 84 -32.5t28 -82.5z" />
    <glyph glyph-name="six.superior" unicode="&#x2076;" 
d="M303 554q0 -56 -37 -94.5t-95 -38.5q-59 0 -97.5 40.5t-38.5 100.5q0 111 56.5 186.5t169.5 75.5v-46q-65 0 -110.5 -44.5t-52.5 -98.5h2q30 44 83 44q54 0 87 -33t33 -92zM246 554q0 38 -20 59.5t-52 21.5q-22 0 -46.5 -15t-33.5 -39q-2 -8 -2 -25q0 -37 22.5 -62
t56.5 -25q32 0 53.5 25.5t21.5 59.5z" />
    <glyph glyph-name="seven.superior" unicode="&#x2077;" 
d="M286 773q-121 -165 -121 -344h-55q0 94 32.5 185t81.5 155v2h-133l-10 -43h-36v89h241v-44z" />
    <glyph glyph-name="eight.superior" unicode="&#x2078;" 
d="M296 528q0 -44 -35.5 -75.5t-93.5 -31.5q-57 0 -93.5 31.5t-36.5 74.5q0 73 83 107v1q-63 35 -63 92q0 39 31 68t81 29q51 0 83 -28.5t32 -67.5q0 -35 -19 -59.5t-48 -35.5v-1q79 -31 79 -104zM234 724q0 20 -16.5 38t-47.5 18q-30 0 -45 -18t-15 -39q0 -47 68 -74
q56 22 56 75zM240 531q0 60 -84 86q-32 -15 -47.5 -35t-15.5 -52q0 -23 21 -42.5t55 -19.5q32 0 51.5 20t19.5 43z" />
    <glyph glyph-name="nine.superior" unicode="&#x2079;" 
d="M299 685q0 -117 -57.5 -190.5t-180.5 -73.5v46q79 0 124 44.5t52 99.5h-2q-29 -39 -83 -39t-88 31.5t-34 88.5q0 56 36.5 94t93.5 38q62 0 100.5 -39t38.5 -100zM242 690q0 37 -23.5 62t-58.5 25q-32 0 -52 -24t-20 -59q0 -37 20.5 -57t52.5 -20q26 0 48.5 14.5
t29.5 36.5q3 10 3 22z" />
    <glyph glyph-name="plus.superior" unicode="&#x207a;" 
d="M303 575h-118v-112h-38v112h-117v35h117v110h38v-110h118v-35z" />
    <glyph glyph-name="minus.superior" unicode="&#x207b;" 
d="M30 575v35h273v-35h-273z" />
    <glyph glyph-name="equal.superior" unicode="&#x207c;" 
d="M30 529v35h273v-35h-273zM30 621v35h273v-35h-273z" />
    <glyph glyph-name="parenleft.superior" unicode="&#x207d;" horiz-adv-x="201" 
d="M70 595q0 144 102 257l32 -20q-42 -57 -63.5 -111.5t-21.5 -125.5q0 -124 85 -236l-32 -22q-102 115 -102 258z" />
    <glyph glyph-name="parenright.superior" unicode="&#x207e;" horiz-adv-x="201" 
d="M131 595q0 -144 -103 -258l-31 22q86 114 86 236q0 70 -22 124.5t-64 112.5l31 20q103 -112 103 -257z" />
    <glyph glyph-name="n.superior" unicode="&#x207f;" horiz-adv-x="377" 
d="M360 269h-147v31l44 8v150q0 52 -45 52q-48 0 -85 -44v-158l44 -8v-31h-148v31l48 8v201l-48 2v30l73 10h24l4 -44h1q14 22 42.5 36.5t59.5 14.5q37 0 61 -22.5t24 -69.5v-158l48 -8v-31z" />
    <glyph glyph-name="zero.inferior" unicode="&#x2080;" 
d="M306 54q0 -97 -35 -149.5t-105 -52.5t-105 52.5t-35 149.5q0 95 35.5 148t103.5 53q69 0 105 -53t36 -148zM248 54q0 152 -82 152t-82 -152q0 -153 82 -153t82 153z" />
    <glyph glyph-name="one.inferior" unicode="&#x2081;" 
d="M263 -140h-177v28l63 11v298l-2 2l-72 -38l-16 32l100 55h46v-349l58 -11v-28z" />
    <glyph glyph-name="two.inferior" unicode="&#x2082;" 
d="M298 -140h-254v26q0 80 56 140q19 20 54 41t55 39.5t20 45.5q0 23 -16.5 38.5t-53.5 15.5q-29 0 -55 -11l-11 -41h-36v73q55 28 112 28q56 0 87 -27t31 -74q0 -37 -18.5 -61.5t-57 -48.5t-49.5 -34q-57 -51 -61 -102v-2h150l11 45h36v-91z" />
    <glyph glyph-name="three.inferior" unicode="&#x2083;" 
d="M284 -17q0 -59 -49.5 -94.5t-120.5 -35.5q-33 0 -72 11l11 48q38 -10 60 -10q46 0 80 20.5t34 60.5q0 29 -19.5 48t-47.5 19l-27 -3l-6 37q43 7 62 24t19 49q0 26 -18.5 38t-43.5 12q-28 0 -55 -15l-11 -46h-36v73q56 35 105 35q51 0 83 -22.5t32 -67.5q0 -66 -53 -86v-2
q32 -5 52.5 -30.5t20.5 -62.5z" />
    <glyph glyph-name="four.inferior" unicode="&#x2084;" 
d="M299 -54h-40v-49l51 -10v-27h-159v27l54 10v49h-182v40l151 262h59l-152 -255v-2h124v96h54v-96h40v-45z" />
    <glyph glyph-name="five.inferior" unicode="&#x2085;" 
d="M295 -7q0 -60 -50 -100t-120 -40q-45 0 -89 11l13 48q44 -10 74 -10q45 0 80 27t35 64q0 68 -74 68q-33 0 -74 -27l-40 26l27 188h184v-46h-136l-17 -118h2q28 24 73 24q56 0 84 -32.5t28 -82.5z" />
    <glyph glyph-name="six.inferior" unicode="&#x2086;" 
d="M303 -15q0 -56 -37 -94.5t-95 -38.5q-59 0 -97.5 40.5t-38.5 100.5q0 111 56.5 186.5t169.5 75.5v-46q-65 0 -110.5 -44.5t-52.5 -98.5h2q30 44 83 44q54 0 87 -33t33 -92zM246 -15q0 38 -20 59.5t-52 21.5q-22 0 -46.5 -15t-33.5 -39q-2 -8 -2 -25q0 -37 22.5 -62
t56.5 -25q32 0 53.5 25.5t21.5 59.5z" />
    <glyph glyph-name="seven.inferior" unicode="&#x2087;" 
d="M286 204q-121 -165 -121 -344h-55q0 94 32.5 185t81.5 155v2h-133l-10 -43h-36v89h241v-44z" />
    <glyph glyph-name="eight.inferior" unicode="&#x2088;" 
d="M296 -41q0 -44 -35.5 -75.5t-93.5 -31.5q-57 0 -93.5 31.5t-36.5 74.5q0 73 83 107v1q-63 35 -63 92q0 39 31 68t81 29q51 0 83 -28.5t32 -67.5q0 -35 -19 -59.5t-48 -35.5v-1q79 -31 79 -104zM234 155q0 20 -16.5 38t-47.5 18q-30 0 -45 -18t-15 -39q0 -47 68 -74
q56 22 56 75zM240 -38q0 60 -84 86q-32 -15 -47.5 -35t-15.5 -52q0 -23 21 -42.5t55 -19.5q32 0 51.5 20t19.5 43z" />
    <glyph glyph-name="nine.inferior" unicode="&#x2089;" 
d="M299 116q0 -117 -57.5 -190.5t-180.5 -73.5v46q79 0 124 44.5t52 99.5h-2q-29 -39 -83 -39t-88 31.5t-34 88.5q0 56 36.5 94t93.5 38q62 0 100.5 -38.5t38.5 -100.5zM242 121q0 37 -23.5 62t-58.5 25q-32 0 -52 -24t-20 -59q0 -37 20.5 -57t52.5 -20q26 0 48.5 14.5
t29.5 36.5q3 11 3 22z" />
    <glyph glyph-name="plus.inferior" unicode="&#x208a;" 
d="M303 6h-118v-112h-38v112h-117v35h117v110h38v-110h118v-35z" />
    <glyph glyph-name="minus.inferior" unicode="&#x208b;" 
d="M30 6v35h273v-35h-273z" />
    <glyph glyph-name="equal.inferior" unicode="&#x208c;" 
d="M30 -40v35h273v-35h-273zM30 52v35h273v-35h-273z" />
    <glyph glyph-name="parenleft.inferior" unicode="&#x208d;" horiz-adv-x="201" 
d="M70 26q0 144 102 257l32 -20q-42 -57 -63.5 -111.5t-21.5 -125.5q0 -124 85 -236l-32 -22q-102 115 -102 258z" />
    <glyph glyph-name="parenright.inferior" unicode="&#x208e;" horiz-adv-x="201" 
d="M131 26q0 -144 -103 -258l-31 22q86 114 86 236q0 70 -22 124.5t-64 112.5l31 20q103 -112 103 -257z" />
    <glyph glyph-name="Euro" unicode="&#x20ac;" horiz-adv-x="502" 
d="M13 364v46h65q18 116 86 186t172 70q71 0 137 -25v-124h-44l-14 75q-33 12 -80 12q-71 0 -120 -54t-65 -140h228v-46h-235q-1 -12 -1 -33v-22h209v-45h-203q12 -94 62 -152.5t126 -58.5q71 0 142 23l17 -58q-89 -27 -159 -27q-109 0 -178 74t-83 199h-62v45h59
q-1 11 -1 24q0 18 2 31h-60z" />
    <glyph glyph-name="afii61289" unicode="&#x2113;" horiz-adv-x="394" 
d="M54 153l-26 44q35 24 80 61v239q0 53 10 93t39.5 68.5t75.5 28.5q56 0 84.5 -40.5t28.5 -107.5q0 -75 -49 -162t-119 -140v-77q0 -109 58 -109q41 0 77 20l21 -52q-15 -11 -45.5 -19.5t-58.5 -8.5q-122 0 -122 157v44q-34 -27 -54 -39zM178 498v-191q47 44 76.5 105.5
t29.5 120.5q0 41 -15 67.5t-36 26.5q-55 0 -55 -129z" />
    <glyph glyph-name="afii61352" unicode="&#x2116;" horiz-adv-x="1008" 
d="M713 271v40h254v-40h-254zM975 499q0 -70 -37 -112t-98 -42t-98.5 42t-37.5 112t37.5 111.5t98.5 41.5t98 -41.5t37 -111.5zM921 499q0 52 -21.5 81t-59.5 29t-60 -29t-22 -81t22 -81t60 -29t59.5 29t21.5 81zM597 0h-66l-219 351q-84 137 -121 203h-2q4 -76 4 -202v-298
l80 -14v-40h-235v40l82 14v572l-82 14v40h148l221 -354q78 -125 118 -200h2q-3 43 -3 203v297l-80 14v40h234v-40l-81 -14v-626z" />
    <glyph glyph-name="trademark" unicode="&#x2122;" horiz-adv-x="681" 
d="M222 635h-63v-219l47 -11v-25h-143v25l47 11v219h-62l-9 -54h-29v99h250v-99h-29zM656 380h-143v25l47 11v107q0 38 2 70h-2q-9 -20 -36 -61l-44 -67h-22l-43 66q-28 46 -37 64h-2q2 -22 2 -73v-106l46 -11v-25h-142v25l47 11v228l-47 11v25h92l50 -80q34 -54 44 -77h2
q8 18 43 76l51 81h92v-25l-47 -11v-228l47 -11v-25z" />
    <glyph glyph-name="Omega" unicode="&#x2126;" horiz-adv-x="683" 
d="M28 0v145h45l14 -82h124v2q-62 43 -102 118t-40 174q0 155 73.5 244t199.5 89q125 0 199 -89.5t74 -243.5q0 -98 -41.5 -172.5t-105.5 -119.5v-2h129l13 82h45v-145h-271v53q156 108 156 297q0 130 -54 203t-144 73q-91 0 -145 -73.5t-54 -202.5q0 -192 152 -297v-53
h-267z" />
    <glyph glyph-name="estimated" unicode="&#x212e;" horiz-adv-x="822" 
d="M408 629q-61 0 -122 -26t-100 -66q-11 -11 -11 -22v-159q0 -4 3.5 -8t8.5 -4h448q5 0 8.5 4t3.5 8v160q0 10 -15 25q-40 38 -103 63t-121 25zM45 329q0 142 103.5 240t259.5 98q158 0 263.5 -97.5t105.5 -236.5v-16h-590q-5 0 -8.5 -3.5t-3.5 -8.5v-155q0 -11 10 -25
q31 -40 93.5 -68t129.5 -28q64 0 127 28t102 71h74q-43 -56 -130 -96.5t-173 -40.5q-156 0 -259.5 98t-103.5 240z" />
    <glyph glyph-name="onethird" unicode="&#x2153;" horiz-adv-x="746" 
d="M241 269h-177v28l63 11v298l-2 2l-72 -38l-16 32l100 55h46v-349l58 -11v-28zM689 123q0 -59 -49.5 -94.5t-120.5 -35.5q-33 0 -72 11l11 48q38 -10 60 -10q46 0 80 20.5t34 60.5q0 29 -19.5 48t-47.5 19l-27 -3l-6 37q43 7 62 24t19 49q0 26 -18.5 38t-43.5 12
q-28 0 -55 -15l-11 -46h-36v73q56 35 105 35q51 0 83 -22.5t32 -67.5q0 -66 -53 -86v-2q32 -5 52.5 -30.5t20.5 -62.5zM568 667l-360 -677h-50l359 677h51z" />
    <glyph glyph-name="twothirds" unicode="&#x2154;" horiz-adv-x="746" 
d="M291 269h-254v26q0 80 56 140q19 20 54 41t55 39.5t20 45.5q0 23 -16.5 38.5t-53.5 15.5q-29 0 -55 -11l-11 -41h-36v73q55 28 112 28q56 0 87 -27t31 -74q0 -37 -18.5 -61.5t-57 -48.5t-49.5 -34q-57 -51 -61 -102v-2h150l11 45h36v-91zM717 123q0 -59 -49.5 -94.5
t-120.5 -35.5q-33 0 -72 11l11 48q38 -10 60 -10q46 0 80 20.5t34 60.5q0 29 -19.5 48t-47.5 19l-27 -3l-6 37q43 7 62 24t19 49q0 26 -18.5 38t-43.5 12q-28 0 -55 -15l-11 -46h-36v73q56 35 105 35q51 0 83 -22.5t32 -67.5q0 -66 -53 -86v-2q32 -5 52.5 -30.5t20.5 -62.5z
M599 667l-360 -677h-50l359 677h51z" />
    <glyph glyph-name="oneeighth" unicode="&#x215b;" horiz-adv-x="746" 
d="M241 269h-177v28l63 11v298l-2 2l-72 -38l-16 32l100 55h46v-349l58 -11v-28zM699 99q0 -44 -35.5 -75.5t-93.5 -31.5q-57 0 -93.5 31.5t-36.5 74.5q0 73 83 107v1q-63 35 -63 92q0 39 31 68t81 29q51 0 83 -28.5t32 -67.5q0 -35 -19 -59.5t-48 -35.5v-1q79 -31 79 -104z
M637 295q0 20 -16.5 38t-47.5 18q-30 0 -45 -18t-15 -39q0 -47 68 -74q56 22 56 75zM643 102q0 60 -84 86q-32 -15 -47.5 -35t-15.5 -52q0 -23 21 -42.5t55 -19.5q32 0 51.5 20t19.5 43zM574 667l-360 -677h-50l359 677h51z" />
    <glyph glyph-name="threeeighths" unicode="&#x215c;" horiz-adv-x="746" 
d="M296 392q0 -59 -49.5 -94.5t-120.5 -35.5q-33 0 -72 11l11 48q38 -10 60 -10q46 0 80 20.5t34 60.5q0 29 -19.5 48t-47.5 19l-27 -3l-6 37q43 7 62 24t19 49q0 26 -18.5 38t-43.5 12q-28 0 -55 -15l-11 -46h-36v73q56 35 105 35q51 0 83 -22.5t32 -67.5q0 -66 -53 -86v-2
q32 -5 52.5 -30.5t20.5 -62.5zM718 99q0 -44 -35.5 -75.5t-93.5 -31.5q-57 0 -93.5 31.5t-36.5 74.5q0 73 83 107v1q-63 35 -63 92q0 39 31 68t81 29q51 0 83 -28.5t32 -67.5q0 -35 -19 -59.5t-48 -35.5v-1q79 -31 79 -104zM656 295q0 20 -16.5 38t-47.5 18q-30 0 -45 -18
t-15 -39q0 -47 68 -74q56 22 56 75zM662 102q0 60 -84 86q-32 -15 -47.5 -35t-15.5 -52q0 -23 21 -42.5t55 -19.5q32 0 51.5 20t19.5 43zM590 667l-360 -677h-50l359 677h51z" />
    <glyph glyph-name="fiveeighths" unicode="&#x215d;" horiz-adv-x="746" 
d="M295 402q0 -60 -50 -100t-120 -40q-45 0 -89 11l13 48q44 -10 74 -10q45 0 80 27t35 64q0 68 -74 68q-33 0 -74 -27l-40 26l27 188h184v-46h-136l-17 -118h2q28 24 73 24q56 0 84 -32.5t28 -82.5zM697 99q0 -44 -35.5 -75.5t-93.5 -31.5q-57 0 -93.5 31.5t-36.5 74.5
q0 73 83 107v1q-63 35 -63 92q0 39 31 68t81 29q51 0 83 -28.5t32 -67.5q0 -35 -19 -59.5t-48 -35.5v-1q79 -31 79 -104zM635 295q0 20 -16.5 38t-47.5 18q-30 0 -45 -18t-15 -39q0 -47 68 -74q56 22 56 75zM641 102q0 60 -84 86q-32 -15 -47.5 -35t-15.5 -52
q0 -23 21 -42.5t55 -19.5q32 0 51.5 20t19.5 43zM573 667l-360 -677h-50l359 677h51z" />
    <glyph glyph-name="seveneighths" unicode="&#x215e;" horiz-adv-x="746" 
d="M292 613q-121 -165 -121 -344h-55q0 94 32.5 185t81.5 155v2h-133l-10 -43h-36v89h241v-44zM686 99q0 -44 -35.5 -75.5t-93.5 -31.5q-57 0 -93.5 31.5t-36.5 74.5q0 73 83 107v1q-63 35 -63 92q0 39 31 68t81 29q51 0 83 -28.5t32 -67.5q0 -35 -19 -59.5t-48 -35.5v-1
q79 -31 79 -104zM624 295q0 20 -16.5 38t-47.5 18q-30 0 -45 -18t-15 -39q0 -47 68 -74q56 22 56 75zM630 102q0 60 -84 86q-32 -15 -47.5 -35t-15.5 -52q0 -23 21 -42.5t55 -19.5q32 0 51.5 20t19.5 43zM550 667l-360 -677h-50l359 677h51z" />
    <glyph glyph-name="uni2190" unicode="&#x2190;" horiz-adv-x="917" 
d="M295 513l47 -47l-161 -158h667v-62h-667l161 -159l-47 -46l-236 236z" />
    <glyph glyph-name="uni2191" unicode="&#x2191;" horiz-adv-x="590" 
d="M531 435l-46 -46l-156 158v-665h-68v665l-155 -158l-47 46l236 236z" />
    <glyph glyph-name="uni2192" unicode="&#x2192;" horiz-adv-x="917" 
d="M576 466l46 47l236 -236l-236 -236l-46 46l161 159h-668v62h668z" />
    <glyph glyph-name="uni2193" unicode="&#x2193;" horiz-adv-x="590" 
d="M485 165l46 -47l-236 -236l-236 236l47 47l155 -159v665h68v-665z" />
    <glyph glyph-name="uni2194" unicode="&#x2194;" horiz-adv-x="1060" 
d="M295 513l47 -47l-161 -158h699l-162 158l47 47l236 -236l-236 -236l-47 46l162 159h-699l161 -159l-47 -46l-236 236z" />
    <glyph glyph-name="uni2195" unicode="&#x2195;" horiz-adv-x="590" 
d="M59 45l47 47l155 -159v681l-155 -159l-47 47l236 242l236 -242l-46 -47l-156 159v-681l156 159l46 -47l-236 -236z" />
    <glyph glyph-name="uni2196" unicode="&#x2196;" horiz-adv-x="731" 
d="M424 556v-65l-226 1l472 -472l-45 -44l-471 472l1 -226h-65v334h334z" />
    <glyph glyph-name="uni2197" unicode="&#x2197;" horiz-adv-x="731" 
d="M307 491v65h334v-334h-65l1 226l-472 -472l-44 44l472 472z" />
    <glyph glyph-name="uni2198" unicode="&#x2198;" horiz-adv-x="731" 
d="M576 308h65v-333h-334v65l226 -1l-472 471l44 45l472 -473z" />
    <glyph glyph-name="uni2199" unicode="&#x2199;" horiz-adv-x="731" 
d="M424 40v-65h-334v333h65l-1 -226l471 473l45 -45l-472 -471z" />
    <glyph glyph-name="partialdiff" unicode="&#x2202;" horiz-adv-x="536" 
d="M119 194q0 -58 37 -99t94 -41q50 0 88.5 42.5t52.5 106.5q0 2 1.5 8.5t1.5 10.5q-5 57 -44 99.5t-88 42.5q-69 0 -106 -47.5t-37 -122.5zM45 195q0 99 55 166t149 67q58 0 100 -31t60 -89h2q1 10 1 32q-1 123 -59 204.5t-148 81.5q-52 0 -100 -24l-23 59q60 29 130 29
q121 0 196.5 -102.5t75.5 -260.5q0 -141 -63 -239t-169 -98q-93 0 -150 58.5t-57 146.5z" />
    <glyph glyph-name="Delta" unicode="&#x2206;" horiz-adv-x="542" 
d="M516 0h-489v54l202 626h85l202 -626v-54zM97 60h348l-101 313q-45 137 -72 239h-2q-22 -77 -72 -239z" />
    <glyph glyph-name="product" unicode="&#x220f;" horiz-adv-x="605" 
d="M248 -90h-232v40l81 14v639l-81 14v40h573v-40l-81 -14v-639l81 -14v-40h-232v40l78 14v630h-265v-630l78 -14v-40z" />
    <glyph glyph-name="summation" unicode="&#x2211;" horiz-adv-x="481" 
d="M458 -90h-413v58l222 330l-223 301v58h392v-145h-45l-13 82h-258v-2l224 -295l-225 -322v-2h280l14 87h45v-150z" />
    <glyph glyph-name="minus" unicode="&#x2212;" horiz-adv-x="502" 
d="M464 251h-426v52h426v-52z" />
    <glyph glyph-name="uni2215" unicode="&#x2215;" horiz-adv-x="142" 
d="M276 667l-360 -677h-50l359 677h51z" />
    <glyph glyph-name="uni2219" unicode="&#x2219;" horiz-adv-x="201" 
d="M49 279q0 22 15 38t36 16q22 0 37 -15.5t15 -38.5q0 -22 -15 -37.5t-37 -15.5q-21 0 -36 15.5t-15 37.5z" />
    <glyph glyph-name="radical" unicode="&#x221a;" horiz-adv-x="605" 
d="M597 800l-273 -865h-51l-151 456l-86 -30l-17 49l150 55l78 -254q39 -128 54 -189h2q25 103 53 194l178 584h63z" />
    <glyph glyph-name="infinity" unicode="&#x221e;" horiz-adv-x="745" 
d="M40 276q0 64 47 106t112 42q53 0 91.5 -28.5t80.5 -81.5h2q40 51 80 80.5t93 29.5q65 0 112 -42.5t47 -105.5t-47 -105t-112 -42q-53 0 -93 30t-80 80h-2q-40 -51 -79.5 -80.5t-92.5 -29.5q-65 0 -112 41.5t-47 105.5zM101 276q0 -43 30 -69t69 -26q36 0 66 24.5t68 70.5
q-38 47 -68 71t-66 24q-39 0 -69 -26t-30 -69zM411 277v-1q27 -33 43 -49.5t41 -31t51 -14.5q39 0 68.5 26t29.5 69t-29.5 69t-68.5 26q-37 0 -66.5 -23.5t-68.5 -70.5z" />
    <glyph glyph-name="integral" unicode="&#x222b;" horiz-adv-x="349" 
d="M-6 -197l18 52q47 -17 71 -17q23 0 39 20t16 48v705q0 49 33.5 83.5t80.5 34.5q54 0 100 -19l-19 -52q-33 13 -73 13q-22 0 -37.5 -20t-15.5 -48v-705q0 -49 -33.5 -83.5t-82.5 -34.5q-39 0 -97 23z" />
    <glyph glyph-name="approxequal" unicode="&#x2248;" horiz-adv-x="502" 
d="M464 357q-79 -66 -134 -66q-42 0 -87 29.5t-71 29.5q-34 0 -105 -54l-28 40q77 66 134 66q41 0 85.5 -29.5t71.5 -29.5q36 0 105 54zM464 215q-78 -67 -134 -67q-42 0 -87 30t-71 30q-35 0 -105 -55l-28 41q77 66 134 66q41 0 85.5 -29.5t71.5 -29.5q38 0 105 54z" />
    <glyph glyph-name="notequal" unicode="&#x2260;" horiz-adv-x="502" 
d="M38 328v52h259l73 101h54l-73 -101h113v-52h-149l-74 -102h223v-52h-259l-73 -102h-54l74 102h-114v52h149l74 102h-223z" />
    <glyph glyph-name="lessequal" unicode="&#x2264;" horiz-adv-x="502" 
d="M454 67l-406 183v55l406 183v-55l-359 -154v-2l359 -155v-55zM454 -22h-406v46h406v-46z" />
    <glyph glyph-name="greaterequal" unicode="&#x2265;" horiz-adv-x="502" 
d="M454 -22h-406v46h406v-46zM454 250l-406 -183v55l358 155v2l-358 154v55l406 -183v-55z" />
    <glyph glyph-name="uni25A0" unicode="&#x25a0;" horiz-adv-x="593" 
d="M126 489h341v-350h-341v350z" />
    <glyph glyph-name="uni25B2" unicode="&#x25b2;" horiz-adv-x="636" 
d="M587 67h-538l269 488z" />
    <glyph glyph-name="uni25B3" unicode="&#x25b3;" horiz-adv-x="636" 
d="M587 67h-538l269 488zM143 119h350l-175 317z" />
    <glyph glyph-name="uni25B6" unicode="&#x25b6;" horiz-adv-x="636" 
d="M82 49v538l488 -269z" />
    <glyph glyph-name="uni25B7" unicode="&#x25b7;" horiz-adv-x="636" 
d="M82 49v538l488 -269zM142 491v-349l314 176z" />
    <glyph glyph-name="uni25BC" unicode="&#x25bc;" horiz-adv-x="636" 
d="M49 545h538l-269 -489z" />
    <glyph glyph-name="uni25BD" unicode="&#x25bd;" horiz-adv-x="636" 
d="M49 545h538l-269 -489zM493 493h-350l175 -318z" />
    <glyph glyph-name="uni25C0" unicode="&#x25c0;" horiz-adv-x="636" 
d="M568 587v-538l-488 269z" />
    <glyph glyph-name="uni25C1" unicode="&#x25c1;" horiz-adv-x="636" 
d="M568 587v-538l-488 269zM508 145v348l-314 -175z" />
    <glyph glyph-name="uni25C6" unicode="&#x25c6;" horiz-adv-x="593" 
d="M59 314l241 244l240 -244l-240 -245z" />
    <glyph glyph-name="uni25C9" unicode="&#x25c9;" horiz-adv-x="593" 
d="M58 315q0 102 70.5 174.5t167.5 72.5q99 0 169 -72.5t70 -174.5q0 -100 -70.5 -172.5t-168.5 -72.5t-168 72t-70 173zM115 315q0 -79 53.5 -136.5t127.5 -57.5q76 0 129 57.5t53 136.5q0 80 -53.5 138t-128.5 58q-76 0 -128.5 -58t-52.5 -138zM209 315q0 41 25 68t62 27
q38 0 63 -27t25 -68q0 -40 -25 -67.5t-63 -27.5t-62.5 27.5t-24.5 67.5z" />
    <glyph glyph-name="lozenge" unicode="&#x25ca;" horiz-adv-x="533" 
d="M246 0l-232 328l234 329h39l232 -329l-234 -328h-39zM81 328l128 -183q32 -43 56 -88h2q38 64 57 89l128 182l-130 186q-28 38 -55 86h-2q-11 -22 -55 -87z" />
    <glyph glyph-name="uni25CB" unicode="&#x25cb;" horiz-adv-x="593" 
d="M58 315q0 102 70.5 174.5t167.5 72.5q99 0 169 -72.5t70 -174.5q0 -100 -70.5 -172.5t-168.5 -72.5t-168 72t-70 173zM115 315q0 -79 53.5 -136.5t127.5 -57.5q76 0 129 57.5t53 136.5q0 80 -53.5 138t-128.5 58q-76 0 -128.5 -58t-52.5 -138z" />
    <glyph glyph-name="uni25CE" unicode="&#x25ce;" horiz-adv-x="593" 
d="M257 315q0 -21 11 -36t28 -15q18 0 29 15t11 36q0 22 -11 36.5t-29 14.5q-17 0 -28 -14.5t-11 -36.5zM58 315q0 102 70.5 174.5t167.5 72.5q99 0 169 -72.5t70 -174.5q0 -100 -70.5 -172.5t-168.5 -72.5t-168 72t-70 173zM115 315q0 -79 53.5 -136.5t127.5 -57.5
q76 0 129 57.5t53 136.5q0 80 -53.5 138t-128.5 58q-76 0 -128.5 -58t-52.5 -138zM209 315q0 41 25 68t62 27q38 0 63 -27t25 -68q0 -40 -25 -67.5t-63 -27.5t-62.5 27.5t-24.5 67.5z" />
    <glyph glyph-name="uni25CF" unicode="&#x25cf;" horiz-adv-x="593" 
d="M58 315q0 102 70.5 174.5t167.5 72.5q99 0 169 -72.5t70 -174.5q0 -100 -70.5 -172.5t-168.5 -72.5t-168 72t-70 173z" />
    <glyph glyph-name="uni2610" unicode="&#x2610;" horiz-adv-x="819" 
d="M105 33v619h609v-619h-609zM181 581v-477h457v477h-457z" />
    <glyph glyph-name="uni2611" unicode="&#x2611;" horiz-adv-x="819" 
d="M201 253l50 72l104 -71l191 278l67 -45l-239 -351zM105 33v619h609v-619h-609zM181 581v-477h457v477h-457z" />
    <glyph glyph-name="uni2612" unicode="&#x2612;" horiz-adv-x="819" 
d="M231 474l52 53l126 -130l126 130l52 -53l-127 -130l127 -130l-52 -53l-126 130l-126 -130l-52 53l127 130zM105 33v619h609v-619h-609zM181 581v-477h457v477h-457z" />
    <glyph glyph-name="grave.cap" unicode="&#xe000;" horiz-adv-x="417" 
d="M263 743h-63l-155 109h97z" />
    <glyph glyph-name="grave.sc" unicode="&#xe001;" horiz-adv-x="417" 
d="M251 594h-57l-124 119h90z" />
    <glyph glyph-name="acute.cap" unicode="&#xe002;" horiz-adv-x="417" 
d="M225 743h-63l121 109h98z" />
    <glyph glyph-name="acute.sc" unicode="&#xe003;" horiz-adv-x="417" 
d="M224 594h-57l90 119h90z" />
    <glyph glyph-name="circumflex.cap" unicode="&#xe004;" horiz-adv-x="417" 
d="M130 743h-76l125 109h58l126 -109h-76l-78 78h-2z" />
    <glyph glyph-name="circumflex.sc" unicode="&#xe005;" horiz-adv-x="417" 
d="M144 594h-63l101 119h54l101 -119h-64l-63 86h-2z" />
    <glyph glyph-name="caron.cap" unicode="&#xe006;" horiz-adv-x="417" 
d="M54 852h76l77 -77h2l78 77h76l-126 -109h-58z" />
    <glyph glyph-name="caron.sc" unicode="&#xe007;" horiz-adv-x="417" 
d="M81 713h63l64 -86h2l63 86h64l-101 -119h-54z" />
    <glyph glyph-name="caron.alt" unicode="&#xe008;" horiz-adv-x="417" 
d="M220 739l60 8q1 -4 1 -14q0 -39 -21.5 -82.5t-55.5 -76.5l-30 6q47 80 47 143q0 11 -1 16z" />
    <glyph glyph-name="tilde.cap" unicode="&#xe009;" horiz-adv-x="417" 
d="M364 795q-22 -17 -34 -24.5t-30.5 -14t-37.5 -6.5q-28 0 -59 19.5t-50 19.5q-6 0 -12 -1.5t-10.5 -2.5t-11.5 -5t-10.5 -6.5t-13 -9t-14.5 -9.5l-27 40q31 23 51.5 33t47.5 10q29 0 60 -19t49 -19q26 0 72 34z" />
    <glyph glyph-name="tilde.sc" unicode="&#xe00a;" horiz-adv-x="417" 
d="M349 653q-28 -25 -47.5 -36t-44.5 -11t-53.5 20.5t-45.5 20.5q-10 0 -21.5 -6t-16.5 -10t-26 -21l-25 42q20 17 30.5 24.5t26 14t32.5 6.5q26 0 54.5 -20t44.5 -20q15 0 27 7t37 28z" />
    <glyph glyph-name="dieresis.cap" unicode="&#xe00b;" horiz-adv-x="417" 
d="M55 795q0 19 13.5 32.5t33.5 13.5t33.5 -13.5t13.5 -32.5t-14 -32.5t-33 -13.5t-33 13.5t-14 32.5zM268 795q0 19 13.5 32.5t33.5 13.5t33.5 -13.5t13.5 -32.5t-14 -32.5t-33 -13.5t-33 13.5t-14 32.5z" />
    <glyph glyph-name="dieresis.sc" unicode="&#xe00c;" horiz-adv-x="417" 
d="M71 652q0 20 13.5 33.5t33.5 13.5t33.5 -13.5t13.5 -33.5q0 -18 -14 -32t-33 -14t-33 14t-14 32zM252 652q0 20 14 33.5t33 13.5q20 0 34 -14t14 -33q0 -18 -14.5 -32t-33.5 -14t-33 14t-14 32z" />
    <glyph glyph-name="macron.cap" unicode="&#xe00d;" horiz-adv-x="417" 
d="M78 772v47h262v-47h-262z" />
    <glyph glyph-name="macron.sc" unicode="&#xe00e;" horiz-adv-x="417" 
d="M78 629v47h262v-47h-262z" />
    <glyph glyph-name="breve.cap" unicode="&#xe00f;" horiz-adv-x="417" 
d="M88 852h46q3 -26 25 -44.5t50 -18.5t49.5 18.5t24.5 44.5h47q0 -43 -35.5 -73t-85.5 -30t-85.5 30t-35.5 73z" />
    <glyph glyph-name="breve.sc" unicode="&#xe010;" horiz-adv-x="417" 
d="M88 706h46q3 -27 25 -45.5t50 -18.5t49.5 18.5t24.5 45.5h47q0 -44 -35.5 -75t-85.5 -31t-85.5 31t-35.5 75z" />
    <glyph glyph-name="ring.cap" unicode="&#xe011;" horiz-adv-x="417" 
d="M118 805q0 40 26.5 67.5t64.5 27.5t64.5 -27.5t26.5 -67.5t-26.5 -67.5t-64.5 -27.5t-64.5 27.5t-26.5 67.5zM160 805q0 -24 14 -40.5t35 -16.5q19 0 33.5 16.5t14.5 40.5t-14.5 40.5t-33.5 16.5q-21 0 -35 -16.5t-14 -40.5z" />
    <glyph glyph-name="ring.sc" unicode="&#xe012;" horiz-adv-x="417" 
d="M118 660q0 40 26.5 67.5t64.5 27.5t64.5 -27.5t26.5 -67.5t-26.5 -67.5t-64.5 -27.5t-64.5 27.5t-26.5 67.5zM160 660q0 -24 14 -40t35 -16q19 0 33.5 16t14.5 40t-14.5 40.5t-33.5 16.5q-21 0 -35 -16.5t-14 -40.5z" />
    <glyph glyph-name="hungarumlaut.cap" unicode="&#xe013;" horiz-adv-x="417" 
d="M290 743h-62l121 109h96zM151 743h-62l121 109h97z" />
    <glyph glyph-name="hungarumlaut.sc" unicode="&#xe014;" horiz-adv-x="417" 
d="M156 594h-51l94 122h83zM292 594h-51l94 122h83z" />
    <glyph glyph-name="dotaccent.cap" unicode="&#xe015;" horiz-adv-x="417" 
d="M158 794q0 20 15 34.5t36 14.5q20 0 34.5 -14.5t14.5 -34.5t-14.5 -35t-34.5 -15q-21 0 -36 15t-15 35z" />
    <glyph glyph-name="dotaccent.sc" unicode="&#xe016;" horiz-adv-x="417" 
d="M158 651q0 20 15 34.5t36 14.5q20 0 34.5 -14.5t14.5 -34.5t-14.5 -35t-34.5 -15q-21 0 -36 15t-15 35z" />
    <glyph glyph-name="commaaccent" unicode="&#xe017;" horiz-adv-x="417" 
d="M249 -40q1 -4 1 -13q0 -33 -23 -70t-59 -66l-27 14q41 50 41 113q0 10 -1 14z" />
    <glyph glyph-name="commaaccent.alt" unicode="&#xe01a;" horiz-adv-x="417" 
d="M208 565q-1 3 -1 11q0 30 22 63t58 60l25 -12q-40 -46 -40 -102q0 -9 1 -14z" />
    <glyph glyph-name="cedilla.cap" unicode="&#xe022;" horiz-adv-x="417" 
d="M295 -130q0 -40 -29.5 -64.5t-74.5 -24.5q-46 0 -82 18l16 38q35 -14 62 -14q25 0 40.5 12t15.5 33q0 20 -14.5 31t-32 14.5t-51.5 5.5l31 89h48l-20 -51v-2q39 -4 65 -26.5t26 -58.5z" />
    <glyph glyph-name="cedilla.sc" unicode="&#xe023;" horiz-adv-x="417" 
d="M295 -130q0 -40 -29.5 -64.5t-74.5 -24.5q-46 0 -82 18l16 38q35 -14 62 -14q25 0 40.5 12t15.5 33q0 20 -14.5 31t-32 14.5t-51.5 5.5l31 89h48l-20 -51v-2q39 -4 65 -26.5t26 -58.5z" />
    <glyph glyph-name="ogonek.cap" unicode="&#xe024;" horiz-adv-x="417" 
d="M89 -133q0 36 29 73.5t70 62.5h52q-38 -28 -64 -63t-26 -63q0 -20 10.5 -34.5t25.5 -14.5q19 0 32 4l9 -44q-25 -7 -48 -7q-39 0 -64.5 22t-25.5 64z" />
    <glyph glyph-name="ogonek.sc" unicode="&#xe025;" horiz-adv-x="417" 
d="M87 -133q0 36 29 73.5t70 62.5h52q-38 -28 -64 -63t-26 -63q0 -20 10.5 -34.5t25.5 -14.5q19 0 32 4l9 -44q-25 -7 -48 -7q-39 0 -64.5 22t-25.5 64z" />
    <glyph glyph-name="A.sc" unicode="&#xe4c3;" horiz-adv-x="546" 
d="M8 0l-1 40l66 13l159 465h81l159 -465l67 -13v-40h-196v40l63 13l-32 92h-206l-31 -92l64 -13v-40h-193zM185 201h172l-24 73q-46 135 -60 191h-2q-25 -84 -62 -192z" />
    <glyph glyph-name="A.superior" unicode="&#xe4c5;" horiz-adv-x="397" 
d="M393 269h-146v32l45 7l-23 69h-141l-24 -69l45 -7v-32h-144v31l44 8l116 349h68l116 -349l44 -8v-31zM139 422h118l-30 94q-6 17 -12 37.5t-11 37.5t-6 20h-1q-9 -36 -28 -96z" />
    <glyph glyph-name="B.sc" unicode="&#xe4ce;" horiz-adv-x="533" 
d="M494 152q0 -69 -43 -110.5t-124 -41.5h-287v40l80 13v412l-80 13v40h260q75 0 119 -36t44 -93q0 -67 -62 -105v-2q43 -17 68 -51t25 -79zM393 386q0 35 -26.5 56.5t-72.5 21.5h-103v-160h114q41 0 64.5 24t23.5 58zM422 154q0 42 -30 68.5t-76 26.5h-125v-192h128
q49 0 76 26t27 71z" />
    <glyph glyph-name="B.superior" unicode="&#xe4d0;" horiz-adv-x="389" 
d="M359 383q0 -52 -32 -83t-94 -31h-202v31l48 8v310l-48 8v31h183q56 0 88.5 -27t32.5 -71q0 -46 -45 -77v-1q69 -35 69 -98zM280 557q0 23 -19 38.5t-51 15.5h-74v-114h81q29 0 46 18t17 42zM301 386q0 28 -21.5 47t-54.5 19h-89v-135h92q34 0 53.5 19.5t19.5 49.5z" />
    <glyph glyph-name="C.sc" unicode="&#xe4d9;" horiz-adv-x="469" 
d="M292 -9q-115 0 -179 68.5t-64 193.5q0 126 67 200.5t178 74.5q66 0 123 -19v-121h-44l-13 67q-31 11 -67 11q-77 0 -124 -58t-47 -154q0 -95 45 -148t125 -53q70 0 125 20l20 -58q-72 -24 -145 -24z" />
    <glyph glyph-name="C.superior" unicode="&#xe4db;" horiz-adv-x="344" 
d="M306 327l12 -48q-55 -15 -102 -15q-85 0 -133 50.5t-48 142.5q0 93 51 149t134 56q45 0 85 -15v-81h-35l-12 41q-23 5 -38 5q-55 0 -91 -43t-36 -111t32.5 -106t89.5 -38q45 0 91 13z" />
    <glyph glyph-name="D.sc" unicode="&#xe4e4;" horiz-adv-x="572" 
d="M523 261q0 -123 -65 -192t-179 -69h-239v40l80 13v412l-80 13v40h242q109 0 175 -68.5t66 -188.5zM451 259q0 93 -47 146t-126 53h-87v-398h87q80 0 126.5 52.5t46.5 146.5z" />
    <glyph glyph-name="D.superior" unicode="&#xe4e6;" horiz-adv-x="417" 
d="M383 465q0 -92 -49 -144t-135 -52h-168v31l48 8v310l-48 8v31h170q82 0 132 -51.5t50 -140.5zM324 463q0 66 -34.5 106t-91.5 40h-62v-291h62q57 0 91.5 39t34.5 106z" />
    <glyph glyph-name="E.sc" unicode="&#xe4ef;" horiz-adv-x="510" 
d="M462 0h-422v40l80 14v411l-80 13v40h404v-120h-43l-13 63h-197v-164h173l10 55h40v-163h-40l-10 55h-173v-187h214l13 69h44v-126z" />
    <glyph glyph-name="E.superior" unicode="&#xe4f1;" horiz-adv-x="367" 
d="M334 269h-303v31l48 8v310l-48 8v31h291v-86h-37l-7 38h-142v-116h125l5 30h33v-104h-33l-4 30h-126v-131h154l8 42h36v-91z" />
    <glyph glyph-name="F.sc" unicode="&#xe4fa;" horiz-adv-x="470" 
d="M375 461h-184v-176h156l11 55h40v-164h-40l-11 55h-156v-178l85 -13v-40h-236v40l80 13v412l-80 13v40h391v-120h-43z" />
    <glyph glyph-name="F.superior" unicode="&#xe4fc;" horiz-adv-x="337" 
d="M269 609h-133v-126h115l7 29h32v-107h-32l-7 31h-115v-128l53 -8v-31h-158v31l48 8v310l-48 8v31h282v-86h-37z" />
    <glyph glyph-name="G.sc" unicode="&#xe505;" horiz-adv-x="559" 
d="M475 0h-45l-9 45h-2q-63 -55 -135 -55q-113 0 -174 69.5t-61 197.5q0 123 70 196.5t183 73.5q87 0 157 -28v-115h-43l-14 66q-45 15 -100 15q-79 0 -129.5 -56.5t-50.5 -151.5q0 -205 165 -205q58 0 124 45v96l-79 13v40h211v-39l-68 -14v-193z" />
    <glyph glyph-name="G.superior" unicode="&#xe507;" horiz-adv-x="406" 
d="M353 269h-37l-8 33h-2q-42 -38 -97 -38q-84 0 -129 51t-45 147q0 91 51.5 146t136.5 55q57 0 116 -21v-80h-36l-12 41q-27 10 -68 10q-57 0 -93.5 -42.5t-36.5 -108.5q0 -71 30.5 -109.5t88.5 -38.5q49 0 87 29v71l-50 7v31h145v-30l-41 -8v-145z" />
    <glyph glyph-name="H.sc" unicode="&#xe510;" horiz-adv-x="637" 
d="M597 0h-227v40l76 13v182h-255v-182l76 -13v-40h-227v40l80 13v412l-80 13v40h227v-40l-76 -13v-170h255v170l-76 13v40h227v-40l-81 -13v-412l81 -13v-40z" />
    <glyph glyph-name="H.superior" unicode="&#xe512;" horiz-adv-x="453" 
d="M422 269h-151v31l45 8v134h-180v-134l46 -8v-31h-151v31l48 8v310l-48 8v31h151v-31l-46 -8v-127h180v127l-44 8v31h150v-31l-48 -8v-310l48 -8v-31z" />
    <glyph glyph-name="I.sc" unicode="&#xe51b;" horiz-adv-x="311" 
d="M40 0v40l80 13v412l-80 13v40h231v-40l-80 -13v-412l80 -13v-40h-231z" />
    <glyph glyph-name="I.superior" unicode="&#xe51d;" horiz-adv-x="215" 
d="M184 269h-153v31l48 8v310l-48 8v31h153v-31l-48 -8v-310l48 -8v-31z" />
    <glyph glyph-name="J.sc" unicode="&#xe526;" horiz-adv-x="296" 
d="M187 465v-383q0 -56 -20 -88.5t-57 -62.5l-70 -56l-41 50l60 48q28 20 42.5 44t14.5 69v379l-80 13v40h231v-40z" />
    <glyph glyph-name="J.superior" unicode="&#xe528;" horiz-adv-x="212" 
d="M141 618v-288q0 -43 -15 -67t-43 -47l-53 -41l-35 38l46 37q15 12 21.5 19t13.5 23.5t7 39.5v286l-47 8v31h153v-31z" />
    <glyph glyph-name="K.sc" unicode="&#xe531;" horiz-adv-x="553" 
d="M553 0h-127l-114 182q-37 62 -54 89h-2l-65 -80v-138l78 -13v-40h-229v40l80 13v412l-80 13v40h221v-41l-70 -12v-192h2q11 15 77 92q10 11 40.5 47t48.5 55l-63 10v41h218v-40l-79 -12l-134 -149l170 -264l82 -13v-40z" />
    <glyph glyph-name="K.superior" unicode="&#xe533;" horiz-adv-x="400" 
d="M399 269h-92l-60 97q-54 92 -60 103h-1l-50 -60v-101l47 -8v-31h-152v31l48 8v310l-48 8v31h147v-32l-42 -7v-139h1q19 27 58 71q29 35 61 70l-37 6v31h148v-31l-48 -8l-98 -111l129 -199l49 -8v-31z" />
    <glyph glyph-name="L.sc" unicode="&#xe53c;" horiz-adv-x="457" 
d="M440 0h-400v40l80 13v412l-80 13v40h231v-40l-80 -13v-405h193l13 75h43v-135z" />
    <glyph glyph-name="L.superior" unicode="&#xe53e;" horiz-adv-x="329" 
d="M319 269h-288v31l48 8v310l-48 8v31h154v-31l-49 -8v-300h139l8 45h36v-94z" />
    <glyph glyph-name="M.sc" unicode="&#xe547;" horiz-adv-x="693" 
d="M652 0h-230v40l80 13v200q0 81 3 140h-2l-137 -245h-41l-135 245h-2q3 -69 3 -139v-201l79 -13v-40h-230v40l80 13v412l-80 13v40h146l98 -174q25 -42 61 -121h2q39 80 57 111l103 184h146v-39l-81 -13v-413l80 -13v-40z" />
    <glyph glyph-name="M.superior" unicode="&#xe549;" horiz-adv-x="498" 
d="M467 269h-154v31l48 8v123q0 83 2 127h-2l-98 -177h-29l-97 177h-2q1 -22 1 -127v-123l48 -8v-31h-153v31l48 8v310l-48 8v31h100l63 -110q24 -44 53 -102h2q36 69 54 101l63 111h101v-31l-49 -8v-310l49 -8v-31z" />
    <glyph glyph-name="N.sc" unicode="&#xe552;" horiz-adv-x="634" 
d="M525 0h-63l-188 277q-79 121 -85 132h-2q4 -68 4 -137v-219l77 -13v-40h-228v40l80 13v412l-80 13v40h144l176 -260q77 -112 96 -148h2q-4 56 -4 140v216l-77 13v39h228v-39l-80 -13v-466z" />
    <glyph glyph-name="N.superior" unicode="&#xe554;" horiz-adv-x="460" 
d="M381 269h-52l-122 183q-63 97 -71 111h-2q2 -22 2 -109v-146l47 -8v-31h-152v31l48 8v310l-48 8v31h100l123 -185q54 -81 70 -109h2q-2 15 -2 110v145l-47 8v31h152v-31l-48 -8v-349z" />
    <glyph glyph-name="O.sc" unicode="&#xe55d;" horiz-adv-x="568" 
d="M519 259q0 -125 -63.5 -197t-171.5 -72q-109 0 -172 72t-63 197t63.5 197.5t171.5 72.5q107 0 171 -72.5t64 -197.5zM447 259q0 95 -45 151.5t-118 56.5q-74 0 -118 -56t-44 -152t44 -151.5t118 -55.5q75 0 119 55.5t44 151.5z" />
    <glyph glyph-name="O.superior" unicode="&#xe55f;" horiz-adv-x="420" 
d="M385 463q0 -93 -47 -146.5t-128 -53.5q-82 0 -128.5 53.5t-46.5 146.5t47 146.5t128 53.5t128 -53.5t47 -146.5zM327 463q0 68 -32.5 109t-84.5 41q-53 0 -85 -40.5t-32 -109.5t31.5 -109.5t85.5 -40.5t85.5 40.5t31.5 109.5z" />
    <glyph glyph-name="P.sc" unicode="&#xe568;" horiz-adv-x="506" 
d="M479 366q0 -77 -47 -121.5t-130 -44.5h-111v-147l80 -13v-40h-231v40l80 13v412l-80 13v40h250q88 0 138.5 -40.5t50.5 -111.5zM409 364q0 42 -30.5 69t-86.5 27h-101v-201h111q53 0 80 31t27 74z" />
    <glyph glyph-name="P.superior" unicode="&#xe56a;" horiz-adv-x="366" 
d="M348 543q0 -58 -36 -91t-99 -33h-77v-111l48 -8v-31h-153v31l48 8v310l-48 8v31h174q67 0 105 -30.5t38 -83.5zM289 543q0 27 -22 46.5t-61 19.5h-70v-141h75q38 0 58 22.5t20 52.5z" />
    <glyph glyph-name="Q.sc" unicode="&#xe573;" horiz-adv-x="568" 
d="M519 260q0 -100 -40.5 -165.5t-110.5 -90.5q68 -35 139 -35q25 0 37 1l1 -54q-18 -3 -39 -3q-48 0 -88.5 10t-64 23t-54.5 27t-58 20q-33 4 -65 20t-61.5 46.5t-47.5 82.5t-18 118q0 125 64 197t172 72q106 0 170 -72.5t64 -196.5zM447 260q0 95 -44.5 151t-117.5 56
t-118 -56t-45 -151q0 -96 44 -152t119 -56t118.5 56t43.5 152z" />
    <glyph glyph-name="Q.superior" unicode="&#xe575;" horiz-adv-x="421" 
d="M386 463q0 -152 -117 -191q54 -34 110 -34q14 0 21 1l-1 -42q-8 -1 -25 -1q-61 0 -126.5 34.5t-89.5 39.5q-51 14 -87 59.5t-36 133.5q0 93 47.5 146.5t128.5 53.5q80 0 127.5 -54t47.5 -146zM327 463q0 69 -32 109.5t-84 40.5q-53 0 -85.5 -40.5t-32.5 -109.5
q0 -70 32 -110t86 -40q53 0 84.5 40t31.5 110z" />
    <glyph glyph-name="R.sc" unicode="&#xe57e;" horiz-adv-x="561" 
d="M556 0h-125l-127 226h-113v-173l77 -13v-40h-228v40l80 13v412l-80 13v40h262q85 0 129.5 -36.5t44.5 -103.5q0 -54 -28.5 -90.5t-81.5 -50.5v-2q14 -19 63 -100l49 -82l78 -13v-40zM405 378q0 40 -28.5 61.5t-79.5 21.5h-106v-178h106q60 0 84 27.5t24 67.5z" />
    <glyph glyph-name="R.superior" unicode="&#xe580;" horiz-adv-x="395" 
d="M394 269h-88l-91 168h-79v-129l46 -8v-31h-151v31l48 8v310l-48 8v31h182q132 0 132 -107q0 -40 -20.5 -67t-56.5 -37v-2q18 -30 32 -55l46 -81l48 -8v-31zM287 550q0 28 -20.5 43.5t-56.5 15.5h-74v-124h74q41 0 59 19.5t18 45.5z" />
    <glyph glyph-name="S.sc" unicode="&#xe589;" horiz-adv-x="445" 
d="M399 148q0 -72 -50.5 -114.5t-132.5 -42.5q-79 0 -172 32v118h44l14 -72q51 -18 114 -18q46 0 78.5 24.5t32.5 68.5q0 41 -30 62.5t-92 42.5q-30 9 -50.5 18t-45 25.5t-37 41t-12.5 56.5q0 62 47.5 99.5t124.5 37.5q60 0 124 -19v-114h-44l-13 66q-30 9 -67 9
q-45 0 -72.5 -22t-27.5 -57q0 -25 17 -42.5t34.5 -25t59.5 -20.5l18 -6q138 -43 138 -148z" />
    <glyph glyph-name="S.superior" unicode="&#xe58b;" horiz-adv-x="335" 
d="M301 381q0 -54 -37.5 -85.5t-102.5 -31.5q-55 0 -127 24v82h37l12 -46q41 -13 78 -13q33 0 57 18.5t24 48.5q0 26 -18.5 41.5t-57.5 26.5q-28 8 -44.5 14.5t-37.5 19.5t-31 32.5t-10 46.5q0 45 36.5 74t95.5 29q41 0 94 -15v-79h-36l-11 40q-30 7 -47 7q-33 0 -53 -15.5
t-20 -39.5q0 -17 12 -29t26.5 -18t43.5 -15q54 -16 85.5 -41.5t31.5 -75.5z" />
    <glyph glyph-name="T.sc" unicode="&#xe594;" horiz-adv-x="486" 
d="M405 458h-126v-405l80 -13v-40h-231v40l80 13v405h-127l-14 -70h-43v130h438v-130h-43z" />
    <glyph glyph-name="T.superior" unicode="&#xe596;" horiz-adv-x="354" 
d="M295 608h-90v-300l48 -8v-31h-154v31l48 8v300h-90l-6 -43h-37v92h326v-92h-37z" />
    <glyph glyph-name="U.sc" unicode="&#xe59f;" horiz-adv-x="605" 
d="M500 165q0 -82 -51.5 -128.5t-145.5 -46.5q-93 0 -145.5 46.5t-52.5 128.5v300l-80 13v40h225v-40l-74 -13v-296q0 -53 32 -85t95 -32q62 0 94.5 32t32.5 85v296l-75 13v40h225v-40l-80 -13v-300z" />
    <glyph glyph-name="U.superior" unicode="&#xe5a1;" horiz-adv-x="427" 
d="M360 395q0 -62 -38 -97t-108 -35t-109 35t-39 97v223l-48 8v31h151v-31l-45 -8v-219q0 -39 22.5 -62.5t67.5 -23.5t67 23.5t22 62.5v219l-46 8v31h151v-31l-48 -8v-223z" />
    <glyph glyph-name="V.sc" unicode="&#xe5aa;" horiz-adv-x="549" 
d="M466 465l-152 -465h-79l-152 465l-75 13v40h220v-40l-74 -13l59 -186q47 -154 61 -213h2q22 87 62 213l60 186l-74 13v40h217v-40z" />
    <glyph glyph-name="V.superior" unicode="&#xe5ac;" horiz-adv-x="382" 
d="M334 618l-109 -349h-67l-110 349l-44 8v31h147v-31l-45 -8l46 -149q31 -105 40 -145h1q7 39 40 145l45 149l-45 8v31h145v-31z" />
    <glyph glyph-name="W.sc" unicode="&#xe5b5;" horiz-adv-x="780" 
d="M698 465l-141 -465h-69l-65 247q-25 95 -31 131h-2q-6 -33 -31 -130l-66 -248h-69l-141 465l-75 13v40h222v-40l-75 -13l62 -210q33 -119 44 -167h2q31 140 42 181l64 249h46l64 -251q29 -118 42 -179h2q10 47 44 166l62 211l-75 13v40h218v-40z" />
    <glyph glyph-name="W.superior" unicode="&#xe5b7;" horiz-adv-x="553" 
d="M505 618l-105 -349h-56l-39 158q-18 64 -28 114h-1q-1 -12 -28 -116l-39 -156h-57l-104 349l-44 8v31h147v-31l-46 -8l37 -130q21 -76 39 -146h1q5 26 33 136l45 179h34l45 -175q27 -98 35 -140h1q8 39 35 136l40 140l-47 8v31h146v-31z" />
    <glyph glyph-name="X.sc" unicode="&#xe5c0;" horiz-adv-x="534" 
d="M28 518h215v-40l-70 -13l22 -34q44 -67 72 -118h2q12 23 75 124l18 29l-71 12v40h214v-40l-75 -13l-127 -192l144 -220l75 -13v-40h-219v40l73 13l-26 42q-26 36 -83 136h-2q-32 -59 -80 -130l-31 -48l73 -13v-40h-215v40l75 13l143 220l-127 192l-75 13v40z" />
    <glyph glyph-name="X.superior" unicode="&#xe5c2;" horiz-adv-x="385" 
d="M378 269h-153v31l43 7l-34 54q-33 54 -41 72h-2q-11 -22 -42 -73l-34 -53l43 -7v-31h-151v31l44 8l110 166l-95 144l-44 8v31h148v-31l-43 -7l24 -36q33 -55 41 -72h1q7 17 43 73l22 35l-42 7v31h148v-31l-44 -8l-97 -144l110 -166l45 -8v-31z" />
    <glyph glyph-name="Y.sc" unicode="&#xe5cb;" horiz-adv-x="519" 
d="M436 465l-140 -281v-131l80 -13v-40h-231v40l80 13v131l-142 281l-75 13v40h218v-40l-72 -14l18 -36q42 -86 87 -187h2q33 80 87 189l18 35l-73 13v40h218v-40z" />
    <glyph glyph-name="Y.superior" unicode="&#xe5cd;" horiz-adv-x="363" 
d="M315 618l-103 -213v-97l48 -8v-31h-154v31l48 8v97l-106 213l-44 8v31h148v-32l-43 -7l23 -47q16 -35 50 -117h1q27 65 51 116l22 47l-43 8v32h146v-31z" />
    <glyph glyph-name="Z.sc" unicode="&#xe5d6;" horiz-adv-x="448" 
d="M411 0h-371v56l193 282q14 20 45 62.5t40 55.5v2h-201l-14 -68h-44v128h337v-56l-194 -279q-8 -11 -40.5 -55.5t-46.5 -65.5v-2h238l13 75h45v-135z" />
    <glyph glyph-name="Z.superior" unicode="&#xe5d8;" horiz-adv-x="326" 
d="M302 269h-275v46l140 204q42 60 62 88v1h-141l-10 -41h-36v90h248v-46l-135 -197q-9 -13 -67 -95v-1h167l10 46h37v-95z" />
    <glyph glyph-name="Eng.sc" unicode="&#xe5e1;" horiz-adv-x="633" 
d="M120 53v412l-80 13v40h144l176 -260q66 -96 96 -148h2q-4 56 -4 142v214l-77 13v39h227v-39l-80 -13v-362q0 -108 -77 -172l-53 -45l-35 45l42 36q32 25 43 57l-170 252q-73 111 -85 132h-2q4 -68 4 -139v-217l76 -13v-40h-227v40z" />
    <glyph glyph-name="a.sc" unicode="&#xe5ec;" horiz-adv-x="546" 
d="M8 0l-1 40l66 13l159 465h81l159 -465l67 -13v-40h-196v40l63 13l-32 92h-206l-31 -92l64 -13v-40h-193zM185 201h172l-24 73q-46 135 -60 191h-2q-25 -84 -62 -192z" />
    <glyph glyph-name="a.superior" unicode="&#xe5ed;" horiz-adv-x="330" 
d="M315 274l-61 -6h-33l-8 30h-1q-5 -3 -13.5 -8t-11.5 -7t-9.5 -5.5t-9.5 -4.5t-8 -3.5t-8.5 -3t-8.5 -1.5t-9.5 -1.5t-9.5 -0.5q-39 0 -65.5 21t-26.5 65q0 47 25 70t64 23q14 0 43 -5t45 -6v29q0 30 -13.5 41.5t-42.5 11.5q-27 0 -56 -9l-9 -39h-36v71q71 21 108 21
q105 0 105 -92v-135q0 -6 2 -22l48 -8v-26zM209 331v66q-14 1 -40.5 4.5t-33.5 3.5q-49 0 -49 -53q0 -48 52 -48q6 0 11 0.5t8.5 1.5t10 4t10 4.5t14 7.5t17.5 9z" />
    <glyph glyph-name="b.sc" unicode="&#xe5f5;" horiz-adv-x="533" 
d="M494 152q0 -69 -43 -110.5t-124 -41.5h-287v40l80 13v412l-80 13v40h260q75 0 119 -36t44 -93q0 -67 -62 -105v-2q43 -17 68 -51t25 -79zM393 386q0 35 -26.5 56.5t-72.5 21.5h-103v-160h114q41 0 64.5 24t23.5 58zM422 154q0 42 -30 68.5t-76 26.5h-125v-192h128
q49 0 76 26t27 71z" />
    <glyph glyph-name="b.superior" unicode="&#xe5f6;" horiz-adv-x="343" 
d="M311 410q0 -67 -35 -106.5t-93 -39.5q-47 0 -84 33h-1l-2 -28h-49v368l-48 3v30l73 10h30v-169h1q47 47 87 47q59 0 90 -38.5t31 -109.5zM254 410q0 99 -79 99q-31 0 -73 -44v-121q11 -12 32 -22t38 -10q37 0 59.5 24t22.5 74z" />
    <glyph glyph-name="c.sc" unicode="&#xe5ff;" horiz-adv-x="469" 
d="M292 -9q-115 0 -179 68.5t-64 193.5q0 126 67 200.5t178 74.5q66 0 123 -19v-121h-44l-13 67q-31 11 -67 11q-77 0 -124 -58t-47 -154q0 -95 45 -148t125 -53q70 0 125 20l20 -58q-72 -24 -145 -24z" />
    <glyph glyph-name="c.superior" unicode="&#xe600;" horiz-adv-x="277" 
d="M249 277q-39 -13 -74 -13q-67 0 -105 39t-38 107t39 107.5t103 39.5q34 0 68 -9v-82h-34l-11 41q-5 1 -24 1q-37 0 -60.5 -26t-23.5 -72t23.5 -72t63.5 -26q27 0 61 10z" />
    <glyph glyph-name="d.sc" unicode="&#xe609;" horiz-adv-x="572" 
d="M523 261q0 -123 -65 -192t-179 -69h-239v40l80 13v412l-80 13v40h242q109 0 175 -68.5t66 -188.5zM451 259q0 93 -47 146t-126 53h-87v-398h87q80 0 126.5 52.5t46.5 146.5z" />
    <glyph glyph-name="d.superior" unicode="&#xe60a;" horiz-adv-x="363" 
d="M344 274l-61 -6h-33l-4 36h-1q-42 -40 -84 -40q-58 0 -93.5 39.5t-35.5 106.5q0 71 32 109.5t91 38.5q41 0 85 -44h1v123l-48 3v30l75 10h28v-372l48 -8v-26zM241 348v120q-38 42 -72 42q-80 0 -80 -100q0 -49 23 -73.5t60 -24.5q17 0 38 12t31 24z" />
    <glyph glyph-name="e.sc" unicode="&#xe613;" horiz-adv-x="510" 
d="M462 0h-422v40l80 14v411l-80 13v40h404v-120h-43l-13 63h-197v-164h173l10 55h40v-163h-40l-10 55h-173v-187h214l13 69h44v-126z" />
    <glyph glyph-name="e.superior" unicode="&#xe614;" horiz-adv-x="316" 
d="M285 402h-199q0 -47 24.5 -70t66.5 -23t84 11l10 -42q-49 -14 -93 -14q-71 0 -108.5 38.5t-37.5 109.5q0 67 36.5 106.5t96.5 39.5q120 0 120 -142v-14zM236 440v1q0 75 -71 75q-32 0 -52.5 -20.5t-25.5 -55.5h149z" />
    <glyph glyph-name="f.sc" unicode="&#xe61c;" horiz-adv-x="470" 
d="M375 461h-184v-176h156l11 55h40v-164h-40l-11 55h-156v-178l85 -13v-40h-236v40l80 13v412l-80 13v40h391v-120h-43z" />
    <glyph glyph-name="f.superior" unicode="&#xe61d;" horiz-adv-x="215" 
d="M226 671l-14 -40q-25 10 -51 10q-13 0 -23.5 -8.5t-10.5 -22.5v-59h77v-46h-77v-197l54 -8v-31h-158v31l48 8v197h-40v46h40v70q0 30 23.5 47t57.5 17q32 0 74 -14z" />
    <glyph glyph-name="g.sc" unicode="&#xe626;" horiz-adv-x="559" 
d="M475 0h-45l-9 45h-2q-63 -55 -135 -55q-113 0 -174 69.5t-61 197.5q0 123 70 196.5t183 73.5q87 0 157 -28v-115h-43l-14 66q-45 15 -100 15q-79 0 -129.5 -56.5t-50.5 -151.5q0 -205 165 -205q58 0 124 45v96l-79 13v40h211v-39l-68 -14v-193z" />
    <glyph glyph-name="g.superior" unicode="&#xe627;" horiz-adv-x="315" 
d="M296 510h-51v-1q20 -15 20 -54q0 -49 -30.5 -77t-83.5 -28q-19 0 -37 5q-25 -15 -25 -23q0 -21 39 -21h64q61 0 85 -16.5t24 -48.5q0 -41 -46.5 -71.5t-113.5 -30.5q-57 0 -86 19.5t-29 52.5q0 20 16 37.5t37 25.5v1q-38 10 -38 47q0 12 11.5 25t24.5 19v1q-41 27 -41 83
q0 47 31.5 75t83.5 28q25 0 48 -7h97v-41zM214 455q0 64 -63 64q-31 0 -47.5 -17.5t-16.5 -46.5q0 -30 16.5 -47.5t47.5 -17.5q63 0 63 65zM248 239q0 16 -12.5 24t-50.5 8h-59q-49 -22 -49 -51q0 -36 71 -36q42 0 71 18t29 37z" />
    <glyph glyph-name="h.sc" unicode="&#xe630;" horiz-adv-x="637" 
d="M597 0h-227v40l76 13v182h-255v-182l76 -13v-40h-227v40l80 13v412l-80 13v40h227v-40l-76 -13v-170h255v170l-76 13v40h227v-40l-81 -13v-412l81 -13v-40z" />
    <glyph glyph-name="h.superior" unicode="&#xe631;" horiz-adv-x="377" 
d="M360 269h-146v31l43 8v150q0 52 -45 52q-51 0 -85 -41v-161l44 -8v-31h-148v31l48 8v329l-48 3v30l74 10h30v-167h1q36 45 99 45q37 0 61 -23t24 -69v-158l48 -8v-31z" />
    <glyph glyph-name="i.sc" unicode="&#xe63a;" horiz-adv-x="311" 
d="M40 0v40l80 13v412l-80 13v40h231v-40l-80 -13v-412l80 -13v-40h-231z" />
    <glyph glyph-name="j.sc" unicode="&#xe643;" horiz-adv-x="296" 
d="M187 465v-383q0 -56 -20 -88.5t-57 -62.5l-70 -56l-41 50l60 48q28 20 42.5 44t14.5 69v379l-80 13v40h231v-40z" />
    <glyph glyph-name="j.superior" unicode="&#xe644;" horiz-adv-x="167" 
d="M-5 178l47 45q16 13 20 25t4 41v220l-48 2v30l73 10h30v-259q0 -41 -6.5 -60t-30.5 -40l-56 -48zM91 595q-15 0 -26 11t-11 24q0 14 11 24t26 10q16 0 27 -10t11 -24q0 -13 -11.5 -24t-26.5 -11z" />
    <glyph glyph-name="k.sc" unicode="&#xe64d;" horiz-adv-x="553" 
d="M553 0h-127l-114 182q-37 62 -54 89h-2l-65 -80v-138l78 -13v-40h-229v40l80 13v412l-80 13v40h221v-41l-70 -12v-192h2q11 15 77 92q10 11 40.5 47t48.5 55l-63 10v41h218v-40l-79 -12l-134 -149l170 -264l82 -13v-40z" />
    <glyph glyph-name="k.superior" unicode="&#xe64e;" horiz-adv-x="346" 
d="M343 269h-84l-50 86q-33 59 -35 63h-1l-46 -51v-59l46 -7v-32h-150v31l48 8v329l-48 3v30l73 10h31v-257h2q12 17 55 65l26 27l-34 6v30h140v-30l-48 -8l-59 -63l88 -142l46 -8v-31z" />
    <glyph glyph-name="l.sc" unicode="&#xe657;" horiz-adv-x="457" 
d="M440 0h-400v40l80 13v412l-80 13v40h231v-40l-80 -13v-405h193l13 75h43v-135z" />
    <glyph glyph-name="l.superior" unicode="&#xe658;" horiz-adv-x="193" 
d="M71 308v329l-48 3v30l74 10h30v-372l48 -8v-31h-152v31z" />
    <glyph glyph-name="m.sc" unicode="&#xe661;" horiz-adv-x="693" 
d="M652 0h-230v40l80 13v200q0 81 3 140h-2l-137 -245h-41l-135 245h-2q3 -69 3 -139v-201l79 -13v-40h-230v40l80 13v412l-80 13v40h146l98 -174q25 -42 61 -121h2q39 80 57 111l103 184h146v-39l-81 -13v-413l80 -13v-40z" />
    <glyph glyph-name="m.superior" unicode="&#xe662;" horiz-adv-x="545" 
d="M528 269h-147v31l43 8v150q0 52 -40 52q-42 0 -81 -44v-158l43 -8v-31h-140v31l43 8v150q0 52 -42 52q-41 0 -80 -44v-158l43 -8v-31h-147v31l48 8v201l-48 2v30l74 10h24l3 -44h1q35 51 95 51q61 0 77 -52h1q40 52 100 52q37 0 59.5 -22.5t22.5 -69.5v-158l48 -8v-31z
" />
    <glyph glyph-name="n.sc" unicode="&#xe66b;" horiz-adv-x="634" 
d="M525 0h-63l-188 277q-79 121 -85 132h-2q4 -68 4 -137v-219l77 -13v-40h-228v40l80 13v412l-80 13v40h144l176 -260q77 -112 96 -148h2q-4 56 -4 140v216l-77 13v39h228v-39l-80 -13v-466z" />
    <glyph glyph-name="o.sc" unicode="&#xe674;" horiz-adv-x="568" 
d="M519 259q0 -125 -63.5 -197t-171.5 -72q-109 0 -172 72t-63 197t63.5 197.5t171.5 72.5q107 0 171 -72.5t64 -197.5zM447 259q0 95 -45 151.5t-118 56.5q-74 0 -118 -56t-44 -152t44 -151.5t118 -55.5q75 0 119 55.5t44 151.5z" />
    <glyph glyph-name="o.superior" unicode="&#xe675;" horiz-adv-x="337" 
d="M305 411q0 -69 -37 -108.5t-99 -39.5t-99.5 40t-37.5 108t37.5 107.5t99.5 39.5t99 -39.5t37 -107.5zM248 411q0 47 -21 72.5t-58 25.5q-38 0 -59 -26t-21 -72q0 -47 21 -73.5t59 -26.5q37 0 58 26.5t21 73.5z" />
    <glyph glyph-name="p.sc" unicode="&#xe67d;" horiz-adv-x="506" 
d="M479 366q0 -77 -47 -121.5t-130 -44.5h-111v-147l80 -13v-40h-231v40l80 13v412l-80 13v40h250q88 0 138.5 -40.5t50.5 -111.5zM409 364q0 42 -30.5 69t-86.5 27h-101v-201h111q53 0 80 31t27 74z" />
    <glyph glyph-name="p.superior" unicode="&#xe67e;" horiz-adv-x="355" 
d="M323 411q0 -68 -35 -107.5t-93 -39.5q-55 0 -80 32h-1v-108l48 -8v-31h-151v31l48 8v321l-48 2v30l74 10h22l3 -43h1q40 50 90 50q60 0 91 -38t31 -109zM266 411q0 98 -79 98q-38 0 -73 -43v-125q11 -11 31 -20t37 -9q38 0 61 24.5t23 74.5z" />
    <glyph glyph-name="q.sc" unicode="&#xe687;" horiz-adv-x="568" 
d="M519 260q0 -100 -40.5 -165.5t-110.5 -90.5q68 -35 139 -35q25 0 37 1l1 -54q-18 -3 -39 -3q-48 0 -88.5 10t-64 23t-54.5 27t-58 20q-33 4 -65 20t-61.5 46.5t-47.5 82.5t-18 118q0 125 64 197t172 72q106 0 170 -72.5t64 -196.5zM447 260q0 95 -44.5 151t-117.5 56
t-118 -56t-45 -151q0 -96 44 -152t119 -56t118.5 56t43.5 152z" />
    <glyph glyph-name="q.superior" unicode="&#xe688;" horiz-adv-x="353" 
d="M344 149h-151v31l48 8v111h-1q-31 -35 -78 -35q-59 0 -94.5 39.5t-35.5 106.5q0 71 31.5 109.5t91.5 38.5q48 0 88 -49h2l2 42h49v-363l48 -8v-31zM241 345v121q-36 43 -72 43q-80 0 -80 -99q0 -49 23 -73.5t61 -24.5q17 0 38 10.5t30 22.5z" />
    <glyph glyph-name="r.sc" unicode="&#xe691;" horiz-adv-x="561" 
d="M556 0h-125l-127 226h-113v-173l77 -13v-40h-228v40l80 13v412l-80 13v40h262q85 0 129.5 -36.5t44.5 -103.5q0 -54 -28.5 -90.5t-81.5 -50.5v-2q14 -19 63 -100l49 -82l78 -13v-40zM405 378q0 40 -28.5 61.5t-79.5 21.5h-106v-178h106q60 0 84 27.5t24 67.5z" />
    <glyph glyph-name="r.superior" unicode="&#xe692;" horiz-adv-x="252" 
d="M241 463h-34l-9 44q-6 2 -13 2q-17 0 -33 -15t-25 -42v-144l54 -8v-31h-158v31l48 8v201l-48 2v30l74 10h23l2 -51h1q5 22 25 39.5t44 17.5q19 0 49 -14v-80z" />
    <glyph glyph-name="s.sc" unicode="&#xe69b;" horiz-adv-x="445" 
d="M399 148q0 -72 -50.5 -114.5t-132.5 -42.5q-79 0 -172 32v118h44l14 -72q51 -18 114 -18q46 0 78.5 24.5t32.5 68.5q0 41 -30 62.5t-92 42.5q-30 9 -50.5 18t-45 25.5t-37 41t-12.5 56.5q0 62 47.5 99.5t124.5 37.5q60 0 124 -19v-114h-44l-13 66q-30 9 -67 9
q-45 0 -72.5 -22t-27.5 -57q0 -25 17 -42.5t34.5 -25t59.5 -20.5l18 -6q138 -43 138 -148z" />
    <glyph glyph-name="s.superior" unicode="&#xe69c;" horiz-adv-x="261" 
d="M236 352q0 -41 -31.5 -64.5t-81.5 -23.5q-46 0 -97 17v78h35l9 -41q28 -8 51 -8q25 0 42.5 10t17.5 30q0 21 -13 30t-40 16q-21 6 -34 11t-28 14.5t-22 24t-7 33.5q0 35 28.5 57t73.5 22q36 0 78 -13v-71h-34l-9 38q-13 4 -31 4q-24 0 -38 -10t-14 -25q0 -5 1.5 -9.5
t3 -7.5t5.5 -6t6.5 -4.5t9 -4t10 -3.5t12.5 -4t14 -4q24 -8 39.5 -15.5t29.5 -26t14 -44.5z" />
    <glyph glyph-name="t.sc" unicode="&#xe6a5;" horiz-adv-x="486" 
d="M405 458h-126v-405l80 -13v-40h-231v40l80 13v405h-127l-14 -70h-43v130h438v-130h-43z" />
    <glyph glyph-name="t.superior" unicode="&#xe6a6;" horiz-adv-x="207" 
d="M202 278q-34 -14 -75 -14q-33 0 -53.5 16t-20.5 44v181h-41v46h41v54l56 19v-73h71v-46h-71v-169q0 -28 28 -28q15 0 50 11z" />
    <glyph glyph-name="u.sc" unicode="&#xe6af;" horiz-adv-x="605" 
d="M500 165q0 -82 -51.5 -128.5t-145.5 -46.5q-93 0 -145.5 46.5t-52.5 128.5v300l-80 13v40h225v-40l-74 -13v-296q0 -53 32 -85t95 -32q62 0 94.5 32t32.5 85v296l-75 13v40h225v-40l-80 -13v-300z" />
    <glyph glyph-name="u.superior" unicode="&#xe6b0;" horiz-adv-x="366" 
d="M348 274l-60 -6h-36l-5 41h-1q-32 -46 -99 -46q-37 0 -60 22t-23 68v156l-49 2v29l74 11h30v-190q0 -51 43 -51q48 0 83 39v160l-45 2v29l71 11h29v-243l48 -8v-26z" />
    <glyph glyph-name="v.sc" unicode="&#xe6b9;" horiz-adv-x="549" 
d="M466 465l-152 -465h-79l-152 465l-75 13v40h220v-40l-74 -13l59 -186q47 -154 61 -213h2q22 87 62 213l60 186l-74 13v40h217v-40z" />
    <glyph glyph-name="v.superior" unicode="&#xe6ba;" horiz-adv-x="348" 
d="M300 513l-94 -244h-64l-94 244l-44 7v31h142v-32l-43 -6l35 -95q25 -68 36 -107h1q13 44 36 107l35 95l-43 5v33h141v-31z" />
    <glyph glyph-name="w.sc" unicode="&#xe6c3;" horiz-adv-x="780" 
d="M698 465l-141 -465h-69l-65 247q-25 95 -31 131h-2q-6 -33 -31 -130l-66 -248h-69l-141 465l-75 13v40h222v-40l-75 -13l62 -210q33 -119 44 -167h2q31 140 42 181l64 249h46l64 -251q29 -118 42 -179h2q10 47 44 166l62 211l-75 13v40h218v-40z" />
    <glyph glyph-name="w.superior" unicode="&#xe6c4;" horiz-adv-x="460" 
d="M412 513l-77 -244h-49l-34 118q-15 45 -20 80h-2q-5 -29 -20 -79l-36 -119h-47l-78 244l-45 7v31h141v-33l-44 -5l28 -91q3 -12 12.5 -46.5t12.5 -45.5h1q6 33 24 95l36 126h32l36 -126q5 -22 14.5 -55.5t10.5 -39.5h1q13 53 24 91l29 92l-44 5v33h138v-31z" />
    <glyph glyph-name="x.sc" unicode="&#xe6cd;" horiz-adv-x="534" 
d="M28 518h215v-40l-70 -13l22 -34q44 -67 72 -118h2q12 23 75 124l18 29l-71 12v40h214v-40l-75 -13l-127 -192l144 -220l75 -13v-40h-219v40l73 13l-26 42q-26 36 -83 136h-2q-32 -59 -80 -130l-31 -48l73 -13v-40h-215v40l75 13l143 220l-127 192l-75 13v40z" />
    <glyph glyph-name="x.superior" unicode="&#xe6ce;" horiz-adv-x="329" 
d="M322 269h-80l-35 52q-37 53 -43 63h-1q-9 -16 -44 -66l-35 -49h-77v31l44 8l84 114l-68 91l-44 7v31h79l29 -41q21 -30 34 -51h1q28 43 34 51l30 41h76v-31l-44 -7l-66 -91l82 -114l44 -8v-31z" />
    <glyph glyph-name="y.sc" unicode="&#xe6d6;" horiz-adv-x="519" 
d="M436 465l-140 -281v-131l80 -13v-40h-231v40l80 13v131l-142 281l-75 13v40h218v-40l-72 -14l18 -36q42 -86 87 -187h2q33 80 87 189l18 35l-73 13v40h218v-40z" />
    <glyph glyph-name="y.superior" unicode="&#xe6d7;" horiz-adv-x="348" 
d="M300 513l-81 -202q-32 -77 -74 -118l-57 -53l-33 30l41 42q32 30 48 61l-96 240l-44 7v31h143v-32l-43 -6l29 -77q28 -78 41 -117h1q8 27 41 117l29 76l-43 7v32h142v-31z" />
    <glyph glyph-name="z.sc" unicode="&#xe6e0;" horiz-adv-x="448" 
d="M411 0h-371v56l193 282q14 20 45 62.5t40 55.5v2h-201l-14 -68h-44v128h337v-56l-194 -279q-8 -11 -40.5 -55.5t-46.5 -65.5v-2h238l13 75h45v-135z" />
    <glyph glyph-name="z.superior" unicode="&#xe6e1;" horiz-adv-x="270" 
d="M253 269h-233v40l121 150q5 6 18.5 20.5t22.5 25.5v1h-111l-9 -38h-35v83h220v-39l-116 -142q-14 -16 -48 -54v-1h126l9 43h35v-89z" />
    <glyph glyph-name="eng.sc" unicode="&#xe6ea;" horiz-adv-x="633" 
d="M120 53v412l-80 13v40h144l176 -260q66 -96 96 -148h2q-4 56 -4 142v214l-77 13v39h227v-39l-80 -13v-362q0 -108 -77 -172l-53 -45l-35 45l42 36q32 25 43 57l-170 252q-73 111 -85 132h-2q4 -68 4 -139v-217l76 -13v-40h-227v40z" />
    <glyph glyph-name="Agrave.sc" unicode="&#xe6f4;" horiz-adv-x="546" 
d="M8 0l-1 40l66 13l159 465h81l159 -465l67 -13v-40h-196v40l63 13l-32 92h-206l-31 -92l64 -13v-40h-193zM185 201h172l-24 73q-46 135 -60 191h-2q-25 -84 -62 -192zM314 594h-57l-124 119h90z" />
    <glyph glyph-name="Aacute.sc" unicode="&#xe6ff;" horiz-adv-x="546" 
d="M8 0l-1 40l66 13l159 465h81l159 -465l67 -13v-40h-196v40l63 13l-32 92h-206l-31 -92l64 -13v-40h-193zM185 201h172l-24 73q-46 135 -60 191h-2q-25 -84 -62 -192zM287 594h-57l90 119h90z" />
    <glyph glyph-name="Acircumflex.sc" unicode="&#xe70a;" horiz-adv-x="546" 
d="M8 0l-1 40l66 13l159 465h81l159 -465l67 -13v-40h-196v40l63 13l-32 92h-206l-31 -92l64 -13v-40h-193zM185 201h172l-24 73q-46 135 -60 191h-2q-25 -84 -62 -192zM207 594h-63l101 119h54l101 -119h-64l-63 86h-2z" />
    <glyph glyph-name="Atilde.sc" unicode="&#xe715;" horiz-adv-x="546" 
d="M8 0l-1 40l66 13l159 465h81l159 -465l67 -13v-40h-196v40l63 13l-32 92h-206l-31 -92l64 -13v-40h-193zM185 201h172l-24 73q-46 135 -60 191h-2q-25 -84 -62 -192zM412 653q-28 -25 -47.5 -36t-44.5 -11t-53.5 20.5t-45.5 20.5q-10 0 -21.5 -6t-16.5 -10t-26 -21
l-25 42q20 17 30.5 24.5t26 14t32.5 6.5q26 0 54.5 -20t44.5 -20q15 0 27 7t37 28z" />
    <glyph glyph-name="Adieresis.sc" unicode="&#xe720;" horiz-adv-x="546" 
d="M8 0l-1 40l66 13l159 465h81l159 -465l67 -13v-40h-196v40l63 13l-32 92h-206l-31 -92l64 -13v-40h-193zM185 201h172l-24 73q-46 135 -60 191h-2q-25 -84 -62 -192zM134 652q0 20 14 33.5t33 13.5t33 -13.5t14 -33.5q0 -18 -14 -32t-33 -14t-33 14t-14 32zM315 652
q0 20 13.5 33.5t33.5 13.5t34 -14t14 -33q0 -18 -14.5 -32t-33.5 -14t-33 14t-14 32z" />
    <glyph glyph-name="Amacron.sc" unicode="&#xe72b;" horiz-adv-x="546" 
d="M8 0l-1 40l66 13l159 465h81l159 -465l67 -13v-40h-196v40l63 13l-32 92h-206l-31 -92l64 -13v-40h-193zM185 201h172l-24 73q-46 135 -60 191h-2q-25 -84 -62 -192zM141 629v47h262v-47h-262z" />
    <glyph glyph-name="Abreve.sc" unicode="&#xe736;" horiz-adv-x="546" 
d="M8 0l-1 40l66 13l159 465h81l159 -465l67 -13v-40h-196v40l63 13l-32 92h-206l-31 -92l64 -13v-40h-193zM185 201h172l-24 73q-46 135 -60 191h-2q-25 -84 -62 -192zM151 706h46q3 -27 25 -45.5t50 -18.5t49.5 18.5t24.5 45.5h47q0 -44 -35.5 -75t-85.5 -31t-85.5 31
t-35.5 75z" />
    <glyph glyph-name="Aring.sc" unicode="&#xe741;" horiz-adv-x="546" 
d="M8 0l-1 40l66 13l159 465h81l159 -465l67 -13v-40h-196v40l63 13l-32 92h-206l-31 -92l64 -13v-40h-193zM185 201h172l-24 73q-46 135 -60 191h-2q-25 -84 -62 -192zM181 660q0 40 26.5 67.5t64.5 27.5t64.5 -27.5t26.5 -67.5t-26.5 -67.5t-64.5 -27.5t-64.5 27.5
t-26.5 67.5zM223 660q0 -24 14 -40t35 -16q19 0 33.5 16t14.5 40t-14.5 40.5t-33.5 16.5q-21 0 -35 -16.5t-14 -40.5z" />
    <glyph glyph-name="Aogonek.sc" unicode="&#xe757;" horiz-adv-x="546" 
d="M325 -133q0 35 27.5 71.5t66.5 61.5h-76v40l63 13l-32 92h-206l-31 -92l64 -13v-40h-193l-1 40l66 13l159 465h81l159 -465l67 -13v-40h-67q-37 -28 -61.5 -62t-24.5 -61q0 -20 10.5 -34.5t25.5 -14.5q19 0 32 4l9 -44q-25 -7 -48 -7q-39 0 -64.5 22t-25.5 64zM185 201
h172l-24 73q-46 135 -60 191h-2q-25 -84 -62 -192z" />
    <glyph glyph-name="AE.sc" unicode="&#xe762;" horiz-adv-x="764" 
d="M41 48l282 428l-61 9v33h436v-120h-43l-13 63h-197v-164h173l10 55h40v-163h-40l-10 55h-173v-187h213l13 69h45v-126h-416v40l74 14v91h-201l-65 -96l53 -9v-40h-183v40zM203 201h171v74q0 105 3 190h-2q-38 -64 -117 -181z" />
    <glyph glyph-name="AEacute.sc" unicode="&#xe76d;" horiz-adv-x="764" 
d="M41 48l282 428l-61 9v33h436v-120h-43l-13 63h-197v-164h173l10 55h40v-163h-40l-10 55h-173v-187h213l13 69h45v-126h-416v40l74 14v91h-201l-65 -96l53 -9v-40h-183v40zM203 201h171v74q0 105 3 190h-2q-38 -64 -117 -181zM481 594h-57l90 119h90z" />
    <glyph glyph-name="Cacute.sc" unicode="&#xe778;" horiz-adv-x="469" 
d="M292 -9q-115 0 -179 68.5t-64 193.5q0 126 67 200.5t178 74.5q66 0 123 -19v-121h-44l-13 67q-31 11 -67 11q-77 0 -124 -58t-47 -154q0 -95 45 -148t125 -53q70 0 125 20l20 -58q-72 -24 -145 -24zM296 594h-57l90 119h90z" />
    <glyph glyph-name="Ccircumflex.sc" unicode="&#xe783;" horiz-adv-x="469" 
d="M292 -9q-115 0 -179 68.5t-64 193.5q0 126 67 200.5t178 74.5q66 0 123 -19v-121h-44l-13 67q-31 11 -67 11q-77 0 -124 -58t-47 -154q0 -95 45 -148t125 -53q70 0 125 20l20 -58q-72 -24 -145 -24zM216 594h-63l101 119h54l101 -119h-64l-63 86h-2z" />
    <glyph glyph-name="Ccaron.sc" unicode="&#xe78e;" horiz-adv-x="469" 
d="M292 -9q-115 0 -179 68.5t-64 193.5q0 126 67 200.5t178 74.5q66 0 123 -19v-121h-44l-13 67q-31 11 -67 11q-77 0 -124 -58t-47 -154q0 -95 45 -148t125 -53q70 0 125 20l20 -58q-72 -24 -145 -24zM153 713h63l64 -86h2l63 86h64l-101 -119h-54z" />
    <glyph glyph-name="Cdotaccent.sc" unicode="&#xe799;" horiz-adv-x="469" 
d="M292 -9q-115 0 -179 68.5t-64 193.5q0 126 67 200.5t178 74.5q66 0 123 -19v-121h-44l-13 67q-31 11 -67 11q-77 0 -124 -58t-47 -154q0 -95 45 -148t125 -53q70 0 125 20l20 -58q-72 -24 -145 -24zM230 651q0 20 15 34.5t36 14.5q20 0 34.5 -14.5t14.5 -34.5t-14.5 -35
t-34.5 -15q-21 0 -36 15t-15 35z" />
    <glyph glyph-name="Ccedilla.sc" unicode="&#xe7a4;" horiz-adv-x="469" 
d="M359 -130q0 -40 -29.5 -64.5t-74.5 -24.5q-46 0 -82 18l16 38q35 -14 62 -14q25 0 40.5 12t15.5 33q0 20 -14.5 31t-32 14.5t-51.5 5.5l27 77q-89 16 -138 82t-49 175q0 126 67 200.5t178 74.5q66 0 123 -19v-121h-44l-13 67q-31 11 -67 11q-77 0 -124 -58t-47 -154
q0 -95 45 -148t125 -53q70 0 125 20l20 -58q-72 -24 -145 -24h-11l-13 -34v-2q39 -4 65 -26.5t26 -58.5z" />
    <glyph glyph-name="Dcaron.sc" unicode="&#xe7af;" horiz-adv-x="572" 
d="M523 261q0 -123 -65 -192t-179 -69h-239v40l80 13v412l-80 13v40h242q109 0 175 -68.5t66 -188.5zM451 259q0 93 -47 146t-126 53h-87v-398h87q80 0 126.5 52.5t46.5 146.5zM131 713h63l64 -86h2l63 86h64l-101 -119h-54z" />
    <glyph glyph-name="Dcroat.sc" unicode="&#xe7ba;" horiz-adv-x="576" 
d="M69 243v47h54v175l-80 13v40h241q110 0 176 -68.5t66 -188.5q0 -123 -65 -192t-179 -69h-239v40l80 13v190h-54zM454 259q0 93 -47 146t-126 53h-87v-168h104v-47h-104v-183h87q80 0 126.5 52.5t46.5 146.5z" />
    <glyph glyph-name="Eth.sc" unicode="&#xe7c5;" horiz-adv-x="576" 
d="M69 243v47h54v175l-80 13v40h241q110 0 176 -68.5t66 -188.5q0 -123 -65 -192t-179 -69h-239v40l80 13v190h-54zM454 259q0 93 -47 146t-126 53h-87v-168h104v-47h-104v-183h87q80 0 126.5 52.5t46.5 146.5z" />
    <glyph glyph-name="Egrave.sc" unicode="&#xe7d0;" horiz-adv-x="510" 
d="M462 0h-422v40l80 14v411l-80 13v40h404v-120h-43l-13 63h-197v-164h173l10 55h40v-163h-40l-10 55h-173v-187h214l13 69h44v-126zM309 594h-57l-124 119h90z" />
    <glyph glyph-name="Egrave.superior" unicode="&#xe7d2;" horiz-adv-x="367" 
d="M232 690h-45l-100 64h69zM334 269h-303v31l48 8v310l-48 8v31h291v-86h-37l-7 38h-142v-116h125l5 30h33v-104h-33l-4 30h-126v-131h154l8 42h36v-91z" />
    <glyph glyph-name="Eacute.sc" unicode="&#xe7db;" horiz-adv-x="510" 
d="M462 0h-422v40l80 14v411l-80 13v40h404v-120h-43l-13 63h-197v-164h173l10 55h40v-163h-40l-10 55h-173v-187h214l13 69h44v-126zM282 594h-57l90 119h90z" />
    <glyph glyph-name="Ecircumflex.sc" unicode="&#xe7e6;" horiz-adv-x="510" 
d="M462 0h-422v40l80 14v411l-80 13v40h404v-120h-43l-13 63h-197v-164h173l10 55h40v-163h-40l-10 55h-173v-187h214l13 69h44v-126zM202 594h-63l101 119h54l101 -119h-64l-63 86h-2z" />
    <glyph glyph-name="Ecaron.sc" unicode="&#xe7f1;" horiz-adv-x="510" 
d="M462 0h-422v40l80 14v411l-80 13v40h404v-120h-43l-13 63h-197v-164h173l10 55h40v-163h-40l-10 55h-173v-187h214l13 69h44v-126zM139 713h63l64 -86h2l63 86h64l-101 -119h-54z" />
    <glyph glyph-name="Edieresis.sc" unicode="&#xe7fc;" horiz-adv-x="510" 
d="M462 0h-422v40l80 14v411l-80 13v40h404v-120h-43l-13 63h-197v-164h173l10 55h40v-163h-40l-10 55h-173v-187h214l13 69h44v-126zM129 652q0 20 13.5 33.5t33.5 13.5t33.5 -13.5t13.5 -33.5q0 -18 -14 -32t-33 -14t-33 14t-14 32zM310 652q0 20 14 33.5t33 13.5
q20 0 34 -14t14 -33q0 -18 -14.5 -32t-33.5 -14t-33 14t-14 32z" />
    <glyph glyph-name="Emacron.sc" unicode="&#xe807;" horiz-adv-x="510" 
d="M462 0h-422v40l80 14v411l-80 13v40h404v-120h-43l-13 63h-197v-164h173l10 55h40v-163h-40l-10 55h-173v-187h214l13 69h44v-126zM136 629v47h262v-47h-262z" />
    <glyph glyph-name="Ebreve.sc" unicode="&#xe812;" horiz-adv-x="510" 
d="M462 0h-422v40l80 14v411l-80 13v40h404v-120h-43l-13 63h-197v-164h173l10 55h40v-163h-40l-10 55h-173v-187h214l13 69h44v-126zM146 706h46q3 -27 25 -45.5t50 -18.5t49.5 18.5t24.5 45.5h47q0 -44 -35.5 -75t-85.5 -31t-85.5 31t-35.5 75z" />
    <glyph glyph-name="Edotaccent.sc" unicode="&#xe81d;" horiz-adv-x="510" 
d="M462 0h-422v40l80 14v411l-80 13v40h404v-120h-43l-13 63h-197v-164h173l10 55h40v-163h-40l-10 55h-173v-187h214l13 69h44v-126zM216 651q0 20 15 34.5t36 14.5q20 0 34.5 -14.5t14.5 -34.5t-14.5 -35t-34.5 -15q-21 0 -36 15t-15 35z" />
    <glyph glyph-name="Eogonek.sc" unicode="&#xe828;" horiz-adv-x="510" 
d="M316 -133q0 68 93 133h-369v40l80 14v411l-80 13v40h404v-120h-43l-13 63h-197v-164h173l10 55h40v-163h-40l-10 55h-173v-187h214l13 69h44v-126q-85 -68 -85 -123q0 -21 10 -35t26 -14q19 0 32 4l9 -44q-24 -7 -48 -7q-39 0 -64.5 22t-25.5 64z" />
    <glyph glyph-name="Gcircumflex.sc" unicode="&#xe833;" horiz-adv-x="559" 
d="M475 0h-45l-9 45h-2q-63 -55 -135 -55q-113 0 -174 69.5t-61 197.5q0 123 70 196.5t183 73.5q87 0 157 -28v-115h-43l-14 66q-45 15 -100 15q-79 0 -129.5 -56.5t-50.5 -151.5q0 -205 165 -205q58 0 124 45v96l-79 13v40h211v-39l-68 -14v-193zM230 594h-63l101 119h54
l101 -119h-64l-63 86h-2z" />
    <glyph glyph-name="Gbreve.sc" unicode="&#xe83e;" horiz-adv-x="559" 
d="M475 0h-45l-9 45h-2q-63 -55 -135 -55q-113 0 -174 69.5t-61 197.5q0 123 70 196.5t183 73.5q87 0 157 -28v-115h-43l-14 66q-45 15 -100 15q-79 0 -129.5 -56.5t-50.5 -151.5q0 -205 165 -205q58 0 124 45v96l-79 13v40h211v-39l-68 -14v-193zM174 706h46
q3 -27 25 -45.5t50 -18.5t49.5 18.5t24.5 45.5h47q0 -44 -35.5 -75t-85.5 -31t-85.5 31t-35.5 75z" />
    <glyph glyph-name="Gdotaccent.sc" unicode="&#xe849;" horiz-adv-x="559" 
d="M475 0h-45l-9 45h-2q-63 -55 -135 -55q-113 0 -174 69.5t-61 197.5q0 123 70 196.5t183 73.5q87 0 157 -28v-115h-43l-14 66q-45 15 -100 15q-79 0 -129.5 -56.5t-50.5 -151.5q0 -205 165 -205q58 0 124 45v96l-79 13v40h211v-39l-68 -14v-193zM244 651q0 20 15 34.5
t36 14.5q20 0 34.5 -14.5t14.5 -34.5t-14.5 -35t-34.5 -15q-21 0 -36 15t-15 35z" />
    <glyph glyph-name="Gcommaaccent.sc" unicode="&#xe854;" horiz-adv-x="559" 
d="M475 0h-45l-9 45h-2q-63 -55 -135 -55q-113 0 -174 69.5t-61 197.5q0 123 70 196.5t183 73.5q87 0 157 -28v-115h-43l-14 66q-45 15 -100 15q-79 0 -129.5 -56.5t-50.5 -151.5q0 -205 165 -205q58 0 124 45v96l-79 13v40h211v-39l-68 -14v-193zM327 -40q1 -4 1 -13
q0 -33 -23 -70t-59 -66l-27 14q41 50 41 113q0 10 -1 14z" />
    <glyph glyph-name="Hcircumflex.sc" unicode="&#xe85f;" horiz-adv-x="637" 
d="M597 0h-227v40l76 13v182h-255v-182l76 -13v-40h-227v40l80 13v412l-80 13v40h227v-40l-76 -13v-170h255v170l-76 13v40h227v-40l-81 -13v-412l81 -13v-40zM253 594h-63l101 119h54l101 -119h-64l-63 86h-2z" />
    <glyph glyph-name="Hbar.sc" unicode="&#xe86a;" horiz-adv-x="637" 
d="M61 364v38h59v63l-80 13v40h227v-40l-76 -13v-63h255v63l-76 13v40h227v-40l-81 -13v-63h60v-38h-60v-311l81 -13v-40h-227v40l76 13v177h-255v-177l76 -13v-40h-227v40l80 13v311h-59zM191 287h255v77h-255v-77z" />
    <glyph glyph-name="Igrave.sc" unicode="&#xe875;" horiz-adv-x="311" 
d="M40 0v40l80 13v412l-80 13v40h231v-40l-80 -13v-412l80 -13v-40h-231zM200 594h-57l-124 119h90z" />
    <glyph glyph-name="Iacute.sc" unicode="&#xe880;" horiz-adv-x="311" 
d="M40 0v40l80 13v412l-80 13v40h231v-40l-80 -13v-412l80 -13v-40h-231zM173 594h-57l90 119h90z" />
    <glyph glyph-name="Ibreve.sc" unicode="&#xe88b;" horiz-adv-x="311" 
d="M40 0v40l80 13v412l-80 13v40h231v-40l-80 -13v-412l80 -13v-40h-231zM37 706h46q3 -27 25 -45.5t50 -18.5t49.5 18.5t24.5 45.5h47q0 -44 -35.5 -75t-85.5 -31t-85.5 31t-35.5 75z" />
    <glyph glyph-name="Icircumflex.sc" unicode="&#xe896;" horiz-adv-x="311" 
d="M40 0v40l80 13v412l-80 13v40h231v-40l-80 -13v-412l80 -13v-40h-231zM93 594h-63l101 119h54l101 -119h-64l-63 86h-2z" />
    <glyph glyph-name="Itilde.sc" unicode="&#xe8a1;" horiz-adv-x="311" 
d="M40 0v40l80 13v412l-80 13v40h231v-40l-80 -13v-412l80 -13v-40h-231zM298 653q-28 -25 -47.5 -36t-44.5 -11t-53.5 20.5t-45.5 20.5q-10 0 -21.5 -6t-16.5 -10t-26 -21l-25 42q20 17 30.5 24.5t26 14t32.5 6.5q26 0 54.5 -20t44.5 -20q15 0 27 7t37 28z" />
    <glyph glyph-name="Idieresis.sc" unicode="&#xe8ac;" horiz-adv-x="311" 
d="M40 0v40l80 13v412l-80 13v40h231v-40l-80 -13v-412l80 -13v-40h-231zM20 652q0 20 14 33.5t33 13.5t33 -13.5t14 -33.5q0 -18 -14 -32t-33 -14t-33 14t-14 32zM201 652q0 20 13.5 33.5t33.5 13.5t34 -14t14 -33q0 -18 -14.5 -32t-33.5 -14t-33 14t-14 32z" />
    <glyph glyph-name="Imacron.sc" unicode="&#xe8b7;" horiz-adv-x="311" 
d="M40 0v40l80 13v412l-80 13v40h231v-40l-80 -13v-412l80 -13v-40h-231zM27 629v47h262v-47h-262z" />
    <glyph glyph-name="Idotaccent.sc" unicode="&#xe8c2;" horiz-adv-x="311" 
d="M40 0v40l80 13v412l-80 13v40h231v-40l-80 -13v-412l80 -13v-40h-231zM107 651q0 20 15 34.5t36 14.5q20 0 34.5 -14.5t14.5 -34.5t-14.5 -35t-34.5 -15q-21 0 -36 15t-15 35z" />
    <glyph glyph-name="Iogonek.sc" unicode="&#xe8cd;" horiz-adv-x="311" 
d="M40 0v40l80 13v412l-80 13v40h231v-40l-80 -13v-412l80 -13v-40h-90q-37 -28 -61.5 -62t-24.5 -61q0 -20 10.5 -34.5t25.5 -14.5q19 0 32 4l9 -44q-25 -7 -48 -7q-39 0 -64.5 22t-25.5 64q0 35 27.5 71.5t66.5 61.5h-88z" />
    <glyph glyph-name="Jcircumflex.sc" unicode="&#xe8d8;" horiz-adv-x="296" 
d="M187 465v-383q0 -56 -20 -88.5t-57 -62.5l-70 -56l-41 50l60 48q28 20 42.5 44t14.5 69v379l-80 13v40h231v-40zM93 594h-63l101 119h54l101 -119h-64l-63 86h-2z" />
    <glyph glyph-name="Kcommaaccent.sc" unicode="&#xe8e3;" horiz-adv-x="553" 
d="M553 0h-127l-114 182q-37 62 -54 89h-2l-65 -80v-138l78 -13v-40h-229v40l80 13v412l-80 13v40h221v-41l-70 -12v-192h2q11 15 77 92q10 11 40.5 47t48.5 55l-63 10v41h218v-40l-79 -12l-134 -149l170 -264l82 -13v-40zM350 -40q1 -4 1 -13q0 -33 -23 -70t-59 -66l-27 14
q41 50 41 113q0 10 -1 14z" />
    <glyph glyph-name="Lacute.sc" unicode="&#xe8ee;" horiz-adv-x="457" 
d="M440 0h-400v40l80 13v412l-80 13v40h231v-40l-80 -13v-405h193l13 75h43v-135zM171 594h-57l90 119h90z" />
    <glyph glyph-name="Lcaron.sc" unicode="&#xe8f9;" horiz-adv-x="457" 
d="M440 0h-400v40l80 13v412l-80 13v40h231v-40l-80 -13v-405h193l13 75h43v-135zM325 537l60 8q1 -4 1 -14q0 -39 -21.5 -82.5t-55.5 -76.5l-30 6q47 80 47 143q0 11 -1 16z" />
    <glyph glyph-name="Lcommaaccent.sc" unicode="&#xe904;" horiz-adv-x="457" 
d="M440 0h-400v40l80 13v412l-80 13v40h231v-40l-80 -13v-405h193l13 75h43v-135zM292 -40q1 -4 1 -13q0 -33 -23 -70t-59 -66l-27 14q41 50 41 113q0 10 -1 14z" />
    <glyph glyph-name="Lslash.sc" unicode="&#xe90f;" horiz-adv-x="453" 
d="M68 193v51l48 26v195l-80 13v40h231v-40l-80 -13v-156l148 82v-52l-148 -81v-198h193l13 75h43v-135h-400v40l80 13v166z" />
    <glyph glyph-name="Ldot.sc" unicode="&#xe91a;" horiz-adv-x="457" 
d="M440 0h-400v40l80 13v412l-80 13v40h231v-40l-80 -13v-405h193l13 75h43v-135zM272 297q0 19 14 32.5t34 13.5q19 0 32.5 -13.5t13.5 -32.5q0 -20 -13.5 -34t-32.5 -14q-20 0 -34 14t-14 34z" />
    <glyph glyph-name="Nacute.sc" unicode="&#xe925;" horiz-adv-x="634" 
d="M525 0h-63l-188 277q-79 121 -85 132h-2q4 -68 4 -137v-219l77 -13v-40h-228v40l80 13v412l-80 13v40h144l176 -260q77 -112 96 -148h2q-4 56 -4 140v216l-77 13v39h228v-39l-80 -13v-466zM342 594h-57l90 119h90z" />
    <glyph glyph-name="Ncaron.sc" unicode="&#xe930;" horiz-adv-x="634" 
d="M525 0h-63l-188 277q-79 121 -85 132h-2q4 -68 4 -137v-219l77 -13v-40h-228v40l80 13v412l-80 13v40h144l176 -260q77 -112 96 -148h2q-4 56 -4 140v216l-77 13v39h228v-39l-80 -13v-466zM199 713h63l64 -86h2l63 86h64l-101 -119h-54z" />
    <glyph glyph-name="Ntilde.sc" unicode="&#xe93b;" horiz-adv-x="634" 
d="M525 0h-63l-188 277q-79 121 -85 132h-2q4 -68 4 -137v-219l77 -13v-40h-228v40l80 13v412l-80 13v40h144l176 -260q77 -112 96 -148h2q-4 56 -4 140v216l-77 13v39h228v-39l-80 -13v-466zM467 653q-28 -25 -47.5 -36t-44.5 -11t-53.5 20.5t-45.5 20.5q-10 0 -21.5 -6
t-16.5 -10t-26 -21l-25 42q20 17 30.5 24.5t26 14t32.5 6.5q26 0 54.5 -20t44.5 -20q15 0 27 7t37 28z" />
    <glyph glyph-name="Ncommaaccent.sc" unicode="&#xe946;" horiz-adv-x="634" 
d="M525 0h-63l-188 277q-79 121 -85 132h-2q4 -68 4 -137v-219l77 -13v-40h-228v40l80 13v412l-80 13v40h144l176 -260q77 -112 96 -148h2q-4 56 -4 140v216l-77 13v39h228v-39l-80 -13v-466zM364 -40q1 -4 1 -13q0 -33 -23 -70t-59 -66l-27 14q41 50 41 113q0 10 -1 14z
" />
    <glyph glyph-name="Ograve.sc" unicode="&#xe951;" horiz-adv-x="568" 
d="M519 259q0 -125 -63.5 -197t-171.5 -72q-109 0 -172 72t-63 197t63.5 197.5t171.5 72.5q107 0 171 -72.5t64 -197.5zM447 259q0 95 -45 151.5t-118 56.5q-74 0 -118 -56t-44 -152t44 -151.5t118 -55.5q75 0 119 55.5t44 151.5zM326 594h-57l-124 119h90z" />
    <glyph glyph-name="Oacute.sc" unicode="&#xe95c;" horiz-adv-x="568" 
d="M519 259q0 -125 -63.5 -197t-171.5 -72q-109 0 -172 72t-63 197t63.5 197.5t171.5 72.5q107 0 171 -72.5t64 -197.5zM447 259q0 95 -45 151.5t-118 56.5q-74 0 -118 -56t-44 -152t44 -151.5t118 -55.5q75 0 119 55.5t44 151.5zM299 594h-57l90 119h90z" />
    <glyph glyph-name="Ocircumflex.sc" unicode="&#xe967;" horiz-adv-x="568" 
d="M519 259q0 -125 -63.5 -197t-171.5 -72q-109 0 -172 72t-63 197t63.5 197.5t171.5 72.5q107 0 171 -72.5t64 -197.5zM447 259q0 95 -45 151.5t-118 56.5q-74 0 -118 -56t-44 -152t44 -151.5t118 -55.5q75 0 119 55.5t44 151.5zM219 594h-63l101 119h54l101 -119h-64
l-63 86h-2z" />
    <glyph glyph-name="Otilde.sc" unicode="&#xe972;" horiz-adv-x="568" 
d="M519 259q0 -125 -63.5 -197t-171.5 -72q-109 0 -172 72t-63 197t63.5 197.5t171.5 72.5q107 0 171 -72.5t64 -197.5zM447 259q0 95 -45 151.5t-118 56.5q-74 0 -118 -56t-44 -152t44 -151.5t118 -55.5q75 0 119 55.5t44 151.5zM424 653q-28 -25 -47.5 -36t-44.5 -11
t-53.5 20.5t-45.5 20.5q-10 0 -21.5 -6t-16.5 -10t-26 -21l-25 42q20 17 30.5 24.5t26 14t32.5 6.5q26 0 54.5 -20t44.5 -20q15 0 27 7t37 28z" />
    <glyph glyph-name="Odieresis.sc" unicode="&#xe97d;" horiz-adv-x="568" 
d="M519 259q0 -125 -63.5 -197t-171.5 -72q-109 0 -172 72t-63 197t63.5 197.5t171.5 72.5q107 0 171 -72.5t64 -197.5zM447 259q0 95 -45 151.5t-118 56.5q-74 0 -118 -56t-44 -152t44 -151.5t118 -55.5q75 0 119 55.5t44 151.5zM146 652q0 20 14 33.5t33 13.5t33 -13.5
t14 -33.5q0 -18 -14 -32t-33 -14t-33 14t-14 32zM327 652q0 20 13.5 33.5t33.5 13.5t34 -14t14 -33q0 -18 -14.5 -32t-33.5 -14t-33 14t-14 32z" />
    <glyph glyph-name="Omacron.sc" unicode="&#xe988;" horiz-adv-x="568" 
d="M519 259q0 -125 -63.5 -197t-171.5 -72q-109 0 -172 72t-63 197t63.5 197.5t171.5 72.5q107 0 171 -72.5t64 -197.5zM447 259q0 95 -45 151.5t-118 56.5q-74 0 -118 -56t-44 -152t44 -151.5t118 -55.5q75 0 119 55.5t44 151.5zM153 629v47h262v-47h-262z" />
    <glyph glyph-name="Obreve.sc" unicode="&#xe993;" horiz-adv-x="568" 
d="M519 259q0 -125 -63.5 -197t-171.5 -72q-109 0 -172 72t-63 197t63.5 197.5t171.5 72.5q107 0 171 -72.5t64 -197.5zM447 259q0 95 -45 151.5t-118 56.5q-74 0 -118 -56t-44 -152t44 -151.5t118 -55.5q75 0 119 55.5t44 151.5zM163 706h46q3 -27 25 -45.5t50 -18.5
t49.5 18.5t24.5 45.5h47q0 -44 -35.5 -75t-85.5 -31t-85.5 31t-35.5 75z" />
    <glyph glyph-name="Ohungarumlaut.sc" unicode="&#xe99e;" horiz-adv-x="568" 
d="M519 259q0 -125 -63.5 -197t-171.5 -72q-109 0 -172 72t-63 197t63.5 197.5t171.5 72.5q107 0 171 -72.5t64 -197.5zM447 259q0 95 -45 151.5t-118 56.5q-74 0 -118 -56t-44 -152t44 -151.5t118 -55.5q75 0 119 55.5t44 151.5zM231 594h-51l94 122h83zM367 594h-51
l94 122h83z" />
    <glyph glyph-name="Oslash.sc" unicode="&#xe9a9;" horiz-adv-x="571" 
d="M49 259q0 125 64 197.5t171 72.5q90 0 148 -52l51 62l35 -23l-56 -68q59 -73 59 -189q0 -125 -64 -197t-173 -72q-92 0 -150 52l-49 -60l-36 23l55 67q-55 70 -55 187zM450 259q0 78 -31 132h-2l-243 -294q44 -47 110 -47q76 0 121 56.5t45 152.5zM120 259q0 -78 27 -129
h2l243 294q-42 44 -108 44q-74 0 -119 -56.5t-45 -152.5z" />
    <glyph glyph-name="Oslashacute.sc" unicode="&#xe9b4;" horiz-adv-x="571" 
d="M49 259q0 125 64 197.5t171 72.5q90 0 148 -52l51 62l35 -23l-56 -68q59 -73 59 -189q0 -125 -64 -197t-173 -72q-92 0 -150 52l-49 -60l-36 23l55 67q-55 70 -55 187zM450 259q0 78 -31 132h-2l-243 -294q44 -47 110 -47q76 0 121 56.5t45 152.5zM120 259q0 -78 27 -129
h2l243 294q-42 44 -108 44q-74 0 -119 -56.5t-45 -152.5zM300 594h-57l90 119h90z" />
    <glyph glyph-name="OE.sc" unicode="&#xe9bf;" horiz-adv-x="759" 
d="M49 259q0 125 63.5 197.5t170.5 72.5q47 0 87 -11h324v-120h-44l-13 63h-197v-164h173l10 55h41v-163h-41l-10 55h-173v-187h214l13 69h44v-126h-341q-47 -10 -87 -10q-108 0 -171 72.5t-63 196.5zM122 259q0 -97 43.5 -152.5t117.5 -55.5q56 0 87 10v396q-26 10 -87 10
q-73 0 -117 -56t-44 -152z" />
    <glyph glyph-name="Racute.sc" unicode="&#xe9ca;" horiz-adv-x="561" 
d="M556 0h-125l-127 226h-113v-173l77 -13v-40h-228v40l80 13v412l-80 13v40h262q85 0 129.5 -36.5t44.5 -103.5q0 -54 -28.5 -90.5t-81.5 -50.5v-2q14 -19 63 -100l49 -82l78 -13v-40zM405 378q0 40 -28.5 61.5t-79.5 21.5h-106v-178h106q60 0 84 27.5t24 67.5zM293 594
h-57l90 119h90z" />
    <glyph glyph-name="Rcaron.sc" unicode="&#xe9d5;" horiz-adv-x="561" 
d="M556 0h-125l-127 226h-113v-173l77 -13v-40h-228v40l80 13v412l-80 13v40h262q85 0 129.5 -36.5t44.5 -103.5q0 -54 -28.5 -90.5t-81.5 -50.5v-2q14 -19 63 -100l49 -82l78 -13v-40zM405 378q0 40 -28.5 61.5t-79.5 21.5h-106v-178h106q60 0 84 27.5t24 67.5zM150 713h63
l64 -86h2l63 86h64l-101 -119h-54z" />
    <glyph glyph-name="Rcommaaccent.sc" unicode="&#xe9e0;" horiz-adv-x="561" 
d="M556 0h-125l-127 226h-113v-173l77 -13v-40h-228v40l80 13v412l-80 13v40h262q85 0 129.5 -36.5t44.5 -103.5q0 -54 -28.5 -90.5t-81.5 -50.5v-2q14 -19 63 -100l49 -82l78 -13v-40zM405 378q0 40 -28.5 61.5t-79.5 21.5h-106v-178h106q60 0 84 27.5t24 67.5zM352 -40
q1 -4 1 -13q0 -33 -23 -70t-59 -66l-27 14q41 50 41 113q0 10 -1 14z" />
    <glyph glyph-name="Sacute.sc" unicode="&#xe9eb;" horiz-adv-x="445" 
d="M399 148q0 -72 -50.5 -114.5t-132.5 -42.5q-79 0 -172 32v118h44l14 -72q51 -18 114 -18q46 0 78.5 24.5t32.5 68.5q0 41 -30 62.5t-92 42.5q-30 9 -50.5 18t-45 25.5t-37 41t-12.5 56.5q0 62 47.5 99.5t124.5 37.5q60 0 124 -19v-114h-44l-13 66q-30 9 -67 9
q-45 0 -72.5 -22t-27.5 -57q0 -25 17 -42.5t34.5 -25t59.5 -20.5l18 -6q138 -43 138 -148zM243 594h-57l90 119h90z" />
    <glyph glyph-name="Scircumflex.sc" unicode="&#xe9f6;" horiz-adv-x="445" 
d="M399 148q0 -72 -50.5 -114.5t-132.5 -42.5q-79 0 -172 32v118h44l14 -72q51 -18 114 -18q46 0 78.5 24.5t32.5 68.5q0 41 -30 62.5t-92 42.5q-30 9 -50.5 18t-45 25.5t-37 41t-12.5 56.5q0 62 47.5 99.5t124.5 37.5q60 0 124 -19v-114h-44l-13 66q-30 9 -67 9
q-45 0 -72.5 -22t-27.5 -57q0 -25 17 -42.5t34.5 -25t59.5 -20.5l18 -6q138 -43 138 -148zM163 594h-63l101 119h54l101 -119h-64l-63 86h-2z" />
    <glyph glyph-name="Scaron.sc" unicode="&#xea01;" horiz-adv-x="445" 
d="M399 148q0 -72 -50.5 -114.5t-132.5 -42.5q-79 0 -172 32v118h44l14 -72q51 -18 114 -18q46 0 78.5 24.5t32.5 68.5q0 41 -30 62.5t-92 42.5q-30 9 -50.5 18t-45 25.5t-37 41t-12.5 56.5q0 62 47.5 99.5t124.5 37.5q60 0 124 -19v-114h-44l-13 66q-30 9 -67 9
q-45 0 -72.5 -22t-27.5 -57q0 -25 17 -42.5t34.5 -25t59.5 -20.5l18 -6q138 -43 138 -148zM100 713h63l64 -86h2l63 86h64l-101 -119h-54z" />
    <glyph glyph-name="Scedilla.sc" unicode="&#xea0c;" horiz-adv-x="445" 
d="M309 -130q0 -40 -29.5 -64.5t-74.5 -24.5q-46 0 -82 18l16 38q35 -14 62 -14q25 0 40.5 12t15.5 33q0 20 -14.5 31t-32 14.5t-51.5 5.5l25 73q-69 6 -140 31v118h44l14 -72q51 -18 114 -18q46 0 78.5 24.5t32.5 68.5q0 41 -30 62.5t-92 42.5q-30 9 -50.5 18t-45 25.5
t-37 41t-12.5 56.5q0 62 47.5 99.5t124.5 37.5q60 0 124 -19v-114h-44l-13 66q-30 9 -67 9q-45 0 -72.5 -22t-27.5 -57q0 -25 17 -42.5t34.5 -25t59.5 -20.5l18 -6q138 -43 138 -148q0 -69 -46 -110.5t-122 -45.5l-13 -35v-2q39 -4 65 -26.5t26 -58.5z" />
    <glyph glyph-name="Scommaaccent.sc" unicode="&#xea17;" horiz-adv-x="445" 
d="M399 148q0 -72 -50.5 -114.5t-132.5 -42.5q-79 0 -172 32v118h44l14 -72q51 -18 114 -18q46 0 78.5 24.5t32.5 68.5q0 41 -30 62.5t-92 42.5q-30 9 -50.5 18t-45 25.5t-37 41t-12.5 56.5q0 62 47.5 99.5t124.5 37.5q60 0 124 -19v-114h-44l-13 66q-30 9 -67 9
q-45 0 -72.5 -22t-27.5 -57q0 -25 17 -42.5t34.5 -25t59.5 -20.5l18 -6q138 -43 138 -148zM263 -40q1 -4 1 -13q0 -33 -23 -70t-59 -66l-27 14q41 50 41 113q0 10 -1 14z" />
    <glyph glyph-name="Tcaron.sc" unicode="&#xea22;" horiz-adv-x="486" 
d="M405 458h-126v-405l80 -13v-40h-231v40l80 13v405h-127l-14 -70h-43v130h438v-130h-43zM116 713h63l64 -86h2l63 86h64l-101 -119h-54z" />
    <glyph glyph-name="Tcommaaccent.sc" unicode="&#xea2d;" horiz-adv-x="486" 
d="M405 458h-126v-405l80 -13v-40h-231v40l80 13v405h-127l-14 -70h-43v130h438v-130h-43zM284 -40q1 -4 1 -13q0 -33 -23 -70t-59 -66l-27 14q41 50 41 113q0 10 -1 14z" />
    <glyph glyph-name="Tbar.sc" unicode="&#xea38;" horiz-adv-x="486" 
d="M405 458h-126v-157h107v-41h-107v-207l80 -13v-40h-231v40l80 13v207h-106v41h106v157h-127l-14 -70h-43v130h438v-130h-43z" />
    <glyph glyph-name="Thorn.sc" unicode="&#xea43;" horiz-adv-x="498" 
d="M473 274q0 -74 -46 -114t-120 -40q-42 0 -116 2v-69l80 -13v-40h-231v40l80 13v412l-80 13v40h231v-40l-80 -13v-52q34 2 105 2q79 0 128 -36.5t49 -104.5zM405 275q0 39 -30.5 63.5t-88.5 24.5h-95v-190h107q54 0 80.5 29.5t26.5 72.5z" />
    <glyph glyph-name="Ugrave.sc" unicode="&#xea4e;" horiz-adv-x="605" 
d="M500 165q0 -82 -51.5 -128.5t-145.5 -46.5q-93 0 -145.5 46.5t-52.5 128.5v300l-80 13v40h225v-40l-74 -13v-296q0 -53 32 -85t95 -32q62 0 94.5 32t32.5 85v296l-75 13v40h225v-40l-80 -13v-300zM345 594h-57l-124 119h90z" />
    <glyph glyph-name="Uacute.sc" unicode="&#xea59;" horiz-adv-x="605" 
d="M500 165q0 -82 -51.5 -128.5t-145.5 -46.5q-93 0 -145.5 46.5t-52.5 128.5v300l-80 13v40h225v-40l-74 -13v-296q0 -53 32 -85t95 -32q62 0 94.5 32t32.5 85v296l-75 13v40h225v-40l-80 -13v-300zM318 594h-57l90 119h90z" />
    <glyph glyph-name="Ucircumflex.sc" unicode="&#xea64;" horiz-adv-x="605" 
d="M500 165q0 -82 -51.5 -128.5t-145.5 -46.5q-93 0 -145.5 46.5t-52.5 128.5v300l-80 13v40h225v-40l-74 -13v-296q0 -53 32 -85t95 -32q62 0 94.5 32t32.5 85v296l-75 13v40h225v-40l-80 -13v-300zM238 594h-63l101 119h54l101 -119h-64l-63 86h-2z" />
    <glyph glyph-name="Utilde.sc" unicode="&#xea6f;" horiz-adv-x="605" 
d="M500 165q0 -82 -51.5 -128.5t-145.5 -46.5q-93 0 -145.5 46.5t-52.5 128.5v300l-80 13v40h225v-40l-74 -13v-296q0 -53 32 -85t95 -32q62 0 94.5 32t32.5 85v296l-75 13v40h225v-40l-80 -13v-300zM443 653q-28 -25 -47.5 -36t-44.5 -11t-53.5 20.5t-45.5 20.5
q-10 0 -21.5 -6t-16.5 -10t-26 -21l-25 42q20 17 30.5 24.5t26 14t32.5 6.5q26 0 54.5 -20t44.5 -20q15 0 27 7t37 28z" />
    <glyph glyph-name="Udieresis.sc" unicode="&#xea7a;" horiz-adv-x="605" 
d="M500 165q0 -82 -51.5 -128.5t-145.5 -46.5q-93 0 -145.5 46.5t-52.5 128.5v300l-80 13v40h225v-40l-74 -13v-296q0 -53 32 -85t95 -32q62 0 94.5 32t32.5 85v296l-75 13v40h225v-40l-80 -13v-300zM165 652q0 20 13.5 33.5t33.5 13.5t33.5 -13.5t13.5 -33.5q0 -18 -14 -32
t-33 -14t-33 14t-14 32zM346 652q0 20 14 33.5t33 13.5q20 0 34 -14t14 -33q0 -18 -14.5 -32t-33.5 -14t-33 14t-14 32z" />
    <glyph glyph-name="Umacron.sc" unicode="&#xea85;" horiz-adv-x="605" 
d="M500 165q0 -82 -51.5 -128.5t-145.5 -46.5q-93 0 -145.5 46.5t-52.5 128.5v300l-80 13v40h225v-40l-74 -13v-296q0 -53 32 -85t95 -32q62 0 94.5 32t32.5 85v296l-75 13v40h225v-40l-80 -13v-300zM172 629v47h262v-47h-262z" />
    <glyph glyph-name="Ubreve.sc" unicode="&#xea90;" horiz-adv-x="605" 
d="M500 165q0 -82 -51.5 -128.5t-145.5 -46.5q-93 0 -145.5 46.5t-52.5 128.5v300l-80 13v40h225v-40l-74 -13v-296q0 -53 32 -85t95 -32q62 0 94.5 32t32.5 85v296l-75 13v40h225v-40l-80 -13v-300zM182 706h46q3 -27 25 -45.5t50 -18.5t49.5 18.5t24.5 45.5h47
q0 -44 -35.5 -75t-85.5 -31t-85.5 31t-35.5 75z" />
    <glyph glyph-name="Uring.sc" unicode="&#xea9b;" horiz-adv-x="605" 
d="M500 165q0 -82 -51.5 -128.5t-145.5 -46.5q-93 0 -145.5 46.5t-52.5 128.5v300l-80 13v40h225v-40l-74 -13v-296q0 -53 32 -85t95 -32q62 0 94.5 32t32.5 85v296l-75 13v40h225v-40l-80 -13v-300zM212 660q0 40 26.5 67.5t64.5 27.5t64.5 -27.5t26.5 -67.5t-26.5 -67.5
t-64.5 -27.5t-64.5 27.5t-26.5 67.5zM254 660q0 -24 14 -40t35 -16q19 0 33.5 16t14.5 40t-14.5 40.5t-33.5 16.5q-21 0 -35 -16.5t-14 -40.5z" />
    <glyph glyph-name="Uhungarumlaut.sc" unicode="&#xeaa6;" horiz-adv-x="605" 
d="M500 165q0 -82 -51.5 -128.5t-145.5 -46.5q-93 0 -145.5 46.5t-52.5 128.5v300l-80 13v40h225v-40l-74 -13v-296q0 -53 32 -85t95 -32q62 0 94.5 32t32.5 85v296l-75 13v40h225v-40l-80 -13v-300zM250 594h-51l94 122h83zM386 594h-51l94 122h83z" />
    <glyph glyph-name="Uogonek.sc" unicode="&#xeab1;" horiz-adv-x="605" 
d="M228 -133q0 63 80 123h-5q-93 0 -145.5 46.5t-52.5 128.5v300l-80 13v40h225v-40l-74 -13v-296q0 -53 32 -85t95 -32q62 0 94.5 32t32.5 85v296l-75 13v40h225v-40l-80 -13v-300q0 -66 -33.5 -109t-95.5 -58q-35 -28 -58.5 -61t-23.5 -60q0 -20 10.5 -34.5t25.5 -14.5
q19 0 32 4l9 -44q-24 -7 -48 -7q-39 0 -64.5 22t-25.5 64z" />
    <glyph glyph-name="Wacute.sc" unicode="&#xeabc;" horiz-adv-x="780" 
d="M698 465l-141 -465h-69l-65 247q-25 95 -31 131h-2q-6 -33 -31 -130l-66 -248h-69l-141 465l-75 13v40h222v-40l-75 -13l62 -210q33 -119 44 -167h2q31 140 42 181l64 249h46l64 -251q29 -118 42 -179h2q10 47 44 166l62 211l-75 13v40h218v-40zM407 594h-57l90 119h90z
" />
    <glyph glyph-name="Wcircumflex.sc" unicode="&#xeac7;" horiz-adv-x="780" 
d="M698 465l-141 -465h-69l-65 247q-25 95 -31 131h-2q-6 -33 -31 -130l-66 -248h-69l-141 465l-75 13v40h222v-40l-75 -13l62 -210q33 -119 44 -167h2q31 140 42 181l64 249h46l64 -251q29 -118 42 -179h2q10 47 44 166l62 211l-75 13v40h218v-40zM327 594h-63l101 119h54
l101 -119h-64l-63 86h-2z" />
    <glyph glyph-name="Wdieresis.sc" unicode="&#xead2;" horiz-adv-x="780" 
d="M698 465l-141 -465h-69l-65 247q-25 95 -31 131h-2q-6 -33 -31 -130l-66 -248h-69l-141 465l-75 13v40h222v-40l-75 -13l62 -210q33 -119 44 -167h2q31 140 42 181l64 249h46l64 -251q29 -118 42 -179h2q10 47 44 166l62 211l-75 13v40h218v-40zM254 652q0 20 14 33.5
t33 13.5t33 -13.5t14 -33.5q0 -18 -14 -32t-33 -14t-33 14t-14 32zM435 652q0 20 13.5 33.5t33.5 13.5t34 -14t14 -33q0 -18 -14.5 -32t-33.5 -14t-33 14t-14 32z" />
    </font>
</defs>
</svg>
