<?xml version="1.0" standalone="no"?>
<!DOCTYPE svg PUBLIC "-//W3C//DTD SVG 1.1//EN" "http://www.w3.org/Graphics/SVG/1.1/DTD/svg11.dtd" >
<svg>
<metadata>
Created by FontForge 20120731 at Tue Dec 15 21:06:17 2015
 By ,,,
Copyright (c) 2008 Linotype GmbH, www.linotype.com. All rights reserved. This font software may not be reproduced, modified, disclosed or transferred without the express written approval of Linotype GmbH. Aptifer is a trademark of Linotype GmbH and may be registered in certain jurisdictions. This typeface is original artwork of Marten Thavenius. The design may be protected in certain jurisdictions.
</metadata>
<defs>
<font id="AptiferSlabLTPro-Semibold" horiz-adv-x="357" >
  <font-face 
    font-family="Aptifer Slab LT Pro Semibold"
    font-weight="600"
    font-stretch="normal"
    units-per-em="1000"
    panose-1="2 4 7 3 3 4 3 2 2 4"
    ascent="750"
    descent="-250"
    x-height="498"
    cap-height="680"
    bbox="-121 -240 1302 929"
    underline-thickness="50"
    underline-position="-50"
    unicode-range="U+000D-FB04"
  />
<missing-glyph horiz-adv-x="500" 
d="M210 174v-63h53v63h-53zM211 238v-16h46v28q0 32 7.5 47t38.5 43q35 32 47.5 56.5t12.5 56.5q0 56 -33 90t-85 34q-54 0 -88 -32t-40 -98l48 -8q10 90 77 90q30 0 51 -23.5t21 -56.5q0 -37 -46 -80q-34 -30 -45.5 -55.5t-11.5 -75.5zM438 47h-391v585h391v-585zM0 680
v-680h485v680h-485z" />
    <glyph glyph-name="f_b" unicode="fb" horiz-adv-x="946" 
d="M47 405v93h66v71q0 72 58 117t152 45q73 0 142 -28l63 17h50v-285h2q63 75 130 75q99 0 149.5 -67.5t50.5 -194.5q0 -121 -57.5 -190t-153.5 -69q-37 0 -73 16.5t-55 40.5h-2l-5 -46h-108v613q-41 24 -115 24q-47 0 -76.5 -23.5t-29.5 -62.5v-53h125v-93h-125v-316
l92 -14v-75h-296v75l82 14v316h-66zM785 248q0 159 -111 159q-46 0 -96 -70v-196q15 -19 42 -34.5t50 -15.5q52 0 83.5 38.5t31.5 118.5z" />
    <glyph glyph-name="f_f_b" unicode="ffb" horiz-adv-x="1289" 
d="M331 716q90 0 169 -43q58 58 167 58q34 0 75 -8t62 -17l68 14h50v-284h2q62 74 130 74q99 0 149.5 -67.5t50.5 -194.5q0 -121 -57.5 -190t-153.5 -69q-37 0 -73 15.5t-56 40.5h-2l-4 -45h-108v613q-38 24 -116 24q-49 0 -77.5 -24.5t-28.5 -61.5v-53h126v-93h-126v-316
l93 -14v-75h-286v75l71 14v316h-221v-316l84 -14v-75h-288v75l82 14v316h-66v93h66v39q0 78 65 128.5t153 50.5zM1129 248q0 159 -111 159q-46 0 -96 -70v-196q15 -19 41.5 -34.5t49.5 -15.5q53 0 84.5 38.5t31.5 118.5zM235 498h221v58q0 21 8 40q-49 29 -114 29
q-54 0 -84.5 -27.5t-30.5 -75.5v-24z" />
    <glyph glyph-name="f_f_h" unicode="ffh" horiz-adv-x="1323" 
d="M31 0v75l82 14v316h-66v93h66v39q0 78 65 128.5t151 50.5q90 0 172 -43q56 58 166 58q79 0 137 -25l67 14h51v-289h2q52 78 151 78q65 0 105 -40.5t40 -120.5v-259l82 -14v-75h-262v75l58 14v239q0 41 -17.5 61t-44.5 20q-67 0 -114 -64v-256l62 -14v-75h-255v75l71 14
v524q-38 24 -116 24q-46 0 -76 -24t-30 -62v-53h126v-93h-126v-316l85 -14v-75h-278v75l71 14v316h-221v-316l84 -14v-75h-288zM235 498h221v56q0 20 8 42q-48 29 -117 29q-51 0 -81.5 -27t-30.5 -76v-24z" />
    <glyph glyph-name="f_f_j" unicode="ffj" horiz-adv-x="985" 
d="M329 716q88 0 170 -42q57 57 176 57q112 0 198 -51l-36 -80q-74 36 -151 36q-48 0 -78 -19.5t-30 -57.5v-61h344v-407q0 -96 -10 -131t-56 -81l-88 -91l-83 83l78 77q25 24 31 42t6 67v348h-222v-316l93 -14v-75h-286v75l71 14v316h-221v-316l84 -14v-75h-288v75l82 14
v316h-66v93h66v39q0 78 64.5 128.5t151.5 50.5zM235 498h221v59q0 23 7 40q-46 28 -115 28q-49 0 -81 -26.5t-32 -76.5v-24z" />
    <glyph glyph-name="f_f_k" unicode="ffk" horiz-adv-x="1296" 
d="M922 161v-72l72 -13v-76h-265v75l71 14v524q-45 24 -116 24q-45 0 -75.5 -23t-30.5 -63v-53h126v-93h-126v-316l85 -14v-75h-278v75l71 14v316h-221v-316l84 -14v-75h-288v75l82 14v316h-66v93h66v39q0 78 65 128.5t153 50.5q89 0 170 -43q57 58 166 58q28 0 70.5 -7
t66.5 -18l68 14h50v-443h3q11 19 122 139l-52 8v74h251v-73l-78 -15l-91 -97l130 -224l80 -14v-75h-161q-9 18 -42 76.5t-53 98t-29 66.5h-3zM456 548q0 28 8 49q-49 28 -114 28q-49 0 -82 -26t-33 -77v-24h221v50z" />
    <glyph glyph-name="f_f_t" unicode="fft" horiz-adv-x="1091" 
d="M31 0v75l82 14v316h-66v93h66v39q0 78 65 128.5t153 50.5q85 0 165 -40q46 55 128 55q78 0 146 -28l-27 -85q-44 18 -94 18q-28 0 -49.5 -17.5t-21.5 -50.5v-70h222v93l122 40v-133h120v-93h-120v-262q0 -50 44 -50q31 0 82 18l30 -95q-68 -26 -138 -26q-62 0 -101 30.5
t-39 88.5v296h-222v-316l93 -14v-75h-286v75l71 14v316h-221v-316l84 -14v-75h-288zM456 563q0 17 5 35q-43 27 -111 27q-50 0 -82.5 -26t-32.5 -77v-24h221v65z" />
    <glyph glyph-name="f_h" unicode="fh" horiz-adv-x="975" 
d="M47 405v93h66v71q0 74 59 118t154 44q79 0 139 -28l63 17h50v-289h2q50 78 149 78q64 0 103 -40.5t39 -120.5v-259l83 -14v-75h-262v75l57 14v239q0 81 -59 81q-65 0 -112 -64v-256l63 -14v-75h-256v75l71 14v524q-35 24 -113 24q-49 0 -78.5 -23t-29.5 -63v-53h125v-93
h-125v-316l84 -14v-75h-288v75l82 14v316h-66z" />
    <glyph glyph-name="f_j" unicode="fj" horiz-adv-x="641" 
d="M47 405v93h66v79q0 78 62.5 116t157.5 38q46 0 103 -14t93 -37l-36 -80q-25 13 -68.5 24.5t-83.5 11.5q-47 0 -76.5 -20.5t-29.5 -56.5v-61h343v-431q0 -78 -10.5 -110.5t-55.5 -77.5l-93 -91l-78 83l79 77q24 23 30 42t6 67v348h-221v-316l92 -14v-75h-296v75l82 14v316
h-66z" />
    <glyph glyph-name="f_k" unicode="fk" horiz-adv-x="953" 
d="M944 0h-161l-73 136q-43 82 -52 105h-2l-78 -80v-72l74 -13v-76h-267v75l71 14v524q-45 24 -116 24q-45 0 -75 -23.5t-30 -62.5v-53h125v-93h-125v-316l84 -14v-75h-288v75l82 14v316h-66v93h66v71q0 71 57.5 116.5t152.5 45.5q37 0 80 -9t62 -19l63 17h50v-443h3
q16 23 69 80l54 59l-52 8v74h251v-73l-78 -15l-92 -97l131 -224l80 -14v-75z" />
    <glyph glyph-name="f_f" unicode="ff" horiz-adv-x="723" 
d="M330 716q93 0 163 -36q46 51 127 51q72 0 136 -28l-27 -85q-41 18 -84 18q-28 0 -47.5 -17t-19.5 -51v-70h126v-93h-126v-316l97 -14v-75h-290v75l71 14v316h-221v-316l84 -14v-75h-288v75l82 14v316h-66v93h66v39q0 78 64 128.5t153 50.5zM235 498h221v60q0 25 5 40
q-44 27 -111 27q-53 0 -84 -27t-31 -77v-23z" />
    <glyph glyph-name="fi" unicode="fi" horiz-adv-x="682" 
d="M47 405v93h66v79q0 76 61 115t161 39q51 0 106.5 -14.5t87.5 -36.5l-36 -80q-77 36 -150 36q-49 0 -78.5 -20t-29.5 -57v-61h343v-409l82 -14v-75h-275v75l71 14v316h-221v-316l84 -14v-75h-288v75l82 14v316h-66z" />
    <glyph glyph-name="fl" unicode="fl" horiz-adv-x="682" 
d="M47 405v93h66v71q0 75 59.5 118.5t150.5 43.5q78 0 142 -28l63 17h50v-631l83 -14v-75h-276v75l71 14v524q-41 24 -116 24q-46 0 -75.5 -23.5t-29.5 -62.5v-53h125v-93h-125v-316l84 -14v-75h-288v75l82 14v316h-66z" />
    <glyph glyph-name="f_f_i" unicode="ffi" horiz-adv-x="1026" 
d="M235 405v-316l84 -14v-75h-288v75l82 14v316h-66v93h66v39q0 79 64 129t154 50q86 0 166 -40q58 55 182 55q48 0 103 -14t91 -37l-36 -80q-80 36 -150 36q-49 0 -79 -20t-30 -57v-61h344v-409l82 -14v-75h-275v75l71 14v316h-222v-316l85 -14v-75h-278v75l71 14v316h-221
zM235 498h221v54q0 24 6 45q-46 28 -112 28q-52 0 -83.5 -26t-31.5 -78v-23z" />
    <glyph glyph-name="f_f_l" unicode="ffl" horiz-adv-x="1026" 
d="M331 716q90 0 170 -43q58 58 166 58q32 0 74 -8t63 -17l68 14h50v-631l82 -14v-75h-275v75l71 14v524q-42 24 -116 24q-45 0 -75.5 -23t-30.5 -63v-53h126v-93h-126v-316l85 -14v-75h-278v75l71 14v316h-221v-316l84 -14v-75h-288v75l82 14v316h-66v93h66v39
q0 78 65 128.5t153 50.5zM235 498h221v58q0 22 8 40q-47 29 -114 29q-55 0 -85 -28t-30 -75v-24z" />
    <glyph glyph-name="ft" unicode="ft" horiz-adv-x="748" 
d="M734 16q-68 -26 -138 -26q-62 0 -101 30.5t-39 88.5v296h-221v-316l92 -14v-75h-296v75l82 14v316h-66v93h66v90q0 65 49 104t118 39q84 0 147 -28l-27 -85q-43 18 -94 18q-31 0 -51 -18.5t-20 -49.5v-70h221v93l122 40v-133h120v-93h-120v-262q0 -50 44 -50q31 0 82 18z
" />
    <glyph glyph-name=".notdef" horiz-adv-x="500" 
d="M210 174v-63h53v63h-53zM211 238v-16h46v28q0 32 7.5 47t38.5 43q35 32 47.5 56.5t12.5 56.5q0 56 -33 90t-85 34q-54 0 -88 -32t-40 -98l48 -8q10 90 77 90q30 0 51 -23.5t21 -56.5q0 -37 -46 -80q-34 -30 -45.5 -55.5t-11.5 -75.5zM438 47h-391v585h391v-585zM0 680
v-680h485v680h-485z" />
    <glyph glyph-name=".null" horiz-adv-x="0" 
 />
    <glyph glyph-name="nonmarkingreturn" horiz-adv-x="333" 
 />
    <glyph glyph-name="CR" unicode="&#xd;" horiz-adv-x="0" 
 />
    <glyph glyph-name="space" unicode=" " horiz-adv-x="229" 
 />
    <glyph glyph-name="exclam" unicode="!" horiz-adv-x="274" 
d="M71 680h131v-162l-22 -312h-87l-22 312v162zM61 68q0 32 22.5 55.5t53.5 23.5t53.5 -23.5t22.5 -55.5q0 -33 -22 -56t-54 -23t-54 23t-22 56z" />
    <glyph glyph-name="quotedbl" unicode="&#x22;" horiz-adv-x="361" 
d="M59 465l-15 165v90h91v-90l-15 -165h-61zM241 465l-15 165v90h90v-90l-14 -165h-61z" />
    <glyph glyph-name="numbersign" unicode="#" horiz-adv-x="538" 
d="M61 422v78h91l20 157h80l-20 -157h118l20 157h80l-20 -157h77v-78h-89l-21 -165h80v-78h-91l-23 -179h-80l23 179h-118l-22 -179h-80l22 179h-78v78h90l20 165h-79zM220 422l-20 -165h117l21 165h-118z" />
    <glyph glyph-name="dollar" unicode="$" horiz-adv-x="538" 
d="M471 204q0 -76 -43 -124.5t-113 -61.5v-110h-89v106q-68 4 -163 36v155h86l13 -80q38 -15 92 -15q41 0 67.5 23t26.5 61q0 68 -90 94q-39 12 -67 24.5t-56.5 33.5t-43 53t-14.5 74q0 71 45.5 116t109.5 54v101h88v-98q43 -4 109 -25v-141h-84l-14 70q-21 7 -47 7
q-41 0 -63 -22t-22 -54q0 -33 23 -50t72 -33q177 -53 177 -194z" />
    <glyph glyph-name="percent" unicode="%" horiz-adv-x="822" 
d="M330 463q0 -203 -153 -203q-152 0 -152 203q0 97 38.5 149.5t113.5 52.5q76 0 114.5 -52.5t38.5 -149.5zM240 463q0 128 -63 128q-62 0 -62 -128q0 -129 62 -129q63 0 63 129zM612 668l-323 -679h-81l323 679h81zM796 194q0 -203 -153 -203q-152 0 -152 203
q0 97 38.5 149.5t113.5 52.5q76 0 114.5 -52.5t38.5 -149.5zM706 194q0 128 -63 128q-62 0 -62 -128q0 -129 62 -129q63 0 63 129z" />
    <glyph glyph-name="ampersand" unicode="&#x26;" horiz-adv-x="703" 
d="M655 0h-142q-40 45 -57 67q-40 -34 -93.5 -56t-102.5 -22q-101 0 -165 45t-64 142q0 59 51 117t120 89q-39 55 -54.5 85t-15.5 66q0 72 55.5 115t125.5 43q81 0 134.5 -43.5t53.5 -117.5q0 -89 -148 -179q39 -53 119 -146q50 59 74 108h127v-75l-78 -13q-34 -58 -61 -88
q7 -9 19 -24t17 -22l85 -15v-76zM243 530q0 -49 51 -108q97 52 97 108q0 30 -22 48.5t-53 18.5q-29 0 -51 -19t-22 -48zM392 140q-31 40 -76.5 98.5l-52.5 67.5q-44 -23 -78.5 -59.5t-34.5 -70.5q0 -40 30 -65.5t75 -25.5q32 0 73 15.5t64 39.5z" />
    <glyph glyph-name="quotesingle" unicode="'" horiz-adv-x="179" 
d="M59 465l-15 165v90h91v-90l-15 -165h-61z" />
    <glyph glyph-name="parenleft" unicode="(" horiz-adv-x="345" 
d="M95 278q0 247 164 444l73 -48q-65 -105 -97.5 -194t-32.5 -202t32.5 -202t97.5 -194l-73 -49q-164 197 -164 445z" />
    <glyph glyph-name="parenright" unicode=")" horiz-adv-x="345" 
d="M250 278q0 -248 -164 -445l-73 49q65 104 97.5 193.5t32.5 202.5t-32.5 202.5t-97.5 193.5l73 48q164 -197 164 -444z" />
    <glyph glyph-name="asterisk" unicode="*" horiz-adv-x="441" 
d="M27 521l28 86l42 -14l92 -47l2 2l-16 101v45h91v-45l-16 -101l2 -2l92 47l42 14l28 -86l-42 -14l-102 -17l-1 -2l73 -73l26 -36l-73 -53l-26 36l-48 91h-2l-47 -91l-26 -36l-73 53l26 36l73 73l-1 2l-102 17z" />
    <glyph glyph-name="plus" unicode="+" horiz-adv-x="538" 
d="M497 237h-187v-189h-83v189h-186v84h186v183h83v-183h187v-84z" />
    <glyph glyph-name="comma" unicode="," horiz-adv-x="246" 
d="M188 155q1 -7 1 -22q0 -62 -30.5 -135t-77.5 -123l-64 14q24 50 40.5 114t16.5 111q0 17 -1 24z" />
    <glyph glyph-name="hyphen" unicode="-" horiz-adv-x="333" 
d="M32 238v80h269v-80h-269z" />
    <glyph glyph-name="period" unicode="." horiz-adv-x="246" 
d="M47 68q0 32 22.5 55.5t53.5 23.5t53.5 -23.5t22.5 -55.5q0 -33 -22 -56t-54 -23t-54 23t-22 56z" />
    <glyph glyph-name="slash" unicode="/" horiz-adv-x="382" 
d="M292 762h91l-294 -816h-90z" />
    <glyph glyph-name="zero" unicode="0" horiz-adv-x="538" 
d="M506 329q0 -166 -59.5 -253t-177.5 -87t-178 87t-60 253q0 164 60 251.5t177 87.5t177.5 -87.5t60.5 -251.5zM375 329q0 229 -106 229q-107 0 -107 -229q0 -116 25.5 -173t81.5 -57t81 57t25 173z" />
    <glyph glyph-name="one" unicode="1" horiz-adv-x="538" 
d="M447 0h-318v75l98 14v451l-2 1l-113 -60l-33 80l167 96h109v-568l92 -14v-75z" />
    <glyph glyph-name="two" unicode="2" horiz-adv-x="538" 
d="M483 0h-430v56q0 142 82 232q27 30 80.5 63t85.5 62.5t32 68.5q0 74 -96 74q-35 0 -65 -15l-14 -76h-85v159q92 43 192 43q95 0 147 -48t52 -135q0 -38 -11 -69.5t-33 -55t-41.5 -39t-49.5 -36t-45 -32.5q-29 -25 -46 -42t-34 -45t-20 -56v-2h200l13 78h86v-185z" />
    <glyph glyph-name="three" unicode="3" horiz-adv-x="538" 
d="M464 217q0 -108 -82 -167.5t-208 -59.5q-54 0 -116 19l20 107q50 -15 93 -15q69 0 115.5 28.5t46.5 91.5q0 38 -25.5 62t-64.5 24l-38 -4l-12 81q63 11 88 36.5t25 70.5q0 35 -23.5 51.5t-57.5 16.5q-39 0 -68 -20l-16 -74h-84v141q48 32 87.5 46.5t90.5 14.5
q90 0 143.5 -38.5t53.5 -116.5q0 -108 -74 -143v-2q47 -13 76.5 -52.5t29.5 -97.5z" />
    <glyph glyph-name="four" unicode="4" horiz-adv-x="538" 
d="M504 156h-64v-70l82 -14v-72h-287v72l82 14v70h-294v86l235 415h138l-155 -273q-35 -63 -77 -121v-2h153v127h123v-127h64v-105z" />
    <glyph glyph-name="five" unicode="5" horiz-adv-x="538" 
d="M487 226q0 -95 -78.5 -165.5t-209.5 -70.5q-78 0 -153 21l29 106q67 -16 121 -16q63 0 111.5 34t48.5 89q0 96 -94 96q-45 0 -104 -41l-87 52l40 326h319v-107h-208l-22 -162h2q42 31 105 31q90 0 135 -53.5t45 -139.5z" />
    <glyph glyph-name="six" unicode="6" horiz-adv-x="538" 
d="M504 214q0 -97 -63 -161t-167 -64q-101 0 -167 69t-66 172q0 86 20.5 160.5t63.5 138.5t121.5 101.5t183.5 37.5v-104q-97 0 -164.5 -60t-83.5 -143h2q48 62 123 62q89 0 143 -55.5t54 -153.5zM373 214q0 53 -27 84t-67 31q-30 0 -60 -19.5t-43 -54.5q-4 -22 -4 -40
q0 -54 28 -88t74 -34q44 0 71.5 35t27.5 86z" />
    <glyph glyph-name="seven" unicode="7" horiz-adv-x="538" 
d="M475 559q-184 -262 -184 -559h-128q0 297 172 548v2h-177l-15 -79h-84v186h416v-98z" />
    <glyph glyph-name="eight" unicode="8" horiz-adv-x="538" 
d="M492 174q0 -80 -62 -132.5t-160 -52.5t-161.5 52t-63.5 131q0 122 131 174v2q-45 28 -72 63t-27 88q0 70 55.5 119.5t140.5 49.5q84 0 140.5 -48t56.5 -116q0 -56 -28.5 -96.5t-73.5 -61.5v-2q48 -19 86 -62t38 -108zM361 494q0 30 -23.5 54.5t-64.5 24.5
q-38 0 -59 -25.5t-21 -55.5q0 -70 94 -108q74 34 74 110zM367 176q0 49 -31.5 78t-84.5 50q-43 -22 -63 -52t-20 -77q0 -32 28.5 -60.5t74.5 -28.5q43 0 69.5 28.5t26.5 61.5z" />
    <glyph glyph-name="nine" unicode="9" horiz-adv-x="538" 
d="M495 429q0 -92 -20.5 -167.5t-65.5 -138.5t-127.5 -98.5t-195.5 -35.5v104q114 0 183 58t87 149h-2q-50 -60 -122 -60q-90 0 -145.5 53.5t-55.5 150.5t61.5 160.5t165.5 63.5q105 0 171 -65.5t66 -173.5zM364 444q0 53 -30 87t-76 34q-43 0 -69.5 -33.5t-26.5 -84.5
q0 -52 28.5 -81.5t69.5 -29.5q30 0 57.5 18t40.5 52q6 20 6 38z" />
    <glyph glyph-name="colon" unicode=":" horiz-adv-x="246" 
d="M47 408q0 32 22.5 55.5t53.5 23.5t53.5 -23.5t22.5 -55.5q0 -33 -22 -56t-54 -23t-54 23t-22 56zM47 68q0 32 22.5 55.5t53.5 23.5t53.5 -23.5t22.5 -55.5q0 -33 -22 -56t-54 -23t-54 23t-22 56z" />
    <glyph glyph-name="semicolon" unicode=";" horiz-adv-x="256" 
d="M198 153q1 -6 1 -21q0 -63 -30.5 -135t-77.5 -122l-63 14q24 50 40 114t16 112q0 17 -1 24zM57 408q0 32 22.5 55.5t53.5 23.5t53.5 -23.5t22.5 -55.5q0 -33 -22 -56t-54 -23t-54 23t-22 56z" />
    <glyph glyph-name="less" unicode="&#x3c;" horiz-adv-x="538" 
d="M487 18l-436 218v86l436 218v-90l-350 -170v-2l350 -170v-90z" />
    <glyph glyph-name="equal" unicode="=" horiz-adv-x="538" 
d="M41 145v84h456v-84h-456zM41 329v84h456v-84h-456z" />
    <glyph glyph-name="greater" unicode="&#x3e;" horiz-adv-x="538" 
d="M487 236l-436 -218v90l349 170v2l-349 170v90l436 -218v-86z" />
    <glyph glyph-name="question" unicode="?" horiz-adv-x="439" 
d="M243 206h-105v69q0 30 13.5 55.5t33 44t39.5 37t33.5 42.5t13.5 53q0 33 -21.5 52t-54.5 19t-54 -7l-14 -79h-84v171q70 26 149 26q100 0 155 -45t55 -127q0 -53 -25 -95.5t-54.5 -65t-54.5 -48t-25 -46.5v-56zM114 68q0 32 22.5 55.5t53.5 23.5t53.5 -23.5t22.5 -55.5
q0 -33 -22 -56t-54 -23t-54 23t-22 56z" />
    <glyph glyph-name="at" unicode="@" horiz-adv-x="840" 
d="M578 -20l21 -70q-80 -25 -176 -25q-176 0 -275 99.5t-99 273.5q0 164 120.5 281t288.5 117q155 0 244 -84.5t89 -233.5q0 -136 -67 -204.5t-155 -68.5q-28 0 -55.5 15.5t-38.5 41.5h-2q-39 -57 -117 -57q-56 0 -92 45.5t-36 115.5q0 110 69 179t192 69q48 0 114 -26
l-46 -256q0 -23 10 -32t30 -9q43 0 74 50.5t31 132.5q0 118 -62 178.5t-182 60.5q-130 0 -222.5 -93.5t-92.5 -222.5q0 -137 73 -216t206 -79q84 0 156 18zM466 209l32 176q-17 5 -28 5q-60 0 -101 -43t-41 -111q0 -46 15 -65.5t47 -19.5q27 0 50 17.5t26 40.5z" />
    <glyph glyph-name="A" unicode="A" horiz-adv-x="679" 
d="M81 89l183 591h153l181 -590l74 -15v-75h-272v78l75 11l-28 96h-218l-28 -96l76 -11v-78h-270v75zM253 283h169l-25 85q-44 154 -58 211h-2q-27 -109 -59 -213z" />
    <glyph glyph-name="B" unicode="B" horiz-adv-x="636" 
d="M117 89v502l-82 14v75h320q98 0 155 -49t57 -125q0 -78 -72 -132v-2q109 -61 109 -169q0 -91 -55.5 -147t-165.5 -56h-348v75zM245 581v-171h111q42 0 65.5 25.5t23.5 61.5q0 37 -26 60.5t-70 23.5h-104zM245 312v-205h127q48 0 74.5 28.5t26.5 75.5q0 44 -29 72.5
t-75 28.5h-124z" />
    <glyph glyph-name="C" unicode="C" horiz-adv-x="553" 
d="M39 340q0 162 93 256t238 94q64 0 135 -25v-169h-84l-15 78q-17 6 -42 6q-81 0 -137.5 -65t-56.5 -175q0 -113 47 -176t131 -63q67 0 140 23l32 -103q-90 -31 -173 -31q-143 0 -225.5 92.5t-82.5 257.5z" />
    <glyph glyph-name="D" unicode="D" horiz-adv-x="684" 
d="M644 344q0 -163 -83.5 -253.5t-226.5 -90.5h-299v75l82 14v502l-82 14v75h304q135 0 220 -89t85 -247zM513 340q0 111 -50 172t-132 61h-86v-466h86q83 0 132.5 60.5t49.5 172.5z" />
    <glyph glyph-name="E" unicode="E" horiz-adv-x="598" 
d="M555 0h-520v75l82 14v502l-82 14v75h500v-165h-85l-11 60h-194v-173h169l10 43h73v-187h-73l-10 45h-169v-196h214l11 68h85v-175z" />
    <glyph glyph-name="F" unicode="F" horiz-adv-x="552" 
d="M424 575h-179v-191h151l10 46h73v-193h-73l-10 46h-151v-194l88 -14v-75h-298v75l82 14v502l-82 14v75h485v-168h-85z" />
    <glyph glyph-name="G" unicode="G" horiz-adv-x="657" 
d="M575 0h-80l-16 53h-2q-72 -64 -151 -64q-140 0 -213.5 89t-73.5 260q0 161 92 256.5t242 95.5q89 0 168 -30v-167h-84l-15 77q-28 9 -71 9q-88 0 -144.5 -65.5t-56.5 -175.5q0 -116 42 -177.5t124 -61.5q67 0 124 42v100l-83 13v76h263v-77l-65 -12v-241z" />
    <glyph glyph-name="H" unicode="H" horiz-adv-x="749" 
d="M714 0h-280v75l70 14v204h-259v-204l71 -14v-75h-281v75l82 14v502l-82 14v75h281v-75l-71 -14v-191h259v191l-70 14v75h280v-75l-82 -14v-502l82 -14v-75z" />
    <glyph glyph-name="I" unicode="I" horiz-adv-x="362" 
d="M245 591v-502l82 -14v-75h-292v75l82 14v502l-82 14v75h292v-75z" />
    <glyph glyph-name="J" unicode="J" horiz-adv-x="374" 
d="M266 591v-484q0 -71 -26.5 -115.5t-76.5 -85.5l-92 -77l-76 91l77 66q1 1 9.5 8.5t10 9t9 8.5t9 9.5t7.5 10t7.5 12.5t5 13.5t5 16t2.5 17.5t1 21v479l-82 14v75h292v-75z" />
    <glyph glyph-name="K" unicode="K" horiz-adv-x="683" 
d="M681 0h-175l-87 157q-73 128 -92 171h-2l-80 -105v-134l77 -14v-75h-287v75l82 14v502l-82 13v76h265v-77l-55 -12v-203h2q46 61 77 98q14 18 44 53.5t45 54.5l-47 9v77h262v-75l-82 -14l-144 -175l197 -327l82 -14v-75z" />
    <glyph glyph-name="L" unicode="L" horiz-adv-x="544" 
d="M527 0h-492v75l82 15v501l-82 14v75h292v-75l-82 -14v-484h186l12 87h84v-194z" />
    <glyph glyph-name="M" unicode="M" horiz-adv-x="820" 
d="M785 0h-292v75l82 14v168q0 149 3 197h-2q-39 -84 -98 -193l-40 -75h-57l-39 75q-76 144 -98 193h-2q3 -48 3 -198v-167l82 -14v-75h-292v75l82 14v502l-82 14v75h198l71 -136q85 -159 104 -207h2q23 52 106 207l70 136h199v-75l-82 -14v-502l82 -14v-75z" />
    <glyph glyph-name="N" unicode="N" horiz-adv-x="751" 
d="M643 0h-113l-178 276q-68 105 -109 181h-2q4 -66 4 -174v-194l79 -14v-75h-289v76l82 13v502l-82 13v76h196l179 -278q52 -79 107 -179h2q-4 50 -4 176v192l-79 14v75h289v-75l-82 -14v-591z" />
    <glyph glyph-name="O" unicode="O" horiz-adv-x="672" 
d="M632 340q0 -165 -79.5 -258t-216.5 -93q-138 0 -217.5 93t-79.5 258q0 164 80 257.5t217 93.5q136 0 216 -93.5t80 -257.5zM501 340q0 112 -45 176.5t-120 64.5t-120.5 -64t-45.5 -177q0 -114 44.5 -177.5t121.5 -63.5q76 0 120.5 63.5t44.5 177.5z" />
    <glyph glyph-name="P" unicode="P" horiz-adv-x="607" 
d="M586 470q0 -106 -61.5 -164t-171.5 -58h-108v-159l82 -14v-75h-292v75l82 14v502l-82 14v75h305q119 0 182.5 -55.5t63.5 -154.5zM455 469q0 44 -30 74t-83 30h-97v-219h106q51 0 77.5 34t26.5 81z" />
    <glyph glyph-name="Q" unicode="Q" horiz-adv-x="672" 
d="M632 340q0 -121 -43.5 -204t-122.5 -117q72 -49 162 -49q21 0 33 1l-3 -92q-16 -3 -45 -3q-59 0 -104.5 13t-71.5 30.5t-67.5 39.5t-84.5 34q-116 16 -181 106.5t-65 240.5q0 164 80 257.5t217 93.5q136 0 216 -93.5t80 -257.5zM501 340q0 112 -45 176.5t-120 64.5
t-120.5 -64t-45.5 -177q0 -114 44.5 -177.5t121.5 -63.5q76 0 120.5 63.5t44.5 177.5z" />
    <glyph glyph-name="R" unicode="R" horiz-adv-x="664" 
d="M659 0h-178l-129 274h-107v-185l77 -14v-75h-287v75l82 14v502l-82 14v75h314q234 0 234 -198q0 -67 -30.5 -114.5t-84.5 -68.5v-2q24 -45 52 -101l57 -106l82 -15v-75zM452 482q0 43 -28 67t-78 24h-101v-191h102q56 0 80.5 29t24.5 71z" />
    <glyph glyph-name="S" unicode="S" horiz-adv-x="538" 
d="M499 205q0 -97 -63 -156t-183 -59q-90 0 -214 42v167h86l14 -82q53 -20 114 -20q50 0 82 26t32 71q0 39 -25 62t-82 40q-37 11 -62 20t-55 26t-48 36.5t-30.5 50.5t-12.5 70q0 86 64 138.5t173 52.5q69 0 165 -28v-164h-85l-15 76q-28 11 -68 11q-50 0 -77 -22.5
t-27 -59.5q0 -20 8 -34t27.5 -25t35 -16.5t47.5 -15.5q44 -13 75.5 -27.5t62 -38t46 -59t15.5 -82.5z" />
    <glyph glyph-name="T" unicode="T" horiz-adv-x="594" 
d="M573 495h-84l-15 78h-112v-484l82 -14v-75h-292v75l82 14v484h-114l-15 -78h-84v185h552v-185z" />
    <glyph glyph-name="U" unicode="U" horiz-adv-x="718" 
d="M616 225q0 -114 -68 -175t-189 -61q-120 0 -188.5 61t-68.5 175v366l-82 14v75h281v-75l-71 -15v-354q0 -63 32 -100t97 -37t97 37t32 100v355l-70 14v75h280v-75l-82 -14v-366z" />
    <glyph glyph-name="V" unicode="V" horiz-adv-x="641" 
d="M568 591l-171 -591h-151l-173 591l-64 14v75h253v-75l-62 -14l62 -230q45 -177 59 -242h2q5 23 60 242l62 230l-60 14v75h247v-75z" />
    <glyph glyph-name="W" unicode="W" horiz-adv-x="945" 
d="M862 590l-167 -590h-127l-57 237q-26 111 -38 181h-2q-3 -22 -41 -185l-56 -233h-127l-164 591l-74 14v75h275v-75l-76 -14l47 -186q46 -182 57 -244h2q11 71 49 228l73 291h75l71 -285q29 -115 51 -234h2q8 47 53 227l52 202l-76 15v75h272v-75z" />
    <glyph glyph-name="X" unicode="X" horiz-adv-x="688" 
d="M678 0h-287v75l64 12l-47 78q-43 68 -65 112h-2q-36 -69 -65 -111l-48 -79l64 -12v-75h-284v75l75 14l187 272l-155 229l-74 15v75h263v-77l-53 -10l33 -53q29 -45 59 -107h2q27 53 60 107l32 53l-52 10v77h270v-75l-74 -15l-166 -229l189 -272l74 -14v-75z" />
    <glyph glyph-name="Y" unicode="Y" horiz-adv-x="649" 
d="M567 591l-179 -357v-145l82 -14v-75h-292v75l82 14v145l-177 357l-74 14v75h272v-78l-60 -11l34 -79q41 -95 69 -171h2q33 95 69 170l35 78l-61 13v78h272v-75z" />
    <glyph glyph-name="Z" unicode="Z" horiz-adv-x="542" 
d="M509 0h-474v97l225 348q23 36 91 126v2h-191l-15 -78h-85v185h434v-98l-225 -344q-16 -24 -88 -129v-2h229l13 83h86v-190z" />
    <glyph glyph-name="bracketleft" unicode="[" horiz-adv-x="349" 
d="M97 -146v848h227v-74l-116 -14v-673l116 -14v-73h-227z" />
    <glyph glyph-name="backslash" unicode="\" horiz-adv-x="380" 
d="M293 -54l-294 816h88l294 -816h-88z" />
    <glyph glyph-name="bracketright" unicode="]" horiz-adv-x="349" 
d="M252 702v-848h-227v73l116 14v673l-116 14v74h227z" />
    <glyph glyph-name="asciicircum" unicode="^" horiz-adv-x="538" 
d="M501 279h-91l-141 315h-2l-140 -315h-92l188 401h90z" />
    <glyph glyph-name="underscore" unicode="_" horiz-adv-x="500" 
d="M0 -125v50h500v-50h-500z" />
    <glyph glyph-name="grave" unicode="`" horiz-adv-x="455" 
d="M285 582h-90l-139 129h128z" />
    <glyph glyph-name="a" unicode="a" horiz-adv-x="551" 
d="M532 15l-121 -17h-62l-12 51h-2q-6 -4 -22.5 -14t-21 -13t-16.5 -10t-17 -8.5t-14.5 -6t-16.5 -5.5t-16 -2t-19 -1q-67 0 -109 40t-42 114q0 80 39.5 119.5t107.5 39.5q24 0 70 -7.5t70 -8.5v45q0 45 -21 63t-69 18q-34 0 -76 -14l-11 -50h-79v125q112 35 184 35
q101 0 147.5 -43.5t46.5 -130.5v-201q0 -20 4 -42l78 -10v-66zM328 116v104q-17 1 -52 5.5t-47 4.5q-71 0 -71 -77q0 -36 17.5 -57.5t54.5 -21.5q9 0 16.5 1t17 5.5t15.5 7.5t22 12.5t27 15.5z" />
    <glyph glyph-name="b" unicode="b" horiz-adv-x="563" 
d="M527 248q0 -121 -57.5 -190t-153.5 -69q-35 0 -71 17t-58 40h-2l-4 -46h-108v623l-82 6v72l144 19h60v-286h2q21 23 36.5 36t41 26t52.5 13q99 0 149.5 -67t50.5 -194zM402 248q0 159 -111 159q-44 0 -96 -70v-196q15 -19 42 -34.5t50 -15.5q52 0 83.5 38.5t31.5 118.5z
" />
    <glyph glyph-name="c" unicode="c" horiz-adv-x="439" 
d="M405 12q-70 -22 -123 -22q-117 0 -182 68t-65 191q0 122 66.5 190.5t177.5 68.5q49 0 111 -16v-158h-73l-11 65q-14 5 -34 5q-49 0 -80.5 -40t-31.5 -115q0 -77 32 -116t93 -39q46 0 96 18z" />
    <glyph glyph-name="d" unicode="d" horiz-adv-x="593" 
d="M572 15l-123 -17h-65l-6 60h-2q-22 -27 -57.5 -48t-71.5 -21q-96 0 -154 69t-58 190q0 127 51 194t149 67q40 0 69.5 -18.5t61.5 -51.5h2v184l-83 6v72l144 19h61v-629l82 -10v-66zM368 148v194q-48 65 -96 65q-112 0 -112 -159q0 -79 32 -117.5t85 -38.5q22 0 49.5 18.5
t41.5 37.5z" />
    <glyph glyph-name="e" unicode="e" horiz-adv-x="505" 
d="M472 227h-323q0 -66 38.5 -104.5t97.5 -38.5q66 0 143 21l21 -91q-84 -24 -161 -24q-125 0 -189 67.5t-64 193.5q0 121 62 189.5t167 68.5q208 0 208 -254v-28zM369 303v2q0 52 -28 85.5t-77 33.5q-47 0 -78.5 -33.5t-35.5 -87.5h219z" />
    <glyph glyph-name="f" unicode="f" horiz-adv-x="380" 
d="M412 703l-27 -85q-48 18 -84 18q-26 0 -46 -17t-20 -51v-70h125v-93h-125v-316l92 -14v-75h-296v75l82 14v316h-66v93h66v90q0 63 47 103t116 40q75 0 136 -28z" />
    <glyph glyph-name="g" unicode="g" horiz-adv-x="556" 
d="M531 430h-91v-3q16 -13 27 -38t11 -50q0 -77 -59 -124.5t-155 -47.5q-34 0 -68 9q-16 -7 -28 -23.5t-12 -30.5q0 -31 71 -31h113q101 0 148 -30.5t47 -92.5q0 -78 -85 -133.5t-201 -55.5q-215 0 -215 136q0 35 27.5 64.5t62.5 42.5v2q-31 11 -49 33t-18 51
q0 28 21.5 57.5t45.5 39.5v2q-74 48 -74 132q0 76 59.5 123t155.5 47q48 0 85 -10h181v-69zM367 339q0 36 -28 61t-74 25t-74 -25.5t-28 -60.5q0 -36 27.5 -62t73.5 -26q47 0 75 26t28 62zM414 -48q0 49 -95 49h-102q-71 -30 -71 -77q0 -29 31.5 -45t86.5 -16q65 0 107.5 29
t42.5 60z" />
    <glyph glyph-name="h" unicode="h" horiz-adv-x="627" 
d="M606 0h-258v75l54 14v239q0 41 -17 61t-44 20q-68 0 -115 -64v-256l62 -14v-75h-266v75l82 14v534l-82 6v72l144 19h60v-289h2q50 78 152 78q64 0 104 -40.5t40 -120.5v-259l82 -14v-75z" />
    <glyph glyph-name="i" unicode="i" horiz-adv-x="339" 
d="M317 0h-286v75l82 14v312l-82 7v72l144 18h60v-409l82 -14v-75zM96 644q0 29 22 49.5t53 20.5t53 -20.5t22 -49.5t-22 -49.5t-53 -20.5t-53 20.5t-22 49.5z" />
    <glyph glyph-name="j" unicode="j" horiz-adv-x="305" 
d="M-2 -142l75 78q24 25 30 43.5t6 65.5v356l-82 7v72l144 18h60v-442q0 -79 -10.5 -113t-54.5 -76l-93 -88zM92 644q0 29 22 49.5t53 20.5t53 -20.5t22 -49.5t-22 -49.5t-53 -20.5t-53 20.5t-22 49.5z" />
    <glyph glyph-name="k" unicode="k" horiz-adv-x="600" 
d="M591 0h-161l-73 137q-42 78 -51 104h-2l-78 -80v-72l72 -13v-76h-276v75l82 14v534l-82 6v72l144 19h60v-442h3q10 15 67 78l55 60l-52 8v74h251v-73l-78 -15l-91 -97l130 -224l80 -14v-75z" />
    <glyph glyph-name="l" unicode="l" horiz-adv-x="330" 
d="M104 89v534l-82 6v72l144 19h60v-631l82 -14v-75h-286v75z" />
    <glyph glyph-name="m" unicode="m" horiz-adv-x="906" 
d="M885 0h-258v77l54 12v239q0 81 -56 81q-33 0 -56 -17.5t-50 -53.5v-249l57 -12v-77h-232v77l53 12v239q0 81 -55 81q-33 0 -55.5 -17t-51.5 -55v-248l57 -12v-77h-261v75l82 14v312l-82 7v72l144 18h47l7 -75h2q23 38 61.5 62t84.5 24q103 0 130 -90h2q23 39 64 64.5
t88 25.5q65 0 103.5 -40t38.5 -121v-259l82 -14v-75z" />
    <glyph glyph-name="n" unicode="n" horiz-adv-x="636" 
d="M615 0h-258v75l54 14v239q0 41 -16.5 61t-43.5 20q-64 0 -116 -71v-249l62 -14v-75h-266v75l82 14v312l-82 7v72l144 18h47l7 -75h2q21 37 66 61.5t93 24.5q64 0 103.5 -40.5t39.5 -120.5v-259l82 -14v-75z" />
    <glyph glyph-name="o" unicode="o" horiz-adv-x="538" 
d="M269 -11q-105 0 -169.5 69.5t-64.5 190.5q0 122 64.5 191t169.5 69t169 -69t64 -191q0 -121 -64 -190.5t-169 -69.5zM269 93q52 0 80 40t28 116q0 77 -28 117t-80 40t-80.5 -40t-28.5 -117q0 -76 28.5 -116t80.5 -40z" />
    <glyph glyph-name="p" unicode="p" horiz-adv-x="585" 
d="M550 248q0 -120 -57.5 -189.5t-152.5 -69.5q-38 0 -71.5 15t-48.5 38h-2v-163l82 -14v-75h-286v75l82 14v522l-82 7v72l144 18h46l5 -71h2q23 35 61 58.5t79 23.5q98 0 148.5 -66.5t50.5 -194.5zM425 248q0 159 -111 159q-24 0 -51 -20.5t-45 -45.5v-206q15 -18 41 -31
t49 -13q53 0 85 39t32 118z" />
    <glyph glyph-name="q" unicode="q" horiz-adv-x="564" 
d="M572 -210h-287v75l83 14v165h-2q-48 -55 -119 -55q-96 0 -154 69t-58 190q0 127 51 194t150 67q76 0 139 -79h2l4 68h109v-619l82 -14v-75zM368 143v197q-49 67 -96 67q-112 0 -112 -159q0 -80 32 -118t86 -38q22 0 49 16t41 35z" />
    <glyph glyph-name="r" unicode="r" horiz-adv-x="457" 
d="M439 331h-73l-11 70q-6 3 -22 3q-32 0 -58.5 -26t-39.5 -71v-218l92 -14v-75h-296v75l82 14v312l-82 7v72l144 18h46l3 -87h2q9 38 43.5 67.5t75.5 29.5q49 0 94 -26v-151z" />
    <glyph glyph-name="s" unicode="s" horiz-adv-x="436" 
d="M398 152q0 -75 -51.5 -118.5t-144.5 -43.5q-79 0 -163 27v143h75l13 -60q40 -11 69 -11q36 0 61.5 15.5t25.5 43.5q0 21 -12.5 35t-25.5 19.5t-40 13.5q-74 21 -113 52t-39 97q0 64 49 104t129 40q70 0 139 -21v-127h-73l-12 51q-17 6 -41 6q-35 0 -54 -14.5t-19 -36.5
q0 -26 16.5 -36.5t58.5 -22.5q7 -2 11 -3q26 -7 46.5 -16t44.5 -26t37 -45t13 -66z" />
    <glyph glyph-name="t" unicode="t" horiz-adv-x="386" 
d="M373 19q-75 -29 -143 -29q-62 0 -101.5 30.5t-39.5 88.5v296h-67v93h67v93l122 40v-133h123v-93h-123v-262q0 -50 45 -50q36 0 87 18z" />
    <glyph glyph-name="u" unicode="u" horiz-adv-x="615" 
d="M593 15l-126 -17h-61l-10 70h-2q-22 -38 -63 -58.5t-91 -20.5q-64 0 -102.5 40.5t-38.5 120.5v251l-82 7v71l144 19h60v-329q0 -80 58 -80q65 0 110 63v249l-67 7v71l129 19h60v-407l82 -10v-66z" />
    <glyph glyph-name="v" unicode="v" horiz-adv-x="613" 
d="M531 410l-152 -410h-146l-151 410l-74 13v75h256v-80l-59 -8l51 -149q31 -89 50 -164h2q16 63 50 164l52 149l-59 8v80h254v-75z" />
    <glyph glyph-name="w" unicode="w" horiz-adv-x="801" 
d="M719 410l-130 -410h-104l-47 168q-27 94 -36 137h-2q-14 -58 -36 -136l-48 -169h-103l-131 410l-74 13v75h251v-78l-61 -10l36 -127q21 -68 38 -140h2q13 75 42 172l52 183h68l52 -183q27 -96 42 -172h2q12 59 39 144l35 123l-62 10v78h249v-75z" />
    <glyph glyph-name="x" unicode="x" horiz-adv-x="554" 
d="M544 0h-157l-55 88q-14 22 -56 93h-2q-8 -17 -58 -96l-54 -85h-152v75l76 14l124 177l-102 144l-74 15v73h158l44 -71q28 -43 43 -75h2q13 28 42 74l46 72h150v-73l-74 -15l-99 -144l124 -177l74 -14v-75z" />
    <glyph glyph-name="y" unicode="y" horiz-adv-x="611" 
d="M529 410l-123 -310q-65 -156 -139 -230l-102 -102l-72 73l65 67q50 53 78 106l-154 396l-74 13v75h256v-79l-59 -9l42 -116q36 -98 57 -179h2q23 78 61 180l40 115l-59 9v79h255v-75z" />
    <glyph glyph-name="z" unicode="z" horiz-adv-x="484" 
d="M446 0h-408v91l163 200q11 13 94 105v2h-157l-11 -61h-73v161h385v-91l-190 -227q-16 -20 -69 -78v-2h178l13 69h75v-169z" />
    <glyph glyph-name="braceleft" unicode="{" horiz-adv-x="350" 
d="M46 234v90q72 0 72 87v157q0 60 38.5 98t102.5 38h72v-93h-37q-34 0 -49.5 -18.5t-15.5 -59.5v-139q0 -40 -19 -74t-54 -40v-2q35 -5 54 -39.5t19 -74.5v-140q0 -41 15.5 -59t49.5 -18h37v-94h-72q-64 0 -102.5 38t-38.5 97v158q0 88 -72 88z" />
    <glyph glyph-name="bar" unicode="|" horiz-adv-x="295" 
d="M105 720h84v-930h-84v930z" />
    <glyph glyph-name="braceright" unicode="}" horiz-adv-x="350" 
d="M304 234q-72 0 -72 -88v-158q0 -59 -38.5 -97t-102.5 -38h-72v94h37q34 0 49.5 18t15.5 59v140q0 40 18 74t54 40v2q-37 8 -54.5 40.5t-17.5 73.5v139q0 41 -15.5 59.5t-49.5 18.5h-37v93h72q64 0 102.5 -38t38.5 -98v-157q0 -87 72 -87v-90z" />
    <glyph glyph-name="asciitilde" unicode="~" horiz-adv-x="538" 
d="M497 276q-32 -28 -50 -41t-45 -24.5t-55 -11.5q-40 0 -86 33t-72 33q-6 0 -12.5 -1t-11.5 -2.5t-12 -5.5t-11 -6.5t-12.5 -9t-12.5 -9.5t-14.5 -12t-15.5 -13l-47 70q32 28 50 41t44.5 24.5t54.5 11.5q41 0 86 -32.5t72 -32.5q17 0 34.5 8.5t27.5 16t41 33.5z" />
    <glyph glyph-name="uni00A0" unicode="&#xa0;" horiz-adv-x="229" 
 />
    <glyph glyph-name="exclamdown" unicode="&#xa1;" horiz-adv-x="274" 
d="M202 -210h-131v189l22 311h88l21 -311v-189zM61 431q0 32 22.5 55.5t53.5 23.5t53.5 -23.5t22.5 -55.5q0 -33 -22 -56t-54 -23t-54 23t-22 56z" />
    <glyph glyph-name="cent" unicode="&#xa2;" horiz-adv-x="538" 
d="M354 0h-87v80q-74 12 -125.5 85.5t-51.5 167.5t52 167t127 84v73h87v-69q48 -3 89 -18v-154h-73l-12 66q-15 5 -37 5q-47 0 -79.5 -45t-32.5 -109t33 -109.5t80 -45.5q63 0 105 14l30 -97q-47 -16 -105 -21v-74z" />
    <glyph glyph-name="sterling" unicode="&#xa3;" horiz-adv-x="538" 
d="M60 0v86q31 35 55.5 94t28.5 108h-74v91h81v109q0 78 56 129t139 51q59 0 127 -31v-149h-79l-11 72q-13 6 -36 6q-32 0 -52.5 -26.5t-20.5 -60.5v-100h124v-91h-129q-5 -52 -23 -107t-42 -80v-2h189l14 78h86v-177h-433z" />
    <glyph glyph-name="currency" unicode="&#xa4;" horiz-adv-x="538" 
d="M45 504l44 48l71 -74q46 32 109 32q62 0 108 -31l72 72l44 -47l-70 -73q32 -47 32 -111q-2 -69 -32 -115l70 -75l-44 -46l-72 73q-46 -31 -108 -31q-63 0 -108 32l-72 -74l-45 47l71 74q-32 50 -32 115q0 63 31 111zM171 320q0 -50 26 -83.5t72 -33.5t72 33.5t26 83.5
q0 49 -27 80.5t-71 31.5t-71 -31.5t-27 -80.5z" />
    <glyph glyph-name="yen" unicode="&#xa5;" horiz-adv-x="538" 
d="M-19 657h255v-78l-59 -11l28 -67q38 -94 63 -164h2q26 73 60 156l31 73l-59 13v78h254v-75l-75 -14l-93 -206v-2h96v-64h-129l-15 -35v-13h144v-65h-154v-94l82 -14v-75h-286v75l82 14v94h-155v65h145v13l-16 35h-129v64h97v2l-93 206l-76 14v75z" />
    <glyph glyph-name="brokenbar" unicode="&#xa6;" horiz-adv-x="295" 
d="M105 681h84v-337h-84v337zM105 167h84v-337h-84v337z" />
    <glyph glyph-name="section" unicode="&#xa7;" horiz-adv-x="552" 
d="M50 315q0 77 84 123v2q-42 40 -42 95q0 69 55 112.5t144 43.5q74 0 158 -26v-132h-79l-11 58q-21 7 -51 7q-40 0 -66 -18t-26 -44q0 -23 21 -44.5t38.5 -31t56.5 -27.5q7 -3 10 -5q29 -12 42.5 -18t40 -22.5t40 -31.5t25 -39.5t11.5 -53.5q0 -81 -75 -124v-2
q40 -36 40 -92q0 -75 -59.5 -118.5t-156.5 -43.5q-86 0 -182 32v144h84l12 -68q32 -12 69 -12q46 0 75.5 16.5t29.5 46.5q0 13 -7.5 25t-17 21t-27 19t-29 16t-33 15.5t-29.5 13.5q-31 13 -50.5 24t-44.5 30t-37.5 46.5t-12.5 62.5zM159 321q0 -20 15.5 -36.5t28 -23
t47.5 -23.5q11 -5 52 -24t57 -28q34 34 34 62q0 47 -95 91q-12 6 -37.5 17t-40.5 18.5t-24 14.5q-37 -37 -37 -68z" />
    <glyph glyph-name="dieresis" unicode="&#xa8;" horiz-adv-x="455" 
d="M54 644q0 27 20 45.5t48 18.5q29 0 49 -18.5t20 -45.5q0 -26 -20 -44.5t-49 -18.5q-28 0 -48 18.5t-20 44.5zM263 644q0 27 20 45.5t49 18.5t49 -18.5t20 -45.5q0 -26 -20 -44.5t-49 -18.5q-28 0 -48.5 18.5t-20.5 44.5z" />
    <glyph glyph-name="copyright" unicode="&#xa9;" horiz-adv-x="829" 
d="M713 338q0 132 -85.5 225t-212.5 93q-129 0 -214 -93t-85 -225t85 -224t214 -92q128 0 213 92t85 224zM790 339q0 -163 -107 -275.5t-268 -112.5t-269 112.5t-108 275.5q0 161 108 274t269 113q160 0 267.5 -113t107.5 -274zM525 195l21 -74q-70 -20 -121 -20
q-94 0 -150.5 61t-56.5 167q0 111 57 177t150 66q57 0 111 -18v-115h-65l-12 51q-16 4 -35 4q-51 0 -81 -42t-30 -117t29.5 -115t82.5 -40q51 0 100 15z" />
    <glyph glyph-name="ordfeminine" unicode="&#xaa;" horiz-adv-x="351" 
d="M339 277l-76 -9h-47l-8 28h-1q-50 -29 -69 -33q-8 -1 -18 -1q-42 0 -68 23.5t-26 64.5q0 44 24.5 67.5t67.5 23.5q16 0 42.5 -5t41.5 -5v26q0 42 -52 42q-20 0 -39 -6l-7 -31h-57v79q59 19 114 19q66 0 96.5 -25.5t30.5 -78.5v-100q0 -18 3 -28l48 -8v-43zM202 339v49
q-9 0 -28 3t-26 3q-39 0 -39 -39q0 -36 40 -36q14 0 53 20z" />
    <glyph glyph-name="guillemotleft" unicode="&#xab;" horiz-adv-x="517" 
d="M475 69h-116l-115 210l115 209h116l-117 -208v-2zM264 69h-116l-115 210l115 209h116l-117 -208v-2z" />
    <glyph glyph-name="logicalnot" unicode="&#xac;" horiz-adv-x="538" 
d="M497 134h-84v189h-372v84h456v-273z" />
    <glyph glyph-name="uni00AD" unicode="&#xad;" horiz-adv-x="333" 
d="M32 238v80h269v-80h-269z" />
    <glyph glyph-name="registered" unicode="&#xae;" horiz-adv-x="513" 
d="M232 607v-55h30q30 0 30 29q0 26 -30 26h-30zM155 620v27h108q79 0 79 -66q0 -48 -37 -62q8 -12 19 -34l13 -27l29 -5v-27h-65l-39 85h-30v-53l26 -5v-27h-103v27l29 5v156zM413 533q0 69 -45 117.5t-112 48.5t-111.5 -48.5t-44.5 -117.5t44.5 -117.5t111.5 -48.5
t112 48.5t45 117.5zM459 533q0 -87 -58.5 -147.5t-144.5 -60.5t-144.5 60.5t-58.5 147.5t58.5 148t144.5 61t144.5 -61t58.5 -148z" />
    <glyph glyph-name="macron" unicode="&#xaf;" horiz-adv-x="455" 
d="M79 610v69h297v-69h-297z" />
    <glyph glyph-name="degree" unicode="&#xb0;" horiz-adv-x="402" 
d="M371 518q0 -72 -50 -123t-119 -51q-70 0 -120.5 51t-50.5 123t50.5 123t120.5 51q69 0 119 -51t50 -123zM293 517q0 42 -27 73.5t-64 31.5q-39 0 -66 -31t-27 -74q0 -42 27 -72.5t66 -30.5q37 0 64 30.5t27 72.5z" />
    <glyph glyph-name="plusminus" unicode="&#xb1;" horiz-adv-x="538" 
d="M497 287h-187v-179h-83v179h-186v83h186v172h83v-172h187v-83zM497 -26h-456v84h456v-84z" />
    <glyph glyph-name="twosuperior" unicode="&#xb2;" 
d="M318 429h-275v38q0 80 51 134q17 17 50 36t53 35.5t20 38.5q0 41 -58 41q-25 0 -40 -7l-10 -39h-58v92q57 27 128 27q62 0 95 -30t33 -82q0 -28 -13 -51.5t-23.5 -33t-40 -28.5t-33.5 -22l-28.5 -22.5t-21 -23t-14.5 -30.5v-2h117l10 41h58v-112z" />
    <glyph glyph-name="threesuperior" unicode="&#xb3;" 
d="M311 555q0 -65 -52.5 -99.5t-135.5 -34.5q-34 0 -73 11l14 72q35 -9 58 -9q99 0 99 62q0 23 -15 36t-40 13l-22 -3l-9 52q39 6 54 20t15 39q0 19 -14 29.5t-33 10.5q-20 0 -40 -10l-10 -41h-57v86q55 35 113 35q59 0 93.5 -23.5t34.5 -71.5q0 -64 -47 -84v-2
q67 -14 67 -88z" />
    <glyph glyph-name="acute" unicode="&#xb4;" horiz-adv-x="455" 
d="M260 582h-90l101 129h128z" />
    <glyph glyph-name="mu" unicode="&#xb5;" horiz-adv-x="615" 
d="M593 15l-127 -17h-60q-7 35 -10 70h-2q-21 -36 -55.5 -56.5t-76.5 -20.5q-37 0 -51 14h-2v-215h-110v611l-82 7v71l144 19h60v-328q0 -81 59 -81q36 0 61 15.5t48 48.5v248l-67 7v71l129 19h60v-407l82 -10v-66z" />
    <glyph glyph-name="paragraph" unicode="&#xb6;" horiz-adv-x="664" 
d="M54 475q0 91 65 148t170 57h332v-79h-76v-717h-95v717h-70v-717h-95v376q-104 0 -167.5 61t-63.5 154z" />
    <glyph glyph-name="periodcentered" unicode="&#xb7;" horiz-adv-x="246" 
d="M47 279q0 32 22.5 55.5t53.5 23.5t53.5 -23.5t22.5 -55.5q0 -33 -22 -56t-54 -23t-54 23t-22 56z" />
    <glyph glyph-name="cedilla" unicode="&#xb8;" horiz-adv-x="455" 
d="M324 -125q0 -43 -31 -69t-77 -26q-53 0 -93 20l22 50q38 -15 63 -15q22 0 35.5 9.5t13.5 26.5q0 26 -23.5 34t-77.5 11l32 93h60l-18 -47v-2q41 -3 67.5 -26.5t26.5 -58.5z" />
    <glyph glyph-name="onesuperior" unicode="&#xb9;" 
d="M299 429h-222v46l71 11v255l-2 2l-69 -35l-23 50l108 59h74v-331l63 -11v-46z" />
    <glyph glyph-name="ordmasculine" unicode="&#xba;" horiz-adv-x="343" 
d="M318 412q0 -70 -40.5 -110t-105.5 -40q-66 0 -106.5 40t-40.5 110t40.5 109.5t106.5 39.5q65 0 105.5 -39.5t40.5 -109.5zM229 412q0 77 -57 77q-58 0 -58 -77t58 -77q57 0 57 77z" />
    <glyph glyph-name="guillemotright" unicode="&#xbb;" horiz-adv-x="517" 
d="M158 69h-116l116 209v2l-116 208h116l115 -209zM369 69h-116l117 209v2l-117 208h116l115 -209z" />
    <glyph glyph-name="onequarter" unicode="&#xbc;" horiz-adv-x="802" 
d="M274 269h-222v46l71 11v255l-2 2l-69 -35l-23 50l108 59h74v-331l63 -11v-46zM740 94h-38v-37l51 -11v-46h-191v46l56 11v37h-182v58l146 236h94l-146 -226v-2h88v70h84v-70h38v-66zM605 668l-323 -679h-81l323 679h81z" />
    <glyph glyph-name="onehalf" unicode="&#xbd;" horiz-adv-x="802" 
d="M274 269h-222v46l71 11v255l-2 2l-69 -35l-23 50l108 59h74v-331l63 -11v-46zM769 0h-275v38q0 80 51 134q17 17 50 36t53 35.5t20 38.5q0 41 -58 41q-25 0 -40 -7l-10 -39h-58v92q57 27 128 27q62 0 95 -30t33 -82q0 -28 -13 -51.5t-23.5 -33t-40 -28.5t-33.5 -22
l-28.5 -22.5t-21 -23t-14.5 -30.5v-2h117l10 41h58v-112zM600 668l-323 -679h-81l323 679h81z" />
    <glyph glyph-name="threequarters" unicode="&#xbe;" horiz-adv-x="802" 
d="M318 395q0 -65 -52.5 -99.5t-135.5 -34.5q-34 0 -73 11l14 72q34 -9 58 -9q99 0 99 62q0 23 -15 36t-40 13l-22 -3l-9 52q39 6 54 20t15 39q0 19 -14 29.5t-33 10.5q-20 0 -40 -10l-10 -41h-57v86q55 35 113 35q59 0 93.5 -23.5t34.5 -71.5q0 -64 -47 -84v-2
q67 -14 67 -88zM755 94h-38v-37l51 -11v-46h-191v46l56 11v37h-182v58l146 236h94l-146 -226v-2h88v70h84v-70h38v-66zM614 668l-323 -679h-81l323 679h81z" />
    <glyph glyph-name="questiondown" unicode="&#xbf;" horiz-adv-x="440" 
d="M195 209v81h107v-95q0 -36 -21 -67t-45.5 -50t-45.5 -48.5t-21 -64.5q0 -34 22 -54.5t60 -20.5q19 0 47 8l13 82h86v-175q-70 -24 -150 -24q-99 0 -154 46t-55 127q0 43 16 79t39 59t46.5 42t39.5 38t16 37zM174 431q0 32 22.5 55.5t53.5 23.5t53.5 -23.5t22.5 -55.5
q0 -33 -22 -56t-54 -23t-54 23t-22 56z" />
    <glyph glyph-name="Agrave" unicode="&#xc0;" horiz-adv-x="679" 
d="M81 89l183 591h153l181 -590l74 -15v-75h-272v78l75 11l-28 96h-218l-28 -96l76 -11v-78h-270v75zM253 283h169l-25 85q-44 154 -58 211h-2q-27 -109 -59 -213zM409 744h-98l-174 118h142z" />
    <glyph glyph-name="Aacute" unicode="&#xc1;" horiz-adv-x="679" 
d="M81 89l183 591h153l181 -590l74 -15v-75h-272v78l75 11l-28 96h-218l-28 -96l76 -11v-78h-270v75zM253 283h169l-25 85q-44 154 -58 211h-2q-27 -109 -59 -213zM368 744h-97l129 118h142z" />
    <glyph glyph-name="Acircumflex" unicode="&#xc2;" horiz-adv-x="679" 
d="M81 89l183 591h153l181 -590l74 -15v-75h-272v78l75 11l-28 96h-218l-28 -96l76 -11v-78h-270v75zM253 283h169l-25 85q-44 154 -58 211h-2q-27 -109 -59 -213zM264 744h-110l136 118h92l138 -118h-110l-73 71h-2z" />
    <glyph glyph-name="Atilde" unicode="&#xc3;" horiz-adv-x="679" 
d="M81 89l183 591h153l181 -590l74 -15v-75h-272v78l75 11l-28 96h-218l-28 -96l76 -11v-78h-270v75zM253 283h169l-25 85q-44 154 -58 211h-2q-27 -109 -59 -213zM520 796q-69 -50 -122 -50q-32 0 -67 20t-56 20q-28 0 -80 -37l-41 57q69 50 121 50q33 0 68 -20t55 -20
q28 0 79 37z" />
    <glyph glyph-name="Adieresis" unicode="&#xc4;" horiz-adv-x="679" 
d="M81 89l183 591h153l181 -590l74 -15v-75h-272v78l75 11l-28 96h-218l-28 -96l76 -11v-78h-270v75zM253 283h169l-25 85q-44 154 -58 211h-2q-27 -109 -59 -213zM151 801q0 27 19.5 45.5t48.5 18.5t49 -18.5t20 -45.5q0 -26 -20 -45t-49 -19q-28 0 -48 19t-20 45zM387 801
q0 27 19.5 45.5t48.5 18.5t49 -18.5t20 -45.5q0 -26 -20 -45t-49 -19q-28 0 -48 19t-20 45z" />
    <glyph glyph-name="Aring" unicode="&#xc5;" horiz-adv-x="679" 
d="M81 89l183 591h153l181 -590l74 -15v-75h-272v78l75 11l-28 96h-218l-28 -96l76 -11v-78h-270v75zM253 283h169l-25 85q-44 154 -58 211h-2q-27 -109 -59 -213zM229 818q0 46 31.5 78.5t76.5 32.5t76.5 -32.5t31.5 -78.5t-31.5 -78.5t-76.5 -32.5t-76.5 32.5t-31.5 78.5z
M288 818q0 -25 14 -41.5t35 -16.5q20 0 34.5 16.5t14.5 41.5q0 24 -14.5 41t-34.5 17q-21 0 -35 -17t-14 -41z" />
    <glyph glyph-name="AE" unicode="&#xc6;" horiz-adv-x="930" 
d="M886 0h-507v76l69 13v96h-204l-54 -96l64 -13v-76h-273v75l79 14l283 502l-74 13v76h598v-165h-85l-11 60h-194v-173h169l10 43h73v-187h-73l-10 45h-169v-197h214l11 68h84v-174zM291 283h157v92q0 122 3 199h-2q-32 -62 -106 -196z" />
    <glyph glyph-name="Ccedilla" unicode="&#xc7;" horiz-adv-x="553" 
d="M423 -125q0 -43 -31 -69t-77 -26q-53 0 -93 20l22 50q38 -15 63 -15q22 0 35.5 9.5t13.5 26.5q0 26 -23.5 34t-77.5 11l27 80q-115 20 -179 109.5t-64 234.5q0 162 93 256t238 94q64 0 135 -25v-169h-84l-15 78q-17 6 -42 6q-81 0 -137.5 -65t-56.5 -175q0 -113 47 -176
t131 -63q67 0 140 23l32 -103q-90 -31 -173 -31h-8l-10 -28v-2q41 -3 67.5 -26.5t26.5 -58.5z" />
    <glyph glyph-name="Egrave" unicode="&#xc8;" horiz-adv-x="598" 
d="M555 0h-520v75l82 14v502l-82 14v75h500v-165h-85l-11 60h-194v-173h169l10 43h73v-187h-73l-10 45h-169v-196h214l11 68h85v-175zM380 744h-98l-174 118h142z" />
    <glyph glyph-name="Eacute" unicode="&#xc9;" horiz-adv-x="598" 
d="M555 0h-520v75l82 14v502l-82 14v75h500v-165h-85l-11 60h-194v-173h169l10 43h73v-187h-73l-10 45h-169v-196h214l11 68h85v-175zM339 744h-97l129 118h142z" />
    <glyph glyph-name="Ecircumflex" unicode="&#xca;" horiz-adv-x="598" 
d="M555 0h-520v75l82 14v502l-82 14v75h500v-165h-85l-11 60h-194v-173h169l10 43h73v-187h-73l-10 45h-169v-196h214l11 68h85v-175zM235 744h-110l136 118h92l138 -118h-110l-73 71h-2z" />
    <glyph glyph-name="Edieresis" unicode="&#xcb;" horiz-adv-x="598" 
d="M555 0h-520v75l82 14v502l-82 14v75h500v-165h-85l-11 60h-194v-173h169l10 43h73v-187h-73l-10 45h-169v-196h214l11 68h85v-175zM122 801q0 27 19.5 45.5t48.5 18.5t49 -18.5t20 -45.5q0 -26 -20 -45t-49 -19q-28 0 -48 19t-20 45zM358 801q0 27 19.5 45.5t48.5 18.5
t49 -18.5t20 -45.5q0 -26 -20 -45t-49 -19q-28 0 -48 19t-20 45z" />
    <glyph glyph-name="Igrave" unicode="&#xcc;" horiz-adv-x="362" 
d="M245 591v-502l82 -14v-75h-292v75l82 14v502l-82 14v75h292v-75zM253 744h-98l-174 118h142z" />
    <glyph glyph-name="Iacute" unicode="&#xcd;" horiz-adv-x="362" 
d="M245 591v-502l82 -14v-75h-292v75l82 14v502l-82 14v75h292v-75zM212 744h-97l129 118h142z" />
    <glyph glyph-name="Icircumflex" unicode="&#xce;" horiz-adv-x="362" 
d="M245 591v-502l82 -14v-75h-292v75l82 14v502l-82 14v75h292v-75zM108 744h-110l136 118h92l138 -118h-110l-73 71h-2z" />
    <glyph glyph-name="Idieresis" unicode="&#xcf;" horiz-adv-x="362" 
d="M245 591v-502l82 -14v-75h-292v75l82 14v502l-82 14v75h292v-75zM-5 801q0 27 19.5 45.5t48.5 18.5t49 -18.5t20 -45.5q0 -26 -20 -45t-49 -19q-28 0 -48 19t-20 45zM231 801q0 27 19.5 45.5t48.5 18.5t49 -18.5t20 -45.5q0 -26 -20 -45t-49 -19q-28 0 -48 19t-20 45z
" />
    <glyph glyph-name="Eth" unicode="&#xd0;" horiz-adv-x="685" 
d="M53 303v92h65v196l-82 14v75h305q133 0 218.5 -89t85.5 -247q0 -163 -83 -253.5t-226 -90.5h-300v75l82 14v214h-65zM514 340q0 111 -50 172t-132 61h-86v-178h114v-92h-114v-196h86q83 0 132.5 60.5t49.5 172.5z" />
    <glyph glyph-name="Ntilde" unicode="&#xd1;" horiz-adv-x="751" 
d="M643 0h-113l-178 276q-68 105 -109 181h-2q4 -66 4 -174v-194l79 -14v-75h-289v76l82 13v502l-82 13v76h196l179 -278q52 -79 107 -179h2q-4 50 -4 176v192l-79 14v75h289v-75l-82 -14v-591zM555 796q-69 -50 -122 -50q-32 0 -67 20t-56 20q-28 0 -80 -37l-41 57
q69 50 121 50q33 0 68 -20t55 -20q28 0 79 37z" />
    <glyph glyph-name="Ograve" unicode="&#xd2;" horiz-adv-x="672" 
d="M632 340q0 -165 -79.5 -258t-216.5 -93q-138 0 -217.5 93t-79.5 258q0 164 80 257.5t217 93.5q136 0 216 -93.5t80 -257.5zM501 340q0 112 -45 176.5t-120 64.5t-120.5 -64t-45.5 -177q0 -114 44.5 -177.5t121.5 -63.5q76 0 120.5 63.5t44.5 177.5zM407 744h-98l-174 118
h142z" />
    <glyph glyph-name="Oacute" unicode="&#xd3;" horiz-adv-x="672" 
d="M632 340q0 -165 -79.5 -258t-216.5 -93q-138 0 -217.5 93t-79.5 258q0 164 80 257.5t217 93.5q136 0 216 -93.5t80 -257.5zM501 340q0 112 -45 176.5t-120 64.5t-120.5 -64t-45.5 -177q0 -114 44.5 -177.5t121.5 -63.5q76 0 120.5 63.5t44.5 177.5zM366 744h-97l129 118
h142z" />
    <glyph glyph-name="Ocircumflex" unicode="&#xd4;" horiz-adv-x="672" 
d="M632 340q0 -165 -79.5 -258t-216.5 -93q-138 0 -217.5 93t-79.5 258q0 164 80 257.5t217 93.5q136 0 216 -93.5t80 -257.5zM501 340q0 112 -45 176.5t-120 64.5t-120.5 -64t-45.5 -177q0 -114 44.5 -177.5t121.5 -63.5q76 0 120.5 63.5t44.5 177.5zM262 744h-110l136 118
h92l138 -118h-110l-73 71h-2z" />
    <glyph glyph-name="Otilde" unicode="&#xd5;" horiz-adv-x="672" 
d="M632 340q0 -165 -79.5 -258t-216.5 -93q-138 0 -217.5 93t-79.5 258q0 164 80 257.5t217 93.5q136 0 216 -93.5t80 -257.5zM501 340q0 112 -45 176.5t-120 64.5t-120.5 -64t-45.5 -177q0 -114 44.5 -177.5t121.5 -63.5q76 0 120.5 63.5t44.5 177.5zM518 796
q-69 -50 -122 -50q-32 0 -67 20t-56 20q-28 0 -80 -37l-41 57q69 50 121 50q33 0 68 -20t55 -20q28 0 79 37z" />
    <glyph glyph-name="Odieresis" unicode="&#xd6;" horiz-adv-x="672" 
d="M632 340q0 -165 -79.5 -258t-216.5 -93q-138 0 -217.5 93t-79.5 258q0 164 80 257.5t217 93.5q136 0 216 -93.5t80 -257.5zM501 340q0 112 -45 176.5t-120 64.5t-120.5 -64t-45.5 -177q0 -114 44.5 -177.5t121.5 -63.5q76 0 120.5 63.5t44.5 177.5zM149 801
q0 27 19.5 45.5t48.5 18.5t49 -18.5t20 -45.5q0 -26 -20 -45t-49 -19q-28 0 -48 19t-20 45zM385 801q0 27 19.5 45.5t48.5 18.5t49 -18.5t20 -45.5q0 -26 -20 -45t-49 -19q-28 0 -48 19t-20 45z" />
    <glyph glyph-name="multiply" unicode="&#xd7;" horiz-adv-x="538" 
d="M419 71l-148 148l-151 -151l-59 60l151 150l-148 148l59 60l148 -149l146 147l59 -60l-146 -146l149 -148z" />
    <glyph glyph-name="Oslash" unicode="&#xd8;" horiz-adv-x="679" 
d="M44 7l66 91q-70 95 -70 242q0 164 81 257.5t218 93.5q98 0 167 -55l58 81l70 -46l-67 -91q72 -96 72 -240q0 -165 -81 -258t-219 -93q-97 0 -166 53l-59 -80zM170 340q0 -66 23 -119h2l241 317q-38 43 -97 43q-76 0 -122.5 -64.5t-46.5 -176.5zM509 340q0 64 -25 118h-2
l-241 -318q39 -41 98 -41q77 0 123.5 63.5t46.5 177.5z" />
    <glyph glyph-name="Ugrave" unicode="&#xd9;" horiz-adv-x="718" 
d="M616 225q0 -114 -68 -175t-189 -61q-120 0 -188.5 61t-68.5 175v366l-82 14v75h281v-75l-71 -15v-354q0 -63 32 -100t97 -37t97 37t32 100v355l-70 14v75h280v-75l-82 -14v-366zM430 744h-98l-174 118h142z" />
    <glyph glyph-name="Uacute" unicode="&#xda;" horiz-adv-x="718" 
d="M616 225q0 -114 -68 -175t-189 -61q-120 0 -188.5 61t-68.5 175v366l-82 14v75h281v-75l-71 -15v-354q0 -63 32 -100t97 -37t97 37t32 100v355l-70 14v75h280v-75l-82 -14v-366zM389 744h-97l129 118h142z" />
    <glyph glyph-name="Ucircumflex" unicode="&#xdb;" horiz-adv-x="718" 
d="M616 225q0 -114 -68 -175t-189 -61q-120 0 -188.5 61t-68.5 175v366l-82 14v75h281v-75l-71 -15v-354q0 -63 32 -100t97 -37t97 37t32 100v355l-70 14v75h280v-75l-82 -14v-366zM285 744h-110l136 118h92l138 -118h-110l-73 71h-2z" />
    <glyph glyph-name="Udieresis" unicode="&#xdc;" horiz-adv-x="718" 
d="M616 225q0 -114 -68 -175t-189 -61q-120 0 -188.5 61t-68.5 175v366l-82 14v75h281v-75l-71 -15v-354q0 -63 32 -100t97 -37t97 37t32 100v355l-70 14v75h280v-75l-82 -14v-366zM172 801q0 27 19.5 45.5t48.5 18.5t49 -18.5t20 -45.5q0 -26 -20 -45t-49 -19q-28 0 -48 19
t-20 45zM408 801q0 27 19.5 45.5t48.5 18.5t49 -18.5t20 -45.5q0 -26 -20 -45t-49 -19q-28 0 -48 19t-20 45z" />
    <glyph glyph-name="Yacute" unicode="&#xdd;" horiz-adv-x="649" 
d="M567 591l-179 -357v-145l82 -14v-75h-292v75l82 14v145l-177 357l-74 14v75h272v-78l-60 -11l34 -79q41 -95 69 -171h2q33 95 69 170l35 78l-61 13v78h272v-75zM356 744h-97l129 118h142z" />
    <glyph glyph-name="Thorn" unicode="&#xde;" horiz-adv-x="596" 
d="M576 350q0 -98 -59 -147.5t-168 -49.5h-104v-64l82 -14v-75h-292v75l82 14v502l-82 14v75h292v-75l-82 -14v-55h92q239 0 239 -186zM445 350q0 39 -27 63t-81 24h-92v-185h102q51 0 74.5 28t23.5 70z" />
    <glyph glyph-name="germandbls" unicode="&#xdf;" horiz-adv-x="670" 
d="M646 159q0 -79 -56 -124t-135 -45q-52 0 -114 16v158h73l12 -66q26 -4 37 -4q27 0 47 16.5t20 47.5q0 25 -17.5 43t-52 38.5t-49.5 32.5q-55 49 -55 115q0 42 38 88.5t38 78.5q0 37 -28 58t-72 21q-41 0 -69 -23.5t-28 -61.5v-459l69 -14v-75h-273v75l82 14v309h-66v100
h66v65q0 77 64 122.5t145 45.5q89 0 155.5 -42t66.5 -125q0 -40 -18.5 -69.5t-37 -54t-18.5 -51.5q0 -25 13.5 -42t48.5 -39.5t42 -28.5q22 -17 35 -30t25 -37.5t12 -52.5z" />
    <glyph glyph-name="agrave" unicode="&#xe0;" horiz-adv-x="551" 
d="M532 15l-121 -17h-62l-12 51h-2q-6 -4 -22.5 -14t-21 -13t-16.5 -10t-17 -8.5t-14.5 -6t-16.5 -5.5t-16 -2t-19 -1q-67 0 -109 40t-42 114q0 80 39.5 119.5t107.5 39.5q24 0 70 -7.5t70 -8.5v45q0 45 -21 63t-69 18q-34 0 -76 -14l-11 -50h-79v125q112 35 184 35
q101 0 147.5 -43.5t46.5 -130.5v-201q0 -20 4 -42l78 -10v-66zM328 116v104q-17 1 -52 5.5t-47 4.5q-71 0 -71 -77q0 -36 17.5 -57.5t54.5 -21.5q9 0 16.5 1t17 5.5t15.5 7.5t22 12.5t27 15.5zM319 582h-90l-139 129h128z" />
    <glyph glyph-name="aacute" unicode="&#xe1;" horiz-adv-x="551" 
d="M532 15l-121 -17h-62l-12 51h-2q-6 -4 -22.5 -14t-21 -13t-16.5 -10t-17 -8.5t-14.5 -6t-16.5 -5.5t-16 -2t-19 -1q-67 0 -109 40t-42 114q0 80 39.5 119.5t107.5 39.5q24 0 70 -7.5t70 -8.5v45q0 45 -21 63t-69 18q-34 0 -76 -14l-11 -50h-79v125q112 35 184 35
q101 0 147.5 -43.5t46.5 -130.5v-201q0 -20 4 -42l78 -10v-66zM328 116v104q-17 1 -52 5.5t-47 4.5q-71 0 -71 -77q0 -36 17.5 -57.5t54.5 -21.5q9 0 16.5 1t17 5.5t15.5 7.5t22 12.5t27 15.5zM294 582h-90l101 129h128z" />
    <glyph glyph-name="acircumflex" unicode="&#xe2;" horiz-adv-x="551" 
d="M532 15l-121 -17h-62l-12 51h-2q-6 -4 -22.5 -14t-21 -13t-16.5 -10t-17 -8.5t-14.5 -6t-16.5 -5.5t-16 -2t-19 -1q-67 0 -109 40t-42 114q0 80 39.5 119.5t107.5 39.5q24 0 70 -7.5t70 -8.5v45q0 45 -21 63t-69 18q-34 0 -76 -14l-11 -50h-79v125q112 35 184 35
q101 0 147.5 -43.5t46.5 -130.5v-201q0 -20 4 -42l78 -10v-66zM328 116v104q-17 1 -52 5.5t-47 4.5q-71 0 -71 -77q0 -36 17.5 -57.5t54.5 -21.5q9 0 16.5 1t17 5.5t15.5 7.5t22 12.5t27 15.5zM199 582h-96l117 129h83l117 -129h-96l-62 81h-2z" />
    <glyph glyph-name="atilde" unicode="&#xe3;" horiz-adv-x="551" 
d="M532 15l-121 -17h-62l-12 51h-2q-6 -4 -22.5 -14t-21 -13t-16.5 -10t-17 -8.5t-14.5 -6t-16.5 -5.5t-16 -2t-19 -1q-67 0 -109 40t-42 114q0 80 39.5 119.5t107.5 39.5q24 0 70 -7.5t70 -8.5v45q0 45 -21 63t-69 18q-34 0 -76 -14l-11 -50h-79v125q112 35 184 35
q101 0 147.5 -43.5t46.5 -130.5v-201q0 -20 4 -42l78 -10v-66zM328 116v104q-17 1 -52 5.5t-47 4.5q-71 0 -71 -77q0 -36 17.5 -57.5t54.5 -21.5q9 0 16.5 1t17 5.5t15.5 7.5t22 12.5t27 15.5zM427 641q-33 -29 -57.5 -42.5t-53.5 -13.5t-61 22t-51 22q-4 0 -7.5 -0.5
t-7.5 -2t-7 -2.5t-7 -4t-7 -4.5t-8 -6t-8 -6.5t-9.5 -7t-9.5 -8l-37 60q32 28 55.5 41.5t52.5 13.5q30 0 62 -22t50 -22q17 0 31 8.5t40 31.5z" />
    <glyph glyph-name="adieresis" unicode="&#xe4;" horiz-adv-x="551" 
d="M532 15l-121 -17h-62l-12 51h-2q-6 -4 -22.5 -14t-21 -13t-16.5 -10t-17 -8.5t-14.5 -6t-16.5 -5.5t-16 -2t-19 -1q-67 0 -109 40t-42 114q0 80 39.5 119.5t107.5 39.5q24 0 70 -7.5t70 -8.5v45q0 45 -21 63t-69 18q-34 0 -76 -14l-11 -50h-79v125q112 35 184 35
q101 0 147.5 -43.5t46.5 -130.5v-201q0 -20 4 -42l78 -10v-66zM328 116v104q-17 1 -52 5.5t-47 4.5q-71 0 -71 -77q0 -36 17.5 -57.5t54.5 -21.5q9 0 16.5 1t17 5.5t15.5 7.5t22 12.5t27 15.5zM88 644q0 27 20 45.5t48 18.5q29 0 49 -18.5t20 -45.5q0 -26 -20 -44.5
t-49 -18.5q-28 0 -48 18.5t-20 44.5zM297 644q0 27 20 45.5t49 18.5t49 -18.5t20 -45.5q0 -26 -20 -44.5t-49 -18.5q-28 0 -48.5 18.5t-20.5 44.5z" />
    <glyph glyph-name="aring" unicode="&#xe5;" horiz-adv-x="551" 
d="M532 15l-121 -17h-62l-12 51h-2q-6 -4 -22.5 -14t-21 -13t-16.5 -10t-17 -8.5t-14.5 -6t-16.5 -5.5t-16 -2t-19 -1q-67 0 -109 40t-42 114q0 80 39.5 119.5t107.5 39.5q24 0 70 -7.5t70 -8.5v45q0 45 -21 63t-69 18q-34 0 -76 -14l-11 -50h-79v125q112 35 184 35
q101 0 147.5 -43.5t46.5 -130.5v-201q0 -20 4 -42l78 -10v-66zM328 116v104q-17 1 -52 5.5t-47 4.5q-71 0 -71 -77q0 -36 17.5 -57.5t54.5 -21.5q9 0 16.5 1t17 5.5t15.5 7.5t22 12.5t27 15.5zM153 656q0 46 31.5 78.5t76.5 32.5t76.5 -32.5t31.5 -78.5t-31.5 -78.5
t-76.5 -32.5t-76.5 32.5t-31.5 78.5zM212 656q0 -25 14 -41.5t35 -16.5q20 0 34.5 16.5t14.5 41.5q0 24 -14.5 41t-34.5 17q-21 0 -35 -17t-14 -41z" />
    <glyph glyph-name="ae" unicode="&#xe6;" horiz-adv-x="792" 
d="M41 142q0 80 39.5 120t109.5 40q24 0 70.5 -8.5t71.5 -9.5v50q0 78 -93 78q-31 0 -77 -14l-11 -50h-79v125q112 35 181 35q54 0 90.5 -24.5t46.5 -58.5h2q18 36 63 60t91 24q212 0 212 -254v-28h-322q0 -66 38 -104.5t95 -38.5q70 0 145 21l22 -91q-84 -24 -166 -24
q-65 0 -115 25t-71 62h-2q-24 -40 -74 -64t-115 -24q-67 0 -109.5 39.5t-42.5 113.5zM158 153q0 -35 17.5 -57t52.5 -22q28 0 65.5 17.5t58.5 39.5q-16 38 -19 86q-17 1 -54.5 7t-50.5 6q-70 0 -70 -77zM437 303h219q0 54 -28 87.5t-77 33.5q-44 0 -77 -33t-37 -88z" />
    <glyph glyph-name="ccedilla" unicode="&#xe7;" horiz-adv-x="439" 
d="M356 -125q0 -43 -31 -69t-77 -26q-53 0 -93 20l22 50q38 -15 63 -15q22 0 35.5 9.5t13.5 26.5q0 26 -23.5 34t-77.5 11l27 81q-86 17 -133 82.5t-47 169.5q0 122 66.5 190.5t177.5 68.5q49 0 111 -16v-158h-73l-11 65q-14 5 -34 5q-49 0 -80.5 -40t-31.5 -115
q0 -77 32 -116t93 -39q46 0 96 18l24 -100q-70 -22 -123 -22h-10l-10 -28v-2q41 -3 67.5 -26.5t26.5 -58.5z" />
    <glyph glyph-name="egrave" unicode="&#xe8;" horiz-adv-x="505" 
d="M472 227h-323q0 -66 38.5 -104.5t97.5 -38.5q66 0 143 21l21 -91q-84 -24 -161 -24q-125 0 -189 67.5t-64 193.5q0 121 62 189.5t167 68.5q208 0 208 -254v-28zM369 303v2q0 52 -28 85.5t-77 33.5q-47 0 -78.5 -33.5t-35.5 -87.5h219zM322 582h-90l-139 129h128z" />
    <glyph glyph-name="eacute" unicode="&#xe9;" horiz-adv-x="505" 
d="M472 227h-323q0 -66 38.5 -104.5t97.5 -38.5q66 0 143 21l21 -91q-84 -24 -161 -24q-125 0 -189 67.5t-64 193.5q0 121 62 189.5t167 68.5q208 0 208 -254v-28zM369 303v2q0 52 -28 85.5t-77 33.5q-47 0 -78.5 -33.5t-35.5 -87.5h219zM297 582h-90l101 129h128z" />
    <glyph glyph-name="ecircumflex" unicode="&#xea;" horiz-adv-x="505" 
d="M472 227h-323q0 -66 38.5 -104.5t97.5 -38.5q66 0 143 21l21 -91q-84 -24 -161 -24q-125 0 -189 67.5t-64 193.5q0 121 62 189.5t167 68.5q208 0 208 -254v-28zM369 303v2q0 52 -28 85.5t-77 33.5q-47 0 -78.5 -33.5t-35.5 -87.5h219zM202 582h-96l117 129h83l117 -129
h-96l-62 81h-2z" />
    <glyph glyph-name="edieresis" unicode="&#xeb;" horiz-adv-x="505" 
d="M472 227h-323q0 -66 38.5 -104.5t97.5 -38.5q66 0 143 21l21 -91q-84 -24 -161 -24q-125 0 -189 67.5t-64 193.5q0 121 62 189.5t167 68.5q208 0 208 -254v-28zM369 303v2q0 52 -28 85.5t-77 33.5q-47 0 -78.5 -33.5t-35.5 -87.5h219zM91 644q0 27 20 45.5t48 18.5
q29 0 49 -18.5t20 -45.5q0 -26 -20 -44.5t-49 -18.5q-28 0 -48 18.5t-20 44.5zM300 644q0 27 20 45.5t49 18.5t49 -18.5t20 -45.5q0 -26 -20 -44.5t-49 -18.5q-28 0 -48.5 18.5t-20.5 44.5z" />
    <glyph glyph-name="igrave" unicode="&#xec;" horiz-adv-x="339" 
d="M317 0h-286v75l82 14v312l-82 7v72l144 18h60v-409l82 -14v-75zM224 582h-90l-139 129h128z" />
    <glyph glyph-name="iacute" unicode="&#xed;" horiz-adv-x="339" 
d="M317 0h-286v75l82 14v312l-82 7v72l144 18h60v-409l82 -14v-75zM199 582h-90l101 129h128z" />
    <glyph glyph-name="icircumflex" unicode="&#xee;" horiz-adv-x="339" 
d="M317 0h-286v75l82 14v312l-82 7v72l144 18h60v-409l82 -14v-75zM104 582h-96l117 129h83l117 -129h-96l-62 81h-2z" />
    <glyph glyph-name="idieresis" unicode="&#xef;" horiz-adv-x="339" 
d="M317 0h-286v75l82 14v312l-82 7v72l144 18h60v-409l82 -14v-75zM-7 644q0 27 20 45.5t48 18.5q29 0 49 -18.5t20 -45.5q0 -26 -20 -44.5t-49 -18.5q-28 0 -48 18.5t-20 44.5zM202 644q0 27 20 45.5t49 18.5t49 -18.5t20 -45.5q0 -26 -20 -44.5t-49 -18.5
q-28 0 -48.5 18.5t-20.5 44.5z" />
    <glyph glyph-name="eth" unicode="&#xf0;" horiz-adv-x="537" 
d="M126 513l-24 57l104 41v2q-32 31 -88 69l83 50q46 -29 98 -77l117 49l24 -58l-96 -38v-2q69 -72 113 -166.5t44 -197.5q0 -118 -64.5 -185.5t-166.5 -67.5q-104 0 -169.5 67.5t-65.5 185.5q0 113 63 180.5t159 67.5q38 0 57 -13l1 1q-21 41 -64 87zM160 242
q0 -74 29 -111.5t79 -37.5t79 37.5t29 111.5q0 69 -27.5 109.5t-79.5 40.5q-51 0 -80 -39t-29 -111z" />
    <glyph glyph-name="ntilde" unicode="&#xf1;" horiz-adv-x="636" 
d="M615 0h-258v75l54 14v239q0 41 -16.5 61t-43.5 20q-64 0 -116 -71v-249l62 -14v-75h-266v75l82 14v312l-82 7v72l144 18h47l7 -75h2q21 37 66 61.5t93 24.5q64 0 103.5 -40.5t39.5 -120.5v-259l82 -14v-75zM476 641q-33 -29 -57.5 -42.5t-53.5 -13.5t-61 22t-51 22
q-4 0 -7.5 -0.5t-7.5 -2t-7 -2.5t-7 -4t-7 -4.5t-8 -6t-8 -6.5t-9.5 -7t-9.5 -8l-37 60q32 28 55.5 41.5t52.5 13.5q31 0 62 -22t50 -22q17 0 31 8.5t40 31.5z" />
    <glyph glyph-name="ograve" unicode="&#xf2;" horiz-adv-x="538" 
d="M269 -11q-105 0 -169.5 69.5t-64.5 190.5q0 122 64.5 191t169.5 69t169 -69t64 -191q0 -121 -64 -190.5t-169 -69.5zM269 93q52 0 80 40t28 116q0 77 -28 117t-80 40t-80.5 -40t-28.5 -117q0 -76 28.5 -116t80.5 -40zM327 582h-90l-139 129h128z" />
    <glyph glyph-name="oacute" unicode="&#xf3;" horiz-adv-x="538" 
d="M269 -11q-105 0 -169.5 69.5t-64.5 190.5q0 122 64.5 191t169.5 69t169 -69t64 -191q0 -121 -64 -190.5t-169 -69.5zM269 93q52 0 80 40t28 116q0 77 -28 117t-80 40t-80.5 -40t-28.5 -117q0 -76 28.5 -116t80.5 -40zM302 582h-90l101 129h128z" />
    <glyph glyph-name="ocircumflex" unicode="&#xf4;" horiz-adv-x="538" 
d="M269 -11q-105 0 -169.5 69.5t-64.5 190.5q0 122 64.5 191t169.5 69t169 -69t64 -191q0 -121 -64 -190.5t-169 -69.5zM269 93q52 0 80 40t28 116q0 77 -28 117t-80 40t-80.5 -40t-28.5 -117q0 -76 28.5 -116t80.5 -40zM207 582h-96l117 129h83l117 -129h-96l-62 81h-2z
" />
    <glyph glyph-name="otilde" unicode="&#xf5;" horiz-adv-x="538" 
d="M269 -11q-105 0 -169.5 69.5t-64.5 190.5q0 122 64.5 191t169.5 69t169 -69t64 -191q0 -121 -64 -190.5t-169 -69.5zM269 93q52 0 80 40t28 116q0 77 -28 117t-80 40t-80.5 -40t-28.5 -117q0 -76 28.5 -116t80.5 -40zM435 641q-33 -29 -57.5 -42.5t-53.5 -13.5t-61 22
t-51 22q-4 0 -7.5 -0.5t-7.5 -2t-7 -2.5t-7 -4t-7 -4.5t-8 -6t-8 -6.5t-9.5 -7t-9.5 -8l-37 60q32 28 55.5 41.5t52.5 13.5q30 0 62 -22t50 -22q17 0 31 8.5t40 31.5z" />
    <glyph glyph-name="odieresis" unicode="&#xf6;" horiz-adv-x="538" 
d="M269 -11q-105 0 -169.5 69.5t-64.5 190.5q0 122 64.5 191t169.5 69t169 -69t64 -191q0 -121 -64 -190.5t-169 -69.5zM269 93q52 0 80 40t28 116q0 77 -28 117t-80 40t-80.5 -40t-28.5 -117q0 -76 28.5 -116t80.5 -40zM96 644q0 27 20 45.5t48 18.5q29 0 49 -18.5
t20 -45.5q0 -26 -20 -44.5t-49 -18.5q-28 0 -48 18.5t-20 44.5zM305 644q0 27 20 45.5t49 18.5t49 -18.5t20 -45.5q0 -26 -20 -44.5t-49 -18.5q-28 0 -48.5 18.5t-20.5 44.5z" />
    <glyph glyph-name="divide" unicode="&#xf7;" horiz-adv-x="538" 
d="M337 447q0 -29 -19.5 -48.5t-48.5 -19.5t-49 19.5t-20 48.5t20 50t49 21q28 0 48 -21t20 -50zM337 109q0 -29 -19.5 -49t-48.5 -20t-49 20t-20 49t20 49.5t49 20.5q28 0 48 -20.5t20 -49.5zM497 237h-456v84h456v-84z" />
    <glyph glyph-name="oslash" unicode="&#xf8;" horiz-adv-x="545" 
d="M35 249q0 121 66 190.5t172 69.5q73 0 126 -35l42 60l43 -31l-44 -61q70 -73 70 -193q0 -121 -65.5 -190.5t-171.5 -69.5q-73 0 -130 37l-43 -61l-42 31l45 62q-68 73 -68 191zM388 249q0 51 -20 89h-2l-162 -225q28 -25 69 -25q53 0 84 41.5t31 119.5zM157 249
q0 -49 18 -87h2l161 225q-28 23 -65 23q-54 0 -85 -41t-31 -120z" />
    <glyph glyph-name="ugrave" unicode="&#xf9;" horiz-adv-x="615" 
d="M593 15l-126 -17h-61l-10 70h-2q-22 -38 -63 -58.5t-91 -20.5q-64 0 -102.5 40.5t-38.5 120.5v251l-82 7v71l144 19h60v-329q0 -80 58 -80q65 0 110 63v249l-67 7v71l129 19h60v-407l82 -10v-66zM350 582h-90l-139 129h128z" />
    <glyph glyph-name="uacute" unicode="&#xfa;" horiz-adv-x="615" 
d="M593 15l-126 -17h-61l-10 70h-2q-22 -38 -63 -58.5t-91 -20.5q-64 0 -102.5 40.5t-38.5 120.5v251l-82 7v71l144 19h60v-329q0 -80 58 -80q65 0 110 63v249l-67 7v71l129 19h60v-407l82 -10v-66zM325 582h-90l101 129h128z" />
    <glyph glyph-name="ucircumflex" unicode="&#xfb;" horiz-adv-x="615" 
d="M593 15l-126 -17h-61l-10 70h-2q-22 -38 -63 -58.5t-91 -20.5q-64 0 -102.5 40.5t-38.5 120.5v251l-82 7v71l144 19h60v-329q0 -80 58 -80q65 0 110 63v249l-67 7v71l129 19h60v-407l82 -10v-66zM230 582h-96l117 129h83l117 -129h-96l-62 81h-2z" />
    <glyph glyph-name="udieresis" unicode="&#xfc;" horiz-adv-x="615" 
d="M593 15l-126 -17h-61l-10 70h-2q-22 -38 -63 -58.5t-91 -20.5q-64 0 -102.5 40.5t-38.5 120.5v251l-82 7v71l144 19h60v-329q0 -80 58 -80q65 0 110 63v249l-67 7v71l129 19h60v-407l82 -10v-66zM119 644q0 27 20 45.5t48 18.5q29 0 49 -18.5t20 -45.5q0 -26 -20 -44.5
t-49 -18.5q-28 0 -48 18.5t-20 44.5zM328 644q0 27 20 45.5t49 18.5t49 -18.5t20 -45.5q0 -26 -20 -44.5t-49 -18.5q-28 0 -48.5 18.5t-20.5 44.5z" />
    <glyph glyph-name="yacute" unicode="&#xfd;" horiz-adv-x="611" 
d="M529 410l-123 -310q-65 -156 -139 -230l-102 -102l-72 73l65 67q50 53 78 106l-154 396l-74 13v75h256v-79l-59 -9l42 -116q36 -98 57 -179h2q23 78 61 180l40 115l-59 9v79h255v-75zM338 582h-90l101 129h128z" />
    <glyph glyph-name="thorn" unicode="&#xfe;" horiz-adv-x="573" 
d="M538 248q0 -120 -57.5 -189.5t-153.5 -69.5q-76 0 -119 53h-2v-163l82 -14v-75h-286v75l82 14v744l-82 6v72l144 19h60v-293h2q53 82 130 82q99 0 149.5 -66.5t50.5 -194.5zM412 248q0 83 -27.5 121t-82.5 38q-24 0 -51 -20.5t-45 -45.5v-206q14 -18 40 -31t50 -13
q53 0 84.5 39t31.5 118z" />
    <glyph glyph-name="ydieresis" unicode="&#xff;" horiz-adv-x="611" 
d="M529 410l-123 -310q-65 -156 -139 -230l-102 -102l-72 73l65 67q50 53 78 106l-154 396l-74 13v75h256v-79l-59 -9l42 -116q36 -98 57 -179h2q23 78 61 180l40 115l-59 9v79h255v-75zM132 644q0 27 20 45.5t48 18.5q29 0 49 -18.5t20 -45.5q0 -26 -20 -44.5t-49 -18.5
q-28 0 -48 18.5t-20 44.5zM341 644q0 27 20 45.5t49 18.5t49 -18.5t20 -45.5q0 -26 -20 -44.5t-49 -18.5q-28 0 -48.5 18.5t-20.5 44.5z" />
    <glyph glyph-name="Amacron" unicode="&#x100;" horiz-adv-x="679" 
d="M81 89l183 591h153l181 -590l74 -15v-75h-272v78l75 11l-28 96h-218l-28 -96l76 -11v-78h-270v75zM253 283h169l-25 85q-44 154 -58 211h-2q-27 -109 -59 -213zM189 767v69h297v-69h-297z" />
    <glyph glyph-name="amacron" unicode="&#x101;" horiz-adv-x="551" 
d="M532 15l-121 -17h-62l-12 51h-2q-6 -4 -22.5 -14t-21 -13t-16.5 -10t-17 -8.5t-14.5 -6t-16.5 -5.5t-16 -2t-19 -1q-67 0 -109 40t-42 114q0 80 39.5 119.5t107.5 39.5q24 0 70 -7.5t70 -8.5v45q0 45 -21 63t-69 18q-34 0 -76 -14l-11 -50h-79v125q112 35 184 35
q101 0 147.5 -43.5t46.5 -130.5v-201q0 -20 4 -42l78 -10v-66zM328 116v104q-17 1 -52 5.5t-47 4.5q-71 0 -71 -77q0 -36 17.5 -57.5t54.5 -21.5q9 0 16.5 1t17 5.5t15.5 7.5t22 12.5t27 15.5zM113 610v69h297v-69h-297z" />
    <glyph glyph-name="Abreve" unicode="&#x102;" horiz-adv-x="679" 
d="M81 89l183 591h153l181 -590l74 -15v-75h-272v78l75 11l-28 96h-218l-28 -96l76 -11v-78h-270v75zM253 283h169l-25 85q-44 154 -58 211h-2q-27 -109 -59 -213zM193 861h67q2 -25 25 -43.5t52 -18.5q30 0 53 18t25 44h67q0 -48 -42.5 -81.5t-102.5 -33.5
q-59 0 -101.5 33.5t-42.5 81.5z" />
    <glyph glyph-name="abreve" unicode="&#x103;" horiz-adv-x="551" 
d="M532 15l-121 -17h-62l-12 51h-2q-6 -4 -22.5 -14t-21 -13t-16.5 -10t-17 -8.5t-14.5 -6t-16.5 -5.5t-16 -2t-19 -1q-67 0 -109 40t-42 114q0 80 39.5 119.5t107.5 39.5q24 0 70 -7.5t70 -8.5v45q0 45 -21 63t-69 18q-34 0 -76 -14l-11 -50h-79v125q112 35 184 35
q101 0 147.5 -43.5t46.5 -130.5v-201q0 -20 4 -42l78 -10v-66zM328 116v104q-17 1 -52 5.5t-47 4.5q-71 0 -71 -77q0 -36 17.5 -57.5t54.5 -21.5q9 0 16.5 1t17 5.5t15.5 7.5t22 12.5t27 15.5zM117 707h67q2 -27 25 -46.5t52 -19.5q30 0 53 19.5t25 46.5h67
q0 -52 -42.5 -88.5t-102.5 -36.5q-59 0 -101.5 36.5t-42.5 88.5z" />
    <glyph glyph-name="Aogonek" unicode="&#x104;" horiz-adv-x="679" 
d="M405 -128q0 34 28 69.5t70 58.5h-103v78l75 11l-28 96h-218l-28 -96l76 -11v-78h-270v75l74 14l183 591h153l181 -590l74 -15v-75h-86q-37 -25 -61 -56t-24 -55q0 -18 9 -30.5t24 -12.5q17 0 29 4l14 -59q-33 -11 -61 -11q-49 0 -80 23.5t-31 68.5zM253 283h169l-25 85
q-44 154 -58 211h-2q-27 -109 -59 -213z" />
    <glyph glyph-name="aogonek" unicode="&#x105;" horiz-adv-x="551" 
d="M249 -128q0 34 28.5 69.5t70.5 58.5l-11 49h-2q-6 -4 -22.5 -14t-21 -13t-16.5 -10t-17 -8.5t-14.5 -6t-16.5 -5.5t-16 -2t-19 -1q-67 0 -109 40t-42 114q0 80 39.5 119.5t107.5 39.5q24 0 70 -7.5t70 -8.5v45q0 45 -21 63t-69 18q-34 0 -76 -14l-11 -50h-79v125
q112 35 184 35q101 0 147.5 -43.5t46.5 -130.5v-201q0 -20 4 -42l78 -10v-66l-100 -14q-38 -25 -62.5 -56.5t-24.5 -55.5q0 -18 9 -30.5t24 -12.5q17 0 29 4l14 -59q-33 -11 -61 -11q-49 0 -80 23.5t-31 68.5zM328 116v104q-17 1 -52 5.5t-47 4.5q-71 0 -71 -77
q0 -36 17.5 -57.5t54.5 -21.5q9 0 16.5 1t17 5.5t15.5 7.5t22 12.5t27 15.5z" />
    <glyph glyph-name="Cacute" unicode="&#x106;" horiz-adv-x="553" 
d="M39 340q0 162 93 256t238 94q64 0 135 -25v-169h-84l-15 78q-17 6 -42 6q-81 0 -137.5 -65t-56.5 -175q0 -113 47 -176t131 -63q67 0 140 23l32 -103q-90 -31 -173 -31q-143 0 -225.5 92.5t-82.5 257.5zM366 744h-97l129 118h142z" />
    <glyph glyph-name="cacute" unicode="&#x107;" horiz-adv-x="439" 
d="M405 12q-70 -22 -123 -22q-117 0 -182 68t-65 191q0 122 66.5 190.5t177.5 68.5q49 0 111 -16v-158h-73l-11 65q-14 5 -34 5q-49 0 -80.5 -40t-31.5 -115q0 -77 32 -116t93 -39q46 0 96 18zM290 582h-90l101 129h128z" />
    <glyph glyph-name="Ccircumflex" unicode="&#x108;" horiz-adv-x="553" 
d="M39 340q0 162 93 256t238 94q64 0 135 -25v-169h-84l-15 78q-17 6 -42 6q-81 0 -137.5 -65t-56.5 -175q0 -113 47 -176t131 -63q67 0 140 23l32 -103q-90 -31 -173 -31q-143 0 -225.5 92.5t-82.5 257.5zM262 744h-110l136 118h92l138 -118h-110l-73 71h-2z" />
    <glyph glyph-name="ccircumflex" unicode="&#x109;" horiz-adv-x="439" 
d="M405 12q-70 -22 -123 -22q-117 0 -182 68t-65 191q0 122 66.5 190.5t177.5 68.5q49 0 111 -16v-158h-73l-11 65q-14 5 -34 5q-49 0 -80.5 -40t-31.5 -115q0 -77 32 -116t93 -39q46 0 96 18zM195 582h-96l117 129h83l117 -129h-96l-62 81h-2z" />
    <glyph glyph-name="Cdotaccent" unicode="&#x10a;" horiz-adv-x="553" 
d="M39 340q0 162 93 256t238 94q64 0 135 -25v-169h-84l-15 78q-17 6 -42 6q-81 0 -137.5 -65t-56.5 -175q0 -113 47 -176t131 -63q67 0 140 23l32 -103q-90 -31 -173 -31q-143 0 -225.5 92.5t-82.5 257.5zM260 802q0 29 22 49.5t53 20.5t53 -20.5t22 -49.5t-22 -49.5
t-53 -20.5t-53 20.5t-22 49.5z" />
    <glyph glyph-name="cdotaccent" unicode="&#x10b;" horiz-adv-x="439" 
d="M405 12q-70 -22 -123 -22q-117 0 -182 68t-65 191q0 122 66.5 190.5t177.5 68.5q49 0 111 -16v-158h-73l-11 65q-14 5 -34 5q-49 0 -80.5 -40t-31.5 -115q0 -77 32 -116t93 -39q46 0 96 18zM182 644q0 29 22 49.5t53 20.5t53 -20.5t22 -49.5t-22 -49.5t-53 -20.5
t-53 20.5t-22 49.5z" />
    <glyph glyph-name="Ccaron" unicode="&#x10c;" horiz-adv-x="553" 
d="M39 340q0 162 93 256t238 94q64 0 135 -25v-169h-84l-15 78q-17 6 -42 6q-81 0 -137.5 -65t-56.5 -175q0 -113 47 -176t131 -63q67 0 140 23l32 -103q-90 -31 -173 -31q-143 0 -225.5 92.5t-82.5 257.5zM152 862h110l71 -71h2l73 71h110l-138 -118h-92z" />
    <glyph glyph-name="ccaron" unicode="&#x10d;" horiz-adv-x="439" 
d="M405 12q-70 -22 -123 -22q-117 0 -182 68t-65 191q0 122 66.5 190.5t177.5 68.5q49 0 111 -16v-158h-73l-11 65q-14 5 -34 5q-49 0 -80.5 -40t-31.5 -115q0 -77 32 -116t93 -39q46 0 96 18zM99 711h96l61 -82h2l62 82h96l-117 -129h-83z" />
    <glyph glyph-name="Dcaron" unicode="&#x10e;" horiz-adv-x="684" 
d="M644 344q0 -163 -83.5 -253.5t-226.5 -90.5h-299v75l82 14v502l-82 14v75h304q135 0 220 -89t85 -247zM513 340q0 111 -50 172t-132 61h-86v-466h86q83 0 132.5 60.5t49.5 172.5zM114 862h110l71 -71h2l73 71h110l-138 -118h-92z" />
    <glyph glyph-name="dcaron" unicode="&#x10f;" horiz-adv-x="623" 
d="M572 15l-123 -17h-65l-6 60h-2q-22 -27 -57.5 -48t-71.5 -21q-96 0 -154 69t-58 190q0 127 51 194t149 67q40 0 69.5 -18.5t61.5 -51.5h2v184l-83 6v72l144 19h61v-629l82 -10v-66zM368 148v194q-48 65 -96 65q-112 0 -112 -159q0 -79 32 -117.5t85 -38.5q22 0 49.5 18.5
t41.5 37.5zM584 733l80 11q1 -4 1 -14q0 -41 -22 -87.5t-57 -77.5l-44 8q43 77 43 145q0 10 -1 15z" />
    <glyph glyph-name="Dcroat" unicode="&#x110;" horiz-adv-x="685" 
d="M53 303v92h65v196l-82 14v75h305q133 0 218.5 -89t85.5 -247q0 -163 -83 -253.5t-226 -90.5h-300v75l82 14v214h-65zM514 340q0 111 -50 172t-132 61h-86v-178h114v-92h-114v-196h86q83 0 132.5 60.5t49.5 172.5z" />
    <glyph glyph-name="dcroat" unicode="&#x111;" horiz-adv-x="593" 
d="M186 546v49h182v39l-83 6v61l144 19h61v-125h68v-49h-68v-457l82 -14v-75h-190l-4 58h-2q-22 -27 -57.5 -48t-71.5 -21q-96 0 -154 69t-58 190q0 127 51 194t150 67q62 0 130 -70h2v107h-182zM368 148v194q-48 65 -96 65q-111 0 -111 -159q0 -80 31.5 -118t84.5 -38
q22 0 49.5 18.5t41.5 37.5z" />
    <glyph glyph-name="Emacron" unicode="&#x112;" horiz-adv-x="598" 
d="M555 0h-520v75l82 14v502l-82 14v75h500v-165h-85l-11 60h-194v-173h169l10 43h73v-187h-73l-10 45h-169v-196h214l11 68h85v-175zM160 767v69h297v-69h-297z" />
    <glyph glyph-name="emacron" unicode="&#x113;" horiz-adv-x="505" 
d="M472 227h-323q0 -66 38.5 -104.5t97.5 -38.5q66 0 143 21l21 -91q-84 -24 -161 -24q-125 0 -189 67.5t-64 193.5q0 121 62 189.5t167 68.5q208 0 208 -254v-28zM369 303v2q0 52 -28 85.5t-77 33.5q-47 0 -78.5 -33.5t-35.5 -87.5h219zM116 610v69h297v-69h-297z" />
    <glyph glyph-name="Ebreve" unicode="&#x114;" horiz-adv-x="598" 
d="M555 0h-520v75l82 14v502l-82 14v75h500v-165h-85l-11 60h-194v-173h169l10 43h73v-187h-73l-10 45h-169v-196h214l11 68h85v-175zM164 861h67q2 -25 25 -43.5t52 -18.5q30 0 53 18t25 44h67q0 -48 -42.5 -81.5t-102.5 -33.5q-59 0 -101.5 33.5t-42.5 81.5z" />
    <glyph glyph-name="ebreve" unicode="&#x115;" horiz-adv-x="505" 
d="M472 227h-323q0 -66 38.5 -104.5t97.5 -38.5q66 0 143 21l21 -91q-84 -24 -161 -24q-125 0 -189 67.5t-64 193.5q0 121 62 189.5t167 68.5q208 0 208 -254v-28zM369 303v2q0 52 -28 85.5t-77 33.5q-47 0 -78.5 -33.5t-35.5 -87.5h219zM120 707h67q2 -27 25 -46.5
t52 -19.5q30 0 53 19.5t25 46.5h67q0 -52 -42.5 -88.5t-102.5 -36.5q-59 0 -101.5 36.5t-42.5 88.5z" />
    <glyph glyph-name="Edotaccent" unicode="&#x116;" horiz-adv-x="598" 
d="M555 0h-520v75l82 14v502l-82 14v75h500v-165h-85l-11 60h-194v-173h169l10 43h73v-187h-73l-10 45h-169v-196h214l11 68h85v-175zM233 802q0 29 22 49.5t53 20.5t53 -20.5t22 -49.5t-22 -49.5t-53 -20.5t-53 20.5t-22 49.5z" />
    <glyph glyph-name="edotaccent" unicode="&#x117;" horiz-adv-x="505" 
d="M472 227h-323q0 -66 38.5 -104.5t97.5 -38.5q66 0 143 21l21 -91q-84 -24 -161 -24q-125 0 -189 67.5t-64 193.5q0 121 62 189.5t167 68.5q208 0 208 -254v-28zM369 303v2q0 52 -28 85.5t-77 33.5q-47 0 -78.5 -33.5t-35.5 -87.5h219zM189 644q0 29 22 49.5t53 20.5
t53 -20.5t22 -49.5t-22 -49.5t-53 -20.5t-53 20.5t-22 49.5z" />
    <glyph glyph-name="Eogonek" unicode="&#x118;" horiz-adv-x="598" 
d="M555 0q-38 -26 -62.5 -56t-24.5 -55q0 -18 9.5 -30.5t23.5 -12.5q18 0 30 4l13 -59q-31 -11 -61 -11q-49 0 -79.5 23.5t-30.5 68.5q0 35 28 70t69 58h-435v75l82 14v502l-82 14v75h500v-165h-85l-11 60h-194v-173h169l10 43h73v-187h-73l-10 45h-169v-196h214l11 68h85
v-175z" />
    <glyph glyph-name="eogonek" unicode="&#x119;" horiz-adv-x="505" 
d="M472 227h-323q0 -66 38.5 -104.5t97.5 -38.5q66 0 143 21l21 -91q-44 -27 -72.5 -63t-28.5 -62q0 -18 9 -30.5t24 -12.5q17 0 29 4l14 -59q-33 -11 -62 -11q-49 0 -79.5 23.5t-30.5 68.5q0 33 24.5 66t61.5 57q-27 -5 -50 -5q-125 0 -189 67.5t-64 193.5q0 121 62 189.5
t167 68.5q208 0 208 -254v-28zM369 303v4q0 51 -28 84t-77 33q-47 0 -79 -33.5t-36 -87.5h220z" />
    <glyph glyph-name="Ecaron" unicode="&#x11a;" horiz-adv-x="598" 
d="M555 0h-520v75l82 14v502l-82 14v75h500v-165h-85l-11 60h-194v-173h169l10 43h73v-187h-73l-10 45h-169v-196h214l11 68h85v-175zM125 862h110l71 -71h2l73 71h110l-138 -118h-92z" />
    <glyph glyph-name="ecaron" unicode="&#x11b;" horiz-adv-x="505" 
d="M472 227h-323q0 -66 38.5 -104.5t97.5 -38.5q66 0 143 21l21 -91q-84 -24 -161 -24q-125 0 -189 67.5t-64 193.5q0 121 62 189.5t167 68.5q208 0 208 -254v-28zM369 303v2q0 52 -28 85.5t-77 33.5q-47 0 -78.5 -33.5t-35.5 -87.5h219zM106 711h96l61 -82h2l62 82h96
l-117 -129h-83z" />
    <glyph glyph-name="Gcircumflex" unicode="&#x11c;" horiz-adv-x="657" 
d="M575 0h-80l-16 53h-2q-72 -64 -151 -64q-140 0 -213.5 89t-73.5 260q0 161 92 256.5t242 95.5q89 0 168 -30v-167h-84l-15 77q-28 9 -71 9q-88 0 -144.5 -65.5t-56.5 -175.5q0 -116 42 -177.5t124 -61.5q67 0 124 42v100l-83 13v76h263v-77l-65 -12v-241zM273 744h-110
l136 118h92l138 -118h-110l-73 71h-2z" />
    <glyph glyph-name="gcircumflex" unicode="&#x11d;" horiz-adv-x="556" 
d="M531 430h-91v-3q16 -13 27 -38t11 -50q0 -77 -59 -124.5t-155 -47.5q-34 0 -68 9q-16 -7 -28 -23.5t-12 -30.5q0 -31 71 -31h113q101 0 148 -30.5t47 -92.5q0 -78 -85 -133.5t-201 -55.5q-215 0 -215 136q0 35 27.5 64.5t62.5 42.5v2q-31 11 -49 33t-18 51
q0 28 21.5 57.5t45.5 39.5v2q-74 48 -74 132q0 76 59.5 123t155.5 47q48 0 85 -10h181v-69zM367 339q0 36 -28 61t-74 25t-74 -25.5t-28 -60.5q0 -36 27.5 -62t73.5 -26q47 0 75 26t28 62zM414 -48q0 49 -95 49h-102q-71 -30 -71 -77q0 -29 31.5 -45t86.5 -16q65 0 107.5 29
t42.5 60zM203 582h-96l117 129h83l117 -129h-96l-62 81h-2z" />
    <glyph glyph-name="Gbreve" unicode="&#x11e;" horiz-adv-x="657" 
d="M575 0h-80l-16 53h-2q-72 -64 -151 -64q-140 0 -213.5 89t-73.5 260q0 161 92 256.5t242 95.5q89 0 168 -30v-167h-84l-15 77q-28 9 -71 9q-88 0 -144.5 -65.5t-56.5 -175.5q0 -116 42 -177.5t124 -61.5q67 0 124 42v100l-83 13v76h263v-77l-65 -12v-241zM202 861h67
q2 -25 25 -43.5t52 -18.5q30 0 53 18t25 44h67q0 -48 -42.5 -81.5t-102.5 -33.5q-59 0 -101.5 33.5t-42.5 81.5z" />
    <glyph glyph-name="gbreve" unicode="&#x11f;" horiz-adv-x="556" 
d="M531 430h-91v-3q16 -13 27 -38t11 -50q0 -77 -59 -124.5t-155 -47.5q-34 0 -68 9q-16 -7 -28 -23.5t-12 -30.5q0 -31 71 -31h113q101 0 148 -30.5t47 -92.5q0 -78 -85 -133.5t-201 -55.5q-215 0 -215 136q0 35 27.5 64.5t62.5 42.5v2q-31 11 -49 33t-18 51
q0 28 21.5 57.5t45.5 39.5v2q-74 48 -74 132q0 76 59.5 123t155.5 47q48 0 85 -10h181v-69zM367 339q0 36 -28 61t-74 25t-74 -25.5t-28 -60.5q0 -36 27.5 -62t73.5 -26q47 0 75 26t28 62zM414 -48q0 49 -95 49h-102q-71 -30 -71 -77q0 -29 31.5 -45t86.5 -16q65 0 107.5 29
t42.5 60zM121 707h67q2 -27 25 -46.5t52 -19.5q30 0 53 19.5t25 46.5h67q0 -52 -42.5 -88.5t-102.5 -36.5q-59 0 -101.5 36.5t-42.5 88.5z" />
    <glyph glyph-name="Gdotaccent" unicode="&#x120;" horiz-adv-x="657" 
d="M575 0h-80l-16 53h-2q-72 -64 -151 -64q-140 0 -213.5 89t-73.5 260q0 161 92 256.5t242 95.5q89 0 168 -30v-167h-84l-15 77q-28 9 -71 9q-88 0 -144.5 -65.5t-56.5 -175.5q0 -116 42 -177.5t124 -61.5q67 0 124 42v100l-83 13v76h263v-77l-65 -12v-241zM271 802
q0 29 22 49.5t53 20.5t53 -20.5t22 -49.5t-22 -49.5t-53 -20.5t-53 20.5t-22 49.5z" />
    <glyph glyph-name="gdotaccent" unicode="&#x121;" horiz-adv-x="556" 
d="M531 430h-91v-3q16 -13 27 -38t11 -50q0 -77 -59 -124.5t-155 -47.5q-34 0 -68 9q-16 -7 -28 -23.5t-12 -30.5q0 -31 71 -31h113q101 0 148 -30.5t47 -92.5q0 -78 -85 -133.5t-201 -55.5q-215 0 -215 136q0 35 27.5 64.5t62.5 42.5v2q-31 11 -49 33t-18 51
q0 28 21.5 57.5t45.5 39.5v2q-74 48 -74 132q0 76 59.5 123t155.5 47q48 0 85 -10h181v-69zM367 339q0 36 -28 61t-74 25t-74 -25.5t-28 -60.5q0 -36 27.5 -62t73.5 -26q47 0 75 26t28 62zM414 -48q0 49 -95 49h-102q-71 -30 -71 -77q0 -29 31.5 -45t86.5 -16q65 0 107.5 29
t42.5 60zM190 644q0 29 22 49.5t53 20.5t53 -20.5t22 -49.5t-22 -49.5t-53 -20.5t-53 20.5t-22 49.5z" />
    <glyph glyph-name="Gcommaaccent" unicode="&#x122;" horiz-adv-x="657" 
d="M575 0h-80l-16 53h-2q-72 -64 -151 -64q-140 0 -213.5 89t-73.5 260q0 161 92 256.5t242 95.5q89 0 168 -30v-167h-84l-15 77q-28 9 -71 9q-88 0 -144.5 -65.5t-56.5 -175.5q0 -116 42 -177.5t124 -61.5q67 0 124 42v100l-83 13v76h263v-77l-65 -12v-241zM380 -41
q1 -4 1 -13q0 -39 -26.5 -79t-71.5 -71l-49 19q18 24 29.5 58t11.5 60q0 11 -1 16z" />
    <glyph glyph-name="gcommaaccent" unicode="&#x123;" horiz-adv-x="556" 
d="M531 430h-91v-3q16 -13 27 -38t11 -50q0 -77 -59 -124.5t-155 -47.5q-34 0 -68 9q-16 -7 -28 -23.5t-12 -30.5q0 -31 71 -31h113q101 0 148 -30.5t47 -92.5q0 -78 -85 -133.5t-201 -55.5q-215 0 -215 136q0 35 27.5 64.5t62.5 42.5v2q-31 11 -49 33t-18 51
q0 28 21.5 57.5t45.5 39.5v2q-74 48 -74 132q0 76 59.5 123t155.5 47q48 0 85 -10h181v-69zM367 339q0 36 -28 61t-74 25t-74 -25.5t-28 -60.5q0 -36 27.5 -62t73.5 -26q47 0 75 26t28 62zM414 -48q0 49 -95 49h-102q-71 -30 -71 -77q0 -29 31.5 -45t86.5 -16q65 0 107.5 29
t42.5 60zM207 570q-1 3 -1 12q0 72 91 135l46 -18q-17 -22 -28.5 -52.5t-11.5 -53.5q0 -9 1 -15z" />
    <glyph glyph-name="Hcircumflex" unicode="&#x124;" horiz-adv-x="749" 
d="M714 0h-280v75l70 14v204h-259v-204l71 -14v-75h-281v75l82 14v502l-82 14v75h281v-75l-71 -14v-191h259v191l-70 14v75h280v-75l-82 -14v-502l82 -14v-75zM301 744h-110l136 118h92l138 -118h-110l-73 71h-2z" />
    <glyph glyph-name="hcircumflex" unicode="&#x125;" horiz-adv-x="627" 
d="M606 0h-258v75l54 14v239q0 41 -17 61t-44 20q-68 0 -115 -64v-256l62 -14v-75h-266v75l82 14v534l-82 6v72l144 19h60v-289h2q50 78 152 78q64 0 104 -40.5t40 -120.5v-259l82 -14v-75zM81 757h-110l136 118h92l138 -118h-110l-73 71h-2z" />
    <glyph glyph-name="Hbar" unicode="&#x126;" horiz-adv-x="749" 
d="M52 460v62h65v69l-82 14v75h281v-75l-71 -14v-69h259v69l-70 14v75h280v-75l-82 -14v-69h66v-62h-66v-371l82 -14v-75h-280v75l70 14v196h-259v-196l71 -14v-75h-281v75l82 14v371h-65zM245 387h259v73h-259v-73z" />
    <glyph glyph-name="hbar" unicode="&#x127;" horiz-adv-x="627" 
d="M25 546v49h79v39l-82 6v61l144 19h60v-125h181v-49h-181v-115h2q50 78 152 78q64 0 104 -40.5t40 -120.5v-259l82 -14v-75h-262v75l58 14v239q0 41 -17 61t-44 20q-68 0 -115 -64v-256l63 -14v-75h-267v75l82 14v457h-79z" />
    <glyph glyph-name="Itilde" unicode="&#x128;" horiz-adv-x="362" 
d="M245 591v-502l82 -14v-75h-292v75l82 14v502l-82 14v75h292v-75zM364 796q-69 -50 -122 -50q-32 0 -67 20t-56 20q-28 0 -80 -37l-41 57q69 50 121 50q33 0 68 -20t55 -20q28 0 79 37z" />
    <glyph glyph-name="itilde" unicode="&#x129;" horiz-adv-x="339" 
d="M317 0h-286v75l82 14v312l-82 7v72l144 18h60v-409l82 -14v-75zM332 641q-33 -29 -57.5 -42.5t-53.5 -13.5t-61 22t-51 22q-4 0 -7.5 -0.5t-7.5 -2t-7 -2.5t-7 -4t-7 -4.5t-8 -6t-8 -6.5t-9.5 -7t-9.5 -8l-37 60q32 28 55.5 41.5t52.5 13.5q31 0 62 -22t50 -22
q17 0 31 8.5t40 31.5z" />
    <glyph glyph-name="Imacron" unicode="&#x12a;" horiz-adv-x="362" 
d="M245 591v-502l82 -14v-75h-292v75l82 14v502l-82 14v75h292v-75zM33 767v69h297v-69h-297z" />
    <glyph glyph-name="imacron" unicode="&#x12b;" horiz-adv-x="339" 
d="M317 0h-286v75l82 14v312l-82 7v72l144 18h60v-409l82 -14v-75zM18 610v69h297v-69h-297z" />
    <glyph glyph-name="Ibreve" unicode="&#x12c;" horiz-adv-x="362" 
d="M245 591v-502l82 -14v-75h-292v75l82 14v502l-82 14v75h292v-75zM37 861h67q2 -25 25 -43.5t52 -18.5q30 0 53 18t25 44h67q0 -48 -42.5 -81.5t-102.5 -33.5q-59 0 -101.5 33.5t-42.5 81.5z" />
    <glyph glyph-name="ibreve" unicode="&#x12d;" horiz-adv-x="339" 
d="M317 0h-286v75l82 14v312l-82 7v72l144 18h60v-409l82 -14v-75zM22 707h67q2 -27 25 -46.5t52 -19.5q30 0 53 19.5t25 46.5h67q0 -52 -42.5 -88.5t-102.5 -36.5q-59 0 -101.5 36.5t-42.5 88.5z" />
    <glyph glyph-name="Iogonek" unicode="&#x12e;" horiz-adv-x="362" 
d="M45 -128q0 34 28 69.5t70 58.5h-108v75l82 14v502l-82 14v75h292v-75l-82 -14v-502l82 -14v-75h-101q-37 -25 -61 -56t-24 -55q0 -18 9 -30.5t24 -12.5q17 0 29 4l14 -59q-33 -11 -61 -11q-49 0 -80 23.5t-31 68.5z" />
    <glyph glyph-name="iogonek" unicode="&#x12f;" horiz-adv-x="339" 
d="M36 -128q0 34 28 69.5t70 58.5h-103v75l82 14v312l-82 7v72l144 18h60v-409l82 -14v-75h-100q-37 -25 -61 -56t-24 -55q0 -18 9 -30.5t24 -12.5q17 0 29 4l14 -59q-33 -11 -61 -11q-49 0 -80 23.5t-31 68.5zM96 644q0 29 22 49.5t53 20.5t53 -20.5t22 -49.5t-22 -49.5
t-53 -20.5t-53 20.5t-22 49.5z" />
    <glyph glyph-name="Idotaccent" unicode="&#x130;" horiz-adv-x="362" 
d="M245 591v-502l82 -14v-75h-292v75l82 14v502l-82 14v75h292v-75zM106 802q0 29 22 49.5t53 20.5t53 -20.5t22 -49.5t-22 -49.5t-53 -20.5t-53 20.5t-22 49.5z" />
    <glyph glyph-name="dotlessi" unicode="&#x131;" horiz-adv-x="339" 
d="M317 0h-286v75l82 14v312l-82 7v72l144 18h60v-409l82 -14v-75z" />
    <glyph glyph-name="IJ" unicode="&#x132;" horiz-adv-x="736" 
d="M245 591v-502l82 -14v-75h-292v75l82 14v502l-82 14v75h292v-75zM628 591v-484q0 -71 -26.5 -115.5t-76.5 -85.5l-92 -77l-76 91l77 66q1 1 9.5 8.5t10 9t9 8.5t9 9.5t7.5 10t7.5 12.5t5 13.5t5 16t2.5 17.5t1 21v479l-82 14v75h292v-75z" />
    <glyph glyph-name="ij" unicode="&#x133;" horiz-adv-x="644" 
d="M317 0h-286v75l82 14v312l-82 7v72l144 18h60v-409l82 -14v-75zM96 644q0 29 22 49.5t53 20.5t53 -20.5t22 -49.5t-22 -49.5t-53 -20.5t-53 20.5t-22 49.5zM337 -130l75 78q24 23 30 42t6 67v344l-82 7v72l144 18h60v-430q0 -78 -10.5 -112t-54.5 -77l-93 -88zM431 644
q0 29 22 49.5t53 20.5t53 -20.5t22 -49.5t-22 -49.5t-53 -20.5t-53 20.5t-22 49.5z" />
    <glyph glyph-name="Jcircumflex" unicode="&#x134;" horiz-adv-x="374" 
d="M266 591v-484q0 -71 -26.5 -115.5t-76.5 -85.5l-92 -77l-76 91l77 66q1 1 9.5 8.5t10 9t9 8.5t9 9.5t7.5 10t7.5 12.5t5 13.5t5 16t2.5 17.5t1 21v479l-82 14v75h292v-75zM128 744h-110l136 118h92l138 -118h-110l-73 71h-2z" />
    <glyph glyph-name="jcircumflex" unicode="&#x135;" horiz-adv-x="302" 
d="M-2 -142l75 78q24 25 30 43.5t6 65.5v356l-82 7v72l144 18h60v-442q0 -79 -10.5 -113t-54.5 -76l-93 -88zM100 582h-96l117 129h83l117 -129h-96l-62 81h-2z" />
    <glyph glyph-name="Kcommaaccent" unicode="&#x136;" horiz-adv-x="683" 
d="M681 0h-175l-87 157q-73 128 -92 171h-2l-80 -105v-134l77 -14v-75h-287v75l82 14v502l-82 13v76h265v-77l-55 -12v-203h2q46 61 77 98q14 18 44 53.5t45 54.5l-47 9v77h262v-75l-82 -14l-144 -175l197 -327l82 -14v-75zM422 -41q1 -4 1 -13q0 -39 -26.5 -79t-71.5 -71
l-49 19q18 24 29.5 58t11.5 60q0 11 -1 16z" />
    <glyph glyph-name="kcommaaccent" unicode="&#x137;" horiz-adv-x="600" 
d="M591 0h-161l-73 137q-42 78 -51 104h-2l-78 -80v-72l72 -13v-76h-276v75l82 14v534l-82 6v72l144 19h60v-442h3q10 15 67 78l55 60l-52 8v74h251v-73l-78 -15l-91 -97l130 -224l80 -14v-75zM383 -41q1 -4 1 -13q0 -39 -26.5 -79t-71.5 -71l-49 19q18 24 29.5 58t11.5 60
q0 11 -1 16z" />
    <glyph glyph-name="kgreenlandic" unicode="&#x138;" horiz-adv-x="605" 
d="M596 0h-160l-74 127q-38 64 -55 105h-2l-70 -71v-72l71 -13v-76h-275v75l82 14v312l-82 7v71l144 19h60v-221h2q23 31 63 73l60 66l-52 8v74h251v-73l-77 -14l-100 -107l134 -215l80 -14v-75z" />
    <glyph glyph-name="Lacute" unicode="&#x139;" horiz-adv-x="544" 
d="M527 0h-492v75l82 15v501l-82 14v75h292v-75l-82 -14v-484h186l12 87h84v-194zM212 744h-97l129 118h142z" />
    <glyph glyph-name="lacute" unicode="&#x13a;" horiz-adv-x="330" 
d="M104 89v534l-82 6v72l144 19h60v-631l82 -14v-75h-286v75zM185 757h-97l129 118h142z" />
    <glyph glyph-name="Lcommaaccent" unicode="&#x13b;" horiz-adv-x="544" 
d="M527 0h-492v75l82 15v501l-82 14v75h292v-75l-82 -14v-484h186l12 87h84v-194zM340 -41q1 -4 1 -13q0 -39 -26.5 -79t-71.5 -71l-49 19q18 24 29.5 58t11.5 60q0 11 -1 16z" />
    <glyph glyph-name="lcommaaccent" unicode="&#x13c;" horiz-adv-x="330" 
d="M104 89v534l-82 6v72l144 19h60v-631l82 -14v-75h-286v75zM224 -41q1 -4 1 -13q0 -39 -26.5 -79t-71.5 -71l-49 19q18 24 29.5 58t11.5 60q0 11 -1 16z" />
    <glyph glyph-name="Lcaron" unicode="&#x13d;" horiz-adv-x="540" 
d="M523 0h-492v75l82 15v501l-82 14v75h292v-75l-82 -14v-484h186l12 87h84v-194zM398 693l80 11q1 -4 1 -14q0 -41 -22 -87.5t-57 -77.5l-44 8q43 77 43 145q0 10 -1 15z" />
    <glyph glyph-name="lcaron" unicode="&#x13e;" horiz-adv-x="358" 
d="M102 89v534l-82 6v72l144 19h60v-631l82 -14v-75h-286v75zM319 733l80 11q1 -4 1 -14q0 -41 -22 -87.5t-57 -77.5l-44 8q43 77 43 145q0 10 -1 15z" />
    <glyph glyph-name="Ldot" unicode="&#x13f;" horiz-adv-x="544" 
d="M527 0h-492v75l82 15v501l-82 14v75h292v-75l-82 -14v-484h186l12 87h84v-194zM315 377q0 28 21 47.5t50 19.5q30 0 50.5 -19.5t20.5 -47.5q0 -27 -20.5 -46.5t-50.5 -19.5q-28 0 -49.5 20t-21.5 46z" />
    <glyph glyph-name="ldot" unicode="&#x140;" horiz-adv-x="386" 
d="M104 89v534l-82 6v72l144 19h60v-631l82 -14v-75h-286v75zM282 374q0 29 22 49.5t53 20.5t53 -20.5t22 -49.5t-22 -49.5t-53 -20.5t-53 20.5t-22 49.5z" />
    <glyph glyph-name="Lslash" unicode="&#x141;" horiz-adv-x="540" 
d="M46 222v106l67 36v227l-82 14v75h292v-75l-82 -14v-158l156 85v-105l-156 -85v-221h186l12 87h84v-194h-492v75l82 15v168z" />
    <glyph glyph-name="lslash" unicode="&#x142;" horiz-adv-x="330" 
d="M50 257v103l54 29v234l-82 6v72l144 19h60v-265l76 41v-102l-76 -42v-263l82 -14v-75h-286v75l82 14v197z" />
    <glyph glyph-name="Nacute" unicode="&#x143;" horiz-adv-x="751" 
d="M643 0h-113l-178 276q-68 105 -109 181h-2q4 -66 4 -174v-194l79 -14v-75h-289v76l82 13v502l-82 13v76h196l179 -278q52 -79 107 -179h2q-4 50 -4 176v192l-79 14v75h289v-75l-82 -14v-591zM403 744h-97l129 118h142z" />
    <glyph glyph-name="nacute" unicode="&#x144;" horiz-adv-x="636" 
d="M615 0h-258v75l54 14v239q0 41 -16.5 61t-43.5 20q-64 0 -116 -71v-249l62 -14v-75h-266v75l82 14v312l-82 7v72l144 18h47l7 -75h2q21 37 66 61.5t93 24.5q64 0 103.5 -40.5t39.5 -120.5v-259l82 -14v-75zM343 582h-90l101 129h128z" />
    <glyph glyph-name="Ncommaaccent" unicode="&#x145;" horiz-adv-x="751" 
d="M643 0h-113l-178 276q-68 105 -109 181h-2q4 -66 4 -174v-194l79 -14v-75h-289v76l82 13v502l-82 13v76h196l179 -278q52 -79 107 -179h2q-4 50 -4 176v192l-79 14v75h289v-75l-82 -14v-591zM423 -41q1 -4 1 -13q0 -39 -26.5 -79t-71.5 -71l-49 19q18 24 29.5 58t11.5 60
q0 11 -1 16z" />
    <glyph glyph-name="ncommaaccent" unicode="&#x146;" horiz-adv-x="636" 
d="M615 0h-258v75l54 14v239q0 41 -16.5 61t-43.5 20q-64 0 -116 -71v-249l62 -14v-75h-266v75l82 14v312l-82 7v72l144 18h47l7 -75h2q21 37 66 61.5t93 24.5q64 0 103.5 -40.5t39.5 -120.5v-259l82 -14v-75zM380 -41q1 -4 1 -13q0 -39 -26.5 -79t-71.5 -71l-49 19
q18 24 29.5 58t11.5 60q0 11 -1 16z" />
    <glyph glyph-name="Ncaron" unicode="&#x147;" horiz-adv-x="751" 
d="M643 0h-113l-178 276q-68 105 -109 181h-2q4 -66 4 -174v-194l79 -14v-75h-289v76l82 13v502l-82 13v76h196l179 -278q52 -79 107 -179h2q-4 50 -4 176v192l-79 14v75h289v-75l-82 -14v-591zM189 862h110l71 -71h2l73 71h110l-138 -118h-92z" />
    <glyph glyph-name="ncaron" unicode="&#x148;" horiz-adv-x="636" 
d="M615 0h-258v75l54 14v239q0 41 -16.5 61t-43.5 20q-64 0 -116 -71v-249l62 -14v-75h-266v75l82 14v312l-82 7v72l144 18h47l7 -75h2q21 37 66 61.5t93 24.5q64 0 103.5 -40.5t39.5 -120.5v-259l82 -14v-75zM152 711h96l61 -82h2l62 82h96l-117 -129h-83z" />
    <glyph glyph-name="napostrophe" unicode="&#x149;" horiz-adv-x="636" 
d="M615 0h-258v75l54 14v239q0 41 -16.5 61t-43.5 20q-64 0 -116 -71v-249l62 -14v-75h-266v75l82 14v312l-82 7v72l144 18h47l7 -75h2q21 37 66 61.5t93 24.5q64 0 103.5 -40.5t39.5 -120.5v-259l82 -14v-75zM143 731l86 11q1 -4 1 -15q0 -41 -23.5 -89t-58.5 -80l-48 8
q44 79 44 148q0 12 -1 17z" />
    <glyph glyph-name="Eng" unicode="&#x14a;" horiz-adv-x="748" 
d="M117 89v502l-82 13v76h196l176 -278q65 -102 108 -180h1q-2 39 -2 177v192l-80 14v75h288v-75l-81 -14v-432q0 -104 -29 -164t-87 -108l-57 -47l-69 85l64 55q34 31 35 64l-146 232q-64 98 -109 179h-2q4 -64 4 -172v-194l80 -14v-75h-290v76z" />
    <glyph glyph-name="eng" unicode="&#x14b;" horiz-adv-x="604" 
d="M339 -77l34 34q25 28 31.5 50.5t6.5 72.5v248q0 41 -16.5 61t-43.5 20q-64 0 -116 -71v-249l69 -14v-75h-273v76l82 13v312l-82 7v72l144 18h47l7 -75h2q21 37 66 61.5t93 24.5q64 0 103.5 -40.5t39.5 -120.5v-235q0 -147 -67 -217l-51 -51z" />
    <glyph glyph-name="Omacron" unicode="&#x14c;" horiz-adv-x="672" 
d="M632 340q0 -165 -79.5 -258t-216.5 -93q-138 0 -217.5 93t-79.5 258q0 164 80 257.5t217 93.5q136 0 216 -93.5t80 -257.5zM501 340q0 112 -45 176.5t-120 64.5t-120.5 -64t-45.5 -177q0 -114 44.5 -177.5t121.5 -63.5q76 0 120.5 63.5t44.5 177.5zM187 767v69h297v-69
h-297z" />
    <glyph glyph-name="omacron" unicode="&#x14d;" horiz-adv-x="538" 
d="M269 -11q-105 0 -169.5 69.5t-64.5 190.5q0 122 64.5 191t169.5 69t169 -69t64 -191q0 -121 -64 -190.5t-169 -69.5zM269 93q52 0 80 40t28 116q0 77 -28 117t-80 40t-80.5 -40t-28.5 -117q0 -76 28.5 -116t80.5 -40zM121 610v69h297v-69h-297z" />
    <glyph glyph-name="Obreve" unicode="&#x14e;" horiz-adv-x="672" 
d="M632 340q0 -165 -79.5 -258t-216.5 -93q-138 0 -217.5 93t-79.5 258q0 164 80 257.5t217 93.5q136 0 216 -93.5t80 -257.5zM501 340q0 112 -45 176.5t-120 64.5t-120.5 -64t-45.5 -177q0 -114 44.5 -177.5t121.5 -63.5q76 0 120.5 63.5t44.5 177.5zM191 861h67
q2 -25 25 -43.5t52 -18.5q30 0 53 18t25 44h67q0 -48 -42.5 -81.5t-102.5 -33.5q-59 0 -101.5 33.5t-42.5 81.5z" />
    <glyph glyph-name="obreve" unicode="&#x14f;" horiz-adv-x="538" 
d="M269 -11q-105 0 -169.5 69.5t-64.5 190.5q0 122 64.5 191t169.5 69t169 -69t64 -191q0 -121 -64 -190.5t-169 -69.5zM269 93q52 0 80 40t28 116q0 77 -28 117t-80 40t-80.5 -40t-28.5 -117q0 -76 28.5 -116t80.5 -40zM125 707h67q2 -27 25 -46.5t52 -19.5q30 0 53 19.5
t25 46.5h67q0 -52 -42.5 -88.5t-102.5 -36.5q-59 0 -101.5 36.5t-42.5 88.5z" />
    <glyph glyph-name="Ohungarumlaut" unicode="&#x150;" horiz-adv-x="672" 
d="M632 340q0 -165 -79.5 -258t-216.5 -93q-138 0 -217.5 93t-79.5 258q0 164 80 257.5t217 93.5q136 0 216 -93.5t80 -257.5zM501 340q0 112 -45 176.5t-120 64.5t-120.5 -64t-45.5 -177q0 -114 44.5 -177.5t121.5 -63.5q76 0 120.5 63.5t44.5 177.5zM461 744h-94l129 118
h139zM282 744h-95l130 118h139z" />
    <glyph glyph-name="ohungarumlaut" unicode="&#x151;" horiz-adv-x="538" 
d="M269 -11q-105 0 -169.5 69.5t-64.5 190.5q0 122 64.5 191t169.5 69t169 -69t64 -191q0 -121 -64 -190.5t-169 -69.5zM269 93q52 0 80 40t28 116q0 77 -28 117t-80 40t-80.5 -40t-28.5 -117q0 -76 28.5 -116t80.5 -40zM216 582h-79l110 138h118zM394 582h-80l110 138h119z
" />
    <glyph glyph-name="OE" unicode="&#x152;" horiz-adv-x="920" 
d="M39 340q0 164 80 257.5t217 93.5q67 0 102 -11h418v-165h-84l-12 60h-194v-173h169l11 43h73v-187h-73l-11 45h-169v-197h215l11 68h84v-174h-438q-40 -11 -102 -11q-138 0 -217.5 93t-79.5 258zM170 340q0 -114 45 -178t121 -64q65 0 102 10v460q-34 14 -102 14
q-75 0 -120.5 -65t-45.5 -177z" />
    <glyph glyph-name="oe" unicode="&#x153;" horiz-adv-x="841" 
d="M35 249q0 121 65 190.5t171 69.5q53 0 95 -25t64 -68h2q20 41 67 67t100 26q209 0 209 -254v-28h-323q0 -66 38.5 -104.5t95.5 -38.5q68 0 145 21l21 -91q-84 -24 -163 -24q-65 0 -118 26t-72 68h-2q-19 -41 -63 -68t-96 -27q-105 0 -170.5 69.5t-65.5 190.5zM160 249
q0 -76 29 -116t80 -40q105 0 105 158q0 155 -105 155q-51 0 -80 -40.5t-29 -116.5zM486 303h220q-1 54 -29.5 87.5t-77.5 33.5q-44 0 -76.5 -33t-36.5 -88z" />
    <glyph glyph-name="Racute" unicode="&#x154;" horiz-adv-x="664" 
d="M659 0h-178l-129 274h-107v-185l77 -14v-75h-287v75l82 14v502l-82 14v75h314q234 0 234 -198q0 -67 -30.5 -114.5t-84.5 -68.5v-2q24 -45 52 -101l57 -106l82 -15v-75zM452 482q0 43 -28 67t-78 24h-101v-191h102q56 0 80.5 29t24.5 71zM335 744h-97l129 118h142z" />
    <glyph glyph-name="racute" unicode="&#x155;" horiz-adv-x="457" 
d="M439 331h-73l-11 70q-6 3 -22 3q-32 0 -58.5 -26t-39.5 -71v-218l92 -14v-75h-296v75l82 14v312l-82 7v72l144 18h46l3 -87h2q9 38 43.5 67.5t75.5 29.5q49 0 94 -26v-151zM252 582h-90l101 129h128z" />
    <glyph glyph-name="Rcommaaccent" unicode="&#x156;" horiz-adv-x="664" 
d="M659 0h-178l-129 274h-107v-185l77 -14v-75h-287v75l82 14v502l-82 14v75h314q234 0 234 -198q0 -67 -30.5 -114.5t-84.5 -68.5v-2q24 -45 52 -101l57 -106l82 -15v-75zM452 482q0 43 -28 67t-78 24h-101v-191h102q56 0 80.5 29t24.5 71zM408 -41q1 -4 1 -13
q0 -39 -26.5 -79t-71.5 -71l-49 19q18 24 29.5 58t11.5 60q0 11 -1 16z" />
    <glyph glyph-name="rcommaaccent" unicode="&#x157;" horiz-adv-x="457" 
d="M439 331h-73l-11 70q-6 3 -22 3q-32 0 -58.5 -26t-39.5 -71v-218l92 -14v-75h-296v75l82 14v312l-82 7v72l144 18h46l3 -87h2q9 38 43.5 67.5t75.5 29.5q49 0 94 -26v-151zM234 -41q1 -4 1 -13q0 -39 -26.5 -79t-71.5 -71l-49 19q18 24 29.5 58t11.5 60q0 11 -1 16z" />
    <glyph glyph-name="Rcaron" unicode="&#x158;" horiz-adv-x="664" 
d="M659 0h-178l-129 274h-107v-185l77 -14v-75h-287v75l82 14v502l-82 14v75h314q234 0 234 -198q0 -67 -30.5 -114.5t-84.5 -68.5v-2q24 -45 52 -101l57 -106l82 -15v-75zM452 482q0 43 -28 67t-78 24h-101v-191h102q56 0 80.5 29t24.5 71zM121 862h110l71 -71h2l73 71h110
l-138 -118h-92z" />
    <glyph glyph-name="rcaron" unicode="&#x159;" horiz-adv-x="457" 
d="M439 331h-73l-11 70q-6 3 -22 3q-32 0 -58.5 -26t-39.5 -71v-218l92 -14v-75h-296v75l82 14v312l-82 7v72l144 18h46l3 -87h2q9 38 43.5 67.5t75.5 29.5q49 0 94 -26v-151zM61 711h96l61 -82h2l62 82h96l-117 -129h-83z" />
    <glyph glyph-name="Sacute" unicode="&#x15a;" horiz-adv-x="538" 
d="M499 205q0 -97 -63 -156t-183 -59q-90 0 -214 42v167h86l14 -82q53 -20 114 -20q50 0 82 26t32 71q0 39 -25 62t-82 40q-37 11 -62 20t-55 26t-48 36.5t-30.5 50.5t-12.5 70q0 86 64 138.5t173 52.5q69 0 165 -28v-164h-85l-15 76q-28 11 -68 11q-50 0 -77 -22.5
t-27 -59.5q0 -20 8 -34t27.5 -25t35 -16.5t47.5 -15.5q44 -13 75.5 -27.5t62 -38t46 -59t15.5 -82.5zM307 744h-97l129 118h142z" />
    <glyph glyph-name="sacute" unicode="&#x15b;" horiz-adv-x="436" 
d="M398 152q0 -75 -51.5 -118.5t-144.5 -43.5q-79 0 -163 27v143h75l13 -60q40 -11 69 -11q36 0 61.5 15.5t25.5 43.5q0 21 -12.5 35t-25.5 19.5t-40 13.5q-74 21 -113 52t-39 97q0 64 49 104t129 40q70 0 139 -21v-127h-73l-12 51q-17 6 -41 6q-35 0 -54 -14.5t-19 -36.5
q0 -26 16.5 -36.5t58.5 -22.5q7 -2 11 -3q26 -7 46.5 -16t44.5 -26t37 -45t13 -66zM257 582h-90l101 129h128z" />
    <glyph glyph-name="Scircumflex" unicode="&#x15c;" horiz-adv-x="538" 
d="M499 205q0 -97 -63 -156t-183 -59q-90 0 -214 42v167h86l14 -82q53 -20 114 -20q50 0 82 26t32 71q0 39 -25 62t-82 40q-37 11 -62 20t-55 26t-48 36.5t-30.5 50.5t-12.5 70q0 86 64 138.5t173 52.5q69 0 165 -28v-164h-85l-15 76q-28 11 -68 11q-50 0 -77 -22.5
t-27 -59.5q0 -20 8 -34t27.5 -25t35 -16.5t47.5 -15.5q44 -13 75.5 -27.5t62 -38t46 -59t15.5 -82.5zM203 744h-110l136 118h92l138 -118h-110l-73 71h-2z" />
    <glyph glyph-name="scircumflex" unicode="&#x15d;" horiz-adv-x="436" 
d="M398 152q0 -75 -51.5 -118.5t-144.5 -43.5q-79 0 -163 27v143h75l13 -60q40 -11 69 -11q36 0 61.5 15.5t25.5 43.5q0 21 -12.5 35t-25.5 19.5t-40 13.5q-74 21 -113 52t-39 97q0 64 49 104t129 40q70 0 139 -21v-127h-73l-12 51q-17 6 -41 6q-35 0 -54 -14.5t-19 -36.5
q0 -26 16.5 -36.5t58.5 -22.5q7 -2 11 -3q26 -7 46.5 -16t44.5 -26t37 -45t13 -66zM162 582h-96l117 129h83l117 -129h-96l-62 81h-2z" />
    <glyph glyph-name="Scedilla" unicode="&#x15e;" horiz-adv-x="538" 
d="M367 -125q0 -43 -31 -69t-77 -26q-53 0 -93 20l22 50q38 -15 63 -15q22 0 35.5 9.5t13.5 26.5q0 26 -23.5 34t-77.5 11l25 75q-79 4 -185 41v167h86l14 -82q53 -20 114 -20q50 0 82 26t32 71q0 39 -25 62t-82 40q-37 11 -62 20t-55 26t-48 36.5t-30.5 50.5t-12.5 70
q0 86 64 138.5t173 52.5q69 0 165 -28v-164h-85l-15 76q-28 11 -68 11q-50 0 -77 -22.5t-27 -59.5q0 -20 8 -34t27.5 -25t35 -16.5t47.5 -15.5q44 -13 75.5 -27.5t62 -38t46 -59t15.5 -82.5q0 -90 -55 -148.5t-160 -65.5l-11 -29v-2q41 -3 67.5 -26.5t26.5 -58.5z" />
    <glyph glyph-name="scedilla" unicode="&#x15f;" horiz-adv-x="436" 
d="M311 -125q0 -43 -31 -69t-77 -26q-53 0 -93 20l22 50q38 -15 63 -15q22 0 35.5 9.5t13.5 26.5q0 26 -23.5 34t-77.5 11l26 75q-68 5 -130 26v143h75l13 -60q40 -11 69 -11q36 0 61.5 15.5t25.5 43.5q0 21 -12.5 35t-25.5 19.5t-40 13.5q-74 21 -113 52t-39 97
q0 64 49 104t129 40q70 0 139 -21v-127h-73l-12 51q-17 6 -41 6q-35 0 -54 -14.5t-19 -36.5q0 -26 16.5 -36.5t58.5 -22.5q7 -2 11 -3q26 -7 46.5 -16t44.5 -26t37 -45t13 -66q0 -69 -44.5 -111.5t-125.5 -49.5l-11 -29v-2q41 -3 67.5 -26.5t26.5 -58.5z" />
    <glyph glyph-name="Scaron" unicode="&#x160;" horiz-adv-x="538" 
d="M499 205q0 -97 -63 -156t-183 -59q-90 0 -214 42v167h86l14 -82q53 -20 114 -20q50 0 82 26t32 71q0 39 -25 62t-82 40q-37 11 -62 20t-55 26t-48 36.5t-30.5 50.5t-12.5 70q0 86 64 138.5t173 52.5q69 0 165 -28v-164h-85l-15 76q-28 11 -68 11q-50 0 -77 -22.5
t-27 -59.5q0 -20 8 -34t27.5 -25t35 -16.5t47.5 -15.5q44 -13 75.5 -27.5t62 -38t46 -59t15.5 -82.5zM93 862h110l71 -71h2l73 71h110l-138 -118h-92z" />
    <glyph glyph-name="scaron" unicode="&#x161;" horiz-adv-x="436" 
d="M398 152q0 -75 -51.5 -118.5t-144.5 -43.5q-79 0 -163 27v143h75l13 -60q40 -11 69 -11q36 0 61.5 15.5t25.5 43.5q0 21 -12.5 35t-25.5 19.5t-40 13.5q-74 21 -113 52t-39 97q0 64 49 104t129 40q70 0 139 -21v-127h-73l-12 51q-17 6 -41 6q-35 0 -54 -14.5t-19 -36.5
q0 -26 16.5 -36.5t58.5 -22.5q7 -2 11 -3q26 -7 46.5 -16t44.5 -26t37 -45t13 -66zM66 711h96l61 -82h2l62 82h96l-117 -129h-83z" />
    <glyph glyph-name="Tcommaaccent" unicode="&#x162;" horiz-adv-x="594" 
d="M573 495h-84l-15 78h-112v-484l82 -14v-75h-292v75l82 14v484h-114l-15 -78h-84v185h552v-185zM358 -41q1 -4 1 -13q0 -39 -26.5 -79t-71.5 -71l-49 19q18 24 29.5 58t11.5 60q0 11 -1 16z" />
    <glyph glyph-name="tcommaaccent" unicode="&#x163;" horiz-adv-x="386" 
d="M373 19q-75 -29 -143 -29q-62 0 -101.5 30.5t-39.5 88.5v296h-67v93h67v93l122 40v-133h123v-93h-123v-262q0 -50 45 -50q36 0 87 18zM266 -41q1 -4 1 -13q0 -39 -26.5 -79t-71.5 -71l-49 19q18 24 29.5 58t11.5 60q0 11 -1 16z" />
    <glyph glyph-name="Tcaron" unicode="&#x164;" horiz-adv-x="594" 
d="M573 495h-84l-15 78h-112v-484l82 -14v-75h-292v75l82 14v484h-114l-15 -78h-84v185h552v-185zM114 862h110l71 -71h2l73 71h110l-138 -118h-92z" />
    <glyph glyph-name="tcaron" unicode="&#x165;" horiz-adv-x="399" 
d="M373 19q-75 -29 -143 -29q-62 0 -101.5 30.5t-39.5 88.5v296h-67v93h67v93l122 40v-133h123v-93h-123v-262q0 -50 45 -50q36 0 87 18zM329 733l80 11q1 -4 1 -14q0 -41 -22 -87.5t-57 -77.5l-44 8q43 77 43 145q0 10 -1 15z" />
    <glyph glyph-name="Tbar" unicode="&#x166;" horiz-adv-x="594" 
d="M573 495h-84l-15 78h-112v-170h125v-84h-125v-230l82 -14v-75h-292v75l82 14v230h-129v84h129v170h-114l-15 -78h-84v185h552v-185z" />
    <glyph glyph-name="tbar" unicode="&#x167;" horiz-adv-x="386" 
d="M30 239v76h59v90h-67v93h67v93l122 40v-133h123v-93h-123v-90h95v-76h-95v-96q0 -50 45 -50q36 0 87 18l30 -92q-75 -29 -143 -29q-62 0 -101.5 30.5t-39.5 88.5v130h-59z" />
    <glyph glyph-name="Utilde" unicode="&#x168;" horiz-adv-x="718" 
d="M616 225q0 -114 -68 -175t-189 -61q-120 0 -188.5 61t-68.5 175v366l-82 14v75h281v-75l-71 -15v-354q0 -63 32 -100t97 -37t97 37t32 100v355l-70 14v75h280v-75l-82 -14v-366zM541 796q-69 -50 -122 -50q-32 0 -67 20t-56 20q-28 0 -80 -37l-41 57q69 50 121 50
q33 0 68 -20t55 -20q28 0 79 37z" />
    <glyph glyph-name="utilde" unicode="&#x169;" horiz-adv-x="615" 
d="M593 15l-126 -17h-61l-10 70h-2q-22 -38 -63 -58.5t-91 -20.5q-64 0 -102.5 40.5t-38.5 120.5v251l-82 7v71l144 19h60v-329q0 -80 58 -80q65 0 110 63v249l-67 7v71l129 19h60v-407l82 -10v-66zM458 641q-33 -29 -57.5 -42.5t-53.5 -13.5t-61 22t-51 22q-4 0 -7.5 -0.5
t-7.5 -2t-7 -2.5t-7 -4t-7 -4.5t-8 -6t-8 -6.5t-9.5 -7t-9.5 -8l-37 60q32 28 55.5 41.5t52.5 13.5q31 0 62 -22t50 -22q17 0 31 8.5t40 31.5z" />
    <glyph glyph-name="Umacron" unicode="&#x16a;" horiz-adv-x="718" 
d="M616 225q0 -114 -68 -175t-189 -61q-120 0 -188.5 61t-68.5 175v366l-82 14v75h281v-75l-71 -15v-354q0 -63 32 -100t97 -37t97 37t32 100v355l-70 14v75h280v-75l-82 -14v-366zM210 767v69h297v-69h-297z" />
    <glyph glyph-name="umacron" unicode="&#x16b;" horiz-adv-x="615" 
d="M593 15l-126 -17h-61l-10 70h-2q-22 -38 -63 -58.5t-91 -20.5q-64 0 -102.5 40.5t-38.5 120.5v251l-82 7v71l144 19h60v-329q0 -80 58 -80q65 0 110 63v249l-67 7v71l129 19h60v-407l82 -10v-66zM144 610v69h297v-69h-297z" />
    <glyph glyph-name="Ubreve" unicode="&#x16c;" horiz-adv-x="718" 
d="M616 225q0 -114 -68 -175t-189 -61q-120 0 -188.5 61t-68.5 175v366l-82 14v75h281v-75l-71 -15v-354q0 -63 32 -100t97 -37t97 37t32 100v355l-70 14v75h280v-75l-82 -14v-366zM214 861h67q2 -25 25 -43.5t52 -18.5q30 0 53 18t25 44h67q0 -48 -42.5 -81.5t-102.5 -33.5
q-59 0 -101.5 33.5t-42.5 81.5z" />
    <glyph glyph-name="ubreve" unicode="&#x16d;" horiz-adv-x="615" 
d="M593 15l-126 -17h-61l-10 70h-2q-22 -38 -63 -58.5t-91 -20.5q-64 0 -102.5 40.5t-38.5 120.5v251l-82 7v71l144 19h60v-329q0 -80 58 -80q65 0 110 63v249l-67 7v71l129 19h60v-407l82 -10v-66zM148 707h67q2 -27 25 -46.5t52 -19.5q30 0 53 19.5t25 46.5h67
q0 -52 -42.5 -88.5t-102.5 -36.5q-59 0 -101.5 36.5t-42.5 88.5z" />
    <glyph glyph-name="Uring" unicode="&#x16e;" horiz-adv-x="718" 
d="M616 225q0 -114 -68 -175t-189 -61q-120 0 -188.5 61t-68.5 175v366l-82 14v75h281v-75l-71 -15v-354q0 -63 32 -100t97 -37t97 37t32 100v355l-70 14v75h280v-75l-82 -14v-366zM250 818q0 46 31.5 78.5t76.5 32.5t76.5 -32.5t31.5 -78.5t-31.5 -78.5t-76.5 -32.5
t-76.5 32.5t-31.5 78.5zM309 818q0 -25 14 -41.5t35 -16.5q20 0 34.5 16.5t14.5 41.5q0 24 -14.5 41t-34.5 17q-21 0 -35 -17t-14 -41z" />
    <glyph glyph-name="uring" unicode="&#x16f;" horiz-adv-x="615" 
d="M593 15l-126 -17h-61l-10 70h-2q-22 -38 -63 -58.5t-91 -20.5q-64 0 -102.5 40.5t-38.5 120.5v251l-82 7v71l144 19h60v-329q0 -80 58 -80q65 0 110 63v249l-67 7v71l129 19h60v-407l82 -10v-66zM184 656q0 46 31.5 78.5t76.5 32.5t76.5 -32.5t31.5 -78.5t-31.5 -78.5
t-76.5 -32.5t-76.5 32.5t-31.5 78.5zM243 656q0 -25 14 -41.5t35 -16.5q20 0 34.5 16.5t14.5 41.5q0 24 -14.5 41t-34.5 17q-21 0 -35 -17t-14 -41z" />
    <glyph glyph-name="Uhungarumlaut" unicode="&#x170;" horiz-adv-x="718" 
d="M616 225q0 -114 -68 -175t-189 -61q-120 0 -188.5 61t-68.5 175v366l-82 14v75h281v-75l-71 -15v-354q0 -63 32 -100t97 -37t97 37t32 100v355l-70 14v75h280v-75l-82 -14v-366zM484 744h-94l129 118h139zM305 744h-95l130 118h139z" />
    <glyph glyph-name="uhungarumlaut" unicode="&#x171;" horiz-adv-x="615" 
d="M593 15l-126 -17h-61l-10 70h-2q-22 -38 -63 -58.5t-91 -20.5q-64 0 -102.5 40.5t-38.5 120.5v251l-82 7v71l144 19h60v-329q0 -80 58 -80q65 0 110 63v249l-67 7v71l129 19h60v-407l82 -10v-66zM239 582h-79l110 138h118zM417 582h-80l110 138h119z" />
    <glyph glyph-name="Uogonek" unicode="&#x172;" horiz-adv-x="718" 
d="M264 -128q0 30 22.5 62t57.5 55q-113 4 -177.5 65t-64.5 171v366l-82 14v75h281v-75l-71 -15v-354q0 -63 32 -100t97 -37t97 37t32 100v355l-70 14v75h280v-75l-82 -14v-366q0 -92 -45.5 -150t-128.5 -77q-35 -25 -58.5 -55t-23.5 -54q0 -18 9 -30.5t24 -12.5q17 0 29 4
l14 -59q-33 -11 -61 -11q-49 0 -80 23.5t-31 68.5z" />
    <glyph glyph-name="uogonek" unicode="&#x173;" horiz-adv-x="615" 
d="M307 -128q0 34 28 70t70 58l-9 68h-2q-22 -38 -63 -58.5t-91 -20.5q-64 0 -102.5 40.5t-38.5 120.5v251l-82 7v71l144 19h60v-329q0 -80 58 -80q65 0 110 63v249l-67 7v71l129 19h60v-407l82 -10v-66l-103 -14q-38 -25 -62.5 -56.5t-24.5 -55.5q0 -18 9 -30.5t24 -12.5
q17 0 29 4l14 -59q-33 -11 -61 -11q-49 0 -80 23.5t-31 68.5z" />
    <glyph glyph-name="Wcircumflex" unicode="&#x174;" horiz-adv-x="945" 
d="M862 590l-167 -590h-127l-57 237q-26 111 -38 181h-2q-3 -22 -41 -185l-56 -233h-127l-164 591l-74 14v75h275v-75l-76 -14l47 -186q46 -182 57 -244h2q11 71 49 228l73 291h75l71 -285q29 -115 51 -234h2q8 47 53 227l52 202l-76 15v75h272v-75zM399 744h-110l136 118
h92l138 -118h-110l-73 71h-2z" />
    <glyph glyph-name="wcircumflex" unicode="&#x175;" horiz-adv-x="801" 
d="M719 410l-130 -410h-104l-47 168q-27 94 -36 137h-2q-14 -58 -36 -136l-48 -169h-103l-131 410l-74 13v75h251v-78l-61 -10l36 -127q21 -68 38 -140h2q13 75 42 172l52 183h68l52 -183q27 -96 42 -172h2q12 59 39 144l35 123l-62 10v78h249v-75zM338 582h-96l117 129h83
l117 -129h-96l-62 81h-2z" />
    <glyph glyph-name="Ycircumflex" unicode="&#x176;" horiz-adv-x="649" 
d="M567 591l-179 -357v-145l82 -14v-75h-292v75l82 14v145l-177 357l-74 14v75h272v-78l-60 -11l34 -79q41 -95 69 -171h2q33 95 69 170l35 78l-61 13v78h272v-75zM252 744h-110l136 118h92l138 -118h-110l-73 71h-2z" />
    <glyph glyph-name="ycircumflex" unicode="&#x177;" horiz-adv-x="611" 
d="M529 410l-123 -310q-65 -156 -139 -230l-102 -102l-72 73l65 67q50 53 78 106l-154 396l-74 13v75h256v-79l-59 -9l42 -116q36 -98 57 -179h2q23 78 61 180l40 115l-59 9v79h255v-75zM243 582h-96l117 129h83l117 -129h-96l-62 81h-2z" />
    <glyph glyph-name="Ydieresis" unicode="&#x178;" horiz-adv-x="649" 
d="M567 591l-179 -357v-145l82 -14v-75h-292v75l82 14v145l-177 357l-74 14v75h272v-78l-60 -11l34 -79q41 -95 69 -171h2q33 95 69 170l35 78l-61 13v78h272v-75zM139 801q0 27 19.5 45.5t48.5 18.5t49 -18.5t20 -45.5q0 -26 -20 -45t-49 -19q-28 0 -48 19t-20 45zM375 801
q0 27 19.5 45.5t48.5 18.5t49 -18.5t20 -45.5q0 -26 -20 -45t-49 -19q-28 0 -48 19t-20 45z" />
    <glyph glyph-name="Zacute" unicode="&#x179;" horiz-adv-x="542" 
d="M509 0h-474v97l225 348q23 36 91 126v2h-191l-15 -78h-85v185h434v-98l-225 -344q-16 -24 -88 -129v-2h229l13 83h86v-190zM311 744h-97l129 118h142z" />
    <glyph glyph-name="zacute" unicode="&#x17a;" horiz-adv-x="484" 
d="M446 0h-408v91l163 200q11 13 94 105v2h-157l-11 -61h-73v161h385v-91l-190 -227q-16 -20 -69 -78v-2h178l13 69h75v-169zM283 582h-90l101 129h128z" />
    <glyph glyph-name="Zdotaccent" unicode="&#x17b;" horiz-adv-x="542" 
d="M509 0h-474v97l225 348q23 36 91 126v2h-191l-15 -78h-85v185h434v-98l-225 -344q-16 -24 -88 -129v-2h229l13 83h86v-190zM205 802q0 29 22 49.5t53 20.5t53 -20.5t22 -49.5t-22 -49.5t-53 -20.5t-53 20.5t-22 49.5z" />
    <glyph glyph-name="zdotaccent" unicode="&#x17c;" horiz-adv-x="484" 
d="M446 0h-408v91l163 200q11 13 94 105v2h-157l-11 -61h-73v161h385v-91l-190 -227q-16 -20 -69 -78v-2h178l13 69h75v-169zM175 644q0 29 22 49.5t53 20.5t53 -20.5t22 -49.5t-22 -49.5t-53 -20.5t-53 20.5t-22 49.5z" />
    <glyph glyph-name="Zcaron" unicode="&#x17d;" horiz-adv-x="542" 
d="M509 0h-474v97l225 348q23 36 91 126v2h-191l-15 -78h-85v185h434v-98l-225 -344q-16 -24 -88 -129v-2h229l13 83h86v-190zM97 862h110l71 -71h2l73 71h110l-138 -118h-92z" />
    <glyph glyph-name="zcaron" unicode="&#x17e;" horiz-adv-x="484" 
d="M446 0h-408v91l163 200q11 13 94 105v2h-157l-11 -61h-73v161h385v-91l-190 -227q-16 -20 -69 -78v-2h178l13 69h75v-169zM92 711h96l61 -82h2l62 82h96l-117 -129h-83z" />
    <glyph glyph-name="florin" unicode="&#x192;" horiz-adv-x="538" 
d="M136 318v99h72l26 141q10 54 55.5 82t102.5 28q44 0 109 -19l-35 -94q-38 12 -69 12q-43 0 -50 -41l-19 -109h99v-99h-115l-37 -221q-19 -114 -59 -175t-117 -61q-49 0 -86 10l20 88q20 -5 40 -5q36 0 54.5 41t32.5 126l32 197h-56z" />
    <glyph glyph-name="AEacute" unicode="&#x1fc;" horiz-adv-x="930" 
d="M886 0h-507v76l69 13v96h-204l-54 -96l64 -13v-76h-273v75l79 14l283 502l-74 13v76h598v-165h-85l-11 60h-194v-173h169l10 43h73v-187h-73l-10 45h-169v-197h214l11 68h84v-174zM291 283h157v92q0 122 3 199h-2q-32 -62 -106 -196zM574 744h-97l129 118h142z" />
    <glyph glyph-name="aeacute" unicode="&#x1fd;" horiz-adv-x="792" 
d="M41 142q0 80 39.5 120t109.5 40q24 0 70.5 -8.5t71.5 -9.5v50q0 78 -93 78q-31 0 -77 -14l-11 -50h-79v125q112 35 181 35q54 0 90.5 -24.5t46.5 -58.5h2q18 36 63 60t91 24q212 0 212 -254v-28h-322q0 -66 38 -104.5t95 -38.5q70 0 145 21l22 -91q-84 -24 -166 -24
q-65 0 -115 25t-71 62h-2q-24 -40 -74 -64t-115 -24q-67 0 -109.5 39.5t-42.5 113.5zM158 153q0 -35 17.5 -57t52.5 -22q28 0 65.5 17.5t58.5 39.5q-16 38 -19 86q-17 1 -54.5 7t-50.5 6q-70 0 -70 -77zM437 303h219q0 54 -28 87.5t-77 33.5q-44 0 -77 -33t-37 -88zM432 582
h-90l101 129h128z" />
    <glyph glyph-name="Oslashacute" unicode="&#x1fe;" horiz-adv-x="679" 
d="M44 7l66 91q-70 95 -70 242q0 164 81 257.5t218 93.5q98 0 167 -55l58 81l70 -46l-67 -91q72 -96 72 -240q0 -165 -81 -258t-219 -93q-97 0 -166 53l-59 -80zM170 340q0 -66 23 -119h2l241 317q-38 43 -97 43q-76 0 -122.5 -64.5t-46.5 -176.5zM509 340q0 64 -25 118h-2
l-241 -318q39 -41 98 -41q77 0 123.5 63.5t46.5 177.5zM372 734h-90l101 129h128z" />
    <glyph glyph-name="oslashacute" unicode="&#x1ff;" horiz-adv-x="545" 
d="M35 249q0 121 66 190.5t172 69.5q73 0 126 -35l42 60l43 -31l-44 -61q70 -73 70 -193q0 -121 -65.5 -190.5t-171.5 -69.5q-73 0 -130 37l-43 -61l-42 31l45 62q-68 73 -68 191zM388 249q0 51 -20 89h-2l-162 -225q28 -25 69 -25q53 0 84 41.5t31 119.5zM157 249
q0 -49 18 -87h2l161 225q-28 23 -65 23q-54 0 -85 -41t-31 -120zM305 582h-90l101 129h128z" />
    <glyph glyph-name="Scommaaccent" unicode="&#x218;" horiz-adv-x="538" 
d="M499 205q0 -97 -63 -156t-183 -59q-90 0 -214 42v167h86l14 -82q53 -20 114 -20q50 0 82 26t32 71q0 39 -25 62t-82 40q-37 11 -62 20t-55 26t-48 36.5t-30.5 50.5t-12.5 70q0 86 64 138.5t173 52.5q69 0 165 -28v-164h-85l-15 76q-28 11 -68 11q-50 0 -77 -22.5
t-27 -59.5q0 -20 8 -34t27.5 -25t35 -16.5t47.5 -15.5q44 -13 75.5 -27.5t62 -38t46 -59t15.5 -82.5zM331 -41q1 -4 1 -13q0 -39 -26.5 -79t-71.5 -71l-49 19q18 24 29.5 58t11.5 60q0 11 -1 16z" />
    <glyph glyph-name="scommaaccent" unicode="&#x219;" horiz-adv-x="436" 
d="M398 152q0 -75 -51.5 -118.5t-144.5 -43.5q-79 0 -163 27v143h75l13 -60q40 -11 69 -11q36 0 61.5 15.5t25.5 43.5q0 21 -12.5 35t-25.5 19.5t-40 13.5q-74 21 -113 52t-39 97q0 64 49 104t129 40q70 0 139 -21v-127h-73l-12 51q-17 6 -41 6q-35 0 -54 -14.5t-19 -36.5
q0 -26 16.5 -36.5t58.5 -22.5q7 -2 11 -3q26 -7 46.5 -16t44.5 -26t37 -45t13 -66zM275 -41q1 -4 1 -13q0 -39 -26.5 -79t-71.5 -71l-49 19q18 24 29.5 58t11.5 60q0 11 -1 16z" />
    <glyph glyph-name="uni021A" unicode="&#x21a;" horiz-adv-x="594" 
d="M573 495h-84l-15 78h-112v-484l82 -14v-75h-292v75l82 14v484h-114l-15 -78h-84v185h552v-185zM358 -41q1 -4 1 -13q0 -39 -26.5 -79t-71.5 -71l-49 19q18 24 29.5 58t11.5 60q0 11 -1 16z" />
    <glyph glyph-name="uni021B" unicode="&#x21b;" horiz-adv-x="386" 
d="M373 19q-75 -29 -143 -29q-62 0 -101.5 30.5t-39.5 88.5v296h-67v93h67v93l122 40v-133h123v-93h-123v-262q0 -50 45 -50q36 0 87 18zM266 -41q1 -4 1 -13q0 -39 -26.5 -79t-71.5 -71l-49 19q18 24 29.5 58t11.5 60q0 11 -1 16z" />
    <glyph glyph-name="dotlessj" unicode="&#x237;" horiz-adv-x="302" 
d="M-2 -142l75 78q24 25 30 43.5t6 65.5v356l-82 7v72l144 18h60v-442q0 -79 -10.5 -113t-54.5 -76l-93 -88z" />
    <glyph glyph-name="circumflex" unicode="&#x2c6;" horiz-adv-x="455" 
d="M165 582h-96l117 129h83l117 -129h-96l-62 81h-2z" />
    <glyph glyph-name="caron" unicode="&#x2c7;" horiz-adv-x="455" 
d="M69 711h96l61 -82h2l62 82h96l-117 -129h-83z" />
    <glyph glyph-name="uni02C9" unicode="&#x2c9;" horiz-adv-x="455" 
d="M79 610v69h297v-69h-297z" />
    <glyph glyph-name="breve" unicode="&#x2d8;" horiz-adv-x="455" 
d="M83 707h67q2 -27 25 -46.5t52 -19.5q30 0 53 19.5t25 46.5h67q0 -52 -42.5 -88.5t-102.5 -36.5q-59 0 -101.5 36.5t-42.5 88.5z" />
    <glyph glyph-name="dotaccent" unicode="&#x2d9;" horiz-adv-x="455" 
d="M152 644q0 29 22 49.5t53 20.5t53 -20.5t22 -49.5t-22 -49.5t-53 -20.5t-53 20.5t-22 49.5z" />
    <glyph glyph-name="ring" unicode="&#x2da;" horiz-adv-x="455" 
d="M119 656q0 46 31.5 78.5t76.5 32.5t76.5 -32.5t31.5 -78.5t-31.5 -78.5t-76.5 -32.5t-76.5 32.5t-31.5 78.5zM178 656q0 -25 14 -41.5t35 -16.5q20 0 34.5 16.5t14.5 41.5q0 24 -14.5 41t-34.5 17q-21 0 -35 -17t-14 -41z" />
    <glyph glyph-name="ogonek" unicode="&#x2db;" horiz-adv-x="455" 
d="M90 -128q0 36 31 72.5t75 59.5h82q-39 -25 -65.5 -57.5t-26.5 -57.5q0 -18 9 -30.5t24 -12.5q17 0 29 4l14 -59q-33 -11 -61 -11q-49 0 -80 23.5t-31 68.5z" />
    <glyph glyph-name="tilde" unicode="&#x2dc;" horiz-adv-x="455" 
d="M393 641q-33 -29 -57.5 -42.5t-53.5 -13.5t-61 22t-51 22q-4 0 -7.5 -0.5t-7.5 -2t-7 -2.5t-7 -4t-7 -4.5t-8 -6t-8 -6.5t-9.5 -7t-9.5 -8l-37 60q32 28 55.5 41.5t52.5 13.5q30 0 62 -22t50 -22q17 0 31 8.5t40 31.5z" />
    <glyph glyph-name="hungarumlaut" unicode="&#x2dd;" horiz-adv-x="455" 
d="M174 582h-79l110 138h118zM352 582h-80l110 138h119z" />
    <glyph glyph-name="uni0394" unicode="&#x394;" horiz-adv-x="590" 
d="M562 0h-534v87l193 593h148l193 -593v-87zM147 99h294l-74 234q-38 117 -71 245h-2q-25 -96 -72 -244z" />
    <glyph glyph-name="uni03A9" unicode="&#x3a9;" horiz-adv-x="767" 
d="M20 0v175h86l12 -68h101v2q-58 39 -94 104t-36 149q0 153 80 241t215 88q134 0 214 -88t80 -241q0 -84 -36.5 -149t-95.5 -104v-2h104l11 67h86v-174h-325v93q125 107 125 258q0 111 -44.5 170.5t-118.5 59.5t-119 -59.5t-45 -170.5q0 -83 31 -144t92 -114v-93h-323z" />
    <glyph glyph-name="uni03BC" unicode="&#x3bc;" horiz-adv-x="615" 
d="M593 15l-127 -17h-60q-7 35 -10 70h-2q-21 -36 -55.5 -56.5t-76.5 -20.5q-37 0 -51 14h-2v-215h-110v611l-82 7v71l144 19h60v-328q0 -81 59 -81q36 0 61 15.5t48 48.5v248l-67 7v71l129 19h60v-407l82 -10v-66z" />
    <glyph glyph-name="pi" unicode="&#x3c0;" horiz-adv-x="595" 
d="M218 0h-122v398h-84v101h571v-101h-85v-262q0 -68 19 -136h-119q-22 57 -22 133v265h-158v-398z" />
    <glyph glyph-name="Wgrave" unicode="&#x1e80;" horiz-adv-x="945" 
d="M862 590l-167 -590h-127l-57 237q-26 111 -38 181h-2q-3 -22 -41 -185l-56 -233h-127l-164 591l-74 14v75h275v-75l-76 -14l47 -186q46 -182 57 -244h2q11 71 49 228l73 291h75l71 -285q29 -115 51 -234h2q8 47 53 227l52 202l-76 15v75h272v-75zM544 744h-98l-174 118
h142z" />
    <glyph glyph-name="wgrave" unicode="&#x1e81;" horiz-adv-x="801" 
d="M719 410l-130 -410h-104l-47 168q-27 94 -36 137h-2q-14 -58 -36 -136l-48 -169h-103l-131 410l-74 13v75h251v-78l-61 -10l36 -127q21 -68 38 -140h2q13 75 42 172l52 183h68l52 -183q27 -96 42 -172h2q12 59 39 144l35 123l-62 10v78h249v-75zM458 582h-90l-139 129
h128z" />
    <glyph glyph-name="Wacute" unicode="&#x1e82;" horiz-adv-x="945" 
d="M862 590l-167 -590h-127l-57 237q-26 111 -38 181h-2q-3 -22 -41 -185l-56 -233h-127l-164 591l-74 14v75h275v-75l-76 -14l47 -186q46 -182 57 -244h2q11 71 49 228l73 291h75l71 -285q29 -115 51 -234h2q8 47 53 227l52 202l-76 15v75h272v-75zM503 744h-97l129 118
h142z" />
    <glyph glyph-name="wacute" unicode="&#x1e83;" horiz-adv-x="801" 
d="M719 410l-130 -410h-104l-47 168q-27 94 -36 137h-2q-14 -58 -36 -136l-48 -169h-103l-131 410l-74 13v75h251v-78l-61 -10l36 -127q21 -68 38 -140h2q13 75 42 172l52 183h68l52 -183q27 -96 42 -172h2q12 59 39 144l35 123l-62 10v78h249v-75zM433 582h-90l101 129h128
z" />
    <glyph glyph-name="Wdieresis" unicode="&#x1e84;" horiz-adv-x="945" 
d="M862 590l-167 -590h-127l-57 237q-26 111 -38 181h-2q-3 -22 -41 -185l-56 -233h-127l-164 591l-74 14v75h275v-75l-76 -14l47 -186q46 -182 57 -244h2q11 71 49 228l73 291h75l71 -285q29 -115 51 -234h2q8 47 53 227l52 202l-76 15v75h272v-75zM286 801q0 27 19.5 45.5
t48.5 18.5t49 -18.5t20 -45.5q0 -26 -20 -45t-49 -19q-28 0 -48 19t-20 45zM522 801q0 27 19.5 45.5t48.5 18.5t49 -18.5t20 -45.5q0 -26 -20 -45t-49 -19q-28 0 -48 19t-20 45z" />
    <glyph glyph-name="wdieresis" unicode="&#x1e85;" horiz-adv-x="801" 
d="M719 410l-130 -410h-104l-47 168q-27 94 -36 137h-2q-14 -58 -36 -136l-48 -169h-103l-131 410l-74 13v75h251v-78l-61 -10l36 -127q21 -68 38 -140h2q13 75 42 172l52 183h68l52 -183q27 -96 42 -172h2q12 59 39 144l35 123l-62 10v78h249v-75zM227 644q0 27 20 45.5
t48 18.5q29 0 49 -18.5t20 -45.5q0 -26 -20 -44.5t-49 -18.5q-28 0 -48 18.5t-20 44.5zM436 644q0 27 20 45.5t49 18.5t49 -18.5t20 -45.5q0 -26 -20 -44.5t-49 -18.5q-28 0 -48.5 18.5t-20.5 44.5z" />
    <glyph glyph-name="Ygrave" unicode="&#x1ef2;" horiz-adv-x="649" 
d="M567 591l-179 -357v-145l82 -14v-75h-292v75l82 14v145l-177 357l-74 14v75h272v-78l-60 -11l34 -79q41 -95 69 -171h2q33 95 69 170l35 78l-61 13v78h272v-75zM397 744h-98l-174 118h142z" />
    <glyph glyph-name="ygrave" unicode="&#x1ef3;" horiz-adv-x="611" 
d="M529 410l-123 -310q-65 -156 -139 -230l-102 -102l-72 73l65 67q50 53 78 106l-154 396l-74 13v75h256v-79l-59 -9l42 -116q36 -98 57 -179h2q23 78 61 180l40 115l-59 9v79h255v-75zM363 582h-90l-139 129h128z" />
    <glyph glyph-name="endash" unicode="&#x2013;" horiz-adv-x="500" 
d="M35 237v84h430v-84h-430z" />
    <glyph glyph-name="emdash" unicode="&#x2014;" horiz-adv-x="1000" 
d="M35 237v84h930v-84h-930z" />
    <glyph glyph-name="quoteleft" unicode="&#x2018;" horiz-adv-x="240" 
d="M42 457q-1 6 -1 20q0 61 29 130.5t74 116.5l61 -12q-55 -115 -55 -215q0 -17 1 -24z" />
    <glyph glyph-name="quoteright" unicode="&#x2019;" horiz-adv-x="240" 
d="M91 708l108 16q1 -6 1 -21q0 -61 -29 -130t-74 -116l-60 12q55 115 55 215q0 17 -1 24z" />
    <glyph glyph-name="quotesinglbase" unicode="&#x201a;" horiz-adv-x="240" 
d="M199 154q1 -6 1 -20q0 -61 -29 -130t-74 -116l-60 12q55 115 55 215q0 16 -1 23z" />
    <glyph glyph-name="quotedblleft" unicode="&#x201c;" horiz-adv-x="427" 
d="M229 457q-1 6 -1 20q0 62 28.5 131t73.5 116l61 -12q-55 -115 -55 -215q0 -17 1 -24zM42 457q-1 6 -1 20q0 61 29 130.5t74 116.5l61 -12q-55 -115 -55 -215q0 -17 1 -24z" />
    <glyph glyph-name="quotedblright" unicode="&#x201d;" horiz-adv-x="427" 
d="M199 724q1 -6 1 -21q0 -61 -29 -130t-74 -116l-60 12q55 115 55 215q0 17 -1 24zM385 724q1 -6 1 -21q0 -61 -28.5 -130t-73.5 -116l-61 12q55 115 55 215q0 17 -1 24z" />
    <glyph glyph-name="quotedblbase" unicode="&#x201e;" horiz-adv-x="427" 
d="M199 154q1 -6 1 -20q0 -61 -29 -130t-74 -116l-60 12q55 115 55 215q0 16 -1 23zM385 154q1 -6 1 -20q0 -62 -28.5 -131t-73.5 -115l-61 12q55 115 55 215q0 16 -1 23z" />
    <glyph glyph-name="dagger" unicode="&#x2020;" horiz-adv-x="454" 
d="M25 410v88h151v188h102v-188h151v-91h-151v-457h-102v460h-151z" />
    <glyph glyph-name="daggerdbl" unicode="&#x2021;" horiz-adv-x="454" 
d="M25 410v88h151v188h102v-188h151v-91h-151v-205h151v-91h-151v-161h-102v161h-151v91h151v208h-151z" />
    <glyph glyph-name="bullet" unicode="&#x2022;" horiz-adv-x="328" 
d="M282 317q0 -50 -34 -87.5t-81 -37.5q-51 0 -86 37.5t-35 87.5q0 51 34.5 85t86.5 34q48 0 81.5 -34t33.5 -85z" />
    <glyph glyph-name="ellipsis" unicode="&#x2026;" horiz-adv-x="1000" 
d="M91 68q0 32 22.5 55.5t53.5 23.5t53.5 -23.5t22.5 -55.5q0 -33 -22 -56t-54 -23t-54 23t-22 56zM424 68q0 32 22.5 55.5t53.5 23.5t53.5 -23.5t22.5 -55.5q0 -33 -22 -56t-54 -23t-54 23t-22 56zM757 68q0 32 22.5 55.5t53.5 23.5t53.5 -23.5t22.5 -55.5q0 -33 -22 -56
t-54 -23t-54 23t-22 56z" />
    <glyph glyph-name="perthousand" unicode="&#x2030;" horiz-adv-x="1184" 
d="M330 463q0 -203 -153 -203q-152 0 -152 203q0 97 38.5 149.5t113.5 52.5q76 0 114.5 -52.5t38.5 -149.5zM240 463q0 128 -63 128q-62 0 -62 -128q0 -129 62 -129q63 0 63 129zM611 668l-323 -679h-81l323 679h81zM802 194q0 -203 -153 -203q-152 0 -152 203
q0 97 38.5 149.5t113.5 52.5q76 0 114.5 -52.5t38.5 -149.5zM712 194q0 128 -63 128q-62 0 -62 -128q0 -129 62 -129q63 0 63 129zM1158 194q0 -203 -153 -203q-152 0 -152 203q0 97 38.5 149.5t113.5 52.5q76 0 114.5 -52.5t38.5 -149.5zM1068 194q0 128 -63 128
q-62 0 -62 -128q0 -129 62 -129q63 0 63 129z" />
    <glyph glyph-name="guilsinglleft" unicode="&#x2039;" horiz-adv-x="306" 
d="M264 69h-116l-115 210l115 209h116l-117 -208v-2z" />
    <glyph glyph-name="guilsinglright" unicode="&#x203a;" horiz-adv-x="306" 
d="M158 69h-116l116 209v2l-116 208h116l115 -209z" />
    <glyph glyph-name="fraction" unicode="&#x2044;" horiz-adv-x="163" 
d="M283 668l-323 -679h-81l323 679h81z" />
    <glyph glyph-name="zero.superior" unicode="&#x2070;" 
d="M330 623q0 -203 -153 -203q-152 0 -152 203q0 97 38.5 149.5t113.5 52.5q76 0 114.5 -52.5t38.5 -149.5zM240 623q0 128 -63 128q-62 0 -62 -128q0 -129 62 -129q63 0 63 129z" />
    <glyph glyph-name="i.superior" unicode="&#x2071;" horiz-adv-x="221" 
d="M110 590q-21 0 -36.5 14t-15.5 32q0 19 15 31.5t37 12.5t37 -12.5t15 -31.5q0 -18 -15.5 -32t-36.5 -14zM204 269h-185v51l50 8v164l-50 3v49l94 10h42v-226l49 -8v-51z" />
    <glyph glyph-name="four.superior" unicode="&#x2074;" 
d="M324 523h-38v-37l51 -11v-46h-191v46l56 11v37h-182v58l146 236h94l-146 -226v-2h88v70h84v-70h38v-66z" />
    <glyph glyph-name="five.superior" unicode="&#x2075;" 
d="M320 561q0 -55 -49.5 -97.5t-135.5 -42.5q-52 0 -98 13l19 70q46 -10 77 -10q39 0 68 18.5t29 48.5q0 50 -55 50q-29 0 -61 -22l-61 34l25 194h206v-71h-130l-13 -87h2q27 19 64 19q56 0 84.5 -33t28.5 -84z" />
    <glyph glyph-name="six.superior" unicode="&#x2076;" 
d="M331 555q0 -58 -40.5 -96.5t-108.5 -38.5q-65 0 -107.5 42t-42.5 103q0 39 7.5 75t26 70.5t46 59.5t71.5 40t100 15v-68q-59 0 -101.5 -32.5t-52.5 -79.5h2q29 35 75 35q57 0 91 -33.5t34 -91.5zM241 555q0 28 -16 45t-40 17q-17 0 -34.5 -11t-25.5 -29q-3 -9 -3 -22
q0 -28 16.5 -46.5t43.5 -18.5q26 0 42.5 19t16.5 46z" />
    <glyph glyph-name="seven.superior" unicode="&#x2077;" 
d="M315 752q-117 -154 -117 -323h-87q0 90 30.5 173t75.5 142v2h-105l-10 -39h-58v110h271v-65z" />
    <glyph glyph-name="eight.superior" unicode="&#x2078;" 
d="M323 534q0 -48 -41 -81t-103 -33q-63 0 -104 32.5t-41 80.5q0 70 82 102v1q-62 37 -62 88q0 42 36.5 71.5t90.5 29.5t91 -28.5t37 -69.5q0 -63 -63 -92v-1q30 -13 53.5 -38t23.5 -62zM235 719q0 17 -14 30t-39 13q-23 0 -35.5 -13.5t-12.5 -30.5q0 -37 57 -59
q44 20 44 60zM237 537q0 47 -69 70q-49 -24 -49 -70q0 -18 17 -34.5t45 -16.5q25 0 40.5 16.5t15.5 34.5z" />
    <glyph glyph-name="nine.superior" unicode="&#x2079;" 
d="M328 682q0 -54 -13 -98.5t-41.5 -82.5t-82 -59.5t-127.5 -21.5v69q71 0 114.5 32.5t53.5 81.5h-2q-28 -32 -73 -32q-58 0 -93 31.5t-35 88.5q0 58 39.5 96t106.5 38q68 0 110.5 -39.5t42.5 -103.5zM239 691q0 28 -18 46.5t-46 18.5q-25 0 -40.5 -18.5t-15.5 -44.5
q0 -27 17 -42.5t41 -15.5q20 0 36 10t22 26q4 10 4 20z" />
    <glyph glyph-name="plus.superior" unicode="&#x207a;" 
d="M323 568h-117v-112h-56v112h-117v52h117v108h56v-108h117v-52z" />
    <glyph glyph-name="minus.superior" unicode="&#x207b;" 
d="M33 568v52h290v-52h-290z" />
    <glyph glyph-name="equal.superior" unicode="&#x207c;" 
d="M33 513v52h290v-52h-290zM33 622v52h290v-52h-290z" />
    <glyph glyph-name="parenleft.superior" unicode="&#x207d;" horiz-adv-x="215" 
d="M65 592q0 145 103 263l50 -29q-41 -62 -61 -114.5t-20 -119.5q0 -66 20.5 -118.5t60.5 -113.5l-50 -31q-103 120 -103 263z" />
    <glyph glyph-name="parenright.superior" unicode="&#x207e;" horiz-adv-x="215" 
d="M149 592q0 -145 -103 -263l-50 31q41 60 61.5 113t20.5 119q0 67 -20.5 119.5t-61.5 114.5l50 29q103 -116 103 -263z" />
    <glyph glyph-name="n.superior" unicode="&#x207f;" horiz-adv-x="403" 
d="M389 269h-170v51l36 8v123q0 39 -36 39q-39 0 -65 -36v-126l36 -8v-51h-171v51l49 8v164l-49 3v49l93 10h34l4 -42h1q12 21 41.5 35t58.5 14q41 0 65.5 -23.5t24.5 -69.5v-140l48 -8v-51z" />
    <glyph glyph-name="zero.inferior" unicode="&#x2080;" 
d="M330 54q0 -203 -153 -203q-152 0 -152 203q0 97 38.5 149.5t113.5 52.5q76 0 114.5 -52.5t38.5 -149.5zM240 54q0 128 -63 128q-62 0 -62 -128q0 -129 62 -129q63 0 63 129z" />
    <glyph glyph-name="one.inferior" unicode="&#x2081;" 
d="M299 -140h-222v46l71 11v255l-2 2l-69 -35l-23 50l108 59h74v-331l63 -11v-46z" />
    <glyph glyph-name="two.inferior" unicode="&#x2082;" 
d="M318 -140h-275v38q0 80 51 134q17 17 50 36t53 35.5t20 38.5q0 41 -58 41q-25 0 -40 -7l-10 -39h-58v92q57 27 128 27q62 0 95 -30t33 -82q0 -28 -13 -51.5t-23.5 -33t-40 -28.5t-33.5 -22l-28.5 -22.5t-21 -23t-14.5 -30.5v-2h117l10 41h58v-112z" />
    <glyph glyph-name="three.inferior" unicode="&#x2083;" 
d="M311 -14q0 -65 -52.5 -99.5t-135.5 -34.5q-34 0 -73 11l14 72q34 -9 58 -9q99 0 99 62q0 23 -15 36t-40 13l-22 -3l-9 52q39 6 54 20t15 39q0 19 -14 29.5t-33 10.5q-20 0 -40 -10l-10 -41h-57v86q55 35 113 35q59 0 93.5 -23.5t34.5 -71.5q0 -64 -47 -84v-2
q67 -14 67 -88z" />
    <glyph glyph-name="four.inferior" unicode="&#x2084;" 
d="M324 -46h-38v-37l51 -11v-46h-191v46l56 11v37h-182v58l146 236h94l-146 -226v-2h88v70h84v-70h38v-66z" />
    <glyph glyph-name="five.inferior" unicode="&#x2085;" 
d="M320 -8q0 -55 -49.5 -97.5t-135.5 -42.5q-52 0 -98 13l19 70q46 -10 77 -10q39 0 68 18.5t29 48.5q0 50 -55 50q-29 0 -61 -22l-61 34l25 194h206v-71h-130l-13 -87h2q27 19 64 19q56 0 84.5 -33t28.5 -84z" />
    <glyph glyph-name="six.inferior" unicode="&#x2086;" 
d="M331 -14q0 -58 -40.5 -96.5t-108.5 -38.5q-65 0 -107.5 42t-42.5 103q0 39 7.5 75t26 70.5t46 59.5t71.5 40t100 15v-68q-59 0 -101.5 -32.5t-52.5 -79.5h2q29 35 75 35q57 0 91 -33.5t34 -91.5zM241 -14q0 28 -16 45t-40 17q-17 0 -34.5 -11t-25.5 -29q-3 -9 -3 -22
q0 -28 16.5 -46.5t43.5 -18.5q26 0 42.5 19t16.5 46z" />
    <glyph glyph-name="seven.inferior" unicode="&#x2087;" 
d="M315 183q-117 -154 -117 -323h-87q0 90 30.5 173t75.5 142v2h-105l-10 -39h-58v110h271v-65z" />
    <glyph glyph-name="eight.inferior" unicode="&#x2088;" 
d="M323 -35q0 -48 -41 -81t-103 -33q-63 0 -104 32.5t-41 80.5q0 70 82 102v1q-62 37 -62 88q0 42 36.5 71.5t90.5 29.5t91 -28.5t37 -69.5q0 -63 -63 -92v-1q30 -13 53.5 -38t23.5 -62zM235 150q0 17 -14 30t-39 13q-23 0 -35.5 -13.5t-12.5 -30.5q0 -37 57 -59
q44 20 44 60zM237 -32q0 47 -69 70q-49 -24 -49 -70q0 -18 17 -34.5t45 -16.5q25 0 40.5 16.5t15.5 34.5z" />
    <glyph glyph-name="nine.inferior" unicode="&#x2089;" 
d="M328 113q0 -54 -13 -98.5t-41.5 -82.5t-82 -59.5t-127.5 -21.5v69q71 0 114.5 32.5t53.5 81.5h-2q-28 -32 -73 -32q-58 0 -93 31.5t-35 88.5q0 58 39.5 96t106.5 38q68 0 110.5 -39.5t42.5 -103.5zM239 122q0 28 -18 46.5t-46 18.5q-25 0 -40.5 -18.5t-15.5 -44.5
q0 -27 17 -42.5t41 -15.5q20 0 36 10t22 26q4 10 4 20z" />
    <glyph glyph-name="plus.inferior" unicode="&#x208a;" 
d="M323 -1h-117v-112h-56v112h-117v52h117v108h56v-108h117v-52z" />
    <glyph glyph-name="minus.inferior" unicode="&#x208b;" 
d="M33 -1v52h290v-52h-290z" />
    <glyph glyph-name="equal.inferior" unicode="&#x208c;" 
d="M33 -56v52h290v-52h-290zM33 53v52h290v-52h-290z" />
    <glyph glyph-name="parenleft.inferior" unicode="&#x208d;" horiz-adv-x="215" 
d="M65 23q0 145 103 263l50 -29q-41 -62 -61 -114.5t-20 -119.5q0 -66 20.5 -118.5t60.5 -113.5l-50 -31q-103 120 -103 263z" />
    <glyph glyph-name="parenright.inferior" unicode="&#x208e;" horiz-adv-x="215" 
d="M149 23q0 -145 -103 -263l-50 31q41 60 61.5 113t20.5 119q0 67 -20.5 119.5t-61.5 114.5l50 29q103 -116 103 -263z" />
    <glyph glyph-name="Euro" unicode="&#x20ac;" horiz-adv-x="538" 
d="M20 360v62h64q20 112 93.5 178.5t181.5 66.5q76 0 143 -27v-145h-84l-15 61q-18 6 -50 6q-51 0 -89.5 -39.5t-52.5 -100.5h198v-62h-211q-1 -10 -1 -30v-20h179v-62h-169q12 -67 53 -110.5t97 -43.5q67 0 137 22l27 -97q-85 -29 -162 -29q-112 0 -185.5 69.5t-91.5 188.5
h-62v62h55q-1 9 -1 24t2 26h-56z" />
    <glyph glyph-name="afii61289" unicode="&#x2113;" horiz-adv-x="446" 
d="M48 141l-34 73q41 26 86 59v193q0 42 7.5 78.5t24.5 70.5t51 54t81 20q71 0 107.5 -43.5t36.5 -118.5q0 -78 -56 -159t-130 -132v-51q0 -92 52 -92q42 0 80 20l33 -88q-19 -14 -58 -24.5t-73 -10.5q-82 0 -119 47.5t-37 109.5v27q-13 -10 -52 -33zM222 486v-144
q39 34 64 81t25 89q0 36 -14 56t-31 20q-44 0 -44 -102z" />
    <glyph glyph-name="afii61352" unicode="&#x2116;" horiz-adv-x="1073" 
d="M761 255v57h281v-57h-281zM1048 500q0 -72 -40.5 -114t-105.5 -42t-106 42t-41 114t40.5 114t106.5 42q65 0 105.5 -42t40.5 -114zM965 500q0 44 -16.5 67.5t-46.5 23.5q-63 0 -63 -91t63 -91q30 0 46.5 23.5t16.5 67.5zM639 0h-113l-178 276q-68 105 -109 181h-2
q4 -66 4 -174v-194l79 -14v-75h-289v76l82 13v502l-82 13v76h196l179 -278q52 -79 107 -179h2q-4 50 -4 176v192l-79 14v75h289v-75l-82 -14v-591z" />
    <glyph glyph-name="trademark" unicode="&#x2122;" horiz-adv-x="702" 
d="M228 622h-51v-196l42 -9v-37h-151v37l43 9v196h-51l-8 -46h-41v104h268v-104h-43zM674 380h-149v37l41 9v65q0 5 3 71h-2q-11 -23 -34 -54l-32 -47h-27l-32 47q-20 28 -33 55h-2q2 -18 2 -72v-65l40 -9v-37h-150v37l43 9v208l-43 9v37h104l39 -63q31 -48 44 -77h2
q10 24 45 77l40 63h101v-37l-41 -9v-208l41 -9v-37z" />
    <glyph glyph-name="Omega" unicode="&#x2126;" horiz-adv-x="767" 
d="M20 0v175h86l12 -68h101v2q-58 39 -94 104t-36 149q0 153 80 241t215 88q134 0 214 -88t80 -241q0 -84 -36.5 -149t-95.5 -104v-2h104l11 67h86v-174h-325v93q125 107 125 258q0 111 -44.5 170.5t-118.5 59.5t-119 -59.5t-45 -170.5q0 -83 31 -144t92 -114v-93h-323z" />
    <glyph glyph-name="estimated" unicode="&#x212e;" horiz-adv-x="822" 
d="M408 629q-61 0 -122 -26t-100 -66q-11 -11 -11 -22v-160q0 -5 3.5 -8.5t8.5 -3.5h448q5 0 8.5 3.5t3.5 8.5v161q0 10 -15 25q-40 38 -103 63t-121 25zM45 329q0 142 103.5 240t259.5 98q158 0 263.5 -97.5t105.5 -236.5v-15h-590q-5 0 -8.5 -4t-3.5 -8v-156q0 -11 10 -25
q31 -40 93.5 -68t129.5 -28q64 0 127 28t102 71h74q-43 -56 -130 -96.5t-173 -40.5q-156 0 -259.5 98t-103.5 240z" />
    <glyph glyph-name="onethird" unicode="&#x2153;" horiz-adv-x="802" 
d="M274 269h-222v46l71 11v255l-2 2l-69 -35l-23 50l108 59h74v-331l63 -11v-46zM758 126q0 -65 -52.5 -99.5t-135.5 -34.5q-34 0 -73 11l14 72q35 -9 58 -9q99 0 99 62q0 23 -15 36t-40 13l-22 -3l-9 52q39 6 54 20t15 39q0 19 -14 29.5t-33 10.5q-20 0 -40 -10l-10 -41
h-57v86q55 35 113 35q59 0 93.5 -23.5t34.5 -71.5q0 -64 -47 -84v-2q67 -14 67 -88zM602 668l-323 -679h-81l323 679h81z" />
    <glyph glyph-name="twothirds" unicode="&#x2154;" horiz-adv-x="802" 
d="M311 269h-275v38q0 80 51 134q17 17 50 36t53 35.5t20 38.5q0 41 -58 41q-25 0 -40 -7l-10 -39h-58v92q57 27 128 27q62 0 95 -30t33 -82q0 -28 -13 -51.5t-23.5 -33t-40 -28.5t-33.5 -22l-28.5 -22.5t-21 -23t-14.5 -30.5v-2h117l10 41h58v-112zM775 126
q0 -65 -52.5 -99.5t-135.5 -34.5q-34 0 -73 11l14 72q34 -9 58 -9q99 0 99 62q0 23 -15 36t-40 13l-22 -3l-9 52q39 6 54 20t15 39q0 19 -14 29.5t-33 10.5q-20 0 -40 -10l-10 -41h-57v86q55 35 113 35q59 0 93.5 -23.5t34.5 -71.5q0 -64 -47 -84v-2q67 -14 67 -88zM621 668
l-323 -679h-81l323 679h81z" />
    <glyph glyph-name="oneeighth" unicode="&#x215b;" horiz-adv-x="802" 
d="M274 269h-222v46l71 11v255l-2 2l-69 -35l-23 50l108 59h74v-331l63 -11v-46zM768 105q0 -48 -41 -81t-103 -33q-63 0 -104 32.5t-41 80.5q0 70 82 102v1q-62 37 -62 88q0 42 36.5 71.5t90.5 29.5t91 -28.5t37 -69.5q0 -63 -63 -92v-1q30 -13 53.5 -38t23.5 -62zM680 290
q0 17 -14 30t-39 13q-23 0 -35.5 -13.5t-12.5 -30.5q0 -37 57 -59q44 20 44 60zM682 108q0 47 -69 70q-49 -24 -49 -70q0 -18 17 -34.5t45 -16.5q25 0 40.5 16.5t15.5 34.5zM605 668l-323 -679h-81l323 679h81z" />
    <glyph glyph-name="threeeighths" unicode="&#x215c;" horiz-adv-x="802" 
d="M318 395q0 -65 -52.5 -99.5t-135.5 -34.5q-34 0 -73 11l14 72q34 -9 58 -9q99 0 99 62q0 23 -15 36t-40 13l-22 -3l-9 52q39 6 54 20t15 39q0 19 -14 29.5t-33 10.5q-20 0 -40 -10l-10 -41h-57v86q55 35 113 35q59 0 93.5 -23.5t34.5 -71.5q0 -64 -47 -84v-2
q67 -14 67 -88zM783 105q0 -48 -41 -81t-103 -33q-63 0 -104 32.5t-41 80.5q0 70 82 102v1q-62 37 -62 88q0 42 36.5 71.5t90.5 29.5t91 -28.5t37 -69.5q0 -63 -63 -92v-1q30 -13 53.5 -38t23.5 -62zM695 290q0 17 -14 30t-39 13q-23 0 -35.5 -13.5t-12.5 -30.5
q0 -37 57 -59q44 20 44 60zM697 108q0 47 -69 70q-49 -24 -49 -70q0 -18 17 -34.5t45 -16.5q25 0 40.5 16.5t15.5 34.5zM614 668l-323 -679h-81l323 679h81z" />
    <glyph glyph-name="fiveeighths" unicode="&#x215d;" horiz-adv-x="802" 
d="M318 401q0 -55 -49.5 -97.5t-135.5 -42.5q-52 0 -98 13l19 70q46 -10 77 -10q39 0 68 18.5t29 48.5q0 50 -55 50q-29 0 -61 -22l-61 34l25 194h206v-71h-130l-13 -87h2q27 19 64 19q56 0 84.5 -33t28.5 -84zM762 105q0 -48 -41 -81t-103 -33q-63 0 -104 32.5t-41 80.5
q0 70 82 102v1q-62 37 -62 88q0 42 36.5 71.5t90.5 29.5t91 -28.5t37 -69.5q0 -63 -63 -92v-1q30 -13 53.5 -38t23.5 -62zM674 290q0 17 -14 30t-39 13q-23 0 -35.5 -13.5t-12.5 -30.5q0 -37 57 -59q44 20 44 60zM676 108q0 47 -69 70q-49 -24 -49 -70q0 -18 17 -34.5
t45 -16.5q25 0 40.5 16.5t15.5 34.5zM599 668l-323 -679h-81l323 679h81z" />
    <glyph glyph-name="seveneighths" unicode="&#x215e;" horiz-adv-x="802" 
d="M315 592q-117 -154 -117 -323h-87q0 90 30.5 173t75.5 142v2h-105l-10 -39h-58v110h271v-65zM748 105q0 -48 -41 -81t-103 -33q-63 0 -104 32.5t-41 80.5q0 70 82 102v1q-62 37 -62 88q0 42 36.5 71.5t90.5 29.5t91 -28.5t37 -69.5q0 -63 -63 -92v-1q30 -13 53.5 -38
t23.5 -62zM660 290q0 17 -14 30t-39 13q-23 0 -35.5 -13.5t-12.5 -30.5q0 -37 57 -59q44 20 44 60zM662 108q0 47 -69 70q-49 -24 -49 -70q0 -18 17 -34.5t45 -16.5q25 0 40.5 16.5t15.5 34.5zM575 668l-323 -679h-81l323 679h81z" />
    <glyph glyph-name="uni2190" unicode="&#x2190;" horiz-adv-x="955" 
d="M328 549l78 -78l-144 -139h626v-107h-626l144 -139l-78 -78l-271 271z" />
    <glyph glyph-name="uni2191" unicode="&#x2191;" horiz-adv-x="656" 
d="M598 423l-78 -78l-135 141v-623h-114v623l-136 -141l-78 78l271 271z" />
    <glyph glyph-name="uni2192" unicode="&#x2192;" horiz-adv-x="955" 
d="M549 471l78 78l271 -270l-271 -271l-78 78l144 139h-626v107h626z" />
    <glyph glyph-name="uni2193" unicode="&#x2193;" horiz-adv-x="656" 
d="M520 212l78 -78l-270 -271l-271 271l78 78l136 -140v622h114v-622z" />
    <glyph glyph-name="uni2194" unicode="&#x2194;" horiz-adv-x="1121" 
d="M328 549l78 -78l-144 -139h597l-144 139l78 78l271 -270l-271 -271l-78 78l144 139h-597l144 -139l-78 -78l-271 271z" />
    <glyph glyph-name="uni2195" unicode="&#x2195;" horiz-adv-x="656" 
d="M57 55l78 78l136 -141v570l-136 -141l-78 78l271 274l270 -274l-78 -78l-135 141v-570l135 141l78 -78l-270 -271z" />
    <glyph glyph-name="uni2196" unicode="&#x2196;" horiz-adv-x="778" 
d="M472 572v-110l-200 3l443 -442l-76 -76l-442 443l3 -200h-110v382h382z" />
    <glyph glyph-name="uni2197" unicode="&#x2197;" horiz-adv-x="778" 
d="M305 462v110h383v-382h-110l3 200l-443 -443l-75 76l443 442z" />
    <glyph glyph-name="uni2198" unicode="&#x2198;" horiz-adv-x="778" 
d="M578 329h110v-383h-383v110l201 -3l-443 443l75 75l443 -443z" />
    <glyph glyph-name="uni2199" unicode="&#x2199;" horiz-adv-x="778" 
d="M472 56v-110h-382v383h110l-3 -201l442 443l76 -75l-443 -443z" />
    <glyph glyph-name="partialdiff" unicode="&#x2202;" horiz-adv-x="569" 
d="M165 202q0 -44 29 -75t73 -31q40 0 70.5 34t37.5 82q2 14 2 16q-5 41 -34.5 71t-66.5 30q-51 0 -81 -36t-30 -91zM35 205q0 97 58.5 164t148.5 67q110 0 154 -101h2q1 9 1 28q-3 99 -60.5 160t-140.5 61q-44 0 -90 -21l-34 99q64 29 139 29q137 0 224.5 -103t87.5 -268
q0 -138 -67.5 -234.5t-184.5 -96.5q-106 0 -172 61.5t-66 154.5z" />
    <glyph glyph-name="Delta" unicode="&#x2206;" horiz-adv-x="590" 
d="M562 0h-534v87l193 593h148l193 -593v-87zM147 99h294l-74 234q-38 117 -71 245h-2q-25 -96 -72 -244z" />
    <glyph glyph-name="product" unicode="&#x220f;" horiz-adv-x="681" 
d="M298 -90h-283v75l83 14v569l-83 14v75h650v-75l-82 -14v-569l82 -14v-75h-283v75l73 14v551h-230v-551l73 -14v-75z" />
    <glyph glyph-name="summation" unicode="&#x2211;" horiz-adv-x="516" 
d="M498 -90h-450v98l197 289l-198 262v98h429v-185h-84l-13 78h-202v-2l198 -253l-198 -276v-2h222l13 83h86v-190z" />
    <glyph glyph-name="minus" unicode="&#x2212;" horiz-adv-x="538" 
d="M497 237h-456v84h456v-84z" />
    <glyph glyph-name="uni2215" unicode="&#x2215;" horiz-adv-x="163" 
d="M283 668l-323 -679h-81l323 679h81z" />
    <glyph glyph-name="uni2219" unicode="&#x2219;" horiz-adv-x="246" 
d="M47 279q0 32 22.5 55.5t53.5 23.5t53.5 -23.5t22.5 -55.5q0 -33 -22 -56t-54 -23t-54 23t-22 56z" />
    <glyph glyph-name="radical" unicode="&#x221a;" horiz-adv-x="666" 
d="M654 800l-271 -868h-94l-144 430l-100 -33l-26 77l209 77l65 -216q34 -117 50 -187h2q17 81 51 197l153 523h105z" />
    <glyph glyph-name="infinity" unicode="&#x221e;" horiz-adv-x="768" 
d="M32 279q0 71 52 118.5t125 47.5q53 0 93.5 -29.5t80.5 -81.5h2q84 111 175 111q72 0 124 -47.5t52 -118.5q0 -72 -51.5 -119.5t-124.5 -47.5q-91 0 -175 111h-2q-87 -111 -174 -111q-73 0 -125 47.5t-52 119.5zM125 279q0 -38 25.5 -61t59.5 -23q51 0 116 84
q-66 83 -116 83q-34 0 -59.5 -22.5t-25.5 -60.5zM442 279q33 -42 60 -63t57 -21q33 0 58.5 23t25.5 61t-25.5 60.5t-58.5 22.5q-51 0 -117 -83z" />
    <glyph glyph-name="integral" unicode="&#x222b;" horiz-adv-x="425" 
d="M-9 -194l27 89q48 -17 79 -17q21 0 36 19.5t15 47.5v643q0 59 43.5 100.5t104.5 41.5q66 0 132 -24l-27 -89q-41 15 -80 15q-21 0 -36 -19.5t-15 -47.5v-643q0 -59 -43 -100.5t-105 -41.5q-60 0 -131 26z" />
    <glyph glyph-name="approxequal" unicode="&#x2248;" horiz-adv-x="538" 
d="M499 359q-34 -29 -75.5 -49t-75.5 -20q-40 0 -88 29t-73 29q-18 0 -49.5 -15t-56.5 -36l-43 65q82 69 152 69q41 0 87.5 -29t73.5 -29q18 0 49.5 15t56.5 36zM499 190q-34 -29 -75.5 -49t-75.5 -20q-40 0 -88 29t-73 29q-18 0 -49.5 -15t-56.5 -36l-43 65q82 69 152 69
q41 0 87.5 -29t73.5 -29q18 0 49.5 15t56.5 36z" />
    <glyph glyph-name="notequal" unicode="&#x2260;" horiz-adv-x="538" 
d="M41 329v84h276l65 94h79l-64 -94h100v-84h-155l-68 -100h223v-84h-278l-64 -95h-80l65 95h-99v84h154l68 100h-222z" />
    <glyph glyph-name="lessequal" unicode="&#x2264;" horiz-adv-x="538" 
d="M487 87l-436 177v85l436 178v-89l-350 -130v-2l350 -131v-88zM487 -26h-436v75h436v-75z" />
    <glyph glyph-name="greaterequal" unicode="&#x2265;" horiz-adv-x="538" 
d="M487 -26h-436v75h436v-75zM487 264l-436 -177v88l348 131v2l-348 130v89l436 -178v-85z" />
    <glyph glyph-name="uni25A0" unicode="&#x25a0;" horiz-adv-x="608" 
d="M127 494h354v-362h-354v362z" />
    <glyph glyph-name="uni25B2" unicode="&#x25b2;" horiz-adv-x="708" 
d="M652 36h-597l299 545z" />
    <glyph glyph-name="uni25B3" unicode="&#x25b3;" horiz-adv-x="708" 
d="M652 36h-597l299 545zM187 109h333l-166 304z" />
    <glyph glyph-name="uni25B6" unicode="&#x25b6;" horiz-adv-x="708" 
d="M85 21v597l545 -298z" />
    <glyph glyph-name="uni25B7" unicode="&#x25b7;" horiz-adv-x="708" 
d="M85 21v597l545 -298zM173 482v-326l297 164z" />
    <glyph glyph-name="uni25BC" unicode="&#x25bc;" horiz-adv-x="708" 
d="M55 570h597l-298 -545z" />
    <glyph glyph-name="uni25BD" unicode="&#x25bd;" horiz-adv-x="708" 
d="M55 570h597l-298 -545zM520 497h-333l167 -304z" />
    <glyph glyph-name="uni25C0" unicode="&#x25c0;" horiz-adv-x="708" 
d="M624 618v-597l-544 299z" />
    <glyph glyph-name="uni25C1" unicode="&#x25c1;" horiz-adv-x="708" 
d="M624 618v-597l-544 299zM537 158v325l-297 -163z" />
    <glyph glyph-name="uni25C6" unicode="&#x25c6;" horiz-adv-x="608" 
d="M56 313l250 253l250 -253l-250 -253z" />
    <glyph glyph-name="uni25C9" unicode="&#x25c9;" horiz-adv-x="608" 
d="M54 314q0 104 74.5 179t175.5 75q102 0 175.5 -74.5t73.5 -179.5t-74 -180t-175 -75q-102 0 -176 75t-74 180zM129 314q0 -77 51.5 -132.5t123.5 -55.5q73 0 124 55.5t51 132.5t-51.5 132t-123.5 55q-73 0 -124 -55t-51 -132zM210 314q0 42 27 70.5t67 28.5t67 -28.5
t27 -70.5q0 -43 -27 -72t-67 -29t-67 29t-27 72z" />
    <glyph glyph-name="lozenge" unicode="&#x25ca;" horiz-adv-x="561" 
d="M250 0l-235 328l236 329h59l236 -329l-237 -328h-59zM120 328l100 -140q41 -56 59 -92h2q28 51 59 92l99 140l-102 144q-39 53 -56 89h-2q-11 -24 -57 -89z" />
    <glyph glyph-name="uni25CB" unicode="&#x25cb;" horiz-adv-x="608" 
d="M54 314q0 104 74.5 179t175.5 75q102 0 175.5 -74.5t73.5 -179.5t-74 -180t-175 -75q-102 0 -176 75t-74 180zM129 314q0 -77 51.5 -132.5t123.5 -55.5q73 0 124 55.5t51 132.5t-51.5 132t-123.5 55q-73 0 -124 -55t-51 -132z" />
    <glyph glyph-name="uni25CE" unicode="&#x25ce;" horiz-adv-x="608" 
d="M265 314q0 -21 11 -36t28 -15t28 15t11 36t-11 35t-28 14t-28 -14t-11 -35zM54 314q0 104 74.5 179t175.5 75q102 0 175.5 -74.5t73.5 -179.5t-74 -180t-175 -75q-102 0 -176 75t-74 180zM129 314q0 -77 51.5 -132.5t123.5 -55.5q73 0 124 55.5t51 132.5t-51.5 132
t-123.5 55q-73 0 -124 -55t-51 -132zM210 314q0 42 27 70.5t67 28.5t67 -28.5t27 -70.5q0 -43 -27 -72t-67 -29t-67 29t-27 72z" />
    <glyph glyph-name="uni25CF" unicode="&#x25cf;" horiz-adv-x="608" 
d="M54 314q0 104 74.5 179t175.5 75q102 0 175.5 -74.5t73.5 -179.5t-74 -180t-175 -75q-102 0 -176 75t-74 180z" />
    <glyph glyph-name="uni2610" unicode="&#x2610;" horiz-adv-x="819" 
d="M105 33v619h609v-619h-609zM181 581v-477h457v477h-457z" />
    <glyph glyph-name="uni2611" unicode="&#x2611;" horiz-adv-x="819" 
d="M201 253l50 72l104 -71l191 278l67 -45l-239 -351zM105 33v619h609v-619h-609zM181 581v-477h457v477h-457z" />
    <glyph glyph-name="uni2612" unicode="&#x2612;" horiz-adv-x="819" 
d="M231 474l52 53l126 -130l126 130l52 -53l-127 -130l127 -130l-52 -53l-126 130l-126 -130l-52 53l127 130zM105 33v619h609v-619h-609zM181 581v-477h457v477h-457z" />
    <glyph glyph-name="grave.cap" unicode="&#xe000;" horiz-adv-x="455" 
d="M299 744h-98l-174 118h142z" />
    <glyph glyph-name="grave.sc" unicode="&#xe001;" horiz-adv-x="455" 
d="M285 597h-90l-139 129h128z" />
    <glyph glyph-name="acute.cap" unicode="&#xe002;" horiz-adv-x="455" 
d="M258 744h-97l129 118h142z" />
    <glyph glyph-name="acute.sc" unicode="&#xe003;" horiz-adv-x="455" 
d="M260 597h-90l101 129h128z" />
    <glyph glyph-name="circumflex.cap" unicode="&#xe004;" horiz-adv-x="455" 
d="M154 744h-110l136 118h92l138 -118h-110l-73 71h-2z" />
    <glyph glyph-name="circumflex.sc" unicode="&#xe005;" horiz-adv-x="455" 
d="M165 597h-96l117 129h83l117 -129h-96l-62 81h-2z" />
    <glyph glyph-name="caron.cap" unicode="&#xe006;" horiz-adv-x="455" 
d="M44 862h110l71 -71h2l73 71h110l-138 -118h-92z" />
    <glyph glyph-name="caron.sc" unicode="&#xe007;" horiz-adv-x="455" 
d="M69 726h96l61 -82h2l62 82h96l-117 -129h-83z" />
    <glyph glyph-name="caron.alt" unicode="&#xe008;" horiz-adv-x="455" 
d="M226 733l80 11q1 -4 1 -14q0 -41 -22 -87.5t-57 -77.5l-44 8q43 77 43 145q0 10 -1 15z" />
    <glyph glyph-name="tilde.cap" unicode="&#xe009;" horiz-adv-x="455" 
d="M410 796q-69 -50 -122 -50q-32 0 -67 20t-56 20q-28 0 -80 -37l-41 57q69 50 121 50q33 0 68 -20t55 -20q28 0 79 37z" />
    <glyph glyph-name="tilde.sc" unicode="&#xe00a;" horiz-adv-x="455" 
d="M393 656q-33 -29 -57.5 -42.5t-53.5 -13.5t-61 22t-51 22q-4 0 -7.5 -0.5t-7.5 -2t-7 -2.5t-7 -4t-7 -4.5t-8 -6t-8 -6.5t-9.5 -7t-9.5 -8l-37 60q32 28 55.5 41.5t52.5 13.5q30 0 62 -22t50 -22q17 0 31 8.5t40 31.5z" />
    <glyph glyph-name="dieresis.cap" unicode="&#xe00b;" horiz-adv-x="455" 
d="M41 801q0 27 19.5 45.5t48.5 18.5t49 -18.5t20 -45.5q0 -26 -20 -45t-49 -19q-28 0 -48 19t-20 45zM277 801q0 27 19.5 45.5t48.5 18.5t49 -18.5t20 -45.5q0 -26 -20 -45t-49 -19q-28 0 -48 19t-20 45z" />
    <glyph glyph-name="dieresis.sc" unicode="&#xe00c;" horiz-adv-x="455" 
d="M54 659q0 27 20 45.5t48 18.5q29 0 49 -18.5t20 -45.5q0 -26 -20 -44.5t-49 -18.5q-28 0 -48 18.5t-20 44.5zM263 659q0 27 20 45.5t49 18.5t49 -18.5t20 -45.5q0 -26 -20 -44.5t-49 -18.5q-28 0 -48.5 18.5t-20.5 44.5z" />
    <glyph glyph-name="macron.cap" unicode="&#xe00d;" horiz-adv-x="455" 
d="M79 767v69h297v-69h-297z" />
    <glyph glyph-name="macron.sc" unicode="&#xe00e;" horiz-adv-x="455" 
d="M79 625v69h297v-69h-297z" />
    <glyph glyph-name="breve.cap" unicode="&#xe00f;" horiz-adv-x="455" 
d="M83 861h67q2 -25 25 -43.5t52 -18.5q30 0 53 18t25 44h67q0 -48 -42.5 -81.5t-102.5 -33.5q-59 0 -101.5 33.5t-42.5 81.5z" />
    <glyph glyph-name="breve.sc" unicode="&#xe010;" horiz-adv-x="455" 
d="M83 722h67q2 -27 25 -46.5t52 -19.5q30 0 53 19.5t25 46.5h67q0 -52 -42.5 -88.5t-102.5 -36.5q-59 0 -101.5 36.5t-42.5 88.5z" />
    <glyph glyph-name="ring.cap" unicode="&#xe011;" horiz-adv-x="455" 
d="M119 818q0 46 31.5 78.5t76.5 32.5t76.5 -32.5t31.5 -78.5t-31.5 -78.5t-76.5 -32.5t-76.5 32.5t-31.5 78.5zM178 818q0 -25 14 -41.5t35 -16.5q20 0 34.5 16.5t14.5 41.5q0 24 -14.5 41t-34.5 17q-21 0 -35 -17t-14 -41z" />
    <glyph glyph-name="ring.sc" unicode="&#xe012;" horiz-adv-x="455" 
d="M119 671q0 46 31.5 78.5t76.5 32.5t76.5 -32.5t31.5 -78.5t-31.5 -78.5t-76.5 -32.5t-76.5 32.5t-31.5 78.5zM178 671q0 -25 14 -41.5t35 -16.5q20 0 34.5 16.5t14.5 41.5q0 24 -14.5 41t-34.5 17q-21 0 -35 -17t-14 -41z" />
    <glyph glyph-name="hungarumlaut.cap" unicode="&#xe013;" horiz-adv-x="455" 
d="M353 744h-94l129 118h139zM174 744h-95l130 118h139z" />
    <glyph glyph-name="hungarumlaut.sc" unicode="&#xe014;" horiz-adv-x="455" 
d="M174 597h-79l110 138h118zM352 597h-80l110 138h119z" />
    <glyph glyph-name="dotaccent.cap" unicode="&#xe015;" horiz-adv-x="455" 
d="M152 802q0 29 22 49.5t53 20.5t53 -20.5t22 -49.5t-22 -49.5t-53 -20.5t-53 20.5t-22 49.5z" />
    <glyph glyph-name="dotaccent.sc" unicode="&#xe016;" horiz-adv-x="455" 
d="M152 659q0 29 22 49.5t53 20.5t53 -20.5t22 -49.5t-22 -49.5t-53 -20.5t-53 20.5t-22 49.5z" />
    <glyph glyph-name="commaaccent" unicode="&#xe017;" horiz-adv-x="455" 
d="M288 -41q1 -4 1 -13q0 -39 -26.5 -79t-71.5 -71l-49 19q18 24 29.5 58t11.5 60q0 11 -1 16z" />
    <glyph glyph-name="commaaccent.alt" unicode="&#xe01a;" horiz-adv-x="455" 
d="M207 570q-1 3 -1 12q0 72 91 135l46 -18q-17 -22 -28.5 -52.5t-11.5 -53.5q0 -9 1 -15z" />
    <glyph glyph-name="cedilla.cap" unicode="&#xe022;" horiz-adv-x="455" 
d="M324 -125q0 -43 -31 -69t-77 -26q-53 0 -93 20l22 50q38 -15 63 -15q22 0 35.5 9.5t13.5 26.5q0 26 -23.5 34t-77.5 11l32 93h60l-18 -47v-2q41 -3 67.5 -26.5t26.5 -58.5z" />
    <glyph glyph-name="cedilla.sc" unicode="&#xe023;" horiz-adv-x="455" 
d="M324 -125q0 -43 -31 -69t-77 -26q-53 0 -93 20l22 50q38 -15 63 -15q22 0 35.5 9.5t13.5 26.5q0 26 -23.5 34t-77.5 11l32 93h60l-18 -47v-2q41 -3 67.5 -26.5t26.5 -58.5z" />
    <glyph glyph-name="ogonek.cap" unicode="&#xe024;" horiz-adv-x="455" 
d="M92 -128q0 36 31 72.5t75 59.5h82q-39 -25 -65.5 -57.5t-26.5 -57.5q0 -18 9 -30.5t24 -12.5q17 0 29 4l14 -59q-33 -11 -61 -11q-49 0 -80 23.5t-31 68.5z" />
    <glyph glyph-name="ogonek.sc" unicode="&#xe025;" horiz-adv-x="455" 
d="M90 -128q0 36 31 72.5t75 59.5h82q-39 -25 -65.5 -57.5t-26.5 -57.5q0 -18 9 -30.5t24 -12.5q17 0 29 4l14 -59q-33 -11 -61 -11q-49 0 -80 23.5t-31 68.5z" />
    <glyph glyph-name="A.sc" unicode="&#xe4c3;" horiz-adv-x="588" 
d="M9 0l-1 74l67 12l145 439h147l145 -439l67 -12v-74h-238v73l57 13l-21 64h-171l-20 -64l57 -12v-74h-234zM231 238h122l-17 54q-24 72 -43 150h-2q-9 -43 -43 -151z" />
    <glyph glyph-name="A.superior" unicode="&#xe4c5;" horiz-adv-x="421" 
d="M416 269h-171v53l39 6l-16 51h-117l-16 -51l39 -6v-53h-168v51l44 8l106 329h110l106 -329l44 -8v-51zM167 443h85l-22 72q-17 56 -20 77h-2q-1 -13 -19 -78z" />
    <glyph glyph-name="B.sc" unicode="&#xe4ce;" horiz-adv-x="573" 
d="M538 160q0 -71 -47.5 -115.5t-143.5 -44.5h-313v74l79 12v353l-79 12v74h292q88 0 136.5 -37.5t48.5 -99.5q0 -63 -55 -97v-2q82 -42 82 -129zM392 383q0 26 -19.5 43.5t-52.5 17.5h-84v-122h89q31 0 49 17.5t18 43.5zM412 164q0 32 -21 52.5t-55 20.5h-100v-145h100
q35 0 55.5 20t20.5 52z" />
    <glyph glyph-name="B.superior" unicode="&#xe4d0;" horiz-adv-x="405" 
d="M380 386q0 -53 -34.5 -85t-105.5 -32h-216v51l49 8v270l-49 8v51h201q62 0 97.5 -28t35.5 -73q0 -42 -43 -73v-1q65 -37 65 -96zM273 550q0 18 -14 29.5t-37 11.5h-59v-84h62q23 0 35.5 13t12.5 30zM288 392q0 21 -15.5 35.5t-40.5 14.5h-69v-101h71q25 0 39.5 14.5
t14.5 36.5z" />
    <glyph glyph-name="C.sc" unicode="&#xe4d9;" horiz-adv-x="490" 
d="M302 -10q-122 0 -191.5 68t-69.5 197q0 130 72 205.5t190 75.5q72 0 132 -21v-156h-80l-13 65q-18 6 -44 6q-56 0 -93 -46.5t-37 -125.5q0 -78 36.5 -120t96.5 -42q62 0 122 19l30 -98q-77 -27 -151 -27z" />
    <glyph glyph-name="C.superior" unicode="&#xe4db;" horiz-adv-x="350" 
d="M305 351l20 -71q-57 -17 -106 -17q-89 0 -140 49t-51 143q0 95 53.5 151.5t139.5 56.5q45 0 92 -17v-101h-57l-11 38q-18 4 -26 4q-42 0 -70.5 -36t-28.5 -93t26.5 -88t69.5 -31t89 12z" />
    <glyph glyph-name="D.sc" unicode="&#xe4e4;" horiz-adv-x="601" 
d="M560 268q0 -128 -69 -198t-186 -70h-271v75l79 11v353l-79 12v74h277q108 0 178.5 -66.5t70.5 -190.5zM434 263q0 79 -37 119.5t-94 40.5h-67v-321h67q57 0 94 41.5t37 119.5z" />
    <glyph glyph-name="D.superior" unicode="&#xe4e6;" horiz-adv-x="431" 
d="M403 466q0 -94 -51.5 -145.5t-139.5 -51.5h-188v51l48 8v270l-48 8v51h192q81 0 134 -50t53 -141zM311 463q0 56 -28.5 88.5t-72.5 32.5h-48v-242h48q44 0 72.5 32t28.5 89z" />
    <glyph glyph-name="E.sc" unicode="&#xe4ef;" horiz-adv-x="527" 
d="M483 0h-449v74l79 13v352l-79 12v74h433v-139h-80l-11 48h-140v-122h122l8 37h70v-155h-70l-8 38h-122v-141h153l11 55h83v-146z" />
    <glyph glyph-name="E.superior" unicode="&#xe4f1;" horiz-adv-x="373" 
d="M345 269h-321v51l48 8v270l-48 8v51h310v-100h-59l-7 27h-106v-84h93l4 22h52v-106h-52l-4 23h-93v-97h118l6 32h59v-105z" />
    <glyph glyph-name="F.sc" unicode="&#xe4fa;" horiz-adv-x="490" 
d="M362 433h-126v-130h106l7 38h71v-162h-71l-8 39h-105v-132l84 -12v-74h-286v74l79 12v353l-79 12v74h420v-139h-80z" />
    <glyph glyph-name="F.superior" unicode="&#xe4fc;" horiz-adv-x="346" 
d="M260 586h-98v-98h84l5 23h50v-114h-50l-5 23h-84v-92l51 -8v-51h-189v51l48 8v270l-48 8v51h301v-102h-59z" />
    <glyph glyph-name="G.sc" unicode="&#xe505;" horiz-adv-x="575" 
d="M495 0h-75l-11 38h-2q-53 -49 -123 -49q-117 0 -180 69.5t-63 203.5q0 129 75 201t200 72q93 0 160 -28v-145h-80l-14 59q-25 9 -67 9q-64 0 -105.5 -44.5t-41.5 -123.5q0 -82 32.5 -125t92.5 -43q54 0 97 28v64l-72 12v73h239v-73l-62 -12v-186z" />
    <glyph glyph-name="G.superior" unicode="&#xe507;" horiz-adv-x="412" 
d="M361 269h-57l-10 30h-2q-38 -36 -89 -36q-85 0 -130 50.5t-45 148.5q0 94 54 147.5t146 53.5q59 0 117 -20v-101h-60l-10 39q-17 6 -47 6q-48 0 -78 -34t-30 -91q0 -59 23.5 -91.5t67.5 -32.5q39 0 68 19v50l-47 6v50h168v-49l-39 -7v-138z" />
    <glyph glyph-name="H.sc" unicode="&#xe510;" horiz-adv-x="677" 
d="M643 0h-266v74l64 12v131h-205v-131l64 -12v-74h-266v74l79 12v353l-79 12v74h266v-75l-64 -11v-120h205v120l-64 11v75h266v-74l-79 -12v-353l79 -12v-74z" />
    <glyph glyph-name="H.superior" unicode="&#xe512;" horiz-adv-x="469" 
d="M446 269h-179v51l40 8v101h-145v-101l40 -8v-51h-178v51l48 8v270l-48 8v51h178v-51l-40 -8v-95h145v95l-40 8v51h179v-51l-49 -8v-270l49 -8v-51z" />
    <glyph glyph-name="I.sc" unicode="&#xe51b;" horiz-adv-x="349" 
d="M34 0v74l79 12v353l-79 12v74h281v-74l-79 -12v-353l79 -12v-74h-281z" />
    <glyph glyph-name="I.superior" unicode="&#xe51d;" horiz-adv-x="235" 
d="M211 269h-187v51l48 8v270l-48 8v51h187v-51l-49 -8v-270l49 -8v-51z" />
    <glyph glyph-name="J.sc" unicode="&#xe526;" horiz-adv-x="343" 
d="M237 439v-356q0 -88 -85 -156l-79 -63l-73 87l61 51q53 42 53 92v345l-79 12v74h281v-74z" />
    <glyph glyph-name="J.superior" unicode="&#xe528;" horiz-adv-x="239" 
d="M172 598v-268q0 -66 -65 -116l-59 -45l-53 61l47 37q14 11 20 16t13 19t7 32v264l-48 8v51h187v-51z" />
    <glyph glyph-name="K.sc" unicode="&#xe531;" horiz-adv-x="602" 
d="M597 0h-163l-89 151q-13 24 -28.5 53t-19.5 36h-2l-59 -71v-83l69 -12v-74h-271v74l79 12v353l-79 12v74h249v-77l-47 -8v-146h2q12 16 63 77q31 38 60 69l-44 8v77h243v-74l-77 -12l-109 -121l144 -232l79 -12v-74z" />
    <glyph glyph-name="K.superior" unicode="&#xe533;" horiz-adv-x="431" 
d="M428 269h-116l-51 87q-38 64 -51 91h-1l-47 -56v-63l45 -8v-51h-183v51l48 8v270l-48 8v51h168v-52l-30 -7v-105h2q6 9 50 61q22 26 43 47l-28 5v51h167v-51l-48 -8l-84 -93l115 -177l49 -8v-51z" />
    <glyph glyph-name="L.sc" unicode="&#xe53c;" horiz-adv-x="475" 
d="M456 0h-422v74l79 12v353l-79 12v74h281v-74l-79 -12v-337h127l12 72h81v-174z" />
    <glyph glyph-name="L.superior" unicode="&#xe53e;" horiz-adv-x="337" 
d="M327 269h-303v51l48 8v270l-48 8v51h188v-51l-50 -8v-256h99l7 44h59v-117z" />
    <glyph glyph-name="M.sc" unicode="&#xe547;" horiz-adv-x="735" 
d="M696 0h-271v74l74 12v123q0 67 3 117h-2l-105 -173h-56l-105 173h-2q4 -76 4 -116v-124l73 -12v-74h-275v74l79 12v353l-79 12v74h192l80 -134q32 -49 60 -110h2q31 62 56 101l86 143h191v-71l-79 -13v-355l74 -12v-74z" />
    <glyph glyph-name="M.superior" unicode="&#xe549;" horiz-adv-x="520" 
d="M496 269h-188v51l49 8v83q0 69 2 101h-2l-78 -133h-39l-77 133h-2q1 -16 1 -102v-82l49 -8v-51h-187v51l48 8v270l-48 8v51h130l57 -92q29 -50 47 -84h2q22 40 48 83l58 93h130v-51l-49 -8v-270l49 -8v-51z" />
    <glyph glyph-name="N.sc" unicode="&#xe552;" horiz-adv-x="677" 
d="M571 0h-108l-142 205q-67 96 -88 131h-2q5 -52 5 -115v-135l68 -12v-74h-270v74l79 12v353l-79 12v74h187l130 -186q83 -118 100 -149h2q-5 43 -5 119v132l-68 12v72h270v-71l-79 -13v-441z" />
    <glyph glyph-name="N.superior" unicode="&#xe554;" horiz-adv-x="474" 
d="M402 269h-80l-97 141q-28 42 -64 98h-1q2 -38 2 -92v-88l45 -8v-51h-183v51l48 8v270l-48 8v51h128l98 -142q40 -59 62 -97h2q0 3 -1 37t-1 57v86l-44 8v51h183v-51l-49 -8v-329z" />
    <glyph glyph-name="O.sc" unicode="&#xe55d;" horiz-adv-x="586" 
d="M544 262q0 -128 -68.5 -200.5t-182.5 -72.5t-183 72.5t-69 200.5q0 129 69.5 202t182.5 73t182 -73t69 -202zM418 262q0 80 -34 124.5t-91 44.5t-91 -44.5t-34 -124.5t34 -124t91 -44q58 0 91.5 44t33.5 124z" />
    <glyph glyph-name="O.superior" unicode="&#xe55f;" horiz-adv-x="425" 
d="M396 463q0 -94 -49.5 -147.5t-134.5 -53.5t-134.5 53t-49.5 148q0 94 49.5 147.5t134.5 53.5t134.5 -53.5t49.5 -147.5zM305 463q0 58 -26 91.5t-67 33.5t-66.5 -33.5t-25.5 -91.5t25 -91.5t67 -33.5t67.5 33.5t25.5 91.5z" />
    <glyph glyph-name="P.sc" unicode="&#xe568;" horiz-adv-x="542" 
d="M520 357q0 -84 -51.5 -129.5t-148.5 -45.5h-84v-96l79 -12v-74h-281v74l79 12v353l-79 12v74h277q105 0 157 -44t52 -124zM400 355q0 32 -21 53t-58 21h-85v-152h91q35 0 54 23t19 55z" />
    <glyph glyph-name="P.superior" unicode="&#xe56a;" horiz-adv-x="383" 
d="M368 534q0 -63 -39 -96.5t-109 -33.5h-58v-76l49 -8v-51h-187v51l48 8v270l-48 8v51h189q77 0 116 -32.5t39 -90.5zM276 533q0 21 -16.5 36.5t-44.5 15.5h-53v-108h57q26 0 41.5 17t15.5 39z" />
    <glyph glyph-name="Q.sc" unicode="&#xe573;" horiz-adv-x="586" 
d="M544 263q0 -93 -35.5 -155.5t-98.5 -91.5q62 -38 128 -38q11 0 31 2l-3 -84q-15 -3 -35 -3q-51 0 -95 13.5t-69.5 30t-60 34t-66.5 23.5q-32 4 -64.5 20t-64 46t-51 83t-19.5 120q0 129 69.5 201.5t183.5 72.5q112 0 181 -73t69 -201zM418 263q0 80 -33.5 124t-90.5 44
t-91.5 -44t-34.5 -124q0 -79 34 -124t92 -45q57 0 90.5 45t33.5 124z" />
    <glyph glyph-name="Q.superior" unicode="&#xe575;" horiz-adv-x="425" 
d="M397 463q0 -141 -108 -186q44 -31 98 -31q15 0 22 1l-3 -59q-8 -1 -27 -1q-48 0 -86 16t-73.5 37.5t-64.5 28.5q-127 35 -127 194q0 94 50 147.5t135 53.5q84 0 134 -53.5t50 -147.5zM305 463q0 57 -25.5 91t-66.5 34q-42 0 -67.5 -33.5t-25.5 -91.5q0 -59 25.5 -92
t67.5 -33t67 33t25 92z" />
    <glyph glyph-name="R.sc" unicode="&#xe57e;" horiz-adv-x="594" 
d="M585 0h-160l-100 201h-89v-115l67 -12v-74h-269v74l79 12v353l-79 12v74h286q202 0 202 -160q0 -103 -89 -140v-2q13 -20 44 -74l34 -63l74 -12v-74zM401 365q0 31 -20 49.5t-55 18.5h-90v-141h90q39 0 57 21.5t18 51.5z" />
    <glyph glyph-name="R.superior" unicode="&#xe580;" horiz-adv-x="411" 
d="M408 269h-114l-72 150h-60v-91l43 -8v-51h-181v51l48 8v270l-48 8v51h194q150 0 150 -117q0 -77 -67 -104v-1q3 -4 30 -53l28 -54l49 -8v-51zM276 540q0 21 -15 33t-42 12h-57v-94h57q29 0 43 14t14 35z" />
    <glyph glyph-name="S.sc" unicode="&#xe589;" horiz-adv-x="476" 
d="M435 164q0 -77 -53 -125.5t-160 -48.5q-84 0 -182 31v145h84l11 -64q33 -12 84 -12q40 0 65 15.5t25 48.5q0 13 -6 23.5t-14 17.5t-23.5 14.5t-27.5 11.5t-32.5 11.5t-32.5 11.5q-116 46 -116 138q0 71 53.5 112t148.5 41q62 0 140 -21v-137h-81l-13 56q-20 7 -46 7
q-37 0 -58 -15.5t-21 -42.5q0 -13 7.5 -23.5t22.5 -17.5t30 -12.5t39.5 -13t40.5 -13.5q115 -43 115 -138z" />
    <glyph glyph-name="S.superior" unicode="&#xe58b;" horiz-adv-x="349" 
d="M321 389q0 -56 -38.5 -91t-118.5 -35q-55 0 -135 25v99h61l11 -43q32 -10 63 -10q29 0 47 13t18 34q0 33 -61 50q-30 8 -49 15.5t-39.5 21t-30.5 34.5t-10 49q0 51 41 81.5t111 30.5q43 0 105 -17v-94h-59l-10 35q-18 6 -38 6q-28 0 -43 -10.5t-15 -27.5q0 -12 10.5 -21
t21 -13.5t34.5 -11.5q39 -11 62.5 -22.5t42.5 -36.5t19 -61z" />
    <glyph glyph-name="T.sc" unicode="&#xe594;" horiz-adv-x="531" 
d="M415 423h-88v-337l79 -12v-74h-280v74l78 12v337h-88l-14 -66h-80v168h487v-168h-80z" />
    <glyph glyph-name="T.superior" unicode="&#xe596;" horiz-adv-x="379" 
d="M298 582h-64v-254l48 -8v-51h-187v51l48 8v254h-64l-8 -40h-59v115h354v-115h-59z" />
    <glyph glyph-name="U.sc" unicode="&#xe59f;" horiz-adv-x="646" 
d="M546 181q0 -94 -58 -143t-165 -49q-106 0 -164 49t-58 143v258l-79 12v74h261v-74l-59 -12v-246q0 -44 25 -71.5t74 -27.5q51 0 75.5 27t24.5 72v246l-61 12v74h262v-74l-78 -12v-258z" />
    <glyph glyph-name="U.superior" unicode="&#xe5a1;" horiz-adv-x="450" 
d="M386 403q0 -68 -42.5 -104.5t-119.5 -36.5q-76 0 -118.5 36.5t-42.5 104.5v195l-49 8v51h180v-51l-41 -8v-185q0 -75 71 -75q72 0 72 75v185l-40 8v51h179v-51l-49 -8v-195z" />
    <glyph glyph-name="V.sc" unicode="&#xe5aa;" horiz-adv-x="598" 
d="M517 439l-144 -439h-147l-145 439l-72 12v74h257v-74l-61 -12l37 -120q49 -165 59 -217h2q13 63 59 218l37 119l-61 12v74h251v-74z" />
    <glyph glyph-name="V.superior" unicode="&#xe5ac;" horiz-adv-x="411" 
d="M363 598l-103 -329h-109l-102 329l-44 8v51h172v-51l-39 -8l34 -113q21 -67 34 -135h1q9 47 35 135l33 113l-39 8v51h171v-51z" />
    <glyph glyph-name="W.sc" unicode="&#xe5b5;" horiz-adv-x="814" 
d="M734 439l-135 -439h-115l-43 160q-18 67 -32 131h-2q-11 -55 -31 -129l-44 -162h-118l-133 439l-72 12v74h259v-74l-64 -12l40 -140q9 -33 22 -87t16 -63h2q14 82 41 190l46 186h76l48 -189q32 -141 40 -187h2q19 89 36 148l42 142l-64 12v74h254v-74z" />
    <glyph glyph-name="W.superior" unicode="&#xe5b7;" horiz-adv-x="575" 
d="M526 598l-101 -329h-86l-30 123q-14 53 -21 90h-1q0 -1 -21 -93l-30 -120h-87l-100 329l-44 8v51h175v-51l-43 -8l25 -87q26 -103 31 -131h2q5 36 29 123l38 154h52l39 -151q27 -106 31 -126h1q9 48 28 122l27 96l-44 8v51h174v-51z" />
    <glyph glyph-name="X.sc" unicode="&#xe5c0;" horiz-adv-x="584" 
d="M29 525h240v-76l-47 -11l16 -22q38 -52 54 -81h2q8 16 55 84l14 20l-47 10v76h238v-74l-71 -13l-121 -161l139 -191l72 -12v-74h-253v75l57 11l-21 29q-36 47 -66 99h-2q-16 -31 -63 -94l-24 -34l57 -11v-75h-247v74l71 12l138 191l-120 161l-71 13v74z" />
    <glyph glyph-name="X.superior" unicode="&#xe5c2;" horiz-adv-x="429" 
d="M422 269h-183v51l34 5l-26 38q-20 27 -33 56h-1q-11 -22 -35 -57l-25 -37l34 -5v-51h-181v51l44 8l112 147l-93 123l-44 8v51h169v-52l-30 -4l16 -23q25 -35 34 -55h1q9 19 35 55l16 23l-30 4v52h174v-51l-44 -8l-100 -123l113 -147l43 -8v-51z" />
    <glyph glyph-name="Y.sc" unicode="&#xe5cb;" horiz-adv-x="569" 
d="M489 439l-142 -258v-95l79 -12v-74h-280v74l78 12v95l-143 258l-72 12v74h247v-74l-54 -12l14 -27q28 -51 68 -138h2q28 66 68 140l13 25l-54 12v74h247v-74z" />
    <glyph glyph-name="Y.superior" unicode="&#xe5cd;" horiz-adv-x="403" 
d="M354 598l-107 -198v-72l49 -8v-51h-188v51l49 8v72l-108 198l-44 8v51h174v-52l-33 -7l17 -36q23 -52 37 -88h2q21 52 40 90l17 34l-33 7v52h172v-51z" />
    <glyph glyph-name="Z.sc" unicode="&#xe5d6;" horiz-adv-x="492" 
d="M457 0h-422v96l183 228q16 20 48 56.5t36 40.5v2h-149l-17 -61h-80v163h390v-95l-185 -227q-14 -16 -45 -52t-40 -47v-2h186l11 73h84v-175z" />
    <glyph glyph-name="Z.superior" unicode="&#xe5d8;" horiz-adv-x="344" 
d="M322 269h-298v69l131 170q9 12 30 38t29 37v1h-106l-10 -40h-59v113h274v-69l-127 -165q-14 -18 -36.5 -46.5t-26.5 -33.5v-1h129l10 45h60v-118z" />
    <glyph glyph-name="Eng.sc" unicode="&#xe5e1;" horiz-adv-x="675" 
d="M113 86v353l-79 12v74h187l129 -186q77 -110 99 -149h2q-4 58 -4 127v124l-67 12v72h268v-71l-78 -13v-329q0 -117 -82 -187l-65 -56l-64 79l47 40q22 19 29 49l-115 168q-75 110 -87 131h-2q5 -52 5 -123v-127l66 -12v-74h-268v74z" />
    <glyph glyph-name="a.sc" unicode="&#xe5ec;" horiz-adv-x="588" 
d="M9 0l-1 74l67 12l145 439h147l145 -439l67 -12v-74h-238v73l57 13l-21 64h-171l-20 -64l57 -12v-74h-234zM231 238h122l-17 54q-24 72 -43 150h-2q-9 -43 -43 -151z" />
    <glyph glyph-name="a.superior" unicode="&#xe5ed;" horiz-adv-x="351" 
d="M339 277l-76 -9h-47l-8 28h-1q-50 -29 -69 -33q-8 -1 -18 -1q-42 0 -68 23.5t-26 64.5q0 44 24.5 67.5t67.5 23.5q16 0 42.5 -5t41.5 -5v26q0 42 -52 42q-20 0 -39 -6l-7 -31h-57v79q59 19 114 19q66 0 96.5 -25.5t30.5 -78.5v-100q0 -18 3 -28l48 -8v-43zM202 339v49
q-9 0 -28 3t-26 3q-39 0 -39 -39q0 -36 40 -36q14 0 53 20z" />
    <glyph glyph-name="b.sc" unicode="&#xe5f5;" horiz-adv-x="573" 
d="M538 160q0 -71 -47.5 -115.5t-143.5 -44.5h-313v74l79 12v353l-79 12v74h292q88 0 136.5 -37.5t48.5 -99.5q0 -63 -55 -97v-2q82 -42 82 -129zM392 383q0 26 -19.5 43.5t-52.5 17.5h-84v-122h89q31 0 49 17.5t18 43.5zM412 164q0 32 -21 52.5t-55 20.5h-100v-145h100
q35 0 55.5 20t20.5 52z" />
    <glyph glyph-name="b.superior" unicode="&#xe5f6;" horiz-adv-x="349" 
d="M324 411q0 -69 -35 -108.5t-94 -39.5q-46 0 -75 31h-1l-3 -25h-77v348l-49 4v48l93 11h42v-159h1q38 40 76 40q122 0 122 -150zM235 411q0 41 -14.5 59.5t-44.5 18.5q-25 0 -51 -36v-93q20 -25 48 -25q62 0 62 76z" />
    <glyph glyph-name="c.sc" unicode="&#xe5ff;" horiz-adv-x="490" 
d="M302 -10q-122 0 -191.5 68t-69.5 197q0 130 72 205.5t190 75.5q72 0 132 -21v-156h-80l-13 65q-18 6 -44 6q-56 0 -93 -46.5t-37 -125.5q0 -78 36.5 -120t96.5 -42q62 0 122 19l30 -98q-77 -27 -151 -27z" />
    <glyph glyph-name="c.superior" unicode="&#xe600;" horiz-adv-x="280" 
d="M257 276q-45 -13 -76 -13q-74 0 -115 39t-41 110q0 70 42 109t112 39q35 0 71 -9v-103h-52l-8 38q-8 2 -18 2q-24 0 -41 -20t-17 -56q0 -37 18.5 -56.5t50.5 -19.5q26 0 58 9z" />
    <glyph glyph-name="d.sc" unicode="&#xe609;" horiz-adv-x="601" 
d="M560 268q0 -128 -69 -198t-186 -70h-271v75l79 11v353l-79 12v74h277q108 0 178.5 -66.5t70.5 -190.5zM434 263q0 79 -37 119.5t-94 40.5h-67v-321h67q57 0 94 41.5t37 119.5z" />
    <glyph glyph-name="d.superior" unicode="&#xe60a;" horiz-adv-x="375" 
d="M358 277l-76 -9h-48l-3 32h-1q-35 -37 -75 -37q-59 0 -94.5 39.5t-35.5 108.5q0 150 123 150q36 0 75 -37h1v93l-49 4v48l94 11h41v-352l48 -8v-43zM224 364v93q-24 32 -50 32q-60 0 -60 -78q0 -38 17.5 -57t45.5 -19q12 0 26.5 9.5t20.5 19.5z" />
    <glyph glyph-name="e.sc" unicode="&#xe613;" horiz-adv-x="527" 
d="M483 0h-449v74l79 13v352l-79 12v74h433v-139h-80l-11 48h-140v-122h122l8 37h70v-155h-70l-8 38h-122v-141h153l11 55h83v-146z" />
    <glyph glyph-name="e.superior" unicode="&#xe614;" horiz-adv-x="321" 
d="M299 392h-193q0 -31 21.5 -48t55.5 -17q42 0 86 11l14 -59q-53 -16 -98 -16q-160 0 -160 149q0 70 38.5 109.5t104.5 39.5q131 0 131 -148v-21zM227 445v2q-1 25 -16.5 40.5t-42.5 15.5q-25 0 -42 -16t-19 -42h120z" />
    <glyph glyph-name="f.sc" unicode="&#xe61c;" horiz-adv-x="490" 
d="M362 433h-126v-130h106l7 38h71v-162h-71l-8 39h-105v-132l84 -12v-74h-286v74l79 12v353l-79 12v74h420v-139h-80z" />
    <glyph glyph-name="f.superior" unicode="&#xe61d;" horiz-adv-x="246" 
d="M257 670l-18 -60q-26 11 -52 11q-12 0 -22.5 -7.5t-10.5 -21.5v-38h77v-69h-77v-157l55 -8v-51h-190v51l49 8v157h-40v69h40v55q0 34 29 55t69 21q42 0 91 -15z" />
    <glyph glyph-name="g.sc" unicode="&#xe626;" horiz-adv-x="575" 
d="M495 0h-75l-11 38h-2q-53 -49 -123 -49q-117 0 -180 69.5t-63 203.5q0 129 75 201t200 72q93 0 160 -28v-145h-80l-14 59q-25 9 -67 9q-64 0 -105.5 -44.5t-41.5 -123.5q0 -82 32.5 -125t92.5 -43q54 0 97 28v64l-72 12v73h239v-73l-62 -12v-186z" />
    <glyph glyph-name="g.superior" unicode="&#xe627;" horiz-adv-x="332" 
d="M316 496h-44v-1q11 -10 11 -34q0 -47 -33 -74.5t-91 -27.5q-15 0 -37 4q-16 -12 -16 -17q0 -19 32 -19h67q113 0 113 -73q0 -46 -51 -78.5t-118 -32.5q-128 0 -128 80q0 20 13.5 36.5t32.5 22.5v1q-32 15 -32 53q0 15 11 29t23 20v1q-36 24 -36 75q0 47 33.5 73.5
t92.5 26.5q33 0 56 -7h101v-58zM209 461q0 46 -50 46q-51 0 -51 -46t51 -46q50 0 50 46zM239 243q0 25 -50 25h-54q-37 -14 -37 -38q0 -30 61 -30q33 0 56.5 14t23.5 29z" />
    <glyph glyph-name="h.sc" unicode="&#xe630;" horiz-adv-x="677" 
d="M643 0h-266v74l64 12v131h-205v-131l64 -12v-74h-266v74l79 12v353l-79 12v74h266v-75l-64 -11v-120h205v120l-64 11v75h266v-74l-79 -12v-353l79 -12v-74z" />
    <glyph glyph-name="h.superior" unicode="&#xe631;" horiz-adv-x="403" 
d="M389 269h-167v51l33 8v123q0 39 -36 39q-39 0 -65 -33v-129l37 -8v-51h-172v51l49 8v289l-49 4v48l94 11h41v-164h1q31 45 96 45q41 0 65.5 -24t24.5 -69v-140l48 -8v-51z" />
    <glyph glyph-name="i.sc" unicode="&#xe63a;" horiz-adv-x="349" 
d="M34 0v74l79 12v353l-79 12v74h281v-74l-79 -12v-353l79 -12v-74h-281z" />
    <glyph glyph-name="j.sc" unicode="&#xe643;" horiz-adv-x="343" 
d="M237 439v-356q0 -88 -85 -156l-79 -63l-73 87l61 51q53 42 53 92v345l-79 12v74h281v-74z" />
    <glyph glyph-name="j.superior" unicode="&#xe644;" horiz-adv-x="187" 
d="M-4 196l44 44q14 13 17.5 23t3.5 37v192l-49 3v49l95 10h40v-247q0 -45 -6.5 -65t-34.5 -46l-58 -53zM102 590q-21 0 -36.5 14t-15.5 32q0 19 15 31.5t37 12.5t37 -12.5t15 -31.5q0 -18 -15.5 -32t-36.5 -14z" />
    <glyph glyph-name="k.sc" unicode="&#xe64d;" horiz-adv-x="602" 
d="M597 0h-163l-89 151q-13 24 -28.5 53t-19.5 36h-2l-59 -71v-83l69 -12v-74h-271v74l79 12v353l-79 12v74h249v-77l-47 -8v-146h2q12 16 63 77q31 38 60 69l-44 8v77h243v-74l-77 -12l-109 -121l144 -232l79 -12v-74z" />
    <glyph glyph-name="k.superior" unicode="&#xe64e;" horiz-adv-x="383" 
d="M378 269h-107l-38 70q-31 58 -33 63h-1l-45 -41v-33l43 -8v-51h-178v51l49 8v289l-49 4v48l93 11h42v-248h2q24 32 44 50l20 19l-28 6v47h160v-49l-46 -8l-51 -51l75 -118l48 -8v-51z" />
    <glyph glyph-name="l.sc" unicode="&#xe657;" horiz-adv-x="475" 
d="M456 0h-422v74l79 12v353l-79 12v74h281v-74l-79 -12v-337h127l12 72h81v-174z" />
    <glyph glyph-name="l.superior" unicode="&#xe658;" horiz-adv-x="219" 
d="M68 328v289l-49 4v48l94 11h41v-352l49 -8v-51h-184v51z" />
    <glyph glyph-name="m.sc" unicode="&#xe661;" horiz-adv-x="735" 
d="M696 0h-271v74l74 12v123q0 67 3 117h-2l-105 -173h-56l-105 173h-2q4 -76 4 -116v-124l73 -12v-74h-275v74l79 12v353l-79 12v74h192l80 -134q32 -49 60 -110h2q31 62 56 101l86 143h191v-71l-79 -13v-355l74 -12v-74z" />
    <glyph glyph-name="m.superior" unicode="&#xe662;" horiz-adv-x="572" 
d="M558 269h-167v52l32 7v123q0 39 -33 39q-31 0 -59 -36v-126l33 -7v-52h-150v52l32 7v123q0 39 -33 39t-59 -36v-126l33 -7v-52h-168v51l49 8v164l-49 3v49l94 10h33l4 -42h1q13 21 39 35t53 14q64 0 81 -52h1q13 22 40 37t56 15q40 0 64 -24.5t24 -70.5v-138l49 -8v-51z
" />
    <glyph glyph-name="n.sc" unicode="&#xe66b;" horiz-adv-x="677" 
d="M571 0h-108l-142 205q-67 96 -88 131h-2q5 -52 5 -115v-135l68 -12v-74h-270v74l79 12v353l-79 12v74h187l130 -186q83 -118 100 -149h2q-5 43 -5 119v132l-68 12v72h270v-71l-79 -13v-441z" />
    <glyph glyph-name="o.sc" unicode="&#xe674;" horiz-adv-x="586" 
d="M544 262q0 -128 -68.5 -200.5t-182.5 -72.5t-183 72.5t-69 200.5q0 129 69.5 202t182.5 73t182 -73t69 -202zM418 262q0 80 -34 124.5t-91 44.5t-91 -44.5t-34 -124.5t34 -124t91 -44q58 0 91.5 44t33.5 124z" />
    <glyph glyph-name="o.superior" unicode="&#xe675;" horiz-adv-x="343" 
d="M318 412q0 -70 -40.5 -110t-105.5 -40q-66 0 -106.5 40t-40.5 110t40.5 109.5t106.5 39.5q65 0 105.5 -39.5t40.5 -109.5zM229 412q0 77 -57 77q-58 0 -58 -77t58 -77q57 0 57 77z" />
    <glyph glyph-name="p.sc" unicode="&#xe67d;" horiz-adv-x="542" 
d="M520 357q0 -84 -51.5 -129.5t-148.5 -45.5h-84v-96l79 -12v-74h-281v74l79 12v353l-79 12v74h277q105 0 157 -44t52 -124zM400 355q0 32 -21 53t-58 21h-85v-152h91q35 0 54 23t19 55z" />
    <glyph glyph-name="p.superior" unicode="&#xe67e;" horiz-adv-x="365" 
d="M341 412q0 -70 -35 -109.5t-94 -39.5q-50 0 -69 28h-1v-83l49 -8v-51h-183v51l49 8v284l-49 3v49l93 10h31l3 -38h2q31 45 82 45q122 0 122 -149zM252 412q0 77 -59 77q-28 0 -51 -33v-101q16 -20 47 -20q63 0 63 77z" />
    <glyph glyph-name="q.sc" unicode="&#xe687;" horiz-adv-x="586" 
d="M544 263q0 -93 -35.5 -155.5t-98.5 -91.5q62 -38 128 -38q11 0 31 2l-3 -84q-15 -3 -35 -3q-51 0 -95 13.5t-69.5 30t-60 34t-66.5 23.5q-32 4 -64.5 20t-64 46t-51 83t-19.5 120q0 129 69.5 201.5t183.5 72.5q112 0 181 -73t69 -201zM418 263q0 80 -33.5 124t-90.5 44
t-91.5 -44t-34.5 -124q0 -79 34 -124t92 -45q57 0 90.5 45t33.5 124z" />
    <glyph glyph-name="q.superior" unicode="&#xe688;" horiz-adv-x="358" 
d="M358 149h-183v51l49 8v84h-1q-26 -29 -68 -29q-59 0 -94.5 39.5t-35.5 108.5q0 150 123 150q47 0 81 -43h2l2 36h77v-346l48 -8v-51zM224 360v96q-24 33 -50 33q-60 0 -60 -78q0 -39 17.5 -57.5t46.5 -18.5q12 0 26 8t20 17z" />
    <glyph glyph-name="r.sc" unicode="&#xe691;" horiz-adv-x="594" 
d="M585 0h-160l-100 201h-89v-115l67 -12v-74h-269v74l79 12v353l-79 12v74h286q202 0 202 -160q0 -103 -89 -140v-2q13 -20 44 -74l34 -63l74 -12v-74zM401 365q0 31 -20 49.5t-55 18.5h-90v-141h90q39 0 57 21.5t18 51.5z" />
    <glyph glyph-name="r.superior" unicode="&#xe692;" horiz-adv-x="285" 
d="M273 444h-52l-9 43q-3 1 -11 1q-13 0 -27 -14.5t-20 -37.5v-108l55 -8v-51h-190v51l49 8v164l-49 3v49l94 10h31l3 -48h1q5 20 27 37t46 17q20 0 52 -14v-102z" />
    <glyph glyph-name="s.sc" unicode="&#xe69b;" horiz-adv-x="476" 
d="M435 164q0 -77 -53 -125.5t-160 -48.5q-84 0 -182 31v145h84l11 -64q33 -12 84 -12q40 0 65 15.5t25 48.5q0 13 -6 23.5t-14 17.5t-23.5 14.5t-27.5 11.5t-32.5 11.5t-32.5 11.5q-116 46 -116 138q0 71 53.5 112t148.5 41q62 0 140 -21v-137h-81l-13 56q-20 7 -46 7
q-37 0 -58 -15.5t-21 -42.5q0 -13 7.5 -23.5t22.5 -17.5t30 -12.5t39.5 -13t40.5 -13.5q115 -43 115 -138z" />
    <glyph glyph-name="s.superior" unicode="&#xe69c;" horiz-adv-x="275" 
d="M254 358q0 -43 -33 -69t-95 -26q-53 0 -104 17v87h53l8 -33q19 -6 39 -6q48 0 48 27q0 10 -7.5 17t-14.5 9.5t-23 6.5q-30 9 -47.5 17t-31.5 26t-14 44q0 39 31 62.5t82 23.5q46 0 90 -13v-77h-50l-7 31q-12 2 -23 2q-41 0 -41 -25q0 -3 0.5 -5.5t1.5 -4.5t3 -4t3 -3.5
t4.5 -3t5 -2l6 -2t7 -2t7.5 -2t8 -2.5q20 -6 32 -10.5t28.5 -14.5t25 -26.5t8.5 -38.5z" />
    <glyph glyph-name="t.sc" unicode="&#xe6a5;" horiz-adv-x="531" 
d="M415 423h-88v-337l79 -12v-74h-280v74l78 12v337h-88l-14 -66h-80v168h487v-168h-80z" />
    <glyph glyph-name="t.superior" unicode="&#xe6a6;" horiz-adv-x="236" 
d="M233 279q-41 -15 -92 -15q-40 0 -66 18.5t-26 53.5v149h-40v69h40v54l87 25v-79h73v-69h-73v-125q0 -29 26 -29q15 0 50 11z" />
    <glyph glyph-name="u.sc" unicode="&#xe6af;" horiz-adv-x="646" 
d="M546 181q0 -94 -58 -143t-165 -49q-106 0 -164 49t-58 143v258l-79 12v74h261v-74l-59 -12v-246q0 -44 25 -71.5t74 -27.5q51 0 75.5 27t24.5 72v246l-61 12v74h262v-74l-78 -12v-258z" />
    <glyph glyph-name="u.superior" unicode="&#xe6b0;" horiz-adv-x="391" 
d="M374 277l-74 -9h-51l-5 40h-1q-13 -21 -40.5 -33.5t-56.5 -12.5q-41 0 -64.5 23.5t-23.5 68.5v138l-48 3v48l93 11h41v-183q0 -39 34 -39q37 0 61 33v127l-37 3v48l83 11h40v-226l49 -8v-43z" />
    <glyph glyph-name="v.sc" unicode="&#xe6b9;" horiz-adv-x="598" 
d="M517 439l-144 -439h-147l-145 439l-72 12v74h257v-74l-61 -12l37 -120q49 -165 59 -217h2q13 63 59 218l37 119l-61 12v74h251v-74z" />
    <glyph glyph-name="v.superior" unicode="&#xe6ba;" horiz-adv-x="377" 
d="M329 497l-88 -228h-104l-89 228l-44 8v49h163v-52l-32 -5l23 -63q13 -35 32 -101h1q8 41 30 101l24 63l-32 5v52h160v-49z" />
    <glyph glyph-name="w.sc" unicode="&#xe6c3;" horiz-adv-x="814" 
d="M734 439l-135 -439h-115l-43 160q-18 67 -32 131h-2q-11 -55 -31 -129l-44 -162h-118l-133 439l-72 12v74h259v-74l-64 -12l40 -140q9 -33 22 -87t16 -63h2q14 82 41 190l46 186h76l48 -189q32 -141 40 -187h2q19 89 36 148l42 142l-64 12v74h254v-74z" />
    <glyph glyph-name="w.superior" unicode="&#xe6c4;" horiz-adv-x="485" 
d="M437 497l-76 -228h-72l-25 81q-17 56 -20 75h-2q-4 -28 -20 -75l-25 -81h-71l-78 228l-44 8v49h161v-52l-35 -5l17 -55q17 -61 21 -80h1q10 47 22 86l32 106h42l30 -106q15 -54 23 -86h1q13 56 21 79l18 56l-35 5v52h158v-49z" />
    <glyph glyph-name="x.sc" unicode="&#xe6cd;" horiz-adv-x="584" 
d="M29 525h240v-76l-47 -11l16 -22q38 -52 54 -81h2q8 16 55 84l14 20l-47 10v76h238v-74l-71 -13l-121 -161l139 -191l72 -12v-74h-253v75l57 11l-21 29q-36 47 -66 99h-2q-16 -31 -63 -94l-24 -34l57 -11v-75h-247v74l71 12l138 191l-120 161l-71 13v74z" />
    <glyph glyph-name="x.superior" unicode="&#xe6ce;" horiz-adv-x="336" 
d="M329 269h-101l-27 41q-18 27 -34 56h-1q-9 -18 -34 -57l-27 -40h-98v51l44 8l70 93l-58 76l-44 8v49h104l20 -30q5 -8 11 -18.5t10.5 -19t5.5 -9.5h1q10 22 27 47l20 30h98v-49l-44 -8l-55 -76l68 -93l44 -8v-51z" />
    <glyph glyph-name="y.sc" unicode="&#xe6d6;" horiz-adv-x="569" 
d="M489 439l-142 -258v-95l79 -12v-74h-280v74l78 12v95l-143 258l-72 12v74h247v-74l-54 -12l14 -27q28 -51 68 -138h2q28 66 68 140l13 25l-54 12v74h247v-74z" />
    <glyph glyph-name="y.superior" unicode="&#xe6d7;" horiz-adv-x="377" 
d="M329 497l-71 -162q-46 -97 -89 -139l-67 -61l-50 48l37 37q34 32 53 60l-94 217l-44 8v49h164v-52l-32 -5l21 -58q21 -57 31 -94h1q7 30 32 94l22 57l-32 6v52h162v-49z" />
    <glyph glyph-name="z.sc" unicode="&#xe6e0;" horiz-adv-x="492" 
d="M457 0h-422v96l183 228q16 20 48 56.5t36 40.5v2h-149l-17 -61h-80v163h390v-95l-185 -227q-14 -16 -45 -52t-40 -47v-2h186l11 73h84v-175z" />
    <glyph glyph-name="z.superior" unicode="&#xe6e1;" horiz-adv-x="298" 
d="M280 269h-259v61l107 115q24 22 42 40v1h-81l-9 -31h-52v99h246v-60l-101 -109q-22 -22 -49 -46v-1h95l8 36h53v-105z" />
    <glyph glyph-name="eng.sc" unicode="&#xe6ea;" horiz-adv-x="675" 
d="M113 86v353l-79 12v74h187l129 -186q77 -110 99 -149h2q-4 58 -4 127v124l-67 12v72h268v-71l-78 -13v-329q0 -117 -82 -187l-65 -56l-64 79l47 40q22 19 29 49l-115 168q-75 110 -87 131h-2q5 -52 5 -123v-127l66 -12v-74h-268v74z" />
    <glyph glyph-name="Agrave.sc" unicode="&#xe6f4;" horiz-adv-x="588" 
d="M9 0l-1 74l67 12l145 439h147l145 -439l67 -12v-74h-238v73l57 13l-21 64h-171l-20 -64l57 -12v-74h-234zM231 238h122l-17 54q-24 72 -43 150h-2q-9 -43 -43 -151zM350 597h-90l-139 129h128z" />
    <glyph glyph-name="Aacute.sc" unicode="&#xe6ff;" horiz-adv-x="588" 
d="M9 0l-1 74l67 12l145 439h147l145 -439l67 -12v-74h-238v73l57 13l-21 64h-171l-20 -64l57 -12v-74h-234zM231 238h122l-17 54q-24 72 -43 150h-2q-9 -43 -43 -151zM325 597h-90l101 129h128z" />
    <glyph glyph-name="Acircumflex.sc" unicode="&#xe70a;" horiz-adv-x="588" 
d="M9 0l-1 74l67 12l145 439h147l145 -439l67 -12v-74h-238v73l57 13l-21 64h-171l-20 -64l57 -12v-74h-234zM231 238h122l-17 54q-24 72 -43 150h-2q-9 -43 -43 -151zM230 597h-96l117 129h83l117 -129h-96l-62 81h-2z" />
    <glyph glyph-name="Atilde.sc" unicode="&#xe715;" horiz-adv-x="588" 
d="M9 0l-1 74l67 12l145 439h147l145 -439l67 -12v-74h-238v73l57 13l-21 64h-171l-20 -64l57 -12v-74h-234zM231 238h122l-17 54q-24 72 -43 150h-2q-9 -43 -43 -151zM458 656q-33 -29 -57.5 -42.5t-53.5 -13.5t-61 22t-51 22q-4 0 -7.5 -0.5t-7.5 -2t-7 -2.5t-7 -4
t-7 -4.5t-8 -6t-8 -6.5t-9.5 -7t-9.5 -8l-37 60q32 28 55.5 41.5t52.5 13.5q31 0 62 -22t50 -22q17 0 31 8.5t40 31.5z" />
    <glyph glyph-name="Adieresis.sc" unicode="&#xe720;" horiz-adv-x="588" 
d="M9 0l-1 74l67 12l145 439h147l145 -439l67 -12v-74h-238v73l57 13l-21 64h-171l-20 -64l57 -12v-74h-234zM231 238h122l-17 54q-24 72 -43 150h-2q-9 -43 -43 -151zM119 659q0 27 20 45.5t48 18.5q29 0 49 -18.5t20 -45.5q0 -26 -20 -44.5t-49 -18.5q-28 0 -48 18.5
t-20 44.5zM328 659q0 27 20 45.5t49 18.5t49 -18.5t20 -45.5q0 -26 -20 -44.5t-49 -18.5q-28 0 -48.5 18.5t-20.5 44.5z" />
    <glyph glyph-name="Amacron.sc" unicode="&#xe72b;" horiz-adv-x="588" 
d="M9 0l-1 74l67 12l145 439h147l145 -439l67 -12v-74h-238v73l57 13l-21 64h-171l-20 -64l57 -12v-74h-234zM231 238h122l-17 54q-24 72 -43 150h-2q-9 -43 -43 -151zM144 625v69h297v-69h-297z" />
    <glyph glyph-name="Abreve.sc" unicode="&#xe736;" horiz-adv-x="588" 
d="M9 0l-1 74l67 12l145 439h147l145 -439l67 -12v-74h-238v73l57 13l-21 64h-171l-20 -64l57 -12v-74h-234zM231 238h122l-17 54q-24 72 -43 150h-2q-9 -43 -43 -151zM148 722h67q2 -27 25 -46.5t52 -19.5q30 0 53 19.5t25 46.5h67q0 -52 -42.5 -88.5t-102.5 -36.5
q-59 0 -101.5 36.5t-42.5 88.5z" />
    <glyph glyph-name="Aring.sc" unicode="&#xe741;" horiz-adv-x="588" 
d="M9 0l-1 74l67 12l145 439h147l145 -439l67 -12v-74h-238v73l57 13l-21 64h-171l-20 -64l57 -12v-74h-234zM231 238h122l-17 54q-24 72 -43 150h-2q-9 -43 -43 -151zM184 671q0 46 31.5 78.5t76.5 32.5t76.5 -32.5t31.5 -78.5t-31.5 -78.5t-76.5 -32.5t-76.5 32.5
t-31.5 78.5zM243 671q0 -25 14 -41.5t35 -16.5q20 0 34.5 16.5t14.5 41.5q0 24 -14.5 41t-34.5 17q-21 0 -35 -17t-14 -41z" />
    <glyph glyph-name="Aogonek.sc" unicode="&#xe757;" horiz-adv-x="588" 
d="M322 -128q0 34 28 69.5t70 58.5h-79v73l57 13l-21 64h-171l-20 -64l57 -12v-74h-234l-1 74l67 12l145 439h147l145 -439l67 -12v-74h-76q-37 -25 -61 -56t-24 -55q0 -18 9 -30.5t24 -12.5q17 0 29 4l14 -59q-33 -11 -61 -11q-49 0 -80 23.5t-31 68.5zM231 238h122l-17 54
q-24 72 -43 150h-2q-9 -43 -43 -151z" />
    <glyph glyph-name="AE.sc" unicode="&#xe762;" horiz-adv-x="776" 
d="M50 84l226 372l-61 9v60h501v-139h-82l-10 48h-139v-122h121l8 37h71v-155h-71l-8 38h-121v-141h153l10 55h84v-146h-431v74l61 13v63h-165l-41 -66l49 -10v-74h-219v73zM241 238h121v50q0 68 3 157h-2q-35 -70 -87 -150z" />
    <glyph glyph-name="AEacute.sc" unicode="&#xe76d;" horiz-adv-x="776" 
d="M50 84l226 372l-61 9v60h501v-139h-82l-10 48h-139v-122h121l8 37h71v-155h-71l-8 38h-121v-141h153l10 55h84v-146h-431v74l61 13v63h-165l-41 -66l49 -10v-74h-219v73zM241 238h121v50q0 68 3 157h-2q-35 -70 -87 -150zM484 597h-90l101 129h128z" />
    <glyph glyph-name="Cacute.sc" unicode="&#xe778;" horiz-adv-x="490" 
d="M302 -10q-122 0 -191.5 68t-69.5 197q0 130 72 205.5t190 75.5q72 0 132 -21v-156h-80l-13 65q-18 6 -44 6q-56 0 -93 -46.5t-37 -125.5q0 -78 36.5 -120t96.5 -42q62 0 122 19l30 -98q-77 -27 -151 -27zM318 597h-90l101 129h128z" />
    <glyph glyph-name="Ccircumflex.sc" unicode="&#xe783;" horiz-adv-x="490" 
d="M302 -10q-122 0 -191.5 68t-69.5 197q0 130 72 205.5t190 75.5q72 0 132 -21v-156h-80l-13 65q-18 6 -44 6q-56 0 -93 -46.5t-37 -125.5q0 -78 36.5 -120t96.5 -42q62 0 122 19l30 -98q-77 -27 -151 -27zM223 597h-96l117 129h83l117 -129h-96l-62 81h-2z" />
    <glyph glyph-name="Ccaron.sc" unicode="&#xe78e;" horiz-adv-x="490" 
d="M302 -10q-122 0 -191.5 68t-69.5 197q0 130 72 205.5t190 75.5q72 0 132 -21v-156h-80l-13 65q-18 6 -44 6q-56 0 -93 -46.5t-37 -125.5q0 -78 36.5 -120t96.5 -42q62 0 122 19l30 -98q-77 -27 -151 -27zM127 726h96l61 -82h2l62 82h96l-117 -129h-83z" />
    <glyph glyph-name="Cdotaccent.sc" unicode="&#xe799;" horiz-adv-x="490" 
d="M302 -10q-122 0 -191.5 68t-69.5 197q0 130 72 205.5t190 75.5q72 0 132 -21v-156h-80l-13 65q-18 6 -44 6q-56 0 -93 -46.5t-37 -125.5q0 -78 36.5 -120t96.5 -42q62 0 122 19l30 -98q-77 -27 -151 -27zM210 659q0 29 22 49.5t53 20.5t53 -20.5t22 -49.5t-22 -49.5
t-53 -20.5t-53 20.5t-22 49.5z" />
    <glyph glyph-name="Ccedilla.sc" unicode="&#xe7a4;" horiz-adv-x="490" 
d="M374 -125q0 -43 -31 -69t-77 -26q-53 0 -93 20l22 50q38 -15 63 -15q22 0 35.5 9.5t13.5 26.5q0 26 -23.5 34t-77.5 11l27 80q-92 18 -142 83.5t-50 175.5q0 130 72 205.5t190 75.5q72 0 132 -21v-156h-80l-13 65q-18 6 -44 6q-56 0 -93 -46.5t-37 -125.5
q0 -78 36.5 -120t96.5 -42q62 0 122 19l30 -98q-77 -27 -151 -27h-12l-10 -28v-2q41 -3 67.5 -26.5t26.5 -58.5z" />
    <glyph glyph-name="Dcaron.sc" unicode="&#xe7af;" horiz-adv-x="601" 
d="M560 268q0 -128 -69 -198t-186 -70h-271v75l79 11v353l-79 12v74h277q108 0 178.5 -66.5t70.5 -190.5zM434 263q0 79 -37 119.5t-94 40.5h-67v-321h67q57 0 94 41.5t37 119.5zM120 726h96l61 -82h2l62 82h96l-117 -129h-83z" />
    <glyph glyph-name="Dcroat.sc" unicode="&#xe7ba;" horiz-adv-x="605" 
d="M67 237v68h50v134l-79 12v74h277q108 0 178.5 -66.5t70.5 -190.5q0 -128 -69 -198t-186 -70h-271v75l79 11v151h-50zM438 263q0 79 -37 119.5t-95 40.5h-66v-118h82v-68h-82v-135h66q58 0 95 41.5t37 119.5z" />
    <glyph glyph-name="Eth.sc" unicode="&#xe7c5;" horiz-adv-x="605" 
d="M67 237v68h50v134l-79 12v74h277q108 0 178.5 -66.5t70.5 -190.5q0 -128 -69 -198t-186 -70h-271v75l79 11v151h-50zM438 263q0 79 -37 119.5t-95 40.5h-66v-118h82v-68h-82v-135h66q58 0 95 41.5t37 119.5z" />
    <glyph glyph-name="Egrave.sc" unicode="&#xe7d0;" horiz-adv-x="527" 
d="M483 0h-449v74l79 13v352l-79 12v74h433v-139h-80l-11 48h-140v-122h122l8 37h70v-155h-70l-8 38h-122v-141h153l11 55h83v-146zM326 597h-90l-139 129h128z" />
    <glyph glyph-name="Egrave.superior" unicode="&#xe7d2;" horiz-adv-x="373" 
d="M253 691h-65l-111 69h94zM345 269h-321v51l48 8v270l-48 8v51h310v-100h-59l-7 27h-106v-84h93l4 22h52v-106h-52l-4 23h-93v-97h118l6 32h59v-105z" />
    <glyph glyph-name="Eacute.sc" unicode="&#xe7db;" horiz-adv-x="527" 
d="M483 0h-449v74l79 13v352l-79 12v74h433v-139h-80l-11 48h-140v-122h122l8 37h70v-155h-70l-8 38h-122v-141h153l11 55h83v-146zM301 597h-90l101 129h128z" />
    <glyph glyph-name="Ecircumflex.sc" unicode="&#xe7e6;" horiz-adv-x="527" 
d="M483 0h-449v74l79 13v352l-79 12v74h433v-139h-80l-11 48h-140v-122h122l8 37h70v-155h-70l-8 38h-122v-141h153l11 55h83v-146zM206 597h-96l117 129h83l117 -129h-96l-62 81h-2z" />
    <glyph glyph-name="Ecaron.sc" unicode="&#xe7f1;" horiz-adv-x="527" 
d="M483 0h-449v74l79 13v352l-79 12v74h433v-139h-80l-11 48h-140v-122h122l8 37h70v-155h-70l-8 38h-122v-141h153l11 55h83v-146zM110 726h96l61 -82h2l62 82h96l-117 -129h-83z" />
    <glyph glyph-name="Edieresis.sc" unicode="&#xe7fc;" horiz-adv-x="527" 
d="M483 0h-449v74l79 13v352l-79 12v74h433v-139h-80l-11 48h-140v-122h122l8 37h70v-155h-70l-8 38h-122v-141h153l11 55h83v-146zM95 659q0 27 20 45.5t48 18.5q29 0 49 -18.5t20 -45.5q0 -26 -20 -44.5t-49 -18.5q-28 0 -48 18.5t-20 44.5zM304 659q0 27 20 45.5t49 18.5
t49 -18.5t20 -45.5q0 -26 -20 -44.5t-49 -18.5q-28 0 -48.5 18.5t-20.5 44.5z" />
    <glyph glyph-name="Emacron.sc" unicode="&#xe807;" horiz-adv-x="527" 
d="M483 0h-449v74l79 13v352l-79 12v74h433v-139h-80l-11 48h-140v-122h122l8 37h70v-155h-70l-8 38h-122v-141h153l11 55h83v-146zM120 625v69h297v-69h-297z" />
    <glyph glyph-name="Ebreve.sc" unicode="&#xe812;" horiz-adv-x="527" 
d="M483 0h-449v74l79 13v352l-79 12v74h433v-139h-80l-11 48h-140v-122h122l8 37h70v-155h-70l-8 38h-122v-141h153l11 55h83v-146zM124 722h67q2 -27 25 -46.5t52 -19.5q30 0 53 19.5t25 46.5h67q0 -52 -42.5 -88.5t-102.5 -36.5q-59 0 -101.5 36.5t-42.5 88.5z" />
    <glyph glyph-name="Edotaccent.sc" unicode="&#xe81d;" horiz-adv-x="527" 
d="M483 0h-449v74l79 13v352l-79 12v74h433v-139h-80l-11 48h-140v-122h122l8 37h70v-155h-70l-8 38h-122v-141h153l11 55h83v-146zM193 659q0 29 22 49.5t53 20.5t53 -20.5t22 -49.5t-22 -49.5t-53 -20.5t-53 20.5t-22 49.5z" />
    <glyph glyph-name="Eogonek.sc" unicode="&#xe828;" horiz-adv-x="527" 
d="M302 -128q0 35 28 70t69 58h-365v74l79 13v352l-79 12v74h433v-139h-80l-11 48h-140v-122h122l8 37h70v-155h-70l-8 38h-122v-141h153l11 55h83v-146q-38 -26 -62 -56t-24 -55q0 -18 9 -30.5t24 -12.5q18 0 29 4l14 -59q-31 -11 -61 -11q-49 0 -79.5 23.5t-30.5 68.5z
" />
    <glyph glyph-name="Gcircumflex.sc" unicode="&#xe833;" horiz-adv-x="575" 
d="M495 0h-75l-11 38h-2q-53 -49 -123 -49q-117 0 -180 69.5t-63 203.5q0 129 75 201t200 72q93 0 160 -28v-145h-80l-14 59q-25 9 -67 9q-64 0 -105.5 -44.5t-41.5 -123.5q0 -82 32.5 -125t92.5 -43q54 0 97 28v64l-72 12v73h239v-73l-62 -12v-186zM241 597h-96l117 129h83
l117 -129h-96l-62 81h-2z" />
    <glyph glyph-name="Gbreve.sc" unicode="&#xe83e;" horiz-adv-x="575" 
d="M495 0h-75l-11 38h-2q-53 -49 -123 -49q-117 0 -180 69.5t-63 203.5q0 129 75 201t200 72q93 0 160 -28v-145h-80l-14 59q-25 9 -67 9q-64 0 -105.5 -44.5t-41.5 -123.5q0 -82 32.5 -125t92.5 -43q54 0 97 28v64l-72 12v73h239v-73l-62 -12v-186zM159 722h67
q2 -27 25 -46.5t52 -19.5q30 0 53 19.5t25 46.5h67q0 -52 -42.5 -88.5t-102.5 -36.5q-59 0 -101.5 36.5t-42.5 88.5z" />
    <glyph glyph-name="Gdotaccent.sc" unicode="&#xe849;" horiz-adv-x="575" 
d="M495 0h-75l-11 38h-2q-53 -49 -123 -49q-117 0 -180 69.5t-63 203.5q0 129 75 201t200 72q93 0 160 -28v-145h-80l-14 59q-25 9 -67 9q-64 0 -105.5 -44.5t-41.5 -123.5q0 -82 32.5 -125t92.5 -43q54 0 97 28v64l-72 12v73h239v-73l-62 -12v-186zM228 659q0 29 22 49.5
t53 20.5t53 -20.5t22 -49.5t-22 -49.5t-53 -20.5t-53 20.5t-22 49.5z" />
    <glyph glyph-name="Gcommaaccent.sc" unicode="&#xe854;" horiz-adv-x="575" 
d="M495 0h-75l-11 38h-2q-53 -49 -123 -49q-117 0 -180 69.5t-63 203.5q0 129 75 201t200 72q93 0 160 -28v-145h-80l-14 59q-25 9 -67 9q-64 0 -105.5 -44.5t-41.5 -123.5q0 -82 32.5 -125t92.5 -43q54 0 97 28v64l-72 12v73h239v-73l-62 -12v-186zM353 -41q1 -4 1 -13
q0 -39 -26.5 -79t-71.5 -71l-49 19q18 24 29.5 58t11.5 60q0 11 -1 16z" />
    <glyph glyph-name="Hcircumflex.sc" unicode="&#xe85f;" horiz-adv-x="677" 
d="M643 0h-266v74l64 12v131h-205v-131l64 -12v-74h-266v74l79 12v353l-79 12v74h266v-75l-64 -11v-120h205v120l-64 11v75h266v-74l-79 -12v-353l79 -12v-74zM276 597h-96l117 129h83l117 -129h-96l-62 81h-2z" />
    <glyph glyph-name="Hbar.sc" unicode="&#xe86a;" horiz-adv-x="677" 
d="M54 347v50h59v42l-79 12v74h266v-75l-64 -11v-42h205v42l-64 11v75h266v-74l-79 -12v-42h59v-50h-59v-261l79 -12v-74h-266v74l64 12v115h-205v-115l64 -12v-74h-266v74l79 12v261h-59zM236 295h205v52h-205v-52z" />
    <glyph glyph-name="Igrave.sc" unicode="&#xe875;" horiz-adv-x="349" 
d="M34 0v74l79 12v353l-79 12v74h281v-74l-79 -12v-353l79 -12v-74h-281zM233 597h-90l-139 129h128z" />
    <glyph glyph-name="Iacute.sc" unicode="&#xe880;" horiz-adv-x="349" 
d="M34 0v74l79 12v353l-79 12v74h281v-74l-79 -12v-353l79 -12v-74h-281zM208 597h-90l101 129h128z" />
    <glyph glyph-name="Ibreve.sc" unicode="&#xe88b;" horiz-adv-x="349" 
d="M34 0v74l79 12v353l-79 12v74h281v-74l-79 -12v-353l79 -12v-74h-281zM31 722h67q2 -27 25 -46.5t52 -19.5q30 0 53 19.5t25 46.5h67q0 -52 -42.5 -88.5t-102.5 -36.5q-59 0 -101.5 36.5t-42.5 88.5z" />
    <glyph glyph-name="Icircumflex.sc" unicode="&#xe896;" horiz-adv-x="349" 
d="M34 0v74l79 12v353l-79 12v74h281v-74l-79 -12v-353l79 -12v-74h-281zM113 597h-96l117 129h83l117 -129h-96l-62 81h-2z" />
    <glyph glyph-name="Itilde.sc" unicode="&#xe8a1;" horiz-adv-x="349" 
d="M34 0v74l79 12v353l-79 12v74h281v-74l-79 -12v-353l79 -12v-74h-281zM341 656q-33 -29 -57.5 -42.5t-53.5 -13.5t-61 22t-51 22q-4 0 -7.5 -0.5t-7.5 -2t-7 -2.5t-7 -4t-7 -4.5t-8 -6t-8 -6.5t-9.5 -7t-9.5 -8l-37 60q32 28 55.5 41.5t52.5 13.5q30 0 62 -22t50 -22
q17 0 31 8.5t40 31.5z" />
    <glyph glyph-name="Idieresis.sc" unicode="&#xe8ac;" horiz-adv-x="349" 
d="M34 0v74l79 12v353l-79 12v74h281v-74l-79 -12v-353l79 -12v-74h-281zM2 659q0 27 20 45.5t48 18.5q29 0 49 -18.5t20 -45.5q0 -26 -20 -44.5t-49 -18.5q-28 0 -48 18.5t-20 44.5zM211 659q0 27 20 45.5t49 18.5t49 -18.5t20 -45.5q0 -26 -20 -44.5t-49 -18.5
q-28 0 -48.5 18.5t-20.5 44.5z" />
    <glyph glyph-name="Imacron.sc" unicode="&#xe8b7;" horiz-adv-x="349" 
d="M34 0v74l79 12v353l-79 12v74h281v-74l-79 -12v-353l79 -12v-74h-281zM27 625v69h297v-69h-297z" />
    <glyph glyph-name="Idotaccent.sc" unicode="&#xe8c2;" horiz-adv-x="349" 
d="M34 0v74l79 12v353l-79 12v74h281v-74l-79 -12v-353l79 -12v-74h-281zM100 659q0 29 22 49.5t53 20.5t53 -20.5t22 -49.5t-22 -49.5t-53 -20.5t-53 20.5t-22 49.5z" />
    <glyph glyph-name="Iogonek.sc" unicode="&#xe8cd;" horiz-adv-x="349" 
d="M34 0v74l79 12v353l-79 12v74h281v-74l-79 -12v-353l79 -12v-74h-97q-37 -25 -61 -56t-24 -55q0 -18 9 -30.5t24 -12.5q17 0 29 4l14 -59q-33 -11 -61 -11q-49 0 -80 23.5t-31 68.5q0 34 28 69.5t70 58.5h-101z" />
    <glyph glyph-name="Jcircumflex.sc" unicode="&#xe8d8;" horiz-adv-x="343" 
d="M237 439v-356q0 -88 -85 -156l-79 -63l-73 87l61 51q53 42 53 92v345l-79 12v74h281v-74zM117 597h-96l117 129h83l117 -129h-96l-62 81h-2z" />
    <glyph glyph-name="Kcommaaccent.sc" unicode="&#xe8e3;" horiz-adv-x="602" 
d="M597 0h-163l-89 151q-13 24 -28.5 53t-19.5 36h-2l-59 -71v-83l69 -12v-74h-271v74l79 12v353l-79 12v74h249v-77l-47 -8v-146h2q12 16 63 77q31 38 60 69l-44 8v77h243v-74l-77 -12l-109 -121l144 -232l79 -12v-74zM388 -41q1 -4 1 -13q0 -39 -26.5 -79t-71.5 -71
l-49 19q18 24 29.5 58t11.5 60q0 11 -1 16z" />
    <glyph glyph-name="Lacute.sc" unicode="&#xe8ee;" horiz-adv-x="475" 
d="M456 0h-422v74l79 12v353l-79 12v74h281v-74l-79 -12v-337h127l12 72h81v-174zM207 597h-90l101 129h128z" />
    <glyph glyph-name="Lcaron.sc" unicode="&#xe8f9;" horiz-adv-x="475" 
d="M456 0h-422v74l79 12v353l-79 12v74h281v-74l-79 -12v-337h127l12 72h81v-174zM370 538l80 11q1 -4 1 -14q0 -41 -22 -87.5t-57 -77.5l-44 8q43 77 43 145q0 10 -1 15z" />
    <glyph glyph-name="Lcommaaccent.sc" unicode="&#xe904;" horiz-adv-x="475" 
d="M456 0h-422v74l79 12v353l-79 12v74h281v-74l-79 -12v-337h127l12 72h81v-174zM312 -41q1 -4 1 -13q0 -39 -26.5 -79t-71.5 -71l-49 19q18 24 29.5 58t11.5 60q0 11 -1 16z" />
    <glyph glyph-name="Lslash.sc" unicode="&#xe90f;" horiz-adv-x="472" 
d="M57 167v78l53 28v166l-79 12v74h281v-74l-79 -12v-100l129 69v-78l-129 -69v-159h127l12 72h81v-174h-422v74l79 12v109z" />
    <glyph glyph-name="Ldot.sc" unicode="&#xe91a;" horiz-adv-x="475" 
d="M456 0h-422v74l79 12v353l-79 12v74h281v-74l-79 -12v-337h127l12 72h81v-174zM292 307q0 25 18.5 42t44.5 17t44 -17t18 -42q0 -24 -18 -41t-44 -17q-25 0 -44 17.5t-19 40.5z" />
    <glyph glyph-name="Nacute.sc" unicode="&#xe925;" horiz-adv-x="677" 
d="M571 0h-108l-142 205q-67 96 -88 131h-2q5 -52 5 -115v-135l68 -12v-74h-270v74l79 12v353l-79 12v74h187l130 -186q83 -118 100 -149h2q-5 43 -5 119v132l-68 12v72h270v-71l-79 -13v-441zM372 597h-90l101 129h128z" />
    <glyph glyph-name="Ncaron.sc" unicode="&#xe930;" horiz-adv-x="677" 
d="M571 0h-108l-142 205q-67 96 -88 131h-2q5 -52 5 -115v-135l68 -12v-74h-270v74l79 12v353l-79 12v74h187l130 -186q83 -118 100 -149h2q-5 43 -5 119v132l-68 12v72h270v-71l-79 -13v-441zM181 726h96l61 -82h2l62 82h96l-117 -129h-83z" />
    <glyph glyph-name="Ntilde.sc" unicode="&#xe93b;" horiz-adv-x="677" 
d="M571 0h-108l-142 205q-67 96 -88 131h-2q5 -52 5 -115v-135l68 -12v-74h-270v74l79 12v353l-79 12v74h187l130 -186q83 -118 100 -149h2q-5 43 -5 119v132l-68 12v72h270v-71l-79 -13v-441zM505 656q-33 -29 -57.5 -42.5t-53.5 -13.5t-61 22t-51 22q-4 0 -7.5 -0.5
t-7.5 -2t-7 -2.5t-7 -4t-7 -4.5t-8 -6t-8 -6.5t-9.5 -7t-9.5 -8l-37 60q32 28 55.5 41.5t52.5 13.5q30 0 62 -22t50 -22q17 0 31 8.5t40 31.5z" />
    <glyph glyph-name="Ncommaaccent.sc" unicode="&#xe946;" horiz-adv-x="677" 
d="M571 0h-108l-142 205q-67 96 -88 131h-2q5 -52 5 -115v-135l68 -12v-74h-270v74l79 12v353l-79 12v74h187l130 -186q83 -118 100 -149h2q-5 43 -5 119v132l-68 12v72h270v-71l-79 -13v-441zM397 -41q1 -4 1 -13q0 -39 -26.5 -79t-71.5 -71l-49 19q18 24 29.5 58t11.5 60
q0 11 -1 16z" />
    <glyph glyph-name="Ograve.sc" unicode="&#xe951;" horiz-adv-x="586" 
d="M544 262q0 -128 -68.5 -200.5t-182.5 -72.5t-183 72.5t-69 200.5q0 129 69.5 202t182.5 73t182 -73t69 -202zM418 262q0 80 -34 124.5t-91 44.5t-91 -44.5t-34 -124.5t34 -124t91 -44q58 0 91.5 44t33.5 124zM351 597h-90l-139 129h128z" />
    <glyph glyph-name="Oacute.sc" unicode="&#xe95c;" horiz-adv-x="586" 
d="M544 262q0 -128 -68.5 -200.5t-182.5 -72.5t-183 72.5t-69 200.5q0 129 69.5 202t182.5 73t182 -73t69 -202zM418 262q0 80 -34 124.5t-91 44.5t-91 -44.5t-34 -124.5t34 -124t91 -44q58 0 91.5 44t33.5 124zM326 597h-90l101 129h128z" />
    <glyph glyph-name="Ocircumflex.sc" unicode="&#xe967;" horiz-adv-x="586" 
d="M544 262q0 -128 -68.5 -200.5t-182.5 -72.5t-183 72.5t-69 200.5q0 129 69.5 202t182.5 73t182 -73t69 -202zM418 262q0 80 -34 124.5t-91 44.5t-91 -44.5t-34 -124.5t34 -124t91 -44q58 0 91.5 44t33.5 124zM231 597h-96l117 129h83l117 -129h-96l-62 81h-2z" />
    <glyph glyph-name="Otilde.sc" unicode="&#xe972;" horiz-adv-x="586" 
d="M544 262q0 -128 -68.5 -200.5t-182.5 -72.5t-183 72.5t-69 200.5q0 129 69.5 202t182.5 73t182 -73t69 -202zM418 262q0 80 -34 124.5t-91 44.5t-91 -44.5t-34 -124.5t34 -124t91 -44q58 0 91.5 44t33.5 124zM459 656q-33 -29 -57.5 -42.5t-53.5 -13.5t-61 22t-51 22
q-4 0 -7.5 -0.5t-7.5 -2t-7 -2.5t-7 -4t-7 -4.5t-8 -6t-8 -6.5t-9.5 -7t-9.5 -8l-37 60q32 28 55.5 41.5t52.5 13.5q30 0 62 -22t50 -22q17 0 31 8.5t40 31.5z" />
    <glyph glyph-name="Odieresis.sc" unicode="&#xe97d;" horiz-adv-x="586" 
d="M544 262q0 -128 -68.5 -200.5t-182.5 -72.5t-183 72.5t-69 200.5q0 129 69.5 202t182.5 73t182 -73t69 -202zM418 262q0 80 -34 124.5t-91 44.5t-91 -44.5t-34 -124.5t34 -124t91 -44q58 0 91.5 44t33.5 124zM120 659q0 27 20 45.5t48 18.5q29 0 49 -18.5t20 -45.5
q0 -26 -20 -44.5t-49 -18.5q-28 0 -48 18.5t-20 44.5zM329 659q0 27 20 45.5t49 18.5t49 -18.5t20 -45.5q0 -26 -20 -44.5t-49 -18.5q-28 0 -48.5 18.5t-20.5 44.5z" />
    <glyph glyph-name="Omacron.sc" unicode="&#xe988;" horiz-adv-x="586" 
d="M544 262q0 -128 -68.5 -200.5t-182.5 -72.5t-183 72.5t-69 200.5q0 129 69.5 202t182.5 73t182 -73t69 -202zM418 262q0 80 -34 124.5t-91 44.5t-91 -44.5t-34 -124.5t34 -124t91 -44q58 0 91.5 44t33.5 124zM145 625v69h297v-69h-297z" />
    <glyph glyph-name="Obreve.sc" unicode="&#xe993;" horiz-adv-x="586" 
d="M544 262q0 -128 -68.5 -200.5t-182.5 -72.5t-183 72.5t-69 200.5q0 129 69.5 202t182.5 73t182 -73t69 -202zM418 262q0 80 -34 124.5t-91 44.5t-91 -44.5t-34 -124.5t34 -124t91 -44q58 0 91.5 44t33.5 124zM149 722h67q2 -27 25 -46.5t52 -19.5q30 0 53 19.5t25 46.5
h67q0 -52 -42.5 -88.5t-102.5 -36.5q-59 0 -101.5 36.5t-42.5 88.5z" />
    <glyph glyph-name="Ohungarumlaut.sc" unicode="&#xe99e;" horiz-adv-x="586" 
d="M544 262q0 -128 -68.5 -200.5t-182.5 -72.5t-183 72.5t-69 200.5q0 129 69.5 202t182.5 73t182 -73t69 -202zM418 262q0 80 -34 124.5t-91 44.5t-91 -44.5t-34 -124.5t34 -124t91 -44q58 0 91.5 44t33.5 124zM240 597h-79l110 138h118zM418 597h-80l110 138h119z" />
    <glyph glyph-name="Oslash.sc" unicode="&#xe9a9;" horiz-adv-x="592" 
d="M41 262q0 129 70.5 202t184.5 73q79 0 137 -40l45 60l45 -29l-48 -64q75 -75 75 -202q0 -128 -70 -200.5t-184 -72.5q-82 0 -140 41l-44 -60l-45 29l47 64q-73 75 -73 199zM429 262q0 58 -22 102h-2l-188 -243q33 -31 79 -31q59 0 96 45.5t37 126.5zM163 262
q0 -59 19 -98h2l188 243q-32 29 -76 29q-59 0 -96 -46t-37 -128z" />
    <glyph glyph-name="Oslashacute.sc" unicode="&#xe9b4;" horiz-adv-x="592" 
d="M41 262q0 129 70.5 202t184.5 73q79 0 137 -40l45 60l45 -29l-48 -64q75 -75 75 -202q0 -128 -70 -200.5t-184 -72.5q-82 0 -140 41l-44 -60l-45 29l47 64q-73 75 -73 199zM429 262q0 58 -22 102h-2l-188 -243q33 -31 79 -31q59 0 96 45.5t37 126.5zM163 262
q0 -59 19 -98h2l188 243q-32 29 -76 29q-59 0 -96 -46t-37 -128zM329 597h-90l101 129h128z" />
    <glyph glyph-name="OE.sc" unicode="&#xe9bf;" horiz-adv-x="786" 
d="M41 263q0 129 69 201.5t182 72.5q46 0 80 -12h354v-139h-82l-11 48h-138v-122h121l8 37h71v-155h-71l-8 38h-121v-141h152l11 55h84v-146h-370q-44 -11 -80 -11q-114 0 -182.5 73t-68.5 201zM168 263q0 -79 35 -124.5t89 -45.5q49 0 80 10v317q-29 13 -80 13
q-54 0 -89 -45.5t-35 -124.5z" />
    <glyph glyph-name="Racute.sc" unicode="&#xe9ca;" horiz-adv-x="594" 
d="M585 0h-160l-100 201h-89v-115l67 -12v-74h-269v74l79 12v353l-79 12v74h286q202 0 202 -160q0 -103 -89 -140v-2q13 -20 44 -74l34 -63l74 -12v-74zM401 365q0 31 -20 49.5t-55 18.5h-90v-141h90q39 0 57 21.5t18 51.5zM325 597h-90l101 129h128z" />
    <glyph glyph-name="Rcaron.sc" unicode="&#xe9d5;" horiz-adv-x="594" 
d="M585 0h-160l-100 201h-89v-115l67 -12v-74h-269v74l79 12v353l-79 12v74h286q202 0 202 -160q0 -103 -89 -140v-2q13 -20 44 -74l34 -63l74 -12v-74zM401 365q0 31 -20 49.5t-55 18.5h-90v-141h90q39 0 57 21.5t18 51.5zM134 726h96l61 -82h2l62 82h96l-117 -129h-83z
" />
    <glyph glyph-name="Rcommaaccent.sc" unicode="&#xe9e0;" horiz-adv-x="594" 
d="M585 0h-160l-100 201h-89v-115l67 -12v-74h-269v74l79 12v353l-79 12v74h286q202 0 202 -160q0 -103 -89 -140v-2q13 -20 44 -74l34 -63l74 -12v-74zM401 365q0 31 -20 49.5t-55 18.5h-90v-141h90q39 0 57 21.5t18 51.5zM386 -41q1 -4 1 -13q0 -39 -26.5 -79t-71.5 -71
l-49 19q18 24 29.5 58t11.5 60q0 11 -1 16z" />
    <glyph glyph-name="Sacute.sc" unicode="&#xe9eb;" horiz-adv-x="476" 
d="M435 164q0 -77 -53 -125.5t-160 -48.5q-84 0 -182 31v145h84l11 -64q33 -12 84 -12q40 0 65 15.5t25 48.5q0 13 -6 23.5t-14 17.5t-23.5 14.5t-27.5 11.5t-32.5 11.5t-32.5 11.5q-116 46 -116 138q0 71 53.5 112t148.5 41q62 0 140 -21v-137h-81l-13 56q-20 7 -46 7
q-37 0 -58 -15.5t-21 -42.5q0 -13 7.5 -23.5t22.5 -17.5t30 -12.5t39.5 -13t40.5 -13.5q115 -43 115 -138zM281 597h-90l101 129h128z" />
    <glyph glyph-name="Scircumflex.sc" unicode="&#xe9f6;" horiz-adv-x="476" 
d="M435 164q0 -77 -53 -125.5t-160 -48.5q-84 0 -182 31v145h84l11 -64q33 -12 84 -12q40 0 65 15.5t25 48.5q0 13 -6 23.5t-14 17.5t-23.5 14.5t-27.5 11.5t-32.5 11.5t-32.5 11.5q-116 46 -116 138q0 71 53.5 112t148.5 41q62 0 140 -21v-137h-81l-13 56q-20 7 -46 7
q-37 0 -58 -15.5t-21 -42.5q0 -13 7.5 -23.5t22.5 -17.5t30 -12.5t39.5 -13t40.5 -13.5q115 -43 115 -138zM186 597h-96l117 129h83l117 -129h-96l-62 81h-2z" />
    <glyph glyph-name="Scaron.sc" unicode="&#xea01;" horiz-adv-x="476" 
d="M435 164q0 -77 -53 -125.5t-160 -48.5q-84 0 -182 31v145h84l11 -64q33 -12 84 -12q40 0 65 15.5t25 48.5q0 13 -6 23.5t-14 17.5t-23.5 14.5t-27.5 11.5t-32.5 11.5t-32.5 11.5q-116 46 -116 138q0 71 53.5 112t148.5 41q62 0 140 -21v-137h-81l-13 56q-20 7 -46 7
q-37 0 -58 -15.5t-21 -42.5q0 -13 7.5 -23.5t22.5 -17.5t30 -12.5t39.5 -13t40.5 -13.5q115 -43 115 -138zM90 726h96l61 -82h2l62 82h96l-117 -129h-83z" />
    <glyph glyph-name="Scedilla.sc" unicode="&#xea0c;" horiz-adv-x="476" 
d="M332 -125q0 -43 -31 -69t-77 -26q-53 0 -93 20l22 50q38 -15 63 -15q22 0 35.5 9.5t13.5 26.5q0 26 -23.5 34t-77.5 11l26 75q-77 6 -150 30v145h84l11 -64q33 -12 84 -12q40 0 65 15.5t25 48.5q0 13 -6 23.5t-14 17.5t-23.5 14.5t-27.5 11.5t-32.5 11.5t-32.5 11.5
q-116 46 -116 138q0 71 53.5 112t148.5 41q62 0 140 -21v-137h-81l-13 56q-20 7 -46 7q-37 0 -58 -15.5t-21 -42.5q0 -13 7.5 -23.5t22.5 -17.5t30 -12.5t39.5 -13t40.5 -13.5q115 -43 115 -138q0 -71 -46.5 -119t-139.5 -54l-11 -29v-2q41 -3 67.5 -26.5t26.5 -58.5z" />
    <glyph glyph-name="Scommaaccent.sc" unicode="&#xea17;" horiz-adv-x="476" 
d="M435 164q0 -77 -53 -125.5t-160 -48.5q-84 0 -182 31v145h84l11 -64q33 -12 84 -12q40 0 65 15.5t25 48.5q0 13 -6 23.5t-14 17.5t-23.5 14.5t-27.5 11.5t-32.5 11.5t-32.5 11.5q-116 46 -116 138q0 71 53.5 112t148.5 41q62 0 140 -21v-137h-81l-13 56q-20 7 -46 7
q-37 0 -58 -15.5t-21 -42.5q0 -13 7.5 -23.5t22.5 -17.5t30 -12.5t39.5 -13t40.5 -13.5q115 -43 115 -138zM296 -41q1 -4 1 -13q0 -39 -26.5 -79t-71.5 -71l-49 19q18 24 29.5 58t11.5 60q0 11 -1 16z" />
    <glyph glyph-name="Tcaron.sc" unicode="&#xea22;" horiz-adv-x="531" 
d="M415 423h-88v-337l79 -12v-74h-280v74l78 12v337h-88l-14 -66h-80v168h487v-168h-80zM108 726h96l61 -82h2l62 82h96l-117 -129h-83z" />
    <glyph glyph-name="Tcommaaccent.sc" unicode="&#xea2d;" horiz-adv-x="531" 
d="M415 423h-88v-337l79 -12v-74h-280v74l78 12v337h-88l-14 -66h-80v168h487v-168h-80zM327 -41q1 -4 1 -13q0 -39 -26.5 -79t-71.5 -71l-49 19q18 24 29.5 58t11.5 60q0 11 -1 16z" />
    <glyph glyph-name="Tbar.sc" unicode="&#xea38;" horiz-adv-x="531" 
d="M415 423h-88v-121h98v-64h-98v-152l79 -12v-74h-280v74l78 12v152h-97v64h97v121h-88l-14 -66h-80v168h487v-168h-80z" />
    <glyph glyph-name="Thorn.sc" unicode="&#xea43;" horiz-adv-x="516" 
d="M497 271q0 -75 -46.5 -108t-116.5 -33q-62 0 -98 4v-48l79 -12v-74h-281v74l79 12v353l-79 12v74h281v-74l-79 -12v-36q54 4 92 4q75 0 122 -33.5t47 -102.5zM385 273q0 26 -21 41.5t-60 15.5h-68v-121h75q37 0 55.5 17.5t18.5 46.5z" />
    <glyph glyph-name="Ugrave.sc" unicode="&#xea4e;" horiz-adv-x="646" 
d="M546 181q0 -94 -58 -143t-165 -49q-106 0 -164 49t-58 143v258l-79 12v74h261v-74l-59 -12v-246q0 -44 25 -71.5t74 -27.5q51 0 75.5 27t24.5 72v246l-61 12v74h262v-74l-78 -12v-258zM381 597h-90l-139 129h128z" />
    <glyph glyph-name="Uacute.sc" unicode="&#xea59;" horiz-adv-x="646" 
d="M546 181q0 -94 -58 -143t-165 -49q-106 0 -164 49t-58 143v258l-79 12v74h261v-74l-59 -12v-246q0 -44 25 -71.5t74 -27.5q51 0 75.5 27t24.5 72v246l-61 12v74h262v-74l-78 -12v-258zM356 597h-90l101 129h128z" />
    <glyph glyph-name="Ucircumflex.sc" unicode="&#xea64;" horiz-adv-x="646" 
d="M546 181q0 -94 -58 -143t-165 -49q-106 0 -164 49t-58 143v258l-79 12v74h261v-74l-59 -12v-246q0 -44 25 -71.5t74 -27.5q51 0 75.5 27t24.5 72v246l-61 12v74h262v-74l-78 -12v-258zM261 597h-96l117 129h83l117 -129h-96l-62 81h-2z" />
    <glyph glyph-name="Utilde.sc" unicode="&#xea6f;" horiz-adv-x="646" 
d="M546 181q0 -94 -58 -143t-165 -49q-106 0 -164 49t-58 143v258l-79 12v74h261v-74l-59 -12v-246q0 -44 25 -71.5t74 -27.5q51 0 75.5 27t24.5 72v246l-61 12v74h262v-74l-78 -12v-258zM489 656q-33 -29 -57.5 -42.5t-53.5 -13.5t-61 22t-51 22q-4 0 -7.5 -0.5t-7.5 -2
t-7 -2.5t-7 -4t-7 -4.5t-8 -6t-8 -6.5t-9.5 -7t-9.5 -8l-37 60q32 28 55.5 41.5t52.5 13.5q30 0 62 -22t50 -22q17 0 31 8.5t40 31.5z" />
    <glyph glyph-name="Udieresis.sc" unicode="&#xea7a;" horiz-adv-x="646" 
d="M546 181q0 -94 -58 -143t-165 -49q-106 0 -164 49t-58 143v258l-79 12v74h261v-74l-59 -12v-246q0 -44 25 -71.5t74 -27.5q51 0 75.5 27t24.5 72v246l-61 12v74h262v-74l-78 -12v-258zM150 659q0 27 20 45.5t48 18.5q29 0 49 -18.5t20 -45.5q0 -26 -20 -44.5t-49 -18.5
q-28 0 -48 18.5t-20 44.5zM359 659q0 27 20 45.5t49 18.5t49 -18.5t20 -45.5q0 -26 -20 -44.5t-49 -18.5q-28 0 -48.5 18.5t-20.5 44.5z" />
    <glyph glyph-name="Umacron.sc" unicode="&#xea85;" horiz-adv-x="646" 
d="M546 181q0 -94 -58 -143t-165 -49q-106 0 -164 49t-58 143v258l-79 12v74h261v-74l-59 -12v-246q0 -44 25 -71.5t74 -27.5q51 0 75.5 27t24.5 72v246l-61 12v74h262v-74l-78 -12v-258zM175 625v69h297v-69h-297z" />
    <glyph glyph-name="Ubreve.sc" unicode="&#xea90;" horiz-adv-x="646" 
d="M546 181q0 -94 -58 -143t-165 -49q-106 0 -164 49t-58 143v258l-79 12v74h261v-74l-59 -12v-246q0 -44 25 -71.5t74 -27.5q51 0 75.5 27t24.5 72v246l-61 12v74h262v-74l-78 -12v-258zM179 722h67q2 -27 25 -46.5t52 -19.5q30 0 53 19.5t25 46.5h67q0 -52 -42.5 -88.5
t-102.5 -36.5q-59 0 -101.5 36.5t-42.5 88.5z" />
    <glyph glyph-name="Uring.sc" unicode="&#xea9b;" horiz-adv-x="646" 
d="M546 181q0 -94 -58 -143t-165 -49q-106 0 -164 49t-58 143v258l-79 12v74h261v-74l-59 -12v-246q0 -44 25 -71.5t74 -27.5q51 0 75.5 27t24.5 72v246l-61 12v74h262v-74l-78 -12v-258zM215 671q0 46 31.5 78.5t76.5 32.5t76.5 -32.5t31.5 -78.5t-31.5 -78.5t-76.5 -32.5
t-76.5 32.5t-31.5 78.5zM274 671q0 -25 14 -41.5t35 -16.5q20 0 34.5 16.5t14.5 41.5q0 24 -14.5 41t-34.5 17q-21 0 -35 -17t-14 -41z" />
    <glyph glyph-name="Uhungarumlaut.sc" unicode="&#xeaa6;" horiz-adv-x="646" 
d="M546 181q0 -94 -58 -143t-165 -49q-106 0 -164 49t-58 143v258l-79 12v74h261v-74l-59 -12v-246q0 -44 25 -71.5t74 -27.5q51 0 75.5 27t24.5 72v246l-61 12v74h262v-74l-78 -12v-258zM270 597h-79l110 138h118zM448 597h-80l110 138h119z" />
    <glyph glyph-name="Uogonek.sc" unicode="&#xeab1;" horiz-adv-x="646" 
d="M225 -128q0 30 22.5 62t58.5 56q-99 4 -152 52.5t-53 138.5v258l-79 12v74h261v-74l-59 -12v-246q0 -44 25 -71.5t74 -27.5q51 0 75.5 27t24.5 72v246l-61 12v74h262v-74l-78 -12v-258q0 -150 -143 -183q-36 -25 -59 -55t-23 -54q0 -18 9 -30.5t24 -12.5q17 0 29 4
l14 -59q-33 -11 -61 -11q-49 0 -80 23.5t-31 68.5z" />
    <glyph glyph-name="Wacute.sc" unicode="&#xeabc;" horiz-adv-x="814" 
d="M734 439l-135 -439h-115l-43 160q-18 67 -32 131h-2q-11 -55 -31 -129l-44 -162h-118l-133 439l-72 12v74h259v-74l-64 -12l40 -140q9 -33 22 -87t16 -63h2q14 82 41 190l46 186h76l48 -189q32 -141 40 -187h2q19 89 36 148l42 142l-64 12v74h254v-74zM441 597h-90
l101 129h128z" />
    <glyph glyph-name="Wcircumflex.sc" unicode="&#xeac7;" horiz-adv-x="814" 
d="M734 439l-135 -439h-115l-43 160q-18 67 -32 131h-2q-11 -55 -31 -129l-44 -162h-118l-133 439l-72 12v74h259v-74l-64 -12l40 -140q9 -33 22 -87t16 -63h2q14 82 41 190l46 186h76l48 -189q32 -141 40 -187h2q19 89 36 148l42 142l-64 12v74h254v-74zM346 597h-96
l117 129h83l117 -129h-96l-62 81h-2z" />
    <glyph glyph-name="Wdieresis.sc" unicode="&#xead2;" horiz-adv-x="814" 
d="M734 439l-135 -439h-115l-43 160q-18 67 -32 131h-2q-11 -55 -31 -129l-44 -162h-118l-133 439l-72 12v74h259v-74l-64 -12l40 -140q9 -33 22 -87t16 -63h2q14 82 41 190l46 186h76l48 -189q32 -141 40 -187h2q19 89 36 148l42 142l-64 12v74h254v-74zM235 659
q0 27 20 45.5t48 18.5q29 0 49 -18.5t20 -45.5q0 -26 -20 -44.5t-49 -18.5q-28 0 -48 18.5t-20 44.5zM444 659q0 27 20 45.5t49 18.5t49 -18.5t20 -45.5q0 -26 -20 -44.5t-49 -18.5q-28 0 -48.5 18.5t-20.5 44.5z" />
    <glyph glyph-name="Wgrave.sc" unicode="&#xeadd;" horiz-adv-x="814" 
d="M734 439l-135 -439h-115l-43 160q-18 67 -32 131h-2q-11 -55 -31 -129l-44 -162h-118l-133 439l-72 12v74h259v-74l-64 -12l40 -140q9 -33 22 -87t16 -63h2q14 82 41 190l46 186h76l48 -189q32 -141 40 -187h2q19 89 36 148l42 142l-64 12v74h254v-74zM466 597h-90
l-139 129h128z" />
    <glyph glyph-name="Yacute.sc" unicode="&#xeae8;" horiz-adv-x="569" 
d="M489 439l-142 -258v-95l79 -12v-74h-280v74l78 12v95l-143 258l-72 12v74h247v-74l-54 -12l14 -27q28 -51 68 -138h2q28 66 68 140l13 25l-54 12v74h247v-74zM317 597h-90l101 129h128z" />
    <glyph glyph-name="Ycircumflex.sc" unicode="&#xeaf3;" horiz-adv-x="569" 
d="M489 439l-142 -258v-95l79 -12v-74h-280v74l78 12v95l-143 258l-72 12v74h247v-74l-54 -12l14 -27q28 -51 68 -138h2q28 66 68 140l13 25l-54 12v74h247v-74zM222 597h-96l117 129h83l117 -129h-96l-62 81h-2z" />
    </font>
</defs>
</svg>
