<?xml version="1.0" standalone="no"?>
<!DOCTYPE svg PUBLIC "-//W3C//DTD SVG 1.1//EN" "http://www.w3.org/Graphics/SVG/1.1/DTD/svg11.dtd" >
<svg>
<metadata>
Created by FontForge 20120731 at Tue Dec 15 21:06:50 2015
 By ,,,
Copyright (c) Olivier Gourvat - Mostardesign Studio, 2004-2011. All rights reserved.
</metadata>
<defs>
<font id="IntervalSansPro-UltraLightItalic" horiz-adv-x="324" >
  <font-face 
    font-family="Interval Sans Pro UltraLight"
    font-weight="250"
    font-style="italic"
    font-stretch="normal"
    units-per-em="1000"
    panose-1="2 11 5 3 0 0 0 2 0 4"
    ascent="750"
    descent="-250"
    x-height="484"
    cap-height="674"
    bbox="-93 -225 1178 1041"
    underline-thickness="50"
    underline-position="-50"
    slope="-12"
    unicode-range="U+0020-FB06"
  />
<missing-glyph horiz-adv-x="500" 
 />
    <glyph glyph-name="ff" unicode="ff" horiz-adv-x="466" 
d="M79 484h79l9 62q6 41 20.5 69.5t28.5 42t35.5 20.5t30.5 7.5t23 0.5h4q19 0 40 -7l-7 -21q-20 6 -37 6q-55 0 -80 -33t-30 -74l-10 -73h206l9 62q6 41 20.5 69.5t28.5 42t35.5 20.5t30.5 7.5t23 0.5h4q19 0 40 -7l-7 -21q-19 6 -37 6q-55 0 -80 -33t-30 -74l-10 -73h108
l-3 -23h-108l-95 -675h-28l96 675h-206l-95 -675h-28l96 675h-79z" />
    <glyph glyph-name="fi" unicode="fi" horiz-adv-x="400" 
d="M303 0l65 461h-186l-95 -675h-27l95 675h-79l3 23h79l9 62q6 41 20.5 69.5t28.5 42t35.5 20.5t30.5 7.5t23 0.5h4q19 0 40 -7l-7 -21q-20 6 -37 6q-55 0 -80 -33t-30 -74l-10 -73h213l-68 -484h-27z" />
    <glyph glyph-name="fl" unicode="fl" horiz-adv-x="400" 
d="M303 0l92 650h-94q-53 0 -77.5 -32.5t-29.5 -72.5l-9 -61h108l-3 -23h-108l-95 -675h-27l95 675h-79l3 23h79l7 50q6 39 21.5 68t31.5 42t37 20.5t31 8.5t21 1h118l-95 -674h-27z" />
    <glyph glyph-name="f_f_i" unicode="ffi" horiz-adv-x="633" 
d="M536 0l65 461h-186l-96 -675h-28l97 675h-206l-96 -675h-28l97 675h-79l3 23h79l9 62q6 41 20.5 69.5t28.5 42t35.5 20.5t30.5 7.5t23 0.5h4q19 0 40 -7l-7 -21q-20 6 -37 6q-55 0 -80 -33t-30 -74l-10 -73h206l9 62q6 41 20.5 69.5t28.5 42t35.5 20.5t30.5 7.5t23 0.5h4
q19 0 40 -7l-7 -21q-19 6 -37 6q-55 0 -80 -33t-30 -74l-10 -73h213l-68 -484h-27z" />
    <glyph glyph-name="f_f_l" unicode="ffl" horiz-adv-x="633" 
d="M536 0l92 651h-92q-29 0 -51 -12.5t-33.5 -32t-17 -34.5t-7.5 -27l-9 -61h108l-3 -23h-108l-95 -675h-28l96 675h-206l-95 -675h-28l96 675h-79l3 23h79l9 62q6 41 20.5 69.5t28.5 42t35.5 20.5t30.5 7.5t23 0.5h4q19 0 40 -7l-7 -21q-20 6 -37 6q-55 0 -80 -33t-30 -74
l-10 -73h206l7 50q6 39 21.5 68t31.5 42t37 20.5t31 8.5t21 1h118l-95 -674h-27z" />
    <glyph glyph-name="f_f_j" unicode="ffj" horiz-adv-x="641" 
d="M649 484l-81 -568q-5 -41 -19.5 -69.5t-28.5 -42t-35 -21t-31 -8t-25 -0.5q-22 0 -43 7l8 22q26 -7 43 -7q27 0 48 12.5t32.5 33t17.5 39.5t8 38l76 541h-204l-96 -675h-28l97 675h-206l-96 -675h-28l97 675h-79l3 23h79l9 62q6 41 20.5 69.5t28.5 42t35.5 20.5t30.5 7.5
t23 0.5h4q19 0 40 -7l-7 -21q-20 6 -37 6q-55 0 -80 -33t-30 -74l-10 -73h206l9 62q6 41 20.5 69.5t28.5 42t35.5 20.5t30.5 7.5t23 0.5h4q19 0 40 -7l-7 -21q-19 6 -37 6q-55 0 -80 -33t-30 -74l-10 -73h231z" />
    <glyph glyph-name="f_j" unicode="fj" horiz-adv-x="408" 
d="M416 484l-81 -568q-5 -41 -19.5 -69.5t-28.5 -42t-35 -21t-31 -8t-25 -0.5q-22 0 -43 7l8 22q26 -7 43 -7q27 0 48 12.5t32.5 33t17.5 39.5t8 38l76 541h-204l-93 -675h-28l94 675h-79l3 23h79l9 62q6 41 20.5 69.5t28.5 42t35.5 20.5t30.5 7.5t23 0.5h4q19 0 40 -7
l-7 -21q-20 6 -37 6q-55 0 -80 -33t-30 -74l-10 -73h231z" />
    <glyph glyph-name="f_b" unicode="fb" horiz-adv-x="767" 
d="M415 674l-36 -259q78 85 190 85q98 0 149.5 -58.5t51.5 -155.5q0 -130 -72.5 -215t-191.5 -85q-19 0 -38.5 2.5t-50.5 10t-55 28t-32 51.5l-11 -78h-26l92 650h-82q-54 0 -79 -32t-30 -73l-9 -61h108l-3 -23h-108l-96 -675h-27l96 675h-79l3 23h79l7 50q6 39 21.5 68
t31.5 42t37 20.5t31 8.5t21 1h108zM565 476q-64 0 -126.5 -36t-71.5 -106l-23 -166q-7 -48 7.5 -81.5t43 -49t55.5 -22t56 -6.5q54 0 96.5 19t68 48.5t42.5 67t23 71.5t6 66q0 33 -7.5 63.5t-25.5 62t-55 50.5t-89 19z" />
    <glyph glyph-name="f_f_b" unicode="ffb" horiz-adv-x="1000" 
d="M648 674l-36 -259q78 85 190 85q98 0 149.5 -58.5t51.5 -155.5q0 -130 -72.5 -215t-191.5 -85q-19 0 -38.5 2.5t-50.5 10t-55 28t-32 51.5l-11 -78h-26l92 650h-82q-54 0 -79 -32t-30 -73l-9 -61h108l-3 -23h-108l-96 -675h-27l96 675h-206l-96 -675h-27l96 675h-79l3 23
h79l9 62q6 41 20.5 69.5t28.5 42t35.5 20.5t30.5 7.5t23 0.5h4q19 0 40 -7l-7 -21q-20 6 -37 6q-55 0 -80 -33t-30 -74l-10 -73h206l7 50q6 39 21.5 68t31.5 42t37 20.5t31 8.5t21 1h108zM798 476q-64 0 -126.5 -36t-71.5 -106l-23 -166q-7 -48 7.5 -81.5t43 -49t55.5 -22
t56 -6.5q54 0 96.5 19t68 48.5t42.5 67t23 71.5t6 66q0 33 -7.5 63.5t-25.5 62t-55 50.5t-89 19z" />
    <glyph glyph-name="f_h" unicode="fh" horiz-adv-x="755" 
d="M309 650h-6q-54 0 -79 -32t-30 -73l-9 -61h108l-3 -23h-108l-95 -675h-27l95 675h-79l3 23h79l7 50q6 39 21.5 68t31.5 42t37 20.5t31 8.5t21 1h108l-38 -273q66 99 192 99q91 0 136.5 -51t30.5 -158l-41 -291h-27l41 291q12 84 -24 134.5t-119 50.5q-19 0 -39 -3
t-48 -14t-50 -29.5t-41 -53t-26 -79.5l-42 -297h-27l92 650h-76z" />
    <glyph glyph-name="f_f_h" unicode="ffh" horiz-adv-x="988" 
d="M618 650h-82q-54 0 -79 -32t-30 -73l-9 -61h108l-3 -23h-108l-93 -675h-27l93 675h-206l-93 -675h-27l93 675h-79l3 23h79l9 62q6 41 20.5 69.5t28.5 42t35.5 20.5t30.5 7.5t23 0.5h4q19 0 40 -7l-7 -21q-20 6 -37 6q-55 0 -80 -33t-30 -74l-10 -73h206l7 50
q6 39 21.5 68t31.5 42t37 20.5t31 8.5t21 1h108l-38 -273q66 99 192 99q91 0 136.5 -51t30.5 -158l-41 -291h-27l41 291q12 84 -24 134.5t-119 50.5q-19 0 -39 -3t-48 -14t-50 -29.5t-41 -53t-26 -79.5l-42 -297h-27z" />
    <glyph glyph-name="f_k" unicode="fk" horiz-adv-x="667" 
d="M309 650h-6q-54 0 -79 -32t-30 -73l-9 -61h108l-3 -23h-108l-95 -675h-27l95 675h-79l3 23h79l7 50q6 39 21.5 68t31.5 42t37 20.5t31 8.5t21 1h108l-62 -442l296 252h35l-197 -169l176 -315h-31l-167 297l-117 -99l-28 -198h-27l92 650h-76z" />
    <glyph glyph-name="f_f_k" unicode="ffk" horiz-adv-x="900" 
d="M618 650h-82q-54 0 -79 -32t-30 -73l-9 -61h108l-3 -23h-108l-95 -675h-27l95 675h-206l-95 -675h-27l95 675h-79l3 23h79l9 62q6 41 20.5 69.5t28.5 42t35.5 20.5t30.5 7.5t23 0.5h4q19 0 40 -7l-7 -21q-20 6 -37 6q-55 0 -80 -33t-30 -74l-10 -73h206l7 50
q6 39 21.5 68t31.5 42t37 20.5t31 8.5t21 1h108l-62 -442l296 252h35l-197 -169l176 -315h-31l-167 297l-117 -99l-28 -198h-27z" />
    <glyph glyph-name="f_t" unicode="ft" horiz-adv-x="505" 
d="M384 461h-202l-95 -675h-27l95 675h-79l3 23h79l9 62q6 41 20.5 69.5t28.5 42t35.5 20.5t30.5 7.5t23 0.5h4q19 0 40 -7l-7 -21q-20 6 -37 6q-55 0 -80 -33t-30 -74l-10 -73h202l20 138h26l-20 -138h127l-3 -23h-127l-46 -329q-2 -27 -4 -54.5t17.5 -48.5t59.5 -21
q20 0 44 11q0 -2 2 -12t2 -11q-28 -10 -53 -10h-12.5t-13.5 1t-15 2.5t-14 5t-14 8.5t-11.5 12.5t-9.5 18.5t-6 24t-2.5 31t3.5 39z" />
    <glyph glyph-name="f_f_t" unicode="fft" horiz-adv-x="738" 
d="M617 461h-202l-95 -675h-27l95 675h-206l-95 -675h-27l95 675h-79l3 23h79l9 62q6 41 20.5 69.5t28.5 42t35.5 20.5t30.5 7.5t23 0.5h4q19 0 40 -7l-7 -21q-20 6 -37 6q-55 0 -80 -33t-30 -74l-10 -73h206l9 62q6 41 20.5 69.5t28.5 42t35.5 20.5t30.5 7.5t23 0.5h4
q19 0 40 -7l-7 -21q-19 6 -37 6q-55 0 -80 -33t-30 -74l-10 -73h202l20 138h26l-20 -138h127l-3 -23h-127l-46 -329q-2 -27 -4 -54.5t17.5 -48.5t59.5 -21q20 0 44 11q0 -2 2 -12t2 -11q-28 -10 -53 -10h-12.5t-13.5 1t-15 2.5t-14 5t-14 8.5t-11.5 12.5t-9.5 18.5t-6 24
t-2.5 31t3.5 39z" />
    <glyph glyph-name="t_h" unicode="th" horiz-adv-x="794" 
d="M180 484h220l27 190h27l-38 -273q66 99 192 99q91 0 136.5 -51t30.5 -158l-41 -291h-27l41 291q12 84 -24 134.5t-119 50.5q-19 0 -39 -3t-48 -14t-50 -29.5t-41 -53t-26 -79.5l-42 -297h-27l65 461h-220l-46 -329q-2 -27 -4 -54.5t17.5 -48.5t59.5 -21q20 0 44 11
q0 -2 2 -12t2 -11q-28 -10 -53 -10h-12.5t-13.5 1t-15 2.5t-14 5t-14 8.5t-11.5 12.5t-9.5 18.5t-6 24t-2.5 31t3.5 39l47 333h-83l3 23h83l20 138h26z" />
    <glyph glyph-name=".notdef" horiz-adv-x="500" 
 />
    <glyph glyph-name=".null" horiz-adv-x="0" 
 />
    <glyph glyph-name="nonmarkingreturn" horiz-adv-x="333" 
 />
    <glyph glyph-name="space" unicode=" " horiz-adv-x="278" 
 />
    <glyph glyph-name="space" unicode="&#xa0;" horiz-adv-x="278" 
 />
    <glyph glyph-name="exclam" unicode="!" horiz-adv-x="167" 
d="M92 152l74 522h26l-75 -522h-25zM70 0l10 74h27l-10 -74h-27z" />
    <glyph glyph-name="quotedbl" unicode="&#x22;" horiz-adv-x="224" 
d="M108 402l36 272h26l-39 -272h-23zM206 402l36 272h26l-38 -272h-24z" />
    <glyph glyph-name="numbersign" unicode="#" horiz-adv-x="571" 
d="M377 674h26l-102 -214h174l100 214h27l-100 -214h109l-3 -21h-115l-96 -197h117l-3 -21h-124l-106 -221h-27l106 221h-171l-110 -221h-26l108 221h-105l3 21h112l95 197h-120l3 21h126zM293 439l-95 -197h172l97 197h-174z" />
    <glyph glyph-name="dollar" unicode="$" horiz-adv-x="533" 
d="M240 -98l12 85q-125 6 -213 79l17 22q102 -77 222 -77q64 0 129.5 35t82.5 93q38 99 -68 148q-5 2 -210 87q-58 26 -85 64t-8 105q18 63 81.5 102t149.5 41l12 83h25l-12 -84q106 -5 175 -58l-15 -22q-31 19 -50.5 29t-55 18.5t-77.5 8.5q-69 0 -125.5 -29t-81.5 -89
q-6 -20 -6 -37.5t3.5 -31t13.5 -25.5t20 -21t26 -17.5t28.5 -14.5t30.5 -13l173 -72q60 -24 79.5 -62t12.5 -76q-14 -85 -85 -136t-163 -51h-1l-12 -84h-25z" />
    <glyph glyph-name="percent" unicode="%" horiz-adv-x="801" 
d="M98 474q0 96 54.5 154.5t137.5 58.5q64 0 103 -41t39 -112q0 -97 -56 -156t-138 -59q-64 0 -102 41.5t-38 113.5zM401 531q0 59 -29.5 95t-85.5 36q-73 0 -116.5 -53.5t-43.5 -131.5q0 -60 30 -96t85 -36q73 0 116.5 53t43.5 133zM465 144q0 96 54 154.5t137 58.5
q64 0 103 -41t39 -112q0 -97 -56 -156t-138 -59q-64 0 -101.5 41.5t-37.5 113.5zM768 201q0 59 -29.5 95t-85.5 36q-73 0 -116.5 -53.5t-43.5 -131.5q0 -60 29.5 -96t85.5 -36q73 0 116.5 53t43.5 133zM182 0l496 674h25l-496 -674h-25z" />
    <glyph glyph-name="ampersand" unicode="&#x26;" horiz-adv-x="587" 
d="M90 154q0 -70 49 -108t129 -38q69 0 125 42.5t90 98.5l-192 211q-29 -8 -61 -24.5t-65 -41.5t-54 -62t-21 -78zM477 551q7 46 -22.5 79t-94.5 33t-103 -34t-45 -77q-3 -24 -0.5 -43t13.5 -36.5t18.5 -27t27.5 -29t27 -27.5q94 44 132.5 75.5t46.5 86.5zM316 373l179 -201
q37 62 49 152h26q-16 -111 -55 -165q45 -59 54 -86.5t2 -72.5h-24q0 4 2 15.5t2 16.5t-2 16.5t-7 22t-15.5 26.5t-26.5 36q-47 -73 -102.5 -110t-132.5 -37q-100 0 -151.5 47t-51.5 117q0 78 55 137t158 91q-51 44 -71.5 79t-20.5 72q0 75 55.5 116t124.5 41
q58 0 99.5 -28.5t41.5 -89.5q0 -67 -36 -103.5t-152 -91.5z" />
    <glyph glyph-name="quotesingle" unicode="'" horiz-adv-x="126" 
d="M108 402l36 272h26l-38 -272h-24z" />
    <glyph glyph-name="parenleft" unicode="(" horiz-adv-x="308" 
d="M80 101q0 247 77 401t206 172l-3 -21q-86 -12 -150 -122t-91 -301q-27 -190 6 -301t116 -122l-3 -21q-76 11 -117 91t-41 224z" />
    <glyph glyph-name="parenright" unicode=")" horiz-adv-x="308" 
d="M292 357q0 -248 -76.5 -400.5t-205.5 -170.5l3 21q111 14 181.5 167.5t70.5 381.5q0 133 -34.5 210.5t-98.5 86.5l3 21q76 -11 116.5 -91.5t40.5 -225.5z" />
    <glyph glyph-name="asterisk" unicode="*" horiz-adv-x="378" 
d="M372 410l-104 82l-19 -142h-22l21 142l-128 -82l-10 18l135 84l-110 85l13 16l106 -81l19 142h22l-21 -142l126 81l11 -16l-134 -85l111 -84z" />
    <glyph glyph-name="plus" unicode="+" horiz-adv-x="553" 
d="M354 484l-32 -229l227 -1l-4 -28l-227 1l-32 -227h-27l32 226h-219l4 28h219l32 230h27z" />
    <glyph glyph-name="comma" unicode="," horiz-adv-x="192" 
d="M18 -83l116 177h31l-121 -177h-26z" />
    <glyph glyph-name="hyphen" unicode="-" horiz-adv-x="407" 
d="M392 248h-307l4 28h307z" />
    <glyph glyph-name="period" unicode="." horiz-adv-x="131" 
d="M50 0l8 58h31l-8 -58h-31z" />
    <glyph glyph-name="slash" unicode="/" horiz-adv-x="359" 
d="M404 674l-328 -674h-26l328 674h26z" />
    <glyph glyph-name="zero" unicode="0" horiz-adv-x="570" 
d="M280 -14q-93 0 -143 68t-50 196q0 194 77.5 302.5t210.5 108.5q98 0 149 -65t51 -192q0 -193 -79.5 -305.5t-215.5 -112.5zM371 635q-82 0 -142 -55t-88 -139t-28 -183q0 -110 42.5 -178t128.5 -68t147.5 57.5t88 141.5t26.5 184q0 106 -43.5 173t-131.5 67z" />
    <glyph glyph-name="one" unicode="1" horiz-adv-x="570" 
d="M287 510l-14 21l151 119h39l-92 -650h-27l88 624z" />
    <glyph glyph-name="two" unicode="2" horiz-adv-x="570" 
d="M381 636q-57 0 -106 -22.5t-81 -57.5l-16 18q26 33 82 60t125 27q83 0 136.5 -39.5t53.5 -112.5q0 -31 -11 -59.5t-24 -47.5t-41.5 -42.5t-46 -35t-55.5 -35t-53 -33.5l-122 -80q-6 -4 -25 -16.5t-25 -17t-21 -16t-20.5 -18.5t-14 -18.5t-12.5 -23t-6 -24.5l-2 -15h403
l-4 -27h-430l4 32q5 32 16.5 56t40 49t50 40t77.5 50.5t91 58.5q16 11 49.5 32t49.5 32t39.5 30.5t34.5 35t20 38.5t9 48q0 59 -43.5 96.5t-121.5 37.5z" />
    <glyph glyph-name="three" unicode="3" horiz-adv-x="570" 
d="M278 -14q-131 0 -196 73l19 19q61 -67 174 -67q100 0 155.5 46.5t55.5 116.5q0 58 -44.5 97.5t-128.5 39.5h-28l4 27h22q98 0 154 48t56 115q0 56 -41 94.5t-118 38.5q-95 0 -168 -58l-15 18q75 67 189 67q81 0 130.5 -39.5t49.5 -113.5q0 -139 -162 -184
q64 -9 96.5 -51.5t32.5 -93.5q0 -90 -72 -142.5t-165 -50.5z" />
    <glyph glyph-name="four" unicode="4" horiz-adv-x="570" 
d="M425 0h-28l21 148h-353l4 30q40 57 99 127.5t91 106.5t120 129.5t102 108.5h36l-68 -478h102l-3 -24h-102zM93 172h328l63 446q-14 -15 -51 -54t-50 -52.5t-44 -47t-47 -51.5t-44 -50t-49 -58t-49 -60.5t-57 -72.5z" />
    <glyph glyph-name="five" unicode="5" horiz-adv-x="570" 
d="M511 214q0 70 -43.5 118t-122.5 48q-86 0 -146 -44h-38q17 63 44.5 169t37.5 145h312l-5 -26h-287l-71 -264q26 20 70 32t86 12q96 0 143.5 -54.5t47.5 -131.5q0 -96 -66 -163t-193 -67q-111 0 -177 80l22 21q22 -34 68 -55.5t90 -21.5q113 0 170.5 61t57.5 141z" />
    <glyph glyph-name="six" unicode="6" horiz-adv-x="570" 
d="M521 644l-13 -25q-42 16 -91 16q-127 0 -202.5 -93.5t-81.5 -249.5q17 41 48.5 70.5t67 42.5t62.5 18.5t47 5.5q85 0 132.5 -51.5t47.5 -139.5q0 -116 -75 -184t-175 -68q-54 0 -92.5 22.5t-58 61.5t-27.5 78.5t-8 85.5q0 217 86 322t230 105q64 0 103 -17zM290 13
q104 0 161 68.5t57 150.5q0 69 -37.5 119.5t-120.5 50.5q-71 0 -132 -44t-79 -105q-5 -14 -8 -37q-4 -93 36 -148t123 -55z" />
    <glyph glyph-name="seven" unicode="7" horiz-adv-x="570" 
d="M153 626l3 24h439l-4 -28q-139 -150 -237 -298t-182 -324h-32q60 114 90 167.5t84 141.5t113 162t135 155h-409z" />
    <glyph glyph-name="eight" unicode="8" horiz-adv-x="570" 
d="M378 661q27 0 36 -1l14 -2q53 -6 91 -45t38 -97q0 -38 -14.5 -74.5t-53 -68t-94.5 -36.5q77 -13 107.5 -60t30.5 -97q0 -81 -64.5 -137.5t-185.5 -56.5q-100 0 -150.5 44t-50.5 112q0 15 4.5 35t17 46t32.5 48t54.5 40.5t78.5 25.5q-60 6 -88 45t-28 92q0 76 52.5 125.5
t120.5 58.5l16 2q11 1 36 1zM287 11q102 0 160 47t58 121q0 61 -44 102.5t-131 41.5q-105 0 -163 -54.5t-58 -127.5q0 -59 45.5 -94.5t132.5 -35.5zM374 636q-96 0 -145 -46t-49 -115q0 -122 155 -122q194 0 194 162q0 52 -38.5 86.5t-116.5 34.5z" />
    <glyph glyph-name="nine" unicode="9" horiz-adv-x="570" 
d="M140 3l13 25q42 -16 91 -16q127 0 202.5 93.5t81.5 249.5q-17 -41 -48.5 -70.5t-67 -42.5t-62.5 -18.5t-47 -5.5q-85 0 -132.5 51.5t-47.5 139.5q0 116 75 184t175 68q54 0 92.5 -22.5t58 -61.5t27.5 -78.5t8 -85.5q0 -217 -86 -322t-230 -105q-64 0 -103 17zM371 634
q-104 0 -161 -68.5t-57 -150.5q0 -69 37.5 -119.5t120.5 -50.5q71 0 132 44t79 105q5 14 8 37q4 93 -36 148t-123 55z" />
    <glyph glyph-name="colon" unicode=":" horiz-adv-x="131" 
d="M110 426l8 58h31l-8 -58h-31zM50 0l8 58h31l-8 -58h-31z" />
    <glyph glyph-name="semicolon" unicode=";" horiz-adv-x="205" 
d="M184 426l8 58h31l-8 -58h-31zM37 -93l85 138h37l-98 -138h-24z" />
    <glyph glyph-name="less" unicode="&#x3c;" horiz-adv-x="570" 
d="M91 242l423 -213l-4 -29l-448 229l4 27l512 229l-4 -29z" />
    <glyph glyph-name="equal" unicode="=" horiz-adv-x="577" 
d="M584 407h-477l4 26h477zM556 205h-477l4 26h477z" />
    <glyph glyph-name="greater" unicode="&#x3e;" horiz-adv-x="570" 
d="M34 29l483 213l-423 214l4 29l448 -229l-4 -27l-512 -229z" />
    <glyph glyph-name="question" unicode="?" horiz-adv-x="506" 
d="M264 152h-24q3 23 10 42t14 31.5t25.5 30t30 27.5t43 34.5t51.5 40.5q99 79 99 165q0 61 -42.5 100.5t-123.5 39.5q-105 0 -183 -98l-19 11q69 110 205 110q84 0 136.5 -40t52.5 -118q0 -107 -121 -196q-53 -39 -68 -50.5t-40 -36t-33 -44t-13 -49.5zM217 0l10 74h27
l-10 -74h-27z" />
    <glyph glyph-name="at" unicode="@" horiz-adv-x="870" 
d="M743 27l11 -19q-149 -97 -313 -97q-168 0 -261 94t-93 240q0 117 63.5 219.5t167.5 162t219 59.5q168 0 252.5 -82.5t84.5 -201.5q0 -133 -77.5 -225t-173.5 -92q-38 0 -60 28.5t-14 79.5q-25 -36 -67.5 -56.5t-62.5 -23t-34 -2.5q-53 0 -83 30.5t-30 86.5q0 99 67 172.5
t172 73.5q16 0 35.5 -5t40.5 -22.5t22 -44.5l24 63h25q-53 -157 -82 -235q-9 -20 -9 -43q0 -33 16.5 -57t44.5 -24q84 0 153.5 83.5t69.5 214.5q0 65 -26.5 116t-72 81.5t-101 46t-117.5 15.5q-105 0 -202 -54.5t-158.5 -151.5t-61.5 -211q0 -144 90.5 -229t241.5 -85
q80 0 162 26.5t137 68.5zM509 453q-75 0 -126 -44.5t-75 -112.5q-12 -42 -11.5 -78.5t25.5 -61.5t71 -25q41 0 91 29t72 86l37 101q13 47 -18 76.5t-66 29.5z" />
    <glyph glyph-name="A" unicode="A" horiz-adv-x="631" 
d="M38 0h-28l386 674h30l195 -674h-27l-52 172h-406zM406 643l-257 -448h385z" />
    <glyph glyph-name="B" unicode="B" horiz-adv-x="585" 
d="M408 328h-270l-43 -305h295q76 0 121.5 50.5t45.5 115.5q0 59 -38 99t-111 40zM462 343q54 -2 89 -46.5t35 -105.5q0 -69 -53 -130t-141 -61h-327l95 674h278q77 0 117 -41.5t40 -107.5q0 -16 -5.5 -39t-18.5 -53t-41.5 -55t-67.5 -35zM141 352h260q48 4 83 22.5
t52.5 45.5t25 52t7.5 49q0 59 -36.5 94.5t-99.5 35.5h-250z" />
    <glyph glyph-name="C" unicode="C" horiz-adv-x="575" 
d="M83 287q0 166 108.5 282.5t275.5 116.5q114 0 171 -24l-10 -21q-91 20 -139 20q-96 0 -171 -34t-118.5 -89.5t-66 -119t-22.5 -129.5q0 -117 70.5 -198t215.5 -81q66 0 146 21l3 -22q-69 -23 -177 -23q-133 0 -209.5 85t-76.5 216z" />
    <glyph glyph-name="D" unicode="D" horiz-adv-x="652" 
d="M292 0h-227l95 674h227q139 0 213.5 -70t74.5 -207q0 -191 -102.5 -294t-280.5 -103zM98 25h202q71 0 132.5 21.5t110.5 64.5t77 116t28 168q0 131 -70 192.5t-194 61.5h-199z" />
    <glyph glyph-name="E" unicode="E" horiz-adv-x="531" 
d="M486 0h-421l95 674h414l-4 -25h-387l-41 -295h358l-4 -26h-358l-42 -303h394z" />
    <glyph glyph-name="F" unicode="F" horiz-adv-x="489" 
d="M93 0h-28l95 674h389l-4 -25h-361l-41 -295h333l-4 -26h-333z" />
    <glyph glyph-name="G" unicode="G" horiz-adv-x="665" 
d="M635 304h-147l4 26h173l-43 -306q-86 -36 -223 -36q-147 0 -231.5 85.5t-84.5 218.5q0 164 116.5 279t297.5 115q114 0 186 -39l-15 -23q-32 18 -75.5 28t-72.5 10q-101 0 -182 -32.5t-129.5 -86.5t-73.5 -116.5t-25 -128.5q0 -55 18 -105t53 -91t94.5 -65.5t134.5 -24.5
q99 0 188 30z" />
    <glyph glyph-name="H" unicode="H" horiz-adv-x="636" 
d="M591 337h-452l-47 -337h-27l95 674h27l-44 -312h452l44 312h27l-95 -674h-27z" />
    <glyph glyph-name="I" unicode="I" horiz-adv-x="147" 
d="M60 0l95 674h27l-95 -674h-27z" />
    <glyph glyph-name="J" unicode="J" horiz-adv-x="373" 
d="M12 14l12 26q3 -1 15 -5.5l16 -6t14.5 -4.5t17.5 -4.5t17 -3.5t20.5 -2.5t22.5 -0.5q71 0 108 40t50 123l70 498h28l-71 -505q-13 -98 -65.5 -140.5t-122.5 -42.5q-61 0 -132 28z" />
    <glyph glyph-name="K" unicode="K" horiz-adv-x="533" 
d="M523 0h-34l-220 355l-148 -150l-29 -205h-27l95 674h27l-61 -433l413 433h32l-282 -299z" />
    <glyph glyph-name="L" unicode="L" horiz-adv-x="494" 
d="M188 674l-91 -648h361l-4 -26h-389l95 674h28z" />
    <glyph glyph-name="M" unicode="M" horiz-adv-x="834" 
d="M402 0l-211 633l-118 -633h-28l127 674h36l213 -643l396 643h35l-63 -674h-27l60 634l-390 -634h-30z" />
    <glyph glyph-name="N" unicode="N" horiz-adv-x="644" 
d="M65 0l95 674h41l355 -645l91 645h27l-95 -674h-38l-358 645l-91 -645h-27z" />
    <glyph glyph-name="O" unicode="O" horiz-adv-x="713" 
d="M355 -14q-128 0 -200.5 77.5t-72.5 213.5q0 186 102 297.5t269 111.5q129 0 201 -77t72 -212q0 -186 -102.5 -298.5t-268.5 -112.5zM450 662q-155 0 -248 -111t-93 -268q0 -123 64 -198t185 -75q158 0 249.5 108.5t91.5 269.5q0 119 -64 196.5t-185 77.5z" />
    <glyph glyph-name="P" unicode="P" horiz-adv-x="553" 
d="M404 285h-271l-40 -285h-28l95 674h291q79 0 115 -51t36 -120q0 -14 -4 -36.5t-17.5 -55.5t-34 -60t-58 -46.5t-84.5 -19.5zM136 309h271q42 0 76.5 20.5t53.5 51t29 61.5t10 57q0 64 -33.5 108t-98.5 44h-260z" />
    <glyph glyph-name="Q" unicode="Q" horiz-adv-x="703" 
d="M355 -14q-128 0 -200.5 77.5t-72.5 213.5q0 186 102 297.5t269 111.5q129 0 201 -77t72 -212q0 -137 -70 -247.5t-186 -145.5q60 -81 187 -81h4l-3 -22q-58 0 -104 16.5t-67 33.5t-43 43q-45 -8 -89 -8zM450 663q-104 0 -183 -54t-118.5 -139.5t-39.5 -186.5
q0 -123 63.5 -198.5t185.5 -75.5q157 0 249 109.5t92 269.5q0 120 -64 197.5t-185 77.5z" />
    <glyph glyph-name="R" unicode="R" horiz-adv-x="582" 
d="M434 300q28 -14 44 -40t27 -73l48 -187h-28l-57 213q-13 41 -40.5 60t-79.5 19h-214l-41 -292h-28l95 674h280q89 0 125.5 -47t36.5 -115q0 -15 -2.5 -33.5t-13 -47t-27.5 -53t-49.5 -46.5t-75.5 -32zM138 318h255q50 0 88 20t57.5 50.5t28.5 60.5t9 57q0 63 -34 104
t-107 41h-251z" />
    <glyph glyph-name="S" unicode="S" horiz-adv-x="533" 
d="M354 686q119 0 196 -59l-15 -22q-31 19 -50.5 29t-55 18.5t-77.5 8.5q-69 0 -125.5 -29t-81.5 -89q-6 -20 -6 -37.5t3.5 -31t13.5 -25.5t20 -21t26 -17.5t28.5 -14.5t30.5 -13l173 -72q60 -24 79.5 -62t12.5 -76q-14 -85 -85 -136t-163 -51q-142 0 -239 80l17 22
q102 -77 222 -77q64 0 129.5 35t82.5 93q38 99 -68 148q-5 2 -210 87q-58 26 -85 64t-8 105q18 64 83 103.5t152 39.5z" />
    <glyph glyph-name="T" unicode="T" horiz-adv-x="519" 
d="M600 649h-236l-91 -649h-27l91 649h-236l4 25h499z" />
    <glyph glyph-name="U" unicode="U" horiz-adv-x="666" 
d="M330 -14q-130 0 -188.5 67.5t-37.5 223.5l56 397h28l-55 -391q-20 -141 27.5 -206t173.5 -65q127 0 193 64.5t86 206.5l55 391h28l-56 -397q-21 -155 -100 -223t-210 -68z" />
    <glyph glyph-name="V" unicode="V" horiz-adv-x="553" 
d="M95 674h29l156 -644l339 644h29l-355 -674h-33z" />
    <glyph glyph-name="W" unicode="W" horiz-adv-x="932" 
d="M571 647l125 -618l294 645h27l-307 -674h-35l-123 607l-293 -607h-37l-117 674h27l113 -644l299 617h27z" />
    <glyph glyph-name="X" unicode="X" horiz-adv-x="550" 
d="M318 305l-277 -305h-31l300 332l-194 342h32l178 -314l266 314h32l-289 -342l205 -332h-31z" />
    <glyph glyph-name="Y" unicode="Y" horiz-adv-x="568" 
d="M297 0h-28l34 238l-198 436h31l184 -410l300 410h33l-322 -436z" />
    <glyph glyph-name="Z" unicode="Z" horiz-adv-x="568" 
d="M518 0h-488l4 26l567 626h-460l3 22h489l-4 -25l-565 -625h457z" />
    <glyph glyph-name="bracketleft" unicode="[" horiz-adv-x="231" 
d="M283 652h-104l-119 -844h104l-3 -22h-131l125 888h131z" />
    <glyph glyph-name="backslash" unicode="\" horiz-adv-x="359" 
d="M283 0l-138 674h26l138 -674h-26z" />
    <glyph glyph-name="bracketright" unicode="]" horiz-adv-x="231" 
d="M236 652h-104l3 22h131l-125 -888h-131l3 22h104z" />
    <glyph glyph-name="asciicircum" unicode="^" horiz-adv-x="341" 
d="M248 674h33l79 -251h-28l-71 227l-134 -227h-28z" />
    <glyph glyph-name="underscore" unicode="_" horiz-adv-x="633" 
d="M34 -47h553l-4 -25h-553z" />
    <glyph glyph-name="grave" unicode="`" horiz-adv-x="174" 
d="M166 661l45 -111h-26l-52 111h33z" />
    <glyph glyph-name="a" unicode="a" horiz-adv-x="476" 
d="M421 0h-26l13 93q-26 -50 -88.5 -78.5t-117.5 -28.5q-67 0 -111.5 31.5t-44.5 88.5q0 91 95 133.5t296 52.5l8 60q1 6 1.5 13t-1 20t-6 24.5t-14.5 24.5t-25 22t-40.5 15t-57.5 6q-51 0 -148 -31l-7 22q90 32 161 32q52 0 89 -15q87 -32 74 -129zM207 8q13 0 33.5 3.5
t50.5 14.5t55.5 27.5t46.5 47t26 68.5l14 101q-347 -17 -363 -148q-6 -50 34 -82t103 -32z" />
    <glyph glyph-name="b" unicode="b" horiz-adv-x="534" 
d="M182 674l-37 -259q79 85 191 85q98 0 149.5 -58.5t51.5 -155.5q0 -130 -72.5 -215t-191.5 -85q-14 0 -28.5 1t-40 6t-45 14t-37.5 27.5t-25 43.5l-11 -78h-26l95 674h27zM332 476q-64 0 -126.5 -36t-71.5 -106l-23 -166q-7 -48 7.5 -81.5t43 -49t55.5 -22t56 -6.5
q53 0 95.5 19t68 48.5t42.5 67t23 71.5t6 66q0 33 -7.5 63.5t-25 62t-54.5 50.5t-89 19z" />
    <glyph glyph-name="c" unicode="c" horiz-adv-x="427" 
d="M65 198q0 137 76.5 219.5t203.5 82.5q65 0 119 -20l-12 -25q-53 20 -102 20q-130 0 -193 -80t-63 -192q0 -85 46 -138.5t145 -53.5q55 0 108 16l4 -25q-52 -16 -124 -16q-99 0 -153.5 56t-54.5 156z" />
    <glyph glyph-name="d" unicode="d" horiz-adv-x="534" 
d="M505 415l37 259h27l-95 -674h-26l11 78q-23 -40 -69.5 -62.5t-75.5 -26t-57 -3.5q-92 0 -142 58.5t-50 154.5q0 130 73 215.5t200 85.5q113 0 167 -85zM336 476q-61 0 -107.5 -22.5t-71 -54t-40 -72t-20 -70t-4.5 -55.5q0 -36 8 -67.5t26 -61t53 -47t83 -17.5
q28 0 57 6.5t62 22t57 49t31 81.5l24 166q6 37 -8 66t-40 44.5t-54 23.5t-56 8z" />
    <glyph glyph-name="e" unicode="e" horiz-adv-x="518" 
d="M269 -14q-90 0 -146.5 60t-56.5 161q0 123 78 208t185 85q100 0 153 -64t36 -183l-2 -16h-420q-14 -102 37.5 -164t152.5 -62q74 0 147 26l5 -24q-70 -27 -169 -27zM326 475q-79 0 -146.5 -64t-79.5 -152h392q15 108 -33 162t-133 54z" />
    <glyph glyph-name="f" unicode="f" horiz-adv-x="233" 
d="M79 484h79l9 62q6 41 20.5 69.5t28.5 42t35.5 20.5t30.5 7.5t23 0.5h4q19 0 40 -7l-7 -21q-20 6 -37 6q-55 0 -80 -33t-30 -74l-10 -73h108l-3 -23h-108l-96 -675h-28l97 675h-79z" />
    <glyph glyph-name="g" unicode="g" horiz-adv-x="534" 
d="M275 9q18 0 45 6.5t59 20.5t56.5 42.5t30.5 65.5l23 169q5 39 -4.5 69t-28 47.5t-44 29t-48 15.5t-44.5 4q-57 0 -102.5 -25t-72.5 -66t-41 -89.5t-14 -99.5q0 -85 43.5 -137t141.5 -52zM438 -56l19 132q-61 -90 -194 -90q-93 0 -145.5 52.5t-52.5 155.5q0 146 72.5 226
t184.5 80q23 0 47 -4t52.5 -13.5t51 -30.5t30.5 -51l11 83h27l-79 -563q-11 -78 -76 -112t-153 -34q-86 0 -154 31l13 25q70 -32 136 -32q44 0 78 6t55.5 18t36.5 24.5t23 31t11.5 32.5t5.5 33z" />
    <glyph glyph-name="h" unicode="h" horiz-adv-x="522" 
d="M503 291l-41 -291h-27l41 291q12 84 -24 134.5t-119 50.5q-19 0 -39 -3t-48 -14t-50.5 -29.5t-41.5 -53t-25 -79.5l-42 -297h-27l95 674h27l-39 -273q66 99 193 99q91 0 136.5 -51t30.5 -158z" />
    <glyph glyph-name="i" unicode="i" horiz-adv-x="167" 
d="M70 0l68 484h27l-68 -484h-27zM154 600l11 74h27l-11 -74h-27z" />
    <glyph glyph-name="j" unicode="j" horiz-adv-x="175" 
d="M183 484l-81 -568q-5 -41 -19.5 -69.5t-28.5 -42t-35.5 -21t-31 -8t-25.5 -0.5q-22 0 -43 7l8 22q28 -7 43 -7q27 0 48 12.5t32.5 33t17.5 39.5t8 38l80 564h27zM172 600l10 74h27l-10 -74h-27z" />
    <glyph glyph-name="k" unicode="k" horiz-adv-x="434" 
d="M254 315l176 -315h-31l-167 297l-117 -99l-28 -198h-27l95 674h27l-62 -442l296 252h35z" />
    <glyph glyph-name="l" unicode="l" horiz-adv-x="167" 
d="M70 0l95 674h27l-95 -674h-27z" />
    <glyph glyph-name="m" unicode="m" horiz-adv-x="833" 
d="M404 0l43 307q11 69 -22 119t-111 50q-37 0 -73.5 -14.5t-69 -52t-39.5 -91.5l-45 -318h-27l68 484h28l-11 -80q57 96 172 96q58 0 96 -24t59 -92q74 116 197 116q174 0 147 -192l-43 -308h-27l41 290q13 94 -15.5 140t-107.5 46q-12 0 -29 -3t-44 -14t-49.5 -28t-42 -49
t-25.5 -74l-43 -308h-27z" />
    <glyph glyph-name="n" unicode="n" horiz-adv-x="524" 
d="M505 289l-41 -289h-28l41 289q13 87 -20.5 137t-117.5 50q-69 0 -132.5 -38t-74.5 -116l-45 -322h-27l68 484h28l-11 -79q18 29 45 49.5t56 29.5t51 12.5t42 3.5q92 0 136.5 -48t29.5 -163z" />
    <glyph glyph-name="o" unicode="o" horiz-adv-x="518" 
d="M60 198q0 137 74 219.5t195 82.5q93 0 145 -56.5t52 -156.5q0 -137 -74 -219.5t-195 -82.5q-93 0 -145 56.5t-52 156.5zM499 280q0 87 -45 141.5t-128 54.5q-110 0 -174.5 -79t-64.5 -192q0 -86 44.5 -141.5t128.5 -55.5q108 0 173.5 79t65.5 193z" />
    <glyph glyph-name="p" unicode="p" horiz-adv-x="534" 
d="M96 67l-39 -281h-27l98 698h26l-11 -80q17 31 46.5 52t62.5 29.5t54 11.5t39 3q91 0 141.5 -60t50.5 -157q0 -131 -72.5 -214t-200.5 -83q-116 0 -168 81zM266 10q60 0 106.5 22t71 53t40 71.5t20 69.5t4.5 55q0 36 -8 68t-26 62t-52.5 48t-82.5 18q-28 0 -57.5 -7
t-62.5 -23.5t-57 -50.5t-31 -82l-23 -166q-6 -48 20 -81t62.5 -45t75.5 -12z" />
    <glyph glyph-name="q" unicode="q" horiz-adv-x="534" 
d="M417 -214l40 281q-75 -81 -191 -81q-98 0 -149.5 57t-51.5 154q0 130 73 216.5t191 86.5q18 0 38.5 -3t51 -11.5t54.5 -29.5t32 -52l11 80h26l-98 -698h-27zM271 10q39 0 79 12t76 45t42 81l23 166q7 48 -7.5 82t-43 50.5t-56 23.5t-55.5 7q-53 0 -95.5 -19.5t-68 -49.5
t-42.5 -68t-23 -72t-6 -66q0 -25 4 -49t16 -51t30.5 -46.5t51.5 -32.5t75 -13z" />
    <glyph glyph-name="r" unicode="r" horiz-adv-x="271" 
d="M323 474h-11q-61 0 -116.5 -45t-66.5 -125l-43 -304h-26l68 484h26l-12 -86q30 55 80.5 78.5t96.5 23.5h7z" />
    <glyph glyph-name="s" unicode="s" horiz-adv-x="401" 
d="M349 78q19 36 12.5 62.5t-19 39t-30.5 19.5l-157 63q-45 22 -60.5 54t-2.5 82q14 45 61 73.5t109 28.5q87 0 144 -36l-14 -23q-64 34 -127 34q-72 0 -112 -31.5t-40 -78.5q0 -34 22.5 -56t70.5 -38l107 -41q75 -29 75 -99q0 -66 -50.5 -105.5t-131.5 -39.5q-97 0 -171 53
l13 23q27 -16 44 -25t49.5 -18t65.5 -9q40 0 81.5 15.5t60.5 52.5z" />
    <glyph glyph-name="t" unicode="t" horiz-adv-x="272" 
d="M151 461h-83l3 23h83l20 138h26l-20 -138h127l-3 -23h-127l-46 -329q-2 -27 -4 -54.5t17.5 -48.5t59.5 -21q20 0 44 11q0 -2 2 -12t2 -11q-28 -10 -53 -10h-12.5t-13.5 1t-15 2.5t-14 5t-14 8.5t-11.5 12.5t-9.5 18.5t-6 24t-2.5 31t3.5 39z" />
    <glyph glyph-name="u" unicode="u" horiz-adv-x="524" 
d="M88 195l40 289h27l-41 -289q-12 -85 22.5 -134.5t117.5 -49.5q23 0 51 6t62.5 21.5t60.5 49.5t33 82l44 314h27l-68 -484h-28l12 83q-33 -54 -90 -75.5t-105 -21.5q-92 0 -137 47.5t-28 161.5z" />
    <glyph glyph-name="v" unicode="v" horiz-adv-x="484" 
d="M258 0h-32l-148 484h29l139 -457l267 457h29z" />
    <glyph glyph-name="w" unicode="w" horiz-adv-x="774" 
d="M440 468h26l113 -435l225 451h28l-242 -484h-29l-113 435l-234 -435h-30l-106 484h28l99 -451z" />
    <glyph glyph-name="x" unicode="x" horiz-adv-x="424" 
d="M243 219l-200 -219h-33l219 241l-150 243h34l136 -221l198 221h33l-218 -243l152 -241h-34z" />
    <glyph glyph-name="y" unicode="y" horiz-adv-x="495" 
d="M47 -222l8 22q8 -1 15 -1q66 0 109 71l59 108l-160 506h31l149 -472l264 472h31l-363 -641q-22 -37 -56 -52.5t-59 -15.5q-13 0 -28 3z" />
    <glyph glyph-name="z" unicode="z" horiz-adv-x="440" 
d="M25 0l3 22l420 439h-346l3 23h378l-3 -23l-418 -438h344l-3 -23h-378z" />
    <glyph glyph-name="braceleft" unicode="{" horiz-adv-x="309" 
d="M140 233l-1 -6l5 -4q6 -4 8.5 -6.5t8 -8.5t8.5 -12.5t7.5 -15.5t6.5 -20t4 -25t1.5 -31.5t-3.5 -37.5l-24 -173q-7 -46 6.5 -66.5t48.5 -20.5h26l-3 -20h-30q-42 0 -62.5 22.5t-11.5 85.5l22 157q14 59 0 107.5t-66 62.5l3 18q56 14 80 57t33 113l22 157q9 63 35.5 85.5
t69.5 22.5h30l-3 -20h-26q-35 0 -53.5 -20.5t-25.5 -66.5l-25 -173q-18 -114 -88 -159q-2 -1 -3 -2z" />
    <glyph glyph-name="bar" unicode="|" horiz-adv-x="125" 
d="M38 -87l116 827h25l-116 -827h-25z" />
    <glyph glyph-name="braceright" unicode="}" horiz-adv-x="309" 
d="M234 227l1 6l-5 4q-6 4 -8.5 6.5t-8 8.5t-8.5 12.5t-7.5 15.5t-6.5 20t-4 25t-1.5 31.5t3.5 37.5l24 173q7 46 -6.5 66.5t-48.5 20.5h-26l3 20h30q42 0 62.5 -22.5t11.5 -85.5l-22 -157q-5 -42 -5 -75.5t17 -59t54 -35.5l-3 -18q-57 -15 -79.5 -56t-34.5 -114l-22 -157
q-9 -63 -35.5 -85.5t-68.5 -22.5h-30l3 20h26q35 0 54 20.5t25 66.5l24 173q3 20 7 37.5t9.5 31t11 25t13 20.5t12.5 15.5t12.5 12.5t10.5 8.5t10 6.5z" />
    <glyph glyph-name="asciitilde" unicode="~" horiz-adv-x="460" 
d="M280 297q-6 3 -20 9.5t-22 10t-20.5 6.5t-24.5 3q-39 0 -61 -25t-36 -64h-23q37 114 122 114q27 0 89 -28q51 -20 71 -20q65 0 97 91h23q-38 -116 -122 -116q-33 0 -73 19z" />
    <glyph glyph-name="exclamdown" unicode="&#xa1;" horiz-adv-x="167" 
d="M41 -214l77 546h26l-77 -546h-26zM128 410l10 74h27l-10 -74h-27z" />
    <glyph glyph-name="cent" unicode="&#xa2;" horiz-adv-x="427" 
d="M271 -14l-12 -85h-25l12 86q-88 8 -134.5 62.5t-46.5 148.5q0 129 68 210t185 91l11 81h25l-11 -80h2q65 0 119 -20l-12 -25q-53 20 -102 20q-68 0 -119 -23.5t-80.5 -63.5t-43.5 -86.5t-14 -98.5q0 -85 46.5 -138.5t144.5 -53.5q56 0 109 16l4 -25q-52 -16 -124 -16h-2z
" />
    <glyph glyph-name="sterling" unicode="&#xa3;" horiz-adv-x="461" 
d="M198 383l-50 -357h302l-4 -26h-407l4 26h75l50 357h-94l3 24h93l8 53q16 113 79 169.5t167 56.5q67 0 112 -22l-13 -23q-40 20 -102 20q-93 0 -146.5 -53t-66.5 -148l-8 -53h198l-3 -24h-197z" />
    <glyph glyph-name="currency" unicode="&#xa4;" horiz-adv-x="482" 
d="M117 306q12 68 55 108l-53 71l18 15l55 -68q47 37 114 37q68 0 104 -37l75 65l14 -16l-74 -64q28 -30 28 -88q0 -75 -57 -135l55 -64l-20 -16l-58 63q-48 -36 -113 -36q-61 0 -103 36l-73 -68l-16 16l76 69q-34 40 -27 112zM429 325q0 57 -39 88t-87 31q-59 0 -110.5 -41
t-51.5 -117q0 -58 37.5 -89t85.5 -31q59 0 112 41t53 118z" />
    <glyph glyph-name="yen" unicode="&#xa5;" horiz-adv-x="504" 
d="M269 0h-31l20 141h-181l3 22h181l14 98h-181l3 24h181l-170 413h33l156 -388l261 388h34l-284 -413h178l-3 -24h-177l-14 -98h177l-3 -22h-177z" />
    <glyph glyph-name="brokenbar" unicode="&#xa6;" horiz-adv-x="142" 
d="M104 311l51 363h22l-51 -363h-22zM43 -122l51 363h22l-51 -363h-22z" />
    <glyph glyph-name="section" unicode="&#xa7;" horiz-adv-x="411" 
d="M303 197l-141 56q-44 22 -59 53t-2 78q13 50 71 79q-33 21 -43.5 49.5t0.5 73.5q13 44 58 71.5t107 27.5q82 0 139 -36l-11 -23q-63 33 -126 33q-68 0 -106.5 -30t-38.5 -73q0 -48 58 -79l133 -52q74 -29 74 -96q0 -79 -75 -118q47 -28 47 -83q0 -63 -49.5 -102
t-127.5 -39q-98 0 -166 51l15 25q80 -51 152 -51q37 0 77 15t59 50q12 28 12 46q0 27 -14 45.5t-32 24.5zM377 278q12 22 12 47q0 27 -14 44.5t-33 23.5l-139 56q-80 -29 -80 -96q0 -60 87 -91l107 -39q38 18 60 55z" />
    <glyph glyph-name="dieresis" unicode="&#xa8;" horiz-adv-x="221" 
d="M122 587l10 74h27l-10 -74h-27zM236 587l10 74h27l-10 -74h-27z" />
    <glyph glyph-name="copyright" unicode="&#xa9;" horiz-adv-x="788" 
d="M254 313q0 95 63 162.5t159 67.5q68 0 102 -15l-9 -20q-52 13 -81 13q-103 0 -156 -63t-53 -144q0 -65 38.5 -109.5t119.5 -44.5q39 0 86 13l3 -20q-39 -14 -106 -14q-78 0 -122 49t-44 125zM83 292q0 158 123.5 276t283.5 118q133 0 220.5 -90.5t87.5 -222.5
q0 -105 -57 -195t-150.5 -141t-198.5 -51q-133 0 -221 88t-88 218zM107 295q0 -123 82 -205.5t206 -82.5q150 0 264.5 107.5t114.5 255.5q0 124 -81.5 208t-205.5 84q-150 0 -265 -109.5t-115 -257.5z" />
    <glyph glyph-name="ordfeminine" unicode="&#xaa;" horiz-adv-x="331" 
d="M350 425h-24l5 41q-20 -25 -56 -37.5t-67 -12.5q-41 0 -69.5 21t-28.5 56q0 58 59 84t183 33l4 31v5v6.5t-0.5 8.5t-2 9.5t-4.5 9.5t-7 10t-10.5 8t-14 7t-19 4.5t-24.5 1.5q-25 0 -91 -17l-8 19q52 22 104 22q33 0 56 -10q55 -22 46 -82zM213 440q10 0 27 3.5t39.5 12.5
t40 28.5t21.5 46.5l8 56q-215 -11 -215 -90q0 -24 23 -40.5t56 -16.5zM86 330h251l-3 -24h-251z" />
    <glyph glyph-name="guillemotleft" unicode="&#xab;" horiz-adv-x="377" 
d="M403 554l-163 -231l100 -231h-30l-101 231l164 231h30zM289 554l-163 -231l100 -231h-30l-101 231l164 231h30z" />
    <glyph glyph-name="logicalnot" unicode="&#xac;" horiz-adv-x="577" 
d="M546 338h-448l4 28h477l-25 -179h-29z" />
    <glyph glyph-name="registered" unicode="&#xae;" horiz-adv-x="788" 
d="M83 292q0 158 123.5 276t283.5 118q133 0 220.5 -90.5t87.5 -222.5q0 -105 -57 -195t-150.5 -141t-198.5 -51q-133 0 -221 88t-88 218zM107 295q0 -123 82 -205.5t206 -82.5q150 0 264.5 107.5t114.5 255.5q0 124 -81.5 208t-205.5 84q-150 0 -265 -109.5t-115 -257.5z
M592 434q0 -11 -3 -25t-11 -33.5t-27.5 -36.5t-47.5 -25q23 -16 34 -63q12 -72 26 -110h-25q-8 22 -17.5 64.5t-13.5 57.5q-12 43 -63 43h-118l-23 -165h-24l54 389h164q51 0 73 -28t22 -68zM329 328h141q52 0 75.5 33t23.5 69q0 79 -75 79h-139z" />
    <glyph glyph-name="macron" unicode="&#xaf;" horiz-adv-x="268" 
d="M133 661h188l-3 -24h-188z" />
    <glyph glyph-name="degree" unicode="&#xb0;" horiz-adv-x="348" 
d="M106 502q0 64 48.5 111.5t111.5 47.5q52 0 86.5 -37t34.5 -89q0 -63 -48.5 -110t-112.5 -47q-51 0 -85.5 36t-34.5 88zM133 505q0 -44 27 -72t70 -28q52 0 91 37.5t39 90.5q0 45 -27 73.5t-71 28.5q-52 0 -90.5 -38.5t-38.5 -91.5z" />
    <glyph glyph-name="plusminus" unicode="&#xb1;" horiz-adv-x="557" 
d="M92 371h226l30 209h26l-30 -209h225l-4 -29h-225l-30 -211h-26l30 211h-226zM517 0h-477l4 27h477z" />
    <glyph glyph-name="twosuperior" unicode="&#xb2;" 
d="M281 824q-62 0 -106 -46l-13 16q14 20 47.5 36.5t74.5 16.5q48 0 79.5 -23t31.5 -66q0 -30 -17.5 -55.5t-35.5 -38.5t-53 -34l-95 -61q-60 -37 -67 -71l-1 -5h226l-3 -23h-250l3 22q6 35 27.5 55.5t76.5 55.5l79 52q55 36 69 53q16 20 16 45q0 33 -23.5 52t-65.5 19z" />
    <glyph glyph-name="threesuperior" unicode="&#xb3;" 
d="M223 462q-72 0 -116 44l16 17q39 -39 100 -39q53 0 82.5 24.5t29.5 61.5q0 32 -23.5 53t-69.5 21h-21l4 23h18q53 0 82 25t29 61q0 31 -21.5 51t-62.5 20q-50 0 -96 -34l-13 15q40 42 113 42q47 0 76 -23t29 -66q0 -71 -78 -102q30 -8 45 -31t15 -50q0 -53 -41.5 -83
t-96.5 -30z" />
    <glyph glyph-name="acute" unicode="&#xb4;" horiz-adv-x="174" 
d="M117 550l77 111h33l-84 -111h-26z" />
    <glyph glyph-name="mu" unicode="&#xb5;" horiz-adv-x="524" 
d="M99 86l-41 -300h-28l98 698h26l-41 -289q-11 -81 23 -132.5t118 -51.5q23 0 51 6t62.5 21.5t60.5 49.5t33 82l44 314h27l-68 -484h-28l12 83q-33 -54 -90 -75.5t-105 -21.5q-58 0 -100 25.5t-54 74.5z" />
    <glyph glyph-name="mu" unicode="&#x3bc;" horiz-adv-x="524" 
d="M99 86l-41 -300h-28l98 698h26l-41 -289q-11 -81 23 -132.5t118 -51.5q23 0 51 6t62.5 21.5t60.5 49.5t33 82l44 314h27l-68 -484h-28l12 83q-33 -54 -90 -75.5t-105 -21.5q-58 0 -100 25.5t-54 74.5z" />
    <glyph glyph-name="paragraph" unicode="&#xb6;" horiz-adv-x="426" 
d="M315 -214l122 867h-76l-122 -867h-22l72 513q-82 0 -137 49t-55 119q0 83 63.5 145t147.5 62h153l-125 -888h-21z" />
    <glyph glyph-name="periodcentered" unicode="&#xb7;" horiz-adv-x="131" 
d="M92 297l8 57h31l-8 -57h-31z" />
    <glyph glyph-name="cedilla" unicode="&#xb8;" horiz-adv-x="268" 
d="M153 10h23q31 -43 36 -84q6 -55 -27.5 -93t-95.5 -32q-33 4 -74 23l3 23l50 -17q48 -16 83.5 4.5t38.5 66t-37 109.5z" />
    <glyph glyph-name="onesuperior" unicode="&#xb9;" horiz-adv-x="240" 
d="M160 754l-12 16l88 71h27l-52 -371h-23l48 345z" />
    <glyph glyph-name="ordmasculine" unicode="&#xba;" horiz-adv-x="364" 
d="M118 548q0 84 46.5 135.5t120.5 51.5q59 0 90.5 -35t31.5 -96q0 -86 -45 -137t-122 -51q-58 0 -90 35t-32 97zM383 597q0 49 -26.5 81t-74.5 32q-63 0 -100 -45.5t-37 -110.5q0 -50 25.5 -82t73.5 -32q63 0 101 45.5t38 111.5zM88 330h279l-3 -24h-279z" />
    <glyph glyph-name="guillemotright" unicode="&#xbb;" horiz-adv-x="377" 
d="M227 323l-98 231h30l99 -231l-165 -231h-30zM341 323l-98 231h30l99 -231l-165 -231h-30z" />
    <glyph glyph-name="onequarter" unicode="&#xbc;" horiz-adv-x="625" 
d="M70 0l496 674h25l-496 -674h-25zM157 588l-12 16l88 71h27l-52 -371h-23l48 345zM508 0h-25l12 83h-197l2 20q60 85 191 224v-1l43 45h26l-37 -267h57l-3 -21h-57zM327 104h171l32 231l-28 -29v1l-40 -44t-44 -48.5t-40 -46.5t-51 -64z" />
    <glyph glyph-name="onehalf" unicode="&#xbd;" horiz-adv-x="689" 
d="M77 0l496 674h25l-496 -674h-25zM157 588l-12 16l88 71h27l-52 -371h-23l48 345zM555 354q-62 0 -106 -46l-13 16q14 20 47.5 36.5t74.5 16.5q48 0 79.5 -23t31.5 -66q0 -30 -17.5 -55.5t-35.5 -38.5t-53 -34l-95 -61q-60 -37 -67 -71l-1 -5h226l-3 -23h-250l3 22
q6 35 27.5 55.5t76.5 55.5l79 52q55 36 69 53q16 20 16 45q0 33 -23.5 52t-65.5 19z" />
    <glyph glyph-name="threequarters" unicode="&#xbe;" horiz-adv-x="747" 
d="M182 0l496 674h25l-496 -674h-25zM630 0h-25l12 83h-197l3 20q59 85 190 224v-1l43 45h26l-37 -267h57l-3 -21h-57zM449 104h171l32 231l-28 -29v1q-111 -121 -175 -203zM224 296q-72 0 -116 44l16 17q39 -39 100 -39q53 0 82.5 24.5t29.5 61.5q0 32 -23.5 53t-69.5 21
h-21l4 23h18q53 0 82 25t29 61q0 31 -21.5 51t-62.5 20q-50 0 -96 -34l-13 15q40 42 113 42q47 0 76 -23t29 -66q0 -71 -78 -102q30 -8 45 -31t15 -50q0 -53 -41.5 -83t-96.5 -30z" />
    <glyph glyph-name="questiondown" unicode="&#xbf;" horiz-adv-x="506" 
d="M334 332h24q-3 -23 -10.5 -42t-13 -31t-25.5 -31t-29 -27t-44.5 -35t-51.5 -40q-99 -79 -99 -168q0 -61 42.5 -100.5t123.5 -39.5q105 0 183 98l19 -11q-69 -110 -205 -110q-84 0 -136.5 40t-52.5 118q0 108 122 199q11 8 38.5 29t34.5 26.5t25 21.5t22.5 23.5t14 21.5
t13 27.5t5.5 30.5zM381 484l-10 -74h-27l10 74h27z" />
    <glyph glyph-name="Agrave" unicode="&#xc0;" horiz-adv-x="631" 
d="M38 0h-28l386 674h30l195 -674h-27l-52 172h-406zM406 643l-257 -448h385zM373 851l45 -111h-26l-52 111h33z" />
    <glyph glyph-name="Aacute" unicode="&#xc1;" horiz-adv-x="631" 
d="M38 0h-28l386 674h30l195 -674h-27l-52 172h-406zM406 643l-257 -448h385zM420 740l77 111h33l-84 -111h-26z" />
    <glyph glyph-name="Acircumflex" unicode="&#xc2;" horiz-adv-x="631" 
d="M38 0h-28l386 674h30l195 -674h-27l-52 172h-406zM406 643l-257 -448h385zM432 835l-87 -91h-29l97 107h44l67 -107h-29z" />
    <glyph glyph-name="Atilde" unicode="&#xc3;" horiz-adv-x="631" 
d="M38 0h-28l386 674h30l195 -674h-27l-52 172h-406zM406 643l-257 -448h385zM337 789h-25q11 32 34 48t52 14q21 -3 46 -20t37 -17q30 0 45 37h23q-8 -33 -29.5 -47t-46.5 -11q-23 3 -45 19t-40 16q-20 0 -30.5 -8.5t-20.5 -30.5z" />
    <glyph glyph-name="Adieresis" unicode="&#xc4;" horiz-adv-x="631" 
d="M38 0h-28l386 674h30l195 -674h-27l-52 172h-406zM406 643l-257 -448h385zM354 777l11 74h27l-11 -74h-27zM468 777l11 74h27l-11 -74h-27z" />
    <glyph glyph-name="Aring" unicode="&#xc5;" horiz-adv-x="631" 
d="M38 0h-28l386 674h30l195 -674h-27l-52 172h-406zM406 643l-257 -448h385zM356 822q0 35 23 60.5t64 25.5q32 0 48.5 -18.5t16.5 -47.5q0 -35 -25 -61.5t-62 -26.5q-31 0 -48 19.5t-17 48.5zM484 838q0 20 -11 34.5t-34 14.5q-28 0 -44.5 -20t-16.5 -43q0 -20 11.5 -34.5
t33.5 -14.5q28 0 44.5 20t16.5 43z" />
    <glyph glyph-name="AE" unicode="&#xc6;" horiz-adv-x="934" 
d="M456 651l-295 -456h333l64 456h-102zM498 25h395l-4 -25h-422l24 170h-340l-113 -170h-28l432 674h533l-4 -23h-385l-41 -298h357l-4 -25h-358z" />
    <glyph glyph-name="Ccedilla" unicode="&#xc7;" horiz-adv-x="575" 
d="M83 287q0 166 108.5 282.5t275.5 116.5q114 0 171 -24l-10 -21q-91 20 -139 20q-96 0 -171 -34t-118.5 -89.5t-66 -119t-22.5 -129.5q0 -117 70.5 -198t215.5 -81q66 0 146 21l3 -22q-69 -23 -177 -23q-14 0 -38 2q16 -26 22 -62q6 -55 -27.5 -93t-95.5 -32q-33 4 -74 23
l4 23l49 -17q45 -16 80 2.5t41 60t-24 99.5q-105 18 -164 99.5t-59 195.5z" />
    <glyph glyph-name="Egrave" unicode="&#xc8;" horiz-adv-x="531" 
d="M486 0h-421l95 674h414l-4 -25h-387l-41 -295h358l-4 -26h-358l-42 -303h394zM343 851l45 -111h-26l-52 111h33z" />
    <glyph glyph-name="Eacute" unicode="&#xc9;" horiz-adv-x="531" 
d="M486 0h-421l95 674h414l-4 -25h-387l-41 -295h358l-4 -26h-358l-42 -303h394zM355 740l77 111h33l-84 -111h-26z" />
    <glyph glyph-name="Ecircumflex" unicode="&#xca;" horiz-adv-x="531" 
d="M486 0h-421l95 674h414l-4 -25h-387l-41 -295h358l-4 -26h-358l-42 -303h394zM382 835l-87 -91h-29l97 107h44l67 -107h-29z" />
    <glyph glyph-name="Edieresis" unicode="&#xcb;" horiz-adv-x="531" 
d="M486 0h-421l95 674h414l-4 -25h-387l-41 -295h358l-4 -26h-358l-42 -303h394zM304 777l11 74h27l-11 -74h-27zM418 777l11 74h27l-11 -74h-27z" />
    <glyph glyph-name="Igrave" unicode="&#xcc;" horiz-adv-x="147" 
d="M60 0l95 674h27l-95 -674h-27zM144 851l45 -111h-26l-52 111h33z" />
    <glyph glyph-name="Iacute" unicode="&#xcd;" horiz-adv-x="147" 
d="M60 0l95 674h27l-95 -674h-27zM163 740l77 111h33l-84 -111h-26z" />
    <glyph glyph-name="Icircumflex" unicode="&#xce;" horiz-adv-x="147" 
d="M60 0l95 674h27l-95 -674h-27zM191 835l-87 -91h-29l97 107h44l67 -107h-29z" />
    <glyph glyph-name="Idieresis" unicode="&#xcf;" horiz-adv-x="147" 
d="M60 0l95 674h27l-95 -674h-27zM112 777l11 74h27l-11 -74h-27zM226 777l11 74h27l-11 -74h-27z" />
    <glyph glyph-name="Eth" unicode="&#xd0;" horiz-adv-x="706" 
d="M216 674h225q139 0 213.5 -70t74.5 -207q0 -191 -102.5 -294t-280.5 -103h-225l43 305h-111l3 24h111zM152 25h203q71 0 132 21.5t110 64.5t77 116t28 169q0 130 -70.5 191.5t-193.5 61.5h-199l-45 -320h226l-3 -24h-226z" />
    <glyph glyph-name="Ntilde" unicode="&#xd1;" horiz-adv-x="644" 
d="M65 0l95 674h41l355 -645l91 645h27l-95 -674h-38l-358 645l-91 -645h-27zM344 789h-25q11 32 34 48t52 14q21 -3 46 -20t37 -17q30 0 45 37h23q-8 -33 -29.5 -47t-46.5 -11q-23 3 -45 19t-40 16q-20 0 -30.5 -8.5t-20.5 -30.5z" />
    <glyph glyph-name="Ograve" unicode="&#xd2;" horiz-adv-x="713" 
d="M355 -14q-128 0 -200.5 77.5t-72.5 213.5q0 186 102 297.5t269 111.5q129 0 201 -77t72 -212q0 -186 -102.5 -298.5t-268.5 -112.5zM450 662q-155 0 -248 -111t-93 -268q0 -123 64 -198t185 -75q158 0 249.5 108.5t91.5 269.5q0 119 -64 196.5t-185 77.5zM422 851
l45 -111h-26l-52 111h33z" />
    <glyph glyph-name="Oacute" unicode="&#xd3;" horiz-adv-x="713" 
d="M355 -14q-128 0 -200.5 77.5t-72.5 213.5q0 186 102 297.5t269 111.5q129 0 201 -77t72 -212q0 -186 -102.5 -298.5t-268.5 -112.5zM450 662q-155 0 -248 -111t-93 -268q0 -123 64 -198t185 -75q158 0 249.5 108.5t91.5 269.5q0 119 -64 196.5t-185 77.5zM446 740l77 111
h33l-84 -111h-26z" />
    <glyph glyph-name="Ocircumflex" unicode="&#xd4;" horiz-adv-x="713" 
d="M355 -14q-128 0 -200.5 77.5t-72.5 213.5q0 186 102 297.5t269 111.5q129 0 201 -77t72 -212q0 -186 -102.5 -298.5t-268.5 -112.5zM450 662q-155 0 -248 -111t-93 -268q0 -123 64 -198t185 -75q158 0 249.5 108.5t91.5 269.5q0 119 -64 196.5t-185 77.5zM473 835
l-87 -91h-29l97 107h44l67 -107h-29z" />
    <glyph glyph-name="Otilde" unicode="&#xd5;" horiz-adv-x="713" 
d="M355 -14q-128 0 -200.5 77.5t-72.5 213.5q0 186 102 297.5t269 111.5q129 0 201 -77t72 -212q0 -186 -102.5 -298.5t-268.5 -112.5zM450 662q-155 0 -248 -111t-93 -268q0 -123 64 -198t185 -75q158 0 249.5 108.5t91.5 269.5q0 119 -64 196.5t-185 77.5zM378 789h-25
q11 32 34 48t52 14q21 -3 46 -20t37 -17q15 0 25.5 8t19.5 29h23q-8 -33 -29.5 -47t-46.5 -11q-23 3 -45 19t-40 16q-20 0 -30.5 -8.5t-20.5 -30.5z" />
    <glyph glyph-name="Odieresis" unicode="&#xd6;" horiz-adv-x="713" 
d="M355 -14q-128 0 -200.5 77.5t-72.5 213.5q0 186 102 297.5t269 111.5q129 0 201 -77t72 -212q0 -186 -102.5 -298.5t-268.5 -112.5zM450 662q-155 0 -248 -111t-93 -268q0 -123 64 -198t185 -75q158 0 249.5 108.5t91.5 269.5q0 119 -64 196.5t-185 77.5zM395 777l11 74
h27l-11 -74h-27zM509 777l11 74h27l-11 -74h-27z" />
    <glyph glyph-name="multiply" unicode="&#xd7;" horiz-adv-x="546" 
d="M42 17l245 216q-135 159 -180 210l20 18l181 -210l238 209l16 -18l-238 -209l184 -214l-20 -19l-185 215l-246 -217z" />
    <glyph glyph-name="Oslash" unicode="&#xd8;" horiz-adv-x="713" 
d="M174 42l-76 -95h-32l90 111q-74 74 -74 219q0 186 102.5 297.5t269.5 111.5q105 0 175 -51l70 85h32l-84 -101q79 -73 79 -223q0 -186 -102 -298t-269 -112q-113 0 -181 56zM174 80l435 532q-61 50 -159 50q-155 0 -248 -111t-93 -269q0 -133 65 -202zM628 595l-437 -532
q65 -53 168 -53q157 0 248.5 108.5t91.5 268.5q0 138 -71 208z" />
    <glyph glyph-name="Ugrave" unicode="&#xd9;" horiz-adv-x="666" 
d="M330 -14q-130 0 -188.5 67.5t-37.5 223.5l56 397h28l-55 -391q-20 -141 27.5 -206t173.5 -65q127 0 193 64.5t86 206.5l55 391h28l-56 -397q-21 -155 -100 -223t-210 -68zM439 851l45 -111h-26l-52 111h33z" />
    <glyph glyph-name="Uacute" unicode="&#xda;" horiz-adv-x="666" 
d="M330 -14q-130 0 -188.5 67.5t-37.5 223.5l56 397h28l-55 -391q-20 -141 27.5 -206t173.5 -65q127 0 193 64.5t86 206.5l55 391h28l-56 -397q-21 -155 -100 -223t-210 -68zM390 740l77 111h33l-84 -111h-26z" />
    <glyph glyph-name="Ucircumflex" unicode="&#xdb;" horiz-adv-x="666" 
d="M330 -14q-130 0 -188.5 67.5t-37.5 223.5l56 397h28l-55 -391q-20 -141 27.5 -206t173.5 -65q127 0 193 64.5t86 206.5l55 391h28l-56 -397q-21 -155 -100 -223t-210 -68zM451 835l-88 -91h-29l97 107h44l67 -107h-29z" />
    <glyph glyph-name="Udieresis" unicode="&#xdc;" horiz-adv-x="666" 
d="M330 -14q-130 0 -188.5 67.5t-37.5 223.5l56 397h28l-55 -391q-20 -141 27.5 -206t173.5 -65q127 0 193 64.5t86 206.5l55 391h28l-56 -397q-21 -155 -100 -223t-210 -68zM372 777l10 74h27l-10 -74h-27zM486 777l10 74h27l-10 -74h-27z" />
    <glyph glyph-name="Yacute" unicode="&#xdd;" horiz-adv-x="568" 
d="M297 0h-28l34 238l-198 436h31l184 -410l300 410h33l-322 -436zM341 740l77 111h33l-84 -111h-26z" />
    <glyph glyph-name="Thorn" unicode="&#xde;" horiz-adv-x="539" 
d="M187 674l-26 -180q79 85 191 85q98 0 149.5 -58.5t51.5 -155.5q0 -130 -72.5 -215t-191.5 -85q-19 0 -38.5 2.5t-50.5 10t-55 28t-32 51.5l-22 -157h-26l95 674h27zM348 555q-64 0 -126.5 -36t-71.5 -106l-23 -166q-7 -48 7.5 -81.5t43 -49t55.5 -22t56 -6.5
q53 0 95.5 19t68 48.5t42.5 67t23 71.5t6 66q0 33 -7.5 63.5t-25 62t-54.5 50.5t-89 19z" />
    <glyph glyph-name="germandbls" unicode="&#xdf;" horiz-adv-x="549" 
d="M384 338l-21 3l5 38l23 4q58 12 92 50.5t34 101.5q0 56 -41.5 90.5t-111.5 34.5q-184 0 -215 -217l-62 -443h-27l63 451q18 117 77 176t167 59q71 0 124.5 -35.5t53.5 -109.5q0 -63 -38.5 -114.5t-117.5 -66.5q47 -3 79.5 -18.5t47.5 -38.5t21 -44t6 -43
q0 -37 -14.5 -73.5t-43.5 -69.5t-78.5 -53t-112.5 -20h-130l4 25h130q101 0 159.5 57.5t58.5 131.5q0 109 -132 124z" />
    <glyph glyph-name="agrave" unicode="&#xe0;" horiz-adv-x="476" 
d="M299 661l46 -111h-26l-53 111h33zM421 0h-26l13 93q-26 -50 -88.5 -78.5t-117.5 -28.5q-67 0 -111.5 31.5t-44.5 88.5q0 91 95 133.5t296 52.5l8 60q1 6 1.5 13t-1 20t-6 24.5t-14.5 24.5t-25 22t-40.5 15t-57.5 6q-51 0 -148 -31l-7 22q90 32 161 32q52 0 89 -15
q87 -32 74 -129zM207 8q13 0 33.5 3.5t50.5 14.5t55.5 27.5t46.5 47t26 68.5l14 101q-347 -17 -363 -148q-6 -50 34 -82t103 -32z" />
    <glyph glyph-name="aacute" unicode="&#xe1;" horiz-adv-x="476" 
d="M273 550l76 111h33l-83 -111h-26zM421 0h-26l13 93q-26 -50 -88.5 -78.5t-117.5 -28.5q-67 0 -111.5 31.5t-44.5 88.5q0 91 95 133.5t296 52.5l8 60q1 6 1.5 13t-1 20t-6 24.5t-14.5 24.5t-25 22t-40.5 15t-57.5 6q-51 0 -148 -31l-7 22q90 32 161 32q52 0 89 -15
q87 -32 74 -129zM207 8q13 0 33.5 3.5t50.5 14.5t55.5 27.5t46.5 47t26 68.5l14 101q-347 -17 -363 -148q-6 -50 34 -82t103 -32z" />
    <glyph glyph-name="acircumflex" unicode="&#xe2;" horiz-adv-x="476" 
d="M323 645l-88 -91h-29l97 107h44l67 -107h-29zM421 0h-26l13 93q-26 -50 -88.5 -78.5t-117.5 -28.5q-67 0 -111.5 31.5t-44.5 88.5q0 91 95 133.5t296 52.5l8 60q1 6 1.5 13t-1 20t-6 24.5t-14.5 24.5t-25 22t-40.5 15t-57.5 6q-51 0 -148 -31l-7 22q90 32 161 32
q52 0 89 -15q87 -32 74 -129zM207 8q13 0 33.5 3.5t50.5 14.5t55.5 27.5t46.5 47t26 68.5l14 101q-347 -17 -363 -148q-6 -50 34 -82t103 -32z" />
    <glyph glyph-name="atilde" unicode="&#xe3;" horiz-adv-x="487" 
d="M239 599h-25q11 32 34 48t51 14q22 -3 47 -20t37 -17q29 0 44 37h23q-8 -33 -29 -47t-46 -11q-23 3 -45 19t-40 16q-20 0 -30.5 -8.5t-20.5 -30.5zM432 0h-26l13 93q-26 -50 -88.5 -78.5t-117.5 -28.5q-67 0 -111.5 31.5t-44.5 88.5q0 91 95 133.5t296 52.5l8 60
q1 6 1.5 13t-1 20t-6 24.5t-14.5 24.5t-25 22t-40.5 15t-57.5 6q-51 0 -148 -31l-7 22q90 32 161 32q51 0 89 -15q87 -32 74 -129zM218 8q13 0 33.5 3.5t50.5 14.5t55.5 27.5t46.5 47t26 68.5l14 101q-347 -17 -363 -148q-6 -50 34 -82t103 -32z" />
    <glyph glyph-name="adieresis" unicode="&#xe4;" horiz-adv-x="476" 
d="M245 587l10 74h27l-10 -74h-27zM359 587l10 74h27l-10 -74h-27zM421 0h-26l13 93q-26 -50 -88.5 -78.5t-117.5 -28.5q-67 0 -111.5 31.5t-44.5 88.5q0 91 95 133.5t296 52.5l8 60q1 6 1.5 13t-1 20t-6 24.5t-14.5 24.5t-25 22t-40.5 15t-57.5 6q-51 0 -148 -31l-7 22
q90 32 161 32q52 0 89 -15q87 -32 74 -129zM207 8q13 0 33.5 3.5t50.5 14.5t55.5 27.5t46.5 47t26 68.5l14 101q-347 -17 -363 -148q-6 -50 34 -82t103 -32z" />
    <glyph glyph-name="aring" unicode="&#xe5;" horiz-adv-x="476" 
d="M247 632q0 35 23 60.5t63 25.5q32 0 48.5 -18.5t16.5 -47.5q0 -35 -24.5 -61.5t-61.5 -26.5q-31 0 -48 19.5t-17 48.5zM375 648q0 20 -11.5 34.5t-34.5 14.5q-27 0 -43.5 -20t-16.5 -43q0 -20 11.5 -34.5t33.5 -14.5q28 0 44.5 20t16.5 43zM421 0h-26l13 93
q-26 -50 -88.5 -78.5t-117.5 -28.5q-67 0 -111.5 31.5t-44.5 88.5q0 91 95 133.5t296 52.5l8 60q1 6 1.5 13t-1 20t-6 24.5t-14.5 24.5t-25 22t-40.5 15t-57.5 6q-51 0 -148 -31l-7 22q90 32 161 32q52 0 89 -15q87 -32 74 -129zM207 8q13 0 33.5 3.5t50.5 14.5t55.5 27.5
t46.5 47t26 68.5l14 101q-347 -17 -363 -148q-6 -50 34 -82t103 -32z" />
    <glyph glyph-name="ae" unicode="&#xe6;" horiz-adv-x="874" 
d="M436 115l-3 10l-2 6q-5 -16 -15 -31q-4 -9 -12 -18q-39 -50 -98 -73t-112 -23q-60 0 -100 31t-40 87q0 39 18 67.5t48.5 47.5t80.5 32t104.5 19.5t128.5 10.5l10 71v6q1 5 1 10t-0.5 14t-2.5 17t-7 18t-11.5 18t-18 15.5t-25.5 13t-34 9t-44 3.5q-58 0 -145 -29l-5 21
q79 32 156 32q49 0 85 -13q84 -31 78 -115q37 60 93.5 94t121.5 34q102 0 154 -58.5t37 -177.5l-2 -15h-420q-15 -115 35 -176.5t153 -61.5q74 0 147 26l4 -24q-70 -27 -168 -27q-70 0 -120 33.5t-70 95.5zM683 476q-80 0 -145.5 -58t-77.5 -145h391q15 106 -33.5 154.5
t-134.5 48.5zM207 9q16 0 44.5 7.5t65.5 24t66 51.5t36 82l12 85q-164 -9 -251.5 -40t-95.5 -97q-6 -56 27 -84.5t96 -28.5z" />
    <glyph glyph-name="ccedilla" unicode="&#xe7;" horiz-adv-x="427" 
d="M65 198q0 137 76.5 219.5t203.5 82.5q65 0 119 -20l-12 -25q-53 20 -102 20q-130 0 -193 -80t-63 -192q0 -85 46 -138.5t145 -53.5q55 0 108 16l4 -25q-52 -16 -124 -16h-15q16 -30 22 -60q6 -55 -28.5 -93t-95.5 -32q-33 4 -74 23l4 23l49 -17q44 -16 78.5 2t41 59
t-21.5 98q-81 10 -124.5 64.5t-43.5 144.5z" />
    <glyph glyph-name="egrave" unicode="&#xe8;" horiz-adv-x="518" 
d="M269 -14q-90 0 -146.5 60t-56.5 161q0 123 78 208t185 85q100 0 153 -64t36 -183l-2 -16h-420q-14 -102 37.5 -164t152.5 -62q74 0 147 26l5 -24q-70 -27 -169 -27zM326 475q-79 0 -146.5 -64t-79.5 -152h392q15 108 -33 162t-133 54zM302 661l45 -111h-26l-52 111h33z
" />
    <glyph glyph-name="eacute" unicode="&#xe9;" horiz-adv-x="518" 
d="M269 -14q-90 0 -146.5 60t-56.5 161q0 123 78 208t185 85q100 0 153 -64t36 -183l-2 -16h-420q-14 -102 37.5 -164t152.5 -62q74 0 147 26l5 -24q-70 -27 -169 -27zM326 475q-79 0 -146.5 -64t-79.5 -152h392q15 108 -33 162t-133 54zM320 550l77 111h33l-84 -111h-26z
" />
    <glyph glyph-name="ecircumflex" unicode="&#xea;" horiz-adv-x="518" 
d="M269 -14q-90 0 -146.5 60t-56.5 161q0 123 78 208t185 85q100 0 153 -64t36 -183l-2 -16h-420q-14 -102 37.5 -164t152.5 -62q74 0 147 26l5 -24q-70 -27 -169 -27zM326 475q-79 0 -146.5 -64t-79.5 -152h392q15 108 -33 162t-133 54zM350 645l-88 -91h-29l97 107h44
l67 -107h-29z" />
    <glyph glyph-name="edieresis" unicode="&#xeb;" horiz-adv-x="518" 
d="M269 -14q-90 0 -146.5 60t-56.5 161q0 123 78 208t185 85q100 0 153 -64t36 -183l-2 -16h-420q-14 -102 37.5 -164t152.5 -62q74 0 147 26l5 -24q-70 -27 -169 -27zM326 475q-79 0 -146.5 -64t-79.5 -152h392q15 108 -33 162t-133 54zM270 587l11 74h27l-11 -74h-27z
M384 587l11 74h27l-11 -74h-27z" />
    <glyph glyph-name="igrave" unicode="&#xec;" horiz-adv-x="146" 
d="M60 0l68 484h26l-68 -484h-26zM120 661l45 -111h-26l-52 111h33z" />
    <glyph glyph-name="iacute" unicode="&#xed;" horiz-adv-x="146" 
d="M60 0l68 484h26l-68 -484h-26zM138 550l77 111h33l-84 -111h-26z" />
    <glyph glyph-name="icircumflex" unicode="&#xee;" horiz-adv-x="146" 
d="M60 0l68 484h26l-68 -484h-26zM164 645l-88 -91h-29l97 107h44l67 -107h-29z" />
    <glyph glyph-name="idieresis" unicode="&#xef;" horiz-adv-x="146" 
d="M60 0l68 484h26l-68 -484h-26zM85 587l11 74h27l-11 -74h-27zM199 587l11 74h27l-11 -74h-27z" />
    <glyph glyph-name="eth" unicode="&#xf0;" horiz-adv-x="518" 
d="M499 280q0 87 -45 141.5t-128 54.5q-110 0 -174.5 -79t-64.5 -192q0 -86 44.5 -141.5t128.5 -55.5q108 0 173.5 79t65.5 193zM522 243q-18 -121 -88.5 -189.5t-176.5 -68.5q-93 0 -145 56.5t-52 156.5q0 137 74 219.5t195 82.5q58 0 93 -15.5t38 -40.5q-4 34 -20 66
t-47 64.5t-45 45.5t-47 40l-98 -86l-14 14l93 83q-60 49 -88 58l22 16q55 -28 87 -56l79 70l14 -14l-77 -67q239 -192 203 -435z" />
    <glyph glyph-name="ntilde" unicode="&#xf1;" horiz-adv-x="524" 
d="M505 289l-41 -289h-28l41 289q13 87 -20.5 137t-117.5 50q-69 0 -132.5 -38t-74.5 -116l-45 -322h-27l68 484h28l-11 -79q18 29 45 49.5t56 29.5t51 12.5t42 3.5q92 0 136.5 -48t29.5 -163zM257 599h-25q11 32 34 48t52 14q22 -3 47 -20t37 -17q29 0 44 37h23
q-8 -33 -29 -47t-46 -11q-23 3 -45 19t-40 16q-20 0 -31 -8.5t-21 -30.5z" />
    <glyph glyph-name="ograve" unicode="&#xf2;" horiz-adv-x="518" 
d="M60 198q0 137 74 219.5t195 82.5q93 0 145 -56.5t52 -156.5q0 -137 -74 -219.5t-195 -82.5q-93 0 -145 56.5t-52 156.5zM499 280q0 87 -45 141.5t-128 54.5q-110 0 -174.5 -79t-64.5 -192q0 -86 44.5 -141.5t128.5 -55.5q108 0 173.5 79t65.5 193zM300 661l45 -111h-26
l-52 111h33z" />
    <glyph glyph-name="oacute" unicode="&#xf3;" horiz-adv-x="518" 
d="M60 198q0 137 74 219.5t195 82.5q93 0 145 -56.5t52 -156.5q0 -137 -74 -219.5t-195 -82.5q-93 0 -145 56.5t-52 156.5zM499 280q0 87 -45 141.5t-128 54.5q-110 0 -174.5 -79t-64.5 -192q0 -86 44.5 -141.5t128.5 -55.5q108 0 173.5 79t65.5 193zM324 550l77 111h33
l-84 -111h-26z" />
    <glyph glyph-name="ocircumflex" unicode="&#xf4;" horiz-adv-x="518" 
d="M60 198q0 137 74 219.5t195 82.5q93 0 145 -56.5t52 -156.5q0 -137 -74 -219.5t-195 -82.5q-93 0 -145 56.5t-52 156.5zM499 280q0 87 -45 141.5t-128 54.5q-110 0 -174.5 -79t-64.5 -192q0 -86 44.5 -141.5t128.5 -55.5q108 0 173.5 79t65.5 193zM350 645l-88 -91h-29
l97 107h44l67 -107h-29z" />
    <glyph glyph-name="otilde" unicode="&#xf5;" horiz-adv-x="518" 
d="M60 198q0 137 74 219.5t195 82.5q93 0 145 -56.5t52 -156.5q0 -137 -74 -219.5t-195 -82.5q-93 0 -145 56.5t-52 156.5zM499 280q0 87 -45 141.5t-128 54.5q-110 0 -174.5 -79t-64.5 -192q0 -86 44.5 -141.5t128.5 -55.5q108 0 173.5 79t65.5 193zM254 599h-25
q11 32 34 48t52 14q22 -3 47 -20t37 -17q29 0 44 37h23q-8 -33 -29 -47t-46 -11q-23 3 -45 19t-40 16q-20 0 -31 -8.5t-21 -30.5z" />
    <glyph glyph-name="odieresis" unicode="&#xf6;" horiz-adv-x="518" 
d="M60 198q0 137 74 219.5t195 82.5q93 0 145 -56.5t52 -156.5q0 -137 -74 -219.5t-195 -82.5q-93 0 -145 56.5t-52 156.5zM499 280q0 87 -45 141.5t-128 54.5q-110 0 -174.5 -79t-64.5 -192q0 -86 44.5 -141.5t128.5 -55.5q108 0 173.5 79t65.5 193zM270 587l11 74h27
l-11 -74h-27zM384 587l11 74h27l-11 -74h-27z" />
    <glyph glyph-name="divide" unicode="&#xf7;" horiz-adv-x="517" 
d="M76 255h437l-4 -25h-437zM298 421l9 62h37l-9 -62h-37zM239 0l8 62h37l-8 -62h-37z" />
    <glyph glyph-name="oslash" unicode="&#xf8;" horiz-adv-x="518" 
d="M457 462l55 70h28l-66 -85q52 -52 52 -160q0 -137 -74 -219.5t-195 -82.5q-72 0 -119 32l-60 -75h-28l70 88q-60 54 -60 168q0 137 74 219.5t195 82.5q78 0 128 -38zM455 423l-300 -384q42 -31 105 -31q107 0 173.5 79t66.5 193q0 92 -45 143zM138 53l301 386
q-45 37 -113 37q-110 0 -174.5 -79t-64.5 -192q0 -101 51 -152z" />
    <glyph glyph-name="ugrave" unicode="&#xf9;" horiz-adv-x="524" 
d="M88 195l40 289h27l-41 -289q-12 -85 22.5 -134.5t117.5 -49.5q23 0 51 6t62.5 21.5t60.5 49.5t33 82l44 314h27l-68 -484h-28l12 83q-33 -54 -90 -75.5t-105 -21.5q-92 0 -137 47.5t-28 161.5zM341 661l46 -111h-26l-53 111h33z" />
    <glyph glyph-name="uacute" unicode="&#xfa;" horiz-adv-x="524" 
d="M88 195l40 289h27l-41 -289q-12 -85 22.5 -134.5t117.5 -49.5q23 0 51 6t62.5 21.5t60.5 49.5t33 82l44 314h27l-68 -484h-28l12 83q-33 -54 -90 -75.5t-105 -21.5q-92 0 -137 47.5t-28 161.5zM293 550l76 111h33l-83 -111h-26z" />
    <glyph glyph-name="ucircumflex" unicode="&#xfb;" horiz-adv-x="524" 
d="M88 195l40 289h27l-41 -289q-12 -85 22.5 -134.5t117.5 -49.5q23 0 51 6t62.5 21.5t60.5 49.5t33 82l44 314h27l-68 -484h-28l12 83q-33 -54 -90 -75.5t-105 -21.5q-92 0 -137 47.5t-28 161.5zM353 645l-88 -91h-29l97 107h44l67 -107h-29z" />
    <glyph glyph-name="udieresis" unicode="&#xfc;" horiz-adv-x="524" 
d="M88 195l40 289h27l-41 -289q-12 -85 22.5 -134.5t117.5 -49.5q23 0 51 6t62.5 21.5t60.5 49.5t33 82l44 314h27l-68 -484h-28l12 83q-33 -54 -90 -75.5t-105 -21.5q-92 0 -137 47.5t-28 161.5zM274 587l10 74h27l-10 -74h-27zM388 587l10 74h27l-10 -74h-27z" />
    <glyph glyph-name="yacute" unicode="&#xfd;" horiz-adv-x="495" 
d="M47 -222l8 22q8 -1 15 -1q66 0 109 71l59 108l-160 506h31l149 -472l264 472h31l-363 -641q-22 -37 -56 -52.5t-59 -15.5q-13 0 -28 3zM294 550l77 111h33l-84 -111h-26z" />
    <glyph glyph-name="thorn" unicode="&#xfe;" horiz-adv-x="534" 
d="M187 674l-37 -259q79 85 191 85q98 0 149.5 -58.5t51.5 -155.5q0 -130 -72.5 -215t-191.5 -85q-19 0 -38.5 2.5t-50.5 10t-55 28t-32 51.5l-39 -278h-26l123 874h27zM337 476q-64 0 -126.5 -36t-71.5 -106l-23 -166q-7 -48 7.5 -81.5t43 -49t55.5 -22t56 -6.5
q53 0 95.5 19t68 48.5t42.5 67t23 71.5t6 66q0 33 -7.5 63.5t-25 62t-54.5 50.5t-89 19z" />
    <glyph glyph-name="ydieresis" unicode="&#xff;" horiz-adv-x="495" 
d="M47 -222l8 22q8 -1 15 -1q66 0 109 71l59 108l-160 506h31l149 -472l264 472h31l-363 -641q-22 -37 -56 -52.5t-59 -15.5q-13 0 -28 3zM260 587l10 74h27l-10 -74h-27zM374 587l10 74h27l-10 -74h-27z" />
    <glyph glyph-name="Amacron" unicode="&#x100;" horiz-adv-x="631" 
d="M38 0h-28l386 674h30l195 -674h-27l-52 172h-406zM406 643l-257 -448h385zM341 851h188l-4 -24h-188z" />
    <glyph glyph-name="amacron" unicode="&#x101;" horiz-adv-x="476" 
d="M231 661h188l-3 -24h-188zM421 0h-26l13 93q-26 -50 -88.5 -78.5t-117.5 -28.5q-67 0 -111.5 31.5t-44.5 88.5q0 91 95 133.5t296 52.5l8 60q1 6 1.5 13t-1 20t-6 24.5t-14.5 24.5t-25 22t-40.5 15t-57.5 6q-51 0 -148 -31l-7 22q90 32 161 32q52 0 89 -15
q87 -32 74 -129zM207 8q13 0 33.5 3.5t50.5 14.5t55.5 27.5t46.5 47t26 68.5l14 101q-347 -17 -363 -148q-6 -50 34 -82t103 -32z" />
    <glyph glyph-name="Abreve" unicode="&#x102;" horiz-adv-x="631" 
d="M38 0h-28l386 674h30l195 -674h-27l-52 172h-406zM406 643l-257 -448h385zM419 735q-56 1 -83 33.5t-25 82.5h23q0 -44 22.5 -68t65.5 -24q88 0 114 92h23q-12 -50 -48.5 -82.5t-91.5 -33.5z" />
    <glyph glyph-name="abreve" unicode="&#x103;" horiz-adv-x="476" 
d="M310 545q-55 0 -83 33.5t-26 82.5h23q0 -44 22.5 -68t65.5 -24q88 0 114 92h23q-12 -50 -48.5 -82.5t-90.5 -33.5zM421 0h-26l13 93q-26 -50 -88.5 -78.5t-117.5 -28.5q-67 0 -111.5 31.5t-44.5 88.5q0 91 95 133.5t296 52.5l8 60q1 6 1.5 13t-1 20t-6 24.5t-14.5 24.5
t-25 22t-40.5 15t-57.5 6q-51 0 -148 -31l-7 22q90 32 161 32q52 0 89 -15q87 -32 74 -129zM207 8q13 0 33.5 3.5t50.5 14.5t55.5 27.5t46.5 47t26 68.5l14 101q-347 -17 -363 -148q-6 -50 34 -82t103 -32z" />
    <glyph glyph-name="Aogonek" unicode="&#x104;" horiz-adv-x="631" 
d="M38 0h-28l386 674h30l195 -674h-4q-50 -56 -58 -102.5t21.5 -65t80.5 -2.5l55 17l-4 -23q-42 -19 -80 -23q-63 -6 -87.5 32.5t-1.5 92.5q11 28 51 74l-52 172h-406zM406 643l-257 -448h385z" />
    <glyph glyph-name="aogonek" unicode="&#x105;" horiz-adv-x="487" 
d="M432 0h-3q-51 -56 -58.5 -102.5t22.5 -65t80 -2.5l55 17l-3 -23q-45 -19 -81 -23q-63 -6 -87 32t-1 93q12 31 50 74l13 93q-26 -50 -88.5 -78.5t-117.5 -28.5q-67 0 -111.5 31.5t-44.5 88.5q0 91 95 133.5t296 52.5l8 60q1 6 1.5 13t-1 20t-6 24.5t-14.5 24.5t-25 22
t-40.5 15t-57.5 6q-51 0 -148 -31l-7 22q90 32 161 32q51 0 89 -15q87 -32 74 -129l-49 -352zM218 8q13 0 33.5 3.5t50.5 14.5t55.5 27.5t46.5 47t26 68.5l14 101q-347 -17 -363 -148q-6 -50 34 -82t103 -32z" />
    <glyph glyph-name="Cacute" unicode="&#x106;" horiz-adv-x="575" 
d="M83 287q0 166 108.5 282.5t275.5 116.5q114 0 171 -24l-10 -21q-91 20 -139 20q-96 0 -171 -34t-118.5 -89.5t-66 -119t-22.5 -129.5q0 -117 70.5 -198t215.5 -81q66 0 146 21l3 -22q-69 -23 -177 -23q-133 0 -209.5 85t-76.5 216zM417 740l77 111h33l-84 -111h-26z" />
    <glyph glyph-name="cacute" unicode="&#x107;" horiz-adv-x="427" 
d="M65 198q0 137 76.5 219.5t203.5 82.5q65 0 119 -20l-12 -25q-53 20 -102 20q-130 0 -193 -80t-63 -192q0 -85 46 -138.5t145 -53.5q55 0 108 16l4 -25q-52 -16 -124 -16q-99 0 -153.5 56t-54.5 156zM300 550l77 111h33l-84 -111h-26z" />
    <glyph glyph-name="Ccircumflex" unicode="&#x108;" horiz-adv-x="575" 
d="M83 287q0 166 108.5 282.5t275.5 116.5q114 0 171 -24l-10 -21q-91 20 -139 20q-96 0 -171 -34t-118.5 -89.5t-66 -119t-22.5 -129.5q0 -117 70.5 -198t215.5 -81q66 0 146 21l3 -22q-69 -23 -177 -23q-133 0 -209.5 85t-76.5 216zM480 835l-87 -91h-29l97 107h44
l67 -107h-29z" />
    <glyph glyph-name="ccircumflex" unicode="&#x109;" horiz-adv-x="427" 
d="M65 198q0 137 76.5 219.5t203.5 82.5q65 0 119 -20l-12 -25q-53 20 -102 20q-130 0 -193 -80t-63 -192q0 -85 46 -138.5t145 -53.5q55 0 108 16l4 -25q-52 -16 -124 -16q-99 0 -153.5 56t-54.5 156zM345 645l-88 -91h-29l97 107h44l67 -107h-29z" />
    <glyph glyph-name="Cdotaccent" unicode="&#x10a;" horiz-adv-x="575" 
d="M83 287q0 166 108.5 282.5t275.5 116.5q114 0 171 -24l-10 -21q-91 20 -139 20q-96 0 -171 -34t-118.5 -89.5t-66 -119t-22.5 -129.5q0 -117 70.5 -198t215.5 -81q66 0 146 21l3 -22q-69 -23 -177 -23q-133 0 -209.5 85t-76.5 216zM448 777l11 74h27l-11 -74h-27z" />
    <glyph glyph-name="cdotaccent" unicode="&#x10b;" horiz-adv-x="427" 
d="M65 198q0 137 76.5 219.5t203.5 82.5q65 0 119 -20l-12 -25q-53 20 -102 20q-130 0 -193 -80t-63 -192q0 -85 46 -138.5t145 -53.5q55 0 108 16l4 -25q-52 -16 -124 -16q-99 0 -153.5 56t-54.5 156zM333 587l11 74h27l-11 -74h-27z" />
    <glyph glyph-name="Ccaron" unicode="&#x10c;" horiz-adv-x="575" 
d="M83 287q0 166 108.5 282.5t275.5 116.5q114 0 171 -24l-10 -21q-91 20 -139 20q-96 0 -171 -34t-118.5 -89.5t-66 -119t-22.5 -129.5q0 -117 70.5 -198t215.5 -81q66 0 146 21l3 -22q-69 -23 -177 -23q-133 0 -209.5 85t-76.5 216zM469 777l87 87h28l-95 -103h-44
l-67 103h28z" />
    <glyph glyph-name="ccaron" unicode="&#x10d;" horiz-adv-x="427" 
d="M65 198q0 137 76.5 219.5t203.5 82.5q65 0 119 -20l-12 -25q-53 20 -102 20q-130 0 -193 -80t-63 -192q0 -85 46 -138.5t145 -53.5q55 0 108 16l4 -25q-52 -16 -124 -16q-99 0 -153.5 56t-54.5 156zM341 587l88 87h28l-96 -103h-44l-66 103h28z" />
    <glyph glyph-name="Dcaron" unicode="&#x10e;" horiz-adv-x="652" 
d="M292 0h-227l95 674h227q139 0 213.5 -70t74.5 -207q0 -191 -102.5 -294t-280.5 -103zM98 25h202q71 0 132.5 21.5t110.5 64.5t77 116t28 168q0 131 -70 192.5t-194 61.5h-199zM435 777l87 87h28l-95 -103h-44l-67 103h28z" />
    <glyph glyph-name="dcaron" unicode="&#x10f;" horiz-adv-x="613" 
d="M505 415l37 259h27l-95 -674h-26l11 78q-23 -40 -69.5 -62.5t-75.5 -26t-57 -3.5q-92 0 -142 58.5t-50 154.5q0 130 73 215.5t200 85.5q113 0 167 -85zM336 476q-61 0 -107.5 -22.5t-71 -54t-40 -72t-20 -70t-4.5 -55.5q0 -36 8 -67.5t26 -61t53 -47t83 -17.5
q28 0 57 6.5t62 22t57 49t31 81.5l24 166q6 37 -8 66t-40 44.5t-54 23.5t-56 8zM601 500l111 174h29l-113 -174h-27z" />
    <glyph glyph-name="Dcroat" unicode="&#x110;" horiz-adv-x="711" 
d="M221 674h225q139 0 213.5 -70t74.5 -207q0 -191 -102.5 -294t-280.5 -103h-225l43 305h-111l3 24h111zM157 25h203q71 0 132 21.5t110 64.5t77 116t28 169q0 130 -70.5 191.5t-193.5 61.5h-199l-45 -320h226l-3 -24h-226z" />
    <glyph glyph-name="dcroat" unicode="&#x111;" horiz-adv-x="559" 
d="M560 612h75l-4 -24h-75l-82 -588h-26l11 78q-23 -40 -69.5 -62.5t-75.5 -26t-57 -3.5q-92 0 -142 58.5t-50 154.5q0 130 73 215.5t200 85.5q113 0 167 -85l24 173h-161l4 24h161l9 62h27zM336 476q-61 0 -107.5 -22.5t-71 -54t-40 -72t-20 -70t-4.5 -55.5q0 -36 8 -67.5
t26 -61t53 -47t83 -17.5q28 0 57 6.5t62 22t57 49t31 81.5l24 166q6 37 -8 66t-40 44.5t-54 23.5t-56 8z" />
    <glyph glyph-name="Emacron" unicode="&#x112;" horiz-adv-x="531" 
d="M486 0h-421l95 674h414l-4 -25h-387l-41 -295h358l-4 -26h-358l-42 -303h394zM291 851h188l-4 -24h-188z" />
    <glyph glyph-name="emacron" unicode="&#x113;" horiz-adv-x="518" 
d="M269 -14q-90 0 -146.5 60t-56.5 161q0 123 78 208t185 85q100 0 153 -64t36 -183l-2 -16h-420q-14 -102 37.5 -164t152.5 -62q74 0 147 26l5 -24q-70 -27 -169 -27zM326 475q-79 0 -146.5 -64t-79.5 -152h392q15 108 -33 162t-133 54zM258 661h188l-4 -24h-188z" />
    <glyph glyph-name="Ebreve" unicode="&#x114;" horiz-adv-x="531" 
d="M486 0h-421l95 674h414l-4 -25h-387l-41 -295h358l-4 -26h-358l-42 -303h394zM369 735q-56 1 -83 33.5t-25 82.5h23q0 -44 22.5 -68t65.5 -24q88 0 114 92h23q-12 -50 -48.5 -82.5t-91.5 -33.5z" />
    <glyph glyph-name="ebreve" unicode="&#x115;" horiz-adv-x="518" 
d="M269 -14q-90 0 -146.5 60t-56.5 161q0 123 78 208t185 85q100 0 153 -64t36 -183l-2 -16h-420q-14 -102 37.5 -164t152.5 -62q74 0 147 26l5 -24q-70 -27 -169 -27zM326 475q-79 0 -146.5 -64t-79.5 -152h392q15 108 -33 162t-133 54zM337 545q-56 1 -83.5 33.5
t-25.5 82.5h23q0 -44 22.5 -68t65.5 -24q88 0 114 92h23q-12 -50 -48.5 -82.5t-90.5 -33.5z" />
    <glyph glyph-name="Edotaccent" unicode="&#x116;" horiz-adv-x="531" 
d="M486 0h-421l95 674h414l-4 -25h-387l-41 -295h358l-4 -26h-358l-42 -303h394zM361 777l11 74h27l-11 -74h-27z" />
    <glyph glyph-name="edotaccent" unicode="&#x117;" horiz-adv-x="518" 
d="M269 -14q-90 0 -146.5 60t-56.5 161q0 123 78 208t185 85q100 0 153 -64t36 -183l-2 -16h-420q-14 -102 37.5 -164t152.5 -62q74 0 147 26l5 -24q-70 -27 -169 -27zM326 475q-79 0 -146.5 -64t-79.5 -152h392q15 108 -33 162t-133 54zM327 587l11 74h27l-11 -74h-27z" />
    <glyph glyph-name="Eogonek" unicode="&#x118;" horiz-adv-x="531" 
d="M490 25l-4 -24q-50 -57 -58.5 -103.5t21 -65t80.5 -2.5l55 17l-4 -23q-42 -19 -80 -23q-63 -6 -87.5 32.5t-1.5 92.5q11 28 51 74h-397l95 674h414l-4 -25h-387l-41 -295h358l-4 -26h-358l-42 -303h394z" />
    <glyph glyph-name="eogonek" unicode="&#x119;" horiz-adv-x="518" 
d="M405 3q-68 -17 -136 -17q-90 0 -146.5 60t-56.5 161q0 123 78 208t185 85q99 0 151.5 -64t37.5 -183l-2 -16h-420q-14 -102 37.5 -164t152.5 -62q74 0 147 26l5 -24q-82 -88 -69 -148q9 -42 61 -42q19 0 40 7l54 17l-3 -23q-42 -19 -80 -23q-63 -6 -86.5 32t-2.5 93
q11 29 53 77zM326 475q-79 0 -146.5 -64t-79.5 -152h392q15 108 -33 162t-133 54z" />
    <glyph glyph-name="Ecaron" unicode="&#x11a;" horiz-adv-x="531" 
d="M486 0h-421l95 674h414l-4 -25h-387l-41 -295h358l-4 -26h-358l-42 -303h394zM374 777l87 87h28l-95 -103h-44l-67 103h28z" />
    <glyph glyph-name="ecaron" unicode="&#x11b;" horiz-adv-x="518" 
d="M269 -14q-90 0 -146.5 60t-56.5 161q0 123 78 208t185 85q100 0 153 -64t36 -183l-2 -16h-420q-14 -102 37.5 -164t152.5 -62q74 0 147 26l5 -24q-70 -27 -169 -27zM326 475q-79 0 -146.5 -64t-79.5 -152h392q15 108 -33 162t-133 54zM341 587l88 87h28l-96 -103h-44
l-66 103h28z" />
    <glyph glyph-name="Gcircumflex" unicode="&#x11c;" horiz-adv-x="665" 
d="M635 304h-147l4 26h173l-43 -306q-86 -36 -223 -36q-147 0 -231.5 85.5t-84.5 218.5q0 164 116.5 279t297.5 115q114 0 186 -39l-15 -23q-32 18 -75.5 28t-72.5 10q-101 0 -182 -32.5t-129.5 -86.5t-73.5 -116.5t-25 -128.5q0 -55 18 -105t53 -91t94.5 -65.5t134.5 -24.5
q99 0 188 30zM527 835l-88 -91h-29l97 107h44l67 -107h-29z" />
    <glyph glyph-name="gcircumflex" unicode="&#x11d;" horiz-adv-x="534" 
d="M275 9q18 0 45 6.5t59 20.5t56.5 42.5t30.5 65.5l23 169q5 39 -4.5 69t-28 47.5t-44 29t-48 15.5t-44.5 4q-57 0 -102.5 -25t-72.5 -66t-41 -89.5t-14 -99.5q0 -85 43.5 -137t141.5 -52zM438 -56l19 132q-61 -90 -194 -90q-93 0 -145.5 52.5t-52.5 155.5q0 146 72.5 226
t184.5 80q23 0 47 -4t52.5 -13.5t51 -30.5t30.5 -51l11 83h27l-79 -563q-11 -78 -76 -112t-153 -34q-86 0 -154 31l13 25q70 -32 136 -32q44 0 78 6t55.5 18t36.5 24.5t23 31t11.5 32.5t5.5 33zM358 645l-88 -91h-29l97 107h44l67 -107h-29z" />
    <glyph glyph-name="Gbreve" unicode="&#x11e;" horiz-adv-x="665" 
d="M635 304h-147l4 26h173l-43 -306q-86 -36 -223 -36q-147 0 -231.5 85.5t-84.5 218.5q0 164 116.5 279t297.5 115q114 0 186 -39l-15 -23q-32 18 -75.5 28t-72.5 10q-101 0 -182 -32.5t-129.5 -86.5t-73.5 -116.5t-25 -128.5q0 -55 18 -105t53 -91t94.5 -65.5t134.5 -24.5
q99 0 188 30zM492 735q-56 1 -83.5 33.5t-25.5 82.5h23q0 -44 22.5 -68t65.5 -24q88 0 114 92h23q-12 -50 -48.5 -82.5t-90.5 -33.5z" />
    <glyph glyph-name="gbreve" unicode="&#x11f;" horiz-adv-x="534" 
d="M275 9q18 0 45 6.5t59 20.5t56.5 42.5t30.5 65.5l23 169q5 39 -4.5 69t-28 47.5t-44 29t-48 15.5t-44.5 4q-57 0 -102.5 -25t-72.5 -66t-41 -89.5t-14 -99.5q0 -85 43.5 -137t141.5 -52zM438 -56l19 132q-61 -90 -194 -90q-93 0 -145.5 52.5t-52.5 155.5q0 146 72.5 226
t184.5 80q23 0 47 -4t52.5 -13.5t51 -30.5t30.5 -51l11 83h27l-79 -563q-11 -78 -76 -112t-153 -34q-86 0 -154 31l13 25q70 -32 136 -32q44 0 78 6t55.5 18t36.5 24.5t23 31t11.5 32.5t5.5 33zM345 545q-56 1 -83.5 33.5t-25.5 82.5h23q0 -44 22.5 -68t65.5 -24
q88 0 114 92h23q-12 -50 -48.5 -82.5t-90.5 -33.5z" />
    <glyph glyph-name="Gdotaccent" unicode="&#x120;" horiz-adv-x="665" 
d="M635 304h-147l4 26h173l-43 -306q-86 -36 -223 -36q-147 0 -231.5 85.5t-84.5 218.5q0 164 116.5 279t297.5 115q114 0 186 -39l-15 -23q-32 18 -75.5 28t-72.5 10q-101 0 -182 -32.5t-129.5 -86.5t-73.5 -116.5t-25 -128.5q0 -55 18 -105t53 -91t94.5 -65.5t134.5 -24.5
q99 0 188 30zM493 777l10 74h27l-10 -74h-27z" />
    <glyph glyph-name="gdotaccent" unicode="&#x121;" horiz-adv-x="534" 
d="M275 9q18 0 45 6.5t59 20.5t56.5 42.5t30.5 65.5l23 169q5 39 -4.5 69t-28 47.5t-44 29t-48 15.5t-44.5 4q-57 0 -102.5 -25t-72.5 -66t-41 -89.5t-14 -99.5q0 -85 43.5 -137t141.5 -52zM438 -56l19 132q-61 -90 -194 -90q-93 0 -145.5 52.5t-52.5 155.5q0 146 72.5 226
t184.5 80q23 0 47 -4t52.5 -13.5t51 -30.5t30.5 -51l11 83h27l-79 -563q-11 -78 -76 -112t-153 -34q-86 0 -154 31l13 25q70 -32 136 -32q44 0 78 6t55.5 18t36.5 24.5t23 31t11.5 32.5t5.5 33zM336 587l10 74h27l-10 -74h-27z" />
    <glyph glyph-name="Gcommaaccent" unicode="&#x122;" horiz-adv-x="665" 
d="M635 304h-147l4 26h173l-43 -306q-86 -36 -223 -36q-147 0 -231.5 85.5t-84.5 218.5q0 164 116.5 279t297.5 115q114 0 186 -39l-15 -23q-32 18 -75.5 28t-72.5 10q-101 0 -182 -32.5t-129.5 -86.5t-73.5 -116.5t-25 -128.5q0 -55 18 -105t53 -91t94.5 -65.5t134.5 -24.5
q99 0 188 30zM276 -214l106 163h31l-111 -163h-26z" />
    <glyph glyph-name="gcommaaccent" unicode="&#x123;" horiz-adv-x="534" 
d="M275 9q18 0 45 6.5t59 20.5t56.5 42.5t30.5 65.5l23 169q5 39 -4.5 69t-28 47.5t-44 29t-48 15.5t-44.5 4q-57 0 -102.5 -25t-72.5 -66t-41 -89.5t-14 -99.5q0 -85 43.5 -137t141.5 -52zM438 -56l19 132q-61 -90 -194 -90q-93 0 -145.5 52.5t-52.5 155.5q0 146 72.5 226
t184.5 80q23 0 47 -4t52.5 -13.5t51 -30.5t30.5 -51l11 83h27l-79 -563q-11 -78 -76 -112t-153 -34q-86 0 -154 31l13 25q70 -32 136 -32q44 0 78 6t55.5 18t36.5 24.5t23 31t11.5 32.5t5.5 33zM411 661l-76 -111h-33l83 111h26z" />
    <glyph glyph-name="Hcircumflex" unicode="&#x124;" horiz-adv-x="636" 
d="M591 337h-452l-47 -337h-27l95 674h27l-44 -312h452l44 312h27l-95 -674h-27zM435 835l-87 -91h-29l97 107h44l67 -107h-29z" />
    <glyph glyph-name="hcircumflex" unicode="&#x125;" horiz-adv-x="522" 
d="M503 291l-41 -291h-27l41 291q12 84 -24 134.5t-119 50.5q-19 0 -39 -3t-48 -14t-50.5 -29.5t-41.5 -53t-25 -79.5l-42 -297h-27l95 674h27l-39 -273q66 99 193 99q91 0 136.5 -51t30.5 -158zM190 834l-88 -91h-29l97 107h44l67 -107h-29z" />
    <glyph glyph-name="Hbar" unicode="&#x126;" horiz-adv-x="636" 
d="M591 337h-452l-47 -337h-27l95 674h27l-44 -312h452l44 312h27l-95 -674h-27zM344 851h188l-4 -24h-188z" />
    <glyph glyph-name="hbar" unicode="&#x127;" horiz-adv-x="536" 
d="M96 612h64l12 86h27l-12 -86h150l-3 -24h-150l-27 -187q66 99 193 99q91 0 136.5 -51t30.5 -158l-41 -291h-27l41 291q12 84 -24 134.5t-119 50.5q-19 0 -39 -3t-48 -14t-50 -29.5t-41 -53t-26 -79.5l-42 -297h-27l83 588h-64z" />
    <glyph glyph-name="Itilde" unicode="&#x128;" horiz-adv-x="147" 
d="M60 0l95 674h27l-95 -674h-27zM96 789h-25q11 32 34 48t52 14q21 -3 46 -20t37 -17q30 0 45 37h23q-8 -33 -29.5 -47t-46.5 -11q-23 3 -45 19t-40 16q-20 0 -30.5 -8.5t-20.5 -30.5z" />
    <glyph glyph-name="itilde" unicode="&#x129;" horiz-adv-x="166" 
d="M70 0l68 484h26l-68 -484h-26zM78 599h-25q11 32 34 48t52 14q22 -3 47 -20t37 -17q29 0 44 37h23q-8 -33 -29 -47t-46 -11q-23 3 -45.5 19t-40.5 16q-20 0 -30.5 -8.5t-20.5 -30.5z" />
    <glyph glyph-name="imacron" unicode="&#x12b;" horiz-adv-x="166" 
d="M70 0l68 484h26l-68 -484h-26zM82 661h188l-3 -24h-188z" />
    <glyph glyph-name="Ibreve" unicode="&#x12c;" horiz-adv-x="147" 
d="M60 0l95 674h27l-95 -674h-27zM178 735q-56 1 -83 33.5t-25 82.5h23q0 -44 22.5 -68t65.5 -24q88 0 114 92h23q-12 -50 -48.5 -82.5t-91.5 -33.5z" />
    <glyph glyph-name="Iogonek" unicode="&#x12e;" horiz-adv-x="147" 
d="M60 0l94 674h27l-94 -674h-4q-51 -56 -58.5 -102.5t22.5 -65t80 -2.5l54 17l-3 -23q-42 -19 -80 -23q-63 -6 -87.5 32.5t-1.5 92.5q13 32 51 74z" />
    <glyph glyph-name="iogonek" unicode="&#x12f;" horiz-adv-x="167" 
d="M70 0l68 484h27l-68 -484h-4q-50 -56 -58 -102.5t21.5 -65t80.5 -2.5l54 17l-3 -23q-42 -19 -80 -23q-63 -6 -87.5 32.5t-1.5 92.5q13 32 51 74zM154 600l10 74h27l-10 -74h-27z" />
    <glyph glyph-name="Idotaccent" unicode="&#x130;" horiz-adv-x="147" 
d="M60 0l95 674h27l-95 -674h-27zM169 777l11 74h27l-11 -74h-27z" />
    <glyph glyph-name="dotlessi" unicode="&#x131;" horiz-adv-x="166" 
d="M70 0l68 484h26l-68 -484h-26z" />
    <glyph glyph-name="IJ" unicode="&#x132;" horiz-adv-x="520" 
d="M60 0l95 674h27l-95 -674h-27zM159 14l12 26q3 -1 15 -5.5l16 -6t14.5 -4.5t17.5 -4.5t17 -3.5t20.5 -2.5t22.5 -0.5q71 0 108 40t50 123l70 498h28l-71 -505q-13 -98 -65.5 -140.5t-122.5 -42.5q-61 0 -132 28z" />
    <glyph glyph-name="ij" unicode="&#x133;" horiz-adv-x="342" 
d="M70 0l68 484h27l-68 -484h-27zM154 600l11 74h27l-11 -74h-27zM350 484l-81 -568q-5 -41 -19.5 -69.5t-28.5 -42t-35.5 -21t-31 -8t-25.5 -0.5q-20 0 -43 7l8 22q28 -7 43 -7q51 0 76.5 39t30.5 84l79 564h27zM339 600l11 74h27l-11 -74h-27z" />
    <glyph glyph-name="Jcircumflex" unicode="&#x134;" horiz-adv-x="373" 
d="M12 14l12 26q3 -1 15 -5.5l16 -6t14.5 -4.5t17.5 -4.5t17 -3.5t20.5 -2.5t22.5 -0.5q71 0 108 40t50 123l70 498h28l-71 -505q-13 -98 -65.5 -140.5t-122.5 -42.5q-61 0 -132 28zM411 835l-87 -91h-29l97 107h44l67 -107h-29z" />
    <glyph glyph-name="jcircumflex" unicode="&#x135;" horiz-adv-x="173" 
d="M171 484l-81 -568q-5 -41 -19.5 -69.5t-28.5 -42t-35.5 -21t-31 -8t-25.5 -0.5q-22 0 -43 7l8 22q28 -7 43 -7q27 0 48 12.5t32.5 33t17.5 39.5t8 38l80 564h27zM180 645l-88 -91h-29l98 107h44l66 -107h-29z" />
    <glyph glyph-name="Kcommaaccent" unicode="&#x136;" horiz-adv-x="533" 
d="M523 0h-34l-220 355l-148 -150l-29 -205h-27l95 674h27l-61 -433l413 433h32l-282 -299zM154 -214l107 163h31l-112 -163h-26z" />
    <glyph glyph-name="kcedilla" unicode="&#x137;" horiz-adv-x="434" 
d="M254 315l176 -315h-31l-167 297l-117 -99l-28 -198h-27l95 674h27l-62 -442l296 252h35zM223 10h23q31 -41 37 -84q6 -55 -28.5 -93t-95.5 -32q-33 4 -74 23l4 23l49 -17q48 -16 83.5 4.5t38.5 66t-37 109.5z" />
    <glyph glyph-name="kgreenlandic" unicode="&#x138;" horiz-adv-x="399" 
d="M241 274l148 -274h-31l-137 252l-114 -113l-20 -139h-27l68 484h27l-44 -310l300 310h35z" />
    <glyph glyph-name="Lacute" unicode="&#x139;" horiz-adv-x="494" 
d="M188 674l-91 -648h361l-4 -26h-389l95 674h28zM170 740l77 111h33l-84 -111h-26z" />
    <glyph glyph-name="lacute" unicode="&#x13a;" horiz-adv-x="167" 
d="M70 0l95 674h27l-95 -674h-27zM170 739l76 111h33l-83 -111h-26z" />
    <glyph glyph-name="Lcommaaccent" unicode="&#x13b;" horiz-adv-x="494" 
d="M188 674l-91 -648h361l-4 -26h-389l95 674h28zM142 -214l107 163h31l-112 -163h-26z" />
    <glyph glyph-name="lcommaaccent" unicode="&#x13c;" horiz-adv-x="167" 
d="M70 0l95 674h27l-95 -674h-27zM-43 -214l107 163h31l-112 -163h-26z" />
    <glyph glyph-name="Lcaron" unicode="&#x13d;" horiz-adv-x="494" 
d="M188 674l-91 -648h361l-4 -26h-389l95 674h28zM259 501l111 174h29l-113 -174h-27z" />
    <glyph glyph-name="lcaron" unicode="&#x13e;" horiz-adv-x="236" 
d="M70 0l95 674h27l-95 -674h-27zM231 500l111 174h29l-113 -174h-27z" />
    <glyph glyph-name="Ldot" unicode="&#x13f;" horiz-adv-x="494" 
d="M188 674l-91 -648h361l-4 -26h-389l95 674h28zM444 487l8 57h31l-8 -57h-31z" />
    <glyph glyph-name="ldot" unicode="&#x140;" horiz-adv-x="298" 
d="M70 0l95 674h27l-95 -674h-27zM259 297l8 57h31l-8 -57h-31z" />
    <glyph glyph-name="Lslash" unicode="&#x141;" horiz-adv-x="559" 
d="M130 0l39 280l-136 -81l4 31l137 81l51 363h28l-48 -342l136 86l-5 -33l-136 -85l-38 -271h361l-4 -29h-389z" />
    <glyph glyph-name="lslash" unicode="&#x142;" horiz-adv-x="306" 
d="M220 370l-52 -370h-28l49 347l-142 -83l4 31l142 84l42 295h28l-39 -273l140 85l-4 -32z" />
    <glyph glyph-name="Nacute" unicode="&#x143;" horiz-adv-x="644" 
d="M65 0l95 674h41l355 -645l91 645h27l-95 -674h-38l-358 645l-91 -645h-27zM409 740l77 111h33l-84 -111h-26z" />
    <glyph glyph-name="nacute" unicode="&#x144;" horiz-adv-x="524" 
d="M505 289l-41 -289h-28l41 289q13 87 -20.5 137t-117.5 50q-69 0 -132.5 -38t-74.5 -116l-45 -322h-27l68 484h28l-11 -79q18 29 45 49.5t56 29.5t51 12.5t42 3.5q92 0 136.5 -48t29.5 -163zM292 550l77 111h33l-84 -111h-26z" />
    <glyph glyph-name="Ncommaaccent" unicode="&#x145;" horiz-adv-x="644" 
d="M65 0l95 674h41l355 -645l91 645h27l-95 -674h-38l-358 645l-91 -645h-27zM183 -214l107 163h31l-112 -163h-26z" />
    <glyph glyph-name="ncommaaccent" unicode="&#x146;" horiz-adv-x="524" 
d="M505 289l-41 -289h-28l41 289q13 87 -20.5 137t-117.5 50q-69 0 -132.5 -38t-74.5 -116l-45 -322h-27l68 484h28l-11 -79q18 29 45 49.5t56 29.5t51 12.5t42 3.5q92 0 136.5 -48t29.5 -163zM135 -214l107 163h31l-112 -163h-26z" />
    <glyph glyph-name="Ncaron" unicode="&#x147;" horiz-adv-x="644" 
d="M65 0l95 674h41l355 -645l91 645h27l-95 -674h-38l-358 645l-91 -645h-27zM431 777l87 87h28l-95 -103h-44l-67 103h28z" />
    <glyph glyph-name="ncaron" unicode="&#x148;" horiz-adv-x="524" 
d="M505 289l-41 -289h-28l41 289q13 87 -20.5 137t-117.5 50q-69 0 -132.5 -38t-74.5 -116l-45 -322h-27l68 484h28l-11 -79q18 29 45 49.5t56 29.5t51 12.5t42 3.5q92 0 136.5 -48t29.5 -163zM344 587l88 87h28l-96 -103h-44l-66 103h28z" />
    <glyph glyph-name="Eng" unicode="&#x14a;" horiz-adv-x="644" 
d="M364 -218l4 27q7 -1 21 -1q71 0 109 40t49 123l4 29l-368 645l-91 -645h-27l95 674h41l357 -632l89 632h27l-100 -710q-13 -98 -65.5 -140.5t-122.5 -42.5q-4 0 -11 0.5t-11 0.5z" />
    <glyph glyph-name="eng" unicode="&#x14b;" horiz-adv-x="524" 
d="M432 -29l45 318q13 87 -20.5 137t-117.5 50q-69 0 -132.5 -38t-74.5 -116l-45 -322h-27l68 484h28l-11 -79q18 29 45 49.5t56 29.5t51 12.5t42 3.5q197 0 166 -211l-41 -289l-5 -36q-13 -98 -65.5 -140.5t-122.5 -42.5q-3 0 -11 0.5t-11 0.5l4 27q7 -1 21 -1q71 0 108 40
t50 123z" />
    <glyph glyph-name="Omacron" unicode="&#x14c;" horiz-adv-x="713" 
d="M355 -14q-128 0 -200.5 77.5t-72.5 213.5q0 186 102 297.5t269 111.5q129 0 201 -77t72 -212q0 -186 -102.5 -298.5t-268.5 -112.5zM450 662q-155 0 -248 -111t-93 -268q0 -123 64 -198t185 -75q158 0 249.5 108.5t91.5 269.5q0 119 -64 196.5t-185 77.5zM382 851h188
l-4 -24h-188z" />
    <glyph glyph-name="omacron" unicode="&#x14d;" horiz-adv-x="518" 
d="M60 198q0 137 74 219.5t195 82.5q93 0 145 -56.5t52 -156.5q0 -137 -74 -219.5t-195 -82.5q-93 0 -145 56.5t-52 156.5zM499 280q0 87 -45 141.5t-128 54.5q-110 0 -174.5 -79t-64.5 -192q0 -86 44.5 -141.5t128.5 -55.5q108 0 173.5 79t65.5 193zM258 661h188l-3 -24
h-188z" />
    <glyph glyph-name="Obreve" unicode="&#x14e;" horiz-adv-x="713" 
d="M355 -14q-128 0 -200.5 77.5t-72.5 213.5q0 186 102 297.5t269 111.5q129 0 201 -77t72 -212q0 -186 -102.5 -298.5t-268.5 -112.5zM450 662q-155 0 -248 -111t-93 -268q0 -123 64 -198t185 -75q158 0 249.5 108.5t91.5 269.5q0 119 -64 196.5t-185 77.5zM460 735
q-56 1 -83 33.5t-25 82.5h23q0 -44 22.5 -68t65.5 -24q88 0 114 92h23q-12 -50 -48.5 -82.5t-91.5 -33.5z" />
    <glyph glyph-name="obreve" unicode="&#x14f;" horiz-adv-x="518" 
d="M60 198q0 137 74 219.5t195 82.5q93 0 145 -56.5t52 -156.5q0 -137 -74 -219.5t-195 -82.5q-93 0 -145 56.5t-52 156.5zM499 280q0 87 -45 141.5t-128 54.5q-110 0 -174.5 -79t-64.5 -192q0 -86 44.5 -141.5t128.5 -55.5q108 0 173.5 79t65.5 193zM337 545
q-56 1 -83.5 33.5t-25.5 82.5h23q0 -44 22.5 -68t65.5 -24q88 0 114 92h23q-12 -50 -48.5 -82.5t-90.5 -33.5z" />
    <glyph glyph-name="Ohungarumlaut" unicode="&#x150;" horiz-adv-x="713" 
d="M355 -14q-128 0 -200.5 77.5t-72.5 213.5q0 186 102 297.5t269 111.5q129 0 201 -77t72 -212q0 -186 -102.5 -298.5t-268.5 -112.5zM450 662q-155 0 -248 -111t-93 -268q0 -123 64 -198t185 -75q158 0 249.5 108.5t91.5 269.5q0 119 -64 196.5t-185 77.5zM390 740l77 111
h33l-84 -111h-26zM485 740l77 111h33l-84 -111h-26z" />
    <glyph glyph-name="ohungarumlaut" unicode="&#x151;" horiz-adv-x="518" 
d="M60 198q0 137 74 219.5t195 82.5q93 0 145 -56.5t52 -156.5q0 -137 -74 -219.5t-195 -82.5q-93 0 -145 56.5t-52 156.5zM499 280q0 87 -45 141.5t-128 54.5q-110 0 -174.5 -79t-64.5 -192q0 -86 44.5 -141.5t128.5 -55.5q108 0 173.5 79t65.5 193zM268 550l77 111h33
l-84 -111h-26zM363 550l77 111h33l-84 -111h-26z" />
    <glyph glyph-name="OE" unicode="&#x152;" horiz-adv-x="1114" 
d="M450 662q-155 0 -248 -111t-93 -268q0 -123 64 -198t185 -75q158 0 249.5 108.5t91.5 269.5q0 119 -64 196.5t-185 77.5zM648 0l25 181q-48 -94 -129.5 -144.5t-188.5 -50.5q-128 0 -200.5 77.5t-72.5 213.5q0 186 102 297.5t269 111.5q107 0 175 -50t89 -144l26 182h414
l-4 -25h-387l-41 -295h358l-4 -26h-358l-43 -303h394l-3 -25h-421z" />
    <glyph glyph-name="oe" unicode="&#x153;" horiz-adv-x="943" 
d="M694 -14q-78 0 -131 42.5t-68 117.5q-32 -78 -93.5 -119.5t-144.5 -41.5q-93 0 -145 56.5t-52 156.5q0 137 74 219.5t195 82.5q81 0 131.5 -41.5t62.5 -117.5q34 73 96 116t135 43q99 0 151.5 -64t37.5 -183l-2 -16h-420l-1 -6q-14 -98 38.5 -159t152.5 -61q74 0 147 26
l5 -24q-70 -27 -169 -27zM326 476q-110 0 -174.5 -79t-64.5 -192q0 -86 44.5 -141.5t128.5 -55.5q89 0 150 57.5t81 150.5q2 11 4.5 30.5t3.5 25.5q4 91 -40.5 147.5t-132.5 56.5zM751 475q-79 0 -146.5 -64t-79.5 -152h392q15 108 -33 162t-133 54z" />
    <glyph glyph-name="Racute" unicode="&#x154;" horiz-adv-x="582" 
d="M434 300q28 -14 44 -40t27 -73l48 -187h-28l-57 213q-13 41 -40.5 60t-79.5 19h-214l-41 -292h-28l95 674h280q89 0 125.5 -47t36.5 -115q0 -15 -2.5 -33.5t-13 -47t-27.5 -53t-49.5 -46.5t-75.5 -32zM138 318h255q50 0 88 20t57.5 50.5t28.5 60.5t9 57q0 63 -34 104
t-107 41h-251zM348 740l77 111h33l-84 -111h-26z" />
    <glyph glyph-name="racute" unicode="&#x155;" horiz-adv-x="271" 
d="M323 474h-11q-61 0 -116.5 -45t-66.5 -125l-43 -304h-26l68 484h26l-12 -86q30 55 80.5 78.5t96.5 23.5h7zM143 550l77 111h33l-84 -111h-26z" />
    <glyph glyph-name="Rcommaaccent" unicode="&#x156;" horiz-adv-x="582" 
d="M434 300q28 -14 44 -40t27 -73l48 -187h-28l-57 213q-13 41 -40.5 60t-79.5 19h-214l-41 -292h-28l95 674h280q89 0 125.5 -47t36.5 -115q0 -15 -2.5 -33.5t-13 -47t-27.5 -53t-49.5 -46.5t-75.5 -32zM138 318h255q50 0 88 20t57.5 50.5t28.5 60.5t9 57q0 63 -34 104
t-107 41h-251zM172 -214l107 163h31l-112 -163h-26z" />
    <glyph glyph-name="rcommaaccent" unicode="&#x157;" horiz-adv-x="271" 
d="M323 474h-11q-61 0 -116.5 -45t-66.5 -125l-43 -304h-26l68 484h26l-12 -86q32 55 81.5 78.5t95.5 23.5h7zM-53 -214l107 163h31l-112 -163h-26z" />
    <glyph glyph-name="Rcaron" unicode="&#x158;" horiz-adv-x="582" 
d="M434 300q28 -14 44 -40t27 -73l48 -187h-28l-57 213q-13 41 -40.5 60t-79.5 19h-214l-41 -292h-28l95 674h280q89 0 125.5 -47t36.5 -115q0 -15 -2.5 -33.5t-13 -47t-27.5 -53t-49.5 -46.5t-75.5 -32zM138 318h255q50 0 88 20t57.5 50.5t28.5 60.5t9 57q0 63 -34 104
t-107 41h-251zM400 777l87 87h28l-95 -103h-44l-67 103h28z" />
    <glyph glyph-name="rcaron" unicode="&#x159;" horiz-adv-x="271" 
d="M323 474h-11q-61 0 -116.5 -45t-66.5 -125l-43 -304h-26l68 484h26l-12 -86q30 55 80.5 78.5t96.5 23.5h7zM218 587l88 87h28l-96 -103h-44l-66 103h28z" />
    <glyph glyph-name="Sacute" unicode="&#x15a;" horiz-adv-x="533" 
d="M354 686q119 0 196 -59l-15 -22q-31 19 -50.5 29t-55 18.5t-77.5 8.5q-69 0 -125.5 -29t-81.5 -89q-6 -20 -6 -37.5t3.5 -31t13.5 -25.5t20 -21t26 -17.5t28.5 -14.5t30.5 -13l173 -72q60 -24 79.5 -62t12.5 -76q-14 -85 -85 -136t-163 -51q-142 0 -239 80l17 22
q102 -77 222 -77q64 0 129.5 35t82.5 93q38 99 -68 148q-5 2 -210 87q-58 26 -85 64t-8 105q18 64 83 103.5t152 39.5zM341 740l76 111h33l-83 -111h-26z" />
    <glyph glyph-name="sacute" unicode="&#x15b;" horiz-adv-x="401" 
d="M349 78q19 36 12.5 62.5t-19 39t-30.5 19.5l-157 63q-45 22 -60.5 54t-2.5 82q14 45 61 73.5t109 28.5q87 0 144 -36l-14 -23q-64 34 -127 34q-72 0 -112 -31.5t-40 -78.5q0 -34 22.5 -56t70.5 -38l107 -41q75 -29 75 -99q0 -66 -50.5 -105.5t-131.5 -39.5q-97 0 -171 53
l13 23q27 -16 44 -25t49.5 -18t65.5 -9q40 0 81.5 15.5t60.5 52.5zM255 550l76 111h33l-83 -111h-26z" />
    <glyph glyph-name="Scircumflex" unicode="&#x15c;" horiz-adv-x="533" 
d="M354 686q119 0 196 -59l-15 -22q-31 19 -50.5 29t-55 18.5t-77.5 8.5q-69 0 -125.5 -29t-81.5 -89q-6 -20 -6 -37.5t3.5 -31t13.5 -25.5t20 -21t26 -17.5t28.5 -14.5t30.5 -13l173 -72q60 -24 79.5 -62t12.5 -76q-14 -85 -85 -136t-163 -51q-142 0 -239 80l17 22
q102 -77 222 -77q64 0 129.5 35t82.5 93q38 99 -68 148q-5 2 -210 87q-58 26 -85 64t-8 105q18 64 83 103.5t152 39.5zM383 835l-88 -91h-29l97 107h44l67 -107h-29z" />
    <glyph glyph-name="scircumflex" unicode="&#x15d;" horiz-adv-x="401" 
d="M349 78q19 36 12.5 62.5t-19 39t-30.5 19.5l-157 63q-45 22 -60.5 54t-2.5 82q14 45 61 73.5t109 28.5q87 0 144 -36l-14 -23q-64 34 -127 34q-72 0 -112 -31.5t-40 -78.5q0 -34 22.5 -56t70.5 -38l107 -41q75 -29 75 -99q0 -66 -50.5 -105.5t-131.5 -39.5q-97 0 -171 53
l13 23q27 -16 44 -25t49.5 -18t65.5 -9q40 0 81.5 15.5t60.5 52.5zM290 645l-88 -91h-29l97 107h44l67 -107h-29z" />
    <glyph glyph-name="Scedilla" unicode="&#x15e;" horiz-adv-x="533" 
d="M292 -13q15 -28 21 -61q6 -55 -27.5 -93t-95.5 -32q-33 4 -74 23l3 23l50 -17q43 -16 77 1.5t41.5 57.5t-19.5 97q-139 5 -229 80l17 22q102 -77 222 -77q64 0 129.5 35t82.5 93q38 99 -68 148q-5 2 -210 87q-58 26 -85 64t-8 105q18 64 83 103.5t152 39.5q119 0 196 -59
l-15 -22q-31 19 -50.5 29t-55 18.5t-77.5 8.5q-69 0 -125.5 -29t-81.5 -89q-6 -20 -6 -37.5t3.5 -31t13.5 -25.5t20 -21t26 -17.5t28.5 -14.5t30.5 -13l173 -72q60 -24 79.5 -62t12.5 -76q-14 -82 -80 -132t-154 -54z" />
    <glyph glyph-name="scedilla" unicode="&#x15f;" horiz-adv-x="401" 
d="M223 -13q16 -29 22 -61q6 -55 -27.5 -93t-95.5 -32q-33 4 -74 23l3 23l50 -17q44 -16 79 1.5t42 57.5t-21 97q-97 2 -166 53l13 23q5 -3 27 -17.5t31.5 -18.5t32 -10t47.5 -6q43 0 93.5 16t69.5 52t12.5 62.5t-19 39t-30.5 19.5l-157 63q-45 22 -60.5 54t-2.5 82
q14 45 61 73.5t109 28.5q87 0 144 -36l-14 -23q-64 34 -127 34q-72 0 -112 -31.5t-40 -78.5q0 -34 22.5 -56t70.5 -38l107 -41q75 -29 75 -99q0 -63 -45 -101.5t-120 -42.5z" />
    <glyph glyph-name="Scaron" unicode="&#x160;" horiz-adv-x="533" 
d="M354 686q119 0 196 -59l-15 -22q-31 19 -50.5 29t-55 18.5t-77.5 8.5q-69 0 -125.5 -29t-81.5 -89q-6 -20 -6 -37.5t3.5 -31t13.5 -25.5t20 -21t26 -17.5t28.5 -14.5t30.5 -13l173 -72q60 -24 79.5 -62t12.5 -76q-14 -85 -85 -136t-163 -51q-142 0 -239 80l17 22
q102 -77 222 -77q64 0 129.5 35t82.5 93q38 99 -68 148q-5 2 -210 87q-58 26 -85 64t-8 105q18 64 83 103.5t152 39.5zM375 777l87 87h28l-95 -103h-44l-67 103h28z" />
    <glyph glyph-name="scaron" unicode="&#x161;" horiz-adv-x="401" 
d="M349 78q19 36 12.5 62.5t-19 39t-30.5 19.5l-157 63q-45 22 -60.5 54t-2.5 82q14 45 61 73.5t109 28.5q87 0 144 -36l-14 -23q-64 34 -127 34q-72 0 -112 -31.5t-40 -78.5q0 -34 22.5 -56t70.5 -38l107 -41q75 -29 75 -99q0 -66 -50.5 -105.5t-131.5 -39.5q-97 0 -171 53
l13 23q27 -16 44 -25t49.5 -18t65.5 -9q40 0 81.5 15.5t60.5 52.5zM282 587l87 87h28l-95 -103h-44l-67 103h28z" />
    <glyph glyph-name="Tcommaaccent" unicode="&#x162;" horiz-adv-x="519" 
d="M600 649h-236l-91 -649h-27l91 649h-236l4 25h499zM133 -214l107 163h31l-112 -163h-26z" />
    <glyph glyph-name="tcommaaccent" unicode="&#x163;" horiz-adv-x="272" 
d="M151 461h-83l3 23h83l19 138h26l-19 -138h127l-3 -23h-127l-46 -329q-2 -27 -4 -54.5t17.5 -48.5t59.5 -21q20 0 44 11q0 -2 2 -12t2 -11q-28 -10 -53 -10h-12.5t-13.5 1t-15 2.5t-14 5t-14 8.5t-11.5 12.5t-9.5 18.5t-6 24t-2.5 31t3.5 39zM42 -214l107 163h31
l-112 -163h-26z" />
    <glyph glyph-name="Tcaron" unicode="&#x164;" horiz-adv-x="519" 
d="M600 649h-236l-91 -649h-27l91 649h-236l4 25h499zM368 777l87 87h28l-95 -103h-44l-67 103h28z" />
    <glyph glyph-name="tcaron" unicode="&#x165;" horiz-adv-x="353" 
d="M151 461h-83l3 23h83l20 138h26l-20 -138h127l-3 -23h-127l-46 -329q-2 -27 -4 -54.5t17.5 -48.5t59.5 -21q20 0 44 11q0 -2 2 -12t2 -11q-28 -10 -53 -10h-12.5t-13.5 1t-15 2.5t-14 5t-14 8.5t-11.5 12.5t-9.5 18.5t-6 24t-2.5 31t3.5 39zM246 545l110 174h29
l-112 -174h-27z" />
    <glyph glyph-name="Tbar" unicode="&#x166;" horiz-adv-x="519" 
d="M600 649h-236l-91 -649h-27l91 649h-236l4 25h499zM284 851h188l-3 -24h-188z" />
    <glyph glyph-name="tbar" unicode="&#x167;" horiz-adv-x="272" 
d="M127 294h-71l3 22h71l20 145h-83l4 23h83l19 138h26l-19 -138h127l-4 -23h-127l-20 -145h85l-3 -22h-85l-23 -162q-4 -24 -4 -41.5t5 -38.5t23.5 -32.5t49.5 -11.5q23 0 43 11q4 -16 4 -23q-27 -10 -52 -10h-12.5t-13.5 1t-15 2.5t-14 5t-14 8.5t-11.5 12.5t-9.5 18.5
t-6 24t-2.5 31t3.5 39z" />
    <glyph glyph-name="Utilde" unicode="&#x168;" horiz-adv-x="666" 
d="M330 -14q-130 0 -188.5 67.5t-37.5 223.5l56 397h28l-55 -391q-20 -141 27.5 -206t173.5 -65q127 0 193 64.5t86 206.5l55 391h28l-56 -397q-21 -155 -100 -223t-210 -68zM355 789h-25q11 32 34 48t52 14q22 -3 47 -20t37 -17q29 0 44 37h23q-8 -33 -29 -47t-46 -11
q-23 3 -45 19t-40 16q-20 0 -31 -8.5t-21 -30.5z" />
    <glyph glyph-name="utilde" unicode="&#x169;" horiz-adv-x="524" 
d="M88 195l40 289h27l-41 -289q-12 -85 22.5 -134.5t117.5 -49.5q23 0 51 6t62.5 21.5t60.5 49.5t33 82l44 314h27l-68 -484h-28l12 83q-33 -54 -90 -75.5t-105 -21.5q-92 0 -137 47.5t-28 161.5zM258 599h-25q11 32 34 48t51 14q22 -3 47 -20t37 -17q29 0 44 37h23
q-6 -33 -28 -47t-47 -11q-23 3 -45 19t-40 16q-20 0 -30.5 -8.5t-20.5 -30.5z" />
    <glyph glyph-name="Umacron" unicode="&#x16a;" horiz-adv-x="666" 
d="M330 -14q-130 0 -188.5 67.5t-37.5 223.5l56 397h28l-55 -391q-20 -141 27.5 -206t173.5 -65q127 0 193 64.5t86 206.5l55 391h28l-56 -397q-21 -155 -100 -223t-210 -68zM359 851h188l-3 -24h-188z" />
    <glyph glyph-name="umacron" unicode="&#x16b;" horiz-adv-x="524" 
d="M88 195l40 289h27l-41 -289q-12 -85 22.5 -134.5t117.5 -49.5q23 0 51 6t62.5 21.5t60.5 49.5t33 82l44 314h27l-68 -484h-28l12 83q-33 -54 -90 -75.5t-105 -21.5q-92 0 -137 47.5t-28 161.5zM261 661h188l-3 -24h-188z" />
    <glyph glyph-name="Ubreve" unicode="&#x16c;" horiz-adv-x="666" 
d="M330 -14q-130 0 -188.5 67.5t-37.5 223.5l56 397h28l-55 -391q-20 -141 27.5 -206t173.5 -65q127 0 193 64.5t86 206.5l55 391h28l-56 -397q-21 -155 -100 -223t-210 -68zM438 735q-56 1 -83.5 33.5t-25.5 82.5h23q0 -44 22.5 -68t65.5 -24q88 0 114 92h23
q-12 -50 -48.5 -82.5t-90.5 -33.5z" />
    <glyph glyph-name="ubreve" unicode="&#x16d;" horiz-adv-x="524" 
d="M88 195l40 289h27l-41 -289q-12 -85 22.5 -134.5t117.5 -49.5q23 0 51 6t62.5 21.5t60.5 49.5t33 82l44 314h27l-68 -484h-28l12 83q-33 -54 -90 -75.5t-105 -21.5q-92 0 -137 47.5t-28 161.5zM340 545q-55 0 -83 33.5t-26 82.5h23q0 -44 22.5 -68t65.5 -24q88 0 114 92
h23q-12 -50 -48.5 -82.5t-90.5 -33.5z" />
    <glyph glyph-name="Uring" unicode="&#x16e;" horiz-adv-x="666" 
d="M330 -14q-130 0 -188.5 67.5t-37.5 223.5l56 397h28l-55 -391q-20 -141 27.5 -206t173.5 -65q127 0 193 64.5t86 206.5l55 391h28l-56 -397q-21 -155 -100 -223t-210 -68zM374 822q0 35 23 60.5t64 25.5q32 0 48.5 -18.5t16.5 -47.5q0 -35 -25 -61.5t-62 -26.5
q-30 0 -47.5 20t-17.5 48zM503 838q0 20 -11.5 34.5t-34.5 14.5q-27 0 -43.5 -20t-16.5 -43q0 -20 11 -34.5t33 -14.5q28 0 45 20t17 43z" />
    <glyph glyph-name="uring" unicode="&#x16f;" horiz-adv-x="524" 
d="M88 195l40 289h27l-41 -289q-12 -85 22.5 -134.5t117.5 -49.5q23 0 51 6t62.5 21.5t60.5 49.5t33 82l44 314h27l-68 -484h-28l12 83q-33 -54 -90 -75.5t-105 -21.5q-92 0 -137 47.5t-28 161.5zM277 632q0 35 23 60.5t63 25.5q32 0 48.5 -18.5t16.5 -47.5
q0 -35 -24.5 -61.5t-61.5 -26.5q-31 0 -48 19.5t-17 48.5zM405 648q0 20 -11.5 34.5t-34.5 14.5q-27 0 -43.5 -20t-16.5 -43q0 -20 11.5 -34.5t33.5 -14.5q28 0 44.5 20t16.5 43z" />
    <glyph glyph-name="Uhungarumlaut" unicode="&#x170;" horiz-adv-x="666" 
d="M330 -14q-130 0 -188.5 67.5t-37.5 223.5l56 397h28l-55 -391q-20 -141 27.5 -206t173.5 -65q127 0 193 64.5t86 206.5l55 391h28l-56 -397q-21 -155 -100 -223t-210 -68zM367 740l77 111h33l-84 -111h-26zM462 740l77 111h33l-84 -111h-26z" />
    <glyph glyph-name="uhungarumlaut" unicode="&#x171;" horiz-adv-x="524" 
d="M88 195l40 289h27l-41 -289q-12 -85 22.5 -134.5t117.5 -49.5q23 0 51 6t62.5 21.5t60.5 49.5t33 82l44 314h27l-68 -484h-28l12 83q-33 -54 -90 -75.5t-105 -21.5q-92 0 -137 47.5t-28 161.5zM261 550l76 111h33l-83 -111h-26zM356 550l76 111h33l-83 -111h-26z" />
    <glyph glyph-name="Uogonek" unicode="&#x172;" horiz-adv-x="666" 
d="M347 -14q-26 -32 -38 -62t-9.5 -50t15.5 -34.5t36 -16t52 6.5l55 17l-4 -23q-42 -19 -80 -23q-63 -6 -87 32t-1 93q12 28 38 60q-127 2 -184 69.5t-36 221.5l56 397h28l-55 -391q-20 -142 27.5 -206.5t173.5 -64.5q127 0 193 64.5t86 206.5l55 391h28l-56 -397
q-21 -150 -95 -218.5t-198 -72.5z" />
    <glyph glyph-name="uogonek" unicode="&#x173;" horiz-adv-x="524" 
d="M88 195l40 289h27l-41 -289q-12 -85 22.5 -134.5t117.5 -49.5q23 0 51 6t62.5 21.5t60.5 49.5t33 82l44 314h27l-68 -484h-5q-50 -56 -58 -102.5t22 -65t81 -2.5l54 17l-3 -23q-45 -19 -81 -23q-63 -6 -87 32t-1 93q12 31 50 74l12 83q-33 -54 -90 -75.5t-105 -21.5
q-92 0 -137 47.5t-28 161.5z" />
    <glyph glyph-name="Wcircumflex" unicode="&#x174;" horiz-adv-x="932" 
d="M571 647l125 -618l294 645h27l-307 -674h-35l-123 607l-293 -607h-37l-117 674h27l113 -644l299 617h27zM584 835l-88 -91h-29l97 107h44l67 -107h-29z" />
    <glyph glyph-name="wcircumflex" unicode="&#x175;" horiz-adv-x="774" 
d="M440 468h26l113 -435l225 451h28l-242 -484h-29l-113 435l-234 -435h-30l-106 484h28l99 -451zM478 645l-88 -91h-29l97 107h44l67 -107h-29z" />
    <glyph glyph-name="Ycircumflex" unicode="&#x176;" horiz-adv-x="568" 
d="M297 0h-28l34 238l-198 436h31l184 -410l300 410h33l-322 -436zM402 835l-88 -91h-29l97 107h44l67 -107h-29z" />
    <glyph glyph-name="ycircumflex" unicode="&#x177;" horiz-adv-x="495" 
d="M47 -222l8 22q8 -1 15 -1q66 0 109 71l59 108l-160 506h31l149 -472l264 472h31l-363 -641q-22 -37 -56 -52.5t-59 -15.5q-13 0 -28 3zM338 645l-88 -91h-29l97 107h44l67 -107h-29z" />
    <glyph glyph-name="Ydieresis" unicode="&#x178;" horiz-adv-x="568" 
d="M297 0h-28l34 238l-198 436h31l184 -410l300 410h33l-322 -436zM322 777l11 74h27l-11 -74h-27zM436 777l11 74h27l-11 -74h-27z" />
    <glyph glyph-name="Zacute" unicode="&#x179;" horiz-adv-x="568" 
d="M518 0h-488l4 26l567 626h-460l3 22h489l-4 -25l-565 -625h457zM362 740l77 111h33l-84 -111h-26z" />
    <glyph glyph-name="zacute" unicode="&#x17a;" horiz-adv-x="440" 
d="M25 0l3 22l420 439h-346l3 23h378l-3 -23l-418 -438h344l-3 -23h-378zM273 550l77 111h33l-84 -111h-26z" />
    <glyph glyph-name="Zdotaccent" unicode="&#x17b;" horiz-adv-x="568" 
d="M518 0h-488l4 26l567 626h-460l3 22h489l-4 -25l-565 -625h457zM379 777l11 74h27l-11 -74h-27z" />
    <glyph glyph-name="zdotaccent" unicode="&#x17c;" horiz-adv-x="440" 
d="M25 0l3 22l420 439h-346l3 23h378l-3 -23l-418 -438h344l-3 -23h-378zM288 587l11 74h27l-11 -74h-27z" />
    <glyph glyph-name="Zcaron" unicode="&#x17d;" horiz-adv-x="568" 
d="M518 0h-488l4 26l567 626h-460l3 22h489l-4 -25l-565 -625h457zM393 777l87 87h28l-95 -103h-44l-67 103h28z" />
    <glyph glyph-name="zcaron" unicode="&#x17e;" horiz-adv-x="440" 
d="M25 0l3 22l420 439h-346l3 23h378l-3 -23l-418 -438h344l-3 -23h-378zM302 587l88 87h28l-96 -103h-44l-66 103h28z" />
    <glyph glyph-name="longs" unicode="&#x17f;" horiz-adv-x="238" 
d="M84 484h79l9 62q6 41 20.5 69.5t28.5 42t35.5 20.5t30.5 7.5t23 0.5h4q19 0 40 -7l-7 -21q-20 6 -37 6q-30 0 -51.5 -10.5t-33 -28.5t-17 -34t-7.5 -34l-110 -771h-28l97 674h-79z" />
    <glyph glyph-name="florin" unicode="&#x192;" horiz-adv-x="534" 
d="M145 -78l214 539h-70l8 23h70l24 52q19 43 41.5 73.5t39 45t38 22.5t31.5 8.5t26 0.5h6q18 0 37 -5l-6 -25q-10 4 -31 6q-32 3 -60.5 -11t-47.5 -38t-30 -42.5t-18 -36.5l-23 -50h109l-8 -24h-110l-211 -533q-60 -152 -184 -152q-17 0 -35 8l10 23q28 -7 29 -7
q98 0 151 123z" />
    <glyph glyph-name="Aringacute" unicode="&#x1fa;" horiz-adv-x="631" 
d="M38 0h-28l386 674h30l195 -674h-27l-52 172h-406zM406 643l-257 -448h385zM351 809q0 35 23.5 60.5t63.5 25.5q32 0 48.5 -18.5t16.5 -47.5q0 -35 -25 -61.5t-62 -26.5q-30 0 -47.5 20t-17.5 48zM480 825q0 20 -11.5 34.5t-34.5 14.5q-28 0 -44.5 -20t-16.5 -43
q0 -20 11.5 -34.5t33.5 -14.5q28 0 45 20t17 43zM431 930l76 111h33l-83 -111h-26z" />
    <glyph glyph-name="aringacute" unicode="&#x1fb;" horiz-adv-x="476" 
d="M247 632q0 35 23 60.5t63 25.5q32 0 48.5 -18.5t16.5 -47.5q0 -35 -24.5 -61.5t-61.5 -26.5q-31 0 -48 19.5t-17 48.5zM375 648q0 20 -11.5 34.5t-34.5 14.5q-27 0 -43.5 -20t-16.5 -43q0 -20 11.5 -34.5t33.5 -14.5q28 0 44.5 20t16.5 43zM326 753l77 111h33l-84 -111
h-26zM421 0h-26l13 93q-26 -50 -88.5 -78.5t-117.5 -28.5q-67 0 -111.5 31.5t-44.5 88.5q0 91 95 133.5t296 52.5l8 60q1 6 1.5 13t-1 20t-6 24.5t-14.5 24.5t-25 22t-40.5 15t-57.5 6q-51 0 -148 -31l-7 22q90 32 161 32q52 0 89 -15q87 -32 74 -129zM207 8q13 0 33.5 3.5
t50.5 14.5t55.5 27.5t46.5 47t26 68.5l14 101q-347 -17 -363 -148q-6 -50 34 -82t103 -32z" />
    <glyph glyph-name="AEacute" unicode="&#x1fc;" horiz-adv-x="934" 
d="M456 651l-295 -456h333l64 456h-102zM498 25h395l-4 -25h-422l24 170h-340l-113 -170h-28l432 674h533l-4 -23h-385l-41 -298h357l-4 -25h-358zM524 740l77 111h33l-84 -111h-26z" />
    <glyph glyph-name="aeacute" unicode="&#x1fd;" horiz-adv-x="874" 
d="M491 550l76 111h33l-83 -111h-26zM436 115l-3 10l-2 6q-5 -16 -15 -31q-4 -9 -12 -18q-39 -50 -98 -73t-112 -23q-60 0 -100 31t-40 87q0 39 18 67.5t48.5 47.5t80.5 32t104.5 19.5t128.5 10.5l10 71v6q1 5 1 10t-0.5 14t-2.5 17t-7 18t-11.5 18t-18 15.5t-25.5 13t-34 9
t-44 3.5q-58 0 -145 -29l-5 21q79 32 156 32q49 0 85 -13q84 -31 78 -115q37 60 93.5 94t121.5 34q102 0 154 -58.5t37 -177.5l-2 -15h-420q-15 -115 35 -176.5t153 -61.5q74 0 147 26l4 -24q-70 -27 -168 -27q-70 0 -120 33.5t-70 95.5zM683 476q-80 0 -145.5 -58
t-77.5 -145h391q15 106 -33.5 154.5t-134.5 48.5zM207 9q16 0 44.5 7.5t65.5 24t66 51.5t36 82l12 85q-164 -9 -251.5 -40t-95.5 -97q-6 -56 27 -84.5t96 -28.5z" />
    <glyph glyph-name="Oslashacute" unicode="&#x1fe;" horiz-adv-x="713" 
d="M462 740l77 111h33l-84 -111h-26zM174 42l-76 -95h-32l90 111q-74 74 -74 219q0 186 102.5 297.5t269.5 111.5q105 0 175 -51l70 85h32l-84 -101q79 -73 79 -223q0 -186 -102 -298t-269 -112q-113 0 -181 56zM174 80l435 532q-61 50 -159 50q-155 0 -248 -111t-93 -269
q0 -133 65 -202zM628 595l-437 -532q65 -53 168 -53q157 0 248.5 108.5t91.5 268.5q0 138 -71 208z" />
    <glyph glyph-name="oslashacute" unicode="&#x1ff;" horiz-adv-x="518" 
d="M335 550l77 111h33l-84 -111h-26zM457 462l55 70h28l-66 -85q52 -52 52 -160q0 -137 -74 -219.5t-195 -82.5q-72 0 -119 32l-60 -75h-28l70 88q-60 54 -60 168q0 137 74 219.5t195 82.5q78 0 128 -38zM455 423l-300 -384q42 -31 105 -31q107 0 173.5 79t66.5 193
q0 92 -45 143zM138 53l301 386q-45 37 -113 37q-110 0 -174.5 -79t-64.5 -192q0 -101 51 -152z" />
    <glyph glyph-name="Scommaaccent" unicode="&#x218;" horiz-adv-x="533" 
d="M354 686q119 0 196 -59l-15 -22q-31 19 -50.5 29t-55 18.5t-77.5 8.5q-69 0 -125.5 -29t-81.5 -89q-6 -20 -6 -37.5t3.5 -31t13.5 -25.5t20 -21t26 -17.5t28.5 -14.5t30.5 -13l173 -72q60 -24 79.5 -62t12.5 -76q-14 -85 -85 -136t-163 -51q-142 0 -239 80l17 22
q102 -77 222 -77q64 0 129.5 35t82.5 93q38 99 -68 148q-5 2 -210 87q-58 26 -85 64t-8 105q18 64 83 103.5t152 39.5zM149 -214l107 163h31l-112 -163h-26z" />
    <glyph glyph-name="scommaaccent" unicode="&#x219;" horiz-adv-x="401" 
d="M349 78q19 36 12.5 62.5t-19 39t-30.5 19.5l-157 63q-45 22 -60.5 54t-2.5 82q14 45 61 73.5t109 28.5q87 0 144 -36l-14 -23q-64 34 -127 34q-72 0 -112 -31.5t-40 -78.5q0 -34 22.5 -56t70.5 -38l107 -41q75 -29 75 -99q0 -66 -50.5 -105.5t-131.5 -39.5q-97 0 -171 53
l13 23q27 -16 44 -25t49.5 -18t65.5 -9q40 0 81.5 15.5t60.5 52.5zM80 -214l107 163h31l-112 -163h-26z" />
    <glyph glyph-name="hsuperior" unicode="&#x2b0;" horiz-adv-x="311" 
d="M366 604l-25 -179h-27l25 179q7 48 -12.5 77t-68.5 29q-15 0 -30 -3.5t-34.5 -12.5t-33.5 -31.5t-19 -54.5l-26 -183h-25l58 413h25l-22 -160q44 57 111 57q122 0 104 -131z" />
    <glyph glyph-name="jsuperior" unicode="&#x2b2;" horiz-adv-x="101" 
d="M170 725l-48 -345q-13 -90 -91 -90q-12 0 -31 6l8 20l29 -3q50 0 59 69l48 343h26zM153 785l7 53h26l-7 -53h-26z" />
    <glyph glyph-name="wsuperior" unicode="&#x2b7;" horiz-adv-x="477" 
d="M329 715h23l64 -251l130 261h28l-149 -300h-25l-65 251l-135 -251h-26l-67 300h29l56 -260q24 45 72.5 132.5t64.5 117.5z" />
    <glyph glyph-name="ysuperior" unicode="&#x2b8;" horiz-adv-x="310" 
d="M89 293l8 22q3 -1 12 -1q33 0 59 39l35 64l-96 308h30l85 -276l155 276h30l-221 -391q-14 -23 -36.5 -33.5t-38.5 -10.5q-13 0 -22 3z" />
    <glyph glyph-name="circumflex" unicode="&#x2c6;" horiz-adv-x="288" 
d="M235 645l-88 -91h-29l97 107h44l67 -107h-29z" />
    <glyph glyph-name="caron" unicode="&#x2c7;" horiz-adv-x="286" 
d="M226 587l87 87h28l-95 -103h-44l-67 103h28z" />
    <glyph glyph-name="breve" unicode="&#x2d8;" horiz-adv-x="328" 
d="M241 545q-55 1 -82.5 33.5t-25.5 82.5h23q0 -44 22.5 -68t65.5 -24q88 0 114 92h23q-12 -50 -48.5 -82.5t-91.5 -33.5z" />
    <glyph glyph-name="dotaccent" unicode="&#x2d9;" horiz-adv-x="107" 
d="M122 587l10 74h27l-10 -74h-27z" />
    <glyph glyph-name="ring" unicode="&#x2da;" horiz-adv-x="230" 
d="M129 632q0 35 23.5 60.5t63.5 25.5q32 0 48.5 -18.5t16.5 -47.5q0 -35 -25 -61.5t-62 -26.5q-31 0 -48 19.5t-17 48.5zM258 648q0 20 -11.5 34.5t-34.5 14.5q-28 0 -44.5 -20t-16.5 -43q0 -20 11.5 -34.5t33.5 -14.5q28 0 45 20t17 43z" />
    <glyph glyph-name="ogonek" unicode="&#x2db;" horiz-adv-x="268" 
d="M94 10h23q-82 -87 -67 -146q10 -42 64 -41q18 1 38 7l55 17l-4 -23q-42 -19 -80 -23q-63 -6 -87 32t-1 93q13 38 59 84z" />
    <glyph glyph-name="tilde" unicode="&#x2dc;" horiz-adv-x="308" 
d="M149 599h-25q11 32 34 48t52 14q22 -3 47 -20t37 -17q29 0 44 37h23q-8 -33 -29 -47t-46 -11q-23 3 -45.5 19t-40.5 16q-20 0 -30.5 -8.5t-20.5 -30.5z" />
    <glyph glyph-name="hungarumlaut" unicode="&#x2dd;" horiz-adv-x="269" 
d="M117 550l77 111h33l-84 -111h-26zM212 550l77 111h33l-84 -111h-26z" />
    <glyph glyph-name="xsuperior" unicode="&#x2e3;" horiz-adv-x="272" 
d="M97 425h-32l136 149q-72 119 -93 151h33l80 -130l116 130h31l-136 -151q12 -19 45 -71t50 -78h-32l-80 128z" />
    <glyph glyph-name="Delta" unicode="&#x394;" horiz-adv-x="631" 
d="M10 0l386 674h30l195 -674h-611zM406 643l-353 -618h534z" />
    <glyph glyph-name="Delta" unicode="&#x2206;" horiz-adv-x="631" 
d="M10 0l386 674h30l195 -674h-611zM406 643l-353 -618h534z" />
    <glyph glyph-name="Omega" unicode="&#x3a9;" horiz-adv-x="710" 
d="M446 651q-91 0 -167.5 -53.5t-118.5 -139.5t-42 -182q0 -88 37.5 -151.5t113.5 -88.5l-5 -36h-213l4 26h182q-68 17 -106.5 89t-38.5 164q0 100 44 190t127.5 148t186.5 58q123 0 191.5 -86.5t68.5 -212.5q0 -121 -65 -224t-164 -126h182l-4 -26h-213l5 36
q114 35 173 126t59 210q0 117 -63.5 198t-173.5 81z" />
    <glyph glyph-name="Omega" unicode="&#x2126;" horiz-adv-x="710" 
d="M446 651q-91 0 -167.5 -53.5t-118.5 -139.5t-42 -182q0 -88 37.5 -151.5t113.5 -88.5l-5 -36h-213l4 26h182q-68 17 -106.5 89t-38.5 164q0 100 44 190t127.5 148t186.5 58q123 0 191.5 -86.5t68.5 -212.5q0 -121 -65 -224t-164 -126h182l-4 -26h-213l5 36
q114 35 173 126t59 210q0 117 -63.5 198t-173.5 81z" />
    <glyph glyph-name="pi" unicode="&#x3c0;" horiz-adv-x="534" 
d="M188 458h-99l4 26h484l-4 -26h-108l-64 -458h-26l64 458h-225l-64 -458h-26z" />
    <glyph glyph-name="Wgrave" unicode="&#x1e80;" horiz-adv-x="932" 
d="M571 647l125 -618l294 645h27l-307 -674h-35l-123 607l-293 -607h-37l-117 674h27l113 -644l299 617h27zM530 851l45 -111h-26l-52 111h33z" />
    <glyph glyph-name="wgrave" unicode="&#x1e81;" horiz-adv-x="774" 
d="M440 468h26l113 -435l225 451h28l-242 -484h-29l-113 435l-234 -435h-30l-106 484h28l99 -451zM427 661l45 -111h-26l-52 111h33z" />
    <glyph glyph-name="Wacute" unicode="&#x1e82;" horiz-adv-x="932" 
d="M571 647l125 -618l294 645h27l-307 -674h-35l-123 607l-293 -607h-37l-117 674h27l113 -644l299 617h27zM558 740l77 111h33l-84 -111h-26z" />
    <glyph glyph-name="wacute" unicode="&#x1e83;" horiz-adv-x="774" 
d="M440 468h26l113 -435l225 451h28l-242 -484h-29l-113 435l-234 -435h-30l-106 484h28l99 -451zM456 550l77 111h33l-84 -111h-26z" />
    <glyph glyph-name="Wdieresis" unicode="&#x1e84;" horiz-adv-x="932" 
d="M571 647l125 -618l294 645h27l-307 -674h-35l-123 607l-293 -607h-37l-117 674h27l113 -644l299 617h27zM504 777l11 74h27l-11 -74h-27zM618 777l11 74h27l-11 -74h-27z" />
    <glyph glyph-name="wdieresis" unicode="&#x1e85;" horiz-adv-x="774" 
d="M440 468h26l113 -435l225 451h28l-242 -484h-29l-113 435l-234 -435h-30l-106 484h28l99 -451zM398 587l11 74h27l-11 -74h-27zM512 587l11 74h27l-11 -74h-27z" />
    <glyph glyph-name="Ygrave" unicode="&#x1ef2;" horiz-adv-x="568" 
d="M297 0h-28l34 238l-198 436h31l184 -410l300 410h33l-322 -436zM355 851l45 -111h-26l-52 111h33z" />
    <glyph glyph-name="ygrave" unicode="&#x1ef3;" horiz-adv-x="495" 
d="M47 -222l8 22q8 -1 15 -1q66 0 109 71l59 108l-160 506h31l149 -472l264 472h31l-363 -641q-22 -37 -56 -52.5t-59 -15.5q-13 0 -28 3zM305 661l45 -111h-26l-52 111h33z" />
    <glyph glyph-name="endash" unicode="&#x2013;" horiz-adv-x="551" 
d="M78 276h471l-3 -24h-471z" />
    <glyph glyph-name="emdash" unicode="&#x2014;" horiz-adv-x="920" 
d="M78 276h840l-3 -24h-840z" />
    <glyph glyph-name="quoteleft" unicode="&#x2018;" horiz-adv-x="215" 
d="M174 674l62 -174h-27l-64 174h29z" />
    <glyph glyph-name="quoteright" unicode="&#x2019;" horiz-adv-x="215" 
d="M120 500l110 174h29l-112 -174h-27z" />
    <glyph glyph-name="quotesinglbase" unicode="&#x201a;" horiz-adv-x="215" 
d="M39 -80l110 174h29l-112 -174h-27z" />
    <glyph glyph-name="quotedblleft" unicode="&#x201c;" horiz-adv-x="306" 
d="M265 674l62 -174h-27l-64 174h29zM174 674l62 -174h-27l-64 174h29z" />
    <glyph glyph-name="quotedblright" unicode="&#x201d;" horiz-adv-x="306" 
d="M120 500l110 174h29l-112 -174h-27zM211 500l110 174h29l-112 -174h-27z" />
    <glyph glyph-name="quotedblbase" unicode="&#x201e;" horiz-adv-x="306" 
d="M39 -80l110 174h29l-112 -174h-27zM130 -80l110 174h29l-112 -174h-27z" />
    <glyph glyph-name="dagger" unicode="&#x2020;" horiz-adv-x="472" 
d="M490 484h-176l-66 -484h-26l70 484h-174l3 22h174l23 180h26l-27 -180h176z" />
    <glyph glyph-name="daggerdbl" unicode="&#x2021;" horiz-adv-x="472" 
d="M490 484h-176l-41 -289h176l-3 -22h-174l-24 -173h-26l24 173h-172l3 22h174l41 289h-174l3 22h174l23 180h26l-27 -180h176z" />
    <glyph glyph-name="bullet" unicode="&#x2022;" horiz-adv-x="279" 
d="M93 303q0 42 31 73t72 31q35 0 56.5 -23t21.5 -59q0 -42 -31 -72.5t-73 -30.5q-33 0 -55 23.5t-22 57.5z" />
    <glyph glyph-name="ellipsis" unicode="&#x2026;" horiz-adv-x="485" 
d="M50 0l8 58h28l-8 -58h-28zM224 0l8 58h29l-8 -58h-29zM406 0l8 58h29l-8 -58h-29z" />
    <glyph glyph-name="perthousand" unicode="&#x2030;" horiz-adv-x="1181" 
d="M98 474q0 96 54.5 154.5t137.5 58.5q64 0 103 -41t39 -112q0 -97 -56 -156t-138 -59q-64 0 -102 41.5t-38 113.5zM401 531q0 59 -29.5 95t-85.5 36q-73 0 -116.5 -53.5t-43.5 -131.5q0 -60 30 -96t85 -36q73 0 116.5 53t43.5 133zM465 144q0 96 54 154.5t137 58.5
q64 0 103 -41t39 -112q0 -97 -56 -156t-138 -59q-64 0 -101.5 41.5t-37.5 113.5zM768 201q0 59 -29.5 95t-85.5 36q-73 0 -116.5 -53.5t-43.5 -131.5q0 -60 29.5 -96t85.5 -36q73 0 116.5 53t43.5 133zM845 144q0 96 54 154.5t137 58.5q64 0 103 -41t39 -112q0 -97 -56 -156
t-138 -59q-64 0 -101.5 41.5t-37.5 113.5zM1148 201q0 59 -29.5 95t-85.5 36q-73 0 -116.5 -53.5t-43.5 -131.5q0 -60 29.5 -96t85.5 -36q73 0 116.5 53t43.5 133zM182 0l496 674h25l-496 -674h-25z" />
    <glyph glyph-name="guilsinglleft" unicode="&#x2039;" horiz-adv-x="263" 
d="M289 554l-163 -231l100 -231h-30l-101 231l164 231h30z" />
    <glyph glyph-name="guilsinglright" unicode="&#x203a;" horiz-adv-x="263" 
d="M227 323l-98 231h30l99 -231l-165 -231h-30z" />
    <glyph glyph-name="fraction" unicode="&#x2044;" horiz-adv-x="566" 
d="M60 0l496 674h25l-496 -674h-25z" />
    <glyph glyph-name="zerosuperior" unicode="&#x2070;" 
d="M226 462q-54 0 -83.5 39t-29.5 112q0 112 45 173t122 61q55 0 85 -37.5t30 -108.5q0 -111 -45.5 -175t-123.5 -64zM276 824q-66 0 -102.5 -61t-36.5 -146q0 -59 23 -95.5t69 -36.5q68 0 104 61.5t36 147.5q0 58 -22.5 94t-70.5 36z" />
    <glyph glyph-name="foursuperior" unicode="&#x2074;" 
d="M309 470h-25l12 83h-197l3 20q59 85 190 224v-1l43 45h26l-37 -267h57l-3 -21h-57zM128 574h171l32 231l-28 -29v1q-111 -121 -175 -203z" />
    <glyph glyph-name="fivesuperior" unicode="&#x2075;" 
d="M349 596q0 36 -20 60t-62 24q-54 0 -86 -22h-29q15 55 25.5 96.5t14.5 59.5t7 27h184l-4 -23h-162l-34 -136q37 21 87 21q54 0 79 -30t25 -74q0 -58 -38.5 -97t-112.5 -39q-65 0 -103 48l19 21q15 -21 39 -34t48 -13q61 0 92 33t31 78z" />
    <glyph glyph-name="sixsuperior" unicode="&#x2076;" 
d="M364 837l-10 -24q-30 11 -54 11q-63 0 -105 -42t-48 -135q23 41 58 56t64 15q49 0 76.5 -30t27.5 -81q0 -66 -43 -105.5t-101 -39.5q-60 0 -84.5 42t-24.5 101q0 123 49.5 182.5t131.5 59.5q42 0 63 -10zM230 485q55 0 86 37t31 80q0 37 -20.5 64.5t-64.5 27.5
q-38 0 -70 -23.5t-43 -55.5v1q-4 -12 -4 -23q0 -48 21.5 -78t63.5 -30z" />
    <glyph glyph-name="sevensuperior" unicode="&#x2077;" 
d="M148 819l3 22h255l-3 -21q-144 -159 -235 -350h-30q43 82 67 124t68 104.5t98 120.5h-223z" />
    <glyph glyph-name="eightsuperior" unicode="&#x2078;" 
d="M280 847q15 0 20 -1q3 -1 8 -1q31 -6 53 -28t22 -55q0 -30 -17.5 -59.5t-55.5 -40.5q34 -11 47.5 -37t13.5 -51q0 -46 -38 -79t-107 -33q-59 0 -88 25.5t-29 65.5q0 27 21.5 60.5t67.5 48.5q-50 14 -50 75q0 45 31.5 75t69.5 30l11 2q11 3 20 3zM229 484q55 0 85.5 24.5
t30.5 64.5q0 33 -23.5 55t-69.5 22q-56 0 -87.5 -29t-31.5 -68q0 -31 24.5 -50t71.5 -19zM277 825q-51 0 -77.5 -24t-26.5 -62q0 -64 83 -64q102 0 102 86q0 64 -81 64z" />
    <glyph glyph-name="ninesuperior" unicode="&#x2079;" 
d="M142 472l10 24q30 -11 54 -11q60 0 100.5 43.5t52.5 133.5q-23 -41 -58 -56t-64 -15q-49 0 -76.5 30t-27.5 81q0 66 43 105.5t101 39.5q60 0 84.5 -42t24.5 -101q0 -123 -50 -182.5t-131 -59.5q-42 0 -63 10zM276 824q-55 0 -86 -36.5t-31 -80.5q0 -37 20.5 -64.5
t64.5 -27.5q38 0 70 23.5t43 55.5v-1q4 12 4 23q0 48 -21.5 78t-63.5 30z" />
    <glyph glyph-name="nsuperior" unicode="&#x207f;" horiz-adv-x="312" 
d="M367 603l-25 -178h-27l25 178q15 107 -79 107q-39 0 -76 -21.5t-42 -65.5l-28 -198h-25l42 300h26l-6 -43q40 53 112 53q120 0 103 -132z" />
    <glyph glyph-name="zeroinferior" unicode="&#x2080;" 
d="M132 -208q-54 0 -83.5 39t-29.5 112q0 112 45 173t122 61q55 0 85 -37.5t30 -108.5q0 -111 -45.5 -175t-123.5 -64zM182 154q-66 0 -102.5 -61t-36.5 -146q0 -59 23 -95.5t69 -36.5q68 0 104 61.5t36 147.5q0 58 -22.5 94t-70.5 36z" />
    <glyph glyph-name="oneinferior" unicode="&#x2081;" horiz-adv-x="240" 
d="M66 84l-12 16l88 71h27l-52 -371h-23l48 345z" />
    <glyph glyph-name="twoinferior" unicode="&#x2082;" 
d="M187 154q-62 0 -106 -46l-13 16q14 20 47.5 36.5t74.5 16.5q48 0 79.5 -23t31.5 -66q0 -30 -17.5 -55.5t-35.5 -38.5t-53 -34l-95 -61q-60 -37 -67 -71l-1 -5h226l-3 -23h-250l3 22q6 35 27.5 55.5t76.5 55.5l79 52q55 36 69 53q16 20 16 45q0 33 -23.5 52t-65.5 19z" />
    <glyph glyph-name="threeinferior" unicode="&#x2083;" 
d="M129 -208q-72 0 -116 44l16 17q39 -39 100 -39q53 0 82.5 24.5t29.5 61.5q0 32 -23.5 53t-69.5 21h-21l4 23h18q53 0 82 25t29 61q0 31 -21.5 51t-62.5 20q-50 0 -96 -34l-13 15q40 42 113 42q47 0 76 -23t29 -66q0 -71 -78 -102q30 -8 45 -31t15 -50q0 -53 -41.5 -83
t-96.5 -30z" />
    <glyph glyph-name="fourinferior" unicode="&#x2084;" 
d="M215 -200h-25l12 83h-197l3 20q59 85 190 224v-1l43 45h26l-37 -267h57l-3 -21h-57zM34 -96h171l32 231l-28 -29v1q-111 -121 -175 -203z" />
    <glyph glyph-name="fiveinferior" unicode="&#x2085;" 
d="M255 -74q0 36 -20 60t-62 24q-54 0 -86 -22h-29q15 55 25.5 96.5t14.5 59.5t7 27h184l-4 -23h-162l-34 -136q37 21 87 21q54 0 79 -30t25 -74q0 -58 -38.5 -97t-112.5 -39q-65 0 -103 48l19 21q15 -21 39 -34t48 -13q61 0 92 33t31 78z" />
    <glyph glyph-name="sixinferior" unicode="&#x2086;" 
d="M270 167l-10 -24q-30 11 -54 11q-63 0 -105 -42t-48 -135q23 41 58 56t64 15q49 0 76.5 -30t27.5 -81q0 -66 -43 -105.5t-101 -39.5q-60 0 -84.5 42t-24.5 101q0 123 49.5 182.5t131.5 59.5q42 0 63 -10zM136 -185q55 0 86 36.5t31 80.5q0 37 -20.5 64.5t-64.5 27.5
q-38 0 -70 -23.5t-43 -55.5v1q-4 -12 -4 -23q0 -48 21.5 -78t63.5 -30z" />
    <glyph glyph-name="seveninferior" unicode="&#x2087;" 
d="M54 149l3 22h255l-3 -21q-144 -159 -235 -350h-30q43 82 67 124t68 104.5t98 120.5h-223z" />
    <glyph glyph-name="eightinferior" unicode="&#x2088;" 
d="M186 177q15 0 20 -1q3 -1 8 -1q31 -6 53 -28t22 -55q0 -30 -17.5 -59.5t-55.5 -40.5q34 -11 47.5 -37t13.5 -51q0 -46 -38 -79t-107 -33q-59 0 -88 25.5t-29 65.5q0 27 21.5 60.5t67.5 48.5q-50 14 -50 75q0 45 31.5 75t69.5 30q1 0 5.5 1t11.5 2.5t14 1.5zM135 -186
q55 0 85.5 24.5t30.5 64.5q0 33 -23.5 55t-69.5 22q-56 0 -87.5 -29t-31.5 -68q0 -31 24.5 -50t71.5 -19zM183 155q-51 0 -77.5 -24t-26.5 -62q0 -64 83 -64q102 0 102 86q0 29 -19.5 46.5t-61.5 17.5z" />
    <glyph glyph-name="nineinferior" unicode="&#x2089;" 
d="M48 -198l10 24q30 -11 54 -11q60 0 100.5 43.5t52.5 133.5q-23 -41 -58 -56t-64 -15q-49 0 -76.5 30t-27.5 81q0 66 43 105.5t101 39.5q60 0 84.5 -42t24.5 -101q0 -123 -49.5 -182.5t-131.5 -59.5q-42 0 -63 10zM182 154q-55 0 -86 -36.5t-31 -80.5q0 -37 20.5 -64.5
t64.5 -27.5q38 0 70 23.5t43 55.5v-1q4 12 4 23q0 48 -21.5 78t-63.5 30z" />
    <glyph glyph-name="Euro" unicode="&#x20ac;" horiz-adv-x="700" 
d="M255 285h312l-13 -21h-299q4 -110 74 -182t212 -72q56 0 113 16l6 -26q-60 -14 -147 -14q-131 0 -206.5 77.5t-79.5 200.5h-160l13 21h147q0 26 4 51q1 6 2.5 17t3.5 17h-125l13 21h117q35 129 134.5 212t234.5 83q84 0 136 -14l-13 -25q-49 14 -101 14
q-147 0 -239 -77.5t-123 -192.5h341l-13 -21h-333q-2 -9 -7 -35q-4 -25 -4 -50z" />
    <glyph glyph-name="afii61289" unicode="&#x2113;" horiz-adv-x="293" 
d="M330 546l-23 -162q-7 -51 -27.5 -88t-44.5 -52.5t-40.5 -21.5t-27.5 -6q-26 -4 -70 7l-12 -86q-9 -56 8 -84.5t66 -28.5q11 0 81 11l-1 -22q-44 -11 -84 -11q-59 0 -81 33q-24 34 -15 102l58 409q6 39 19.5 66.5t27 40.5t33.5 20t29 7.5t22 0.5h3q12 0 23 -3t29 -14
t26 -41.5t1 -76.5zM279 372l25 174q12 110 -64 110q-43 0 -67.5 -33.5t-29.5 -73.5l-43 -303q45 -8 47 -8q36 0 62.5 15t40.5 39.5t20 42.5t9 37z" />
    <glyph glyph-name="trademark" unicode="&#x2122;" horiz-adv-x="846" 
d="M145 674h356l118 -369l223 369h35l-41 -395h-27l40 364l-217 -364h-31l-115 364l-62 -364h-28l67 373h-153l-52 -373h-26l52 373h-142z" />
    <glyph glyph-name="estimated" unicode="&#x212e;" horiz-adv-x="678" 
d="M652 282h-429l-27 -193q57 -63 143 -63q77 0 126 32t102 95l28 -19q-56 -70 -114.5 -105.5t-145.5 -35.5q-107 0 -170.5 72.5t-63.5 179.5q0 134 90 231t229 97q124 0 186 -84t46 -207zM537 315l23 163q-60 62 -145 62q-96 0 -164 -62l-23 -163h309z" />
    <glyph glyph-name="onethird" unicode="&#x2153;" horiz-adv-x="673" 
d="M489 -8q-72 0 -116 44l16 17q39 -39 100 -39q53 0 82.5 24.5t29.5 61.5q0 32 -23.5 53t-69.5 21h-21l4 23h18q53 0 82 25t29 61q0 31 -21.5 51t-62.5 20q-50 0 -96 -34l-13 15q40 42 113 42q47 0 76 -23t29 -66q0 -71 -78 -102q30 -8 45 -31t15 -50q0 -53 -41.5 -83
t-96.5 -30zM72 0l496 674h25l-496 -674h-25zM157 588l-12 16l88 71h27l-52 -371h-23l48 345z" />
    <glyph glyph-name="twothirds" unicode="&#x2154;" horiz-adv-x="803" 
d="M619 -8q-72 0 -116 44l17 17q35 -39 99 -39q54 0 83 24.5t29 61.5q0 32 -23 53t-69 21h-21l3 23h18q53 0 82.5 25t29.5 61q0 31 -22 51t-63 20q-48 0 -96 -34l-13 15q42 42 113 42q47 0 76 -23t29 -66q0 -73 -78 -102q30 -8 45 -31t15 -50q0 -53 -41.5 -83t-96.5 -30z
M197 0l496 674h25l-496 -674h-25zM285 658q-62 0 -106 -46l-13 16q14 20 47.5 36.5t74.5 16.5q48 0 79.5 -23t31.5 -66q0 -30 -17.5 -55.5t-35.5 -38.5t-53 -34l-95 -61q-60 -37 -67 -71l-1 -5h226l-3 -23h-250l3 22q6 35 27.5 55.5t76.5 55.5l79 52q55 36 69 53
q16 20 16 45q0 33 -23.5 52t-65.5 19z" />
    <glyph glyph-name="oneeighth" unicode="&#x215b;" horiz-adv-x="668" 
d="M74 0l496 674h25l-496 -674h-25zM531 377q15 0 20 -1q3 -1 9 -1q31 -6 53 -28t22 -55q0 -30 -18 -59.5t-56 -40.5q34 -11 47.5 -37t13.5 -51q0 -46 -38 -79t-107 -33q-59 0 -88 25.5t-29 65.5q0 27 21.5 60.5t67.5 48.5q-50 14 -50 75q0 44 32 74.5t70 30.5l11 2
q10 3 19 3zM480 14q55 0 85.5 24.5t30.5 64.5q0 33 -23.5 55t-69.5 22q-56 0 -87.5 -29t-31.5 -68q0 -31 24.5 -50t71.5 -19zM528 355q-51 0 -77.5 -24t-26.5 -62q0 -64 83 -64q102 0 102 86q0 29 -19.5 46.5t-61.5 17.5zM157 588l-12 16l88 71h27l-52 -371h-23l48 345z" />
    <glyph glyph-name="threeeighths" unicode="&#x215c;" horiz-adv-x="759" 
d="M165 0l496 674h25l-496 -674h-25zM622 377q15 0 20 -1q3 -1 9 -1q31 -6 53 -28t22 -55q0 -30 -17.5 -59.5t-56.5 -40.5q34 -11 47.5 -37t13.5 -51q0 -46 -38 -79t-107 -33q-59 0 -88 25.5t-29 65.5q0 27 21.5 60.5t67.5 48.5q-49 15 -49 75q0 45 31.5 75t69.5 30l10 2
q11 3 20 3zM571 14q55 0 85.5 24.5t30.5 64.5q0 33 -23 55t-69 22q-57 0 -88.5 -29t-31.5 -68q0 -31 24.5 -50t71.5 -19zM619 355q-51 0 -77 -24t-26 -62q0 -64 82 -64q103 0 103 86q0 64 -82 64zM224 296q-72 0 -116 44l16 17q39 -39 100 -39q53 0 82.5 24.5t29.5 61.5
q0 32 -23.5 53t-69.5 21h-21l4 23h18q53 0 82 25t29 61q0 31 -21.5 51t-62.5 20q-50 0 -96 -34l-13 15q40 42 113 42q47 0 76 -23t29 -66q0 -71 -78 -102q30 -8 45 -31t15 -50q0 -53 -41.5 -83t-96.5 -30z" />
    <glyph glyph-name="fiveeighths" unicode="&#x215d;" horiz-adv-x="765" 
d="M168 0l495 674h25l-495 -674h-25zM337 430q0 36 -20 60t-62 24q-54 0 -86 -22h-29q15 55 25.5 96.5t14.5 59.5t7 27h184l-4 -23h-162l-34 -136q37 21 87 21q54 0 79 -30t25 -74q0 -58 -38.5 -97t-112.5 -39q-65 0 -103 48l19 21q15 -21 39 -34t48 -13q61 0 92 33t31 78z
M627 377q15 0 20 -1q3 -1 9 -1q31 -6 53 -28t22 -55q0 -30 -17.5 -59.5t-56.5 -40.5q34 -11 48 -37.5t14 -50.5q0 -46 -38 -79t-108 -33q-58 0 -87 25.5t-29 65.5q0 27 21 61t67 48q-49 15 -49 75q0 45 31.5 75t69.5 30l11 2q10 3 19 3zM576 14q55 0 85.5 24.5t30.5 64.5
q0 33 -23 55t-69 22q-56 0 -87.5 -29t-31.5 -68q0 -31 24.5 -50t70.5 -19zM624 355q-51 0 -77 -24t-26 -62q0 -64 82 -64q103 0 103 86q0 64 -82 64z" />
    <glyph glyph-name="seveneighths" unicode="&#x215e;" horiz-adv-x="696" 
d="M86 0l496 674h25l-496 -674h-25zM559 377q15 0 20 -1q3 -1 9 -1q31 -6 53 -28t22 -55q0 -30 -18 -59.5t-56 -40.5q34 -11 47.5 -37t13.5 -51q0 -46 -38 -79t-107 -33q-59 0 -88 25.5t-29 65.5q0 27 21.5 60.5t67.5 48.5q-50 14 -50 75q0 44 32 74.5t70 30.5l11 2
q10 3 19 3zM508 14q55 0 85.5 24.5t30.5 64.5q0 33 -23.5 55t-69.5 22q-56 0 -87.5 -29t-31.5 -68q0 -31 24.5 -50t71.5 -19zM556 355q-51 0 -77.5 -24t-26.5 -62q0 -64 83 -64q102 0 102 86q0 29 -19.5 46.5t-61.5 17.5zM152 653l3 22h255l-3 -21q-144 -159 -235 -350h-30
q42 81 66.5 124t68.5 105t98 120h-223z" />
    <glyph glyph-name="arrowleft" unicode="&#x2190;" horiz-adv-x="755" 
d="M753 271h-393l-18 -132l-258 172l306 171l-18 -131h393z" />
    <glyph glyph-name="arrowup" unicode="&#x2191;" horiz-adv-x="763" 
d="M476 393l-55 -393h-80l55 393h-131l211 282l132 -282h-132z" />
    <glyph glyph-name="arrowright" unicode="&#x2192;" horiz-adv-x="755" 
d="M471 271h-393l11 80h393l19 131l258 -171l-307 -172z" />
    <glyph glyph-name="arrowdown" unicode="&#x2193;" horiz-adv-x="763" 
d="M515 674l-55 -393h132l-212 -282l-131 282h131l55 393h80z" />
    <glyph glyph-name="partialdiff" unicode="&#x2202;" horiz-adv-x="586" 
d="M316 619v25q48 17 111 17q257 0 137 -347q-19 -56 -44.5 -105t-66 -103.5t-100 -87t-129.5 -32.5q-89 0 -132 58.5t-8 158.5q37 101 115 163.5t174 62.5q20 0 44.5 -7t52 -22.5t44.5 -46.5t14 -72q68 182 39.5 268t-152.5 86q-52 0 -99 -16zM235 13q84 0 150.5 55
t108.5 148q30 75 -9.5 130.5t-116.5 55.5q-94 0 -161 -61t-94 -138q-12 -34 -13.5 -65.5t9 -60.5t43 -46.5t83.5 -17.5z" />
    <glyph glyph-name="product" unicode="&#x220f;" horiz-adv-x="534" 
d="M195 648h-79l4 26h484l-4 -26h-88l-91 -648h-26l91 648h-265l-91 -648h-26z" />
    <glyph glyph-name="summation" unicode="&#x2211;" horiz-adv-x="572" 
d="M497 -175h-472l286 421l-168 421h472l-3 -25h-431l161 -396l-272 -396h431z" />
    <glyph glyph-name="minus" unicode="&#x2212;" horiz-adv-x="517" 
d="M76 252h437l-4 -26h-437z" />
    <glyph glyph-name="radical" unicode="&#x221a;" horiz-adv-x="535" 
d="M196 460h-111l3 24h133l77 -454l293 644h29l-310 -674h-33z" />
    <glyph glyph-name="infinity" unicode="&#x221e;" horiz-adv-x="784" 
d="M431 280q-31 -44 -82.5 -77t-104.5 -33q-76 0 -113.5 38t-37.5 92q0 64 50.5 114t142.5 50q52 0 94 -32t62 -75q30 43 82 75t104 32q76 0 114 -37.5t38 -92.5q0 -64 -50 -114t-142 -50q-52 0 -94.5 33t-62.5 77zM592 193q69 0 116 39.5t47 98.5q0 48 -35 78t-94 30
q-52 0 -102 -35.5t-79 -86.5q13 -50 54.5 -87t92.5 -37zM246 193q51 0 103.5 37.5t77.5 86.5q-12 51 -52.5 86.5t-92.5 35.5q-72 0 -118 -38t-46 -98q0 -49 35 -79.5t93 -30.5z" />
    <glyph glyph-name="integral" unicode="&#x222b;" horiz-adv-x="330" 
d="M138 -90l90 636q6 41 20.5 69.5t28.5 42t35.5 20.5t30.5 7.5t23 0.5h4q19 0 40 -7l-7 -23q-18 6 -37 6q-54 0 -79 -32t-30 -73l-89 -636q-6 -41 -20.5 -69.5t-28.5 -42t-35.5 -20.5t-31 -7.5t-23.5 -0.5h-4q-19 0 -40 7l7 23q20 -6 37 -6q96 0 109 105z" />
    <glyph glyph-name="approxequal" unicode="&#x2248;" horiz-adv-x="460" 
d="M281 297q-6 2 -20.5 9t-22.5 10.5t-20.5 6.5t-24.5 3q-39 0 -61 -25t-36 -64h-23q37 114 122 114q27 0 89 -28q51 -20 71 -20q65 0 97 91h23q-38 -116 -122 -116q-32 0 -72 19zM261 161q-6 3 -20 9.5t-22 10t-20.5 6.5t-24.5 3q-39 0 -61 -25t-36 -64h-23q37 114 122 114
q27 0 89 -28q51 -20 71 -20q65 0 97 91h23q-38 -116 -122 -116q-33 0 -73 19z" />
    <glyph glyph-name="notequal" unicode="&#x2260;" horiz-adv-x="577" 
d="M556 205h-310l-151 -205h-25l151 205h-142l3 26h157l130 176h-262l4 26h277l178 241h25l-178 -241h175l-4 -26h-190l-130 -176h295z" />
    <glyph glyph-name="lessequal" unicode="&#x2264;" horiz-adv-x="580" 
d="M122 313l422 -213l-4 -29l-448 229l4 27l512 229l-4 -29zM55 27h479l-4 -26h-479z" />
    <glyph glyph-name="greaterequal" unicode="&#x2265;" horiz-adv-x="580" 
d="M64 100l482 213l-422 214l4 29l448 -229l-4 -27l-512 -229zM54 27h479l-4 -26h-479z" />
    <glyph glyph-name="triangleright" unicode="&#x22b2;" horiz-adv-x="446" 
d="M68 125l59 420l317 -210z" />
    <glyph glyph-name="triangleleft" unicode="&#x22b3;" horiz-adv-x="446" 
d="M473 545l-60 -420l-316 210z" />
    <glyph glyph-name="uni2318" unicode="&#x2318;" horiz-adv-x="681" 
d="M253 156l10 67h-68q-31 0 -54 -22t-23 -53q0 -25 16 -43t42 -18q28 0 50.5 20.5t26.5 48.5zM293 440l10 68q4 29 -12.5 48.5t-44.5 19.5q-31 0 -54.5 -22.5t-23.5 -53.5q0 -25 16.5 -42.5t42.5 -17.5h66zM317 269h124l18 125h-124zM607 164q0 25 -16 42t-40 17h-69
l-9 -67q-4 -28 12.5 -48.5t44.5 -20.5q31 0 54 23t23 54zM656 516q0 27 -15.5 43.5t-41.5 16.5q-28 0 -50 -19.5t-26 -48.5l-10 -68h68q30 0 52.5 23t22.5 53zM654 169q0 -51 -39.5 -89.5t-90.5 -38.5q-48 0 -76.5 33.5t-22.5 81.5l9 67h-124l-9 -67q-6 -47 -45 -81t-86 -34
q-44 0 -71.5 29.5t-27.5 72.5q0 51 40 88.5t91 37.5h67l18 125h-66q-44 0 -72 29t-28 72q0 51 40 89t92 38q48 0 76 -33t22 -81l-10 -68h124l10 68q6 47 45 80.5t86 33.5q42 0 70 -29.5t28 -71.5q0 -51 -39.5 -89t-90.5 -38h-67l-18 -125h67q42 0 70 -29t28 -71z" />
    <glyph glyph-name="blacksquare" unicode="&#x25a0;" horiz-adv-x="519" 
d="M63 91l59 419h419l-59 -419h-419z" />
    <glyph glyph-name="lozenge" unicode="&#x25ca;" horiz-adv-x="528" 
d="M287 0h-46l-174 336l269 338h46l173 -338zM258 26h18l248 310l-160 312h-18l-248 -312z" />
    <glyph glyph-name="circlesolid" unicode="&#x25cf;" horiz-adv-x="516" 
d="M90 278q0 94 72.5 163t167.5 69q78 0 129.5 -53t51.5 -131q0 -94 -72.5 -163t-167.5 -69q-78 0 -129.5 53t-51.5 131z" />
    <glyph glyph-name="blackstar" unicode="&#x2605;" horiz-adv-x="667" 
d="M673 400l-194 -128l39 -206l-158 127l-193 -127l96 206l-157 128h216l96 206l38 -206h217z" />
    <glyph glyph-name="diamond" unicode="&#x2666;" horiz-adv-x="601" 
d="M598 331l-286 -250l-215 250l285 251z" />
    <glyph glyph-name="s_t" unicode="&#xfb06;" horiz-adv-x="673" 
d="M386 545l-9 -66q2 -1 13 -6t16 -9l-14 -23q-64 34 -127 34q-72 0 -112 -31.5t-40 -78.5q0 -34 22.5 -56t70.5 -38l107 -41q75 -29 75 -99q0 -66 -50.5 -105.5t-131.5 -39.5q-97 0 -171 53l13 23q27 -16 44 -25t49.5 -18t65.5 -9q40 0 81.5 15.5t60.5 52.5
q19 36 12.5 62.5t-19 39t-30.5 19.5l-157 63q-45 22 -60.5 54t-2.5 82q14 45 61 73.5t109 28.5q49 0 90 -12l6 46q5 39 20.5 68t31.5 42t37.5 20.5t31 8.5t20.5 1h108l-26 -190h127l-4 -23h-127l-46 -329q-4 -24 -4 -41.5t5 -38.5t23.5 -32.5t49.5 -11.5q19 0 43 11
q4 -16 4 -23q-27 -10 -52 -10h-12.5t-13.5 1t-15 2.5t-14 5t-14 8.5t-11.5 12.5t-9.5 18.5t-6 24t-2.5 31t3.5 39l47 333h-84l4 23h83l23 166h-83q-54 0 -79 -32t-30 -73z" />
    <glyph glyph-name="CR" horiz-adv-x="278" 
 />
    <glyph glyph-name="_224" horiz-adv-x="0" 
 />
    <glyph glyph-name="_231" horiz-adv-x="0" 
 />
    <glyph glyph-name="_241" horiz-adv-x="0" 
 />
    <glyph glyph-name="Imacron" horiz-adv-x="147" 
d="M60 0l95 674h27l-95 -674h-27zM100 851h188l-4 -24h-188z" />
    <glyph glyph-name="kcommaaccent" horiz-adv-x="434" 
d="M254 315l176 -315h-31l-167 297l-117 -99l-28 -198h-27l95 674h27l-62 -442l296 252h35zM113 -214l107 163h31l-112 -163h-26z" />
    <glyph glyph-name="ibreve" horiz-adv-x="166" 
d="M70 0l68 484h26l-68 -484h-26zM160 545q-55 1 -82.5 33.5t-25.5 82.5h23q0 -44 22.5 -68t65.5 -24q88 0 114 92h23q-12 -50 -48.5 -82.5t-91.5 -33.5z" />
    <glyph glyph-name="zero.taboldstyle" horiz-adv-x="550" 
d="M272 -10q-67 0 -103.5 49t-36.5 141q0 140 56 217.5t152 77.5q70 0 106.5 -46.5t36.5 -138.5q0 -138 -57.5 -219t-153.5 -81zM336 449q-86 0 -133 -77.5t-47 -185.5q0 -77 29.5 -123.5t89.5 -46.5q61 0 103.5 40.5t60.5 99t18 127.5q0 75 -29.5 120.5t-91.5 45.5z" />
    <glyph glyph-name="one.taboldstyle" horiz-adv-x="550" 
d="M122 0l4 27h136l58 415l-100 -79l-13 18l108 86h36l-62 -440h142l-4 -27h-305z" />
    <glyph glyph-name="two.taboldstyle" horiz-adv-x="550" 
d="M347 449q-105 0 -166 -54l-17 17q21 24 72.5 43.5t114.5 19.5q78 0 128 -29t50 -84q0 -29 -13 -53.5t-42.5 -46.5t-52.5 -35t-67 -35l-18 -9l-110 -58q-70 -36 -87.5 -54t-21.5 -39v-5h358l-4 -27h-389l3 23q3 19 12 35.5t20 28t36 27t44 25t60.5 31t69.5 36.5
q10 5 33 17t33 17t28.5 16t27 17.5t20.5 17t17.5 20t9.5 22t4 25.5q0 42 -40.5 66.5t-112.5 24.5z" />
    <glyph glyph-name="six.taboldstyle" horiz-adv-x="550" 
d="M509 644l-13 -25q-42 16 -91 16q-127 0 -202.5 -93.5t-81.5 -249.5q17 41 48.5 70.5t67 42.5t62.5 18.5t47 5.5q85 0 132.5 -51.5t47.5 -139.5q0 -116 -75 -184t-175 -68q-54 0 -92.5 22.5t-58 61.5t-27.5 78.5t-8 85.5q0 217 86 322t230 105q64 0 103 -17zM278 13
q104 0 161 68.5t57 150.5q0 69 -37.5 119.5t-120.5 50.5q-71 0 -132 -44t-79 -105q-5 -14 -8 -37q-4 -93 36 -148t123 -55z" />
    <glyph glyph-name="eight.taboldstyle" horiz-adv-x="550" 
d="M368 661q27 0 36 -1l14 -2q53 -6 91 -45t38 -97q0 -38 -14.5 -74.5t-53 -68t-94.5 -36.5q77 -13 107.5 -60t30.5 -97q0 -81 -64.5 -137.5t-185.5 -56.5q-100 0 -150.5 44t-50.5 112q0 15 4.5 35t17 46t32.5 48t54.5 40.5t78.5 25.5q-60 6 -88 45t-28 92q0 76 52.5 125.5
t120.5 58.5l16 2q11 1 36 1zM277 11q102 0 160 47t58 121q0 61 -44 102.5t-131 41.5q-105 0 -163 -54.5t-58 -127.5q0 -59 45.5 -94.5t132.5 -35.5zM364 636q-96 0 -145 -46t-49 -115q0 -122 155 -122q194 0 194 162q0 52 -38.5 86.5t-116.5 34.5z" />
    <glyph glyph-name="three.taboldstyle" horiz-adv-x="550" 
d="M244 -204q-131 0 -196 73l19 19q61 -67 174 -67q100 0 155.5 46.5t55.5 116.5q0 58 -44.5 97.5t-128.5 39.5h-28l4 27h22q98 0 154 48t56 115q0 56 -41 94.5t-118 38.5q-95 0 -168 -58l-15 18q75 67 189 67q81 0 130.5 -39.5t49.5 -113.5q0 -139 -162 -184
q64 -9 96.5 -51.5t32.5 -93.5q0 -90 -72 -142.5t-165 -50.5z" />
    <glyph glyph-name="four.taboldstyle" horiz-adv-x="550" 
d="M387 -190h-28l21 148h-353l4 30q40 57 99 127.5t91 106.5t120 129.5t102 108.5h36l-68 -478h102l-3 -24h-102zM55 -18h328l63 446q-14 -15 -51 -54t-50 -52.5t-44 -47t-47 -51.5t-44 -50t-49 -58t-49 -60.5t-57 -72.5z" />
    <glyph glyph-name="five.taboldstyle" horiz-adv-x="550" 
d="M458 24q0 70 -43.5 118t-122.5 48q-86 0 -146 -44h-38q17 63 44.5 169t37.5 145h312l-5 -26h-287l-71 -264q26 20 70 32t86 12q96 0 143.5 -54.5t47.5 -131.5q0 -96 -66 -163t-193 -67q-111 0 -177 80l22 21q22 -34 68 -55.5t90 -21.5q113 0 170.5 61t57.5 141z" />
    <glyph glyph-name="seven.taboldstyle" horiz-adv-x="550" 
d="M116 436l3 24h439l-4 -28q-139 -150 -237 -298t-182 -324h-32q60 114 90 167.5t84 141.5t113 162t135 155h-409z" />
    <glyph glyph-name="nine.taboldstyle" horiz-adv-x="550" 
d="M104 -187l13 25q42 -16 91 -16q127 0 202.5 93.5t81.5 249.5q-17 -41 -48.5 -70.5t-67 -42.5t-62.5 -18.5t-47 -5.5q-85 0 -132.5 51.5t-47.5 139.5q0 116 75 184t175 68q54 0 92.5 -22.5t58 -61.5t27.5 -78.5t8 -85.5q0 -217 -86 -322t-230 -105q-64 0 -103 17zM335 444
q-104 0 -161 -68.5t-57 -150.5q0 -69 37.5 -119.5t120.5 -50.5q71 0 132 44t79 105q5 14 8 37q4 93 -36 148t-123 55z" />
    <glyph glyph-name="zero.titling" horiz-adv-x="580" 
d="M285 -14q-93 0 -143 68t-50 196q0 194 77.5 302.5t210.5 108.5q98 0 149 -65t51 -192q0 -193 -79.5 -305.5t-215.5 -112.5zM376 635q-82 0 -142 -55t-88 -139t-28 -183q0 -110 42.5 -178t128.5 -68t147.5 57.5t88 141.5t26.5 184q0 106 -43.5 173t-131.5 67z" />
    <glyph glyph-name="one.titling" horiz-adv-x="370" 
d="M152 510l-14 21l151 119h39l-92 -650h-27l88 624z" />
    <glyph glyph-name="two.titling" horiz-adv-x="540" 
d="M366 636q-57 0 -106 -22.5t-81 -57.5l-16 18q26 33 82 60t125 27q83 0 136.5 -39.5t53.5 -112.5q0 -31 -11 -59.5t-24 -47.5t-41.5 -42.5t-46 -35t-55.5 -35t-53 -33.5l-122 -80q-6 -4 -25 -16.5t-25 -17t-21 -16t-20.5 -18.5t-14 -18.5t-12.5 -23t-6 -24.5l-2 -15h403
l-4 -27h-430l4 32q5 32 16.5 56t40 49t50 40t77.5 50.5t91 58.5q16 11 49.5 32t49.5 32t39.5 30.5t34.5 35t20 38.5t9 48q0 59 -43.5 96.5t-121.5 37.5z" />
    <glyph glyph-name="three.titling" horiz-adv-x="510" 
d="M250 -14q-131 0 -196 73l19 19q61 -67 174 -67q100 0 155.5 46.5t55.5 116.5q0 58 -44.5 97.5t-128.5 39.5h-28l4 27h22q98 0 154 48t56 115q0 56 -41 94.5t-118 38.5q-95 0 -168 -58l-15 18q75 67 189 67q81 0 130.5 -39.5t49.5 -113.5q0 -139 -162 -184
q64 -9 96.5 -51.5t32.5 -93.5q0 -90 -72 -142.5t-165 -50.5z" />
    <glyph glyph-name="four.titling" horiz-adv-x="569" 
d="M433 0h-28l21 148h-353l4 30q40 57 99 127.5t91 106.5t120 129.5t102 108.5h36l-68 -478h102l-3 -24h-102zM101 172h328l63 446q-14 -15 -51 -54t-50 -52.5t-44 -47t-47 -51.5t-44 -50t-49 -58t-49 -60.5t-57 -72.5z" />
    <glyph glyph-name="five.titling" horiz-adv-x="534" 
d="M469 214q0 70 -43.5 118t-122.5 48q-86 0 -146 -44h-38q17 63 44.5 169t37.5 145h312l-5 -26h-287l-71 -264q26 20 70 32t86 12q96 0 143.5 -54.5t47.5 -131.5q0 -96 -66 -163t-193 -67q-111 0 -177 80l22 21q22 -34 68 -55.5t90 -21.5q113 0 170.5 61t57.5 141z" />
    <glyph glyph-name="six.titling" horiz-adv-x="574" 
d="M522 644l-13 -25q-42 16 -91 16q-127 0 -202.5 -93.5t-81.5 -249.5q17 41 48.5 70.5t67 42.5t62.5 18.5t47 5.5q85 0 132.5 -51.5t47.5 -139.5q0 -116 -75 -184t-175 -68q-54 0 -92.5 22.5t-58 61.5t-27.5 78.5t-8 85.5q0 217 86 322t230 105q64 0 103 -17zM291 13
q104 0 161 68.5t57 150.5q0 69 -37.5 119.5t-120.5 50.5q-71 0 -132 -44t-79 -105q-5 -14 -8 -37q-4 -93 36 -148t123 -55z" />
    <glyph glyph-name="seven.titling" horiz-adv-x="500" 
d="M118 626l3 24h439l-4 -28q-139 -150 -237 -298t-182 -324h-32q60 114 90 167.5t84 141.5t113 162t135 155h-409z" />
    <glyph glyph-name="eight.titling" horiz-adv-x="542" 
d="M364 661q27 0 36 -1l14 -2q53 -6 91 -45t38 -97q0 -38 -14.5 -74.5t-53 -68t-94.5 -36.5q77 -13 107.5 -60t30.5 -97q0 -81 -64.5 -137.5t-185.5 -56.5q-100 0 -150.5 44t-50.5 112q0 15 4.5 35t17 46t32.5 48t54.5 40.5t78.5 25.5q-60 6 -88 45t-28 92q0 76 52.5 125.5
t120.5 58.5l16 2q11 1 36 1zM273 11q102 0 160 47t58 121q0 61 -44 102.5t-131 41.5q-105 0 -163 -54.5t-58 -127.5q0 -59 45.5 -94.5t132.5 -35.5zM360 636q-96 0 -145 -46t-49 -115q0 -122 155 -122q194 0 194 162q0 52 -38.5 86.5t-116.5 34.5z" />
    <glyph glyph-name="nine.titling" horiz-adv-x="600" 
d="M155 3l13 25q42 -16 91 -16q127 0 202.5 93.5t81.5 249.5q-17 -41 -48.5 -70.5t-67 -42.5t-62.5 -18.5t-47 -5.5q-85 0 -132.5 51.5t-47.5 139.5q0 116 75 184t175 68q54 0 92.5 -22.5t58 -61.5t27.5 -78.5t8 -85.5q0 -217 -86 -322t-230 -105q-64 0 -103 17zM386 634
q-104 0 -161 -68.5t-57 -150.5q0 -69 37.5 -119.5t120.5 -50.5q71 0 132 44t79 105q5 14 8 37q4 93 -36 148t-123 55z" />
    <glyph glyph-name="zero.denominator" 
d="M160 -8q-54 0 -83.5 39t-29.5 112q0 112 45 173t122 61q115 0 115 -146q0 -111 -45.5 -175t-123.5 -64zM210 354q-66 0 -102.5 -61t-36.5 -146q0 -59 23 -95.5t69 -36.5q68 0 104 61.5t36 147.5q0 58 -22.5 94t-70.5 36z" />
    <glyph glyph-name="one.denominator" horiz-adv-x="240" 
d="M94 284l-12 16l88 71h27l-52 -371h-23l48 345z" />
    <glyph glyph-name="two.denominator" 
d="M215 354q-62 0 -106 -46l-13 16q14 20 47.5 36.5t74.5 16.5q48 0 79.5 -23t31.5 -66q0 -23 -8 -41.5t-27 -35.5t-32 -26t-40 -25l-94 -61q-22 -14 -32 -21t-21.5 -21t-13.5 -29l-1 -5h226l-3 -23h-250l3 22q6 35 27 55.5t77 55.5l79 52q55 36 69 53q16 20 16 45
q0 33 -23.5 52t-65.5 19z" />
    <glyph glyph-name="three.denominator" 
d="M157 -8q-72 0 -116 44l16 17q39 -39 100 -39q53 0 82.5 24.5t29.5 61.5q0 32 -23.5 53t-69.5 21h-21l4 23h18q53 0 82 25t29 61q0 31 -21.5 51t-62.5 20q-50 0 -96 -34l-13 15q40 42 113 42q47 0 76 -23t29 -66q0 -71 -78 -102q30 -8 45 -31t15 -50q0 -53 -41.5 -83
t-96.5 -30z" />
    <glyph glyph-name="four.denominator" 
d="M243 0h-25l12 83h-197l3 20q59 85 190 224v-1l43 45h26l-37 -267h57l-3 -21h-57zM62 104h171l32 231l-28 -29v1q-111 -121 -175 -203z" />
    <glyph glyph-name="five.denominator" 
d="M283 126q0 36 -20 60t-62 24q-54 0 -86 -22h-29q15 55 25.5 96.5t14.5 59.5t7 27h184l-4 -23h-162l-34 -136q37 21 87 21q54 0 79 -30t25 -74q0 -58 -38.5 -97t-112.5 -39q-65 0 -103 48l19 21q15 -21 39 -34t48 -13q61 0 92 33t31 78z" />
    <glyph glyph-name="six.denominator" 
d="M299 366l-10 -24q-30 11 -54 11q-63 0 -105 -42t-48 -135q23 41 58 56t64 15q49 0 76.5 -30t27.5 -81q0 -66 -43 -105.5t-101 -39.5q-60 0 -84.5 42t-24.5 101q0 123 49.5 182.5t131.5 59.5q42 0 63 -10zM165 14q55 0 86 37t31 80q0 37 -20.5 64.5t-64.5 27.5
q-38 0 -70 -23.5t-43 -55.5v1q-4 -12 -4 -23q0 -48 21.5 -78t63.5 -30z" />
    <glyph glyph-name="seven.denominator" 
d="M82 349l3 22h255l-3 -21q-144 -159 -235 -350h-30q43 82 67 124t68 104.5t98 120.5h-223z" />
    <glyph glyph-name="eight.denominator" 
d="M214 377q15 0 20 -1q3 -1 8 -1q31 -6 53 -28t22 -55q0 -30 -17.5 -59.5t-55.5 -40.5q34 -11 47.5 -37t13.5 -51q0 -46 -38 -79t-107 -33q-59 0 -88 25.5t-29 65.5q0 27 21.5 60.5t67.5 48.5q-50 14 -50 75q0 45 31.5 75t69.5 30l11 2q11 3 20 3zM163 14q55 0 85.5 24.5
t30.5 64.5q0 33 -23.5 55t-69.5 22q-56 0 -87.5 -29t-31.5 -68q0 -31 24.5 -50t71.5 -19zM211 355q-51 0 -77.5 -24t-26.5 -62q0 -64 83 -64q102 0 102 86q0 64 -81 64z" />
    <glyph glyph-name="nine.denominator" 
d="M76 2l10 24q30 -11 54 -11q60 0 100.5 43.5t52.5 133.5q-23 -41 -58 -56t-64 -15q-49 0 -76.5 30t-27.5 81q0 66 43 105.5t101 39.5q60 0 84.5 -42t24.5 -101q0 -123 -49.5 -182.5t-131.5 -59.5q-42 0 -63 10zM210 354q-55 0 -86 -36.5t-31 -80.5q0 -37 20.5 -64.5
t64.5 -27.5q38 0 70 23.5t43 55.5v-1q4 12 4 23q0 48 -21.5 78t-63.5 30z" />
    <glyph glyph-name="zero.numerator" 
d="M201 296q-54 0 -83.5 39t-29.5 112q0 112 45 173t122 61q115 0 115 -146q0 -111 -45.5 -175t-123.5 -64zM251 658q-66 0 -102.5 -61t-36.5 -146q0 -59 23 -95.5t69 -36.5q68 0 104 61.5t36 147.5q0 58 -22.5 94t-70.5 36z" />
    <glyph glyph-name="one.numerator" horiz-adv-x="240" 
d="M133 588l-12 16l88 71h27l-52 -371h-23l48 345z" />
    <glyph glyph-name="two.numerator" 
d="M258 658q-62 0 -106 -46l-13 16q14 20 47.5 36.5t74.5 16.5q48 0 79.5 -23t31.5 -66q0 -30 -17.5 -55.5t-35.5 -38.5t-53 -34l-95 -61q-60 -37 -67 -71l-1 -5h226l-3 -23h-250l3 22q6 35 27.5 55.5t76.5 55.5l79 52q55 36 69 53q16 20 16 45q0 33 -23.5 52t-65.5 19z" />
    <glyph glyph-name="three.numerator" 
d="M200 296q-72 0 -116 44l16 17q39 -39 100 -39q53 0 82.5 24.5t29.5 61.5q0 32 -23.5 53t-69.5 21h-21l4 23h18q53 0 82 25t29 61q0 31 -21.5 51t-62.5 20q-50 0 -96 -34l-13 15q40 42 113 42q47 0 76 -23t29 -66q0 -71 -78 -102q30 -8 45 -31t15 -50q0 -53 -41.5 -83
t-96.5 -30z" />
    <glyph glyph-name="four.numerator" 
d="M285 304h-25l12 83h-197l3 20q59 85 190 224v-1l43 45h26l-37 -267h57l-3 -21h-57zM104 408h171l32 231l-28 -29v1q-111 -121 -175 -203z" />
    <glyph glyph-name="five.numerator" 
d="M325 430q0 36 -20 60t-62 24q-54 0 -86 -22h-29q15 55 25.5 96.5t14.5 59.5t7 27h184l-4 -23h-162l-34 -136q37 21 87 21q54 0 79 -30t25 -74q0 -58 -38.5 -97t-112.5 -39q-65 0 -103 48l19 21q15 -21 39 -34t48 -13q61 0 92 33t31 78z" />
    <glyph glyph-name="six.numerator" 
d="M340 672l-10 -24q-30 11 -54 11q-63 0 -105 -42t-48 -135q23 41 58 56t64 15q49 0 76.5 -30t27.5 -81q0 -66 -43 -105.5t-101 -39.5q-60 0 -84.5 42t-24.5 101q0 123 49.5 182.5t131.5 59.5q42 0 63 -10zM206 320q55 0 86 37t31 80q0 37 -20.5 64.5t-64.5 27.5
q-38 0 -70 -23.5t-43 -55.5v1q-4 -12 -4 -23q0 -48 21.5 -78t63.5 -30z" />
    <glyph glyph-name="seven.numerator" 
d="M125 653l3 22h255l-3 -21q-144 -159 -235 -350h-30q43 82 67 124t68 104.5t98 120.5h-223z" />
    <glyph glyph-name="eight.numerator" 
d="M257 681q15 0 20 -1q3 -1 8 -1q31 -6 53 -28t22 -55q0 -30 -17.5 -59.5t-55.5 -40.5q34 -11 47.5 -37t13.5 -51q0 -46 -38 -79t-107 -33q-59 0 -88 25.5t-29 65.5q0 27 21.5 60.5t67.5 48.5q-50 14 -50 75q0 45 31.5 75t69.5 30q1 0 5.5 1t11.5 2.5t14 1.5zM206 318
q55 0 85.5 24.5t30.5 64.5q0 33 -23.5 55t-69.5 22q-56 0 -87.5 -29t-31.5 -68q0 -31 24.5 -50t71.5 -19zM254 659q-51 0 -77.5 -24t-26.5 -62q0 -64 83 -64q102 0 102 86q0 29 -19.5 46.5t-61.5 17.5z" />
    <glyph glyph-name="nine.numerator" 
d="M118 306l10 24q30 -11 54 -11q60 0 100.5 43.5t52.5 133.5q-23 -41 -58 -56t-64 -15q-49 0 -76.5 30t-27.5 81q0 66 43 105.5t101 39.5q60 0 84.5 -42t24.5 -101q0 -123 -49.5 -182.5t-131.5 -59.5q-42 0 -63 10zM252 658q-55 0 -86 -36.5t-31 -80.5q0 -37 20.5 -64.5
t64.5 -27.5q38 0 70 23.5t43 55.5v-1q4 12 4 23q0 48 -21.5 78t-63.5 30z" />
    <glyph glyph-name="a.alt" horiz-adv-x="517" 
d="M493 415l10 69h27l-68 -484h-26l11 78q-17 -31 -46 -51.5t-62.5 -28t-54 -10t-39.5 -2.5q-90 0 -137.5 57t-47.5 153q0 132 69 218t197 86q122 0 167 -85zM324 476q-64 0 -112 -26t-74 -69t-38 -89t-12 -95q0 -35 7.5 -65.5t24.5 -59.5t50.5 -46t80.5 -17q29 0 58 6.5
t62 22t57 49t31 81.5l23 166q5 37 -9 65.5t-39.5 44.5t-53.5 24t-56 8z" />
    <glyph glyph-name="aacute.alt" horiz-adv-x="517" 
d="M305 550l77 111h33l-84 -111h-26zM493 415l10 69h27l-68 -484h-26l11 78q-17 -31 -46 -51.5t-62.5 -28t-54 -10t-39.5 -2.5q-90 0 -137.5 57t-47.5 153q0 132 69 218t197 86q122 0 167 -85zM324 476q-64 0 -112 -26t-74 -69t-38 -89t-12 -95q0 -35 7.5 -65.5t24.5 -59.5
t50.5 -46t80.5 -17q29 0 58 6.5t62 22t57 49t31 81.5l23 166q5 37 -9 65.5t-39.5 44.5t-53.5 24t-56 8z" />
    <glyph glyph-name="agrave.alt" horiz-adv-x="517" 
d="M315 661l45 -111h-26l-52 111h33zM493 415l10 69h27l-68 -484h-26l11 78q-17 -31 -46 -51.5t-62.5 -28t-54 -10t-39.5 -2.5q-90 0 -137.5 57t-47.5 153q0 132 69 218t197 86q122 0 167 -85zM324 476q-64 0 -112 -26t-74 -69t-38 -89t-12 -95q0 -35 7.5 -65.5t24.5 -59.5
t50.5 -46t80.5 -17q29 0 58 6.5t62 22t57 49t31 81.5l23 166q5 37 -9 65.5t-39.5 44.5t-53.5 24t-56 8z" />
    <glyph glyph-name="acircumflex.alt" horiz-adv-x="517" 
d="M334 645l-88 -91h-29l97 107h44l67 -107h-29zM493 415l10 69h27l-68 -484h-26l11 78q-17 -31 -46 -51.5t-62.5 -28t-54 -10t-39.5 -2.5q-90 0 -137.5 57t-47.5 153q0 132 69 218t197 86q122 0 167 -85zM324 476q-64 0 -112 -26t-74 -69t-38 -89t-12 -95q0 -35 7.5 -65.5
t24.5 -59.5t50.5 -46t80.5 -17q29 0 58 6.5t62 22t57 49t31 81.5l23 166q5 37 -9 65.5t-39.5 44.5t-53.5 24t-56 8z" />
    <glyph glyph-name="adieresis.alt" horiz-adv-x="517" 
d="M260 587l10 74h27l-10 -74h-27zM374 587l10 74h27l-10 -74h-27zM493 415l10 69h27l-68 -484h-26l11 78q-17 -31 -46 -51.5t-62.5 -28t-54 -10t-39.5 -2.5q-90 0 -137.5 57t-47.5 153q0 132 69 218t197 86q122 0 167 -85zM324 476q-64 0 -112 -26t-74 -69t-38 -89t-12 -95
q0 -35 7.5 -65.5t24.5 -59.5t50.5 -46t80.5 -17q29 0 58 6.5t62 22t57 49t31 81.5l23 166q5 37 -9 65.5t-39.5 44.5t-53.5 24t-56 8z" />
    <glyph glyph-name="atilde.alt" horiz-adv-x="517" 
d="M252 599h-25q11 32 34 48t52 14q22 -3 47 -20t37 -17q29 0 44 37h23q-8 -33 -29 -47t-46 -11q-23 3 -45 19t-40 16q-20 0 -31 -8.5t-21 -30.5zM493 415l10 69h27l-68 -484h-26l11 78q-17 -31 -46 -51.5t-62.5 -28t-54 -10t-39.5 -2.5q-90 0 -137.5 57t-47.5 153
q0 132 69 218t197 86q122 0 167 -85zM324 476q-64 0 -112 -26t-74 -69t-38 -89t-12 -95q0 -35 7.5 -65.5t24.5 -59.5t50.5 -46t80.5 -17q29 0 58 6.5t62 22t57 49t31 81.5l23 166q5 37 -9 65.5t-39.5 44.5t-53.5 24t-56 8z" />
    <glyph glyph-name="aring.alt" horiz-adv-x="517" 
d="M258 632q0 35 23 60.5t64 25.5q32 0 48.5 -18.5t16.5 -47.5q0 -35 -25 -61.5t-62 -26.5q-31 0 -48 19.5t-17 48.5zM387 648q0 20 -11.5 34.5t-34.5 14.5q-27 0 -43.5 -20t-16.5 -43q0 -20 11 -34.5t33 -14.5q28 0 45 20t17 43zM493 415l10 69h27l-68 -484h-26l11 78
q-17 -31 -46 -51.5t-62.5 -28t-54 -10t-39.5 -2.5q-90 0 -137.5 57t-47.5 153q0 132 69 218t197 86q122 0 167 -85zM324 476q-64 0 -112 -26t-74 -69t-38 -89t-12 -95q0 -35 7.5 -65.5t24.5 -59.5t50.5 -46t80.5 -17q29 0 58 6.5t62 22t57 49t31 81.5l23 166q5 37 -9 65.5
t-39.5 44.5t-53.5 24t-56 8z" />
    <glyph glyph-name="abreve.alt" horiz-adv-x="517" 
d="M330 545q-56 1 -83.5 33.5t-25.5 82.5h23q0 -44 22.5 -68t65.5 -24q88 0 114 92h23q-12 -50 -48.5 -82.5t-90.5 -33.5zM493 415l10 69h27l-68 -484h-26l11 78q-17 -31 -46 -51.5t-62.5 -28t-54 -10t-39.5 -2.5q-90 0 -137.5 57t-47.5 153q0 132 69 218t197 86
q122 0 167 -85zM324 476q-64 0 -112 -26t-74 -69t-38 -89t-12 -95q0 -35 7.5 -65.5t24.5 -59.5t50.5 -46t80.5 -17q29 0 58 6.5t62 22t57 49t31 81.5l23 166q5 37 -9 65.5t-39.5 44.5t-53.5 24t-56 8z" />
    <glyph glyph-name="amacron.alt" horiz-adv-x="517" 
d="M248 661h188l-3 -24h-188zM493 415l10 69h27l-68 -484h-26l11 78q-17 -31 -46 -51.5t-62.5 -28t-54 -10t-39.5 -2.5q-90 0 -137.5 57t-47.5 153q0 132 69 218t197 86q122 0 167 -85zM324 476q-64 0 -112 -26t-74 -69t-38 -89t-12 -95q0 -35 7.5 -65.5t24.5 -59.5
t50.5 -46t80.5 -17q29 0 58 6.5t62 22t57 49t31 81.5l23 166q5 37 -9 65.5t-39.5 44.5t-53.5 24t-56 8z" />
    <glyph glyph-name="aogonek.alt" horiz-adv-x="517" 
d="M436 0l11 78q-17 -31 -46 -51.5t-62.5 -28t-54 -10t-39.5 -2.5q-90 0 -137.5 57t-47.5 153q0 132 69 218t197 86q122 0 167 -85l10 69h27l-68 -484h-3q-51 -56 -58.5 -102.5t22.5 -65t80 -2.5l55 17l-4 -23q-42 -19 -80 -23q-63 -6 -87 32t-1 93q12 31 50 74zM324 476
q-64 0 -112 -26t-74 -69t-38 -89t-12 -95q0 -35 7.5 -65.5t24.5 -59.5t50.5 -46t80.5 -17q29 0 58 6.5t62 22t57 49t31 81.5l23 166q5 37 -9 65.5t-39.5 44.5t-53.5 24t-56 8z" />
    <glyph glyph-name="aringacute.alt" horiz-adv-x="517" 
d="M280 632q0 35 23 60.5t64 25.5q32 0 48.5 -18.5t16.5 -47.5q0 -35 -25 -61.5t-62 -26.5q-31 0 -48 19.5t-17 48.5zM409 648q0 20 -11.5 34.5t-34.5 14.5q-27 0 -43.5 -20t-16.5 -43q0 -20 11 -34.5t33 -14.5q28 0 45 20t17 43zM360 753l77 111h33l-84 -111h-26zM493 415
l10 69h27l-68 -484h-26l11 78q-17 -31 -46 -51.5t-62.5 -28t-54 -10t-39.5 -2.5q-90 0 -137.5 57t-47.5 153q0 132 69 218t197 86q122 0 167 -85zM324 476q-64 0 -112 -26t-74 -69t-38 -89t-12 -95q0 -35 7.5 -65.5t24.5 -59.5t50.5 -46t80.5 -17q29 0 58 6.5t62 22t57 49
t31 81.5l23 166q5 37 -9 65.5t-39.5 44.5t-53.5 24t-56 8z" />
    <glyph glyph-name="T_h" horiz-adv-x="1041" 
d="M1022 291l-41 -291h-27l41 291q12 84 -24 134.5t-119 50.5q-19 0 -39 -3t-48 -14t-50 -29.5t-41 -53t-26 -79.5l-42 -297h-27l91 649h-306l-91 -649h-27l91 649h-236l4 25h596l-39 -273q66 99 193 99q91 0 136.5 -51t30.5 -158z" />
    <glyph glyph-name="c_t" horiz-adv-x="699" 
d="M412 545l-7 -50q32 -5 59 -15l-12 -25q-53 20 -102 20q-68 0 -119 -23.5t-80.5 -63.5t-43.5 -86.5t-14 -98.5q0 -85 46.5 -138.5t144.5 -53.5q56 0 109 16l4 -25q-52 -16 -124 -16q-99 0 -153.5 56t-54.5 156q0 137 76.5 219.5t203.5 82.5q12 0 34 -2l5 36q5 39 20.5 68
t31.5 42t37.5 20.5t31.5 8.5t21 1h108l-27 -190h127l-3 -23h-128l-46 -329q-4 -24 -4 -41.5t5 -38.5t23.5 -32.5t49.5 -11.5q20 0 44 11q0 -1 2 -11t1 -12q-27 -10 -52 -10h-12.5t-13.5 1t-15 2.5t-14 5t-14 8.5t-11.5 12.5t-9.5 18.5t-6 24t-2.5 31t3.5 39l47 333h-83l3 23
h83l23 166h-83q-54 0 -79 -32t-30 -73z" />
    <glyph glyph-name="asuperior" horiz-adv-x="296" 
d="M326 425h-25l6 41q-20 -25 -56 -37.5t-67 -12.5q-43 0 -71 20.5t-28 56.5q0 58 59 84t183 33l4 31q0 4 1.5 11.5t-3 18t-12 19.5t-25.5 15t-43 6t-91 -17l-8 19q55 22 105 22q33 0 56 -10q55 -22 46 -82zM188 440q10 0 27 3.5t39.5 12.5t40 28.5t21.5 46.5l8 56
q-215 -11 -215 -90q0 -24 23 -40.5t56 -16.5z" />
    <glyph glyph-name="bsuperior" horiz-adv-x="327" 
d="M177 838l-21 -153q40 50 109 50q60 0 91.5 -36t31.5 -97q0 -80 -45 -133t-118 -53q-23 0 -55 10.5t-46 36.5l-5 -38h-26l58 413h26zM260 710q-36 0 -71.5 -20.5t-40.5 -59.5l-14 -99q-4 -27 4 -46.5t24.5 -28t32 -12t31.5 -3.5q50 0 82.5 28.5t43 61.5t10.5 66
q0 27 -7 50t-31.5 43t-63.5 20z" />
    <glyph glyph-name="csuperior" horiz-adv-x="264" 
d="M98 548q0 84 47.5 135.5t126.5 51.5q42 0 78 -14l-13 -24q-33 12 -63 12q-74 0 -111 -46t-37 -110q0 -49 27 -80t83 -31q37 0 68 9l4 -24q-34 -11 -81 -11q-62 0 -95.5 34.5t-33.5 97.5z" />
    <glyph glyph-name="dsuperior" horiz-adv-x="317" 
d="M357 685l21 153h26l-58 -413h-26l6 38q-21 -26 -56 -36.5t-58 -10.5q-58 0 -88.5 35.5t-30.5 96.5q0 81 45.5 134t123.5 53q68 0 95 -50zM259 710q-43 0 -73.5 -18.5t-43.5 -46.5t-18 -50.5t-5 -42.5q0 -45 23 -78t76 -33q23 0 44.5 5.5t44.5 27t28 57.5l14 99
q5 39 -24 59.5t-66 20.5z" />
    <glyph glyph-name="esuperior" horiz-adv-x="314" 
d="M225 416q-56 0 -91 37.5t-35 99.5q0 76 49 129t114 53q63 0 95.5 -39.5t23.5 -113.5l-2 -15h-251q-8 -57 22 -91t87 -34q45 0 92 16l4 -23q-47 -19 -108 -19zM259 709q-43 0 -80.5 -35.5t-47.5 -83.5h225q6 61 -21 90t-76 29z" />
    <glyph glyph-name="fsuperior" horiz-adv-x="152" 
d="M105 725h47l5 32q13 89 90 89q16 0 30 -6l-9 -23q-17 6 -25 6q-51 0 -59 -59l-6 -39h65l-3 -23h-65l-39 -277h-27l40 277h-47z" />
    <glyph glyph-name="gsuperior" horiz-adv-x="323" 
d="M230 441q16 0 37 5.5t44 24t27 45.5l15 101q7 50 -26 72t-71 22q-64 0 -98 -49t-34 -113q0 -108 106 -108zM323 397l9 67q-34 -48 -111 -48q-58 0 -90.5 33t-32.5 97q0 90 45.5 139.5t114.5 49.5q84 0 105 -53l6 43h26l-48 -342q-8 -50 -48.5 -71.5t-95.5 -21.5
q-47 0 -98 20l11 23q39 -19 86 -19q37 0 61.5 7.5t36.5 21.5t16.5 25.5t6.5 28.5z" />
    <glyph glyph-name="isuperior" horiz-adv-x="95" 
d="M95 425l42 300h25l-42 -300h-25zM146 785l7 53h25l-7 -53h-25z" />
    <glyph glyph-name="ksuperior" horiz-adv-x="276" 
d="M223 618l108 -193h-31l-99 175l-64 -54l-17 -121h-25l58 413h25l-36 -258l170 145h35z" />
    <glyph glyph-name="lsuperior" horiz-adv-x="95" 
d="M95 425l58 413h25l-58 -413h-25z" />
    <glyph glyph-name="msuperior" horiz-adv-x="497" 
d="M296 425l27 189q4 41 -13.5 68.5t-62.5 27.5q-34 0 -65.5 -22.5t-39.5 -67.5l-27 -195h-25l42 300h26l-6 -44q39 54 99 54q71 0 94 -63q42 63 116 63q110 0 93 -121l-27 -189h-27l25 178q8 55 -8 81t-61 26q-13 0 -26.5 -3.5t-31.5 -12.5t-31 -29.5t-18 -50.5l-27 -189
h-26z" />
    <glyph glyph-name="osuperior" 
d="M98 548q0 84 46 135.5t121 51.5q58 0 90 -35t32 -96q0 -86 -45 -137t-122 -51q-58 0 -90 35t-32 97zM363 597q0 49 -26.5 81t-74.5 32q-63 0 -100 -45.5t-37 -110.5q0 -50 25.5 -82t73.5 -32q63 0 101 45.5t38 111.5z" />
    <glyph glyph-name="psuperior" horiz-adv-x="317" 
d="M121 462l-23 -165h-26l60 428h26l-6 -43q38 53 115 53q58 0 88 -36.5t30 -97.5q0 -81 -44.5 -133t-123.5 -52q-63 0 -96 46zM219 441q35 0 61.5 12.5t41 30.5t23.5 41.5t11.5 40t2.5 31.5q0 46 -23 80t-75 34q-22 0 -44.5 -6.5t-45.5 -29t-28 -57.5l-14 -99
q-5 -40 24 -59t66 -19z" />
    <glyph glyph-name="qsuperior" horiz-adv-x="317" 
d="M302 297l24 165q-46 -46 -109 -46q-60 0 -92 35.5t-32 95.5q0 81 45 134.5t119 53.5q14 0 29.5 -2.5t38 -15.5t32.5 -35l6 43h26l-61 -428h-26zM222 441q38 0 72.5 19t39.5 59l14 99q7 51 -23.5 72t-68.5 21t-66.5 -16.5t-42.5 -42.5t-21 -51t-7 -49q0 -18 4.5 -35.5
t15 -35.5t32 -29t51.5 -11z" />
    <glyph glyph-name="rsuperior" horiz-adv-x="164" 
d="M258 709h-12q-34 0 -65 -25.5t-39 -71.5l-26 -187h-26l42 300h26l-6 -46q39 54 100 56h10z" />
    <glyph glyph-name="ssuperior" horiz-adv-x="256" 
d="M273 479q11 31 3.5 46t-23.5 20l-94 37q-54 28 -39 87q8 28 38 47t68 19q54 0 92 -25l-13 -20q-40 19 -78 19q-42 0 -63.5 -16.5t-21.5 -42.5q0 -35 53 -53l64 -24q48 -19 48 -64q0 -42 -32.5 -67.5t-83.5 -25.5q-58 0 -108 35l13 20q50 -30 98 -30q58 0 79 38z" />
    <glyph glyph-name="tsuperior" horiz-adv-x="174" 
d="M154 701h-50l3 24h50l12 82h24l-12 -82h77l-3 -24h-77l-27 -192q-1 -15 -2 -30.5t9 -27t33 -11.5q20 0 32 6l1 -22q-22 -8 -37 -8q-14 0 -22 1.5t-21 9t-17.5 27.5t0.5 52z" />
    <glyph glyph-name="usuperior" horiz-adv-x="320" 
d="M110 546l25 179h25l-25 -179q-15 -104 80 -104q20 0 41.5 5t46.5 27t30 58l27 193h27l-42 -300h-27l6 43q-36 -52 -111 -52q-120 0 -103 130z" />
    <glyph glyph-name="vsuperior" horiz-adv-x="303" 
d="M225 425h-27l-91 300h29l80 -270l155 270h29z" />
    <glyph glyph-name="zsuperior" horiz-adv-x="274" 
d="M75 425l3 20l245 256h-201l3 24h236l-3 -21l-245 -255h201l-3 -24h-236z" />
    <glyph glyph-name="zero.oldstyle" horiz-adv-x="440" 
d="M217 -10q-67 0 -103.5 49t-36.5 141q0 140 56 217.5t152 77.5q70 0 106.5 -46.5t36.5 -138.5q0 -138 -57.5 -219t-153.5 -81zM281 449q-86 0 -133 -77.5t-47 -185.5q0 -77 29.5 -123.5t89.5 -46.5q61 0 103.5 40.5t60.5 99t18 127.5q0 75 -29.5 120.5t-91.5 45.5z" />
    <glyph glyph-name="one.oldstyle" horiz-adv-x="390" 
d="M43 0l4 27h136l58 415l-100 -79l-13 18l108 86h36l-62 -440h142l-4 -27h-305z" />
    <glyph glyph-name="two.oldstyle" horiz-adv-x="470" 
d="M301 449q-105 0 -166 -54l-17 17q21 24 72.5 43.5t114.5 19.5q77 0 127.5 -29t50.5 -84q0 -19 -4.5 -35t-18 -31.5t-22.5 -25.5t-33.5 -24.5t-34 -20t-41 -22t-39.5 -20.5l-110 -58q-70 -36 -87.5 -54t-21.5 -39l-1 -5h359l-4 -27h-389l3 23q3 19 12 35.5t20.5 28
t35.5 26.5t44 25.5t60 31t70 36.5q10 5 33 17t33 17t28.5 16t27 17.5t20.5 17t17.5 20t9.5 22t4 25.5q0 42 -40.5 66.5t-112.5 24.5z" />
    <glyph glyph-name="three.oldstyle" horiz-adv-x="470" 
d="M204 -204q-131 0 -196 73l19 19q61 -67 174 -67q100 0 155.5 46.5t55.5 116.5q0 58 -44.5 97.5t-128.5 39.5h-28l4 27h22q98 0 154 48t56 115q0 56 -41 94.5t-118 38.5q-95 0 -168 -58l-15 18q75 67 189 67q81 0 130.5 -39.5t49.5 -113.5q0 -139 -162 -184
q64 -9 96.5 -51.5t32.5 -93.5q0 -90 -72 -142.5t-165 -50.5z" />
    <glyph glyph-name="four.oldstyle" horiz-adv-x="530" 
d="M377 -190h-28l21 148h-353l4 30q40 57 99 127.5t91 106.5t120 129.5t102 108.5h36l-68 -478h102l-3 -24h-102zM45 -18h328l63 446q-14 -15 -51 -54t-50 -52.5t-44 -47t-47 -51.5t-44 -50t-49 -58t-49 -60.5t-57 -72.5z" />
    <glyph glyph-name="five.oldstyle" horiz-adv-x="510" 
d="M438 24q0 70 -43.5 118t-122.5 48q-86 0 -146 -44h-38q17 63 44.5 169t37.5 145h312l-5 -26h-287l-71 -264q26 20 70 32t86 12q96 0 143.5 -54.5t47.5 -131.5q0 -96 -66 -163t-193 -67q-111 0 -177 80l22 21q22 -34 68 -55.5t90 -21.5q113 0 170.5 61t57.5 141z" />
    <glyph glyph-name="six.oldstyle" horiz-adv-x="520" 
d="M495 644l-13 -25q-42 16 -91 16q-127 0 -202.5 -93.5t-81.5 -249.5q17 41 48.5 70.5t67 42.5t62.5 18.5t47 5.5q85 0 132.5 -51.5t47.5 -139.5q0 -116 -75 -184t-175 -68q-54 0 -92.5 22.5t-58 61.5t-27.5 78.5t-8 85.5q0 217 86 322t230 105q64 0 103 -17zM264 13
q104 0 161 68.5t57 150.5q0 69 -37.5 119.5t-120.5 50.5q-71 0 -132 -44t-79 -105q-5 -14 -8 -37q-4 -93 36 -148t123 -55z" />
    <glyph glyph-name="seven.oldstyle" horiz-adv-x="480" 
d="M81 436l3 24h439l-4 -28q-139 -150 -237 -298t-182 -324h-32q60 114 90 167.5t84 141.5t113 162t135 155h-409z" />
    <glyph glyph-name="eight.oldstyle" horiz-adv-x="540" 
d="M363 661q27 0 36 -1l14 -2q53 -6 91 -45t38 -97q0 -38 -14.5 -74.5t-53 -68t-94.5 -36.5q77 -13 107.5 -60t30.5 -97q0 -81 -64.5 -137.5t-185.5 -56.5q-100 0 -150.5 44t-50.5 112q0 15 4.5 35t17 46t32.5 48t54.5 40.5t78.5 25.5q-60 6 -88 45t-28 92q0 76 52.5 125.5
t120.5 58.5l16 2q11 1 36 1zM272 11q103 0 160.5 47t57.5 121q0 61 -44 102.5t-131 41.5q-105 0 -163 -54.5t-58 -127.5q0 -59 45.5 -94.5t132.5 -35.5zM359 636q-96 0 -145 -46t-49 -115q0 -122 155 -122q194 0 194 162q0 52 -38.5 86.5t-116.5 34.5z" />
    <glyph glyph-name="nine.oldstyle" horiz-adv-x="520" 
d="M89 -188l13 25q42 -16 91 -16q127 0 202.5 93.5t81.5 249.5q-17 -41 -48.5 -70.5t-67 -42.5t-62.5 -18.5t-47 -5.5q-85 0 -132.5 51.5t-47.5 139.5q0 116 75 184t175 68q54 0 92.5 -22.5t58 -61.5t27.5 -78.5t8 -85.5q0 -217 -86 -322t-230 -105q-64 0 -103 17zM320 443
q-104 0 -161 -68.5t-57 -150.5q0 -69 37.5 -119.5t120.5 -50.5q71 0 132 44t79 105q5 14 8 37q4 93 -36 148t-123 55z" />
    <glyph glyph-name="zero.pzero" horiz-adv-x="570" 
d="M125 66l-48 -66h-25l63 85q-28 57 -28 164q0 195 77.5 303.5t210.5 108.5q81 0 131 -44l42 57h25l-52 -71q54 -62 54 -200q0 -192 -79.5 -304.5t-215.5 -112.5q-105 0 -155 80zM135 112l352 480q-43 43 -116 43q-82 0 -142 -55t-88 -139t-28 -183q0 -92 22 -146zM501 576
l-357 -484q42 -80 140 -80q86 0 147.5 57.5t88 141.5t26.5 183q0 124 -45 182z" />
    <glyph glyph-name="zero.tzero" horiz-adv-x="550" 
d="M115 66l-48 -66h-25l63 85q-28 57 -28 164q0 195 77.5 303.5t210.5 108.5q81 0 131 -44l42 57h25l-52 -71q54 -62 54 -200q0 -192 -79.5 -304.5t-215.5 -112.5q-105 0 -155 80zM125 112l352 480q-43 43 -116 43q-82 0 -142 -55t-88 -139t-28 -183q0 -92 22 -146zM491 576
l-357 -484q42 -80 140 -80q86 0 147.5 57.5t88 141.5t26.5 183q0 124 -45 182z" />
    <glyph glyph-name="triangleup" horiz-adv-x="520" 
d="M493 162h-420l259 346z" />
    <glyph glyph-name="triangledown" horiz-adv-x="520" 
d="M121 508h420l-259 -346z" />
    <glyph glyph-name="zero.ozero" horiz-adv-x="440" 
d="M115 33l-30 -41h-25l43 58q-26 44 -26 128q0 142 56 219.5t152 77.5q65 0 101 -39l26 35h25l-37 -51q28 -41 28 -129q0 -138 -57.5 -219.5t-153.5 -81.5q-66 0 -102 43zM121 74l248 337q-32 38 -88 38q-86 0 -133 -78t-47 -186q0 -75 20 -111zM380 394l-248 -338
q30 -40 88 -40q61 0 103.5 40.5t60.5 98.5t18 127q0 75 -22 112z" />
    <glyph glyph-name="zero.tozero" horiz-adv-x="550" 
d="M170 33l-30 -41h-25l43 58q-26 44 -26 128q0 142 56 219.5t152 77.5q65 0 101 -39l26 35h25l-37 -51q28 -41 28 -129q0 -138 -57.5 -219.5t-153.5 -81.5q-66 0 -102 43zM176 74l248 337q-32 38 -88 38q-86 0 -133 -78t-47 -186q0 -75 20 -111zM435 394l-248 -338
q30 -40 88 -40q61 0 103.5 40.5t60.5 98.5t18 127q0 75 -22 112z" />
    <glyph glyph-name="A.small" horiz-adv-x="458" 
d="M37 0h-27l274 478h25l139 -478h-26l-36 121h-281zM292 444l-174 -302h261z" />
    <glyph glyph-name="B.small" horiz-adv-x="415" 
d="M287 230h-186l-29 -208h203q52 0 83 34.5t31 78.5q0 40 -26 67.5t-76 27.5zM422 372q0 -11 -3.5 -26t-11.5 -35.5t-25.5 -39t-41.5 -27.5q33 -7 53.5 -37.5t20.5 -69.5q0 -50 -37.5 -93.5t-100.5 -43.5h-232l67 478h197q57 0 85.5 -29.5t28.5 -76.5zM105 253h179
q56 0 84.5 38t28.5 77t-25 63.5t-67 24.5h-172z" />
    <glyph glyph-name="C.small" horiz-adv-x="403" 
d="M55 204q0 117 77.5 200t195.5 83q80 0 124 -19l-9 -20q-61 15 -100 15q-66 0 -118 -23t-82 -61.5t-45.5 -82.5t-15.5 -90q0 -82 48.5 -137.5t149.5 -55.5q44 0 104 16l3 -22q-51 -17 -128 -17q-95 0 -149.5 60.5t-54.5 153.5z" />
    <glyph glyph-name="D.small" horiz-adv-x="462" 
d="M206 0h-162l67 478h162q98 0 151 -49.5t53 -147.5q0 -136 -72.5 -208.5t-198.5 -72.5zM74 24h138q104 0 172 63.5t68 191.5q0 90 -48.5 132.5t-132.5 42.5h-136z" />
    <glyph glyph-name="E.small" horiz-adv-x="361" 
d="M341 0h-301l67 478h296l-3 -24h-272l-28 -200h251l-4 -24h-251l-29 -206h277z" />
    <glyph glyph-name="F.small" horiz-adv-x="347" 
d="M69 0h-25l67 478h278l-3 -24h-253l-28 -200h233l-4 -24h-233z" />
    <glyph glyph-name="G.small" horiz-adv-x="472" 
d="M444 213h-103l4 24h127l-31 -219q-63 -27 -160 -27q-104 0 -164 61t-60 155q0 116 83.5 198t210.5 82q84 0 134 -29l-13 -21q-49 26 -106 26q-136 0 -210 -76.5t-74 -174.5q0 -82 53 -139.5t155 -57.5q70 0 129 20z" />
    <glyph glyph-name="H.small" horiz-adv-x="440" 
d="M409 236h-311l-33 -236h-25l67 478h25l-30 -218h311l30 218h24l-67 -478h-24z" />
    <glyph glyph-name="I.small" horiz-adv-x="105" 
d="M40 0l67 478h25l-67 -478h-25z" />
    <glyph glyph-name="J.small" horiz-adv-x="265" 
d="M6 11l11 24l12 -5q43 -15 76 -15q50 0 74 26.5t33 84.5l50 352h25l-51 -357q-9 -70 -46.5 -100.5t-87.5 -30.5q-46 0 -96 21z" />
    <glyph glyph-name="K.small" horiz-adv-x="384" 
d="M374 0h-31l-154 248l-101 -103l-20 -145h-24l67 478h24l-42 -297l285 297h30l-201 -212z" />
    <glyph glyph-name="L.small" horiz-adv-x="338" 
d="M132 478l-64 -454h253l-3 -24h-278l67 478h25z" />
    <glyph glyph-name="M.small" horiz-adv-x="598" 
d="M286 0l-144 434l-81 -434h-26l90 478h30l149 -445l274 445h29l-44 -478h-26l41 434l-267 -434h-25z" />
    <glyph glyph-name="N.small" horiz-adv-x="446" 
d="M40 0l67 478h32l247 -445l62 445h25l-67 -478h-30l-248 445l-63 -445h-25z" />
    <glyph glyph-name="O.small" horiz-adv-x="500" 
d="M249 -10q-92 0 -143 55t-51 152q0 132 73 211t191 79q93 0 143.5 -54t50.5 -151q0 -132 -72.5 -212t-191.5 -80zM315 463q-107 0 -171 -76.5t-64 -184.5q0 -85 44 -137t128 -52q110 0 173 75t63 186q0 82 -44.5 135.5t-128.5 53.5z" />
    <glyph glyph-name="P.small" horiz-adv-x="392" 
d="M284 200h-187l-28 -200h-25l67 478h206q58 0 84 -36.5t26 -86.5q0 -10 -3 -25.5t-12.5 -39t-24 -43t-41.5 -33.5t-62 -14zM100 222h187q55 0 85 44t30 86q0 43 -22.5 73.5t-67.5 30.5h-179z" />
    <glyph glyph-name="Q.small" horiz-adv-x="500" 
d="M249 -10q-92 0 -143 55t-51 152q0 132 73 211t191 79q93 0 143.5 -54t50.5 -151q0 -96 -48.5 -173.5t-128.5 -104.5q42 -52 132 -52l-3 -21q-95 0 -153 65q-32 -6 -63 -6zM315 464q-107 0 -171 -76.5t-64 -185.5q0 -85 44 -137.5t128 -52.5q110 0 173 75.5t63 186.5
q0 83 -44.5 136.5t-128.5 53.5z" />
    <glyph glyph-name="R.small" horiz-adv-x="413" 
d="M427 362q0 -14 -4 -31.5t-14.5 -42t-35 -45.5t-59.5 -31q30 -19 45 -77l34 -135h-26l-40 151q-16 53 -81 53h-147l-29 -204h-26l67 478h199q63 0 90 -34t27 -82zM102 229h175q46 0 76 24t39.5 51t9.5 53q0 43 -23 71t-73 28h-172z" />
    <glyph glyph-name="S.small" horiz-adv-x="389" 
d="M258 487q81 0 142 -43l-15 -21q-67 40 -130 40q-108 0 -141 -80q-12 -44 10 -67t69 -41l122 -51q40 -17 55.5 -45.5t10.5 -54.5q-9 -61 -60 -97.5t-117 -36.5q-102 0 -172 59l16 20q76 -55 156 -55q45 0 88.5 23.5t56.5 64.5q15 37 0 63t-45 37l-148 60q-42 18 -61 45.5
t-6 75.5q14 46 60.5 75t108.5 29z" />
    <glyph glyph-name="T.small" horiz-adv-x="376" 
d="M430 454h-165l-64 -454h-26l64 454h-165l3 24h356z" />
    <glyph glyph-name="U.small" horiz-adv-x="461" 
d="M229 -10q-93 0 -134.5 48t-26.5 159l39 281h26l-39 -276q-13 -99 19 -143t119 -44q88 0 133.5 44.5t58.5 142.5l39 276h25l-39 -281q-15 -111 -71 -159t-149 -48z" />
    <glyph glyph-name="V.small" horiz-adv-x="417" 
d="M77 478h28l108 -445l235 445h26l-251 -478h-28z" />
    <glyph glyph-name="W.small" horiz-adv-x="667" 
d="M409 459l88 -425l202 444h25l-217 -478h-29l-86 418l-201 -418h-31l-83 478h25l79 -444l205 425h23z" />
    <glyph glyph-name="X.small" horiz-adv-x="403" 
d="M232 211l-193 -211h-29l214 235l-139 243h30l124 -218l184 218h30l-206 -243l146 -235h-28z" />
    <glyph glyph-name="Y.small" horiz-adv-x="416" 
d="M221 0h-26l23 168l-141 310h30l128 -283l207 283h31l-229 -310z" />
    <glyph glyph-name="Z.small" horiz-adv-x="413" 
d="M373 0h-348l3 22l394 434h-319l3 22h349l-3 -22l-393 -433h317z" />
    <glyph glyph-name="Eth.small" horiz-adv-x="504" 
d="M153 478h161q99 0 152 -49.5t53 -147.5q0 -136 -72.5 -208.5t-199.5 -72.5h-161l30 213h-77l3 23h77zM115 24h138q104 0 172.5 63.5t68.5 191.5q0 90 -48.5 132.5t-133.5 42.5h-136l-31 -218h158l-3 -23h-158z" />
    <glyph glyph-name="Lslash.small" horiz-adv-x="401" 
d="M97 0l27 194l-95 -58l4 30l95 57l36 255h26l-33 -237l95 59l-4 -28l-95 -60l-26 -185h253l-4 -27h-279z" />
    <glyph glyph-name="Scaron.small" horiz-adv-x="389" 
d="M258 487q81 0 142 -43l-15 -21q-67 40 -130 40q-47 0 -85.5 -19.5t-55.5 -61.5v1q-12 -44 10 -67t69 -41l122 -51q40 -17 55.5 -45.5t10.5 -54.5q-9 -61 -60 -97.5t-117 -36.5q-102 0 -172 59l16 20q76 -55 156 -55q45 0 88.5 23.5t56.5 64.5q26 66 -45 100q-22 7 -88 35
l-60 25q-42 18 -61 45.5t-6 75.5q14 46 60.5 75t108.5 29zM272 551l60 60h27l-73 -78h-33l-50 78h25z" />
    <glyph glyph-name="Yacute.small" horiz-adv-x="416" 
d="M243 519l58 84h31l-63 -84h-26zM221 0h-26l23 168l-141 310h30l128 -283l207 283h31l-229 -310z" />
    <glyph glyph-name="Zcaron.small" horiz-adv-x="413" 
d="M373 0h-348l3 22l394 434h-319l3 22h349l-3 -22l-393 -433h317zM285 552l59 59h26l-72 -78h-33l-51 78h26z" />
    <glyph glyph-name="Thorn.small" horiz-adv-x="382" 
d="M135 478l-17 -120q54 54 131 54q70 0 106.5 -41.5t36.5 -111.5q0 -93 -51.5 -153.5t-136.5 -60.5q-97 0 -122 55l-14 -100h-24l67 478h24zM245 389q-44 0 -86.5 -24t-49.5 -73l-16 -116q-5 -32 5 -55.5t29.5 -34t38 -15t38.5 -4.5q46 0 79.5 19.5t50.5 50t24.5 60
t7.5 57.5q0 18 -2.5 34.5t-11 35.5t-21 33t-35 23t-51.5 9z" />
    <glyph glyph-name="Adieresis.small" horiz-adv-x="458" 
d="M37 0h-27l274 478h25l139 -478h-26l-36 121h-281zM292 444l-174 -302h261zM253 544l9 59h25l-9 -59h-25zM333 544l9 59h25l-9 -59h-25z" />
    <glyph glyph-name="Aring.small" horiz-adv-x="458" 
d="M255 578q0 26 17 45t47 19q49 0 49 -49q0 -27 -18 -46t-47 -19q-22 0 -35 14.5t-13 35.5zM345 590q0 12 -7.5 21.5t-21.5 9.5q-19 0 -29 -12.5t-10 -28.5q0 -31 29 -31q19 0 29 12.5t10 28.5zM37 0h-27l274 478h25l139 -478h-26l-36 121h-281zM292 444l-174 -302h261z
" />
    <glyph glyph-name="Ccedilla.small" horiz-adv-x="403" 
d="M56 206q0 116 77 198.5t195 82.5q80 0 124 -19l-9 -20q-61 15 -100 15q-66 0 -118 -23t-82 -61.5t-45.5 -82.5t-15.5 -90q0 -82 48.5 -137.5t149.5 -55.5q44 0 104 16l3 -22q-51 -17 -128 -17h-14q-3 0 -4 0.5t-3 0.5q11 -24 13 -38q4 -37 -22.5 -66.5t-67.5 -25.5
q-25 4 -54 17l3 21l38 -13q18 -5 26 -5q25 0 40 15.5t15 41.5t-15 56q-73 15 -115.5 74t-42.5 138z" />
    <glyph glyph-name="Eacute.small" horiz-adv-x="361" 
d="M341 0h-301l67 478h296l-3 -24h-272l-28 -200h251l-4 -24h-251l-29 -206h277zM241 519l58 84h31l-64 -84h-25z" />
    <glyph glyph-name="Ntilde.small" horiz-adv-x="446" 
d="M40 0l67 478h32l247 -445l62 445h25l-67 -478h-30l-248 445l-63 -445h-25zM240 553h-22q18 55 64 50q20 -4 35 -17q14 -10 23 -10q18 0 30 27h21q-6 -28 -22.5 -39.5t-34.5 -8.5q-22 3 -35 15q-14 10 -24 10q-12 0 -19 -5.5t-16 -21.5z" />
    <glyph glyph-name="Odieresis.small" horiz-adv-x="500" 
d="M275 544l8 59h25l-8 -59h-25zM355 544l8 59h25l-8 -59h-25zM249 -10q-92 0 -143 55t-51 152q0 132 73 211t191 79q93 0 143.5 -54t50.5 -151q0 -132 -72.5 -212t-191.5 -80zM315 463q-107 0 -171 -76.5t-64 -184.5q0 -85 44 -137t128 -52q110 0 173 75t63 186
q0 82 -44.5 135.5t-128.5 53.5z" />
    <glyph glyph-name="Udieresis.small" horiz-adv-x="461" 
d="M254 544l9 59h25l-9 -59h-25zM334 544l9 59h25l-9 -59h-25zM229 -10q-93 0 -134.5 48t-26.5 159l39 281h26l-39 -276q-13 -99 19 -143t119 -44q88 0 133.5 44.5t58.5 142.5l39 276h25l-39 -281q-15 -111 -71 -159t-149 -48z" />
    <glyph glyph-name="AE.small" horiz-adv-x="653" 
d="M330 456l-203 -314h225l44 314h-66zM360 24h276l-3 -24h-301l17 120h-233q-78 -119 -79 -120h-27l306 478h378l-3 -22h-269l-28 -203h250l-4 -23h-251z" />
    <glyph glyph-name="Oslash.small" horiz-adv-x="500" 
d="M123 29l-53 -67h-29l64 81q-50 55 -50 155q0 131 73 210t191 79q74 0 121 -35l48 59h30l-59 -73q54 -54 54 -157q0 -132 -72.5 -211.5t-191.5 -79.5q-75 0 -126 39zM123 63l301 369q-41 31 -109 31q-106 0 -170 -76.5t-64 -184.5q0 -90 42 -139zM442 416l-303 -369
q47 -34 113 -34q110 0 173 75.5t63 186.5q0 94 -46 141z" />
    <glyph glyph-name="Agrave.small" horiz-adv-x="458" 
d="M272 603l35 -84h-26l-39 84h30zM37 0h-27l274 478h25l139 -478h-26l-36 121h-281zM292 444l-174 -302h261z" />
    <glyph glyph-name="Atilde.small" horiz-adv-x="458" 
d="M37 0h-27l274 478h25l139 -478h-26l-36 121h-281zM292 444l-174 -302h261zM246 553h-22q18 55 64 50q20 -4 35 -17q14 -10 23 -10q18 0 30 27h21q-6 -28 -22.5 -39.5t-34.5 -8.5q-22 3 -35 15q-14 10 -24 10q-12 0 -19 -5.5t-16 -21.5z" />
    <glyph glyph-name="Otilde.small" horiz-adv-x="500" 
d="M267 553h-23q18 55 65 50q19 -4 36 -17q14 -10 22 -10q18 0 30 27h20q-6 -28 -22 -39.5t-34 -8.5q-22 3 -35 15q-10 10 -24 10q-12 0 -19 -5.5t-16 -21.5zM249 -10q-92 0 -143 55t-51 152q0 132 73 211t191 79q93 0 143.5 -54t50.5 -151q0 -132 -72.5 -212t-191.5 -80z
M315 463q-107 0 -171 -76.5t-64 -184.5q0 -85 44 -137t128 -52q110 0 173 75t63 186q0 82 -44.5 135.5t-128.5 53.5z" />
    <glyph glyph-name="OE.small" horiz-adv-x="790" 
d="M317 463q-107 0 -171 -76.5t-64 -184.5q0 -85 44 -137t128 -52q110 0 173 75t63 186q0 82 -44.5 135.5t-128.5 53.5zM454 0l16 114q-73 -124 -219 -124q-92 0 -143 55t-51 152q0 132 73 211t191 79q71 0 118.5 -32.5t65.5 -91.5l16 115h295l-3 -24h-270l-28 -200h250
l-3 -24h-250l-29 -206h275l-4 -24h-300z" />
    <glyph glyph-name="Ydieresis.small" horiz-adv-x="416" 
d="M231 544l9 59h25l-9 -59h-25zM311 544l9 59h25l-9 -59h-25zM221 0h-26l23 168l-141 310h30l128 -283l207 283h31l-229 -310z" />
    <glyph glyph-name="Acircumflex.small" horiz-adv-x="458" 
d="M37 0h-27l274 478h25l139 -478h-26l-36 121h-281zM292 444l-174 -302h261zM312 583l-62 -61h-26l74 81h32l51 -81h-27z" />
    <glyph glyph-name="Ecircumflex.small" horiz-adv-x="361" 
d="M341 0h-301l67 478h296l-3 -24h-272l-28 -200h251l-4 -24h-251l-29 -206h277zM265 583l-60 -61h-28l74 81h34l50 -81h-28z" />
    <glyph glyph-name="Aacute.small" horiz-adv-x="458" 
d="M37 0h-27l274 478h25l139 -478h-26l-36 121h-281zM292 444l-174 -302h261zM298 519l57 84h32l-64 -84h-25z" />
    <glyph glyph-name="Edieresis.small" horiz-adv-x="361" 
d="M341 0h-301l67 478h296l-3 -24h-272l-28 -200h251l-4 -24h-251l-29 -206h277zM207 544l9 59h24l-9 -59h-24zM287 544l9 59h24l-9 -59h-24z" />
    <glyph glyph-name="Egrave.small" horiz-adv-x="361" 
d="M240 603l34 -84h-25l-39 84h30zM341 0h-301l67 478h296l-3 -24h-272l-28 -200h251l-4 -24h-251l-29 -206h277z" />
    <glyph glyph-name="Iacute.small" horiz-adv-x="104" 
d="M40 0l67 478h25l-67 -478h-25zM110 519l57 84h32l-64 -84h-25z" />
    <glyph glyph-name="Icircumflex.small" horiz-adv-x="104" 
d="M40 0l67 478h25l-67 -478h-25zM135 583l-62 -61h-26l74 81h32l51 -81h-27z" />
    <glyph glyph-name="Idieresis.small" horiz-adv-x="104" 
d="M40 0l67 478h25l-67 -478h-25zM75 544l9 59h25l-9 -59h-25zM155 544l9 59h25l-9 -59h-25z" />
    <glyph glyph-name="Igrave.small" horiz-adv-x="104" 
d="M104 603l33 -84h-24l-40 84h31zM40 0l67 478h25l-67 -478h-25z" />
    <glyph glyph-name="Oacute.small" horiz-adv-x="500" 
d="M309 519l57 84h31l-64 -84h-24zM249 -10q-92 0 -143 55t-51 152q0 132 73 211t191 79q93 0 143.5 -54t50.5 -151q0 -132 -72.5 -212t-191.5 -80zM315 463q-107 0 -171 -76.5t-64 -184.5q0 -85 44 -137t128 -52q110 0 173 75t63 186q0 82 -44.5 135.5t-128.5 53.5z" />
    <glyph glyph-name="Ocircumflex.small" horiz-adv-x="500" 
d="M332 583l-60 -61h-27l74 81h32l51 -81h-26zM249 -10q-92 0 -143 55t-51 152q0 132 73 211t191 79q93 0 143.5 -54t50.5 -151q0 -132 -72.5 -212t-191.5 -80zM315 463q-107 0 -171 -76.5t-64 -184.5q0 -85 44 -137t128 -52q110 0 173 75t63 186q0 82 -44.5 135.5
t-128.5 53.5z" />
    <glyph glyph-name="Ograve.small" horiz-adv-x="500" 
d="M249 -10q-92 0 -143 55t-51 152q0 132 73 211t191 79q93 0 143.5 -54t50.5 -151q0 -132 -72.5 -212t-191.5 -80zM315 463q-107 0 -171 -76.5t-64 -184.5q0 -85 44 -137t128 -52q110 0 173 75t63 186q0 82 -44.5 135.5t-128.5 53.5zM299 603l33 -84h-24l-40 84h31z" />
    <glyph glyph-name="Uacute.small" horiz-adv-x="461" 
d="M266 519l57 84h31l-63 -84h-25zM229 -10q-93 0 -134.5 48t-26.5 159l39 281h26l-39 -276q-13 -99 19 -143t119 -44q88 0 133.5 44.5t58.5 142.5l39 276h25l-39 -281q-15 -111 -71 -159t-149 -48z" />
    <glyph glyph-name="Ucircumflex.small" horiz-adv-x="461" 
d="M313 583l-61 -61h-27l75 81h32l51 -81h-28zM229 -10q-93 0 -134.5 48t-26.5 159l39 281h26l-39 -276q-13 -99 19 -143t119 -44q88 0 133.5 44.5t58.5 142.5l39 276h25l-39 -281q-15 -111 -71 -159t-149 -48z" />
    <glyph glyph-name="Ugrave.small" horiz-adv-x="461" 
d="M229 -10q-93 0 -134.5 48t-26.5 159l39 281h26l-39 -276q-13 -99 19 -143t119 -44q88 0 133.5 44.5t58.5 142.5l39 276h25l-39 -281q-15 -111 -71 -159t-149 -48zM308 603l33 -84h-25l-39 84h31z" />
    <glyph glyph-name="Cdotaccent.small" horiz-adv-x="403" 
d="M310 544l9 59h26l-9 -59h-26zM55 204q0 117 77.5 200t195.5 83q80 0 124 -19l-9 -20q-61 15 -100 15q-66 0 -118 -23t-82 -61.5t-45.5 -82.5t-15.5 -90q0 -82 48.5 -137.5t149.5 -55.5q44 0 104 16l3 -22q-51 -17 -128 -17q-95 0 -149.5 60.5t-54.5 153.5z" />
    <glyph glyph-name="Ibreve.small" horiz-adv-x="104" 
d="M40 0l67 478h25l-67 -478h-25zM125 515q-40 1 -59.5 26t-17.5 62h22q-2 -66 57 -66t78 66h22q-9 -38 -35.5 -62.5t-66.5 -25.5z" />
    <glyph glyph-name="Idotaccent.small" horiz-adv-x="104" 
d="M40 0l67 478h25l-67 -478h-25zM116 544l9 59h25l-9 -59h-25z" />
    <glyph glyph-name="Ycircumflex.small" horiz-adv-x="416" 
d="M291 583l-62 -61h-26l74 81h33l50 -81h-27zM221 0h-26l23 168l-141 310h30l128 -283l207 283h31l-229 -310z" />
    <glyph glyph-name="Wcircumflex.small" horiz-adv-x="667" 
d="M416 583l-61 -61h-27l74 81h33l50 -81h-27zM409 459l88 -425l202 444h25l-217 -478h-29l-86 418l-201 -418h-31l-83 478h25l79 -444l205 425h23z" />
    <glyph glyph-name="Tcaron.small" horiz-adv-x="376" 
d="M430 454h-165l-64 -454h-26l64 454h-165l3 24h356zM265 551l60 60h27l-73 -78h-33l-50 78h26z" />
    <glyph glyph-name="Utilde.small" horiz-adv-x="461" 
d="M248 553h-23q18 55 65 50q20 -4 35 -17q14 -10 23 -10q18 0 30 27h21q-11 -54 -58 -48q-23 4 -34 15q-14 10 -25 10q-23 0 -34 -27zM229 -10q-93 0 -134.5 48t-26.5 159l39 281h26l-39 -276q-13 -99 19 -143t119 -44q88 0 133.5 44.5t58.5 142.5l39 276h25l-39 -281
q-15 -111 -71 -159t-149 -48z" />
    <glyph glyph-name="Scircumflex.small" horiz-adv-x="389" 
d="M258 487q81 0 142 -43l-15 -21q-67 40 -130 40q-47 0 -85.5 -19.5t-55.5 -61.5v1q-12 -44 10 -67t69 -41l122 -51q40 -17 55.5 -45.5t10.5 -54.5q-9 -61 -60 -97.5t-117 -36.5q-102 0 -172 59l16 20q76 -55 156 -55q45 0 88.5 23.5t56.5 64.5q26 66 -45 100q-22 7 -88 35
l-60 25q-42 18 -61 45.5t-6 75.5q14 46 60.5 75t108.5 29zM277 583l-62 -61h-26l74 81h33l50 -81h-27z" />
    <glyph glyph-name="Rcaron.small" horiz-adv-x="413" 
d="M427 362q0 -14 -4 -31.5t-14.5 -42t-35 -45.5t-59.5 -31q30 -19 45 -77l34 -135h-26l-40 151q-16 53 -81 53h-147l-29 -204h-26l67 478h199q63 0 90 -34t27 -82zM102 229h175q46 0 76 24t39.5 51t9.5 53q0 43 -23 71t-73 28h-172zM284 552l59 59h26l-72 -78h-33l-51 78
h26z" />
    <glyph glyph-name="Ncaron.small" horiz-adv-x="446" 
d="M40 0l67 478h32l247 -445l62 445h25l-67 -478h-30l-248 445l-63 -445h-25zM302 552l59 59h26l-73 -78h-32l-51 78h26z" />
    <glyph glyph-name="Jcircumflex.small" horiz-adv-x="265" 
d="M6 11l11 24q2 -1 7 -3t6 -2q39 -15 76 -15q49 0 73.5 26.5t32.5 84.5l50 352h25l-51 -357q-9 -70 -46.5 -100.5t-86.5 -30.5q-47 0 -97 21zM289 583l-60 -61h-27l74 81h32l51 -81h-26z" />
    <glyph glyph-name="Itilde.small" horiz-adv-x="104" 
d="M40 0l67 478h25l-67 -478h-25zM69 553h-22q18 55 64 50q19 -4 36 -17q14 -10 22 -10q18 0 30 27h21q-6 -28 -22.5 -39.5t-34.5 -8.5q-21 3 -34 15q-14 10 -25 10q-12 0 -19 -5.5t-16 -21.5z" />
    <glyph glyph-name="Hcircumflex.small" horiz-adv-x="440" 
d="M409 236h-311l-33 -236h-25l67 478h25l-30 -218h311l30 218h24l-67 -478h-24zM303 583l-62 -61h-26l74 81h32l51 -81h-27z" />
    <glyph glyph-name="Gcircumflex.small" horiz-adv-x="472" 
d="M444 213h-103l4 24h127l-31 -219q-63 -27 -160 -27q-104 0 -164 61t-60 155q0 116 83.5 198t210.5 82q84 0 134 -29l-13 -21q-49 26 -106 26q-136 0 -210 -76.5t-74 -174.5q0 -82 53 -139.5t155 -57.5q70 0 129 20zM348 583l-60 -61h-27l73 81h33l52 -81h-28z" />
    <glyph glyph-name="Ecaron.small" horiz-adv-x="361" 
d="M341 0h-301l67 478h296l-3 -24h-272l-28 -200h251l-4 -24h-251l-29 -206h277zM261 552l59 59h27l-72 -78h-34l-50 78h27z" />
    <glyph glyph-name="Dcaron.small" horiz-adv-x="462" 
d="M206 0h-162l67 478h162q98 0 151 -49.5t53 -147.5q0 -136 -72.5 -208.5t-198.5 -72.5zM74 24h138q104 0 172 63.5t68 191.5q0 90 -48.5 132.5t-132.5 42.5h-136zM308 552l59 59h27l-73 -78h-32l-51 78h26z" />
    <glyph glyph-name="Lcaron.small" horiz-adv-x="338" 
d="M174 351l81 128h27l-83 -128h-25zM132 478l-64 -454h253l-3 -24h-278l67 478h25z" />
    <glyph glyph-name="Ccaron.small" horiz-adv-x="403" 
d="M330 552l60 59h26l-72 -78h-33l-51 78h27zM55 204q0 117 77.5 200t195.5 83q80 0 124 -19l-9 -20q-61 15 -100 15q-66 0 -118 -23t-82 -61.5t-45.5 -82.5t-15.5 -90q0 -82 48.5 -137.5t149.5 -55.5q44 0 104 16l3 -22q-51 -17 -128 -17q-95 0 -149.5 60.5t-54.5 153.5z
" />
    <glyph glyph-name="Ccircumflex.small" horiz-adv-x="403" 
d="M337 583l-61 -61h-27l74 81h33l50 -81h-27zM55 204q0 117 77.5 200t195.5 83q80 0 124 -19l-9 -20q-61 15 -100 15q-66 0 -118 -23t-82 -61.5t-45.5 -82.5t-15.5 -90q0 -82 48.5 -137.5t149.5 -55.5q44 0 104 16l3 -22q-51 -17 -128 -17q-95 0 -149.5 60.5t-54.5 153.5z
" />
    <glyph glyph-name="Zacute.small" horiz-adv-x="413" 
d="M373 0h-348l3 22l394 434h-319l3 22h349l-3 -22l-393 -433h317zM256 519l57 84h32l-64 -84h-25z" />
    <glyph glyph-name="Wgrave.small" horiz-adv-x="667" 
d="M409 459l88 -425l202 444h25l-217 -478h-29l-86 418l-201 -418h-31l-83 478h25l79 -444l205 425h23zM381 603l34 -84h-25l-40 84h31z" />
    <glyph glyph-name="Wacute.small" horiz-adv-x="667" 
d="M393 519l58 84h31l-64 -84h-25zM409 459l88 -425l202 444h25l-217 -478h-29l-86 418l-201 -418h-31l-83 478h25l79 -444l205 425h23z" />
    <glyph glyph-name="Ygrave.small" horiz-adv-x="416" 
d="M221 0h-26l23 168l-141 310h30l128 -283l207 283h31l-229 -310zM261 603l34 -84h-26l-39 84h31z" />
    <glyph glyph-name="Sacute.small" horiz-adv-x="389" 
d="M258 487q81 0 142 -43l-15 -21q-67 40 -130 40q-47 0 -85.5 -19.5t-55.5 -61.5v1q-12 -44 10 -67t69 -41l122 -51q40 -17 55.5 -45.5t10.5 -54.5q-9 -61 -60 -97.5t-117 -36.5q-102 0 -172 59l16 20q76 -55 156 -55q45 0 88.5 23.5t56.5 64.5q26 66 -45 100q-22 7 -88 35
l-60 25q-42 18 -61 45.5t-6 75.5q14 46 60.5 75t108.5 29zM242 519l58 84h31l-63 -84h-26z" />
    <glyph glyph-name="Racute.small" horiz-adv-x="413" 
d="M427 362q0 -14 -4 -31.5t-14.5 -42t-35 -45.5t-59.5 -31q30 -19 45 -77l34 -135h-26l-40 151q-16 53 -81 53h-147l-29 -204h-26l67 478h199q63 0 90 -34t27 -82zM102 229h175q46 0 76 24t39.5 51t9.5 53q0 43 -23 71t-73 28h-172zM240 519l58 84h31l-64 -84h-25z" />
    <glyph glyph-name="Lacute.small" horiz-adv-x="339" 
d="M113 519l57 84h31l-64 -84h-24zM133 478l-64 -454h253l-3 -24h-278l67 478h25z" />
    <glyph glyph-name="Cacute.small" horiz-adv-x="403" 
d="M288 519l57 84h32l-65 -84h-24zM55 204q0 117 77.5 200t195.5 83q80 0 124 -19l-9 -20q-61 15 -100 15q-66 0 -118 -23t-82 -61.5t-45.5 -82.5t-15.5 -90q0 -82 48.5 -137.5t149.5 -55.5q44 0 104 16l3 -22q-51 -17 -128 -17q-95 0 -149.5 60.5t-54.5 153.5z" />
    <glyph glyph-name="Gdotaccent.small" horiz-adv-x="472" 
d="M444 213h-103l4 24h127l-31 -219q-63 -27 -160 -27q-104 0 -164 61t-60 155q0 116 83.5 198t210.5 82q84 0 134 -29l-13 -21q-49 26 -106 26q-136 0 -210 -76.5t-74 -174.5q0 -82 53 -139.5t155 -57.5q70 0 129 20zM344 544l8 59h25l-8 -59h-25z" />
    <glyph glyph-name="Edotaccent.small" horiz-adv-x="361" 
d="M341 0h-301l67 478h296l-3 -24h-272l-28 -200h251l-4 -24h-251l-29 -206h277zM247 544l9 59h25l-9 -59h-25z" />
    <glyph glyph-name="Ohungarumlaut.small" horiz-adv-x="500" 
d="M269 519l58 84h30l-63 -84h-25zM335 519l58 84h31l-63 -84h-26zM249 -10q-92 0 -143 55t-51 152q0 132 73 211t191 79q93 0 143.5 -54t50.5 -151q0 -132 -72.5 -212t-191.5 -80zM315 463q-107 0 -171 -76.5t-64 -184.5q0 -85 44 -137t128 -52q110 0 173 75t63 186
q0 82 -44.5 135.5t-128.5 53.5z" />
    <glyph glyph-name="Uhungarumlaut.small" horiz-adv-x="461" 
d="M250 519l58 84h30l-63 -84h-25zM316 519l58 84h31l-64 -84h-25zM229 -10q-93 0 -134.5 48t-26.5 159l39 281h26l-39 -276q-13 -99 19 -143t119 -44q88 0 133.5 44.5t58.5 142.5l39 276h25l-39 -281q-15 -111 -71 -159t-149 -48z" />
    <glyph glyph-name="Uring.small" horiz-adv-x="461" 
d="M229 -10q-93 0 -134.5 48t-26.5 159l39 281h26l-39 -276q-13 -99 19 -143t119 -44q88 0 133.5 44.5t58.5 142.5l39 276h25l-39 -281q-15 -111 -71 -159t-149 -48zM257 578q0 26 17 45t47 19q24 0 36 -13.5t12 -35.5q0 -27 -18 -46t-46 -19q-22 0 -35 14.5t-13 35.5z
M347 590q0 13 -7.5 22t-22.5 9q-18 0 -28 -12.5t-10 -28.5q0 -31 28 -31q19 0 29.5 12.5t10.5 28.5z" />
    <glyph glyph-name="Ldot.small" horiz-adv-x="338" 
d="M132 478l-64 -454h253l-3 -24h-278l67 478h25zM306 341l6 46h28l-6 -46h-28z" />
    <glyph glyph-name="Ubreve.small" horiz-adv-x="461" 
d="M304 515q-40 1 -60 26t-18 62h22q-1 -31 14 -48.5t44 -17.5q59 0 78 66h21q-9 -38 -35.5 -62.5t-65.5 -25.5zM229 -10q-93 0 -134.5 48t-26.5 159l39 281h26l-39 -276q-13 -99 19 -143t119 -44q88 0 133.5 44.5t58.5 142.5l39 276h25l-39 -281q-15 -111 -71 -159
t-149 -48z" />
    <glyph glyph-name="Obreve.small" horiz-adv-x="500" 
d="M323 515q-40 1 -59.5 26t-17.5 62h21q0 -66 58 -66q59 0 78 66h21q-9 -38 -35 -62.5t-66 -25.5zM249 -10q-92 0 -143 55t-51 152q0 132 73 211t191 79q93 0 143.5 -54t50.5 -151q0 -132 -72.5 -212t-191.5 -80zM315 463q-107 0 -171 -76.5t-64 -184.5q0 -85 44 -137
t128 -52q110 0 173 75t63 186q0 82 -44.5 135.5t-128.5 53.5z" />
    <glyph glyph-name="Gbreve.small" horiz-adv-x="472" 
d="M444 213h-103l4 24h127l-31 -219q-63 -27 -160 -27q-104 0 -164 61t-60 155q0 116 83.5 198t210.5 82q84 0 134 -29l-13 -21q-49 26 -106 26q-136 0 -210 -76.5t-74 -174.5q0 -82 53 -139.5t155 -57.5q70 0 129 20zM347 515q-40 1 -60.5 26t-18.5 62h23q-1 -31 14 -48.5
t44 -17.5q58 0 77 66h22q-9 -38 -35.5 -62.5t-65.5 -25.5z" />
    <glyph glyph-name="Ebreve.small" horiz-adv-x="361" 
d="M341 0h-301l67 478h296l-3 -24h-272l-28 -200h251l-4 -24h-251l-29 -206h277zM256 515q-40 1 -60 26t-18 62h22q0 -66 58 -66q59 0 78 66h22q-9 -38 -35.5 -62.5t-66.5 -25.5z" />
    <glyph glyph-name="Abreve.small" horiz-adv-x="458" 
d="M37 0h-27l274 478h25l139 -478h-26l-36 121h-281zM292 444l-174 -302h261zM302 515q-40 1 -60 26t-18 62h22q-1 -31 14 -48.5t44 -17.5q59 0 78 66h22q-9 -38 -35.5 -62.5t-66.5 -25.5z" />
    <glyph glyph-name="Nacute.small" horiz-adv-x="446" 
d="M40 0l67 478h32l247 -445l62 445h25l-67 -478h-30l-248 445l-63 -445h-25zM279 519l58 84h31l-64 -84h-25z" />
    <glyph glyph-name="Zdotaccent.small" horiz-adv-x="413" 
d="M373 0h-348l3 22l394 434h-319l3 22h349l-3 -22l-393 -433h317zM269 544l9 59h26l-9 -59h-26z" />
    <glyph glyph-name="Wdieresis.small" horiz-adv-x="667" 
d="M357 544l9 59h24l-9 -59h-24zM437 544l9 59h24l-9 -59h-24zM409 459l88 -425l202 444h25l-217 -478h-29l-86 418l-201 -418h-31l-83 478h25l79 -444l205 425h23z" />
    <glyph glyph-name="Umacron.small" horiz-adv-x="461" 
d="M246 603h139l-4 -23h-139zM229 -10q-93 0 -134.5 48t-26.5 159l39 281h26l-39 -276q-13 -99 19 -143t119 -44q88 0 133.5 44.5t58.5 142.5l39 276h25l-39 -281q-15 -111 -71 -159t-149 -48z" />
    <glyph glyph-name="Amacron.small" horiz-adv-x="458" 
d="M37 0h-27l274 478h25l139 -478h-26l-36 121h-281zM292 444l-174 -302h261zM245 603h138l-3 -23h-138z" />
    <glyph glyph-name="Emacron.small" horiz-adv-x="361" 
d="M341 0h-301l67 478h296l-3 -24h-272l-28 -200h251l-4 -24h-251l-29 -206h277zM199 603h138l-3 -23h-138z" />
    <glyph glyph-name="Omacron.small" horiz-adv-x="500" 
d="M266 603h138l-3 -23h-138zM249 -10q-92 0 -143 55t-51 152q0 132 73 211t191 79q93 0 143.5 -54t50.5 -151q0 -132 -72.5 -212t-191.5 -80zM315 463q-107 0 -171 -76.5t-64 -184.5q0 -85 44 -137t128 -52q110 0 173 75t63 186q0 82 -44.5 135.5t-128.5 53.5z" />
    <glyph glyph-name="lacute.small" horiz-adv-x="118" 
d="M47 0l67 478h25l-67 -478h-25zM115 518l57 84h31l-63 -84h-25z" />
    <glyph glyph-name="Imacron.small" horiz-adv-x="104" 
d="M40 0l67 478h25l-67 -478h-25zM69 603h137l-3 -23h-137z" />
    <glyph glyph-name="Uogonek.small" horiz-adv-x="461" 
d="M488 478l-39 -281q-15 -107 -67.5 -155t-139.5 -52q-30 -40 -30 -69q0 -40 41 -40q9 0 27 5l42 13l-3 -21q-29 -13 -59 -17q-43 -4 -61 25t-3 67q5 14 22 37q-86 2 -125.5 51t-24.5 156l39 281h26l-38 -276q-14 -99 17.5 -143t119.5 -44t133.5 44t59.5 143l38 276h25z
" />
    <glyph glyph-name="Aogonek.small" horiz-adv-x="456" 
d="M37 0h-26l273 478h26l136 -475q-41 -46 -41 -82q0 -19 11 -29.5t30 -10.5q10 0 28 5l42 13l-3 -21q-29 -13 -60 -17q-43 -4 -61 25t-3 67q9 22 34 50q-28 91 -37 118h-280zM292 444l-173 -302h260z" />
    <glyph glyph-name="Eogonek.small" horiz-adv-x="444" 
d="M342 4l-2 -2q-41 -44 -41 -81q0 -19 11 -29.5t30 -10.5q10 0 28 5l42 13l-3 -21q-26 -12 -60 -17q-44 -4 -61 24t-3 68q22 34 33 47h-276l67 478h296l-3 -24h-271l-28 -200h251l-4 -24h-251l-29 -206h276z" />
    <glyph glyph-name="Hbar.small" horiz-adv-x="440" 
d="M409 236h-311l-33 -236h-25l67 478h25l-30 -218h311l30 218h24l-67 -478h-24zM236 603h138l-3 -23h-138z" />
    <glyph glyph-name="Scedilla.small" horiz-adv-x="389" 
d="M381 124q-10 -57 -55 -92.5t-106 -39.5q5 -12 12 -39q4 -40 -21.5 -68t-68.5 -24q-26 1 -55 17l3 21l38 -13q18 -5 26 -5q24 0 40 15t16 40q0 21 -15 54q-95 5 -163 59l16 20q76 -55 156 -55q45 0 88.5 23.5t56.5 64.5q26 66 -45 100q-22 7 -88 35l-60 25
q-42 18 -61 45.5t-6 75.5q14 46 60.5 75t108.5 29q81 0 142 -43l-15 -21q-67 40 -130 40q-47 0 -85.5 -19.5t-55.5 -61.5v1q-12 -44 10 -67t69 -41l122 -51q40 -17 55.5 -45.5t10.5 -54.5z" />
    <glyph glyph-name="Tbar.small" horiz-adv-x="376" 
d="M430 454h-165l-64 -454h-26l64 454h-165l3 24h356zM204 603h137l-3 -23h-137z" />
    <glyph glyph-name="Eng.small" horiz-adv-x="446" 
d="M250 -152l3 23l18 1q50 0 74 26.5t33 83.5l3 20l-253 443l-63 -445h-25l67 478h32l248 -437l61 437h25l-70 -501q-9 -69 -47.5 -99.5t-87.5 -30.5z" />
    <glyph glyph-name="Ncommaaccent.small" horiz-adv-x="446" 
d="M40 0l67 478h32l247 -445l62 445h25l-67 -478h-30l-248 445l-63 -445h-25zM121 -150l79 120h28l-83 -120h-24z" />
    <glyph glyph-name="Kcommaaccent.small" horiz-adv-x="384" 
d="M374 0h-31l-154 248l-101 -103l-20 -145h-24l67 478h24l-42 -297l285 297h30l-201 -212q25 -39 81 -129t86 -137zM104 -150l79 120h29l-83 -120h-25z" />
    <glyph glyph-name="Gcommaaccent.small" horiz-adv-x="472" 
d="M444 213h-103l4 24h127l-31 -219q-63 -27 -160 -27q-104 0 -164 61t-60 155q0 116 83.5 198t210.5 82q84 0 134 -29l-13 -21q-49 26 -106 26q-136 0 -210 -76.5t-74 -174.5q0 -82 53 -139.5t155 -57.5q70 0 129 20zM190 -150l79 120h29l-83 -120h-25z" />
    <glyph glyph-name="Lcommaaccent.small" horiz-adv-x="338" 
d="M132 478l-64 -454h253l-3 -24h-278l67 478h25zM91 -150l79 120h29l-83 -120h-25z" />
    <glyph glyph-name="Rcommaaccent.small" horiz-adv-x="413" 
d="M427 362q0 -14 -4 -31.5t-14.5 -42t-35 -45.5t-59.5 -31q30 -19 45 -77l34 -135h-26l-40 151q-16 53 -81 53h-147l-29 -204h-26l67 478h199q63 0 90 -34t27 -82zM102 229h175q46 0 76 24t39.5 51t9.5 53q0 43 -23 71t-73 28h-172zM117 -150l79 120h29l-83 -120h-25z" />
    <glyph glyph-name="Dcroat.small" horiz-adv-x="504" 
d="M153 478h161q99 0 152 -49.5t53 -147.5q0 -136 -72.5 -208.5t-199.5 -72.5h-161l30 213h-77l3 23h77zM115 24h138q104 0 172.5 63.5t68.5 191.5q0 90 -48.5 132.5t-133.5 42.5h-136l-31 -218h158l-3 -23h-158z" />
    <glyph glyph-name="Aringacute.small" horiz-adv-x="458" 
d="M37 0h-27l274 478h25l139 -478h-26l-36 121h-281zM292 444l-174 -302h261zM306 652l56 83h31l-62 -83h-25zM250 569q0 26 17 45t48 19q24 0 36 -13.5t12 -35.5q0 -27 -18.5 -46t-45.5 -19q-22 0 -35.5 14.5t-13.5 35.5zM340 581q0 31 -29 31q-19 0 -28.5 -12.5
t-9.5 -28.5q0 -31 28 -31q19 0 29 12.5t10 28.5z" />
    <glyph glyph-name="AEacute.small" horiz-adv-x="653" 
d="M330 456l-203 -314h225l44 314h-66zM360 24h276l-3 -24h-301l17 120h-233q-78 -119 -79 -120h-27l306 478h378l-3 -22h-269l-28 -203h250l-4 -23h-251zM370 519l58 84h31l-64 -84h-25z" />
    <glyph glyph-name="IJ.small" horiz-adv-x="369" 
d="M40 0l67 478h25l-67 -478h-25zM109 11l11 24q2 -1 6.5 -3t5.5 -2q39 -15 76 -15q49 0 73 26.5t34 84.5l49 352h26l-50 -357q-9 -70 -46.5 -100.5t-87.5 -30.5q-47 0 -97 21z" />
    <glyph glyph-name="Oslashacute.small" horiz-adv-x="500" 
d="M319 519l58 84h32l-65 -84h-25zM123 29l-53 -67h-29l64 81q-50 55 -50 155q0 131 73 210t191 79q74 0 121 -35l48 59h30l-59 -73q54 -54 54 -157q0 -132 -72.5 -211.5t-191.5 -79.5q-75 0 -126 39zM123 63l301 369q-41 31 -109 31q-106 0 -170 -76.5t-64 -184.5
q0 -90 42 -139zM442 416l-303 -369q47 -34 113 -34q110 0 173 75.5t63 186.5q0 94 -46 141z" />
    <glyph glyph-name="Tcommaaccent.small" horiz-adv-x="376" 
d="M430 454h-165l-64 -454h-26l64 454h-165l3 24h356zM95 -150l78 120h29l-83 -120h-24z" />
    <glyph glyph-name="Scommaaccent.small" horiz-adv-x="389" 
d="M258 487q81 0 142 -43l-15 -21q-67 40 -130 40q-47 0 -85.5 -19.5t-55.5 -61.5v1q-12 -44 10 -67t69 -41l122 -51q40 -17 55.5 -45.5t10.5 -54.5q-9 -61 -60 -97.5t-117 -36.5q-102 0 -172 59l16 20q76 -55 156 -55q45 0 88.5 23.5t56.5 64.5q26 66 -45 100q-22 7 -88 35
l-60 25q-42 18 -61 45.5t-6 75.5q14 46 60.5 75t108.5 29zM108 -150l79 120h29l-84 -120h-24z" />
    <glyph glyph-name="parenleft.small" horiz-adv-x="241" 
d="M70 75q0 175 55 282t148 121l-3 -21q-78 -10 -126.5 -116t-48.5 -264q0 -93 24 -146.5t69 -59.5l-3 -21q-115 19 -115 225z" />
    <glyph glyph-name="parenright.small" horiz-adv-x="242" 
d="M218 252q0 -175 -55 -281.5t-149 -120.5l3 21q76 10 126.5 115.5t50.5 262.5q0 93 -25 147t-70 61l3 21q116 -17 116 -226z" />
    <glyph glyph-name="braceleft.small" horiz-adv-x="242" 
d="M117 163l2 -2l3 -3l5.5 -5.5t5 -5.5t5 -7.5t4.5 -9t4.5 -11t3 -13.5t1.5 -16v-18.5t-2 -22.5l-17 -121q-10 -58 36 -58h21l-3 -20h-24q-32 0 -46.5 16.5t-8.5 62.5l16 110q3 29 3 52t-12 40t-37 25l2 16q40 11 56 39t23 78l15 110q8 47 27 63t50 16h24l-3 -20h-21
q-23 0 -35 -13.5t-17 -44.5l-17 -121q-12 -80 -61 -112q-2 0 -4 -2z" />
    <glyph glyph-name="braceright.small" horiz-adv-x="243" 
d="M91 -72l17 121q11 77 62 112l2 2v3l-1 1l-4 4l-5.5 5.5t-5.5 6.5t-6 9.5t-5 11t-4.5 14t-2.5 16.5t-0.5 20.5t2.5 24.5l17 121q10 58 -36 58h-22l3 20h25q32 0 47 -16t7 -63l-15 -110q-7 -48 1.5 -77t44.5 -40l-2 -16q-39 -11 -55.5 -39.5t-23.5 -77.5l-16 -110
q-5 -46 -25 -62.5t-51 -16.5h-25l3 20h22q23 0 35 13.5t17 44.5z" />
    <glyph glyph-name="bracketleft.small" horiz-adv-x="187" 
d="M216 456h-72l-82 -584h72l-3 -22h-97l88 628h97z" />
    <glyph glyph-name="bracketright.small" horiz-adv-x="188" 
d="M172 456h-73l3 22h98l-88 -628h-98l3 22h73z" />
    <glyph glyph-name="ampersand.small" horiz-adv-x="416" 
d="M69 111q0 -48 33 -73.5t88 -25.5q46 0 85.5 29t60.5 66q-22 24 -64.5 72t-65.5 73q-47 -13 -92 -50.5t-45 -90.5zM335 398q0 28 -21 47t-61 19q-48 0 -74 -26.5t-26 -61.5q0 -18 7 -34t13.5 -23.5t22.5 -23.5l15 -15q36 17 53.5 26.5t37 24t26.5 30t7 37.5zM228 264
l120 -136q22 37 31 89l2 16h24q-14 -86 -38 -118q31 -41 38 -64t-1 -51h-22l2 12q5 37 -31 79q-34 -51 -72.5 -76t-93.5 -25q-72 0 -108.5 33t-36.5 84q0 115 146 162q-61 55 -61 103q0 55 41 85t89 30q41 0 71 -21t30 -65q0 -47 -26 -74t-104 -63z" />
    <glyph glyph-name="asterisk.small" horiz-adv-x="276" 
d="M267 286l-71 57l-12 -98h-22l14 98l-87 -57l-11 18l94 59l-76 57l14 17l72 -56l12 97h22l-14 -98l87 57l9 -17l-92 -57q5 -3 78 -59z" />
    <glyph glyph-name="at.small" horiz-adv-x="617" 
d="M524 26l12 -18q-108 -70 -223 -70q-119 0 -185.5 66t-66.5 170q0 127 97 220t223 93q119 0 179 -59.5t60 -142.5q0 -95 -55.5 -160.5t-124.5 -65.5q-24 0 -40.5 19t-16.5 49q-41 -49 -109 -49q-39 0 -61 21.5t-22 62.5q0 71 48.5 123.5t123.5 52.5q55 0 68 -41
q13 32 14 35h25q-18 -53 -30 -85l-29 -84q-7 -13 -7 -29q0 -22 11 -38t30 -16q56 0 104 58t48 148q0 87 -63.5 132.5t-155.5 45.5q-112 0 -202.5 -85.5t-90.5 -203.5q0 -99 63 -157.5t168 -58.5q56 0 112.5 18.5t95.5 48.5zM360 317q-98 0 -137 -108q-8 -22 -8 -41
q0 -30 16 -50t49 -20q26 0 61 20.5t49 57.5l26 70q7 31 -13.5 51t-42.5 20z" />
    <glyph glyph-name="exclam.small" horiz-adv-x="118" 
d="M62 107l52 371h24l-53 -371h-23zM46 0l8 57h25l-8 -57h-25z" />
    <glyph glyph-name="question.small" horiz-adv-x="359" 
d="M189 107h-23q6 40 24 63t65 59l35 27q67 52 67 113q0 42 -28.5 68.5t-84.5 26.5q-73 0 -127 -69l-18 9q53 83 149 83q59 0 96.5 -29t37.5 -84q0 -75 -86 -141l-17 -13q-33 -25 -46.5 -36.5t-26.5 -31.5t-17 -45zM150 0l8 57h25l-8 -57h-25z" />
    <glyph glyph-name="exclamdown.small" horiz-adv-x="118" 
d="M28 -133l52 371h23l-51 -371h-24zM86 288l8 57h25l-8 -57h-25z" />
    <glyph glyph-name="questiondown.small" horiz-adv-x="359" 
d="M234 238h22q-6 -40 -24 -63t-65 -59l-34 -27q-69 -55 -69 -115q0 -42 29 -68.5t85 -26.5q74 0 127 69l18 -10q-52 -81 -148 -81q-60 0 -97.5 28.5t-37.5 83.5q0 78 87 143l20 14q45 32 63 54t24 58zM272 345l-8 -58h-24l8 58h24z" />
    <glyph glyph-name="emdash.small" horiz-adv-x="654" 
d="M58 200h594l-3 -23h-594z" />
    <glyph glyph-name="endash.small" horiz-adv-x="396" 
d="M58 200h336l-3 -23h-336z" />
    <glyph glyph-name="guillemotleft.small" horiz-adv-x="284" 
d="M298 394l-116 -165l71 -165h-28l-73 165l118 165h28zM218 394l-116 -165l71 -165h-28l-73 165l118 165h28z" />
    <glyph glyph-name="guillemotright.small" horiz-adv-x="284" 
d="M166 229l-70 165h28l72 -165l-118 -165h-29zM246 229l-70 165h28l72 -165l-118 -165h-29z" />
    <glyph glyph-name="guilsinglleft.small" horiz-adv-x="204" 
d="M218 394l-116 -165l71 -165h-28l-73 165l118 165h28z" />
    <glyph glyph-name="guilsinglright.small" horiz-adv-x="204" 
d="M166 229l-70 165h28l72 -165l-118 -165h-29z" />
    <glyph glyph-name="periodcentered.small" horiz-adv-x="88" 
d="M59 208l6 46h28l-6 -46h-28z" />
    <glyph glyph-name="iacute.small" horiz-adv-x="146" 
d="M60 0l68 484h26l-68 -484h-26zM138 550l77 111h33l-84 -111h-26z" />
    <glyph glyph-name="apple" horiz-adv-x="715" 
d="M60 686h595v-552h-595v552zM580 207v405h-122q-16 -47 -51 -145.5t-50 -145.5l-100 291h-122v-405h64v367l131 -359h53l133 359v-367h64zM99 0h-14l-6 54q0 6 -1 18.5t-1 16.5h-2q0 -1 1 -8.5t1 -12.5v-68h-17v109h25l5 -45q0 -1 2 -12.5t2 -19.5q0 27 2 32l3 45h25v-109
h-15v50v39q0 -4 -1 -21.5t-1 -20.5zM135 17v74q0 21 18 21q23 0 23 -21v-74q0 -19 -23 -19q-6 0 -12 5t-6 14zM151 91v-74q0 -4 2 -4q7 0 7 4v74q0 5 -1 6t-6 1q-2 0 -2 -7zM202 42v-25q0 -4 5 -4q6 0 6 4v11q0 8 -14 24.5t-14 26.5v12q0 21 22 21q21 0 21 -21v-21h-15v21
q0 7 -6 7q-5 0 -5 -7v-12q0 -4 13 -20.5t13 -21.5v-20q0 -9 -7 -14t-14 -5q-22 0 -22 19v25h17zM234 109h45v-13h-13v-96h-17v96h-15v13zM274 0l12 109h25l12 -109h-16l-5 28h-11l-3 -28h-14zM294 45h8l-4 44h-2zM343 0h-15v109h22q22 0 22 -20v-12q0 -14 -17 -17
q13 0 17 -15v-45h-15q-2 9 -2 42q0 8 -12 8v-50zM343 98v-34h3q9 0 9 6v21q0 7 -5 7h-7zM379 0v109h21q13 0 17 -5t4 -19v-65q0 -20 -19 -20h-23zM396 98v-83h4q4 0 4 5v69q0 9 -4 9h-4zM468 0h-39v109h39v-13h-22v-28h20v-14h-20v-39h22v-15zM491 42v-25q0 -4 2 -4q7 0 7 4
v11q0 8 -13 24.5t-13 26.5v12q0 21 19 21q23 0 23 -21v-21h-16v21q0 5 -1 6t-6 1q-2 0 -2 -7v-12q0 -4 12.5 -20.5t12.5 -21.5v-20q0 -19 -23 -19q-7 0 -13 5t-6 14v25h17zM541 0h-16v109h16v-109zM572 54h21v-54h-8v6q-8 -8 -17 -8q-6 0 -12.5 5t-6.5 14v74q0 21 23 21
q21 0 21 -21v-21h-17v21q0 7 -4 7q-6 0 -6 -7v-74q0 -4 6 -4q4 0 4 4v25h-4v12zM603 109h25l2 -30q8 -22 8 -62v6v31v55h15v-109h-25l-7 57q-5 18 -5 34v-12v-79h-13v109z" />
    </font>
</defs>
</svg>
