<?xml version="1.0" standalone="no"?>
<!DOCTYPE svg PUBLIC "-//W3C//DTD SVG 1.1//EN" "http://www.w3.org/Graphics/SVG/1.1/DTD/svg11.dtd" >
<svg>
<metadata>
Created by FontForge 20120731 at Tue Dec 15 21:06:51 2015
 By ,,,
Copyright (c) Olivier Gourvat - Mostardesign Studio, 2004-2011. All rights reserved.
</metadata>
<defs>
<font id="IntervalSansPro-Regular" horiz-adv-x="486" >
  <font-face 
    font-family="Interval Sans Pro"
    font-weight="400"
    font-stretch="normal"
    units-per-em="1000"
    panose-1="2 11 5 3 0 0 0 2 0 4"
    ascent="750"
    descent="-250"
    x-height="484"
    cap-height="674"
    bbox="-50 -323 1117 1082"
    underline-thickness="50"
    underline-position="-50"
    unicode-range="U+000D-FB06"
  />
<missing-glyph horiz-adv-x="500" 
 />
    <glyph glyph-name="ff" unicode="ff" horiz-adv-x="539" 
d="M12 484h61v47q0 44 12 76t26.5 46.5t37 22.5t33 8.5t25.5 0.5h3q37 0 72 -18l-8 -58q-116 37 -116 -67v-58h187v47q0 44 12 76t26.5 46.5t37 22.5t33 8.5t25.5 0.5h3q37 0 72 -18l-8 -58q-116 37 -116 -67v-58h96v-65h-96v-419h-85v419h-187v-419h-85v419h-61v65z" />
    <glyph glyph-name="fi" unicode="fi" horiz-adv-x="482" 
d="M12 484h61v47q0 44 12 76t26.5 46.5t37 22.5t33 8.5t25.5 0.5h3q37 0 72 -18l-8 -58q-116 37 -116 -67v-58h264v-484h-86v419l-178 1v-420h-85v420l-61 -1v65z" />
    <glyph glyph-name="fl" unicode="fl" horiz-adv-x="482" 
d="M336 0v608h-117q-61 0 -61 -77v-47h96v-65h-96v-419h-85v419h-61v65h61v36q0 43 13 74.5t28.5 46.5t38.5 23t34 9t23 1h212v-674h-86z" />
    <glyph glyph-name="f_f_i" unicode="ffi" horiz-adv-x="740" 
d="M594 0v419h-164v-419h-85v419h-187v-419h-85v419h-61v65h61v47q0 44 12 76t26.5 46.5t37 22.5t33 8.5t25.5 0.5h3q37 0 72 -18l-8 -58q-116 37 -116 -67v-58h187v36q0 43 13 74.5t28.5 46.5t38.5 23t34 9t23 1q37 0 72 -18l-8 -58q-29 10 -53 10q-63 0 -63 -77v-47h250
v-484h-86z" />
    <glyph glyph-name="f_f_l" unicode="ffl" horiz-adv-x="740" 
d="M594 0v608h-102q-62 0 -62 -77v-47h96v-65h-96v-419h-85v419h-187v-419h-85v419h-61v65h61v47q0 44 12 76t26.5 46.5t37 22.5t33 8.5t25.5 0.5h3q37 0 72 -18l-8 -58q-116 37 -116 -67v-58h187v36q0 43 13 74.5t28.5 46.5t38.5 23t34 9t23 1h198v-674h-86z" />
    <glyph glyph-name="f_f_j" unicode="ffj" horiz-adv-x="754" 
d="M694 484v-533q0 -44 -12 -75t-26 -45.5t-36.5 -22t-33 -8t-26.5 -0.5h-4q-43 0 -72 15l10 63q28 -9 48.5 -10.5t32.5 4.5t19.5 13t10.5 22t3.5 23.5t0.5 24.5v464h-179v-419h-85v419h-187v-419h-85v419h-61v65h61v47q0 44 12 76t26.5 46.5t37 22.5t33 8.5t25.5 0.5h3
q37 0 72 -18l-8 -58q-116 37 -116 -67v-58h187v47q0 44 12 76t26.5 46.5t37 22.5t33 8.5t25.5 0.5h3q37 0 72 -18l-8 -58q-116 37 -116 -67v-58h264z" />
    <glyph glyph-name="f_j" unicode="fj" horiz-adv-x="482" 
d="M422 484v-533q0 -44 -12 -75t-26 -45.5t-36.5 -22t-33 -8t-26.5 -0.5h-4q-43 0 -72 15l10 63q28 -9 48.5 -10.5t32.5 4.5t19.5 13t10.5 22t3.5 23.5t0.5 24.5v464h-179v-419h-85v419h-61v65h61v47q0 44 12 76t26.5 46.5t37 22.5t33 8.5t25.5 0.5h3q37 0 72 -18l-8 -58
q-116 37 -116 -67v-58h264z" />
    <glyph glyph-name="f_b" unicode="fb" horiz-adv-x="807" 
d="M408 674v-258q14 40 55 60t83 20q102 0 164 -64.5t62 -189.5t-61 -189t-161 -64q-107 0 -143 66v-55h-85v608h-101q-63 0 -63 -77v-47h96v-65h-96v-419h-86l1 419h-61v65h61v36q0 43 13 74.5t28.5 46.5t38.5 23t34 9t23 1h198zM530 425q-32 0 -74.5 -26.5t-47.5 -75.5
v-156q0 -34 14.5 -57t38.5 -33t44 -13.5t43 -3.5q70 0 101.5 52t31.5 130q0 183 -151 183z" />
    <glyph glyph-name="f_f_b" unicode="ffb" horiz-adv-x="1079" 
d="M680 674v-258q14 40 55 60t83 20q102 0 164 -64.5t62 -189.5t-61 -189t-161 -64q-107 0 -143 66v-55h-85v608h-102q-62 0 -62 -77v-47h96v-65h-96v-419h-85v419h-187v-419h-85v419h-61v65h61v47q0 44 12 76t26.5 46.5t37 22.5t33 8.5t25.5 0.5h3q37 0 72 -18l-8 -58
q-116 37 -116 -67v-58h187v36q0 43 13 74.5t28.5 46.5t38.5 23t34 9t23 1h198zM802 425q-32 0 -74.5 -26.5t-47.5 -75.5v-156q0 -34 14.5 -57t38.5 -33t44 -13.5t43 -3.5q70 0 101.5 52t31.5 130q0 183 -151 183z" />
    <glyph glyph-name="f_h" unicode="fh" horiz-adv-x="803" 
d="M743 286v-286h-86v286q0 139 -109 139q-18 0 -38 -5t-45 -18t-41 -42t-16 -71v-289h-86v608h-100q-64 0 -64 -77v-47h96v-65h-96v-419h-85v419h-61v65h61v36q0 43 13 74.5t28.5 46.5t38.5 23t34 9t23 1h198v-258q35 80 152 80q90 0 136.5 -50t46.5 -160z" />
    <glyph glyph-name="f_f_h" unicode="ffh" horiz-adv-x="1075" 
d="M1015 286v-286h-86v286q0 139 -109 139q-18 0 -38 -5t-45 -18t-41 -42t-16 -71v-289h-86v608h-102q-62 0 -62 -77v-47h96v-65h-96v-419h-85v419h-187v-419h-85v419h-61v65h61v47q0 44 12 76t26.5 46.5t37 22.5t33 8.5t25.5 0.5h3q37 0 72 -18l-8 -58q-116 37 -116 -67
v-58h187v36q0 43 13 74.5t28.5 46.5t38.5 23t34 9t23 1h198v-258q35 80 152 80q90 0 136.5 -50t46.5 -160z" />
    <glyph glyph-name="f_k" unicode="fk" horiz-adv-x="752" 
d="M534 304l213 -304h-99l-172 257l-58 -59v-198h-86v608h-101q-63 0 -63 -77v-47h96v-65h-96v-419h-85v419h-61v65h61v36q0 43 13 74.5t28.5 46.5t38.5 23t34 9t23 1h198v-377l191 187h106z" />
    <glyph glyph-name="f_f_k" unicode="ffk" horiz-adv-x="1024" 
d="M806 304l213 -304h-99l-172 257l-58 -59v-198h-86v608h-100q-64 0 -64 -77v-47h96v-65h-96v-419h-85v419h-187v-419h-85v419h-61v65h61v47q0 44 12 76t26.5 46.5t37 22.5t33 8.5t25.5 0.5h3q37 0 72 -18l-8 -58q-116 37 -116 -67v-58h187v36q0 43 13 74.5t28.5 46.5
t38.5 23t34 9t23 1h198v-377l191 187h106z" />
    <glyph glyph-name="f_t" unicode="ft" horiz-adv-x="572" 
d="M342 419h-184v-419h-85v419h-61v65h61v47q0 44 12 76t26.5 46.5t37 22.5t33 8.5t25.5 0.5h3q37 0 72 -18l-8 -58q-116 37 -116 -67v-58h184v123h85v-123h112v-65h-112v-275q0 -115 118 -76l7 -63q-31 -16 -72 -16h-4h-17t-22.5 2.5t-26.5 8t-24.5 16.5t-22.5 26.5t-15 41
t-6 57.5v278z" />
    <glyph glyph-name="f_f_t" unicode="fft" horiz-adv-x="844" 
d="M550 419h-120v-419h-85v419h-187v-419h-85v419h-61v65h61v47q0 44 12 76t26.5 46.5t37 22.5t33 8.5t25.5 0.5h3q37 0 72 -18l-8 -58q-116 37 -116 -67v-58h187v47q0 44 12 76t26.5 46.5t37 22.5t33 8.5t25.5 0.5h3q37 0 72 -18l-8 -58q-116 37 -116 -67v-58h120h64v123
h85v-123h112v-66h-112v-274q0 -115 118 -76l7 -63q-31 -16 -72 -16h-4h-17t-22.5 2.5t-26.5 8t-24.5 16.5t-22.5 26.5t-15 41t-6 57.5v278h-64z" />
    <glyph glyph-name="t_h" unicode="th" horiz-adv-x="851" 
d="M370 415h-205v-271q0 -115 118 -76l7 -63q-31 -16 -72 -16h-4h-17t-22.5 2.5t-26.5 8t-24.5 16.5t-22.5 26.5t-15 41t-6 57.5v274h-68v69h68v123h85v-123h205v190h86v-258q35 80 152 80q90 0 136.5 -50t46.5 -160v-286h-86v286q0 139 -109 139q-18 0 -38 -5t-45 -18
t-41 -42t-16 -71v-289h-86v415z" />
    <glyph glyph-name=".notdef" horiz-adv-x="500" 
 />
    <glyph glyph-name=".null" horiz-adv-x="0" 
 />
    <glyph glyph-name=".null" horiz-adv-x="0" 
 />
    <glyph glyph-name="nonmarkingreturn" horiz-adv-x="333" 
 />
    <glyph glyph-name="CR" unicode="&#xd;" horiz-adv-x="278" 
 />
    <glyph glyph-name="space" unicode=" " horiz-adv-x="278" 
 />
    <glyph glyph-name="exclam" unicode="!" horiz-adv-x="226" 
d="M82 135l-8 539h78l-8 -539h-62zM70 0v82h86v-82h-86z" />
    <glyph glyph-name="quotedbl" unicode="&#x22;" horiz-adv-x="609" 
d="M206 378l-6 296h80l-6 -296h-68zM335 378l-6 296h80l-6 -296h-68z" />
    <glyph glyph-name="numbersign" unicode="#" horiz-adv-x="576" 
d="M262 674h77l-62 -196h112l61 196h74l-61 -196h88v-62h-110l-48 -158h97l-1 -62h-118l-63 -196h-71l62 196h-111l-65 -196h-75l63 196h-86v62h106l48 158h-99l1 62h119zM257 416l-48 -158h111l48 158h-111z" />
    <glyph glyph-name="dollar" unicode="$" horiz-adv-x="562" 
d="M260 -120v111q-57 5 -105 21q-75 24 -125 69l38 64q33 -28 84.5 -49.5t106.5 -29.5t105.5 10.5t74.5 66.5q15 44 -6.5 76t-62.5 48l-195 75q-143 54 -126 188q11 66 67.5 107.5t143.5 46.5v104h55v-106q45 -5 87 -17q56 -20 98 -54l-33 -63q-29 24 -78 42t-101 22.5
t-95 -17.5t-56 -71q-3 -25 3.5 -43t24.5 -31t29 -18.5t37 -15.5q7 -3 10 -4l169 -66q52 -19 82 -52t36 -69t1.5 -67t-16.5 -58q-23 -50 -74.5 -78.5t-123.5 -31.5v-110h-55z" />
    <glyph glyph-name="percent" unicode="%" horiz-adv-x="801" 
d="M164 0l401 674h57l-400 -674h-58zM40 492q0 81 40 126.5t112 45.5q71 0 111.5 -45.5t40.5 -126.5q0 -83 -40 -128.5t-112 -45.5t-112 45.5t-40 128.5zM283 492q0 47 -24.5 82t-66.5 35q-43 0 -67 -34.5t-24 -82.5t24 -83t67 -35q42 0 66.5 35t24.5 83zM457 164
q0 81 40 126.5t112 45.5q71 0 111.5 -45.5t40.5 -126.5q0 -83 -40 -128.5t-112 -45.5t-112 45.5t-40 128.5zM700 164q0 47 -24.5 82t-66.5 35q-43 0 -67 -34.5t-24 -82.5t24 -83t67 -35q42 0 66.5 35t24.5 83z" />
    <glyph glyph-name="ampersand" unicode="&#x26;" horiz-adv-x="622" 
d="M123 187q0 -62 39 -99.5t109 -37.5q102 0 152 95l-169 174q-49 -10 -90 -45t-41 -87zM367 536q-2 38 -26.5 64t-69.5 27q-45 -1 -69.5 -27t-26.5 -64q-2 -44 25.5 -85.5t70.5 -49.5q48 15 73 53.5t23 81.5zM329 354l126 -134q14 29 14 117h69q5 -114 -28 -168
q37 -37 51.5 -53t29.5 -48t15 -68h-81q0 10 -1 18.5t-1.5 14.5t-4 13t-4.5 10t-7 10t-7 8.5t-9.5 9.5t-10.5 10q-68 -105 -209 -105q-114 0 -172.5 54.5t-58.5 136.5q0 69 42 118.5t108 70.5q-51 31 -72 77.5t-18 92.5q4 69 54.5 107.5t116.5 38.5t116.5 -38.5t54.5 -107.5
q3 -46 -18 -92.5t-72 -77.5z" />
    <glyph glyph-name="quotesingle" unicode="'" horiz-adv-x="180" 
d="M56 378l-6 296h80l-6 -296h-68z" />
    <glyph glyph-name="parenleft" unicode="(" horiz-adv-x="345" 
d="M60 240v-5q0 207 66.5 323t178.5 116v-60q-71 0 -118.5 -93.5t-47.5 -284.5t47.5 -283.5t118.5 -92.5v-61q-112 0 -178.5 117t-66.5 324z" />
    <glyph glyph-name="parenright" unicode=")" horiz-adv-x="345" 
d="M285 235v5q0 -207 -66.5 -324t-178.5 -117v61q71 0 118.5 92.5t47.5 283.5t-47.5 284.5t-118.5 93.5v60q112 0 178.5 -116t66.5 -323z" />
    <glyph glyph-name="asterisk" unicode="*" horiz-adv-x="390" 
d="M217 550l102 70l31 -52l-112 -56l112 -54l-31 -53l-102 70l9 -124h-61l9 125l-103 -71l-31 53l111 54l-111 56l31 52l103 -70l-9 124h61z" />
    <glyph glyph-name="plus" unicode="+" horiz-adv-x="564" 
d="M40 364h210v210h65v-210h209v-65h-209v-209h-65v209h-210v65z" />
    <glyph glyph-name="comma" unicode="," horiz-adv-x="245" 
d="M27 -94l89 188h91l-114 -188h-66z" />
    <glyph glyph-name="hyphen" unicode="-" horiz-adv-x="413" 
d="M373 222h-333v78h333v-78z" />
    <glyph glyph-name="period" unicode="." horiz-adv-x="194" 
d="M50 0v94h94v-94h-94z" />
    <glyph glyph-name="slash" unicode="/" horiz-adv-x="361" 
d="M331 674l-233 -674h-68l232 674h69z" />
    <glyph glyph-name="zero" unicode="0" horiz-adv-x="560" 
d="M278 -13q-112 0 -175.5 88.5t-63.5 248.5q0 161 63 249t176 88q115 0 179 -88t64 -249t-64 -249t-179 -88zM278 589q-76 0 -115.5 -77t-39.5 -188q0 -114 39 -190.5t116 -76.5q53 0 89.5 38t52.5 96.5t16 132.5q0 111 -40 188t-118 77z" />
    <glyph glyph-name="one" unicode="1" horiz-adv-x="560" 
d="M183 444l-48 48l156 158h80v-650h-80v556z" />
    <glyph glyph-name="two" unicode="2" horiz-adv-x="560" 
d="M246 588q-54 0 -99.5 -25.5t-68.5 -51.5l-31 61q71 88 204 88q106 0 163.5 -54.5t57.5 -134.5q0 -54 -23 -93t-98 -87q-112 -65 -167 -114t-55 -101h343v-76h-425v9v31q0 45 14 83.5t34.5 67t57.5 59t69.5 51t84.5 49.5q86 50 86 119q0 61 -41.5 90t-105.5 29z" />
    <glyph glyph-name="three" unicode="3" horiz-adv-x="560" 
d="M280 -13q-33 0 -64 6t-51.5 14t-40.5 20t-30 20t-21 18t-12 11l31 59q1 -1 12.5 -9.5t18 -13.5t20.5 -14t27 -14.5t30 -11.5t36 -9t39 -3q68 0 105.5 31t37.5 84q0 54 -41.5 84t-102.5 30h-65v77h65q63 0 95.5 30.5t32.5 73.5q0 46 -35 82.5t-96 36.5q-51 0 -94.5 -25
t-66.5 -51l-29 60q7 10 18.5 21t34.5 28t60.5 28t81.5 11q40 0 76 -11t66.5 -32.5t49 -59t18.5 -86.5t-28.5 -89.5t-91.5 -54.5q66 -13 99 -54.5t33 -96.5q0 -89 -60 -139.5t-158 -50.5z" />
    <glyph glyph-name="four" unicode="4" horiz-adv-x="560" 
d="M428 0h-82v139h-312v80q21 41 47 83.5t44.5 71t55.5 76.5t50 64.5t59 71.5t53 64h85v-443h98v-68h-98v-139zM103 207h243v345q-183 -222 -243 -345z" />
    <glyph glyph-name="five" unicode="5" horiz-adv-x="560" 
d="M423 211q0 55 -36 100t-114 45q-95 0 -117 -65h-81l43 359h340v-78h-273l-27 -193q43 49 144 49q83 0 142 -61t59 -159q0 -108 -68 -164.5t-173 -56.5q-57 0 -113 21.5t-93 67.5l37 62q23 -33 70 -57t89 -24q83 0 127 43.5t44 110.5z" />
    <glyph glyph-name="six" unicode="6" horiz-adv-x="560" 
d="M136 340q16 45 63 67t92 22q95 0 155.5 -60.5t60.5 -160.5q0 -103 -62 -161.5t-160 -58.5q-58 0 -102 22t-68 54.5t-38.5 78t-19 83.5t-4.5 80q0 176 72 265.5t191 89.5q47 0 80 -6.5t47 -14t30 -20.5l-30 -63q-42 35 -112 35q-93 0 -144 -66t-51 -186zM283 59
q69 0 104.5 46.5t35.5 102.5q0 57 -36.5 106t-104.5 49q-64 0 -100 -43.5t-36 -105.5q0 -67 37.5 -111t99.5 -44z" />
    <glyph glyph-name="seven" unicode="7" horiz-adv-x="560" 
d="M55 570v80h450v-75q-110 -138 -178.5 -272.5t-124.5 -302.5h-96q65 172 138.5 308t176.5 262h-366z" />
    <glyph glyph-name="eight" unicode="8" horiz-adv-x="560" 
d="M280 661q27 0 36 -1l14 -2q63 -6 111 -53.5t48 -115.5q0 -115 -116 -148q43 -11 73 -33t43 -49t17.5 -48t4.5 -42q0 -78 -61 -130t-170 -52q-114 0 -172.5 51.5t-58.5 130.5q0 21 4.5 42t17.5 48t43 49t73 33q-116 34 -116 148q0 68 48 115.5t111 53.5l14 2q9 1 36 1z
M280 55q68 0 109 36.5t41 84.5q0 51 -39.5 89.5t-110.5 38.5t-109.5 -38.5t-38.5 -89.5q0 -48 40 -84.5t108 -36.5zM280 377q62 0 93 29.5t32 82.5q0 44 -32 77.5t-93 33.5t-93 -33.5t-32 -77.5q1 -53 32 -82.5t93 -29.5z" />
    <glyph glyph-name="nine" unicode="9" horiz-adv-x="560" 
d="M424 309q-16 -45 -63 -67t-92 -22q-95 0 -155.5 60.5t-60.5 160.5q0 103 62 161.5t160 58.5q58 0 102 -22t68 -54.5t38.5 -78t19 -83.5t4.5 -80q0 -176 -72 -265.5t-191 -89.5q-47 0 -81 7.5t-45.5 13.5t-30.5 20l30 63q42 -35 112 -35q93 0 144 66t51 186zM277 590
q-69 0 -104.5 -46.5t-35.5 -102.5q0 -57 36.5 -106t104.5 -49q64 0 100 43.5t36 105.5q0 67 -37.5 111t-99.5 44z" />
    <glyph glyph-name="colon" unicode=":" horiz-adv-x="194" 
d="M50 0v94h94v-94h-94zM50 390v94h94v-94h-94z" />
    <glyph glyph-name="semicolon" unicode=";" horiz-adv-x="275" 
d="M131 390v94h94v-94h-94zM50 -83l86 177h89l-113 -177h-62z" />
    <glyph glyph-name="less" unicode="&#x3c;" horiz-adv-x="576" 
d="M516 483v-77l-387 -165l387 -165v-76l-486 216v51z" />
    <glyph glyph-name="equal" unicode="=" horiz-adv-x="584" 
d="M534 394h-484v65h484v-65zM534 200h-484v65h484v-65z" />
    <glyph glyph-name="greater" unicode="&#x3e;" horiz-adv-x="576" 
d="M60 406v77l486 -216v-51l-486 -216v76l387 165z" />
    <glyph glyph-name="question" unicode="?" horiz-adv-x="531" 
d="M292 135h-77q0 94 20.5 133t113.5 119q49 43 56.5 97t-30.5 92t-109 38q-50 0 -91.5 -34t-47.5 -56l-62 47q8 15 22 31.5t38.5 36.5t63 33t82.5 13q93 0 156.5 -52.5t63.5 -140.5q0 -91 -99 -173q-56 -45 -78 -77t-22 -78v-29zM213 0v82h86v-82h-86z" />
    <glyph glyph-name="at" unicode="@" horiz-adv-x="854" 
d="M726 62l19 -28q-48 -49 -132.5 -77.5t-170.5 -28.5q-180 0 -286 108t-106 269q0 156 111.5 266.5t269.5 110.5q93 0 167 -29t117.5 -76t66 -101t22.5 -108q0 -74 -23 -131t-59.5 -87.5t-75 -45.5t-76.5 -15q-64 0 -81 60q-43 -40 -124 -40q-137 0 -137 146
q0 101 56.5 164.5t153.5 63.5q22 0 47 -9t38 -25l6 26h78l-56 -254q-8 -30 1 -52.5t27 -22.5q24 0 51 12t54 36t44.5 68t17.5 99q0 82 -49 146t-119.5 94.5t-146.5 30.5q-129 0 -225 -98t-96 -229q0 -143 93.5 -237.5t242.5 -94.5q151 0 280 89zM439 424q-100 0 -125 -129
q-5 -28 -5 -45q0 -82 66 -82q33 0 65.5 17.5t43.5 58.5l22 120q0 29 -24.5 44.5t-42.5 15.5z" />
    <glyph glyph-name="A" unicode="A" horiz-adv-x="668" 
d="M100 0h-91l280 674h90l280 -674h-91l-65 158h-339zM334 586l-142 -352h283z" />
    <glyph glyph-name="B" unicode="B" horiz-adv-x="605" 
d="M368 301h-217v-225h217q60 0 91 31.5t31 77.5q0 48 -31 82t-91 34zM456 351q56 -8 90 -56.5t34 -110.5q0 -69 -48.5 -126.5t-136.5 -57.5h-330v674h296q93 0 139 -52t46 -127q0 -99 -90 -144zM151 378h206q39 4 62.5 23t30 39t6.5 44q0 114 -116 114h-189v-220z" />
    <glyph glyph-name="C" unicode="C" horiz-adv-x="601" 
d="M40 337q0 150 91 249t243 99q133 0 197 -34l-25 -66q-63 23 -149 23q-70 0 -124 -23.5t-84 -63.5t-45 -86t-15 -98t15 -98t45 -86t84 -63.5t124 -23.5q84 0 151 23l23 -66q-64 -34 -197 -34q-152 0 -243 99t-91 249z" />
    <glyph glyph-name="D" unicode="D" horiz-adv-x="667" 
d="M303 0h-238v674h238q158 0 246 -85.5t88 -251.5t-88 -251.5t-246 -85.5zM151 76h156q107 0 176 65t69 196q0 135 -66.5 198t-181.5 63h-153v-522z" />
    <glyph glyph-name="E" unicode="E" horiz-adv-x="558" 
d="M513 0h-448v674h441v-76h-355v-219h314v-77h-314v-226h362v-76z" />
    <glyph glyph-name="F" unicode="F" horiz-adv-x="518" 
d="M151 -1l-86 1v674h418v-76h-332v-219h306v-77h-306v-303z" />
    <glyph glyph-name="G" unicode="G" horiz-adv-x="679" 
d="M555 281h-142v77h220v-324q-34 -21 -102 -33t-129 -12q-164 0 -263 99t-99 249t99 249t263 99q130 0 214 -53l-36 -70q-29 23 -75 35t-79 12q-76 0 -135 -23.5t-93.5 -63.5t-51.5 -87t-17 -98q0 -108 74.5 -189.5t210.5 -81.5q78 0 141 22v193z" />
    <glyph glyph-name="H" unicode="H" horiz-adv-x="656" 
d="M505 311h-354v-311h-86v674h86v-286h354v286h86v-674h-86v311z" />
    <glyph glyph-name="I" unicode="I" horiz-adv-x="236" 
d="M75 0v674h86v-674h-86z" />
    <glyph glyph-name="J" unicode="J" horiz-adv-x="414" 
d="M10 24l20 70q38 -16 56 -21q88 -22 136 3q26 14 35 38.5t9 74.5v485h83v-491q0 -57 -17 -97.5t-43 -61t-62 -29t-69 -7t-69 9.5q-47 10 -79 26z" />
    <glyph glyph-name="K" unicode="K" horiz-adv-x="585" 
d="M575 0h-107l-231 309l-86 -101v-208h-86v674h86v-355l277 355h103l-242 -302z" />
    <glyph glyph-name="L" unicode="L" horiz-adv-x="523" 
d="M151 674v-598h332v-77h-418v675h86z" />
    <glyph glyph-name="M" unicode="M" horiz-adv-x="836" 
d="M384 0l-233 597l-20 -597h-86l26 674h133l214 -553l214 553h133l26 -674h-86l-20 597l-233 -597h-68z" />
    <glyph glyph-name="N" unicode="N" horiz-adv-x="664" 
d="M469 0l-318 594v-594h-86v674h139l309 -591v591h86v-674h-130z" />
    <glyph glyph-name="O" unicode="O" horiz-adv-x="722" 
d="M361 -11q-149 0 -235 92.5t-86 255.5t86 255.5t235 92.5t235 -92.5t86 -255.5t-86 -255.5t-235 -92.5zM361 611q-112 0 -171 -78t-59 -196q0 -122 59 -198t171 -76t171 76t59 198q0 118 -59 196t-171 78z" />
    <glyph glyph-name="P" unicode="P" horiz-adv-x="575" 
d="M369 261h-218v-261h-86v674h297q52 0 91.5 -20t60.5 -53t31 -68t10 -72q0 -9 -1.5 -22t-7 -38t-18 -47.5t-31.5 -44.5t-52.5 -35t-75.5 -13zM151 338h204q33 0 56 13t34 34t15.5 39t4.5 36q0 58 -31 98t-96 40h-187v-260z" />
    <glyph glyph-name="Q" unicode="Q" horiz-adv-x="712" 
d="M430 -11h-69q-149 0 -235 92.5t-86 255.5t86 255.5t235 92.5t235 -92.5t86 -255.5q0 -113 -42 -193t-120 -120q72 -45 127 -45h34v-68h-30q-62 0 -112 16t-66 27.5t-43 34.5zM361 611q-112 0 -171 -78t-59 -196q0 -122 59 -198t171 -76t171 76t59 198q0 118 -59 196
t-171 78z" />
    <glyph glyph-name="R" unicode="R" horiz-adv-x="607" 
d="M421 295q53 -8 81 -85l80 -210h-92l-82 212q-13 31 -33 45t-57 14h-167v-271h-86v674h287q60 0 102 -19t63 -52t29.5 -66.5t8.5 -71.5q0 -11 -0.5 -22t-8 -36.5t-20 -45t-40 -39t-65.5 -27.5zM151 347h204q62 0 88.5 38t26.5 79q0 57 -30 95.5t-95 38.5h-194v-251z" />
    <glyph glyph-name="S" unicode="S" horiz-adv-x="562" 
d="M402 665q56 -20 98 -54l-33 -63q-29 24 -78 42t-101 22.5t-95 -17.5t-56 -71q-3 -25 3.5 -43t24.5 -31t29 -18.5t37 -15.5q7 -3 10 -4l169 -66q52 -19 82 -52t36 -69t1.5 -67t-16.5 -58q-34 -76 -132.5 -101t-225.5 13q-75 24 -125 69l38 64q33 -28 84.5 -49.5
t106.5 -29.5t105.5 10.5t74.5 66.5q15 44 -6.5 76t-62.5 48l-195 75q-143 54 -126 188q15 93 116 134.5t237 0.5z" />
    <glyph glyph-name="T" unicode="T" horiz-adv-x="530" 
d="M525 598h-217v-598h-86v598h-217v76h520v-76z" />
    <glyph glyph-name="U" unicode="U" horiz-adv-x="684" 
d="M342 -13q-135 0 -206 69t-71 226v392h87v-386q0 -118 45 -173.5t145 -55.5t145 55.5t45 173.5v386h87v-392q0 -157 -71 -226t-206 -69z" />
    <glyph glyph-name="V" unicode="V" horiz-adv-x="620" 
d="M10 674h88l212 -585l212 585h88l-255 -674h-90z" />
    <glyph glyph-name="W" unicode="W" horiz-adv-x="934" 
d="M512 649l161 -547l161 572h90l-206 -674h-90l-161 535l-161 -535h-90l-206 674h89l162 -572l161 547h90z" />
    <glyph glyph-name="X" unicode="X" horiz-adv-x="619" 
d="M505 0l-196 279l-195 -279h-104l251 333l-241 341h104l185 -285l186 285h104l-241 -341l251 -333h-104z" />
    <glyph glyph-name="Y" unicode="Y" horiz-adv-x="634" 
d="M362 0h-90v237l-258 437h102l201 -365l199 365h104l-258 -437v-237z" />
    <glyph glyph-name="Z" unicode="Z" horiz-adv-x="587" 
d="M539 0h-509v85l416 513h-399v76h510v-82l-423 -514h405v-78z" />
    <glyph glyph-name="bracketleft" unicode="[" horiz-adv-x="271" 
d="M231 609h-92v-744h92v-65h-171v874h171v-65z" />
    <glyph glyph-name="backslash" unicode="\" horiz-adv-x="361" 
d="M263 0l-233 674h69l232 -674h-68z" />
    <glyph glyph-name="bracketright" unicode="]" horiz-adv-x="271" 
d="M132 609h-92v65h171v-874h-171v65h92v744z" />
    <glyph glyph-name="asciicircum" unicode="^" horiz-adv-x="409" 
d="M35 379l141 295h57l141 -295h-72l-98 213l-98 -213h-71z" />
    <glyph glyph-name="underscore" unicode="_" horiz-adv-x="610" 
d="M30 -72h550v-51h-550v51z" />
    <glyph glyph-name="grave" unicode="`" horiz-adv-x="247" 
d="M129 674l81 -132h-68l-105 132h92z" />
    <glyph glyph-name="a" unicode="a" 
d="M431 0h-89v55q-50 -66 -135 -66q-76 0 -126.5 38.5t-50.5 107.5q0 88 79.5 127t235.5 48v30q0 70 -78 84q-16 3 -36 3q-15 0 -28.5 -1t-26 -4t-20.5 -4.5t-20 -6.5t-15.5 -6.5t-17 -8t-14.5 -7.5l-25 60q8 5 22 13t58.5 21t90.5 13q55 1 98 -15q98 -38 98 -138v-343z
M209 59q10 0 23.5 1.5t34 8t37.5 17t29 30.5t12 46v86q-110 -6 -173.5 -34.5t-61.5 -75.5q2 -38 29 -58.5t70 -20.5z" />
    <glyph glyph-name="b" unicode="b" horiz-adv-x="545" 
d="M146 674v-258q14 40 55 60t83 20q102 0 164 -64.5t62 -189.5t-61 -189t-161 -64q-107 0 -143 66v-55h-85v674h86zM268 425q-32 0 -74.5 -26.5t-47.5 -75.5v-156q0 -34 14.5 -57t38.5 -33t44 -13.5t43 -3.5q70 0 101.5 52t31.5 130q0 183 -151 183z" />
    <glyph glyph-name="c" unicode="c" horiz-adv-x="451" 
d="M35 242q0 120 64.5 187t178.5 67q93 0 143 -26l-19 -66q-54 19 -106 19q-89 0 -133.5 -51.5t-44.5 -129.5t44.5 -130t133.5 -52q50 0 106 20l19 -66q-52 -27 -143 -27q-114 0 -178.5 67.5t-64.5 187.5z" />
    <glyph glyph-name="d" unicode="d" horiz-adv-x="545" 
d="M399 416v258h86v-674h-85v55q-36 -66 -143 -66q-100 0 -161 64t-61 189t62 189.5t164 64.5q42 0 83 -20t55 -60zM277 425q-151 0 -151 -183q0 -78 31.5 -130t101.5 -52q23 0 43 3.5t44 13.5t38.5 33t14.5 57v156q-5 49 -47.5 75.5t-74.5 26.5z" />
    <glyph glyph-name="e" unicode="e" horiz-adv-x="528" 
d="M275 -13q-103 0 -171.5 69.5t-68.5 185.5q0 113 61.5 183.5t167.5 70.5q115 0 177 -76.5t50 -209.5h-370q0 -67 43.5 -109t118.5 -42h11h13t13.5 0.5t17 2t18 3.5t22 5.5t25 8.5t29.5 11l27 -63q-65 -40 -184 -40zM264 424q-59 0 -99.5 -44t-40.5 -99h284q-3 69 -42 106
t-102 37z" />
    <glyph glyph-name="f" unicode="f" horiz-adv-x="272" 
d="M22 484h61v47q0 44 12 76t26.5 46.5t37 22.5t33 8.5t25.5 0.5h3q37 0 72 -18l-8 -58q-116 37 -116 -67v-58h96v-65h-96v-419h-85v419h-61v65z" />
    <glyph glyph-name="g" unicode="g" horiz-adv-x="545" 
d="M277 60q19 0 44.5 6.5t51.5 28.5t26 55v167q0 34 -14.5 57t-38.5 33.5t-44.5 14t-42.5 3.5q-69 0 -101 -52.5t-32 -130.5q0 -182 151 -182zM400 -28l-1 83q-15 -34 -55 -50t-83 -16q-103 0 -164.5 64t-61.5 189q0 124 61 189t161 65q10 0 22.5 -2t37.5 -8t47.5 -24.5
t35.5 -45.5v68h85v-527q0 -83 -62.5 -120t-153.5 -37q-55 0 -105 11.5t-70 27.5l21 61q56 -34 147 -34q47 0 77 9.5t42 28t15.5 33t3.5 35.5z" />
    <glyph glyph-name="h" unicode="h" horiz-adv-x="541" 
d="M481 286v-286h-86v286q0 139 -109 139q-18 0 -38 -5t-45 -18t-41 -42t-16 -71v-289h-86v674h86v-258q49 80 152 80q90 0 136.5 -50t46.5 -160z" />
    <glyph glyph-name="i" unicode="i" horiz-adv-x="206" 
d="M60 0v484h86v-484h-86zM60 587v87h86v-87h-86z" />
    <glyph glyph-name="j" unicode="j" horiz-adv-x="221" 
d="M161 484l-1 -533q0 -44 -12 -75t-26 -45.5t-36.5 -22t-33 -8t-26.5 -0.5h-4q-43 0 -72 15l10 63q28 -9 48.5 -10.5t32.5 4.5t19.5 13t10.5 22t3.5 23.5t0.5 24.5v529h86zM75 587v87h86v-87h-86z" />
    <glyph glyph-name="k" unicode="k" horiz-adv-x="480" 
d="M262 304l213 -304h-99l-172 257l-58 -59v-198h-86v674h86v-377l191 187h106z" />
    <glyph glyph-name="l" unicode="l" horiz-adv-x="206" 
d="M60 0v674h86v-674h-86z" />
    <glyph glyph-name="m" unicode="m" horiz-adv-x="817" 
d="M366 0l1 300q0 125 -109 125q-44 0 -78 -34.5t-34 -114.5v-276h-86v484h80v-90q11 37 37 61.5t53 32.5t56 8q111 0 148 -82q17 39 54.5 60.5t86.5 21.5q182 0 182 -195v-301h-86v285q0 71 -25 105.5t-84 34.5q-13 0 -26.5 -3t-35.5 -13.5t-36 -38t-14 -69.5v-301h-84z
" />
    <glyph glyph-name="n" unicode="n" horiz-adv-x="531" 
d="M476 284v-284h-86v284q0 141 -109 141q-17 0 -37.5 -5.5t-45 -18.5t-41 -42.5t-16.5 -71.5v-287h-86v484h80v-90q19 56 61.5 78.5t86.5 22.5q193 0 193 -211z" />
    <glyph glyph-name="o" unicode="o" horiz-adv-x="537" 
d="M35 242q0 120 62 187t171 67q108 0 171 -67.5t63 -186.5t-63 -187t-171 -68q-109 0 -171 67.5t-62 187.5zM417 242q0 74 -40.5 129.5t-108.5 55.5q-70 0 -109 -54.5t-39 -130.5q0 -75 39 -130.5t109 -55.5q68 0 108.5 55.5t40.5 130.5z" />
    <glyph glyph-name="p" unicode="p" horiz-adv-x="545" 
d="M146 56v-256h-86v685h85l1 -69q44 80 158 80q98 0 152 -63t54 -190q0 -125 -62 -190.5t-164 -65.5q-42 0 -82.5 17.5t-55.5 51.5zM268 58q151 0 151 185q0 78 -31.5 130t-101.5 52q-20 0 -42.5 -6.5t-45 -20.5t-37.5 -40t-15 -60v-147q0 -26 14.5 -46t36 -29t40 -13.5
t31.5 -4.5z" />
    <glyph glyph-name="q" unicode="q" horiz-adv-x="545" 
d="M399 -200v256q-15 -34 -55.5 -51.5t-82.5 -17.5q-102 0 -164 65.5t-62 190.5q0 127 54 190t152 63q114 0 158 -80l1 69h85v-685h-86zM277 58q13 0 31.5 4.5t40 13.5t36 29t14.5 46v147q0 34 -15 60t-37.5 40t-45 20.5t-42.5 6.5q-70 0 -101.5 -52t-31.5 -130
q0 -185 151 -185z" />
    <glyph glyph-name="r" unicode="r" horiz-adv-x="318" 
d="M306 495v-79h-47q-46 0 -77 -30t-31 -89v-297h-86v484h80v-79q14 43 49 66.5t77 23.5h35z" />
    <glyph glyph-name="s" unicode="s" horiz-adv-x="430" 
d="M318 106q3 9 3.5 17.5t-1 14.5t-5 12t-6.5 9.5t-8.5 7t-8 5t-7.5 3.5l-5 2l-146 57q-108 48 -90 150q11 68 85.5 97.5t178.5 -0.5q36 -12 74 -36l-35 -59q-35 25 -88.5 34t-95 -5t-41.5 -50q0 -17 4.5 -27t20.5 -19.5t32 -15.5t56 -20.5t75 -29.5q39 -16 61 -40.5
t26 -51.5t1 -50t-12 -43q-24 -55 -98 -73t-166 9q-55 18 -92 51l36 60q28 -24 80.5 -40.5t104.5 -10.5t67 42z" />
    <glyph glyph-name="t" unicode="t" horiz-adv-x="310" 
d="M80 415h-68v69h68v123h85v-123h112v-69h-112v-271q0 -115 118 -76l7 -63q-31 -16 -72 -16h-4h-17t-22.5 2.5t-26.5 8t-24.5 16.5t-22.5 26.5t-15 41t-6 57.5v274z" />
    <glyph glyph-name="u" unicode="u" horiz-adv-x="541" 
d="M60 200v284h86v-284q0 -142 109 -142q15 0 31.5 3t44.5 13.5t46 38t18 69.5v302h86v-484h-80v68q-22 -43 -69 -62t-79 -19q-193 0 -193 213z" />
    <glyph glyph-name="v" unicode="v" horiz-adv-x="510" 
d="M304 0h-98l-206 484h91l164 -410l164 410h91z" />
    <glyph glyph-name="w" unicode="w" horiz-adv-x="784" 
d="M174 0l-169 484h91l120 -390l126 390h100l127 -390l120 390h90l-168 -484h-84l-135 411l-134 -411h-84z" />
    <glyph glyph-name="x" unicode="x" horiz-adv-x="506" 
d="M383 484h100l-174 -239l187 -245h-100l-143 194l-143 -194h-100l187 245l-174 239h100l130 -187z" />
    <glyph glyph-name="y" unicode="y" horiz-adv-x="530" 
d="M82 -188l9 68q13 -7 45 -7q19 0 33.5 9.5t19.5 19.5l5 9l34 84l-218 489h91l167 -395l161 395h91l-258 -607q-13 -31 -39.5 -50t-45.5 -23t-37 -4q-25 0 -58 12z" />
    <glyph glyph-name="z" unicode="z" horiz-adv-x="456" 
d="M25 0v71l303 341h-293v72h396v-71l-302 -341h292v-72h-396z" />
    <glyph glyph-name="braceleft" unicode="{" horiz-adv-x="347" 
d="M60 212v53q50 6 67 37.5t17 91.5l-1 172q0 46 33 77.5t72 31.5h58v-60h-37q-23 0 -36 -20.5t-13 -49.5v-164q3 -96 -62 -142q8 -5 21.5 -25.5t27.5 -62t13 -84.5v-137q0 -30 13 -51t36 -21h38v-58h-59q-38 0 -71.5 31.5t-33.5 77.5l1 144q0 150 -84 159z" />
    <glyph glyph-name="bar" unicode="|" horiz-adv-x="175" 
d="M60 -126v920h55v-920h-55z" />
    <glyph glyph-name="braceright" unicode="}" horiz-adv-x="347" 
d="M287 265v-53q-84 -9 -84 -159l1 -144q0 -46 -33.5 -77.5t-71.5 -31.5h-59v58h38q23 0 36 21t13 51v137q-1 43 13 84.5t27.5 62t21.5 25.5q-65 46 -62 142v164q0 29 -13 49.5t-36 20.5h-37v60h58q39 0 72 -31.5t33 -77.5l-1 -172q0 -60 17 -91.5t67 -37.5z" />
    <glyph glyph-name="asciitilde" unicode="~" horiz-adv-x="469" 
d="M158 363q20 0 48 -9.5t50 -18t44.5 -12t41.5 9.5t31 46h56q-20 -73 -32 -92q-27 -42 -91 -42q-18 0 -37 5.5t-43 15.5l-24 11q-45 17 -67.5 5.5t-38.5 -54.5h-56q3 9 8 29.5t8 29t9.5 24t13.5 22.5t18 15.5t26 11.5t35 3z" />
    <glyph glyph-name="exclamdown" unicode="&#xa1;" horiz-adv-x="226" 
d="M144 339l8 -539h-78l8 539h62zM156 474v-82h-86v82h86z" />
    <glyph glyph-name="cent" unicode="&#xa2;" horiz-adv-x="451" 
d="M314 -11v-100h-55v99q-106 6 -165 72.5t-59 181.5q0 114 59 180.5t165 72.5v95h55v-96q68 -5 107 -24l-19 -66q-54 19 -106 19q-89 0 -133.5 -51.5t-44.5 -129.5t44.5 -130t133.5 -52q50 0 106 20l19 -66q-42 -20 -107 -25z" />
    <glyph glyph-name="sterling" unicode="&#xa3;" horiz-adv-x="479" 
d="M192 351v-279h271l1 -72h-427v72h66v279h-83v65h83v41q0 108 49.5 163t119.5 62q103 12 181 -39l-38 -54q-36 29 -91 29q-66 0 -99 -44t-33 -117v-41h173v-65h-173z" />
    <glyph glyph-name="currency" unicode="&#xa4;" horiz-adv-x="522" 
d="M50 458l54 57l58 -59q51 25 99 25q52 -2 96 -25l56 54l59 -61l-58 -55q17 -27 26 -85q3 -48 -30 -106l57 -57l-58 -55l-53 55q-45 -28 -93 -30q-46 -1 -100 22l-54 -51l-55 59l49 51q-31 37 -29 103q0 70 34 98zM370 301q0 52 -36.5 81t-78.5 29t-76.5 -29t-34.5 -84
q0 -54 34.5 -83t76.5 -29q43 0 79 29t36 86z" />
    <glyph glyph-name="yen" unicode="&#xa5;" horiz-adv-x="558" 
d="M323 0h-88v127l-166 -2v59l166 -2v67l-166 -1v59l148 -2l-203 369h98l167 -321l167 321h98l-203 -369l146 2v-59l-164 1v-67l164 2v-59l-164 2v-127z" />
    <glyph glyph-name="brokenbar" unicode="&#xa6;" horiz-adv-x="175" 
d="M60 341v333h55v-333h-55zM60 -99v333h55v-333h-55z" />
    <glyph glyph-name="section" unicode="&#xa7;" horiz-adv-x="445" 
d="M311 112q3 10 3 18.5t-2.5 15t-5.5 11t-8.5 8.5t-8.5 5.5l-8 4t-6 2.5l-105 40q-3 1 -12 5.5t-12 5.5t-11 5t-11 6t-10 6t-10.5 7t-9.5 7t-10 8.5t-9 9.5t-10 11q-24 46 -8.5 95.5t63.5 73.5q-62 44 -51 123q10 65 80.5 92.5t168.5 -0.5q36 -13 69 -34l-34 -58
q-34 19 -54 25q-63 22 -107.5 7t-48.5 -50q-1 -16 3 -25.5t19 -18t30.5 -14t52.5 -19.5t71 -28q31 -14 50 -31q22 -21 30 -49t4.5 -50t-12.5 -42q-17 -36 -54 -55q31 -21 42.5 -52t8.5 -55t-13 -47q-25 -52 -93 -69t-155 9q-51 15 -87 48l34 56q24 -21 63 -34
q70 -21 114.5 -13.5t59.5 39.5zM290 388l-104 40q-41 -13 -55 -44t-4 -55q13 -26 84 -53l57 -21q54 28 64 67.5t-42 65.5z" />
    <glyph glyph-name="dieresis" unicode="&#xa8;" horiz-adv-x="299" 
d="M33 587v87h86v-87h-86zM180 587v87h86v-87h-86z" />
    <glyph glyph-name="copyright" unicode="&#xa9;" horiz-adv-x="776" 
d="M197 332q0 86 53.5 143.5t143.5 57.5q75 0 120 -23l-20 -52q-43 16 -89 16q-70 0 -103 -41.5t-33 -100.5q0 -60 32.5 -101.5t103.5 -41.5q43 0 90 16l19 -52q-45 -22 -120 -22q-90 0 -143.5 57.5t-53.5 143.5zM40 337q0 144 102 246t246 102t246 -102t102 -246t-102 -246
t-246 -102t-246 102t-102 246zM102 337q0 -118 84 -202t202 -84t202 84t84 202t-84 202t-202 84t-202 -84t-84 -202z" />
    <glyph glyph-name="ordfeminine" unicode="&#xaa;" horiz-adv-x="338" 
d="M298 268h-69v29q-14 -18 -34.5 -27t-35.5 -9q-48 0 -80 24t-32 67q0 54 46.5 79t137.5 29v13q0 39 -44 45q-7 1 -15 1q-40 0 -78 -21l-11 -6l-17 44l2 2q3 2 8 5t12 6.5t16.5 7.5t20 7t23.5 4.5t26 1.5q36 0 62 -10q62 -22 62 -85v-207zM160 312q11 0 24.5 2.5t30 16.5
t16.5 37v46q-59 -5 -90.5 -20t-30.5 -40q2 -42 50 -42zM41 225h257v-55h-257v55z" />
    <glyph glyph-name="guillemotleft" unicode="&#xab;" horiz-adv-x="467" 
d="M258 542l-135 -235l140 -230h-82l-131 233l131 232h77zM412 542l-135 -235l140 -230h-82l-131 233l131 232h77z" />
    <glyph glyph-name="logicalnot" unicode="&#xac;" horiz-adv-x="604" 
d="M467 299h-407v80h484v-213h-77v133z" />
    <glyph glyph-name="registered" unicode="&#xae;" horiz-adv-x="776" 
d="M538 409q0 -72 -64 -96q19 -8 34 -44q2 -5 7.5 -21.5t9.5 -24.5q12 -39 34 -80h-73q-21 29 -35 76q-14 43 -16 47q-16 27 -43 27h-81v-150h-69v390h172q69 0 96.5 -36t27.5 -88zM311 351h105q30 0 41.5 18.5t11.5 39.5q0 67 -59 67h-99v-125zM40 337q0 144 102 246
t246 102t246 -102t102 -246t-102 -246t-246 -102t-246 102t-102 246zM102 337q0 -118 84 -202t202 -84t202 84t84 202t-84 202t-202 84t-202 -84t-84 -202z" />
    <glyph glyph-name="degree" unicode="&#xb0;" horiz-adv-x="377" 
d="M35 510q0 64 44.5 109t108.5 45t109 -45t45 -109t-45 -108.5t-109 -44.5t-108.5 44.5t-44.5 108.5zM89 510q0 -40 29.5 -69.5t69.5 -29.5t70 29.5t30 69.5t-30 70t-70 30t-69.5 -30t-29.5 -70z" />
    <glyph glyph-name="plusminus" unicode="&#xb1;" horiz-adv-x="574" 
d="M45 375h210v195h65v-195h209v-65h-209v-194h-65v194h-210v65zM529 0h-484v65h484v-65z" />
    <glyph glyph-name="twosuperior" unicode="&#xb2;" horiz-adv-x="312" 
d="M151 783q-26 0 -51.5 -16.5t-39.5 -33.5l-23 50l3 3l6.5 6.5l7.5 7.5t10.5 8.5t12.5 7.5t15.5 7t18 6t20.5 4.5t23 1.5q61 0 93.5 -31.5t32.5 -77.5q0 -30 -14 -54t-57 -52l-54 -39q-52 -37 -57 -68h176v-53h-242v27q0 24 8 45.5t16.5 35t31.5 32.5t34 26.5t43 29.5l15 9
h-1q37 24 37 59q0 59 -65 59z" />
    <glyph glyph-name="threesuperior" unicode="&#xb3;" horiz-adv-x="323" 
d="M162 452q-75 0 -124 49l-6 5l22 46q2 -1 12 -9t18.5 -13t20.5 -12t26 -10.5t28 -3.5q34 0 52 15.5t18 42.5t-20 42t-51 15h-44v54h44q31 0 46 15t16 37q0 22 -17 41t-46 19q-25 0 -50.5 -17t-40.5 -34l-23 49l5 5q5 6 9 9.5t11.5 9.5t16.5 10.5t20 9t25 7t30 2.5
q50 0 87 -27.5t37 -82.5q0 -52 -53 -79q60 -25 60 -84q0 -53 -35.5 -82t-93.5 -29z" />
    <glyph glyph-name="acute" unicode="&#xb4;" horiz-adv-x="247" 
d="M37 542l81 132h92l-105 -132h-68z" />
    <glyph glyph-name="mu" unicode="&#xb5;" horiz-adv-x="541" 
d="M146 39v-239h-86v684h86v-296q5 -128 109 -128q15 0 31.5 3t44.5 13t46 37.5t18 68.5v302h86v-484h-80v76q-8 -30 -30.5 -50t-50.5 -26.5t-42 -8.5t-25 -2q-72 0 -107 50z" />
    <glyph glyph-name="paragraph" unicode="&#xb6;" horiz-adv-x="449" 
d="M223 -200v487q-80 0 -136.5 56.5t-56.5 136.5t56.5 137t136.5 57h166v-874h-55v821h-56v-821h-55z" />
    <glyph glyph-name="periodcentered" unicode="&#xb7;" horiz-adv-x="194" 
d="M50 264v94h94v-94h-94z" />
    <glyph glyph-name="cedilla" unicode="&#xb8;" horiz-adv-x="288" 
d="M129 10h56q15 -17 29.5 -42.5t18.5 -41.5q15 -55 -14.5 -93t-91.5 -32q-37 4 -77 23v48l41 -12q45 -11 64 10.5t10.5 60.5t-36.5 79z" />
    <glyph glyph-name="onesuperior" unicode="&#xb9;" horiz-adv-x="289" 
d="M81 694l-37 37l91 93h58v-370h-63v293q-5 -6 -22.5 -25t-26.5 -28z" />
    <glyph glyph-name="ordmasculine" unicode="&#xba;" horiz-adv-x="370" 
d="M40 418q0 73 38.5 114t106.5 41t106.5 -41t38.5 -114q0 -72 -38.5 -113.5t-106.5 -41.5t-106.5 41.5t-38.5 113.5zM265 418q0 42 -22 73t-58 31q-37 0 -58 -31t-21 -73t21 -73t58 -31q36 0 58 31t22 73zM45 225h280v-55h-280v55z" />
    <glyph glyph-name="guillemotright" unicode="&#xbb;" horiz-adv-x="467" 
d="M344 306l-135 235h77l131 -232l-131 -233h-82zM190 306l-135 235h77l131 -232l-131 -233h-82z" />
    <glyph glyph-name="onequarter" unicode="&#xbc;" horiz-adv-x="733" 
d="M119 0l394 674h50l-393 -674h-51zM620 0h-64v77h-172v50q21 40 53 86t52.5 72t68.5 85h62v-245h53v-48h-53v-77zM443 125h113v162q-83 -103 -113 -162zM97 544l-37 37l91 93h58v-370h-63v293q-5 -6 -22.5 -25t-26.5 -28z" />
    <glyph glyph-name="onehalf" unicode="&#xbd;" horiz-adv-x="748" 
d="M110 0l394 674h50l-393 -674h-51zM97 544l-37 37l91 93h58v-370h-63v293q-5 -6 -22.5 -25t-26.5 -28zM559 323q-26 0 -51.5 -14.5t-39.5 -30.5l-23 45l3 3l6.5 6.5l7.5 7.5t10.5 8.5t12.5 7.5t15.5 7t18 6t20.5 4.5t23 1.5q61 0 93.5 -31.5t32.5 -77.5q0 -30 -14 -54
t-57 -52l-54 -39q-52 -37 -57 -68h176v-53h-242v27q0 24 8 45.5t16.5 35t31.5 32.5t34 26.5t43 29.5l15 9q36 24 36 59q0 59 -65 59z" />
    <glyph glyph-name="threequarters" unicode="&#xbe;" horiz-adv-x="781" 
d="M175 0l394 674h50l-393 -674h-51zM190 302q-75 0 -124 49l-6 5l22 46q2 -1 12 -9t18.5 -13t20.5 -12t26 -10.5t28 -3.5q34 0 52 15.5t18 42.5t-20 42t-51 15h-44v54h44q31 0 46 15t16 37q0 22 -17 41t-46 19q-25 0 -50.5 -17t-40.5 -34l-23 49l5 5q5 6 9 9.5t11.5 9.5
t16.5 10.5t20 9t25 7t30 2.5q50 0 87 -27.5t37 -82.5q0 -52 -53 -79q60 -25 60 -84q0 -53 -35.5 -82t-93.5 -29zM668 0h-64v77h-172v50q46 88 162 228l12 15h62v-245h53v-48h-53v-77zM491 125h113v162q-83 -103 -113 -162z" />
    <glyph glyph-name="questiondown" unicode="&#xbf;" horiz-adv-x="531" 
d="M264 339h77q0 -94 -20 -131t-114 -121q-49 -43 -56.5 -97t30.5 -92t109 -38q50 0 91.5 34t47.5 56l62 -47q-8 -15 -22 -31.5t-38.5 -36.5t-63 -33t-82.5 -13q-93 0 -156.5 52.5t-63.5 140.5q0 91 99 173q56 45 78 77t22 78v29zM343 474v-82h-86v82h86z" />
    <glyph glyph-name="Agrave" unicode="&#xc0;" horiz-adv-x="668" 
d="M100 0h-91l280 674h90l280 -674h-91l-65 158h-339zM334 586l-142 -352h283zM302 864l81 -132h-68l-105 132h92z" />
    <glyph glyph-name="Aacute" unicode="&#xc1;" horiz-adv-x="668" 
d="M100 0h-91l280 674h90l280 -674h-91l-65 158h-339zM334 586l-142 -352h283zM291 732l81 132h92l-105 -132h-68z" />
    <glyph glyph-name="Acircumflex" unicode="&#xc2;" horiz-adv-x="668" 
d="M100 0h-91l280 674h90l280 -674h-91l-65 158h-339zM334 586l-142 -352h283zM283 864h101l96 -132h-68l-78 85l-79 -85h-68z" />
    <glyph glyph-name="Atilde" unicode="&#xc3;" horiz-adv-x="668" 
d="M100 0h-91l280 674h90l280 -674h-91l-65 158h-339zM334 586l-142 -352h283zM277 864q20 0 57 -18t62.5 -18t39.5 36h41q-6 -102 -91 -102q-21 0 -77 23q-32 12 -49 6t-29 -35h-41q5 50 22.5 79t64.5 29z" />
    <glyph glyph-name="Adieresis" unicode="&#xc4;" horiz-adv-x="668" 
d="M100 0h-91l280 674h90l280 -674h-91l-65 158h-339zM334 586l-142 -352h283zM217 777v87h86v-87h-86zM364 777v87h86v-87h-86z" />
    <glyph glyph-name="Aring" unicode="&#xc5;" horiz-adv-x="668" 
d="M100 0h-91l280 674h90l280 -674h-91l-65 158h-339zM334 586l-142 -352h283zM242 831q0 40 22.5 67t69.5 27q92 0 92 -94t-92 -94q-47 0 -69.5 27t-22.5 67zM379 831q0 48 -46 48q-45 0 -45 -48t45 -48q46 0 46 48z" />
    <glyph glyph-name="AE" unicode="&#xc6;" horiz-adv-x="887" 
d="M398 598l-183 -364h228v364h-45zM529 76h313v-76h-399v158h-256l-78 -158h-100l334 674h492v-76h-305v-219h273v-77h-274v-226z" />
    <glyph glyph-name="Ccedilla" unicode="&#xc7;" horiz-adv-x="601" 
d="M40 337q0 150 91 249t243 99q133 0 197 -34l-25 -66q-63 23 -149 23q-70 0 -124 -23.5t-84 -63.5t-45 -86t-15 -98t15 -98t45 -86t84 -63.5t124 -23.5q84 0 151 23l23 -66q-55 -28 -175 -34q23 -32 32 -63q15 -55 -14.5 -93t-91.5 -32q-37 4 -77 23v48l41 -12
q61 -15 73.5 29.5t-23.5 101.5q-135 12 -215.5 109.5t-80.5 236.5z" />
    <glyph glyph-name="Egrave" unicode="&#xc8;" horiz-adv-x="558" 
d="M513 0h-448v674h441v-76h-355v-219h314v-77h-314v-226h362v-76zM268 864l81 -132h-68l-105 132h92z" />
    <glyph glyph-name="Eacute" unicode="&#xc9;" horiz-adv-x="558" 
d="M513 0h-448v674h441v-76h-355v-219h314v-77h-314v-226h362v-76zM217 732l81 132h92l-105 -132h-68z" />
    <glyph glyph-name="Ecircumflex" unicode="&#xca;" horiz-adv-x="558" 
d="M228 864h101l96 -132h-68l-78 85l-79 -85h-68zM513 0h-448v674h441v-76h-355v-219h314v-77h-314v-226h362v-76z" />
    <glyph glyph-name="Edieresis" unicode="&#xcb;" horiz-adv-x="558" 
d="M513 0h-448v674h441v-76h-355v-219h314v-77h-314v-226h362v-76zM162 777v87h86v-87h-86zM309 777v87h86v-87h-86z" />
    <glyph glyph-name="Igrave" unicode="&#xcc;" horiz-adv-x="236" 
d="M75 0v674h86v-674h-86zM82 864l81 -132h-68l-105 132h92z" />
    <glyph glyph-name="Iacute" unicode="&#xcd;" horiz-adv-x="239" 
d="M78 0v674h86v-674h-86zM75 732l81 132h92l-105 -132h-68z" />
    <glyph glyph-name="Icircumflex" unicode="&#xce;" horiz-adv-x="236" 
d="M75 0v674h86v-674h-86zM68 864h101l96 -132h-68l-78 85l-79 -85h-68z" />
    <glyph glyph-name="Idieresis" unicode="&#xcf;" horiz-adv-x="236" 
d="M75 0v674h86v-674h-86zM2 777v87h86v-87h-86zM149 777v87h86v-87h-86z" />
    <glyph glyph-name="Eth" unicode="&#xd0;" horiz-adv-x="713" 
d="M111 674h238q158 0 246 -85.5t88 -251.5t-88 -251.5t-246 -85.5h-238v281h-101v77h101v316zM197 76h156q107 0 176 65t69 196q0 135 -66.5 198t-181.5 63h-153v-240h207v-77h-207v-205z" />
    <glyph glyph-name="Ntilde" unicode="&#xd1;" horiz-adv-x="664" 
d="M469 0l-318 594v-594h-86v674h139l309 -591v591h86v-674h-130zM275 864q20 0 57 -18t62.5 -18t39.5 36h41q-6 -102 -91 -102q-21 0 -77 23q-32 12 -49 6t-29 -35h-41q5 50 22.5 79t64.5 29z" />
    <glyph glyph-name="Ograve" unicode="&#xd2;" horiz-adv-x="722" 
d="M361 -11q-149 0 -235 92.5t-86 255.5t86 255.5t235 92.5t235 -92.5t86 -255.5t-86 -255.5t-235 -92.5zM361 611q-112 0 -171 -78t-59 -196q0 -122 59 -198t171 -76t171 76t59 198q0 118 -59 196t-171 78zM322 864l81 -132h-68l-105 132h92z" />
    <glyph glyph-name="Oacute" unicode="&#xd3;" horiz-adv-x="722" 
d="M361 -11q-149 0 -235 92.5t-86 255.5t86 255.5t235 92.5t235 -92.5t86 -255.5t-86 -255.5t-235 -92.5zM361 611q-112 0 -171 -78t-59 -196q0 -122 59 -198t171 -76t171 76t59 198q0 118 -59 196t-171 78zM324 732l81 132h92l-105 -132h-68z" />
    <glyph glyph-name="Ocircumflex" unicode="&#xd4;" horiz-adv-x="722" 
d="M361 -11q-149 0 -235 92.5t-86 255.5t86 255.5t235 92.5t235 -92.5t86 -255.5t-86 -255.5t-235 -92.5zM361 611q-112 0 -171 -78t-59 -196q0 -122 59 -198t171 -76t171 76t59 198q0 118 -59 196t-171 78zM310 864h101l96 -132h-68l-78 85l-79 -85h-68z" />
    <glyph glyph-name="Otilde" unicode="&#xd5;" horiz-adv-x="722" 
d="M361 -11q-149 0 -235 92.5t-86 255.5t86 255.5t235 92.5t235 -92.5t86 -255.5t-86 -255.5t-235 -92.5zM361 611q-112 0 -171 -78t-59 -196q0 -122 59 -198t171 -76t171 76t59 198q0 118 -59 196t-171 78zM304 864q20 0 57 -18t62.5 -18t39.5 36h41q-6 -102 -91 -102
q-21 0 -77 23q-32 12 -49 6t-29 -35h-41q5 50 22.5 79t64.5 29z" />
    <glyph glyph-name="Odieresis" unicode="&#xd6;" horiz-adv-x="722" 
d="M361 -11q-149 0 -235 92.5t-86 255.5t86 255.5t235 92.5t235 -92.5t86 -255.5t-86 -255.5t-235 -92.5zM361 611q-112 0 -171 -78t-59 -196q0 -122 59 -198t171 -76t171 76t59 198q0 118 -59 196t-171 78zM244 777v87h86v-87h-86zM391 777v87h86v-87h-86z" />
    <glyph glyph-name="multiply" unicode="&#xd7;" horiz-adv-x="561" 
d="M40 124l195 195l-195 195l46 46l195 -195l194 194l46 -46l-194 -194l194 -194l-46 -46l-194 194l-195 -195z" />
    <glyph glyph-name="Oslash" unicode="&#xd8;" horiz-adv-x="682" 
d="M160 35v1l-61 -89h-66l83 124q-96 91 -96 266q0 163 86 255.5t235 92.5q94 0 164 -40l50 75h72l-73 -107q108 -94 108 -276q0 -163 -86 -255.5t-235 -92.5q-108 0 -181 46zM166 144l294 435q-53 32 -119 32q-112 0 -171 -78t-59 -196q0 -120 55 -193zM206 103v1
q53 -41 135 -41q112 0 171 76t59 198q0 126 -67 202z" />
    <glyph glyph-name="Ugrave" unicode="&#xd9;" horiz-adv-x="684" 
d="M342 -13q-135 0 -206 69t-71 226v392h87v-386q0 -118 45 -173.5t145 -55.5t145 55.5t45 173.5v386h87v-392q0 -157 -71 -226t-206 -69zM300 864l81 -132h-68l-105 132h92z" />
    <glyph glyph-name="Uacute" unicode="&#xda;" horiz-adv-x="684" 
d="M342 -13q-135 0 -206 69t-71 226v392h87v-386q0 -118 45 -173.5t145 -55.5t145 55.5t45 173.5v386h87v-392q0 -157 -71 -226t-206 -69zM281 732l81 132h92l-105 -132h-68z" />
    <glyph glyph-name="Ucircumflex" unicode="&#xdb;" horiz-adv-x="684" 
d="M342 -13q-135 0 -206 69t-71 226v392h87v-386q0 -118 45 -173.5t145 -55.5t145 55.5t45 173.5v386h87v-392q0 -157 -71 -226t-206 -69zM291 864h101l96 -132h-68l-78 85l-79 -85h-68z" />
    <glyph glyph-name="Udieresis" unicode="&#xdc;" horiz-adv-x="684" 
d="M342 -13q-135 0 -206 69t-71 226v392h87v-386q0 -118 45 -173.5t145 -55.5t145 55.5t45 173.5v386h87v-392q0 -157 -71 -226t-206 -69zM225 777v87h86v-87h-86zM372 777v87h86v-87h-86z" />
    <glyph glyph-name="Yacute" unicode="&#xdd;" horiz-adv-x="634" 
d="M362 0h-90v237l-258 437h102l201 -365l199 365h104l-258 -437v-237zM274 732l81 132h92l-105 -132h-68z" />
    <glyph glyph-name="Thorn" unicode="&#xde;" horiz-adv-x="550" 
d="M151 674v-175q16 37 53 58t85 21q103 0 164.5 -64t61.5 -189t-61 -189t-161 -64q-107 0 -143 66v-138h-85v674h86zM273 507q-13 0 -30 -4t-38 -12.5t-36 -28t-18 -45.5v-167q0 -34 14.5 -57t38.5 -33t44 -13.5t43 -3.5q70 0 101.5 52t31.5 130q0 182 -151 182z" />
    <glyph glyph-name="germandbls" unicode="&#xdf;" horiz-adv-x="567" 
d="M302 0h-67v66h67q68 0 108 39t40 89q0 62 -38 96.5t-108 34.5v72q56 7 80.5 33t24.5 78q0 45 -37 77.5t-93 32.5q-38 0 -64 -14t-39.5 -39.5t-18.5 -54.5t-5 -67v-443h-87v457q0 101 56.5 164.5t157.5 63.5q37 0 72 -9.5t66.5 -29t51 -55.5t19.5 -83q0 -18 -4 -36.5
t-14 -41t-31.5 -40t-52.5 -24.5q70 -9 105.5 -57t35.5 -122q0 -79 -58.5 -133t-166.5 -54z" />
    <glyph glyph-name="agrave" unicode="&#xe0;" 
d="M215 674l81 -132h-68l-105 132h92zM431 0h-89v55q-50 -66 -135 -66q-76 0 -126.5 38.5t-50.5 107.5q0 88 79.5 127t235.5 48v30q0 70 -78 84q-16 3 -36 3q-15 0 -28.5 -1t-26 -4t-20.5 -4.5t-20 -6.5t-15.5 -6.5t-17 -8t-14.5 -7.5l-25 60q8 5 22 13t58.5 21t90.5 13
q55 1 98 -15q98 -38 98 -138v-343zM209 59q10 0 23.5 1.5t34 8t37.5 17t29 30.5t12 46v86q-110 -6 -173.5 -34.5t-61.5 -75.5q2 -38 29 -58.5t70 -20.5z" />
    <glyph glyph-name="aacute" unicode="&#xe1;" 
d="M163 542l81 132h92l-105 -132h-68zM431 0h-89v55q-50 -66 -135 -66q-76 0 -126.5 38.5t-50.5 107.5q0 88 79.5 127t235.5 48v30q0 70 -78 84q-16 3 -36 3q-15 0 -28.5 -1t-26 -4t-20.5 -4.5t-20 -6.5t-15.5 -6.5t-17 -8t-14.5 -7.5l-25 60q8 5 22 13t58.5 21t90.5 13
q55 1 98 -15q98 -38 98 -138v-343zM209 59q10 0 23.5 1.5t34 8t37.5 17t29 30.5t12 46v86q-110 -6 -173.5 -34.5t-61.5 -75.5q2 -38 29 -58.5t70 -20.5z" />
    <glyph glyph-name="acircumflex" unicode="&#xe2;" 
d="M199 674h101l96 -132h-68l-78 85l-79 -85h-68zM431 0h-89v55q-50 -66 -135 -66q-76 0 -126.5 38.5t-50.5 107.5q0 88 79.5 127t235.5 48v30q0 70 -78 84q-16 3 -36 3q-15 0 -28.5 -1t-26 -4t-20.5 -4.5t-20 -6.5t-15.5 -6.5t-17 -8t-14.5 -7.5l-25 60q8 5 22 13t58.5 21
t90.5 13q55 1 98 -15q98 -38 98 -138v-343zM209 59q10 0 23.5 1.5t34 8t37.5 17t29 30.5t12 46v86q-110 -6 -173.5 -34.5t-61.5 -75.5q2 -38 29 -58.5t70 -20.5z" />
    <glyph glyph-name="atilde" unicode="&#xe3;" 
d="M193 674q20 0 57 -18t62.5 -18t39.5 36h41q-6 -102 -91 -102q-21 0 -77 23q-32 12 -49 6t-29 -35h-41q5 50 22.5 79t64.5 29zM431 0h-89v55q-50 -66 -135 -66q-76 0 -126.5 38.5t-50.5 107.5q0 88 79.5 127t235.5 48v30q0 70 -78 84q-16 3 -36 3q-15 0 -28.5 -1t-26 -4
t-20.5 -4.5t-20 -6.5t-15.5 -6.5t-17 -8t-14.5 -7.5l-25 60q8 5 22 13t58.5 21t90.5 13q55 1 98 -15q98 -38 98 -138v-343zM209 59q10 0 23.5 1.5t34 8t37.5 17t29 30.5t12 46v86q-110 -6 -173.5 -34.5t-61.5 -75.5q2 -38 29 -58.5t70 -20.5z" />
    <glyph glyph-name="adieresis" unicode="&#xe4;" 
d="M133 587v87h86v-87h-86zM280 587v87h86v-87h-86zM431 0h-89v55q-50 -66 -135 -66q-76 0 -126.5 38.5t-50.5 107.5q0 88 79.5 127t235.5 48v30q0 70 -78 84q-16 3 -36 3q-15 0 -28.5 -1t-26 -4t-20.5 -4.5t-20 -6.5t-15.5 -6.5t-17 -8t-14.5 -7.5l-25 60q8 5 22 13
t58.5 21t90.5 13q55 1 98 -15q98 -38 98 -138v-343zM209 59q10 0 23.5 1.5t34 8t37.5 17t29 30.5t12 46v86q-110 -6 -173.5 -34.5t-61.5 -75.5q2 -38 29 -58.5t70 -20.5z" />
    <glyph glyph-name="aring" unicode="&#xe5;" 
d="M158 641q0 40 22.5 67t69.5 27q92 0 92 -94t-92 -94q-47 0 -69.5 27t-22.5 67zM295 641q0 48 -46 48q-45 0 -45 -48t45 -48q46 0 46 48zM431 0h-89v55q-50 -66 -135 -66q-76 0 -126.5 38.5t-50.5 107.5q0 88 79.5 127t235.5 48v30q0 70 -78 84q-16 3 -36 3
q-15 0 -28.5 -1t-26 -4t-20.5 -4.5t-20 -6.5t-15.5 -6.5t-17 -8t-14.5 -7.5l-25 60q8 5 22 13t58.5 21t90.5 13q55 1 98 -15q98 -38 98 -138v-343zM209 59q10 0 23.5 1.5t34 8t37.5 17t29 30.5t12 46v86q-110 -6 -173.5 -34.5t-61.5 -75.5q2 -38 29 -58.5t70 -20.5z" />
    <glyph glyph-name="ae" unicode="&#xe6;" horiz-adv-x="850" 
d="M597 -11q-129 0 -195 110q-40 -110 -200 -110q-72 0 -124.5 35.5t-52.5 110.5q0 45 24 77t70.5 51t103 29t133.5 14v34q0 5 -0.5 11.5t-7.5 21t-18.5 25.5t-36.5 20t-60 9q-46 0 -96 -18q-17 -6 -40 -19l-28 59q8 5 22 13t58.5 21t90.5 13q35 1 71 -8q80 -23 109 -82
q45 90 166 90q116 0 177.5 -68t49.5 -199h-366q0 -71 43 -120.5t115 -47.5q70 0 152 34l24 -68q-62 -38 -184 -38zM204 59q13 0 34 5t49.5 16t48.5 37t20 62v51q-122 -7 -187.5 -27t-63.5 -65q2 -38 29 -58.5t70 -20.5zM590 424q-53 0 -96.5 -37t-43.5 -88h280q-2 65 -42 95
t-98 30z" />
    <glyph glyph-name="ccedilla" unicode="&#xe7;" horiz-adv-x="451" 
d="M35 242q0 120 64.5 187t178.5 67q93 0 143 -26l-19 -66q-54 19 -106 19q-89 0 -133.5 -51.5t-44.5 -129.5t44.5 -130t133.5 -52q50 0 106 20l19 -66q-39 -20 -125 -26q26 -42 31 -62q15 -55 -14.5 -93t-91.5 -32q-37 4 -77 23v48l41 -12q61 -15 73.5 29t-22.5 101
q-96 12 -148.5 78t-52.5 174z" />
    <glyph glyph-name="egrave" unicode="&#xe8;" horiz-adv-x="528" 
d="M275 -13q-103 0 -171.5 69.5t-68.5 185.5q0 113 61.5 183.5t167.5 70.5q115 0 177 -76.5t50 -209.5h-370q0 -67 43.5 -109t118.5 -42h11h13t13.5 0.5t17 2t18 3.5t22 5.5t25 8.5t29.5 11l27 -63q-65 -40 -184 -40zM264 424q-59 0 -99.5 -44t-40.5 -99h284q-3 69 -42 106
t-102 37zM223 674l81 -132h-68l-105 132h92z" />
    <glyph glyph-name="eacute" unicode="&#xe9;" horiz-adv-x="528" 
d="M275 -13q-103 0 -171.5 69.5t-68.5 185.5q0 113 61.5 183.5t167.5 70.5q115 0 177 -76.5t50 -209.5h-370q0 -67 43.5 -109t118.5 -42h11h13t13.5 0.5t17 2t18 3.5t22 5.5t25 8.5t29.5 11l27 -63q-65 -40 -184 -40zM264 424q-59 0 -99.5 -44t-40.5 -99h284q-3 69 -42 106
t-102 37zM222 542l81 132h92l-105 -132h-68z" />
    <glyph glyph-name="ecircumflex" unicode="&#xea;" horiz-adv-x="528" 
d="M275 -13q-103 0 -171.5 69.5t-68.5 185.5q0 113 61.5 183.5t167.5 70.5q115 0 177 -76.5t50 -209.5h-370q0 -67 43.5 -109t118.5 -42h11h13t13.5 0.5t17 2t18 3.5t22 5.5t25 8.5t29.5 11l27 -63q-65 -40 -184 -40zM264 424q-59 0 -99.5 -44t-40.5 -99h284q-3 69 -42 106
t-102 37zM213 674h101l96 -132h-68l-78 85l-79 -85h-68z" />
    <glyph glyph-name="edieresis" unicode="&#xeb;" horiz-adv-x="528" 
d="M275 -13q-103 0 -171.5 69.5t-68.5 185.5q0 113 61.5 183.5t167.5 70.5q115 0 177 -76.5t50 -209.5h-370q0 -67 43.5 -109t118.5 -42h11h13t13.5 0.5t17 2t18 3.5t22 5.5t25 8.5t29.5 11l27 -63q-65 -40 -184 -40zM264 424q-59 0 -99.5 -44t-40.5 -99h284q-3 69 -42 106
t-102 37zM154 587v87h86v-87h-86zM301 587v87h86v-87h-86z" />
    <glyph glyph-name="igrave" unicode="&#xec;" horiz-adv-x="206" 
d="M60 0l1 484h85v-484h-86zM67 674l81 -132h-68l-105 132h92z" />
    <glyph glyph-name="iacute" unicode="&#xed;" horiz-adv-x="206" 
d="M60 0l1 484h85v-484h-86zM57 542l81 132h92l-105 -132h-68z" />
    <glyph glyph-name="icircumflex" unicode="&#xee;" horiz-adv-x="206" 
d="M60 0l1 484h85v-484h-86zM53 674h101l96 -132h-68l-78 85l-79 -85h-68z" />
    <glyph glyph-name="idieresis" unicode="&#xef;" horiz-adv-x="206" 
d="M60 0l1 484h85v-484h-86zM-13 587v87h86v-87h-86zM134 587v87h86v-87h-86z" />
    <glyph glyph-name="eth" unicode="&#xf0;" horiz-adv-x="517" 
d="M127 499l-33 32l69 71q-15 9 -106 56l60 56q82 -48 99 -58l65 66l33 -32l-60 -61q233 -165 233 -393q0 -116 -61.5 -181.5t-167.5 -65.5t-167 65.5t-61 181.5q0 117 61 182.5t167 65.5q46 0 83 -31q-21 39 -64 74.5t-75 48.5zM404 236q0 73 -39.5 126.5t-106.5 53.5
q-68 0 -106.5 -53t-38.5 -127t38.5 -127t106.5 -53q67 0 106.5 54t39.5 126z" />
    <glyph glyph-name="ntilde" unicode="&#xf1;" horiz-adv-x="531" 
d="M209 674q20 0 57 -18t62.5 -18t39.5 36h41q-6 -102 -91 -102q-21 0 -77 23q-32 12 -49 6t-29 -35h-41q5 50 22.5 79t64.5 29zM476 284v-284h-86v284q0 141 -109 141q-17 0 -37.5 -5.5t-45 -18.5t-41 -42.5t-16.5 -71.5v-287h-86v484h80v-90q19 56 61.5 78.5t86.5 22.5
q193 0 193 -211z" />
    <glyph glyph-name="ograve" unicode="&#xf2;" horiz-adv-x="537" 
d="M35 242q0 120 62 187t171 67q108 0 171 -67.5t63 -186.5t-63 -187t-171 -68q-109 0 -171 67.5t-62 187.5zM417 242q0 74 -40.5 129.5t-108.5 55.5q-70 0 -109 -54.5t-39 -130.5q0 -75 39 -130.5t109 -55.5q68 0 108.5 55.5t40.5 130.5zM240 674l81 -132h-68l-105 132h92z
" />
    <glyph glyph-name="oacute" unicode="&#xf3;" horiz-adv-x="537" 
d="M35 242q0 120 62 187t171 67q108 0 171 -67.5t63 -186.5t-63 -187t-171 -68q-109 0 -171 67.5t-62 187.5zM417 242q0 74 -40.5 129.5t-108.5 55.5q-70 0 -109 -54.5t-39 -130.5q0 -75 39 -130.5t109 -55.5q68 0 108.5 55.5t40.5 130.5zM209 542l81 132h92l-105 -132h-68z
" />
    <glyph glyph-name="ocircumflex" unicode="&#xf4;" horiz-adv-x="537" 
d="M35 242q0 120 62 187t171 67q108 0 171 -67.5t63 -186.5t-63 -187t-171 -68q-109 0 -171 67.5t-62 187.5zM417 242q0 74 -40.5 129.5t-108.5 55.5q-70 0 -109 -54.5t-39 -130.5q0 -75 39 -130.5t109 -55.5q68 0 108.5 55.5t40.5 130.5zM218 674h101l96 -132h-68l-78 85
l-79 -85h-68z" />
    <glyph glyph-name="otilde" unicode="&#xf5;" horiz-adv-x="537" 
d="M35 242q0 120 62 187t171 67q108 0 171 -67.5t63 -186.5t-63 -187t-171 -68q-109 0 -171 67.5t-62 187.5zM417 242q0 74 -40.5 129.5t-108.5 55.5q-70 0 -109 -54.5t-39 -130.5q0 -75 39 -130.5t109 -55.5q68 0 108.5 55.5t40.5 130.5zM212 674q20 0 57 -18t62.5 -18
t39.5 36h41q-6 -102 -91 -102q-21 0 -77 23q-32 12 -49 6t-29 -35h-41q5 50 22.5 79t64.5 29z" />
    <glyph glyph-name="odieresis" unicode="&#xf6;" horiz-adv-x="537" 
d="M35 242q0 120 62 187t171 67q108 0 171 -67.5t63 -186.5t-63 -187t-171 -68q-109 0 -171 67.5t-62 187.5zM417 242q0 74 -40.5 129.5t-108.5 55.5q-70 0 -109 -54.5t-39 -130.5q0 -75 39 -130.5t109 -55.5q68 0 108.5 55.5t40.5 130.5zM152 587v87h86v-87h-86zM299 587
v87h86v-87h-86z" />
    <glyph glyph-name="divide" unicode="&#xf7;" horiz-adv-x="528" 
d="M217 66v94h94v-94h-94zM217 456v94h94v-94h-94zM40 338h448v-65h-448v65z" />
    <glyph glyph-name="oslash" unicode="&#xf8;" horiz-adv-x="537" 
d="M156 116l184 289q-32 21 -72 21q-70 0 -109 -54t-39 -130q0 -74 36 -126zM153 13l-40 -60h-63l59 91q-74 66 -74 198q0 120 62 186.5t171 66.5q63 0 114 -25l33 54h69l-55 -86q73 -68 73 -196q0 -119 -62.5 -186t-171.5 -67q-66 0 -115 24zM381 364l-186 -286
q32 -20 73 -20q69 0 109 55t40 129q0 67 -36 122z" />
    <glyph glyph-name="ugrave" unicode="&#xf9;" horiz-adv-x="541" 
d="M60 200v284h86v-284q0 -142 109 -142q15 0 31.5 3t44.5 13.5t46 38t18 69.5v302h86v-484h-80v68q-22 -43 -69 -62t-79 -19q-193 0 -193 213zM276 674l81 -132h-68l-105 132h92z" />
    <glyph glyph-name="uacute" unicode="&#xfa;" horiz-adv-x="541" 
d="M60 200v284h86v-284q0 -142 109 -142q15 0 31.5 3t44.5 13.5t46 38t18 69.5v302h86v-484h-80v68q-22 -43 -69 -62t-79 -19q-193 0 -193 213zM184 542l81 132h92l-105 -132h-68z" />
    <glyph glyph-name="ucircumflex" unicode="&#xfb;" horiz-adv-x="541" 
d="M60 200v284h86v-284q0 -142 109 -142q15 0 31.5 3t44.5 13.5t46 38t18 69.5v302h86v-484h-80v68q-22 -43 -69 -62t-79 -19q-193 0 -193 213zM220 674h101l96 -132h-68l-78 85l-79 -85h-68z" />
    <glyph glyph-name="udieresis" unicode="&#xfc;" horiz-adv-x="541" 
d="M60 200v284h86v-284q0 -142 109 -142q15 0 31.5 3t44.5 13.5t46 38t18 69.5v302h86v-484h-80v68q-22 -43 -69 -62t-79 -19q-193 0 -193 213zM154 587v87h86v-87h-86zM301 587v87h86v-87h-86z" />
    <glyph glyph-name="yacute" unicode="&#xfd;" horiz-adv-x="530" 
d="M82 -188l9 68q13 -7 45 -7q19 0 33.5 9.5t19.5 19.5l5 9l34 84l-218 489h91l167 -395l161 395h91l-258 -607q-13 -31 -39.5 -50t-45.5 -23t-37 -4q-25 0 -58 12zM178 542l81 132h92l-105 -132h-68z" />
    <glyph glyph-name="thorn" unicode="&#xfe;" horiz-adv-x="550" 
d="M151 674v-258q16 37 53 58.5t85 21.5q102 0 164 -64.5t62 -189.5t-61 -190t-161 -65q-15 0 -34.5 2.5t-55.5 19t-53 46.5v-255h-85v874h86zM273 425q-13 0 -31.5 -5t-39.5 -16t-36 -31.5t-15 -46.5v-159q0 -34 14.5 -57.5t38.5 -33.5t44.5 -14t42.5 -4q69 0 101 53
t32 131q0 183 -151 183z" />
    <glyph glyph-name="ydieresis" unicode="&#xff;" horiz-adv-x="530" 
d="M82 -188l9 68q13 -7 45 -7q19 0 33.5 9.5t19.5 19.5l5 9l34 84l-218 489h91l167 -395l161 395h91l-258 -607q-13 -31 -39.5 -50t-45.5 -23t-37 -4q-25 0 -58 12zM148 587v87h86v-87h-86zM295 587v87h86v-87h-86z" />
    <glyph glyph-name="Amacron" unicode="&#x100;" horiz-adv-x="668" 
d="M100 0h-91l280 674h90l280 -674h-91l-65 158h-339zM334 586l-142 -352h283zM218 774v66h231v-66h-231z" />
    <glyph glyph-name="amacron" unicode="&#x101;" 
d="M121 584v66h231v-66h-231zM431 0h-89v55q-50 -66 -135 -66q-76 0 -126.5 38.5t-50.5 107.5q0 88 79.5 127t235.5 48v30q0 70 -78 84q-16 3 -36 3q-15 0 -28.5 -1t-26 -4t-20.5 -4.5t-20 -6.5t-15.5 -6.5t-17 -8t-14.5 -7.5l-25 60q8 5 22 13t58.5 21t90.5 13q55 1 98 -15
q98 -38 98 -138v-343zM209 59q10 0 23.5 1.5t34 8t37.5 17t29 30.5t12 46v86q-110 -6 -173.5 -34.5t-61.5 -75.5q2 -38 29 -58.5t70 -20.5z" />
    <glyph glyph-name="Abreve" unicode="&#x102;" horiz-adv-x="668" 
d="M100 0h-91l280 674h90l280 -674h-91l-65 158h-339zM334 586l-142 -352h283zM333 744q-72 0 -105.5 39.5t-29.5 103.5h52q-1 -39 17.5 -59t66.5 -20t66.5 20t17.5 59h52q4 -64 -29.5 -103.5t-107.5 -39.5z" />
    <glyph glyph-name="abreve" unicode="&#x103;" 
d="M233 554q-72 0 -105.5 39.5t-29.5 103.5h52q-1 -39 17.5 -59t66.5 -20t66.5 20t17.5 59h52q4 -64 -29.5 -103.5t-107.5 -39.5zM431 0h-89v55q-50 -66 -135 -66q-76 0 -126.5 38.5t-50.5 107.5q0 88 79.5 127t235.5 48v30q0 70 -78 84q-16 3 -36 3q-15 0 -28.5 -1t-26 -4
t-20.5 -4.5t-20 -6.5t-15.5 -6.5t-17 -8t-14.5 -7.5l-25 60q8 5 22 13t58.5 21t90.5 13q55 1 98 -15q98 -38 98 -138v-343zM209 59q10 0 23.5 1.5t34 8t37.5 17t29 30.5t12 46v86q-110 -6 -173.5 -34.5t-61.5 -75.5q2 -38 29 -58.5t70 -20.5z" />
    <glyph glyph-name="Aogonek" unicode="&#x104;" horiz-adv-x="720" 
d="M100 0h-91l280 674h90l280 -674h-34q-26 -40 -31.5 -76t14 -55t62.5 -9l41 12v-48q-40 -19 -77 -23q-62 -6 -91.5 32t-14.5 93q8 30 40 74l-65 158h-339zM334 586l-142 -352h283z" />
    <glyph glyph-name="aogonek" unicode="&#x105;" horiz-adv-x="542" 
d="M343 0v55q-50 -66 -136 -66q-76 0 -126.5 38.5t-50.5 107.5q0 88 80 127t236 48v30q0 70 -78 84q-16 3 -36 3q-15 0 -28.5 -1t-26 -4t-20.5 -4.5t-20 -6.5t-15.5 -6.5t-17 -8t-14.5 -7.5l-25 60q8 5 22 13t58.5 21t90.5 13q55 1 98 -15q98 -38 98 -138v-343h-31
q-26 -40 -31.5 -76t14 -55t62.5 -9l41 12v-48q-40 -19 -77 -23q-62 -6 -91.5 32t-14.5 93q8 32 39 74zM209 59q10 0 23.5 1.5t34.5 8t38 17t29 30.5t12 46v86q-110 -6 -174 -34.5t-62 -75.5q2 -38 29 -58.5t70 -20.5z" />
    <glyph glyph-name="Cacute" unicode="&#x106;" horiz-adv-x="601" 
d="M40 337q0 150 91 249t243 99q133 0 197 -34l-25 -66q-63 23 -149 23q-70 0 -124 -23.5t-84 -63.5t-45 -86t-15 -98t15 -98t45 -86t84 -63.5t124 -23.5q84 0 151 23l23 -66q-64 -34 -197 -34q-152 0 -243 99t-91 249zM316 732l81 132h92l-105 -132h-68z" />
    <glyph glyph-name="cacute" unicode="&#x107;" horiz-adv-x="451" 
d="M35 242q0 120 64.5 187t178.5 67q93 0 143 -26l-19 -66q-54 19 -106 19q-89 0 -133.5 -51.5t-44.5 -129.5t44.5 -130t133.5 -52q50 0 106 20l19 -66q-52 -27 -143 -27q-114 0 -178.5 67.5t-64.5 187.5zM198 542l81 132h92l-105 -132h-68z" />
    <glyph glyph-name="Ccircumflex" unicode="&#x108;" horiz-adv-x="601" 
d="M40 337q0 150 91 249t243 99q133 0 197 -34l-25 -66q-63 23 -149 23q-70 0 -124 -23.5t-84 -63.5t-45 -86t-15 -98t15 -98t45 -86t84 -63.5t124 -23.5q84 0 151 23l23 -66q-64 -34 -197 -34q-152 0 -243 99t-91 249zM317 864h101l96 -132h-68l-78 85l-79 -85h-68z" />
    <glyph glyph-name="ccircumflex" unicode="&#x109;" horiz-adv-x="451" 
d="M35 242q0 120 64.5 187t178.5 67q93 0 143 -26l-19 -66q-54 19 -106 19q-89 0 -133.5 -51.5t-44.5 -129.5t44.5 -130t133.5 -52q50 0 106 20l19 -66q-52 -27 -143 -27q-114 0 -178.5 67.5t-64.5 187.5zM212 674h101l96 -132h-68l-78 85l-79 -85h-68z" />
    <glyph glyph-name="Cdotaccent" unicode="&#x10a;" horiz-adv-x="601" 
d="M40 337q0 150 91 249t243 99q133 0 197 -34l-25 -66q-63 23 -149 23q-70 0 -124 -23.5t-84 -63.5t-45 -86t-15 -98t15 -98t45 -86t84 -63.5t124 -23.5q84 0 151 23l23 -66q-64 -34 -197 -34q-152 0 -243 99t-91 249zM324 777v87h86v-87h-86z" />
    <glyph glyph-name="cdotaccent" unicode="&#x10b;" horiz-adv-x="451" 
d="M35 242q0 120 64.5 187t178.5 67q93 0 143 -26l-19 -66q-54 19 -106 19q-89 0 -133.5 -51.5t-44.5 -129.5t44.5 -130t133.5 -52q50 0 106 20l19 -66q-52 -27 -143 -27q-114 0 -178.5 67.5t-64.5 187.5zM219 587v87h86v-87h-86z" />
    <glyph glyph-name="Ccaron" unicode="&#x10c;" horiz-adv-x="601" 
d="M40 337q0 150 91 249t243 99q133 0 197 -34l-25 -66q-63 23 -149 23q-70 0 -124 -23.5t-84 -63.5t-45 -86t-15 -98t15 -98t45 -86t84 -63.5t124 -23.5q84 0 151 23l23 -66q-64 -34 -197 -34q-152 0 -243 99t-91 249zM416 732h-101l-96 132h68l78 -85l79 85h68z" />
    <glyph glyph-name="ccaron" unicode="&#x10d;" horiz-adv-x="451" 
d="M35 242q0 120 64.5 187t178.5 67q93 0 143 -26l-19 -66q-54 19 -106 19q-89 0 -133.5 -51.5t-44.5 -129.5t44.5 -130t133.5 -52q50 0 106 20l19 -66q-52 -27 -143 -27q-114 0 -178.5 67.5t-64.5 187.5zM308 542h-101l-96 132h68l78 -85l79 85h68z" />
    <glyph glyph-name="Dcaron" unicode="&#x10e;" horiz-adv-x="667" 
d="M303 0h-238v674h238q158 0 246 -85.5t88 -251.5t-88 -251.5t-246 -85.5zM151 76h156q107 0 176 65t69 196q0 135 -66.5 198t-181.5 63h-153v-522zM384 732h-101l-96 132h68l78 -85l79 85h68z" />
    <glyph glyph-name="dcaron" unicode="&#x10f;" horiz-adv-x="650" 
d="M399 416v258h86v-674h-85v55q-36 -66 -143 -66q-100 0 -161 64t-61 189t62 189.5t164 64.5q42 0 83 -20t55 -60zM277 425q-151 0 -151 -183q0 -78 31.5 -130t101.5 -52q23 0 43 3.5t44 13.5t38.5 33t14.5 57v156q-5 49 -47.5 75.5t-74.5 26.5zM517 508l87 166h89
l-114 -166h-62z" />
    <glyph glyph-name="Dcroat" unicode="&#x110;" horiz-adv-x="733" 
d="M111 674h238q158 0 246 -85.5t88 -251.5t-88 -251.5t-246 -85.5h-238v281h-101v77h101v316zM197 76h156q107 0 176 65t69 196q0 135 -66.5 198t-181.5 63h-153v-240h207v-77h-207v-205z" />
    <glyph glyph-name="dcroat" unicode="&#x111;" horiz-adv-x="545" 
d="M485 674v-59h58v-58h-58v-557h-85v55q-36 -66 -143 -66q-100 0 -161 64t-61 189t62 189.5t164 64.5q42 0 83 -20t55 -60v141h-156v58h156v59h86zM277 425q-151 0 -151 -183q0 -78 31.5 -130t101.5 -52q23 0 43 3.5t44 13.5t38.5 33t14.5 57v156q-5 49 -47.5 75.5
t-74.5 26.5z" />
    <glyph glyph-name="Emacron" unicode="&#x112;" horiz-adv-x="558" 
d="M513 0h-448v674h441v-76h-355v-219h314v-77h-314v-226h362v-76zM163 774v66h231v-66h-231z" />
    <glyph glyph-name="emacron" unicode="&#x113;" horiz-adv-x="528" 
d="M275 -13q-103 0 -171.5 69.5t-68.5 185.5q0 113 61.5 183.5t167.5 70.5q115 0 177 -76.5t50 -209.5h-370q0 -67 43.5 -109t118.5 -42h11h13t13.5 0.5t17 2t18 3.5t22 5.5t25 8.5t29.5 11l27 -63q-65 -40 -184 -40zM264 424q-59 0 -99.5 -44t-40.5 -99h284q-3 69 -42 106
t-102 37zM148 584v66h231v-66h-231z" />
    <glyph glyph-name="Ebreve" unicode="&#x114;" horiz-adv-x="558" 
d="M513 0h-448v674h441v-76h-355v-219h314v-77h-314v-226h362v-76zM278 744q-72 0 -105.5 39.5t-29.5 103.5h52q-1 -39 17.5 -59t66.5 -20t66.5 20t17.5 59h52q4 -64 -29.5 -103.5t-107.5 -39.5z" />
    <glyph glyph-name="ebreve" unicode="&#x115;" horiz-adv-x="528" 
d="M275 -13q-103 0 -171.5 69.5t-68.5 185.5q0 113 61.5 183.5t167.5 70.5q115 0 177 -76.5t50 -209.5h-370q0 -67 43.5 -109t118.5 -42h11h13t13.5 0.5t17 2t18 3.5t22 5.5t25 8.5t29.5 11l27 -63q-65 -40 -184 -40zM264 424q-59 0 -99.5 -44t-40.5 -99h284q-3 69 -42 106
t-102 37zM263 554q-72 0 -105.5 39.5t-29.5 103.5h52q-1 -39 17.5 -59t66.5 -20t66.5 20t17.5 59h52q4 -64 -29.5 -103.5t-107.5 -39.5z" />
    <glyph glyph-name="Edotaccent" unicode="&#x116;" horiz-adv-x="558" 
d="M513 0h-448v674h441v-76h-355v-219h314v-77h-314v-226h362v-76zM236 777v87h86v-87h-86z" />
    <glyph glyph-name="edotaccent" unicode="&#x117;" horiz-adv-x="528" 
d="M275 -13q-103 0 -171.5 69.5t-68.5 185.5q0 113 61.5 183.5t167.5 70.5q115 0 177 -76.5t50 -209.5h-370q0 -67 43.5 -109t118.5 -42h11h13t13.5 0.5t17 2t18 3.5t22 5.5t25 8.5t29.5 11l27 -63q-65 -40 -184 -40zM264 424q-59 0 -99.5 -44t-40.5 -99h284q-3 69 -42 106
t-102 37zM221 587v87h86v-87h-86z" />
    <glyph glyph-name="Eogonek" unicode="&#x118;" horiz-adv-x="558" 
d="M513 0h-1q-26 -40 -31.5 -76t14 -55t62.5 -9l41 12v-48q-40 -19 -77 -23q-62 -6 -91.5 32t-14.5 93q8 30 40 74h-390v674h441v-76h-355v-219h314v-77h-314v-226h362v-75v-1z" />
    <glyph glyph-name="eogonek" unicode="&#x119;" horiz-adv-x="528" 
d="M264 424q-59 0 -99.5 -44t-40.5 -99h284q-3 69 -42 106t-102 37zM382 -1q-53 -12 -107 -12q-103 0 -171.5 69.5t-68.5 185.5q0 113 61.5 183.5t167.5 70.5q115 0 177 -76.5t50 -209.5h-370q0 -67 43.5 -109t118.5 -42h11h13t13.5 0.5t17 2t18 3.5t22 5.5t25 8.5t29.5 11
l27 -63q-56 -68 -50 -124q4 -47 50 -47q12 0 26 4l41 12v-48q-40 -19 -77 -23q-62 -6 -91.5 32t-14.5 93q7 26 39 73z" />
    <glyph glyph-name="Ecaron" unicode="&#x11a;" horiz-adv-x="558" 
d="M329 732h-101l-96 132h68l78 -85l79 85h68zM513 0h-448v674h441v-76h-355v-219h314v-77h-314v-226h362v-76z" />
    <glyph glyph-name="ecaron" unicode="&#x11b;" horiz-adv-x="528" 
d="M275 -13q-103 0 -171.5 69.5t-68.5 185.5q0 113 61.5 183.5t167.5 70.5q115 0 177 -76.5t50 -209.5h-370q0 -67 43.5 -109t118.5 -42h11h13t13.5 0.5t17 2t18 3.5t22 5.5t25 8.5t29.5 11l27 -63q-65 -40 -184 -40zM264 424q-59 0 -99.5 -44t-40.5 -99h284q-3 69 -42 106
t-102 37zM314 542h-101l-96 132h68l78 -85l79 85h68z" />
    <glyph glyph-name="Gcircumflex" unicode="&#x11c;" horiz-adv-x="679" 
d="M555 281h-142v77h220v-324q-34 -21 -102 -33t-129 -12q-164 0 -263 99t-99 249t99 249t263 99q130 0 214 -53l-36 -70q-29 23 -75 35t-79 12q-76 0 -135 -23.5t-93.5 -63.5t-51.5 -87t-17 -98q0 -108 74.5 -189.5t210.5 -81.5q78 0 141 22v193zM336 864h101l96 -132h-68
l-78 85l-79 -85h-68z" />
    <glyph glyph-name="gcircumflex" unicode="&#x11d;" horiz-adv-x="545" 
d="M277 60q19 0 44.5 6.5t51.5 28.5t26 55v167q0 34 -14.5 57t-38.5 33.5t-44.5 14t-42.5 3.5q-69 0 -101 -52.5t-32 -130.5q0 -182 151 -182zM400 -28l-1 83q-15 -34 -55 -50t-83 -16q-103 0 -164.5 64t-61.5 189q0 124 61 189t161 65q10 0 22.5 -2t37.5 -8t47.5 -24.5
t35.5 -45.5v68h85v-527q0 -83 -62.5 -120t-153.5 -37q-55 0 -105 11.5t-70 27.5l21 61q56 -34 147 -34q47 0 77 9.5t42 28t15.5 33t3.5 35.5zM222 674h101l96 -132h-68l-78 85l-79 -85h-68z" />
    <glyph glyph-name="Gbreve" unicode="&#x11e;" horiz-adv-x="679" 
d="M555 281h-142v77h220v-324q-34 -21 -102 -33t-129 -12q-164 0 -263 99t-99 249t99 249t263 99q130 0 214 -53l-36 -70q-29 23 -75 35t-79 12q-76 0 -135 -23.5t-93.5 -63.5t-51.5 -87t-17 -98q0 -108 74.5 -189.5t210.5 -81.5q78 0 141 22v193zM382 744
q-72 0 -105.5 39.5t-29.5 103.5h52q-1 -39 17.5 -59t66.5 -20t66.5 20t17.5 59h52q4 -64 -29.5 -103.5t-107.5 -39.5z" />
    <glyph glyph-name="gbreve" unicode="&#x11f;" horiz-adv-x="545" 
d="M277 60q19 0 44.5 6.5t51.5 28.5t26 55v167q0 34 -14.5 57t-38.5 33.5t-44.5 14t-42.5 3.5q-69 0 -101 -52.5t-32 -130.5q0 -182 151 -182zM400 -28l-1 83q-15 -34 -55 -50t-83 -16q-103 0 -164.5 64t-61.5 189q0 124 61 189t161 65q10 0 22.5 -2t37.5 -8t47.5 -24.5
t35.5 -45.5v68h85v-527q0 -83 -62.5 -120t-153.5 -37q-55 0 -105 11.5t-70 27.5l21 61q56 -34 147 -34q47 0 77 9.5t42 28t15.5 33t3.5 35.5zM271 554q-72 0 -105.5 39.5t-29.5 103.5h52q-1 -39 17.5 -59t66.5 -20t66.5 20t17.5 59h52q4 -64 -29.5 -103.5t-107.5 -39.5z" />
    <glyph glyph-name="Gdotaccent" unicode="&#x120;" horiz-adv-x="679" 
d="M555 281h-142v77h220v-324q-34 -21 -102 -33t-129 -12q-164 0 -263 99t-99 249t99 249t263 99q130 0 214 -53l-36 -70q-29 23 -75 35t-79 12q-76 0 -135 -23.5t-93.5 -63.5t-51.5 -87t-17 -98q0 -108 74.5 -189.5t210.5 -81.5q78 0 141 22v193zM335 777v87h86v-87h-86z
" />
    <glyph glyph-name="gdotaccent" unicode="&#x121;" horiz-adv-x="545" 
d="M277 60q19 0 44.5 6.5t51.5 28.5t26 55v167q0 34 -14.5 57t-38.5 33.5t-44.5 14t-42.5 3.5q-69 0 -101 -52.5t-32 -130.5q0 -182 151 -182zM400 -28l-1 83q-15 -34 -55 -50t-83 -16q-103 0 -164.5 64t-61.5 189q0 124 61 189t161 65q10 0 22.5 -2t37.5 -8t47.5 -24.5
t35.5 -45.5v68h85v-527q0 -83 -62.5 -120t-153.5 -37q-55 0 -105 11.5t-70 27.5l21 61q56 -34 147 -34q47 0 77 9.5t42 28t15.5 33t3.5 35.5zM229 587v87h86v-87h-86z" />
    <glyph glyph-name="Gcommaaccent" unicode="&#x122;" horiz-adv-x="679" 
d="M286 -200l70 147h90l-94 -147h-66zM555 281h-142v77h220v-324q-34 -21 -102 -33t-129 -12q-164 0 -263 99t-99 249t99 249t263 99q130 0 214 -53l-36 -70q-29 23 -75 35t-79 12q-76 0 -135 -23.5t-93.5 -63.5t-51.5 -87t-17 -98q0 -108 74.5 -189.5t210.5 -81.5
q78 0 141 22v193z" />
    <glyph glyph-name="gcommaaccent" unicode="&#x123;" horiz-adv-x="545" 
d="M277 60q19 0 44.5 6.5t51.5 28.5t26 55v167q0 34 -14.5 57t-38.5 33.5t-44.5 14t-42.5 3.5q-69 0 -101 -52.5t-32 -130.5q0 -182 151 -182zM400 -28l-1 83q-15 -34 -55 -50t-83 -16q-103 0 -164.5 64t-61.5 189q0 124 61 189t161 65q10 0 22.5 -2t37.5 -8t47.5 -24.5
t35.5 -45.5v68h85v-527q0 -83 -62.5 -120t-153.5 -37q-55 0 -105 11.5t-70 27.5l21 61q56 -34 147 -34q47 0 77 9.5t42 28t15.5 33t3.5 35.5zM385 674l-81 -132h-92l105 132h68z" />
    <glyph glyph-name="Hcircumflex" unicode="&#x124;" horiz-adv-x="656" 
d="M505 311h-354v-311h-86v674h86v-286h354v286h86v-674h-86v311zM277 864h101l96 -132h-68l-78 85l-79 -85h-68z" />
    <glyph glyph-name="hcircumflex" unicode="&#x125;" horiz-adv-x="541" 
d="M48 850h101l96 -132h-68l-78 85l-79 -85h-68zM481 286v-286h-86v286q0 139 -109 139q-18 0 -38 -5t-45 -18t-41 -42t-16 -71v-289h-86v674h86v-258q49 80 152 80q90 0 136.5 -50t46.5 -160z" />
    <glyph glyph-name="Hbar" unicode="&#x126;" horiz-adv-x="672" 
d="M10 507v56h61v111h86v-111h354v111h86v-111h65v-56h-65v-507h-86v311h-354v-311h-86v507h-61zM157 388h354v119h-354v-119z" />
    <glyph glyph-name="hbar" unicode="&#x127;" horiz-adv-x="550" 
d="M16 559v56h53v59h86v-59h171v-56h-171v-143q46 80 152 80q90 0 136.5 -50t46.5 -160v-286h-86v286q0 139 -109 139q-18 0 -38 -5t-45 -18t-41 -42t-16 -71v-289h-86v559h-53z" />
    <glyph glyph-name="Itilde" unicode="&#x128;" horiz-adv-x="236" 
d="M75 0v674h86v-674h-86zM62 864q20 0 57 -18t62.5 -18t39.5 36h41q-6 -102 -91 -102q-21 0 -77 23q-32 12 -49 6t-29 -35h-41q5 50 22.5 79t64.5 29z" />
    <glyph glyph-name="itilde" unicode="&#x129;" horiz-adv-x="206" 
d="M60 0l1 484h85v-484h-86zM47 674q20 0 57 -18t62.5 -18t39.5 36h41q-6 -102 -91 -102q-21 0 -77 23q-32 12 -49 6t-29 -35h-41q5 50 22.5 79t64.5 29z" />
    <glyph glyph-name="Imacron" unicode="&#x12a;" horiz-adv-x="206" 
d="M60 0v674h86v-674h-86zM-12 774v66h231v-66h-231z" />
    <glyph glyph-name="imacron" unicode="&#x12b;" horiz-adv-x="206" 
d="M60 0l1 484h85v-484h-86zM-12 584v66h231v-66h-231z" />
    <glyph glyph-name="Ibreve" unicode="&#x12c;" horiz-adv-x="236" 
d="M75 0v674h86v-674h-86zM118 721q-72 0 -105.5 39.5t-29.5 103.5h52q-1 -39 17.5 -59t66.5 -20t66.5 20t17.5 59h52q4 -64 -29.5 -103.5t-107.5 -39.5z" />
    <glyph glyph-name="ibreve" unicode="&#x12d;" horiz-adv-x="206" 
d="M60 0l1 484h85v-484h-86zM102 554q-72 0 -105.5 39.5t-29.5 103.5h52q-1 -39 17.5 -59t66.5 -20t66.5 20t17.5 59h52q4 -64 -29.5 -103.5t-107.5 -39.5z" />
    <glyph glyph-name="Iogonek" unicode="&#x12e;" horiz-adv-x="206" 
d="M60 0v674h86v-674h-29q-26 -40 -31.5 -76t14 -55t62.5 -9l41 12v-48q-40 -19 -77 -23q-62 -6 -91.5 32t-14.5 93q8 30 40 74z" />
    <glyph glyph-name="iogonek" unicode="&#x12f;" horiz-adv-x="206" 
d="M60 0v484h86v-484h-28q-26 -40 -31.5 -76t14 -55t62.5 -9l41 12v-48q-40 -19 -77 -23q-62 -6 -91.5 32t-14.5 93q7 28 39 74zM60 587v87h86v-87h-86z" />
    <glyph glyph-name="Idotaccent" unicode="&#x130;" horiz-adv-x="236" 
d="M75 0v674h86v-674h-86zM74 777v87h86v-87h-86z" />
    <glyph glyph-name="dotlessi" unicode="&#x131;" horiz-adv-x="206" 
d="M60 0l1 484h85v-484h-86z" />
    <glyph glyph-name="IJ" unicode="&#x132;" horiz-adv-x="620" 
d="M60 0v674h86v-674h-86zM216 24l20 70q38 -16 56 -21q88 -22 136 3q26 14 35 38.5t9 74.5v485h83v-491q0 -57 -17 -97.5t-43 -61t-62 -29t-69 -7t-69 9.5q-47 10 -79 26z" />
    <glyph glyph-name="ij" unicode="&#x133;" horiz-adv-x="427" 
d="M60 0v484h86v-484h-86zM60 587v87h86v-87h-86zM367 484l-1 -533q0 -44 -12 -75t-26 -45.5t-36.5 -22t-33 -8t-26.5 -0.5h-4q-43 0 -72 15l10 63q28 -9 48.5 -10.5t32.5 4.5t19.5 13t10.5 22t3.5 23.5t0.5 24.5v529h86zM281 587v87h86v-87h-86z" />
    <glyph glyph-name="Jcircumflex" unicode="&#x134;" horiz-adv-x="414" 
d="M10 24l20 70q38 -16 56 -21q88 -22 136 3q26 14 35 38.5t9 74.5v485h83v-491q0 -57 -17 -97.5t-43 -61t-62 -29t-69 -7t-69 9.5q-47 10 -79 26zM255 864h101l96 -132h-68l-78 85l-79 -85h-68z" />
    <glyph glyph-name="jcircumflex" unicode="&#x135;" horiz-adv-x="221" 
d="M161 484l-1 -533q0 -44 -12 -75t-26 -45.5t-36.5 -22t-33 -8t-26.5 -0.5h-4q-43 0 -72 15l10 63q28 -9 48.5 -10.5t32.5 4.5t19.5 13t10.5 22t3.5 23.5t0.5 24.5v529h86zM60 674h101l96 -132h-68l-78 85l-79 -85h-68z" />
    <glyph glyph-name="Kcommaaccent" unicode="&#x136;" horiz-adv-x="585" 
d="M575 0h-107l-231 309l-86 -101v-208h-86v674h86v-355l277 355h103l-242 -302zM198 -200l70 147h90l-94 -147h-66z" />
    <glyph glyph-name="kcedilla" unicode="&#x137;" horiz-adv-x="480" 
d="M262 304l213 -304h-99l-172 257l-58 -59v-198h-86v674h86v-377l191 187h106zM203 10h56q15 -17 29.5 -42.5t18.5 -41.5q15 -55 -14.5 -93t-91.5 -32q-37 4 -77 23v48l41 -12q45 -11 64 10.5t10.5 60.5t-36.5 79z" />
    <glyph glyph-name="kgreenlandic" unicode="&#x138;" horiz-adv-x="466" 
d="M252 264l223 -264h-103l-175 204l-51 -59v-145h-86v484h86v-227l193 227h100z" />
    <glyph glyph-name="Lacute" unicode="&#x139;" horiz-adv-x="523" 
d="M151 674v-598h332v-77h-418v675h86zM68 732l81 132h92l-105 -132h-68z" />
    <glyph glyph-name="lacute" unicode="&#x13a;" horiz-adv-x="206" 
d="M60 0v674h86v-674h-86zM60 732l81 132h92l-105 -132h-68z" />
    <glyph glyph-name="Lcommaaccent" unicode="&#x13b;" horiz-adv-x="523" 
d="M151 675v-599h332v-76h-418v675h86zM154 -200l70 147h90l-94 -147h-66z" />
    <glyph glyph-name="lcommaaccent" unicode="&#x13c;" horiz-adv-x="206" 
d="M60 0v674h86v-674h-86zM-18 -200l70 147h90l-94 -147h-66z" />
    <glyph glyph-name="Lcaron" unicode="&#x13d;" horiz-adv-x="523" 
d="M151 674v-598h332v-77h-418v675h86zM243 508l87 166h89l-114 -166h-62z" />
    <glyph glyph-name="lcaron" unicode="&#x13e;" horiz-adv-x="289" 
d="M60 0v674h86v-674h-86zM181 508l87 166h89l-114 -166h-62z" />
    <glyph glyph-name="Ldot" unicode="&#x13f;" horiz-adv-x="523" 
d="M151 674v-598h332v-77h-418v675h86zM325 388v94h94v-94h-94z" />
    <glyph glyph-name="ldot" unicode="&#x140;" horiz-adv-x="400" 
d="M60 0v674h86v-674h-86zM256 264v94h94v-94h-94z" />
    <glyph glyph-name="Lslash" unicode="&#x141;" horiz-adv-x="578" 
d="M120 -1v260l-115 -80v73l115 76v346h86v-287l114 79v-74l-114 -75v-241h332v-77h-418z" />
    <glyph glyph-name="lslash" unicode="&#x142;" horiz-adv-x="343" 
d="M215 398v-398h-86v340l-115 -80v73l115 76v265h86v-206l114 79v-74z" />
    <glyph glyph-name="Nacute" unicode="&#x143;" horiz-adv-x="664" 
d="M469 0l-318 594v-594h-86v674h139l309 -591v591h86v-674h-130zM280 732l81 132h92l-105 -132h-68z" />
    <glyph glyph-name="nacute" unicode="&#x144;" horiz-adv-x="531" 
d="M179 542l81 132h92l-105 -132h-68zM476 284v-284h-86v284q0 141 -109 141q-17 0 -37.5 -5.5t-45 -18.5t-41 -42.5t-16.5 -71.5v-287h-86v484h80v-90q19 56 61.5 78.5t86.5 22.5q193 0 193 -211z" />
    <glyph glyph-name="Ncommaaccent" unicode="&#x145;" horiz-adv-x="664" 
d="M469 0l-318 594v-594h-86v674h139l309 -591v591h86v-674h-130zM219 -200l70 147h90l-94 -147h-66z" />
    <glyph glyph-name="ncommaaccent" unicode="&#x146;" horiz-adv-x="531" 
d="M166 -200l70 147h90l-94 -147h-66zM476 284v-284h-86v284q0 140 -109 140q-13 0 -28 -2.5t-36 -11.5t-37 -23t-27.5 -40t-11.5 -60v-287h-86v484h80v-90q13 39 41.5 63t54 30.5t52.5 6.5q193 0 193 -210z" />
    <glyph glyph-name="Ncaron" unicode="&#x147;" horiz-adv-x="664" 
d="M469 0l-318 594v-594h-86v674h139l309 -591v591h86v-674h-130zM382 732h-101l-96 132h68l78 -85l79 85h68z" />
    <glyph glyph-name="ncaron" unicode="&#x148;" horiz-adv-x="531" 
d="M316 542h-101l-96 132h68l78 -85l79 85h68zM476 284v-284h-86v284q0 141 -109 141q-17 0 -37.5 -5.5t-45 -18.5t-41 -42.5t-16.5 -71.5v-287h-86v484h80v-76q20 47 63 67.5t85 20.5q193 0 193 -212z" />
    <glyph glyph-name="Eng" unicode="&#x14a;" horiz-adv-x="664" 
d="M520 0l-369 594v-594h-86v674h139l309 -525v525h86v-674q0 -83 -51.5 -141.5t-134.5 -58.5q-25 0 -58 12l9 68q62 -23 110 16t46 104z" />
    <glyph glyph-name="eng" unicode="&#x14b;" horiz-adv-x="531" 
d="M476 284v-284q0 -200 -187 -200q-31 0 -64 12l9 68q31 -6 55.5 -5.5t40.5 4.5t27.5 14t18 20t9.5 26.5t4 29.5t1 32v283q0 140 -109 140q-13 0 -28 -2.5t-36 -11.5t-37 -23t-27.5 -40t-11.5 -60v-287h-86v484h80v-90q16 54 59.5 77.5t88.5 23.5q193 0 193 -211z" />
    <glyph glyph-name="Omacron" unicode="&#x14c;" horiz-adv-x="722" 
d="M361 -11q-149 0 -235 92.5t-86 255.5t86 255.5t235 92.5t235 -92.5t86 -255.5t-86 -255.5t-235 -92.5zM361 611q-112 0 -171 -78t-59 -196q0 -122 59 -198t171 -76t171 76t59 198q0 118 -59 196t-171 78zM245 774v66h231v-66h-231z" />
    <glyph glyph-name="omacron" unicode="&#x14d;" horiz-adv-x="537" 
d="M35 242q0 120 62 187t171 67q108 0 171 -67.5t63 -186.5t-63 -187t-171 -68q-109 0 -171 67.5t-62 187.5zM417 242q0 74 -40.5 129.5t-108.5 55.5q-70 0 -109 -54.5t-39 -130.5q0 -75 39 -130.5t109 -55.5q68 0 108.5 55.5t40.5 130.5zM153 584v66h231v-66h-231z" />
    <glyph glyph-name="Obreve" unicode="&#x14e;" horiz-adv-x="722" 
d="M361 -11q-149 0 -235 92.5t-86 255.5t86 255.5t235 92.5t235 -92.5t86 -255.5t-86 -255.5t-235 -92.5zM361 611q-112 0 -171 -78t-59 -196q0 -122 59 -198t171 -76t171 76t59 198q0 118 -59 196t-171 78zM360 744q-72 0 -105.5 39.5t-29.5 103.5h52q-1 -39 17.5 -59
t66.5 -20t66.5 20t17.5 59h52q4 -64 -29.5 -103.5t-107.5 -39.5z" />
    <glyph glyph-name="obreve" unicode="&#x14f;" horiz-adv-x="537" 
d="M35 242q0 120 62 187t171 67q108 0 171 -67.5t63 -186.5t-63 -187t-171 -68q-109 0 -171 67.5t-62 187.5zM417 242q0 74 -40.5 129.5t-108.5 55.5q-70 0 -109 -54.5t-39 -130.5q0 -75 39 -130.5t109 -55.5q68 0 108.5 55.5t40.5 130.5zM267 554q-72 0 -105.5 39.5
t-29.5 103.5h52q-1 -39 17.5 -59t66.5 -20t66.5 20t17.5 59h52q4 -64 -29.5 -103.5t-107.5 -39.5z" />
    <glyph glyph-name="Ohungarumlaut" unicode="&#x150;" horiz-adv-x="722" 
d="M361 -11q-149 0 -235 92.5t-86 255.5t86 255.5t235 92.5t235 -92.5t86 -255.5t-86 -255.5t-235 -92.5zM361 611q-112 0 -171 -78t-59 -196q0 -122 59 -198t171 -76t171 76t59 198q0 118 -59 196t-171 78zM242 732l81 132h92l-105 -132h-68zM402 732l81 132h92l-105 -132
h-68z" />
    <glyph glyph-name="ohungarumlaut" unicode="&#x151;" horiz-adv-x="537" 
d="M35 242q0 120 62 187t171 67q108 0 171 -67.5t63 -186.5t-63 -187t-171 -68q-109 0 -171 67.5t-62 187.5zM417 242q0 74 -40.5 129.5t-108.5 55.5q-70 0 -109 -54.5t-39 -130.5q0 -75 39 -130.5t109 -55.5q68 0 108.5 55.5t40.5 130.5zM133 542l81 132h92l-105 -132h-68z
M293 542l81 132h92l-105 -132h-68z" />
    <glyph glyph-name="OE" unicode="&#x152;" horiz-adv-x="1070" 
d="M351 611q-112 0 -171 -78t-59 -196q0 -122 59 -198t171 -76t171 76t59 198q0 118 -59 196t-171 78zM570 0v94q-29 -48 -88 -76.5t-131 -28.5q-149 0 -235 92.5t-86 255.5t86 255.5t235 92.5q74 0 131.5 -27t87.5 -80v96h441v-76h-355v-219h329v-77h-329v-226h362v-76
h-448z" />
    <glyph glyph-name="oe" unicode="&#x153;" horiz-adv-x="887" 
d="M638 -13q-61 0 -113.5 29.5t-74.5 77.5q-20 -50 -72.5 -78.5t-119.5 -28.5q-109 0 -171 67.5t-62 187.5t62 187t171 67q134 0 191 -118q18 52 70 85t114 33q115 0 177 -76.5t50 -209.5h-366v-8q2 -65 43.5 -104t114.5 -39q75 0 151 32l25 -64q-65 -40 -190 -40zM407 242
q0 74 -40.5 129.5t-108.5 55.5q-70 0 -109 -54.5t-39 -130.5q0 -75 39.5 -130.5t108.5 -55.5q68 0 108.5 55.5t40.5 130.5zM633 424q-59 0 -97.5 -44t-38.5 -99h280q-3 69 -42 106t-102 37z" />
    <glyph glyph-name="Racute" unicode="&#x154;" horiz-adv-x="607" 
d="M217 732l81 132h92l-105 -132h-68zM421 295q53 -8 81 -85l80 -210h-92l-82 212q-13 31 -33 45t-57 14h-167v-271h-86v674h287q60 0 102 -19t63 -52t29.5 -66.5t8.5 -71.5q0 -11 -0.5 -22t-8 -36.5t-20 -45t-40 -39t-65.5 -27.5zM151 347h204q62 0 88.5 38t26.5 79
q0 57 -30 95.5t-95 38.5h-194v-251z" />
    <glyph glyph-name="racute" unicode="&#x155;" horiz-adv-x="318" 
d="M70 542l81 132h92l-105 -132h-68zM306 495v-79h-47q-46 0 -77 -30t-31 -89v-297h-86v484h80v-79q14 43 49 66.5t77 23.5h35z" />
    <glyph glyph-name="Rcommaaccent" unicode="&#x156;" horiz-adv-x="607" 
d="M218 -200l70 147h90l-94 -147h-66zM421 295q53 -8 81 -85l80 -210h-92l-82 212q-13 31 -33 45t-57 14h-167v-271h-86v674h287q60 0 102 -19t63 -52t29.5 -66.5t8.5 -71.5q0 -11 -0.5 -22t-8 -36.5t-20 -45t-40 -39t-65.5 -27.5zM151 347h204q62 0 88.5 38t26.5 79
q0 57 -30 95.5t-95 38.5h-194v-251z" />
    <glyph glyph-name="rcommaaccent" unicode="&#x157;" horiz-adv-x="318" 
d="M306 495v-79h-47q-46 0 -77 -30t-31 -89v-297h-86v484h80v-79q14 43 49 66.5t77 23.5h35zM-5 -200l70 147h90l-94 -147h-66z" />
    <glyph glyph-name="Rcaron" unicode="&#x158;" horiz-adv-x="607" 
d="M354 732h-101l-96 132h68l78 -85l79 85h68zM421 295q53 -8 81 -85l80 -210h-92l-82 212q-13 31 -33 45t-57 14h-167v-271h-86v674h287q60 0 102 -19t63 -52t29.5 -66.5t8.5 -71.5q0 -11 -0.5 -22t-8 -36.5t-20 -45t-40 -39t-65.5 -27.5zM151 347h204q62 0 88.5 38
t26.5 79q0 57 -30 95.5t-95 38.5h-194v-251z" />
    <glyph glyph-name="rcaron" unicode="&#x159;" horiz-adv-x="343" 
d="M331 481l-17 -76q-21 11 -55 11q-46 0 -77 -30t-31 -89v-297h-86v484h80v-71q22 47 52.5 65t73.5 18q32 0 60 -15zM236 542h-101l-96 132h68l78 -85l79 85h68z" />
    <glyph glyph-name="Sacute" unicode="&#x15a;" horiz-adv-x="562" 
d="M402 665q56 -20 98 -54l-33 -63q-29 24 -78 42t-101 22.5t-95 -17.5t-56 -71q-3 -25 3.5 -43t24.5 -31t29 -18.5t37 -15.5q7 -3 10 -4l169 -66q52 -19 82 -52t36 -69t1.5 -67t-16.5 -58q-34 -76 -132.5 -101t-225.5 13q-75 24 -125 69l38 64q33 -28 84.5 -49.5
t106.5 -29.5t105.5 10.5t74.5 66.5q15 44 -6.5 76t-62.5 48l-195 75q-143 54 -126 188q15 93 116 134.5t237 0.5zM194 732l81 132h92l-105 -132h-68z" />
    <glyph glyph-name="sacute" unicode="&#x15b;" horiz-adv-x="430" 
d="M318 106q3 9 3.5 17.5t-1 14.5t-5 12t-6.5 9.5t-8.5 7t-8 5t-7.5 3.5l-5 2l-146 57q-108 48 -90 150q11 68 85.5 97.5t178.5 -0.5q36 -12 74 -36l-35 -59q-35 25 -88.5 34t-95 -5t-41.5 -50q0 -17 4.5 -27t20.5 -19.5t32 -15.5t56 -20.5t75 -29.5q39 -16 61 -40.5
t26 -51.5t1 -50t-12 -43q-24 -55 -98 -73t-166 9q-55 18 -92 51l36 60q28 -24 80.5 -40.5t104.5 -10.5t67 42zM131 544l80 130h87l-107 -130h-60z" />
    <glyph glyph-name="Scircumflex" unicode="&#x15c;" horiz-adv-x="562" 
d="M402 665q56 -20 98 -54l-33 -63q-29 24 -78 42t-101 22.5t-95 -17.5t-56 -71q-3 -25 3.5 -43t24.5 -31t29 -18.5t37 -15.5q7 -3 10 -4l169 -66q52 -19 82 -52t36 -69t1.5 -67t-16.5 -58q-34 -76 -132.5 -101t-225.5 13q-75 24 -125 69l38 64q33 -28 84.5 -49.5
t106.5 -29.5t105.5 10.5t74.5 66.5q15 44 -6.5 76t-62.5 48l-195 75q-143 54 -126 188q15 93 116 134.5t237 0.5zM230 864h101l96 -132h-68l-78 85l-79 -85h-68z" />
    <glyph glyph-name="scircumflex" unicode="&#x15d;" horiz-adv-x="430" 
d="M318 106q3 9 3.5 17.5t-1 14.5t-5 12t-6.5 9.5t-8.5 7t-8 5t-7.5 3.5l-5 2l-146 57q-108 48 -90 150q11 68 85.5 97.5t178.5 -0.5q36 -12 74 -36l-35 -59q-35 25 -88.5 34t-95 -5t-41.5 -50q0 -17 4.5 -27t20.5 -19.5t32 -15.5t56 -20.5t75 -29.5q39 -16 61 -40.5
t26 -51.5t1 -50t-12 -43q-24 -55 -98 -73t-166 9q-55 18 -92 51l36 60q28 -24 80.5 -40.5t104.5 -10.5t67 42zM164 674h101l96 -132h-68l-78 85l-79 -85h-68z" />
    <glyph glyph-name="Scedilla" unicode="&#x15e;" horiz-adv-x="562" 
d="M332 -9q24 -33 33 -65q15 -55 -14.5 -93t-91.5 -32q-37 4 -77 23v48l41 -12q61 -15 73.5 29t-22.5 101q-61 3 -119 22q-75 24 -125 69l38 64q33 -28 84.5 -49.5t106.5 -29.5t105.5 10.5t74.5 66.5q15 44 -6.5 76t-62.5 48l-195 75q-143 54 -126 188q15 93 116 134.5
t237 0.5q56 -20 98 -54l-33 -63q-29 24 -78 42t-101 22.5t-95 -17.5t-56 -71q-3 -25 3.5 -43t24.5 -31t29 -18.5t37 -15.5q7 -3 10 -4l169 -66q52 -19 82 -52t36 -69t1.5 -67t-16.5 -58q-43 -96 -181 -109z" />
    <glyph glyph-name="scedilla" unicode="&#x15f;" horiz-adv-x="430" 
d="M259 -10q24 -34 33 -64q15 -55 -14.5 -93t-91.5 -32q-37 4 -77 23v48l41 -12q61 -15 73.5 28t-22.5 100q-42 5 -79 16q-55 18 -92 51l36 60q28 -24 80.5 -40.5t104.5 -10.5t67 42q3 9 3.5 17.5t-1 14.5t-5 12t-6.5 9.5t-8.5 7t-8 5t-7.5 3.5l-5 2l-146 57
q-108 48 -90 150q11 68 85.5 97.5t178.5 -0.5q36 -12 74 -36l-35 -59q-35 25 -88.5 34t-95 -5t-41.5 -50q0 -17 4.5 -27t20.5 -19.5t32 -15.5t56 -20.5t75 -29.5q39 -16 61 -40.5t26 -51.5t1 -50t-12 -43q-31 -67 -127 -78z" />
    <glyph glyph-name="Scaron" unicode="&#x160;" horiz-adv-x="562" 
d="M402 665q56 -20 98 -54l-33 -63q-29 24 -78 42t-101 22.5t-95 -17.5t-56 -71q-3 -25 3.5 -43t24.5 -31t29 -18.5t37 -15.5q7 -3 10 -4l169 -66q52 -19 82 -52t36 -69t1.5 -67t-16.5 -58q-34 -76 -132.5 -101t-225.5 13q-75 24 -125 69l38 64q33 -28 84.5 -49.5
t106.5 -29.5t105.5 10.5t74.5 66.5q15 44 -6.5 76t-62.5 48l-195 75q-143 54 -126 188q15 93 116 134.5t237 0.5zM331 732h-101l-96 132h68l78 -85l79 85h68z" />
    <glyph glyph-name="scaron" unicode="&#x161;" horiz-adv-x="430" 
d="M318 106q3 9 3.5 17.5t-1 14.5t-5 12t-6.5 9.5t-8.5 7t-8 5t-7.5 3.5l-5 2l-146 57q-108 48 -90 150q11 68 85.5 97.5t178.5 -0.5q36 -12 74 -36l-35 -59q-35 25 -88.5 34t-95 -5t-41.5 -50q0 -17 4.5 -27t20.5 -19.5t32 -15.5t56 -20.5t75 -29.5q39 -16 61 -40.5
t26 -51.5t1 -50t-12 -43q-24 -55 -98 -73t-166 9q-55 18 -92 51l36 60q28 -24 80.5 -40.5t104.5 -10.5t67 42zM265 542h-101l-96 132h68l78 -85l79 85h68z" />
    <glyph glyph-name="Tcommaaccent" unicode="&#x162;" horiz-adv-x="530" 
d="M155 -200l70 147h90l-94 -147h-66zM525 598h-217v-598h-86v598h-217v76h520v-76z" />
    <glyph glyph-name="tcommaaccent" unicode="&#x163;" horiz-adv-x="310" 
d="M56 -200l70 147h90l-94 -147h-66zM80 415h-68v69h68v123h85v-123h112v-69h-112v-271q0 -115 118 -76l7 -63q-31 -16 -72 -16h-4h-17t-22.5 2.5t-26.5 8t-24.5 16.5t-22.5 26.5t-15 41t-6 57.5v274z" />
    <glyph glyph-name="Tcaron" unicode="&#x164;" horiz-adv-x="530" 
d="M525 598h-217v-598h-86v598h-217v76h520v-76zM315 732h-101l-96 132h68l78 -85l79 85h68z" />
    <glyph glyph-name="tcaron" unicode="&#x165;" horiz-adv-x="360" 
d="M80 415h-68v69h68v123h85v-123h112v-69h-112v-271q0 -115 118 -76l7 -63q-31 -16 -72 -16h-4h-17t-22.5 2.5t-26.5 8t-24.5 16.5t-22.5 26.5t-15 41t-6 57.5v274zM218 554l87 166h89l-114 -166h-62z" />
    <glyph glyph-name="Tbar" unicode="&#x166;" horiz-adv-x="530" 
d="M525 598h-217v-220h122v-56h-122v-322h-86v322h-123v56h123v220h-217v76h520v-76z" />
    <glyph glyph-name="tbar" unicode="&#x167;" horiz-adv-x="310" 
d="M80 234h-54v56h54v125h-68v69h68v123h85v-123h112v-69h-112v-126l92 1v-56h-92v-90q0 -115 118 -76l7 -63q-31 -16 -72 -16h-4h-17t-22.5 2.5t-26.5 8t-24.5 16.5t-22.5 26.5t-15 41t-6 57.5v93z" />
    <glyph glyph-name="Utilde" unicode="&#x168;" horiz-adv-x="684" 
d="M342 -13q-135 0 -206 69t-71 226v392h87v-386q0 -118 45 -173.5t145 -55.5t145 55.5t45 173.5v386h87v-392q0 -157 -71 -226t-206 -69zM285 864q20 0 57 -18t62.5 -18t39.5 36h41q-6 -102 -91 -102q-21 0 -77 23q-32 12 -49 6t-29 -35h-41q5 50 22.5 79t64.5 29z" />
    <glyph glyph-name="utilde" unicode="&#x169;" horiz-adv-x="541" 
d="M60 200v284h86v-284q0 -142 109 -142q15 0 31.5 3t44.5 13.5t46 38t18 69.5v302h86v-484h-80v68q-22 -43 -69 -62t-79 -19q-193 0 -193 213zM214 674q20 0 57 -18t62.5 -18t39.5 36h41q-6 -102 -91 -102q-21 0 -77 23q-32 12 -49 6t-29 -35h-41q5 50 22.5 79t64.5 29z
" />
    <glyph glyph-name="Umacron" unicode="&#x16a;" horiz-adv-x="684" 
d="M342 -13q-135 0 -206 69t-71 226v392h87v-386q0 -118 45 -173.5t145 -55.5t145 55.5t45 173.5v386h87v-392q0 -157 -71 -226t-206 -69zM226 774v66h231v-66h-231z" />
    <glyph glyph-name="umacron" unicode="&#x16b;" horiz-adv-x="541" 
d="M60 200v284h86v-284q0 -142 109 -142q15 0 31.5 3t44.5 13.5t46 38t18 69.5v302h86v-484h-80v68q-22 -43 -69 -62t-79 -19q-193 0 -193 213zM155 584v66h231v-66h-231z" />
    <glyph glyph-name="Ubreve" unicode="&#x16c;" horiz-adv-x="684" 
d="M342 -13q-135 0 -206 69t-71 226v392h87v-386q0 -118 45 -173.5t145 -55.5t145 55.5t45 173.5v386h87v-392q0 -157 -71 -226t-206 -69zM341 744q-72 0 -105.5 39.5t-29.5 103.5h52q-1 -39 17.5 -59t66.5 -20t66.5 20t17.5 59h52q4 -64 -29.5 -103.5t-107.5 -39.5z" />
    <glyph glyph-name="ubreve" unicode="&#x16d;" horiz-adv-x="541" 
d="M60 200v284h86v-284q0 -142 109 -142q15 0 31.5 3t44.5 13.5t46 38t18 69.5v302h86v-484h-80v68q-22 -43 -69 -62t-79 -19q-193 0 -193 213zM269 554q-72 0 -105.5 39.5t-29.5 103.5h52q-1 -39 17.5 -59t66.5 -20t66.5 20t17.5 59h52q4 -64 -29.5 -103.5t-107.5 -39.5z
" />
    <glyph glyph-name="Uring" unicode="&#x16e;" horiz-adv-x="684" 
d="M342 -13q-135 0 -206 69t-71 226v392h87v-386q0 -118 45 -173.5t145 -55.5t145 55.5t45 173.5v386h87v-392q0 -157 -71 -226t-206 -69zM250 831q0 40 22.5 67t69.5 27q92 0 92 -94t-92 -94q-47 0 -69.5 27t-22.5 67zM387 831q0 48 -46 48q-45 0 -45 -48t45 -48
q46 0 46 48z" />
    <glyph glyph-name="uring" unicode="&#x16f;" horiz-adv-x="541" 
d="M60 200v284h86v-284q0 -142 109 -142q15 0 31.5 3t44.5 13.5t46 38t18 69.5v302h86v-484h-80v68q-22 -43 -69 -62t-79 -19q-193 0 -193 213zM178 641q0 40 22.5 67t69.5 27q92 0 92 -94t-92 -94q-47 0 -69.5 27t-22.5 67zM315 641q0 48 -46 48q-45 0 -45 -48t45 -48
q46 0 46 48z" />
    <glyph glyph-name="Uhungarumlaut" unicode="&#x170;" horiz-adv-x="684" 
d="M342 -13q-135 0 -206 69t-71 226v392h87v-386q0 -118 45 -173.5t145 -55.5t145 55.5t45 173.5v386h87v-392q0 -157 -71 -226t-206 -69zM194 732l81 132h92l-105 -132h-68zM354 732l81 132h92l-105 -132h-68z" />
    <glyph glyph-name="uhungarumlaut" unicode="&#x171;" horiz-adv-x="541" 
d="M60 200v284h86v-284q0 -142 109 -142q15 0 31.5 3t44.5 13.5t46 38t18 69.5v302h86v-484h-80v68q-22 -43 -69 -62t-79 -19q-193 0 -193 213zM135 542l81 132h92l-105 -132h-68zM295 542l81 132h92l-105 -132h-68z" />
    <glyph glyph-name="Uogonek" unicode="&#x172;" horiz-adv-x="684" 
d="M384 -11q-21 -38 -25 -71t16 -50.5t61 -7.5l41 12v-48q-40 -19 -77 -23q-62 -6 -91.5 32t-14.5 93q7 30 31 61q-126 4 -193 73t-67 222v392h87v-386q0 -118 45 -173.5t145 -55.5t145 55.5t45 173.5v386h87v-392q0 -275 -235 -293z" />
    <glyph glyph-name="uogonek" unicode="&#x173;" horiz-adv-x="541" 
d="M60 200v284h86v-284q0 -142 109 -142q15 0 31.5 3t44.5 13.5t46 38t18 69.5v302h86v-484h-24q-26 -40 -31.5 -76t14 -55t62.5 -9l41 12v-48q-40 -19 -77 -23q-62 -6 -91.5 32t-14.5 93q9 35 41 75v67q-22 -43 -69 -62t-79 -19q-193 0 -193 213z" />
    <glyph glyph-name="Wcircumflex" unicode="&#x174;" horiz-adv-x="934" 
d="M512 649l161 -547l161 572h90l-206 -674h-90l-161 535l-161 -535h-90l-206 674h89l162 -572l161 547h90zM416 864h101l96 -132h-68l-78 85l-79 -85h-68z" />
    <glyph glyph-name="wcircumflex" unicode="&#x175;" horiz-adv-x="784" 
d="M174 0l-169 484h91l123 -390l123 390h100l124 -390l123 390h90l-168 -484h-82l-137 401l-136 -401h-82zM341 674h101l96 -132h-68l-78 85l-79 -85h-68z" />
    <glyph glyph-name="Ycircumflex" unicode="&#x176;" horiz-adv-x="634" 
d="M362 0h-90v237l-258 437h102l201 -365l199 365h104l-258 -437v-237zM266 864h101l96 -132h-68l-78 85l-79 -85h-68z" />
    <glyph glyph-name="ycircumflex" unicode="&#x177;" horiz-adv-x="530" 
d="M82 -188l9 68q13 -7 45 -7q19 0 33.5 9.5t19.5 19.5l5 9l34 84l-218 489h91l167 -395l161 395h91l-258 -607q-13 -31 -39.5 -50t-45.5 -23t-37 -4q-25 0 -58 12zM214 674h101l96 -132h-68l-78 85l-79 -85h-68z" />
    <glyph glyph-name="Ydieresis" unicode="&#x178;" horiz-adv-x="634" 
d="M209 764v87h73v-87h-73zM355 764v87h73v-87h-73zM362 0h-90v237l-258 437h102l201 -362l199 362h104l-258 -437v-237z" />
    <glyph glyph-name="Zacute" unicode="&#x179;" horiz-adv-x="587" 
d="M539 0h-509v85l416 513h-399v76h510v-82l-423 -514h405v-78zM207 732l81 132h92l-105 -132h-68z" />
    <glyph glyph-name="zacute" unicode="&#x17a;" horiz-adv-x="456" 
d="M25 0v71l303 341h-293v72h396v-71l-302 -341h292v-72h-396zM141 542l81 132h92l-105 -132h-68z" />
    <glyph glyph-name="Zdotaccent" unicode="&#x17b;" horiz-adv-x="587" 
d="M539 0h-509v85l416 513h-399v76h510v-82l-423 -514h405v-78zM250 777v87h86v-87h-86z" />
    <glyph glyph-name="zdotaccent" unicode="&#x17c;" horiz-adv-x="456" 
d="M25 0v71l303 341h-293v72h396v-71l-302 -341h292v-72h-396zM185 587v87h86v-87h-86z" />
    <glyph glyph-name="Zcaron" unicode="&#x17d;" horiz-adv-x="587" 
d="M539 0h-509v85l416 513h-399v76h510v-82l-423 -514h405v-78zM344 732h-101l-96 132h68l78 -85l79 85h68z" />
    <glyph glyph-name="zcaron" unicode="&#x17e;" horiz-adv-x="456" 
d="M25 0v71l303 341h-293v72h396v-71l-302 -341h292v-72h-396zM278 542h-101l-96 132h68l78 -85l79 85h68z" />
    <glyph glyph-name="longs" unicode="&#x17f;" horiz-adv-x="266" 
d="M16 484h61v47q0 44 12 76t26.5 46.5t37 22.5t33 8.5t25.5 0.5h3q37 0 72 -18l-8 -58q-116 37 -116 -67v-542h-85v419h-61v65z" />
    <glyph glyph-name="florin" unicode="&#x192;" horiz-adv-x="554" 
d="M139 -55l121 474h-61l16 65h61l12 47q38 156 173 154h3q37 0 67 -18l-15 -60q-115 37 -140 -65l-15 -58h96l-16 -65h-96l-117 -463q-38 -156 -175 -156q-33 0 -67 20l15 60q26 -8 47.5 -9.5t35.5 4t24 12.5t16 19t9 20t6 19z" />
    <glyph glyph-name="Aringacute" unicode="&#x1fa;" horiz-adv-x="668" 
d="M100 0h-91l280 674h90l280 -674h-91l-65 158h-339zM334 586l-142 -352h283zM242 831q0 40 22.5 67t69.5 27q92 0 92 -94t-92 -94q-47 0 -69.5 27t-22.5 67zM379 831q0 48 -46 48q-45 0 -45 -48t45 -48q46 0 46 48zM296 950l81 132h92l-105 -132h-68z" />
    <glyph glyph-name="aringacute" unicode="&#x1fb;" 
d="M152 641q0 40 22.5 67t69.5 27q92 0 92 -94t-92 -94q-47 0 -69.5 27t-22.5 67zM289 641q0 48 -46 48q-45 0 -45 -48t45 -48q46 0 46 48zM204 758l81 132h92l-105 -132h-68zM431 0h-89v55q-50 -66 -135 -66q-76 0 -126.5 38.5t-50.5 107.5q0 88 79.5 127t235.5 48v30
q0 70 -78 84q-16 3 -36 3q-15 0 -28.5 -1t-26 -4t-20.5 -4.5t-20 -6.5t-15.5 -6.5t-17 -8t-14.5 -7.5l-25 60q8 5 22 13t58.5 21t90.5 13q55 1 98 -15q98 -38 98 -138v-343zM209 59q10 0 23.5 1.5t34 8t37.5 17t29 30.5t12 46v86q-110 -6 -173.5 -34.5t-61.5 -75.5
q2 -38 29 -58.5t70 -20.5z" />
    <glyph glyph-name="AEacute" unicode="&#x1fc;" horiz-adv-x="887" 
d="M398 598l-183 -364h228v364h-45zM529 76h313v-76h-399v158h-256l-78 -158h-100l334 674h492v-76h-305v-219h273v-77h-274v-226zM390 732l81 132h92l-105 -132h-68z" />
    <glyph glyph-name="aeacute" unicode="&#x1fd;" horiz-adv-x="850" 
d="M597 -11q-129 0 -195 110q-40 -110 -194 -110q-72 0 -124.5 35.5t-52.5 110.5q0 86 83 124t242 47v34q0 5 -0.5 11.5t-7.5 21t-18.5 25.5t-36.5 20t-60 9q-46 0 -96 -18q-17 -6 -40 -19l-28 59q8 5 22 13t58.5 21t90.5 13q35 1 71 -8q80 -23 109 -82q45 90 166 90
q116 0 177.5 -68t49.5 -199h-366q0 -71 43 -120.5t115 -47.5q70 0 152 34l24 -68q-62 -38 -184 -38zM210 59q13 0 33.5 4.5t47.5 16t46 37.5t19 62v51q-58 -3 -99.5 -8.5t-77 -16t-52.5 -27t-16 -40.5q2 -38 29 -58.5t70 -20.5zM590 424q-53 0 -96.5 -37t-43.5 -88h280
q-2 65 -42 95t-98 30zM366 542l81 132h92l-105 -132h-68z" />
    <glyph glyph-name="Oslashacute" unicode="&#x1fe;" horiz-adv-x="682" 
d="M306 732l81 132h92l-105 -132h-68zM160 35v1l-61 -89h-66l83 124q-96 91 -96 266q0 163 86 255.5t235 92.5q94 0 164 -40l50 75h72l-73 -107q108 -94 108 -276q0 -163 -86 -255.5t-235 -92.5q-108 0 -181 46zM166 144l294 435q-53 32 -119 32q-112 0 -171 -78t-59 -196
q0 -120 55 -193zM206 103v1q53 -41 135 -41q112 0 171 76t59 198q0 126 -67 202z" />
    <glyph glyph-name="oslashacute" unicode="&#x1ff;" horiz-adv-x="537" 
d="M237 542l81 132h92l-105 -132h-68zM156 116l184 289q-32 21 -72 21q-70 0 -109 -54t-39 -130q0 -74 36 -126zM153 13l-40 -60h-63l59 91q-74 66 -74 198q0 120 62 186.5t171 66.5q63 0 114 -25l33 54h69l-55 -86q73 -68 73 -196q0 -119 -62.5 -186t-171.5 -67
q-66 0 -115 24zM381 364l-186 -286q32 -20 73 -20q69 0 109 55t40 129q0 67 -36 122z" />
    <glyph glyph-name="Scommaaccent" unicode="&#x218;" horiz-adv-x="562" 
d="M177 -200l70 147h90l-94 -147h-66zM402 665q56 -20 98 -54l-33 -63q-29 24 -78 42t-101 22.5t-95 -17.5t-56 -71q-3 -25 3.5 -43t24.5 -31t29 -18.5t37 -15.5q7 -3 10 -4l169 -66q52 -19 82 -52t36 -69t1.5 -67t-16.5 -58q-34 -76 -132.5 -101t-225.5 13q-75 24 -125 69
l38 64q33 -28 84.5 -49.5t106.5 -29.5t105.5 10.5t74.5 66.5q15 44 -6.5 76t-62.5 48l-195 75q-143 54 -126 188q15 93 116 134.5t237 0.5z" />
    <glyph glyph-name="scommaaccent" unicode="&#x219;" horiz-adv-x="430" 
d="M318 106q3 9 3.5 17.5t-1 14.5t-5 12t-6.5 9.5t-8.5 7t-8 5t-7.5 3.5l-5 2l-146 57q-108 48 -90 150q11 68 85.5 97.5t178.5 -0.5q36 -12 74 -36l-35 -59q-35 25 -88.5 34t-95 -5t-41.5 -50q0 -17 4.5 -27t20.5 -19.5t32 -15.5t56 -20.5t75 -29.5q39 -16 61 -40.5
t26 -51.5t1 -50t-12 -43q-24 -55 -98 -73t-166 9q-55 18 -92 51l36 60q28 -24 80.5 -40.5t104.5 -10.5t67 42zM116 -200l70 147h90l-94 -147h-66z" />
    <glyph glyph-name="hsuperior" unicode="&#x2b0;" horiz-adv-x="364" 
d="M314 631v-173h-67v173q0 77 -56 77q-9 0 -20 -2.5t-24 -10t-21.5 -24t-8.5 -39.5v-174h-67v406h67v-152q11 25 38 36.5t50 11.5q109 0 109 -129z" />
    <glyph glyph-name="jsuperior" unicode="&#x2b2;" horiz-adv-x="161" 
d="M111 752l-1 -318q0 -27 -7.5 -46.5t-16.5 -28.5t-24 -13.5t-21 -5t-17 -0.5h-4q-25 0 -49 12l7 47q32 -9 40 -9q27 0 27 46v316h66zM45 803v61h66v-61h-66z" />
    <glyph glyph-name="wsuperior" unicode="&#x2b7;" horiz-adv-x="474" 
d="M0 752h70l64 -216l66 216h73l67 -216l64 216h70l-101 -294h-64l-72 220l-72 -220h-64z" />
    <glyph glyph-name="ysuperior" unicode="&#x2b8;" horiz-adv-x="319" 
d="M43 347l8 53q15 -9 33 -9q8 0 14.5 4.5t8.5 8.5t2 5l21 49l-130 292h69l92 -222l89 222h69l-155 -364q-21 -48 -78 -48q-16 0 -43 9z" />
    <glyph glyph-name="circumflex" unicode="&#x2c6;" horiz-adv-x="373" 
d="M136 674h101l96 -132h-68l-78 85l-79 -85h-68z" />
    <glyph glyph-name="caron" unicode="&#x2c7;" horiz-adv-x="373" 
d="M237 542h-101l-96 132h68l78 -85l79 85h68z" />
    <glyph glyph-name="breve" unicode="&#x2d8;" horiz-adv-x="354" 
d="M176 554q-72 0 -105.5 39.5t-29.5 103.5h52q-1 -39 17.5 -59t66.5 -20t66.5 20t17.5 59h52q4 -64 -29.5 -103.5t-107.5 -39.5z" />
    <glyph glyph-name="dotaccent" unicode="&#x2d9;" horiz-adv-x="153" 
d="M34 587v87h86v-87h-86z" />
    <glyph glyph-name="ring" unicode="&#x2da;" horiz-adv-x="308" 
d="M62 641q0 40 22.5 67t69.5 27q92 0 92 -94t-92 -94q-47 0 -69.5 27t-22.5 67zM199 641q0 48 -46 48q-45 0 -45 -48t45 -48q46 0 46 48z" />
    <glyph glyph-name="ogonek" unicode="&#x2db;" horiz-adv-x="288" 
d="M103 10h56q-28 -40 -36.5 -79t10.5 -60.5t64 -10.5l41 14v-50q-40 -19 -77 -23q-62 -6 -91.5 32t-14.5 93q4 16 18.5 41.5t29.5 42.5z" />
    <glyph glyph-name="tilde" unicode="&#x2dc;" horiz-adv-x="367" 
d="M127 674q20 0 57 -18t62.5 -18t39.5 36h41q-6 -102 -91 -102q-21 0 -77 23q-32 12 -49 6t-29 -35h-41q5 50 22.5 79t64.5 29z" />
    <glyph glyph-name="hungarumlaut" unicode="&#x2dd;" horiz-adv-x="406" 
d="M36 542l81 132h92l-105 -132h-68zM196 542l81 132h92l-105 -132h-68z" />
    <glyph glyph-name="xsuperior" unicode="&#x2e3;" horiz-adv-x="309" 
d="M225 752h76l-106 -145l114 -149h-75l-80 110l-79 -110h-75l113 149l-106 145h77l70 -106z" />
    <glyph glyph-name="macron" unicode="&#x304;" horiz-adv-x="311" 
d="M40 584v66h231v-66h-231z" />
    <glyph glyph-name="Delta" unicode="&#x394;" horiz-adv-x="670" 
d="M10 0l280 674h90l280 -674h-650zM335 586l-206 -516h412z" />
    <glyph glyph-name="Delta" unicode="&#x2206;" horiz-adv-x="670" 
d="M10 0l280 674h90l280 -674h-650zM335 586l-206 -516h412z" />
    <glyph glyph-name="Upsilon" unicode="&#x3a5;" horiz-adv-x="634" 
d="M362 0h-90v322l-258 352h102l201 -280l199 280h104l-258 -352v-322z" />
    <glyph glyph-name="Omega" unicode="&#x3a9;" horiz-adv-x="690" 
d="M345 608q-110 0 -162 -76t-52 -196q0 -242 162 -270v-66h-252v77h113q-51 28 -82.5 99t-31.5 160q0 165 79 255.5t226 90.5q148 0 226.5 -90t78.5 -256q0 -90 -29.5 -157.5t-84.5 -101.5h112v-77h-251v66q162 28 162 270q0 120 -52 196t-162 76z" />
    <glyph glyph-name="Omega" unicode="&#x2126;" horiz-adv-x="690" 
d="M345 608q-110 0 -162 -76t-52 -196q0 -242 162 -270v-66h-252v77h113q-51 28 -82.5 99t-31.5 160q0 165 79 255.5t226 90.5q148 0 226.5 -90t78.5 -256q0 -90 -29.5 -157.5t-84.5 -101.5h112v-77h-251v66q162 28 162 270q0 120 -52 196t-162 76z" />
    <glyph glyph-name="pi" unicode="&#x3c0;" horiz-adv-x="633" 
d="M40 407v77h553v-77h-98v-407h-86v407h-185v-407h-86v407h-98z" />
    <glyph glyph-name="Wgrave" unicode="&#x1e80;" horiz-adv-x="934" 
d="M512 649l161 -547l161 572h90l-206 -674h-90l-161 535l-161 -535h-90l-206 674h89l162 -572l161 547h90zM430 864l81 -132h-68l-105 132h92z" />
    <glyph glyph-name="wgrave" unicode="&#x1e81;" horiz-adv-x="784" 
d="M174 0l-169 484h91l120 -390l126 390h100l127 -390l120 390h90l-168 -484h-84l-135 411l-134 -411h-84zM356 674l81 -132h-68l-105 132h92z" />
    <glyph glyph-name="Wacute" unicode="&#x1e82;" horiz-adv-x="934" 
d="M512 649l161 -547l161 572h90l-206 -674h-90l-161 535l-161 -535h-90l-206 674h89l162 -572l161 547h90zM424 732l81 132h92l-105 -132h-68z" />
    <glyph glyph-name="wacute" unicode="&#x1e83;" horiz-adv-x="784" 
d="M174 0l-169 484h91l120 -390l126 390h100l127 -390l120 390h90l-168 -484h-84l-135 411l-134 -411h-84zM339 542l81 132h92l-105 -132h-68z" />
    <glyph glyph-name="Wdieresis" unicode="&#x1e84;" horiz-adv-x="934" 
d="M512 649l161 -547l161 572h90l-206 -674h-90l-161 535l-161 -535h-90l-206 674h89l162 -572l161 547h90zM350 777v87h86v-87h-86zM497 777v87h86v-87h-86z" />
    <glyph glyph-name="wdieresis" unicode="&#x1e85;" horiz-adv-x="784" 
d="M174 0l-169 484h91l120 -390l126 390h100l127 -390l120 390h90l-168 -484h-84l-135 411l-134 -411h-84zM275 587v87h86v-87h-86zM422 587v87h86v-87h-86z" />
    <glyph glyph-name="Ygrave" unicode="&#x1ef2;" horiz-adv-x="634" 
d="M362 0h-90v237l-258 437h102l201 -365l199 365h104l-258 -437v-237zM277 864l81 -132h-68l-105 132h92z" />
    <glyph glyph-name="ygrave" unicode="&#x1ef3;" horiz-adv-x="530" 
d="M82 -188l9 68q13 -7 45 -7q19 0 33.5 9.5t19.5 19.5l5 9l34 84l-218 489h91l167 -395l161 395h91l-258 -607q-13 -31 -39.5 -50t-45.5 -23t-37 -4q-25 0 -58 12zM240 674l81 -132h-68l-105 132h92z" />
    <glyph glyph-name="endash" unicode="&#x2013;" horiz-adv-x="559" 
d="M40 300h479v-65h-479v65z" />
    <glyph glyph-name="emdash" unicode="&#x2014;" horiz-adv-x="885" 
d="M40 300h805v-64h-805v64z" />
    <glyph glyph-name="quoteleft" unicode="&#x2018;" horiz-adv-x="276" 
d="M226 674l-87 -166h-89l114 166h62z" />
    <glyph glyph-name="quoteright" unicode="&#x2019;" horiz-adv-x="276" 
d="M50 508l87 166h89l-114 -166h-62z" />
    <glyph glyph-name="quotesinglbase" unicode="&#x201a;" horiz-adv-x="275" 
d="M50 -83l86 177h89l-113 -177h-62z" />
    <glyph glyph-name="quotedblleft" unicode="&#x201c;" horiz-adv-x="430" 
d="M139 674l87 -166h-62l-114 166h89zM293 674l87 -166h-62l-114 166h89z" />
    <glyph glyph-name="quotedblright" unicode="&#x201d;" horiz-adv-x="425" 
d="M50 508l87 166h89l-114 -166h-62zM199 508l87 166h89l-114 -166h-62z" />
    <glyph glyph-name="quotedblbase" unicode="&#x201e;" horiz-adv-x="422" 
d="M50 -83l86 177h89l-113 -177h-62zM197 -83l86 177h89l-113 -177h-62z" />
    <glyph glyph-name="dagger" unicode="&#x2020;" horiz-adv-x="444" 
d="M414 454h-165v-455h-55v455h-164v55l164 -1v166h55v-166l165 1v-55z" />
    <glyph glyph-name="daggerdbl" unicode="&#x2021;" horiz-adv-x="444" 
d="M414 180h-165v-181h-55v181h-164v55h164v219h-164v55h164v165h55v-165h165v-55h-165v-219h165v-55z" />
    <glyph glyph-name="bullet" unicode="&#x2022;" horiz-adv-x="319" 
d="M50 306q0 46 31.5 78t77.5 32t78 -32t32 -78t-32 -77.5t-78 -31.5t-77.5 31.5t-31.5 77.5z" />
    <glyph glyph-name="ellipsis" unicode="&#x2026;" horiz-adv-x="678" 
d="M50 0v94h86v-94h-86zM296 0v94h86v-94h-86zM542 0v94h86v-94h-86z" />
    <glyph glyph-name="perthousand" unicode="&#x2030;" horiz-adv-x="1157" 
d="M40 492q0 81 40 126.5t112 45.5q71 0 111.5 -45.5t40.5 -126.5q0 -83 -40 -128.5t-112 -45.5t-112 45.5t-40 128.5zM283 492q0 47 -24.5 82t-66.5 35q-43 0 -67 -34.5t-24 -82.5t24 -83t67 -35q42 0 66.5 35t24.5 83zM457 164q0 81 40 126.5t112 45.5q71 0 111.5 -45.5
t40.5 -126.5q0 -83 -40 -128.5t-112 -45.5t-112 45.5t-40 128.5zM700 164q0 47 -24.5 82t-66.5 35q-43 0 -67 -34.5t-24 -82.5t24 -83t67 -35q42 0 66.5 35t24.5 83zM813 164q0 81 40 126.5t112 45.5q71 0 111.5 -45.5t40.5 -126.5q0 -83 -40 -128.5t-112 -45.5t-112 45.5
t-40 128.5zM1056 164q0 47 -24.5 82t-66.5 35q-43 0 -67 -34.5t-24 -82.5t24 -83t67 -35q42 0 66.5 35t24.5 83zM166 1l397 673h57l-396 -673h-58z" />
    <glyph glyph-name="minute" unicode="&#x2032;" horiz-adv-x="256" 
d="M40 598l87 166h89l-114 -166h-62z" />
    <glyph glyph-name="second" unicode="&#x2033;" horiz-adv-x="384" 
d="M40 598l87 166h89l-114 -166h-62zM168 598l87 166h89l-114 -166h-62z" />
    <glyph glyph-name="guilsinglleft" unicode="&#x2039;" horiz-adv-x="313" 
d="M258 541l-135 -235l140 -230h-82l-131 233l131 232h77z" />
    <glyph glyph-name="guilsinglright" unicode="&#x203a;" horiz-adv-x="313" 
d="M190 306l-135 235h77l131 -232l-131 -233h-82z" />
    <glyph glyph-name="fraction" unicode="&#x2044;" horiz-adv-x="573" 
d="M59 0l404 685h61l-403 -685h-62z" />
    <glyph glyph-name="zerosuperior" unicode="&#x2070;" horiz-adv-x="323" 
d="M161 449q-66 0 -103.5 50t-37.5 142t37 142t104 50q68 0 105 -49.5t37 -142.5q0 -92 -37 -142t-105 -50zM161 786q-37 0 -57 -43t-20 -102q0 -61 19.5 -103t57.5 -42q39 0 58.5 41.5t19.5 103.5q0 60 -19.5 102.5t-58.5 42.5z" />
    <glyph glyph-name="foursuperior" unicode="&#x2074;" horiz-adv-x="321" 
d="M252 455h-64v77h-172v50q21 40 53 86t52.5 72t68.5 85h62v-245h53v-48h-53v-77zM75 580h113v162q-83 -103 -113 -162z" />
    <glyph glyph-name="fivesuperior" unicode="&#x2075;" horiz-adv-x="320" 
d="M231 578q0 29 -18 51.5t-56 22.5q-45 0 -57 -36h-62l25 209h204v-54h-151q-1 -8 -4.5 -35.5t-6.5 -46.5q28 14 67 14q50 0 85 -35.5t35 -91.5q0 -62 -40 -95t-101 -33q-77 0 -124 54l29 49q14 -20 41 -36t48 -16q43 0 64.5 21.5t21.5 57.5z" />
    <glyph glyph-name="sixsuperior" unicode="&#x2076;" horiz-adv-x="322" 
d="M189 784q-44 0 -73 -31.5t-29 -89.5q11 21 35.5 32t44.5 11q57 0 92 -34t35 -93q0 -61 -35.5 -94.5t-94.5 -33.5q-42 0 -71.5 18t-42.5 48t-18 57t-5 58q0 100 41.5 151t111.5 51q59 0 97 -26l-22 -44q-21 20 -66 20zM163 501q33 0 50.5 24t17.5 54q0 29 -17.5 54
t-51.5 25q-31 0 -49 -22t-18 -54q0 -34 19 -57.5t49 -23.5z" />
    <glyph glyph-name="sevensuperior" unicode="&#x2077;" horiz-adv-x="300" 
d="M17 769v55h266v-48q-113 -146 -168 -322h-71q61 167 177 315h-204z" />
    <glyph glyph-name="eightsuperior" unicode="&#x2078;" horiz-adv-x="320" 
d="M160 834q15 0 20 -1q3 -1 8 -1q39 -7 67.5 -33.5t28.5 -65.5q0 -60 -53 -81q65 -26 65 -96q0 -45 -35.5 -75.5t-100.5 -30.5q-67 0 -102 30.5t-35 75.5q0 69 66 96q-53 21 -53 81q0 39 28.5 65.5t67.5 33.5l10 1q9 1 18 1zM160 500q34 0 54 17.5t20 42.5q0 26 -19 45
t-55 20q-36 -1 -54.5 -20t-18.5 -45q0 -25 19.5 -42.5t53.5 -17.5zM160 677q58 0 60 56q0 22 -15 38.5t-45 16.5t-45.5 -17t-15.5 -38q2 -56 61 -56z" />
    <glyph glyph-name="ninesuperior" unicode="&#x2079;" horiz-adv-x="320" 
d="M131 502q42 0 70 33.5t29 84.5q-26 -40 -76 -40q-57 0 -92.5 34.5t-35.5 92.5q0 61 36 94.5t95 33.5q42 0 71.5 -18t42 -48t17.5 -57t5 -58q0 -99 -41.5 -150.5t-111.5 -51.5q-62 0 -96 26l19 46q25 -22 68 -22zM158 785q-34 0 -51.5 -24t-17.5 -54q0 -29 18 -54t52 -25
q31 0 48.5 22t17.5 54q0 35 -18.5 58t-48.5 23z" />
    <glyph glyph-name="nsuperior" unicode="&#x207f;" horiz-adv-x="364" 
d="M314 629v-171h-67v171q0 79 -56 79q-14 0 -28.5 -4.5t-30 -23.5t-15.5 -49v-173h-67v294h63v-49q24 57 87 57q57 0 85.5 -30t28.5 -101z" />
    <glyph glyph-name="zeroinferior" unicode="&#x2080;" horiz-adv-x="320" 
d="M159 -151q-66 0 -103.5 50t-37.5 142t37 142t104 50q68 0 105 -49.5t37 -142.5q0 -92 -37 -142t-105 -50zM159 186q-37 0 -57 -43t-20 -102q0 -61 19.5 -103t57.5 -42q39 0 58.5 41.5t19.5 103.5q0 60 -19.5 102.5t-58.5 42.5z" />
    <glyph glyph-name="oneinferior" unicode="&#x2081;" horiz-adv-x="288" 
d="M79 94l-37 37l91 93h58v-370h-63v293q-5 -6 -22.5 -25t-26.5 -28z" />
    <glyph glyph-name="twoinferior" unicode="&#x2082;" horiz-adv-x="312" 
d="M151 183q-26 0 -51.5 -16.5t-39.5 -33.5l-23 50l3 3l6.5 6.5l7.5 7.5t10.5 8.5t12.5 7.5t15.5 7t18 6t20.5 4.5t23 1.5q61 0 93.5 -31.5t32.5 -77.5q0 -30 -14 -54t-57 -52l-54 -39q-52 -37 -57 -68h176v-53h-242v27q0 24 8 45.5t16.5 35t31.5 32.5t34 26.5t43 29.5l15 9
h-1q37 24 37 59q0 59 -65 59z" />
    <glyph glyph-name="threeinferior" unicode="&#x2083;" horiz-adv-x="325" 
d="M163 -148q-75 0 -124 49l-6 5l22 46q60 -48 105 -48q34 0 52 15.5t18 42.5t-20 42t-51 15h-44v54h44q31 0 46 15t16 37q0 22 -17 41t-46 19q-25 0 -50.5 -17t-40.5 -34l-23 49l5 5q5 6 9 9.5t11.5 9.5t16.5 10.5t20 9t25 7t30 2.5q50 0 87 -27.5t37 -82.5q0 -52 -53 -79
q60 -25 60 -84q0 -53 -35.5 -82t-93.5 -29z" />
    <glyph glyph-name="fourinferior" unicode="&#x2084;" horiz-adv-x="320" 
d="M251 -145h-64v77h-172v50q46 88 162 228l12 15h62v-245h53v-48h-53v-77zM74 -20h113v162q-83 -103 -113 -162z" />
    <glyph glyph-name="fiveinferior" unicode="&#x2085;" horiz-adv-x="320" 
d="M231 -22q0 29 -18 51.5t-56 22.5q-45 0 -57 -36h-62l25 209h204v-54h-151q-1 -8 -4.5 -35.5t-6.5 -46.5q28 14 67 14q50 0 85 -35.5t35 -91.5q0 -62 -40 -95t-101 -33q-77 0 -124 54l29 49q13 -21 40.5 -36.5t48.5 -15.5q43 0 64.5 21.5t21.5 57.5z" />
    <glyph glyph-name="sixinferior" unicode="&#x2086;" horiz-adv-x="320" 
d="M188 184q-44 0 -73 -31.5t-29 -89.5q11 21 35.5 32t44.5 11q57 0 92 -34t35 -93q0 -61 -35.5 -94.5t-94.5 -33.5q-42 0 -71.5 18t-42.5 48t-18 57t-5 58q0 100 41.5 151t111.5 51q59 0 97 -26l-22 -44q-21 20 -66 20zM162 -99q33 0 50.5 24t17.5 54q0 29 -17.5 54
t-51.5 25q-31 0 -49 -22t-18 -54q0 -34 19 -57.5t49 -23.5z" />
    <glyph glyph-name="eightinferior" unicode="&#x2088;" horiz-adv-x="320" 
d="M160 234q15 0 20 -1q3 -1 8 -1q39 -7 67.5 -33.5t28.5 -65.5q0 -60 -53 -81q65 -26 65 -96q0 -45 -35.5 -75.5t-100.5 -30.5q-67 0 -102 30.5t-35 75.5q0 69 66 96q-53 21 -53 81q0 39 28.5 65.5t67.5 33.5l10 1q9 1 18 1zM160 -100q34 0 54 17.5t20 42.5q0 26 -19 45
t-55 20q-36 -1 -54.5 -20t-18.5 -45q0 -25 19.5 -42.5t53.5 -17.5zM160 77q58 0 60 56q0 22 -15 38.5t-45 16.5t-45.5 -17t-15.5 -38q2 -56 61 -56z" />
    <glyph glyph-name="nineinferior" unicode="&#x2089;" horiz-adv-x="320" 
d="M131 -98q42 0 70 33.5t29 84.5q-26 -40 -76 -40q-57 0 -92.5 34.5t-35.5 92.5q0 61 36 94.5t95 33.5q42 0 71.5 -18t42 -48t17.5 -57t5 -58q0 -100 -41.5 -151t-111.5 -51q-62 0 -96 26l19 46q25 -22 68 -22zM158 185q-34 0 -51.5 -24t-17.5 -54q0 -29 18 -54t52 -25
q31 0 48.5 22t17.5 54q0 35 -18.5 58t-48.5 23z" />
    <glyph glyph-name="Euro" unicode="&#x20ac;" horiz-adv-x="657" 
d="M134 362h-114l24 60h98q25 118 111 190.5t215 72.5q85 0 149 -34l-27 -66q-18 11 -51 19t-48 8q-108 0 -174 -53.5t-88 -136.5h305l-28 -60h-286q-3 -35 0 -61h264l-28 -60h-223q24 -78 89 -128.5t169 -50.5q47 0 103 27l23 -66q-64 -34 -149 -34q-126 0 -211 69
t-112 183h-125l24 60h91q-1 7 -1 61z" />
    <glyph glyph-name="afii61289" unicode="&#x2113;" horiz-adv-x="339" 
d="M299 531v-154q0 -46 -12.5 -82t-29.5 -54.5t-38 -30.5t-34.5 -15t-22.5 -3q-16 0 -37 5v-65q0 -15 1 -24t9 -23.5t23 -21t46 -6t74 11.5l8 -61q-37 -19 -109 -19h-3q-15 0 -26 0.5t-33 8.5t-36.5 22.5t-26.5 46.5t-12 76v388q0 44 12 76t26.5 46.5t37 22.5t33 8.5
t25.5 0.5h3q11 0 21 -1t30.5 -9.5t34.5 -23.5t25 -46t11 -74zM214 366v176q0 16 -1 25t-4.5 22.5t-13 20t-25.5 6.5t-25.5 -7t-13.5 -20t-5 -22.5t-1 -24.5v-281q24 -5 41.5 2t26.5 19t14 30t6 30t1 24z" />
    <glyph glyph-name="trademark" unicode="&#x2122;" horiz-adv-x="788" 
d="M15 674h384l127 -328l128 328h79l15 -400h-51l-12 348l-138 -348h-41l-138 348l-12 -348h-51l14 355h-124v-355h-51v355h-129v45z" />
    <glyph glyph-name="estimated" unicode="&#x212e;" horiz-adv-x="678" 
d="M613 282h-429v-193q68 -63 152 -63q76 0 122 32.5t88 94.5l31 -19q-43 -68 -98.5 -104.5t-142.5 -36.5q-119 0 -195 84.5t-76 205.5q0 123 75 206.5t200 83.5q124 0 198.5 -84.5t74.5 -206.5zM493 315v163q-68 62 -153 62q-96 0 -156 -62v-163h309z" />
    <glyph glyph-name="onethird" unicode="&#x2153;" horiz-adv-x="748" 
d="M114 0l394 674h50l-393 -674h-51zM559 -7q-76 0 -130 54l22 42q1 -1 8 -6t11.5 -8t13 -8t16 -8.5t17 -7t19.5 -5t20 -1.5q34 0 52 15.5t18 42.5t-20 42t-51 15h-44v54h44q31 0 46 15t16 37q0 22 -17 41t-46 19q-25 0 -51.5 -15t-39.5 -29l-23 42l5 6q5 5 9 8.5t11.5 9.5
t16.5 10.5t20 9t25 7t30 2.5q50 0 87 -27.5t37 -82.5q0 -52 -53 -79q60 -25 60 -84q0 -53 -35.5 -82t-93.5 -29zM97 544l-37 37l91 93h58v-370h-63v293q-5 -6 -22.5 -25t-26.5 -28z" />
    <glyph glyph-name="twothirds" unicode="&#x2154;" horiz-adv-x="817" 
d="M196 0l394 674h50l-393 -674h-51zM628 -7q-76 0 -130 54l22 42q1 -1 8 -6t11.5 -8t13 -8t16 -8.5t17 -7t19.5 -5t20 -1.5q34 0 52 15.5t18 42.5t-20 42t-51 15h-44v54h44q31 0 46 15t16 37q0 22 -17 41t-46 19q-25 0 -51.5 -15t-39.5 -29l-23 42l5 6q5 5 9 8.5t11.5 9.5
t16.5 10.5t20 9t25 7t30 2.5q50 0 87 -27.5t37 -82.5q0 -52 -53 -79q60 -25 60 -84q0 -53 -35.5 -82t-93.5 -29zM179 633q-26 0 -51.5 -16.5t-39.5 -33.5l-23 50l3 3l6.5 6.5l7.5 7.5t10.5 8.5t12.5 7.5t15.5 7t18 6t20.5 4.5t23 1.5q61 0 93.5 -31.5t32.5 -77.5
q0 -30 -14 -54t-57 -52l-54 -39q-52 -37 -57 -68h176v-53h-242v27q0 24 8 45.5t16.5 35t31.5 32.5t34 26.5t43 29.5l15 9h-1q37 24 37 59q0 59 -65 59z" />
    <glyph glyph-name="oneeighth" unicode="&#x215b;" horiz-adv-x="749" 
d="M553 377q15 0 20 -1q3 -1 8 -1q39 -7 67.5 -33.5t28.5 -65.5q0 -60 -53 -81q65 -26 65 -96q0 -45 -35.5 -75.5t-100.5 -30.5q-67 0 -102 30.5t-35 75.5q0 69 66 96q-53 21 -53 81q0 39 28.5 65.5t67.5 33.5l9 1q10 1 19 1zM553 43q34 0 54 17.5t20 42.5q0 26 -19 45
t-55 20q-36 -1 -54.5 -20t-18.5 -45q0 -25 19.5 -42.5t53.5 -17.5zM553 220q58 0 60 56q0 22 -15 38.5t-45 16.5t-45.5 -17t-15.5 -38q2 -56 61 -56zM116 0l394 674h50l-393 -674h-51zM97 544l-37 37l91 93h58v-370h-63v293q-5 -6 -22.5 -25t-26.5 -28z" />
    <glyph glyph-name="threeeighths" unicode="&#x215c;" horiz-adv-x="795" 
d="M599 377q15 0 20 -1q3 -1 8 -1q39 -7 67.5 -33.5t28.5 -65.5q0 -60 -53 -81q65 -26 65 -96q0 -45 -35.5 -75.5t-100.5 -30.5q-67 0 -102 30.5t-35 75.5q0 69 66 96q-53 21 -53 81q0 39 28.5 65.5t67.5 33.5l9 1q10 1 19 1zM599 43q34 0 54 17.5t20 42.5q0 26 -19 45
t-55 20q-36 -1 -54.5 -20t-18.5 -45q0 -25 19.5 -42.5t53.5 -17.5zM599 220q58 0 60 56q0 22 -15 38.5t-45 16.5t-45.5 -17t-15.5 -38q2 -56 61 -56zM170 0l394 674h50l-393 -674h-51zM190 302q-75 0 -124 49l-6 5l22 46q2 -1 12 -9t18.5 -13t20.5 -12t26 -10.5t28 -3.5
q34 0 52 15.5t18 42.5t-20 42t-51 15h-44v54h44q31 0 46 15t16 37q0 22 -17 41t-46 19q-25 0 -50.5 -17t-40.5 -34l-23 49l5 5q5 6 9 9.5t11.5 9.5t16.5 10.5t20 9t25 7t30 2.5q50 0 87 -27.5t37 -82.5q0 -52 -53 -79q60 -25 60 -84q0 -53 -35.5 -82t-93.5 -29z" />
    <glyph glyph-name="fiveeighths" unicode="&#x215d;" horiz-adv-x="806" 
d="M610 377q15 0 20 -1q3 -1 8 -1q39 -7 67.5 -33.5t28.5 -65.5q0 -60 -53 -81q65 -26 65 -96q0 -45 -35.5 -75.5t-100.5 -30.5q-67 0 -102 30.5t-35 75.5q0 69 66 96q-53 21 -53 81q0 39 28.5 65.5t67.5 33.5l10 1q9 1 18 1zM610 43q34 0 54 17.5t20 42.5q0 26 -19 45
t-55 20q-36 -1 -54.5 -20t-18.5 -45q0 -25 19.5 -42.5t53.5 -17.5zM610 220q58 0 60 56q0 22 -15 38.5t-45 16.5t-45.5 -17t-15.5 -38q2 -56 61 -56zM177 0l394 674h50l-393 -674h-51zM264 428q0 29 -18 51.5t-56 22.5q-45 0 -57 -36h-62l25 209h204v-54h-151
q-1 -8 -4.5 -35.5t-6.5 -46.5q28 14 67 14q50 0 85 -35.5t35 -91.5q0 -62 -40 -95t-101 -33q-77 0 -124 54l29 49q14 -20 41 -36t48 -16q43 0 64.5 21.5t21.5 57.5z" />
    <glyph glyph-name="seveneighths" unicode="&#x215e;" horiz-adv-x="723" 
d="M527 377q15 0 20 -1q3 -1 8 -1q39 -7 67.5 -33.5t28.5 -65.5q0 -60 -53 -81q65 -26 65 -96q0 -45 -35.5 -75.5t-100.5 -30.5q-67 0 -102 30.5t-35 75.5q0 69 66 96q-53 21 -53 81q0 39 28.5 65.5t67.5 33.5l9 1q10 1 19 1zM527 43q34 0 54 17.5t20 42.5q0 26 -19 45
t-55 20q-36 -1 -54.5 -20t-18.5 -45q0 -25 19.5 -42.5t53.5 -17.5zM527 220q58 0 60 56q0 22 -15 38.5t-45 16.5t-45.5 -17t-15.5 -38q2 -56 61 -56zM60 620v55h266v-48q-113 -146 -168 -322h-71q61 167 177 315h-204zM84 0l394 674h50l-393 -674h-51z" />
    <glyph glyph-name="arrowleft" unicode="&#x2190;" horiz-adv-x="765" 
d="M720 271h-393v-132l-282 172l282 171v-131h393v-80z" />
    <glyph glyph-name="arrowup" unicode="&#x2191;" horiz-adv-x="765" 
d="M343 0v393h-132l172 282l171 -282h-131v-393h-80z" />
    <glyph glyph-name="arrowright" unicode="&#x2192;" horiz-adv-x="765" 
d="M438 271h-393v80h393v131l282 -171l-282 -172v132z" />
    <glyph glyph-name="arrowdown" unicode="&#x2193;" horiz-adv-x="765" 
d="M343 281v393h80v-393h131l-171 -282l-172 282h132z" />
    <glyph glyph-name="arrowboth" unicode="&#x2194;" horiz-adv-x="1041" 
d="M719 271h-397v-132l-282 172l282 171v-131h397v131l282 -171l-282 -172v132z" />
    <glyph glyph-name="arrowdblleft" unicode="&#x21d0;" horiz-adv-x="770" 
d="M169 262h560v-40h-521l112 -111l-32 -30l-248 249l248 251l32 -31l-112 -112h521v-39h-560l-70 -69z" />
    <glyph glyph-name="arrowdblup" unicode="&#x21d1;" horiz-adv-x="580" 
d="M359 0v560l-68 70l-69 -70v-560h-39v521l-112 -112l-31 32l251 248l249 -248l-30 -32l-111 112v-521h-40z" />
    <glyph glyph-name="arrowdbldown" unicode="&#x21d3;" horiz-adv-x="580" 
d="M359 114v560h40v-521l111 112l30 -32l-249 -248l-251 248l31 32l112 -112v521h39v-560l69 -70z" />
    <glyph glyph-name="arrowdblboth" unicode="&#x21d4;" horiz-adv-x="962" 
d="M793 262l70 68l-70 69h-624l-70 -69l70 -68h624zM674 581l248 -251l-247 -249l-32 30l113 111h-548l112 -111l-32 -30l-248 249l248 251l32 -31l-112 -112h548l-114 112z" />
    <glyph glyph-name="universal" unicode="&#x2200;" horiz-adv-x="674" 
d="M12 674h91l64 -158h339l65 158h91l-280 -674h-90zM195 440l142 -352l141 352h-283z" />
    <glyph glyph-name="partialdiff" unicode="&#x2202;" horiz-adv-x="617" 
d="M466 340q25 120 -12 186t-130 66q-69 0 -119 -35l-17 63q19 13 35 20.5t50 14t81 6.5q119 0 172 -89.5t16 -265.5q-74 -318 -300 -318q-98 0 -147 58.5t-28 161.5q22 100 94.5 160.5t168.5 60.5q27 0 54.5 -7.5t52.5 -29t29 -52.5zM259 59q62 0 109 44t61 111
q13 63 -13.5 106t-90.5 43q-69 0 -115.5 -49t-58.5 -106t13.5 -103t94.5 -46z" />
    <glyph glyph-name="existential" unicode="&#x2203;" horiz-adv-x="515" 
d="M450 0h-405v76h319v226h-271v77h271v219h-312v76h398v-674z" />
    <glyph glyph-name="emptyset" unicode="&#x2205;" horiz-adv-x="776" 
d="M53 0l85 94q-98 103 -98 243q0 144 102 246t246 102q119 0 215 -75l67 75h61l-94 -105q99 -104 99 -243q0 -144 -102 -246t-246 -102q-120 0 -216 75l-57 -64h-62zM674 337q0 113 -79 197l-381 -424q77 -59 174 -59q118 0 202 84t84 202zM102 337q0 -116 78 -197l381 424
q-77 59 -173 59q-118 0 -202 -84t-84 -202z" />
    <glyph glyph-name="gradient" unicode="&#x2207;" horiz-adv-x="674" 
d="M292 0l-280 674h650l-280 -674h-90zM131 604l206 -516l206 516h-412z" />
    <glyph glyph-name="element" unicode="&#x2208;" horiz-adv-x="548" 
d="M497 205h-382q12 -60 58 -99t109 -39h226v-67h-226q-101 0 -171.5 71t-70.5 171t70.5 171t171.5 71h226v-67h-226q-67 0 -115.5 -44.5t-54.5 -110.5h385v-57z" />
    <glyph glyph-name="notelement" unicode="&#x2209;" horiz-adv-x="548" 
d="M349 417h-67q-67 0 -115.5 -44.5t-54.5 -110.5h172zM260 205h-145q17 -86 94 -122zM429 484h79v-67h-107l-65 -155h161v-57h-185l-57 -137q9 -1 27 -1h226v-67h-226q-28 0 -53 6l-32 -78h-53l39 93q-65 28 -104 87.5t-39 133.5q0 100 70.5 171t171.5 71h95l35 84h52z" />
    <glyph glyph-name="product" unicode="&#x220f;" horiz-adv-x="603" 
d="M25 597v77h553v-77h-98v-597h-86v597h-185v-597h-86v597h-98z" />
    <glyph glyph-name="summation" unicode="&#x2211;" horiz-adv-x="571" 
d="M277 246l-227 345v76h471v-76h-383l238 -345l-238 -345h383v-76h-471v78z" />
    <glyph glyph-name="minus" unicode="&#x2212;" horiz-adv-x="528" 
d="M40 337h448v-65h-448v65z" />
    <glyph glyph-name="radical" unicode="&#x221a;" horiz-adv-x="617" 
d="M225 484l117 -386l177 576h88l-220 -674h-90l-134 416h-143v68h205z" />
    <glyph glyph-name="proportional" unicode="&#x221d;" horiz-adv-x="710" 
d="M214 232q84 0 124 85q-40 86 -124 86q-107 0 -107 -86q0 -85 107 -85zM553 232h117v-62h-117q-54 0 -99.5 28t-70.5 70l-1 -4q-24 -41 -70 -67.5t-100 -26.5q-84 0 -128 44t-44 103q0 60 44 103.5t128 43.5q54 0 100 -26.5t70 -67.5q24 41 70.5 67.5t100.5 26.5h117v-61
h-117h-2q-84 0 -124 -86q40 -85 124 -85h2z" />
    <glyph glyph-name="infinity" unicode="&#x221e;" horiz-adv-x="765" 
d="M383 268l-1 -4q-24 -41 -70 -67.5t-100 -26.5q-84 0 -128 44t-44 103q0 60 44 103.5t128 43.5q54 0 100 -26.5t70 -67.5q24 41 70.5 67.5t100.5 26.5q84 0 128 -43.5t44 -103.5q0 -59 -44 -103t-128 -44q-54 0 -99.5 28t-70.5 70zM214 232q84 0 124 85q-40 86 -124 86
q-107 0 -107 -86q0 -85 107 -85zM551 232q107 0 107 85q0 86 -107 86q-84 0 -124 -86q40 -85 124 -85z" />
    <glyph glyph-name="angle" unicode="&#x2220;" horiz-adv-x="617" 
d="M550 35h-510v48l482 593l55 -44l-432 -531h405v-66z" />
    <glyph glyph-name="logicaland" unicode="&#x2227;" horiz-adv-x="498" 
d="M403 0l-154 379l-154 -379h-83l200 478h75l199 -478h-83z" />
    <glyph glyph-name="logicalor" unicode="&#x2228;" horiz-adv-x="498" 
d="M249 99l154 379h83l-199 -478h-75l-200 478h83z" />
    <glyph glyph-name="intersection" unicode="&#x2229;" horiz-adv-x="564" 
d="M107 247v-247h-67v247q0 101 71 171.5t171 70.5t171 -70.5t71 -171.5v-247h-67v247q0 72 -51 121.5t-124 49.5t-124 -49.5t-51 -121.5z" />
    <glyph glyph-name="union" unicode="&#x222a;" horiz-adv-x="564" 
d="M457 237v247h67v-247q0 -101 -71 -171.5t-171 -70.5t-171 70.5t-71 171.5v247h67v-247q0 -72 51 -121.5t124 -49.5t124 49.5t51 121.5z" />
    <glyph glyph-name="integral" unicode="&#x222b;" horiz-adv-x="373" 
d="M144 -55v586q0 44 12 76t26.5 46.5t37 22.5t33 8.5t25.5 0.5h3q37 0 72 -18l-8 -58q-116 37 -116 -67v-586q0 -44 -12 -76t-26.5 -46.5t-37 -22.5t-33 -8.5t-25.5 -0.5h-3q-37 0 -72 18l8 58q116 -37 116 67z" />
    <glyph glyph-name="approxequal" unicode="&#x2248;" horiz-adv-x="469" 
d="M158 432q20 0 48 -9.5t50 -18t44.5 -12t41.5 9.5t31 46h56q-20 -73 -32 -92q-27 -42 -91 -42q-18 0 -37 5.5t-43 16.5l-24 10q-45 17 -67.5 5.5t-38.5 -54.5h-56q3 9 8 29.5t8 29t9.5 24t13.5 22.5t18 15.5t26 11.5t35 3zM158 232q20 0 48 -9.5t50 -18t44.5 -12t41.5 9.5
t31 46h56q-20 -73 -32 -92q-27 -42 -91 -42q-14 0 -30.5 4t-28 8.5t-26.5 11t-19 8.5q-45 17 -67.5 5.5t-38.5 -54.5h-56q3 9 8 29.5t8 29t9.5 24t13.5 22.5t18 15.5t26 11.5t35 3z" />
    <glyph glyph-name="notequal" unicode="&#x2260;" horiz-adv-x="584" 
d="M82 0l117 200h-149v65h187l75 129h-262v65h300l126 215h55l-126 -215h129v-65h-167l-75 -129h242v-65h-280l-116 -200h-56z" />
    <glyph glyph-name="equivalence" unicode="&#x2261;" horiz-adv-x="564" 
d="M524 293h-484v65h484v-65zM524 171h-484v65h484v-65zM524 419h-484v65h484v-65z" />
    <glyph glyph-name="lessequal" unicode="&#x2264;" horiz-adv-x="586" 
d="M536 610v-77l-387 -165l387 -165v-76l-486 216v51zM51 65h484v-65h-484v65z" />
    <glyph glyph-name="greaterequal" unicode="&#x2265;" horiz-adv-x="586" 
d="M50 533v77l486 -216v-51l-486 -216v76l387 165zM51 65h484v-65h-484v65z" />
    <glyph glyph-name="propersubset" unicode="&#x2282;" horiz-adv-x="548" 
d="M282 67h226v-67h-226q-101 0 -171.5 71t-70.5 171t70.5 171t171.5 71h226v-67h-226q-72 0 -121.5 -51t-49.5 -124t49.5 -124t121.5 -51z" />
    <glyph glyph-name="propersuperset" unicode="&#x2283;" horiz-adv-x="548" 
d="M40 67h226q72 0 121.5 51t49.5 124t-49.5 124t-121.5 51h-226v67h226q101 0 171.5 -71t70.5 -171t-70.5 -171t-171.5 -71h-226v67z" />
    <glyph glyph-name="notsubset" unicode="&#x2284;" horiz-adv-x="548" 
d="M429 484h79v-67h-107l-146 -349q9 -1 27 -1h226v-67h-226q-28 0 -53 6l-32 -78h-53l39 93q-65 28 -104 87.5t-39 133.5q0 100 70.5 171t171.5 71h95l35 84h52zM209 83l140 334h-67q-72 0 -121.5 -51t-49.5 -124q0 -54 26.5 -96t71.5 -63z" />
    <glyph glyph-name="reflexsubset" unicode="&#x2286;" horiz-adv-x="550" 
d="M510 0h-465v62h465v-62zM282 180h226v-67h-226q-101 0 -171.5 71t-70.5 171t70.5 171t171.5 71h226v-67h-226q-72 0 -121.5 -51t-49.5 -124t49.5 -124t121.5 -51z" />
    <glyph glyph-name="reflexsuperset" unicode="&#x2287;" horiz-adv-x="550" 
d="M505 0h-465v62h465v-62zM42 180h226q72 0 121.5 51t49.5 124t-49.5 124t-121.5 51h-226v67h226q101 0 171.5 -71t70.5 -171t-70.5 -171t-171.5 -71h-226v67z" />
    <glyph glyph-name="circleplus" unicode="&#x2295;" horiz-adv-x="776" 
d="M142 583q102 102 246 102t246 -102t102 -246t-102 -246t-246 -102t-246 102t-102 246t102 246zM590 539q-71 71 -171 82v-254h253q-11 101 -82 172zM186 539q-71 -71 -82 -172h250l-1 254q-100 -13 -167 -82zM590 135q70 70 81 167h-252v-249q100 11 171 82zM186 135
q67 -69 167 -82l1 249h-250q13 -99 82 -167z" />
    <glyph glyph-name="circlemultiply" unicode="&#x2297;" horiz-adv-x="776" 
d="M40 337q0 144 102 246t246 102t246 -102t102 -246t-102 -246t-246 -102t-246 102t-102 246zM388 623q-100 0 -179 -63l180 -180l179 179q-78 64 -180 64zM102 337q0 -102 64 -180l177 177l-180 179q-61 -75 -61 -176zM674 337q0 100 -61 175l-178 -178l176 -176
q63 79 63 179zM388 51q101 0 176 61l-175 176l-177 -177q75 -60 176 -60z" />
    <glyph glyph-name="triangleright" unicode="&#x22b2;" horiz-adv-x="466" 
d="M60 125v420l346 -210z" />
    <glyph glyph-name="triangleleft" unicode="&#x22b3;" horiz-adv-x="466" 
d="M406 545v-420l-346 210z" />
    <glyph glyph-name="dotmath" unicode="&#x22c5;" horiz-adv-x="182" 
d="M30 160v117h122v-117h-122z" />
    <glyph glyph-name="uni2318" unicode="&#x2318;" horiz-adv-x="701" 
d="M241 156v67h-68q-28 0 -47 -19.5t-19 -47.5t19.5 -48.5t47.5 -20.5t47.5 20.5t19.5 48.5zM241 440v68q0 29 -19 48.5t-47 19.5t-48 -19.5t-20 -48.5q0 -28 20 -48t48 -20h66zM289 269h124v125h-124v-125zM594 156q0 28 -18.5 47.5t-46.5 19.5h-68v-67q0 -28 19.5 -48.5
t47.5 -20.5q27 0 46.5 20.5t19.5 48.5zM594 508q0 29 -19 48.5t-47 19.5t-47.5 -19.5t-19.5 -48.5v-68h68q27 0 46 20t19 48zM641 156q0 -47 -33.5 -81t-79.5 -34q-47 0 -81 34t-34 81v67h-124v-67q0 -47 -34 -81t-81 -34t-80.5 34t-33.5 81q0 46 33.5 79.5t80.5 33.5h67
v125h-66q-47 0 -81 33.5t-34 80.5t34 80.5t81 33.5t80.5 -33.5t33.5 -80.5v-68h124v68q0 47 34 80.5t81 33.5q46 0 79.5 -33.5t33.5 -80.5q0 -46 -33.5 -80t-79.5 -34h-67v-125h67q46 0 79.5 -33.5t33.5 -79.5z" />
    <glyph glyph-name="angleleft" unicode="&#x2329;" horiz-adv-x="383" 
d="M40 337l250 337l53 -38l-222 -299l222 -299l-53 -38z" />
    <glyph glyph-name="angleright" unicode="&#x232a;" horiz-adv-x="383" 
d="M93 674l250 -337l-250 -337l-53 38l222 299l-222 299z" />
    <glyph glyph-name="blacksquare" unicode="&#x25a0;" horiz-adv-x="539" 
d="M60 91v419h419v-419h-419z" />
    <glyph glyph-name="lozenge" unicode="&#x25ca;" horiz-adv-x="528" 
d="M287 -1h-46l-221 337l221 338h46l221 -338zM264 577l-157 -241l157 -238l157 238z" />
    <glyph glyph-name="circlesolid" unicode="&#x25cf;" horiz-adv-x="536" 
d="M60 302q0 86 61 147t147 61t147 -61t61 -147t-61 -147t-147 -61t-147 61t-61 147z" />
    <glyph glyph-name="blackstar" unicode="&#x2605;" horiz-adv-x="687" 
d="M627 400l-176 -128l68 -206l-176 127l-175 -127l67 206l-175 128h216l67 206l67 -206h217z" />
    <glyph glyph-name="diamond" unicode="&#x2666;" horiz-adv-x="621" 
d="M561 331l-251 -250l-250 250l250 251z" />
    <glyph glyph-name="s_t" unicode="&#xfb06;" horiz-adv-x="740" 
d="M510 484v123h-115q-40 0 -56 -22.5t-16 -49.5v-58q24 -10 59 -32l-35 -59q-35 25 -88.5 34t-95 -5t-41.5 -50q0 -17 4.5 -27t20.5 -19.5t32 -15.5t56 -20.5t75 -29.5q39 -16 61 -40.5t26 -51.5t1 -50t-12 -43q-24 -55 -98 -73t-166 9q-55 18 -92 51l36 60
q28 -24 80.5 -40.5t104.5 -10.5t67 42q3 9 3.5 17.5t-1 14.5t-5 12t-6.5 9.5t-8.5 7t-8 5t-7.5 3.5l-5 2l-146 57q-108 48 -90 150q10 57 66.5 88.5t135.5 21.5v26q0 43 13 74.5t28.5 46.5t38.5 23t34 9t23 1h212v-190h112v-69h-112v-271q0 -115 118 -76l7 -63
q-31 -16 -72 -16h-4h-17t-22.5 2.5t-26.5 8t-24.5 16.5t-22.5 26.5t-15 41t-6 57.5v274h-68v69h68z" />
    <glyph glyph-name="_55" horiz-adv-x="0" 
 />
    <glyph glyph-name="_117" horiz-adv-x="0" 
 />
    <glyph glyph-name="kcommaaccent" horiz-adv-x="480" 
d="M262 304l213 -304h-99l-172 257l-58 -59v-198h-86v674h86v-377l191 187h106zM153 -200l70 147h90l-94 -147h-66z" />
    <glyph glyph-name="zero.taboldstyle" horiz-adv-x="580" 
d="M288 -9q-81 0 -126 63t-45 179t45 179t126 63q83 0 129 -63t46 -179t-46 -179t-129 -63zM288 405q-47 0 -72.5 -51t-25.5 -121q0 -74 25 -124t73 -50q50 0 75.5 50t25.5 124q0 71 -25.5 121.5t-75.5 50.5z" />
    <glyph glyph-name="one.taboldstyle" horiz-adv-x="580" 
d="M129 0v65h134l1 324l-97 -70l-36 54l132 96h80v-404h134v-65h-348z" />
    <glyph glyph-name="two.taboldstyle" horiz-adv-x="580" 
d="M145 343l-44 48q22 28 71 55t119 27q80 0 132.5 -39t52.5 -107q0 -13 -2 -23.5t-7.5 -21t-9 -17t-14 -17t-14.5 -14t-18 -15.5t-18 -15q-17 -14 -64 -41t-77.5 -51t-34.5 -44h261v-68h-360v29q0 37 23 71t48 53t78 53.5t77 52.5q51 42 51 68q0 75 -107 75
q-38 0 -68 -10.5t-44 -21t-31 -27.5z" />
    <glyph glyph-name="six.taboldstyle" horiz-adv-x="580" 
d="M146 340q16 45 63 67t92 22q95 0 155.5 -60.5t60.5 -160.5q0 -103 -62 -161.5t-160 -58.5q-58 0 -102 22t-68 54.5t-38.5 78t-19 83.5t-4.5 80q0 176 72 265.5t191 89.5q47 0 80 -6.5t47 -14t30 -20.5l-30 -63q-42 35 -112 35q-93 0 -144 -66t-51 -186zM293 59
q69 0 104.5 46.5t35.5 102.5q0 57 -36.5 106t-104.5 49q-64 0 -100 -43.5t-36 -105.5q0 -67 37.5 -111t99.5 -44z" />
    <glyph glyph-name="eight.taboldstyle" horiz-adv-x="580" 
d="M290 663q27 0 36 -1l14 -2q63 -6 111 -53.5t48 -115.5q0 -115 -116 -148q43 -11 73 -33t43 -49t17.5 -48t4.5 -42q0 -78 -61 -130t-170 -52q-114 0 -172.5 51.5t-58.5 130.5q0 21 4.5 42t17.5 48t43 49t73 33q-116 34 -116 148q0 68 48 115.5t111 53.5l14 2q9 1 36 1z
M290 57q68 0 109 36.5t41 84.5q0 51 -39.5 89.5t-110.5 38.5t-109.5 -38.5t-38.5 -89.5q0 -48 40 -84.5t108 -36.5zM290 379q62 0 93 29.5t32 82.5q0 44 -32 77.5t-93 33.5t-93 -33.5t-32 -77.5q1 -53 32 -82.5t93 -29.5z" />
    <glyph glyph-name="three.taboldstyle" horiz-adv-x="580" 
d="M290 -203q-33 0 -64 6t-51.5 14t-40.5 20t-30 20t-21 18t-12 11l31 59q1 -1 12.5 -9.5t18 -13.5t20.5 -14t27 -14.5t30 -11.5t36 -9t39 -3q68 0 105.5 31t37.5 84q0 54 -41.5 84t-102.5 30h-65v77h65q63 0 95.5 30.5t32.5 73.5q0 46 -35 82.5t-96 36.5q-51 0 -94.5 -25
t-66.5 -51l-29 60q7 10 18.5 21t34.5 28t60.5 28t81.5 11q40 0 76 -11t66.5 -32.5t49 -59t18.5 -86.5t-28.5 -89.5t-91.5 -54.5q66 -13 99 -54.5t33 -96.5q0 -89 -60 -139.5t-158 -50.5z" />
    <glyph glyph-name="four.taboldstyle" horiz-adv-x="580" 
d="M438 -190h-82v139h-312v80q21 41 47 83.5t45 71t55.5 76.5t50 64.5t59 71.5t52.5 64h85v-443h98v-68h-98v-139zM113 17h243v345q-183 -222 -243 -345z" />
    <glyph glyph-name="five.taboldstyle" horiz-adv-x="580" 
d="M433 21q0 55 -36 100t-114 45q-95 0 -117 -65h-81l43 359h340v-78h-273l-27 -193q43 49 144 49q83 0 142 -61t59 -159q0 -108 -68 -164.5t-173 -56.5q-57 0 -113 21.5t-93 67.5l37 62q22 -33 69.5 -57t89.5 -24q83 0 127 43.5t44 110.5z" />
    <glyph glyph-name="seven.taboldstyle" horiz-adv-x="580" 
d="M65 380v80h450v-75q-110 -138 -178.5 -272.5t-124.5 -302.5h-96q65 172 138.5 308t176.5 262h-366z" />
    <glyph glyph-name="nine.taboldstyle" horiz-adv-x="580" 
d="M434 121q-16 -45 -63 -67t-92 -22q-95 0 -155.5 60.5t-60.5 160.5q0 103 62 161.5t160 58.5q58 0 102 -22t68 -54.5t38.5 -78t19 -83.5t4.5 -80q0 -176 -72 -265.5t-191 -89.5q-47 0 -80 6.5t-47 14t-30 20.5l30 63q42 -35 112 -35q93 0 144 66t51 186zM287 402
q-69 0 -104.5 -46.5t-35.5 -102.5q0 -57 36.5 -106t104.5 -49q64 0 100 43.5t36 105.5q0 67 -37.5 111t-99.5 44z" />
    <glyph glyph-name="zero.titling" horiz-adv-x="590" 
d="M293 -13q-112 0 -175.5 88.5t-63.5 248.5q0 161 63 249t176 88q115 0 179 -88t64 -249t-64 -249t-179 -88zM293 589q-76 0 -115.5 -77t-39.5 -188q0 -114 39 -190.5t116 -76.5q53 0 89.5 38t52.5 96.5t16 132.5q0 111 -40 188t-118 77z" />
    <glyph glyph-name="one.titling" horiz-adv-x="366" 
d="M83 444l-48 48l156 158h80v-650h-80v556z" />
    <glyph glyph-name="two.titling" horiz-adv-x="555" 
d="M250 588q-54 0 -99.5 -25.5t-68.5 -51.5l-31 61q71 88 204 88q106 0 163.5 -54.5t57.5 -134.5q0 -54 -23 -93t-98 -87q-112 -65 -167 -114t-55 -101h343v-76h-425v9v31q0 45 14 83.5t34.5 67t57.5 59t69.5 51t84.5 49.5q86 50 86 119q0 61 -41.5 90t-105.5 29z" />
    <glyph glyph-name="three.titling" horiz-adv-x="521" 
d="M251 -13q-33 0 -64 6t-51.5 14t-40.5 20t-30 20t-21 18t-12 11l31 59q1 -1 12.5 -9.5t18 -13.5t20.5 -14t27 -14.5t30 -11.5t36 -9t39 -3q68 0 105.5 31t37.5 84q0 54 -41.5 84t-102.5 30h-65v77h65q63 0 95.5 30.5t32.5 73.5q0 46 -35 82.5t-96 36.5q-51 0 -94.5 -25
t-66.5 -51l-29 60q7 10 18.5 21t34.5 28t60.5 28t81.5 11q40 0 76 -11t66.5 -32.5t49 -59t18.5 -86.5t-28.5 -89.5t-91.5 -54.5q66 -13 99 -54.5t33 -96.5q0 -89 -60 -139.5t-158 -50.5z" />
    <glyph glyph-name="four.titling" horiz-adv-x="550" 
d="M423 0h-82v139h-312v80q21 41 47 83.5t45 71t55.5 76.5t49.5 64.5t59 71.5t53 64h85v-443h98v-68h-98v-139zM98 207h243v345q-183 -222 -243 -345z" />
    <glyph glyph-name="five.titling" horiz-adv-x="550" 
d="M418 211q0 55 -36 100t-114 45q-95 0 -117 -65h-81l43 359h340v-78h-273l-27 -193q43 49 144 49q83 0 142 -61t59 -159q0 -108 -68 -164.5t-173 -56.5q-57 0 -113 21.5t-93 67.5l37 62q23 -33 70 -57t89 -24q83 0 127 43.5t44 110.5z" />
    <glyph glyph-name="six.titling" horiz-adv-x="550" 
d="M131 340q16 45 63 67t92 22q95 0 155.5 -60.5t60.5 -160.5q0 -103 -62 -161.5t-160 -58.5q-58 0 -102 22t-68 54.5t-38.5 78t-19 83.5t-4.5 80q0 176 72 265.5t191 89.5q47 0 80 -6.5t47 -14t30 -20.5l-30 -63q-42 35 -112 35q-93 0 -144 -66t-51 -186zM278 59
q69 0 104.5 46.5t35.5 102.5q0 57 -36.5 106t-104.5 49q-64 0 -100 -43.5t-36 -105.5q0 -67 37.5 -111t99.5 -44z" />
    <glyph glyph-name="seven.titling" horiz-adv-x="513" 
d="M34 570v80h450v-75q-110 -138 -178.5 -272.5t-124.5 -302.5h-96q65 172 138.5 308t176.5 262h-366z" />
    <glyph glyph-name="eight.titling" horiz-adv-x="550" 
d="M275 661q27 0 36 -1l14 -2q63 -6 111 -53.5t48 -115.5q0 -115 -116 -148q43 -11 73 -33t43 -49t17.5 -48t4.5 -42q0 -78 -61 -130t-170 -52q-114 0 -172.5 51.5t-58.5 130.5q0 21 4.5 42t17.5 48t43 49t73 33q-116 34 -116 148q0 68 48 115.5t111 53.5l14 2q9 1 36 1z
M275 55q68 0 109 36.5t41 84.5q0 51 -39.5 89.5t-110.5 38.5t-109.5 -38.5t-38.5 -89.5q0 -48 40 -84.5t108 -36.5zM275 377q62 0 93 29.5t32 82.5q0 44 -32 77.5t-93 33.5t-93 -33.5t-32 -77.5q1 -53 32 -82.5t93 -29.5z" />
    <glyph glyph-name="nine.titling" horiz-adv-x="550" 
d="M419 309q-16 -45 -63 -67t-92 -22q-95 0 -155.5 60.5t-60.5 160.5q0 103 62 161.5t160 58.5q58 0 102 -22t68 -54.5t38.5 -78t19 -83.5t4.5 -80q0 -176 -72 -265.5t-191 -89.5q-47 0 -81 7.5t-45.5 13.5t-30.5 20l30 63q42 -35 112 -35q93 0 144 66t51 186zM272 590
q-69 0 -104.5 -46.5t-35.5 -102.5q0 -57 36.5 -106t104.5 -49q64 0 100 43.5t36 105.5q0 67 -37.5 111t-99.5 44z" />
    <glyph glyph-name="zero.denominator" horiz-adv-x="350" 
d="M174 -6q-66 0 -103.5 50t-37.5 142t37 142t104 50q68 0 105 -49.5t37 -142.5q0 -92 -37 -142t-105 -50zM174 330q-37 0 -57 -42.5t-20 -101.5q0 -61 19.5 -102.5t57.5 -41.5q39 0 58.5 41.5t19.5 102.5q0 59 -19.5 101.5t-58.5 42.5z" />
    <glyph glyph-name="one.denominator" horiz-adv-x="256" 
d="M63 240l-37 37l91 93h58v-370h-63v293q-5 -6 -22.5 -25t-26.5 -28z" />
    <glyph glyph-name="two.denominator" horiz-adv-x="350" 
d="M163 323q-26 0 -51.5 -14.5t-39.5 -30.5l-23 45l3 3l6.5 6.5l7.5 7.5t10.5 8.5t12.5 7.5t15.5 7t18 6t20.5 4.5t23 1.5q61 0 93.5 -31.5t32.5 -77.5q0 -30 -14 -54t-57 -52l-54 -39q-52 -37 -57 -68h176v-53h-242v27q0 24 8 45.5t16.5 35t31.5 32.5t34 26.5t43 29.5l15 9
q36 24 36 59q0 59 -65 59z" />
    <glyph glyph-name="three.denominator" horiz-adv-x="324" 
d="M151 -7q-76 0 -130 54l22 42q1 -1 8 -6t11.5 -8t13 -8t16 -8.5t17 -7t19.5 -5t20 -1.5q34 0 52 15.5t18 42.5t-20 42t-51 15h-44v54h44q31 0 46 15t16 37q0 22 -17 41t-46 19q-25 0 -51.5 -15t-39.5 -29l-23 42l5 6q5 5 9 8.5t11.5 9.5t16.5 10.5t20 9t25 7t30 2.5
q50 0 87 -27.5t37 -82.5q0 -52 -53 -79q60 -25 60 -84q0 -53 -35.5 -82t-93.5 -29z" />
    <glyph glyph-name="four.denominator" horiz-adv-x="350" 
d="M266 0h-64v77h-172v50q46 88 162 228l12 15h62v-245h53v-48h-53v-77zM89 125h113v162q-83 -103 -113 -162z" />
    <glyph glyph-name="five.denominator" horiz-adv-x="350" 
d="M246 119q0 29 -18 51.5t-56 22.5q-45 0 -57 -36h-62l25 209h204v-54h-151q-1 -8 -4.5 -35.5t-6.5 -46.5q28 14 67 14q50 0 85 -35.5t35 -91.5q0 -62 -40 -95t-101 -33q-77 0 -124 54l29 49q14 -20 41 -36t48 -16q43 0 64.5 21.5t21.5 57.5z" />
    <glyph glyph-name="six.denominator" horiz-adv-x="350" 
d="M203 326q-44 0 -73 -31.5t-29 -89.5q11 21 35.5 32t44.5 11q57 0 92 -34t35 -93q0 -61 -35.5 -94.5t-94.5 -33.5q-42 0 -71.5 18t-42.5 48t-18 57t-5 58q0 100 41.5 151t111.5 51q59 0 97 -26l-22 -44q-21 20 -66 20zM177 43q33 0 50.5 24t17.5 54q0 29 -17.5 54
t-51.5 25q-31 0 -49 -22t-18 -54q0 -34 19 -57.5t49 -23.5z" />
    <glyph glyph-name="seven.denominator" horiz-adv-x="350" 
d="M42 315v55h266v-48q-113 -146 -168 -322h-71q61 167 177 315h-204z" />
    <glyph glyph-name="eight.denominator" horiz-adv-x="350" 
d="M175 377q15 0 20 -1q3 -1 8 -1q39 -7 67.5 -33.5t28.5 -65.5q0 -60 -53 -81q65 -26 65 -96q0 -45 -35.5 -75.5t-100.5 -30.5q-67 0 -102 30.5t-35 75.5q0 69 66 96q-53 21 -53 81q0 39 28.5 65.5t67.5 33.5l9 1q10 1 19 1zM175 43q34 0 54 17.5t20 42.5q0 26 -19 45
t-55 20q-36 -1 -54.5 -20t-18.5 -45q0 -25 19.5 -42.5t53.5 -17.5zM175 220q58 0 60 56q0 22 -15 38.5t-45 16.5t-45.5 -17t-15.5 -38q2 -56 61 -56z" />
    <glyph glyph-name="nine.denominator" horiz-adv-x="350" 
d="M146 39q42 0 70 33.5t29 84.5q-26 -40 -76 -40q-57 0 -92.5 34.5t-35.5 92.5q0 61 36 94.5t95 33.5q42 0 71.5 -18t42 -48t17.5 -57t5 -58q0 -99 -41.5 -150.5t-111.5 -51.5q-62 0 -96 26l19 46q25 -22 68 -22zM173 322q-34 0 -51.5 -24t-17.5 -54q0 -29 18 -54t52 -25
q31 0 48.5 22t17.5 54q0 35 -18.5 58t-48.5 23z" />
    <glyph glyph-name="zero.numerator" horiz-adv-x="350" 
d="M174 299q-66 0 -103.5 50t-37.5 142t37 142t104 50q68 0 105 -49.5t37 -142.5q0 -92 -37 -142t-105 -50zM174 636q-37 0 -57 -43t-20 -102q0 -61 19.5 -103t57.5 -42q39 0 58.5 41.5t19.5 103.5q0 60 -19.5 102.5t-58.5 42.5z" />
    <glyph glyph-name="one.numerator" horiz-adv-x="256" 
d="M71 544l-37 37l91 93h58v-370h-63v293q-5 -6 -22.5 -25t-26.5 -28z" />
    <glyph glyph-name="two.numerator" horiz-adv-x="350" 
d="M170 633q-26 0 -51.5 -16.5t-39.5 -33.5l-23 50l4 3q3 4 5.5 6.5l7.5 7.5t10.5 8.5t12.5 7.5t15.5 7t18 6t20.5 4.5t23 1.5q61 0 93.5 -31.5t32.5 -77.5q0 -30 -14 -54t-57 -52l-54 -39q-52 -37 -57 -68h176v-53h-242v27q0 24 8 45.5t16.5 35t31.5 32.5t34 26.5t43 29.5
l15 9h-1q37 24 37 59q0 59 -65 59z" />
    <glyph glyph-name="three.numerator" horiz-adv-x="325" 
d="M163 302q-75 0 -124 49l-6 5l22 46q2 -1 12 -9t18.5 -13t20.5 -12t26 -10.5t28 -3.5q34 0 52 15.5t18 42.5t-20 42t-51 15h-44v54h44q31 0 46 15t16 37q0 22 -17 41t-46 19q-25 0 -50.5 -17t-40.5 -34l-23 49l5 5q5 6 9 9.5t11.5 9.5t16.5 10.5t20 9t25 7t30 2.5
q50 0 87 -27.5t37 -82.5q0 -52 -53 -79q60 -25 60 -84q0 -53 -35.5 -82t-93.5 -29z" />
    <glyph glyph-name="four.numerator" horiz-adv-x="350" 
d="M266 305h-64v77h-172v50q21 40 53 86t52.5 72t68.5 85h62v-245h53v-48h-53v-77zM89 430h113v162q-83 -103 -113 -162z" />
    <glyph glyph-name="five.numerator" horiz-adv-x="350" 
d="M246 428q0 29 -18 51.5t-56 22.5q-45 0 -57 -36h-62l25 209h204v-54h-151q-1 -8 -4.5 -35.5t-6.5 -46.5q28 14 67 14q50 0 85 -35.5t35 -91.5q0 -62 -40 -95t-101 -33q-77 0 -124 54l29 49q14 -20 41 -36t48 -16q43 0 64.5 21.5t21.5 57.5z" />
    <glyph glyph-name="six.numerator" horiz-adv-x="350" 
d="M203 634q-44 0 -73 -31.5t-29 -89.5q11 21 35.5 32t44.5 11q57 0 92 -34t35 -93q0 -61 -35.5 -94.5t-94.5 -33.5q-42 0 -71.5 18t-42.5 48t-18 57t-5 58q0 100 41.5 151t111.5 51q59 0 97 -26l-22 -44q-21 20 -66 20zM177 351q33 0 50.5 24t17.5 54q0 29 -17.5 54
t-51.5 25q-31 0 -49 -22t-18 -54q0 -34 19 -57.5t49 -23.5z" />
    <glyph glyph-name="seven.numerator" horiz-adv-x="350" 
d="M42 619v55h266v-48q-113 -146 -168 -322h-71q61 167 177 315h-204z" />
    <glyph glyph-name="eight.numerator" horiz-adv-x="350" 
d="M175 684q15 0 20 -1q3 -1 8 -1q39 -7 67.5 -33.5t28.5 -65.5q0 -60 -53 -81q65 -26 65 -96q0 -45 -35.5 -75.5t-100.5 -30.5q-67 0 -102 30.5t-35 75.5q0 69 66 96q-53 21 -53 81q0 39 28.5 65.5t67.5 33.5l9 1q10 1 19 1zM175 350q34 0 54 17.5t20 42.5q0 26 -19 45
t-55 20q-36 -1 -54.5 -20t-18.5 -45q0 -25 19.5 -42.5t53.5 -17.5zM175 527q58 0 60 56q0 22 -15 38.5t-45 16.5t-45.5 -17t-15.5 -38q2 -56 61 -56z" />
    <glyph glyph-name="nine.numerator" horiz-adv-x="350" 
d="M146 352q42 0 70 33.5t29 84.5q-26 -40 -76 -40q-57 0 -92.5 34.5t-35.5 92.5q0 61 36 94.5t95 33.5q42 0 71.5 -18t42 -48t17.5 -57t5 -58q0 -99 -41.5 -150.5t-111.5 -51.5q-62 0 -96 26l19 46q25 -22 68 -22zM173 635q-34 0 -51.5 -24t-17.5 -54q0 -29 18 -54t52 -25
q31 0 48.5 22t17.5 54q0 35 -18.5 58t-48.5 23z" />
    <glyph glyph-name="a.alt" horiz-adv-x="564" 
d="M418 435v60h86v-495h-85v55q-17 -30 -57 -46.5t-60 -18t-39 -1.5q-97 0 -162.5 71.5t-65.5 181.5q0 111 66.5 182.5t165.5 71.5q42 0 89.5 -16.5t61.5 -44.5zM283 425q-85 0 -124 -50.5t-39 -132.5q0 -79 37 -130.5t108 -51.5q153 0 153 107v156q0 47 -47.5 74.5
t-87.5 27.5z" />
    <glyph glyph-name="aacute.alt" horiz-adv-x="564" 
d="M242 542l81 132h92l-105 -132h-68zM418 435v60h86v-495h-85v55q-17 -30 -57 -46.5t-60 -18t-39 -1.5q-97 0 -162.5 71.5t-65.5 181.5q0 111 66.5 182.5t165.5 71.5q42 0 89.5 -16.5t61.5 -44.5zM283 425q-85 0 -124 -50.5t-39 -132.5q0 -79 37 -130.5t108 -51.5
q153 0 153 107v156q0 47 -47.5 74.5t-87.5 27.5z" />
    <glyph glyph-name="agrave.alt" horiz-adv-x="564" 
d="M284 674l81 -132h-68l-105 132h92zM418 435v60h86v-495h-85v55q-17 -30 -57 -46.5t-60 -18t-39 -1.5q-97 0 -162.5 71.5t-65.5 181.5q0 111 66.5 182.5t165.5 71.5q42 0 89.5 -16.5t61.5 -44.5zM283 425q-85 0 -124 -50.5t-39 -132.5q0 -79 37 -130.5t108 -51.5
q153 0 153 107v156q0 47 -47.5 74.5t-87.5 27.5z" />
    <glyph glyph-name="acircumflex.alt" horiz-adv-x="564" 
d="M236 674h101l96 -132h-68l-78 85l-79 -85h-68zM418 435v60h86v-495h-85v55q-17 -30 -57 -46.5t-60 -18t-39 -1.5q-97 0 -162.5 71.5t-65.5 181.5q0 111 66.5 182.5t165.5 71.5q42 0 89.5 -16.5t61.5 -44.5zM283 425q-85 0 -124 -50.5t-39 -132.5q0 -79 37 -130.5
t108 -51.5q153 0 153 107v156q0 47 -47.5 74.5t-87.5 27.5z" />
    <glyph glyph-name="adieresis.alt" horiz-adv-x="564" 
d="M181 587v87h86v-87h-86zM328 587v87h86v-87h-86zM418 435v60h86v-495h-85v55q-17 -30 -57 -46.5t-60 -18t-39 -1.5q-97 0 -162.5 71.5t-65.5 181.5q0 111 66.5 182.5t165.5 71.5q42 0 89.5 -16.5t61.5 -44.5zM283 425q-85 0 -124 -50.5t-39 -132.5q0 -79 37 -130.5
t108 -51.5q153 0 153 107v156q0 47 -47.5 74.5t-87.5 27.5z" />
    <glyph glyph-name="atilde.alt" horiz-adv-x="564" 
d="M234 674q20 0 57 -18t62.5 -18t39.5 36h41q-6 -102 -91 -102q-21 0 -77 23q-32 12 -49 6t-29 -35h-41q5 50 22.5 79t64.5 29zM418 435v60h86v-495h-85v55q-17 -30 -57 -46.5t-60 -18t-39 -1.5q-97 0 -162.5 71.5t-65.5 181.5q0 111 66.5 182.5t165.5 71.5
q42 0 89.5 -16.5t61.5 -44.5zM283 425q-85 0 -124 -50.5t-39 -132.5q0 -79 37 -130.5t108 -51.5q153 0 153 107v156q0 47 -47.5 74.5t-87.5 27.5z" />
    <glyph glyph-name="aring.alt" horiz-adv-x="564" 
d="M193 641q0 40 22.5 67t69.5 27q92 0 92 -94t-92 -94q-47 0 -69.5 27t-22.5 67zM330 641q0 48 -46 48q-45 0 -45 -48t45 -48q46 0 46 48zM418 435v60h86v-495h-85v55q-17 -30 -57 -46.5t-60 -18t-39 -1.5q-97 0 -162.5 71.5t-65.5 181.5q0 111 66.5 182.5t165.5 71.5
q42 0 89.5 -16.5t61.5 -44.5zM283 425q-85 0 -124 -50.5t-39 -132.5q0 -79 37 -130.5t108 -51.5q153 0 153 107v156q0 47 -47.5 74.5t-87.5 27.5z" />
    <glyph glyph-name="abreve.alt" horiz-adv-x="564" 
d="M280 554q-72 0 -105.5 39.5t-29.5 103.5h52q-1 -39 17.5 -59t66.5 -20t66.5 20t17.5 59h52q4 -64 -29.5 -103.5t-107.5 -39.5zM418 435v60h86v-495h-85v55q-17 -30 -57 -46.5t-60 -18t-39 -1.5q-97 0 -162.5 71.5t-65.5 181.5q0 111 66.5 182.5t165.5 71.5
q42 0 89.5 -16.5t61.5 -44.5zM283 425q-85 0 -124 -50.5t-39 -132.5q0 -79 37 -130.5t108 -51.5q153 0 153 107v156q0 47 -47.5 74.5t-87.5 27.5z" />
    <glyph glyph-name="amacron.alt" horiz-adv-x="564" 
d="M181 584v66h231v-66h-231zM418 435v60h86v-495h-85v55q-17 -30 -57 -46.5t-60 -18t-39 -1.5q-97 0 -162.5 71.5t-65.5 181.5q0 111 66.5 182.5t165.5 71.5q42 0 89.5 -16.5t61.5 -44.5zM283 425q-85 0 -124 -50.5t-39 -132.5q0 -79 37 -130.5t108 -51.5q153 0 153 107
v156q0 47 -47.5 74.5t-87.5 27.5z" />
    <glyph glyph-name="aogonek.alt" horiz-adv-x="563" 
d="M419 0v55q-17 -30 -57 -46.5t-60 -18t-39 -1.5q-97 0 -162.5 71.5t-65.5 181.5q0 111 66.5 182.5t165.5 71.5q42 0 89.5 -16.5t61.5 -44.5v60h86v-495h-27q-26 -40 -31.5 -76t14 -55t62.5 -9l41 12v-48q-40 -19 -77 -23q-62 -6 -91.5 32t-14.5 93q8 32 39 74zM283 425
q-85 0 -124 -50.5t-39 -132.5q0 -79 37 -130.5t108 -51.5q153 0 153 107v156q0 47 -47.5 74.5t-87.5 27.5z" />
    <glyph glyph-name="aringacute.alt" horiz-adv-x="564" 
d="M195 641q0 40 22.5 67t69.5 27q92 0 92 -94t-92 -94q-47 0 -69.5 27t-22.5 67zM332 641q0 48 -46 48q-45 0 -45 -48t45 -48q46 0 46 48zM247 758l81 132h92l-105 -132h-68zM418 435v60h86v-495h-85v55q-17 -30 -57 -46.5t-60 -18t-39 -1.5q-97 0 -162.5 71.5t-65.5 181.5
q0 111 66.5 182.5t165.5 71.5q42 0 89.5 -16.5t61.5 -44.5zM283 425q-85 0 -124 -50.5t-39 -132.5q0 -79 37 -130.5t108 -51.5q153 0 153 107v156q0 47 -47.5 74.5t-87.5 27.5z" />
    <glyph glyph-name="T_h" horiz-adv-x="1008" 
d="M948 286v-286h-86v286q0 139 -109 139q-18 0 -38 -5t-45 -18t-41 -42t-16 -71v-289h-86v598h-219v-598h-86v598h-217v76h608v-258q35 80 152 80q90 0 136.5 -50t46.5 -160z" />
    <glyph glyph-name="c_t" horiz-adv-x="761" 
d="M35 242q0 117 61.5 183.5t170.5 70.5v24q0 43 13 74.5t28.5 46.5t38.5 23t34 9t23 1h212v-190h112v-69h-112v-271q0 -115 118 -76l7 -63q-31 -16 -72 -16h-4h-17t-22.5 2.5t-26.5 8t-24.5 16.5t-22.5 26.5t-15 41t-6 57.5v274h-68v69h68v123h-115q-40 0 -56 -22.5
t-16 -49.5v-44q52 -7 77 -21l-19 -66q-54 19 -106 19q-89 0 -133.5 -51.5t-44.5 -129.5t44.5 -130t133.5 -52q50 0 106 20l19 -66q-52 -27 -143 -27q-114 0 -178.5 67.5t-64.5 187.5z" />
    <glyph glyph-name="asuperior" horiz-adv-x="333" 
d="M283 458h-69v29q-14 -18 -38 -27t-39 -9q-48 0 -80 24t-32 67q0 100 191 108v13q0 39 -44 45q-7 1 -15 1q-40 0 -78 -21l-11 -6l-17 44l3 2q2 2 7 5t12 6.5t16.5 7.5t20 7t23.5 4.5t26 1.5q36 0 62 -10q62 -22 62 -85v-207zM138 502q12 0 26.5 2.5t33 16.5t18.5 37v46
q-59 -4 -94 -19.5t-34 -40.5q2 -42 50 -42z" />
    <glyph glyph-name="bsuperior" horiz-adv-x="355" 
d="M117 864v-146q11 20 36.5 31t46.5 11q58 0 94 -39.5t36 -115.5t-37.5 -115t-100.5 -39q-5 0 -16.5 2t-30 10.5t-29.5 21.5v-27h-66v406h67zM180 708q-15 0 -37.5 -14.5t-25.5 -40.5v-92q0 -58 74 -58q37 0 53.5 29t16.5 73q0 103 -81 103z" />
    <glyph glyph-name="csuperior" horiz-adv-x="289" 
d="M25 608q0 73 40 114t111 41q57 0 93 -19l-15 -49q-35 15 -67 15q-49 0 -73 -29t-24 -73t24 -73t73 -29q23 0 67 15l15 -49q-36 -19 -93 -19q-71 0 -111 41.5t-40 113.5z" />
    <glyph glyph-name="dsuperior" horiz-adv-x="356" 
d="M239 720v144h67v-406h-66v29q-10 -14 -29.5 -23t-31 -11t-16.5 -2q-62 0 -100 39.5t-38 114.5t38 115t97 40q19 0 43.5 -10.5t35.5 -29.5zM175 708q-80 0 -80 -103q0 -43 16.5 -72.5t52.5 -29.5q75 0 75 58v92q-2 26 -25 40.5t-39 14.5z" />
    <glyph glyph-name="esuperior" horiz-adv-x="335" 
d="M174 453q-63 0 -106 42.5t-43 112.5q0 68 38.5 111.5t103.5 43.5q72 0 110.5 -48t31.5 -131h-217q2 -36 25 -57.5t62 -21.5q37 0 92 22l19 -46q-45 -28 -116 -28zM167 710q-31 0 -51.5 -21.5t-22.5 -52.5h152q-4 35 -24.5 54.5t-53.5 19.5z" />
    <glyph glyph-name="fsuperior" horiz-adv-x="156" 
d="M12 752h36v23q0 28 9 48.5t17.5 29t25.5 13t21 4.5h15q25 0 50 -13l-6 -44q-22 8 -38 8q-28 0 -28 -40v-29h56v-48h-56v-246h-66v246h-36v48z" />
    <glyph glyph-name="gsuperior" horiz-adv-x="356" 
d="M175 505q19 0 41.5 11.5t22.5 36.5v98q0 59 -75 59q-36 0 -52.5 -29.5t-16.5 -73.5q0 -102 80 -102zM240 448v36q-11 -14 -33 -22.5t-41 -8.5q-64 0 -102.5 39t-38.5 115q0 75 37 115t92 40q9 0 21 -1.5t34.5 -11.5t30.5 -28v33h66v-315q0 -51 -39.5 -74t-96.5 -23
q-77 0 -111 27l16 47q41 -25 91 -25q25 0 41 5t22.5 15t8.5 17.5t2 19.5z" />
    <glyph glyph-name="isuperior" horiz-adv-x="167" 
d="M50 458v294h67v-294h-67zM50 803v61h67v-61h-67z" />
    <glyph glyph-name="ksuperior" horiz-adv-x="295" 
d="M185 640l130 -182h-77l-98 144l-23 -24v-120h-67v406h67v-210l99 98h82z" />
    <glyph glyph-name="lsuperior" horiz-adv-x="167" 
d="M50 458v406h67v-406h-67z" />
    <glyph glyph-name="msuperior" horiz-adv-x="525" 
d="M230 458v181q0 69 -56 69q-22 0 -39.5 -19t-17.5 -63v-168h-67v294h63v-31q22 39 83 39q46 0 72 -40q31 40 86 40q121 0 121 -120v-182h-66v172q0 40 -12.5 59t-43.5 19q-7 0 -14 -2t-18.5 -7.5t-18.5 -20.5t-7 -38v-182h-65z" />
    <glyph glyph-name="osuperior" horiz-adv-x="340" 
d="M25 608q0 73 38.5 114t106.5 41t106.5 -41t38.5 -114q0 -72 -38.5 -113.5t-106.5 -41.5t-106.5 41.5t-38.5 113.5zM250 608q0 42 -22 73t-58 31q-37 0 -58 -31t-21 -73t21 -73t58 -31q36 0 58 31t22 73z" />
    <glyph glyph-name="psuperior" horiz-adv-x="355" 
d="M117 483v-140h-67v413h66v-39q11 23 39 34.5t53 11.5q56 0 89 -39t33 -115t-38.5 -116t-102.5 -40q-42 0 -72 30zM180 505q81 0 81 104q0 44 -16.5 73t-53.5 29q-25 0 -49.5 -17.5t-24.5 -52.5v-86q0 -26 22.5 -38t40.5 -12z" />
    <glyph glyph-name="qsuperior" horiz-adv-x="356" 
d="M239 343v143q-30 -33 -73 -33q-63 0 -102 40t-39 116q0 77 34 115.5t96 38.5q60 0 85 -44v37h66v-413h-67zM175 505q19 0 41.5 12t22.5 38v86q0 35 -24.5 52.5t-50.5 17.5q-36 0 -52.5 -29.5t-16.5 -72.5q0 -104 80 -104z" />
    <glyph glyph-name="rsuperior" horiz-adv-x="230" 
d="M228 747l-14 -56q-17 12 -38 12q-23 0 -39 -17t-16 -49v-179h-66v294h62v-36q24 43 67 43q19 0 44 -12z" />
    <glyph glyph-name="ssuperior" horiz-adv-x="274" 
d="M192 530q5 23 -20 34h1l-86 33q-29 13 -44 31.5t-14.5 33t0.5 29.5q5 32 34 51.5t74 19.5q28 0 57 -10q30 -12 50 -25l-26 -45q-35 26 -78 26q-49 0 -49 -29q0 -3 0.5 -5.5l1 -5t2 -4.5t2.5 -3t4 -3t5 -3t6.5 -3t7 -3t9 -3.5t10.5 -4.5q6 -3 25 -9.5t32 -12.5
q58 -24 58 -77q0 -14 -9 -39q-24 -50 -102 -50q-33 0 -66 10q-35 17 -57 34l28 46q16 -15 44 -25.5t54 -10.5q37 0 46 23z" />
    <glyph glyph-name="tsuperior" horiz-adv-x="197" 
d="M48 704h-40v50h40v72h66v-72h65v-50h-65v-155q0 -45 32 -45q10 0 36 9l5 -47q-24 -13 -52 -13q-13 0 -22.5 1.5t-27 9t-27.5 29t-10 55.5v156z" />
    <glyph glyph-name="usuperior" horiz-adv-x="364" 
d="M50 580v172h67v-172q0 -78 56 -78q7 0 15.5 2t23.5 7.5t25 21t10 37.5v182h67v-294h-63v32q-15 -20 -39 -30t-40 -10q-122 0 -122 130z" />
    <glyph glyph-name="vsuperior" horiz-adv-x="319" 
d="M194 458h-69l-125 294h69l90 -230l91 230h69z" />
    <glyph glyph-name="zsuperior" horiz-adv-x="255" 
d="M0 458v48l174 194h-168v52h249v-47l-173 -195h167v-52h-249z" />
    <glyph glyph-name="zero.oldstyle" horiz-adv-x="446" 
d="M221 -9q-81 0 -126 63t-45 179t45 179t126 63q83 0 129 -63t46 -179t-46 -179t-129 -63zM221 405q-47 0 -72.5 -51t-25.5 -121q0 -74 25 -124t73 -50q50 0 75.5 50t25.5 124q0 71 -25.5 121.5t-75.5 50.5z" />
    <glyph glyph-name="one.oldstyle" horiz-adv-x="483" 
d="M66 0v65h134l1 324l-97 -70l-36 54l132 96h80v-404h134v-65h-348z" />
    <glyph glyph-name="two.oldstyle" horiz-adv-x="471" 
d="M84 343l-44 48q22 28 71 55t119 27q80 0 132.5 -39t52.5 -107q0 -13 -2 -23.5t-7.5 -21t-9 -17t-14 -17t-14.5 -14t-18 -15.5t-18 -15q-17 -14 -64 -41t-77.5 -51t-34.5 -44h261v-68h-360v29q0 37 23 71t48 53t78 53.5t77 52.5q51 42 51 68q0 75 -107 75q-38 0 -68 -10.5
t-44 -21t-31 -27.5z" />
    <glyph glyph-name="three.oldstyle" horiz-adv-x="529" 
d="M254 -203q-33 0 -64 6t-51.5 14t-40.5 20t-30 20t-21 18t-12 11l31 59q1 -1 12.5 -9.5t18 -13.5t20.5 -14t27 -14.5t30 -11.5t36 -9t39 -3q68 0 105.5 31t37.5 84q0 54 -41.5 84t-102.5 30h-65v77h65q63 0 95.5 30.5t32.5 73.5q0 46 -35 82.5t-96 36.5q-51 0 -94.5 -25
t-66.5 -51l-29 60q7 10 18.5 21t34.5 28t60.5 28t81.5 11q40 0 76 -11t66.5 -32.5t49 -59t18.5 -86.5t-28.5 -89.5t-91.5 -54.5q66 -13 99 -54.5t33 -96.5q0 -89 -60 -139.5t-158 -50.5z" />
    <glyph glyph-name="four.oldstyle" horiz-adv-x="550" 
d="M423 -190h-82v139h-312v80q21 41 47 83.5t45 71t55.5 76.5t49.5 64.5t59 71.5t53 64h85v-443h98v-68h-98v-139zM98 17h243v345q-183 -222 -243 -345z" />
    <glyph glyph-name="five.oldstyle" horiz-adv-x="524" 
d="M406 21q0 55 -36 100t-114 45q-95 0 -117 -65h-81l43 359h340v-78h-273l-27 -193q43 49 144 49q83 0 142 -61t59 -159q0 -108 -68 -164.5t-173 -56.5q-57 0 -113 21.5t-93 67.5l37 62q22 -33 69.5 -57t89.5 -24q83 0 127 43.5t44 110.5z" />
    <glyph glyph-name="six.oldstyle" horiz-adv-x="550" 
d="M131 340q16 45 63 67t92 22q95 0 155.5 -60.5t60.5 -160.5q0 -103 -62 -161.5t-160 -58.5q-58 0 -102 22t-68 54.5t-38.5 78t-19 83.5t-4.5 80q0 176 72 265.5t191 89.5q47 0 80 -6.5t47 -14t30 -20.5l-30 -63q-42 35 -112 35q-93 0 -144 -66t-51 -186zM278 59
q69 0 104.5 46.5t35.5 102.5q0 57 -36.5 106t-104.5 49q-64 0 -100 -43.5t-36 -105.5q0 -67 37.5 -111t99.5 -44z" />
    <glyph glyph-name="seven.oldstyle" horiz-adv-x="516" 
d="M34 380v80h450v-75q-110 -138 -178.5 -272.5t-124.5 -302.5h-96q65 172 138.5 308t176.5 262h-366z" />
    <glyph glyph-name="eight.oldstyle" horiz-adv-x="550" 
d="M275 661q27 0 36 -1l14 -2q63 -6 111 -53.5t48 -115.5q0 -115 -116 -148q43 -11 73 -33t43 -49t17.5 -48t4.5 -42q0 -78 -61 -130t-170 -52q-114 0 -172.5 51.5t-58.5 130.5q0 21 4.5 42t17.5 48t43 49t73 33q-116 34 -116 148q0 68 48 115.5t111 53.5l14 2q9 1 36 1z
M275 55q68 0 109 36.5t41 84.5q0 51 -39.5 89.5t-110.5 38.5t-109.5 -38.5t-38.5 -89.5q0 -48 40 -84.5t108 -36.5zM275 377q62 0 93 29.5t32 82.5q0 44 -32 77.5t-93 33.5t-93 -33.5t-32 -77.5q1 -53 32 -82.5t93 -29.5z" />
    <glyph glyph-name="nine.oldstyle" horiz-adv-x="528" 
d="M409 121q-16 -45 -63 -67t-92 -22q-95 0 -155.5 60.5t-60.5 160.5q0 103 62 161.5t160 58.5q58 0 102 -22t68 -54.5t38.5 -78t19 -83.5t4.5 -80q0 -176 -72 -265.5t-191 -89.5q-47 0 -80 6.5t-47 14t-30 20.5l30 63q42 -35 112 -35q93 0 144 66t51 186zM262 402
q-69 0 -104.5 -46.5t-35.5 -102.5q0 -57 36.5 -106t104.5 -49q64 0 100 43.5t36 105.5q0 67 -37.5 111t-99.5 44z" />
    <glyph glyph-name="zero.pzero" horiz-adv-x="552" 
d="M121 55v-1l-33 -53h-58l59 97q-49 85 -49 226q0 161 63 249t176 88q77 0 132 -42l33 55h57l-54 -88q75 -89 75 -262q0 -161 -64 -249t-179 -88q-96 0 -158 68zM142 184l226 367q-36 38 -89 38q-76 0 -115.5 -77t-39.5 -188q0 -79 18 -140zM399 508l-233 -380
q45 -71 113 -71q53 0 89.5 38t52.5 96.5t16 132.5q0 112 -38 184z" />
    <glyph glyph-name="zero.tzero" horiz-adv-x="572" 
d="M131 55v-1l-33 -53h-58l59 97q-49 85 -49 226q0 161 63 249t176 88q77 0 132 -42l33 55h57l-54 -88q75 -89 75 -262q0 -161 -64 -249t-179 -88q-96 0 -158 68zM152 184l226 367q-36 38 -89 38q-76 0 -115.5 -77t-39.5 -188q0 -79 18 -140zM409 508l-233 -380
q45 -71 113 -71q53 0 89.5 38t52.5 96.5t16 132.5q0 112 -38 184z" />
    <glyph glyph-name="triangleup" horiz-adv-x="540" 
d="M480 162h-420l210 346z" />
    <glyph glyph-name="triangledown" horiz-adv-x="540" 
d="M60 508h420l-210 -346z" />
    <glyph glyph-name="seveninferior" horiz-adv-x="300" 
d="M17 169v55h266v-48q-113 -146 -168 -322h-71q61 167 177 315h-204z" />
    <glyph glyph-name="zero.ozero" horiz-adv-x="487" 
d="M131 36l-25 -43h-61l53 90q-28 60 -28 150q0 116 45 179t126 63q43 0 77 -19l17 31h58l-35 -61q58 -64 58 -193q0 -116 -46 -179t-129 -63q-68 0 -110 45zM148 169l133 225q-20 11 -40 11q-47 0 -72.5 -51t-25.5 -121q0 -31 5 -64zM316 354l-145 -250q27 -45 70 -45
q50 0 75.5 50t25.5 124q0 77 -26 121z" />
    <glyph glyph-name="zero.tozero" horiz-adv-x="580" 
d="M178 36l-25 -43h-61l53 90q-28 60 -28 150q0 116 45 179t126 63q43 0 77 -19l17 31h58l-35 -61q58 -64 58 -193q0 -116 -46 -179t-129 -63q-68 0 -110 45zM195 169l133 225q-20 11 -40 11q-47 0 -72.5 -51t-25.5 -121q0 -31 5 -64zM363 354l-145 -250q27 -45 70 -45
q50 0 75.5 50t25.5 124q0 77 -26 121z" />
    <glyph glyph-name="A.small" horiz-adv-x="498" 
d="M95 0h-83l200 478h75l199 -478h-83l-44 108h-220zM248 379l-84 -203h169z" />
    <glyph glyph-name="B.small" horiz-adv-x="432" 
d="M257 206h-139v-138h139q36 0 55 19.5t19 47.5q0 29 -19 50t-55 21zM389 348q0 -9 -3 -22.5t-15.5 -36.5t-32.5 -37q33 -14 53.5 -46.5t20.5 -71.5q0 -51 -35 -92.5t-101 -41.5h-236v478h212q69 0 103 -38t34 -92zM118 275h131q59 6 59 65q0 70 -70 70h-120v-135z" />
    <glyph glyph-name="C.small" horiz-adv-x="426" 
d="M24 239q0 107 65 177t174 70q88 0 146 -28l-22 -58q-47 17 -109 17q-87 0 -130.5 -52.5t-43.5 -125.5t43.5 -125.5t130.5 -52.5q59 0 111 18l20 -59q-58 -28 -146 -28q-108 0 -173.5 71t-65.5 176z" />
    <glyph glyph-name="D.small" horiz-adv-x="472" 
d="M213 0h-173v478h173q113 0 176 -60.5t63 -178.5t-63 -178.5t-176 -60.5zM118 68h98q70 0 114.5 42.5t44.5 128.5q0 88 -43.5 129.5t-117.5 41.5h-96v-342z" />
    <glyph glyph-name="E.small" horiz-adv-x="392" 
d="M372 0h-327v478h322v-68h-244v-134h216v-69h-216v-139h249v-68z" />
    <glyph glyph-name="F.small" horiz-adv-x="368" 
d="M124 0h-78v478h306v-68h-228v-134h210v-69h-210v-207z" />
    <glyph glyph-name="G.small" horiz-adv-x="482" 
d="M280 193v68h170v-234q-28 -15 -78 -25t-90 -10q-117 0 -188 71t-71 176q0 107 70.5 177t188.5 70q93 0 158 -43l-33 -63q-23 19 -55.5 28.5t-53.5 9.5q-95 0 -144.5 -53.5t-49.5 -125.5q0 -71 49 -124.5t137 -53.5q44 0 88 12v120h-98z" />
    <glyph glyph-name="H.small" horiz-adv-x="466" 
d="M120 214v-214h-78v478h78v-196h225v196h78v-478h-78v214h-225z" />
    <glyph glyph-name="I.small" horiz-adv-x="169" 
d="M45 0v478h79v-478h-79z" />
    <glyph glyph-name="J.small" horiz-adv-x="294" 
d="M20 21l18 63q62 -25 95 -25q36 0 49 18t15 60v342h77v-345q0 -77 -38 -109.5t-96 -32.5q-5 0 -61 8q-32 9 -59 21z" />
    <glyph glyph-name="K.small" horiz-adv-x="432" 
d="M422 0h-97l-154 205l-48 -56v-149h-78v478h78v-221l176 221h92l-172 -215q54 -70 102.5 -133t67.5 -88t33 -42z" />
    <glyph glyph-name="L.small" horiz-adv-x="376" 
d="M123 478v-410h228v-68h-306v478h78z" />
    <glyph glyph-name="M.small" horiz-adv-x="594" 
d="M267 0l-141 361h-4l-13 -361h-78l19 478h107l138 -356h4l139 356h107l18 -478h-78l-12 361h-4l-142 -361h-60z" />
    <glyph glyph-name="N.small" horiz-adv-x="477" 
d="M325 0l-202 370v-370h-78v478h112l195 -368l1 368h79v-478h-107z" />
    <glyph glyph-name="O.small" horiz-adv-x="504" 
d="M252 -8q-108 0 -169 65t-61 182t61 182t169 65t169 -65t61 -182t-61 -182t-169 -65zM252 420q-71 0 -109.5 -51.5t-38.5 -129.5q0 -80 38 -130.5t110 -50.5t110 50.5t38 130.5q0 78 -38.5 129.5t-109.5 51.5z" />
    <glyph glyph-name="P.small" horiz-adv-x="408" 
d="M250 179h-140v-179h-79v478h214q73 0 108 -47.5t35 -106.5q0 -8 -1.5 -20t-9.5 -35.5t-21.5 -42t-41 -33t-64.5 -14.5zM110 248h130q27 0 43 15t19.5 29.5t3.5 30.5q0 36 -18.5 61.5t-58.5 25.5h-119v-162z" />
    <glyph glyph-name="Q.small" horiz-adv-x="504" 
d="M295 -7h-43q-108 0 -169 65t-61 182q0 116 61.5 181.5t168.5 65.5t168.5 -65.5t61.5 -181.5q0 -148 -104 -216q38 -22 70 -22h33v-63h-30q-97 0 -156 54zM252 420q-72 0 -110 -51.5t-38 -128.5q0 -80 38 -130.5t110 -50.5t110 50.5t38 130.5q0 77 -38 128.5t-110 51.5z
" />
    <glyph glyph-name="R.small" horiz-adv-x="431" 
d="M393 327q0 -8 -2 -19t-8.5 -31.5t-24.5 -39t-44 -28.5q29 -18 42 -54l59 -155h-82l-58 150q-20 36 -55 36h-105v-186h-78v478h206q44 0 75.5 -14t46.5 -37.5t21.5 -48t6.5 -51.5zM115 254h131q38 0 53 23t15 49q0 84 -76 84h-123v-156z" />
    <glyph glyph-name="S.small" horiz-adv-x="405" 
d="M201 486q91 0 163 -57l-30 -59q-62 50 -135 50q-74 0 -85 -53q-3 -43 55 -65l126 -50q47 -19 68.5 -50.5t21.5 -65.5q0 -30 -14 -62q-17 -39 -58.5 -61t-99.5 -22q-107 0 -193 70l35 59q27 -25 71.5 -43t84.5 -18q75 0 92 48q16 54 -42 76q-23 8 -67 25.5t-67 25.5
q-106 38 -94 139q8 51 53.5 82t114.5 31z" />
    <glyph glyph-name="T.small" horiz-adv-x="402" 
d="M390 410h-149v-410h-80v410h-149v68h378v-68z" />
    <glyph glyph-name="U.small" 
d="M243 -9q-97 0 -148.5 49t-51.5 161v277h79v-273q0 -76 29 -112.5t92 -36.5t92 36.5t29 112.5v273h79v-277q0 -112 -51.5 -161t-148.5 -49z" />
    <glyph glyph-name="V.small" horiz-adv-x="440" 
d="M2 478h79l137 -376h4l106 288l32 88h79l-181 -478h-75z" />
    <glyph glyph-name="W.small" horiz-adv-x="674" 
d="M375 462l102 -342l105 358h80l-146 -478h-76l-101 340h-4l-102 -340h-75l-146 478h80l104 -358l102 342h77z" />
    <glyph glyph-name="X.small" horiz-adv-x="470" 
d="M363 0l-127 180h-4l-125 -180h-95l178 236l-170 242h92l121 -185h4l120 185h93l-170 -242l178 -236h-95z" />
    <glyph glyph-name="Y.small" horiz-adv-x="465" 
d="M273 0h-81v169l-182 309h91l130 -235l131 235h93l-182 -309v-169z" />
    <glyph glyph-name="Z.small" horiz-adv-x="417" 
d="M387 0h-370v67l280 343h-268v68h370v-65l-283 -344h271v-69z" />
    <glyph glyph-name="Eth.small" horiz-adv-x="521" 
d="M89 478h173q113 0 176 -60.5t63 -178.5t-63 -178.5t-176 -60.5h-173v193h-69v68h69v217zM167 68h98q70 0 114.5 42.5t44.5 128.5q0 88 -43.5 129.5t-117.5 41.5h-96v-149h142v-68h-142v-125z" />
    <glyph glyph-name="Lslash.small" horiz-adv-x="410" 
d="M92 -1v168l-80 -54v72l79 50h1v243h78v-186l78 53v-72l-78 -51v-154h228v-69h-306z" />
    <glyph glyph-name="Scaron.small" horiz-adv-x="405" 
d="M234 544h-74l-81 106h65l52 -53h2l52 53h66zM201 486q91 0 163 -57l-30 -59q-62 50 -135 50q-74 0 -85 -53q-3 -43 55 -65l126 -50q47 -19 68.5 -50.5t21.5 -65.5q0 -30 -14 -62q-17 -39 -58.5 -61t-99.5 -22q-107 0 -193 70l35 59q27 -25 71.5 -43t84.5 -18q75 0 92 48
q16 54 -42 76q-28 10 -67 25q-62 24 -67 26q-106 38 -94 139q8 51 53.5 82t114.5 31z" />
    <glyph glyph-name="Yacute.small" horiz-adv-x="465" 
d="M192 544l65 106h85l-84 -106h-66zM273 0h-81v169l-182 309h91l130 -235l131 235h93l-182 -309v-169z" />
    <glyph glyph-name="Zcaron.small" horiz-adv-x="417" 
d="M231 544h-74l-81 106h65l52 -53h2l52 53h66zM387 0h-370v67l280 343h-268v68h370v-65l-283 -344h271v-69z" />
    <glyph glyph-name="Thorn.small" horiz-adv-x="391" 
d="M109 478v-96q42 30 86 30q75 0 120 -46t45 -136q0 -89 -45 -135t-119 -46q-50 0 -87 28v-77h-78v478h78zM184 348q-11 0 -26 -4t-31 -17.5t-18 -33.5v-114q0 -66 88 -66q42 0 61.5 33.5t19.5 83.5q0 118 -94 118z" />
    <glyph glyph-name="Adieresis.small" horiz-adv-x="498" 
d="M140 576v74h80v-74h-80zM276 576v74h80v-74h-80zM95 0h-83l200 478h75l199 -478h-83l-44 108h-220zM249 379l-85 -203h169z" />
    <glyph glyph-name="Aring.small" horiz-adv-x="498" 
d="M178 605q0 76 72 76t72 -76t-72 -76t-72 76zM283 605q0 14 -8.5 24t-25.5 10t-25 -10t-8 -24t8 -24t25 -10t25.5 10t8.5 24zM95 0h-83l200 478h75l199 -478h-83l-44 108h-220zM249 379l-85 -203h169z" />
    <glyph glyph-name="Ccedilla.small" horiz-adv-x="426" 
d="M24 240q0 105 65.5 176t173.5 71q88 0 146 -28l-23 -59q-54 18 -108 18q-87 0 -130.5 -52.5t-43.5 -125.5q0 -72 43.5 -125.5t130.5 -53.5q58 0 111 19l20 -59q-44 -23 -113 -28h-2q12 -20 15 -34q9 -38 -15.5 -68.5t-67.5 -26.5q-37 5 -61 18v48l41 -10q40 -10 40 25
q0 23 -15 50h-2q-95 12 -150 79.5t-55 165.5z" />
    <glyph glyph-name="Eacute.small" horiz-adv-x="392" 
d="M145 543l64 107h86l-84 -107h-66zM372 0h-327v478h322v-68h-244v-134h216v-69h-216v-139h249v-68z" />
    <glyph glyph-name="Ntilde.small" horiz-adv-x="477" 
d="M200 650q16 0 40 -13h1q1 0 2 -1t2 -1l9 -4q15 -7 25 -7q12 0 22 26h47q-6 -86 -74 -86q-24 0 -50 14h-1q-1 0 -2 1t-3 1q-17 7 -26.5 2.5t-17.5 -22.5h-45q6 90 71 90zM325 0l-202 370v-370h-78v478h112l195 -368l1 368h79v-478h-107z" />
    <glyph glyph-name="Odieresis.small" horiz-adv-x="504" 
d="M144 576v74h80v-74h-80zM280 576v74h80v-74h-80zM252 -8q-108 0 -169 65t-61 182t61 182t169 65t169 -65t61 -182t-61 -182t-169 -65zM252 420q-71 0 -109.5 -51.5t-38.5 -129.5q0 -80 38 -130.5t110 -50.5t110 50.5t38 130.5q0 78 -38.5 129.5t-109.5 51.5z" />
    <glyph glyph-name="Udieresis.small" 
d="M136 576v74h80v-74h-80zM272 576v74h80v-74h-80zM243 -9q-97 0 -148.5 49t-51.5 161v277h79v-273q0 -76 29 -112.5t92 -36.5t92 36.5t29 112.5v273h79v-277q0 -112 -51.5 -161t-148.5 -49z" />
    <glyph glyph-name="AE.small" horiz-adv-x="627" 
d="M294 410l-113 -234h133v234h-20zM607 68v-68h-293v108h-160l-53 -108h-90l237 478h354v-68h-209v-134h188v-69h-189v-139h215z" />
    <glyph glyph-name="Oslash.small" horiz-adv-x="516" 
d="M258 -7q-64 0 -123 27l-38 -59h-66l62 95h-1q-64 64 -64 184q0 116 61.5 181.5t168.5 65.5q64 0 111 -23l35 52h69l-57 -85h1q71 -65 71 -191q0 -117 -61 -182t-169 -65zM138 121l189 282h-1q-20 17 -68 17q-72 0 -110 -51.5t-38 -128.5q0 -80 28 -119zM369 366
l-192 -286h1q34 -21 80 -21q72 0 110 50.5t38 130.5q0 82 -37 126z" />
    <glyph glyph-name="Agrave.small" horiz-adv-x="498" 
d="M219 650l65 -107h-66l-84 107h85zM95 0h-83l200 478h75l199 -478h-83l-44 108h-220zM249 379l-85 -203h169z" />
    <glyph glyph-name="Atilde.small" horiz-adv-x="498" 
d="M210 650q13 0 41 -13h1q1 0 2 -1l2 -1l9 -4q15 -7 25 -7q12 0 22 26h47q-6 -86 -74 -86q-24 0 -50 14h-1q-2 0 -2 1q-2 1 -3 1q-17 7 -26.5 2.5t-17.5 -22.5h-45q6 90 70 90zM95 0h-83l200 478h75l199 -478h-83l-44 108h-220zM249 379l-85 -203h169z" />
    <glyph glyph-name="Otilde.small" horiz-adv-x="504" 
d="M213 650q13 0 41 -13h1q1 0 2 -1t2 -1q24 -10 33 -10q12 0 23 25h46q-6 -85 -73 -85q-17 0 -43 11h-1h-2q-1 1 -2 1h-1h-1l-4 2q-1 1 -2 1q-18 7 -27 2.5t-17 -22.5h-45q2 26 6.5 43.5t20.5 32t43 14.5zM252 -8q-108 0 -169 65t-61 182t61 182t169 65t169 -65t61 -182
t-61 -182t-169 -65zM252 420q-71 0 -109.5 -51.5t-38.5 -129.5q0 -80 38 -130.5t110 -50.5t110 50.5t38 130.5q0 78 -38.5 129.5t-109.5 51.5z" />
    <glyph glyph-name="OE.small" horiz-adv-x="740" 
d="M252 420q-71 0 -109.5 -51.5t-38.5 -129.5q0 -80 38 -130.5t110 -50.5t110 50.5t38 130.5q0 78 -38.5 129.5t-109.5 51.5zM393 0v43h-3q-54 -51 -138 -51q-106 0 -168 65.5t-62 181.5t62 181.5t168 65.5q87 0 138 -49h3v41h323v-68h-244v-134h225v-69h-225v-139h248v-68
h-327z" />
    <glyph glyph-name="Ydieresis.small" horiz-adv-x="465" 
d="M127 576v74h80v-74h-80zM263 576v74h80v-74h-80zM273 0h-81v169l-182 309h91l130 -235l131 235h93l-182 -309v-169z" />
    <glyph glyph-name="Acircumflex.small" horiz-adv-x="498" 
d="M214 661h74l82 -106h-66l-52 53h-2l-52 -53h-65zM95 0h-83l200 478h75l199 -478h-83l-44 108h-220zM249 379l-85 -203h169z" />
    <glyph glyph-name="Ecircumflex.small" horiz-adv-x="392" 
d="M166 661h74l82 -106h-66l-52 53h-2l-52 -53h-65zM372 0h-327v478h322v-68h-244v-134h216v-69h-216v-139h249v-68z" />
    <glyph glyph-name="Aacute.small" horiz-adv-x="498" 
d="M215 543l65 107h85l-84 -107h-66zM95 0h-83l200 478h75l199 -478h-83l-44 108h-220zM249 379l-85 -203h169z" />
    <glyph glyph-name="Edieresis.small" horiz-adv-x="392" 
d="M372 0h-327v479h322v-68h-244v-135h216v-68h-216v-140h249v-68zM98 576v74h80v-74h-80zM234 576v74h80v-74h-80z" />
    <glyph glyph-name="Egrave.small" horiz-adv-x="392" 
d="M200 650l65 -107h-67l-83 107h85zM372 0h-327v478h322v-68h-244v-134h216v-69h-216v-139h249v-68z" />
    <glyph glyph-name="Iacute.small" horiz-adv-x="169" 
d="M45 0v479h79v-479h-79zM43 543l65 107h85l-85 -107h-65z" />
    <glyph glyph-name="Icircumflex.small" horiz-adv-x="169" 
d="M48 661h74l82 -106h-66l-52 53h-2l-52 -53h-65zM45 0v479h79v-479h-79z" />
    <glyph glyph-name="Idieresis.small" horiz-adv-x="169" 
d="M46 0v479h78v-479h-78zM-24 576v74h80v-74h-80zM112 576v74h80v-74h-80z" />
    <glyph glyph-name="Igrave.small" horiz-adv-x="169" 
d="M57 650l65 -107h-65l-85 107h85zM45 0v478h79v-478h-79z" />
    <glyph glyph-name="Oacute.small" horiz-adv-x="504" 
d="M215 543l64 107h86l-84 -107h-66zM252 -8q-108 0 -169 65t-61 182t61 182t169 65t169 -65t61 -182t-61 -182t-169 -65zM252 420q-71 0 -109.5 -51.5t-38.5 -129.5q0 -80 38 -130.5t110 -50.5t110 50.5t38 130.5q0 78 -38.5 129.5t-109.5 51.5z" />
    <glyph glyph-name="Ocircumflex.small" horiz-adv-x="504" 
d="M212 650h74l82 -106h-66l-52 53h-2l-52 -53h-65zM252 -8q-108 0 -169 65t-61 182t61 182t169 65t169 -65t61 -182t-61 -182t-169 -65zM252 420q-71 0 -109.5 -51.5t-38.5 -129.5q0 -80 38 -130.5t110 -50.5t110 50.5t38 130.5q0 78 -38.5 129.5t-109.5 51.5z" />
    <glyph glyph-name="Ograve.small" horiz-adv-x="504" 
d="M222 650l64 -107h-66l-84 107h86zM252 -8q-108 0 -169 65t-61 182t61 182t169 65t169 -65t61 -182t-61 -182t-169 -65zM252 420q-71 0 -109.5 -51.5t-38.5 -129.5q0 -80 38 -130.5t110 -50.5t110 50.5t38 130.5q0 78 -38.5 129.5t-109.5 51.5z" />
    <glyph glyph-name="Uacute.small" 
d="M187 543l64 107h86l-84 -107h-66zM243 -9q-97 0 -148.5 49t-51.5 161v277h79v-273q0 -76 29 -112.5t92 -36.5t92 36.5t29 112.5v273h79v-277q0 -112 -51.5 -161t-148.5 -49z" />
    <glyph glyph-name="Ucircumflex.small" 
d="M200 661h74l82 -106h-66l-52 53h-2l-52 -53h-65zM243 -9q-97 0 -148.5 49t-51.5 161v277h79v-273q0 -76 29 -112.5t92 -36.5t92 36.5t29 112.5v273h79v-277q0 -112 -51.5 -161t-148.5 -49z" />
    <glyph glyph-name="Ugrave.small" 
d="M227 650l64 -107h-66l-84 107h86zM243 -9q-97 0 -148.5 49t-51.5 161v277h79v-273q0 -76 29 -112.5t92 -36.5t92 36.5t29 112.5v273h79v-277q0 -112 -51.5 -161t-148.5 -49z" />
    <glyph glyph-name="Cdotaccent.small" horiz-adv-x="426" 
d="M216 574v76h79v-76h-79zM24 239q0 107 65 177t174 70q88 0 146 -28l-22 -58q-47 17 -109 17q-87 0 -130.5 -52.5t-43.5 -125.5t43.5 -125.5t130.5 -52.5q59 0 111 18l20 -59q-58 -28 -146 -28q-108 0 -173.5 71t-65.5 176z" />
    <glyph glyph-name="Ibreve.small" horiz-adv-x="169" 
d="M83 536q-55 0 -79.5 31.5t-22.5 82.5h55q0 -27 10.5 -41t37.5 -14q49 0 49 55h55q2 -51 -23.5 -82.5t-81.5 -31.5zM45 0v478h79v-478h-79z" />
    <glyph glyph-name="Idotaccent.small" horiz-adv-x="169" 
d="M45 0v479h79v-479h-79zM45 574v76h79v-76h-79z" />
    <glyph glyph-name="Ycircumflex.small" horiz-adv-x="465" 
d="M196 650h74l82 -106h-66l-52 53h-2l-52 -53h-65zM273 0h-81v169l-182 309h91l130 -235l131 235h93l-182 -309v-169z" />
    <glyph glyph-name="Wcircumflex.small" horiz-adv-x="674" 
d="M302 650h74l82 -106h-66l-52 53h-2l-52 -53h-65zM375 462l102 -342l105 358h80l-146 -478h-76l-101 340h-4l-102 -340h-75l-146 478h80l104 -358l102 342h77z" />
    <glyph glyph-name="Tcaron.small" horiz-adv-x="402" 
d="M236 544h-74l-81 106h65l52 -53h2l52 53h66zM390 410h-149v-410h-80v410h-149v68h378v-68z" />
    <glyph glyph-name="Utilde.small" 
d="M203 650q16 0 40 -13h1l2 -1l2 -1l9 -4q15 -7 25 -7q12 0 22 26h47q-6 -86 -74 -86q-24 0 -50 14h-1q-2 0 -2 1q-2 1 -3 1q-17 7 -26.5 2.5t-17.5 -22.5h-45q6 90 71 90zM243 -9q-97 0 -148.5 49t-51.5 161v277h79v-273q0 -76 29 -112.5t92 -36.5t92 36.5t29 112.5v273
h79v-277q0 -112 -51.5 -161t-148.5 -49z" />
    <glyph glyph-name="Scircumflex.small" horiz-adv-x="405" 
d="M168 650h74l82 -106h-66l-52 53h-2l-52 -53h-65zM201 486q91 0 163 -57l-30 -59q-62 50 -135 50q-74 0 -85 -53q-3 -43 55 -65l126 -50q47 -19 68.5 -50.5t21.5 -65.5q0 -30 -14 -62q-17 -39 -58.5 -61t-99.5 -22q-107 0 -193 70l35 59q27 -25 71.5 -43t84.5 -18
q75 0 92 48q16 54 -42 76q-28 10 -67 25q-62 24 -67 26q-106 38 -94 139q8 51 53.5 82t114.5 31z" />
    <glyph glyph-name="Rcaron.small" horiz-adv-x="431" 
d="M226 544h-74l-81 106h65l52 -53h2l52 53h66zM393 327q0 -8 -2 -19t-8.5 -31.5t-24.5 -39t-44 -28.5q21 -13 42 -54l59 -155h-82l-58 150q-20 36 -55 36h-105v-186h-78v478h206q44 0 75.5 -14t46.5 -37.5t21.5 -48t6.5 -51.5zM115 254h131q38 0 53 23t15 49q0 84 -76 84
h-123v-156z" />
    <glyph glyph-name="Ncaron.small" horiz-adv-x="477" 
d="M278 544h-74l-81 106h65l52 -53h2l52 53h66zM325 0l-202 370v-370h-78v478h112l195 -368l1 368h79v-478h-107z" />
    <glyph glyph-name="Jcircumflex.small" horiz-adv-x="308" 
d="M187 650h74l82 -106h-66l-52 53h-2l-52 -53h-65zM8 21l18 63q62 -25 95 -25q36 0 49 18t15 60v342h77v-345q0 -77 -38 -109.5t-96 -32.5q-5 0 -61 8q-32 9 -59 21z" />
    <glyph glyph-name="Itilde.small" horiz-adv-x="170" 
d="M48 650q16 0 40 -13h1q1 0 2 -1t2 -1l9 -4q15 -7 25 -7q12 0 22 26h47q-6 -86 -74 -86q-24 0 -50 14h-1q-1 0 -2 1t-3 1q-17 7 -26.5 2.5t-17.5 -22.5h-45q6 90 71 90zM46 0v479h79v-479h-79z" />
    <glyph glyph-name="Hcircumflex.small" horiz-adv-x="466" 
d="M120 214v-214h-78v478h78v-196h225v196h78v-478h-78v214h-225zM192 650h74l82 -106h-66l-52 53h-2l-52 -53h-65z" />
    <glyph glyph-name="Gcircumflex.small" horiz-adv-x="482" 
d="M226 650h74l82 -106h-66l-52 53h-2l-52 -53h-65zM280 193v68h170v-234q-28 -15 -78 -25t-90 -10q-117 0 -188 71t-71 176q0 107 70.5 177t188.5 70q93 0 158 -43l-33 -63q-23 19 -55.5 28.5t-53.5 9.5q-95 0 -144.5 -53.5t-49.5 -125.5q0 -71 49 -124.5t137 -53.5
q45 0 87 12h1v120h-98z" />
    <glyph glyph-name="Ecaron.small" horiz-adv-x="392" 
d="M246 544h-74l-81 106h65l52 -53h2l52 53h66zM372 0h-327v478h322v-68h-244v-134h216v-69h-216v-139h249v-68z" />
    <glyph glyph-name="Dcaron.small" horiz-adv-x="472" 
d="M248 544h-74l-81 106h65l52 -53h2l52 53h66zM213 0h-173v478h173q113 0 176 -60.5t63 -178.5t-63 -178.5t-176 -60.5zM118 68h98q70 0 114.5 42.5t44.5 128.5q0 88 -43.5 129.5t-117.5 41.5h-96v-342z" />
    <glyph glyph-name="Lcaron.small" horiz-adv-x="376" 
d="M187 377l65 107h85l-84 -107h-66zM123 478v-410h228v-68h-306v478h78z" />
    <glyph glyph-name="Ccaron.small" horiz-adv-x="426" 
d="M24 239q0 107 65 177t174 70q88 0 146 -28l-22 -58q-47 17 -109 17q-87 0 -130.5 -52.5t-43.5 -125.5t43.5 -125.5t130.5 -52.5q59 0 111 18l20 -59q-58 -28 -146 -28q-108 0 -173.5 71t-65.5 176zM287 544h-74l-81 106h65l52 -53h2l52 53h66z" />
    <glyph glyph-name="Ccircumflex.small" horiz-adv-x="426" 
d="M213 650h74l82 -106h-66l-52 53h-2l-52 -53h-65zM24 239q0 107 65 177t174 70q88 0 146 -28l-22 -58q-47 17 -109 17q-87 0 -130.5 -52.5t-43.5 -125.5t43.5 -125.5t130.5 -52.5q59 0 111 18l20 -59q-58 -28 -146 -28q-108 0 -173.5 71t-65.5 176z" />
    <glyph glyph-name="Zacute.small" horiz-adv-x="417" 
d="M157 543l64 107h86l-84 -107h-66zM387 0h-370v67l280 343h-268v68h370v-65l-283 -344h271v-69z" />
    <glyph glyph-name="Wgrave.small" horiz-adv-x="674" 
d="M299 650l64 -107h-66l-84 107h86zM375 462l102 -342l105 358h80l-146 -478h-76l-101 340h-4l-102 -340h-75l-146 478h80l104 -358l102 342h77z" />
    <glyph glyph-name="Wacute.small" horiz-adv-x="674" 
d="M306 543l64 107h86l-84 -107h-66zM375 462l102 -342l105 358h80l-146 -478h-76l-101 340h-4l-102 -340h-75l-146 478h80l104 -358l102 342h77z" />
    <glyph glyph-name="Ygrave.small" horiz-adv-x="465" 
d="M197 650l64 -107h-66l-84 107h86zM273 0h-81v169l-182 309h91l130 -235l131 235h93l-182 -309v-169z" />
    <glyph glyph-name="Sacute.small" horiz-adv-x="405" 
d="M156 543l65 107h85l-83 -107h-67zM201 486q91 0 163 -57l-30 -59q-62 50 -135 50q-74 0 -85 -53q-3 -43 55 -65l126 -50q47 -19 68.5 -50.5t21.5 -65.5q0 -30 -14 -62q-17 -39 -58.5 -61t-99.5 -22q-107 0 -193 70l35 59q27 -25 71.5 -43t84.5 -18q75 0 92 48
q16 54 -42 76q-28 10 -67 25q-62 24 -67 26q-106 38 -94 139q8 51 53.5 82t114.5 31z" />
    <glyph glyph-name="Racute.small" horiz-adv-x="431" 
d="M154 543l64 107h85l-83 -107h-66zM393 327q0 -8 -2 -19t-8.5 -31.5t-24.5 -39t-44 -28.5q21 -13 42 -54l59 -155h-82l-58 150q-20 36 -55 36h-105v-186h-78v478h206q44 0 75.5 -14t46.5 -37.5t21.5 -48t6.5 -51.5zM115 254h131q38 0 53 23t15 49q0 84 -76 84h-123v-156z
" />
    <glyph glyph-name="Lacute.small" horiz-adv-x="376" 
d="M47 543l64 107h86l-84 -107h-66zM123 478v-410h228v-68h-306v478h78z" />
    <glyph glyph-name="Cacute.small" horiz-adv-x="426" 
d="M209 543l64 107h86l-84 -107h-66zM24 239q0 107 65 177t174 70q88 0 146 -28l-22 -58q-47 17 -109 17q-87 0 -130.5 -52.5t-43.5 -125.5t43.5 -125.5t130.5 -52.5q59 0 111 18l20 -59q-58 -28 -146 -28q-108 0 -173.5 71t-65.5 176z" />
    <glyph glyph-name="Gdotaccent.small" horiz-adv-x="482" 
d="M226 574v76h78v-76h-78zM280 193v68h170v-234q-28 -15 -78 -25t-90 -10q-117 0 -188 71t-71 176q0 107 70.5 177t188.5 70q93 0 158 -43l-33 -63q-23 19 -55.5 28.5t-53.5 9.5q-95 0 -144.5 -53.5t-49.5 -125.5q0 -71 49 -124.5t137 -53.5q45 0 87 12h1v120h-98z" />
    <glyph glyph-name="Edotaccent.small" horiz-adv-x="392" 
d="M167 574v76h79v-76h-79zM372 0h-327v478h322v-68h-244v-134h216v-69h-216v-139h249v-68z" />
    <glyph glyph-name="Ohungarumlaut.small" horiz-adv-x="504" 
d="M142 543l64 107h85l-83 -107h-66zM287 543l64 107h85l-84 -107h-65zM252 -8q-108 0 -169 65t-61 182t61 182t169 65t169 -65t61 -182t-61 -182t-169 -65zM252 420q-71 0 -109.5 -51.5t-38.5 -129.5q0 -80 38 -130.5t110 -50.5t110 50.5t38 130.5q0 78 -38.5 129.5
t-109.5 51.5z" />
    <glyph glyph-name="Uhungarumlaut.small" 
d="M122 543l64 107h85l-83 -107h-66zM267 543l64 107h85l-84 -107h-65zM243 -9q-97 0 -148.5 49t-51.5 161v277h79v-273q0 -76 29 -112.5t92 -36.5t92 36.5t29 112.5v273h79v-277q0 -112 -51.5 -161t-148.5 -49z" />
    <glyph glyph-name="Uring.small" 
d="M170 605q0 76 72 76t72 -76t-72 -76t-72 76zM275 605q0 14 -8.5 24t-25.5 10t-25 -10t-8 -24t8 -24t25 -10t25.5 10t8.5 24zM243 -9q-97 0 -148.5 49t-51.5 161v277h79v-273q0 -76 29 -112.5t92 -36.5t92 36.5t29 112.5v273h79v-277q0 -112 -51.5 -161t-148.5 -49z" />
    <glyph glyph-name="Ldot.small" horiz-adv-x="376" 
d="M123 478v-410h228v-69h-306v479h78zM242 263v76h86v-76h-86z" />
    <glyph glyph-name="Ubreve.small" 
d="M242 537q-55 0 -79.5 31t-22.5 82h55q0 -27 10 -40.5t38 -13.5t38.5 13.5t10.5 40.5h55q2 -51 -23 -82t-82 -31zM243 -9q-97 0 -148.5 49t-51.5 161v277h79v-273q0 -76 29 -112.5t92 -36.5t92 36.5t29 112.5v273h79v-277q0 -112 -51.5 -161t-148.5 -49z" />
    <glyph glyph-name="Obreve.small" horiz-adv-x="504" 
d="M252 -8q-107 0 -168.5 65.5t-61.5 181.5q0 117 61 182t169 65t169 -65t61 -182q0 -116 -61.5 -181.5t-168.5 -65.5zM252 420q-72 0 -110 -51t-38 -130q0 -80 38 -130t110 -50t110 50t38 130q0 79 -38 130t-110 51zM251 536q-55 0 -80 31.5t-23 82.5h55q0 -27 10.5 -40.5
t38.5 -13.5t38 13.5t10 40.5h55q2 -52 -23 -83t-81 -31z" />
    <glyph glyph-name="Gbreve.small" horiz-adv-x="482" 
d="M268 536q-55 0 -80 31.5t-22 82.5h55q-1 -27 9.5 -40.5t38.5 -13.5q50 0 48 54h55q3 -51 -22.5 -82.5t-81.5 -31.5zM280 193v68h170v-234q-28 -15 -78 -25t-90 -10q-117 0 -188 71t-71 176q0 107 70.5 177t188.5 70q93 0 158 -43l-33 -63q-23 19 -55.5 28.5t-53.5 9.5
q-95 0 -144.5 -53.5t-49.5 -125.5q0 -71 49 -124.5t137 -53.5q45 0 87 12h1v120h-98z" />
    <glyph glyph-name="Ebreve.small" horiz-adv-x="392" 
d="M205 537q-55 0 -80 31t-23 82h55q0 -27 10.5 -40.5t38.5 -13.5t38 13.5t10 40.5h54q2 -51 -22.5 -82t-80.5 -31zM372 0h-327v478h322v-68h-244v-134h216v-69h-216v-139h249v-68z" />
    <glyph glyph-name="Abreve.small" horiz-adv-x="498" 
d="M248 537q-55 0 -79.5 31t-22.5 82h55q0 -27 10 -40.5t38 -13.5t38.5 13.5t10.5 40.5h55q2 -51 -23 -82t-82 -31zM95 0h-83l200 478h75l199 -478h-83l-44 108h-220zM249 379l-85 -203h169z" />
    <glyph glyph-name="Nacute.small" horiz-adv-x="477" 
d="M200 543l65 107h85l-84 -107h-66zM325 0l-202 370v-370h-78v478h112l195 -368l1 368h79v-478h-107z" />
    <glyph glyph-name="Zdotaccent.small" horiz-adv-x="417" 
d="M169 574v76h78v-76h-78zM387 0h-370v67l280 343h-268v68h370v-65l-283 -344h271v-69z" />
    <glyph glyph-name="Wdieresis.small" horiz-adv-x="674" 
d="M229 576v74h80v-74h-80zM365 576v74h80v-74h-80zM375 462l102 -342l105 358h80l-146 -478h-76l-101 340h-4l-102 -340h-75l-146 478h80l104 -358l102 342h77z" />
    <glyph glyph-name="Umacron.small" 
d="M154 589v61h178v-61h-178zM243 -9q-97 0 -148.5 49t-51.5 161v277h79v-273q0 -76 29 -112.5t92 -36.5t92 36.5t29 112.5v273h79v-277q0 -112 -51.5 -161t-148.5 -49z" />
    <glyph glyph-name="Amacron.small" horiz-adv-x="498" 
d="M160 589v61h178v-61h-178zM95 0h-83l200 478h75l199 -478h-83l-44 108h-220zM249 379l-85 -203h169z" />
    <glyph glyph-name="Emacron.small" horiz-adv-x="392" 
d="M113 589v61h178v-61h-178zM372 0h-327v478h322v-68h-244v-134h216v-69h-216v-139h249v-68z" />
    <glyph glyph-name="Omacron.small" horiz-adv-x="504" 
d="M163 589v61h178v-61h-178zM252 -8q-108 0 -169 65t-61 182t61 182t169 65t169 -65t61 -182t-61 -182t-169 -65zM252 420q-71 0 -109.5 -51.5t-38.5 -129.5q0 -80 38 -130.5t110 -50.5t110 50.5t38 130.5q0 78 -38.5 129.5t-109.5 51.5z" />
    <glyph glyph-name="lacute.small" horiz-adv-x="147" 
d="M-1 0v479h78v-479h-78zM-1 543l65 107h85l-84 -107h-66z" />
    <glyph glyph-name="Imacron.small" horiz-adv-x="168" 
d="M45 0v478h78v-478h-78zM-5 589v61h179v-61h-179z" />
    <glyph glyph-name="Uogonek.small" 
d="M443 478v-277q0 -101 -41.5 -150t-121.5 -58h-2q-14 -20 -14 -48q0 -16 10.5 -23.5t29.5 -2.5h1l41 12v-49q-32 -15 -62 -19q-43 -4 -67.5 26.5t-15.5 68.5q7 20 15 33h-2q-171 19 -171 210v277h79v-273q0 -76 29 -112.5t92 -36.5t92 36.5t29 112.5v273h79z" />
    <glyph glyph-name="Aogonek.small" horiz-adv-x="530" 
d="M95 0h-83l200 478h74l200 -478h-32q-17 -32 -17 -55q0 -36 39 -26h1l41 12v-49q-22 -13 -61 -19q-49 -6 -72 23.5t-13 71.5q6 20 28 52l-41 98h-220zM247 379l-83 -203h170q-34 82 -83 203h-4z" />
    <glyph glyph-name="Eogonek.small" horiz-adv-x="400" 
d="M372 8l-2 -4q-21 -28 -21 -59q0 -16 10.5 -23.5t29.5 -2.5h1l41 12v-49q-32 -15 -62 -19q-43 -4 -67.5 26.5t-15.5 68.5q6 23 20 42h-261v478h322v-68h-244v-134h216v-69h-216v-139h249v-60z" />
    <glyph glyph-name="Hbar.small" horiz-adv-x="478" 
d="M6 348v54h42v76h78v-76h224v76h78v-76h44v-54h-44v-348h-78v214h-224v-214h-78v348h-42zM350 282v66h-224v-66h224z" />
    <glyph glyph-name="Scedilla.small" horiz-adv-x="405" 
d="M371 74q-28 -64 -117 -78h-2q10 -15 18 -37q10 -40 -14 -69.5t-70 -25.5q-37 5 -61 18v48l41 -10q19 -5 29.5 2.5t10.5 23.5q0 28 -13 47q-42 3 -78 16q-53 16 -95 53l35 58q26 -25 71 -42.5t85 -17.5q72 0 92 50q8 25 -5.5 44.5t-36.5 30.5l-134 50q-57 22 -78 60
t-16 79q9 50 54.5 81t111.5 31q51 0 90 -14q46 -16 74 -41l-29 -61q-25 21 -62.5 36t-72.5 15q-31 0 -55.5 -13.5t-29.5 -41.5q-2 -11 -0.5 -19.5t10 -16t12 -11t18 -11t15.5 -7.5l126 -48q90 -36 90 -117q0 -30 -14 -62z" />
    <glyph glyph-name="Tbar.small" horiz-adv-x="402" 
d="M390 410h-149v-135h83v-54h-83v-221h-80v221h-84v54h84v135h-149v68h378v-68z" />
    <glyph glyph-name="Eng.small" horiz-adv-x="477" 
d="M357 7l-234 370v-377h-78v478h111l197 -327v327h79v-470q0 -61 -38 -103t-100 -42q-20 0 -51 11l9 63q24 -10 38 -10q27 0 47 24t20 56z" />
    <glyph glyph-name="Ncommaaccent.small" horiz-adv-x="477" 
d="M145 -157l55 116h84l-75 -116h-64zM325 0l-202 370v-370h-78v478h112l195 -368l1 368h79v-478h-107z" />
    <glyph glyph-name="Kcommaaccent.small" horiz-adv-x="432" 
d="M422 0h-97l-154 205l-48 -56v-149h-78v478h78v-221l176 221h92l-172 -215q54 -70 102.5 -133t67.5 -88t33 -42z" />
    <glyph glyph-name="Gcommaaccent.small" horiz-adv-x="482" 
d="M192 -157l55 116h84l-75 -116h-64zM280 193v68h170v-234q-28 -15 -78 -25t-90 -10q-117 0 -188 71t-71 176q0 107 70.5 177t188.5 70q93 0 158 -43l-33 -63q-23 19 -55.5 28.5t-53.5 9.5q-95 0 -144.5 -53.5t-49.5 -125.5q0 -71 49 -124.5t137 -53.5q45 0 87 12h1v120
h-98z" />
    <glyph glyph-name="Lcommaaccent.small" horiz-adv-x="376" 
d="M123 479v-411h228v-68h-306v479h78zM107 -157l55 116h92l-75 -116h-72z" />
    <glyph glyph-name="Rcommaaccent.small" horiz-adv-x="431" 
d="M132 -157l55 116h84l-75 -116h-64zM393 327q0 -8 -2 -19t-8.5 -31.5t-24.5 -39t-44 -28.5q21 -13 42 -54l59 -155h-82l-58 150q-20 36 -55 36h-105v-186h-78v478h206q44 0 75.5 -14t46.5 -37.5t21.5 -48t6.5 -51.5zM115 254h131q38 0 53 23t15 49q0 84 -76 84h-123v-156z
" />
    <glyph glyph-name="Dcroat.small" horiz-adv-x="511" 
d="M79 478h173q113 0 176 -60.5t63 -178.5t-63 -178.5t-176 -60.5h-173v193h-69v68h69v217zM157 68h98q70 0 114.5 42.5t44.5 128.5q0 88 -43.5 129.5t-117.5 41.5h-96v-149h142v-68h-142v-125z" />
    <glyph glyph-name="Aringacute.small" horiz-adv-x="498" 
d="M218 701l64 107h86l-85 -107h-65zM174 598q0 33 18.5 54.5t57.5 21.5q76 0 76 -76t-76 -76q-39 0 -57.5 21.5t-18.5 54.5zM279 598q0 34 -30 34q-29 0 -29 -34t29 -34q30 0 30 34zM95 0h-83l200 478h75l199 -478h-83l-44 108h-220zM249 379l-85 -203h169z" />
    <glyph glyph-name="AEacute.small" horiz-adv-x="627" 
d="M272 543l65 107h85l-83 -107h-67zM294 410l-113 -234h133v234h-20zM607 68v-68h-293v108h-160l-53 -108h-90l237 478h354v-68h-209v-134h188v-69h-189v-139h215z" />
    <glyph glyph-name="IJ.small" horiz-adv-x="449" 
d="M45 0v479h79v-479h-79zM152 21l17 63q56 -25 95 -25q21 0 39 8q25 14 25 70v342h76v-345q0 -142 -132 -142q-23 0 -58 7q-32 7 -62 22z" />
    <glyph glyph-name="Oslashacute.small" horiz-adv-x="484" 
d="M203 544l65 106h85l-84 -106h-66zM258 -7q-64 0 -123 27l-38 -59h-66l62 95h-1q-64 64 -64 184q0 116 61.5 181.5t168.5 65.5q64 0 111 -23l35 52h69l-57 -85h1q71 -65 71 -191q0 -117 -61 -182t-169 -65zM138 121l189 282h-1q-20 17 -68 17q-72 0 -110 -51.5t-38 -128.5
q0 -80 28 -119zM369 366l-192 -286h1q34 -21 80 -21q72 0 110 50.5t38 130.5q0 82 -37 126z" />
    <glyph glyph-name="Tcommaaccent.small" horiz-adv-x="402" 
d="M390 410h-149v-410h-80v410h-149v68h378v-68zM103 -157l55 116h84l-75 -116h-64z" />
    <glyph glyph-name="Scommaaccent.small" horiz-adv-x="405" 
d="M105 -157l55 116h84l-75 -116h-64zM201 486q91 0 163 -57l-30 -59q-62 50 -135 50q-74 0 -85 -53q-3 -43 55 -65l126 -50q47 -19 68.5 -50.5t21.5 -65.5q0 -30 -14 -62q-17 -39 -58.5 -61t-99.5 -22q-107 0 -193 70l35 59q27 -25 71.5 -43t84.5 -18q75 0 92 48
q16 54 -42 76q-28 10 -67 25q-62 24 -67 26q-106 38 -94 139q8 51 53.5 82t114.5 31z" />
    <glyph glyph-name="parenleft.small" horiz-adv-x="289" 
d="M247 -79v-57q-85 2 -135 82t-50 224q0 142 51 222t134 80v-56q-48 0 -80 -61.5t-32 -187.5q0 -125 32 -185.5t80 -60.5z" />
    <glyph glyph-name="parenright.small" horiz-adv-x="289" 
d="M42 416v56q85 -2 134.5 -81t50.5 -221q0 -145 -50 -225.5t-135 -80.5v57q49 0 81 60.5t32 185.5q0 127 -32 188t-81 61z" />
    <glyph glyph-name="braceleft.small" horiz-adv-x="291" 
d="M62 144v50q34 3 45.5 23t11.5 58l-1 116q0 34 25.5 57.5t55.5 23.5h49v-56h-35q-23 0 -23 -39v-111q0 -60 -38 -98h-1q40 -51 39 -115v-93q0 -40 23 -40h36v-56h-50q-29 0 -55 23.5t-26 58.5l1 98q0 94 -57 100z" />
    <glyph glyph-name="braceright.small" horiz-adv-x="291" 
d="M229 194v-50q-57 -6 -57 -100l1 -98q0 -35 -26 -58.5t-55 -23.5h-50v56h36q23 0 23 40v93q-3 57 39 115h-1q-39 36 -38 98v111q0 39 -23 39h-35v56h49q30 0 55.5 -23.5t25.5 -57.5l-1 -116q0 -38 11.5 -58t45.5 -23z" />
    <glyph glyph-name="bracketleft.small" horiz-adv-x="239" 
d="M197 412h-63v-488h63v-60h-135v608h135v-60z" />
    <glyph glyph-name="bracketright.small" horiz-adv-x="239" 
d="M42 412v60h135v-608h-135v60h62v488h-62z" />
    <glyph glyph-name="ampersand.small" horiz-adv-x="435" 
d="M96 135q0 -39 24 -62.5t68 -23.5q54 0 91 56h-1l-107 110h-1q-29 -7 -51.5 -28.5t-22.5 -51.5zM243 371q-2 22 -16 37.5t-39 16.5q-26 -1 -40.5 -16.5t-16.5 -37.5q-2 -25 14 -51t41 -32h2q28 9 42.5 32.5t12.5 50.5zM240 246l67 -70h3q2 11 2 51v17h66q5 -76 -18 -120h1
q32 -33 48 -60t15 -64h-75q0 37 -17 56h-3q-46 -64 -141 -64q-82 0 -124.5 39.5t-42.5 98.5q0 43 26 77t67 52q-58 47 -52 114q4 50 40.5 78t85.5 28q47 0 84.5 -28.5t39.5 -77.5q3 -32 -12 -65.5t-53 -56.5z" />
    <glyph glyph-name="asterisk.small" horiz-adv-x="273" 
d="M156 381l62 49l23 -37l-81 -39l81 -36l-22 -38l-64 50h-3l6 -85h-48l8 86h-3l-65 -50l-22 37l80 36l-81 39l23 36l65 -50h3l-8 86h49l-6 -84h3z" />
    <glyph glyph-name="at.small" horiz-adv-x="584" 
d="M496 62l21 -33q-34 -37 -94.5 -57t-121.5 -20q-127 0 -201.5 75t-74.5 187q0 109 78.5 186t189.5 77q125 0 193.5 -68.5t68.5 -151.5q0 -100 -52.5 -148.5t-115.5 -48.5q-48 0 -58 46h-4q-9 -13 -28.5 -21t-31 -9.5t-16.5 -1.5q-103 0 -103 106q0 72 37 117.5t99 45.5
q50 0 65 -25h4l11 19h62l-40 -181q-5 -17 -2 -29.5t12 -12.5q35 0 69 35.5t34 103.5q0 79 -63 127t-141 48q-83 0 -145.5 -64t-62.5 -150q0 -93 61 -155t158 -62q98 0 192 65zM293 287q-61 0 -76 -82q-3 -13 -3 -28q0 -47 35 -47q18 0 42.5 11.5t31.5 33.5l16 80
q0 15 -17.5 23.5t-28.5 8.5z" />
    <glyph glyph-name="exclam.small" horiz-adv-x="158" 
d="M47 108l-5 364h71l-4 -364h-62zM39 0v71h77v-71h-77z" />
    <glyph glyph-name="question.small" horiz-adv-x="372" 
d="M210 108h-71q0 62 10.5 82.5t60.5 64.5l23 21q35 29 35 70q0 29 -22.5 49.5t-62.5 20.5q-39 0 -67.5 -19.5t-35.5 -35.5l-44 32q7 11 17 22.5t28.5 27.5t46 26t59.5 10q67 0 113 -37.5t46 -100.5q0 -64 -71 -123q-35 -30 -50 -51t-15 -48v-11zM133 0v71h85v-71h-85z" />
    <glyph glyph-name="exclamdown.small" horiz-adv-x="158" 
d="M109 228l4 -364h-71l5 364h62zM116 337v-72h-77v72h77z" />
    <glyph glyph-name="questiondown.small" horiz-adv-x="372" 
d="M168 219v11h79q0 -61 -10.5 -81t-62.5 -66l-23 -21q-33 -30 -33 -70q0 -29 22 -49.5t59 -20.5q38 0 66 20.5t34 36.5h3l47 -35h1q-54 -85 -155 -85q-69 0 -116 37.5t-47 100.5q0 61 73 123q36 30 49.5 49.5t13.5 49.5zM245 338v-71h-77v71h77z" />
    <glyph glyph-name="emdash.small" horiz-adv-x="629" 
d="M32 224h565v-69h-565v69z" />
    <glyph glyph-name="endash.small" horiz-adv-x="407" 
d="M32 224h343v-70h-343v70z" />
    <glyph glyph-name="guillemotleft.small" horiz-adv-x="365" 
d="M207 400l-96 -166l99 -164h-75l-93 166l93 164h72zM319 400l-96 -166l100 -164h-76l-92 166l92 164h72z" />
    <glyph glyph-name="guillemotright.small" horiz-adv-x="367" 
d="M257 234l-97 166h72l93 -164l-93 -166h-75zM142 234l-97 166h73l93 -164l-93 -166h-76z" />
    <glyph glyph-name="guilsinglleft.small" horiz-adv-x="252" 
d="M208 400l-97 -166l40 -67q11 -19 31.5 -52t27.5 -45h-75l-93 166l93 164h73z" />
    <glyph glyph-name="guilsinglright.small" horiz-adv-x="252" 
d="M141 234l-97 166h73l93 -164l-93 -166h-75z" />
    <glyph glyph-name="periodcentered.small" horiz-adv-x="136" 
d="M25 179v79h83v-79h-83z" />
    <glyph glyph-name="iacute.small" horiz-adv-x="206" 
d="M60 0l1 484h85v-484h-86zM57 542l81 132h92l-105 -132h-68z" />
    <glyph glyph-name="arrowdblright" horiz-adv-x="770" 
d="M41 262h560l70 68l-70 69h-560v39h521l-112 112l32 31l248 -251l-248 -249l-32 30l112 111h-521v40z" />
    <glyph glyph-name="apple" horiz-adv-x="715" 
d="M60 686h595v-552h-595v552zM580 207v405h-122q-16 -47 -51 -145.5t-50 -145.5l-100 291h-122v-405h64v367l131 -359h53l133 359v-367h64zM99 0h-14l-6 54q0 6 -1 18.5t-1 16.5h-2q0 -1 1 -8.5t1 -12.5v-68h-17v109h25l5 -45q0 -1 2 -12.5t2 -19.5q0 27 2 32l3 45h25v-109
h-15v50v39q0 -4 -1 -21.5t-1 -20.5zM135 17v74q0 21 18 21q23 0 23 -21v-74q0 -19 -23 -19q-6 0 -12 5t-6 14zM151 91v-74q0 -4 2 -4q7 0 7 4v74q0 5 -1 6t-6 1q-2 0 -2 -7zM202 42v-25q0 -4 5 -4q6 0 6 4v11q0 8 -14 24.5t-14 26.5v12q0 21 22 21q21 0 21 -21v-21h-15v21
q0 7 -6 7q-5 0 -5 -7v-12q0 -4 13 -20.5t13 -21.5v-20q0 -9 -7 -14t-14 -5q-22 0 -22 19v25h17zM234 109h45v-13h-13v-96h-17v96h-15v13zM274 0l12 109h25l12 -109h-16l-5 28h-11l-3 -28h-14zM294 45h8l-4 44h-2zM343 0h-15v109h22q22 0 22 -20v-12q0 -14 -17 -17
q13 0 17 -15v-45h-15q-2 9 -2 42q0 8 -12 8v-50zM343 98v-34h3q9 0 9 6v21q0 7 -5 7h-7zM379 0v109h21q13 0 17 -5t4 -19v-65q0 -20 -19 -20h-23zM396 98v-83h4q4 0 4 5v69q0 9 -4 9h-4zM468 0h-39v109h39v-13h-22v-28h20v-14h-20v-39h22v-15zM491 42v-25q0 -4 2 -4q7 0 7 4
v11q0 8 -13 24.5t-13 26.5v12q0 21 19 21q23 0 23 -21v-21h-16v21q0 5 -1 6t-6 1q-2 0 -2 -7v-12q0 -4 12.5 -20.5t12.5 -21.5v-20q0 -19 -23 -19q-7 0 -13 5t-6 14v25h17zM541 0h-16v109h16v-109zM572 54h21v-54h-8v6q-8 -8 -17 -8q-6 0 -12.5 5t-6.5 14v74q0 21 23 21
q21 0 21 -21v-21h-17v21q0 7 -4 7q-6 0 -6 -7v-74q0 -4 6 -4q4 0 4 4v25h-4v12zM603 109h25l2 -30q8 -22 8 -62v6v31v55h15v-109h-25l-7 57q-5 18 -5 34v-12v-79h-13v109z" />
    <glyph glyph-name="bracerightmid" horiz-adv-x="241" 
d="M201 265v-53q-84 -9 -84 -159v-376h-76v390q-1 43 13 84.5t27.5 62t21.5 25.5q-65 46 -62 142v419h76v-406q0 -60 17 -91.5t67 -37.5z" />
    </font>
</defs>
</svg>
