<?xml version="1.0" standalone="no"?>
<!DOCTYPE svg PUBLIC "-//W3C//DTD SVG 1.1//EN" "http://www.w3.org/Graphics/SVG/1.1/DTD/svg11.dtd" >
<svg>
<metadata>
Created by FontForge 20120731 at Tue Dec 15 21:06:50 2015
 By ,,,
Copyright (c) Olivier Gourvat - Mostardesign Studio, 2004-2011. All rights reserved.
</metadata>
<defs>
<font id="IntervalSansPro-Bold" horiz-adv-x="575" >
  <font-face 
    font-family="Interval Sans Pro"
    font-weight="700"
    font-stretch="normal"
    units-per-em="1000"
    panose-1="2 0 5 3 0 0 0 2 0 4"
    ascent="750"
    descent="-250"
    x-height="484"
    cap-height="674"
    bbox="-50 -230 1178 1122"
    underline-thickness="50"
    underline-position="-50"
    unicode-range="U+0020-FB06"
  />
<missing-glyph horiz-adv-x="500" 
 />
    <glyph glyph-name="ff" unicode="ff" horiz-adv-x="638" 
d="M22 484h55v39q0 47 13.5 80t30.5 48.5t43 24t38.5 9t30.5 0.5h5q47 0 101 -30l-23 -83q-33 13 -60 13q-29 0 -29 -46v-55h169v39q0 47 13.5 80t30.5 48.5t43 24t38.5 9t30.5 0.5h5q47 0 101 -30l-23 -83q-33 13 -60 13q-29 0 -29 -46v-55h87v-95h-87v-389h-151l1 389
h-169v-389h-151l1 389h-55v95z" />
    <glyph glyph-name="fi" unicode="fi" horiz-adv-x="591" 
d="M379 0v389h-152v-389h-151l1 389h-55v95h55v39q0 47 13.5 80t30.5 48.5t43 24t38.5 9t30.5 0.5h5q47 0 101 -30l-23 -83q-33 13 -60 13q-29 0 -29 -46v-55h304v-484h-152z" />
    <glyph glyph-name="fl" unicode="fl" horiz-adv-x="591" 
d="M379 0v574h-123q-19 0 -24 -9.5t-5 -25.5v-55h87v-95h-87v-389h-151l1 389h-55v95h55v39q0 43 15 73.5t33 45t45 22.5t40 9t28 1h293v-674h-152z" />
    <glyph glyph-name="f_f_i" unicode="ffi" horiz-adv-x="910" 
d="M698 0v389h-152v-389h-151l1 389h-169v-389h-151l1 389h-55v95h55v39q0 47 13.5 80t30.5 48.5t43 24t38.5 9t30.5 0.5h5q47 0 101 -30l-23 -83q-33 13 -60 13q-29 0 -29 -46v-55h169v39q0 47 13.5 80t30.5 48.5t43 24t38.5 9t30.5 0.5h5q47 0 101 -30l-23 -83
q-33 13 -60 13q-29 0 -29 -46v-55h304v-484h-152z" />
    <glyph glyph-name="f_f_l" unicode="ffl" horiz-adv-x="910" 
d="M698 0v574h-123q-29 0 -29 -46v-44h87v-95h-87v-389h-151l1 389h-169v-389h-151l1 389h-55v95h55v39q0 47 13.5 80t30.5 48.5t43 24t38.5 9t30.5 0.5h5q47 0 101 -30l-23 -83q-33 13 -60 13q-29 0 -29 -46v-55h169v28q0 46 15 79t33 48.5t45.5 24t40 9.5t27.5 1h293v-674
h-152z" />
    <glyph glyph-name="f_f_j" unicode="ffj" horiz-adv-x="921" 
d="M861 484l-1 -507q0 -47 -14 -80t-31 -48.5t-44 -24t-38.5 -9t-30.5 -0.5q-52 0 -114 33l22 88q20 -5 32 -9l15 -5t5 -1.5t4 -1.5q7 1 12 -1.5t9.5 1.5t7.5 4t5 6t4 8t3 9t1.5 9t0.5 9v9v8v408h-163v-389h-151l1 389h-169v-389h-151l1 389h-55v95h55v39q0 47 13.5 80
t30.5 48.5t43 24t38.5 9t30.5 0.5h5q47 0 101 -30l-23 -83q-33 13 -60 13q-29 0 -29 -46v-55h169v39q0 47 13.5 80t30.5 48.5t43 24t38.5 9t30.5 0.5h5q47 0 101 -30l-23 -83q-33 13 -60 13q-29 0 -29 -46v-55h315z" />
    <glyph glyph-name="f_j" unicode="fj" horiz-adv-x="602" 
d="M542 484l-1 -507q0 -47 -14 -80t-31 -48.5t-44 -24t-38.5 -9t-30.5 -0.5q-52 0 -114 33l22 88q20 -5 32 -9l15 -5t5 -1.5t4 -1.5q7 1 12 -1.5t9.5 1.5t7.5 4t5 6t4 8t3 9t1.5 9t0.5 9v9v8v408h-163v-389h-151l1 389h-55v95h55v39q0 47 13.5 80t30.5 48.5t43 24t38.5 9
t30.5 0.5h5q47 0 101 -30l-23 -83q-33 13 -60 13q-29 0 -29 -46v-55h315z" />
    <glyph glyph-name="f_b" unicode="fb" horiz-adv-x="894" 
d="M530 674v-242q42 66 136 66q83 0 138 -66.5t55 -189.5q0 -125 -57.5 -190t-154.5 -65q-6 0 -18.5 2.5t-31.5 9t-38 21.5t-30 35v-55h-150v574h-123q-29 0 -29 -46v-44h87v-95h-87v-389h-150v389h-55v95h55v28q0 46 15 79t33 48.5t45.5 24t40 9.5t27.5 1h292zM604 386
q-12 0 -27 -5.5t-31 -25.5t-16 -51v-129q0 -76 90 -76q44 0 64 41.5t20 101.5q0 144 -100 144z" />
    <glyph glyph-name="f_f_b" unicode="ffb" horiz-adv-x="1213" 
d="M849 674v-242q42 66 136 66q83 0 138 -66.5t55 -189.5q0 -125 -57.5 -190t-154.5 -65q-6 0 -18.5 2.5t-31.5 9t-38 21.5t-30 35v-55h-150v574h-123q-29 0 -29 -46v-44h87v-95h-87v-389h-151l1 389h-169v-389h-150v389h-55v95h55v39q0 47 13.5 80t30.5 48.5t43 24t38.5 9
t30.5 0.5h5q47 0 101 -30l-23 -83q-33 13 -60 13q-29 0 -29 -46v-55h169v28q0 46 15 79t33 48.5t45.5 24t40 9.5t27.5 1h292zM923 386q-12 0 -27 -5.5t-31 -25.5t-16 -51v-129q0 -76 90 -76q44 0 64 41.5t20 101.5q0 144 -100 144z" />
    <glyph glyph-name="f_h" unicode="fh" horiz-adv-x="894" 
d="M834 282v-282h-151v282q0 104 -62 104q-12 0 -25 -4t-29 -13.5t-26.5 -31.5t-10.5 -53v-284h-151v574h-123q-29 0 -29 -46v-44h87v-95h-87v-389h-150v389h-55v95h55v28q0 46 15 79t33 48.5t45.5 24t40 9.5t27.5 1h292v-251q21 40 61 57.5t70 17.5q173 0 173 -216z" />
    <glyph glyph-name="f_f_h" unicode="ffh" horiz-adv-x="1213" 
d="M22 484h55v39q0 47 13.5 80t30.5 48.5t43 24t38.5 9t30.5 0.5h5q47 0 101 -30l-23 -83q-33 13 -60 13q-29 0 -29 -46v-55h169v28q0 46 15 79t33 48.5t45.5 24t40 9.5t27.5 1h292v-251q21 40 61 57.5t70 17.5q173 0 173 -216v-282h-151v282q0 104 -62 104q-12 0 -25 -4
t-29 -13.5t-26.5 -31.5t-10.5 -53v-284h-151v574h-123q-29 0 -29 -46v-44h87v-95h-87v-389h-151l1 389h-169v-389h-150v389h-55v95z" />
    <glyph glyph-name="f_k" unicode="fk" horiz-adv-x="852" 
d="M639 296l208 -296h-168l-135 213l-14 -14v-199h-151v574h-123q-29 0 -29 -46v-44h87v-95h-87v-389h-150v389h-55v95h55v28q0 46 15 79t33 48.5t45.5 24t40 9.5t27.5 1h292v-323l117 133h177z" />
    <glyph glyph-name="f_f_k" unicode="ffk" horiz-adv-x="1171" 
d="M22 484h55v39q0 47 13.5 80t30.5 48.5t43 24t38.5 9t30.5 0.5h5q47 0 101 -30l-23 -83q-33 13 -60 13q-29 0 -29 -46v-55h169v28q0 46 15 79t33 48.5t45.5 24t40 9.5t27.5 1h292v-323l117 133h177l-185 -188l208 -296h-168l-135 213l-14 -14v-199h-151v574h-123
q-29 0 -29 -46v-44h87v-95h-87v-389h-151l1 389h-169v-389h-150v389h-55v95z" />
    <glyph glyph-name="f_t" unicode="ft" horiz-adv-x="692" 
d="M409 390h-182v-390h-150v389h-55v95h55v39q0 47 13.5 80t30.5 48.5t43 24t38.5 9t30.5 0.5h5q47 0 101 -30l-23 -83q-33 13 -60 13q-29 0 -29 -46v-55h182v114h149v-114h102v-94h-102v-251q0 -10 1 -15.5t4 -13.5t12 -12t24 -4q20 0 68 20l5 -98q-56 -28 -102 -28
q-21 0 -33.5 0.5t-39.5 9t-43.5 24t-30.5 48.5t-14 80v240z" />
    <glyph glyph-name="f_f_t" unicode="fft" horiz-adv-x="1011" 
d="M728 389h-182v-389h-151l1 389h-169v-389h-151l1 389h-55v95h55v39q0 47 13.5 80t30.5 48.5t43 24t38.5 9t30.5 0.5h5q47 0 101 -30l-23 -83q-33 13 -60 13q-29 0 -29 -46v-55h169v39q0 47 13.5 80t30.5 48.5t43 24t38.5 9t30.5 0.5h5q47 0 101 -30l-23 -83
q-33 13 -60 13q-29 0 -29 -46v-55h182v114h149v-114h102v-94h-102v-251q0 -10 1 -15.5t4 -13.5t12 -12t24 -4q20 0 68 20l5 -98q-56 -28 -102 -28q-21 0 -33.5 0.5t-39.5 9t-43.5 24t-30.5 48.5t-14 80v239z" />
    <glyph glyph-name="t_h" unicode="th" horiz-adv-x="948" 
d="M433 0v390h-194v-251q0 -10 1 -15.5t4 -13.5t12 -12t24 -4q20 0 68 20l5 -98q-56 -28 -102 -28q-21 0 -33.5 0.5t-39.5 9t-43.5 24t-30.5 48.5t-14 80v240h-78v94h78v114h149v-114h194v190h151v-251q21 40 61 57.5t70 17.5q173 0 173 -216v-282h-151v282q0 104 -62 104
q-12 0 -25 -4t-29 -13.5t-26.5 -31.5t-10.5 -53v-284h-151z" />
    <glyph glyph-name=".notdef" horiz-adv-x="500" 
 />
    <glyph glyph-name=".null" horiz-adv-x="0" 
 />
    <glyph glyph-name="nonmarkingreturn" horiz-adv-x="333" 
 />
    <glyph glyph-name="space" unicode=" " horiz-adv-x="278" 
 />
    <glyph glyph-name="space" unicode="&#xa0;" horiz-adv-x="278" 
 />
    <glyph glyph-name="exclam" unicode="!" horiz-adv-x="292" 
d="M88 184l-14 490h144l-14 -490h-116zM70 0v120h152v-120h-152z" />
    <glyph glyph-name="quotedbl" unicode="&#x22;" horiz-adv-x="432" 
d="M67 357l-17 317h140l-17 -317h-106zM259 357l-17 317h140l-17 -317h-106z" />
    <glyph glyph-name="numbersign" unicode="#" horiz-adv-x="630" 
d="M255 674h133l-58 -191h66l58 191h131l-58 -191h63v-100h-96l-31 -98h72l-1 -103h-104l-59 -182h-128l59 182h-67l-60 -182h-132l58 182h-61v103h93l29 98h-72l1 100h106zM297 383l-31 -98h68l31 98h-68z" />
    <glyph glyph-name="dollar" unicode="$" horiz-adv-x="605" 
d="M249 -108v101q-49 7 -76 19q-92 34 -143 81l51 107q41 -37 109 -65.5t130 -28.5q38 0 69 18.5t31 53.5q0 47 -47 65l-181 70q-75 30 -109.5 75.5t-34.5 94.5q0 81 55.5 133.5t145.5 64.5v88h106v-87q55 -6 98 -26t94 -58l-44 -101q-108 67 -196 67q-42 0 -70.5 -15
t-35.5 -35.5t7.5 -43.5t49.5 -37l178 -67q139 -51 139 -171q0 -88 -63.5 -142.5t-156.5 -63.5v-97h-106z" />
    <glyph glyph-name="percent" unicode="%" horiz-adv-x="819" 
d="M40 492q0 77 42.5 120.5t117.5 43.5t118.5 -43.5t43.5 -120.5q0 -78 -43.5 -122t-118.5 -44q-74 0 -117 44t-43 122zM254 492q0 33 -14 54.5t-40 21.5q-25 0 -38.5 -21.5t-13.5 -54.5t13.5 -54.5t38.5 -21.5q26 0 40 22t14 54zM457 155q0 77 42.5 120.5t117.5 43.5
t118.5 -43.5t43.5 -120.5q0 -78 -43.5 -122t-118.5 -44q-74 0 -117 44t-43 122zM671 155q0 33 -14 54.5t-40 21.5q-25 0 -38.5 -21.5t-13.5 -54.5t13.5 -54.5t38.5 -21.5q26 0 40 22t14 54zM160 0l398 674h89l-397 -674h-90z" />
    <glyph glyph-name="ampersand" unicode="&#x26;" horiz-adv-x="647" 
d="M188 192q0 -46 25.5 -73.5t72.5 -27.5q67 0 102 65l-132 128q-29 -10 -48.5 -34t-19.5 -58zM339 507q-7 66 -53 66q-47 0 -54 -65q-2 -28 13.5 -57t38.5 -39q26 12 41.5 39.5t13.5 55.5zM381 340l52 -54q0 1 3 7.5t5.5 20.5t2.5 37h119q2 -14 2 -41q0 -76 -23 -133
q25 -27 35 -38.5t24.5 -34t19.5 -47t5 -57.5h-129q0 57 -18 72q-24 -36 -76.5 -59.5t-116.5 -23.5q-121 0 -183.5 56t-62.5 140q0 119 120 177q-37 34 -53.5 74t-13.5 75q6 74 62 114.5t131 40.5q73 0 129 -40.5t62 -112.5q6 -105 -96 -173z" />
    <glyph glyph-name="quotesingle" unicode="'" horiz-adv-x="240" 
d="M67 357l-17 317h140l-17 -317h-106z" />
    <glyph glyph-name="parenleft" unicode="(" horiz-adv-x="414" 
d="M60 245q0 196 81 312.5t213 116.5v-80q-64 0 -114.5 -94t-50.5 -256t50.5 -256t114.5 -94v-80q-132 0 -213 117t-81 314z" />
    <glyph glyph-name="parenright" unicode=")" horiz-adv-x="414" 
d="M354 245q0 -197 -81 -314t-213 -117v80q64 0 114.5 94t50.5 256t-50.5 256t-114.5 94v80q132 0 213 -116.5t81 -312.5z" />
    <glyph glyph-name="asterisk" unicode="*" horiz-adv-x="421" 
d="M252 582l79 50l50 -81l-95 -45l95 -43l-50 -82l-79 49l4 -91h-90l5 93l-82 -51l-49 82l94 43l-94 44l49 82l82 -51q-1 17 -3 49t-2 44h90z" />
    <glyph glyph-name="plus" unicode="+" horiz-adv-x="591" 
d="M40 395h189v186h134v-186h188v-113h-188v-185h-134v185h-189v113z" />
    <glyph glyph-name="comma" unicode="," horiz-adv-x="355" 
d="M40 -93l113 223h162l-146 -223h-129z" />
    <glyph glyph-name="hyphen" unicode="-" horiz-adv-x="455" 
d="M415 196h-375v128h375v-128z" />
    <glyph glyph-name="period" unicode="." horiz-adv-x="259" 
d="M50 0v130h159v-130h-159z" />
    <glyph glyph-name="slash" unicode="/" horiz-adv-x="408" 
d="M378 674l-234 -674h-114l233 674h115z" />
    <glyph glyph-name="zero" unicode="0" horiz-adv-x="600" 
d="M297 -13q-117 0 -186 90.5t-69 246.5t69 246.5t186 90.5q122 0 191 -90t69 -247t-69 -247t-191 -90zM297 551q-52 0 -81.5 -68t-29.5 -159q0 -93 29.5 -160t81.5 -67q55 0 85 66.5t30 160.5q0 92 -30.5 159.5t-84.5 67.5z" />
    <glyph glyph-name="one" unicode="1" horiz-adv-x="600" 
d="M216 387l-67 87l173 176h123v-650h-145v478z" />
    <glyph glyph-name="two" unicode="2" horiz-adv-x="600" 
d="M286 526q-43 0 -84.5 -25t-63.5 -53l-69 82q49 52 82 74q65 42 140 42q97 0 164 -56.5t67 -147.5q0 -36 -15 -67t-46 -58t-56.5 -44.5t-69.5 -42.5q-54 -32 -92.5 -63t-42.5 -48h311v-119h-456v74q0 75 51 132.5t137 111.5q62 36 96 65q41 35 41 64q0 32 -25.5 55.5
t-68.5 23.5z" />
    <glyph glyph-name="three" unicode="3" horiz-adv-x="600" 
d="M304 -11q-143 0 -242 93l57 88q76 -69 150 -69q118 0 118 84q0 36 -24 62.5t-68 26.5h-86v115h82q42 0 65 24t23 56q0 33 -22 57.5t-61 24.5q-101 0 -159 -69l-57 83q11 15 32.5 34t74 40.5t114.5 21.5q98 0 162 -50.5t64 -139.5q0 -39 -24 -79.5t-72 -56.5
q49 -13 78 -61t29 -87q0 -89 -69.5 -143.5t-164.5 -54.5z" />
    <glyph glyph-name="four" unicode="4" horiz-adv-x="600" 
d="M471 0l-146 1v120h-285v103q50 115 128 228t164 198h139v-417h89v-113h-89v-120zM171 233h154v237q-104 -111 -154 -237z" />
    <glyph glyph-name="five" unicode="5" horiz-adv-x="600" 
d="M414 223q0 45 -27.5 79t-83.5 34q-68 0 -98 -48h-123l59 363h360v-120h-252l-21 -124q49 33 106 35.5t104 -22t78 -77t31 -121.5q0 -80 -40 -135.5t-97.5 -79t-124.5 -23.5q-134 0 -221 95l60 99q73 -77 153 -77q72 0 104.5 36t32.5 86z" />
    <glyph glyph-name="six" unicode="6" horiz-adv-x="600" 
d="M505 607l-34 -88q-52 35 -126 35q-55 0 -99.5 -49t-40.5 -127q19 28 55 41t63 13q93 0 156 -61t63 -161q0 -103 -66.5 -163t-171.5 -60q-62 0 -108.5 21.5t-72 53.5t-41.5 76.5t-20.5 82t-4.5 78.5q0 173 75.5 267.5t199.5 94.5q93 0 173 -54zM302 94q44 0 67 36.5
t23 79.5t-23.5 80.5t-67.5 37.5q-40 0 -63 -33t-23 -79q0 -53 23.5 -87.5t63.5 -34.5z" />
    <glyph glyph-name="seven" unicode="7" horiz-adv-x="600" 
d="M59 532v118h481v-94q-99 -126 -163.5 -258.5t-117.5 -297.5h-164q131 340 295 532h-331z" />
    <glyph glyph-name="eight" unicode="8" horiz-adv-x="600" 
d="M300 -13q-121 0 -183.5 55.5t-62.5 137.5q0 45 26 91t87 66q-46 20 -69.5 62t-23.5 85q0 73 51 115t124 56q32 4 51 4q32 0 52 -4q73 -14 123 -55.5t50 -115.5q0 -43 -23 -85t-69 -62q61 -19 87 -65.5t26 -91.5q0 -82 -63 -137.5t-183 -55.5zM300 102q46 0 73 24.5
t27 59.5q0 45 -25 70.5t-75 26.5q-49 -1 -73.5 -26.5t-24.5 -70.5q0 -40 28.5 -62t69.5 -22zM298 401q37 0 59.5 19t22.5 54q0 75 -80 75t-80 -73q0 -37 21 -56t57 -19z" />
    <glyph glyph-name="nine" unicode="9" horiz-adv-x="600" 
d="M94 41l34 88q52 -35 126 -35q55 0 100.5 50.5t39.5 125.5q-19 -28 -55 -41t-63 -13q-93 0 -156 61t-63 161q0 103 66.5 163t171.5 60q62 0 108.5 -21.5t72 -53.5t41.5 -76.5t20.5 -82t4.5 -78.5q0 -173 -75.5 -267.5t-199.5 -94.5q-93 0 -173 54zM297 554
q-44 0 -67 -36.5t-23 -79.5t23.5 -80.5t67.5 -37.5q40 0 63 33t23 79q0 53 -23.5 87.5t-63.5 34.5z" />
    <glyph glyph-name="colon" unicode=":" horiz-adv-x="239" 
d="M40 0v130h159v-130h-159zM40 354v130h159v-130h-159z" />
    <glyph glyph-name="semicolon" unicode=";" horiz-adv-x="355" 
d="M157 354v130h158v-130h-158zM40 -93l113 223h162l-146 -223h-129z" />
    <glyph glyph-name="less" unicode="&#x3c;" horiz-adv-x="605" 
d="M545 503v-137l-320 -125l320 -126v-135l-515 228v67z" />
    <glyph glyph-name="equal" unicode="=" horiz-adv-x="524" 
d="M484 363h-444v104h444v-104zM484 167h-444v104h444v-104z" />
    <glyph glyph-name="greater" unicode="&#x3e;" horiz-adv-x="605" 
d="M60 366v137l515 -228v-67l-515 -228v135l312 126z" />
    <glyph glyph-name="question" unicode="?" horiz-adv-x="563" 
d="M333 406q39 33 39 83q0 35 -24 61t-65 26q-44 0 -83 -30t-47 -52l-88 70q71 121 221 121q102 0 169.5 -52.5t67.5 -149.5q0 -88 -101 -171q-12 -10 -30 -24t-25 -20t-15.5 -18t-11 -27t-2.5 -39h-133q0 30 0.5 47.5t8.5 38.5t11 28.5t25.5 31t32 32t50.5 44.5zM196 0v120
h152v-120h-152z" />
    <glyph glyph-name="at" unicode="@" horiz-adv-x="844" 
d="M719 96l34 -47q-54 -54 -140.5 -87.5t-170.5 -33.5q-173 0 -282.5 103.5t-109.5 274.5q0 168 110 273.5t272 105.5q93 0 165.5 -29t113.5 -76t62 -99.5t21 -106.5q0 -73 -22 -130.5t-58 -90t-74.5 -49t-77.5 -16.5q-44 0 -65.5 28t-18.5 62q-42 -71 -109 -71
q-152 0 -152 151q0 97 60 163t136 66q21 0 47 -12t33 -36l10 40h122l-55 -248q-6 -7 -0.5 -31.5t27.5 -24.5q11 0 28 11.5t35.5 33t31 61t12.5 87.5q0 80 -41.5 135.5t-101 79t-129.5 23.5q-127 0 -208 -83t-81 -217q0 -137 80 -222t222 -85q137 0 274 97zM439 403
q-49 0 -73.5 -45.5t-24.5 -103.5q0 -64 38 -64q21 0 46 15.5t34 46.5l19 112q4 21 -11 30t-28 9z" />
    <glyph glyph-name="A" unicode="A" horiz-adv-x="722" 
d="M172 0h-162l279 674h143l280 -674h-163l-60 154h-259zM361 525l-87 -261h172z" />
    <glyph glyph-name="B" unicode="B" horiz-adv-x="645" 
d="M385 284h-165v-170h165q38 0 59.5 24t21.5 57q0 35 -21.5 62t-59.5 27zM588 485q0 -17 -3 -35t-24.5 -48.5t-59.5 -45.5q56 -8 87.5 -58t31.5 -104q0 -73 -55 -133.5t-155 -60.5h-345v674h314q105 0 157 -54.5t52 -134.5zM220 394h152q30 0 46.5 26.5t16.5 53.5
q0 39 -19.5 62.5t-56.5 23.5h-139v-166z" />
    <glyph glyph-name="C" unicode="C" horiz-adv-x="642" 
d="M40 337q0 150 95.5 249t253.5 99q131 0 223 -48l-39 -102q-90 32 -163 32q-74 0 -124 -35.5t-69.5 -85t-19.5 -109.5q0 -95 52.5 -163.5t160.5 -68.5q68 0 166 33l36 -103q-92 -48 -223 -48q-158 0 -253.5 100t-95.5 250z" />
    <glyph glyph-name="D" unicode="D" horiz-adv-x="702" 
d="M323 0h-258v674h258q166 0 257.5 -85.5t91.5 -251.5t-91.5 -251.5t-257.5 -85.5zM219 117h108q85 0 138.5 54.5t53.5 165.5q0 113 -53 166.5t-142 53.5h-105v-440z" />
    <glyph glyph-name="E" unicode="E" horiz-adv-x="602" 
d="M557 0h-492v674h486v-117h-331v-159h306v-117h-306v-164h337v-117z" />
    <glyph glyph-name="F" unicode="F" horiz-adv-x="558" 
d="M221 -1l-156 1v674h458v-117h-302v-159h278v-117h-278v-282z" />
    <glyph glyph-name="G" unicode="G" horiz-adv-x="713" 
d="M525 266l-136 -2v117h278v-336q-42 -25 -118 -41.5t-134 -16.5q-170 0 -272.5 100t-102.5 250t102.5 249t272.5 99q132 0 239 -67l-49 -97q-40 24 -94 35.5t-86 11.5q-61 0 -107 -20t-71.5 -54t-37.5 -73.5t-12 -83.5q0 -93 60 -162.5t169 -69.5q51 0 99 15v146z" />
    <glyph glyph-name="H" unicode="H" horiz-adv-x="696" 
d="M476 287h-256v-287h-155v674h155v-269h256v269h155v-674h-155v287z" />
    <glyph glyph-name="I" unicode="I" horiz-adv-x="284" 
d="M65 0v674h154v-674h-154z" />
    <glyph glyph-name="J" unicode="J" horiz-adv-x="469" 
d="M10 38l33 101q28 -18 61 -29t67.5 -13t57.5 23t23 77v477h152v-483q0 -111 -58 -157.5t-147 -46.5q-82 0 -189 51z" />
    <glyph glyph-name="K" unicode="K" horiz-adv-x="647" 
d="M637 0h-186l-195 256l-36 -46v-210h-155v674h155v-256l199 256h177l-244 -305z" />
    <glyph glyph-name="L" unicode="L" horiz-adv-x="570" 
d="M221 674v-556h309v-118h-465v674h156z" />
    <glyph glyph-name="M" unicode="M" horiz-adv-x="893" 
d="M385 0l-153 458l-30 -458h-152l52 674h175l169 -492l171 492h174l52 -674h-150l-30 460l-155 -460h-123z" />
    <glyph glyph-name="N" unicode="N" horiz-adv-x="702" 
d="M455 0l-236 465v-465h-154v674h191l227 -460v460h154v-674h-182z" />
    <glyph glyph-name="O" unicode="O" horiz-adv-x="753" 
d="M376 -13q-156 0 -246 93t-90 257q0 163 90 255.5t246 92.5q157 0 247 -92.5t90 -255.5q0 -164 -90 -257t-247 -93zM376 570q-85 0 -130.5 -67t-45.5 -166q0 -104 45 -169.5t131 -65.5t131.5 65.5t45.5 169.5q0 99 -45.5 166t-131.5 67z" />
    <glyph glyph-name="P" unicode="P" horiz-adv-x="617" 
d="M386 243h-166v-243h-155v674h314q59 0 103.5 -21t68.5 -55.5t35 -71t11 -74.5q0 -12 -2.5 -30t-14.5 -51.5t-32.5 -60t-63 -47t-98.5 -20.5zM220 361h153q37 0 54.5 32.5t17.5 62.5q0 41 -23.5 71t-65.5 30h-136v-196z" />
    <glyph glyph-name="Q" unicode="Q" horiz-adv-x="743" 
d="M484 -13h-108q-151 0 -243.5 94t-92.5 256q0 163 90 255.5t246 92.5q157 0 247 -92.5t90 -255.5q0 -95 -36 -169.5t-100 -120.5q27 -13 66 -13h69v-117h-66q-35 0 -59 3t-40.5 12t-23.5 14t-20.5 20.5t-18.5 20.5zM376 570q-85 0 -130.5 -67t-45.5 -166q0 -103 45 -168
t131 -65t131.5 65t45.5 168q0 99 -45.5 166t-131.5 67z" />
    <glyph glyph-name="R" unicode="R" horiz-adv-x="657" 
d="M597 466q0 -128 -124 -162q28 -8 49 -33t24 -37l91 -234h-158l-79 192q-23 56 -76 60h-104v-252h-155v674h305q67 0 114 -18.5t70.5 -51t33 -66t9.5 -72.5zM220 369h148q39 0 59 29t20 57q0 41 -23 71.5t-65 30.5h-139v-188z" />
    <glyph glyph-name="S" unicode="S" horiz-adv-x="605" 
d="M300 685q78 0 132.5 -20.5t114.5 -66.5l-44 -101q-108 67 -196 67q-42 0 -70.5 -15t-35.5 -35.5t7.5 -43.5t49.5 -37l178 -67q139 -51 139 -171q0 -97 -75.5 -152.5t-180.5 -55.5q-82 0 -146 25q-92 34 -143 81l51 107q41 -37 109 -65.5t130 -28.5q38 0 69 18.5t31 53.5
q0 47 -47 65l-181 70q-75 30 -109.5 75.5t-34.5 94.5q0 94 71 148t181 54z" />
    <glyph glyph-name="T" unicode="T" horiz-adv-x="579" 
d="M569 557h-203v-557h-154v557h-202v117h559v-117z" />
    <glyph glyph-name="U" unicode="U" horiz-adv-x="720" 
d="M360 -13q-144 0 -219.5 72.5t-75.5 242.5v372h156v-374q0 -100 33 -148t106 -48q74 0 107.5 48t33.5 148v374h154v-372q0 -171 -75 -243t-220 -72z" />
    <glyph glyph-name="V" unicode="V" horiz-adv-x="672" 
d="M10 674h158l169 -511l169 511h156l-253 -674h-143z" />
    <glyph glyph-name="W" unicode="W" horiz-adv-x="962" 
d="M554 651l119 -465l118 488h161l-206 -674h-145l-119 468l-120 -468h-145l-207 674h159l121 -488l119 465h145z" />
    <glyph glyph-name="X" unicode="X" horiz-adv-x="693" 
d="M504 0l-158 238l-159 -238h-177l252 333l-241 341h177l148 -240l149 240h176l-241 -341l253 -333h-179z" />
    <glyph glyph-name="Y" unicode="Y" horiz-adv-x="695" 
d="M427 0h-158v237l-259 437h177l161 -312l159 312h178l-258 -436v-238z" />
    <glyph glyph-name="Z" unicode="Z" horiz-adv-x="615" 
d="M574 0h-549v107l366 450h-350v117h549v-104l-371 -451h355v-119z" />
    <glyph glyph-name="bracketleft" unicode="[" horiz-adv-x="348" 
d="M288 577h-103v-665h103v-97h-228v859h228v-97z" />
    <glyph glyph-name="backslash" unicode="\" horiz-adv-x="410" 
d="M266 0l-236 674h115l235 -674h-114z" />
    <glyph glyph-name="bracketright" unicode="]" horiz-adv-x="348" 
d="M163 577h-103v97h228v-859h-228v97h103v665z" />
    <glyph glyph-name="asciicircum" unicode="^" horiz-adv-x="464" 
d="M30 361l149 313h107l148 -313h-138l-64 184l-65 -184h-137z" />
    <glyph glyph-name="underscore" unicode="_" horiz-adv-x="652" 
d="M40 -20h572v-92h-572v92z" />
    <glyph glyph-name="grave" unicode="`" horiz-adv-x="340" 
d="M205 708l95 -154h-116l-132 154h153z" />
    <glyph glyph-name="a" unicode="a" horiz-adv-x="531" 
d="M476 0h-150v64q-16 -38 -59 -55t-86 -17q-51 0 -101 39t-50 116q0 74 79 120.5t220 56.5v8q0 57 -60 62q-6 1 -12 1q-56 0 -108 -21q-24 -10 -42 -21l-42 90q10 6 28.5 15.5t73.5 25.5t108 16h13t28 -3t40 -8t41.5 -17.5t40 -29.5t27 -45t11.5 -63v-334zM226 97
q14 0 35 4.5t44.5 24t23.5 49.5v65q-68 -4 -113 -29.5t-45 -58.5q0 -23 16 -39t39 -16z" />
    <glyph glyph-name="b" unicode="b" 
d="M211 674v-242q42 66 136 66q83 0 138 -66.5t55 -189.5q0 -125 -57.5 -190t-154.5 -65q-6 0 -18.5 2.5t-31.5 9t-38 21.5t-30 35v-55h-150v674h151zM285 386q-12 0 -27 -5.5t-31 -25.5t-16 -51v-129q0 -76 90 -76q44 0 64 41.5t20 101.5q0 144 -100 144z" />
    <glyph glyph-name="c" unicode="c" horiz-adv-x="492" 
d="M35 242q0 118 69 187t188 69q88 0 170 -40l-30 -97q-46 24 -124 24q-62 0 -93 -41t-31 -102t31 -101.5t93 -40.5q68 0 124 23l30 -97q-80 -39 -170 -39q-119 0 -188 68.5t-69 186.5z" />
    <glyph glyph-name="d" unicode="d" 
d="M364 432v242h151v-674h-150v55q-11 -20 -30 -35t-38 -21.5t-31.5 -9t-18.5 -2.5q-97 0 -154.5 65t-57.5 190q0 123 55 189.5t138 66.5q95 0 136 -66zM290 386q-100 0 -100 -144q0 -60 20 -101.5t64 -41.5q90 0 90 76v129q0 31 -16 51t-31 25.5t-27 5.5z" />
    <glyph glyph-name="e" unicode="e" horiz-adv-x="560" 
d="M290 -12q-119 0 -187 73.5t-68 180.5q0 112 66.5 184t178.5 72q127 0 192 -87t49 -214h-346q18 -105 141 -105q77 0 147 36l32 -88q-83 -52 -205 -52zM175 291h216q0 43 -32 71.5t-75 28.5q-46 0 -77.5 -28t-31.5 -72z" />
    <glyph glyph-name="f" unicode="f" horiz-adv-x="319" 
d="M22 484h55v39q0 47 13.5 80t30.5 48.5t43 24t38.5 9t30.5 0.5h5q47 0 101 -30l-23 -83q-33 13 -60 13q-29 0 -29 -46v-55h87v-95h-87v-389h-151l1 389h-55v95z" />
    <glyph glyph-name="g" unicode="g" horiz-adv-x="577" 
d="M291 99q25 0 50 18t25 60v132q0 45 -28.5 61.5t-62.5 16.5q-44 0 -64 -42t-20 -103q0 -143 100 -143zM375 2v53q-30 -68 -117 -68q-85 0 -154 67.5t-69 187.5q0 123 57.5 189.5t143.5 66.5q9 0 20 -1.5t35 -7t44.5 -23t31.5 -43.5v61h150v-504q0 -46 -20 -79.5
t-54.5 -51.5t-73.5 -26t-85 -8q-57 0 -113.5 15.5t-83.5 35.5l34 95q28 -16 69 -27.5t83 -13.5t72 18.5t30 63.5z" />
    <glyph glyph-name="h" unicode="h" 
d="M515 282v-282h-151v282q0 104 -62 104q-12 0 -25 -4t-29 -13.5t-26.5 -31.5t-10.5 -53v-284h-151v674h151v-251q21 40 61 57.5t70 17.5q173 0 173 -216z" />
    <glyph glyph-name="i" unicode="i" horiz-adv-x="272" 
d="M60 0v484h152v-484h-152zM60 551v123h152v-123h-152z" />
    <glyph glyph-name="j" unicode="j" horiz-adv-x="283" 
d="M223 484l-1 -507q0 -47 -14 -80t-31 -48.5t-44 -24t-38.5 -9t-30.5 -0.5q-52 0 -114 33l22 88q20 -5 32 -9l15 -5t5 -1.5t4 -1.5q7 1 12 -1.5t9.5 1.5t7.5 4t5 6t4 8t3 9t1.5 9t0.5 9v9v8v503h152zM71 551v123h152v-123h-152z" />
    <glyph glyph-name="k" unicode="k" horiz-adv-x="533" 
d="M320 296l208 -296h-168l-135 213l-14 -14v-199h-151v674h151v-323l117 133h177z" />
    <glyph glyph-name="l" unicode="l" horiz-adv-x="272" 
d="M60 0v674h152v-674h-152z" />
    <glyph glyph-name="m" unicode="m" horiz-adv-x="815" 
d="M333 0l1 295q0 90 -63 90q-26 0 -45 -25.5t-19 -86.5v-273h-152v484h146v-73q18 47 59.5 67t76.5 20q82 0 122 -66q43 66 131 66q71 0 120.5 -46.5t49.5 -155.5v-296h-150v281q0 53 -14 78.5t-48 25.5q-7 0 -15 -2.5t-21 -10t-21 -27.5t-8 -49v-296h-150z" />
    <glyph glyph-name="n" unicode="n" horiz-adv-x="565" 
d="M510 280v-280h-151v280q0 108 -62 108q-11 0 -24.5 -4.5t-29.5 -15t-26.5 -33t-10.5 -53.5v-282h-151v484h145v-74q40 88 140 88q84 0 127 -50t43 -168z" />
    <glyph glyph-name="o" unicode="o" horiz-adv-x="566" 
d="M35 243q0 118 66.5 186.5t180.5 68.5q115 0 182 -68.5t67 -186.5t-67 -187t-182 -69q-114 0 -180.5 69t-66.5 187zM381 243q0 58 -27 102t-72 44t-71 -43.5t-26 -102.5t26 -103t71 -44t72 44.5t27 102.5z" />
    <glyph glyph-name="p" unicode="p" 
d="M210 55v-240h-150v669h149v-61q48 75 135 75q86 0 141 -65.5t55 -189.5q0 -123 -58.5 -189.5t-146.5 -66.5q-31 0 -67.5 15.5t-57.5 52.5zM284 98q100 0 100 145q0 60 -20 101.5t-63 41.5q-91 0 -91 -76v-128q0 -26 9 -44.5t23 -26t24 -10.5t18 -3z" />
    <glyph glyph-name="q" unicode="q" 
d="M365 -185v240q-21 -37 -57.5 -52.5t-67.5 -15.5q-88 0 -146.5 66.5t-58.5 189.5q0 124 55 189.5t141 65.5q87 0 135 -75v61h149v-669h-150zM291 98q8 0 18 3t24 10.5t23 26t9 44.5v128q0 76 -91 76q-42 0 -62.5 -42t-20.5 -101q0 -145 100 -145z" />
    <glyph glyph-name="r" unicode="r" horiz-adv-x="380" 
d="M360 498v-120h-28q-119 0 -119 -111l1 -267h-149v484h145v-86q16 53 55 76.5t75 23.5h20z" />
    <glyph glyph-name="s" unicode="s" horiz-adv-x="473" 
d="M247 98q39 0 52 27q12 35 -21 47l-127 48q-61 26 -84 58.5t-23 75.5q0 65 53.5 104.5t138.5 39.5q55 0 95.5 -14t99.5 -54l-44 -88q-74 52 -146 52q-38 0 -47 -28t52 -52l80 -30q74 -24 103 -83.5t-1 -123.5q-21 -40 -69 -65t-111 -25q-49 0 -106 19q-66 23 -112 65
l56 93q72 -66 161 -66z" />
    <glyph glyph-name="t" unicode="t" horiz-adv-x="373" 
d="M90 390h-78v94h78v114h149v-114h102v-94h-102v-251q0 -10 1 -15.5t4 -13.5t12 -12t24 -4q20 0 68 20l5 -98q-56 -28 -102 -28q-21 0 -33.5 0.5t-39.5 9t-43.5 24t-30.5 48.5t-14 80v240z" />
    <glyph glyph-name="u" unicode="u" 
d="M60 204v280h151v-280q0 -105 62 -105q9 0 20.5 2.5t29.5 10t29.5 27t11.5 48.5v297h151v-484h-145v68q-13 -27 -35 -45.5t-45 -25t-35 -8.5t-21 -2q-31 0 -60 11t-55.5 35t-42.5 68t-16 103z" />
    <glyph glyph-name="v" unicode="v" horiz-adv-x="576" 
d="M360 0h-144l-206 484h158l120 -343l120 343h158z" />
    <glyph glyph-name="w" unicode="w" horiz-adv-x="811" 
d="M10 484h158l82 -316l81 316h150l82 -314l82 314h156l-168 -484h-132l-95 305l-94 -305h-133z" />
    <glyph glyph-name="x" unicode="x" horiz-adv-x="574" 
d="M380 484h169l-173 -239q173 -227 188 -245h-170l-107 163l-107 -163h-170l186 245l-174 239h170l94 -156q7 12 41.5 70t52.5 86z" />
    <glyph glyph-name="y" unicode="y" horiz-adv-x="578" 
d="M86 -164l12 103q43 -23 63 -17q20 5 32 35l25 60q-173 389 -208 467h158l124 -325l117 325h159l-249 -585q-11 -26 -31 -44.5t-43 -26t-39.5 -10.5t-30.5 -3q-30 0 -89 21z" />
    <glyph glyph-name="z" unicode="z" horiz-adv-x="490" 
d="M25 0v91l257 287h-248v106h431v-91l-256 -287h248v-106h-432z" />
    <glyph glyph-name="braceleft" unicode="{" horiz-adv-x="393" 
d="M174 244q31 -9 59 -49.5t26 -81.5v-163q0 -41 31 -41h63v-94h-88q-47 0 -89 35t-42 86l1 164q0 30 -4.5 49.5t-21.5 35.5t-49 20v78q32 4 49 20t21.5 35.5t4.5 49.5l-1 165q0 51 42 86t89 35h88v-94h-64q-14 0 -21 -6.5t-8 -14t-1 -20.5v-164q2 -41 -26 -81.5t-59 -49.5z
" />
    <glyph glyph-name="bar" unicode="|" horiz-adv-x="226" 
d="M60 -108v878h106v-878h-106z" />
    <glyph glyph-name="braceright" unicode="}" horiz-adv-x="393" 
d="M219 244q-31 9 -59 49.5t-26 81.5v164q0 13 -1 20.5t-8 14t-21 6.5h-64v94h88q47 0 89 -35t42 -86l-1 -165q0 -30 4.5 -49.5t21.5 -35.5t49 -20v-78q-32 -4 -49 -20t-21.5 -35.5t-4.5 -49.5l1 -164q0 -51 -42 -86t-89 -35h-88v94h63q31 0 31 41v163q-2 41 26 81.5
t59 49.5z" />
    <glyph glyph-name="asciitilde" unicode="~" horiz-adv-x="520" 
d="M191 364q17 0 41 -10t42.5 -19.5t38 -13.5t35.5 9.5t26 48.5h106q0 -83 -37.5 -124.5t-117.5 -41.5q-17 0 -41.5 10.5t-44 20t-39.5 13.5t-34.5 -10t-22.5 -50h-103q0 87 35.5 127t115.5 40z" />
    <glyph glyph-name="exclamdown" unicode="&#xa1;" horiz-adv-x="292" 
d="M74 -190l14 490h116l14 -490h-144zM70 364v120h152v-120h-152z" />
    <glyph glyph-name="cent" unicode="&#xa2;" horiz-adv-x="492" 
d="M254 -106v95q-103 11 -161 78t-58 175q0 109 58 176t161 78v90h106v-95q58 -12 102 -33l-30 -97q-46 24 -124 24q-62 0 -93 -41t-31 -102t31 -101.5t93 -40.5q68 0 124 23l30 -97q-41 -20 -102 -32v-100h-106z" />
    <glyph glyph-name="sterling" unicode="&#xa3;" horiz-adv-x="544" 
d="M248 326v-232h239v-107h-452v107h61v232h-77v96h77v17q0 104 54.5 161t127.5 67h-1q12 3 55 3q85 0 157 -49l-41 -88q-54 31 -116 31q-41 0 -62.5 -34.5t-21.5 -90.5v-17h158v-96h-158z" />
    <glyph glyph-name="currency" unicode="&#xa4;" horiz-adv-x="540" 
d="M40 450l74 79l66 -66q42 19 86 19q42 0 87 -19l65 64l82 -84l-64 -63q20 -40 20 -79q0 -43 -25 -92l62 -60l-81 -78l-59 60q-46 -23 -88 -23q-43 0 -84 16l-67 -64l-74 82l57 58q-27 44 -27 94q0 55 30 95q-44 44 -60 61zM332 297q0 33 -22.5 51t-47.5 18t-45.5 -18.5
t-20.5 -53.5q0 -34 21 -52t45 -18q25 0 47.5 19t22.5 54z" />
    <glyph glyph-name="yen" unicode="&#xa5;" horiz-adv-x="610" 
d="M379 0h-148v91h-153v87h153v70h-153v88h121l-184 338h164l126 -277l126 277h164l-184 -338h118v-88h-150v-70h150v-87h-150v-91z" />
    <glyph glyph-name="brokenbar" unicode="&#xa6;" horiz-adv-x="226" 
d="M60 -108v395h106v-395h-106zM60 376v395h106v-395h-106z" />
    <glyph glyph-name="section" unicode="&#xa7;" horiz-adv-x="488" 
d="M249 99q37 0 43 22q10 24 -20 36l-86 36q-132 52 -132 143q0 28 14.5 57t40.5 49q-47 49 -38 117q9 54 57.5 86.5t122.5 32.5q89 0 186 -65l-48 -88q-65 43 -133 43q-40 0 -45 -31q-1 -14 8.5 -21t42.5 -19q11 -4 35.5 -13t39 -15t34 -17t33.5 -23q44 -41 44 -93
q0 -72 -50 -111q64 -90 15.5 -164t-164.5 -74q-122 0 -209 80l54 90q68 -58 155 -58zM295 356l-80 31q-23 -20 -23 -40q0 -33 58 -59l32 -12q28 19 28 51q0 19 -15 29z" />
    <glyph glyph-name="dieresis" unicode="&#xa8;" horiz-adv-x="392" 
d="M40 569v116h135v-116h-135zM217 569v116h135v-116h-135z" />
    <glyph glyph-name="copyright" unicode="&#xa9;" horiz-adv-x="790" 
d="M40 336q0 145 104 247t251 102t251 -102t104 -247t-104 -247t-251 -102t-251 102t-104 247zM201 334q0 87 54.5 144.5t144.5 57.5q76 0 121 -23l-20 -51q-43 17 -89 17q-72 0 -105 -42t-33 -103q0 -62 32.5 -103.5t104.5 -41.5q45 0 92 16l18 -50q-45 -23 -121 -23
q-90 0 -144.5 57.5t-54.5 144.5zM109 335q0 -117 84.5 -200.5t204.5 -83.5t204.5 83.5t84.5 200.5t-84.5 200.5t-204.5 83.5t-204.5 -83.5t-84.5 -200.5z" />
    <glyph glyph-name="ordfeminine" unicode="&#xaa;" horiz-adv-x="369" 
d="M329 458h-112v39q-28 -43 -90 -43q-31 0 -59 25t-28 77q0 88 179 102q0 42 -34 42q-36 0 -66 -11q-17 -5 -30 -12l-32 58q0 2 17 11.5t51.5 20.5t70.5 11q8 0 17.5 -0.5t32 -6t39.5 -15.5t30.5 -32.5t13.5 -53.5v-212zM166 526q8 0 18.5 2.5t22.5 13t12 26.5v33
q-77 -13 -77 -50q0 -25 24 -25zM45 412h284v-79h-284v79z" />
    <glyph glyph-name="guillemotleft" unicode="&#xab;" horiz-adv-x="596" 
d="M185 325l133 -232h-137l-131 232l131 232h137zM413 325l133 -232h-137l-131 232l131 232h137z" />
    <glyph glyph-name="logicalnot" unicode="&#xac;" horiz-adv-x="592" 
d="M424 264h-384v123h512v-236h-128v113z" />
    <glyph glyph-name="registered" unicode="&#xae;" horiz-adv-x="790" 
d="M542 412q0 -74 -66 -95q24 -14 37 -46l53 -126h-74l-53 123q-15 28 -43 28h-81v-151h-70v390h173q69 0 96.5 -36t27.5 -87zM315 353h104q30 0 42 19t12 40q0 68 -59 68h-99v-127zM40 336q0 145 104 247t251 102t251 -102t104 -247t-104 -247t-251 -102t-251 102t-104 247
zM109 335q0 -117 84.5 -200.5t204.5 -83.5t204.5 83.5t84.5 200.5t-84.5 200.5t-204.5 83.5t-204.5 -83.5t-84.5 -200.5z" />
    <glyph glyph-name="macron" unicode="&#xaf;" horiz-adv-x="347" 
d="M40 583v102h267v-102h-267z" />
    <glyph glyph-name="degree" unicode="&#xb0;" horiz-adv-x="395" 
d="M40 506q0 60 46 102.5t111 42.5t111.5 -42.5t46.5 -102.5t-46 -102t-112 -42q-65 0 -111 41.5t-46 102.5zM135 506q0 -24 18 -41t44 -17t44 17t18 41t-18 41t-44 17t-44 -17t-18 -41z" />
    <glyph glyph-name="plusminus" unicode="&#xb1;" horiz-adv-x="593" 
d="M40 457h191v177h132v-177h190v-104h-190v-176h-132v176h-191v104zM553 0h-513v103h513v-103z" />
    <glyph glyph-name="twosuperior" unicode="&#xb2;" horiz-adv-x="385" 
d="M191 766q-22 0 -46.5 -14t-39.5 -30q-6 7 -21 24t-24 26q53 71 134 71q58 0 97.5 -33.5t39.5 -87.5q0 -21 -8 -39t-28.5 -35t-32.5 -24.5t-41 -25.5q-32 -20 -69 -57h173v-74h-271v48q0 29 17.5 55.5t36 40.5t53.5 37q76 44 76 76q0 16 -12 29t-34 13z" />
    <glyph glyph-name="threesuperior" unicode="&#xb3;" horiz-adv-x="344" 
d="M161 461q-83 0 -144 57l39 51q46 -39 90 -39q31 0 45 14.5t14 32.5q0 19 -11.5 33.5t-33.5 14.5h-59v66h57q19 0 31.5 15t12.5 31q0 17 -13 31t-35 14q-54 0 -88 -38q-7 7 -19 22.5t-20 24.5q60 60 133 60q59 0 96.5 -29.5t37.5 -83.5q0 -46 -62 -78q33 -8 50.5 -31.5
t17.5 -50.5q0 -53 -41 -85t-98 -32z" />
    <glyph glyph-name="acute" unicode="&#xb4;" horiz-adv-x="340" 
d="M40 554l95 154h153l-132 -154h-116z" />
    <glyph glyph-name="mu" unicode="&#xb5;" 
d="M211 13v-199h-151v670h151v-291q1 -42 20.5 -68t51.5 -26q8 0 18 2.5t26 10t26.5 27t10.5 48.5v297h151v-484h-145v55q-37 -68 -100 -68q-16 0 -27 4t-16.5 8t-15.5 14z" />
    <glyph glyph-name="mu" unicode="&#x3bc;" 
d="M211 13v-199h-151v670h151v-291q1 -42 20.5 -68t51.5 -26q8 0 18 2.5t26 10t26.5 27t10.5 48.5v297h151v-484h-145v55q-37 -68 -100 -68q-16 0 -27 4t-16.5 8t-15.5 14z" />
    <glyph glyph-name="paragraph" unicode="&#xb6;" horiz-adv-x="552" 
d="M205 -185v468q-76 12 -125.5 66.5t-49.5 127.5q0 82 62 139.5t150 57.5h250v-859h-108v767h-71v-767h-108z" />
    <glyph glyph-name="periodcentered" unicode="&#xb7;" horiz-adv-x="259" 
d="M50 240v130h159v-130h-159z" />
    <glyph glyph-name="cedilla" unicode="&#xb8;" horiz-adv-x="276" 
d="M85 10h95q31 -34 48 -84q20 -62 -10.5 -96.5t-95.5 -28.5q-43 5 -82 23v95l47 -13q55 -17 41 28q-8 27 -43 76z" />
    <glyph glyph-name="onesuperior" unicode="&#xb9;" horiz-adv-x="276" 
d="M72 694l-42 45l104 106h78v-378h-95v268z" />
    <glyph glyph-name="ordmasculine" unicode="&#xba;" horiz-adv-x="402" 
d="M40 616q0 75 43 119t117 44q75 0 118.5 -44t43.5 -119q0 -76 -43.5 -120t-118.5 -44q-74 0 -117 44t-43 120zM252 616q0 33 -14 58t-38 25q-23 0 -36.5 -25t-13.5 -58q0 -34 13.5 -59t36.5 -25q24 0 38 25t14 59zM61 412h284v-79h-284v79z" />
    <glyph glyph-name="guillemotright" unicode="&#xbb;" horiz-adv-x="596" 
d="M278 93l133 232l-133 232h137l131 -232l-131 -232h-137zM50 93l133 232l-133 232h137l131 -232l-131 -232h-137z" />
    <glyph glyph-name="onequarter" unicode="&#xbc;" horiz-adv-x="770" 
d="M124 0l398 674h73l-397 -674h-74zM676 0l-96 1v76h-160v56q28 63 73.5 129.5t93.5 115.5h89v-235h50v-66h-50v-77zM496 143h84v128q-65 -83 -84 -128zM85 523l-42 45l104 106h78v-378h-95v268z" />
    <glyph glyph-name="onehalf" unicode="&#xbd;" horiz-adv-x="800" 
d="M139 0l398 674h73l-397 -674h-74zM612 299q-22 0 -46.5 -14t-39.5 -30q-6 7 -21 24t-24 26q53 71 134 71q58 0 97.5 -33.5t39.5 -87.5q0 -21 -8 -39t-28.5 -35t-32.5 -24.5t-41 -25.5q-32 -20 -69 -57h173v-74h-271v48q0 29 17.5 55.5t36 40.5t53.5 37q76 44 76 76
q0 16 -12 29t-34 13zM89 523l-42 45l104 106h78v-378h-95v268z" />
    <glyph glyph-name="threequarters" unicode="&#xbe;" horiz-adv-x="800" 
d="M171 0l398 674h73l-397 -674h-74zM723 0l-96 1v76h-160v56q28 63 73.5 129.5t93.5 115.5h89v-235h50v-66h-50v-77zM543 143h84v128q-65 -83 -84 -128zM170 290q-83 0 -144 57l39 51q46 -39 90 -39q31 0 45 14.5t14 32.5q0 19 -11.5 33.5t-33.5 14.5h-59v66h57
q19 0 31.5 15t12.5 31q0 17 -13 31t-35 14q-54 0 -88 -38q-7 7 -19 22.5t-20 24.5q60 60 133 60q59 0 96.5 -29.5t37.5 -83.5q0 -46 -62 -78q33 -8 50.5 -31.5t17.5 -50.5q0 -53 -41 -85t-98 -32z" />
    <glyph glyph-name="questiondown" unicode="&#xbf;" horiz-adv-x="563" 
d="M230 78q-39 -33 -39 -83q0 -35 24 -61t65 -26q44 0 83 29.5t47 52.5l88 -70q-20 -42 -76 -81.5t-145 -39.5q-102 0 -169.5 52.5t-67.5 149.5q0 88 101 171q12 10 30 24t25 20t15.5 18t11 27t2.5 39h133q0 -30 -0.5 -47.5t-8.5 -38.5t-11 -28.5t-25.5 -31t-32 -32
t-50.5 -44.5zM367 484v-120h-152v120h152z" />
    <glyph glyph-name="Agrave" unicode="&#xc0;" horiz-adv-x="722" 
d="M172 0h-162l279 674h143l280 -674h-163l-60 154h-259zM361 525l-87 -261h172zM322 898l95 -154h-116l-132 154h153z" />
    <glyph glyph-name="Aacute" unicode="&#xc1;" horiz-adv-x="722" 
d="M172 0h-162l279 674h143l280 -674h-163l-60 154h-259zM361 525l-87 -261h172zM290 744l95 154h153l-132 -154h-116z" />
    <glyph glyph-name="Acircumflex" unicode="&#xc2;" horiz-adv-x="722" 
d="M172 0h-162l279 674h143l280 -674h-163l-60 154h-259zM361 525l-87 -261h172zM291 919h138l110 -167h-128l-52 88l-48 -88h-129z" />
    <glyph glyph-name="Atilde" unicode="&#xc3;" horiz-adv-x="722" 
d="M172 0h-162l279 674h143l280 -674h-163l-60 154h-259zM361 525l-87 -261h172zM323 791q-10 0 -19 -10.5t-11 -31.5h-91q4 70 25.5 106t79.5 36q24 0 51 -16q32 -17 42 -17q9 0 18.5 12t7.5 28h93q-3 -68 -25.5 -105t-80.5 -37q-21 0 -51 18q-28 17 -39 17z" />
    <glyph glyph-name="Adieresis" unicode="&#xc4;" horiz-adv-x="722" 
d="M172 0h-162l279 674h143l280 -674h-163l-60 154h-259zM361 525l-87 -261h172zM205 759v116h135v-116h-135zM382 759v116h135v-116h-135z" />
    <glyph glyph-name="Aring" unicode="&#xc5;" horiz-adv-x="722" 
d="M172 0h-162l279 674h143l280 -674h-163l-60 154h-259zM361 525l-87 -261h172zM249 855q0 45 27.5 74.5t84.5 29.5q59 0 85.5 -29t26.5 -75q0 -104 -112 -104q-58 0 -85 29.5t-27 74.5zM391 855q0 37 -31 37t-31 -37q0 -38 31 -38t31 38z" />
    <glyph glyph-name="AE" unicode="&#xc6;" horiz-adv-x="964" 
d="M427 557l-127 -293h127v293zM582 117h337v-117h-492v148h-173l-72 -148h-172l338 674h564v-117h-329v-159h306v-117h-307v-164z" />
    <glyph glyph-name="Ccedilla" unicode="&#xc7;" horiz-adv-x="642" 
d="M40 337q0 150 95.5 249t253.5 99q131 0 223 -48l-39 -102q-90 32 -163 32q-74 0 -124 -35.5t-69.5 -85t-19.5 -109.5q0 -95 52.5 -163.5t160.5 -68.5q68 0 166 33l36 -103q-75 -39 -187 -46q26 -41 32 -63q20 -62 -10.5 -96.5t-95.5 -28.5q-43 5 -82 23v95l47 -13
q46 -13 44 14q-1 22 -34 72q-132 20 -209 115.5t-77 229.5z" />
    <glyph glyph-name="Egrave" unicode="&#xc8;" horiz-adv-x="602" 
d="M557 0h-492v674h486v-117h-331v-159h306v-117h-306v-164h337v-117zM293 898l95 -154h-116l-132 154h153z" />
    <glyph glyph-name="Eacute" unicode="&#xc9;" horiz-adv-x="602" 
d="M557 0h-492v674h486v-117h-331v-159h306v-117h-306v-164h337v-117zM219 742l100 163h153l-137 -163h-116z" />
    <glyph glyph-name="Ecircumflex" unicode="&#xca;" horiz-adv-x="602" 
d="M557 0h-492v674h486v-117h-331v-159h306v-117h-306v-164h337v-117zM231 919h138l110 -167h-128l-52 88l-48 -88h-129z" />
    <glyph glyph-name="Edieresis" unicode="&#xcb;" horiz-adv-x="602" 
d="M557 0h-492v674h486v-117h-331v-159h306v-117h-306v-164h337v-117zM145 759v116h135v-116h-135zM322 759v116h135v-116h-135z" />
    <glyph glyph-name="Igrave" unicode="&#xcc;" horiz-adv-x="284" 
d="M65 0v674h154v-674h-154zM123 898l95 -154h-116l-132 154h153z" />
    <glyph glyph-name="Iacute" unicode="&#xcd;" horiz-adv-x="284" 
d="M65 0v674h154v-674h-154zM64 744l95 154h153l-132 -154h-116z" />
    <glyph glyph-name="Icircumflex" unicode="&#xce;" horiz-adv-x="284" 
d="M65 0v674h154v-674h-154zM73 919h138l110 -167h-128l-52 88l-48 -88h-129z" />
    <glyph glyph-name="Idieresis" unicode="&#xcf;" horiz-adv-x="284" 
d="M65 0v674h154v-674h-154zM-14 759v116h135v-116h-135zM163 759v116h135v-116h-135z" />
    <glyph glyph-name="Eth" unicode="&#xd0;" horiz-adv-x="741" 
d="M104 674h259q165 0 256.5 -85.5t91.5 -251.5t-91.5 -251.5t-256.5 -85.5h-259v283h-94v111h94v280zM258 117h109q84 0 137.5 54.5t53.5 165.5q0 114 -52 167t-142 53h-106v-163h158v-111h-158v-166z" />
    <glyph glyph-name="Ntilde" unicode="&#xd1;" horiz-adv-x="702" 
d="M455 0l-236 465v-465h-154v674h191l227 -460v460h154v-674h-182zM313 781q-21 0 -30 -42h-91q2 34 7 58t15.5 47t31 35t51.5 12q24 0 51 -16q32 -17 42 -17q17 0 26 40h93q-3 -70 -26 -111t-80 -41q-21 0 -51 18q-28 17 -39 17z" />
    <glyph glyph-name="Ograve" unicode="&#xd2;" horiz-adv-x="753" 
d="M376 -13q-156 0 -246 93t-90 257q0 163 90 255.5t246 92.5q157 0 247 -92.5t90 -255.5q0 -164 -90 -257t-247 -93zM376 570q-85 0 -130.5 -67t-45.5 -166q0 -104 45 -169.5t131 -65.5t131.5 65.5t45.5 169.5q0 99 -45.5 166t-131.5 67zM347 898l95 -154h-116l-132 154
h153z" />
    <glyph glyph-name="Oacute" unicode="&#xd3;" horiz-adv-x="753" 
d="M376 -13q-156 0 -246 93t-90 257q0 163 90 255.5t246 92.5q157 0 247 -92.5t90 -255.5q0 -164 -90 -257t-247 -93zM376 570q-85 0 -130.5 -67t-45.5 -166q0 -104 45 -169.5t131 -65.5t131.5 65.5t45.5 169.5q0 99 -45.5 166t-131.5 67zM307 744l95 154h153l-132 -154
h-116z" />
    <glyph glyph-name="Ocircumflex" unicode="&#xd4;" horiz-adv-x="753" 
d="M376 -13q-156 0 -246 93t-90 257q0 163 90 255.5t246 92.5q157 0 247 -92.5t90 -255.5q0 -164 -90 -257t-247 -93zM376 570q-85 0 -130.5 -67t-45.5 -166q0 -104 45 -169.5t131 -65.5t131.5 65.5t45.5 169.5q0 99 -45.5 166t-131.5 67zM307 919h138l110 -167h-128l-52 88
l-48 -88h-129z" />
    <glyph glyph-name="Otilde" unicode="&#xd5;" horiz-adv-x="753" 
d="M376 -13q-156 0 -246 93t-90 257q0 163 90 255.5t246 92.5q157 0 247 -92.5t90 -255.5q0 -164 -90 -257t-247 -93zM376 570q-85 0 -130.5 -67t-45.5 -166q0 -104 45 -169.5t131 -65.5t131.5 65.5t45.5 169.5q0 99 -45.5 166t-131.5 67zM339 791q-10 0 -19 -10.5
t-11 -31.5h-91q4 70 25.5 106t79.5 36q24 0 51 -16q32 -17 42 -17q9 0 18.5 12t7.5 28h93q-3 -68 -25.5 -105t-80.5 -37q-21 0 -51 18q-28 17 -39 17z" />
    <glyph glyph-name="Odieresis" unicode="&#xd6;" horiz-adv-x="753" 
d="M376 -13q-156 0 -246 93t-90 257q0 163 90 255.5t246 92.5q157 0 247 -92.5t90 -255.5q0 -164 -90 -257t-247 -93zM376 570q-85 0 -130.5 -67t-45.5 -166q0 -104 45 -169.5t131 -65.5t131.5 65.5t45.5 169.5q0 99 -45.5 166t-131.5 67zM220 759v116h135v-116h-135z
M397 759v116h135v-116h-135z" />
    <glyph glyph-name="multiply" unicode="&#xd7;" horiz-adv-x="601" 
d="M40 139l177 176l-177 177l84 84l177 -177l176 176l84 -83l-176 -177l176 -175l-84 -84l-176 175l-177 -176z" />
    <glyph glyph-name="Oslash" unicode="&#xd8;" horiz-adv-x="753" 
d="M236 180l235 360q-39 30 -95 30q-85 0 -130.5 -67t-45.5 -166q0 -94 36 -157zM82 -55l74 112q-116 93 -116 280q0 163 90 255.5t246 92.5q92 0 167 -36l45 69h87l-71 -108q109 -92 109 -273q0 -164 -90 -257t-247 -93q-89 0 -158 31l-49 -73h-87zM520 482l-232 -356
q38 -24 88 -24q86 0 131.5 65.5t45.5 169.5q0 88 -33 145z" />
    <glyph glyph-name="Ugrave" unicode="&#xd9;" horiz-adv-x="720" 
d="M360 -13q-144 0 -219.5 72.5t-75.5 242.5v372h156v-374q0 -100 33 -148t106 -48q74 0 107.5 48t33.5 148v374h154v-372q0 -171 -75 -243t-220 -72zM361 898l95 -154h-116l-132 154h153z" />
    <glyph glyph-name="Uacute" unicode="&#xda;" horiz-adv-x="720" 
d="M360 -13q-144 0 -219.5 72.5t-75.5 242.5v372h156v-374q0 -100 33 -148t106 -48q74 0 107.5 48t33.5 148v374h154v-372q0 -171 -75 -243t-220 -72zM265 744l95 154h153l-132 -154h-116z" />
    <glyph glyph-name="Ucircumflex" unicode="&#xdb;" horiz-adv-x="720" 
d="M360 -13q-144 0 -219.5 72.5t-75.5 242.5v372h156v-374q0 -100 33 -148t106 -48q74 0 107.5 48t33.5 148v374h154v-372q0 -171 -75 -243t-220 -72zM290 919h138l110 -167h-128l-52 88l-48 -88h-129z" />
    <glyph glyph-name="Udieresis" unicode="&#xdc;" horiz-adv-x="720" 
d="M360 -13q-144 0 -219.5 72.5t-75.5 242.5v372h156v-374q0 -100 33 -148t106 -48q74 0 107.5 48t33.5 148v374h154v-372q0 -171 -75 -243t-220 -72zM204 759v116h135v-116h-135zM381 759v116h135v-116h-135z" />
    <glyph glyph-name="Yacute" unicode="&#xdd;" horiz-adv-x="695" 
d="M427 0h-158v237l-259 437h177l161 -312l159 312h178l-258 -436v-238zM271 744l95 154h153l-132 -154h-116z" />
    <glyph glyph-name="Thorn" unicode="&#xde;" horiz-adv-x="594" 
d="M220 674v-154q16 33 55 48.5t73 15.5q87 0 149 -66.5t62 -192.5t-64.5 -192t-165.5 -66q-25 0 -60 14.5t-49 49.5l-1 -131h-154v674h155zM296 473q-9 0 -18 -2.5t-24 -10t-24.5 -28.5t-9.5 -53v-124q0 -76 94 -76q44 0 65 42t21 104q0 148 -104 148z" />
    <glyph glyph-name="germandbls" unicode="&#xdf;" horiz-adv-x="611" 
d="M331 0h-70v108h70q45 0 72.5 32.5t27.5 71.5q0 49 -26.5 85t-75.5 36l-32 2v83l32 2q24 0 41 23.5t17 58.5q0 34 -22.5 55.5t-69.5 21.5q-77 0 -77 -124v-455h-153v455q2 105 62.5 167.5t167.5 62.5q40 0 79.5 -9.5t77 -29.5t60.5 -57.5t23 -86.5q0 -78 -72 -123
q108 -47 108 -174q0 -81 -63.5 -143t-176.5 -62z" />
    <glyph glyph-name="agrave" unicode="&#xe0;" horiz-adv-x="531" 
d="M476 0h-150v64q-16 -38 -59 -55t-86 -17q-51 0 -101 39t-50 116q0 74 79 120.5t220 56.5v8q0 57 -60 62q-6 1 -12 1q-56 0 -108 -21q-24 -10 -42 -21l-42 90q10 6 28.5 15.5t73.5 25.5t108 16h13t28 -3t40 -8t41.5 -17.5t40 -29.5t27 -45t11.5 -63v-334zM226 97
q14 0 35 4.5t44.5 24t23.5 49.5v65q-68 -4 -113 -29.5t-45 -58.5q0 -23 16 -39t39 -16zM236 708l95 -154h-116l-132 154h153z" />
    <glyph glyph-name="aacute" unicode="&#xe1;" horiz-adv-x="531" 
d="M476 0h-150v64q-16 -38 -59 -55t-86 -17q-51 0 -101 39t-50 116q0 74 79 120.5t220 56.5v8q0 57 -60 62q-6 1 -12 1q-56 0 -108 -21q-24 -10 -42 -21l-42 90q10 6 28.5 15.5t73.5 25.5t108 16h13t28 -3t40 -8t41.5 -17.5t40 -29.5t27 -45t11.5 -63v-334zM226 97
q14 0 35 4.5t44.5 24t23.5 49.5v65q-68 -4 -113 -29.5t-45 -58.5q0 -23 16 -39t39 -16zM207 554l95 154h153l-132 -154h-116z" />
    <glyph glyph-name="acircumflex" unicode="&#xe2;" horiz-adv-x="531" 
d="M476 0h-150v64q-16 -38 -59 -55t-86 -17q-51 0 -101 39t-50 116q0 74 79 120.5t220 56.5v8q0 57 -60 62q-6 1 -12 1q-56 0 -108 -21q-24 -10 -42 -21l-42 90q10 6 28.5 15.5t73.5 25.5t108 16h13t28 -3t40 -8t41.5 -17.5t40 -29.5t27 -45t11.5 -63v-334zM226 97
q14 0 35 4.5t44.5 24t23.5 49.5v65q-68 -4 -113 -29.5t-45 -58.5q0 -23 16 -39t39 -16zM196 729h138l110 -167h-128l-52 88l-48 -88h-129z" />
    <glyph glyph-name="atilde" unicode="&#xe3;" horiz-adv-x="531" 
d="M476 0h-150v64q-16 -38 -59 -55t-86 -17q-51 0 -101 39t-50 116q0 74 79 120.5t220 56.5v8q0 57 -60 62q-6 1 -12 1q-56 0 -108 -21q-24 -10 -42 -21l-42 90q10 6 28.5 15.5t73.5 25.5t108 16h13t28 -3t40 -8t41.5 -17.5t40 -29.5t27 -45t11.5 -63v-334zM226 97
q14 0 35 4.5t44.5 24t23.5 49.5v65q-68 -4 -113 -29.5t-45 -58.5q0 -23 16 -39t39 -16zM228 601q-10 0 -19 -10.5t-11 -31.5h-91q4 70 25.5 106t79.5 36q24 0 51 -16q32 -17 42 -17q9 0 18.5 12t7.5 28h93q-3 -68 -25.5 -105t-80.5 -37q-21 0 -51 18q-28 17 -39 17z" />
    <glyph glyph-name="adieresis" unicode="&#xe4;" horiz-adv-x="531" 
d="M476 0h-150v64q-16 -38 -59 -55t-86 -17q-51 0 -101 39t-50 116q0 74 79 120.5t220 56.5v8q0 57 -60 62q-6 1 -12 1q-56 0 -108 -21q-24 -10 -42 -21l-42 90q10 6 28.5 15.5t73.5 25.5t108 16h13t28 -3t40 -8t41.5 -17.5t40 -29.5t27 -45t11.5 -63v-334zM226 97
q14 0 35 4.5t44.5 24t23.5 49.5v65q-68 -4 -113 -29.5t-45 -58.5q0 -23 16 -39t39 -16zM109 569v116h135v-116h-135zM286 569v116h135v-116h-135z" />
    <glyph glyph-name="aring" unicode="&#xe5;" horiz-adv-x="531" 
d="M476 0h-150v64q-16 -38 -59 -55t-86 -17q-51 0 -101 39t-50 116q0 74 79 120.5t220 56.5v8q0 57 -60 62q-6 1 -12 1q-56 0 -108 -21q-24 -10 -42 -21l-42 90q10 6 28.5 15.5t73.5 25.5t108 16h13t28 -3t40 -8t41.5 -17.5t40 -29.5t27 -45t11.5 -63v-334zM226 97
q14 0 35 4.5t44.5 24t23.5 49.5v65q-68 -4 -113 -29.5t-45 -58.5q0 -23 16 -39t39 -16zM153 665q0 45 27.5 74.5t84.5 29.5q59 0 85.5 -29t26.5 -75q0 -104 -112 -104q-58 0 -85 29.5t-27 74.5zM295 665q0 37 -31 37t-31 -37q0 -38 31 -38t31 38z" />
    <glyph glyph-name="ae" unicode="&#xe6;" horiz-adv-x="860" 
d="M590 -12q-129 0 -200 88q-59 -84 -169 -84q-48 0 -89 13.5t-71.5 50t-30.5 91.5q0 74 79 120.5t220 56.5v8q0 57 -60 62q-6 1 -12 1q-56 0 -108 -21q-24 -10 -42 -21l-42 90q10 6 28.5 15.5t73.5 25.5t108 16q97 0 153 -50q62 48 152 48q127 0 192 -87t49 -214h-345v-8
q21 -97 140 -97q77 0 147 36l32 -88q-83 -52 -205 -52zM226 97q14 0 35 4.5t44.5 24t23.5 49.5v64q-158 -25 -158 -87q0 -23 16 -39t39 -16zM476 289h215q0 47 -34.5 74.5t-72.5 27.5q-34 0 -68.5 -26.5t-39.5 -75.5z" />
    <glyph glyph-name="ccedilla" unicode="&#xe7;" horiz-adv-x="492" 
d="M334 -10q24 -34 33 -64q20 -62 -10.5 -96.5t-95.5 -28.5q-43 5 -82 23v95l47 -13q47 -13 44 15q-1 23 -33 71q-96 14 -149 79.5t-53 170.5q0 118 69 187t188 69q88 0 170 -40l-30 -97q-46 24 -124 24q-62 0 -93 -41t-31 -102t31 -101.5t93 -40.5q68 0 124 23l30 -97
q-57 -28 -128 -36z" />
    <glyph glyph-name="egrave" unicode="&#xe8;" horiz-adv-x="560" 
d="M290 -12q-119 0 -187 73.5t-68 180.5q0 112 66.5 184t178.5 72q127 0 192 -87t49 -214h-346q18 -105 141 -105q77 0 147 36l32 -88q-83 -52 -205 -52zM175 291h216q0 43 -32 71.5t-75 28.5q-46 0 -77.5 -28t-31.5 -72zM243 708l95 -154h-116l-132 154h153z" />
    <glyph glyph-name="eacute" unicode="&#xe9;" horiz-adv-x="560" 
d="M290 -12q-119 0 -187 73.5t-68 180.5q0 112 66.5 184t178.5 72q127 0 192 -87t49 -214h-346q18 -105 141 -105q77 0 147 36l32 -88q-83 -52 -205 -52zM175 291h216q0 43 -32 71.5t-75 28.5q-46 0 -77.5 -28t-31.5 -72zM209 554l95 154h153l-132 -154h-116z" />
    <glyph glyph-name="ecircumflex" unicode="&#xea;" horiz-adv-x="560" 
d="M290 -12q-119 0 -187 73.5t-68 180.5q0 112 66.5 184t178.5 72q127 0 192 -87t49 -214h-346q18 -105 141 -105q77 0 147 36l32 -88q-83 -52 -205 -52zM175 291h216q0 43 -32 71.5t-75 28.5q-46 0 -77.5 -28t-31.5 -72zM210 729h138l110 -167h-128l-52 88l-48 -88h-129z
" />
    <glyph glyph-name="edieresis" unicode="&#xeb;" horiz-adv-x="560" 
d="M290 -12q-119 0 -187 73.5t-68 180.5q0 112 66.5 184t178.5 72q127 0 192 -87t49 -214h-346q18 -105 141 -105q77 0 147 36l32 -88q-83 -52 -205 -52zM175 291h216q0 43 -32 71.5t-75 28.5q-46 0 -77.5 -28t-31.5 -72zM124 569v116h135v-116h-135zM301 569v116h135v-116
h-135z" />
    <glyph glyph-name="igrave" unicode="&#xec;" horiz-adv-x="272" 
d="M60 0l1 484h151v-484h-152zM117 708l95 -154h-116l-132 154h153z" />
    <glyph glyph-name="iacute" unicode="&#xed;" horiz-adv-x="272" 
d="M60 0l1 484h151v-484h-152zM61 554l95 154h153l-132 -154h-116z" />
    <glyph glyph-name="icircumflex" unicode="&#xee;" horiz-adv-x="272" 
d="M60 0v484h152v-484h-152zM67 729h138l110 -167h-128l-52 88l-48 -88h-129z" />
    <glyph glyph-name="idieresis" unicode="&#xef;" horiz-adv-x="272" 
d="M60 0l1 484h151v-484h-152zM-20 569v116h135v-116h-135zM157 569v116h135v-116h-135z" />
    <glyph glyph-name="eth" unicode="&#xf0;" horiz-adv-x="555" 
d="M120 468l-49 48l66 67q-23 18 -77 52l81 74q52 -22 83 -41l66 66l54 -44l-56 -56q99 -78 168 -182.5t69 -211.5q0 -117 -66.5 -184t-181.5 -67q-114 0 -180.5 67t-66.5 184q0 55 25 106t64 82t87 43t95 -13q-32 46 -104 88zM368 240q0 55 -24.5 96t-66.5 41
q-43 0 -66.5 -40.5t-23.5 -96.5q0 -55 23.5 -95t66.5 -40q42 0 66.5 40t24.5 95z" />
    <glyph glyph-name="ntilde" unicode="&#xf1;" horiz-adv-x="565" 
d="M510 280v-280h-151v280q0 108 -62 108q-11 0 -24.5 -4.5t-29.5 -15t-26.5 -33t-10.5 -53.5v-282h-151v484h145v-74q40 88 140 88q84 0 127 -50t43 -168zM245 601q-10 0 -19 -10.5t-11 -31.5h-91q4 70 25.5 106t79.5 36q24 0 51 -16q32 -17 42 -17q9 0 18.5 12t7.5 28h93
q-3 -68 -25.5 -105t-80.5 -37q-21 0 -51 18q-28 17 -39 17z" />
    <glyph glyph-name="ograve" unicode="&#xf2;" horiz-adv-x="566" 
d="M35 243q0 118 66.5 186.5t180.5 68.5q115 0 182 -68.5t67 -186.5t-67 -187t-182 -69q-114 0 -180.5 69t-66.5 187zM381 243q0 58 -27 102t-72 44t-71 -43.5t-26 -102.5t26 -103t71 -44t72 44.5t27 102.5zM247 708l95 -154h-116l-132 154h153z" />
    <glyph glyph-name="oacute" unicode="&#xf3;" horiz-adv-x="566" 
d="M35 243q0 118 66.5 186.5t180.5 68.5q115 0 182 -68.5t67 -186.5t-67 -187t-182 -69q-114 0 -180.5 69t-66.5 187zM381 243q0 58 -27 102t-72 44t-71 -43.5t-26 -102.5t26 -103t71 -44t72 44.5t27 102.5zM217 554l95 154h153l-132 -154h-116z" />
    <glyph glyph-name="ocircumflex" unicode="&#xf4;" horiz-adv-x="566" 
d="M35 243q0 118 66.5 186.5t180.5 68.5q115 0 182 -68.5t67 -186.5t-67 -187t-182 -69q-114 0 -180.5 69t-66.5 187zM381 243q0 58 -27 102t-72 44t-71 -43.5t-26 -102.5t26 -103t71 -44t72 44.5t27 102.5zM213 729h138l110 -167h-128l-52 88l-48 -88h-129z" />
    <glyph glyph-name="otilde" unicode="&#xf5;" horiz-adv-x="566" 
d="M35 243q0 118 66.5 186.5t180.5 68.5q115 0 182 -68.5t67 -186.5t-67 -187t-182 -69q-114 0 -180.5 69t-66.5 187zM381 243q0 58 -27 102t-72 44t-71 -43.5t-26 -102.5t26 -103t71 -44t72 44.5t27 102.5zM245 601q-10 0 -19 -10.5t-11 -31.5h-91q4 70 25.5 106t79.5 36
q24 0 51 -16q32 -17 42 -17q9 0 18.5 12t7.5 28h93q-3 -68 -25.5 -105t-80.5 -37q-21 0 -51 18q-28 17 -39 17z" />
    <glyph glyph-name="odieresis" unicode="&#xf6;" horiz-adv-x="566" 
d="M35 243q0 118 66.5 186.5t180.5 68.5q115 0 182 -68.5t67 -186.5t-67 -187t-182 -69q-114 0 -180.5 69t-66.5 187zM381 243q0 58 -27 102t-72 44t-71 -43.5t-26 -102.5t26 -103t71 -44t72 44.5t27 102.5zM127 569v116h135v-116h-135zM304 569v116h135v-116h-135z" />
    <glyph glyph-name="divide" unicode="&#xf7;" horiz-adv-x="591" 
d="M40 395h511v-113h-511v113zM209 461v130h159v-130h-159zM209 91v130h159v-130h-159z" />
    <glyph glyph-name="oslash" unicode="&#xf8;" horiz-adv-x="576" 
d="M391 480l32 50h88l-57 -87q82 -69 82 -200q0 -118 -67 -187t-182 -69q-63 0 -115 23l-36 -54h-87l62 95q-71 68 -71 192q0 118 66.5 186.5t180.5 68.5q57 0 104 -18zM373 318l-134 -205q20 -17 48 -17q45 0 72 44.5t27 102.5q0 42 -13 75zM197 183l128 195q-17 11 -38 11
q-45 0 -71 -43.5t-26 -102.5q0 -35 7 -60z" />
    <glyph glyph-name="ugrave" unicode="&#xf9;" 
d="M60 204v280h151v-280q0 -105 62 -105q9 0 20.5 2.5t29.5 10t29.5 27t11.5 48.5v297h151v-484h-145v68q-13 -27 -35 -45.5t-45 -25t-35 -8.5t-21 -2q-31 0 -60 11t-55.5 35t-42.5 68t-16 103zM276 708l95 -154h-116l-132 154h153z" />
    <glyph glyph-name="uacute" unicode="&#xfa;" 
d="M60 204v280h151v-280q0 -105 62 -105q9 0 20.5 2.5t29.5 10t29.5 27t11.5 48.5v297h151v-484h-145v68q-13 -27 -35 -45.5t-45 -25t-35 -8.5t-21 -2q-31 0 -60 11t-55.5 35t-42.5 68t-16 103zM205 554l95 154h153l-132 -154h-116z" />
    <glyph glyph-name="ucircumflex" unicode="&#xfb;" 
d="M60 204v280h151v-280q0 -105 62 -105q9 0 20.5 2.5t29.5 10t29.5 27t11.5 48.5v297h151v-484h-145v68q-13 -27 -35 -45.5t-45 -25t-35 -8.5t-21 -2q-31 0 -60 11t-55.5 35t-42.5 68t-16 103zM218 729h138l110 -167h-128l-52 88l-48 -88h-129z" />
    <glyph glyph-name="udieresis" unicode="&#xfc;" 
d="M60 204v280h151v-280q0 -105 62 -105q9 0 20.5 2.5t29.5 10t29.5 27t11.5 48.5v297h151v-484h-145v68q-13 -27 -35 -45.5t-45 -25t-35 -8.5t-21 -2q-31 0 -60 11t-55.5 35t-42.5 68t-16 103zM131 569v116h135v-116h-135zM308 569v116h135v-116h-135z" />
    <glyph glyph-name="yacute" unicode="&#xfd;" horiz-adv-x="578" 
d="M86 -164l12 103q43 -23 63 -17q20 5 32 35l25 60q-173 389 -208 467h158l124 -325l117 325h159l-249 -585q-11 -26 -31 -44.5t-43 -26t-39.5 -10.5t-30.5 -3q-30 0 -89 21zM217 554l95 154h153l-132 -154h-116z" />
    <glyph glyph-name="thorn" unicode="&#xfe;" horiz-adv-x="581" 
d="M216 674v-251q44 75 124 75q89 0 147.5 -66.5t58.5 -189.5q0 -125 -56.5 -190t-152.5 -65q-11 0 -27 2.5t-47 19t-48 46.5v-240h-150v859h151zM291 386q-8 0 -18.5 -3t-24.5 -10.5t-23 -26t-9 -44.5v-127q0 -78 90 -78q44 0 64.5 42t20.5 103q0 144 -100 144z" />
    <glyph glyph-name="ydieresis" unicode="&#xff;" horiz-adv-x="578" 
d="M86 -164l12 103q43 -23 63 -17q20 5 32 35l25 60q-173 389 -208 467h158l124 -325l117 325h159l-249 -585q-11 -26 -31 -44.5t-43 -26t-39.5 -10.5t-30.5 -3q-30 0 -89 21zM133 569v116h135v-116h-135zM310 569v116h135v-116h-135z" />
    <glyph glyph-name="Amacron" unicode="&#x100;" horiz-adv-x="722" 
d="M172 0h-162l279 674h143l280 -674h-163l-60 154h-259zM361 525l-87 -261h172zM227 773v102h267v-102h-267z" />
    <glyph glyph-name="amacron" unicode="&#x101;" horiz-adv-x="531" 
d="M476 0h-150v64q-16 -38 -59 -55t-86 -17q-51 0 -101 39t-50 116q0 74 79 120.5t220 56.5v8q0 57 -60 62q-6 1 -12 1q-56 0 -108 -21q-24 -10 -42 -21l-42 90q10 6 28.5 15.5t73.5 25.5t108 16h13t28 -3t40 -8t41.5 -17.5t40 -29.5t27 -45t11.5 -63v-334zM226 97
q14 0 35 4.5t44.5 24t23.5 49.5v65q-68 -4 -113 -29.5t-45 -58.5q0 -23 16 -39t39 -16zM132 583v102h267v-102h-267z" />
    <glyph glyph-name="Abreve" unicode="&#x102;" horiz-adv-x="722" 
d="M172 0h-162l279 674h143l280 -674h-163l-60 154h-259zM361 525l-87 -261h172zM362 752q-81 0 -119 45t-38 122h94q2 -40 15 -56t47 -16t47 16.5t15 55.5h94q0 -77 -38 -122t-117 -45z" />
    <glyph glyph-name="abreve" unicode="&#x103;" horiz-adv-x="531" 
d="M476 0h-150v64q-16 -38 -59 -55t-86 -17q-51 0 -101 39t-50 116q0 74 79 120.5t220 56.5v8q0 57 -60 62q-6 1 -12 1q-56 0 -108 -21q-24 -10 -42 -21l-42 90q10 6 28.5 15.5t73.5 25.5t108 16h13t28 -3t40 -8t41.5 -17.5t40 -29.5t27 -45t11.5 -63v-334zM226 97
q14 0 35 4.5t44.5 24t23.5 49.5v65q-68 -4 -113 -29.5t-45 -58.5q0 -23 16 -39t39 -16zM266 563q-81 0 -119 44.5t-38 121.5h94q2 -40 15 -55.5t47 -15.5t47 16t15 55h94q0 -76 -38 -121t-117 -45z" />
    <glyph glyph-name="Aogonek" unicode="&#x104;" horiz-adv-x="722" 
d="M172 0h-162l279 674h143l280 -674h-67q-71 -105 -15 -99q8 1 20 5l47 13v-95q-39 -18 -82 -23q-65 -6 -95.5 28.5t-10.5 96.5q13 38 40 74l-60 154h-259zM361 525l-87 -261h172z" />
    <glyph glyph-name="aogonek" unicode="&#x105;" horiz-adv-x="531" 
d="M326 0v64q-16 -38 -59 -55t-86 -17q-51 0 -101 39t-50 116q0 74 79 120.5t220 56.5v8q0 57 -60 62q-6 1 -12 1q-56 0 -108 -21q-24 -10 -42 -21l-42 90q10 6 28.5 15.5t73.5 25.5t108 16h13t28 -3t40 -8t41.5 -17.5t40 -29.5t27 -45t11.5 -63v-334h-54q-71 -105 -15 -99
q8 1 20 5l47 13v-95q-39 -18 -82 -23q-65 -6 -95.5 28.5t-10.5 96.5q13 38 40 74zM226 97q14 0 35 4.5t44.5 24t23.5 49.5v65q-68 -4 -113 -29.5t-45 -58.5q0 -23 16 -39t39 -16z" />
    <glyph glyph-name="Cacute" unicode="&#x106;" horiz-adv-x="642" 
d="M40 337q0 150 95.5 249t253.5 99q131 0 223 -48l-39 -102q-90 32 -163 32q-74 0 -124 -35.5t-69.5 -85t-19.5 -109.5q0 -95 52.5 -163.5t160.5 -68.5q68 0 166 33l36 -103q-92 -48 -223 -48q-158 0 -253.5 100t-95.5 250zM301 744l95 154h153l-132 -154h-116z" />
    <glyph glyph-name="cacute" unicode="&#x107;" horiz-adv-x="492" 
d="M35 242q0 118 69 187t188 69q88 0 170 -40l-30 -97q-46 24 -124 24q-62 0 -93 -41t-31 -102t31 -101.5t93 -40.5q68 0 124 23l30 -97q-80 -39 -170 -39q-119 0 -188 68.5t-69 186.5zM196 554l95 154h153l-132 -154h-116z" />
    <glyph glyph-name="Ccircumflex" unicode="&#x108;" horiz-adv-x="642" 
d="M40 337q0 150 95.5 249t253.5 99q131 0 223 -48l-39 -102q-90 32 -163 32q-74 0 -124 -35.5t-69.5 -85t-19.5 -109.5q0 -95 52.5 -163.5t160.5 -68.5q68 0 166 33l36 -103q-92 -48 -223 -48q-158 0 -253.5 100t-95.5 250zM316 919h138l110 -167h-128l-52 88l-48 -88h-129
z" />
    <glyph glyph-name="ccircumflex" unicode="&#x109;" horiz-adv-x="492" 
d="M35 242q0 118 69 187t188 69q88 0 170 -40l-30 -97q-46 24 -124 24q-62 0 -93 -41t-31 -102t31 -101.5t93 -40.5q68 0 124 23l30 -97q-80 -39 -170 -39q-119 0 -188 68.5t-69 186.5zM203 729h138l110 -167h-128l-52 88l-48 -88h-129z" />
    <glyph glyph-name="Cdotaccent" unicode="&#x10a;" horiz-adv-x="642" 
d="M40 337q0 150 95.5 249t253.5 99q131 0 223 -48l-39 -102q-90 32 -163 32q-74 0 -124 -35.5t-69.5 -85t-19.5 -109.5q0 -95 52.5 -163.5t160.5 -68.5q68 0 166 33l36 -103q-92 -48 -223 -48q-158 0 -253.5 100t-95.5 250zM310 774v123h152v-123h-152z" />
    <glyph glyph-name="cdotaccent" unicode="&#x10b;" horiz-adv-x="492" 
d="M35 242q0 118 69 187t188 69q88 0 170 -40l-30 -97q-46 24 -124 24q-62 0 -93 -41t-31 -102t31 -101.5t93 -40.5q68 0 124 23l30 -97q-80 -39 -170 -39q-119 0 -188 68.5t-69 186.5zM204 585v123h152v-123h-152z" />
    <glyph glyph-name="Ccaron" unicode="&#x10c;" horiz-adv-x="642" 
d="M40 337q0 150 95.5 249t253.5 99q131 0 223 -48l-39 -102q-90 32 -163 32q-74 0 -124 -35.5t-69.5 -85t-19.5 -109.5q0 -95 52.5 -163.5t160.5 -68.5q68 0 166 33l36 -103q-92 -48 -223 -48q-158 0 -253.5 100t-95.5 250zM448 752h-138l-110 167h128l52 -88l48 88h129z
" />
    <glyph glyph-name="ccaron" unicode="&#x10d;" horiz-adv-x="492" 
d="M35 242q0 118 69 187t188 69q88 0 170 -40l-30 -97q-46 24 -124 24q-62 0 -93 -41t-31 -102t31 -101.5t93 -40.5q68 0 124 23l30 -97q-80 -39 -170 -39q-119 0 -188 68.5t-69 186.5zM343 562h-138l-110 167h128l52 -88l48 88h129z" />
    <glyph glyph-name="Dcaron" unicode="&#x10e;" horiz-adv-x="702" 
d="M323 0h-258v674h258q166 0 257.5 -85.5t91.5 -251.5t-91.5 -251.5t-257.5 -85.5zM219 117h108q85 0 138.5 54.5t53.5 165.5q0 113 -53 166.5t-142 53.5h-105v-440zM420 752h-138l-110 167h128l52 -88l48 88h129z" />
    <glyph glyph-name="dcaron" unicode="&#x10f;" horiz-adv-x="834" 
d="M364 432v242h151v-674h-150v55q-11 -20 -30 -35t-38 -21.5t-31.5 -9t-18.5 -2.5q-97 0 -154.5 65t-57.5 190q0 123 55 189.5t138 66.5q95 0 136 -66zM290 386q-100 0 -100 -144q0 -60 20 -101.5t64 -41.5q90 0 90 76v129q0 31 -16 51t-31 25.5t-27 5.5zM569 436l123 238
h154l-153 -238h-124z" />
    <glyph glyph-name="Dcroat" unicode="&#x110;" horiz-adv-x="702" 
d="M323 0h-258v674h258q166 0 257.5 -85.5t91.5 -251.5t-91.5 -251.5t-257.5 -85.5zM219 117h108q85 0 138.5 54.5t53.5 165.5q0 113 -53 166.5t-142 53.5h-105v-440zM217 773v102h267v-102h-267z" />
    <glyph glyph-name="dcroat" unicode="&#x111;" horiz-adv-x="606" 
d="M290 386q-100 0 -100 -144q0 -60 20 -101.5t64 -41.5q90 0 90 76v129q0 31 -16 51t-31 25.5t-27 5.5zM515 533v-533h-150v55q-11 -20 -30 -35t-38 -21.5t-31.5 -9t-18.5 -2.5q-97 0 -154.5 65t-57.5 190q0 123 55 189.5t138 66.5q95 0 136 -66v101h-136v88h136v53h151
v-53h75v-88h-75z" />
    <glyph glyph-name="Emacron" unicode="&#x112;" horiz-adv-x="602" 
d="M557 0h-492v674h486v-117h-331v-159h306v-117h-306v-164h337v-117zM167 773v102h267v-102h-267z" />
    <glyph glyph-name="emacron" unicode="&#x113;" horiz-adv-x="560" 
d="M290 -12q-119 0 -187 73.5t-68 180.5q0 112 66.5 184t178.5 72q127 0 192 -87t49 -214h-346q18 -105 141 -105q77 0 147 36l32 -88q-83 -52 -205 -52zM175 291h216q0 43 -32 71.5t-75 28.5q-46 0 -77.5 -28t-31.5 -72zM146 583v102h267v-102h-267z" />
    <glyph glyph-name="Ebreve" unicode="&#x114;" horiz-adv-x="602" 
d="M557 0h-492v674h486v-117h-331v-159h306v-117h-306v-164h337v-117zM302 753q-81 0 -119 44.5t-38 121.5h94q2 -40 15 -55.5t47 -15.5t47 16t15 55h94q0 -76 -38 -121t-117 -45z" />
    <glyph glyph-name="ebreve" unicode="&#x115;" horiz-adv-x="560" 
d="M290 -12q-119 0 -187 73.5t-68 180.5q0 112 66.5 184t178.5 72q127 0 192 -87t49 -214h-346q18 -105 141 -105q77 0 147 36l32 -88q-83 -52 -205 -52zM175 291h216q0 43 -32 71.5t-75 28.5q-46 0 -77.5 -28t-31.5 -72zM281 563q-81 0 -119 44.5t-38 121.5h94
q2 -40 15 -55.5t47 -15.5t47 16t15 55h94q0 -76 -38 -121t-117 -45z" />
    <glyph glyph-name="Edotaccent" unicode="&#x116;" horiz-adv-x="602" 
d="M557 0h-492v674h486v-117h-331v-159h306v-117h-306v-164h337v-117zM225 775v123h152v-123h-152z" />
    <glyph glyph-name="edotaccent" unicode="&#x117;" horiz-adv-x="560" 
d="M290 -12q-119 0 -187 73.5t-68 180.5q0 112 66.5 184t178.5 72q127 0 192 -87t49 -214h-346q18 -105 141 -105q77 0 147 36l32 -88q-83 -52 -205 -52zM175 291h216q0 43 -32 71.5t-75 28.5q-46 0 -77.5 -28t-31.5 -72zM204 585v123h152v-123h-152z" />
    <glyph glyph-name="Eogonek" unicode="&#x118;" horiz-adv-x="602" 
d="M557 0h-2q-71 -105 -15 -99q8 1 20 5l47 13v-95q-39 -18 -82 -23q-65 -6 -95.5 28.5t-10.5 96.5q13 38 40 74h-394v674h486v-117h-331v-159h306v-117h-306v-164h337v-117z" />
    <glyph glyph-name="eogonek" unicode="&#x119;" horiz-adv-x="560" 
d="M375 -4q-43 -8 -85 -8q-119 0 -187 73.5t-68 180.5q0 112 66.5 184t178.5 72q127 0 192 -87t49 -214h-346q18 -105 141 -105q77 0 147 36l33 -93q-4 -7 -16 -23q-78 -111 -25 -110q10 0 24 4l47 13v-95q-39 -18 -82 -23q-65 -6 -95.5 28.5t-10.5 96.5q7 27 37 70z
M175 291h216q0 43 -31.5 70t-75.5 27q-46 0 -77.5 -26.5t-31.5 -70.5z" />
    <glyph glyph-name="Ecaron" unicode="&#x11a;" horiz-adv-x="602" 
d="M557 0h-492v674h486v-117h-331v-159h306v-117h-306v-164h337v-117zM370 752h-138l-110 167h128l52 -88l48 88h129z" />
    <glyph glyph-name="ecaron" unicode="&#x11b;" horiz-adv-x="560" 
d="M290 -12q-119 0 -187 73.5t-68 180.5q0 112 66.5 184t178.5 72q127 0 192 -87t49 -214h-346q18 -105 141 -105q77 0 147 36l32 -88q-83 -52 -205 -52zM175 291h216q0 43 -32 71.5t-75 28.5q-46 0 -77.5 -28t-31.5 -72zM349 562h-138l-110 167h128l52 -88l48 88h129z" />
    <glyph glyph-name="Gcircumflex" unicode="&#x11c;" horiz-adv-x="713" 
d="M525 266l-136 -2v117h278v-336q-42 -25 -118 -41.5t-134 -16.5q-170 0 -272.5 100t-102.5 250t102.5 249t272.5 99q132 0 239 -67l-49 -97q-40 24 -94 35.5t-86 11.5q-61 0 -107 -20t-71.5 -54t-37.5 -73.5t-12 -83.5q0 -93 60 -162.5t169 -69.5q51 0 99 15v146zM334 919
h138l110 -167h-128l-52 88l-48 -88h-129z" />
    <glyph glyph-name="gcircumflex" unicode="&#x11d;" horiz-adv-x="577" 
d="M291 99q25 0 50 18t25 60v132q0 45 -28.5 61.5t-62.5 16.5q-44 0 -64 -42t-20 -103q0 -143 100 -143zM375 -7v62q-30 -68 -117 -68q-85 0 -154 67.5t-69 187.5q0 123 57.5 189.5t143.5 66.5q9 0 20 -1.5t35 -7t44.5 -23t31.5 -43.5v61h150v-504q0 -46 -20 -79.5
t-54.5 -51.5t-73.5 -26t-85 -8q-57 0 -113.5 15.5t-83.5 35.5l29 83q28 -17 69 -28t83 -13t73 19t34 66zM219 729h138l110 -167h-128l-52 88l-48 -88h-129z" />
    <glyph glyph-name="Gbreve" unicode="&#x11e;" horiz-adv-x="713" 
d="M525 266l-136 -2v117h278v-336q-42 -25 -118 -41.5t-134 -16.5q-170 0 -272.5 100t-102.5 250t102.5 249t272.5 99q132 0 239 -67l-49 -97q-40 24 -94 35.5t-86 11.5q-61 0 -107 -20t-71.5 -54t-37.5 -73.5t-12 -83.5q0 -93 60 -162.5t169 -69.5q51 0 99 15v146zM396 753
q-81 0 -119 44.5t-38 121.5h94q2 -40 15 -55.5t47 -15.5t47 16t15 55h94q0 -76 -38 -121t-117 -45z" />
    <glyph glyph-name="gbreve" unicode="&#x11f;" horiz-adv-x="577" 
d="M289 563q-81 0 -119 44.5t-38 121.5h94q2 -40 15 -55.5t47 -15.5t47 16t15 55h94q0 -76 -38 -121t-117 -45zM291 99q25 0 50 18t25 60v132q0 45 -28.5 61.5t-62.5 16.5q-44 0 -64 -42t-20 -103q0 -143 100 -143zM375 2v53q-30 -68 -117 -68q-85 0 -154 67.5t-69 187.5
q0 123 57.5 189.5t143.5 66.5q9 0 20 -1.5t35 -7t44.5 -23t31.5 -43.5v61h150v-504q0 -46 -20 -79.5t-54.5 -51.5t-73.5 -26t-85 -8q-57 0 -113.5 15.5t-83.5 35.5l34 95q28 -16 69 -27.5t83 -13.5t72 18.5t30 63.5z" />
    <glyph glyph-name="Gdotaccent" unicode="&#x120;" horiz-adv-x="713" 
d="M525 266l-136 -2v117h278v-336q-42 -25 -118 -41.5t-134 -16.5q-170 0 -272.5 100t-102.5 250t102.5 249t272.5 99q132 0 239 -67l-49 -97q-40 24 -94 35.5t-86 11.5q-61 0 -107 -20t-71.5 -54t-37.5 -73.5t-12 -83.5q0 -93 60 -162.5t169 -69.5q51 0 99 15v146zM330 775
v123h152v-123h-152z" />
    <glyph glyph-name="gdotaccent" unicode="&#x121;" horiz-adv-x="577" 
d="M291 99q25 0 50 18t25 60v132q0 45 -28.5 61.5t-62.5 16.5q-44 0 -64 -42t-20 -103q0 -143 100 -143zM375 -7v62q-30 -68 -117 -68q-85 0 -154 67.5t-69 187.5q0 123 57.5 189.5t143.5 66.5q9 0 20 -1.5t35 -7t44.5 -23t31.5 -43.5v61h150v-504q0 -46 -20 -79.5
t-54.5 -51.5t-73.5 -26t-85 -8q-57 0 -113.5 15.5t-83.5 35.5l29 83q28 -17 69 -28t83 -13t73 19t34 66zM212 585v123h152v-123h-152z" />
    <glyph glyph-name="Gcommaaccent" unicode="&#x122;" horiz-adv-x="713" 
d="M525 266l-136 -2v117h278v-336q-42 -25 -118 -41.5t-134 -16.5q-170 0 -272.5 100t-102.5 250t102.5 249t272.5 99q132 0 239 -67l-49 -97q-40 24 -94 35.5t-86 11.5q-61 0 -107 -20t-71.5 -54t-37.5 -73.5t-12 -83.5q0 -93 60 -162.5t169 -69.5q51 0 99 15v146z
M250 -226l92 177h154l-125 -177h-121z" />
    <glyph glyph-name="gcommaaccent" unicode="&#x123;" horiz-adv-x="577" 
d="M413 760l-110 -213h-143l140 213h113zM291 99q25 0 50 18t25 60v132q0 45 -28.5 61.5t-62.5 16.5q-44 0 -64 -42t-20 -103q0 -143 100 -143zM375 2v53q-30 -68 -117 -68q-85 0 -154 67.5t-69 187.5q0 123 57.5 189.5t143.5 66.5q9 0 20 -1.5t35 -7t44.5 -23t31.5 -43.5
v61h150v-504q0 -46 -20 -79.5t-54.5 -51.5t-73.5 -26t-85 -8q-57 0 -113.5 15.5t-83.5 35.5l34 95q28 -16 69 -27.5t83 -13.5t72 18.5t30 63.5z" />
    <glyph glyph-name="Hcircumflex" unicode="&#x124;" horiz-adv-x="696" 
d="M476 287h-256v-287h-155v674h155v-269h256v269h155v-674h-155v287zM278 919h138l110 -167h-128l-52 88l-48 -88h-129z" />
    <glyph glyph-name="hcircumflex" unicode="&#x125;" 
d="M515 282v-282h-151v282q0 104 -62 104q-12 0 -25 -4t-29 -13.5t-26.5 -31.5t-10.5 -53v-284h-151v674h151v-251q21 40 61 57.5t70 17.5q173 0 173 -216zM67 919h138l110 -167h-128l-52 88l-48 -88h-129z" />
    <glyph glyph-name="Hbar" unicode="&#x126;" horiz-adv-x="696" 
d="M476 287h-256v-287h-155v674h155v-269h256v269h155v-674h-155v287zM214 773v102h267v-102h-267z" />
    <glyph glyph-name="hbar" unicode="&#x127;" horiz-adv-x="601" 
d="M15 533v88h71v53h151v-53h140v-88h-140v-110q21 40 61 57.5t70 17.5q173 0 173 -216v-282h-151v282q0 104 -62 104q-12 0 -25 -4t-29 -13.5t-26.5 -31.5t-10.5 -53v-284h-151v533h-71z" />
    <glyph glyph-name="Itilde" unicode="&#x128;" horiz-adv-x="284" 
d="M65 0v674h154v-674h-154zM105 791q-10 0 -19 -10.5t-11 -31.5h-91q3 68 25 105t80 37q24 0 51 -16q32 -17 42 -17q9 0 18.5 12t7.5 28h93q-3 -68 -25.5 -105t-80.5 -37q-21 0 -51 18q-28 17 -39 17z" />
    <glyph glyph-name="itilde" unicode="&#x129;" horiz-adv-x="272" 
d="M60 0v484h152v-484h-152zM99 601q-10 0 -19 -10.5t-11 -31.5h-91q3 68 25 105t80 37q24 0 51 -16q32 -17 42 -17q9 0 18.5 12t7.5 28h93q-3 -68 -25.5 -105t-80.5 -37q-21 0 -51 18q-28 17 -39 17z" />
    <glyph glyph-name="imacron" unicode="&#x12b;" horiz-adv-x="272" 
d="M60 0v484h152v-484h-152zM3 583v102h267v-102h-267z" />
    <glyph glyph-name="Ibreve" unicode="&#x12c;" horiz-adv-x="284" 
d="M65 0v674h154v-674h-154zM143 753q-81 0 -119 44.5t-38 121.5h94q2 -40 15 -55.5t47 -15.5t47 16t15 55h94q0 -76 -38 -121t-117 -45z" />
    <glyph glyph-name="ibreve" unicode="&#x12d;" horiz-adv-x="272" 
d="M60 0v484h152v-484h-152zM137 563q-81 0 -119 44.5t-38 121.5h94q2 -40 15 -55.5t47 -15.5t47 16t15 55h94q0 -76 -38 -121t-117 -45z" />
    <glyph glyph-name="Iogonek" unicode="&#x12e;" horiz-adv-x="284" 
d="M65 0v674h154v-674h-58q-71 -105 -15 -99q8 1 20 5l47 13v-95q-39 -18 -82 -23q-65 -6 -95.5 28.5t-10.5 96.5q13 38 40 74z" />
    <glyph glyph-name="iogonek" unicode="&#x12f;" horiz-adv-x="272" 
d="M60 0v484h152v-484h-56q-71 -105 -15 -99q8 1 20 5l47 13v-95q-39 -18 -82 -23q-65 -6 -95.5 28.5t-10.5 96.5q13 38 40 74zM60 551v123h152v-123h-152z" />
    <glyph glyph-name="Idotaccent" unicode="&#x130;" horiz-adv-x="284" 
d="M65 0v674h154v-674h-154zM66 775v123h152v-123h-152z" />
    <glyph glyph-name="dotlessi" unicode="&#x131;" horiz-adv-x="272" 
d="M60 0v484h152v-484h-152z" />
    <glyph glyph-name="IJ" unicode="&#x132;" horiz-adv-x="753" 
d="M65 0v674h154v-674h-154zM294 38l33 101q30 -17 62 -28t67 -13.5t57.5 22.5t22.5 77v477h152v-483q0 -111 -58 -157.5t-147 -46.5q-82 0 -189 51z" />
    <glyph glyph-name="ij" unicode="&#x133;" horiz-adv-x="555" 
d="M60 0v484h152v-484h-152zM60 551v123h152v-123h-152zM495 484l-1 -507q0 -47 -14 -80t-31 -48.5t-44 -24t-38.5 -9t-30.5 -0.5q-52 0 -114 33l22 88q20 -5 32 -9l15 -5t5 -1.5t4 -1.5q7 1 12 -1.5t9.5 1.5t7.5 4t5 6t4 8t3 9t1.5 9t0.5 9v9v8v503h152zM343 551v123h152
v-123h-152z" />
    <glyph glyph-name="Jcircumflex" unicode="&#x134;" horiz-adv-x="469" 
d="M10 38l33 101q28 -18 61 -29t67.5 -13t57.5 23t23 77v477h152v-483q0 -111 -58 -157.5t-147 -46.5q-82 0 -189 51zM257 919h138l110 -167h-128l-52 88l-48 -88h-129z" />
    <glyph glyph-name="jcircumflex" unicode="&#x135;" horiz-adv-x="283" 
d="M223 484l-1 -507q0 -47 -14 -80t-31 -48.5t-44 -24t-38.5 -9t-30.5 -0.5q-52 0 -114 33l22 88q20 -5 32 -9l15 -5t5 -1.5t4 -1.5q7 1 12 -1.5t9.5 1.5t7.5 4t5 6t4 8t3 9t1.5 9t0.5 9v9v8v503h152zM72 729h138l110 -167h-128l-52 88l-48 -88h-129z" />
    <glyph glyph-name="Kcommaaccent" unicode="&#x136;" horiz-adv-x="647" 
d="M637 0h-186l-195 256l-36 -46v-210h-155v674h155v-256l199 256h177l-244 -305zM154 -230l102 192h154l-135 -192h-121z" />
    <glyph glyph-name="kcedilla" unicode="&#x137;" horiz-adv-x="533" 
d="M320 296l208 -296h-168l-135 213l-14 -14v-199h-151v674h151v-323l117 133h177zM204 10h95q31 -34 48 -84q20 -62 -10.5 -96.5t-95.5 -28.5q-43 5 -82 23v95l47 -13q55 -17 41 28q-8 27 -43 76z" />
    <glyph glyph-name="kgreenlandic" unicode="&#x138;" horiz-adv-x="532" 
d="M327 264l182 -264h-168l-116 178l-14 -18v-160h-151v484h151v-176l117 176h158z" />
    <glyph glyph-name="Lacute" unicode="&#x139;" horiz-adv-x="570" 
d="M221 674v-556h309v-118h-465v674h156zM68 744l95 154h153l-132 -154h-116z" />
    <glyph glyph-name="lacute" unicode="&#x13a;" horiz-adv-x="272" 
d="M60 0v674h152v-674h-152zM60 741l95 154h165l-132 -154h-128z" />
    <glyph glyph-name="Lcommaaccent" unicode="&#x13b;" horiz-adv-x="570" 
d="M221 674v-556h309v-118h-465v674h156zM127 -230l102 192h154l-135 -192h-121z" />
    <glyph glyph-name="lcommaaccent" unicode="&#x13c;" horiz-adv-x="272" 
d="M60 0v674h152v-674h-152zM-42 -230l102 192h154l-135 -192h-121z" />
    <glyph glyph-name="Lcaron" unicode="&#x13d;" horiz-adv-x="570" 
d="M221 674v-556h309v-118h-465v674h156zM264 436l123 238h148l-153 -238h-118z" />
    <glyph glyph-name="lcaron" unicode="&#x13e;" horiz-adv-x="510" 
d="M60 0v674h152v-674h-152zM252 436l123 238h148l-153 -238h-118z" />
    <glyph glyph-name="Ldot" unicode="&#x13f;" horiz-adv-x="570" 
d="M221 674v-556h309v-118h-465v674h156zM354 468v130h159v-130h-159z" />
    <glyph glyph-name="ldot" unicode="&#x140;" horiz-adv-x="531" 
d="M60 0v674h152v-674h-152zM286 240v130h159v-130h-159z" />
    <glyph glyph-name="Lslash" unicode="&#x141;" horiz-adv-x="617" 
d="M112 0v258l-107 -67v97l107 70v316h155v-229l106 69v-96l-106 -69v-231h310v-118h-465z" />
    <glyph glyph-name="lslash" unicode="&#x142;" horiz-adv-x="386" 
d="M269 377v-377h-152v275l-103 -73v103l103 75v287h152v-194l103 71v-99z" />
    <glyph glyph-name="Nacute" unicode="&#x143;" horiz-adv-x="702" 
d="M455 0l-236 465v-465h-154v674h191l227 -460v460h154v-674h-182zM257 744l95 154h153l-132 -154h-116z" />
    <glyph glyph-name="nacute" unicode="&#x144;" horiz-adv-x="565" 
d="M510 280v-280h-151v280q0 108 -62 108q-11 0 -24.5 -4.5t-29.5 -15t-26.5 -33t-10.5 -53.5v-282h-151v484h145v-74q40 88 140 88q84 0 127 -50t43 -168zM178 554l95 154h153l-132 -154h-116z" />
    <glyph glyph-name="Ncommaaccent" unicode="&#x145;" horiz-adv-x="702" 
d="M455 0l-236 465v-465h-154v674h191l227 -460v460h154v-674h-182zM165 -230l102 192h154l-135 -192h-121z" />
    <glyph glyph-name="ncommaaccent" unicode="&#x146;" horiz-adv-x="565" 
d="M510 280v-280h-151v280q0 108 -62 108q-11 0 -24.5 -4.5t-29.5 -15t-26.5 -33t-10.5 -53.5v-282h-151v484h145v-74q40 88 140 88q84 0 127 -50t43 -168zM105 -230l102 192h154l-135 -192h-121z" />
    <glyph glyph-name="Ncaron" unicode="&#x147;" horiz-adv-x="702" 
d="M455 0l-236 465v-465h-154v674h191l227 -460v460h154v-674h-182zM420 752h-138l-110 167h128l52 -88l48 88h129z" />
    <glyph glyph-name="ncaron" unicode="&#x148;" horiz-adv-x="565" 
d="M510 280v-280h-151v280q0 108 -62 108q-11 0 -24.5 -4.5t-29.5 -15t-26.5 -33t-10.5 -53.5v-282h-151v484h145v-74q40 88 140 88q84 0 127 -50t43 -168zM352 562h-138l-110 167h128l52 -88l48 88h129z" />
    <glyph glyph-name="Eng" unicode="&#x14a;" horiz-adv-x="702" 
d="M351 -179v109q23 -7 49.5 -8t50 6t33 24.5t-0.5 47.5l-264 465v-465h-154v674h191l227 -422v422h154v-674q-2 -53 -20 -91.5t-48 -59t-63.5 -29.5t-73.5 -9q-42 0 -81 10z" />
    <glyph glyph-name="eng" unicode="&#x14b;" horiz-adv-x="565" 
d="M510 280v-280q-2 -53 -20 -91.5t-48 -59t-63.5 -29.5t-73.5 -9q-42 0 -81 10v102q32 -4 62 -5.5t51.5 23t21.5 76.5v18v245q0 108 -62 108q-11 0 -24.5 -4.5t-29.5 -15t-26.5 -33t-10.5 -53.5v-282h-151v484h145v-74q40 88 140 88q84 0 127 -50t43 -168z" />
    <glyph glyph-name="Omacron" unicode="&#x14c;" horiz-adv-x="753" 
d="M376 -13q-156 0 -246 93t-90 257q0 163 90 255.5t246 92.5q157 0 247 -92.5t90 -255.5q0 -164 -90 -257t-247 -93zM376 570q-85 0 -130.5 -67t-45.5 -166q0 -104 45 -169.5t131 -65.5t131.5 65.5t45.5 169.5q0 99 -45.5 166t-131.5 67zM243 773v102h267v-102h-267z" />
    <glyph glyph-name="omacron" unicode="&#x14d;" horiz-adv-x="566" 
d="M35 243q0 118 66.5 186.5t180.5 68.5q115 0 182 -68.5t67 -186.5t-67 -187t-182 -69q-114 0 -180.5 69t-66.5 187zM381 243q0 58 -27 102t-72 44t-71 -43.5t-26 -102.5t26 -103t71 -44t72 44.5t27 102.5zM149 583v102h267v-102h-267z" />
    <glyph glyph-name="Obreve" unicode="&#x14e;" horiz-adv-x="753" 
d="M376 -13q-156 0 -246 93t-90 257q0 163 90 255.5t246 92.5q157 0 247 -92.5t90 -255.5q0 -164 -90 -257t-247 -93zM376 570q-85 0 -130.5 -67t-45.5 -166q0 -104 45 -169.5t131 -65.5t131.5 65.5t45.5 169.5q0 99 -45.5 166t-131.5 67zM377 753q-81 0 -119 44.5
t-38 121.5h94q2 -40 15 -55.5t47 -15.5t47 16t15 55h94q0 -76 -38 -121t-117 -45z" />
    <glyph glyph-name="obreve" unicode="&#x14f;" horiz-adv-x="566" 
d="M35 243q0 118 66.5 186.5t180.5 68.5q115 0 182 -68.5t67 -186.5t-67 -187t-182 -69q-114 0 -180.5 69t-66.5 187zM381 243q0 58 -27 102t-72 44t-71 -43.5t-26 -102.5t26 -103t71 -44t72 44.5t27 102.5zM284 563q-81 0 -119 44.5t-38 121.5h94q2 -40 15 -55.5t47 -15.5
t47 16t15 55h94q0 -76 -38 -121t-117 -45z" />
    <glyph glyph-name="Ohungarumlaut" unicode="&#x150;" horiz-adv-x="753" 
d="M376 -13q-156 0 -246 93t-90 257q0 163 90 255.5t246 92.5q157 0 247 -92.5t90 -255.5q0 -164 -90 -257t-247 -93zM376 570q-85 0 -130.5 -67t-45.5 -166q0 -104 45 -169.5t131 -65.5t131.5 65.5t45.5 169.5q0 99 -45.5 166t-131.5 67zM228 755l72 154h139l-109 -154
h-102zM408 755l72 154h139l-109 -154h-102z" />
    <glyph glyph-name="ohungarumlaut" unicode="&#x151;" horiz-adv-x="566" 
d="M35 243q0 118 66.5 186.5t180.5 68.5q115 0 182 -68.5t67 -186.5t-67 -187t-182 -69q-114 0 -180.5 69t-66.5 187zM381 243q0 58 -27 102t-72 44t-71 -43.5t-26 -102.5t26 -103t71 -44t72 44.5t27 102.5zM118 565l72 154h139l-109 -154h-102zM298 565l72 154h139
l-109 -154h-102z" />
    <glyph glyph-name="OE" unicode="&#x152;" horiz-adv-x="1092" 
d="M376 570q-85 0 -131 -67t-46 -166q0 -103 45.5 -168t131.5 -65t131.5 65t45.5 168q0 99 -45.5 166t-131.5 67zM554 0v63q-68 -74 -192 -74q-147 0 -234.5 93t-87.5 255q0 161 89.5 254.5t232.5 93.5q58 0 110.5 -20.5t81.5 -66.5v76h486v-117h-330v-159h305v-117h-305
v-164h337v-117h-493z" />
    <glyph glyph-name="oe" unicode="&#x153;" horiz-adv-x="916" 
d="M646 -12q-57 0 -104.5 24t-74.5 64q-25 -40 -77 -64t-107 -24q-115 0 -181.5 68t-66.5 186t66.5 186.5t181.5 68.5q104 0 172 -73q74 74 181 74q127 0 192 -85.5t49 -212.5h-340q2 -50 36.5 -79t98.5 -29q78 0 156 39l23 -91q-83 -52 -205 -52zM381 242q0 58 -26.5 102
t-71.5 44q-46 0 -71.5 -43.5t-25.5 -102.5t25.5 -102.5t71.5 -43.5q45 0 71.5 43.5t26.5 102.5zM641 392q-39 0 -72 -27t-33 -74h210q0 50 -32.5 75.5t-72.5 25.5z" />
    <glyph glyph-name="Racute" unicode="&#x154;" horiz-adv-x="657" 
d="M597 466q0 -128 -124 -162q28 -8 49 -33t24 -37l91 -234h-158l-79 192q-23 56 -76 60h-104v-252h-155v674h305q67 0 114 -18.5t70.5 -51t33 -66t9.5 -72.5zM220 369h148q39 0 59 29t20 57q0 41 -23 71.5t-65 30.5h-139v-188zM221 744l95 154h153l-132 -154h-116z" />
    <glyph glyph-name="racute" unicode="&#x155;" horiz-adv-x="380" 
d="M360 498v-120h-28q-119 0 -119 -111l1 -267h-149v484h145v-86q16 53 55 76.5t75 23.5h20zM66 554l95 154h153l-132 -154h-116z" />
    <glyph glyph-name="Rcommaaccent" unicode="&#x156;" horiz-adv-x="657" 
d="M597 466q0 -128 -124 -162q28 -8 49 -33t24 -37l91 -234h-158l-79 192q-23 56 -76 60h-104v-252h-155v674h305q67 0 114 -18.5t70.5 -51t33 -66t9.5 -72.5zM220 369h148q39 0 59 29t20 57q0 41 -23 71.5t-65 30.5h-139v-188zM165 -230l102 192h154l-135 -192h-121z" />
    <glyph glyph-name="rcommaaccent" unicode="&#x157;" horiz-adv-x="372" 
d="M360 498v-120h-28q-119 0 -119 -111v-267h-148v484h145v-86q16 53 55 76.5t75 23.5h20zM-43 -230l102 192h154l-135 -192h-121z" />
    <glyph glyph-name="Rcaron" unicode="&#x158;" horiz-adv-x="657" 
d="M597 466q0 -128 -124 -162q28 -8 49 -33t24 -37l91 -234h-158l-79 192q-23 56 -76 60h-104v-252h-155v674h305q67 0 114 -18.5t70.5 -51t33 -66t9.5 -72.5zM220 369h148q39 0 59 29t20 57q0 41 -23 71.5t-65 30.5h-139v-188zM398 752h-138l-110 167h128l52 -88l48 88h129
z" />
    <glyph glyph-name="rcaron" unicode="&#x159;" horiz-adv-x="442" 
d="M417 498v-120h-28q-119 0 -119 -111l1 -267h-149v484h145v-86q16 53 55 76.5t75 23.5h20zM313 562h-138l-110 167h128l52 -88l48 88h129z" />
    <glyph glyph-name="Sacute" unicode="&#x15a;" horiz-adv-x="605" 
d="M300 685q78 0 132.5 -20.5t114.5 -66.5l-44 -101q-108 67 -196 67q-42 0 -70.5 -15t-35.5 -35.5t7.5 -43.5t49.5 -37l178 -67q139 -51 139 -171q0 -97 -75.5 -152.5t-180.5 -55.5q-82 0 -146 25q-92 34 -143 81l51 107q41 -37 109 -65.5t130 -28.5q38 0 69 18.5t31 53.5
q0 47 -47 65l-181 70q-75 30 -109.5 75.5t-34.5 94.5q0 94 71 148t181 54zM236 744l95 154h152l-132 -154h-115z" />
    <glyph glyph-name="sacute" unicode="&#x15b;" horiz-adv-x="473" 
d="M247 98q39 0 52 27q12 35 -21 47l-127 48q-61 26 -84 58.5t-23 75.5q0 65 53.5 104.5t138.5 39.5q55 0 95.5 -14t99.5 -54l-44 -88q-74 52 -146 52q-38 0 -47 -28t52 -52l80 -30q74 -24 103 -83.5t-1 -123.5q-21 -40 -69 -65t-111 -25q-49 0 -106 19q-66 23 -112 65
l56 93q72 -66 161 -66zM154 554l95 154h153l-132 -154h-116z" />
    <glyph glyph-name="Scircumflex" unicode="&#x15c;" horiz-adv-x="605" 
d="M300 685q78 0 132.5 -20.5t114.5 -66.5l-44 -101q-108 67 -196 67q-42 0 -70.5 -15t-35.5 -35.5t7.5 -43.5t49.5 -37l178 -67q139 -51 139 -171q0 -97 -75.5 -152.5t-180.5 -55.5q-82 0 -146 25q-92 34 -143 81l51 107q41 -37 109 -65.5t130 -28.5q38 0 69 18.5t31 53.5
q0 47 -47 65l-181 70q-75 30 -109.5 75.5t-34.5 94.5q0 94 71 148t181 54zM233 919h138l110 -167h-128l-52 88l-48 -88h-129z" />
    <glyph glyph-name="scircumflex" unicode="&#x15d;" horiz-adv-x="473" 
d="M247 98q39 0 52 27q12 35 -21 47l-127 48q-61 26 -84 58.5t-23 75.5q0 65 53.5 104.5t138.5 39.5q55 0 95.5 -14t99.5 -54l-44 -88q-74 52 -146 52q-38 0 -47 -28t52 -52l80 -30q74 -24 103 -83.5t-1 -123.5q-21 -40 -69 -65t-111 -25q-49 0 -106 19q-66 23 -112 65
l56 93q72 -66 161 -66zM167 729h138l110 -167h-128l-52 88l-48 -88h-129z" />
    <glyph glyph-name="Scedilla" unicode="&#x15e;" horiz-adv-x="605" 
d="M351 -11q26 -41 32 -63q20 -62 -10.5 -96.5t-95.5 -28.5q-43 5 -82 23v95l47 -13q56 -16 42 27q-7 22 -32 59q-47 7 -79 20q-92 34 -143 81l51 107q41 -37 109 -65.5t130 -28.5q38 0 69 18.5t31 53.5q0 47 -47 65l-181 70q-75 30 -109.5 75.5t-34.5 94.5q0 94 71 148
t181 54q78 0 132.5 -20.5t114.5 -66.5l-44 -101q-108 67 -196 67q-42 0 -70.5 -15t-35.5 -35.5t7.5 -43.5t49.5 -37l178 -67q139 -51 139 -171q0 -88 -64.5 -142.5t-159.5 -63.5z" />
    <glyph glyph-name="scedilla" unicode="&#x15f;" horiz-adv-x="473" 
d="M284 -10q24 -34 33 -64q20 -62 -10.5 -96.5t-95.5 -28.5q-43 5 -82 23v95l47 -13q48 -16 44 17q-4 24 -36 72q-28 6 -42 11q-66 23 -112 65l56 93q72 -66 161 -66q39 0 52 27q12 35 -21 47l-127 48q-61 26 -84 58.5t-23 75.5q0 65 53.5 104.5t138.5 39.5q55 0 95.5 -14
t99.5 -54l-44 -88q-74 52 -146 52q-38 0 -47 -28t52 -52l80 -30q74 -24 103 -83.5t-1 -123.5q-37 -73 -144 -87z" />
    <glyph glyph-name="Scaron" unicode="&#x160;" horiz-adv-x="605" 
d="M300 685q78 0 132.5 -20.5t114.5 -66.5l-44 -101q-108 67 -196 67q-42 0 -70.5 -15t-35.5 -35.5t7.5 -43.5t49.5 -37l178 -67q139 -51 139 -171q0 -97 -75.5 -152.5t-180.5 -55.5q-82 0 -146 25q-92 34 -143 81l51 107q41 -37 109 -65.5t130 -28.5q38 0 69 18.5t31 53.5
q0 47 -47 65l-181 70q-75 30 -109.5 75.5t-34.5 94.5q0 94 71 148t181 54zM372 731h-138l-110 167h128l52 -88l48 88h129z" />
    <glyph glyph-name="scaron" unicode="&#x161;" horiz-adv-x="473" 
d="M247 98q39 0 52 27q12 35 -21 47l-127 48q-61 26 -84 58.5t-23 75.5q0 65 53.5 104.5t138.5 39.5q55 0 95.5 -14t99.5 -54l-44 -88q-74 52 -146 52q-38 0 -47 -28t52 -52l80 -30q74 -24 103 -83.5t-1 -123.5q-21 -40 -69 -65t-111 -25q-49 0 -106 19q-66 23 -112 65
l56 93q72 -66 161 -66zM306 541h-138l-110 167h128l52 -88l48 88h129z" />
    <glyph glyph-name="Tcommaaccent" unicode="&#x162;" horiz-adv-x="579" 
d="M569 557h-203v-557h-154v557h-202v117h559v-117zM111 -230l102 192h154l-135 -192h-121z" />
    <glyph glyph-name="tcommaaccent" unicode="&#x163;" horiz-adv-x="373" 
d="M90 390h-78v94h78v114h149v-114h102v-94h-102v-251q0 -10 1 -15.5t4 -13.5t12 -12t24 -4q20 0 68 20l5 -98q-56 -28 -102 -28q-21 0 -33.5 0.5t-39.5 9t-43.5 24t-30.5 48.5t-14 80v240zM44 -230l102 192h154l-135 -192h-121z" />
    <glyph glyph-name="Tcaron" unicode="&#x164;" horiz-adv-x="579" 
d="M569 557h-203v-557h-154v557h-202v117h559v-117zM359 752h-138l-110 167h128l52 -88l48 88h129z" />
    <glyph glyph-name="tcaron" unicode="&#x165;" horiz-adv-x="537" 
d="M90 390h-78v94h78v114h149v-114h102v-94h-102v-251q0 -10 1 -15.5t4 -13.5t12 -12t24 -4q20 0 68 20l5 -98q-56 -28 -102 -28q-21 0 -33.5 0.5t-39.5 9t-43.5 24t-30.5 48.5t-14 80v240zM310 545l123 238h142l-153 -238h-112z" />
    <glyph glyph-name="Tbar" unicode="&#x166;" horiz-adv-x="579" 
d="M569 557h-203v-557h-154v557h-202v117h559v-117zM156 773v102h267v-102h-267z" />
    <glyph glyph-name="tbar" unicode="&#x167;" horiz-adv-x="373" 
d="M90 221h-69v88h69v81h-78v94h78v114h149v-114h102v-94h-102v-81h76v-88h-76v-82q0 -10 1 -15.5t4 -13.5t12 -12t24 -4q20 0 68 20l5 -98q-56 -28 -102 -28q-21 0 -33.5 0.5t-39.5 9t-43.5 24t-30.5 48.5t-14 80v71z" />
    <glyph glyph-name="Utilde" unicode="&#x168;" horiz-adv-x="720" 
d="M360 -13q-144 0 -219.5 72.5t-75.5 242.5v372h156v-374q0 -100 33 -148t106 -48q74 0 107.5 48t33.5 148v374h154v-372q0 -171 -75 -243t-220 -72zM322 791q-10 0 -19 -10.5t-11 -31.5h-91q4 70 25.5 106t79.5 36q24 0 51 -16q32 -17 42 -17q9 0 18.5 12t7.5 28h93
q-3 -68 -25.5 -105t-80.5 -37q-21 0 -51 18q-28 17 -39 17z" />
    <glyph glyph-name="utilde" unicode="&#x169;" 
d="M60 204v280h151v-280q0 -105 62 -105q9 0 20.5 2.5t29.5 10t29.5 27t11.5 48.5v297h151v-484h-145v68q-13 -27 -35 -45.5t-45 -25t-35 -8.5t-21 -2q-31 0 -60 11t-55.5 35t-42.5 68t-16 103zM250 601q-10 0 -19 -10.5t-11 -31.5h-91q4 70 25.5 106t79.5 36q24 0 51 -16
q32 -17 42 -17q9 0 18.5 12t7.5 28h93q-3 -68 -25.5 -105t-80.5 -37q-21 0 -51 18q-28 17 -39 17z" />
    <glyph glyph-name="Umacron" unicode="&#x16a;" horiz-adv-x="720" 
d="M360 -13q-144 0 -219.5 72.5t-75.5 242.5v372h156v-374q0 -100 33 -148t106 -48q74 0 107.5 48t33.5 148v374h154v-372q0 -171 -75 -243t-220 -72zM226 773v102h267v-102h-267z" />
    <glyph glyph-name="umacron" unicode="&#x16b;" 
d="M60 204v280h151v-280q0 -105 62 -105q9 0 20.5 2.5t29.5 10t29.5 27t11.5 48.5v297h151v-484h-145v68q-13 -27 -35 -45.5t-45 -25t-35 -8.5t-21 -2q-31 0 -60 11t-55.5 35t-42.5 68t-16 103zM154 583v102h267v-102h-267z" />
    <glyph glyph-name="Ubreve" unicode="&#x16c;" horiz-adv-x="720" 
d="M360 -13q-144 0 -219.5 72.5t-75.5 242.5v372h156v-374q0 -100 33 -148t106 -48q74 0 107.5 48t33.5 148v374h154v-372q0 -171 -75 -243t-220 -72zM361 753q-81 0 -119 44.5t-38 121.5h94q2 -40 15 -55.5t47 -15.5t47 16t15 55h94q0 -76 -38 -121t-117 -45z" />
    <glyph glyph-name="ubreve" unicode="&#x16d;" 
d="M60 204v280h151v-280q0 -105 62 -105q9 0 20.5 2.5t29.5 10t29.5 27t11.5 48.5v297h151v-484h-145v68q-13 -27 -35 -45.5t-45 -25t-35 -8.5t-21 -2q-31 0 -60 11t-55.5 35t-42.5 68t-16 103zM288 563q-81 0 -119 44.5t-38 121.5h94q2 -40 15 -55.5t47 -15.5t47 16t15 55
h94q0 -76 -38 -121t-117 -45z" />
    <glyph glyph-name="Uring" unicode="&#x16e;" horiz-adv-x="720" 
d="M360 -13q-144 0 -219.5 72.5t-75.5 242.5v372h156v-374q0 -100 33 -148t106 -48q74 0 107.5 48t33.5 148v374h154v-372q0 -171 -75 -243t-220 -72zM248 855q0 45 27.5 74.5t84.5 29.5q59 0 85.5 -29t26.5 -75q0 -104 -112 -104q-58 0 -85 29.5t-27 74.5zM390 855
q0 37 -31 37t-31 -37q0 -38 31 -38t31 38z" />
    <glyph glyph-name="uring" unicode="&#x16f;" 
d="M60 204v280h151v-280q0 -105 62 -105q9 0 20.5 2.5t29.5 10t29.5 27t11.5 48.5v297h151v-484h-145v68q-13 -27 -35 -45.5t-45 -25t-35 -8.5t-21 -2q-31 0 -60 11t-55.5 35t-42.5 68t-16 103zM175 665q0 45 27.5 74.5t84.5 29.5q59 0 85.5 -29t26.5 -75q0 -104 -112 -104
q-58 0 -85 29.5t-27 74.5zM317 665q0 37 -31 37t-31 -37q0 -38 31 -38t31 38z" />
    <glyph glyph-name="Uhungarumlaut" unicode="&#x170;" horiz-adv-x="720" 
d="M360 -13q-144 0 -219.5 72.5t-75.5 242.5v372h156v-374q0 -100 33 -148t106 -48q74 0 107.5 48t33.5 148v374h154v-372q0 -171 -75 -243t-220 -72zM188 755l72 154h139l-109 -154h-102zM368 755l72 154h139l-109 -154h-102z" />
    <glyph glyph-name="uhungarumlaut" unicode="&#x171;" 
d="M60 204v280h151v-280q0 -105 62 -105q9 0 20.5 2.5t29.5 10t29.5 27t11.5 48.5v297h151v-484h-145v68q-13 -27 -35 -45.5t-45 -25t-35 -8.5t-21 -2q-31 0 -60 11t-55.5 35t-42.5 68t-16 103zM119 565l72 154h139l-109 -154h-102zM299 565l72 154h139l-109 -154h-102z" />
    <glyph glyph-name="Uogonek" unicode="&#x172;" horiz-adv-x="720" 
d="M400 -11q-56 -88 -11 -87q10 0 24 4l47 13v-95q-39 -18 -82 -23q-65 -6 -95.5 28.5t-10.5 96.5q9 30 33 64q-118 13 -179 86t-61 226v372h156v-374q0 -100 33 -148t106 -48q74 0 107.5 48t33.5 148v374h154v-372q0 -158 -65 -231t-190 -82z" />
    <glyph glyph-name="uogonek" unicode="&#x173;" 
d="M60 204v280h151v-280q0 -105 62 -105q9 0 20.5 2.5t29.5 10t29.5 27t11.5 48.5v297h151v-484h-49q-71 -105 -15 -99q8 1 20 5l47 13v-95q-39 -18 -82 -23q-65 -6 -95.5 28.5t-10.5 96.5q13 38 40 74v68q-13 -27 -35 -45.5t-45 -25t-35 -8.5t-21 -2q-31 0 -60 11t-55.5 35
t-42.5 68t-16 103z" />
    <glyph glyph-name="Wcircumflex" unicode="&#x174;" horiz-adv-x="962" 
d="M554 651l119 -465l118 488h161l-206 -674h-145l-119 468l-120 -468h-145l-207 674h159l121 -488l119 465h145zM411 919h138l110 -167h-128l-52 88l-48 -88h-129z" />
    <glyph glyph-name="wcircumflex" unicode="&#x175;" horiz-adv-x="811" 
d="M10 484h158l82 -316l81 316h150l82 -314l82 314h156l-168 -484h-132l-95 305l-94 -305h-133zM336 729h138l110 -167h-128l-52 88l-48 -88h-129z" />
    <glyph glyph-name="Ycircumflex" unicode="&#x176;" horiz-adv-x="695" 
d="M427 0h-158v237l-259 437h177l161 -312l159 312h178l-258 -436v-238zM278 919h138l110 -167h-128l-52 88l-48 -88h-129z" />
    <glyph glyph-name="ycircumflex" unicode="&#x177;" horiz-adv-x="578" 
d="M86 -164l12 103q43 -23 63 -17q20 5 32 35l25 60q-173 389 -208 467h158l124 -325l117 325h159l-249 -585q-11 -26 -31 -44.5t-43 -26t-39.5 -10.5t-30.5 -3q-30 0 -89 21zM219 729h138l110 -167h-128l-52 88l-48 -88h-129z" />
    <glyph glyph-name="Ydieresis" unicode="&#x178;" horiz-adv-x="695" 
d="M427 0h-158v237l-259 437h177l161 -312l159 312h178l-258 -436v-238zM191 759v116h135v-116h-135zM368 759v116h135v-116h-135z" />
    <glyph glyph-name="Zacute" unicode="&#x179;" horiz-adv-x="615" 
d="M574 0h-549v107l366 450h-350v117h549v-104l-371 -451h355v-119zM232 744l95 154h153l-132 -154h-116z" />
    <glyph glyph-name="zacute" unicode="&#x17a;" horiz-adv-x="490" 
d="M25 0v91l257 287h-248v106h431v-91l-256 -287h248v-106h-432zM166 554l95 154h153l-132 -154h-116z" />
    <glyph glyph-name="Zdotaccent" unicode="&#x17b;" horiz-adv-x="615" 
d="M574 0h-549v107l366 450h-350v117h549v-104l-371 -451h355v-119zM231 775v123h152v-123h-152z" />
    <glyph glyph-name="zdotaccent" unicode="&#x17c;" horiz-adv-x="490" 
d="M25 0v91l257 287h-248v106h431v-91l-256 -287h248v-106h-432zM169 585v123h152v-123h-152z" />
    <glyph glyph-name="Zcaron" unicode="&#x17d;" horiz-adv-x="615" 
d="M574 0h-549v107l366 450h-350v117h549v-104l-371 -451h355v-119zM377 731h-138l-110 167h128l52 -88l48 88h129z" />
    <glyph glyph-name="zcaron" unicode="&#x17e;" horiz-adv-x="490" 
d="M25 0v91l257 287h-248v106h431v-91l-256 -287h248v-106h-432zM314 541h-138l-110 167h128l52 -88l48 88h129z" />
    <glyph glyph-name="longs" unicode="&#x17f;" horiz-adv-x="313" 
d="M16 484h55v39q0 47 13.5 80t30.5 48.5t43 24t38.5 9t30.5 0.5h5q47 0 101 -30l-23 -83q-33 13 -60 13q-29 0 -29 -46v-539h-151l1 389h-55v95z" />
    <glyph glyph-name="florin" unicode="&#x192;" horiz-adv-x="581" 
d="M126 -23l101 404h-54l23 93h55l10 36q40 159 192 156h4q44 0 99 -33l-23 -92q-42 19 -79 19q-27 0 -41 -51l-9 -35h86l-23 -93h-86l-103 -404q-42 -158 -194 -158q-46 0 -99 33l21 94q47 -19 80 -19q17 0 27 16t13 34z" />
    <glyph glyph-name="Aringacute" unicode="&#x1fa;" horiz-adv-x="722" 
d="M172 0h-162l279 674h143l280 -674h-163l-60 154h-259zM361 525l-87 -261h172zM248 833q0 45 27.5 74.5t84.5 29.5q59 0 85.5 -29t26.5 -75q0 -104 -112 -104q-58 0 -85 29.5t-27 74.5zM390 833q0 37 -31 37t-31 -37q0 -38 31 -38t31 38zM295 968l95 154h153l-132 -154
h-116z" />
    <glyph glyph-name="aringacute" unicode="&#x1fb;" horiz-adv-x="531" 
d="M476 0h-150v64q-16 -38 -59 -55t-86 -17q-51 0 -101 39t-50 116q0 74 79 120.5t220 56.5v8q0 57 -60 62q-6 1 -12 1q-56 0 -108 -21q-24 -10 -42 -21l-42 90q10 6 28.5 15.5t73.5 25.5t108 16h13t28 -3t40 -8t41.5 -17.5t40 -29.5t27 -45t11.5 -63v-334zM153 644
q0 45 27.5 74.5t84.5 29.5q59 0 85.5 -29t26.5 -75q0 -104 -112 -104q-58 0 -85 29.5t-27 74.5zM295 644q0 37 -31 37t-31 -37q0 -38 31 -38t31 38zM200 779l95 154h153l-132 -154h-116zM226 97q14 0 35 4.5t44.5 24t23.5 49.5v65q-68 -4 -113 -29.5t-45 -58.5q0 -23 16 -39
t39 -16z" />
    <glyph glyph-name="AEacute" unicode="&#x1fc;" horiz-adv-x="964" 
d="M427 557l-127 -293h127v293zM582 117h337v-117h-492v148h-173l-72 -148h-172l338 674h564v-117h-329v-159h306v-117h-307v-164zM358 744l95 154h153l-132 -154h-116z" />
    <glyph glyph-name="aeacute" unicode="&#x1fd;" horiz-adv-x="860" 
d="M340 554l95 154h153l-132 -154h-116zM590 -12q-129 0 -200 88q-59 -84 -169 -84q-48 0 -89 13.5t-71.5 50t-30.5 91.5q0 74 79 120.5t220 56.5v8q0 57 -60 62q-6 1 -12 1q-56 0 -108 -21q-24 -10 -42 -21l-42 90q10 6 28.5 15.5t73.5 25.5t108 16q97 0 153 -50
q62 48 152 48q127 0 192 -87t49 -214h-345v-8q21 -97 140 -97q77 0 147 36l32 -88q-83 -52 -205 -52zM226 97q14 0 35 4.5t44.5 24t23.5 49.5v64q-158 -25 -158 -87q0 -23 16 -39t39 -16zM476 289h215q0 47 -34.5 74.5t-72.5 27.5q-34 0 -68.5 -26.5t-39.5 -75.5z" />
    <glyph glyph-name="Oslashacute" unicode="&#x1fe;" horiz-adv-x="753" 
d="M315 744l95 154h153l-132 -154h-116zM236 180l235 360q-39 30 -95 30q-85 0 -130.5 -67t-45.5 -166q0 -94 36 -157zM82 -55l74 112q-116 93 -116 280q0 163 90 255.5t246 92.5q92 0 167 -36l45 69h87l-71 -108q109 -92 109 -273q0 -164 -90 -257t-247 -93q-89 0 -158 31
l-49 -73h-87zM520 482l-232 -356q38 -24 88 -24q86 0 131.5 65.5t45.5 169.5q0 88 -33 145z" />
    <glyph glyph-name="oslashacute" unicode="&#x1ff;" horiz-adv-x="566" 
d="M223 554l95 154h153l-132 -154h-116zM391 480l32 50h88l-57 -87q82 -69 82 -200q0 -118 -67 -187t-182 -69q-63 0 -115 23l-36 -54h-87l62 95q-71 68 -71 192q0 118 66.5 186.5t180.5 68.5q57 0 104 -18zM373 318l-134 -205q20 -17 48 -17q45 0 72 44.5t27 102.5
q0 42 -13 75zM197 183l128 195q-17 11 -38 11q-45 0 -71 -43.5t-26 -102.5q0 -35 7 -60z" />
    <glyph glyph-name="Scommaaccent" unicode="&#x218;" horiz-adv-x="605" 
d="M300 685q78 0 132.5 -20.5t114.5 -66.5l-44 -101q-108 67 -196 67q-42 0 -70.5 -15t-35.5 -35.5t7.5 -43.5t49.5 -37l178 -67q139 -51 139 -171q0 -97 -75.5 -152.5t-180.5 -55.5q-82 0 -146 25q-92 34 -143 81l51 107q41 -37 109 -65.5t130 -28.5q38 0 69 18.5t31 53.5
q0 47 -47 65l-181 70q-75 30 -109.5 75.5t-34.5 94.5q0 94 71 148t181 54zM128 -230l102 192h154l-135 -192h-121z" />
    <glyph glyph-name="scommaaccent" unicode="&#x219;" horiz-adv-x="473" 
d="M247 98q39 0 52 27q12 35 -21 47l-127 48q-61 26 -84 58.5t-23 75.5q0 65 53.5 104.5t138.5 39.5q55 0 95.5 -14t99.5 -54l-44 -88q-74 52 -146 52q-38 0 -47 -28t52 -52l80 -30q74 -24 103 -83.5t-1 -123.5q-21 -40 -69 -65t-111 -25q-49 0 -106 19q-66 23 -112 65
l56 93q72 -66 161 -66zM74 -230l102 192h154l-135 -192h-121z" />
    <glyph glyph-name="hsuperior" unicode="&#x2b0;" horiz-adv-x="369" 
d="M334 637v-179h-112v179q0 58 -28 58q-8 0 -17.5 -3.5t-19.5 -17t-10 -35.5v-181h-112v426h112v-149q26 41 71 41q116 0 116 -139z" />
    <glyph glyph-name="jsuperior" unicode="&#x2b2;" horiz-adv-x="183" 
d="M152 767v-318q0 -106 -107 -106q-33 0 -80 24l16 65l39 -10q4 -1 7 -1q5 -1 7.5 1t3.5 8.5t1.5 10.5t0.5 11v315h112zM41 802v82h112v-82h-112z" />
    <glyph glyph-name="wsuperior" unicode="&#x2b7;" horiz-adv-x="528" 
d="M10 770h117l41 -175l52 175h89l51 -173l41 173h117l-108 -312h-95l-51 179l-48 -179h-98z" />
    <glyph glyph-name="ysuperior" unicode="&#x2b8;" horiz-adv-x="388" 
d="M59 363l10 70q10 -8 39 -8q12 0 18 19l14 34l-1 3l-129 289h117l68 -180l66 180h117l-157 -367q-14 -30 -44 -42.5t-53 -12.5q-20 0 -65 15z" />
    <glyph glyph-name="circumflex" unicode="&#x2c6;" horiz-adv-x="457" 
d="M159 729h138l110 -167h-128l-52 88l-48 -88h-129z" />
    <glyph glyph-name="caron" unicode="&#x2c7;" horiz-adv-x="437" 
d="M288 562h-138l-110 167h128l52 -88l48 88h129z" />
    <glyph glyph-name="breve" unicode="&#x2d8;" horiz-adv-x="392" 
d="M197 563q-81 0 -119 44.5t-38 121.5h94q2 -40 15 -55.5t47 -15.5t47 16t15 55h94q0 -76 -38 -121t-117 -45z" />
    <glyph glyph-name="dotaccent" unicode="&#x2d9;" horiz-adv-x="212" 
d="M30 585v123h152v-123h-152z" />
    <glyph glyph-name="ring" unicode="&#x2da;" horiz-adv-x="304" 
d="M40 665q0 45 27.5 74.5t84.5 29.5q59 0 85.5 -29t26.5 -75q0 -104 -112 -104q-58 0 -85 29.5t-27 74.5zM182 665q0 37 -31 37t-31 -37q0 -38 31 -38t31 38z" />
    <glyph glyph-name="ogonek" unicode="&#x2db;" horiz-adv-x="276" 
d="M96 10h95q-81 -115 -21 -108q8 1 19 4l47 13v-95q-39 -18 -82 -23q-65 -6 -95.5 28.5t-10.5 96.5q17 50 48 84z" />
    <glyph glyph-name="tilde" unicode="&#x2dc;" horiz-adv-x="377" 
d="M151 601q-10 0 -19 -10.5t-11 -31.5h-91q4 70 25.5 106t79.5 36q24 0 51 -16q32 -17 42 -17q9 0 18.5 12t7.5 28h93q-3 -68 -25.5 -105t-80.5 -37q-21 0 -51 18q-28 17 -39 17z" />
    <glyph glyph-name="hungarumlaut" unicode="&#x2dd;" horiz-adv-x="471" 
d="M40 565l72 154h139l-109 -154h-102zM220 565l72 154h139l-109 -154h-102z" />
    <glyph glyph-name="xsuperior" unicode="&#x2e3;" horiz-adv-x="394" 
d="M248 770h125l-111 -154l122 -158h-128l-59 99l-59 -99h-128l121 158l-112 154h126l50 -93z" />
    <glyph glyph-name="Omega" unicode="&#x3a9;" horiz-adv-x="702" 
d="M351 566q-60 0 -100.5 -31.5t-56 -75t-15.5 -94.5q0 -98 30 -162.5t109 -86.5v-116h-276v116h113q-53 25 -84 100t-31 149q0 142 83 229t228 87t228 -87t83 -229q0 -74 -31 -149t-84 -100h113v-116h-276v116q79 22 109 86.5t30 162.5q0 51 -15.5 94.5t-56 75t-100.5 31.5
z" />
    <glyph glyph-name="Omega" unicode="&#x2126;" horiz-adv-x="702" 
d="M351 566q-60 0 -100.5 -31.5t-56 -75t-15.5 -94.5q0 -98 30 -162.5t109 -86.5v-116h-276v116h113q-53 25 -84 100t-31 149q0 142 83 229t228 87t228 -87t83 -229q0 -74 -31 -149t-84 -100h113v-116h-276v116q79 22 109 86.5t30 162.5q0 51 -15.5 94.5t-56 75t-100.5 31.5
z" />
    <glyph glyph-name="pi" unicode="&#x3c0;" horiz-adv-x="670" 
d="M403 0v376h-131v-376h-137v376h-95v108h590v-108h-90v-376h-137z" />
    <glyph glyph-name="Wgrave" unicode="&#x1e80;" horiz-adv-x="962" 
d="M554 651l119 -465l118 488h161l-206 -674h-145l-119 468l-120 -468h-145l-207 674h159l121 -488l119 465h145zM460 898l95 -154h-116l-132 154h153z" />
    <glyph glyph-name="wgrave" unicode="&#x1e81;" horiz-adv-x="811" 
d="M10 484h158l82 -316l81 316h150l82 -314l82 314h156l-168 -484h-132l-95 305l-94 -305h-133zM366 708l95 -154h-116l-132 154h153z" />
    <glyph glyph-name="Wacute" unicode="&#x1e82;" horiz-adv-x="962" 
d="M554 651l119 -465l118 488h161l-206 -674h-145l-119 468l-120 -468h-145l-207 674h159l121 -488l119 465h145zM408 744l95 154h153l-132 -154h-116z" />
    <glyph glyph-name="wacute" unicode="&#x1e83;" horiz-adv-x="811" 
d="M10 484h158l82 -316l81 316h150l82 -314l82 314h156l-168 -484h-132l-95 305l-94 -305h-133zM343 554l95 154h153l-132 -154h-116z" />
    <glyph glyph-name="Wdieresis" unicode="&#x1e84;" horiz-adv-x="962" 
d="M554 651l119 -465l118 488h161l-206 -674h-145l-119 468l-120 -468h-145l-207 674h159l121 -488l119 465h145zM325 759v116h135v-116h-135zM502 759v116h135v-116h-135z" />
    <glyph glyph-name="wdieresis" unicode="&#x1e85;" horiz-adv-x="811" 
d="M10 484h158l82 -316l81 316h150l82 -314l82 314h156l-168 -484h-132l-95 305l-94 -305h-133zM249 569v116h135v-116h-135zM426 569v116h135v-116h-135z" />
    <glyph glyph-name="Ygrave" unicode="&#x1ef2;" horiz-adv-x="695" 
d="M427 0h-158v237l-259 437h177l161 -312l159 312h178l-258 -436v-238zM332 898l95 -154h-116l-132 154h153z" />
    <glyph glyph-name="ygrave" unicode="&#x1ef3;" horiz-adv-x="578" 
d="M86 -164l12 103q43 -23 63 -17q20 5 32 35l25 60q-173 389 -208 467h158l124 -325l117 325h159l-249 -585q-11 -26 -31 -44.5t-43 -26t-39.5 -10.5t-30.5 -3q-30 0 -89 21zM289 708l95 -154h-116l-132 154h153z" />
    <glyph glyph-name="endash" unicode="&#x2013;" horiz-adv-x="587" 
d="M40 317h507v-119h-507v119z" />
    <glyph glyph-name="emdash" unicode="&#x2014;" horiz-adv-x="752" 
d="M40 317h672v-118h-672v118z" />
    <glyph glyph-name="quoteleft" unicode="&#x2018;" horiz-adv-x="377" 
d="M327 674l-123 -238h-154l153 238h124z" />
    <glyph glyph-name="quoteright" unicode="&#x2019;" horiz-adv-x="377" 
d="M50 436l123 238h154l-153 -238h-124z" />
    <glyph glyph-name="quotesinglbase" unicode="&#x201a;" horiz-adv-x="357" 
d="M40 -108l123 238h154l-153 -238h-124z" />
    <glyph glyph-name="quotedblleft" unicode="&#x201c;" horiz-adv-x="589" 
d="M416 674l123 -238h-124l-153 238h154zM204 674l123 -238h-124l-153 238h154z" />
    <glyph glyph-name="quotedblright" unicode="&#x201d;" horiz-adv-x="589" 
d="M50 436l123 238h154l-153 -238h-124zM262 436l123 238h154l-153 -238h-124z" />
    <glyph glyph-name="quotedblbase" unicode="&#x201e;" horiz-adv-x="569" 
d="M40 -108l123 238h154l-153 -238h-124zM252 -108l123 238h154l-153 -238h-124z" />
    <glyph glyph-name="dagger" unicode="&#x2020;" horiz-adv-x="501" 
d="M461 418h-150v-418h-122v418h-149v88h149v168h122v-168h150v-88z" />
    <glyph glyph-name="daggerdbl" unicode="&#x2021;" horiz-adv-x="501" 
d="M461 440h-150v-193h150v-88h-150v-159h-122v159h-149v88h149v193h-149v88h149v146h122v-146h150v-88z" />
    <glyph glyph-name="bullet" unicode="&#x2022;" horiz-adv-x="372" 
d="M50 300q0 51 39 86.5t96 35.5t97 -35.5t40 -86.5t-40 -86.5t-97 -35.5t-96 35.5t-39 86.5z" />
    <glyph glyph-name="ellipsis" unicode="&#x2026;" horiz-adv-x="697" 
d="M50 0v130h152v-130h-152zM273 0v130h151v-130h-151zM497 0v130h150v-130h-150z" />
    <glyph glyph-name="perthousand" unicode="&#x2030;" horiz-adv-x="1204" 
d="M40 492q0 77 42.5 120.5t117.5 43.5t118.5 -43.5t43.5 -120.5q0 -78 -43.5 -122t-118.5 -44q-74 0 -117 44t-43 122zM254 492q0 33 -14 54.5t-40 21.5q-25 0 -38.5 -21.5t-13.5 -54.5t13.5 -54.5t38.5 -21.5q26 0 40 22t14 54zM457 155q0 77 42.5 120.5t117.5 43.5
t118.5 -43.5t43.5 -120.5q0 -78 -43.5 -122t-118.5 -44q-74 0 -117 44t-43 122zM671 155q0 33 -14 54.5t-40 21.5q-25 0 -38.5 -21.5t-13.5 -54.5t13.5 -54.5t38.5 -21.5q26 0 40 22t14 54zM160 0l398 674h89l-397 -674h-90zM842 155q0 77 42.5 120.5t117.5 43.5
t118.5 -43.5t43.5 -120.5q0 -78 -43.5 -122t-118.5 -44q-74 0 -117 44t-43 122zM1056 155q0 33 -14 54.5t-40 21.5q-25 0 -38.5 -21.5t-13.5 -54.5t13.5 -54.5t38.5 -21.5q26 0 40 22t14 54z" />
    <glyph glyph-name="guilsinglleft" unicode="&#x2039;" horiz-adv-x="368" 
d="M185 325l133 -232h-137l-131 232l131 232h137z" />
    <glyph glyph-name="guilsinglright" unicode="&#x203a;" horiz-adv-x="368" 
d="M50 93l133 232l-133 232h137l131 -232l-131 -232h-137z" />
    <glyph glyph-name="fraction" unicode="&#x2044;" horiz-adv-x="574" 
d="M47 0l398 674h73l-397 -674h-74z" />
    <glyph glyph-name="zerosuperior" unicode="&#x2070;" horiz-adv-x="375" 
d="M186 460q-69 0 -109.5 52.5t-40.5 142.5q0 91 40.5 143.5t109.5 52.5q72 0 112.5 -52.5t40.5 -143.5t-40.5 -143t-112.5 -52zM186 778q-26 0 -41 -37t-15 -86t15 -85.5t41 -36.5q28 0 43.5 36t15.5 86t-15.5 86.5t-43.5 36.5z" />
    <glyph glyph-name="foursuperior" unicode="&#x2074;" horiz-adv-x="362" 
d="M275 467l-96 1v76h-160v56q28 63 73.5 129.5t93.5 115.5h89v-235h50v-66h-50v-77zM95 610h84v128q-65 -83 -84 -128z" />
    <glyph glyph-name="fivesuperior" unicode="&#x2075;" horiz-adv-x="367" 
d="M239 599q0 23 -14 40t-42 17q-38 0 -56 -27h-77q8 42 20 119t15 98h216v-75h-148l-12 -78q31 31 85 31q36 0 68.5 -34.5t32.5 -91.5q0 -69 -46 -104.5t-109 -35.5q-80 0 -132 58q6 10 18.5 29.5t18.5 28.5q39 -39 91 -39q37 0 54 18.5t17 45.5z" />
    <glyph glyph-name="sixsuperior" unicode="&#x2076;" horiz-adv-x="368" 
d="M306 816l-22 -53q-27 17 -71 17h-4q-24 0 -44.5 -24.5t-28.5 -76.5q14 14 23 21.5t25 14t34 6.5q44 0 77 -36t33 -94q0 -62 -39.5 -96.5t-102.5 -34.5q-45 0 -76 18t-45 47.5t-19.5 57t-5.5 58.5q0 100 44.5 155t117.5 55q55 0 104 -35zM185 531q21 0 32.5 19t11.5 41
t-11.5 41t-32.5 19q-19 0 -30.5 -16.5t-11.5 -39.5q0 -29 11 -46.5t31 -17.5z" />
    <glyph glyph-name="sevensuperior" unicode="&#x2077;" horiz-adv-x="366" 
d="M40 767v78h286v-61q-102 -131 -161 -317h-106q69 182 172 300h-191z" />
    <glyph glyph-name="eightsuperior" unicode="&#x2078;" horiz-adv-x="367" 
d="M184 460q-70 0 -108 33t-38 81q0 60 56 88q-44 33 -44 83t41.5 77.5t92.5 27.5q54 0 94 -28.5t40 -76.5q0 -49 -45 -83q56 -28 56 -88q0 -48 -37 -81t-108 -33zM183 528q23 0 38 16t15 34q0 54 -53 54q-50 0 -50 -54q0 -20 15 -35t35 -15zM183 692q24 0 35.5 14.5
t11.5 31.5q0 18 -12 32.5t-34 14.5q-20 0 -34 -14.5t-14 -30.5q0 -19 11.5 -33.5t35.5 -14.5z" />
    <glyph glyph-name="ninesuperior" unicode="&#x2079;" horiz-adv-x="368" 
d="M63 494l21 54q27 -17 71 -17h4q24 0 45.5 24.5t27.5 76.5q-14 -14 -23 -21.5t-25 -14t-34 -6.5q-44 0 -77 36t-33 94q0 61 39.5 96t102.5 35q45 0 76 -18t45 -48t19.5 -57.5t5.5 -57.5q0 -100 -44.5 -155t-117.5 -55q-54 0 -103 34zM183 780q-21 0 -32 -19t-11 -41
t11 -41.5t32 -19.5q19 0 31 17t12 40q0 28 -11.5 46t-31.5 18z" />
    <glyph glyph-name="nsuperior" unicode="&#x207f;" horiz-adv-x="364" 
d="M334 637v-179h-112v179q0 60 -28 60q-15 0 -31 -14t-16 -45v-180h-112v310h108v-41q15 28 37.5 39t39.5 11q56 0 85 -32t29 -108z" />
    <glyph glyph-name="zeroinferior" unicode="&#x2080;" horiz-adv-x="375" 
d="M186 -177q-69 0 -109.5 52.5t-40.5 142.5q0 91 40.5 143.5t109.5 52.5q72 0 112.5 -52.5t40.5 -143.5t-40.5 -143t-112.5 -52zM186 141q-26 0 -41 -37t-15 -86t15 -85.5t41 -36.5q28 0 43.5 36t15.5 86t-15.5 86.5t-43.5 36.5z" />
    <glyph glyph-name="oneinferior" unicode="&#x2081;" horiz-adv-x="276" 
d="M72 57l-42 45l104 106h78v-378h-95v268z" />
    <glyph glyph-name="twoinferior" unicode="&#x2082;" horiz-adv-x="385" 
d="M191 129q-22 0 -46.5 -14t-39.5 -30q-6 7 -21 24t-24 26q53 71 134 71q58 0 97.5 -33.5t39.5 -87.5q0 -21 -8 -39t-28.5 -35t-32.5 -24.5t-41 -25.5q-32 -20 -69 -57h173v-74h-271v48q0 29 17.5 55.5t36 40.5t53.5 37q76 44 76 76q0 16 -12 29t-34 13z" />
    <glyph glyph-name="threeinferior" unicode="&#x2083;" horiz-adv-x="344" 
d="M161 -176q-83 0 -144 57l39 51q46 -39 90 -39q31 0 45 14.5t14 32.5q0 19 -11.5 33.5t-33.5 14.5h-59v66h57q19 0 31.5 15t12.5 31q0 17 -13 31t-35 14q-54 0 -88 -38q-7 7 -19 22.5t-20 24.5q60 60 133 60q59 0 96.5 -29.5t37.5 -83.5q0 -46 -62 -78q33 -8 50.5 -31.5
t17.5 -50.5q0 -53 -41 -85t-98 -32z" />
    <glyph glyph-name="fourinferior" unicode="&#x2084;" horiz-adv-x="362" 
d="M275 -170h-96v77h-160v56q28 63 73.5 129.5t93.5 115.5h89v-235h50v-66h-50v-77zM95 -27h84v128q-65 -83 -84 -128z" />
    <glyph glyph-name="fiveinferior" unicode="&#x2085;" horiz-adv-x="367" 
d="M239 -38q0 23 -14 40t-42 17q-38 0 -56 -27h-77q8 42 20 119t15 98h216v-75h-148l-12 -78q31 31 85 31q36 0 68.5 -34.5t32.5 -91.5q0 -69 -46 -104.5t-109 -35.5q-80 0 -132 58q7 10 19 29.5t18 28.5q39 -39 91 -39q37 0 54 18.5t17 45.5z" />
    <glyph glyph-name="sixinferior" unicode="&#x2086;" horiz-adv-x="368" 
d="M306 179l-22 -53q-27 17 -71 17h-4q-24 0 -44.5 -24.5t-28.5 -76.5q14 14 23 21.5t25 14t34 6.5q44 0 77 -36t33 -94q0 -62 -39.5 -96.5t-102.5 -34.5q-45 0 -76 18t-45 47.5t-19.5 57t-5.5 58.5q0 100 44.5 155t117.5 55q55 0 104 -35zM185 -106q21 0 32.5 19t11.5 41
t-11.5 41t-32.5 19q-19 0 -30.5 -16.5t-11.5 -39.5q0 -29 11 -46.5t31 -17.5z" />
    <glyph glyph-name="seveninferior" unicode="&#x2087;" horiz-adv-x="366" 
d="M40 130v78h286v-61q-102 -131 -161 -317h-106q69 182 172 300h-191z" />
    <glyph glyph-name="eightinferior" unicode="&#x2088;" horiz-adv-x="367" 
d="M184 -177q-70 0 -108 33t-38 81q0 60 56 88q-44 33 -44 83t41.5 77.5t92.5 27.5q54 0 94 -28.5t40 -76.5q0 -49 -45 -83q56 -28 56 -88q0 -48 -37 -81t-108 -33zM183 -109q23 0 38 16t15 34q0 54 -53 54q-50 0 -50 -54q0 -20 15 -35t35 -15zM183 55q24 0 35.5 14.5
t11.5 31.5q0 18 -12 32.5t-34 14.5q-20 0 -34 -14.5t-14 -30.5q0 -19 11.5 -33.5t35.5 -14.5z" />
    <glyph glyph-name="nineinferior" unicode="&#x2089;" horiz-adv-x="368" 
d="M63 -143l21 54q27 -17 71 -17h4q24 0 45.5 24.5t27.5 76.5q-14 -14 -23 -21.5t-25 -14t-34 -6.5q-44 0 -77 36t-33 94q0 61 39.5 96t102.5 35q45 0 76 -18t45 -48t19.5 -57.5t5.5 -57.5q0 -100 -44.5 -155t-117.5 -55q-54 0 -103 34zM183 143q-21 0 -32 -19t-11 -41
t11 -41.5t32 -19.5q19 0 31 17t12 40q0 28 -11.5 46t-31.5 18z" />
    <glyph glyph-name="Euro" unicode="&#x20ac;" horiz-adv-x="696" 
d="M22 213l36 83h74q0 4 1.5 26t1.5 28h-115l40 83h86q28 108 113.5 170.5t215.5 62.5q110 0 181 -48l-46 -94q-48 31 -115 31q-149 0 -194 -122h281l-46 -83h-254q0 -8 -1 -29.5t-1 -24.5h240l-46 -83h-168q25 -51 73 -81.5t116 -30.5q61 0 110 33l43 -98q-85 -47 -173 -47
q-124 0 -209 60.5t-116 163.5h-128z" />
    <glyph glyph-name="afii61289" unicode="&#x2113;" horiz-adv-x="360" 
d="M330 508v-142q0 -47 -13.5 -83.5t-32.5 -56t-42 -31.5t-38 -15t-26 -3h-23v-37q0 -50 49 -50q30 0 95 20l12 -92q-31 -15 -71.5 -22t-57.5 -7h-3q-16 0 -28.5 1t-37 9t-41 23.5t-29.5 49t-13 79.5v357q0 46 13.5 79.5t30 49t42 24t37.5 9t29 0.5h3q14 0 26 -1t36 -10
t40.5 -24.5t29.5 -48.5t13 -78zM204 356v163q0 21 -5.5 40t-18.5 19q-12 0 -18.5 -20t-6.5 -39v-244q21 7 35 29t14 52z" />
    <glyph glyph-name="trademark" unicode="&#x2122;" horiz-adv-x="829" 
d="M351 605h-125v-330h-91v330h-120v69h445l100 -292l101 292h104l24 -399h-89l-11 261l-92 -261h-73l-91 260l-12 -260h-90z" />
    <glyph glyph-name="estimated" unicode="&#x212e;" horiz-adv-x="678" 
d="M613 282h-429v-193q68 -63 152 -63q76 0 122 32.5t88 94.5l31 -19q-43 -68 -98.5 -104.5t-142.5 -36.5q-119 0 -195 84.5t-76 205.5q0 123 75 206.5t200 83.5q124 0 198.5 -84.5t74.5 -206.5zM493 315v163q-68 62 -153 62q-96 0 -156 -62v-163h309z" />
    <glyph glyph-name="onethird" unicode="&#x2153;" horiz-adv-x="785" 
d="M126 0l398 674h73l-397 -674h-74zM105 523l-42 45l104 106h78v-378h-95v268zM583 -6q-83 0 -144 57l39 51q46 -39 90 -39q31 0 45 14.5t14 32.5q0 19 -11.5 33.5t-33.5 14.5h-59v66h57q19 0 31.5 15t12.5 31q0 17 -13 31t-35 14q-54 0 -88 -38q-7 7 -19 22.5t-20 24.5
q60 60 133 60q59 0 96.5 -29.5t37.5 -83.5q0 -46 -62 -78q33 -8 50.5 -31.5t17.5 -50.5q0 -53 -41 -85t-98 -32z" />
    <glyph glyph-name="twothirds" unicode="&#x2154;" horiz-adv-x="800" 
d="M178 0l398 674h73l-397 -674h-74zM635 -6q-83 0 -144 57l39 51q46 -39 90 -39q31 0 45 14.5t14 32.5q0 19 -11.5 33.5t-33.5 14.5h-59v66h57q19 0 31.5 15t12.5 31q0 17 -13 31t-35 14q-54 0 -88 -38q-7 7 -19 22.5t-20 24.5q60 60 133 60q59 0 96.5 -29.5t37.5 -83.5
q0 -46 -62 -78q33 -8 50.5 -31.5t17.5 -50.5q0 -53 -41 -85t-98 -32zM162 595q-22 0 -46.5 -14t-39.5 -30q-6 7 -21 24t-24 26q53 71 134 71q58 0 97.5 -33.5t39.5 -87.5q0 -21 -8 -39t-28.5 -35t-32.5 -24.5t-41 -25.5q-32 -20 -69 -57h173v-74h-271v48q0 29 17.5 55.5
t36 40.5t53.5 37q76 44 76 76q0 16 -12 29t-34 13z" />
    <glyph glyph-name="oneeighth" unicode="&#x215b;" horiz-adv-x="770" 
d="M121 0l398 674h73l-397 -674h-74zM577 -7q-70 0 -108 33t-38 81q0 60 56 88q-44 33 -44 83t41.5 77.5t92.5 27.5q54 0 94 -28.5t40 -76.5q0 -49 -45 -83q56 -28 56 -88q0 -48 -37 -81t-108 -33zM576 61q23 0 38 16t15 34q0 54 -53 54q-50 0 -50 -54q0 -20 15 -35t35 -15z
M576 225q24 0 35.5 14.5t11.5 31.5q0 18 -12 32.5t-34 14.5q-20 0 -34 -14.5t-14 -30.5q0 -19 11.5 -33.5t35.5 -14.5zM90 523l-42 45l104 106h78v-378h-95v268z" />
    <glyph glyph-name="threeeighths" unicode="&#x215c;" horiz-adv-x="835" 
d="M175 0l398 674h73l-397 -674h-74zM631 -7q-70 0 -108 33t-38 81q0 60 56 88q-44 33 -44 83t41.5 77.5t92.5 27.5q54 0 94 -28.5t40 -76.5q0 -49 -45 -83q56 -28 56 -88q0 -48 -37 -81t-108 -33zM630 61q23 0 38 16t15 34q0 54 -53 54q-50 0 -50 -54q0 -20 15 -35t35 -15z
M630 225q24 0 35.5 14.5t11.5 31.5q0 18 -12 32.5t-34 14.5q-20 0 -34 -14.5t-14 -30.5q0 -19 11.5 -33.5t35.5 -14.5zM203 290q-83 0 -144 57l39 51q46 -39 90 -39q31 0 45 14.5t14 32.5q0 19 -11.5 33.5t-33.5 14.5h-59v66h57q19 0 31.5 15t12.5 31q0 17 -13 31t-35 14
q-54 0 -88 -38q-7 7 -19 22.5t-20 24.5q60 60 133 60q59 0 96.5 -29.5t37.5 -83.5q0 -46 -62 -78q33 -8 50.5 -31.5t17.5 -50.5q0 -53 -41 -85t-98 -32z" />
    <glyph glyph-name="fiveeighths" unicode="&#x215d;" horiz-adv-x="840" 
d="M181 0l398 674h73l-397 -674h-74zM257 428q0 23 -14 40t-42 17q-38 0 -56 -27h-77q8 42 20 119t15 98h216v-75h-148l-12 -78q31 31 85 31q36 0 68.5 -34.5t32.5 -91.5q0 -69 -46 -104.5t-109 -35.5q-80 0 -132 58q7 10 19 29.5t18 28.5q39 -39 91 -39q37 0 54 18.5
t17 45.5zM637 -7q-70 0 -108 33t-38 81q0 60 56 88q-44 33 -44 83t41.5 77.5t92.5 27.5q54 0 94 -28.5t40 -76.5q0 -49 -45 -83q56 -28 56 -88q0 -48 -37 -81t-108 -33zM636 61q23 0 38 16t15 34q0 54 -53 54q-50 0 -50 -54q0 -20 15 -35t35 -15zM636 225q24 0 35.5 14.5
t11.5 31.5q0 18 -12 32.5t-34 14.5q-20 0 -34 -14.5t-14 -30.5q0 -19 11.5 -33.5t35.5 -14.5z" />
    <glyph glyph-name="seveneighths" unicode="&#x215e;" horiz-adv-x="762" 
d="M110 0l398 674h73l-397 -674h-74zM566 -7q-70 0 -108 33t-38 81q0 60 56 88q-44 33 -44 83t41.5 77.5t92.5 27.5q54 0 94 -28.5t40 -76.5q0 -49 -45 -83q56 -28 56 -88q0 -48 -37 -81t-108 -33zM565 61q23 0 38 16t15 34q0 54 -53 54q-50 0 -50 -54q0 -20 15 -35t35 -15z
M565 225q24 0 35.5 14.5t11.5 31.5q0 18 -12 32.5t-34 14.5q-20 0 -34 -14.5t-14 -30.5q0 -19 11.5 -33.5t35.5 -14.5zM51 596v78h286v-61q-102 -131 -161 -317h-106q69 182 172 300h-191z" />
    <glyph glyph-name="arrowleft" unicode="&#x2190;" horiz-adv-x="765" 
d="M327 351h393v-80h-393v-131l-282 171l282 172v-132z" />
    <glyph glyph-name="arrowup" unicode="&#x2191;" horiz-adv-x="763" 
d="M342 0v393h-132l172 282l171 -282h-131v-393h-80z" />
    <glyph glyph-name="arrowright" unicode="&#x2192;" horiz-adv-x="765" 
d="M45 351h393v132l282 -172l-282 -171v131h-393v80z" />
    <glyph glyph-name="arrowdown" unicode="&#x2193;" horiz-adv-x="763" 
d="M342 281v393h80v-393h131l-171 -282l-172 282h132z" />
    <glyph glyph-name="partialdiff" unicode="&#x2202;" horiz-adv-x="626" 
d="M327 554q-34 0 -78 -14.5t-80 -41.5l-26 87q117 76 220 76q124 0 179.5 -94.5t18.5 -267.5q-8 -41 -21 -78.5t-38 -82t-57.5 -76.5t-83.5 -53.5t-113 -21.5q-105 0 -158.5 59.5t-32.5 163.5q22 100 97.5 161t168.5 61q26 0 60.5 -13t46.5 -41q9 79 -21 127.5t-82 48.5z
M272 94q40 0 70.5 34.5t42.5 87.5q10 46 -6 79t-56 33q-44 0 -75 -37.5t-41 -80.5q-10 -42 6 -79t59 -37z" />
    <glyph glyph-name="Delta" unicode="&#x2206;" horiz-adv-x="782" 
d="M40 0l279 674h143l280 -674h-702zM391 525l-147 -409h293z" />
    <glyph glyph-name="product" unicode="&#x220f;" horiz-adv-x="670" 
d="M403 0v566h-131v-566h-137v566h-95v108h590v-108h-90v-566h-137z" />
    <glyph glyph-name="summation" unicode="&#x2211;" horiz-adv-x="602" 
d="M552 -149h-502v92l211 319l-211 322v90h502v-119h-313l191 -293l-191 -292h313v-119z" />
    <glyph glyph-name="minus" unicode="&#x2212;" horiz-adv-x="496" 
d="M40 405h416v-127h-416v127z" />
    <glyph glyph-name="radical" unicode="&#x221a;" horiz-adv-x="652" 
d="M287 0l-116 362h-151v122h258l74 -279l88 292l51 166h141l-220 -663h-125z" />
    <glyph glyph-name="infinity" unicode="&#x221e;" horiz-adv-x="746" 
d="M534 161q-48 0 -90.5 23.5t-70.5 61.5q-27 -39 -69.5 -62t-91.5 -23q-84 0 -128 45t-44 107q0 63 44 107.5t128 44.5q48 0 90.5 -23t70.5 -60q28 37 70.5 60t90.5 23q84 0 128 -44.5t44 -107.5q0 -62 -44 -107t-128 -45zM217 265q25 0 47 14t34 34q-12 20 -34 34.5
t-47 14.5q-61 0 -61 -49q0 -48 61 -48zM528 265q60 0 60 48q0 49 -60 49q-25 0 -46.5 -14t-33.5 -35q27 -48 80 -48z" />
    <glyph glyph-name="integral" unicode="&#x222b;" horiz-adv-x="424" 
d="M136 0l1 523q0 47 13.5 80t30.5 48.5t43 24t38.5 9t30.5 0.5h5q47 0 101 -30l-23 -83q-33 13 -60 13q-29 0 -29 -46v-568q0 -47 -13.5 -80t-30.5 -48.5t-43 -24t-38.5 -9t-30.5 -0.5h-5q-47 0 -101 30l23 83q33 -13 60 -13q29 0 29 46v45h-1z" />
    <glyph glyph-name="approxequal" unicode="&#x2248;" horiz-adv-x="520" 
d="M191 417q17 0 41 -10t42.5 -19.5t38 -13.5t35.5 9.5t26 48.5h106q0 -83 -37.5 -124.5t-117.5 -41.5q-17 0 -41.5 10.5t-44 20t-39.5 13.5t-34.5 -10t-22.5 -50h-103q0 87 35.5 127t115.5 40zM191 221q17 0 41 -10t42.5 -19.5t38 -13.5t35.5 9.5t26 48.5h106
q0 -83 -37.5 -124.5t-117.5 -41.5q-17 0 -41.5 10.5t-44 20t-39.5 13.5t-34.5 -10t-22.5 -50h-103q0 87 35.5 127t115.5 40z" />
    <glyph glyph-name="notequal" unicode="&#x2260;" horiz-adv-x="524" 
d="M58 0l80 167h-98v104h148l45 92h-193v104h243l100 207h89l-100 -207h112v-104h-162l-44 -92h206v-104h-256l-80 -167h-90z" />
    <glyph glyph-name="lessequal" unicode="&#x2264;" horiz-adv-x="615" 
d="M565 675v-137l-320 -125l320 -126v-135l-515 228v67zM51 119h514v-119h-514v119z" />
    <glyph glyph-name="greaterequal" unicode="&#x2265;" horiz-adv-x="615" 
d="M50 538v137l515 -228v-67l-515 -228v135l320 126zM50 119h514v-119h-514v119z" />
    <glyph glyph-name="triangleright" unicode="&#x22b2;" horiz-adv-x="466" 
d="M60 125v420l346 -210z" />
    <glyph glyph-name="triangleleft" unicode="&#x22b3;" horiz-adv-x="466" 
d="M406 545v-420l-346 210z" />
    <glyph glyph-name="uni2318" unicode="&#x2318;" horiz-adv-x="701" 
d="M241 156v67h-68q-28 0 -47 -19.5t-19 -47.5t19.5 -48.5t47.5 -20.5t47.5 20.5t19.5 48.5zM241 440v68q0 29 -19 48.5t-47 19.5t-48 -19.5t-20 -48.5q0 -28 20 -48t48 -20h66zM289 269h124v125h-124v-125zM594 156q0 28 -18.5 47.5t-46.5 19.5h-68v-67q0 -28 19.5 -48.5
t47.5 -20.5q27 0 46.5 20.5t19.5 48.5zM594 508q0 29 -19 48.5t-47 19.5t-47.5 -19.5t-19.5 -48.5v-68h68q27 0 46 20t19 48zM641 156q0 -47 -33.5 -81t-79.5 -34q-47 0 -81 34t-34 81v67h-124v-67q0 -47 -34 -81t-81 -34t-80.5 34t-33.5 81q0 46 33.5 79.5t80.5 33.5h67
v125h-66q-47 0 -81 33.5t-34 80.5t34 80.5t81 33.5t80.5 -33.5t33.5 -80.5v-68h124v68q0 47 34 80.5t81 33.5q46 0 79.5 -33.5t33.5 -80.5q0 -46 -33.5 -80t-79.5 -34h-67v-125h67q46 0 79.5 -33.5t33.5 -79.5z" />
    <glyph glyph-name="blacksquare" unicode="&#x25a0;" horiz-adv-x="539" 
d="M60 91v419h419v-419h-419z" />
    <glyph glyph-name="lozenge" unicode="&#x25ca;" horiz-adv-x="568" 
d="M307 -1h-46l-221 337l221 338h46l221 -338zM284 507l-105 -171l105 -168l105 168z" />
    <glyph glyph-name="circlesolid" unicode="&#x25cf;" horiz-adv-x="536" 
d="M60 302q0 86 61 147t147 61t147 -61t61 -147t-61 -147t-147 -61t-147 61t-61 147z" />
    <glyph glyph-name="blackstar" unicode="&#x2605;" horiz-adv-x="687" 
d="M627 400l-176 -128l68 -206l-176 127l-175 -127l67 206l-175 128h216l67 206l67 -206h217z" />
    <glyph glyph-name="diamond" unicode="&#x2666;" horiz-adv-x="621" 
d="M561 331l-251 -250l-250 250l250 251z" />
    <glyph glyph-name="s_t" unicode="&#xfb06;" horiz-adv-x="846" 
d="M247 98q39 0 52 27q12 35 -21 47l-127 48q-61 26 -84 58.5t-23 75.5q0 65 53.5 104.5t138.5 39.5q18 0 26 -1l-1 21q0 44 12.5 76t28 46.5t38.5 23t34 9.5t24 1h314v-190h102v-94h-102v-251q0 -10 1 -15.5t4 -13.5t12 -12t24 -4q20 0 68 20l5 -98q-56 -28 -102 -28
q-21 0 -33.5 0.5t-39.5 9t-43.5 24t-30.5 48.5t-14 80v240h-78v94h78v108h-135q-35 0 -50.5 -20t-15.5 -43q-5 -24 9 -63q27 -14 60 -36l-44 -88q-74 52 -146 52q-38 0 -47 -28t52 -52l80 -30q74 -24 103 -83.5t-1 -123.5q-21 -40 -69 -65t-111 -25q-49 0 -106 19
q-66 23 -112 65l56 93q72 -66 161 -66z" />
    <glyph glyph-name="CR" horiz-adv-x="278" 
 />
    <glyph glyph-name="_224" horiz-adv-x="0" 
 />
    <glyph glyph-name="Imacron" horiz-adv-x="284" 
d="M65 0v674h154v-674h-154zM9 773v102h267v-102h-267z" />
    <glyph glyph-name="kcommaaccent" horiz-adv-x="533" 
d="M320 296l208 -296h-168l-135 213l-14 -14v-199h-151v674h151v-323l117 133h177zM106 -230l102 192h154l-135 -192h-121z" />
    <glyph glyph-name="zero.taboldstyle" horiz-adv-x="580" 
d="M288 -8q-100 0 -159 65t-59 176t59.5 176.5t158.5 65.5q103 0 162.5 -65.5t59.5 -176.5q0 -112 -59 -176.5t-163 -64.5zM288 367q-33 0 -55 -40.5t-22 -93.5q0 -55 21.5 -94.5t55.5 -39.5q36 0 59 39.5t23 94.5q0 53 -23 93.5t-59 40.5z" />
    <glyph glyph-name="one.taboldstyle" horiz-adv-x="580" 
d="M90 0v109h138v224l-105 -63l-53 83l180 114h123v-358h136v-109h-419z" />
    <glyph glyph-name="two.taboldstyle" horiz-adv-x="580" 
d="M288 360q-34 0 -73 -19t-59 -39l-73 72q24 21 38 31.5t42 27.5t60.5 25t69.5 8q88 0 149 -42t61 -110q0 -22 -11 -42.5t-23 -34t-41 -31.5t-42.5 -25t-49.5 -25q-65 -31 -90 -47h256v-109h-425v64q0 96 168 177q3 2 21 9.5t30 14t27.5 15.5t23.5 18.5t8 18.5q0 43 -67 43
z" />
    <glyph glyph-name="six.taboldstyle" horiz-adv-x="580" 
d="M495 607l-34 -88q-52 35 -126 35q-55 0 -99.5 -49t-40.5 -127q19 28 55 41t63 13q93 0 156 -61t63 -161q0 -103 -66.5 -163t-171.5 -60q-62 0 -108.5 21.5t-72 53.5t-41.5 76.5t-20.5 82t-4.5 78.5q0 173 75.5 267.5t199.5 94.5q93 0 173 -54zM292 94q44 0 67 36.5
t23 79.5t-23.5 80.5t-67.5 37.5q-40 0 -63 -33t-23 -79q0 -53 23.5 -87.5t63.5 -34.5z" />
    <glyph glyph-name="eight.taboldstyle" horiz-adv-x="580" 
d="M300 -13q-121 0 -183.5 55.5t-62.5 137.5q0 45 26 91t87 66q-46 20 -69.5 62t-23.5 85q0 73 51 115t124 56q32 4 51 4q32 0 52 -4q73 -14 123 -55.5t50 -115.5q0 -43 -23 -85t-69 -62q61 -19 87 -65.5t26 -91.5q0 -82 -63 -137.5t-183 -55.5zM300 102q46 0 73 24.5
t27 59.5q0 45 -25 70.5t-75 26.5q-49 -1 -73.5 -26.5t-24.5 -70.5q0 -40 28.5 -62t69.5 -22zM298 401q37 0 59.5 19t22.5 54q0 75 -80 75t-80 -73q0 -37 21 -56t57 -19z" />
    <glyph glyph-name="three.taboldstyle" horiz-adv-x="580" 
d="M294 -201q-143 0 -242 93l57 88q76 -69 150 -69q118 0 118 84q0 36 -24 62.5t-68 26.5h-86v115h82q42 0 65 24t23 56q0 33 -22 57.5t-61 24.5q-101 0 -159 -69l-57 83q11 15 32.5 34t74 40.5t114.5 21.5q98 0 162 -50.5t64 -139.5q0 -39 -24 -79.5t-72 -56.5
q49 -13 78 -61t29 -87q0 -89 -69.5 -143.5t-164.5 -54.5z" />
    <glyph glyph-name="four.taboldstyle" horiz-adv-x="580" 
d="M461 -190l-146 1v120h-285v103q50 115 128 228t164 198h139v-417h89v-113h-89v-120zM161 43h154v237q-104 -111 -154 -237z" />
    <glyph glyph-name="five.taboldstyle" horiz-adv-x="580" 
d="M398 33q0 45 -27.5 79t-83.5 34q-68 0 -98 -48h-123l59 363h360v-120h-252l-21 -124q49 33 106 35.5t104 -22t78 -77t31 -121.5q0 -80 -40 -135.5t-97.5 -79t-124.5 -23.5q-134 0 -221 95l60 99q73 -77 153 -77q72 0 104.5 36t32.5 86z" />
    <glyph glyph-name="seven.taboldstyle" horiz-adv-x="580" 
d="M49 342v118h481v-94q-99 -126 -163.5 -258.5t-117.5 -297.5h-164q131 340 295 532h-331z" />
    <glyph glyph-name="nine.taboldstyle" horiz-adv-x="580" 
d="M84 -149l34 88q52 -35 126 -35q55 0 100.5 50.5t39.5 125.5q-19 -28 -55 -41t-63 -13q-93 0 -156 61t-63 161q0 103 66.5 163t171.5 60q62 0 108.5 -21.5t72 -53.5t41.5 -76.5t20.5 -82t4.5 -78.5q0 -173 -75.5 -267.5t-199.5 -94.5q-93 0 -173 54zM287 364
q-44 0 -67 -36.5t-23 -79.5t23.5 -80.5t67.5 -37.5q40 0 63 33t23 79q0 53 -23.5 87.5t-63.5 34.5z" />
    <glyph glyph-name="zero.titling" horiz-adv-x="614" 
d="M304 -13q-117 0 -186 90.5t-69 246.5t69 246.5t186 90.5q122 0 191 -90t69 -247t-69 -247t-191 -90zM304 551q-52 0 -81.5 -68t-29.5 -159q0 -93 29.5 -160t81.5 -67q55 0 85 66.5t30 160.5q0 92 -30.5 159.5t-84.5 67.5z" />
    <glyph glyph-name="one.titling" horiz-adv-x="405" 
d="M85 387l-67 87l173 176h123v-650h-145v478z" />
    <glyph glyph-name="two.titling" horiz-adv-x="600" 
d="M297 526q-43 0 -84.5 -25t-63.5 -53l-69 82q49 52 82 74q65 42 140 42q97 0 164 -56.5t67 -147.5q0 -36 -15 -67t-46 -58t-56.5 -44.5t-69.5 -42.5q-54 -32 -92.5 -63t-42.5 -48h311v-119h-456v74q0 75 51 132.5t137 111.5q62 36 96 65q41 35 41 64q0 32 -25.5 55.5
t-68.5 23.5z" />
    <glyph glyph-name="three.titling" horiz-adv-x="544" 
d="M249 -11q-143 0 -242 93l57 88q76 -69 150 -69q118 0 118 84q0 36 -24 62.5t-68 26.5h-86v115h82q42 0 65 24t23 56q0 33 -22 57.5t-61 24.5q-101 0 -159 -69l-57 83q11 15 32.5 34t74 40.5t114.5 21.5q98 0 162 -50.5t64 -139.5q0 -39 -24 -79.5t-72 -56.5
q49 -13 78 -61t29 -87q0 -89 -69.5 -143.5t-164.5 -54.5z" />
    <glyph glyph-name="four.titling" horiz-adv-x="577" 
d="M463 0l-146 1v120h-285v103q50 115 128 228t164 198h139v-417h89v-113h-89v-120zM163 233h154v237q-104 -111 -154 -237z" />
    <glyph glyph-name="five.titling" horiz-adv-x="578" 
d="M397 223q0 45 -27.5 79t-83.5 34q-68 0 -98 -48h-123l59 363h360v-120h-252l-21 -124q49 33 106 35.5t104 -22t78 -77t31 -121.5q0 -80 -40 -135.5t-97.5 -79t-124.5 -23.5q-134 0 -221 95l60 99q73 -77 153 -77q72 0 104.5 36t32.5 86z" />
    <glyph glyph-name="six.titling" horiz-adv-x="578" 
d="M495 607l-34 -88q-52 35 -126 35q-55 0 -99.5 -49t-40.5 -127q19 28 55 41t63 13q93 0 156 -61t63 -161q0 -103 -66.5 -163t-171.5 -60q-62 0 -108.5 21.5t-72 53.5t-41.5 76.5t-20.5 82t-4.5 78.5q0 173 75.5 267.5t199.5 94.5q93 0 173 -54zM292 94q44 0 67 36.5
t23 79.5t-23.5 80.5t-67.5 37.5q-40 0 -63 -33t-23 -79q0 -53 23.5 -87.5t63.5 -34.5z" />
    <glyph glyph-name="seven.titling" horiz-adv-x="534" 
d="M26 532v118h481v-94q-99 -126 -163.5 -258.5t-117.5 -297.5h-164q131 340 295 532h-331z" />
    <glyph glyph-name="eight.titling" horiz-adv-x="570" 
d="M286 -13q-121 0 -183.5 55.5t-62.5 137.5q0 45 26 91t87 66q-46 20 -69.5 62t-23.5 85q0 73 51 115t124 56q32 4 51 4q32 0 52 -4q73 -14 123 -55.5t50 -115.5q0 -43 -23 -85t-69 -62q61 -19 87 -65.5t26 -91.5q0 -82 -63 -137.5t-183 -55.5zM286 102q46 0 73 24.5
t27 59.5q0 45 -25 70.5t-75 26.5q-49 -1 -73.5 -26.5t-24.5 -70.5q0 -40 28.5 -62t69.5 -22zM284 401q37 0 59.5 19t22.5 54q0 75 -80 75t-80 -73q0 -37 21 -56t57 -19z" />
    <glyph glyph-name="nine.titling" horiz-adv-x="570" 
d="M79 41l34 88q52 -35 126 -35q55 0 100.5 50.5t39.5 125.5q-19 -28 -55 -41t-63 -13q-93 0 -156 61t-63 161q0 103 66.5 163t171.5 60q62 0 108.5 -21.5t72 -53.5t41.5 -76.5t20.5 -82t4.5 -78.5q0 -173 -75.5 -267.5t-199.5 -94.5q-93 0 -173 54zM282 554
q-44 0 -67 -36.5t-23 -79.5t23.5 -80.5t67.5 -37.5q40 0 63 33t23 79q0 53 -23.5 87.5t-63.5 34.5z" />
    <glyph glyph-name="zero.denominator" horiz-adv-x="375" 
d="M186 -7q-69 0 -109.5 52.5t-40.5 142.5q0 91 40.5 143.5t109.5 52.5q72 0 112.5 -52.5t40.5 -143.5t-40.5 -143t-112.5 -52zM186 311q-26 0 -41 -37t-15 -86t15 -85.5t41 -36.5q28 0 43.5 36t15.5 86t-15.5 86.5t-43.5 36.5z" />
    <glyph glyph-name="one.denominator" horiz-adv-x="276" 
d="M72 227l-42 45l104 106h78v-378h-95v268z" />
    <glyph glyph-name="two.denominator" horiz-adv-x="385" 
d="M191 299q-22 0 -46.5 -14t-39.5 -30q-6 7 -21 24t-24 26q53 71 134 71q58 0 97.5 -33.5t39.5 -87.5q0 -21 -8 -39t-28.5 -35t-32.5 -24.5t-41 -25.5q-32 -20 -69 -57h173v-74h-271v48q0 29 17.5 55.5t36 40.5t53.5 37q76 44 76 76q0 16 -12 29t-34 13z" />
    <glyph glyph-name="three.denominator" horiz-adv-x="344" 
d="M161 -6q-83 0 -144 57l39 51q46 -39 90 -39q31 0 45 14.5t14 32.5q0 19 -11.5 33.5t-33.5 14.5h-59v66h57q19 0 31.5 15t12.5 31q0 17 -13 31t-35 14q-54 0 -88 -38q-7 7 -19 22.5t-20 24.5q60 60 133 60q59 0 96.5 -29.5t37.5 -83.5q0 -46 -62 -78q33 -8 50.5 -31.5
t17.5 -50.5q0 -53 -41 -85t-98 -32z" />
    <glyph glyph-name="four.denominator" horiz-adv-x="362" 
d="M275 0l-96 1v76h-160v56q28 63 73.5 129.5t93.5 115.5h89v-235h50v-66h-50v-77zM95 143h84v128q-65 -83 -84 -128z" />
    <glyph glyph-name="five.denominator" horiz-adv-x="370" 
d="M240 132q0 23 -14 40t-42 17q-38 0 -56 -27h-77q8 42 20 119t15 98h216v-75h-148l-12 -78q31 31 85 31q36 0 68.5 -34.5t32.5 -91.5q0 -69 -46 -104.5t-109 -35.5q-80 0 -132 58q6 10 18 29.5t19 28.5q39 -39 91 -39q37 0 54 18.5t17 45.5z" />
    <glyph glyph-name="six.denominator" horiz-adv-x="369" 
d="M306 349l-22 -53q-27 17 -71 17h-4q-24 0 -44.5 -24.5t-28.5 -76.5q14 14 23 21.5t25 14t34 6.5q44 0 77 -36t33 -94q0 -62 -39.5 -96.5t-102.5 -34.5q-45 0 -76 18t-45 47.5t-19.5 57t-5.5 58.5q0 100 44.5 155t117.5 55q55 0 104 -35zM185 64q21 0 32.5 19t11.5 41
t-11.5 41t-32.5 19q-19 0 -30.5 -16.5t-11.5 -39.5q0 -29 11 -46.5t31 -17.5z" />
    <glyph glyph-name="seven.denominator" horiz-adv-x="367" 
d="M40 300v78h286v-61q-102 -131 -161 -317h-106q69 182 172 300h-191z" />
    <glyph glyph-name="eight.denominator" horiz-adv-x="367" 
d="M184 -7q-70 0 -108 33t-38 81q0 60 56 88q-44 33 -44 83t41.5 77.5t92.5 27.5q54 0 94 -28.5t40 -76.5q0 -49 -45 -83q56 -28 56 -88q0 -48 -37 -81t-108 -33zM183 61q23 0 38 16t15 34q0 54 -53 54q-50 0 -50 -54q0 -20 15 -35t35 -15zM183 225q24 0 35.5 14.5
t11.5 31.5q0 18 -12 32.5t-34 14.5q-20 0 -34 -14.5t-14 -30.5q0 -19 11.5 -33.5t35.5 -14.5z" />
    <glyph glyph-name="nine.denominator" horiz-adv-x="367" 
d="M62 27l21 54q27 -17 71 -17h4q24 0 45.5 24.5t27.5 76.5q-14 -14 -23 -21.5t-25 -14t-34 -6.5q-44 0 -77 36t-33 94q0 61 39.5 96t102.5 35q45 0 76 -18t45 -48t19.5 -57.5t5.5 -57.5q0 -100 -44.5 -155t-117.5 -55q-54 0 -103 34zM182 313q-21 0 -32 -19t-11 -41
t11 -41.5t32 -19.5q19 0 31 17t12 40q0 28 -11.5 46t-31.5 18z" />
    <glyph glyph-name="zero.numerator" horiz-adv-x="375" 
d="M186 289q-69 0 -109.5 52.5t-40.5 142.5q0 91 40.5 143.5t109.5 52.5q72 0 112.5 -52.5t40.5 -143.5t-40.5 -143t-112.5 -52zM186 607q-26 0 -41 -37t-15 -86t15 -85.5t41 -36.5q28 0 43.5 36t15.5 86t-15.5 86.5t-43.5 36.5z" />
    <glyph glyph-name="one.numerator" horiz-adv-x="276" 
d="M72 523l-42 45l104 106h78v-378h-95v268z" />
    <glyph glyph-name="two.numerator" horiz-adv-x="385" 
d="M191 595q-22 0 -46.5 -14t-39.5 -30q-6 7 -21 24t-24 26q53 71 134 71q58 0 97.5 -33.5t39.5 -87.5q0 -21 -8 -39t-28.5 -35t-32.5 -24.5t-41 -25.5q-32 -20 -69 -57h173v-74h-271v48q0 29 17.5 55.5t36 40.5t53.5 37q76 44 76 76q0 16 -12 29t-34 13z" />
    <glyph glyph-name="three.numerator" horiz-adv-x="344" 
d="M161 290q-83 0 -144 57l39 51q46 -39 90 -39q31 0 45 14.5t14 32.5q0 19 -11.5 33.5t-33.5 14.5h-59v66h57q19 0 31.5 15t12.5 31q0 17 -13 31t-35 14q-54 0 -88 -38q-7 7 -19 22.5t-20 24.5q60 60 133 60q59 0 96.5 -29.5t37.5 -83.5q0 -46 -62 -78q33 -8 50.5 -31.5
t17.5 -50.5q0 -53 -41 -85t-98 -32z" />
    <glyph glyph-name="four.numerator" horiz-adv-x="362" 
d="M275 296l-96 1v76h-160v56q28 63 73.5 129.5t93.5 115.5h89v-235h50v-66h-50v-77zM95 439h84v128q-65 -83 -84 -128z" />
    <glyph glyph-name="five.numerator" horiz-adv-x="370" 
d="M240 428q0 23 -14 40t-42 17q-38 0 -56 -27h-77q8 42 20 119t15 98h216v-75h-148l-12 -78q31 31 85 31q36 0 68.5 -34.5t32.5 -91.5q0 -69 -46 -104.5t-109 -35.5q-80 0 -132 58q7 10 18.5 29.5t18.5 28.5q39 -39 91 -39q37 0 54 18.5t17 45.5z" />
    <glyph glyph-name="six.numerator" horiz-adv-x="369" 
d="M306 645l-22 -53q-27 17 -71 17h-4q-24 0 -44.5 -24.5t-28.5 -76.5q14 14 23 21.5t25 14t34 6.5q44 0 77 -36t33 -94q0 -62 -39.5 -96.5t-102.5 -34.5q-45 0 -76 18t-45 47.5t-19.5 57t-5.5 58.5q0 100 44.5 155t117.5 55q55 0 104 -35zM185 360q21 0 32.5 19t11.5 41
t-11.5 41t-32.5 19q-19 0 -30.5 -16.5t-11.5 -39.5q0 -29 11 -46.5t31 -17.5z" />
    <glyph glyph-name="seven.numerator" horiz-adv-x="367" 
d="M40 596v78h286v-61q-102 -131 -161 -317h-106q69 182 172 300h-191z" />
    <glyph glyph-name="eight.numerator" horiz-adv-x="367" 
d="M184 289q-70 0 -108 33t-38 81q0 60 56 88q-44 33 -44 83t41.5 77.5t92.5 27.5q54 0 94 -28.5t40 -76.5q0 -49 -45 -83q56 -28 56 -88q0 -48 -37 -81t-108 -33zM183 357q23 0 38 16t15 34q0 54 -53 54q-50 0 -50 -54q0 -20 15 -35t35 -15zM183 521q24 0 35.5 14.5
t11.5 31.5q0 18 -12 32.5t-34 14.5q-20 0 -34 -14.5t-14 -30.5q0 -19 11.5 -33.5t35.5 -14.5z" />
    <glyph glyph-name="nine.numerator" horiz-adv-x="367" 
d="M62 323l21 54q27 -17 71 -17h4q24 0 45.5 24.5t27.5 76.5q-14 -14 -23 -21.5t-25 -14t-34 -6.5q-44 0 -77 36t-33 94q0 61 39.5 96t102.5 35q45 0 76 -18t45 -48t19.5 -57.5t5.5 -57.5q0 -100 -44.5 -155t-117.5 -55q-54 0 -103 34zM182 609q-21 0 -32 -19t-11 -41
t11 -41.5t32 -19.5q19 0 31 17t12 40q0 28 -11.5 46t-31.5 18z" />
    <glyph glyph-name="a.alt" 
d="M364 432v52h151v-484h-150v55q-11 -20 -30 -35t-38 -21.5t-31.5 -9t-18.5 -2.5q-97 0 -154.5 65t-57.5 190q0 123 55 189.5t138 66.5q95 0 136 -66zM290 386q-100 0 -100 -144q0 -60 20 -101.5t64 -41.5q90 0 90 76v129q0 31 -16 51t-31 25.5t-27 5.5z" />
    <glyph glyph-name="aacute.alt" 
d="M218 554l95 154h153l-132 -154h-116zM364 432v52h151v-484h-150v55q-11 -20 -30 -35t-38 -21.5t-31.5 -9t-18.5 -2.5q-97 0 -154.5 65t-57.5 190q0 123 55 189.5t138 66.5q95 0 136 -66zM290 386q-100 0 -100 -144q0 -60 20 -101.5t64 -41.5q90 0 90 76v129q0 31 -16 51
t-31 25.5t-27 5.5z" />
    <glyph glyph-name="agrave.alt" 
d="M268 708l95 -154h-116l-132 154h153zM364 432v52h151v-484h-150v55q-11 -20 -30 -35t-38 -21.5t-31.5 -9t-18.5 -2.5q-97 0 -154.5 65t-57.5 190q0 123 55 189.5t138 66.5q95 0 136 -66zM290 386q-100 0 -100 -144q0 -60 20 -101.5t64 -41.5q90 0 90 76v129q0 31 -16 51
t-31 25.5t-27 5.5z" />
    <glyph glyph-name="acircumflex.alt" 
d="M221 729h138l110 -167h-128l-52 88l-48 -88h-129zM364 432v52h151v-484h-150v55q-11 -20 -30 -35t-38 -21.5t-31.5 -9t-18.5 -2.5q-97 0 -154.5 65t-57.5 190q0 123 55 189.5t138 66.5q95 0 136 -66zM290 386q-100 0 -100 -144q0 -60 20 -101.5t64 -41.5q90 0 90 76v129
q0 31 -16 51t-31 25.5t-27 5.5z" />
    <glyph glyph-name="adieresis.alt" 
d="M134 569v116h135v-116h-135zM311 569v116h135v-116h-135zM364 432v52h151v-484h-150v55q-11 -20 -30 -35t-38 -21.5t-31.5 -9t-18.5 -2.5q-97 0 -154.5 65t-57.5 190q0 123 55 189.5t138 66.5q95 0 136 -66zM290 386q-100 0 -100 -144q0 -60 20 -101.5t64 -41.5
q90 0 90 76v129q0 31 -16 51t-31 25.5t-27 5.5z" />
    <glyph glyph-name="atilde.alt" 
d="M250 601q-10 0 -19 -10.5t-11 -31.5h-91q4 70 25.5 106t79.5 36q24 0 51 -16q32 -17 42 -17q9 0 18.5 12t7.5 28h93q-3 -68 -25.5 -105t-80.5 -37q-21 0 -51 18q-28 17 -39 17zM364 432v52h151v-484h-150v55q-11 -20 -30 -35t-38 -21.5t-31.5 -9t-18.5 -2.5
q-97 0 -154.5 65t-57.5 190q0 123 55 189.5t138 66.5q95 0 136 -66zM290 386q-100 0 -100 -144q0 -60 20 -101.5t64 -41.5q90 0 90 76v129q0 31 -16 51t-31 25.5t-27 5.5z" />
    <glyph glyph-name="aring.alt" 
d="M184 665q0 45 27.5 74.5t84.5 29.5q59 0 85.5 -29t26.5 -75q0 -104 -112 -104q-58 0 -85 29.5t-27 74.5zM326 665q0 37 -31 37t-31 -37q0 -38 31 -38t31 38zM364 432v52h151v-484h-150v55q-11 -20 -30 -35t-38 -21.5t-31.5 -9t-18.5 -2.5q-97 0 -154.5 65t-57.5 190
q0 123 55 189.5t138 66.5q95 0 136 -66zM290 386q-100 0 -100 -144q0 -60 20 -101.5t64 -41.5q90 0 90 76v129q0 31 -16 51t-31 25.5t-27 5.5z" />
    <glyph glyph-name="abreve.alt" 
d="M287 563q-81 0 -119 44.5t-38 121.5h94q2 -40 15 -55.5t47 -15.5t47 16t15 55h94q0 -76 -38 -121t-117 -45zM364 432v52h151v-484h-150v55q-11 -20 -30 -35t-38 -21.5t-31.5 -9t-18.5 -2.5q-97 0 -154.5 65t-57.5 190q0 123 55 189.5t138 66.5q95 0 136 -66zM290 386
q-100 0 -100 -144q0 -60 20 -101.5t64 -41.5q90 0 90 76v129q0 31 -16 51t-31 25.5t-27 5.5z" />
    <glyph glyph-name="amacron.alt" 
d="M162 583v102h267v-102h-267zM364 432v52h151v-484h-150v55q-11 -20 -30 -35t-38 -21.5t-31.5 -9t-18.5 -2.5q-97 0 -154.5 65t-57.5 190q0 123 55 189.5t138 66.5q95 0 136 -66zM290 386q-100 0 -100 -144q0 -60 20 -101.5t64 -41.5q90 0 90 76v129q0 31 -16 51t-31 25.5
t-27 5.5z" />
    <glyph glyph-name="aogonek.alt" 
d="M462 0h-1q-71 -105 -15 -99q8 1 20 5l47 13v-95q-39 -18 -82 -23q-65 -6 -95.5 28.5t-10.5 96.5q13 38 40 74v55q-11 -20 -30 -35t-38 -21.5t-31.5 -9t-18.5 -2.5q-97 0 -154.5 65t-57.5 190q0 123 55 189.5t138 66.5q95 0 136 -66v52h151v-484h-53zM290 386
q-100 0 -100 -144q0 -60 20 -101.5t64 -41.5q90 0 90 76v129q0 31 -16 51t-31 25.5t-27 5.5z" />
    <glyph glyph-name="aringacute.alt" 
d="M184 644q0 45 27.5 74.5t84.5 29.5q59 0 85.5 -29t26.5 -75q0 -104 -112 -104q-58 0 -85 29.5t-27 74.5zM326 644q0 37 -31 37t-31 -37q0 -38 31 -38t31 38zM231 779l95 154h153l-132 -154h-116zM364 432v52h151v-484h-150v55q-11 -20 -30 -35t-38 -21.5t-31.5 -9
t-18.5 -2.5q-97 0 -154.5 65t-57.5 190q0 123 55 189.5t138 66.5q95 0 136 -66zM290 386q-100 0 -100 -144q0 -60 20 -101.5t64 -41.5q90 0 90 76v129q0 31 -16 51t-31 25.5t-27 5.5z" />
    <glyph glyph-name="T_h" horiz-adv-x="1154" 
d="M1094 282v-282h-151v282q0 104 -62 104q-12 0 -25 -4t-29 -13.5t-26.5 -31.5t-10.5 -53v-284h-151v557h-273v-557h-154v557h-202v117h780v-251q21 40 61 57.5t70 17.5q173 0 173 -216z" />
    <glyph glyph-name="c_t" horiz-adv-x="865" 
d="M282 498l-2 20q0 44 12.5 76t28 46.5t38.5 23t34 9.5t24 1h314v-190h102v-94h-102v-251q0 -10 1 -15.5t4 -13.5t12 -12t24 -4q20 0 68 20l5 -98q-56 -28 -102 -28q-21 0 -33.5 0.5t-39.5 9t-43.5 24t-30.5 48.5t-14 80v240h-78v94h78v108h-135q-35 0 -50.5 -20t-15.5 -43
q0 -25 8 -46q45 -12 73 -25l-30 -97q-46 24 -124 24q-62 0 -93 -41t-31 -102t31 -101.5t93 -40.5q68 0 124 23l30 -97q-80 -39 -170 -39q-119 0 -188 68.5t-69 186.5q0 115 66.5 184.5t180.5 71.5z" />
    <glyph glyph-name="asuperior" horiz-adv-x="339" 
d="M304 458h-112v39q-28 -43 -90 -43q-31 0 -59 25t-28 77q0 88 179 102q0 42 -34 42q-36 0 -66 -11q-16 -5 -30 -12l-32 58q0 2 17 11.5t51.5 20.5t70.5 11q8 0 17.5 -0.5t32 -6t39.5 -15.5t30.5 -32.5t13.5 -53.5v-212zM141 526q8 0 18.5 2.5t22.5 13t12 26.5v33
q-77 -13 -77 -50q0 -25 24 -25z" />
    <glyph glyph-name="bsuperior" horiz-adv-x="358" 
d="M142 884v-149q30 41 74 41q54 0 90.5 -42t36.5 -121q0 -81 -32.5 -122t-88.5 -41q-22 0 -46 10.5t-35 29.5v-32h-111v426h112zM178 694q-6 0 -13 -3t-15 -13.5t-8 -26.5v-80q0 -39 46 -39q42 0 42 81t-52 81z" />
    <glyph glyph-name="csuperior" horiz-adv-x="321" 
d="M20 614q0 76 44.5 120t122.5 44q61 0 114 -29l-22 -74q-36 20 -83 20q-33 0 -49.5 -23t-16.5 -58q0 -34 16.5 -57t49.5 -23q36 0 83 18l22 -73q-52 -28 -114 -28q-78 0 -122.5 44t-44.5 119z" />
    <glyph glyph-name="dsuperior" horiz-adv-x="358" 
d="M216 735v149h112v-426h-111v32q-11 -19 -35 -29.5t-46 -10.5q-56 0 -88.5 41t-32.5 122q0 79 36.5 121t90.5 42q44 0 74 -41zM180 694q-52 0 -52 -81t42 -81q46 0 46 39v80q0 16 -8 26.5t-15 13.5t-13 3z" />
    <glyph glyph-name="esuperior" horiz-adv-x="358" 
d="M186 452q-78 0 -122 47t-44 115q0 71 43 117.5t116 46.5q74 0 116.5 -46t42.5 -116q0 -4 -1.5 -16.5t-1.5 -19.5h-209q12 -51 75 -51q50 0 97 25l23 -65q-53 -37 -135 -37zM125 644h112q-7 53 -55 53q-50 0 -57 -53z" />
    <glyph glyph-name="fsuperior" horiz-adv-x="203" 
d="M7 768h33v17q0 30 9 52t20.5 32t29 15.5t26 6t20.5 0.5h3q31 0 72 -22l-16 -59q-14 9 -33.5 7.5t-19.5 -22.5v-27h54v-68h-54v-242h-111v242h-33v68z" />
    <glyph glyph-name="gsuperior" horiz-adv-x="365" 
d="M181 533q13 0 25 10t12 32v81q0 41 -47 41q-42 0 -42 -82t52 -82zM223 452v33q-23 -33 -62 -33q-56 0 -101 43t-45 120q0 78 34 120.5t82 42.5q61 0 87 -40v31h112v-315q0 -58 -44 -83t-109 -25q-38 0 -75 11t-55 26l22 64q45 -30 98 -30q19 0 28 1t18 9.5t10 24.5z" />
    <glyph glyph-name="isuperior" horiz-adv-x="182" 
d="M35 458v311h112v-311h-112zM35 802v82h112v-82h-112z" />
    <glyph glyph-name="ksuperior" horiz-adv-x="348" 
d="M210 645l133 -187h-124l-76 120v-120h-113v426h113v-188l55 73h123z" />
    <glyph glyph-name="lsuperior" horiz-adv-x="182" 
d="M35 458v426h112v-426h-112z" />
    <glyph glyph-name="msuperior" horiz-adv-x="517" 
d="M206 458v188q0 49 -29 49t-29 -63v-174h-113v310h109v-41q23 50 70 50q45 0 69 -43q26 43 83 43q51 0 86 -30t35 -100v-189h-112v179q0 58 -28 58q-5 0 -10.5 -2t-12.5 -14t-7 -32v-189h-111z" />
    <glyph glyph-name="osuperior" horiz-adv-x="362" 
d="M20 616q0 75 43 119t117 44q75 0 118.5 -44t43.5 -119q0 -76 -43.5 -120t-118.5 -44q-74 0 -117 44t-43 120zM232 616q0 33 -14 58t-38 25q-23 0 -36.5 -25t-13.5 -58q0 -34 13.5 -59t36.5 -25q24 0 38 25t14 59z" />
    <glyph glyph-name="psuperior" horiz-adv-x="358" 
d="M142 490v-149h-112v426h111v-32q10 19 34.5 29.5t46.5 10.5q56 0 88.5 -41t32.5 -122q0 -78 -36.5 -120.5t-90.5 -42.5q-44 0 -74 41zM178 531q52 0 52 81t-42 81q-46 0 -46 -39v-80q0 -16 8 -26.5t15 -13.5t13 -3z" />
    <glyph glyph-name="qsuperior" horiz-adv-x="358" 
d="M216 341v149q-30 -41 -74 -41q-54 0 -90.5 42.5t-36.5 120.5q0 81 32.5 122t88.5 41q22 0 46.5 -10.5t34.5 -29.5v32h111v-426h-112zM180 531q6 0 13 3t15 13.5t8 26.5v80q0 39 -46 39q-42 0 -42 -81t52 -81z" />
    <glyph glyph-name="rsuperior" horiz-adv-x="239" 
d="M234 777v-87h-26q-63 0 -63 -62v-170h-110v310h108v-41q31 50 70 50h21z" />
    <glyph glyph-name="ssuperior" horiz-adv-x="334" 
d="M174 530q17 0 23 15q4 16 -8 20l-78 30q-41 17 -56 38.5t-15 50.5q0 43 35.5 69t92.5 26q35 0 62.5 -9.5t68.5 -36.5l-35 -62q-46 32 -93 32q-17 0 -20 -14q-2 -6 3.5 -11t21.5 -11l49 -19q38 -13 58.5 -38.5t20.5 -56.5q0 -22 -10 -42q-15 -27 -46.5 -43t-73.5 -16
q-22 0 -68 11q-44 17 -76 46l42 66q54 -45 102 -45z" />
    <glyph glyph-name="tsuperior" horiz-adv-x="245" 
d="M54 700h-47v68h47v69h111v-69h62v-68h-62v-151q0 -20 16 -20q10 0 50 17l4 -74q-41 -22 -72 -22q-109 0 -109 106v144z" />
    <glyph glyph-name="usuperior" horiz-adv-x="364" 
d="M30 589v179h112v-179q0 -58 28 -58q8 0 16 2t19.5 13.5t11.5 32.5v189h112v-310h-108v39q-9 -18 -27 -29.5t-29.5 -14.5t-17.5 -3q-52 0 -84.5 32.5t-32.5 106.5z" />
    <glyph glyph-name="vsuperior" horiz-adv-x="386" 
d="M243 458h-101l-132 312h116l67 -190l67 190h116z" />
    <glyph glyph-name="zsuperior" horiz-adv-x="329" 
d="M20 458v66l149 167h-143v79h283v-66l-149 -167h145v-79h-285z" />
    <glyph glyph-name="zero.oldstyle" horiz-adv-x="460" 
d="M228 -8q-100 0 -159 65t-59 176t59.5 176.5t158.5 65.5q103 0 162.5 -65.5t59.5 -176.5q0 -112 -59 -176.5t-163 -64.5zM228 367q-33 0 -55 -40.5t-22 -93.5q0 -55 21.5 -94.5t55.5 -39.5q36 0 59 39.5t23 94.5q0 53 -23 93.5t-59 40.5z" />
    <glyph glyph-name="one.oldstyle" horiz-adv-x="520" 
d="M60 0v109h138v224l-105 -63l-53 83l180 114h123v-358h136v-109h-419z" />
    <glyph glyph-name="two.oldstyle" horiz-adv-x="500" 
d="M248 360q-34 0 -73 -19t-59 -39l-73 72q24 21 38 31.5t42 27.5t60.5 25t69.5 8q88 0 149 -42t61 -110q0 -22 -11 -42.5t-23 -34t-41 -31.5t-42.5 -25t-49.5 -25q-65 -31 -90 -47h256v-109h-425v64q0 96 168 177q3 2 21 9.5t30 14t27.5 15.5t23.5 18.5t8 18.5q0 43 -67 43
z" />
    <glyph glyph-name="three.oldstyle" horiz-adv-x="520" 
d="M248 -201q-143 0 -242 93l57 88q76 -69 150 -69q118 0 118 84q0 36 -24 62.5t-68 26.5h-86v115h82q42 0 65 24t23 56q0 33 -22 57.5t-61 24.5q-101 0 -159 -69l-57 83q11 15 32.5 34t74 40.5t114.5 21.5q98 0 162 -50.5t64 -139.5q0 -39 -24 -79.5t-72 -56.5
q49 -13 78 -61t29 -87q0 -89 -69.5 -143.5t-164.5 -54.5z" />
    <glyph glyph-name="four.oldstyle" horiz-adv-x="590" 
d="M471 -190l-146 1v120h-285v103q50 115 128 228t164 198h139v-417h89v-113h-89v-120zM171 43h154v237q-104 -111 -154 -237z" />
    <glyph glyph-name="five.oldstyle" horiz-adv-x="580" 
d="M398 33q0 45 -27.5 79t-83.5 34q-68 0 -98 -48h-123l59 363h360v-120h-252l-21 -124q49 33 106 35.5t104 -22t78 -77t31 -121.5q0 -80 -40 -135.5t-97.5 -79t-124.5 -23.5q-134 0 -221 95l60 99q73 -77 153 -77q72 0 104.5 36t32.5 86z" />
    <glyph glyph-name="six.oldstyle" horiz-adv-x="580" 
d="M495 607l-34 -88q-52 35 -126 35q-55 0 -99.5 -49t-40.5 -127q19 28 55 41t63 13q93 0 156 -61t63 -161q0 -103 -66.5 -163t-171.5 -60q-62 0 -108.5 21.5t-72 53.5t-41.5 76.5t-20.5 82t-4.5 78.5q0 173 75.5 267.5t199.5 94.5q93 0 173 -54zM292 94q44 0 67 36.5
t23 79.5t-23.5 80.5t-67.5 37.5q-40 0 -63 -33t-23 -79q0 -53 23.5 -87.5t63.5 -34.5z" />
    <glyph glyph-name="seven.oldstyle" horiz-adv-x="580" 
d="M29 342v118h481v-94q-99 -126 -163.5 -258.5t-117.5 -297.5h-164q131 340 295 532h-331z" />
    <glyph glyph-name="eight.oldstyle" horiz-adv-x="580" 
d="M290 -13q-121 0 -183.5 55.5t-62.5 137.5q0 45 26 91t87 66q-46 20 -69.5 62t-23.5 85q0 73 51 115t124 56q32 4 51 4q32 0 52 -4q73 -14 123 -55.5t50 -115.5q0 -43 -23 -85t-69 -62q61 -19 87 -65.5t26 -91.5q0 -82 -63 -137.5t-183 -55.5zM290 102q46 0 73 24.5
t27 59.5q0 45 -25 70.5t-75 26.5q-49 -1 -73.5 -26.5t-24.5 -70.5q0 -40 28.5 -62t69.5 -22zM288 401q37 0 59.5 19t22.5 54q0 75 -80 75t-80 -73q0 -37 21 -56t57 -19z" />
    <glyph glyph-name="nine.oldstyle" horiz-adv-x="580" 
d="M84 -149l34 88q52 -35 126 -35q55 0 100.5 50.5t39.5 125.5q-19 -28 -55 -41t-63 -13q-93 0 -156 61t-63 161q0 103 66.5 163t171.5 60q62 0 108.5 -21.5t72 -53.5t41.5 -76.5t20.5 -82t4.5 -78.5q0 -173 -75.5 -267.5t-199.5 -94.5q-93 0 -173 54zM287 364
q-44 0 -67 -36.5t-23 -79.5t23.5 -80.5t67.5 -37.5q40 0 63 33t23 79q0 53 -23.5 87.5t-63.5 34.5z" />
    <glyph glyph-name="zero.pzero" horiz-adv-x="600" 
d="M154 36l-40 -63h-74l69 110q-64 92 -64 241q0 156 69 246.5t186 90.5q85 0 147 -47l38 60h73l-66 -105q68 -91 68 -245q0 -157 -69 -247t-191 -90q-87 0 -146 49zM199 224l176 277q-31 50 -75 50q-52 0 -81.5 -68t-29.5 -159q0 -56 10 -100zM403 429l-177 -280
q31 -52 74 -52q55 0 85 66.5t30 160.5q0 56 -12 105z" />
    <glyph glyph-name="zero.tzero" horiz-adv-x="614" 
d="M161 36l-40 -63h-74l69 110q-64 92 -64 241q0 156 69 246.5t186 90.5q85 0 147 -47l38 60h73l-66 -105q68 -91 68 -245q0 -157 -69 -247t-191 -90q-87 0 -146 49zM206 224l176 277q-31 50 -75 50q-52 0 -81.5 -68t-29.5 -159q0 -56 10 -100zM410 429l-177 -280
q31 -52 74 -52q55 0 85 66.5t30 160.5q0 56 -12 105z" />
    <glyph glyph-name="triangleup" horiz-adv-x="540" 
d="M480 162h-420l210 346z" />
    <glyph glyph-name="triangledown" horiz-adv-x="540" 
d="M60 508h420l-210 -346z" />
    <glyph glyph-name="zero.ozero" horiz-adv-x="460" 
d="M158 176l119 165q-21 26 -49 26q-33 0 -55 -40.5t-22 -93.5q0 -33 7 -57zM112 21l-30 -42h-65l54 75q-61 67 -61 179q0 111 59.5 176.5t158.5 65.5q71 0 122 -33l29 42h64l-53 -74q60 -64 60 -177q0 -112 -59 -176.5t-163 -64.5q-66 0 -116 29zM303 288l-119 -166
q18 -23 44 -23q36 0 59 39.5t23 94.5q0 25 -7 55z" />
    <glyph glyph-name="zero.tozero" horiz-adv-x="580" 
d="M218 176l119 165q-21 26 -49 26q-33 0 -55 -40.5t-22 -93.5q0 -33 7 -57zM172 21l-30 -42h-65l54 75q-61 67 -61 179q0 111 59.5 176.5t158.5 65.5q71 0 122 -33l29 42h64l-53 -74q60 -64 60 -177q0 -112 -59 -176.5t-163 -64.5q-66 0 -116 29zM363 288l-119 -166
q18 -23 44 -23q36 0 59 39.5t23 94.5q0 25 -7 55z" />
    <glyph glyph-name="A.small" horiz-adv-x="543" 
d="M150 0h-138l200 484h118l201 -484h-138l-43 108h-161zM272 352l-47 -149h90z" />
    <glyph glyph-name="B.small" horiz-adv-x="475" 
d="M274 198h-103v-105h103q22 0 33.5 15t11.5 35q0 22 -11.5 38.5t-33.5 16.5zM428 345q0 -55 -58 -85l-7 -4l7 -2q40 -7 60 -42t20 -70q0 -53 -42 -97.5t-117 -44.5h-251v484h230q78 0 118 -41t40 -98zM171 289h88q16 0 27 17t11 31q0 24 -12.5 39t-33.5 15h-80v-102z" />
    <glyph glyph-name="C.small" horiz-adv-x="493" 
d="M40 242q0 107 69.5 178.5t185.5 71.5q94 0 168 -38l-32 -83q-71 25 -122 25q-70 0 -104 -45.5t-34 -108.5t34.5 -109.5t103.5 -46.5q45 0 125 26l28 -84q-76 -37 -167 -37q-116 0 -185.5 71.5t-69.5 179.5z" />
    <glyph glyph-name="D.small" horiz-adv-x="511" 
d="M231 0h-191v484h191q122 0 188.5 -61t66.5 -181t-66.5 -181t-188.5 -61zM170 95h64q54 0 88.5 36.5t34.5 110.5q0 76 -34 111.5t-91 35.5h-62v-294z" />
    <glyph glyph-name="E.small" horiz-adv-x="432" 
d="M407 0h-367v484h363v-95h-231v-97h213v-96h-213v-101h235v-95z" />
    <glyph glyph-name="F.small" horiz-adv-x="393" 
d="M172 -1l-132 1v484h343v-95h-211v-97h193v-96h-193v-197z" />
    <glyph glyph-name="G.small" horiz-adv-x="530" 
d="M284 187v92h216v-244q-32 -19 -88 -31.5t-99 -12.5q-124 0 -198.5 71.5t-74.5 179.5q0 107 74.5 178.5t198.5 71.5q95 0 179 -54l-41 -81q-33 21 -71.5 30.5t-59.5 9.5q-77 0 -112.5 -45.5t-35.5 -109.5q0 -61 39.5 -108.5t109.5 -47.5q21 0 58 8v93h-95z" />
    <glyph glyph-name="H.small" horiz-adv-x="497" 
d="M171 200v-200h-131v484h131v-187h155v187h131v-484h-131v200h-155z" />
    <glyph glyph-name="I.small" horiz-adv-x="219" 
d="M45 0v484h129v-484h-129z" />
    <glyph glyph-name="J.small" horiz-adv-x="344" 
d="M5 30l27 77q47 -27 97 -27q45 0 45 64v340h130v-344q0 -149 -155 -149q-58 0 -144 39z" />
    <glyph glyph-name="K.small" horiz-adv-x="477" 
d="M467 0h-154l-129 171l-13 -17v-154h-131v484h131v-155l119 155h150l-176 -218z" />
    <glyph glyph-name="L.small" horiz-adv-x="404" 
d="M172 484v-388h217v-96h-349v484h132z" />
    <glyph glyph-name="M.small" horiz-adv-x="659" 
d="M276 0l-89 264q-8 -108 -13 -184.5t-5 -79.5h-129l38 484h143l108 -335l109 335h142l39 -484h-128l-17 267q-46 -129 -92 -267h-106z" />
    <glyph glyph-name="N.small" horiz-adv-x="501" 
d="M315 0l-145 285v-285h-130v484h152l140 -289v289h129v-484h-146z" />
    <glyph glyph-name="O.small" horiz-adv-x="552" 
d="M276 -9q-114 0 -180 67t-66 184t66 183.5t180 66.5t180 -66.5t66 -183.5t-66 -184t-180 -67zM276 398q-54 0 -83 -44.5t-29 -111.5q0 -69 29 -113.5t83 -44.5q55 0 83 44t28 114q0 68 -28.5 112t-82.5 44z" />
    <glyph glyph-name="P.small" horiz-adv-x="455" 
d="M276 169h-104v-169h-132v484h231q84 0 124 -49.5t40 -111.5q0 -9 -2 -22.5t-11 -38t-24.5 -44t-47.5 -34.5t-74 -15zM172 265h89q20 0 32.5 19.5t12.5 40.5q0 24 -16 44t-40 20h-78v-124z" />
    <glyph glyph-name="Q.small" horiz-adv-x="552" 
d="M346 -9h-70q-110 0 -178 67.5t-68 183.5q0 117 66 183.5t180 66.5t180 -66.5t66 -183.5q0 -127 -86 -197q10 -9 26 -9h59v-95h-57q-36 0 -59.5 7t-31.5 13.5t-21 21.5l-1 1zM276 398q-54 0 -83 -44.5t-29 -111.5q0 -69 29 -112.5t83 -43.5q55 0 83 43t28 113
q0 68 -28.5 112t-82.5 44z" />
    <glyph glyph-name="R.small" horiz-adv-x="475" 
d="M434 332q0 -80 -81 -112q34 -19 44 -47l66 -173h-133l-56 138q-15 37 -43 38h-60v-176h-131v484h224q50 0 85 -13.5t52.5 -37.5t25 -48.5t7.5 -52.5zM171 271h92q21 0 32 18t11 36q0 26 -13 45t-36 19h-86v-118z" />
    <glyph glyph-name="S.small" horiz-adv-x="453" 
d="M224 492q57 0 98.5 -16t87.5 -51l-37 -84q-83 53 -144 53q-29 0 -46 -11t-17 -29q0 -11 8.5 -22t24.5 -17l90 -34l35 -13q104 -42 104 -125q0 -71 -56 -111.5t-135 -40.5q-53 0 -105 19q-71 25 -107 61l41 84q34 -28 82.5 -48t89.5 -20q22 0 40.5 11.5t18.5 33.5
q0 27 -26 38q-22 8 -63.5 25t-62.5 25q-108 42 -108 124q0 67 53 107.5t134 40.5z" />
    <glyph glyph-name="T.small" horiz-adv-x="438" 
d="M426 389h-142v-389h-131v389h-141v95h414v-95z" />
    <glyph glyph-name="U.small" horiz-adv-x="514" 
d="M258 -9q-107 0 -162.5 52t-55.5 175v266h132v-268q0 -66 20.5 -98t65.5 -32q86 0 86 130v268h130v-266q0 -124 -55 -175.5t-161 -51.5z" />
    <glyph glyph-name="V.small" horiz-adv-x="508" 
d="M12 484h135l107 -345l109 345h133l-182 -484h-118z" />
    <glyph glyph-name="W.small" horiz-adv-x="709" 
d="M409 468l79 -270l74 286h135l-147 -484h-121l-74 301l-74 -301h-120l-149 484h135l72 -289l83 273h107z" />
    <glyph glyph-name="X.small" horiz-adv-x="529" 
d="M367 0l-102 152l-105 -152h-148l180 240l-172 244h148l96 -150l96 150h148l-172 -244l181 -240h-150z" />
    <glyph glyph-name="Y.small" horiz-adv-x="527" 
d="M330 0h-133v172l-185 312h146l106 -220l103 220h148l-185 -310v-174z" />
    <glyph glyph-name="Z.small" horiz-adv-x="468" 
d="M431 0h-406v82l251 307h-240v95h407v-81l-254 -307h242v-96z" />
    <glyph glyph-name="Eth.small" horiz-adv-x="544" 
d="M72 484h193q120 0 187 -61t67 -181q0 -119 -67.5 -180.5t-186.5 -61.5h-193v197h-67v92h67v195zM202 95h66q52 0 86.5 36.5t34.5 110.5q0 76 -34 111.5t-90 35.5h-63v-100h111v-92h-111v-102z" />
    <glyph glyph-name="Lslash.small" horiz-adv-x="446" 
d="M84 0v172l-74 -44v83l74 47v226h131v-147l74 45v-80l-74 -48v-158h216v-96h-347z" />
    <glyph glyph-name="Scaron.small" horiz-adv-x="453" 
d="M224 492q57 0 98.5 -16t87.5 -51l-37 -84q-83 53 -144 53q-29 0 -46 -11t-17 -29q0 -26 33 -39l125 -47q104 -42 104 -125q0 -71 -56 -111.5t-135 -40.5q-53 0 -105 19q-71 25 -107 61l41 84q34 -28 82.5 -48t89.5 -20q22 0 40.5 11.5t18.5 33.5q0 27 -26 38
q-22 8 -63.5 25t-62.5 25q-108 42 -108 124q0 67 53 107.5t134 40.5zM278 543h-119l-98 150h115l43 -79l40 79h116z" />
    <glyph glyph-name="Yacute.small" horiz-adv-x="527" 
d="M198 539l83 135h131l-111 -135h-103zM330 0h-133v172l-185 312h146l106 -220l103 220h148l-185 -310v-174z" />
    <glyph glyph-name="Zcaron.small" horiz-adv-x="468" 
d="M290 543h-119l-98 150h115l43 -79l40 79h116zM431 0h-406v82l251 307h-240v95h407v-81l-254 -307h242v-96z" />
    <glyph glyph-name="Thorn.small" horiz-adv-x="427" 
d="M169 484v-105q28 42 78 42q65 0 111.5 -48.5t46.5 -139.5q0 -90 -48.5 -138t-123.5 -48q-15 0 -36 9t-29 30v-86h-131v484h132zM210 331q-41 0 -41 -60v-87q0 -45 53 -45q25 0 37 27t12 67q0 98 -61 98z" />
    <glyph glyph-name="Adieresis.small" horiz-adv-x="543" 
d="M150 0h-138l200 484h118l201 -484h-138l-43 108h-161zM272 352l-47 -149h90zM136 546v104h112v-104h-112zM288 546v104h110v-104h-110z" />
    <glyph glyph-name="Aring.small" horiz-adv-x="543" 
d="M183 613q0 34 22 57t68 23q47 0 68.5 -23t21.5 -57t-21.5 -56t-68.5 -22q-46 0 -68 22t-22 56zM150 0h-138l200 484h118l201 -484h-138l-43 108h-161zM272 352l-47 -149h90zM250 614q0 -26 23 -26q22 0 22 26q0 24 -22 24q-23 0 -23 -24z" />
    <glyph glyph-name="Ccedilla.small" horiz-adv-x="493" 
d="M40 242q0 107 69.5 178.5t185.5 71.5q94 0 168 -38l-32 -83q-71 25 -122 25q-70 0 -104 -45.5t-34 -108.5t34.5 -109.5t103.5 -46.5q45 0 125 26l28 -84q-47 -25 -120 -34l-5 -1q22 -37 22 -69q0 -33 -24.5 -50.5t-66.5 -12.5q-46 6 -68 21v79l46 -14q17 -5 16 9
q-2 14 -19 40h-2q-92 18 -146.5 85t-54.5 161z" />
    <glyph glyph-name="Eacute.small" horiz-adv-x="432" 
d="M407 0h-367v484h363v-95h-231v-97h213v-96h-213v-101h235v-95zM150 539l83 135h131l-111 -135h-103z" />
    <glyph glyph-name="Ntilde.small" horiz-adv-x="501" 
d="M224 573q-8 0 -16.5 -9t-11.5 -25h-65q3 55 19.5 86t60.5 31q11 0 40 -13q3 -1 10 -5t12 -6t10 -2q7 0 14.5 8t10.5 23h66q-3 -54 -20.5 -85.5t-60.5 -31.5q-17 0 -39 14q-3 2 -9.5 6.5t-11 6.5t-9.5 2zM315 0l-145 285v-285h-130v484h152l140 -289v289h129v-484h-146z
" />
    <glyph glyph-name="Odieresis.small" horiz-adv-x="552" 
d="M276 -9q-114 0 -180 67t-66 184t66 183.5t180 66.5t180 -66.5t66 -183.5t-66 -184t-180 -67zM276 398q-54 0 -83 -44.5t-29 -111.5q0 -69 29 -113.5t83 -44.5q55 0 83 44t28 114q0 68 -28.5 112t-82.5 44zM143 546v104h112v-104h-112zM295 546v104h110v-104h-110z" />
    <glyph glyph-name="Udieresis.small" horiz-adv-x="514" 
d="M258 -9q-107 0 -162.5 52t-55.5 175v266h132v-268q0 -66 20.5 -98t65.5 -32q86 0 86 130v268h130v-266q0 -124 -55 -175.5t-161 -51.5zM123 546v104h112v-104h-112zM275 546v104h110v-104h-110z" />
    <glyph glyph-name="AE.small" horiz-adv-x="701" 
d="M310 355l-67 -157h67v157zM676 95v-95h-366v101h-105l-47 -101h-143l243 484h413v-95h-230v-97h214v-96h-215v-101h236z" />
    <glyph glyph-name="Oslash.small" horiz-adv-x="552" 
d="M146 20l-32 -45h-69l55 78q-70 67 -70 189q0 117 66 183.5t180 66.5q70 0 117 -24l32 45h68l-52 -74q81 -67 81 -197q0 -117 -66 -184t-180 -67q-74 0 -130 29zM176 161l156 220q-26 17 -56 17q-54 0 -83 -44.5t-29 -111.5q0 -46 12 -81zM368 336l-159 -227
q26 -25 67 -25q55 0 83 44t28 114q0 55 -19 94z" />
    <glyph glyph-name="Agrave.small" horiz-adv-x="543" 
d="M150 0h-138l200 484h118l201 -484h-138l-43 108h-161zM272 352l-47 -149h90zM237 674l83 -135h-103l-111 135h131z" />
    <glyph glyph-name="Atilde.small" horiz-adv-x="543" 
d="M252 573q-8 0 -16.5 -9t-11.5 -25h-65q3 55 19.5 86t60.5 31q11 0 40 -13q3 -1 10 -5t12 -6t10 -2q7 0 14.5 8t10.5 23h66q-3 -54 -20.5 -85.5t-60.5 -31.5q-17 0 -39 14q-3 2 -9.5 6.5t-11 6.5t-9.5 2zM150 0h-138l200 484h118l201 -484h-138l-43 108h-161zM272 352
l-47 -149h90z" />
    <glyph glyph-name="Otilde.small" horiz-adv-x="552" 
d="M276 -9q-114 0 -180 67t-66 184t66 183.5t180 66.5t180 -66.5t66 -183.5t-66 -184t-180 -67zM276 398q-54 0 -83 -44.5t-29 -111.5q0 -69 29 -113.5t83 -44.5q55 0 83 44t28 114q0 68 -28.5 112t-82.5 44zM245 573q-8 0 -16.5 -9t-11.5 -25h-65q3 55 19.5 86t60.5 31
q11 0 40 -13q3 -1 10 -5t12 -6t10 -2q7 0 14.5 8t10.5 23h66q-3 -54 -20.5 -85.5t-60.5 -31.5q-17 0 -39 14q-3 2 -9.5 6.5t-11 6.5t-9.5 2z" />
    <glyph glyph-name="OE.small" horiz-adv-x="781" 
d="M276 398q-54 0 -83 -44.5t-29 -111.5q0 -69 29 -112.5t83 -43.5q55 0 83.5 43.5t28.5 112.5q0 68 -29 112t-83 44zM389 0v46q-45 -54 -123 -54q-107 0 -171.5 67t-64.5 183t65.5 183t170.5 67q74 0 123 -51v43h362v-95h-230v-97h213v-96h-213v-101h235v-95h-367z" />
    <glyph glyph-name="Ydieresis.small" horiz-adv-x="523" 
d="M328 0h-133v172l-185 312h146l106 -220l103 220h148l-185 -310v-174zM128 546v104h112v-104h-112zM280 546v104h110v-104h-110z" />
    <glyph glyph-name="Acircumflex.small" horiz-adv-x="543" 
d="M150 0h-138l200 484h118l201 -484h-138l-43 108h-161zM272 352l-47 -149h90zM213 693h119l98 -150h-115l-43 79l-40 -79h-116z" />
    <glyph glyph-name="Ecircumflex.small" horiz-adv-x="432" 
d="M407 0h-367v484h363v-95h-231v-97h213v-96h-213v-101h235v-95zM160 693h119l98 -150h-115l-43 79l-40 -79h-116z" />
    <glyph glyph-name="Aacute.small" horiz-adv-x="543" 
d="M150 0h-138l200 484h118l201 -484h-138l-43 108h-161zM272 352l-47 -149h90zM209 539l83 135h131l-111 -135h-103z" />
    <glyph glyph-name="Edieresis.small" horiz-adv-x="432" 
d="M407 0h-367v484h363v-95h-231v-97h213v-96h-213v-101h235v-95zM88 546v104h112v-104h-112zM240 546v104h110v-104h-110z" />
    <glyph glyph-name="Egrave.small" horiz-adv-x="432" 
d="M407 0h-367v484h363v-95h-231v-97h213v-96h-213v-101h235v-95zM200 674l83 -135h-103l-111 135h131z" />
    <glyph glyph-name="Iacute.small" horiz-adv-x="219" 
d="M45 539l83 135h131l-111 -135h-103zM45 0v484h129v-484h-129z" />
    <glyph glyph-name="Icircumflex.small" horiz-adv-x="219" 
d="M45 0v484h129v-484h-129zM51 693h119l98 -150h-115l-43 79l-40 -79h-116z" />
    <glyph glyph-name="Idieresis.small" horiz-adv-x="219" 
d="M45 0v484h129v-484h-129zM-17 546v104h112v-104h-112zM135 546v104h110v-104h-110z" />
    <glyph glyph-name="Igrave.small" horiz-adv-x="219" 
d="M91 674l83 -135h-103l-111 135h131zM45 0v484h129v-484h-129z" />
    <glyph glyph-name="Oacute.small" horiz-adv-x="552" 
d="M276 -9q-114 0 -180 67t-66 184t66 183.5t180 66.5t180 -66.5t66 -183.5t-66 -184t-180 -67zM276 398q-54 0 -83 -44.5t-29 -111.5q0 -69 29 -113.5t83 -44.5q55 0 83 44t28 114q0 68 -28.5 112t-82.5 44zM201 539l83 135h131l-111 -135h-103z" />
    <glyph glyph-name="Ocircumflex.small" horiz-adv-x="552" 
d="M276 -9q-114 0 -180 67t-66 184t66 183.5t180 66.5t180 -66.5t66 -183.5t-66 -184t-180 -67zM276 398q-54 0 -83 -44.5t-29 -111.5q0 -69 29 -113.5t83 -44.5q55 0 83 44t28 114q0 68 -28.5 112t-82.5 44zM217 693h119l98 -150h-115l-43 79l-40 -79h-116z" />
    <glyph glyph-name="Ograve.small" horiz-adv-x="552" 
d="M276 -9q-114 0 -180 67t-66 184t66 183.5t180 66.5t180 -66.5t66 -183.5t-66 -184t-180 -67zM276 398q-54 0 -83 -44.5t-29 -111.5q0 -69 29 -113.5t83 -44.5q55 0 83 44t28 114q0 68 -28.5 112t-82.5 44zM235 674l83 -135h-103l-111 135h131z" />
    <glyph glyph-name="Uacute.small" horiz-adv-x="514" 
d="M258 -9q-107 0 -162.5 52t-55.5 175v266h132v-268q0 -66 20.5 -98t65.5 -32q86 0 86 130v268h130v-266q0 -124 -55 -175.5t-161 -51.5zM188 539l83 135h131l-111 -135h-103z" />
    <glyph glyph-name="Ucircumflex.small" horiz-adv-x="514" 
d="M258 -9q-107 0 -162.5 52t-55.5 175v266h132v-268q0 -66 20.5 -98t65.5 -32q86 0 86 130v268h130v-266q0 -124 -55 -175.5t-161 -51.5zM199 693h119l98 -150h-115l-43 79l-40 -79h-116z" />
    <glyph glyph-name="Ugrave.small" horiz-adv-x="514" 
d="M258 -9q-107 0 -162.5 52t-55.5 175v266h132v-268q0 -66 20.5 -98t65.5 -32q86 0 86 130v268h130v-266q0 -124 -55 -175.5t-161 -51.5zM240 674l83 -135h-103l-111 135h131z" />
    <glyph glyph-name="Cdotaccent.small" horiz-adv-x="493" 
d="M40 242q0 107 69.5 178.5t185.5 71.5q94 0 168 -38l-32 -83q-71 25 -122 25q-70 0 -104 -45.5t-34 -108.5t34.5 -109.5t103.5 -46.5q45 0 125 26l28 -84q-76 -37 -167 -37q-116 0 -185.5 71.5t-69.5 179.5zM228 546v104h120v-104h-120z" />
    <glyph glyph-name="Ibreve.small" horiz-adv-x="219" 
d="M45 0v484h129v-484h-129zM111 534q-63 0 -92.5 34.5t-29.5 93.5h78q4 -51 43 -51t40 51h80q0 -128 -119 -128z" />
    <glyph glyph-name="Idotaccent.small" horiz-adv-x="219" 
d="M45 0v484h129v-484h-129zM45 542v99h129v-99h-129z" />
    <glyph glyph-name="Ycircumflex.small" horiz-adv-x="527" 
d="M330 0h-133v172l-185 312h146l106 -220l103 220h148l-185 -310v-174zM205 693h119l98 -150h-115l-43 79l-40 -79h-116z" />
    <glyph glyph-name="Wcircumflex.small" horiz-adv-x="709" 
d="M294 693h119l98 -150h-115l-43 79l-40 -79h-116zM409 468l79 -270l74 286h135l-147 -484h-121l-74 301l-74 -301h-120l-149 484h135l72 -289l83 273h107z" />
    <glyph glyph-name="Tcaron.small" horiz-adv-x="438" 
d="M426 389h-142v-389h-131v389h-141v95h414v-95zM278 543h-119l-98 150h115l43 -79l40 79h116z" />
    <glyph glyph-name="Utilde.small" horiz-adv-x="514" 
d="M232 573q-8 0 -16.5 -9t-11.5 -25h-65q3 55 19.5 86t60.5 31q11 0 40 -13q3 -1 10 -5t12 -6t10 -2q7 0 14.5 8t10.5 23h66q-3 -54 -20.5 -85.5t-60.5 -31.5q-17 0 -39 14q-3 2 -9.5 6.5t-11 6.5t-9.5 2zM258 -9q-107 0 -162.5 52t-55.5 175v266h132v-268q0 -66 20.5 -98
t65.5 -32q86 0 86 130v268h130v-266q0 -124 -55 -175.5t-161 -51.5z" />
    <glyph glyph-name="Scircumflex.small" horiz-adv-x="434" 
d="M224 492q57 0 98.5 -16t87.5 -51l-37 -84q-83 53 -144 53q-29 0 -46 -11t-17 -29q0 -26 33 -39l125 -47q104 -42 104 -125q0 -71 -56 -111.5t-135 -40.5q-53 0 -105 19q-71 25 -107 61l41 84q34 -28 82.5 -48t89.5 -20q22 0 40.5 11.5t18.5 33.5q0 27 -26 38
q-22 8 -63.5 25t-62.5 25q-108 42 -108 124q0 67 53 107.5t134 40.5zM158 693h119l98 -150h-115l-43 79l-40 -79h-116z" />
    <glyph glyph-name="Rcaron.small" horiz-adv-x="475" 
d="M434 332q0 -80 -81 -112q34 -19 44 -47l66 -173h-133l-56 138q-15 37 -43 38h-60v-176h-131v484h224q50 0 85 -13.5t52.5 -37.5t25 -48.5t7.5 -52.5zM171 271h92q21 0 32 18t11 36q0 26 -13 45t-36 19h-86v-118zM278 543h-119l-98 150h115l43 -79l40 79h116z" />
    <glyph glyph-name="Ncaron.small" horiz-adv-x="501" 
d="M310 543h-119l-98 150h115l43 -79l40 79h116zM315 0l-145 285v-285h-130v484h152l140 -289v289h129v-484h-146z" />
    <glyph glyph-name="Jcircumflex.small" horiz-adv-x="344" 
d="M5 30l27 77q47 -27 97 -27q45 0 45 64v340h130v-344q0 -149 -155 -149q-58 0 -144 39zM177 693h119l98 -150h-115l-43 79l-40 -79h-116z" />
    <glyph glyph-name="Itilde.small" horiz-adv-x="219" 
d="M82 573q-8 0 -16.5 -9t-11.5 -25h-65q3 55 19.5 86t60.5 31q11 0 40 -13q3 -1 10 -5t12 -6t10 -2q7 0 14.5 8t10.5 23h66q-3 -54 -20.5 -85.5t-60.5 -31.5q-17 0 -39 14q-3 2 -9.5 6.5t-11 6.5t-9.5 2zM45 0v484h129v-484h-129z" />
    <glyph glyph-name="Hcircumflex.small" horiz-adv-x="497" 
d="M171 200v-200h-131v484h131v-187h155v187h131v-484h-131v200h-155zM186 693h119l98 -150h-115l-43 79l-40 -79h-116z" />
    <glyph glyph-name="Gcircumflex.small" horiz-adv-x="520" 
d="M274 187v92h216v-244q-32 -19 -88 -31.5t-99 -12.5q-124 0 -198.5 71.5t-74.5 179.5q0 107 74.5 178.5t198.5 71.5q95 0 179 -54l-41 -81q-33 21 -71.5 30.5t-59.5 9.5q-77 0 -112.5 -45.5t-35.5 -109.5q0 -61 39.5 -108.5t109.5 -47.5q21 0 58 8v93h-95zM212 693h119
l98 -150h-115l-43 79l-40 -79h-116z" />
    <glyph glyph-name="Ecaron.small" horiz-adv-x="432" 
d="M407 0h-367v484h363v-95h-231v-97h213v-96h-213v-101h235v-95zM280 543h-119l-98 150h115l43 -79l40 79h116z" />
    <glyph glyph-name="Dcaron.small" horiz-adv-x="511" 
d="M277 543h-119l-98 150h115l43 -79l40 79h116zM231 0h-191v484h191q122 0 188.5 -61t66.5 -181t-66.5 -181t-188.5 -61zM170 95h64q54 0 88.5 36.5t34.5 110.5q0 76 -34 111.5t-91 35.5h-62v-294z" />
    <glyph glyph-name="Lcaron.small" horiz-adv-x="412" 
d="M172 484v-388h217v-96h-349v484h132zM208 327l80 157h109l-103 -157h-86z" />
    <glyph glyph-name="Ccaron.small" horiz-adv-x="493" 
d="M336 543h-119l-98 150h115l43 -79l40 79h116zM40 242q0 107 69.5 178.5t185.5 71.5q94 0 168 -38l-32 -83q-71 25 -122 25q-70 0 -104 -45.5t-34 -108.5t34.5 -109.5t103.5 -46.5q45 0 125 26l28 -84q-76 -37 -167 -37q-116 0 -185.5 71.5t-69.5 179.5z" />
    <glyph glyph-name="Ccircumflex.small" horiz-adv-x="493" 
d="M216 693h119l98 -150h-115l-43 79l-40 -79h-116zM40 242q0 107 69.5 178.5t185.5 71.5q94 0 168 -38l-32 -83q-71 25 -122 25q-70 0 -104 -45.5t-34 -108.5t34.5 -109.5t103.5 -46.5q45 0 125 26l28 -84q-76 -37 -167 -37q-116 0 -185.5 71.5t-69.5 179.5z" />
    <glyph glyph-name="Zacute.small" horiz-adv-x="468" 
d="M431 0h-406v82l251 307h-240v95h407v-81l-254 -307h242v-96zM162 539l83 135h131l-111 -135h-103z" />
    <glyph glyph-name="Wgrave.small" horiz-adv-x="709" 
d="M409 468l79 -270l74 286h135l-147 -484h-121l-74 301l-74 -301h-120l-149 484h135l72 -289l83 273h107zM323 674l83 -135h-103l-111 135h131z" />
    <glyph glyph-name="Wacute.small" horiz-adv-x="709" 
d="M409 468l79 -270l74 286h135l-147 -484h-121l-74 301l-74 -301h-120l-149 484h135l72 -289l83 273h107zM304 539l83 135h131l-111 -135h-103z" />
    <glyph glyph-name="Ygrave.small" horiz-adv-x="527" 
d="M330 0h-133v172l-185 312h146l106 -220l103 220h148l-185 -310v-174zM255 674l83 -135h-103l-111 135h131z" />
    <glyph glyph-name="Sacute.small" horiz-adv-x="463" 
d="M229 492q57 0 98.5 -16t87.5 -51l-37 -84q-83 53 -144 53q-29 0 -46 -11t-17 -29q0 -26 33 -39l125 -47q104 -42 104 -125q0 -71 -56 -111.5t-135 -40.5q-53 0 -105 19q-71 25 -107 61l41 84q34 -28 82.5 -48t89.5 -20q22 0 40.5 11.5t18.5 33.5q0 27 -26 38
q-22 8 -63.5 25t-62.5 25q-108 42 -108 124q0 67 53 107.5t134 40.5zM162 539l83 135h131l-111 -135h-103z" />
    <glyph glyph-name="Racute.small" horiz-adv-x="475" 
d="M137 539l83 135h131l-111 -135h-103zM434 332q0 -80 -81 -112q34 -19 44 -47l66 -173h-133l-56 138q-15 37 -43 38h-60v-176h-131v484h224q50 0 85 -13.5t52.5 -37.5t25 -48.5t7.5 -52.5zM171 271h92q21 0 32 18t11 36q0 26 -13 45t-36 19h-86v-118z" />
    <glyph glyph-name="Lacute.small" horiz-adv-x="404" 
d="M172 484v-388h217v-96h-349v484h132zM44 539l83 135h131l-111 -135h-103z" />
    <glyph glyph-name="Cacute.small" horiz-adv-x="493" 
d="M222 539l83 135h131l-111 -135h-103zM40 242q0 107 69.5 178.5t185.5 71.5q94 0 168 -38l-32 -83q-71 25 -122 25q-70 0 -104 -45.5t-34 -108.5t34.5 -109.5t103.5 -46.5q45 0 125 26l28 -84q-76 -37 -167 -37q-116 0 -185.5 71.5t-69.5 179.5z" />
    <glyph glyph-name="Gdotaccent.small" horiz-adv-x="530" 
d="M284 187v92h216v-244q-32 -19 -88 -31.5t-99 -12.5q-124 0 -198.5 71.5t-74.5 179.5q0 107 74.5 178.5t198.5 71.5q95 0 179 -54l-41 -81q-33 21 -71.5 30.5t-59.5 9.5q-77 0 -112.5 -45.5t-35.5 -109.5q0 -61 39.5 -108.5t109.5 -47.5q21 0 58 8v93h-95zM238 546v104
h120v-104h-120z" />
    <glyph glyph-name="Edotaccent.small" horiz-adv-x="432" 
d="M407 0h-367v484h363v-95h-231v-97h213v-96h-213v-101h235v-95zM150 546v104h120v-104h-120z" />
    <glyph glyph-name="Ohungarumlaut.small" horiz-adv-x="552" 
d="M140 539l83 135h116l-111 -135h-88zM293 539l83 135h116l-111 -135h-88zM276 -9q-114 0 -180 67t-66 184t66 183.5t180 66.5t180 -66.5t66 -183.5t-66 -184t-180 -67zM276 398q-54 0 -83 -44.5t-29 -111.5q0 -69 29 -113.5t83 -44.5q55 0 83 44t28 114q0 68 -28.5 112
t-82.5 44z" />
    <glyph glyph-name="Uhungarumlaut.small" horiz-adv-x="514" 
d="M111 539l83 135h116l-111 -135h-88zM264 539l83 135h116l-111 -135h-88zM258 -9q-107 0 -162.5 52t-55.5 175v266h132v-268q0 -66 20.5 -98t65.5 -32q86 0 86 130v268h130v-266q0 -124 -55 -175.5t-161 -51.5z" />
    <glyph glyph-name="Uring.small" horiz-adv-x="514" 
d="M167 613q0 34 22 57t68 23q47 0 68.5 -23t21.5 -57t-21.5 -56t-68.5 -22q-46 0 -68 22t-22 56zM234 614q0 -26 23 -26q22 0 22 26q0 24 -22 24q-23 0 -23 -24zM258 -9q-107 0 -162.5 52t-55.5 175v266h132v-268q0 -66 20.5 -98t65.5 -32q86 0 86 130v268h130v-266
q0 -124 -55 -175.5t-161 -51.5z" />
    <glyph glyph-name="Ldot.small" horiz-adv-x="404" 
d="M252 349v104h120v-104h-120zM172 484v-388h217v-96h-349v484h132z" />
    <glyph glyph-name="Ubreve.small" horiz-adv-x="514" 
d="M258 -9q-107 0 -162.5 52t-55.5 175v266h132v-268q0 -66 20.5 -98t65.5 -32q86 0 86 130v268h130v-266q0 -124 -55 -175.5t-161 -51.5zM258 534q-63 0 -92.5 34.5t-29.5 93.5h78q4 -51 43 -51t40 51h80q0 -128 -119 -128z" />
    <glyph glyph-name="Obreve.small" horiz-adv-x="552" 
d="M277 534q-63 0 -92.5 34.5t-29.5 93.5h78q4 -51 43 -51t40 51h80q0 -128 -119 -128zM276 -9q-114 0 -180 67t-66 184t66 183.5t180 66.5t180 -66.5t66 -183.5t-66 -184t-180 -67zM276 398q-54 0 -83 -44.5t-29 -111.5q0 -69 29 -113.5t83 -44.5q55 0 83 44t28 114
q0 68 -28.5 112t-82.5 44z" />
    <glyph glyph-name="Gbreve.small" horiz-adv-x="530" 
d="M310 534q-63 0 -92.5 34.5t-29.5 93.5h78q4 -51 43 -51t40 51h80q0 -128 -119 -128zM284 187v92h216v-244q-32 -19 -88 -31.5t-99 -12.5q-124 0 -198.5 71.5t-74.5 179.5q0 107 74.5 178.5t198.5 71.5q95 0 179 -54l-41 -81q-33 21 -71.5 30.5t-59.5 9.5
q-77 0 -112.5 -45.5t-35.5 -109.5q0 -61 39.5 -108.5t109.5 -47.5q21 0 58 8v93h-95z" />
    <glyph glyph-name="Ebreve.small" horiz-adv-x="432" 
d="M217 534q-63 0 -92.5 34.5t-29.5 93.5h78q4 -51 43 -51t40 51h80q0 -128 -119 -128zM407 0h-367v484h363v-95h-231v-97h213v-96h-213v-101h235v-95z" />
    <glyph glyph-name="Abreve.small" horiz-adv-x="543" 
d="M269 534q-63 0 -92.5 34.5t-29.5 93.5h78q4 -51 43 -51t40 51h80q0 -128 -119 -128zM150 0h-138l200 484h118l201 -484h-138l-43 108h-161zM272 352l-47 -149h90z" />
    <glyph glyph-name="Nacute.small" horiz-adv-x="501" 
d="M315 0l-145 285v-285h-130v484h152l140 -289v289h129v-484h-146zM188 539l83 135h131l-111 -135h-103z" />
    <glyph glyph-name="Zdotaccent.small" horiz-adv-x="468" 
d="M172 546v104h120v-104h-120zM431 0h-406v82l251 307h-240v95h407v-81l-254 -307h242v-96z" />
    <glyph glyph-name="Wdieresis.small" horiz-adv-x="709" 
d="M409 468l79 -270l74 286h135l-147 -484h-121l-74 301l-74 -301h-120l-149 484h135l72 -289l83 273h107zM240 560v90h231v-90h-231z" />
    <glyph glyph-name="Umacron.small" horiz-adv-x="514" 
d="M139 560v90h231v-90h-231zM258 -9q-107 0 -162.5 52t-55.5 175v266h132v-268q0 -66 20.5 -98t65.5 -32q86 0 86 130v268h130v-266q0 -124 -55 -175.5t-161 -51.5z" />
    <glyph glyph-name="Amacron.small" horiz-adv-x="543" 
d="M151 560v90h231v-90h-231zM150 0h-138l200 484h118l201 -484h-138l-43 108h-161zM272 352l-47 -149h90z" />
    <glyph glyph-name="Emacron.small" horiz-adv-x="432" 
d="M104 560v90h231v-90h-231zM407 0h-367v484h363v-95h-231v-97h213v-96h-213v-101h235v-95z" />
    <glyph glyph-name="Omacron.small" horiz-adv-x="552" 
d="M276 -9q-114 0 -180 67t-66 184t66 183.5t180 66.5t180 -66.5t66 -183.5t-66 -184t-180 -67zM276 398q-54 0 -83 -44.5t-29 -111.5q0 -69 29 -113.5t83 -44.5q55 0 83 44t28 114q0 68 -28.5 112t-82.5 44zM158 560v90h231v-90h-231z" />
    <glyph glyph-name="lacute.small" horiz-adv-x="219" 
d="M45 539l83 135h131l-111 -135h-103zM45 0v484h129v-484h-129z" />
    <glyph glyph-name="Imacron.small" horiz-adv-x="219" 
d="M-6 560v90h231v-90h-231zM45 0v484h129v-484h-129z" />
    <glyph glyph-name="Uogonek.small" horiz-adv-x="514" 
d="M474 484v-266q0 -112 -45.5 -164t-134.5 -62h-3q-16 -25 -16 -42q0 -11 16 -5l47 16v-79q-23 -15 -68 -21q-40 -3 -65.5 14.5t-25.5 49.5q0 24 22 66l2 3l-5 1q-77 13 -117.5 66t-40.5 157v266h132v-268q0 -66 20.5 -98t65.5 -32q86 0 86 130v268h130z" />
    <glyph glyph-name="Aogonek.small" horiz-adv-x="543" 
d="M393 0l-43 108h-161l-39 -108h-138l200 484h118l201 -484h-54q-15 -23 -15 -50q0 -9 17 -3l48 14v-79q-34 -16 -68 -21q-42 -5 -67 12.5t-25 50.5q0 26 26 76zM272 352l-47 -149h90z" />
    <glyph glyph-name="Eogonek.small" horiz-adv-x="466" 
d="M406 3h-3q-26 -37 -26 -54q0 -6 16 -2l48 14v-79q-22 -14 -68 -21q-42 -5 -66.5 12.5t-24.5 50.5q0 23 36 76h-278v484h362v-95h-231v-97h213v-96h-213v-101h235v-92z" />
    <glyph glyph-name="Hbar.small" horiz-adv-x="497" 
d="M171 200v-200h-131v484h131v-187h155v187h131v-484h-131v200h-155zM131 560v90h231v-90h-231z" />
    <glyph glyph-name="Scedilla.small" horiz-adv-x="453" 
d="M428 143q0 -61 -42 -99t-107 -49h-5l3 -4q22 -35 22 -67q0 -33 -25 -50.5t-67 -12.5q-46 7 -68 21v79l48 -14q16 -3 15 13q-1 14 -16 35q-108 23 -161 76l42 84q35 -28 82.5 -48t88.5 -20q22 0 40.5 11.5t18.5 33.5q0 27 -26 38q-22 8 -63.5 25t-62.5 25
q-108 42 -108 124q0 67 53 107.5t134 40.5q57 0 98.5 -16t87.5 -51l-37 -84q-83 53 -144 53q-29 0 -46 -11t-17 -29q0 -11 9 -22.5t24 -16.5l125 -47q104 -42 104 -125z" />
    <glyph glyph-name="Tbar.small" horiz-adv-x="438" 
d="M426 389h-142v-389h-131v389h-141v95h414v-95zM103 560v90h231v-90h-231z" />
    <glyph glyph-name="Eng.small" horiz-adv-x="501" 
d="M239 -123v93q39 -12 51 -12q24 0 37 11t7 34l-164 286v-289h-130v484h152l140 -254v254h129v-477q-3 -75 -46.5 -107.5t-107.5 -32.5q-29 0 -68 10z" />
    <glyph glyph-name="Ncommaaccent.small" horiz-adv-x="501" 
d="M108 -172l75 137h121l-97 -137h-99zM315 0l-145 285v-285h-130v484h152l140 -289v289h129v-484h-146z" />
    <glyph glyph-name="Kcommaaccent.small" horiz-adv-x="477" 
d="M467 0h-154l-129 171l-13 -17v-154h-131v484h131v-155l119 155h150l-176 -218zM108 -172l75 137h121l-97 -137h-99z" />
    <glyph glyph-name="Gcommaaccent.small" horiz-adv-x="530" 
d="M284 187v92h216v-244q-32 -19 -88 -31.5t-99 -12.5q-124 0 -198.5 71.5t-74.5 179.5q0 107 74.5 178.5t198.5 71.5q95 0 179 -54l-41 -81q-33 21 -71.5 30.5t-59.5 9.5q-77 0 -112.5 -45.5t-35.5 -109.5q0 -61 39.5 -108.5t109.5 -47.5q21 0 58 8v93h-95zM173 -172
l75 137h121l-97 -137h-99z" />
    <glyph glyph-name="Lcommaaccent.small" horiz-adv-x="404" 
d="M172 484v-388h217v-96h-349v484h132zM81 -172l75 137h121l-97 -137h-99z" />
    <glyph glyph-name="Rcommaaccent.small" horiz-adv-x="475" 
d="M434 332q0 -80 -81 -112q34 -19 44 -47l66 -173h-133l-56 138q-15 37 -43 38h-60v-176h-131v484h224q50 0 85 -13.5t52.5 -37.5t25 -48.5t7.5 -52.5zM171 271h92q21 0 32 18t11 36q0 26 -13 45t-36 19h-86v-118zM108 -172l75 137h121l-97 -137h-99z" />
    <glyph glyph-name="Dcroat.small" horiz-adv-x="511" 
d="M120 560v90h231v-90h-231zM231 0h-191v484h191q122 0 188.5 -61t66.5 -181t-66.5 -181t-188.5 -61zM170 95h64q54 0 88.5 36.5t34.5 110.5q0 76 -34 111.5t-91 35.5h-62v-294z" />
    <glyph glyph-name="Aringacute.small" horiz-adv-x="543" 
d="M150 0h-138l200 484h118l201 -484h-138l-43 108h-161zM272 352l-47 -149h90zM183 613q0 34 22 57t68 23q47 0 68.5 -23t21.5 -57t-21.5 -56t-68.5 -22q-46 0 -68 22t-22 56zM250 614q0 -26 23 -26q22 0 22 26q0 24 -22 24q-23 0 -23 -24zM216 724l83 135h131l-111 -135
h-103z" />
    <glyph glyph-name="AEacute.small" horiz-adv-x="698" 
d="M307 355l-67 -157h67v157zM673 95v-95h-366v101h-105l-47 -101h-143l243 484h413v-95h-230v-97h214v-96h-215v-101h236zM274 539l83 135h131l-111 -135h-103z" />
    <glyph glyph-name="IJ.small" horiz-adv-x="541" 
d="M40 0v484h130v-484h-130zM202 30l27 77q47 -27 97 -27q45 0 45 64v340h130v-344q0 -149 -155 -149q-58 0 -144 39z" />
    <glyph glyph-name="Oslashacute.small" horiz-adv-x="541" 
d="M146 20l-32 -45h-69l55 78q-70 67 -70 189q0 117 66 183.5t180 66.5q70 0 117 -24l32 45h68l-52 -74q81 -67 81 -197q0 -117 -66 -184t-180 -67q-74 0 -130 29zM176 161l156 220q-26 17 -56 17q-54 0 -83 -44.5t-29 -111.5q0 -46 12 -81zM368 336l-159 -227
q26 -25 67 -25q55 0 83 44t28 114q0 55 -19 94zM232 539l83 135h131l-111 -135h-103z" />
    <glyph glyph-name="Tcommaaccent.small" horiz-adv-x="438" 
d="M426 389h-142v-389h-131v389h-141v95h414v-95zM88 -172l75 137h121l-97 -137h-99z" />
    <glyph glyph-name="Scommaaccent.small" horiz-adv-x="453" 
d="M224 492q57 0 98.5 -16t87.5 -51l-37 -84q-83 53 -144 53q-29 0 -46 -11t-17 -29q0 -11 8.5 -22t24.5 -17l90 -34l35 -13q104 -42 104 -125q0 -71 -56 -111.5t-135 -40.5q-53 0 -105 19q-71 25 -107 61l41 84q34 -28 82.5 -48t89.5 -20q22 0 40.5 11.5t18.5 33.5
q0 27 -26 38q-22 8 -63.5 25t-62.5 25q-108 42 -108 124q0 67 53 107.5t134 40.5zM88 -172l75 137h121l-97 -137h-99z" />
    <glyph glyph-name="parenleft.small" horiz-adv-x="332" 
d="M62 178q0 140 63.5 223t164.5 83v-69q-45 0 -85.5 -65t-40.5 -173q0 -109 40.5 -173.5t85.5 -64.5v-70q-101 0 -164.5 84.5t-63.5 224.5z" />
    <glyph glyph-name="parenright.small" horiz-adv-x="332" 
d="M270 178q0 -140 -63.5 -224.5t-164.5 -84.5v70q45 0 85.5 64.5t40.5 173.5q0 108 -40.5 173t-85.5 65v69q101 0 164.5 -83t63.5 -223z" />
    <glyph glyph-name="braceleft.small" horiz-adv-x="331" 
d="M215 390v-122q0 -25 -14.5 -50.5t-34.5 -38.5l-2 -2l2 -2q20 -16 35 -40.5t14 -49.5v-120q0 -22 16 -22h58v-73h-73q-36 0 -69 27t-33 65l1 115q0 29 -10.5 46.5t-42.5 20.5v66q32 3 42.5 20.5t10.5 47.5l-1 115q0 39 32.5 65t69.5 26h73v-73h-58q-16 0 -16 -21z" />
    <glyph glyph-name="braceright.small" horiz-adv-x="331" 
d="M116 268v122q0 21 -16 21h-58v73h73q37 0 69.5 -26t32.5 -65l-1 -115q0 -30 10.5 -47.5t42.5 -20.5v-66q-32 -3 -42.5 -20.5t-10.5 -46.5l1 -115q0 -38 -33 -65t-69 -27h-73v73h58q16 0 16 22v120q-1 25 14 49.5t35 40.5l2 2l-2 2q-20 13 -34.5 38.5t-14.5 50.5z" />
    <glyph glyph-name="bracketleft.small" horiz-adv-x="287" 
d="M245 403h-79v-451h79v-82h-183v614h183v-81z" />
    <glyph glyph-name="bracketright.small" horiz-adv-x="287" 
d="M121 403h-79v81h183v-614h-183v82h79v451z" />
    <glyph glyph-name="ampersand.small" horiz-adv-x="465" 
d="M145 141q0 -28 18 -47.5t47 -19.5q34 0 61 39l-83 86q-43 -23 -43 -58zM179 364q-2 -18 6.5 -36.5t22.5 -24.5q33 21 33 60q-6 39 -31 40q-14 -1 -22.5 -12.5t-8.5 -26.5zM288 244l30 -31q7 1 7 11v38h88q5 -81 -16 -127q32 -32 45.5 -59t13.5 -76h-101q0 28 -12 49
q-15 -24 -52 -40.5t-81 -16.5q-88 0 -134 42t-46 104q0 81 80 124q-44 44 -42 105q4 54 46 85t96 31t96 -30.5t46 -84.5q0 -78 -64 -124z" />
    <glyph glyph-name="asterisk.small" horiz-adv-x="306" 
d="M186 418l53 39l40 -67l-67 -30l67 -28l-40 -69l-52 42l2 -68h-75l4 68l-55 -42l-40 69l67 27l-67 30l40 68l54 -40l-3 67h75z" />
    <glyph glyph-name="at.small" horiz-adv-x="596" 
d="M509 73l29 -41q-39 -41 -101.5 -65t-124.5 -24q-124 0 -203 77t-79 199q0 120 80 195.5t196 75.5q67 0 119 -20.5t81.5 -54t44.5 -71.5t15 -77q0 -101 -53 -153t-117 -52q-39 0 -63 43q-38 -29 -72 -29q-111 0 -111 110q0 69 43 116.5t95 47.5q34 0 53 -35l7 30h78
l-34 -179q-5 -12 5.5 -22.5t23.5 -10.5q10 0 24.5 12t28.5 44t14 74q0 79 -54.5 120.5t-127.5 41.5q-86 0 -141.5 -57t-55.5 -149q0 -95 55 -155.5t150 -60.5q92 0 195 70zM304 283q-30 0 -50 -30t-20 -63q0 -19 7.5 -33.5t21.5 -14.5t30 11t18 29l18 79q2 12 -7.5 17
t-17.5 5z" />
    <glyph glyph-name="exclam.small" horiz-adv-x="208" 
d="M52 129l-9 355h123l-10 -355h-104zM40 0v91h128v-91h-128z" />
    <glyph glyph-name="question.small" horiz-adv-x="406" 
d="M215 285q36 29 36 63q0 22 -17 38.5t-41 16.5q-27 0 -52.5 -21t-33.5 -40l-71 57q16 32 57.5 62.5t108.5 30.5q76 0 127 -38t51 -110q0 -61 -77 -126q-34 -27 -43 -43t-9 -46h-117q0 61 12.5 83.5t68.5 72.5zM130 0v91h128v-91h-128z" />
    <glyph glyph-name="exclamdown.small" horiz-adv-x="208" 
d="M43 -133l9 356h104l10 -356h-123zM40 259v91h128v-91h-128z" />
    <glyph glyph-name="questiondown.small" horiz-adv-x="406" 
d="M191 66q-36 -29 -36 -63q0 -22 17 -38.5t41 -16.5q27 0 52.5 21t33.5 40l71 -57q-16 -32 -57.5 -62.5t-108.5 -30.5q-76 0 -127 38t-51 110q0 61 77 126q34 27 43 43t9 46h117q0 -61 -12.5 -83.5t-68.5 -72.5zM276 351v-91h-128v91h128z" />
    <glyph glyph-name="emdash.small" horiz-adv-x="571" 
d="M40 235h491v-96h-491v96z" />
    <glyph glyph-name="endash.small" horiz-adv-x="457" 
d="M40 235h377v-97h-377v97z" />
    <glyph glyph-name="guillemotleft.small" horiz-adv-x="454" 
d="M159 232l95 -167h-118l-96 168l96 169h118zM319 232l95 -167h-119l-95 168l95 169h119z" />
    <glyph glyph-name="guillemotright.small" horiz-adv-x="454" 
d="M199 65l96 169l-95 168h118l96 -169l-96 -168h-119zM40 65l96 169l-95 168h117l97 -169l-97 -168h-118z" />
    <glyph glyph-name="guilsinglleft.small" horiz-adv-x="294" 
d="M159 232l95 -167h-118l-96 168l96 169h118z" />
    <glyph glyph-name="guilsinglright.small" horiz-adv-x="295" 
d="M40 65l97 169l-96 168h119l95 -169l-95 -168h-120z" />
    <glyph glyph-name="periodcentered.small" horiz-adv-x="193" 
d="M30 167v105h133v-105h-133z" />
    <glyph glyph-name="iacute.small" horiz-adv-x="219" 
d="M45 539l83 135h131l-111 -135h-103zM45 0v484h129v-484h-129z" />
    <glyph glyph-name="apple" horiz-adv-x="715" 
d="M60 686h595v-552h-595v552zM580 207v405h-122q-16 -47 -51 -145.5t-50 -145.5l-100 291h-122v-405h64v367l131 -359h53l133 359v-367h64zM99 0h-14l-6 54q0 6 -1 18.5t-1 16.5h-2q0 -1 1 -8.5t1 -12.5v-68h-17v109h25l5 -45q0 -1 2 -12.5t2 -19.5q0 27 2 32l3 45h25v-109
h-15v50v39q0 -4 -1 -21.5t-1 -20.5zM135 17v74q0 21 18 21q23 0 23 -21v-74q0 -19 -23 -19q-6 0 -12 5t-6 14zM151 91v-74q0 -4 2 -4q7 0 7 4v74q0 5 -1 6t-6 1q-2 0 -2 -7zM202 42v-25q0 -4 5 -4q6 0 6 4v11q0 8 -14 24.5t-14 26.5v12q0 21 22 21q21 0 21 -21v-21h-15v21
q0 7 -6 7q-5 0 -5 -7v-12q0 -4 13 -20.5t13 -21.5v-20q0 -9 -7 -14t-14 -5q-22 0 -22 19v25h17zM234 109h45v-13h-13v-96h-17v96h-15v13zM274 0l12 109h25l12 -109h-16l-5 28h-11l-3 -28h-14zM294 45h8l-4 44h-2zM343 0h-15v109h22q22 0 22 -20v-12q0 -14 -17 -17
q13 0 17 -15v-45h-15q-2 9 -2 42q0 8 -12 8v-50zM343 98v-34h3q9 0 9 6v21q0 7 -5 7h-7zM379 0v109h21q13 0 17 -5t4 -19v-65q0 -20 -19 -20h-23zM396 98v-83h4q4 0 4 5v69q0 9 -4 9h-4zM468 0h-39v109h39v-13h-22v-28h20v-14h-20v-39h22v-15zM491 42v-25q0 -4 2 -4q7 0 7 4
v11q0 8 -13 24.5t-13 26.5v12q0 21 19 21q23 0 23 -21v-21h-16v21q0 5 -1 6t-6 1q-2 0 -2 -7v-12q0 -4 12.5 -20.5t12.5 -21.5v-20q0 -19 -23 -19q-7 0 -13 5t-6 14v25h17zM541 0h-16v109h16v-109zM572 54h21v-54h-8v6q-8 -8 -17 -8q-6 0 -12.5 5t-6.5 14v74q0 21 23 21
q21 0 21 -21v-21h-17v21q0 7 -4 7q-6 0 -6 -7v-74q0 -4 6 -4q4 0 4 4v25h-4v12zM603 109h25l2 -30q8 -22 8 -62v6v31v55h15v-109h-25l-7 57q-5 18 -5 34v-12v-79h-13v109z" />
    </font>
</defs>
</svg>
