<?xml version="1.0" standalone="no"?>
<!DOCTYPE svg PUBLIC "-//W3C//DTD SVG 1.1//EN" "http://www.w3.org/Graphics/SVG/1.1/DTD/svg11.dtd" >
<svg>
<metadata>
Created by FontForge 20120731 at Tue Dec 15 21:06:50 2015
 By ,,,
Copyright (c) Olivier Gourvat - Mostardesign Studio, 2004-2011. All rights reserved.
</metadata>
<defs>
<font id="IntervalSansPro-SemiBold" horiz-adv-x="564" >
  <font-face 
    font-family="Interval Sans Pro SemiBold"
    font-weight="600"
    font-stretch="normal"
    units-per-em="1000"
    panose-1="2 0 5 3 0 0 0 2 0 4"
    ascent="750"
    descent="-250"
    x-height="484"
    cap-height="674"
    bbox="-50 -231 1180 1127"
    underline-thickness="50"
    underline-position="-50"
    unicode-range="U+0020-FB06"
  />
<missing-glyph horiz-adv-x="500" 
 />
    <glyph glyph-name="ff" unicode="ff" horiz-adv-x="582" 
d="M10 484h57v42q0 46 13 78.5t29 47.5t41 23.5t37 9t29 0.5h4q42 0 91 -26l-14 -74q-40 15 -63 15q-39 0 -39 -57v-59h163v42q0 46 13 78.5t29 47.5t41 23.5t37 9t29 0.5h4q42 0 91 -26l-14 -74q-40 15 -63 15q-39 0 -39 -57v-59h90v-85h-90v-399h-129l1 399h-163v-399
h-129l1 399h-57v85z" />
    <glyph glyph-name="fi" unicode="fi" horiz-adv-x="540" 
d="M351 0v399h-156v-399h-129l1 399h-57v85h57v42q0 46 13 78.5t29 47.5t41 23.5t37 9t29 0.5h4q42 0 91 -26l-14 -74q-40 15 -63 15q-39 0 -39 -57v-59h285v-484h-129z" />
    <glyph glyph-name="fl" unicode="fl" horiz-adv-x="540" 
d="M351 0v589h-117q-39 0 -39 -57v-48h90v-85h-90v-399h-129l1 399h-57v85h57v31q0 45 14.5 77.5t31.5 47.5t43 23.5t38 9.5t26 1h260v-674h-129z" />
    <glyph glyph-name="f_f_i" unicode="ffi" horiz-adv-x="831" 
d="M10 484h57v42q0 46 13 78.5t29 47.5t41 23.5t37 9t29 0.5h4q42 0 91 -26l-14 -74q-40 15 -63 15q-39 0 -39 -57v-59h163v42q0 46 13 78.5t29 47.5t41 23.5t37 9t29 0.5h4q42 0 91 -26l-14 -74q-40 15 -63 15q-39 0 -39 -57v-59h285v-484h-129v399h-156v-399h-128v399
h-163v-399h-129l1 399h-57v85z" />
    <glyph glyph-name="f_f_l" unicode="ffl" horiz-adv-x="831" 
d="M642 0v600h-117q-39 0 -39 -57v-59h90v-85h-90v-399h-128v399h-163v-399h-129l1 399h-57v85h57v42q0 46 13 78.5t29 47.5t41 23.5t37 9t29 0.5h4q42 0 91 -26l-14 -74q-40 15 -63 15q-39 0 -39 -57v-59h163v42q0 45 14.5 77.5t31.5 47.5t43 23.5t38 9.5t26 1h260v-685
h-129z" />
    <glyph glyph-name="f_f_j" unicode="ffj" horiz-adv-x="839" 
d="M10 484h57v42q0 46 13 78.5t29 47.5t41 23.5t37 9t29 0.5h4q42 0 91 -26l-14 -74q-40 15 -63 15q-39 0 -39 -57v-59h163v42q0 46 13 78.5t29 47.5t41 23.5t37 9t29 0.5h4q42 0 91 -26l-14 -74q-40 15 -63 15q-39 0 -39 -57v-59h293l-1 -517q0 -46 -13.5 -79t-29 -48
t-41.5 -23t-37 -8.5t-29 -0.5q-45 0 -96 26l13 75q46 -17 70 -17q35 0 35 79v428h-164v-399h-128v399h-163v-399h-129l1 399h-57v85z" />
    <glyph glyph-name="f_j" unicode="fj" horiz-adv-x="548" 
d="M488 484l-1 -517q0 -46 -13.5 -79t-29 -48t-41.5 -23t-37 -8.5t-29 -0.5q-45 0 -96 26l13 75q46 -17 70 -17q35 0 35 79v428h-164v-399h-128v399h-57v85h57v42q0 46 13 78.5t29 47.5t41 23.5t37 9t29 0.5h4q42 0 91 -26l-14 -74q-40 15 -63 15q-39 0 -39 -57v-59h293z
" />
    <glyph glyph-name="f_b" unicode="fb" horiz-adv-x="856" 
d="M479 685v-256q19 37 52.5 52.5t65.5 15.5q99 0 161.5 -65.5t62.5 -189.5q0 -125 -58 -190t-153 -65q-12 0 -32.5 3.5t-53 20.5t-46.5 44v-55h-127v600h-117q-39 0 -39 -57v-59h90v-85h-90v-399h-128v399h-57v85h57v42q0 45 14.5 77.5t31.5 47.5t43 23.5t38 9.5t26 1h259z
M570 401q-13 0 -32.5 -7.5t-39 -30t-19.5 -54.5v-137q0 -88 108 -88q53 0 77 45.5t24 112.5q0 159 -118 159z" />
    <glyph glyph-name="f_f_b" unicode="ffb" horiz-adv-x="1147" 
d="M10 484h57v42q0 46 13 78.5t29 47.5t41 23.5t37 9t29 0.5h4q42 0 91 -26l-14 -74q-40 15 -63 15q-39 0 -39 -57v-59h163v42q0 45 14.5 77.5t31.5 47.5t43 23.5t38 9.5t26 1h259v-256q19 37 52.5 52.5t65.5 15.5q99 0 161.5 -65.5t62.5 -189.5q0 -125 -58 -190t-153 -65
q-12 0 -32.5 3.5t-53 20.5t-46.5 44v-55h-127v600h-117q-39 0 -39 -57v-59h90v-85h-90v-399h-128v399h-163v-399h-128v399h-57v85zM861 401q-13 0 -32.5 -7.5t-39 -30t-19.5 -54.5v-137q0 -88 108 -88q53 0 77 45.5t24 112.5q0 159 -118 159z" />
    <glyph glyph-name="f_h" unicode="fh" horiz-adv-x="855" 
d="M795 283v-283h-129v283q0 117 -78 117q-14 0 -29.5 -4t-35 -14.5t-32 -35.5t-12.5 -60v-286h-128v600h-117q-39 0 -39 -57v-59h90v-85h-90v-399h-128v399h-57v85h57v42q0 45 14.5 77.5t31.5 47.5t43 23.5t38 9.5t26 1h259v-256q23 37 61.5 52.5t71.5 15.5q183 0 183 -214
z" />
    <glyph glyph-name="f_f_h" unicode="ffh" horiz-adv-x="1146" 
d="M10 484h57v42q0 46 13 78.5t29 47.5t41 23.5t37 9t29 0.5h4q42 0 91 -26l-14 -74q-40 15 -63 15q-39 0 -39 -57v-59h163v42q0 45 14.5 77.5t31.5 47.5t43 23.5t38 9.5t26 1h259v-256q23 37 61.5 52.5t71.5 15.5q183 0 183 -214v-283h-129v283q0 117 -78 117
q-14 0 -29.5 -4t-35 -14.5t-32 -35.5t-12.5 -60v-286h-128v600h-117q-39 0 -39 -57v-59h90v-85h-90v-399h-128v399h-163v-399h-128v399h-57v85z" />
    <glyph glyph-name="f_k" unicode="fk" horiz-adv-x="816" 
d="M596 299l210 -299h-144l-150 226l-28 -26v-200h-128v600h-122q-39 0 -39 -57v-59h90v-85h-90v-399h-128v399h-57v85h57v42q0 45 14.5 77.5t31.5 47.5t43 23.5t38 9.5t26 1h264v-349l143 148h155z" />
    <glyph glyph-name="f_f_k" unicode="ffk" horiz-adv-x="1107" 
d="M887 299l210 -299h-144l-150 226l-28 -26v-200h-128v600h-122q-39 0 -39 -57v-59h90v-85h-90v-399h-128v399h-163v-399h-128v399h-57v85h57v42q0 46 13 78.5t29 47.5t41 23.5t37 9t29 0.5h4q42 0 91 -26l-14 -74q-40 15 -63 15q-39 0 -39 -57v-59h163v42q0 46 13 78.5
t29 47.5t41 23.5t37 9t29 0.5h4h264v-349l143 148h155z" />
    <glyph glyph-name="f_t" unicode="ft" horiz-adv-x="644" 
d="M379 399h-184v-399h-128v399h-57v85h57v42q0 46 13 78.5t29 47.5t41 23.5t37 9t29 0.5h4q42 0 91 -26l-14 -74q-40 15 -63 15q-39 0 -39 -57v-59h184v116h127v-116h106v-85h-106v-250q0 -65 44 -65q18 0 64 14l10 -86q-47 -24 -92 -24q-20 0 -31 0.5t-37.5 8.5t-42 23
t-29 48t-13.5 79v252z" />
    <glyph glyph-name="f_f_t" unicode="fft" horiz-adv-x="935" 
d="M670 399h-184v-399h-128v399h-163v-399h-128v399h-57v85h57v42q0 46 13 78.5t29 47.5t41 23.5t37 9t29 0.5h4q42 0 91 -26l-14 -74q-40 15 -63 15q-39 0 -39 -57v-59h163v42q0 46 13 78.5t29 47.5t41 23.5t37 9t29 0.5h4q42 0 91 -26l-14 -74q-40 15 -63 15
q-39 0 -39 -57v-59h184v116h127v-116h106v-85h-106v-250q0 -65 44 -65q18 0 64 14l10 -86q-47 -24 -92 -24q-20 0 -31 0.5t-37.5 8.5t-42 23t-29 48t-13.5 79v252z" />
    <glyph glyph-name="t_h" unicode="th" horiz-adv-x="917" 
d="M215 484h198v190h128v-245q23 37 61.5 52.5t71.5 15.5q183 0 183 -214v-283h-129v283q0 117 -78 117q-14 0 -29.5 -4t-35 -14.5t-32 -35.5t-12.5 -60v-286h-128v399h-198v-250q0 -65 44 -65q18 0 64 14l10 -86q-47 -24 -92 -24q-20 0 -31 0.5t-37.5 8.5t-42 23t-29 48
t-13.5 79v252h-76v85h76v116h127v-116z" />
    <glyph glyph-name=".notdef" horiz-adv-x="500" 
 />
    <glyph glyph-name=".null" horiz-adv-x="0" 
 />
    <glyph glyph-name="nonmarkingreturn" horiz-adv-x="333" 
 />
    <glyph glyph-name="space" unicode=" " horiz-adv-x="278" 
 />
    <glyph glyph-name="space" unicode="&#xa0;" horiz-adv-x="278" 
 />
    <glyph glyph-name="exclam" unicode="!" horiz-adv-x="269" 
d="M82 170l-8 504h121l-8 -504h-105zM70 0v106h129v-106h-129z" />
    <glyph glyph-name="quotedbl" unicode="&#x22;" horiz-adv-x="392" 
d="M60 378l-10 296h117l-9 -296h-98zM235 378l-10 296h117l-9 -296h-98z" />
    <glyph glyph-name="numbersign" unicode="#" horiz-adv-x="623" 
d="M260 664h121l-60 -186h76l59 186h119l-60 -186h68v-86h-97l-37 -120h77l-1 -88h-105l-60 -184h-115l59 184h-76l-61 -184h-119l58 184h-66v88h94l36 120h-78l1 86h107zM292 392l-37 -120h77l37 120h-77z" />
    <glyph glyph-name="dollar" unicode="$" horiz-adv-x="590" 
d="M418 665q56 -20 113 -62l-46 -90q-92 71 -199 71q-42 0 -70.5 -20.5t-33.5 -50.5q-6 -55 75 -87l171 -67q132 -52 132 -168q0 -87 -61.5 -139t-154.5 -61v-89h-99v91q-47 5 -78 18q-89 33 -137 77l54 90q42 -37 105.5 -61t122.5 -24q84 0 113 62q12 31 -3.5 58t-49.5 43
q-22 8 -86 33.5t-100 38.5q-72 28 -105.5 73t-33.5 93q0 77 56.5 125.5t141.5 61.5v85h99v-85q30 -4 74 -16z" />
    <glyph glyph-name="percent" unicode="%" horiz-adv-x="834" 
d="M40 492q0 81 44.5 126.5t122.5 45.5t123.5 -45.5t45.5 -126.5t-45.5 -127t-123.5 -46t-122.5 46t-44.5 127zM269 492q0 39 -15.5 64t-46.5 25q-30 0 -45 -25t-15 -64t15 -64t45 -25q31 0 46.5 25.5t15.5 63.5zM458 162q0 81 44.5 126.5t122.5 45.5t123.5 -45.5
t45.5 -126.5t-45.5 -127t-123.5 -46t-122.5 46t-44.5 127zM687 162q0 39 -15.5 64t-46.5 25q-30 0 -45 -25t-15 -64t15 -64t45 -25q31 0 46.5 25.5t15.5 63.5zM184 0l393 674h76l-392 -674h-77z" />
    <glyph glyph-name="ampersand" unicode="&#x26;" horiz-adv-x="641" 
d="M165 190q0 -52 30 -83t86 -31q75 0 117 74l-143 148q-36 -11 -63 -39.5t-27 -68.5zM347 518q-3 30 -19 50.5t-47 21.5q-31 0 -47.5 -21t-19.5 -51q-2 -34 17 -68t48 -42q34 14 52 45t16 65zM362 346l81 -85q5 28 5 49v36h107q6 -105 -24 -172q32 -32 47.5 -50.5
t28.5 -51.5t13 -72h-115q-4 59 -25 84q-23 -41 -75 -68t-124 -27q-117 0 -179 56t-62 138q0 63 35 109t95 72q-81 64 -75 157q6 72 60.5 112t125.5 40t124.5 -40t59.5 -111q3 -45 -20.5 -93t-82.5 -83z" />
    <glyph glyph-name="quotesingle" unicode="'" horiz-adv-x="217" 
d="M60 378l-10 296h117l-9 -296h-98z" />
    <glyph glyph-name="parenleft" unicode="(" horiz-adv-x="397" 
d="M60 241q0 199 76 316t201 117v-82q-67 0 -114 -88.5t-47 -264.5q0 -173 47 -261t114 -88v-82q-125 0 -201 117t-76 316z" />
    <glyph glyph-name="parenright" unicode=")" horiz-adv-x="397" 
d="M337 241q0 -199 -76 -316t-201 -117v82q67 0 114 88t47 261q0 176 -47 264.5t-114 88.5v82q125 0 201 -117t76 -316z" />
    <glyph glyph-name="asterisk" unicode="*" horiz-adv-x="421" 
d="M252 582l79 50l50 -81l-95 -45l95 -43l-50 -82l-79 49l4 -91h-90l5 93l-82 -51l-49 82l94 43l-94 44l49 82l82 -51q-1 17 -3 49t-2 44h90z" />
    <glyph glyph-name="plus" unicode="+" horiz-adv-x="582" 
d="M40 370h196v193h110v-193h196v-99h-196v-192h-110v192h-196v99z" />
    <glyph glyph-name="comma" unicode="," horiz-adv-x="311" 
d="M40 -78l95 195h136l-125 -195h-106z" />
    <glyph glyph-name="hyphen" unicode="-" horiz-adv-x="441" 
d="M401 203h-361v115h361v-115z" />
    <glyph glyph-name="period" unicode="." horiz-adv-x="237" 
d="M50 0v117h137v-117h-137z" />
    <glyph glyph-name="slash" unicode="/" horiz-adv-x="384" 
d="M354 674l-233 -674h-91l232 674h92z" />
    <glyph glyph-name="zero" unicode="0" horiz-adv-x="590" 
d="M292 -13q-116 0 -183 91t-67 249q0 157 67 245.5t183 88.5q121 0 188.5 -87.5t67.5 -246.5t-68 -249.5t-188 -90.5zM292 565q-60 0 -94.5 -70.5t-34.5 -167.5q0 -100 34.5 -172t94.5 -72q63 0 98.5 71.5t35.5 172.5q0 98 -35.5 168t-98.5 70z" />
    <glyph glyph-name="one" unicode="1" horiz-adv-x="590" 
d="M167 434l-55 71l163 145h106v-650h-121v512z" />
    <glyph glyph-name="two" unicode="2" horiz-adv-x="590" 
d="M294 548q-79 0 -155 -95l-67 83q2 2 13 13.5t17.5 17.5t21 19t26.5 20.5t30 18t35.5 16.5t39.5 10t44 4q97 0 164 -55.5t67 -145.5q0 -15 -4 -30.5t-8.5 -27.5t-15.5 -26t-18 -23t-24 -23t-25 -20.5t-28.5 -20t-28 -18t-30.5 -19t-29 -17.5q-53 -32 -93 -67t-43 -59h335
v-103h-459v64q0 36 12 68t28.5 54.5t46.5 47.5t51.5 39.5t58.5 36.5q9 6 33 20.5t40 26t30 23.5q50 45 50 79q0 39 -30.5 64t-84.5 25z" />
    <glyph glyph-name="three" unicode="3" horiz-adv-x="590" 
d="M296 -13q-135 0 -231 96l51 81q42 -40 82.5 -59.5t93.5 -19.5q49 0 76.5 28.5t27.5 67.5q0 41 -29 71t-80 30h-75v102h71q51 0 78 25.5t27 61.5q0 38 -27 66t-73 28q-85 0 -151 -80l-53 79q79 97 209 97q96 0 158.5 -49.5t62.5 -138.5q0 -42 -27 -83.5t-80 -52.5
q57 -9 87.5 -59.5t30.5 -94.5q0 -89 -68 -142.5t-161 -53.5z" />
    <glyph glyph-name="four" unicode="4" horiz-adv-x="590" 
d="M458 0h-124v132q-48 0 -148.5 -0.5t-146.5 -0.5v91q54 117 121 211t177 217h121v-426h92v-93h-92v-131zM153 224h181v271q-56 -58 -109 -138.5t-72 -132.5z" />
    <glyph glyph-name="five" unicode="5" horiz-adv-x="590" 
d="M416 215q0 55 -34 86t-85 31q-10 0 -21.5 -2t-29.5 -7t-34.5 -18.5t-26.5 -32.5h-101l46 369h358v-109h-261l-19 -140q23 21 57 31.5t55 10.5q96 0 153.5 -60t57.5 -162q0 -103 -73 -164t-183 -61q-140 0 -219 118l70 74q65 -88 143 -88q77 0 112 38t35 86z" />
    <glyph glyph-name="six" unicode="6" horiz-adv-x="590" 
d="M490 616l-36 -80q-54 32 -112 32q-133 0 -158 -189q50 52 125 52q97 0 160 -60.5t63 -160.5q0 -103 -65 -162.5t-168 -59.5q-61 0 -106.5 21.5t-70.5 53.5t-40.5 77t-20 82.5t-4.5 79.5q0 174 74.5 266.5t196.5 92.5q94 0 162 -45zM297 81q53 0 80.5 40.5t27.5 88.5
q0 47 -28 89t-81 42q-49 0 -76 -36.5t-27 -88.5q0 -58 28 -96.5t76 -38.5z" />
    <glyph glyph-name="seven" unicode="7" horiz-adv-x="590" 
d="M59 546v104h471v-86q-103 -132 -170 -266.5t-118 -297.5h-141q63 170 135 302t171 244h-348z" />
    <glyph glyph-name="eight" unicode="8" horiz-adv-x="590" 
d="M295 -13q-117 0 -179 55t-62 136q0 21 6 43.5t20 48t42.5 44.5t68.5 26q-58 15 -87 58t-29 91q0 73 50 115t120 53q20 4 50 4q39 0 51 -4h-1q70 -11 120 -53t50 -115q0 -48 -28.5 -91t-87.5 -58q40 -7 68.5 -26t42.5 -44.5t20 -48t6 -43.5q0 -81 -62 -136t-179 -55z
M295 81q53 0 85.5 31t32.5 72q0 44 -31.5 79.5t-86.5 35.5q-54 0 -84.5 -35.5t-30.5 -79.5q0 -41 31 -72t84 -31zM295 389q48 0 75 24t28 66q0 35 -28 65t-75 30q-46 0 -74.5 -29.5t-28.5 -63.5q1 -44 28 -68t75 -24z" />
    <glyph glyph-name="nine" unicode="9" horiz-adv-x="590" 
d="M99 33l36 80q54 -32 112 -32q133 0 158 189q-50 -52 -125 -52q-97 0 -160 60.5t-63 160.5q0 103 65 162.5t168 59.5q61 0 106.5 -21.5t70.5 -53.5t40.5 -77t20 -82.5t4.5 -79.5q0 -174 -74.5 -266.5t-196.5 -92.5q-94 0 -162 45zM292 568q-53 0 -80.5 -40.5t-27.5 -88.5
q0 -47 28 -89t81 -42q49 0 76 36.5t27 88.5q0 58 -28 96.5t-76 38.5z" />
    <glyph glyph-name="colon" unicode=":" horiz-adv-x="237" 
d="M50 0v117h137v-117h-137zM50 367v117h137v-117h-137z" />
    <glyph glyph-name="semicolon" unicode=";" horiz-adv-x="331" 
d="M134 367v117h136v-117h-136zM50 -78l95 195h136l-125 -195h-106z" />
    <glyph glyph-name="less" unicode="&#x3c;" horiz-adv-x="596" 
d="M30 210v62l506 224v-120l-323 -135l323 -135v-120z" />
    <glyph glyph-name="equal" unicode="=" horiz-adv-x="515" 
d="M475 374h-435v89h435v-89zM475 191h-435v90h435v-90z" />
    <glyph glyph-name="greater" unicode="&#x3e;" horiz-adv-x="596" 
d="M566 272v-62l-506 -224v120l323 135l-323 135v120z" />
    <glyph glyph-name="question" unicode="?" horiz-adv-x="555" 
d="M341 397q46 40 46 93q0 39 -28.5 64t-78.5 25q-51 0 -89 -30.5t-56 -61.5l-70 68q9 17 24 35t41 41.5t66.5 38t87.5 14.5q99 0 165 -51.5t66 -148.5q0 -86 -103 -174q-36 -30 -48.5 -41.5t-24 -37t-11.5 -61.5h-120q0 42 3.5 66t21.5 51t38 46t70 64zM205 0v106h129v-106
h-129z" />
    <glyph glyph-name="at" unicode="@" horiz-adv-x="841" 
d="M720 87l28 -41q-53 -55 -138 -87t-170 -32q-172 0 -281 103.5t-109 273.5q0 168 110 273t271 105q74 0 135.5 -19t102.5 -50.5t69 -72t40.5 -83t12.5 -84.5q0 -73 -22 -130t-57.5 -89.5t-74 -48.5t-76.5 -16q-37 0 -56.5 21.5t-23.5 52.5q-65 -55 -114 -55
q-149 0 -149 148q0 94 59 160t129 66q71 0 93 -42l7 34h113l-53 -244q0 -7 -2 -20.5t6.5 -27.5t26.5 -14q11 0 28.5 11.5t37 34t33 63t13.5 90.5q0 62 -24 110t-64.5 76.5t-89 43t-100.5 14.5q-130 0 -213.5 -85t-83.5 -222q0 -141 82 -227t227 -86q137 0 277 96zM437 406
q-44 0 -65.5 -30.5t-33.5 -83.5q-4 -20 -4 -40q0 -69 42 -69q23 0 51 17t35 48l19 115q3 24 -13 33.5t-31 9.5z" />
    <glyph glyph-name="A" unicode="A" horiz-adv-x="705" 
d="M148 0h-138l280 674h125l280 -674h-138l-62 152h-287zM353 545l-107 -292h212z" />
    <glyph glyph-name="B" unicode="B" horiz-adv-x="632" 
d="M380 288h-184v-186h184q45 0 71 26.5t26 62.5q0 39 -26 68t-71 29zM574 489q0 -11 -2.5 -24.5t-9.5 -36t-26.5 -42.5t-48.5 -31q52 -9 86 -59.5t34 -105.5q0 -71 -53 -130.5t-149 -59.5h-340v674h308q101 0 151 -54t50 -131zM196 390h170q40 0 59.5 29t19.5 59
q0 44 -23 69t-69 25h-157v-182z" />
    <glyph glyph-name="C" unicode="C" horiz-adv-x="628" 
d="M40 337q0 150 94 249t250 99q131 0 214 -43l-34 -89q-77 29 -159 29q-61 0 -107.5 -21.5t-72.5 -57.5t-39 -77.5t-13 -88.5q0 -46 13 -88t39 -78.5t72.5 -58.5t107.5 -22q77 0 162 29l31 -89q-83 -43 -214 -43q-155 0 -249.5 100.5t-94.5 249.5z" />
    <glyph glyph-name="D" unicode="D" horiz-adv-x="690" 
d="M316 0h-251v674h251q162 0 253 -85.5t91 -251.5t-91 -251.5t-253 -85.5zM195 102h125q93 0 152 58.5t59 176.5q0 121 -58 178t-156 57h-122v-470z" />
    <glyph glyph-name="E" unicode="E" horiz-adv-x="587" 
d="M542 0h-477v674h470v-102h-339v-181h314v-102h-314v-187h346v-102z" />
    <glyph glyph-name="F" unicode="F" horiz-adv-x="549" 
d="M197 -1l-132 1v674h449v-102h-317v-181h292v-102h-292v-290z" />
    <glyph glyph-name="G" unicode="G" horiz-adv-x="702" 
d="M533 269h-135v104h258v-332q-40 -23 -113.5 -38.5t-131.5 -15.5q-167 0 -269 100.5t-102 249.5q0 150 101.5 249t269.5 99q133 0 230 -61l-46 -89q-70 48 -161 48q-67 0 -119 -21.5t-82 -58t-45 -78.5t-15 -88q0 -97 65.5 -172t183.5 -75q47 0 111 18v161z" />
    <glyph glyph-name="H" unicode="H" horiz-adv-x="683" 
d="M487 304h-291v-304h-131v674h131v-267h291v267h131v-674h-131v304z" />
    <glyph glyph-name="I" unicode="I" horiz-adv-x="280" 
d="M75 0v674h130v-674h-130z" />
    <glyph glyph-name="J" unicode="J" horiz-adv-x="450" 
d="M10 33l31 95q42 -23 74 -31q36 -9 63 -9q29 0 50 10q17 10 23 30.5t6 64.5v481h128v-487q0 -109 -55 -154.5t-141 -45.5q-40 0 -81 9q-40 8 -98 37z" />
    <glyph glyph-name="K" unicode="K" horiz-adv-x="625" 
d="M617 0h-157l-210 277l-54 -67v-210h-131v674h131v-299l227 299h150l-240 -304z" />
    <glyph glyph-name="L" unicode="L" horiz-adv-x="554" 
d="M197 674v-571h317v-103h-449v674h132z" />
    <glyph glyph-name="M" unicode="M" horiz-adv-x="875" 
d="M385 0l-178 476l-30 -476h-132l35 674h172l186 -492l185 492h173l34 -674h-131l-30 476l-180 -476h-104z" />
    <glyph glyph-name="N" unicode="N" horiz-adv-x="689" 
d="M460 0l-265 512v-512h-130v674h173l256 -507v507h130v-674h-164z" />
    <glyph glyph-name="O" unicode="O" horiz-adv-x="743" 
d="M371 -13q-154 0 -242.5 93t-88.5 257q0 163 88.5 255.5t242.5 92.5t243 -92.5t89 -255.5q0 -164 -89 -257t-243 -93zM371 585q-94 0 -144.5 -71t-50.5 -177q0 -110 50.5 -180t144.5 -70q95 0 145.5 70t50.5 180q0 106 -51 177t-145 71z" />
    <glyph glyph-name="P" unicode="P" horiz-adv-x="603" 
d="M381 250h-185v-250h-131v674h309q57 0 99.5 -20.5t65 -54.5t33.5 -70t11 -74q0 -12 -2 -29.5t-14 -50.5t-31.5 -59t-60 -46t-94.5 -20zM196 353h171q32 0 53 20.5t28 43t7 42.5q0 47 -27 80t-78 33h-154v-219z" />
    <glyph glyph-name="Q" unicode="Q" horiz-adv-x="733" 
d="M457 -13h-86q-148 0 -239.5 94t-91.5 256q0 163 88.5 255.5t242.5 92.5t243 -92.5t89 -255.5q0 -99 -38.5 -176t-106.5 -123q48 -25 87 -25h50v-98h-47q-31 0 -57.5 3.5t-42.5 8t-32.5 14t-23 14.5t-19 17t-16.5 15zM371 585q-94 0 -144.5 -71t-50.5 -177q0 -110 50 -179
t145 -69t145.5 69t50.5 179q0 106 -51 177t-145 71z" />
    <glyph glyph-name="R" unicode="R" horiz-adv-x="634" 
d="M583 459q0 -10 -3.5 -26.5t-14 -43.5t-36.5 -53t-64 -41q48 -16 70 -74l81 -221h-137l-62 171q-29 88 -101 88h-120v-259h-131v674h299q64 0 109.5 -20t68 -53.5t32 -68t9.5 -73.5zM196 361h171q47 0 67 31.5t20 65.5q0 48 -23.5 81t-72.5 33h-162v-211z" />
    <glyph glyph-name="S" unicode="S" horiz-adv-x="590" 
d="M418 665q56 -20 113 -62l-46 -90q-92 71 -199 71q-42 0 -70.5 -20.5t-33.5 -50.5q-6 -55 75 -87l171 -67q132 -52 132 -168q0 -94 -73.5 -148t-175.5 -54q-87 0 -144 22q-89 33 -137 77l54 90q42 -37 105.5 -61t122.5 -24q84 0 113 62q12 31 -3.5 58t-49.5 43
q-22 8 -86 33.5t-100 38.5q-72 28 -105.5 73t-33.5 93q0 88 73 139.5t172 51.5q60 0 126 -20z" />
    <glyph glyph-name="T" unicode="T" horiz-adv-x="566" 
d="M556 572h-208v-572h-130v572h-208v102h546v-102z" />
    <glyph glyph-name="U" unicode="U" horiz-adv-x="708" 
d="M354 -13q-140 0 -214.5 72.5t-74.5 241.5v373h132v-375q0 -106 37 -154t120 -48q84 0 121 48t37 154v375h131v-373q0 -171 -73.5 -242.5t-215.5 -71.5z" />
    <glyph glyph-name="V" unicode="V" horiz-adv-x="654" 
d="M10 674h133l184 -546l185 546h132l-254 -674h-125z" />
    <glyph glyph-name="W" unicode="W" horiz-adv-x="953" 
d="M540 650l133 -474l134 498h136l-206 -674h-127l-133 464l-134 -464h-127l-206 674h135l135 -497l133 473h127z" />
    <glyph glyph-name="X" unicode="X" horiz-adv-x="667" 
d="M505 0l-172 249l-172 -249h-151l252 333l-241 341h151l161 -258l162 258h151l-241 -341l252 -333h-152z" />
    <glyph glyph-name="Y" unicode="Y" horiz-adv-x="671" 
d="M403 0h-134v236l-259 438h151l175 -341l174 341h151l-258 -437v-237z" />
    <glyph glyph-name="Z" unicode="Z" horiz-adv-x="612" 
d="M565 0h-535v99l384 473h-368v102h536v-96l-390 -474h373v-104z" />
    <glyph glyph-name="bracketleft" unicode="[" horiz-adv-x="328" 
d="M268 585h-89v-688h89v-89h-208v866h208v-89z" />
    <glyph glyph-name="backslash" unicode="\" horiz-adv-x="384" 
d="M263 0l-233 674h92l232 -674h-91z" />
    <glyph glyph-name="bracketright" unicode="]" horiz-adv-x="328" 
d="M149 585h-89v89h208v-866h-208v89h89v688z" />
    <glyph glyph-name="asciicircum" unicode="^" horiz-adv-x="477" 
d="M40 367l154 307h89l154 -307h-121l-78 185q-9 -23 -37 -87.5t-41 -97.5h-120z" />
    <glyph glyph-name="underscore" unicode="_" horiz-adv-x="645" 
d="M40 -31h565v-93h-565v93z" />
    <glyph glyph-name="grave" unicode="`" horiz-adv-x="314" 
d="M181 698l93 -151h-108l-126 151h141z" />
    <glyph glyph-name="a" unicode="a" horiz-adv-x="519" 
d="M464 0h-132v55q-21 -37 -66 -52.5t-81 -15.5q-55 0 -105 38t-50 107q0 80 81 130t224 60v12q-1 41 -28.5 59t-68 14.5t-76.5 -13.5t-66 -24l-32 76l4 3q4 3 13 7.5t20.5 9.5t28 10.5t34.5 10t40.5 7t45.5 2.5q59 2 107 -15q107 -38 107 -144v-337zM225 79q10 0 25.5 3.5
t36 12t34.5 28t14 45.5v70q-81 -6 -134 -34.5t-51 -67.5q1 -28 22 -42.5t53 -14.5z" />
    <glyph glyph-name="b" unicode="b" horiz-adv-x="565" 
d="M188 674v-245q19 37 52.5 52.5t65.5 15.5q99 0 161.5 -65.5t62.5 -189.5q0 -125 -58 -190t-153 -65q-12 0 -32.5 3.5t-53 20.5t-46.5 44v-55h-127v674h128zM279 401q-13 0 -32.5 -7.5t-39 -30t-19.5 -54.5v-137q0 -88 108 -88q53 0 77 45.5t24 112.5q0 159 -118 159z" />
    <glyph glyph-name="c" unicode="c" horiz-adv-x="478" 
d="M35 242q0 118 67.5 186.5t184.5 68.5q92 0 161 -36l-26 -88q-71 25 -118 25q-71 0 -107 -44.5t-36 -111.5q0 -68 36 -113t107 -45q42 0 118 27l26 -88q-69 -36 -161 -36q-117 0 -184.5 68.5t-67.5 186.5z" />
    <glyph glyph-name="d" unicode="d" horiz-adv-x="565" 
d="M377 429v245h128v-674h-127v55q-14 -27 -46.5 -44t-53 -20.5t-32.5 -3.5q-95 0 -153 65t-58 190q0 124 62.5 189.5t161.5 65.5q31 0 66 -15.5t52 -52.5zM286 401q-118 0 -118 -159q0 -67 24 -112.5t77 -45.5q108 0 108 88v144q0 27 -11 45.5t-27.5 26t-29 10.5t-23.5 3z
" />
    <glyph glyph-name="e" unicode="e" horiz-adv-x="549" 
d="M285 -12q-107 0 -178.5 69.5t-71.5 184.5q0 112 65 183.5t175 71.5t174.5 -66t64.5 -182q0 -5 -0.5 -13.5t-1.5 -20t-1 -17.5h-350q9 -52 43 -82.5t89 -30.5q75 0 162 35l28 -85q-74 -47 -198 -47zM275 400q-44 0 -75.5 -33t-31.5 -78h221q0 51 -33.5 81t-80.5 30z" />
    <glyph glyph-name="f" unicode="f" horiz-adv-x="291" 
d="M10 484h57v42q0 46 13 78.5t29 47.5t41 23.5t37 9t29 0.5h4q42 0 91 -26l-14 -74q-40 15 -63 15q-39 0 -39 -57v-59h90v-85h-90v-399h-128v399h-57v85z" />
    <glyph glyph-name="g" unicode="g" horiz-adv-x="567" 
d="M287 84q15 0 33 4.5t38 22t20 46.5v155q0 88 -108 88q-53 0 -77 -45.5t-24 -112.5q0 -158 118 -158zM379 -16v71q-20 -34 -55.5 -51t-71.5 -17q-83 0 -150 67.5t-67 187.5q0 123 63 189t156 66q8 0 19 -1.5t32 -7t41 -21t33 -38.5v55h128v-514q0 -45 -19.5 -78
t-53.5 -50.5t-72 -25.5t-83 -8q-56 0 -110 14t-79 33l28 85q28 -16 69.5 -27.5t84.5 -14t74.5 19t32.5 66.5z" />
    <glyph glyph-name="h" unicode="h" 
d="M504 283v-283h-129v283q0 117 -78 117q-14 0 -29.5 -4t-35 -14.5t-32 -35.5t-12.5 -60v-286h-128v674h128v-245q23 37 61.5 52.5t71.5 15.5q183 0 183 -214z" />
    <glyph glyph-name="i" unicode="i" horiz-adv-x="249" 
d="M60 0v484h129v-484h-129zM60 558v116h129v-116h-129z" />
    <glyph glyph-name="j" unicode="j" horiz-adv-x="257" 
d="M197 484l-1 -517q0 -46 -13.5 -79t-29 -48t-41.5 -23t-37 -8.5t-29 -0.5q-45 0 -96 26l13 75q46 -17 70 -17q35 0 35 79v513h129zM68 558v116h129v-116h-129z" />
    <glyph glyph-name="k" unicode="k" horiz-adv-x="525" 
d="M305 299l210 -299h-144l-150 226l-28 -26v-200h-128v674h128v-338l143 148h155z" />
    <glyph glyph-name="l" unicode="l" horiz-adv-x="249" 
d="M60 0v674h129v-674h-129z" />
    <glyph glyph-name="m" unicode="m" horiz-adv-x="823" 
d="M349 0v297q0 103 -79 103q-32 0 -56.5 -29t-24.5 -97v-274h-129v484h123v-65q39 78 133 78q35 0 74.5 -17.5t59.5 -55.5q27 41 59 57t79 16q175 0 175 -199v-298h-128v282q0 60 -17.5 89t-60.5 29q-8 0 -18.5 -3t-26.5 -11.5t-26.5 -31.5t-10.5 -56v-298h-126z" />
    <glyph glyph-name="n" unicode="n" 
d="M504 281v-281h-129v281q0 119 -78 119q-14 0 -29.5 -4.5t-35 -15.5t-32 -36t-12.5 -60v-284h-128v484h122v-74q29 52 66 69.5t91 17.5q165 0 165 -216z" />
    <glyph glyph-name="o" unicode="o" horiz-adv-x="556" 
d="M35 242q0 118 65.5 186.5t176.5 68.5q113 0 178.5 -68.5t65.5 -186.5t-65.5 -186.5t-178.5 -68.5q-111 0 -176.5 68.5t-65.5 186.5zM394 242q0 65 -31.5 112.5t-85.5 47.5q-53 0 -84 -47.5t-31 -112.5t31 -112.5t84 -47.5q54 0 85.5 48t31.5 112z" />
    <glyph glyph-name="p" unicode="p" horiz-adv-x="565" 
d="M188 55v-247h-128v676h127v-55q21 37 61 52.5t79 15.5q91 0 147 -65t56 -189q0 -125 -58.5 -190.5t-154.5 -65.5q-35 0 -72.5 15.5t-56.5 52.5zM279 83q118 0 118 160q0 67 -24 112t-77 45q-108 0 -108 -87v-145q0 -43 33 -64t58 -21z" />
    <glyph glyph-name="q" unicode="q" horiz-adv-x="565" 
d="M377 -192v247q-17 -37 -55.5 -52.5t-73.5 -15.5q-96 0 -154.5 65.5t-58.5 190.5q0 124 56 189t147 65q39 0 79 -15.5t61 -52.5v55h127v-676h-128zM286 83q14 0 32.5 6t38.5 27t20 52v145q0 87 -108 87q-53 0 -77 -45t-24 -112q0 -160 118 -160z" />
    <glyph glyph-name="r" unicode="r" horiz-adv-x="365" 
d="M353 492v-100h-54q-53 0 -80 -30.5t-27 -83.5v-278h-127v484h123v-78q36 86 127 86h38z" />
    <glyph glyph-name="s" unicode="s" horiz-adv-x="476" 
d="M251 86q23 0 42 9.5t26 24.5q12 30 -17 44q-1 0 -153 57q-106 45 -106 127q0 69 57 109t136 40q103 0 195 -62l-46 -86q-4 2 -20.5 11t-24 13t-23 11.5t-26 10.5t-24.5 6t-26 3q-28 0 -49 -14.5t-23 -32.5q-2 -20 11 -29.5t49 -21.5q8 -2 13 -4q34 -11 101 -36
q103 -43 103 -126q0 -35 -16 -65q-20 -41 -67.5 -63.5t-113.5 -22.5q-53 0 -110 17q-60 17 -109 61l52 85q76 -66 169 -66z" />
    <glyph glyph-name="t" unicode="t" horiz-adv-x="353" 
d="M88 399h-76v85h76v116h127v-116h106v-85h-106v-250q0 -65 44 -65q18 0 64 14l10 -86q-47 -24 -92 -24q-20 0 -31 0.5t-37.5 8.5t-42 23t-29 48t-13.5 79v252z" />
    <glyph glyph-name="u" unicode="u" 
d="M60 203v281h128v-281q0 -120 79 -120q10 0 24 3t35 11.5t35 31.5t14 56v299h129v-484h-123v55q-20 -30 -55 -46.5t-53 -19t-31 -2.5q-76 0 -129 51.5t-53 164.5z" />
    <glyph glyph-name="v" unicode="v" horiz-adv-x="560" 
d="M344 0h-128l-206 484h135l135 -367l135 367h135z" />
    <glyph glyph-name="w" unicode="w" horiz-adv-x="806" 
d="M10 484h135l96 -342l95 342h134l96 -341l96 341h134l-168 -484h-115l-110 343l-108 -343h-116z" />
    <glyph glyph-name="x" unicode="x" horiz-adv-x="549" 
d="M381 484h145l-174 -239l187 -245h-145l-120 173l-119 -173h-145l186 245l-175 239h146l107 -168z" />
    <glyph glyph-name="y" unicode="y" horiz-adv-x="560" 
d="M83 -174l15 95q1 0 12.5 -5.5t16 -7t15.5 -4t17.5 -0.5t14.5 8t14 17l33 81q-15 35 -36.5 83t-70.5 158t-104 233h135l138 -327q79 195 132 327h135l-252 -594q-21 -47 -61 -64.5t-75 -17.5t-79 18z" />
    <glyph glyph-name="z" unicode="z" horiz-adv-x="479" 
d="M25 0v83l270 305h-260v96h419v-83l-270 -305h261v-96h-420z" />
    <glyph glyph-name="braceleft" unicode="{" horiz-adv-x="376" 
d="M159 241q31 -9 59.5 -46t26.5 -82v-169q0 -51 41 -51h50v-85h-78q-43 0 -82 34t-39 83l1 175q0 51 -15 77t-63 32v64q48 6 63 32t15 77l-1 175q0 49 39 83t82 34h78v-85h-50q-41 0 -41 -51v-169q2 -45 -25.5 -79.5t-60.5 -48.5z" />
    <glyph glyph-name="bar" unicode="|" horiz-adv-x="219" 
d="M60 -88v840h99v-840h-99z" />
    <glyph glyph-name="braceright" unicode="}" horiz-adv-x="376" 
d="M217 241q-33 15 -60.5 49t-25.5 79v169q0 51 -41 51h-50v85h78q43 0 82 -34t39 -83l-1 -175q0 -51 15 -77t63 -32v-64q-48 -6 -63 -32t-15 -77l1 -175q0 -49 -39 -83t-82 -34h-78v85h50q41 0 41 51v169q-2 45 26.5 81.5t59.5 46.5z" />
    <glyph glyph-name="asciitilde" unicode="~" horiz-adv-x="504" 
d="M180 364q27 0 73.5 -19t67.5 -19q13 0 29.5 13t26.5 40h87q-10 -36 -16 -54t-17.5 -41t-25 -33.5t-35.5 -18t-51 -7.5q-25 0 -73 19.5t-66 19.5q-12 0 -29 -15t-27 -41h-84q12 47 19.5 69.5t23 46t38.5 32t59 8.5z" />
    <glyph glyph-name="exclamdown" unicode="&#xa1;" horiz-adv-x="269" 
d="M74 -192l8 504h105l8 -504h-121zM70 378v106h129v-106h-129z" />
    <glyph glyph-name="cent" unicode="&#xa2;" horiz-adv-x="478" 
d="M249 495v77h84v-78q65 -8 115 -33l-26 -88q-71 25 -118 25q-71 0 -107 -44.5t-36 -111.5q0 -68 36 -113t107 -45q42 0 118 27l26 -88q-46 -24 -115 -33v-86h-84v85q-101 11 -157.5 77.5t-56.5 175.5t56.5 175.5t157.5 77.5z" />
    <glyph glyph-name="sterling" unicode="&#xa3;" horiz-adv-x="546" 
d="M249 330v-229h257v-101h-450v101h63v229h-79v90h79v28q0 105 53 160.5t126 65.5q9 3 52 3q89 0 153 -43l-34 -82q-53 33 -119 33q-50 0 -75.5 -37t-25.5 -100v-28h164v-90h-164z" />
    <glyph glyph-name="currency" unicode="&#xa4;" horiz-adv-x="540" 
d="M40 450l74 79l66 -66q42 19 86 19q42 0 87 -19l65 64l82 -84l-64 -63q20 -40 20 -79q0 -43 -25 -92l62 -60l-81 -78l-59 60q-46 -23 -88 -23q-43 0 -84 16l-67 -64l-74 82l57 58q-27 44 -27 94q0 55 30 95q-44 44 -60 61zM349 297q0 41 -27.5 64t-59.5 23q-31 0 -57 -23
t-26 -67q0 -43 26 -65.5t57 -22.5q32 0 59.5 23.5t27.5 67.5z" />
    <glyph glyph-name="yen" unicode="&#xa5;" horiz-adv-x="592" 
d="M359 0h-125v108h-159v85h159v52h-159v85h130l-191 344h141l141 -295l142 295h140l-191 -344h128v-85h-156v-52h156v-85h-156v-108z" />
    <glyph glyph-name="brokenbar" unicode="&#xa6;" horiz-adv-x="219" 
d="M60 363v393h99v-393h-99zM60 -110v386h99v-386h-99z" />
    <glyph glyph-name="section" unicode="&#xa7;" horiz-adv-x="474" 
d="M240 80q42 0 59 35q5 19 0 28.5t-21 15.5l-98 40q-57 23 -92.5 55.5t-35.5 85.5q0 29 16 59t44 50q-23 21 -33.5 44t-10 40.5t1.5 36.5q8 51 55 83t118 32q51 0 92 -14q43 -17 85 -46l-43 -76q-64 40 -129 40q-26 0 -42.5 -11t-18.5 -29q0 -20 11.5 -29t50.5 -22
q9 -5 88 -35q34 -15 55 -34q65 -62 26 -157q-13 -27 -41 -47q41 -38 41 -92q0 -70 -48 -108t-130 -38q-118 0 -200 76l47 76q70 -59 153 -59zM293 368l-90 35q-46 -35 -33 -68t66 -53l43 -16q17 11 29 30t10 40t-25 32z" />
    <glyph glyph-name="dieresis" unicode="&#xa8;" horiz-adv-x="380" 
d="M40 564v116h123v-116h-123zM217 564v116h123v-116h-123z" />
    <glyph glyph-name="copyright" unicode="&#xa9;" horiz-adv-x="790" 
d="M40 336q0 145 104 247t251 102t251 -102t104 -247t-104 -247t-251 -102t-251 102t-104 247zM201 334q0 87 54.5 144.5t144.5 57.5q76 0 121 -23l-20 -51q-43 17 -89 17q-72 0 -105 -42t-33 -103q0 -62 32.5 -103.5t104.5 -41.5q45 0 92 16l18 -50q-45 -23 -121 -23
q-90 0 -144.5 57.5t-54.5 144.5zM109 335q0 -117 84.5 -200.5t204.5 -83.5t204.5 83.5t84.5 200.5t-84.5 200.5t-204.5 83.5t-204.5 -83.5t-84.5 -200.5z" />
    <glyph glyph-name="ordfeminine" unicode="&#xaa;" horiz-adv-x="364" 
d="M323 400h-94v34q-15 -22 -46 -32t-53 -10q-30 0 -60 24.5t-30 68.5q0 48 51 76t140 37v11q-1 41 -49 41q-40 0 -94 -27l-23 54l3 2q2 2 8 5t13.5 6.5t18.5 7.5t22.5 7t26 4.5t29.5 1.5q39 1 69 -9q29 -8 48.5 -31.5t19.5 -59.5v-211zM166 456q9 0 22 3t28 15.5t15 31.5
v40q-44 -4 -74 -20.5t-30 -37.5q2 -32 39 -32zM40 341h284v-79h-284v79z" />
    <glyph glyph-name="guillemotleft" unicode="&#xab;" horiz-adv-x="558" 
d="M299 557l-130 -235l135 -230h-123l-131 233l131 232h118zM503 557l-130 -235l135 -230h-123l-131 233l131 232h118z" />
    <glyph glyph-name="logicalnot" unicode="&#xac;" horiz-adv-x="573" 
d="M418 274h-383v109h503v-226h-120v117z" />
    <glyph glyph-name="registered" unicode="&#xae;" horiz-adv-x="790" 
d="M542 412q0 -74 -66 -95q24 -14 37 -46l53 -126h-74l-53 123q-15 28 -43 28h-81v-151h-70v390h173q69 0 96.5 -36t27.5 -87zM315 353h104q30 0 42 19t12 40q0 68 -59 68h-99v-127zM40 336q0 145 104 247t251 102t251 -102t104 -247t-104 -247t-251 -102t-251 102t-104 247
zM109 335q0 -117 84.5 -200.5t204.5 -83.5t204.5 83.5t84.5 200.5t-84.5 200.5t-204.5 83.5t-204.5 -83.5t-84.5 -200.5z" />
    <glyph glyph-name="macron" unicode="&#xaf;" horiz-adv-x="347" 
d="M40 577v97h267v-97h-267z" />
    <glyph glyph-name="degree" unicode="&#xb0;" horiz-adv-x="364" 
d="M40 521q0 60 41.5 101.5t100.5 41.5t100.5 -41.5t41.5 -101.5q0 -59 -41.5 -100.5t-100.5 -41.5t-100.5 41.5t-41.5 100.5zM126 521q0 -24 16.5 -43t39.5 -19t39.5 19t16.5 43q0 25 -16.5 44t-39.5 19t-39.5 -19t-16.5 -44z" />
    <glyph glyph-name="plusminus" unicode="&#xb1;" horiz-adv-x="584" 
d="M40 423h198v179h109v-179h197v-99h-197v-178h-109v178h-198v99zM544 0h-504v99h504v-99z" />
    <glyph glyph-name="twosuperior" unicode="&#xb2;" horiz-adv-x="385" 
d="M186 763q-26 0 -53 -16.5t-42 -35.5l-38 52l2 4q57 66 134 66q58 0 98 -33t40 -87q0 -19 -9 -36t-27 -33.5t-33.5 -27.5t-39.5 -26q-69 -40 -86 -71h189v-69h-277v41q0 46 32.5 79.5t92.5 71.5q22 12 35 21t26 24t13 29q0 21 -15.5 34t-41.5 13z" />
    <glyph glyph-name="threesuperior" unicode="&#xb3;" horiz-adv-x="344" 
d="M162 442q-83 0 -141 58l33 54q53 -47 106 -47q25 0 39 15.5t14 35.5q0 22 -15.5 38.5t-40.5 16.5h-52v62h50q25 0 39.5 14.5t14.5 33.5t-14.5 34.5t-36.5 15.5q-24 0 -49.5 -15t-41.5 -35l-35 54q46 59 128 59q58 0 96 -29.5t38 -82.5q0 -19 -14 -42t-42 -35
q32 -11 47 -37.5t15 -50.5q0 -52 -41.5 -84.5t-96.5 -32.5z" />
    <glyph glyph-name="acute" unicode="&#xb4;" horiz-adv-x="314" 
d="M40 547l93 151h141l-126 -151h-108z" />
    <glyph glyph-name="mu" unicode="&#xb5;" 
d="M188 29v-217h-128v672h128v-293q5 -106 79 -106q11 0 24 2.5t34.5 10.5t35.5 30.5t14 56.5v299h129v-484h-123v55q-1 -1 -8 -10.5t-11.5 -14.5t-15 -14.5t-20 -15t-24 -9.5t-30.5 -4q-54 0 -84 42z" />
    <glyph glyph-name="mu" unicode="&#x3bc;" 
d="M188 29v-217h-128v672h128v-293q5 -106 79 -106q11 0 24 2.5t34.5 10.5t35.5 30.5t14 56.5v299h129v-484h-123v55q-1 -1 -8 -10.5t-11.5 -14.5t-15 -14.5t-20 -15t-24 -9.5t-30.5 -4q-54 0 -84 42z" />
    <glyph glyph-name="paragraph" unicode="&#xb6;" horiz-adv-x="541" 
d="M212 -192v476q-78 8 -130 63t-52 131q0 81 61 138.5t145 57.5h245v-866h-100v788h-69v-788h-100z" />
    <glyph glyph-name="periodcentered" unicode="&#xb7;" horiz-adv-x="237" 
d="M50 249v117h137v-117h-137z" />
    <glyph glyph-name="cedilla" unicode="&#xb8;" horiz-adv-x="276" 
d="M95 10h85q31 -34 48 -84q20 -62 -10.5 -96.5t-95.5 -28.5q-43 5 -82 23v88l47 -13q62 -16 61 13q-1 23 -53 98z" />
    <glyph glyph-name="onesuperior" unicode="&#xb9;" horiz-adv-x="276" 
d="M61 697l-35 47l98 86h71v-380h-84v291z" />
    <glyph glyph-name="ordmasculine" unicode="&#xba;" horiz-adv-x="391" 
d="M40 551q0 75 41.5 118t113.5 43t114 -43t42 -118q0 -74 -42 -116.5t-114 -42.5t-113.5 42.5t-41.5 116.5zM260 551q0 38 -18 66.5t-47 28.5t-46 -28t-17 -67q0 -38 17 -65.5t46 -27.5t47 28t18 65zM41 341h303v-79h-303v79z" />
    <glyph glyph-name="guillemotright" unicode="&#xbb;" horiz-adv-x="558" 
d="M389 322l-130 235h118l131 -232l-131 -233h-123zM185 322l-130 235h118l131 -232l-131 -233h-123z" />
    <glyph glyph-name="onequarter" unicode="&#xbc;" horiz-adv-x="772" 
d="M124 0l393 674h65l-392 -674h-66zM95 541l-35 47l98 86h71v-380h-84v291zM660 0h-82v75h-168v56q56 118 172 249h78v-243h52v-62h-52v-75zM486 137h92v140q-27 -30 -54 -72t-38 -68z" />
    <glyph glyph-name="onehalf" unicode="&#xbd;" horiz-adv-x="799" 
d="M124 0l393 674h65l-392 -674h-66zM95 541l-35 47l98 86h71v-380h-84v291zM598 313q-26 0 -53 -16.5t-42 -35.5l-38 52l2 4q57 66 134 66q58 0 98 -33t40 -87q0 -19 -9 -36t-27 -33.5t-33.5 -27.5t-39.5 -26q-69 -40 -86 -71h189v-69h-277v41q0 46 32.5 79.5t92.5 71.5
q22 12 35 21t26 24t13 29q0 21 -15.5 34t-41.5 13z" />
    <glyph glyph-name="threequarters" unicode="&#xbe;" horiz-adv-x="815" 
d="M198 0l393 674h65l-392 -674h-66zM703 0h-82v75h-168v56q56 118 172 249h78v-243h52v-62h-52v-75zM529 137h92v140q-27 -30 -54 -72t-38 -68zM201 286q-83 0 -141 58l33 54q53 -47 106 -47q25 0 39 15.5t14 35.5q0 22 -15.5 38.5t-40.5 16.5h-52v62h50q25 0 39.5 14.5
t14.5 33.5t-14.5 34.5t-36.5 15.5q-24 0 -49.5 -15t-41.5 -35l-35 54q46 59 128 59q58 0 96 -29.5t38 -82.5q0 -19 -14 -42t-42 -35q32 -11 47 -37.5t15 -50.5q0 -52 -41.5 -84.5t-96.5 -32.5z" />
    <glyph glyph-name="questiondown" unicode="&#xbf;" horiz-adv-x="555" 
d="M214 87q-46 -40 -46 -93q0 -39 28.5 -64t78.5 -25q51 0 89 30.5t56 61.5l70 -68q-9 -17 -24 -35t-41 -41.5t-66.5 -38t-87.5 -14.5q-99 0 -165 51.5t-66 148.5q0 86 103 174q36 29 49 41.5t24 37.5t11 61h120q0 -42 -3.5 -66t-21.5 -51t-38 -46t-70 -64zM350 484v-106
h-129v106h129z" />
    <glyph glyph-name="Agrave" unicode="&#xc0;" horiz-adv-x="705" 
d="M148 0h-138l280 674h125l280 -674h-138l-62 152h-287zM353 545l-107 -292h212zM308 888l93 -151h-108l-126 151h141z" />
    <glyph glyph-name="Aacute" unicode="&#xc1;" horiz-adv-x="705" 
d="M148 0h-138l280 674h125l280 -674h-138l-62 152h-287zM353 545l-107 -292h212zM297 737l93 151h141l-126 -151h-108z" />
    <glyph glyph-name="Acircumflex" unicode="&#xc2;" horiz-adv-x="705" 
d="M148 0h-138l280 674h125l280 -674h-138l-62 152h-287zM353 545l-107 -292h212zM281 888h142l102 -153h-104l-69 83l-68 -83h-104z" />
    <glyph glyph-name="Atilde" unicode="&#xc3;" horiz-adv-x="705" 
d="M148 0h-138l280 674h125l280 -674h-138l-62 152h-287zM353 545l-107 -292h212zM361 767l-8 4q-27 16 -47 16t-30 -43h-78q3 62 24 98t74 36q17 0 47 -16l8 -4q30 -16 47 -16q20 0 29 43h79q-3 -62 -24 -98t-74 -36q-17 0 -47 16z" />
    <glyph glyph-name="Adieresis" unicode="&#xc4;" horiz-adv-x="705" 
d="M148 0h-138l280 674h125l280 -674h-138l-62 152h-287zM353 545l-107 -292h212zM202 754v116h123v-116h-123zM379 754v116h123v-116h-123z" />
    <glyph glyph-name="Aring" unicode="&#xc5;" horiz-adv-x="705" 
d="M148 0h-138l280 674h125l280 -674h-138l-62 152h-287zM353 545l-107 -292h212zM236 849q0 48 29 80t87 32q62 0 89.5 -31t27.5 -81q0 -49 -27.5 -79.5t-89.5 -30.5q-58 0 -87 32t-29 78zM308 850q0 -42 44 -42q45 0 45 42t-45 42q-44 0 -44 -42z" />
    <glyph glyph-name="AE" unicode="&#xc6;" horiz-adv-x="954" 
d="M432 582l-163 -329h163v329zM563 102h346v-102h-477v152h-203l-74 -152h-145l338 674h554v-102h-338v-181h314v-102h-315v-187z" />
    <glyph glyph-name="Ccedilla" unicode="&#xc7;" horiz-adv-x="628" 
d="M40 337q0 150 94 249t250 99q131 0 214 -43l-34 -89q-77 29 -159 29q-61 0 -107.5 -21.5t-72.5 -57.5t-39 -77.5t-13 -88.5q0 -46 13 -88t39 -78.5t72.5 -58.5t107.5 -22q77 0 162 29l31 -89q-72 -37 -186 -42q22 -31 32 -62q20 -62 -10.5 -96.5t-95.5 -28.5
q-43 5 -82 23v88l47 -13q21 -5 34.5 -5.5t19.5 4.5t6.5 13t-5 21t-13.5 27t-21 33q-131 20 -207.5 115.5t-76.5 229.5z" />
    <glyph glyph-name="Egrave" unicode="&#xc8;" horiz-adv-x="587" 
d="M542 0h-477v674h470v-102h-339v-181h314v-102h-314v-187h346v-102zM283 888l93 -151h-108l-126 151h141z" />
    <glyph glyph-name="Eacute" unicode="&#xc9;" horiz-adv-x="587" 
d="M542 0h-477v674h470v-102h-339v-181h314v-102h-314v-187h346v-102zM220 737l93 151h141l-126 -151h-108z" />
    <glyph glyph-name="Ecircumflex" unicode="&#xca;" horiz-adv-x="587" 
d="M542 0h-477v674h470v-102h-339v-181h314v-102h-314v-187h346v-102zM222 888h142l102 -153h-104l-69 83l-68 -83h-104z" />
    <glyph glyph-name="Edieresis" unicode="&#xcb;" horiz-adv-x="587" 
d="M542 0h-477v674h470v-102h-339v-181h314v-102h-314v-187h346v-102zM143 754v116h123v-116h-123zM320 754v116h123v-116h-123z" />
    <glyph glyph-name="Igrave" unicode="&#xcc;" horiz-adv-x="280" 
d="M75 0v674h130v-674h-130zM112 888l93 -151h-108l-126 151h141z" />
    <glyph glyph-name="Iacute" unicode="&#xcd;" horiz-adv-x="280" 
d="M75 0v674h130v-674h-130zM77 737l93 151h141l-126 -151h-108z" />
    <glyph glyph-name="Icircumflex" unicode="&#xce;" horiz-adv-x="280" 
d="M75 0v674h130v-674h-130zM69 888h142l102 -153h-104l-69 83l-68 -83h-104z" />
    <glyph glyph-name="Idieresis" unicode="&#xcf;" horiz-adv-x="280" 
d="M75 0v674h130v-674h-130zM-10 754v116h123v-116h-123zM167 754v116h123v-116h-123z" />
    <glyph glyph-name="Eth" unicode="&#xd0;" horiz-adv-x="742" 
d="M107 674h252q162 0 252.5 -85.5t90.5 -251.5t-90.5 -251.5t-252.5 -85.5h-252v288h-97v103h97v283zM237 102h126q93 0 151.5 58.5t58.5 176.5q0 121 -57.5 178t-155.5 57h-123v-181h198v-103h-198v-186z" />
    <glyph glyph-name="Ntilde" unicode="&#xd1;" horiz-adv-x="689" 
d="M460 0l-265 512v-512h-130v674h173l256 -507v507h130v-674h-164zM353 767l-8 4q-27 16 -47 16t-30 -43h-78q3 62 24 98t74 36q17 0 47 -16l8 -4q30 -16 47 -16q20 0 29 43h79q-3 -62 -24 -98t-74 -36q-17 0 -47 16z" />
    <glyph glyph-name="Ograve" unicode="&#xd2;" horiz-adv-x="743" 
d="M371 -13q-154 0 -242.5 93t-88.5 257q0 163 88.5 255.5t242.5 92.5t243 -92.5t89 -255.5q0 -164 -89 -257t-243 -93zM371 585q-94 0 -144.5 -71t-50.5 -177q0 -110 50.5 -180t144.5 -70q95 0 145.5 70t50.5 180q0 106 -51 177t-145 71zM321 888l93 -151h-108l-126 151
h141z" />
    <glyph glyph-name="Oacute" unicode="&#xd3;" horiz-adv-x="743" 
d="M371 -13q-154 0 -242.5 93t-88.5 257q0 163 88.5 255.5t242.5 92.5t243 -92.5t89 -255.5q0 -164 -89 -257t-243 -93zM371 585q-94 0 -144.5 -71t-50.5 -177q0 -110 50.5 -180t144.5 -70q95 0 145.5 70t50.5 180q0 106 -51 177t-145 71zM306 737l93 151h141l-126 -151
h-108z" />
    <glyph glyph-name="Ocircumflex" unicode="&#xd4;" horiz-adv-x="743" 
d="M371 -13q-154 0 -242.5 93t-88.5 257q0 163 88.5 255.5t242.5 92.5t243 -92.5t89 -255.5q0 -164 -89 -257t-243 -93zM371 585q-94 0 -144.5 -71t-50.5 -177q0 -110 50.5 -180t144.5 -70q95 0 145.5 70t50.5 180q0 106 -51 177t-145 71zM300 888h142l102 -153h-104l-69 83
l-68 -83h-104z" />
    <glyph glyph-name="Otilde" unicode="&#xd5;" horiz-adv-x="743" 
d="M371 -13q-154 0 -242.5 93t-88.5 257q0 163 88.5 255.5t242.5 92.5t243 -92.5t89 -255.5q0 -164 -89 -257t-243 -93zM371 585q-94 0 -144.5 -71t-50.5 -177q0 -110 50.5 -180t144.5 -70q95 0 145.5 70t50.5 180q0 106 -51 177t-145 71zM380 767l-8 4q-27 16 -47 16
t-30 -43h-78q3 62 24 98t74 36q17 0 47 -16l8 -4q30 -16 47 -16q20 0 29 43h79q-3 -62 -24 -98t-74 -36q-17 0 -47 16z" />
    <glyph glyph-name="Odieresis" unicode="&#xd6;" horiz-adv-x="743" 
d="M371 -13q-154 0 -242.5 93t-88.5 257q0 163 88.5 255.5t242.5 92.5t243 -92.5t89 -255.5q0 -164 -89 -257t-243 -93zM371 585q-94 0 -144.5 -71t-50.5 -177q0 -110 50.5 -180t144.5 -70q95 0 145.5 70t50.5 180q0 106 -51 177t-145 71zM221 754v116h123v-116h-123z
M398 754v116h123v-116h-123z" />
    <glyph glyph-name="multiply" unicode="&#xd7;" horiz-adv-x="588" 
d="M40 134l183 183l-183 183l71 72l183 -184l183 183l71 -71l-183 -183l183 -182l-71 -71l-183 182l-183 -183z" />
    <glyph glyph-name="Oslash" unicode="&#xd8;" horiz-adv-x="743" 
d="M212 178l246 386q-40 21 -87 21q-94 0 -144.5 -71t-50.5 -177q0 -95 36 -159zM59 -55l83 123q-102 94 -102 269q0 163 88.5 255.5t242.5 92.5q83 0 147 -27l40 64h96l-66 -106q115 -95 115 -279q0 -164 -89 -257t-243 -93q-87 0 -161 33l-53 -75h-98zM520 508l-251 -393
q43 -28 102 -28q95 0 145.5 70t50.5 180q0 104 -47 171z" />
    <glyph glyph-name="Ugrave" unicode="&#xd9;" horiz-adv-x="708" 
d="M354 -13q-140 0 -214.5 72.5t-74.5 241.5v373h132v-375q0 -106 37 -154t120 -48q84 0 121 48t37 154v375h131v-373q0 -171 -73.5 -242.5t-215.5 -71.5zM342 888l93 -151h-108l-126 151h141z" />
    <glyph glyph-name="Uacute" unicode="&#xda;" horiz-adv-x="708" 
d="M354 -13q-140 0 -214.5 72.5t-74.5 241.5v373h132v-375q0 -106 37 -154t120 -48q84 0 121 48t37 154v375h131v-373q0 -171 -73.5 -242.5t-215.5 -71.5zM259 737l93 151h141l-126 -151h-108z" />
    <glyph glyph-name="Ucircumflex" unicode="&#xdb;" horiz-adv-x="708" 
d="M354 -13q-140 0 -214.5 72.5t-74.5 241.5v373h132v-375q0 -106 37 -154t120 -48q84 0 121 48t37 154v375h131v-373q0 -171 -73.5 -242.5t-215.5 -71.5zM282 888h142l102 -153h-104l-69 83l-68 -83h-104z" />
    <glyph glyph-name="Udieresis" unicode="&#xdc;" horiz-adv-x="708" 
d="M354 -13q-140 0 -214.5 72.5t-74.5 241.5v373h132v-375q0 -106 37 -154t120 -48q84 0 121 48t37 154v375h131v-373q0 -171 -73.5 -242.5t-215.5 -71.5zM204 754v116h123v-116h-123zM381 754v116h123v-116h-123z" />
    <glyph glyph-name="Yacute" unicode="&#xdd;" horiz-adv-x="671" 
d="M403 0h-134v236l-259 438h151l175 -341l174 341h151l-258 -437v-237zM259 737l93 151h141l-126 -151h-108z" />
    <glyph glyph-name="Thorn" unicode="&#xde;" horiz-adv-x="579" 
d="M196 674v-131q20 27 55.5 41t72.5 14q94 0 157 -66t63 -191q0 -126 -65 -191t-172 -65q-25 0 -59 11t-53 38v-134h-130v674h131zM288 502q-24 0 -58 -23t-34 -70v-140q0 -87 110 -87q53 0 77.5 45.5t24.5 113.5q0 161 -120 161z" />
    <glyph glyph-name="germandbls" unicode="&#xdf;" horiz-adv-x="587" 
d="M312 0h-71v94h71q54 0 86 31t32 72q0 53 -35.5 92t-93.5 39h-17v94h17q46 0 64.5 19.5t18.5 62.5q0 37 -26 63t-69 26q-47 0 -70.5 -37.5t-23.5 -99.5v-456h-130v456q0 104 51.5 159t123.5 67h-2q9 3 51 3q39 0 76 -9.5t70.5 -29.5t54 -56.5t20.5 -85.5q0 -42 -26 -77.5
t-79 -50.5q46 -4 80 -36t48 -70t14 -73q0 -79 -62 -138t-173 -59z" />
    <glyph glyph-name="agrave" unicode="&#xe0;" horiz-adv-x="519" 
d="M230 698l93 -151h-108l-126 151h141zM464 0h-132v55q-21 -37 -66 -52.5t-81 -15.5q-55 0 -105 38t-50 107q0 80 81 130t224 60v12q-1 41 -28.5 59t-68 14.5t-76.5 -13.5t-66 -24l-32 76l4 3q4 3 13 7.5t20.5 9.5t28 10.5t34.5 10t40.5 7t45.5 2.5q59 2 107 -15
q107 -38 107 -144v-337zM225 79q10 0 25.5 3.5t36 12t34.5 28t14 45.5v70q-81 -6 -134 -34.5t-51 -67.5q1 -28 22 -42.5t53 -14.5z" />
    <glyph glyph-name="aacute" unicode="&#xe1;" horiz-adv-x="519" 
d="M178 547l93 151h141l-126 -151h-108zM464 0h-132v55q-21 -37 -66 -52.5t-81 -15.5q-55 0 -105 38t-50 107q0 80 81 130t224 60v12q-1 40 -29 58.5t-68 15t-77 -13.5t-65 -24l-32 76l4 3q4 3 13 7.5t20.5 9.5t28 10.5t34.5 10t40.5 7t45.5 2.5q59 2 107 -15
q107 -38 107 -144v-337zM225 79q10 0 25.5 3.5t36 12t34.5 28t14 45.5v70q-81 -6 -134 -34.5t-51 -67.5q1 -28 22 -42.5t53 -14.5z" />
    <glyph glyph-name="acircumflex" unicode="&#xe2;" horiz-adv-x="519" 
d="M184 698h142l102 -153h-104l-69 83l-68 -83h-104zM464 0h-132v55q-21 -37 -66 -52.5t-81 -15.5q-55 0 -105 38t-50 107q0 80 81 130t224 60v12q-1 41 -28.5 59t-68 14.5t-76.5 -13.5t-66 -24l-32 76l4 3q4 3 13 7.5t20.5 9.5t28 10.5t34.5 10t40.5 7t45.5 2.5
q59 2 107 -15q107 -38 107 -144v-337zM225 79q10 0 25.5 3.5t36 12t34.5 28t14 45.5v70q-81 -6 -134 -34.5t-51 -67.5q1 -28 22 -42.5t53 -14.5z" />
    <glyph glyph-name="atilde" unicode="&#xe3;" horiz-adv-x="526" 
d="M272 577l-8 4q-27 16 -47 16t-30 -43h-78q3 62 24 98t74 36q17 0 47 -16l8 -4q30 -16 47 -16q20 0 29 43h79q-3 -62 -24 -98t-74 -36q-17 0 -47 16zM471 0h-132v55q-21 -37 -66 -52.5t-81 -15.5q-55 0 -105 38t-50 107q0 80 81 130t224 60v12q-1 41 -28.5 59t-68 14.5
t-76.5 -13.5t-66 -24l-32 76l4 3q4 3 13 7.5t20.5 9.5t28 10.5t34.5 10t40.5 7t45.5 2.5q59 2 107 -15q107 -38 107 -144v-337zM232 79q10 0 25.5 3.5t36 12t34.5 28t14 45.5v70q-81 -6 -134 -34.5t-51 -67.5q1 -28 22 -42.5t53 -14.5z" />
    <glyph glyph-name="adieresis" unicode="&#xe4;" horiz-adv-x="519" 
d="M106 564v116h123v-116h-123zM283 564v116h123v-116h-123zM464 0h-132v55q-21 -37 -66 -52.5t-81 -15.5q-55 0 -105 38t-50 107q0 80 81 130t224 60v12q-1 40 -29 58.5t-68 15t-77 -13.5t-65 -24l-32 76l4 3q4 3 13 7.5t20.5 9.5t28 10.5t34.5 10t40.5 7t45.5 2.5
q59 2 107 -15q107 -38 107 -144v-337zM225 79q10 0 25.5 3.5t36 12t34.5 28t14 45.5v70q-81 -6 -134 -34.5t-51 -67.5q1 -28 22 -42.5t53 -14.5z" />
    <glyph glyph-name="aring" unicode="&#xe5;" horiz-adv-x="526" 
d="M146 659q0 48 29 80t87 32q62 0 89.5 -31t27.5 -81q0 -49 -27.5 -79.5t-89.5 -30.5q-58 0 -87 32t-29 78zM218 660q0 -42 44 -42q45 0 45 42t-45 42q-44 0 -44 -42zM471 0h-132v55q-21 -37 -66 -52.5t-81 -15.5q-55 0 -105 38t-50 107q0 80 81 130t224 60v12
q-1 41 -28.5 59t-68 14.5t-76.5 -13.5t-66 -24l-32 76l4 3q4 3 13 7.5t20.5 9.5t28 10.5t34.5 10t40.5 7t45.5 2.5q59 2 107 -15q107 -38 107 -144v-337zM232 79q10 0 25.5 3.5t36 12t34.5 28t14 45.5v70q-81 -6 -134 -34.5t-51 -67.5q1 -28 22 -42.5t53 -14.5z" />
    <glyph glyph-name="ae" unicode="&#xe6;" horiz-adv-x="852" 
d="M588 -12q-154 0 -211 88q-43 -89 -185 -89q-55 0 -105 38t-50 107q0 80 81 130t224 60v12q-1 41 -28.5 59t-68 14.5t-76.5 -13.5t-66 -24l-32 76l4 3q4 3 13 7.5t20.5 9.5t28 10.5t34.5 10t40.5 7t45.5 2.5q34 2 63 -4q68 -14 102 -63q56 68 171 68q96 0 160 -67.5
t64 -180.5l-3 -51h-350q9 -52 43 -82.5t89 -30.5q75 0 162 35l28 -85q-74 -47 -198 -47zM232 79q10 0 25.5 3.5t36 12t34.5 28t14 45.5v23v46q-79 -6 -133 -34.5t-52 -66.5q1 -28 22 -42.5t53 -14.5zM578 400q-43 0 -77.5 -32t-36.5 -75v-4h228q0 51 -33.5 81t-80.5 30z" />
    <glyph glyph-name="ccedilla" unicode="&#xe7;" horiz-adv-x="478" 
d="M35 242q0 118 67.5 186.5t184.5 68.5q92 0 161 -36l-26 -88q-71 25 -118 25q-71 0 -107 -44.5t-36 -111.5q0 -68 36 -113t107 -45q42 0 118 27l26 -88q-58 -30 -138 -35q22 -31 32 -62q20 -62 -10.5 -96.5t-95.5 -28.5q-43 5 -82 23v88l47 -13q22 -5 36 -5.5t19.5 5
t5.5 13t-6 21.5t-14.5 27.5t-21.5 33.5q-88 17 -136.5 82t-48.5 166z" />
    <glyph glyph-name="egrave" unicode="&#xe8;" horiz-adv-x="549" 
d="M285 -12q-107 0 -178.5 69.5t-71.5 184.5q0 112 65 183.5t175 71.5t174.5 -66t64.5 -182q0 -5 -0.5 -13.5t-1.5 -20t-1 -17.5h-350q9 -52 43 -82.5t89 -30.5q75 0 162 35l28 -85q-74 -47 -198 -47zM275 400q-44 0 -75.5 -33t-31.5 -78h221q0 51 -33.5 81t-80.5 30z
M243 698l93 -151h-108l-126 151h141z" />
    <glyph glyph-name="eacute" unicode="&#xe9;" horiz-adv-x="549" 
d="M285 -12q-107 0 -178.5 69.5t-71.5 184.5q0 112 65 183.5t175 71.5t174.5 -66t64.5 -182q0 -5 -0.5 -13.5t-1.5 -20t-1 -17.5h-350q9 -52 43 -82.5t89 -30.5q75 0 162 35l28 -85q-74 -47 -198 -47zM275 400q-44 0 -75.5 -33t-31.5 -78h221q0 51 -33.5 81t-80.5 30z
M199 547l93 151h141l-126 -151h-108z" />
    <glyph glyph-name="ecircumflex" unicode="&#xea;" horiz-adv-x="549" 
d="M285 -12q-107 0 -178.5 69.5t-71.5 184.5q0 112 65 183.5t175 71.5t174.5 -66t64.5 -182q0 -5 -0.5 -13.5t-1.5 -20t-1 -17.5h-350q9 -52 43 -82.5t89 -30.5q75 0 162 35l28 -85q-74 -47 -198 -47zM275 400q-44 0 -75.5 -33t-31.5 -78h221q0 51 -33.5 81t-80.5 30z
M203 698h142l102 -153h-104l-69 83l-68 -83h-104z" />
    <glyph glyph-name="edieresis" unicode="&#xeb;" horiz-adv-x="549" 
d="M285 -12q-107 0 -178.5 69.5t-71.5 184.5q0 112 65 183.5t175 71.5t174.5 -66t64.5 -182q0 -5 -0.5 -13.5t-1.5 -20t-1 -17.5h-350q9 -52 43 -82.5t89 -30.5q75 0 162 35l28 -85q-74 -47 -198 -47zM275 400q-44 0 -75.5 -33t-31.5 -78h221q0 51 -33.5 81t-80.5 30z
M124 564v116h123v-116h-123zM301 564v116h123v-116h-123z" />
    <glyph glyph-name="igrave" unicode="&#xec;" horiz-adv-x="249" 
d="M60 0l1 484h128v-484h-129zM96 698l93 -151h-108l-126 151h141z" />
    <glyph glyph-name="iacute" unicode="&#xed;" horiz-adv-x="249" 
d="M60 0l1 484h128v-484h-129zM61 547l93 151h141l-126 -151h-108z" />
    <glyph glyph-name="icircumflex" unicode="&#xee;" horiz-adv-x="249" 
d="M60 0l1 484h128v-484h-129zM53 698h142l102 -153h-104l-69 83l-68 -83h-104z" />
    <glyph glyph-name="idieresis" unicode="&#xef;" horiz-adv-x="249" 
d="M60 0l1 484h128v-484h-129zM-25 564v116h123v-116h-123zM152 564v116h123v-116h-123z" />
    <glyph glyph-name="eth" unicode="&#xf0;" horiz-adv-x="545" 
d="M122 476l-51 51l61 64q-25 18 -89 41l91 82q17 -9 32 -16t21.5 -10t13 -6.5t13.5 -7.5l65 65l59 -54l-58 -55q101 -76 168 -177.5t67 -212.5q0 -117 -65.5 -184t-177.5 -67t-177 67t-65 184q0 119 84 190.5t183 48.5q-48 48 -98 76zM380 240q0 60 -29 105.5t-79 45.5
q-51 0 -79 -44.5t-28 -106.5q0 -60 28 -104.5t79 -44.5q50 0 79 44.5t29 104.5z" />
    <glyph glyph-name="ntilde" unicode="&#xf1;" 
d="M504 281v-281h-129v281q0 119 -78 119q-14 0 -29.5 -4.5t-35 -15.5t-32 -36t-12.5 -60v-284h-128v484h122v-74q29 52 66 69.5t91 17.5q165 0 165 -216zM291 577l-8 4q-27 16 -47 16t-30 -43h-78q3 62 24 98t74 36q17 0 47 -16l8 -4q30 -16 47 -16q20 0 29 43h79
q-3 -62 -24 -98t-74 -36q-17 0 -47 16z" />
    <glyph glyph-name="ograve" unicode="&#xf2;" horiz-adv-x="556" 
d="M35 242q0 118 65.5 186.5t176.5 68.5q113 0 178.5 -68.5t65.5 -186.5t-65.5 -186.5t-178.5 -68.5q-111 0 -176.5 68.5t-65.5 186.5zM394 242q0 65 -31.5 112.5t-85.5 47.5q-53 0 -84 -47.5t-31 -112.5t31 -112.5t84 -47.5q54 0 85.5 48t31.5 112zM224 698l93 -151h-108
l-126 151h141z" />
    <glyph glyph-name="oacute" unicode="&#xf3;" horiz-adv-x="556" 
d="M35 242q0 118 65.5 186.5t176.5 68.5q113 0 178.5 -68.5t65.5 -186.5t-65.5 -186.5t-178.5 -68.5q-111 0 -176.5 68.5t-65.5 186.5zM394 242q0 65 -31.5 112.5t-85.5 47.5q-53 0 -84 -47.5t-31 -112.5t31 -112.5t84 -47.5q54 0 85.5 48t31.5 112zM223 547l93 151h141
l-126 -151h-108z" />
    <glyph glyph-name="ocircumflex" unicode="&#xf4;" horiz-adv-x="556" 
d="M35 242q0 118 65.5 186.5t176.5 68.5q113 0 178.5 -68.5t65.5 -186.5t-65.5 -186.5t-178.5 -68.5q-111 0 -176.5 68.5t-65.5 186.5zM394 242q0 65 -31.5 112.5t-85.5 47.5q-53 0 -84 -47.5t-31 -112.5t31 -112.5t84 -47.5q54 0 85.5 48t31.5 112zM206 698h142l102 -153
h-104l-69 83l-68 -83h-104z" />
    <glyph glyph-name="otilde" unicode="&#xf5;" horiz-adv-x="556" 
d="M35 242q0 118 65.5 186.5t176.5 68.5q113 0 178.5 -68.5t65.5 -186.5t-65.5 -186.5t-178.5 -68.5q-111 0 -176.5 68.5t-65.5 186.5zM394 242q0 65 -31.5 112.5t-85.5 47.5q-53 0 -84 -47.5t-31 -112.5t31 -112.5t84 -47.5q54 0 85.5 48t31.5 112zM287 577l-8 4
q-27 16 -47 16t-30 -43h-78q3 62 24 98t74 36q17 0 47 -16l8 -4q30 -16 47 -16q20 0 29 43h79q-3 -62 -24 -98t-74 -36q-17 0 -47 16z" />
    <glyph glyph-name="odieresis" unicode="&#xf6;" horiz-adv-x="556" 
d="M35 242q0 118 65.5 186.5t176.5 68.5q113 0 178.5 -68.5t65.5 -186.5t-65.5 -186.5t-178.5 -68.5q-111 0 -176.5 68.5t-65.5 186.5zM394 242q0 65 -31.5 112.5t-85.5 47.5q-53 0 -84 -47.5t-31 -112.5t31 -112.5t84 -47.5q54 0 85.5 48t31.5 112zM128 564v116h123v-116
h-123zM305 564v116h123v-116h-123z" />
    <glyph glyph-name="divide" unicode="&#xf7;" horiz-adv-x="549" 
d="M207 83v117h135v-117h-135zM207 450v117h135v-117h-135zM40 372h469v-99h-469v99z" />
    <glyph glyph-name="oslash" unicode="&#xf8;" horiz-adv-x="556" 
d="M381 478l32 48h87l-56 -87q77 -69 77 -197q0 -118 -65.5 -186.5t-178.5 -68.5q-57 0 -109 21l-35 -54h-87l61 94q-72 66 -72 194q0 118 65.5 186.5t176.5 68.5q59 0 104 -19zM375 331l-150 -234q23 -15 52 -15q54 0 85.5 48t31.5 112q0 50 -19 89zM177 159l148 230
q-22 13 -48 13q-53 0 -84 -47.5t-31 -112.5q0 -45 15 -83z" />
    <glyph glyph-name="ugrave" unicode="&#xf9;" 
d="M60 203v281h128v-281q0 -120 79 -120q10 0 24 3t35 11.5t35 31.5t14 56v299h129v-484h-123v55q-20 -30 -55 -46.5t-53 -19t-31 -2.5q-76 0 -129 51.5t-53 164.5zM263 698l93 -151h-108l-126 151h141z" />
    <glyph glyph-name="uacute" unicode="&#xfa;" 
d="M60 203v281h128v-281q0 -120 79 -120q10 0 24 3t35 11.5t35 31.5t14 56v299h129v-484h-123v55q-20 -30 -55 -46.5t-53 -19t-31 -2.5q-76 0 -129 51.5t-53 164.5zM188 547l93 151h141l-126 -151h-108z" />
    <glyph glyph-name="ucircumflex" unicode="&#xfb;" 
d="M60 203v281h128v-281q0 -120 79 -120q10 0 24 3t35 11.5t35 31.5t14 56v299h129v-484h-123v55q-20 -30 -55 -46.5t-53 -19t-31 -2.5q-76 0 -129 51.5t-53 164.5zM210 698h142l102 -153h-104l-69 83l-68 -83h-104z" />
    <glyph glyph-name="udieresis" unicode="&#xfc;" 
d="M60 203v281h128v-281q0 -120 79 -120q10 0 24 3t35 11.5t35 31.5t14 56v299h129v-484h-123v55q-20 -30 -55 -46.5t-53 -19t-31 -2.5q-76 0 -129 51.5t-53 164.5zM132 564v116h123v-116h-123zM309 564v116h123v-116h-123z" />
    <glyph glyph-name="yacute" unicode="&#xfd;" horiz-adv-x="560" 
d="M83 -174l15 95q1 0 12.5 -5.5t16 -7t15.5 -4t17.5 -0.5t14.5 8t14 17l33 81q-15 35 -36.5 83t-70.5 158t-104 233h135l138 -327q79 195 132 327h135l-252 -594q-21 -47 -61 -64.5t-75 -17.5t-79 18zM192 547l93 151h141l-126 -151h-108z" />
    <glyph glyph-name="thorn" unicode="&#xfe;" horiz-adv-x="571" 
d="M193 675v-246q23 37 59.5 52.5t69.5 15.5q101 0 157.5 -64.5t56.5 -190.5q0 -125 -59.5 -189t-162.5 -64q-85 0 -122 50v-231h-127v867h128zM285 399q-26 0 -59 -22.5t-33 -67.5v-137q0 -87 108 -87q53 0 77.5 45t24.5 112q0 157 -118 157z" />
    <glyph glyph-name="ydieresis" unicode="&#xff;" horiz-adv-x="560" 
d="M83 -174l15 95q1 0 12.5 -5.5t16 -7t15.5 -4t17.5 -0.5t14.5 8t14 17l33 81q-15 35 -36.5 83t-70.5 158t-104 233h135l138 -327q79 195 132 327h135l-252 -594q-21 -47 -61 -64.5t-75 -17.5t-79 18zM130 564v116h123v-116h-123zM307 564v116h123v-116h-123z" />
    <glyph glyph-name="Amacron" unicode="&#x100;" horiz-adv-x="705" 
d="M148 0h-138l280 674h125l280 -674h-138l-62 152h-287zM353 545l-107 -292h212zM219 767v97h267v-97h-267z" />
    <glyph glyph-name="amacron" unicode="&#x101;" horiz-adv-x="519" 
d="M122 577v97h267v-97h-267zM464 0h-132v55q-21 -37 -66 -52.5t-81 -15.5q-55 0 -105 38t-50 107q0 80 81 130t224 60v12q-1 40 -29 58.5t-68 15t-77 -13.5t-65 -24l-32 76l4 3q4 3 13 7.5t20.5 9.5t28 10.5t34.5 10t40.5 7t45.5 2.5q59 2 107 -15q107 -38 107 -144v-337z
M225 79q10 0 25.5 3.5t36 12t34.5 28t14 45.5v70q-81 -6 -134 -34.5t-51 -67.5q1 -28 22 -42.5t53 -14.5z" />
    <glyph glyph-name="Abreve" unicode="&#x102;" horiz-adv-x="705" 
d="M148 0h-138l280 674h125l280 -674h-138l-62 152h-287zM353 545l-107 -292h212zM353 726h-2q-76 0 -113 45.5t-37 116.5h78q5 -41 22 -60.5t51 -19.5t51 19.5t22 60.5h78q0 -71 -36.5 -116.5t-113.5 -45.5z" />
    <glyph glyph-name="abreve" unicode="&#x103;" horiz-adv-x="519" 
d="M249 536h-2q-76 0 -113 45.5t-37 116.5h78q5 -41 22 -60.5t51 -19.5t51 19.5t22 60.5h78q0 -71 -36.5 -116.5t-113.5 -45.5zM464 0h-132v55q-21 -37 -66 -52.5t-81 -15.5q-55 0 -105 38t-50 107q0 80 81 130t224 60v12q-1 40 -29 58.5t-68 15t-77 -13.5t-65 -24l-32 76
l4 3q4 3 13 7.5t20.5 9.5t28 10.5t34.5 10t40.5 7t45.5 2.5q59 2 107 -15q107 -38 107 -144v-337zM225 79q10 0 25.5 3.5t36 12t34.5 28t14 45.5v70q-81 -6 -134 -34.5t-51 -67.5q1 -28 22 -42.5t53 -14.5z" />
    <glyph glyph-name="Aogonek" unicode="&#x104;" horiz-adv-x="705" 
d="M148 0h-138l280 674h125l280 -674h-52q-44 -66 -45.5 -87t60.5 -14l47 13v-88q-39 -18 -82 -23q-65 -6 -95.5 28.5t-10.5 96.5q13 38 40 74l-62 152h-287zM353 545l-107 -292h212z" />
    <glyph glyph-name="aogonek" unicode="&#x105;" horiz-adv-x="535" 
d="M464 0h-46q-44 -66 -45.5 -87t60.5 -14l47 13v-88q-39 -18 -82 -23q-65 -6 -95.5 28.5t-10.5 96.5q13 38 40 74v55q-21 -37 -66 -52.5t-81 -15.5q-55 0 -105 38t-50 107q0 80 81 130t224 60v12q-1 41 -28.5 59t-68 14.5t-76.5 -13.5t-66 -24l-32 76l4 3q4 3 13 7.5
t20.5 9.5t28 10.5t34.5 10t40.5 7t45.5 2.5q59 2 107 -15q107 -38 107 -144v-337zM225 79q10 0 25.5 3.5t36 12t34.5 28t14 45.5v70q-81 -6 -134 -34.5t-51 -67.5q1 -28 22 -42.5t53 -14.5z" />
    <glyph glyph-name="Cacute" unicode="&#x106;" horiz-adv-x="628" 
d="M40 337q0 150 94 249t250 99q131 0 214 -43l-34 -89q-77 29 -159 29q-61 0 -107.5 -21.5t-72.5 -57.5t-39 -77.5t-13 -88.5q0 -46 13 -88t39 -78.5t72.5 -58.5t107.5 -22q77 0 162 29l31 -89q-83 -43 -214 -43q-155 0 -249.5 100.5t-94.5 249.5zM306 737l93 151h141
l-126 -151h-108z" />
    <glyph glyph-name="cacute" unicode="&#x107;" horiz-adv-x="478" 
d="M35 242q0 118 67.5 186.5t184.5 68.5q92 0 161 -36l-26 -88q-71 25 -118 25q-71 0 -107 -44.5t-36 -111.5q0 -68 36 -113t107 -45q42 0 118 27l26 -88q-69 -36 -161 -36q-117 0 -184.5 68.5t-67.5 186.5zM212 547l93 151h141l-126 -151h-108z" />
    <glyph glyph-name="Ccircumflex" unicode="&#x108;" horiz-adv-x="628" 
d="M40 337q0 150 94 249t250 99q131 0 214 -43l-34 -89q-77 29 -159 29q-61 0 -107.5 -21.5t-72.5 -57.5t-39 -77.5t-13 -88.5q0 -46 13 -88t39 -78.5t72.5 -58.5t107.5 -22q77 0 162 29l31 -89q-83 -43 -214 -43q-155 0 -249.5 100.5t-94.5 249.5zM300 888h142l102 -153
h-104l-69 83l-68 -83h-104z" />
    <glyph glyph-name="ccircumflex" unicode="&#x109;" horiz-adv-x="478" 
d="M35 242q0 118 67.5 186.5t184.5 68.5q92 0 161 -36l-26 -88q-71 25 -118 25q-71 0 -107 -44.5t-36 -111.5q0 -68 36 -113t107 -45q42 0 118 27l26 -88q-69 -36 -161 -36q-117 0 -184.5 68.5t-67.5 186.5zM198 698h142l102 -153h-104l-69 83l-68 -83h-104z" />
    <glyph glyph-name="Cdotaccent" unicode="&#x10a;" horiz-adv-x="628" 
d="M40 337q0 150 94 249t250 99q131 0 214 -43l-34 -89q-77 29 -159 29q-61 0 -107.5 -21.5t-72.5 -57.5t-39 -77.5t-13 -88.5q0 -46 13 -88t39 -78.5t72.5 -58.5t107.5 -22q77 0 162 29l31 -89q-83 -43 -214 -43q-155 0 -249.5 100.5t-94.5 249.5zM312 748v116h129v-116
h-129z" />
    <glyph glyph-name="cdotaccent" unicode="&#x10b;" horiz-adv-x="478" 
d="M35 242q0 118 67.5 186.5t184.5 68.5q92 0 161 -36l-26 -88q-71 25 -118 25q-71 0 -107 -44.5t-36 -111.5q0 -68 36 -113t107 -45q42 0 118 27l26 -88q-69 -36 -161 -36q-117 0 -184.5 68.5t-67.5 186.5zM210 558v116h129v-116h-129z" />
    <glyph glyph-name="Ccaron" unicode="&#x10c;" horiz-adv-x="628" 
d="M40 337q0 150 94 249t250 99q131 0 214 -43l-34 -89q-77 29 -159 29q-61 0 -107.5 -21.5t-72.5 -57.5t-39 -77.5t-13 -88.5q0 -46 13 -88t39 -78.5t72.5 -58.5t107.5 -22q77 0 162 29l31 -89q-83 -43 -214 -43q-155 0 -249.5 100.5t-94.5 249.5zM433 735h-142l-102 153
h104l69 -83l68 83h104z" />
    <glyph glyph-name="ccaron" unicode="&#x10d;" horiz-adv-x="478" 
d="M35 242q0 118 67.5 186.5t184.5 68.5q92 0 161 -36l-26 -88q-71 25 -118 25q-71 0 -107 -44.5t-36 -111.5q0 -68 36 -113t107 -45q42 0 118 27l26 -88q-69 -36 -161 -36q-117 0 -184.5 68.5t-67.5 186.5zM341 545h-142l-102 153h104l69 -83l68 83h104z" />
    <glyph glyph-name="Dcaron" unicode="&#x10e;" horiz-adv-x="690" 
d="M316 0h-251v674h251q162 0 253 -85.5t91 -251.5t-91 -251.5t-253 -85.5zM195 102h125q93 0 152 58.5t59 176.5q0 121 -58 178t-156 57h-122v-470zM416 735h-142l-102 153h104l69 -83l68 83h104z" />
    <glyph glyph-name="dcaron" unicode="&#x10f;" horiz-adv-x="694" 
d="M377 429v245h128v-674h-127v55q-14 -27 -46.5 -44t-53 -20.5t-32.5 -3.5q-95 0 -153 65t-58 190q0 124 62.5 189.5t161.5 65.5q31 0 66 -15.5t52 -52.5zM286 401q-118 0 -118 -159q0 -67 24 -112.5t77 -45.5q108 0 108 88v144q0 27 -11 45.5t-27.5 26t-29 10.5t-23.5 3z
M555 490l98 184h136l-128 -184h-106z" />
    <glyph glyph-name="Dcroat" unicode="&#x110;" horiz-adv-x="742" 
d="M107 674h252q162 0 252.5 -85.5t90.5 -251.5t-90.5 -251.5t-252.5 -85.5h-252v288h-97v103h97v283zM237 102h126q93 0 151.5 58.5t58.5 176.5q0 121 -57.5 178t-155.5 57h-123v-181h198v-103h-198v-186z" />
    <glyph glyph-name="dcroat" unicode="&#x111;" horiz-adv-x="585" 
d="M377 527h-136v84h136v63h128v-63h64v-84h-64v-527h-127v55q-14 -27 -46.5 -44t-53 -20.5t-32.5 -3.5q-95 0 -153 65t-58 190q0 124 62.5 189.5t161.5 65.5q31 0 66 -15.5t52 -52.5v98zM286 401q-118 0 -118 -159q0 -67 24 -112.5t77 -45.5q108 0 108 88v144
q0 27 -11 45.5t-27.5 26t-29 10.5t-23.5 3z" />
    <glyph glyph-name="Emacron" unicode="&#x112;" horiz-adv-x="587" 
d="M542 0h-477v674h470v-102h-339v-181h314v-102h-314v-187h346v-102zM160 767v97h267v-97h-267z" />
    <glyph glyph-name="emacron" unicode="&#x113;" horiz-adv-x="549" 
d="M285 -12q-107 0 -178.5 69.5t-71.5 184.5q0 112 65 183.5t175 71.5t174.5 -66t64.5 -182q0 -5 -0.5 -13.5t-1.5 -20t-1 -17.5h-350q9 -52 43 -82.5t89 -30.5q75 0 162 35l28 -85q-74 -47 -198 -47zM275 400q-44 0 -75.5 -33t-31.5 -78h221q0 51 -33.5 81t-80.5 30z
M141 577v97h267v-97h-267z" />
    <glyph glyph-name="Ebreve" unicode="&#x114;" horiz-adv-x="587" 
d="M542 0h-477v674h470v-102h-339v-181h314v-102h-314v-187h346v-102zM294 726h-2q-76 0 -113 45.5t-37 116.5h78q5 -41 22 -60.5t51 -19.5t51 19.5t22 60.5h78q0 -71 -36.5 -116.5t-113.5 -45.5z" />
    <glyph glyph-name="ebreve" unicode="&#x115;" horiz-adv-x="549" 
d="M285 -12q-107 0 -178.5 69.5t-71.5 184.5q0 112 65 183.5t175 71.5t174.5 -66t64.5 -182q0 -5 -0.5 -13.5t-1.5 -20t-1 -17.5h-350q9 -52 43 -82.5t89 -30.5q75 0 162 35l28 -85q-74 -47 -198 -47zM275 400q-44 0 -75.5 -33t-31.5 -78h221q0 51 -33.5 81t-80.5 30z
M275 536h-2q-76 0 -113 45.5t-37 116.5h78q5 -41 22 -60.5t51 -19.5t51 19.5t22 60.5h78q0 -71 -36.5 -116.5t-113.5 -45.5z" />
    <glyph glyph-name="Edotaccent" unicode="&#x116;" horiz-adv-x="587" 
d="M542 0h-477v674h470v-102h-339v-181h314v-102h-314v-187h346v-102zM229 748v116h129v-116h-129z" />
    <glyph glyph-name="edotaccent" unicode="&#x117;" horiz-adv-x="549" 
d="M285 -12q-107 0 -178.5 69.5t-71.5 184.5q0 112 65 183.5t175 71.5t174.5 -66t64.5 -182q0 -5 -0.5 -13.5t-1.5 -20t-1 -17.5h-350q9 -52 43 -82.5t89 -30.5q75 0 162 35l28 -85q-74 -47 -198 -47zM275 400q-44 0 -75.5 -33t-31.5 -78h221q0 51 -33.5 81t-80.5 30z
M210 558v116h129v-116h-129z" />
    <glyph glyph-name="Eogonek" unicode="&#x118;" horiz-adv-x="587" 
d="M542 0h-2q-44 -66 -45.5 -87t60.5 -14l47 13v-88q-39 -18 -82 -23q-65 -6 -95.5 28.5t-10.5 96.5q13 38 40 74h-389v674h470v-102h-339v-181h314v-102h-314v-187h346v-102z" />
    <glyph glyph-name="eogonek" unicode="&#x119;" horiz-adv-x="549" 
d="M362 -5q-42 -7 -77 -7q-107 0 -178.5 69.5t-71.5 184.5q0 112 65 183.5t175 71.5t174.5 -66t64.5 -182q0 -5 -0.5 -13.5t-1.5 -20t-1 -17.5h-350q9 -52 43 -82.5t89 -30.5q75 0 162 35l28 -85q-60 -65 -74 -111q-11 -36 26 -33q13 1 32 8l47 13v-88q-39 -18 -82 -23
q-65 -6 -95.5 28.5t-10.5 96.5q6 23 36 69zM275 400q-44 0 -75.5 -33t-31.5 -78h221q0 51 -33.5 81t-80.5 30z" />
    <glyph glyph-name="Ecaron" unicode="&#x11a;" horiz-adv-x="587" 
d="M542 0h-477v674h470v-102h-339v-181h314v-102h-314v-187h346v-102zM365 735h-142l-102 153h104l69 -83l68 83h104z" />
    <glyph glyph-name="ecaron" unicode="&#x11b;" horiz-adv-x="549" 
d="M285 -12q-107 0 -178.5 69.5t-71.5 184.5q0 112 65 183.5t175 71.5t174.5 -66t64.5 -182q0 -5 -0.5 -13.5t-1.5 -20t-1 -17.5h-350q9 -52 43 -82.5t89 -30.5q75 0 162 35l28 -85q-74 -47 -198 -47zM275 400q-44 0 -75.5 -33t-31.5 -78h221q0 51 -33.5 81t-80.5 30z
M346 545h-142l-102 153h104l69 -83l68 83h104z" />
    <glyph glyph-name="Gcircumflex" unicode="&#x11c;" horiz-adv-x="702" 
d="M533 269h-135v104h258v-332q-40 -23 -113.5 -38.5t-131.5 -15.5q-167 0 -269 100.5t-102 249.5q0 150 101.5 249t269.5 99q133 0 230 -61l-46 -89q-70 48 -161 48q-67 0 -119 -21.5t-82 -58t-45 -78.5t-15 -88q0 -97 65.5 -172t183.5 -75q47 0 111 18v161zM318 888h142
l102 -153h-104l-69 83l-68 -83h-104z" />
    <glyph glyph-name="gcircumflex" unicode="&#x11d;" horiz-adv-x="567" 
d="M287 84q15 0 33 4.5t38 22t20 46.5v155q0 88 -108 88q-53 0 -77 -45.5t-24 -112.5q0 -158 118 -158zM379 -16v71q-20 -34 -55.5 -51t-71.5 -17q-83 0 -150 67.5t-67 187.5q0 123 63 189t156 66q8 0 19 -1.5t32 -7t41 -21t33 -38.5v55h128v-514q0 -45 -19.5 -78
t-53.5 -50.5t-72 -25.5t-83 -8q-56 0 -110 14t-79 33l28 85q28 -16 69.5 -27.5t84.5 -14t74.5 19t32.5 66.5zM212 698h142l102 -153h-104l-69 83l-68 -83h-104z" />
    <glyph glyph-name="Gbreve" unicode="&#x11e;" horiz-adv-x="702" 
d="M533 269h-135v104h258v-332q-40 -23 -113.5 -38.5t-131.5 -15.5q-167 0 -269 100.5t-102 249.5q0 150 101.5 249t269.5 99q133 0 230 -61l-46 -89q-70 48 -161 48q-67 0 -119 -21.5t-82 -58t-45 -78.5t-15 -88q0 -97 65.5 -172t183.5 -75q47 0 111 18v161zM393 726h-2
q-76 0 -113 45.5t-37 116.5h78q5 -41 22 -60.5t51 -19.5t51 19.5t22 60.5h78q0 -71 -36.5 -116.5t-113.5 -45.5z" />
    <glyph glyph-name="gbreve" unicode="&#x11f;" horiz-adv-x="567" 
d="M287 84q15 0 33 4.5t38 22t20 46.5v155q0 88 -108 88q-53 0 -77 -45.5t-24 -112.5q0 -158 118 -158zM379 -16v71q-20 -34 -55.5 -51t-71.5 -17q-83 0 -150 67.5t-67 187.5q0 123 63 189t156 66q8 0 19 -1.5t32 -7t41 -21t33 -38.5v55h128v-514q0 -45 -19.5 -78
t-53.5 -50.5t-72 -25.5t-83 -8q-56 0 -110 14t-79 33l28 85q28 -16 69.5 -27.5t84.5 -14t74.5 19t32.5 66.5zM284 536h-2q-76 0 -113 45.5t-37 116.5h78q5 -41 22 -60.5t51 -19.5t51 19.5t22 60.5h78q0 -71 -36.5 -116.5t-113.5 -45.5z" />
    <glyph glyph-name="Gdotaccent" unicode="&#x120;" horiz-adv-x="702" 
d="M533 269h-135v104h258v-332q-40 -23 -113.5 -38.5t-131.5 -15.5q-167 0 -269 100.5t-102 249.5q0 150 101.5 249t269.5 99q133 0 230 -61l-46 -89q-70 48 -161 48q-67 0 -119 -21.5t-82 -58t-45 -78.5t-15 -88q0 -97 65.5 -172t183.5 -75q47 0 111 18v161zM336 748v116
h129v-116h-129z" />
    <glyph glyph-name="gdotaccent" unicode="&#x121;" horiz-adv-x="567" 
d="M287 84q15 0 33 4.5t38 22t20 46.5v155q0 88 -108 88q-53 0 -77 -45.5t-24 -112.5q0 -158 118 -158zM379 -16v71q-20 -34 -55.5 -51t-71.5 -17q-83 0 -150 67.5t-67 187.5q0 123 63 189t156 66q8 0 19 -1.5t32 -7t41 -21t33 -38.5v55h128v-514q0 -45 -19.5 -78
t-53.5 -50.5t-72 -25.5t-83 -8q-56 0 -110 14t-79 33l28 85q28 -16 69.5 -27.5t84.5 -14t74.5 19t32.5 66.5zM219 558v116h129v-116h-129z" />
    <glyph glyph-name="Gcommaaccent" unicode="&#x122;" horiz-adv-x="702" 
d="M533 269h-135v104h258v-332q-40 -23 -113.5 -38.5t-131.5 -15.5q-167 0 -269 100.5t-102 249.5q0 150 101.5 249t269.5 99q133 0 230 -61l-46 -89q-70 48 -161 48q-67 0 -119 -21.5t-82 -58t-45 -78.5t-15 -88q0 -97 65.5 -172t183.5 -75q47 0 111 18v161zM239 -231
l90 184h136l-120 -184h-106z" />
    <glyph glyph-name="gcommaaccent" unicode="&#x123;" horiz-adv-x="567" 
d="M287 84q15 0 33 4.5t38 22t20 46.5v155q0 88 -108 88q-53 0 -77 -45.5t-24 -112.5q0 -158 118 -158zM379 -16v71q-20 -34 -55.5 -51t-71.5 -17q-83 0 -150 67.5t-67 187.5q0 123 63 189t156 66q8 0 19 -1.5t32 -7t41 -21t33 -38.5v55h128v-514q0 -45 -19.5 -78
t-53.5 -50.5t-72 -25.5t-83 -8q-56 0 -110 14t-79 33l28 85q28 -16 69.5 -27.5t84.5 -14t74.5 19t32.5 66.5zM426 759l-98 -185h-135l126 185h107z" />
    <glyph glyph-name="Hcircumflex" unicode="&#x124;" horiz-adv-x="683" 
d="M487 304h-291v-304h-131v674h131v-267h291v267h131v-674h-131v304zM270 888h142l102 -153h-104l-69 83l-68 -83h-104z" />
    <glyph glyph-name="hcircumflex" unicode="&#x125;" 
d="M504 283v-283h-129v283q0 117 -78 117q-14 0 -29.5 -4t-35 -14.5t-32 -35.5t-12.5 -60v-286h-128v674h128v-245q23 37 61.5 52.5t71.5 15.5q183 0 183 -214zM51 888h142l102 -153h-104l-69 83l-68 -83h-104z" />
    <glyph glyph-name="Hbar" unicode="&#x126;" horiz-adv-x="683" 
d="M487 304h-291v-304h-131v674h131v-267h291v267h131v-674h-131v304zM208 767v97h267v-97h-267z" />
    <glyph glyph-name="hbar" unicode="&#x127;" horiz-adv-x="587" 
d="M15 527v84h68v63h128v-63h132v-84h-132v-98q23 37 61.5 52.5t71.5 15.5q183 0 183 -214v-283h-129v283q0 117 -78 117q-14 0 -29.5 -4t-35 -14.5t-32 -35.5t-12.5 -60v-286h-128v527h-68z" />
    <glyph glyph-name="Itilde" unicode="&#x128;" horiz-adv-x="280" 
d="M75 0v674h130v-674h-130zM149 767l-8 4q-27 16 -47 16t-30 -43h-78q3 62 24 98t74 36q17 0 47 -16l8 -4q30 -16 47 -16q20 0 29 43h79q-3 -62 -24 -98t-74 -36q-17 0 -47 16z" />
    <glyph glyph-name="itilde" unicode="&#x129;" horiz-adv-x="249" 
d="M60 0v484h129v-484h-129zM134 577l-8 4q-27 16 -47 16t-30 -43h-78q3 62 24 98t74 36q17 0 47 -16l8 -4q30 -16 47 -16q20 0 29 43h79q-3 -62 -24 -98t-74 -36q-17 0 -47 16z" />
    <glyph glyph-name="imacron" unicode="&#x12b;" horiz-adv-x="249" 
d="M60 0v484h129v-484h-129zM-9 577v97h267v-97h-267z" />
    <glyph glyph-name="Ibreve" unicode="&#x12c;" horiz-adv-x="280" 
d="M75 0v674h130v-674h-130zM141 726h-2q-76 0 -113 45.5t-37 116.5h78q5 -41 22 -60.5t51 -19.5t51 19.5t22 60.5h78q0 -71 -36.5 -116.5t-113.5 -45.5z" />
    <glyph glyph-name="Iogonek" unicode="&#x12e;" horiz-adv-x="280" 
d="M75 0v674h130v-674h-44q-44 -66 -45.5 -87t60.5 -14l47 13v-88q-39 -18 -82 -23q-65 -6 -95.5 28.5t-10.5 96.5q13 38 40 74z" />
    <glyph glyph-name="iogonek" unicode="&#x12f;" horiz-adv-x="249" 
d="M60 0v484h129v-484h-43q-44 -66 -45.5 -87t60.5 -14l47 13v-88q-39 -18 -82 -23q-65 -6 -95.5 28.5t-10.5 96.5q13 38 40 74zM60 558v116h129v-116h-129z" />
    <glyph glyph-name="Idotaccent" unicode="&#x130;" horiz-adv-x="280" 
d="M75 0v674h130v-674h-130zM75 748v116h129v-116h-129z" />
    <glyph glyph-name="dotlessi" unicode="&#x131;" horiz-adv-x="249" 
d="M60 0v484h129v-484h-129z" />
    <glyph glyph-name="IJ" unicode="&#x132;" horiz-adv-x="730" 
d="M75 0v674h130v-674h-130zM290 33l31 95q42 -23 74 -31q36 -9 63 -9q29 0 50 10q17 10 23 30.5t6 64.5v481h128v-487q0 -109 -55 -154.5t-141 -45.5q-40 0 -81 9q-40 8 -98 37z" />
    <glyph glyph-name="ij" unicode="&#x133;" horiz-adv-x="506" 
d="M60 0v484h129v-484h-129zM60 558v116h129v-116h-129zM446 484l-1 -517q0 -46 -13.5 -79t-29 -48t-41.5 -23t-37 -8.5t-29 -0.5q-45 0 -96 26l13 75q46 -17 70 -17q35 0 35 79v513h129zM317 558v116h129v-116h-129z" />
    <glyph glyph-name="Jcircumflex" unicode="&#x134;" horiz-adv-x="450" 
d="M10 33l31 95q42 -23 74 -31q36 -9 63 -9q29 0 50 10q17 10 23 30.5t6 64.5v481h128v-487q0 -109 -55 -154.5t-141 -45.5q-40 0 -81 9q-40 8 -98 37zM250 888h142l102 -153h-104l-69 83l-68 -83h-104z" />
    <glyph glyph-name="jcircumflex" unicode="&#x135;" horiz-adv-x="257" 
d="M197 484l-1 -517q0 -46 -13.5 -79t-29 -48t-41.5 -23t-37 -8.5t-29 -0.5q-45 0 -96 26l13 75q46 -17 70 -17q35 0 35 79v513h129zM56 698h142l102 -153h-104l-69 83l-68 -83h-104z" />
    <glyph glyph-name="Kcommaaccent" unicode="&#x136;" horiz-adv-x="625" 
d="M617 0h-157l-210 277l-54 -67v-210h-131v674h131v-299l227 299h150l-240 -304zM169 -231l90 184h136l-120 -184h-106z" />
    <glyph glyph-name="kcedilla" unicode="&#x137;" horiz-adv-x="525" 
d="M305 299l210 -299h-144l-150 226l-28 -26v-200h-128v674h128v-338l143 148h155zM210 10h85q31 -34 48 -84q20 -62 -10.5 -96.5t-95.5 -28.5q-43 5 -82 23v88l47 -13q62 -16 61 13q-1 23 -53 98z" />
    <glyph glyph-name="kgreenlandic" unicode="&#x138;" horiz-adv-x="525" 
d="M319 276l197 -276h-140l-135 201l-48 -50v-151h-128v484h128v-195l169 195h142z" />
    <glyph glyph-name="Lacute" unicode="&#x139;" horiz-adv-x="554" 
d="M197 674v-571h317v-103h-449v674h132zM67 737l93 151h141l-126 -151h-108z" />
    <glyph glyph-name="lacute" unicode="&#x13a;" horiz-adv-x="248" 
d="M60 0v674h129v-674h-129zM63 737l93 151h141l-126 -151h-108z" />
    <glyph glyph-name="Lcommaaccent" unicode="&#x13b;" horiz-adv-x="554" 
d="M197 674v-571h317v-103h-449v674h132zM138 -231l90 184h136l-120 -184h-106z" />
    <glyph glyph-name="lcommaaccent" unicode="&#x13c;" horiz-adv-x="249" 
d="M60 0v674h129v-674h-129zM-38 -231l90 184h136l-120 -184h-106z" />
    <glyph glyph-name="Lcaron" unicode="&#x13d;" horiz-adv-x="554" 
d="M197 674v-571h317v-103h-449v674h132zM266 490l98 184h136l-128 -184h-106z" />
    <glyph glyph-name="lcaron" unicode="&#x13e;" horiz-adv-x="390" 
d="M60 0v674h129v-674h-129zM249 490l98 184h136l-128 -184h-106z" />
    <glyph glyph-name="Ldot" unicode="&#x13f;" horiz-adv-x="554" 
d="M197 674v-571h317v-103h-449v674h132zM311 439v117h137v-117h-137z" />
    <glyph glyph-name="ldot" unicode="&#x140;" horiz-adv-x="448" 
d="M60 0v674h129v-674h-129zM261 249v117h137v-117h-137z" />
    <glyph glyph-name="Lslash" unicode="&#x141;" horiz-adv-x="604" 
d="M115 0v232l-110 -74v95l110 73v348h131v-257l109 75v-99l-109 -72v-218h318v-103h-449z" />
    <glyph glyph-name="lslash" unicode="&#x142;" horiz-adv-x="371" 
d="M250 369v-369h-129v280l-107 -74v93l107 76v299h129v-207l107 68v-96z" />
    <glyph glyph-name="Nacute" unicode="&#x143;" horiz-adv-x="689" 
d="M460 0l-265 512v-512h-130v674h173l256 -507v507h130v-674h-164zM270 737l93 151h141l-126 -151h-108z" />
    <glyph glyph-name="nacute" unicode="&#x144;" 
d="M504 281v-281h-129v281q0 119 -78 119q-14 0 -29.5 -4.5t-35 -15.5t-32 -36t-12.5 -60v-284h-128v484h122v-74q29 52 66 69.5t91 17.5q165 0 165 -216zM194 547l93 151h141l-126 -151h-108z" />
    <glyph glyph-name="Ncommaaccent" unicode="&#x145;" horiz-adv-x="689" 
d="M460 0l-265 512v-512h-130v674h173l256 -507v507h130v-674h-164zM171 -231l90 184h136l-120 -184h-106z" />
    <glyph glyph-name="ncommaaccent" unicode="&#x146;" 
d="M504 281v-281h-129v281q0 119 -78 119q-14 0 -29.5 -4.5t-35 -15.5t-32 -36t-12.5 -60v-284h-128v484h122v-74q29 52 66 69.5t91 17.5q165 0 165 -216zM125 -231l90 184h136l-120 -184h-106z" />
    <glyph glyph-name="Ncaron" unicode="&#x147;" horiz-adv-x="689" 
d="M460 0l-265 512v-512h-130v674h173l256 -507v507h130v-674h-164zM416 735h-142l-102 153h104l69 -83l68 83h104z" />
    <glyph glyph-name="ncaron" unicode="&#x148;" 
d="M504 281v-281h-129v281q0 119 -78 119q-14 0 -29.5 -4.5t-35 -15.5t-32 -36t-12.5 -60v-284h-128v484h122v-74q29 52 66 69.5t91 17.5q165 0 165 -216zM353 545h-142l-102 153h104l69 -83l68 83h104z" />
    <glyph glyph-name="Eng" unicode="&#x14a;" horiz-adv-x="689" 
d="M386 -194v101q7 -1 31 -1q46 0 62.5 22t16.5 72l-301 512v-512h-130v674h173l256 -456v456h130v-669q0 -109 -55 -154.5t-141 -45.5q-6 0 -22 0.5t-20 0.5z" />
    <glyph glyph-name="eng" unicode="&#x14b;" 
d="M504 281v-276q0 -109 -55 -154.5t-141 -45.5q-6 0 -22 0.5t-20 0.5v101q7 -1 31 -1q46 0 62.5 22t15.5 72v281q0 119 -78 119q-14 0 -29.5 -4.5t-35 -15.5t-32 -36t-12.5 -60v-284h-128v484h122v-74q29 52 66 69.5t91 17.5q165 0 165 -216z" />
    <glyph glyph-name="Omacron" unicode="&#x14c;" horiz-adv-x="743" 
d="M371 -13q-154 0 -242.5 93t-88.5 257q0 163 88.5 255.5t242.5 92.5t243 -92.5t89 -255.5q0 -164 -89 -257t-243 -93zM371 585q-94 0 -144.5 -71t-50.5 -177q0 -110 50.5 -180t144.5 -70q95 0 145.5 70t50.5 180q0 106 -51 177t-145 71zM238 767v97h267v-97h-267z" />
    <glyph glyph-name="omacron" unicode="&#x14d;" horiz-adv-x="556" 
d="M35 242q0 118 65.5 186.5t176.5 68.5q113 0 178.5 -68.5t65.5 -186.5t-65.5 -186.5t-178.5 -68.5q-111 0 -176.5 68.5t-65.5 186.5zM394 242q0 65 -31.5 112.5t-85.5 47.5q-53 0 -84 -47.5t-31 -112.5t31 -112.5t84 -47.5q54 0 85.5 48t31.5 112zM144 577v97h267v-97
h-267z" />
    <glyph glyph-name="Obreve" unicode="&#x14e;" horiz-adv-x="743" 
d="M371 -13q-154 0 -242.5 93t-88.5 257q0 163 88.5 255.5t242.5 92.5t243 -92.5t89 -255.5q0 -164 -89 -257t-243 -93zM371 585q-94 0 -144.5 -71t-50.5 -177q0 -110 50.5 -180t144.5 -70q95 0 145.5 70t50.5 180q0 106 -51 177t-145 71zM372 726h-2q-76 0 -113 45.5
t-37 116.5h78q5 -41 22 -60.5t51 -19.5t51 19.5t22 60.5h78q0 -71 -36.5 -116.5t-113.5 -45.5z" />
    <glyph glyph-name="obreve" unicode="&#x14f;" horiz-adv-x="556" 
d="M35 242q0 118 65.5 186.5t176.5 68.5q113 0 178.5 -68.5t65.5 -186.5t-65.5 -186.5t-178.5 -68.5q-111 0 -176.5 68.5t-65.5 186.5zM394 242q0 65 -31.5 112.5t-85.5 47.5q-53 0 -84 -47.5t-31 -112.5t31 -112.5t84 -47.5q54 0 85.5 48t31.5 112zM279 536h-2
q-76 0 -113 45.5t-37 116.5h78q5 -41 22 -60.5t51 -19.5t51 19.5t22 60.5h78q0 -71 -36.5 -116.5t-113.5 -45.5z" />
    <glyph glyph-name="Ohungarumlaut" unicode="&#x150;" horiz-adv-x="743" 
d="M371 -13q-154 0 -242.5 93t-88.5 257q0 163 88.5 255.5t242.5 92.5t243 -92.5t89 -255.5q0 -164 -89 -257t-243 -93zM371 585q-94 0 -144.5 -71t-50.5 -177q0 -110 50.5 -180t144.5 -70q95 0 145.5 70t50.5 180q0 106 -51 177t-145 71zM222 737l93 151h141l-126 -151
h-108zM408 737l93 151h141l-126 -151h-108z" />
    <glyph glyph-name="ohungarumlaut" unicode="&#x151;" horiz-adv-x="556" 
d="M35 242q0 118 65.5 186.5t176.5 68.5q113 0 178.5 -68.5t65.5 -186.5t-65.5 -186.5t-178.5 -68.5q-111 0 -176.5 68.5t-65.5 186.5zM394 242q0 65 -31.5 112.5t-85.5 47.5q-53 0 -84 -47.5t-31 -112.5t31 -112.5t84 -47.5q54 0 85.5 48t31.5 112zM109 547l93 151h141
l-126 -151h-108zM295 547l93 151h141l-126 -151h-108z" />
    <glyph glyph-name="OE" unicode="&#x152;" horiz-adv-x="1090" 
d="M371 585q-94 0 -145 -71t-51 -177q0 -110 50.5 -179t145.5 -69t145 69t50 179q0 106 -50.5 177t-144.5 71zM567 0v76q-36 -43 -93.5 -65t-117.5 -22q-144 0 -230 92.5t-86 255.5q0 161 87.5 254.5t228.5 93.5q137 0 211 -87v76h471v-102h-339v-181h314v-102h-314v-187
h346v-102h-478z" />
    <glyph glyph-name="oe" unicode="&#x153;" horiz-adv-x="906" 
d="M636 -13q-51 0 -98.5 19.5t-76.5 52.5q-55 -72 -183 -72q-112 0 -177.5 68.5t-65.5 186.5t65.5 186.5t177.5 68.5q114 0 178 -81q26 38 73.5 59.5t102.5 21.5q110 0 174.5 -66t64.5 -182l-3 -51l-344 -3q5 -46 28.5 -74t54.5 -36.5t71 -5.5t73.5 12t67.5 23l20 -81
q-31 -18 -86 -32t-117 -14zM394 242q0 65 -31 112.5t-85 47.5t-84.5 -47.5t-30.5 -112.5t30.5 -113t84.5 -48q53 0 84.5 48.5t31.5 112.5zM632 400q-87 0 -104 -116h214q-13 116 -110 116z" />
    <glyph glyph-name="Racute" unicode="&#x154;" horiz-adv-x="634" 
d="M221 737l93 151h141l-126 -151h-108zM583 459q0 -10 -3.5 -26.5t-14 -43.5t-36.5 -53t-64 -41q48 -16 70 -74l81 -221h-137l-62 171q-29 88 -101 88h-120v-259h-131v674h299q64 0 109.5 -20t68 -53.5t32 -68t9.5 -73.5zM196 361h171q47 0 67 31.5t20 65.5q0 48 -23.5 81
t-72.5 33h-162v-211z" />
    <glyph glyph-name="racute" unicode="&#x155;" horiz-adv-x="365" 
d="M353 492v-100h-54q-53 0 -80 -30.5t-27 -83.5v-278h-127v484h123v-78q36 86 127 86h38zM65 547l93 151h141l-126 -151h-108z" />
    <glyph glyph-name="Rcommaaccent" unicode="&#x156;" horiz-adv-x="634" 
d="M169 -231l90 184h136l-120 -184h-106zM583 459q0 -10 -3.5 -26.5t-14 -43.5t-36.5 -53t-64 -41q48 -16 70 -74l81 -221h-137l-62 171q-29 88 -101 88h-120v-259h-131v674h299q64 0 109.5 -20t68 -53.5t32 -68t9.5 -73.5zM196 361h171q47 0 67 31.5t20 65.5q0 48 -23.5 81
t-72.5 33h-162v-211z" />
    <glyph glyph-name="rcommaaccent" unicode="&#x157;" horiz-adv-x="365" 
d="M353 492v-100h-54q-53 0 -80 -30.5t-27 -83.5v-278h-127v484h123v-78q36 86 127 86h38zM-25 -231l90 184h136l-120 -184h-106z" />
    <glyph glyph-name="Rcaron" unicode="&#x158;" horiz-adv-x="634" 
d="M388 735h-142l-102 153h104l69 -83l68 83h104zM583 459q0 -10 -3.5 -26.5t-14 -43.5t-36.5 -53t-64 -41q48 -16 70 -74l81 -221h-137l-62 171q-29 88 -101 88h-120v-259h-131v674h299q64 0 109.5 -20t68 -53.5t32 -68t9.5 -73.5zM196 361h171q47 0 67 31.5t20 65.5
q0 48 -23.5 81t-72.5 33h-162v-211z" />
    <glyph glyph-name="rcaron" unicode="&#x159;" horiz-adv-x="365" 
d="M353 492v-100h-54q-53 0 -80 -30.5t-27 -83.5v-278h-127v484h123v-78q36 86 127 86h38zM254 545h-142l-102 153h104l69 -83l68 83h104z" />
    <glyph glyph-name="Sacute" unicode="&#x15a;" horiz-adv-x="590" 
d="M418 665q56 -20 113 -62l-46 -90q-92 71 -199 71q-42 0 -70.5 -20.5t-33.5 -50.5q-6 -55 75 -87l171 -67q132 -52 132 -168q0 -43 -21 -89q-25 -54 -85 -83.5t-143 -29.5q-87 0 -144 22q-89 33 -137 77l54 90q42 -37 105.5 -61t122.5 -24q84 0 113 62q12 31 -3.5 58
t-49.5 43q-22 8 -86 33.5t-100 38.5q-72 28 -105.5 73t-33.5 93q0 13 2 29q12 73 78 117.5t165 44.5q60 0 126 -20zM230 737l93 151h141l-126 -151h-108z" />
    <glyph glyph-name="sacute" unicode="&#x15b;" horiz-adv-x="476" 
d="M251 86q23 0 42 9.5t26 24.5q12 30 -17 44q-1 0 -153 57q-106 45 -106 127q0 69 57 109t136 40q103 0 195 -62l-46 -86q-4 2 -20.5 11t-24 13t-23 11.5t-26 10.5t-24.5 6t-26 3q-28 0 -49 -14.5t-23 -32.5q-2 -20 11 -29.5t49 -21.5q8 -2 13 -4q34 -11 101 -36
q103 -43 103 -126q0 -73 -54 -112t-143 -39q-53 0 -110 17q-60 17 -109 61l52 85q76 -66 169 -66zM167 547l93 151h141l-126 -151h-108z" />
    <glyph glyph-name="Scircumflex" unicode="&#x15c;" horiz-adv-x="590" 
d="M418 665q56 -20 113 -62l-46 -90q-92 71 -199 71q-42 0 -70.5 -20.5t-33.5 -50.5q-6 -55 75 -87l171 -67q132 -52 132 -168q0 -43 -21 -89q-25 -54 -85 -83.5t-143 -29.5q-87 0 -144 22q-89 33 -137 77l54 90q42 -37 105.5 -61t122.5 -24q84 0 113 62q12 31 -3.5 58
t-49.5 43q-22 8 -86 33.5t-100 38.5q-72 28 -105.5 73t-33.5 93q0 88 73 139.5t172 51.5q60 0 126 -20zM223 888h142l102 -153h-104l-69 83l-68 -83h-104z" />
    <glyph glyph-name="scircumflex" unicode="&#x15d;" horiz-adv-x="476" 
d="M251 86q23 0 42 9.5t26 24.5q12 30 -17 44q-1 0 -153 57q-106 45 -106 127q0 69 57 109t136 40q103 0 195 -62l-46 -86q-4 2 -20.5 11t-24 13t-23 11.5t-26 10.5t-24.5 6t-26 3q-28 0 -49 -14.5t-23 -32.5q-2 -20 11 -29.5t49 -21.5q8 -2 13 -4q34 -11 101 -36
q103 -43 103 -126q0 -35 -16 -65q-20 -41 -67.5 -63.5t-113.5 -22.5q-53 0 -110 17q-60 17 -109 61l52 85q76 -66 169 -66zM166 698h142l102 -153h-104l-69 83l-68 -83h-104z" />
    <glyph glyph-name="Scedilla" unicode="&#x15e;" horiz-adv-x="590" 
d="M338 -10q24 -34 33 -64q20 -62 -10.5 -96.5t-95.5 -28.5q-43 5 -82 23v88l47 -13q21 -5 34.5 -5.5t19.5 4.5t6.5 13t-5 21t-13.5 27t-21 33q-49 5 -84 19q-89 33 -137 77l54 90q42 -37 105.5 -61t122.5 -24q84 0 113 62q12 31 -3.5 58t-49.5 43q-22 8 -86 33.5t-100 38.5
q-72 28 -105.5 73t-33.5 93q0 47 22.5 85t58.5 60.5t78 34t86 11.5q60 0 126 -20q56 -20 113 -62l-46 -90q-92 71 -199 71q-42 0 -70.5 -20.5t-33.5 -50.5q-6 -55 75 -87l171 -67q132 -52 132 -168q0 -92 -64 -143t-158 -58z" />
    <glyph glyph-name="scedilla" unicode="&#x15f;" horiz-adv-x="476" 
d="M285 -9q25 -35 34 -65q20 -62 -10.5 -96.5t-95.5 -28.5q-43 5 -82 23v88l47 -13q22 -5 35.5 -5.5t19.5 5t6.5 13t-5.5 21t-14.5 27.5t-21.5 33q-40 6 -59 13q-60 17 -109 61l52 85q76 -66 169 -66q23 0 42 9.5t26 24.5q12 30 -17 44q-1 0 -153 57q-106 45 -106 127
q0 69 57 109t136 40q103 0 195 -62l-46 -86q-4 2 -20.5 11t-24 13t-23 11.5t-26 10.5t-24.5 6t-26 3q-28 0 -49 -14.5t-23 -32.5q-2 -20 11 -29.5t49 -21.5q8 -2 13 -4q34 -11 101 -36q103 -43 103 -126q0 -64 -43.5 -102t-117.5 -47z" />
    <glyph glyph-name="Scaron" unicode="&#x160;" horiz-adv-x="590" 
d="M418 665q56 -20 113 -62l-46 -90q-92 71 -199 71q-42 0 -70.5 -20.5t-33.5 -50.5q-6 -55 75 -87l171 -67q132 -52 132 -168q0 -97 -67.5 -149.5t-181.5 -52.5q-87 0 -144 22q-89 33 -137 77l54 90q42 -37 105.5 -61t122.5 -24q84 0 113 62q12 31 -3.5 58t-49.5 43
q-22 8 -86 33.5t-100 38.5q-72 28 -105.5 73t-33.5 93q0 13 2 29q12 73 78 117.5t165 44.5q60 0 126 -20zM366 735h-142l-102 153h104l69 -83l68 83h104z" />
    <glyph glyph-name="scaron" unicode="&#x161;" horiz-adv-x="476" 
d="M251 86q23 0 42 9.5t26 24.5q12 30 -17 44q-1 0 -153 57q-106 45 -106 127q0 69 57 109t136 40q103 0 195 -62l-46 -86q-4 2 -20.5 11t-24 13t-23 11.5t-26 10.5t-24.5 6t-26 3q-28 0 -49 -14.5t-23 -32.5q-2 -20 11 -29.5t49 -21.5q8 -2 13 -4q34 -11 101 -36
q103 -43 103 -126q0 -73 -54 -112t-143 -39q-53 0 -110 17q-60 17 -109 61l52 85q76 -66 169 -66zM309 545h-142l-102 153h104l69 -83l68 83h104z" />
    <glyph glyph-name="Tcommaaccent" unicode="&#x162;" horiz-adv-x="566" 
d="M556 572h-208v-572h-130v572h-208v102h546v-102zM122 -231l90 184h136l-120 -184h-106z" />
    <glyph glyph-name="tcommaaccent" unicode="&#x163;" horiz-adv-x="353" 
d="M88 399h-76v85h76v116h127v-116h106v-85h-106v-250q0 -65 44 -65q18 0 64 14l10 -86q-47 -24 -92 -24q-20 0 -31 0.5t-37.5 8.5t-42 23t-29 48t-13.5 79v252zM50 -231l90 184h136l-120 -184h-106z" />
    <glyph glyph-name="Tcaron" unicode="&#x164;" horiz-adv-x="566" 
d="M556 572h-208v-572h-130v572h-208v102h546v-102zM354 735h-142l-102 153h104l69 -83l68 83h104z" />
    <glyph glyph-name="tcaron" unicode="&#x165;" horiz-adv-x="444" 
d="M88 399h-76v85h76v116h127v-116h106v-85h-106v-250q0 -65 44 -65q18 0 64 14l10 -86q-47 -24 -92 -24q-20 0 -31 0.5t-37.5 8.5t-42 23t-29 48t-13.5 79v252zM278 550l98 184h136l-128 -184h-106z" />
    <glyph glyph-name="Tbar" unicode="&#x166;" horiz-adv-x="566" 
d="M556 572h-208v-572h-130v572h-208v102h546v-102zM149 767v97h267v-97h-267z" />
    <glyph glyph-name="tbar" unicode="&#x167;" horiz-adv-x="353" 
d="M88 229h-69v77h69v93h-76v85h76v116h127v-116h106v-85h-106v-93h78v-77h-78v-80q0 -65 44 -65q18 0 64 14l10 -86q-47 -24 -92 -24q-20 0 -31 0.5t-37.5 8.5t-42 23t-29 48t-13.5 79v82z" />
    <glyph glyph-name="Utilde" unicode="&#x168;" horiz-adv-x="708" 
d="M354 -13q-140 0 -214.5 72.5t-74.5 241.5v373h132v-375q0 -106 37 -154t120 -48q84 0 121 48t37 154v375h131v-373q0 -171 -73.5 -242.5t-215.5 -71.5zM363 767l-8 4q-27 16 -47 16t-30 -43h-78q3 62 24 98t74 36q17 0 47 -16l8 -4q30 -16 47 -16q20 0 29 43h79
q-3 -62 -24 -98t-74 -36q-17 0 -47 16z" />
    <glyph glyph-name="utilde" unicode="&#x169;" 
d="M60 203v281h128v-281q0 -120 79 -120q10 0 24 3t35 11.5t35 31.5t14 56v299h129v-484h-123v55q-20 -30 -55 -46.5t-53 -19t-31 -2.5q-76 0 -129 51.5t-53 164.5zM291 577l-8 4q-27 16 -47 16t-30 -43h-78q3 62 24 98t74 36q17 0 47 -16l8 -4q30 -16 47 -16q20 0 29 43h79
q-3 -62 -24 -98t-74 -36q-17 0 -47 16z" />
    <glyph glyph-name="Umacron" unicode="&#x16a;" horiz-adv-x="708" 
d="M354 -13q-140 0 -214.5 72.5t-74.5 241.5v373h132v-375q0 -106 37 -154t120 -48q84 0 121 48t37 154v375h131v-373q0 -171 -73.5 -242.5t-215.5 -71.5zM220 767v97h267v-97h-267z" />
    <glyph glyph-name="umacron" unicode="&#x16b;" 
d="M60 203v281h128v-281q0 -120 79 -120q10 0 24 3t35 11.5t35 31.5t14 56v299h129v-484h-123v55q-20 -30 -55 -46.5t-53 -19t-31 -2.5q-76 0 -129 51.5t-53 164.5zM148 577v97h267v-97h-267z" />
    <glyph glyph-name="Ubreve" unicode="&#x16c;" horiz-adv-x="708" 
d="M354 -13q-140 0 -214.5 72.5t-74.5 241.5v373h132v-375q0 -106 37 -154t120 -48q84 0 121 48t37 154v375h131v-373q0 -171 -73.5 -242.5t-215.5 -71.5zM355 726h-2q-76 0 -113 45.5t-37 116.5h78q5 -41 22 -60.5t51 -19.5t51 19.5t22 60.5h78q0 -71 -36.5 -116.5
t-113.5 -45.5z" />
    <glyph glyph-name="ubreve" unicode="&#x16d;" 
d="M60 203v281h128v-281q0 -120 79 -120q10 0 24 3t35 11.5t35 31.5t14 56v299h129v-484h-123v55q-20 -30 -55 -46.5t-53 -19t-31 -2.5q-76 0 -129 51.5t-53 164.5zM283 536h-2q-76 0 -113 45.5t-37 116.5h78q5 -41 22 -60.5t51 -19.5t51 19.5t22 60.5h78
q0 -71 -36.5 -116.5t-113.5 -45.5z" />
    <glyph glyph-name="Uring" unicode="&#x16e;" horiz-adv-x="708" 
d="M354 -13q-140 0 -214.5 72.5t-74.5 241.5v373h132v-375q0 -106 37 -154t120 -48q84 0 121 48t37 154v375h131v-373q0 -171 -73.5 -242.5t-215.5 -71.5zM237 849q0 48 29 80t87 32q62 0 89.5 -31t27.5 -81q0 -49 -27.5 -79.5t-89.5 -30.5q-58 0 -87 32t-29 78zM309 850
q0 -42 44 -42q45 0 45 42t-45 42q-44 0 -44 -42z" />
    <glyph glyph-name="uring" unicode="&#x16f;" 
d="M60 203v281h128v-281q0 -120 79 -120q10 0 24 3t35 11.5t35 31.5t14 56v299h129v-484h-123v55q-20 -30 -55 -46.5t-53 -19t-31 -2.5q-76 0 -129 51.5t-53 164.5zM165 659q0 48 29 80t87 32q62 0 89.5 -31t27.5 -81q0 -49 -27.5 -79.5t-89.5 -30.5q-58 0 -87 32t-29 78z
M237 660q0 -42 44 -42q45 0 45 42t-45 42q-44 0 -44 -42z" />
    <glyph glyph-name="Uhungarumlaut" unicode="&#x170;" horiz-adv-x="708" 
d="M354 -13q-140 0 -214.5 72.5t-74.5 241.5v373h132v-375q0 -106 37 -154t120 -48q84 0 121 48t37 154v375h131v-373q0 -171 -73.5 -242.5t-215.5 -71.5zM165 737l93 151h141l-126 -151h-108zM351 737l93 151h141l-126 -151h-108z" />
    <glyph glyph-name="uhungarumlaut" unicode="&#x171;" 
d="M60 203v281h128v-281q0 -120 79 -120q10 0 24 3t35 11.5t35 31.5t14 56v299h129v-484h-123v55q-20 -30 -55 -46.5t-53 -19t-31 -2.5q-76 0 -129 51.5t-53 164.5zM100 547l93 151h141l-126 -151h-108zM286 547l93 151h141l-126 -151h-108z" />
    <glyph glyph-name="Uogonek" unicode="&#x172;" horiz-adv-x="708" 
d="M393 -11q-13 -18 -21 -32t-13 -26.5t-4.5 -20t6.5 -12.5t20 -4.5t35 5.5l47 13v-88q-39 -18 -82 -23q-65 -6 -95.5 28.5t-10.5 96.5q9 31 32 63q-118 10 -180 83t-62 229v373h132v-375q0 -106 37 -154t120 -48q84 0 121 48t37 154v375h131v-373q0 -158 -63.5 -230.5
t-186.5 -81.5z" />
    <glyph glyph-name="uogonek" unicode="&#x173;" 
d="M60 203v281h128v-281q0 -120 79 -120q10 0 24 3t35 11.5t35 31.5t14 56v299h129v-484h-35q-44 -66 -45.5 -87t60.5 -14l47 13v-88q-39 -18 -82 -23q-65 -6 -95.5 28.5t-10.5 96.5q13 38 40 74h-2v55q-20 -30 -55 -46.5t-53 -19t-31 -2.5q-76 0 -129 51.5t-53 164.5z" />
    <glyph glyph-name="Wcircumflex" unicode="&#x174;" horiz-adv-x="953" 
d="M540 650l133 -474l134 498h136l-206 -674h-127l-133 464l-134 -464h-127l-206 674h135l135 -497l133 473h127zM405 888h142l102 -153h-104l-69 83l-68 -83h-104z" />
    <glyph glyph-name="wcircumflex" unicode="&#x175;" horiz-adv-x="806" 
d="M10 484h135l96 -342l95 342h134l96 -341l96 341h134l-168 -484h-115l-110 343l-108 -343h-116zM331 698h142l102 -153h-104l-69 83l-68 -83h-104z" />
    <glyph glyph-name="Ycircumflex" unicode="&#x176;" horiz-adv-x="671" 
d="M403 0h-134v236l-259 438h151l175 -341l174 341h151l-258 -437v-237zM264 888h142l102 -153h-104l-69 83l-68 -83h-104z" />
    <glyph glyph-name="ycircumflex" unicode="&#x177;" horiz-adv-x="560" 
d="M83 -174l15 95q1 0 12.5 -5.5t16 -7t15.5 -4t17.5 -0.5t14.5 8t14 17l33 81q-15 35 -36.5 83t-70.5 158t-104 233h135l138 -327q79 195 132 327h135l-252 -594q-21 -47 -61 -64.5t-75 -17.5t-79 18zM208 698h142l102 -153h-104l-69 83l-68 -83h-104z" />
    <glyph glyph-name="Ydieresis" unicode="&#x178;" horiz-adv-x="671" 
d="M403 0h-134v236l-259 438h151l175 -341l174 341h151l-258 -437v-237zM185 754v116h123v-116h-123zM362 754v116h123v-116h-123z" />
    <glyph glyph-name="Zacute" unicode="&#x179;" horiz-adv-x="612" 
d="M565 0h-535v99l384 473h-368v102h536v-96l-390 -474h373v-104zM241 737l93 151h141l-126 -151h-108z" />
    <glyph glyph-name="zacute" unicode="&#x17a;" horiz-adv-x="479" 
d="M25 0v83l270 305h-260v96h419v-83l-270 -305h261v-96h-420zM161 547l93 151h141l-126 -151h-108z" />
    <glyph glyph-name="Zdotaccent" unicode="&#x17b;" horiz-adv-x="612" 
d="M565 0h-535v99l384 473h-368v102h536v-96l-390 -474h373v-104zM241 748v116h129v-116h-129z" />
    <glyph glyph-name="zdotaccent" unicode="&#x17c;" horiz-adv-x="479" 
d="M25 0v83l270 305h-260v96h419v-83l-270 -305h261v-96h-420zM175 558v116h129v-116h-129z" />
    <glyph glyph-name="Zcaron" unicode="&#x17d;" horiz-adv-x="612" 
d="M565 0h-535v99l384 473h-368v102h536v-96l-390 -474h373v-104zM377 735h-142l-102 153h104l69 -83l68 83h104z" />
    <glyph glyph-name="zcaron" unicode="&#x17e;" horiz-adv-x="479" 
d="M25 0v83l270 305h-260v96h419v-83l-270 -305h261v-96h-420zM311 545h-142l-102 153h104l69 -83l68 83h104z" />
    <glyph glyph-name="longs" unicode="&#x17f;" horiz-adv-x="247" 
d="M16 484h60v72q0 42 13 68.5t35.5 36t35.5 11.5t30 2h3q31 0 74 -23l-12 -67q-44 15 -53 15q-16 0 -16 -32v-567h-110v410h-60v74z" />
    <glyph glyph-name="florin" unicode="&#x192;" horiz-adv-x="572" 
d="M130 -35l108 430h-56l22 89h57l9 33q41 158 185 156h4q42 0 88 -28l-20 -82q-38 18 -71 18q-10 0 -18 -3.5t-12.5 -7t-9.5 -12t-6.5 -12.5t-5 -14t-4.5 -11l-9 -37h89l-22 -89h-90l-108 -426q-42 -157 -188 -157q-40 0 -87 29l19 83q55 -18 71 -18q40 0 55 59z" />
    <glyph glyph-name="Aringacute" unicode="&#x1fa;" horiz-adv-x="705" 
d="M148 0h-138l280 674h125l280 -674h-138l-62 152h-287zM353 545l-107 -292h212zM237 828q0 48 29 80t87 32q62 0 89.5 -31t27.5 -81q0 -49 -27.5 -79.5t-89.5 -30.5q-58 0 -87 32t-29 78zM309 829q0 -42 44 -42q45 0 45 42t-45 42q-44 0 -44 -42zM297 976l93 151h141
l-126 -151h-108z" />
    <glyph glyph-name="aringacute" unicode="&#x1fb;" horiz-adv-x="519" 
d="M134 642q0 48 29 80t87 32q62 0 89.5 -31t27.5 -81q0 -49 -27.5 -79.5t-89.5 -30.5q-58 0 -87 32t-29 78zM206 643q0 -42 44 -42q45 0 45 42t-45 42q-44 0 -44 -42zM194 790l93 151h141l-126 -151h-108zM464 0h-132v55q-21 -37 -66 -52.5t-81 -15.5q-55 0 -105 38
t-50 107q0 80 81 130t224 60v12q-1 40 -29 58.5t-68 15t-77 -13.5t-65 -24l-32 76l4 3q4 3 13 7.5t20.5 9.5t28 10.5t34.5 10t40.5 7t45.5 2.5q59 2 107 -15q107 -38 107 -144v-337zM225 79q10 0 25.5 3.5t36 12t34.5 28t14 45.5v70q-81 -6 -134 -34.5t-51 -67.5
q1 -28 22 -42.5t53 -14.5z" />
    <glyph glyph-name="AEacute" unicode="&#x1fc;" horiz-adv-x="954" 
d="M432 582l-163 -329h163v329zM563 102h346v-102h-477v152h-203l-74 -152h-145l338 674h554v-102h-338v-181h314v-102h-315v-187zM360 737l93 151h141l-126 -151h-108z" />
    <glyph glyph-name="aeacute" unicode="&#x1fd;" horiz-adv-x="852" 
d="M588 -12q-154 0 -211 88q-43 -89 -185 -89q-55 0 -105 38t-50 107q0 80 81 130t224 60v12q-1 40 -29 58.5t-68 15t-77 -13.5t-65 -24l-32 76l4 3q4 3 13 7.5t20.5 9.5t28 10.5t34.5 10t40.5 7t45.5 2.5q34 2 63 -4q68 -14 102 -63q56 68 171 68q96 0 160 -67.5t64 -180.5
l-3 -51h-350q9 -52 43 -82.5t89 -30.5q75 0 162 35l28 -85q-74 -47 -198 -47zM232 79q10 0 25.5 3.5t36 12t34.5 28t14 45.5v23v46q-79 -6 -133 -34.5t-52 -66.5q1 -28 22 -42.5t53 -14.5zM578 400q-43 0 -77.5 -32t-36.5 -75v-4h228q0 51 -33.5 81t-80.5 30zM354 547
l93 151h141l-126 -151h-108z" />
    <glyph glyph-name="Oslashacute" unicode="&#x1fe;" horiz-adv-x="743" 
d="M314 737l93 151h141l-126 -151h-108zM212 178l246 386q-40 21 -87 21q-94 0 -144.5 -71t-50.5 -177q0 -95 36 -159zM59 -55l83 123q-102 94 -102 269q0 163 88.5 255.5t242.5 92.5q83 0 147 -27l40 64h96l-66 -106q115 -95 115 -279q0 -164 -89 -257t-243 -93
q-87 0 -161 33l-53 -75h-98zM520 508l-251 -393q43 -28 102 -28q95 0 145.5 70t50.5 180q0 104 -47 171z" />
    <glyph glyph-name="oslashacute" unicode="&#x1ff;" horiz-adv-x="556" 
d="M212 547l93 151h141l-126 -151h-108zM381 478l32 48h87l-56 -87q77 -69 77 -197q0 -118 -65.5 -186.5t-178.5 -68.5q-57 0 -109 21l-35 -54h-87l61 94q-72 66 -72 194q0 118 65.5 186.5t176.5 68.5q59 0 104 -19zM375 331l-150 -234q23 -15 52 -15q54 0 85.5 48t31.5 112
q0 50 -19 89zM177 159l148 230q-22 13 -48 13q-53 0 -84 -47.5t-31 -112.5q0 -45 15 -83z" />
    <glyph glyph-name="Scommaaccent" unicode="&#x218;" horiz-adv-x="590" 
d="M418 665q56 -20 113 -62l-46 -90q-92 71 -199 71q-42 0 -70.5 -20.5t-33.5 -50.5q-6 -55 75 -87l171 -67q132 -52 132 -168q0 -94 -73.5 -148t-175.5 -54q-87 0 -144 22q-89 33 -137 77l54 90q42 -37 105.5 -61t122.5 -24q84 0 113 62q12 31 -3.5 58t-49.5 43
q-22 8 -86 33.5t-100 38.5q-72 28 -105.5 73t-33.5 93q0 88 73 139.5t172 51.5q60 0 126 -20zM158 -231l90 184h136l-120 -184h-106z" />
    <glyph glyph-name="scommaaccent" unicode="&#x219;" horiz-adv-x="476" 
d="M251 86q23 0 42 9.5t26 24.5q12 30 -17 44q-1 0 -153 57q-106 45 -106 127q0 69 57 109t136 40q103 0 195 -62l-46 -86q-4 2 -20.5 11t-24 13t-23 11.5t-26 10.5t-24.5 6t-26 3q-28 0 -49 -14.5t-23 -32.5q-2 -20 11 -29.5t49 -21.5q8 -2 13 -4q34 -11 101 -36
q103 -43 103 -126q0 -35 -16 -65q-20 -41 -67.5 -63.5t-113.5 -22.5q-53 0 -110 17q-60 17 -109 61l52 85q76 -66 169 -66zM92 -231l90 184h136l-120 -184h-106z" />
    <glyph glyph-name="hsuperior" unicode="&#x2b0;" horiz-adv-x="351" 
d="M316 577v-177h-92v177q0 68 -41 68q-11 0 -22.5 -3.5t-24.5 -19.5t-13 -43v-179h-92v420h92v-148q29 40 75 40q118 0 118 -135z" />
    <glyph glyph-name="jsuperior" unicode="&#x2b2;" horiz-adv-x="167" 
d="M135 704l-1 -321q0 -29 -8.5 -49.5t-19 -30t-27 -14.5t-24 -5.5t-19.5 -0.5q-32 0 -66 18l9 55q33 -14 49 -14q14 0 14 44v318h93zM42 741v79h93v-79h-93z" />
    <glyph glyph-name="wsuperior" unicode="&#x2b7;" horiz-adv-x="511" 
d="M6 704h97l54 -186q8 30 26 93t26 93h93l53 -188l53 188h97l-105 -304h-83l-61 189q-7 -21 -28.5 -87t-32.5 -102h-83z" />
    <glyph glyph-name="ysuperior" unicode="&#x2b8;" horiz-adv-x="361" 
d="M54 296l10 68l15 -7q27 -16 39 5l19 49l-131 293h97l80 -197l74 197h98l-158 -369q-12 -29 -39 -40.5t-49 -11.5q-20 0 -55 13z" />
    <glyph glyph-name="circumflex" unicode="&#x2c6;" horiz-adv-x="425" 
d="M141 698h142l102 -153h-104l-69 83l-68 -83h-104z" />
    <glyph glyph-name="caron" unicode="&#x2c7;" horiz-adv-x="425" 
d="M284 545h-142l-102 153h104l69 -83l68 83h104z" />
    <glyph glyph-name="breve" unicode="&#x2d8;" horiz-adv-x="382" 
d="M192 536q-77 0 -114.5 45.5t-37.5 116.5h78q5 -41 22 -60.5t51 -19.5t51 19.5t22 60.5h78q0 -71 -36.5 -116.5t-113.5 -45.5z" />
    <glyph glyph-name="dotaccent" unicode="&#x2d9;" horiz-adv-x="209" 
d="M40 558v116h129v-116h-129z" />
    <glyph glyph-name="ring" unicode="&#x2da;" horiz-adv-x="313" 
d="M40 659q0 48 29 80t87 32q62 0 89.5 -31t27.5 -81q0 -49 -27.5 -79.5t-89.5 -30.5q-58 0 -87 32t-29 78zM112 660q0 -42 44 -42q45 0 45 42t-45 42q-44 0 -44 -42z" />
    <glyph glyph-name="ogonek" unicode="&#x2db;" horiz-adv-x="276" 
d="M96 10h85q-61 -87 -51 -107q8 -17 59 -4l47 13v-88q-39 -18 -82 -23q-65 -6 -95.5 28.5t-10.5 96.5q17 50 48 84z" />
    <glyph glyph-name="tilde" unicode="&#x2dc;" horiz-adv-x="388" 
d="M203 577l-8 4q-27 16 -47 16t-30 -43h-78q3 62 24 98t74 36q17 0 47 -16l8 -4q30 -16 47 -16q20 0 29 43h79q-3 -62 -24 -98t-74 -36q-17 0 -47 16z" />
    <glyph glyph-name="hungarumlaut" unicode="&#x2dd;" horiz-adv-x="500" 
d="M40 547l93 151h141l-126 -151h-108zM226 547l93 151h141l-126 -151h-108z" />
    <glyph glyph-name="xsuperior" unicode="&#x2e3;" horiz-adv-x="358" 
d="M240 704h103l-109 -151l118 -153h-105l-68 105l-68 -105h-105l118 153q-19 25 -56.5 77t-53.5 74h105l60 -101z" />
    <glyph glyph-name="Delta" unicode="&#x394;" horiz-adv-x="705" 
d="M10 0l280 674h125l280 -674h-685zM353 545l-167 -443h333z" />
    <glyph glyph-name="Delta" unicode="&#x2206;" horiz-adv-x="705" 
d="M10 0l280 674h125l280 -674h-685zM353 545l-167 -443h333z" />
    <glyph glyph-name="Omega" unicode="&#x3a9;" horiz-adv-x="700" 
d="M350 574q-101 0 -146.5 -63.5t-45.5 -171.5q0 -100 34 -157.5t118 -73.5v-108h-260v94h108q-59 33 -88.5 98.5t-29.5 146.5q0 165 81 253.5t229 88.5t229 -88.5t81 -253.5q0 -81 -29.5 -146.5t-88.5 -98.5h108v-94h-260v108q84 16 118 73.5t34 157.5q0 108 -45.5 171.5
t-146.5 63.5z" />
    <glyph glyph-name="Omega" unicode="&#x2126;" horiz-adv-x="700" 
d="M350 574q-101 0 -146.5 -63.5t-45.5 -171.5q0 -100 34 -157.5t118 -73.5v-108h-260v94h108q-59 33 -88.5 98.5t-29.5 146.5q0 165 81 253.5t229 88.5t229 -88.5t81 -253.5q0 -81 -29.5 -146.5t-88.5 -98.5h108v-94h-260v108q84 16 118 73.5t34 157.5q0 108 -45.5 171.5
t-146.5 63.5z" />
    <glyph glyph-name="pi" unicode="&#x3c0;" horiz-adv-x="634" 
d="M506 384v-384h-117v384h-152v-384h-116v384h-81v100h554v-100h-88z" />
    <glyph glyph-name="Wgrave" unicode="&#x1e80;" horiz-adv-x="953" 
d="M540 650l133 -474l134 498h136l-206 -674h-127l-133 464l-134 -464h-127l-206 674h135l135 -497l133 473h127zM444 888l93 -151h-108l-126 151h141z" />
    <glyph glyph-name="wgrave" unicode="&#x1e81;" horiz-adv-x="806" 
d="M10 484h135l96 -342l95 342h134l96 -341l96 341h134l-168 -484h-115l-110 343l-108 -343h-116zM373 698l93 -151h-108l-126 151h141z" />
    <glyph glyph-name="Wacute" unicode="&#x1e82;" horiz-adv-x="953" 
d="M540 650l133 -474l134 498h136l-206 -674h-127l-133 464l-134 -464h-127l-206 674h135l135 -497l133 473h127zM412 737l93 151h141l-126 -151h-108z" />
    <glyph glyph-name="wacute" unicode="&#x1e83;" horiz-adv-x="806" 
d="M10 484h135l96 -342l95 342h134l96 -341l96 341h134l-168 -484h-115l-110 343l-108 -343h-116zM335 547l93 151h141l-126 -151h-108z" />
    <glyph glyph-name="Wdieresis" unicode="&#x1e84;" horiz-adv-x="953" 
d="M540 650l133 -474l134 498h136l-206 -674h-127l-133 464l-134 -464h-127l-206 674h135l135 -497l133 473h127zM326 754v116h123v-116h-123zM503 754v116h123v-116h-123z" />
    <glyph glyph-name="wdieresis" unicode="&#x1e85;" horiz-adv-x="806" 
d="M10 484h135l96 -342l95 342h134l96 -341l96 341h134l-168 -484h-115l-110 343l-108 -343h-116zM253 564v116h123v-116h-123zM430 564v116h123v-116h-123z" />
    <glyph glyph-name="Ygrave" unicode="&#x1ef2;" horiz-adv-x="671" 
d="M403 0h-134v236l-259 438h151l175 -341l174 341h151l-258 -437v-237zM305 888l93 -151h-108l-126 151h141z" />
    <glyph glyph-name="ygrave" unicode="&#x1ef3;" horiz-adv-x="560" 
d="M83 -174l15 95q1 0 12.5 -5.5t16 -7t15.5 -4t17.5 -0.5t14.5 8t14 17l33 81q-15 35 -36.5 83t-70.5 158t-104 233h135l138 -327q79 195 132 327h135l-252 -594q-21 -47 -61 -64.5t-75 -17.5t-79 18zM266 698l93 -151h-108l-126 151h141z" />
    <glyph glyph-name="endash" unicode="&#x2013;" horiz-adv-x="578" 
d="M40 316h498v-100h-498v100z" />
    <glyph glyph-name="emdash" unicode="&#x2014;" horiz-adv-x="762" 
d="M40 316h682v-99h-682v99z" />
    <glyph glyph-name="quoteleft" unicode="&#x2018;" horiz-adv-x="333" 
d="M283 674l-98 -185h-135l126 185h107z" />
    <glyph glyph-name="quoteright" unicode="&#x2019;" horiz-adv-x="334" 
d="M50 490l98 184h136l-128 -184h-106z" />
    <glyph glyph-name="quotesinglbase" unicode="&#x201a;" horiz-adv-x="312" 
d="M40 -72l96 189h136l-126 -189h-106z" />
    <glyph glyph-name="quotedblleft" unicode="&#x201c;" horiz-adv-x="513" 
d="M184 674l99 -184h-106l-127 184h134zM365 674l98 -184h-105l-127 184h134z" />
    <glyph glyph-name="quotedblright" unicode="&#x201d;" horiz-adv-x="513" 
d="M230 490l99 184h134l-127 -184h-106zM50 490l98 184h134l-127 -184h-105z" />
    <glyph glyph-name="quotedblbase" unicode="&#x201e;" horiz-adv-x="500" 
d="M40 -72l96 189h136l-126 -189h-106zM228 -72l96 189h136l-126 -189h-106z" />
    <glyph glyph-name="dagger" unicode="&#x2020;" horiz-adv-x="489" 
d="M290 427v-427h-92v427h-158v80h158v167h92v-167h159v-80h-159z" />
    <glyph glyph-name="daggerdbl" unicode="&#x2021;" horiz-adv-x="489" 
d="M449 169h-159v-169h-92v169h-158v81h158v177h-158v80h158v167h92v-167h159v-80h-159v-177h159v-81z" />
    <glyph glyph-name="bullet" unicode="&#x2022;" horiz-adv-x="354" 
d="M50 302q0 50 36 84t90 34t91 -34t37 -84q0 -49 -37.5 -83t-90.5 -34q-54 0 -90 33.5t-36 83.5z" />
    <glyph glyph-name="ellipsis" unicode="&#x2026;" horiz-adv-x="691" 
d="M50 0v117h129v-117h-129zM281 0v117h129v-117h-129zM513 0v117h128v-117h-128z" />
    <glyph glyph-name="perthousand" unicode="&#x2030;" horiz-adv-x="1220" 
d="M40 492q0 81 44.5 126.5t122.5 45.5t123.5 -45.5t45.5 -126.5t-45.5 -127t-123.5 -46t-122.5 46t-44.5 127zM269 492q0 39 -15.5 64t-46.5 25q-30 0 -45 -25t-15 -64t15 -64t45 -25q31 0 46.5 25.5t15.5 63.5zM458 162q0 81 44.5 126.5t122.5 45.5t123.5 -45.5
t45.5 -126.5t-45.5 -127t-123.5 -46t-122.5 46t-44.5 127zM687 162q0 39 -15.5 64t-46.5 25q-30 0 -45 -25t-15 -64t15 -64t45 -25q31 0 46.5 25.5t15.5 63.5zM844 162q0 81 44.5 126.5t122.5 45.5t123.5 -45.5t45.5 -126.5t-45.5 -127t-123.5 -46t-122.5 46t-44.5 127z
M1073 162q0 39 -15.5 64t-46.5 25q-30 0 -45 -25t-15 -64t15 -64t45 -25q31 0 46.5 25.5t15.5 63.5zM184 0l393 674h76l-392 -674h-77z" />
    <glyph glyph-name="guilsinglleft" unicode="&#x2039;" horiz-adv-x="334" 
d="M289 557l-130 -235l135 -230h-123l-131 233l131 232h118z" />
    <glyph glyph-name="guilsinglright" unicode="&#x203a;" horiz-adv-x="334" 
d="M175 322l-130 235h118l131 -232l-131 -233h-123z" />
    <glyph glyph-name="fraction" unicode="&#x2044;" horiz-adv-x="549" 
d="M46 0l393 674h65l-392 -674h-66z" />
    <glyph glyph-name="zerosuperior" unicode="&#x2070;" horiz-adv-x="375" 
d="M187 439q-71 0 -111.5 53.5t-40.5 145.5q0 93 40 144t112 51t112.5 -51t40.5 -144t-40.5 -146t-112.5 -53zM187 764q-31 0 -49 -36.5t-18 -89.5q0 -54 18 -91.5t49 -37.5q32 0 50 37.5t18 91.5q0 53 -18 89.5t-50 36.5z" />
    <glyph glyph-name="foursuperior" unicode="&#x2074;" horiz-adv-x="362" 
d="M280 450h-82v75h-168v56q56 118 172 249h78v-243h52v-62h-52v-75zM106 587h92v140q-27 -30 -54 -72t-38 -68z" />
    <glyph glyph-name="fivesuperior" unicode="&#x2075;" horiz-adv-x="370" 
d="M247 574q0 29 -17 46t-42 17q-42 0 -60 -35h-71l29 220h218v-67h-157l-11 -79q27 25 77 25q45 0 80 -36t35 -93q0 -60 -46 -96.5t-107 -36.5q-84 0 -133 75l43 47q41 -56 86 -56q40 0 58 21.5t18 47.5z" />
    <glyph glyph-name="sixsuperior" unicode="&#x2076;" horiz-adv-x="369" 
d="M304 803l-24 -54q-35 21 -67 21q-80 0 -86 -101q30 33 80 33t85 -36.5t35 -95.5q0 -62 -38.5 -96.5t-100.5 -34.5q-45 0 -76 18t-45 49t-19.5 58.5t-5.5 58.5q0 102 44.5 155.5t117.5 53.5q54 0 100 -29zM188 501q26 0 43 22.5t17 46.5q0 25 -17 47t-44 22
q-25 0 -42 -19.5t-17 -45.5q0 -30 17.5 -51.5t42.5 -21.5z" />
    <glyph glyph-name="sevensuperior" unicode="&#x2077;" horiz-adv-x="367" 
d="M42 762v68h283v-53q-97 -130 -166 -327h-94q78 200 171 312h-194z" />
    <glyph glyph-name="eightsuperior" unicode="&#x2078;" horiz-adv-x="366" 
d="M184 439q-72 0 -109 33t-37 82q0 24 15.5 50t50.5 43q-54 32 -54 83q0 55 40 79t94 24q50 0 91.5 -26t41.5 -77q0 -20 -15 -44t-41 -39q36 -16 51.5 -42.5t15.5 -50.5q0 -49 -36.5 -82t-107.5 -33zM184 502q26 0 42 16.5t16 38.5q0 24 -15.5 43t-42.5 20
q-28 -1 -43.5 -20.5t-15.5 -42.5q0 -22 15.5 -38.5t43.5 -16.5zM184 675q23 0 36 14t13 36q0 18 -13.5 34t-35.5 16q-24 0 -38 -16t-14 -33q0 -24 14 -37.5t38 -13.5z" />
    <glyph glyph-name="ninesuperior" unicode="&#x2079;" horiz-adv-x="361" 
d="M61 468l24 54q35 -21 67 -21q80 0 86 101q-33 -33 -80 -33q-50 0 -85 36.5t-35 95.5q0 62 38.5 96.5t100.5 34.5q45 0 76 -18t45 -49t19.5 -58.5t5.5 -58.5q0 -102 -44.5 -155.5t-117.5 -53.5q-54 0 -100 29zM177 770q-26 0 -43 -22.5t-17 -46.5q0 -25 17 -47.5t44 -22.5
q25 0 42 20t17 46q0 30 -17.5 51.5t-42.5 21.5z" />
    <glyph glyph-name="nsuperior" unicode="&#x207f;" horiz-adv-x="351" 
d="M316 576v-176h-92v176q0 69 -41 69q-11 0 -23 -4t-24.5 -20.5t-12.5 -42.5v-178h-92v304h88v-38q28 46 90 46q107 0 107 -136z" />
    <glyph glyph-name="zeroinferior" unicode="&#x2080;" horiz-adv-x="375" 
d="M187 -191q-71 0 -111.5 53.5t-40.5 145.5q0 93 40 144t112 51t112.5 -51t40.5 -144t-40.5 -146t-112.5 -53zM187 134q-31 0 -49 -36.5t-18 -89.5q0 -54 18 -91.5t49 -37.5q32 0 50 37.5t18 91.5q0 53 -18 89.5t-50 36.5z" />
    <glyph glyph-name="oneinferior" unicode="&#x2081;" horiz-adv-x="276" 
d="M61 67l-35 47l98 86h71v-380h-84v291z" />
    <glyph glyph-name="twoinferior" unicode="&#x2082;" horiz-adv-x="385" 
d="M186 133q-26 0 -53 -16.5t-42 -35.5l-38 52l2 4q57 66 134 66q58 0 98 -33t40 -87q0 -19 -9 -36t-27 -33.5t-33.5 -27.5t-39.5 -26q-69 -40 -86 -71h189v-69h-277v41q0 46 32.5 79.5t92.5 71.5q22 12 35 21t26 24t13 29q0 21 -15.5 34t-41.5 13z" />
    <glyph glyph-name="threeinferior" unicode="&#x2083;" horiz-adv-x="344" 
d="M162 -188q-83 0 -141 58l33 54q53 -47 106 -47q25 0 39 15.5t14 35.5q0 22 -15.5 38.5t-40.5 16.5h-52v62h50q25 0 39.5 14.5t14.5 33.5t-14.5 34.5t-36.5 15.5q-24 0 -49.5 -15t-41.5 -35l-35 54q46 59 128 59q58 0 96 -29.5t38 -82.5q0 -19 -14 -42t-42 -35
q32 -11 47 -37.5t15 -50.5q0 -52 -41.5 -84.5t-96.5 -32.5z" />
    <glyph glyph-name="fourinferior" unicode="&#x2084;" horiz-adv-x="362" 
d="M280 -180h-82v75h-168v56q56 118 172 249h78v-243h52v-62h-52v-75zM106 -43h92v140q-27 -30 -54 -72t-38 -68z" />
    <glyph glyph-name="fiveinferior" unicode="&#x2085;" horiz-adv-x="370" 
d="M247 -56q0 29 -17 46t-42 17q-42 0 -60 -35h-71l29 220h218v-67h-157l-11 -79q27 25 77 25q45 0 80 -36t35 -93q0 -60 -46 -96.5t-107 -36.5q-84 0 -133 75l43 47q41 -56 86 -56q40 0 58 21.5t18 47.5z" />
    <glyph glyph-name="sixinferior" unicode="&#x2086;" horiz-adv-x="369" 
d="M304 173l-24 -54q-35 21 -67 21q-80 0 -86 -101q30 33 80 33t85 -36.5t35 -95.5q0 -62 -38.5 -96.5t-100.5 -34.5q-45 0 -76 18t-45 49t-19.5 58.5t-5.5 58.5q0 102 44.5 155.5t117.5 53.5q54 0 100 -29zM188 -129q26 0 43 22.5t17 46.5q0 25 -17 47t-44 22
q-25 0 -42 -19.5t-17 -45.5q0 -30 17.5 -51.5t42.5 -21.5z" />
    <glyph glyph-name="seveninferior" unicode="&#x2087;" horiz-adv-x="367" 
d="M42 132v68h283v-53q-97 -130 -166 -327h-94q78 200 171 312h-194z" />
    <glyph glyph-name="eightinferior" unicode="&#x2088;" horiz-adv-x="366" 
d="M184 -191q-72 0 -109 33t-37 82q0 24 15.5 50t50.5 43q-54 32 -54 83q0 55 40 79t94 24q50 0 91.5 -26t41.5 -77q0 -20 -15 -44t-41 -39q36 -16 51.5 -42.5t15.5 -50.5q0 -49 -36.5 -82t-107.5 -33zM184 -128q26 0 42 16.5t16 38.5q0 24 -15.5 43t-42.5 20
q-28 -1 -43.5 -20.5t-15.5 -42.5q0 -22 15.5 -38.5t43.5 -16.5zM184 45q23 0 36 14t13 36q0 18 -13.5 34t-35.5 16q-24 0 -38 -16t-14 -33q0 -24 14 -37.5t38 -13.5z" />
    <glyph glyph-name="nineinferior" unicode="&#x2089;" horiz-adv-x="361" 
d="M61 -162l24 54q35 -21 67 -21q80 0 86 101q-30 -33 -80 -33t-85 36.5t-35 95.5q0 62 38.5 96.5t100.5 34.5q45 0 76 -18t45 -49t19.5 -58.5t5.5 -58.5q0 -102 -44.5 -155.5t-117.5 -53.5q-54 0 -100 29zM177 140q-26 0 -43 -22.5t-17 -46.5q0 -25 17 -47.5t44 -22.5
q25 0 42 20t17 46q0 30 -17.5 51.5t-42.5 21.5z" />
    <glyph glyph-name="Euro" unicode="&#x20ac;" horiz-adv-x="678" 
d="M21 227l33 80h80q-2 4 -0.5 19.5t1.5 19.5h-115l34 79h90q29 113 114 180.5t215 67.5q90 0 165 -41l-41 -80q-44 24 -103 24q-88 0 -142 -41t-76 -110h289l-39 -79h-266v-39h258l-39 -80h-198q25 -62 78.5 -101t134.5 -39q50 0 113 32l31 -88q-84 -42 -165 -42
q-125 0 -210 64.5t-116 173.5h-126z" />
    <glyph glyph-name="afii61289" unicode="&#x2113;" horiz-adv-x="351" 
d="M320 516v-146q0 -58 -19 -99t-46.5 -58.5t-47.5 -24t-34 -6.5q-19 0 -27 1v-46q0 -58 54 -58q28 0 89 17l11 -81q-25 -14 -64.5 -20t-57.5 -6q-68 0 -101 30q-46 40 -46 129v368q0 46 13 78.5t29 47.5t40.5 23.5t36 9t27.5 0.5h4q12 0 24 -1.5t34.5 -10t39 -24t29 -47.5
t12.5 -76zM204 359v168q0 58 -29 58t-29 -58v-246q29 2 43.5 28.5t14.5 49.5z" />
    <glyph glyph-name="trademark" unicode="&#x2122;" horiz-adv-x="816" 
d="M307 274l17 339h-107v-339h-78v339h-124v61h416l111 -294l110 294h103l21 -400h-79l-18 282l-107 -282h-62l-106 282l-18 -282h-79z" />
    <glyph glyph-name="estimated" unicode="&#x212e;" horiz-adv-x="678" 
d="M613 282h-429v-193q68 -63 152 -63q76 0 122 32.5t88 94.5l31 -19q-43 -68 -98.5 -104.5t-142.5 -36.5q-119 0 -195 84.5t-76 205.5q0 123 75 206.5t200 83.5q124 0 198.5 -84.5t74.5 -206.5zM493 315v163q-68 62 -153 62q-96 0 -156 -62v-163h309z" />
    <glyph glyph-name="onethird" unicode="&#x2153;" horiz-adv-x="785" 
d="M124 0l393 674h65l-392 -674h-66zM587 -8q-83 0 -141 58l33 54q53 -47 106 -47q25 0 39 15.5t14 35.5q0 22 -15.5 38.5t-40.5 16.5h-52v62h50q25 0 39.5 14.5t14.5 33.5t-14.5 34.5t-36.5 15.5q-24 0 -49.5 -15t-41.5 -35l-35 54q46 59 128 59q58 0 96 -29.5t38 -82.5
q0 -19 -14 -42t-42 -35q32 -11 47 -37.5t15 -50.5q0 -52 -41.5 -84.5t-96.5 -32.5zM95 541l-35 47l98 86h71v-380h-84v291z" />
    <glyph glyph-name="twothirds" unicode="&#x2154;" horiz-adv-x="863" 
d="M215 0l393 674h65l-392 -674h-66zM665 -8q-83 0 -141 58l33 54q53 -47 106 -47q25 0 39 15.5t14 35.5q0 22 -15.5 38.5t-40.5 16.5h-52v62h50q25 0 39.5 14.5t14.5 33.5t-14.5 34.5t-36.5 15.5q-24 0 -49.5 -15t-41.5 -35l-35 54q46 59 128 59q58 0 96 -29.5t38 -82.5
q0 -19 -14 -42t-42 -35q32 -11 47 -37.5t15 -50.5q0 -52 -41.5 -84.5t-96.5 -32.5zM202 607q-26 0 -53 -16.5t-42 -35.5l-38 52l2 4q57 66 134 66q58 0 98 -33t40 -87q0 -19 -9 -36t-27 -33.5t-33.5 -27.5t-39.5 -26q-69 -40 -86 -71h189v-69h-277v41q0 46 32.5 79.5
t92.5 71.5q22 12 35 21t26 24t13 29q0 21 -15.5 34t-41.5 13z" />
    <glyph glyph-name="oneeighth" unicode="&#x215b;" horiz-adv-x="772" 
d="M120 0l393 674h76l-392 -674h-77zM568 -11q-72 0 -109 33t-37 82q0 24 15.5 50t50.5 43q-54 32 -54 83q0 55 40 79t94 24q50 0 91.5 -26t41.5 -77q0 -20 -15 -44t-41 -39q36 -16 51.5 -42.5t15.5 -50.5q0 -49 -36.5 -82t-107.5 -33zM568 52q26 0 42 16.5t16 38.5
q0 24 -15.5 43t-42.5 20q-28 -1 -43.5 -20.5t-15.5 -42.5q0 -22 15.5 -38.5t43.5 -16.5zM568 225q23 0 36 14t13 36q0 18 -13.5 34t-35.5 16q-24 0 -38 -16t-14 -33q0 -24 14 -37.5t38 -13.5zM95 541l-35 47l98 86h71v-380h-84v291z" />
    <glyph glyph-name="threeeighths" unicode="&#x215c;" horiz-adv-x="836" 
d="M184 0l393 674h76l-392 -674h-77zM632 -11q-72 0 -109 33t-37 82q0 24 15.5 50t50.5 43q-54 32 -54 83q0 55 40 79t94 24q50 0 91.5 -26t41.5 -77q0 -20 -15 -44t-41 -39q36 -16 51.5 -42.5t15.5 -50.5q0 -49 -36.5 -82t-107.5 -33zM632 52q26 0 42 16.5t16 38.5
q0 24 -15.5 43t-42.5 20q-28 -1 -43.5 -20.5t-15.5 -42.5q0 -22 15.5 -38.5t43.5 -16.5zM632 225q23 0 36 14t13 36q0 18 -13.5 34t-35.5 16q-24 0 -38 -16t-14 -33q0 -24 14 -37.5t38 -13.5zM201 286q-83 0 -141 58l33 54q53 -47 106 -47q25 0 39 15.5t14 35.5
q0 22 -15.5 38.5t-40.5 16.5h-52v62h50q25 0 39.5 14.5t14.5 33.5t-14.5 34.5t-36.5 15.5q-24 0 -49.5 -15t-41.5 -35l-35 54q46 59 128 59q58 0 96 -29.5t38 -82.5q0 -19 -14 -42t-42 -35q32 -11 47 -37.5t15 -50.5q0 -52 -41.5 -84.5t-96.5 -32.5z" />
    <glyph glyph-name="fiveeighths" unicode="&#x215d;" horiz-adv-x="840" 
d="M188 0l393 674h76l-392 -674h-77zM636 -11q-72 0 -109 33t-37 82q0 24 15.5 50t50.5 43q-54 32 -54 83q0 55 40 79t94 24q50 0 91.5 -26t41.5 -77q0 -20 -15 -44t-41 -39q36 -16 51.5 -42.5t15.5 -50.5q0 -49 -36.5 -82t-107.5 -33zM636 52q26 0 42 16.5t16 38.5
q0 24 -15.5 43t-42.5 20q-28 -1 -43.5 -20.5t-15.5 -42.5q0 -22 15.5 -38.5t43.5 -16.5zM636 225q23 0 36 14t13 36q0 18 -13.5 34t-35.5 16q-24 0 -38 -16t-14 -33q0 -24 14 -37.5t38 -13.5zM265 418q0 29 -17 46t-42 17q-42 0 -60 -35h-71l29 220h218v-67h-157l-11 -79
q27 25 77 25q45 0 80 -36t35 -93q0 -60 -46 -96.5t-107 -36.5q-84 0 -133 75l43 47q41 -56 86 -56q40 0 58 21.5t18 47.5z" />
    <glyph glyph-name="seveneighths" unicode="&#x215e;" horiz-adv-x="762" 
d="M110 0l393 674h76l-392 -674h-77zM558 -11q-72 0 -109 33t-37 82q0 24 15.5 50t50.5 43q-54 32 -54 83q0 55 40 79t94 24q50 0 91.5 -26t41.5 -77q0 -20 -15 -44t-41 -39q36 -16 51.5 -42.5t15.5 -50.5q0 -49 -36.5 -82t-107.5 -33zM558 52q26 0 42 16.5t16 38.5
q0 24 -15.5 43t-42.5 20q-28 -1 -43.5 -20.5t-15.5 -42.5q0 -22 15.5 -38.5t43.5 -16.5zM558 225q23 0 36 14t13 36q0 18 -13.5 34t-35.5 16q-24 0 -38 -16t-14 -33q0 -24 14 -37.5t38 -13.5zM60 606v68h283v-53q-97 -130 -166 -327h-94q78 200 171 312h-194z" />
    <glyph glyph-name="arrowleft" unicode="&#x2190;" horiz-adv-x="765" 
d="M327 351h393v-80h-393v-131l-282 171l282 172v-132z" />
    <glyph glyph-name="arrowup" unicode="&#x2191;" horiz-adv-x="763" 
d="M342 0v393h-132l172 282l171 -282h-131v-393h-80z" />
    <glyph glyph-name="arrowright" unicode="&#x2192;" horiz-adv-x="765" 
d="M44 351h393v132l282 -172l-282 -171v131h-393v80z" />
    <glyph glyph-name="arrowdown" unicode="&#x2193;" horiz-adv-x="763" 
d="M342 281v393h80v-393h131l-171 -282l-172 282h132z" />
    <glyph glyph-name="partialdiff" unicode="&#x2202;" horiz-adv-x="617" 
d="M204 536l-19 80q76 45 172 45q123 0 177 -92.5t18 -266.5q-73 -314 -309 -314q-103 0 -155 59.5t-31 162.5q21 100 97.5 160.5t172.5 60.5q82 0 114 -73q11 104 -21 157t-97 53q-59 0 -119 -32zM265 81q47 0 83.5 38.5t48.5 96.5q11 52 -8.5 88.5t-67.5 36.5
q-53 0 -89 -41t-48 -90q-10 -48 9.5 -88.5t71.5 -40.5z" />
    <glyph glyph-name="product" unicode="&#x220f;" horiz-adv-x="634" 
d="M506 578v-578h-117v578h-152v-578h-116v578h-81v96h554v-96h-88z" />
    <glyph glyph-name="summation" unicode="&#x2211;" 
d="M514 -149h-464v92l206 319q-36 54 -103.5 161t-102.5 161v90h464v-105h-324q49 -73 201 -307l-201 -306h324v-105z" />
    <glyph glyph-name="minus" unicode="&#x2212;" horiz-adv-x="459" 
d="M40 365h379v-99h-379v99z" />
    <glyph glyph-name="radical" unicode="&#x221a;" horiz-adv-x="622" 
d="M262 0l-121 376h-156v108h245l89 -325l160 515h118l-224 -674h-111z" />
    <glyph glyph-name="infinity" unicode="&#x221e;" horiz-adv-x="746" 
d="M534 161q-48 0 -90.5 23.5t-70.5 61.5q-27 -39 -69.5 -62t-91.5 -23q-84 0 -128 45t-44 107q0 63 44 107.5t128 44.5q48 0 90.5 -23t70.5 -60q28 37 70.5 60t90.5 23q84 0 128 -44.5t44 -107.5q0 -62 -44 -107t-128 -45zM215 257q28 0 55 17t39 39q-12 22 -38.5 39.5
t-55.5 17.5q-70 0 -70 -57q0 -56 70 -56zM530 257q70 0 70 56q0 57 -70 57q-29 0 -55 -16.5t-38 -40.5q12 -24 37.5 -40t55.5 -16z" />
    <glyph glyph-name="integral" unicode="&#x222b;" horiz-adv-x="410" 
d="M269 543v-576q0 -46 -13 -78.5t-28.5 -47.5t-40.5 -23.5t-37 -9t-29 -0.5h-5q-42 0 -91 26l14 74q40 -15 63 -15q39 0 39 57v576q0 46 13 78.5t29 47.5t41 23.5t37 9t29 0.5h4q42 0 91 -26l-14 -74q-40 15 -63 15q-39 0 -39 -57z" />
    <glyph glyph-name="approxequal" unicode="&#x2248;" horiz-adv-x="504" 
d="M180 495q27 0 73.5 -19t67.5 -19q36 0 56 53h87q-10 -36 -16 -54t-17.5 -41t-25 -33.5t-35.5 -18t-51 -7.5q-25 0 -73 19.5t-66 19.5q-20 0 -32 -13t-24 -43h-84q12 47 19.5 69.5t23 46t38.5 32t59 8.5zM180 305q27 0 73.5 -19t67.5 -19q36 0 56 53h87q-10 -36 -16 -54
t-17.5 -41t-25 -33.5t-35.5 -18t-51 -7.5q-25 0 -73 19.5t-66 19.5q-20 0 -32 -13t-24 -43h-84q12 47 19.5 69.5t23 46t38.5 32t59 8.5z" />
    <glyph glyph-name="notequal" unicode="&#x2260;" horiz-adv-x="549" 
d="M482 191h-254l-111 -191h-77l111 191h-104v90h157l54 93h-211v89h263l123 211h76l-123 -211h96v-89h-148l-54 -93h202v-90z" />
    <glyph glyph-name="lessequal" unicode="&#x2264;" horiz-adv-x="606" 
d="M50 360v62l506 224v-120l-323 -135l323 -135v-120zM53 99h503v-99h-503v99z" />
    <glyph glyph-name="greaterequal" unicode="&#x2265;" horiz-adv-x="606" 
d="M556 422v-62l-506 -224v120l323 135l-323 135v120zM50 99h503v-99h-503v99z" />
    <glyph glyph-name="triangleright" unicode="&#x22b2;" horiz-adv-x="466" 
d="M60 125v420l346 -210z" />
    <glyph glyph-name="triangleleft" unicode="&#x22b3;" horiz-adv-x="466" 
d="M406 545v-420l-346 210z" />
    <glyph glyph-name="uni2318" unicode="&#x2318;" horiz-adv-x="701" 
d="M241 156v67h-68q-28 0 -47 -19.5t-19 -47.5t19.5 -48.5t47.5 -20.5t47.5 20.5t19.5 48.5zM241 440v68q0 29 -19 48.5t-47 19.5t-48 -19.5t-20 -48.5q0 -28 20 -48t48 -20h66zM289 269h124v125h-124v-125zM594 156q0 28 -18.5 47.5t-46.5 19.5h-68v-67q0 -28 19.5 -48.5
t47.5 -20.5q27 0 46.5 20.5t19.5 48.5zM594 508q0 29 -19 48.5t-47 19.5t-47.5 -19.5t-19.5 -48.5v-68h68q27 0 46 20t19 48zM641 156q0 -47 -33.5 -81t-79.5 -34q-47 0 -81 34t-34 81v67h-124v-67q0 -47 -34 -81t-81 -34t-80.5 34t-33.5 81q0 46 33.5 79.5t80.5 33.5h67
v125h-66q-47 0 -81 33.5t-34 80.5t34 80.5t81 33.5t80.5 -33.5t33.5 -80.5v-68h124v68q0 47 34 80.5t81 33.5q46 0 79.5 -33.5t33.5 -80.5q0 -46 -33.5 -80t-79.5 -34h-67v-125h67q46 0 79.5 -33.5t33.5 -79.5z" />
    <glyph glyph-name="blacksquare" unicode="&#x25a0;" horiz-adv-x="539" 
d="M60 91v419h419v-419h-419z" />
    <glyph glyph-name="lozenge" unicode="&#x25ca;" horiz-adv-x="568" 
d="M307 -1h-46l-221 337l221 338h46l221 -338zM284 517l-111 -181l111 -178l111 178z" />
    <glyph glyph-name="circlesolid" unicode="&#x25cf;" horiz-adv-x="536" 
d="M60 302q0 86 61 147t147 61t147 -61t61 -147t-61 -147t-147 -61t-147 61t-61 147z" />
    <glyph glyph-name="blackstar" unicode="&#x2605;" horiz-adv-x="687" 
d="M627 400l-176 -128l68 -206l-176 127l-175 -127l67 206l-175 128h216l67 206l67 -206h217z" />
    <glyph glyph-name="diamond" unicode="&#x2666;" horiz-adv-x="621" 
d="M561 331l-251 -250l-250 250l250 251z" />
    <glyph glyph-name="asuperior" unicode="&#xf6e9;" horiz-adv-x="327" 
d="M296 400h-94v34q-15 -22 -46 -32t-53 -10q-30 0 -60 24.5t-30 68.5q0 48 51 76t140 37v11q-1 41 -49 41q-40 0 -94 -27l-23 54l2 2q3 2 9 5t13.5 6.5t18.5 7.5t22.5 7t26 4.5t29.5 1.5q39 1 69 -9q29 -8 48.5 -31.5t19.5 -59.5v-211zM139 456q9 0 22 3t28 15.5t15 31.5
v40q-44 -4 -74 -20.5t-30 -37.5q2 -32 39 -32z" />
    <glyph glyph-name="bsuperior" unicode="&#xf6ea;" horiz-adv-x="351" 
d="M123 820v-147q27 39 76 39q57 0 95.5 -42t38.5 -119t-36 -118t-89 -41q-46 0 -86 40v-32h-91v420h92zM172 645q-14 0 -31.5 -13t-17.5 -39v-84q0 -50 59 -50q29 0 42.5 26.5t13.5 65.5q0 94 -66 94z" />
    <glyph glyph-name="dsuperior" unicode="&#xf6eb;" horiz-adv-x="351" 
d="M226 673v147h92v-420h-91v32q-40 -40 -86 -40q-53 0 -89 41t-36 118t38.5 119t95.5 42q49 0 76 -39zM177 645q-66 0 -66 -94q0 -39 13.5 -65.5t42.5 -26.5q59 0 59 50v84q0 26 -17.5 39t-31.5 13z" />
    <glyph glyph-name="esuperior" unicode="&#xf6ec;" horiz-adv-x="341" 
d="M176 393q-69 0 -114.5 43t-45.5 115q0 71 41.5 116t112.5 45q70 0 111.5 -42t41.5 -114q0 -7 -0.5 -18.5t-0.5 -16.5h-215q5 -28 24.5 -44.5t48.5 -16.5q45 0 106 21l18 -56q-49 -32 -128 -32zM170 645q-25 0 -41 -19t-18 -44h122q-2 28 -19 45.5t-44 17.5z" />
    <glyph glyph-name="isuperior" unicode="&#xf6ed;" horiz-adv-x="155" 
d="M30 400v304h94v-304h-94zM30 741v79h94v-79h-94z" />
    <glyph glyph-name="lsuperior" unicode="&#xf6ee;" horiz-adv-x="155" 
d="M30 400v420h94v-420h-94z" />
    <glyph glyph-name="msuperior" unicode="&#xf6ef;" horiz-adv-x="512" 
d="M209 400v186q0 59 -42 59q-16 0 -29 -17t-13 -57v-171h-93v304h89v-34q29 42 74 42q44 0 66 -52q32 52 88 52q126 0 126 -126v-186h-91v176q0 69 -42 69q-6 0 -14 -2.5t-18.5 -17t-10.5 -39.5v-186h-90z" />
    <glyph glyph-name="osuperior" unicode="&#xf6f0;" horiz-adv-x="351" 
d="M20 551q0 75 41.5 118t113.5 43t114 -43t42 -118q0 -74 -42 -116.5t-114 -42.5t-113.5 42.5t-41.5 116.5zM240 551q0 38 -18 66.5t-47 28.5t-46 -28t-17 -67q0 -38 17 -65.5t46 -27.5t47 28t18 65z" />
    <glyph glyph-name="rsuperior" unicode="&#xf6f1;" horiz-adv-x="227" 
d="M224 709v-69h-40q-29 0 -44 -18t-15 -48v-174h-91v304h89v-38q26 43 71 43h30z" />
    <glyph glyph-name="ssuperior" unicode="&#xf6f2;" horiz-adv-x="296" 
d="M155 460q28 0 35 20q5 9 0 14t-26 14l-74 27q-69 30 -69 81q0 44 37 70t88 26q65 0 126 -40l-31 -56q-52 31 -92 31q-15 0 -26 -7.5t-12 -18.5q0 -14 40 -28q47 -16 63 -23q67 -26 67 -80q0 -46 -35 -71.5t-92 -25.5q-34 0 -70 11q-40 13 -72 40l35 59q49 -43 108 -43z
" />
    <glyph glyph-name="tsuperior" unicode="&#xf6f3;" horiz-adv-x="226" 
d="M54 644h-47v60h47v71h92v-71h65v-60h-65v-149q0 -36 19 -36q16 0 45 9l7 -59q-32 -16 -63 -16q-12 0 -19.5 0.5t-25 5.5t-27.5 14.5t-19 30t-9 49.5v151z" />
    <glyph glyph-name="s_t" unicode="&#xfb06;" horiz-adv-x="829" 
d="M243 497l-2 21q0 44 12.5 76t28 46.5t38.5 23t34 9.5t24 1h313v-190h106v-85h-106v-250q0 -65 44 -65q18 0 64 14l10 -86q-47 -24 -92 -24q-20 0 -31 0.5t-37.5 8.5t-42 23t-29 48t-13.5 79v252h-76v85h76v108h-156q-35 0 -50.5 -20t-15.5 -43q-3 -18 3 -49
q56 -17 86 -45l-46 -86q-4 2 -20.5 11t-24 13t-23 11.5t-26 10.5t-24.5 6t-26 3q-28 0 -49 -14.5t-23 -32.5q-2 -20 11 -29.5t49 -21.5q8 -2 13 -4q34 -11 101 -36q103 -43 103 -126q0 -35 -16 -65q-20 -41 -67.5 -63.5t-113.5 -22.5q-53 0 -110 17q-60 17 -109 61l52 85
q76 -66 169 -66q23 0 42 9.5t26 24.5q12 30 -17 44q-1 0 -153 57q-106 45 -106 127q0 69 57 109t136 40h7z" />
    <glyph glyph-name="CR" horiz-adv-x="278" 
 />
    <glyph glyph-name="_224" horiz-adv-x="0" 
 />
    <glyph glyph-name="Imacron" horiz-adv-x="280" 
d="M75 0v674h130v-674h-130zM7 767v97h267v-97h-267z" />
    <glyph glyph-name="kcommaaccent" horiz-adv-x="525" 
d="M305 299l210 -299h-144l-150 226l-28 -26v-200h-128v674h128v-338l143 148h155zM124 -231l90 184h136l-120 -184h-106z" />
    <glyph glyph-name="ibreve" horiz-adv-x="249" 
d="M60 0v484h129v-484h-129zM126 536h-2q-76 0 -113 45.5t-37 116.5h78q5 -41 22 -60.5t51 -19.5t51 19.5t22 60.5h78q0 -71 -36.5 -116.5t-113.5 -45.5z" />
    <glyph glyph-name="zero.taboldstyle" horiz-adv-x="460" 
d="M228 -11q-84 0 -131 63.5t-47 179.5t47 180t131 64q85 0 133.5 -64t48.5 -180q0 -115 -48.5 -179t-133.5 -64zM228 391q-34 0 -56.5 -50.5t-22.5 -108.5q0 -60 22.5 -108.5t56.5 -48.5q36 0 58.5 48t22.5 109q0 59 -22.5 109t-58.5 50z" />
    <glyph glyph-name="one.taboldstyle" horiz-adv-x="518" 
d="M72 0v83h134v270l-99 -69l-47 57l160 126h95v-384h133v-83h-376z" />
    <glyph glyph-name="two.taboldstyle" horiz-adv-x="502" 
d="M251 396q-81 0 -154 -73l-57 62q84 99 217 99q84 0 137.5 -43.5t53.5 -113.5q0 -22 -11 -42.5t-22.5 -33.5t-40 -30t-40.5 -23t-47 -22q-10 -5 -26.5 -13t-24 -12t-19 -10t-17 -9.5t-13 -8.5t-11 -9t-7 -8.5t-5.5 -9.5h282v-96h-405v48q0 64 44 109.5t123 86.5
q79 39 102.5 58.5t23.5 37.5q0 22 -22 39t-61 17z" />
    <glyph glyph-name="six.taboldstyle" horiz-adv-x="581" 
d="M486 616l-36 -80q-54 32 -112 32q-133 0 -158 -189q50 52 125 52q97 0 160 -60.5t63 -160.5q0 -103 -65 -162.5t-168 -59.5q-61 0 -106.5 21.5t-70.5 53.5t-40.5 77t-20 82.5t-4.5 79.5q0 174 74.5 266.5t196.5 92.5q94 0 162 -45zM293 81q53 0 80.5 40.5t27.5 88.5
q0 47 -28 89t-81 42q-49 0 -76 -36.5t-27 -88.5q0 -58 28.5 -96.5t75.5 -38.5z" />
    <glyph glyph-name="eight.taboldstyle" horiz-adv-x="582" 
d="M291 -13q-117 0 -179 55t-62 136q0 21 6 43.5t20 48t42.5 44.5t68.5 26q-58 15 -87 58t-29 91q0 73 50 115t120 53q20 4 50 4q39 0 51 -4h-1q70 -11 120 -53t50 -115q0 -48 -28.5 -91t-87.5 -58q40 -7 68.5 -26t42.5 -44.5t20 -48t6 -43.5q0 -81 -62 -136t-179 -55z
M291 81q53 0 85.5 31t32.5 72q0 44 -31.5 79.5t-86.5 35.5q-54 0 -84.5 -35.5t-30.5 -79.5q0 -41 31 -72t84 -31zM291 389q48 0 75 24t28 66q0 35 -28 65t-75 30q-46 0 -74.5 -29.5t-28.5 -63.5q1 -44 28 -68t75 -24z" />
    <glyph glyph-name="three.taboldstyle" horiz-adv-x="552" 
d="M266 -203q-135 0 -231 96l51 81q42 -40 82.5 -59.5t93.5 -19.5q49 0 76.5 28.5t27.5 67.5q0 41 -29 71t-80 30h-75v102h71q51 0 78 25.5t27 61.5q0 38 -27 66t-73 28q-85 0 -151 -80l-53 79q79 97 209 97q96 0 158.5 -49.5t62.5 -138.5q0 -42 -27 -83.5t-80 -52.5
q57 -9 87.5 -59.5t30.5 -94.5q0 -89 -68 -142.5t-161 -53.5z" />
    <glyph glyph-name="four.taboldstyle" horiz-adv-x="571" 
d="M449 -190h-124v132q-48 0 -148.5 -0.5t-146.5 -0.5v91q54 117 121 211t177 217h121v-426h92v-93h-92v-131zM144 34h181v271q-56 -58 -109 -138.5t-72 -132.5z" />
    <glyph glyph-name="five.taboldstyle" horiz-adv-x="555" 
d="M400 25q0 55 -34 86t-85 31q-10 0 -21.5 -2t-29.5 -7t-34.5 -18.5t-26.5 -32.5h-101l46 369h358v-109h-261l-22 -140q23 21 58.5 31.5t56.5 10.5q96 0 153.5 -60t57.5 -162q0 -101 -76.5 -163t-179.5 -62q-140 0 -219 118l70 74q65 -88 143 -88q77 0 112 38t35 86z" />
    <glyph glyph-name="seven.taboldstyle" horiz-adv-x="537" 
d="M34 356v104h471v-86q-103 -131 -170 -266t-118 -298h-141q63 170 135 302t171 244h-348z" />
    <glyph glyph-name="nine.taboldstyle" horiz-adv-x="555" 
d="M82 -157l36 80q54 -32 112 -32q133 0 158 189q-50 -52 -125 -52q-97 0 -160 60.5t-63 160.5q0 103 65 162.5t168 59.5q61 0 106.5 -21.5t70.5 -53.5t40.5 -77t20 -82.5t4.5 -79.5q0 -174 -74.5 -266.5t-196.5 -92.5q-94 0 -162 45zM275 378q-53 0 -80.5 -40.5
t-27.5 -88.5q0 -47 28 -89t81 -42q49 0 76 36.5t27 88.5q0 58 -28.5 96.5t-75.5 38.5z" />
    <glyph glyph-name="zero.titling" horiz-adv-x="614" 
d="M304 -13q-116 0 -183 91t-67 249q0 157 67 245.5t183 88.5q121 0 188.5 -87.5t67.5 -246.5t-68 -249.5t-188 -90.5zM304 565q-60 0 -94.5 -70.5t-34.5 -167.5q0 -100 34.5 -172t94.5 -72q63 0 98.5 71.5t35.5 172.5q0 98 -35.5 168t-98.5 70z" />
    <glyph glyph-name="one.titling" horiz-adv-x="407" 
d="M90 434l-55 71l163 145h106v-650h-121v512z" />
    <glyph glyph-name="two.titling" horiz-adv-x="601" 
d="M286 548q-79 0 -155 -95l-67 83q2 2 13 13.5t17.5 17.5t21 19t26.5 20.5t30 18t35.5 16.5t39.5 10t44 4q97 0 164 -55.5t67 -145.5q0 -15 -4 -30.5t-8.5 -27.5t-15.5 -26t-18 -23t-24 -23t-25 -20.5t-28.5 -20t-28 -18t-30.5 -19t-29 -17.5q-53 -32 -93 -67t-43 -59h335
v-103h-459v64q0 36 12 68t28.5 54.5t46.5 47.5t51.5 39.5t58.5 36.5q9 6 33 20.5t40 26t30 23.5q50 45 50 79q0 39 -30.5 64t-84.5 25z" />
    <glyph glyph-name="three.titling" horiz-adv-x="544" 
d="M263 -13q-135 0 -231 96l51 81q42 -40 82.5 -59.5t93.5 -19.5q49 0 76.5 28.5t27.5 67.5q0 41 -29 71t-80 30h-75v102h71q51 0 78 25.5t27 61.5q0 38 -27 66t-73 28q-85 0 -151 -80l-53 79q79 97 209 97q96 0 158.5 -49.5t62.5 -138.5q0 -42 -27 -83.5t-80 -52.5
q57 -9 87.5 -59.5t30.5 -94.5q0 -89 -68 -142.5t-161 -53.5z" />
    <glyph glyph-name="four.titling" horiz-adv-x="569" 
d="M448 0h-124v132q-48 0 -148.5 -0.5t-146.5 -0.5v91q54 117 121 211t177 217h121v-426h92v-93h-92v-131zM143 224h181v271q-56 -58 -109 -138.5t-72 -132.5z" />
    <glyph glyph-name="five.titling" horiz-adv-x="578" 
d="M411 215q0 55 -34 86t-85 31q-10 0 -21.5 -2t-29.5 -7t-34.5 -18.5t-26.5 -32.5h-101l46 369h358v-109h-261l-19 -140q23 21 57 31.5t55 10.5q96 0 153.5 -60t57.5 -162q0 -103 -73 -164t-183 -61q-140 0 -219 118l70 74q65 -88 143 -88q77 0 112 38t35 86z" />
    <glyph glyph-name="six.titling" horiz-adv-x="571" 
d="M481 616l-36 -80q-54 32 -112 32q-133 0 -158 -189q50 52 125 52q97 0 160 -60.5t63 -160.5q0 -103 -65 -162.5t-168 -59.5q-61 0 -106.5 21.5t-70.5 53.5t-40.5 77t-20 82.5t-4.5 79.5q0 174 74.5 266.5t196.5 92.5q94 0 162 -45zM288 81q53 0 80.5 40.5t27.5 88.5
q0 47 -28 89t-81 42q-49 0 -76 -36.5t-27 -88.5q0 -58 28.5 -96.5t75.5 -38.5z" />
    <glyph glyph-name="seven.titling" horiz-adv-x="534" 
d="M34 546v104h471v-86q-103 -132 -170 -266.5t-118 -297.5h-141q63 170 135 302t171 244h-348z" />
    <glyph glyph-name="eight.titling" horiz-adv-x="570" 
d="M285 -13q-117 0 -179 55t-62 136q0 21 6 43.5t20 48t42.5 44.5t68.5 26q-58 15 -87 58t-29 91q0 73 50 115t120 53q20 4 50 4q39 0 51 -4h-1q70 -11 120 -53t50 -115q0 -48 -28.5 -91t-87.5 -58q40 -7 68.5 -26t42.5 -44.5t20 -48t6 -43.5q0 -81 -62 -136t-179 -55z
M285 81q53 0 85.5 31t32.5 72q0 44 -31.5 79.5t-86.5 35.5q-54 0 -84.5 -35.5t-30.5 -79.5q0 -41 31 -72t84 -31zM285 389q48 0 75 24t28 66q0 35 -28 65t-75 30q-46 0 -74.5 -29.5t-28.5 -63.5q1 -44 28 -68t75 -24z" />
    <glyph glyph-name="nine.titling" horiz-adv-x="571" 
d="M90 33l36 80q54 -32 112 -32q133 0 158 189q-50 -52 -125 -52q-97 0 -160 60.5t-63 160.5q0 103 65 162.5t168 59.5q61 0 106.5 -21.5t70.5 -53.5t40.5 -77t20 -82.5t4.5 -79.5q0 -174 -74.5 -266.5t-196.5 -92.5q-94 0 -162 45zM283 568q-53 0 -80.5 -40.5t-27.5 -88.5
q0 -47 28 -89t81 -42q49 0 76 36.5t27 88.5q0 58 -28.5 96.5t-75.5 38.5z" />
    <glyph glyph-name="zero.denominator" horiz-adv-x="375" 
d="M187 -11q-71 0 -111.5 53.5t-40.5 145.5q0 93 40 144t112 51t112.5 -51t40.5 -144t-40.5 -146t-112.5 -53zM187 314q-31 0 -49 -36.5t-18 -89.5q0 -54 18 -91.5t49 -37.5q32 0 50 37.5t18 91.5q0 53 -18 89.5t-50 36.5z" />
    <glyph glyph-name="one.denominator" horiz-adv-x="276" 
d="M61 247l-35 47l98 86h71v-380h-84v291z" />
    <glyph glyph-name="two.denominator" horiz-adv-x="385" 
d="M186 313q-26 0 -53 -16.5t-42 -35.5l-38 52l2 4q57 66 134 66q58 0 98 -33t40 -87q0 -19 -9 -36t-27 -33.5t-33.5 -27.5t-39.5 -26q-69 -40 -86 -71h189v-69h-277v41q0 46 32.5 79.5t92.5 71.5q22 12 35 21t26 24t13 29q0 21 -15.5 34t-41.5 13z" />
    <glyph glyph-name="three.denominator" horiz-adv-x="344" 
d="M162 -8q-83 0 -141 58l33 54q53 -47 106 -47q25 0 39 15.5t14 35.5q0 22 -15.5 38.5t-40.5 16.5h-52v62h50q25 0 39.5 14.5t14.5 33.5t-14.5 34.5t-36.5 15.5q-24 0 -49.5 -15t-41.5 -35l-35 54q46 59 128 59q58 0 96 -29.5t38 -82.5q0 -19 -14 -42t-42 -35
q32 -11 47 -37.5t15 -50.5q0 -52 -41.5 -84.5t-96.5 -32.5z" />
    <glyph glyph-name="four.denominator" horiz-adv-x="362" 
d="M280 0h-82v75h-168v56q56 118 172 249h78v-243h52v-62h-52v-75zM106 137h92v140q-27 -30 -54 -72t-38 -68z" />
    <glyph glyph-name="five.denominator" horiz-adv-x="370" 
d="M247 124q0 29 -17 46t-42 17q-42 0 -60 -35h-71l29 220h218v-67h-157l-11 -79q27 25 77 25q45 0 80 -36t35 -93q0 -60 -46 -96.5t-107 -36.5q-84 0 -133 75l43 47q41 -56 86 -56q40 0 58 21.5t18 47.5z" />
    <glyph glyph-name="six.denominator" horiz-adv-x="369" 
d="M304 353l-24 -54q-35 21 -67 21q-80 0 -86 -101q30 33 80 33t85 -36.5t35 -95.5q0 -62 -38.5 -96.5t-100.5 -34.5q-45 0 -76 18t-45 49t-19.5 58.5t-5.5 58.5q0 102 44.5 155.5t117.5 53.5q54 0 100 -29zM188 51q26 0 43 22.5t17 46.5q0 25 -17 47t-44 22
q-25 0 -42 -19.5t-17 -45.5q0 -30 17.5 -51.5t42.5 -21.5z" />
    <glyph glyph-name="seven.denominator" horiz-adv-x="367" 
d="M42 312v68h283v-53q-97 -130 -166 -327h-94q78 200 171 312h-194z" />
    <glyph glyph-name="eight.denominator" horiz-adv-x="366" 
d="M184 -11q-72 0 -109 33t-37 82q0 24 15.5 50t50.5 43q-54 32 -54 83q0 55 40 79t94 24q50 0 91.5 -26t41.5 -77q0 -20 -15 -44t-41 -39q36 -16 51.5 -42.5t15.5 -50.5q0 -49 -36.5 -82t-107.5 -33zM184 52q26 0 42 16.5t16 38.5q0 24 -15.5 43t-42.5 20
q-28 -1 -43.5 -20.5t-15.5 -42.5q0 -22 15.5 -38.5t43.5 -16.5zM184 225q23 0 36 14t13 36q0 18 -13.5 34t-35.5 16q-24 0 -38 -16t-14 -33q0 -24 14 -37.5t38 -13.5z" />
    <glyph glyph-name="nine.denominator" horiz-adv-x="368" 
d="M64 18l24 54q35 -21 67 -21q80 0 86 101q-33 -33 -80 -33q-50 0 -85 36.5t-35 95.5q0 62 38.5 96.5t100.5 34.5q45 0 76 -18t45 -49t19.5 -58.5t5.5 -58.5q0 -102 -44.5 -155.5t-117.5 -53.5q-54 0 -100 29zM180 320q-26 0 -43 -22.5t-17 -46.5q0 -25 17 -47.5t44 -22.5
q25 0 42 20t17 46q0 30 -17.5 51.5t-42.5 21.5z" />
    <glyph glyph-name="zero.numerator" horiz-adv-x="375" 
d="M187 283q-71 0 -111.5 53.5t-40.5 145.5q0 93 40 144t112 51t112.5 -51t40.5 -144t-40.5 -146t-112.5 -53zM187 608q-31 0 -49 -36.5t-18 -89.5q0 -54 18 -91.5t49 -37.5q32 0 50 37.5t18 91.5q0 53 -18 89.5t-50 36.5z" />
    <glyph glyph-name="one.numerator" horiz-adv-x="276" 
d="M61 541l-35 47l98 86h71v-380h-84v291z" />
    <glyph glyph-name="two.numerator" horiz-adv-x="385" 
d="M186 607q-26 0 -53 -16.5t-42 -35.5l-38 52l2 4q57 66 134 66q58 0 98 -33t40 -87q0 -19 -9 -36t-27 -33.5t-33.5 -27.5t-39.5 -26q-69 -40 -86 -71h189v-69h-277v41q0 46 32.5 79.5t92.5 71.5q22 12 35 21t26 24t13 29q0 21 -15.5 34t-41.5 13z" />
    <glyph glyph-name="three.numerator" horiz-adv-x="344" 
d="M162 286q-83 0 -141 58l33 54q53 -47 106 -47q25 0 39 15.5t14 35.5q0 22 -15.5 38.5t-40.5 16.5h-52v62h50q25 0 39.5 14.5t14.5 33.5t-14.5 34.5t-36.5 15.5q-24 0 -49.5 -15t-41.5 -35l-35 54q46 59 128 59q58 0 96 -29.5t38 -82.5q0 -19 -14 -42t-42 -35
q32 -11 47 -37.5t15 -50.5q0 -52 -41.5 -84.5t-96.5 -32.5z" />
    <glyph glyph-name="four.numerator" horiz-adv-x="362" 
d="M280 294h-82v75h-168v56q56 118 172 249h78v-243h52v-62h-52v-75zM106 431h92v140q-27 -30 -54 -72t-38 -68z" />
    <glyph glyph-name="five.numerator" horiz-adv-x="370" 
d="M247 418q0 29 -17 46t-42 17q-42 0 -60 -35h-71l29 220h218v-67h-157l-11 -79q27 25 77 25q45 0 80 -36t35 -93q0 -60 -46 -96.5t-107 -36.5q-84 0 -133 75l43 47q41 -56 86 -56q40 0 58 21.5t18 47.5z" />
    <glyph glyph-name="six.numerator" horiz-adv-x="369" 
d="M304 647l-24 -54q-35 21 -67 21q-80 0 -86 -101q30 33 80 33t85 -36.5t35 -95.5q0 -62 -38.5 -96.5t-100.5 -34.5q-45 0 -76 18t-45 49t-19.5 58.5t-5.5 58.5q0 102 44.5 155.5t117.5 53.5q54 0 100 -29zM188 345q26 0 43 22.5t17 46.5q0 25 -17 47t-44 22
q-25 0 -42 -19.5t-17 -45.5q0 -30 17.5 -51.5t42.5 -21.5z" />
    <glyph glyph-name="seven.numerator" horiz-adv-x="367" 
d="M42 606v68h283v-53q-97 -130 -166 -327h-94q78 200 171 312h-194z" />
    <glyph glyph-name="eight.numerator" horiz-adv-x="366" 
d="M184 283q-72 0 -109 33t-37 82q0 24 15.5 50t50.5 43q-54 32 -54 83q0 55 40 79t94 24q50 0 91.5 -26t41.5 -77q0 -20 -15 -44t-41 -39q36 -16 51.5 -42.5t15.5 -50.5q0 -49 -36.5 -82t-107.5 -33zM184 346q26 0 42 16.5t16 38.5q0 24 -15.5 43t-42.5 20
q-28 -1 -43.5 -20.5t-15.5 -42.5q0 -22 15.5 -38.5t43.5 -16.5zM184 519q23 0 36 14t13 36q0 18 -13.5 34t-35.5 16q-24 0 -38 -16t-14 -33q0 -24 14 -37.5t38 -13.5z" />
    <glyph glyph-name="nine.numerator" horiz-adv-x="368" 
d="M64 312l24 54q35 -21 67 -21q80 0 86 101q-33 -33 -80 -33q-50 0 -85 36.5t-35 95.5q0 62 38.5 96.5t100.5 34.5q45 0 76 -18t45 -49t19.5 -58.5t5.5 -58.5q0 -102 -44.5 -155.5t-117.5 -53.5q-54 0 -100 29zM180 614q-26 0 -43 -22.5t-17 -46.5q0 -25 17 -47.5t44 -22.5
q25 0 42 20t17 46q0 30 -17.5 51.5t-42.5 21.5z" />
    <glyph glyph-name="a.alt" horiz-adv-x="565" 
d="M377 429v55h128v-484h-127v55q-14 -27 -46.5 -44t-53 -20.5t-32.5 -3.5q-95 0 -153 65t-58 190q0 124 62.5 189.5t161.5 65.5q31 0 66 -15.5t52 -52.5zM286 401q-118 0 -118 -159q0 -67 24 -112.5t77 -45.5q108 0 108 88v144q0 27 -11 45.5t-27.5 26t-29 10.5t-23.5 3z
" />
    <glyph glyph-name="aacute.alt" horiz-adv-x="565" 
d="M206 547l93 151h141l-126 -151h-108zM377 429v55h128v-484h-127v55q-14 -27 -46.5 -44t-53 -20.5t-32.5 -3.5q-95 0 -153 65t-58 190q0 124 62.5 189.5t161.5 65.5q31 0 66 -15.5t52 -52.5zM286 401q-118 0 -118 -159q0 -67 24 -112.5t77 -45.5q108 0 108 88v144
q0 27 -11 45.5t-27.5 26t-29 10.5t-23.5 3z" />
    <glyph glyph-name="agrave.alt" horiz-adv-x="565" 
d="M272 698l93 -151h-108l-126 151h141zM377 429v55h128v-484h-127v55q-14 -27 -46.5 -44t-53 -20.5t-32.5 -3.5q-95 0 -153 65t-58 190q0 124 62.5 189.5t161.5 65.5q31 0 66 -15.5t52 -52.5zM286 401q-118 0 -118 -159q0 -67 24 -112.5t77 -45.5q108 0 108 88v144
q0 27 -11 45.5t-27.5 26t-29 10.5t-23.5 3z" />
    <glyph glyph-name="acircumflex.alt" horiz-adv-x="565" 
d="M213 698h142l102 -153h-104l-69 83l-68 -83h-104zM377 429v55h128v-484h-127v55q-14 -27 -46.5 -44t-53 -20.5t-32.5 -3.5q-95 0 -153 65t-58 190q0 124 62.5 189.5t161.5 65.5q31 0 66 -15.5t52 -52.5zM286 401q-118 0 -118 -159q0 -67 24 -112.5t77 -45.5q108 0 108 88
v144q0 27 -11 45.5t-27.5 26t-29 10.5t-23.5 3z" />
    <glyph glyph-name="adieresis.alt" horiz-adv-x="565" 
d="M118 564v116h123v-116h-123zM295 564v116h123v-116h-123zM377 429v55h128v-484h-127v55q-14 -27 -46.5 -44t-53 -20.5t-32.5 -3.5q-95 0 -153 65t-58 190q0 124 62.5 189.5t161.5 65.5q31 0 66 -15.5t52 -52.5zM286 401q-118 0 -118 -159q0 -67 24 -112.5t77 -45.5
q108 0 108 88v144q0 27 -11 45.5t-27.5 26t-29 10.5t-23.5 3z" />
    <glyph glyph-name="atilde.alt" horiz-adv-x="565" 
d="M277 577l-8 4q-27 16 -47 16t-30 -43h-78q3 62 24 98t74 36q17 0 47 -16l8 -4q30 -16 47 -16q20 0 29 43h79q-3 -62 -24 -98t-74 -36q-17 0 -47 16zM377 429v55h128v-484h-127v55q-14 -27 -46.5 -44t-53 -20.5t-32.5 -3.5q-95 0 -153 65t-58 190q0 124 62.5 189.5
t161.5 65.5q31 0 66 -15.5t52 -52.5zM286 401q-118 0 -118 -159q0 -67 24 -112.5t77 -45.5q108 0 108 88v144q0 27 -11 45.5t-27.5 26t-29 10.5t-23.5 3z" />
    <glyph glyph-name="aring.alt" horiz-adv-x="565" 
d="M170 659q0 48 29 80t87 32q62 0 89.5 -31t27.5 -81q0 -49 -27.5 -79.5t-89.5 -30.5q-58 0 -87 32t-29 78zM242 660q0 -42 44 -42q45 0 45 42t-45 42q-44 0 -44 -42zM377 429v55h128v-484h-127v55q-14 -27 -46.5 -44t-53 -20.5t-32.5 -3.5q-95 0 -153 65t-58 190
q0 124 62.5 189.5t161.5 65.5q31 0 66 -15.5t52 -52.5zM286 401q-118 0 -118 -159q0 -67 24 -112.5t77 -45.5q108 0 108 88v144q0 27 -11 45.5t-27.5 26t-29 10.5t-23.5 3z" />
    <glyph glyph-name="abreve.alt" horiz-adv-x="565" 
d="M269 536h-2q-76 0 -113 45.5t-37 116.5h78q5 -41 22 -60.5t51 -19.5t51 19.5t22 60.5h78q0 -71 -36.5 -116.5t-113.5 -45.5zM377 429v55h128v-484h-127v55q-14 -27 -46.5 -44t-53 -20.5t-32.5 -3.5q-95 0 -153 65t-58 190q0 124 62.5 189.5t161.5 65.5q31 0 66 -15.5
t52 -52.5zM286 401q-118 0 -118 -159q0 -67 24 -112.5t77 -45.5q108 0 108 88v144q0 27 -11 45.5t-27.5 26t-29 10.5t-23.5 3z" />
    <glyph glyph-name="amacron.alt" horiz-adv-x="565" 
d="M151 577v97h267v-97h-267zM377 429v55h128v-484h-127v55q-14 -27 -46.5 -44t-53 -20.5t-32.5 -3.5q-95 0 -153 65t-58 190q0 124 62.5 189.5t161.5 65.5q31 0 66 -15.5t52 -52.5zM286 401q-118 0 -118 -159q0 -67 24 -112.5t77 -45.5q108 0 108 88v144q0 27 -11 45.5
t-27.5 26t-29 10.5t-23.5 3z" />
    <glyph glyph-name="aogonek.alt" horiz-adv-x="565" 
d="M378 0v55q-14 -27 -46.5 -44t-53 -20.5t-32.5 -3.5q-95 0 -153 65t-58 190q0 124 62.5 189.5t161.5 65.5q31 0 66 -15.5t52 -52.5v55h128v-484h-40q-44 -66 -45.5 -87t60.5 -14l47 13v-88q-39 -18 -82 -23q-65 -6 -95.5 28.5t-10.5 96.5q14 40 39 74zM286 401
q-118 0 -118 -159q0 -67 24 -112.5t77 -45.5q108 0 108 88v144q0 27 -11 45.5t-27.5 26t-29 10.5t-23.5 3z" />
    <glyph glyph-name="aringacute.alt" horiz-adv-x="565" 
d="M165 642q0 48 29 80t87 32q62 0 89.5 -31t27.5 -81q0 -49 -27.5 -79.5t-89.5 -30.5q-58 0 -87 32t-29 78zM237 643q0 -42 44 -42q45 0 45 42t-45 42q-44 0 -44 -42zM225 790l93 151h141l-126 -151h-108zM377 429v55h128v-484h-127v55q-14 -27 -46.5 -44t-53 -20.5
t-32.5 -3.5q-95 0 -153 65t-58 190q0 124 62.5 189.5t161.5 65.5q31 0 66 -15.5t52 -52.5zM286 401q-118 0 -118 -159q0 -67 24 -112.5t77 -45.5q108 0 108 88v144q0 27 -11 45.5t-27.5 26t-29 10.5t-23.5 3z" />
    <glyph glyph-name="T_h" horiz-adv-x="1130" 
d="M1070 283v-283h-129v283q0 117 -78 117q-14 0 -29.5 -4t-35 -14.5t-32 -35.5t-12.5 -60v-286h-128v572h-278v-572h-130v572h-208v102h744v-245q23 37 61.5 52.5t71.5 15.5q183 0 183 -214z" />
    <glyph glyph-name="c_t" horiz-adv-x="831" 
d="M244 495q-1 51 9.5 87t24 53.5t36 27t34.5 10.5t30 1h315v-190h106v-85h-106v-250q0 -65 44 -65q18 0 64 14l10 -86q-47 -24 -92 -24q-20 0 -31 0.5t-37.5 8.5t-42 23t-29 48t-13.5 79v252h-76v85h76v108h-158q-40 0 -55 -30t-11 -70q61 -8 106 -31l-26 -88
q-71 25 -118 25q-71 0 -107 -44.5t-36 -111.5q0 -68 36 -113t107 -45q42 0 118 27l26 -88q-69 -36 -161 -36q-117 0 -184.5 68.5t-67.5 186.5q0 108 54.5 174.5t154.5 78.5z" />
    <glyph glyph-name="csuperior" horiz-adv-x="297" 
d="M16 551q0 75 42.5 118t117.5 43q58 0 108 -24l-20 -63q-53 19 -77 19q-40 0 -60.5 -26.5t-20.5 -66.5q0 -39 20.5 -65.5t60.5 -26.5q18 0 77 20l20 -63q-50 -24 -108 -24q-75 0 -117.5 42.5t-42.5 116.5z" />
    <glyph glyph-name="fsuperior" horiz-adv-x="188" 
d="M7 699h35v27q0 29 8.5 50t19 30.5t27 14.5t24.5 5.5t19 0.5h3q29 0 62 -18l-9 -54q-15 12 -45 12q-17 0 -17 -31v-37h55v-55h-55v-244h-92v244h-35v55z" />
    <glyph glyph-name="gsuperior" horiz-adv-x="353" 
d="M176 459q8 0 18 2.5t21 12.5t11 26v95q0 50 -59 50q-55 0 -55 -94q0 -92 64 -92zM227 394v35q-10 -17 -31.5 -27t-39.5 -10q-54 0 -97 42t-43 117q0 76 38 118.5t90 42.5q59 0 83 -41v33h91v-319q0 -54 -42 -78t-104 -24q-35 0 -70 9.5t-52 22.5l18 60q48 -29 101 -29
q57 0 58 48z" />
    <glyph glyph-name="ksuperior" horiz-adv-x="326" 
d="M195 586l131 -186h-102l-87 136l-11 -11v-125h-92v420h92v-202l77 86h110z" />
    <glyph glyph-name="psuperior" horiz-adv-x="351" 
d="M123 428v-145h-92v421h91v-32q29 40 79 40q59 0 95.5 -40.5t36.5 -119.5q0 -78 -38 -119t-100 -41q-16 0 -37.5 9.5t-34.5 26.5zM172 459q66 0 66 93q0 40 -13.5 66.5t-42.5 26.5q-59 0 -59 -49v-90q0 -24 18 -35.5t31 -11.5z" />
    <glyph glyph-name="qsuperior" horiz-adv-x="351" 
d="M226 283v145q-13 -17 -34.5 -26.5t-37.5 -9.5q-62 0 -100 41t-38 119q0 79 36.5 119.5t95.5 40.5q50 0 79 -40v32h91v-421h-92zM177 459q14 0 31.5 11.5t17.5 35.5v90q0 49 -59 49q-29 0 -42.5 -26.5t-13.5 -66.5q0 -93 66 -93z" />
    <glyph glyph-name="usuperior" horiz-adv-x="351" 
d="M31 528v176h92v-176q0 -69 42 -69q6 0 13 1.5t19 6.5t19.5 18t7.5 32v187h92v-304h-88v33q-12 -17 -31.5 -27t-30.5 -12t-17 -2q-48 0 -83 33t-35 103z" />
    <glyph glyph-name="vsuperior" horiz-adv-x="361" 
d="M225 400h-89l-130 304h98l77 -216l76 216h98z" />
    <glyph glyph-name="zsuperior" horiz-adv-x="298" 
d="M10 400v56l160 181h-154v67h270v-56l-162 -181h157v-67h-271z" />
    <glyph glyph-name="zero.oldstyle" horiz-adv-x="460" 
d="M228 -11q-84 0 -131 63.5t-47 179.5t47 180t131 64q85 0 133.5 -64t48.5 -180q0 -115 -48.5 -179t-133.5 -64zM228 391q-34 0 -56.5 -50.5t-22.5 -108.5q0 -60 22.5 -108.5t56.5 -48.5q36 0 58.5 48t22.5 109q0 59 -22.5 109t-58.5 50z" />
    <glyph glyph-name="one.oldstyle" horiz-adv-x="524" 
d="M78 0v83h134v270l-99 -69l-47 57l160 126h95v-384h133v-83h-376z" />
    <glyph glyph-name="two.oldstyle" horiz-adv-x="502" 
d="M251 396q-81 0 -154 -73l-57 62q84 99 217 99q84 0 137.5 -43.5t53.5 -113.5q0 -22 -11 -42.5t-22.5 -33.5t-40 -30t-40.5 -23t-47 -22q-10 -5 -26.5 -13t-24 -12t-19 -10t-17 -9.5t-13 -8.5t-11 -9t-7 -8.5t-5.5 -9.5h282v-96h-405v48q0 64 44 109.5t123 86.5
q79 39 102.5 58.5t23.5 37.5q0 22 -22 39t-61 17z" />
    <glyph glyph-name="three.oldstyle" horiz-adv-x="520" 
d="M261 -203q-135 0 -231 96l51 81q42 -40 82.5 -59.5t93.5 -19.5q49 0 76.5 28.5t27.5 67.5q0 41 -29 71t-80 30h-75v102h71q51 0 78 25.5t27 61.5q0 38 -27 66t-73 28q-85 0 -151 -80l-53 79q79 97 209 97q96 0 158.5 -49.5t62.5 -138.5q0 -42 -27 -83.5t-80 -52.5
q57 -9 87.5 -59.5t30.5 -94.5q0 -89 -68 -142.5t-161 -53.5z" />
    <glyph glyph-name="four.oldstyle" horiz-adv-x="571" 
d="M449 -190h-124v132q-48 0 -148.5 -0.5t-146.5 -0.5v91q54 117 121 211t177 217h121v-426h92v-93h-92v-131zM144 34h181v271q-56 -58 -109 -138.5t-72 -132.5z" />
    <glyph glyph-name="five.oldstyle" horiz-adv-x="555" 
d="M400 25q0 55 -34 86t-85 31q-10 0 -21.5 -2t-29.5 -7t-34.5 -18.5t-26.5 -32.5h-101l46 369h358v-109h-261l-22 -140q23 21 58.5 31.5t56.5 10.5q96 0 153.5 -60t57.5 -162q0 -101 -76.5 -163t-179.5 -62q-140 0 -219 118l70 74q65 -88 143 -88q77 0 112 38t35 86z" />
    <glyph glyph-name="six.oldstyle" horiz-adv-x="581" 
d="M486 616l-36 -80q-54 32 -112 32q-133 0 -158 -189q50 52 125 52q97 0 160 -60.5t63 -160.5q0 -103 -65 -162.5t-168 -59.5q-61 0 -106.5 21.5t-70.5 53.5t-40.5 77t-20 82.5t-4.5 79.5q0 174 74.5 266.5t196.5 92.5q94 0 162 -45zM293 81q53 0 80.5 40.5t27.5 88.5
q0 47 -28 89t-81 42q-49 0 -76 -36.5t-27 -88.5q0 -58 28.5 -96.5t75.5 -38.5z" />
    <glyph glyph-name="seven.oldstyle" horiz-adv-x="537" 
d="M34 356v104h471v-86q-103 -131 -170 -266t-118 -298h-141q63 170 135 302t171 244h-348z" />
    <glyph glyph-name="eight.oldstyle" horiz-adv-x="582" 
d="M291 -13q-117 0 -179 55t-62 136q0 21 6 43.5t20 48t42.5 44.5t68.5 26q-58 15 -87 58t-29 91q0 73 50 115t120 53q20 4 50 4q39 0 51 -4h-1q70 -11 120 -53t50 -115q0 -48 -28.5 -91t-87.5 -58q40 -7 68.5 -26t42.5 -44.5t20 -48t6 -43.5q0 -81 -62 -136t-179 -55z
M291 81q53 0 85.5 31t32.5 72q0 44 -31.5 79.5t-86.5 35.5q-54 0 -84.5 -35.5t-30.5 -79.5q0 -41 31 -72t84 -31zM291 389q48 0 75 24t28 66q0 35 -28 65t-75 30q-46 0 -74.5 -29.5t-28.5 -63.5q1 -44 28 -68t75 -24z" />
    <glyph glyph-name="nine.oldstyle" horiz-adv-x="555" 
d="M82 -157l36 80q54 -32 112 -32q133 0 158 189q-50 -52 -125 -52q-97 0 -160 60.5t-63 160.5q0 103 65 162.5t168 59.5q61 0 106.5 -21.5t70.5 -53.5t40.5 -77t20 -82.5t4.5 -79.5q0 -174 -74.5 -266.5t-196.5 -92.5q-94 0 -162 45zM275 378q-53 0 -80.5 -40.5
t-27.5 -88.5q0 -47 28 -89t81 -42q49 0 76 36.5t27 88.5q0 58 -28.5 96.5t-75.5 38.5z" />
    <glyph glyph-name="zero.pzero" horiz-adv-x="636" 
d="M438 451l-208 -302q38 -66 92 -66q63 0 98.5 71.5t35.5 172.5q0 69 -18 124zM479 606l47 68h65l-75 -109q62 -88 62 -238q0 -159 -68 -249.5t-188 -90.5q-95 0 -159 62l-52 -71h-66l82 117q-55 88 -55 232q0 157 67 245.5t183 88.5q95 0 157 -55zM207 211l205 298
q-37 56 -90 56q-60 0 -94.5 -70.5t-34.5 -167.5q0 -71 14 -116z" />
    <glyph glyph-name="zero.tzero" horiz-adv-x="636" 
d="M438 451l-208 -302q38 -66 92 -66q63 0 98.5 71.5t35.5 172.5q0 69 -18 124zM479 606l47 68h65l-75 -109q62 -88 62 -238q0 -159 -68 -249.5t-188 -90.5q-95 0 -159 62l-52 -71h-66l82 117q-55 88 -55 232q0 157 67 245.5t183 88.5q95 0 157 -55zM207 211l205 298
q-37 56 -90 56q-60 0 -94.5 -70.5t-34.5 -167.5q0 -71 14 -116z" />
    <glyph glyph-name="triangleup" horiz-adv-x="540" 
d="M480 162h-420l210 346z" />
    <glyph glyph-name="triangledown" horiz-adv-x="540" 
d="M60 508h420l-210 -346z" />
    <glyph glyph-name="zero.ozero" horiz-adv-x="478" 
d="M131 28l-25 -39h-56l50 76q-39 64 -39 167q0 116 47 180t131 64q63 0 105 -36l29 44h55l-52 -79q45 -65 45 -173q0 -115 -48.5 -179t-133.5 -64q-65 0 -108 39zM167 168l122 187q-20 36 -50 36q-34 0 -56.5 -50.5t-22.5 -108.5q0 -37 7 -64zM310 303l-123 -189
q24 -39 52 -39q36 0 58.5 48t22.5 109q0 38 -10 71z" />
    <glyph glyph-name="zero.tozero" horiz-adv-x="478" 
d="M131 28l-25 -39h-56l50 76q-39 64 -39 167q0 116 47 180t131 64q63 0 105 -36l29 44h55l-52 -79q45 -65 45 -173q0 -115 -48.5 -179t-133.5 -64q-65 0 -108 39zM167 168l122 187q-20 36 -50 36q-34 0 -56.5 -50.5t-22.5 -108.5q0 -37 7 -64zM310 303l-123 -189
q24 -39 52 -39q36 0 58.5 48t22.5 109q0 38 -10 71z" />
    <glyph glyph-name="A.small" horiz-adv-x="526" 
d="M128 0h-118l202 484h102l202 -484h-118l-44 106h-184q-20 -46 -42 -106zM263 369l-60 -177h120z" />
    <glyph glyph-name="B.small" horiz-adv-x="458" 
d="M269 200h-117v-114h117q27 0 42 16t15 38q0 25 -14.5 42.5t-42.5 17.5zM414 348q0 -7 -2 -16t-7.5 -24t-19 -29t-32.5 -22q39 -9 62 -45t23 -73q0 -52 -39.5 -95.5t-111.5 -43.5h-247v484h224q76 0 113 -39.5t37 -96.5zM152 287h107q22 0 33.5 17.5t11.5 35.5
q0 58 -54 58h-98v-111z" />
    <glyph glyph-name="C.small" horiz-adv-x="465" 
d="M30 242q0 107 68.5 178.5t181.5 71.5q88 0 160 -35l-29 -77q-67 25 -117 25q-76 0 -113.5 -48t-37.5 -115t37.5 -115.5t113.5 -48.5q51 0 119 23l27 -75q-72 -35 -160 -35q-113 0 -181.5 72t-68.5 179z" />
    <glyph glyph-name="D.small" horiz-adv-x="495" 
d="M225 0h-185v484h185q119 0 184.5 -61t65.5 -181t-65.5 -181t-184.5 -61zM151 86h77q60 0 97.5 39t37.5 117q0 79 -37.5 117.5t-99.5 38.5h-75v-312z" />
    <glyph glyph-name="E.small" horiz-adv-x="418" 
d="M393 0h-353v484h348v-86h-235v-111h217v-86h-217v-115h240v-86z" />
    <glyph glyph-name="F.small" horiz-adv-x="383" 
d="M152 -1l-112 1v484h333v-86h-221v-111h204v-86h-204v-202z" />
    <glyph glyph-name="G.small" horiz-adv-x="498" 
d="M361 187h-94v88h201v-243q-31 -17 -85 -29t-96 -12q-121 0 -195 72t-74 179t73.5 178.5t195.5 71.5q97 0 172 -49l-40 -77q-62 40 -116 40q-85 0 -128 -49t-43 -115q0 -65 42.5 -114.5t119.5 -49.5q33 0 67 10v99z" />
    <glyph glyph-name="H.small" horiz-adv-x="485" 
d="M333 211h-181v-211h-112v484h112v-186h181v186h112v-484h-112v211z" />
    <glyph glyph-name="I.small" horiz-adv-x="192" 
d="M40 0v484h112v-484h-112z" />
    <glyph glyph-name="J.small" horiz-adv-x="328" 
d="M5 27l27 79q37 -16 61 -23q45 -15 65 -2t21 61v342h109v-347q0 -146 -146 -146q-28 0 -58 6q-31 6 -79 30z" />
    <glyph glyph-name="K.small" horiz-adv-x="457" 
d="M452 0h-134l-139 185q-4 -6 -13.5 -16.5t-13.5 -16.5v-152h-112v484h112v-186l140 186h129l-172 -219z" />
    <glyph glyph-name="L.small" horiz-adv-x="398" 
d="M152 484v-397h221v-87h-333v484h112z" />
    <glyph glyph-name="M.small" horiz-adv-x="648" 
d="M279 0l-107 306l-18 -306h-114l25 484h138l122 -321q20 53 60 160.5t60 160.5h139l24 -484h-113l-18 307q-20 -53 -57 -160t-52 -147h-89z" />
    <glyph glyph-name="N.small" horiz-adv-x="489" 
d="M317 0l-166 328v-328h-111v484h138l160 -323v323h111v-484h-132z" />
    <glyph glyph-name="O.small" horiz-adv-x="542" 
d="M270 -9q-111 0 -175.5 67t-64.5 184t64.5 183.5t175.5 66.5q112 0 177 -66.5t65 -183.5t-65 -184t-177 -67zM270 407q-60 0 -92.5 -47.5t-32.5 -117.5q0 -74 32 -120t93 -46t93.5 46t32.5 120q0 70 -32.5 117.5t-93.5 47.5z" />
    <glyph glyph-name="P.small" horiz-adv-x="446" 
d="M270 174h-118v-174h-112v484h225q80 0 118 -49.5t38 -110.5q0 -8 -1.5 -21t-10.5 -37t-23.5 -43t-45 -34t-70.5 -15zM152 260h108q26 0 38.5 22.5t12.5 44.5q0 29 -16.5 50t-46.5 21h-96v-138z" />
    <glyph glyph-name="Q.small" horiz-adv-x="542" 
d="M326 -9h-56q-108 0 -174 67.5t-66 183.5q0 117 64.5 183.5t175.5 66.5q112 0 177 -66.5t65 -183.5q0 -65 -26 -119t-69 -88q20 -11 43 -11h46v-83h-44q-38 0 -65.5 7.5t-39 15.5t-24.5 21zM270 407q-60 0 -92.5 -47.5t-32.5 -117.5q0 -73 32 -119t93 -46t93.5 46
t32.5 119q0 70 -32.5 117.5t-93.5 47.5z" />
    <glyph glyph-name="R.small" horiz-adv-x="471" 
d="M421 327q0 -10 -3.5 -26t-21.5 -43.5t-48 -44.5q24 -17 36 -48l57 -165h-116l-42 124q-11 30 -24 43t-34 13h-73v-180h-112v484h218q90 0 126.5 -47t36.5 -110zM152 266h108q27 0 38.5 19.5t11.5 40.5q0 30 -13.5 51t-42.5 21h-102v-132z" />
    <glyph glyph-name="S.small" horiz-adv-x="441" 
d="M310 478q43 -18 88 -50l-41 -79q-70 57 -142 57q-25 0 -42 -12.5t-19 -30.5q-5 -35 45 -52l118 -47q99 -38 99 -124q0 -69 -53.5 -108.5t-130.5 -39.5q-63 0 -103 17q-66 23 -104 59l46 78q33 -29 77.5 -47.5t84.5 -18.5q52 0 69 38q15 38 -31 60q-6 2 -21.5 8.5t-43 17
t-64.5 24.5q-54 20 -78.5 53.5t-24.5 69.5q0 65 54 103t127 38q43 0 90 -14z" />
    <glyph glyph-name="T.small" horiz-adv-x="421" 
d="M411 398h-144v-398h-111v398h-146v86h401v-86z" />
    <glyph glyph-name="U.small" horiz-adv-x="503" 
d="M251 -9q-104 0 -157.5 52t-53.5 174v267h112v-268q0 -70 23 -101.5t76 -31.5t76.5 31.5t23.5 101.5v268h112v-267q0 -123 -53.5 -174.5t-158.5 -51.5z" />
    <glyph glyph-name="V.small" horiz-adv-x="488" 
d="M10 484h114l120 -355l121 355h113l-182 -484h-103z" />
    <glyph glyph-name="W.small" horiz-adv-x="695" 
d="M401 468l83 -297l85 313h116l-148 -484h-105l-84 290l-85 -290h-105l-148 484h116l85 -312l84 296h106z" />
    <glyph glyph-name="X.small" horiz-adv-x="507" 
d="M366 0l-113 164l-112 -164h-131l181 240l-172 244h130l104 -169l106 169h129l-172 -244l181 -240h-131z" />
    <glyph glyph-name="Y.small" horiz-adv-x="504" 
d="M309 0h-114v170l-185 314h129l113 -222l113 222h129l-185 -313v-171z" />
    <glyph glyph-name="Z.small" horiz-adv-x="455" 
d="M418 0h-393v79l258 319h-247v86h394v-76l-264 -320h252v-88z" />
    <glyph glyph-name="Eth.small" horiz-adv-x="533" 
d="M78 484h186q119 0 184 -61t65 -181t-65 -181t-184 -61h-186v200h-68v87h68v197zM189 86h78q59 0 96.5 39t37.5 117q0 80 -36.5 118t-99.5 38h-76v-111h138v-87h-138v-114z" />
    <glyph glyph-name="Lslash.small" horiz-adv-x="445" 
d="M87 0v151l-77 -52v89l77 50v246h112v-169l76 53v-91l-76 -50v-140h221v-87h-333z" />
    <glyph glyph-name="Scaron.small" horiz-adv-x="441" 
d="M310 478q43 -18 88 -50l-41 -79q-70 57 -142 57q-25 0 -42 -12.5t-19 -30.5q-5 -35 45 -52l118 -47q99 -38 99 -124q0 -69 -53.5 -108.5t-130.5 -39.5q-63 0 -103 17q-66 23 -104 59l46 78q33 -29 77.5 -47.5t84.5 -18.5q52 0 69 38q15 38 -31 60q-6 2 -21.5 8.5t-43 17
t-64.5 24.5q-54 20 -78.5 53.5t-24.5 69.5q0 65 54 103t127 38q43 0 90 -14zM271 544h-111l-81 122h95l41 -49l41 49h95z" />
    <glyph glyph-name="Yacute.small" horiz-adv-x="504" 
d="M183 536l74 121h123l-101 -121h-96zM309 0h-114v170l-185 314h129l113 -222l113 222h129l-185 -313v-171z" />
    <glyph glyph-name="Zcaron.small" horiz-adv-x="455" 
d="M291 544h-111l-81 122h95l41 -49l41 49h95zM418 0h-393v79l258 319h-247v86h394v-76l-264 -320h252v-88z" />
    <glyph glyph-name="Thorn.small" horiz-adv-x="415" 
d="M153 484v-99q26 40 78 40q74 0 119 -47t45 -139q0 -90 -49 -138t-128 -48q-12 0 -33 9t-33 24v-86h-112v484h113zM206 342q-15 0 -34 -13.5t-19 -42.5v-97q0 -53 65 -53q31 0 45.5 29.5t14.5 73.5q0 103 -72 103z" />
    <glyph glyph-name="Adieresis.small" horiz-adv-x="526" 
d="M139 552v96h102v-96h-102zM279 552v96h102v-96h-102zM128 0h-118l202 484h102l202 -484h-118l-44 106h-184q-20 -46 -42 -106zM263 369l-60 -177h120z" />
    <glyph glyph-name="Aring.small" horiz-adv-x="526" 
d="M171 600q0 36 23 60.5t69 24.5q48 0 70 -23.5t22 -61.5q0 -37 -22 -60.5t-70 -23.5q-47 0 -69.5 24t-22.5 60zM128 0h-118l202 484h102l202 -484h-118l-44 106h-184q-20 -46 -42 -106zM263 369l-60 -177h120zM233 600q0 -27 30 -27t30 27t-30 27t-30 -27z" />
    <glyph glyph-name="Ccedilla.small" horiz-adv-x="465" 
d="M30 242q0 107 68.5 178.5t181.5 71.5q88 0 160 -35l-29 -77q-67 25 -117 25q-76 0 -113.5 -48t-37.5 -115t37.5 -115.5t113.5 -48.5q51 0 119 23l27 -75q-52 -27 -125 -34q10 -17 16 -33q19 -44 -9.5 -72.5t-74.5 -24.5q-42 6 -67 20v76l47 -13q47 -12 4 50
q-94 16 -147.5 83.5t-53.5 163.5z" />
    <glyph glyph-name="Eacute.small" horiz-adv-x="418" 
d="M393 0h-353v484h348v-86h-235v-111h217v-86h-217v-115h240v-86zM143 542l74 121h122l-100 -121h-96z" />
    <glyph glyph-name="Ntilde.small" horiz-adv-x="489" 
d="M317 0l-166 328v-328h-111v484h138l160 -323v323h111v-484h-132zM264 558l-6 3q-17 10 -28 10q-6 0 -11 -30h-74q3 50 19 79t59 29q19 0 38 -11l6 -3q13 -10 27 -10q4 0 10 30h76q-3 -51 -19 -80t-60 -29q-18 0 -37 12z" />
    <glyph glyph-name="Odieresis.small" horiz-adv-x="542" 
d="M270 -9q-111 0 -175.5 67t-64.5 184t64.5 183.5t175.5 66.5q112 0 177 -66.5t65 -183.5t-65 -184t-177 -67zM270 407q-60 0 -92.5 -47.5t-32.5 -117.5q0 -74 32 -120t93 -46t93.5 46t32.5 120q0 70 -32.5 117.5t-93.5 47.5zM147 552v96h102v-96h-102zM287 552v96h102v-96
h-102z" />
    <glyph glyph-name="Udieresis.small" horiz-adv-x="503" 
d="M130 552v96h102v-96h-102zM270 552v96h102v-96h-102zM251 -9q-104 0 -157.5 52t-53.5 174v267h112v-268q0 -70 23 -101.5t76 -31.5t76.5 31.5t23.5 101.5v268h112v-267q0 -123 -53.5 -174.5t-158.5 -51.5z" />
    <glyph glyph-name="AE.small" horiz-adv-x="686" 
d="M308 388l-87 -196h87v196zM420 86h241v-86h-353v106h-123l-52 -106h-123l242 484h404v-86h-235v-111h218v-86h-219v-115z" />
    <glyph glyph-name="Oslash.small" horiz-adv-x="542" 
d="M161 151l157 246q-26 10 -48 10q-60 0 -92.5 -47.5t-32.5 -117.5q0 -47 16 -91zM128 -38h-92l62 92q-68 66 -68 188q0 117 64.5 183.5t175.5 66.5q56 0 98 -16q4 7 13.5 21.5t12.5 19.5h89l-50 -80q79 -68 79 -195q0 -117 -65 -184t-177 -67q-68 0 -107 19q-3 -4 -35 -48
zM373 344l-160 -253q23 -15 57 -15q61 0 93.5 46t32.5 120q0 59 -23 102z" />
    <glyph glyph-name="Agrave.small" horiz-adv-x="526" 
d="M128 0h-118l202 484h102l202 -484h-118l-44 106h-184q-20 -46 -42 -106zM263 369l-60 -177h120zM225 663l74 -121h-96l-100 121h122z" />
    <glyph glyph-name="Atilde.small" horiz-adv-x="526" 
d="M128 0h-118l202 484h102l202 -484h-118l-44 106h-184q-20 -46 -42 -106zM263 369l-60 -177h120zM264 558l-6 3q-17 10 -28 10q-6 0 -11 -30h-74q3 50 19 79t59 29q19 0 38 -11l6 -3q13 -10 27 -10q4 0 10 30h76q-3 -51 -19 -80t-60 -29q-18 0 -37 12z" />
    <glyph glyph-name="Otilde.small" horiz-adv-x="534" 
d="M264 558l-6 3q-17 10 -28 10q-6 0 -11 -30h-74q3 50 19 79t59 29q19 0 38 -11l6 -3q13 -10 27 -10q4 0 10 30h76q-3 -51 -19 -80t-60 -29q-18 0 -37 12zM270 -9q-111 0 -175.5 67t-64.5 184t64.5 183.5t175.5 66.5q112 0 177 -66.5t65 -183.5t-65 -184t-177 -67zM270 407
q-60 0 -92.5 -47.5t-32.5 -117.5q0 -74 32 -120t93 -46t93.5 46t32.5 120q0 70 -32.5 117.5t-93.5 47.5z" />
    <glyph glyph-name="OE.small" horiz-adv-x="774" 
d="M270 407q-61 0 -93 -47t-32 -118q0 -73 32 -119t93 -46t93 46t32 119q0 71 -32 118t-93 47zM396 0v37q-57 -45 -136 -45q-105 0 -167.5 66.5t-62.5 183.5q0 116 64 183t166 67q85 0 136 -46v38h348v-86h-235v-111h218v-86h-218v-115h240v-86h-353z" />
    <glyph glyph-name="Ydieresis.small" horiz-adv-x="504" 
d="M309 0h-114v170l-185 314h129l113 -222l113 222h129l-185 -313v-171zM132 552v96h102v-96h-102zM272 552v96h102v-96h-102z" />
    <glyph glyph-name="Acircumflex.small" horiz-adv-x="526" 
d="M128 0h-118l202 484h102l202 -484h-118l-44 106h-184q-20 -46 -42 -106zM263 369l-60 -177h120zM207 666h111l81 -122h-95l-41 49l-41 -49h-95z" />
    <glyph glyph-name="Ecircumflex.small" horiz-adv-x="418" 
d="M156 666h111l81 -122h-95l-41 49l-41 -49h-95zM393 0h-353v484h348v-86h-235v-111h217v-86h-217v-115h240v-86z" />
    <glyph glyph-name="Aacute.small" horiz-adv-x="526" 
d="M128 0h-118l202 484h102l202 -484h-118l-44 106h-184q-20 -46 -42 -106zM263 369l-60 -177h120zM220 542l74 121h122l-100 -121h-96z" />
    <glyph glyph-name="Edieresis.small" horiz-adv-x="418" 
d="M393 0h-353v484h348v-86h-235v-111h217v-86h-217v-115h240v-86zM98 552v96h102v-96h-102zM238 552v96h102v-96h-102z" />
    <glyph glyph-name="Egrave.small" horiz-adv-x="418" 
d="M216 663l74 -121h-96l-100 121h122zM393 0h-353v484h348v-86h-235v-111h217v-86h-217v-115h240v-86z" />
    <glyph glyph-name="Iacute.small" horiz-adv-x="191" 
d="M40 0v484h111v-484h-111zM40 536l74 121h123l-101 -121h-96z" />
    <glyph glyph-name="Icircumflex.small" horiz-adv-x="191" 
d="M40 0v484h111v-484h-111zM39 666h111l81 -122h-95l-41 49l-41 -49h-95z" />
    <glyph glyph-name="Idieresis.small" horiz-adv-x="192" 
d="M40 0v484h112v-484h-112zM-25 552v96h102v-96h-102zM115 552v96h102v-96h-102z" />
    <glyph glyph-name="Igrave.small" horiz-adv-x="191" 
d="M40 0v484h111v-484h-111zM77 657l74 -121h-96l-101 121h123z" />
    <glyph glyph-name="Oacute.small" horiz-adv-x="542" 
d="M270 -9q-111 0 -175.5 67t-64.5 184t64.5 183.5t175.5 66.5q112 0 177 -66.5t65 -183.5t-65 -184t-177 -67zM270 407q-60 0 -92.5 -47.5t-32.5 -117.5q0 -74 32 -120t93 -46t93.5 46t32.5 120q0 70 -32.5 117.5t-93.5 47.5zM219 536l74 121h123l-101 -121h-96z" />
    <glyph glyph-name="Ocircumflex.small" horiz-adv-x="542" 
d="M270 -9q-111 0 -175.5 67t-64.5 184t64.5 183.5t175.5 66.5q112 0 177 -66.5t65 -183.5t-65 -184t-177 -67zM270 407q-60 0 -92.5 -47.5t-32.5 -117.5q0 -74 32 -120t93 -46t93.5 46t32.5 120q0 70 -32.5 117.5t-93.5 47.5zM213 666h111l81 -122h-95l-41 49l-41 -49h-95z
" />
    <glyph glyph-name="Ograve.small" horiz-adv-x="542" 
d="M270 -9q-111 0 -175.5 67t-64.5 184t64.5 183.5t175.5 66.5q112 0 177 -66.5t65 -183.5t-65 -184t-177 -67zM270 407q-60 0 -92.5 -47.5t-32.5 -117.5q0 -74 32 -120t93 -46t93.5 46t32.5 120q0 70 -32.5 117.5t-93.5 47.5zM255 657l74 -121h-96l-101 121h123z" />
    <glyph glyph-name="Uacute.small" horiz-adv-x="503" 
d="M251 -9q-104 0 -157.5 52t-53.5 174v267h112v-268q0 -70 23 -101.5t76 -31.5t76.5 31.5t23.5 101.5v268h112v-267q0 -123 -53.5 -174.5t-158.5 -51.5zM193 536l74 121h123l-101 -121h-96z" />
    <glyph glyph-name="Ucircumflex.small" horiz-adv-x="503" 
d="M251 -9q-104 0 -157.5 52t-53.5 174v267h112v-268q0 -70 23 -101.5t76 -31.5t76.5 31.5t23.5 101.5v268h112v-267q0 -123 -53.5 -174.5t-158.5 -51.5zM195 666h111l81 -122h-95l-41 49l-41 -49h-95z" />
    <glyph glyph-name="Ugrave.small" horiz-adv-x="503" 
d="M251 -9q-104 0 -157.5 52t-53.5 174v267h112v-268q0 -70 23 -101.5t76 -31.5t76.5 31.5t23.5 101.5v268h112v-267q0 -123 -53.5 -174.5t-158.5 -51.5zM247 657l74 -121h-96l-101 121h123z" />
    <glyph glyph-name="Cdotaccent.small" horiz-adv-x="465" 
d="M30 242q0 107 68.5 178.5t181.5 71.5q88 0 160 -35l-29 -77q-67 25 -117 25q-76 0 -113.5 -48t-37.5 -115t37.5 -115.5t113.5 -48.5q51 0 119 23l27 -75q-72 -35 -160 -35q-113 0 -181.5 72t-68.5 179zM223 556v96h111v-96h-111z" />
    <glyph glyph-name="Ibreve.small" horiz-adv-x="192" 
d="M40 0v484h112v-484h-112zM96 533q-59 0 -87.5 36t-28.5 93h71q4 -30 13.5 -43t31.5 -13t31.5 13t13.5 43h71q0 -57 -28.5 -93t-87.5 -36z" />
    <glyph glyph-name="Idotaccent.small" horiz-adv-x="192" 
d="M40 0v484h112v-484h-112zM40 554v96h111v-96h-111z" />
    <glyph glyph-name="Ycircumflex.small" horiz-adv-x="504" 
d="M309 0h-114v170l-185 314h129l113 -222l113 222h129l-185 -313v-171zM195 666h111l81 -122h-95l-41 49l-41 -49h-95z" />
    <glyph glyph-name="Wcircumflex.small" horiz-adv-x="695" 
d="M291 666h111l81 -122h-95l-41 49l-41 -49h-95zM401 468l83 -297l85 313h116l-148 -484h-105l-84 290l-85 -290h-105l-148 484h116l85 -312l84 296h106z" />
    <glyph glyph-name="Tcaron.small" horiz-adv-x="421" 
d="M411 398h-144v-398h-111v398h-146v86h401v-86zM265 544h-111l-81 122h95l41 -49l41 49h95z" />
    <glyph glyph-name="Utilde.small" horiz-adv-x="503" 
d="M251 -9q-104 0 -157.5 52t-53.5 174v267h112v-268q0 -70 23 -101.5t76 -31.5t76.5 31.5t23.5 101.5v268h112v-267q0 -123 -53.5 -174.5t-158.5 -51.5zM255 558l-6 3q-18 10 -28 10q-6 0 -11 -30h-74q3 50 19 79t59 29q19 0 38 -11l6 -3q13 -10 27 -10q4 0 10 30h76
q-3 -51 -19 -80t-60 -29q-18 0 -37 12z" />
    <glyph glyph-name="Scircumflex.small" horiz-adv-x="441" 
d="M310 478q43 -18 88 -50l-41 -79q-70 57 -142 57q-25 0 -42 -12.5t-19 -30.5q-5 -35 45 -52l118 -47q99 -38 99 -124q0 -69 -53.5 -108.5t-130.5 -39.5q-63 0 -103 17q-66 23 -104 59l46 78q33 -29 77.5 -47.5t84.5 -18.5q52 0 69 38q15 38 -31 60q-6 2 -21.5 8.5t-43 17
t-64.5 24.5q-54 20 -78.5 53.5t-24.5 69.5q0 65 54 103t127 38q43 0 90 -14zM171 666h111l81 -122h-95l-41 49l-41 -49h-95z" />
    <glyph glyph-name="Rcaron.small" horiz-adv-x="455" 
d="M421 327q0 -10 -3.5 -26t-21.5 -43.5t-48 -44.5q24 -17 36 -48l57 -165h-116l-42 124q-11 30 -24 43t-34 13h-73v-180h-112v484h218q90 0 126.5 -47t36.5 -110zM152 266h108q27 0 38.5 19.5t11.5 40.5q0 30 -13.5 51t-42.5 21h-102v-132zM269 544h-111l-81 122h95l41 -49
l41 49h95z" />
    <glyph glyph-name="Ncaron.small" horiz-adv-x="489" 
d="M301 544h-111l-81 122h95l41 -49l41 49h95zM317 0l-166 328v-328h-111v484h138l160 -323v323h111v-484h-132z" />
    <glyph glyph-name="Jcircumflex.small" horiz-adv-x="328" 
d="M5 27l27 79q37 -16 61 -23q45 -15 65 -2t21 61v342h109v-347q0 -146 -146 -146q-28 0 -58 6q-31 6 -79 30zM177 666h111l81 -122h-95l-41 49l-41 -49h-95z" />
    <glyph glyph-name="Itilde.small" horiz-adv-x="192" 
d="M40 0v484h112v-484h-112zM91 558l-6 3q-18 10 -28 10q-6 0 -11 -30h-74q3 50 19 79t59 29q19 0 38 -11l6 -3q13 -10 27 -10q4 0 10 30h76q-3 -51 -19 -80t-60 -29q-18 0 -37 12z" />
    <glyph glyph-name="Hcircumflex.small" horiz-adv-x="485" 
d="M333 211h-181v-211h-112v484h112v-186h181v186h112v-484h-112v211zM189 666h111l81 -122h-95l-41 49l-41 -49h-95z" />
    <glyph glyph-name="Gcircumflex.small" horiz-adv-x="498" 
d="M361 187h-94v88h201v-243q-31 -17 -85 -29t-96 -12q-121 0 -195 72t-74 179t73.5 178.5t195.5 71.5q97 0 172 -49l-40 -77q-62 40 -116 40q-85 0 -128 -49t-43 -115q0 -65 42.5 -114.5t119.5 -49.5q33 0 67 10v99zM213 666h111l81 -122h-95l-41 49l-41 -49h-95z" />
    <glyph glyph-name="Ecaron.small" horiz-adv-x="418" 
d="M393 0h-353v484h348v-86h-235v-111h217v-86h-217v-115h240v-86zM269 544h-111l-81 122h95l41 -49l41 49h95z" />
    <glyph glyph-name="Dcaron.small" horiz-adv-x="495" 
d="M269 544h-111l-81 122h95l41 -49l41 49h95zM225 0h-185v484h185q119 0 184.5 -61t65.5 -181t-65.5 -181t-184.5 -61zM151 86h77q60 0 97.5 39t37.5 117q0 79 -37.5 117.5t-99.5 38.5h-75v-312z" />
    <glyph glyph-name="Lcaron.small" horiz-adv-x="410" 
d="M152 484v-397h221v-87h-333v484h112zM193 363l74 121h123l-101 -121h-96z" />
    <glyph glyph-name="Ccaron.small" horiz-adv-x="465" 
d="M30 242q0 107 68.5 178.5t181.5 71.5q88 0 160 -35l-29 -77q-67 25 -117 25q-76 0 -113.5 -48t-37.5 -115t37.5 -115.5t113.5 -48.5q51 0 119 23l27 -75q-72 -35 -160 -35q-113 0 -181.5 72t-68.5 179zM318 544h-111l-81 122h95l41 -49l41 49h95z" />
    <glyph glyph-name="Ccircumflex.small" horiz-adv-x="465" 
d="M30 242q0 107 68.5 178.5t181.5 71.5q88 0 160 -35l-29 -77q-67 25 -117 25q-76 0 -113.5 -48t-37.5 -115t37.5 -115.5t113.5 -48.5q51 0 119 23l27 -75q-72 -35 -160 -35q-113 0 -181.5 72t-68.5 179zM213 666h111l81 -122h-95l-41 49l-41 -49h-95z" />
    <glyph glyph-name="Zacute.small" horiz-adv-x="455" 
d="M418 0h-393v79l258 319h-247v86h394v-76l-264 -320h252v-88zM152 536l74 121h123l-101 -121h-96z" />
    <glyph glyph-name="Wgrave.small" horiz-adv-x="695" 
d="M401 468l83 -297l85 313h116l-148 -484h-105l-84 290l-85 -290h-105l-148 484h116l85 -312l84 296h106zM314 657l74 -121h-96l-101 121h123z" />
    <glyph glyph-name="Wacute.small" horiz-adv-x="695" 
d="M401 468l83 -297l85 313h116l-148 -484h-105l-84 290l-85 -290h-105l-148 484h116l85 -312l84 296h106zM301 536l74 121h123l-101 -121h-96z" />
    <glyph glyph-name="Ygrave.small" horiz-adv-x="504" 
d="M309 0h-114v170l-185 314h129l113 -222l113 222h129l-185 -313v-171zM237 657l74 -121h-96l-101 121h123z" />
    <glyph glyph-name="Sacute.small" horiz-adv-x="441" 
d="M310 478q43 -18 88 -50l-41 -79q-70 57 -142 57q-25 0 -42 -12.5t-19 -30.5q-5 -35 45 -52l118 -47q99 -38 99 -124q0 -69 -53.5 -108.5t-130.5 -39.5q-63 0 -103 17q-66 23 -104 59l46 78q33 -29 77.5 -47.5t84.5 -18.5q52 0 69 38q15 38 -31 60q-6 2 -21.5 8.5t-43 17
t-64.5 24.5q-54 20 -78.5 53.5t-24.5 69.5q0 65 54 103t127 38q43 0 90 -14zM165 536l74 121h123l-101 -121h-96z" />
    <glyph glyph-name="Racute.small" horiz-adv-x="471" 
d="M421 327q0 -10 -3.5 -26t-21.5 -43.5t-48 -44.5q24 -17 36 -48l57 -165h-116l-42 124q-11 30 -24 43t-34 13h-73v-180h-112v484h218q90 0 126.5 -47t36.5 -110zM152 266h108q27 0 38.5 19.5t11.5 40.5q0 30 -13.5 51t-42.5 21h-102v-132zM146 536l74 121h123l-101 -121
h-96z" />
    <glyph glyph-name="Lacute.small" horiz-adv-x="398" 
d="M152 484v-397h221v-87h-333v484h112zM42 536l74 121h123l-101 -121h-96z" />
    <glyph glyph-name="Cacute.small" horiz-adv-x="465" 
d="M30 242q0 107 68.5 178.5t181.5 71.5q88 0 160 -35l-29 -77q-67 25 -117 25q-76 0 -113.5 -48t-37.5 -115t37.5 -115.5t113.5 -48.5q51 0 119 23l27 -75q-72 -35 -160 -35q-113 0 -181.5 72t-68.5 179zM207 536l74 121h123l-101 -121h-96z" />
    <glyph glyph-name="Gdotaccent.small" horiz-adv-x="498" 
d="M361 187h-94v88h201v-243q-31 -17 -85 -29t-96 -12q-121 0 -195 72t-74 179t73.5 178.5t195.5 71.5q97 0 172 -49l-40 -77q-62 40 -116 40q-85 0 -128 -49t-43 -115q0 -65 42.5 -114.5t119.5 -49.5q33 0 67 10v99zM223 556v96h111v-96h-111z" />
    <glyph glyph-name="Edotaccent.small" horiz-adv-x="418" 
d="M162 556v96h111v-96h-111zM393 0h-353v484h348v-86h-235v-111h217v-86h-217v-115h240v-86z" />
    <glyph glyph-name="Ohungarumlaut.small" horiz-adv-x="542" 
d="M270 -9q-111 0 -175.5 67t-64.5 184t64.5 183.5t175.5 66.5q112 0 177 -66.5t65 -183.5t-65 -184t-177 -67zM270 407q-60 0 -92.5 -47.5t-32.5 -117.5q0 -74 32 -120t93 -46t93.5 46t32.5 120q0 70 -32.5 117.5t-93.5 47.5zM144 536l74 121h123l-101 -121h-96zM300 536
l74 121h123l-101 -121h-96z" />
    <glyph glyph-name="Uhungarumlaut.small" horiz-adv-x="504" 
d="M111 536l74 121h123l-101 -121h-96zM267 536l74 121h123l-101 -121h-96zM251 -9q-104 0 -157.5 52t-53.5 174v267h112v-268q0 -70 23 -101.5t76 -31.5t76.5 31.5t23.5 101.5v268h112v-267q0 -123 -53.5 -174.5t-158.5 -51.5z" />
    <glyph glyph-name="Uring.small" horiz-adv-x="503" 
d="M251 -9q-104 0 -157.5 52t-53.5 174v267h112v-268q0 -70 23 -101.5t76 -31.5t76.5 31.5t23.5 101.5v268h112v-267q0 -123 -53.5 -174.5t-158.5 -51.5zM158 600q0 36 23 60.5t69 24.5q48 0 70 -23.5t22 -61.5q0 -37 -22 -60.5t-70 -23.5q-47 0 -69.5 24t-22.5 60zM220 600
q0 -27 30 -27t30 27t-30 27t-30 -27z" />
    <glyph glyph-name="Ldot.small" horiz-adv-x="398" 
d="M152 484v-397h221v-87h-333v484h112zM245 289v96h111v-96h-111z" />
    <glyph glyph-name="Ubreve.small" horiz-adv-x="503" 
d="M251 533q-59 0 -87.5 36t-28.5 93h71q4 -30 13.5 -43t31.5 -13t31.5 13t13.5 43h71q0 -57 -28.5 -93t-87.5 -36zM251 -9q-104 0 -157.5 52t-53.5 174v267h112v-268q0 -70 23 -101.5t76 -31.5t76.5 31.5t23.5 101.5v268h112v-267q0 -123 -53.5 -174.5t-158.5 -51.5z" />
    <glyph glyph-name="Obreve.small" horiz-adv-x="542" 
d="M270 -9q-111 0 -175.5 67t-64.5 184t64.5 183.5t175.5 66.5q112 0 177 -66.5t65 -183.5t-65 -184t-177 -67zM270 407q-60 0 -92.5 -47.5t-32.5 -117.5q0 -74 32 -120t93 -46t93.5 46t32.5 120q0 70 -32.5 117.5t-93.5 47.5zM269 533q-59 0 -87.5 36t-28.5 93h71
q4 -30 13.5 -43t31.5 -13t31.5 13t13.5 43h71q0 -57 -28.5 -93t-87.5 -36z" />
    <glyph glyph-name="Gbreve.small" horiz-adv-x="498" 
d="M361 187h-94v88h201v-243q-31 -17 -85 -29t-96 -12q-121 0 -195 72t-74 179t73.5 178.5t195.5 71.5q97 0 172 -49l-40 -77q-62 40 -116 40q-85 0 -128 -49t-43 -115q0 -65 42.5 -114.5t119.5 -49.5q33 0 67 10v99zM269 533q-59 0 -87.5 36t-28.5 93h71q4 -30 13.5 -43
t31.5 -13t31.5 13t13.5 43h71q0 -57 -28.5 -93t-87.5 -36z" />
    <glyph glyph-name="Ebreve.small" horiz-adv-x="418" 
d="M213 533q-59 0 -87.5 36t-28.5 93h71q4 -30 13.5 -43t31.5 -13t31.5 13t13.5 43h71q0 -57 -28.5 -93t-87.5 -36zM393 0h-353v484h348v-86h-235v-111h217v-86h-217v-115h240v-86z" />
    <glyph glyph-name="Abreve.small" horiz-adv-x="526" 
d="M263 533q-59 0 -87.5 36t-28.5 93h71q4 -30 13.5 -43t31.5 -13t31.5 13t13.5 43h71q0 -57 -28.5 -93t-87.5 -36zM128 0h-118l202 484h102l202 -484h-118l-44 106h-184q-20 -46 -42 -106zM263 369l-60 -177h120z" />
    <glyph glyph-name="Nacute.small" horiz-adv-x="489" 
d="M317 0l-166 328v-328h-111v484h138l160 -323v323h111v-484h-132zM193 536l74 121h123l-101 -121h-96z" />
    <glyph glyph-name="Zdotaccent.small" horiz-adv-x="455" 
d="M418 0h-393v79l258 319h-247v86h394v-76l-264 -320h252v-88zM174 556v96h111v-96h-111z" />
    <glyph glyph-name="Wdieresis.small" horiz-adv-x="695" 
d="M401 468l83 -297l85 313h116l-148 -484h-105l-84 290l-85 -290h-105l-148 484h116l85 -312l84 296h106zM226 552v96h102v-96h-102zM366 552v96h102v-96h-102z" />
    <glyph glyph-name="Umacron.small" horiz-adv-x="503" 
d="M146 565v83h208v-83h-208zM251 -9q-104 0 -157.5 52t-53.5 174v267h112v-268q0 -70 23 -101.5t76 -31.5t76.5 31.5t23.5 101.5v268h112v-267q0 -123 -53.5 -174.5t-158.5 -51.5z" />
    <glyph glyph-name="Amacron.small" horiz-adv-x="526" 
d="M128 0h-118l202 484h102l202 -484h-118l-44 106h-184q-20 -46 -42 -106zM263 369l-60 -177h120zM156 565v83h208v-83h-208z" />
    <glyph glyph-name="Emacron.small" horiz-adv-x="418" 
d="M114 565v83h208v-83h-208zM393 0h-353v484h348v-86h-235v-111h217v-86h-217v-115h240v-86z" />
    <glyph glyph-name="Omacron.small" horiz-adv-x="542" 
d="M270 -9q-111 0 -175.5 67t-64.5 184t64.5 183.5t175.5 66.5q112 0 177 -66.5t65 -183.5t-65 -184t-177 -67zM270 407q-60 0 -92.5 -47.5t-32.5 -117.5q0 -74 32 -120t93 -46t93.5 46t32.5 120q0 70 -32.5 117.5t-93.5 47.5zM168 565v83h208v-83h-208z" />
    <glyph glyph-name="lacute.small" horiz-adv-x="191" 
d="M40 0v484h111v-484h-111zM47 536l74 121h123l-101 -121h-96z" />
    <glyph glyph-name="Imacron.small" horiz-adv-x="192" 
d="M40 0v484h112v-484h-112zM-8 565v83h208v-83h-208z" />
    <glyph glyph-name="Uogonek.small" horiz-adv-x="503" 
d="M463 484v-267q0 -112 -45.5 -163.5t-133.5 -60.5q-22 -31 -22 -46q0 -9 30 -2l45 13v-76q-24 -15 -66 -20t-66.5 12.5t-24.5 51.5q0 16 3 27q15 33 20 41q-163 21 -163 223v267h112v-268q0 -70 23 -101.5t76 -31.5t76.5 31.5t23.5 101.5v268h112z" />
    <glyph glyph-name="Aogonek.small" horiz-adv-x="526" 
d="M128 0h-118l202 484h102l202 -484h-45q-27 -41 -27 -53q0 -9 30 -2l45 13v-76q-25 -14 -67 -20q-42 -5 -66 12.5t-24 51.5q0 31 34 76l-42 104h-184zM263 355l-60 -163h120z" />
    <glyph glyph-name="Eogonek.small" horiz-adv-x="425" 
d="M392 0h-10q-23 -34 -23 -53q0 -9 30 -2l45 13v-76q-22 -14 -67 -20q-40 -3 -65 14t-25 50q0 31 26 74h-263v484h347v-86h-235v-111h218v-86h-218v-115h240v-86z" />
    <glyph glyph-name="Hbar.small" horiz-adv-x="485" 
d="M333 211h-181v-211h-112v484h112v-186h181v186h112v-484h-112v211zM139 565v83h208v-83h-208z" />
    <glyph glyph-name="Scedilla.small" horiz-adv-x="441" 
d="M416 140q0 -64 -42.5 -100t-106.5 -45q22 -36 22 -70t-24 -51t-66 -12q-41 6 -66 20v76l46 -13q25 -6 25 7t-20 42q-89 18 -159 74l46 78q33 -29 77.5 -47.5t84.5 -18.5q52 0 69 38q15 38 -31 60q-37 14 -64.5 24.5t-43 17t-21.5 8.5q-54 20 -78.5 53.5t-24.5 69.5
q0 69 55 105t126 36q44 0 90 -15q43 -15 88 -49l-41 -79q-70 57 -142 57q-25 0 -42 -12.5t-19 -30.5q-5 -35 45 -52l118 -47q99 -38 99 -124z" />
    <glyph glyph-name="Tbar.small" horiz-adv-x="421" 
d="M411 398h-144v-398h-111v398h-146v86h401v-86zM108 565v83h208v-83h-208z" />
    <glyph glyph-name="Eng.small" horiz-adv-x="489" 
d="M262 -135v86q5 -1 32 -1q43 0 45 57l-188 320v-327h-111v484h138l160 -284v284h111v-472q0 -148 -147 -148h-18t-15 0.5t-7 0.5z" />
    <glyph glyph-name="Ncommaaccent.small" horiz-adv-x="489" 
d="M108 -187l69 144h119l-94 -144h-94zM317 0l-166 328v-328h-111v484h138l160 -323v323h111v-484h-132z" />
    <glyph glyph-name="Kcommaaccent.small" horiz-adv-x="457" 
d="M452 0h-134l-139 185l-27 -33v-152h-112v484h112v-186l140 186h129l-172 -219zM109 -187l69 144h119l-94 -144h-94z" />
    <glyph glyph-name="Gcommaaccent.small" horiz-adv-x="498" 
d="M361 187h-94v88h201v-243q-31 -17 -85 -29t-96 -12q-121 0 -195 72t-74 179t73.5 178.5t195.5 71.5q97 0 172 -49l-40 -77q-62 40 -116 40q-85 0 -128 -49t-43 -115q0 -65 42.5 -114.5t119.5 -49.5q33 0 67 10v99zM152 -187l69 144h119l-94 -144h-94z" />
    <glyph glyph-name="Lcommaaccent.small" horiz-adv-x="398" 
d="M152 484v-397h221v-87h-333v484h112zM78 -187l69 144h119l-94 -144h-94z" />
    <glyph glyph-name="Rcommaaccent.small" horiz-adv-x="471" 
d="M421 327q0 -10 -3.5 -26t-21.5 -43.5t-48 -44.5q24 -17 36 -48l57 -165h-116l-42 124q-11 30 -24 43t-34 13h-73v-180h-112v484h218q90 0 126.5 -47t36.5 -110zM152 266h108q27 0 38.5 19.5t11.5 40.5q0 30 -13.5 51t-42.5 21h-102v-132zM118 -187l69 144h119l-94 -144
h-94z" />
    <glyph glyph-name="Dcroat.small" horiz-adv-x="533" 
d="M78 484h186q119 0 184 -61t65 -181t-65 -181t-184 -61h-186v200h-68v87h68v197zM189 86h78q59 0 96.5 39t37.5 117q0 80 -36.5 118t-99.5 38h-76v-111h138v-87h-138v-114z" />
    <glyph glyph-name="Aringacute.small" horiz-adv-x="526" 
d="M128 0h-118l202 484h102l202 -484h-118l-44 106h-184q-20 -46 -42 -106zM263 355l-60 -163h120zM171 600q0 36 23 60.5t69 24.5q48 0 70 -23.5t22 -61.5q0 -37 -22 -60.5t-70 -23.5q-47 0 -69.5 24t-22.5 60zM233 600q0 -27 30 -27t30 27t-30 27t-30 -27zM212 717l74 121
h123l-101 -121h-96z" />
    <glyph glyph-name="AEacute.small" horiz-adv-x="685" 
d="M308 388l-87 -196h87v196zM420 86h241v-86h-353v106h-123l-52 -106h-123l242 484h404v-86h-235v-111h218v-86h-219v-115zM276 536l74 121h123l-101 -121h-96z" />
    <glyph glyph-name="IJ.small" horiz-adv-x="510" 
d="M40 0v484h111v-484h-111zM187 27l27 79q37 -16 61 -23q45 -15 65 -2t21 61v342h109v-347q0 -146 -146 -146q-28 0 -58 6q-31 6 -79 30z" />
    <glyph glyph-name="Oslashacute.small" horiz-adv-x="542" 
d="M161 152l157 245q-26 10 -48 10q-60 0 -92.5 -47.5t-32.5 -117.5q0 -46 16 -90zM128 -38h-92l62 92q-68 66 -68 188q0 117 64.5 183.5t175.5 66.5q56 0 98 -16q4 7 13.5 21.5t12.5 19.5h89l-50 -80q79 -68 79 -195q0 -117 -65 -184t-177 -67q-68 0 -107 19q-3 -4 -35 -48
zM373 344l-160 -253q23 -15 57 -15q61 0 93.5 46t32.5 120q0 59 -23 102zM209 536l74 121h123l-101 -121h-96z" />
    <glyph glyph-name="Tcommaaccent.small" horiz-adv-x="421" 
d="M411 398h-144v-398h-111v398h-146v86h401v-86zM79 -187l69 144h119l-94 -144h-94z" />
    <glyph glyph-name="Scommaaccent.small" horiz-adv-x="441" 
d="M97 -187l69 144h119l-94 -144h-94zM310 478q43 -18 88 -50l-41 -79q-70 57 -142 57q-25 0 -42 -12.5t-19 -30.5q-5 -35 45 -52l118 -47q99 -38 99 -124q0 -69 -53.5 -108.5t-130.5 -39.5q-63 0 -103 17q-66 23 -104 59l46 78q33 -29 77.5 -47.5t84.5 -18.5q52 0 69 38
q15 38 -31 60q-6 2 -21.5 8.5t-43 17t-64.5 24.5q-54 20 -78.5 53.5t-24.5 69.5q0 65 54 103t127 38q43 0 90 -14z" />
    <glyph glyph-name="parenleft.small" horiz-adv-x="314" 
d="M60 175q0 143 58.5 226t155.5 83v-73q-46 0 -79 -60t-33 -177q0 -116 33 -175.5t79 -59.5v-73q-97 0 -155.5 83.5t-58.5 225.5z" />
    <glyph glyph-name="parenright.small" horiz-adv-x="314" 
d="M254 175q0 -142 -58.5 -225.5t-155.5 -83.5v73q46 0 79.5 59.5t33.5 175.5q0 118 -33 177.5t-80 59.5v73q97 0 155.5 -83t58.5 -226z" />
    <glyph glyph-name="braceleft.small" horiz-adv-x="313" 
d="M206 387v-123q1 -53 -52 -89q53 -32 52 -89v-123q0 -28 18 -28h49v-69h-64q-44 0 -69.5 24.5t-25.5 64.5v122q0 32 -10 49t-44 20v58q34 3 44 20t10 49v122q0 89 95 89h64v-69h-49q-18 0 -18 -28z" />
    <glyph glyph-name="braceright.small" horiz-adv-x="313" 
d="M107 264v123q0 28 -18 28h-49v69h64q95 0 95 -89v-122q0 -32 10 -49t44 -20v-58q-34 -3 -44 -20t-10 -49v-122q0 -40 -25.5 -64.5t-69.5 -24.5h-64v69h49q18 0 18 28v123q-1 57 52 89q-53 36 -52 89z" />
    <glyph glyph-name="bracketleft.small" horiz-adv-x="265" 
d="M225 407h-61v-463h61v-78h-165v618h165v-77z" />
    <glyph glyph-name="bracketright.small" horiz-adv-x="265" 
d="M102 407h-62v77h165v-618h-165v78h62v463z" />
    <glyph glyph-name="ampersand.small" horiz-adv-x="463" 
d="M138 139q0 -31 18.5 -50.5t51.5 -19.5q42 0 69 42l-91 94q-20 -7 -34 -25t-14 -41zM206 300q39 21 37 67q-6 42 -35 43q-17 -1 -26 -13.5t-9 -29.5q-2 -21 7 -41t26 -26zM279 246l37 -39q8 6 8 17v32h86q5 -77 -17 -125q32 -32 46.5 -59t14.5 -72h-96q0 29 -12 46
q-44 -54 -138 -54q-87 0 -132.5 41t-45.5 102q0 85 85 127q-49 44 -47 108q4 53 45.5 83t94.5 30q54 0 94.5 -29.5t44.5 -82.5q6 -77 -68 -125z" />
    <glyph glyph-name="asterisk.small" horiz-adv-x="306" 
d="M183 418l58 36l35 -58l-68 -33l68 -31l-35 -60l-58 36l3 -65h-65l4 67l-60 -38l-35 60l68 31q-9 5 -33.5 15.5t-34.5 16.5l35 59l60 -37l-4 67h65z" />
    <glyph glyph-name="at.small" horiz-adv-x="596" 
d="M509 73l29 -41q-39 -41 -101.5 -65t-124.5 -24q-124 0 -203 77t-79 199q0 120 80 195.5t196 75.5q67 0 119 -20.5t81.5 -54t44.5 -71.5t15 -77q0 -101 -53 -153t-117 -52q-39 0 -63 43q-38 -29 -72 -29q-111 0 -111 110q0 69 43 116.5t95 47.5q34 0 53 -35l7 30h78
l-34 -179q-5 -12 5.5 -22.5t23.5 -10.5q10 0 24.5 12t28.5 44t14 74q0 79 -54.5 120.5t-127.5 41.5q-86 0 -141.5 -57t-55.5 -149q0 -95 55 -155.5t150 -60.5q92 0 195 70zM304 283q-30 0 -50 -30t-20 -63q0 -19 7.5 -33.5t21.5 -14.5t30 11t18 29l18 79q2 12 -7.5 17
t-17.5 5z" />
    <glyph glyph-name="exclam.small" horiz-adv-x="192" 
d="M49 137l-6 347h106l-6 -347h-94zM40 0v89h112v-89h-112z" />
    <glyph glyph-name="question.small" horiz-adv-x="398" 
d="M234 289q28 25 28 59q0 24 -16.5 39.5t-47.5 15.5t-57.5 -24t-40.5 -49l-64 63q10 18 26 37t54.5 40t84.5 21q74 0 122.5 -37.5t48.5 -108.5q0 -59 -75 -123q-7 -6 -23 -17.5t-19.5 -16t-8 -18t-4.5 -33.5h-105q0 22 2 36.5t4 24.5t12 20.5t16.5 17t27 23.5t35.5 30z
M134 0v89h112v-89h-112z" />
    <glyph glyph-name="exclamdown.small" horiz-adv-x="192" 
d="M43 -132l6 347h94l6 -347h-106zM40 263v89h112v-89h-112z" />
    <glyph glyph-name="questiondown.small" horiz-adv-x="398" 
d="M164 64q-28 -25 -28 -59q0 -24 16.5 -39.5t47.5 -15.5t57.5 24t40.5 49l64 -63q-10 -18 -26 -37t-54.5 -40t-84.5 -21q-74 0 -122.5 37.5t-48.5 108.5q0 59 75 123q7 5 17 12.5l14 10.5t10 9.5t8 12.5t4 16t2 24h105q0 -19 -0.5 -31t-4.5 -24t-6 -17.5t-13 -17t-16.5 -16
t-25 -20.5t-31.5 -26zM264 353v-89h-112v89h112z" />
    <glyph glyph-name="emdash.small" horiz-adv-x="554" 
d="M30 235h494v-84h-494v84z" />
    <glyph glyph-name="endash.small" horiz-adv-x="427" 
d="M30 235h367v-85h-367v85z" />
    <glyph glyph-name="guillemotleft.small" horiz-adv-x="447" 
d="M242 403l-96 -172l99 -167h-110l-95 169l95 170h107zM403 403l-95 -172l99 -167h-110l-95 169l95 170h106z" />
    <glyph glyph-name="guillemotright.small" horiz-adv-x="447" 
d="M301 231l-96 172h107l95 -170l-95 -169h-110zM139 231l-95 172h106l95 -170l-95 -169h-110z" />
    <glyph glyph-name="guilsinglleft.small" horiz-adv-x="285" 
d="M242 403l-96 -172l99 -167h-110l-95 169l95 170h107z" />
    <glyph glyph-name="guilsinglright.small" horiz-adv-x="285" 
d="M139 231l-96 172h107l95 -170l-95 -169h-110z" />
    <glyph glyph-name="periodcentered.small" horiz-adv-x="176" 
d="M30 196v97h116v-97h-116z" />
    <glyph glyph-name="iacute.small" horiz-adv-x="179" 
d="M40 0v484h111v-484h-111zM40 536l74 121h123l-101 -121h-96z" />
    <glyph glyph-name="apple" horiz-adv-x="715" 
d="M60 686h595v-552h-595v552zM580 207v405h-122q-16 -47 -51 -145.5t-50 -145.5l-100 291h-122v-405h64v367l131 -359h53l133 359v-367h64zM99 0h-14l-6 54q0 6 -1 18.5t-1 16.5h-2q0 -1 1 -8.5t1 -12.5v-68h-17v109h25l5 -45q0 -1 2 -12.5t2 -19.5q0 27 2 32l3 45h25v-109
h-15v50v39q0 -4 -1 -21.5t-1 -20.5zM135 17v74q0 21 18 21q23 0 23 -21v-74q0 -19 -23 -19q-6 0 -12 5t-6 14zM151 91v-74q0 -4 2 -4q7 0 7 4v74q0 5 -1 6t-6 1q-2 0 -2 -7zM202 42v-25q0 -4 5 -4q6 0 6 4v11q0 8 -14 24.5t-14 26.5v12q0 21 22 21q21 0 21 -21v-21h-15v21
q0 7 -6 7q-5 0 -5 -7v-12q0 -4 13 -20.5t13 -21.5v-20q0 -9 -7 -14t-14 -5q-22 0 -22 19v25h17zM234 109h45v-13h-13v-96h-17v96h-15v13zM274 0l12 109h25l12 -109h-16l-5 28h-11l-3 -28h-14zM294 45h8l-4 44h-2zM343 0h-15v109h22q22 0 22 -20v-12q0 -14 -17 -17
q13 0 17 -15v-45h-15q-2 9 -2 42q0 8 -12 8v-50zM343 98v-34h3q9 0 9 6v21q0 7 -5 7h-7zM379 0v109h21q13 0 17 -5t4 -19v-65q0 -20 -19 -20h-23zM396 98v-83h4q4 0 4 5v69q0 9 -4 9h-4zM468 0h-39v109h39v-13h-22v-28h20v-14h-20v-39h22v-15zM491 42v-25q0 -4 2 -4q7 0 7 4
v11q0 8 -13 24.5t-13 26.5v12q0 21 19 21q23 0 23 -21v-21h-16v21q0 5 -1 6t-6 1q-2 0 -2 -7v-12q0 -4 12.5 -20.5t12.5 -21.5v-20q0 -19 -23 -19q-7 0 -13 5t-6 14v25h17zM541 0h-16v109h16v-109zM572 54h21v-54h-8v6q-8 -8 -17 -8q-6 0 -12.5 5t-6.5 14v74q0 21 23 21
q21 0 21 -21v-21h-17v21q0 7 -4 7q-6 0 -6 -7v-74q0 -4 6 -4q4 0 4 4v25h-4v12zM603 109h25l2 -30q8 -22 8 -62v6v31v55h15v-109h-25l-7 57q-5 18 -5 34v-12v-79h-13v109z" />
    </font>
</defs>
</svg>
