<?xml version="1.0" standalone="no"?>
<!DOCTYPE svg PUBLIC "-//W3C//DTD SVG 1.1//EN" "http://www.w3.org/Graphics/SVG/1.1/DTD/svg11.dtd" >
<svg>
<metadata>
Created by FontForge 20120731 at Tue Dec 15 21:05:28 2015
 By ,,,
Copyright (c) 2013 Parachute, www.parachute.gr.  All rights reserved.
</metadata>
<defs>
<font id="PFBagueSansPro-Thin" horiz-adv-x="400" >
  <font-face 
    font-family="PF Bague Sans Pro"
    font-weight="200"
    font-stretch="normal"
    units-per-em="1000"
    panose-1="2 0 5 6 0 0 0 2 0 3"
    ascent="800"
    descent="-200"
    x-height="443"
    cap-height="661"
    bbox="-445 -241 1717 887"
    underline-thickness="30"
    underline-position="-70"
    unicode-range="U+0020-FB06"
  />
<missing-glyph horiz-adv-x="439" 
d="M434 0h-431v699h431v-699zM395 22l-177 305l-177 -305h354zM396 675h-355l177 -305zM412 655l-179 -306l179 -306v612zM25 44l179 305l-179 306v-611z" />
    <glyph glyph-name="fj" unicode="fj" horiz-adv-x="454" 
d="M122 542v-99h262v-483q0 -172 -142 -178l-18 35q67 1 95 35.5t28 108.5v451h-225v-412h-37v412h-80v25q76 6 80 6v96q0 89 44.5 140.5t134.5 51.5q72 0 119 -30v-35q-50 32 -118 32q-143 0 -143 -156z" />
    <glyph glyph-name="ffj" unicode="ffj" horiz-adv-x="714" 
d="M119 443h225v98q0 76 31 119q-51 19 -100 19q-76 0 -115 -39q-43 -52 -41 -159v-38zM606 412h-225v-412h-37v413h-225v-413h-37v413h-77v24q74 6 77 6v62q0 91 44 149q45 58 147 58q63 0 120 -25q44 44 126 44q67 0 114 -26v-35q-53 30 -117 30q-135 0 -135 -156v-101
h262v-456q0 -105 -33.5 -153t-108.5 -52q-1 3 -5 11l-7.5 15l-4.5 9q67 1 94.5 35.5t27.5 108.5v451z" />
    <glyph glyph-name="f_t" unicode="ft" horiz-adv-x="575" 
d="M388 443h152v-31h-152v-283q0 -51 18 -76q18 -26 66 -26t89 30v-35q-38 -29 -93 -29q-64 0 -91 33.5t-27 102.5v283h-219v-412h-37v412h-89v25q86 6 89 6v101q0 181 153 181q38 0 74 -11v-34q-33 13 -76 13q-59 0 -86 -34q-10 -13 -18 -38q-10 -36 -10 -96v-82h219
l22 133h16v-133z" />
    <glyph glyph-name="ff" unicode="ff" horiz-adv-x="532" 
d="M575 724v-33q-33 13 -75 13q-63 0 -89 -37t-26 -110v-114h150v-30h-150v-413h-37v413h-229v-413h-37v413h-77v24q74 6 77 6v60q0 98 47.5 152.5t147.5 54.5q56 0 107 -23q38 48 118 48q37 0 73 -11zM119 443h229v111q0 65 20 107q-39 14 -77 17q-111 0 -144 -58
q-28 -47 -28 -140v-37z" />
    <glyph glyph-name="fi" unicode="fi" horiz-adv-x="452" 
d="M384 444v-444h-38v412h-224v-412h-37v412h-80v26l80 6v96q0 88 45 140t135 52q69 0 119 -30v-35q-57 33 -122 33q-70 0 -105 -42t-35 -115v-99h262z" />
    <glyph glyph-name="fl" unicode="fl" horiz-adv-x="452" 
d="M382 698v-698h-38v680q-36 9 -69 9q-153 0 -153 -163v-83h142v-31h-142v-412h-37v412h-80v25q76 6 80 6v78q0 200 185 200q68 0 112 -23z" />
    <glyph glyph-name="ffi" unicode="ffi" horiz-adv-x="707" 
d="M633 705v-35q-52 28 -114 28q-138 0 -138 -154v-101h255v-443h-37v412h-218v-412h-37v413h-225v-413h-37v413h-77v24q74 6 77 6v62q0 204 192 204q65 0 119 -22q44 44 126 44q67 0 114 -26zM119 443h225v98q0 76 31 119q-51 19 -100 19q-76 0 -115 -39q-43 -52 -41 -159
v-38z" />
    <glyph glyph-name="ffl" unicode="ffl" horiz-adv-x="706" 
d="M635 707v-707h-37v689q-40 8 -66 8q-156 0 -156 -162v-92h142v-31h-142v-412h-37v412h-220v-412h-37v412h-77v25q74 6 77 6v32q0 98 34 162q41 72 159 72q64 0 124 -23q43 43 140 43q59 0 96 -22zM119 443h220v89q0 81 41 128q-50 19 -103 19q-100 0 -132 -63
q-26 -53 -26 -139v-34z" />
    <glyph glyph-name="longs_t" unicode="&#x17f;t" horiz-adv-x="544" 
d="M351 701v-34q-51 25 -101 25q-67 0 -93 -36t-26 -109v-547h-37v413h-89v24q86 6 89 6v101q0 88 36 134.5t119 46.5q55 0 102 -24zM357 443h152v-31h-152v-283q0 -52 19 -77t65 -25q48 0 90 30v-35q-41 -29 -94 -29q-64 0 -91 33.5t-27 102.5v283h-81v25l81 6l21 133h17
v-133z" />
    <glyph glyph-name=".notdef" horiz-adv-x="439" 
d="M434 0h-431v699h431v-699zM395 22l-177 305l-177 -305h354zM396 675h-355l177 -305zM412 655l-179 -306l179 -306v612zM25 44l179 305l-179 306v-611z" />
    <glyph glyph-name=".null" horiz-adv-x="0" 
 />
    <glyph glyph-name="nonmarkingreturn" horiz-adv-x="333" 
 />
    <glyph glyph-name="space" unicode=" " horiz-adv-x="240" 
 />
    <glyph glyph-name="exclam" unicode="!" horiz-adv-x="248" 
d="M142 405l-3 -274h-28q0 58 -4 273l-3 280h41q0 -51 -1 -89q-2 -150 -2 -190zM124 -6q-19 0 -27 16t0 31.5t27 15.5t27 -15.5t0 -31.5t-27 -16z" />
    <glyph glyph-name="quotedbl" unicode="&#x22;" horiz-adv-x="258" 
d="M191 679l-1 -206h-32v206h33zM100 679v-206h-33v206h33z" />
    <glyph glyph-name="numbersign" unicode="#" horiz-adv-x="540" 
d="M386 448l40 180h28q-5 -18 -12 -52l-17 -77l-11 -51h84v-25h-90l-41 -184h90v-25h-96l-47 -214h-27l47 214h-177l-48 -214h-27l47 214h-88v25h94q30 133 40 184h-96v25h102q19 79 41 180h27l-40 -180h177zM380 423h-177l-41 -184h178z" />
    <glyph glyph-name="dollar" unicode="$" horiz-adv-x="540" 
d="M288 -107h-32v102q-111 0 -188 56v38q85 -64 189 -64q81 0 128.5 37.5t47.5 102.5q0 47 -25.5 81.5t-64.5 53.5t-83.5 39t-83.5 38t-64.5 51t-25.5 78q0 70 47 110t123 44v101h32v-100q81 -3 146 -40v-40q-70 48 -157 48q-154 0 -154 -125q0 -71 123 -122
q40 -15 62 -24.5t58 -29.5t55.5 -39.5t34.5 -50t15 -65.5q0 -79 -50 -125t-133 -51v-104z" />
    <glyph glyph-name="percent" unicode="%" horiz-adv-x="702" 
d="M573 685h32l-480 -702h-32zM189 673q65 0 109 -45q43 -43 43 -110q0 -65 -44 -111q-44 -44 -108 -44q-69 0 -111.5 43.5t-42.5 111.5q0 64 44 110q45 45 110 45zM189 644q-51 0 -87 -37q-35 -38 -35 -89q0 -55 34 -90.5t88 -35.5q51 0 85 37t34 89t-34 89t-85 37z
M517 304q65 0 109 -45q44 -46 44 -111q0 -64 -44 -110q-44 -44 -109 -44q-68 0 -110.5 43t-42.5 110q0 65 44 111q45 46 109 46zM517 274q-52 0 -86 -37t-34 -89q0 -55 33.5 -90.5t86.5 -35.5t86 37q34 37 34 89q0 54 -34 89q-34 37 -86 37z" />
    <glyph glyph-name="ampersand" unicode="&#x26;" horiz-adv-x="667" 
d="M564 340q9 -4 31 -16q-31 -146 -105 -232q76 -62 168 -109q-12 -10 -30 -23q-79 40 -163 106q-83 -78 -208 -78q-88 0 -140 45t-52 125q0 64 39 120t108 83q-31 68 -31 124q0 81 48.5 126.5t133.5 45.5q65 0 130 -25v-37q-61 29 -130 29q-68 0 -106 -36.5t-38 -97.5
q0 -84 68 -185q67 -101 177 -192q68 76 100 227zM438 87q-142 121 -211 244q-58 -21 -91.5 -68t-33.5 -102q0 -65 44.5 -103t114.5 -38q106 0 177 67z" />
    <glyph glyph-name="quotesingle" unicode="'" horiz-adv-x="183" 
d="M108 679v-206h-33v206h33z" />
    <glyph glyph-name="parenleft" unicode="(" horiz-adv-x="282" 
d="M240 732l22 -8q-149 -200 -149 -422q0 -213 144 -419l-23 -9q-73 95 -115 207.5t-42 221.5q0 229 163 429z" />
    <glyph glyph-name="parenright" unicode=")" horiz-adv-x="282" 
d="M26 724l22 8q163 -200 163 -429q0 -114 -43 -225q-42 -112 -114 -204l-23 9q145 205 145 419q0 221 -150 422z" />
    <glyph glyph-name="asterisk" unicode="*" horiz-adv-x="417" 
d="M341 578l-110 -52l53 -26l58 -27l-21 -36l-103 68l11 -126h-40l4 63l4 63l-102 -68l-20 36l109 52l-109 52q2 4 19 35l101 -66l-7 125h40l-10 -125l103 67z" />
    <glyph glyph-name="plus" unicode="+" horiz-adv-x="540" 
d="M449 283h-168v-170h-31v170h-170v30h170v173h31v-173h168v-30z" />
    <glyph glyph-name="comma" unicode="," horiz-adv-x="150" 
d="M113 27q0 -38 -64 -167l-24 1l43 138q-23 5 -23 30q-1 21 17 30t35.5 0t15.5 -32z" />
    <glyph glyph-name="hyphen" unicode="-" horiz-adv-x="371" 
d="M310 225h-249v37h249v-37z" />
    <glyph glyph-name="period" unicode="." horiz-adv-x="140" 
d="M69 61q21 0 29.5 -16.5t-0.5 -33t-29 -16.5q-20 -1 -28 16t0.5 34t27.5 16z" />
    <glyph glyph-name="slash" unicode="/" horiz-adv-x="250" 
d="M0 -88h-32q40 100 145 386q111 305 147 391h32q-34 -82 -146 -388q-120 -328 -146 -389z" />
    <glyph glyph-name="zero" unicode="0" horiz-adv-x="540" 
d="M268 670q55 0 98.5 -21.5t68.5 -58.5q24 -35 39 -82q24 -77 24 -180q0 -100 -24 -176q-51 -161 -206 -161q-135 0 -186 116q-41 95 -41 221q2 143 41 224q61 118 186 118zM268 638q-57 0 -97.5 -29.5t-59.5 -81.5q-32 -91 -32 -199q0 -109 32 -198q19 -50 59.5 -78.5
t97.5 -28.5q58 0 99.5 29t60.5 80q33 88 33 196q0 109 -33 199q-19 52 -60.5 81.5t-99.5 29.5z" />
    <glyph glyph-name="one" unicode="1" horiz-adv-x="540" 
d="M103 524l215 137h11v-661h-38v601l-188 -118v41z" />
    <glyph glyph-name="two" unicode="2" horiz-adv-x="540" 
d="M84 31h393v-31h-424l-11 7q1 106 65 175q30 32 65 61q25 20 84 59q94 62 134 105t40 90q0 67 -45 103.5t-119 36.5q-70 0 -114 -42.5t-44 -108.5q0 -27 5 -49l-40 6q-4 17 -4 50q0 77 57 127q58 49 141 49q85 0 144 -44t59 -127q0 -105 -160 -202q-44 -26 -75 -48
q-30 -22 -69 -57q-81 -71 -82 -160z" />
    <glyph glyph-name="three" unicode="3" horiz-adv-x="540" 
d="M386 629h-335v31h400q0 -9 1 -12l-230 -247h10q102 0 163.5 -54t61.5 -144q0 -97 -68 -154q-67 -57 -166 -57q-121 0 -203 66v43q86 -77 204 -77q85 0 140 49t55 128q0 80 -54 124.5t-145 44.5q-35 0 -54 -4q-6 6 -8 12l229 248l-1 1v2z" />
    <glyph glyph-name="four" unicode="4" horiz-adv-x="540" 
d="M382 415l29 44h7v-255h93v-31h-93v-173h-36v173h-365v10l357 478h45l-342 -457h305v211z" />
    <glyph glyph-name="five" unicode="5" horiz-adv-x="540" 
d="M127 660h336v-30h-304l-26 -250q53 24 129 24q95 0 159 -52q66 -52 66 -149q0 -100 -68 -156q-67 -55 -167 -55q-122 0 -200 66v44q35 -35 87.5 -57t112.5 -22q86 0 141 49q56 50 56 130q0 83 -55 126q-56 44 -138 44q-86 0 -154 -40l-12 4q4 28 19 163z" />
    <glyph glyph-name="six" unicode="6" horiz-adv-x="540" 
d="M107 381l167 279h41l-183 -307l1 -1h2q47 54 144 54q93 0 152 -59q60 -59 60 -149q0 -92 -63 -150q-62 -57 -158 -57q-102 0 -163 57q-60 57 -60 150q0 84 60 183zM273 374q-80 0 -135 -46q-54 -45 -54 -130q0 -77 50 -127q52 -50 136 -50q83 0 133 50q51 50 51 127
q0 78 -50 127t-131 49z" />
    <glyph glyph-name="seven" unicode="7" horiz-adv-x="540" 
d="M418 629h-353v31h399v-11l-295 -649h-37z" />
    <glyph glyph-name="eight" unicode="8" horiz-adv-x="540" 
d="M464 500q0 -52 -31.5 -92t-84.5 -54v-2q68 -18 105 -63.5t37 -109.5q0 -84 -61 -136t-158 -52q-103 0 -163 51q-59 51 -59 134q0 61 38 108t103 63v3q-54 18 -83.5 58.5t-29.5 91.5q0 74 54 122q55 48 140 48q81 0 137 -48t56 -122zM453 180q0 68 -50 110.5t-132 42.5
q-81 0 -134 -44q-51 -43 -51 -110q0 -70 49.5 -114t135.5 -44q83 0 133 45q49 46 49 114zM271 637q-70 0 -113 -38.5t-43 -99.5q0 -59 43.5 -97t112.5 -38q67 0 111 38q44 39 44 97q0 59 -44 98q-43 40 -111 40z" />
    <glyph glyph-name="nine" unicode="9" horiz-adv-x="540" 
d="M427 284l-166 -284h-42l181 310l-3 1q-44 -53 -140 -53q-91 0 -150 57q-59 59 -59 148q0 91 62 148q61 58 156 58q100 0 159 -57q60 -57 60 -149q0 -81 -58 -179zM263 290q79 0 132 45t53 128q0 78 -49.5 126.5t-132.5 48.5q-81 0 -131 -50t-50 -125q0 -76 49 -125
q50 -48 129 -48z" />
    <glyph glyph-name="colon" unicode=":" horiz-adv-x="167" 
d="M50 348q-1 21 16 29.5t34.5 0t16.5 -29.5q1 -19 -16.5 -27t-34.5 0t-16 27zM50 27q0 14 9 23.5t23 9.5q15 0 24.5 -9.5t9.5 -23.5q1 -19 -16.5 -27t-34.5 0t-15 27z" />
    <glyph glyph-name="semicolon" unicode=";" horiz-adv-x="177" 
d="M62 348q-1 21 16 29.5t34.5 0t16.5 -29.5q1 -19 -16.5 -27t-34.5 0t-16 27zM125 27q0 -38 -64 -167l-24 1l43 138q-23 5 -23 30q-1 21 17 30t35.5 0t15.5 -32z" />
    <glyph glyph-name="less" unicode="&#x3c;" horiz-adv-x="540" 
d="M135 298l318 -165v-36l-377 197v8l377 196v-36z" />
    <glyph glyph-name="equal" unicode="=" horiz-adv-x="540" 
d="M451 384v-30h-377v30h377zM451 241v-30h-377v30h377z" />
    <glyph glyph-name="greater" unicode="&#x3e;" horiz-adv-x="540" 
d="M453 294l-377 -197v36l317 165l-317 164v36l377 -196v-8z" />
    <glyph glyph-name="question" unicode="?" horiz-adv-x="482" 
d="M160 25q0 13 8.5 22t22.5 9q19 0 26.5 -15.5t0 -31t-26.5 -15.5q-31 0 -31 31zM204 134l-37 -11q-18 37 -18 66q0 33 23 66t56 60.5t66 56t56 64.5t23 75q0 64 -43 102t-117 38q-73 0 -148 -35v38q72 32 150 32q84 0 140 -46q57 -45 57 -126t-79 -153q-13 -12 -39.5 -34
t-41 -35.5t-32 -32.5t-25.5 -36t-8 -34q0 -26 17 -55z" />
    <glyph glyph-name="at" unicode="@" horiz-adv-x="866" 
d="M535 226q-1 1 -3 1q-46 -79 -137 -79q-60 0 -96 28t-36 71q0 120 178 120h93v23q0 104 -112 104q-57 0 -118 -35v34q53 31 120 31q144 0 144 -139v-135q0 -75 61 -75q54 0 85 49q32 50 32 124q0 124 -85 205q-83 82 -214 82q-137 0 -233 -96q-95 -95 -95 -234
q0 -144 89 -233q89 -88 234 -88q123 0 217 65v-41q-95 -56 -217 -56q-161 0 -259 97q-98 98 -98 256q0 153 105 257q106 105 256 105q148 0 240 -91q94 -91 94 -230q0 -86 -44 -145q-43 -58 -109 -58q-84 0 -92 83zM394 175q55 0 98 35q42 36 42 107v22h-91q-146 0 -146 -89
q0 -35 27 -55t70 -20z" />
    <glyph glyph-name="A" unicode="A" horiz-adv-x="599" 
d="M583 0h-40l-69 165h-352l-69 -165h-38l279 663h10zM460 198l-163 390l-161 -390h324z" />
    <glyph glyph-name="B" unicode="B" horiz-adv-x="598" 
d="M336 0h-251v660h225q89 0 141 -42t52 -117q0 -47 -26.5 -87t-73.5 -57q70 -17 105 -64t35 -106q0 -88 -58 -137q-59 -50 -149 -50zM328 337h-205v-302h208q85 0 129.5 42.5t44.5 111.5q0 61 -47 105q-46 43 -130 43zM315 626h-192v-255h198q63 0 103 36q42 36 42 91
q0 58 -40.5 93t-110.5 35z" />
    <glyph glyph-name="C" unicode="C" horiz-adv-x="606" 
d="M581 75v-38q-36 -21 -89 -33.5t-101 -12.5q-159 0 -247 94q-89 95 -89 242q0 149 98 247t242 98q105 0 160 -28v-38q-69 32 -157 32q-128 0 -216 -87q-87 -85 -87 -224q0 -136 79 -218q80 -83 220 -83q102 0 187 49z" />
    <glyph glyph-name="D" unicode="D" horiz-adv-x="670" 
d="M292 0h-207v660h199q154 0 242 -88q89 -89 89 -240q0 -149 -86 -241q-85 -91 -237 -91zM284 626h-161v-591h167q139 0 212 81q74 82 74 215q0 135 -75 214q-73 81 -217 81z" />
    <glyph glyph-name="E" unicode="E" horiz-adv-x="548" 
d="M490 660v-34h-367v-258h342v-34h-342v-299h394v-35h-432v660h405z" />
    <glyph glyph-name="F" unicode="F" horiz-adv-x="511" 
d="M123 311v-311h-38v661h411v-35h-373v-280h340v-35h-340z" />
    <glyph glyph-name="G" unicode="G" horiz-adv-x="658" 
d="M397 672q110 0 172 -35v-39q-71 38 -171 38q-128 0 -216 -86q-87 -85 -87 -224q0 -130 77 -216q76 -84 217 -84q92 0 166 31v265h37v-291q-82 -39 -212 -39q-153 0 -239 95q-86 97 -86 239q0 149 98 247q99 99 244 99z" />
    <glyph glyph-name="H" unicode="H" horiz-adv-x="655" 
d="M570 661v-661h-38v334h-409v-334h-38v661h38v-292h409v292h38z" />
    <glyph glyph-name="I" unicode="I" horiz-adv-x="228" 
d="M133 661v-661h-38v661h38z" />
    <glyph glyph-name="J" unicode="J" horiz-adv-x="434" 
d="M10 23v40q27 -16 66 -26.5t68 -10.5q94 0 130 51t36 138v445h38v-413q0 -89 -21 -147q-37 -109 -184 -109q-77 0 -133 32z" />
    <glyph glyph-name="K" unicode="K" horiz-adv-x="555" 
d="M123 347l345 313h48l-346 -316l375 -344h-54l-368 339v-339h-38v660h38v-313z" />
    <glyph glyph-name="L" unicode="L" horiz-adv-x="504" 
d="M123 35h371v-35h-409v660h38v-625z" />
    <glyph glyph-name="M" unicode="M" horiz-adv-x="800" 
d="M715 662v-662h-37v282q1 126 1 284q-1 0 -2 1l-272 -391h-10l-273 386q0 -1 -1 -2v-560h-36v662h10l306 -435l303 435h11z" />
    <glyph glyph-name="N" unicode="N" horiz-adv-x="704" 
d="M581 84v576h37v-662h-10l-486 581v-579h-37v664h10l484 -580h2z" />
    <glyph glyph-name="O" unicode="O" horiz-adv-x="783" 
d="M392 670q144 0 239 -98q96 -98 96 -242t-96 -242q-94 -97 -239 -97q-152 0 -245 96q-92 98 -92 243q0 141 98 241q97 99 239 99zM392 635q-128 0 -213 -88q-84 -88 -84 -217q0 -132 82 -218q83 -87 215 -87q129 0 213 88q84 89 84 217t-84 216q-84 89 -213 89z" />
    <glyph glyph-name="P" unicode="P" horiz-adv-x="553" 
d="M123 237v-237h-39v660h209q108 0 168 -62q61 -61 61 -148q0 -99 -67 -156t-162 -57h-170zM280 628h-157v-359h165q88 0 141 51q52 51 52 130q0 74 -52 126q-51 52 -149 52z" />
    <glyph glyph-name="Q" unicode="Q" horiz-adv-x="781" 
d="M392 670q144 0 239 -98q96 -98 96 -242q0 -125 -75 -218q-76 -93 -194 -112l-1 -1l-1 -1l271 -61l-13 -41l-355 97q-139 11 -221 105q-83 95 -83 235q0 141 98 239t239 98zM392 635q-128 0 -213 -88q-84 -88 -84 -217q0 -132 82 -218q83 -87 215 -87q129 0 213 88
q84 89 84 217t-84 216q-84 89 -213 89z" />
    <glyph glyph-name="R" unicode="R" horiz-adv-x="574" 
d="M306 258l244 -258h-53l-253 274v9q115 1 179 53q63 52 63 123q0 76 -52 121q-52 46 -135 46h-176v-626h-39v660h220q95 0 157 -55q64 -54 64 -145q0 -76 -60 -135q-59 -58 -159 -67z" />
    <glyph glyph-name="S" unicode="S" horiz-adv-x="485" 
d="M35 50v42q87 -66 194 -66q82 0 132 35.5t50 104.5q0 42 -19.5 73.5t-51.5 51t-70 36t-76 32t-70 34t-51.5 48.5t-19.5 69q0 78 57 119q58 41 134 41q94 0 167 -43v-41q-71 49 -162 49q-70 0 -113.5 -31t-43.5 -92q0 -76 126 -125q43 -16 64.5 -24.5t59.5 -29t57.5 -40
t35 -51.5t15.5 -69q0 -91 -61 -137q-61 -45 -155 -45q-116 0 -199 59z" />
    <glyph glyph-name="T" unicode="T" horiz-adv-x="530" 
d="M285 626v-626h-39v626h-231v34h499v-34h-229z" />
    <glyph glyph-name="U" unicode="U" horiz-adv-x="671" 
d="M548 248v412h38v-416q0 -117 -65.5 -185t-185.5 -68q-122 0 -186 66.5t-64 187.5v415h37v-410q0 -105 54 -164.5t159 -59.5q106 0 159.5 58.5t53.5 163.5z" />
    <glyph glyph-name="V" unicode="V" horiz-adv-x="564" 
d="M286 79l230 580h37l-264 -660h-10l-269 660h39l234 -580h3z" />
    <glyph glyph-name="W" unicode="W" horiz-adv-x="884" 
d="M634 92l202 567h38l-240 -660h-8l-184 566h-2l-184 -566h-9l-237 660h38l203 -567h3l183 568h9l184 -568h4z" />
    <glyph glyph-name="X" unicode="X" horiz-adv-x="585" 
d="M575 0h-44l-238 332l-241 -332h-42l245 341l-226 319h42l222 -310l222 310h42l-228 -318z" />
    <glyph glyph-name="Y" unicode="Y" horiz-adv-x="538" 
d="M294 283v-283h-38v283l-246 377h43l221 -340h3l209 340h41z" />
    <glyph glyph-name="Z" unicode="Z" horiz-adv-x="500" 
d="M81 34h399v-34h-460v6l394 620h-356v34h415v-8z" />
    <glyph glyph-name="bracketleft" unicode="[" horiz-adv-x="244" 
d="M214 -117h-139v846h139v-28h-105v-789h105v-29z" />
    <glyph glyph-name="backslash" unicode="\" horiz-adv-x="250" 
d="M292 -88h-31q-40 95 -148 391q-106 292 -145 386h32q36 -86 147 -391q105 -286 145 -386z" />
    <glyph glyph-name="bracketright" unicode="]" horiz-adv-x="244" 
d="M30 729h139v-846h-139v29h106v789h-106v28z" />
    <glyph glyph-name="asciicircum" unicode="^" horiz-adv-x="460" 
d="M238 659l197 -309h-37l-167 264l-171 -264h-35l199 309h14z" />
    <glyph glyph-name="underscore" unicode="_" horiz-adv-x="510" 
d="M505 -107h-500v25h500v-25z" />
    <glyph glyph-name="grave" unicode="`" horiz-adv-x="459" 
d="M155 685l115 -147l-31 -1l-126 135z" />
    <glyph glyph-name="a" unicode="a" horiz-adv-x="492" 
d="M204 22q70 0 123 45q52 45 52 136v26h-127q-168 0 -168 -113q0 -44 33.5 -69t86.5 -25zM387 0l-7 95l-1 1h-2q-20 -52 -69 -78.5t-112 -26.5q-72 0 -111 34.5t-39 87.5q0 145 210 145h123v31q0 132 -141 132q-75 0 -146 -43v35q64 40 148 40q176 0 176 -169v-284h-29z
" />
    <glyph glyph-name="b" unicode="b" horiz-adv-x="567" 
d="M103 710v-368h2q25 52 75 81.5t112 29.5q102 0 163 -66q61 -64 61 -165q0 -97 -65 -164q-65 -66 -161 -66q-63 0 -113 29t-72 79l-3 -2l-6 -98h-31v710h38zM289 421q-85 0 -136 -57t-51 -142q0 -86 51 -143q53 -56 136 -56t136 57q53 59 53 142q0 86 -52 142
q-51 57 -137 57z" />
    <glyph glyph-name="c" unicode="c" horiz-adv-x="429" 
d="M404 56v-36q-53 -29 -129 -29q-108 0 -166 63q-59 65 -59 164q0 100 65 168q66 67 164 67q60 0 107 -19v-36q-43 23 -103 23q-83 0 -139 -56t-56 -147q0 -86 52 -141q52 -54 141 -54q73 0 123 33z" />
    <glyph glyph-name="d" unicode="d" horiz-adv-x="564" 
d="M460 343l3 2v366h36v-711h-30l-6 102h-2q-25 -51 -75 -81t-110 -30q-103 0 -165 65q-61 64 -61 167q0 98 64 163q64 67 162 67q62 0 111.5 -29.5t72.5 -80.5zM88 223q0 -86 51 -143q53 -57 138 -57t136 56q51 57 51 144q0 85 -52 141q-51 57 -135 57q-85 0 -137 -57
q-52 -56 -52 -141z" />
    <glyph glyph-name="e" unicode="e" horiz-adv-x="517" 
d="M466 231v-18h-378q-3 -77 52 -133q56 -57 139 -57q94 0 168 56v-38q-68 -50 -167 -50q-106 0 -168 63t-62 169q0 98 61 163q61 67 153 67q94 0 148 -64q54 -63 54 -158zM265 419q-73 0 -122 -49q-49 -50 -54 -126h341q-6 81 -49 128t-116 47z" />
    <glyph glyph-name="f" unicode="f" horiz-adv-x="296" 
d="M321 714v-33q-33 13 -76 13q-62 0 -87.5 -37t-25.5 -110v-103h149v-32h-149v-412h-37v412h-90v24l90 8v100q0 181 153 181q37 0 73 -11z" />
    <glyph glyph-name="g" unicode="g" horiz-adv-x="491" 
d="M145 143l-56 -66l252 -30q53 -6 78.5 -29t25.5 -67q0 -61 -62 -115q-61 -54 -161 -54q-91 0 -137.5 36.5t-46.5 92.5q0 37 21.5 72t57.5 57l-36 5q-36 5 -30 36l73 76q-56 44 -56 128q0 70 51 118t126 48q27 0 59 -9h145v-24l-101 -6q32 -19 51.5 -53.5t19.5 -74.5
q0 -70 -50 -118q-49 -48 -124 -48q-60 0 -100 25zM245 149q61 0 100 38.5t39 96.5t-41 97t-98 39q-61 0 -101 -39t-40 -96q0 -61 38 -98.5t103 -37.5zM336 17l-194 21q-30 -21 -48.5 -54t-18.5 -66q0 -46 36 -75t110 -29q86 0 136 44t50 94q0 57 -71 65z" />
    <glyph glyph-name="h" unicode="h" horiz-adv-x="511" 
d="M102 710v-358h2q56 101 167 101q78 0 121.5 -46t43.5 -131v-276h-38v269q0 72 -34.5 111t-94.5 39q-67 0 -117 -47q-49 -46 -49 -133v-239h-38v710h37z" />
    <glyph glyph-name="i" unicode="i" horiz-adv-x="206" 
d="M120 443v-443h-37v443h37zM103 610q17 0 24 -14t0 -28.5t-24 -14.5t-24 14.5t0 28.5t24 14z" />
    <glyph glyph-name="j" unicode="j" horiz-adv-x="189" 
d="M95 610q17 0 24 -14t0 -28.5t-24 -14.5q-17 -1 -24 13.5t0 29.5t24 14zM75 -39v482h37v-483q0 -170 -141 -178l-18 35q67 1 94.5 35.5t27.5 108.5z" />
    <glyph glyph-name="k" unicode="k" horiz-adv-x="440" 
d="M101 228v-228h-36v710h36v-472l260 205h51l-265 -209l288 -234h-57z" />
    <glyph glyph-name="l" unicode="l" horiz-adv-x="185" 
d="M113 711v-711h-38v711h38z" />
    <glyph glyph-name="m" unicode="m" horiz-adv-x="815" 
d="M104 443l6 -87q1 -1 3 -1q24 48 66 73t90 25q58 0 97 -29t50 -83q20 52 65.5 82t95.5 30q78 0 120.5 -44t42.5 -127v-282h-37v280q0 69 -32.5 104.5t-93.5 35.5q-60 0 -106 -46q-45 -46 -45 -136v-238h-37v280q0 68 -32.5 104t-89.5 36q-63 0 -110 -48q-45 -46 -45 -134
v-238h-37v443h29z" />
    <glyph glyph-name="n" unicode="n" horiz-adv-x="521" 
d="M104 443l6 -90l1 -1h2q27 50 71.5 75.5t96.5 25.5q78 0 121.5 -46t43.5 -131v-276h-38v269q0 72 -34.5 111t-94.5 39q-68 0 -118 -47q-49 -46 -49 -133v-239h-37v443h29z" />
    <glyph glyph-name="o" unicode="o" horiz-adv-x="556" 
d="M279 453q98 0 162 -67q65 -67 65 -164t-65 -165q-65 -66 -162 -66q-104 0 -167 65q-62 67 -62 166q0 96 66 164q67 67 163 67zM279 421q-82 0 -137 -58q-54 -59 -54 -141q0 -87 52 -143q52 -57 139 -57q84 0 136 58q53 59 53 142t-53 141q-52 58 -136 58z" />
    <glyph glyph-name="p" unicode="p" horiz-adv-x="565" 
d="M105 101l-4 -2v-309h-36v654h30l6 -101l4 -1q25 51 75 81t110 30q102 0 164 -65q61 -64 61 -166q0 -96 -65 -164q-64 -67 -161 -67q-62 0 -111.5 29.5t-72.5 80.5zM288 23q84 0 136 57q53 59 53 142q0 86 -52 142q-51 57 -137 57q-85 0 -136 -57q-51 -56 -51 -142
q0 -85 51 -142q52 -57 136 -57z" />
    <glyph glyph-name="q" unicode="q" horiz-adv-x="566" 
d="M464 -210v314h-3q-25 -52 -74.5 -82.5t-111.5 -30.5q-102 0 -164 65q-61 64 -61 165q0 99 64 164q64 67 162 67q61 0 111 -29.5t73 -79.5l3 2l6 98h32v-653h-37zM463 221q0 87 -52 142q-51 57 -134 57q-85 0 -137 -58q-52 -56 -52 -141t51 -142q53 -57 137 -57
q85 0 136 57t51 142z" />
    <glyph glyph-name="r" unicode="r" horiz-adv-x="312" 
d="M112 148v-148h-37v443h26l6 -123q1 -1 3 -1q18 69 60.5 101.5t100.5 32.5q23 0 35 -3v-37q-17 4 -43 4q-151 0 -151 -269z" />
    <glyph glyph-name="s" unicode="s" horiz-adv-x="369" 
d="M25 31v38q65 -47 147 -47q57 0 91 22.5t34 65.5q0 60 -89 95q-6 2 -24 9.5t-26 10.5t-24 10.5t-24 12.5t-21 13t-19 16t-13 18t-10 21t-3 24q0 54 40 83.5t101 29.5q69 0 129 -30v-37q-64 36 -125 36q-48 0 -77.5 -19.5t-29.5 -60.5q0 -48 89 -84q32 -12 46 -17.5
t41.5 -20t40 -27t24 -33t11.5 -44.5q0 -59 -44.5 -92t-114.5 -33q-88 0 -150 40z" />
    <glyph glyph-name="t" unicode="t" horiz-adv-x="331" 
d="M144 443h152v-31h-152v-283q0 -52 19 -77t65 -25q48 0 90 30v-35q-41 -29 -94 -29q-64 0 -91 33.5t-27 102.5v283h-81v25q60 6 81 6l21 133h17v-133z" />
    <glyph glyph-name="u" unicode="u" horiz-adv-x="509" 
d="M404 0l-6 90h-3q-26 -48 -67.5 -73.5t-91.5 -25.5q-78 0 -119.5 43.5t-41.5 127.5v281h37v-273q0 -146 124 -146q66 0 113 47t47 134v238h38v-443h-30z" />
    <glyph glyph-name="v" unicode="v" horiz-adv-x="437" 
d="M211 -1l-196 444h41l161 -373h3l162 374h40l-199 -445h-12z" />
    <glyph glyph-name="w" unicode="w" horiz-adv-x="695" 
d="M188 -1l-173 444h38l144 -369l147 369h10l149 -369h2l141 369h37l-174 -444h-12l-148 368h-1l-148 -368h-12z" />
    <glyph glyph-name="x" unicode="x" horiz-adv-x="434" 
d="M424 0h-43l-164 220l-166 -220h-41l171 228l-161 216h41l156 -208l156 208h42l-163 -215z" />
    <glyph glyph-name="y" unicode="y" horiz-adv-x="423" 
d="M137 -215h-39l93 224l-181 434h41l158 -390l2 -1l164 391h38z" />
    <glyph glyph-name="z" unicode="z" horiz-adv-x="398" 
d="M74 30h296v-30h-355v8l297 405h-266v30h324v-9z" />
    <glyph glyph-name="braceleft" unicode="{" horiz-adv-x="270" 
d="M55 329v11q58 13 58 116v152q0 40 5 65q8 28 23.5 42.5t46.5 14.5h47v-29h-37q-30 0 -40.5 -20t-10.5 -64v-163q0 -97 -51 -118v-3q24 -14 36 -44q11 -29 13 -55q2 -32 2 -70v-180q0 -71 50 -71h38v-30h-43q-53 0 -67 38q-12 32 -12 75v213q0 107 -58 120z" />
    <glyph glyph-name="bar" unicode="|" horiz-adv-x="237" 
d="M135 -138h-33v897h33v-897z" />
    <glyph glyph-name="braceright" unicode="}" horiz-adv-x="270" 
d="M215 340v-11q-59 -14 -59 -120v-213q0 -43 -12 -75q-14 -38 -66 -38h-43v30h37q50 0 50 84v167q0 54 1 70q3 29 16 58t35 41v3q-52 21 -52 118v177q0 70 -51 70h-36v29h46q42 0 58 -27q6 -8 11 -30q6 -21 6 -65v-152q0 -101 59 -116z" />
    <glyph glyph-name="asciitilde" unicode="~" horiz-adv-x="509" 
d="M450 370l22 -21q-39 -80 -120 -80q-35 0 -108 32q-70 33 -97 33t-47 -14.5t-41 -47.5l-22 21q43 76 112 76q35 0 106 -33q72 -33 99 -33q57 0 96 67z" />
    <glyph glyph-name="uni00A0" unicode="&#xa0;" horiz-adv-x="240" 
 />
    <glyph glyph-name="exclamdown" unicode="&#xa1;" horiz-adv-x="247" 
d="M93 422q0 20 16 28t31.5 -0.5t15.5 -27.5t-15.5 -27t-31.5 0t-16 27zM111 315h28l3 -273v-87l2 -103q1 -38 1 -88h-41l3 279q4 215 4 272z" />
    <glyph glyph-name="cent" unicode="&#xa2;" horiz-adv-x="540" 
d="M329 -21h-32v102q-97 7 -151 69q-53 64 -53 158q0 95 58 159q59 66 147 75v103h32v-102q55 -1 98 -19v-36q-43 23 -102 23q-83 0 -139 -56t-56 -147q0 -88 52 -141.5t141 -53.5q72 0 122 33v-37q-48 -27 -117 -28v-102z" />
    <glyph glyph-name="sterling" unicode="&#xa3;" horiz-adv-x="540" 
d="M457 651v-33q-51 17 -89 17q-74 0 -117 -46t-44 -136l-1 -100h201v-27h-201q-5 -222 -72 -295h333v-31h-389v9q52 50 70 126q18 75 21 191h-80v27h80l1 101q1 60 19.5 103.5t48.5 66.5t62 33t67 10q48 0 90 -16z" />
    <glyph glyph-name="currency" unicode="&#xa4;" horiz-adv-x="540" 
d="M435 144l26 -24l-27 -27l-55 53q-49 -40 -112 -40q-61 0 -110 39l-51 -52l-27 27l52 51q-39 45 -39 110q0 61 37 110l-52 54l28 26l51 -54q50 41 111 41q65 0 114 -42l53 53l27 -26l-55 -55q37 -48 37 -107t-37 -107zM126 280q0 -57 41 -98q43 -41 100 -41q58 0 99 41
t41 98q0 60 -41 101q-40 42 -99 42q-58 0 -100 -42q-41 -43 -41 -101z" />
    <glyph glyph-name="yen" unicode="&#xa5;" horiz-adv-x="540" 
d="M487 308v-25h-416v25h173l-197 353h44l183 -343h2l188 342h39l-198 -352h182zM294 193v-193h-38v193h-185v25h416v-25h-193z" />
    <glyph glyph-name="brokenbar" unicode="&#xa6;" horiz-adv-x="236" 
d="M135 759v-357h-33v357h33zM102 -138v419h33v-419h-33z" />
    <glyph glyph-name="section" unicode="&#xa7;" horiz-adv-x="552" 
d="M428 685v-38q-64 34 -138 34q-57 0 -93.5 -25t-36.5 -69q0 -70 110 -115q104 -41 139 -66q63 -45 63 -109q0 -88 -87 -130q63 -45 63 -109t-53 -102q-52 -39 -131 -39q-113 0 -177 44v41q77 -50 171 -50q66 0 107.5 26t41.5 75q0 37 -23.5 65t-58.5 44.5t-76.5 35.5
t-76.5 37t-58.5 50t-23.5 74q0 83 85 126q-54 43 -54 100q0 59 46 94t122 35q78 0 139 -29zM197 466q-28 -14 -47.5 -41.5t-19.5 -59.5q0 -69 75 -106l76 -34q44 -18 76 -38q75 37 75 106q0 56 -57 91q-30 18 -54 29l-65 27q-35 14 -59 26z" />
    <glyph glyph-name="dieresis" unicode="&#xa8;" horiz-adv-x="446" 
d="M136 610q12 0 19 -7.5t7 -18.5q0 -17 -13 -24.5t-26.5 -0.5t-13.5 24q0 11 8 19t19 8zM292 610q27 0 27 -26q0 -12 -7.5 -20t-19.5 -8q-11 0 -19 7.5t-8 19.5q0 11 8 19t19 8z" />
    <glyph glyph-name="copyright" unicode="&#xa9;" horiz-adv-x="833" 
d="M414 -10q-153 0 -257 104q-102 104 -102 258t105 257q106 104 257 104q147 0 251 -105q104 -106 104 -256q0 -152 -105 -257q-103 -105 -253 -105zM414 16q137 0 233 97q97 97 97 239q0 140 -97 237q-96 97 -231 97q-140 0 -237 -96q-96 -96 -96 -238q0 -143 94 -240
q95 -96 237 -96zM557 163v-28q-53 -29 -125 -29q-113 0 -176 63t-63 172q0 103 65 173q64 69 172 69q60 0 109 -21v-30q-48 23 -106 23q-94 0 -151 -60q-56 -59 -56 -154q0 -93 57 -150t152 -57q69 0 122 29z" />
    <glyph glyph-name="ordfeminine" unicode="&#xaa;" horiz-adv-x="342" 
d="M148 320q52 0 84.5 28t32.5 83v16h-76q-121 0 -121 -70q0 -27 21.5 -42t58.5 -15zM172 570q-52 0 -105 -30v30q47 28 106 28q124 0 124 -113v-187h-25l-4 34q0 6 -0.5 12.5t-1 10t-0.5 4.5q-15 -34 -49 -50.5t-74 -16.5q-52 0 -80 23.5t-28 60.5q0 97 153 97h77v18
q0 37 -24 58t-69 21z" />
    <glyph glyph-name="guillemotleft" unicode="&#xab;" horiz-adv-x="384" 
d="M84 198l143 -178h-42l-140 173v7l139 173h40zM204 198l143 -178h-42l-140 173v7l140 173h40z" />
    <glyph glyph-name="logicalnot" unicode="&#xac;" horiz-adv-x="540" 
d="M85 313h369v-200h-31v170h-338v30z" />
    <glyph glyph-name="sfthyphen" unicode="&#xad;" horiz-adv-x="371" 
d="M310 225h-249v37h249v-37z" />
    <glyph glyph-name="registered" unicode="&#xae;" horiz-adv-x="609" 
d="M415 524q0 -32 -24 -55t-66 -29l107 -119h-33l-112 129v7q103 2 103 64q0 32 -20.5 48.5t-57.5 16.5h-66v-264h-25v286h95q42 0 70.5 -23t28.5 -61zM303 222q-107 0 -173 68q-65 70 -65 171q0 98 70 168q71 71 168 71q104 0 171 -70q69 -69 69 -169t-70 -170
q-71 -69 -170 -69zM303 676q-89 0 -152 -63q-62 -64 -62 -152q0 -91 60 -154q60 -62 154 -62q89 0 152 63q63 64 63 153q0 88 -62 152q-62 63 -153 63z" />
    <glyph glyph-name="overscore" unicode="&#xaf;" horiz-adv-x="467" 
d="M359 561h-262v33h262v-33z" />
    <glyph glyph-name="degree" unicode="&#xb0;" horiz-adv-x="409" 
d="M204 620q-36 0 -60.5 -26t-24.5 -63q0 -36 24.5 -61.5t60.5 -25.5q39 0 65 25.5t26 61.5q0 37 -26 63t-65 26zM204 647q51 0 85 -33.5t34 -82.5q0 -48 -34 -80.5t-85 -32.5t-82 32t-31 81t33 82q33 34 80 34z" />
    <glyph glyph-name="plusminus" unicode="&#xb1;" horiz-adv-x="540" 
d="M85 0v31h369v-31h-369zM454 269h-168v-165h-31v165h-170v30h170v167h31v-167h168v-30z" />
    <glyph glyph-name="twosuperior" unicode="&#xb2;" horiz-adv-x="340" 
d="M85 638l-34 5q-3 11 -3 30q0 47 36.5 77t90.5 30q56 0 92.5 -27.5t36.5 -76.5q0 -64 -100 -122q-47 -26 -84 -55q-48 -38 -52 -83h240v-27h-275q2 70 48 112q35 34 97 72q41 26 43 28q19 14 34.5 34.5t15.5 39.5q0 37 -26.5 57t-69.5 20q-42 0 -68.5 -23.5t-26.5 -59.5
q0 -6 5 -31z" />
    <glyph glyph-name="threesuperior" unicode="&#xb3;" horiz-adv-x="347" 
d="M251 745h-198v28h256v-7l-141 -141q66 0 105 -32.5t39 -86.5q0 -57 -43 -91q-43 -33 -105 -33q-77 0 -130 41v36q59 -50 131 -50q51 0 82.5 26.5t31.5 70.5q0 46 -33 70t-89 24q-21 0 -37 -2l-5 9z" />
    <glyph glyph-name="acute" unicode="&#xb4;" horiz-adv-x="463" 
d="M352 663l-131 -129h-30l120 143z" />
    <glyph glyph-name="mu" unicode="&#xb5;" horiz-adv-x="504" 
d="M107 52v-262h-37v653h37v-289q0 -63 33.5 -96.5t90.5 -33.5q66 0 113 47t47 134v238h38v-443h-30l-6 92q-1 1 -2 1q-53 -102 -160 -102q-94 0 -124 61z" />
    <glyph glyph-name="mu" unicode="&#x3bc;" horiz-adv-x="504" 
d="M107 52v-262h-37v653h37v-289q0 -63 33.5 -96.5t90.5 -33.5q66 0 113 47t47 134v238h38v-443h-30l-6 92q-1 1 -2 1q-53 -102 -160 -102q-94 0 -124 61z" />
    <glyph glyph-name="paragraph" unicode="&#xb6;" horiz-adv-x="488" 
d="M320 684v-355h-66q-81 0 -132 51t-51 127q0 74 51 125q52 52 132 52h66zM242 -173l-16 34q73 3 105.5 46t32.5 127v651h39v-674q0 -84 -43 -133t-118 -51z" />
    <glyph glyph-name="middot" unicode="&#xb7;" horiz-adv-x="167" 
d="M59 226q-9 10 -9 24t9 23q10 10 24 10t23 -10q10 -9 10 -23t-10 -24q-9 -9 -23 -9t-24 9z" />
    <glyph glyph-name="cedilla" unicode="&#xb8;" horiz-adv-x="413" 
d="M178 -84l-7 4l39 91h23l-29 -66q1 0 7.5 0.5t8.5 0.5q46 0 70.5 -20.5t24.5 -52.5q0 -36 -29.5 -59t-76.5 -23q-37 0 -77 15v29q38 -16 77 -16q33 0 52 14.5t19 36.5q0 24 -19.5 37.5t-48.5 13.5q-16 0 -34 -5z" />
    <glyph glyph-name="onesuperior" unicode="&#xb9;" horiz-adv-x="285" 
d="M46 664v32l140 82h6v-389h-32v340l-57 -33q-28 -15 -57 -32z" />
    <glyph glyph-name="ordmasculine" unicode="&#xba;" horiz-adv-x="377" 
d="M189 598q68 0 112 -44q45 -44 45 -108q0 -66 -45 -109q-46 -44 -112 -44q-71 0 -114.5 43t-43.5 110q0 65 46 108q47 44 112 44zM189 570q-53 0 -89 -36q-35 -37 -35 -88q0 -54 34.5 -89.5t89.5 -35.5q54 0 88 35.5t34 89.5q0 52 -34.5 88t-87.5 36z" />
    <glyph glyph-name="guillemotright" unicode="&#xbb;" horiz-adv-x="384" 
d="M347 193l-140 -173h-42l143 178l-141 175h40l140 -173v-7zM227 193l-140 -173h-42l142 178l-140 175h40l140 -173v-7z" />
    <glyph glyph-name="onequarter" unicode="&#xbc;" horiz-adv-x="750" 
d="M371 106l219 279h36l-210 -264h177v107l24 35h7v-142h61v-26h-61v-95h-31v95h-222v11zM65 574v32l140 82h6v-389h-32v340l-57 -33q-28 -15 -57 -32zM628 681h32l-521 -700h-32z" />
    <glyph glyph-name="onehalf" unicode="&#xbd;" horiz-adv-x="750" 
d="M481 248l-34 5q-3 11 -3 30q0 47 36.5 77t90.5 30q56 0 92.5 -27.5t36.5 -76.5q0 -64 -100 -122q-47 -26 -84 -55q-48 -38 -52 -83h240v-27h-275q2 70 48 112q35 34 97 72q41 26 43 28q19 14 34.5 34.5t15.5 39.5q0 37 -26.5 57t-69.5 20q-42 0 -68.5 -23.5t-26.5 -59.5
q0 -6 5 -31zM47 574v32l140 82h6v-389h-32v340l-57 -33q-28 -15 -57 -32zM587 681h32l-521 -700h-32z" />
    <glyph glyph-name="threequarters" unicode="&#xbe;" horiz-adv-x="750" 
d="M403 106l219 279h36l-210 -264h177v107l24 35h7v-142h61v-26h-61v-95h-31v95h-222v11zM266 655h-198v28h256v-7l-141 -141q66 0 105 -32.5t39 -86.5q0 -57 -43 -91q-44 -33 -105 -33q-77 0 -130 41v36q59 -50 131 -50q51 0 82.5 26.5t31.5 70.5q0 46 -33 70t-89 24
q-21 0 -37 -2l-5 9zM663 681h32l-521 -700h-32z" />
    <glyph glyph-name="questiondown" unicode="&#xbf;" horiz-adv-x="487" 
d="M340 420q0 -19 -16 -27t-31.5 0t-15.5 27q0 13 9 22t22 9q14 0 23 -8.5t9 -22.5zM295 311l37 10q18 -37 18 -66q0 -33 -23 -66t-56 -60.5t-66 -56t-56 -64.5t-23 -73q0 -64 43 -102t117 -38t149 35v-39q-78 -32 -151 -32q-83 0 -139 46q-57 47 -57 127t79 152
q12 11 38.5 34t41 36t32 32t25.5 36t8 34q0 24 -17 55z" />
    <glyph glyph-name="Agrave" unicode="&#xc0;" horiz-adv-x="599" 
d="M583 0h-40l-69 165h-352l-69 -165h-38l279 663h10zM460 198l-163 390l-161 -390h324zM177 859l138 -125h-33l-148 111z" />
    <glyph glyph-name="Aacute" unicode="&#xc1;" horiz-adv-x="599" 
d="M583 0h-40l-69 165h-352l-69 -165h-38l279 663h10zM460 198l-163 390l-161 -390h324zM453 845l-147 -112l-33 2l137 124z" />
    <glyph glyph-name="Acircumflex" unicode="&#xc2;" horiz-adv-x="599" 
d="M583 0h-40l-69 165h-352l-69 -165h-38l279 663h10zM460 198l-163 390l-161 -390h324zM443 726h-46l-96 79l-100 -79h-45l139 120h13z" />
    <glyph glyph-name="Atilde" unicode="&#xc3;" horiz-adv-x="599" 
d="M583 0h-40l-69 165h-352l-69 -165h-38l279 663h10zM460 198l-163 390l-161 -390h324zM180 752l-20 21q27 62 78 62q22 0 65 -23q43 -22 58 -22q31 0 57 48l6.5 -6.5t8.5 -9t5 -5.5q-29 -59 -75 -59q-24 0 -65 22t-59 22q-36 0 -59 -50z" />
    <glyph glyph-name="Adieresis" unicode="&#xc4;" horiz-adv-x="599" 
d="M583 0h-40l-69 165h-352l-69 -165h-38l279 663h10zM460 198l-163 390l-161 -390h324zM223 813q26 0 26 -27t-26 -27q-12 0 -19.5 7.5t-7.5 19.5q0 11 8 19t19 8zM379 813q12 0 19.5 -7.5t7.5 -19.5q0 -27 -27 -27q-11 0 -19 7.5t-8 19.5q0 11 8 19t19 8z" />
    <glyph glyph-name="Aring" unicode="&#xc5;" horiz-adv-x="599" 
d="M583 0h-40l-69 165h-352l-69 -165h-38l279 663h10zM460 198l-163 390l-161 -390h324zM298 827q-24 0 -39.5 -16.5t-15.5 -40.5t15.5 -40.5t39.5 -16.5q34 -2 48.5 27.5t0 59t-48.5 27.5zM298 850q35 0 57.5 -23t22.5 -57t-22.5 -57t-57.5 -23q-36 0 -57.5 22t-21.5 58
q0 34 22.5 57t56.5 23z" />
    <glyph glyph-name="AE" unicode="&#xc6;" horiz-adv-x="931" 
d="M900 0h-418v165h-324l-132 -165h-46l529 660h364v-34h-352v-258h327v-34h-327v-299h379v-35zM482 572h-2l-296 -374h298v374z" />
    <glyph glyph-name="Ccedilla" unicode="&#xc7;" horiz-adv-x="606" 
d="M323 -87l-7 4l32 76q-140 13 -216 105q-77 92 -77 229q0 149 98 247t242 98q105 0 160 -28v-38q-69 32 -157 32q-128 0 -216 -87q-87 -85 -87 -224q0 -136 79 -218q80 -83 220 -83q102 0 187 49v-38q-36 -21 -89 -33.5t-101 -12.5q-16 0 -20 1l-22 -50q1 0 7.5 0.5
t8.5 0.5q46 0 70.5 -20.5t24.5 -52.5q0 -36 -29.5 -59t-76.5 -23q-36 0 -77 15v29q38 -16 77 -16q33 0 52 14.5t19 36.5q0 24 -19.5 37.5t-48.5 13.5q-16 0 -34 -5z" />
    <glyph glyph-name="Egrave" unicode="&#xc8;" horiz-adv-x="548" 
d="M490 660v-34h-367v-258h342v-34h-342v-299h394v-35h-432v660h405zM213 859l138 -125h-33l-148 111z" />
    <glyph glyph-name="Eacute" unicode="&#xc9;" horiz-adv-x="548" 
d="M490 660v-34h-367v-258h342v-34h-342v-299h394v-35h-432v660h405zM413 845l-147 -112l-33 2l137 124z" />
    <glyph glyph-name="Ecircumflex" unicode="&#xca;" horiz-adv-x="548" 
d="M432 729h-46l-96 79l-100 -79h-45l139 120h13zM490 660v-34h-367v-258h342v-34h-342v-299h394v-35h-432v660h405z" />
    <glyph glyph-name="Edieresis" unicode="&#xcb;" horiz-adv-x="548" 
d="M490 660v-34h-367v-258h342v-34h-342v-299h394v-35h-432v660h405zM204 813q26 0 26 -27t-26 -27q-12 0 -19.5 7.5t-7.5 19.5q0 11 8 19t19 8zM360 813q12 0 19.5 -7.5t7.5 -19.5q0 -27 -27 -27q-11 0 -19 7.5t-8 19.5q0 11 8 19t19 8z" />
    <glyph glyph-name="Igrave" unicode="&#xcc;" horiz-adv-x="228" 
d="M133 661v-661h-38v661h38zM9 859l138 -125h-33l-148 111z" />
    <glyph glyph-name="Iacute" unicode="&#xcd;" horiz-adv-x="228" 
d="M133 661v-661h-38v661h38zM262 845l-147 -112l-33 2l137 124z" />
    <glyph glyph-name="Icircumflex" unicode="&#xce;" horiz-adv-x="228" 
d="M257 729h-46l-96 79l-100 -79h-45l139 120h13zM133 661v-661h-38v661h38z" />
    <glyph glyph-name="Idieresis" unicode="&#xcf;" horiz-adv-x="228" 
d="M35 813q26 0 26 -27t-26 -27q-12 0 -19.5 7.5t-7.5 19.5q0 11 8 19t19 8zM191 813q12 0 19.5 -7.5t7.5 -19.5q0 -27 -27 -27q-11 0 -19 7.5t-8 19.5q0 11 8 19t19 8zM133 661v-661h-38v661h38z" />
    <glyph glyph-name="Eth" unicode="&#xd0;" horiz-adv-x="682" 
d="M304 0h-208v328h-74v34h74v298h199q155 0 243 -88q88 -87 88 -240q0 -149 -86 -241q-85 -91 -236 -91zM296 626h-162v-264h219v-34h-219v-293h167q139 0 213 81q74 82 74 215q0 135 -75 214q-73 81 -217 81z" />
    <glyph glyph-name="Ntilde" unicode="&#xd1;" horiz-adv-x="704" 
d="M581 84v576h37v-662h-10l-486 581v-579h-37v664h10l484 -580h2zM237 746l-20 21q27 62 78 62q22 0 65 -23q43 -22 58 -22q32 0 57 48l6.5 -6.5t8.5 -9t5 -5.5q-29 -59 -75 -59q-24 0 -65 22t-59 22q-36 0 -59 -50z" />
    <glyph glyph-name="Ograve" unicode="&#xd2;" horiz-adv-x="783" 
d="M392 670q144 0 239 -98q96 -98 96 -242t-96 -242q-94 -97 -239 -97q-152 0 -245 96q-92 98 -92 243q0 141 98 241q97 99 239 99zM392 635q-128 0 -213 -88q-84 -88 -84 -217q0 -132 82 -218q83 -87 215 -87q129 0 213 88q84 89 84 217t-84 216q-84 89 -213 89zM301 859
l138 -125h-33l-148 111z" />
    <glyph glyph-name="Oacute" unicode="&#xd3;" horiz-adv-x="783" 
d="M392 670q144 0 239 -98q96 -98 96 -242t-96 -242q-94 -97 -239 -97q-152 0 -245 96q-92 98 -92 243q0 141 98 241q97 99 239 99zM392 635q-128 0 -213 -88q-84 -88 -84 -217q0 -132 82 -218q83 -87 215 -87q129 0 213 88q84 89 84 217t-84 216q-84 89 -213 89zM535 845
l-147 -112l-33 2l137 124z" />
    <glyph glyph-name="Ocircumflex" unicode="&#xd4;" horiz-adv-x="783" 
d="M536 729h-46l-96 79l-100 -79h-45l139 120h13zM392 670q144 0 239 -98q96 -98 96 -242t-96 -242q-94 -97 -239 -97q-152 0 -245 96q-92 98 -92 243q0 141 98 241q97 99 239 99zM392 635q-128 0 -213 -88q-84 -88 -84 -217q0 -132 82 -218q83 -87 215 -87q129 0 213 88
q84 89 84 217t-84 216q-84 89 -213 89z" />
    <glyph glyph-name="Otilde" unicode="&#xd5;" horiz-adv-x="783" 
d="M392 670q144 0 239 -98q96 -98 96 -242t-96 -242q-94 -97 -239 -97q-152 0 -245 96q-92 98 -92 243q0 141 98 241q97 99 239 99zM392 635q-128 0 -213 -88q-84 -88 -84 -217q0 -132 82 -218q83 -87 215 -87q129 0 213 88q84 89 84 217t-84 216q-84 89 -213 89zM276 755
l-20 21q27 62 78 62q22 0 65 -23q43 -22 58 -22q32 0 57 48l6.5 -6.5t8.5 -9t5 -5.5q-29 -59 -75 -59q-24 0 -65 22t-59 22q-36 0 -59 -50z" />
    <glyph glyph-name="Odieresis" unicode="&#xd6;" horiz-adv-x="783" 
d="M392 670q144 0 239 -98q96 -98 96 -242t-96 -242q-94 -97 -239 -97q-152 0 -245 96q-92 98 -92 243q0 141 98 241q97 99 239 99zM392 635q-128 0 -213 -88q-84 -88 -84 -217q0 -132 82 -218q83 -87 215 -87q129 0 213 88q84 89 84 217t-84 216q-84 89 -213 89zM307 813
q26 0 26 -27t-26 -27q-12 0 -19.5 7.5t-7.5 19.5q0 11 8 19t19 8zM463 813q12 0 19.5 -7.5t7.5 -19.5q0 -27 -27 -27q-11 0 -19 7.5t-8 19.5q0 11 8 19t19 8z" />
    <glyph glyph-name="multiply" unicode="&#xd7;" horiz-adv-x="540" 
d="M390 144l-119 119l-121 -121l-23 22l121 121l-120 120l22 22l120 -120l118 119l23 -23l-119 -118l119 -119z" />
    <glyph glyph-name="Oslash" unicode="&#xd8;" horiz-adv-x="783" 
d="M195 47l-36 -47h-38l28 35l23 29q-56 46 -86.5 115t-30.5 151q0 141 98 241q97 99 239 99q113 0 201 -65l43 55h37l-58 -73q112 -99 112 -257q0 -144 -96 -242q-94 -97 -239 -97q-112 0 -197 56zM392 635q-128 0 -213 -88q-84 -88 -84 -217q0 -148 101 -235l374 482
q-76 58 -178 58zM689 330q0 138 -96 228l-374 -482q75 -51 173 -51q129 0 213 88q84 89 84 217z" />
    <glyph glyph-name="Ugrave" unicode="&#xd9;" horiz-adv-x="671" 
d="M548 248v412h38v-416q0 -117 -65.5 -185t-185.5 -68q-122 0 -186 66.5t-64 187.5v415h37v-410q0 -105 54 -164.5t159 -59.5q106 0 159.5 58.5t53.5 163.5zM258 859l138 -125h-33l-148 111z" />
    <glyph glyph-name="Uacute" unicode="&#xda;" horiz-adv-x="671" 
d="M548 248v412h38v-416q0 -117 -65.5 -185t-185.5 -68q-122 0 -186 66.5t-64 187.5v415h37v-410q0 -105 54 -164.5t159 -59.5q106 0 159.5 58.5t53.5 163.5zM469 845l-147 -112l-33 2l137 124z" />
    <glyph glyph-name="Ucircumflex" unicode="&#xdb;" horiz-adv-x="671" 
d="M483 729h-46l-96 79l-100 -79h-45l139 120h13zM548 248v412h38v-416q0 -117 -65.5 -185t-185.5 -68q-122 0 -186 66.5t-64 187.5v415h37v-410q0 -105 54 -164.5t159 -59.5q106 0 159.5 58.5t53.5 163.5z" />
    <glyph glyph-name="Udieresis" unicode="&#xdc;" horiz-adv-x="671" 
d="M548 248v412h38v-416q0 -117 -65.5 -185t-185.5 -68q-122 0 -186 66.5t-64 187.5v415h37v-410q0 -105 54 -164.5t159 -59.5q106 0 159.5 58.5t53.5 163.5zM261 812q25 0 25 -26t-25 -26q-11 0 -18.5 7t-7.5 19q0 10 8 18t18 8zM412 812q12 0 19 -7.5t7 -18.5
q0 -26 -26 -26q-11 0 -18.5 7t-7.5 19q0 10 8 18t18 8z" />
    <glyph glyph-name="Yacute" unicode="&#xdd;" horiz-adv-x="538" 
d="M294 283v-283h-38v283l-246 377h43l221 -340h3l209 340h41zM406 841l-147 -112l-33 2l137 124z" />
    <glyph glyph-name="Thorn" unicode="&#xde;" horiz-adv-x="553" 
d="M123 152v-152h-38v660h38v-108h185q97 0 156 -56t59 -141t-59 -144t-160 -59h-181zM300 518h-177v-332h179q78 0 130 44q52 45 52 122q0 67 -46 116q-47 50 -138 50z" />
    <glyph glyph-name="germandbls" unicode="&#xdf;" horiz-adv-x="551" 
d="M203 -1q0 25 1 32q29 -10 74 -10q84 0 137 53q53 55 53 143q0 82 -47 129t-127 52v33q62 5 90 42q29 38 29 80q0 65 -43 102q-42 39 -104 39q-46 0 -79.5 -17.5t-51 -46.5t-25.5 -59.5t-8 -63.5v-507h-37v507q0 95 52 156q53 62 147 62q84 0 136 -48.5t52 -124.5
q0 -18 -6 -41q-7 -25 -29.5 -52t-53.5 -40v-4q65 -16 104 -71.5t39 -128.5q0 -97 -63 -161q-61 -64 -163 -64q-48 0 -77 9z" />
    <glyph glyph-name="agrave" unicode="&#xe0;" horiz-adv-x="492" 
d="M204 22q70 0 123 45q52 45 52 136v26h-127q-168 0 -168 -113q0 -44 33.5 -69t86.5 -25zM387 0l-7 95l-1 1h-2q-20 -52 -69 -78.5t-112 -26.5q-72 0 -111 34.5t-39 87.5q0 145 210 145h123v31q0 132 -141 132q-75 0 -146 -43v35q64 40 148 40q176 0 176 -169v-284h-29z
M177 685l115 -147l-31 -1l-126 135z" />
    <glyph glyph-name="aacute" unicode="&#xe1;" horiz-adv-x="492" 
d="M204 22q70 0 123 45q52 45 52 136v26h-127q-168 0 -168 -113q0 -44 33.5 -69t86.5 -25zM387 0l-7 95l-1 1h-2q-20 -52 -69 -78.5t-112 -26.5q-72 0 -111 34.5t-39 87.5q0 145 210 145h123v31q0 132 -141 132q-75 0 -146 -43v35q64 40 148 40q176 0 176 -169v-284h-29z
M359 663l-131 -129h-30l120 143z" />
    <glyph glyph-name="acircumflex" unicode="&#xe2;" horiz-adv-x="492" 
d="M204 22q70 0 123 45q52 45 52 136v26h-127q-168 0 -168 -113q0 -44 33.5 -69t86.5 -25zM387 0l-7 95l-1 1h-2q-20 -52 -69 -78.5t-112 -26.5q-72 0 -111 34.5t-39 87.5q0 145 210 145h123v31q0 132 -141 132q-75 0 -146 -43v35q64 40 148 40q176 0 176 -169v-284h-29z
M388 533h-44l-98 90l-100 -90h-42l138 135h12z" />
    <glyph glyph-name="atilde" unicode="&#xe3;" horiz-adv-x="492" 
d="M204 22q70 0 123 45q52 45 52 136v26h-127q-168 0 -168 -113q0 -44 33.5 -69t86.5 -25zM387 0l-7 95l-1 1h-2q-20 -52 -69 -78.5t-112 -26.5q-72 0 -111 34.5t-39 87.5q0 145 210 145h123v31q0 132 -141 132q-75 0 -146 -43v35q64 40 148 40q176 0 176 -169v-284h-29z
M124 548l-20 21q27 62 78 62q22 0 65 -23q43 -22 58 -22q31 0 57 48l6.5 -6.5t8.5 -9t5 -5.5q-29 -59 -75 -59q-24 0 -65 22t-59 22q-36 0 -59 -50z" />
    <glyph glyph-name="adieresis" unicode="&#xe4;" horiz-adv-x="492" 
d="M204 22q70 0 123 45q52 45 52 136v26h-127q-168 0 -168 -113q0 -44 33.5 -69t86.5 -25zM387 0l-7 95l-1 1h-2q-20 -52 -69 -78.5t-112 -26.5q-72 0 -111 34.5t-39 87.5q0 145 210 145h123v31q0 132 -141 132q-75 0 -146 -43v35q64 40 148 40q176 0 176 -169v-284h-29z
M169 610q12 0 19 -7.5t7 -18.5q0 -17 -13 -24.5t-26.5 -0.5t-13.5 24q0 11 8 19t19 8zM325 610q27 0 27 -26q0 -12 -7.5 -20t-19.5 -8q-11 0 -19 7.5t-8 19.5q0 11 8 19t19 8z" />
    <glyph glyph-name="aring" unicode="&#xe5;" horiz-adv-x="492" 
d="M204 22q70 0 123 45q52 45 52 136v26h-127q-168 0 -168 -113q0 -44 33.5 -69t86.5 -25zM387 0l-7 95l-1 1h-2q-20 -52 -69 -78.5t-112 -26.5q-72 0 -111 34.5t-39 87.5q0 145 210 145h123v31q0 132 -141 132q-75 0 -146 -43v35q64 40 148 40q176 0 176 -169v-284h-29z
M246 665q-24 0 -39.5 -16.5t-15.5 -40.5t15.5 -40.5t39.5 -16.5q34 -2 48.5 27.5t0 59t-48.5 27.5zM246 688q35 0 57.5 -23t22.5 -57t-22.5 -57t-57.5 -23q-36 0 -57.5 22t-21.5 58q0 34 22.5 57t56.5 23z" />
    <glyph glyph-name="ae" unicode="&#xe6;" horiz-adv-x="829" 
d="M758 79v-38q-59 -49 -165 -49q-75 0 -130 38.5t-74 103.5q-45 -143 -206 -143q-72 0 -112.5 35.5t-40.5 86.5q0 86 69 113q56 24 149 24h118v40q0 62 -34.5 96.5t-106.5 34.5t-145 -43q0 3 -0.5 17t-0.5 18q65 40 148 40q146 0 168 -121q24 55 75 88t114 33q94 0 147 -62
q52 -61 52 -160v-10h-378q2 -88 54 -143t132 -55q99 0 167 56zM585 420q-75 0 -125 -47t-54 -123h342q-3 78 -46.5 124t-116.5 46zM191 22q80 0 127.5 48.5t47.5 125.5v25h-115q-73 0 -124 -18q-59 -21 -59 -87q0 -44 34 -69t89 -25z" />
    <glyph glyph-name="ccedilla" unicode="&#xe7;" horiz-adv-x="429" 
d="M202 -84l-7 4l32 75q-84 14 -130.5 74t-46.5 149q0 100 65 168q66 67 164 67q60 0 107 -19v-36q-43 23 -103 23q-83 0 -139 -56t-56 -147q0 -86 52 -141q52 -54 141 -54q73 0 123 33v-36q-53 -29 -129 -29q-4 0 -14.5 0.5t-12.5 0.5l-20 -47q1 0 7.5 0.5t8.5 0.5
q46 0 70.5 -20.5t24.5 -52.5q0 -36 -29.5 -59t-76.5 -23q-37 0 -77 15v29q38 -16 77 -16q33 0 52 14.5t19 36.5q0 24 -19.5 37.5t-48.5 13.5q-16 0 -34 -5z" />
    <glyph glyph-name="egrave" unicode="&#xe8;" horiz-adv-x="517" 
d="M466 231v-18h-378q-3 -77 52 -133q56 -57 139 -57q94 0 168 56v-38q-68 -50 -167 -50q-106 0 -168 63t-62 169q0 98 61 163q61 67 153 67q94 0 148 -64q54 -63 54 -158zM265 419q-73 0 -122 -49q-49 -50 -54 -126h341q-6 81 -49 128t-116 47zM190 685l115 -147l-31 -1
l-126 135z" />
    <glyph glyph-name="eacute" unicode="&#xe9;" horiz-adv-x="517" 
d="M466 231v-18h-378q-3 -77 52 -133q56 -57 139 -57q94 0 168 56v-38q-68 -50 -167 -50q-106 0 -168 63t-62 169q0 98 61 163q61 67 153 67q94 0 148 -64q54 -63 54 -158zM265 419q-73 0 -122 -49q-49 -50 -54 -126h341q-6 81 -49 128t-116 47zM381 663l-131 -129h-30
l120 143z" />
    <glyph glyph-name="ecircumflex" unicode="&#xea;" horiz-adv-x="517" 
d="M466 231v-18h-378q-3 -77 52 -133q56 -57 139 -57q94 0 168 56v-38q-68 -50 -167 -50q-106 0 -168 63t-62 169q0 98 61 163q61 67 153 67q94 0 148 -64q54 -63 54 -158zM265 419q-73 0 -122 -49q-49 -50 -54 -126h341q-6 81 -49 128t-116 47zM409 533h-44l-98 90
l-100 -90h-42l138 135h12z" />
    <glyph glyph-name="edieresis" unicode="&#xeb;" horiz-adv-x="517" 
d="M466 231v-18h-378q-3 -77 52 -133q56 -57 139 -57q94 0 168 56v-38q-68 -50 -167 -50q-106 0 -168 63t-62 169q0 98 61 163q61 67 153 67q94 0 148 -64q54 -63 54 -158zM265 419q-73 0 -122 -49q-49 -50 -54 -126h341q-6 81 -49 128t-116 47zM186 610q12 0 19 -7.5
t7 -18.5q0 -17 -13 -24.5t-26.5 -0.5t-13.5 24q0 11 8 19t19 8zM342 610q27 0 27 -26q0 -12 -7.5 -20t-19.5 -8q-11 0 -19 7.5t-8 19.5q0 11 8 19t19 8z" />
    <glyph glyph-name="igrave" unicode="&#xec;" horiz-adv-x="207" 
d="M16 685l115 -147l-31 -1l-126 135zM122 444v-444h-38v444h38z" />
    <glyph glyph-name="iacute" unicode="&#xed;" horiz-adv-x="207" 
d="M122 444v-444h-38v444h38zM236 663l-131 -129h-30l120 143z" />
    <glyph glyph-name="icircumflex" unicode="&#xee;" horiz-adv-x="207" 
d="M244 533h-44l-98 90l-100 -90h-42l138 135h12zM122 444v-444h-38v444h38z" />
    <glyph glyph-name="idieresis" unicode="&#xef;" horiz-adv-x="207" 
d="M27 610q12 0 19 -7.5t7 -18.5q0 -17 -13.5 -24.5t-26.5 -0.5t-13 24q0 11 8 19t19 8zM183 610q27 0 27 -26q0 -12 -7.5 -20t-19.5 -8q-11 0 -19 7.5t-8 19.5q0 11 8 19t19 8zM122 444v-444h-38v444h38z" />
    <glyph glyph-name="eth" unicode="&#xf0;" horiz-adv-x="549" 
d="M341 579l-92 -64v33q11 7 72 51q-60 57 -133 97l30 19q69 -37 131 -97l91 64v-35q-34 -26 -70 -50q133 -148 133 -336q0 -111 -60 -191q-58 -79 -171 -79q-104 0 -166 63q-61 64 -61 162q0 96 65 161q66 66 161 66q67 0 123 -39q56 -40 74 -103q1 1 2 1q-24 165 -129 277
zM82 216q0 -84 52 -139t138 -55q88 0 137 60q50 62 50 136q0 80 -53 136q-52 57 -134 57t-136 -57q-54 -56 -54 -138z" />
    <glyph glyph-name="ntilde" unicode="&#xf1;" horiz-adv-x="521" 
d="M104 443l6 -90l1 -1h2q27 50 71.5 75.5t96.5 25.5q78 0 121.5 -46t43.5 -131v-276h-38v269q0 72 -34.5 111t-94.5 39q-68 0 -118 -47q-49 -46 -49 -133v-239h-37v443h29zM133 547l-20 21q27 62 78 62q22 0 65 -23q43 -22 58 -22q32 0 57 48l6.5 -6.5t8.5 -9t5 -5.5
q-29 -59 -75 -59q-24 0 -65 22t-59 22q-36 0 -59 -50z" />
    <glyph glyph-name="ograve" unicode="&#xf2;" horiz-adv-x="556" 
d="M279 453q98 0 162 -67q65 -67 65 -164t-65 -165q-65 -66 -162 -66q-104 0 -167 65q-62 67 -62 166q0 96 66 164q67 67 163 67zM279 421q-82 0 -137 -58q-54 -59 -54 -141q0 -87 52 -143q52 -57 139 -57q84 0 136 58q53 59 53 142t-53 141q-52 58 -136 58zM200 685
l115 -147l-31 -1l-126 135z" />
    <glyph glyph-name="oacute" unicode="&#xf3;" horiz-adv-x="556" 
d="M279 453q98 0 162 -67q65 -67 65 -164t-65 -165q-65 -66 -162 -66q-104 0 -167 65q-62 67 -62 166q0 96 66 164q67 67 163 67zM279 421q-82 0 -137 -58q-54 -59 -54 -141q0 -87 52 -143q52 -57 139 -57q84 0 136 58q53 59 53 142t-53 141q-52 58 -136 58zM411 663
l-131 -129h-30l120 143z" />
    <glyph glyph-name="ocircumflex" unicode="&#xf4;" horiz-adv-x="556" 
d="M423 533h-44l-98 90l-100 -90h-42l138 135h12zM279 453q98 0 162 -67q65 -67 65 -164t-65 -165q-65 -66 -162 -66q-104 0 -167 65q-62 67 -62 166q0 96 66 164q67 67 163 67zM279 421q-82 0 -137 -58q-54 -59 -54 -141q0 -87 52 -143q52 -57 139 -57q84 0 136 58
q53 59 53 142t-53 141q-52 58 -136 58z" />
    <glyph glyph-name="otilde" unicode="&#xf5;" horiz-adv-x="556" 
d="M279 453q98 0 162 -67q65 -67 65 -164t-65 -165q-65 -66 -162 -66q-104 0 -167 65q-62 67 -62 166q0 96 66 164q67 67 163 67zM279 421q-82 0 -137 -58q-54 -59 -54 -141q0 -87 52 -143q52 -57 139 -57q84 0 136 58q53 59 53 142t-53 141q-52 58 -136 58zM160 547l-20 21
q27 62 78 62q22 0 65 -23q43 -22 58 -22q32 0 57 48l6.5 -6.5t8.5 -9t5 -5.5q-29 -59 -75 -59q-24 0 -65 22t-59 22q-36 0 -59 -50z" />
    <glyph glyph-name="odieresis" unicode="&#xf6;" horiz-adv-x="556" 
d="M279 453q98 0 162 -67q65 -67 65 -164t-65 -165q-65 -66 -162 -66q-104 0 -167 65q-62 67 -62 166q0 96 66 164q67 67 163 67zM279 421q-82 0 -137 -58q-54 -59 -54 -141q0 -87 52 -143q52 -57 139 -57q84 0 136 58q53 59 53 142t-53 141q-52 58 -136 58zM197 610
q12 0 19 -7.5t7 -18.5q0 -17 -13.5 -24.5t-26.5 -0.5t-13 24q0 11 8 19t19 8zM353 610q27 0 27 -26q0 -12 -7.5 -20t-19.5 -8q-11 0 -19 7.5t-8 19.5q0 11 8 19t19 8z" />
    <glyph glyph-name="divide" unicode="&#xf7;" horiz-adv-x="540" 
d="M454 306v-32h-369v32h369zM239 422q0 19 15.5 27t31 0t15.5 -27q0 -12 -9 -21.5t-21 -9.5q-13 0 -22.5 9t-9.5 22zM239 155q0 20 19.5 27.5t33.5 -6.5q15 -14 6.5 -33t-27.5 -19q-13 0 -22.5 9.5t-9.5 21.5z" />
    <glyph glyph-name="oslash" unicode="&#xf8;" horiz-adv-x="546" 
d="M135 32l-27 -32h-36l43 49q-70 64 -70 173q0 96 66 164q67 67 163 67q82 0 140 -48l32 38h36l-22 -26l-26 -30q67 -64 67 -165q0 -97 -65 -165q-64 -66 -162 -66q-83 0 -139 41zM274 421q-82 0 -137 -58q-54 -59 -54 -141q0 -89 55 -145l254 302q-53 42 -118 42zM463 222
q0 82 -53 138l-252 -302q46 -36 116 -36q84 0 136 58q53 59 53 142z" />
    <glyph glyph-name="ugrave" unicode="&#xf9;" horiz-adv-x="509" 
d="M404 0l-6 90h-3q-26 -48 -67.5 -73.5t-91.5 -25.5q-78 0 -119.5 43.5t-41.5 127.5v281h37v-273q0 -146 124 -146q66 0 113 47t47 134v238h38v-443h-30zM178 685l115 -147l-31 -1l-126 135z" />
    <glyph glyph-name="uacute" unicode="&#xfa;" horiz-adv-x="509" 
d="M404 0l-6 90h-3q-26 -48 -67.5 -73.5t-91.5 -25.5q-78 0 -119.5 43.5t-41.5 127.5v281h37v-273q0 -146 124 -146q66 0 113 47t47 134v238h38v-443h-30zM372 663l-131 -129h-30l120 143z" />
    <glyph glyph-name="ucircumflex" unicode="&#xfb;" horiz-adv-x="509" 
d="M404 0l-6 90h-3q-26 -48 -67.5 -73.5t-91.5 -25.5q-78 0 -119.5 43.5t-41.5 127.5v281h37v-273q0 -146 124 -146q66 0 113 47t47 134v238h38v-443h-30zM401 533h-44l-98 90l-100 -90h-42l138 135h12z" />
    <glyph glyph-name="udieresis" unicode="&#xfc;" horiz-adv-x="509" 
d="M404 0l-6 90h-3q-26 -48 -67.5 -73.5t-91.5 -25.5q-78 0 -119.5 43.5t-41.5 127.5v281h37v-273q0 -146 124 -146q66 0 113 47t47 134v238h38v-443h-30zM176 610q12 0 19 -7.5t7 -18.5q0 -17 -13 -24.5t-26.5 -0.5t-13.5 24q0 11 8 19t19 8zM332 610q27 0 27 -26
q0 -12 -7.5 -20t-19.5 -8q-11 0 -19 7.5t-8 19.5q0 11 8 19t19 8z" />
    <glyph glyph-name="yacute" unicode="&#xfd;" horiz-adv-x="423" 
d="M137 -215h-39l93 224l-181 434h41l158 -390l2 -1l164 391h38zM338 662l-131 -129h-30l120 143z" />
    <glyph glyph-name="thorn" unicode="&#xfe;" horiz-adv-x="560" 
d="M101 103v-313h-36v920h37v-372h1q1 -1 2 -1q24 54 73.5 84.5t111.5 30.5q102 0 164 -65q61 -64 61 -166q0 -96 -65 -164q-64 -66 -161 -66q-64 0 -113.5 30t-71.5 83h-1q-1 -1 -2 -1zM288 23q84 0 136 57q53 59 53 141q0 87 -52 143q-51 57 -137 57q-85 0 -136 -57
q-51 -56 -51 -143q0 -86 50 -142q51 -56 137 -56z" />
    <glyph glyph-name="ydieresis" unicode="&#xff;" horiz-adv-x="423" 
d="M137 -215h-39l93 224l-181 434h41l158 -390l2 -1l164 391h38zM141 603q12 0 19 -7.5t7 -18.5q0 -17 -13.5 -24t-26.5 -0.5t-13 23.5q0 11 8 19t19 8zM297 603q27 0 27 -26q0 -12 -7.5 -20t-19.5 -8q-11 0 -19 7.5t-8 19.5q0 11 8 19t19 8z" />
    <glyph glyph-name="Amacron" unicode="&#x100;" horiz-adv-x="599" 
d="M583 0h-40l-69 165h-352l-69 -165h-38l279 663h10zM460 198l-163 390l-161 -390h324zM433 771h-272v35h272v-35z" />
    <glyph glyph-name="amacron" unicode="&#x101;" horiz-adv-x="492" 
d="M204 22q70 0 123 45q52 45 52 136v26h-127q-168 0 -168 -113q0 -44 33.5 -69t86.5 -25zM387 0l-7 95l-1 1h-2q-20 -52 -69 -78.5t-112 -26.5q-72 0 -111 34.5t-39 87.5q0 145 210 145h123v31q0 132 -141 132q-75 0 -146 -43v35q64 40 148 40q176 0 176 -169v-284h-29z
M375 561h-262v33h262v-33z" />
    <glyph glyph-name="Abreve" unicode="&#x102;" horiz-adv-x="599" 
d="M583 0h-40l-69 165h-352l-69 -165h-38l279 663h10zM460 198l-163 390l-161 -390h324zM393 850h32q-3 -52 -37 -87t-91 -35q-55 0 -89 35.5t-36 86.5h31q2 -41 27 -67.5t66 -26.5q45 0 69 25.5t28 68.5z" />
    <glyph glyph-name="abreve" unicode="&#x103;" horiz-adv-x="492" 
d="M204 22q70 0 123 45q52 45 52 136v26h-127q-168 0 -168 -113q0 -44 33.5 -69t86.5 -25zM387 0l-7 95l-1 1h-2q-20 -52 -69 -78.5t-112 -26.5q-72 0 -111 34.5t-39 87.5q0 145 210 145h123v31q0 132 -141 132q-75 0 -146 -43v35q64 40 148 40q176 0 176 -169v-284h-29z
M338 670h32q-3 -54 -36.5 -91.5t-90.5 -37.5t-88 39q-32 40 -35 90h31q2 -42 26.5 -72t65.5 -30q82 0 95 102z" />
    <glyph glyph-name="Aogonek" unicode="&#x104;" horiz-adv-x="599" 
d="M610 -151l-3 -31q-43 -27 -100 -27q-86 0 -86 73q0 36 28.5 77.5t86.5 74.5l-62 149h-352l-69 -165h-38l279 663h10l279 -663h-38q-41 -28 -65 -64t-24 -64q0 -53 59 -53q49 0 95 30zM460 198l-163 390l-161 -390h324z" />
    <glyph glyph-name="aogonek" unicode="&#x105;" horiz-adv-x="492" 
d="M386 14l-6 81l-1 1h-2q-20 -52 -69 -78.5t-112 -26.5q-72 0 -111 34.5t-39 87.5q0 145 210 145h123v31q0 132 -141 132q-75 0 -146 -43v35q64 40 148 40q176 0 176 -169v-284h-21q-45 -28 -70.5 -65t-25.5 -68q0 -53 59 -53q48 0 95 30l-3 -31q-44 -27 -100 -27
q-86 0 -86 73q0 37 30 79.5t92 75.5zM204 22q70 0 123 45q52 45 52 136v26h-127q-168 0 -168 -113q0 -44 33.5 -69t86.5 -25z" />
    <glyph glyph-name="Cacute" unicode="&#x106;" horiz-adv-x="606" 
d="M581 75v-38q-36 -21 -89 -33.5t-101 -12.5q-159 0 -247 94q-89 95 -89 242q0 149 98 247t242 98q105 0 160 -28v-38q-69 32 -157 32q-128 0 -216 -87q-87 -85 -87 -224q0 -136 79 -218q80 -83 220 -83q102 0 187 49zM498 845l-147 -112l-33 2l137 124z" />
    <glyph glyph-name="cacute" unicode="&#x107;" horiz-adv-x="429" 
d="M404 56v-36q-53 -29 -129 -29q-108 0 -166 63q-59 65 -59 164q0 100 65 168q66 67 164 67q60 0 107 -19v-36q-43 23 -103 23q-83 0 -139 -56t-56 -147q0 -86 52 -141q52 -54 141 -54q73 0 123 33zM364 663l-131 -129h-30l120 143z" />
    <glyph glyph-name="Ccircumflex" unicode="&#x108;" horiz-adv-x="606" 
d="M524 729h-46l-96 79l-100 -79h-45l139 120h13zM581 75v-38q-36 -21 -89 -33.5t-101 -12.5q-159 0 -247 94q-89 95 -89 242q0 149 98 247t242 98q105 0 160 -28v-38q-69 32 -157 32q-128 0 -216 -87q-87 -85 -87 -224q0 -136 79 -218q80 -83 220 -83q102 0 187 49z" />
    <glyph glyph-name="ccircumflex" unicode="&#x109;" horiz-adv-x="429" 
d="M396 533h-44l-98 90l-100 -90h-42l138 135h12zM404 56v-36q-53 -29 -129 -29q-108 0 -166 63q-59 65 -59 164q0 100 65 168q66 67 164 67q60 0 107 -19v-36q-43 23 -103 23q-83 0 -139 -56t-56 -147q0 -86 52 -141q52 -54 141 -54q73 0 123 33z" />
    <glyph glyph-name="Cdotaccent" unicode="&#x10a;" horiz-adv-x="606" 
d="M581 75v-38q-36 -21 -89 -33.5t-101 -12.5q-159 0 -247 94q-89 95 -89 242q0 149 98 247t242 98q105 0 160 -28v-38q-69 32 -157 32q-128 0 -216 -87q-87 -85 -87 -224q0 -136 79 -218q80 -83 220 -83q102 0 187 49zM346 792q0 18 17.5 25.5t29.5 -5.5q13 -14 6 -31
t-25 -17q-12 0 -20 8t-8 20z" />
    <glyph glyph-name="cdotaccent" unicode="&#x10b;" horiz-adv-x="429" 
d="M404 56v-36q-53 -29 -129 -29q-108 0 -166 63q-59 65 -59 164q0 100 65 168q66 67 164 67q60 0 107 -19v-36q-43 23 -103 23q-83 0 -139 -56t-56 -147q0 -86 52 -141q52 -54 141 -54q73 0 123 33zM230 586q0 18 17.5 25.5t29.5 -5.5q13 -14 6 -31t-25 -17q-12 0 -20 8
t-8 20z" />
    <glyph glyph-name="Ccaron" unicode="&#x10c;" horiz-adv-x="606" 
d="M581 75v-38q-36 -21 -89 -33.5t-101 -12.5q-159 0 -247 94q-89 95 -89 242q0 149 98 247t242 98q105 0 160 -28v-38q-69 32 -157 32q-128 0 -216 -87q-87 -85 -87 -224q0 -136 79 -218q80 -83 220 -83q102 0 187 49zM269 848l103 -76l102 76h39l-134 -120h-12l-138 120
h40z" />
    <glyph glyph-name="ccaron" unicode="&#x10d;" horiz-adv-x="429" 
d="M404 56v-36q-53 -29 -129 -29q-108 0 -166 63q-59 65 -59 164q0 100 65 168q66 67 164 67q60 0 107 -19v-36q-43 23 -103 23q-83 0 -139 -56t-56 -147q0 -86 52 -141q52 -54 141 -54q73 0 123 33zM149 668l103 -91l102 91h39l-134 -135h-12l-138 135h40z" />
    <glyph glyph-name="Dcaron" unicode="&#x10e;" horiz-adv-x="670" 
d="M292 0h-207v660h199q154 0 242 -88q89 -89 89 -240q0 -149 -86 -241q-85 -91 -237 -91zM284 626h-161v-591h167q139 0 212 81q74 82 74 215q0 135 -75 214q-73 81 -217 81zM199 849l103 -76l102 76h39l-134 -120h-12l-138 120h40z" />
    <glyph glyph-name="dcaron" unicode="&#x10f;" horiz-adv-x="613" 
d="M460 343l3 2v366h36v-711h-30l-6 102h-2q-25 -51 -75 -81t-110 -30q-103 0 -165 65q-61 64 -61 167q0 98 64 163q64 67 162 67q62 0 111.5 -29.5t72.5 -80.5zM88 223q0 -86 51 -143q53 -57 138 -57t136 56q51 57 51 144q0 85 -52 141q-51 57 -135 57q-85 0 -137 -57
q-52 -56 -52 -141zM577 545h-21l36 125q-21 4 -21 27q0 13 9 21.5t22 8.5q12 0 20.5 -8t8.5 -21q0 -39 -54 -153z" />
    <glyph glyph-name="Dcroat" unicode="&#x110;" horiz-adv-x="682" 
d="M304 0h-208v328h-74v34h74v298h199q155 0 243 -88q88 -87 88 -240q0 -149 -86 -241q-85 -91 -236 -91zM296 626h-162v-264h219v-34h-219v-293h167q139 0 213 81q74 82 74 215q0 135 -75 214q-73 81 -217 81z" />
    <glyph glyph-name="dslash" unicode="&#x111;" horiz-adv-x="564" 
d="M460 343l3 2v218h-206v29h206v119h36v-119h69v-29h-69v-563h-30l-6 102h-2q-25 -51 -75 -81t-110 -30q-103 0 -165 65q-61 64 -61 167q0 98 64 163q64 67 162 67q62 0 111.5 -29.5t72.5 -80.5zM88 223q0 -86 51 -143q53 -57 138 -57t136 56q51 57 51 144q0 85 -52 141
q-51 57 -135 57q-85 0 -137 -57q-52 -56 -52 -141z" />
    <glyph glyph-name="Emacron" unicode="&#x112;" horiz-adv-x="548" 
d="M490 660v-34h-367v-258h342v-34h-342v-299h394v-35h-432v660h405zM433 774h-272v35h272v-35z" />
    <glyph glyph-name="emacron" unicode="&#x113;" horiz-adv-x="517" 
d="M466 231v-18h-378q-3 -77 52 -133q56 -57 139 -57q94 0 168 56v-38q-68 -50 -167 -50q-106 0 -168 63t-62 169q0 98 61 163q61 67 153 67q94 0 148 -64q54 -63 54 -158zM265 419q-73 0 -122 -49q-49 -50 -54 -126h341q-6 81 -49 128t-116 47zM399 561h-262v33h262v-33z
" />
    <glyph glyph-name="Ebreve" unicode="&#x114;" horiz-adv-x="548" 
d="M490 660v-34h-367v-258h342v-34h-342v-299h394v-35h-432v660h405zM391 850h32q-3 -52 -37 -87t-91 -35q-55 0 -89 35.5t-36 86.5h31q2 -41 27 -67.5t66 -26.5q45 0 69 25.5t28 68.5z" />
    <glyph glyph-name="ebreve" unicode="&#x115;" horiz-adv-x="517" 
d="M466 231v-18h-378q-3 -77 52 -133q56 -57 139 -57q94 0 168 56v-38q-68 -50 -167 -50q-106 0 -168 63t-62 169q0 98 61 163q61 67 153 67q94 0 148 -64q54 -63 54 -158zM265 419q-73 0 -122 -49q-49 -50 -54 -126h341q-6 81 -49 128t-116 47zM359 670h32
q-3 -54 -36.5 -91.5t-90.5 -37.5t-88 39q-32 40 -35 90h31q2 -42 26.5 -72t65.5 -30q82 0 95 102z" />
    <glyph glyph-name="Edotaccent" unicode="&#x116;" horiz-adv-x="548" 
d="M490 660v-34h-367v-258h342v-34h-342v-299h394v-35h-432v660h405zM269 786q0 18 17.5 25.5t29.5 -5.5q13 -14 6 -31t-25 -17q-12 0 -20 8t-8 20z" />
    <glyph glyph-name="edotaccent" unicode="&#x117;" horiz-adv-x="517" 
d="M466 231v-18h-378q-3 -77 52 -133q56 -57 139 -57q94 0 168 56v-38q-68 -50 -167 -50q-106 0 -168 63t-62 169q0 98 61 163q61 67 153 67q94 0 148 -64q54 -63 54 -158zM265 419q-73 0 -122 -49q-49 -50 -54 -126h341q-6 81 -49 128t-116 47zM236 586q0 18 17.5 25.5
t29.5 -5.5q13 -14 6 -31t-25 -17q-12 0 -20 8t-8 20z" />
    <glyph glyph-name="Eogonek" unicode="&#x118;" horiz-adv-x="548" 
d="M497 -152l-3 -31q-44 -27 -100 -27q-86 0 -86 73q0 31 23 68.5t68 68.5h-314v660h405v-34h-367v-258h342v-34h-342v-299h394v-35h-84q-42 -28 -66 -64t-24 -65q0 -53 59 -53q48 0 95 30z" />
    <glyph glyph-name="eogonek" unicode="&#x119;" horiz-adv-x="517" 
d="M455 -140l-3 -31q-43 -27 -100 -27q-86 0 -86 73q0 64 69 121q-33 -5 -55 -5q-106 0 -168 63t-62 169q0 98 61 163q61 67 153 67q94 0 148 -64q54 -63 54 -158v-18h-378q-3 -77 52 -133q56 -57 139 -57q94 0 168 56v-38q-27 -20 -61 -33q-40 -28 -62.5 -62.5t-22.5 -62.5
q0 -53 59 -53q48 0 95 30zM265 419q-73 0 -122 -49q-49 -50 -54 -126h341q-6 81 -49 128t-116 47z" />
    <glyph glyph-name="Ecaron" unicode="&#x11a;" horiz-adv-x="548" 
d="M490 660v-34h-367v-258h342v-34h-342v-299h394v-35h-432v660h405zM192 848l103 -76l102 76h39l-134 -120h-12l-138 120h40z" />
    <glyph glyph-name="ecaron" unicode="&#x11b;" horiz-adv-x="517" 
d="M466 231v-18h-378q-3 -77 52 -133q56 -57 139 -57q94 0 168 56v-38q-68 -50 -167 -50q-106 0 -168 63t-62 169q0 98 61 163q61 67 153 67q94 0 148 -64q54 -63 54 -158zM265 419q-73 0 -122 -49q-49 -50 -54 -126h341q-6 81 -49 128t-116 47zM163 668l103 -91l102 91h39
l-134 -135h-12l-138 135h40z" />
    <glyph glyph-name="Gcircumflex" unicode="&#x11c;" horiz-adv-x="658" 
d="M397 672q110 0 172 -35v-39q-71 38 -171 38q-128 0 -216 -86q-87 -85 -87 -224q0 -130 77 -216q76 -84 217 -84q92 0 166 31v265h37v-291q-82 -39 -212 -39q-153 0 -239 95q-86 97 -86 239q0 149 98 247q99 99 244 99zM532 732h-46l-96 79l-100 -79h-45l139 120h13z" />
    <glyph glyph-name="gcircumflex" unicode="&#x11d;" horiz-adv-x="491" 
d="M145 143l-56 -66l252 -30q53 -6 78.5 -29t25.5 -67q0 -61 -62 -115q-61 -54 -161 -54q-91 0 -137.5 36.5t-46.5 92.5q0 37 21.5 72t57.5 57l-36 5q-36 5 -30 36l73 76q-56 44 -56 128q0 70 51 118t126 48q27 0 59 -9h145v-24l-101 -6q32 -19 51.5 -53.5t19.5 -74.5
q0 -70 -50 -118q-49 -48 -124 -48q-60 0 -100 25zM245 149q61 0 100 38.5t39 96.5t-41 97t-98 39q-61 0 -101 -39t-40 -96q0 -61 38 -98.5t103 -37.5zM336 17l-194 21q-30 -21 -48.5 -54t-18.5 -66q0 -46 36 -75t110 -29q86 0 136 44t50 94q0 57 -71 65zM392 533h-44l-98 90
l-100 -90h-42l138 135h12z" />
    <glyph glyph-name="Gbreve" unicode="&#x11e;" horiz-adv-x="658" 
d="M397 672q110 0 172 -35v-39q-71 38 -171 38q-128 0 -216 -86q-87 -85 -87 -224q0 -130 77 -216q76 -84 217 -84q92 0 166 31v265h37v-291q-82 -39 -212 -39q-153 0 -239 95q-86 97 -86 239q0 149 98 247q99 99 244 99zM481 850h32q-3 -52 -37 -87t-91 -35q-55 0 -89 35.5
t-36 86.5h31q2 -41 27 -67.5t66 -26.5q45 0 69 25.5t28 68.5z" />
    <glyph glyph-name="gbreve" unicode="&#x11f;" horiz-adv-x="491" 
d="M145 143l-56 -66l252 -30q53 -6 78.5 -29t25.5 -67q0 -61 -62 -115q-61 -54 -161 -54q-91 0 -137.5 36.5t-46.5 92.5q0 37 21.5 72t57.5 57l-36 5q-36 5 -30 36l73 76q-56 44 -56 128q0 70 51 118t126 48q27 0 59 -9h145v-24l-101 -6q32 -19 51.5 -53.5t19.5 -74.5
q0 -70 -50 -118q-49 -48 -124 -48q-60 0 -100 25zM245 149q61 0 100 38.5t39 96.5t-41 97t-98 39q-61 0 -101 -39t-40 -96q0 -61 38 -98.5t103 -37.5zM336 17l-194 21q-30 -21 -48.5 -54t-18.5 -66q0 -46 36 -75t110 -29q86 0 136 44t50 94q0 57 -71 65zM343 670h32
q-3 -54 -36.5 -91.5t-90.5 -37.5t-88 39q-32 40 -35 90h31q2 -42 26.5 -72t65.5 -30q82 0 95 102z" />
    <glyph glyph-name="Gdotaccent" unicode="&#x120;" horiz-adv-x="658" 
d="M397 672q110 0 172 -35v-39q-71 38 -171 38q-128 0 -216 -86q-87 -85 -87 -224q0 -130 77 -216q76 -84 217 -84q92 0 166 31v265h37v-291q-82 -39 -212 -39q-153 0 -239 95q-86 97 -86 239q0 149 98 247q99 99 244 99zM358 789q0 18 17.5 25.5t29.5 -5.5q13 -14 6 -31
t-25 -17q-12 0 -20 8t-8 20z" />
    <glyph glyph-name="gdotaccent" unicode="&#x121;" horiz-adv-x="491" 
d="M145 143l-56 -66l252 -30q53 -6 78.5 -29t25.5 -67q0 -61 -62 -115q-61 -54 -161 -54q-91 0 -137.5 36.5t-46.5 92.5q0 37 21.5 72t57.5 57l-36 5q-36 5 -30 36l73 76q-56 44 -56 128q0 70 51 118t126 48q27 0 59 -9h145v-24l-101 -6q32 -19 51.5 -53.5t19.5 -74.5
q0 -70 -50 -118q-49 -48 -124 -48q-60 0 -100 25zM245 149q61 0 100 38.5t39 96.5t-41 97t-98 39q-61 0 -101 -39t-40 -96q0 -61 38 -98.5t103 -37.5zM336 17l-194 21q-30 -21 -48.5 -54t-18.5 -66q0 -46 36 -75t110 -29q86 0 136 44t50 94q0 57 -71 65zM218 586
q0 18 17.5 25.5t29.5 -5.5q13 -14 6 -31t-25 -17q-12 0 -20 8t-8 20z" />
    <glyph glyph-name="Gcommaaccent" unicode="&#x122;" horiz-adv-x="658" 
d="M397 672q110 0 172 -35v-39q-71 38 -171 38q-128 0 -216 -86q-87 -85 -87 -224q0 -130 77 -216q76 -84 217 -84q92 0 166 31v265h37v-291q-82 -39 -212 -39q-153 0 -239 95q-86 97 -86 239q0 149 98 247q99 99 244 99zM351 -231h-21l36 125q-21 4 -21 27q0 13 9 21.5
t22 8.5q12 0 20.5 -8t8.5 -21q0 -39 -54 -153z" />
    <glyph glyph-name="gcommaaccent" unicode="&#x123;" horiz-adv-x="491" 
d="M145 143l-56 -66l252 -30q53 -6 78.5 -29t25.5 -67q0 -61 -62 -115q-61 -54 -161 -54q-91 0 -137.5 36.5t-46.5 92.5q0 37 21.5 72t57.5 57l-36 5q-36 5 -30 36l73 76q-56 44 -56 128q0 70 51 118t126 48q27 0 59 -9h145v-24l-101 -6q32 -19 51.5 -53.5t19.5 -74.5
q0 -70 -50 -118q-49 -48 -124 -48q-60 0 -100 25zM245 149q61 0 100 38.5t39 96.5t-41 97t-98 39q-61 0 -101 -39t-40 -96q0 -61 38 -98.5t103 -37.5zM336 17l-194 21q-30 -21 -48.5 -54t-18.5 -66q0 -46 36 -75t110 -29q86 0 136 44t50 94q0 57 -71 65zM270 713h21
l-36 -125q21 -4 21 -27q0 -13 -9 -21.5t-22 -8.5q-12 0 -20.5 8t-8.5 21q0 39 54 153z" />
    <glyph glyph-name="Hcircumflex" unicode="&#x124;" horiz-adv-x="655" 
d="M471 729h-46l-96 79l-100 -79h-45l139 120h13zM570 661v-661h-38v334h-409v-334h-38v661h38v-292h409v292h38z" />
    <glyph glyph-name="hcircumflex" unicode="&#x125;" horiz-adv-x="511" 
d="M226 745h-46l-96 79l-100 -79h-45l139 120h13zM102 710v-358h2q56 101 167 101q78 0 121.5 -46t43.5 -131v-276h-38v269q0 72 -34.5 111t-94.5 39q-67 0 -117 -47q-49 -46 -49 -133v-239h-38v710h37z" />
    <glyph glyph-name="Hbar" unicode="&#x126;" horiz-adv-x="655" 
d="M570 517v-517h-38v334h-409v-334h-38v517h-52v32h52v111h38v-111h409v111h38v-111h48v-32h-48zM123 517v-149h409v149h-409z" />
    <glyph glyph-name="hbar" unicode="&#x127;" horiz-adv-x="511" 
d="M102 574v-222h2q56 101 167 101q78 0 121.5 -46t43.5 -131v-276h-38v269q0 72 -34.5 111t-94.5 39q-67 0 -117 -47q-49 -46 -49 -133v-239h-38v574h-54v30h54v106h37v-106h204v-30h-204z" />
    <glyph glyph-name="Itilde" unicode="&#x128;" horiz-adv-x="228" 
d="M-2 749l-20 21q27 62 78 62q22 0 65 -23q43 -22 58 -22q31 0 57 48l6.5 -6.5t8.5 -9t5 -5.5q-29 -59 -75 -59q-24 0 -65 22t-59 22q-36 0 -59 -50zM133 661v-661h-38v661h38z" />
    <glyph glyph-name="itilde" unicode="&#x129;" horiz-adv-x="207" 
d="M-16 548l-20 21q27 62 78 62q22 0 65 -23q43 -22 58 -22q31 0 57 48l6.5 -6.5t8.5 -9t5 -5.5q-29 -59 -75 -59q-24 0 -65 22t-59 22q-36 0 -59 -50zM122 444v-444h-38v444h38z" />
    <glyph glyph-name="Imacron" unicode="&#x12a;" horiz-adv-x="228" 
d="M133 661v-661h-38v661h38zM251 769h-272v35h272v-35z" />
    <glyph glyph-name="imacron" unicode="&#x12b;" horiz-adv-x="207" 
d="M122 444v-444h-38v444h38zM233 561h-262v33h262v-33z" />
    <glyph glyph-name="Ibreve" unicode="&#x12c;" horiz-adv-x="228" 
d="M211 851h32q-3 -52 -37 -87t-91 -35q-55 0 -89 35.5t-36 86.5h31q2 -41 27 -67.5t66 -26.5q45 0 69 25.5t28 68.5zM133 661v-661h-38v661h38z" />
    <glyph glyph-name="ibreve" unicode="&#x12d;" horiz-adv-x="207" 
d="M198 672h32q-3 -54 -36.5 -91.5t-90.5 -37.5t-88 39q-32 40 -35 90h31q2 -42 26.5 -72t65.5 -30q82 0 95 102zM122 444v-444h-38v444h38z" />
    <glyph glyph-name="Iogonek" unicode="&#x12e;" horiz-adv-x="228" 
d="M182 -149l-3 -31q-43 -27 -100 -27q-86 0 -86 73q0 34 25.5 73.5t76.5 70.5v651h38v-661h-19q-40 -28 -63 -63t-23 -63q0 -53 59 -53q49 0 95 30z" />
    <glyph glyph-name="iogonek" unicode="&#x12f;" horiz-adv-x="206" 
d="M169 -149l-3 -31q-43 -27 -100 -27q-86 0 -86 73q0 34 25.5 73.5t77.5 70.5v433h37v-443h-19q-40 -28 -63 -63t-23 -63q0 -53 59 -53q48 0 95 30zM103 610q17 0 24 -14t0 -28.5t-24 -14.5t-24 14.5t0 28.5t24 14z" />
    <glyph glyph-name="Idot" unicode="&#x130;" horiz-adv-x="228" 
d="M86 789q0 18 17.5 25.5t29.5 -5.5q13 -13 6 -30.5t-25 -17.5q-12 0 -20 8t-8 20zM133 661v-661h-38v661h38z" />
    <glyph glyph-name="dotlessi" unicode="&#x131;" horiz-adv-x="207" 
d="M122 444v-444h-38v444h38z" />
    <glyph glyph-name="IJ" unicode="&#x132;" horiz-adv-x="632" 
d="M205 23v40q27 -16 66 -26.5t68 -10.5q94 0 130 51t36 138v445h38v-413q0 -89 -21 -147q-37 -109 -184 -109q-77 0 -133 32zM127 661v-661h-38v661h38z" />
    <glyph glyph-name="ij" unicode="&#x133;" horiz-adv-x="371" 
d="M278 610q17 0 24 -14t0 -28.5t-24 -14.5q-17 -1 -24 13.5t0 29.5t24 14zM258 -39v482h37v-483q0 -170 -141 -178l-18 35q67 1 94.5 35.5t27.5 108.5zM114 443v-443h-37v443h37zM97 610q17 0 24 -14t0 -28.5t-24 -14.5t-24 14.5t0 28.5t24 14z" />
    <glyph glyph-name="Jcircumflex" unicode="&#x134;" horiz-adv-x="434" 
d="M473 730h-46l-96 79l-100 -79h-45l139 120h13zM10 24v40q27 -16 66 -26.5t68 -10.5q94 0 130 51t36 138v445h38v-413q0 -89 -21 -147q-37 -109 -184 -109q-77 0 -133 32z" />
    <glyph glyph-name="jcircumflex" unicode="&#x135;" horiz-adv-x="210" 
d="M90 -39v482h36v-483q0 -170 -140 -178l-17 32q65 2 93 39t28 108zM251 533h-44l-98 90l-100 -90h-42l138 135h12z" />
    <glyph glyph-name="Kcommaaccent" unicode="&#x136;" horiz-adv-x="555" 
d="M123 347l345 313h48l-346 -316l375 -344h-54l-368 339v-339h-38v660h38v-313zM242 -212h-21l36 125q-21 5 -21 27q0 13 9 21.5t22 8.5q12 0 20.5 -8t8.5 -21q0 -39 -54 -153z" />
    <glyph glyph-name="kcommaaccent" unicode="&#x137;" horiz-adv-x="440" 
d="M101 228v-228h-36v710h36v-472l260 205h51l-265 -209l288 -234h-57zM189 -223h-21l36 125q-21 4 -21 27q0 13 9 21.5t22 8.5q12 0 20.5 -8t8.5 -21q0 -39 -54 -153z" />
    <glyph glyph-name="kgreenlandic" unicode="&#x138;" horiz-adv-x="440" 
d="M95 228v-228h-36v443h36v-205l261 205h51l-266 -209l288 -234h-56z" />
    <glyph glyph-name="Lacute" unicode="&#x139;" horiz-adv-x="504" 
d="M123 35h371v-35h-409v660h38v-625zM254 845l-147 -112l-33 2l137 124z" />
    <glyph glyph-name="lacute" unicode="&#x13a;" horiz-adv-x="188" 
d="M113 711v-711h-38v711h38zM240 873l-147 -112l-33 2l137 124z" />
    <glyph glyph-name="Lcommaaccent" unicode="&#x13b;" horiz-adv-x="504" 
d="M263 -226h-21l36 125q-21 5 -21 27q0 13 9 21.5t22 8.5q12 0 20.5 -8t8.5 -21q0 -39 -54 -153zM123 35h371v-35h-409v660h38v-625z" />
    <glyph glyph-name="lcommaaccent" unicode="&#x13c;" horiz-adv-x="188" 
d="M64 -226h-21l36 125q-21 5 -21 27q0 13 9 21.5t22 8.5q12 0 20.5 -8t8.5 -21q0 -39 -54 -153zM113 711v-711h-38v711h38z" />
    <glyph glyph-name="Lcaron" unicode="&#x13d;" horiz-adv-x="504" 
d="M339 488h-21l36 125q-21 5 -21 27q0 13 9 21.5t22 8.5q12 0 20.5 -8t8.5 -21q0 -39 -54 -153zM123 35h371v-35h-409v660h38v-625z" />
    <glyph glyph-name="lcaron" unicode="&#x13e;" horiz-adv-x="223" 
d="M185 532h-21l36 125q-21 5 -21 27q0 13 9 21.5t22 8.5q12 0 20.5 -8t8.5 -21q0 -39 -54 -153zM113 711v-711h-38v711h38z" />
    <glyph glyph-name="Ldot" unicode="&#x13f;" horiz-adv-x="504" 
d="M123 35h371v-35h-409v660h38v-625zM312 315q0 18 17.5 25.5t29.5 -5.5q13 -14 6 -31t-25 -17q-12 0 -20 8t-8 20z" />
    <glyph glyph-name="ldot" unicode="&#x140;" horiz-adv-x="228" 
d="M173 337q0 18 17.5 25.5t29.5 -5.5q13 -13 6 -30.5t-25 -17.5q-12 0 -20 8t-8 20zM113 711v-711h-38v711h38z" />
    <glyph glyph-name="Lslash" unicode="&#x141;" horiz-adv-x="504" 
d="M123 35h371v-35h-409v249l-84 -46v31q32 17 84 48v378h38v-355l172 97v-34l-172 -96v-237z" />
    <glyph glyph-name="lslash" unicode="&#x142;" horiz-adv-x="188" 
d="M113 303v-303h-38v281l-90 -50v34l90 50v396h38v-374l97 54v-34z" />
    <glyph glyph-name="Nacute" unicode="&#x143;" horiz-adv-x="704" 
d="M581 84v576h37v-662h-10l-486 581v-579h-37v664h10l484 -580h2zM492 842l-147 -112l-33 2l137 124z" />
    <glyph glyph-name="nacute" unicode="&#x144;" horiz-adv-x="521" 
d="M104 443l6 -90l1 -1h2q27 50 71.5 75.5t96.5 25.5q78 0 121.5 -46t43.5 -131v-276h-38v269q0 72 -34.5 111t-94.5 39q-68 0 -118 -47q-49 -46 -49 -133v-239h-37v443h29zM364 663l-131 -129h-30l120 143z" />
    <glyph glyph-name="Ncommaaccent" unicode="&#x145;" horiz-adv-x="704" 
d="M581 84v576h37v-662h-10l-486 581v-579h-37v664h10l484 -580h2zM323 -213h-21l36 125q-21 4 -21 27q0 13 9 21.5t22 8.5q12 0 20.5 -8t8.5 -21q0 -39 -54 -153z" />
    <glyph glyph-name="ncommaaccent" unicode="&#x146;" horiz-adv-x="521" 
d="M104 443l6 -90l1 -1h2q27 50 71.5 75.5t96.5 25.5q78 0 121.5 -46t43.5 -131v-276h-38v269q0 72 -34.5 111t-94.5 39q-68 0 -118 -47q-49 -46 -49 -133v-239h-37v443h29zM235 -221h-21l36 125q-21 4 -21 27q0 13 9 21.5t22 8.5q12 0 20.5 -8t8.5 -21q0 -39 -54 -153z" />
    <glyph glyph-name="Ncaron" unicode="&#x147;" horiz-adv-x="704" 
d="M581 84v576h37v-662h-10l-486 581v-579h-37v664h10l484 -580h2zM265 848l103 -76l102 76h39l-134 -120h-12l-138 120h40z" />
    <glyph glyph-name="ncaron" unicode="&#x148;" horiz-adv-x="521" 
d="M104 443l6 -90l1 -1h2q27 50 71.5 75.5t96.5 25.5q78 0 121.5 -46t43.5 -131v-276h-38v269q0 72 -34.5 111t-94.5 39q-68 0 -118 -47q-49 -46 -49 -133v-239h-37v443h29zM143 668l103 -91l102 91h39l-134 -135h-12l-138 135h40z" />
    <glyph glyph-name="napostrophe" unicode="&#x149;" horiz-adv-x="521" 
d="M104 443l6 -90l1 -1h2q27 50 71.5 75.5t96.5 25.5q78 0 121.5 -46t43.5 -131v-276h-38v269q0 72 -34.5 111t-94.5 39q-68 0 -118 -47q-49 -46 -49 -133v-239h-37v443h29zM17 482h-21l36 125q-21 5 -21 27q0 13 9 21.5t22 8.5q12 0 20.5 -8t8.5 -21q0 -39 -54 -153z" />
    <glyph glyph-name="Eng" unicode="&#x14a;" horiz-adv-x="704" 
d="M581 79v581h37v-703q0 -76 -34.5 -123t-104.5 -53l-17 31q65 2 93 38.5t28 107.5v60l-460 563h-1v-581h-37v669h10l484 -590h2z" />
    <glyph glyph-name="eng" unicode="&#x14b;" horiz-adv-x="522" 
d="M102 443l8 -90l1 -1h2q27 50 71.5 75.5t96.5 25.5q78 0 121.5 -46t43.5 -131v-319q0 -167 -139 -176l-17 31q64 2 91.5 38.5t27.5 107.5q0 86 -1 155v156q0 72 -34.5 111t-94.5 39q-68 0 -118 -47q-49 -46 -49 -133v-239h-37v443h27z" />
    <glyph glyph-name="Omacron" unicode="&#x14c;" horiz-adv-x="783" 
d="M392 670q144 0 239 -98q96 -98 96 -242t-96 -242q-94 -97 -239 -97q-152 0 -245 96q-92 98 -92 243q0 141 98 241q97 99 239 99zM392 635q-128 0 -213 -88q-84 -88 -84 -217q0 -132 82 -218q83 -87 215 -87q129 0 213 88q84 89 84 217t-84 216q-84 89 -213 89zM520 775
h-272v35h272v-35z" />
    <glyph glyph-name="omacron" unicode="&#x14d;" horiz-adv-x="556" 
d="M279 453q98 0 162 -67q65 -67 65 -164t-65 -165q-65 -66 -162 -66q-104 0 -167 65q-62 67 -62 166q0 96 66 164q67 67 163 67zM279 421q-82 0 -137 -58q-54 -59 -54 -141q0 -87 52 -143q52 -57 139 -57q84 0 136 58q53 59 53 142t-53 141q-52 58 -136 58zM406 561h-262
v33h262v-33z" />
    <glyph glyph-name="Obreve" unicode="&#x14e;" horiz-adv-x="783" 
d="M392 670q144 0 239 -98q96 -98 96 -242t-96 -242q-94 -97 -239 -97q-152 0 -245 96q-92 98 -92 243q0 141 98 241q97 99 239 99zM392 635q-128 0 -213 -88q-84 -88 -84 -217q0 -132 82 -218q83 -87 215 -87q129 0 213 88q84 89 84 217t-84 216q-84 89 -213 89zM484 850
h32q-3 -52 -37 -87t-91 -35q-55 0 -89 35.5t-36 86.5h31q2 -41 27 -67.5t66 -26.5q45 0 69 25.5t28 68.5z" />
    <glyph glyph-name="obreve" unicode="&#x14f;" horiz-adv-x="556" 
d="M279 453q98 0 162 -67q65 -67 65 -164t-65 -165q-65 -66 -162 -66q-104 0 -167 65q-62 67 -62 166q0 96 66 164q67 67 163 67zM279 421q-82 0 -137 -58q-54 -59 -54 -141q0 -87 52 -143q52 -57 139 -57q84 0 136 58q53 59 53 142t-53 141q-52 58 -136 58zM371 670h32
q-3 -54 -36.5 -91.5t-90.5 -37.5t-88 39q-32 40 -35 90h31q2 -42 26.5 -72t65.5 -30q82 0 95 102z" />
    <glyph glyph-name="Ohungarumlaut" unicode="&#x150;" horiz-adv-x="783" 
d="M392 670q144 0 239 -98q96 -98 96 -242t-96 -242q-94 -97 -239 -97q-152 0 -245 96q-92 98 -92 243q0 141 98 241q97 99 239 99zM392 635q-128 0 -213 -88q-84 -88 -84 -217q0 -132 82 -218q83 -87 215 -87q129 0 213 88q84 89 84 217t-84 216q-84 89 -213 89zM478 845
l-147 -112h-33l137 126zM602 845l-147 -112h-33l137 126z" />
    <glyph glyph-name="ohungarumlaut" unicode="&#x151;" horiz-adv-x="556" 
d="M279 453q98 0 162 -67q65 -67 65 -164t-65 -165q-65 -66 -162 -66q-104 0 -167 65q-62 67 -62 166q0 96 66 164q67 67 163 67zM279 421q-82 0 -137 -58q-54 -59 -54 -141q0 -87 52 -143q52 -57 139 -57q84 0 136 58q53 59 53 142t-53 141q-52 58 -136 58zM345 663
l-131 -129l-30 1l120 142zM448 663l-131 -129l-29 1l119 142z" />
    <glyph glyph-name="OE" unicode="&#x152;" horiz-adv-x="915" 
d="M504 35h381v-35h-410q-39 -9 -85 -9q-156 0 -246 93q-89 95 -89 248q0 147 94 244q95 98 241 98q50 0 98 -13h369v-35h-353v-257h328v-35h-328v-299zM390 25q36 0 76 9v595q-36 9 -76 9q-132 0 -214 -87q-82 -85 -82 -219q0 -136 80 -222q79 -85 216 -85z" />
    <glyph glyph-name="oe" unicode="&#x153;" horiz-adv-x="927" 
d="M881 231v-18h-378q1 -24 10 -45q12 -68 60.5 -106.5t120.5 -38.5q95 0 164 54v-39q-65 -47 -162 -47q-83 0 -139 38.5t-76 108.5q-22 -66 -78.5 -106.5t-128.5 -40.5q-104 0 -167 65q-62 67 -62 166q0 96 66 164q67 67 163 67q72 0 129 -40.5t79 -106.5q21 66 74.5 106.5
t122.5 40.5q95 0 148 -63q54 -63 54 -159zM274 421q-82 0 -137 -58q-54 -59 -54 -141q0 -87 52 -143q53 -57 139 -57q84 0 136 58q53 59 53 142t-53 141q-52 58 -136 58zM680 420q-72 0 -122 -50t-54 -126h341q-6 81 -49 128.5t-116 47.5z" />
    <glyph glyph-name="Racute" unicode="&#x154;" horiz-adv-x="574" 
d="M306 258l244 -258h-53l-253 274v9q115 1 179 53q63 52 63 123q0 76 -52 121q-52 46 -135 46h-176v-626h-39v660h220q95 0 157 -55q64 -54 64 -145q0 -76 -60 -135q-59 -58 -159 -67zM388 845l-147 -112l-33 2l137 124z" />
    <glyph glyph-name="racute" unicode="&#x155;" horiz-adv-x="312" 
d="M112 148v-148h-37v443h26l6 -123q1 -1 3 -1q18 69 60.5 101.5t100.5 32.5q23 0 35 -3v-37q-17 4 -43 4q-151 0 -151 -269zM242 663l-131 -129h-30l120 143z" />
    <glyph glyph-name="Rcommaaccent" unicode="&#x156;" horiz-adv-x="574" 
d="M306 258l244 -258h-53l-253 274v9q115 1 179 53q63 52 63 123q0 76 -52 121q-52 46 -135 46h-176v-626h-39v660h220q95 0 157 -55q64 -54 64 -145q0 -76 -60 -135q-59 -58 -159 -67zM257 -210h-21l36 125q-21 5 -21 27q0 13 9 21.5t22 8.5q12 0 20.5 -8t8.5 -21
q0 -39 -54 -153z" />
    <glyph glyph-name="rcommaaccent" unicode="&#x157;" horiz-adv-x="312" 
d="M112 148v-148h-37v443h26l6 -123q1 -1 3 -1q18 69 60.5 101.5t100.5 32.5q23 0 35 -3v-37q-17 4 -43 4q-151 0 -151 -269zM64 -225h-21l36 125q-21 4 -21 27q0 13 9 21.5t22 8.5q12 0 20.5 -8t8.5 -21q0 -39 -54 -153z" />
    <glyph glyph-name="Rcaron" unicode="&#x158;" horiz-adv-x="574" 
d="M306 258l244 -258h-53l-253 274v9q115 1 179 53q63 52 63 123q0 76 -52 121q-52 46 -135 46h-176v-626h-39v660h220q95 0 157 -55q64 -54 64 -145q0 -76 -60 -135q-59 -58 -159 -67zM174 848l103 -76l102 76h39l-134 -120h-12l-138 120h40z" />
    <glyph glyph-name="rcaron" unicode="&#x159;" horiz-adv-x="312" 
d="M112 148v-148h-37v443h26l6 -123q1 -1 3 -1q18 69 60.5 101.5t100.5 32.5q23 0 35 -3v-37q-17 4 -43 4q-151 0 -151 -269zM38 668l103 -91l102 91h39l-134 -135h-12l-138 135h40z" />
    <glyph glyph-name="Sacute" unicode="&#x15a;" horiz-adv-x="485" 
d="M35 50v42q87 -66 194 -66q82 0 132 35.5t50 104.5q0 42 -19.5 73.5t-51.5 51t-70 36t-76 32t-70 34t-51.5 48.5t-19.5 69q0 78 57 119q58 41 134 41q94 0 167 -43v-41q-71 49 -162 49q-70 0 -113.5 -31t-43.5 -92q0 -76 126 -125q43 -16 64.5 -24.5t59.5 -29t57.5 -40
t35 -51.5t15.5 -69q0 -91 -61 -137q-61 -45 -155 -45q-116 0 -199 59zM362 845l-147 -112l-33 2l137 124z" />
    <glyph glyph-name="sacute" unicode="&#x15b;" horiz-adv-x="369" 
d="M25 31v38q65 -47 147 -47q57 0 91 22.5t34 65.5q0 60 -89 95q-6 2 -24 9.5t-26 10.5t-24 10.5t-24 12.5t-21 13t-19 16t-13 18t-10 21t-3 24q0 54 40 83.5t101 29.5q69 0 129 -30v-37q-64 36 -125 36q-48 0 -77.5 -19.5t-29.5 -60.5q0 -48 89 -84q32 -12 46 -17.5
t41.5 -20t40 -27t24 -33t11.5 -44.5q0 -59 -44.5 -92t-114.5 -33q-88 0 -150 40zM292 663l-131 -129h-30l120 143z" />
    <glyph glyph-name="Scircumflex" unicode="&#x15c;" horiz-adv-x="485" 
d="M35 50v42q87 -66 194 -66q82 0 132 35.5t50 104.5q0 42 -19.5 73.5t-51.5 51t-70 36t-76 32t-70 34t-51.5 48.5t-19.5 69q0 78 57 119q58 41 134 41q94 0 167 -43v-41q-71 49 -162 49q-70 0 -113.5 -31t-43.5 -92q0 -76 126 -125q43 -16 64.5 -24.5t59.5 -29t57.5 -40
t35 -51.5t15.5 -69q0 -91 -61 -137q-61 -45 -155 -45q-116 0 -199 59zM390 729h-46l-96 79l-100 -79h-45l139 120h13z" />
    <glyph glyph-name="scircumflex" unicode="&#x15d;" horiz-adv-x="369" 
d="M25 31v38q65 -47 147 -47q57 0 91 22.5t34 65.5q0 60 -89 95q-6 2 -24 9.5t-26 10.5t-24 10.5t-24 12.5t-21 13t-19 16t-13 18t-10 21t-3 24q0 54 40 83.5t101 29.5q69 0 129 -30v-37q-64 36 -125 36q-48 0 -77.5 -19.5t-29.5 -60.5q0 -48 89 -84q32 -12 46 -17.5
t41.5 -20t40 -27t24 -33t11.5 -44.5q0 -59 -44.5 -92t-114.5 -33q-88 0 -150 40zM323 533h-44l-98 90l-100 -90h-42l138 135h12z" />
    <glyph glyph-name="Scedilla" unicode="&#x15e;" horiz-adv-x="485" 
d="M196 -89l-7 4l32 76q-109 5 -186 59v42q87 -66 194 -66q82 0 132 35.5t50 104.5q0 42 -19.5 73.5t-51.5 51t-70 36t-76 32t-70 34t-51.5 48.5t-19.5 69q0 78 57 119q58 41 134 41q94 0 167 -43v-41q-71 49 -162 49q-70 0 -113.5 -31t-43.5 -92q0 -76 126 -125
q43 -16 64.5 -24.5t59.5 -29t57.5 -40t35 -51.5t15.5 -69q0 -85 -56.5 -132.5t-149.5 -49.5l-22 -51q1 0 7.5 0.5t8.5 0.5q46 0 70.5 -20.5t24.5 -52.5q0 -36 -29.5 -59t-76.5 -23q-36 0 -77 15v29q38 -16 77 -16q33 0 52 14.5t19 36.5q0 24 -19.5 37.5t-48.5 13.5
q-16 0 -34 -5z" />
    <glyph glyph-name="scedilla" unicode="&#x15f;" horiz-adv-x="369" 
d="M144 -84l-7 4l30 71q-82 1 -142 40v38q65 -47 147 -47q57 0 91 22.5t34 65.5q0 60 -89 95q-6 2 -24 9.5t-26 10.5t-24 10.5t-24 12.5t-21 13t-19 16t-13 18t-10 21t-3 24q0 54 40 83.5t101 29.5q69 0 129 -30v-37q-64 36 -125 36q-48 0 -77.5 -19.5t-29.5 -60.5
q0 -48 89 -84q32 -12 46 -17.5t41.5 -20t40 -27t24 -33t11.5 -44.5q0 -55 -39.5 -87.5t-104.5 -36.5l-20 -47q1 0 7.5 0.5t8.5 0.5q46 0 70.5 -20.5t24.5 -52.5q0 -36 -29.5 -59t-76.5 -23q-37 0 -77 15v29q38 -16 77 -16q33 0 52 14.5t19 36.5q0 24 -19.5 37.5t-48.5 13.5
q-16 0 -34 -5z" />
    <glyph glyph-name="Scaron" unicode="&#x160;" horiz-adv-x="485" 
d="M35 50v42q87 -66 194 -66q82 0 132 35.5t50 104.5q0 42 -19.5 73.5t-51.5 51t-70 36t-76 32t-70 34t-51.5 48.5t-19.5 69q0 78 57 119q58 41 134 41q94 0 167 -43v-41q-71 49 -162 49q-70 0 -113.5 -31t-43.5 -92q0 -76 126 -125q43 -16 64.5 -24.5t59.5 -29t57.5 -40
t35 -51.5t15.5 -69q0 -91 -61 -137q-61 -45 -155 -45q-116 0 -199 59zM141 848l103 -76l102 76h39l-134 -120h-12l-138 120h40z" />
    <glyph glyph-name="scaron" unicode="&#x161;" horiz-adv-x="369" 
d="M25 31v38q65 -47 147 -47q57 0 91 22.5t34 65.5q0 60 -89 95q-6 2 -24 9.5t-26 10.5t-24 10.5t-24 12.5t-21 13t-19 16t-13 18t-10 21t-3 24q0 54 40 83.5t101 29.5q69 0 129 -30v-37q-64 36 -125 36q-48 0 -77.5 -19.5t-29.5 -60.5q0 -48 89 -84q32 -12 46 -17.5
t41.5 -20t40 -27t24 -33t11.5 -44.5q0 -59 -44.5 -92t-114.5 -33q-88 0 -150 40zM81 668l103 -91l102 91h39l-134 -135h-12l-138 135h40z" />
    <glyph glyph-name="Tcommaaccent" unicode="&#x162;" horiz-adv-x="530" 
d="M225 -84l-7 4l34 80h-6v626h-231v34h499v-34h-229v-626h-10l-24 -55q1 0 7.5 0.5t8.5 0.5q46 0 70.5 -20.5t24.5 -52.5q0 -36 -29.5 -59t-76.5 -23q-36 0 -77 15v29q38 -16 77 -16q33 0 52 14.5t19 36.5q0 24 -19.5 37.5t-48.5 13.5q-16 0 -34 -5z" />
    <glyph glyph-name="tcommaaccent" unicode="&#x163;" horiz-adv-x="331" 
d="M106 -68l-7 4l37 86q-30 31 -30 107v283h-81v25q60 6 81 6l21 133h17v-133h152v-31h-152v-283q0 -52 19 -77t65 -25q48 0 90 30v-35q-41 -29 -94 -29q-45 0 -71 16l-21 -48q1 0 7.5 0.5t8.5 0.5q46 0 70.5 -20.5t24.5 -52.5q0 -36 -29.5 -59t-76.5 -23q-37 0 -77 15v29
q38 -16 77 -16q33 0 52 14.5t19 36.5q0 24 -19.5 37.5t-48.5 13.5q-16 0 -34 -5z" />
    <glyph glyph-name="Tcaron" unicode="&#x164;" horiz-adv-x="530" 
d="M285 626v-626h-39v626h-231v34h499v-34h-229zM166 848l103 -76l102 76h39l-134 -120h-12l-138 120h40z" />
    <glyph glyph-name="tcaron" unicode="&#x165;" horiz-adv-x="331" 
d="M144 443h152v-31h-152v-283q0 -52 19 -77t65 -25q48 0 90 30v-35q-41 -29 -94 -29q-64 0 -91 33.5t-27 102.5v283h-81v25q60 6 81 6l21 133h17v-133zM260 524h-21l36 125q-21 5 -21 27q0 13 9 21.5t22 8.5q12 0 20.5 -8t8.5 -21q0 -39 -54 -153z" />
    <glyph glyph-name="Tbar" unicode="&#x166;" horiz-adv-x="530" 
d="M285 348v-348h-39v348h-172v33h172v245h-231v34h499v-34h-229v-245h170v-33h-170z" />
    <glyph glyph-name="tbar" unicode="&#x167;" horiz-adv-x="333" 
d="M144 443h152v-31h-152v-116h138v-30h-138v-137q0 -52 19 -77t65 -25q48 0 90 30v-35q-41 -29 -94 -29q-64 0 -91 33.5t-27 102.5v137h-76v30h76v116h-81v25q60 6 81 6l21 133h17v-133z" />
    <glyph glyph-name="Utilde" unicode="&#x168;" horiz-adv-x="671" 
d="M548 248v412h38v-416q0 -117 -65.5 -185t-185.5 -68q-122 0 -186 66.5t-64 187.5v415h37v-410q0 -105 54 -164.5t159 -59.5q106 0 159.5 58.5t53.5 163.5zM214 746l-20 21q27 62 78 62q22 0 65 -23q43 -22 58 -22q32 0 57 48l6.5 -6.5t8.5 -9t5 -5.5q-29 -59 -75 -59
q-24 0 -65 22t-59 22q-36 0 -59 -50z" />
    <glyph glyph-name="utilde" unicode="&#x169;" horiz-adv-x="509" 
d="M404 0l-6 90h-3q-26 -48 -67.5 -73.5t-91.5 -25.5q-78 0 -119.5 43.5t-41.5 127.5v281h37v-273q0 -146 124 -146q66 0 113 47t47 134v238h38v-443h-30zM140 547l-20 21q27 62 78 62q22 0 65 -23q43 -22 58 -22q31 0 57 48l6.5 -6.5t8.5 -9t5 -5.5q-29 -59 -75 -59
q-24 0 -65 22t-59 22q-36 0 -59 -50z" />
    <glyph glyph-name="Umacron" unicode="&#x16a;" horiz-adv-x="671" 
d="M548 248v412h38v-416q0 -117 -65.5 -185t-185.5 -68q-122 0 -186 66.5t-64 187.5v415h37v-410q0 -105 54 -164.5t159 -59.5q106 0 159.5 58.5t53.5 163.5zM471 770h-272v35h272v-35z" />
    <glyph glyph-name="umacron" unicode="&#x16b;" horiz-adv-x="509" 
d="M404 0l-6 90h-3q-26 -48 -67.5 -73.5t-91.5 -25.5q-78 0 -119.5 43.5t-41.5 127.5v281h37v-273q0 -146 124 -146q66 0 113 47t47 134v238h38v-443h-30zM384 561h-262v33h262v-33z" />
    <glyph glyph-name="Ubreve" unicode="&#x16c;" horiz-adv-x="671" 
d="M548 248v412h38v-416q0 -117 -65.5 -185t-185.5 -68q-122 0 -186 66.5t-64 187.5v415h37v-410q0 -105 54 -164.5t159 -59.5q106 0 159.5 58.5t53.5 163.5zM435 850h32q-3 -52 -37 -87t-91 -35q-55 0 -89 35.5t-36 86.5h31q2 -41 27 -67.5t66 -26.5q45 0 69 25.5t28 68.5z
" />
    <glyph glyph-name="ubreve" unicode="&#x16d;" horiz-adv-x="509" 
d="M404 0l-6 90h-3q-26 -48 -67.5 -73.5t-91.5 -25.5q-78 0 -119.5 43.5t-41.5 127.5v281h37v-273q0 -146 124 -146q66 0 113 47t47 134v238h38v-443h-30zM348 664h32q-3 -54 -36.5 -91.5t-90.5 -37.5t-88 39q-32 40 -35 90h31q2 -42 26.5 -72t65.5 -30q82 0 95 102z" />
    <glyph glyph-name="Uring" unicode="&#x16e;" horiz-adv-x="671" 
d="M340 855q-24 0 -39.5 -16.5t-15.5 -40.5t15.5 -40.5t39.5 -16.5q34 -2 48.5 27.5t0 59t-48.5 27.5zM340 878q35 0 57.5 -23t22.5 -57t-22.5 -57t-57.5 -23q-36 0 -57.5 22t-21.5 58q0 34 22.5 57t56.5 23zM548 248v412h38v-416q0 -117 -65.5 -185t-185.5 -68
q-122 0 -186 66.5t-64 187.5v415h37v-410q0 -105 54 -164.5t159 -59.5q106 0 159.5 58.5t53.5 163.5z" />
    <glyph glyph-name="uring" unicode="&#x16f;" horiz-adv-x="509" 
d="M404 0l-6 90h-3q-26 -48 -67.5 -73.5t-91.5 -25.5q-78 0 -119.5 43.5t-41.5 127.5v281h37v-273q0 -146 124 -146q66 0 113 47t47 134v238h38v-443h-30zM255 658q-24 0 -39.5 -16.5t-15.5 -40.5t15.5 -40.5t39.5 -16.5q34 -2 48.5 27.5t0 59t-48.5 27.5zM255 681
q35 0 57.5 -23t22.5 -57t-22.5 -57t-57.5 -23q-36 0 -57.5 22t-21.5 58q0 34 22.5 57t56.5 23z" />
    <glyph glyph-name="Uhungarumlaut" unicode="&#x170;" horiz-adv-x="671" 
d="M548 248v412h38v-416q0 -117 -65.5 -185t-185.5 -68q-122 0 -186 66.5t-64 187.5v415h37v-410q0 -105 54 -164.5t159 -59.5q106 0 159.5 58.5t53.5 163.5zM401 845l-147 -112h-33l137 126zM525 845l-147 -112h-33l137 126z" />
    <glyph glyph-name="uhungarumlaut" unicode="&#x171;" horiz-adv-x="509" 
d="M404 0l-6 90h-3q-26 -48 -67.5 -73.5t-91.5 -25.5q-78 0 -119.5 43.5t-41.5 127.5v281h37v-273q0 -146 124 -146q66 0 113 47t47 134v238h38v-443h-30zM321 663l-131 -129l-30 1l120 142zM424 663l-131 -129l-29 1l119 142z" />
    <glyph glyph-name="Uogonek" unicode="&#x172;" horiz-adv-x="671" 
d="M429 -158l-3 -31q-44 -27 -100 -27q-86 0 -86 73q0 30 21.5 66.5t65.5 67.5q-118 2 -180 69t-62 185v415h37v-410q0 -105 54 -164.5t159 -59.5q106 0 159.5 58.5t53.5 163.5v412h38v-416q0 -110 -58.5 -177t-165.5 -75q-41 -28 -64 -63t-23 -64q0 -53 59 -53q49 0 95 30z
" />
    <glyph glyph-name="uogonek" unicode="&#x173;" horiz-adv-x="509" 
d="M403 16l-5 74h-3q-26 -48 -67.5 -73.5t-91.5 -25.5q-78 0 -119.5 43.5t-41.5 127.5v281h37v-273q0 -146 124 -146q66 0 113 47t47 134v238h38v-443h-23q-43 -28 -67.5 -64.5t-24.5 -65.5q0 -53 59 -53q48 0 95 30l-3 -31q-44 -27 -100 -27q-86 0 -86 73q0 37 29.5 79
t89.5 75z" />
    <glyph glyph-name="Wcircumflex" unicode="&#x174;" horiz-adv-x="884" 
d="M634 92l202 567h38l-240 -660h-8l-184 566h-2l-184 -566h-9l-237 660h38l203 -567h3l183 568h9l184 -568h4zM586 729h-46l-96 79l-100 -79h-45l139 120h13z" />
    <glyph glyph-name="wcircumflex" unicode="&#x175;" horiz-adv-x="695" 
d="M188 -1l-173 444h38l144 -369l147 369h10l149 -369h2l141 369h37l-174 -444h-12l-148 368h-1l-148 -368h-12zM491 533h-44l-98 90l-100 -90h-42l138 135h12z" />
    <glyph glyph-name="Ycircumflex" unicode="&#x176;" horiz-adv-x="538" 
d="M294 283v-283h-38v283l-246 377h43l221 -340h3l209 340h41zM419 729h-46l-96 79l-100 -79h-45l139 120h13z" />
    <glyph glyph-name="ycircumflex" unicode="&#x177;" horiz-adv-x="423" 
d="M137 -215h-39l93 224l-181 434h41l158 -390l2 -1l164 391h38zM361 533h-44l-98 90l-100 -90h-42l138 135h12z" />
    <glyph glyph-name="Ydieresis" unicode="&#x178;" horiz-adv-x="538" 
d="M294 283v-283h-38v283l-246 377h43l221 -340h3l209 340h41zM196 800q26 0 26 -27t-26 -27q-12 0 -19.5 7.5t-7.5 19.5q0 11 8 19t19 8zM352 800q12 0 19.5 -7.5t7.5 -19.5q0 -27 -27 -27q-11 0 -19 7.5t-8 19.5q0 11 8 19t19 8z" />
    <glyph glyph-name="Zacute" unicode="&#x179;" horiz-adv-x="500" 
d="M81 34h399v-34h-460v6l394 620h-356v34h415v-8zM394 845l-147 -112l-33 2l137 124z" />
    <glyph glyph-name="zacute" unicode="&#x17a;" horiz-adv-x="398" 
d="M74 30h296v-30h-355v8l297 405h-266v30h324v-9zM321 663l-131 -129h-30l120 143z" />
    <glyph glyph-name="Zdotaccent" unicode="&#x17b;" horiz-adv-x="500" 
d="M81 34h399v-34h-460v6l394 620h-356v34h415v-8zM238 789q0 18 17.5 25.5t29.5 -5.5q13 -13 6 -30.5t-25 -17.5q-12 0 -20 8t-8 20z" />
    <glyph glyph-name="zdotaccent" unicode="&#x17c;" horiz-adv-x="398" 
d="M74 30h296v-30h-355v8l297 405h-266v30h324v-9zM179 586q0 18 17.5 25.5t29.5 -5.5q13 -14 6 -31t-25 -17q-12 0 -20 8t-8 20z" />
    <glyph glyph-name="Zcaron" unicode="&#x17d;" horiz-adv-x="500" 
d="M81 34h399v-34h-460v6l394 620h-356v34h415v-8zM165 848l103 -76l102 76h39l-134 -120h-12l-138 120h40z" />
    <glyph glyph-name="zcaron" unicode="&#x17e;" horiz-adv-x="398" 
d="M74 30h296v-30h-355v8l297 405h-266v30h324v-9zM104 668l103 -91l102 91h39l-134 -135h-12l-138 135h40z" />
    <glyph glyph-name="longs" unicode="&#x17f;" horiz-adv-x="218" 
d="M321 714v-33q-33 13 -76 13q-62 0 -87.5 -37t-25.5 -110v-547h-37v412h-90v24l90 8v100q0 181 153 181q37 0 73 -11z" />
    <glyph glyph-name="florin" unicode="&#x192;" horiz-adv-x="540" 
d="M231 128l27 228h-89v29h94l11 97q21 186 152 186q36 0 69 -11v-32q-33 11 -65 11q-54 0 -82 -37.5t-37 -117.5l-12 -96h115v-29h-118l-24 -196q-14 -136 -48.5 -193.5t-105.5 -57.5q-36 0 -75 14v36q41 -15 71 -15q55 0 79 42q24 38 38 142z" />
    <glyph glyph-name="AEacute" unicode="&#x1fc;" horiz-adv-x="931" 
d="M900 0h-418v165h-324l-132 -165h-46l529 660h364v-34h-352v-258h327v-34h-327v-299h379v-35zM482 572h-2l-296 -374h298v374zM719 845l-147 -112l-33 2l137 124z" />
    <glyph glyph-name="aeacute" unicode="&#x1fd;" horiz-adv-x="829" 
d="M758 79v-38q-59 -49 -165 -49q-75 0 -130 38.5t-74 103.5q-45 -143 -206 -143q-72 0 -112.5 35.5t-40.5 86.5q0 86 69 113q56 24 149 24h118v40q0 62 -34.5 96.5t-106.5 34.5t-145 -43q0 3 -0.5 17t-0.5 18q65 40 148 40q146 0 168 -121q24 55 75 88t114 33q94 0 147 -62
q52 -61 52 -160v-10h-378q2 -88 54 -143t132 -55q99 0 167 56zM585 420q-75 0 -125 -47t-54 -123h342q-3 78 -46.5 124t-116.5 46zM191 22q80 0 127.5 48.5t47.5 125.5v25h-115q-73 0 -124 -18q-59 -21 -59 -87q0 -44 34 -69t89 -25zM552 663l-131 -129h-30l120 143z" />
    <glyph glyph-name="Oslashacute" unicode="&#x1fe;" horiz-adv-x="783" 
d="M195 47l-36 -47h-38l28 35l23 29q-56 46 -86.5 115t-30.5 151q0 141 98 241q97 99 239 99q113 0 201 -65l43 55h37l-58 -73q112 -99 112 -257q0 -144 -96 -242q-94 -97 -239 -97q-112 0 -197 56zM392 635q-128 0 -213 -88q-84 -88 -84 -217q0 -148 101 -235l374 482
q-76 58 -178 58zM689 330q0 138 -96 228l-374 -482q75 -51 173 -51q129 0 213 88q84 89 84 217zM545 845l-147 -112l-33 2l137 124z" />
    <glyph glyph-name="oslashacute" unicode="&#x1ff;" horiz-adv-x="546" 
d="M135 32l-27 -32h-36l43 49q-70 64 -70 173q0 96 66 164q67 67 163 67q82 0 140 -48l32 38h36l-22 -26l-26 -30q67 -64 67 -165q0 -97 -65 -165q-64 -66 -162 -66q-83 0 -139 41zM274 421q-82 0 -137 -58q-54 -59 -54 -141q0 -89 55 -145l254 302q-53 42 -118 42zM463 222
q0 82 -53 138l-252 -302q46 -36 116 -36q84 0 136 58q53 59 53 142zM409 663l-131 -129h-30l120 143z" />
    <glyph glyph-name="Scommaaccent" unicode="&#x218;" horiz-adv-x="485" 
d="M35 50v42q87 -66 194 -66q82 0 132 35.5t50 104.5q0 42 -19.5 73.5t-51.5 51t-70 36t-76 32t-70 34t-51.5 48.5t-19.5 69q0 78 57 119q58 41 134 41q94 0 167 -43v-41q-71 49 -162 49q-70 0 -113.5 -31t-43.5 -92q0 -76 126 -125q43 -16 64.5 -24.5t59.5 -29t57.5 -40
t35 -51.5t15.5 -69q0 -91 -61 -137q-61 -45 -155 -45q-116 0 -199 59zM214 -226h-21l36 125q-21 5 -21 27q0 13 9 21.5t22 8.5q12 0 20.5 -8t8.5 -21q0 -39 -54 -153z" />
    <glyph glyph-name="scommaaccent" unicode="&#x219;" horiz-adv-x="369" 
d="M25 31v38q65 -47 147 -47q57 0 91 22.5t34 65.5q0 60 -89 95q-6 2 -24 9.5t-26 10.5t-24 10.5t-24 12.5t-21 13t-19 16t-13 18t-10 21t-3 24q0 54 40 83.5t101 29.5q69 0 129 -30v-37q-64 36 -125 36q-48 0 -77.5 -19.5t-29.5 -60.5q0 -48 89 -84q32 -12 46 -17.5
t41.5 -20t40 -27t24 -33t11.5 -44.5q0 -59 -44.5 -92t-114.5 -33q-88 0 -150 40zM157 -226h-21l36 125q-21 5 -21 27q0 13 9 21.5t22 8.5q12 0 20.5 -8t8.5 -21q0 -39 -54 -153z" />
    <glyph glyph-name="uni021A" unicode="&#x21a;" horiz-adv-x="530" 
d="M237 -226h-21l36 125q-21 5 -21 27q0 13 9 21.5t22 8.5q12 0 20.5 -8t8.5 -21q0 -39 -54 -153zM285 626v-626h-39v626h-231v34h499v-34h-229z" />
    <glyph glyph-name="uni021B" unicode="&#x21b;" horiz-adv-x="331" 
d="M144 443h152v-31h-152v-283q0 -52 19 -77t65 -25q48 0 90 30v-35q-41 -29 -94 -29q-64 0 -91 33.5t-27 102.5v283h-81v25q60 6 81 6l21 133h17v-133zM116 -226h-21l36 125q-21 5 -21 27q0 13 9 21.5t22 8.5q12 0 20.5 -8t8.5 -21q0 -39 -54 -153z" />
    <glyph glyph-name="schwa" unicode="&#x259;" horiz-adv-x="525" 
d="M55 212v18h377q0 86 -49 138t-134 52q-93 0 -167 -53v37q68 49 168 49q105 0 163 -62t58 -171q0 -96 -62 -163q-61 -66 -153 -66q-94 0 -148 63q-53 64 -53 158zM256 24q72 0 122 48q50 50 54 127h-342q13 -87 52 -131t114 -44z" />
    <glyph glyph-name="primemod" unicode="&#x2b9;" horiz-adv-x="196" 
d="M179 623l-124 -241h-28l113 254z" />
    <glyph glyph-name="circumflex" unicode="&#x2c6;" horiz-adv-x="468" 
d="M367 533h-44l-98 90l-100 -90h-42l138 135h12z" />
    <glyph glyph-name="caron" unicode="&#x2c7;" horiz-adv-x="469" 
d="M123 668l103 -91l102 91h39l-134 -135h-12l-138 135h40z" />
    <glyph glyph-name="breve" unicode="&#x2d8;" horiz-adv-x="464" 
d="M318 670h32q-3 -54 -36.5 -91.5t-90.5 -37.5t-88 39q-32 40 -35 90h31q2 -42 26.5 -72t65.5 -30q82 0 95 102z" />
    <glyph glyph-name="dotaccent" unicode="&#x2d9;" horiz-adv-x="406" 
d="M217 586q0 18 17.5 25.5t29.5 -5.5q13 -14 6 -31t-25 -17q-12 0 -20 8t-8 20z" />
    <glyph glyph-name="ring" unicode="&#x2da;" horiz-adv-x="454" 
d="M228 668q-24 0 -39.5 -16.5t-15.5 -40.5t15.5 -40.5t39.5 -16.5q34 -2 48.5 27.5t0 59t-48.5 27.5zM228 691q35 0 57.5 -23t22.5 -57t-22.5 -57t-57.5 -23q-36 0 -57.5 22t-21.5 58q0 34 22.5 57t56.5 23z" />
    <glyph glyph-name="ogonek" unicode="&#x2db;" horiz-adv-x="515" 
d="M397 -144l-3 -31q-44 -27 -100 -27q-86 0 -86 73q0 38 32.5 82.5t98.5 77.5q5 -13 7 -15q-48 -29 -75.5 -67t-27.5 -70q0 -53 59 -53q48 0 95 30z" />
    <glyph glyph-name="tilde" unicode="&#x2dc;" horiz-adv-x="459" 
d="M109 547l-20 21q27 62 78 62q22 0 65 -23q43 -22 58 -22q32 0 57 48l6.5 -6.5t8.5 -9t5 -5.5q-29 -59 -75 -59q-24 0 -65 22t-59 22q-36 0 -59 -50z" />
    <glyph glyph-name="hungarumlaut" unicode="&#x2dd;" horiz-adv-x="465" 
d="M292 663l-131 -129l-30 1l120 142zM395 663l-131 -129l-29 1l119 142z" />
    <glyph glyph-name="tonos" unicode="&#x384;" horiz-adv-x="455" 
d="M345 667l-123 -138h-31l112 151z" />
    <glyph glyph-name="dieresistonos" unicode="&#x385;" horiz-adv-x="436" 
d="M140 610q12 0 19 -7.5t7 -18.5q0 -17 -13 -24.5t-26.5 -0.5t-13.5 24q0 11 8 19t19 8zM316 610q27 0 27 -26q0 -12 -7.5 -20t-19.5 -8q-11 0 -19 7.5t-8 19.5q0 11 8 19t19 8zM319 667l-123 -138h-31l112 151z" />
    <glyph glyph-name="Alphatonos" unicode="&#x386;" horiz-adv-x="599" 
d="M583 0h-40l-69 165h-352l-69 -165h-38l279 663h10zM460 198l-163 390l-161 -390h324zM157 664l-123 -138h-31l112 151z" />
    <glyph glyph-name="anoteleia" unicode="&#x387;" horiz-adv-x="166" 
d="M59 325q-9 10 -9 24t9 23q9 10 23 10t23 -10q10 -9 10 -23t-10 -24q-9 -9 -23 -9t-23 9z" />
    <glyph glyph-name="Epsilontonos" unicode="&#x388;" horiz-adv-x="548" 
d="M490 660v-34h-367v-258h342v-34h-342v-299h394v-35h-432v660h405zM23 665l-123 -138h-31l112 151z" />
    <glyph glyph-name="Etatonos" unicode="&#x389;" horiz-adv-x="655" 
d="M570 661v-661h-38v334h-409v-334h-38v661h38v-292h409v292h38zM21 664l-123 -138h-31l112 151z" />
    <glyph glyph-name="Iotatonos" unicode="&#x38a;" horiz-adv-x="228" 
d="M133 661v-661h-38v661h38zM35 664l-123 -138h-31l112 151z" />
    <glyph glyph-name="Omicrontonos" unicode="&#x38c;" horiz-adv-x="783" 
d="M392 670q144 0 239 -98q96 -98 96 -242t-96 -242q-94 -97 -239 -97q-152 0 -245 96q-92 98 -92 243q0 141 98 241q97 99 239 99zM392 635q-128 0 -213 -88q-84 -88 -84 -217q0 -132 82 -218q83 -87 215 -87q129 0 213 88q84 89 84 217t-84 216q-84 89 -213 89zM65 664
l-123 -138h-31l112 151z" />
    <glyph glyph-name="Upsilontonos" unicode="&#x38e;" horiz-adv-x="538" 
d="M294 283v-283h-38v283l-246 377h43l221 -340h3l209 340h41zM-14 665l-123 -138h-31l112 151z" />
    <glyph glyph-name="Omegatonos" unicode="&#x38f;" horiz-adv-x="790" 
d="M596 34h144v-34h-234v9q93 38 143 128q51 90 51 189q0 128 -84 220t-219 92q-133 0 -220 -90t-87 -222q0 -98 50 -189q51 -90 143 -128v-9h-233v34h141v3q-66 45 -103 120t-37 163q0 150 99 251q99 102 247 102q146 0 244 -101q97 -100 97 -247q0 -87 -37.5 -163.5
t-104.5 -124.5v-3zM64 663l-123 -138h-31l112 151z" />
    <glyph glyph-name="iotadieresistonos" unicode="&#x390;" horiz-adv-x="198" 
d="M12 610q12 0 19 -7.5t7 -18.5q0 -17 -13 -24.5t-26.5 -0.5t-13.5 24q0 11 8 19t19 8zM188 610q27 0 27 -26q0 -12 -7.5 -20t-19.5 -8q-11 0 -19 7.5t-8 19.5q0 11 8 19t19 8zM191 667l-123 -138h-31l112 151zM118 444v-444h-38v444h38z" />
    <glyph glyph-name="Alpha" unicode="&#x391;" horiz-adv-x="599" 
d="M583 0h-40l-69 165h-352l-69 -165h-38l279 663h10zM460 198l-163 390l-161 -390h324z" />
    <glyph glyph-name="Beta" unicode="&#x392;" horiz-adv-x="598" 
d="M336 0h-251v660h225q89 0 141 -42t52 -117q0 -47 -26.5 -87t-73.5 -57q70 -17 105 -64t35 -106q0 -88 -58 -137q-59 -50 -149 -50zM328 337h-205v-302h208q85 0 129.5 42.5t44.5 111.5q0 61 -47 105q-46 43 -130 43zM315 626h-192v-255h198q63 0 103 36q42 36 42 91
q0 58 -40.5 93t-110.5 35z" />
    <glyph glyph-name="Gamma" unicode="&#x393;" horiz-adv-x="511" 
d="M123 626v-626h-38v660h410v-34h-372z" />
    <glyph glyph-name="increment" unicode="&#x394;" horiz-adv-x="624" 
d="M319 664l290 -664h-592l289 664h13zM71 33h482l-242 557z" />
    <glyph glyph-name="increment" unicode="&#x2206;" horiz-adv-x="624" 
d="M319 664l290 -664h-592l289 664h13zM71 33h482l-242 557z" />
    <glyph glyph-name="Epsilon" unicode="&#x395;" horiz-adv-x="548" 
d="M490 660v-34h-367v-258h342v-34h-342v-299h394v-35h-432v660h405z" />
    <glyph glyph-name="Zeta" unicode="&#x396;" horiz-adv-x="500" 
d="M81 34h399v-34h-460v6l394 620h-356v34h415v-8z" />
    <glyph glyph-name="Eta" unicode="&#x397;" horiz-adv-x="655" 
d="M570 661v-661h-38v334h-409v-334h-38v661h38v-292h409v292h38z" />
    <glyph glyph-name="Theta" unicode="&#x398;" horiz-adv-x="793" 
d="M219 364h354v-35h-354v35zM398 -10q-154 0 -249 96q-94 97 -94 245q0 144 99 243t244 99q150 0 245 -98q96 -98 96 -244t-97 -243q-98 -98 -244 -98zM398 23q132 0 218 89q85 88 85 219q0 130 -85 218q-84 89 -218 89q-131 0 -218 -89q-86 -89 -86 -218q0 -132 83 -221
q84 -87 221 -87z" />
    <glyph glyph-name="Iota" unicode="&#x399;" horiz-adv-x="228" 
d="M133 661v-661h-38v661h38z" />
    <glyph glyph-name="Kappa" unicode="&#x39a;" horiz-adv-x="555" 
d="M123 347l345 313h48l-346 -316l375 -344h-54l-368 339v-339h-38v660h38v-313z" />
    <glyph glyph-name="Lambda" unicode="&#x39b;" horiz-adv-x="599" 
d="M583 0h-40l-244 587h-2l-244 -587h-38l277 662h15z" />
    <glyph glyph-name="Mu" unicode="&#x39c;" horiz-adv-x="800" 
d="M715 662v-662h-37v282q1 126 1 284q-1 0 -2 1l-272 -391h-10l-273 386q0 -1 -1 -2v-560h-36v662h10l306 -435l303 435h11z" />
    <glyph glyph-name="Nu" unicode="&#x39d;" horiz-adv-x="704" 
d="M581 84v576h37v-662h-10l-486 581v-579h-37v664h10l484 -580h2z" />
    <glyph glyph-name="Xi" unicode="&#x39e;" horiz-adv-x="572" 
d="M35 0v37h501v-37h-501zM524 660v-35h-477v35h477zM93 371h388v-36h-388v36z" />
    <glyph glyph-name="Omicron" unicode="&#x39f;" horiz-adv-x="783" 
d="M392 670q144 0 239 -98q96 -98 96 -242t-96 -242q-94 -97 -239 -97q-152 0 -245 96q-92 98 -92 243q0 141 98 241q97 99 239 99zM392 635q-128 0 -213 -88q-84 -88 -84 -217q0 -132 82 -218q83 -87 215 -87q129 0 213 88q84 89 84 217t-84 216q-84 89 -213 89z" />
    <glyph glyph-name="Pi" unicode="&#x3a0;" horiz-adv-x="668" 
d="M583 661v-661h-39v626h-421v-626h-38v661h498z" />
    <glyph glyph-name="Rho" unicode="&#x3a1;" horiz-adv-x="553" 
d="M123 237v-237h-39v660h209q108 0 168 -62q61 -61 61 -148q0 -99 -67 -156t-162 -57h-170zM280 628h-157v-359h165q88 0 141 51q52 51 52 130q0 74 -52 126q-51 52 -149 52z" />
    <glyph glyph-name="Sigma" unicode="&#x3a3;" horiz-adv-x="538" 
d="M84 34h438v-34h-497v7l215 345l-206 299v9h467v-34h-404l187 -272z" />
    <glyph glyph-name="Tau" unicode="&#x3a4;" horiz-adv-x="530" 
d="M285 626v-626h-39v626h-231v34h499v-34h-229z" />
    <glyph glyph-name="Upsilon" unicode="&#x3a5;" horiz-adv-x="538" 
d="M294 283v-283h-38v283l-246 377h43l221 -340h3l209 340h41z" />
    <glyph glyph-name="Phi" unicode="&#x3a6;" horiz-adv-x="825" 
d="M393 660h38v-46q149 -2 243 -81q95 -78 95 -194q0 -117 -91 -193q-92 -77 -247 -84v-62h-38v62q-152 4 -246 80q-92 75 -92 197q0 116 96 194t242 81v46zM94 339q0 -107 78.5 -171t220.5 -71v483q-135 -5 -217 -72t-82 -169zM732 340q0 101 -83 169q-82 67 -218 72v-484
q136 0 219 71q82 70 82 172z" />
    <glyph glyph-name="Chi" unicode="&#x3a7;" horiz-adv-x="585" 
d="M575 0h-44l-238 332l-241 -332h-42l245 341l-226 319h42l222 -310l222 310h42l-228 -318z" />
    <glyph glyph-name="Psi" unicode="&#x3a8;" horiz-adv-x="740" 
d="M626 509v151h38v-198q0 -113 -74 -187q-72 -72 -203 -77v-198h-38v198q-128 3 -201 76t-73 189v197h37v-150q0 -113 49 -187q56 -83 188 -89v426h38v-426q239 8 239 275z" />
    <glyph glyph-name="Omega" unicode="&#x3a9;" horiz-adv-x="790" 
d="M596 34h144v-34h-234v9q93 38 143 128q51 90 51 189q0 128 -84 220t-219 92q-133 0 -220 -90t-87 -222q0 -98 50 -189q51 -90 143 -128v-9h-233v34h141v3q-66 45 -103 120t-37 163q0 150 99 251q99 102 247 102q146 0 244 -101q97 -100 97 -247q0 -87 -37.5 -163.5
t-104.5 -124.5v-3z" />
    <glyph glyph-name="Iotadieresis" unicode="&#x3aa;" horiz-adv-x="228" 
d="M36 813q26 0 26 -27t-26 -27q-12 0 -19.5 7.5t-7.5 19.5q0 11 8 19t19 8zM192 813q12 0 19.5 -7.5t7.5 -19.5q0 -27 -27 -27q-11 0 -19 7.5t-8 19.5q0 11 8 19t19 8zM133 661v-661h-38v661h38z" />
    <glyph glyph-name="Upsilondieresis" unicode="&#x3ab;" horiz-adv-x="538" 
d="M294 283v-283h-38v283l-246 377h43l221 -340h3l209 340h41zM197 795q26 0 26 -27t-26 -27q-12 0 -19.5 7.5t-7.5 19.5q0 11 8 19t19 8zM353 795q12 0 19.5 -7.5t7.5 -19.5q0 -27 -27 -27q-11 0 -19 7.5t-8 19.5q0 11 8 19t19 8z" />
    <glyph glyph-name="alphatonos" unicode="&#x3ac;" horiz-adv-x="573" 
d="M468 0l-7 103h-3q-25 -52 -73.5 -82t-109.5 -30q-103 0 -164 64t-61 166q0 98 64 163q64 67 162 67q61 0 110.5 -29.5t71.5 -79.5h1l9 101h29v-443h-29zM276 22q84 0 135 57q52 56 52 142t-52 141q-53 56 -134 56q-85 0 -137 -57q-52 -55 -52 -140t50 -143
q51 -56 138 -56zM400 667l-123 -138h-31l112 151z" />
    <glyph glyph-name="epsilontonos" unicode="&#x3ad;" horiz-adv-x="409" 
d="M379 67v-38q-62 -38 -148 -38q-87 0 -136.5 35t-49.5 96q0 35 22 67t62 47q-71 23 -71 91q0 55 47.5 90.5t123.5 35.5q70 0 130 -29v-37q-59 34 -132 34q-58 0 -94.5 -26t-36.5 -68q0 -34 25 -53.5t63 -19.5h89v-32h-67q-59 0 -91.5 -25t-32.5 -70q0 -49 39.5 -77
t110.5 -28q82 0 147 45zM326 667l-123 -138h-31l112 151z" />
    <glyph glyph-name="etatonos" unicode="&#x3ae;" horiz-adv-x="521" 
d="M104 443l6 -90l1 -1h2q27 50 71.5 75.5t96.5 25.5q78 0 121.5 -46t43.5 -131v-276h-38v269q0 72 -34.5 111t-94.5 39q-68 0 -118 -47q-49 -46 -49 -133v-239h-37v443h29zM349 667l-123 -138h-31l112 151z" />
    <glyph glyph-name="iotatonos" unicode="&#x3af;" horiz-adv-x="198" 
d="M118 444v-444h-38v444h38zM217 667l-123 -138h-31l112 151z" />
    <glyph glyph-name="upsilondieresistonos" unicode="&#x3b0;" horiz-adv-x="516" 
d="M171 610q12 0 19 -7.5t7 -18.5q0 -17 -13.5 -24.5t-26.5 -0.5t-13 24q0 11 8 19t19 8zM347 610q27 0 27 -26q0 -12 -7.5 -20t-19.5 -8q-11 0 -19 7.5t-8 19.5q0 11 8 19t19 8zM350 667l-123 -138h-31l112 151zM408 191v252h37v-252q0 -102 -55 -151q-53 -49 -135 -49
q-87 0 -136 48.5t-49 138.5v265h36v-264q0 -73 39 -114.5t110 -41.5q67 0 110 42.5t43 125.5z" />
    <glyph glyph-name="alpha" unicode="&#x3b1;" horiz-adv-x="573" 
d="M468 0l-7 103h-3q-25 -52 -73.5 -82t-109.5 -30q-103 0 -164 64t-61 166q0 98 64 163q64 67 162 67q61 0 110.5 -29.5t71.5 -79.5h1l9 101h29v-443h-29zM276 22q84 0 135 57q52 56 52 142t-52 141q-53 56 -134 56q-85 0 -137 -57q-52 -55 -52 -140t50 -143
q51 -56 138 -56z" />
    <glyph glyph-name="beta" unicode="&#x3b2;" horiz-adv-x="553" 
d="M106 95l-4 -1v-298h-37v711q0 94 53 156t147 62q84 0 136 -48.5t52 -124.5q0 -96 -86 -135l1 -2q60 -15 99 -72q40 -55 40 -126q0 -92 -62 -160q-61 -66 -159 -66q-65 0 -112 27.5t-68 76.5zM102 507v-292q0 -82 49 -137t133 -55q80 0 133 54q52 53 52 142q0 74 -49 126
q-48 53 -125 53h-69v32h68q65 0 92 38q28 37 28 85q0 63 -41 101.5t-107 38.5q-46 0 -79.5 -17t-51 -46t-25.5 -59.5t-8 -63.5z" />
    <glyph glyph-name="gamma" unicode="&#x3b3;" horiz-adv-x="417" 
d="M209 76l159 368h39l-181 -415q0 -186 1 -239h-38v237l-181 417h41l157 -368h3z" />
    <glyph glyph-name="delta" unicode="&#x3b4;" horiz-adv-x="549" 
d="M464 222q0 157 -183 213q-93 -9 -146 -74q-51 -65 -51 -139q0 -87 52 -143q52 -57 139 -57q84 0 136 58q53 59 53 142zM288 725q86 0 149 -36v-38q-70 43 -143 43q-65 0 -103 -28t-38 -74q0 -36 26 -62t64.5 -40.5t84 -36t84 -46t64.5 -72.5t26 -113q0 -97 -65 -165
q-65 -66 -162 -66q-104 0 -167 65q-62 67 -62 166q0 75 50 145q50 69 140 86q-61 26 -90.5 57.5t-29.5 79.5q0 55 46 95t126 40z" />
    <glyph glyph-name="epsilon" unicode="&#x3b5;" horiz-adv-x="409" 
d="M379 67v-38q-62 -38 -148 -38q-87 0 -136.5 35t-49.5 96q0 35 22 67t62 47q-71 23 -71 91q0 55 47.5 90.5t123.5 35.5q70 0 130 -29v-37q-59 34 -132 34q-58 0 -94.5 -26t-36.5 -68q0 -34 25 -53.5t63 -19.5h89v-32h-67q-59 0 -91.5 -25t-32.5 -70q0 -49 39.5 -77
t110.5 -28q82 0 147 45z" />
    <glyph glyph-name="zeta" unicode="&#x3b6;" horiz-adv-x="383" 
d="M44 208q0 83 96 214q99 135 238 254q-1 1 -1 3h-309v31h384v-9q-163 -142 -266 -274q-105 -134 -105 -217q0 -65 59 -100q45 -26 144 -61q24 -7 30 -10q53 -19 75.5 -36t22.5 -40q0 -21 -27 -59q-25 -38 -59 -69l-29 11q73 82 73 116q0 15 -26 27q-4 2 -26 10
q-6 3 -39 13q-38 12 -43 14q-102 35 -147 75t-45 107z" />
    <glyph glyph-name="eta" unicode="&#x3b7;" horiz-adv-x="521" 
d="M104 443l6 -90l1 -1h2q27 50 71.5 75.5t96.5 25.5q78 0 121.5 -46t43.5 -131v-276h-38v269q0 72 -34.5 111t-94.5 39q-68 0 -118 -47q-49 -46 -49 -133v-239h-37v443h29z" />
    <glyph glyph-name="theta" unicode="&#x3b8;" horiz-adv-x="548" 
d="M498 353q0 -170 -59 -266.5t-169 -96.5q-109 0 -164.5 95t-55.5 269q0 167 56 268t166 101q109 0 168 -101q58 -100 58 -269zM461 350l-373 1q0 -155 47 -242t135 -87q96 0 142 88q48 90 49 240zM272 690q-84 0 -132 -84q-48 -86 -52 -223h371q-3 140 -52 223
q-49 84 -135 84z" />
    <glyph glyph-name="iota" unicode="&#x3b9;" horiz-adv-x="198" 
d="M118 444v-444h-38v444h38z" />
    <glyph glyph-name="kappa" unicode="&#x3ba;" horiz-adv-x="446" 
d="M107 228v-228h-36v443h36v-205l261 205h51l-266 -209l288 -234h-56z" />
    <glyph glyph-name="lambda" unicode="&#x3bb;" horiz-adv-x="434" 
d="M424 0h-40l-159 393h-3l-172 -393h-40l195 441l-111 276h38z" />
    <glyph glyph-name="nu" unicode="&#x3bd;" horiz-adv-x="437" 
d="M211 -1l-196 444h41l161 -373h3l162 374h40l-199 -445h-12z" />
    <glyph glyph-name="xi" unicode="&#x3be;" horiz-adv-x="410" 
d="M91 223q0 -51 41 -92q16 -15 49 -32q52 -25 129 -51q63 -21 89 -39.5t26 -43.5q0 -36 -75 -124q-4 2 -16 5.5t-16 4.5q63 79 63 109q0 17 -19.5 28.5t-75.5 29.5q-122 38 -177.5 84t-55.5 119q0 59 34 111t95 72v3q-56 15 -86 54.5t-30 92.5q0 70 49 120q50 51 146 51
q79 0 146 -38v-39q-71 45 -144 45q-77 0 -117 -42q-40 -40 -40 -97q0 -68 46.5 -100t126.5 -32h81v-32h-87q-83 0 -132.5 -46t-49.5 -121z" />
    <glyph glyph-name="omicron" unicode="&#x3bf;" horiz-adv-x="556" 
d="M279 453q98 0 162 -67q65 -67 65 -164t-65 -165q-65 -66 -162 -66q-104 0 -167 65q-62 67 -62 166q0 96 66 164q67 67 163 67zM279 421q-82 0 -137 -58q-54 -59 -54 -141q0 -87 52 -143q52 -57 139 -57q84 0 136 58q53 59 53 142t-53 141q-52 58 -136 58z" />
    <glyph glyph-name="pi" unicode="&#x3c0;" horiz-adv-x="522" 
d="M447 444v-444h-39v409h-295v-409h-38v444h372z" />
    <glyph glyph-name="rho" unicode="&#x3c1;" horiz-adv-x="572" 
d="M107 95l-4 -2v-303h-38v425q0 97 60 167q62 71 168 71q100 0 164 -67t64 -165t-63 -164q-62 -65 -161 -65q-134 0 -190 103zM295 24q84 0 136 55q53 56 53 142q0 83 -52 141q-53 59 -138 59q-86 0 -138 -58q-53 -59 -53 -144q0 -84 52 -139q53 -56 140 -56z" />
    <glyph glyph-name="sigma1" unicode="&#x3c2;" 
d="M300 -139l-31 9q58 64 58 88q0 14 -23 25l-22 11l-65 25q-91 37 -131.5 84.5t-40.5 123.5q0 102 62 164q63 63 161 63q60 0 106 -20v-36q-47 24 -103 24q-84 0 -136 -52q-53 -51 -53 -142q0 -64 37 -105t120 -74q95 -37 111 -51q20 -14 20 -32q0 -39 -70 -105z" />
    <glyph glyph-name="sigma" unicode="&#x3c3;" horiz-adv-x="553" 
d="M277 443h255v-31h-141q0 -2 -1 -3q58 -22 85 -78q28 -55 28 -115q0 -96 -65 -161t-162 -65q-104 0 -165 64t-61 163q0 97 66 161q67 65 161 65zM466 216q0 79 -46 137t-143 58q-82 0 -136 -55q-54 -56 -54 -139q0 -86 50 -142q51 -55 139 -55q84 0 137 56q53 58 53 140z
" />
    <glyph glyph-name="tau" unicode="&#x3c4;" horiz-adv-x="376" 
d="M15 443h330v-30h-167v-284q0 -51 18 -76q18 -26 66 -26t89 30v-35q-38 -29 -93 -29q-66 0 -92 33.5t-26 102.5v284h-125v30z" />
    <glyph glyph-name="upsilon" unicode="&#x3c5;" horiz-adv-x="516" 
d="M408 191v252h37v-252q0 -102 -55 -151q-53 -49 -135 -49q-87 0 -136 48.5t-49 138.5v265h36v-264q0 -73 39 -114.5t110 -41.5q67 0 110 42.5t43 125.5z" />
    <glyph glyph-name="phi" unicode="&#x3c6;" horiz-adv-x="668" 
d="M350 -9v-203h-36v203q-121 2 -192 67q-72 66 -72 164q0 83 50.5 144t134.5 81l18 -29q-77 -17 -122 -70.5t-45 -125.5q0 -84 62 -143q62 -56 166 -58v432h41q116 0 190 -62q73 -61 73 -166q0 -97 -75 -164q-74 -65 -193 -70zM350 422v-401q104 5 167 60q64 57 64 141
q0 89 -64 141q-64 55 -167 59z" />
    <glyph glyph-name="chi" unicode="&#x3c7;" horiz-adv-x="434" 
d="M424 0h-43l-164 220l-166 -220h-41l171 228l-161 216h41l156 -208l156 208h42l-163 -215z" />
    <glyph glyph-name="psi" unicode="&#x3c8;" horiz-adv-x="624" 
d="M516 216v227h37v-231q0 -94 -58 -156q-58 -63 -166 -67v-201h-36v201q-107 1 -166 63q-57 63 -57 158v233h36v-231q0 -77 47 -133q48 -55 140 -57v421h36v-421q90 2 138.5 55t48.5 139z" />
    <glyph glyph-name="omega" unicode="&#x3c9;" horiz-adv-x="744" 
d="M351 145v159h39v-162q0 -50 33.5 -84.5t83.5 -34.5q68 0 108.5 53.5t40.5 141.5q0 81 -44 140t-119 63l11 32q93 -8 140 -74q49 -67 49 -160q0 -96 -50 -163q-50 -65 -137 -65q-47 0 -84 23.5t-50 62.5h-3q-18 -38 -55.5 -62t-84.5 -24q-84 0 -131.5 59.5t-47.5 164.5
q0 95 49 162q50 69 140 76l12 -32q-77 -6 -120 -64q-43 -56 -43 -139q0 -90 38.5 -142.5t106.5 -52.5q52 0 85 35.5t33 86.5z" />
    <glyph glyph-name="iotadieresis" unicode="&#x3ca;" horiz-adv-x="198" 
d="M22 610q12 0 19 -7.5t7 -18.5q0 -17 -13 -24.5t-26.5 -0.5t-13.5 24q0 11 8 19t19 8zM178 610q27 0 27 -26q0 -12 -7.5 -20t-19.5 -8q-11 0 -19 7.5t-8 19.5q0 11 8 19t19 8zM118 444v-444h-38v444h38z" />
    <glyph glyph-name="upsilondieresis" unicode="&#x3cb;" horiz-adv-x="516" 
d="M181 610q12 0 19 -7.5t7 -18.5q0 -17 -13.5 -24.5t-26.5 -0.5t-13 24q0 11 8 19t19 8zM337 610q27 0 27 -26q0 -12 -7.5 -20t-19.5 -8q-11 0 -19 7.5t-8 19.5q0 11 8 19t19 8zM408 191v252h37v-252q0 -102 -55 -151q-53 -49 -135 -49q-87 0 -136 48.5t-49 138.5v265h36
v-264q0 -73 39 -114.5t110 -41.5q67 0 110 42.5t43 125.5z" />
    <glyph glyph-name="omicrontonos" unicode="&#x3cc;" horiz-adv-x="556" 
d="M279 453q98 0 162 -67q65 -67 65 -164t-65 -165q-65 -66 -162 -66q-104 0 -167 65q-62 67 -62 166q0 96 66 164q67 67 163 67zM279 421q-82 0 -137 -58q-54 -59 -54 -141q0 -87 52 -143q52 -57 139 -57q84 0 136 58q53 59 53 142t-53 141q-52 58 -136 58zM404 667
l-123 -138h-31l112 151z" />
    <glyph glyph-name="upsilontonos" unicode="&#x3cd;" horiz-adv-x="516" 
d="M408 191v252h37v-252q0 -102 -55 -151q-53 -49 -135 -49q-87 0 -136 48.5t-49 138.5v265h36v-264q0 -73 39 -114.5t110 -41.5q67 0 110 42.5t43 125.5zM372 667l-123 -138h-31l112 151z" />
    <glyph glyph-name="omegatonos" unicode="&#x3ce;" horiz-adv-x="744" 
d="M351 145v159h39v-162q0 -50 33.5 -84.5t83.5 -34.5q68 0 108.5 53.5t40.5 141.5q0 81 -44 140t-119 63l11 32q93 -8 140 -74q49 -67 49 -160q0 -96 -50 -163q-50 -65 -137 -65q-47 0 -84 23.5t-50 62.5h-3q-18 -38 -55.5 -62t-84.5 -24q-84 0 -131.5 59.5t-47.5 164.5
q0 95 49 162q50 69 140 76l12 -32q-77 -6 -120 -64q-43 -56 -43 -139q0 -90 38.5 -142.5t106.5 -52.5q52 0 85 35.5t33 86.5zM491 667l-123 -138h-31l112 151z" />
    <glyph glyph-name="afii10023" unicode="&#x401;" horiz-adv-x="548" 
d="M490 660v-34h-367v-258h342v-34h-342v-299h394v-35h-432v660h405zM217 813q26 0 26 -27t-26 -27q-12 0 -19.5 7.5t-7.5 19.5q0 11 8 19t19 8zM373 813q12 0 19.5 -7.5t7.5 -19.5q0 -27 -27 -27q-11 0 -19 7.5t-8 19.5q0 11 8 19t19 8z" />
    <glyph glyph-name="afii10051" unicode="&#x402;" horiz-adv-x="779" 
d="M248 626h-233v34h516v-34h-244v-247q96 38 184 38q122 0 190 -71q67 -70 67 -173q0 -99 -48.5 -176.5t-132.5 -114.5l-30 24q171 78 171 265q0 90 -58 151q-57 62 -164 62q-87 0 -179 -37v-347h-39v626z" />
    <glyph glyph-name="afii10052" unicode="&#x403;" horiz-adv-x="511" 
d="M123 626v-626h-38v660h410v-34h-372zM401 845l-147 -112l-33 2l137 124z" />
    <glyph glyph-name="afii10053" unicode="&#x404;" horiz-adv-x="606" 
d="M581 74v-38q-76 -45 -191 -45q-159 0 -247 94t-88 241q0 150 97 247q98 99 242 99q101 0 161 -29v-38q-67 32 -158 32q-119 0 -204 -76q-84 -75 -97 -199h358v-34h-359q0 -134 79 -219q80 -84 220 -84q102 0 187 49z" />
    <glyph glyph-name="afii10054" unicode="&#x405;" horiz-adv-x="485" 
d="M35 50v42q87 -66 194 -66q82 0 132 35.5t50 104.5q0 42 -19.5 73.5t-51.5 51t-70 36t-76 32t-70 34t-51.5 48.5t-19.5 69q0 78 57 119q58 41 134 41q94 0 167 -43v-41q-71 49 -162 49q-70 0 -113.5 -31t-43.5 -92q0 -76 126 -125q43 -16 64.5 -24.5t59.5 -29t57.5 -40
t35 -51.5t15.5 -69q0 -91 -61 -137q-61 -45 -155 -45q-116 0 -199 59z" />
    <glyph glyph-name="afii10055" unicode="&#x406;" horiz-adv-x="228" 
d="M133 661v-661h-38v661h38z" />
    <glyph glyph-name="afii10056" unicode="&#x407;" horiz-adv-x="228" 
d="M37 813q26 0 26 -27t-26 -27q-12 0 -19.5 7.5t-7.5 19.5q0 11 8 19t19 8zM193 813q12 0 19.5 -7.5t7.5 -19.5q0 -27 -27 -27q-11 0 -19 7.5t-8 19.5q0 11 8 19t19 8zM133 661v-661h-38v661h38z" />
    <glyph glyph-name="afii10057" unicode="&#x408;" horiz-adv-x="434" 
d="M10 23v40q27 -16 66 -26.5t68 -10.5q94 0 130 51t36 138v445h38v-413q0 -89 -21 -147q-37 -109 -184 -109q-77 0 -133 32z" />
    <glyph glyph-name="afii10058" unicode="&#x409;" horiz-adv-x="1016" 
d="M484 628h-270l-40 -404q-10 -112 -43 -170q-32 -56 -109 -69l-17 31q65 15 94 56q28 40 36 131l45 457h344v-260h212q107 0 168.5 -56t61.5 -147q0 -94 -61 -146q-60 -51 -152 -51h-269v628zM740 365h-216v-330h230q78 0 125.5 41.5t47.5 120.5q0 77 -51.5 122.5
t-135.5 45.5z" />
    <glyph glyph-name="afii10059" unicode="&#x40a;" horiz-adv-x="1052" 
d="M123 346v-346h-38v660h38v-279h391v279h40v-279h219q109 0 168.5 -51.5t59.5 -141.5q0 -91 -57.5 -139.5t-154.5 -48.5h-275v346h-391zM776 346h-222v-311h236q81 0 126.5 37.5t45.5 115.5q0 75 -49.5 116.5t-136.5 41.5z" />
    <glyph glyph-name="afii10060" unicode="&#x40b;" horiz-adv-x="777" 
d="M285 167v-167h-39v626h-231v34h520v-34h-250v-130q1 -57 1 -129q100 36 197 36q107 0 160 -51t53 -142v-210h-39v201q0 168 -185 168q-94 0 -186 -36q0 -92 -1 -166z" />
    <glyph glyph-name="afii10061" unicode="&#x40c;" horiz-adv-x="555" 
d="M123 347l345 313h48l-346 -316l375 -344h-54l-368 339v-339h-38v660h38v-313zM395 846l-147 -112l-33 2l137 124z" />
    <glyph glyph-name="afii10062" unicode="&#x40e;" horiz-adv-x="558" 
d="M286 179l223 481h39l-262 -567q-26 -55 -58.5 -79t-78.5 -24q-58 0 -109 24v38q55 -28 107 -28q70 0 110 88l11 25l-258 523h41zM386 848h32q-3 -52 -37 -87t-91 -35q-55 0 -89 35.5t-36 86.5h31q2 -41 27 -67.5t66 -26.5q45 0 69 25.5t28 68.5z" />
    <glyph glyph-name="afii10145" unicode="&#x40f;" horiz-adv-x="669" 
d="M546 35v626h38v-661h-226v-161h-40v161h-233v661h38v-626h423z" />
    <glyph glyph-name="afii10017" unicode="&#x410;" horiz-adv-x="599" 
d="M583 0h-40l-69 165h-352l-69 -165h-38l279 663h10zM460 198l-163 390l-161 -390h324z" />
    <glyph glyph-name="afii10018" unicode="&#x411;" horiz-adv-x="619" 
d="M85 660h409v-34h-370v-227h215q107 0 168.5 -56t61.5 -147q0 -94 -61 -145q-60 -51 -153 -51h-270v660zM342 364h-218v-329h232q80 0 127 41t47 120q0 77 -51.5 122.5t-136.5 45.5z" />
    <glyph glyph-name="afii10019" unicode="&#x412;" horiz-adv-x="598" 
d="M336 0h-251v660h225q89 0 141 -42t52 -117q0 -47 -26.5 -87t-73.5 -57q70 -17 105 -64t35 -106q0 -88 -58 -137q-59 -50 -149 -50zM328 337h-205v-302h208q85 0 129.5 42.5t44.5 111.5q0 61 -47 105q-46 43 -130 43zM315 626h-192v-255h198q63 0 103 36q42 36 42 91
q0 58 -40.5 93t-110.5 35z" />
    <glyph glyph-name="afii10020" unicode="&#x413;" horiz-adv-x="511" 
d="M123 626v-626h-38v660h410v-34h-372z" />
    <glyph glyph-name="afii10021" unicode="&#x414;" horiz-adv-x="775" 
d="M253 660h394v-625h88v-191h-40v156h-646v-156h-39v191h78q67 65 92 159q28 98 50 279zM608 627h-323l-21 -176q-21 -169 -48 -261q-25 -89 -83 -155h475v592z" />
    <glyph glyph-name="afii10022" unicode="&#x415;" horiz-adv-x="548" 
d="M490 660v-34h-367v-258h342v-34h-342v-299h394v-35h-432v660h405z" />
    <glyph glyph-name="afii10024" unicode="&#x416;" horiz-adv-x="886" 
d="M376 344l-339 316h48l338 -313v313h39v-313l338 313h48l-339 -316l368 -344h-54l-361 339v-339h-39v339l-361 -339h-54z" />
    <glyph glyph-name="afii10025" unicode="&#x417;" horiz-adv-x="564" 
d="M25 37v38q91 -50 197 -50q118 0 182.5 47t64.5 128q0 68 -53.5 105t-149.5 37h-81v34h80q90 0 135.5 34.5t45.5 93.5q0 61 -54.5 97t-144.5 36q-107 0 -194 -39v38q87 36 196 36q111 0 174.5 -44t63.5 -122q0 -45 -31 -88t-89 -55v-3q67 -11 104.5 -55t37.5 -105
q0 -95 -74 -152t-205 -57q-51 0 -110 12t-95 34z" />
    <glyph glyph-name="afii10026" unicode="&#x418;" horiz-adv-x="704" 
d="M85 -2v662h37v-582l485 586h11v-664h-37v585h-1l-484 -587h-11z" />
    <glyph glyph-name="afii10027" unicode="&#x419;" horiz-adv-x="704" 
d="M85 -2v662h37v-582l485 586h11v-664h-37v585h-1l-484 -587h-11zM446 860h32q-3 -54 -36.5 -91.5t-90.5 -37.5t-88 39q-32 40 -35 90h31q2 -42 26.5 -72t65.5 -30q82 0 95 102z" />
    <glyph glyph-name="afii10028" unicode="&#x41a;" horiz-adv-x="555" 
d="M123 347l345 313h48l-346 -316l375 -344h-54l-368 339v-339h-38v660h38v-313z" />
    <glyph glyph-name="afii10029" unicode="&#x41b;" horiz-adv-x="627" 
d="M149 347l31 313h361v-660h-39v628h-288l-41 -405q-10 -112 -43 -170q-31 -53 -108 -67l-17 29q64 15 93 56q28 41 37 132z" />
    <glyph glyph-name="afii10030" unicode="&#x41c;" horiz-adv-x="800" 
d="M715 662v-662h-37v282q1 126 1 284q-1 0 -2 1l-272 -391h-10l-273 386q0 -1 -1 -2v-560h-36v662h10l306 -435l303 435h11z" />
    <glyph glyph-name="afii10031" unicode="&#x41d;" horiz-adv-x="655" 
d="M570 661v-661h-38v334h-409v-334h-38v661h38v-292h409v292h38z" />
    <glyph glyph-name="afii10032" unicode="&#x41e;" horiz-adv-x="783" 
d="M392 670q144 0 239 -98q96 -98 96 -242t-96 -242q-94 -97 -239 -97q-152 0 -245 96q-92 98 -92 243q0 141 98 241q97 99 239 99zM392 635q-128 0 -213 -88q-84 -88 -84 -217q0 -132 82 -218q83 -87 215 -87q129 0 213 88q84 89 84 217t-84 216q-84 89 -213 89z" />
    <glyph glyph-name="afii10033" unicode="&#x41f;" horiz-adv-x="668" 
d="M583 661v-661h-39v626h-421v-626h-38v661h498z" />
    <glyph glyph-name="afii10034" unicode="&#x420;" horiz-adv-x="553" 
d="M123 237v-237h-39v660h209q108 0 168 -62q61 -61 61 -148q0 -99 -67 -156t-162 -57h-170zM280 628h-157v-359h165q88 0 141 51q52 51 52 130q0 74 -52 126q-51 52 -149 52z" />
    <glyph glyph-name="afii10035" unicode="&#x421;" horiz-adv-x="606" 
d="M581 75v-38q-36 -21 -89 -33.5t-101 -12.5q-159 0 -247 94q-89 95 -89 242q0 149 98 247t242 98q105 0 160 -28v-38q-69 32 -157 32q-128 0 -216 -87q-87 -85 -87 -224q0 -136 79 -218q80 -83 220 -83q102 0 187 49z" />
    <glyph glyph-name="afii10036" unicode="&#x422;" horiz-adv-x="530" 
d="M285 626v-626h-39v626h-231v34h499v-34h-229z" />
    <glyph glyph-name="afii10037" unicode="&#x423;" horiz-adv-x="558" 
d="M286 179l223 481h39l-262 -567q-26 -55 -58.5 -79t-78.5 -24q-58 0 -109 24v38q55 -28 107 -28q70 0 110 88l11 25l-258 523h41z" />
    <glyph glyph-name="afii10038" unicode="&#x424;" horiz-adv-x="825" 
d="M393 660h38v-46q149 -2 243 -81q95 -78 95 -194q0 -117 -91 -193q-92 -77 -247 -84v-62h-38v62q-152 4 -246 80q-92 75 -92 197q0 116 96 194t242 81v46zM94 339q0 -107 78.5 -171t220.5 -71v483q-135 -5 -217 -72t-82 -169zM732 340q0 101 -83 169q-82 67 -218 72v-484
q136 0 219 71q82 70 82 172z" />
    <glyph glyph-name="afii10039" unicode="&#x425;" horiz-adv-x="585" 
d="M575 0h-44l-238 332l-241 -332h-42l245 341l-226 319h42l222 -310l222 310h42l-228 -318z" />
    <glyph glyph-name="afii10040" unicode="&#x426;" horiz-adv-x="685" 
d="M546 34v626h38v-626h90v-190h-40v156h-549v660h38v-626h423z" />
    <glyph glyph-name="afii10041" unicode="&#x427;" horiz-adv-x="621" 
d="M536 660v-660h-40v318q-90 -34 -203 -34q-111 0 -167 50t-56 139v187h38v-178q0 -165 196 -165q108 0 192 34v309h40z" />
    <glyph glyph-name="afii10042" unicode="&#x428;" horiz-adv-x="916" 
d="M793 34v626h38v-660h-746v660h38v-626h312v626h40v-626h318z" />
    <glyph glyph-name="afii10043" unicode="&#x429;" horiz-adv-x="931" 
d="M793 34v626h38v-626h90v-190h-40v156h-796v660h38v-626h312v626h40v-626h318z" />
    <glyph glyph-name="afii10044" unicode="&#x42a;" horiz-adv-x="837" 
d="M301 626h-291v34h330v-261h217q107 0 168 -55.5t61 -147.5q0 -94 -60 -145t-153 -51h-272v626zM560 364h-220v-329h234q79 0 126 41t47 120q0 77 -51.5 122.5t-135.5 45.5z" />
    <glyph glyph-name="afii10045" unicode="&#x42b;" horiz-adv-x="811" 
d="M85 0v660h39v-261h223q107 0 168 -55.5t61 -147.5q0 -94 -60 -145t-153 -51h-278zM350 364h-226v-329h240q79 0 126 41t47 120q0 77 -51.5 122.5t-135.5 45.5zM725 660v-660h-38v660h38z" />
    <glyph glyph-name="afii10046" unicode="&#x42c;" horiz-adv-x="627" 
d="M85 0v660h39v-261h223q107 0 168 -55.5t61 -147.5q0 -94 -60 -145t-153 -51h-278zM350 364h-226v-329h240q79 0 126 41t47 120q0 77 -51.5 122.5t-135.5 45.5z" />
    <glyph glyph-name="afii10047" unicode="&#x42d;" horiz-adv-x="606" 
d="M25 36v38q85 -49 187 -49q144 0 221 87q78 88 78 219h-359v35h357q-9 128 -84.5 199.5t-203.5 71.5q-102 0 -169 -32v38q60 29 172 29q156 0 241 -93q86 -94 86 -247q0 -139 -84 -237q-40 -49 -106 -76.5t-146 -27.5q-115 0 -190 45z" />
    <glyph glyph-name="afii10048" unicode="&#x42e;" horiz-adv-x="1016" 
d="M124 329v-329h-39v660h39v-299h184q10 133 100 220q91 88 226 88q145 0 236 -97t91 -242q0 -144 -92 -242q-91 -96 -235 -96q-140 0 -233 95q-93 96 -94 242h-183zM634 635q-127 0 -208 -88q-80 -89 -80 -217q0 -129 80 -218q81 -88 208 -88q128 0 207 88t79 218
q0 131 -79 217q-78 88 -207 88z" />
    <glyph glyph-name="afii10049" unicode="&#x42f;" horiz-adv-x="584" 
d="M338 280l-260 -280h-53l251 266q-101 9 -160 64q-59 56 -59 132q0 92 63 144q63 54 158 54h220v-660h-38v626h-177q-87 0 -137 -44.5t-50 -121.5q0 -70 63 -119q63 -48 179 -51v-10z" />
    <glyph glyph-name="afii10065" unicode="&#x430;" horiz-adv-x="492" 
d="M204 22q70 0 123 45q52 45 52 136v26h-127q-168 0 -168 -113q0 -44 33.5 -69t86.5 -25zM387 0l-7 95l-1 1h-2q-20 -52 -69 -78.5t-112 -26.5q-72 0 -111 34.5t-39 87.5q0 145 210 145h123v31q0 132 -141 132q-75 0 -146 -43v35q64 40 148 40q176 0 176 -169v-284h-29z
" />
    <glyph glyph-name="afii10066" unicode="&#x431;" horiz-adv-x="547" 
d="M86 334q2 0 3 -1t2 -1q23 54 77 86q54 33 115 33q102 0 162 -67q60 -66 60 -165q0 -94 -64 -161t-166 -67q-114 0 -171 72q-56 73 -56 187q0 120 37 219q37 102 120 153q45 30 238 98l17 -28l-82 -30q-97 -34 -138 -57q-132 -73 -154 -271zM280 419q-84 0 -139 -58
t-55 -142q0 -82 50 -140q50 -57 140 -57q84 0 137 57q54 57 54 140q0 85 -51 142q-49 58 -136 58z" />
    <glyph glyph-name="afii10067" unicode="&#x432;" horiz-adv-x="491" 
d="M298 0h-223v443h193q152 0 152 -111q0 -28 -19 -54t-53 -38q51 -11 74.5 -41.5t23.5 -70.5q0 -56 -44 -92t-104 -36zM407 131q0 38 -28.5 64.5t-80.5 26.5h-185v-191h173q54 0 87.5 28.5t33.5 71.5zM265 414h-152v-162h181q40 0 63.5 22.5t23.5 54.5q0 85 -116 85z" />
    <glyph glyph-name="afii10068" unicode="&#x433;" horiz-adv-x="409" 
d="M112 413v-413h-37v443h324v-30h-287z" />
    <glyph glyph-name="afii10069" unicode="&#x434;" horiz-adv-x="563" 
d="M183 443h297l-1 -412h74v-152h-36v121h-476v-121h-36v152h62q43 37 64 101q22 64 36 178zM442 414h-229l-9 -77q-15 -125 -33 -193q-18 -66 -60 -113h331v383z" />
    <glyph glyph-name="afii10070" unicode="&#x435;" horiz-adv-x="517" 
d="M466 231v-18h-378q-3 -77 52 -133q56 -57 139 -57q94 0 168 56v-38q-68 -50 -167 -50q-106 0 -168 63t-62 169q0 98 61 163q61 67 153 67q94 0 148 -64q54 -63 54 -158zM265 419q-73 0 -122 -49q-49 -50 -54 -126h341q-6 81 -49 128t-116 47z" />
    <glyph glyph-name="afii10072" unicode="&#x436;" horiz-adv-x="707" 
d="M371 227v-227h-37v227l-274 -227h-55l284 233l-262 210h50l257 -204v204h37v-204l258 204h50l-263 -210l285 -233h-55z" />
    <glyph glyph-name="afii10073" unicode="&#x437;" horiz-adv-x="405" 
d="M25 20v36q53 -33 140 -33q78 0 118.5 30.5t40.5 80.5q0 43 -36 67t-101 24h-70v30h67q62 0 95.5 22t33.5 59q0 38 -34.5 60.5t-99.5 22.5q-81 0 -139 -31v35q63 30 142 30q83 0 126 -29.5t43 -84.5q0 -31 -22.5 -59t-63.5 -39q46 -8 71.5 -37.5t25.5 -67.5
q0 -66 -52 -105.5t-144 -39.5q-85 0 -141 29z" />
    <glyph glyph-name="afii10074" unicode="&#x438;" horiz-adv-x="530" 
d="M454 221v-221h-36v368h-2l-329 -368h-12v443h37v-370l332 370h11q0 -123 -1 -222z" />
    <glyph glyph-name="afii10075" unicode="&#x439;" horiz-adv-x="530" 
d="M454 221v-221h-36v368h-2l-329 -368h-12v443h37v-370l332 370h11q0 -123 -1 -222zM364 657h32q-3 -54 -36.5 -91.5t-90.5 -37.5t-88 39q-32 40 -35 90h31q2 -42 26.5 -72t65.5 -30q82 0 95 102z" />
    <glyph glyph-name="afii10076" unicode="&#x43a;" horiz-adv-x="450" 
d="M111 228v-228h-36v443h36v-205l260 205h51l-265 -209l288 -234h-57z" />
    <glyph glyph-name="afii10077" unicode="&#x43b;" horiz-adv-x="477" 
d="M21 -12l-16 29q53 11 73 49q20 39 29 129l24 248h271v-443h-38v413h-200l-12 -108l-8 -92l-7 -61q-10 -73 -22 -95q-31 -59 -94 -69z" />
    <glyph glyph-name="afii10078" unicode="&#x43c;" horiz-adv-x="650" 
d="M575 446v-446h-38v363l-204 -251h-11l-210 250v-362h-37v446h8l245 -290l238 290h9z" />
    <glyph glyph-name="afii10079" unicode="&#x43d;" horiz-adv-x="522" 
d="M447 444v-444h-37v220h-298v-220h-37v444h37v-195h298v195h37z" />
    <glyph glyph-name="afii10080" unicode="&#x43e;" horiz-adv-x="556" 
d="M279 453q98 0 162 -67q65 -67 65 -164t-65 -165q-65 -66 -162 -66q-104 0 -167 65q-62 67 -62 166q0 96 66 164q67 67 163 67zM279 421q-82 0 -137 -58q-54 -59 -54 -141q0 -87 52 -143q52 -57 139 -57q84 0 136 58q53 59 53 142t-53 141q-52 58 -136 58z" />
    <glyph glyph-name="afii10081" unicode="&#x43f;" horiz-adv-x="522" 
d="M447 444v-444h-39v409h-295v-409h-38v444h372z" />
    <glyph glyph-name="afii10082" unicode="&#x440;" horiz-adv-x="565" 
d="M105 101l-4 -2v-309h-36v654h30l6 -101l4 -1q25 51 75 81t110 30q102 0 164 -65q61 -64 61 -166q0 -96 -65 -164q-64 -67 -161 -67q-62 0 -111.5 29.5t-72.5 80.5zM288 23q84 0 136 57q53 59 53 142q0 86 -52 142q-51 57 -137 57q-85 0 -136 -57q-51 -56 -51 -142
q0 -85 51 -142q52 -57 136 -57z" />
    <glyph glyph-name="afii10083" unicode="&#x441;" horiz-adv-x="429" 
d="M404 56v-36q-53 -29 -129 -29q-108 0 -166 63q-59 65 -59 164q0 100 65 168q66 67 164 67q60 0 107 -19v-36q-43 23 -103 23q-83 0 -139 -56t-56 -147q0 -86 52 -141q52 -54 141 -54q73 0 123 33z" />
    <glyph glyph-name="afii10084" unicode="&#x442;" horiz-adv-x="432" 
d="M10 443h411v-30h-188v-413h-37v413h-186v30z" />
    <glyph glyph-name="afii10085" unicode="&#x443;" horiz-adv-x="423" 
d="M137 -215h-39l93 224l-181 434h41l158 -390l2 -1l164 391h38z" />
    <glyph glyph-name="afii10086" unicode="&#x444;" horiz-adv-x="661" 
d="M347 -210h-37v197q-118 1 -193 67q-74 65 -74 168q0 100 73 163q74 64 194 68q0 71 -1 128v129h37v-256q127 -5 198 -67q73 -63 73 -165t-76 -168q-78 -66 -195 -67v-98q1 -44 1 -99zM578 222q0 88 -63 144q-60 54 -168 56v-405q102 1 167 60q64 58 64 145zM81 222
q0 -87 62 -146q64 -58 167 -59v405q-100 -2 -164 -57q-65 -56 -65 -143z" />
    <glyph glyph-name="afii10087" unicode="&#x445;" horiz-adv-x="434" 
d="M424 0h-43l-164 220l-166 -220h-41l171 228l-161 216h41l156 -208l156 208h42l-163 -215z" />
    <glyph glyph-name="afii10088" unicode="&#x446;" horiz-adv-x="542" 
d="M412 35v409h38v-409h75v-155h-38v120h-412v444h38v-409h299z" />
    <glyph glyph-name="afii10089" unicode="&#x447;" horiz-adv-x="497" 
d="M422 443v-443h-38v109q1 49 1 111l-1 1q-65 -65 -169 -65q-155 0 -155 165v122h37v-91q0 -88 30.5 -125.5t98.5 -37.5q41 0 86 18.5t73 50.5q0 51 -1 92v93h38z" />
    <glyph glyph-name="afii10090" unicode="&#x448;" horiz-adv-x="781" 
d="M667 34v409h39v-443h-631v443h37v-409h255v409h37v-409h263z" />
    <glyph glyph-name="afii10091" unicode="&#x449;" horiz-adv-x="796" 
d="M667 34v409h39v-409h74v-154h-37v120h-668v443h37v-409h255v409h37v-409h263z" />
    <glyph glyph-name="afii10092" unicode="&#x44a;" horiz-adv-x="645" 
d="M216 413h-216v30h254v-147h175q81 0 126 -41.5t45 -106.5q0 -68 -45 -108t-117 -40h-222v413zM423 265h-169v-235h178q56 0 92.5 32t36.5 86q0 52 -37.5 84.5t-100.5 32.5z" />
    <glyph glyph-name="afii10093" unicode="&#x44b;" horiz-adv-x="660" 
d="M75 0v443h37v-147h178q81 0 125.5 -41t44.5 -107q0 -68 -44.5 -108t-116.5 -40h-224zM284 265h-172v-235h181q56 0 92 32t36 86q0 52 -37.5 84.5t-99.5 32.5zM584 443v-443h-38v443h38z" />
    <glyph glyph-name="afii10094" unicode="&#x44c;" horiz-adv-x="506" 
d="M75 0v443h37v-147h178q81 0 125.5 -41t44.5 -107q0 -68 -44.5 -108t-116.5 -40h-224zM284 265h-172v-235h181q56 0 92 32t36 86q0 52 -37.5 84.5t-99.5 32.5z" />
    <glyph glyph-name="afii10095" unicode="&#x44d;" horiz-adv-x="427" 
d="M25 19v36q47 -32 126 -32q87 0 138 53q51 54 51 135h-226v30h225q-2 82 -50.5 130t-126.5 48q-72 0 -119 -26v35q53 25 122 25q94 0 153 -62q60 -62 60 -169q0 -102 -59 -167q-58 -64 -166 -64q-76 0 -128 28z" />
    <glyph glyph-name="afii10096" unicode="&#x44e;" horiz-adv-x="743" 
d="M112 220v-220h-37v443h37v-194h140q10 85 73 145q62 58 150 58q100 0 161 -67q62 -68 62 -165t-63 -163t-160 -66q-101 0 -163 65q-61 65 -61 164h-139zM475 420q-82 0 -134 -58t-52 -142t50 -142q51 -57 136 -57q82 0 133 58q52 58 52 141q0 84 -51 142t-134 58z" />
    <glyph glyph-name="afii10097" unicode="&#x44f;" horiz-adv-x="452" 
d="M249 192l-182 -192h-47l169 177q-66 8 -104 44t-38 87q0 62 43 98.5t113 36.5h174v-443h-37v413h-134q-58 0 -89.5 -28t-31.5 -78q0 -46 43 -75t121 -30v-10z" />
    <glyph glyph-name="afii10071" unicode="&#x451;" horiz-adv-x="517" 
d="M466 231v-18h-378q-3 -77 52 -133q56 -57 139 -57q94 0 168 56v-38q-68 -50 -167 -50q-106 0 -168 63t-62 169q0 98 61 163q61 67 153 67q94 0 148 -64q54 -63 54 -158zM265 419q-73 0 -122 -49q-49 -50 -54 -126h341q-6 81 -49 128t-116 47zM192 617q12 0 19 -7.5
t7 -18.5q0 -17 -13 -24.5t-26.5 -0.5t-13.5 24q0 11 8 19t19 8zM348 617q27 0 27 -26q0 -12 -7.5 -20t-19.5 -8q-11 0 -19 7.5t-8 19.5q0 11 8 19t19 8z" />
    <glyph glyph-name="afii10099" unicode="&#x452;" horiz-adv-x="545" 
d="M108 233v-233h-37v574h-60v30h60v106h37v-106h193v-30h-193v-236h2q22 54 72 84t109 30q88 0 145 -61q58 -59 58 -181q0 -95 -49.5 -175.5t-137.5 -125.5l-26 21q88 43 132 117t44 162q0 109 -51 159q-50 51 -124 51q-68 0 -121 -52q-53 -53 -53 -134z" />
    <glyph glyph-name="afii10100" unicode="&#x453;" horiz-adv-x="409" 
d="M112 413v-413h-37v443h324v-30h-287zM342 663l-131 -129h-30l120 143z" />
    <glyph glyph-name="afii10101" unicode="&#x454;" horiz-adv-x="429" 
d="M403 55v-36q-52 -28 -128 -28q-108 0 -166 63q-59 65 -59 164t65 167t164 68q60 0 106 -20v-36q-42 24 -102 24q-79 0 -135 -51q-54 -49 -59 -131h224v-30h-225q0 -80 53 -133t140 -53q72 0 122 32z" />
    <glyph glyph-name="afii10102" unicode="&#x455;" horiz-adv-x="369" 
d="M25 31v38q65 -47 147 -47q57 0 91 22.5t34 65.5q0 60 -89 95q-6 2 -24 9.5t-26 10.5t-24 10.5t-24 12.5t-21 13t-19 16t-13 18t-10 21t-3 24q0 54 40 83.5t101 29.5q69 0 129 -30v-37q-64 36 -125 36q-48 0 -77.5 -19.5t-29.5 -60.5q0 -48 89 -84q32 -12 46 -17.5
t41.5 -20t40 -27t24 -33t11.5 -44.5q0 -59 -44.5 -92t-114.5 -33q-88 0 -150 40z" />
    <glyph glyph-name="afii10103" unicode="&#x456;" horiz-adv-x="206" 
d="M120 443v-443h-37v443h37zM103 610q17 0 24 -14t0 -28.5t-24 -14.5t-24 14.5t0 28.5t24 14z" />
    <glyph glyph-name="afii10104" unicode="&#x457;" horiz-adv-x="207" 
d="M26 610q12 0 19 -7.5t7 -18.5q0 -17 -13 -24.5t-26.5 -0.5t-13.5 24q0 11 8 19t19 8zM182 610q27 0 27 -26q0 -12 -7.5 -20t-19.5 -8q-11 0 -19 7.5t-8 19.5q0 11 8 19t19 8zM122 444v-444h-38v444h38z" />
    <glyph glyph-name="afii10105" unicode="&#x458;" horiz-adv-x="189" 
d="M95 610q17 0 24 -14t0 -28.5t-24 -14.5q-17 -1 -24 13.5t0 29.5t24 14zM75 -39v482h37v-483q0 -170 -141 -178l-18 35q67 1 94.5 35.5t27.5 108.5z" />
    <glyph glyph-name="afii10106" unicode="&#x459;" horiz-adv-x="784" 
d="M358 413h-194l-12 -108l-8 -92l-7 -61q-10 -73 -22 -95q-31 -59 -94 -69l-16 29q53 10 73 49t29 129l24 248h265v-147h172q81 0 125.5 -41t44.5 -107q0 -68 -44.5 -108t-116.5 -40h-219v413zM562 265h-166v-235h175q56 0 92.5 32t36.5 86q0 52 -37.5 84.5t-100.5 32.5z
" />
    <glyph glyph-name="afii10107" unicode="&#x45a;" horiz-adv-x="798" 
d="M578 238h-161v-209h170q128 0 128 106q0 51 -35.5 77t-101.5 26zM112 238v-238h-37v443h37v-176h268v176h37v-175h167q85 0 127 -34.5t42 -98.5q0 -67 -42.5 -101t-116.5 -34h-214v238h-268z" />
    <glyph glyph-name="afii10108" unicode="&#x45b;" horiz-adv-x="511" 
d="M102 574v-222h2q56 101 167 101q78 0 121.5 -46t43.5 -131v-276h-38v269q0 72 -34.5 111t-94.5 39q-67 0 -117 -47q-49 -46 -49 -133v-239h-38v574h-54v30h54v106h37v-106h204v-30h-204z" />
    <glyph glyph-name="afii10109" unicode="&#x45c;" horiz-adv-x="450" 
d="M111 228v-228h-36v443h36v-205l260 205h51l-265 -209l288 -234h-57zM336 663l-131 -129h-30l120 143z" />
    <glyph glyph-name="afii10110" unicode="&#x45e;" horiz-adv-x="423" 
d="M137 -215h-39l93 224l-181 434h41l158 -390l2 -1l164 391h38zM315 670h32q-3 -54 -36.5 -91.5t-90.5 -37.5q-56 0 -88 39q-32 40 -35 90h31q2 -42 26.5 -72t65.5 -30q82 0 95 102z" />
    <glyph glyph-name="afii10193" unicode="&#x45f;" horiz-adv-x="525" 
d="M412 35v409h38v-444h-168v-130h-38v130h-169v444h38v-409h299z" />
    <glyph glyph-name="afii10050" unicode="&#x490;" horiz-adv-x="518" 
d="M123 626v-626h-38v660h384v109h34v-143h-380z" />
    <glyph glyph-name="afii10098" unicode="&#x491;" horiz-adv-x="417" 
d="M112 413v-413h-37v443h295v105h32v-135h-290z" />
    <glyph glyph-name="schwacyrillic" unicode="&#x4d9;" horiz-adv-x="525" 
d="M55 212v18h377q0 86 -49 138t-134 52q-93 0 -167 -53v37q68 49 168 49q105 0 163 -62t58 -171q0 -96 -62 -163q-61 -66 -153 -66q-94 0 -148 63q-53 64 -53 158zM256 24q72 0 122 48q50 50 54 127h-342q13 -87 52 -131t114 -44z" />
    <glyph glyph-name="Wgrave" unicode="&#x1e80;" horiz-adv-x="884" 
d="M634 92l202 567h38l-240 -660h-8l-184 566h-2l-184 -566h-9l-237 660h38l203 -567h3l183 568h9l184 -568h4zM338 859l138 -125h-33l-148 111z" />
    <glyph glyph-name="wgrave" unicode="&#x1e81;" horiz-adv-x="695" 
d="M188 -1l-173 444h38l144 -369l147 369h10l149 -369h2l141 369h37l-174 -444h-12l-148 368h-1l-148 -368h-12zM266 685l115 -147l-31 -1l-126 135z" />
    <glyph glyph-name="Wacute" unicode="&#x1e82;" horiz-adv-x="884" 
d="M634 92l202 567h38l-240 -660h-8l-184 566h-2l-184 -566h-9l-237 660h38l203 -567h3l183 568h9l184 -568h4zM590 845l-147 -112l-33 2l137 124z" />
    <glyph glyph-name="wacute" unicode="&#x1e83;" horiz-adv-x="695" 
d="M188 -1l-173 444h38l144 -369l147 369h10l149 -369h2l141 369h37l-174 -444h-12l-148 368h-1l-148 -368h-12zM482 663l-131 -129h-30l120 143z" />
    <glyph glyph-name="Wdieresis" unicode="&#x1e84;" horiz-adv-x="884" 
d="M634 92l202 567h38l-240 -660h-8l-184 566h-2l-184 -566h-9l-237 660h38l203 -567h3l183 568h9l184 -568h4zM519 813q12 0 19.5 -7.5t7.5 -19.5q0 -27 -27 -27q-11 0 -19 7.5t-8 19.5q0 11 8 19t19 8zM363 813q26 0 26 -27t-26 -27q-12 0 -19.5 7.5t-7.5 19.5q0 11 8 19
t19 8z" />
    <glyph glyph-name="wdieresis" unicode="&#x1e85;" horiz-adv-x="695" 
d="M188 -1l-173 444h38l144 -369l147 369h10l149 -369h2l141 369h37l-174 -444h-12l-148 368h-1l-148 -368h-12zM425 593q27 0 27 -26q0 -12 -7.5 -20t-19.5 -8q-11 0 -19 7.5t-8 19.5q0 11 8 19t19 8zM269 593q12 0 19 -7.5t7 -18.5q0 -17 -13.5 -24t-26.5 -0.5t-13 23.5
q0 11 8 19t19 8z" />
    <glyph glyph-name="Ygrave" unicode="&#x1ef2;" horiz-adv-x="538" 
d="M294 283v-283h-38v283l-246 377h43l221 -340h3l209 340h41zM188 859l138 -125h-33l-148 111z" />
    <glyph glyph-name="ygrave" unicode="&#x1ef3;" horiz-adv-x="423" 
d="M137 -215h-39l93 224l-181 434h41l158 -390l2 -1l164 391h38zM133 685l115 -147l-31 -1l-126 135z" />
    <glyph glyph-name="endash" unicode="&#x2013;" horiz-adv-x="535" 
d="M503 228h-471v33h471v-33z" />
    <glyph glyph-name="emdash" unicode="&#x2014;" horiz-adv-x="826" 
d="M792 228h-757v33h757v-33z" />
    <glyph glyph-name="afii00208" unicode="&#x2015;" horiz-adv-x="826" 
d="M792 228h-757v33h757v-33z" />
    <glyph glyph-name="quoteleft" unicode="&#x2018;" horiz-adv-x="181" 
d="M115 683h24l-43 -133q24 -6 24 -30q0 -21 -17.5 -30t-34.5 -0.5t-16 30.5q0 32 63 163z" />
    <glyph glyph-name="quoteright" unicode="&#x2019;" horiz-adv-x="181" 
d="M73 484h-24l43 133q-24 6 -24 30q0 21 17.5 30t34.5 0.5t16 -30.5q0 -33 -63 -163z" />
    <glyph glyph-name="quotesinglbase" unicode="&#x201a;" horiz-adv-x="199" 
d="M79 -134l-23 1q9 31 41 131q-23 5 -23 30q0 14 10 24t24 10q15 0 24.5 -10t9.5 -25q0 -38 -63 -161z" />
    <glyph glyph-name="quotedblleft" unicode="&#x201c;" horiz-adv-x="285" 
d="M117 682h24l-43 -133q24 -6 24 -30q0 -21 -17.5 -30t-34.5 -0.5t-16 30.5q0 33 63 163zM215 682h24l-43 -133q24 -6 24 -30q0 -21 -17.5 -30t-34.5 -0.5t-16 30.5q0 33 63 163z" />
    <glyph glyph-name="quotedblright" unicode="&#x201d;" horiz-adv-x="285" 
d="M169 485h-24l43 133q-24 6 -24 30q0 21 17.5 30t34.5 0.5t16 -30.5q0 -32 -63 -163zM71 485h-24l43 133q-24 6 -24 30q0 21 17.5 30t34.5 0.5t16 -30.5q0 -32 -63 -163z" />
    <glyph glyph-name="quotedblbase" unicode="&#x201e;" horiz-adv-x="292" 
d="M74 -134l-23 1q9 31 41 131q-23 5 -23 30q0 14 10 24t24 10q15 0 24.5 -10t9.5 -25q0 -38 -63 -161zM174 -134l-23 1q9 31 41 131q-23 5 -23 30q0 14 10 24t24 10q15 0 24.5 -10t9.5 -25q0 -38 -63 -161z" />
    <glyph glyph-name="dagger" unicode="&#x2020;" horiz-adv-x="499" 
d="M229 457h-169v34h168v196h40v-196h171v-34h-170v-565h-40v565z" />
    <glyph glyph-name="daggerdbl" unicode="&#x2021;" horiz-adv-x="499" 
d="M228 457h-169v34h168v196h40v-196h172v-34h-171v-266h171v-34h-171v-265h-40v265h-169v34h169v266z" />
    <glyph glyph-name="bullet" unicode="&#x2022;" horiz-adv-x="429" 
d="M214 331q38 0 64.5 -26.5t26.5 -64.5q2 -28 -15 -50.5t-41.5 -32.5t-52.5 -6t-46 25q-21 18 -25 46t6 52.5t32.5 41.5t50.5 15z" />
    <glyph glyph-name="trianglebullet" unicode="&#x2023;" horiz-adv-x="506" 
d="M86 68v408l390 -199z" />
    <glyph glyph-name="ellipsis" unicode="&#x2026;" horiz-adv-x="513" 
d="M66 3q-9 9 -9 23t9 23q9 10 23 10t23 -10q10 -9 10 -23t-10 -23q-9 -9 -23 -9t-23 9zM234 3q-9 9 -9 23t9 23q10 10 24 10t23 -10q10 -9 10 -23t-10 -23q-9 -9 -23 -9t-24 9zM403 3q-9 9 -9 23t9 23q9 10 23 10t24 -10q10 -9 10 -23t-10 -23q-9 -9 -23 -9t-24 9z" />
    <glyph glyph-name="perthousand" unicode="&#x2030;" horiz-adv-x="1054" 
d="M189 673q65 0 109 -45q43 -43 43 -110q0 -65 -44 -111q-44 -44 -108 -44q-69 0 -111.5 43.5t-42.5 111.5q0 64 44 110q45 45 110 45zM189 644q-51 0 -87 -37q-35 -38 -35 -89q0 -55 34 -90.5t88 -35.5q51 0 85 37t34 89t-34 89t-85 37zM517 304q65 0 109 -45
q44 -46 44 -111q0 -64 -44 -110q-44 -44 -109 -44q-68 0 -110.5 43t-42.5 110q0 65 44 111q45 46 109 46zM517 274q-52 0 -86 -37t-34 -89q0 -55 33.5 -90.5t86.5 -35.5t86 37q34 37 34 89q0 54 -34 89q-34 37 -86 37zM870 304q66 0 109 -45q44 -46 44 -111q0 -64 -44 -110
q-44 -44 -109 -44q-68 0 -110.5 43t-42.5 110q0 65 44 111q45 46 109 46zM870 274q-52 0 -86 -37t-34 -89q0 -55 33.5 -90.5t86.5 -35.5t86 37q34 37 34 89q0 54 -34 89q-34 37 -86 37zM573 685h32l-480 -702h-32z" />
    <glyph glyph-name="guilsinglleft" unicode="&#x2039;" horiz-adv-x="267" 
d="M84 198l143 -178h-42l-140 173v7l139 173h40z" />
    <glyph glyph-name="guilsinglright" unicode="&#x203a;" horiz-adv-x="267" 
d="M227 193l-140 -173h-42l142 178l-140 175h40l140 -173v-7z" />
    <glyph glyph-name="fraction" unicode="&#x2044;" horiz-adv-x="107" 
d="M293 681h32l-521 -700h-32z" />
    <glyph glyph-name="fraction" unicode="&#x2215;" horiz-adv-x="107" 
d="M293 681h32l-521 -700h-32z" />
    <glyph glyph-name="zerosuperior" unicode="&#x2070;" horiz-adv-x="345" 
d="M172 780q85 0 115 -69q25 -57 25 -131q0 -69 -26 -128q-32 -69 -115 -69q-139 0 -139 197q0 28 3 53.5t12.5 53t24 47.5t40.5 33t60 13zM172 752q-68 0 -89 -63q-18 -54 -18 -109q0 -54 18 -108q10 -28 33.5 -44.5t55.5 -16.5q107 0 107 169q0 172 -107 172z" />
    <glyph glyph-name="foursuperior" unicode="&#x2074;" horiz-adv-x="343" 
d="M14 496l219 279h36l-210 -264h177v107l24 35h7v-142h61v-26h-61v-95h-31v95h-222v11z" />
    <glyph glyph-name="fivesuperior" unicode="&#x2075;" horiz-adv-x="348" 
d="M82 774h213v-27h-185q-7 -54 -14 -130q33 11 73 11q62 0 102 -32t40 -88t-42.5 -90.5t-104.5 -34.5q-78 0 -128 42v38q49 -52 128 -52q51 0 83 26.5t32 70.5q0 43 -31.5 67.5t-81.5 24.5q-54 0 -98 -23l-2 1q-3 0 -5 1z" />
    <glyph glyph-name="sixsuperior" unicode="&#x2076;" horiz-adv-x="340" 
d="M64 610l105 165h36l-105 -163l1 -1q25 20 74 20q59 0 97 -36q39 -35 39 -87q0 -55 -40.5 -90t-102.5 -35q-65 0 -102.5 33.5t-37.5 88.5q0 47 36 105zM170 603q-47 0 -78 -26.5t-31 -69.5t29.5 -69.5t77.5 -26.5t79 26.5t31 69.5q0 41 -30.5 68.5t-77.5 27.5z" />
    <glyph glyph-name="sevensuperior" unicode="&#x2077;" horiz-adv-x="316" 
d="M238 747h-217v28h260v-5l-186 -382h-33z" />
    <glyph glyph-name="eightsuperior" unicode="&#x2078;" horiz-adv-x="347" 
d="M293 676q0 -26 -17 -49t-44 -35q36 -11 56.5 -37t20.5 -59q0 -49 -37.5 -81t-97.5 -32q-63 0 -100.5 30.5t-37.5 81.5q0 30 21.5 57t54.5 40q-27 12 -43 35t-16 49q0 46 33.5 75t87.5 29q51 0 85 -29.5t34 -74.5zM276 495q0 37 -29 60t-73 23q-45 0 -75 -24
q-30 -22 -30 -59t28 -60.5t77 -23.5q45 0 73.5 24t28.5 60zM173 751q-39 0 -63.5 -20.5t-24.5 -53.5q0 -30 25 -51t63 -21t62.5 21t24.5 51q0 31 -25 52.5t-62 21.5z" />
    <glyph glyph-name="ninesuperior" unicode="&#x2079;" horiz-adv-x="337" 
d="M270 555l-102 -167h-36l40 65q10 15 41 67l18 31q-23 -17 -68 -17q-59 0 -97 34t-38 89q0 54 40 88.5t102 34.5t99.5 -34t37.5 -86q0 -43 -37 -105zM168 562q46 0 76 26t30 69q0 42 -28.5 68.5t-75.5 26.5q-48 0 -79 -26.5t-31 -68.5t30 -68.5t78 -26.5z" />
    <glyph glyph-name="plussuperior" unicode="&#x207a;" horiz-adv-x="348" 
d="M164 525h-111v23h111v99h25v-99h109v-23h-109v-102h-25v102z" />
    <glyph glyph-name="hyphensuperior" unicode="&#x207b;" horiz-adv-x="276" 
d="M241 515h-206v25h206v-25z" />
    <glyph glyph-name="equalsuperior" unicode="&#x207c;" horiz-adv-x="342" 
d="M296 548h-250v22h250v-22zM296 466h-250v22h250v-22z" />
    <glyph glyph-name="parenleftsuperior" unicode="&#x207d;" horiz-adv-x="185" 
d="M147 830l20 -6q-33 -38 -61 -102q-29 -67 -29 -150q0 -149 90 -266l-20 -7q-103 112 -103 273q0 85 32 151q33 66 71 107z" />
    <glyph glyph-name="parenrightsuperior" unicode="&#x207e;" horiz-adv-x="183" 
d="M14 823l20 6q39 -42 70 -107q33 -64 33 -151q0 -161 -103 -273l-20 7q90 117 90 266q0 83 -29 150q-28 64 -61 102z" />
    <glyph glyph-name="nsuperior" unicode="&#x207f;" horiz-adv-x="348" 
d="M303 482v-183h-32v180q0 44 -22.5 67t-62.5 23q-44 0 -77 -33.5t-33 -88.5v-148h-31v293h24q3 -43 7 -61q15 30 47.5 48t67.5 18q112 0 112 -115z" />
    <glyph glyph-name="zeroinferior" unicode="&#x2080;" horiz-adv-x="345" 
d="M172 300q85 0 115 -69q25 -57 25 -131q0 -71 -26 -127q-30 -69 -115 -69q-139 0 -139 196q0 28 3 53.5t12.5 53t24 47.5t40.5 33t60 13zM172 272q-68 0 -89 -63q-18 -54 -18 -109q0 -56 18 -107q21 -62 89 -62q107 0 107 169q0 172 -107 172z" />
    <glyph glyph-name="oneinferior" unicode="&#x2081;" horiz-adv-x="285" 
d="M46 184v32l140 82h6v-388h-32v339l-57 -33q-28 -15 -57 -32z" />
    <glyph glyph-name="twoinferior" unicode="&#x2082;" horiz-adv-x="340" 
d="M85 158l-34 5q-3 11 -3 30q0 47 36.5 77t90.5 30q56 0 92.5 -27.5t36.5 -76.5q0 -64 -100 -122q-47 -26 -84 -55q-48 -38 -52 -83h240v-27h-275q2 70 48 112q35 34 97 72q41 26 43 28q19 14 34.5 34.5t15.5 39.5q0 37 -26.5 57t-69.5 20q-42 0 -68.5 -23.5t-26.5 -59.5
q0 -6 5 -31z" />
    <glyph glyph-name="threeinferior" unicode="&#x2083;" horiz-adv-x="347" 
d="M249 267h-198v28h256v-7l-141 -141q66 0 105 -32.5t39 -86.5q0 -57 -43 -90q-43 -34 -105 -34q-77 0 -130 41v36q59 -50 131 -50q51 0 82.5 26.5t31.5 70.5q0 46 -33 70t-89 24q-21 0 -37 -2l-5 9z" />
    <glyph glyph-name="fourinferior" unicode="&#x2084;" horiz-adv-x="343" 
d="M14 16l219 279h36l-210 -264h177v107l24 35h7v-142h61v-26h-61v-95h-31v95h-222v11z" />
    <glyph glyph-name="fiveinferior" unicode="&#x2085;" horiz-adv-x="348" 
d="M82 294h213v-27h-185q-7 -54 -14 -130q33 11 73 11q62 0 102 -32t40 -88t-42 -90t-105 -34q-78 0 -128 41v38q49 -52 128 -52q51 0 83 26.5t32 70.5q0 43 -31.5 67.5t-81.5 24.5q-54 0 -98 -23l-2 1q-3 0 -5 1z" />
    <glyph glyph-name="sixinferior" unicode="&#x2086;" horiz-adv-x="340" 
d="M64 131l105 165h36l-105 -163l1 -1q25 20 74 20q59 0 97 -36q39 -34 39 -87q0 -55 -40.5 -90t-102.5 -35q-65 0 -102.5 33.5t-37.5 88.5q0 46 36 105zM170 124q-47 0 -78 -26.5t-31 -69.5t29.5 -69.5t77.5 -26.5t79 26.5t31 69.5q0 41 -30.5 68.5t-77.5 27.5z" />
    <glyph glyph-name="seveninferior" unicode="&#x2087;" horiz-adv-x="316" 
d="M237 267h-216v28h260v-5l-186 -381h-33z" />
    <glyph glyph-name="eightinferior" unicode="&#x2088;" horiz-adv-x="347" 
d="M293 196q0 -26 -17 -49t-44 -35q36 -11 56.5 -37t20.5 -59q0 -49 -37.5 -80.5t-97.5 -31.5q-63 0 -100.5 30.5t-37.5 80.5q0 30 21.5 57t54.5 40q-27 12 -43 35t-16 49q0 46 33.5 75t87.5 29q51 0 85 -29.5t34 -74.5zM276 15q0 37 -29 60t-73 23q-45 0 -75 -24
q-30 -22 -30 -59t28 -60.5t77 -23.5q45 0 73.5 24t28.5 60zM173 271q-39 0 -63.5 -20.5t-24.5 -53.5q0 -30 25 -51t63 -21t62.5 21t24.5 51q0 31 -25 52.5t-62 21.5z" />
    <glyph glyph-name="nineinferior" unicode="&#x2089;" horiz-adv-x="337" 
d="M270 75l-102 -166h-36l99 162q-23 -17 -68 -17q-59 0 -97 34t-38 89q0 54 40 88.5t102 34.5t99.5 -34t37.5 -86q0 -47 -37 -105zM168 82q46 0 76 26t30 69q0 42 -28.5 68.5t-75.5 26.5q-48 0 -79 -26.5t-31 -68.5t30 -68.5t78 -26.5z" />
    <glyph glyph-name="plusinferior" unicode="&#x208a;" horiz-adv-x="348" 
d="M164 60h-111v22h111v99h25v-99h109v-22h-109v-102h-25v102z" />
    <glyph glyph-name="hypheninferior" unicode="&#x208b;" horiz-adv-x="276" 
d="M241 49h-206v26h206v-26z" />
    <glyph glyph-name="equalinferior" unicode="&#x208c;" horiz-adv-x="342" 
d="M296 102h-250v22h250v-22zM296 20h-250v22h250v-22z" />
    <glyph glyph-name="parenleftinferior" unicode="&#x208d;" horiz-adv-x="185" 
d="M148 370l20 -7q-32 -36 -62 -102q-29 -67 -29 -149q0 -151 91 -267l-20 -6q-103 112 -103 273q0 84 32 151q31 64 71 107z" />
    <glyph glyph-name="parenrightinferior" unicode="&#x208e;" horiz-adv-x="183" 
d="M15 362l19 7q40 -41 71 -107q33 -66 33 -151q0 -158 -104 -273l-19 6q90 120 90 267q0 83 -30 149q-29 66 -60 102z" />
    <glyph glyph-name="Euro" unicode="&#x20ac;" horiz-adv-x="540" 
d="M504 57v-33q-63 -30 -141 -30q-123 0 -198.5 74.5t-82.5 209.5h-44v25h402v-25h-321q4 -119 72 -187q69 -66 174 -66q69 0 139 32zM486 644v-33q-64 24 -123 24q-101 0 -165 -66q-63 -65 -74 -175h316v-25h-402v25h47q12 124 86 198t191 74q67 0 124 -22z" />
    <glyph glyph-name="centigrade" unicode="&#x2103;" horiz-adv-x="862" 
d="M158 650q-36 0 -60.5 -26t-24.5 -63q0 -36 24.5 -61.5t60.5 -25.5q39 0 65 25.5t26 61.5q0 37 -26 63t-65 26zM158 677q51 0 85 -33.5t34 -82.5q0 -48 -34 -80.5t-85 -32.5t-82 32t-31 81t33 82q33 34 80 34zM836 75v-38q-36 -21 -89 -33.5t-101 -12.5q-159 0 -247 94
q-89 95 -89 242q0 149 98 247t242 98q105 0 160 -28v-38q-69 32 -157 32q-127 0 -216 -87q-87 -85 -87 -224q0 -136 79 -218q80 -83 220 -83q102 0 187 49z" />
    <glyph glyph-name="fahrenheit" unicode="&#x2109;" horiz-adv-x="808" 
d="M162 650q-36 0 -60.5 -26t-24.5 -63q0 -36 24.5 -61.5t60.5 -25.5q39 0 65 25.5t26 61.5q0 37 -26 63t-65 26zM162 677q51 0 85 -33.5t34 -82.5q0 -48 -34 -80.5t-85 -32.5t-82 32t-31 81t33 82q33 34 80 34zM420 311v-311h-38v661h411v-35h-373v-280h340v-35h-340z" />
    <glyph glyph-name="afii61289" unicode="&#x2113;" horiz-adv-x="472" 
d="M70 181l-14 24l64 54v226q0 105 36.5 157t99.5 52q44 0 73 -28.5t29 -80.5q0 -150 -205 -340v-91q0 -132 101 -132q39 0 74.5 28t58.5 78l26 -13q-27 -58 -69 -91t-92 -33q-63 0 -96 39t-35 110v82q-3 -2 -25.5 -20.5t-25.5 -20.5zM153 487l1 -203q173 176 173 299
q0 38 -20 60.5t-53 22.5q-44 0 -72.5 -46t-28.5 -133z" />
    <glyph glyph-name="afii61352" unicode="&#x2116;" horiz-adv-x="1040" 
d="M828 669q68 0 112 -44q45 -43 45 -108t-45 -109q-46 -44 -112 -44q-71 0 -114.5 43t-43.5 110q0 65 46 108q47 44 112 44zM555 84v576h37v-662h-10l-460 580v-578h-37v664h11l457 -580h2zM828 641q-53 0 -89 -36q-35 -37 -35 -88q0 -54 34.5 -89.5t89.5 -35.5
q54 0 88 35.5t34 89.5q0 52 -34.5 88t-87.5 36zM985 309v-30h-309v30h309z" />
    <glyph glyph-name="published" unicode="&#x2117;" horiz-adv-x="821" 
d="M412 -13q-163 0 -260 102q-97 103 -97 265q0 156 104 260t253 104q147 0 251 -104q103 -103 103 -260q0 -156 -104 -262q-104 -105 -250 -105zM412 688q-136 0 -232 -96q-95 -95 -95 -238q0 -148 87 -243q89 -95 233 -95q136 0 233 97q98 98 98 241t-95 238
q-95 96 -229 96zM455 273h-123v-161h-35v463h158q76 0 120 -44q43 -43 43 -105q0 -72 -48 -112q-47 -41 -115 -41zM584 426q0 53 -36.5 87.5t-100.5 34.5h-115v-247h121q59 0 95 35t36 90z" />
    <glyph glyph-name="trademark" unicode="&#x2122;" horiz-adv-x="750" 
d="M667 672v-362h-30v286h-2l-131 -181h-7l-128 179h-2v-284h-31v362h9l155 -214h3l155 214h9zM179 646v-336h-31v336h-116v26h262v-26h-115z" />
    <glyph glyph-name="Ohm" unicode="&#x2126;" horiz-adv-x="790" 
d="M596 34h144v-34h-234v9q93 38 143 128q51 90 51 189q0 128 -84 220t-219 92q-133 0 -220 -90t-87 -222q0 -98 50 -189q51 -90 143 -128v-9h-233v34h141v3q-66 45 -103 120t-37 163q0 150 99 251q99 102 247 102q146 0 244 -101q97 -100 97 -247q0 -87 -37.5 -163.5
t-104.5 -124.5v-3z" />
    <glyph glyph-name="angstrom" unicode="&#x212b;" horiz-adv-x="599" 
d="M583 0h-40l-69 165h-352l-69 -165h-38l279 663h10zM460 198l-163 390l-161 -390h324zM297 815q-24 0 -39.5 -16.5t-15.5 -40.5t15.5 -40.5t39.5 -16.5q34 -2 48.5 27.5t0 59t-48.5 27.5zM297 838q35 0 57.5 -23t22.5 -57t-22.5 -57t-57.5 -23q-36 0 -57.5 22t-21.5 58
q0 34 22.5 57t56.5 23z" />
    <glyph glyph-name="estimated" unicode="&#x212e;" horiz-adv-x="817" 
d="M760 320h-570v-205q34 -48 94 -80q62 -30 126 -30t128 33q65 33 107 84h43q-54 -63 -126.5 -98t-152.5 -35q-145 0 -248 100t-103 240q0 137 103 234t248 97q148 0 248 -97q101 -97 103 -243zM190 334h436v204q-30 50 -91 78q-63 29 -125 29q-57 0 -116 -29t-104 -80
v-202z" />
    <glyph glyph-name="onethird" unicode="&#x2153;" horiz-adv-x="750" 
d="M642 357h-198v28h256v-7l-141 -141q66 0 105 -32.5t39 -86.5q0 -57 -43 -91q-44 -33 -105 -33q-77 0 -130 41v36q59 -50 131 -50q51 0 82.5 26.5t31.5 70.5q0 46 -33 70t-89 24q-21 0 -37 -2l-5 9zM62 574v32l140 82h6v-389h-32v340l-57 -33q-28 -15 -57 -32zM571 681h32
l-521 -700h-32z" />
    <glyph glyph-name="twothirds" unicode="&#x2154;" horiz-adv-x="750" 
d="M74 548l-34 5q-3 11 -3 30q0 47 36.5 77t90.5 30q56 0 92.5 -27.5t36.5 -76.5q0 -64 -100 -122q-47 -26 -84 -55q-48 -38 -52 -83h240v-27h-275q2 70 48 112q35 34 97 72q41 26 43 28q19 14 34.5 34.5t15.5 39.5q0 37 -26.5 57t-69.5 20q-42 0 -68.5 -23.5t-26.5 -59.5
q0 -6 5 -31zM664 357h-198v28h256v-7l-141 -141q66 0 105 -32.5t39 -86.5q0 -57 -43 -91q-44 -33 -105 -33q-77 0 -130 41v36q59 -50 131 -50q51 0 82.5 26.5t31.5 70.5q0 46 -33 70t-89 24q-21 0 -37 -2l-5 9zM618 681h32l-521 -700h-32z" />
    <glyph glyph-name="onefifth" unicode="&#x2155;" horiz-adv-x="750" 
d="M475 384h213v-27h-185q-7 -54 -14 -130q33 11 73 11q62 0 102 -32t40 -88t-42 -90t-105 -34q-78 0 -128 41v38q49 -52 128 -52q51 0 83 26.5t32 70.5q0 43 -31.5 67.5t-81.5 24.5q-54 0 -98 -23q-1 0 -2 1q-3 0 -5 1l6 61q6 43 15 134zM55 574v32l140 82h6v-389h-32v340
l-57 -33q-28 -15 -57 -32zM579 681h32l-521 -700h-32z" />
    <glyph glyph-name="twofifths" unicode="&#x2156;" horiz-adv-x="750" 
d="M489 384h213v-27h-185q-7 -54 -14 -130q33 11 73 11q62 0 102 -32t40 -88t-42 -90t-105 -34q-78 0 -128 41v38q49 -52 128 -52q51 0 83 26.5t32 70.5q0 43 -31.5 67.5t-81.5 24.5q-54 0 -98 -23q-1 0 -2 1q-3 0 -5 1l6 61q6 43 15 134zM83 548l-34 5q-3 11 -3 30
q0 47 36.5 77t90.5 30q56 0 92.5 -27.5t36.5 -76.5q0 -64 -100 -122q-47 -26 -84 -55q-48 -38 -52 -83h240v-27h-275q2 70 48 112q35 34 97 72q41 26 43 28q19 14 34.5 34.5t15.5 39.5q0 37 -26.5 57t-69.5 20q-42 0 -68.5 -23.5t-26.5 -59.5q0 -6 5 -31zM632 681h32
l-521 -700h-32z" />
    <glyph glyph-name="threefifths" unicode="&#x2157;" horiz-adv-x="750" 
d="M485 384h213v-27h-185q-7 -54 -14 -130q33 11 73 11q62 0 102 -32t40 -88t-42 -90t-105 -34q-78 0 -128 41v38q49 -52 128 -52q51 0 83 26.5t32 70.5q0 43 -31.5 67.5t-81.5 24.5q-54 0 -98 -23l-2 1q-3 0 -5 1l6 61q6 43 15 134zM251 655h-198v28h256v-7l-141 -141
q66 0 105 -32.5t39 -86.5q0 -57 -43 -91q-43 -33 -105 -33q-77 0 -130 41v36q59 -50 131 -50q51 0 82.5 26.5t31.5 70.5q0 46 -33 70t-89 24q-21 0 -37 -2l-5 9zM607 681h32l-521 -700h-32z" />
    <glyph glyph-name="fourfifths" unicode="&#x2158;" horiz-adv-x="750" 
d="M505 384h213v-27h-185q-7 -54 -14 -130q33 11 73 11q62 0 102 -32t40 -88t-42 -90t-105 -34q-78 0 -128 41v38q49 -52 128 -52q51 0 83 26.5t32 70.5q0 43 -31.5 67.5t-81.5 24.5q-54 0 -98 -23q-1 0 -2 1q-3 0 -5 1l6 61q6 43 15 134zM14 406l219 279h36l-210 -264h177
v107l24 35h7v-142h61v-26h-61v-95h-31v95h-222v11zM621 681h32l-521 -700h-32z" />
    <glyph glyph-name="onesixth" unicode="&#x2159;" horiz-adv-x="750" 
d="M436 221l105 165h36l-105 -163l1 -1q25 20 74 20q59 0 97 -36q39 -34 39 -87q0 -55 -40.5 -90t-102.5 -35q-65 0 -102.5 33.5t-37.5 88.5q0 46 36 105zM542 214q-47 0 -78 -26.5t-31 -69.5t29.5 -69.5t77.5 -26.5t79 26.5t31 69.5q0 41 -30.5 68.5t-77.5 27.5zM66 574v32
l140 82h6v-389h-32v340l-57 -33q-28 -15 -57 -32zM598 681h32l-521 -700h-32z" />
    <glyph glyph-name="fivesixths" unicode="&#x215a;" horiz-adv-x="750" 
d="M81 684h213v-27h-185q-7 -54 -14 -130q33 11 73 11q62 0 102 -32t40 -88t-42.5 -90.5t-104.5 -34.5q-79 0 -128 42v38q49 -52 128 -52q51 0 83 26.5t32 70.5q0 43 -31.5 67.5t-81.5 24.5q-54 0 -98 -23q-1 0 -2 1q-3 0 -5 1l6 61q6 43 15 134zM467 221l105 165h36
l-105 -163l1 -1q25 20 74 20q60 0 97 -36q39 -34 39 -87q0 -55 -40.5 -90t-102.5 -35q-65 0 -102.5 33.5t-37.5 88.5q0 46 36 105zM573 214q-47 0 -78 -26.5t-31 -69.5t29.5 -69.5t77.5 -26.5t79 26.5t31 69.5q0 41 -30.5 68.5t-77.5 27.5zM625 681h32l-521 -700h-32z" />
    <glyph glyph-name="oneeighth" unicode="&#x215b;" horiz-adv-x="750" 
d="M672 286q0 -26 -17 -49t-44 -35q36 -11 56.5 -37t20.5 -59q0 -49 -37.5 -80.5t-97.5 -31.5q-63 0 -100.5 30.5t-37.5 80.5q0 30 21.5 57t54.5 40q-27 12 -43 35t-16 49q0 46 33.5 75t87.5 29q51 0 85 -29.5t34 -74.5zM655 105q0 37 -29 60t-73 23q-45 0 -75 -24
q-30 -22 -30 -59t28 -60.5t77 -23.5q45 0 73.5 24t28.5 60zM552 361q-39 0 -63.5 -20.5t-24.5 -53.5q0 -30 25 -51t63 -21t62.5 21t24.5 51q0 31 -25 52.5t-62 21.5zM61 574v32l140 82h6v-389h-32v340l-57 -33q-28 -15 -57 -32zM576 681h32l-521 -700h-32z" />
    <glyph glyph-name="threeeighths" unicode="&#x215c;" horiz-adv-x="750" 
d="M690 286q0 -26 -17 -49t-44 -35q36 -11 56.5 -37t20.5 -59q0 -49 -37.5 -80.5t-97.5 -31.5q-63 0 -100.5 30.5t-37.5 80.5q0 30 21.5 57t54.5 40q-27 12 -43 35t-16 49q0 46 33.5 75t87.5 29q51 0 85 -29.5t34 -74.5zM673 105q0 37 -29 60t-73 23q-45 0 -75 -24
q-30 -22 -30 -59t28 -60.5t77 -23.5q45 0 73.5 24t28.5 60zM570 361q-39 0 -63.5 -20.5t-24.5 -53.5q0 -30 25 -51t63 -21t62.5 21t24.5 51q0 31 -25 52.5t-62 21.5zM259 655h-198v28h256v-7l-141 -141q66 0 105 -32.5t39 -86.5q0 -57 -43 -91q-43 -33 -105 -33
q-77 0 -130 41v36q59 -50 131 -50q51 0 82.5 26.5t31.5 70.5q0 46 -33 70t-89 24q-21 0 -37 -2l-5 9zM615 681h32l-521 -700h-32z" />
    <glyph glyph-name="fiveeighths" unicode="&#x215d;" horiz-adv-x="750" 
d="M82 684h213v-27h-185q-7 -54 -14 -130q33 11 73 11q62 0 102 -32t40 -88t-42.5 -90.5t-104.5 -34.5q-78 0 -128 42v38q49 -52 128 -52q51 0 83 26.5t32 70.5q0 43 -31.5 67.5t-81.5 24.5q-54 0 -98 -23l-2 1q-3 0 -5 1l6 61q6 43 15 134zM696 286q0 -26 -17 -49t-44 -35
q36 -11 56.5 -37t20.5 -59q0 -49 -37.5 -80.5t-97.5 -31.5q-63 0 -100.5 30.5t-37.5 80.5q0 30 21.5 57t54.5 40q-27 12 -43 35t-16 49q0 46 33.5 75t87.5 29q51 0 85 -29.5t34 -74.5zM679 105q0 37 -29 60t-73 23q-45 0 -75 -24q-30 -22 -30 -59t28 -60.5t77 -23.5
q45 0 73.5 24t28.5 60zM576 361q-39 0 -63.5 -20.5t-24.5 -53.5q0 -30 25 -51t63 -21t62.5 21t24.5 51q0 31 -25 52.5t-62 21.5zM614 681h32l-521 -700h-32z" />
    <glyph glyph-name="seveneighths" unicode="&#x215e;" horiz-adv-x="750" 
d="M681 286q0 -26 -17 -49t-44 -35q36 -11 56.5 -37t20.5 -59q0 -49 -37.5 -80.5t-97.5 -31.5q-63 0 -100.5 30.5t-37.5 80.5q0 30 21.5 57t54.5 40q-27 12 -43 35t-16 49q0 46 33.5 75t87.5 29q51 0 85 -29.5t34 -74.5zM664 105q0 37 -29 60t-73 23q-45 0 -75 -24
q-30 -22 -30 -59t28 -60.5t77 -23.5q45 0 73.5 24t28.5 60zM561 361q-39 0 -63.5 -20.5t-24.5 -53.5q0 -30 25 -51t63 -21t62.5 21t24.5 51q0 31 -25 52.5t-62 21.5zM267 657h-217v28h260v-5l-186 -382h-33zM569 681h32l-521 -700h-32z" />
    <glyph glyph-name="uni215F" unicode="&#x215f;" horiz-adv-x="438" 
d="M89 574v32l140 82h6v-389h-32v340l-57 -33q-28 -15 -57 -32zM611 681h32l-521 -700h-32z" />
    <glyph glyph-name="partialdiff" unicode="&#x2202;" horiz-adv-x="521" 
d="M139 679l10 30q17 4 47 4q69 0 122 -31t83.5 -85t46 -120t15.5 -141q0 -162 -57.5 -252t-159.5 -90q-87 0 -138.5 56.5t-51.5 157.5q0 94 53 153q54 59 139 59q104 0 177 -75q-1 149 -62 243q-60 94 -172 94q-29 0 -52 -3zM247 26q83 0 129 79q48 81 49 199
q-75 85 -176 85q-73 0 -115 -52q-42 -51 -42 -128q0 -89 41.5 -136t113.5 -47z" />
    <glyph glyph-name="gradient" unicode="&#x2207;" horiz-adv-x="624" 
d="M306 -3l-289 663h592l-290 -663h-13zM71 626l240 -556l242 556h-482z" />
    <glyph glyph-name="product" unicode="&#x220f;" horiz-adv-x="617" 
d="M542 661v-770h-37v735h-392v-735h-38v770h467z" />
    <glyph glyph-name="summation" unicode="&#x2211;" horiz-adv-x="582" 
d="M105 -73h441v-36h-501v8l220 398l-211 353v10h473v-35h-411l195 -327z" />
    <glyph glyph-name="minus" unicode="&#x2212;" horiz-adv-x="540" 
d="M449 313v-30h-369v30h369z" />
    <glyph glyph-name="radical" unicode="&#x221a;" horiz-adv-x="515" 
d="M491 752l-249 -790h-13l-130 362q-5 -2 -27.5 -12.5t-30.5 -13.5l-10 27q14 7 89 43l114 -332l11 33q36 124 105 337q74 229 107 346h34z" />
    <glyph glyph-name="infinity" unicode="&#x221e;" horiz-adv-x="754" 
d="M204 422q91 0 181 -119q50 61 92.5 90t91.5 29q62 0 102 -39t40 -102q0 -65 -43 -105t-104 -40q-85 0 -180 116q-94 -115 -183 -115q-60 0 -100 40q-41 41 -41 102q0 62 41 103q40 40 103 40zM566 390q-75 0 -160 -112q46 -59 82 -84.5t77 -25.5q46 0 78.5 32.5
t32.5 80.5q0 50 -31.5 79.5t-78.5 29.5zM205 169q74 0 160 107q-85 114 -163 114q-46 0 -77.5 -31.5t-31.5 -79.5t32 -79t80 -31z" />
    <glyph glyph-name="logicaland" unicode="&#x2227;" horiz-adv-x="540" 
d="M270 472l212 -472h-37l-181 404l-170 -404h-37l201 472h12z" />
    <glyph glyph-name="logicalor" unicode="&#x2228;" horiz-adv-x="540" 
d="M264 67l181 404h37l-212 -472h-12l-201 472h37z" />
    <glyph glyph-name="intersection" unicode="&#x2229;" horiz-adv-x="540" 
d="M114 272v-272h-36q0 65 -1 137v137q0 90 52.5 143t139.5 53t140 -56t53 -148v-266h-37v267q0 76 -42.5 122.5t-114.5 46.5q-71 0 -112.5 -44t-41.5 -120z" />
    <glyph glyph-name="union" unicode="&#x222a;" horiz-adv-x="540" 
d="M78 466h36v-272q0 -74 42 -118.5t112 -44.5q72 0 114.5 46.5t42.5 122.5v266h37v-265q0 -92 -53 -148q-52 -55 -140 -55q-87 0 -139.5 53t-52.5 143v135q1 72 1 137z" />
    <glyph glyph-name="integral" unicode="&#x222b;" horiz-adv-x="322" 
d="M319 718v-28q-29 7 -59 7q-99 0 -99 -130q0 -108 18 -282q17 -167 19 -267q0 -163 -114 -163q-39 0 -72 10v30q30 -10 67 -10q84 0 84 115q0 100 -18 281t-18 286q0 77 32 119.5t93 42.5q34 0 67 -11z" />
    <glyph glyph-name="approxequal" unicode="&#x2248;" horiz-adv-x="540" 
d="M105 318l-19 18q35 68 99 68q29 0 94 -27q66 -26 84 -26q43 0 69 53l20 -18q-27 -65 -90 -65q-27 0 -93 26q-65 27 -85 27q-47 0 -79 -56zM105 186l-9 8q-8 7 -10 10q34 67 99 67q29 0 94 -27q66 -26 84 -26q43 0 69 53l20 -18q-27 -64 -90 -64q-27 0 -93 26
q-64 26 -85 26q-46 0 -79 -55z" />
    <glyph glyph-name="notequal" unicode="&#x2260;" horiz-adv-x="540" 
d="M218 204l-83 -106h-33l83 106h-106v29h133l100 128h-233v30h260l70 91h33l-70 -91h84v-30h-111l-100 -128h211v-29h-238z" />
    <glyph glyph-name="lessequal" unicode="&#x2264;" horiz-adv-x="540" 
d="M58 15v32h422v-32h-422zM137 290l340 -147v-36l-416 177v10l416 176v-35z" />
    <glyph glyph-name="greaterequal" unicode="&#x2265;" horiz-adv-x="540" 
d="M477 284l-416 -177v36l340 147l-340 145v35l416 -176v-10zM58 15v32h422v-32h-422z" />
    <glyph glyph-name="lozenge" unicode="&#x25ca;" horiz-adv-x="540" 
d="M429 340l-158 286l-162 -286l162 -290zM470 340l-191 -340h-17l-193 340l192 336h19z" />
    <glyph glyph-name="zero.text" unicode="&#xe000;" horiz-adv-x="540" 
d="M268 670q55 0 98.5 -21.5t68.5 -58.5q24 -35 39 -82q24 -77 24 -180q0 -100 -24 -176q-51 -161 -206 -161q-135 0 -186 116q-41 95 -41 221q2 143 41 224q61 118 186 118zM268 638q-57 0 -97.5 -29.5t-59.5 -81.5q-32 -91 -32 -199q0 -109 32 -198q19 -50 59.5 -78.5
t97.5 -28.5q58 0 99.5 29t60.5 80q33 88 33 196q0 109 -33 199q-19 52 -60.5 81.5t-99.5 29.5z" />
    <glyph glyph-name="one.text" unicode="&#xe001;" horiz-adv-x="432" 
d="M55 524l215 137h11v-661h-38v601l-188 -118v41z" />
    <glyph glyph-name="two.text" unicode="&#xe002;" horiz-adv-x="540" 
d="M87 31h393v-31h-424l-11 7q1 106 65 175q30 32 65 61q25 20 84 59q94 62 134 105t40 90q0 67 -45 103.5t-119 36.5q-70 0 -114 -42.5t-44 -108.5q0 -27 5 -49l-40 6q-4 17 -4 50q0 77 57 127q58 49 141 49q85 0 144 -44t59 -127q0 -105 -160 -202q-43 -26 -75 -48
q-30 -22 -69 -57q-81 -71 -82 -160z" />
    <glyph glyph-name="three.text" unicode="&#xe003;" horiz-adv-x="528" 
d="M383 629h-335v31h400q0 -9 1 -12l-230 -247h10q102 0 163.5 -54t61.5 -144q0 -97 -68 -154t-166 -57q-120 0 -203 66v43q86 -77 204 -77q85 0 140 49t55 128q0 80 -54 124.5t-145 44.5q-35 0 -54 -4q-6 6 -8 12l229 248v1q-1 1 -1 2z" />
    <glyph glyph-name="four.text" unicode="&#xe004;" horiz-adv-x="540" 
d="M382 415l29 44h7v-255h93v-31h-93v-173h-36v173h-365v10l357 478h45l-342 -457h305v211z" />
    <glyph glyph-name="five.text" unicode="&#xe005;" horiz-adv-x="540" 
d="M127 660h336v-30h-304l-26 -250q53 24 129 24q95 0 159 -52q66 -52 66 -149q0 -100 -68 -156q-67 -55 -167 -55q-122 0 -200 66v44q35 -35 87.5 -57t112.5 -22q86 0 141 49q56 50 56 130q0 83 -55 126q-56 44 -138 44q-86 0 -154 -40l-12 4q4 28 19 163z" />
    <glyph glyph-name="six.text" unicode="&#xe006;" horiz-adv-x="540" 
d="M107 381l167 279h41l-183 -307l1 -1h2q47 54 144 54q93 0 152 -59q60 -59 60 -149q0 -92 -63 -150q-62 -57 -158 -57q-102 0 -163 57q-60 57 -60 150q0 84 60 183zM273 374q-80 0 -135 -46q-54 -45 -54 -130q0 -77 50 -127q52 -50 136 -50q83 0 133 50q51 50 51 127
q0 78 -50 127t-131 49z" />
    <glyph glyph-name="seven.text" unicode="&#xe007;" horiz-adv-x="455" 
d="M383 629h-353v31h399v-11l-295 -649h-37z" />
    <glyph glyph-name="eight.text" unicode="&#xe008;" horiz-adv-x="540" 
d="M464 500q0 -52 -31.5 -92t-84.5 -54v-2q68 -18 105 -63.5t37 -109.5q0 -84 -61 -136t-158 -52q-103 0 -163 51q-59 51 -59 134q0 61 38 108t103 63v3q-54 18 -83.5 58.5t-29.5 91.5q0 74 54 122q55 48 140 48q81 0 137 -48t56 -122zM453 180q0 68 -50 110.5t-132 42.5
q-81 0 -134 -44q-51 -43 -51 -110q0 -70 49.5 -114t135.5 -44q83 0 133 45q49 46 49 114zM271 637q-70 0 -113 -38.5t-43 -99.5q0 -59 43.5 -97t112.5 -38q67 0 111 38q44 39 44 97q0 59 -44 98q-43 40 -111 40z" />
    <glyph glyph-name="nine.text" unicode="&#xe009;" horiz-adv-x="540" 
d="M429 284l-166 -284h-42l181 310l-3 1q-44 -53 -140 -53q-91 0 -150 57q-59 59 -59 148q0 91 62 148q61 58 156 58q100 0 159 -57q60 -57 60 -149q0 -81 -58 -179zM265 290q79 0 132 45t53 128q0 78 -49.5 126.5t-132.5 48.5q-81 0 -131 -50t-50 -125q0 -76 49 -125
q50 -48 129 -48z" />
    <glyph glyph-name="numbersign.text" unicode="&#xe00a;" horiz-adv-x="521" 
d="M377 448l40 180h28q-5 -18 -12 -52l-17 -77l-11 -51h84v-25h-90l-41 -184h90v-25h-96l-47 -214h-27l47 214h-177l-48 -214h-27l47 214h-88v25h94q30 133 40 184h-96v25h102q19 79 41 180h27l-40 -180h177zM371 423h-177l-41 -184h178z" />
    <glyph glyph-name="dollar.text" unicode="&#xe00b;" horiz-adv-x="540" 
d="M288 -107h-32v102q-111 0 -188 56v38q85 -64 189 -64q81 0 128.5 37.5t47.5 102.5q0 47 -25.5 81.5t-64.5 53.5t-83.5 39t-83.5 38t-64.5 51t-25.5 78q0 70 47 110t123 44v101h32v-100q81 -3 146 -40v-40q-70 48 -157 48q-154 0 -154 -125q0 -71 123 -122
q40 -15 62 -24.5t58 -29.5t55.5 -39.5t34.5 -50t15 -65.5q0 -79 -50 -125t-133 -51v-104z" />
    <glyph glyph-name="euro.text" unicode="&#xe00c;" horiz-adv-x="540" 
d="M504 57v-33q-63 -30 -141 -30q-123 0 -198.5 74.5t-82.5 209.5h-44v25h402v-25h-321q4 -119 72 -187q69 -66 174 -66q69 0 139 32zM486 644v-33q-64 24 -123 24q-101 0 -165 -66q-63 -65 -74 -175h316v-25h-402v25h47q12 124 86 198t191 74q67 0 124 -22z" />
    <glyph glyph-name="florin.text" unicode="&#xe00d;" horiz-adv-x="440" 
d="M170 128l27 228h-89v29h94l11 97q21 186 152 186q36 0 69 -11v-32q-33 11 -65 11q-54 0 -82 -37.5t-37 -117.5l-12 -96h115v-29h-118l-24 -196q-14 -136 -48.5 -193.5t-105.5 -57.5q-36 0 -75 14v36q40 -15 71 -15q55 0 79 42q24 38 38 142z" />
    <glyph glyph-name="sterling.text" unicode="&#xe00e;" horiz-adv-x="522" 
d="M457 651v-33q-51 17 -89 17q-74 0 -117 -46t-44 -136l-1 -100h201v-27h-201q-5 -222 -72 -295h333v-31h-389v9q52 50 70 126q18 75 21 191h-80v27h80l1 101q1 60 19.5 103.5t48.5 66.5t62 33t67 10q48 0 90 -16z" />
    <glyph glyph-name="cent.text" unicode="&#xe00f;" horiz-adv-x="521" 
d="M328 14h-32v102q-97 7 -151 69q-53 64 -53 158q0 95 58 159q58 66 147 75v103h32v-102q55 -1 98 -19v-36q-43 23 -102 23q-83 0 -139 -56t-56 -147q0 -88 52 -141.5t141 -53.5q73 0 122 33v-37q-48 -27 -117 -28v-102z" />
    <glyph glyph-name="yen.text" unicode="&#xe010;" horiz-adv-x="540" 
d="M487 308v-25h-416v25h173l-197 353h44l183 -343h2l188 342h39l-198 -352h182zM294 193v-193h-38v193h-185v25h416v-25h-193z" />
    <glyph glyph-name="zero.taboldstyle" unicode="&#xe024;" horiz-adv-x="521" 
d="M261 453q98 0 162 -67q65 -67 65 -164t-65 -165q-65 -66 -162 -66q-104 0 -167 65q-62 67 -62 166q0 97 67 164t162 67zM261 421q-82 0 -137 -58q-54 -59 -54 -141q0 -87 52 -143q52 -57 139 -57q85 0 137 58q53 59 53 142q0 82 -54 141q-52 58 -136 58z" />
    <glyph glyph-name="one.taboldstyle" unicode="&#xe025;" horiz-adv-x="521" 
d="M263 395l-179 -101v37l203 115h12v-416h162v-30h-379v30h181v365z" />
    <glyph glyph-name="two.taboldstyle" unicode="&#xe026;" horiz-adv-x="521" 
d="M119 264l-39 5q-6 24 -6 41q0 60 52 102q52 43 140 43q87 0 137 -37t50 -99q0 -50 -38 -84.5t-116 -66.5q-63 -25 -92 -39q-36 -17 -66.5 -43t-38.5 -55h364v-31h-411q7 59 47.5 98.5t131.5 79.5q6 2 27 11.5t27 11.5q1 0 24 11q28 14 46 25q56 33 57 82q0 47 -39 75.5
t-111 28.5q-73 0 -114 -36q-40 -36 -40 -83q0 -21 8 -40z" />
    <glyph glyph-name="three.taboldstyle" unicode="&#xe027;" horiz-adv-x="521" 
d="M24 -111v42q80 -71 186 -71q78 0 128 45q51 44 51 116q0 73 -51 114.5t-134 41.5q-25 0 -55 -6l-5 10l212 230h-307v32h370v-12l-210 -225q98 0 157 -49.5t59 -134.5q0 -88 -63 -141q-64 -53 -154 -53q-110 0 -184 61z" />
    <glyph glyph-name="four.taboldstyle" unicode="&#xe028;" horiz-adv-x="521" 
d="M357 227l29 44h7v-241h98v-30h-98v-167h-36v167h-336v10l329 433h41l-314 -413h280v197z" />
    <glyph glyph-name="five.taboldstyle" unicode="&#xe029;" horiz-adv-x="521" 
d="M243 -173q-110 0 -184 61v42q69 -71 185 -71q77 0 128 45q52 43 52 118q0 68 -53 112q-53 45 -125 45q-73 0 -137 -37l-11 4l30 297h309v-32h-283l-22 -224q52 24 119 24q87 0 148 -49q62 -50 62 -140q0 -91 -64 -143q-62 -52 -154 -52z" />
    <glyph glyph-name="six.taboldstyle" unicode="&#xe02a;" horiz-adv-x="521" 
d="M109 348l154 258h40l-162 -267h3q41 41 124 41q87 0 142 -55q56 -56 56 -138q0 -85 -59 -141q-59 -54 -151 -54q-93 0 -147.5 52.5t-54.5 137.5q0 74 55 166zM259 347q-70 0 -119 -44q-48 -43 -48 -117q0 -73 45 -118t120 -45q76 0 124 45t48 118q0 70 -48 115
q-46 46 -122 46z" />
    <glyph glyph-name="seven.taboldstyle" unicode="&#xe02b;" horiz-adv-x="521" 
d="M394 411h-333v32h382v-12l-277 -597h-39z" />
    <glyph glyph-name="eight.taboldstyle" unicode="&#xe02c;" horiz-adv-x="521" 
d="M434 457q0 -44 -28 -82t-71 -55q58 -16 91 -57.5t33 -96.5q0 -77 -55 -126t-143 -49q-93 0 -146.5 46.5t-53.5 125.5q0 53 35 97q36 44 90 60q-45 16 -72 54t-27 83q0 70 48 115q49 45 126 45q75 0 124 -46q49 -45 49 -114zM422 163q0 63 -45 102.5t-116 39.5
q-70 0 -116 -40t-46 -102t43.5 -102t118.5 -40q73 0 117 41q44 42 44 101zM260 583q-61 0 -100 -36q-38 -36 -38 -89q0 -52 39 -87t99 -35t98.5 35t38.5 87q0 53 -40 89q-39 36 -97 36z" />
    <glyph glyph-name="nine.taboldstyle" unicode="&#xe02d;" horiz-adv-x="521" 
d="M412 98l-159 -264h-41l166 269l-1 4q-41 -41 -125 -41q-88 0 -143 55t-55 138q0 85 59 141q58 55 151 55q94 0 148 -54q54 -53 54 -137q0 -78 -54 -166zM261 98q70 0 119 44q49 43 49 118q0 73 -45.5 118t-120.5 45t-124 -46q-48 -45 -48 -117q0 -69 47 -116
q47 -46 123 -46z" />
    <glyph glyph-name="numbersign.taboldstyle" unicode="&#xe02e;" horiz-adv-x="521" 
d="M299 0h-27l37 160h-143l-37 -160h-28l37 160h-74v26h80l35 149h-82v28h87l32 140h29l-34 -140h143l16 68q15 67 16 72h28l-32 -140h74v-28h-80l-34 -149h79v-26h-85zM348 335h-142l-34 -149h141z" />
    <glyph glyph-name="dollar.taboldstyle" unicode="&#xe02f;" horiz-adv-x="521" 
d="M249 555v84h31v-84q65 -3 131 -35v-40q-64 42 -145 42q-61 0 -98 -25t-37 -76q0 -56 111 -98q39 -14 56.5 -21.5t51.5 -25t50.5 -33t30.5 -41t14 -55.5q0 -67 -45 -106.5t-119 -44.5v-90h-33v89q-100 1 -171 47v40q80 -57 176 -57q70 0 113 29.5t43 85.5q0 80 -111 122
q-7 3 -38.5 14.5t-42 16.5t-36.5 17t-36.5 21.5t-25 24t-20 31t-5.5 36.5q0 59 43 93.5t112 38.5z" />
    <glyph glyph-name="euro.taboldstyle" unicode="&#xe030;" horiz-adv-x="521" 
d="M466 56v-35q-61 -29 -128 -29q-107 0 -172.5 59.5t-72.5 170.5h-39v28h349v-28h-273q9 -96 64.5 -147t145.5 -51q64 0 126 32zM453 528v-35q-51 25 -115 25q-84 0 -136.5 -48.5t-67.5 -136.5h269v-28h-349v28h42q14 100 77 159t159 59q64 0 121 -23z" />
    <glyph glyph-name="florin.taboldstyle" unicode="&#xe031;" horiz-adv-x="521" 
d="M214 140l20 149h-85v30h89q12 102 28 154q17 51 45.5 73t81.5 26q29 0 67 -11v-30q-34 9 -63 9q-64 0 -88 -52q-23 -50 -37 -169h111v-30h-114l-21 -158q-16 -121 -47 -178q-28 -55 -99 -55q-36 0 -72 14v34q37 -14 69 -14q53 0 76 45q22 43 39 163z" />
    <glyph glyph-name="sterling.taboldstyle" unicode="&#xe032;" horiz-adv-x="521" 
d="M425 541v-35q-42 16 -90 16q-63 0 -100 -38.5t-38 -114.5l-1 -75h174v-29h-174q-4 -186 -57 -234h302v-31h-358v10q73 39 78 255h-68v29h68l1 76q1 51 17 89t42.5 57.5t54.5 28.5t58 9q52 0 91 -13z" />
    <glyph glyph-name="cent.taboldstyle" unicode="&#xe033;" horiz-adv-x="521" 
d="M277 447v91h31v-91q50 -2 83 -18v-36q-43 24 -93 24q-67 0 -112 -46q-44 -46 -44 -118q0 -71 41.5 -114.5t111.5 -43.5q64 0 111 37v-37q-40 -26 -100 -31v-91h-30v91q-79 4 -125 56.5t-46 132.5q0 78 48 132q49 54 124 62z" />
    <glyph glyph-name="yen.taboldstyle" unicode="&#xe034;" horiz-adv-x="521" 
d="M224 277l-158 266h41l160 -274l150 274h38l-149 -266h141v-28h-366v28h143zM285 164v-164h-36v164h-168v28h366v-28h-162z" />
    <glyph glyph-name="zero.textoldstyle" unicode="&#xe048;" horiz-adv-x="521" 
d="M261 453q98 0 162 -67q65 -67 65 -164t-65 -165q-65 -66 -162 -66q-104 0 -167 65q-62 67 -62 166q0 97 67 164t162 67zM261 421q-82 0 -137 -58q-54 -59 -54 -141q0 -87 52 -143q52 -57 139 -57q85 0 137 58q53 59 53 142q0 82 -54 141q-52 58 -136 58z" />
    <glyph glyph-name="one.textoldstyle" unicode="&#xe049;" horiz-adv-x="457" 
d="M233 395l-179 -101v37l203 115h12v-416h162v-30h-379v30h181v365z" />
    <glyph glyph-name="two.textoldstyle" unicode="&#xe04a;" horiz-adv-x="521" 
d="M119 264l-39 5q-6 24 -6 41q0 60 52 102q52 43 140 43q87 0 137 -37t50 -99q0 -50 -38 -84.5t-116 -66.5q-63 -25 -92 -39q-36 -17 -66.5 -43t-38.5 -55h364v-31h-411q7 59 47.5 98.5t131.5 79.5q6 2 27 11.5t27 11.5q1 0 24 11q28 14 46 25q56 33 57 82q0 47 -39 75.5
t-111 28.5q-73 0 -114 -36q-40 -36 -40 -83q0 -21 8 -40z" />
    <glyph glyph-name="three.textoldstyle" unicode="&#xe04b;" horiz-adv-x="484" 
d="M9 -111v42q80 -71 186 -71q79 0 128 45q51 44 51 116q0 73 -51 114.5t-134 41.5q-25 0 -55 -6l-5 10l212 230h-307v32h370v-12l-210 -225q98 0 157 -49.5t59 -134.5q0 -88 -63 -141q-64 -53 -154 -53q-110 0 -184 61z" />
    <glyph glyph-name="four.textoldstyle" unicode="&#xe04c;" horiz-adv-x="521" 
d="M357 227l29 44h7v-241h98v-30h-98v-167h-36v167h-336v10l329 433h41l-314 -413h280v197z" />
    <glyph glyph-name="five.textoldstyle" unicode="&#xe04d;" horiz-adv-x="513" 
d="M235 -173q-110 0 -184 61v42q69 -71 185 -71q77 0 128 45q52 43 52 118q0 68 -53 112q-53 45 -125 45q-73 0 -137 -37l-11 4l30 297h309v-32h-283l-22 -224q52 24 119 24q87 0 148 -49q62 -50 62 -140q0 -91 -64 -143q-62 -52 -154 -52z" />
    <glyph glyph-name="six.textoldstyle" unicode="&#xe04e;" horiz-adv-x="521" 
d="M109 348l154 258h40l-162 -267h3q41 41 124 41q87 0 142 -55q56 -56 56 -138q0 -85 -59 -141q-59 -54 -151 -54q-93 0 -147.5 52.5t-54.5 137.5q0 74 55 166zM259 347q-70 0 -119 -44q-48 -43 -48 -117q0 -73 45 -118t120 -45q76 0 124 45t48 118q0 70 -48 115
q-46 46 -122 46z" />
    <glyph glyph-name="seven.textoldstyle" unicode="&#xe04f;" horiz-adv-x="453" 
d="M357 411h-333v32h381v-13l-277 -596h-39z" />
    <glyph glyph-name="eight.textoldstyle" unicode="&#xe050;" horiz-adv-x="521" 
d="M434 457q0 -44 -28 -82t-71 -55q58 -16 91 -57.5t33 -96.5q0 -77 -55 -126t-143 -49q-93 0 -146.5 46.5t-53.5 125.5q0 53 35 97q36 44 90 60q-45 16 -72 54t-27 83q0 70 48 115q49 45 126 45q75 0 124 -46q49 -45 49 -114zM422 163q0 63 -45 102.5t-116 39.5
q-70 0 -116 -40t-46 -102t43.5 -102t118.5 -40q73 0 117 41q44 42 44 101zM260 583q-61 0 -100 -36q-38 -36 -38 -89q0 -52 39 -87t99 -35t98.5 35t38.5 87q0 53 -40 89q-39 36 -97 36z" />
    <glyph glyph-name="nine.textoldstyle" unicode="&#xe051;" horiz-adv-x="521" 
d="M412 98l-159 -264h-41l166 269l-1 4q-41 -41 -125 -41q-88 0 -143 55t-55 138q0 85 59 141q58 55 151 55q94 0 148 -54q54 -53 54 -137q0 -78 -54 -166zM261 98q70 0 119 44q49 43 49 118q0 73 -45.5 118t-120.5 45t-124 -46q-48 -45 -48 -117q0 -69 47 -116
q47 -46 123 -46z" />
    <glyph glyph-name="numbersign.textoldstyle" unicode="&#xe052;" horiz-adv-x="487" 
d="M281 0h-28l37 160h-142l-37 -160h-28l36 160h-74v26h81l34 149h-81v28h87l31 140h29l-33 -140h142l32 140h28l-31 -140h73v-28h-80l-33 -149h79v-26h-86zM330 335h-143l-34 -149h142q22 99 35 149z" />
    <glyph glyph-name="dollar.textoldstyle" unicode="&#xe053;" horiz-adv-x="480" 
d="M224 555v84h31v-84q65 -3 131 -35v-40q-64 42 -144 42q-61 0 -98 -25t-37 -76q0 -57 110 -98q38 -14 57.5 -21.5t52 -24.5t49.5 -33.5t30.5 -41.5t13.5 -55q0 -67 -45 -106.5t-119 -44.5v-90h-32v89q-101 2 -172 47v40q80 -57 177 -57q69 0 112 29.5t43 85.5
q0 80 -111 122q-7 3 -38.5 14.5t-42 16.5t-36.5 17t-36.5 21.5t-25 24t-20 31t-5.5 36.5q0 59 43 93.5t112 38.5z" />
    <glyph glyph-name="euro.textoldstyle" unicode="&#xe054;" horiz-adv-x="509" 
d="M460 56v-35q-61 -29 -128 -29q-107 0 -172.5 59.5t-72.5 170.5h-40v28h350v-28h-273q9 -96 64.5 -147t145.5 -51q64 0 126 32zM447 528v-35q-51 25 -115 25q-84 0 -136.5 -48.5t-68.5 -136.5h270v-28h-350v28h43q14 101 76.5 159.5t158.5 58.5q68 0 122 -23z" />
    <glyph glyph-name="florin.textoldstyle" unicode="&#xe055;" horiz-adv-x="405" 
d="M169 140l20 149h-85v30h89l10 76q12 89 46 133t99 44q29 0 67 -11v-30q-35 9 -63 9q-52 0 -78.5 -36.5t-38.5 -125.5l-8 -59h111v-30h-114l-21 -158q-16 -121 -46 -178q-28 -55 -100 -55q-37 0 -71 14v34q36 -14 68 -14q54 0 76 45q22 43 39 163z" />
    <glyph glyph-name="sterling.textoldstyle" unicode="&#xe056;" horiz-adv-x="455" 
d="M399 541v-35q-42 16 -90 16q-63 0 -100 -38.5t-38 -114.5l-1 -75h174v-29h-174q-4 -186 -57 -234h302v-31h-358v10q72 38 78 255h-68v29h68l1 76q1 51 17 89t42.5 57.5t54.5 28.5t58 9q52 0 91 -13z" />
    <glyph glyph-name="cent.textoldstyle" unicode="&#xe057;" horiz-adv-x="449" 
d="M252 447v91h31v-91q50 -2 83 -18v-36q-44 24 -93 24q-67 0 -112 -46q-44 -46 -44 -118q0 -71 41.5 -114.5t111.5 -43.5q64 0 111 37v-37q-40 -26 -100 -31v-91h-30v91q-79 4 -125 56.5t-46 132.5q0 78 48 132q49 54 124 62z" />
    <glyph glyph-name="yen.textoldstyle" unicode="&#xe058;" horiz-adv-x="487" 
d="M205 277l-158 266h42l159 -274l151 274h37l-149 -266h142v-28h-366v28h142zM266 164v-164h-36v164h-167v28h366v-28h-163z" />
    <glyph glyph-name="percent.text" unicode="&#xe059;" horiz-adv-x="667" 
d="M181 560q57 0 94 -38.5t37 -96.5q0 -55 -38 -93t-93 -38q-59 0 -96 37t-37 94q0 56 38 96q39 39 95 39zM181 529q-44 0 -72.5 -29.5t-28.5 -74.5q0 -44 28 -73t73 -29q42 0 70 29.5t28 72.5q0 45 -27.5 74.5t-70.5 29.5zM500 584h36l-368 -599h-35zM489 260q58 0 95 -38
t37 -96q0 -55 -38 -93t-94 -38q-59 0 -96 37t-37 94q0 58 39 95q39 39 94 39zM489 24q42 0 70.5 30t28.5 72q0 44 -28 73q-28 30 -71 30t-72 -30q-22 -21 -27 -52.5t5 -59.5t35.5 -46.5t58.5 -16.5z" />
    <glyph glyph-name="perthousand.text" unicode="&#xe05a;" horiz-adv-x="970" 
d="M181 560q57 0 94 -38.5t37 -96.5q0 -55 -38 -93t-93 -38q-59 0 -96 37t-37 94q0 56 38 96q39 39 95 39zM181 529q-44 0 -72.5 -29.5t-28.5 -74.5q0 -44 28 -73t73 -29q42 0 70 29.5t28 72.5q0 45 -27.5 74.5t-70.5 29.5zM489 260q58 0 95 -38t37 -96q0 -55 -38 -93
t-94 -38q-59 0 -96 37t-37 94q0 58 39 95q39 39 94 39zM489 24q42 0 70.5 30t28.5 72q0 44 -28 73q-28 30 -71 30t-72 -30q-22 -21 -27 -52.5t5 -59.5t35.5 -46.5t58.5 -16.5zM794 260q58 0 95 -38t37 -96q0 -55 -38 -93t-94 -38q-59 0 -95.5 37t-36.5 94t38 95q39 39 94 39
zM794 229q-42 0 -71 -30t-29 -73q0 -44 28 -73t72 -29q42 0 71 30t29 72q0 43 -28 73t-72 30zM501 584h36l-369 -599h-35z" />
    <glyph glyph-name="asuperior" unicode="&#xe06c;" horiz-adv-x="342" 
d="M148 320q52 0 84.5 28t32.5 83v16h-76q-121 0 -121 -70q0 -27 21.5 -42t58.5 -15zM172 570q-52 0 -105 -30v30q47 28 106 28q124 0 124 -113v-187h-25l-4 34q0 6 -0.5 12.5t-1 10t-0.5 4.5q-15 -34 -49 -50.5t-74 -16.5q-52 0 -80 23.5t-28 60.5q0 97 153 97h77v18
q0 37 -24 58t-69 21z" />
    <glyph glyph-name="bsuperior" unicode="&#xe06d;" horiz-adv-x="387" 
d="M71 372l-5 -72h-21v462h30v-238q18 32 51.5 52t76.5 20q69 0 111.5 -42.5t42.5 -108.5q0 -65 -44 -109q-43 -43 -112 -43q-45 0 -79.5 21t-50.5 58zM200 568q-54 0 -88.5 -35t-34.5 -88q0 -56 34 -90t89 -34q54 0 89 36q35 37 35 88q0 52 -35 87.5t-89 35.5z" />
    <glyph glyph-name="dsuperior" unicode="&#xe06f;" horiz-adv-x="389" 
d="M185 597q93 0 127 -72l-1 237h33v-462h-22l-9 70q-17 -35 -51 -56t-76 -21q-70 0 -113 42t-43 109q0 66 43 109q44 44 112 44zM187 569q-55 0 -90 -35.5t-35 -88.5q0 -55 35 -89.5t91 -34.5q53 0 88 35.5t35 89.5q0 55 -33.5 89t-90.5 34z" />
    <glyph glyph-name="esuperior" unicode="&#xe070;" horiz-adv-x="358" 
d="M320 437h-257q3 -52 38 -83.5t88 -31.5q63 0 119 42v-36q-50 -35 -117 -35q-75 0 -118.5 41.5t-43.5 112.5q0 65 43 108q44 44 108 44q65 0 103 -41.5t38 -105.5q0 -11 -1 -15zM180 569q-47 0 -79 -29t-37 -75h224q-17 104 -108 104z" />
    <glyph glyph-name="egravesuperior" unicode="&#xe071;" horiz-adv-x="358" 
d="M111 749l107 -115q-17 1 -29 1l-105 92zM320 437h-257q3 -52 38 -83.5t88 -31.5q63 0 119 42v-36q-50 -35 -117 -35q-75 0 -118.5 41.5t-43.5 112.5q0 65 43 108q44 44 108 44q65 0 103 -41.5t38 -105.5q0 -11 -1 -15zM180 569q-47 0 -79 -29t-37 -75h224
q-17 104 -108 104z" />
    <glyph glyph-name="hsuperior" unicode="&#xe073;" horiz-adv-x="349" 
d="M303 486v-186h-32v181q0 43 -23.5 65t-61.5 22q-45 0 -78 -34t-33 -91v-143h-30v462h30v-235q17 32 49.5 50.5t66.5 18.5q52 0 82 -28t30 -82z" />
    <glyph glyph-name="isuperior" unicode="&#xe074;" horiz-adv-x="127" 
d="M47 590h33l-1 -290h-32v290zM63 705q15 0 21 -11.5t0 -22.5t-21 -11q-9 0 -16 7t-7 15q0 9 7 16t16 7z" />
    <glyph glyph-name="lsuperior" unicode="&#xe077;" horiz-adv-x="121" 
d="M75 762v-462h-30v462h30z" />
    <glyph glyph-name="msuperior" unicode="&#xe078;" horiz-adv-x="559" 
d="M513 482v-182h-32v183q0 43 -22 64.5t-59 21.5q-43 0 -74 -29t-31 -79v-161h-31v179q0 90 -82 90q-42 0 -73.5 -32t-31.5 -84v-153h-31v290h22q9 -55 10 -61q14 31 44.5 49t62.5 18q83 0 103 -72q14 34 47.5 53t68.5 19q51 0 80 -29t29 -85z" />
    <glyph glyph-name="osuperior" unicode="&#xe079;" horiz-adv-x="377" 
d="M189 598q68 0 112 -44q45 -44 45 -108q0 -66 -45 -109q-46 -44 -112 -44q-71 0 -114.5 43t-43.5 110q0 65 46 108q47 44 112 44zM189 570q-53 0 -89 -36q-35 -37 -35 -88q0 -54 34.5 -89.5t89.5 -35.5q54 0 88 35.5t34 89.5q0 52 -34.5 88t-87.5 36z" />
    <glyph glyph-name="rsuperior" unicode="&#xe07c;" horiz-adv-x="228" 
d="M66 590l7 -84q23 91 115 91q9 0 35 -2v-31q-18 3 -39 3q-58 0 -83 -42t-25 -126v-99h-31v290h21z" />
    <glyph glyph-name="ssuperior" unicode="&#xe07d;" horiz-adv-x="252" 
d="M12 322v33q50 -33 105 -33q36 0 58 13.5t22 39.5q0 16 -13 29q-15 17 -66 37q-28 10 -46 18q-18 9 -32 26.5t-14 36.5q0 37 28.5 57t71.5 20q48 0 92 -21v-33q-46 25 -89 25q-69 0 -69 -46q0 -13 11 -24q17 -14 61 -31q50 -17 74 -37t24 -54q0 -39 -31 -61.5t-80 -22.5
q-61 0 -107 28z" />
    <glyph glyph-name="tsuperior" unicode="&#xe07e;" horiz-adv-x="226" 
d="M101 593h104v-27h-104v-166q0 -42 11 -59.5t43 -17.5t65 24v-31q-29 -21 -68 -21q-47 0 -66 22.5t-19 69.5v179h-55v21l56 5l15 86h18v-85z" />
    <glyph glyph-name="i.dot" unicode="&#xe096;" horiz-adv-x="206" 
d="M120 443v-443h-37v443h37zM103 610q17 0 24 -14t0 -28.5t-24 -14.5t-24 14.5t0 28.5t24 14z" />
    <glyph glyph-name="a.alt" unicode="&#xe0a8;" horiz-adv-x="573" 
d="M468 0l-7 103h-3q-25 -52 -73.5 -82t-109.5 -30q-103 0 -164 64t-61 166q0 98 64 163q64 67 162 67q61 0 110.5 -29.5t71.5 -79.5h1l9 101h29v-443h-29zM276 22q84 0 135 57q52 56 52 142t-52 141q-53 56 -134 56q-85 0 -137 -57q-52 -55 -52 -140t50 -143
q51 -56 138 -56z" />
    <glyph glyph-name="g.alt" unicode="&#xe0a9;" horiz-adv-x="561" 
d="M454 348h4l9 95h29v-420q0 -120 -66.5 -186.5t-188.5 -66.5q-103 0 -178 45v39q85 -52 179 -52q104 0 161.5 58.5t57.5 163.5v79q-2 0 -3 1h-1q-25 -53 -74.5 -83t-110.5 -30q-104 0 -166 63q-61 64 -61 165q0 97 65 165t163 68q59 0 108 -28t73 -76zM273 22q84 0 135 57
t51 140q0 87 -51 144t-134 57q-86 0 -138 -58q-53 -59 -53 -143q0 -87 51 -142q52 -55 139 -55z" />
    <glyph glyph-name="two.alt" unicode="&#xe0aa;" horiz-adv-x="495" 
d="M70 569v38q83 62 175 62q84 0 139 -50q54 -50 54 -131q0 -113 -94 -235q-94 -123 -232 -221h338v-32h-417v12q160 114 264 236q106 124 106 235q0 70 -44.5 112t-113.5 42q-86 0 -175 -68z" />
    <glyph glyph-name="two_taboldstyle.alt" unicode="&#xe0ab;" horiz-adv-x="510" 
d="M73 373v35q96 48 185 48q88 0 138.5 -37.5t50.5 -97.5q0 -85 -89 -163q-89 -79 -212 -125v-3h318v-30h-426v14q87 32 167 75q80 44 142 108t62 121q0 48 -41.5 76.5t-110.5 28.5q-89 0 -184 -50z" />
    <glyph glyph-name="two_textoldstyle.alt" unicode="&#xe0ac;" horiz-adv-x="510" 
d="M73 373v35q96 48 185 48q88 0 138.5 -37.5t50.5 -97.5q0 -85 -89 -163q-89 -79 -212 -125v-3h318v-30h-426v14q87 32 167 75q80 44 142 108t62 121q0 48 -41.5 76.5t-110.5 28.5q-89 0 -184 -50z" />
    <glyph glyph-name="A2.alt" unicode="&#xe0b6;" horiz-adv-x="599" 
d="M583 0h-40l-244 584h-2l-244 -584h-38l280 665h9z" />
    <glyph glyph-name="F.alt" unicode="&#xe0b7;" horiz-adv-x="511" 
d="M123 311v-521h-38v871h411v-35h-373v-280h340v-35h-340z" />
    <glyph glyph-name="I.alt" unicode="&#xe0b8;" horiz-adv-x="228" 
d="M133 793v-793h-38v793h38z" />
    <glyph glyph-name="L.alt" unicode="&#xe0b9;" horiz-adv-x="504" 
d="M123 35h371v-35h-409v793h38v-758z" />
    <glyph glyph-name="P2.alt" unicode="&#xe0ba;" horiz-adv-x="553" 
d="M123 237v-447h-39v870h209q108 0 168 -62q61 -61 61 -148q0 -99 -67 -156t-162 -57h-170zM280 628h-157v-359h165q88 0 141 51q52 51 52 130q0 74 -52 126q-51 52 -149 52z" />
    <glyph glyph-name="T.alt" unicode="&#xe0bb;" horiz-adv-x="530" 
d="M285 758v-758h-39v758h-231v35h499v-35h-229z" />
    <glyph glyph-name="Y.alt" unicode="&#xe0bc;" horiz-adv-x="569" 
d="M287 43l238 616h37l-337 -874h-39l82 209l-263 665h39z" />
    <glyph glyph-name="Q.alt" unicode="&#xe0bd;" horiz-adv-x="783" 
d="M336 -73l401 -72l-11 -35l-401 71zM392 670q144 0 239 -98q96 -98 96 -242t-96 -242q-94 -97 -239 -97q-152 0 -245 96q-92 98 -92 243q0 141 98 241q97 99 239 99zM392 635q-128 0 -213 -88q-84 -88 -84 -217q0 -132 82 -218q83 -87 215 -87q129 0 213 88q84 89 84 217
t-84 216q-84 89 -213 89z" />
    <glyph glyph-name="Q2.alt" unicode="&#xe0be;" horiz-adv-x="783" 
d="M415 -8v-201h-37v201q-144 6 -234 101q-89 95 -89 237q0 141 98 241q97 99 239 99q144 0 239 -98q96 -98 96 -242q0 -137 -89 -235q-88 -96 -223 -103zM392 635q-128 0 -213 -88q-84 -88 -84 -217q0 -127 79 -212q80 -85 204 -92v267h37v-267q120 8 197 95q77 88 77 209
q0 128 -84 216q-84 89 -213 89z" />
    <glyph glyph-name="uniE0C0" unicode="&#xe0c0;" horiz-adv-x="511" 
d="M123 758v-758h-38v792h410v-34h-372z" />
    <glyph glyph-name="uniE0C4" unicode="&#xe0c4;" horiz-adv-x="783" 
d="M415 -8v-202h-37v201q-146 5 -235 101q-88 95 -88 239q0 142 98 240q97 99 239 99q145 0 240 -98q96 -98 96 -241q0 -137 -89 -235q-88 -96 -224 -104zM95 331q0 -128 78 -214q80 -86 205 -90v608q-124 -6 -203 -93q-80 -88 -80 -211zM690 331q0 123 -78 208
q-77 87 -197 95v-607q121 8 197 94q78 87 78 210z" />
    <glyph glyph-name="uniE0C5" unicode="&#xe0c5;" horiz-adv-x="740" 
d="M626 265v395h38v-400q0 -113 -74 -187q-72 -72 -203 -77v-206h-38v206q-129 3 -202 76q-72 74 -72 189v399h37v-394q0 -97 62 -164q61 -65 175 -70v628h38v-628q116 5 176 68q63 64 63 165z" />
    <glyph glyph-name="Parenleft" unicode="&#xe0d8;" horiz-adv-x="282" 
d="M240 762l22 -8q-149 -200 -149 -422q0 -213 144 -419l-23 -9q-73 95 -115 207.5t-42 221.5q0 229 163 429z" />
    <glyph glyph-name="Parenright" unicode="&#xe0d9;" horiz-adv-x="282" 
d="M26 754l22 8q163 -200 163 -429q0 -114 -43 -225q-42 -112 -114 -204l-23 9q145 205 145 419q0 221 -150 422z" />
    <glyph glyph-name="Hyphen" unicode="&#xe0da;" horiz-adv-x="371" 
d="M310 255h-249v37h249v-37z" />
    <glyph glyph-name="Bracketleft" unicode="&#xe0db;" horiz-adv-x="244" 
d="M214 -87h-139v846h139v-28h-105v-789h105v-29z" />
    <glyph glyph-name="Bracketright" unicode="&#xe0dc;" horiz-adv-x="244" 
d="M30 759h139v-846h-139v29h106v789h-106v28z" />
    <glyph glyph-name="Braceleft" unicode="&#xe0dd;" horiz-adv-x="270" 
d="M55 359v11q58 13 58 116v152q0 40 5 65q8 28 23.5 42.5t46.5 14.5h47v-29h-37q-30 0 -40.5 -20t-10.5 -64v-163q0 -97 -51 -118v-3q24 -14 36 -44q11 -29 13 -55q2 -32 2 -70v-180q0 -71 50 -71h38v-30h-43q-53 0 -67 38q-12 32 -12 75v213q0 107 -58 120z" />
    <glyph glyph-name="Braceright" unicode="&#xe0de;" horiz-adv-x="270" 
d="M215 370v-11q-59 -14 -59 -120v-213q0 -43 -12 -75q-14 -38 -66 -38h-43v30h37q50 0 50 84v167q0 54 1 70q3 29 16 58t35 41v3q-52 21 -52 118v177q0 70 -51 70h-36v29h46q42 0 58 -27q6 -8 11 -30q6 -21 6 -65v-152q0 -101 59 -116z" />
    <glyph glyph-name="Endash" unicode="&#xe0df;" horiz-adv-x="535" 
d="M503 258h-471v33h471v-33z" />
    <glyph glyph-name="Emdash" unicode="&#xe0e0;" horiz-adv-x="833" 
d="M792 258h-757v33h757v-33z" />
    <glyph glyph-name="Exclamdown" unicode="&#xe0e1;" horiz-adv-x="247" 
d="M93 452q0 20 16 28t31.5 -0.5t15.5 -27.5t-15.5 -27t-31.5 0t-16 27zM111 345h28l3 -273v-87l2 -103q1 -38 1 -88h-41l3 279q4 215 4 272z" />
    <glyph glyph-name="Questiondown" unicode="&#xe0e2;" horiz-adv-x="487" 
d="M340 450q0 -19 -16 -27t-31.5 0t-15.5 27q0 13 9 22t22 9q14 0 23 -8.5t9 -22.5zM295 341l37 10q18 -37 18 -66q0 -33 -23 -66t-56 -60.5t-66 -56t-56 -64.5t-23 -73q0 -64 43 -102t117 -38t149 35v-39q-78 -32 -151 -32q-83 0 -139 46q-57 47 -57 127t79 152
q12 11 38.5 34t41 36t32 32t25.5 36t8 34q0 24 -17 55z" />
    <glyph glyph-name="Guillemotleft" unicode="&#xe0e3;" horiz-adv-x="384" 
d="M84 228l143 -178h-42l-140 173v7l139 173h40zM204 228l143 -178h-42l-140 173v7l140 173h40z" />
    <glyph glyph-name="Guillemotright" unicode="&#xe0e4;" horiz-adv-x="384" 
d="M347 223l-140 -173h-42l143 178l-141 175h40l140 -173v-7zM227 223l-140 -173h-42l142 178l-140 175h40l140 -173v-7z" />
    <glyph glyph-name="uniE12C" unicode="&#xe12c;" horiz-adv-x="1746" 
d="M1476 0h-40l-69 165h-352l-69 -165h-341l-482 579h-1v-579h-37v664h11l483 -580h2v576h405v-34h-366v-258h341v-34h-341v-299h302l263 625h312q95 0 157 -55q63 -54 63 -145q0 -78 -62 -138q-62 -59 -168 -68l117 -254h-39l-126 274v9q116 2 178 53q62 53 62 123
q0 76 -50.5 121.5t-136.5 45.5h-279zM1192 585h-2l-161 -387h324z" />
    <glyph glyph-name="uniE16E" unicode="&#xe16e;" horiz-adv-x="1201" 
d="M85 -2v662h37v-576h2l483 580h11v-580h3l483 580h11v-664h-37v579l-486 -581h-11v581h-1l-484 -581h-11zM951 859h32q-4 -54 -38 -91.5t-89 -37.5q-54 0 -87 37.5t-36 91.5h31q2 -42 26.5 -71.5t65.5 -29.5q82 0 95 101z" />
    <glyph glyph-name="uniE16F" unicode="&#xe16f;" horiz-adv-x="1151" 
d="M85 -3v663h37v-578h2l486 583h8v-297h410v292h37v-660h-37v334h-410v-334h-37v290q1 129 1 291h-2l-486 -584h-9z" />
    <glyph glyph-name="uniE170" unicode="&#xe170;" horiz-adv-x="1151" 
d="M1027 581l-486 -584h-10v337h-409v-334h-37v660h37v-292h409v292h37v-578h3l485 583h9v-665h-37v290q1 129 1 291h-2z" />
    <glyph glyph-name="uniE171" unicode="&#xe171;" horiz-adv-x="1151" 
d="M1027 581l-486 -584h-10v629h-409v-626h-37v660h483v-578h3l485 583h9v-665h-37v290q1 129 1 291h-2z" />
    <glyph glyph-name="uniE172" unicode="&#xe172;" horiz-adv-x="778" 
d="M654 581l-488 -585h-8v762h-232v35h498v-35h-229v-676h3l485 583h9v-665h-37v290q1 129 1 291h-2z" />
    <glyph glyph-name="uniE173" unicode="&#xe173;" horiz-adv-x="1083" 
d="M25 36v38q85 -49 187 -49q144 0 221 87q78 88 78 219h-359v35h357q-9 128 -84.5 199.5t-203.5 71.5q-102 0 -169 -32v38q60 29 172 29q106 0 180.5 -47.5t107.5 -133.5v169h39v-294h409v294h38v-660h-38v331h-409v-331h-39v181q-34 -89 -111 -139.5t-186 -50.5
q-115 0 -190 45z" />
    <glyph glyph-name="uniE174" unicode="&#xe174;" horiz-adv-x="981" 
d="M551 237v-237h-39v181q-34 -89 -111 -139.5t-186 -50.5q-115 0 -190 45v38q85 -49 187 -49q144 0 221 87q78 88 78 219h-359v35h357q-9 128 -84.5 199.5t-203.5 71.5q-102 0 -169 -32v38q60 29 172 29q106 0 180.5 -47.5t107.5 -133.5v169h210q108 0 168 -62
q61 -61 61 -148q0 -99 -67 -156q-68 -57 -163 -57h-170zM709 628h-158v-359h166q87 0 140 51q52 51 52 130q0 74 -51 126t-149 52z" />
    <glyph glyph-name="uniE175" unicode="&#xe175;" horiz-adv-x="928" 
d="M338 280l-260 -280h-53l251 266q-101 9 -160 64q-59 56 -59 132q0 92 63 144q63 54 158 54h391q108 0 168 -62q61 -61 61 -148q0 -99 -67 -156t-163 -57h-170v-237h-38v626h-177q-87 0 -137 -44.5t-50 -121.5q0 -70 63 -119q63 -48 179 -51v-10zM656 628h-158v-359h166
q88 0 140 51t52 130q0 74 -51 126t-149 52z" />
    <glyph glyph-name="uniE176" unicode="&#xe176;" horiz-adv-x="1100" 
d="M490 660v-34h-367v-240h442v274h410v-34h-370v-240h215q109 0 169.5 -52.5t60.5 -142.5q0 -93 -61 -142q-59 -49 -153 -49h-271v352h-442v-317h394v-35h-432v660h405zM823 351h-218v-316h232q80 0 127 39.5t47 116.5q0 75 -50.5 117.5t-137.5 42.5z" />
    <glyph glyph-name="A.alt" unicode="&#xe188;" horiz-adv-x="614" 
d="M491 157l-468 -181l-7 7l287 682h10l285 -665h-40zM308 585h-3l-231 -552l2 -2l402 157z" />
    <glyph glyph-name="P.alt" unicode="&#xe189;" horiz-adv-x="540" 
d="M123 177v-177h-38v660h195q106 0 168 -59t62 -153q0 -92 -59.5 -151t-166.5 -83zM280 626h-157v-414q153 34 193 48q119 42 146 125q9 29 9 63q0 80 -51 129t-140 49z" />
    <glyph glyph-name="R.alt" unicode="&#xe18a;" horiz-adv-x="554" 
d="M357 244l151 -244h-44l-142 234l-32 -7l-167 -39v-188h-38v663h196q102 0 167 -56q66 -55 66 -155q0 -147 -157 -208zM280 628h-157v-405l65 14l66 14q6 1 14 3.5t21 6t22 6.5q36 10 56 20q62 33 79 61q30 47 30 104q0 81 -53.5 128.5t-142.5 47.5z" />
    <glyph glyph-name="K.alt" unicode="&#xe18b;" horiz-adv-x="567" 
d="M296 356v-3q27 -4 53 -27q23 -19 36 -37t38 -59l134 -230h-42l-138 234q-37 62 -68.5 83.5t-78.5 12.5l-107 -22v-308h-38v662h38v-320l109 24q56 12 88 37q34 26 66 76l116 182h38l-116 -185q-63 -100 -128 -120z" />
    <glyph glyph-name="B.alt" unicode="&#xe18c;" horiz-adv-x="598" 
d="M398 365v-4q51 -8 85.5 -39.5t47 -65t12.5 -65.5q0 -86 -59 -139q-58 -52 -148 -52h-251v660h227q90 0 140.5 -40t50.5 -115q0 -43 -28.5 -82.5t-76.5 -57.5zM266 328l-143 -28v-265h208q84 0 129 44t45 114q0 62 -45 102t-123 40q-39 0 -71 -7zM317 626h-194v-292
q81 15 198 40q71 14 108 47.5t37 80.5q0 58 -39 91t-110 33z" />
    <glyph glyph-name="A_P.3" unicode="&#xe196;" horiz-adv-x="951" 
d="M521 237v-237h-38v165h-325l-132 -165h-46l529 660h183q108 0 168 -62q61 -61 61 -148q0 -99 -67 -156q-68 -57 -163 -57h-170zM679 628h-158v-359h166q88 0 140 51t52 130q0 74 -51 126t-149 52zM483 572h-2l-296 -374h298v374z" />
    <glyph glyph-name="A_R.4" unicode="&#xe197;" horiz-adv-x="973" 
d="M705 258l244 -258h-53l-253 275v8q115 1 179 53q63 52 63 123q0 77 -50.5 122t-136.5 45h-176v-626h-39v165h-325l-132 -165h-46l529 660h194q95 0 157 -55q64 -54 64 -145q0 -76 -60 -135q-59 -58 -159 -67zM483 572h-2l-296 -374h298v374z" />
    <glyph glyph-name="A_B" unicode="&#xe198;" horiz-adv-x="996" 
d="M734 0h-252v165h-324l-132 -165h-46l529 660h198q90 0 142 -42t52 -117q0 -47 -26.5 -87t-73.5 -57q70 -17 105 -64t35 -106q0 -88 -58 -137q-59 -50 -149 -50zM726 337h-205v-302h208q85 0 129.5 42.5t44.5 111.5q0 61 -47 105q-46 43 -130 43zM713 626h-192v-255h198
q69 0 107 36t38 91q0 58 -40.5 93t-110.5 35zM482 574h-2l-297 -376h299v376z" />
    <glyph glyph-name="A_B.2" unicode="&#xe199;" horiz-adv-x="924" 
d="M662 0h-119l-69 165h-352l-69 -165h-38l277 660h343q90 0 142 -42t52 -117q0 -47 -27 -87t-74 -57q52 -14 84 -44q56 -50 56 -126q0 -88 -58 -137q-58 -50 -148 -50zM641 626h-320l106 -255h220q63 0 103 36q41 38 41 91q0 58 -40 93t-110 35zM653 337h-211l126 -302h88
q85 0 130 42.5t45 111.5q0 61 -47 105q-46 43 -131 43zM297 585l-161 -387h324q-115 282 -163 387z" />
    <glyph glyph-name="A_D" unicode="&#xe19a;" horiz-adv-x="992" 
d="M611 0h-68l-69 165h-352l-69 -165h-38l277 660h310q156 0 244 -88q90 -88 90 -240q0 -150 -87 -241t-238 -91zM603 626h-282l247 -591h40q140 0 215 81q75 82 75 215q0 135 -76 214q-76 81 -219 81zM297 585l-161 -387h324q-115 282 -163 387z" />
    <glyph glyph-name="A_D.2" unicode="&#xe19b;" horiz-adv-x="1067" 
d="M690 0h-208v165h-324l-132 -165h-46l529 660h172q155 0 243 -88q88 -87 88 -240q0 -149 -86 -241q-85 -91 -236 -91zM682 626h-162v-591h167q139 0 213 81q74 82 74 215q0 135 -75 214q-74 81 -217 81zM482 572h-2l-296 -374h298v374z" />
    <glyph glyph-name="A_E.2" unicode="&#xe19c;" horiz-adv-x="848" 
d="M818 0h-275l-69 165h-352l-69 -165h-38l277 660h498v-34h-469l108 -258h336v-34h-322l125 -299h250v-35zM297 585l-161 -387h324q-115 282 -163 387z" />
    <glyph glyph-name="A_F" unicode="&#xe19d;" horiz-adv-x="908" 
d="M520 311v-311h-38v165h-324l-132 -165h-46l529 660h384v-34h-373v-281h340v-34h-340zM482 572h-2l-296 -374h298v374z" />
    <glyph glyph-name="A_H" unicode="&#xe19e;" horiz-adv-x="970" 
d="M583 0h-40l-69 165h-352l-69 -165h-38l279 663h11l124 -295h418v292h37v-660h-37v334h-403zM297 588l-161 -390h324q-116 285 -163 390z" />
    <glyph glyph-name="A_K" unicode="&#xe1a0;" horiz-adv-x="965" 
d="M532 339v-339h-38v165h-333l-134 -165h-47l539 665h13v-318l345 313h48l-345 -316l375 -344h-55zM494 579h-1l-305 -381h306v381z" />
    <glyph glyph-name="A_M" unicode="&#xe1a1;" horiz-adv-x="1210" 
d="M1124 662v-662h-35v567h-2l-270 -391h-15l-270 386l-1 -1v-561h-37v165h-341l-127 -165h-46l514 662h14l302 -435l301 435h13zM494 607h-1l-315 -409h316v409z" />
    <glyph glyph-name="A_N" unicode="&#xe1a2;" horiz-adv-x="1113" 
d="M991 84v576h37v-662h-14l-482 581h-1v-579h-37v165h-341l-128 -165h-45l514 664h13l481 -580h3zM494 609h-1l-316 -411h317v411z" />
    <glyph glyph-name="A_P.2" unicode="&#xe1a3;" horiz-adv-x="848" 
d="M583 0h-40l-69 165h-351l-69 -165h-39l277 660h296q108 0 168 -62q61 -61 61 -148q0 -99 -67 -156q-68 -57 -162 -57h-105zM575 628h-255l150 -359h113q89 0 141 51t52 130q0 74 -51 126t-150 52zM300 585h-3l-161 -387h325z" />
    <glyph glyph-name="A_R" unicode="&#xe1a4;" horiz-adv-x="841" 
d="M583 0h-40l-69 165h-352l-69 -165h-38l277 660h298q95 0 157 -55q64 -54 64 -145q0 -78 -63 -138q-62 -59 -168 -68l118 -254h-40l-125 274v9q115 1 177 53q62 51 62 123q0 77 -50.5 122t-136.5 45h-265zM297 585l-161 -387h324q-115 282 -163 387z" />
    <glyph glyph-name="A_R.2" unicode="&#xe1a5;" horiz-adv-x="841" 
d="M583 0h-40l-246 580l-244 -580h-38l279 660h296q95 0 157 -55q64 -54 64 -145q0 -78 -63 -138q-62 -59 -168 -68l117 -254h-40l-124 274v9q115 1 177 53q62 51 62 123q0 77 -50.5 122.5t-136.5 45.5h-266z" />
    <glyph glyph-name="A_R.3" unicode="&#xe1a6;" horiz-adv-x="841" 
d="M583 0h-40l-246 580l-244 -580h-38l279 660h296q95 0 157 -55q64 -54 64 -145q0 -78 -63 -138q-62 -59 -168 -68l117 -254h-40l-124 274v9q115 1 177 53q62 51 62 123q0 77 -50.5 122.5t-136.5 45.5h-266zM332 193q0 -18 -14.5 -25.5t-29 0t-14.5 25.5q0 11 9 20t20 9
q13 0 21 -8.5t8 -20.5z" />
    <glyph glyph-name="A_V" unicode="&#xe1a7;" horiz-adv-x="841" 
d="M478 165h-356l-68 -165h-39l279 663h11l250 -586h3l232 582h38l-267 -660h-10zM136 198h329l-164 392h-3z" />
    <glyph glyph-name="A_W" unicode="&#xe1a8;" horiz-adv-x="1179" 
d="M918 90l213 569h38l-250 -660h-9l-185 567h-3l-181 -567h-9l-68 166h-341l-70 -165h-38l280 663h11l228 -572h4l181 569h9l187 -570h3zM297 585l-161 -387h315q-111 285 -154 387z" />
    <glyph glyph-name="A_W_A" unicode="&#xe1a9;" horiz-adv-x="1450" 
d="M1436 0h-39l-69 165h-341l-68 -168h-9l-185 569h-3l-181 -569h-9l-68 168h-341l-70 -165h-38l280 663h10l229 -572h4l181 569h9l187 -570h3l228 573h11zM297 585l-161 -387h315q-111 285 -154 387zM1154 586h-3l-151 -388h314z" />
    <glyph glyph-name="uniE1AB" unicode="&#xe1ab;" horiz-adv-x="1077" 
d="M992 660v-660h-38v626h-422v-626h-38v165h-333l-134 -165h-47l539 660h473zM494 578h-1l-305 -380h306v380z" />
    <glyph glyph-name="uniE1AC" unicode="&#xe1ac;" horiz-adv-x="974" 
d="M460 334l146 -334h-591l291 666h10l129 -298h406v292h37v-660h-37v334h-391zM69 32h482l-243 556z" />
    <glyph glyph-name="uniE1AD" unicode="&#xe1ad;" horiz-adv-x="1010" 
d="M702 667l293 -667h-910v660h405v-34h-367v-258h342v-34h-342v-299h295l276 632h8zM457 33h483l-243 558z" />
    <glyph glyph-name="uniE1AE" unicode="&#xe1ae;" horiz-adv-x="1002" 
d="M572 237v-237h-39v334h-410v-334h-38v661h38v-292h410v291h209q108 0 168 -61q61 -61 61 -148q0 -100 -67 -157q-68 -57 -162 -57h-170zM729 628h-157v-359h165q87 0 140 51q53 53 53 130q0 74 -51 126t-150 52z" />
    <glyph glyph-name="uniE1AF" unicode="&#xe1af;" horiz-adv-x="884" 
d="M123 626v-626h-38v660h378v132h410v-34h-372v-758h-38v626h-340z" />
    <glyph glyph-name="C_A" unicode="&#xe1ba;" horiz-adv-x="954" 
d="M938 0h-40l-69 165h-352l-59 -139q90 5 163 48v-38q-76 -45 -191 -45q-159 0 -247 94t-88 241q0 150 97 247q98 99 242 99q101 0 161 -29v-38q-67 32 -158 32q-127 0 -215 -86q-87 -85 -87 -225q0 -132 75 -214t210 -87l269 638h10zM654 588h-2l-161 -390h324z" />
    <glyph glyph-name="C_K" unicode="&#xe1bb;" horiz-adv-x="987" 
d="M554 347l345 313h48l-346 -316l375 -344h-54l-368 339v8zM581 74v-38q-76 -45 -191 -45q-159 0 -247 94t-88 241q0 150 97 247q98 99 242 99q101 0 161 -29v-38q-67 32 -158 32q-127 0 -215 -86q-87 -85 -87 -225q0 -136 79 -218q80 -83 220 -83q102 0 187 49z" />
    <glyph glyph-name="D_E" unicode="&#xe1cb;" horiz-adv-x="1040" 
d="M982 660v-34h-366v-258h341v-34h-341v-299h394v-35h-433v175q-33 -83 -107 -129t-178 -46h-207v660h199q108 0 183.5 -45t109.5 -129v174h405zM284 626h-161v-591h167q138 0 212 80q74 82 74 213q0 140 -75.5 219t-216.5 79z" />
    <glyph glyph-name="D_H" unicode="&#xe1cc;" horiz-adv-x="1148" 
d="M1063 660v-660h-38v334h-409v-334h-38v176q-33 -83 -107.5 -129.5t-178.5 -46.5h-207v660h199q109 0 184.5 -45t109.5 -129v174h38v-292h409v292h38zM284 626h-161v-591h167q139 0 212 81q74 82 74 215q0 135 -75 214q-73 81 -217 81z" />
    <glyph glyph-name="D_L" unicode="&#xe1cd;" horiz-adv-x="997" 
d="M616 35h371v-35h-409v176q-41 -92 -121 -134t-212 -42h-160v660h199q105 0 181.5 -46t112.5 -128v174h38v-625zM284 626h-161v-591h167q139 0 212 81q74 82 74 215q0 135 -75 214q-73 81 -217 81z" />
    <glyph glyph-name="D_M" unicode="&#xe1ce;" horiz-adv-x="1295" 
d="M1209 662v-662h-36v566q-1 0 -2 1l-271 -391h-11l-273 386q0 -1 -1 -2v-560h-36v178q-33 -85 -107 -131.5t-180 -46.5h-207v660h199q110 0 185.5 -45.5t109.5 -130.5v178h11l305 -435l303 435h11zM284 626h-161v-591h167q139 0 212 81q74 82 74 215q0 135 -75 214
q-73 81 -217 81z" />
    <glyph glyph-name="D_N" unicode="&#xe1cf;" horiz-adv-x="1198" 
d="M292 0h-207v660h199q109 0 185 -45.5t109 -129.5v179h11l486 -580v576h37v-662h-10l-485 581h-2v-579h-37v177q-33 -84 -106.5 -130.5t-179.5 -46.5zM284 626h-161v-591h167q139 0 212 81q74 82 74 215q0 135 -75 214q-73 81 -217 81z" />
    </font>
</defs>
</svg>
