<?xml version="1.0" standalone="no"?>
<!DOCTYPE svg PUBLIC "-//W3C//DTD SVG 1.1//EN" "http://www.w3.org/Graphics/SVG/1.1/DTD/svg11.dtd" >
<svg>
<metadata>
Created by FontForge 20120731 at Tue Dec 15 21:05:29 2015
 By ,,,
Copyright (c) 2013 Parachute, www.parachute.gr.  All rights reserved.
</metadata>
<defs>
<font id="PFBagueSansPro-Italic" horiz-adv-x="394" >
  <font-face 
    font-family="PF Bague Sans Pro"
    font-weight="400"
    font-style="italic"
    font-stretch="normal"
    units-per-em="1000"
    panose-1="2 0 5 6 0 0 0 9 0 3"
    ascent="800"
    descent="-200"
    x-height="445"
    cap-height="661"
    bbox="-497 -246 1714 910"
    underline-thickness="55"
    underline-position="-46"
    slope="-12"
    unicode-range="U+0020-FB06"
  />
<missing-glyph horiz-adv-x="447" 
d="M471 0h-436v699h436v-699zM406 39l-153 272l-154 -272h307zM406 658h-307l154 -272zM432 622l-155 -273l155 -273v546zM74 77l154 272l-154 272v-544z" />
    <glyph glyph-name="fj" unicode="fj" horiz-adv-x="466" 
d="M174 -228l-25 65q64 1 98 35q15 12 26 41q17 39 27 122q25 181 45 349h-171l-68 -477h-73l68 477h-78l7 50q65 10 80 11l7 52q11 101 52 160q49 71 158 71h8q77 -2 120 -30l-7 -67q-58 36 -127 36q-106 0 -124 -124l-14 -98h245q0 -2 -20 -153q-24 -208 -47 -331
q-31 -181 -187 -189z" />
    <glyph glyph-name="ffj" unicode="ffj" horiz-adv-x="722" 
d="M600 385h-170l-69 -480h-73l69 480h-182l-80 -571h-73l80 571h-78l6 49q65 10 80 11l10 77q12 88 63.5 137.5t139.5 49.5q69 0 122 -29q53 48 139 48q80 0 126 -30l-7 -67q-59 36 -126 36q-105 0 -124 -124l-15 -98h245l-52 -397q-20 -149 -65 -209q-47 -63 -137 -67
l-24 65q86 2 114 58q26 48 38 149zM183 445h182l14 96q7 50 26 86q-41 21 -93 21q-40 0 -60 -16q-1 -1 -6 -4.5t-6 -4.5t-5.5 -4.5t-5.5 -5t-4 -5t-5 -7.5l-4 -8q-15 -36 -18 -55l-6 -30q-6 -25 -9 -63z" />
    <glyph glyph-name="f_t" unicode="ft" horiz-adv-x="565" 
d="M392 713l-3 -64q-35 15 -79 15q-96 0 -113 -123l-14 -96h177l71 137h24l-19 -137h123l-9 -60h-123l-35 -248q-6 -41 6 -60.5t46 -19.5q40 0 84 27l-9 -64q-43 -30 -99 -30q-65 0 -89 35.5t-14 106.5l36 253h-178l-79 -587h-74l79 587h-78l8 50l79 10l13 93
q27 187 191 187q39 0 78 -12z" />
    <glyph glyph-name="ff" unicode="ff" horiz-adv-x="545" 
d="M110 445l12 83q12 84 62.5 131.5t137.5 47.5q76 0 125 -31q50 47 129 47q39 0 75 -11l-7 -64q-36 14 -73 14q-96 0 -114 -122l-14 -95h132l-8 -60h-132l-72 -515h-73l72 515h-187l-81 -587h-73l81 587h-78l6 49q65 10 80 11zM183 445h187l13 94q9 55 25 86q-42 21 -96 21
q-34 0 -66 -18q-14 -8 -35 -48q-5 -10 -18 -65q0 -2 -1 -8t-2 -13t-2 -15z" />
    <glyph glyph-name="fi" unicode="fi" horiz-adv-x="465" 
d="M428 445l-62 -445h-75l54 385h-170l-80 -585h-73l79 585h-78l8 50l79 10l14 97q12 88 63 137t141 49q79 0 127 -30l-7 -66q-59 35 -126 35q-106 0 -124 -123l-15 -99h245z" />
    <glyph glyph-name="fl" unicode="fl" horiz-adv-x="468" 
d="M183 445h115l-5 -27l-4 -34h-115l-84 -583h-73l84 583h-78l7 50q65 10 80 11l13 96q12 89 63.5 137.5t139.5 48.5q83 0 139 -29l-98 -698h-74l91 655q-30 11 -64 11q-105 0 -123 -123z" />
    <glyph glyph-name="ffi" unicode="ffi" horiz-adv-x="727" 
d="M453 543l-15 -98h250l-62 -445h-74l52 384h-174l-70 -514h-73l70 515h-182l-83 -587h-74l84 587h-78l6 49q65 10 80 11l10 77q12 88 63.5 137.5t139.5 49.5q69 0 122 -29q53 48 146 48q23 0 58 -7q39 -8 61 -23l-7 -66q-59 35 -126 35q-105 0 -124 -124zM183 445h182
l14 96q7 50 26 86q-41 21 -93 21q-40 0 -60 -16q-1 -1 -6 -4.5t-6 -4.5t-5.5 -4.5t-5.5 -5t-4 -5t-5 -7.5l-4 -8q-15 -36 -18 -55l-6 -30q-6 -25 -9 -63z" />
    <glyph glyph-name="ffl" unicode="ffl" horiz-adv-x="728" 
d="M435 445h114q-1 -8 -4.5 -30.5t-3.5 -30.5h-115l-71 -514h-73l71 514h-179l-82 -586h-74l83 586h-78l7 50q65 10 80 11l8 59q13 96 59 151q47 54 146 54q71 0 121 -29q56 46 146 46q78 0 135 -33l-98 -693h-75l92 655q-30 11 -67 11q-77 0 -106 -56q-20 -39 -31 -117z
M183 445h178l14 96q8 52 28 87q-38 20 -91 20q-59 0 -85.5 -37t-36.5 -113z" />
    <glyph glyph-name="longs_t" unicode="&#x17f;t" horiz-adv-x="541" 
d="M197 541l-104 -743h-73l82 587h-78l6 49q65 10 80 11l6 49q12 101 49 161q45 70 150 70q67 0 117 -30l-7 -66q-56 34 -113 34q-98 0 -115 -122zM342 448l70 134h21q-17 -109 -20 -137h122l-9 -60h-122l-34 -248q-2 -26 -2 -27q0 -54 54 -54q35 0 84 29q-2 -7 -5.5 -32
t-4.5 -33q-47 -29 -98 -29h-5q-53 1 -77 26t-24 74q0 2 2 34l36 260h-72q5 38 7 46z" />
    <glyph glyph-name=".notdef" horiz-adv-x="447" 
d="M471 0h-436v699h436v-699zM406 39l-153 272l-154 -272h307zM406 658h-307l154 -272zM432 622l-155 -273l155 -273v546zM74 77l154 272l-154 272v-544z" />
    <glyph glyph-name=".null" horiz-adv-x="0" 
 />
    <glyph glyph-name="nonmarkingreturn" horiz-adv-x="333" 
 />
    <glyph glyph-name="space" unicode=" " horiz-adv-x="235" 
 />
    <glyph glyph-name="exclam" unicode="!" horiz-adv-x="279" 
d="M240 690l-84 -530h-57l62 530h79zM117 93q19 0 31.5 -12.5t12.5 -32.5q0 -23 -18 -40t-40 -17q-19 0 -31.5 12t-12.5 31q0 24 17.5 41.5t40.5 17.5z" />
    <glyph glyph-name="quotedbl" unicode="&#x22;" horiz-adv-x="293" 
d="M185 682l-30 -215h-59l30 215h59zM288 682l-30 -215h-60l31 215h59z" />
    <glyph glyph-name="numbersign" unicode="#" horiz-adv-x="536" 
d="M395 453l64 174h48q-6 -16 -62 -174h79l-6 -43h-89l-59 -163h88q-4 -35 -7 -44h-96l-71 -203h-50l73 203h-147l-71 -203h-49l72 203h-81l6 44h90l59 163h-91q3 16 4 25q0 5 0.5 9t0.5 6l1 3h99l65 174h47l-62 -174h145zM380 410h-146l-58 -163h146z" />
    <glyph glyph-name="dollar" unicode="$" horiz-adv-x="536" 
d="M247 -98h-54l13 94q-104 6 -166 52l10 72q80 -63 177 -63q74 0 117.5 37.5t43.5 100.5q0 69 -97 117q-5 2 -29.5 15t-32 17t-28 16.5t-28.5 20t-22.5 21t-20.5 25.5t-11 28.5t-5 33.5q0 78 53 122q52 43 133 51l13 98h55l-14 -97q72 -4 131 -37l-10 -73q-67 50 -149 50
q-61 0 -100 -28t-39 -86q0 -50 98 -100q38 -18 62.5 -32.5t55 -38.5t46 -55.5t15.5 -68.5q0 -83 -58 -135q-60 -54 -146 -61z" />
    <glyph glyph-name="percent" unicode="%" horiz-adv-x="718" 
d="M204 358q-63 0 -99 35.5t-36 94.5q0 74 53 129q52 55 126 55q59 0 96 -37.5t37 -95.5q0 -73 -53 -128q-53 -53 -124 -53zM240 618q-48 0 -79 -37q-32 -38 -32 -86q0 -39 21.5 -62t60.5 -23q45 0 77 36q32 38 32 85q0 37 -22.5 62t-57.5 25zM496 -7q-63 0 -99 35t-36 93
q0 75 53 130q52 55 126 55q60 0 96.5 -37t36.5 -94q0 -75 -52 -128q-53 -54 -125 -54zM533 253q-45 0 -78 -37t-33 -85q0 -39 22 -62.5t60 -23.5q46 0 77 37t31 85q0 37 -22 61.5t-57 24.5zM632 681h55l-587 -701h-54z" />
    <glyph glyph-name="ampersand" unicode="&#x26;" horiz-adv-x="674" 
d="M631 -10l-63 -43q-86 55 -143 106q-94 -70 -208 -70q-81 0 -127 39.5t-46 107.5q0 62 44 126q44 63 126 96q-14 45 -14 90q0 90 58 154q59 65 163 65q67 0 129 -28l-3 -68q-61 33 -132 33q-73 0 -107 -46t-34 -103q0 -145 163 -308q73 76 129 235q3 -2 28 -25l21 -18
q-55 -145 -136 -232q62 -58 152 -111zM235 43q75 0 146 50q-103 103 -146 203q-53 -21 -85.5 -65t-32.5 -92q0 -45 33 -70.5t85 -25.5z" />
    <glyph glyph-name="quotesingle" unicode="'" horiz-adv-x="199" 
d="M190 682l-30 -215h-60l30 215h60z" />
    <glyph glyph-name="parenleft" unicode="(" horiz-adv-x="289" 
d="M298 737l41 -16q-200 -245 -200 -512q0 -170 81 -323l-47 -17q-100 157 -100 352q0 134 59 267.5t166 248.5z" />
    <glyph glyph-name="parenright" unicode=")" horiz-adv-x="289" 
d="M88 721l46 15q104 -160 104 -346q0 -130 -60 -270q-60 -139 -163 -251q-3 1 -19.5 8.5t-22.5 9.5q198 246 198 512q0 170 -83 322z" />
    <glyph glyph-name="asterisk" unicode="*" horiz-adv-x="433" 
d="M393 478l-21 -28l-22 -31l-82 70l-3 -118h-64l30 117l-104 -70l-25 59l112 45q-45 24 -99 48l17 25l23 33l83 -70q0 17 4 116h65l-30 -116l103 69l24 -57l-110 -46l46 -22q39 -18 53 -24z" />
    <glyph glyph-name="plus" unicode="+" horiz-adv-x="536" 
d="M459 270h-162l-23 -169h-54l23 169h-163q0 6 4 27t4 27h163l23 166h54l-23 -166h162q-7 -42 -8 -54z" />
    <glyph glyph-name="comma" unicode="," horiz-adv-x="185" 
d="M11 46q3 22 20.5 37.5t40.5 15.5q22 0 35 -14.5t10 -38.5q-5 -32 -38 -89q-33 -59 -66 -102l-39 5l61 139q-29 11 -24 47z" />
    <glyph glyph-name="hyphen" unicode="-" horiz-adv-x="367" 
d="M304 213h-252l9 62h251q0 -8 -4 -31.5t-4 -30.5z" />
    <glyph glyph-name="period" unicode="." horiz-adv-x="180" 
d="M67 96q19 0 31.5 -12.5t12.5 -32.5q0 -24 -17.5 -41.5t-40.5 -17.5q-19 0 -32 12.5t-13 31.5q0 24 18 42t41 18z" />
    <glyph glyph-name="slash" unicode="/" horiz-adv-x="302" 
d="M398 688l-416 -776h-56l414 776h58z" />
    <glyph glyph-name="zero" unicode="0" horiz-adv-x="536" 
d="M320 671q115 0 160 -79q40 -70 40 -170q0 -97 -30 -199q-20 -66 -49 -114q-32 -53 -87 -86.5t-123 -33.5q-197 0 -197 242q0 103 30 205q20 67 48 115q32 53 86.5 86.5t121.5 33.5zM315 608q-64 1 -107.5 -45.5t-66.5 -118.5q-14 -43 -20 -87q-11 -84 -11 -124
q0 -181 128 -181q51 0 92 31.5t63 79.5q20 43 34 102q19 86 19 161q0 182 -131 182z" />
    <glyph glyph-name="one" unicode="1" horiz-adv-x="536" 
d="M358 666h15l-93 -666h-75l77 548l-167 -96l11 77z" />
    <glyph glyph-name="two" unicode="2" horiz-adv-x="524" 
d="M269 671q79 0 125 -44.5t46 -115.5q0 -63 -33.5 -134.5t-89.5 -134.5q-99 -109 -200 -181h272l-8 -61h-419l2 14q66 45 88 61q38 28 103 84q63 56 105 103q40 45 74 112q32 62 32 117q0 56 -29.5 85.5t-81.5 29.5q-93 0 -183 -72l10 73q86 64 187 64z" />
    <glyph glyph-name="three" unicode="3" horiz-adv-x="536" 
d="M149 351l-9 12l222 234v4h-281l8 59h402q0 -1 -0.5 -6.5t-0.5 -7.5l-229 -238q81 -3 127.5 -46.5t46.5 -115.5q0 -114 -78 -185q-76 -70 -190 -70q-117 0 -188 56l11 78q70 -72 181 -72q83 0 136 53q54 52 54 130q0 59 -40 91t-108 32q-30 0 -64 -8z" />
    <glyph glyph-name="four" unicode="4" horiz-adv-x="536" 
d="M372 372l71 94h14l-33 -239h84l-9 -59h-84l-23 -168h-73l24 168h-346l2 14l390 479h86l-359 -434h235z" />
    <glyph glyph-name="five" unicode="5" horiz-adv-x="536" 
d="M286 413q84 0 139 -45q56 -44 56 -126v-7q-1 -110 -83 -178q-80 -66 -187 -66q-112 0 -186 56q1 14 11 79q27 -33 76 -53.5t103 -20.5q85 0 137 54q53 55 53 135q0 56 -39 85.5t-106 29.5q-78 0 -157 -43l-15 6l91 341h338l-7 -58h-278l-56 -208q45 19 110 19z" />
    <glyph glyph-name="six" unicode="6" horiz-adv-x="536" 
d="M123 389l199 272h81l-207 -279l5 -1q38 29 104 29q83 0 133 -48t50 -126q0 -106 -75 -177q-73 -70 -181 -70q-93 0 -147 48t-54 129q0 98 92 223zM284 352q-74 0 -126 -48q-52 -46 -52 -126q0 -58 35.5 -92.5t99.5 -34.5q77 0 125 51q49 50 49 125q0 56 -35 90.5
t-96 34.5z" />
    <glyph glyph-name="seven" unicode="7" horiz-adv-x="536" 
d="M503 645l-373 -645h-74l347 601h-316q1 18 8 59h410z" />
    <glyph glyph-name="eight" unicode="8" horiz-adv-x="536" 
d="M320 609q-61 0 -103 -39t-42 -96q0 -45 31 -72t82 -27q58 0 101 38q42 39 42 96q0 45 -30 72.5t-81 27.5zM279 322q-73 0 -123 -45q-49 -43 -49 -110q0 -52 36 -84t99 -32q76 0 122 46q48 47 48 113q0 51 -35.5 81.5t-97.5 30.5zM329 672q75 0 125 -42q50 -41 50 -109
q0 -54 -30.5 -100t-80.5 -64l-1 -4q92 -41 92 -139q0 -99 -73 -162q-74 -62 -178 -62q-92 0 -146 43t-54 117q0 64 37.5 118t99.5 78l2 4q-70 36 -70 119q0 88 67 145q67 58 160 58z" />
    <glyph glyph-name="nine" unicode="9" horiz-adv-x="536" 
d="M326 671q92 0 144.5 -47.5t52.5 -128.5q0 -101 -85 -216l-204 -279h-81l207 279l-3 4q-40 -31 -105 -31q-83 0 -132.5 48t-49.5 126q0 106 74 175q74 70 182 70zM274 311q72 0 124 47q51 46 51 126q0 57 -35 91t-97 34q-75 0 -125 -51q-49 -50 -49 -124q0 -55 35.5 -89
t95.5 -34z" />
    <glyph glyph-name="colon" unicode=":" horiz-adv-x="203" 
d="M78 97q19 0 31.5 -12.5t12.5 -31.5q0 -24 -17 -41.5t-41 -17.5q-19 0 -31 13t-12 32q0 23 17.5 40.5t39.5 17.5zM122 400q20 0 32 -13t12 -32q0 -23 -18 -40.5t-41 -17.5q-19 0 -31 12.5t-12 30.5q0 24 17.5 42t40.5 18z" />
    <glyph glyph-name="semicolon" unicode=";" horiz-adv-x="214" 
d="M131 400q19 0 31.5 -13t12.5 -32q0 -23 -18.5 -40.5t-40.5 -17.5q-19 0 -31.5 12.5t-12.5 30.5q0 24 17.5 42t41.5 18zM24 46q3 22 20.5 37.5t40.5 15.5q22 0 35 -14.5t10 -38.5q-5 -32 -38 -89q-33 -59 -66 -102l-39 5l61 139q-29 11 -24 47z" />
    <glyph glyph-name="less" unicode="&#x3c;" horiz-adv-x="536" 
d="M186 296l259 -156l-9 -66l-356 216l2 11l416 215l-9 -67z" />
    <glyph glyph-name="equal" unicode="=" horiz-adv-x="536" 
d="M463 261l-8 -53h-386l7 53h387zM480 382l-8 -54h-387l8 54h387z" />
    <glyph glyph-name="greater" unicode="&#x3e;" horiz-adv-x="536" 
d="M467 290l-417 -216l9 66l303 156l-259 153l9 67l356 -215z" />
    <glyph glyph-name="question" unicode="?" horiz-adv-x="488" 
d="M276 692q78 0 130 -41q52 -40 52 -109q0 -96 -91 -175q-16 -14 -54 -44t-57 -46.5t-36.5 -41t-17.5 -44.5q0 -15 8 -29l-70 -17q-8 29 -8 46q0 69 87 136q5 4 34.5 27t39 31t31.5 29.5t30.5 35.5t16.5 34.5t8 40.5q0 44 -31.5 71t-86.5 27q-73 0 -153 -39q6 56 10 73
q78 35 158 35zM171 91q20 0 31.5 -12t11.5 -31q0 -24 -17 -40.5t-41 -16.5q-19 0 -30.5 11t-11.5 30q0 25 17 42t40 17z" />
    <glyph glyph-name="at" unicode="@" horiz-adv-x="884" 
d="M594 502h41l-38 -269q-9 -68 52 -68q49 0 88 62t39 158q0 109 -74 169q-73 61 -189 61q-158 0 -269 -108q-111 -107 -111 -264q0 -120 72 -192t194 -72q95 0 176 39l-9 -59q-75 -34 -169 -34q-151 0 -237 85q-86 86 -86 227q0 184 130 308t314 124q140 0 228 -76
q89 -75 89 -205q0 -126 -55 -199q-56 -74 -139 -74q-45 0 -71.5 21t-28.5 62q-48 -80 -151 -80q-72 0 -109 43t-37 114q0 104 57 170q59 66 145 66q92 0 129 -82zM448 457q-64 0 -102 -51q-37 -50 -37 -119q0 -53 25 -84t74 -31q61 0 101 49q41 50 41 124q0 50 -27 81
t-75 31z" />
    <glyph glyph-name="A" unicode="A" horiz-adv-x="611" 
d="M562 0h-77l-38 148h-306l-80 -148h-82l379 667h15zM348 516h-4l-170 -308h257z" />
    <glyph glyph-name="B" unicode="B" horiz-adv-x="600" 
d="M327 321h-161l-36 -253h170q46 0 79.5 15t50 38.5t24 46.5t7.5 46q0 49 -35.5 78t-98.5 29zM366 595h-162l-12 -89q-11 -81 -18 -122h155q20 0 41.5 5.5t44.5 18.5t37.5 39.5t14.5 62.5q0 39 -26.5 62t-74.5 23zM440 361v-4q100 -31 100 -142q0 -95 -67 -155
q-66 -60 -163 -60h-267l93 661h242q80 0 124 -36t44 -106q0 -51 -27.5 -92.5t-78.5 -65.5z" />
    <glyph glyph-name="C" unicode="C" horiz-adv-x="601" 
d="M554 110l-10 -74q-82 -46 -197 -46q-140 0 -215 76q-74 77 -74 203q0 179 114 291q115 113 274 113q102 0 160 -32l-6 -74q-65 37 -153 37q-125 0 -216 -90q-92 -90 -92 -237q0 -102 59.5 -160t167.5 -58q92 0 188 51z" />
    <glyph glyph-name="D" unicode="D" horiz-adv-x="669" 
d="M344 594h-139l-74 -525h149q125 0 197 89q73 88 73 228q0 96 -53 152t-153 56zM276 0h-233l93 661h221q131 0 202 -74t71 -204q0 -169 -99 -276q-98 -107 -255 -107z" />
    <glyph glyph-name="E" unicode="E" horiz-adv-x="547" 
d="M132 68h359l-9 -68h-439l93 661h413l-10 -67h-333l-30 -213h308l-9 -66h-309q-31 -229 -34 -247z" />
    <glyph glyph-name="F" unicode="F" horiz-adv-x="510" 
d="M162 293l-40 -293h-79l93 661h416l-10 -67h-337l-33 -234h306q0 -2 -9 -67h-307z" />
    <glyph glyph-name="G" unicode="G" horiz-adv-x="655" 
d="M451 674q108 0 169 -37l-7 -76q-70 43 -168 43q-123 0 -215 -92q-91 -91 -91 -237q0 -100 58 -158.5t165 -58.5q66 0 133 26q22 150 34 245h74l-18 -126q-16 -120 -24 -172q-87 -40 -223 -40t-209 78q-72 78 -72 202q0 173 114 288t280 115z" />
    <glyph glyph-name="H" unicode="H" horiz-adv-x="660" 
d="M638 661l-93 -661h-77l43 314h-346l-43 -314h-79l93 661h79l-40 -279h345l40 279h78z" />
    <glyph glyph-name="I" unicode="I" horiz-adv-x="254" 
d="M224 661l-93 -661h-79l93 661h79z" />
    <glyph glyph-name="J" unicode="J" horiz-adv-x="448" 
d="M114 60q81 0 121 45.5t53 136.5l60 419h78l-24 -164q-22 -162 -25 -186l-11 -73q-14 -81 -38 -127q-59 -122 -210 -121q-30 0 -75 8q-40 7 -64 22l10 78q22 -17 58 -27.5t67 -10.5z" />
    <glyph glyph-name="K" unicode="K" horiz-adv-x="583" 
d="M137 662h78l-44 -312l341 312h92l-345 -319l280 -343h-101l-269 336l-47 -336h-78z" />
    <glyph glyph-name="L" unicode="L" horiz-adv-x="506" 
d="M43 0l93 661h79l-84 -593h339l-9 -68h-418z" />
    <glyph glyph-name="M" unicode="M" horiz-adv-x="798" 
d="M672 477l-281 -329h-15l-189 338l-2 -3l-67 -483h-75l94 668h16l242 -423l366 423h15l-93 -668h-75l66 475z" />
    <glyph glyph-name="N" unicode="N" horiz-adv-x="706" 
d="M191 508l-71 -508h-77l94 671h17l378 -512h4l71 502h77l-94 -669h-15l-381 516h-3z" />
    <glyph glyph-name="O" unicode="O" horiz-adv-x="756" 
d="M433 671q133 0 208 -81q76 -79 76 -210q0 -164 -109 -276q-108 -112 -263 -112q-133 0 -209 79t-76 206q0 162 108 278q110 116 265 116zM428 602q-119 0 -203 -95q-83 -95 -83 -226q0 -98 55 -160q56 -62 151 -62q122 0 205 92t83 226q0 97 -56 161q-55 64 -152 64z" />
    <glyph glyph-name="P" unicode="P" horiz-adv-x="560" 
d="M122 0h-80l92 660h222q98 0 149.5 -52t51.5 -138q0 -110 -78 -176q-79 -65 -184 -65h-142zM326 597h-121l-43 -305h127q93 0 140 54q47 55 47 124q0 59 -36.5 93t-113.5 34z" />
    <glyph glyph-name="Q" unicode="Q" horiz-adv-x="757" 
d="M434 671q133 0 208 -81q76 -79 76 -209q0 -135 -76 -238q-76 -102 -195 -137l226 -53l-36 -76l-349 120q-107 15 -168 91q-60 76 -60 189q0 163 109 278q110 116 265 116zM429 602q-119 0 -202 -95t-83 -226q0 -99 54 -160q54 -62 150 -62q119 0 202 92q84 93 84 226
q0 100 -55 162q-54 63 -150 63z" />
    <glyph glyph-name="R" unicode="R" horiz-adv-x="576" 
d="M342 254l191 -254h-94l-196 277l3 13q119 5 177 58q60 56 60 126q0 57 -37.5 89t-100.5 32h-140l-83 -595h-80l92 660h230q84 0 140 -46q58 -45 58 -128q0 -85 -61 -149q-59 -63 -159 -83z" />
    <glyph glyph-name="S" unicode="S" horiz-adv-x="487" 
d="M4 43l5 39l5 40q82 -65 182 -65q74 0 121 34.5t47 96.5q0 75 -101 124q-8 4 -35 17t-37.5 19t-32.5 19.5t-32.5 24t-23.5 26t-18 32.5t-5 37q0 91 67 137q67 48 155 48q97 0 165 -41l-11 -77q-66 51 -153 51q-54 0 -98 -27q-43 -27 -43 -84q0 -52 101 -101
q40 -18 64.5 -32t56 -38t47.5 -55.5t16 -69.5q0 -103 -71 -156q-70 -52 -180 -52q-117 0 -191 53z" />
    <glyph glyph-name="T" unicode="T" horiz-adv-x="521" 
d="M564 662l-10 -68h-206l-83 -594h-79l83 594h-207l10 68h492z" />
    <glyph glyph-name="U" unicode="U" horiz-adv-x="667" 
d="M510 248l58 413h78l-59 -416q-18 -120 -91.5 -187.5t-199.5 -67.5q-106 0 -163 55.5t-57 154.5q0 32 4 53l56 408h78l-57 -409q-3 -22 -3 -44q0 -71 38.5 -109.5t114.5 -38.5q88 0 139.5 50t63.5 138z" />
    <glyph glyph-name="V" unicode="V" horiz-adv-x="574" 
d="M621 659l-361 -667h-16l-178 667h78q13 -57 65 -254q50 -187 65 -246h5l261 500h81z" />
    <glyph glyph-name="W" unicode="W" horiz-adv-x="885" 
d="M253 167l237 498h14l101 -498h4l242 492h80l-338 -667h-13l-104 503h-3l-243 -503h-16l-149 667h79l104 -492h5z" />
    <glyph glyph-name="X" unicode="X" horiz-adv-x="609" 
d="M564 0h-93l-156 329l-245 -329h-96l268 345l-160 316h83l152 -302l233 302h90l-249 -319z" />
    <glyph glyph-name="Y" unicode="Y" horiz-adv-x="545" 
d="M149 661l143 -301h4q38 56 211 301h86l-268 -375l-40 -286h-79l40 286l-179 375h82z" />
    <glyph glyph-name="Z" unicode="Z" horiz-adv-x="508" 
d="M116 661h427l-2 -13l-426 -581h344q0 -3 -9 -67h-465l1 4v6l428 584h-309z" />
    <glyph glyph-name="bracketleft" unicode="[" horiz-adv-x="259" 
d="M176 -122h-159l120 853h159l-7 -52h-94l-105 -750h93z" />
    <glyph glyph-name="backslash" unicode="\" horiz-adv-x="302" 
d="M91 688l198 -776h-57l-199 776h58z" />
    <glyph glyph-name="bracketright" unicode="]" horiz-adv-x="259" 
d="M98 731h159l-121 -853h-157l7 51h93l105 750h-94z" />
    <glyph glyph-name="asciicircum" unicode="^" horiz-adv-x="471" 
d="M302 657l157 -315h-66l-114 230l-181 -230h-62l247 315h19z" />
    <glyph glyph-name="underscore" unicode="_" horiz-adv-x="496" 
d="M439 -124h-486q1 5 3 22.5t3 22.5h486q-6 -24 -6 -45z" />
    <glyph glyph-name="grave" unicode="`" horiz-adv-x="469" 
d="M240 682l92 -155h-50l-106 134z" />
    <glyph glyph-name="a" unicode="a" horiz-adv-x="546" 
d="M275 394q-76 0 -121 -62q-44 -62 -44 -144q0 -65 29.5 -101.5t87.5 -36.5q73 0 121 58q49 58 49 148q0 62 -32 100t-90 38zM387 0l-7 62h-4q-68 -72 -168 -72q-87 0 -131 53q-43 52 -43 132q0 124 68 201q69 78 173 78q101 0 145 -78h5l26 69h49l-62 -445h-51z" />
    <glyph glyph-name="b" unicode="b" horiz-adv-x="543" 
d="M22 0l100 711h72l-49 -333l4 -2q65 80 163 80q92 0 140 -54q48 -52 48 -133q0 -126 -70 -202t-176 -76q-51 0 -92 22.5t-62 64.5h-6l-23 -78h-49zM248 53q82 0 128 57q47 58 47 143q0 66 -31 104t-90 38q-76 0 -126 -59t-50 -142q0 -64 32 -102t90 -39z" />
    <glyph glyph-name="c" unicode="c" horiz-adv-x="419" 
d="M371 85q-2 -7 -5.5 -33t-4.5 -33q-53 -29 -137 -29q-91 0 -140.5 54.5t-49.5 143.5q0 120 75 193q75 75 186 75q66 0 108 -21q-2 -8 -5.5 -33.5t-4.5 -33.5q-35 25 -96 25q-83 0 -134 -57t-51 -154q0 -58 36 -94t100 -36q68 0 123 33z" />
    <glyph glyph-name="d" unicode="d" horiz-adv-x="550" 
d="M425 383l47 328h72l-99 -711h-55l-2 65l-1 1l-2 1q-61 -75 -172 -75q-86 0 -133 54q-46 53 -46 132q0 124 70 200q71 77 168 77q106 0 148 -74q2 1 3 1q1 1 2 1zM233 52q74 0 123 58q50 59 50 149q0 61 -32.5 98t-91.5 37q-79 0 -126 -59q-46 -58 -46 -144
q0 -64 31.5 -101.5t91.5 -37.5z" />
    <glyph glyph-name="e" unicode="e" horiz-adv-x="467" 
d="M283 455q71 0 112.5 -35t41.5 -90q0 -64 -66.5 -103t-189.5 -39q-45 0 -69 3v-3q-6 -66 26.5 -102.5t96.5 -36.5q97 0 173 60l-11 -69q-79 -50 -173 -50q-92 0 -141 50.5t-49 139.5q0 116 70 195q71 80 179 80zM279 393q-61 0 -104.5 -41t-57.5 -110q32 -5 71 -5
q84 0 129 25t45 63q0 29 -21.5 48.5t-61.5 19.5z" />
    <glyph glyph-name="f" unicode="f" horiz-adv-x="302" 
d="M392 713l-2 -65q-43 15 -80 15q-96 0 -113 -122l-14 -96h132l-9 -60h-131l-79 -587h-73l78 587h-78l7 47l80 13l13 93q28 187 190 187q39 0 79 -12z" />
    <glyph glyph-name="g" unicode="g" horiz-adv-x="493" 
d="M147 -219q-83 0 -125.5 31.5t-42.5 82.5q0 38 23.5 75.5t63.5 62.5l-15 2q-25 3 -35 11.5t-10 27.5q0 11 1 14l93 77q-33 33 -33 92q0 81 59 140q58 58 143 58q31 0 69 -12h147l-6 -41l-84 -11q30 -33 30 -84q0 -76 -59 -132q-58 -55 -141 -55q-55 0 -89 22l-27 -26
l-31 -30l206 -24q113 -14 113 -90q0 -58 -59 -120q-29 -32 -79.5 -51.5t-111.5 -19.5zM231 175q54 0 90 38q37 37 37 90q0 42 -26.5 69t-68.5 27q-53 0 -90 -39q-37 -38 -37 -93q0 -42 25 -67t70 -25zM267 9l-160 19q-56 -54 -56 -115q0 -73 104 -73q79 0 123 41t44 82
q0 39 -55 46z" />
    <glyph glyph-name="h" unicode="h" horiz-adv-x="520" 
d="M454 270l-37 -270h-75l35 254q3 21 3 40q0 97 -87 97q-61 0 -106 -53q-45 -52 -57 -135l-30 -203h-74l99 711h72l-50 -340q1 0 2 -0.5t2 -0.5q71 86 164 86q69 0 105.5 -38t36.5 -107q0 -20 -3 -41z" />
    <glyph glyph-name="i" unicode="i" horiz-adv-x="231" 
d="M179 445l-62 -445h-75l62 445h75zM169 629q18 0 29 -11.5t11 -29.5q0 -22 -16 -38t-37 -16q-19 0 -30 11t-11 29q0 21 16.5 38t37.5 17z" />
    <glyph glyph-name="j" unicode="j" horiz-adv-x="217" 
d="M162 628q18 0 29 -11.5t11 -28.5q0 -22 -16 -38t-37 -16q-19 0 -29.5 11t-10.5 28q0 22 16 38.5t37 16.5zM-86 -228l-28 68q67 1 102 36q15 14 26 44q12 33 16 56l12 75l56 394h73l-56 -397q-21 -150 -63 -207t-138 -69z" />
    <glyph glyph-name="k" unicode="k" horiz-adv-x="472" 
d="M376 444h96l-262 -212l221 -232h-93l-208 224l-31 -224h-73l99 711h73l-65 -470z" />
    <glyph glyph-name="l" unicode="l" horiz-adv-x="210" 
d="M208 711l-99 -711h-75l99 711h75z" />
    <glyph glyph-name="m" unicode="m" horiz-adv-x="803" 
d="M150 444l4 -69l3 -2q66 83 153 83q50 0 83.5 -23.5t44.5 -65.5q32 43 74.5 66t84.5 23q143 0 143 -138q0 -18 -3 -39l-39 -279h-74l38 269l2 32q0 91 -85 91q-54 0 -93.5 -41.5t-50.5 -121.5l-32 -229h-74q12 76 37 268q2 16 2 33q0 90 -77 90q-40 0 -76 -28.5t-57 -78.5
q-14 -35 -23 -77q-9 -54 -17 -118q-2 -22 -4.5 -41.5t-4 -33t-1.5 -14.5h-75l62 444h55z" />
    <glyph glyph-name="n" unicode="n" horiz-adv-x="529" 
d="M462 263l-37 -263h-75l35 254q3 21 3 39q0 98 -87 98q-63 0 -107 -53.5t-57 -141.5l-29 -196h-75l62 445h56l3 -76h3q66 86 160 86q148 0 148 -150q0 -19 -3 -42z" />
    <glyph glyph-name="o" unicode="o" horiz-adv-x="526" 
d="M290 456q92 0 142.5 -53t50.5 -144q0 -115 -70 -192q-71 -78 -181 -78q-93 0 -145 53t-52 142q0 113 71 193q70 79 184 79zM286 393q-76 0 -125 -60q-48 -59 -48 -144q0 -64 32 -101t91 -37q75 0 125 59q49 59 49 143q0 62 -33.5 101t-90.5 39z" />
    <glyph glyph-name="p" unicode="p" horiz-adv-x="536" 
d="M138 445l3 -65l3 -2q60 76 170 76q87 0 132 -55q46 -53 46 -132q0 -125 -70 -201q-69 -76 -167 -76q-107 0 -149 74h-2q-2 -1 -3 -1l-41 -278h-72l92 660h58zM294 393q-74 0 -124 -59q-49 -58 -49 -148q0 -61 32.5 -98.5t91.5 -37.5q79 0 125 58q47 59 47 145
q0 65 -32 102.5t-91 37.5z" />
    <glyph glyph-name="q" unicode="q" horiz-adv-x="548" 
d="M513 445l-92 -660h-73l41 283l-3 2q-64 -81 -165 -81q-92 0 -140 53q-47 55 -47 134q0 126 70 202t176 76h4q107 -2 151 -87h5l23 78h50zM286 392q-78 0 -127 -58q-48 -58 -48 -143q0 -66 31 -103.5t90 -37.5q77 0 126 58q50 59 50 143q0 64 -32 102t-90 39z" />
    <glyph glyph-name="r" unicode="r" horiz-adv-x="320" 
d="M342 450l-4 -77q-27 9 -53 9q-62 0 -102 -54t-52 -151l-23 -177h-75l62 444h52v-92h1l2 -1q21 49 59.5 76.5t87.5 27.5q23 0 45 -5z" />
    <glyph glyph-name="s" unicode="s" horiz-adv-x="369" 
d="M-7 28q0 17 6 68q59 -49 136 -49q110 0 110 79q0 26 -28.5 49t-69.5 39q-41 17 -69.5 46t-28.5 65q0 67 49 98q50 32 120 32q67 0 121 -30q-1 -8 -4 -32.5t-4 -32.5q-58 37 -113 37q-40 0 -66.5 -16.5t-26.5 -51.5q0 -40 97 -80q41 -16 69.5 -47t28.5 -70q0 -67 -51 -104
t-133 -37q-87 0 -143 37z" />
    <glyph glyph-name="t" unicode="t" horiz-adv-x="325" 
d="M126 449l66 133h23l-19 -137h122q0 -3 -2.5 -15t-4.5 -25t-2 -20h-122l-35 -248q-10 -81 52 -81q37 0 84 29l-9 -65q-47 -29 -99 -29q-68 0 -90 38t-12 115l34 241h-72q2 8 7 46z" />
    <glyph glyph-name="u" unicode="u" horiz-adv-x="517" 
d="M69 175l38 270h74l-35 -255q-3 -21 -3 -38q0 -99 88 -99q57 0 98 52t53 136l30 204h75l-62 -445h-59v68h-4q-62 -77 -149 -77q-83 0 -119.5 49t-24.5 135z" />
    <glyph glyph-name="v" unicode="v" horiz-adv-x="454" 
d="M467 445l-277 -451h-12l-148 451h78l13 -44q7 -22 79 -266h5l183 310h79z" />
    <glyph glyph-name="w" unicode="w" horiz-adv-x="696" 
d="M178 134l186 313h11l96 -313h4l162 311h73l-248 -451h-12l-98 318h-3l-188 -318h-13l-119 451h76l69 -311h4z" />
    <glyph glyph-name="x" unicode="x" horiz-adv-x="451" 
d="M404 0h-81l-108 214l-163 -214h-86l182 228l-111 217h78l104 -202l153 202h86l-174 -216z" />
    <glyph glyph-name="y" unicode="y" horiz-adv-x="435" 
d="M103 445l84 -351h5l183 351h78l-358 -660h-75l124 229l-119 431h78z" />
    <glyph glyph-name="z" unicode="z" horiz-adv-x="399" 
d="M64 445h338l-2 -12l-310 -374h252l-7 -59h-364q0 2 0.5 6t0.5 5l313 374h-229z" />
    <glyph glyph-name="braceleft" unicode="{" horiz-adv-x="296" 
d="M137 334v-5q39 -23 39 -85q0 -19 -6 -67l-25 -176q-6 -40 1 -56t34 -16h35l-7 -53h-58q-44 0 -61 31.5t-10 83.5l29 216q3 18 3 40q0 67 -48 78q0 2 0.5 8t0.5 7q63 13 79 115l14 91q0 4 3 29q7 49 17 81q12 37 34.5 56t61.5 22h56l-7 -53h-33q-33 0 -46 -26
q-8 -22 -9 -27l-3 -15q0 -3 -2 -17t-2 -16l-18 -130q-14 -95 -72 -116z" />
    <glyph glyph-name="bar" unicode="|" horiz-adv-x="272" 
d="M202 -139h-63v894h63v-894z" />
    <glyph glyph-name="braceright" unicode="}" horiz-adv-x="296" 
d="M182 329q0 1 0.5 3l0.5 2q-41 17 -41 78q0 18 3 38q1 7 2.5 19t4 29t4.5 31q2 15 5.5 42.5t5.5 37.5q2 26 2 28q0 44 -40 44h-33q5 43 7 53h33q57 0 78 -19t21 -65q0 -20 -4 -47l-21 -153q-2 -14 -2 -30q0 -70 48 -81l-3 -16q-64 -14 -77 -119q-6 -35 -22 -154
q-6 -40 -6 -43l-4 -22q-5 -27 -14 -45q-24 -64 -96 -64h-51l7 53h35q48 0 57 72l24 176q9 65 25 99.5t51 52.5z" />
    <glyph glyph-name="asciitilde" unicode="~" horiz-adv-x="493" 
d="M449 377l35 -36q-55 -91 -136 -91q-40 0 -106 31t-90 31q-47 0 -90 -64l-36 36q57 91 135 91q35 0 104 -32t90 -32q43 0 94 66z" />
    <glyph glyph-name="uni00A0" unicode="&#xa0;" horiz-adv-x="235" 
 />
    <glyph glyph-name="exclamdown" unicode="&#xa1;" horiz-adv-x="279" 
d="M30 -243l87 529h57l-65 -529h-79zM169 456q19 0 30.5 -12t11.5 -31q0 -24 -17 -41.5t-40 -17.5q-19 0 -31.5 12.5t-12.5 31.5q0 23 18.5 40.5t40.5 17.5z" />
    <glyph glyph-name="cent" unicode="&#xa2;" horiz-adv-x="536" 
d="M289 -30h-54l15 104q-75 10 -116 63.5t-41 133.5q0 106 62 179q62 72 160 86l15 110h54l-15 -108q53 -1 93 -19q-7 -39 -10 -68q-37 25 -97 25q-85 0 -135 -57t-50 -156q0 -58 36 -93t99 -35q73 0 125 34q-1 -8 -4.5 -34t-5.5 -33q-47 -26 -116 -30z" />
    <glyph glyph-name="sterling" unicode="&#xa3;" horiz-adv-x="536" 
d="M520 647l-9 -66q-55 21 -88 21q-137 0 -157 -150l-12 -91h172l-7 -51h-174q-25 -169 -97 -250h295q-1 -10 -8 -60h-398q0 2 0.5 6.5t0.5 5.5q104 103 134 298h-76l7 51h77l6 46l7 46q19 123 94 172q62 40 130 40q57 0 103 -18z" />
    <glyph glyph-name="currency" unicode="&#xa4;" horiz-adv-x="546" 
d="M116 287q0 57 35 110l-52 53l46 45l51 -53q53 36 110 36q62 0 112 -37l52 51l44 -43l-27 -28q-4 -5 -8.5 -9t-7.5 -7l-5 -5l-4 -4l-1 -1q35 -50 35 -108q0 -57 -35 -109l54 -52l-45 -46l-53 52q-53 -35 -111 -35q-56 0 -111 35l-48 -52l-46 46l51 49q-36 48 -36 112z
M175 286q0 -53 38 -93q40 -38 92 -38q55 0 93 38q38 40 38 93q0 55 -38 93q-38 39 -93 39q-53 0 -92 -39q-38 -38 -38 -93z" />
    <glyph glyph-name="yen" unicode="&#xa5;" horiz-adv-x="536" 
d="M54 185l6 40h431l-7 -40h-179l-26 -185h-77l25 185h-173zM504 320l-6 -41h-430l6 41h154l-132 342h81l107 -318h4l204 318h81l-231 -342h162z" />
    <glyph glyph-name="brokenbar" unicode="&#xa6;" horiz-adv-x="271" 
d="M201 756v-349h-61v349h61zM140 -140v415h61v-415h-61z" />
    <glyph glyph-name="section" unicode="&#xa7;" horiz-adv-x="547" 
d="M357 711q76 0 130 -30l-9 -65q-58 34 -126 34q-51 0 -83.5 -20.5t-32.5 -58.5q0 -28 25 -51t61 -41t72 -38t61 -51.5t25 -71.5q0 -45 -29.5 -86t-77.5 -62q50 -41 50 -95q0 -71 -60 -116t-144 -45q-49 0 -98 13t-77 31l10 71q31 -22 74 -37t80 -15q59 0 96.5 22t37.5 67
q0 57 -88 102q-86 46 -115 72q-46 42 -45 93q0 43 27 80.5t77 61.5q-37 43 -37 86q0 67 54 108.5t142 41.5zM245 444q-75 -30 -75 -95q0 -46 46 -78l53 -32q32 -17 56 -34q80 41 80 99q0 38 -38 67q-18 13 -36 24q-13 9 -46 27t-40 22z" />
    <glyph glyph-name="dieresis" unicode="&#xa8;" horiz-adv-x="474" 
d="M204 632q16 0 25.5 -10t9.5 -26q0 -21 -13.5 -35.5t-33.5 -14.5q-18 0 -28 10t-10 26q0 20 15 35t35 15zM366 632q16 0 26 -10t10 -26q0 -21 -14 -35.5t-34 -14.5q-17 0 -27 10t-10 25q0 20 15 35.5t34 15.5z" />
    <glyph glyph-name="copyright" unicode="&#xa9;" horiz-adv-x="844" 
d="M598 184v-52q-49 -28 -128 -28q-113 0 -176 65q-62 65 -62 170q0 103 68 174q67 70 171 70q65 0 110 -21v-54q-47 24 -102 24q-79 0 -131 -52q-53 -53 -53 -141q0 -80 52 -132q53 -53 130 -53q70 0 121 30zM817 350q0 -151 -107 -258q-106 -106 -257 -106
q-152 0 -258 106q-105 106 -105 258q0 154 107 259q106 106 261 106q148 0 253 -107q106 -106 106 -258zM767 350q0 130 -91 224t-219 94q-135 0 -226 -93q-92 -92 -92 -225t91 -225q92 -93 223 -93t222 93q92 94 92 225z" />
    <glyph glyph-name="ordfeminine" unicode="&#xaa;" horiz-adv-x="344" 
d="M360 590l-46 -292h-40q0 7 -0.5 28t-0.5 27q-39 -61 -115 -61q-59 0 -89.5 34t-30.5 90q0 81 46 131.5t119 50.5q77 0 101 -60l14 52h42zM203 550q-47 0 -76 -36.5t-29 -89.5q0 -83 73 -83q47 0 78.5 36t31.5 90q0 37 -21 60t-57 23z" />
    <glyph glyph-name="guillemotleft" unicode="&#xab;" horiz-adv-x="421" 
d="M266 385l-159 -182l107 -188h-77l-104 181l1 9l158 180h74zM407 385l-159 -182l107 -188h-76l-105 181l1 9l159 180h73z" />
    <glyph glyph-name="logicalnot" unicode="&#xac;" horiz-adv-x="536" 
d="M89 324h378l-31 -222h-55l23 168h-323z" />
    <glyph glyph-name="sfthyphen" unicode="&#xad;" horiz-adv-x="367" 
d="M304 213h-252l9 62h251q0 -8 -4 -31.5t-4 -30.5z" />
    <glyph glyph-name="registered" unicode="&#xae;" horiz-adv-x="605" 
d="M373 432l91 -110h-56l-97 126v9q91 3 91 54q0 54 -64 54h-50v-243h-44v281h100q42 0 72.5 -24t30.5 -64q0 -29 -19.5 -51t-54.5 -32zM336 217q-108 0 -174 68q-66 69 -66 173q0 100 70 170q71 71 170 71q103 0 172 -70q69 -71 69 -171t-71 -171q-70 -70 -170 -70z
M136 458q0 -86 56 -145t144 -59q84 0 143 60q59 61 59 144q0 84 -59 143q-58 60 -143 60q-84 0 -142 -60q-58 -58 -58 -143z" />
    <glyph glyph-name="overscore" unicode="&#xaf;" horiz-adv-x="473" 
d="M408 550h-269l8 57h269z" />
    <glyph glyph-name="degree" unicode="&#xb0;" horiz-adv-x="400" 
d="M257 654q47 0 75.5 -29t28.5 -74q0 -57 -40 -97t-97 -40q-48 0 -75 27t-27 72q0 56 41 99q41 42 94 42zM251 610q-34 0 -59 -28q-25 -26 -25 -61q0 -27 17.5 -46t44.5 -19q37 0 62.5 26.5t25.5 61.5q0 28 -18.5 47t-47.5 19z" />
    <glyph glyph-name="plusminus" unicode="&#xb1;" horiz-adv-x="536" 
d="M43 0l7 54h378q-5 -45 -7 -54h-378zM458 266h-161l-23 -158h-54l23 158h-163l7 54h163l22 156h54l-22 -156h162z" />
    <glyph glyph-name="twosuperior" unicode="&#xb2;" horiz-adv-x="339" 
d="M216 780q54 0 84.5 -26.5t30.5 -71.5q0 -64 -55 -129q-57 -66 -126 -116h151l-6 -48h-283l1 11q260 156 260 268q0 62 -66 62q-55 0 -128 -50l11 60q67 40 126 40z" />
    <glyph glyph-name="threesuperior" unicode="&#xb3;" horiz-adv-x="339" 
d="M112 592l-5 9l130 126h-155l7 48h253l-1 -10l-140 -136q51 -1 80 -28.5t29 -73.5q0 -65 -48 -104t-112 -39q-82 0 -126 35l8 60q51 -48 116 -48q45 0 74 27.5t29 67.5q0 34 -24.5 52t-64.5 18q-33 0 -50 -4z" />
    <glyph glyph-name="acute" unicode="&#xb4;" horiz-adv-x="469" 
d="M421 658l-133 -131h-54l123 156q36 -13 64 -25z" />
    <glyph glyph-name="mu" unicode="&#xb5;" horiz-adv-x="513" 
d="M0 -215l92 660h73l-39 -282q-2 -22 -2 -23q0 -37 19.5 -59t54.5 -22q62 0 108 41t57 114l32 231h75l-62 -445h-60l-3 63q0 1 -2 1q-69 -69 -155 -69q-54 0 -81 31q-1 -16 -15 -105q-9 -62 -19 -136h-73z" />
    <glyph glyph-name="mu" unicode="&#x3bc;" horiz-adv-x="513" 
d="M0 -215l92 660h73l-39 -282q-2 -22 -2 -23q0 -37 19.5 -59t54.5 -22q62 0 108 41t57 114l32 231h75l-62 -445h-60l-3 63q0 1 -2 1q-69 -69 -155 -69q-54 0 -81 31q-1 -16 -15 -105q-9 -62 -19 -136h-73z" />
    <glyph glyph-name="paragraph" unicode="&#xb6;" horiz-adv-x="527" 
d="M388 688l-53 -375h-77q-71 0 -115.5 44.5t-44.5 114.5q0 86 63 151q65 65 150 65h77zM435 688h76l-92 -658q-29 -201 -199 -211l-23 64q72 3 104.5 41t42.5 116z" />
    <glyph glyph-name="middot" unicode="&#xb7;" horiz-adv-x="203" 
d="M108 302q20 0 32 -12.5t12 -32.5q0 -24 -18 -41.5t-41 -17.5q-19 0 -31.5 12.5t-12.5 31.5q0 24 17.5 42t41.5 18z" />
    <glyph glyph-name="cedilla" unicode="&#xb8;" horiz-adv-x="420" 
d="M127 -97l-14 9l64 112l42 -3l-46 -71q51 -1 76 -20t25 -50q0 -41 -38 -71q-37 -31 -93 -31q-41 0 -80 16l4 47q40 -18 79 -18q32 0 49 13.5t17 35.5q0 17 -14.5 26.5t-37.5 9.5q-15 0 -33 -5z" />
    <glyph glyph-name="onesuperior" unicode="&#xb9;" horiz-adv-x="291" 
d="M233 781h10l-55 -391h-59q10 78 43 305l-52 -26q-50 -24 -52 -25q8 51 8 56z" />
    <glyph glyph-name="ordmasculine" unicode="&#xba;" horiz-adv-x="362" 
d="M227 603q65 0 101 -36t36 -96q0 -75 -49 -127q-49 -51 -127 -51q-66 0 -103 35t-37 96q0 75 49 127t130 52zM224 550q-48 0 -79.5 -35.5t-31.5 -87.5q0 -38 20.5 -61t56.5 -23q50 0 81 37q32 38 32 88q0 37 -21.5 59.5t-57.5 22.5z" />
    <glyph glyph-name="guillemotright" unicode="&#xbb;" horiz-adv-x="421" 
d="M83 15h-76l160 188l-108 182h73l107 -180l-1 -9zM224 15h-76l160 188l-108 182h73l107 -180l-1 -9z" />
    <glyph glyph-name="onequarter" unicode="&#xbc;" horiz-adv-x="752" 
d="M335 104l230 279h62l-206 -247h120l9 62l56 71h11l-19 -133h53l-6 -47h-53l-13 -89h-56l12 89h-202zM252 689h10l-55 -391h-59q11 78 43 305q-25 -14 -52 -26q-39 -18 -52 -25q8 51 8 56zM640 682h55l-585 -703h-55z" />
    <glyph glyph-name="onehalf" unicode="&#xbd;" horiz-adv-x="752" 
d="M237 689h10l-55 -391h-59q11 78 43 305q-25 -14 -52 -26q-39 -18 -52 -25q8 51 8 56zM578 390q54 0 84.5 -26.5t30.5 -71.5q0 -64 -55 -128q-56 -65 -127 -117h151l-5 -48h-283l1 11q259 154 259 269q0 61 -65 61q-55 0 -128 -50l11 60q67 40 126 40zM603 682h55
l-585 -703h-55z" />
    <glyph glyph-name="threequarters" unicode="&#xbe;" horiz-adv-x="752" 
d="M365 104l230 279h62l-206 -247h120l9 62l56 71h11l-19 -133h53l-6 -47h-53l-13 -89h-56l12 89h-202zM132 501l-5 9l130 126h-155l7 48h253l-1 -10l-140 -136q51 -1 80 -28.5t29 -73.5q0 -65 -48 -104t-112 -39q-82 0 -126 35l8 60q51 -48 116 -48q45 0 74 27.5t29 67.5
q0 34 -24.5 52t-64.5 18q-33 0 -50 -4zM675 682h55l-585 -703h-55z" />
    <glyph glyph-name="questiondown" unicode="&#xbf;" horiz-adv-x="488" 
d="M215 -245q-80 0 -132 40q-51 41 -51 110q0 93 89 171l45 36t46.5 38t36.5 33.5t29 36t10 32.5q0 18 -7 31q46 12 70 17q7 -21 7 -44q0 -72 -88 -138q-5 -4 -26 -20t-28.5 -22t-25.5 -21.5t-26 -24.5t-20.5 -24t-18 -27.5t-10 -28t-4.5 -30.5q0 -44 31.5 -70.5t86.5 -26.5
q71 0 154 39l-10 -73q-80 -34 -158 -34zM334 455q19 0 30.5 -12t11.5 -30q0 -25 -16.5 -42t-39.5 -17q-21 0 -32.5 12t-11.5 31q0 24 17.5 41t40.5 17z" />
    <glyph glyph-name="Agrave" unicode="&#xc0;" horiz-adv-x="611" 
d="M562 0h-77l-38 148h-306l-80 -148h-82l379 667h15zM348 516h-4l-170 -308h257zM282 874l102 -145h-54l-121 122q31 11 73 23z" />
    <glyph glyph-name="Aacute" unicode="&#xc1;" horiz-adv-x="611" 
d="M562 0h-77l-38 148h-306l-80 -148h-82l379 667h15zM348 516h-4l-170 -308h257zM533 844l-146 -115h-58l134 139z" />
    <glyph glyph-name="Acircumflex" unicode="&#xc2;" horiz-adv-x="611" 
d="M562 0h-77l-38 148h-306l-80 -148h-82l379 667h15zM348 516h-4l-170 -308h257zM396 862l118 -141h-76l-57 73l-89 -73h-75l162 141h17z" />
    <glyph glyph-name="Atilde" unicode="&#xc3;" horiz-adv-x="611" 
d="M562 0h-77l-38 148h-306l-80 -148h-82l379 667h15zM348 516h-4l-170 -308h257zM498 863l24 -37q-34 -73 -91 -73q-23 0 -62 24t-54 24q-29 0 -61 -54l-28 37q41 74 95 74q24 0 62 -25q39 -24 54 -24q28 0 61 54z" />
    <glyph glyph-name="Adieresis" unicode="&#xc4;" horiz-adv-x="611" 
d="M562 0h-77l-38 148h-306l-80 -148h-82l379 667h15zM348 516h-4l-170 -308h257zM301 838q16 0 26 -10.5t10 -26.5q0 -21 -14.5 -35.5t-33.5 -14.5q-17 0 -28 10t-11 26q0 20 15.5 35.5t35.5 15.5zM463 838q17 0 27 -10.5t10 -26.5q0 -21 -14 -35.5t-34 -14.5q-18 0 -28 10
t-10 26q0 20 15 35.5t34 15.5z" />
    <glyph glyph-name="Aring" unicode="&#xc5;" horiz-adv-x="611" 
d="M562 0h-77l-38 148h-306l-80 -148h-82l379 667h15zM348 516h-4l-170 -308h257zM386 874q36 0 59 -22.5t23 -58.5q0 -42 -32 -74q-31 -31 -76 -31q-36 0 -58 21t-22 55q0 45 32 77q32 33 74 33zM380 833q-22 0 -39.5 -19t-17.5 -42q0 -19 11.5 -31t31.5 -12q24 0 41 17.5
t17 41.5q0 19 -12 32t-32 13z" />
    <glyph glyph-name="AE" unicode="&#xc6;" horiz-adv-x="933" 
d="M883 68l-9 -68h-435l18 149h-277l-136 -149h-89l605 661h363q-9 -65 -9 -67h-329l-25 -213h308l-8 -66h-307l-30 -247h360zM498 497h-4l-264 -290h234z" />
    <glyph glyph-name="Ccedilla" unicode="&#xc7;" horiz-adv-x="601" 
d="M257 -103l-14 9l50 88q-113 14 -174 87t-61 188q0 179 114 291q115 113 274 113q102 0 160 -32l-6 -74q-65 37 -153 37q-125 0 -216 -90q-92 -90 -92 -237q0 -102 59.5 -160t167.5 -58q92 0 188 51l-10 -74q-82 -46 -197 -46h-14l-30 -46q51 -1 76 -20t25 -50
q0 -41 -38 -71q-37 -31 -93 -31q-41 0 -80 16l4 47q41 -18 79 -18q32 0 49 13.5t17 35.5q0 17 -14.5 26.5t-37.5 9.5q-15 0 -33 -5z" />
    <glyph glyph-name="Egrave" unicode="&#xc8;" horiz-adv-x="547" 
d="M132 68h359l-9 -68h-439l93 661h413l-10 -67h-333l-30 -213h308l-9 -66h-309q-31 -229 -34 -247zM309 874l102 -145h-54l-121 122q31 11 73 23z" />
    <glyph glyph-name="Eacute" unicode="&#xc9;" horiz-adv-x="547" 
d="M132 68h359l-9 -68h-439l93 661h413l-10 -67h-333l-30 -213h308l-9 -66h-309q-31 -229 -34 -247zM487 844l-146 -115h-58l134 139z" />
    <glyph glyph-name="Ecircumflex" unicode="&#xca;" horiz-adv-x="547" 
d="M132 68h359l-9 -68h-439l93 661h413l-10 -67h-333l-30 -213h308l-9 -66h-309q-31 -229 -34 -247zM372 866l118 -141h-76l-57 73l-89 -73h-75l162 141h17z" />
    <glyph glyph-name="Edieresis" unicode="&#xcb;" horiz-adv-x="547" 
d="M132 68h359l-9 -68h-439l93 661h413l-10 -67h-333l-30 -213h308l-9 -66h-309q-31 -229 -34 -247zM271 838q16 0 26 -10.5t10 -26.5q0 -21 -14.5 -35.5t-33.5 -14.5q-17 0 -28 10t-11 26q0 20 15.5 35.5t35.5 15.5zM433 838q17 0 27 -10.5t10 -26.5q0 -21 -14 -35.5
t-34 -14.5q-18 0 -28 10t-10 26q0 20 15 35.5t34 15.5z" />
    <glyph glyph-name="Igrave" unicode="&#xcc;" horiz-adv-x="254" 
d="M224 661l-93 -661h-79l93 661h79zM131 874l102 -145h-54l-121 122q31 11 73 23z" />
    <glyph glyph-name="Iacute" unicode="&#xcd;" horiz-adv-x="254" 
d="M224 661l-93 -661h-79l93 661h79zM347 844l-146 -115h-58l134 139z" />
    <glyph glyph-name="Icircumflex" unicode="&#xce;" horiz-adv-x="254" 
d="M225 866l118 -141h-76l-57 73l-89 -73h-75l162 141h17zM224 661l-93 -661h-79l93 661h79z" />
    <glyph glyph-name="Idieresis" unicode="&#xcf;" horiz-adv-x="254" 
d="M126 838q16 0 26 -10.5t10 -26.5q0 -21 -14.5 -35.5t-33.5 -14.5q-17 0 -28 10t-11 26q0 20 15.5 35.5t35.5 15.5zM288 838q17 0 27 -10.5t10 -26.5q0 -21 -14 -35.5t-34 -14.5q-18 0 -28 10t-10 26q0 20 15 35.5t34 15.5zM224 661l-93 -661h-79l93 661h79z" />
    <glyph glyph-name="Eth" unicode="&#xd0;" horiz-adv-x="669" 
d="M276 0h-233l44 313h-59q1 13 8 57h59q29 211 41 291h221q131 0 202 -74t71 -204q0 -169 -99 -276q-98 -107 -255 -107zM349 594h-144q-6 -41 -32 -224h197l-7 -57h-198l-34 -245h153q126 2 198 90q73 88 73 228q0 96 -53 152t-153 56z" />
    <glyph glyph-name="Ntilde" unicode="&#xd1;" horiz-adv-x="706" 
d="M191 508l-71 -508h-77l94 671h17l378 -512h4l71 502h77l-94 -669h-15l-381 516h-3zM549 853l24 -37q-34 -73 -91 -73q-23 0 -62 24t-54 24q-29 0 -61 -54l-28 37q41 74 95 74q24 0 62 -25q39 -24 54 -24q28 0 61 54z" />
    <glyph glyph-name="Ograve" unicode="&#xd2;" horiz-adv-x="756" 
d="M433 671q133 0 208 -81q76 -79 76 -210q0 -164 -109 -276q-108 -112 -263 -112q-133 0 -209 79t-76 206q0 162 108 278q110 116 265 116zM428 602q-119 0 -203 -95q-83 -95 -83 -226q0 -98 55 -160q56 -62 151 -62q122 0 205 92t83 226q0 97 -56 161q-55 64 -152 64z
M398 874l102 -145h-54l-121 122q31 11 73 23z" />
    <glyph glyph-name="Oacute" unicode="&#xd3;" horiz-adv-x="756" 
d="M433 671q133 0 208 -81q76 -79 76 -210q0 -164 -109 -276q-108 -112 -263 -112q-133 0 -209 79t-76 206q0 162 108 278q110 116 265 116zM428 602q-119 0 -203 -95q-83 -95 -83 -226q0 -98 55 -160q56 -62 151 -62q122 0 205 92t83 226q0 97 -56 161q-55 64 -152 64z
M612 844l-146 -115h-58l134 139z" />
    <glyph glyph-name="Ocircumflex" unicode="&#xd4;" horiz-adv-x="756" 
d="M487 866l118 -141h-76l-57 73l-89 -73h-75l162 141h17zM433 671q133 0 208 -81q76 -79 76 -210q0 -164 -109 -276q-108 -112 -263 -112q-133 0 -209 79t-76 206q0 162 108 278q110 116 265 116zM428 602q-119 0 -203 -95q-83 -95 -83 -226q0 -98 55 -160q56 -62 151 -62
q122 0 205 92t83 226q0 97 -56 161q-55 64 -152 64z" />
    <glyph glyph-name="Otilde" unicode="&#xd5;" horiz-adv-x="756" 
d="M433 671q133 0 208 -81q76 -79 76 -210q0 -164 -109 -276q-108 -112 -263 -112q-133 0 -209 79t-76 206q0 162 108 278q110 116 265 116zM428 602q-119 0 -203 -95q-83 -95 -83 -226q0 -98 55 -160q56 -62 151 -62q122 0 205 92t83 226q0 97 -56 161q-55 64 -152 64z
M584 864l24 -37q-34 -73 -91 -73q-23 0 -62 24t-54 24q-29 0 -61 -54l-28 37q41 74 95 74q24 0 62 -25q39 -24 54 -24q28 0 61 54z" />
    <glyph glyph-name="Odieresis" unicode="&#xd6;" horiz-adv-x="756" 
d="M433 671q133 0 208 -81q76 -79 76 -210q0 -164 -109 -276q-108 -112 -263 -112q-133 0 -209 79t-76 206q0 162 108 278q110 116 265 116zM428 602q-119 0 -203 -95q-83 -95 -83 -226q0 -98 55 -160q56 -62 151 -62q122 0 205 92t83 226q0 97 -56 161q-55 64 -152 64z
M380 838q16 0 26 -10.5t10 -26.5q0 -21 -14.5 -35.5t-33.5 -14.5q-17 0 -28 10t-11 26q0 20 15.5 35.5t35.5 15.5zM542 838q17 0 27 -10.5t10 -26.5q0 -21 -14 -35.5t-34 -14.5q-18 0 -28 10t-10 26q0 20 15 35.5t34 15.5z" />
    <glyph glyph-name="multiply" unicode="&#xd7;" horiz-adv-x="536" 
d="M366 135l-96 117l-134 -120l-33 40l134 119l-99 117l43 39l98 -118l129 117l34 -40l-130 -116l98 -117q-8 -8 -25 -22z" />
    <glyph glyph-name="Oslash" unicode="&#xd8;" horiz-adv-x="756" 
d="M433 671q111 0 184 -60q33 39 44 50h55q-10 -10 -37 -42l-31 -36q69 -77 69 -203q0 -164 -109 -276q-108 -112 -263 -112q-101 0 -169 45l-33 -37h-56l55 64q-82 76 -82 213q0 162 108 278q110 116 265 116zM428 602q-119 0 -202 -95q-82 -94 -82 -226q0 -97 51 -157
l370 428q-56 50 -137 50zM634 377q0 81 -41 143l-366 -426q52 -35 121 -35q119 0 202 92q84 93 84 226z" />
    <glyph glyph-name="Ugrave" unicode="&#xd9;" horiz-adv-x="667" 
d="M510 248l58 413h78l-59 -416q-18 -120 -91.5 -187.5t-199.5 -67.5q-106 0 -163 55.5t-57 154.5q0 32 4 53l56 408h78l-57 -409q-3 -22 -3 -44q0 -71 38.5 -109.5t114.5 -38.5q88 0 139.5 50t63.5 138zM348 874l102 -145h-54l-121 122q31 11 73 23z" />
    <glyph glyph-name="Uacute" unicode="&#xda;" horiz-adv-x="667" 
d="M510 248l58 413h78l-59 -416q-18 -120 -91.5 -187.5t-199.5 -67.5q-106 0 -163 55.5t-57 154.5q0 32 4 53l56 408h78l-57 -409q-3 -22 -3 -44q0 -71 38.5 -109.5t114.5 -38.5q88 0 139.5 50t63.5 138zM545 844l-146 -115h-58l134 139z" />
    <glyph glyph-name="Ucircumflex" unicode="&#xdb;" horiz-adv-x="667" 
d="M510 248l58 413h78l-59 -416q-18 -120 -91.5 -187.5t-199.5 -67.5q-106 0 -163 55.5t-57 154.5q0 32 4 53l56 408h78l-57 -409q-3 -22 -3 -44q0 -71 38.5 -109.5t114.5 -38.5q88 0 139.5 50t63.5 138zM426 865l119 -141h-77l-57 73l-89 -73h-76l163 141h17z" />
    <glyph glyph-name="Udieresis" unicode="&#xdc;" horiz-adv-x="667" 
d="M510 248l58 413h78l-59 -416q-18 -120 -91.5 -187.5t-199.5 -67.5q-106 0 -163 55.5t-57 154.5q0 32 4 53l56 408h78l-57 -409q-3 -22 -3 -44q0 -71 38.5 -109.5t114.5 -38.5q88 0 139.5 50t63.5 138zM327 838q16 0 26 -10.5t10 -26.5q0 -21 -14.5 -35.5t-33.5 -14.5
q-17 0 -28 10t-11 26q0 20 15.5 35.5t35.5 15.5zM489 838q17 0 27 -10.5t10 -26.5q0 -21 -14 -35.5t-34 -14.5q-18 0 -28 10t-10 26q0 20 15 35.5t34 15.5z" />
    <glyph glyph-name="Yacute" unicode="&#xdd;" horiz-adv-x="545" 
d="M149 661l143 -301h4q38 56 211 301h86l-268 -375l-40 -286h-79l40 286l-179 375h82zM491 838l-146 -115h-58l134 139z" />
    <glyph glyph-name="Thorn" unicode="&#xde;" horiz-adv-x="558" 
d="M200 562h163q85 0 135 -51q49 -50 49 -130q0 -70 -50 -143q-27 -38 -78.5 -61.5t-117.5 -23.5h-158l-21 -153h-78l93 662h78zM340 495h-149l-39 -277h150q71 0 118 44q48 45 48 114q0 53 -31.5 86t-96.5 33z" />
    <glyph glyph-name="germandbls" unicode="&#xdf;" horiz-adv-x="554" 
d="M335 725q77 0 122.5 -40.5t45.5 -106.5q0 -47 -25.5 -88t-69.5 -66l-1 -5q48 -17 75 -60.5t27 -103.5q0 -113 -69 -188q-69 -74 -184 -74q-22 0 -59 5l-4 66q27 -7 57 -7q77 0 131 54q55 55 55 146q0 65 -39.5 97t-106.5 32l7 58q37 0 64.5 14t41 35t20 40t6.5 36
q0 44 -29 70t-72 26q-81 0 -118 -56q-31 -49 -37 -99l-71 -510h-75l71 504q13 98 77 160q64 61 160 61z" />
    <glyph glyph-name="agrave" unicode="&#xe0;" horiz-adv-x="546" 
d="M275 394q-76 0 -121 -62q-44 -62 -44 -144q0 -65 29.5 -101.5t87.5 -36.5q73 0 121 58q49 58 49 148q0 62 -32 100t-90 38zM387 0l-7 62h-4q-68 -72 -168 -72q-87 0 -131 53q-43 52 -43 132q0 124 68 201q69 78 173 78q101 0 145 -78h5l26 69h49l-62 -445h-51zM247 682
l92 -155h-50l-106 134z" />
    <glyph glyph-name="aacute" unicode="&#xe1;" horiz-adv-x="546" 
d="M275 394q-76 0 -121 -62q-44 -62 -44 -144q0 -65 29.5 -101.5t87.5 -36.5q73 0 121 58q49 58 49 148q0 62 -32 100t-90 38zM387 0l-7 62h-4q-68 -72 -168 -72q-87 0 -131 53q-43 52 -43 132q0 124 68 201q69 78 173 78q101 0 145 -78h5l26 69h49l-62 -445h-51zM436 658
l-133 -131h-54l123 156q36 -13 64 -25z" />
    <glyph glyph-name="acircumflex" unicode="&#xe2;" horiz-adv-x="546" 
d="M275 394q-76 0 -121 -62q-44 -62 -44 -144q0 -65 29.5 -101.5t87.5 -36.5q73 0 121 58q49 58 49 148q0 62 -32 100t-90 38zM387 0l-7 62h-4q-68 -72 -168 -72q-87 0 -131 53q-43 52 -43 132q0 124 68 201q69 78 173 78q101 0 145 -78h5l26 69h49l-62 -445h-51zM332 676
l114 -150h-69l-60 81l-91 -81h-71l161 150h16z" />
    <glyph glyph-name="atilde" unicode="&#xe3;" horiz-adv-x="546" 
d="M275 394q-76 0 -121 -62q-44 -62 -44 -144q0 -65 29.5 -101.5t87.5 -36.5q73 0 121 58q49 58 49 148q0 62 -32 100t-90 38zM387 0l-7 62h-4q-68 -72 -168 -72q-87 0 -131 53q-43 52 -43 132q0 124 68 201q69 78 173 78q101 0 145 -78h5l26 69h49l-62 -445h-51zM432 651
l24 -37q-34 -73 -91 -73q-23 0 -62 24t-54 24q-29 0 -61 -54l-28 37q41 74 95 74q24 0 62 -25q39 -24 54 -24q28 0 61 54z" />
    <glyph glyph-name="adieresis" unicode="&#xe4;" horiz-adv-x="546" 
d="M275 394q-76 0 -121 -62q-44 -62 -44 -144q0 -65 29.5 -101.5t87.5 -36.5q73 0 121 58q49 58 49 148q0 62 -32 100t-90 38zM387 0l-7 62h-4q-68 -72 -168 -72q-87 0 -131 53q-43 52 -43 132q0 124 68 201q69 78 173 78q101 0 145 -78h5l26 69h49l-62 -445h-51zM234 632
q16 0 25.5 -10t9.5 -26q0 -21 -13.5 -35.5t-33.5 -14.5q-18 0 -28 10t-10 26q0 20 15 35t35 15zM396 632q16 0 26 -10t10 -26q0 -21 -14 -35.5t-34 -14.5q-17 0 -27 10t-10 25q0 20 15 35.5t34 15.5z" />
    <glyph glyph-name="aring" unicode="&#xe5;" horiz-adv-x="546" 
d="M275 394q-76 0 -121 -62q-44 -62 -44 -144q0 -65 29.5 -101.5t87.5 -36.5q73 0 121 58q49 58 49 148q0 62 -32 100t-90 38zM387 0l-7 62h-4q-68 -72 -168 -72q-87 0 -131 53q-43 52 -43 132q0 124 68 201q69 78 173 78q101 0 145 -78h5l26 69h49l-62 -445h-51zM329 707
q36 0 59 -22.5t23 -58.5q0 -42 -32 -74q-31 -31 -76 -31q-36 0 -58 21t-22 55q0 45 32 77q31 33 74 33zM323 666q-22 0 -39.5 -19t-17.5 -42q0 -19 11.5 -31t31.5 -12q24 0 41 17.5t17 41.5q0 19 -12 32t-32 13z" />
    <glyph glyph-name="ae" unicode="&#xe6;" horiz-adv-x="770" 
d="M586 455q71 0 112.5 -35t41.5 -90q0 -64 -66.5 -103t-189.5 -39q-45 0 -69 3q-10 -59 25 -101q35 -41 98 -41q100 0 173 60l-11 -69q-77 -50 -172 -50q-132 0 -170 104q-70 -105 -205 -105h-5q-70 1 -105.5 32.5t-35.5 79.5q0 93 79 131q66 33 157 33h96q4 25 4 43
q0 88 -104 88q-67 0 -149 -41q9 61 9 64q75 37 150 37q132 0 159 -83q70 82 178 82zM329 192l4 25h-87q-38 0 -75 -8q-37 -9 -62.5 -34t-25.5 -61q0 -32 25.5 -49.5t70.5 -17.5q61 0 100.5 40t49.5 105zM582 393q-61 0 -104.5 -41t-57.5 -110q32 -5 71 -5q84 0 129 25t45 63
q0 29 -21.5 48.5t-61.5 19.5z" />
    <glyph glyph-name="ccedilla" unicode="&#xe7;" horiz-adv-x="419" 
d="M140 -97l-14 9l47 84q-67 14 -103 65.5t-36 126.5q0 120 75 193q75 75 186 75q66 0 108 -21q-2 -8 -5.5 -33.5t-4.5 -33.5q-35 25 -96 25q-83 0 -134 -57t-51 -154q0 -58 36 -94t100 -36q68 0 123 33q-2 -7 -5.5 -33t-4.5 -33q-53 -29 -137 -29h-12l-26 -40q51 -1 76 -20
t25 -50q0 -41 -38 -71q-37 -31 -93 -31q-41 0 -80 16l4 47q40 -18 79 -18q32 0 49 13.5t17 35.5q0 17 -14.5 26.5t-37.5 9.5q-15 0 -33 -5z" />
    <glyph glyph-name="egrave" unicode="&#xe8;" horiz-adv-x="467" 
d="M283 455q71 0 112.5 -35t41.5 -90q0 -64 -66.5 -103t-189.5 -39q-45 0 -69 3v-3q-6 -66 26.5 -102.5t96.5 -36.5q97 0 173 60l-11 -69q-79 -50 -173 -50q-92 0 -141 50.5t-49 139.5q0 116 70 195q71 80 179 80zM279 393q-61 0 -104.5 -41t-57.5 -110q32 -5 71 -5
q84 0 129 25t45 63q0 29 -21.5 48.5t-61.5 19.5zM266 682l92 -155h-50l-106 134z" />
    <glyph glyph-name="eacute" unicode="&#xe9;" horiz-adv-x="467" 
d="M283 455q71 0 112.5 -35t41.5 -90q0 -64 -66.5 -103t-189.5 -39q-45 0 -69 3v-3q-6 -66 26.5 -102.5t96.5 -36.5q97 0 173 60l-11 -69q-79 -50 -173 -50q-92 0 -141 50.5t-49 139.5q0 116 70 195q71 80 179 80zM279 393q-61 0 -104.5 -41t-57.5 -110q32 -5 71 -5
q84 0 129 25t45 63q0 29 -21.5 48.5t-61.5 19.5zM441 658l-133 -131h-54l123 156q36 -13 64 -25z" />
    <glyph glyph-name="ecircumflex" unicode="&#xea;" horiz-adv-x="467" 
d="M283 455q71 0 112.5 -35t41.5 -90q0 -64 -66.5 -103t-189.5 -39q-45 0 -69 3v-3q-6 -66 26.5 -102.5t96.5 -36.5q97 0 173 60l-11 -69q-79 -50 -173 -50q-92 0 -141 50.5t-49 139.5q0 116 70 195q71 80 179 80zM279 393q-61 0 -104.5 -41t-57.5 -110q32 -5 71 -5
q84 0 129 25t45 63q0 29 -21.5 48.5t-61.5 19.5zM341 676l114 -150h-69l-60 81l-91 -81h-71l161 150h16z" />
    <glyph glyph-name="edieresis" unicode="&#xeb;" horiz-adv-x="467" 
d="M283 455q71 0 112.5 -35t41.5 -90q0 -64 -66.5 -103t-189.5 -39q-45 0 -69 3v-3q-6 -66 26.5 -102.5t96.5 -36.5q97 0 173 60l-11 -69q-79 -50 -173 -50q-92 0 -141 50.5t-49 139.5q0 116 70 195q71 80 179 80zM279 393q-61 0 -104.5 -41t-57.5 -110q32 -5 71 -5
q84 0 129 25t45 63q0 29 -21.5 48.5t-61.5 19.5zM233 632q16 0 25.5 -10t9.5 -26q0 -21 -13.5 -35.5t-33.5 -14.5q-18 0 -28 10t-10 26q0 20 15.5 35t34.5 15zM395 632q16 0 26 -10t10 -26q0 -21 -14 -35.5t-34 -14.5q-17 0 -27 10t-10 25q0 20 15 35.5t34 15.5z" />
    <glyph glyph-name="igrave" unicode="&#xec;" horiz-adv-x="231" 
d="M179 445l-62 -445h-75l62 445h75zM90 682l92 -155h-50l-106 134z" />
    <glyph glyph-name="iacute" unicode="&#xed;" horiz-adv-x="231" 
d="M179 445l-62 -445h-75l62 445h75zM309 658l-133 -131h-54l123 156q36 -13 64 -25z" />
    <glyph glyph-name="icircumflex" unicode="&#xee;" horiz-adv-x="231" 
d="M185 676l114 -150h-69l-60 81l-91 -81h-71l161 150h16zM179 445l-62 -445h-75l62 445h75z" />
    <glyph glyph-name="idieresis" unicode="&#xef;" horiz-adv-x="231" 
d="M82 632q16 0 25.5 -10t9.5 -26q0 -21 -13.5 -35.5t-33.5 -14.5q-18 0 -28 10t-10 26q0 20 15 35t35 15zM244 632q16 0 26 -10t10 -26q0 -21 -14 -35.5t-34 -14.5q-17 0 -27 10t-10 25q0 20 15 35.5t34 15.5zM179 445l-62 -445h-75l62 445h75z" />
    <glyph glyph-name="eth" unicode="&#xf0;" horiz-adv-x="543" 
d="M292 442q96 0 137 -71q2 0 4 2q-7 92 -73 181l-103 -62q1 17 8 52l66 43q-53 56 -113 91l61 34q65 -38 110 -89l109 68l-9 -57q-63 -40 -71 -44q88 -118 88 -268q0 -115 -62 -218q-31 -52 -86.5 -83t-124.5 -31q-94 0 -147 50.5t-53 135.5q0 111 76 188q77 78 183 78z
M287 379q-76 0 -127 -57t-51 -136q0 -61 35.5 -98t97.5 -37q77 0 127 59q50 61 50 132q0 60 -36 98.5t-96 38.5z" />
    <glyph glyph-name="ntilde" unicode="&#xf1;" horiz-adv-x="529" 
d="M462 263l-37 -263h-75l35 254q3 21 3 39q0 98 -87 98q-63 0 -107 -53.5t-57 -141.5l-29 -196h-75l62 445h56l3 -76h3q66 86 160 86q148 0 148 -150q0 -19 -3 -42zM426 650l24 -37q-34 -73 -91 -73q-23 0 -62 24t-54 24q-29 0 -61 -54l-28 37q41 74 95 74q24 0 62 -25
q39 -24 54 -24q28 0 61 54z" />
    <glyph glyph-name="ograve" unicode="&#xf2;" horiz-adv-x="526" 
d="M290 456q92 0 142.5 -53t50.5 -144q0 -115 -70 -192q-71 -78 -181 -78q-93 0 -145 53t-52 142q0 113 71 193q70 79 184 79zM286 393q-76 0 -125 -60q-48 -59 -48 -144q0 -64 32 -101t91 -37q75 0 125 59q49 59 49 143q0 62 -33.5 101t-90.5 39zM274 682l92 -155h-50
l-106 134z" />
    <glyph glyph-name="oacute" unicode="&#xf3;" horiz-adv-x="526" 
d="M290 456q92 0 142.5 -53t50.5 -144q0 -115 -70 -192q-71 -78 -181 -78q-93 0 -145 53t-52 142q0 113 71 193q70 79 184 79zM286 393q-76 0 -125 -60q-48 -59 -48 -144q0 -64 32 -101t91 -37q75 0 125 59q49 59 49 143q0 62 -33.5 101t-90.5 39zM459 658l-133 -131h-54
l123 156q36 -13 64 -25z" />
    <glyph glyph-name="ocircumflex" unicode="&#xf4;" horiz-adv-x="526" 
d="M353 676l114 -150h-69l-60 81l-91 -81h-71l161 150h16zM290 456q92 0 142.5 -53t50.5 -144q0 -115 -70 -192q-71 -78 -181 -78q-93 0 -145 53t-52 142q0 113 71 193q70 79 184 79zM286 393q-76 0 -125 -60q-48 -59 -48 -144q0 -64 32 -101t91 -37q75 0 125 59
q49 59 49 143q0 62 -33.5 101t-90.5 39z" />
    <glyph glyph-name="otilde" unicode="&#xf5;" horiz-adv-x="526" 
d="M290 456q92 0 142.5 -53t50.5 -144q0 -115 -70 -192q-71 -78 -181 -78q-93 0 -145 53t-52 142q0 113 71 193q70 79 184 79zM286 393q-76 0 -125 -60q-48 -59 -48 -144q0 -64 32 -101t91 -37q75 0 125 59q49 59 49 143q0 62 -33.5 101t-90.5 39zM439 650l24 -37
q-34 -73 -91 -73q-23 0 -62 24t-54 24q-30 0 -61 -54l-28 37q41 74 95 74q25 0 63 -25q39 -24 53 -24q28 0 61 54z" />
    <glyph glyph-name="odieresis" unicode="&#xf6;" horiz-adv-x="526" 
d="M290 456q92 0 142.5 -53t50.5 -144q0 -115 -70 -192q-71 -78 -181 -78q-93 0 -145 53t-52 142q0 113 71 193q70 79 184 79zM286 393q-76 0 -125 -60q-48 -59 -48 -144q0 -64 32 -101t91 -37q75 0 125 59q49 59 49 143q0 62 -33.5 101t-90.5 39zM245 632q16 0 25.5 -10
t9.5 -26q0 -21 -13.5 -35.5t-33.5 -14.5q-18 0 -28 10t-10 26q0 20 15.5 35t34.5 15zM407 632q16 0 26 -10t10 -26q0 -21 -14 -35.5t-34 -14.5q-17 0 -27 10t-10 25q0 20 15 35.5t34 15.5z" />
    <glyph glyph-name="divide" unicode="&#xf7;" horiz-adv-x="536" 
d="M301 486q19 0 30.5 -12t11.5 -30q0 -23 -17 -40.5t-38 -17.5q-18 0 -30.5 12.5t-12.5 30.5q0 23 17 40t39 17zM458 270h-377l9 56h376q-1 -7 -4.5 -28.5t-3.5 -27.5zM261 206q19 0 31 -12t12 -30q0 -22 -17.5 -39t-38.5 -17q-18 0 -30 12t-12 30q0 23 16.5 39.5
t38.5 16.5z" />
    <glyph glyph-name="oslash" unicode="&#xf8;" horiz-adv-x="526" 
d="M290 456q83 0 131 -45l32 33h52l-58 -60q36 -50 36 -125q0 -115 -70 -192q-71 -78 -181 -78q-81 0 -131 40l-28 -29h-53l55 56q-40 49 -40 128q0 113 71 193q70 79 184 79zM286 393q-76 0 -125 -60q-48 -59 -48 -144q0 -47 16 -78l241 249q-33 33 -84 33zM410 253
q0 40 -17 76l-241 -248q28 -30 84 -30q75 0 125 59q49 59 49 143z" />
    <glyph glyph-name="ugrave" unicode="&#xf9;" horiz-adv-x="517" 
d="M69 175l38 270h74l-35 -255q-3 -21 -3 -38q0 -99 88 -99q57 0 98 52t53 136l30 204h75l-62 -445h-59v68h-4q-62 -77 -149 -77q-83 0 -119.5 49t-24.5 135zM258 682l92 -155h-50l-106 134z" />
    <glyph glyph-name="uacute" unicode="&#xfa;" horiz-adv-x="517" 
d="M69 175l38 270h74l-35 -255q-3 -21 -3 -38q0 -99 88 -99q57 0 98 52t53 136l30 204h75l-62 -445h-59v68h-4q-62 -77 -149 -77q-83 0 -119.5 49t-24.5 135zM438 658l-133 -131h-54l123 156q36 -13 64 -25z" />
    <glyph glyph-name="ucircumflex" unicode="&#xfb;" horiz-adv-x="517" 
d="M69 175l38 270h74l-35 -255q-3 -21 -3 -38q0 -99 88 -99q57 0 98 52t53 136l30 204h75l-62 -445h-59v68h-4q-62 -77 -149 -77q-83 0 -119.5 49t-24.5 135zM332 676l114 -150h-69l-60 81l-91 -81h-71l161 150h16z" />
    <glyph glyph-name="udieresis" unicode="&#xfc;" horiz-adv-x="517" 
d="M69 175l38 270h74l-35 -255q-3 -21 -3 -38q0 -99 88 -99q57 0 98 52t53 136l30 204h75l-62 -445h-59v68h-4q-62 -77 -149 -77q-83 0 -119.5 49t-24.5 135zM241 632q16 0 25.5 -10t9.5 -26q0 -21 -13.5 -35.5t-33.5 -14.5q-18 0 -28 10t-10 26q0 20 15.5 35t34.5 15z
M403 632q16 0 26 -10t10 -26q0 -21 -14 -35.5t-34 -14.5q-17 0 -27 10t-10 25q0 20 15 35.5t34 15.5z" />
    <glyph glyph-name="yacute" unicode="&#xfd;" horiz-adv-x="435" 
d="M103 445l84 -351h5l183 351h78l-358 -660h-75l124 229l-119 431h78zM389 656l-133 -131h-54l123 156q36 -13 64 -25z" />
    <glyph glyph-name="thorn" unicode="&#xfe;" horiz-adv-x="536" 
d="M101 63l-41 -278h-72l130 926h71l-48 -331q0 -1 1 -1l2 -1q61 76 170 76q87 0 133 -55q46 -53 46 -132q0 -124 -70 -200q-71 -77 -168 -77q-107 0 -149 74h-2q-2 -1 -3 -1zM294 393q-74 0 -124 -59q-49 -58 -49 -148q0 -61 32.5 -98.5t91.5 -37.5q79 0 125 58
q47 59 47 145q0 65 -32 102.5t-91 37.5z" />
    <glyph glyph-name="ydieresis" unicode="&#xff;" horiz-adv-x="435" 
d="M103 445l84 -351h5l183 351h78l-358 -660h-75l124 229l-119 431h78zM192 622q16 0 25.5 -10t9.5 -26q0 -21 -13.5 -35.5t-33.5 -14.5q-18 0 -28 10t-10 26q0 20 15 35t35 15zM354 622q16 0 26 -10t10 -26q0 -21 -14 -35.5t-34 -14.5q-17 0 -27 10t-10 25q0 20 15 35.5
t34 15.5z" />
    <glyph glyph-name="Amacron" unicode="&#x100;" horiz-adv-x="611" 
d="M562 0h-77l-38 148h-306l-80 -148h-82l379 667h15zM348 516h-4l-170 -308h257zM518 758h-282l9 59h282z" />
    <glyph glyph-name="amacron" unicode="&#x101;" horiz-adv-x="546" 
d="M275 394q-76 0 -121 -62q-44 -62 -44 -144q0 -65 29.5 -101.5t87.5 -36.5q73 0 121 58q49 58 49 148q0 62 -32 100t-90 38zM387 0l-7 62h-4q-68 -72 -168 -72q-87 0 -131 53q-43 52 -43 132q0 124 68 201q69 78 173 78q101 0 145 -78h5l26 69h49l-62 -445h-51zM439 550
h-269l8 57h269z" />
    <glyph glyph-name="Abreve" unicode="&#x102;" horiz-adv-x="611" 
d="M562 0h-77l-38 148h-306l-80 -148h-82l379 667h15zM348 516h-4l-170 -308h257zM474 861h51q-12 -61 -52 -101t-100 -40q-53 0 -82 33.5t-29 88.5q0 15 1 19h51q-1 -3 -1 -16q0 -36 17.5 -57t48.5 -21q71 0 95 94z" />
    <glyph glyph-name="abreve" unicode="&#x103;" horiz-adv-x="546" 
d="M275 394q-76 0 -121 -62q-44 -62 -44 -144q0 -65 29.5 -101.5t87.5 -36.5q73 0 121 58q49 58 49 148q0 62 -32 100t-90 38zM387 0l-7 62h-4q-68 -72 -168 -72q-87 0 -131 53q-43 52 -43 132q0 124 68 201q69 78 173 78q101 0 145 -78h5l26 69h49l-62 -445h-51zM407 673
h51q-10 -58 -51 -100q-39 -42 -101 -42q-53 0 -82 34t-29 89q0 15 1 19h51q-1 -3 -1 -16q0 -36 17.5 -57t48.5 -21q71 0 95 94z" />
    <glyph glyph-name="Aogonek" unicode="&#x104;" horiz-adv-x="611" 
d="M447 -178q45 0 102 33l-11 -49q-55 -31 -116 -31q-79 0 -79 62q0 94 139 175l-35 136h-306l-80 -148h-82l379 667h15l189 -667h-52q-49 -35 -76.5 -73.5t-27.5 -71.5t41 -33zM348 516h-4l-170 -308h257z" />
    <glyph glyph-name="aogonek" unicode="&#x105;" horiz-adv-x="546" 
d="M384 20l-4 42h-4q-68 -72 -168 -72q-87 0 -131 53q-43 52 -43 132q0 124 68 201q69 78 173 78q101 0 145 -78h5l26 69h49l-62 -445h-40q-102 -72 -102 -144q0 -33 41 -33q45 0 102 33l-11 -49q-55 -31 -116 -31q-79 0 -79 62q0 100 151 182zM275 394q-76 0 -121 -62
q-44 -62 -44 -144q0 -65 29.5 -101.5t87.5 -36.5q73 0 121 58q49 58 49 148q0 62 -32 100t-90 38z" />
    <glyph glyph-name="Cacute" unicode="&#x106;" horiz-adv-x="601" 
d="M554 110l-10 -74q-82 -46 -197 -46q-140 0 -215 76q-74 77 -74 203q0 179 114 291q115 113 274 113q102 0 160 -32l-6 -74q-65 37 -153 37q-125 0 -216 -90q-92 -90 -92 -237q0 -102 59.5 -160t167.5 -58q92 0 188 51zM566 844l-146 -115h-58l134 139z" />
    <glyph glyph-name="cacute" unicode="&#x107;" horiz-adv-x="419" 
d="M371 85q-2 -7 -5.5 -33t-4.5 -33q-53 -29 -137 -29q-91 0 -140.5 54.5t-49.5 143.5q0 120 75 193q75 75 186 75q66 0 108 -21q-2 -8 -5.5 -33.5t-4.5 -33.5q-35 25 -96 25q-83 0 -134 -57t-51 -154q0 -58 36 -94t100 -36q68 0 123 33zM410 658l-133 -131h-54l123 156
q36 -13 64 -25z" />
    <glyph glyph-name="Ccircumflex" unicode="&#x108;" horiz-adv-x="601" 
d="M463 867l118 -141h-76l-57 73l-89 -73h-75l162 141h17zM554 110l-10 -74q-82 -46 -197 -46q-140 0 -215 76q-74 77 -74 203q0 179 114 291q115 113 274 113q102 0 160 -32l-6 -74q-65 37 -153 37q-125 0 -216 -90q-92 -90 -92 -237q0 -102 59.5 -160t167.5 -58
q92 0 188 51z" />
    <glyph glyph-name="ccircumflex" unicode="&#x109;" horiz-adv-x="419" 
d="M317 676l114 -150h-69l-60 81l-91 -81h-71l161 150h16zM371 85q-2 -7 -5.5 -33t-4.5 -33q-53 -29 -137 -29q-91 0 -140.5 54.5t-49.5 143.5q0 120 75 193q75 75 186 75q66 0 108 -21q-2 -8 -5.5 -33.5t-4.5 -33.5q-35 25 -96 25q-83 0 -134 -57t-51 -154q0 -58 36 -94
t100 -36q68 0 123 33z" />
    <glyph glyph-name="Cdotaccent" unicode="&#x10a;" horiz-adv-x="601" 
d="M554 110l-10 -74q-82 -46 -197 -46q-140 0 -215 76q-74 77 -74 203q0 179 114 291q115 113 274 113q102 0 160 -32l-6 -74q-65 37 -153 37q-125 0 -216 -90q-92 -90 -92 -237q0 -102 59.5 -160t167.5 -58q92 0 188 51zM466 848q17 0 27.5 -11.5t10.5 -28.5q0 -23 -15 -39
t-37 -16q-19 0 -30 11t-11 29q0 22 17 38.5t38 16.5z" />
    <glyph glyph-name="cdotaccent" unicode="&#x10b;" horiz-adv-x="419" 
d="M371 85q-2 -7 -5.5 -33t-4.5 -33q-53 -29 -137 -29q-91 0 -140.5 54.5t-49.5 143.5q0 120 75 193q75 75 186 75q66 0 108 -21q-2 -8 -5.5 -33.5t-4.5 -33.5q-35 25 -96 25q-83 0 -134 -57t-51 -154q0 -58 36 -94t100 -36q68 0 123 33zM307 638q17 0 27.5 -11.5
t10.5 -28.5q0 -23 -15 -39t-37 -16q-19 0 -30 11t-11 29q0 22 17 38.5t38 16.5z" />
    <glyph glyph-name="Ccaron" unicode="&#x10c;" horiz-adv-x="601" 
d="M441 789l86 77h74l-158 -140h-17l-122 140h74zM554 110l-10 -74q-82 -46 -197 -46q-140 0 -215 76q-74 77 -74 203q0 179 114 291q115 113 274 113q102 0 160 -32l-6 -74q-65 37 -153 37q-125 0 -216 -90q-92 -90 -92 -237q0 -102 59.5 -160t167.5 -58q92 0 188 51z" />
    <glyph glyph-name="ccaron" unicode="&#x10d;" horiz-adv-x="419" 
d="M298 592l83 83h73l-156 -151h-16l-119 151h71zM371 85q-2 -7 -5.5 -33t-4.5 -33q-53 -29 -137 -29q-91 0 -140.5 54.5t-49.5 143.5q0 120 75 193q75 75 186 75q66 0 108 -21q-2 -8 -5.5 -33.5t-4.5 -33.5q-35 25 -96 25q-83 0 -134 -57t-51 -154q0 -58 36 -94t100 -36
q68 0 123 33z" />
    <glyph glyph-name="Dcaron" unicode="&#x10e;" horiz-adv-x="669" 
d="M344 594h-139l-74 -525h149q125 0 197 89q73 88 73 228q0 96 -53 152t-153 56zM276 0h-233l93 661h221q131 0 202 -74t71 -204q0 -169 -99 -276q-98 -107 -255 -107zM386 788l86 77h74l-158 -140h-17l-122 140h74z" />
    <glyph glyph-name="dcaron" unicode="&#x10f;" horiz-adv-x="606" 
d="M425 383l47 328h72l-99 -711h-55l-2 65l-1 1l-2 1q-61 -75 -172 -75q-86 0 -133 54q-46 53 -46 132q0 124 70 200q71 77 168 77q106 0 148 -74q2 1 3 1q1 1 2 1zM233 52q74 0 123 58q50 59 50 149q0 61 -32.5 98t-91.5 37q-79 0 -126 -59q-46 -58 -46 -144
q0 -64 31.5 -101.5t91.5 -37.5zM647 720q17 0 28 -10.5t11 -28.5q0 -45 -80 -161l-34 6l46 107q-23 8 -23 35q0 21 16.5 36.5t35.5 15.5z" />
    <glyph glyph-name="Dcroat" unicode="&#x110;" horiz-adv-x="669" 
d="M276 0h-233l44 313h-59q1 13 8 57h59q29 211 41 291h221q131 0 202 -74t71 -204q0 -169 -99 -276q-98 -107 -255 -107zM349 594h-144q-6 -41 -32 -224h197l-7 -57h-198l-34 -245h153q126 2 198 90q73 88 73 228q0 96 -53 152t-153 56z" />
    <glyph glyph-name="dslash" unicode="&#x111;" horiz-adv-x="550" 
d="M457 606l15 105h72l-15 -105h81q-2 -7 -7 -47h-80l-78 -559h-55l-2 65l-1 1l-2 1q-61 -75 -172 -75q-86 0 -133 54q-46 53 -46 132q0 124 70 200q71 77 168 77q106 0 148 -74q2 1 3 1q1 1 2 1l25 176h-162l6 47h163zM233 52q74 0 123 58q50 59 50 149q0 61 -32.5 98
t-91.5 37q-79 0 -126 -59q-46 -58 -46 -144q0 -64 31.5 -101.5t91.5 -37.5z" />
    <glyph glyph-name="Emacron" unicode="&#x112;" horiz-adv-x="547" 
d="M132 68h359l-9 -68h-439l93 661h413l-10 -67h-333l-30 -213h308l-9 -66h-309q-31 -229 -34 -247zM508 762h-282l9 59h282z" />
    <glyph glyph-name="emacron" unicode="&#x113;" horiz-adv-x="467" 
d="M283 455q71 0 112.5 -35t41.5 -90q0 -64 -66.5 -103t-189.5 -39q-45 0 -69 3v-3q-6 -66 26.5 -102.5t96.5 -36.5q97 0 173 60l-11 -69q-79 -50 -173 -50q-92 0 -141 50.5t-49 139.5q0 116 70 195q71 80 179 80zM279 393q-61 0 -104.5 -41t-57.5 -110q32 -5 71 -5
q84 0 129 25t45 63q0 29 -21.5 48.5t-61.5 19.5zM440 550h-269l8 57h269z" />
    <glyph glyph-name="Ebreve" unicode="&#x114;" horiz-adv-x="547" 
d="M132 68h359l-9 -68h-439l93 661h413l-10 -67h-333l-30 -213h308l-9 -66h-309q-31 -229 -34 -247zM457 861h51q-12 -61 -52 -101t-100 -40q-53 0 -82 33.5t-29 88.5q0 15 1 19h51q-1 -3 -1 -16q0 -36 17.5 -57t48.5 -21q71 0 95 94z" />
    <glyph glyph-name="ebreve" unicode="&#x115;" horiz-adv-x="467" 
d="M283 455q71 0 112.5 -35t41.5 -90q0 -64 -66.5 -103t-189.5 -39q-45 0 -69 3v-3q-6 -66 26.5 -102.5t96.5 -36.5q97 0 173 60l-11 -69q-79 -50 -173 -50q-92 0 -141 50.5t-49 139.5q0 116 70 195q71 80 179 80zM279 393q-61 0 -104.5 -41t-57.5 -110q32 -5 71 -5
q84 0 129 25t45 63q0 29 -21.5 48.5t-61.5 19.5zM402 673h51q-10 -58 -51 -100q-39 -42 -101 -42q-53 0 -82 34t-29 89q0 15 1 19h51q-1 -3 -1 -16q0 -36 17.5 -57t48.5 -21q71 0 95 94z" />
    <glyph glyph-name="Edotaccent" unicode="&#x116;" horiz-adv-x="547" 
d="M132 68h359l-9 -68h-439l93 661h413l-10 -67h-333l-30 -213h308l-9 -66h-309q-31 -229 -34 -247zM375 847q17 0 27.5 -11.5t10.5 -28.5q0 -23 -15 -39t-37 -16q-19 0 -30 11t-11 29q0 22 17 38.5t38 16.5z" />
    <glyph glyph-name="edotaccent" unicode="&#x117;" horiz-adv-x="467" 
d="M283 455q71 0 112.5 -35t41.5 -90q0 -64 -66.5 -103t-189.5 -39q-45 0 -69 3v-3q-6 -66 26.5 -102.5t96.5 -36.5q97 0 173 60l-11 -69q-79 -50 -173 -50q-92 0 -141 50.5t-49 139.5q0 116 70 195q71 80 179 80zM279 393q-61 0 -104.5 -41t-57.5 -110q32 -5 71 -5
q84 0 129 25t45 63q0 29 -21.5 48.5t-61.5 19.5zM315 638q17 0 27.5 -11.5t10.5 -28.5q0 -23 -15 -39t-37 -16q-19 0 -30 11t-11 29q0 22 17 38.5t38 16.5z" />
    <glyph glyph-name="Eogonek" unicode="&#x118;" horiz-adv-x="547" 
d="M337 -176q45 0 102 33l-11 -49q-55 -31 -116 -31q-79 0 -79 62q0 85 117 161h-307l93 661h413l-10 -67h-333l-30 -213h308l-9 -66h-309q-31 -229 -34 -247h359l-9 -68h-85q-101 -73 -101 -143q0 -33 41 -33z" />
    <glyph glyph-name="eogonek" unicode="&#x119;" horiz-adv-x="467" 
d="M288 -163q45 0 102 33l-11 -49q-55 -31 -116 -31q-79 0 -79 62q0 74 88 141q-22 -3 -48 -3q-92 0 -141 50.5t-49 139.5q0 116 70 195q71 80 179 80q71 0 112.5 -35t41.5 -90q0 -64 -66.5 -103t-189.5 -39q-45 0 -69 3v-3q-6 -66 26.5 -102.5t96.5 -36.5q97 0 173 60
l-11 -69q-13 -9 -47 -26q-51 -35 -77 -72q-26 -40 -26 -72q0 -33 41 -33zM279 393q-61 0 -104.5 -41t-57.5 -110q32 -5 71 -5q84 0 129 25t45 63q0 29 -21.5 48.5t-61.5 19.5z" />
    <glyph glyph-name="Ecaron" unicode="&#x11a;" horiz-adv-x="547" 
d="M132 68h359l-9 -68h-439l93 661h413l-10 -67h-333l-30 -213h308l-9 -66h-309q-31 -229 -34 -247zM365 788l86 77h74l-158 -140h-17l-122 140h74z" />
    <glyph glyph-name="ecaron" unicode="&#x11b;" horiz-adv-x="467" 
d="M283 455q71 0 112.5 -35t41.5 -90q0 -64 -66.5 -103t-189.5 -39q-45 0 -69 3v-3q-6 -66 26.5 -102.5t96.5 -36.5q97 0 173 60l-11 -69q-79 -50 -173 -50q-92 0 -141 50.5t-49 139.5q0 116 70 195q71 80 179 80zM279 393q-61 0 -104.5 -41t-57.5 -110q32 -5 71 -5
q84 0 129 25t45 63q0 29 -21.5 48.5t-61.5 19.5zM309 592l83 83h73l-156 -151h-16l-119 151h71z" />
    <glyph glyph-name="Gcircumflex" unicode="&#x11c;" horiz-adv-x="655" 
d="M451 674q108 0 169 -37l-7 -76q-70 43 -168 43q-123 0 -215 -92q-91 -91 -91 -237q0 -100 58 -158.5t165 -58.5q66 0 133 26q22 150 34 245h74l-18 -126q-16 -120 -24 -172q-87 -40 -223 -40t-209 78q-72 78 -72 202q0 173 114 288t280 115zM475 871l118 -141h-76l-57 73
l-89 -73h-75l162 141h17z" />
    <glyph glyph-name="gcircumflex" unicode="&#x11d;" horiz-adv-x="493" 
d="M147 -219q-83 0 -125.5 31.5t-42.5 82.5q0 38 23.5 75.5t63.5 62.5l-15 2q-25 3 -35 11.5t-10 27.5q0 11 1 14l93 77q-33 33 -33 92q0 81 59 140q58 58 143 58q31 0 69 -12h147l-6 -41l-84 -11q30 -33 30 -84q0 -76 -59 -132q-58 -55 -141 -55q-55 0 -89 22l-27 -26
l-31 -30l206 -24q113 -14 113 -90q0 -58 -59 -120q-29 -32 -79.5 -51.5t-111.5 -19.5zM231 175q54 0 90 38q37 37 37 90q0 42 -26.5 69t-68.5 27q-53 0 -90 -39q-37 -38 -37 -93q0 -42 25 -67t70 -25zM267 9l-160 19q-56 -54 -56 -115q0 -73 104 -73q79 0 123 41t44 82
q0 39 -55 46zM331 676l114 -150h-69l-60 81l-91 -81h-71l161 150h16z" />
    <glyph glyph-name="Gbreve" unicode="&#x11e;" horiz-adv-x="655" 
d="M451 674q108 0 169 -37l-7 -76q-70 43 -168 43q-123 0 -215 -92q-91 -91 -91 -237q0 -100 58 -158.5t165 -58.5q66 0 133 26q22 150 34 245h74l-18 -126q-16 -120 -24 -172q-87 -40 -223 -40t-209 78q-72 78 -72 202q0 173 114 288t280 115zM554 861h51q-12 -61 -52 -101
t-100 -40q-53 0 -82 33.5t-29 88.5q0 15 1 19h51q-1 -3 -1 -16q0 -36 17.5 -57t48.5 -21q71 0 95 94z" />
    <glyph glyph-name="gbreve" unicode="&#x11f;" horiz-adv-x="493" 
d="M147 -219q-83 0 -125.5 31.5t-42.5 82.5q0 38 23.5 75.5t63.5 62.5l-15 2q-25 3 -35 11.5t-10 27.5q0 11 1 14l93 77q-33 33 -33 92q0 81 59 140q58 58 143 58q31 0 69 -12h147l-6 -41l-84 -11q30 -33 30 -84q0 -76 -59 -132q-58 -55 -141 -55q-55 0 -89 22l-27 -26
l-31 -30l206 -24q113 -14 113 -90q0 -58 -59 -120q-29 -32 -79.5 -51.5t-111.5 -19.5zM231 175q54 0 90 38q37 37 37 90q0 42 -26.5 69t-68.5 27q-53 0 -90 -39q-37 -38 -37 -93q0 -42 25 -67t70 -25zM267 9l-160 19q-56 -54 -56 -115q0 -73 104 -73q79 0 123 41t44 82
q0 39 -55 46zM393 673h51q-10 -58 -51 -100q-39 -42 -101 -42q-53 0 -82 34t-29 89q0 15 1 19h51q-1 -3 -1 -16q0 -36 17.5 -57t48.5 -21q71 0 95 94z" />
    <glyph glyph-name="Gdotaccent" unicode="&#x120;" horiz-adv-x="655" 
d="M451 674q108 0 169 -37l-7 -76q-70 43 -168 43q-123 0 -215 -92q-91 -91 -91 -237q0 -100 58 -158.5t165 -58.5q66 0 133 26q22 150 34 245h74l-18 -126q-16 -120 -24 -172q-87 -40 -223 -40t-209 78q-72 78 -72 202q0 173 114 288t280 115zM470 848q17 0 27.5 -11.5
t10.5 -28.5q0 -23 -15 -39t-37 -16q-19 0 -30 11t-11 29q0 22 17 38.5t38 16.5z" />
    <glyph glyph-name="gdotaccent" unicode="&#x121;" horiz-adv-x="493" 
d="M147 -219q-83 0 -125.5 31.5t-42.5 82.5q0 38 23.5 75.5t63.5 62.5l-15 2q-25 3 -35 11.5t-10 27.5q0 11 1 14l93 77q-33 33 -33 92q0 81 59 140q58 58 143 58q31 0 69 -12h147l-6 -41l-84 -11q30 -33 30 -84q0 -76 -59 -132q-58 -55 -141 -55q-55 0 -89 22l-27 -26
l-31 -30l206 -24q113 -14 113 -90q0 -58 -59 -120q-29 -32 -79.5 -51.5t-111.5 -19.5zM231 175q54 0 90 38q37 37 37 90q0 42 -26.5 69t-68.5 27q-53 0 -90 -39q-37 -38 -37 -93q0 -42 25 -67t70 -25zM267 9l-160 19q-56 -54 -56 -115q0 -73 104 -73q79 0 123 41t44 82
q0 39 -55 46zM304 638q17 0 27.5 -11.5t10.5 -28.5q0 -23 -15 -39t-37 -16q-19 0 -30 11t-11 29q0 22 17 38.5t38 16.5z" />
    <glyph glyph-name="Gcommaaccent" unicode="&#x122;" horiz-adv-x="655" 
d="M451 674q108 0 169 -37l-7 -76q-70 43 -168 43q-123 0 -215 -92q-91 -91 -91 -237q0 -100 58 -158.5t165 -58.5q66 0 133 26q22 150 34 245h74l-18 -126q-16 -120 -24 -172q-87 -40 -223 -40t-209 78q-72 78 -72 202q0 173 114 288t280 115zM326 -46q17 0 28 -10.5
t11 -28.5q0 -45 -80 -161l-34 6l46 107q-23 8 -23 35q0 21 16.5 36.5t35.5 15.5z" />
    <glyph glyph-name="gcommaaccent" unicode="&#x123;" horiz-adv-x="493" 
d="M147 -219q-83 0 -125.5 31.5t-42.5 82.5q0 38 23.5 75.5t63.5 62.5l-15 2q-25 3 -35 11.5t-10 27.5q0 11 1 14l93 77q-33 33 -33 92q0 81 59 140q58 58 143 58q31 0 69 -12h147l-6 -41l-84 -11q30 -33 30 -84q0 -76 -59 -132q-58 -55 -141 -55q-55 0 -89 22l-27 -26
l-31 -30l206 -24q113 -14 113 -90q0 -58 -59 -120q-29 -32 -79.5 -51.5t-111.5 -19.5zM231 175q54 0 90 38q37 37 37 90q0 42 -26.5 69t-68.5 27q-53 0 -90 -39q-37 -38 -37 -93q0 -42 25 -67t70 -25zM267 9l-160 19q-56 -54 -56 -115q0 -73 104 -73q79 0 123 41t44 82
q0 39 -55 46zM322 535q-17 0 -28 10.5t-11 28.5q0 45 80 161l34 -6l-46 -107q23 -8 23 -35q0 -21 -16.5 -36.5t-35.5 -15.5z" />
    <glyph glyph-name="Hcircumflex" unicode="&#x124;" horiz-adv-x="660" 
d="M638 661l-93 -661h-77l43 314h-346l-43 -314h-79l93 661h79l-40 -279h345l40 279h78zM425 866l118 -141h-76l-57 73l-89 -73h-75l162 141h17z" />
    <glyph glyph-name="hcircumflex" unicode="&#x125;" horiz-adv-x="520" 
d="M454 270l-37 -270h-75l35 254q3 21 3 40q0 97 -87 97q-61 0 -106 -53q-45 -52 -57 -135l-30 -203h-74l99 711h72l-50 -340q1 0 2 -0.5t2 -0.5q71 86 164 86q69 0 105.5 -38t36.5 -107q0 -20 -3 -41zM197 878l118 -141h-76l-57 73l-89 -73h-75l162 141h17z" />
    <glyph glyph-name="Hbar" unicode="&#x126;" horiz-adv-x="660" 
d="M116 518h-49q4 18 7 52h49q12 83 13 91h79l-14 -91h346q1 8 13 91h78l-14 -91h43q-3 -34 -7 -52h-42l-73 -518h-77l43 314h-346l-43 -314h-79zM194 518l-19 -136h345q5 35 20 136h-346z" />
    <glyph glyph-name="hbar" unicode="&#x127;" horiz-adv-x="520" 
d="M454 270l-37 -270h-75l35 254q3 21 3 39q0 98 -87 98q-61 0 -106 -53q-45 -52 -57 -135l-30 -203h-74l79 568h-52l7 50h52l13 93h72l-14 -93h174l-7 -50h-174l-29 -197q1 0 2 -0.5t2 -0.5q71 86 164 86q69 0 105.5 -38t36.5 -107q0 -20 -3 -41z" />
    <glyph glyph-name="Itilde" unicode="&#x128;" horiz-adv-x="254" 
d="M324 862l24 -37q-34 -73 -91 -73q-23 0 -62 24t-54 24q-29 0 -61 -54l-28 37q41 74 95 74q24 0 62 -25q39 -24 54 -24q28 0 61 54zM224 661l-93 -661h-79l93 661h79z" />
    <glyph glyph-name="itilde" unicode="&#x129;" horiz-adv-x="231" 
d="M285 650l24 -37q-34 -73 -91 -73q-23 0 -62 24t-54 24q-30 0 -61 -54l-28 37q41 74 95 74q25 0 63 -25q39 -24 53 -24q28 0 61 54zM179 445l-62 -445h-75l62 445h75z" />
    <glyph glyph-name="Imacron" unicode="&#x12a;" horiz-adv-x="254" 
d="M224 661l-93 -661h-79l93 661h79zM339 758h-282l9 59h282z" />
    <glyph glyph-name="imacron" unicode="&#x12b;" horiz-adv-x="231" 
d="M179 445l-62 -445h-75l62 445h75zM290 550h-269l8 57h269z" />
    <glyph glyph-name="Ibreve" unicode="&#x12c;" horiz-adv-x="254" 
d="M294 861h51q-12 -61 -52 -101t-100 -40q-53 0 -82 33.5t-29 88.5q0 15 1 19h51q-1 -3 -1 -16q0 -36 17.5 -57t48.5 -21q71 0 95 94zM224 661l-93 -661h-79l93 661h79z" />
    <glyph glyph-name="ibreve" unicode="&#x12d;" horiz-adv-x="231" 
d="M256 676h51q-10 -58 -51 -100q-39 -42 -101 -42q-53 0 -82 34t-29 89q0 15 1 19h51q-1 -3 -1 -16q0 -36 17.5 -57t48.5 -21q71 0 95 94zM179 445l-62 -445h-75l62 445h75z" />
    <glyph glyph-name="Iogonek" unicode="&#x12e;" horiz-adv-x="254" 
d="M46 -170q45 0 102 33l-11 -49q-55 -31 -116 -31q-79 0 -79 62q0 82 110 156l93 660h79l-93 -661h-34q-44 -32 -68 -68.5t-24 -68.5q0 -33 41 -33z" />
    <glyph glyph-name="iogonek" unicode="&#x12f;" horiz-adv-x="231" 
d="M33 -170q45 0 102 33l-11 -49q-55 -31 -116 -31q-79 0 -79 62q0 84 113 158l62 442h75l-62 -445h-33q-44 -32 -68 -68.5t-24 -68.5q0 -33 41 -33zM169 629q18 0 29 -11.5t11 -29.5q0 -22 -16 -38t-37 -16q-19 0 -30 11t-11 29q0 21 16.5 38t37.5 17z" />
    <glyph glyph-name="Idot" unicode="&#x130;" horiz-adv-x="254" 
d="M224 661l-93 -661h-79l93 661h79zM212 847q17 0 27.5 -11.5t10.5 -28.5q0 -23 -15 -39t-37 -16q-19 0 -30 11t-11 29q0 22 17 38.5t38 16.5z" />
    <glyph glyph-name="dotlessi" unicode="&#x131;" horiz-adv-x="231" 
d="M179 445l-62 -445h-75l62 445h75z" />
    <glyph glyph-name="IJ" unicode="&#x132;" horiz-adv-x="650" 
d="M315 60q81 0 121 45.5t53 136.5l60 419h78l-24 -164q-22 -162 -25 -186l-11 -73q-14 -81 -38 -127q-59 -122 -210 -121q-30 0 -75 8q-40 7 -64 22l10 78q22 -17 58 -27.5t67 -10.5zM216 661l-93 -661h-79l93 661h79z" />
    <glyph glyph-name="ij" unicode="&#x133;" horiz-adv-x="417" 
d="M362 628q18 0 29 -11.5t11 -28.5q0 -22 -16 -38t-37 -16q-19 0 -29.5 11t-10.5 28q0 22 16 38.5t37 16.5zM114 -228l-28 68q67 1 102 36q15 14 26 44q12 33 16 56l12 75l56 394h73l-56 -397q-21 -150 -63 -207t-138 -69zM179 445l-62 -445h-75l62 445h75zM169 629
q18 0 29 -11.5t11 -29.5q0 -22 -16 -38t-37 -16q-19 0 -30 11t-11 29q0 21 16.5 38t37.5 17z" />
    <glyph glyph-name="Jcircumflex" unicode="&#x134;" horiz-adv-x="448" 
d="M114 61q81 0 121 45.5t53 136.5l60 419h78l-24 -164q-22 -162 -25 -186l-11 -73q-14 -81 -38 -127q-59 -122 -210 -121q-30 0 -75 8q-40 7 -64 22l10 78q22 -17 58 -27.5t67 -10.5zM427 867l118 -141h-76l-57 73l-89 -73h-75l162 141h17z" />
    <glyph glyph-name="jcircumflex" unicode="&#x135;" horiz-adv-x="217" 
d="M-86 -228l-23 64q77 -3 114 61q9 12 17 42q6 22 10 45q5 27 8 53q0 2 0.5 5t1 5.5t0.5 3.5l56 394h72l-55 -397q-2 -5 -15 -85q-35 -184 -186 -191zM174 676l114 -150h-69l-60 81l-91 -81h-71l161 150h16z" />
    <glyph glyph-name="Kcommaaccent" unicode="&#x136;" horiz-adv-x="583" 
d="M137 662h78l-44 -312l341 312h92l-345 -319l280 -343h-101l-269 336l-47 -336h-78zM265 -25q17 0 28 -10.5t11 -28.5q0 -45 -80 -161l-34 6l46 107q-23 8 -23 35q0 21 16.5 36.5t35.5 15.5z" />
    <glyph glyph-name="kcommaaccent" unicode="&#x137;" horiz-adv-x="472" 
d="M376 444h96l-262 -212l221 -232h-93l-208 224l-31 -224h-73l99 711h73l-65 -470zM205 -40q17 0 28 -10.5t11 -28.5q0 -45 -80 -161l-34 6l46 107q-23 8 -23 35q0 21 16.5 36.5t35.5 15.5z" />
    <glyph glyph-name="kgreenlandic" unicode="&#x138;" horiz-adv-x="480" 
d="M390 444h91l-257 -209l216 -235h-99l-203 224l-31 -224h-74l62 444h74q-2 -16 -7.5 -53t-10.5 -75t-10 -75z" />
    <glyph glyph-name="Lacute" unicode="&#x139;" horiz-adv-x="506" 
d="M43 0l93 661h79l-84 -593h339l-9 -68h-418zM336 844l-146 -115h-58l134 139z" />
    <glyph glyph-name="lacute" unicode="&#x13a;" horiz-adv-x="210" 
d="M208 711l-99 -711h-75l99 711h75zM328 873l-146 -115h-58l134 139z" />
    <glyph glyph-name="Lcommaaccent" unicode="&#x13b;" horiz-adv-x="506" 
d="M43 0l93 661h79l-84 -593h339l-9 -68h-418zM254 -45q17 0 28 -10.5t11 -28.5q0 -45 -80 -161l-34 6l46 107q-23 8 -23 35q0 21 16.5 36.5t35.5 15.5z" />
    <glyph glyph-name="lcommaaccent" unicode="&#x13c;" horiz-adv-x="210" 
d="M208 711l-99 -711h-75l99 711h75zM70 -45q17 0 28 -10.5t11 -28.5q0 -45 -80 -161l-34 6l46 107q-23 8 -23 35q0 21 16.5 36.5t35.5 15.5z" />
    <glyph glyph-name="Lcaron" unicode="&#x13d;" horiz-adv-x="506" 
d="M43 0l93 661h79l-84 -593h339l-9 -68h-418zM422 669q17 0 28 -10.5t11 -28.5q0 -45 -80 -161l-34 6l46 107q-23 8 -23 35q0 21 16.5 36.5t35.5 15.5z" />
    <glyph glyph-name="lcaron" unicode="&#x13e;" horiz-adv-x="268" 
d="M208 711l-99 -711h-75l99 711h75zM309 718q17 0 28 -10.5t11 -28.5q0 -45 -80 -161l-34 6l46 107q-23 8 -23 35q0 21 16.5 36.5t35.5 15.5z" />
    <glyph glyph-name="Ldot" unicode="&#x13f;" horiz-adv-x="510" 
d="M43 0l93 661h79l-84 -593h339l-9 -68h-418zM365 372q17 0 27.5 -11.5t10.5 -28.5q0 -23 -15 -39t-37 -16q-19 0 -30 11t-11 29q0 22 17 38.5t38 16.5z" />
    <glyph glyph-name="ldot" unicode="&#x140;" horiz-adv-x="263" 
d="M208 711l-99 -711h-75l99 711h75zM254 392q17 0 27.5 -11.5t10.5 -28.5q0 -23 -15 -39t-37 -16q-19 0 -30 11t-11 29q0 22 17 38.5t38 16.5z" />
    <glyph glyph-name="Lslash" unicode="&#x141;" horiz-adv-x="506" 
d="M77 232l-85 -43l7 51l85 45l53 376h78l-48 -336l172 89q-5 -28 -8 -55l-171 -88l-29 -203h340l-10 -68h-417z" />
    <glyph glyph-name="lslash" unicode="&#x142;" horiz-adv-x="213" 
d="M150 301l-41 -301h-75l37 264l-90 -46l6 54l92 47l55 393h75l-51 -356l98 50l-8 -56z" />
    <glyph glyph-name="Nacute" unicode="&#x143;" horiz-adv-x="706" 
d="M191 508l-71 -508h-77l94 671h17l378 -512h4l71 502h77l-94 -669h-15l-381 516h-3zM567 840l-146 -115h-58l134 139z" />
    <glyph glyph-name="nacute" unicode="&#x144;" horiz-adv-x="529" 
d="M462 263l-37 -263h-75l35 254q3 21 3 39q0 98 -87 98q-63 0 -107 -53.5t-57 -141.5l-29 -196h-75l62 445h56l3 -76h3q66 86 160 86q148 0 148 -150q0 -19 -3 -42zM418 658l-133 -131h-54l123 156q36 -13 64 -25z" />
    <glyph glyph-name="Ncommaaccent" unicode="&#x145;" horiz-adv-x="706" 
d="M191 508l-71 -508h-77l94 671h17l378 -512h4l71 502h77l-94 -669h-15l-381 516h-3zM316 -27q17 0 28 -10.5t11 -28.5q0 -45 -80 -161l-34 6l46 107q-23 8 -23 35q0 21 16.5 36.5t35.5 15.5z" />
    <glyph glyph-name="ncommaaccent" unicode="&#x146;" horiz-adv-x="529" 
d="M462 263l-37 -263h-75l35 254q3 21 3 39q0 98 -87 98q-63 0 -107 -53.5t-57 -141.5l-29 -196h-75l62 445h56l3 -76h3q66 86 160 86q148 0 148 -150q0 -19 -3 -42zM223 -38q17 0 28 -10.5t11 -28.5q0 -45 -80 -161l-34 6l46 107q-23 8 -23 35q0 21 16.5 36.5t35.5 15.5z
" />
    <glyph glyph-name="Ncaron" unicode="&#x147;" horiz-adv-x="706" 
d="M191 508l-71 -508h-77l94 671h17l378 -512h4l71 502h77l-94 -669h-15l-381 516h-3zM437 788l86 77h74l-158 -140h-17l-122 140h74z" />
    <glyph glyph-name="ncaron" unicode="&#x148;" horiz-adv-x="529" 
d="M462 263l-37 -263h-75l35 254q3 21 3 39q0 98 -87 98q-63 0 -107 -53.5t-57 -141.5l-29 -196h-75l62 445h56l3 -76h3q66 86 160 86q148 0 148 -150q0 -19 -3 -42zM298 592l83 83h73l-156 -151h-16l-119 151h71z" />
    <glyph glyph-name="napostrophe" unicode="&#x149;" horiz-adv-x="538" 
d="M471 263l-37 -263h-75l35 254q3 21 3 39q0 98 -87 98q-63 0 -107 -53.5t-57 -141.5l-29 -196h-75l62 445h56l3 -76h3q66 86 160 86q148 0 148 -150q0 -19 -3 -42zM102 681q17 0 28 -10.5t11 -28.5q0 -45 -80 -161l-34 6l46 107q-23 8 -23 35q0 21 16.5 36.5t35.5 15.5z
" />
    <glyph glyph-name="Eng" unicode="&#x14a;" horiz-adv-x="706" 
d="M191 512l-71 -512h-77l95 676h21l373 -521h4l71 506h77l-100 -698q-30 -185 -189 -192l-24 60q126 4 144 148l8 64l-329 469h-3z" />
    <glyph glyph-name="eng" unicode="&#x14b;" horiz-adv-x="529" 
d="M462 270l-34 -243q-20 -136 -65 -193q-45 -59 -133 -63l-23 59q48 2 72 20q32 22 43 47q16 36 21 66q1 6 3 14t3 13.5t1 9.5l5 39l6 40l24 175q2 32 2 33q0 48 -22.5 76t-63.5 28q-62 0 -106 -42t-55 -120l-32 -229h-75l62 445h60q0 -7 0.5 -32.5t0.5 -33.5h3
q73 76 158 76q148 0 148 -142q0 -21 -3 -43z" />
    <glyph glyph-name="Omacron" unicode="&#x14c;" horiz-adv-x="756" 
d="M433 671q133 0 208 -81q76 -79 76 -210q0 -164 -109 -276q-108 -112 -263 -112q-133 0 -209 79t-76 206q0 162 108 278q110 116 265 116zM428 602q-119 0 -203 -95q-83 -95 -83 -226q0 -98 55 -160q56 -62 151 -62q122 0 205 92t83 226q0 97 -56 161q-55 64 -152 64z
M592 764h-282l9 59h282z" />
    <glyph glyph-name="omacron" unicode="&#x14d;" horiz-adv-x="526" 
d="M290 456q92 0 142.5 -53t50.5 -144q0 -115 -70 -192q-71 -78 -181 -78q-93 0 -145 53t-52 142q0 113 71 193q70 79 184 79zM286 393q-76 0 -125 -60q-48 -59 -48 -144q0 -64 32 -101t91 -37q75 0 125 59q49 59 49 143q0 62 -33.5 101t-90.5 39zM451 550h-269l8 57h269z
" />
    <glyph glyph-name="Obreve" unicode="&#x14e;" horiz-adv-x="756" 
d="M433 671q133 0 208 -81q76 -79 76 -210q0 -164 -109 -276q-108 -112 -263 -112q-133 0 -209 79t-76 206q0 162 108 278q110 116 265 116zM428 602q-119 0 -203 -95q-83 -95 -83 -226q0 -98 55 -160q56 -62 151 -62q122 0 205 92t83 226q0 97 -56 161q-55 64 -152 64z
M552 861h51q-12 -61 -52 -101t-100 -40q-53 0 -82 33.5t-29 88.5q0 15 1 19h51q-1 -3 -1 -16q0 -36 17.5 -57t48.5 -21q71 0 95 94z" />
    <glyph glyph-name="obreve" unicode="&#x14f;" horiz-adv-x="526" 
d="M290 456q92 0 142.5 -53t50.5 -144q0 -115 -70 -192q-71 -78 -181 -78q-93 0 -145 53t-52 142q0 113 71 193q70 79 184 79zM286 393q-76 0 -125 -60q-48 -59 -48 -144q0 -64 32 -101t91 -37q75 0 125 59q49 59 49 143q0 62 -33.5 101t-90.5 39zM415 673h51
q-10 -58 -51 -100q-39 -42 -101 -42q-53 0 -82 34t-29 89q0 15 1 19h51q-1 -3 -1 -16q0 -36 17.5 -57t48.5 -21q71 0 95 94z" />
    <glyph glyph-name="Ohungarumlaut" unicode="&#x150;" horiz-adv-x="756" 
d="M433 671q133 0 208 -81q76 -79 76 -210q0 -164 -109 -276q-108 -112 -263 -112q-133 0 -209 79t-76 206q0 162 108 278q110 116 265 116zM428 602q-119 0 -203 -95q-83 -95 -83 -226q0 -98 55 -160q56 -62 151 -62q122 0 205 92t83 226q0 97 -56 161q-55 64 -152 64z
M561 851l-151 -122h-58l140 146zM682 851l-152 -122h-57l139 146z" />
    <glyph glyph-name="ohungarumlaut" unicode="&#x151;" horiz-adv-x="526" 
d="M290 456q92 0 142.5 -53t50.5 -144q0 -115 -70 -192q-71 -78 -181 -78q-93 0 -145 53t-52 142q0 113 71 193q70 79 184 79zM286 393q-76 0 -125 -60q-48 -59 -48 -144q0 -64 32 -101t91 -37q75 0 125 59q49 59 49 143q0 62 -33.5 101t-90.5 39zM404 663l-141 -134h-52
l127 158zM518 663l-140 -134h-53l127 158z" />
    <glyph glyph-name="OE" unicode="&#x152;" horiz-adv-x="926" 
d="M511 67h359q0 -3 -9 -67h-419q-39 -10 -93 -10q-141 0 -216 76t-75 210q0 171 111 285q112 115 277 115q58 0 105 -15h377q-2 -7 -5 -33.5t-5 -33.5h-333l-30 -213h308l-9 -66h-308zM359 58q41 0 75 9l74 529q-30 10 -72 10q-128 0 -214 -95q-84 -95 -84 -230
q0 -103 58.5 -163t162.5 -60z" />
    <glyph glyph-name="oe" unicode="&#x153;" horiz-adv-x="839" 
d="M655 455q71 0 113 -35t42 -90q0 -64 -66.5 -103t-189.5 -39q-45 0 -69 3v-3q-10 -61 25 -100t98 -39q99 0 172 60l-11 -69q-77 -50 -172 -50q-131 0 -171 100q-69 -100 -196 -100q-92 0 -143.5 52.5t-51.5 141.5q0 113 68 192q69 79 179 79q134 0 178 -105
q72 105 195 105zM286 392q-77 0 -125 -59t-48 -145q0 -64 31.5 -101t90.5 -37q75 0 125 60q50 61 50 143q0 61 -33.5 100t-90.5 39zM652 393q-61 0 -105 -41t-58 -110q35 -5 72 -5q84 0 129 25t45 63q0 29 -21.5 48.5t-61.5 19.5z" />
    <glyph glyph-name="Racute" unicode="&#x154;" horiz-adv-x="576" 
d="M342 254l191 -254h-94l-196 277l3 13q119 5 177 58q60 56 60 126q0 57 -37.5 89t-100.5 32h-140l-83 -595h-80l92 660h230q84 0 140 -46q58 -45 58 -128q0 -85 -61 -149q-59 -63 -159 -83zM463 844l-146 -115h-58l134 139z" />
    <glyph glyph-name="racute" unicode="&#x155;" horiz-adv-x="320" 
d="M342 450l-4 -77q-27 9 -53 9q-62 0 -102 -54t-52 -151l-23 -177h-75l62 444h52v-92h1l2 -1q21 49 59.5 76.5t87.5 27.5q23 0 45 -5zM308 658l-133 -131h-54l123 156q36 -13 64 -25z" />
    <glyph glyph-name="Rcommaaccent" unicode="&#x156;" horiz-adv-x="576" 
d="M342 254l191 -254h-94l-196 277l3 13q119 5 177 58q60 56 60 126q0 57 -37.5 89t-100.5 32h-140l-83 -595h-80l92 660h230q84 0 140 -46q58 -45 58 -128q0 -85 -61 -149q-59 -63 -159 -83zM248 -23q17 0 28 -10.5t11 -28.5q0 -45 -80 -161l-34 6l46 107q-23 8 -23 35
q0 21 16.5 36.5t35.5 15.5z" />
    <glyph glyph-name="rcommaaccent" unicode="&#x157;" horiz-adv-x="320" 
d="M342 450l-4 -77q-27 9 -53 9q-62 0 -102 -54t-52 -151l-23 -177h-75l62 444h52v-92h1l2 -1q21 49 59.5 76.5t87.5 27.5q23 0 45 -5zM59 -43q17 0 28 -10.5t11 -28.5q0 -45 -80 -161l-34 6l46 107q-23 8 -23 35q0 21 16.5 36.5t35.5 15.5z" />
    <glyph glyph-name="Rcaron" unicode="&#x158;" horiz-adv-x="576" 
d="M342 254l191 -254h-94l-196 277l3 13q119 5 177 58q60 56 60 126q0 57 -37.5 89t-100.5 32h-140l-83 -595h-80l92 660h230q84 0 140 -46q58 -45 58 -128q0 -85 -61 -149q-59 -63 -159 -83zM349 788l86 77h74l-158 -140h-17l-122 140h74z" />
    <glyph glyph-name="rcaron" unicode="&#x159;" horiz-adv-x="320" 
d="M342 450l-4 -77q-27 9 -53 9q-62 0 -102 -54t-52 -151l-23 -177h-75l62 444h52v-92h1l2 -1q21 49 59.5 76.5t87.5 27.5q23 0 45 -5zM197 592l83 83h73l-156 -151h-16l-119 151h71z" />
    <glyph glyph-name="Sacute" unicode="&#x15a;" horiz-adv-x="487" 
d="M4 43l5 39l5 40q82 -65 182 -65q74 0 121 34.5t47 96.5q0 75 -101 124q-8 4 -35 17t-37.5 19t-32.5 19.5t-32.5 24t-23.5 26t-18 32.5t-5 37q0 91 67 137q67 48 155 48q97 0 165 -41l-11 -77q-66 51 -153 51q-54 0 -98 -27q-43 -27 -43 -84q0 -52 101 -101
q40 -18 64.5 -32t56 -38t47.5 -55.5t16 -69.5q0 -103 -71 -156q-70 -52 -180 -52q-117 0 -191 53zM436 844l-146 -115h-58l134 139z" />
    <glyph glyph-name="sacute" unicode="&#x15b;" horiz-adv-x="369" 
d="M-7 28q0 17 6 68q59 -49 136 -49q110 0 110 79q0 26 -28.5 49t-69.5 39q-41 17 -69.5 46t-28.5 65q0 67 49 98q50 32 120 32q67 0 121 -30q-1 -8 -4 -32.5t-4 -32.5q-58 37 -113 37q-40 0 -66.5 -16.5t-26.5 -51.5q0 -40 97 -80q41 -16 69.5 -47t28.5 -70q0 -67 -51 -104
t-133 -37q-87 0 -143 37zM346 658l-133 -131h-54l123 156q36 -13 64 -25z" />
    <glyph glyph-name="Scircumflex" unicode="&#x15c;" horiz-adv-x="487" 
d="M4 43l5 39l5 40q82 -65 182 -65q74 0 121 34.5t47 96.5q0 75 -101 124q-8 4 -35 17t-37.5 19t-32.5 19.5t-32.5 24t-23.5 26t-18 32.5t-5 37q0 91 67 137q67 48 155 48q97 0 165 -41l-11 -77q-66 51 -153 51q-54 0 -98 -27q-43 -27 -43 -84q0 -52 101 -101
q40 -18 64.5 -32t56 -38t47.5 -55.5t16 -69.5q0 -103 -71 -156q-70 -52 -180 -52q-117 0 -191 53zM336 866l118 -141h-76l-57 73l-89 -73h-75l162 141h17z" />
    <glyph glyph-name="scircumflex" unicode="&#x15d;" horiz-adv-x="369" 
d="M-7 28q0 17 6 68q59 -49 136 -49q110 0 110 79q0 26 -28.5 49t-69.5 39q-41 17 -69.5 46t-28.5 65q0 67 49 98q50 32 120 32q67 0 121 -30q-1 -8 -4 -32.5t-4 -32.5q-58 37 -113 37q-40 0 -66.5 -16.5t-26.5 -51.5q0 -40 97 -80q41 -16 69.5 -47t28.5 -70q0 -67 -51 -104
t-133 -37q-87 0 -143 37zM262 676l114 -150h-69l-60 81l-91 -81h-71l161 150h16z" />
    <glyph glyph-name="Scedilla" unicode="&#x15e;" horiz-adv-x="487" 
d="M145 -101l-14 9l47 82q-106 5 -174 53l5 39l5 40q82 -65 182 -65q74 0 121 34.5t47 96.5q0 75 -101 124q-8 4 -35 17t-37.5 19t-32.5 19.5t-32.5 24t-23.5 26t-18 32.5t-5 37q0 91 67 137q67 48 155 48q97 0 165 -41l-11 -77q-66 51 -153 51q-54 0 -98 -27
q-43 -27 -43 -84q0 -52 101 -101q40 -18 64.5 -32t56 -38t47.5 -55.5t16 -69.5q0 -94 -61.5 -147.5t-164.5 -59.5l-29 -45q51 -1 76 -20t25 -50q0 -41 -38 -71q-37 -31 -93 -31q-41 0 -80 16l4 47q41 -18 79 -18q32 0 49 13.5t17 35.5q0 17 -14.5 26.5t-37.5 9.5
q-15 0 -33 -5z" />
    <glyph glyph-name="scedilla" unicode="&#x15f;" horiz-adv-x="369" 
d="M74 -97l-14 9l46 81q-69 4 -113 35q0 17 6 68q59 -49 136 -49q110 0 110 79q0 26 -28.5 49t-69.5 39q-41 17 -69.5 46t-28.5 65q0 67 49 98q50 32 120 32q67 0 121 -30q-1 -8 -4 -32.5t-4 -32.5q-58 37 -113 37q-40 0 -66.5 -16.5t-26.5 -51.5q0 -40 97 -80
q41 -16 69.5 -47t28.5 -70q0 -65 -48 -102t-126 -39l-26 -41q51 -1 76 -20t25 -50q0 -41 -38 -71q-37 -31 -93 -31q-41 0 -80 16l4 47q41 -18 79 -18q32 0 49 13.5t17 35.5q0 17 -14.5 26.5t-37.5 9.5q-15 0 -33 -5z" />
    <glyph glyph-name="Scaron" unicode="&#x160;" horiz-adv-x="487" 
d="M4 43l5 39l5 40q82 -65 182 -65q74 0 121 34.5t47 96.5q0 75 -101 124q-8 4 -35 17t-37.5 19t-32.5 19.5t-32.5 24t-23.5 26t-18 32.5t-5 37q0 91 67 137q67 48 155 48q97 0 165 -41l-11 -77q-66 51 -153 51q-54 0 -98 -27q-43 -27 -43 -84q0 -52 101 -101
q40 -18 64.5 -32t56 -38t47.5 -55.5t16 -69.5q0 -103 -71 -156q-70 -52 -180 -52q-117 0 -191 53zM315 788l86 77h74l-158 -140h-17l-122 140h74z" />
    <glyph glyph-name="scaron" unicode="&#x161;" horiz-adv-x="369" 
d="M-7 28q0 17 6 68q59 -49 136 -49q110 0 110 79q0 26 -28.5 49t-69.5 39q-41 17 -69.5 46t-28.5 65q0 67 49 98q50 32 120 32q67 0 121 -30q-1 -8 -4 -32.5t-4 -32.5q-58 37 -113 37q-40 0 -66.5 -16.5t-26.5 -51.5q0 -40 97 -80q41 -16 69.5 -47t28.5 -70q0 -67 -51 -104
t-133 -37q-87 0 -143 37zM230 592l83 83h73l-156 -151h-16l-119 151h71z" />
    <glyph glyph-name="Tcommaaccent" unicode="&#x162;" horiz-adv-x="521" 
d="M158 -97l-14 9l50 88h-8l83 594h-207l10 68h492l-10 -68h-206l-83 -594h-29l-32 -50q51 -1 76 -20t25 -50q0 -41 -38 -71q-37 -31 -93 -31q-41 0 -80 16l4 47q40 -18 79 -18q32 0 49 13.5t17 35.5q0 17 -14.5 26.5t-37.5 9.5q-15 0 -33 -5z" />
    <glyph glyph-name="tcommaaccent" unicode="&#x163;" horiz-adv-x="325" 
d="M62 -97l-14 9l57 100q-41 32 -27 132l34 241h-72q2 8 7 46l79 18l66 133h23l-19 -137h122q0 -3 -2.5 -15t-4.5 -25t-2 -20h-122l-35 -248q-10 -81 52 -81q37 0 84 29l-9 -65q-47 -29 -99 -29q-20 0 -42 5l-30 -46q51 -1 76 -20t25 -50q0 -41 -38 -71q-37 -31 -93 -31
q-41 0 -80 16l4 47q40 -18 79 -18q32 0 49 13.5t17 35.5q0 17 -14.5 26.5t-37.5 9.5q-15 0 -33 -5z" />
    <glyph glyph-name="Tcaron" unicode="&#x164;" horiz-adv-x="521" 
d="M336 788l86 77h74l-158 -140h-17l-122 140h74zM564 662l-10 -68h-206l-83 -594h-79l83 594h-207l10 68h492z" />
    <glyph glyph-name="tcaron" unicode="&#x165;" horiz-adv-x="324" 
d="M126 449l66 133h23l-19 -137h122q0 -3 -2.5 -15t-4.5 -25t-2 -20h-122l-35 -248q-10 -81 52 -81q37 0 84 29l-9 -65q-47 -29 -99 -29q-68 0 -90 38t-12 115l34 241h-72q2 8 7 46zM360 719q17 0 28 -10.5t11 -28.5q0 -45 -80 -161l-34 6l46 107q-23 8 -23 35
q0 21 16.5 36.5t35.5 15.5z" />
    <glyph glyph-name="Tbar" unicode="&#x166;" horiz-adv-x="521" 
d="M564 662l-10 -68h-206l-29 -211h156l-8 -54h-156l-46 -329h-79l46 329h-156l7 54h157l29 211h-206l10 68h491z" />
    <glyph glyph-name="tbar" unicode="&#x167;" horiz-adv-x="329" 
d="M127 451l67 130h21l-19 -136h121l-9 -60h-121l-12 -88h112l-7 -47h-108q-2 -13 -9 -44q-13 -70 -13 -97q0 -54 53 -54q39 0 83 28l-8 -63q-47 -29 -99 -29q-56 0 -80.5 25t-24.5 75q0 19 7 69l12 90h-66l6 47h67l12 88h-72l9 45z" />
    <glyph glyph-name="Utilde" unicode="&#x168;" horiz-adv-x="667" 
d="M510 248l58 413h78l-59 -416q-18 -120 -91.5 -187.5t-199.5 -67.5q-106 0 -163 55.5t-57 154.5q0 32 4 53l56 408h78l-57 -409q-3 -22 -3 -44q0 -71 38.5 -109.5t114.5 -38.5q88 0 139.5 50t63.5 138zM533 855l24 -37q-34 -73 -91 -73q-23 0 -62 24t-54 24q-30 0 -61 -54
l-28 37q41 74 95 74q25 0 63 -25q39 -24 53 -24q28 0 61 54z" />
    <glyph glyph-name="utilde" unicode="&#x169;" horiz-adv-x="517" 
d="M69 175l38 270h74l-35 -255q-3 -21 -3 -38q0 -99 88 -99q57 0 98 52t53 136l30 204h75l-62 -445h-59v68h-4q-62 -77 -149 -77q-83 0 -119.5 49t-24.5 135zM450 650l24 -37q-34 -73 -91 -73q-23 0 -62 24t-54 24q-29 0 -61 -54l-28 37q41 74 95 74q24 0 62 -25
q39 -24 54 -24q28 0 61 54z" />
    <glyph glyph-name="Umacron" unicode="&#x16a;" horiz-adv-x="667" 
d="M510 248l58 413h78l-59 -416q-18 -120 -91.5 -187.5t-199.5 -67.5q-106 0 -163 55.5t-57 154.5q0 32 4 53l56 408h78l-57 -409q-3 -22 -3 -44q0 -71 38.5 -109.5t114.5 -38.5q88 0 139.5 50t63.5 138zM546 756h-282l9 59h282z" />
    <glyph glyph-name="umacron" unicode="&#x16b;" horiz-adv-x="517" 
d="M69 175l38 270h74l-35 -255q-3 -21 -3 -38q0 -99 88 -99q57 0 98 52t53 136l30 204h75l-62 -445h-59v68h-4q-62 -77 -149 -77q-83 0 -119.5 49t-24.5 135zM441 550h-269l8 57h269z" />
    <glyph glyph-name="Ubreve" unicode="&#x16c;" horiz-adv-x="667" 
d="M510 248l58 413h78l-59 -416q-18 -120 -91.5 -187.5t-199.5 -67.5q-106 0 -163 55.5t-57 154.5q0 32 4 53l56 408h78l-57 -409q-3 -22 -3 -44q0 -71 38.5 -109.5t114.5 -38.5q88 0 139.5 50t63.5 138zM492 853h51q-12 -61 -52 -101t-100 -40q-53 0 -82 33.5t-29 88.5
q0 15 1 19h51q-1 -3 -1 -16q0 -36 17.5 -57t48.5 -21q71 0 95 94z" />
    <glyph glyph-name="ubreve" unicode="&#x16d;" horiz-adv-x="517" 
d="M69 175l38 270h74l-35 -255q-3 -21 -3 -38q0 -99 88 -99q57 0 98 52t53 136l30 204h75l-62 -445h-59v68h-4q-62 -77 -149 -77q-83 0 -119.5 49t-24.5 135zM406 665h51q-10 -58 -51 -100q-39 -42 -101 -42q-53 0 -82 34t-29 89q0 15 1 19h51q-1 -3 -1 -16q0 -36 17.5 -57
t48.5 -21q71 0 95 94z" />
    <glyph glyph-name="Uring" unicode="&#x16e;" horiz-adv-x="667" 
d="M510 248l58 413h78l-59 -416q-18 -120 -91.5 -187.5t-199.5 -67.5q-106 0 -163 55.5t-57 154.5q0 32 4 53l56 408h78l-57 -409q-3 -22 -3 -44q0 -71 38.5 -109.5t114.5 -38.5q88 0 139.5 50t63.5 138zM424 910q36 0 59 -22.5t23 -58.5q0 -42 -32 -74q-31 -31 -76 -31
q-36 0 -58 21t-22 55q0 45 32 77q32 33 74 33zM418 869q-22 0 -39.5 -19t-17.5 -42q0 -19 11.5 -31t31.5 -12q24 0 41 17.5t17 41.5q0 19 -12 32t-32 13z" />
    <glyph glyph-name="uring" unicode="&#x16f;" horiz-adv-x="517" 
d="M69 175l38 270h74l-35 -255q-3 -21 -3 -38q0 -99 88 -99q57 0 98 52t53 136l30 204h75l-62 -445h-59v68h-4q-62 -77 -149 -77q-83 0 -119.5 49t-24.5 135zM332 703q36 0 59 -22.5t23 -58.5q0 -42 -32 -74q-31 -31 -76 -31q-36 0 -58 21t-22 55q0 45 32 77q32 33 74 33z
M326 662q-22 0 -39.5 -19t-17.5 -42q0 -19 11.5 -31t31.5 -12q24 0 41 17.5t17 41.5q0 19 -12 32t-32 13z" />
    <glyph glyph-name="Uhungarumlaut" unicode="&#x170;" horiz-adv-x="667" 
d="M510 248l58 413h78l-59 -416q-18 -120 -91.5 -187.5t-199.5 -67.5q-106 0 -163 55.5t-57 154.5q0 32 4 53l56 408h78l-57 -409q-3 -22 -3 -44q0 -71 38.5 -109.5t114.5 -38.5q88 0 139.5 50t63.5 138zM491 851l-151 -122h-58l140 146zM612 851l-152 -122h-57l139 146z
" />
    <glyph glyph-name="uhungarumlaut" unicode="&#x171;" horiz-adv-x="517" 
d="M69 175l38 270h74l-35 -255q-3 -21 -3 -38q0 -99 88 -99q57 0 98 52t53 136l30 204h75l-62 -445h-59v68h-4q-62 -77 -149 -77q-83 0 -119.5 49t-24.5 135zM390 663l-141 -134h-52l127 158zM504 663l-140 -134h-53l127 158z" />
    <glyph glyph-name="Uogonek" unicode="&#x172;" horiz-adv-x="667" 
d="M276 -178q45 0 102 33l-11 -49q-55 -31 -116 -31q-79 0 -79 62q0 82 105 154q-98 4 -149.5 59t-51.5 150q0 32 4 53l56 408h78l-57 -409q-3 -22 -3 -44q0 -71 38.5 -109.5t114.5 -38.5q88 0 139.5 50t63.5 138l58 413h78l-59 -416q-16 -111 -82 -178t-178 -75
q-44 -32 -68 -68.5t-24 -68.5q0 -33 41 -33z" />
    <glyph glyph-name="uogonek" unicode="&#x173;" horiz-adv-x="517" 
d="M334 -180q45 0 102 33l-11 -49q-55 -31 -116 -31q-79 0 -79 62q0 94 136 173v60h-4q-62 -77 -149 -77q-83 0 -119.5 49t-24.5 135l38 270h74l-35 -255q-3 -21 -3 -38q0 -99 88 -99q57 0 98 52t53 136l30 204h75l-62 -445h-25q-50 -33 -80 -74q-27 -41 -27 -73
q0 -33 41 -33z" />
    <glyph glyph-name="Wcircumflex" unicode="&#x174;" horiz-adv-x="885" 
d="M253 167l237 498h14l101 -498h4l242 492h80l-338 -667h-13l-104 503h-3l-243 -503h-16l-149 667h79l104 -492h5zM532 866l118 -141h-76l-57 73l-89 -73h-75l162 141h17z" />
    <glyph glyph-name="wcircumflex" unicode="&#x175;" horiz-adv-x="696" 
d="M178 134l186 313h11l96 -313h4l162 311h73l-248 -451h-12l-98 318h-3l-188 -318h-13l-119 451h76l69 -311h4zM415 676l114 -150h-69l-60 81l-91 -81h-71l161 150h16z" />
    <glyph glyph-name="Ycircumflex" unicode="&#x176;" horiz-adv-x="545" 
d="M149 661l143 -301h4q38 56 211 301h86l-268 -375l-40 -286h-79l40 286l-179 375h82zM364 866l118 -141h-76l-57 73l-89 -73h-75l162 141h17z" />
    <glyph glyph-name="ycircumflex" unicode="&#x177;" horiz-adv-x="435" 
d="M103 445l84 -351h5l183 351h78l-358 -660h-75l124 229l-119 431h78zM287 676l114 -150h-69l-60 81l-91 -81h-71l161 150h16z" />
    <glyph glyph-name="Ydieresis" unicode="&#x178;" horiz-adv-x="545" 
d="M149 661l143 -301h4q38 56 211 301h86l-268 -375l-40 -286h-79l40 286l-179 375h82zM271 824q16 0 26 -10.5t10 -26.5q0 -21 -14.5 -35.5t-33.5 -14.5q-17 0 -28 10t-11 26q0 20 15.5 35.5t35.5 15.5zM433 824q17 0 27 -10.5t10 -26.5q0 -21 -14 -35.5t-34 -14.5
q-18 0 -28 10t-10 26q0 20 15 35.5t34 15.5z" />
    <glyph glyph-name="Zacute" unicode="&#x179;" horiz-adv-x="508" 
d="M116 661h427l-2 -13l-426 -581h344q0 -3 -9 -67h-465l1 4v6l428 584h-309zM473 844l-146 -115h-58l134 139z" />
    <glyph glyph-name="zacute" unicode="&#x17a;" horiz-adv-x="399" 
d="M64 445h338l-2 -12l-310 -374h252l-7 -59h-364q0 2 0.5 6t0.5 5l313 374h-229zM370 658l-133 -131h-54l123 156q36 -13 64 -25z" />
    <glyph glyph-name="Zdotaccent" unicode="&#x17b;" horiz-adv-x="508" 
d="M116 661h427l-2 -13l-426 -581h344q0 -3 -9 -67h-465l1 4v6l428 584h-309zM357 847q17 0 27.5 -11.5t10.5 -28.5q0 -23 -15 -39t-37 -16q-19 0 -30 11t-11 29q0 22 17 38.5t38 16.5z" />
    <glyph glyph-name="zdotaccent" unicode="&#x17c;" horiz-adv-x="399" 
d="M64 445h338l-2 -12l-310 -374h252l-7 -59h-364q0 2 0.5 6t0.5 5l313 374h-229zM259 638q17 0 27.5 -11.5t10.5 -28.5q0 -23 -15 -39t-37 -16q-19 0 -30 11t-11 29q0 22 17 38.5t38 16.5z" />
    <glyph glyph-name="Zcaron" unicode="&#x17d;" horiz-adv-x="508" 
d="M345 788l86 77h74l-158 -140h-17l-122 140h74zM116 661h427l-2 -13l-426 -581h344q0 -3 -9 -67h-465l1 4v6l428 584h-309z" />
    <glyph glyph-name="zcaron" unicode="&#x17e;" horiz-adv-x="399" 
d="M249 592l83 83h73l-156 -151h-16l-119 151h71zM64 445h338l-2 -12l-310 -374h252l-7 -59h-364q0 2 0.5 6t0.5 5l313 374h-229z" />
    <glyph glyph-name="longs" unicode="&#x17f;" horiz-adv-x="237" 
d="M392 713l-3 -64q-42 15 -79 15q-96 0 -113 -123l-101 -743h-74l80 589h-78l6 45l80 13l13 93q12 88 60.5 137.5t132.5 49.5q37 0 76 -12z" />
    <glyph glyph-name="florin" unicode="&#x192;" horiz-adv-x="536" 
d="M248 345h-80l3 55h87l18 90q18 94 57.5 137.5t108.5 43.5q38 0 73 -13l-2 -64q-37 12 -63 12q-43 0 -67 -28t-36 -91l-16 -87h97l-4 -55h-102l-34 -178q-29 -147 -68 -200q-39 -57 -112 -57q-40 0 -79 16l2 71q46 -17 71 -17q49 0 72 44q23 45 48 181z" />
    <glyph glyph-name="AEacute" unicode="&#x1fc;" horiz-adv-x="933" 
d="M883 68l-9 -68h-435l18 149h-277l-136 -149h-89l605 661h363q-9 -65 -9 -67h-329l-25 -213h308l-8 -66h-307l-30 -247h360zM498 497h-4l-264 -290h234zM790 844l-146 -115h-58l134 139z" />
    <glyph glyph-name="aeacute" unicode="&#x1fd;" horiz-adv-x="770" 
d="M586 455q71 0 112.5 -35t41.5 -90q0 -64 -66.5 -103t-189.5 -39q-45 0 -69 3q-10 -59 25 -101q35 -41 98 -41q100 0 173 60l-11 -69q-77 -50 -172 -50q-132 0 -170 104q-70 -105 -205 -105h-5q-70 1 -105.5 32.5t-35.5 79.5q0 93 79 131q66 33 157 33h96q4 25 4 43
q0 88 -104 88q-67 0 -149 -41q9 61 9 64q75 37 150 37q132 0 159 -83q70 82 178 82zM329 192l4 25h-87q-38 0 -75 -8q-37 -9 -62.5 -34t-25.5 -61q0 -32 25.5 -49.5t70.5 -17.5q61 0 100.5 40t49.5 105zM582 393q-61 0 -104.5 -41t-57.5 -110q32 -5 71 -5q84 0 129 25t45 63
q0 29 -21.5 48.5t-61.5 19.5zM586 658l-133 -131h-54l123 156q36 -13 64 -25z" />
    <glyph glyph-name="Oslashacute" unicode="&#x1fe;" horiz-adv-x="756" 
d="M433 671q111 0 184 -60q33 39 44 50h55q-10 -10 -37 -42l-31 -36q69 -77 69 -203q0 -164 -109 -276q-108 -112 -263 -112q-101 0 -169 45l-33 -37h-56l55 64q-82 76 -82 213q0 162 108 278q110 116 265 116zM428 602q-119 0 -202 -95q-82 -94 -82 -226q0 -97 51 -157
l370 428q-56 50 -137 50zM634 377q0 81 -41 143l-366 -426q52 -35 121 -35q119 0 202 92q84 93 84 226zM608 844l-146 -115h-58l134 139z" />
    <glyph glyph-name="oslashacute" unicode="&#x1ff;" horiz-adv-x="526" 
d="M290 456q83 0 131 -45l32 33h52l-58 -60q36 -50 36 -125q0 -115 -70 -192q-71 -78 -181 -78q-81 0 -131 40l-28 -29h-53l55 56q-40 49 -40 128q0 113 71 193q70 79 184 79zM286 393q-76 0 -125 -60q-48 -59 -48 -144q0 -47 16 -78l241 249q-33 33 -84 33zM410 253
q0 40 -17 76l-241 -248q28 -30 84 -30q75 0 125 59q49 59 49 143zM458 658l-133 -131h-54l123 156q36 -13 64 -25z" />
    <glyph glyph-name="Scommaaccent" unicode="&#x218;" horiz-adv-x="487" 
d="M4 43l5 39l5 40q82 -65 182 -65q74 0 121 34.5t47 96.5q0 75 -101 124q-8 4 -35 17t-37.5 19t-32.5 19.5t-32.5 24t-23.5 26t-18 32.5t-5 37q0 91 67 137q67 48 155 48q97 0 165 -41l-11 -77q-66 51 -153 51q-54 0 -98 -27q-43 -27 -43 -84q0 -52 101 -101
q40 -18 64.5 -32t56 -38t47.5 -55.5t16 -69.5q0 -103 -71 -156q-70 -52 -180 -52q-117 0 -191 53zM191 -45q17 0 28 -10.5t11 -28.5q0 -45 -80 -161l-34 6l46 107q-23 8 -23 35q0 21 16.5 36.5t35.5 15.5z" />
    <glyph glyph-name="scommaaccent" unicode="&#x219;" horiz-adv-x="369" 
d="M-7 28q0 17 6 68q59 -49 136 -49q110 0 110 79q0 26 -28.5 49t-69.5 39q-41 17 -69.5 46t-28.5 65q0 67 49 98q50 32 120 32q67 0 121 -30q-1 -8 -4 -32.5t-4 -32.5q-58 37 -113 37q-40 0 -66.5 -16.5t-26.5 -51.5q0 -40 97 -80q41 -16 69.5 -47t28.5 -70q0 -67 -51 -104
t-133 -37q-87 0 -143 37zM134 -45q17 0 28 -10.5t11 -28.5q0 -45 -80 -161l-34 6l46 107q-23 8 -23 35q0 21 16.5 36.5t35.5 15.5z" />
    <glyph glyph-name="uni021A" unicode="&#x21a;" horiz-adv-x="521" 
d="M564 662l-10 -68h-206l-83 -594h-79l83 594h-207l10 68h492zM214 -45q17 0 28 -10.5t11 -28.5q0 -45 -80 -161l-34 6l46 107q-23 8 -23 35q0 21 16.5 36.5t35.5 15.5z" />
    <glyph glyph-name="uni021B" unicode="&#x21b;" horiz-adv-x="325" 
d="M126 449l66 133h23l-19 -137h122q0 -3 -2.5 -15t-4.5 -25t-2 -20h-122l-35 -248q-10 -81 52 -81q37 0 84 29l-9 -65q-47 -29 -99 -29q-68 0 -90 38t-12 115l34 241h-72q2 8 7 46zM102 -45q17 0 28 -10.5t11 -28.5q0 -45 -80 -161l-34 6l46 107q-23 8 -23 35
q0 21 16.5 36.5t35.5 15.5z" />
    <glyph glyph-name="schwa" unicode="&#x259;" horiz-adv-x="474" 
d="M181 -10q-71 0 -112.5 35t-41.5 90q0 63 67 102t189 39q37 0 69 -2q0 64 -32 103t-91 39q-99 0 -172 -61q1 9 11 70q80 50 172 50t141 -51t49 -140q0 -115 -70 -194q-71 -80 -179 -80zM185 51q61 0 105 41t58 111q-45 3 -64 3q-182 0 -182 -86q0 -31 21.5 -50t61.5 -19z
" />
    <glyph glyph-name="primemod" unicode="&#x2b9;" horiz-adv-x="214" 
d="M253 648l-158 -245h-50l145 270z" />
    <glyph glyph-name="circumflex" unicode="&#x2c6;" horiz-adv-x="469" 
d="M306 676l114 -150h-69l-60 81l-91 -81h-71l161 150h16z" />
    <glyph glyph-name="caron" unicode="&#x2c7;" horiz-adv-x="469" 
d="M276 592l83 83h73l-156 -151h-16l-119 151h71z" />
    <glyph glyph-name="breve" unicode="&#x2d8;" horiz-adv-x="473" 
d="M369 673h51q-10 -58 -51 -100q-39 -42 -101 -42q-53 0 -82 34t-29 89q0 15 1 19h51q-1 -3 -1 -16q0 -36 17.5 -57t48.5 -21q71 0 95 94z" />
    <glyph glyph-name="dotaccent" unicode="&#x2d9;" horiz-adv-x="436" 
d="M310 638q17 0 27.5 -11.5t10.5 -28.5q0 -23 -15 -39t-37 -16q-19 0 -30 11t-11 29q0 22 17 38.5t38 16.5z" />
    <glyph glyph-name="ring" unicode="&#x2da;" horiz-adv-x="469" 
d="M296 711q36 0 59 -22.5t23 -58.5q0 -42 -32 -74q-31 -31 -76 -31q-36 0 -58 21t-22 55q0 45 32 77q32 33 74 33zM290 670q-22 0 -39.5 -19t-17.5 -42q0 -19 11.5 -31t31.5 -12q24 0 41 17.5t17 41.5q0 19 -12 32t-32 13z" />
    <glyph glyph-name="ogonek" unicode="&#x2db;" horiz-adv-x="514" 
d="M255 -169q45 0 102 33l-11 -49q-55 -31 -116 -31q-79 0 -79 62q0 58 49 107q51 51 122 85l8 -21q-55 -35 -85.5 -76.5t-30.5 -76.5q0 -33 41 -33z" />
    <glyph glyph-name="tilde" unicode="&#x2dc;" horiz-adv-x="469" 
d="M396 650l24 -37q-34 -73 -91 -73q-23 0 -62 24t-54 24q-29 0 -61 -54l-28 37q41 74 95 74q24 0 62 -25q39 -24 54 -24q28 0 61 54z" />
    <glyph glyph-name="hungarumlaut" unicode="&#x2dd;" horiz-adv-x="469" 
d="M352 663l-141 -134h-52l127 158zM466 663l-140 -134h-53l127 158z" />
    <glyph glyph-name="tonos" unicode="&#x384;" horiz-adv-x="469" 
d="M420 663l-141 -134h-53l127 158z" />
    <glyph glyph-name="dieresistonos" unicode="&#x385;" horiz-adv-x="474" 
d="M417 633q17 0 28 -11t11 -27q0 -19 -15 -34.5t-35 -15.5q-16 0 -27 10.5t-11 26.5q0 20 15 35.5t34 15.5zM209 632q16 0 25.5 -10t9.5 -26q0 -21 -13.5 -35.5t-33.5 -14.5q-18 0 -28 10t-10 26q0 20 15.5 35t34.5 15zM405 672l-129 -152h-51l111 170z" />
    <glyph glyph-name="Alphatonos" unicode="&#x386;" horiz-adv-x="611" 
d="M562 0h-77l-38 148h-306l-80 -148h-82l379 667h15zM348 516h-4l-170 -308h257zM230 659l-141 -134h-53l127 158z" />
    <glyph glyph-name="anoteleia" unicode="&#x387;" horiz-adv-x="203" 
d="M122 400q19 0 31.5 -13t12.5 -33q0 -24 -18.5 -41.5t-40.5 -17.5q-19 0 -31.5 12.5t-12.5 31.5q0 25 17.5 43t41.5 18z" />
    <glyph glyph-name="Epsilontonos" unicode="&#x388;" horiz-adv-x="547" 
d="M132 68h359l-9 -68h-439l93 661h413l-10 -67h-333l-30 -213h308l-9 -66h-309q-31 -229 -34 -247zM91 659l-141 -134h-53l127 158z" />
    <glyph glyph-name="Etatonos" unicode="&#x389;" horiz-adv-x="660" 
d="M638 661l-93 -661h-77l43 314h-346l-43 -314h-79l93 661h79l-40 -279h345l40 279h78zM90 658l-141 -134h-53l127 158z" />
    <glyph glyph-name="Iotatonos" unicode="&#x38a;" horiz-adv-x="254" 
d="M224 661l-93 -661h-79l93 661h79zM107 658l-141 -134h-53l127 158z" />
    <glyph glyph-name="Omicrontonos" unicode="&#x38c;" horiz-adv-x="756" 
d="M433 671q133 0 208 -81q76 -79 76 -210q0 -164 -109 -276q-108 -112 -263 -112q-133 0 -209 79t-76 206q0 162 108 278q110 116 265 116zM428 602q-119 0 -203 -95q-83 -95 -83 -226q0 -98 55 -160q56 -62 151 -62q122 0 205 92t83 226q0 97 -56 161q-55 64 -152 64z
M135 658l-141 -134h-53l127 158z" />
    <glyph glyph-name="Upsilontonos" unicode="&#x38e;" horiz-adv-x="545" 
d="M149 661l143 -301h4q38 56 211 301h86l-268 -375l-40 -286h-79l40 286l-179 375h82zM49 659l-141 -134h-53l127 158z" />
    <glyph glyph-name="Omegatonos" unicode="&#x38f;" horiz-adv-x="766" 
d="M435 603q-130 0 -216 -98t-86 -233q0 -81 35 -156q36 -72 106 -103q0 -1 -0.5 -6t-0.5 -7h-263l10 67h111q0 1 0.5 2t0.5 2q-77 77 -77 201q0 168 115 284q116 117 275 117q129 0 208 -82t79 -207q0 -89 -39 -173t-110 -140q0 -3 1 -4h112q-9 -65 -9 -67h-262q0 2 0.5 7
t0.5 6q73 28 127 94q102 125 102 265q0 96 -59 164q-58 67 -161 67zM127 657l-141 -134h-53l127 158z" />
    <glyph glyph-name="iotadieresistonos" unicode="&#x390;" horiz-adv-x="223" 
d="M283 633q17 0 28 -11t11 -27q0 -19 -15 -34.5t-35 -15.5q-16 0 -27 10.5t-11 26.5q0 20 15 35.5t34 15.5zM75 632q16 0 25.5 -10t9.5 -26q0 -21 -13.5 -35.5t-33.5 -14.5q-18 0 -28 10t-10 26q0 20 15.5 35t34.5 15zM271 672l-129 -152h-51l111 170zM175 445l-62 -445
h-74l62 445h74z" />
    <glyph glyph-name="Alpha" unicode="&#x391;" horiz-adv-x="611" 
d="M562 0h-77l-38 148h-306l-80 -148h-82l379 667h15zM348 516h-4l-170 -308h257z" />
    <glyph glyph-name="Beta" unicode="&#x392;" horiz-adv-x="600" 
d="M327 321h-161l-36 -253h170q46 0 79.5 15t50 38.5t24 46.5t7.5 46q0 49 -35.5 78t-98.5 29zM366 595h-162l-12 -89q-11 -81 -18 -122h155q20 0 41.5 5.5t44.5 18.5t37.5 39.5t14.5 62.5q0 39 -26.5 62t-74.5 23zM440 361v-4q100 -31 100 -142q0 -95 -67 -155
q-66 -60 -163 -60h-267l93 661h242q80 0 124 -36t44 -106q0 -51 -27.5 -92.5t-78.5 -65.5z" />
    <glyph glyph-name="Gamma" unicode="&#x393;" horiz-adv-x="510" 
d="M542 594h-337l-83 -594h-79l93 661h416z" />
    <glyph glyph-name="increment" unicode="&#x394;" horiz-adv-x="633" 
d="M370 670h13l203 -670h-605zM355 525h-1l-262 -459h395z" />
    <glyph glyph-name="increment" unicode="&#x2206;" horiz-adv-x="633" 
d="M370 670h13l203 -670h-605zM355 525h-1l-262 -459h395z" />
    <glyph glyph-name="Epsilon" unicode="&#x395;" horiz-adv-x="547" 
d="M132 68h359l-9 -68h-439l93 661h413l-10 -67h-333l-30 -213h308l-9 -66h-309q-31 -229 -34 -247z" />
    <glyph glyph-name="Zeta" unicode="&#x396;" horiz-adv-x="508" 
d="M116 661h427l-2 -13l-426 -581h344q0 -3 -9 -67h-465l1 4v6l428 584h-309z" />
    <glyph glyph-name="Eta" unicode="&#x397;" horiz-adv-x="660" 
d="M638 661l-93 -661h-77l43 314h-346l-43 -314h-79l93 661h79l-40 -279h345l40 279h78z" />
    <glyph glyph-name="Theta" unicode="&#x398;" horiz-adv-x="756" 
d="M542 314h-317q1 7 4 31t4 31h317q0 -7 -4 -31.5t-4 -30.5zM433 671q133 0 208 -81q76 -79 76 -209q0 -165 -109 -277q-108 -112 -263 -112q-133 0 -209 78q-76 79 -76 207q0 162 108 278q110 116 265 116zM428 602q-119 0 -202 -95q-82 -94 -82 -226q0 -99 54 -160
q54 -62 150 -62q119 0 202 92q84 93 84 226q0 99 -55 161q-55 64 -151 64z" />
    <glyph glyph-name="Iota" unicode="&#x399;" horiz-adv-x="254" 
d="M224 661l-93 -661h-79l93 661h79z" />
    <glyph glyph-name="Kappa" unicode="&#x39a;" horiz-adv-x="583" 
d="M137 662h78l-44 -312l341 312h92l-345 -319l280 -343h-101l-269 336l-47 -336h-78z" />
    <glyph glyph-name="Lambda" unicode="&#x39b;" horiz-adv-x="611" 
d="M562 0h-80l-139 513h-4l-282 -513h-78l380 670h14z" />
    <glyph glyph-name="Mu" unicode="&#x39c;" horiz-adv-x="798" 
d="M672 477l-281 -329h-15l-189 338l-2 -3l-67 -483h-75l94 668h16l242 -423l366 423h15l-93 -668h-75l66 475z" />
    <glyph glyph-name="Nu" unicode="&#x39d;" horiz-adv-x="706" 
d="M191 508l-71 -508h-77l94 671h17l378 -512h4l71 502h77l-94 -669h-15l-381 516h-3z" />
    <glyph glyph-name="Xi" unicode="&#x39e;" horiz-adv-x="565" 
d="M576 662l-10 -69h-472l10 69h472zM-1 0l9 71h496l-9 -71h-496zM101 315l10 69h384l-10 -69h-384z" />
    <glyph glyph-name="Omicron" unicode="&#x39f;" horiz-adv-x="756" 
d="M433 671q133 0 208 -81q76 -79 76 -210q0 -164 -109 -276q-108 -112 -263 -112q-133 0 -209 79t-76 206q0 162 108 278q110 116 265 116zM428 602q-119 0 -203 -95q-83 -95 -83 -226q0 -98 55 -160q56 -62 151 -62q122 0 205 92t83 226q0 97 -56 161q-55 64 -152 64z" />
    <glyph glyph-name="Pi" unicode="&#x3a0;" horiz-adv-x="666" 
d="M643 661l-92 -661h-79l83 594h-350l-83 -594h-79l93 661h507z" />
    <glyph glyph-name="Rho" unicode="&#x3a1;" horiz-adv-x="560" 
d="M122 0h-80l92 660h222q98 0 149.5 -52t51.5 -138q0 -110 -78 -176q-79 -65 -184 -65h-142zM326 597h-121l-43 -305h127q93 0 140 54q47 55 47 124q0 59 -36.5 93t-113.5 34z" />
    <glyph glyph-name="Sigma" unicode="&#x3a3;" horiz-adv-x="539" 
d="M206 594l121 -238l-210 -289h382q-9 -64 -9 -67h-502v4q1 4 1 6l249 344l-148 294l2 13h473l-10 -67h-349z" />
    <glyph glyph-name="Tau" unicode="&#x3a4;" horiz-adv-x="521" 
d="M564 662l-10 -68h-206l-83 -594h-79l83 594h-207l10 68h492z" />
    <glyph glyph-name="Upsilon" unicode="&#x3a5;" horiz-adv-x="545" 
d="M149 661l143 -301h4q38 56 211 301h86l-268 -375l-40 -286h-79l40 286l-179 375h82z" />
    <glyph glyph-name="Phi" unicode="&#x3a6;" horiz-adv-x="817" 
d="M334 0l9 66q-126 4 -205 70q-78 64 -78 168q0 130 106 218t254 96l7 43h78l-7 -43q130 -9 206 -74q76 -64 76 -167q0 -129 -101 -215q-100 -85 -259 -96l-8 -66h-78zM489 553l-59 -421q117 6 196 73t79 166q0 78 -59.5 127.5t-156.5 54.5zM352 132l59 421
q-119 -7 -195 -75q-76 -66 -76 -166q0 -77 55.5 -124.5t156.5 -55.5z" />
    <glyph glyph-name="Chi" unicode="&#x3a7;" horiz-adv-x="609" 
d="M564 0h-93l-156 329l-245 -329h-96l268 345l-160 316h83l152 -302l233 302h90l-249 -319z" />
    <glyph glyph-name="Psi" unicode="&#x3a8;" horiz-adv-x="738" 
d="M398 189l-27 -189h-78q21 147 26 189q-105 9 -165.5 70t-60.5 157q0 18 4 46l29 199h78q-25 -171 -29 -199q-2 -14 -2 -31q0 -66 41 -116q42 -50 115 -54l57 400h78l-57 -400q88 5 144 59t68 139l29 202h79l-30 -206q-16 -111 -97 -186q-78 -72 -202 -80z" />
    <glyph glyph-name="Omega" unicode="&#x3a9;" horiz-adv-x="766" 
d="M435 603q-130 0 -216 -98t-86 -233q0 -81 35 -156q36 -72 106 -103q0 -1 -0.5 -6t-0.5 -7h-263l10 67h111q0 1 0.5 2t0.5 2q-77 77 -77 201q0 168 115 284q116 117 275 117q129 0 208 -82t79 -207q0 -89 -39 -173t-110 -140q0 -3 1 -4h112q-9 -65 -9 -67h-262q0 2 0.5 7
t0.5 6q73 28 127 94q102 125 102 265q0 96 -59 164q-58 67 -161 67z" />
    <glyph glyph-name="Iotadieresis" unicode="&#x3aa;" horiz-adv-x="254" 
d="M124 838q16 0 26 -10.5t10 -26.5q0 -21 -14.5 -35.5t-33.5 -14.5q-17 0 -28 10t-11 26q0 20 15.5 35.5t35.5 15.5zM286 838q17 0 27 -10.5t10 -26.5q0 -21 -14 -35.5t-34 -14.5q-18 0 -28 10t-10 26q0 20 15 35.5t34 15.5zM224 661l-93 -661h-79l93 661h79z" />
    <glyph glyph-name="Upsilondieresis" unicode="&#x3ab;" horiz-adv-x="545" 
d="M149 661l143 -301h4q38 56 211 301h86l-268 -375l-40 -286h-79l40 286l-179 375h82zM271 818q16 0 26 -10.5t10 -26.5q0 -21 -14.5 -35.5t-33.5 -14.5q-17 0 -28 10t-11 26q0 20 15.5 35.5t35.5 15.5zM433 818q17 0 27 -10.5t10 -26.5q0 -21 -14 -35.5t-34 -14.5
q-18 0 -28 10t-10 26q0 20 15 35.5t34 15.5z" />
    <glyph glyph-name="alphatonos" unicode="&#x3ac;" horiz-adv-x="546" 
d="M275 394q-76 0 -121 -62q-44 -62 -44 -144q0 -65 29.5 -101.5t87.5 -36.5q73 0 121 58q49 58 49 148q0 62 -32 100t-90 38zM387 0l-7 62h-4q-68 -72 -168 -72q-87 0 -131 53q-43 52 -43 132q0 124 68 201q69 78 173 78q101 0 145 -78h5l26 69h49l-62 -445h-51zM450 663
l-141 -134h-53l127 158z" />
    <glyph glyph-name="epsilontonos" unicode="&#x3ad;" horiz-adv-x="403" 
d="M251 457q69 0 129 -29l-9 -66q-52 35 -126 35q-47 0 -78.5 -22t-31.5 -59q0 -45 69 -45h70l-8 -58h-56q-53 0 -82.5 -25.5t-29.5 -65.5q0 -73 108 -73q76 0 147 48l-9 -68q-72 -39 -156 -39q-81 0 -124 31t-43 83q0 38 25 77t72 56v4q-56 21 -56 75q0 59 53 100
q55 41 136 41zM391 663l-141 -134h-53l127 158z" />
    <glyph glyph-name="etatonos" unicode="&#x3ae;" horiz-adv-x="529" 
d="M462 263l-70 -478h-75l68 469q3 21 3 39q0 98 -87 98q-63 0 -107 -53.5t-57 -141.5l-29 -196h-75l62 445h56l3 -76h3q66 86 160 86q148 0 148 -150q0 -19 -3 -42zM424 663l-141 -134h-53l127 158z" />
    <glyph glyph-name="iotatonos" unicode="&#x3af;" horiz-adv-x="223" 
d="M175 445l-62 -445h-74l62 445h74zM300 663l-141 -134h-53l127 158z" />
    <glyph glyph-name="upsilondieresistonos" unicode="&#x3b0;" horiz-adv-x="515" 
d="M365 192l36 253h75l-35 -249q-14 -98 -72 -152t-148 -54q-81 0 -124 42.5t-43 121.5q0 22 3 46l35 245h72l-36 -253q-3 -18 -3 -33q0 -50 26 -78t77 -28q118 0 137 139zM424 633q17 0 28 -11t11 -27q0 -19 -15.5 -34.5t-34.5 -15.5q-16 0 -27 10.5t-11 26.5
q0 20 15.5 35.5t33.5 15.5zM216 632q16 0 25.5 -10t9.5 -26q0 -21 -13.5 -35.5t-33.5 -14.5q-18 0 -28 10t-10 26q0 20 15 35t35 15zM412 672l-129 -152h-51l111 170z" />
    <glyph glyph-name="alpha" unicode="&#x3b1;" horiz-adv-x="546" 
d="M275 394q-76 0 -121 -62q-44 -62 -44 -144q0 -65 29.5 -101.5t87.5 -36.5q73 0 121 58q49 58 49 148q0 62 -32 100t-90 38zM387 0l-7 62h-4q-68 -72 -168 -72q-87 0 -131 53q-43 52 -43 132q0 124 68 201q69 78 173 78q101 0 145 -78h5l26 69h49l-62 -445h-51z" />
    <glyph glyph-name="beta" unicode="&#x3b2;" horiz-adv-x="533" 
d="M321 724q75 0 119 -40.5t44 -106.5q0 -47 -26.5 -88.5t-72.5 -65.5v-5q47 -16 76 -61.5t29 -104.5q0 -104 -70 -183t-173 -79q-52 0 -90 21.5t-55 55.5h-4l-39 -281h-73l90 648q9 54 14 79q16 96 77.5 153.5t153.5 57.5zM313 662q-129 0 -154 -163l-13 -88l-14 -102
l-12 -87q-3 -18 -3 -36q0 -62 33 -98.5t93 -36.5q71 0 121 56q50 58 50 148q0 130 -167 130l9 58h30q37 0 63 13.5t38 34.5t17 39.5t5 36.5q0 44 -27 69.5t-69 25.5z" />
    <glyph glyph-name="gamma" unicode="&#x3b3;" horiz-adv-x="442" 
d="M115 445l84 -326h6l179 326h77l-234 -416l-35 -244h-74q5 36 34 241l-118 419h81z" />
    <glyph glyph-name="delta" unicode="&#x3b4;" horiz-adv-x="546" 
d="M345 724q84 0 148 -36l-9 -64q-61 40 -133 40q-56 0 -91 -24.5t-35 -68.5q0 -51 97 -95q35 -14 62 -28.5t56.5 -39t45 -61t15.5 -81.5q0 -114 -77 -196q-77 -80 -189 -80q-94 0 -147 52t-53 140q0 79 50 158q49 78 142 108v4q-36 17 -56.5 50.5t-20.5 74.5q0 63 55 105
t140 42zM245 51q78 0 129 61q52 61 52 143q0 116 -133 159q-87 -15 -135 -83q-47 -68 -47 -141q0 -64 35 -101.5t99 -37.5z" />
    <glyph glyph-name="epsilon" unicode="&#x3b5;" horiz-adv-x="403" 
d="M251 457q69 0 129 -29l-9 -66q-52 35 -126 35q-47 0 -78.5 -22t-31.5 -59q0 -45 69 -45h70l-8 -58h-56q-53 0 -82.5 -25.5t-29.5 -65.5q0 -73 108 -73q76 0 147 48l-9 -68q-72 -39 -156 -39q-81 0 -124 31t-43 83q0 38 25 77t72 56v4q-56 21 -56 75q0 59 53 100
q55 41 136 41z" />
    <glyph glyph-name="zeta" unicode="&#x3b6;" horiz-adv-x="387" 
d="M250 71l45 -21q76 -37 76 -81q0 -21 -32 -64q-31 -41 -78 -79l-49 23q79 82 79 110q0 12 -24 25q-40 19 -66 30q-88 37 -128.5 76.5t-40.5 98.5q0 86 97 210q98 125 251 248l-1 5h-258l8 59h395q0 -1 -0.5 -6t-0.5 -7q-182 -144 -299 -281q-117 -136 -117 -217
q-5 -35 39 -71q7 -7 63 -38z" />
    <glyph glyph-name="eta" unicode="&#x3b7;" horiz-adv-x="529" 
d="M462 263l-70 -478h-75l68 469q3 21 3 39q0 98 -87 98q-63 0 -107 -53.5t-57 -141.5l-29 -196h-75l62 445h56l3 -76h3q66 86 160 86q148 0 148 -150q0 -19 -3 -42z" />
    <glyph glyph-name="theta" unicode="&#x3b8;" horiz-adv-x="542" 
d="M510 364q-21 -163 -92 -268.5t-189 -105.5q-178 0 -178 249q0 126 31 232q32 109 97 180q67 73 157 73q89 0 135 -69t46 -192q0 -53 -7 -99zM327 660q-69 0 -117 -74q-48 -76 -67 -187h298q4 41 4 65q0 91 -30.5 143.5t-87.5 52.5zM435 340h-302q-6 -50 -6 -93
q0 -194 112 -194q78 0 127 79t69 208z" />
    <glyph glyph-name="iota" unicode="&#x3b9;" horiz-adv-x="223" 
d="M175 445l-62 -445h-74l62 445h74z" />
    <glyph glyph-name="kappa" unicode="&#x3ba;" horiz-adv-x="480" 
d="M390 444h91l-257 -209l216 -235h-99l-203 224l-31 -224h-74l62 444h74q-2 -16 -7.5 -53t-10.5 -75t-10 -75z" />
    <glyph glyph-name="lambda" unicode="&#x3bb;" horiz-adv-x="463" 
d="M341 0l-89 349h-4l-190 -349h-83l252 440l-68 272h75l184 -712h-77z" />
    <glyph glyph-name="nu" unicode="&#x3bd;" horiz-adv-x="454" 
d="M467 445l-277 -451h-12l-148 451h78l13 -44q7 -22 79 -266h5l183 310h79z" />
    <glyph glyph-name="xi" unicode="&#x3be;" horiz-adv-x="415" 
d="M324 724q86 0 144 -37l-8 -71q-62 47 -136 47q-70 0 -109 -41q-38 -41 -38 -90q0 -48 34.5 -72t91.5 -24h95l-8 -59h-102q-82 0 -125 -55q-43 -53 -43 -122q0 -41 39 -69.5t132 -62.5q53 -20 75.5 -39t22.5 -43q0 -51 -102 -153l-52 21q70 85 70 112t-73 49
q-97 30 -143.5 72t-46.5 104q0 66 37 125q37 61 110 90l1 2v3q-43 14 -65.5 46t-22.5 75q0 31 13 63.5t38 62t69.5 48t101.5 18.5z" />
    <glyph glyph-name="omicron" unicode="&#x3bf;" horiz-adv-x="526" 
d="M290 456q92 0 142.5 -53t50.5 -144q0 -115 -70 -192q-71 -78 -181 -78q-93 0 -145 53t-52 142q0 113 71 193q70 79 184 79zM286 393q-76 0 -125 -60q-48 -59 -48 -144q0 -64 32 -101t91 -37q75 0 125 59q49 59 49 143q0 62 -33.5 101t-90.5 39z" />
    <glyph glyph-name="pi" unicode="&#x3c0;" horiz-adv-x="530" 
d="M488 445l-62 -445h-75l53 380h-243l-53 -380h-75l62 445h393z" />
    <glyph glyph-name="rho" unicode="&#x3c1;" horiz-adv-x="534" 
d="M99 62l-40 -276h-72l58 414q7 47 25.5 90.5t48 81t75.5 60t102 22.5q94 0 144 -54q50 -55 50 -134q0 -123 -70 -199q-71 -77 -168 -77q-106 0 -148 73l-2 -1h-3zM291 393q-74 0 -124 -59q-49 -58 -49 -148q0 -62 32.5 -98.5t91.5 -36.5q80 0 126 58q47 59 47 145
q0 64 -32 101.5t-92 37.5z" />
    <glyph glyph-name="sigma1" unicode="&#x3c2;" horiz-adv-x="405" 
d="M295 457q66 0 109 -22l-7 -71q-40 31 -103 31q-78 0 -131 -52q-53 -51 -53 -143q0 -42 26 -72.5t86 -57.5q68 -32 93 -48t25 -39q0 -20 -24.5 -54t-74.5 -74l-51 20q62 65 65 84q0 5 -4 10t-13.5 10.5t-17.5 9.5t-25.5 12.5t-28.5 13.5q-70 33 -100.5 74.5t-30.5 101.5
q0 119 73 192q74 74 187 74z" />
    <glyph glyph-name="sigma" unicode="&#x3c3;" horiz-adv-x="546" 
d="M290 445h255l-9 -61q-23 1 -104 1l-2 -4q55 -49 55 -136q0 -106 -73 -180q-72 -75 -178 -75q-92 0 -144 51.5t-52 136.5q0 111 73 188q73 79 179 79zM282 384q-75 0 -121 -58q-47 -59 -47 -139q0 -62 34.5 -99t94.5 -37q70 0 120 59t50 138q0 60 -35 97.5t-96 38.5z" />
    <glyph glyph-name="tau" unicode="&#x3c4;" horiz-adv-x="365" 
d="M32 385l8 60h329l-8 -60h-144l-36 -248q-2 -24 -2 -26q0 -55 54 -55q41 0 84 27l-9 -63q-44 -29 -99 -29h-6q-99 1 -99 99q0 2 2 34q4 46 18 135t18 126h-110z" />
    <glyph glyph-name="upsilon" unicode="&#x3c5;" horiz-adv-x="515" 
d="M365 192l36 253h75l-35 -249q-14 -98 -72 -152t-148 -54q-81 0 -124 42.5t-43 121.5q0 22 3 46l35 245h72l-36 -253q-3 -18 -3 -33q0 -50 26 -78t77 -28q118 0 137 139z" />
    <glyph glyph-name="phi" unicode="&#x3c6;" horiz-adv-x="676" 
d="M393 395l-49 -344q95 6 154 63q59 59 59 137q0 65 -41 103.5t-123 40.5zM330 454h74q104 0 164 -51t60 -140q0 -109 -80 -186t-211 -84l-30 -211h-72l31 211q-109 3 -168 58q-59 56 -59 139q0 90 57 161q57 70 145 91l32 -48q-74 -18 -117.5 -72t-43.5 -124
q0 -62 44 -103.5t118 -43.5z" />
    <glyph glyph-name="chi" unicode="&#x3c7;" horiz-adv-x="451" 
d="M404 0h-81l-108 214l-163 -214h-86l182 228l-111 217h78l104 -202l153 202h86l-174 -216z" />
    <glyph glyph-name="psi" unicode="&#x3c8;" horiz-adv-x="636" 
d="M287 -218h-72l29 208q-89 2 -138 51t-49 131q0 19 2 35l33 238h71l-32 -232q-2 -12 -2 -27q0 -57 33 -94t91 -39l55 392h72l-55 -392q71 2 113.5 45t54.5 119l16 115l15 113h74l-33 -231q0 -2 -1 -4v-3q-16 -95 -82 -154t-166 -63z" />
    <glyph glyph-name="omega" unicode="&#x3c9;" horiz-adv-x="738" 
d="M340 305h70q-2 -9 -20 -139q-2 -18 -2 -20q0 -42 22 -68t64 -26q60 0 100 60q41 61 41 143q0 62 -30 100.5t-83 42.5l28 57q79 -4 119.5 -56.5t40.5 -138.5q0 -47 -14 -93t-40.5 -86t-70 -65t-97.5 -25q-45 0 -79 21.5t-46 57.5h-4q-66 -79 -154 -79q-73 0 -111 46.5
t-38 127.5q0 115 62 200q61 84 165 89l16 -56q-77 -5 -122 -70q-44 -65 -44 -155q0 -56 23 -88t65 -32q49 0 80 32.5t40 84.5q5 30 19 135z" />
    <glyph glyph-name="iotadieresis" unicode="&#x3ca;" horiz-adv-x="223" 
d="M86 632q16 0 25.5 -10t9.5 -26q0 -21 -13.5 -35.5t-33.5 -14.5q-18 0 -28 10t-10 26q0 20 15 35t35 15zM248 632q16 0 26 -10t10 -26q0 -21 -14 -35.5t-34 -14.5q-17 0 -27 10t-10 25q0 20 15 35.5t34 15.5zM175 445l-62 -445h-74l62 445h74z" />
    <glyph glyph-name="upsilondieresis" unicode="&#x3cb;" horiz-adv-x="515" 
d="M365 192l36 253h75l-35 -249q-14 -98 -72 -152t-148 -54q-81 0 -124 42.5t-43 121.5q0 22 3 46l35 245h72l-36 -253q-3 -18 -3 -33q0 -50 26 -78t77 -28q118 0 137 139zM226 632q16 0 25.5 -10t9.5 -26q0 -21 -13.5 -35.5t-33.5 -14.5q-18 0 -28 10t-10 26q0 20 15 35
t35 15zM388 632q16 0 26 -10t10 -26q0 -21 -14 -35.5t-34 -14.5q-17 0 -27 10t-10 25q0 20 15 35.5t34 15.5z" />
    <glyph glyph-name="omicrontonos" unicode="&#x3cc;" horiz-adv-x="526" 
d="M290 456q92 0 142.5 -53t50.5 -144q0 -115 -70 -192q-71 -78 -181 -78q-93 0 -145 53t-52 142q0 113 71 193q70 79 184 79zM286 393q-76 0 -125 -60q-48 -59 -48 -144q0 -64 32 -101t91 -37q75 0 125 59q49 59 49 143q0 62 -33.5 101t-90.5 39zM469 663l-141 -134h-53
l127 158z" />
    <glyph glyph-name="upsilontonos" unicode="&#x3cd;" horiz-adv-x="515" 
d="M365 192l36 253h75l-35 -249q-14 -98 -72 -152t-148 -54q-81 0 -124 42.5t-43 121.5q0 22 3 46l35 245h72l-36 -253q-3 -18 -3 -33q0 -50 26 -78t77 -28q118 0 137 139zM439 663l-141 -134h-53l127 158z" />
    <glyph glyph-name="omegatonos" unicode="&#x3ce;" horiz-adv-x="738" 
d="M340 305h70q-2 -9 -20 -139q-2 -18 -2 -20q0 -42 22 -68t64 -26q60 0 100 60q41 61 41 143q0 62 -30 100.5t-83 42.5l28 57q79 -4 119.5 -56.5t40.5 -138.5q0 -47 -14 -93t-40.5 -86t-70 -65t-97.5 -25q-45 0 -79 21.5t-46 57.5h-4q-66 -79 -154 -79q-73 0 -111 46.5
t-38 127.5q0 115 62 200q61 84 165 89l16 -56q-77 -5 -122 -70q-44 -65 -44 -155q0 -56 23 -88t65 -32q49 0 80 32.5t40 84.5q5 30 19 135zM547 662l-141 -134h-53l127 158z" />
    <glyph glyph-name="afii10023" unicode="&#x401;" horiz-adv-x="547" 
d="M132 68h359l-9 -68h-439l93 661h413l-10 -67h-333l-30 -213h308l-9 -66h-309q-31 -229 -34 -247zM282 838q16 0 26 -10.5t10 -26.5q0 -21 -14.5 -35.5t-33.5 -14.5q-17 0 -28 10t-11 26q0 20 15.5 35.5t35.5 15.5zM444 838q17 0 27 -10.5t10 -26.5q0 -21 -14 -35.5
t-34 -14.5q-18 0 -28 10t-10 26q0 20 15 35.5t34 15.5z" />
    <glyph glyph-name="afii10051" unicode="&#x402;" horiz-adv-x="774" 
d="M584 662l-11 -68h-225l-30 -216q96 38 181 38q104 0 161.5 -55.5t57.5 -147.5q0 -108 -65 -202q-65 -92 -160 -132l-50 41q95 43 143.5 117.5t48.5 160.5q0 70 -41.5 112t-120.5 42t-163 -34l-45 -318h-79l83 594h-207l10 68h512z" />
    <glyph glyph-name="afii10052" unicode="&#x403;" horiz-adv-x="510" 
d="M542 594h-337l-83 -594h-79l93 661h416zM478 844l-146 -115h-58l134 139z" />
    <glyph glyph-name="afii10053" unicode="&#x404;" horiz-adv-x="601" 
d="M553 110q-7 -58 -10 -74q-79 -45 -197 -45q-140 0 -215 77q-74 77 -74 203q0 175 114 288q115 114 276 114q102 0 158 -32l-7 -72q-68 35 -152 35q-100 0 -180 -61q-82 -61 -110 -163h328q0 -2 -9 -64h-333q-2 -18 -2 -39q0 -101 58.5 -159.5t167.5 -58.5q95 0 187 51z
" />
    <glyph glyph-name="afii10054" unicode="&#x405;" horiz-adv-x="487" 
d="M4 43l5 39l5 40q82 -65 182 -65q74 0 121 34.5t47 96.5q0 75 -101 124q-8 4 -35 17t-37.5 19t-32.5 19.5t-32.5 24t-23.5 26t-18 32.5t-5 37q0 91 67 137q67 48 155 48q97 0 165 -41l-11 -77q-66 51 -153 51q-54 0 -98 -27q-43 -27 -43 -84q0 -52 101 -101
q40 -18 64.5 -32t56 -38t47.5 -55.5t16 -69.5q0 -103 -71 -156q-70 -52 -180 -52q-117 0 -191 53z" />
    <glyph glyph-name="afii10055" unicode="&#x406;" horiz-adv-x="254" 
d="M224 661l-93 -661h-79l93 661h79z" />
    <glyph glyph-name="afii10056" unicode="&#x407;" horiz-adv-x="254" 
d="M120 838q16 0 26 -10.5t10 -26.5q0 -21 -14.5 -35.5t-33.5 -14.5q-17 0 -28 10t-11 26q0 20 15.5 35.5t35.5 15.5zM282 838q17 0 27 -10.5t10 -26.5q0 -21 -14 -35.5t-34 -14.5q-18 0 -28 10t-10 26q0 20 15 35.5t34 15.5zM224 661l-93 -661h-79l93 661h79z" />
    <glyph glyph-name="afii10057" unicode="&#x408;" horiz-adv-x="448" 
d="M114 60q81 0 121 45.5t53 136.5l60 419h78l-24 -164q-22 -162 -25 -186l-11 -73q-14 -81 -38 -127q-59 -122 -210 -121q-30 0 -75 8q-40 7 -64 22l10 78q22 -17 58 -27.5t67 -10.5z" />
    <glyph glyph-name="afii10058" unicode="&#x409;" horiz-adv-x="1006" 
d="M511 598h-216l-84 -351q-17 -69 -23 -87q-12 -35 -27 -67q-23 -49 -57.5 -73t-99.5 -38l-30 60q73 15 104 52q30 36 52 124l103 443h367l-35 -257h180q101 0 154.5 -47.5t53.5 -129.5q0 -109 -71 -168t-170 -59h-285zM740 338h-184l-39 -271h197q67 0 113 40
q47 41 47 117q0 54 -36.5 84t-97.5 30z" />
    <glyph glyph-name="afii10059" unicode="&#x40a;" horiz-adv-x="1025" 
d="M732 0h-284l45 330h-325l-46 -330h-78l93 662h78l-37 -267h325l38 267h80l-37 -267h180q102 0 155.5 -46t53.5 -127q0 -105 -71 -164q-70 -58 -170 -58zM759 330h-185l-37 -263h197q67 0 113 37q47 38 47 115q0 53 -37 82t-98 29z" />
    <glyph glyph-name="afii10060" unicode="&#x40b;" horiz-adv-x="768" 
d="M583 662l-10 -68h-225l-30 -221q98 34 193 34q102 0 146.5 -49.5t31.5 -139.5l-30 -218h-80l28 197q10 72 -20 108t-111 36q-85 0 -167 -32l-44 -309h-79l83 594h-207l10 68h511z" />
    <glyph glyph-name="afii10061" unicode="&#x40c;" horiz-adv-x="583" 
d="M137 662h78l-44 -312l342 312h91l-344 -318l279 -344h-101l-269 336l-47 -336h-78zM497 846l-146 -115h-58l134 139z" />
    <glyph glyph-name="afii10062" unicode="&#x40e;" horiz-adv-x="569" 
d="M199 131l23 43l-187 486h84l148 -410l240 410h80l-335 -570q-33 -56 -69.5 -78.5t-86.5 -22.5q-58 0 -106 23l11 70q48 -30 95 -30q61 0 103 79zM424 861h51q-12 -61 -52 -101t-100 -40q-53 0 -82 33.5t-29 88.5q0 15 1 19h51q-1 -3 -1 -16q0 -36 17.5 -57t48.5 -21
q71 0 95 94z" />
    <glyph glyph-name="afii10145" unicode="&#x40f;" horiz-adv-x="668" 
d="M485 67l83 594h79l-93 -661h-214l-23 -160h-77l23 160h-220l93 661h79l-84 -594h354z" />
    <glyph glyph-name="afii10017" unicode="&#x410;" horiz-adv-x="611" 
d="M562 0h-77l-38 148h-306l-80 -148h-82l379 667h15zM348 516h-4l-170 -308h257z" />
    <glyph glyph-name="afii10018" unicode="&#x411;" horiz-adv-x="621" 
d="M328 0h-285l93 661h420q-1 -7 -4.5 -32t-5.5 -33h-339l-27 -193h184q102 0 153 -48.5t51 -134.5q0 -100 -70 -160t-170 -60zM357 338h-186l-38 -271h198q69 0 114 41t45 115q0 54 -37 84.5t-96 30.5z" />
    <glyph glyph-name="afii10019" unicode="&#x412;" horiz-adv-x="600" 
d="M327 321h-161l-36 -253h170q46 0 79.5 15t50 38.5t24 46.5t7.5 46q0 49 -35.5 78t-98.5 29zM366 595h-162l-12 -89q-11 -81 -18 -122h155q20 0 41.5 5.5t44.5 18.5t37.5 39.5t14.5 62.5q0 39 -26.5 62t-74.5 23zM440 361v-4q100 -31 100 -142q0 -95 -67 -155
q-66 -60 -163 -60h-267l93 661h242q80 0 124 -36t44 -106q0 -51 -27.5 -92.5t-78.5 -65.5z" />
    <glyph glyph-name="afii10020" unicode="&#x413;" horiz-adv-x="510" 
d="M542 594h-337l-83 -594h-79l93 661h416z" />
    <glyph glyph-name="afii10021" unicode="&#x414;" horiz-adv-x="781" 
d="M294 660h419l-83 -593h89l-32 -225h-75l23 158h-587l-22 -158h-73l15 112l16 113h80q66 59 103 149q35 85 77 253zM623 596h-273l-44 -170q-38 -146 -70 -222q-30 -76 -85 -137h399z" />
    <glyph glyph-name="afii10022" unicode="&#x415;" horiz-adv-x="547" 
d="M132 68h359l-9 -68h-439l93 661h413l-10 -67h-333l-30 -213h308l-9 -66h-309q-31 -229 -34 -247z" />
    <glyph glyph-name="afii10024" unicode="&#x416;" horiz-adv-x="908" 
d="M184 661l243 -311l45 311h78l-44 -311l332 311h93l-344 -321l278 -340h-101l-260 336l-47 -336h-78l46 336l-352 -336h-100l369 347l-250 314h92z" />
    <glyph glyph-name="afii10025" unicode="&#x417;" horiz-adv-x="562" 
d="M192 -10q-49 0 -106 12t-91 34q1 8 4.5 37t5.5 37q82 -52 184 -52q110 0 173 44t63 116q0 50 -44.5 78.5t-117.5 28.5h-78q0 6 3.5 30t4.5 32h76q81 0 127 37q47 38 47 86q0 44 -40.5 69t-107.5 25q-41 0 -99 -12q-56 -10 -103 -32q7 58 10 73q97 41 209 41
q101 -1 158 -38.5t57 -105.5q0 -50 -34 -99t-98 -68q0 -2 -1 -3v-1q51 -12 80.5 -50t29.5 -89q0 -100 -84 -165q-85 -65 -228 -65z" />
    <glyph glyph-name="afii10026" unicode="&#x418;" horiz-adv-x="708" 
d="M686 669l-94 -669h-76l69 496h-3l-525 -501h-15l94 666h77l-69 -494h4l524 502h14z" />
    <glyph glyph-name="afii10027" unicode="&#x419;" horiz-adv-x="708" 
d="M686 669l-94 -669h-76l69 496h-3l-525 -501h-15l94 666h77l-69 -494h4l524 502h14zM524 864h51q-10 -58 -51 -100q-39 -42 -101 -42q-53 0 -82 34t-29 89q0 15 1 19h51q-1 -3 -1 -16q0 -36 17.5 -57t48.5 -21q71 0 95 94z" />
    <glyph glyph-name="afii10028" unicode="&#x41a;" horiz-adv-x="583" 
d="M137 662h78l-44 -312l342 312h91l-344 -318l279 -344h-101l-269 336l-47 -336h-78z" />
    <glyph glyph-name="afii10029" unicode="&#x41b;" horiz-adv-x="631" 
d="M437 0l83 598h-225l-87 -361q-32 -128 -73 -184q-41 -57 -133 -71l-27 58q73 16 103 54q32 38 51 124l104 442h376l-92 -660h-80z" />
    <glyph glyph-name="afii10030" unicode="&#x41c;" horiz-adv-x="798" 
d="M672 477l-281 -329h-15l-189 338l-2 -3l-67 -483h-75l94 668h16l242 -423l366 423h15l-93 -668h-75l66 475z" />
    <glyph glyph-name="afii10031" unicode="&#x41d;" horiz-adv-x="660" 
d="M638 661l-93 -661h-77l43 314h-346l-43 -314h-79l93 661h79l-40 -279h345l40 279h78z" />
    <glyph glyph-name="afii10032" unicode="&#x41e;" horiz-adv-x="756" 
d="M433 671q133 0 208 -81q76 -79 76 -210q0 -164 -109 -276q-108 -112 -263 -112q-133 0 -209 79t-76 206q0 162 108 278q110 116 265 116zM428 602q-119 0 -203 -95q-83 -95 -83 -226q0 -98 55 -160q56 -62 151 -62q122 0 205 92t83 226q0 97 -56 161q-55 64 -152 64z" />
    <glyph glyph-name="afii10033" unicode="&#x41f;" horiz-adv-x="666" 
d="M643 661l-92 -661h-79l83 594h-350l-83 -594h-79l93 661h507z" />
    <glyph glyph-name="afii10034" unicode="&#x420;" horiz-adv-x="560" 
d="M122 0h-80l92 660h222q98 0 149.5 -52t51.5 -138q0 -110 -78 -176q-79 -65 -184 -65h-142zM326 597h-121l-43 -305h127q93 0 140 54q47 55 47 124q0 59 -36.5 93t-113.5 34z" />
    <glyph glyph-name="afii10035" unicode="&#x421;" horiz-adv-x="601" 
d="M554 110l-10 -74q-82 -46 -197 -46q-140 0 -215 76q-74 77 -74 203q0 179 114 291q115 113 274 113q102 0 160 -32l-6 -74q-65 37 -153 37q-125 0 -216 -90q-92 -90 -92 -237q0 -102 59.5 -160t167.5 -58q92 0 188 51z" />
    <glyph glyph-name="afii10036" unicode="&#x422;" horiz-adv-x="521" 
d="M564 662l-10 -68h-206l-83 -594h-79l83 594h-207l10 68h492z" />
    <glyph glyph-name="afii10037" unicode="&#x423;" horiz-adv-x="569" 
d="M229 131l23 43l-187 486h84l148 -410l240 410h80l-335 -570q-33 -56 -69.5 -78.5t-86.5 -22.5q-58 0 -106 23l11 70q48 -30 95 -30q61 0 103 79z" />
    <glyph glyph-name="afii10038" unicode="&#x424;" horiz-adv-x="817" 
d="M334 0l9 66q-126 4 -205 70q-78 64 -78 168q0 130 106 218t254 96l7 43h78l-7 -43q130 -9 206 -74q76 -64 76 -167q0 -129 -101 -215q-100 -85 -259 -96l-8 -66h-78zM489 553l-59 -421q117 6 196 73t79 166q0 78 -59.5 127.5t-156.5 54.5zM352 132l59 421
q-119 -7 -195 -75q-76 -66 -76 -166q0 -77 55.5 -124.5t156.5 -55.5z" />
    <glyph glyph-name="afii10039" unicode="&#x425;" horiz-adv-x="609" 
d="M564 0h-93l-156 329l-245 -329h-96l268 345l-160 316h83l152 -302l233 302h90l-249 -319z" />
    <glyph glyph-name="afii10040" unicode="&#x426;" horiz-adv-x="691" 
d="M647 661l-84 -594h92l-32 -225h-75l23 158h-528l93 661h79l-84 -594h354l83 594h79z" />
    <glyph glyph-name="afii10041" unicode="&#x427;" horiz-adv-x="627" 
d="M512 0h-80l42 308q-96 -33 -188 -33q-94 0 -143.5 41.5t-49.5 116.5q0 18 2 32l28 196h79l-26 -179q-2 -14 -2 -31q0 -112 144 -112q85 0 166 32l41 290h80z" />
    <glyph glyph-name="afii10042" unicode="&#x428;" horiz-adv-x="931" 
d="M832 662h78l-92 -662h-774l93 662h78l-83 -595h266l84 595h81l-84 -595h269z" />
    <glyph glyph-name="afii10043" unicode="&#x429;" horiz-adv-x="955" 
d="M131 67h267l84 594h80l-84 -594h270l83 594h79l-84 -594h92l-32 -225h-75l23 158h-791l93 661h79z" />
    <glyph glyph-name="afii10044" unicode="&#x42a;" horiz-adv-x="821" 
d="M416 661l-37 -258h185q100 0 152 -47.5t52 -131.5q0 -102 -71 -164q-70 -60 -169 -60h-285l83 595h-269q7 52 10 66h349zM556 338h-185l-39 -272h198q66 0 112 40q47 41 47 118q0 54 -36.5 84t-96.5 30z" />
    <glyph glyph-name="afii10045" unicode="&#x42b;" horiz-adv-x="822" 
d="M328 0h-285l93 661h80q-4 -32 -20 -143l-16 -115h184q101 0 152.5 -47t51.5 -131q0 -103 -71 -165q-71 -60 -169 -60zM357 338h-186l-39 -272h199q66 0 112 40q47 41 47 117q0 54 -37 84.5t-96 30.5zM800 661l-93 -661h-79l93 661h79z" />
    <glyph glyph-name="afii10046" unicode="&#x42c;" horiz-adv-x="621" 
d="M329 0h-285l93 662h80l-37 -258h185q100 0 152 -47t52 -128q0 -106 -71 -168q-70 -61 -169 -61zM357 338h-186l-38 -271h198q67 0 113 40q47 41 47 117q0 54 -36.5 84t-97.5 30z" />
    <glyph glyph-name="afii10047" unicode="&#x42d;" horiz-adv-x="601" 
d="M-4 36q0 4 9 74q83 -51 176 -51q124 0 200 73q78 75 94 184h-334q9 61 9 64h331q5 102 -53 163t-165 61q-90 0 -168 -35q1 8 5 36.5t5 36.5q61 31 177 31q138 0 209.5 -77.5t71.5 -212.5q0 -74 -25 -143.5t-71.5 -125.5t-121.5 -89.5t-166 -33.5q-119 0 -183 45z" />
    <glyph glyph-name="afii10048" unicode="&#x42e;" horiz-adv-x="1015" 
d="M167 310l-43 -310h-81l92 660h81l-40 -287h159q30 130 130 213q100 85 233 85q132 0 205 -81q74 -80 74 -208q0 -167 -109 -279q-108 -112 -267 -112q-129 0 -204 79q-75 80 -75 204q0 18 3 36h-158zM688 601q-121 0 -204 -95q-82 -94 -82 -224q0 -97 56 -162
q56 -63 153 -63q124 0 204 95q80 97 80 228q0 98 -54 159q-54 62 -153 62z" />
    <glyph glyph-name="afii10049" unicode="&#x42f;" horiz-adv-x="590" 
d="M84 0h-97l255 254q-73 14 -116 63.5t-43 114.5q0 75 40 127q77 101 214 101h231l-92 -660h-79l83 595h-141q-73 0 -125 -46q-52 -45 -52 -120q0 -59 49 -97t143 -42l-2 -13z" />
    <glyph glyph-name="afii10065" unicode="&#x430;" horiz-adv-x="546" 
d="M275 394q-76 0 -121 -62q-44 -62 -44 -144q0 -65 29.5 -101.5t87.5 -36.5q73 0 121 58q49 58 49 148q0 62 -32 100t-90 38zM387 0l-7 62h-4q-68 -72 -168 -72q-87 0 -131 53q-43 52 -43 132q0 124 68 201q69 78 173 78q101 0 145 -78h5l26 69h49l-62 -445h-51z" />
    <glyph glyph-name="afii10066" unicode="&#x431;" horiz-adv-x="527" 
d="M307 452q84 0 130.5 -50.5t46.5 -134.5q0 -72 -28 -132q-29 -65 -89 -105t-138 -40q-97 0 -145 51t-48 140q0 197 57 336q50 123 145 164q86 40 236 47l24 -58q-109 -6 -168 -22q-59 -14 -98 -46.5t-70 -93.5q-33 -72 -44 -158l2 -2q26 49 78 76.5t109 27.5zM113 187
q0 -136 121 -136q78 0 128 62t50 143q0 61 -32.5 98t-90.5 37q-77 0 -127 -60q-49 -59 -49 -144z" />
    <glyph glyph-name="afii10067" unicode="&#x432;" horiz-adv-x="489" 
d="M272 455q79 0 119 -32t40 -78q0 -28 -16.5 -54.5t-46.5 -38.5v-2l-1 -2q38 -9 58.5 -33t20.5 -55q0 -69 -58 -120q-58 -50 -168 -50q-92 0 -140.5 41.5t-48.5 121.5q0 17 5 52l13 74q14 77 73 126q61 50 150 50zM290 222h-74l9 49h62q32 0 53 17t21 40q0 32 -23 51.5
t-70 19.5q-62 0 -99 -34.5t-47 -96.5l-14 -76q-4 -17 -4 -41q0 -49 31 -76t90 -27q73 0 110 34q39 34 39 75q0 29 -20.5 47t-63.5 18z" />
    <glyph glyph-name="afii10068" unicode="&#x433;" horiz-adv-x="368" 
d="M318 96l-9 -68q-67 -37 -155 -37q-70 0 -108.5 28.5t-38.5 81.5q0 42 25.5 75.5t67.5 53.5q16 8 46 20.5t48 21.5t38 21t29.5 25.5t9.5 28.5q0 50 -78 50q-70 0 -137 -37l9 65q67 30 149 30q59 0 95 -25.5t36 -72.5q0 -40 -26 -72t-68 -51q-11 -5 -38 -17t-40.5 -18.5
t-34.5 -18.5t-31.5 -22t-18.5 -24.5t-8 -29.5q0 -57 91 -57q74 0 147 49z" />
    <glyph glyph-name="afii10069" unicode="&#x434;" horiz-adv-x="536" 
d="M430 360l4 1q2 39 1 47q-2 124 -63.5 194.5t-181.5 70.5q-4 0 -52 -2l38 56q4 0 15 0.5t14 0.5q297 0 297 -333q0 -161 -60 -277q-31 -60 -86 -94t-128 -34q-96 0 -145 55q-48 55 -48 138q0 114 69 192q70 79 175 79q53 0 95 -24t56 -70zM286 393q-77 -2 -125 -60
q-48 -59 -48 -144q0 -64 32 -101t91 -37q78 0 126 59q48 58 48 143q0 62 -33.5 101t-90.5 39z" />
    <glyph glyph-name="afii10070" unicode="&#x435;" horiz-adv-x="467" 
d="M283 455q71 0 112.5 -35t41.5 -90q0 -64 -66.5 -103t-189.5 -39q-45 0 -69 3v-3q-6 -66 26.5 -102.5t96.5 -36.5q97 0 173 60l-11 -69q-79 -50 -173 -50q-92 0 -141 50.5t-49 139.5q0 116 70 195q71 80 179 80zM279 393q-61 0 -104.5 -41t-57.5 -110q32 -5 71 -5
q84 0 129 25t45 63q0 29 -21.5 48.5t-61.5 19.5z" />
    <glyph glyph-name="afii10072" unicode="&#x436;" horiz-adv-x="737" 
d="M-30 0l278 235l-196 210h90l187 -203l29 203h74q-20 -151 -28 -203l244 203h90l-254 -214l212 -231h-96l-199 223l-31 -223h-74l30 223l-260 -223h-96z" />
    <glyph glyph-name="afii10073" unicode="&#x437;" horiz-adv-x="406" 
d="M128 -10q-85 0 -135 29l6 65q18 -15 59 -26q40 -9 73 -9q71 0 108 28.5t37 71.5q0 60 -100 60h-62q6 55 7 57h56q53 0 84 20t31 51q0 26 -25 41.5t-74 15.5q-77 0 -135 -29q2 7 5.5 32t4.5 32q61 26 144 26q154 -2 154 -100q0 -80 -92 -113q37 -9 56.5 -34t19.5 -57
q0 -71 -61 -116q-60 -45 -161 -45z" />
    <glyph glyph-name="afii10074" unicode="&#x438;" horiz-adv-x="517" 
d="M69 175l38 270h74l-35 -255q-3 -21 -3 -38q0 -99 88 -99q57 0 98 52t53 136l30 204h75l-62 -445h-59v68h-4q-62 -77 -149 -77q-83 0 -119.5 49t-24.5 135z" />
    <glyph glyph-name="afii10075" unicode="&#x439;" horiz-adv-x="517" 
d="M69 175l38 270h74l-35 -255q-3 -21 -3 -38q0 -99 88 -99q57 0 98 52t53 136l30 204h75l-62 -445h-59v68h-4q-62 -77 -149 -77q-83 0 -119.5 49t-24.5 135zM404 664h51q-10 -58 -51 -100q-39 -42 -101 -42q-53 0 -82 34t-29 89q0 15 1 19h51q-1 -3 -1 -16q0 -36 17.5 -57
t48.5 -21q71 0 95 94z" />
    <glyph glyph-name="afii10076" unicode="&#x43a;" horiz-adv-x="480" 
d="M391 444h90l-260 -215l219 -229h-97l-205 224l-31 -224h-74l62 444h74q-2 -16 -7.5 -53t-10.5 -75t-10 -75z" />
    <glyph glyph-name="afii10077" unicode="&#x43b;" horiz-adv-x="488" 
d="M364 386h-154q0 -2 -5 -21t-15.5 -63t-22.5 -94q-29 -116 -60 -164q-32 -47 -107 -59l-25 58q57 11 79 43q23 34 43 115l57 243h292l-62 -444h-74z" />
    <glyph glyph-name="afii10078" unicode="&#x43c;" horiz-adv-x="655" 
d="M520 288l-203 -206h-17l-154 215l-51 -297h-73l80 450h14l198 -280l278 280h15l-47 -450h-72z" />
    <glyph glyph-name="afii10079" unicode="&#x43d;" horiz-adv-x="529" 
d="M487 445l-62 -445h-74l14 102l14 102h-244q-21 -158 -28 -204h-74l62 445h74l-26 -188h244q1 10 5.5 41.5t9.5 69.5t11 77h74z" />
    <glyph glyph-name="afii10080" unicode="&#x43e;" horiz-adv-x="526" 
d="M290 456q92 0 142.5 -53t50.5 -144q0 -115 -70 -192q-71 -78 -181 -78q-93 0 -145 53t-52 142q0 113 71 193q70 79 184 79zM286 393q-76 0 -125 -60q-48 -59 -48 -144q0 -64 32 -101t91 -37q75 0 125 59q49 59 49 143q0 62 -33.5 101t-90.5 39z" />
    <glyph glyph-name="afii10081" unicode="&#x43f;" horiz-adv-x="529" 
d="M462 263l-37 -263h-75l35 254q3 21 3 39q0 98 -87 98q-63 0 -107 -53.5t-57 -141.5l-29 -196h-75l62 445h56l3 -76h3q66 86 160 86q148 0 148 -150q0 -19 -3 -42z" />
    <glyph glyph-name="afii10082" unicode="&#x440;" horiz-adv-x="536" 
d="M138 445l3 -65l3 -2q60 76 170 76q87 0 132 -55q46 -53 46 -132q0 -125 -70 -201q-69 -76 -167 -76q-107 0 -149 74h-2q-2 -1 -3 -1l-41 -278h-72l92 660h58zM294 393q-74 0 -124 -59q-49 -58 -49 -148q0 -61 32.5 -98.5t91.5 -37.5q79 0 125 58q47 59 47 145
q0 65 -32 102.5t-91 37.5z" />
    <glyph glyph-name="afii10083" unicode="&#x441;" horiz-adv-x="419" 
d="M371 85q-2 -7 -5.5 -33t-4.5 -33q-53 -29 -137 -29q-91 0 -140.5 54.5t-49.5 143.5q0 120 75 193q75 75 186 75q66 0 108 -21q-2 -8 -5.5 -33.5t-4.5 -33.5q-35 25 -96 25q-83 0 -134 -57t-51 -154q0 -58 36 -94t100 -36q68 0 123 33z" />
    <glyph glyph-name="afii10084" unicode="&#x442;" horiz-adv-x="803" 
d="M150 444l4 -69l3 -2q66 83 153 83q50 0 83.5 -23.5t44.5 -65.5q32 43 74.5 66t84.5 23q143 0 143 -138q0 -18 -3 -39l-39 -279h-74l38 269l2 32q0 91 -85 91q-54 0 -93.5 -41.5t-50.5 -121.5l-32 -229h-74q12 76 37 268q2 16 2 33q0 90 -77 90q-40 0 -76 -28.5t-57 -78.5
q-14 -35 -23 -77q-9 -54 -17 -118q-2 -22 -4.5 -41.5t-4 -33t-1.5 -14.5h-75l62 444h55z" />
    <glyph glyph-name="afii10085" unicode="&#x443;" horiz-adv-x="435" 
d="M103 445l84 -351h5l183 351h78l-358 -660h-75l124 229l-119 431h78z" />
    <glyph glyph-name="afii10086" unicode="&#x444;" horiz-adv-x="672" 
d="M326 453l35 258h73l-36 -257q109 -5 170 -57.5t61 -139.5q0 -114 -85 -190q-83 -76 -211 -79l-28 -203h-73l29 203q-106 3 -168 57t-62 142q0 112 82 185q83 74 213 81zM391 395l-49 -349q84 4 149 60q65 57 65 143q0 64 -44 103.5t-121 42.5zM269 46l49 348
q-84 -3 -148 -58q-63 -56 -63 -142q0 -64 44 -105t118 -43z" />
    <glyph glyph-name="afii10087" unicode="&#x445;" horiz-adv-x="451" 
d="M404 0h-81l-108 214l-163 -214h-86l182 228l-111 217h78l104 -202l153 202h86l-174 -216z" />
    <glyph glyph-name="afii10088" unicode="&#x446;" horiz-adv-x="548" 
d="M190 -10q-66 0 -101 36.5t-35 105.5q0 20 3 43l38 270h74l-35 -255q-3 -21 -3 -39q0 -98 88 -98q57 0 98 52t53 136l30 204h75l-52 -385q92 13 97 15l6 -9l-53 -210h-70l40 150q-1 0 -2 -0.5t-2 -0.5q-2 0 -3 1l-85 -14l-9 7l11 78l-4 2q-62 -89 -159 -89z" />
    <glyph glyph-name="afii10089" unicode="&#x447;" horiz-adv-x="507" 
d="M413 0h-76l32 226q-1 1 -2 1q-30 -39 -77.5 -63.5t-90.5 -24.5q-75 0 -106.5 43.5t-19.5 121.5l20 141h74l-16 -120q-17 -122 73 -122q51 0 101 40t64 131l10 71h75z" />
    <glyph glyph-name="afii10090" unicode="&#x448;" horiz-adv-x="802" 
d="M643 0l-5 70l-3 1q-64 -82 -152 -82q-105 0 -129 87q-31 -43 -73.5 -65t-85.5 -22q-142 0 -142 136q0 19 3 40l12 88l27 192h73q-10 -77 -23 -171.5t-14 -99.5q-3 -16 -3 -30q0 -93 86 -93q53 0 92 41.5t51 122.5l32 230h75l-38 -270q-2 -14 -2 -30q0 -44 21 -69t60 -25
q53 0 95 49q43 49 55 131l30 214h74l-62 -445h-54z" />
    <glyph glyph-name="afii10091" unicode="&#x449;" horiz-adv-x="832" 
d="M485 -11q-52 0 -86 23t-45 64q-31 -43 -73.5 -65t-85.5 -22q-142 0 -142 136q0 19 3 40l12 88l27 192h73q-10 -77 -23 -171.5t-14 -99.5q-3 -18 -3 -33q0 -43 22 -66.5t64 -23.5q53 0 92 41.5t51 122.5l32 230h75l-38 -270q-2 -14 -2 -30q0 -44 21 -69t60 -25
q58 0 97 52.5t52 142.5l30 199h74l-51 -385q72 12 96 15l7 -9l-17 -66l-20 -78l-17 -66h-69l40 150q-2 0 -3 -1h-1q-2 0 -3 1l-84 -14l-9 7l10 78l-3 2q-58 -90 -149 -90z" />
    <glyph glyph-name="afii10092" unicode="&#x44a;" horiz-adv-x="627" 
d="M214 385h-194q7 48 8 60h271l-20 -141h150q78 0 119 -35t41 -90q0 -77 -60 -134q-61 -56 -168 -56q-85 0 -130 42t-45 121q0 32 10 102zM409 250h-137q-1 -10 -6.5 -51.5t-5.5 -55.5q0 -96 116 -96q67 0 103 37q36 38 36 82q0 40 -27 62t-79 22z" />
    <glyph glyph-name="afii10093" unicode="&#x44b;" horiz-adv-x="666" 
d="M131 304h150q78 0 119 -35t41 -90q0 -77 -60 -134q-61 -56 -168 -56q-86 0 -130.5 42t-44.5 121q0 34 10 97l27 196h76zM261 250h-137l-7 -48q-6 -40 -6 -59q0 -96 117 -96q67 0 103 37q36 38 36 82q0 40 -27 62t-79 22zM623 445l-62 -445h-74l62 445h74z" />
    <glyph glyph-name="afii10094" unicode="&#x44c;" horiz-adv-x="479" 
d="M131 304h150q78 0 119 -35t41 -90q0 -77 -60 -134q-61 -56 -168 -56q-86 0 -130.5 42t-44.5 121q0 34 10 97l27 196h76zM261 250h-137l-7 -48q-6 -40 -6 -59q0 -96 117 -96q67 0 103 37q36 38 36 82q0 40 -27 62t-79 22z" />
    <glyph glyph-name="afii10095" unicode="&#x44d;" horiz-adv-x="425" 
d="M-8 19l9 66q43 -33 120 -33q71 0 118 39.5t57 106.5h-197l7 57h195q4 63 -30.5 99.5t-94.5 36.5q-67 0 -119 -27q2 8 5.5 33t4.5 32q63 27 128 27q83 0 132.5 -51t49.5 -140q0 -119 -69 -197t-187 -78q-82 0 -129 29z" />
    <glyph glyph-name="afii10096" unicode="&#x44e;" horiz-adv-x="748" 
d="M512 456q91 0 141.5 -53.5t50.5 -144.5q0 -114 -70 -191q-71 -77 -180 -77q-91 0 -143 51t-52 137v32h-123l-29 -210h-74l62 444h74l-26 -183h124q23 86 87 140q65 55 158 55zM509 392q-77 0 -125 -59t-48 -145q0 -64 31.5 -101t90.5 -37q76 0 125 60q49 59 49 143
q0 62 -33 100.5t-90 38.5z" />
    <glyph glyph-name="afii10097" unicode="&#x44f;" horiz-adv-x="469" 
d="M75 0h-92l175 169q-49 10 -76.5 42.5t-27.5 76.5q0 75 55 115q55 42 131 42h186l-62 -445h-73l55 387h-100q-52 0 -84 -27.5t-32 -73.5q0 -35 34.5 -57.5t99.5 -24.5l-2 -14z" />
    <glyph glyph-name="afii10071" unicode="&#x451;" horiz-adv-x="467" 
d="M283 455q71 0 112.5 -35t41.5 -90q0 -64 -66.5 -103t-189.5 -39q-45 0 -69 3v-3q-6 -66 26.5 -102.5t96.5 -36.5q97 0 173 60l-11 -69q-79 -50 -173 -50q-92 0 -141 50.5t-49 139.5q0 116 70 195q71 80 179 80zM279 393q-61 0 -104.5 -41t-57.5 -110q32 -5 71 -5
q84 0 129 25t45 63q0 29 -21.5 48.5t-61.5 19.5zM234 639q16 0 25.5 -10t9.5 -26q0 -21 -13.5 -35.5t-33.5 -14.5q-18 0 -28 10t-10 26q0 19 15 34.5t35 15.5zM396 639q16 0 26 -10t10 -26q0 -21 -14 -35.5t-34 -14.5q-17 0 -27 10t-10 25q0 20 15 35.5t34 15.5z" />
    <glyph glyph-name="afii10099" unicode="&#x452;" horiz-adv-x="543" 
d="M112 618l13 93h72l-13 -93h173l-7 -50h-172l-30 -197q2 0 4 -2q64 85 171 85q79 0 125.5 -47t46.5 -136q0 -110 -62 -211q-62 -102 -167 -154l-52 36q62 29 107.5 74.5t64.5 94.5q34 86 34 145q0 134 -120 134q-54 0 -106 -51q-52 -52 -62 -121l-34 -218h-72l79 568h-52
l7 50h52z" />
    <glyph glyph-name="afii10100" unicode="&#x453;" horiz-adv-x="368" 
d="M318 96l-9 -68q-67 -37 -155 -37q-70 0 -108.5 28.5t-38.5 81.5q0 42 25.5 75.5t67.5 53.5q16 8 46 20.5t48 21.5t38 21t29.5 25.5t9.5 28.5q0 50 -78 50q-70 0 -137 -37l9 65q67 30 149 30q59 0 95 -25.5t36 -72.5q0 -40 -26 -72t-68 -51q-11 -5 -38 -17t-40.5 -18.5
t-34.5 -18.5t-31.5 -22t-18.5 -24.5t-8 -29.5q0 -57 91 -57q74 0 147 49zM361 658l-133 -131h-54l123 156q36 -13 64 -25z" />
    <glyph glyph-name="afii10101" unicode="&#x454;" horiz-adv-x="419" 
d="M371 85q-2 -7 -5.5 -33t-4.5 -33q-53 -29 -137 -29q-91 0 -141 56q-49 55 -49 142q0 120 75 193q75 75 186 75q66 0 108 -21q-2 -8 -5.5 -33.5t-4.5 -33.5q-37 25 -96 25q-68 0 -116 -35.5t-65 -101.5h201l-7 -57h-202q-10 -64 30 -106q41 -41 110 -41q70 0 123 33z" />
    <glyph glyph-name="afii10102" unicode="&#x455;" horiz-adv-x="369" 
d="M-7 28q0 17 6 68q59 -49 136 -49q110 0 110 79q0 26 -28.5 49t-69.5 39q-41 17 -69.5 46t-28.5 65q0 67 49 98q50 32 120 32q67 0 121 -30q-1 -8 -4 -32.5t-4 -32.5q-58 37 -113 37q-40 0 -66.5 -16.5t-26.5 -51.5q0 -40 97 -80q41 -16 69.5 -47t28.5 -70q0 -67 -51 -104
t-133 -37q-87 0 -143 37z" />
    <glyph glyph-name="afii10103" unicode="&#x456;" horiz-adv-x="231" 
d="M179 445l-62 -445h-75l62 445h75zM169 629q18 0 29 -11.5t11 -29.5q0 -22 -16 -38t-37 -16q-19 0 -30 11t-11 29q0 21 16.5 38t37.5 17z" />
    <glyph glyph-name="afii10104" unicode="&#x457;" horiz-adv-x="231" 
d="M90 632q16 0 25.5 -10t9.5 -26q0 -21 -13.5 -35.5t-33.5 -14.5q-18 0 -28 10t-10 26q0 20 15 35t35 15zM252 632q16 0 26 -10t10 -26q0 -21 -14 -35.5t-34 -14.5q-17 0 -27 10t-10 25q0 20 15 35.5t34 15.5zM179 445l-62 -445h-75l62 445h75z" />
    <glyph glyph-name="afii10105" unicode="&#x458;" horiz-adv-x="217" 
d="M162 628q18 0 29 -11.5t11 -28.5q0 -22 -16 -38t-37 -16q-19 0 -29.5 11t-10.5 28q0 22 16 38.5t37 16.5zM-86 -228l-28 68q67 1 102 36q15 14 26 44q12 33 16 56l12 75l56 394h73l-56 -397q-21 -150 -63 -207t-138 -69z" />
    <glyph glyph-name="afii10106" unicode="&#x459;" horiz-adv-x="770" 
d="M332 188q19 145 26 198h-148l-42 -171q-3 -11 -6 -24t-5 -21l-3 -12l-14 -45q-9 -33 -16 -42q-24 -45 -46 -58q-37 -22 -80 -28l-23 57q58 11 80 44q23 35 42 115l57 243h287l-20 -140h151q78 0 119 -35t41 -90q0 -77 -60 -134q-61 -56 -168 -56q-175 0 -175 160
q0 18 3 39zM552 250h-136q-13 -91 -13 -107q0 -96 116 -96q67 0 103 37q37 37 37 82q0 40 -27.5 62t-79.5 22z" />
    <glyph glyph-name="afii10107" unicode="&#x45a;" horiz-adv-x="790" 
d="M462 445l-21 -150h149q79 0 120.5 -32.5t41.5 -86.5q0 -78 -60 -133q-59 -55 -168 -55q-85 0 -130.5 41t-45.5 119q0 18 3 39l6 49h-216l-34 -236h-74l62 444h74l-21 -154h216l9 65l12 90h77zM571 240h-137l-6 -38q-6 -34 -6 -60q0 -96 116 -96q67 0 103 36q37 37 37 83
q0 75 -107 75z" />
    <glyph glyph-name="afii10108" unicode="&#x45b;" horiz-adv-x="520" 
d="M454 270l-37 -270h-75l35 254q3 21 3 39q0 98 -87 98q-61 0 -106 -53q-45 -52 -57 -135l-30 -203h-74l79 568h-52l7 50h52l13 93h72l-14 -93h174l-7 -50h-174l-29 -197q1 0 2 -0.5t2 -0.5q71 86 164 86q69 0 105.5 -38t36.5 -107q0 -20 -3 -41z" />
    <glyph glyph-name="afii10109" unicode="&#x45c;" horiz-adv-x="480" 
d="M391 444h90l-260 -215l219 -229h-97l-205 224l-31 -224h-74l62 444h74q-2 -16 -7.5 -53t-10.5 -75t-10 -75zM410 658l-133 -131h-54l123 156q36 -13 64 -25z" />
    <glyph glyph-name="afii10110" unicode="&#x45e;" horiz-adv-x="435" 
d="M103 445l84 -351h5l183 351h78l-358 -660h-75l124 229l-119 431h78zM352 673h51q-10 -58 -51 -100q-39 -42 -101 -42q-53 0 -82 34t-29 89q0 15 1 19h51q-1 -3 -1 -16q0 -36 17.5 -57t48.5 -21q71 0 95 94z" />
    <glyph glyph-name="afii10193" unicode="&#x45f;" horiz-adv-x="517" 
d="M333 -194h-66l24 160h64zM69 175l38 270h74l-35 -255q-3 -21 -3 -38q0 -99 88 -99q57 0 98 52t53 136l30 204h75l-62 -445h-59v68h-4q-62 -77 -149 -77q-83 0 -119.5 49t-24.5 135z" />
    <glyph glyph-name="afii10050" unicode="&#x490;" horiz-adv-x="513" 
d="M547 595h-342l-83 -595h-78l93 662h354l15 113h66z" />
    <glyph glyph-name="afii10098" unicode="&#x491;" horiz-adv-x="420" 
d="M427 387h-264l-54 -387h-75l62 444h278l15 110h61z" />
    <glyph glyph-name="schwacyrillic" unicode="&#x4d9;" horiz-adv-x="474" 
d="M181 -10q-71 0 -112.5 35t-41.5 90q0 63 67 102t189 39q37 0 69 -2q0 64 -32 103t-91 39q-99 0 -172 -61q1 9 11 70q80 50 172 50t141 -51t49 -140q0 -115 -70 -194q-71 -80 -179 -80zM185 51q61 0 105 41t58 111q-45 3 -64 3q-182 0 -182 -86q0 -31 21.5 -50t61.5 -19z
" />
    <glyph glyph-name="Wgrave" unicode="&#x1e80;" horiz-adv-x="885" 
d="M253 167l237 498h14l101 -498h4l242 492h80l-338 -667h-13l-104 503h-3l-243 -503h-16l-149 667h79l104 -492h5zM438 874l102 -145h-54l-121 122q31 11 73 23z" />
    <glyph glyph-name="wgrave" unicode="&#x1e81;" horiz-adv-x="696" 
d="M178 134l186 313h11l96 -313h4l162 311h73l-248 -451h-12l-98 318h-3l-188 -318h-13l-119 451h76l69 -311h4zM340 682l92 -155h-50l-106 134z" />
    <glyph glyph-name="Wacute" unicode="&#x1e82;" horiz-adv-x="885" 
d="M253 167l237 498h14l101 -498h4l242 492h80l-338 -667h-13l-104 503h-3l-243 -503h-16l-149 667h79l104 -492h5zM661 844l-146 -115h-58l134 139z" />
    <glyph glyph-name="wacute" unicode="&#x1e83;" horiz-adv-x="696" 
d="M178 134l186 313h11l96 -313h4l162 311h73l-248 -451h-12l-98 318h-3l-188 -318h-13l-119 451h76l69 -311h4zM532 658l-133 -131h-54l123 156q36 -13 64 -25z" />
    <glyph glyph-name="Wdieresis" unicode="&#x1e84;" horiz-adv-x="885" 
d="M253 167l237 498h14l101 -498h4l242 492h80l-338 -667h-13l-104 503h-3l-243 -503h-16l-149 667h79l104 -492h5zM434 838q16 0 26 -10.5t10 -26.5q0 -21 -14.5 -35.5t-33.5 -14.5q-17 0 -28 10t-11 26q0 20 15.5 35.5t35.5 15.5zM596 838q17 0 27 -10.5t10 -26.5
q0 -21 -14 -35.5t-34 -14.5q-18 0 -28 10t-10 26q0 20 15 35.5t34 15.5z" />
    <glyph glyph-name="wdieresis" unicode="&#x1e85;" horiz-adv-x="696" 
d="M178 134l186 313h11l96 -313h4l162 311h73l-248 -451h-12l-98 318h-3l-188 -318h-13l-119 451h76l69 -311h4zM310 615q16 0 25.5 -10t9.5 -26q0 -21 -13.5 -35.5t-33.5 -14.5q-18 0 -28 10t-10 26q0 19 15 34.5t35 15.5zM472 615q16 0 26 -10t10 -26q0 -21 -14 -35.5
t-34 -14.5q-17 0 -27 10t-10 25q0 20 15 35.5t34 15.5z" />
    <glyph glyph-name="Ygrave" unicode="&#x1ef2;" horiz-adv-x="545" 
d="M149 661l143 -301h4q38 56 211 301h86l-268 -375l-40 -286h-79l40 286l-179 375h82zM288 874l102 -145h-54l-121 122q31 11 73 23z" />
    <glyph glyph-name="ygrave" unicode="&#x1ef3;" horiz-adv-x="435" 
d="M103 445l84 -351h5l183 351h78l-358 -660h-75l124 229l-119 431h78zM212 682l92 -155h-50l-106 134z" />
    <glyph glyph-name="endash" unicode="&#x2013;" horiz-adv-x="548" 
d="M511 211h-486l7 60h487z" />
    <glyph glyph-name="emdash" unicode="&#x2014;" horiz-adv-x="807" 
d="M769 211h-742l8 60h742z" />
    <glyph glyph-name="afii00208" unicode="&#x2015;" horiz-adv-x="807" 
d="M769 211h-742l8 60h742z" />
    <glyph glyph-name="quoteleft" unicode="&#x2018;" horiz-adv-x="197" 
d="M128 459q-18 0 -30.5 11.5t-12.5 29.5q0 52 96 183l36 -6l-57 -121q25 -9 25 -38q0 -24 -17.5 -41.5t-39.5 -17.5z" />
    <glyph glyph-name="quoteright" unicode="&#x2019;" horiz-adv-x="197" 
d="M165 682q19 0 30.5 -11t11.5 -30q0 -50 -95 -183l-37 6l57 122q-24 8 -24 38q0 23 17.5 40.5t39.5 17.5z" />
    <glyph glyph-name="quotesinglbase" unicode="&#x201a;" horiz-adv-x="213" 
d="M30 43q3 22 20 36.5t39 14.5q21 0 33.5 -14t9.5 -37q-4 -29 -36 -85t-64 -100l-38 5l59 134q-27 12 -23 46z" />
    <glyph glyph-name="quotedblleft" unicode="&#x201c;" horiz-adv-x="320" 
d="M130 459q-19 0 -31 11.5t-12 30.5q0 55 96 182l36 -6l-57 -121q24 -9 24 -37q0 -24 -17 -42t-39 -18zM248 459q-20 0 -32 11t-12 30q0 52 96 183l37 -6l-57 -121q24 -9 24 -37q0 -24 -17.5 -42t-38.5 -18z" />
    <glyph glyph-name="quotedblright" unicode="&#x201d;" horiz-adv-x="320" 
d="M280 683q19 0 31 -11.5t12 -30.5q0 -55 -96 -182l-36 6l57 121q-24 9 -24 37q0 24 17 42t39 18zM162 683q20 0 32 -11t12 -30q0 -52 -96 -183l-37 6l57 121q-24 9 -24 37q0 24 17.5 42t38.5 18z" />
    <glyph glyph-name="quotedblbase" unicode="&#x201e;" horiz-adv-x="328" 
d="M26 43q3 22 20 36.5t39 14.5q21 0 33.5 -14t9.5 -37q-4 -29 -36 -85t-64 -100l-38 5l59 134q-27 12 -23 46zM146 43q3 22 20 36.5t39 14.5q21 0 33.5 -14t9.5 -37q-4 -29 -36 -85t-64 -100l-38 5l59 134q-27 12 -23 46z" />
    <glyph glyph-name="dagger" unicode="&#x2020;" horiz-adv-x="513" 
d="M242 430h-159l9 66h158l27 189h77l-27 -189h161l-9 -66h-160l-76 -539h-77z" />
    <glyph glyph-name="daggerdbl" unicode="&#x2021;" horiz-adv-x="513" 
d="M242 432h-160q0 5 4 28q1 7 5 37h160q1 10 5.5 41.5t9.5 69.5t11 77h76l-27 -188h162l-9 -65h-161l-31 -227h160q-7 -52 -10 -66h-160l-18 -125q-14 -97 -17 -123h-77q29 204 35 248h-159q1 8 5 33.5t5 32.5h159z" />
    <glyph glyph-name="bullet" unicode="&#x2022;" horiz-adv-x="472" 
d="M153 236q0 48 34 82q35 35 83 35t83 -35t35 -82q0 -49 -34.5 -83t-83.5 -34t-83 34t-34 83z" />
    <glyph glyph-name="trianglebullet" unicode="&#x2023;" horiz-adv-x="506" 
d="M121 68v408l390 -199z" />
    <glyph glyph-name="ellipsis" unicode="&#x2026;" horiz-adv-x="613" 
d="M85 95q19 0 31.5 -12.5t12.5 -32.5q0 -24 -18.5 -41.5t-40.5 -17.5q-19 0 -31.5 12t-12.5 31q0 25 17.5 43t41.5 18zM286 95q20 0 32.5 -12.5t12.5 -32.5q0 -24 -18.5 -41.5t-40.5 -17.5q-19 0 -31.5 12t-12.5 31q0 25 17.5 43t40.5 18zM487 95q20 0 32.5 -12.5
t12.5 -32.5q0 -24 -18.5 -41.5t-40.5 -17.5q-19 0 -31.5 12t-12.5 31q0 25 17.5 43t40.5 18z" />
    <glyph glyph-name="perthousand" unicode="&#x2030;" horiz-adv-x="1071" 
d="M850 -7q-63 0 -99 35t-36 93q0 75 53 130q52 55 126 55q60 0 96.5 -36.5t36.5 -93.5q0 -76 -52 -129q-53 -54 -125 -54zM887 253q-45 0 -78 -37t-33 -85q0 -39 22 -62.5t60 -23.5q46 0 77 37t31 85q0 37 -22 61.5t-57 24.5zM204 358q-63 0 -99 35.5t-36 94.5q0 74 53 129
q52 55 126 55q59 0 96 -37.5t37 -95.5q0 -73 -53 -128q-53 -53 -124 -53zM240 618q-48 0 -79 -37q-32 -38 -32 -86q0 -39 21.5 -62t60.5 -23q45 0 77 36q32 38 32 85q0 37 -22.5 62t-57.5 25zM496 -7q-63 0 -99 35t-36 93q0 75 53 130q52 55 126 55q60 0 96.5 -37t36.5 -94
q0 -75 -52 -128q-53 -54 -125 -54zM533 253q-45 0 -78 -37t-33 -85q0 -39 22 -62.5t60 -23.5q46 0 77 37t31 85q0 37 -22 61.5t-57 24.5zM632 681h55l-587 -701h-54z" />
    <glyph glyph-name="guilsinglleft" unicode="&#x2039;" horiz-adv-x="282" 
d="M266 385l-159 -182l107 -188h-77l-104 181l1 9l158 180h74z" />
    <glyph glyph-name="guilsinglright" unicode="&#x203a;" horiz-adv-x="282" 
d="M83 15h-76l160 188l-108 182h73l107 -180l-1 -9z" />
    <glyph glyph-name="fraction" unicode="&#x2044;" horiz-adv-x="105" 
d="M326 682h55l-585 -703h-55z" />
    <glyph glyph-name="fraction" unicode="&#x2215;" horiz-adv-x="105" 
d="M326 682h55l-585 -703h-55z" />
    <glyph glyph-name="zerosuperior" unicode="&#x2070;" horiz-adv-x="339" 
d="M240 779q116 0 116 -144q0 -85 -35 -162q-19 -41 -55 -65.5t-83 -24.5q-118 0 -118 141q0 78 32 157q19 44 56.5 71t86.5 27zM233 729q-36 0 -60.5 -27.5t-33.5 -71.5q-13 -66 -13 -102q0 -95 65 -95q31 0 54 23t32 60q17 64 17 117q0 96 -61 96z" />
    <glyph glyph-name="foursuperior" unicode="&#x2074;" horiz-adv-x="339" 
d="M42 494l230 279h62l-206 -247h120l9 62l56 71h11l-19 -133h53l-6 -47h-53l-13 -89h-56l12 89h-202z" />
    <glyph glyph-name="fivesuperior" unicode="&#x2075;" horiz-adv-x="339" 
d="M214 635q55 0 88 -28.5t33 -80.5v-4q-2 -62 -51 -101q-50 -38 -114 -38q-74 0 -118 35l9 62q44 -48 112 -48q45 0 75 26.5t30 65.5q0 29 -22.5 46t-59.5 17h-22q-39 -5 -75 -25l-9 4l52 207h210q-6 -24 -6 -47h-162l-25 -98q18 7 55 7z" />
    <glyph glyph-name="sixsuperior" unicode="&#x2076;" horiz-adv-x="339" 
d="M225 634q53 0 85.5 -30t32.5 -77q0 -61 -48 -103q-47 -41 -115 -41q-61 0 -93.5 28t-32.5 77q0 53 50 121q42 59 126 164h66l-113 -143q12 4 42 4zM208 587q-38 0 -65.5 -27.5t-27.5 -63.5q0 -28 19 -45.5t52 -17.5q40 0 68.5 24.5t28.5 62.5q0 28 -21 47.5t-54 19.5z
" />
    <glyph glyph-name="sevensuperior" unicode="&#x2077;" horiz-adv-x="324" 
d="M358 763l-230 -375h-60l207 337h-192q1 6 3 24t3 24h270l-1 -4v-6z" />
    <glyph glyph-name="eightsuperior" unicode="&#x2078;" horiz-adv-x="339" 
d="M230 729q-29 0 -51 -19.5t-22 -46.5q0 -22 15.5 -36t42.5 -14q30 0 50 19t20 46q0 21 -15.5 36t-39.5 15zM210 569q-36 0 -62 -23t-26 -56q0 -25 18 -41t50 -16q36 0 60.5 23t24.5 54q0 26 -18.5 42.5t-46.5 16.5zM239 779q46 0 75.5 -25.5t29.5 -67.5q0 -60 -55 -94
q47 -27 47 -79q0 -55 -45 -93q-44 -37 -107 -37q-57 0 -90.5 26t-33.5 72q0 30 19 61t51 49q-31 25 -31 68q0 51 42 86q43 34 98 34z" />
    <glyph glyph-name="ninesuperior" unicode="&#x2079;" horiz-adv-x="339" 
d="M241 779q58 0 90.5 -29t32.5 -76q0 -44 -24 -82q-10 -20 -21 -34l-11 -14l-20 -25l-99 -131h-67l107 142q-15 -3 -28 -3q-59 0 -93 28t-34 78q0 63 48 104q49 42 119 42zM212 575q38 0 64.5 26.5t26.5 63.5q0 29 -19 46.5t-51 17.5q-42 0 -70.5 -25.5t-28.5 -63.5
q0 -30 21 -47.5t57 -17.5z" />
    <glyph glyph-name="plussuperior" unicode="&#x207a;" horiz-adv-x="349" 
d="M202 517h-105q0 2 2.5 18t2.5 21h105l14 97h42l-14 -97h104q0 -2 -1.5 -11t-2.5 -16.5t-1 -11.5h-104l-14 -99h-42z" />
    <glyph glyph-name="hyphensuperior" unicode="&#x207b;" horiz-adv-x="251" 
d="M262 501h-186v3q1 2 1.5 6t0.5 9q1 9 4 25h186q-3 -16 -4 -25q0 -5 -0.5 -9t-1.5 -6v-3z" />
    <glyph glyph-name="equalsuperior" unicode="&#x207c;" horiz-adv-x="350" 
d="M347 560h-258q2 11 3 24l2 14h258q0 -4 -1 -11t-2.5 -16t-1.5 -11zM335 473h-258q0 2 1.5 10.5t2.5 16t1 11.5h258q-2 -11 -4 -25z" />
    <glyph glyph-name="parenleftsuperior" unicode="&#x207d;" horiz-adv-x="191" 
d="M218 831l32 -12q-42 -45 -79 -127q-38 -84 -38 -185q0 -105 46 -191l-36 -13q-67 85 -67 210q0 102 44 185q44 84 98 133z" />
    <glyph glyph-name="parenrightsuperior" unicode="&#x207e;" horiz-adv-x="191" 
d="M86 818l37 12q68 -92 68 -208q0 -106 -46 -189q-47 -85 -97 -132l-31 14q118 148 118 314q0 112 -49 189z" />
    <glyph glyph-name="nsuperior" unicode="&#x207f;" horiz-adv-x="356" 
d="M107 300h-59l41 295h44l1 -56q45 61 118 61q96 0 96 -91q0 -2 -0.5 -6t-1 -11t-0.5 -13l-25 -179h-58l23 171q1 5 1 19q0 60 -57 60q-26 0 -50.5 -17t-38.5 -47q-13 -29 -22 -86q0 -5 -1.5 -13t-3 -20t-2.5 -21z" />
    <glyph glyph-name="zeroinferior" unicode="&#x2080;" horiz-adv-x="339" 
d="M175 299q116 0 116 -144q0 -85 -35 -162q-19 -41 -55 -65.5t-83 -24.5q-118 0 -118 141q0 78 32 157q19 44 56.5 71t86.5 27zM168 249q-36 0 -60.5 -27.5t-33.5 -71.5q-13 -66 -13 -101q0 -96 65 -96q31 0 54 23t32 61q16 65 16 117q0 95 -60 95z" />
    <glyph glyph-name="oneinferior" unicode="&#x2081;" horiz-adv-x="291" 
d="M196 298h10l-56 -389h-59l43 304q-20 -11 -53 -26q-42 -20 -51 -25l9 56z" />
    <glyph glyph-name="twoinferior" unicode="&#x2082;" horiz-adv-x="339" 
d="M178 300q54 0 84.5 -26.5t30.5 -71.5q0 -64 -55 -128q-56 -65 -127 -117h151l-5 -48h-283l1 11q259 154 259 269q0 61 -65 61q-55 0 -128 -50l11 60q67 40 126 40z" />
    <glyph glyph-name="threeinferior" unicode="&#x2083;" horiz-adv-x="339" 
d="M78 111l-5 9l130 126h-159l7 48h253l-1 -10l-140 -136q51 -1 80 -28.5t29 -73.5q0 -65 -48 -104t-112 -39q-81 0 -127 35l9 60q51 -48 116 -48q45 0 74 27.5t29 67.5q0 34 -24.5 52t-64.5 18q-29 0 -46 -4z" />
    <glyph glyph-name="fourinferior" unicode="&#x2084;" horiz-adv-x="339" 
d="M-26 14l230 279h62l-206 -247h120l9 62l56 71h11l-19 -133h53l-6 -47h-53l-13 -89h-56l12 89h-202z" />
    <glyph glyph-name="fiveinferior" unicode="&#x2085;" horiz-adv-x="339" 
d="M149 155q55 0 88 -28.5t33 -80.5v-4q-2 -63 -51 -100q-50 -38 -114 -38q-75 0 -118 34q8 59 9 62q44 -48 112 -48q45 0 75 26.5t30 65.5q0 29 -22.5 46t-59.5 17h-22q-39 -5 -75 -25l-9 4l52 207h210q-6 -24 -6 -47h-162l-25 -98q18 7 55 7z" />
    <glyph glyph-name="sixinferior" unicode="&#x2086;" horiz-adv-x="339" 
d="M161 154q53 0 85.5 -30t32.5 -77q0 -61 -48 -102q-47 -41 -115 -41q-61 0 -93.5 28t-32.5 76q0 53 50 121q42 59 126 164h66l-113 -143q12 4 42 4zM144 107q-38 0 -65.5 -27.5t-27.5 -63.5q0 -28 19 -45.5t52 -17.5q40 0 68.5 24.5t28.5 62.5q0 28 -21 47.5t-54 19.5z
" />
    <glyph glyph-name="seveninferior" unicode="&#x2087;" horiz-adv-x="324" 
d="M295 283l-230 -375h-60l207 337h-192q1 5 3 24t3 24h270v-4q-1 -4 -1 -6z" />
    <glyph glyph-name="eightinferior" unicode="&#x2088;" horiz-adv-x="339" 
d="M166 249q-30 0 -51.5 -19.5t-21.5 -46.5q0 -22 15.5 -36t42.5 -14q30 0 50 19t20 46q0 21 -15.5 36t-39.5 15zM146 89q-36 0 -62 -23t-26 -56q0 -25 18 -41t50 -16q36 0 60.5 23t24.5 54q0 26 -18.5 42.5t-46.5 16.5zM175 299q46 0 75.5 -25.5t29.5 -67.5q0 -60 -55 -94
q47 -27 47 -79q0 -55 -45 -93q-44 -37 -107 -37q-57 0 -90.5 26t-33.5 72q0 30 19 61t51 49q-31 25 -31 68q0 51 42 86q43 34 98 34z" />
    <glyph glyph-name="nineinferior" unicode="&#x2089;" horiz-adv-x="339" 
d="M179 299q58 0 90.5 -29t32.5 -76q0 -44 -24 -82q-10 -20 -21 -34l-11 -14l-20 -25l-99 -130h-67l107 141q-15 -3 -28 -3q-59 0 -93 28t-34 78q0 63 48 104q49 42 119 42zM150 95q38 0 64.5 26.5t26.5 63.5q0 29 -19 46.5t-51 17.5q-42 0 -70.5 -25.5t-28.5 -63.5
q0 -30 21 -47.5t57 -17.5z" />
    <glyph glyph-name="plusinferior" unicode="&#x208a;" horiz-adv-x="349" 
d="M137 60h-105l6 38h105l14 96h41l-13 -96h104q0 -2 -6 -38h-104l-14 -99h-42z" />
    <glyph glyph-name="hypheninferior" unicode="&#x208b;" horiz-adv-x="251" 
d="M198 42h-186l5 44h186z" />
    <glyph glyph-name="equalinferior" unicode="&#x208c;" horiz-adv-x="349" 
d="M286 102h-257q0 1 1.5 17t3.5 21h257l-1 -14q-2 -13 -4 -24zM274 14h-258q2 10 5 39h258q-2 -10 -5 -39z" />
    <glyph glyph-name="parenleftinferior" unicode="&#x208d;" horiz-adv-x="191" 
d="M154 373l33 -13q-43 -49 -80 -128q-38 -82 -38 -181q0 -105 47 -194l-35 -13q-68 89 -68 213q0 102 43 182q42 79 98 134z" />
    <glyph glyph-name="parenrightinferior" unicode="&#x208e;" horiz-adv-x="191" 
d="M23 359l36 12q69 -85 69 -207q0 -114 -55 -206q-40 -69 -88 -115q-6 3 -31 14q118 151 118 315q0 110 -49 187z" />
    <glyph glyph-name="Euro" unicode="&#x20ac;" horiz-adv-x="536" 
d="M38 269l5 41h400l-6 -41h-278q-9 -95 40.5 -153t145.5 -58q65 0 137 31l-13 -69q-64 -26 -137 -26q-110 0 -180 66t-70 182q0 3 2 27h-46zM456 404l-6 -41h-399l5 41h51q32 123 116 193q86 71 196 71q71 0 122 -18l-2 -68q-50 19 -116 19q-82 0 -150 -53
q-67 -53 -89 -144h272z" />
    <glyph glyph-name="centigrade" unicode="&#x2103;" horiz-adv-x="798" 
d="M167 681q47 0 75.5 -29t28.5 -74q0 -57 -40 -97t-97 -40q-48 0 -75 27t-27 72q0 56 41 99q41 42 94 42zM161 637q-34 0 -59 -28q-25 -26 -25 -61q0 -27 17.5 -46t44.5 -19q37 0 62.5 26.5t25.5 61.5q0 28 -18.5 47t-47.5 19zM750 110l-10 -74q-82 -46 -197 -46
q-140 0 -215 76q-74 77 -74 203q0 179 114 291q115 113 274 113q102 0 160 -32l-6 -74q-65 37 -153 37q-125 0 -216 -90q-92 -90 -92 -237q0 -102 59.5 -160t167.5 -58q92 0 188 51z" />
    <glyph glyph-name="fahrenheit" unicode="&#x2109;" horiz-adv-x="746" 
d="M394 293l-40 -293h-79l93 661h416l-10 -67h-337l-33 -234h306q0 -2 -9 -67h-307zM167 681q47 0 75.5 -29t28.5 -74q0 -57 -40 -97t-97 -40q-48 0 -75 27t-27 72q0 56 41 99q41 42 94 42zM161 637q-34 0 -59 -28q-25 -26 -25 -61q0 -27 17.5 -46t44.5 -19q37 0 62.5 26.5
t25.5 61.5q0 28 -18.5 47t-47.5 19z" />
    <glyph glyph-name="afii61289" unicode="&#x2113;" horiz-adv-x="508" 
d="M161 211l-52 -36q-5 7 -25 44l75 56v206q0 107 40.5 161t109.5 54q48 0 80 -28t34 -82q0 -158 -204 -336v-77q0 -127 94 -127q34 0 67.5 27t60.5 77l46 -25q-68 -134 -177 -134q-92 0 -123 64q-26 56 -26 156zM219 477q3 -150 3 -151q145 139 145 251q0 30 -16 49.5
t-45 19.5q-38 0 -62.5 -43.5t-24.5 -125.5z" />
    <glyph glyph-name="afii61352" unicode="&#x2116;" horiz-adv-x="1025" 
d="M980 311l-7 -53h-307l8 53h306zM190 504l-70 -504h-77l94 669h20l345 -508h4l71 500h77l-94 -666h-21l-346 509h-3zM874 674q65 0 101 -36t36 -96q0 -75 -49 -127q-50 -51 -127 -51q-66 0 -103 35t-37 96q0 74 49 126q50 53 130 53zM871 621q-48 0 -79.5 -36t-31.5 -88
q0 -38 20 -60.5t57 -22.5q48 0 80.5 36t32.5 88q0 37 -21.5 60t-57.5 23z" />
    <glyph glyph-name="published" unicode="&#x2117;" horiz-adv-x="829" 
d="M450 -17q-165 0 -262 103q-98 104 -98 267q0 159 105 263q106 104 255 104t253 -104q105 -104 105 -263t-105 -265q-103 -105 -253 -105zM450 670q-129 0 -219 -92t-90 -225q0 -140 82 -231q83 -90 218 -90q131 0 222 93q93 93 93 228q0 133 -89 225t-217 92zM490 258
h-102v-145h-65q1 101 1 457h165q79 0 122 -46q44 -47 44 -109q0 -71 -48 -114q-47 -43 -117 -43zM592 414q0 45 -30 75.5t-85 30.5h-89v-214h64q140 0 140 108z" />
    <glyph glyph-name="trademark" unicode="&#x2122;" horiz-adv-x="750" 
d="M408 672l156 -189l8 3l150 186h12v-364h-54v233h-4l-105 -131h-10l-106 129h-2v-231h-58v364h13zM366 627h-105v-319h-56v319h-107v45h268v-45z" />
    <glyph glyph-name="Ohm" unicode="&#x2126;" horiz-adv-x="766" 
d="M435 603q-130 0 -216 -98t-86 -233q0 -81 35 -156q36 -72 106 -103q0 -1 -0.5 -6t-0.5 -7h-263l10 67h111q0 1 0.5 2t0.5 2q-77 77 -77 201q0 168 115 284q116 117 275 117q129 0 208 -82t79 -207q0 -89 -39 -173t-110 -140q0 -3 1 -4h112q-9 -65 -9 -67h-262q0 2 0.5 7
t0.5 6q73 28 127 94q102 125 102 265q0 96 -59 164q-58 67 -161 67z" />
    <glyph glyph-name="angstrom" unicode="&#x212b;" horiz-adv-x="611" 
d="M562 0h-77l-38 148h-306l-80 -148h-82l379 667h15zM348 516h-4l-170 -308h257zM394 870q36 0 59 -22.5t23 -58.5q0 -42 -32 -74q-31 -31 -76 -31q-36 0 -58 21t-22 55q0 45 32 77q31 33 74 33zM388 829q-22 0 -39.5 -19t-17.5 -42q0 -19 11.5 -31t31.5 -12q24 0 41 17.5
t17 41.5q0 19 -12 32t-32 13z" />
    <glyph glyph-name="estimated" unicode="&#x212e;" horiz-adv-x="817" 
d="M793 318h-568v-190q33 -51 94 -84q62 -32 125 -32q62 0 123 30.5t103 81.5h53q-54 -63 -128 -99t-152 -36q-145 0 -248 100t-103 240q0 137 103 234t248 97q146 0 247 -98q101 -97 103 -244zM225 338h433v190q-28 48 -91 79q-61 31 -123 31q-56 0 -114 -30t-105 -83v-187
z" />
    <glyph glyph-name="onethird" unicode="&#x2153;" horiz-adv-x="752" 
d="M592 682h55l-585 -703h-55zM253 689h10l-55 -391h-59q10 78 43 305q-25 -14 -52 -26q-50 -24 -52 -25q8 51 8 56zM478 201l-5 9l130 126h-159l7 48h253l-1 -10l-140 -136q51 -1 80 -28.5t29 -73.5q0 -65 -48 -104t-112 -39q-81 0 -127 35l9 60q51 -48 116 -48
q45 0 74 27.5t29 67.5q0 34 -24.5 52t-64.5 18q-29 0 -46 -4z" />
    <glyph glyph-name="twothirds" unicode="&#x2154;" horiz-adv-x="752" 
d="M504 201l-5 9l130 126h-159l7 48h253l-1 -10l-140 -136q51 -1 80 -28.5t29 -73.5q0 -65 -48 -104t-112 -39q-81 0 -127 35l9 60q51 -48 116 -48q45 0 74 27.5t29 67.5q0 34 -24.5 52t-64.5 18q-29 0 -46 -4zM210 689q54 0 84.5 -26.5t30.5 -71.5q0 -64 -55 -129
q-57 -66 -126 -116h151l-6 -48h-283l1 11q260 156 260 268q0 62 -66 62q-55 0 -128 -50l11 60q67 40 126 40zM638 682h55l-585 -703h-55z" />
    <glyph glyph-name="onefifth" unicode="&#x2155;" horiz-adv-x="752" 
d="M601 682h55l-585 -703h-55zM249 689h10l-55 -391h-59q10 78 43 305q-20 -11 -53 -26q-42 -20 -51 -25q8 51 8 56zM550 245q55 0 88 -28.5t33 -80.5v-4q-2 -63 -51 -100q-50 -38 -114 -38q-75 0 -118 34q8 59 9 62q43 -48 112 -48q45 0 75 26.5t30 65.5q0 29 -22.5 46
t-59.5 17h-22q-39 -5 -75 -25l-9 4l52 207h210q-6 -24 -6 -47h-162l-25 -98q18 7 55 7z" />
    <glyph glyph-name="twofifths" unicode="&#x2156;" horiz-adv-x="752" 
d="M662 682h55l-585 -703h-55zM229 689q54 0 84.5 -26.5t30.5 -71.5q0 -64 -55 -129q-57 -66 -126 -116h151l-6 -48h-283l1 11q260 156 260 268q0 62 -66 62q-55 0 -128 -50l11 60q67 40 126 40zM575 245q55 0 88 -28.5t33 -80.5v-4q-2 -63 -51 -100q-50 -38 -114 -38
q-75 0 -118 34q8 59 9 62q43 -48 112 -48q45 0 75 26.5t30 65.5q0 29 -22.5 46t-59.5 17h-22q-39 -5 -75 -25l-9 4l52 207h210q-6 -24 -6 -47h-162l-25 -98q18 7 55 7z" />
    <glyph glyph-name="threefifths" unicode="&#x2157;" horiz-adv-x="752" 
d="M638 682h55l-585 -703h-55zM129 501l-5 9l130 126h-155l7 48h253l-1 -10l-140 -136q51 -1 80 -28.5t29 -73.5q0 -65 -48 -104t-112 -39q-82 0 -126 35l8 60q51 -48 116 -48q45 0 74 27.5t29 67.5q0 34 -24.5 52t-64.5 18q-33 0 -50 -4zM569 245q55 0 88 -28.5t33 -80.5
v-4q-2 -63 -51 -100q-50 -38 -114 -38q-75 0 -118 34q8 59 9 62q44 -48 112 -48q45 0 75 26.5t30 65.5q0 29 -22.5 46t-59.5 17h-22q-39 -5 -75 -25l-9 4l52 207h210q-6 -24 -6 -47h-162l-25 -98q18 7 55 7z" />
    <glyph glyph-name="fourfifths" unicode="&#x2158;" horiz-adv-x="752" 
d="M643 682h55l-585 -703h-55zM23 404l230 279h62l-206 -247h120l9 62l56 71h11l-19 -133h53l-6 -47h-53l-13 -89h-56l12 89h-202zM578 245q55 0 88 -28.5t33 -80.5v-4q-2 -63 -51 -100q-50 -38 -114 -38q-75 0 -118 34q8 59 9 62q43 -48 112 -48q45 0 75 26.5t30 65.5
q0 29 -22.5 46t-59.5 17h-22q-39 -5 -75 -25l-9 4l52 207h210q-6 -24 -6 -47h-162l-25 -98q18 7 55 7z" />
    <glyph glyph-name="onesixth" unicode="&#x2159;" horiz-adv-x="752" 
d="M537 244q53 0 85.5 -30t32.5 -77q0 -61 -48 -102q-47 -41 -115 -41q-61 0 -93.5 28t-32.5 76q0 53 50 121q42 58 126 164h66l-113 -143q12 4 42 4zM520 197q-38 0 -65.5 -27.5t-27.5 -63.5q0 -28 19 -45.5t52 -17.5q40 0 68.5 24.5t28.5 62.5q0 28 -21 47.5t-54 19.5z
M256 689h10l-55 -391h-59q11 78 43 305q-25 -14 -52 -26q-39 -18 -52 -25q8 51 8 56zM615 682h55l-585 -703h-55z" />
    <glyph glyph-name="fivesixths" unicode="&#x215a;" horiz-adv-x="752" 
d="M570 244q53 0 85.5 -30t32.5 -77q0 -61 -48 -102q-47 -41 -115 -41q-61 0 -93.5 28t-32.5 76q0 53 50 121q42 58 126 164h66l-113 -143q12 4 42 4zM553 197q-39 0 -66 -27.5t-27 -63.5q0 -28 19 -45.5t52 -17.5q40 0 68.5 24.5t28.5 62.5q0 28 -21 47.5t-54 19.5z
M201 545q55 0 88 -28.5t33 -80.5v-4q-2 -62 -51 -101q-50 -38 -114 -38q-74 0 -118 35l9 62q44 -48 112 -48q45 0 75 26.5t30 65.5q0 29 -22.5 46t-59.5 17h-22q-39 -5 -75 -25l-9 4l52 207h210q-6 -24 -6 -47h-162l-25 -98q18 7 55 7zM648 682h55l-585 -703h-55z" />
    <glyph glyph-name="oneeighth" unicode="&#x215b;" horiz-adv-x="752" 
d="M547 339q-30 0 -51.5 -19.5t-21.5 -46.5q0 -22 15.5 -36t42.5 -14q30 0 50 19t20 46q0 21 -15.5 36t-39.5 15zM527 179q-36 0 -62 -23t-26 -56q0 -25 18 -41t50 -16q36 0 60.5 23t24.5 54q0 26 -18.5 42.5t-46.5 16.5zM556 389q46 0 75.5 -25.5t29.5 -67.5q0 -60 -55 -94
q47 -27 47 -79q0 -55 -45 -93q-44 -37 -107 -37q-57 0 -90.5 26t-33.5 72q0 30 19 61t51 49q-31 25 -31 68q0 51 42 86q43 34 98 34zM250 689h10l-55 -391h-59q10 78 43 305l-52 -26q-50 -24 -52 -25q8 51 8 56zM594 682h55l-585 -703h-55z" />
    <glyph glyph-name="threeeighths" unicode="&#x215c;" horiz-adv-x="752" 
d="M566 339q-30 0 -51.5 -19.5t-21.5 -46.5q0 -22 15.5 -36t42.5 -14q30 0 50 19t20 46q0 21 -15.5 36t-39.5 15zM546 179q-36 0 -62 -23t-26 -56q0 -25 18 -41t50 -16q36 0 60.5 23t24.5 54q0 26 -18.5 42.5t-46.5 16.5zM575 389q46 0 75.5 -25.5t29.5 -67.5q0 -60 -55 -94
q47 -27 47 -79q0 -55 -45 -93q-44 -37 -107 -37q-57 0 -90.5 26t-33.5 72q0 30 19 61t51 49q-31 25 -31 68q0 51 42 86q43 34 98 34zM127 501l-5 9l130 126h-155l7 48h253l-1 -10l-140 -136q51 -1 80 -28.5t29 -73.5q0 -65 -48 -104t-112 -39q-82 0 -126 35l8 60
q51 -48 116 -48q45 0 74 27.5t29 67.5q0 34 -24.5 52t-64.5 18q-33 0 -50 -4zM626 682h55l-585 -703h-55z" />
    <glyph glyph-name="fiveeighths" unicode="&#x215d;" horiz-adv-x="752" 
d="M576 339q-30 0 -51.5 -19.5t-21.5 -46.5q0 -22 15.5 -36t42.5 -14q30 0 50 19t20 46q0 21 -15.5 36t-39.5 15zM556 179q-36 0 -62 -23t-26 -56q0 -25 18 -41t50 -16q36 0 60.5 23t24.5 54q0 26 -18.5 42.5t-46.5 16.5zM585 389q46 0 75.5 -25.5t29.5 -67.5q0 -60 -55 -94
q47 -27 47 -79q0 -55 -45 -93q-44 -37 -107 -37q-57 0 -90.5 26t-33.5 72q0 30 19 61t51 49q-31 25 -31 68q0 51 42 86q43 34 98 34zM198 545q55 0 88 -28.5t33 -80.5v-4q-2 -62 -51 -101q-50 -38 -114 -38q-74 0 -118 35l9 62q44 -48 112 -48q45 0 75 26.5t30 65.5
q0 29 -22.5 46t-59.5 17h-22q-39 -5 -75 -25l-9 4l52 207h210q-6 -24 -6 -47h-162l-25 -98q18 7 55 7zM633 682h55l-585 -703h-55z" />
    <glyph glyph-name="seveneighths" unicode="&#x215e;" horiz-adv-x="752" 
d="M556 339q-30 0 -51.5 -19.5t-21.5 -46.5q0 -22 15.5 -36t42.5 -14q30 0 50 19t20 46q0 21 -15.5 36t-39.5 15zM536 179q-36 0 -62 -23t-26 -56q0 -25 18 -41t50 -16q36 0 60.5 23t24.5 54q0 26 -18.5 42.5t-46.5 16.5zM565 389q46 0 75.5 -25.5t29.5 -67.5q0 -60 -55 -94
q47 -27 47 -79q0 -55 -45 -93q-44 -37 -107 -37q-57 0 -90.5 26t-33.5 72q0 30 19 61t51 49q-31 25 -31 68q0 51 42 86q43 34 98 34zM365 673l-230 -375h-60l207 337h-192q1 5 3 24t3 24h270v-4q-1 -4 -1 -6zM588 682h55l-585 -703h-55z" />
    <glyph glyph-name="uni215F" unicode="&#x215f;" horiz-adv-x="428" 
d="M258 689h10l-55 -391h-59q10 78 43 305l-52 -26q-50 -24 -52 -25q8 51 8 56zM609 682h55l-585 -703h-55z" />
    <glyph glyph-name="partialdiff" unicode="&#x2202;" horiz-adv-x="542" 
d="M220 -10q-77 0 -122.5 45.5t-45.5 127.5q0 114 67 187t161 73q93 0 145 -61q4 28 4 70q0 106 -44 167t-121 61q-23 0 -58 -5l21 56q25 5 55 5q109 0 163 -80t54 -206q0 -202 -84 -321q-83 -119 -195 -119zM230 50q72 0 121 72q49 74 66 168q-56 77 -142 77
q-72 0 -114 -60q-42 -59 -42 -136q0 -59 29.5 -90t81.5 -31z" />
    <glyph glyph-name="gradient" unicode="&#x2207;" horiz-adv-x="634" 
d="M74 661h605l-388 -666h-18zM561 595h-394l133 -458z" />
    <glyph glyph-name="product" unicode="&#x220f;" horiz-adv-x="606" 
d="M592 661l-108 -764h-77l98 697h-309l-98 -697h-79l108 764h465z" />
    <glyph glyph-name="summation" unicode="&#x2211;" horiz-adv-x="569" 
d="M224 593l117 -289l-220 -338h377l-11 -68h-497l2 10l258 394l-143 346l3 13h468q-7 -39 -10 -68h-344z" />
    <glyph glyph-name="minus" unicode="&#x2212;" horiz-adv-x="536" 
d="M467 324l-8 -54h-378l8 54h378z" />
    <glyph glyph-name="radical" unicode="&#x221a;" horiz-adv-x="521" 
d="M40 328l113 54l60 -274l2 1q37 86 145 323q98 213 147 330h62l-364 -794h-17l-83 335l-54 -25q-1 6 -5.5 25.5t-5.5 24.5z" />
    <glyph glyph-name="infinity" unicode="&#x221e;" horiz-adv-x="738" 
d="M229 439q81 0 159 -106q41 38 61 54q64 52 133 52q57 0 91 -34t34 -89q0 -75 -53 -128q-52 -52 -123 -52q-41 0 -77 24t-80 80q-57 -54 -100.5 -79t-91.5 -25q-54 0 -89 36.5t-35 90.5q0 71 50 124q51 52 121 52zM219 382q-41 0 -69 -34q-29 -35 -29 -76q0 -34 21 -57
t54 -23q54 0 149 92q-17 24 -36 47q-42 51 -90 51zM570 382q-52 0 -150 -95q49 -65 67 -77q24 -18 54 -18q41 0 71 35q30 36 30 79q0 34 -20.5 55t-51.5 21z" />
    <glyph glyph-name="logicaland" unicode="&#x2227;" horiz-adv-x="536" 
d="M301 472l155 -472h-70l-111 347l-198 -347h-69l276 472h17z" />
    <glyph glyph-name="logicalor" unicode="&#x2228;" horiz-adv-x="536" 
d="M243 122l209 348h70l-288 -471h-17q-12 45 -70 229q-55 176 -73 242h69q18 -68 49 -171q34 -113 51 -177z" />
    <glyph glyph-name="intersection" unicode="&#x2229;" horiz-adv-x="536" 
d="M127 210l-29 -210h-66l29 212l11 70q15 87 75.5 139t149.5 52q81 0 127.5 -46.5t46.5 -124.5q0 -21 -10 -100l-28 -202h-68q1 8 14 99t23 166q2 26 2 28q0 55 -30 86.5t-87 31.5q-63 0 -103 -38t-48 -101z" />
    <glyph glyph-name="union" unicode="&#x222a;" horiz-adv-x="536" 
d="M68 257l29 212h66l-38 -271q-2 -24 -2 -26q0 -52 30 -81.5t86 -29.5q64 0 105 39.5t50 104.5q1 10 8 59l28 205h68l-28 -202l-10 -68q-15 -89 -77 -145q-61 -55 -153 -55q-81 0 -127 43t-46 118q0 36 11 97z" />
    <glyph glyph-name="integral" unicode="&#x222b;" horiz-adv-x="326" 
d="M113 13q13 99 24 261q11 171 19 242q10 108 46.5 162.5t109.5 54.5q39 0 70 -12q0 -5 -0.5 -26t-0.5 -27q-32 7 -61 7q-42 0 -65 -25.5t-30 -83.5q-11 -91 -17 -177l-10 -157q-5 -110 -19 -220l-2 -8q-12 -73 -51 -112t-101 -39q-25 0 -66 12l2 56q38 -11 67 -11
q40 0 59.5 25t25.5 78z" />
    <glyph glyph-name="approxequal" unicode="&#x2248;" horiz-adv-x="536" 
d="M426 284l29 -36q-45 -77 -113 -77q-31 0 -85 26t-72 26q-43 0 -82 -59l-29 37q49 76 113 76q31 0 85 -27q55 -26 73 -26q47 0 81 60zM442 436q5 -7 29 -37q-43 -73 -112 -73q-30 0 -87 26t-73 26q-41 0 -78 -54l-26 38q44 71 109 71q31 0 85 -27q55 -26 73 -26
q39 0 80 56z" />
    <glyph glyph-name="notequal" unicode="&#x2260;" horiz-adv-x="536" 
d="M463 261l-8 -53h-240l-92 -88h-55l92 88h-91l7 53h140l70 67h-201l8 54h250l83 79h54l-83 -79h83l-8 -54h-132l-70 -67h193z" />
    <glyph glyph-name="lessequal" unicode="&#x2264;" horiz-adv-x="536" 
d="M476 175l-9 -62l-413 184l2 13l464 183q-1 -8 -4.5 -32.5t-3.5 -30.5l-325 -125zM454 22h-439q7 42 8 55h439q-1 -7 -4.5 -28t-3.5 -27z" />
    <glyph glyph-name="greaterequal" unicode="&#x2265;" horiz-adv-x="536" 
d="M23 77h439l-8 -55h-439q7 42 8 55zM495 310l-2 -13l-465 -184l9 62l325 130l-289 125q1 8 4.5 32.5t3.5 30.5z" />
    <glyph glyph-name="lozenge" unicode="&#x25ca;" horiz-adv-x="541" 
d="M317 0h-27l-202 342l202 332h27l200 -332zM304 588l-147 -246l147 -258l143 258z" />
    <glyph glyph-name="zero.text" unicode="&#xe000;" horiz-adv-x="536" 
d="M319 671q115 0 160 -79q40 -70 40 -170q0 -97 -30 -199q-20 -66 -49 -114q-32 -53 -87 -86.5t-123 -33.5q-197 0 -197 242q0 103 30 205q20 67 48 115q32 53 86.5 86.5t121.5 33.5zM314 608q-64 1 -107.5 -45.5t-66.5 -118.5q-14 -43 -20 -87q-11 -84 -11 -124
q0 -181 128 -181q51 0 92 31.5t63 79.5q20 43 34 102q19 86 19 161q0 182 -131 182z" />
    <glyph glyph-name="one.text" unicode="&#xe001;" horiz-adv-x="401" 
d="M305 666h15l-93 -666h-75l77 548l-167 -96l11 77z" />
    <glyph glyph-name="two.text" unicode="&#xe002;" horiz-adv-x="525" 
d="M273 671q79 0 125 -44.5t46 -115.5q0 -63 -33.5 -134.5t-89.5 -134.5q-99 -109 -200 -181h272l-8 -61h-419l2 14q66 45 88 61q38 28 103 84q63 56 105 103q40 45 74 112q32 62 32 117q0 56 -29.5 85.5t-81.5 29.5q-93 0 -183 -72l10 73q86 64 187 64z" />
    <glyph glyph-name="three.text" unicode="&#xe003;" horiz-adv-x="534" 
d="M150 351q-2 2 -5 6.5t-4 5.5l222 234v4h-281l8 59h402q0 -1 -0.5 -6.5t-0.5 -7.5l-229 -238q81 -3 127.5 -46.5t46.5 -115.5q0 -114 -78 -185q-76 -70 -190 -70q-117 0 -188 56l11 78q71 -72 181 -72q83 0 136 53q54 52 54 130q0 59 -40 91t-108 32q-30 0 -64 -8z" />
    <glyph glyph-name="four.text" unicode="&#xe004;" horiz-adv-x="536" 
d="M357 372l71 94h14l-33 -239h84l-9 -59h-84l-23 -168h-73l24 168h-346l2 14l390 479h86l-359 -434h235z" />
    <glyph glyph-name="five.text" unicode="&#xe005;" horiz-adv-x="536" 
d="M270 413q84 0 139 -45q56 -44 56 -126v-7q-1 -110 -83 -178q-80 -66 -187 -66q-112 0 -186 56q1 14 11 79q27 -33 76 -53.5t103 -20.5q85 0 137 54q53 55 53 135q0 56 -39 85.5t-106 29.5q-78 0 -157 -43l-15 6l91 341h338l-7 -58h-278l-56 -208q45 19 110 19z" />
    <glyph glyph-name="six.text" unicode="&#xe006;" horiz-adv-x="536" 
d="M114 389l199 272h81l-207 -279l5 -1q38 29 104 29q83 0 133 -48t50 -126q0 -106 -75 -177q-73 -70 -181 -70q-93 0 -147 48t-54 129q0 98 92 223zM275 352q-73 0 -126 -48q-52 -46 -52 -126q0 -58 35.5 -92.5t99.5 -34.5q77 0 125 51q49 50 49 125q0 56 -35.5 90.5
t-95.5 34.5z" />
    <glyph glyph-name="seven.text" unicode="&#xe007;" horiz-adv-x="451" 
d="M473 645l-373 -645h-74l347 601h-316q1 18 8 59h410z" />
    <glyph glyph-name="eight.text" unicode="&#xe008;" horiz-adv-x="536" 
d="M316 609q-61 0 -103 -39t-42 -96q0 -45 31 -72t82 -27q58 0 101 38q42 39 42 96q0 45 -30 72.5t-81 27.5zM275 322q-73 0 -123 -45q-49 -43 -49 -110q0 -52 36 -84t99 -32q76 0 122 46q48 47 48 113q0 51 -35.5 81.5t-97.5 30.5zM325 672q76 0 125 -42q50 -41 50 -109
q0 -54 -30.5 -100t-80.5 -64l-1 -4q92 -41 92 -139q0 -99 -73 -162q-74 -62 -178 -62q-92 0 -146 43t-54 117q0 64 37.5 118t99.5 78l2 4q-70 36 -70 119q0 88 67 145q67 58 160 58z" />
    <glyph glyph-name="nine.text" unicode="&#xe009;" horiz-adv-x="536" 
d="M314 671q92 0 144.5 -47.5t52.5 -128.5q0 -101 -85 -216l-204 -279h-81l207 279l-3 4q-40 -31 -105 -31q-83 0 -132.5 48t-49.5 126q0 106 74 175q74 70 182 70zM262 311q72 0 124 47q51 46 51 126q0 57 -35 91t-97 34q-75 0 -125 -51q-49 -50 -49 -124q0 -55 35.5 -89
t95.5 -34z" />
    <glyph glyph-name="numbersign.text" unicode="&#xe00a;" horiz-adv-x="510" 
d="M387 453l64 174h48q-6 -16 -62 -174h79l-6 -43h-89l-59 -163h88q-4 -35 -7 -44h-96l-71 -203h-50l73 203h-147l-71 -203h-49l72 203h-81l6 44h90l59 163h-91q3 16 4 25q0 5 0.5 9t0.5 6l1 3h99l65 174h47l-62 -174h145zM372 410h-146l-58 -163h146z" />
    <glyph glyph-name="dollar.text" unicode="&#xe00b;" horiz-adv-x="517" 
d="M232 -98h-54l13 94q-104 6 -166 52l10 72q79 -63 177 -63q74 0 117.5 37.5t43.5 100.5q0 69 -97 117q-5 2 -29.5 15t-32 17t-28 16.5t-28.5 20t-22.5 21t-20.5 25.5t-11 28.5t-5 33.5q0 78 53 122q52 43 133 51l13 98h55l-14 -97q72 -4 131 -37l-10 -73q-67 50 -149 50
q-61 0 -100 -28t-39 -86q0 -49 97 -100q38 -18 63 -32.5t55.5 -38.5t46 -55.5t15.5 -68.5q0 -83 -58 -135q-60 -54 -146 -61z" />
    <glyph glyph-name="euro.text" unicode="&#xe00c;" horiz-adv-x="536" 
d="M34 269l5 41h400l-6 -41h-278q-9 -95 40.5 -153t145.5 -58q65 0 137 31l-13 -69q-64 -26 -137 -26q-110 0 -180 66t-70 182q0 3 2 27h-46zM452 404l-6 -41h-399l5 41h51q32 123 116 193q86 71 196 71q71 0 122 -18l-2 -68q-50 19 -116 19q-82 0 -150 -53
q-67 -53 -89 -144h272z" />
    <glyph glyph-name="florin.text" unicode="&#xe00d;" horiz-adv-x="461" 
d="M187 345h-80l3 55h87l18 90q18 94 57.5 137.5t108.5 43.5q38 0 73 -13l-2 -64q-38 12 -63 12q-43 0 -67 -28t-36 -91l-16 -87h97l-4 -55h-102l-34 -178q-29 -147 -68 -200q-39 -57 -112 -57q-40 0 -79 16l2 71q46 -17 71 -17q49 0 72 44q23 45 48 181z" />
    <glyph glyph-name="sterling.text" unicode="&#xe00e;" horiz-adv-x="536" 
d="M515 647l-9 -66q-55 21 -88 21q-137 0 -157 -150l-12 -91h172l-7 -51h-174q-25 -169 -97 -250h295q-1 -10 -8 -60h-398q0 2 0.5 6.5t0.5 5.5q104 103 134 298h-76l7 51h77l7 46l6 46q19 123 94 172q62 40 130 40q56 0 103 -18z" />
    <glyph glyph-name="cent.text" unicode="&#xe00f;" horiz-adv-x="500" 
d="M283 5h-54l15 104q-75 10 -116 63.5t-41 133.5q0 106 62 179q62 72 160 86l15 110h54l-15 -108q53 -1 93 -19q-7 -39 -10 -68q-37 25 -97 25q-85 0 -135 -57t-50 -156q0 -58 36 -93t99 -35q73 0 125 34q-2 -8 -5.5 -34t-4.5 -33q-47 -26 -116 -30z" />
    <glyph glyph-name="yen.text" unicode="&#xe010;" horiz-adv-x="536" 
d="M42 185l6 40h431l-7 -40h-179l-26 -185h-77l25 185h-173zM492 320l-6 -41h-430l6 41h154l-132 342h81l107 -318h4l204 318h81l-231 -342h162z" />
    <glyph glyph-name="zero.taboldstyle" unicode="&#xe024;" horiz-adv-x="510" 
d="M284 456q91 0 145 -55q55 -55 55 -141q0 -112 -79 -191q-78 -79 -186 -79q-94 0 -148 53t-54 140q0 113 79 192q80 81 188 81zM276 394q-79 0 -131 -61q-52 -59 -52 -142q0 -63 36 -100.5t99 -37.5q79 0 130 59q52 58 52 141q0 62 -36 101.5t-98 39.5z" />
    <glyph glyph-name="one.taboldstyle" unicode="&#xe025;" horiz-adv-x="510" 
d="M433 0h-403l8 58h173l18 125l24 174l-168 -80q2 8 5.5 34.5t4.5 34.5l232 107h13l-56 -395h157q-7 -41 -8 -58z" />
    <glyph glyph-name="two.taboldstyle" unicode="&#xe026;" horiz-adv-x="510" 
d="M195 63q0 -1 -0.5 -3l-0.5 -2h244q-1 -17 -8 -58h-430v15q112 49 232 126q69 44 109.5 92.5t40.5 91.5q0 35 -30 54t-80 19q-88 0 -187 -51l12 65q102 50 191 50q82 0 126.5 -33t44.5 -86q0 -84 -95 -166q-80 -67 -169 -114z" />
    <glyph glyph-name="three.taboldstyle" unicode="&#xe027;" horiz-adv-x="510" 
d="M117 159q-3 9 -7 13l211 211h-254l9 61h371l-2 -15l-217 -216q78 -3 123 -46.5t45 -115.5q0 -101 -74 -163t-175 -62q-105 0 -170 55l8 73q68 -67 167 -67q74 0 123 47q49 46 49 119q0 54 -39 84.5t-101 30.5q-31 0 -67 -9z" />
    <glyph glyph-name="four.taboldstyle" unicode="&#xe028;" horiz-adv-x="510" 
d="M-21 13l353 431h76l-320 -387h206l20 151l66 80h17l-16 -115q-3 -19 -6.5 -45t-6 -43t-3.5 -28h91l-8 -57h-91l-25 -170h-70l24 170h-308q0 2 0.5 7t0.5 6z" />
    <glyph glyph-name="five.taboldstyle" unicode="&#xe029;" horiz-adv-x="510" 
d="M242 221q82 0 133 -43.5t51 -119.5v-6q-1 -104 -77 -166q-74 -61 -175 -61q-102 0 -173 54l11 75q24 -30 69.5 -48.5t97.5 -18.5q74 0 124 46q51 46 51 116q0 51 -37.5 83t-97.5 32q-71 0 -142 -40l-15 5l84 315h306l-9 -61h-252l-47 -180q47 18 98 18z" />
    <glyph glyph-name="six.taboldstyle" unicode="&#xe02a;" horiz-adv-x="510" 
d="M286 382q77 0 124.5 -45.5t47.5 -118.5q0 -98 -72 -162q-73 -65 -174 -65q-85 0 -132 43t-47 116q0 65 33 124q19 36 31 53l16 22q2 3 7.5 10t8.5 12l14 19l157 218h80l-176 -239q0 -1 1 -2q31 15 81 15zM260 324q-64 0 -108 -48q-44 -47 -44 -113q0 -51 30 -81.5
t84 -30.5q65 0 114 44q49 45 49 112q0 50 -35 83.5t-90 33.5z" />
    <glyph glyph-name="seven.taboldstyle" unicode="&#xe02b;" horiz-adv-x="510" 
d="M468 427l-347 -595h-77l321 551h-302l9 61h398z" />
    <glyph glyph-name="eight.taboldstyle" unicode="&#xe02c;" horiz-adv-x="510" 
d="M262 293q-58 0 -104 -41q-44 -41 -44 -101q0 -45 30.5 -73.5t83.5 -28.5q62 0 103 42q42 42 42 97q0 47 -31.5 76t-79.5 29zM307 618q69 0 112 -39t43 -103q0 -44 -26 -87.5t-68 -68.5q78 -40 78 -127q0 -88 -67 -146q-66 -57 -160 -57q-83 0 -131.5 39.5t-48.5 108.5
q0 55 34 107t87 73q-57 36 -57 113q0 82 61 134q62 53 143 53zM297 554q-50 0 -88 -35t-38 -84q0 -38 27 -63.5t70 -25.5q50 0 87 35q36 35 36 83q0 40 -26.5 65t-67.5 25z" />
    <glyph glyph-name="nine.taboldstyle" unicode="&#xe02d;" horiz-adv-x="510" 
d="M288 455q85 0 132.5 -43t47.5 -116q0 -39 -13 -77q-14 -40 -27 -61q-12 -20 -37 -56l-195 -270h-79l180 245q0 1 -1 2q-33 -15 -81 -15q-79 0 -125 46t-46 117q0 99 70 163q71 65 174 65zM241 122q64 0 108 47q44 49 44 113q0 52 -30 82t-84 30q-66 0 -115 -44
q-47 -44 -47 -112q0 -53 34 -84.5t90 -31.5z" />
    <glyph glyph-name="numbersign.taboldstyle" unicode="&#xe02e;" horiz-adv-x="510" 
d="M363 359l49 131h48l-49 -131h68l-7 -48h-77l-42 -112h74q-1 -6 -3 -22.5t-3 -22.5h-84l-56 -154h-48l56 154h-107l-58 -154h-48l56 154h-64q3 9 7 45h73l43 112h-73l7 48h82l48 131h50l-50 -131h108zM346 311h-108l-41 -112h106z" />
    <glyph glyph-name="dollar.taboldstyle" unicode="&#xe02f;" horiz-adv-x="510" 
d="M235 -93h-53l13 87q-87 6 -147 45l9 68q70 -55 156 -55q63 0 101 27t38 77q0 31 -25 55.5t-60 42t-70.5 36t-60.5 47t-25 65.5q0 64 45.5 104t117.5 47l12 85h51l-12 -85q61 -3 117 -34l-9 -66q-58 41 -132 41q-51 0 -83.5 -21.5t-32.5 -66.5q0 -27 37 -52q33 -22 83 -44
q46 -20 82 -56q38 -38 38 -86q0 -72 -48.5 -117.5t-128.5 -54.5z" />
    <glyph glyph-name="euro.taboldstyle" unicode="&#xe030;" horiz-adv-x="510" 
d="M413 346l-6 -44h-355l7 44h44q28 102 106 155q79 53 178 53q52 0 99 -14l-5 -65q-45 15 -99 15q-151 0 -202 -144h233zM39 212l7 43h354l-6 -43h-239q-3 -75 43 -117t121 -42q59 0 118 24l-9 -64q-63 -22 -124 -22q-101 0 -164 57q-62 59 -59 164h-42z" />
    <glyph glyph-name="florin.taboldstyle" unicode="&#xe031;" horiz-adv-x="510" 
d="M225 281h-74l5 54h80q13 74 14 77q17 85 55.5 125t103.5 40q29 0 69 -12l-1 -58q-32 7 -60 7q-81 0 -97 -103q-8 -35 -14 -76h92l-5 -54h-97l-31 -158q-26 -128 -59 -177q-33 -51 -103 -51q-37 0 -75 16l1 63q37 -15 67 -15q41 0 61 38q18 34 44 162z" />
    <glyph glyph-name="sterling.taboldstyle" unicode="&#xe032;" horiz-adv-x="510" 
d="M458 539l-4 -60q-41 16 -96 16q-48 0 -82 -30.5t-42 -90.5l-9 -71h150q-7 -44 -8 -51h-151q-19 -137 -74 -193h253l-7 -59h-357l2 13q47 29 75 100q29 76 38 139h-67q1 7 8 51h67l11 73q7 50 29 87.5t53 56.5q56 33 118 33q54 0 93 -14z" />
    <glyph glyph-name="cent.taboldstyle" unicode="&#xe033;" horiz-adv-x="510" 
d="M267 -30h-52l13 90q-65 7 -100.5 49.5t-35.5 107.5q0 87 53 151q52 62 136 70l13 89h51l-12 -88q43 -1 72 -15l-8 -66q-35 23 -85 23q-60 0 -103 -43q-44 -44 -44 -113q0 -48 29.5 -77t80.5 -29q54 0 107 32l-8 -65q-35 -18 -94 -26z" />
    <glyph glyph-name="yen.taboldstyle" unicode="&#xe034;" horiz-adv-x="510" 
d="M461 299l-6 -44h-395l7 44h129l-110 244h80l101 -247l158 247h80l-168 -244h124zM54 207h394l-5 -43h-155q-5 -45 -23 -164h-74q20 145 23 164h-166q2 5 6 43z" />
    <glyph glyph-name="zero.textoldstyle" unicode="&#xe048;" horiz-adv-x="510" 
d="M284 456q91 0 145 -56q55 -55 55 -141q0 -111 -79 -190q-78 -79 -186 -79q-94 0 -148 53t-54 140q0 113 78 192q79 81 189 81zM276 394q-79 0 -131 -61q-52 -59 -52 -142q0 -63 36 -100.5t99 -37.5q79 0 130 59q52 58 52 140q0 63 -36 102.5t-98 39.5z" />
    <glyph glyph-name="one.textoldstyle" unicode="&#xe049;" horiz-adv-x="461" 
d="M419 0h-403l8 59h173l42 298l-168 -80l10 69l232 109h13l-56 -396h157z" />
    <glyph glyph-name="two.textoldstyle" unicode="&#xe04a;" horiz-adv-x="510" 
d="M173 63q0 -1 -0.5 -3l-0.5 -2h244q-7 -41 -8 -58h-430q0 1 0.5 7t0.5 8q106 47 230 126q70 44 110.5 92.5t40.5 91.5q0 35 -30 54t-80 19q-88 0 -187 -51l11 65q102 50 192 50q81 0 126 -33t45 -86q0 -84 -95 -166q-80 -67 -169 -114z" />
    <glyph glyph-name="three.textoldstyle" unicode="&#xe04b;" horiz-adv-x="459" 
d="M97 159l-6 13l210 211h-253q0 7 4 31t4 30h372l-2 -15l-217 -216q76 -3 122 -46.5t46 -115.5q0 -101 -74 -163t-176 -62q-105 0 -169 55q1 8 8 73q67 -67 167 -67q75 0 123 48q49 46 49 118q0 53 -39 84t-101 31q-31 0 -68 -9z" />
    <glyph glyph-name="four.textoldstyle" unicode="&#xe04c;" horiz-adv-x="510" 
d="M-21 13l353 431h76l-320 -387h206l20 151l66 80h17l-16 -115q-3 -19 -6.5 -45t-6 -43t-3.5 -28h91l-8 -57h-91l-25 -170h-70l24 170h-308q0 2 0.5 7t0.5 6z" />
    <glyph glyph-name="five.textoldstyle" unicode="&#xe04d;" horiz-adv-x="493" 
d="M230 221q82 0 133 -43.5t51 -119.5q0 -109 -76 -170q-75 -63 -177 -63q-103 0 -171 54l10 75q24 -30 69.5 -48.5t96.5 -18.5q75 0 125 46q51 46 51 116q0 51 -38 83t-97 32q-72 0 -142 -40q-10 5 -15 5l84 315h305q-1 -6 -4 -30.5t-4 -30.5h-252l-47 -180q46 18 98 18z
" />
    <glyph glyph-name="six.textoldstyle" unicode="&#xe04e;" horiz-adv-x="510" 
d="M286 382q77 0 124.5 -45.5t47.5 -118.5q0 -98 -72 -162q-73 -65 -174 -65q-85 0 -132 43t-47 116q0 65 33 124q19 36 31 53l16 22q2 3 7.5 10t8.5 12l14 19l157 218h80l-176 -239q0 -1 1 -2q31 15 81 15zM260 324q-64 0 -108 -48q-44 -47 -44 -113q0 -51 30 -81.5
t84 -30.5q65 0 114 44q49 45 49 112q0 50 -35 83.5t-90 33.5z" />
    <glyph glyph-name="seven.textoldstyle" unicode="&#xe04f;" horiz-adv-x="450" 
d="M430 427l-347 -595h-77l320 551h-301l9 61h398z" />
    <glyph glyph-name="eight.textoldstyle" unicode="&#xe050;" horiz-adv-x="510" 
d="M262 293q-58 0 -104 -41q-44 -41 -44 -101q0 -45 30.5 -73.5t83.5 -28.5q62 0 103 42q42 42 42 97q0 47 -31.5 76t-79.5 29zM307 618q69 0 112 -39t43 -103q0 -44 -26 -87.5t-68 -68.5q78 -40 78 -127q0 -88 -67 -146q-66 -57 -160 -57q-83 0 -131.5 39.5t-48.5 108.5
q0 55 34 107t87 73q-57 36 -57 113q0 82 61 134q62 53 143 53zM297 554q-50 0 -88 -35t-38 -84q0 -38 27 -63.5t70 -25.5q50 0 87 35q36 35 36 83q0 40 -26.5 65t-67.5 25z" />
    <glyph glyph-name="nine.textoldstyle" unicode="&#xe051;" horiz-adv-x="510" 
d="M288 455q85 0 132.5 -43t47.5 -116q0 -39 -13 -77q-14 -40 -27 -61q-12 -20 -37 -56l-195 -270h-79l180 245q0 1 -1 2q-33 -15 -81 -15q-79 0 -125 46t-46 117q0 99 70 163q71 65 174 65zM241 122q64 0 108 47q44 49 44 113q0 52 -30 82t-84 30q-66 0 -115 -44
q-47 -44 -47 -112q0 -53 34 -84.5t90 -31.5z" />
    <glyph glyph-name="numbersign.textoldstyle" unicode="&#xe052;" horiz-adv-x="457" 
d="M364 490h48l-47 -131h68l-7 -48h-79q-15 -39 -40 -112h72l-6 -45h-83l-56 -154h-48l57 154h-109l-56 -154h-49l56 154h-64l6 45h75l42 112h-73l7 48h82l48 131h51l-51 -131h108q40 104 48 131zM299 311h-108l-41 -112h107l20 52z" />
    <glyph glyph-name="dollar.textoldstyle" unicode="&#xe053;" horiz-adv-x="450" 
d="M197 -93h-53l12 87q-87 6 -147 45l9 68q71 -55 156 -55q63 0 101 27t38 77q0 56 -85 98q-4 2 -20.5 10t-22.5 11t-20.5 10.5t-21 12t-18.5 13t-18 14.5t-14 15.5t-11.5 18.5t-6.5 20t-3 23q0 66 47 105q47 38 116 46l12 85h51l-12 -85q61 -3 117 -34l-9 -66
q-58 41 -131 41q-51 0 -84 -21.5t-33 -66.5q0 -27 37 -52q33 -22 83 -44q46 -20 82 -56q38 -38 38 -86q0 -72 -48.5 -117.5t-128.5 -54.5z" />
    <glyph glyph-name="euro.textoldstyle" unicode="&#xe054;" horiz-adv-x="493" 
d="M405 346l-6 -44h-355l6 44h45q29 100 105 154t179 54q55 0 99 -14l-5 -65q-45 15 -99 15q-151 0 -202 -144h233zM31 212l7 43h354l-6 -43h-239q-3 -75 43 -117t121 -42q59 0 118 24l-9 -64q-65 -22 -124 -22q-101 0 -164 57q-62 59 -59 164h-42z" />
    <glyph glyph-name="florin.textoldstyle" unicode="&#xe055;" horiz-adv-x="407" 
d="M168 281h-73l4 54h80q13 74 14 77q17 85 55.5 125t103.5 40q30 0 69 -12l-1 -58q-32 7 -60 7q-81 0 -97 -103q-8 -35 -14 -76h92l-5 -54h-97l-30 -158q-26 -128 -59 -177q-33 -51 -103 -51q-39 0 -75 16v63q37 -15 67 -15q41 0 61 38q18 34 44 162z" />
    <glyph glyph-name="sterling.textoldstyle" unicode="&#xe056;" horiz-adv-x="444" 
d="M432 539l-4 -60q-41 16 -95 16q-49 0 -82.5 -30.5t-41.5 -90.5l-10 -71h150q0 -5 -3.5 -25t-4.5 -26h-151q-19 -137 -74 -193h254q-7 -49 -8 -59h-356q0 2 0.5 7t0.5 6q47 29 75 100q29 76 38 139h-67q1 6 4.5 26t3.5 25h68q1 17 12 78q16 102 84 141q55 31 114 31
q54 0 93 -14z" />
    <glyph glyph-name="cent.textoldstyle" unicode="&#xe057;" horiz-adv-x="430" 
d="M237 -30h-51l13 90q-65 7 -100.5 49.5t-35.5 107.5q0 87 53 151q52 62 136 70l12 89h52l-12 -88q44 -1 72 -15l-9 -66q-35 23 -84 23q-60 0 -104 -43q-44 -44 -44 -113q0 -48 29.5 -77t80.5 -29q55 0 108 32l-9 -65q-36 -19 -93 -26z" />
    <glyph glyph-name="yen.textoldstyle" unicode="&#xe058;" horiz-adv-x="463" 
d="M438 299l-7 -44h-394l6 44h129l-109 244h79l101 -247l158 247h80l-167 -244h124zM25 164l5 43h395l-6 -43h-154q-3 -19 -23 -164h-75l23 164h-165z" />
    <glyph glyph-name="percent.text" unicode="&#xe059;" horiz-adv-x="646" 
d="M185 300q-54 0 -85 30.5t-31 79.5q0 64 45 110q47 47 108 47q52 0 83 -31.5t31 -81.5q0 -61 -44 -108q-43 -46 -107 -46zM215 513q-38 0 -63.5 -28t-25.5 -68q0 -29 18 -46.5t49 -17.5q36 0 61 27.5t25 63.5q0 30 -17.5 49.5t-46.5 19.5zM521 580h58l-442 -595h-58z
M434 -6q-54 0 -85 30t-31 79q0 63 45 110q46 46 108 46q51 0 82.5 -31.5t31.5 -81.5q0 -19 -2 -25q-9 -53 -51 -91q-42 -36 -98 -36zM463 205q-38 0 -63 -28t-25 -68q0 -29 17.5 -46t48.5 -17q36 0 61 27.5t25 64.5q0 30 -17.5 48.5t-46.5 18.5z" />
    <glyph glyph-name="perthousand.text" unicode="&#xe05a;" horiz-adv-x="944" 
d="M185 300q-54 0 -85 30.5t-31 79.5q0 64 45 110q47 47 108 47q52 0 83 -31.5t31 -81.5q0 -61 -44 -108q-43 -46 -107 -46zM215 513q-38 0 -63.5 -28t-25.5 -68q0 -29 18 -46.5t49 -17.5q36 0 61 27.5t25 63.5q0 30 -17.5 49.5t-46.5 19.5zM521 580h58l-442 -595h-58z
M434 -6q-54 0 -85 30t-31 79q0 63 45 110q46 46 108 46q51 0 82.5 -31.5t31.5 -81.5q0 -19 -2 -25q-9 -53 -51 -91q-42 -36 -98 -36zM463 205q-38 0 -63 -28t-25 -68q0 -29 17.5 -46t48.5 -17q36 0 61 27.5t25 64.5q0 30 -17.5 48.5t-46.5 18.5zM736 -6q-54 0 -85 30t-31 79
q0 63 45 110q46 46 108 46q51 0 82.5 -31.5t31.5 -80.5q0 -62 -44 -108q-43 -45 -107 -45zM766 205q-38 0 -63.5 -28t-25.5 -67q0 -30 17.5 -47t49.5 -17q36 0 61 27.5t25 63.5q0 30 -17.5 49t-46.5 19z" />
    <glyph glyph-name="asuperior" unicode="&#xe06c;" horiz-adv-x="347" 
d="M363 590l-46 -292h-40q0 7 -0.5 28t-0.5 27q-39 -61 -115 -61q-59 0 -89.5 34t-30.5 90q0 81 46 131.5t119 50.5q77 0 101 -60l14 52h42zM206 550q-47 0 -76 -36.5t-29 -89.5q0 -83 73 -83q47 0 78.5 36t31.5 90q0 37 -21 60t-57 23z" />
    <glyph glyph-name="bsuperior" unicode="&#xe06d;" horiz-adv-x="382" 
d="M47 300l70 465h60q-2 -16 -17 -103l-18 -106q44 47 110 47q62 0 97 -35t35 -90q0 -85 -49 -135q-50 -50 -123 -50t-106 52q-11 -35 -14 -45h-45zM208 345q51 0 81.5 34.5t30.5 87.5q0 85 -76 85q-48 0 -80.5 -35.5t-32.5 -86.5q0 -38 20.5 -61t56.5 -24z" />
    <glyph glyph-name="dsuperior" unicode="&#xe06f;" horiz-adv-x="375" 
d="M315 560l31 205h60l-69 -465h-47q0 4 -0.5 18.5t-0.5 18.5q-43 -43 -114 -43q-59 0 -93 35.5t-34 89.5q0 82 49 132q49 52 118 52q67 0 100 -43zM189 345q48 0 79.5 35.5t31.5 90.5q0 37 -20 58.5t-58 21.5q-50 0 -80.5 -35t-30.5 -88q0 -39 20 -61t58 -22z" />
    <glyph glyph-name="esuperior" unicode="&#xe070;" horiz-adv-x="331" 
d="M223 602q51 0 80 -24t29 -62q0 -96 -199 -96q-14 0 -19 1q0 -1 -2 -3q1 -35 21.5 -55t57.5 -20q66 0 124 46l-10 -61q-59 -35 -121 -35q-67 0 -101.5 34t-34.5 94q0 76 49 128q50 53 126 53zM221 551q-38 0 -66 -23.5t-39 -63.5q18 -2 41 -2q55 0 84.5 14t29.5 36
q0 39 -50 39z" />
    <glyph glyph-name="egravesuperior" unicode="&#xe071;" horiz-adv-x="332" 
d="M180 758l94 -118h-48l-95 83q7 4 26.5 18.5t22.5 16.5zM223 602q51 0 80 -24t29 -62q0 -96 -199 -96q-14 0 -19 1q0 -1 -2 -3q1 -35 21.5 -55t57.5 -20q66 0 124 46l-10 -61q-59 -35 -121 -35q-67 0 -101.5 34t-34.5 94q0 76 49 128q50 53 126 53zM221 551
q-38 0 -66 -23.5t-39 -63.5q18 -2 41 -2q55 0 84.5 14t29.5 36q0 39 -50 39z" />
    <glyph glyph-name="hsuperior" unicode="&#xe073;" horiz-adv-x="357" 
d="M113 763h58l-33 -222q42 58 114 58q112 0 95 -114l-25 -185h-60l25 175q5 36 -10 55t-46 19q-37 0 -67.5 -30.5t-38.5 -84.5l-19 -134h-58z" />
    <glyph glyph-name="isuperior" unicode="&#xe074;" horiz-adv-x="149" 
d="M92 592h60l-41 -292h-60zM140 720q13 0 22.5 -9t9.5 -21q0 -18 -12 -30.5t-30 -12.5q-14 0 -23.5 9.5t-9.5 22.5q0 17 13.5 29t29.5 12z" />
    <glyph glyph-name="lsuperior" unicode="&#xe077;" horiz-adv-x="141" 
d="M113 762h58l-65 -462h-58z" />
    <glyph glyph-name="msuperior" unicode="&#xe078;" horiz-adv-x="555" 
d="M108 300h-59l41 292h42l3 -54q40 61 110 61q74 0 89 -61q22 29 55.5 45t63.5 16q45 0 69.5 -24.5t24.5 -69.5q0 -1 -2 -25l-25 -180h-60l25 178q1 4 1 16q0 56 -54 56q-33 0 -61.5 -24.5t-34.5 -67.5l-22 -158h-59l24 170q1 5 1 21q0 59 -55 59q-32 0 -61.5 -28.5
t-35.5 -73.5z" />
    <glyph glyph-name="osuperior" unicode="&#xe079;" horiz-adv-x="362" 
d="M227 603q65 0 101 -36t36 -96q0 -75 -49 -127q-49 -51 -127 -51q-66 0 -103 35t-37 96q0 75 49 127t130 52zM224 550q-48 0 -79.5 -35.5t-31.5 -87.5q0 -38 20.5 -61t56.5 -23q50 0 81 37q32 38 32 88q0 37 -21.5 59.5t-57.5 22.5z" />
    <glyph glyph-name="rsuperior" unicode="&#xe07c;" horiz-adv-x="241" 
d="M89 592h40q0 -6 0.5 -30t0.5 -32q15 35 47 52.5t68 17.5q26 0 39 -4l-8 -56q-26 8 -47 8q-33 0 -53 -16.5t-35 -48.5q-9 -19 -14 -47l-9 -49l-7 -55l-4 -32h-59z" />
    <glyph glyph-name="ssuperior" unicode="&#xe07d;" horiz-adv-x="255" 
d="M21 321q7 44 8 57q47 -37 97 -37q67 0 67 43q0 29 -67 53q-27 10 -47 30.5t-20 46.5q0 41 34 65t83 24q51 0 91 -22q-1 -6 -4 -27.5t-4 -27.5q-47 27 -83 27q-55 0 -55 -36q0 -12 21 -23.5t45.5 -21t45.5 -31t21 -51.5q0 -46 -36 -71.5t-93 -25.5q-58 0 -104 28z" />
    <glyph glyph-name="tsuperior" unicode="&#xe07e;" horiz-adv-x="225" 
d="M110 597l53 85h18l-12 -86h82q-1 -6 -3 -24.5t-3 -24.5h-82l-23 -158q-1 -3 -1 -14q0 -31 32 -31q26 0 63 22l-7 -51q-31 -22 -73 -22h-4q-74 2 -74 68q0 14 3 29l22 157h-49q2 8 5 36z" />
    <glyph glyph-name="i.dot" unicode="&#xe096;" horiz-adv-x="231" 
d="M179 445l-62 -445h-75l62 445h75zM169 629q18 0 29 -11.5t11 -29.5q0 -22 -16 -38t-37 -16q-19 0 -30 11t-11 29q0 21 16.5 38t37.5 17z" />
    <glyph glyph-name="a.alt" unicode="&#xe0a8;" horiz-adv-x="491" 
d="M323 55q-1 0 -3 0.5l-2 0.5q-68 -66 -160 -66q-69 0 -103 31t-34 80q0 78 59 121t166 43h103l3 21q1 4 1 16q0 93 -105 93q-68 0 -147 -41l9 64q31 16 77 27q43 10 78 10q184 0 160 -175l-39 -280h-62q0 42 -1 55zM339 186l4 31h-104q-67 0 -104.5 -26.5t-37.5 -76.5
q0 -32 25 -49.5t67 -17.5q61 0 100.5 38t49.5 101z" />
    <glyph glyph-name="g.alt" unicode="&#xe0a9;" horiz-adv-x="547" 
d="M382 23l8 47h-2l-2 1q-65 -80 -164 -80q-90 0 -139 51t-49 134q0 129 70 203q70 75 180 75q49 0 89.5 -23t61.5 -64h5l23 78h50l-60 -421q-17 -121 -90 -187t-195 -66q-44 0 -95 13q-50 12 -84 35l8 70q78 -57 171 -57q86 0 142.5 51t71.5 140zM286 392q-78 0 -127 -58
q-48 -58 -48 -142q0 -66 30.5 -103.5t91.5 -37.5q76 0 125 58q50 59 50 142q0 64 -32 102t-90 39z" />
    <glyph glyph-name="A2.alt" unicode="&#xe0b6;" horiz-adv-x="611" 
d="M562 0h-78l-139 514h-3l-282 -514h-81l380 670h14z" />
    <glyph glyph-name="F.alt" unicode="&#xe0b7;" horiz-adv-x="510" 
d="M162 293l-71 -508h-79l124 876h416l-10 -67h-337l-33 -234h306q0 -2 -9 -67h-307z" />
    <glyph glyph-name="I.alt" unicode="&#xe0b8;" horiz-adv-x="254" 
d="M244 813l-113 -813h-79l114 813h78z" />
    <glyph glyph-name="L.alt" unicode="&#xe0b9;" horiz-adv-x="506" 
d="M43 0l114 813h79l-105 -745h339l-9 -68h-418z" />
    <glyph glyph-name="P2.alt" unicode="&#xe0ba;" horiz-adv-x="558" 
d="M91 -215h-80l123 875h222q98 0 150 -52t52 -137q0 -110 -78 -176t-185 -66h-142zM326 597h-121l-43 -305h127q93 0 140 54q47 55 47 124q0 59 -36.5 93t-113.5 34z" />
    <glyph glyph-name="T.alt" unicode="&#xe0bb;" horiz-adv-x="521" 
d="M585 813l-9 -67h-206l-105 -746h-79l104 746h-206l9 67h492z" />
    <glyph glyph-name="Y.alt" unicode="&#xe0bc;" horiz-adv-x="585" 
d="M186 -215h-77l108 208l-157 666h81l127 -570h3l290 570h78z" />
    <glyph glyph-name="Q.alt" unicode="&#xe0bd;" horiz-adv-x="756" 
d="M261 -72l381 -72l-29 -70l-383 71zM433 671q133 0 208 -81q76 -79 76 -210q0 -164 -109 -276q-108 -112 -263 -112q-133 0 -209 79t-76 206q0 162 108 278q110 116 265 116zM428 602q-119 0 -203 -95q-83 -95 -83 -226q0 -98 55 -160q56 -62 151 -62q122 0 205 92t83 226
q0 97 -56 161q-55 64 -152 64z" />
    <glyph glyph-name="Q2.alt" unicode="&#xe0be;" horiz-adv-x="756" 
d="M433 671q134 0 209 -81q76 -79 76 -210q0 -155 -97 -264t-240 -121l-29 -209h-73l29 208q-116 11 -182 87q-66 77 -66 196q0 162 108 278t265 116zM428 602q-119 0 -203 -95q-83 -95 -83 -226q0 -91 47 -150t129 -67l34 223h70l-30 -222q106 15 175 103t69 209
q0 97 -56 161q-55 64 -152 64z" />
    <glyph glyph-name="uniE0C0" unicode="&#xe0c0;" horiz-adv-x="510" 
d="M564 745h-338l-104 -745h-79l114 812h416z" />
    <glyph glyph-name="uniE0C4" unicode="&#xe0c4;" horiz-adv-x="773" 
d="M442 670q135 0 213 -80q79 -79 79 -212q0 -153 -97 -263q-96 -110 -245 -122l-29 -207h-76l29 206q-121 9 -189 86q-67 77 -67 197q0 165 112 280t270 115zM141 279q0 -93 48 -154q49 -61 137 -68l76 543q-111 -10 -186 -105t-75 -216zM654 377q0 88 -47 150
q-47 61 -129 72l-76 -540q110 14 180 104q72 91 72 214z" />
    <glyph glyph-name="uniE0C5" unicode="&#xe0c5;" horiz-adv-x="738" 
d="M370 -5l-30 -210h-78l30 210q-106 9 -165 70t-59 159q0 23 3 47l55 390h78l-56 -394q-3 -18 -3 -34q0 -71 41 -117t116 -50l84 595h78l-83 -594q89 5 143 59q56 56 68 138l56 397h79q-29 -195 -57 -400q-17 -114 -96 -187t-204 -79z" />
    <glyph glyph-name="Parenleft" unicode="&#xe0d8;" horiz-adv-x="289" 
d="M298 767l41 -16q-200 -245 -200 -512q0 -170 81 -323l-47 -17q-100 157 -100 352q0 134 59 267.5t166 248.5z" />
    <glyph glyph-name="Parenright" unicode="&#xe0d9;" horiz-adv-x="289" 
d="M88 751l46 15q104 -160 104 -346q0 -130 -60 -270q-60 -139 -163 -251q-3 1 -19.5 8.5t-22.5 9.5q198 246 198 512q0 170 -83 322z" />
    <glyph glyph-name="Hyphen" unicode="&#xe0da;" horiz-adv-x="367" 
d="M304 243h-252l9 62h251q0 -7 -4 -31.5t-4 -30.5z" />
    <glyph glyph-name="Bracketleft" unicode="&#xe0db;" horiz-adv-x="259" 
d="M176 -92h-159l120 853h159l-7 -52h-94l-105 -750h93z" />
    <glyph glyph-name="Bracketright" unicode="&#xe0dc;" horiz-adv-x="259" 
d="M98 761h159l-121 -853h-157l7 51h93l105 750h-94z" />
    <glyph glyph-name="Braceleft" unicode="&#xe0dd;" horiz-adv-x="296" 
d="M137 364v-5q39 -23 39 -85q0 -19 -6 -67l-25 -176q-6 -40 1 -56t34 -16h35l-7 -53h-58q-44 0 -61 31.5t-10 83.5l29 216q3 18 3 40q0 67 -48 78q0 2 0.5 8t0.5 7q63 13 79 115l14 91q0 4 3 29q7 49 17 81q12 37 34.5 56t61.5 22h56l-7 -53h-33q-33 0 -46 -26
q-8 -22 -9 -27l-3 -15q0 -3 -2 -17t-2 -16l-18 -130q-14 -95 -72 -116z" />
    <glyph glyph-name="Braceright" unicode="&#xe0de;" horiz-adv-x="296" 
d="M182 359q0 1 0.5 3l0.5 2q-41 17 -41 78q0 18 3 38q2 10 5.5 37.5t5.5 42.5q2 14 4.5 31t4 29t2.5 19q2 26 2 28q0 44 -40 44h-33q5 43 7 53h33q57 0 78 -19t21 -65q0 -20 -4 -47l-21 -153q-2 -14 -2 -30q0 -70 48 -81l-3 -16q-64 -14 -77 -119q-6 -35 -22 -154
q-6 -40 -6 -43l-4 -22q-5 -27 -14 -45q-24 -64 -96 -64h-51l7 53h35q48 0 57 72l24 176q9 65 25 99.5t51 52.5z" />
    <glyph glyph-name="Endash" unicode="&#xe0df;" horiz-adv-x="548" 
d="M511 241h-486l7 60h487z" />
    <glyph glyph-name="Emdash" unicode="&#xe0e0;" horiz-adv-x="807" 
d="M769 241h-742l8 60h742z" />
    </font>
</defs>
</svg>
