<?xml version="1.0" standalone="no"?>
<!DOCTYPE svg PUBLIC "-//W3C//DTD SVG 1.1//EN" "http://www.w3.org/Graphics/SVG/1.1/DTD/svg11.dtd" >
<svg>
<metadata>
Created by FontForge 20120731 at Tue Dec 15 21:05:30 2015
 By ,,,
Copyright (c) 2013 Parachute, www.parachute.gr.  All rights reserved.
</metadata>
<defs>
<font id="PFBagueSansPro-MediumItalic" horiz-adv-x="0" >
  <font-face 
    font-family="PF Bague Sans Pro"
    font-weight="500"
    font-style="italic"
    font-stretch="normal"
    units-per-em="1000"
    panose-1="2 0 6 6 0 0 0 9 0 3"
    ascent="800"
    descent="-200"
    x-height="445"
    cap-height="660"
    bbox="-500 -276 1712 923"
    underline-thickness="60"
    underline-position="-55"
    slope="-12"
    unicode-range="U+0020-FB06"
  />
<missing-glyph horiz-adv-x="451" 
d="M474 0h-439v699h439v-699zM396 48l-142 253l-142 -253h284zM396 648h-284l142 -252zM425 598l-141 -249l141 -250v499zM83 99l141 250l-141 249v-499z" />
    <glyph glyph-name="fj" unicode="fj" horiz-adv-x="494" 
d="M185 -229l-34 84q81 5 112 47q31 41 43 140q13 95 41 322h-151l-62 -437h-101l62 437h-75q7 54 10 69q1 0 4.5 1t12 2t15.5 2q8 1 17.5 2.5t16.5 3t11 1.5q11 109 38 169q51 119 197 119q84 0 136 -29l-7 -89q-59 35 -129 35q-31 0 -53.5 -10t-35.5 -24t-22 -41.5
t-12 -47.5t-8 -57l-3 -25h254l-46 -372q-20 -161 -74 -229q-53 -68 -157 -73z" />
    <glyph glyph-name="ffj" unicode="ffj" horiz-adv-x="760" 
d="M610 365h-150l-63 -440h-101l63 439h-162l-74 -529h-101l74 529h-75l9 69q1 0 4.5 1t12 2t15.5 2q8 1 17.5 2.5t16.5 3t11 1.5l7 57q26 212 219 212q71 0 126 -28q56 47 148 47q84 0 134 -29l-7 -89q-59 35 -128 35q-55 0 -83.5 -29.5t-37.5 -87.5l-14 -88h254l-52 -396
q-20 -148 -73 -210q-53 -63 -152 -68q-17 48 -33 84q82 4 113 49q31 42 43 145zM208 445h162l5 41l7 48q10 51 24 80q-36 17 -79 17q-50 0 -75.5 -30t-34.5 -90z" />
    <glyph glyph-name="f_t" unicode="ft" horiz-adv-x="594" 
d="M413 713l-5 -85q-37 15 -79 15q-93 0 -109 -114l-12 -84h156l102 141h24l-20 -141h120l-11 -80h-120l-30 -212q-11 -77 49 -77q38 0 81 26l-12 -82q-46 -31 -109 -31q-135 0 -113 151l32 225h-160l-77 -571h-102l77 571h-75l11 69l76 11l12 84q27 197 204 197
q48 0 90 -13z" />
    <glyph glyph-name="ff" unicode="ff" horiz-adv-x="575" 
d="M107 445l11 76q12 89 68 140.5t147 51.5q79 0 132 -32q50 43 130 43q47 0 84 -12l-7 -86q-38 15 -75 15q-25 0 -45 -9q-21 -10 -31 -20t-18 -33q-10 -27 -12 -38l-9 -49l-7 -47h130l-11 -81h-129l-70 -500h-102l70 500h-166l-80 -569h-101l80 569h-75l9 69q1 0 4.5 1
t12 2t15.5 2q8 1 17.5 2.5t16.5 3t11 1.5zM208 445h166l12 84q7 51 23 84q-40 17 -86 17t-71 -30.5t-35 -89.5z" />
    <glyph glyph-name="fi" unicode="fi" horiz-adv-x="494" 
d="M462 445l-62 -445h-104l51 365h-150l-77 -565h-101l76 565h-75l11 69l76 11l13 92q13 94 69.5 145t153.5 51q82 0 135 -29l-7 -88q-59 34 -128 34q-104 0 -121 -116l-14 -89h254z" />
    <glyph glyph-name="fl" unicode="fl" horiz-adv-x="500" 
d="M208 445h105l-6 -36l-6 -45h-105l-80 -563h-102l81 563h-75q2 17 4.5 32.5t4 24.5t1.5 12q5 2 38 7t39 5l12 90q12 94 68.5 145t150.5 51q86 0 166 -26l-99 -705h-103l89 639q-24 8 -52 8q-57 0 -84.5 -32.5t-36.5 -99.5z" />
    <glyph glyph-name="ffi" unicode="ffi" horiz-adv-x="763" 
d="M483 533l-12 -88h259l-61 -445h-103l48 364h-154l-67 -500h-102l68 500h-162l-80 -569h-102l81 569h-75l9 69q1 0 4.5 1t12 2t15.5 2q8 1 17.5 2.5t16.5 3t11 1.5l7 51q30 218 219 218q71 0 126 -28q56 47 153 47q79 0 129 -29l-7 -88q-59 34 -128 34q-108 0 -123 -117z
M208 445h162l7 53q11 81 29 116q-36 17 -79 17q-93 0 -110 -120z" />
    <glyph glyph-name="ffl" unicode="ffl" horiz-adv-x="767" 
d="M469 445h104l-6 -41q-2 -10 -5 -40h-105l-69 -500h-101l69 500h-160l-80 -569h-102l81 569h-75q7 54 10 69q1 0 4.5 1t12 2t15.5 2q8 1 17.5 2.5t16.5 3t11 1.5l7 57q26 212 219 212q73 0 125 -28q61 44 151 44q22 0 78 -8q54 -8 84 -22l-99 -700h-104l90 639
q-24 8 -55 8q-113 0 -129 -154zM208 445h159l7 54q9 78 30 116q-34 17 -75 17q-54 0 -80 -35t-35 -103z" />
    <glyph glyph-name="longs_t" unicode="&#x17f;t" horiz-adv-x="578" 
d="M220 529l-102 -734h-101l79 569h-75l9 69q1 0 4.5 1t12 2t15.5 2q8 1 17.5 2.5t16.5 3t11 1.5l6 49q15 116 64 174t145 58q70 0 122 -28l-7 -87q-53 31 -107 31q-93 0 -110 -113zM364 455l88 131h23l-19 -141h119l-6 -37l-6 -43h-119l-30 -213q-11 -73 49 -73q35 0 81 28
l-11 -87q-49 -30 -109 -30q-73 0 -99 40t-14 119l30 216h-70q6 30 9 60z" />
    <glyph glyph-name=".notdef" horiz-adv-x="451" 
d="M474 0h-439v699h439v-699zM396 48l-142 253l-142 -253h284zM396 648h-284l142 -252zM425 598l-141 -249l141 -250v499zM83 99l141 250l-141 249v-499z" />
    <glyph glyph-name=".null" 
 />
    <glyph glyph-name="nonmarkingreturn" horiz-adv-x="333" 
 />
    <glyph glyph-name="space" unicode=" " horiz-adv-x="235" 
 />
    <glyph glyph-name="exclam" unicode="!" horiz-adv-x="294" 
d="M261 691l-84 -518h-82l59 518h107zM127 112q22 0 37 -15.5t15 -38.5q0 -27 -21 -47.5t-48 -20.5q-23 0 -38 14.5t-15 37.5q0 28 21.5 49t48.5 21z" />
    <glyph glyph-name="quotedbl" unicode="&#x22;" horiz-adv-x="318" 
d="M198 682l-32 -225h-77l32 225h77zM319 682l-32 -225h-78l33 225h77z" />
    <glyph glyph-name="numbersign" unicode="#" horiz-adv-x="546" 
d="M390 455l62 172h62q-23 -59 -61 -172h81l-8 -55h-93l-52 -143h89l-9 -55h-99l-71 -202h-63q62 173 72 202h-128l-71 -202h-63q14 43 34 95q10 27 23 64.5t15 42.5h-79l8 55h91q30 83 51 143h-88l8 55h99q10 26 32 87l31 85h61l-61 -172h127zM371 400h-128l-51 -143h128z
" />
    <glyph glyph-name="dollar" unicode="$" horiz-adv-x="546" 
d="M259 -102h-65l13 99q-105 6 -167 52l13 96q40 -32 92 -50q56 -17 95 -17q64 0 101 32t37 85q0 60 -95 108q-33 16 -48 24t-44 27t-43 35t-25.5 40.5t-11.5 52.5q0 76 51.5 123t138.5 56l14 104h66l-15 -103q79 -8 135 -38l-13 -92q-71 52 -157 52q-54 0 -87.5 -25
t-33.5 -74q0 -44 96 -95q35 -17 61 -32.5t55 -39.5t44.5 -56t15.5 -69q0 -81 -58 -135q-57 -53 -151 -60z" />
    <glyph glyph-name="percent" unicode="%" horiz-adv-x="747" 
d="M209 356q-66 0 -103 36.5t-37 96.5q0 75 54 131t130 56q63 0 101 -37.5t38 -97.5q0 -75 -54 -130t-129 -55zM243 607q-41 0 -69 -33q-27 -33 -27 -76q0 -34 19 -54.5t52 -20.5q39 0 67.5 32.5t28.5 75.5q0 33 -19.5 54.5t-51.5 21.5zM517 -9q-65 0 -102.5 35.5
t-37.5 95.5q0 76 54 132t131 56q62 0 100 -37.5t38 -96.5q0 -76 -54 -131q-52 -54 -129 -54zM553 242q-41 0 -69 -33q-28 -32 -28 -76q0 -34 19 -54.5t52 -20.5q39 0 67 32.5t28 75.5q0 34 -18.5 55t-50.5 21zM633 682h69l-576 -705h-68z" />
    <glyph glyph-name="ampersand" unicode="&#x26;" horiz-adv-x="684" 
d="M419 664q73 0 139 -32l-7 -86q-65 35 -135 35q-64 0 -95 -40q-32 -41 -32 -92q0 -131 152 -289q72 78 125 226l33 -30q17 -15 30 -28q-52 -132 -133 -222q70 -63 148 -107l-81 -58q-77 49 -140 103q-91 -65 -202 -65q-86 0 -133.5 40.5t-47.5 110.5q0 61 42 124t123 99
q-14 45 -14 89q0 96 61 158q61 64 167 64zM246 58q62 0 120 40q-90 90 -131 181q-43 -18 -70 -55.5t-27 -77.5t30.5 -64t77.5 -24z" />
    <glyph glyph-name="quotesingle" unicode="'" horiz-adv-x="206" 
d="M202 682l-31 -225h-78l31 225h78z" />
    <glyph glyph-name="parenleft" unicode="(" horiz-adv-x="297" 
d="M294 736l57 -21q-196 -244 -196 -508q0 -171 79 -319l-65 -22q-102 152 -102 351q0 135 60 271t167 248z" />
    <glyph glyph-name="parenright" unicode=")" horiz-adv-x="297" 
d="M84 715l63 20q106 -157 106 -348q0 -130 -60 -271q-61 -142 -166 -250q-6 3 -28.5 13t-28.5 12q194 242 194 506q0 166 -80 318z" />
    <glyph glyph-name="asterisk" unicode="*" horiz-adv-x="437" 
d="M303 520l96 -42l-49 -69l-77 69l-3 -114h-74l29 113l-98 -69l-29 69l108 41l-50 23l-46 22l21 31l26 37l78 -69q0 55 3 112h75l-29 -112q88 62 97 68q5 -14 15 -36q4 -9 13 -31z" />
    <glyph glyph-name="plus" unicode="+" horiz-adv-x="546" 
d="M468 261h-161l-23 -168h-67l23 168h-161l10 67h161l23 165h67l-23 -165h160q-9 -64 -9 -67z" />
    <glyph glyph-name="comma" unicode="," horiz-adv-x="208" 
d="M12 53q4 27 25 45t47 18q27 0 42 -18t11 -46q-4 -34 -43 -98q-35 -57 -75 -107l-46 6l66 145q-31 13 -27 55z" />
    <glyph glyph-name="hyphen" unicode="-" horiz-adv-x="365" 
d="M304 207h-256l11 75h255z" />
    <glyph glyph-name="period" unicode="." horiz-adv-x="208" 
d="M83 115q22 0 37 -15.5t15 -38.5q0 -28 -21 -49t-48 -21q-22 0 -37.5 15.5t-15.5 37.5q0 28 21.5 49.5t48.5 21.5z" />
    <glyph glyph-name="slash" unicode="/" horiz-adv-x="318" 
d="M407 685l-401 -774h-75l399 774h77z" />
    <glyph glyph-name="zero" unicode="0" horiz-adv-x="546" 
d="M327 671q58 0 100 -21t64.5 -58t32.5 -79.5t10 -93.5q-5 -155 -57 -264q-85 -166 -241 -166q-205 0 -205 244q0 108 34 213q22 65 52 111q32 50 88 82t122 32zM318 585q-44 0 -80 -29t-56 -73q-18 -41 -30 -95q-17 -80 -17 -152q0 -161 112 -161q44 0 79.5 28t54.5 70
q19 39 31 93q19 82 19 157q0 162 -113 162z" />
    <glyph glyph-name="one" unicode="1" horiz-adv-x="546" 
d="M385 667h16l-93 -667h-105l72 516l-165 -88l15 101z" />
    <glyph glyph-name="two" unicode="2" horiz-adv-x="533" 
d="M281 672q85 0 133 -45t48 -119q0 -114 -104 -239q-90 -109 -191 -188h252l-11 -81h-443l2 15q389 269 389 464q0 52 -27.5 78t-74.5 26q-86 0 -183 -69l13 93q92 65 197 65z" />
    <glyph glyph-name="three" unicode="3" horiz-adv-x="546" 
d="M156 344q-1 2 -4.5 7t-5.5 6l203 219v4h-266l11 79h422q-2 -14 -2 -16l-219 -235q75 -7 118 -50.5t43 -110.5q0 -113 -80 -185q-80 -71 -197 -71t-191 53l13 99q67 -69 177 -69q78 0 128 47q50 48 50 118q0 55 -37 84t-100 29q-23 0 -63 -8z" />
    <glyph glyph-name="four" unicode="4" horiz-adv-x="546" 
d="M362 364l69 93h44l-30 -220h76l-11 -79h-77l-21 -158h-102l23 158h-341l2 15l370 487h114q-21 -25 -168 -214q-139 -179 -164 -209h198z" />
    <glyph glyph-name="five" unicode="5" horiz-adv-x="546" 
d="M294 420q86 0 141 -46q57 -45 57 -131q0 -112 -83 -183q-83 -69 -196 -69q-112 0 -191 53q0 5 1.5 12t3 18.5t2.5 19.5t2.5 19.5t3 18.5t1.5 12q28 -31 76 -51t100 -20q80 0 129 48q49 49 49 122q0 49 -41 78q-40 28 -95 28q-78 0 -154 -39q-11 3 -16 7l92 343h349
l-10 -79h-272l-26 -95l-22 -82q42 16 99 16z" />
    <glyph glyph-name="six" unicode="6" horiz-adv-x="546" 
d="M126 402l190 258h112l-201 -267l4 -2q32 23 87 23q84 0 134.5 -48t50.5 -126q0 -109 -77 -180t-189 -71q-96 0 -152.5 48.5t-56.5 132.5q0 99 98 232zM288 339q-64 0 -110 -43q-46 -42 -46 -110q0 -51 31 -81.5t87 -30.5q67 0 109 44q43 44 43 111q0 49 -30.5 79.5
t-83.5 30.5z" />
    <glyph glyph-name="seven" unicode="7" horiz-adv-x="546" 
d="M526 643l-371 -643h-104l334 580h-301l7 40q7 32 7 39h431z" />
    <glyph glyph-name="eight" unicode="8" horiz-adv-x="546" 
d="M323 587q-52 0 -90 -35q-37 -34 -37 -85q0 -39 27 -63t72 -24q53 0 88 34q37 34 37 85q0 39 -26.5 63.5t-70.5 24.5zM284 316q-64 0 -108 -41q-43 -40 -43 -98q0 -47 31.5 -75.5t86.5 -28.5q67 0 107 42q42 42 42 101q0 46 -31 73t-85 27zM335 672q81 0 131 -43
q52 -42 52 -112q0 -51 -28.5 -96t-75.5 -65l-1 -4q86 -41 86 -136q0 -100 -75 -163t-185 -63q-98 0 -154 44t-56 119q0 63 35.5 116t95.5 77l2 4q-65 36 -65 114q0 91 70 149q71 59 168 59z" />
    <glyph glyph-name="nine" unicode="9" horiz-adv-x="546" 
d="M327 671q95 0 150.5 -48t55.5 -132q0 -102 -92 -226l-194 -265h-112l201 268l-2 4q-32 -24 -88 -24q-84 0 -134 47.5t-50 126.5q0 108 76 178q77 71 189 71zM315 586q-66 0 -110 -45q-43 -43 -43 -109q0 -49 31 -79t84 -30q64 0 109 42q45 43 45 111q0 50 -31 80t-85 30z
" />
    <glyph glyph-name="colon" unicode=":" horiz-adv-x="226" 
d="M91 115q23 0 37.5 -15t14.5 -38q0 -27 -20.5 -48.5t-47.5 -21.5q-22 0 -37 15.5t-15 38.5q0 27 21 48t47 21zM134 407q23 0 37 -15t14 -38q0 -27 -21 -48t-48 -21q-22 0 -36.5 15t-14.5 37q0 28 20.5 49t48.5 21z" />
    <glyph glyph-name="semicolon" unicode=";" horiz-adv-x="235" 
d="M141 407q22 0 36.5 -15t14.5 -38q0 -27 -21 -48t-48 -21q-23 0 -37.5 15t-14.5 37q0 28 21 49t49 21zM24 53q4 27 25 45t47 18q27 0 42 -18t11 -46q-4 -34 -43 -98q-35 -57 -75 -107l-46 6l66 145q-31 13 -27 55z" />
    <glyph glyph-name="less" unicode="&#x3c;" horiz-adv-x="546" 
d="M211 293l244 -149l-12 -83l-363 224l3 14l425 225l-11 -86z" />
    <glyph glyph-name="equal" unicode="=" horiz-adv-x="546" 
d="M484 391l-9 -66h-392l9 66h392zM469 264l-9 -66h-393l10 66h392z" />
    <glyph glyph-name="greater" unicode="&#x3e;" horiz-adv-x="546" 
d="M475 285l-426 -224l12 83l283 151l-241 143l11 86l363 -225z" />
    <glyph glyph-name="question" unicode="?" horiz-adv-x="498" 
d="M283 692q87 0 139.5 -42t52.5 -111q0 -91 -89 -169q-15 -13 -43 -35t-45.5 -36.5t-36.5 -32.5t-28 -34.5t-9 -31.5q0 -13 7 -26l-39 -8q-20 -5 -50 -10q-9 26 -9 47q0 31 17 60.5t42.5 51.5t55 46.5t55 46t42.5 49.5t17 58q0 39 -28.5 61.5t-78.5 22.5q-71 0 -155 -41
q4 44 13 97q83 37 170 37zM186 109q23 0 37 -14.5t14 -37.5q0 -27 -21 -47t-48 -20q-24 0 -37.5 13t-13.5 35q0 29 20.5 50t48.5 21z" />
    <glyph glyph-name="at" unicode="@" horiz-adv-x="895" 
d="M592 495h54l-36 -253q-9 -64 48 -64q44 0 79 57q35 59 35 145q0 105 -71 164t-185 59q-158 0 -265 -105q-107 -104 -107 -258q0 -117 69 -186q71 -68 192 -68q96 0 180 38l-10 -71q-80 -36 -176 -36q-154 0 -242 85q-87 86 -87 229q0 187 133 313q133 127 321 127
q144 0 233 -77q90 -76 90 -207q0 -123 -57 -200q-56 -77 -149 -77q-46 0 -74 21t-32 62q-23 -37 -63.5 -57.5t-85.5 -20.5q-70 0 -106 42t-36 113q0 103 57 169q59 66 147 66t125 -75zM451 434q-55 0 -88 -45q-32 -44 -32 -103q0 -47 22 -73.5t64 -26.5q53 0 87 43
q36 43 36 108q0 44 -23.5 70.5t-65.5 26.5z" />
    <glyph glyph-name="A" unicode="A" horiz-adv-x="628" 
d="M581 0h-108l-33 128h-279l-71 -128h-113l389 669h17zM350 465h-4l-145 -260h220z" />
    <glyph glyph-name="B" unicode="B" horiz-adv-x="611" 
d="M459 361v-4q96 -35 96 -142q0 -93 -67 -154q-65 -61 -164 -61h-288l93 660h262q79 0 124 -37.5t45 -106.5q0 -102 -101 -155zM334 308h-145l-31 -217h150q75 0 106 39q32 41 32 86q0 43 -29.5 67.5t-82.5 24.5zM360 571h-134l-26 -183h132q41 0 79 26q39 26 39 84
q0 35 -24.5 54t-65.5 19z" />
    <glyph glyph-name="C" unicode="C" horiz-adv-x="603" 
d="M557 131l-14 -100q-81 -42 -195 -42q-142 0 -219 77q-75 76 -75 204q0 176 113 289q114 114 281 114q102 0 160 -31l-11 -99q-64 35 -146 35q-113 0 -199 -81q-84 -81 -84 -216q0 -93 54.5 -145t152.5 -52q88 0 182 47z" />
    <glyph glyph-name="D" unicode="D" horiz-adv-x="674" 
d="M278 0h-242l93 660h227q136 0 209.5 -74.5t73.5 -204.5q0 -166 -100 -273q-99 -108 -261 -108zM343 570h-115l-67 -478h123q112 0 177 81q66 81 66 210q0 88 -47 137.5t-137 49.5z" />
    <glyph glyph-name="E" unicode="E" horiz-adv-x="551" 
d="M161 91h336q-12 -87 -12 -91h-449l93 660h424l-13 -91h-311l-15 -96l-11 -83h284l-12 -89h-285z" />
    <glyph glyph-name="F" unicode="F" horiz-adv-x="516" 
d="M186 279l-38 -279h-112l93 660h429q-3 -24 -14 -91h-316l-29 -201h283l-12 -89h-284z" />
    <glyph glyph-name="G" unicode="G" horiz-adv-x="659" 
d="M453 674q108 0 173 -37l-11 -103q-70 43 -168 43q-114 0 -197 -84q-82 -82 -82 -217q0 -89 51.5 -141.5t147.5 -52.5q55 0 111 21l32 231h101l-12 -85l-19 -134q-7 -62 -12 -86q-92 -39 -228 -39q-140 0 -214 77q-73 76 -73 203q0 172 113 288q114 116 287 116z" />
    <glyph glyph-name="H" unicode="H" horiz-adv-x="668" 
d="M652 660l-92 -660h-111l41 299h-301l-41 -299h-112l93 660h112q-25 -165 -38 -269h300l38 269h111z" />
    <glyph glyph-name="I" unicode="I" horiz-adv-x="271" 
d="M248 660l-93 -660h-112l93 660h112z" />
    <glyph glyph-name="J" unicode="J" horiz-adv-x="466" 
d="M118 85q74 0 112 42.5t50 126.5l58 406h112q-11 -73 -23 -165l-26 -189q-17 -118 -47 -184q-28 -65 -82.5 -97.5t-145.5 -35.5q-90 0 -145 32l13 103q56 -39 124 -39z" />
    <glyph glyph-name="K" unicode="K" horiz-adv-x="605" 
d="M130 661h111l-43 -308l307 308h127l-321 -320l251 -341h-132l-235 331l-46 -331h-112z" />
    <glyph glyph-name="L" unicode="L" horiz-adv-x="512" 
d="M36 0l93 660h112q-69 -481 -80 -569h318l-12 -91h-431z" />
    <glyph glyph-name="M" unicode="M" horiz-adv-x="796" 
d="M512 268l-122 -132h-18q-25 44 -86 138q-69 110 -84 138l-3 -2l-56 -410h-108l94 669h19q16 -29 124 -199q109 -170 125 -198l367 397h18l-94 -669h-108l56 399l-3 1q-14 -16 -121 -132z" />
    <glyph glyph-name="N" unicode="N" horiz-adv-x="704" 
d="M209 449l-62 -449h-111l94 672h19l362 -451h4l63 439h111l-94 -671h-17l-366 460h-3z" />
    <glyph glyph-name="O" unicode="O" horiz-adv-x="762" 
d="M437 671q137 0 213 -82q77 -82 77 -210q0 -165 -111 -277q-109 -112 -269 -112q-135 0 -213 80t-78 208q0 162 110 278q109 115 271 115zM356 84q110 0 184 83q74 85 74 206q0 88 -50 146q-49 57 -136 57q-108 0 -183 -86t-75 -205q0 -90 49 -145q50 -56 137 -56z" />
    <glyph glyph-name="P" unicode="P" horiz-adv-x="568" 
d="M148 0h-113l92 659h235q102 0 154.5 -52.5t52.5 -139.5q0 -109 -78 -176q-76 -67 -187 -67h-125q-23 -171 -31 -224zM327 573h-99q-18 -133 -38 -264h105q80 0 121 47q40 46 40 107q0 51 -31.5 80.5t-97.5 29.5z" />
    <glyph glyph-name="Q" unicode="Q" horiz-adv-x="765" 
d="M439 671q137 0 213 -81q77 -80 77 -209t-72 -230q-70 -100 -184 -138l208 -52q-4 -5 -49 -97l-352 134q-105 17 -164 92q-59 77 -59 187q0 162 110 278q111 116 272 116zM429 575q-108 0 -182 -86t-74 -204q0 -90 49 -146q50 -56 135 -56q107 0 182 84q75 85 75 206
q0 90 -49 145q-50 57 -136 57z" />
    <glyph glyph-name="R" unicode="R" horiz-adv-x="593" 
d="M127 659h246q87 0 145 -48q59 -47 59 -131q0 -76 -50.5 -138.5t-141.5 -91.5q5 -8 82 -125q54 -82 85 -125h-128q-15 22 -84 138q-66 112 -86 141l3 14q103 8 155 57q53 50 53 112q0 50 -33 79t-88 29h-116l-80 -570h-113z" />
    <glyph glyph-name="S" unicode="S" horiz-adv-x="505" 
d="M2 42q5 34 8 57l6 48q83 -68 189 -68q65 0 105.5 29.5t40.5 81.5q0 36 -28.5 64.5t-69 48.5t-81 41.5t-69 56t-28.5 79.5q0 91 69 142t166 51q99 0 175 -42l-14 -100q-32 24 -76 38t-82 14q-47 0 -86 -24q-38 -23 -38 -70t98 -92q32 -15 50 -24.5t46 -28.5t43.5 -37
t27.5 -45.5t12 -59.5q0 -102 -72 -157q-71 -56 -189 -56q-123 0 -203 53z" />
    <glyph glyph-name="T" unicode="T" horiz-adv-x="533" 
d="M577 661l-13 -91h-197l-80 -570h-112l80 570h-197l13 91h506z" />
    <glyph glyph-name="U" unicode="U" horiz-adv-x="675" 
d="M491 251l58 409h111l-58 -407q-18 -123 -95 -193t-207 -70q-112 0 -170.5 55.5t-59.5 155.5q0 34 4 58l55 401h112l-57 -404q-2 -18 -2 -40q0 -131 132 -131q76 0 120.5 44.5t56.5 121.5z" />
    <glyph glyph-name="V" unicode="V" horiz-adv-x="599" 
d="M647 659l-373 -670h-19l-190 670h113q32 -132 56 -226q9 -35 22 -83.5t20.5 -78t12.5 -49.5h5l235 437h118z" />
    <glyph glyph-name="W" unicode="W" horiz-adv-x="910" 
d="M277 243l225 423h16l108 -430h4l212 423h115l-351 -669h-16q-4 17 -55 217q-15 58 -56 226h-2l-233 -443h-19l-161 669h114l94 -416h5z" />
    <glyph glyph-name="X" unicode="X" horiz-adv-x="631" 
d="M587 0h-126l-136 324l-223 -324h-129l250 344l-144 316h119l131 -298l212 298h124l-233 -318z" />
    <glyph glyph-name="Y" unicode="Y" horiz-adv-x="570" 
d="M184 660l118 -286h4l191 286h122l-270 -387l-38 -273h-112l39 273l-86 192q-70 163 -87 195h119z" />
    <glyph glyph-name="Z" unicode="Z" horiz-adv-x="535" 
d="M115 660h456l-2 -14l-404 -556h321l-12 -90h-490l1 6l1 6l404 557h-289z" />
    <glyph glyph-name="bracketleft" unicode="[" horiz-adv-x="270" 
d="M186 -125h-174l120 854h174l-9 -68h-86l-101 -721h85z" />
    <glyph glyph-name="backslash" unicode="\" horiz-adv-x="318" 
d="M115 685l183 -774h-76l-184 774h77z" />
    <glyph glyph-name="bracketright" unicode="]" horiz-adv-x="270" 
d="M100 729h174l-121 -854h-172l9 65h84l101 721h-85q9 65 10 68z" />
    <glyph glyph-name="asciicircum" unicode="^" horiz-adv-x="481" 
d="M306 653l161 -322h-83l-105 213l-163 -213h-83l252 322h21z" />
    <glyph glyph-name="underscore" unicode="_" horiz-adv-x="490" 
d="M432 -132h-481l8 58h481z" />
    <glyph glyph-name="grave" unicode="`" horiz-adv-x="482" 
d="M248 687l98 -166h-62l-113 136q5 3 42 16q9 4 18 7.5t13 5.5z" />
    <glyph glyph-name="a" unicode="a" horiz-adv-x="556" 
d="M278 373q-67 0 -106 -55q-38 -55 -38 -126q0 -56 25.5 -88t76.5 -32q63 0 105 51q43 52 43 130q0 53 -28 86.5t-78 33.5zM381 0l-7 58h-4q-68 -68 -166 -68q-84 0 -129.5 50.5t-45.5 133.5q0 124 69 202q69 79 177 79q100 0 144 -74h4l26 64h68l-29 -204l-33 -241h-74z
" />
    <glyph glyph-name="b" unicode="b" horiz-adv-x="552" 
d="M18 0l100 711h99l-47 -321l4 -2q62 69 151 69q90 0 139.5 -52t49.5 -136q0 -124 -71 -201t-179 -77q-107 0 -149 78h-5l-22 -69h-70zM258 75q70 0 110 49q42 50 42 125q0 58 -26.5 91t-78.5 33q-67 0 -110 -52t-43 -124q0 -55 28 -88t78 -34z" />
    <glyph glyph-name="c" unicode="c" horiz-adv-x="422" 
d="M297 457q69 0 109 -21l-6 -43l-6 -45q-36 24 -93 24q-75 0 -120.5 -50t-45.5 -134q0 -52 32.5 -83.5t89.5 -31.5q63 0 119 32l-13 -86q-54 -30 -141 -30q-91 0 -142 54.5t-51 143.5q0 122 77 196t191 74z" />
    <glyph glyph-name="d" unicode="d" horiz-adv-x="558" 
d="M459 711h99l-99 -711h-77l-5 57q-3 0 -4 1q-60 -66 -164 -66q-88 0 -135 53q-46 53 -46 133q0 124 71 201q72 77 173 77q96 0 136 -63q1 0 3 1t3 1l18 132q17 126 27 184zM240 74q64 0 107 51q44 53 44 130q0 54 -28.5 86t-80.5 32q-69 0 -109 -52q-40 -50 -40 -127
q0 -56 27.5 -88t79.5 -32z" />
    <glyph glyph-name="e" unicode="e" horiz-adv-x="476" 
d="M284 457q74 0 118 -36.5t44 -92.5q0 -66 -68 -106.5t-181 -40.5q-47 0 -62 1q-2 -18 -2 -21q0 -46 30.5 -70.5t83.5 -24.5q94 0 170 58q-3 -18 -13 -86q-76 -48 -179 -48q-96 0 -146 51t-50 140q0 113 71 195q70 81 184 81zM277 377q-52 0 -89 -36t-48 -97q17 -4 52 -4
q70 0 112.5 22t42.5 56q0 26 -18 42.5t-52 16.5z" />
    <glyph glyph-name="f" unicode="f" horiz-adv-x="321" 
d="M413 712l-3 -86q-42 16 -82 16q-91 0 -108 -113l-12 -84h129l-11 -80h-129l-77 -571h-101l76 571h-75l10 67l77 13l12 84q29 197 201 197q40 0 93 -14z" />
    <glyph glyph-name="g" unicode="g" horiz-adv-x="499" 
d="M151 -222q-88 0 -132 32t-44 83q0 37 23.5 74t62.5 61l-14 2q-25 3 -35.5 12.5t-10.5 29.5q0 12 1 16l92 79q-31 31 -31 89q0 85 61 143t148 58q32 0 74 -13h151l-7 -52l-77 -11q25 -29 25 -74q0 -75 -59 -131q-58 -55 -147 -55q-51 0 -88 19l-50 -50l194 -22
q123 -15 123 -95q0 -60 -58 -121q-30 -33 -83.5 -53.5t-118.5 -20.5zM259 3q-76 8 -142 18q-48 -48 -48 -100q0 -30 23.5 -48t69.5 -18q66 0 106 35q40 34 40 73q0 36 -49 40zM238 191q46 0 78 33q32 34 32 79q0 36 -23 59.5t-59 23.5q-46 0 -78 -35q-31 -34 -31 -81
q0 -36 21.5 -57.5t59.5 -21.5z" />
    <glyph glyph-name="h" unicode="h" horiz-adv-x="529" 
d="M472 293l-40 -293h-103l35 252q15 118 -71 118q-55 0 -92 -46.5t-49 -126.5l-29 -197h-102l99 711h99l-15 -105l-18 -123q-10 -67 -15 -105q1 0 2 -0.5t2 -0.5q68 80 158 80q69 0 105 -35t36 -101q0 -10 -2 -28z" />
    <glyph glyph-name="i" unicode="i" horiz-adv-x="244" 
d="M200 445l-62 -445h-104l62 445h104zM178 648q23 0 37.5 -15t14.5 -37q0 -28 -20.5 -49t-47.5 -21q-24 0 -38 14t-14 38q0 28 21 49t47 21z" />
    <glyph glyph-name="j" unicode="j" horiz-adv-x="233" 
d="M-87 -230l-34 91q86 1 118 51q27 45 39 143l56 390h101l-55 -396q-21 -150 -72 -208q-51 -61 -153 -71zM172 647q24 0 38 -14.5t14 -36.5q0 -28 -20.5 -49t-47.5 -21q-23 0 -37 14.5t-14 36.5q0 29 20 49.5t47 20.5z" />
    <glyph glyph-name="k" unicode="k" horiz-adv-x="493" 
d="M374 444h123q-30 -30 -121 -109l-117 -103l193 -232h-120l-177 220l-30 -220h-104l99 711h104l-65 -468z" />
    <glyph glyph-name="l" unicode="l" horiz-adv-x="227" 
d="M230 711l-99 -711h-104l99 711h104z" />
    <glyph glyph-name="m" unicode="m" horiz-adv-x="808" 
d="M168 444l6 -65l3 -2q65 80 152 80q101 0 126 -88q63 88 157 88q68 0 104 -35.5t36 -99.5q0 -4 -5 -49q-6 -36 -22 -152l-16 -121h-103l38 265q7 53 -8.5 79.5t-61.5 26.5q-47 0 -81 -38t-43 -114l-30 -219h-103l36 263q15 107 -64 107q-109 0 -130 -155l-29 -215h-104
l62 444h80z" />
    <glyph glyph-name="n" unicode="n" horiz-adv-x="537" 
d="M477 271l-38 -271h-104l35 252q6 49 -11.5 83.5t-59.5 34.5q-54 0 -91.5 -45t-48.5 -123l-29 -202h-104l62 445h81l5 -72h3q64 82 162 82q141 0 141 -141q0 -19 -3 -43z" />
    <glyph glyph-name="o" unicode="o" horiz-adv-x="533" 
d="M294 457q95 0 148 -53.5t53 -143.5q0 -116 -73 -193q-74 -78 -188 -78q-96 0 -150 53t-54 143q0 114 73 193t191 79zM286 372q-66 0 -108 -53t-42 -126q0 -55 28 -87.5t79 -32.5q66 0 108 52q43 52 43 125q0 55 -29 88.5t-79 33.5z" />
    <glyph glyph-name="p" unicode="p" horiz-adv-x="549" 
d="M164 384q3 0 3 -2q58 73 165 73q87 0 132 -55q46 -53 46 -133q0 -124 -71 -201q-70 -76 -170 -76t-139 64h-3l-3 -1l-39 -269h-100l92 661h83q0 -29 4 -61zM300 371q-65 0 -108 -52q-43 -50 -43 -129q0 -54 28.5 -86.5t80.5 -32.5q68 0 108 51q41 53 41 127
q0 57 -27.5 89.5t-79.5 32.5z" />
    <glyph glyph-name="q" unicode="q" horiz-adv-x="558" 
d="M527 445l-92 -660h-101q4 25 18 123l21 150l-3 2q-59 -71 -154 -71q-88 0 -137.5 52t-49.5 135q0 125 70 201q71 78 180 78q104 0 150 -79h4l23 69h71zM284 370q-67 0 -109 -51q-42 -49 -42 -125q0 -57 26.5 -89.5t78.5 -32.5q67 0 110 52t43 124q0 55 -28 88t-79 34z
" />
    <glyph glyph-name="r" unicode="r" horiz-adv-x="344" 
d="M365 448l-9 -102q-30 13 -61 13q-53 0 -92 -49t-50 -133l-23 -177h-104l62 444h74l3 -87q2 0 3 -1q21 48 58.5 74t85.5 26q27 0 53 -8z" />
    <glyph glyph-name="s" unicode="s" horiz-adv-x="379" 
d="M-8 28l9 86q59 -51 140 -51q91 0 91 65q0 42 -94 81q-39 17 -66 46.5t-27 66.5q0 63 48.5 98.5t126.5 35.5q71 0 131 -30l-11 -81q-57 36 -112 36q-35 0 -57 -14t-22 -43q0 -20 28.5 -39t63.5 -34t63.5 -46t28.5 -72q0 -66 -52.5 -104.5t-138.5 -38.5q-89 0 -150 38z" />
    <glyph glyph-name="t" unicode="t" horiz-adv-x="342" 
d="M127 455l88 131h23l-19 -141h119l-6 -37l-6 -43h-119l-30 -213q-11 -73 49 -73q35 0 81 28l-11 -87q-49 -30 -109 -30q-73 0 -99 40t-14 119l30 216h-70q6 30 9 60z" />
    <glyph glyph-name="u" unicode="u" horiz-adv-x="526" 
d="M62 169l38 276h103l-35 -254q-15 -114 72 -114q50 0 84 43t44 115l30 210h104l-62 -445h-84l-2 66h-4q-60 -74 -145 -74q-79 0 -117 46.5t-26 130.5z" />
    <glyph glyph-name="v" unicode="v" horiz-adv-x="479" 
d="M205 -8h-15q-12 36 -79 221q-69 195 -81 232h106q2 -9 15 -51q4 -12 9 -28.5t11.5 -39t11.5 -38.5l34 -113h5l68 113q60 98 94 157h110q-14 -24 -146 -229q-125 -195 -143 -224z" />
    <glyph glyph-name="w" unicode="w" horiz-adv-x="713" 
d="M201 183l171 267h14l96 -272h4l142 267h103l-259 -452h-15l-101 286h-2l-180 -286h-16l-131 452h105l65 -262h4z" />
    <glyph glyph-name="x" unicode="x" horiz-adv-x="474" 
d="M429 0h-109l-93 211l-148 -211h-112l169 228l-99 217h105l90 -198l139 198h112l-162 -216z" />
    <glyph glyph-name="y" unicode="y" horiz-adv-x="455" 
d="M130 445l70 -327h5l163 327h106l-353 -661h-101l121 229l-117 432h106z" />
    <glyph glyph-name="z" unicode="z" horiz-adv-x="412" 
d="M64 445h354l-2 -12l-286 -354h229q-2 -9 -11 -79h-376q0 2 0.5 6t0.5 5l288 353h-208z" />
    <glyph glyph-name="braceleft" unicode="{" horiz-adv-x="318" 
d="M154 329v-5q43 -21 43 -89q0 -44 -16 -130q-15 -89 -15 -129q0 -35 41 -35h31l-9 -67h-41q-62 0 -86.5 21t-24.5 72q0 41 10 114q3 13 10 63l10 57q3 33 3 34q0 71 -49 83q2 16 2 17q64 13 80 119l14 93q14 88 29 118q32 66 101 66h63l-10 -68h-28q-27 0 -44 -19
q-7 -9 -11 -23q-3 -13 -9 -52l-18 -129q-12 -92 -76 -111z" />
    <glyph glyph-name="bar" unicode="|" horiz-adv-x="301" 
d="M225 -142h-82v891h82v-891z" />
    <glyph glyph-name="braceright" unicode="}" horiz-adv-x="318" 
d="M187 324l1 2v3q-47 17 -47 88q0 30 12 99q13 68 13 102q0 45 -43 45h-27l9 68h44q58 0 82 -21.5t24 -68.5q0 -37 -6 -71l-17 -127q-1 -6 -1 -28q0 -68 48 -80l-3 -18q-27 -5 -45 -27q-24 -29 -32 -91l-23 -156q-7 -52 -20 -88q-13 -38 -39.5 -57.5t-73.5 -23.5h-57l9 67
h30q28 0 40 17t19 59l23 166q9 61 26.5 94t53.5 47z" />
    <glyph glyph-name="asciitilde" unicode="~" horiz-adv-x="512" 
d="M359 238q-39 0 -107 30t-91 30q-45 0 -87 -65l-24 23l-24 23q59 98 143 98q36 0 101 -31q66 -31 91 -31q48 0 96 70l45 -46q-56 -101 -143 -101z" />
    <glyph glyph-name="uni00A0" unicode="&#xa0;" horiz-adv-x="235" 
 />
    <glyph glyph-name="exclamdown" unicode="&#xa1;" horiz-adv-x="294" 
d="M110 273h81l-61 -516h-107q72 432 87 516zM177 457q22 0 36 -14.5t14 -37.5q0 -28 -20.5 -49t-47.5 -21q-23 0 -38 15.5t-15 37.5q0 27 22 48t49 21z" />
    <glyph glyph-name="cent" unicode="&#xa2;" horiz-adv-x="546" 
d="M299 -30h-66l15 105q-74 12 -115 65t-41 132q0 108 62 179q63 72 159 87l16 111h65l-15 -108q53 -3 91 -19q-5 -33 -13 -89q-37 24 -96 24q-76 0 -120.5 -50t-44.5 -136q0 -51 32.5 -82t88.5 -31q69 0 122 32l-6 -43l-6 -43q-43 -22 -113 -30z" />
    <glyph glyph-name="sterling" unicode="&#xa3;" horiz-adv-x="546" 
d="M520 554q-57 25 -96 25q-124 0 -141 -132l-10 -78h160q-7 -52 -10 -66h-163q-26 -153 -85 -223h286q-1 -29 -11 -80h-422q0 2 0.5 7t0.5 6q99 101 129 290h-70l9 66h72l6 41l6 40q23 121 95 172q64 44 139 44q67 0 118 -22q-7 -42 -13 -90z" />
    <glyph glyph-name="currency" unicode="&#xa4;" horiz-adv-x="555" 
d="M116 288q0 56 33 108l-53 55l52 51l53 -55q53 35 108 35q61 0 110 -36l54 54l51 -50q-27 -31 -55 -56q33 -46 33 -106q0 -58 -33 -108l56 -53l-52 -53l-55 54q-52 -34 -109 -34t-109 34l-51 -54l-52 53l53 51q-34 46 -34 110zM185 287q0 -51 36 -88q37 -36 87 -36
q52 0 88 36q36 37 36 88q0 52 -36 88q-36 37 -88 37q-50 0 -87 -37q-36 -36 -36 -88z" />
    <glyph glyph-name="yen" unicode="&#xa5;" horiz-adv-x="546" 
d="M49 175l7 46h445l-8 -46h-170l-24 -175h-110l23 175h-163zM514 317l-7 -47h-444l7 47h144l-125 344h114l88 -303h4l176 303h116l-224 -344h151z" />
    <glyph glyph-name="brokenbar" unicode="&#xa6;" horiz-adv-x="300" 
d="M224 750v-354h-80v354h80zM144 -143v412h80v-412h-80z" />
    <glyph glyph-name="section" unicode="&#xa7;" horiz-adv-x="555" 
d="M359 712q80 0 139 -31l-11 -84q-65 35 -135 35q-46 0 -75 -18.5t-29 -50.5q0 -24 25 -44.5t61 -38.5t72 -38t61 -51t25 -70q0 -43 -27.5 -82.5t-72.5 -60.5q50 -41 50 -97q0 -74 -66 -119q-64 -46 -152 -46q-107 0 -180 43l13 92q31 -23 74.5 -39t80.5 -16q55 0 89 18.5
t34 58.5q0 16 -8.5 31t-29 29.5t-34 23t-46 25t-42.5 22.5q-87 49 -87 124q0 42 25 78t72 60q-36 43 -36 86q0 70 57 115t153 45zM251 428q-64 -27 -64 -82q0 -34 29 -59q12 -10 29 -21q1 -1 15 -9t24 -13q26 -14 42 -24q68 36 68 86q0 34 -33 58q-16 13 -32 21q-6 4 -40 22
q-29 15 -38 21z" />
    <glyph glyph-name="dieresis" unicode="&#xa8;" horiz-adv-x="496" 
d="M215 646q20 0 32 -12.5t12 -31.5q0 -25 -17.5 -43t-40.5 -18q-21 0 -33.5 12.5t-12.5 31.5q0 25 18.5 43t41.5 18zM387 646q20 0 32 -12.5t12 -31.5q0 -25 -17 -43t-42 -18q-20 0 -32.5 12.5t-12.5 30.5q0 26 18 44t42 18z" />
    <glyph glyph-name="copyright" unicode="&#xa9;" horiz-adv-x="853" 
d="M457 -21q-157 0 -262 106q-105 107 -105 264t108 264q109 107 263 107q151 0 257 -108q107 -109 107 -263q0 -155 -108 -263q-107 -107 -260 -107zM461 662q-131 0 -221 -91q-89 -92 -89 -222q0 -132 88 -223t218 -91t218 91t88 223q0 129 -88 220q-89 93 -214 93z
M602 202v-68q-52 -26 -126 -26q-113 0 -176 64q-62 65 -62 168q0 102 67 170q67 70 172 70q64 0 110 -20v-69q-44 22 -99 22q-70 0 -120 -47q-48 -46 -48 -126q0 -71 47 -120q47 -47 118 -47q67 0 117 29z" />
    <glyph glyph-name="ordfeminine" unicode="&#xaa;" horiz-adv-x="348" 
d="M199 600q75 0 101 -56l14 47h55l-23 -145q-21 -129 -23 -148h-55q0 1 -0.5 4.5t-1 9.5t-0.5 11q-1 14 -1 25q-38 -56 -113 -56q-59 0 -90.5 34t-31.5 90q0 81 47 133q48 51 122 51zM202 537q-41 0 -66 -32t-25 -78q0 -71 63 -71q41 0 68 31.5t27 77.5q0 32 -18 52t-49 20
z" />
    <glyph glyph-name="guillemotleft" unicode="&#xab;" horiz-adv-x="448" 
d="M282 392l-159 -186l106 -192h-99l-101 184l1 10l155 184h97zM440 392l-159 -186l106 -192h-98l-102 184l1 10l156 184h96z" />
    <glyph glyph-name="logicalnot" unicode="&#xac;" horiz-adv-x="546" 
d="M90 328h388l-33 -234h-68l23 167h-320z" />
    <glyph glyph-name="sfthyphen" unicode="&#xad;" horiz-adv-x="365" 
d="M304 207h-256l11 75h255z" />
    <glyph glyph-name="registered" unicode="&#xae;" horiz-adv-x="602" 
d="M382 427l82 -108h-66l-85 123v9q79 6 79 52q0 48 -57 48h-42v-232h-56v278h107q44 0 74 -24.5t30 -65.5q0 -57 -66 -80zM334 207q-110 0 -177 70q-66 71 -66 176q0 102 71 173q70 72 172 72q103 0 174 -71q70 -70 70 -174q0 -102 -71 -175q-71 -71 -173 -71zM533 453
q0 84 -58 142q-57 60 -141 60t-141 -60q-57 -59 -57 -142q0 -87 55 -145t143 -58q84 0 141 59q58 58 58 144z" />
    <glyph glyph-name="overscore" unicode="&#xaf;" horiz-adv-x="493" 
d="M427 547h-286l10 70h286z" />
    <glyph glyph-name="degree" unicode="&#xb0;" horiz-adv-x="386" 
d="M251 657q46 0 75 -29.5t29 -74.5q0 -56 -41 -97t-97 -41q-48 0 -75.5 27.5t-27.5 72.5q0 56 41 99q42 43 96 43zM243 607q-31 0 -55 -26q-24 -25 -24 -57q0 -27 16 -44t43 -17q33 0 57.5 25.5t24.5 56.5q0 27 -17.5 44.5t-44.5 17.5z" />
    <glyph glyph-name="plusminus" unicode="&#xb1;" horiz-adv-x="546" 
d="M468 269h-159l-22 -154h-68l22 154h-161l9 68h162l21 152h67l-21 -152h160q-9 -65 -10 -68zM43 0l9 67h388q-6 -57 -9 -67h-388z" />
    <glyph glyph-name="twosuperior" unicode="&#xb2;" horiz-adv-x="348" 
d="M223 785q59 0 90.5 -27t31.5 -74q0 -56 -49 -118q-51 -65 -118 -116h142l-9 -60h-299l1 13q253 154 253 262q0 56 -61 56q-53 0 -127 -48l12 71q68 41 133 41z" />
    <glyph glyph-name="threesuperior" unicode="&#xb3;" horiz-adv-x="348" 
d="M125 589l-6 10l118 119h-155l9 60h269l-1 -12l-133 -135q47 -4 73.5 -30.5t26.5 -69.5q0 -65 -50 -106q-49 -40 -119 -40q-83 0 -130 33l10 74q52 -47 117 -47q42 0 69 25t27 60q0 29 -22.5 46t-58.5 17q-27 0 -44 -4z" />
    <glyph glyph-name="acute" unicode="&#xb4;" horiz-adv-x="482" 
d="M437 655l-139 -134h-67l130 168q5 -1 38 -17z" />
    <glyph glyph-name="mu" unicode="&#xb5;" horiz-adv-x="523" 
d="M-5 -215l91 660h102l-38 -276q-2 -16 -2 -18q0 -33 16 -51.5t46 -18.5q51 0 91.5 35.5t49.5 97.5l32 231h104l-62 -445h-86q-3 49 -4 63q-67 -63 -145 -63q-41 0 -61 20q-26 -176 -33 -235h-101z" />
    <glyph glyph-name="mu" unicode="&#x3bc;" horiz-adv-x="523" 
d="M-5 -215l91 660h102l-38 -276q-2 -16 -2 -18q0 -33 16 -51.5t46 -18.5q51 0 91.5 35.5t49.5 97.5l32 231h104l-62 -445h-86q-3 49 -4 63q-67 -63 -145 -63q-41 0 -61 20q-26 -176 -33 -235h-101z" />
    <glyph glyph-name="paragraph" unicode="&#xb6;" horiz-adv-x="542" 
d="M389 684l-56 -393h-77q-75 0 -121.5 47t-46.5 120q0 90 66 158q68 68 158 68h77zM434 684h101l-91 -648q-28 -212 -220 -224l-30 83q76 5 108 42q33 39 43 111z" />
    <glyph glyph-name="middot" unicode="&#xb7;" horiz-adv-x="226" 
d="M120 312q23 0 37.5 -15t14.5 -38q0 -28 -21.5 -49t-48.5 -21q-22 0 -37 15t-15 37q0 29 21.5 50t48.5 21z" />
    <glyph glyph-name="cedilla" unicode="&#xb8;" horiz-adv-x="423" 
d="M110 -93q3 4 37 62l37 61q2 -1 21 -4q14 -1 23 -4l-50 -73q50 -2 75.5 -22.5t25.5 -51.5q0 -42 -38 -75q-37 -33 -100 -33q-40 0 -81 16l-4 55q38 -18 87 -18q30 0 47 13.5t17 34.5q0 15 -14 24.5t-35 9.5q-12 0 -34 -6l-4 2q-3 3 -6.5 5.5t-3.5 3.5z" />
    <glyph glyph-name="onesuperior" unicode="&#xb9;" horiz-adv-x="310" 
d="M254 784h13l-56 -394h-78l41 289q-2 -1 -52 -25l-49 -22l10 70z" />
    <glyph glyph-name="ordmasculine" unicode="&#xba;" horiz-adv-x="367" 
d="M230 604q67 0 104.5 -36t37.5 -97q0 -75 -51 -127q-51 -51 -131 -51q-68 0 -106.5 35t-38.5 96q0 74 51 127q53 53 134 53zM224 537q-41 0 -68 -31t-27 -77q0 -33 17 -52.5t49 -19.5q42 0 70 32t28 77q0 32 -18.5 51.5t-50.5 19.5z" />
    <glyph glyph-name="guillemotright" unicode="&#xbb;" horiz-adv-x="448" 
d="M98 14h-98l160 192l-107 186h96l104 -184l-1 -10zM257 14h-99l160 192l-107 186h96l104 -184l-1 -10z" />
    <glyph glyph-name="onequarter" unicode="&#xbc;" horiz-adv-x="777" 
d="M345 101l220 285h81l-188 -242h94l7 37l63 86h23l-18 -123h49l-8 -59h-49l-12 -85h-74l12 85h-202zM262 692h13l-56 -394h-78l41 289q-2 -1 -52 -25l-49 -22l10 70zM631 683h69l-575 -707h-68z" />
    <glyph glyph-name="onehalf" unicode="&#xbd;" horiz-adv-x="777" 
d="M598 394q58 0 90 -27t32 -73q0 -56 -49 -120q-46 -61 -116 -115h139l-8 -60h-299l1 13q252 154 252 263q0 55 -60 55q-54 0 -128 -48l13 71q68 41 133 41zM250 692h13l-56 -394h-78l41 289q-2 -1 -52 -25l-49 -22l10 70zM600 683h69l-575 -707h-68z" />
    <glyph glyph-name="threequarters" unicode="&#xbe;" horiz-adv-x="777" 
d="M375 101l220 285h81l-188 -242h94l7 37l63 86h23l-18 -123h49l-8 -59h-49l-12 -85h-74l12 85h-202zM141 497l-6 10l118 119h-155l9 60h269l-1 -12l-133 -135q47 -4 73.5 -30.5t26.5 -69.5q0 -65 -50 -106q-49 -40 -119 -40q-83 0 -130 33l10 74q52 -47 117 -47
q42 0 69 25t27 60q0 29 -22.5 46t-58.5 17q-27 0 -44 -4zM667 683h69l-575 -707h-68z" />
    <glyph glyph-name="questiondown" unicode="&#xbf;" horiz-adv-x="498" 
d="M214 -245q-88 0 -140 41.5t-52 111.5q0 90 87 164q17 15 68 55t72.5 65t22.5 50q0 18 -6 28q20 5 90 19q8 -29 8 -46q0 -68 -81 -133q-6 -5 -28 -22t-30 -24t-26 -23t-26.5 -26.5t-19 -25.5t-14.5 -30t-4 -30q0 -38 27.5 -60.5t76.5 -22.5q71 0 159 41l-14 -96
q-86 -36 -170 -36zM329 456q24 0 37.5 -14t13.5 -36q0 -29 -20 -49.5t-48 -20.5q-24 0 -38 14t-14 37q0 29 20.5 49t48.5 20z" />
    <glyph glyph-name="Agrave" unicode="&#xc0;" horiz-adv-x="628" 
d="M581 0h-108l-33 128h-279l-71 -128h-113l389 669h17zM350 465h-4l-145 -260h220zM298 881l107 -158h-65l-126 126q42 17 84 32z" />
    <glyph glyph-name="Aacute" unicode="&#xc1;" horiz-adv-x="628" 
d="M581 0h-108l-33 128h-279l-71 -128h-113l389 669h17zM350 465h-4l-145 -260h220zM551 844l-149 -121h-70l139 154z" />
    <glyph glyph-name="Acircumflex" unicode="&#xc2;" horiz-adv-x="628" 
d="M581 0h-108l-33 128h-279l-71 -128h-113l389 669h17zM350 465h-4l-145 -260h220zM410 871l124 -153h-90l-54 71l-83 -71h-89l173 153h19z" />
    <glyph glyph-name="Atilde" unicode="&#xc3;" horiz-adv-x="628" 
d="M581 0h-108l-33 128h-279l-71 -128h-113l389 669h17zM350 465h-4l-145 -260h220zM511 868l26 -46q-37 -78 -96 -78q-23 0 -64 24q-38 25 -55 25q-30 0 -62 -54l-30 46q43 79 100 79q22 0 63 -26q40 -25 56 -25q28 0 62 55z" />
    <glyph glyph-name="Adieresis" unicode="&#xc4;" horiz-adv-x="628" 
d="M581 0h-108l-33 128h-279l-71 -128h-113l389 669h17zM350 465h-4l-145 -260h220zM308 847q19 0 31.5 -13t12.5 -33q0 -25 -18 -43t-41 -18q-21 0 -33.5 12.5t-12.5 31.5q0 26 18.5 44.5t42.5 18.5zM480 847q21 0 33 -12.5t12 -33.5q0 -24 -17.5 -42.5t-41.5 -18.5
q-21 0 -33.5 12.5t-12.5 31.5q0 26 18 44.5t42 18.5z" />
    <glyph glyph-name="Aring" unicode="&#xc5;" horiz-adv-x="628" 
d="M403 855q40 0 65.5 -25.5t25.5 -64.5q0 -44 -31 -78q-32 -34 -74 -38l192 -649h-108l-33 128h-279l-71 -128h-113l377 649q-33 6 -51 28.5t-18 55.5q0 49 35 86q34 36 83 36zM350 465h-4l-145 -260h220zM395 802q-22 0 -38.5 -18.5t-16.5 -41.5q0 -18 11 -29.5t30 -11.5
q24 0 40 16.5t16 40.5q0 19 -11 31.5t-31 12.5z" />
    <glyph glyph-name="AE" unicode="&#xc6;" horiz-adv-x="927" 
d="M878 91l-12 -91h-440l16 131h-241l-115 -131h-128l592 660h370q-12 -87 -12 -91h-308l-21 -179h284l-11 -89h-284q-5 -48 -26 -210h336zM482 446h-4l-211 -238h185z" />
    <glyph glyph-name="Ccedilla" unicode="&#xc7;" horiz-adv-x="603" 
d="M237 -101l56 94q-115 15 -177 88t-62 189q0 176 113 289q114 114 281 114q102 0 160 -31l-11 -99q-64 35 -146 35q-113 0 -199 -81q-84 -81 -84 -216q0 -93 54.5 -145t152.5 -52q88 0 182 47l-14 -100q-81 -42 -195 -42h-10l-33 -48q50 -2 75.5 -22.5t25.5 -51.5
q0 -42 -38 -75t-100 -33q-40 0 -81 16l-4 55q37 -18 87 -18q30 0 47 13.5t17 34.5q0 15 -14 24.5t-35 9.5q-11 0 -34 -6l-3 2q-4 3 -7.5 5.5t-3.5 3.5z" />
    <glyph glyph-name="Egrave" unicode="&#xc8;" horiz-adv-x="551" 
d="M161 91h336q-12 -87 -12 -91h-449l93 660h424l-13 -91h-311l-15 -96l-11 -83h284l-12 -89h-285zM309 881l107 -158h-65l-126 126q42 17 84 32z" />
    <glyph glyph-name="Eacute" unicode="&#xc9;" horiz-adv-x="551" 
d="M161 91h336q-12 -87 -12 -91h-449l93 660h424l-13 -91h-311l-15 -96l-11 -83h284l-12 -89h-285zM495 844l-149 -121h-70l139 154z" />
    <glyph glyph-name="Ecircumflex" unicode="&#xca;" horiz-adv-x="551" 
d="M161 91h336q-12 -87 -12 -91h-449l93 660h424l-13 -91h-311l-15 -96l-11 -83h284l-12 -89h-285zM378 874l124 -153h-90l-54 71l-83 -71h-89l173 153h19z" />
    <glyph glyph-name="Edieresis" unicode="&#xcb;" horiz-adv-x="551" 
d="M161 91h336q-12 -87 -12 -91h-449l93 660h424l-13 -91h-311l-15 -96l-11 -83h284l-12 -89h-285zM270 847q19 0 31.5 -13t12.5 -33q0 -25 -18 -43t-41 -18q-21 0 -33.5 12.5t-12.5 31.5q0 26 18.5 44.5t42.5 18.5zM442 847q21 0 33 -12.5t12 -33.5q0 -24 -17.5 -42.5
t-41.5 -18.5q-21 0 -33.5 12.5t-12.5 31.5q0 26 18 44.5t42 18.5z" />
    <glyph glyph-name="Igrave" unicode="&#xcc;" horiz-adv-x="271" 
d="M248 660l-93 -660h-112l93 660h112zM142 881l107 -158h-65l-126 126q42 17 84 32z" />
    <glyph glyph-name="Iacute" unicode="&#xcd;" horiz-adv-x="271" 
d="M248 660l-93 -660h-112l93 660h112zM365 844l-149 -121h-70l139 154z" />
    <glyph glyph-name="Icircumflex" unicode="&#xce;" horiz-adv-x="271" 
d="M236 874l124 -153h-90l-54 71l-83 -71h-89l173 153h19zM248 660l-93 -660h-112l93 660h112z" />
    <glyph glyph-name="Idieresis" unicode="&#xcf;" horiz-adv-x="271" 
d="M132 847q19 0 31.5 -13t12.5 -33q0 -25 -18 -43t-41 -18q-21 0 -33.5 12.5t-12.5 31.5q0 26 18.5 44.5t42.5 18.5zM304 847q21 0 33 -12.5t12 -33.5q0 -24 -17.5 -42.5t-41.5 -18.5q-21 0 -33.5 12.5t-12.5 31.5q0 26 18 44.5t42 18.5zM248 660l-93 -660h-112l93 660h112
z" />
    <glyph glyph-name="Eth" unicode="&#xd0;" horiz-adv-x="674" 
d="M278 0h-242l43 306h-55l9 66h56q21 154 40 288h227q136 0 209.5 -74.5t73.5 -204.5q0 -166 -100 -273q-99 -108 -261 -108zM347 570h-119q-6 -39 -28 -198h170l-9 -66h-171l-29 -215h126q114 2 178 82q66 83 66 210q0 88 -47 137.5t-137 49.5z" />
    <glyph glyph-name="Ntilde" unicode="&#xd1;" horiz-adv-x="704" 
d="M209 449l-62 -449h-111l94 672h19l362 -451h4l63 439h111l-94 -671h-17l-366 460h-3zM548 861l26 -46q-38 -78 -96 -78q-24 0 -64 24q-38 25 -55 25q-31 0 -62 -54l-30 46q43 79 100 79q22 0 63 -26q40 -25 56 -25q28 0 62 55z" />
    <glyph glyph-name="Ograve" unicode="&#xd2;" horiz-adv-x="762" 
d="M437 671q137 0 213 -82q77 -82 77 -210q0 -165 -111 -277q-109 -112 -269 -112q-135 0 -213 80t-78 208q0 162 110 278q109 115 271 115zM356 84q110 0 184 83q74 85 74 206q0 88 -50 146q-49 57 -136 57q-108 0 -183 -86t-75 -205q0 -90 49 -145q50 -56 137 -56z
M399 881l107 -158h-65l-126 126q42 17 84 32z" />
    <glyph glyph-name="Oacute" unicode="&#xd3;" horiz-adv-x="762" 
d="M437 671q137 0 213 -82q77 -82 77 -210q0 -165 -111 -277q-109 -112 -269 -112q-135 0 -213 80t-78 208q0 162 110 278q109 115 271 115zM356 84q110 0 184 83q74 85 74 206q0 88 -50 146q-49 57 -136 57q-108 0 -183 -86t-75 -205q0 -90 49 -145q50 -56 137 -56z
M622 844l-149 -121h-70l139 154z" />
    <glyph glyph-name="Ocircumflex" unicode="&#xd4;" horiz-adv-x="762" 
d="M437 671q137 0 213 -82q77 -82 77 -210q0 -165 -111 -277q-109 -112 -269 -112q-135 0 -213 80t-78 208q0 162 110 278q109 115 271 115zM356 84q110 0 184 83q74 85 74 206q0 88 -50 146q-49 57 -136 57q-108 0 -183 -86t-75 -205q0 -90 49 -145q50 -56 137 -56z
M494 874l124 -153h-90l-54 71l-83 -71h-89l173 153h19z" />
    <glyph glyph-name="Otilde" unicode="&#xd5;" horiz-adv-x="762" 
d="M437 671q137 0 213 -82q77 -82 77 -210q0 -165 -111 -277q-109 -112 -269 -112q-135 0 -213 80t-78 208q0 162 110 278q109 115 271 115zM356 84q110 0 184 83q74 85 74 206q0 88 -50 146q-49 57 -136 57q-108 0 -183 -86t-75 -205q0 -90 49 -145q50 -56 137 -56z
M589 869l26 -46q-37 -78 -96 -78q-23 0 -64 24q-38 25 -55 25q-30 0 -62 -54l-30 46q43 79 100 79q22 0 63 -26q40 -25 56 -25q28 0 62 55z" />
    <glyph glyph-name="Odieresis" unicode="&#xd6;" horiz-adv-x="762" 
d="M437 671q137 0 213 -82q77 -82 77 -210q0 -165 -111 -277q-109 -112 -269 -112q-135 0 -213 80t-78 208q0 162 110 278q109 115 271 115zM356 84q110 0 184 83q74 85 74 206q0 88 -50 146q-49 57 -136 57q-108 0 -183 -86t-75 -205q0 -90 49 -145q50 -56 137 -56z
M380 847q19 0 31.5 -13t12.5 -33q0 -25 -18 -43t-41 -18q-21 0 -33.5 12.5t-12.5 31.5q0 26 18.5 44.5t42.5 18.5zM552 847q21 0 33 -12.5t12 -33.5q0 -24 -17.5 -42.5t-41.5 -18.5q-21 0 -33.5 12.5t-12.5 31.5q0 26 18 44.5t42 18.5z" />
    <glyph glyph-name="multiply" unicode="&#xd7;" horiz-adv-x="546" 
d="M369 125l-96 116l-132 -119q-21 24 -41 50l132 118l-98 116l54 48l97 -116l129 116q21 -23 41 -50l-129 -116l97 -115z" />
    <glyph glyph-name="Oslash" unicode="&#xd8;" horiz-adv-x="762" 
d="M437 671q112 0 186 -59l42 48h57l-67 -76q72 -78 72 -205q0 -165 -111 -277q-109 -112 -269 -112q-102 0 -172 46l-33 -36h-58l56 64q-84 78 -84 214q0 162 110 278q109 115 271 115zM172 285q0 -86 43 -138l335 385q-50 44 -122 44q-108 0 -182 -86t-74 -205zM356 84
q107 0 182 84t75 205q0 70 -35 125l-331 -383q44 -31 109 -31z" />
    <glyph glyph-name="Ugrave" unicode="&#xd9;" horiz-adv-x="675" 
d="M491 251l58 409h111l-58 -407q-18 -123 -95 -193t-207 -70q-112 0 -170.5 55.5t-59.5 155.5q0 34 4 58l55 401h112l-57 -404q-2 -18 -2 -40q0 -131 132 -131q76 0 120.5 44.5t56.5 121.5zM354 881l107 -158h-65l-126 126q42 17 84 32z" />
    <glyph glyph-name="Uacute" unicode="&#xda;" horiz-adv-x="675" 
d="M491 251l58 409h111l-58 -407q-18 -123 -95 -193t-207 -70q-112 0 -170.5 55.5t-59.5 155.5q0 34 4 58l55 401h112l-57 -404q-2 -18 -2 -40q0 -131 132 -131q76 0 120.5 44.5t56.5 121.5zM560 844l-149 -121h-70l139 154z" />
    <glyph glyph-name="Ucircumflex" unicode="&#xdb;" horiz-adv-x="675" 
d="M491 251l58 409h111l-58 -407q-18 -123 -95 -193t-207 -70q-112 0 -170.5 55.5t-59.5 155.5q0 34 4 58l55 401h112l-57 -404q-2 -18 -2 -40q0 -131 132 -131q76 0 120.5 44.5t56.5 121.5zM436 872l125 -152h-91l-55 71l-84 -71h-90l175 152h20z" />
    <glyph glyph-name="Udieresis" unicode="&#xdc;" horiz-adv-x="675" 
d="M491 251l58 409h111l-58 -407q-18 -123 -95 -193t-207 -70q-112 0 -170.5 55.5t-59.5 155.5q0 34 4 58l55 401h112l-57 -404q-2 -18 -2 -40q0 -131 132 -131q76 0 120.5 44.5t56.5 121.5zM329 847q19 0 31.5 -13t12.5 -33q0 -25 -18 -43t-41 -18q-21 0 -33.5 12.5
t-12.5 31.5q0 26 18.5 44.5t42.5 18.5zM501 847q21 0 33 -12.5t12 -33.5q0 -24 -17.5 -42.5t-41.5 -18.5q-21 0 -33.5 12.5t-12.5 31.5q0 26 18 44.5t42 18.5z" />
    <glyph glyph-name="Yacute" unicode="&#xdd;" horiz-adv-x="570" 
d="M184 660l118 -286h4l191 286h122l-270 -387l-38 -273h-112l39 273l-86 192q-70 163 -87 195h119zM512 840l-149 -121h-70l139 154z" />
    <glyph glyph-name="Thorn" unicode="&#xde;" horiz-adv-x="566" 
d="M227 566h138q92 0 143 -52t51 -132q0 -77 -55 -150q-28 -38 -80.5 -61.5t-117.5 -23.5h-137l-21 -147h-111l93 661h111zM336 476h-122l-34 -242h123q63 0 104 39q41 41 41 99q0 47 -27.5 75.5t-84.5 28.5z" />
    <glyph glyph-name="germandbls" unicode="&#xdf;" horiz-adv-x="567" 
d="M343 726q81 0 129 -41.5t48 -109.5q0 -46 -24.5 -87t-66.5 -65l-1 -5q46 -17 72 -60.5t26 -101.5q0 -113 -67 -189q-67 -75 -181 -75q-28 0 -64 7l-5 87q24 -7 53 -7q69 0 115 49q48 50 48 130q0 116 -131 116l9 75q60 0 88 37q29 38 29 75q0 39 -25 61.5t-62 22.5
q-64 0 -96 -41q-30 -39 -38 -93l-71 -511h-104l70 497q15 102 81 165q65 64 168 64z" />
    <glyph glyph-name="agrave" unicode="&#xe0;" horiz-adv-x="556" 
d="M381 0l-7 58h-4q-68 -68 -166 -68q-84 0 -129.5 50.5t-45.5 133.5q0 124 69 202q69 79 177 79q100 0 144 -74h4l26 64h68l-29 -204l-33 -241h-74zM278 373q-67 0 -106 -55q-38 -55 -38 -126q0 -56 25.5 -88t76.5 -32q63 0 105 51q43 52 43 130q0 53 -28 86.5t-78 33.5z
M257 687l98 -166h-62l-113 136q5 3 42 16q9 4 18 7.5t13 5.5z" />
    <glyph glyph-name="aacute" unicode="&#xe1;" horiz-adv-x="556" 
d="M381 0l-7 58h-4q-68 -68 -166 -68q-84 0 -129.5 50.5t-45.5 133.5q0 124 69 202q69 79 177 79q100 0 144 -74h4l26 64h68l-29 -204l-33 -241h-74zM278 373q-67 0 -106 -55q-38 -55 -38 -126q0 -56 25.5 -88t76.5 -32q63 0 105 51q43 52 43 130q0 53 -28 86.5t-78 33.5z
M447 655l-139 -134h-67l130 168q5 -1 38 -17z" />
    <glyph glyph-name="acircumflex" unicode="&#xe2;" horiz-adv-x="556" 
d="M278 373q-67 0 -106 -55q-38 -55 -38 -126q0 -56 25.5 -88t76.5 -32q63 0 105 51q43 52 43 130q0 53 -28 86.5t-78 33.5zM381 0l-7 58h-4q-68 -68 -166 -68q-84 0 -129.5 50.5t-45.5 133.5q0 124 69 202q69 79 177 79q100 0 144 -74h4l26 64h68l-29 -204l-33 -241h-74z
M338 683l119 -162h-83l-55 77l-84 -77h-85l170 162h18z" />
    <glyph glyph-name="atilde" unicode="&#xe3;" horiz-adv-x="556" 
d="M278 373q-67 0 -106 -55q-38 -55 -38 -126q0 -56 25.5 -88t76.5 -32q63 0 105 51q43 52 43 130q0 53 -28 86.5t-78 33.5zM381 0l-7 58h-4q-68 -68 -166 -68q-84 0 -129.5 50.5t-45.5 133.5q0 124 69 202q69 79 177 79q100 0 144 -74h4l26 64h68l-29 -204l-33 -241h-74z
M437 658l26 -46q-37 -78 -96 -78q-23 0 -64 24q-38 25 -55 25q-30 0 -62 -54l-30 46q43 79 100 79q22 0 63 -26q40 -25 56 -25q28 0 62 55z" />
    <glyph glyph-name="adieresis" unicode="&#xe4;" horiz-adv-x="556" 
d="M278 373q-67 0 -106 -55q-38 -55 -38 -126q0 -56 25.5 -88t76.5 -32q63 0 105 51q43 52 43 130q0 53 -28 86.5t-78 33.5zM381 0l-7 58h-4q-68 -68 -166 -68q-84 0 -129.5 50.5t-45.5 133.5q0 124 69 202q69 79 177 79q100 0 144 -74h4l26 64h68l-29 -204l-33 -241h-74z
M234 646q20 0 32 -12.5t12 -31.5q0 -25 -17.5 -43t-40.5 -18q-21 0 -33.5 12.5t-12.5 31.5q0 25 18 43t42 18zM406 646q20 0 32 -12.5t12 -31.5q0 -25 -17 -43t-42 -18q-21 0 -33 12.5t-12 30.5q0 26 18 44t42 18z" />
    <glyph glyph-name="aring" unicode="&#xe5;" horiz-adv-x="556" 
d="M278 373q-67 0 -106 -55q-38 -55 -38 -126q0 -56 25.5 -88t76.5 -32q63 0 105 51q43 52 43 130q0 53 -28 86.5t-78 33.5zM381 0l-7 58h-4q-68 -68 -166 -68q-84 0 -129.5 50.5t-45.5 133.5q0 124 69 202q69 79 177 79q100 0 144 -74h4l26 64h68l-29 -204l-33 -241h-74z
M334 722q40 0 65.5 -25.5t25.5 -64.5q0 -48 -36 -83q-35 -34 -84 -34q-41 0 -65 23t-24 62q0 49 35 86q35 36 83 36zM326 669q-22 0 -38.5 -18.5t-16.5 -41.5q0 -18 11 -29.5t30 -11.5q24 0 40 16.5t16 40.5q0 19 -11 31.5t-31 12.5z" />
    <glyph glyph-name="ae" unicode="&#xe6;" horiz-adv-x="774" 
d="M583 457q74 0 118 -36.5t44 -92.5q0 -66 -66.5 -104.5t-183.5 -38.5q-29 0 -61 3q-1 -3 -1 -13q0 -49 30.5 -79t82.5 -30q96 0 169 58q0 -1 -0.5 -5t-2 -13t-2.5 -18q-1 -8 -2.5 -19.5t-3 -18.5t-1.5 -12q-74 -47 -175 -47q-128 0 -172 92q-70 -94 -204 -94h-2
q-72 1 -108.5 31.5t-36.5 78.5q0 84 68 125t172 41h82q3 17 3 36q0 77 -96 77q-71 0 -146 -39l12 83q75 34 155 34q125 0 156 -72q70 73 172 73zM317 188l4 23h-73q-57 0 -98 -22q-42 -23 -42 -70q0 -27 21.5 -42.5t58.5 -15.5q52 0 85.5 34.5t43.5 92.5zM575 377
q-52 0 -88.5 -35.5t-48.5 -96.5q21 -4 54 -4q75 0 114.5 21.5t39.5 55.5q0 26 -18 42.5t-53 16.5z" />
    <glyph glyph-name="ccedilla" unicode="&#xe7;" horiz-adv-x="422" 
d="M117 -93l52 88q-67 15 -103.5 66.5t-36.5 125.5q0 122 77 196t191 74q69 0 109 -21l-6 -43l-6 -45q-36 24 -93 24q-75 0 -120.5 -50t-45.5 -134q0 -52 32.5 -83.5t89.5 -31.5q63 0 119 32l-13 -86q-54 -30 -141 -30h-10l-27 -40q50 -2 75.5 -22.5t25.5 -51.5
q0 -42 -38 -75t-100 -33q-40 0 -81 16l-4 55q37 -18 87 -18q30 0 47 13.5t17 34.5q0 15 -14 24.5t-35 9.5q-11 0 -34 -6l-3 2q-4 3 -7.5 5.5t-3.5 3.5z" />
    <glyph glyph-name="egrave" unicode="&#xe8;" horiz-adv-x="476" 
d="M284 457q74 0 118 -36.5t44 -92.5q0 -66 -68 -106.5t-181 -40.5q-47 0 -62 1q-2 -18 -2 -21q0 -46 30.5 -70.5t83.5 -24.5q94 0 170 58q-3 -18 -13 -86q-76 -48 -179 -48q-96 0 -146 51t-50 140q0 113 71 195q70 81 184 81zM277 377q-52 0 -89 -36t-48 -97q17 -4 52 -4
q70 0 112.5 22t42.5 56q0 26 -18 42.5t-52 16.5zM266 687l98 -166h-62l-113 136q5 3 42 16q9 4 18 7.5t13 5.5z" />
    <glyph glyph-name="eacute" unicode="&#xe9;" horiz-adv-x="476" 
d="M284 457q74 0 118 -36.5t44 -92.5q0 -66 -68 -106.5t-181 -40.5q-47 0 -62 1q-2 -18 -2 -21q0 -46 30.5 -70.5t83.5 -24.5q94 0 170 58q-3 -18 -13 -86q-76 -48 -179 -48q-96 0 -146 51t-50 140q0 113 71 195q70 81 184 81zM277 377q-52 0 -89 -36t-48 -97q17 -4 52 -4
q70 0 112.5 22t42.5 56q0 26 -18 42.5t-52 16.5zM449 655l-139 -134h-67l130 168q5 -1 38 -17z" />
    <glyph glyph-name="ecircumflex" unicode="&#xea;" horiz-adv-x="476" 
d="M284 457q74 0 118 -36.5t44 -92.5q0 -66 -68 -106.5t-181 -40.5q-47 0 -62 1q-2 -18 -2 -21q0 -46 30.5 -70.5t83.5 -24.5q94 0 170 58q-3 -18 -13 -86q-76 -48 -179 -48q-96 0 -146 51t-50 140q0 113 71 195q70 81 184 81zM277 377q-52 0 -89 -36t-48 -97q17 -4 52 -4
q70 0 112.5 22t42.5 56q0 26 -18 42.5t-52 16.5zM341 683l119 -162h-83l-55 77l-84 -77h-85l170 162h18z" />
    <glyph glyph-name="edieresis" unicode="&#xeb;" horiz-adv-x="476" 
d="M284 457q74 0 118 -36.5t44 -92.5q0 -66 -68 -106.5t-181 -40.5q-47 0 -62 1q-2 -18 -2 -21q0 -46 30.5 -70.5t83.5 -24.5q94 0 170 58q-3 -18 -13 -86q-76 -48 -179 -48q-96 0 -146 51t-50 140q0 113 71 195q70 81 184 81zM277 377q-52 0 -89 -36t-48 -97q17 -4 52 -4
q70 0 112.5 22t42.5 56q0 26 -18 42.5t-52 16.5zM230 646q20 0 32 -12.5t12 -31.5q0 -25 -17.5 -43t-40.5 -18q-21 0 -33.5 12.5t-12.5 31.5q0 25 18 43t42 18zM402 646q20 0 32 -12.5t12 -31.5q0 -25 -17 -43t-42 -18q-21 0 -33 12.5t-12 30.5q0 26 18 44t42 18z" />
    <glyph glyph-name="igrave" unicode="&#xec;" horiz-adv-x="244" 
d="M200 445l-62 -445h-104l62 445h104zM101 687l98 -166h-62l-113 136q5 3 42 16q9 4 18 7.5t13 5.5z" />
    <glyph glyph-name="iacute" unicode="&#xed;" horiz-adv-x="244" 
d="M200 445l-62 -445h-104l62 445h104zM323 655l-139 -134h-67l130 168l37 -17q35 -16 39 -17z" />
    <glyph glyph-name="icircumflex" unicode="&#xee;" horiz-adv-x="244" 
d="M195 683l119 -162h-83l-55 77l-84 -77h-85l170 162h18zM200 445l-62 -445h-104l62 445h104z" />
    <glyph glyph-name="idieresis" unicode="&#xef;" horiz-adv-x="244" 
d="M88 646q20 0 32 -12.5t12 -31.5q0 -25 -17.5 -43t-40.5 -18q-21 0 -33.5 12.5t-12.5 31.5q0 25 18 43t42 18zM260 646q20 0 32 -12.5t12 -31.5q0 -25 -17 -43t-42 -18q-21 0 -33 12.5t-12 30.5q0 26 18 44t42 18zM200 445l-62 -445h-104l62 445h104z" />
    <glyph glyph-name="eth" unicode="&#xf0;" horiz-adv-x="548" 
d="M237 -10q-98 0 -153 51t-55 137q0 112 76 189q76 79 186 79q84 0 116 -56q3 0 3 2q-11 85 -66 158l-100 -61q1 24 9 59l57 38q-48 50 -111 88l81 44q64 -39 107 -85l105 66l-10 -63l-62 -38q96 -122 96 -276q0 -118 -63 -218q-32 -52 -88.5 -83t-127.5 -31zM288 361
q-66 0 -110 -51q-44 -50 -44 -119q0 -54 30.5 -86t84.5 -32q67 0 110 52q44 53 44 117q0 53 -31.5 86t-83.5 33z" />
    <glyph glyph-name="ntilde" unicode="&#xf1;" horiz-adv-x="537" 
d="M477 271l-38 -271h-104l35 252q6 49 -11.5 83.5t-59.5 34.5q-54 0 -91.5 -45t-48.5 -123l-29 -202h-104l62 445h81l5 -72h3q64 82 162 82q141 0 141 -141q0 -19 -3 -43zM432 658l26 -46q-38 -78 -96 -78q-24 0 -64 24q-38 25 -55 25q-31 0 -62 -54l-30 46q43 79 100 79
q22 0 63 -26q40 -25 56 -25q28 0 62 55z" />
    <glyph glyph-name="ograve" unicode="&#xf2;" horiz-adv-x="533" 
d="M294 457q95 0 148 -53.5t53 -143.5q0 -116 -73 -193q-74 -78 -188 -78q-96 0 -150 53t-54 143q0 114 73 193t191 79zM286 372q-66 0 -108 -53t-42 -126q0 -55 28 -87.5t79 -32.5q66 0 108 52q43 52 43 125q0 55 -29 88.5t-79 33.5zM273 687l98 -166h-62l-113 136
q5 3 42 16q9 4 18 7.5t13 5.5z" />
    <glyph glyph-name="oacute" unicode="&#xf3;" horiz-adv-x="533" 
d="M294 457q95 0 148 -53.5t53 -143.5q0 -116 -73 -193q-74 -78 -188 -78q-96 0 -150 53t-54 143q0 114 73 193t191 79zM286 372q-66 0 -108 -53t-42 -126q0 -55 28 -87.5t79 -32.5q66 0 108 52q43 52 43 125q0 55 -29 88.5t-79 33.5zM469 655l-139 -134h-67l130 168
q5 -1 38 -17z" />
    <glyph glyph-name="ocircumflex" unicode="&#xf4;" horiz-adv-x="533" 
d="M355 683l119 -162h-83l-55 77l-84 -77h-85l170 162h18zM294 457q95 0 148 -53.5t53 -143.5q0 -116 -73 -193q-74 -78 -188 -78q-96 0 -150 53t-54 143q0 114 73 193t191 79zM286 372q-66 0 -108 -53t-42 -126q0 -55 28 -87.5t79 -32.5q66 0 108 52q43 52 43 125
q0 55 -29 88.5t-79 33.5z" />
    <glyph glyph-name="otilde" unicode="&#xf5;" horiz-adv-x="533" 
d="M294 457q95 0 148 -53.5t53 -143.5q0 -116 -73 -193q-74 -78 -188 -78q-96 0 -150 53t-54 143q0 114 73 193t191 79zM286 372q-66 0 -108 -53t-42 -126q0 -55 28 -87.5t79 -32.5q66 0 108 52q43 52 43 125q0 55 -29 88.5t-79 33.5zM445 657l26 -46q-37 -78 -96 -78
q-23 0 -64 24q-38 25 -55 25q-30 0 -62 -54l-30 46q43 79 100 79q22 0 63 -26q40 -25 56 -25q28 0 62 55z" />
    <glyph glyph-name="odieresis" unicode="&#xf6;" horiz-adv-x="533" 
d="M294 457q95 0 148 -53.5t53 -143.5q0 -116 -73 -193q-74 -78 -188 -78q-96 0 -150 53t-54 143q0 114 73 193t191 79zM286 372q-66 0 -108 -53t-42 -126q0 -55 28 -87.5t79 -32.5q66 0 108 52q43 52 43 125q0 55 -29 88.5t-79 33.5zM243 646q20 0 32 -12.5t12 -31.5
q0 -25 -17.5 -43t-40.5 -18q-21 0 -33.5 12.5t-12.5 31.5q0 25 18.5 43t41.5 18zM415 646q20 0 32 -12.5t12 -31.5q0 -25 -17 -43t-42 -18q-20 0 -32.5 12.5t-12.5 30.5q0 26 18 44t42 18z" />
    <glyph glyph-name="divide" unicode="&#xf7;" horiz-adv-x="546" 
d="M308 503q22 0 36 -14.5t14 -36.5q0 -27 -20 -47.5t-45 -20.5q-22 0 -36.5 15t-14.5 36q0 27 20 47.5t46 20.5zM468 262h-389l11 69h387q-1 -8 -5 -35t-4 -34zM266 206q22 0 36.5 -14t14.5 -36q0 -27 -21 -47t-46 -20q-21 0 -35 14.5t-14 35.5q0 27 19.5 47t45.5 20z" />
    <glyph glyph-name="oslash" unicode="&#xf8;" horiz-adv-x="533" 
d="M294 457q84 0 133 -42l29 29h53l-55 -56q41 -50 41 -128q0 -116 -73 -193q-74 -78 -188 -78q-79 0 -132 38l-26 -27h-53l52 53q-45 49 -45 132q0 114 73 193t191 79zM286 372q-66 0 -108 -53t-42 -126q0 -39 13 -65l209 216q-28 28 -72 28zM394 250q0 36 -13 63
l-209 -215q25 -25 71 -25q66 0 108 52q43 52 43 125z" />
    <glyph glyph-name="ugrave" unicode="&#xf9;" horiz-adv-x="526" 
d="M62 169l38 276h103l-35 -254q-15 -114 72 -114q50 0 84 43t44 115l30 210h104l-62 -445h-84l-2 66h-4q-60 -74 -145 -74q-79 0 -117 46.5t-26 130.5zM263 687l98 -166h-62l-113 136q5 3 42 16q9 4 18 7.5t13 5.5z" />
    <glyph glyph-name="uacute" unicode="&#xfa;" horiz-adv-x="526" 
d="M62 169l38 276h103l-35 -254q-15 -114 72 -114q50 0 84 43t44 115l30 210h104l-62 -445h-84l-2 66h-4q-60 -74 -145 -74q-79 0 -117 46.5t-26 130.5zM455 655l-139 -134h-67l130 168l37 -17q35 -16 39 -17z" />
    <glyph glyph-name="ucircumflex" unicode="&#xfb;" horiz-adv-x="526" 
d="M62 169l38 276h103l-35 -254q-15 -114 72 -114q50 0 84 43t44 115l30 210h104l-62 -445h-84l-2 66h-4q-60 -74 -145 -74q-79 0 -117 46.5t-26 130.5zM340 683l119 -162h-83l-55 77l-84 -77h-85l170 162h18z" />
    <glyph glyph-name="udieresis" unicode="&#xfc;" horiz-adv-x="526" 
d="M62 169l38 276h103l-35 -254q-15 -114 72 -114q50 0 84 43t44 115l30 210h104l-62 -445h-84l-2 66h-4q-60 -74 -145 -74q-79 0 -117 46.5t-26 130.5zM242 646q20 0 32 -12.5t12 -31.5q0 -25 -17.5 -43t-40.5 -18q-21 0 -33.5 12.5t-12.5 31.5q0 25 18 43t42 18zM414 646
q20 0 32 -12.5t12 -31.5q0 -25 -17 -43t-42 -18q-21 0 -33 12.5t-12 30.5q0 26 18 44t42 18z" />
    <glyph glyph-name="yacute" unicode="&#xfd;" horiz-adv-x="455" 
d="M130 445l70 -327h5l163 327h106l-353 -661h-101l121 229l-117 432h106zM413 654l-139 -134h-67l130 168q5 -1 38 -17t38 -17z" />
    <glyph glyph-name="thorn" unicode="&#xfe;" horiz-adv-x="549" 
d="M124 53l-39 -269h-100l129 927h100q-3 -21 -25 -176l-21 -146l3 -3q59 69 161 69q86 0 133 -54q46 -53 46 -133q0 -124 -71 -201t-171 -77t-139 64h-3zM300 371q-65 0 -108 -52q-43 -50 -43 -129q0 -54 28.5 -86.5t80.5 -32.5q68 0 108 51q41 53 41 127q0 57 -27.5 89.5
t-79.5 32.5z" />
    <glyph glyph-name="ydieresis" unicode="&#xff;" horiz-adv-x="455" 
d="M130 445l70 -327h5l163 327h106l-353 -661h-101l121 229l-117 432h106zM197 639q20 0 32 -12.5t12 -31.5q0 -25 -17.5 -43t-40.5 -18q-21 0 -33.5 12.5t-12.5 31.5q0 24 18.5 42.5t41.5 18.5zM369 639q20 0 32 -12.5t12 -31.5q0 -25 -17 -43t-42 -18q-20 0 -32.5 12
t-12.5 31q0 26 18 44t42 18z" />
    <glyph glyph-name="Amacron" unicode="&#x100;" horiz-adv-x="628" 
d="M581 0h-108l-33 128h-279l-71 -128h-113l389 669h17zM350 465h-4l-145 -260h220zM532 751h-295l10 72h296z" />
    <glyph glyph-name="amacron" unicode="&#x101;" horiz-adv-x="556" 
d="M278 373q-67 0 -106 -55q-38 -55 -38 -126q0 -56 25.5 -88t76.5 -32q63 0 105 51q43 52 43 130q0 53 -28 86.5t-78 33.5zM381 0l-7 58h-4q-68 -68 -166 -68q-84 0 -129.5 50.5t-45.5 133.5q0 124 69 202q69 79 177 79q100 0 144 -74h4l26 64h68l-29 -204l-33 -241h-74z
M451 547h-286l10 70h286z" />
    <glyph glyph-name="Abreve" unicode="&#x102;" horiz-adv-x="628" 
d="M581 0h-108l-33 128h-279l-71 -128h-113l389 669h17zM350 465h-4l-145 -260h220zM485 866h58q-12 -61 -54 -106q-41 -44 -108 -44q-56 0 -87 34.5t-32 91.5q0 19 1 24h59q-1 -3 -1 -12q0 -36 18.5 -58t50.5 -22q35 0 59 25t36 67z" />
    <glyph glyph-name="abreve" unicode="&#x103;" horiz-adv-x="556" 
d="M278 373q-67 0 -106 -55q-38 -55 -38 -126q0 -56 25.5 -88t76.5 -32q63 0 105 51q43 52 43 130q0 53 -28 86.5t-78 33.5zM381 0l-7 58h-4q-68 -68 -166 -68q-84 0 -129.5 50.5t-45.5 133.5q0 124 69 202q69 79 177 79q100 0 144 -74h4l26 64h68l-29 -204l-33 -241h-74z
M409 675h59q-12 -62 -54 -107t-109 -45q-56 0 -87 35t-32 93q0 19 1 24h59q0 -1 -0.5 -6t-0.5 -6q0 -36 18.5 -58t50.5 -22q69 0 95 92z" />
    <glyph glyph-name="Aogonek" unicode="&#x104;" horiz-adv-x="628" 
d="M456 -173q43 0 101 31l-11 -55q-59 -33 -125 -33q-86 0 -86 66q0 46 36.5 92.5t98.5 83.5l-30 116h-279l-71 -128h-113l389 669h17l198 -669h-77q-44 -33 -68.5 -69.5t-24.5 -66.5q0 -37 45 -37zM350 465h-4l-145 -260h220z" />
    <glyph glyph-name="aogonek" unicode="&#x105;" horiz-adv-x="556" 
d="M379 17l-5 41h-4q-68 -68 -166 -68q-84 0 -129.5 50.5t-45.5 133.5q0 124 69 202q69 79 177 79q100 0 144 -74h4l26 64h68l-29 -204l-33 -241h-52q-46 -32 -73 -71t-27 -70q0 -37 45 -37q43 0 101 31l-11 -55q-58 -33 -125 -33q-86 0 -86 66q0 50 41.5 99.5t110.5 86.5z
M278 373q-67 0 -106 -55q-38 -55 -38 -126q0 -56 25.5 -88t76.5 -32q63 0 105 51q43 52 43 130q0 53 -28 86.5t-78 33.5z" />
    <glyph glyph-name="Cacute" unicode="&#x106;" horiz-adv-x="603" 
d="M557 131l-14 -100q-81 -42 -195 -42q-142 0 -219 77q-75 76 -75 204q0 176 113 289q114 114 281 114q102 0 160 -31l-11 -99q-64 35 -146 35q-113 0 -199 -81q-84 -81 -84 -216q0 -93 54.5 -145t152.5 -52q88 0 182 47zM575 844l-149 -121h-70l139 154z" />
    <glyph glyph-name="cacute" unicode="&#x107;" horiz-adv-x="422" 
d="M297 457q69 0 109 -21l-6 -43l-6 -45q-36 24 -93 24q-75 0 -120.5 -50t-45.5 -134q0 -52 32.5 -83.5t89.5 -31.5q63 0 119 32l-13 -86q-54 -30 -141 -30q-91 0 -142 54.5t-51 143.5q0 122 77 196t191 74zM422 655l-139 -134h-67l130 168l37 -17q35 -16 39 -17z" />
    <glyph glyph-name="Ccircumflex" unicode="&#x108;" horiz-adv-x="603" 
d="M557 131l-14 -100q-81 -42 -195 -42q-142 0 -219 77q-75 76 -75 204q0 176 113 289q114 114 281 114q102 0 160 -31l-11 -99q-64 35 -146 35q-113 0 -199 -81q-84 -81 -84 -216q0 -93 54.5 -145t152.5 -52q88 0 182 47zM467 876l124 -153h-90l-54 71l-83 -71h-89l173 153
h19z" />
    <glyph glyph-name="ccircumflex" unicode="&#x109;" horiz-adv-x="422" 
d="M318 683l119 -162h-83l-55 77l-84 -77h-85l170 162h18zM297 457q69 0 109 -21l-6 -43l-6 -45q-36 24 -93 24q-75 0 -120.5 -50t-45.5 -134q0 -52 32.5 -83.5t89.5 -31.5q63 0 119 32l-13 -86q-54 -30 -141 -30q-91 0 -142 54.5t-51 143.5q0 122 77 196t191 74z" />
    <glyph glyph-name="Cdotaccent" unicode="&#x10a;" horiz-adv-x="603" 
d="M557 131l-14 -100q-81 -42 -195 -42q-142 0 -219 77q-75 76 -75 204q0 176 113 289q114 114 281 114q102 0 160 -31l-11 -99q-64 35 -146 35q-113 0 -199 -81q-84 -81 -84 -216q0 -93 54.5 -145t152.5 -52q88 0 182 47zM467 863q23 0 36.5 -14.5t13.5 -36.5
q0 -29 -19.5 -50t-47.5 -21q-24 0 -38 14t-14 38q0 29 21 49.5t48 20.5z" />
    <glyph glyph-name="cdotaccent" unicode="&#x10b;" horiz-adv-x="422" 
d="M297 457q69 0 109 -21l-6 -43l-6 -45q-36 24 -93 24q-75 0 -120.5 -50t-45.5 -134q0 -52 32.5 -83.5t89.5 -31.5q63 0 119 32l-13 -86q-54 -30 -141 -30q-91 0 -142 54.5t-51 143.5q0 122 77 196t191 74zM312 654q23 0 36.5 -14.5t13.5 -36.5q0 -29 -19.5 -50t-47.5 -21
q-24 0 -38 14t-14 38q0 29 21 49.5t48 20.5z" />
    <glyph glyph-name="Ccaron" unicode="&#x10c;" horiz-adv-x="603" 
d="M444 799l80 74h90l-168 -152h-19l-129 152h87zM557 131l-14 -100q-81 -42 -195 -42q-142 0 -219 77q-75 76 -75 204q0 176 113 289q114 114 281 114q102 0 160 -31l-11 -99q-64 35 -146 35q-113 0 -199 -81q-84 -81 -84 -216q0 -93 54.5 -145t152.5 -52q88 0 182 47z" />
    <glyph glyph-name="ccaron" unicode="&#x10d;" horiz-adv-x="422" 
d="M298 601l77 79h87l-164 -163h-18l-125 163h84zM297 457q69 0 109 -21l-6 -43l-6 -45q-36 24 -93 24q-75 0 -120.5 -50t-45.5 -134q0 -52 32.5 -83.5t89.5 -31.5q63 0 119 32l-13 -86q-54 -30 -141 -30q-91 0 -142 54.5t-51 143.5q0 122 77 196t191 74z" />
    <glyph glyph-name="Dcaron" unicode="&#x10e;" horiz-adv-x="674" 
d="M278 0h-242l93 660h227q136 0 209.5 -74.5t73.5 -204.5q0 -166 -100 -273q-99 -108 -261 -108zM343 570h-115l-67 -478h123q112 0 177 81q66 81 66 210q0 88 -47 137.5t-137 49.5zM386 797l80 74h90l-168 -152h-19l-129 152h87z" />
    <glyph glyph-name="dcaron" unicode="&#x10f;" horiz-adv-x="640" 
d="M459 711h99l-99 -711h-77l-5 57q-3 0 -4 1q-60 -66 -164 -66q-88 0 -135 53q-46 53 -46 133q0 124 71 201q72 77 173 77q96 0 136 -63q1 0 3 1t3 1l18 132q17 126 27 184zM240 74q64 0 107 51q44 53 44 130q0 54 -28.5 86t-80.5 32q-69 0 -109 -52q-40 -50 -40 -127
q0 -56 27.5 -88t79.5 -32zM669 719q21 0 33.5 -13t12.5 -34q0 -30 -31 -85q-29 -54 -63 -97l-39 7l54 118q-28 10 -28 42q0 25 19 43.5t42 18.5z" />
    <glyph glyph-name="Dcroat" unicode="&#x110;" horiz-adv-x="674" 
d="M278 0h-242l43 306h-55q0 21 9 66h56q21 154 40 288h227q136 0 209.5 -74.5t73.5 -204.5q0 -166 -100 -273q-99 -108 -261 -108zM347 570h-119q-6 -39 -28 -198h170l-9 -66h-171l-29 -215h126q114 2 178 82q66 83 66 210q0 88 -47 137.5t-137 49.5z" />
    <glyph glyph-name="dslash" unicode="&#x111;" horiz-adv-x="558" 
d="M444 608l15 103h99l-15 -103h74l-8 -55h-73l-77 -553h-77l-5 57q-3 0 -4 1q-60 -66 -164 -66q-88 0 -135 53q-46 53 -46 133q0 124 71 201q72 77 173 77q96 0 136 -63q1 0 3 1t3 1q17 130 22 158h-153l7 55h154zM240 74q64 0 107 51q44 53 44 130q0 54 -28.5 86t-80.5 32
q-69 0 -109 -52q-40 -50 -40 -127q0 -56 27.5 -88t79.5 -32z" />
    <glyph glyph-name="Emacron" unicode="&#x112;" horiz-adv-x="551" 
d="M161 91h336q-12 -87 -12 -91h-449l93 660h424l-13 -91h-311l-15 -96l-11 -83h284l-12 -89h-285zM512 754h-295l10 72h296z" />
    <glyph glyph-name="emacron" unicode="&#x113;" horiz-adv-x="476" 
d="M284 457q74 0 118 -36.5t44 -92.5q0 -66 -68 -106.5t-181 -40.5q-47 0 -62 1q-2 -18 -2 -21q0 -46 30.5 -70.5t83.5 -24.5q94 0 170 58q-3 -18 -13 -86q-76 -48 -179 -48q-96 0 -146 51t-50 140q0 113 71 195q70 81 184 81zM277 377q-52 0 -89 -36t-48 -97q17 -4 52 -4
q70 0 112.5 22t42.5 56q0 26 -18 42.5t-52 16.5zM447 547h-286l10 70h286z" />
    <glyph glyph-name="Ebreve" unicode="&#x114;" horiz-adv-x="551" 
d="M161 91h336q-12 -87 -12 -91h-449l93 660h424l-13 -91h-311l-15 -96l-11 -83h284l-12 -89h-285zM458 866h58q-12 -61 -54 -106q-41 -44 -108 -44q-56 0 -87 34.5t-32 91.5q0 19 1 24h59q-1 -3 -1 -12q0 -36 18.5 -58t50.5 -22q35 0 59 25t36 67z" />
    <glyph glyph-name="ebreve" unicode="&#x115;" horiz-adv-x="476" 
d="M284 457q74 0 118 -36.5t44 -92.5q0 -66 -68 -106.5t-181 -40.5q-47 0 -62 1q-2 -18 -2 -21q0 -46 30.5 -70.5t83.5 -24.5q94 0 170 58q-3 -18 -13 -86q-76 -48 -179 -48q-96 0 -146 51t-50 140q0 113 71 195q70 81 184 81zM277 377q-52 0 -89 -36t-48 -97q17 -4 52 -4
q70 0 112.5 22t42.5 56q0 26 -18 42.5t-52 16.5zM404 675h59q-12 -62 -54 -107t-109 -45q-56 0 -87 35t-32 93q0 19 1 24h59q0 -1 -0.5 -6t-0.5 -6q0 -36 18.5 -58t50.5 -22q69 0 95 92z" />
    <glyph glyph-name="Edotaccent" unicode="&#x116;" horiz-adv-x="551" 
d="M161 91h336q-12 -87 -12 -91h-449l93 660h424l-13 -91h-311l-15 -96l-11 -83h284l-12 -89h-285zM375 860q23 0 36.5 -14.5t13.5 -36.5q0 -29 -19.5 -50t-47.5 -21q-24 0 -38 14t-14 38q0 29 21 49.5t48 20.5z" />
    <glyph glyph-name="edotaccent" unicode="&#x117;" horiz-adv-x="476" 
d="M284 457q74 0 118 -36.5t44 -92.5q0 -66 -68 -106.5t-181 -40.5q-47 0 -62 1q-2 -18 -2 -21q0 -46 30.5 -70.5t83.5 -24.5q94 0 170 58q-3 -18 -13 -86q-76 -48 -179 -48q-96 0 -146 51t-50 140q0 113 71 195q70 81 184 81zM277 377q-52 0 -89 -36t-48 -97q17 -4 52 -4
q70 0 112.5 22t42.5 56q0 26 -18 42.5t-52 16.5zM318 654q23 0 36.5 -14.5t13.5 -36.5q0 -29 -19.5 -50t-47.5 -21q-24 0 -38 14t-14 38q0 29 21 49.5t48 20.5z" />
    <glyph glyph-name="Eogonek" unicode="&#x118;" horiz-adv-x="551" 
d="M351 -174q43 0 101 31l-11 -55q-59 -33 -125 -33q-86 0 -86 66q0 88 116 165h-310l93 660h424l-13 -91h-311l-15 -96l-11 -83h284l-12 -89h-285l-29 -210h336q-12 -87 -12 -91h-84q-44 -32 -69.5 -69t-25.5 -68q0 -37 45 -37z" />
    <glyph glyph-name="eogonek" unicode="&#x119;" horiz-adv-x="476" 
d="M300 -161q43 0 101 31l-11 -55q-59 -33 -125 -33q-86 0 -86 66q0 75 88 144q-34 -2 -42 -2q-96 0 -146 51t-50 140q0 113 71 195q70 81 184 81q74 0 118 -36.5t44 -92.5q0 -66 -68 -106.5t-181 -40.5q-47 0 -62 1q-2 -18 -2 -21q0 -46 30.5 -70.5t83.5 -24.5q94 0 170 58
q-3 -18 -13 -86q-27 -18 -59 -29q-90 -69 -90 -133q0 -37 45 -37zM277 377q-52 0 -89 -36t-48 -97q17 -4 52 -4q70 0 112.5 22t42.5 56q0 26 -18 42.5t-52 16.5z" />
    <glyph glyph-name="Ecaron" unicode="&#x11a;" horiz-adv-x="551" 
d="M161 91h336q-12 -87 -12 -91h-449l93 660h424l-13 -91h-311l-15 -96l-11 -83h284l-12 -89h-285zM366 797l80 74h90l-168 -152h-19l-129 152h87z" />
    <glyph glyph-name="ecaron" unicode="&#x11b;" horiz-adv-x="476" 
d="M284 457q74 0 118 -36.5t44 -92.5q0 -66 -68 -106.5t-181 -40.5q-47 0 -62 1q-2 -18 -2 -21q0 -46 30.5 -70.5t83.5 -24.5q94 0 170 58q-3 -18 -13 -86q-76 -48 -179 -48q-96 0 -146 51t-50 140q0 113 71 195q70 81 184 81zM277 377q-52 0 -89 -36t-48 -97q17 -4 52 -4
q70 0 112.5 22t42.5 56q0 26 -18 42.5t-52 16.5zM308 600l77 79h87l-164 -163h-18l-125 163h84z" />
    <glyph glyph-name="Gcircumflex" unicode="&#x11c;" horiz-adv-x="659" 
d="M453 674q108 0 173 -37l-11 -103q-70 43 -168 43q-114 0 -197 -84q-82 -82 -82 -217q0 -89 51.5 -141.5t147.5 -52.5q55 0 111 21l32 231h101l-12 -85l-19 -134q-7 -62 -12 -86q-92 -39 -228 -39q-140 0 -214 77q-73 76 -73 203q0 172 113 288q114 116 287 116zM481 877
l124 -153h-90l-54 71l-83 -71h-89l173 153h19z" />
    <glyph glyph-name="gcircumflex" unicode="&#x11d;" horiz-adv-x="499" 
d="M151 -222q-88 0 -132 32t-44 83q0 37 23.5 74t62.5 61l-14 2q-25 3 -35.5 12.5t-10.5 29.5q0 12 1 16l92 79q-31 31 -31 89q0 85 61 143t148 58q32 0 74 -13h151l-7 -52l-77 -11q25 -29 25 -74q0 -75 -59 -131q-58 -55 -147 -55q-51 0 -88 19l-50 -50l194 -22
q123 -15 123 -95q0 -60 -58 -121q-30 -33 -83.5 -53.5t-118.5 -20.5zM259 3q-76 8 -142 18q-48 -48 -48 -100q0 -30 23.5 -48t69.5 -18q66 0 106 35q40 34 40 73q0 36 -49 40zM238 191q46 0 78 33q32 34 32 79q0 36 -23 59.5t-59 23.5q-46 0 -78 -35q-31 -34 -31 -81
q0 -36 21.5 -57.5t59.5 -21.5zM334 683l119 -162h-83l-55 77l-84 -77h-85l170 162h18z" />
    <glyph glyph-name="Gbreve" unicode="&#x11e;" horiz-adv-x="659" 
d="M453 674q108 0 173 -37l-11 -103q-70 43 -168 43q-114 0 -197 -84q-82 -82 -82 -217q0 -89 51.5 -141.5t147.5 -52.5q55 0 111 21l32 231h101l-12 -85l-19 -134q-7 -62 -12 -86q-92 -39 -228 -39q-140 0 -214 77q-73 76 -73 203q0 172 113 288q114 116 287 116zM557 866
h58q-12 -61 -54 -106q-41 -44 -108 -44q-56 0 -87 34.5t-32 91.5q0 19 1 24h59q-1 -3 -1 -12q0 -36 18.5 -58t50.5 -22q35 0 59 25t36 67z" />
    <glyph glyph-name="gbreve" unicode="&#x11f;" horiz-adv-x="499" 
d="M151 -222q-88 0 -132 32t-44 83q0 37 23.5 74t62.5 61l-14 2q-25 3 -35.5 12.5t-10.5 29.5q0 12 1 16l92 79q-31 31 -31 89q0 85 61 143t148 58q32 0 74 -13h151l-7 -52l-77 -11q25 -29 25 -74q0 -75 -59 -131q-58 -55 -147 -55q-51 0 -88 19l-50 -50l194 -22
q123 -15 123 -95q0 -60 -58 -121q-30 -33 -83.5 -53.5t-118.5 -20.5zM259 3q-76 8 -142 18q-48 -48 -48 -100q0 -30 23.5 -48t69.5 -18q66 0 106 35q40 34 40 73q0 36 -49 40zM238 191q46 0 78 33q32 34 32 79q0 36 -23 59.5t-59 23.5q-46 0 -78 -35q-31 -34 -31 -81
q0 -36 21.5 -57.5t59.5 -21.5zM396 675h59q-12 -62 -54 -107t-109 -45q-56 0 -87 35t-32 93q0 19 1 24h59q0 -1 -0.5 -6t-0.5 -6q0 -36 18.5 -58t50.5 -22q69 0 95 92z" />
    <glyph glyph-name="Gdotaccent" unicode="&#x120;" horiz-adv-x="659" 
d="M453 674q108 0 173 -37l-11 -103q-70 43 -168 43q-114 0 -197 -84q-82 -82 -82 -217q0 -89 51.5 -141.5t147.5 -52.5q55 0 111 21l32 231h101l-12 -85l-19 -134q-7 -62 -12 -86q-92 -39 -228 -39q-140 0 -214 77q-73 76 -73 203q0 172 113 288q114 116 287 116zM474 863
q23 0 36.5 -14.5t13.5 -36.5q0 -29 -19.5 -50t-47.5 -21q-24 0 -38 14t-14 38q0 29 21 49.5t48 20.5z" />
    <glyph glyph-name="gdotaccent" unicode="&#x121;" horiz-adv-x="499" 
d="M151 -222q-88 0 -132 32t-44 83q0 37 23.5 74t62.5 61l-14 2q-25 3 -35.5 12.5t-10.5 29.5q0 12 1 16l92 79q-31 31 -31 89q0 85 61 143t148 58q32 0 74 -13h151l-7 -52l-77 -11q25 -29 25 -74q0 -75 -59 -131q-58 -55 -147 -55q-51 0 -88 19l-50 -50l194 -22
q123 -15 123 -95q0 -60 -58 -121q-30 -33 -83.5 -53.5t-118.5 -20.5zM259 3q-76 8 -142 18q-48 -48 -48 -100q0 -30 23.5 -48t69.5 -18q66 0 106 35q40 34 40 73q0 36 -49 40zM238 191q46 0 78 33q32 34 32 79q0 36 -23 59.5t-59 23.5q-46 0 -78 -35q-31 -34 -31 -81
q0 -36 21.5 -57.5t59.5 -21.5zM310 654q23 0 36.5 -14.5t13.5 -36.5q0 -29 -19.5 -50t-47.5 -21q-24 0 -38 14t-14 38q0 29 21 49.5t48 20.5z" />
    <glyph glyph-name="Gcommaaccent" unicode="&#x122;" horiz-adv-x="659" 
d="M453 674q108 0 173 -37l-11 -103q-70 43 -168 43q-114 0 -197 -84q-82 -82 -82 -217q0 -89 51.5 -141.5t147.5 -52.5q55 0 111 21l32 231h101l-12 -85l-19 -134q-7 -62 -12 -86q-92 -39 -228 -39q-140 0 -214 77q-73 76 -73 203q0 172 113 288q114 116 287 116zM333 -47
q21 0 33.5 -13t12.5 -34q0 -30 -31 -85q-29 -54 -63 -97l-39 7l54 118q-28 10 -28 42q0 25 19 43.5t42 18.5z" />
    <glyph glyph-name="gcommaaccent" unicode="&#x123;" horiz-adv-x="499" 
d="M151 -222q-88 0 -132 32t-44 83q0 37 23.5 74t62.5 61l-14 2q-25 3 -35.5 12.5t-10.5 29.5q0 12 1 16l92 79q-31 31 -31 89q0 85 61 143t148 58q32 0 74 -13h151l-7 -52l-77 -11q25 -29 25 -74q0 -75 -59 -131q-58 -55 -147 -55q-51 0 -88 19l-50 -50l194 -22
q123 -15 123 -95q0 -60 -58 -121q-30 -33 -83.5 -53.5t-118.5 -20.5zM259 3q-76 8 -142 18q-48 -48 -48 -100q0 -30 23.5 -48t69.5 -18q66 0 106 35q40 34 40 73q0 36 -49 40zM238 191q46 0 78 33q32 34 32 79q0 36 -23 59.5t-59 23.5q-46 0 -78 -35q-31 -34 -31 -81
q0 -36 21.5 -57.5t59.5 -21.5zM320 526q-21 0 -33.5 13t-12.5 34q0 29 30 85q32 56 64 97l39 -7l-54 -118q28 -10 28 -42q0 -24 -18.5 -43t-42.5 -19z" />
    <glyph glyph-name="Hcircumflex" unicode="&#x124;" horiz-adv-x="668" 
d="M652 660l-92 -660h-111l41 299h-301l-41 -299h-112l93 660h112q-25 -165 -38 -269h300l38 269h111zM433 874l124 -153h-90l-54 71l-83 -71h-89l173 153h19z" />
    <glyph glyph-name="hcircumflex" unicode="&#x125;" horiz-adv-x="529" 
d="M472 293l-40 -293h-103l35 252q15 118 -71 118q-55 0 -92 -46.5t-49 -126.5l-29 -197h-102l99 711h99l-15 -105l-18 -123q-10 -67 -15 -105q1 0 2 -0.5t2 -0.5q68 80 158 80q69 0 105 -35t36 -101q0 -10 -2 -28zM209 894l124 -153h-90l-54 71l-83 -71h-89l173 153h19z
" />
    <glyph glyph-name="Hbar" unicode="&#x126;" horiz-adv-x="668" 
d="M108 512h-46l8 59h46q4 32 13 89h112q-9 -57 -13 -89h300q3 16 13 89h111q-10 -73 -13 -89h42l-8 -59h-41l-72 -512h-111l21 149l20 150h-301q-8 -62 -41 -299h-112zM220 512l-17 -121h300q5 31 17 121h-300z" />
    <glyph glyph-name="hbar" unicode="&#x127;" horiz-adv-x="529" 
d="M471 276l-39 -276h-103l35 252q2 30 2 31q0 40 -18.5 63.5t-54.5 23.5q-54 0 -92 -47t-48 -125l-30 -198h-102l78 560h-49l8 57h49l13 94h99l-13 -94h167l-8 -57h-167l-27 -182q1 0 2 -0.5t2 -0.5q66 79 158 79q68 0 104 -36t36 -102q0 -24 -2 -42z" />
    <glyph glyph-name="Itilde" unicode="&#x128;" horiz-adv-x="271" 
d="M337 864l26 -46q-37 -78 -96 -78q-23 0 -64 24q-38 25 -55 25q-30 0 -62 -54l-30 46q43 79 100 79q22 0 63 -26q40 -25 56 -25q28 0 62 55zM248 660l-93 -660h-112l93 660h112z" />
    <glyph glyph-name="itilde" unicode="&#x129;" horiz-adv-x="244" 
d="M296 657l26 -46q-38 -78 -96 -78q-24 0 -64 24q-38 25 -55 25q-31 0 -62 -54l-30 46q43 79 100 79q22 0 63 -26q40 -25 56 -25q28 0 62 55zM200 445l-62 -445h-104l62 445h104z" />
    <glyph glyph-name="Imacron" unicode="&#x12a;" horiz-adv-x="271" 
d="M248 660l-93 -660h-112l93 660h112zM354 751h-295l10 72h296z" />
    <glyph glyph-name="imacron" unicode="&#x12b;" horiz-adv-x="244" 
d="M200 445l-62 -445h-104l62 445h104zM305 547h-286l10 70h286z" />
    <glyph glyph-name="Ibreve" unicode="&#x12c;" horiz-adv-x="271" 
d="M305 866h58q-12 -61 -54 -106q-41 -44 -108 -44q-56 0 -87 34.5t-32 91.5q0 19 1 24h59q-1 -3 -1 -12q0 -36 18.5 -58t50.5 -22q35 0 59 25t36 67zM248 660l-93 -660h-112l93 660h112z" />
    <glyph glyph-name="ibreve" unicode="&#x12d;" horiz-adv-x="244" 
d="M264 677h59q-12 -62 -54 -107t-109 -45q-56 0 -87 35t-32 93q0 19 1 24h59q0 -1 -0.5 -6t-0.5 -6q0 -36 18.5 -58t50.5 -22q69 0 95 92zM200 445l-62 -445h-104l62 445h104z" />
    <glyph glyph-name="Iogonek" unicode="&#x12e;" horiz-adv-x="271" 
d="M69 -170q43 0 101 31l-11 -55q-58 -33 -125 -33q-86 0 -86 66q0 85 111 161h-16l93 660h112l-93 -660h-42q-42 -32 -65.5 -67.5t-23.5 -65.5q0 -37 45 -37z" />
    <glyph glyph-name="iogonek" unicode="&#x12f;" horiz-adv-x="244" 
d="M53 -170q43 0 101 31l-11 -55q-58 -33 -125 -33q-86 0 -86 66q0 85 111 161h-9l62 445h104l-62 -445h-41q-42 -32 -65.5 -67.5t-23.5 -65.5q0 -37 45 -37zM178 648q23 0 37.5 -15t14.5 -37q0 -28 -20.5 -49t-47.5 -21q-24 0 -38 14t-14 38q0 28 21 49t47 21z" />
    <glyph glyph-name="Idot" unicode="&#x130;" horiz-adv-x="271" 
d="M248 660l-93 -660h-112l93 660h112zM223 860q23 0 36.5 -14.5t13.5 -36.5q0 -29 -19.5 -50t-47.5 -21q-24 0 -38 14t-14 38q0 29 21 49.5t48 20.5z" />
    <glyph glyph-name="dotlessi" unicode="&#x131;" horiz-adv-x="244" 
d="M200 445l-62 -445h-104l62 445h104z" />
    <glyph glyph-name="IJ" unicode="&#x132;" horiz-adv-x="691" 
d="M342 85q74 0 112 42.5t50 126.5l58 406h112q-11 -73 -23 -165l-26 -189q-17 -118 -47 -184q-28 -65 -82.5 -97.5t-145.5 -35.5q-90 0 -145 32l13 103q56 -39 124 -39zM242 660l-93 -660h-112l93 660h112z" />
    <glyph glyph-name="ij" unicode="&#x133;" horiz-adv-x="452" 
d="M132 -230l-34 91q88 1 117 51q28 42 40 143l56 390h101l-55 -396q-21 -150 -72 -208q-51 -61 -153 -71zM200 445l-62 -445h-104l62 445h104zM178 648q23 0 37.5 -15t14.5 -37q0 -28 -20.5 -49t-47.5 -21q-24 0 -38 14t-14 38q0 28 21 49t47 21zM391 647q24 0 38 -14.5
t14 -36.5q0 -28 -20.5 -49t-47.5 -21q-23 0 -37 14.5t-14 36.5q0 29 20 49.5t47 20.5z" />
    <glyph glyph-name="Jcircumflex" unicode="&#x134;" horiz-adv-x="466" 
d="M118 86q74 0 112 42.5t50 126.5l58 406h112q-11 -73 -23 -165l-26 -189q-17 -118 -47 -184q-28 -65 -82.5 -97.5t-145.5 -35.5q-90 0 -145 32l13 103q56 -39 124 -39zM438 874l124 -153h-90l-54 71l-83 -71h-89l173 153h19z" />
    <glyph glyph-name="jcircumflex" unicode="&#x135;" horiz-adv-x="233" 
d="M-87 -229l-29 87q64 1 102 39q14 12 25 43q13 35 25 115l56 390h101l-55 -396q-20 -140 -75 -206t-150 -72zM186 683l119 -162h-83l-55 77l-84 -77h-85l170 162h18z" />
    <glyph glyph-name="Kcommaaccent" unicode="&#x136;" horiz-adv-x="605" 
d="M130 661h111l-43 -308l307 308h127l-321 -320l251 -341h-132l-235 331l-46 -331h-112zM274 -29q21 0 33.5 -13t12.5 -34q0 -30 -31 -85q-29 -54 -63 -97l-39 7l54 118q-28 10 -28 42q0 25 18.5 43.5t42.5 18.5z" />
    <glyph glyph-name="kcommaaccent" unicode="&#x137;" horiz-adv-x="493" 
d="M374 444h123q-30 -30 -121 -109l-117 -103l193 -232h-120l-177 220l-30 -220h-104l99 711h104l-65 -468zM214 -41q21 0 33.5 -13t12.5 -34q0 -30 -31 -85q-29 -54 -63 -97l-39 7l54 118q-28 10 -28 42q0 25 18.5 43.5t42.5 18.5z" />
    <glyph glyph-name="kgreenlandic" unicode="&#x138;" horiz-adv-x="499" 
d="M385 444h119l-233 -210l188 -234h-124l-173 220l-31 -220h-105l62 444h105q-7 -43 -28 -201z" />
    <glyph glyph-name="Lacute" unicode="&#x139;" horiz-adv-x="512" 
d="M36 0l93 660h112q-69 -481 -80 -569h318l-12 -91h-431zM354 844l-149 -121h-70l139 154z" />
    <glyph glyph-name="lacute" unicode="&#x13a;" horiz-adv-x="227" 
d="M230 711l-99 -711h-104l99 711h104zM348 876l-149 -121h-70l139 154z" />
    <glyph glyph-name="Lcommaaccent" unicode="&#x13b;" horiz-adv-x="512" 
d="M36 0l93 660h112q-69 -481 -80 -569h318l-12 -91h-431zM254 -44q21 0 33.5 -13t12.5 -34q0 -30 -31 -85q-29 -54 -63 -97l-39 7l54 118q-28 10 -28 42q0 24 18.5 43t42.5 19z" />
    <glyph glyph-name="lcommaaccent" unicode="&#x13c;" horiz-adv-x="227" 
d="M230 711l-99 -711h-104l99 711h104zM80 -44q21 0 33.5 -13t12.5 -34q0 -30 -31 -85q-29 -54 -63 -97l-39 7l54 118q-28 10 -28 42q0 24 18.5 43t42.5 19z" />
    <glyph glyph-name="Lcaron" unicode="&#x13d;" horiz-adv-x="512" 
d="M36 0l93 660h112q-69 -481 -80 -569h318l-12 -91h-431zM444 670q21 0 33.5 -13t12.5 -34q0 -30 -31 -85q-29 -54 -63 -97l-39 7l54 118q-28 10 -28 42q0 24 18.5 43t42.5 19z" />
    <glyph glyph-name="lcaron" unicode="&#x13e;" horiz-adv-x="310" 
d="M230 711l-99 -711h-104l99 711h104zM337 719q21 0 33.5 -13t12.5 -34q0 -30 -31 -85q-29 -54 -63 -97l-39 7l54 118q-28 10 -28 42q0 25 19 43.5t42 18.5z" />
    <glyph glyph-name="Ldot" unicode="&#x13f;" horiz-adv-x="523" 
d="M36 0l93 660h112q-69 -481 -80 -569h318l-12 -91h-431zM390 397q23 0 36.5 -14.5t13.5 -36.5q0 -29 -19.5 -50t-47.5 -21q-24 0 -38 14t-14 38q0 29 21 49.5t48 20.5z" />
    <glyph glyph-name="ldot" unicode="&#x140;" horiz-adv-x="310" 
d="M230 711l-99 -711h-104l99 711h104zM289 411q23 0 36.5 -14.5t13.5 -36.5q0 -29 -19.5 -50t-47.5 -21q-24 0 -38 14t-14 38q0 29 21 49.5t48 20.5z" />
    <glyph glyph-name="Lslash" unicode="&#x141;" horiz-adv-x="512" 
d="M71 235l-79 -37l5 28q3 24 3 30l79 39l51 365h111l-45 -317l157 77q-6 -31 -9 -62l-156 -76q-8 -51 -27 -191h319l-13 -91h-430z" />
    <glyph glyph-name="lslash" unicode="&#x142;" horiz-adv-x="229" 
d="M173 308l-42 -308h-104l37 264l-82 -39l7 60l84 41l54 386h104l-49 -342l91 44l-10 -64z" />
    <glyph glyph-name="Nacute" unicode="&#x143;" horiz-adv-x="704" 
d="M209 449l-62 -449h-111l94 672h19l362 -451h4l63 439h111l-94 -671h-17l-366 460h-3zM570 841l-149 -121h-70l139 154z" />
    <glyph glyph-name="nacute" unicode="&#x144;" horiz-adv-x="537" 
d="M477 271l-38 -271h-104l35 252q6 49 -11.5 83.5t-59.5 34.5q-54 0 -91.5 -45t-48.5 -123l-29 -202h-104l62 445h81l5 -72h3q64 82 162 82q141 0 141 -141q0 -19 -3 -43zM433 655l-139 -134h-67l130 168q5 -1 38 -17t38 -17z" />
    <glyph glyph-name="Ncommaaccent" unicode="&#x145;" horiz-adv-x="704" 
d="M209 449l-62 -449h-111l94 672h19l362 -451h4l63 439h111l-94 -671h-17l-366 460h-3zM321 -30q21 0 33.5 -13t12.5 -34q0 -30 -31 -85q-29 -54 -63 -97l-39 7l54 118q-28 10 -28 42q0 24 19 43t42 19z" />
    <glyph glyph-name="ncommaaccent" unicode="&#x146;" horiz-adv-x="537" 
d="M477 271l-38 -271h-104l35 252q6 49 -11.5 83.5t-59.5 34.5q-54 0 -91.5 -45t-48.5 -123l-29 -202h-104l62 445h81l5 -72h3q64 82 162 82q141 0 141 -141q0 -19 -3 -43zM228 -39q21 0 33.5 -13t12.5 -34q0 -30 -31 -85q-29 -54 -63 -97l-39 7l54 118q-28 10 -28 42
q0 25 18.5 43.5t42.5 18.5z" />
    <glyph glyph-name="Ncaron" unicode="&#x147;" horiz-adv-x="704" 
d="M209 449l-62 -449h-111l94 672h19l362 -451h4l63 439h111l-94 -671h-17l-366 460h-3zM433 797l80 74h90l-168 -152h-19l-129 152h87z" />
    <glyph glyph-name="ncaron" unicode="&#x148;" horiz-adv-x="537" 
d="M477 271l-38 -271h-104l35 252q6 49 -11.5 83.5t-59.5 34.5q-54 0 -91.5 -45t-48.5 -123l-29 -202h-104l62 445h81l5 -72h3q64 82 162 82q141 0 141 -141q0 -19 -3 -43zM300 600l77 79h87l-164 -163h-18l-125 163h84z" />
    <glyph glyph-name="napostrophe" unicode="&#x149;" horiz-adv-x="560" 
d="M500 271l-38 -271h-104l35 252q6 49 -11.5 83.5t-59.5 34.5q-54 0 -91.5 -45t-48.5 -123l-29 -202h-104l62 445h81l5 -72h3q64 82 162 82q141 0 141 -141q0 -19 -3 -43zM111 699q21 0 33.5 -13t12.5 -34q0 -30 -31 -85q-29 -54 -63 -97l-39 7l54 118q-28 10 -28 42
q0 25 19 43.5t42 18.5z" />
    <glyph glyph-name="Eng" unicode="&#x14a;" horiz-adv-x="704" 
d="M207 447l-60 -447h-111l95 676h22l359 -458h4l19 140l23 162q4 26 7.5 52t7.5 52t5 36h111l-88 -611q-9 -61 -14 -88q-37 -185 -213 -192l-35 81q71 4 106.5 41.5t44.5 108.5l9 68q-64 88 -146 192q-87 110 -143 187h-3z" />
    <glyph glyph-name="eng" unicode="&#x14b;" horiz-adv-x="537" 
d="M477 271l-38 -271q-17 -118 -71 -172.5t-149 -58.5l-31 79q75 1 107 47q33 45 43 126l32 231q6 49 -11.5 83.5t-59.5 34.5q-54 0 -91.5 -45t-48.5 -123l-29 -202h-104l62 445h81l5 -72h3q64 82 162 82q141 0 141 -141q0 -19 -3 -43z" />
    <glyph glyph-name="Omacron" unicode="&#x14c;" horiz-adv-x="762" 
d="M437 671q137 0 213 -82q77 -82 77 -210q0 -165 -111 -277q-109 -112 -269 -112q-135 0 -213 80t-78 208q0 162 110 278q109 115 271 115zM356 84q110 0 184 83q74 85 74 206q0 88 -50 146q-49 57 -136 57q-108 0 -183 -86t-75 -205q0 -90 49 -145q50 -56 137 -56z
M601 755h-295l10 72h296z" />
    <glyph glyph-name="omacron" unicode="&#x14d;" horiz-adv-x="533" 
d="M294 457q95 0 148 -53.5t53 -143.5q0 -116 -73 -193q-74 -78 -188 -78q-96 0 -150 53t-54 143q0 114 73 193t191 79zM286 372q-66 0 -108 -53t-42 -126q0 -55 28 -87.5t79 -32.5q66 0 108 52q43 52 43 125q0 55 -29 88.5t-79 33.5zM460 547h-286l10 70h286z" />
    <glyph glyph-name="Obreve" unicode="&#x14e;" horiz-adv-x="762" 
d="M437 671q137 0 213 -82q77 -82 77 -210q0 -165 -111 -277q-109 -112 -269 -112q-135 0 -213 80t-78 208q0 162 110 278q109 115 271 115zM356 84q110 0 184 83q74 85 74 206q0 88 -50 146q-49 57 -136 57q-108 0 -183 -86t-75 -205q0 -90 49 -145q50 -56 137 -56z
M556 866h58q-12 -61 -54 -106q-41 -44 -108 -44q-56 0 -87 34.5t-32 91.5q0 19 1 24h59q-1 -3 -1 -12q0 -36 18.5 -58t50.5 -22q35 0 59 25t36 67z" />
    <glyph glyph-name="obreve" unicode="&#x14f;" horiz-adv-x="533" 
d="M294 457q95 0 148 -53.5t53 -143.5q0 -116 -73 -193q-74 -78 -188 -78q-96 0 -150 53t-54 143q0 114 73 193t191 79zM286 372q-66 0 -108 -53t-42 -126q0 -55 28 -87.5t79 -32.5q66 0 108 52q43 52 43 125q0 55 -29 88.5t-79 33.5zM417 675h59q-12 -62 -54 -107t-109 -45
q-56 0 -87 35t-32 93q0 19 1 24h59q0 -1 -0.5 -6t-0.5 -6q0 -36 18.5 -58t50.5 -22q69 0 95 92z" />
    <glyph glyph-name="Ohungarumlaut" unicode="&#x150;" horiz-adv-x="762" 
d="M437 671q137 0 213 -82q77 -82 77 -210q0 -165 -111 -277q-109 -112 -269 -112q-135 0 -213 80t-78 208q0 162 110 278q109 115 271 115zM356 84q110 0 184 83q74 85 74 206q0 88 -50 146q-49 57 -136 57q-108 0 -183 -86t-75 -205q0 -90 49 -145q50 -56 137 -56z
M703 849l-154 -126h-69l143 160zM570 849l-154 -126h-69l143 160z" />
    <glyph glyph-name="ohungarumlaut" unicode="&#x151;" horiz-adv-x="533" 
d="M294 457q95 0 148 -53.5t53 -143.5q0 -116 -73 -193q-74 -78 -188 -78q-96 0 -150 53t-54 143q0 114 73 193t191 79zM286 372q-66 0 -108 -53t-42 -126q0 -55 28 -87.5t79 -32.5q66 0 108 52q43 52 43 125q0 55 -29 88.5t-79 33.5zM543 662l-146 -136h-64l67 85
q59 75 66 85q16 -8 37 -17q8 -3 18 -7t15 -6.5zM415 662l-146 -136h-64l67 85q59 75 66 85z" />
    <glyph glyph-name="OE" unicode="&#x152;" horiz-adv-x="936" 
d="M447 675q59 0 106 -15h385q-4 -20 -7 -45l-6 -45h-311l-25 -180h284l-12 -88h-284l-30 -211h335l-12 -91h-423q-42 -11 -97 -11q-144 0 -220 78q-76 79 -76 210q0 171 112 284q112 114 281 114zM364 83q37 0 73 10l66 475q-35 11 -69 11q-115 0 -192 -86
q-75 -85 -75 -208q0 -92 52 -147t145 -55z" />
    <glyph glyph-name="oe" unicode="&#x153;" horiz-adv-x="837" 
d="M647 457q74 0 118.5 -36.5t44.5 -92.5q0 -68 -72 -108q-70 -40 -178 -40q-30 0 -61 3q-1 -4 -1 -17q0 -46 29.5 -73t83.5 -27q98 0 168 58l-12 -86q-77 -48 -178 -48q-125 0 -168 88q-67 -88 -190 -88q-96 0 -148.5 52.5t-52.5 142.5q0 116 70 192q70 78 186 78
q126 0 172 -91q70 93 189 93zM286 371q-67 0 -109 -52q-41 -53 -41 -127q0 -55 27.5 -87.5t78.5 -32.5q66 0 109 52t43 126q0 54 -29 87.5t-79 33.5zM640 377q-52 0 -89 -35.5t-49 -96.5q23 -4 55 -4q75 0 114 21t39 56q0 26 -18 42.5t-52 16.5z" />
    <glyph glyph-name="Racute" unicode="&#x154;" horiz-adv-x="593" 
d="M127 659h246q87 0 145 -48q59 -47 59 -131q0 -76 -50.5 -138.5t-141.5 -91.5q5 -8 82 -125q54 -82 85 -125h-128q-15 22 -84 138q-66 112 -86 141l3 14q103 8 155 57q53 50 53 112q0 50 -33 79t-88 29h-116l-80 -570h-113zM481 844l-149 -121h-70l139 154z" />
    <glyph glyph-name="racute" unicode="&#x155;" horiz-adv-x="344" 
d="M365 448l-9 -102q-30 13 -61 13q-53 0 -92 -49t-50 -133l-23 -177h-104l62 444h74l3 -87q2 0 3 -1q21 48 58.5 74t85.5 26q27 0 53 -8zM330 655l-139 -134h-67l130 168l37 -17q35 -16 39 -17z" />
    <glyph glyph-name="Rcommaaccent" unicode="&#x156;" horiz-adv-x="593" 
d="M127 659h246q87 0 145 -48q59 -47 59 -131q0 -76 -50.5 -138.5t-141.5 -91.5q5 -8 82 -125q54 -82 85 -125h-128q-15 22 -84 138q-66 112 -86 141l3 14q103 8 155 57q53 50 53 112q0 50 -33 79t-88 29h-116l-80 -570h-113zM256 -27q21 0 33.5 -13t12.5 -34q0 -30 -31 -85
q-29 -54 -63 -97l-39 7l54 118q-28 10 -28 42q0 25 18.5 43.5t42.5 18.5z" />
    <glyph glyph-name="rcommaaccent" unicode="&#x157;" horiz-adv-x="344" 
d="M365 448l-9 -102q-30 13 -61 13q-53 0 -92 -49t-50 -133l-23 -177h-104l62 444h74l3 -87q2 0 3 -1q21 48 58.5 74t85.5 26q27 0 53 -8zM70 -43q21 0 33.5 -13t12.5 -34q0 -30 -31 -85q-29 -54 -63 -97l-39 7l54 118q-28 10 -28 42q0 25 18.5 43.5t42.5 18.5z" />
    <glyph glyph-name="Rcaron" unicode="&#x158;" horiz-adv-x="593" 
d="M127 659h246q87 0 145 -48q59 -47 59 -131q0 -76 -50.5 -138.5t-141.5 -91.5q5 -8 82 -125q54 -82 85 -125h-128q-15 22 -84 138q-66 112 -86 141l3 14q103 8 155 57q53 50 53 112q0 50 -33 79t-88 29h-116l-80 -570h-113zM356 797l80 74h90l-168 -152h-19l-129 152h87z
" />
    <glyph glyph-name="rcaron" unicode="&#x159;" horiz-adv-x="344" 
d="M365 448l-9 -102q-30 13 -61 13q-53 0 -92 -49t-50 -133l-23 -177h-104l62 444h74l3 -87q2 0 3 -1q21 48 58.5 74t85.5 26q27 0 53 -8zM210 600l77 79h87l-164 -163h-18l-125 163h84z" />
    <glyph glyph-name="Sacute" unicode="&#x15a;" horiz-adv-x="505" 
d="M2 42q5 34 8 57l6 48q83 -68 189 -68q65 0 105.5 29.5t40.5 81.5q0 36 -28.5 64.5t-69 48.5t-81 41.5t-69 56t-28.5 79.5q0 91 69 142t166 51q99 0 175 -42l-14 -100q-32 24 -76 38t-82 14q-47 0 -86 -24q-38 -23 -38 -70t98 -92q32 -15 50 -24.5t46 -28.5t43.5 -37
t27.5 -45.5t12 -59.5q0 -102 -72 -157q-71 -56 -189 -56q-123 0 -203 53zM454 844l-149 -121h-70l139 154z" />
    <glyph glyph-name="sacute" unicode="&#x15b;" horiz-adv-x="379" 
d="M-8 28l9 86q59 -51 140 -51q91 0 91 65q0 42 -94 81q-39 17 -66 46.5t-27 66.5q0 63 48.5 98.5t126.5 35.5q71 0 131 -30l-11 -81q-57 36 -112 36q-35 0 -57 -14t-22 -43q0 -20 28.5 -39t63.5 -34t63.5 -46t28.5 -72q0 -66 -52.5 -104.5t-138.5 -38.5q-89 0 -150 38z
M361 655l-139 -134h-67l130 168q5 -1 38 -17z" />
    <glyph glyph-name="Scircumflex" unicode="&#x15c;" horiz-adv-x="505" 
d="M2 42q5 34 8 57l6 48q83 -68 189 -68q65 0 105.5 29.5t40.5 81.5q0 36 -28.5 64.5t-69 48.5t-81 41.5t-69 56t-28.5 79.5q0 91 69 142t166 51q99 0 175 -42l-14 -100q-32 24 -76 38t-82 14q-47 0 -86 -24q-38 -23 -38 -70t98 -92q32 -15 50 -24.5t46 -28.5t43.5 -37
t27.5 -45.5t12 -59.5q0 -102 -72 -157q-71 -56 -189 -56q-123 0 -203 53zM350 874l124 -153h-90l-54 71l-83 -71h-89l173 153h19z" />
    <glyph glyph-name="scircumflex" unicode="&#x15d;" horiz-adv-x="379" 
d="M-8 28l9 86q59 -51 140 -51q91 0 91 65q0 42 -94 81q-39 17 -66 46.5t-27 66.5q0 63 48.5 98.5t126.5 35.5q71 0 131 -30l-11 -81q-57 36 -112 36q-35 0 -57 -14t-22 -43q0 -20 28.5 -39t63.5 -34t63.5 -46t28.5 -72q0 -66 -52.5 -104.5t-138.5 -38.5q-89 0 -150 38z
M269 683l119 -162h-83l-55 77l-84 -77h-85l170 162h18z" />
    <glyph glyph-name="Scedilla" unicode="&#x15e;" horiz-adv-x="505" 
d="M129 -96l51 86q-111 6 -178 52q5 34 8 57l6 48q83 -68 189 -68q65 0 105.5 29.5t40.5 81.5q0 36 -28.5 64.5t-69 48.5t-81 41.5t-69 56t-28.5 79.5q0 91 69 142t166 51q99 0 175 -42l-14 -100q-32 24 -76 38t-82 14q-47 0 -86 -24q-38 -23 -38 -70t98 -92
q32 -15 50 -24.5t46 -28.5t43.5 -37t27.5 -45.5t12 -59.5q0 -95 -64.5 -151t-174.5 -61l-30 -44q50 -2 75.5 -22.5t25.5 -51.5q0 -42 -38 -75t-100 -33q-40 0 -81 16l-4 55q37 -18 87 -18q30 0 47 13.5t17 34.5q0 15 -14 24.5t-35 9.5q-11 0 -34 -6l-3 3q-4 2 -7.5 4.5
t-3.5 3.5z" />
    <glyph glyph-name="scedilla" unicode="&#x15f;" horiz-adv-x="379" 
d="M58 -93l50 85q-73 8 -116 36l9 86q59 -51 140 -51q91 0 91 65q0 42 -94 81q-39 17 -66 46.5t-27 66.5q0 63 48.5 98.5t126.5 35.5q71 0 131 -30l-11 -81q-57 36 -112 36q-35 0 -57 -14t-22 -43q0 -20 28.5 -39t63.5 -34t63.5 -46t28.5 -72q0 -64 -48.5 -102t-130.5 -41
l-28 -41q50 -2 75.5 -22.5t25.5 -51.5q0 -42 -38 -75q-37 -33 -100 -33q-40 0 -81 16l-4 55q38 -18 87 -18q30 0 47 13.5t17 34.5q0 15 -14 24.5t-35 9.5q-12 0 -34 -6l-4 2q-3 3 -6.5 5.5t-3.5 3.5z" />
    <glyph glyph-name="Scaron" unicode="&#x160;" horiz-adv-x="505" 
d="M2 42q5 34 8 57l6 48q83 -68 189 -68q65 0 105.5 29.5t40.5 81.5q0 36 -28.5 64.5t-69 48.5t-81 41.5t-69 56t-28.5 79.5q0 91 69 142t166 51q99 0 175 -42l-14 -100q-32 24 -76 38t-82 14q-47 0 -86 -24q-38 -23 -38 -70t98 -92q32 -15 50 -24.5t46 -28.5t43.5 -37
t27.5 -45.5t12 -59.5q0 -102 -72 -157q-71 -56 -189 -56q-123 0 -203 53zM322 797l80 74h90l-168 -152h-19l-129 152h87z" />
    <glyph glyph-name="scaron" unicode="&#x161;" horiz-adv-x="379" 
d="M-8 28l9 86q59 -51 140 -51q91 0 91 65q0 42 -94 81q-39 17 -66 46.5t-27 66.5q0 63 48.5 98.5t126.5 35.5q71 0 131 -30l-11 -81q-57 36 -112 36q-35 0 -57 -14t-22 -43q0 -20 28.5 -39t63.5 -34t63.5 -46t28.5 -72q0 -66 -52.5 -104.5t-138.5 -38.5q-89 0 -150 38z
M236 600l77 79h87l-164 -163h-18l-125 163h84z" />
    <glyph glyph-name="Tcommaaccent" unicode="&#x162;" horiz-adv-x="533" 
d="M144 -93l55 93h-24l80 570h-197l13 91h506l-13 -91h-197l-80 -570h-40l-35 -51q50 -2 75.5 -22.5t25.5 -51.5q0 -42 -38 -75q-37 -33 -100 -33q-40 0 -81 16l-4 55q38 -18 87 -18q30 0 47 13.5t17 34.5q0 15 -14 24.5t-35 9.5q-12 0 -34 -6l-4 2q-3 3 -6.5 5.5t-3.5 3.5z
" />
    <glyph glyph-name="tcommaaccent" unicode="&#x163;" horiz-adv-x="342" 
d="M50 -93l28 47l33 54q-52 34 -37 141l30 216h-70q6 30 9 60l84 30l88 131h23l-19 -141h119l-6 -37l-6 -43h-119l-30 -213q-11 -73 49 -73q35 0 81 28l-11 -87q-49 -30 -109 -30q-24 0 -39 4l-30 -45q50 -2 75.5 -22.5t25.5 -51.5q0 -42 -38 -75q-37 -33 -100 -33
q-40 0 -81 16l-4 55q38 -18 87 -18q30 0 47 13.5t17 34.5q0 15 -14 24.5t-35 9.5q-12 0 -34 -6l-4 2q-3 3 -6.5 5.5t-3.5 3.5z" />
    <glyph glyph-name="Tcaron" unicode="&#x164;" horiz-adv-x="533" 
d="M343 797l80 74h90l-168 -152h-19l-129 152h87zM577 661l-13 -91h-197l-80 -570h-112l80 570h-197l13 91h506z" />
    <glyph glyph-name="tcaron" unicode="&#x165;" horiz-adv-x="363" 
d="M127 455l88 131h23l-19 -141h119l-6 -37l-6 -43h-119l-30 -213q-11 -73 49 -73q35 0 81 28l-11 -87q-49 -30 -109 -30q-73 0 -99 40t-14 119l30 216h-70q6 30 9 60zM392 734q21 0 33.5 -13t12.5 -34q0 -30 -31 -85q-29 -54 -63 -97l-39 7l54 118q-28 10 -28 42
q0 24 18.5 43t42.5 19z" />
    <glyph glyph-name="Tbar" unicode="&#x166;" horiz-adv-x="533" 
d="M577 661l-13 -91h-197l-27 -193h148l-9 -60h-148l-44 -317h-112l44 317h-147l8 60h148l27 193h-197l13 91h506z" />
    <glyph glyph-name="tbar" unicode="&#x167;" horiz-adv-x="345" 
d="M130 458l87 127h21l-19 -140h118l-12 -80h-118l-10 -74h105l-7 -52h-104q-16 -100 -16 -118q0 -46 51 -46q37 0 80 26l-11 -81q-49 -30 -109 -30q-115 0 -115 112q0 21 5 59l10 78h-62l7 52h63l10 74h-70l11 60z" />
    <glyph glyph-name="Utilde" unicode="&#x168;" horiz-adv-x="675" 
d="M491 251l58 409h111l-58 -407q-18 -123 -95 -193t-207 -70q-112 0 -170.5 55.5t-59.5 155.5q0 34 4 58l55 401h112l-57 -404q-2 -18 -2 -40q0 -131 132 -131q76 0 120.5 44.5t56.5 121.5zM540 860l26 -46q-38 -78 -96 -78q-24 0 -64 24q-38 25 -55 25q-31 0 -62 -54
l-30 46q43 79 100 79q22 0 63 -26q40 -25 56 -25q28 0 62 55z" />
    <glyph glyph-name="utilde" unicode="&#x169;" horiz-adv-x="526" 
d="M62 169l38 276h103l-35 -254q-15 -114 72 -114q50 0 84 43t44 115l30 210h104l-62 -445h-84l-2 66h-4q-60 -74 -145 -74q-79 0 -117 46.5t-26 130.5zM456 657l26 -46q-38 -78 -96 -78q-24 0 -64 24q-38 25 -55 25q-30 0 -62 -54l-30 46q43 79 100 79q22 0 63 -26
q40 -25 56 -25q28 0 62 55z" />
    <glyph glyph-name="Umacron" unicode="&#x16a;" horiz-adv-x="675" 
d="M491 251l58 409h111l-58 -407q-18 -123 -95 -193t-207 -70q-112 0 -170.5 55.5t-59.5 155.5q0 34 4 58l55 401h112l-57 -404q-2 -18 -2 -40q0 -131 132 -131q76 0 120.5 44.5t56.5 121.5zM556 750h-295l10 72h296z" />
    <glyph glyph-name="umacron" unicode="&#x16b;" horiz-adv-x="526" 
d="M62 169l38 276h103l-35 -254q-15 -114 72 -114q50 0 84 43t44 115l30 210h104l-62 -445h-84l-2 66h-4q-60 -74 -145 -74q-79 0 -117 46.5t-26 130.5zM454 547h-286l10 70h286z" />
    <glyph glyph-name="Ubreve" unicode="&#x16c;" horiz-adv-x="675" 
d="M491 251l58 409h111l-58 -407q-18 -123 -95 -193t-207 -70q-112 0 -170.5 55.5t-59.5 155.5q0 34 4 58l55 401h112l-57 -404q-2 -18 -2 -40q0 -131 132 -131q76 0 120.5 44.5t56.5 121.5zM499 858h58q-12 -61 -54 -106q-41 -44 -108 -44q-56 0 -87 34.5t-32 91.5
q0 19 1 24h59q-1 -3 -1 -12q0 -36 18.5 -58t50.5 -22q35 0 59 25t36 67z" />
    <glyph glyph-name="ubreve" unicode="&#x16d;" horiz-adv-x="526" 
d="M62 169l38 276h103l-35 -254q-15 -114 72 -114q50 0 84 43t44 115l30 210h104l-62 -445h-84l-2 66h-4q-60 -74 -145 -74q-79 0 -117 46.5t-26 130.5zM412 669h59q-12 -62 -54 -107t-109 -45q-56 0 -87 35t-32 93q0 19 1 24h59q0 -1 -0.5 -6t-0.5 -6q0 -36 18.5 -58
t50.5 -22q69 0 95 92z" />
    <glyph glyph-name="Uring" unicode="&#x16e;" horiz-adv-x="675" 
d="M491 251l58 409h111l-58 -407q-18 -123 -95 -193t-207 -70q-112 0 -170.5 55.5t-59.5 155.5q0 34 4 58l55 401h112l-57 -404q-2 -18 -2 -40q0 -131 132 -131q76 0 120.5 44.5t56.5 121.5zM430 923q40 0 65.5 -25.5t25.5 -64.5q0 -48 -36 -83q-35 -34 -84 -34
q-41 0 -65 23t-24 62q0 49 35 86q35 36 83 36zM422 870q-22 0 -38.5 -18.5t-16.5 -41.5q0 -18 11 -29.5t30 -11.5q24 0 40 16.5t16 40.5q0 19 -11 31.5t-31 12.5z" />
    <glyph glyph-name="uring" unicode="&#x16f;" horiz-adv-x="526" 
d="M62 169l38 276h103l-35 -254q-15 -114 72 -114q50 0 84 43t44 115l30 210h104l-62 -445h-84l-2 66h-4q-60 -74 -145 -74q-79 0 -117 46.5t-26 130.5zM338 718q40 0 65.5 -25.5t25.5 -64.5q0 -48 -36 -83q-35 -34 -84 -34q-41 0 -65 23t-24 62q0 49 35 86q35 36 83 36z
M330 665q-22 0 -38.5 -18.5t-16.5 -41.5q0 -18 11 -29.5t30 -11.5q24 0 40 16.5t16 40.5q0 19 -11 31.5t-31 12.5z" />
    <glyph glyph-name="Uhungarumlaut" unicode="&#x170;" horiz-adv-x="675" 
d="M491 251l58 409h111l-58 -407q-18 -123 -95 -193t-207 -70q-112 0 -170.5 55.5t-59.5 155.5q0 34 4 58l55 401h112l-57 -404q-2 -18 -2 -40q0 -131 132 -131q76 0 120.5 44.5t56.5 121.5zM641 849l-154 -126h-69l143 160zM508 849l-154 -126h-69l143 160z" />
    <glyph glyph-name="uhungarumlaut" unicode="&#x171;" horiz-adv-x="526" 
d="M62 169l38 276h103l-35 -254q-15 -114 72 -114q50 0 84 43t44 115l30 210h104l-62 -445h-84l-2 66h-4q-60 -74 -145 -74q-79 0 -117 46.5t-26 130.5zM531 662l-146 -136h-64q7 10 66 85q14 18 31 39t25 31.5t11 14.5q16 -8 37 -17q8 -3 18 -7t15 -6.5zM403 662l-146 -136
h-64l66 85l67 85z" />
    <glyph glyph-name="Uogonek" unicode="&#x172;" horiz-adv-x="675" 
d="M291 -177q43 0 101 31l-11 -55q-58 -33 -125 -33q-86 0 -86 66q0 82 107 159q-101 6 -153.5 60.5t-53.5 149.5q0 34 4 58l55 401h112l-57 -404q-2 -18 -2 -40q0 -131 132 -131q76 0 120.5 44.5t56.5 121.5l58 409h111l-58 -407q-18 -115 -86 -183.5t-182 -77.5
q-88 -69 -88 -132q0 -37 45 -37z" />
    <glyph glyph-name="uogonek" unicode="&#x173;" horiz-adv-x="526" 
d="M336 -178q43 0 101 31l-11 -55q-58 -33 -125 -33q-86 0 -86 66q0 48 38 95.5t102 84.5l-1 55h-4q-60 -74 -145 -74q-79 0 -117 46.5t-26 130.5l38 276h103l-35 -254q-15 -114 72 -114q50 0 84 43t44 115l30 210h104l-62 -445h-49q-46 -32 -73 -71t-27 -70q0 -37 45 -37z
" />
    <glyph glyph-name="Wcircumflex" unicode="&#x174;" horiz-adv-x="910" 
d="M277 243l225 423h16l108 -430h4l212 423h115l-351 -669h-16q-4 17 -55 217q-15 58 -56 226h-2l-233 -443h-19l-161 669h114l94 -416h5zM548 874l124 -153h-90l-54 71l-83 -71h-89l173 153h19z" />
    <glyph glyph-name="wcircumflex" unicode="&#x175;" horiz-adv-x="713" 
d="M201 183l171 267h14l96 -272h4l142 267h103l-259 -452h-15l-101 286h-2l-180 -286h-16l-131 452h105l65 -262h4zM426 683l119 -162h-83l-55 77l-84 -77h-85l170 162h18z" />
    <glyph glyph-name="Ycircumflex" unicode="&#x176;" horiz-adv-x="570" 
d="M184 660l118 -286h4l191 286h122l-270 -387l-38 -273h-112l39 273l-86 192q-70 163 -87 195h119zM381 874l124 -153h-90l-54 71l-83 -71h-89l173 153h19z" />
    <glyph glyph-name="ycircumflex" unicode="&#x177;" horiz-adv-x="455" 
d="M130 445l70 -327h5l163 327h106l-353 -661h-101l121 229l-117 432h106zM299 683l119 -162h-83l-55 77l-84 -77h-85l170 162h18z" />
    <glyph glyph-name="Ydieresis" unicode="&#x178;" horiz-adv-x="570" 
d="M184 660l118 -286h4l191 286h122l-270 -387l-38 -273h-112l39 273l-86 192q-70 163 -87 195h119zM454 836q21 0 33 -12.5t12 -33.5q0 -24 -17.5 -42.5t-41.5 -18.5q-21 0 -33.5 12.5t-12.5 31.5q0 26 18 44.5t42 18.5zM282 836q19 0 31.5 -13t12.5 -33q0 -25 -18 -43
t-41 -18q-21 0 -33.5 12.5t-12.5 31.5q0 26 18.5 44.5t42.5 18.5z" />
    <glyph glyph-name="Zacute" unicode="&#x179;" horiz-adv-x="535" 
d="M115 660h456l-2 -14l-404 -556h321l-12 -90h-490l1 6l1 6l404 557h-289zM497 844l-149 -121h-70l139 154z" />
    <glyph glyph-name="zacute" unicode="&#x17a;" horiz-adv-x="412" 
d="M64 445h354l-2 -12l-286 -354h229q-2 -9 -11 -79h-376q0 2 0.5 6t0.5 5l288 353h-208zM392 655l-139 -134h-67l130 168q5 -1 38 -17z" />
    <glyph glyph-name="Zdotaccent" unicode="&#x17b;" horiz-adv-x="535" 
d="M115 660h456l-2 -14l-404 -556h321l-12 -90h-490l1 6l1 6l404 557h-289zM374 861q23 0 36.5 -14.5t13.5 -36.5q0 -29 -19.5 -50t-47.5 -21q-24 0 -38 14t-14 38q0 29 21 49.5t48 20.5z" />
    <glyph glyph-name="zdotaccent" unicode="&#x17c;" horiz-adv-x="412" 
d="M64 445h354l-2 -12l-286 -354h229q-2 -9 -11 -79h-376q0 2 0.5 6t0.5 5l288 353h-208zM270 653q23 0 36.5 -14.5t13.5 -36.5q0 -29 -19.5 -50t-47.5 -21q-24 0 -38 14t-14 38q0 29 21 49.5t48 20.5z" />
    <glyph glyph-name="Zcaron" unicode="&#x17d;" horiz-adv-x="535" 
d="M362 797l80 74h90l-168 -152h-19l-129 152h87zM115 660h456l-2 -14l-404 -556h321l-12 -90h-490l1 6l1 6l404 557h-289z" />
    <glyph glyph-name="zcaron" unicode="&#x17e;" horiz-adv-x="412" 
d="M259 600l77 79h87l-164 -163h-18l-125 163h84zM64 445h354l-2 -12l-286 -354h229q-2 -9 -11 -79h-376q0 2 0.5 6t0.5 5l288 353h-208z" />
    <glyph glyph-name="longs" unicode="&#x17f;" horiz-adv-x="256" 
d="M413 713l-5 -85q-42 15 -79 15q-93 0 -109 -114l-100 -735h-102l78 576h-75l9 62l77 13l12 84q12 94 65 145.5t144 51.5q43 0 85 -13z" />
    <glyph glyph-name="florin" unicode="&#x192;" horiz-adv-x="546" 
d="M235 328h-79l5 73h87l16 82q17 97 60.5 143t116.5 46q43 0 85 -14l-4 -88q-35 12 -62 12q-40 0 -63 -24.5t-33 -80.5l-13 -76h99l-5 -73h-106l-31 -168q-25 -138 -70 -197q-43 -58 -122 -58q-44 0 -90 18l5 93q39 -16 70 -16q45 0 67 40q21 37 44 160z" />
    <glyph glyph-name="AEacute" unicode="&#x1fc;" horiz-adv-x="927" 
d="M878 91l-12 -91h-440l16 131h-241l-115 -131h-128l592 660h370q-12 -87 -12 -91h-308l-21 -179h284l-11 -89h-284q-5 -48 -26 -210h336zM482 446h-4l-211 -238h185zM797 844l-149 -121h-70l139 154z" />
    <glyph glyph-name="aeacute" unicode="&#x1fd;" horiz-adv-x="774" 
d="M583 457q74 0 118 -36.5t44 -92.5q0 -66 -66.5 -104.5t-183.5 -38.5q-29 0 -61 3q-1 -3 -1 -13q0 -49 30.5 -79t82.5 -30q96 0 169 58q0 -1 -0.5 -5t-2 -13t-2.5 -18q-1 -8 -2.5 -19.5t-3 -18.5t-1.5 -12q-74 -47 -175 -47q-128 0 -172 92q-70 -94 -204 -94h-2
q-72 1 -108.5 31.5t-36.5 78.5q0 84 68 125t172 41h82q3 17 3 36q0 77 -96 77q-71 0 -146 -39l12 83q75 34 155 34q125 0 156 -72q70 73 172 73zM317 188l4 23h-73q-57 0 -98 -22q-42 -23 -42 -70q0 -27 21.5 -42.5t58.5 -15.5q52 0 85.5 34.5t43.5 92.5zM575 377
q-52 0 -88.5 -35.5t-48.5 -96.5q21 -4 54 -4q75 0 114.5 21.5t39.5 55.5q0 26 -18 42.5t-53 16.5zM595 655l-139 -134h-67l130 168l38 -17z" />
    <glyph glyph-name="Oslashacute" unicode="&#x1fe;" horiz-adv-x="762" 
d="M437 671q112 0 186 -59l42 48h57l-67 -76q72 -78 72 -205q0 -165 -111 -277q-109 -112 -269 -112q-102 0 -172 46l-33 -36h-58l56 64q-84 78 -84 214q0 162 110 278q109 115 271 115zM172 285q0 -86 43 -138l335 385q-50 44 -122 44q-108 0 -182 -86t-74 -205zM356 84
q107 0 182 84t75 205q0 70 -35 125l-331 -383q44 -31 109 -31zM619 845l-149 -121h-70l139 154z" />
    <glyph glyph-name="oslashacute" unicode="&#x1ff;" horiz-adv-x="533" 
d="M294 457q84 0 133 -42l29 29h53l-55 -56q41 -50 41 -128q0 -116 -73 -193q-74 -78 -188 -78q-79 0 -132 38l-26 -27h-53l52 53q-45 49 -45 132q0 114 73 193t191 79zM286 372q-66 0 -108 -53t-42 -126q0 -39 13 -65l209 216q-28 28 -72 28zM394 250q0 36 -13 63
l-209 -215q25 -25 71 -25q66 0 108 52q43 52 43 125zM472 655l-139 -134h-67l130 168q5 -1 38 -17z" />
    <glyph glyph-name="Scommaaccent" unicode="&#x218;" horiz-adv-x="505" 
d="M2 42q5 34 8 57l6 48q83 -68 189 -68q65 0 105.5 29.5t40.5 81.5q0 36 -28.5 64.5t-69 48.5t-81 41.5t-69 56t-28.5 79.5q0 91 69 142t166 51q99 0 175 -42l-14 -100q-32 24 -76 38t-82 14q-47 0 -86 -24q-38 -23 -38 -70t98 -92q32 -15 50 -24.5t46 -28.5t43.5 -37
t27.5 -45.5t12 -59.5q0 -102 -72 -157q-71 -56 -189 -56q-123 0 -203 53zM197 -44q21 0 33.5 -13t12.5 -34q0 -30 -31 -85q-29 -54 -63 -97l-39 7l54 118q-28 10 -28 42q0 24 19 43t42 19z" />
    <glyph glyph-name="scommaaccent" unicode="&#x219;" horiz-adv-x="379" 
d="M-8 28l9 86q59 -51 140 -51q91 0 91 65q0 42 -94 81q-39 17 -66 46.5t-27 66.5q0 63 48.5 98.5t126.5 35.5q71 0 131 -30l-11 -81q-57 36 -112 36q-35 0 -57 -14t-22 -43q0 -20 28.5 -39t63.5 -34t63.5 -46t28.5 -72q0 -66 -52.5 -104.5t-138.5 -38.5q-89 0 -150 38z
M140 -44q21 0 33.5 -13t12.5 -34q0 -30 -31 -85q-29 -54 -63 -97l-39 7l54 118q-28 10 -28 42q0 24 18.5 43t42.5 19z" />
    <glyph glyph-name="uni021A" unicode="&#x21a;" horiz-adv-x="533" 
d="M577 661l-13 -91h-197l-80 -570h-112l80 570h-197l13 91h506zM221 -43q21 0 33.5 -13t12.5 -34q0 -30 -31 -85q-29 -54 -63 -97l-39 7l54 118q-28 10 -28 42q0 25 19 43.5t42 18.5z" />
    <glyph glyph-name="uni021B" unicode="&#x21b;" horiz-adv-x="342" 
d="M127 455l88 131h23l-19 -141h119l-6 -37l-6 -43h-119l-30 -213q-11 -73 49 -73q35 0 81 28l-11 -87q-49 -30 -109 -30q-73 0 -99 40t-14 119l30 216h-70q6 30 9 60zM114 -44q21 0 33.5 -13t12.5 -34q0 -30 -31 -85q-29 -54 -63 -97l-39 7l54 118q-28 10 -28 42
q0 24 18.5 43t42.5 19z" />
    <glyph glyph-name="schwa" unicode="&#x259;" horiz-adv-x="484" 
d="M189 -10q-74 0 -118 35.5t-44 92.5q0 66 66.5 104t182.5 38q33 0 61 -2q0 55 -29 88.5t-82 33.5q-96 0 -169 -58q3 31 12 86q76 49 179 49q96 0 146 -51.5t50 -140.5q0 -113 -71 -195q-71 -80 -184 -80zM196 69q52 0 89 35.5t49 96.5q-36 3 -53 3q-39 0 -71 -6
q-35 -6 -59.5 -24t-24.5 -46q0 -26 18 -42.5t52 -16.5z" />
    <glyph glyph-name="primemod" unicode="&#x2b9;" horiz-adv-x="231" 
d="M267 625l-168 -255h-61l154 289l36 -16q32 -13 39 -18z" />
    <glyph glyph-name="circumflex" unicode="&#x2c6;" horiz-adv-x="482" 
d="M316 683l119 -162h-83l-55 77l-84 -77h-85l170 162h18z" />
    <glyph glyph-name="caron" unicode="&#x2c7;" horiz-adv-x="482" 
d="M286 600l77 79h87l-164 -163h-18l-125 163h84z" />
    <glyph glyph-name="breve" unicode="&#x2d8;" horiz-adv-x="493" 
d="M382 675h59q-12 -62 -54 -107t-109 -45q-56 0 -87 35t-32 93q0 19 1 24h59q0 -1 -0.5 -6t-0.5 -6q0 -36 18.5 -58t50.5 -22q69 0 95 92z" />
    <glyph glyph-name="dotaccent" unicode="&#x2d9;" horiz-adv-x="464" 
d="M318 653q23 0 36.5 -14.5t13.5 -36.5q0 -29 -19.5 -50t-47.5 -21q-24 0 -38 14t-14 38q0 29 21 49.5t48 20.5z" />
    <glyph glyph-name="ring" unicode="&#x2da;" horiz-adv-x="483" 
d="M308 724q40 0 65.5 -25.5t25.5 -64.5q0 -48 -36 -83q-35 -34 -84 -34q-41 0 -65 23t-24 62q0 49 35 86q35 36 83 36zM300 671q-22 0 -38.5 -18.5t-16.5 -41.5q0 -18 11 -29.5t30 -11.5q24 0 40 16.5t16 40.5q0 19 -11 31.5t-31 12.5z" />
    <glyph glyph-name="ogonek" unicode="&#x2db;" horiz-adv-x="515" 
d="M277 -167q43 0 101 31l-11 -55q-59 -33 -125 -33q-86 0 -86 66q0 54 50 109q50 53 125 89l12 -22q-51 -33 -81 -74t-30 -74q0 -37 45 -37z" />
    <glyph glyph-name="tilde" unicode="&#x2dc;" horiz-adv-x="482" 
d="M410 657l26 -46q-38 -78 -96 -78q-24 0 -64 24q-38 25 -55 25q-31 0 -62 -54l-30 46q43 79 100 79q22 0 63 -26q40 -25 56 -25q28 0 62 55z" />
    <glyph glyph-name="hungarumlaut" unicode="&#x2dd;" horiz-adv-x="482" 
d="M497 662l-146 -136h-64l67 85q59 75 66 85q16 -8 37 -17q8 -3 18 -7t15 -6.5zM369 662l-146 -136h-64l67 85q59 75 66 85z" />
    <glyph glyph-name="tonos" unicode="&#x384;" horiz-adv-x="482" 
d="M437 662l-146 -136h-65l67 85q59 75 66 85z" />
    <glyph glyph-name="dieresistonos" unicode="&#x385;" horiz-adv-x="496" 
d="M443 647q21 0 34 -13.5t13 -32.5q0 -23 -18.5 -42t-42.5 -19q-20 0 -33 13t-13 32q0 25 18.5 43.5t41.5 18.5zM417 673l-131 -151l-59 -2l109 179zM205 647q21 0 34 -13.5t13 -32.5q0 -23 -18.5 -42t-42.5 -19q-20 0 -33 13t-13 32q0 25 18.5 43.5t41.5 18.5z" />
    <glyph glyph-name="Alphatonos" unicode="&#x386;" horiz-adv-x="628" 
d="M581 0h-108l-33 128h-279l-71 -128h-113l389 669h17zM350 465h-4l-145 -260h220zM238 653l-146 -136h-65q7 10 66 85q14 18 31 39t25 31.5t11 14.5z" />
    <glyph glyph-name="anoteleia" unicode="&#x387;" horiz-adv-x="226" 
d="M133 405q23 0 37.5 -15.5t14.5 -38.5q0 -27 -21.5 -48.5t-47.5 -21.5q-23 0 -37.5 15t-14.5 37q0 29 20.5 50.5t48.5 21.5z" />
    <glyph glyph-name="Epsilontonos" unicode="&#x388;" horiz-adv-x="551" 
d="M161 91h336q-12 -87 -12 -91h-449l93 660h424l-13 -91h-311l-15 -96l-11 -83h284l-12 -89h-285zM87 653l-146 -136h-65q3 4 11 14.5t25 31.5t31 39q59 75 66 85z" />
    <glyph glyph-name="Etatonos" unicode="&#x389;" horiz-adv-x="668" 
d="M652 660l-92 -660h-111l41 299h-301l-41 -299h-112l93 660h112q-25 -165 -38 -269h300l38 269h111zM86 652l-146 -136h-65q9 14 66 85q54 67 67 85z" />
    <glyph glyph-name="Iotatonos" unicode="&#x38a;" horiz-adv-x="271" 
d="M248 660l-93 -660h-112l93 660h112zM100 652l-146 -136h-65q13 18 67 85q57 71 66 85z" />
    <glyph glyph-name="Omicrontonos" unicode="&#x38c;" horiz-adv-x="762" 
d="M437 671q137 0 213 -82q77 -82 77 -210q0 -165 -111 -277q-109 -112 -269 -112q-135 0 -213 80t-78 208q0 162 110 278q109 115 271 115zM356 84q110 0 184 83q74 85 74 206q0 88 -50 146q-49 57 -136 57q-108 0 -183 -86t-75 -205q0 -90 49 -145q50 -56 137 -56z
M135 652l-146 -136h-65q13 18 67 85q57 71 66 85z" />
    <glyph glyph-name="Upsilontonos" unicode="&#x38e;" horiz-adv-x="570" 
d="M184 660l118 -286h4l191 286h122l-270 -387l-38 -273h-112l39 273l-86 192q-70 163 -87 195h119zM48 653l-146 -136h-65q13 18 67 85q57 71 66 85z" />
    <glyph glyph-name="Omegatonos" unicode="&#x38f;" horiz-adv-x="770" 
d="M433 576q-119 0 -195 -93q-75 -91 -75 -221q0 -78 31 -147q32 -69 89 -100q0 -1 -2 -15h-277q4 37 13 90h103v2l1 2q-66 75 -66 186q0 165 114 279t277 114q132 0 212 -81q80 -80 80 -204q0 -82 -35 -159.5t-99 -134.5q1 -2 1 -4h103l-12 -90h-277q0 1 0.5 7t0.5 8
q63 28 113 93q94 123 94 259q0 88 -51 148q-51 61 -143 61zM127 651l-146 -136h-65q10 15 66 84l67 86z" />
    <glyph glyph-name="iotadieresistonos" unicode="&#x390;" horiz-adv-x="238" 
d="M305 647q21 0 34 -13.5t13 -32.5q0 -23 -18.5 -42t-42.5 -19q-20 0 -33 13t-13 32q0 25 18.5 43.5t41.5 18.5zM279 673l-131 -151l-59 -2l109 179zM67 647q21 0 34 -13.5t13 -32.5q0 -23 -18.5 -42t-42.5 -19q-20 0 -33 13t-13 32q0 25 18.5 43.5t41.5 18.5zM197 445
l-62 -445h-103l62 445h103z" />
    <glyph glyph-name="Alpha" unicode="&#x391;" horiz-adv-x="628" 
d="M581 0h-108l-33 128h-279l-71 -128h-113l389 669h17zM350 465h-4l-145 -260h220z" />
    <glyph glyph-name="Beta" unicode="&#x392;" horiz-adv-x="611" 
d="M459 361v-4q96 -35 96 -142q0 -93 -67 -154q-65 -61 -164 -61h-288l93 660h262q79 0 124 -37.5t45 -106.5q0 -102 -101 -155zM334 308h-145l-31 -217h150q75 0 106 39q32 41 32 86q0 43 -29.5 67.5t-82.5 24.5zM360 571h-134l-26 -183h132q41 0 79 26q39 26 39 84
q0 35 -24.5 54t-65.5 19z" />
    <glyph glyph-name="Gamma" unicode="&#x393;" horiz-adv-x="516" 
d="M544 569h-316l-80 -569h-112l93 660h429q-3 -24 -14 -91z" />
    <glyph glyph-name="increment" unicode="&#x394;" horiz-adv-x="646" 
d="M376 671h15l209 -671h-621zM356 472h-1l-220 -383h331z" />
    <glyph glyph-name="increment" unicode="&#x2206;" horiz-adv-x="646" 
d="M376 671h15l209 -671h-621zM356 472h-1l-220 -383h331z" />
    <glyph glyph-name="Epsilon" unicode="&#x395;" horiz-adv-x="551" 
d="M161 91h336q-12 -87 -12 -91h-449l93 660h424l-13 -91h-311l-15 -96l-11 -83h284l-12 -89h-285z" />
    <glyph glyph-name="Zeta" unicode="&#x396;" horiz-adv-x="535" 
d="M115 660h456l-2 -14l-404 -556h321l-12 -90h-490l1 6l1 6l404 557h-289z" />
    <glyph glyph-name="Eta" unicode="&#x397;" horiz-adv-x="668" 
d="M652 660l-92 -660h-111l41 299h-301l-41 -299h-112l93 660h112q-25 -165 -38 -269h300l38 269h111z" />
    <glyph glyph-name="Theta" unicode="&#x398;" horiz-adv-x="762" 
d="M528 301h-286l10 79h287q-1 -25 -11 -79zM437 671q137 0 213 -81q77 -80 77 -209q0 -165 -111 -277q-110 -113 -269 -113q-135 0 -213 79q-78 80 -78 207q0 162 110 278q111 116 271 116zM428 575q-108 0 -182 -86t-74 -204q0 -89 48 -146q50 -56 135 -56q107 0 182 84
q76 85 76 206q0 89 -49 145q-49 57 -136 57z" />
    <glyph glyph-name="Iota" unicode="&#x399;" horiz-adv-x="271" 
d="M248 660l-93 -660h-112l93 660h112z" />
    <glyph glyph-name="Kappa" unicode="&#x39a;" horiz-adv-x="605" 
d="M130 661h111l-43 -308l307 308h127l-321 -320l251 -341h-132l-235 331l-46 -331h-112z" />
    <glyph glyph-name="Lambda" unicode="&#x39b;" horiz-adv-x="628" 
d="M581 0h-113l-122 456h-4l-256 -456h-109l390 672h16z" />
    <glyph glyph-name="Mu" unicode="&#x39c;" horiz-adv-x="796" 
d="M512 268l-122 -132h-18q-25 44 -86 138q-69 110 -84 138l-3 -2l-56 -410h-108l94 669h19q16 -29 124 -199q109 -170 125 -198l367 397h18l-94 -669h-108l56 399l-3 1q-14 -16 -121 -132z" />
    <glyph glyph-name="Nu" unicode="&#x39d;" horiz-adv-x="704" 
d="M209 449l-62 -449h-111l94 672h19l362 -451h4l63 439h111l-94 -671h-17l-366 460h-3z" />
    <glyph glyph-name="Xi" unicode="&#x39e;" horiz-adv-x="579" 
d="M592 661l-13 -92h-490l13 92h490zM-1 0l12 94h511l-12 -94h-511zM101 302l13 90h395l-12 -90h-396z" />
    <glyph glyph-name="Omicron" unicode="&#x39f;" horiz-adv-x="762" 
d="M437 671q137 0 213 -82q77 -82 77 -210q0 -165 -111 -277q-109 -112 -269 -112q-135 0 -213 80t-78 208q0 162 110 278q109 115 271 115zM356 84q110 0 184 83q74 85 74 206q0 88 -50 146q-49 57 -136 57q-108 0 -183 -86t-75 -205q0 -90 49 -145q50 -56 137 -56z" />
    <glyph glyph-name="Pi" unicode="&#x3a0;" horiz-adv-x="673" 
d="M656 660l-92 -660h-112l80 569h-304l-80 -569h-112l93 660h527z" />
    <glyph glyph-name="Rho" unicode="&#x3a1;" horiz-adv-x="568" 
d="M148 0h-113l92 659h235q102 0 154.5 -52.5t52.5 -139.5q0 -109 -78 -176q-76 -67 -187 -67h-125q-23 -171 -31 -224zM327 573h-99q-18 -133 -38 -264h105q80 0 121 47q40 46 40 107q0 51 -31.5 80.5t-97.5 29.5z" />
    <glyph glyph-name="Sigma" unicode="&#x3a3;" horiz-adv-x="555" 
d="M246 569l108 -217l-188 -262h353l-12 -90h-521v5q1 5 1 7l242 338l-143 296l2 14h494l-14 -91h-322z" />
    <glyph glyph-name="Tau" unicode="&#x3a4;" horiz-adv-x="533" 
d="M577 661l-13 -91h-197l-80 -570h-112l80 570h-197l13 91h506z" />
    <glyph glyph-name="Upsilon" unicode="&#x3a5;" horiz-adv-x="570" 
d="M184 660l118 -286h4l191 286h122l-270 -387l-38 -273h-112l39 273l-86 192q-70 163 -87 195h119z" />
    <glyph glyph-name="Phi" unicode="&#x3a6;" horiz-adv-x="839" 
d="M329 0l9 64q-131 6 -207 70q-77 65 -77 167q0 131 105 219q106 91 256 98l7 42h110l-7 -42q132 -11 206 -76q76 -64 76 -166q0 -128 -101 -214t-259 -98l-8 -64h-110zM513 533l-53 -383q102 6 170 67q70 61 70 151q0 69 -51 114.5t-136 50.5zM350 150l53 383
q-102 -7 -171 -70q-67 -61 -67 -150q0 -69 49 -112.5t136 -50.5z" />
    <glyph glyph-name="Chi" unicode="&#x3a7;" horiz-adv-x="631" 
d="M587 0h-126l-136 324l-223 -324h-129l250 344l-144 316h119l131 -298l212 298h124l-233 -318z" />
    <glyph glyph-name="Psi" unicode="&#x3a8;" horiz-adv-x="771" 
d="M404 0h-111q16 102 25 182q-107 8 -170 70t-63 160q0 29 4 49l29 199h112l-29 -202q-2 -14 -2 -31q0 -60 36.5 -100t96.5 -47q53 366 54 380h111q-5 -26 -24 -165l-30 -215q75 5 123.5 53t58.5 121l30 206h112l-30 -203q-16 -116 -98 -193q-80 -74 -209 -82
q-6 -43 -26 -182z" />
    <glyph glyph-name="Omega" unicode="&#x3a9;" horiz-adv-x="770" 
d="M433 576q-119 0 -195 -93q-75 -91 -75 -221q0 -78 31 -147q32 -69 89 -100q0 -1 -2 -15h-277q4 37 13 90h103v2l1 2q-66 75 -66 186q0 165 114 279t277 114q132 0 212 -81q80 -80 80 -204q0 -82 -35 -159.5t-99 -134.5q1 -2 1 -4h103l-12 -90h-277q0 1 0.5 7t0.5 8
q63 28 113 93q94 123 94 259q0 88 -51 148q-51 61 -143 61z" />
    <glyph glyph-name="Iotadieresis" unicode="&#x3aa;" horiz-adv-x="271" 
d="M130 847q19 0 31.5 -13t12.5 -33q0 -25 -18 -43t-41 -18q-21 0 -33.5 12.5t-12.5 31.5q0 26 18.5 44.5t42.5 18.5zM302 847q21 0 33 -12.5t12 -33.5q0 -24 -17.5 -42.5t-41.5 -18.5q-21 0 -33.5 12.5t-12.5 31.5q0 26 18 44.5t42 18.5zM248 660l-93 -660h-112l93 660h112
z" />
    <glyph glyph-name="Upsilondieresis" unicode="&#x3ab;" horiz-adv-x="570" 
d="M184 660l118 -286h4l191 286h122l-270 -387l-38 -273h-112l39 273l-86 192q-70 163 -87 195h119zM453 831q21 0 33 -12.5t12 -33.5q0 -24 -17.5 -42.5t-41.5 -18.5q-21 0 -33.5 12.5t-12.5 31.5q0 26 18 44.5t42 18.5zM281 831q19 0 31.5 -13t12.5 -33q0 -25 -18 -43
t-41 -18q-21 0 -33.5 12.5t-12.5 31.5q0 26 18.5 44.5t42.5 18.5z" />
    <glyph glyph-name="alphatonos" unicode="&#x3ac;" horiz-adv-x="556" 
d="M278 373q-67 0 -106 -55q-38 -55 -38 -126q0 -56 25.5 -88t76.5 -32q63 0 105 51q43 52 43 130q0 53 -28 86.5t-78 33.5zM381 0l-7 58h-4q-68 -68 -166 -68q-84 0 -129.5 50.5t-45.5 133.5q0 124 69 202q69 79 177 79q100 0 144 -74h4l26 64h68l-29 -204l-33 -241h-74z
M458 662l-146 -136h-65q7 10 66 85l67 85z" />
    <glyph glyph-name="epsilontonos" unicode="&#x3ad;" horiz-adv-x="407" 
d="M250 459q70 0 136 -29l-12 -83q-47 33 -122 33q-44 0 -71 -17t-27 -50q0 -36 61 -36h65l-9 -75h-52q-46 0 -71 -20t-25 -53q0 -62 93 -62q78 0 145 46l-12 -84q-73 -39 -165 -39q-82 0 -125.5 30.5t-43.5 82.5q0 20 7 41q8 25 32 51.5t58 40.5v4q-57 21 -57 76
q0 60 54 101q55 42 141 42zM399 662l-146 -136h-65l67 85q59 75 66 85z" />
    <glyph glyph-name="etatonos" unicode="&#x3ae;" horiz-adv-x="537" 
d="M477 271l-70 -487h-104l65 455q4 20 4 44q0 87 -73 87q-54 0 -91.5 -45t-48.5 -123l-29 -202h-104l62 445h81l5 -72h3q65 83 158 83q144 0 144 -144q0 -21 -2 -41zM437 662l-146 -136h-65l67 85q59 75 66 85z" />
    <glyph glyph-name="iotatonos" unicode="&#x3af;" horiz-adv-x="238" 
d="M197 445l-62 -445h-103l62 445h103zM318 662l-146 -136h-65q7 10 66 85l67 85z" />
    <glyph glyph-name="upsilondieresistonos" unicode="&#x3b0;" horiz-adv-x="525" 
d="M352 196q22 144 35 249h104l-33 -239q-15 -105 -77.5 -160.5t-153.5 -55.5q-87 0 -133 44t-46 125q0 21 3 43l35 243h101l-36 -253q-2 -24 -2 -26q0 -43 21.5 -67.5t64.5 -24.5q99 0 117 122zM442 647q21 0 34 -13.5t13 -32.5q0 -23 -18.5 -42t-42.5 -19q-20 0 -33 13
t-13 32q0 25 18.5 43.5t41.5 18.5zM416 673l-131 -151l-59 -2l109 179zM204 647q21 0 34 -13.5t13 -32.5q0 -23 -18.5 -42t-42.5 -19q-20 0 -33 13t-13 32q0 25 18.5 43.5t41.5 18.5z" />
    <glyph glyph-name="alpha" unicode="&#x3b1;" horiz-adv-x="556" 
d="M278 373q-67 0 -106 -55q-38 -55 -38 -126q0 -56 25.5 -88t76.5 -32q63 0 105 51q43 52 43 130q0 53 -28 86.5t-78 33.5zM381 0l-7 58h-4q-68 -68 -166 -68q-84 0 -129.5 50.5t-45.5 133.5q0 124 69 202q69 79 177 79q100 0 144 -74h4l26 64h68l-29 -204l-33 -241h-74z
" />
    <glyph glyph-name="beta" unicode="&#x3b2;" horiz-adv-x="545" 
d="M329 724q79 0 125.5 -41t46.5 -109q0 -46 -27 -88.5t-72 -65.5v-5q48 -17 75.5 -61t27.5 -101q0 -105 -71 -185q-70 -78 -172 -78q-96 0 -137 66q-1 0 -2 -0.5t-2 -0.5l-38 -267h-101l89 644q17 134 77 212q62 80 181 80zM315 639q-114 0 -135 -155l-36 -255
q0 -3 -1.5 -18t-1.5 -19q1 -55 29 -87.5t81 -32.5q63 0 106 51q44 52 44 129q0 119 -147 119l11 73q74 0 103 33.5t29 76.5q0 38 -23 61.5t-59 23.5z" />
    <glyph glyph-name="gamma" unicode="&#x3b3;" horiz-adv-x="469" 
d="M142 445l73 -306h5l161 306h107l-233 -427q-5 -26 -33 -234h-104q6 36 34 233l-119 428h109z" />
    <glyph glyph-name="delta" unicode="&#x3b4;" horiz-adv-x="551" 
d="M142 569q0 69 58 112q59 44 146 44q86 0 157 -39l-10 -80q-61 39 -137 39q-50 0 -81 -21t-31 -59q0 -46 94 -89q34 -14 59.5 -28.5t54 -38.5t43.5 -60t15 -81q0 -116 -78 -197t-195 -81q-97 0 -151.5 52.5t-54.5 141.5q0 78 47 154q46 75 134 105v5q-32 17 -51 49.5
t-19 71.5zM251 74q69 0 112 55q45 56 45 127q0 104 -115 141q-76 -14 -116 -75q-41 -62 -41 -127q0 -55 30 -88t85 -33z" />
    <glyph glyph-name="epsilon" unicode="&#x3b5;" horiz-adv-x="407" 
d="M250 459q70 0 136 -29l-12 -83q-47 33 -122 33q-44 0 -71 -17t-27 -50q0 -36 61 -36h65l-9 -75h-52q-46 0 -71 -20t-25 -53q0 -62 93 -62q78 0 145 46l-12 -84q-73 -39 -165 -39q-82 0 -125.5 30.5t-43.5 82.5q0 20 7 41q8 25 32 51.5t58 40.5v4q-57 21 -57 76
q0 60 54 101q55 42 141 42z" />
    <glyph glyph-name="zeta" unicode="&#x3b6;" horiz-adv-x="401" 
d="M131 205q0 -44 61 -84q1 0 67 -37q42 -22 68 -38q55 -34 55 -72q0 -25 -37 -71q-40 -49 -87 -85l-64 32q77 77 77 105q0 12 -16 22t-66 32q-83 36 -122.5 78t-39.5 100q0 82 93 202q92 119 236 237v3l-1 3h-238q9 60 11 79h413q0 -1 -0.5 -6t-0.5 -7q-175 -145 -291 -281
q-118 -139 -118 -212z" />
    <glyph glyph-name="eta" unicode="&#x3b7;" horiz-adv-x="537" 
d="M477 271l-70 -487h-104l65 455q4 20 4 44q0 87 -73 87q-54 0 -91.5 -45t-48.5 -123l-29 -202h-104l62 445h81l5 -72h3q65 83 158 83q144 0 144 -144q0 -21 -2 -41z" />
    <glyph glyph-name="theta" unicode="&#x3b8;" horiz-adv-x="551" 
d="M524 382q-17 -149 -79 -262q-34 -61 -88.5 -95.5t-122.5 -34.5q-187 0 -187 252q0 122 31 227q32 108 99 181q69 74 164 74q94 0 141.5 -70t47.5 -194q0 -38 -6 -78zM328 637q-60 0 -102 -65q-41 -65 -59 -164h261q0 10 1 24q2 30 2 33q0 80 -26.5 126t-76.5 46zM420 331
h-265q-6 -47 -6 -87q0 -168 98 -168q67 0 110.5 68t62.5 187z" />
    <glyph glyph-name="iota" unicode="&#x3b9;" horiz-adv-x="238" 
d="M197 445l-62 -445h-103l62 445h103z" />
    <glyph glyph-name="kappa" unicode="&#x3ba;" horiz-adv-x="499" 
d="M385 444h119l-233 -210l188 -234h-124l-173 220l-31 -220h-105l62 444h105q-7 -43 -28 -201z" />
    <glyph glyph-name="lambda" unicode="&#x3bb;" horiz-adv-x="480" 
d="M331 0l-74 320h-4l-169 -320h-110l249 441l-64 274h102l175 -715h-105z" />
    <glyph glyph-name="nu" unicode="&#x3bd;" horiz-adv-x="479" 
d="M205 -8h-15q-12 36 -79 221q-69 195 -81 232h106q2 -9 15 -51q4 -12 9 -28.5t11.5 -39t11.5 -38.5l34 -113h5l68 113q60 98 94 157h110q-14 -24 -146 -229q-125 -195 -143 -224z" />
    <glyph glyph-name="xi" unicode="&#x3be;" horiz-adv-x="427" 
d="M327 724q89 0 151 -36l-9 -88q-61 43 -136 43q-63 0 -99 -36t-36 -82q0 -43 31 -64.5t84 -21.5h93l-11 -77h-104q-70 0 -109 -47t-39 -110q0 -36 38 -64.5t123 -62.5q96 -39 96 -86q0 -58 -119 -165l-65 31q72 82 72 106q0 26 -69 49q-184 58 -184 178q0 65 38 124
q37 59 110 88q0 1 0.5 3l0.5 2q-88 28 -88 119q0 73 60 135q62 62 171 62z" />
    <glyph glyph-name="omicron" unicode="&#x3bf;" horiz-adv-x="533" 
d="M294 457q95 0 148 -53.5t53 -143.5q0 -116 -73 -193q-74 -78 -188 -78q-96 0 -150 53t-54 143q0 114 73 193t191 79zM286 372q-66 0 -108 -53t-42 -126q0 -55 28 -87.5t79 -32.5q66 0 108 52q43 52 43 125q0 55 -29 88.5t-79 33.5z" />
    <glyph glyph-name="pi" unicode="&#x3c0;" horiz-adv-x="538" 
d="M502 445l-62 -445h-103l50 360h-207l-50 -360h-104l62 445h414z" />
    <glyph glyph-name="rho" unicode="&#x3c1;" horiz-adv-x="544" 
d="M82 -212h-100q30 229 56 404q17 112 83 187q67 76 181 76q96 0 149 -54q53 -55 53 -137q0 -121 -71 -198q-70 -76 -171 -76q-95 0 -137 61h-3q-5 -22 -40 -263zM293 372q-66 0 -109 -52q-43 -50 -43 -130q0 -54 28 -86t80 -32q71 0 111 51q41 53 41 128q0 56 -28 88.5
t-80 32.5z" />
    <glyph glyph-name="sigma1" unicode="&#x3c2;" horiz-adv-x="421" 
d="M299 458q71 0 117 -25l-7 -89q-41 30 -110 30q-71 0 -117 -45q-47 -44 -47 -122q0 -38 25 -66.5t84 -56.5q64 -30 88.5 -49.5t24.5 -42.5q0 -57 -119 -145l-64 31q64 64 67 82q0 10 -18 21q-5 4 -27 15l-38 19q-127 61 -127 177q0 118 73 191q74 75 195 75z" />
    <glyph glyph-name="sigma" unicode="&#x3c3;" horiz-adv-x="556" 
d="M295 445h262l-11 -81h-48q-26 1 -48 1l-2 -4q49 -43 49 -124q0 -101 -75 -175q-74 -72 -185 -72q-97 0 -150.5 51.5t-53.5 136.5q0 111 75 189q76 78 187 78zM287 365q-66 0 -108 -52q-41 -52 -41 -122q0 -54 29.5 -86t82.5 -32q62 0 105 51q44 53 44 122q0 52 -30 84.5
t-82 34.5z" />
    <glyph glyph-name="tau" unicode="&#x3c4;" horiz-adv-x="376" 
d="M26 365l11 80q303 0 343 1l-11 -81h-137l-31 -216q-5 -35 6 -51t44 -17q37 0 81 26l-12 -87q-48 -30 -114 -30q-111 0 -111 110q0 18 6 60l28 205h-103z" />
    <glyph glyph-name="upsilon" unicode="&#x3c5;" horiz-adv-x="525" 
d="M352 196q22 144 35 249h104l-33 -239q-15 -105 -77.5 -160.5t-153.5 -55.5q-87 0 -133 44t-46 125q0 21 3 43l35 243h101l-36 -253q-2 -24 -2 -26q0 -43 21.5 -67.5t64.5 -24.5q99 0 117 122z" />
    <glyph glyph-name="phi" unicode="&#x3c6;" horiz-adv-x="699" 
d="M232 -218l31 209q-109 4 -169 59t-60 139q0 89 57 159t150 93l16 -28q4 -7 8 -13.5t7 -11.5t4 -6q-65 -18 -103 -67.5t-38 -112.5q0 -55 37.5 -92.5t101.5 -39.5l24 165q23 158 30 218h101q105 0 165.5 -51.5t60.5 -140.5q0 -109 -81 -186q-79 -76 -212 -84l-30 -209
h-100zM415 375l-44 -305q82 4 135 56q52 52 52 122q0 57 -35.5 91t-107.5 36z" />
    <glyph glyph-name="chi" unicode="&#x3c7;" horiz-adv-x="474" 
d="M429 0h-109l-93 211l-148 -211h-112l169 228l-99 217h105l90 -198l139 198h112l-162 -216z" />
    <glyph glyph-name="psi" unicode="&#x3c8;" horiz-adv-x="672" 
d="M332 -218h-101l29 207q-99 4 -152 66t-39 161l30 229h99l-31 -228q-9 -65 19 -103t86 -41l52 372h101l-52 -372q62 2 100.5 42t48.5 113l28 217h102l-31 -220q-15 -102 -83 -165t-177 -71z" />
    <glyph glyph-name="omega" unicode="&#x3c9;" horiz-adv-x="744" 
d="M333 303h89l-15 -120q-5 -43 11 -76q17 -35 57 -35q52 0 86 52q35 53 35 129q0 56 -26.5 91.5t-72.5 39.5q3 8 17 36q14 24 18 36q83 -5 126 -57t43 -138q0 -105 -61 -187q-62 -83 -167 -83q-46 0 -80 19.5t-48 54.5h-5q-63 -74 -152 -74q-76 0 -116.5 47t-40.5 129
q0 116 65 199q64 83 169 91l21 -72q-69 -6 -109 -67q-40 -59 -40 -141q0 -48 20 -75.5t54 -27.5q99 0 112 136z" />
    <glyph glyph-name="iotadieresis" unicode="&#x3ca;" horiz-adv-x="238" 
d="M91 646q20 0 32 -12.5t12 -31.5q0 -25 -17.5 -43t-40.5 -18q-21 0 -33.5 12.5t-12.5 31.5q0 25 18.5 43t41.5 18zM263 646q20 0 32 -12.5t12 -31.5q0 -25 -17 -43t-42 -18q-20 0 -32.5 12.5t-12.5 30.5q0 26 18 44t42 18zM197 445l-62 -445h-103l62 445h103z" />
    <glyph glyph-name="upsilondieresis" unicode="&#x3cb;" horiz-adv-x="525" 
d="M352 196q22 144 35 249h104l-33 -239q-15 -105 -77.5 -160.5t-153.5 -55.5q-87 0 -133 44t-46 125q0 21 3 43l35 243h101l-36 -253q-2 -24 -2 -26q0 -43 21.5 -67.5t64.5 -24.5q99 0 117 122zM228 646q20 0 32 -12.5t12 -31.5q0 -25 -17.5 -43t-40.5 -18
q-21 0 -33.5 12.5t-12.5 31.5q0 25 18 43t42 18zM400 646q20 0 32 -12.5t12 -31.5q0 -25 -17 -43t-42 -18q-21 0 -33 12.5t-12 30.5q0 26 18 44t42 18z" />
    <glyph glyph-name="omicrontonos" unicode="&#x3cc;" horiz-adv-x="533" 
d="M294 457q95 0 148 -53.5t53 -143.5q0 -116 -73 -193q-74 -78 -188 -78q-96 0 -150 53t-54 143q0 114 73 193t191 79zM286 372q-66 0 -108 -53t-42 -126q0 -55 28 -87.5t79 -32.5q66 0 108 52q43 52 43 125q0 55 -29 88.5t-79 33.5zM479 662l-146 -136h-65l67 85
q59 75 66 85z" />
    <glyph glyph-name="upsilontonos" unicode="&#x3cd;" horiz-adv-x="525" 
d="M352 196q22 144 35 249h104l-33 -239q-15 -105 -77.5 -160.5t-153.5 -55.5q-87 0 -133 44t-46 125q0 21 3 43l35 243h101l-36 -253q-2 -24 -2 -26q0 -43 21.5 -67.5t64.5 -24.5q99 0 117 122zM453 662l-146 -136h-65l67 85q59 75 66 85z" />
    <glyph glyph-name="omegatonos" unicode="&#x3ce;" horiz-adv-x="744" 
d="M333 303h89l-15 -120q-5 -43 11 -76q17 -35 57 -35q52 0 86 52q35 53 35 129q0 56 -26.5 91.5t-72.5 39.5q3 8 17 36q14 24 18 36q83 -5 126 -57t43 -138q0 -105 -61 -187q-62 -83 -167 -83q-46 0 -80 19.5t-48 54.5h-5q-63 -74 -152 -74q-76 0 -116.5 47t-40.5 129
q0 116 65 199q64 83 169 91l21 -72q-69 -6 -109 -67q-40 -59 -40 -141q0 -48 20 -75.5t54 -27.5q99 0 112 136zM561 660l-146 -136h-65q9 14 66 85l67 85z" />
    <glyph glyph-name="afii10023" unicode="&#x401;" horiz-adv-x="551" 
d="M161 91h336q-12 -87 -12 -91h-449l93 660h424l-13 -91h-311l-15 -96l-11 -83h284l-12 -89h-285zM279 847q19 0 31.5 -13t12.5 -33q0 -25 -18 -43t-41 -18q-21 0 -33.5 12.5t-12.5 31.5q0 26 18.5 44.5t42.5 18.5zM451 847q21 0 33 -12.5t12 -33.5q0 -24 -17.5 -42.5
t-41.5 -18.5q-21 0 -33.5 12.5t-12.5 31.5q0 26 18 44.5t42 18.5z" />
    <glyph glyph-name="afii10051" unicode="&#x402;" horiz-adv-x="788" 
d="M597 661l-14 -91h-216l-27 -192q92 36 175 36q104 0 162.5 -54t58.5 -147q0 -112 -68 -206q-68 -93 -165 -135l-64 52q91 44 134 115q45 74 45 148q0 65 -37.5 103t-107.5 38q-71 0 -144 -30l-42 -298h-112l80 570h-197l13 91h526z" />
    <glyph glyph-name="afii10052" unicode="&#x403;" horiz-adv-x="516" 
d="M544 569h-316l-80 -569h-112l93 660h429q-3 -24 -14 -91zM488 844l-149 -121h-70l139 154z" />
    <glyph glyph-name="afii10053" unicode="&#x404;" horiz-adv-x="603" 
d="M556 131l-14 -100q-82 -41 -195 -41q-141 0 -218 77q-76 77 -76 205q0 172 114 286q114 115 282 115q100 0 158 -31q-4 -43 -5 -48l-6 -50q-63 33 -147 33q-87 0 -160 -51q-72 -51 -99 -139h295l-12 -83h-302q-3 -16 -3 -33q0 -86 54.5 -137t152.5 -51q91 0 181 48z" />
    <glyph glyph-name="afii10054" unicode="&#x405;" horiz-adv-x="505" 
d="M2 42q5 34 8 57l6 48q83 -68 189 -68q65 0 105.5 29.5t40.5 81.5q0 36 -28.5 64.5t-69 48.5t-81 41.5t-69 56t-28.5 79.5q0 91 69 142t166 51q99 0 175 -42l-14 -100q-32 24 -76 38t-82 14q-47 0 -86 -24q-38 -23 -38 -70t98 -92q32 -15 50 -24.5t46 -28.5t43.5 -37
t27.5 -45.5t12 -59.5q0 -102 -72 -157q-71 -56 -189 -56q-123 0 -203 53z" />
    <glyph glyph-name="afii10055" unicode="&#x406;" horiz-adv-x="271" 
d="M248 660l-93 -660h-112l93 660h112z" />
    <glyph glyph-name="afii10056" unicode="&#x407;" horiz-adv-x="271" 
d="M126 847q19 0 31.5 -13t12.5 -33q0 -25 -18 -43t-41 -18q-21 0 -33.5 12.5t-12.5 31.5q0 26 18.5 44.5t42.5 18.5zM298 847q21 0 33 -12.5t12 -33.5q0 -24 -17.5 -42.5t-41.5 -18.5q-21 0 -33.5 12.5t-12.5 31.5q0 26 18 44.5t42 18.5zM248 660l-93 -660h-112l93 660h112
z" />
    <glyph glyph-name="afii10057" unicode="&#x408;" horiz-adv-x="466" 
d="M118 85q74 0 112 42.5t50 126.5l58 406h112q-11 -73 -23 -165l-26 -189q-17 -118 -47 -184q-28 -65 -82.5 -97.5t-145.5 -35.5q-90 0 -145 32l13 103q56 -39 124 -39z" />
    <glyph glyph-name="afii10058" unicode="&#x409;" horiz-adv-x="1008" 
d="M500 575h-185l-76 -319q-17 -68 -23 -86q-8 -28 -26 -69q-24 -52 -63.5 -79.5t-111.5 -41.5l-40 83q72 13 102 48q30 33 50 116l100 433h398l-35 -253h157q106 0 159.5 -48t53.5 -130q0 -107 -71 -169q-71 -60 -171 -60h-298zM733 322h-155l-33 -234h165q59 0 98.5 36
t39.5 100q0 45 -31.5 71.5t-83.5 26.5z" />
    <glyph glyph-name="afii10059" unicode="&#x40a;" horiz-adv-x="1021" 
d="M732 0h-298l43 314h-285l-43 -314h-112l93 661h111l-36 -262h284l37 262h113l-36 -261h157q106 0 160 -47.5t54 -126.5q0 -106 -71 -166t-171 -60zM746 315h-155l-32 -226h164q61 0 100 34t39 97q0 45 -32 70t-84 25z" />
    <glyph glyph-name="afii10060" unicode="&#x40b;" horiz-adv-x="778" 
d="M594 661l-13 -91h-214l-27 -196q99 33 188 33q101 0 146 -49t32 -140l-30 -218h-113l26 188q9 66 -17.5 97.5t-97.5 31.5t-146 -28l-41 -289h-112l80 570h-197l13 91h523z" />
    <glyph glyph-name="afii10061" unicode="&#x40c;" horiz-adv-x="605" 
d="M130 661h111l-43 -308l308 308h126l-319 -320l249 -341h-132l-235 331l-46 -331h-112zM520 846l-149 -121h-70l139 154z" />
    <glyph glyph-name="afii10062" unicode="&#x40e;" horiz-adv-x="586" 
d="M204 145l17 32l-181 482h118l126 -377h1l214 377h114l-298 -514q-57 -96 -96 -127q-41 -32 -105 -32q-61 0 -112 24l12 94q49 -29 91 -29q62 0 99 70zM442 866h58q-12 -61 -54 -106q-41 -44 -108 -44q-56 0 -87 34.5t-32 91.5q0 19 1 24h59q-1 -3 -1 -12q0 -36 18.5 -58
t50.5 -22q35 0 59 25t36 67z" />
    <glyph glyph-name="afii10145" unicode="&#x40f;" horiz-adv-x="676" 
d="M469 90l80 570h112l-93 -660h-213l-23 -162h-103l24 162h-217l93 660h112q-13 -101 -80 -570h308z" />
    <glyph glyph-name="afii10017" unicode="&#x410;" horiz-adv-x="628" 
d="M581 0h-108l-33 128h-279l-71 -128h-113l389 669h17zM350 465h-4l-145 -260h220z" />
    <glyph glyph-name="afii10018" unicode="&#x411;" horiz-adv-x="624" 
d="M335 0h-299l93 660h438q-1 -3 -7 -43q-3 -30 -6 -44h-324l-23 -167h160q106 0 158 -48.5t52 -133.5q0 -101 -71 -163q-70 -61 -171 -61zM350 321h-155l-33 -233h166q59 0 98 36t39 99q0 46 -31.5 72t-83.5 26z" />
    <glyph glyph-name="afii10019" unicode="&#x412;" horiz-adv-x="611" 
d="M459 361v-4q96 -35 96 -142q0 -93 -67 -154q-65 -61 -164 -61h-288l93 660h262q79 0 124 -37.5t45 -106.5q0 -102 -101 -155zM334 308h-145l-31 -217h150q75 0 106 39q32 41 32 86q0 43 -29.5 67.5t-82.5 24.5zM360 571h-134l-26 -183h132q41 0 79 26q39 26 39 84
q0 35 -24.5 54t-65.5 19z" />
    <glyph glyph-name="afii10020" unicode="&#x413;" horiz-adv-x="516" 
d="M544 569h-316l-80 -569h-112l93 660h429q-3 -24 -14 -91z" />
    <glyph glyph-name="afii10021" unicode="&#x414;" horiz-adv-x="789" 
d="M286 659h441l-79 -569h89l-35 -247h-99l23 157h-555l-22 -157h-96q29 210 34 247h79q55 49 88 119q35 74 62 179zM601 573h-236l-40 -154q-32 -125 -64 -205q-30 -74 -77 -124h350z" />
    <glyph glyph-name="afii10022" unicode="&#x415;" horiz-adv-x="551" 
d="M161 91h336q-12 -87 -12 -91h-449l93 660h424l-13 -91h-311l-15 -96l-11 -83h284l-12 -89h-285z" />
    <glyph glyph-name="afii10024" unicode="&#x416;" horiz-adv-x="935" 
d="M424 353l45 307h111q-5 -31 -44 -307l297 307h130l-317 -323q13 -20 122 -168q92 -122 124 -169h-132l-227 331q-25 -184 -46 -331h-111q4 22 45 331q-18 -18 -157 -165q-146 -153 -160 -166h-132q11 13 169 172q159 160 170 173q-17 28 -112 157q-97 132 -113 158h125
q21 -35 106 -154q94 -131 107 -153z" />
    <glyph glyph-name="afii10025" unicode="&#x417;" horiz-adv-x="566" 
d="M195 -11q-123 0 -199 42l6 50l7 50q80 -49 185 -49q97 0 152 37.5t55 100.5q0 42 -38.5 67.5t-101.5 25.5h-79l11 78h76q67 0 108.5 29.5t41.5 76.5q0 38 -36 59.5t-97 21.5q-37 0 -98 -11q-55 -10 -98 -29q4 44 13 97q98 39 221 39q97 -1 153.5 -39.5t56.5 -107.5
q0 -47 -33 -97q-33 -48 -95 -69v-3l-1 -1q50 -12 78 -49.5t28 -87.5q0 -102 -87 -166q-86 -65 -229 -65z" />
    <glyph glyph-name="afii10026" unicode="&#x418;" horiz-adv-x="709" 
d="M693 671l-94 -671h-109l60 433h-3l-496 -441h-16l94 668h111l-60 -430h4l493 441h16z" />
    <glyph glyph-name="afii10027" unicode="&#x419;" horiz-adv-x="709" 
d="M693 671l-94 -671h-109l60 433h-3l-496 -441h-16l94 668h111l-60 -430h4l493 441h16zM531 867h59q-12 -62 -54 -107t-109 -45q-56 0 -87 35t-32 93q0 19 1 24h59q0 -1 -0.5 -6t-0.5 -6q0 -36 18.5 -58t50.5 -22q69 0 95 92z" />
    <glyph glyph-name="afii10028" unicode="&#x41a;" horiz-adv-x="605" 
d="M130 661h111l-43 -308l308 308h126l-319 -320l249 -341h-132l-235 331l-46 -331h-112z" />
    <glyph glyph-name="afii10029" unicode="&#x41b;" horiz-adv-x="648" 
d="M427 0l80 575h-192l-72 -301l-18 -69q-18 -72 -41 -112q-29 -52 -65 -75q-44 -28 -108 -38l-36 84q73 16 103 49q30 35 48 114l100 432h406l-92 -659h-113z" />
    <glyph glyph-name="afii10030" unicode="&#x41c;" horiz-adv-x="796" 
d="M512 268l-122 -132h-18q-25 44 -86 138q-69 110 -84 138l-3 -2l-56 -410h-108l94 669h19q16 -29 124 -199q109 -170 125 -198l367 397h18l-94 -669h-108l56 399l-3 1q-14 -16 -121 -132z" />
    <glyph glyph-name="afii10031" unicode="&#x41d;" horiz-adv-x="668" 
d="M652 660l-92 -660h-111l41 299h-301l-41 -299h-112l93 660h112q-25 -165 -38 -269h300l38 269h111z" />
    <glyph glyph-name="afii10032" unicode="&#x41e;" horiz-adv-x="762" 
d="M437 671q137 0 213 -82q77 -82 77 -210q0 -165 -111 -277q-109 -112 -269 -112q-135 0 -213 80t-78 208q0 162 110 278q109 115 271 115zM356 84q110 0 184 83q74 85 74 206q0 88 -50 146q-49 57 -136 57q-108 0 -183 -86t-75 -205q0 -90 49 -145q50 -56 137 -56z" />
    <glyph glyph-name="afii10033" unicode="&#x41f;" horiz-adv-x="673" 
d="M656 660l-92 -660h-112l80 569h-304l-80 -569h-112l93 660h527z" />
    <glyph glyph-name="afii10034" unicode="&#x420;" horiz-adv-x="568" 
d="M148 0h-113l92 659h235q102 0 154.5 -52.5t52.5 -139.5q0 -109 -78 -176q-76 -67 -187 -67h-125q-23 -171 -31 -224zM327 573h-99q-18 -133 -38 -264h105q80 0 121 47q40 46 40 107q0 51 -31.5 80.5t-97.5 29.5z" />
    <glyph glyph-name="afii10035" unicode="&#x421;" horiz-adv-x="603" 
d="M557 131l-14 -100q-81 -42 -195 -42q-142 0 -219 77q-75 76 -75 204q0 176 113 289q114 114 281 114q102 0 160 -31l-11 -99q-64 35 -146 35q-113 0 -199 -81q-84 -81 -84 -216q0 -93 54.5 -145t152.5 -52q88 0 182 47z" />
    <glyph glyph-name="afii10036" unicode="&#x422;" horiz-adv-x="533" 
d="M577 661l-13 -91h-197l-80 -570h-112l80 570h-197l13 91h506z" />
    <glyph glyph-name="afii10037" unicode="&#x423;" horiz-adv-x="586" 
d="M227 145l17 32l-181 482h118l126 -377h1l214 377h114l-298 -514q-57 -96 -96 -127q-41 -32 -105 -32q-61 0 -112 24l12 94q49 -29 91 -29q62 0 99 70z" />
    <glyph glyph-name="afii10038" unicode="&#x424;" horiz-adv-x="839" 
d="M329 0l9 64q-131 6 -207 70q-77 65 -77 167q0 131 105 219q106 91 256 98l7 42h110l-7 -42q132 -11 206 -76q76 -64 76 -166q0 -128 -101 -214t-259 -98l-8 -64h-110zM513 533l-53 -383q102 6 170 67q70 61 70 151q0 69 -51 114.5t-136 50.5zM350 150l53 383
q-102 -7 -171 -70q-67 -61 -67 -150q0 -69 49 -112.5t136 -50.5z" />
    <glyph glyph-name="afii10039" unicode="&#x425;" horiz-adv-x="631" 
d="M587 0h-126l-136 324l-223 -324h-129l250 344l-144 316h119l131 -298l212 298h124l-233 -318z" />
    <glyph glyph-name="afii10040" unicode="&#x426;" horiz-adv-x="705" 
d="M661 660l-80 -570h92q-6 -44 -35 -248h-99l23 158h-526l93 660h112q-13 -101 -80 -570h308l80 570h112z" />
    <glyph glyph-name="afii10041" unicode="&#x427;" horiz-adv-x="641" 
d="M533 0h-113l41 301q-91 -30 -178 -30q-94 0 -144.5 40.5t-50.5 116.5q0 18 2 34l28 198h112l-26 -178q-1 -6 -1 -25q0 -101 124 -101q78 0 147 28l39 276h113z" />
    <glyph glyph-name="afii10042" unicode="&#x428;" horiz-adv-x="958" 
d="M832 661h111l-92 -661h-814l93 661h112l-80 -571h237l80 571h114l-81 -571h239z" />
    <glyph glyph-name="afii10043" unicode="&#x429;" horiz-adv-x="988" 
d="M161 90h237l81 570h113l-81 -570h240l80 570h112l-81 -570h92q-1 -9 -13.5 -98t-21.5 -149h-98l22 157h-807l93 660h112z" />
    <glyph glyph-name="afii10044" unicode="&#x42a;" horiz-adv-x="822" 
d="M440 660l-37 -254h162q105 0 157 -48.5t52 -130.5q0 -104 -71 -166q-70 -61 -170 -61h-298q52 362 79 570h-262l13 90h375zM548 321h-156l-33 -234h166q59 0 98 36.5t39 99.5q0 46 -31 72t-83 26z" />
    <glyph glyph-name="afii10045" unicode="&#x42b;" horiz-adv-x="847" 
d="M335 0h-299l93 660h113l-11 -81l-14 -93l-11 -80h161q106 0 158 -47.5t52 -130.5q0 -104 -71 -166t-171 -62zM350 321h-156q-10 -81 -33 -234h167q55 0 96 35q41 36 41 101q0 46 -31.5 72t-83.5 26zM831 660l-93 -660h-112l93 660h112z" />
    <glyph glyph-name="afii10046" unicode="&#x42c;" horiz-adv-x="624" 
d="M336 0h-299l93 661h113l-37 -254h162q105 0 157.5 -47.5t52.5 -128.5q0 -107 -72 -169q-71 -62 -170 -62zM351 322h-156l-33 -234h166q59 0 98.5 36t39.5 100q0 45 -31.5 71.5t-83.5 26.5z" />
    <glyph glyph-name="afii10047" unicode="&#x42d;" horiz-adv-x="603" 
d="M-2 31l7 50l6 50q79 -48 170 -48q107 0 177 62q70 61 87 159h-303l12 83h297q0 89 -51 139.5t-145 50.5q-89 0 -163 -33l14 98q66 31 180 31q142 0 212 -79q71 -80 71 -209q0 -102 -44 -192q-43 -88 -134 -146q-90 -57 -211 -57q-114 0 -182 41z" />
    <glyph glyph-name="afii10048" unicode="&#x42e;" horiz-adv-x="1032" 
d="M191 298l-41 -298h-114l92 659h114l-39 -277h144q33 127 133 207q100 82 233 82q134 0 209 -81q76 -79 76 -208q0 -166 -110 -279t-272 -113q-131 0 -207 79t-76 204q0 20 1 25h-143zM699 573q-108 0 -182 -86q-73 -85 -73 -202q0 -87 50 -145q50 -57 136 -57
q111 0 182 86q72 85 72 206q0 89 -49 143.5t-136 54.5z" />
    <glyph glyph-name="afii10049" unicode="&#x42f;" horiz-adv-x="604" 
d="M109 0h-126q30 35 120 130q102 108 118 127q-66 18 -103 64t-37 105q0 76 40 129q78 104 222 104h246l-92 -659h-112q27 208 79 570h-116q-64 0 -111 -42q-45 -40 -45 -107q0 -52 42 -87t122 -41l-3 -14q-19 -24 -123 -141q-109 -122 -121 -138z" />
    <glyph glyph-name="afii10065" unicode="&#x430;" horiz-adv-x="556" 
d="M278 373q-67 0 -106 -55q-38 -55 -38 -126q0 -56 25.5 -88t76.5 -32q63 0 105 51q43 52 43 130q0 53 -28 86.5t-78 33.5zM381 0l-7 58h-4q-68 -68 -166 -68q-84 0 -129.5 50.5t-45.5 133.5q0 124 69 202q69 79 177 79q100 0 144 -74h4l26 64h68l-29 -204l-33 -241h-74z
" />
    <glyph glyph-name="afii10066" unicode="&#x431;" horiz-adv-x="536" 
d="M317 451q83 0 130.5 -50.5t47.5 -133.5q0 -112 -71 -195q-70 -82 -191 -82q-102 0 -152 52.5t-50 143.5q0 194 56 329q48 115 136 160q87 44 255 55q24 -70 28 -79q-75 -5 -110 -11q-43 -6 -92 -24q-71 -26 -109 -84.5t-54 -169.5l2 -2q24 43 72 67t102 24zM136 191
q0 -118 105 -118q69 0 112 54q43 53 43 126q0 52 -28.5 84.5t-78.5 32.5q-67 0 -111 -53q-42 -53 -42 -126z" />
    <glyph glyph-name="afii10067" unicode="&#x432;" horiz-adv-x="499" 
d="M277 457q89 0 126 -34q39 -35 39 -77q0 -29 -16.5 -55t-47.5 -38v-2q-1 -1 -1 -2q40 -9 61 -34t21 -57q0 -68 -60 -118q-59 -50 -172 -50q-94 0 -146.5 42.5t-52.5 123.5q0 14 4 41l13 82q12 79 75 128q64 50 157 50zM284 208h-60q9 67 10 69h48q30 0 48.5 13.5
t18.5 34.5q0 27 -20.5 44.5t-58.5 17.5q-98 0 -124 -114q-17 -88 -17 -120q0 -41 27 -64t78 -23q58 0 92 28t34 66q0 48 -76 48z" />
    <glyph glyph-name="afii10068" unicode="&#x433;" horiz-adv-x="382" 
d="M335 114l-12 -86q-73 -38 -163 -38q-75 0 -114.5 29t-39.5 82q0 43 26 76t62.5 52.5t73 35.5t62.5 34.5t26 39.5q0 42 -67 42q-65 0 -133 -36l11 81q71 30 155 30q64 0 101 -27t37 -75q0 -42 -26 -73.5t-63.5 -50.5t-75 -35.5t-63.5 -37.5t-26 -47q0 -48 78 -48
q75 0 151 52z" />
    <glyph glyph-name="afii10069" unicode="&#x434;" horiz-adv-x="544" 
d="M415 376l5 1v46q-5 108 -67.5 170t-174.5 63q-6 0 -24 -0.5t-24 -0.5l46 72q4 0 15.5 0.5t14.5 0.5q307 0 307 -334q0 -154 -60 -273q-31 -61 -88.5 -96t-133.5 -35q-102 0 -151 55q-50 56 -50 139q0 115 70 192q70 78 174 78q48 0 87.5 -20t53.5 -58zM285 372
q-68 -2 -108 -52q-41 -52 -41 -126q0 -56 28 -88.5t79 -32.5q69 0 109 51q42 51 42 125q0 55 -29 89t-80 34z" />
    <glyph glyph-name="afii10070" unicode="&#x435;" horiz-adv-x="476" 
d="M284 457q74 0 118 -36.5t44 -92.5q0 -66 -68 -106.5t-181 -40.5q-47 0 -62 1q-2 -18 -2 -21q0 -46 30.5 -70.5t83.5 -24.5q94 0 170 58q-3 -18 -13 -86q-76 -48 -179 -48q-96 0 -146 51t-50 140q0 113 71 195q70 81 184 81zM277 377q-52 0 -89 -36t-48 -97q17 -4 52 -4
q70 0 112.5 22t42.5 56q0 26 -18 42.5t-52 16.5z" />
    <glyph glyph-name="afii10072" unicode="&#x436;" horiz-adv-x="758" 
d="M219 234l-171 211h116l160 -201l29 201h105q-24 -172 -28 -201l211 201h122l-228 -216l182 -229h-122l-169 220l-30 -220h-105l30 220q-15 -16 -116 -111q-81 -76 -114 -109h-121q19 21 123 116q95 87 126 118z" />
    <glyph glyph-name="afii10073" unicode="&#x437;" horiz-adv-x="419" 
d="M137 -11q-88 0 -141 29q1 28 8 82q21 -15 59.5 -25t72.5 -10q63 0 96.5 24.5t33.5 61.5q0 47 -88 47h-59l10 77h52q99 0 99 52q0 23 -23 37t-66 14q-73 0 -134 -30q0 1 13 82q63 26 149 26q78 -1 120.5 -27.5t42.5 -75.5q0 -35 -22 -65.5t-67 -46.5q36 -11 54.5 -35
t18.5 -55q0 -73 -63 -118q-64 -44 -166 -44z" />
    <glyph glyph-name="afii10074" unicode="&#x438;" horiz-adv-x="526" 
d="M62 169l38 276h103l-35 -254q-15 -114 72 -114q50 0 84 43t44 115l30 210h104l-62 -445h-84l-2 66h-4q-60 -74 -145 -74q-79 0 -117 46.5t-26 130.5z" />
    <glyph glyph-name="afii10075" unicode="&#x439;" horiz-adv-x="526" 
d="M62 169l38 276h103l-35 -254q-15 -114 72 -114q50 0 84 43t44 115l30 210h104l-62 -445h-84l-2 66h-4q-60 -74 -145 -74q-79 0 -117 46.5t-26 130.5zM409 668h59q-12 -62 -54 -107t-109 -45q-56 0 -87 35t-32 93q0 19 1 24h59q0 -2 -0.5 -6t-0.5 -6q0 -36 18.5 -58
t50.5 -22q69 0 95 92z" />
    <glyph glyph-name="afii10076" unicode="&#x43a;" horiz-adv-x="499" 
d="M379 443l125 1q-17 -18 -116 -107q-98 -88 -116 -107q11 -16 93 -115q80 -95 94 -115h-123l-174 220l-31 -220h-105l62 444h105q-7 -43 -28 -201z" />
    <glyph glyph-name="afii10077" unicode="&#x43b;" horiz-adv-x="505" 
d="M356 366h-129l-10 -37q-6 -31 -29 -124q-7 -31 -19 -71q-8 -26 -22 -56q-19 -42 -51 -63t-90 -32q-17 45 -31 77q56 9 79 41q23 30 40 103l57 241h319l-63 -445h-102z" />
    <glyph glyph-name="afii10078" unicode="&#x43c;" horiz-adv-x="657" 
d="M494 241l-177 -166h-19l-137 176l-42 -251h-101l76 451h18l206 -263l281 263h18l-51 -451h-101z" />
    <glyph glyph-name="afii10079" unicode="&#x43d;" horiz-adv-x="538" 
d="M502 445l-62 -445h-103l27 195h-208l-27 -195h-103l62 445h103l-25 -181h208l25 181h103z" />
    <glyph glyph-name="afii10080" unicode="&#x43e;" horiz-adv-x="533" 
d="M294 457q95 0 148 -53.5t53 -143.5q0 -116 -73 -193q-74 -78 -188 -78q-96 0 -150 53t-54 143q0 114 73 193t191 79zM286 372q-66 0 -108 -53t-42 -126q0 -55 28 -87.5t79 -32.5q66 0 108 52q43 52 43 125q0 55 -29 88.5t-79 33.5z" />
    <glyph glyph-name="afii10081" unicode="&#x43f;" horiz-adv-x="537" 
d="M477 271l-38 -271h-104l35 252q6 49 -11.5 83.5t-59.5 34.5q-54 0 -91.5 -45t-48.5 -123l-29 -202h-104l62 445h81l5 -72h3q64 82 162 82q141 0 141 -141q0 -19 -3 -43z" />
    <glyph glyph-name="afii10082" unicode="&#x440;" horiz-adv-x="549" 
d="M164 384q3 0 3 -2q58 73 165 73q87 0 132 -55q46 -53 46 -133q0 -124 -71 -201q-70 -76 -170 -76t-139 64h-3l-3 -1l-39 -269h-100l92 661h83q0 -29 4 -61zM300 371q-65 0 -108 -52q-43 -50 -43 -129q0 -54 28.5 -86.5t80.5 -32.5q68 0 108 51q41 53 41 127
q0 57 -27.5 89.5t-79.5 32.5z" />
    <glyph glyph-name="afii10083" unicode="&#x441;" horiz-adv-x="422" 
d="M297 457q69 0 109 -21l-6 -43l-6 -45q-36 24 -93 24q-75 0 -120.5 -50t-45.5 -134q0 -52 32.5 -83.5t89.5 -31.5q63 0 119 32l-13 -86q-54 -30 -141 -30q-91 0 -142 54.5t-51 143.5q0 122 77 196t191 74z" />
    <glyph glyph-name="afii10084" unicode="&#x442;" horiz-adv-x="808" 
d="M168 444l6 -65l3 -2q65 80 152 80q101 0 126 -88q63 88 157 88q68 0 104 -35.5t36 -99.5q0 -4 -5 -49q-6 -36 -22 -152l-16 -121h-103l38 265q7 53 -8.5 79.5t-61.5 26.5q-47 0 -81 -38t-43 -114l-30 -219h-103l36 263q15 107 -64 107q-109 0 -130 -155l-29 -215h-104
l62 444h80z" />
    <glyph glyph-name="afii10085" unicode="&#x443;" horiz-adv-x="455" 
d="M130 445l70 -327h5l163 327h106l-353 -661h-101l121 229l-117 432h106z" />
    <glyph glyph-name="afii10086" unicode="&#x444;" horiz-adv-x="695" 
d="M323 452l36 259h100l-36 -258q111 -6 172 -58t61 -139q0 -110 -84 -187q-82 -76 -214 -81l-28 -204h-101l29 205q-109 4 -170 58.5t-61 142.5q0 109 83 181q82 72 213 81zM370 67q75 5 129 53q57 50 57 123q0 58 -37.5 93t-105.5 39q-35 -263 -43 -308zM270 67l43 306
q-73 -3 -128 -52t-55 -124q0 -57 37.5 -92.5t102.5 -37.5z" />
    <glyph glyph-name="afii10087" unicode="&#x445;" horiz-adv-x="474" 
d="M429 0h-109l-93 211l-148 -211h-112l169 228l-99 217h105l90 -198l139 198h112l-162 -216z" />
    <glyph glyph-name="afii10088" unicode="&#x446;" horiz-adv-x="575" 
d="M180 -10q-66 0 -100 36t-34 102q0 20 3 41l39 276h103l-35 -254q-3 -18 -3 -31q0 -39 19.5 -62.5t55.5 -23.5q48 0 83 44.5t45 116.5l30 210h104l-49 -364l52 7q53 7 54 7q1 -2 4 -6l3 -4l-49 -229h-94l25 107l9 45l-105 -16l-9 7l11 75q-1 1 -2 1l-1 1h-2
q-63 -86 -157 -86z" />
    <glyph glyph-name="afii10089" unicode="&#x447;" horiz-adv-x="517" 
d="M429 0h-107q22 150 31 215q-1 1 -2 1q-29 -37 -74 -59t-87 -22q-70 0 -102.5 44t-22.5 120l20 146h103l-18 -129q-6 -43 9 -69.5t55 -26.5t84 38q43 38 55 117l11 70h106z" />
    <glyph glyph-name="afii10090" unicode="&#x448;" horiz-adv-x="807" 
d="M708 0h-79l-6 65q-2 0 -3 1q-65 -77 -151 -77q-102 0 -127 85q-60 -86 -157 -86q-140 0 -140 138q0 6 6 48l37 271h103l-37 -262q-2 -26 -2 -32q0 -37 18 -58t53 -21q47 0 80 36t42 107l32 230h104l-37 -265q-15 -108 67 -108q77 0 109 101q16 50 24 102l9 56l7 58l8 56
h102z" />
    <glyph glyph-name="afii10091" unicode="&#x449;" horiz-adv-x="855" 
d="M471 -12q-103 0 -129 86q-60 -86 -157 -86q-66 0 -102.5 34t-36.5 94q0 22 3 44l39 285h103l-38 -271q-13 -102 70 -102q47 0 80 36t42 107l32 230h104l-36 -252q-3 -27 -3 -40q0 -38 18 -59.5t51 -21.5q76 0 108 101q15 49 24 102l9 56l7 58l8 56h103l-49 -364l52 7
q53 7 54 7q3 -6 7 -10l-50 -229h-93l11 48q3 11 25 102l-105 -14l-9 7l10 75l-3 2q-58 -88 -149 -88z" />
    <glyph glyph-name="afii10092" unicode="&#x44a;" horiz-adv-x="639" 
d="M205 365h-185l10 80h291q-14 -105 -19 -135l1 -1h143q75 0 117 -35.5t42 -91.5q0 -79 -63 -136t-175 -57q-89 0 -137.5 43.5t-48.5 127.5q0 34 7 83zM412 240h-117q-11 -86 -11 -90q0 -84 101 -84q56 0 88 32t32 70q0 72 -93 72z" />
    <glyph glyph-name="afii10093" unicode="&#x44b;" horiz-adv-x="696" 
d="M155 309h143q76 0 117.5 -34.5t41.5 -92.5q0 -79 -63 -136t-175 -57q-90 0 -138 43.5t-48 127.5q0 23 8 85l28 200h104zM265 241h-118q-11 -83 -11 -91q0 -84 101 -84q56 0 88 32t32 70q0 73 -92 73zM661 445l-62 -445h-103l62 445h103z" />
    <glyph glyph-name="afii10094" unicode="&#x44c;" horiz-adv-x="491" 
d="M155 309h143q76 0 117.5 -34.5t41.5 -92.5q0 -79 -63 -136t-175 -57q-90 0 -138 43.5t-48 127.5q0 23 8 85l28 200h104zM265 241h-118q-11 -83 -11 -91q0 -84 101 -84q56 0 88 32t32 70q0 73 -92 73z" />
    <glyph glyph-name="afii10095" unicode="&#x44d;" horiz-adv-x="427" 
d="M272 188h-174l10 77h171q-1 51 -31 78.5t-82 27.5q-55 0 -112 -26q1 3 7 43l6 43q64 26 130 26q87 0 137 -51t50 -143q0 -119 -70 -196q-71 -77 -188 -77q-86 0 -133 29l7 46l4 40q47 -32 115 -32q59 0 100.5 31.5t52.5 83.5z" />
    <glyph glyph-name="afii10096" unicode="&#x44e;" horiz-adv-x="765" 
d="M526 457q94 0 146 -53.5t52 -144.5q0 -114 -72 -192q-71 -77 -185 -77q-100 0 -150.5 55t-50.5 154h-109q-17 -130 -28 -199h-103l62 444h103q-2 -17 -11 -78t-14 -100h110q22 87 89.5 139t160.5 52zM520 371q-67 0 -109 -52q-41 -53 -41 -127q0 -55 27 -87.5t78 -32.5
q66 0 108 52q43 52 43 126q0 54 -28.5 87.5t-77.5 33.5z" />
    <glyph glyph-name="afii10097" unicode="&#x44f;" horiz-adv-x="489" 
d="M96 0h-117l167 172q-43 11 -67.5 42.5t-24.5 71.5q0 75 55 117t135 42h208l-62 -445h-102l53 370h-81q-47 0 -75 -25.5t-28 -65.5q0 -30 28.5 -50t83.5 -23l-2 -17q-2 -2 -14.5 -15.5t-31 -34.5t-39.5 -44q-85 -94 -86 -95z" />
    <glyph glyph-name="afii10071" unicode="&#x451;" horiz-adv-x="476" 
d="M284 457q74 0 118 -36.5t44 -92.5q0 -66 -68 -106.5t-181 -40.5q-47 0 -62 1q-2 -18 -2 -21q0 -46 30.5 -70.5t83.5 -24.5q94 0 170 58q-3 -18 -13 -86q-76 -48 -179 -48q-96 0 -146 51t-50 140q0 113 71 195q70 81 184 81zM277 377q-52 0 -89 -36t-48 -97q17 -4 52 -4
q70 0 112.5 22t42.5 56q0 26 -18 42.5t-52 16.5zM231 653q20 0 32 -12.5t12 -31.5q0 -25 -17.5 -43t-40.5 -18q-21 0 -33.5 12.5t-12.5 31.5q0 24 18.5 42.5t41.5 18.5zM403 653q20 0 32 -12.5t12 -31.5q0 -25 -17 -43t-42 -18q-20 0 -32.5 12t-12.5 31q0 26 18 44t42 18z
" />
    <glyph glyph-name="afii10099" unicode="&#x452;" horiz-adv-x="553" 
d="M107 617l13 94h99l-13 -94h167l-8 -57h-166l-27 -178q2 0 5 -3q63 75 162 75q78 0 124.5 -47t46.5 -136q0 -113 -65 -216q-64 -101 -165 -154l-66 44q58 30 99.5 73t60.5 89q32 80 32 138q0 122 -108 122q-46 0 -92 -41q-44 -41 -53 -103l-33 -223h-99l78 560h-49l8 57
h49z" />
    <glyph glyph-name="afii10100" unicode="&#x453;" horiz-adv-x="382" 
d="M335 114l-12 -86q-73 -38 -163 -38q-75 0 -114.5 29t-39.5 82q0 43 26 76t62.5 52.5t73 35.5t62.5 34.5t26 39.5q0 42 -67 42q-65 0 -133 -36l11 81q71 30 155 30q64 0 101 -27t37 -75q0 -42 -26 -73.5t-63.5 -50.5t-75 -35.5t-63.5 -37.5t-26 -47q0 -48 78 -48
q75 0 151 52zM382 655l-139 -134h-67l130 168q5 -1 38 -17z" />
    <glyph glyph-name="afii10101" unicode="&#x454;" horiz-adv-x="422" 
d="M376 105l-6 -43q-6 -40 -7 -43q-53 -29 -141 -29q-94 0 -143 55q-50 56 -50 142q0 122 76 195q76 75 191 75q65 0 110 -21l-6 -44q-3 -31 -6 -44q-38 24 -88 24q-127 0 -163 -107h175l-10 -77h-173q-2 -57 29.5 -86t92.5 -29q63 0 119 32z" />
    <glyph glyph-name="afii10102" unicode="&#x455;" horiz-adv-x="379" 
d="M-8 28l9 86q59 -51 140 -51q91 0 91 65q0 42 -94 81q-39 17 -66 46.5t-27 66.5q0 63 48.5 98.5t126.5 35.5q71 0 131 -30l-11 -81q-57 36 -112 36q-35 0 -57 -14t-22 -43q0 -20 28.5 -39t63.5 -34t63.5 -46t28.5 -72q0 -66 -52.5 -104.5t-138.5 -38.5q-89 0 -150 38z" />
    <glyph glyph-name="afii10103" unicode="&#x456;" horiz-adv-x="244" 
d="M200 445l-62 -445h-104l62 445h104zM178 648q23 0 37.5 -15t14.5 -37q0 -28 -20.5 -49t-47.5 -21q-24 0 -38 14t-14 38q0 28 21 49t47 21z" />
    <glyph glyph-name="afii10104" unicode="&#x457;" horiz-adv-x="244" 
d="M94 646q20 0 32 -12.5t12 -31.5q0 -25 -17.5 -43t-40.5 -18q-21 0 -33.5 12.5t-12.5 31.5q0 25 18 43t42 18zM266 646q20 0 32 -12.5t12 -31.5q0 -25 -17 -43t-42 -18q-21 0 -33 12.5t-12 30.5q0 26 18 44t42 18zM200 445l-62 -445h-104l62 445h104z" />
    <glyph glyph-name="afii10105" unicode="&#x458;" horiz-adv-x="233" 
d="M-87 -230l-34 91q86 1 118 51q27 45 39 143l56 390h101l-55 -396q-21 -150 -72 -208q-51 -61 -153 -71zM172 647q24 0 38 -14.5t14 -36.5q0 -28 -20.5 -49t-47.5 -21q-23 0 -37 14.5t-14 36.5q0 29 20 49.5t47 20.5z" />
    <glyph glyph-name="afii10106" unicode="&#x459;" horiz-adv-x="784" 
d="M329 188l22 178h-124l-38 -155l-13 -53q-7 -27 -14 -45q-8 -24 -17 -41q-23 -44 -51 -60q-44 -23 -91 -28l-13 35l-15 39q55 7 78 40q23 32 41 106l57 240h315l-19 -135h144q76 0 117.5 -34.5t41.5 -92.5q0 -79 -63 -136t-174 -57q-87 0 -136.5 43.5t-49.5 124.5
q0 1 2 31zM558 240h-117q-10 -71 -10 -92q0 -82 99 -82q57 0 89 32t32 70q0 72 -93 72z" />
    <glyph glyph-name="afii10107" unicode="&#x45a;" horiz-adv-x="800" 
d="M483 445l-20 -147h142q77 0 119 -32t42 -88q0 -78 -63 -135q-64 -56 -175 -56q-98 0 -148 52.5t-37 145.5l6 42h-187l-33 -227h-103l62 444h103q-15 -106 -20 -149h186l20 150h106zM573 231h-119q-10 -76 -10 -83q0 -84 101 -84q55 0 88 30t33 72q0 65 -93 65z" />
    <glyph glyph-name="afii10108" unicode="&#x45b;" horiz-adv-x="529" 
d="M471 276l-39 -276h-103l35 252q2 30 2 31q0 40 -18.5 63.5t-54.5 23.5q-54 0 -91.5 -46.5t-48.5 -125.5l-30 -198h-102l78 560h-49l8 57h49l13 94h99l-13 -94h167l-8 -57h-167l-27 -182q1 0 2 -0.5t2 -0.5q66 79 158 79q68 0 104 -36t36 -102q0 -24 -2 -42z" />
    <glyph glyph-name="afii10109" unicode="&#x45c;" horiz-adv-x="499" 
d="M379 443l125 1q-17 -18 -116 -107q-98 -88 -116 -107q11 -16 93 -115q80 -95 94 -115h-123l-174 220l-31 -220h-105l62 444h105q-7 -43 -28 -201zM432 655l-139 -134h-67l130 168l37 -17q35 -16 39 -17z" />
    <glyph glyph-name="afii10110" unicode="&#x45e;" horiz-adv-x="455" 
d="M130 445l70 -327h5l163 327h106l-353 -661h-101l121 229l-117 432h106zM366 675h59q-12 -62 -54 -107t-109 -45q-56 0 -87 35t-32 93q0 19 1 24h59q0 -1 -0.5 -6t-0.5 -6q0 -36 18.5 -58t50.5 -22q69 0 95 92z" />
    <glyph glyph-name="afii10193" unicode="&#x45f;" horiz-adv-x="526" 
d="M334 -205h-85q0 2 1.5 11t4 26t5.5 36q3 16 6.5 37.5t6 35.5t3.5 24h80zM62 169l38 276h103l-35 -254q-15 -114 72 -114q50 0 84 43t44 115l30 210h104l-62 -445h-84l-2 66h-4q-60 -74 -145 -74q-79 0 -117 46.5t-26 130.5z" />
    <glyph glyph-name="afii10050" unicode="&#x490;" horiz-adv-x="524" 
d="M556 572h-328l-79 -572h-112l93 661h348l16 115h91z" />
    <glyph glyph-name="afii10098" unicode="&#x491;" horiz-adv-x="426" 
d="M432 369h-250l-51 -369h-103l61 445h272l15 109h82z" />
    <glyph glyph-name="schwacyrillic" unicode="&#x4d9;" horiz-adv-x="484" 
d="M189 -10q-74 0 -118 35.5t-44 92.5q0 66 66.5 104t182.5 38q33 0 61 -2q0 55 -29 88.5t-82 33.5q-96 0 -169 -58q3 31 12 86q76 49 179 49q96 0 146 -51.5t50 -140.5q0 -113 -71 -195q-71 -80 -184 -80zM196 69q52 0 89 35.5t49 96.5q-36 3 -53 3q-39 0 -71 -6
q-35 -6 -59.5 -24t-24.5 -46q0 -26 18 -42.5t52 -16.5z" />
    <glyph glyph-name="Wgrave" unicode="&#x1e80;" horiz-adv-x="910" 
d="M277 243l225 423h16l108 -430h4l212 423h115l-351 -669h-16q-4 17 -55 217q-15 58 -56 226h-2l-233 -443h-19l-161 669h114l94 -416h5zM452 881l107 -158h-65l-126 126q42 17 84 32z" />
    <glyph glyph-name="wgrave" unicode="&#x1e81;" horiz-adv-x="713" 
d="M201 183l171 267h14l96 -272h4l142 267h103l-259 -452h-15l-101 286h-2l-180 -286h-16l-131 452h105l65 -262h4zM349 687l98 -166h-62l-113 136q5 3 42 16q9 4 18 7.5t13 5.5z" />
    <glyph glyph-name="Wacute" unicode="&#x1e82;" horiz-adv-x="910" 
d="M277 243l225 423h16l108 -430h4l212 423h115l-351 -669h-16q-4 17 -55 217q-15 58 -56 226h-2l-233 -443h-19l-161 669h114l94 -416h5zM682 844l-149 -121h-70l139 154z" />
    <glyph glyph-name="wacute" unicode="&#x1e83;" horiz-adv-x="713" 
d="M201 183l171 267h14l96 -272h4l142 267h103l-259 -452h-15l-101 286h-2l-180 -286h-16l-131 452h105l65 -262h4zM549 655l-139 -134h-67l130 168q5 -1 38 -17z" />
    <glyph glyph-name="Wdieresis" unicode="&#x1e84;" horiz-adv-x="910" 
d="M277 243l225 423h16l108 -430h4l212 423h115l-351 -669h-16q-4 17 -55 217q-15 58 -56 226h-2l-233 -443h-19l-161 669h114l94 -416h5zM445 847q19 0 31.5 -13t12.5 -33q0 -25 -18 -43t-41 -18q-21 0 -33.5 12.5t-12.5 31.5q0 26 18.5 44.5t42.5 18.5zM617 847
q21 0 33 -12.5t12 -33.5q0 -24 -17.5 -42.5t-41.5 -18.5q-21 0 -33.5 12.5t-12.5 31.5q0 26 18 44.5t42 18.5z" />
    <glyph glyph-name="wdieresis" unicode="&#x1e85;" horiz-adv-x="713" 
d="M201 183l171 267h14l96 -272h4l142 267h103l-259 -452h-15l-101 286h-2l-180 -286h-16l-131 452h105l65 -262h4zM316 629q20 0 32 -12.5t12 -31.5q0 -25 -17.5 -43t-40.5 -18q-21 0 -33.5 12.5t-12.5 31.5q0 24 18 42.5t42 18.5zM488 629q20 0 32 -12.5t12 -31.5
q0 -25 -17 -43t-42 -18q-21 0 -33 12t-12 31q0 26 18 44t42 18z" />
    <glyph glyph-name="Ygrave" unicode="&#x1ef2;" horiz-adv-x="570" 
d="M184 660l118 -286h4l191 286h122l-270 -387l-38 -273h-112l39 273l-86 192q-70 163 -87 195h119zM299 881l107 -158h-65l-126 126q42 17 84 32z" />
    <glyph glyph-name="ygrave" unicode="&#x1ef3;" horiz-adv-x="455" 
d="M130 445l70 -327h5l163 327h106l-353 -661h-101l121 229l-117 432h106zM223 687l98 -166h-62l-113 136q5 3 42 16q9 4 18 7.5t13 5.5z" />
    <glyph glyph-name="endash" unicode="&#x2013;" horiz-adv-x="563" 
d="M527 205h-505l10 78h505z" />
    <glyph glyph-name="emdash" unicode="&#x2014;" horiz-adv-x="814" 
d="M777 205h-753l11 78h752z" />
    <glyph glyph-name="afii00208" unicode="&#x2015;" horiz-adv-x="814" 
d="M777 205h-753l11 78h752z" />
    <glyph glyph-name="quoteleft" unicode="&#x2018;" horiz-adv-x="210" 
d="M130 430q-22 0 -36 13.5t-14 35.5q0 34 35 93q34 58 76 109l42 -7l-65 -128q30 -12 30 -45q0 -29 -20.5 -50t-47.5 -21z" />
    <glyph glyph-name="quoteright" unicode="&#x2019;" horiz-adv-x="210" 
d="M170 679q22 0 36 -13.5t14 -36.5q0 -34 -35 -93q-35 -57 -75 -108l-43 7l65 128q-30 11 -30 46q0 28 21 49t47 21z" />
    <glyph glyph-name="quotesinglbase" unicode="&#x201a;" horiz-adv-x="223" 
d="M95 112q22 0 36.5 -14t14.5 -36q0 -38 -37 -102q-38 -65 -77 -110l-42 7l66 138q-30 11 -30 44q0 30 21 51.5t48 21.5z" />
    <glyph glyph-name="quotedblleft" unicode="&#x201c;" horiz-adv-x="354" 
d="M132 430q-23 0 -37 13.5t-14 35.5q0 65 111 202l42 -7l-65 -128q30 -12 30 -45q0 -28 -20.5 -49.5t-46.5 -21.5zM270 430q-23 0 -37.5 13.5t-14.5 35.5q0 63 111 202l43 -7l-65 -128q30 -12 30 -45q0 -28 -20.5 -49.5t-46.5 -21.5z" />
    <glyph glyph-name="quotedblright" unicode="&#x201d;" horiz-adv-x="354" 
d="M307 680q23 0 37 -14t14 -37q0 -34 -35 -93q-32 -54 -76 -108l-42 7l65 128q-30 12 -30 45q0 28 20.5 50t46.5 22zM169 680q23 0 37.5 -14t14.5 -36q0 -34 -35 -93q-30 -52 -76 -109l-43 7l65 128q-30 12 -30 45q0 28 20.5 50t46.5 22z" />
    <glyph glyph-name="quotedblbase" unicode="&#x201e;" horiz-adv-x="361" 
d="M92 112q23 0 37.5 -14t14.5 -36q0 -37 -37 -101q-40 -68 -77 -111l-43 7l67 138q-31 10 -31 45q0 29 21 50.5t48 21.5zM235 112q22 0 36 -14.5t14 -36.5q0 -37 -38 -102q-40 -69 -76 -109l-42 7l66 138q-29 11 -29 44q0 30 20.5 51.5t48.5 21.5z" />
    <glyph glyph-name="dagger" unicode="&#x2020;" horiz-adv-x="532" 
d="M234 406h-155l12 89h154l26 185h105q-13 -74 -27 -185h159q0 -1 -0.5 -5t-2 -13.5t-2.5 -18.5t-2.5 -20.5t-3 -19t-1.5 -12.5h-158l-73 -518h-105z" />
    <glyph glyph-name="daggerdbl" unicode="&#x2021;" horiz-adv-x="532" 
d="M234 411h-155l12 87h155q19 143 25 182h104q-6 -39 -11 -75t-9.5 -67t-5.5 -40h159l-12 -87h-158q-25 -175 -29 -209h157l-12 -88h-158q-1 -11 -3.5 -27.5t-6 -41.5t-6.5 -44t-6.5 -44t-6 -41.5t-3.5 -27.5h-104l32 226h-155l7 44l6 44h154z" />
    <glyph glyph-name="bullet" unicode="&#x2022;" horiz-adv-x="477" 
d="M144 238q0 52 38 90t90 38t90 -38t38 -90t-38 -90q-37 -37 -90 -37q-54 0 -91 37t-37 90z" />
    <glyph glyph-name="trianglebullet" unicode="&#x2023;" horiz-adv-x="506" 
d="M121 68v408l390 -199z" />
    <glyph glyph-name="ellipsis" unicode="&#x2026;" horiz-adv-x="653" 
d="M97 114q22 0 37 -15.5t15 -38.5q0 -28 -21.5 -49t-47.5 -21q-23 0 -38 14.5t-15 37.5q0 30 21 51t49 21zM309 114q23 0 38 -15.5t15 -38.5q0 -28 -21.5 -49t-48.5 -21q-23 0 -38 14.5t-15 37.5q0 30 21.5 51t48.5 21zM521 114q23 0 37.5 -15.5t14.5 -38.5q0 -28 -21 -49
t-48 -21q-23 0 -38 14.5t-15 37.5q0 29 21.5 50.5t48.5 21.5z" />
    <glyph glyph-name="perthousand" unicode="&#x2030;" horiz-adv-x="1107" 
d="M880 -9q-65 0 -102.5 35.5t-37.5 95.5q0 76 54 132t131 56q63 0 100.5 -37t37.5 -96q0 -75 -53 -131q-52 -55 -130 -55zM916 242q-40 0 -69 -33q-28 -32 -28 -76q0 -34 19 -54.5t52 -20.5q40 0 67 32q28 31 28 76q0 34 -18.5 55t-50.5 21zM209 356q-66 0 -103 36.5
t-37 96.5q0 75 54 131t130 56q63 0 101 -37.5t38 -97.5q0 -75 -54 -130t-129 -55zM243 607q-41 0 -69 -33q-27 -33 -27 -76q0 -34 19 -54.5t52 -20.5q39 0 67.5 32.5t28.5 75.5q0 33 -19.5 54.5t-51.5 21.5zM517 -9q-65 0 -102.5 35.5t-37.5 95.5q0 76 54 132t131 56
q62 0 100 -37.5t38 -96.5q0 -76 -54 -131q-52 -54 -129 -54zM553 242q-41 0 -69 -33q-28 -32 -28 -76q0 -34 19 -54.5t52 -20.5q39 0 67 32.5t28 75.5q0 34 -18.5 55t-50.5 21zM633 682h69l-576 -705h-68z" />
    <glyph glyph-name="guilsinglleft" unicode="&#x2039;" horiz-adv-x="292" 
d="M282 392l-159 -186l106 -192h-99l-101 184l1 10l155 184h97z" />
    <glyph glyph-name="guilsinglright" unicode="&#x203a;" horiz-adv-x="292" 
d="M98 14h-98l160 192l-107 186h96l104 -184l-1 -10z" />
    <glyph glyph-name="fraction" unicode="&#x2044;" horiz-adv-x="105" 
d="M316 683h69l-575 -707h-68z" />
    <glyph glyph-name="fraction" unicode="&#x2215;" horiz-adv-x="105" 
d="M316 683h69l-575 -707h-68z" />
    <glyph glyph-name="zerosuperior" unicode="&#x2070;" horiz-adv-x="348" 
d="M245 781q64 0 94.5 -39.5t30.5 -107.5q0 -42 -9.5 -83.5t-29 -80.5t-57 -63.5t-87.5 -24.5q-126 0 -126 145q0 80 36 159q19 43 58 69t90 26zM236 718q-30 0 -52 -24.5t-30 -63.5q-13 -58 -13 -99q0 -85 57 -85q27 0 46.5 20.5t28.5 53.5q16 59 16 112q0 86 -53 86z" />
    <glyph glyph-name="foursuperior" unicode="&#x2074;" horiz-adv-x="348" 
d="M39 490l220 285h81l-188 -242h94l7 37l63 86h23l-18 -123h49l-8 -59h-49l-12 -85h-74l12 85h-202z" />
    <glyph glyph-name="fivesuperior" unicode="&#x2075;" horiz-adv-x="348" 
d="M221 641q56 0 90.5 -29t34.5 -81q0 -65 -51 -107q-52 -41 -122 -41q-74 0 -123 34l11 75q45 -47 112 -47q42 0 70.5 23.5t28.5 58.5q0 27 -22 42t-57 15q-53 0 -94 -22q-1 0 -11 5l53 208h221l-7 -59h-161l-21 -81q18 6 48 6z" />
    <glyph glyph-name="sixsuperior" unicode="&#x2076;" horiz-adv-x="348" 
d="M235 638q56 0 88.5 -29.5t32.5 -78.5q0 -63 -50 -105t-121 -42q-63 0 -98 28.5t-35 79.5q0 53 49 121q56 76 127 163h87l-113 -140q10 3 33 3zM212 580q-33 0 -57 -23.5t-24 -54.5q0 -25 16.5 -40t45.5 -15q36 0 60 21t24 54q0 24 -18 41t-47 17z" />
    <glyph glyph-name="sevensuperior" unicode="&#x2077;" horiz-adv-x="336" 
d="M373 763l-230 -375h-80l201 327h-187l7 30q6 25 6 30h285q-2 -10 -2 -12z" />
    <glyph glyph-name="eightsuperior" unicode="&#x2078;" horiz-adv-x="348" 
d="M233 719q-25 0 -44 -17.5t-19 -40.5q0 -19 13.5 -31.5t36.5 -12.5q26 0 43.5 16.5t17.5 40.5q0 19 -13.5 32t-34.5 13zM214 567q-33 0 -55.5 -20t-22.5 -50q0 -22 16.5 -36t43.5 -14q32 0 53.5 20t21.5 48q0 24 -16 38t-41 14zM244 782q50 0 81.5 -26.5t31.5 -69.5
q0 -60 -55 -93q47 -26 47 -78q0 -57 -47 -95q-46 -37 -114 -37q-62 0 -97 27t-35 73q0 31 18 61.5t50 48.5q-30 24 -30 66q0 53 45 88q47 35 105 35z" />
    <glyph glyph-name="ninesuperior" unicode="&#x2079;" horiz-adv-x="348" 
d="M245 782q60 0 95.5 -29.5t35.5 -78.5q0 -31 -15 -64q-12 -30 -26 -49q-13 -17 -34 -43l-100 -130h-88q89 113 108 140q-3 0 -7 -0.5t-6.5 -1t-5 -0.5h-3.5q-59 0 -93 28t-34 78q0 65 49 107q49 43 124 43zM217 584q33 0 56.5 23.5t23.5 54.5q0 25 -16.5 40.5t-44.5 15.5
q-36 0 -61 -22t-25 -55q0 -25 18.5 -41t48.5 -16z" />
    <glyph glyph-name="plussuperior" unicode="&#x207a;" horiz-adv-x="355" 
d="M197 513h-104q0 2 2.5 22t3.5 27h104l14 96h52l-14 -96h103l-7 -49h-102l-14 -98h-52z" />
    <glyph glyph-name="hyphensuperior" unicode="&#x207b;" horiz-adv-x="247" 
d="M258 498h-187q5 38 8 52h186q-2 -10 -7 -52z" />
    <glyph glyph-name="equalsuperior" unicode="&#x207c;" horiz-adv-x="356" 
d="M350 555h-261l6 48h262zM338 463h-262q0 5 3 23t3 24h262q0 -1 -1.5 -10t-3 -20t-1.5 -17z" />
    <glyph glyph-name="parenleftsuperior" unicode="&#x207d;" horiz-adv-x="195" 
d="M214 830l43 -17q-43 -47 -79 -129q-35 -82 -35 -175q0 -101 44 -187l-47 -18q-68 83 -68 208q0 99 43 181q44 85 99 137z" />
    <glyph glyph-name="parenrightsuperior" unicode="&#x207e;" horiz-adv-x="195" 
d="M84 811l48 18q69 -93 69 -210q0 -97 -44 -183q-44 -85 -99 -134l-41 19q114 145 114 306q0 107 -47 184z" />
    <glyph glyph-name="nsuperior" unicode="&#x207f;" horiz-adv-x="363" 
d="M122 300h-78l41 295h60q0 -7 1.5 -26t1.5 -26q46 58 115 58q95 0 96 -87v-6q0 -1 -0.5 -4t-1 -8t-0.5 -9q-6 -47 -26 -187h-78l21 157q3 11 3 27q0 50 -43 50q-53 0 -83 -64q-9 -20 -19 -85q-1 -7 -4.5 -40.5t-5.5 -44.5z" />
    <glyph glyph-name="zeroinferior" unicode="&#x2080;" horiz-adv-x="348" 
d="M181 301q64 0 94.5 -39.5t30.5 -107.5q0 -42 -9.5 -83.5t-29 -80.5t-57 -63.5t-87.5 -24.5q-126 0 -126 145q0 80 36 159q19 43 58 69t90 26zM172 238q-30 0 -52 -24t-30 -63q-13 -58 -13 -98q0 -87 57 -87q27 0 46 20t28 54q16 59 16 113q0 85 -52 85z" />
    <glyph glyph-name="oneinferior" unicode="&#x2081;" horiz-adv-x="310" 
d="M213 301h13l-56 -392h-78l40 287l-49 -23q-35 -15 -51 -24l10 71z" />
    <glyph glyph-name="twoinferior" unicode="&#x2082;" horiz-adv-x="348" 
d="M181 304q58 0 90 -27t32 -73q0 -56 -49 -120q-46 -61 -116 -115h139l-8 -60h-299l1 13q252 154 252 263q0 55 -60 55q-55 0 -128 -48l13 71q68 41 133 41z" />
    <glyph glyph-name="threeinferior" unicode="&#x2083;" horiz-adv-x="348" 
d="M83 107l-6 10l118 119h-155l9 60h269l-1 -12l-133 -135q47 -4 73.5 -30.5t26.5 -69.5q0 -64 -50 -105t-119 -41q-83 0 -131 33l11 74q52 -47 117 -47q42 0 69 25t27 60q0 29 -22.5 46t-58.5 17q-27 0 -44 -4z" />
    <glyph glyph-name="fourinferior" unicode="&#x2084;" horiz-adv-x="348" 
d="M-30 11l220 285h81l-188 -242h94l7 37l63 86h23l-18 -123h49l-8 -59h-49l-12 -85h-74l12 85h-202z" />
    <glyph glyph-name="fiveinferior" unicode="&#x2085;" horiz-adv-x="348" 
d="M158 161q56 0 90.5 -29t34.5 -81q0 -65 -51 -105q-52 -41 -122 -41q-76 0 -123 32l11 75q45 -47 112 -47q42 0 70.5 23.5t28.5 58.5q0 27 -22 42t-57 15q-53 0 -94 -22q-1 0 -11 5l53 208h221l-7 -59h-161l-21 -81q18 6 48 6z" />
    <glyph glyph-name="sixinferior" unicode="&#x2086;" horiz-adv-x="348" 
d="M172 158q56 0 88.5 -29.5t32.5 -77.5q0 -64 -50 -105q-49 -42 -121 -42q-63 0 -98 28t-35 79q0 53 49 121q56 76 127 163h87l-113 -140q11 3 33 3zM149 100q-33 0 -57 -23.5t-24 -54.5q0 -25 16.5 -40t45.5 -15q36 0 60 21t24 54q0 24 -18 41t-47 17z" />
    <glyph glyph-name="seveninferior" unicode="&#x2087;" horiz-adv-x="336" 
d="M314 284l-230 -375h-80l201 327h-188q5 25 14 60h284q0 -2 -0.5 -6t-0.5 -6z" />
    <glyph glyph-name="eightinferior" unicode="&#x2088;" horiz-adv-x="348" 
d="M171 239q-26 0 -44.5 -17.5t-18.5 -40.5q0 -19 13.5 -31.5t36.5 -12.5q26 0 43.5 16.5t17.5 40.5q0 19 -13.5 32t-34.5 13zM152 87q-33 0 -55.5 -20t-22.5 -50q0 -22 16.5 -36t43.5 -14q32 0 53.5 20t21.5 48q0 24 -16 38t-41 14zM181 302q51 0 82.5 -26.5t31.5 -69.5
q0 -26 -14.5 -52t-40.5 -41q47 -26 47 -78q0 -56 -47 -94t-114 -38q-62 0 -97 27t-35 73q0 31 18 61.5t50 48.5q-30 24 -30 66q0 54 45 88q46 35 104 35z" />
    <glyph glyph-name="nineinferior" unicode="&#x2089;" horiz-adv-x="348" 
d="M183 302q60 0 95.5 -29.5t35.5 -78.5q0 -30 -13 -60q-16 -39 -56 -89l-6 -7l-100 -129h-88l108 139q-3 0 -7 -0.5t-6.5 -1t-5 -0.5h-3.5q-59 0 -93 28t-34 78q0 65 49 107q49 43 124 43zM155 104q33 0 56.5 23t23.5 55q0 25 -16.5 40.5t-44.5 15.5q-36 0 -61 -22t-25 -55
q0 -25 18.5 -41t48.5 -16z" />
    <glyph glyph-name="plusinferior" unicode="&#x208a;" horiz-adv-x="355" 
d="M131 54h-103l7 47h104l14 96h51l-13 -96h102l-7 -47h-102l-14 -98h-52z" />
    <glyph glyph-name="hypheninferior" unicode="&#x208b;" horiz-adv-x="247" 
d="M193 36h-186l6 54h187z" />
    <glyph glyph-name="equalinferior" unicode="&#x208c;" horiz-adv-x="355" 
d="M276 2h-262l6 47h262zM288 95h-261l7 47h261z" />
    <glyph glyph-name="parenleftinferior" unicode="&#x208d;" horiz-adv-x="195" 
d="M150 370l43 -18q-42 -46 -78 -128q-36 -81 -36 -174q0 -104 45 -188l-47 -19q-69 89 -69 212q0 97 43 179q45 84 99 136z" />
    <glyph glyph-name="parenrightinferior" unicode="&#x208e;" horiz-adv-x="195" 
d="M20 351l48 17q69 -88 69 -208q0 -99 -44 -182q-43 -84 -99 -135l-20 10l-21 9q114 148 114 306q0 103 -47 183z" />
    <glyph glyph-name="Euro" unicode="&#x20ac;" horiz-adv-x="546" 
d="M35 265l6 46h406l-6 -46h-256q0 -2 -0.5 -8t-0.5 -7q0 -78 45.5 -122.5t126.5 -44.5q60 0 138 32q-11 -64 -16 -95q-63 -26 -143 -26q-118 0 -186.5 68.5t-68.5 188.5q0 2 0.5 7t0.5 7h-46zM454 360h-406l6 46h50q31 122 118 192q85 70 203 70q75 0 126 -19l-6 -94
q-54 20 -116 20q-77 0 -135.5 -45t-82.5 -124h250q-2 -8 -7 -46z" />
    <glyph glyph-name="centigrade" unicode="&#x2103;" horiz-adv-x="803" 
d="M170 680q46 0 75 -29.5t29 -74.5q0 -56 -41 -97t-97 -41q-48 0 -75.5 27.5t-27.5 72.5q0 56 41 99q42 43 96 43zM162 630q-31 0 -55 -26t-24 -57q0 -27 16 -44t43 -17q33 0 57.5 25.5t24.5 56.5q0 27 -17.5 44.5t-44.5 17.5zM756 131l-14 -100q-81 -42 -195 -42
q-142 0 -219 77q-75 76 -75 204q0 176 113 289q114 114 281 114q102 0 160 -31l-11 -99q-64 35 -146 35q-114 0 -199 -81q-84 -81 -84 -216q0 -93 54.5 -145t152.5 -52q88 0 182 47z" />
    <glyph glyph-name="fahrenheit" unicode="&#x2109;" horiz-adv-x="760" 
d="M419 279l-38 -279h-112l93 660h429q-3 -24 -14 -91h-316l-29 -201h283l-12 -89h-284zM170 680q46 0 75 -29.5t29 -74.5q0 -56 -41 -97t-97 -41q-48 0 -75.5 27.5t-27.5 72.5q0 56 41 99q42 43 96 43zM162 630q-31 0 -55 -26t-24 -57q0 -27 16 -44t43 -17q33 0 57.5 25.5
t24.5 56.5q0 27 -17.5 44.5t-44.5 17.5z" />
    <glyph glyph-name="afii61289" unicode="&#x2113;" horiz-adv-x="507" 
d="M153 200l-47 -32q-10 14 -33 54q12 8 42 30.5t36 26.5v201q0 110 41.5 164t113.5 54q54 0 86.5 -31t32.5 -91q0 -150 -199 -328v-69q0 -118 85 -118q31 0 64 27t59 76q22 -10 57 -33q-72 -140 -183 -140q-82 0 -117.5 52t-37.5 157zM225 466q2 -112 2 -125
q127 128 127 228q0 65 -53 65q-33 0 -54.5 -43t-21.5 -125z" />
    <glyph glyph-name="afii61352" unicode="&#x2116;" horiz-adv-x="1030" 
d="M207 441l-60 -441h-111l94 671h21l329 -442h4l62 431h111l-94 -668h-21l-331 449h-4zM877 674q67 0 104.5 -36t37.5 -96q0 -76 -51 -127q-50 -51 -131 -51q-68 0 -106 35t-38 96q0 75 51 127t133 52zM872 607q-42 0 -69 -31t-27 -77q0 -33 17.5 -52t49.5 -19
q41 0 69 31.5t28 76.5q0 33 -18 52t-50 19zM985 314l-9 -67h-312q10 66 10 67h311z" />
    <glyph glyph-name="published" unicode="&#x2117;" horiz-adv-x="841" 
d="M663 412q0 -67 -47 -111q-46 -43 -118 -43h-89v-143h-85q2 320 2 450h169q81 0 124 -45q44 -46 44 -108zM580 410q0 40 -26 66.5t-72 26.5h-73v-187h53q118 0 118 94zM455 -24q-165 0 -266 105q-99 105 -99 270q0 162 106 267q106 106 259 106q152 0 257 -106
q106 -105 106 -267t-106 -268q-107 -107 -257 -107zM152 351q0 -137 81 -227q83 -89 215 -89q129 0 217 91q90 92 90 225q0 132 -87 222q-85 91 -213 91q-127 0 -215 -91t-88 -222z" />
    <glyph glyph-name="trademark" unicode="&#x2122;" horiz-adv-x="773" 
d="M413 674l165 -191l163 191h12v-368h-70v199h-4l-95 -111h-11l-97 109h-2v-197h-74v368h13zM370 619h-103v-313h-71v313h-104v55h278v-55z" />
    <glyph glyph-name="Ohm" unicode="&#x2126;" horiz-adv-x="770" 
d="M433 576q-119 0 -195 -93q-75 -91 -75 -221q0 -78 31 -147q32 -69 89 -100q0 -1 -2 -15h-277q4 37 13 90h103v2l1 2q-66 75 -66 186q0 165 114 279t277 114q132 0 212 -81q80 -80 80 -204q0 -82 -35 -159.5t-99 -134.5q1 -2 1 -4h103l-12 -90h-277q0 1 0.5 7t0.5 8
q63 28 113 93q94 123 94 259q0 88 -51 148q-51 61 -143 61z" />
    <glyph glyph-name="angstrom" unicode="&#x212b;" horiz-adv-x="628" 
d="M402 861q40 0 65.5 -25.5t25.5 -64.5q0 -44 -31 -78q-32 -34 -75 -38l194 -655h-108l-33 128h-279l-71 -128h-113l381 655q-35 4 -54.5 27t-19.5 57q0 49 35 86q35 36 83 36zM350 465h-4l-145 -260h220zM394 808q-22 0 -38.5 -18.5t-16.5 -41.5q0 -18 11 -29.5t30 -11.5
q24 0 40 16.5t16 40.5q0 19 -11 31.5t-31 12.5z" />
    <glyph glyph-name="estimated" unicode="&#x212e;" horiz-adv-x="817" 
d="M790 316h-565v-185q34 -50 93 -83q61 -32 124 -32t122 30t101 81h57q-55 -65 -128.5 -101.5t-152.5 -36.5q-144 0 -247 100t-103 240q0 137 102 234q103 97 248 97q147 0 247 -99q100 -97 102 -245zM225 340h429v185q-28 48 -90 78q-59 31 -122 31q-54 0 -111.5 -30.5
t-105.5 -82.5v-181z" />
    <glyph glyph-name="onethird" unicode="&#x2153;" horiz-adv-x="777" 
d="M498 197l-6 10l118 119h-155l9 60h269l-1 -12l-133 -135q47 -4 73.5 -30.5t26.5 -69.5q0 -65 -50 -106q-49 -40 -119 -40q-83 0 -131 33l11 74q52 -47 117 -47q42 0 69 25t27 60q0 29 -22.5 46t-58.5 17q-27 0 -44 -4zM261 692h13l-56 -394h-78l41 289q-2 -1 -52 -25
l-49 -22l10 70zM589 683h69l-575 -707h-68z" />
    <glyph glyph-name="twothirds" unicode="&#x2154;" horiz-adv-x="777" 
d="M530 197l-6 10l118 119h-155l9 60h269l-1 -12l-133 -135q47 -4 73.5 -30.5t26.5 -69.5q0 -65 -50 -106q-49 -40 -119 -40q-83 0 -131 33l11 74q52 -47 117 -47q42 0 69 25t27 60q0 29 -22.5 46t-58.5 17q-27 0 -44 -4zM208 693q59 0 90.5 -27t31.5 -74q0 -56 -49 -118
q-51 -65 -118 -116h142l-9 -60h-299l1 13q253 154 253 262q0 56 -61 56q-54 0 -127 -48l12 71q68 41 133 41zM636 683h69l-575 -707h-68z" />
    <glyph glyph-name="onefifth" unicode="&#x2155;" horiz-adv-x="777" 
d="M569 251q56 0 90.5 -29t34.5 -81q0 -65 -51 -106q-50 -40 -122 -40q-76 0 -123 32l11 75q45 -47 112 -47q42 0 70.5 23.5t28.5 58.5q0 27 -22 42t-57 15q-53 0 -94 -22q-1 0 -11 5l53 208h221l-7 -59h-161l-21 -81q18 6 48 6zM255 692h13l-56 -394h-78l41 289
q-2 -1 -52 -25l-49 -22l10 70zM594 683h69l-575 -707h-68z" />
    <glyph glyph-name="twofifths" unicode="&#x2156;" horiz-adv-x="777" 
d="M601 251q56 0 90.5 -29t34.5 -81q0 -65 -51 -106q-50 -40 -122 -40q-76 0 -123 32l11 75q45 -47 112 -47q42 0 70.5 23.5t28.5 58.5q0 27 -22 42t-57 15q-53 0 -94 -22q-1 0 -11 5l53 208h221l-7 -59h-161l-21 -81q18 6 48 6zM226 693q59 0 90.5 -27t31.5 -74
q0 -56 -49 -118q-51 -65 -118 -116h142l-9 -60h-299l1 13q253 154 253 262q0 56 -61 56q-54 0 -127 -48l12 71q68 41 133 41zM660 683h69l-575 -707h-68z" />
    <glyph glyph-name="threefifths" unicode="&#x2157;" horiz-adv-x="777" 
d="M591 251q56 0 90.5 -29t34.5 -81q0 -65 -51 -106q-50 -40 -122 -40q-76 0 -123 32l11 75q45 -47 112 -47q42 0 70.5 23.5t28.5 58.5q0 27 -22 42t-57 15q-53 0 -94 -22q-1 0 -11 5l53 208h221l-7 -59h-161l-21 -81q18 6 48 6zM134 497l-6 10l118 119h-155l9 60h269
l-1 -12l-133 -135q47 -4 73.5 -30.5t26.5 -69.5q0 -65 -50 -106q-49 -40 -119 -40q-84 0 -130 33l10 74q52 -47 117 -47q42 0 69 25t27 60q0 29 -22.5 46t-58.5 17q-27 0 -44 -4zM634 683h69l-575 -707h-68z" />
    <glyph glyph-name="fourfifths" unicode="&#x2158;" horiz-adv-x="777" 
d="M16 400l220 285h81l-188 -242h94l7 37l63 86h23l-18 -123h49l-8 -59h-49l-12 -85h-74l12 85h-202zM600 251q56 0 90.5 -29t34.5 -81q0 -65 -51 -106q-50 -40 -122 -40q-76 0 -123 32l11 75q45 -47 112 -47q42 0 70.5 23.5t28.5 58.5q0 27 -22 42t-57 15q-53 0 -94 -22
q-1 0 -11 5l53 208h221l-7 -59h-161l-21 -81q18 6 48 6zM642 683h69l-575 -707h-68z" />
    <glyph glyph-name="onesixth" unicode="&#x2159;" horiz-adv-x="777" 
d="M563 248q56 0 88.5 -29.5t32.5 -77.5q0 -64 -50 -106q-50 -41 -121 -41q-63 0 -98 28t-35 79q0 53 49 121q56 76 127 163h87l-113 -140q10 3 33 3zM540 190q-33 0 -57 -23.5t-24 -54.5q0 -25 16.5 -40t45.5 -15q36 0 60 21t24 54q0 24 -18 41t-47 17zM269 692h13
l-56 -394h-78l41 289q-2 -1 -52 -25l-49 -22l10 70zM614 683h69l-575 -707h-68z" />
    <glyph glyph-name="fivesixths" unicode="&#x215a;" horiz-adv-x="777" 
d="M586 248q56 0 88.5 -29.5t32.5 -77.5q0 -64 -50 -106q-50 -41 -121 -41q-63 0 -98 28t-35 79q0 53 49 121q56 76 127 163h87l-113 -140q11 3 33 3zM563 190q-33 0 -57 -23.5t-24 -54.5q0 -25 16.5 -40t45.5 -15q36 0 60 21t24 54q0 24 -18 41t-47 17zM208 551
q56 0 90.5 -29t34.5 -81q0 -65 -51 -107q-52 -41 -122 -41q-74 0 -123 34l11 75q45 -47 112 -47q42 0 70.5 23.5t28.5 58.5q0 27 -22 42t-57 15q-53 0 -94 -22q-1 0 -11 5l53 208h221l-7 -59h-161l-21 -81q18 6 48 6zM642 683h69l-575 -707h-68z" />
    <glyph glyph-name="oneeighth" unicode="&#x215b;" horiz-adv-x="777" 
d="M562 329q-26 0 -44.5 -17.5t-18.5 -40.5q0 -19 13.5 -31.5t36.5 -12.5q26 0 43.5 16.5t17.5 40.5q0 19 -13.5 32t-34.5 13zM543 177q-33 0 -55.5 -20t-22.5 -50q0 -22 16.5 -36t43.5 -14q32 0 53.5 20t21.5 48q0 24 -16 38t-41 14zM572 392q51 0 82.5 -26.5t31.5 -69.5
q0 -26 -14.5 -52t-40.5 -41q47 -26 47 -78q0 -57 -47 -95q-46 -37 -114 -37q-62 0 -97 27t-35 73q0 31 18 61.5t50 48.5q-30 24 -30 66q0 53 45 88q46 35 104 35zM256 692h13l-56 -394h-78l41 289q-2 -1 -52 -25l-49 -22l10 70zM589 683h69l-575 -707h-68z" />
    <glyph glyph-name="threeeighths" unicode="&#x215c;" horiz-adv-x="777" 
d="M580 329q-26 0 -44.5 -17.5t-18.5 -40.5q0 -19 13.5 -31.5t36.5 -12.5q26 0 43.5 16.5t17.5 40.5q0 19 -13.5 32t-34.5 13zM561 177q-33 0 -55.5 -20t-22.5 -50q0 -22 16.5 -36t43.5 -14q32 0 53.5 20t21.5 48q0 24 -16 38t-41 14zM590 392q51 0 82.5 -26.5t31.5 -69.5
q0 -26 -14.5 -52t-40.5 -41q47 -26 47 -78q0 -57 -47 -95q-46 -37 -114 -37q-62 0 -97 27t-35 73q0 31 18 61.5t50 48.5q-30 24 -30 66q0 53 45 88q46 35 104 35zM131 497l-6 10l118 119h-155l9 60h269l-1 -12l-133 -135q47 -4 73.5 -30.5t26.5 -69.5q0 -65 -50 -106
q-49 -40 -119 -40q-83 0 -130 33l10 74q52 -47 117 -47q42 0 69 25t27 60q0 29 -22.5 46t-58.5 17q-27 0 -44 -4zM620 683h69l-575 -707h-68z" />
    <glyph glyph-name="fiveeighths" unicode="&#x215d;" horiz-adv-x="777" 
d="M590 329q-26 0 -44.5 -17.5t-18.5 -40.5q0 -19 13.5 -31.5t36.5 -12.5q26 0 43.5 16.5t17.5 40.5q0 19 -13.5 32t-34.5 13zM571 177q-33 0 -55.5 -20t-22.5 -50q0 -22 16.5 -36t43.5 -14q32 0 53.5 20t21.5 48q0 24 -16 38t-41 14zM600 392q51 0 82.5 -26.5t31.5 -69.5
q0 -26 -14.5 -52t-40.5 -41q47 -26 47 -78q0 -57 -47 -95q-46 -37 -114 -37q-62 0 -97 27t-35 73q0 31 18 61.5t50 48.5q-30 24 -30 66q0 53 45 88q46 35 104 35zM202 551q56 0 90.5 -29t34.5 -81q0 -65 -51 -107q-52 -41 -122 -41q-74 0 -123 34l11 75q45 -47 112 -47
q42 0 70.5 23.5t28.5 58.5q0 27 -22 42t-57 15q-53 0 -94 -22q-1 0 -11 5l53 208h221l-7 -59h-161l-21 -81q18 6 48 6zM627 683h69l-575 -707h-68z" />
    <glyph glyph-name="seveneighths" unicode="&#x215e;" horiz-adv-x="777" 
d="M569 329q-26 0 -44.5 -17.5t-18.5 -40.5q0 -19 13.5 -31.5t36.5 -12.5q26 0 43.5 16.5t17.5 40.5q0 19 -13.5 32t-34.5 13zM550 177q-33 0 -55.5 -20t-22.5 -50q0 -22 16.5 -36t43.5 -14q32 0 53.5 20t21.5 48q0 24 -16 38t-41 14zM579 392q51 0 82.5 -26.5t31.5 -69.5
q0 -26 -14.5 -52t-40.5 -41q47 -26 47 -78q0 -57 -47 -95q-46 -37 -114 -37q-62 0 -97 27t-35 73q0 31 18 61.5t50 48.5q-30 24 -30 66q0 53 45 88q46 35 104 35zM377 673l-230 -375h-80l201 327h-187l7 30q6 25 6 30h285q-2 -10 -2 -12zM583 683h69l-575 -707h-68z" />
    <glyph glyph-name="uni215F" unicode="&#x215f;" horiz-adv-x="434" 
d="M265 692h13l-56 -394h-78l41 289q-2 -1 -52 -25l-49 -22l10 70zM601 683h69l-575 -707h-68z" />
    <glyph glyph-name="partialdiff" unicode="&#x2202;" horiz-adv-x="575" 
d="M236 -11q-80 0 -127 46.5t-47 131.5q0 117 69 191q69 75 166 75q83 0 132 -52q3 19 3 58q0 96 -42 151t-115 55q-22 0 -61 -6l24 72q26 6 63 6q112 0 166 -78q55 -77 55 -206q0 -203 -86 -324q-86 -120 -200 -120zM248 66q66 0 112 67q46 66 61 158q-54 70 -131 70
q-65 0 -104 -56q-38 -56 -38 -127q0 -55 27 -83.5t73 -28.5z" />
    <glyph glyph-name="gradient" unicode="&#x2207;" horiz-adv-x="649" 
d="M72 660h622l-395 -668h-20zM534 570h-335l113 -393z" />
    <glyph glyph-name="product" unicode="&#x220f;" horiz-adv-x="625" 
d="M616 660l-108 -768h-111l95 677h-271l-96 -677h-112l109 768h494z" />
    <glyph glyph-name="summation" unicode="&#x2211;" horiz-adv-x="579" 
d="M261 569l103 -272l-199 -312h350q-4 -19 -15 -92h-517l3 13l250 389l-137 351l3 14h490q-1 -6 -3.5 -22.5t-5 -33.5t-4.5 -35h-318z" />
    <glyph glyph-name="minus" unicode="&#x2212;" horiz-adv-x="546" 
d="M478 328l-10 -67h-388l10 67h388z" />
    <glyph glyph-name="radical" unicode="&#x221a;" horiz-adv-x="535" 
d="M38 329l131 59l57 -246h1q1 1 2 1q60 140 134 302q95 208 138 310h80l-365 -792h-19l-88 326l-57 -25z" />
    <glyph glyph-name="infinity" unicode="&#x221e;" horiz-adv-x="743" 
d="M231 437q81 0 158 -99q57 52 100 75.5t91 23.5q61 0 97.5 -35.5t36.5 -93.5q0 -77 -55 -132q-55 -54 -131 -54t-156 98q-56 -51 -98.5 -74.5t-90.5 -23.5q-58 0 -95.5 37.5t-37.5 94.5q0 73 53 128q52 55 128 55zM220 366q-35 0 -62 -32q-26 -32 -26 -69
q0 -31 18.5 -51.5t47.5 -20.5q52 0 136 84q-18 26 -33 43q-15 18 -37.5 32t-43.5 14zM566 366q-48 0 -136 -87q46 -59 64 -72q22 -14 46 -14q36 0 63 32q27 31 27 71q0 32 -18 51t-46 19z" />
    <glyph glyph-name="logicaland" unicode="&#x2227;" horiz-adv-x="546" 
d="M308 472l165 -472h-93l-104 316l-183 -316h-92l287 472h20z" />
    <glyph glyph-name="logicalor" unicode="&#x2228;" horiz-adv-x="546" 
d="M253 153l193 317h93l-298 -471h-19q-29 92 -76 228q-62 186 -79 243h92q7 -27 46 -154q33 -108 48 -163z" />
    <glyph glyph-name="intersection" unicode="&#x2229;" horiz-adv-x="546" 
d="M125 119l-16 -119h-86l14 103l14 103q10 120 74 194q63 74 177 74q87 0 136.5 -48.5t49.5 -131.5q0 -26 -8 -92l-28 -202h-88l36 257q0 3 0.5 12t0.5 12q0 50 -29.5 81t-82.5 31q-62 0 -98.5 -37t-45.5 -103l-3 -15q-9 -59 -17 -119z" />
    <glyph glyph-name="union" unicode="&#x222a;" horiz-adv-x="546" 
d="M88 469h86l-36 -262q-2 -10 -2 -24q0 -48 28.5 -76.5t81.5 -28.5q62 0 100.5 37.5t47.5 97.5q2 9 8 56l27 200h88l-28 -202l-10 -63q-21 -97 -84.5 -151.5t-159.5 -54.5q-86 0 -136 47t-50 126q0 21 3 43q10 88 36 255z" />
    <glyph glyph-name="integral" unicode="&#x222b;" horiz-adv-x="342" 
d="M112 15q13 94 22 267q11 175 19 248q12 104 53 154t120 50q36 0 71 -12q0 -8 -0.5 -35t-0.5 -35q-35 7 -66 7q-82 0 -92 -102q-7 -59 -13 -173l-9 -152q-8 -134 -19 -221q-9 -75 -53 -119.5t-110 -44.5q-33 0 -75 13l2 75q42 -13 71 -13q70 0 80 93z" />
    <glyph glyph-name="approxequal" unicode="&#x2248;" horiz-adv-x="546" 
d="M350 162q-32 0 -86 24q-51 25 -72 25q-41 0 -77 -57l-38 44q47 81 117 81q32 0 83 -25t73 -25q50 0 81 61l37 -44q-45 -84 -118 -84zM364 319q-32 0 -87 24q-54 25 -74 25q-39 0 -74 -54l-36 46q43 76 115 76q32 0 83 -25t73 -25q43 0 80 58l19 -25l18 -20
q-44 -80 -117 -80z" />
    <glyph glyph-name="notequal" unicode="&#x2260;" horiz-adv-x="546" 
d="M471 260l-10 -66h-246l-86 -86h-64l88 86h-85l9 66h142l66 66h-199l10 67h257l79 78h62l-80 -78h76l-10 -67h-133l-66 -66h190z" />
    <glyph glyph-name="lessequal" unicode="&#x2264;" horiz-adv-x="546" 
d="M481 193l-11 -77l-407 186l2 14l458 183q-3 -30 -5 -42q-2 -10 -3.5 -22t-1.5 -13l-143 -55l-148 -57zM456 17h-434l9 66h434z" />
    <glyph glyph-name="greaterequal" unicode="&#x2265;" horiz-adv-x="546" 
d="M31 83h434l-9 -66h-434zM498 316l-2 -14l-460 -186l11 77l292 117l-260 112l10 77z" />
    <glyph glyph-name="lozenge" unicode="&#x25ca;" horiz-adv-x="543" 
d="M317 0h-28l-208 339l208 332h28l207 -332zM304 568l-140 -229l140 -240l136 240z" />
    <glyph glyph-name="zero.text" unicode="&#xe000;" horiz-adv-x="546" 
d="M327 671q58 0 100 -21t64.5 -58t32.5 -79.5t10 -93.5q-5 -155 -57 -264q-85 -166 -241 -166q-205 0 -205 244q0 108 34 213q22 65 52 111q32 50 88 82t122 32zM318 585q-44 0 -80 -29t-56 -73q-18 -41 -30 -95q-17 -80 -17 -152q0 -161 112 -161q44 0 79.5 28t54.5 70
q19 39 31 93q19 82 19 157q0 162 -113 162z" />
    <glyph glyph-name="one.text" unicode="&#xe001;" horiz-adv-x="418" 
d="M332 667h16l-93 -667h-105l72 516l-165 -88l15 101z" />
    <glyph glyph-name="two.text" unicode="&#xe002;" horiz-adv-x="538" 
d="M280 672q85 0 133 -45t48 -119q0 -114 -104 -239q-90 -109 -191 -188h252l-11 -81h-443l2 15q389 269 389 464q0 52 -27.5 78t-74.5 26q-85 0 -183 -69l13 93q92 65 197 65z" />
    <glyph glyph-name="three.text" unicode="&#xe003;" horiz-adv-x="542" 
d="M153 344q-1 2 -5 7t-5 6l203 219v4h-266l11 79h422q-2 -14 -2 -16l-219 -235q75 -7 118 -50.5t43 -110.5q0 -113 -80 -185q-80 -71 -197 -71t-191 53l13 99q68 -69 177 -69q78 0 128 47q50 48 50 118q0 55 -37 84t-100 29q-23 0 -63 -8z" />
    <glyph glyph-name="four.text" unicode="&#xe004;" horiz-adv-x="546" 
d="M348 364l69 93h44l-30 -220h76l-11 -79h-77l-21 -158h-102l23 158h-341l2 15l370 487h114q-21 -25 -168 -214q-139 -179 -164 -209h198z" />
    <glyph glyph-name="five.text" unicode="&#xe005;" horiz-adv-x="546" 
d="M281 420q86 0 141 -46q57 -45 57 -131q0 -112 -83 -183q-82 -69 -196 -69q-112 0 -191 53q0 5 1.5 12t3 18.5t2.5 19.5t2.5 19.5t3 18.5t1.5 12q28 -31 76 -51t100 -20q79 0 129 48q49 49 49 122q0 49 -41 78q-40 28 -95 28q-77 0 -154 -39q-11 3 -16 7l92 343h349
l-10 -79h-272l-26 -95l-22 -82q42 16 99 16z" />
    <glyph glyph-name="six.text" unicode="&#xe006;" horiz-adv-x="546" 
d="M119 402l190 258h112l-201 -267l4 -2q32 23 87 23q84 0 134.5 -48t50.5 -126q0 -109 -77 -180t-189 -71q-96 0 -152.5 48.5t-56.5 132.5q0 99 98 232zM281 339q-64 0 -110 -43q-46 -42 -46 -110q0 -51 31 -81.5t87 -30.5q67 0 109 44q43 44 43 111q0 49 -30.5 79.5
t-83.5 30.5z" />
    <glyph glyph-name="seven.text" unicode="&#xe007;" horiz-adv-x="465" 
d="M496 643l-371 -643h-104l334 580h-301l7 40q7 32 7 39h431z" />
    <glyph glyph-name="eight.text" unicode="&#xe008;" horiz-adv-x="546" 
d="M320 587q-52 0 -90 -35q-37 -34 -37 -85q0 -39 27 -63t72 -24q53 0 88 34q37 34 37 85q0 39 -26.5 63.5t-70.5 24.5zM281 316q-64 0 -108 -41q-43 -40 -43 -98q0 -47 31.5 -75.5t86.5 -28.5q66 0 107 42q42 42 42 101q0 46 -31 73t-85 27zM332 672q81 0 131 -43
q52 -42 52 -112q0 -51 -28.5 -96t-75.5 -65l-1 -4q86 -41 86 -136q0 -100 -75 -163t-185 -63q-98 0 -154 44t-56 119q0 63 35.5 116t95.5 77l2 4q-65 36 -65 114q0 91 70 149q71 59 168 59z" />
    <glyph glyph-name="nine.text" unicode="&#xe009;" horiz-adv-x="546" 
d="M321 671q95 0 150.5 -48t55.5 -132q0 -102 -92 -226l-194 -265h-112l201 268l-2 4q-32 -24 -88 -24q-84 0 -134 47.5t-50 126.5q0 108 76 178q77 71 189 71zM309 586q-67 0 -110 -45q-43 -43 -43 -109q0 -49 31 -79t84 -30q64 0 109 42q45 43 45 111q0 50 -31 80t-85 30z
" />
    <glyph glyph-name="numbersign.text" unicode="&#xe00a;" horiz-adv-x="526" 
d="M385 455l62 172h62q-23 -59 -61 -172h81l-8 -55h-93l-52 -143h89l-9 -55h-99l-71 -202h-63q62 173 72 202h-128l-71 -202h-63q14 43 34 95q10 27 23 64.5t15 42.5h-79l8 55h91q30 83 51 143h-88l8 55h99q10 26 32 87l31 85h61l-61 -172h127zM366 400h-128l-51 -143h128z
" />
    <glyph glyph-name="dollar.text" unicode="&#xe00b;" horiz-adv-x="531" 
d="M244 -102h-65l13 99q-105 6 -167 52l13 96q40 -32 92 -50q56 -17 95 -17q64 0 101 32t37 85q0 60 -95 108q-33 16 -48 24t-44 27t-43 35t-25.5 40.5t-11.5 52.5q0 76 51.5 123t138.5 56l14 104h66l-15 -103q79 -8 135 -38l-13 -92q-71 52 -157 52q-54 0 -87.5 -25
t-33.5 -74q0 -44 96 -95q35 -17 61 -32.5t55 -39.5t44.5 -56t15.5 -69q0 -81 -58 -135q-57 -53 -151 -60z" />
    <glyph glyph-name="euro.text" unicode="&#xe00c;" horiz-adv-x="546" 
d="M32 265l6 46h406l-6 -46h-256q0 -2 -0.5 -8t-0.5 -7q0 -78 45.5 -122.5t126.5 -44.5q60 0 138 32q-11 -64 -16 -95q-63 -26 -143 -26q-118 0 -186.5 68.5t-68.5 188.5q0 2 0.5 7t0.5 7h-46zM451 360h-406l6 46h50q31 122 118 192q85 70 203 70q75 0 126 -19l-6 -94
q-54 20 -116 20q-77 0 -135.5 -45t-82.5 -124h250q-2 -8 -7 -46z" />
    <glyph glyph-name="florin.text" unicode="&#xe00d;" horiz-adv-x="478" 
d="M178 328h-79l5 73h87l16 82q17 97 60.5 143t116.5 46q43 0 85 -14l-4 -88q-35 12 -62 12q-40 0 -63 -25t-33 -80l-13 -76h99l-5 -73h-106l-31 -168q-25 -138 -70 -197q-43 -58 -122 -58q-43 0 -90 18l5 93q39 -16 70 -16q45 0 67 40q21 37 44 160z" />
    <glyph glyph-name="sterling.text" unicode="&#xe00e;" horiz-adv-x="546" 
d="M515 554q-57 25 -96 25q-125 0 -141 -132l-10 -78h160q-6 -52 -10 -66h-163q-26 -153 -85 -223h286q-1 -29 -11 -80h-422q0 2 0.5 7t0.5 6q99 101 129 290h-70l9 66h72l6 41l6 40q23 121 95 172q64 44 139 44q67 0 118 -22q-7 -42 -13 -90z" />
    <glyph glyph-name="cent.text" unicode="&#xe00f;" horiz-adv-x="500" 
d="M287 4h-66l15 105q-74 12 -115 65t-41 132q0 108 62 179q63 72 159 87l16 111h65l-15 -108q53 -3 91 -19q-5 -33 -13 -89q-37 24 -96 24q-76 0 -120.5 -50t-44.5 -136q0 -51 32.5 -82t88.5 -31q69 0 122 32l-6 -43l-6 -43q-43 -22 -113 -30z" />
    <glyph glyph-name="yen.text" unicode="&#xe010;" horiz-adv-x="546" 
d="M41 175l7 46h445l-8 -46h-170l-24 -175h-110l23 175h-163zM506 317l-7 -47h-444l7 47h144l-125 344h114l88 -303h4l176 303h116l-224 -344h151z" />
    <glyph glyph-name="zero.taboldstyle" unicode="&#xe024;" horiz-adv-x="526" 
d="M292 458q97 0 152 -55q57 -56 57 -142q0 -112 -80 -192q-79 -79 -194 -79q-99 0 -155 53t-56 141q0 113 80 193q81 81 196 81zM281 373q-67 0 -114 -53q-45 -52 -45 -124q0 -56 31 -88.5t86 -32.5q70 0 115 51q45 52 45 125q0 55 -32 88.5t-86 33.5z" />
    <glyph glyph-name="one.taboldstyle" unicode="&#xe025;" horiz-adv-x="526" 
d="M447 0h-412l13 79h159l36 247l-156 -59l13 89l250 100h15l-54 -377h147z" />
    <glyph glyph-name="two.taboldstyle" unicode="&#xe026;" horiz-adv-x="526" 
d="M266 83q0 -1 -0.5 -3l-0.5 -2h190q-9 -66 -11 -78h-450q0 2 0.5 8t0.5 8q105 46 225 122q140 92 140 173q0 30 -26.5 47t-71.5 17q-90 0 -185 -48l14 84q104 53 199 53q87 0 132.5 -34t45.5 -90q0 -68 -60 -139q-60 -70 -142 -118z" />
    <glyph glyph-name="three.taboldstyle" unicode="&#xe027;" horiz-adv-x="526" 
d="M124 152l-8 15l189 196h-241l13 81h391l-2 -16l-206 -215q71 -7 112 -49t41 -110q0 -101 -75 -164q-74 -64 -182 -64q-107 0 -175 52l11 94q67 -65 164 -65q68 0 114 44q45 44 45 106q0 48 -35 76t-92 28q-31 0 -64 -9z" />
    <glyph glyph-name="four.taboldstyle" unicode="&#xe028;" horiz-adv-x="526" 
d="M-27 13l338 431h103l-298 -368h174l11 87l98 120h19q-11 -84 -14 -104l-15 -103h81l-10 -76h-82l-24 -170h-98l24 170h-308q0 2 0.5 7t0.5 6z" />
    <glyph glyph-name="five.taboldstyle" unicode="&#xe029;" horiz-adv-x="526" 
d="M253 228q83 0 135 -44t52 -121q0 -108 -77 -173t-184 -65q-100 0 -179 52l14 97q26 -30 71 -48t95 -18q68 0 114 42q47 41 47 102q0 45 -35.5 75t-89.5 30q-71 0 -139 -37l-16 7l84 317h320l-12 -81h-248q-4 -19 -12 -47q-4 -15 -14 -53t-13 -50q40 15 87 15z" />
    <glyph glyph-name="six.taboldstyle" unicode="&#xe02a;" horiz-adv-x="526" 
d="M301 384q79 0 127 -45.5t48 -117.5q0 -100 -74 -165t-182 -65q-89 0 -139.5 44t-50.5 119q0 42 18 89q20 47 36 72q20 31 48 67l9 12l155 213h110l-174 -232q0 -2 1 -3q25 12 68 12zM267 312q-57 0 -96 -43q-38 -43 -38 -99q0 -45 26.5 -72t73.5 -27q59 0 101 39
q43 39 43 98q0 45 -31 74.5t-79 29.5z" />
    <glyph glyph-name="seven.taboldstyle" unicode="&#xe02b;" horiz-adv-x="526" 
d="M489 426l-344 -594h-107l307 531h-289l15 81h420z" />
    <glyph glyph-name="eight.taboldstyle" unicode="&#xe02c;" horiz-adv-x="526" 
d="M269 287q-52 0 -92 -37q-39 -36 -39 -90q0 -40 27 -65.5t74 -25.5q55 0 91 38q37 37 37 87q0 42 -27.5 67.5t-70.5 25.5zM315 618q75 0 120.5 -40.5t45.5 -105.5q0 -41 -25 -84t-65 -69q75 -37 75 -124q0 -90 -69 -148q-69 -57 -170 -57q-89 0 -140 40t-51 111
q0 53 32 103q32 52 84 74q-53 35 -53 109q0 82 64 136q64 55 152 55zM303 534q-44 0 -78 -31q-33 -30 -33 -74q0 -34 24 -56t62 -22q45 0 76.5 31t31.5 73q0 35 -23.5 57t-59.5 22z" />
    <glyph glyph-name="nine.taboldstyle" unicode="&#xe02d;" horiz-adv-x="526" 
d="M295 456q89 0 139.5 -44t50.5 -119q0 -50 -18 -93.5t-57 -98.5l-196 -269h-109l179 240q0 2 -1 3q-27 -13 -68 -13q-80 0 -127 45t-47 118q0 101 73 165q74 66 181 66zM249 135q57 0 95 42q39 42 39 99q0 46 -26 72.5t-74 26.5q-59 0 -101 -39q-42 -38 -42 -99
q0 -46 30 -74t79 -28z" />
    <glyph glyph-name="numbersign.taboldstyle" unicode="&#xe02e;" horiz-adv-x="526" 
d="M364 370l48 129h60q-8 -24 -48 -129h70q-8 -58 -9 -59h-80l-38 -100h75l-7 -57h-88l-55 -154h-61q21 53 56 154h-94l-57 -154h-61l55 154h-62l8 57h74q32 83 38 100h-71q7 36 8 59h83l48 129h62l-24 -64l-25 -65h95zM343 311h-95l-36 -100h93q32 83 38 100z" />
    <glyph glyph-name="dollar.taboldstyle" unicode="&#xe02f;" horiz-adv-x="526" 
d="M248 -99h-64l13 93q-92 8 -149 45l12 89q70 -58 163 -58q55 0 88 22.5t33 65.5q0 52 -84 90q-3 2 -22 11t-24.5 12l-22 12t-22.5 14t-19 15t-18 18t-12 19t-9.5 23t-2.5 25q0 63 47 105.5t122 51.5l13 92h62l-13 -91q61 -4 123 -34l-12 -84q-58 41 -136 41
q-46 0 -74.5 -18t-28.5 -56q0 -24 36.5 -47t81 -41.5t81 -56t36.5 -87.5q0 -70 -50.5 -118.5t-134.5 -57.5z" />
    <glyph glyph-name="euro.taboldstyle" unicode="&#xe030;" horiz-adv-x="526" 
d="M422 346l-6 -47h-367l7 47h44q30 100 108 154.5t184 54.5q61 0 109 -16l-8 -85q-47 16 -101 16q-138 0 -186 -124h216zM36 210l8 46h365l-6 -46h-222q0 -66 41.5 -102t110.5 -36q62 0 121 25l-12 -85q-69 -23 -132 -23q-106 0 -170 58q-63 59 -62 163h-42z" />
    <glyph glyph-name="florin.taboldstyle" unicode="&#xe031;" horiz-adv-x="526" 
d="M217 267h-75l6 68h82l12 70q32 171 171 171q39 0 82 -13l-3 -78q-37 8 -60 8q-77 0 -90 -91q-9 -39 -12 -67h95l-6 -68h-102l-28 -148q-24 -121 -63 -174q-39 -52 -115 -52q-38 0 -86 18l4 81q39 -14 67 -14q40 0 58 35q17 33 40 143z" />
    <glyph glyph-name="sterling.taboldstyle" unicode="&#xe032;" horiz-adv-x="526" 
d="M469 458q-45 19 -102 19q-45 0 -75.5 -27t-38.5 -80l-8 -61h142l-9 -62h-144q-19 -120 -63 -167h249l-11 -80h-386l2 13q43 31 72 99t39 135h-63l10 62h63l11 64q10 67 46.5 109.5t77 57t87.5 14.5q62 0 109 -18q-7 -57 -8 -78z" />
    <glyph glyph-name="cent.taboldstyle" unicode="&#xe033;" horiz-adv-x="526" 
d="M279 -33h-64l14 94q-67 8 -103.5 50.5t-36.5 108.5q0 90 54 153q53 62 140 73l13 94h63l-13 -92q42 -2 73 -15l-10 -84q-34 22 -86 22q-53 0 -94 -39q-40 -37 -40 -100q0 -43 26.5 -69t73.5 -26q56 0 108 31l-10 -82q-30 -15 -95 -26z" />
    <glyph glyph-name="yen.taboldstyle" unicode="&#xe034;" horiz-adv-x="526" 
d="M476 290l-7 -47h-413q0 3 3 23l5 24h123l-108 254h113l45 -130q38 -108 39 -109q21 34 68 118q38 66 71 121h112l-172 -254h121zM51 199h412q-5 -45 -6 -46h-149q-17 -124 -22 -153h-106l22 153h-157q2 5 6 46z" />
    <glyph glyph-name="zero.textoldstyle" unicode="&#xe048;" horiz-adv-x="526" 
d="M292 457q96 0 152 -56q57 -55 57 -141q0 -112 -80 -192q-79 -78 -194 -78q-99 0 -155 53t-56 141q0 113 80 193q82 80 196 80zM281 373q-67 0 -114 -53q-45 -52 -45 -125q0 -55 30.5 -87.5t86.5 -32.5q70 0 115 51t45 123q0 55 -32 89.5t-86 34.5z" />
    <glyph glyph-name="one.textoldstyle" unicode="&#xe049;" horiz-adv-x="475" 
d="M428 0h-412l13 79h159l36 247l-156 -59l13 89l250 100h15l-54 -377h147z" />
    <glyph glyph-name="two.textoldstyle" unicode="&#xe04a;" horiz-adv-x="526" 
d="M246 83q0 -1 -0.5 -3l-0.5 -2h190q-9 -66 -11 -78h-450q0 2 0.5 8t0.5 8q105 46 225 122q140 92 140 173q0 30 -26.5 47t-71.5 17q-90 0 -185 -48l14 84q104 53 199 53q87 0 132.5 -34t45.5 -90q0 -68 -60 -139q-60 -70 -142 -118z" />
    <glyph glyph-name="three.textoldstyle" unicode="&#xe04b;" horiz-adv-x="474" 
d="M105 152q-1 5 -8 15l189 196h-238l10 81h391l-2 -16l-206 -215q72 -7 113 -49t41 -110q0 -101 -76 -164q-74 -64 -182 -64q-107 0 -174 52l11 94q65 -65 164 -65q70 0 114 44q45 44 45 106q0 48 -35.5 76t-91.5 28q-30 0 -65 -9z" />
    <glyph glyph-name="four.textoldstyle" unicode="&#xe04c;" horiz-adv-x="526" 
d="M-27 13l338 431h103l-298 -368h174l11 87l98 120h19q-11 -84 -14 -104l-15 -103h81l-10 -76h-82l-24 -170h-98l24 170h-308q0 2 0.5 7t0.5 6z" />
    <glyph glyph-name="five.textoldstyle" unicode="&#xe04d;" horiz-adv-x="504" 
d="M240 228q83 0 135 -44t52 -121q0 -109 -78 -173q-77 -65 -184 -65q-106 0 -177 52l13 97q24 -30 68 -48t94 -18q71 0 118 41t47 103q0 46 -34.5 75.5t-90.5 29.5q-73 0 -140 -37q-3 1 -6.5 2.5t-5.5 3t-4 1.5l84 317h320q-3 -30 -5 -40l-6 -41h-248l-39 -150q41 15 87 15
z" />
    <glyph glyph-name="six.textoldstyle" unicode="&#xe04e;" horiz-adv-x="526" 
d="M301 384q79 0 127 -45.5t48 -117.5q0 -100 -74 -165t-182 -65q-89 0 -139.5 44t-50.5 119q0 42 18 89q20 47 36 72q20 31 48 67l9 12l155 213h110l-174 -232q0 -2 1 -3q25 12 68 12zM267 312q-57 0 -96 -43q-38 -43 -38 -99q0 -45 26.5 -72t73.5 -27q59 0 101 39
q43 39 43 98q0 45 -31 74.5t-79 29.5z" />
    <glyph glyph-name="seven.textoldstyle" unicode="&#xe04f;" horiz-adv-x="465" 
d="M452 426l-343 -594h-107l306 531h-284l12 81h419z" />
    <glyph glyph-name="eight.textoldstyle" unicode="&#xe050;" horiz-adv-x="526" 
d="M269 287q-52 0 -92 -37q-39 -36 -39 -90q0 -40 27 -65.5t74 -25.5q56 0 92 38q36 37 36 87q0 42 -27.5 67.5t-70.5 25.5zM315 618q75 0 120.5 -40.5t45.5 -105.5q0 -41 -25 -84t-65 -69q75 -37 75 -124q0 -90 -69 -148q-69 -57 -170 -57q-89 0 -140 40t-51 111
q0 53 32 103q32 52 84 74q-53 35 -53 109q0 82 64 136q64 55 152 55zM303 534q-44 0 -78 -31q-33 -30 -33 -74q0 -34 24 -56t62 -22q45 0 76.5 31t31.5 73q0 35 -23.5 57t-59.5 22z" />
    <glyph glyph-name="nine.textoldstyle" unicode="&#xe051;" horiz-adv-x="526" 
d="M295 456q89 0 139.5 -44t50.5 -119q0 -50 -18 -93.5t-57 -98.5l-196 -269h-109l179 240q0 2 -1 3q-27 -13 -68 -13q-80 0 -127 45t-47 118q0 101 73 165q74 66 181 66zM249 135q57 0 95 42q39 42 39 99q0 46 -26 72.5t-74 26.5q-59 0 -101 -39q-42 -38 -42 -99
q0 -46 30 -74t79 -28z" />
    <glyph glyph-name="numbersign.textoldstyle" unicode="&#xe052;" horiz-adv-x="474" 
d="M321 370l47 129h60l-46 -129h69q-7 -49 -8 -59h-83l-35 -100h73l-7 -57h-87l-55 -154h-61l56 154h-95l-28 -76l-28 -78h-62l56 154h-63l8 57h76l18 47q11 29 19 53h-71l8 59h83l47 129h64l-50 -129h95zM300 311h-95l-36 -100h94l17 44q15 41 20 56z" />
    <glyph glyph-name="dollar.textoldstyle" unicode="&#xe053;" horiz-adv-x="472" 
d="M210 -99h-64l13 93q-91 8 -150 45l12 89q71 -58 163 -58q55 0 88.5 23t33.5 65q0 28 -24.5 50.5t-59 39t-69 34.5t-59 47t-24.5 67q0 63 47 106.5t121 51.5l13 92h62l-13 -91q61 -4 123 -34l-11 -84q-59 41 -136 41q-46 0 -75 -18t-29 -56q0 -20 24 -38t59 -34.5
t69.5 -36t58.5 -51t24 -72.5q0 -70 -50.5 -118.5t-134.5 -57.5z" />
    <glyph glyph-name="euro.textoldstyle" unicode="&#xe054;" horiz-adv-x="512" 
d="M417 346l-6 -47h-367l7 47h44q30 101 107.5 155t184.5 54q64 0 109 -16l-9 -85q-45 16 -100 16q-138 0 -186 -124h216zM31 210l8 46h365l-6 -46h-222q-1 -65 41 -101.5t111 -36.5q62 0 121 25l-12 -85q-71 -23 -132 -23q-106 0 -170 58q-63 59 -62 163h-42z" />
    <glyph glyph-name="florin.textoldstyle" unicode="&#xe055;" horiz-adv-x="434" 
d="M163 267h-73l5 68h81l6 35l7 35q31 171 171 171q39 0 82 -13l-4 -78q-37 8 -60 8q-75 0 -90 -91l-12 -67h95l-6 -68h-101l-28 -148q-22 -121 -62 -174q-39 -52 -115 -52q-39 0 -86 18l3 81q39 -14 66 -14q40 0 58 35q18 31 41 143z" />
    <glyph glyph-name="sterling.textoldstyle" unicode="&#xe056;" horiz-adv-x="467" 
d="M457 536l-5 -78q-47 19 -104 19q-44 0 -74.5 -27.5t-38.5 -79.5l-9 -61h142q-9 -36 -9 -62h-144q-19 -120 -63 -167h249q-10 -50 -11 -80h-386q0 2 1 7t1 6q44 31 72 99q27 64 38 135h-62q0 26 9 62h64l11 68q17 96 77 136q62 41 133 41q64 0 109 -18z" />
    <glyph glyph-name="cent.textoldstyle" unicode="&#xe057;" horiz-adv-x="441" 
d="M247 -33h-63l13 94q-67 8 -102.5 50t-35.5 109q0 90 54 153t139 73l12 94h64l-13 -92q42 -2 73 -15l-11 -84q-34 22 -85 22q-54 0 -95 -39q-40 -37 -40 -100q0 -43 27 -69t74 -26q56 0 108 31l-11 -82q-31 -15 -94 -26z" />
    <glyph glyph-name="yen.textoldstyle" unicode="&#xe058;" horiz-adv-x="489" 
d="M450 243h-412l7 47h123l-107 254h110l83 -239q20 31 70 119q61 106 70 120h114l-171 -254h121q-4 -16 -8 -47zM26 153l6 46h413l-7 -46h-149q-17 -108 -21 -153h-107l22 153h-157z" />
    <glyph glyph-name="percent.text" unicode="&#xe059;" horiz-adv-x="666" 
d="M187 301q-56 0 -88.5 31.5t-32.5 82.5q0 65 47 112q46 48 112 48q54 0 87 -32t33 -83q0 -65 -46 -112q-47 -47 -112 -47zM217 509q-33 0 -55.5 -25.5t-22.5 -59.5q0 -26 15.5 -41.5t42.5 -15.5q32 0 54 24t22 57q0 27 -15 44t-41 17zM527 584h67l-446 -601h-68zM451 -6
q-56 0 -88.5 30t-32.5 81q0 67 46 113q46 48 113 48q54 0 86.5 -33t32.5 -87q0 -62 -47 -107t-110 -45zM480 199q-33 0 -55.5 -25.5t-22.5 -59.5q0 -25 15.5 -40.5t42.5 -15.5q32 0 54 24.5t22 57.5q0 26 -15.5 42.5t-40.5 16.5z" />
    <glyph glyph-name="perthousand.text" unicode="&#xe05a;" horiz-adv-x="973" 
d="M187 301q-56 0 -88.5 31.5t-32.5 82.5q0 65 47 112q46 48 112 48q54 0 87 -32t33 -83q0 -65 -46 -112q-47 -47 -112 -47zM217 509q-33 0 -55.5 -25.5t-22.5 -59.5q0 -26 15.5 -41.5t42.5 -15.5q32 0 54 24t22 57q0 27 -15 44t-41 17zM527 584h67l-446 -601h-68zM451 -6
q-56 0 -88.5 30t-32.5 81q0 67 46 113q46 48 113 48q54 0 86.5 -33t32.5 -87q0 -62 -47 -107t-110 -45zM480 199q-33 0 -55.5 -25.5t-22.5 -59.5q0 -25 15.5 -40.5t42.5 -15.5q32 0 54 24.5t22 57.5q0 26 -15.5 42.5t-40.5 16.5zM761 -6q-56 0 -88 30t-32 81q0 67 46 113
q47 48 113 48q54 0 86.5 -32t32.5 -83q0 -65 -46 -111q-45 -46 -112 -46zM791 199q-33 0 -55.5 -25t-22.5 -59q0 -27 15.5 -42t42.5 -15q32 0 54 24t22 57q0 27 -15 43.5t-41 16.5z" />
    <glyph glyph-name="asuperior" unicode="&#xe06c;" horiz-adv-x="356" 
d="M207 600q75 0 101 -56l14 47h55l-23 -145q-21 -129 -23 -148h-55q0 1 -0.5 4.5t-1 9.5t-0.5 11q-1 14 -1 25q-38 -56 -113 -56q-59 0 -90.5 34t-31.5 90q0 81 47 133q48 51 122 51zM210 537q-41 0 -66 -32t-25 -78q0 -71 63 -71q41 0 68 31.5t27 77.5q0 32 -18 52t-49 20
z" />
    <glyph glyph-name="bsuperior" unicode="&#xe06d;" horiz-adv-x="387" 
d="M77 530l35 235h78q-7 -55 -33 -202q40 40 102 40t97.5 -35t35.5 -90q0 -82 -50 -134q-50 -51 -125 -51q-71 0 -102 48l-14 -41h-58q1 11 5 38t13 84t16 108zM213 358q44 0 70.5 29.5t26.5 76.5q0 74 -66 74q-42 0 -70 -31t-28 -75q0 -33 17.5 -53t49.5 -21z" />
    <glyph glyph-name="dsuperior" unicode="&#xe06f;" horiz-adv-x="381" 
d="M307 566l30 199h78l-68 -465h-61l-3 35q-45 -42 -111 -42q-59 0 -93 35t-34 90q0 81 50 133q49 52 120 52q61 0 92 -37zM194 358q42 0 69 31t27 79q0 31 -18 50t-50 19q-44 0 -70 -30t-26 -77q0 -33 17.5 -52.5t50.5 -19.5z" />
    <glyph glyph-name="esuperior" unicode="&#xe070;" horiz-adv-x="335" 
d="M225 603q52 0 83 -24.5t31 -63.5q0 -54 -51 -77q-52 -23 -119 -23q-8 0 -40 2q5 -63 71 -63q64 0 122 44l-11 -71q-56 -34 -126 -34q-68 0 -104 35t-36 94q0 74 50 127q51 54 130 54zM221 540q-69 0 -90 -76q14 -2 31 -2q47 0 74 12.5t27 32.5q0 33 -42 33z" />
    <glyph glyph-name="egravesuperior" unicode="&#xe071;" horiz-adv-x="338" 
d="M184 765l97 -125h-56l-98 83zM225 603q52 0 83 -24.5t31 -63.5q0 -54 -51 -77q-52 -23 -119 -23q-8 0 -40 2q5 -63 71 -63q64 0 122 44l-11 -71q-56 -34 -126 -34q-68 0 -104 35t-36 94q0 74 50 127q51 54 130 54zM221 540q-69 0 -90 -76q14 -2 31 -2q47 0 74 12.5
t27 32.5q0 33 -42 33z" />
    <glyph glyph-name="hsuperior" unicode="&#xe073;" horiz-adv-x="364" 
d="M109 763h77l-32 -215q40 52 109 52q110 0 95 -113l-26 -187h-79l24 172q8 64 -47 64q-31 0 -56 -26t-33 -72l-19 -138h-78z" />
    <glyph glyph-name="isuperior" unicode="&#xe074;" horiz-adv-x="160" 
d="M87 593h80l-41 -293h-80zM147 730q17 0 28 -10.5t11 -26.5q0 -21 -15 -36.5t-37 -15.5q-18 0 -29 11.5t-11 27.5q0 20 16.5 35t36.5 15z" />
    <glyph glyph-name="lsuperior" unicode="&#xe077;" horiz-adv-x="153" 
d="M109 762h78l-65 -462h-78z" />
    <glyph glyph-name="msuperior" unicode="&#xe078;" horiz-adv-x="558" 
d="M123 300h-78l41 293h59l4 -51q37 54 103 58q76 0 92 -58q23 28 54.5 43t60.5 15q44 0 69 -25.5t25 -71.5q0 -2 -0.5 -8t-0.5 -8q-20 -140 -26 -187h-80l25 175q4 27 -7.5 43t-35.5 16q-29 0 -53 -20t-29 -58l-21 -156h-79l24 168q4 29 -6 47.5t-35 18.5q-31 0 -56.5 -28
t-31.5 -70z" />
    <glyph glyph-name="osuperior" unicode="&#xe079;" horiz-adv-x="367" 
d="M230 604q67 0 104.5 -36t37.5 -97q0 -75 -51 -127q-51 -51 -131 -51q-68 0 -106.5 35t-38.5 96q0 74 51 127q53 53 134 53zM224 537q-41 0 -68 -31t-27 -77q0 -33 17 -52.5t49 -19.5q42 0 70 32t28 77q0 32 -18.5 51.5t-50.5 19.5z" />
    <glyph glyph-name="rsuperior" unicode="&#xe07c;" horiz-adv-x="253" 
d="M85 593h55q0 -7 1.5 -29t1.5 -30q15 33 45 50t65 17q23 0 43 -6l-10 -73q-26 10 -51 10q-54 1 -81 -60q-13 -37 -17 -63l-6 -34q-4 -33 -5 -38l-4 -37h-78z" />
    <glyph glyph-name="ssuperior" unicode="&#xe07d;" horiz-adv-x="262" 
d="M20 320q3 15 10 69q47 -38 102 -38q53 0 53 34q0 14 -20 26.5t-44.5 21.5t-44.5 29t-20 48q0 43 35 68t88 25t96 -22l-10 -65q-45 27 -84 27q-46 0 -46 -29q0 -10 20 -20.5t44 -20t44 -31t20 -50.5q0 -45 -37 -72.5t-97 -27.5q-62 0 -109 28z" />
    <glyph glyph-name="tsuperior" unicode="&#xe07e;" horiz-adv-x="237" 
d="M112 601l65 84h20q-4 -25 -13 -89h80q-5 -51 -8 -62h-80l-18 -120q-8 -57 28 -57q23 0 61 20l-9 -62q-32 -22 -73 -23h-8q-84 0 -84 76q0 22 3 51l10 63q7 34 9 52h-47q4 22 6 46z" />
    <glyph glyph-name="i.dot" unicode="&#xe096;" horiz-adv-x="244" 
d="M200 445l-62 -445h-104l62 445h104zM178 648q23 0 37.5 -15t14.5 -37q0 -28 -20.5 -49t-47.5 -21q-24 0 -38 14t-14 38q0 28 21 49t47 21z" />
    <glyph glyph-name="a.alt" unicode="&#xe0a8;" horiz-adv-x="499" 
d="M400 0h-88l-2 52h-2q-2 1 -3 1q-63 -63 -155 -63q-66 0 -100 29t-34 79q0 79 60.5 123t170.5 44h88l3 22q6 46 -19 68t-78 22q-72 0 -144 -39l12 83q76 35 163 35q169 0 170 -139q0 -18 -3 -39zM323 179l4 27h-87q-122 0 -122 -84q0 -26 21 -40.5t57 -14.5q52 0 85.5 30
t41.5 82z" />
    <glyph glyph-name="g.alt" unicode="&#xe0a9;" horiz-adv-x="557" 
d="M367 20l7 42h-2l-2 1q-58 -70 -153 -70q-89 0 -139 50.5t-50 132.5q0 124 71 201t181 77q102 0 149 -78h4l23 69h71q-34 -232 -55 -389q-19 -142 -91.5 -214.5t-207.5 -72.5q-47 0 -98 13q-53 14 -86 36q2 12 11 92q83 -59 173 -59q77 0 129 46t65 123zM284 370
q-67 0 -109 -50t-42 -123q0 -58 26.5 -90.5t79.5 -32.5q65 0 109 51q43 50 43 124q0 55 -28 87.5t-79 33.5z" />
    <glyph glyph-name="A2.alt" unicode="&#xe0b6;" horiz-adv-x="628" 
d="M581 0h-109l-125 453h-3l-253 -453h-114l390 672h16z" />
    <glyph glyph-name="F.alt" unicode="&#xe0b7;" horiz-adv-x="516" 
d="M186 279l-69 -495h-111l123 876h429q-3 -24 -14 -91h-316l-29 -201h283l-12 -89h-284z" />
    <glyph glyph-name="I.alt" unicode="&#xe0b8;" horiz-adv-x="271" 
d="M271 830l-116 -830h-112l117 830h111z" />
    <glyph glyph-name="L.alt" unicode="&#xe0b9;" horiz-adv-x="512" 
d="M36 0l117 830h112l-104 -739h318l-12 -91h-431z" />
    <glyph glyph-name="P2.alt" unicode="&#xe0ba;" horiz-adv-x="566" 
d="M128 660h234q104 0 156 -55q52 -53 52 -136q0 -109 -77 -177t-189 -68h-125l-62 -440h-112zM328 573h-100l-37 -264h104q80 0 121 47t41 107q0 110 -129 110z" />
    <glyph glyph-name="T.alt" unicode="&#xe0bb;" horiz-adv-x="533" 
d="M600 830l-12 -90h-197l-104 -740h-112l103 740h-196l12 90h506z" />
    <glyph glyph-name="Y.alt" unicode="&#xe0bc;" horiz-adv-x="616" 
d="M211 -215h-109l111 215l-153 659h116q98 -456 111 -531h4q55 120 264 531h114z" />
    <glyph glyph-name="Q.alt" unicode="&#xe0bd;" horiz-adv-x="762" 
d="M270 -65l381 -72l-40 -95l-382 71zM437 671q137 0 213 -82q77 -82 77 -210q0 -165 -111 -277q-109 -112 -269 -112q-135 0 -213 80t-78 208q0 162 110 278q109 115 271 115zM356 84q110 0 184 83q74 85 74 206q0 88 -50 146q-49 57 -136 57q-108 0 -183 -86t-75 -205
q0 -90 49 -145q50 -56 137 -56z" />
    <glyph glyph-name="Q2.alt" unicode="&#xe0be;" horiz-adv-x="762" 
d="M437 671q137 0 213 -81q78 -81 78 -211q0 -150 -95 -260q-94 -108 -236 -123l-29 -211h-102l29 210q-112 13 -176 89q-63 76 -63 193q0 163 109 278q110 116 272 116zM428 575q-108 0 -183 -86q-75 -85 -75 -205q0 -76 38 -126.5t105 -59.5l33 200h88l-25 -202
q89 16 147 94q58 77 58 183q0 87 -50 145q-49 57 -136 57z" />
    <glyph glyph-name="uniE0C0" unicode="&#xe0c0;" horiz-adv-x="516" 
d="M569 738h-318l-103 -738h-112l117 829h428z" />
    <glyph glyph-name="uniE0C4" unicode="&#xe0c4;" horiz-adv-x="804" 
d="M459 669q141 0 226 -81q85 -79 85 -214q0 -145 -95 -258q-94 -111 -251 -126l-29 -205h-110l29 204q-125 10 -193 88q-66 78 -66 195q0 170 119 283q120 114 285 114zM167 279q0 -83 42.5 -138t117.5 -62l69 494q-100 -12 -164 -99q-65 -88 -65 -195zM659 372
q0 82 -41 137t-112 63l-69 -491q96 14 159 97q63 86 63 194z" />
    </font>
</defs>
</svg>
