<?xml version="1.0" standalone="no"?>
<!DOCTYPE svg PUBLIC "-//W3C//DTD SVG 1.1//EN" "http://www.w3.org/Graphics/SVG/1.1/DTD/svg11.dtd" >
<svg>
<metadata>
Created by FontForge 20120731 at Tue Dec 15 21:05:29 2015
 By ,,,
Copyright (c) 2013 Parachute, www.parachute.gr.  All rights reserved.
</metadata>
<defs>
<font id="PFBagueSansPro-Light" horiz-adv-x="540" >
  <font-face 
    font-family="PF Bague Sans Pro Light"
    font-weight="300"
    font-stretch="normal"
    units-per-em="1000"
    panose-1="2 0 5 3 0 0 0 2 0 3"
    ascent="750"
    descent="-250"
    x-height="445"
    cap-height="662"
    bbox="-469 -246 1721 902"
    underline-thickness="40"
    underline-position="-60"
    unicode-range="U+0020-FB06"
  />
<missing-glyph horiz-adv-x="445" 
d="M5 0v699h434v-699h-434zM222 318l-161 -285h322q-108 190 -161 285zM61 665l161 -285q53 95 161 285h-322zM243 349q6 -10 68 -120t95 -167v575q-55 -96 -163 -288zM201 349q-108 192 -163 287v-573z" />
    <glyph glyph-name="fj" unicode="fj" horiz-adv-x="457" 
d="M234 -227l-27 52q69 2 96.5 37.5t27.5 107.5v428h-188v-398h-56v398h-82v37l82 10v100q0 80 40 130t130 50q77 0 129 -31v-52q-65 36 -133 36q-110 0 -110 -128v-105h244v-476q0 -188 -153 -196z" />
    <glyph glyph-name="ffj" unicode="ffj" horiz-adv-x="712" 
d="M398 398v-398h-56v399h-199v-399h-56v399h-82v36l82 10v81q0 80 40 130t130 50q72 0 127 -30q44 49 129 49q77 0 128 -31v-52q-65 36 -132 36q-111 0 -111 -128v-105h244v-476q0 -188 -153 -196l-27 52q69 2 96.5 37.5t27.5 107.5v428h-188zM342 545q0 52 16 91
q-51 23 -105 23q-110 0 -110 -128v-86h199v100z" />
    <glyph glyph-name="f_t" unicode="ft" horiz-adv-x="557" 
d="M320 713v-50q-34 14 -77 14q-100 0 -100 -128v-104h194l33 134h24v-134h127v-47h-127v-271q0 -42 14 -62.5t52 -20.5q43 0 84 28v-52q-39 -29 -90 -29q-67 0 -92 35t-25 101v271h-194v-398h-56v398h-82v37l82 10v99q0 180 160 180q39 0 73 -11z" />
    <glyph glyph-name="ff" unicode="ff" horiz-adv-x="537" 
d="M87 445v79q0 80 40 130t130 50q73 0 128 -31q40 50 123 50q38 0 72 -11v-50q-34 14 -76 14q-101 0 -101 -128v-103h137v-46h-137v-399h-56v399h-204v-399h-56v399h-82v36zM347 543q0 53 15 90q-53 24 -109 24q-110 0 -110 -128v-84h204v98z" />
    <glyph glyph-name="fi" unicode="fi" horiz-adv-x="455" 
d="M387 0h-57v398h-187v-398h-56v398h-82v37l82 10v100q0 80 40 130t130 50q77 0 129 -31v-52q-65 36 -133 36q-110 0 -110 -128v-105h244v-445z" />
    <glyph glyph-name="fl" unicode="fl" horiz-adv-x="456" 
d="M266 445v-47h-123v-398h-56v398h-82v37l82 10v100q0 80 40 130t130 50q77 0 129 -31v-694h-57v666q-36 12 -76 12q-110 0 -110 -128v-105h123z" />
    <glyph glyph-name="ffi" unicode="ffi" horiz-adv-x="717" 
d="M398 445h249v-445h-57v398h-192v-398h-56v399h-199v-399h-56v399h-82v36l82 10v81q0 80 40 130t130 50q72 0 127 -30q44 49 129 49q77 0 128 -31v-52q-65 36 -132 36q-111 0 -111 -128v-105zM342 545q0 52 16 91q-51 23 -105 23q-110 0 -110 -128v-86h199v100z" />
    <glyph glyph-name="ffl" unicode="ffl" horiz-adv-x="716" 
d="M517 445v-47h-123v-398h-56v398h-195v-398h-56v398h-82v37l82 10v81q0 80 40 130t130 50q71 0 126 -30q46 49 131 49q81 0 132 -31v-694h-57v666q-36 12 -79 12q-116 0 -116 -128v-105h123zM338 445v100q0 55 18 92q-50 22 -103 22q-110 0 -110 -128v-86h195z" />
    <glyph glyph-name="longs_t" unicode="&#x17f;t" horiz-adv-x="528" 
d="M143 549v-549h-56v399h-82v36l82 10v99q0 180 163 180q68 0 119 -31v-52q-65 36 -123 36q-103 0 -103 -128zM341 579h23v-134h127v-47h-127v-271q0 -42 14 -62.5t52 -20.5q43 0 84 28v-52q-39 -29 -90 -29q-67 0 -92 35t-25 101v271h-75v37l75 10z" />
    <glyph glyph-name=".notdef" horiz-adv-x="445" 
d="M5 0v699h434v-699h-434zM222 318l-161 -285h322q-108 190 -161 285zM61 665l161 -285q53 95 161 285h-322zM243 349q6 -10 68 -120t95 -167v575q-55 -96 -163 -288zM201 349q-108 192 -163 287v-573z" />
    <glyph glyph-name=".null" horiz-adv-x="0" 
 />
    <glyph glyph-name="nonmarkingreturn" horiz-adv-x="333" 
 />
    <glyph glyph-name="space" unicode=" " horiz-adv-x="240" 
 />
    <glyph glyph-name="exclam" unicode="!" horiz-adv-x="274" 
d="M160 152h-42l-11 538h62zM183 36q0 -19 -13.5 -32t-31.5 -13q-19 0 -32 13t-13 32t13 32t32 13t32 -13t13 -32z" />
    <glyph glyph-name="quotedbl" unicode="&#x22;" horiz-adv-x="282" 
d="M212 473h-49v209h49v-209zM119 473h-49v209h49v-209z" />
    <glyph glyph-name="numbersign" unicode="#" 
d="M418 628h41q-8 -34 -22 -97.5t-17 -78.5h80v-36h-89l-39 -176h89v-36h-97l-44 -204h-41l45 204h-161l-45 -204h-40l45 204h-84v36h92q6 30 19 88.5t19 87.5h-93v36h101q14 58 40 176h40l-39 -176h161zM210 416l-39 -176h161q29 130 38 176h-160z" />
    <glyph glyph-name="dollar" unicode="$" 
d="M246 -96v92q-105 4 -176 51v57q88 -61 183 -61q77 0 118.5 34t41.5 90q0 37 -18 66.5t-47 48.5t-63.5 35.5t-69.5 33t-64 36t-47 49.5t-18 68q0 72 45 111.5t115 46.5v95h48v-94q73 -3 137 -36v-60q-71 48 -154 48q-136 0 -136 -114q0 -35 34 -62t82.5 -48.5t96.5 -46.5
t82 -67t34 -98q0 -81 -48 -127t-128 -54v-94h-48z" />
    <glyph glyph-name="percent" unicode="%" horiz-adv-x="713" 
d="M190 359q-71 0 -113 44t-42 111q0 65 45 110t110 45q66 0 109 -44.5t43 -110.5t-43.5 -110.5t-108.5 -44.5zM190 625q-46 0 -75.5 -32.5t-29.5 -78.5q0 -48 28 -80t77 -32q46 0 74 33t28 79t-28.5 78.5t-73.5 32.5zM530 -6q-71 0 -112.5 43t-41.5 110q0 66 44.5 111.5
t109.5 45.5q66 0 109.5 -44.5t43.5 -110.5q0 -65 -44 -110t-109 -45zM530 260q-45 0 -74.5 -32.5t-29.5 -78.5q0 -48 28 -80t76 -32q46 0 74.5 33t28.5 79t-29 78.5t-74 32.5zM631 681l-506 -700h-47l506 700h47z" />
    <glyph glyph-name="ampersand" unicode="&#x26;" horiz-adv-x="681" 
d="M674 -16l-46 -34q-88 49 -166 109q-85 -74 -204 -74q-89 0 -141 44.5t-52 122.5q0 59 38.5 116t106.5 84q-29 69 -29 127q0 75 48.5 127.5t142.5 52.5q67 0 129 -25v-54q-58 29 -129 29q-70 0 -101.5 -37.5t-31.5 -90.5q0 -81 58.5 -172t163.5 -180q66 80 99 230l47 -23
q-37 -151 -107 -238q69 -56 174 -114zM264 34q90 0 158 56q-127 111 -189 217q-51 -18 -81.5 -60.5t-30.5 -89.5q0 -58 42 -90.5t101 -32.5z" />
    <glyph glyph-name="quotesingle" unicode="'" horiz-adv-x="199" 
d="M124 473h-49v209h49v-209z" />
    <glyph glyph-name="parenleft" unicode="(" horiz-adv-x="290" 
d="M237 737l33 -12q-139 -199 -139 -418q0 -218 137 -423l-34 -13q-73 94 -115 210t-42 227q0 226 160 429z" />
    <glyph glyph-name="parenright" unicode=")" horiz-adv-x="290" 
d="M26 725l33 12q160 -203 160 -429q0 -111 -42 -227t-115 -210l-34 13q137 205 137 423q0 219 -139 418z" />
    <glyph glyph-name="asterisk" unicode="*" horiz-adv-x="439" 
d="M364 478l-30 -52l-98 71l14 -121h-58l13 120l-100 -71l-30 52l111 48l-111 50l29 51l97 -70l-11 119h59l-14 -119l99 70l29 -51l-109 -48z" />
    <glyph glyph-name="plus" unicode="+" 
d="M293 276v-169h-46v169h-167v45h167v167h46v-167h166v-45h-166z" />
    <glyph glyph-name="comma" unicode="," horiz-adv-x="173" 
d="M42 41q0 19 14 33t34 14q19 0 32.5 -13t13.5 -33q0 -26 -23 -82.5t-46 -99.5l-36 5l40 134q-29 10 -29 42z" />
    <glyph glyph-name="hyphen" unicode="-" horiz-adv-x="376" 
d="M61 217v53h254v-53h-254z" />
    <glyph glyph-name="period" unicode="." horiz-adv-x="165" 
d="M128 38q0 -19 -13.5 -32t-32.5 -13t-32 13t-13 32t13 32.5t32 13.5q20 0 33 -13t13 -33z" />
    <glyph glyph-name="slash" unicode="/" horiz-adv-x="297" 
d="M14 -88h-46q60 146 172 414t152 364h47q-184 -443 -325 -778z" />
    <glyph glyph-name="zero" unicode="0" 
d="M269 672q58 0 101.5 -23t68 -57t40 -82.5t20 -91t4.5 -89.5q0 -46 -5 -88t-20.5 -89.5t-40 -81.5t-68 -57t-100.5 -23q-70 0 -118.5 31.5t-72 85.5t-33 107t-9.5 115q0 47 5 89.5t20.5 90.5t40 82.5t67.5 57.5t100 23zM269 624q-54 0 -91.5 -29t-54.5 -78.5t-23 -93.5
t-6 -94q0 -39 3 -74t14 -76.5t29.5 -71t51.5 -49.5t77 -20q55 0 92.5 28.5t54.5 77t23.5 92t6.5 93.5q0 39 -3.5 74t-14.5 77t-29.5 72.5t-52 51t-77.5 20.5z" />
    <glyph glyph-name="one" unicode="1" 
d="M330 666v-666h-57v577l-157 -109v61l199 137h15z" />
    <glyph glyph-name="two" unicode="2" 
d="M56 0l-16 9q1 50 11 91t26 70t45.5 57.5t57.5 48.5t74 49q33 20 53 34t47.5 37.5t41.5 49t14 52.5q0 62 -41 93.5t-106 31.5t-102.5 -39.5t-37.5 -100.5q0 -23 6 -48l-60 9q-5 19 -5 51q0 78 59 127.5t142 49.5q86 0 146 -44t60 -128q0 -104 -163 -203q-46 -27 -72 -45
t-61 -50t-52.5 -70.5t-18.5 -84.5h375v-47h-423z" />
    <glyph glyph-name="three" unicode="3" 
d="M152 356l-9 11l205 244l-1 4h-297v46h397v-13l-205 -237q98 0 155.5 -54.5t57.5 -150.5q0 -97 -68.5 -156t-166.5 -59q-120 0 -198 58v64q86 -73 199 -73q79 0 127.5 46.5t48.5 116.5q0 81 -49.5 121t-129.5 40q-31 0 -66 -8z" />
    <glyph glyph-name="four" unicode="4" 
d="M412 472h9v-251h91v-46h-91v-175h-55v175h-357v13l344 474h69l-321 -441h265v182z" />
    <glyph glyph-name="five" unicode="5" 
d="M261 409q95 0 160 -53.5t65 -151.5q0 -99 -68.5 -156t-168.5 -57q-117 0 -195 58v65q31 -32 84.5 -53.5t110.5 -21.5q80 0 130 46.5t50 117.5q0 78 -48.5 118t-128.5 40q-82 0 -157 -46l-14 5l44 341h337v-45h-288l-29 -228q49 21 116 21z" />
    <glyph glyph-name="six" unicode="6" 
d="M275 661h62l-175 -286l5 -1q36 33 113 33q93 0 153.5 -58.5t60.5 -149.5q0 -93 -63 -151.5t-161 -58.5q-103 0 -164 58t-61 152q0 85 60 182zM272 360q-74 0 -122.5 -43t-48.5 -118q0 -71 45 -117t124 -46q78 0 123 46t45 117q0 70 -45 115.5t-121 45.5z" />
    <glyph glyph-name="seven" unicode="7" 
d="M183 0h-56l275 615h-335v46h405v-14z" />
    <glyph glyph-name="eight" unicode="8" 
d="M371 357v-3q121 -47 121 -173q0 -87 -62.5 -139t-158.5 -52q-99 0 -161 51t-62 137q0 56 32 102t87 66v4q-93 43 -93 148q0 77 56.5 125.5t140.5 48.5q83 0 140 -48t57 -126q0 -48 -26.5 -86.5t-70.5 -54.5zM436 183q0 63 -44.5 103t-120.5 40q-75 0 -121 -40.5
t-46 -102.5q0 -64 45 -105.5t122 -41.5q75 0 120 42t45 105zM271 623q-62 0 -101 -36t-39 -91q0 -54 39.5 -89t100.5 -35q60 0 100 35t40 89q0 55 -39 91t-101 36z" />
    <glyph glyph-name="nine" unicode="9" 
d="M263 0h-62l174 285l-4 3q-38 -33 -112 -33q-92 0 -152 58.5t-60 148.5q0 92 62.5 150.5t159.5 58.5q102 0 162.5 -57.5t60.5 -151.5q0 -83 -59 -180zM267 303q74 0 121.5 42.5t47.5 116.5q0 71 -44.5 116.5t-122.5 45.5q-77 0 -121.5 -46t-44.5 -116t44.5 -114.5
t119.5 -44.5z" />
    <glyph glyph-name="colon" unicode=":" horiz-adv-x="192" 
d="M142 349q0 -18 -13.5 -31t-32.5 -13t-32 13t-13 31q0 19 13 32.5t32 13.5q20 0 33 -13.5t13 -32.5zM141 40q0 -19 -13.5 -32t-32.5 -13t-32 13t-13 32t13 32t32 13t32.5 -13t13.5 -32z" />
    <glyph glyph-name="semicolon" unicode=";" horiz-adv-x="204" 
d="M152 349q0 -18 -13.5 -31t-32.5 -13t-32 13t-13 31q0 19 13 32.5t32 13.5q20 0 33 -13.5t13 -32.5zM52 41q0 19 14 33t34 14q19 0 32.5 -13t13.5 -33q0 -26 -23 -82.5t-46 -99.5l-36 5l40 134q-29 10 -29 42z" />
    <glyph glyph-name="less" unicode="&#x3c;" 
d="M464 137v-54l-388 210v9l388 209v-55l-297 -158z" />
    <glyph glyph-name="equal" unicode="=" 
d="M465 354h-391v45h391v-45zM465 193h-391v44h391v-44z" />
    <glyph glyph-name="greater" unicode="&#x3e;" 
d="M76 83v54l297 161l-297 158v55l388 -209v-9z" />
    <glyph glyph-name="question" unicode="?" horiz-adv-x="492" 
d="M417 518q0 -45 -22 -86t-54 -71t-64 -57t-54 -54.5t-22 -53.5q0 -22 13 -42l-56 -16q-15 33 -15 59q0 35 22 68t54 59.5t64 54t54 62t22 72.5q0 55 -39.5 90.5t-109.5 35.5q-69 0 -145 -38v58q72 33 148 33q84 0 144 -46.5t60 -127.5zM235 36q0 -19 -13 -32t-32 -13
t-31.5 13t-12.5 32t12.5 31.5t31.5 12.5t32 -12.5t13 -31.5z" />
    <glyph glyph-name="at" unicode="@" horiz-adv-x="877" 
d="M532 313v29h-75q-129 0 -129 -76q0 -30 26 -47.5t65 -17.5q56 0 84.5 31.5t28.5 80.5zM409 157q-69 0 -101 33.5t-32 71.5q0 121 177 121h79v17q0 90 -99 90q-53 0 -118 -36v49q52 31 121 31q78 0 112.5 -36t34.5 -106v-130q0 -39 9.5 -55t40.5 -16q52 0 80 50.5
t28 115.5q0 114 -80.5 193t-204.5 79q-133 0 -226 -95t-93 -230q0 -131 87.5 -219t222.5 -88q132 0 224 84v-62q-95 -70 -224 -70q-159 0 -260.5 101.5t-101.5 253.5q0 155 108 264t262 109q149 0 243 -93.5t94 -229.5q0 -85 -45 -148t-117 -63q-45 0 -68 20t-28 45l-4 2
q-52 -53 -121 -53z" />
    <glyph glyph-name="A" unicode="A" horiz-adv-x="612" 
d="M537 0l-68 161h-327l-68 -161h-59l285 667h14l283 -667h-60zM303 543l-140 -333h285l-141 333h-4z" />
    <glyph glyph-name="B" unicode="B" horiz-adv-x="604" 
d="M491 193q0 62 -46 99.5t-123 37.5h-179v-277h190q87 0 122.5 42t35.5 98zM143 610v-229h173q22 0 43 5t43.5 17t36.5 36.5t14 58.5q0 50 -33.5 81t-93.5 31h-183zM421 361v-4q66 -17 97 -64t31 -103q0 -85 -58 -137.5t-148 -52.5h-258v662h233q86 0 139.5 -40t53.5 -119
q0 -43 -23.5 -82.5t-66.5 -59.5z" />
    <glyph glyph-name="C" unicode="C" horiz-adv-x="611" 
d="M586 96v-57q-37 -23 -91.5 -35.5t-103.5 -12.5q-158 0 -247 94.5t-89 241.5q0 149 98 247.5t242 98.5q108 0 165 -31v-57q-74 36 -160 36q-120 0 -202 -80t-82 -214q0 -129 74 -206.5t207 -77.5q96 0 189 53z" />
    <glyph glyph-name="D" unicode="D" horiz-adv-x="680" 
d="M567 332q0 122 -65.5 200t-194.5 78h-164v-557h169q126 0 190.5 76t64.5 203zM316 0h-231v662h221q145 0 232 -89.5t87 -238.5q0 -150 -83 -242t-226 -92z" />
    <glyph glyph-name="E" unicode="E" horiz-adv-x="556" 
d="M526 53v-53h-441v662h414v-52h-355v-234h330v-52h-330v-271h382z" />
    <glyph glyph-name="F" unicode="F" horiz-adv-x="516" 
d="M143 0h-58v662h416v-52h-358v-255h328v-52h-328v-303z" />
    <glyph glyph-name="G" unicode="G" horiz-adv-x="665" 
d="M55 327q0 149 99 248t245 99q112 0 174 -35v-59q-77 41 -173 41q-120 0 -202 -80t-82 -214q0 -127 73 -205.5t207 -78.5q79 0 147 29v254h57v-293q-86 -42 -218 -42q-154 0 -240.5 96.5t-86.5 239.5z" />
    <glyph glyph-name="H" unicode="H" horiz-adv-x="668" 
d="M583 0h-57v324h-383v-324h-58v662h58v-286h383v286h57v-662z" />
    <glyph glyph-name="I" unicode="I" horiz-adv-x="248" 
d="M153 0h-58v662h58v-662z" />
    <glyph glyph-name="J" unicode="J" horiz-adv-x="445" 
d="M144 44q91 0 124.5 50.5t33.5 139.5v428h58v-418q0 -57 -10 -100.5t-34 -79.5t-67.5 -55t-105.5 -19q-82 0 -133 30v61q25 -17 64.5 -27t69.5 -10z" />
    <glyph glyph-name="K" unicode="K" horiz-adv-x="580" 
d="M143 662v-314l324 314h72l-323 -318l354 -344h-82l-345 339v-339h-58v662h58z" />
    <glyph glyph-name="L" unicode="L" horiz-adv-x="512" 
d="M85 662h58v-609h359v-53h-417v662z" />
    <glyph glyph-name="M" unicode="M" horiz-adv-x="815" 
d="M414 153h-14l-258 358l-2 -3v-508h-55v667h15l308 -437l307 437h15v-667h-55l1 517l-3 2z" />
    <glyph glyph-name="N" unicode="N" horiz-adv-x="721" 
d="M141 0h-56v671h15l476 -546h4v537h56v-669h-15l-477 549h-3v-542z" />
    <glyph glyph-name="O" unicode="O" horiz-adv-x="787" 
d="M395 -10q-158 0 -249 96t-91 245q0 143 99.5 242t240.5 99q145 0 241 -98.5t96 -242.5q0 -145 -95.5 -243t-241.5 -98zM395 619q-122 0 -200.5 -83t-78.5 -205q0 -126 75.5 -207t203.5 -81q124 0 201.5 83.5t77.5 204.5t-78.5 204.5t-200.5 83.5z" />
    <glyph glyph-name="P" unicode="P" horiz-adv-x="563" 
d="M84 0v661h217q109 0 170 -62t61 -150q0 -101 -68 -158.5t-166 -57.5h-155v-233h-59zM280 613h-137v-332h148q88 0 133 49t45 118q0 68 -47.5 116.5t-141.5 48.5z" />
    <glyph glyph-name="Q" unicode="Q" horiz-adv-x="787" 
d="M395 619q-122 0 -200.5 -83t-78.5 -205q0 -126 75.5 -207t203.5 -81q124 0 201.5 83.5t77.5 204.5t-78.5 204.5t-200.5 83.5zM395 672q145 0 241 -98.5t96 -242.5q0 -114 -64.5 -205t-164.5 -120l-2 -4l234 -57l-17 -60l-370 108q-138 14 -215.5 108.5t-77.5 233.5
q0 142 99.5 239.5t240.5 97.5z" />
    <glyph glyph-name="R" unicode="R" horiz-adv-x="589" 
d="M331 252l236 -252h-80l-250 278v10q116 2 176.5 50.5t60.5 115.5q0 74 -47.5 115.5t-124.5 41.5h-159v-611h-59v661h226q88 0 155.5 -54.5t67.5 -150.5q0 -75 -55.5 -133.5t-146.5 -70.5z" />
    <glyph glyph-name="S" unicode="S" horiz-adv-x="485" 
d="M35 44v62q90 -63 188 -63q76 0 122.5 30.5t46.5 92.5q0 39 -19 69t-49 49t-66.5 35.5l-73 33t-66.5 35.5t-49 49t-19 69q0 80 58 123t133 43q96 0 168 -41v-62q-73 50 -160 50q-60 0 -99.5 -26t-39.5 -84q0 -38 35 -66.5t85 -49.5t100 -45t85 -67.5t35 -104.5
q0 -92 -60.5 -139t-158.5 -47q-114 0 -196 54z" />
    <glyph glyph-name="T" unicode="T" horiz-adv-x="523" 
d="M508 610h-216v-610h-59v610h-218v52h493v-52z" />
    <glyph glyph-name="U" unicode="U" horiz-adv-x="676" 
d="M534 246v416h57v-422q0 -111 -67.5 -180.5t-185.5 -69.5q-119 0 -186 68.5t-67 183.5v420h57v-412q0 -90 49 -148t147 -58q97 0 146.5 55.5t49.5 146.5z" />
    <glyph glyph-name="V" unicode="V" horiz-adv-x="569" 
d="M293 -7h-14l-269 667h59l216 -539h5l213 539h56z" />
    <glyph glyph-name="W" unicode="W" horiz-adv-x="886" 
d="M444 520h-4l-177 -527h-14l-239 667h57l188 -526h5l177 531h12l180 -531h5l185 526h57l-241 -667h-12z" />
    <glyph glyph-name="X" unicode="X" horiz-adv-x="606" 
d="M529 0l-225 329l-231 -329h-63l236 341l-218 320h63l213 -307l211 307h64l-221 -319l238 -342h-67z" />
    <glyph glyph-name="Y" unicode="Y" 
d="M279 351h4l186 311h61l-221 -367v-295h-58v295l-241 367h65z" />
    <glyph glyph-name="Z" unicode="Z" horiz-adv-x="500" 
d="M477 662v-9l-364 -601h367v-52h-460v9l368 601h-328v52h417z" />
    <glyph glyph-name="bracketleft" unicode="[" horiz-adv-x="257" 
d="M75 -120v853h152v-42h-101v-769h101v-42h-152z" />
    <glyph glyph-name="backslash" unicode="\" horiz-adv-x="297" 
d="M339 -88h-46q-141 335 -325 778h47q40 -96 152 -364t172 -414z" />
    <glyph glyph-name="bracketright" unicode="]" horiz-adv-x="257" 
d="M182 733v-853h-152v42h101v769h-101v42h152z" />
    <glyph glyph-name="asciicircum" unicode="^" horiz-adv-x="473" 
d="M448 349h-55l-156 241l-160 -241h-52l204 310h18z" />
    <glyph glyph-name="underscore" unicode="_" horiz-adv-x="510" 
d="M5 -120v37h500v-37h-500z" />
    <glyph glyph-name="grave" unicode="`" horiz-adv-x="469" 
d="M280 531h-47l-120 133l63 18z" />
    <glyph glyph-name="a" unicode="a" horiz-adv-x="495" 
d="M366 57l-5 1q-60 -68 -155 -68q-86 0 -123 40t-37 88q0 147 206 147h112v24q0 118 -129 118q-68 0 -145 -43v52q30 18 73 28.5t75 10.5q96 0 139 -44t43 -130v-281h-44zM364 188v33h-118q-142 0 -142 -98q0 -41 33 -63t82 -22q70 0 107.5 42.5t37.5 107.5z" />
    <glyph glyph-name="b" unicode="b" horiz-adv-x="575" 
d="M126 68l-5 -3l-10 -65h-46v711h57v-336l5 -1q29 39 75 60t96 21q105 0 166 -64.5t61 -167.5q0 -98 -67 -165.5t-163 -67.5q-50 0 -96.5 20.5t-72.5 57.5zM294 39q76 0 124.5 53t48.5 131q0 80 -46.5 132.5t-126.5 52.5q-78 0 -125.5 -54t-47.5 -131q0 -78 48 -131
t125 -53z" />
    <glyph glyph-name="c" unicode="c" horiz-adv-x="432" 
d="M407 73v-54q-50 -29 -133 -29q-108 0 -166 64t-58 164t65 168.5t163 68.5q67 0 111 -20v-54q-42 26 -104 26q-75 0 -126 -51t-51 -138q0 -80 47.5 -129.5t128.5 -49.5q76 0 123 34z" />
    <glyph glyph-name="d" unicode="d" horiz-adv-x="572" 
d="M448 378l4 2v331h55v-711h-45l-10 71l-4 1q-60 -82 -169 -82q-105 0 -167 65t-62 168q0 98 66.5 165t163.5 67q50 0 96 -20.5t72 -56.5zM281 407q-76 0 -124.5 -53.5t-48.5 -130.5q0 -80 46.5 -132.5t126.5 -52.5q78 0 125 53.5t47 131.5q0 77 -47.5 130.5t-124.5 53.5z
" />
    <glyph glyph-name="e" unicode="e" horiz-adv-x="519" 
d="M450 97v-57q-66 -50 -168 -50q-107 0 -169.5 63.5t-62.5 170.5q0 98 62 164.5t154 66.5q95 0 149 -65t54 -162q0 -14 -1 -20h-359q2 -78 50.5 -123.5t119.5 -45.5q97 0 171 58zM267 405q-66 0 -108 -41t-49 -110h305q-7 69 -46 110t-102 41z" />
    <glyph glyph-name="f" unicode="f" horiz-adv-x="295" 
d="M320 713v-50q-34 14 -77 14q-100 0 -100 -128v-104h136v-47h-136v-398h-56v398h-82v34l82 13v99q0 180 160 180q39 0 73 -11z" />
    <glyph glyph-name="g" unicode="g" horiz-adv-x="499" 
d="M40 -90q0 34 19 67.5t51 56.5l-27 4q-48 8 -48 51l83 75q-50 45 -50 123q0 70 50.5 118.5t125.5 48.5q33 0 68 -11h147v-35l-88 -10q48 -43 48 -112q0 -70 -50 -118t-125 -48q-60 0 -95 24l-55 -61l229 -26q124 -13 124 -107q0 -59 -58.5 -114t-164.5 -55
q-93 0 -138.5 37.5t-45.5 91.5zM244 165q56 0 89 35t33 86q0 52 -35 87t-87 35t-87 -35t-35 -86q0 -54 32.5 -88t89.5 -34zM322 11l-178 20q-47 -49 -47 -110q0 -40 29 -66.5t97 -26.5q86 0 126.5 39.5t40.5 84.5q0 50 -68 59z" />
    <glyph glyph-name="h" unicode="h" horiz-adv-x="525" 
d="M450 0h-57v255q0 70 -30 110t-86 40q-66 0 -109.5 -44.5t-43.5 -130.5v-230h-59v711h56v-333h3q63 77 156 77q82 0 126 -49.5t44 -139.5v-266z" />
    <glyph glyph-name="i" unicode="i" horiz-adv-x="227" 
d="M152 577q0 -17 -11 -27.5t-27 -10.5q-17 0 -28 10.5t-11 27.5q0 15 11.5 27t27.5 12t27 -11t11 -28zM141 0h-57v445h57v-445z" />
    <glyph glyph-name="j" unicode="j" horiz-adv-x="210" 
d="M145 577q0 -17 -10.5 -27.5t-27.5 -10.5t-28 11t-11 27q0 15 11.5 27t27.5 12t27 -11t11 -28zM-20 -227l-27 52q69 2 96.5 37.5t27.5 107.5v475h57v-476q0 -188 -154 -196z" />
    <glyph glyph-name="k" unicode="k" horiz-adv-x="467" 
d="M438 444l-248 -208l272 -236h-84l-258 227v-227h-55v711h55v-471l243 204h75z" />
    <glyph glyph-name="l" unicode="l" horiz-adv-x="203" 
d="M132 0h-57v711h57v-711z" />
    <glyph glyph-name="m" unicode="m" horiz-adv-x="816" 
d="M741 0h-56v272q0 134 -114 134q-56 0 -95 -43.5t-39 -133.5v-229h-57v272q0 65 -28.5 99.5t-79.5 34.5q-61 0 -100.5 -45.5t-39.5 -131.5v-229h-57v444h44l10 -61q1 -1 3 -1q52 73 144 73q52 0 89 -23.5t55 -65.5q27 44 68.5 66.5t82.5 22.5q85 0 127.5 -47.5
t42.5 -131.5v-276z" />
    <glyph glyph-name="n" unicode="n" horiz-adv-x="535" 
d="M460 0h-57v255q0 70 -30 110t-86 40q-67 0 -111 -44.5t-44 -130.5v-230h-57v445h44l9 -67h4q63 77 158 77q82 0 126 -49.5t44 -139.5v-266z" />
    <glyph glyph-name="o" unicode="o" horiz-adv-x="560" 
d="M281 -10q-106 0 -168.5 66t-62.5 167q0 97 67.5 164.5t163.5 67.5q99 0 164 -67t65 -165q0 -99 -65.5 -166t-163.5 -67zM281 407q-76 0 -124.5 -53.5t-48.5 -130.5q0 -80 46.5 -132.5t126.5 -52.5q78 0 125 53.5t47 131.5q0 77 -47.5 130.5t-124.5 53.5z" />
    <glyph glyph-name="p" unicode="p" horiz-adv-x="573" 
d="M125 68l-5 -3v-280h-55v660h45l10 -70l5 -1q29 39 75 60t96 21q105 0 166 -64.5t61 -167.5q0 -98 -67 -165.5t-163 -67.5q-50 0 -96 20.5t-72 57.5zM292 39q76 0 124.5 53t48.5 131q0 80 -46.5 132.5t-126.5 52.5q-78 0 -125.5 -54t-47.5 -131q0 -78 48 -131t125 -53z
" />
    <glyph glyph-name="q" unicode="q" horiz-adv-x="575" 
d="M449 378l4 2l10 65h47v-660h-55v287l-4 1q-29 -40 -75.5 -61.5t-96.5 -21.5q-105 0 -167 65t-62 168q0 98 66.5 165t163.5 67q50 0 96.5 -20.5t72.5 -56.5zM281 407q-76 0 -124.5 -53.5t-48.5 -130.5q0 -80 46.5 -132.5t126.5 -52.5q78 0 125 53.5t47 131.5
q0 77 -47.5 130.5t-124.5 53.5z" />
    <glyph glyph-name="r" unicode="r" horiz-adv-x="310" 
d="M264 402q-61 0 -96.5 -52t-35.5 -131v-219h-57v444h39l10 -79q1 -1 3 -1q48 91 148 91q18 0 30 -3v-55q-18 5 -41 5z" />
    <glyph glyph-name="s" unicode="s" horiz-adv-x="369" 
d="M25 29v56q67 -48 141 -48q112 0 112 77q0 31 -24 53t-59 36t-69.5 28.5t-58.5 40.5t-24 63q0 59 42.5 89.5t101.5 30.5q66 0 127 -30v-55q-66 38 -120 38q-93 0 -93 -69q0 -24 24 -42t58.5 -31.5t68.5 -29t58 -44.5t24 -69q0 -63 -45.5 -97.5t-116.5 -34.5q-83 0 -147 38
z" />
    <glyph glyph-name="t" unicode="t" horiz-adv-x="320" 
d="M134 579h23v-134h127v-47h-127v-271q0 -42 14 -62.5t52 -20.5q43 0 84 28v-52q-39 -29 -90 -29q-67 0 -92 35t-25 101v271h-75v37l75 10z" />
    <glyph glyph-name="u" unicode="u" horiz-adv-x="521" 
d="M75 445h56v-261q0 -143 110 -143q66 0 107 44t41 130v230h57v-445h-44l-10 64q-1 1 -3 1q-62 -75 -148 -75q-166 0 -166 182v273z" />
    <glyph glyph-name="v" unicode="v" horiz-adv-x="459" 
d="M233 -6h-11l-207 451h62l151 -339h5l151 339h60z" />
    <glyph glyph-name="w" unicode="w" horiz-adv-x="706" 
d="M351 445h9l148 -334h4l129 334h55l-182 -451h-10l-148 335h-3l-148 -335h-11l-179 451h58l129 -334h3z" />
    <glyph glyph-name="x" unicode="x" horiz-adv-x="452" 
d="M377 0l-150 216l-155 -216h-62l162 228l-152 217h62l145 -205l144 205h62l-154 -216l163 -229h-65z" />
    <glyph glyph-name="y" unicode="y" horiz-adv-x="442" 
d="M221 81h6l149 364h56l-274 -660h-59l95 230l-184 430h62z" />
    <glyph glyph-name="z" unicode="z" horiz-adv-x="408" 
d="M383 445v-9l-278 -390h274v-46h-364v9l281 390h-248v46h335z" />
    <glyph glyph-name="braceleft" unicode="{" horiz-adv-x="288" 
d="M117 337v-5q34 -20 43 -56t9 -103v-178q0 -74 45 -74h39v-44h-48q-28 0 -46.5 10t-27 28.5t-11 36t-2.5 41.5v221q0 101 -63 114v11q63 13 63 113v153q0 27 2 44.5t9 40.5t25 34.5t46 11.5h53v-43h-37q-29 0 -38 -18.5t-9 -54.5v-163q0 -98 -52 -120z" />
    <glyph glyph-name="bar" unicode="|" horiz-adv-x="253" 
d="M102 -138v897h50v-897h-50z" />
    <glyph glyph-name="braceright" unicode="}" horiz-adv-x="288" 
d="M171 332v5q-52 22 -52 120v163q0 36 -9 54.5t-38 18.5h-37v43h53q28 0 46 -11.5t25 -34.5t9 -40.5t2 -44.5v-153q0 -100 63 -113v-11q-63 -13 -63 -114v-221q0 -24 -2.5 -41.5t-11 -36t-27 -28.5t-46.5 -10h-48v44h39q45 0 45 74v178q0 45 2 69t14 50t36 40z" />
    <glyph glyph-name="asciitilde" unicode="~" horiz-adv-x="490" 
d="M436 373l33 -30q-43 -85 -122 -85q-37 0 -110.5 32t-96.5 32q-27 0 -45.5 -16t-40.5 -48l-33 30q47 86 122 86q37 0 110.5 -32.5t96.5 -32.5q27 0 45.5 16t40.5 48z" />
    <glyph glyph-name="uni00A0" unicode="&#xa0;" horiz-adv-x="240" 
 />
    <glyph glyph-name="exclamdown" unicode="&#xa1;" horiz-adv-x="274" 
d="M118 295h42l9 -538h-62zM183 411q0 -19 -13 -32t-32 -13t-32 13t-13 32t13 32t32 13q18 0 31.5 -13t13.5 -32z" />
    <glyph glyph-name="cent" unicode="&#xa2;" 
d="M282 -30v105q-93 10 -142 72.5t-49 154.5q0 90 53 155.5t138 78.5v108h48v-105q58 -2 100 -20v-54q-42 26 -104 26q-75 0 -126 -51t-51 -138q0 -80 47.5 -129.5t128.5 -49.5q76 0 123 34v-54q-43 -25 -118 -29v-104h-48z" />
    <glyph glyph-name="sterling" unicode="&#xa3;" 
d="M465 649v-50q-50 19 -92 19q-62 0 -101.5 -38.5t-39.5 -124.5v-99h183v-41h-183q-1 -73 -17.5 -148.5t-51.5 -119.5h307v-47h-390v12q96 105 96 303h-82v41h82v100q0 52 14.5 92t35.5 61.5t49.5 35t51 17.5t44.5 4q54 0 94 -17z" />
    <glyph glyph-name="currency" unicode="&#xa4;" 
d="M81 286q0 58 36 112l-51 52l42 40l50 -52q54 38 111 38q61 0 113 -39l51 50l40 -39l-52 -53q36 -50 36 -109q0 -58 -36 -110l53 -51l-41 -41l-52 50q-54 -36 -112 -36q-56 0 -112 36l-47 -50l-42 41l50 48q-37 47 -37 113zM133 285q0 -55 39.5 -95t95.5 -40q57 0 96 39.5
t39 95.5q0 57 -39 97t-96 40q-56 0 -95.5 -40t-39.5 -97z" />
    <glyph glyph-name="yen" unicode="&#xa5;" 
d="M497 285h-430v37h165l-189 340h65l170 -327h3l176 327h59l-191 -340h172v-37zM67 228h430v-37h-189l-1 -191h-57v191h-183v37z" />
    <glyph glyph-name="brokenbar" unicode="&#xa6;" horiz-adv-x="252" 
d="M151 414h-49v345h49v-345zM102 279h49v-417h-49v417z" />
    <glyph glyph-name="section" unicode="&#xa7;" horiz-adv-x="553" 
d="M474 298q0 -43 -24.5 -78t-68.5 -55q65 -48 65 -108q0 -65 -53 -105t-136 -40q-104 0 -169 40v63q35 -21 81.5 -36t85.5 -15q53 0 90.5 20.5t37.5 64.5q0 38 -30.5 68.5t-74 52t-87 45t-74 59.5t-30.5 82q0 82 92 125q-52 50 -52 102q0 58 45.5 93t125.5 35q78 0 130 -26
v-57q-61 34 -128 34q-50 0 -81.5 -19t-31.5 -56q0 -34 29.5 -61t71.5 -47t84 -42.5t71.5 -57.5t30.5 -81zM413 292q0 29 -21 54t-43.5 38.5t-68 36.5t-63.5 34q-70 -31 -70 -89q0 -31 18 -55.5t39.5 -37.5t65.5 -37t70 -41q73 38 73 97z" />
    <glyph glyph-name="dieresis" unicode="&#xa8;" horiz-adv-x="469" 
d="M183 586q0 -16 -10 -26.5t-26 -10.5q-17 0 -27.5 10.5t-10.5 26.5q0 14 11.5 25.5t26.5 11.5q16 0 26 -10.5t10 -26.5zM343 586q0 -16 -10.5 -26.5t-26.5 -10.5t-26.5 10.5t-10.5 26.5q0 14 11 25.5t26 11.5q16 0 26.5 -10.5t10.5 -26.5z" />
    <glyph glyph-name="copyright" unicode="&#xa9;" horiz-adv-x="838" 
d="M561 173v-42q-49 -29 -129 -29q-113 0 -175.5 65t-62.5 172q0 106 68.5 176t170.5 70q64 0 110 -21v-44q-45 24 -105 24q-82 0 -138 -55.5t-56 -149.5q0 -85 54 -141t139 -56q72 0 124 31zM777 351q0 -149 -106 -255t-255 -106t-255 106t-106 255q0 152 106.5 256.5
t259.5 104.5q147 0 251.5 -106.5t104.5 -254.5zM735 351q0 131 -93 226t-222 95q-136 0 -229.5 -93.5t-93.5 -227.5q0 -132 93.5 -226.5t225.5 -94.5t225.5 94.5t93.5 226.5z" />
    <glyph glyph-name="ordfeminine" unicode="&#xaa;" horiz-adv-x="348" 
d="M258 337l-2 1q-31 -47 -103 -47q-63 0 -90.5 27.5t-27.5 61.5q0 100 155 100h66v13q0 68 -83 68q-43 0 -106 -32v45q52 28 108 28q129 0 129 -118v-186h-36zM256 420v21h-64q-107 0 -107 -59q0 -50 76 -50q46 0 70.5 24t24.5 64z" />
    <glyph glyph-name="guillemotleft" unicode="&#xab;" horiz-adv-x="411" 
d="M105 201l137 -185h-63l-134 178v9l137 178h60zM238 201l137 -185h-63l-134 178v9l137 178h60z" />
    <glyph glyph-name="logicalnot" unicode="&#xac;" 
d="M459 321v-214h-47v169h-332v45h379z" />
    <glyph glyph-name="sfthyphen" unicode="&#xad;" horiz-adv-x="376" 
d="M61 217v53h254v-53h-254z" />
    <glyph glyph-name="registered" unicode="&#xae;" horiz-adv-x="607" 
d="M332 436l97 -112h-49l-105 128v9q99 1 99 55q0 58 -69 58h-55v-250h-36v283h95q39 0 70.5 -22.5t31.5 -64.5q0 -30 -21 -53t-58 -31zM542 461q0 -99 -70 -168.5t-169 -69.5q-107 0 -172.5 68t-65.5 170q0 98 70 168.5t168 70.5q102 0 170.5 -70t68.5 -169zM506 461
q0 84 -59.5 144t-143.5 60q-85 0 -143.5 -59.5t-58.5 -144.5q0 -86 57 -145t145 -59q84 0 143.5 60t59.5 144z" />
    <glyph glyph-name="macron" unicode="&#xaf;" horiz-adv-x="469" 
d="M97 552v48h264v-48h-264z" />
    <glyph glyph-name="degree" unicode="&#xb0;" horiz-adv-x="417" 
d="M209 413q-54 0 -86 33.5t-32 84.5q0 50 35 85.5t83 35.5q53 0 88 -35t35 -86q0 -50 -35 -84t-88 -34zM209 612q-32 0 -53.5 -24.5t-21.5 -56.5t21 -56t54 -24q37 0 59.5 24t22.5 56q0 33 -23 57t-59 24z" />
    <glyph glyph-name="plusminus" unicode="&#xb1;" 
d="M80 46h379v-46h-379v46zM293 264v-161h-46v161h-167v45h167v159h46v-159h166v-45h-166z" />
    <glyph glyph-name="twosuperior" unicode="&#xb2;" horiz-adv-x="340" 
d="M103 630l-51 6q-4 11 -4 35q0 47 37 76.5t89 29.5q53 0 90.5 -26.5t37.5 -76.5q0 -62 -100 -120q-68 -40 -89 -63q-25 -28 -28 -63h222v-40h-274q0 53 17.5 89.5t40.5 55.5t72 49q27 16 40.5 25t31 28.5t17.5 37.5q0 31 -22 47t-57 16q-36 0 -56.5 -20.5t-20.5 -50.5
q0 -9 7 -35z" />
    <glyph glyph-name="threesuperior" unicode="&#xb3;" horiz-adv-x="340" 
d="M97 591l-5 8l123 133h-164v40h248v-8l-129 -136q60 0 97.5 -33t37.5 -86q0 -57 -43 -91.5t-104 -34.5q-74 0 -124 36v52q59 -48 125 -48q43 0 70 24.5t27 60.5q0 45 -30 66t-78 21q-31 0 -51 -4z" />
    <glyph glyph-name="acute" unicode="&#xb4;" horiz-adv-x="469" 
d="M238 531h-47l104 151l63 -18z" />
    <glyph glyph-name="mu" unicode="&#xb5;" horiz-adv-x="516" 
d="M70 445h56l1 -286q0 -57 28.5 -87.5t80.5 -30.5q66 0 107 44t41 130v230h57v-445h-44l-10 64q-1 1 -3 1q-62 -75 -148 -75q-76 0 -109 37v-242h-56q-1 369 -1 660z" />
    <glyph glyph-name="mu" unicode="&#x3bc;" horiz-adv-x="516" 
d="M70 445h56l1 -286q0 -57 28.5 -87.5t80.5 -30.5q66 0 107 44t41 130v230h57v-445h-44l-10 64q-1 1 -3 1q-62 -75 -148 -75q-76 0 -109 37v-242h-56q-1 369 -1 660z" />
    <glyph glyph-name="paragraph" unicode="&#xb6;" horiz-adv-x="528" 
d="M333 327h-79q-79 0 -131 52.5t-52 129.5q0 75 52.5 128t130.5 53h79v-363zM443 690v-664q0 -193 -160 -202l-26 51q40 1 66.5 14t38.5 37t16.5 48.5t4.5 59.5v656h60z" />
    <glyph glyph-name="periodcentered" unicode="&#xb7;" horiz-adv-x="192" 
d="M142 250q0 -19 -13.5 -32.5t-32.5 -13.5q-20 0 -33 13t-13 33t13 33t33 13t33 -13t13 -33z" />
    <glyph glyph-name="cedilla" unicode="&#xb8;" horiz-adv-x="427" 
d="M330 -127q0 -38 -32.5 -63.5t-83.5 -25.5q-40 0 -82 17v42q40 -18 81 -18q31 0 47.5 12t16.5 31q0 22 -19 32.5t-45 10.5q-19 0 -31 -4l-19 12l47 101h41l-34 -70q60 -1 86.5 -23.5t26.5 -53.5z" />
    <glyph glyph-name="onesuperior" unicode="&#xb9;" horiz-adv-x="285" 
d="M194 777v-389h-48v316q-15 -10 -50 -27t-50 -27v47l140 80h8z" />
    <glyph glyph-name="ordmasculine" unicode="&#xba;" horiz-adv-x="378" 
d="M190 293q-74 0 -116.5 43.5t-42.5 110.5q0 65 46.5 110t112.5 45q68 0 113 -44.5t45 -110.5q0 -65 -45.5 -109.5t-112.5 -44.5zM190 560q-48 0 -77.5 -32.5t-29.5 -80.5q0 -49 28 -81t79 -32q50 0 78 32.5t28 80.5q0 47 -29 80t-77 33z" />
    <glyph glyph-name="guillemotright" unicode="&#xbb;" horiz-adv-x="411" 
d="M178 16l137 185l-137 180h60l137 -178v-9l-134 -178h-63zM45 16l137 185l-137 180h60l137 -178v-9l-134 -178h-63z" />
    <glyph glyph-name="onequarter" unicode="&#xbc;" horiz-adv-x="750" 
d="M660 681l-506 -700h-47l506 700h47zM213 687v-389h-48v316q-16 -10 -50.5 -27.5t-49.5 -26.5v47l140 80h8zM574 380h53l-188 -251h139v94l33 46h13v-140h58v-39h-58v-92h-46v92h-207v14z" />
    <glyph glyph-name="onehalf" unicode="&#xbd;" horiz-adv-x="750" 
d="M619 681l-506 -700h-47l506 700h47zM195 687v-389h-48v316q-15 -10 -49.5 -27.5t-50.5 -26.5v47l140 80h8zM499 240l-51 6q-4 11 -4 35q0 47 37 76.5t89 29.5q53 0 90.5 -26.5t37.5 -76.5q0 -62 -100 -120q-68 -40 -89 -63q-25 -28 -28 -63h222v-40h-274q0 53 17.5 89.5
t40.5 55.5t72 49q27 16 40.5 25t31 28.5t17.5 37.5q0 31 -22 47t-57 16q-36 0 -56.5 -20.5t-20.5 -50.5q0 -9 7 -35z" />
    <glyph glyph-name="threequarters" unicode="&#xbe;" horiz-adv-x="750" 
d="M695 681l-506 -700h-47l506 700h47zM112 501l-5 8l123 133h-164v40h248v-8l-129 -136q60 0 97.5 -33t37.5 -86q0 -57 -43 -91.5t-104 -34.5q-74 0 -124 36v52q59 -48 125 -48q43 0 70 24.5t27 60.5q0 45 -30 66t-78 21q-31 0 -51 -4zM606 380h53l-188 -251h139v94l33 46
h13v-140h58v-39h-58v-92h-46v92h-207v14z" />
    <glyph glyph-name="questiondown" unicode="&#xbf;" horiz-adv-x="492" 
d="M88 -72q0 45 22 86t54 71t64 57t54 54.5t22 53.5q0 22 -13 42l56 16q15 -33 15 -59q0 -35 -22 -68t-54 -59.5t-64 -54t-54 -62t-22 -72.5q0 -55 39.5 -90.5t109.5 -35.5q69 0 145 38v-58q-72 -33 -148 -33q-84 0 -144 46.5t-60 127.5zM270 410q0 19 13 32t32 13t31.5 -13
t12.5 -32t-12.5 -31.5t-31.5 -12.5t-32 12.5t-13 31.5z" />
    <glyph glyph-name="Agrave" unicode="&#xc0;" horiz-adv-x="612" 
d="M537 0l-68 161h-327l-68 -161h-59l285 667h14l283 -667h-60zM303 543l-140 -333h285l-141 333h-4zM348 733h-51l-137 119l67 18z" />
    <glyph glyph-name="Aacute" unicode="&#xc1;" horiz-adv-x="612" 
d="M537 0l-68 161h-327l-68 -161h-59l285 667h14l283 -667h-60zM303 543l-140 -333h285l-141 333h-4zM325 733h-51l121 137l67 -18z" />
    <glyph glyph-name="Acircumflex" unicode="&#xc2;" horiz-adv-x="612" 
d="M537 0l-68 161h-327l-68 -161h-59l285 667h14l283 -667h-60zM303 543l-140 -333h285l-141 333h-4zM452 723h-68l-76 71l-80 -71h-67l140 133h16z" />
    <glyph glyph-name="Atilde" unicode="&#xc3;" horiz-adv-x="612" 
d="M537 0l-68 161h-327l-68 -161h-59l285 667h14l283 -667h-60zM303 543l-140 -333h285l-141 333h-4zM423 860l28 -31q-26 -70 -80 -70q-24 0 -66.5 24t-57.5 24q-29 0 -54 -54l-30 31q12 30 33 50.5t49 20.5q24 0 67 -24t57 -24q29 0 54 53z" />
    <glyph glyph-name="Adieresis" unicode="&#xc4;" horiz-adv-x="612" 
d="M537 0l-68 161h-327l-68 -161h-59l285 667h14l283 -667h-60zM303 543l-140 -333h285l-141 333h-4zM265 795q0 -16 -10 -26.5t-26 -10.5q-17 0 -27.5 10.5t-10.5 26.5q0 14 11.5 25.5t26.5 11.5q16 0 26 -10.5t10 -26.5zM425 795q0 -17 -10.5 -27t-26.5 -10t-26.5 10
t-10.5 27q0 14 11 25.5t26 11.5q16 0 26.5 -10.5t10.5 -26.5z" />
    <glyph glyph-name="Aring" unicode="&#xc5;" horiz-adv-x="612" 
d="M537 0l-68 161h-327l-68 -161h-59l285 667h14l283 -667h-60zM303 543l-140 -333h285l-141 333h-4zM306 697q-40 0 -63.5 24t-23.5 61t25.5 62.5t61.5 25.5q38 0 63 -25t25 -63q0 -36 -25 -60.5t-63 -24.5zM306 836q-22 0 -36.5 -16t-14.5 -38t14 -37t37 -15q24 0 38 15.5
t14 36.5q0 23 -14.5 38.5t-37.5 15.5z" />
    <glyph glyph-name="AE" unicode="&#xc6;" horiz-adv-x="955" 
d="M925 0h-439v161h-304l-132 -161h-70l548 662h370v-52h-354v-234h329v-52h-329v-271h381v-53zM482 526l-260 -316h264v316h-4z" />
    <glyph glyph-name="Ccedilla" unicode="&#xc7;" horiz-adv-x="611" 
d="M466 -132q0 -38 -32.5 -63.5t-83.5 -25.5q-40 0 -82 17v42q40 -18 81 -18q31 0 47.5 12t16.5 31q0 22 -19 32.5t-45 10.5q-19 0 -31 -4l-19 12l37 81q-133 16 -207 107t-74 225q0 149 98 247.5t242 98.5q108 0 165 -31v-57q-74 36 -160 36q-120 0 -202 -80t-82 -214
q0 -129 74 -206.5t207 -77.5q96 0 189 53v-57q-37 -23 -91.5 -35.5t-103.5 -12.5q-3 0 -8.5 0.5t-7.5 0.5l-22 -47q60 -1 86.5 -23.5t26.5 -53.5z" />
    <glyph glyph-name="Egrave" unicode="&#xc8;" horiz-adv-x="556" 
d="M526 53v-53h-441v662h414v-52h-355v-234h330v-52h-330v-271h382zM360 733h-51l-137 119l67 18z" />
    <glyph glyph-name="Eacute" unicode="&#xc9;" horiz-adv-x="556" 
d="M526 53v-53h-441v662h414v-52h-355v-234h330v-52h-330v-271h382zM284 733h-51l121 137l67 -18z" />
    <glyph glyph-name="Ecircumflex" unicode="&#xca;" horiz-adv-x="556" 
d="M526 53v-53h-441v662h414v-52h-355v-234h330v-52h-330v-271h382zM433 728h-68l-76 71l-80 -71h-67l140 133h16z" />
    <glyph glyph-name="Edieresis" unicode="&#xcb;" horiz-adv-x="556" 
d="M526 53v-53h-441v662h414v-52h-355v-234h330v-52h-330v-271h382zM240 795q0 -16 -10 -26.5t-26 -10.5q-17 0 -27.5 10.5t-10.5 26.5q0 14 11.5 25.5t26.5 11.5q16 0 26 -10.5t10 -26.5zM400 795q0 -17 -10 -27t-27 -10t-27 10t-10 27q0 14 11 25.5t26 11.5
q16 0 26.5 -10.5t10.5 -26.5z" />
    <glyph glyph-name="Igrave" unicode="&#xcc;" horiz-adv-x="248" 
d="M153 0h-58v662h58v-662zM172 733h-51l-137 119l67 18z" />
    <glyph glyph-name="Iacute" unicode="&#xcd;" horiz-adv-x="248" 
d="M153 0h-58v662h58v-662zM136 733h-51l121 137l67 -18z" />
    <glyph glyph-name="Icircumflex" unicode="&#xce;" horiz-adv-x="248" 
d="M153 0h-58v662h58v-662zM268 728h-68l-76 71l-80 -71h-67l140 133h16z" />
    <glyph glyph-name="Idieresis" unicode="&#xcf;" horiz-adv-x="248" 
d="M153 0h-58v662h58v-662zM79 795q0 -16 -10 -26.5t-26 -10.5q-17 0 -27.5 10.5t-10.5 26.5q0 14 11.5 25.5t26.5 11.5q16 0 26 -10.5t10 -26.5zM239 795q0 -17 -10.5 -27t-26.5 -10t-26.5 10t-10.5 27q0 14 11 25.5t26 11.5q16 0 26.5 -10.5t10.5 -26.5z" />
    <glyph glyph-name="Eth" unicode="&#xd0;" horiz-adv-x="680" 
d="M316 0h-231v318h-63v51h63v293h221q145 0 232 -89.5t87 -238.5q0 -150 -83 -242t-226 -92zM567 332q0 122 -65.5 200t-194.5 78h-164v-241h219v-51h-219v-265h169q126 0 190.5 76t64.5 203z" />
    <glyph glyph-name="Ntilde" unicode="&#xd1;" horiz-adv-x="721" 
d="M141 0h-56v671h15l476 -546h4v537h56v-669h-15l-477 549h-3v-542zM487 848l28 -31q-26 -70 -80 -70q-24 0 -66.5 24t-57.5 24q-29 0 -54 -54l-30 31q12 30 33 50.5t49 20.5q24 0 67 -24t57 -24q29 0 54 53z" />
    <glyph glyph-name="Ograve" unicode="&#xd2;" horiz-adv-x="787" 
d="M395 -10q-158 0 -249 96t-91 245q0 143 99.5 242t240.5 99q145 0 241 -98.5t96 -242.5q0 -145 -95.5 -243t-241.5 -98zM395 619q-122 0 -200.5 -83t-78.5 -205q0 -126 75.5 -207t203.5 -81q124 0 201.5 83.5t77.5 204.5t-78.5 204.5t-200.5 83.5zM450 733h-51l-137 119
l67 18z" />
    <glyph glyph-name="Oacute" unicode="&#xd3;" horiz-adv-x="787" 
d="M395 -10q-158 0 -249 96t-91 245q0 143 99.5 242t240.5 99q145 0 241 -98.5t96 -242.5q0 -145 -95.5 -243t-241.5 -98zM395 619q-122 0 -200.5 -83t-78.5 -205q0 -126 75.5 -207t203.5 -81q124 0 201.5 83.5t77.5 204.5t-78.5 204.5t-200.5 83.5zM411 733h-51l121 137
l67 -18z" />
    <glyph glyph-name="Ocircumflex" unicode="&#xd4;" horiz-adv-x="787" 
d="M395 -10q-158 0 -249 96t-91 245q0 143 99.5 242t240.5 99q145 0 241 -98.5t96 -242.5q0 -145 -95.5 -243t-241.5 -98zM395 619q-122 0 -200.5 -83t-78.5 -205q0 -126 75.5 -207t203.5 -81q124 0 201.5 83.5t77.5 204.5t-78.5 204.5t-200.5 83.5zM540 728h-68l-76 71
l-80 -71h-67l140 133h16z" />
    <glyph glyph-name="Otilde" unicode="&#xd5;" horiz-adv-x="787" 
d="M395 -10q-158 0 -249 96t-91 245q0 143 99.5 242t240.5 99q145 0 241 -98.5t96 -242.5q0 -145 -95.5 -243t-241.5 -98zM395 619q-122 0 -200.5 -83t-78.5 -205q0 -126 75.5 -207t203.5 -81q124 0 201.5 83.5t77.5 204.5t-78.5 204.5t-200.5 83.5zM516 861l28 -31
q-26 -70 -80 -70q-24 0 -66.5 24t-57.5 24q-29 0 -54 -54l-30 31q12 30 33 50.5t49 20.5q24 0 67 -24t57 -24q29 0 54 53z" />
    <glyph glyph-name="Odieresis" unicode="&#xd6;" horiz-adv-x="787" 
d="M395 -10q-158 0 -249 96t-91 245q0 143 99.5 242t240.5 99q145 0 241 -98.5t96 -242.5q0 -145 -95.5 -243t-241.5 -98zM395 619q-122 0 -200.5 -83t-78.5 -205q0 -126 75.5 -207t203.5 -81q124 0 201.5 83.5t77.5 204.5t-78.5 204.5t-200.5 83.5zM342 795
q0 -16 -10 -26.5t-26 -10.5q-17 0 -27.5 10.5t-10.5 26.5q0 14 11.5 25.5t26.5 11.5q16 0 26 -10.5t10 -26.5zM502 795q0 -17 -10 -27t-27 -10t-27 10t-10 27q0 14 11 25.5t26 11.5q16 0 26.5 -10.5t10.5 -26.5z" />
    <glyph glyph-name="multiply" unicode="&#xd7;" 
d="M272 259l-37.5 -37.5l-44.5 -44.5l-38 -38l-33 33l37.5 37.5l44.5 44.5l38 38q-13 13 -37.5 37t-44 43.5t-36.5 37.5l32 32q17 -18 36.5 -37.5t44 -43.5t37.5 -37l116 117l33 -34q-17 -17 -36.5 -36t-43 -43t-36.5 -37l117 -117l-32 -32z" />
    <glyph glyph-name="Oslash" unicode="&#xd8;" horiz-adv-x="787" 
d="M395 -10q-114 0 -198 54l-35 -44h-56l56 70q-107 95 -107 261q0 143 99.5 242t240.5 99q110 0 197 -61l41 51h55l-63 -79q107 -99 107 -252q0 -145 -95.5 -243t-241.5 -98zM395 619q-122 0 -200.5 -83t-78.5 -205q0 -135 83 -215l359 452q-70 51 -163 51zM674 331
q0 124 -83 209l-359 -451q70 -46 163 -46q124 0 201.5 83.5t77.5 204.5z" />
    <glyph glyph-name="Ugrave" unicode="&#xd9;" horiz-adv-x="676" 
d="M534 246v416h57v-422q0 -111 -67.5 -180.5t-185.5 -69.5q-119 0 -186 68.5t-67 183.5v420h57v-412q0 -90 49 -148t147 -58q97 0 146.5 55.5t49.5 146.5zM395 733h-51l-137 119l67 18z" />
    <glyph glyph-name="Uacute" unicode="&#xda;" horiz-adv-x="676" 
d="M534 246v416h57v-422q0 -111 -67.5 -180.5t-185.5 -69.5q-119 0 -186 68.5t-67 183.5v420h57v-412q0 -90 49 -148t147 -58q97 0 146.5 55.5t49.5 146.5zM340 733h-51l121 137l67 -18z" />
    <glyph glyph-name="Ucircumflex" unicode="&#xdb;" horiz-adv-x="676" 
d="M534 246v416h57v-422q0 -111 -67.5 -180.5t-185.5 -69.5q-119 0 -186 68.5t-67 183.5v420h57v-412q0 -90 49 -148t147 -58q97 0 146.5 55.5t49.5 146.5zM487 728h-68l-76 71l-80 -71h-67l140 133h16z" />
    <glyph glyph-name="Udieresis" unicode="&#xdc;" horiz-adv-x="676" 
d="M534 246v416h57v-422q0 -111 -67.5 -180.5t-185.5 -69.5q-119 0 -186 68.5t-67 183.5v420h57v-412q0 -90 49 -148t147 -58q97 0 146.5 55.5t49.5 146.5zM295 795q0 -16 -10 -26.5t-26 -10.5q-17 0 -27.5 10.5t-10.5 26.5q0 14 11.5 25.5t26.5 11.5q16 0 26 -10.5
t10 -26.5zM455 795q0 -17 -10.5 -27t-26.5 -10t-26.5 10t-10.5 27q0 14 11 25.5t26 11.5q16 0 26.5 -10.5t10.5 -26.5z" />
    <glyph glyph-name="Yacute" unicode="&#xdd;" 
d="M279 351h4l186 311h61l-221 -367v-295h-58v295l-241 367h65zM280 726h-51l121 137l67 -18z" />
    <glyph glyph-name="Thorn" unicode="&#xde;" horiz-adv-x="563" 
d="M143 0h-58v662h58v-103h182q92 0 150 -56.5t58 -142.5q0 -29 -10.5 -61t-33 -66t-67.5 -55.5t-105 -21.5h-174v-156zM143 507v-300h170q73 0 117.5 41t44.5 108q0 26 -8.5 50.5t-26 48t-51 38t-77.5 14.5h-169z" />
    <glyph glyph-name="germandbls" unicode="&#xdf;" horiz-adv-x="556" 
d="M122 509v-509h-57v508q0 97 54.5 156.5t148.5 59.5q84 0 136.5 -47.5t52.5 -122.5q0 -15 -4 -34.5t-23.5 -49t-51.5 -46.5v-5q58 -18 95.5 -72.5t37.5 -126.5q0 -93 -61 -161.5t-160 -68.5q-29 0 -63 8v49q34 -8 60 -8q73 0 120 50.5t47 133.5q0 88 -52 129.5t-130 41.5
v47q66 0 96.5 36t30.5 78q0 57 -38.5 89.5t-90.5 32.5q-36 0 -64 -11.5t-43.5 -29t-25 -41t-12.5 -44t-3 -42.5z" />
    <glyph glyph-name="agrave" unicode="&#xe0;" horiz-adv-x="495" 
d="M366 57l-5 1q-60 -68 -155 -68q-86 0 -123 40t-37 88q0 147 206 147h112v24q0 118 -129 118q-68 0 -145 -43v52q30 18 73 28.5t75 10.5q96 0 139 -44t43 -130v-281h-44zM364 188v33h-118q-142 0 -142 -98q0 -41 33 -63t82 -22q70 0 107.5 42.5t37.5 107.5zM296 531h-47
l-120 133l63 18z" />
    <glyph glyph-name="aacute" unicode="&#xe1;" horiz-adv-x="495" 
d="M366 57l-5 1q-60 -68 -155 -68q-86 0 -123 40t-37 88q0 147 206 147h112v24q0 118 -129 118q-68 0 -145 -43v52q30 18 73 28.5t75 10.5q96 0 139 -44t43 -130v-281h-44zM364 188v33h-118q-142 0 -142 -98q0 -41 33 -63t82 -22q70 0 107.5 42.5t37.5 107.5zM252 531h-47
l104 151l63 -18z" />
    <glyph glyph-name="acircumflex" unicode="&#xe2;" horiz-adv-x="495" 
d="M366 57l-5 1q-60 -68 -155 -68q-86 0 -123 40t-37 88q0 147 206 147h112v24q0 118 -129 118q-68 0 -145 -43v52q30 18 73 28.5t75 10.5q96 0 139 -44t43 -130v-281h-44zM364 188v33h-118q-142 0 -142 -98q0 -41 33 -63t82 -22q70 0 107.5 42.5t37.5 107.5zM390 529h-66
l-77 82l-79 -82h-63l137 143h16z" />
    <glyph glyph-name="atilde" unicode="&#xe3;" horiz-adv-x="495" 
d="M366 57l-5 1q-60 -68 -155 -68q-86 0 -123 40t-37 88q0 147 206 147h112v24q0 118 -129 118q-68 0 -145 -43v52q30 18 73 28.5t75 10.5q96 0 139 -44t43 -130v-281h-44zM364 188v33h-118q-142 0 -142 -98q0 -41 33 -63t82 -22q70 0 107.5 42.5t37.5 107.5zM362 647
l28 -31q-26 -70 -80 -70q-24 0 -66.5 24t-57.5 24q-29 0 -54 -54l-30 31q12 30 33 50.5t49 20.5q24 0 67 -24t57 -24q29 0 54 53z" />
    <glyph glyph-name="adieresis" unicode="&#xe4;" horiz-adv-x="495" 
d="M366 57l-5 1q-60 -68 -155 -68q-86 0 -123 40t-37 88q0 147 206 147h112v24q0 118 -129 118q-68 0 -145 -43v52q30 18 73 28.5t75 10.5q96 0 139 -44t43 -130v-281h-44zM364 188v33h-118q-142 0 -142 -98q0 -41 33 -63t82 -22q70 0 107.5 42.5t37.5 107.5zM205 586
q0 -16 -10 -26.5t-26 -10.5q-17 0 -27.5 10.5t-10.5 26.5q0 14 11.5 25.5t26.5 11.5q16 0 26 -10.5t10 -26.5zM365 586q0 -16 -10.5 -26.5t-26.5 -10.5t-26.5 10.5t-10.5 26.5q0 14 11 25.5t26 11.5q16 0 26.5 -10.5t10.5 -26.5z" />
    <glyph glyph-name="aring" unicode="&#xe5;" horiz-adv-x="495" 
d="M366 57l-5 1q-60 -68 -155 -68q-86 0 -123 40t-37 88q0 147 206 147h112v24q0 118 -129 118q-68 0 -145 -43v52q30 18 73 28.5t75 10.5q96 0 139 -44t43 -130v-281h-44zM364 188v33h-118q-142 0 -142 -98q0 -41 33 -63t82 -22q70 0 107.5 42.5t37.5 107.5zM249 524
q-40 0 -63.5 24t-23.5 61t25.5 62.5t61.5 25.5q38 0 63 -25t25 -63q0 -36 -25 -60.5t-63 -24.5zM249 663q-22 0 -36.5 -16t-14.5 -38t14 -37t37 -15q24 0 38 15.5t14 36.5q0 23 -14.5 38.5t-37.5 15.5z" />
    <glyph glyph-name="ae" unicode="&#xe6;" horiz-adv-x="817" 
d="M753 97v-57q-65 -50 -167 -50q-68 0 -121.5 32.5t-76.5 86.5q-55 -120 -193 -120q-87 0 -126 41t-39 88q0 147 219 147h103v25q0 118 -128 118q-67 0 -146 -43v52q31 18 74 28.5t75 10.5q132 0 168 -90q64 90 174 90q96 0 149.5 -60.5t53.5 -156.5v-18h-360
q2 -80 51.5 -131t119.5 -51q97 0 170 58zM352 195v26h-98q-166 0 -166 -98q0 -41 33 -63t86 -22q70 0 107.5 45t37.5 112zM570 406q-66 0 -108 -37t-49 -105h305q-6 68 -44.5 105t-103.5 37z" />
    <glyph glyph-name="ccedilla" unicode="&#xe7;" horiz-adv-x="432" 
d="M354 -128q0 -38 -32.5 -63.5t-83.5 -25.5q-40 0 -82 17v42q40 -18 81 -18q31 0 47.5 12t16.5 31q0 22 -19 32.5t-45 10.5q-19 0 -31 -4l-19 12l35 77q-84 15 -128 75.5t-44 147.5q0 100 65 168.5t163 68.5q67 0 111 -20v-54q-42 26 -104 26q-75 0 -126 -51t-51 -138
q0 -80 47.5 -129.5t128.5 -49.5q76 0 123 34v-54q-50 -29 -133 -29h-13l-20 -41q60 -1 86.5 -23.5t26.5 -53.5z" />
    <glyph glyph-name="egrave" unicode="&#xe8;" horiz-adv-x="519" 
d="M450 97v-57q-66 -50 -168 -50q-107 0 -169.5 63.5t-62.5 170.5q0 98 62 164.5t154 66.5q95 0 149 -65t54 -162q0 -14 -1 -20h-359q2 -78 50.5 -123.5t119.5 -45.5q97 0 171 58zM267 405q-66 0 -108 -41t-49 -110h305q-7 69 -46 110t-102 41zM313 531h-47l-120 133l63 18z
" />
    <glyph glyph-name="eacute" unicode="&#xe9;" horiz-adv-x="519" 
d="M450 97v-57q-66 -50 -168 -50q-107 0 -169.5 63.5t-62.5 170.5q0 98 62 164.5t154 66.5q95 0 149 -65t54 -162q0 -14 -1 -20h-359q2 -78 50.5 -123.5t119.5 -45.5q97 0 171 58zM267 405q-66 0 -108 -41t-49 -110h305q-7 69 -46 110t-102 41zM265 531h-47l104 151l63 -18z
" />
    <glyph glyph-name="ecircumflex" unicode="&#xea;" horiz-adv-x="519" 
d="M450 97v-57q-66 -50 -168 -50q-107 0 -169.5 63.5t-62.5 170.5q0 98 62 164.5t154 66.5q95 0 149 -65t54 -162q0 -14 -1 -20h-359q2 -78 50.5 -123.5t119.5 -45.5q97 0 171 58zM267 405q-66 0 -108 -41t-49 -110h305q-7 69 -46 110t-102 41zM410 529h-66l-77 82l-79 -82
h-63l137 143h16z" />
    <glyph glyph-name="edieresis" unicode="&#xeb;" horiz-adv-x="519" 
d="M450 97v-57q-66 -50 -168 -50q-107 0 -169.5 63.5t-62.5 170.5q0 98 62 164.5t154 66.5q95 0 149 -65t54 -162q0 -14 -1 -20h-359q2 -78 50.5 -123.5t119.5 -45.5q97 0 171 58zM267 405q-66 0 -108 -41t-49 -110h305q-7 69 -46 110t-102 41zM222 586q0 -16 -10 -26.5
t-26 -10.5q-17 0 -27.5 10.5t-10.5 26.5q0 14 11.5 25.5t26.5 11.5q16 0 26 -10.5t10 -26.5zM382 586q0 -16 -10 -26.5t-27 -10.5t-27 10.5t-10 26.5q0 14 11 25.5t26 11.5q16 0 26.5 -10.5t10.5 -26.5z" />
    <glyph glyph-name="igrave" unicode="&#xec;" horiz-adv-x="227" 
d="M149 531h-47l-120 133l63 18zM141 0h-57v445h57v-445z" />
    <glyph glyph-name="iacute" unicode="&#xed;" horiz-adv-x="227" 
d="M125 531h-47l104 151l63 -18zM141 0h-57v445h57v-445z" />
    <glyph glyph-name="icircumflex" unicode="&#xee;" horiz-adv-x="227" 
d="M141 0h-57v445h57v-445zM255 529h-66l-77 82l-79 -82h-63l137 143h16z" />
    <glyph glyph-name="idieresis" unicode="&#xef;" horiz-adv-x="227" 
d="M72 586q0 -16 -10 -26.5t-26 -10.5q-17 0 -27.5 10.5t-10.5 26.5q0 14 11.5 25.5t26.5 11.5q16 0 26 -10.5t10 -26.5zM232 586q0 -16 -10 -26.5t-27 -10.5t-27 10.5t-10 26.5q0 14 11 25.5t26 11.5q16 0 26.5 -10.5t10.5 -26.5zM141 0h-57v445h57v-445z" />
    <glyph glyph-name="eth" unicode="&#xf0;" horiz-adv-x="550" 
d="M237 542l67 46q-56 52 -130 93l45 28q72 -39 128 -92l103 69v-53l-72 -48q127 -148 127 -329q0 -68 -22.5 -126t-77 -99t-132.5 -41q-106 0 -167 63t-61 161q0 96 65.5 161t161.5 65q51 0 97.5 -23t72.5 -69l3 1q-23 111 -110 208l-98 -63v48zM273 391
q-76 0 -123.5 -50.5t-47.5 -126.5t46 -126.5t125 -50.5t124 53.5t45 124.5q0 74 -47 125t-122 51z" />
    <glyph glyph-name="ntilde" unicode="&#xf1;" horiz-adv-x="535" 
d="M460 0h-57v255q0 70 -30 110t-86 40q-67 0 -111 -44.5t-44 -130.5v-230h-57v445h44l9 -67h4q63 77 158 77q82 0 126 -49.5t44 -139.5v-266zM373 645l28 -31q-26 -70 -80 -70q-24 0 -66.5 24t-57.5 24q-29 0 -54 -54l-30 31q12 30 33 50.5t49 20.5q24 0 67 -24t57 -24
q29 0 54 53z" />
    <glyph glyph-name="ograve" unicode="&#xf2;" horiz-adv-x="560" 
d="M281 -10q-106 0 -168.5 66t-62.5 167q0 97 67.5 164.5t163.5 67.5q99 0 164 -67t65 -165q0 -99 -65.5 -166t-163.5 -67zM281 407q-76 0 -124.5 -53.5t-48.5 -130.5q0 -80 46.5 -132.5t126.5 -52.5q78 0 125 53.5t47 131.5q0 77 -47.5 130.5t-124.5 53.5zM327 531h-47
l-120 133l63 18z" />
    <glyph glyph-name="oacute" unicode="&#xf3;" horiz-adv-x="560" 
d="M281 -10q-106 0 -168.5 66t-62.5 167q0 97 67.5 164.5t163.5 67.5q99 0 164 -67t65 -165q0 -99 -65.5 -166t-163.5 -67zM281 407q-76 0 -124.5 -53.5t-48.5 -130.5q0 -80 46.5 -132.5t126.5 -52.5q78 0 125 53.5t47 131.5q0 77 -47.5 130.5t-124.5 53.5zM298 531h-47
l104 151l63 -18z" />
    <glyph glyph-name="ocircumflex" unicode="&#xf4;" horiz-adv-x="560" 
d="M281 -10q-106 0 -168.5 66t-62.5 167q0 97 67.5 164.5t163.5 67.5q99 0 164 -67t65 -165q0 -99 -65.5 -166t-163.5 -67zM281 407q-76 0 -124.5 -53.5t-48.5 -130.5q0 -80 46.5 -132.5t126.5 -52.5q78 0 125 53.5t47 131.5q0 77 -47.5 130.5t-124.5 53.5zM428 529h-66
l-77 82l-79 -82h-63l137 143h16z" />
    <glyph glyph-name="otilde" unicode="&#xf5;" horiz-adv-x="560" 
d="M281 -10q-106 0 -168.5 66t-62.5 167q0 97 67.5 164.5t163.5 67.5q99 0 164 -67t65 -165q0 -99 -65.5 -166t-163.5 -67zM281 407q-76 0 -124.5 -53.5t-48.5 -130.5q0 -80 46.5 -132.5t126.5 -52.5q78 0 125 53.5t47 131.5q0 77 -47.5 130.5t-124.5 53.5zM399 645l28 -31
q-26 -70 -80 -70q-24 0 -66.5 24t-57.5 24q-29 0 -54 -54l-30 31q12 30 33 50.5t49 20.5q24 0 67 -24t57 -24q29 0 54 53z" />
    <glyph glyph-name="odieresis" unicode="&#xf6;" horiz-adv-x="560" 
d="M281 -10q-106 0 -168.5 66t-62.5 167q0 97 67.5 164.5t163.5 67.5q99 0 164 -67t65 -165q0 -99 -65.5 -166t-163.5 -67zM281 407q-76 0 -124.5 -53.5t-48.5 -130.5q0 -80 46.5 -132.5t126.5 -52.5q78 0 125 53.5t47 131.5q0 77 -47.5 130.5t-124.5 53.5zM234 586
q0 -16 -10 -26.5t-26 -10.5q-17 0 -27.5 10.5t-10.5 26.5q0 14 11.5 25.5t26.5 11.5q16 0 26 -10.5t10 -26.5zM394 586q0 -16 -10 -26.5t-27 -10.5t-27 10.5t-10 26.5q0 14 11 25.5t26 11.5q16 0 26.5 -10.5t10.5 -26.5z" />
    <glyph glyph-name="divide" unicode="&#xf7;" 
d="M314 432q0 -18 -13 -31t-30 -13q-18 0 -31 13t-13 31t12.5 30.5t30.5 12.5q19 0 31.5 -12.5t12.5 -30.5zM458 276h-376v47h376v-47zM314 164q0 -18 -13 -31t-30 -13q-18 0 -31 13.5t-13 30.5q0 18 12.5 30t30.5 12q19 0 31.5 -12t12.5 -30z" />
    <glyph glyph-name="oslash" unicode="&#xf8;" horiz-adv-x="550" 
d="M276 -10q-82 0 -140 41l-28 -31h-54l52 57q-61 64 -61 166q0 97 67.5 164.5t163.5 67.5q83 0 143 -49l34 38h53l-58 -65q57 -65 57 -156q0 -99 -65.5 -166t-163.5 -67zM276 407q-76 0 -124.5 -53.5t-48.5 -130.5q0 -74 39 -125l243 270q-47 39 -109 39zM448 223
q0 66 -36 116l-241 -269q43 -32 105 -32q78 0 125 53.5t47 131.5z" />
    <glyph glyph-name="ugrave" unicode="&#xf9;" horiz-adv-x="521" 
d="M75 445h56v-261q0 -143 110 -143q66 0 107 44t41 130v230h57v-445h-44l-10 64q-1 1 -3 1q-62 -75 -148 -75q-166 0 -166 182v273zM306 531h-47l-120 133l63 18z" />
    <glyph glyph-name="uacute" unicode="&#xfa;" horiz-adv-x="521" 
d="M75 445h56v-261q0 -143 110 -143q66 0 107 44t41 130v230h57v-445h-44l-10 64q-1 1 -3 1q-62 -75 -148 -75q-166 0 -166 182v273zM270 531h-47l104 151l63 -18z" />
    <glyph glyph-name="ucircumflex" unicode="&#xfb;" horiz-adv-x="521" 
d="M75 445h56v-261q0 -143 110 -143q66 0 107 44t41 130v230h57v-445h-44l-10 64q-1 1 -3 1q-62 -75 -148 -75q-166 0 -166 182v273zM406 529h-66l-77 82l-79 -82h-63l137 143h16z" />
    <glyph glyph-name="udieresis" unicode="&#xfc;" horiz-adv-x="521" 
d="M75 445h56v-261q0 -143 110 -143q66 0 107 44t41 130v230h57v-445h-44l-10 64q-1 1 -3 1q-62 -75 -148 -75q-166 0 -166 182v273zM216 586q0 -16 -10 -26.5t-26 -10.5q-17 0 -27.5 10.5t-10.5 26.5q0 14 11.5 25.5t26.5 11.5q16 0 26 -10.5t10 -26.5zM376 586
q0 -16 -10 -26.5t-27 -10.5t-27 10.5t-10 26.5q0 14 11 25.5t26 11.5q16 0 26.5 -10.5t10.5 -26.5z" />
    <glyph glyph-name="yacute" unicode="&#xfd;" horiz-adv-x="442" 
d="M221 81h6l149 364h56l-274 -660h-59l95 230l-184 430h62zM239 528h-47l104 151l63 -18z" />
    <glyph glyph-name="thorn" unicode="&#xfe;" horiz-adv-x="568" 
d="M125 68l-5 -3v-280h-55v926h56v-336l5 -1q29 39 74.5 60t95.5 21q105 0 166 -64.5t61 -167.5q0 -98 -67 -165.5t-163 -67.5q-50 0 -96 20.5t-72 57.5zM292 39q76 0 124.5 53t48.5 131q0 80 -46.5 132.5t-126.5 52.5q-78 0 -125.5 -54t-47.5 -131q0 -78 48 -131t125 -53z
" />
    <glyph glyph-name="ydieresis" unicode="&#xff;" horiz-adv-x="442" 
d="M221 81h6l149 364h56l-274 -660h-59l95 230l-184 430h62zM187 574q0 -16 -10 -26.5t-26 -10.5q-17 0 -27.5 10.5t-10.5 26.5q0 14 11.5 25.5t26.5 11.5q16 0 26 -10.5t10 -26.5zM347 574q0 -16 -10.5 -26.5t-26.5 -10.5t-26.5 10.5t-10.5 26.5q0 14 11 25.5t26 11.5
q16 0 26.5 -10.5t10.5 -26.5z" />
    <glyph glyph-name="Amacron" unicode="&#x100;" horiz-adv-x="612" 
d="M537 0l-68 161h-327l-68 -161h-59l285 667h14l283 -667h-60zM303 543l-140 -333h285l-141 333h-4zM167 762v51h279v-51h-279z" />
    <glyph glyph-name="amacron" unicode="&#x101;" horiz-adv-x="495" 
d="M366 57l-5 1q-60 -68 -155 -68q-86 0 -123 40t-37 88q0 147 206 147h112v24q0 118 -129 118q-68 0 -145 -43v52q30 18 73 28.5t75 10.5q96 0 139 -44t43 -130v-281h-44zM364 188v33h-118q-142 0 -142 -98q0 -41 33 -63t82 -22q70 0 107.5 42.5t37.5 107.5zM113 552v48
h264v-48h-264z" />
    <glyph glyph-name="Abreve" unicode="&#x102;" horiz-adv-x="612" 
d="M537 0l-68 161h-327l-68 -161h-59l285 667h14l283 -667h-60zM303 543l-140 -333h285l-141 333h-4zM389 858h47q-2 -56 -35.5 -95.5t-93.5 -39.5q-57 0 -90.5 39t-35.5 96h47q0 -40 21 -67.5t57 -27.5q77 0 83 95z" />
    <glyph glyph-name="abreve" unicode="&#x103;" horiz-adv-x="495" 
d="M366 57l-5 1q-60 -68 -155 -68q-86 0 -123 40t-37 88q0 147 206 147h112v24q0 118 -129 118q-68 0 -145 -43v52q30 18 73 28.5t75 10.5q96 0 139 -44t43 -130v-281h-44zM364 188v33h-118q-142 0 -142 -98q0 -41 33 -63t82 -22q70 0 107.5 42.5t37.5 107.5zM325 672h47
q-2 -56 -35.5 -95.5t-93.5 -39.5q-57 0 -90.5 39t-35.5 96h47q0 -40 21 -67.5t57 -27.5q77 0 83 95z" />
    <glyph glyph-name="Aogonek" unicode="&#x104;" horiz-adv-x="612" 
d="M597 0h-56q-39 -31 -60.5 -66t-21.5 -62q0 -46 46 -46t99 34l-5 -45q-49 -30 -108 -30q-85 0 -85 75q0 18 8 41t37.5 58t76.5 62l-59 140h-327l-68 -161h-59l285 667h14zM303 543l-140 -333h285l-141 333h-4z" />
    <glyph glyph-name="aogonek" unicode="&#x105;" horiz-adv-x="495" 
d="M366 57l-5 1q-60 -68 -155 -68q-86 0 -123 40t-37 88q0 147 206 147h112v24q0 118 -129 118q-68 0 -145 -43v52q30 18 73 28.5t75 10.5q96 0 139 -44t43 -130v-281h-18q-41 -31 -63.5 -67.5t-22.5 -63.5q0 -46 46 -46t99 34l-5 -45q-49 -30 -108 -30q-85 0 -85 75
q0 29 25 73t86 82zM364 188v33h-118q-142 0 -142 -98q0 -41 33 -63t82 -22q70 0 107.5 42.5t37.5 107.5z" />
    <glyph glyph-name="Cacute" unicode="&#x106;" horiz-adv-x="611" 
d="M586 96v-57q-37 -23 -91.5 -35.5t-103.5 -12.5q-158 0 -247 94.5t-89 241.5q0 149 98 247.5t242 98.5q108 0 165 -31v-57q-74 36 -160 36q-120 0 -202 -80t-82 -214q0 -129 74 -206.5t207 -77.5q96 0 189 53zM365 733h-51l121 137l67 -18z" />
    <glyph glyph-name="cacute" unicode="&#x107;" horiz-adv-x="432" 
d="M407 73v-54q-50 -29 -133 -29q-108 0 -166 64t-58 164t65 168.5t163 68.5q67 0 111 -20v-54q-42 26 -104 26q-75 0 -126 -51t-51 -138q0 -80 47.5 -129.5t128.5 -49.5q76 0 123 34zM251 531h-47l104 151l63 -18z" />
    <glyph glyph-name="Ccircumflex" unicode="&#x108;" horiz-adv-x="611" 
d="M586 96v-57q-37 -23 -91.5 -35.5t-103.5 -12.5q-158 0 -247 94.5t-89 241.5q0 149 98 247.5t242 98.5q108 0 165 -31v-57q-74 36 -160 36q-120 0 -202 -80t-82 -214q0 -129 74 -206.5t207 -77.5q96 0 189 53zM528 728h-68l-76 71l-80 -71h-67l140 133h16z" />
    <glyph glyph-name="ccircumflex" unicode="&#x109;" horiz-adv-x="432" 
d="M407 73v-54q-50 -29 -133 -29q-108 0 -166 64t-58 164t65 168.5t163 68.5q67 0 111 -20v-54q-42 26 -104 26q-75 0 -126 -51t-51 -138q0 -80 47.5 -129.5t128.5 -49.5q76 0 123 34zM399 529h-66l-77 82l-79 -82h-63l137 143h16z" />
    <glyph glyph-name="Cdotaccent" unicode="&#x10a;" horiz-adv-x="611" 
d="M586 96v-57q-37 -23 -91.5 -35.5t-103.5 -12.5q-158 0 -247 94.5t-89 241.5q0 149 98 247.5t242 98.5q108 0 165 -31v-57q-74 36 -160 36q-120 0 -202 -80t-82 -214q0 -129 74 -206.5t207 -77.5q96 0 189 53zM409 799q0 -17 -10.5 -27.5t-27.5 -10.5t-28 10.5t-11 27.5
q0 15 11.5 27t27.5 12t27 -11t11 -28z" />
    <glyph glyph-name="cdotaccent" unicode="&#x10b;" horiz-adv-x="432" 
d="M407 73v-54q-50 -29 -133 -29q-108 0 -166 64t-58 164t65 168.5t163 68.5q67 0 111 -20v-54q-42 26 -104 26q-75 0 -126 -51t-51 -138q0 -80 47.5 -129.5t128.5 -49.5q76 0 123 34zM299 589q0 -17 -10.5 -27.5t-27.5 -10.5t-28 10.5t-11 27.5q0 15 11.5 27t27.5 12
t27 -11t11 -28z" />
    <glyph glyph-name="Ccaron" unicode="&#x10c;" horiz-adv-x="611" 
d="M586 96v-57q-37 -23 -91.5 -35.5t-103.5 -12.5q-158 0 -247 94.5t-89 241.5q0 149 98 247.5t242 98.5q108 0 165 -31v-57q-74 36 -160 36q-120 0 -202 -80t-82 -214q0 -129 74 -206.5t207 -77.5q96 0 189 53zM451 861h66l-135 -133h-16l-140 133h67l80 -78z" />
    <glyph glyph-name="ccaron" unicode="&#x10d;" horiz-adv-x="432" 
d="M407 73v-54q-50 -29 -133 -29q-108 0 -166 64t-58 164t65 168.5t163 68.5q67 0 111 -20v-54q-42 26 -104 26q-75 0 -126 -51t-51 -138q0 -80 47.5 -129.5t128.5 -49.5q76 0 123 34zM338 672h65l-132 -143h-16l-137 143h63l81 -81z" />
    <glyph glyph-name="Dcaron" unicode="&#x10e;" horiz-adv-x="680" 
d="M567 332q0 122 -65.5 200t-194.5 78h-164v-557h169q126 0 190.5 76t64.5 203zM316 0h-231v662h221q145 0 232 -89.5t87 -238.5q0 -150 -83 -242t-226 -92zM382 861h66l-135 -133h-16l-140 133h67l80 -78z" />
    <glyph glyph-name="dcaron" unicode="&#x10f;" horiz-adv-x="615" 
d="M448 378l4 2v331h55v-711h-45l-10 71l-4 1q-60 -82 -169 -82q-105 0 -167 65t-62 168q0 98 66.5 165t163.5 67q50 0 96 -20.5t72 -56.5zM281 407q-76 0 -124.5 -53.5t-48.5 -130.5q0 -80 46.5 -132.5t126.5 -52.5q78 0 125 53.5t47 131.5q0 77 -47.5 130.5t-124.5 53.5z
M565 680q0 17 12 29t29 12t28.5 -11t11.5 -29q0 -50 -59 -155l-31 5l34 113q-25 8 -25 36z" />
    <glyph glyph-name="Dcroat" unicode="&#x110;" horiz-adv-x="680" 
d="M316 0h-231v318h-63v51h63v293h221q145 0 232 -89.5t87 -238.5q0 -150 -83 -242t-226 -92zM567 332q0 122 -65.5 200t-194.5 78h-164v-241h219v-51h-219v-265h169q126 0 190.5 76t64.5 203z" />
    <glyph glyph-name="dcroat" unicode="&#x111;" horiz-adv-x="572" 
d="M448 378l4 2v183h-200v42h200v106h55v-106h59v-42h-59v-563h-45l-10 71l-4 1q-60 -82 -169 -82q-105 0 -167 65t-62 168q0 98 66.5 165t163.5 67q50 0 96 -20.5t72 -56.5zM281 407q-76 0 -124.5 -53.5t-48.5 -130.5q0 -80 46.5 -132.5t126.5 -52.5q78 0 125 53.5
t47 131.5q0 77 -47.5 130.5t-124.5 53.5z" />
    <glyph glyph-name="Emacron" unicode="&#x112;" horiz-adv-x="556" 
d="M526 53v-53h-441v662h414v-52h-355v-234h330v-52h-330v-271h382zM162 767v51h279v-51h-279z" />
    <glyph glyph-name="emacron" unicode="&#x113;" horiz-adv-x="519" 
d="M450 97v-57q-66 -50 -168 -50q-107 0 -169.5 63.5t-62.5 170.5q0 98 62 164.5t154 66.5q95 0 149 -65t54 -162q0 -14 -1 -20h-359q2 -78 50.5 -123.5t119.5 -45.5q97 0 171 58zM267 405q-66 0 -108 -41t-49 -110h305q-7 69 -46 110t-102 41zM138 552v48h264v-48h-264z
" />
    <glyph glyph-name="Ebreve" unicode="&#x114;" horiz-adv-x="556" 
d="M526 53v-53h-441v662h414v-52h-355v-234h330v-52h-330v-271h382zM378 858h47q-2 -56 -35.5 -95.5t-93.5 -39.5q-57 0 -90.5 39t-35.5 96h47q0 -40 21 -67.5t57 -27.5q77 0 83 95z" />
    <glyph glyph-name="ebreve" unicode="&#x115;" horiz-adv-x="519" 
d="M450 97v-57q-66 -50 -168 -50q-107 0 -169.5 63.5t-62.5 170.5q0 98 62 164.5t154 66.5q95 0 149 -65t54 -162q0 -14 -1 -20h-359q2 -78 50.5 -123.5t119.5 -45.5q97 0 171 58zM267 405q-66 0 -108 -41t-49 -110h305q-7 69 -46 110t-102 41zM350 672h47
q-2 -56 -35.5 -95.5t-93.5 -39.5q-57 0 -90.5 39t-35.5 96h47q0 -40 21 -67.5t57 -27.5q77 0 83 95z" />
    <glyph glyph-name="Edotaccent" unicode="&#x116;" horiz-adv-x="556" 
d="M526 53v-53h-441v662h414v-52h-355v-234h330v-52h-330v-271h382zM337 799q0 -17 -10.5 -27.5t-27.5 -10.5t-28 10.5t-11 27.5q0 15 11.5 27t27.5 12t27 -11t11 -28z" />
    <glyph glyph-name="edotaccent" unicode="&#x117;" horiz-adv-x="519" 
d="M450 97v-57q-66 -50 -168 -50q-107 0 -169.5 63.5t-62.5 170.5q0 98 62 164.5t154 66.5q95 0 149 -65t54 -162q0 -14 -1 -20h-359q2 -78 50.5 -123.5t119.5 -45.5q97 0 171 58zM267 405q-66 0 -108 -41t-49 -110h305q-7 69 -46 110t-102 41zM303 589q0 -17 -10.5 -27.5
t-27.5 -10.5t-28 10.5t-11 27.5q0 15 11.5 27t27.5 12t27 -11t11 -28z" />
    <glyph glyph-name="Eogonek" unicode="&#x118;" horiz-adv-x="556" 
d="M526 53v-53h-88q-41 -31 -64 -67.5t-23 -64.5q0 -46 46 -46t99 34l-5 -45q-49 -30 -108 -30q-85 0 -85 75q0 27 21 67t73 77h-307v662h414v-52h-355v-234h330v-52h-330v-271h382z" />
    <glyph glyph-name="eogonek" unicode="&#x119;" horiz-adv-x="519" 
d="M450 97v-57q-36 -26 -73 -37q-39 -30 -60.5 -65.5t-21.5 -62.5q0 -46 46 -46t99 34l-5 -45q-49 -30 -108 -30q-85 0 -85 75q0 23 17 59t57 70q-22 -2 -34 -2q-107 0 -169.5 63.5t-62.5 170.5q0 98 62 164.5t154 66.5q95 0 149 -65t54 -162q0 -14 -1 -20h-359
q2 -78 50.5 -123.5t119.5 -45.5q97 0 171 58zM267 405q-66 0 -108 -41t-49 -110h305q-7 69 -46 110t-102 41z" />
    <glyph glyph-name="Ecaron" unicode="&#x11a;" horiz-adv-x="556" 
d="M526 53v-53h-441v662h414v-52h-355v-234h330v-52h-330v-271h382zM375 861h66l-135 -133h-16l-140 133h67l80 -78z" />
    <glyph glyph-name="ecaron" unicode="&#x11b;" horiz-adv-x="519" 
d="M450 97v-57q-66 -50 -168 -50q-107 0 -169.5 63.5t-62.5 170.5q0 98 62 164.5t154 66.5q95 0 149 -65t54 -162q0 -14 -1 -20h-359q2 -78 50.5 -123.5t119.5 -45.5q97 0 171 58zM267 405q-66 0 -108 -41t-49 -110h305q-7 69 -46 110t-102 41zM345 672h65l-132 -143h-16
l-137 143h63l81 -81z" />
    <glyph glyph-name="Gcircumflex" unicode="&#x11c;" horiz-adv-x="665" 
d="M55 327q0 149 99 248t245 99q112 0 174 -35v-59q-77 41 -173 41q-120 0 -202 -80t-82 -214q0 -127 73 -205.5t207 -78.5q79 0 147 29v254h57v-293q-86 -42 -218 -42q-154 0 -240.5 96.5t-86.5 239.5zM537 734h-68l-76 71l-80 -71h-67l140 133h16z" />
    <glyph glyph-name="gcircumflex" unicode="&#x11d;" horiz-adv-x="499" 
d="M40 -90q0 34 19 67.5t51 56.5l-27 4q-48 8 -48 51l83 75q-50 45 -50 123q0 70 50.5 118.5t125.5 48.5q33 0 68 -11h147v-35l-88 -10q48 -43 48 -112q0 -70 -50 -118t-125 -48q-60 0 -95 24l-55 -61l229 -26q124 -13 124 -107q0 -59 -58.5 -114t-164.5 -55
q-93 0 -138.5 37.5t-45.5 91.5zM244 165q56 0 89 35t33 86q0 52 -35 87t-87 35t-87 -35t-35 -86q0 -54 32.5 -88t89.5 -34zM322 11l-178 20q-47 -49 -47 -110q0 -40 29 -66.5t97 -26.5q86 0 126.5 39.5t40.5 84.5q0 50 -68 59zM399 529h-66l-77 82l-79 -82h-63l137 143h16z
" />
    <glyph glyph-name="Gbreve" unicode="&#x11e;" horiz-adv-x="665" 
d="M55 327q0 149 99 248t245 99q112 0 174 -35v-59q-77 41 -173 41q-120 0 -202 -80t-82 -214q0 -127 73 -205.5t207 -78.5q79 0 147 29v254h57v-293q-86 -42 -218 -42q-154 0 -240.5 96.5t-86.5 239.5zM477 858h47q-2 -56 -35.5 -95.5t-93.5 -39.5q-57 0 -90.5 39t-35.5 96
h47q0 -40 21 -67.5t57 -27.5q77 0 83 95z" />
    <glyph glyph-name="gbreve" unicode="&#x11f;" horiz-adv-x="499" 
d="M40 -90q0 34 19 67.5t51 56.5l-27 4q-48 8 -48 51l83 75q-50 45 -50 123q0 70 50.5 118.5t125.5 48.5q33 0 68 -11h147v-35l-88 -10q48 -43 48 -112q0 -70 -50 -118t-125 -48q-60 0 -95 24l-55 -61l229 -26q124 -13 124 -107q0 -59 -58.5 -114t-164.5 -55
q-93 0 -138.5 37.5t-45.5 91.5zM244 165q56 0 89 35t33 86q0 52 -35 87t-87 35t-87 -35t-35 -86q0 -54 32.5 -88t89.5 -34zM322 11l-178 20q-47 -49 -47 -110q0 -40 29 -66.5t97 -26.5q86 0 126.5 39.5t40.5 84.5q0 50 -68 59zM340 672h47q-2 -56 -35.5 -95.5t-93.5 -39.5
q-57 0 -90.5 39t-35.5 96h47q0 -40 21 -67.5t57 -27.5q77 0 83 95z" />
    <glyph glyph-name="Gdotaccent" unicode="&#x120;" horiz-adv-x="665" 
d="M55 327q0 149 99 248t245 99q112 0 174 -35v-59q-77 41 -173 41q-120 0 -202 -80t-82 -214q0 -127 73 -205.5t207 -78.5q79 0 147 29v254h57v-293q-86 -42 -218 -42q-154 0 -240.5 96.5t-86.5 239.5zM431 799q0 -17 -10.5 -27.5t-27.5 -10.5t-28 10.5t-11 27.5
q0 15 11.5 27t27.5 12t27 -11t11 -28z" />
    <glyph glyph-name="gdotaccent" unicode="&#x121;" horiz-adv-x="499" 
d="M40 -90q0 34 19 67.5t51 56.5l-27 4q-48 8 -48 51l83 75q-50 45 -50 123q0 70 50.5 118.5t125.5 48.5q33 0 68 -11h147v-35l-88 -10q48 -43 48 -112q0 -70 -50 -118t-125 -48q-60 0 -95 24l-55 -61l229 -26q124 -13 124 -107q0 -59 -58.5 -114t-164.5 -55
q-93 0 -138.5 37.5t-45.5 91.5zM244 165q56 0 89 35t33 86q0 52 -35 87t-87 35t-87 -35t-35 -86q0 -54 32.5 -88t89.5 -34zM322 11l-178 20q-47 -49 -47 -110q0 -40 29 -66.5t97 -26.5q86 0 126.5 39.5t40.5 84.5q0 50 -68 59zM289 589q0 -17 -10.5 -27.5t-27.5 -10.5
t-28 10.5t-11 27.5q0 15 11.5 27t27.5 12t27 -11t11 -28z" />
    <glyph glyph-name="Gcommaaccent" unicode="&#x122;" horiz-adv-x="665" 
d="M55 327q0 149 99 248t245 99q112 0 174 -35v-59q-77 41 -173 41q-120 0 -202 -80t-82 -214q0 -127 73 -205.5t207 -78.5q79 0 147 29v254h57v-293q-86 -42 -218 -42q-154 0 -240.5 96.5t-86.5 239.5zM331 -86q0 17 12 29t29 12t28.5 -11t11.5 -29q0 -50 -59 -155l-31 5
l34 113q-25 8 -25 36z" />
    <glyph glyph-name="gcommaaccent" unicode="&#x123;" horiz-adv-x="499" 
d="M40 -90q0 34 19 67.5t51 56.5l-27 4q-48 8 -48 51l83 75q-50 45 -50 123q0 70 50.5 118.5t125.5 48.5q33 0 68 -11h147v-35l-88 -10q48 -43 48 -112q0 -70 -50 -118t-125 -48q-60 0 -95 24l-55 -61l229 -26q124 -13 124 -107q0 -59 -58.5 -114t-164.5 -55
q-93 0 -138.5 37.5t-45.5 91.5zM244 165q56 0 89 35t33 86q0 52 -35 87t-87 35t-87 -35t-35 -86q0 -54 32.5 -88t89.5 -34zM322 11l-178 20q-47 -49 -47 -110q0 -40 29 -66.5t97 -26.5q86 0 126.5 39.5t40.5 84.5q0 50 -68 59zM286 581q0 -17 -12 -29t-29 -12t-28.5 11
t-11.5 29q0 50 59 155l31 -5l-34 -113q25 -8 25 -36z" />
    <glyph glyph-name="Hcircumflex" unicode="&#x124;" horiz-adv-x="668" 
d="M583 0h-57v324h-383v-324h-58v662h58v-286h383v286h57v-662zM479 728h-68l-76 71l-80 -71h-67l140 133h16z" />
    <glyph glyph-name="hcircumflex" unicode="&#x125;" horiz-adv-x="525" 
d="M450 0h-57v255q0 70 -30 110t-86 40q-66 0 -109.5 -44.5t-43.5 -130.5v-230h-59v711h56v-333h3q63 77 156 77q82 0 126 -49.5t44 -139.5v-266zM236 735h-68l-76 71l-80 -71h-67l140 133h16z" />
    <glyph glyph-name="Hbar" unicode="&#x126;" horiz-adv-x="668" 
d="M34 522v47h51v93h58v-93h383v93h57v-93h44v-47h-44v-522h-57v324h-383v-324h-58v522h-51zM143 376h383v146h-383v-146z" />
    <glyph glyph-name="hbar" unicode="&#x127;" horiz-adv-x="525" 
d="M11 573v46h54v92h56v-92h181v-46h-181v-195h3q63 77 156 77q82 0 126 -49.5t44 -139.5v-266h-57v255q0 70 -30 110t-86 40q-66 0 -109.5 -44.5t-43.5 -130.5v-230h-59v573h-54z" />
    <glyph glyph-name="Itilde" unicode="&#x128;" horiz-adv-x="248" 
d="M153 0h-58v662h58v-662zM244 860l28 -31q-26 -70 -80 -70q-24 0 -66.5 24t-57.5 24q-29 0 -54 -54l-30 31q12 30 33 50.5t49 20.5q24 0 67 -24t57 -24q29 0 54 53z" />
    <glyph glyph-name="itilde" unicode="&#x129;" horiz-adv-x="227" 
d="M229 645l28 -31q-26 -70 -80 -70q-24 0 -66.5 24t-57.5 24q-29 0 -54 -54l-30 31q12 30 33 50.5t49 20.5q24 0 67 -24t57 -24q29 0 54 53zM141 0h-57v445h57v-445z" />
    <glyph glyph-name="Imacron" unicode="&#x12a;" horiz-adv-x="248" 
d="M153 0h-58v662h58v-662zM-16 762v51h279v-51h-279z" />
    <glyph glyph-name="imacron" unicode="&#x12b;" horiz-adv-x="227" 
d="M-21 552v48h264v-48h-264zM141 0h-57v445h57v-445z" />
    <glyph glyph-name="Ibreve" unicode="&#x12c;" horiz-adv-x="248" 
d="M153 0h-58v662h58v-662zM206 858h47q-2 -56 -35.5 -95.5t-93.5 -39.5q-57 0 -90.5 39t-35.5 96h47q0 -40 21 -67.5t57 -27.5q77 0 83 95z" />
    <glyph glyph-name="ibreve" unicode="&#x12d;" horiz-adv-x="227" 
d="M195 676h47q-2 -56 -35.5 -95.5t-93.5 -39.5q-57 0 -90.5 39t-35.5 96h47q0 -40 21 -67.5t57 -27.5q77 0 83 95zM141 0h-57v445h57v-445z" />
    <glyph glyph-name="Iogonek" unicode="&#x12e;" horiz-adv-x="248" 
d="M153 0h-28q-37 -30 -57.5 -64.5t-20.5 -60.5q0 -46 46 -46t99 34l-5 -45q-49 -30 -108 -30q-85 0 -85 75q0 28 22.5 69.5t78.5 78.5v651h58v-662z" />
    <glyph glyph-name="iogonek" unicode="&#x12f;" horiz-adv-x="227" 
d="M141 0h-27q-37 -30 -57.5 -64.5t-20.5 -60.5q0 -46 46 -46t99 34l-5 -45q-49 -30 -108 -30q-85 0 -85 75q0 28 23 69.5t78 78.5v434h57v-445zM152 577q0 -17 -11 -27.5t-27 -10.5q-17 0 -28 10.5t-11 27.5q0 15 11.5 27t27.5 12t27 -11t11 -28z" />
    <glyph glyph-name="Idotaccent" unicode="&#x130;" horiz-adv-x="248" 
d="M153 0h-58v662h58v-662zM161 799q0 -17 -10.5 -27.5t-27.5 -10.5t-28 10.5t-11 27.5q0 15 11.5 27t27.5 12t27 -11t11 -28z" />
    <glyph glyph-name="dotlessi" unicode="&#x131;" horiz-adv-x="227" 
d="M141 0h-57v445h57v-445z" />
    <glyph glyph-name="IJ" unicode="&#x132;" horiz-adv-x="635" 
d="M143 0h-58v662h58v-662zM334 44q91 0 124.5 50.5t33.5 139.5v428h58v-418q0 -57 -10 -100.5t-34 -79.5t-67.5 -55t-105.5 -19q-82 0 -133 30v61q25 -17 64.5 -27t69.5 -10z" />
    <glyph glyph-name="ij" unicode="&#x133;" horiz-adv-x="392" 
d="M142 577q0 -17 -11 -27.5t-27 -10.5q-17 0 -28 10.5t-11 27.5q0 15 11.5 27t27.5 12t27 -11t11 -28zM131 0h-57v445h57v-445zM327 577q0 -17 -10.5 -27.5t-27.5 -10.5t-28 11t-11 27q0 15 11.5 27t27.5 12t27 -11t11 -28zM162 -227l-27 52q69 2 96.5 37.5t27.5 107.5v475
h57v-476q0 -188 -154 -196z" />
    <glyph glyph-name="Jcircumflex" unicode="&#x134;" horiz-adv-x="445" 
d="M144 45q91 0 124.5 50.5t33.5 139.5v428h58v-418q0 -57 -10 -100.5t-34 -79.5t-67.5 -55t-105.5 -19q-82 0 -133 30v61q25 -17 64.5 -27t69.5 -10zM476 730h-68l-76 71l-80 -71h-67l140 133h16z" />
    <glyph glyph-name="jcircumflex" unicode="&#x135;" horiz-adv-x="210" 
d="M-20 -227l-25 48q122 4 122 149v475h55v-476q0 -188 -152 -196zM247 529h-66l-77 82l-79 -82h-63l137 143h16z" />
    <glyph glyph-name="Kcommaaccent" unicode="&#x136;" horiz-adv-x="580" 
d="M143 662v-314l324 314h72l-323 -318l354 -344h-82l-345 339v-339h-58v662h58zM226 -63q0 17 12 29t29 12t28.5 -11t11.5 -29q0 -50 -59 -155l-31 5l34 113q-25 8 -25 36z" />
    <glyph glyph-name="kcommaaccent" unicode="&#x137;" horiz-adv-x="467" 
d="M438 444l-248 -208l272 -236h-84l-258 227v-227h-55v711h55v-471l243 204h75zM179 -80q0 17 12 29t29 12t28.5 -11t11.5 -29q0 -50 -59 -155l-31 5l34 113q-25 8 -25 36z" />
    <glyph glyph-name="kgreenlandic" unicode="&#x138;" horiz-adv-x="467" 
d="M428 444l-248 -208l272 -236h-84l-258 227v-227h-55v444h55v-204l243 204h75z" />
    <glyph glyph-name="Lacute" unicode="&#x139;" horiz-adv-x="512" 
d="M85 662h58v-609h359v-53h-417v662zM124 733h-51l121 137l67 -18z" />
    <glyph glyph-name="lacute" unicode="&#x13a;" horiz-adv-x="207" 
d="M132 0h-57v711h57v-711zM111 760h-51l121 137l67 -18z" />
    <glyph glyph-name="Lcommaaccent" unicode="&#x13b;" horiz-adv-x="512" 
d="M85 662h58v-609h359v-53h-417v662zM246 -86q0 17 12 29t29 12t28.5 -11t11.5 -29q0 -50 -59 -155l-31 5l34 113q-25 8 -25 36z" />
    <glyph glyph-name="lcommaaccent" unicode="&#x13c;" horiz-adv-x="207" 
d="M132 0h-57v711h57v-711zM55 -86q0 17 12 29t29 12t28.5 -11t11.5 -29q0 -50 -59 -155l-31 5l34 113q-25 8 -25 36z" />
    <glyph glyph-name="Lcaron" unicode="&#x13d;" horiz-adv-x="512" 
d="M85 662h58v-609h359v-53h-417v662zM316 628q0 17 12 29t29 12t28.5 -11t11.5 -29q0 -50 -59 -155l-31 5l34 113q-25 8 -25 36z" />
    <glyph glyph-name="lcaron" unicode="&#x13e;" horiz-adv-x="241" 
d="M132 0h-57v711h57v-711zM190 677q0 17 12 29t29 12t28.5 -11t11.5 -29q0 -50 -59 -155l-31 5l34 113q-25 8 -25 36z" />
    <glyph glyph-name="Ldot" unicode="&#x13f;" horiz-adv-x="512" 
d="M85 662h58v-609h359v-53h-417v662zM379 316q0 -16 -10.5 -27t-27.5 -11t-28 10.5t-11 27.5q0 15 11.5 27t27.5 12t27 -11t11 -28z" />
    <glyph glyph-name="ldot" unicode="&#x140;" horiz-adv-x="244" 
d="M132 0h-57v711h57v-711zM254 340q0 -16 -11 -27t-27 -11q-17 0 -28 10.5t-11 27.5q0 15 11.5 27t27.5 12t27 -11t11 -28z" />
    <glyph glyph-name="Lslash" unicode="&#x141;" horiz-adv-x="512" 
d="M1 183v47l85 49v383h57v-349l171 97v-50l-171 -96v-211h360v-53h-417v230z" />
    <glyph glyph-name="lslash" unicode="&#x142;" horiz-adv-x="207" 
d="M132 0h-57v264l-90 -50v49l90 51v398h57v-365l97 54v-51l-97 -54v-296z" />
    <glyph glyph-name="Nacute" unicode="&#x143;" horiz-adv-x="721" 
d="M141 0h-56v671h15l476 -546h4v537h56v-669h-15l-477 549h-3v-542zM370 728h-51l121 137l67 -18z" />
    <glyph glyph-name="nacute" unicode="&#x144;" horiz-adv-x="535" 
d="M460 0h-57v255q0 70 -30 110t-86 40q-67 0 -111 -44.5t-44 -130.5v-230h-57v445h44l9 -67h4q63 77 158 77q82 0 126 -49.5t44 -139.5v-266zM265 531h-47l104 151l63 -18z" />
    <glyph glyph-name="Ncommaaccent" unicode="&#x145;" horiz-adv-x="721" 
d="M141 0h-56v671h15l476 -546h4v537h56v-669h-15l-477 549h-3v-542zM319 -65q0 17 12 29t29 12t28.5 -11t11.5 -29q0 -50 -59 -155l-31 5l34 113q-25 8 -25 36z" />
    <glyph glyph-name="ncommaaccent" unicode="&#x146;" horiz-adv-x="535" 
d="M460 0h-57v255q0 70 -30 110t-86 40q-67 0 -111 -44.5t-44 -130.5v-230h-57v445h44l9 -67h4q63 77 158 77q82 0 126 -49.5t44 -139.5v-266zM224 -77q0 17 12 29t29 12t28.5 -11t11.5 -29q0 -50 -59 -155l-31 5l34 113q-25 8 -25 36z" />
    <glyph glyph-name="Ncaron" unicode="&#x147;" horiz-adv-x="721" 
d="M141 0h-56v671h15l476 -546h4v537h56v-669h-15l-477 549h-3v-542zM452 861h66l-135 -133h-16l-140 133h67l80 -78z" />
    <glyph glyph-name="ncaron" unicode="&#x148;" horiz-adv-x="535" 
d="M460 0h-57v255q0 70 -30 110t-86 40q-67 0 -111 -44.5t-44 -130.5v-230h-57v445h44l9 -67h4q63 77 158 77q82 0 126 -49.5t44 -139.5v-266zM331 672h65l-132 -143h-16l-137 143h63l81 -81z" />
    <glyph glyph-name="napostrophe" unicode="&#x149;" horiz-adv-x="535" 
d="M460 0h-57v255q0 70 -30 110t-86 40q-67 0 -111 -44.5t-44 -130.5v-230h-57v445h44l9 -67h4q63 77 158 77q82 0 126 -49.5t44 -139.5v-266zM-3 630q0 17 12 29t29 12t28.5 -11t11.5 -29q0 -50 -59 -155l-31 5l34 113q-25 8 -25 36z" />
    <glyph glyph-name="Eng" unicode="&#x14a;" horiz-adv-x="721" 
d="M141 0h-56v676h20l471 -555h4v541h56v-698q0 -184 -149 -192l-25 46q121 4 121 147v63l-439 519h-3v-547z" />
    <glyph glyph-name="eng" unicode="&#x14b;" horiz-adv-x="535" 
d="M460 266v-302q0 -184 -149 -192l-25 46q117 4 117 147v290q0 70 -30 110t-86 40q-67 0 -111 -44.5t-44 -130.5v-230h-57v445h44l10 -67h3q63 77 158 77q82 0 126 -49.5t44 -139.5z" />
    <glyph glyph-name="Omacron" unicode="&#x14c;" horiz-adv-x="787" 
d="M395 -10q-158 0 -249 96t-91 245q0 143 99.5 242t240.5 99q145 0 241 -98.5t96 -242.5q0 -145 -95.5 -243t-241.5 -98zM395 619q-122 0 -200.5 -83t-78.5 -205q0 -126 75.5 -207t203.5 -81q124 0 201.5 83.5t77.5 204.5t-78.5 204.5t-200.5 83.5zM245 769v51h279v-51
h-279z" />
    <glyph glyph-name="omacron" unicode="&#x14d;" horiz-adv-x="560" 
d="M281 -10q-106 0 -168.5 66t-62.5 167q0 97 67.5 164.5t163.5 67.5q99 0 164 -67t65 -165q0 -99 -65.5 -166t-163.5 -67zM281 407q-76 0 -124.5 -53.5t-48.5 -130.5q0 -80 46.5 -132.5t126.5 -52.5q78 0 125 53.5t47 131.5q0 77 -47.5 130.5t-124.5 53.5zM148 552v48h264
v-48h-264z" />
    <glyph glyph-name="Obreve" unicode="&#x14e;" horiz-adv-x="787" 
d="M395 -10q-158 0 -249 96t-91 245q0 143 99.5 242t240.5 99q145 0 241 -98.5t96 -242.5q0 -145 -95.5 -243t-241.5 -98zM395 619q-122 0 -200.5 -83t-78.5 -205q0 -126 75.5 -207t203.5 -81q124 0 201.5 83.5t77.5 204.5t-78.5 204.5t-200.5 83.5zM475 858h47
q-2 -56 -35.5 -95.5t-93.5 -39.5q-57 0 -90.5 39t-35.5 96h47q0 -40 21 -67.5t57 -27.5q77 0 83 95z" />
    <glyph glyph-name="obreve" unicode="&#x14f;" horiz-adv-x="560" 
d="M281 -10q-106 0 -168.5 66t-62.5 167q0 97 67.5 164.5t163.5 67.5q99 0 164 -67t65 -165q0 -99 -65.5 -166t-163.5 -67zM281 407q-76 0 -124.5 -53.5t-48.5 -130.5q0 -80 46.5 -132.5t126.5 -52.5q78 0 125 53.5t47 131.5q0 77 -47.5 130.5t-124.5 53.5zM362 672h47
q-2 -56 -35.5 -95.5t-93.5 -39.5q-57 0 -90.5 39t-35.5 96h47q0 -40 21 -67.5t57 -27.5q77 0 83 95z" />
    <glyph glyph-name="Ohungarumlaut" unicode="&#x150;" horiz-adv-x="787" 
d="M395 -10q-158 0 -249 96t-91 245q0 143 99.5 242t240.5 99q145 0 241 -98.5t96 -242.5q0 -145 -95.5 -243t-241.5 -98zM395 619q-122 0 -200.5 -83t-78.5 -205q0 -126 75.5 -207t203.5 -81q124 0 201.5 83.5t77.5 204.5t-78.5 204.5t-200.5 83.5zM347 733h-51l121 137
l67 -18zM467 733h-51l121 137l67 -18z" />
    <glyph glyph-name="ohungarumlaut" unicode="&#x151;" horiz-adv-x="560" 
d="M281 -10q-106 0 -168.5 66t-62.5 167q0 97 67.5 164.5t163.5 67.5q99 0 164 -67t65 -165q0 -99 -65.5 -166t-163.5 -67zM281 407q-76 0 -124.5 -53.5t-48.5 -130.5q0 -80 46.5 -132.5t126.5 -52.5q78 0 125 53.5t47 131.5q0 77 -47.5 130.5t-124.5 53.5zM234 531h-46
l104 151l62 -18zM336 531h-46l104 151l62 -18z" />
    <glyph glyph-name="OE" unicode="&#x152;" horiz-adv-x="939" 
d="M909 52v-52h-425q-39 -10 -90 -10q-162 0 -250.5 95t-88.5 249q0 145 96 244t243 99q58 0 108 -15h380v-52h-355v-234h330v-52h-330v-272h382zM394 42q40 0 75 8v565q-34 9 -75 9q-127 0 -203.5 -82.5t-76.5 -207.5q0 -129 74 -210.5t206 -81.5z" />
    <glyph glyph-name="oe" unicode="&#x153;" horiz-adv-x="913" 
d="M849 97v-57q-65 -50 -167 -50q-73 0 -126.5 30t-80.5 85q-29 -53 -82 -84t-117 -31q-106 0 -168.5 66t-62.5 167q0 97 67.5 164.5t163.5 67.5q65 0 118 -31.5t82 -84.5q28 53 78 85t111 32q95 0 149 -65.5t54 -162.5v-20h-360q2 -78 51 -123.5t120 -45.5q97 0 170 58z
M276 407q-76 0 -124.5 -53.5t-48.5 -130.5q0 -80 46.5 -132.5t126.5 -52.5q78 0 125 53.5t47 131.5q0 77 -47.5 130.5t-124.5 53.5zM666 406q-65 0 -107 -41.5t-50 -110.5h305q-6 69 -45 110.5t-103 41.5z" />
    <glyph glyph-name="Racute" unicode="&#x154;" horiz-adv-x="589" 
d="M331 252l236 -252h-80l-250 278v10q116 2 176.5 50.5t60.5 115.5q0 74 -47.5 115.5t-124.5 41.5h-159v-611h-59v661h226q88 0 155.5 -54.5t67.5 -150.5q0 -75 -55.5 -133.5t-146.5 -70.5zM254 733h-51l121 137l67 -18z" />
    <glyph glyph-name="racute" unicode="&#x155;" horiz-adv-x="310" 
d="M264 402q-61 0 -96.5 -52t-35.5 -131v-219h-57v444h39l10 -79q1 -1 3 -1q48 91 148 91q18 0 30 -3v-55q-18 5 -41 5zM119 531h-47l104 151l63 -18z" />
    <glyph glyph-name="Rcommaaccent" unicode="&#x156;" horiz-adv-x="589" 
d="M331 252l236 -252h-80l-250 278v10q116 2 176.5 50.5t60.5 115.5q0 74 -47.5 115.5t-124.5 41.5h-159v-611h-59v661h226q88 0 155.5 -54.5t67.5 -150.5q0 -75 -55.5 -133.5t-146.5 -70.5zM246 -60q0 17 12 29t29 12t28.5 -11t11.5 -29q0 -50 -59 -155l-31 5l34 113
q-25 8 -25 36z" />
    <glyph glyph-name="rcommaaccent" unicode="&#x157;" horiz-adv-x="310" 
d="M264 402q-61 0 -96.5 -52t-35.5 -131v-219h-57v444h39l10 -79q1 -1 3 -1q48 91 148 91q18 0 30 -3v-55q-18 5 -41 5zM53 -83q0 17 12 29t29 12t28.5 -11t11.5 -29q0 -50 -59 -155l-31 5l34 113q-25 8 -25 36z" />
    <glyph glyph-name="Rcaron" unicode="&#x158;" horiz-adv-x="589" 
d="M331 252l236 -252h-80l-250 278v10q116 2 176.5 50.5t60.5 115.5q0 74 -47.5 115.5t-124.5 41.5h-159v-611h-59v661h226q88 0 155.5 -54.5t67.5 -150.5q0 -75 -55.5 -133.5t-146.5 -70.5zM355 861h66l-135 -133h-16l-140 133h67l80 -78z" />
    <glyph glyph-name="rcaron" unicode="&#x159;" horiz-adv-x="310" 
d="M264 402q-61 0 -96.5 -52t-35.5 -131v-219h-57v444h39l10 -79q1 -1 3 -1q48 91 148 91q18 0 30 -3v-55q-18 5 -41 5zM220 672h65l-132 -143h-16l-137 143h63l81 -81z" />
    <glyph glyph-name="Sacute" unicode="&#x15a;" horiz-adv-x="485" 
d="M35 44v62q90 -63 188 -63q76 0 122.5 30.5t46.5 92.5q0 39 -19 69t-49 49t-66.5 35.5l-73 33t-66.5 35.5t-49 49t-19 69q0 80 58 123t133 43q96 0 168 -41v-62q-73 50 -160 50q-60 0 -99.5 -26t-39.5 -84q0 -38 35 -66.5t85 -49.5t100 -45t85 -67.5t35 -104.5
q0 -92 -60.5 -139t-158.5 -47q-114 0 -196 54zM226 733h-51l121 137l67 -18z" />
    <glyph glyph-name="sacute" unicode="&#x15b;" horiz-adv-x="369" 
d="M25 29v56q67 -48 141 -48q112 0 112 77q0 31 -24 53t-59 36t-69.5 28.5t-58.5 40.5t-24 63q0 59 42.5 89.5t101.5 30.5q66 0 127 -30v-55q-66 38 -120 38q-93 0 -93 -69q0 -24 24 -42t58.5 -31.5t68.5 -29t58 -44.5t24 -69q0 -63 -45.5 -97.5t-116.5 -34.5q-83 0 -147 38
zM173 531h-47l104 151l63 -18z" />
    <glyph glyph-name="Scircumflex" unicode="&#x15c;" horiz-adv-x="485" 
d="M35 44v62q90 -63 188 -63q76 0 122.5 30.5t46.5 92.5q0 39 -19 69t-49 49t-66.5 35.5l-73 33t-66.5 35.5t-49 49t-19 69q0 80 58 123t133 43q96 0 168 -41v-62q-73 50 -160 50q-60 0 -99.5 -26t-39.5 -84q0 -38 35 -66.5t85 -49.5t100 -45t85 -67.5t35 -104.5
q0 -92 -60.5 -139t-158.5 -47q-114 0 -196 54zM391 728h-68l-76 71l-80 -71h-67l140 133h16z" />
    <glyph glyph-name="scircumflex" unicode="&#x15d;" horiz-adv-x="369" 
d="M25 29v56q67 -48 141 -48q112 0 112 77q0 31 -24 53t-59 36t-69.5 28.5t-58.5 40.5t-24 63q0 59 42.5 89.5t101.5 30.5q66 0 127 -30v-55q-66 38 -120 38q-93 0 -93 -69q0 -24 24 -42t58.5 -31.5t68.5 -29t58 -44.5t24 -69q0 -63 -45.5 -97.5t-116.5 -34.5q-83 0 -147 38
zM325 529h-66l-77 82l-79 -82h-63l137 143h16z" />
    <glyph glyph-name="Scedilla" unicode="&#x15e;" horiz-adv-x="485" 
d="M348 -132q0 -38 -32.5 -63.5t-83.5 -25.5q-40 0 -82 17v42q40 -18 81 -18q31 0 47.5 12t16.5 31q0 22 -19 32.5t-45 10.5q-19 0 -31 -4l-19 12l35 76q-107 4 -181 54v62q90 -63 188 -63q76 0 122.5 30.5t46.5 92.5q0 39 -19 69t-49 49t-66.5 35.5l-73 33t-66.5 35.5
t-49 49t-19 69q0 80 58 123t133 43q96 0 168 -41v-62q-73 50 -160 50q-60 0 -99.5 -26t-39.5 -84q0 -38 35 -66.5t85 -49.5t100 -45t85 -67.5t35 -104.5q0 -86 -53 -132.5t-140 -52.5l-22 -46q60 -1 86.5 -23.5t26.5 -53.5z" />
    <glyph glyph-name="scedilla" unicode="&#x15f;" horiz-adv-x="369" 
d="M275 -127q0 -38 -32.5 -63.5t-83.5 -25.5q-39 0 -82 17v42q40 -18 81 -18q31 0 47.5 12t16.5 31q0 22 -19 32.5t-45 10.5q-19 0 -31 -4l-19 12l34 74q-71 8 -117 36v56q67 -48 141 -48q112 0 112 77q0 31 -24 53t-59 36t-69.5 28.5t-58.5 40.5t-24 63q0 59 42.5 89.5
t101.5 30.5q66 0 127 -30v-55q-66 38 -120 38q-93 0 -93 -69q0 -24 24 -42t58.5 -31.5t68.5 -29t58 -44.5t24 -69q0 -61 -42.5 -95.5t-109.5 -36.5l-20 -41q60 -1 86.5 -23.5t26.5 -53.5z" />
    <glyph glyph-name="Scaron" unicode="&#x160;" horiz-adv-x="485" 
d="M35 44v62q90 -63 188 -63q76 0 122.5 30.5t46.5 92.5q0 39 -19 69t-49 49t-66.5 35.5l-73 33t-66.5 35.5t-49 49t-19 69q0 80 58 123t133 43q96 0 168 -41v-62q-73 50 -160 50q-60 0 -99.5 -26t-39.5 -84q0 -38 35 -66.5t85 -49.5t100 -45t85 -67.5t35 -104.5
q0 -92 -60.5 -139t-158.5 -47q-114 0 -196 54zM320 861h66l-135 -133h-16l-140 133h67l80 -78z" />
    <glyph glyph-name="scaron" unicode="&#x161;" horiz-adv-x="369" 
d="M25 29v56q67 -48 141 -48q112 0 112 77q0 31 -24 53t-59 36t-69.5 28.5t-58.5 40.5t-24 63q0 59 42.5 89.5t101.5 30.5q66 0 127 -30v-55q-66 38 -120 38q-93 0 -93 -69q0 -24 24 -42t58.5 -31.5t68.5 -29t58 -44.5t24 -69q0 -63 -45.5 -97.5t-116.5 -34.5q-83 0 -147 38
zM259 672h65l-132 -143h-16l-137 143h63l81 -81z" />
    <glyph glyph-name="Tcommaaccent" unicode="&#x162;" horiz-adv-x="523" 
d="M360 -127q0 -38 -32.5 -63.5t-83.5 -25.5q-40 0 -82 17v42q40 -18 81 -18q31 0 47.5 12t16.5 31q0 22 -19 32.5t-45 10.5q-19 0 -31 -4l-19 12l40 86v605h-218v52h493v-52h-216v-610h-21l-24 -50q60 -1 86.5 -23.5t26.5 -53.5z" />
    <glyph glyph-name="tcommaaccent" unicode="&#x163;" horiz-adv-x="320" 
d="M261 -127q0 -38 -32.5 -63.5t-83.5 -25.5q-39 0 -82 17v42q40 -18 81 -18q31 0 47.5 12t16.5 31q0 22 -19 32.5t-45 10.5q-19 0 -31 -4l-19 12l44 94q-38 30 -38 114v271h-75v37l75 10l34 134h23v-134h127v-47h-127v-271q0 -42 14 -62.5t52 -20.5q43 0 84 28v-52
q-39 -29 -90 -29q-27 0 -47 6l-22 -47q60 -1 86.5 -23.5t26.5 -53.5z" />
    <glyph glyph-name="Tcaron" unicode="&#x164;" horiz-adv-x="523" 
d="M508 610h-216v-610h-59v610h-218v52h493v-52zM342 861h66l-135 -133h-16l-140 133h67l80 -78z" />
    <glyph glyph-name="tcaron" unicode="&#x165;" horiz-adv-x="320" 
d="M134 579h23v-134h127v-47h-127v-271q0 -42 14 -62.5t52 -20.5q43 0 84 28v-52q-39 -29 -90 -29q-67 0 -92 35t-25 101v271h-75v37l75 10zM240 669q0 17 12 29t29 12t28.5 -11t11.5 -29q0 -50 -59 -155l-31 5l34 113q-25 8 -25 36z" />
    <glyph glyph-name="Tbar" unicode="&#x166;" horiz-adv-x="523" 
d="M508 610h-216v-224h164v-49h-164v-337h-59v337h-166v49h166v224h-217v52h492v-52z" />
    <glyph glyph-name="tbar" unicode="&#x167;" horiz-adv-x="324" 
d="M135 578h22v-133h126v-47h-126v-97h119v-44h-119v-131q0 -42 14 -62.5t51 -20.5q41 0 84 28v-51q-39 -29 -90 -29q-66 0 -91.5 35t-25.5 100v131h-70v44h70v97h-74v35l74 12z" />
    <glyph glyph-name="Utilde" unicode="&#x168;" horiz-adv-x="676" 
d="M534 246v416h57v-422q0 -111 -67.5 -180.5t-185.5 -69.5q-119 0 -186 68.5t-67 183.5v420h57v-412q0 -90 49 -148t147 -58q97 0 146.5 55.5t49.5 146.5zM450 851l28 -31q-26 -70 -80 -70q-24 0 -66.5 24t-57.5 24q-29 0 -54 -54l-30 31q12 30 33 50.5t49 20.5
q24 0 67 -24t57 -24q29 0 54 53z" />
    <glyph glyph-name="utilde" unicode="&#x169;" horiz-adv-x="521" 
d="M75 445h56v-261q0 -143 110 -143q66 0 107 44t41 130v230h57v-445h-44l-10 64q-1 1 -3 1q-62 -75 -148 -75q-166 0 -166 182v273zM381 645l28 -31q-26 -70 -80 -70q-24 0 -66.5 24t-57.5 24q-29 0 -54 -54l-30 31q12 30 33 50.5t49 20.5q24 0 67 -24t57 -24q29 0 54 53z
" />
    <glyph glyph-name="Umacron" unicode="&#x16a;" horiz-adv-x="676" 
d="M534 246v416h57v-422q0 -111 -67.5 -180.5t-185.5 -69.5q-119 0 -186 68.5t-67 183.5v420h57v-412q0 -90 49 -148t147 -58q97 0 146.5 55.5t49.5 146.5zM198 759v51h279v-51h-279z" />
    <glyph glyph-name="umacron" unicode="&#x16b;" horiz-adv-x="521" 
d="M75 445h56v-261q0 -143 110 -143q66 0 107 44t41 130v230h57v-445h-44l-10 64q-1 1 -3 1q-62 -75 -148 -75q-166 0 -166 182v273zM123 552v48h264v-48h-264z" />
    <glyph glyph-name="Ubreve" unicode="&#x16c;" horiz-adv-x="676" 
d="M534 246v416h57v-422q0 -111 -67.5 -180.5t-185.5 -69.5q-119 0 -186 68.5t-67 183.5v420h57v-412q0 -90 49 -148t147 -58q97 0 146.5 55.5t49.5 146.5zM420 850h47q-2 -56 -35.5 -95.5t-93.5 -39.5q-57 0 -90.5 39t-35.5 96h47q0 -40 21 -67.5t57 -27.5q77 0 83 95z" />
    <glyph glyph-name="ubreve" unicode="&#x16d;" horiz-adv-x="521" 
d="M75 445h56v-261q0 -143 110 -143q66 0 107 44t41 130v230h57v-445h-44l-10 64q-1 1 -3 1q-62 -75 -148 -75q-166 0 -166 182v273zM340 662h47q-2 -56 -35.5 -95.5t-93.5 -39.5q-57 0 -90.5 39t-35.5 96h47q0 -40 21 -67.5t57 -27.5q77 0 83 95z" />
    <glyph glyph-name="Uring" unicode="&#x16e;" horiz-adv-x="676" 
d="M534 246v416h57v-422q0 -111 -67.5 -180.5t-185.5 -69.5q-119 0 -186 68.5t-67 183.5v420h57v-412q0 -90 49 -148t147 -58q97 0 146.5 55.5t49.5 146.5zM343 729q-40 0 -63.5 24t-23.5 61t25.5 62.5t61.5 25.5q38 0 63 -25t25 -63q0 -36 -25 -60.5t-63 -24.5zM343 868
q-22 0 -36.5 -16t-14.5 -38t14 -37t37 -15q24 0 38 15.5t14 36.5q0 23 -14.5 38.5t-37.5 15.5z" />
    <glyph glyph-name="uring" unicode="&#x16f;" horiz-adv-x="521" 
d="M75 445h56v-261q0 -143 110 -143q66 0 107 44t41 130v230h57v-445h-44l-10 64q-1 1 -3 1q-62 -75 -148 -75q-166 0 -166 182v273zM267 520q-40 0 -63.5 24t-23.5 61t25.5 62.5t61.5 25.5q38 0 63 -25t25 -63q0 -36 -25 -60.5t-63 -24.5zM267 659q-22 0 -36.5 -16
t-14.5 -38t14 -37t37 -15q24 0 38 15.5t14 36.5q0 23 -14.5 38.5t-37.5 15.5z" />
    <glyph glyph-name="Uhungarumlaut" unicode="&#x170;" horiz-adv-x="676" 
d="M534 246v416h57v-422q0 -111 -67.5 -180.5t-185.5 -69.5q-119 0 -186 68.5t-67 183.5v420h57v-412q0 -90 49 -148t147 -58q97 0 146.5 55.5t49.5 146.5zM270 733h-51l121 137l67 -18zM390 733h-51l121 137l67 -18z" />
    <glyph glyph-name="uhungarumlaut" unicode="&#x171;" horiz-adv-x="521" 
d="M75 445h56v-261q0 -143 110 -143q66 0 107 44t41 130v230h57v-445h-44l-10 64q-1 1 -3 1q-62 -75 -148 -75q-166 0 -166 182v273zM207 531h-46l104 151l62 -18zM309 531h-46l104 151l62 -18z" />
    <glyph glyph-name="Uogonek" unicode="&#x172;" horiz-adv-x="676" 
d="M534 246v416h57v-422q0 -103 -59 -171t-163 -77q-37 -31 -58 -65.5t-21 -60.5q0 -46 46 -46t99 34l-5 -45q-49 -30 -108 -30q-85 0 -85 75q0 26 18.5 63.5t64.5 73.5q-111 5 -173 72.5t-62 178.5v420h57v-412q0 -90 49 -148t147 -58q97 0 146.5 55.5t49.5 146.5z" />
    <glyph glyph-name="uogonek" unicode="&#x173;" horiz-adv-x="521" 
d="M75 445h56v-261q0 -143 110 -143q66 0 107 44t41 130v230h57v-445h-25q-37 -30 -57.5 -64.5t-20.5 -60.5q0 -46 46 -46t99 34l-5 -45q-49 -30 -108 -30q-85 0 -85 75q0 29 24.5 72.5t84.5 81.5l-7 47q-1 1 -3 1q-62 -75 -148 -75q-166 0 -166 182v273z" />
    <glyph glyph-name="Wcircumflex" unicode="&#x174;" horiz-adv-x="886" 
d="M444 520h-4l-177 -527h-14l-239 667h57l188 -526h5l177 531h12l180 -531h5l185 526h57l-241 -667h-12zM590 728h-68l-76 71l-80 -71h-67l140 133h16z" />
    <glyph glyph-name="wcircumflex" unicode="&#x175;" horiz-adv-x="706" 
d="M351 445h9l148 -334h4l129 334h55l-182 -451h-10l-148 335h-3l-148 -335h-11l-179 451h58l129 -334h3zM498 529h-66l-77 82l-79 -82h-63l137 143h16z" />
    <glyph glyph-name="Ycircumflex" unicode="&#x176;" 
d="M279 351h4l186 311h61l-221 -367v-295h-58v295l-241 367h65zM426 727h-68l-76 71l-80 -71h-67l140 133h16z" />
    <glyph glyph-name="ycircumflex" unicode="&#x177;" horiz-adv-x="442" 
d="M221 81h6l149 364h56l-274 -660h-59l95 230l-184 430h62zM370 530h-66l-77 82l-79 -82h-63l137 143h16z" />
    <glyph glyph-name="Ydieresis" unicode="&#x178;" 
d="M279 351h4l186 311h61l-221 -367v-295h-58v295l-241 367h65zM235 779q0 -16 -10 -26.5t-26 -10.5q-17 0 -27.5 10.5t-10.5 26.5q0 14 11.5 25.5t26.5 11.5q16 0 26 -10.5t10 -26.5zM395 779q0 -17 -10.5 -27t-26.5 -10t-26.5 10t-10.5 27q0 14 11 25.5t26 11.5
q16 0 26.5 -10.5t10.5 -26.5z" />
    <glyph glyph-name="Zacute" unicode="&#x179;" horiz-adv-x="500" 
d="M477 662v-9l-364 -601h367v-52h-460v9l368 601h-328v52h417zM260 733h-51l121 137l67 -18z" />
    <glyph glyph-name="zacute" unicode="&#x17a;" horiz-adv-x="408" 
d="M383 445v-9l-278 -390h274v-46h-364v9l281 390h-248v46h335zM211 531h-47l104 151l63 -18z" />
    <glyph glyph-name="Zdotaccent" unicode="&#x17b;" horiz-adv-x="500" 
d="M477 662v-9l-364 -601h367v-52h-460v9l368 601h-328v52h417zM306 799q0 -17 -11 -27.5t-27 -10.5q-17 0 -28 10.5t-11 27.5q0 15 11.5 27t27.5 12t27 -11t11 -28z" />
    <glyph glyph-name="zdotaccent" unicode="&#x17c;" horiz-adv-x="408" 
d="M383 445v-9l-278 -390h274v-46h-364v9l281 390h-248v46h335zM250 589q0 -17 -11 -27.5t-27 -10.5q-17 0 -28 10.5t-11 27.5q0 15 11.5 27t27.5 12t27 -11t11 -28z" />
    <glyph glyph-name="Zcaron" unicode="&#x17d;" horiz-adv-x="500" 
d="M477 662v-9l-364 -601h367v-52h-460v9l368 601h-328v52h417zM344 861h66l-135 -133h-16l-140 133h67l80 -78z" />
    <glyph glyph-name="zcaron" unicode="&#x17e;" horiz-adv-x="408" 
d="M383 445v-9l-278 -390h274v-46h-364v9l281 390h-248v46h335zM285 672h65l-132 -143h-16l-137 143h63l81 -81z" />
    <glyph glyph-name="longs" unicode="&#x17f;" horiz-adv-x="218" 
d="M320 713v-50q-34 14 -77 14q-100 0 -100 -128v-549h-56v398h-82v34l82 13v99q0 180 160 180q39 0 73 -11z" />
    <glyph glyph-name="florin" unicode="&#x192;" 
d="M168 356v43h88l11 95q11 89 47.5 132.5t104.5 43.5q32 0 67 -12v-47q-36 10 -62 10q-46 0 -69 -30t-32 -98l-12 -94h97v-43h-102l-24 -187q-19 -147 -51.5 -201.5t-102.5 -54.5q-37 0 -75 15v56q43 -17 70 -17q51 0 70 45.5t37 195.5l19 148h-81z" />
    <glyph glyph-name="AEacute" unicode="&#x1fc;" horiz-adv-x="955" 
d="M925 0h-439v161h-304l-132 -161h-70l548 662h370v-52h-354v-234h329v-52h-329v-271h381v-53zM482 526l-260 -316h264v316h-4zM596 733h-51l121 137l67 -18z" />
    <glyph glyph-name="aeacute" unicode="&#x1fd;" horiz-adv-x="817" 
d="M753 97v-57q-65 -50 -167 -50q-68 0 -121.5 32.5t-76.5 86.5q-55 -120 -193 -120q-87 0 -126 41t-39 88q0 147 219 147h103v25q0 118 -128 118q-67 0 -146 -43v52q31 18 74 28.5t75 10.5q132 0 168 -90q64 90 174 90q96 0 149.5 -60.5t53.5 -156.5v-18h-360
q2 -80 51.5 -131t119.5 -51q97 0 170 58zM352 195v26h-98q-166 0 -166 -98q0 -41 33 -63t86 -22q70 0 107.5 45t37.5 112zM570 406q-66 0 -108 -37t-49 -105h305q-6 68 -44.5 105t-103.5 37zM429 531h-47l104 151l63 -18z" />
    <glyph glyph-name="Oslashacute" unicode="&#x1fe;" horiz-adv-x="787" 
d="M420 733h-51l121 137l67 -18zM395 -10q-114 0 -198 54l-35 -44h-56l56 70q-107 95 -107 261q0 143 99.5 242t240.5 99q110 0 197 -61l41 51h55l-63 -79q107 -99 107 -252q0 -145 -95.5 -243t-241.5 -98zM395 619q-122 0 -200.5 -83t-78.5 -205q0 -135 83 -215l359 452
q-70 51 -163 51zM674 331q0 124 -83 209l-359 -451q70 -46 163 -46q124 0 201.5 83.5t77.5 204.5z" />
    <glyph glyph-name="oslashacute" unicode="&#x1ff;" horiz-adv-x="550" 
d="M276 -10q-82 0 -140 41l-28 -31h-54l52 57q-61 64 -61 166q0 97 67.5 164.5t163.5 67.5q83 0 143 -49l34 38h53l-58 -65q57 -65 57 -156q0 -99 -65.5 -166t-163.5 -67zM276 407q-76 0 -124.5 -53.5t-48.5 -130.5q0 -74 39 -125l243 270q-47 39 -109 39zM448 223
q0 66 -36 116l-241 -269q43 -32 105 -32q78 0 125 53.5t47 131.5zM289 531h-47l104 151l63 -18z" />
    <glyph glyph-name="Scommaaccent" unicode="&#x218;" horiz-adv-x="485" 
d="M35 44v62q90 -63 188 -63q76 0 122.5 30.5t46.5 92.5q0 39 -19 69t-49 49t-66.5 35.5l-73 33t-66.5 35.5t-49 49t-19 69q0 80 58 123t133 43q96 0 168 -41v-62q-73 50 -160 50q-60 0 -99.5 -26t-39.5 -84q0 -38 35 -66.5t85 -49.5t100 -45t85 -67.5t35 -104.5
q0 -92 -60.5 -139t-158.5 -47q-114 0 -196 54zM193 -86q0 17 12 29t29 12t28.5 -11t11.5 -29q0 -50 -59 -155l-31 5l34 113q-25 8 -25 36z" />
    <glyph glyph-name="scommaaccent" unicode="&#x219;" horiz-adv-x="369" 
d="M25 29v56q67 -48 141 -48q112 0 112 77q0 31 -24 53t-59 36t-69.5 28.5t-58.5 40.5t-24 63q0 59 42.5 89.5t101.5 30.5q66 0 127 -30v-55q-66 38 -120 38q-93 0 -93 -69q0 -24 24 -42t58.5 -31.5t68.5 -29t58 -44.5t24 -69q0 -63 -45.5 -97.5t-116.5 -34.5q-83 0 -147 38
zM135 -86q0 17 12 29t29 12t28.5 -11t11.5 -29q0 -50 -59 -155l-31 5l34 113q-25 8 -25 36z" />
    <glyph glyph-name="uni021A" unicode="&#x21a;" horiz-adv-x="523" 
d="M508 610h-216v-610h-59v610h-218v52h493v-52zM215 -86q0 17 12 29t29 12t28.5 -11t11.5 -29q0 -50 -59 -155l-31 5l34 113q-25 8 -25 36z" />
    <glyph glyph-name="uni021B" unicode="&#x21b;" horiz-adv-x="320" 
d="M134 579h23v-134h127v-47h-127v-271q0 -42 14 -62.5t52 -20.5q43 0 84 28v-52q-39 -29 -90 -29q-67 0 -92 35t-25 101v271h-75v37l75 10zM98 -86q0 17 12 29t29 12t28.5 -11t11.5 -29q0 -50 -59 -155l-31 5l34 113q-25 8 -25 36z" />
    <glyph glyph-name="schwa" unicode="&#x259;" horiz-adv-x="525" 
d="M81 350v54q68 51 171 51q106 0 164 -63t58 -171q0 -98 -62 -164.5t-154 -66.5q-95 0 -149 65t-54 162q0 14 1 20h359q-2 80 -46 124.5t-119 44.5q-91 0 -169 -56zM257 40q66 0 108 41t49 110h-305q7 -69 46 -110t102 -41z" />
    <glyph glyph-name="primemod" unicode="&#x2b9;" horiz-adv-x="207" 
d="M69 425h-42l105 257l58 -19z" />
    <glyph glyph-name="circumflex" unicode="&#x2c6;" horiz-adv-x="469" 
d="M368 529h-66l-77 82l-79 -82h-63l137 143h16z" />
    <glyph glyph-name="caron" unicode="&#x2c7;" horiz-adv-x="469" 
d="M303 672h65l-132 -143h-16l-137 143h63l81 -81z" />
    <glyph glyph-name="breve" unicode="&#x2d8;" horiz-adv-x="469" 
d="M308 672h47q-2 -56 -35.5 -95.5t-93.5 -39.5q-57 0 -90.5 39t-35.5 96h47q0 -40 21 -67.5t57 -27.5q77 0 83 95z" />
    <glyph glyph-name="dotaccent" unicode="&#x2d9;" horiz-adv-x="427" 
d="M294 589q0 -17 -11 -27.5t-27 -10.5q-17 0 -28 10.5t-11 27.5q0 15 11.5 27t27.5 12t27 -11t11 -28z" />
    <glyph glyph-name="ring" unicode="&#x2da;" horiz-adv-x="469" 
d="M236 530q-40 0 -63.5 24t-23.5 61t25.5 62.5t61.5 25.5q38 0 63 -25t25 -63q0 -36 -25 -60.5t-63 -24.5zM236 669q-22 0 -36.5 -16t-14.5 -38t14 -37t37 -15q24 0 38 15.5t14 36.5q0 23 -14.5 38.5t-37.5 15.5z" />
    <glyph glyph-name="ogonek" unicode="&#x2db;" horiz-adv-x="523" 
d="M353 37l9 -20q-47 -32 -74 -72t-27 -70q0 -46 46 -46t99 34l-5 -45q-49 -30 -108 -30q-85 0 -85 75q0 13 6 31.5t20 43t45 51.5t74 48z" />
    <glyph glyph-name="tilde" unicode="&#x2dc;" horiz-adv-x="469" 
d="M349 645l28 -31q-26 -70 -80 -70q-24 0 -66.5 24t-57.5 24q-29 0 -54 -54l-30 31q12 30 33 50.5t49 20.5q24 0 67 -24t57 -24q29 0 54 53z" />
    <glyph glyph-name="hungarumlaut" unicode="&#x2dd;" horiz-adv-x="469" 
d="M177 531h-46l104 151l62 -18zM279 531h-46l104 151l62 -18z" />
    <glyph glyph-name="tonos" unicode="&#x384;" horiz-adv-x="469" 
d="M238 531h-47l104 151l63 -18z" />
    <glyph glyph-name="dieresistonos" unicode="&#x385;" horiz-adv-x="469" 
d="M104 586q0 16 11.5 27t26.5 11q16 0 27 -11t11 -27q0 -15 -11 -26.5t-27 -11.5q-15 0 -26.5 11t-11.5 27zM319 586q0 16 11 27t26 11q16 0 27.5 -11t11.5 -27q0 -15 -11.5 -26.5t-27.5 -11.5q-15 0 -26 11t-11 27zM217 520h-47l104 151l63 -18z" />
    <glyph glyph-name="Alphatonos" unicode="&#x386;" horiz-adv-x="612" 
d="M537 0l-68 161h-327l-68 -161h-59l285 667h14l283 -667h-60zM303 543l-140 -333h285l-141 333h-4zM50 530h-47l104 151l63 -18z" />
    <glyph glyph-name="anoteleia" unicode="&#x387;" horiz-adv-x="192" 
d="M142 350q0 -19 -13.5 -32.5t-32.5 -13.5q-20 0 -33 13t-13 33t13 33t33 13t33 -13t13 -33z" />
    <glyph glyph-name="Epsilontonos" unicode="&#x388;" horiz-adv-x="556" 
d="M526 53v-53h-441v662h414v-52h-355v-234h330v-52h-330v-271h382zM-83 530h-47l104 151l63 -18z" />
    <glyph glyph-name="Etatonos" unicode="&#x389;" horiz-adv-x="668" 
d="M583 0h-57v324h-383v-324h-58v662h58v-286h383v286h57v-662zM-85 529h-47l104 151l63 -18z" />
    <glyph glyph-name="Iotatonos" unicode="&#x38a;" horiz-adv-x="248" 
d="M153 0h-58v662h58v-662zM-66 529h-47l104 151l63 -18z" />
    <glyph glyph-name="Omicrontonos" unicode="&#x38c;" horiz-adv-x="787" 
d="M395 -10q-158 0 -249 96t-91 245q0 143 99.5 242t240.5 99q145 0 241 -98.5t96 -242.5q0 -145 -95.5 -243t-241.5 -98zM395 619q-122 0 -200.5 -83t-78.5 -205q0 -126 75.5 -207t203.5 -81q124 0 201.5 83.5t77.5 204.5t-78.5 204.5t-200.5 83.5zM-42 529h-47l104 151
l63 -18z" />
    <glyph glyph-name="Upsilontonos" unicode="&#x38e;" 
d="M279 351h4l186 311h61l-221 -367v-295h-58v295l-241 367h65zM-129 530h-47l104 151l63 -18z" />
    <glyph glyph-name="Omegatonos" unicode="&#x38f;" horiz-adv-x="779" 
d="M393 621q-125 0 -204.5 -83t-79.5 -206q0 -61 19 -122t66 -117t114 -81v-12h-258v52h119v4q-58 47 -88.5 117.5t-30.5 148.5q0 150 98.5 250.5t244.5 100.5q143 0 239 -99.5t96 -242.5q0 -79 -30 -152t-89 -123v-4h120v-52h-257v12q51 19 91 55.5t62.5 81.5t34 91.5
t11.5 91.5q0 116 -75.5 202.5t-202.5 86.5zM-50 528h-47l104 151l63 -18z" />
    <glyph glyph-name="iotadieresistonos" unicode="&#x390;" horiz-adv-x="217" 
d="M137 0h-57v445h57v-445zM-31 586q0 16 11.5 27t26.5 11q16 0 27 -11t11 -27q0 -15 -11 -26.5t-27 -11.5q-15 0 -26.5 11t-11.5 27zM184 586q0 16 11 27t26 11q16 0 27.5 -11t11.5 -27q0 -15 -11.5 -26.5t-27.5 -11.5q-15 0 -26 11t-11 27zM82 520h-47l104 151l63 -18z
" />
    <glyph glyph-name="Alpha" unicode="&#x391;" horiz-adv-x="612" 
d="M537 0l-68 161h-327l-68 -161h-59l285 667h14l283 -667h-60zM303 543l-140 -333h285l-141 333h-4z" />
    <glyph glyph-name="Beta" unicode="&#x392;" horiz-adv-x="604" 
d="M491 193q0 62 -46 99.5t-123 37.5h-179v-277h190q87 0 122.5 42t35.5 98zM143 610v-229h173q22 0 43 5t43.5 17t36.5 36.5t14 58.5q0 50 -33.5 81t-93.5 31h-183zM421 361v-4q66 -17 97 -64t31 -103q0 -85 -58 -137.5t-148 -52.5h-258v662h233q86 0 139.5 -40t53.5 -119
q0 -43 -23.5 -82.5t-66.5 -59.5z" />
    <glyph glyph-name="Gamma" unicode="&#x393;" horiz-adv-x="516" 
d="M143 610v-610h-58v662h416v-52h-358z" />
    <glyph glyph-name="Delta" unicode="&#x394;" horiz-adv-x="638" 
d="M326 669l298 -669h-607l297 669h12zM318 554l-220 -503h442l-221 503h-1z" />
    <glyph glyph-name="Delta" unicode="&#x2206;" horiz-adv-x="638" 
d="M326 669l298 -669h-607l297 669h12zM318 554l-220 -503h442l-221 503h-1z" />
    <glyph glyph-name="Epsilon" unicode="&#x395;" horiz-adv-x="556" 
d="M526 53v-53h-441v662h414v-52h-355v-234h330v-52h-330v-271h382z" />
    <glyph glyph-name="Zeta" unicode="&#x396;" horiz-adv-x="500" 
d="M477 662v-9l-364 -601h367v-52h-460v9l368 601h-328v52h417z" />
    <glyph glyph-name="Eta" unicode="&#x397;" horiz-adv-x="668" 
d="M583 0h-57v324h-383v-324h-58v662h58v-286h383v286h57v-662z" />
    <glyph glyph-name="Theta" unicode="&#x398;" horiz-adv-x="787" 
d="M396 -11q-157 0 -249 97t-92 246q0 143 99.5 242.5t241.5 99.5q146 0 242 -98.5t96 -243.5q0 -146 -95.5 -244.5t-242.5 -98.5zM396 621q-122 0 -201.5 -83.5t-79.5 -205.5q0 -127 76 -209t205 -82q125 0 202.5 84t77.5 207q0 121 -79 205t-201 84zM211 322v52h369v-52
h-369z" />
    <glyph glyph-name="Iota" unicode="&#x399;" horiz-adv-x="248" 
d="M153 0h-58v662h58v-662z" />
    <glyph glyph-name="Kappa" unicode="&#x39a;" horiz-adv-x="580" 
d="M143 662v-314l324 314h72l-323 -318l354 -344h-82l-345 339v-339h-58v662h58z" />
    <glyph glyph-name="Lambda" unicode="&#x39b;" horiz-adv-x="612" 
d="M537 0l-230 546h-4l-229 -546h-59l286 669h12l284 -669h-60z" />
    <glyph glyph-name="Mu" unicode="&#x39c;" horiz-adv-x="815" 
d="M414 153h-14l-258 358l-2 -3v-508h-55v667h15l308 -437l307 437h15v-667h-55l1 517l-3 2z" />
    <glyph glyph-name="Nu" unicode="&#x39d;" horiz-adv-x="721" 
d="M141 0h-56v671h15l476 -546h4v537h56v-669h-15l-477 549h-3v-542z" />
    <glyph glyph-name="Xi" unicode="&#x39e;" horiz-adv-x="566" 
d="M35 56h496v-56h-496v56zM93 378h384v-54h-384v54zM518 608h-470v54h470v-54z" />
    <glyph glyph-name="Omicron" unicode="&#x39f;" horiz-adv-x="787" 
d="M395 -10q-158 0 -249 96t-91 245q0 143 99.5 242t240.5 99q145 0 241 -98.5t96 -242.5q0 -145 -95.5 -243t-241.5 -98zM395 619q-122 0 -200.5 -83t-78.5 -205q0 -126 75.5 -207t203.5 -81q124 0 201.5 83.5t77.5 204.5t-78.5 204.5t-200.5 83.5z" />
    <glyph glyph-name="Pi" unicode="&#x3a0;" horiz-adv-x="674" 
d="M589 0h-58v610h-388v-610h-58v662h504v-662z" />
    <glyph glyph-name="Rho" unicode="&#x3a1;" horiz-adv-x="563" 
d="M84 0v661h217q109 0 170 -62t61 -150q0 -101 -68 -158.5t-166 -57.5h-155v-233h-59zM280 613h-137v-332h148q88 0 133 49t45 118q0 68 -47.5 116.5t-141.5 48.5z" />
    <glyph glyph-name="Sigma" unicode="&#x3a3;" 
d="M300 359l-185 -307h410v-52h-500v9l209 348l-196 296v9h469v-52h-374z" />
    <glyph glyph-name="Tau" unicode="&#x3a4;" horiz-adv-x="523" 
d="M508 610h-216v-610h-59v610h-218v52h493v-52z" />
    <glyph glyph-name="Upsilon" unicode="&#x3a5;" 
d="M279 351h4l186 311h61l-221 -367v-295h-58v295l-241 367h65z" />
    <glyph glyph-name="Phi" unicode="&#x3a6;" horiz-adv-x="818" 
d="M763 343q0 -117 -89 -191t-236 -84v-68h-58v68q-140 5 -232.5 81.5t-92.5 193.5t95 193.5t230 81.5v44h58v-44q137 -4 231 -81t94 -194zM707 344q0 95 -75.5 156t-193.5 67v-446q126 4 197.5 65t71.5 158zM380 121v445q-119 -8 -192 -68t-73 -155q0 -96 70.5 -154.5
t194.5 -67.5z" />
    <glyph glyph-name="Chi" unicode="&#x3a7;" horiz-adv-x="606" 
d="M529 0l-225 329l-231 -329h-63l236 341l-218 320h63l213 -307l211 307h64l-221 -319l238 -342h-67z" />
    <glyph glyph-name="Psi" unicode="&#x3a8;" horiz-adv-x="731" 
d="M393 0h-58v194q-118 4 -189 76.5t-71 185.5v206h57v-197q0 -87 53.5 -148.5t149.5 -67.5v413h58v-413q99 5 152 64t53 149v200h58v-208q0 -110 -71 -182t-192 -78v-194z" />
    <glyph glyph-name="Omega" unicode="&#x3a9;" horiz-adv-x="779" 
d="M393 621q-125 0 -204.5 -83t-79.5 -206q0 -61 19 -122t66 -117t114 -81v-12h-258v52h119v4q-58 47 -88.5 117.5t-30.5 148.5q0 150 98.5 250.5t244.5 100.5q143 0 239 -99.5t96 -242.5q0 -79 -30 -152t-89 -123v-4h120v-52h-257v12q51 19 91 55.5t62.5 81.5t34 91.5
t11.5 91.5q0 116 -75.5 202.5t-202.5 86.5z" />
    <glyph glyph-name="Iotadieresis" unicode="&#x3aa;" horiz-adv-x="248" 
d="M153 0h-58v662h58v-662zM80 795q0 -16 -10 -26.5t-26 -10.5q-17 0 -27.5 10.5t-10.5 26.5q0 14 11.5 25.5t26.5 11.5q16 0 26 -10.5t10 -26.5zM240 795q0 -17 -10 -27t-27 -10t-27 10t-10 27q0 14 11 25.5t26 11.5q16 0 26.5 -10.5t10.5 -26.5z" />
    <glyph glyph-name="Upsilondieresis" unicode="&#x3ab;" 
d="M279 351h4l186 311h61l-221 -367v-295h-58v295l-241 367h65zM236 772q0 -16 -10 -26.5t-26 -10.5q-17 0 -27.5 10.5t-10.5 26.5q0 14 11.5 25.5t26.5 11.5q16 0 26 -10.5t10 -26.5zM396 772q0 -16 -10 -26.5t-27 -10.5t-27 10.5t-10 26.5q0 14 11 25.5t26 11.5
q16 0 26.5 -10.5t10.5 -26.5z" />
    <glyph glyph-name="alphatonos" unicode="&#x3ac;" horiz-adv-x="579" 
d="M280 453q49 0 94.5 -20.5t71.5 -56.5l15 68h43v-444h-43l-12 70l-3 1q-60 -81 -167 -81q-106 0 -167.5 64.5t-61.5 167.5q0 97 67 164t163 67zM281 404q-76 0 -124.5 -52.5t-48.5 -129.5q0 -80 46.5 -132t126.5 -52q77 0 124 53t47 131q0 76 -47.5 129t-123.5 53z
M290 531h-47l104 151l63 -18z" />
    <glyph glyph-name="epsilontonos" unicode="&#x3ad;" horiz-adv-x="409" 
d="M215 531h-47l104 151l63 -18zM233 -10q-91 0 -139.5 37.5t-48.5 94.5q0 32 20.5 66t61.5 50v3q-70 25 -70 88q0 55 46.5 91t123.5 36q71 0 132 -30v-54q-61 36 -136 36q-46 0 -77 -20.5t-31 -57.5q0 -33 25.5 -48t58.5 -15h74v-47h-60q-55 0 -83 -25.5t-28 -64.5
q0 -40 33 -66.5t100 -26.5q78 0 144 49v-57q-65 -39 -146 -39z" />
    <glyph glyph-name="etatonos" unicode="&#x3ae;" horiz-adv-x="535" 
d="M460 0h-57v255q0 70 -30 110t-86 40q-67 0 -111 -44.5t-44 -130.5v-230h-57v445h44l10 -67h3q63 77 158 77q82 0 126 -49.5t44 -139.5v-266zM245 531h-47l104 151l63 -18z" />
    <glyph glyph-name="iotatonos" unicode="&#x3af;" horiz-adv-x="217" 
d="M137 0h-57v445h57v-445zM115 531h-47l104 151l63 -18z" />
    <glyph glyph-name="upsilondieresistonos" unicode="&#x3b0;" horiz-adv-x="518" 
d="M391 189v256h57v-256q0 -93 -48.5 -146t-140.5 -53q-93 0 -141 52.5t-48 147.5v255h55v-253q0 -70 32.5 -111t101.5 -41q66 0 99 39.5t33 109.5zM121 586q0 16 11.5 27t26.5 11q16 0 27 -11t11 -27q0 -15 -11 -26.5t-27 -11.5q-15 0 -26.5 11t-11.5 27zM336 586
q0 16 11 27t26 11q16 0 27.5 -11t11.5 -27q0 -15 -11.5 -26.5t-27.5 -11.5q-15 0 -26 11t-11 27zM234 520h-47l104 151l63 -18z" />
    <glyph glyph-name="alpha" unicode="&#x3b1;" horiz-adv-x="579" 
d="M280 453q49 0 94.5 -20.5t71.5 -56.5l15 68h43v-444h-43l-12 70l-3 1q-60 -81 -167 -81q-106 0 -167.5 64.5t-61.5 167.5q0 97 67 164t163 67zM281 404q-76 0 -124.5 -52.5t-48.5 -129.5q0 -80 46.5 -132t126.5 -52q77 0 124 53t47 131q0 76 -47.5 129t-123.5 53z" />
    <glyph glyph-name="beta" unicode="&#x3b2;" horiz-adv-x="557" 
d="M121 -215h-56v723q0 96 55.5 156t149.5 60q83 0 135.5 -47.5t52.5 -121.5q0 -16 -4 -35t-23.5 -48.5t-52.5 -46.5v-5q56 -17 95 -72.5t39 -126.5q0 -93 -61 -162t-160 -69q-60 0 -103.5 23t-63.5 58h-3v-286zM287 39q74 0 120.5 50t46.5 135q0 60 -27.5 100t-65.5 55
t-84 15h-29v48h32q36 0 61.5 11t37.5 29.5t16.5 36t4.5 37.5q0 57 -38.5 89t-89.5 32q-36 0 -64 -11.5t-44 -29t-26 -41t-13.5 -44t-3.5 -42.5v-292q0 -72 43.5 -125t122.5 -53z" />
    <glyph glyph-name="gamma" unicode="&#x3b3;" horiz-adv-x="434" 
d="M213 106h6l147 339h58l-180 -409v-251h-56v247l-180 413h62z" />
    <glyph glyph-name="delta" unicode="&#x3b4;" horiz-adv-x="554" 
d="M449 222q0 152 -173 203q-83 -14 -127.5 -73.5t-44.5 -129.5q0 -80 46 -132.5t127 -52.5q78 0 125 53.5t47 131.5zM285 724q89 0 149 -32v-56q-71 41 -140 41q-56 0 -90 -23t-34 -68q0 -31 25 -54.5t62 -37.5t81 -36t81 -48t62 -74.5t25 -113.5q0 -99 -65 -165.5
t-164 -66.5q-106 0 -168.5 65.5t-62.5 166.5q0 72 44 138t123 91v4q-45 18 -72 51.5t-27 76.5q0 60 46 100.5t125 40.5z" />
    <glyph glyph-name="epsilon" unicode="&#x3b5;" horiz-adv-x="409" 
d="M233 -10q-91 0 -139.5 37.5t-48.5 94.5q0 32 20.5 66t61.5 50v3q-70 25 -70 88q0 55 46.5 91t123.5 36q71 0 132 -30v-54q-61 36 -136 36q-46 0 -77 -20.5t-31 -57.5q0 -33 25.5 -48t58.5 -15h74v-47h-60q-55 0 -83 -25.5t-28 -64.5q0 -40 33 -66.5t100 -26.5
q78 0 144 49v-57q-65 -39 -146 -39z" />
    <glyph glyph-name="zeta" unicode="&#x3b6;" horiz-adv-x="386" 
d="M346 661l-2 4h-277v46h391v-10q-160 -136 -258.5 -267t-98.5 -217q0 -58 44 -90t167 -80q56 -22 78.5 -41.5t22.5 -47.5q0 -21 -25 -58t-59 -69l-42 16q63 82 63 110q0 12 -22 23.5t-84 35.5q-108 41 -154 81.5t-46 117.5q0 85 86 209t216 237z" />
    <glyph glyph-name="eta" unicode="&#x3b7;" horiz-adv-x="535" 
d="M460 0h-57v255q0 70 -30 110t-86 40q-67 0 -111 -44.5t-44 -130.5v-230h-57v445h44l10 -67h3q63 77 158 77q82 0 126 -49.5t44 -139.5v-266z" />
    <glyph glyph-name="theta" unicode="&#x3b8;" horiz-adv-x="547" 
d="M497 353q0 -166 -58 -264.5t-171 -98.5q-112 0 -165 99.5t-53 265.5q0 163 54.5 266t167.5 103q111 0 168 -101.5t57 -269.5zM439 394q-4 124 -47 202.5t-120 78.5q-75 0 -116 -78.5t-47 -202.5h330zM441 346h-333q3 -89 19 -156t52.5 -109.5t89.5 -42.5q58 0 97 43
t56 110t19 155z" />
    <glyph glyph-name="iota" unicode="&#x3b9;" horiz-adv-x="217" 
d="M137 0h-57v445h57v-445z" />
    <glyph glyph-name="kappa" unicode="&#x3ba;" horiz-adv-x="477" 
d="M448 444l-248 -208l272 -236h-84l-258 227v-227h-55v444h55v-204l243 204h75z" />
    <glyph glyph-name="lambda" unicode="&#x3bb;" horiz-adv-x="460" 
d="M238 368h-4l-164 -368h-60l198 440l-111 271h58l295 -711h-60z" />
    <glyph glyph-name="nu" unicode="&#x3bd;" horiz-adv-x="459" 
d="M233 -6h-11l-207 451h62l151 -339h5l151 339h60z" />
    <glyph glyph-name="xi" unicode="&#x3be;" horiz-adv-x="415" 
d="M263 676q-67 0 -102 -35.5t-35 -82.5q0 -64 44.5 -94t107.5 -30h98v-47h-104q-80 0 -120 -48t-40 -115q0 -61 46 -93.5t157 -68.5q67 -21 91 -42t24 -49q0 -42 -74 -134l-47 14q55 81 55 111q0 17 -17.5 28t-67.5 27q-121 37 -173.5 82t-52.5 122q0 59 30 110t92 77v5
q-54 17 -81.5 56t-27.5 90q0 64 48.5 114.5t146.5 50.5q83 0 148 -38v-59q-70 49 -146 49z" />
    <glyph glyph-name="omicron" unicode="&#x3bf;" horiz-adv-x="560" 
d="M281 -10q-106 0 -168.5 66t-62.5 167q0 97 67.5 164.5t163.5 67.5q99 0 164 -67t65 -165q0 -99 -65.5 -166t-163.5 -67zM281 407q-76 0 -124.5 -53.5t-48.5 -130.5q0 -80 46.5 -132.5t126.5 -52.5q78 0 125 53.5t47 131.5q0 77 -47.5 130.5t-124.5 53.5z" />
    <glyph glyph-name="pi" unicode="&#x3c0;" horiz-adv-x="536" 
d="M461 0h-58v393h-271v-393h-57v445h386v-445z" />
    <glyph glyph-name="rho" unicode="&#x3c1;" horiz-adv-x="577" 
d="M129 67l-6 -3v-279h-58v427q0 62 24.5 116t78.5 91t127 37q101 0 166.5 -67.5t65.5 -165.5q0 -99 -63.5 -165.5t-163.5 -66.5q-108 0 -171 76zM470 223q0 76 -47.5 130t-126.5 54q-78 0 -125.5 -55t-47.5 -133q0 -74 47 -126.5t127 -52.5q76 0 124.5 50t48.5 133z" />
    <glyph glyph-name="sigma1" unicode="&#x3c2;" horiz-adv-x="403" 
d="M45 227q0 103 62.5 166t161.5 63q64 0 109 -20v-55q-45 27 -105 27q-76 0 -124 -46.5t-48 -133.5q0 -58 29.5 -96.5t108.5 -70.5q102 -41 122 -58q16 -14 16 -32q0 -15 -17 -44.5t-56 -66.5l-46 13q53 64 53 85q0 5 -4.5 10t-16.5 11t-21 10t-29.5 12.5t-31.5 13.5
q-94 40 -128.5 87t-34.5 125z" />
    <glyph glyph-name="sigma" unicode="&#x3c3;" horiz-adv-x="549" 
d="M418 398l-2 -4q39 -28 61.5 -76t22.5 -101q0 -96 -64.5 -161.5t-160.5 -65.5q-103 0 -164 64.5t-61 162.5q0 96 66 162t160 66h253v-47h-111zM275 397q-74 0 -121 -52t-47 -128q0 -78 45 -129t123 -51q77 0 123 52t46 128q0 77 -45.5 128.5t-123.5 51.5z" />
    <glyph glyph-name="tau" unicode="&#x3c4;" horiz-adv-x="365" 
d="M15 445h327v-46h-152v-272q0 -42 14 -62.5t52 -20.5q43 0 84 28v-52q-39 -29 -90 -29q-67 0 -92 35t-25 101v272h-118v46z" />
    <glyph glyph-name="upsilon" unicode="&#x3c5;" horiz-adv-x="518" 
d="M391 189v256h57v-256q0 -93 -48.5 -146t-140.5 -53q-93 0 -141 52.5t-48 147.5v255h55v-253q0 -70 32.5 -111t101.5 -41q66 0 99 39.5t33 109.5z" />
    <glyph glyph-name="phi" unicode="&#x3c6;" horiz-adv-x="675" 
d="M364 408v-369q95 6 150.5 57.5t55.5 125.5q0 79 -50.5 131.5t-155.5 54.5zM310 39v416h57q117 0 187.5 -62t70.5 -166q0 -94 -73 -161.5t-188 -72.5v-211h-54v211q-117 2 -188.5 68t-71.5 161q0 84 48.5 144t130.5 80l27 -43q-73 -16 -112 -65.5t-39 -115.5
q0 -75 56.5 -128t148.5 -55z" />
    <glyph glyph-name="chi" unicode="&#x3c7;" horiz-adv-x="452" 
d="M377 0l-150 216l-155 -216h-62l162 228l-152 217h62l145 -205l144 205h62l-154 -216l163 -229h-65z" />
    <glyph glyph-name="psi" unicode="&#x3c8;" horiz-adv-x="625" 
d="M285 -219v209q-101 1 -158 62t-57 157v236h55v-234q0 -71 41 -119t119 -51v404h54v-404q80 2 120 48.5t40 125.5v230h56v-237q0 -94 -57 -154t-159 -64v-209h-54z" />
    <glyph glyph-name="omega" unicode="&#x3c9;" horiz-adv-x="749" 
d="M699 221q0 -91 -47.5 -160.5t-139.5 -69.5q-48 0 -84.5 23.5t-52.5 58.5h-5q-55 -82 -145 -82q-86 0 -130.5 61t-44.5 163q0 97 50 166t139 73l19 -47q-71 -3 -110 -55.5t-39 -131.5q0 -81 31 -131t91 -50q57 0 85 38.5t28 89.5v140h58v-144q0 -52 31.5 -88t80.5 -36
q60 0 94 52t34 129q0 78 -40 131t-109 56l18 48q93 -5 140.5 -72t47.5 -162z" />
    <glyph glyph-name="iotadieresis" unicode="&#x3ca;" horiz-adv-x="217" 
d="M137 0h-57v445h57v-445zM67 586q0 -16 -10 -26.5t-26 -10.5q-17 0 -27.5 10.5t-10.5 26.5q0 14 11.5 25.5t26.5 11.5q16 0 26 -10.5t10 -26.5zM227 586q0 -16 -10.5 -26.5t-26.5 -10.5t-26.5 10.5t-10.5 26.5q0 14 11 25.5t26 11.5q16 0 26.5 -10.5t10.5 -26.5z" />
    <glyph glyph-name="upsilondieresis" unicode="&#x3cb;" horiz-adv-x="518" 
d="M391 189v256h57v-256q0 -93 -48.5 -146t-140.5 -53q-93 0 -141 52.5t-48 147.5v255h55v-253q0 -70 32.5 -111t101.5 -41q66 0 99 39.5t33 109.5zM220 586q0 -16 -10 -26.5t-26 -10.5q-17 0 -27.5 10.5t-10.5 26.5q0 14 11.5 25.5t26.5 11.5q16 0 26 -10.5t10 -26.5z
M380 586q0 -16 -10 -26.5t-27 -10.5t-27 10.5t-10 26.5q0 14 11 25.5t26 11.5q16 0 26.5 -10.5t10.5 -26.5z" />
    <glyph glyph-name="omicrontonos" unicode="&#x3cc;" horiz-adv-x="560" 
d="M281 -10q-106 0 -168.5 66t-62.5 167q0 97 67.5 164.5t163.5 67.5q99 0 164 -67t65 -165q0 -99 -65.5 -166t-163.5 -67zM281 407q-76 0 -124.5 -53.5t-48.5 -130.5q0 -80 46.5 -132.5t126.5 -52.5q78 0 125 53.5t47 131.5q0 77 -47.5 130.5t-124.5 53.5zM293 531h-47
l104 151l63 -18z" />
    <glyph glyph-name="upsilontonos" unicode="&#x3cd;" horiz-adv-x="518" 
d="M259 531h-47l104 151l63 -18zM391 189v256h57v-256q0 -93 -48.5 -146t-140.5 -53q-93 0 -141 52.5t-48 147.5v255h55v-253q0 -70 32.5 -111t101.5 -41q66 0 99 39.5t33 109.5z" />
    <glyph glyph-name="omegatonos" unicode="&#x3ce;" horiz-adv-x="749" 
d="M699 221q0 -91 -47.5 -160.5t-139.5 -69.5q-48 0 -84.5 23.5t-52.5 58.5h-5q-55 -82 -145 -82q-86 0 -130.5 61t-44.5 163q0 97 50 166t139 73l19 -47q-71 -3 -110 -55.5t-39 -131.5q0 -81 31 -131t91 -50q57 0 85 38.5t28 89.5v140h58v-144q0 -52 31.5 -88t80.5 -36
q60 0 94 52t34 129q0 78 -40 131t-109 56l18 48q93 -5 140.5 -72t47.5 -162zM379 531h-47l104 151l63 -18z" />
    <glyph glyph-name="afii10023" unicode="&#x401;" horiz-adv-x="556" 
d="M526 53v-53h-441v662h414v-52h-355v-234h330v-52h-330v-271h382zM253 795q0 -16 -10 -26.5t-26 -10.5q-17 0 -27.5 10.5t-10.5 26.5q0 14 11.5 25.5t26.5 11.5q16 0 26 -10.5t10 -26.5zM413 795q0 -17 -10.5 -27t-26.5 -10t-26.5 10t-10.5 27q0 14 11 25.5t26 11.5
q16 0 26.5 -10.5t10.5 -26.5z" />
    <glyph glyph-name="afii10051" unicode="&#x402;" horiz-adv-x="780" 
d="M528 610h-236v-232q94 39 183 39q122 0 188 -71t66 -173q0 -98 -48 -175.5t-132 -114.5l-46 34q166 77 166 253q0 84 -52 140.5t-151 56.5q-86 0 -174 -37v-330h-59v610h-218v52h513v-52z" />
    <glyph glyph-name="afii10052" unicode="&#x403;" horiz-adv-x="516" 
d="M274 733h-51l121 137l67 -18zM143 610v-610h-58v662h416v-52h-358z" />
    <glyph glyph-name="afii10053" unicode="&#x404;" horiz-adv-x="611" 
d="M586 96v-57q-37 -23 -91.5 -35.5t-103.5 -12.5q-158 0 -247 94.5t-89 241.5q0 149 98 247.5t242 98.5q108 0 165 -31v-57q-74 36 -160 36q-108 0 -187 -66t-94 -179h358v-52h-361q1 -128 75 -204.5t206 -76.5q96 0 189 53z" />
    <glyph glyph-name="afii10054" unicode="&#x405;" horiz-adv-x="485" 
d="M35 44v62q90 -63 188 -63q76 0 122.5 30.5t46.5 92.5q0 39 -19 69t-49 49t-66.5 35.5l-73 33t-66.5 35.5t-49 49t-19 69q0 80 58 123t133 43q96 0 168 -41v-62q-73 50 -160 50q-60 0 -99.5 -26t-39.5 -84q0 -38 35 -66.5t85 -49.5t100 -45t85 -67.5t35 -104.5
q0 -92 -60.5 -139t-158.5 -47q-114 0 -196 54z" />
    <glyph glyph-name="afii10055" unicode="&#x406;" horiz-adv-x="248" 
d="M153 0h-58v662h58v-662z" />
    <glyph glyph-name="afii10056" unicode="&#x407;" horiz-adv-x="248" 
d="M153 0h-58v662h58v-662zM82 795q0 -16 -10 -26.5t-26 -10.5q-17 0 -27.5 10.5t-10.5 26.5q0 14 11.5 25.5t26.5 11.5q16 0 26 -10.5t10 -26.5zM242 795q0 -17 -10 -27t-27 -10t-27 10t-10 27q0 14 11 25.5t26 11.5q16 0 26.5 -10.5t10.5 -26.5z" />
    <glyph glyph-name="afii10057" unicode="&#x408;" horiz-adv-x="445" 
d="M144 44q91 0 124.5 50.5t33.5 139.5v428h58v-418q0 -57 -10 -100.5t-34 -79.5t-67.5 -55t-105.5 -19q-82 0 -133 30v61q25 -17 64.5 -27t69.5 -10z" />
    <glyph glyph-name="afii10058" unicode="&#x409;" horiz-adv-x="1024" 
d="M236 613l-38 -372q-13 -129 -46.5 -186.5t-121.5 -72.5l-25 46q73 17 99.5 56t35.5 128l44 449h354v-259h203q110 0 171.5 -56t61.5 -148q0 -93 -62 -145.5t-154 -52.5h-281v613h-241zM746 349h-208v-296h222q68 0 111.5 36.5t43.5 108.5t-48.5 111.5t-120.5 39.5z" />
    <glyph glyph-name="afii10059" unicode="&#x40a;" horiz-adv-x="1049" 
d="M502 0v340h-359v-340h-58v662h58v-270h359v270h60v-270h204q110 0 171.5 -54t61.5 -145q0 -93 -61.5 -143t-154.5 -50h-281zM771 339h-209v-286h223q69 0 112 34t43 106t-48 109t-121 37z" />
    <glyph glyph-name="afii10060" unicode="&#x40b;" horiz-adv-x="777" 
d="M529 610h-237l1 -238q94 35 195 35q107 0 158 -51t51 -138v-218h-59v203q0 74 -37 114t-130 40q-94 0 -178 -35l-1 -322h-59v610h-218v52h514v-52z" />
    <glyph glyph-name="afii10061" unicode="&#x40c;" horiz-adv-x="580" 
d="M278 735h-51l121 137l67 -18zM143 662v-314l324 314h72l-323 -318l354 -344h-82l-345 339v-339h-58v662h58z" />
    <glyph glyph-name="afii10062" unicode="&#x40e;" horiz-adv-x="569" 
d="M379 858h47q-2 -56 -35.5 -95.5t-93.5 -39.5q-57 0 -90.5 39t-35.5 96h47q0 -40 21 -67.5t57 -27.5q77 0 83 95zM263 143l-253 518h62l217 -450h4l207 450h59l-260 -564q-28 -59 -60.5 -83t-79.5 -24q-58 0 -107 24v58q53 -30 103 -30q64 0 101 85z" />
    <glyph glyph-name="afii10145" unicode="&#x40f;" horiz-adv-x="677" 
d="M534 662h58v-662h-220v-159h-61v159h-226v662h58v-610h391v610z" />
    <glyph glyph-name="afii10017" unicode="&#x410;" horiz-adv-x="612" 
d="M537 0l-68 161h-327l-68 -161h-59l285 667h14l283 -667h-60zM303 543l-140 -333h285l-141 333h-4z" />
    <glyph glyph-name="afii10018" unicode="&#x411;" horiz-adv-x="632" 
d="M85 0v662h416v-51h-356v-209h204q110 0 171.5 -56t61.5 -148q0 -93 -62 -145.5t-154 -52.5h-281zM354 349h-209v-296h223q68 0 111.5 36.5t43.5 108.5t-48.5 111.5t-120.5 39.5z" />
    <glyph glyph-name="afii10019" unicode="&#x412;" horiz-adv-x="604" 
d="M491 193q0 62 -46 99.5t-123 37.5h-179v-277h190q87 0 122.5 42t35.5 98zM143 610v-229h173q22 0 43 5t43.5 17t36.5 36.5t14 58.5q0 50 -33.5 81t-93.5 31h-183zM421 361v-4q66 -17 97 -64t31 -103q0 -85 -58 -137.5t-148 -52.5h-258v662h233q86 0 139.5 -40t53.5 -119
q0 -43 -23.5 -82.5t-66.5 -59.5z" />
    <glyph glyph-name="afii10020" unicode="&#x413;" horiz-adv-x="516" 
d="M143 610v-610h-58v662h416v-52h-358z" />
    <glyph glyph-name="afii10021" unicode="&#x414;" horiz-adv-x="791" 
d="M660 661v-609h91v-211h-61v159h-620v-159h-60v211h83q33 33 54.5 72.5t36 101.5t21 103.5t18.5 136.5l25 195h412zM296 611l-22 -181q-18 -150 -41 -233t-72 -145h439v559h-304z" />
    <glyph glyph-name="afii10022" unicode="&#x415;" horiz-adv-x="556" 
d="M526 53v-53h-441v662h414v-52h-355v-234h330v-52h-330v-271h382z" />
    <glyph glyph-name="afii10024" unicode="&#x416;" horiz-adv-x="908" 
d="M425 348v314h58v-314l314 314h72l-313 -318l344 -344h-82l-335 339v-339h-58v339l-335 -339h-82l344 344l-313 318h72z" />
    <glyph glyph-name="afii10025" unicode="&#x417;" horiz-adv-x="571" 
d="M232 -10q-50 0 -110.5 13t-96.5 36v57q93 -53 194 -53q118 0 177.5 43t59.5 114q0 62 -55.5 97.5t-141.5 35.5h-79v51h77q85 0 130 34.5t45 86.5q0 53 -50 84.5t-128 31.5q-40 0 -98.5 -11.5t-104.5 -34.5v57q42 19 100 30.5t106 11.5q110 0 173.5 -44t63.5 -122
q0 -45 -29.5 -86.5t-84.5 -56.5v-5q66 -12 101 -56t35 -104q0 -92 -73.5 -151t-210.5 -59z" />
    <glyph glyph-name="afii10026" unicode="&#x418;" horiz-adv-x="721" 
d="M636 0h-56l1 541h-3l-479 -545h-14v666h56v-536h4l478 542h13v-668z" />
    <glyph glyph-name="afii10027" unicode="&#x419;" horiz-adv-x="721" 
d="M444 862h47q-2 -56 -35.5 -95.5t-93.5 -39.5q-57 0 -90.5 39t-35.5 96h47q0 -40 21 -67.5t57 -27.5q77 0 83 95zM636 0h-56l1 541h-3l-479 -545h-14v666h56v-536h4l478 542h13v-668z" />
    <glyph glyph-name="afii10028" unicode="&#x41a;" horiz-adv-x="580" 
d="M143 662v-314l324 314h72l-323 -318l354 -344h-82l-345 339v-339h-58v662h58z" />
    <glyph glyph-name="afii10029" unicode="&#x41b;" horiz-adv-x="633" 
d="M488 613h-252l-38 -372q-13 -129 -46.5 -186.5t-121.5 -72.5l-25 46q73 17 99.5 56t35.5 128l44 449h364v-661h-60v613z" />
    <glyph glyph-name="afii10030" unicode="&#x41c;" horiz-adv-x="815" 
d="M414 153h-14l-258 358l-2 -3v-508h-55v667h15l308 -437l307 437h15v-667h-55l1 517l-3 2z" />
    <glyph glyph-name="afii10031" unicode="&#x41d;" horiz-adv-x="668" 
d="M583 0h-57v324h-383v-324h-58v662h58v-286h383v286h57v-662z" />
    <glyph glyph-name="afii10032" unicode="&#x41e;" horiz-adv-x="787" 
d="M395 -10q-158 0 -249 96t-91 245q0 143 99.5 242t240.5 99q145 0 241 -98.5t96 -242.5q0 -145 -95.5 -243t-241.5 -98zM395 619q-122 0 -200.5 -83t-78.5 -205q0 -126 75.5 -207t203.5 -81q124 0 201.5 83.5t77.5 204.5t-78.5 204.5t-200.5 83.5z" />
    <glyph glyph-name="afii10033" unicode="&#x41f;" horiz-adv-x="674" 
d="M589 0h-58v610h-388v-610h-58v662h504v-662z" />
    <glyph glyph-name="afii10034" unicode="&#x420;" horiz-adv-x="563" 
d="M84 0v661h217q109 0 170 -62t61 -150q0 -101 -68 -158.5t-166 -57.5h-155v-233h-59zM280 613h-137v-332h148q88 0 133 49t45 118q0 68 -47.5 116.5t-141.5 48.5z" />
    <glyph glyph-name="afii10035" unicode="&#x421;" horiz-adv-x="611" 
d="M586 96v-57q-37 -23 -91.5 -35.5t-103.5 -12.5q-158 0 -247 94.5t-89 241.5q0 149 98 247.5t242 98.5q108 0 165 -31v-57q-74 36 -160 36q-120 0 -202 -80t-82 -214q0 -129 74 -206.5t207 -77.5q96 0 189 53z" />
    <glyph glyph-name="afii10036" unicode="&#x422;" horiz-adv-x="523" 
d="M508 610h-216v-610h-59v610h-218v52h493v-52z" />
    <glyph glyph-name="afii10037" unicode="&#x423;" horiz-adv-x="569" 
d="M263 143l-253 518h62l217 -450h4l207 450h59l-260 -564q-28 -59 -60.5 -83t-79.5 -24q-58 0 -107 24v58q53 -30 103 -30q64 0 101 85z" />
    <glyph glyph-name="afii10038" unicode="&#x424;" horiz-adv-x="818" 
d="M763 343q0 -117 -89 -191t-236 -84v-68h-58v68q-140 5 -232.5 81.5t-92.5 193.5t95 193.5t230 81.5v44h58v-44q137 -4 231 -81t94 -194zM707 344q0 95 -75.5 156t-193.5 67v-446q126 4 197.5 65t71.5 158zM380 121v445q-119 -8 -192 -68t-73 -155q0 -96 70.5 -154.5
t194.5 -67.5z" />
    <glyph glyph-name="afii10039" unicode="&#x425;" horiz-adv-x="606" 
d="M529 0l-225 329l-231 -329h-63l236 341l-218 320h63l213 -307l211 307h64l-221 -319l238 -342h-67z" />
    <glyph glyph-name="afii10040" unicode="&#x426;" horiz-adv-x="696" 
d="M592 52h94v-211h-61v159h-540v662h58v-610h391v610h58v-610z" />
    <glyph glyph-name="afii10041" unicode="&#x427;" horiz-adv-x="630" 
d="M485 0v313q-94 -35 -195 -35q-108 0 -164 52t-56 137v195h59v-180q0 -154 178 -154q94 0 178 35v299h60v-662h-60z" />
    <glyph glyph-name="afii10042" unicode="&#x428;" horiz-adv-x="933" 
d="M848 662v-662h-763v662h58v-610h292v610h60v-610h295v610h58z" />
    <glyph glyph-name="afii10043" unicode="&#x429;" horiz-adv-x="952" 
d="M435 52v610h60v-610h295v610h58v-610h94v-211h-61v159h-796v662h58v-610h292z" />
    <glyph glyph-name="afii10044" unicode="&#x42a;" horiz-adv-x="837" 
d="M350 402h204q110 0 171.5 -56t61.5 -148q0 -93 -62 -145.5t-154 -52.5h-281v611h-280v51h340v-260zM559 349h-209v-296h223q68 0 111.5 36.5t43.5 108.5t-48.5 111.5t-120.5 39.5z" />
    <glyph glyph-name="afii10045" unicode="&#x42b;" horiz-adv-x="822" 
d="M85 0v662h60v-260h204q110 0 171.5 -56t61.5 -148q0 -93 -62 -145.5t-154 -52.5h-281zM354 349h-209v-296h223q68 0 111.5 36.5t43.5 108.5t-48.5 111.5t-120.5 39.5zM737 0h-58v662h58v-662z" />
    <glyph glyph-name="afii10046" unicode="&#x42c;" horiz-adv-x="632" 
d="M85 0v662h60v-260h204q110 0 171.5 -56t61.5 -148q0 -93 -62 -145.5t-154 -52.5h-281zM354 349h-209v-296h223q68 0 111.5 36.5t43.5 108.5t-48.5 111.5t-120.5 39.5z" />
    <glyph glyph-name="afii10047" unicode="&#x42d;" horiz-adv-x="611" 
d="M25 39v57q93 -53 189 -53q138 0 209.5 80.5t71.5 200.5h-361v52h358q-11 116 -81 180.5t-190 64.5q-96 0 -170 -36v57q57 31 175 31q159 0 244.5 -93t85.5 -248q0 -65 -21 -124.5t-61 -108.5t-106 -78.5t-148 -29.5q-49 0 -103.5 12.5t-91.5 35.5z" />
    <glyph glyph-name="afii10048" unicode="&#x42e;" horiz-adv-x="1024" 
d="M145 0h-60v661h60v-294h172q12 132 101.5 218t223.5 86q146 0 236.5 -97.5t90.5 -243.5q0 -145 -91 -242t-236 -97q-141 0 -233.5 94t-92.5 233h-171v-318zM642 620q-119 0 -192.5 -84t-73.5 -206t73.5 -206t192.5 -84q122 0 193 83.5t71 206.5t-71 206.5t-193 83.5z" />
    <glyph glyph-name="afii10049" unicode="&#x42f;" horiz-adv-x="593" 
d="M25 0l236 252q-91 12 -146.5 70.5t-55.5 133.5q0 96 67.5 150.5t155.5 54.5h226v-661h-59v611h-159q-77 0 -124.5 -41.5t-47.5 -115.5q0 -67 60.5 -115.5t176.5 -50.5v-12l-250 -276h-80z" />
    <glyph glyph-name="afii10065" unicode="&#x430;" horiz-adv-x="495" 
d="M366 57l-5 1q-60 -68 -155 -68q-86 0 -123 40t-37 88q0 147 206 147h112v24q0 118 -129 118q-68 0 -145 -43v52q30 18 73 28.5t75 10.5q96 0 139 -44t43 -130v-281h-44zM364 188v33h-118q-142 0 -142 -98q0 -41 33 -63t82 -22q70 0 107.5 42.5t37.5 107.5z" />
    <glyph glyph-name="afii10066" unicode="&#x431;" horiz-adv-x="550" 
d="M105 359h7q26 45 75 69.5t101 24.5q103 0 162.5 -67.5t59.5 -167.5q0 -92 -63.5 -160t-169.5 -68q-59 0 -104.5 21.5t-72 58.5t-39.5 83t-13 99q0 119 37.5 220t121.5 153q12 8 27.5 15.5t28 13.5t37.5 15.5t39.5 15t52 19t56.5 20.5l25 -42q-34 -14 -102.5 -38
t-107.5 -43q-71 -35 -110.5 -100.5t-47.5 -141.5zM282 405q-77 0 -126 -54t-49 -132q0 -74 46 -128t127 -54q78 0 125 52.5t47 129.5q0 79 -45.5 132.5t-124.5 53.5z" />
    <glyph glyph-name="afii10067" unicode="&#x432;" horiz-adv-x="502" 
d="M75 0v445h205q149 0 149 -112q0 -26 -18 -52t-52 -40q54 -10 76 -43t22 -70q0 -56 -42 -92t-101 -36h-239zM399 133q0 33 -25.5 57t-74.5 24h-169v-168h164q51 0 78 24.5t27 62.5zM276 401h-146v-143h162q36 0 57.5 20t21.5 50q0 73 -95 73z" />
    <glyph glyph-name="afii10068" unicode="&#x433;" horiz-adv-x="419" 
d="M132 400v-400h-57v444h334v-44h-277z" />
    <glyph glyph-name="afii10069" unicode="&#x434;" horiz-adv-x="583" 
d="M495 444l-1 -398h79v-169h-55v123h-459v-123h-54v169h65q41 34 61.5 95.5t32.5 160.5l17 142h314zM226 400l-6 -55q-9 -83 -15 -122.5t-23.5 -92t-45.5 -84.5h301v354h-211z" />
    <glyph glyph-name="afii10070" unicode="&#x435;" horiz-adv-x="519" 
d="M450 97v-57q-66 -50 -168 -50q-107 0 -169.5 63.5t-62.5 170.5q0 98 62 164.5t154 66.5q95 0 149 -65t54 -162q0 -14 -1 -20h-359q2 -78 50.5 -123.5t119.5 -45.5q97 0 171 58zM267 405q-66 0 -108 -41t-49 -110h305q-7 69 -46 110t-102 41z" />
    <glyph glyph-name="afii10072" unicode="&#x436;" horiz-adv-x="738" 
d="M272 234l-243 211h74l238 -204v204h56v-204l238 204h74l-243 -211l267 -234h-82l-254 226v-226h-56v226l-254 -226h-82z" />
    <glyph glyph-name="afii10073" unicode="&#x437;" horiz-adv-x="405" 
d="M163 -10q-33 0 -74 8.5t-64 21.5v54q23 -16 62.5 -25.5t73.5 -9.5q77 0 110.5 28t33.5 68t-32.5 61.5t-89.5 21.5h-66v45h61q58 0 87 20.5t29 52.5q0 29 -29 49t-87 20q-83 0 -135 -29v52q60 27 140 27q84 0 126 -30t42 -84q0 -29 -20.5 -56.5t-62.5 -41.5
q47 -10 70.5 -39t23.5 -66q0 -65 -52 -106.5t-147 -41.5z" />
    <glyph glyph-name="afii10074" unicode="&#x438;" horiz-adv-x="539" 
d="M452 451h12l-1 -451h-55v329h-3l-317 -334h-13v450h56v-333h3z" />
    <glyph glyph-name="afii10075" unicode="&#x439;" horiz-adv-x="539" 
d="M359 662h47q-2 -56 -35.5 -95.5t-93.5 -39.5q-57 0 -90.5 39t-35.5 96h47q0 -40 21 -67.5t57 -27.5q77 0 83 95zM452 451h12l-1 -451h-55v329h-3l-317 -334h-13v450h56v-333h3z" />
    <glyph glyph-name="afii10076" unicode="&#x43a;" horiz-adv-x="477" 
d="M448 444l-248 -208l272 -236h-84l-258 227v-227h-55v444h55v-204l243 204h75z" />
    <glyph glyph-name="afii10077" unicode="&#x43b;" horiz-adv-x="487" 
d="M182 400l-19 -182q-4 -39 -6.5 -58t-7.5 -47.5t-10.5 -42t-15 -31t-22.5 -26t-31 -16.5t-42 -12l-23 47q57 11 75.5 45.5t27.5 122.5l24 244h280v-444h-57v400h-173z" />
    <glyph glyph-name="afii10078" unicode="&#x43c;" horiz-adv-x="655" 
d="M341 92h-15l-195 229v-321h-56v448h13l246 -290l233 290h13v-448h-57v321z" />
    <glyph glyph-name="afii10079" unicode="&#x43d;" horiz-adv-x="534" 
d="M459 0h-56v210h-272v-210h-56v445h56v-192h272v192h56v-445z" />
    <glyph glyph-name="afii10080" unicode="&#x43e;" horiz-adv-x="560" 
d="M281 -10q-106 0 -168.5 66t-62.5 167q0 97 67.5 164.5t163.5 67.5q99 0 164 -67t65 -165q0 -99 -65.5 -166t-163.5 -67zM281 407q-76 0 -124.5 -53.5t-48.5 -130.5q0 -80 46.5 -132.5t126.5 -52.5q78 0 125 53.5t47 131.5q0 77 -47.5 130.5t-124.5 53.5z" />
    <glyph glyph-name="afii10081" unicode="&#x43f;" horiz-adv-x="536" 
d="M461 0h-58v393h-271v-393h-57v445h386v-445z" />
    <glyph glyph-name="afii10082" unicode="&#x440;" horiz-adv-x="573" 
d="M125 68l-5 -3v-280h-55v660h45l10 -70l5 -1q29 39 75 60t96 21q105 0 166 -64.5t61 -167.5q0 -98 -67 -165.5t-163 -67.5q-50 0 -96 20.5t-72 57.5zM292 39q76 0 124.5 53t48.5 131q0 80 -46.5 132.5t-126.5 52.5q-78 0 -125.5 -54t-47.5 -131q0 -78 48 -131t125 -53z
" />
    <glyph glyph-name="afii10083" unicode="&#x441;" horiz-adv-x="432" 
d="M407 73v-54q-50 -29 -133 -29q-108 0 -166 64t-58 164t65 168.5t163 68.5q67 0 111 -20v-54q-42 26 -104 26q-75 0 -126 -51t-51 -138q0 -80 47.5 -129.5t128.5 -49.5q76 0 123 34z" />
    <glyph glyph-name="afii10084" unicode="&#x442;" horiz-adv-x="438" 
d="M247 0h-56v399h-181v45h418v-45h-181v-399z" />
    <glyph glyph-name="afii10085" unicode="&#x443;" horiz-adv-x="442" 
d="M221 81h6l149 364h56l-274 -660h-59l95 230l-184 430h62z" />
    <glyph glyph-name="afii10086" unicode="&#x444;" horiz-adv-x="670" 
d="M306 454l-1 257h56v-256q123 -6 194.5 -68.5t71.5 -164.5q0 -101 -75 -167t-191 -68l1 -202h-56v202q-117 3 -190.5 67.5t-73.5 167.5q0 100 71.5 162.5t192.5 69.5zM569 222q0 82 -57 133.5t-150 52.5v-375q92 3 149.5 56.5t57.5 132.5zM100 222q0 -80 56 -133t150 -56
v375q-88 -2 -147 -53.5t-59 -132.5z" />
    <glyph glyph-name="afii10087" unicode="&#x445;" horiz-adv-x="452" 
d="M377 0l-150 216l-155 -216h-62l162 228l-152 217h62l145 -205l144 205h62l-154 -216l163 -229h-65z" />
    <glyph glyph-name="afii10088" unicode="&#x446;" horiz-adv-x="556" 
d="M403 445h58v-393h77v-175h-57v123h-406v445h57v-393h271v393z" />
    <glyph glyph-name="afii10089" unicode="&#x447;" horiz-adv-x="510" 
d="M379 0v209q-1 1 -2 1q-62 -59 -162 -59q-155 0 -155 165v129h57v-120q0 -124 116 -124q36 0 78 17t68 46v181h56v-445h-56z" />
    <glyph glyph-name="afii10090" unicode="&#x448;" horiz-adv-x="797" 
d="M366 52v392h56v-392h242v393h58v-445h-647v445h57v-393h234z" />
    <glyph glyph-name="afii10091" unicode="&#x449;" horiz-adv-x="814" 
d="M366 52v392h56v-392h242v393h58v-393h77v-175h-57v123h-667v445h57v-393h234z" />
    <glyph glyph-name="afii10092" unicode="&#x44a;" horiz-adv-x="641" 
d="M205 0v400h-205v45h262v-149h164q84 0 127 -42.5t43 -105.5q0 -69 -45 -108.5t-116 -39.5h-230zM416 250h-154v-204h163q48 0 80 27t32 75t-34.5 75t-86.5 27z" />
    <glyph glyph-name="afii10093" unicode="&#x44b;" horiz-adv-x="672" 
d="M75 445h57v-149h164q84 0 127 -42.5t43 -105.5q0 -69 -45 -108.5t-116 -39.5h-230v445zM286 250h-154v-204h163q48 0 80 27t32 75t-34.5 75t-86.5 27zM597 0h-56v445h56v-445z" />
    <glyph glyph-name="afii10094" unicode="&#x44c;" horiz-adv-x="511" 
d="M75 445h57v-149h164q84 0 127 -42.5t43 -105.5q0 -69 -45 -108.5t-116 -39.5h-230v445zM286 250h-154v-204h163q48 0 80 27t32 75t-34.5 75t-86.5 27z" />
    <glyph glyph-name="afii10095" unicode="&#x44d;" horiz-adv-x="432" 
d="M25 19v54q47 -34 130 -34q80 0 124.5 47t44.5 119h-217v44h216q-2 75 -46.5 115.5t-112.5 40.5q-69 0 -121 -29v52q62 28 125 28q93 0 153.5 -61t60.5 -171q0 -104 -58 -169t-166 -65q-83 0 -133 29z" />
    <glyph glyph-name="afii10096" unicode="&#x44e;" horiz-adv-x="762" 
d="M131 0h-56v444h56v-185h136q13 84 75 139.5t150 55.5q102 0 163.5 -67t61.5 -166q0 -97 -63.5 -164t-161.5 -67q-103 0 -165.5 64.5t-62.5 161.5h-133v-216zM492 406q-76 0 -123 -53.5t-47 -131.5q0 -80 45 -132.5t125 -52.5q77 0 122.5 54t45.5 131q0 78 -45.5 131.5
t-122.5 53.5z" />
    <glyph glyph-name="afii10097" unicode="&#x44f;" horiz-adv-x="465" 
d="M20 0l162 167q-61 11 -95.5 49.5t-34.5 87.5q0 66 46.5 103.5t115.5 37.5h176v-445h-55v399h-115q-54 0 -82.5 -25t-28.5 -72q0 -41 41.5 -69.5t122.5 -29.5v-12l-182 -191h-71z" />
    <glyph glyph-name="afii10071" unicode="&#x451;" horiz-adv-x="519" 
d="M450 97v-57q-66 -50 -168 -50q-107 0 -169.5 63.5t-62.5 170.5q0 98 62 164.5t154 66.5q95 0 149 -65t54 -162q0 -14 -1 -20h-359q2 -78 50.5 -123.5t119.5 -45.5q97 0 171 58zM267 405q-66 0 -108 -41t-49 -110h305q-7 69 -46 110t-102 41zM223 593q0 -16 -10 -26.5
t-26 -10.5q-17 0 -27.5 10.5t-10.5 26.5q0 14 11.5 25.5t26.5 11.5q16 0 26 -10.5t10 -26.5zM383 593q0 -17 -10.5 -27t-26.5 -10t-26.5 10t-10.5 27q0 14 11 25.5t26 11.5q16 0 26.5 -10.5t10.5 -26.5z" />
    <glyph glyph-name="afii10099" unicode="&#x452;" horiz-adv-x="547" 
d="M65 711h56v-92h181v-46h-181v-212l3 -1q28 48 75.5 71t99.5 23q89 0 143.5 -60t54.5 -183q0 -91 -49 -174t-137 -128l-41 30q50 24 85.5 59t53 73.5t24.5 72t7 66.5q0 195 -154 195q-66 0 -115.5 -53t-49.5 -131v-221h-56v573h-54v46h54v92z" />
    <glyph glyph-name="afii10100" unicode="&#x453;" horiz-adv-x="419" 
d="M232 531h-47l104 151l63 -18zM132 400v-400h-57v444h334v-44h-277z" />
    <glyph glyph-name="afii10101" unicode="&#x454;" horiz-adv-x="432" 
d="M407 73v-54q-50 -29 -133 -29q-108 0 -166 64t-58 164t65 168.5t163 68.5q67 0 111 -20v-54q-42 26 -104 26q-69 0 -119.5 -44t-55.5 -116h215v-44h-217q-2 -70 48 -117t128 -47q76 0 123 34z" />
    <glyph glyph-name="afii10102" unicode="&#x455;" horiz-adv-x="369" 
d="M25 29v56q67 -48 141 -48q112 0 112 77q0 31 -24 53t-59 36t-69.5 28.5t-58.5 40.5t-24 63q0 59 42.5 89.5t101.5 30.5q66 0 127 -30v-55q-66 38 -120 38q-93 0 -93 -69q0 -24 24 -42t58.5 -31.5t68.5 -29t58 -44.5t24 -69q0 -63 -45.5 -97.5t-116.5 -34.5q-83 0 -147 38
z" />
    <glyph glyph-name="afii10103" unicode="&#x456;" horiz-adv-x="227" 
d="M152 577q0 -17 -11 -27.5t-27 -10.5q-17 0 -28 10.5t-11 27.5q0 15 11.5 27t27.5 12t27 -11t11 -28zM141 0h-57v445h57v-445z" />
    <glyph glyph-name="afii10104" unicode="&#x457;" horiz-adv-x="227" 
d="M71 586q0 -16 -10 -26.5t-26 -10.5q-17 0 -27.5 10.5t-10.5 26.5q0 14 11.5 25.5t26.5 11.5q16 0 26 -10.5t10 -26.5zM231 586q0 -16 -10.5 -26.5t-26.5 -10.5t-26.5 10.5t-10.5 26.5q0 14 11 25.5t26 11.5q16 0 26.5 -10.5t10.5 -26.5zM141 0h-57v445h57v-445z" />
    <glyph glyph-name="afii10105" unicode="&#x458;" horiz-adv-x="210" 
d="M145 577q0 -17 -10.5 -27.5t-27.5 -10.5t-28 11t-11 27q0 15 11.5 27t27.5 12t27 -11t11 -28zM-20 -227l-27 52q69 2 96.5 37.5t27.5 107.5v475h57v-476q0 -188 -154 -196z" />
    <glyph glyph-name="afii10106" unicode="&#x459;" horiz-adv-x="785" 
d="M349 0v400h-167l-19 -182q-4 -39 -6.5 -58t-7.5 -47.5t-10.5 -42t-15 -31t-22.5 -26t-31 -16.5t-42 -12l-23 47q58 11 76.5 46t26.5 122l24 244h274v-148h164q84 0 127 -42.5t43 -105.5q0 -69 -45 -108.5t-116 -39.5h-230zM560 250h-154v-204h163q48 0 80 27t32 75
t-34.5 75t-86.5 27z" />
    <glyph glyph-name="afii10107" unicode="&#x45a;" horiz-adv-x="798" 
d="M131 227v-227h-56v444h56v-173h242v173h56v-172h154q85 0 127.5 -36.5t42.5 -97.5q0 -68 -44.5 -103t-115.5 -35h-220v227h-242zM573 227h-144v-183h153q113 0 113 93q0 47 -33.5 68.5t-88.5 21.5z" />
    <glyph glyph-name="afii10108" unicode="&#x45b;" horiz-adv-x="525" 
d="M11 573v46h54v92h56v-92h181v-46h-181v-195h3q63 77 156 77q82 0 126 -49.5t44 -139.5v-266h-57v255q0 70 -30 110t-86 40q-66 0 -109.5 -44.5t-43.5 -130.5v-230h-59v573h-54z" />
    <glyph glyph-name="afii10109" unicode="&#x45c;" horiz-adv-x="477" 
d="M231 531h-47l104 151l63 -18zM448 444l-248 -208l272 -236h-84l-258 227v-227h-55v444h55v-204l243 204h75z" />
    <glyph glyph-name="afii10110" unicode="&#x45e;" horiz-adv-x="442" 
d="M221 81h6l149 364h56l-274 -660h-59l95 230l-184 430h62zM311 672h47q-2 -56 -35.5 -95.5t-93.5 -39.5q-57 0 -90.5 39t-35.5 96h47q0 -40 21 -67.5t57 -27.5q77 0 83 95z" />
    <glyph glyph-name="afii10193" unicode="&#x45f;" horiz-adv-x="536" 
d="M403 445h58v-445h-163v-132h-57v132h-166v445h57v-393h271v393z" />
    <glyph glyph-name="afii10050" unicode="&#x490;" horiz-adv-x="516" 
d="M143 610v-610h-58v662h365v112h51v-164h-358z" />
    <glyph glyph-name="afii10098" unicode="&#x491;" horiz-adv-x="425" 
d="M132 399v-399h-57v444h287v110h48v-155h-278z" />
    <glyph glyph-name="schwacyrillic" unicode="&#x4d9;" horiz-adv-x="525" 
d="M81 350v54q68 51 171 51q106 0 164 -63t58 -171q0 -98 -62 -164.5t-154 -66.5q-95 0 -149 65t-54 162q0 14 1 20h359q-2 80 -46 124.5t-119 44.5q-91 0 -169 -56zM257 40q66 0 108 41t49 110h-305q7 -69 46 -110t102 -41z" />
    <glyph glyph-name="Wgrave" unicode="&#x1e80;" horiz-adv-x="886" 
d="M444 520h-4l-177 -527h-14l-239 667h57l188 -526h5l177 531h12l180 -531h5l185 526h57l-241 -667h-12zM483 733h-51l-137 119l67 18z" />
    <glyph glyph-name="wgrave" unicode="&#x1e81;" horiz-adv-x="706" 
d="M351 445h9l148 -334h4l129 334h55l-182 -451h-10l-148 335h-3l-148 -335h-11l-179 451h58l129 -334h3zM393 531h-47l-120 133l63 18z" />
    <glyph glyph-name="Wacute" unicode="&#x1e82;" horiz-adv-x="886" 
d="M444 520h-4l-177 -527h-14l-239 667h57l188 -526h5l177 531h12l180 -531h5l185 526h57l-241 -667h-12zM454 733h-51l121 137l67 -18z" />
    <glyph glyph-name="wacute" unicode="&#x1e83;" horiz-adv-x="706" 
d="M351 445h9l148 -334h4l129 334h55l-182 -451h-10l-148 335h-3l-148 -335h-11l-179 451h58l129 -334h3zM363 531h-47l104 151l63 -18z" />
    <glyph glyph-name="Wdieresis" unicode="&#x1e84;" horiz-adv-x="886" 
d="M444 520h-4l-177 -527h-14l-239 667h57l188 -526h5l177 531h12l180 -531h5l185 526h57l-241 -667h-12zM399 795q0 -16 -10 -26.5t-26 -10.5q-17 0 -27.5 10.5t-10.5 26.5q0 14 11.5 25.5t26.5 11.5q16 0 26 -10.5t10 -26.5zM559 795q0 -17 -10.5 -27t-26.5 -10t-26.5 10
t-10.5 27q0 14 11 25.5t26 11.5q16 0 26.5 -10.5t10.5 -26.5z" />
    <glyph glyph-name="wdieresis" unicode="&#x1e85;" horiz-adv-x="706" 
d="M351 445h9l148 -334h4l129 334h55l-182 -451h-10l-148 335h-3l-148 -335h-11l-179 451h58l129 -334h3zM310 569q0 -16 -10 -26.5t-26 -10.5q-17 0 -27.5 10.5t-10.5 26.5q0 14 11.5 25.5t26.5 11.5q16 0 26 -10.5t10 -26.5zM470 569q0 -17 -10 -27t-27 -10t-27 10t-10 27
q0 14 11 25.5t26 11.5q16 0 26.5 -10.5t10.5 -26.5z" />
    <glyph glyph-name="Ygrave" unicode="&#x1ef2;" 
d="M279 351h4l186 311h61l-221 -367v-295h-58v295l-241 367h65zM331 733h-51l-137 119l67 18z" />
    <glyph glyph-name="ygrave" unicode="&#x1ef3;" horiz-adv-x="442" 
d="M221 81h6l149 364h56l-274 -660h-59l95 230l-184 430h62zM261 531h-47l-120 133l63 18z" />
    <glyph glyph-name="endash" unicode="&#x2013;" horiz-adv-x="549" 
d="M32 215v48h484v-48h-484z" />
    <glyph glyph-name="emdash" unicode="&#x2014;" horiz-adv-x="819" 
d="M35 215v48h750v-48h-750z" />
    <glyph glyph-name="afii00208" unicode="&#x2015;" horiz-adv-x="819" 
d="M35 215v48h750v-48h-750z" />
    <glyph glyph-name="quoteleft" unicode="&#x2018;" horiz-adv-x="192" 
d="M141 523q0 -19 -13.5 -32t-31.5 -13q-19 0 -31.5 12t-12.5 32q0 45 64 162l34 -5l-36 -117q27 -8 27 -39z" />
    <glyph glyph-name="quoteright" unicode="&#x2019;" horiz-adv-x="192" 
d="M58 639q0 19 13.5 32t31.5 13q19 0 31.5 -12t12.5 -32q0 -45 -64 -162l-34 5l36 117q-27 8 -27 39z" />
    <glyph glyph-name="quotesinglbase" unicode="&#x201a;" horiz-adv-x="211" 
d="M69 38q0 18 13 31t31 13t30.5 -12t12.5 -31q0 -49 -64 -169l-34 5l38 124q-27 10 -27 39z" />
    <glyph glyph-name="quotedblleft" unicode="&#x201c;" horiz-adv-x="304" 
d="M143 523q0 -19 -13.5 -32t-31.5 -13q-19 0 -31.5 12t-12.5 32q0 45 64 162l34 -5l-36 -117q27 -8 27 -39zM250 523q0 -19 -13.5 -32t-31.5 -13q-19 0 -31.5 12t-12.5 32q0 45 64 162l34 -5l-36 -117q27 -8 27 -39z" />
    <glyph glyph-name="quotedblright" unicode="&#x201d;" horiz-adv-x="304" 
d="M164 639q0 19 13.5 32t31.5 13q19 0 31.5 -12t12.5 -32q0 -45 -64 -162l-34 5l36 117q-27 8 -27 39zM57 639q0 19 13.5 32t31.5 13q19 0 31.5 -12t12.5 -32q0 -45 -64 -162l-34 5l36 117q-27 8 -27 39z" />
    <glyph glyph-name="quotedblbase" unicode="&#x201e;" horiz-adv-x="313" 
d="M59 38q0 18 13 31t31 13t30.5 -12t12.5 -31q0 -49 -64 -169l-34 5l38 124q-27 10 -27 39zM170 38q0 18 13 31t31 13t30.5 -12t12.5 -31q0 -49 -64 -169l-34 5l38 124q-27 10 -27 39z" />
    <glyph glyph-name="dagger" unicode="&#x2020;" horiz-adv-x="510" 
d="M60 446v51h165v191h60v-191h165v-51h-164v-554h-60v554h-166z" />
    <glyph glyph-name="daggerdbl" unicode="&#x2021;" horiz-adv-x="510" 
d="M59 446v51h165v191h60v-191h166v-51h-165v-239h165v-51h-165v-264h-60v264h-166v51h166v239h-166z" />
    <glyph glyph-name="bullet" unicode="&#x2022;" horiz-adv-x="469" 
d="M124 234q0 46 32 78t78 32t78.5 -32t32.5 -78t-32.5 -78t-78.5 -32t-78 32t-32 78z" />
    <glyph glyph-name="trianglebullet" unicode="&#x2023;" horiz-adv-x="506" 
d="M86 476l390 -199l-390 -209v408z" />
    <glyph glyph-name="ellipsis" unicode="&#x2026;" horiz-adv-x="599" 
d="M149 37q0 -19 -13.5 -32.5t-32.5 -13.5t-32.5 13.5t-13.5 32.5t13.5 32.5t32.5 13.5t32.5 -13.5t13.5 -32.5zM348 37q0 -19 -13.5 -32.5t-32.5 -13.5q-20 0 -33 13.5t-13 32.5t13 32.5t32 13.5q20 0 33.5 -13t13.5 -33zM546 37q0 -19 -13.5 -32.5t-32.5 -13.5
q-20 0 -33 13.5t-13 32.5t13 32.5t32 13.5q20 0 33.5 -13t13.5 -33z" />
    <glyph glyph-name="perthousand" unicode="&#x2030;" horiz-adv-x="1068" 
d="M885 -6q-71 0 -112.5 43t-41.5 110q0 66 44.5 111.5t109.5 45.5q66 0 109.5 -44.5t43.5 -110.5q0 -65 -44 -110t-109 -45zM885 260q-45 0 -74.5 -32.5t-29.5 -78.5q0 -48 28 -80t76 -32q46 0 74.5 33t28.5 79t-29 78.5t-74 32.5zM190 359q-71 0 -113 44t-42 111
q0 65 45 110t110 45q66 0 109 -44.5t43 -110.5t-43.5 -110.5t-108.5 -44.5zM190 625q-46 0 -75.5 -32.5t-29.5 -78.5q0 -48 28 -80t77 -32q46 0 74 33t28 79t-28.5 78.5t-73.5 32.5zM530 -6q-71 0 -112.5 43t-41.5 110q0 66 44.5 111.5t109.5 45.5q66 0 109.5 -44.5
t43.5 -110.5q0 -65 -44 -110t-109 -45zM530 260q-45 0 -74.5 -32.5t-29.5 -78.5q0 -48 28 -80t76 -32q46 0 74.5 33t28.5 79t-29 78.5t-74 32.5zM631 681l-506 -700h-47l506 700h47z" />
    <glyph glyph-name="guilsinglleft" unicode="&#x2039;" horiz-adv-x="282" 
d="M105 201l137 -185h-63l-134 178v9l137 178h60z" />
    <glyph glyph-name="guilsinglright" unicode="&#x203a;" horiz-adv-x="282" 
d="M45 16l137 185l-137 180h60l137 -178v-9l-134 -178h-63z" />
    <glyph glyph-name="fraction" unicode="&#x2044;" horiz-adv-x="107" 
d="M325 681l-506 -700h-47l506 700h47z" />
    <glyph glyph-name="fraction" unicode="&#x2215;" horiz-adv-x="107" 
d="M325 681l-506 -700h-47l506 700h47z" />
    <glyph glyph-name="zerosuperior" unicode="&#x2070;" horiz-adv-x="340" 
d="M32 579q0 36 6 67t20 62.5t43 50t70 18.5t69.5 -18.5t42.5 -49.5t19.5 -62.5t5.5 -67.5q0 -48 -10 -88.5t-42.5 -74t-85.5 -33.5q-138 0 -138 196zM82 579q0 -155 89 -155q86 0 86 155q0 157 -86 157q-89 0 -89 -157z" />
    <glyph glyph-name="foursuperior" unicode="&#x2074;" horiz-adv-x="340" 
d="M217 772h53l-188 -251h139v92l37 48h9v-140h58v-39h-58v-92h-46v92h-207v14z" />
    <glyph glyph-name="fivesuperior" unicode="&#x2075;" horiz-adv-x="340" 
d="M164 632q59 0 99.5 -32t40.5 -91q0 -58 -43 -92t-103 -34q-74 0 -122 36v56q22 -22 55.5 -36.5t66.5 -14.5q42 0 70 24.5t28 60.5q0 38 -27.5 59.5t-69.5 21.5q-53 0 -97 -27l-8 3l24 206h206v-40h-166l-13 -108q25 8 59 8z" />
    <glyph glyph-name="sixsuperior" unicode="&#x2076;" horiz-adv-x="340" 
d="M311 508q0 -55 -41 -90t-103 -35q-66 0 -102.5 34t-36.5 87q0 42 36 103l104 165h53l-93 -145q15 5 47 5q58 0 97 -36t39 -88zM167 591q-38 0 -63.5 -24.5t-25.5 -59.5q0 -37 24 -60t65 -23t67.5 23t26.5 60q0 35 -27 59.5t-67 24.5z" />
    <glyph glyph-name="sevensuperior" unicode="&#x2077;" horiz-adv-x="322" 
d="M108 388h-49l165 344h-203v40h267v-8z" />
    <glyph glyph-name="eightsuperior" unicode="&#x2078;" horiz-adv-x="340" 
d="M86 496q0 -30 23 -51t62 -21q37 0 59.5 21t22.5 51q0 32 -24 53t-58 21q-35 0 -60 -21t-25 -53zM288 670q0 -46 -45 -79q60 -31 60 -93q0 -51 -37.5 -83t-94.5 -32q-60 0 -97.5 31t-37.5 83q0 25 16.5 51t40.5 42q-42 32 -42 80q0 47 34 77t86 30q50 0 83.5 -30t33.5 -77
zM99 672q0 -26 19.5 -44t50.5 -18q30 0 50 18t20 44t-20.5 44.5t-49.5 18.5q-30 0 -50 -18t-20 -45z" />
    <glyph glyph-name="ninesuperior" unicode="&#x2079;" horiz-adv-x="340" 
d="M28 652q0 55 41.5 90t104.5 35q64 0 100.5 -34.5t36.5 -85.5q0 -46 -37 -104l-102 -165h-54l88 143q-14 -3 -41 -3q-60 0 -98.5 35t-38.5 89zM173 569q38 0 63 24t25 60q0 37 -24 60t-64 23q-42 0 -69 -23.5t-27 -59.5t26 -60t70 -24z" />
    <glyph glyph-name="plussuperior" unicode="&#x207a;" horiz-adv-x="352" 
d="M53 520v33h108v97h36v-97h107v-33h-107v-100h-36v100h-108z" />
    <glyph glyph-name="hyphensuperior" unicode="&#x207b;" horiz-adv-x="258" 
d="M35 503v37h189v-37h-189z" />
    <glyph glyph-name="equalsuperior" unicode="&#x207c;" horiz-adv-x="352" 
d="M46 563v32h260v-32h-260zM46 480v32h260v-32h-260z" />
    <glyph glyph-name="parenleftsuperior" unicode="&#x207d;" horiz-adv-x="192" 
d="M147 832l28 -9q-28 -34 -55 -99.5t-27 -148.5q0 -144 82 -263l-28 -10q-103 113 -103 273q0 85 32.5 150.5t70.5 106.5z" />
    <glyph glyph-name="parenrightsuperior" unicode="&#x207e;" horiz-adv-x="192" 
d="M14 822l28 9q38 -41 70.5 -106.5t32.5 -150.5q0 -160 -103 -273l-28 10q82 119 82 263q0 83 -27 148.5t-55 99.5z" />
    <glyph glyph-name="nsuperior" unicode="&#x207f;" horiz-adv-x="358" 
d="M45 300v295h36l11 -47q18 25 48 38.5t60 13.5q113 0 113 -123v-177h-46v173q0 42 -19.5 64t-55.5 22q-40 0 -70 -31.5t-30 -91.5v-136h-47z" />
    <glyph glyph-name="zeroinferior" unicode="&#x2080;" horiz-adv-x="340" 
d="M32 99q0 36 6 67t20 62.5t43 50t70 18.5t69.5 -18.5t42.5 -49.5t19.5 -62.5t5.5 -67.5q0 -48 -10 -88.5t-42.5 -74t-85.5 -33.5q-138 0 -138 196zM82 99q0 -155 89 -155q86 0 86 155q0 157 -86 157q-89 0 -89 -157z" />
    <glyph glyph-name="oneinferior" unicode="&#x2081;" horiz-adv-x="285" 
d="M194 297v-389h-48v316q-16 -10 -50.5 -27t-49.5 -27v47l140 80h8z" />
    <glyph glyph-name="twoinferior" unicode="&#x2082;" horiz-adv-x="340" 
d="M103 150l-51 6q-4 11 -4 35q0 47 37 76.5t89 29.5q53 0 90.5 -26.5t37.5 -76.5q0 -62 -100 -120q-68 -40 -89 -63q-25 -28 -28 -63h222v-40h-274q0 53 17.5 89.5t40.5 55.5t72 49q27 16 40.5 25t31 28.5t17.5 37.5q0 31 -22 47t-57 16q-36 0 -56.5 -20.5t-20.5 -50.5
q0 -9 7 -35z" />
    <glyph glyph-name="threeinferior" unicode="&#x2083;" horiz-adv-x="340" 
d="M95 111l-5 8l123 133h-164v40h248v-8l-129 -136q60 0 97.5 -33t37.5 -86q0 -57 -43 -91.5t-104 -34.5q-74 0 -124 36v52q59 -48 125 -48q43 0 70 24.5t27 60.5q0 45 -30 66t-78 21q-31 0 -51 -4z" />
    <glyph glyph-name="fourinferior" unicode="&#x2084;" horiz-adv-x="340" 
d="M217 290h53l-188 -251h139v94l33 46h13v-140h58v-39h-58v-92h-46v92h-207v14z" />
    <glyph glyph-name="fiveinferior" unicode="&#x2085;" horiz-adv-x="340" 
d="M164 152q59 0 99.5 -32t40.5 -91q0 -58 -43 -92t-103 -34q-74 0 -122 36v56q22 -22 55.5 -36.5t66.5 -14.5q42 0 70 24.5t28 60.5q0 38 -27.5 59.5t-69.5 21.5q-53 0 -97 -27l-8 3l24 206h206v-40h-166l-13 -108q25 8 59 8z" />
    <glyph glyph-name="sixinferior" unicode="&#x2086;" horiz-adv-x="340" 
d="M311 28q0 -55 -41 -90t-103 -35q-66 0 -102.5 34t-36.5 87q0 42 36 103l104 165h53l-93 -145q15 5 47 5q58 0 97 -36t39 -88zM167 111q-38 0 -63.5 -24.5t-25.5 -59.5q0 -37 24 -60t65 -23t67.5 23t26.5 60q0 35 -27 59.5t-67 24.5z" />
    <glyph glyph-name="seveninferior" unicode="&#x2087;" horiz-adv-x="322" 
d="M108 -92h-49l165 344h-203v40h267v-8z" />
    <glyph glyph-name="eightinferior" unicode="&#x2088;" horiz-adv-x="340" 
d="M86 16q0 -30 23 -51t62 -21q37 0 59.5 21t22.5 51q0 32 -24 53t-58 21q-35 0 -60 -21t-25 -53zM288 190q0 -46 -45 -79q60 -31 60 -93q0 -51 -37.5 -83t-94.5 -32q-60 0 -97.5 31t-37.5 83q0 25 16.5 51t40.5 42q-42 32 -42 80q0 47 34 77t86 30q50 0 83.5 -30t33.5 -77z
M99 192q0 -26 19.5 -44t50.5 -18q30 0 50 18t20 44t-20.5 44.5t-49.5 18.5q-30 0 -50 -18t-20 -45z" />
    <glyph glyph-name="nineinferior" unicode="&#x2089;" horiz-adv-x="340" 
d="M28 172q0 55 41.5 90t104.5 35q64 0 100.5 -34.5t36.5 -85.5q0 -46 -37 -104l-102 -165h-54l88 143q-14 -3 -41 -3q-60 0 -98.5 35t-38.5 89zM173 89q38 0 63 24t25 60q0 37 -24 60t-64 23q-42 0 -69 -23.5t-27 -59.5t26 -60t70 -24z" />
    <glyph glyph-name="plusinferior" unicode="&#x208a;" horiz-adv-x="352" 
d="M53 64v32h108v97h36v-97h107v-32h-107v-100h-36v100h-108z" />
    <glyph glyph-name="hypheninferior" unicode="&#x208b;" horiz-adv-x="258" 
d="M35 46v38h189v-38h-189z" />
    <glyph glyph-name="equalinferior" unicode="&#x208c;" horiz-adv-x="352" 
d="M46 107v32h260v-32h-260zM46 23v33h260v-33h-260z" />
    <glyph glyph-name="parenleftinferior" unicode="&#x208d;" horiz-adv-x="192" 
d="M148 374l28 -9q-28 -34 -55 -99.5t-27 -148.5q0 -144 82 -263l-28 -10q-103 113 -103 273q0 85 32.5 150.5t70.5 106.5z" />
    <glyph glyph-name="parenrightinferior" unicode="&#x208e;" horiz-adv-x="192" 
d="M15 364l28 9q38 -41 70.5 -106.5t32.5 -150.5q0 -160 -103 -273l-28 10q82 119 82 263q0 83 -27 148.5t-55 99.5z" />
    <glyph glyph-name="Euro" unicode="&#x20ac;" 
d="M38 309h403v-37h-299q3 -105 72.5 -167.5t161.5 -62.5q67 0 130 27v-49q-64 -26 -133 -26q-114 0 -198 74.5t-90 203.5h-47v37zM441 366h-403v37h52q13 124 95 194.5t193 70.5q54 0 111 -17v-50q-62 17 -113 17q-90 0 -154 -57.5t-74 -157.5h293v-37z" />
    <glyph glyph-name="centigrade" unicode="&#x2103;" horiz-adv-x="876" 
d="M851 96v-57q-37 -23 -91.5 -35.5t-103.5 -12.5q-158 0 -247 94.5t-89 241.5q0 149 98 247.5t242 98.5q108 0 165 -31v-57q-74 36 -160 36q-120 0 -202 -80t-82 -214q0 -129 74 -206.5t207 -77.5q96 0 189 53zM172 443q-54 0 -86 33.5t-32 84.5q0 50 35 85.5t83 35.5
q53 0 88 -35t35 -86q0 -50 -35 -84t-88 -34zM172 642q-32 0 -53.5 -24.5t-21.5 -56.5t21 -56t54 -24q37 0 59.5 24t22.5 56q0 33 -23 57t-59 24z" />
    <glyph glyph-name="fahrenheit" unicode="&#x2109;" horiz-adv-x="813" 
d="M440 0h-58v662h416v-52h-358v-255h328v-52h-328v-303zM167 443q-54 0 -86 33.5t-32 84.5q0 50 35 85.5t83 35.5q53 0 88 -35t35 -86q0 -50 -35 -84t-88 -34zM167 642q-32 0 -53.5 -24.5t-21.5 -56.5t21 -56t54 -24q37 0 59.5 24t22.5 56q0 33 -23 57t-59 24z" />
    <glyph glyph-name="afii61289" unicode="&#x2113;" horiz-adv-x="508" 
d="M76 180l-20 37l74 56v209q0 110 40 161.5t106 51.5q46 0 78.5 -28t32.5 -85q0 -151 -207 -331v-81q0 -133 100 -133q35 0 70 26.5t61 77.5l38 -20q-64 -130 -173 -130q-71 0 -106.5 42t-37.5 115q-1 14 -1 71q-26 -20 -55 -39zM180 485l1 -176q159 151 159 270
q0 31 -17.5 53t-49.5 22q-37 0 -65 -42t-28 -127z" />
    <glyph glyph-name="afii61352" unicode="&#x2116;" horiz-adv-x="1043" 
d="M989 265h-309v44h309v-44zM141 0h-56v668h20l441 -540h4v534h56v-666h-20l-442 541h-3v-537zM831 364q-74 0 -116.5 43.5t-42.5 110.5q0 65 46.5 110t112.5 45q68 0 113 -44.5t45 -110.5q0 -65 -45.5 -109.5t-112.5 -44.5zM831 631q-48 0 -77.5 -32.5t-29.5 -80.5
q0 -49 28 -81t79 -32q50 0 78 32.5t28 80.5q0 47 -29 80t-77 33z" />
    <glyph glyph-name="published" unicode="&#x2117;" horiz-adv-x="821" 
d="M412 -13q-163 0 -260 102.5t-97 264.5q0 157 104 260.5t253 103.5q148 0 251.5 -103.5t103.5 -260.5t-104 -262t-251 -105zM412 674q-130 0 -221.5 -92.5t-91.5 -227.5q0 -142 83 -233t220 -91q131 0 225.5 94t94.5 230q0 135 -90 227.5t-220 92.5zM340 259v-147h-52v461
h163q77 0 121 -46t44 -110q0 -72 -49 -115t-117 -43h-110zM565 417q0 46 -32 80.5t-94 34.5h-99v-232h106q58 0 88.5 35t30.5 82z" />
    <glyph glyph-name="trademark" unicode="&#x2122;" horiz-adv-x="735" 
d="M486 480h5l149 191h12v-362h-44v248h-4l-111 -141h-10l-111 139q-2 -1 -3 -1v-245h-47v362h13zM187 633v-324h-46v324h-109v38h261v-38h-106z" />
    <glyph glyph-name="Ohm" unicode="&#x2126;" horiz-adv-x="779" 
d="M393 621q-125 0 -204.5 -83t-79.5 -206q0 -61 19 -122t66 -117t114 -81v-12h-258v52h119v4q-58 47 -88.5 117.5t-30.5 148.5q0 150 98.5 250.5t244.5 100.5q143 0 239 -99.5t96 -242.5q0 -79 -30 -152t-89 -123v-4h120v-52h-257v12q51 19 91 55.5t62.5 81.5t34 91.5
t11.5 91.5q0 116 -75.5 202.5t-202.5 86.5z" />
    <glyph glyph-name="angstrom" unicode="&#x212b;" horiz-adv-x="612" 
d="M537 0l-68 161h-327l-68 -161h-59l285 667h14l283 -667h-60zM303 543l-140 -333h285l-141 333h-4zM305 677q-40 0 -63.5 24t-23.5 61t25.5 62.5t61.5 25.5q38 0 63 -25t25 -63q0 -36 -25 -60.5t-63 -24.5zM305 816q-22 0 -36.5 -16t-14.5 -38t14 -37t37 -15q24 0 38 15.5
t14 36.5q0 23 -14.5 38.5t-37.5 15.5z" />
    <glyph glyph-name="estimated" unicode="&#x212e;" horiz-adv-x="817" 
d="M760 319h-570v-193q33 -51 94 -84t126 -33q64 0 125 31t103 82h50q-53 -62 -126 -97.5t-153 -35.5q-144 0 -247.5 100.5t-103.5 239.5q0 137 103 234t248 97q147 0 248.5 -97.5t102.5 -243.5zM626 337v193q-30 50 -91.5 80.5t-124.5 30.5q-56 0 -114.5 -30.5
t-105.5 -83.5v-190h436z" />
    <glyph glyph-name="onethird" unicode="&#x2153;" horiz-adv-x="750" 
d="M608 681l-506 -700h-47l506 700h47zM215 687v-389h-48v316q-15 -10 -50 -27.5t-50 -26.5v47l140 80h8zM493 201l-5 8l123 133h-164v40h248v-8l-129 -136q60 0 97.5 -33t37.5 -86q0 -57 -43 -91.5t-104 -34.5q-74 0 -124 36v52q59 -48 125 -48q43 0 70 24.5t27 60.5
q0 45 -30 66t-78 21q-31 0 -51 -4z" />
    <glyph glyph-name="twothirds" unicode="&#x2154;" horiz-adv-x="750" 
d="M654 681l-506 -700h-47l506 700h47zM95 540l-51 6q-4 11 -4 35q0 47 37 76.5t89 29.5q53 0 90.5 -26.5t37.5 -76.5q0 -62 -100 -120q-68 -40 -89 -63q-25 -28 -28 -63h222v-40h-274q0 53 17.5 89.5t40.5 55.5t72 49q27 16 40.5 25t31 28.5t17.5 37.5q0 31 -22 47t-57 16
q-36 0 -56.5 -20.5t-20.5 -50.5q0 -9 7 -35zM514 201l-5 8l123 133h-164v40h248v-8l-129 -136q60 0 97.5 -33t37.5 -86q0 -57 -43 -91.5t-104 -34.5q-74 0 -124 36v52q59 -48 125 -48q43 0 70 24.5t27 60.5q0 45 -30 66t-78 21q-31 0 -51 -4z" />
    <glyph glyph-name="onefifth" unicode="&#x2155;" horiz-adv-x="750" 
d="M619 681l-506 -700h-47l506 700h47zM211 687v-389h-48v316q-16 -10 -50 -27.5t-50 -26.5v47l140 80h8zM565 242q59 0 99.5 -32t40.5 -91q0 -58 -43 -92t-103 -34q-74 0 -122 36v56q22 -22 55.5 -36.5t66.5 -14.5q42 0 70 24.5t28 60.5q0 38 -27.5 59.5t-69.5 21.5
q-53 0 -97 -27l-8 3l24 206h206v-40h-166l-13 -108q25 8 59 8z" />
    <glyph glyph-name="twofifths" unicode="&#x2156;" horiz-adv-x="750" 
d="M668 681l-506 -700h-47l506 700h47zM104 540l-51 6q-4 11 -4 35q0 47 37 76.5t89 29.5q53 0 90.5 -26.5t37.5 -76.5q0 -62 -100 -120q-68 -40 -89 -63q-25 -28 -28 -63h222v-40h-274q0 53 17.5 89.5t40.5 55.5t72 49q27 16 40.5 25t31 28.5t17.5 37.5q0 31 -22 47t-57 16
q-36 0 -56.5 -20.5t-20.5 -50.5q0 -9 7 -35zM575 242q59 0 99.5 -32t40.5 -91q0 -58 -43 -92t-103 -34q-74 0 -122 36v56q22 -22 55.5 -36.5t66.5 -14.5q42 0 70 24.5t28 60.5q0 38 -27.5 59.5t-69.5 21.5q-53 0 -97 -27l-8 3l24 206h206v-40h-166l-13 -108q25 8 59 8z" />
    <glyph glyph-name="threefifths" unicode="&#x2157;" horiz-adv-x="750" 
d="M644 681l-506 -700h-47l506 700h47zM101 501l-5 8l123 133h-164v40h248v-8l-129 -136q60 0 97.5 -33t37.5 -86q0 -57 -43 -91.5t-104 -34.5q-74 0 -124 36v52q59 -48 125 -48q43 0 70 24.5t27 60.5q0 45 -30 66t-78 21q-31 0 -51 -4zM572 242q59 0 99.5 -32t40.5 -91
q0 -58 -43 -92t-103 -34q-74 0 -122 36v56q22 -22 55.5 -36.5t66.5 -14.5q42 0 70 24.5t28 60.5q0 38 -27.5 59.5t-69.5 21.5q-53 0 -97 -27l-8 3l24 206h206v-40h-166l-13 -108q25 8 59 8z" />
    <glyph glyph-name="fourfifths" unicode="&#x2158;" horiz-adv-x="750" 
d="M658 681l-506 -700h-47l506 700h47zM222 682h53l-188 -251h139v92l37 48h9v-140h58v-39h-58v-92h-46v92h-207v14zM592 242q59 0 99.5 -32t40.5 -91q0 -58 -43 -92t-103 -34q-74 0 -122 36v56q22 -22 55.5 -36.5t66.5 -14.5q42 0 70 24.5t28 60.5q0 38 -27.5 59.5
t-69.5 21.5q-53 0 -97 -27l-8 3l24 206h206v-40h-166l-13 -108q25 8 59 8z" />
    <glyph glyph-name="onesixth" unicode="&#x2159;" horiz-adv-x="750" 
d="M630 681l-506 -700h-47l506 700h47zM214 687v-389h-48v316q-15 -10 -50 -27.5t-50 -26.5v47l140 80h8zM683 118q0 -55 -41 -90t-103 -35q-66 0 -102.5 34t-36.5 87q0 42 36 103l104 165h53l-93 -145q15 5 47 5q58 0 97 -36t39 -88zM539 201q-38 0 -63.5 -24.5
t-25.5 -59.5q0 -37 24 -60t65 -23t67.5 23t26.5 60q0 35 -27 59.5t-67 24.5z" />
    <glyph glyph-name="fivesixths" unicode="&#x215a;" horiz-adv-x="750" 
d="M657 681l-506 -700h-47l506 700h47zM163 542q59 0 99.5 -32t40.5 -91q0 -58 -43 -92t-103 -34q-74 0 -122 36v56q22 -22 55.5 -36.5t66.5 -14.5q42 0 70 24.5t28 60.5q0 38 -27.5 59.5t-69.5 21.5q-53 0 -97 -27l-8 3l24 206h206v-40h-166l-13 -108q25 8 59 8zM714 118
q0 -55 -41 -90t-103 -35q-66 0 -102.5 34t-36.5 87q0 42 36 103l104 165h53l-93 -145q15 5 47 5q58 0 97 -36t39 -88zM570 201q-38 0 -63.5 -24.5t-25.5 -59.5q0 -37 24 -60t65 -23t67.5 23t26.5 60q0 35 -27 59.5t-67 24.5z" />
    <glyph glyph-name="oneeighth" unicode="&#x215b;" horiz-adv-x="750" 
d="M611 681l-506 -700h-47l506 700h47zM212 687v-389h-48v316q-16 -10 -50 -27.5t-50 -26.5v47l140 80h8zM468 106q0 -30 23 -51t62 -21q37 0 59.5 21t22.5 51q0 32 -24 53t-58 21q-35 0 -60 -21t-25 -53zM670 280q0 -46 -45 -79q60 -31 60 -93q0 -51 -37.5 -83t-94.5 -32
q-60 0 -97.5 31t-37.5 83q0 25 16.5 51t40.5 42q-42 32 -42 80q0 47 34 77t86 30q50 0 83.5 -30t33.5 -77zM481 282q0 -26 19.5 -44t50.5 -18q30 0 50 18t20 44t-20.5 44.5t-49.5 18.5q-30 0 -50 -18t-20 -45z" />
    <glyph glyph-name="threeeighths" unicode="&#x215c;" horiz-adv-x="750" 
d="M644 681l-506 -700h-47l506 700h47zM109 501l-5 8l123 133h-164v40h248v-8l-129 -136q60 0 97.5 -33t37.5 -86q0 -57 -43 -91.5t-104 -34.5q-74 0 -124 36v52q59 -48 125 -48q43 0 70 24.5t27 60.5q0 45 -30 66t-78 21q-31 0 -51 -4zM487 106q0 -30 23 -51t62 -21
q37 0 59.5 21t22.5 51q0 32 -24 53t-58 21q-35 0 -60 -21t-25 -53zM689 280q0 -46 -45 -79q60 -31 60 -93q0 -51 -37.5 -83t-94.5 -32q-60 0 -97.5 31t-37.5 83q0 25 16.5 51t40.5 42q-42 32 -42 80q0 47 34 77t86 30q50 0 83.5 -30t33.5 -77zM500 282q0 -26 19.5 -44
t50.5 -18q30 0 50 18t20 44t-20.5 44.5t-49.5 18.5q-30 0 -50 -18t-20 -45z" />
    <glyph glyph-name="fiveeighths" unicode="&#x215d;" horiz-adv-x="750" 
d="M646 681l-506 -700h-47l506 700h47zM168 542q59 0 99.5 -32t40.5 -91q0 -58 -43 -92t-103 -34q-74 0 -122 36v56q22 -22 55.5 -36.5t66.5 -14.5q42 0 70 24.5t28 60.5q0 38 -27.5 59.5t-69.5 21.5q-53 0 -97 -27l-8 3l24 206h206v-40h-166l-13 -108q25 8 59 8zM493 106
q0 -30 23 -51t62 -21q37 0 59.5 21t22.5 51q0 32 -24 53t-58 21q-35 0 -60 -21t-25 -53zM695 280q0 -46 -45 -79q60 -31 60 -93q0 -51 -37.5 -83t-94.5 -32q-60 0 -97.5 31t-37.5 83q0 25 16.5 51t40.5 42q-42 32 -42 80q0 47 34 77t86 30q50 0 83.5 -30t33.5 -77zM506 282
q0 -26 19.5 -44t50.5 -18q30 0 50 18t20 44t-20.5 44.5t-49.5 18.5q-30 0 -50 -18t-20 -45z" />
    <glyph glyph-name="seveneighths" unicode="&#x215e;" horiz-adv-x="750" 
d="M605 681l-506 -700h-47l506 700h47zM141 298h-49l165 344h-203v40h267v-8zM478 106q0 -30 23 -51t62 -21q37 0 59.5 21t22.5 51q0 32 -24 53t-58 21q-35 0 -60 -21t-25 -53zM680 280q0 -46 -45 -79q60 -31 60 -93q0 -51 -37.5 -83t-94.5 -32q-60 0 -97.5 31t-37.5 83
q0 25 16.5 51t40.5 42q-42 32 -42 80q0 47 34 77t86 30q50 0 83.5 -30t33.5 -77zM491 282q0 -26 19.5 -44t50.5 -18q30 0 50 18t20 44t-20.5 44.5t-49.5 18.5q-30 0 -50 -18t-20 -45z" />
    <glyph glyph-name="uni215F" unicode="&#x215f;" horiz-adv-x="433" 
d="M638 681l-506 -700h-47l506 700h47zM232 687v-389h-48v316q-15 -10 -49.5 -27.5t-50.5 -26.5v47l140 80h8z" />
    <glyph glyph-name="partialdiff" unicode="&#x2202;" horiz-adv-x="532" 
d="M251 -10q-86 0 -140.5 56.5t-54.5 158.5q0 95 55.5 153.5t139.5 58.5q98 0 165 -68q-2 145 -60 232.5t-154 87.5q-31 0 -57 -4l14 46q20 4 50 4q89 0 150.5 -56t88 -139.5t26.5 -184.5q0 -164 -61 -254.5t-162 -90.5zM253 39q52 0 90 39t55 94t19 117q-71 82 -164 82
q-67 0 -104.5 -48t-37.5 -116q0 -84 40 -126t102 -42z" />
    <glyph glyph-name="gradient" unicode="&#x2207;" horiz-adv-x="637" 
d="M624 662l-295 -666h-18l-294 666h607zM98 611l220 -500h1l221 500h-442z" />
    <glyph glyph-name="product" unicode="&#x220f;" horiz-adv-x="605" 
d="M530 -100h-57v710h-340v-710h-58v762h455v-762z" />
    <glyph glyph-name="summation" unicode="&#x2211;" horiz-adv-x="575" 
d="M324 309l-187 -356h403v-53h-495v9l211 398l-198 343v12h463v-53h-368z" />
    <glyph glyph-name="minus" unicode="&#x2212;" 
d="M459 276h-379v45h379v-45z" />
    <glyph glyph-name="radical" unicode="&#x221a;" horiz-adv-x="522" 
d="M128 378l105 -292l1 1q33 115 106 336t108 344h51l-256 -796h-16l-130 341l-50 -25l-16 41z" />
    <glyph glyph-name="infinity" unicode="&#x221e;" horiz-adv-x="750" 
d="M206 440q82 0 178 -111q36 38 57 57t56 36.5t71 17.5q62 0 101.5 -40t39.5 -104q0 -65 -43.5 -108t-106.5 -43q-42 0 -81.5 24t-94.5 84q-32 -34 -54.5 -53.5t-57.5 -37t-71 -17.5q-58 0 -99 43t-41 104q0 63 41.5 105.5t104.5 42.5zM202 392q-39 0 -65 -30t-26 -70
q0 -42 28 -71t68 -29q59 0 147 97q-30 33 -47 50t-47 35t-58 18zM563 392q-57 0 -148 -100q30 -32 41 -43.5t31.5 -28.5t37 -22.5t36.5 -5.5q40 0 67.5 31t27.5 72q0 45 -27.5 71t-65.5 26z" />
    <glyph glyph-name="logicaland" unicode="&#x2227;" 
d="M490 0h-56l-171 368q-28 -69 -81 -187.5t-78 -180.5h-55q32 80 103.5 237.5t102.5 234.5h15z" />
    <glyph glyph-name="logicalor" unicode="&#x2228;" 
d="M434 470h56l-220 -472h-15q-31 77 -102.5 234.5t-103.5 237.5h55q25 -62 78 -180.5t81 -187.5z" />
    <glyph glyph-name="intersection" unicode="&#x2229;" 
d="M129 0h-54q0 47 -0.5 140.5t-0.5 139.5q0 87 52 140t142 53q91 0 144 -57t53 -147v-269h-56v271q0 67 -36.5 109.5t-105.5 42.5q-68 0 -103 -39.5t-35 -105.5v-278z" />
    <glyph glyph-name="union" unicode="&#x222a;" 
d="M75 469h54v-277q0 -65 35.5 -104.5t102.5 -39.5q69 0 105.5 42.5t36.5 109.5v269h56v-268q0 -89 -53 -145.5t-144 -56.5q-90 0 -142 52.5t-52 139.5q0 46 0.5 138.5t0.5 139.5z" />
    <glyph glyph-name="integral" unicode="&#x222b;" horiz-adv-x="322" 
d="M151 12q0 101 -15 280.5t-15 279.5q0 74 31.5 117t92.5 43q38 0 67 -11v-42q-30 6 -54 6q-44 0 -64.5 -25.5t-20.5 -87.5q0 -110 16 -287t16 -273q0 -74 -31.5 -114.5t-90.5 -40.5q-30 0 -71 11v44q37 -10 64 -10q44 0 59.5 27t15.5 83z" />
    <glyph glyph-name="approxequal" unicode="&#x2248;" 
d="M428 274l29 -26q-36 -72 -102 -72q-32 0 -92.5 26.5t-79.5 26.5q-36 0 -73 -54l-28 26q39 73 102 73q32 0 93 -27t80 -27q36 0 71 54zM428 409l29 -26q-37 -73 -102 -73q-32 0 -92.5 26.5t-79.5 26.5q-36 0 -73 -54l-28 26q39 74 102 74q32 0 93 -27t80 -27q36 0 71 54z
" />
    <glyph glyph-name="notequal" unicode="&#x2260;" 
d="M66 93l93 100h-87v44h129l110 118h-239v44h281l72 77h49l-72 -77h61v-44h-102l-111 -118h213v-44h-254l-93 -100h-50z" />
    <glyph glyph-name="lessequal" unicode="&#x2264;" 
d="M495 111l-451 183v12l451 183v-53l-334 -134l334 -138v-53zM44 25v48h451v-48h-451z" />
    <glyph glyph-name="greaterequal" unicode="&#x2265;" 
d="M495 73v-48h-451v48h451zM495 294l-451 -183v53l334 138l-334 134v53l451 -183v-12z" />
    <glyph glyph-name="lozenge" unicode="&#x25ca;" 
d="M258 0l-198 344l198 332h26l196 -332l-196 -344h-26zM120 344l152 -269l147 269l-148 257z" />
    <glyph glyph-name="zero.text" unicode="&#xe000;" 
d="M269 672q58 0 101.5 -23t68 -57t40 -82.5t20 -91t4.5 -89.5q0 -46 -5 -88t-20.5 -89.5t-40 -81.5t-68 -57t-100.5 -23q-70 0 -118.5 31.5t-72 85.5t-33 107t-9.5 115q0 47 5 89.5t20.5 90.5t40 82.5t67.5 57.5t100 23zM269 624q-54 0 -91.5 -29t-54.5 -78.5t-23 -93.5
t-6 -94q0 -39 3 -74t14 -76.5t29.5 -71t51.5 -49.5t77 -20q55 0 92.5 28.5t54.5 77t23.5 92t6.5 93.5q0 39 -3.5 74t-14.5 77t-29.5 72.5t-52 51t-77.5 20.5z" />
    <glyph glyph-name="one.text" unicode="&#xe001;" horiz-adv-x="435" 
d="M280 666v-666h-57v577l-157 -109v61l199 137h15z" />
    <glyph glyph-name="two.text" unicode="&#xe002;" 
d="M56 0l-16 9q1 50 11 91t26 70t45.5 57.5t57.5 48.5t74 49q33 20 53 34t47.5 37.5t41.5 49t14 52.5q0 62 -41 93.5t-106 31.5t-102.5 -39.5t-37.5 -100.5q0 -23 6 -48l-60 9q-5 19 -5 51q0 78 59 127.5t142 49.5q86 0 146 -44t60 -128q0 -104 -163 -203q-46 -27 -72 -45
t-61 -50t-52.5 -70.5t-18.5 -84.5h375v-47h-423z" />
    <glyph glyph-name="three.text" unicode="&#xe003;" 
d="M152 356l-9 11l205 244l-1 4h-297v46h397v-13l-205 -237q98 0 155.5 -54.5t57.5 -150.5q0 -97 -68.5 -156t-166.5 -59q-120 0 -198 58v64q86 -73 199 -73q79 0 127.5 46.5t48.5 116.5q0 81 -49.5 121t-129.5 40q-31 0 -66 -8z" />
    <glyph glyph-name="four.text" unicode="&#xe004;" 
d="M412 472h9v-251h91v-46h-91v-175h-55v175h-357v13l344 474h69l-321 -441h265v182z" />
    <glyph glyph-name="five.text" unicode="&#xe005;" 
d="M261 409q95 0 160 -53.5t65 -151.5q0 -99 -68.5 -156t-168.5 -57q-117 0 -195 58v65q31 -32 84.5 -53.5t110.5 -21.5q80 0 130 46.5t50 117.5q0 78 -48.5 118t-128.5 40q-82 0 -157 -46l-14 5l44 341h337v-45h-288l-29 -228q49 21 116 21z" />
    <glyph glyph-name="six.text" unicode="&#xe006;" 
d="M275 661h62l-175 -286l5 -1q36 33 113 33q93 0 153.5 -58.5t60.5 -149.5q0 -93 -63 -151.5t-161 -58.5q-103 0 -164 58t-61 152q0 85 60 182zM272 360q-74 0 -122.5 -43t-48.5 -118q0 -71 45 -117t124 -46q78 0 123 46t45 117q0 70 -45 115.5t-121 45.5z" />
    <glyph glyph-name="seven.text" unicode="&#xe007;" horiz-adv-x="463" 
d="M143 0h-56l275 615h-335v46h405v-14z" />
    <glyph glyph-name="eight.text" unicode="&#xe008;" 
d="M371 357v-3q121 -47 121 -173q0 -87 -62.5 -139t-158.5 -52q-99 0 -161 51t-62 137q0 56 32 102t87 66v4q-93 43 -93 148q0 77 56.5 125.5t140.5 48.5q83 0 140 -48t57 -126q0 -48 -26.5 -86.5t-70.5 -54.5zM436 183q0 63 -44.5 103t-120.5 40q-75 0 -121 -40.5
t-46 -102.5q0 -64 45 -105.5t122 -41.5q75 0 120 42t45 105zM271 623q-62 0 -101 -36t-39 -91q0 -54 39.5 -89t100.5 -35q60 0 100 35t40 89q0 55 -39 91t-101 36z" />
    <glyph glyph-name="nine.text" unicode="&#xe009;" 
d="M263 0h-62l174 285l-4 3q-38 -33 -112 -33q-92 0 -152 58.5t-60 148.5q0 92 62.5 150.5t159.5 58.5q102 0 162.5 -57.5t60.5 -151.5q0 -83 -59 -180zM267 303q74 0 121.5 42.5t47.5 116.5q0 71 -44.5 116.5t-122.5 45.5q-77 0 -121.5 -46t-44.5 -116t44.5 -114.5
t119.5 -44.5z" />
    <glyph glyph-name="numbersign.text" unicode="&#xe00a;" horiz-adv-x="510" 
d="M403 628h41q-8 -34 -22 -97.5t-17 -78.5h80v-36h-89l-39 -176h89v-36h-97l-44 -204h-41l45 204h-161l-45 -204h-40q6 30 13.5 64t17 75.5t14.5 64.5h-84v36h92q6 30 19 88.5t19 87.5h-93v36h101q14 58 40 176h40l-39 -176h161zM195 416l-39 -176h161q29 130 38 176h-160z
" />
    <glyph glyph-name="dollar.text" unicode="&#xe00b;" 
d="M246 -96v92q-105 4 -176 51v57q88 -61 183 -61q77 0 118.5 34t41.5 90q0 37 -18 66.5t-47 48.5t-63.5 35.5t-69.5 33t-64 36t-47 49.5t-18 68q0 72 45 111.5t115 46.5v95h48v-94q73 -3 137 -36v-60q-71 48 -154 48q-136 0 -136 -114q0 -35 34 -62t82.5 -48.5t96.5 -46.5
t82 -67t34 -98q0 -81 -48 -127t-128 -54v-94h-48z" />
    <glyph glyph-name="euro.text" unicode="&#xe00c;" 
d="M38 309h403v-37h-299q3 -105 72.5 -167.5t161.5 -62.5q67 0 130 27v-49q-64 -26 -133 -26q-114 0 -198 74.5t-90 203.5h-47v37zM441 366h-403v37h52q13 124 95 194.5t193 70.5q54 0 111 -17v-50q-62 17 -113 17q-90 0 -154 -57.5t-74 -157.5h293v-37z" />
    <glyph glyph-name="florin.text" unicode="&#xe00d;" horiz-adv-x="458" 
d="M118 356v43h88l11 95q11 89 47.5 132.5t104.5 43.5q32 0 67 -12v-47q-36 10 -62 10q-46 0 -69 -30t-32 -98l-12 -94h97v-43h-102l-24 -187q-19 -147 -51.5 -201.5t-102.5 -54.5q-37 0 -75 15v56q43 -17 70 -17q51 0 70 45.5t37 195.5l19 148h-81z" />
    <glyph glyph-name="sterling.text" unicode="&#xe00e;" 
d="M465 649v-50q-50 19 -92 19q-62 0 -101.5 -38.5t-39.5 -124.5v-99h183v-41h-183q-1 -73 -17.5 -148.5t-51.5 -119.5h307v-47h-390v12q96 105 96 303h-82v41h82v100q0 52 14.5 92t35.5 61.5t49.5 35t51 17.5t44.5 4q54 0 94 -17z" />
    <glyph glyph-name="cent.text" unicode="&#xe00f;" horiz-adv-x="510" 
d="M280 6v105q-93 10 -142 72.5t-49 154.5q0 90 53 155.5t138 78.5v108h48v-105q58 -2 100 -20v-54q-42 26 -104 26q-75 0 -126 -51t-51 -138q0 -80 47.5 -129.5t128.5 -49.5q76 0 123 34v-54q-43 -25 -118 -29v-104h-48z" />
    <glyph glyph-name="yen.text" unicode="&#xe010;" 
d="M497 285h-430v37h165l-189 340h65l170 -327h3l176 327h59l-191 -340h172v-37zM67 228h430v-37h-189l-1 -191h-57v191h-183v37z" />
    <glyph glyph-name="zero.taboldstyle" unicode="&#xe024;" horiz-adv-x="510" 
d="M256 -10q-106 0 -168.5 66t-62.5 167q0 97 67.5 164.5t163.5 67.5q99 0 164 -67t65 -165q0 -99 -65.5 -166t-163.5 -67zM256 407q-76 0 -124.5 -53.5t-48.5 -130.5q0 -80 46.5 -132.5t126.5 -52.5q78 0 125 53.5t47 131.5q0 77 -47.5 130.5t-124.5 53.5z" />
    <glyph glyph-name="one.taboldstyle" unicode="&#xe025;" horiz-adv-x="510" 
d="M62 0v45h186v327l-166 -88v55l208 112h12v-406h166v-45h-406z" />
    <glyph glyph-name="two.taboldstyle" unicode="&#xe026;" horiz-adv-x="510" 
d="M130 261l-58 8q-7 21 -7 44q0 60 52.5 103t142.5 43q87 0 138 -37t51 -100q0 -49 -32 -79.5t-91 -55.5q-17 -7 -54 -21t-57.5 -23t-46 -23.5t-40 -32.5t-19.5 -41h354v-46h-417q0 68 33 110q25 32 80.5 60t105 44t88.5 44t39 63q0 39 -33 64t-102 25q-68 0 -102.5 -32.5
t-34.5 -74.5q0 -23 10 -42z" />
    <glyph glyph-name="three.taboldstyle" unicode="&#xe027;" horiz-adv-x="510" 
d="M127 163l-7 12l200 221h-271v48h366v-13l-199 -218q90 -1 149 -51.5t59 -137.5q0 -89 -63.5 -144t-155.5 -55q-108 0 -180 55v61q82 -68 182 -68q73 0 117.5 41.5t44.5 107.5q0 74 -49 112.5t-122 38.5q-29 0 -71 -10z" />
    <glyph glyph-name="four.taboldstyle" unicode="&#xe028;" horiz-adv-x="510" 
d="M322 444h61l-285 -399h232v178l45 68h9v-246h99v-45h-99v-171h-54v171h-316v13z" />
    <glyph glyph-name="five.taboldstyle" unicode="&#xe029;" horiz-adv-x="510" 
d="M244 217q89 0 150 -50.5t61 -142.5q0 -93 -64.5 -146t-156.5 -53q-107 0 -180 55v61q29 -30 78 -49t103 -19q73 0 118.5 41.5t45.5 109.5q0 67 -46 106t-116 39q-74 0 -142 -42l-14 4l40 313h302v-48h-259l-24 -199q47 20 104 20z" />
    <glyph glyph-name="six.taboldstyle" unicode="&#xe02a;" horiz-adv-x="510" 
d="M462 188q0 -86 -60 -141.5t-153 -55.5q-95 0 -148 53t-53 136q0 75 55 163l155 266h61l-146 -243q0 -1 1 -2q37 17 90 17q86 0 142 -55.5t56 -137.5zM250 332q-62 0 -103.5 -42t-41.5 -103q0 -67 39.5 -107.5t105.5 -40.5q69 0 112.5 41t43.5 107q0 61 -44.5 103
t-111.5 42z" />
    <glyph glyph-name="seven.taboldstyle" unicode="&#xe02b;" horiz-adv-x="510" 
d="M168 -168h-59l256 564h-319v48h392v-17z" />
    <glyph glyph-name="eight.taboldstyle" unicode="&#xe02c;" horiz-adv-x="510" 
d="M115 165q0 -54 38.5 -91.5t102.5 -37.5q63 0 101.5 37.5t38.5 91.5q0 59 -40.5 95.5t-99.5 36.5t-100 -36.5t-41 -95.5zM429 453q0 -38 -22 -75t-56 -58q49 -21 75.5 -62t26.5 -90q0 -79 -56 -129t-141 -50q-89 0 -144 48t-55 129q0 47 29.5 91t72.5 62
q-35 19 -56.5 56.5t-21.5 77.5q0 74 49.5 119.5t125.5 45.5q75 0 124 -46t49 -119zM134 454q0 -46 34 -78.5t86 -32.5t85.5 32t33.5 79q0 49 -34 81t-85 32t-85.5 -32t-34.5 -81z" />
    <glyph glyph-name="nine.taboldstyle" unicode="&#xe02d;" horiz-adv-x="510" 
d="M48 258q0 86 60 141.5t153 55.5q95 0 148 -53t53 -136q0 -72 -54 -163l-159 -271h-61l149 248q0 1 -1 2q-37 -17 -90 -17q-86 0 -142 55.5t-56 137.5zM260 114q62 0 103.5 42t41.5 103q0 67 -39.5 107.5t-105.5 40.5q-69 0 -112.5 -41t-43.5 -107q0 -61 44.5 -103
t111.5 -42z" />
    <glyph glyph-name="numbersign.taboldstyle" unicode="&#xe02e;" horiz-adv-x="510" 
d="M366 484h41l-30 -132h68v-40h-77l-28 -120h74v-38h-83l-36 -154h-41l37 154h-119l-37 -154h-41l36 154h-66v38h75l29 120h-75v40h83l30 132h43l-33 -132h119zM208 312l-28 -120h117l30 120h-119z" />
    <glyph glyph-name="dollar.taboldstyle" unicode="&#xe02f;" horiz-adv-x="510" 
d="M234 -90v84q-90 4 -155 43v57q79 -54 162 -54q63 0 101 25t38 75q0 39 -29.5 68t-72 47t-84.5 37t-71.5 50.5t-29.5 74.5q0 60 40.5 94.5t101.5 40.5v81h45v-81q61 -3 119 -32v-57q-62 41 -136 41q-114 0 -114 -90q0 -27 29.5 -49t71 -40t83 -39t71 -56t29.5 -80
q0 -68 -41.5 -107t-110.5 -47v-86h-47z" />
    <glyph glyph-name="euro.taboldstyle" unicode="&#xe030;" horiz-adv-x="510" 
d="M48 254h354v-41h-255q11 -83 66.5 -128t133.5 -45q59 0 115 24v-50q-63 -22 -118 -22q-101 0 -172.5 57.5t-80.5 163.5h-43v41zM402 304h-354v42h48q18 101 86.5 154.5t165.5 53.5q52 0 97 -14v-52q-52 15 -98 15q-155 0 -194 -157h249v-42z" />
    <glyph glyph-name="florin.taboldstyle" unicode="&#xe031;" horiz-adv-x="510" 
d="M159 290v45h81q7 61 10 81q10 82 44 121.5t98 39.5q30 0 64 -11v-45q-34 7 -59 7q-84 0 -95 -111q-5 -34 -11 -82h92v-45h-96l-21 -164q-18 -128 -46 -179t-95 -51q-36 0 -71 14v52q40 -15 67 -15q45 0 61.5 40t34.5 174l17 129h-75z" />
    <glyph glyph-name="sterling.taboldstyle" unicode="&#xe032;" horiz-adv-x="510" 
d="M413 541v-51q-43 16 -84 16q-53 0 -86.5 -30t-33.5 -99v-77h158v-44h-158q-2 -153 -54 -210h262v-46h-344v13q45 26 64 101t19 142h-71v44h71v78q0 44 13 77.5t31.5 51.5t43.5 29.5t44.5 14.5t39.5 3q50 0 85 -13z" />
    <glyph glyph-name="cent.taboldstyle" unicode="&#xe033;" horiz-adv-x="510" 
d="M260 -29v89q-78 7 -120 58t-42 126q0 73 45 125.5t117 62.5v87h45v-86q44 -2 76 -15v-55q-39 24 -89 24q-58 0 -97.5 -39t-39.5 -104q0 -61 37 -99t99 -38q57 0 105 33v-54q-34 -20 -91 -26v-89h-45z" />
    <glyph glyph-name="yen.taboldstyle" unicode="&#xe034;" horiz-adv-x="510" 
d="M454 263h-391v42h136l-148 238h63l152 -253l137 253h56l-133 -238h128v-42zM63 212h391v-41h-161v-171h-55v171h-175v41z" />
    <glyph glyph-name="zero.textoldstyle" unicode="&#xe048;" horiz-adv-x="510" 
d="M256 -10q-106 0 -168.5 66t-62.5 167q0 97 67.5 164.5t163.5 67.5q99 0 164 -67t65 -165q0 -99 -65.5 -166t-163.5 -67zM256 407q-76 0 -124.5 -53.5t-48.5 -130.5q0 -80 46.5 -132.5t126.5 -52.5q78 0 125 53.5t47 131.5q0 77 -47.5 130.5t-124.5 53.5z" />
    <glyph glyph-name="one.textoldstyle" unicode="&#xe049;" horiz-adv-x="461" 
d="M32 0v45h186v324l-166 -83v53l207 110h13v-404h166v-45h-406z" />
    <glyph glyph-name="two.textoldstyle" unicode="&#xe04a;" horiz-adv-x="510" 
d="M130 261l-58 8q-7 21 -7 44q0 60 52.5 103t142.5 43q87 0 138 -37t51 -100q0 -48 -30.5 -78.5t-86.5 -54.5q-19 -8 -55.5 -21.5t-58.5 -23t-48 -24t-41 -33t-20 -41.5h354v-46h-417q0 68 33 110q25 32 80.5 60t105 44t88.5 44t39 63q0 39 -33 64t-102 25
q-68 0 -102.5 -32.5t-34.5 -74.5q0 -23 10 -42z" />
    <glyph glyph-name="three.textoldstyle" unicode="&#xe04b;" horiz-adv-x="484" 
d="M114 163l-7 12l200 221h-271v48h366v-13l-199 -218q90 -1 149 -51.5t59 -137.5q0 -89 -63.5 -144t-155.5 -55q-108 0 -180 55v61q82 -68 182 -68q73 0 117.5 41.5t44.5 107.5q0 74 -49 112.5t-122 38.5q-29 0 -71 -10z" />
    <glyph glyph-name="four.textoldstyle" unicode="&#xe04c;" horiz-adv-x="510" 
d="M322 444h61l-285 -399h232v178l45 68h9v-246h99v-45h-99v-171h-54v171h-316v13z" />
    <glyph glyph-name="five.textoldstyle" unicode="&#xe04d;" horiz-adv-x="496" 
d="M234 217q89 0 150 -50.5t61 -142.5q0 -93 -64.5 -146t-156.5 -53q-107 0 -180 55v61q29 -30 78 -49t103 -19q73 0 118.5 41.5t45.5 109.5q0 67 -46 106t-116 39q-75 0 -143 -42l-13 4l40 313h302v-48h-259l-26 -199q47 20 106 20z" />
    <glyph glyph-name="six.textoldstyle" unicode="&#xe04e;" horiz-adv-x="510" 
d="M462 188q0 -86 -60 -141.5t-153 -55.5q-95 0 -148 53t-53 136q0 75 55 163l155 266h61l-146 -243q0 -1 1 -2q37 17 90 17q86 0 142 -55.5t56 -137.5zM250 332q-62 0 -103.5 -42t-41.5 -103q0 -67 39.5 -107.5t105.5 -40.5q69 0 112.5 41t43.5 107q0 61 -44.5 103
t-111.5 42z" />
    <glyph glyph-name="seven.textoldstyle" unicode="&#xe04f;" horiz-adv-x="449" 
d="M138 -168h-59l256 564h-319v48h392v-17z" />
    <glyph glyph-name="eight.textoldstyle" unicode="&#xe050;" horiz-adv-x="510" 
d="M115 165q0 -54 38.5 -91.5t102.5 -37.5q63 0 101.5 37.5t38.5 91.5q0 59 -40.5 95.5t-99.5 36.5t-100 -36.5t-41 -95.5zM429 453q0 -38 -22 -75t-56 -58q49 -21 75.5 -62t26.5 -90q0 -79 -56 -129t-141 -50q-89 0 -144 48t-55 129q0 47 29.5 91t72.5 62
q-35 19 -56.5 56.5t-21.5 77.5q0 74 49.5 119.5t125.5 45.5q75 0 124 -46t49 -119zM134 454q0 -46 34 -78.5t86 -32.5t85.5 32t33.5 79q0 49 -34 81t-85 32t-85.5 -32t-34.5 -81z" />
    <glyph glyph-name="nine.textoldstyle" unicode="&#xe051;" horiz-adv-x="510" 
d="M48 258q0 86 60 141.5t153 55.5q95 0 148 -53t53 -136q0 -75 -55 -163l-158 -271h-61l149 248q0 1 -1 2q-37 -17 -90 -17q-86 0 -142 55.5t-56 137.5zM260 114q62 0 103.5 42t41.5 103q0 67 -39.5 107.5t-105.5 40.5q-69 0 -112.5 -41t-43.5 -107q0 -61 44.5 -103
t111.5 -42z" />
    <glyph glyph-name="numbersign.textoldstyle" unicode="&#xe052;" horiz-adv-x="455" 
d="M336 484h41l-30 -132h68v-40h-77l-28 -120h74v-38h-83l-36 -154h-41l37 154h-119l-37 -154h-41l36 154h-66v38h75l29 120h-75v40h83l30 132h43l-33 -132h119zM178 312l-28 -120h117l30 120h-119z" />
    <glyph glyph-name="dollar.textoldstyle" unicode="&#xe053;" horiz-adv-x="444" 
d="M194 -90v84q-90 4 -155 43v57q79 -54 162 -54q63 0 101 25t38 75q0 39 -29.5 68t-72 47t-84.5 37t-71.5 50.5t-29.5 74.5q0 60 40.5 94.5t101.5 40.5v81h45v-81q61 -3 119 -32v-57q-62 41 -136 41q-114 0 -114 -90q0 -27 29.5 -49t71 -40t83 -39t71 -56t29.5 -80
q0 -68 -41.5 -107t-110.5 -47v-86h-47z" />
    <glyph glyph-name="euro.textoldstyle" unicode="&#xe054;" horiz-adv-x="490" 
d="M38 254h355v-41h-256q11 -83 66.5 -128t133.5 -45q59 0 115 24v-50q-63 -22 -118 -22q-101 0 -172.5 57.5t-80.5 163.5h-43v41zM393 304h-355v42h48q18 101 86.5 154.5t165.5 53.5q52 0 97 -14v-52q-53 15 -98 15q-155 0 -194 -157h250v-42z" />
    <glyph glyph-name="florin.textoldstyle" unicode="&#xe055;" horiz-adv-x="397" 
d="M99 290v45h81q7 61 10 81q10 82 44 121.5t98 39.5q30 0 64 -11v-45q-34 7 -59 7q-84 0 -95 -111q-5 -34 -11 -82h92v-45h-96l-21 -164q-18 -128 -46 -179t-95 -51q-36 0 -71 14v52q40 -15 67 -15q45 0 61.5 40t34.5 174l17 129h-75z" />
    <glyph glyph-name="sterling.textoldstyle" unicode="&#xe056;" horiz-adv-x="438" 
d="M383 541v-51q-43 16 -84 16q-53 0 -86.5 -30t-33.5 -99v-77h158v-44h-158q-2 -153 -54 -210h262v-46h-344v13q45 26 64 101t19 142h-71v44h71v78q0 44 13 77.5t31.5 51.5t43.5 29.5t44.5 14.5t39.5 3q50 0 85 -13z" />
    <glyph glyph-name="cent.textoldstyle" unicode="&#xe057;" horiz-adv-x="432" 
d="M232 -29v89q-78 7 -120 58t-42 126q0 73 45 125.5t117 62.5v87h45v-86q44 -2 76 -15v-55q-39 24 -89 24q-58 0 -97.5 -39t-39.5 -104q0 -61 37 -99t99 -38q57 0 105 33v-54q-34 -20 -91 -26v-89h-45z" />
    <glyph glyph-name="yen.textoldstyle" unicode="&#xe058;" horiz-adv-x="455" 
d="M424 263h-391v42h136l-148 238h63l152 -253l137 253h56l-133 -238h128v-42zM33 212h391v-41h-161v-171h-55v171h-175v41z" />
    <glyph glyph-name="percent.text" unicode="&#xe059;" horiz-adv-x="646" 
d="M181 300q-61 0 -97 37t-36 92q0 56 38.5 94.5t94.5 38.5q57 0 93.5 -38t36.5 -95q0 -54 -37.5 -91.5t-92.5 -37.5zM181 516q-38 0 -61.5 -25t-23.5 -62q0 -36 22.5 -60.5t62.5 -24.5q37 0 59 25t22 60q0 36 -22.5 61.5t-58.5 25.5zM534 577l-364 -591h-52l363 591h53z
M468 -6q-60 0 -96 37t-36 92q0 56 38.5 94t93.5 38q58 0 94.5 -37.5t36.5 -94.5q0 -55 -37.5 -92t-93.5 -37zM468 209q-37 0 -60.5 -24.5t-23.5 -61.5t22.5 -60.5t61.5 -23.5q37 0 59.5 25t22.5 59q0 36 -23 61t-59 25z" />
    <glyph glyph-name="perthousand.text" unicode="&#xe05a;" horiz-adv-x="944" 
d="M181 300q-61 0 -97 37t-36 92q0 56 38.5 94.5t94.5 38.5q57 0 93.5 -38t36.5 -95q0 -54 -37.5 -91.5t-92.5 -37.5zM181 516q-38 0 -61.5 -25t-23.5 -62q0 -36 22.5 -60.5t62.5 -24.5q37 0 59 25t22 60q0 36 -22.5 61.5t-58.5 25.5zM534 577l-364 -591h-52l363 591h53z
M468 -6q-60 0 -96 37t-36 92q0 56 38.5 94t93.5 38q58 0 94.5 -37.5t36.5 -94.5q0 -55 -37.5 -92t-93.5 -37zM468 209q-37 0 -60.5 -24.5t-23.5 -61.5t22.5 -60.5t61.5 -23.5q37 0 59.5 25t22.5 59q0 36 -23 61t-59 25zM771 -6q-60 0 -96 37t-36 92q0 56 38.5 94t93.5 38
q58 0 94.5 -37.5t36.5 -94.5q0 -55 -37 -92t-94 -37zM771 209q-37 0 -60.5 -24.5t-23.5 -61.5t22.5 -60.5t61.5 -23.5q37 0 59.5 25t22.5 59q0 36 -23 61t-59 25z" />
    <glyph glyph-name="asuperior" unicode="&#xe06c;" horiz-adv-x="348" 
d="M258 337l-2 1q-31 -47 -103 -47q-63 0 -90.5 27.5t-27.5 61.5q0 100 155 100h66v13q0 68 -83 68q-43 0 -106 -32v45q52 28 108 28q129 0 129 -118v-186h-36zM256 420v21h-64q-107 0 -107 -59q0 -50 76 -50q46 0 70.5 24t24.5 64z" />
    <glyph glyph-name="bsuperior" unicode="&#xe06d;" horiz-adv-x="393" 
d="M84 356l-9 -56h-30v462h45v-217q42 53 118 53q70 0 112.5 -43t42.5 -110q0 -65 -44.5 -109t-114.5 -44q-38 0 -71 17t-49 47zM203 557q-49 0 -79.5 -32t-30.5 -80q0 -51 30.5 -81t79.5 -30t80 32t31 79q0 48 -31 80t-80 32z" />
    <glyph glyph-name="dsuperior" unicode="&#xe06f;" horiz-adv-x="396" 
d="M187 599q77 0 116 -52l-1 215h49v-462h-32l-14 53q-40 -61 -118 -61q-70 0 -113.5 41.5t-43.5 109.5q0 66 44 111t113 45zM190 558q-50 0 -81 -32.5t-31 -80.5q0 -49 30.5 -80t82.5 -31q48 0 79.5 32t31.5 80q0 49 -30 80.5t-82 31.5z" />
    <glyph glyph-name="esuperior" unicode="&#xe070;" horiz-adv-x="362" 
d="M312 381v-53q-50 -35 -119 -35q-76 0 -120 42.5t-44 113.5q0 65 44.5 109.5t108.5 44.5q67 0 105.5 -43.5t38.5 -108.5q0 -11 -2 -18h-243q4 -43 35.5 -70t74.5 -27q63 0 121 45zM182 558q-41 0 -67.5 -22.5t-31.5 -61.5h193q-6 38 -30.5 61t-63.5 23z" />
    <glyph glyph-name="egravesuperior" unicode="&#xe071;" horiz-adv-x="362" 
d="M227 640h-44l-107 83l40 31zM312 381v-53q-50 -35 -119 -35q-76 0 -120 42.5t-44 113.5q0 65 44.5 109.5t108.5 44.5q67 0 105.5 -43.5t38.5 -108.5q0 -11 -2 -18h-243q4 -43 35.5 -70t74.5 -27q63 0 121 45zM182 558q-41 0 -67.5 -22.5t-31.5 -61.5h193q-6 38 -30.5 61
t-63.5 23z" />
    <glyph glyph-name="hsuperior" unicode="&#xe073;" horiz-adv-x="359" 
d="M91 763v-221q19 28 49.5 42t59.5 14q54 0 84 -28.5t30 -86.5v-183h-48v177q0 40 -20.5 60t-53.5 20q-40 0 -70.5 -32t-30.5 -94v-131h-46v463h46z" />
    <glyph glyph-name="isuperior" unicode="&#xe074;" horiz-adv-x="145" 
d="M97 592l-1 -292h-48v292h49zM72 713q13 0 23 -9.5t10 -21.5t-9.5 -21.5t-23.5 -9.5q-13 0 -22.5 9.5t-9.5 21.5q0 14 10 22.5t22 8.5z" />
    <glyph glyph-name="lsuperior" unicode="&#xe077;" horiz-adv-x="136" 
d="M91 762v-462h-46v462h46z" />
    <glyph glyph-name="msuperior" unicode="&#xe078;" horiz-adv-x="564" 
d="M46 300v292h32l16 -47q18 27 46.5 40.5t52.5 13.5q77 0 101 -63q19 31 52 47t62 16q51 0 81 -31.5t30 -89.5v-178h-48v180q0 79 -71 79q-35 0 -64.5 -25.5t-29.5 -74.5v-159h-47v172q0 87 -72 87q-35 0 -64.5 -30t-29.5 -82v-147h-47z" />
    <glyph glyph-name="osuperior" unicode="&#xe079;" horiz-adv-x="378" 
d="M190 293q-74 0 -116.5 43.5t-42.5 110.5q0 65 46.5 110t112.5 45q68 0 113 -44.5t45 -110.5q0 -65 -45.5 -109.5t-112.5 -44.5zM190 560q-48 0 -77.5 -32.5t-29.5 -80.5q0 -49 28 -81t79 -32q50 0 78 32.5t28 80.5q0 47 -29 80t-77 33z" />
    <glyph glyph-name="rsuperior" unicode="&#xe07c;" horiz-adv-x="238" 
d="M76 592l11 -59q14 35 45 51t63 16q20 0 38 -3v-45q-25 6 -46 6q-54 0 -74.5 -40.5t-20.5 -118.5v-99h-47v292h31z" />
    <glyph glyph-name="ssuperior" unicode="&#xe07d;" horiz-adv-x="255" 
d="M12 322v49q54 -36 102 -36q70 0 70 44q0 14 -11.5 25.5t-24 17.5t-35.5 15q-28 10 -43.5 18t-30 25t-14.5 40q0 41 30.5 62t72.5 21q49 0 92 -22v-49q-52 28 -87 28q-57 0 -57 -38q0 -13 14.5 -22t45.5 -21q30 -11 47 -19.5t33.5 -29t16.5 -46.5q0 -43 -32.5 -66.5
t-82.5 -23.5q-56 0 -106 28z" />
    <glyph glyph-name="tsuperior" unicode="&#xe07e;" horiz-adv-x="221" 
d="M88 681h25v-85h86v-40h-86v-173q0 -47 39 -47q29 0 63 23v-44q-28 -21 -67 -21q-49 0 -67 24t-18 69v169h-51v30l52 9z" />
    <glyph glyph-name="i.dot" unicode="&#xe096;" horiz-adv-x="227" 
d="M152 577q0 -17 -11 -27.5t-27 -10.5q-17 0 -28 10.5t-11 27.5q0 15 11.5 27t27.5 12t27 -11t11 -28zM141 0h-57v445h57v-445z" />
    <glyph glyph-name="a.alt" unicode="&#xe0a8;" horiz-adv-x="579" 
d="M280 453q49 0 94.5 -20.5t71.5 -56.5l15 68h43v-444h-43l-12 70l-3 1q-60 -81 -167 -81q-106 0 -167.5 64.5t-61.5 167.5q0 97 67 164t163 67zM281 404q-76 0 -124.5 -52.5t-48.5 -129.5q0 -80 46.5 -132t126.5 -52q77 0 124 53t47 131q0 76 -47.5 129t-123.5 53z" />
    <glyph glyph-name="g.alt" unicode="&#xe0a9;" horiz-adv-x="570" 
d="M68 -183v58q87 -56 181 -56t148.5 55.5t54.5 150.5v46l-5 1q-29 -40 -74.5 -61t-95.5 -21q-107 0 -169.5 63t-62.5 166q0 99 67.5 167t165.5 68q50 0 96.5 -20.5t72.5 -57.5l5 3l10 66h43v-422q0 -118 -68 -185t-191 -67q-103 0 -178 46zM279 407q-77 0 -126 -54.5
t-49 -133.5q0 -80 46.5 -130.5t128.5 -50.5q78 0 124.5 53t46.5 128q0 79 -47 133.5t-124 54.5z" />
    <glyph glyph-name="two.alt" unicode="&#xe0aa;" horiz-adv-x="490" 
d="M155 51l1 -3h290v-48h-413v13q40 29 77 58t90.5 79t91 98t65 108.5t27.5 115.5q0 67 -39 108.5t-101 41.5q-89 0 -174 -71v56q81 64 174 64q88 0 141 -54.5t53 -135.5q0 -66 -30.5 -136.5t-78.5 -127.5t-91 -97.5t-83 -68.5z" />
    <glyph glyph-name="two_taboldstyle.alt" unicode="&#xe0ab;" horiz-adv-x="510" 
d="M197 50v-5h267v-45h-426v14q38 18 77.5 39t91.5 54.5t91 66t66.5 72.5t27.5 76q0 43 -36.5 66t-94.5 23q-94 0 -185 -51v52q96 49 186 49q89 0 138.5 -38t49.5 -96q0 -43 -25 -87t-66.5 -80t-81 -62.5t-80.5 -47.5z" />
    <glyph glyph-name="two_textoldstyle.alt" unicode="&#xe0ac;" horiz-adv-x="510" 
d="M197 50v-5h267v-45h-426v14q38 18 77.5 39t91.5 54.5t91 66t66.5 72.5t27.5 76q0 43 -36.5 66t-94.5 23q-94 0 -185 -51v52q96 49 186 49q89 0 138.5 -38t49.5 -96q0 -43 -25 -87t-66.5 -80t-81 -62.5t-80.5 -47.5z" />
    <glyph glyph-name="A2.alt" unicode="&#xe0b6;" horiz-adv-x="612" 
d="M537 0l-230 543h-4l-229 -543h-59l285 667h14l283 -667h-60z" />
    <glyph glyph-name="F.alt" unicode="&#xe0b7;" horiz-adv-x="516" 
d="M143 -215h-58v877h416v-52h-358v-255h328v-52h-328v-518z" />
    <glyph glyph-name="I.alt" unicode="&#xe0b8;" horiz-adv-x="248" 
d="M153 0h-58v802h58v-802z" />
    <glyph glyph-name="L.alt" unicode="&#xe0b9;" horiz-adv-x="512" 
d="M85 802h58v-749h359v-53h-417v802z" />
    <glyph glyph-name="P2.alt" unicode="&#xe0ba;" horiz-adv-x="563" 
d="M84 -215v876h217q109 0 170 -62t61 -150q0 -101 -68 -158.5t-166 -57.5h-155v-448h-59zM280 613h-137v-332h148q88 0 133 49t45 118q0 68 -47.5 116.5t-141.5 48.5z" />
    <glyph glyph-name="T.alt" unicode="&#xe0bb;" horiz-adv-x="523" 
d="M508 750h-216v-750h-59v750h-218v52h493v-52z" />
    <glyph glyph-name="Y.alt" unicode="&#xe0bc;" horiz-adv-x="577" 
d="M184 -215l78 203l-259 672h59l227 -596h3l226 596h56l-333 -875h-57z" />
    <glyph glyph-name="Q.alt" unicode="&#xe0bd;" horiz-adv-x="787" 
d="M395 -10q-158 0 -249 96t-91 245q0 143 99.5 242t240.5 99q145 0 241 -98.5t96 -242.5q0 -145 -95.5 -243t-241.5 -98zM395 619q-122 0 -200.5 -83t-78.5 -205q0 -126 75.5 -207t203.5 -81q124 0 201.5 83.5t77.5 204.5t-78.5 204.5t-200.5 83.5zM730 -150l-17 -53
l-401 71l17 54z" />
    <glyph glyph-name="Q2.alt" unicode="&#xe0be;" horiz-adv-x="787" 
d="M428 -214h-56v205q-148 7 -232.5 102t-84.5 238t99.5 242t240.5 99q145 0 241 -98.5t96 -242.5q0 -136 -85 -232t-219 -107v-206zM395 619q-122 0 -200.5 -83t-78.5 -205q0 -120 69 -200t187 -87v236h56v-236q111 12 178.5 93t67.5 194q0 121 -78.5 204.5t-200.5 83.5z
" />
    <glyph glyph-name="uniE0C0" unicode="&#xe0c0;" horiz-adv-x="516" 
d="M143 749v-749h-58v801h416v-52h-358z" />
    <glyph glyph-name="uniE0C4" unicode="&#xe0c4;" horiz-adv-x="787" 
d="M428 -214h-56v205q-148 7 -232.5 102t-84.5 238t99.5 242t240.5 99q145 0 241 -98.5t96 -242.5q0 -136 -85 -232t-219 -107v-206zM116 331q0 -120 69 -200t187 -87v574q-113 -9 -184.5 -90t-71.5 -197zM674 331q0 112 -68.5 193t-177.5 93v-573q111 12 178.5 93t67.5 194
z" />
    <glyph glyph-name="uniE0C5" unicode="&#xe0c5;" horiz-adv-x="731" 
d="M393 -215h-58v211q-118 4 -189 76.5t-71 185.5v404h57v-395q0 -87 53.5 -148.5t149.5 -67.5v611h58v-611q99 5 152 64t53 149v398h58v-406q0 -110 -71 -182t-192 -78v-211z" />
    <glyph glyph-name="Parenleft" unicode="&#xe0d8;" horiz-adv-x="290" 
d="M237 767l33 -12q-139 -199 -139 -418q0 -218 137 -423l-34 -13q-73 94 -115 210t-42 227q0 226 160 429z" />
    <glyph glyph-name="Parenright" unicode="&#xe0d9;" horiz-adv-x="290" 
d="M26 755l33 12q160 -203 160 -429q0 -111 -42 -227t-115 -210l-34 13q137 205 137 423q0 219 -139 418z" />
    <glyph glyph-name="Hyphen" unicode="&#xe0da;" horiz-adv-x="376" 
d="M61 247v53h254v-53h-254z" />
    <glyph glyph-name="Bracketleft" unicode="&#xe0db;" horiz-adv-x="257" 
d="M75 -90v853h152v-42h-101v-769h101v-42h-152z" />
    <glyph glyph-name="Bracketright" unicode="&#xe0dc;" horiz-adv-x="257" 
d="M182 763v-853h-152v42h101v769h-101v42h152z" />
    <glyph glyph-name="Braceleft" unicode="&#xe0dd;" horiz-adv-x="288" 
d="M207 367v-5q34 -20 43 -56t9 -103v-178q0 -74 45 -74h39v-44h-48q-28 0 -46.5 10t-27 28.5t-11 36t-2.5 41.5v221q0 101 -63 114v11q63 13 63 113v153q0 27 2 44.5t9 40.5t25 34.5t46 11.5h53v-43h-37q-29 0 -38 -18.5t-9 -54.5v-163q0 -98 -52 -120z" />
    <glyph glyph-name="Braceright" unicode="&#xe0de;" horiz-adv-x="288" 
d="M171 362v5q-52 22 -52 120v163q0 36 -9 54.5t-38 18.5h-37v43h53q28 0 46 -11.5t25 -34.5t9 -40.5t2 -44.5v-153q0 -100 63 -113v-11q-63 -13 -63 -114v-221q0 -24 -2.5 -41.5t-11 -36t-27 -28.5t-46.5 -10h-48v44h39q45 0 45 74v178q0 45 2 69t14 50t36 40z" />
    <glyph glyph-name="Endash" unicode="&#xe0df;" horiz-adv-x="549" 
d="M32 245v48h484v-48h-484z" />
    <glyph glyph-name="Emdash" unicode="&#xe0e0;" horiz-adv-x="830" 
d="M35 245v48h750v-48h-750z" />
    <glyph glyph-name="Exclamdown" unicode="&#xe0e1;" horiz-adv-x="274" 
d="M118 325h42l9 -538h-62zM183 441q0 -19 -13 -32t-32 -13t-32 13t-13 32t13 32t32 13q18 0 31.5 -13t13.5 -32z" />
    <glyph glyph-name="Questiondown" unicode="&#xe0e2;" horiz-adv-x="492" 
d="M88 -42q0 45 22 86t54 71t64 57t54 54.5t22 53.5q0 22 -13 42l56 16q15 -33 15 -59q0 -35 -22 -68t-54 -59.5t-64 -54t-54 -62t-22 -72.5q0 -55 39.5 -90.5t109.5 -35.5q69 0 145 38v-58q-72 -33 -148 -33q-84 0 -144 46.5t-60 127.5zM270 440q0 19 13 32t32 13t31.5 -13
t12.5 -32t-12.5 -31.5t-31.5 -12.5t-32 12.5t-13 31.5z" />
    <glyph glyph-name="Guillemotleft" unicode="&#xe0e3;" horiz-adv-x="411" 
d="M105 231l137 -185h-63l-134 178v9l137 178h60zM238 231l137 -185h-63l-134 178v9l137 178h60z" />
    <glyph glyph-name="Guillemotright" unicode="&#xe0e4;" horiz-adv-x="411" 
d="M178 46l137 185l-137 180h60l137 -178v-9l-134 -178h-63zM45 46l137 185l-137 180h60l137 -178v-9l-134 -178h-63z" />
    <glyph glyph-name="uniE12C" unicode="&#xe12c;" horiz-adv-x="1751" 
d="M1418 0l-68 161h-328l-67 -161h-339l-472 539h-3v-539h-56v668h16l475 -540h3v534h414v-52h-355v-234h330v-52h-330v-271h280l260 608h320q88 0 155.5 -54.5t67.5 -150.5q0 -77 -59 -138t-162 -73l114 -245h-60l-126 276v12q115 2 174.5 50t59.5 116q0 74 -47.5 115.5
t-124.5 41.5h-271l259 -611h-60zM1184 546l-141 -336h286l-141 336h-4z" />
    <glyph glyph-name="uniE16E" unicode="&#xe16e;" horiz-adv-x="1216" 
d="M1131 0h-56v539h-3l-476 -543h-16v543h-3l-476 -543h-16v666h56v-534h4l475 540h16v-540h4l475 540h16v-668zM952 862h47q-2 -56 -35.5 -95.5t-93.5 -39.5q-57 0 -90.5 39t-35.5 96h47q0 -40 21 -67.5t57 -27.5q77 0 83 95z" />
    <glyph glyph-name="uniE16F" unicode="&#xe16f;" horiz-adv-x="1161" 
d="M636 0h-56l1 541h-3l-479 -545h-14v666h56v-536h4l478 542h13v-292h383v286h57v-662h-57v324h-383v-324z" />
    <glyph glyph-name="uniE170" unicode="&#xe170;" horiz-adv-x="1161" 
d="M1076 0h-56l1 541h-3l-479 -545h-14v328h-383v-324h-57v662h57v-286h383v286h56v-536h4l478 542h13v-668z" />
    <glyph glyph-name="uniE171" unicode="&#xe171;" horiz-adv-x="1161" 
d="M1076 0h-56l1 541h-3l-479 -545h-14v614h-383v-610h-57v662h496v-536h4l478 542h13v-668z" />
    <glyph glyph-name="uniE172" unicode="&#xe172;" horiz-adv-x="727" 
d="M642 0h-56l1 541h-3l-481 -547h-13v756h-220v52h493v-52h-216v-624h4l478 542h13v-668z" />
    <glyph glyph-name="uniE173" unicode="&#xe173;" horiz-adv-x="1080" 
d="M995 0h-57v324h-382v-3q-1 -47 -1 -321h-58v130q-93 -139 -277 -139q-49 0 -103.5 12.5t-91.5 35.5v57q93 -53 189 -53q138 0 209.5 80.5t71.5 200.5h-361v52h358q-11 116 -81 180.5t-190 64.5q-96 0 -170 -36v57q57 31 175 31q184 0 271 -126v115h58v-286h383v286h57
v-662z" />
    <glyph glyph-name="uniE174" unicode="&#xe174;" horiz-adv-x="975" 
d="M497 0v130q-93 -139 -277 -139q-49 0 -103.5 12.5t-91.5 35.5v57q93 -53 189 -53q138 0 209.5 80.5t71.5 200.5h-361v52h358q-11 116 -81 180.5t-190 64.5q-96 0 -170 -36v57q57 31 175 31q184 0 271 -126v114h217q109 0 170 -62t61 -150q0 -101 -68 -158.5t-166 -57.5
h-155v-233h-59zM693 613h-137v-332h148q88 0 133 49t45 118q0 68 -47.5 116.5t-141.5 48.5z" />
    <glyph glyph-name="uniE175" unicode="&#xe175;" horiz-adv-x="927" 
d="M25 0l236 252q-91 12 -146.5 70.5t-55.5 133.5q0 96 67.5 150.5t155.5 54.5h384q109 0 170 -62t61 -150q0 -101 -68 -158.5t-166 -57.5h-155v-233h-59v611h-159q-77 0 -124.5 -41.5t-47.5 -115.5q0 -67 60.5 -115.5t176.5 -50.5v-12l-250 -276h-80zM645 613h-137v-332
h148q88 0 133 49t45 118q0 68 -47.5 116.5t-141.5 48.5z" />
    <glyph glyph-name="uniE176" unicode="&#xe176;" horiz-adv-x="1124" 
d="M577 0v341h-433v-288h382v-53h-441v662h414v-52h-355v-217h433v269h416v-51h-356v-218h204q110 0 171.5 -53.5t61.5 -144.5q0 -89 -62.5 -142t-153.5 -53h-281zM846 340h-209v-287h223q68 0 111.5 36t43.5 106q0 72 -48 108.5t-121 36.5z" />
    <glyph glyph-name="A.alt" unicode="&#xe188;" horiz-adv-x="610" 
d="M24 -25l-9 10l284 686h13l283 -671h-60l-62 146zM106 65l2 -3l346 130l-149 353h-4z" />
    <glyph glyph-name="P.alt" unicode="&#xe189;" horiz-adv-x="542" 
d="M85 0v662h195q106 0 169 -60t63 -161q0 -97 -60.5 -159.5t-167.5 -84.5l-140 -29v-168h-59zM454 440q0 79 -46.5 124.5t-128.5 45.5h-135v-388l135 28q175 37 175 190z" />
    <glyph glyph-name="R.alt" unicode="&#xe18a;" horiz-adv-x="552" 
d="M85 0v662h195q102 0 167 -56t65 -155q0 -145 -148 -208l146 -243h-66l-134 224l-26 -6l-140 -29v-189h-59zM454 450q0 71 -47 115.5t-128 44.5h-135v-369l135 29q81 17 128 62.5t47 117.5z" />
    <glyph glyph-name="K.alt" unicode="&#xe18b;" horiz-adv-x="579" 
d="M321 350v-3q26 -8 50.5 -31t38.5 -43.5t35 -57.5l124 -215h-63l-136 229q-35 59 -62.5 76.5t-71.5 8.5l-93 -19v-295h-58v662h58v-315l88 19q50 10 79.5 30.5t63.5 74.5l124 191h59l-122 -192q-65 -102 -114 -120z" />
    <glyph glyph-name="B.alt" unicode="&#xe18c;" horiz-adv-x="604" 
d="M492 193q0 67 -57 107.5t-156 21.5l-136 -26v-243h191q87 0 122.5 42t35.5 98zM143 610v-264l174 35q137 28 137 117q0 50 -33.5 81t-93.5 31h-184zM419 365v-4q66 -17 98 -66t32 -105q0 -85 -58 -137.5t-148 -52.5h-258v662h233q86 0 139.5 -40t53.5 -119q0 -42 -24 -80
t-68 -58z" />
    <glyph glyph-name="A_P.3" unicode="&#xe196;" horiz-adv-x="964" 
d="M487 0v161h-304l-132 -161h-71l548 662h175q109 0 170 -62.5t61 -150.5q0 -101 -68 -158.5t-166 -57.5h-155v-233h-58zM682 613h-137v-332h148q88 0 133 49t45 118q0 68 -47.5 116.5t-141.5 48.5zM483 526l-260 -316h264v316h-4z" />
    <glyph glyph-name="A_R.4" unicode="&#xe197;" horiz-adv-x="992" 
d="M734 252l236 -252h-80l-250 278v10q116 2 176.5 50.5t60.5 115.5q0 74 -47.5 115.5t-124.5 41.5h-159v-611h-59v161h-304l-132 -161h-71l548 662h185q88 0 155.5 -55t67.5 -151q0 -75 -55.5 -133.5t-146.5 -70.5zM483 526l-260 -316h264v316h-4z" />
    <glyph glyph-name="A_B" unicode="&#xe198;" horiz-adv-x="1005" 
d="M744 0h-258v161h-304l-132 -161h-70l548 662h191q86 0 139.5 -40t53.5 -119q0 -43 -23.5 -82.5t-66.5 -59.5v-4q66 -17 97 -64t31 -103q0 -85 -58 -137.5t-148 -52.5zM893 193q0 62 -46 99.5t-123 37.5h-180v-277h191q87 0 122.5 42t35.5 98zM544 610v-229h174q22 0 43 5
t43.5 17t36.5 36.5t14 58.5q0 50 -33.5 81t-93.5 31h-184zM482 529l-261 -319h265v319h-4z" />
    <glyph glyph-name="A_B.2" unicode="&#xe199;" horiz-adv-x="944" 
d="M537 0l-68 161h-328l-67 -161h-59l282 662h361q86 0 139.5 -40t53.5 -119q0 -43 -23.5 -82.5t-66.5 -59.5v-4q66 -17 97 -64t31 -103q0 -85 -58 -137.5t-148 -52.5h-146zM667 610h-328l96 -229h222q49 0 93 28t44 89q0 50 -33.5 81t-93.5 31zM663 330h-206l117 -277h100
q87 0 122.5 42t35.5 98q0 62 -46 99.5t-123 37.5zM303 546l-141 -336h286l-141 336h-4z" />
    <glyph glyph-name="A_D" unicode="&#xe19a;" horiz-adv-x="995" 
d="M15 0l282 662h319q146 0 235 -89.5t89 -238.5q0 -150 -85 -242t-229 -92h-89l-68 161h-328l-67 -161h-59zM617 610h-278l235 -557h48q127 0 193.5 76t66.5 203q0 121 -67.5 199.5t-197.5 78.5zM303 546l-141 -336h286l-141 336h-4z" />
    <glyph glyph-name="A_D.2" unicode="&#xe19b;" horiz-adv-x="1080" 
d="M716 0h-230v161h-304l-132 -161h-70l548 662h178q145 0 232 -89.5t87 -238.5q0 -150 -83 -242t-226 -92zM967 332q0 122 -65.5 200t-194.5 78h-164v-557h169q126 0 190.5 76t64.5 203zM482 526l-260 -316h264v316h-4z" />
    <glyph glyph-name="A_E.2" unicode="&#xe19c;" horiz-adv-x="848" 
d="M537 0l-68 161h-328l-67 -161h-59l282 662h494v-52h-452l99 -234h328v-52h-306l114 -271h244v-53h-281zM303 546l-141 -336h286l-141 336h-4z" />
    <glyph glyph-name="A_F" unicode="&#xe19d;" horiz-adv-x="916" 
d="M901 662v-52h-358v-255h328v-52h-328v-303h-57v161h-304l-132 -161h-70l548 662h373zM482 526l-260 -316h264v316h-4z" />
    <glyph glyph-name="A_H" unicode="&#xe19e;" horiz-adv-x="969" 
d="M537 0l-68 161h-328l-67 -161h-59l284 668h16l123 -292h389v286h57v-662h-57v324h-367l137 -324h-60zM303 545l-141 -335h286l-141 335h-4z" />
    <glyph glyph-name="A_K" unicode="&#xe1a0;" horiz-adv-x="1000" 
d="M563 669v-321l324 314h72l-323 -318l354 -344h-82l-345 339v-339h-58v161h-318l-134 -161h-73l565 669h18zM503 538l-275 -328h277v328h-2z" />
    <glyph glyph-name="A_M" unicode="&#xe1a1;" horiz-adv-x="1235" 
d="M560 0h-55v161h-330l-125 -161h-70l527 665h16l305 -435l306 435h16v-665h-54v517h-3l-256 -364h-20l-255 359l-2 -1v-511zM503 579l-290 -369h292v369h-2z" />
    <glyph glyph-name="A_N" unicode="&#xe1a2;" horiz-adv-x="1140" 
d="M560 0h-55v161h-330l-126 -161h-69l525 668h17l473 -542h4v536h56v-669h-17l-475 548h-3v-541zM503 586l-292 -376h294v376h-2z" />
    <glyph glyph-name="A_P.2" unicode="&#xe1a3;" horiz-adv-x="859" 
d="M595 233h-97l99 -233h-60l-68 161h-327l-67 -161h-60l282 662h301q109 0 170 -62.5t61 -150.5q0 -101 -68 -158.5t-166 -57.5zM577 613h-239l140 -332h110q88 0 133 49t45 118q0 68 -47.5 116.5t-141.5 48.5zM304 546l-141 -336h286l-141 336h-4z" />
    <glyph glyph-name="A_R" unicode="&#xe1a4;" horiz-adv-x="860" 
d="M537 0l-68 161h-328l-67 -161h-59l282 661h310q88 0 155.5 -54.5t67.5 -150.5q0 -77 -59 -138t-162 -73l114 -245h-60l-126 276v12q115 2 174.5 50t59.5 116q0 74 -47.5 115.5t-124.5 41.5h-261l259 -611h-60zM303 546l-141 -336h286l-141 336h-4z" />
    <glyph glyph-name="A_R.2" unicode="&#xe1a5;" horiz-adv-x="860" 
d="M537 0l-230 538h-4l-229 -538h-59l285 662h307q88 0 155.5 -55t67.5 -151q0 -77 -59 -138t-162 -73l112 -245h-60l-124 276v12q115 2 174.5 50t59.5 116q0 74 -47.5 116t-124.5 42h-264l262 -612h-60z" />
    <glyph glyph-name="A_R.3" unicode="&#xe1a6;" horiz-adv-x="860" 
d="M537 0l-230 538h-4l-229 -538h-59l285 662h307q88 0 155.5 -55t67.5 -151q0 -77 -59 -138t-162 -73l112 -245h-60l-124 276v12q115 2 174.5 50t59.5 116q0 74 -47.5 116t-124.5 42h-264l262 -612h-60zM348 193q0 -17 -11 -27.5t-27 -10.5q-17 0 -28 10.5t-11 27.5
q0 15 11.5 27t27.5 12t27 -11t11 -28z" />
    <glyph glyph-name="A_V" unicode="&#xe1a7;" horiz-adv-x="841" 
d="M545 -3l-70 164h-334l-67 -161h-59l282 665h20l237 -547h5l213 542h56l-263 -663h-20zM305 551l-143 -341h292l-145 341h-4z" />
    <glyph glyph-name="A_W" unicode="&#xe1a8;" horiz-adv-x="1155" 
d="M710 517h-4l-172 -520h-18l-63 164h-311l-68 -161h-59l284 665h20l203 -526h5l172 523h18l181 -525h5l185 523h57l-238 -663h-18zM303 543l-140 -333h271l-127 333h-4z" />
    <glyph glyph-name="A_W_A" unicode="&#xe1a9;" horiz-adv-x="1421" 
d="M903 137l203 528h20l282 -665h-59l-68 161h-311l-63 -167h-18l-179 523h-4l-172 -523h-18l-63 167h-311l-68 -161h-59l284 665h20l203 -526h5l172 523h18l181 -525h5zM303 543l-140 -333h271l-127 333h-4zM1260 210l-140 335h-4l-127 -335h271z" />
    <glyph glyph-name="uniE1AB" unicode="&#xe1ab;" horiz-adv-x="1094" 
d="M1009 0h-58v610h-388v-610h-58v161h-318l-134 -161h-73l565 662h464v-662zM503 536l-275 -326h277v326h-2z" />
    <glyph glyph-name="uniE1AC" unicode="&#xe1ac;" horiz-adv-x="981" 
d="M620 0h-605l296 668h15l128 -292h385v286h57v-662h-57v324h-363zM314 549l-219 -500h442l-219 500h-4z" />
    <glyph glyph-name="uniE1AD" unicode="&#xe1ad;" horiz-adv-x="1020" 
d="M707 669l298 -669h-920v662h414v-52h-355v-234h330v-52h-330v-271h277l274 616h12zM699 554l-220 -503h442l-221 503h-1z" />
    <glyph glyph-name="uniE1AE" unicode="&#xe1ae;" horiz-adv-x="1005" 
d="M586 0h-59v324h-384v-324h-58v662h58v-286h384v285h217q109 0 170 -62t61 -150q0 -101 -68 -158.5t-166 -57.5h-155v-233zM723 613h-137v-332h148q88 0 133 49t45 118q0 68 -47.5 116.5t-141.5 48.5z" />
    <glyph glyph-name="uniE1AF" unicode="&#xe1af;" horiz-adv-x="874" 
d="M143 610v-610h-58v662h366v139h416v-52h-358v-749h-58v610h-308z" />
    <glyph glyph-name="C_A" unicode="&#xe1ba;" horiz-adv-x="979" 
d="M903 0l-68 161h-327l-47 -112q62 11 125 47v-57q-37 -23 -91.5 -35.5t-103.5 -12.5q-158 0 -247 94.5t-89 241.5q0 149 98 247.5t242 98.5q108 0 165 -31v-57q-74 36 -160 36q-120 0 -202 -80t-82 -214q0 -129 74 -206.5t207 -77.5h2l267 624h14l283 -667h-60zM669 543
l-140 -333h285l-141 333h-4z" />
    <glyph glyph-name="C_K" unicode="&#xe1bb;" horiz-adv-x="992" 
d="M586 96v-57q-37 -23 -91.5 -35.5t-103.5 -12.5q-158 0 -247 94.5t-89 241.5q0 149 98 247.5t242 98.5q108 0 165 -31v-57q-74 36 -160 36q-120 0 -202 -80t-82 -214q0 -129 74 -206.5t207 -77.5q96 0 189 53zM555 339v9l324 314h72l-323 -318l354 -344h-82z" />
    <glyph glyph-name="D_E" unicode="&#xe1cb;" horiz-adv-x="1038" 
d="M1009 53v-53h-441v125q-85 -125 -252 -125h-231v662h221q175 0 262 -126v126h414v-52h-355v-234h330v-52h-330v-271h382zM567 332q0 122 -65.5 200t-194.5 78h-164v-557h169q126 0 190.5 76t64.5 203z" />
    <glyph glyph-name="D_H" unicode="&#xe1cc;" horiz-adv-x="1151" 
d="M1067 0h-57v324h-383v-324h-58v126q-85 -126 -253 -126h-231v662h221q176 0 263 -128v128h58v-286h383v286h57v-662zM567 332q0 122 -65.5 200t-194.5 78h-164v-557h169q126 0 190.5 76t64.5 203z" />
    <glyph glyph-name="D_L" unicode="&#xe1cd;" horiz-adv-x="995" 
d="M569 662h58v-609h359v-53h-417v126q-85 -126 -253 -126h-231v662h221q176 0 263 -128v128zM567 332q0 122 -65.5 200t-194.5 78h-164v-557h169q126 0 190.5 76t64.5 203z" />
    <glyph glyph-name="D_M" unicode="&#xe1ce;" horiz-adv-x="1301" 
d="M901 153h-16l-257 360l-2 -3v-510h-55v129q-83 -129 -255 -129h-231v662h221q178 0 265 -131v137h16l307 -432l306 432h16v-668h-55l1 519l-3 2zM567 332q0 122 -65.5 200t-194.5 78h-164v-557h169q126 0 190.5 76t64.5 203z" />
    <glyph glyph-name="D_N" unicode="&#xe1cf;" horiz-adv-x="1206" 
d="M316 0h-231v662h221q176 0 264 -129v138h16l475 -543h4v534h56v-669h-16l-476 546h-3v-539h-56v128q-83 -128 -254 -128zM567 332q0 122 -65.5 200t-194.5 78h-164v-557h169q126 0 190.5 76t64.5 203z" />
    <glyph glyph-name="D_O" unicode="&#xe1d1;" horiz-adv-x="1085" 
d="M316 0h-231v662h221q108 0 188 -53q88 63 199 63q145 0 241 -98.5t96 -242.5q0 -145 -95.5 -243t-241.5 -98q-118 0 -203 58q-74 -48 -174 -48zM567 332q0 122 -65.5 200t-194.5 78h-164v-557h169q126 0 190.5 76t64.5 203zM693 619q-88 0 -156 -46q88 -90 88 -239
q0 -156 -89 -248q68 -43 157 -43q124 0 201.5 83.5t77.5 204.5t-78.5 204.5t-200.5 83.5z" />
    <glyph glyph-name="D_P" unicode="&#xe1d2;" horiz-adv-x="1045" 
d="M568 0v125q-85 -125 -252 -125h-231v662h221q175 0 262 -126v125h217q109 0 170 -62t61 -150q0 -101 -68 -158.5t-166 -57.5h-155v-233h-59zM567 332q0 122 -65.5 200t-194.5 78h-164v-557h169q126 0 190.5 76t64.5 203zM764 613h-137v-332h148q88 0 133 49t45 118
q0 68 -47.5 116.5t-141.5 48.5z" />
    <glyph glyph-name="D_R" unicode="&#xe1d3;" horiz-adv-x="1070" 
d="M815 252l236 -252h-80l-250 276v12q116 2 176.5 50.5t60.5 115.5q0 74 -47.5 115.5t-124.5 41.5h-159v-611h-59v125q-85 -125 -252 -125h-231v662h221q175 0 262 -126v125h226q88 0 155.5 -54.5t67.5 -150.5q0 -75 -55.5 -133.5t-146.5 -70.5zM567 332q0 122 -65.5 200
t-194.5 78h-164v-557h169q126 0 190.5 76t64.5 203z" />
    <glyph glyph-name="D_U" unicode="&#xe1d4;" horiz-adv-x="1155" 
d="M1018 246v416h57v-422q0 -111 -67.5 -180.5t-185.5 -69.5q-92 0 -154 42t-86 117q-38 -71 -106 -110t-160 -39h-231v662h221q176 0 263 -128v128h57v-412q0 -90 49 -148t147 -58q97 0 146.5 55.5t49.5 146.5zM567 332q0 122 -65.5 200t-194.5 78h-164v-557h169
q126 0 190.5 76t64.5 203z" />
    <glyph glyph-name="E_A" unicode="&#xe1dc;" horiz-adv-x="1045" 
d="M970 0l-68 161h-327l-67 -161h-423v662h414v-52h-355v-234h330v-52h-330v-271h326l262 612h16l282 -665h-60zM736 545l-140 -335h285l-141 335h-4z" />
    <glyph glyph-name="E_D" unicode="&#xe1dd;" horiz-adv-x="1179" 
d="M815 0h-231v324h-440v-271h382v-53h-441v662h414v-52h-355v-234h440v286h221q145 0 232 -89.5t87 -238.5q0 -150 -83 -242t-226 -92zM1066 332q0 122 -65.5 200t-194.5 78h-164v-234h149v-52h-149v-271h169q126 0 190.5 76t64.5 203z" />
    <glyph glyph-name="E_H" unicode="&#xe1de;" horiz-adv-x="1192" 
d="M1107 0h-57v324h-383v-324h-58v324h-465v-271h382v-53h-441v662h414v-52h-355v-234h465v286h58v-286h383v286h57v-662z" />
    <glyph glyph-name="E_O" unicode="&#xe1df;" horiz-adv-x="1236" 
d="M844 -10q-156 0 -247 94t-93 240h-360v-271h382v-53h-441v662h414v-52h-355v-234h363q17 127 112.5 211.5t224.5 84.5q145 0 241 -98.5t96 -242.5q0 -145 -95.5 -243t-241.5 -98zM844 619q-110 0 -186 -68.5t-90 -174.5h223v-52h-226q2 -124 77.5 -202.5t201.5 -78.5
q124 0 201.5 83.5t77.5 204.5t-78.5 204.5t-200.5 83.5z" />
    <glyph glyph-name="E_T" unicode="&#xe1e0;" horiz-adv-x="966" 
d="M951 610h-216v-610h-59v610h-532v-234h330v-52h-330v-271h382v-53h-441v662h866v-52z" />
    <glyph glyph-name="E_Y" unicode="&#xe1e1;" horiz-adv-x="965" 
d="M704 351h4l186 311h61l-221 -367v-295h-58v295l-207 315h-325v-234h330v-52h-330v-271h382v-53h-441v662h415z" />
    <glyph glyph-name="uniE1E3" unicode="&#xe1e3;" horiz-adv-x="1244" 
d="M211 322v52h369v-52h-369zM395 -10q-158 0 -249 96t-91 245q0 143 99.5 242t240.5 99q134 0 229 -87q97 87 228 87q145 0 241 -98.5t96 -242.5q0 -145 -95.5 -243t-241.5 -98q-145 0 -234 80q-93 -80 -223 -80zM395 619q-122 0 -200.5 -83t-78.5 -205q0 -126 75.5 -207
t203.5 -81q124 0 201.5 83.5t77.5 204.5t-78.5 204.5t-200.5 83.5zM852 619q-114 0 -191 -74q71 -92 71 -214q0 -125 -73 -217q77 -71 193 -71q124 0 201.5 83.5t77.5 204.5t-78.5 204.5t-200.5 83.5z" />
    </font>
</defs>
</svg>
