<?xml version="1.0" standalone="no"?>
<!DOCTYPE svg PUBLIC "-//W3C//DTD SVG 1.1//EN" "http://www.w3.org/Graphics/SVG/1.1/DTD/svg11.dtd" >
<svg>
<metadata>
Created by FontForge 20120731 at Tue Dec 15 21:05:29 2015
 By ,,,
Copyright (c) 2013 Parachute, www.parachute.gr.  All rights reserved.
</metadata>
<defs>
<font id="PFBagueSansPro-BlackItalic" horiz-adv-x="403" >
  <font-face 
    font-family="PF Bague Sans Pro"
    font-weight="900"
    font-style="italic"
    font-stretch="normal"
    units-per-em="1000"
    panose-1="2 0 5 6 0 0 0 9 0 3"
    ascent="800"
    descent="-200"
    x-height="446"
    cap-height="659"
    bbox="-506 -329 1707 955"
    underline-thickness="80"
    underline-position="-40"
    slope="-12"
    unicode-range="U+0020-FB06"
  />
<missing-glyph horiz-adv-x="460" 
d="M484 0h-449v699h449v-699zM374 72l-115 206l-115 -206h230zM374 626h-231l116 -206zM411 543l-108 -194l108 -195v389zM106 154l110 195l-110 195v-390z" />
    <glyph glyph-name="fj" unicode="fj" horiz-adv-x="562" 
d="M213 -234l-55 130q82 4 117 43q36 39 46 121q2 16 7.5 61.5t8.5 66.5t8.5 66.5t7.5 61.5h-103l-48 -342h-169l48 342h-68l17 116l70 15q18 158 81 229q63 70 197 70q93 0 157 -26l-7 -141q-63 31 -136 31q-53 0 -79.5 -23.5t-34.5 -75.5l-10 -65h275l-51 -386
q-21 -150 -89.5 -220t-189.5 -74z" />
    <glyph glyph-name="ffj" unicode="ffj" horiz-adv-x="850" 
d="M636 317h-102l-49 -344h-169l48 343h-114l-60 -431h-168l60 431h-68q11 84 16 116l70 15q23 281 259 281q73 0 134 -26q67 44 169 44q91 0 155 -26l-7 -141q-63 31 -135 31q-37 0 -58.5 -9t-33.5 -33q-13 -22 -19 -48q-4 -19 -12 -73h274l-51 -395q-18 -146 -87.5 -213.5
t-191.5 -71.5l-55 130q81 5 117.5 43t46.5 123zM268 447h115q13 101 26 138q-23 9 -46 9q-38 0 -61 -25q-8 -11 -15 -31q-11 -33 -17 -78q0 -2 -0.5 -5t-1 -5t-0.5 -3z" />
    <glyph glyph-name="f_t" unicode="ft" horiz-adv-x="662" 
d="M462 713l-7 -136q-45 17 -81 17q-84 0 -97 -94l-8 -53h106l175 150h24l-21 -151h112l-18 -128h-112l-18 -127q-11 -68 43 -68q30 0 74 23l-19 -126q-55 -34 -132 -34q-165 0 -140 172l23 159h-115l-74 -531h-169l74 531h-68l16 116l70 14l9 60q30 223 235 223
q59 0 118 -17z" />
    <glyph glyph-name="ff" unicode="ff" horiz-adv-x="646" 
d="M30 432l70 15l8 58q15 107 82 165t171 58q84 0 148 -34q55 33 134 33q51 0 105 -14l-7 -138q-45 18 -82 18q-83 0 -97 -93l-8 -53h123l-18 -131h-123l-65 -467h-169l65 467h-117l-76 -530h-168l76 530h-68q11 84 16 116zM268 447h117l9 60l2 16q3 21 17 61q-26 8 -44 8
q-62 0 -81 -52q-8 -22 -20 -93z" />
    <glyph glyph-name="fi" unicode="fi" horiz-adv-x="562" 
d="M543 446l-62 -446h-173l45 317h-102l-71 -517h-169l71 517h-68l16 116l70 14l11 78q32 221 268 221q87 0 153 -26l-6 -140q-62 30 -134 30q-53 0 -79 -23t-34 -75l-10 -66h274z" />
    <glyph glyph-name="fl" unicode="fl" horiz-adv-x="577" 
d="M268 446h82l-8 -56q-5 -34 -10 -74h-82l-72 -515h-169l72 515h-68l17 116l70 15l10 74q36 221 259 221q124 0 226 -26l-100 -716h-171l84 601q-9 3 -24 3q-53 0 -76.5 -26t-32.5 -87z" />
    <glyph glyph-name="ffi" unicode="ffi" horiz-adv-x="851" 
d="M552 446h279l-59 -446h-173l41 316h-106l-62 -467h-170l62 467h-114l-73 -530h-169l74 530h-68q11 84 16 116l70 15q23 281 259 281q73 0 134 -26q67 44 171 44q89 0 152 -26q-7 -113 -8 -140q-62 30 -133 30q-50 0 -81 -25q-12 -11 -21 -34q-10 -29 -21 -105zM268 447
h115q13 101 26 138q-23 9 -46 9q-38 0 -61 -25q-8 -11 -15 -31q-11 -33 -17 -78q0 -2 -0.5 -5t-1 -5t-0.5 -3z" />
    <glyph glyph-name="ffl" unicode="ffl" horiz-adv-x="861" 
d="M551 446h81l-8 -56q-5 -34 -10 -74h-81l-65 -467h-169l64 467h-113l-75 -530h-169l75 530h-68l17 116l70 15l7 52q15 111 80.5 170t171.5 59q71 0 134 -27q65 41 161 41q102 0 225 -32l-100 -710h-172l84 601q-7 3 -24 3q-97 0 -110 -111zM268 447h113l5 34l5 39
q6 41 17 66q-24 8 -42 8q-77 0 -91 -98z" />
    <glyph glyph-name="longs_t" unicode="&#x17f;t" horiz-adv-x="666" 
d="M277 500l-99 -714h-168l72 530h-68q11 84 16 116l70 15l6 47q30 236 233 236q67 0 134 -24l-7 -137q-51 25 -92 25q-84 0 -97 -94zM320 413l235 184h24l-21 -151h112l-19 -128h-112l-18 -128q-2 -18 -2 -19q0 -48 46 -48q29 0 73 23l-18 -126q-56 -33 -132 -33
q-143 0 -143 134q0 29 8 96l9 53l8 48h-64z" />
    <glyph glyph-name=".notdef" horiz-adv-x="460" 
d="M484 0h-449v699h449v-699zM374 72l-115 206l-115 -206h230zM374 626h-231l116 -206zM411 543l-108 -194l108 -195v389zM106 154l110 195l-110 195v-390z" />
    <glyph glyph-name=".null" horiz-adv-x="0" 
 />
    <glyph glyph-name="nonmarkingreturn" horiz-adv-x="333" 
 />
    <glyph glyph-name="space" unicode=" " horiz-adv-x="234" 
 />
    <glyph glyph-name="exclam" unicode="!" horiz-adv-x="330" 
d="M313 694l-84 -488h-141l52 488h173zM153 159q30 0 50 -21.5t20 -53.5q0 -37 -29 -66t-65 -29q-32 0 -53 21t-21 51q0 39 30 68q32 30 68 30z" />
    <glyph glyph-name="quotedbl" unicode="&#x22;" horiz-adv-x="379" 
d="M229 684l-36 -251h-120l36 251h120zM393 684l-36 -251h-120l36 251h120z" />
    <glyph glyph-name="numbersign" unicode="#" horiz-adv-x="572" 
d="M378 460l60 167h93l-59 -167h86l-11 -81h-103q-6 -19 -35 -96h91q-9 -67 -13 -83h-106l-71 -200h-95l71 200h-85l-69 -200h-96l71 200h-74l13 83h91l17 48l17 48h-82l12 81h99l60 167h93l-59 -167h84zM350 379h-85l-33 -96h85l16 48t17 48z" />
    <glyph glyph-name="dollar" unicode="$" horiz-adv-x="572" 
d="M288 -111h-92l15 110q-105 9 -172 52l21 154q35 -30 100 -54q69 -23 111 -23q39 0 61 18.5t22 48.5q0 41 -88 86q-33 16 -56 30.5t-50 37.5t-41.5 53t-13.5 65q0 75 51.5 126.5t147.5 65.5l17 117h92l-17 -116q80 -9 143 -39l-20 -139q-82 56 -175 56q-35 0 -57 -16
t-22 -45q0 -33 92 -84q33 -17 59 -34t53.5 -42t42.5 -57t15 -69q0 -75 -57 -131q-55 -55 -166 -60z" />
    <glyph glyph-name="percent" unicode="%" horiz-adv-x="817" 
d="M221 353q-71 0 -111.5 38t-40.5 101q0 79 56 138q57 58 142 58q70 0 111 -39.5t41 -102.5q0 -78 -57 -136q-57 -57 -141 -57zM253 583q-26 0 -44.5 -23t-18.5 -53q0 -24 12 -37.5t33 -13.5q27 0 46.5 21.5t19.5 53.5q0 23 -13 37.5t-35 14.5zM567 -12q-71 0 -110.5 37
t-39.5 100q0 79 56 138q55 58 142 58q70 0 110.5 -39.5t40.5 -101.5q0 -78 -58 -135q-57 -57 -141 -57zM601 216q-27 0 -45.5 -23t-18.5 -53q0 -50 46 -50q27 0 46 21.5t19 52.5q0 23 -12.5 37.5t-34.5 14.5zM637 685h101l-550 -715h-101z" />
    <glyph glyph-name="ampersand" unicode="&#x26;" horiz-adv-x="710" 
d="M416 672q94 0 162 -43l-18 -127q-68 39 -141 39q-42 0 -67 -25.5t-25 -66.5q0 -101 125 -243q69 82 115 204q1 0 48 -46l47 -46q-51 -116 -125 -198q74 -64 140 -100l-125 -92q-70 45 -132 96q-90 -54 -188 -54q-96 0 -149 42.5t-53 117.5q0 34 12 71q13 42 50.5 85
t90.5 69q-14 45 -14 87q0 107 70 168q71 62 177 62zM272 94q30 0 58 16q-60 63 -96 130q-46 -31 -46 -77q0 -31 22.5 -50t61.5 -19z" />
    <glyph glyph-name="quotesingle" unicode="'" horiz-adv-x="222" 
d="M232 684l-35 -251h-121l36 251h120z" />
    <glyph glyph-name="parenleft" unicode="(" horiz-adv-x="317" 
d="M285 735l94 -33q-186 -244 -186 -500q0 -177 76 -308l-108 -36q-109 146 -109 351q0 133 61 274q62 143 172 252z" />
    <glyph glyph-name="parenright" unicode=")" horiz-adv-x="317" 
d="M75 702l104 33q110 -152 110 -355q0 -131 -61 -272q-61 -142 -172 -250q-38 18 -94 42q186 232 186 494q0 163 -73 308z" />
    <glyph glyph-name="asterisk" unicode="*" horiz-adv-x="447" 
d="M327 513l87 -35l-64 -91l-65 65q-1 -11 -1 -51v-51h-100l27 101l-84 -65l-38 92l99 33q-21 9 -42 16q-32 12 -47 19l63 93l66 -67q0 79 1 102h100q-16 -62 -28 -101l84 64l38 -91z" />
    <glyph glyph-name="plus" unicode="+" horiz-adv-x="572" 
d="M490 240h-157l-23 -165h-99l23 165h-157q4 22 14 99h157l23 163h99l-23 -163h156z" />
    <glyph glyph-name="comma" unicode="," horiz-adv-x="265" 
d="M17 71q5 37 34 62t64 25q38 0 57.5 -25.5t14.5 -64.5q-7 -52 -54 -120q-48 -72 -97 -121l-61 9l76 161q-42 20 -34 74z" />
    <glyph glyph-name="hyphen" unicode="-" horiz-adv-x="362" 
d="M306 193h-265l15 108h265z" />
    <glyph glyph-name="period" unicode="." horiz-adv-x="275" 
d="M122 160q30 0 50 -21t20 -53q0 -37 -29 -68q-29 -29 -65 -29q-31 0 -52.5 21t-21.5 52q0 40 30 68q32 30 68 30z" />
    <glyph glyph-name="slash" unicode="/" horiz-adv-x="356" 
d="M429 680l-366 -772h-119l363 772h122z" />
    <glyph glyph-name="zero" unicode="0" horiz-adv-x="572" 
d="M344 672q118 0 171 -72q54 -72 54 -186q0 -147 -72 -279q-37 -67 -102 -107t-147 -40q-114 0 -169 66.5t-55 185.5q0 57 10 114.5t34 115.5t59.5 102t91.5 72t125 28zM325 531q-36 0 -63 -30.5t-40 -81.5q-25 -94 -25 -174q0 -115 72 -115q44 0 74 50q54 88 54 236
q0 115 -72 115z" />
    <glyph glyph-name="one" unicode="1" horiz-adv-x="572" 
d="M451 671h19l-93 -671h-178l61 440l-160 -69l23 158z" />
    <glyph glyph-name="two" unicode="2" horiz-adv-x="556" 
d="M297 674q100 0 152.5 -46.5t52.5 -124.5q0 -73 -60 -175t-168 -198h204l-18 -130h-498l2 19q358 255 358 431q0 78 -81 78q-74 0 -182 -60l20 139q95 67 218 67z" />
    <glyph glyph-name="three" unicode="3" horiz-adv-x="572" 
d="M175 328l-12 17l156 183l-1 2v2h-233l21 127h470l-3 -21l-195 -230q61 -15 95 -57.5t34 -101.5q0 -111 -85 -184q-85 -74 -213 -74q-119 0 -202 48q4 36 10 74q5 35 10 75q62 -63 169 -63q67 0 108 34.5t41 89.5q0 41 -31 63.5t-81 22.5q-26 0 -58 -7z" />
    <glyph glyph-name="four" unicode="4" horiz-adv-x="572" 
d="M404 437h116l-23 -174h57q-1 -4 -18 -127h-58l-18 -136h-169q14 105 19 136h-328l2 17l321 506h182l-267 -396h107l10 69q4 9 67 105z" />
    <glyph glyph-name="five" unicode="5" horiz-adv-x="572" 
d="M313 437q87 0 146 -47t59 -133q0 -113 -86 -190q-85 -76 -214 -76q-118 0 -202 48l21 150q27 -29 73.5 -46.5t95.5 -17.5q68 0 108.5 35t40.5 90q0 41 -31 62t-84 21q-76 0 -146 -30l-17 12l92 345h375l-9 -65q-7 -49 -8 -62h-255q-13 -44 -29 -105q30 9 70 9z" />
    <glyph glyph-name="six" unicode="6" horiz-adv-x="572" 
d="M134 433l169 226h185l-186 -240l2 -4q19 9 46 9q90 0 140 -47t50 -126q0 -116 -82 -189t-207 -73q-105 0 -166.5 50.5t-61.5 139.5q0 61 26 117t85 137zM297 309q-42 0 -74 -32q-30 -31 -30 -73q0 -34 21 -54.5t57 -20.5q44 0 73 29.5t29 75.5q0 33 -20.5 54t-55.5 21z
" />
    <glyph glyph-name="seven" unicode="7" horiz-adv-x="572" 
d="M583 640l-367 -640h-176l304 531h-259l22 128h479z" />
    <glyph glyph-name="eight" unicode="8" horiz-adv-x="572" 
d="M330 536q-34 0 -59 -24.5t-25 -59.5q0 -26 17.5 -42.5t47.5 -16.5q35 0 59 24t24 59q0 27 -17 43.5t-47 16.5zM296 302q-42 0 -71.5 -30t-29.5 -72q0 -32 21 -52.5t56 -20.5q44 0 72.5 30t28.5 73q0 33 -20.5 52.5t-56.5 19.5zM349 672q92 0 147 -45t55 -118
q0 -46 -23 -89t-64 -66l-2 -5q74 -41 74 -127q0 -102 -80 -167t-203 -65q-110 0 -171 46t-61 126q0 57 31 107.5t84 76.5l2 4q-52 34 -52 104q0 95 77 157q77 61 186 61z" />
    <glyph glyph-name="nine" unicode="9" horiz-adv-x="572" 
d="M342 672q103 0 165 -50t62 -139q0 -62 -26 -119t-83 -133l-172 -231h-185l188 243l-2 5q-19 -10 -47 -10q-89 0 -139 47.5t-50 126.5q0 114 82 187t207 73zM322 533q-43 0 -72.5 -30t-29.5 -75q0 -33 21 -54t56 -21q42 0 72 31t30 74q0 34 -20.5 54.5t-56.5 20.5z" />
    <glyph glyph-name="colon" unicode=":" horiz-adv-x="282" 
d="M124 158q30 0 49.5 -20.5t19.5 -52.5q0 -39 -28 -67q-27 -29 -64 -29q-30 0 -51 21.5t-21 51.5q0 38 29 67t66 29zM162 425q30 0 50 -21t20 -52q0 -37 -29 -66t-65 -29q-30 0 -50.5 21t-20.5 51q0 38 29 67t66 29z" />
    <glyph glyph-name="semicolon" unicode=";" horiz-adv-x="285" 
d="M165 425q30 0 49.5 -21t19.5 -52q0 -37 -29 -66t-64 -29q-31 0 -51.5 21t-20.5 51q0 38 29 67t67 29zM27 71q5 37 34 62t64 25q38 0 57.5 -25.5t14.5 -64.5q-7 -52 -54 -120q-48 -72 -97 -121l-61 9l76 161q-42 20 -34 74z" />
    <glyph glyph-name="less" unicode="&#x3c;" horiz-adv-x="572" 
d="M270 285l208 -130l-17 -126l-379 246l3 19l448 248l-18 -128z" />
    <glyph glyph-name="equal" unicode="=" horiz-adv-x="572" 
d="M511 428l-13 -97h-405l14 97h404zM490 251l-14 -96h-405l14 96h405z" />
    <glyph glyph-name="greater" unicode="&#x3e;" horiz-adv-x="572" 
d="M495 275l-447 -246l17 126l243 134l-206 125l18 128l378 -248z" />
    <glyph glyph-name="question" unicode="?" horiz-adv-x="522" 
d="M302 692q103 0 158 -44t55 -116q0 -83 -84 -154q-15 -12 -40.5 -32.5t-42 -34t-34 -30.5t-26.5 -31.5t-9 -27.5q0 -10 4 -17q-92 -17 -136 -23q-9 28 -9 50q0 41 29 79.5t64 64t64 57.5t29 61q0 50 -79 50q-80 0 -163 -46l21 153q100 41 199 41zM222 152q32 0 51 -20
t19 -51q0 -37 -29 -66q-28 -28 -66 -28q-35 0 -53.5 18t-18.5 49q0 41 28 69.5t69 28.5z" />
    <glyph glyph-name="at" unicode="@" horiz-adv-x="921" 
d="M590 481h84l-31 -217q-1 -4 -1 -16q0 -39 37 -39q33 0 59 47t26 112q0 98 -62.5 152.5t-176.5 54.5q-158 0 -255 -97q-98 -98 -98 -245q0 -110 64.5 -171t184.5 -61q99 0 190 39l-14 -102q-90 -41 -191 -41q-167 0 -256 88q-89 89 -89 234q0 127 63 233q65 107 173 166
q110 60 241 60q155 0 246 -79q92 -80 92 -214q0 -119 -62 -202t-173 -83q-102 0 -122 83q-23 -35 -61 -54.5t-79 -19.5q-67 0 -101 40t-34 110q0 101 58 166q58 67 151 67q80 0 116 -57zM461 381q-35 0 -56 -28.5t-21 -68.5q0 -62 55 -62q33 0 56 27.5t23 69.5q0 28 -15 45
t-42 17z" />
    <glyph glyph-name="A" unicode="A" horiz-adv-x="670" 
d="M630 0h-189l-22 84h-222l-44 -84h-183l416 675h23zM350 354h-4l-88 -154h137z" />
    <glyph glyph-name="B" unicode="B" horiz-adv-x="639" 
d="M345 277h-99q-3 -14 -10 -66l-9 -64h102q41 0 62 22t21 53q0 25 -17.5 40t-49.5 15zM354 516h-75l-17 -116h77q28 0 50.5 18t22.5 51q0 47 -58 47zM506 361v-4q42 -21 64 -58.5t22 -83.5q0 -90 -67 -153q-67 -62 -165 -62h-339l92 659h309q81 0 127 -40.5t46 -107.5
q0 -91 -89 -150z" />
    <glyph glyph-name="C" unicode="C" horiz-adv-x="610" 
d="M564 183l-22 -163q-84 -34 -190 -34q-148 0 -228 78q-78 80 -78 209q0 170 113 285q112 115 295 115q96 0 160 -27l-22 -159q-60 29 -132 29q-89 0 -156 -59q-66 -58 -66 -167q0 -71 42.5 -109t116.5 -38q80 0 167 40z" />
    <glyph glyph-name="D" unicode="D" horiz-adv-x="686" 
d="M284 0h-263l93 659h239q153 0 230 -78q77 -79 77 -205q0 -155 -102 -266q-102 -110 -274 -110zM342 512h-59l-51 -364h62q82 0 131 62.5t49 165.5q0 65 -34 100.5t-98 35.5z" />
    <glyph glyph-name="E" unicode="E" horiz-adv-x="560" 
d="M232 148h281q-6 -46 -10 -74t-10 -74h-472l92 659h450l-21 -147h-258q-4 -20 -9 -57l-6 -44h228l-20 -141h-228q-10 -78 -17 -122z" />
    <glyph glyph-name="F" unicode="F" horiz-adv-x="530" 
d="M245 246l-33 -246h-191l92 659h459l-21 -147h-268l-17 -125h227q-5 -40 -10 -71q-4 -24 -10 -70h-228z" />
    <glyph glyph-name="G" unicode="G" horiz-adv-x="668" 
d="M458 674q111 0 184 -37l-22 -165q-67 43 -166 43q-94 0 -155 -64t-61 -171q0 -65 35.5 -102t105.5 -37q29 0 59 8l28 199h166l-46 -323q-105 -38 -240 -38q-145 0 -223.5 75.5t-78.5 206.5q0 169 113 287q112 118 301 118z" />
    <glyph glyph-name="H" unicode="H" horiz-adv-x="688" 
d="M688 659l-92 -659h-191l37 266h-194l-36 -266h-191l92 659h191l-34 -244h193l34 244h191z" />
    <glyph glyph-name="I" unicode="I" horiz-adv-x="311" 
d="M307 659l-92 -659h-191l92 659h191z" />
    <glyph glyph-name="J" unicode="J" horiz-adv-x="510" 
d="M128 147q60 0 92.5 33t42.5 103l53 376h193q-2 -19 -51 -364q-18 -134 -80 -214q-70 -94 -231 -94q-98 0 -162 37q10 76 20 163q62 -40 123 -40z" />
    <glyph glyph-name="K" unicode="K" horiz-adv-x="659" 
d="M114 660h191l-42 -299l227 299h210l-265 -322l183 -338h-207l-154 320l-44 -320h-191z" />
    <glyph glyph-name="L" unicode="L" horiz-adv-x="526" 
d="M22 0l92 659h191l-72 -511h269q-6 -46 -10 -74t-10 -74h-460z" />
    <glyph glyph-name="M" unicode="M" horiz-adv-x="793" 
d="M551 268l-161 -147h-23l-121 161h-4q-11 -83 -19 -141t-19 -141h-184l95 674h22l270 -340l367 340h21l-94 -674h-185l39 267q-1 0 -2 0.5t-2 0.5z" />
    <glyph glyph-name="N" unicode="N" horiz-adv-x="701" 
d="M256 326l-45 -326h-190l95 676h22l324 -329h4l45 312h190l-94 -675h-20l-328 342h-3z" />
    <glyph glyph-name="O" unicode="O" horiz-adv-x="778" 
d="M447 673q141 0 223 -84q83 -83 83 -213q0 -164 -117 -277q-115 -112 -284 -112q-140 0 -222 82t-82 212q0 163 113 278q114 114 286 114zM375 143q80 0 134 64t54 158q0 67 -35.5 108t-99.5 41q-80 0 -136 -65q-54 -65 -54 -154q0 -68 37.5 -110t99.5 -42z" />
    <glyph glyph-name="P" unicode="P" horiz-adv-x="587" 
d="M212 0h-191l92 659h265q109 0 164.5 -54t55.5 -145q0 -103 -76 -175q-75 -72 -196 -72h-85zM332 517h-49l-24 -166h51q48 0 74.5 28t26.5 68q0 32 -20 51t-59 19z" />
    <glyph glyph-name="Q" unicode="Q" horiz-adv-x="784" 
d="M451 673q142 0 224 -82t82 -210q0 -114 -61 -208t-161 -142l165 -49l-79 -149l-360 167q-99 24 -155 98.5t-56 179.5q0 162 116 278q116 117 285 117zM431 513q-79 0 -135 -65q-54 -64 -54 -153q0 -68 37 -110t99 -42q79 0 133 64q55 64 55 157q0 67 -35.5 108t-99.5 41z
" />
    <glyph glyph-name="R" unicode="R" horiz-adv-x="635" 
d="M113 659h273q102 0 164 -49q64 -48 64 -133q0 -139 -141 -219l124 -258h-204l-106 285l3 16q66 13 99 54t33 80q0 36 -21 56.5t-60 20.5h-58l-72 -512h-190z" />
    <glyph glyph-name="S" unicode="S" horiz-adv-x="550" 
d="M0 40l23 167q35 -31 96 -54q61 -21 108 -21q40 0 66.5 17.5t26.5 45.5q0 45 -90 87q-34 17 -57 30.5t-51 36.5t-42.5 52.5t-13.5 64.5q0 90 71 150q72 60 195 60q108 0 200 -43q-8 -48 -22 -154q-28 20 -80 37q-51 17 -88 17t-60.5 -14t-23.5 -40q0 -28 90 -72
q168 -69 167 -195q0 -81 -64 -151q-72 -75 -221 -75q-143 0 -230 54z" />
    <glyph glyph-name="T" unicode="T" horiz-adv-x="562" 
d="M608 660l-21 -148h-175l-72 -512h-190l71 512h-173l20 148h540z" />
    <glyph glyph-name="U" unicode="U" horiz-adv-x="694" 
d="M467 260l56 399h190q-1 -17 -54 -385q-18 -133 -103 -209.5t-227 -76.5q-135 0 -202 76q-68 77 -48 211l53 384h192l-55 -393q-7 -45 10 -83q18 -36 73 -36q47 0 77.5 32.5t37.5 80.5z" />
    <glyph glyph-name="V" unicode="V" horiz-adv-x="659" 
d="M712 659l-404 -676h-25l-223 676h204l79 -290h4l163 290h202z" />
    <glyph glyph-name="W" unicode="W" horiz-adv-x="971" 
d="M344 359l187 311h21l107 -311h4l160 300h198l-384 -676h-21l-118 366l-221 -366h-23l-192 676h199l79 -300h4z" />
    <glyph glyph-name="X" unicode="X" horiz-adv-x="685" 
d="M69 659h206l83 -274l161 274h207l-202 -318l120 -341h-207l-91 297l-172 -297h-207l213 341z" />
    <glyph glyph-name="Y" unicode="Y" horiz-adv-x="629" 
d="M267 659l69 -252h4q26 53 135 252h206l-272 -415l-34 -244h-191l35 244l-156 415h204z" />
    <glyph glyph-name="Z" unicode="Z" horiz-adv-x="599" 
d="M113 659h526l-3 -17l-350 -495h266l-21 -147h-549l3 18l350 494h-243z" />
    <glyph glyph-name="bracketleft" unicode="[" horiz-adv-x="297" 
d="M210 -133h-210l121 857h210l-15 -105h-66l-92 -653h66q-10 -77 -14 -99z" />
    <glyph glyph-name="backslash" unicode="\" horiz-adv-x="356" 
d="M173 680l147 -772h-121l-148 772h122z" />
    <glyph glyph-name="bracketright" unicode="]" horiz-adv-x="297" 
d="M105 724h209l-121 -857h-208l14 99h65l91 653h-65z" />
    <glyph glyph-name="asciicircum" unicode="^" horiz-adv-x="506" 
d="M315 645l173 -341h-125l-82 175l-130 -175h-126l267 341h23z" />
    <glyph glyph-name="underscore" unicode="_" horiz-adv-x="475" 
d="M418 -150h-472l12 87h472z" />
    <glyph glyph-name="grave" unicode="`" horiz-adv-x="513" 
d="M269 701l111 -192h-91l-128 139z" />
    <glyph glyph-name="a" unicode="a" horiz-adv-x="580" 
d="M285 323q-43 0 -68.5 -35.5t-25.5 -85.5q0 -75 67 -75q41 0 69 34t28 85q0 35 -18.5 56t-51.5 21zM368 0l-7 49h-5q-67 -59 -161 -59q-86 0 -132 48.5t-46 133.5q0 123 71 206q70 82 187 82q93 0 143 -65l27 51h113l-63 -446h-127z" />
    <glyph glyph-name="b" unicode="b" horiz-adv-x="575" 
d="M9 0l99 711h165l-41 -292l4 -2q49 43 122 43q89 0 139 -51.5t50 -137.5q0 -121 -72 -200q-71 -80 -187 -80q-93 0 -135 57h-5q-3 -9 -20 -48h-119zM283 127q42 0 70 32t28 83q0 36 -17.5 58.5t-50.5 22.5q-46 0 -73 -36q-26 -37 -26 -82q0 -36 18 -56.5t51 -21.5z" />
    <glyph glyph-name="c" unicode="c" horiz-adv-x="431" 
d="M301 461q67 0 114 -21l-1 -7q-1 -7 -3 -24t-4 -37q-7 -65 -9 -70q-37 22 -88 22q-53 0 -85.5 -32.5t-32.5 -89.5q0 -37 23 -58t64 -21q52 0 109 30l-19 -134q-58 -31 -151 -31q-96 0 -148 55q-53 56 -53 141q0 130 81 203q83 74 203 74z" />
    <glyph glyph-name="d" unicode="d" horiz-adv-x="578" 
d="M364 0l-9 42h-4q-59 -51 -152 -51q-88 0 -135.5 51t-47.5 137q0 127 75 204t181 77q69 0 109 -38l7 4l40 285h165l-98 -711h-131zM257 127q42 0 70 34t28 85q0 35 -19 56.5t-52 21.5q-42 0 -69 -34.5t-27 -85.5q0 -36 18 -56.5t51 -20.5z" />
    <glyph glyph-name="e" unicode="e" horiz-adv-x="497" 
d="M289 462q81 0 130.5 -37.5t49.5 -98.5q0 -42 -22.5 -74.5t-59 -49.5t-76.5 -25.5t-82 -8.5q-6 0 -36 2v-6q0 -56 85 -56q38 0 83 14.5t78 37.5q-3 -18 -16 -124q-76 -46 -194 -46q-109 0 -160 55t-51 140q0 113 73 195t198 82zM273 340q-31 0 -51.5 -23t-26.5 -64
q14 -2 22 -2q40 0 68 14t28 39q0 16 -10.5 26t-29.5 10z" />
    <glyph glyph-name="f" unicode="f" horiz-adv-x="368" 
d="M462 711l-5 -136q-51 17 -87 17q-78 0 -93 -92l-8 -53h122l-18 -130h-122l-72 -531h-169l72 531h-68l16 115l70 15l9 60q31 223 229 223q55 0 124 -19z" />
    <glyph glyph-name="g" unicode="g" horiz-adv-x="515" 
d="M161 -229q-97 0 -145.5 33.5t-48.5 85.5q0 36 22.5 71t61.5 57l-13 2q-50 8 -50 49q0 19 34 51q8 7 20.5 18l25 22t14.5 13q-29 29 -29 82q0 89 66 148q67 59 161 59q42 0 87 -16h161q-3 -16 -10 -75l-61 -12q12 -24 12 -52q0 -73 -59 -129q-58 -54 -159 -54
q-47 0 -86 13l-31 -35l165 -20q73 -9 110 -34.5t37 -72.5q0 -20 -8 -44t-28.5 -53t-51 -52.5t-82 -39t-115.5 -15.5zM257 230q28 0 47.5 21.5t19.5 53.5q0 22 -13.5 36t-35.5 14q-29 0 -47.5 -22.5t-18.5 -53.5q0 -49 48 -49zM240 -10q-5 0 -12 1.5t-18.5 3t-19.5 2.5l-49 7
q-27 -30 -27 -64q0 -22 18 -35t49 -13q39 0 66.5 21t27.5 49q0 23 -35 28z" />
    <glyph glyph-name="h" unicode="h" horiz-adv-x="552" 
d="M512 298l-42 -298h-171l34 239q2 18 2 32q0 51 -42 51q-50 0 -70 -68q-14 -47 -27 -138q0 -3 -0.5 -9t-1.5 -8l-14 -99h-170l99 711h165l-44 -314l1 -1h2q62 65 144 65q67 0 102 -33.5t35 -95.5q0 -2 -2 -34z" />
    <glyph glyph-name="i" unicode="i" horiz-adv-x="275" 
d="M250 446l-62 -446h-172l62 446h172zM201 695q35 0 57 -22.5t22 -56.5q0 -43 -31 -75q-32 -32 -73 -32q-36 0 -57 22t-21 57q0 44 32 76q32 31 71 31z" />
    <glyph glyph-name="j" unicode="j" horiz-adv-x="271" 
d="M198 694q35 0 57 -22t22 -56q0 -43 -31 -75q-32 -32 -73 -32q-36 0 -57 22t-21 56q0 46 32 76q32 31 71 31zM-89 -233l-48 143q85 4 117 36t44 119l54 381h170l-55 -395q-21 -149 -93 -213q-71 -63 -189 -71z" />
    <glyph glyph-name="k" unicode="k" horiz-adv-x="543" 
d="M371 446h186l-179 -214l125 -232h-183l-103 213l-30 -213h-177l99 711h177l-64 -463z" />
    <glyph glyph-name="l" unicode="l" horiz-adv-x="267" 
d="M284 711l-99 -711h-173l99 711h173z" />
    <glyph glyph-name="m" unicode="m" horiz-adv-x="820" 
d="M213 446l9 -56h2q1 -1 3 -1q63 72 147 72q96 0 121 -85q60 85 153 85q64 0 98.5 -33.5t34.5 -95.5q0 -24 -3 -41l-41 -291h-172l35 244q0 2 1 12l1 10q0 56 -38 56q-31 0 -49 -28t-27 -97l-14 -99l-14 -98h-171q29 203 35 251q0 1 0.5 6t0.5 6q0 30 -8.5 44.5t-30.5 14.5
q-34 0 -51 -30t-26 -93l-26 -199h-171l62 446h139z" />
    <glyph glyph-name="n" unicode="n" horiz-adv-x="556" 
d="M214 446l10 -61l3 1q65 74 157 74q65 0 98.5 -32.5t33.5 -93.5q0 -15 -6 -66l-37 -268h-172l35 249q4 32 -6 52.5t-34 20.5q-68 0 -82 -103l-31 -219h-171l62 446h140z" />
    <glyph glyph-name="o" unicode="o" horiz-adv-x="550" 
d="M304 461q104 0 161.5 -53.5t57.5 -144.5q0 -119 -79 -197q-80 -77 -204 -77q-104 0 -163 53.5t-59 144.5q0 117 80 195q79 79 206 79zM288 322q-43 0 -69.5 -34.5t-26.5 -84.5q0 -36 17.5 -56t50.5 -20q42 0 70 34t28 84q0 36 -18.5 56.5t-51.5 20.5z" />
    <glyph glyph-name="p" unicode="p" horiz-adv-x="582" 
d="M212 446l7 -52h5q54 65 151 65q87 0 133 -52.5t46 -139.5q0 -129 -73 -203q-72 -74 -178 -74q-79 0 -116 42l-36 -249h-173l92 663h142zM316 320q-42 0 -70 -34t-28 -85q0 -36 18.5 -57t52.5 -21q42 0 69 34t27 85q0 37 -18 57.5t-51 20.5z" />
    <glyph glyph-name="q" unicode="q" horiz-adv-x="581" 
d="M562 447l-93 -664h-168l36 253l-3 2q-49 -49 -129 -49q-89 0 -138.5 51.5t-49.5 137.5q0 120 72 200q74 81 188 81q91 0 138 -61h4l20 49h123zM282 320q-42 0 -69.5 -33t-27.5 -84q0 -36 17 -57.5t50 -21.5q45 0 72 36q28 35 28 81q0 36 -18.5 57t-51.5 22z" />
    <glyph glyph-name="r" unicode="r" horiz-adv-x="402" 
d="M199 446l6 -85l4 -1q41 99 140 99q35 0 71 -14q0 -1 -1.5 -12.5t-4 -29.5t-5.5 -39l-10 -80q-38 22 -78 22q-43 0 -75 -34t-40 -95l-23 -177h-171l62 446h125z" />
    <glyph glyph-name="s" unicode="s" 
d="M-11 28l9 64q3 33 8 65q27 -25 68.5 -40.5t76.5 -15.5q52 0 52 33q0 12 -17 24t-41.5 25.5t-49.5 29.5t-42 42.5t-17 59.5q0 64 51.5 104.5t139.5 40.5q81 0 153 -32l-16 -119q-55 35 -110 35q-48 0 -48 -30q0 -18 80 -58q33 -17 56.5 -49t23.5 -71q0 -63 -54 -105
t-154 -42q-102 0 -169 39z" />
    <glyph glyph-name="t" unicode="t" horiz-adv-x="383" 
d="M36 413l235 184h24l-21 -151h112l-19 -128h-112l-18 -128q-2 -18 -2 -19q0 -48 46 -48q29 0 73 23l-18 -126q-56 -33 -132 -33q-143 0 -143 134q0 29 8 96l9 53l8 48h-64z" />
    <glyph glyph-name="u" unicode="u" horiz-adv-x="549" 
d="M33 156l41 290h170l-35 -253q-4 -31 7 -49t35 -18q26 0 46.5 27.5t26.5 67.5q24 175 31 225h173l-62 -446h-146q-5 61 -5 64h-5q-57 -73 -152 -73q-61 0 -94 33t-33 92q0 22 2 40z" />
    <glyph glyph-name="v" unicode="v" horiz-adv-x="536" 
d="M557 446l-317 -457h-26l-189 457h181l30 -81q19 -51 29 -96h4q8 15 52 89l52 88h184z" />
    <glyph glyph-name="w" unicode="w" horiz-adv-x="754" 
d="M255 271l136 188h23l89 -187h4l100 174h174l-283 -457h-24q-13 29 -51 109q-46 101 -53 119l-164 -228h-24l-158 457h175l11 -37q10 -37 18 -63q5 -17 10.5 -35.5t8.5 -27.5l4 -12h4z" />
    <glyph glyph-name="x" unicode="x" horiz-adv-x="530" 
d="M489 0h-175l-60 191l-115 -191h-173l146 230l-78 216h173l57 -178l108 178h173l-137 -216z" />
    <glyph glyph-name="y" unicode="y" horiz-adv-x="504" 
d="M196 446l35 -270h5l115 270h175l-341 -664h-165l116 230l-114 434h174z" />
    <glyph glyph-name="z" unicode="z" horiz-adv-x="443" 
d="M64 446h392l-2 -13l-228 -304h173l-18 -129h-407l3 13l227 303h-158z" />
    <glyph glyph-name="braceleft" unicode="{" horiz-adv-x="370" 
d="M194 319v-5q58 -13 58 -84q0 -23 -14 -104q-13 -74 -13 -112q0 -25 9.5 -35.5t36.5 -10.5h22l-14 -101h-70q-70 0 -100.5 28t-30.5 88q0 39 15 121q15 84 15 121q0 66 -49 79q2 16 2 20q60 13 75 94l7 36l14 98q22 172 165 172h78l-15 -104h-17q-34 0 -48 -18t-20 -59
l-18 -127q-11 -79 -88 -97z" />
    <glyph glyph-name="bar" unicode="|" horiz-adv-x="370" 
d="M280 -148h-126v885h126v-885z" />
    <glyph glyph-name="braceright" unicode="}" horiz-adv-x="370" 
d="M200 314v5q-60 14 -60 80q0 13 1 17q20 128 20 156q0 48 -50 48h-15l14 104h70q69 0 98.5 -27.5t29.5 -86.5q0 -21 -4 -54l-17 -129q-2 -22 -2 -24q0 -63 49 -78l-2 -20q-64 -13 -78 -117l-23 -160q-23 -161 -166 -161h-74l13 101h21q35 0 46 21q8 15 17 51q5 32 22 160
q14 98 90 114z" />
    <glyph glyph-name="asciitilde" unicode="~" horiz-adv-x="559" 
d="M385 211q-41 0 -110 26q-66 27 -92 27q-24 0 -41.5 -14t-37.5 -51q-7 7 -38 33l-39 35q34 62 72 88t88 26q35 0 98 -28q64 -27 92 -27q57 0 98 77l71 -69q-58 -123 -161 -123z" />
    <glyph glyph-name="uni00A0" unicode="&#xa0;" horiz-adv-x="234" 
 />
    <glyph glyph-name="exclamdown" unicode="&#xa1;" horiz-adv-x="330" 
d="M8 -243l85 486h141l-53 -486h-173zM196 461q30 0 50 -21t20 -52q0 -37 -29 -68q-29 -29 -65 -29q-32 0 -53 21.5t-21 52.5q0 37 30 66q30 30 68 30z" />
    <glyph glyph-name="cent" unicode="&#xa2;" horiz-adv-x="572" 
d="M322 -32h-92l16 113q-74 13 -114.5 65.5t-40.5 129.5q0 108 61 178q62 71 158 90l17 113h92l-15 -109q47 -4 85 -19l-20 -138q-38 22 -92 22t-86.5 -33t-32.5 -90q0 -37 23 -57.5t64 -20.5q61 0 117 30l-19 -134q-41 -20 -106 -29z" />
    <glyph glyph-name="sterling" unicode="&#xa3;" horiz-adv-x="572" 
d="M563 637l-20 -145q-69 33 -117 33q-89 0 -101 -89l-7 -48h131l-15 -102h-137q-21 -110 -56 -157h264q0 -21 -18 -129h-480l1 8q1 5 1 8q85 100 117 270h-56l15 102h60l9 55q23 110 91.5 168.5t164.5 58.5q84 0 153 -33z" />
    <glyph glyph-name="currency" unicode="&#xa4;" horiz-adv-x="576" 
d="M117 290q0 54 29 103l-58 60l67 67l57 -59q51 30 105 30q59 0 106 -31l57 58l68 -66l-59 -59q29 -49 29 -103t-30 -104l60 -57l-68 -68l-58 58q-50 -30 -105 -30q-54 0 -105 30l-56 -58l-67 68l57 56q-29 46 -29 105zM210 289q0 -44 31 -75.5t75 -31.5q46 0 77 31t31 76
t-31 76.5t-77 31.5q-44 0 -75 -31.5t-31 -76.5z" />
    <glyph glyph-name="yen" unicode="&#xa5;" horiz-adv-x="572" 
d="M38 152l8 59h479l-9 -59h-148l-21 -152h-189l20 152h-140zM539 311l-9 -61h-478l9 61h119l-107 349h194l40 -269h4l110 269h200l-209 -349h127z" />
    <glyph glyph-name="brokenbar" unicode="&#xa6;" horiz-adv-x="369" 
d="M280 738v-368h-125v368h125zM155 -149v404h125v-404h-125z" />
    <glyph glyph-name="section" unicode="&#xa7;" horiz-adv-x="574" 
d="M366 715q85 0 160 -34l-17 -127q-77 36 -155 36q-33 0 -55 -12t-22 -32q3 -18 15.5 -27t39.5 -21q76 -25 127 -60q62 -42 62 -107q0 -37 -22 -75t-60 -59q50 -39 50 -99q0 -84 -78 -131q-79 -47 -175 -47q-113 0 -192 43q4 26 7.5 52t7.5 52t5 36q31 -26 81 -44
q54 -17 97 -17q34 0 55 12t21 36q0 21 -25 38t-60.5 32t-71 33t-60.5 49.5t-25 73.5q0 85 79 131q-35 40 -35 84q0 70 61 127t185 57zM267 390q-39 -20 -39 -50t31 -49q5 -3 15 -8.5t14 -7.5l42 -17q39 22 39 53q0 23 -25.5 41.5t-76.5 37.5z" />
    <glyph glyph-name="dieresis" unicode="&#xa8;" horiz-adv-x="549" 
d="M243 681q27 0 45 -18.5t18 -45.5q0 -33 -26 -61q-25 -27 -58 -27q-29 0 -46.5 18t-17.5 46q0 37 25.5 62.5t59.5 25.5zM437 681q29 0 46.5 -18t17.5 -46q0 -35 -25 -61q-26 -27 -60 -27q-29 0 -46 18t-17 46q0 37 25.5 62.5t58.5 25.5z" />
    <glyph glyph-name="copyright" unicode="&#xa9;" horiz-adv-x="875" 
d="M468 -38q-168 0 -273 109t-105 277q0 164 110 274q110 109 270 109q156 0 266 -110t110 -273q0 -164 -110 -276q-110 -110 -268 -110zM470 649q-126 0 -208 -88q-83 -89 -83 -213q0 -128 81 -216t208 -88t206 88q81 88 81 216q0 124 -81 213q-81 88 -204 88zM613 246
v-106q-50 -22 -123 -22q-113 0 -176 63q-62 64 -62 162q0 95 65 163q64 67 175 67q64 0 110 -18v-105q-42 19 -91 19q-57 0 -93.5 -33.5t-36.5 -93.5q0 -56 35 -89t90 -33q53 0 107 26z" />
    <glyph glyph-name="ordfeminine" unicode="&#xaa;" horiz-adv-x="359" 
d="M191 604q71 0 99 -46l15 37h85q-2 -17 -46 -296h-89l-7 38q-40 -45 -111 -45q-60 0 -92 33t-32 90q0 83 49 135q50 54 129 54zM199 506q-26 0 -42 -21t-16 -51q0 -42 39 -42q26 0 43 20t17 50q0 19 -11.5 31.5t-29.5 12.5z" />
    <glyph glyph-name="guillemotleft" unicode="&#xab;" horiz-adv-x="514" 
d="M320 408l-157 -195l102 -202h-152l-94 194l1 10l150 193h150zM519 408l-158 -195l102 -202h-151l-94 194l1 10l150 193h150z" />
    <glyph glyph-name="logicalnot" unicode="&#xac;" horiz-adv-x="572" 
d="M92 339h412l-37 -264h-100l23 165h-312z" />
    <glyph glyph-name="sfthyphen" unicode="&#xad;" horiz-adv-x="362" 
d="M306 193h-265q1 7 6.5 49.5t8.5 58.5h265z" />
    <glyph glyph-name="registered" unicode="&#xae;" horiz-adv-x="594" 
d="M406 416l58 -103h-88l-56 117v9q48 11 48 47q0 34 -38 34h-24v-207h-83v270h123q47 0 77 -25.5t30 -67.5q0 -47 -47 -74zM331 186q-114 0 -183 72q-69 74 -69 185q0 109 73 181q73 73 179 73q105 0 177 -73q73 -72 73 -181q0 -110 -73 -183q-74 -74 -177 -74zM523 443
q0 83 -55 141q-54 59 -137 59t-139 -59q-55 -58 -55 -141q0 -86 53 -145q54 -58 141 -58q84 0 138 59t54 144z" />
    <glyph glyph-name="overscore" unicode="&#xaf;" horiz-adv-x="541" 
d="M472 539h-324l14 103h324z" />
    <glyph glyph-name="degree" unicode="&#xb0;" horiz-adv-x="354" 
d="M236 664q45 0 75 -29.5t30 -75.5q0 -55 -42 -99q-42 -42 -97 -42q-50 0 -78.5 28.5t-28.5 74.5q0 59 42 101t99 42zM226 599q-26 0 -47 -20.5t-21 -47.5q0 -22 14 -36t38 -14q27 0 46.5 20.5t19.5 47.5q0 21 -14 35.5t-36 14.5z" />
    <glyph glyph-name="plusminus" unicode="&#xb1;" horiz-adv-x="572" 
d="M44 0l13 99h412l-13 -99h-412zM494 278h-156l-20 -144h-99l20 144h-157q13 91 14 100h157q5 40 10 71q5 32 10 72h99q-3 -29 -20 -143h157q-1 -4 -6 -42q-5 -40 -9 -58z" />
    <glyph glyph-name="twosuperior" unicode="&#xb2;" horiz-adv-x="369" 
d="M237 792q69 0 104 -28t35 -78q0 -40 -36 -97t-98 -112h121l-15 -89h-336l1 18q234 150 234 248q0 41 -48 41q-45 0 -126 -42l15 97q71 42 149 42z" />
    <glyph glyph-name="threesuperior" unicode="&#xb3;" horiz-adv-x="369" 
d="M145 577l-10 13l91 102h-145l13 90h308l-2 -18l-116 -131q77 -20 77 -95q0 -67 -54 -112q-53 -44 -135 -44q-83 0 -138 31l14 106q50 -45 117 -45q36 0 58 18t22 43q0 20 -16.5 33t-43.5 13q-25 0 -40 -4z" />
    <glyph glyph-name="acute" unicode="&#xb4;" horiz-adv-x="513" 
d="M475 648l-153 -139h-97l147 196z" />
    <glyph glyph-name="mu" unicode="&#xb5;" horiz-adv-x="548" 
d="M-19 -217l92 663h170l-36 -267q-3 -21 7.5 -36.5t30.5 -15.5q64 0 77 87l32 232h173l-62 -446h-147q-2 14 -5 63h-5q-49 -55 -120 -55h-6l-31 -225h-170z" />
    <glyph glyph-name="mu" unicode="&#x3bc;" horiz-adv-x="548" 
d="M-19 -217l92 663h170l-36 -267q-3 -21 7.5 -36.5t30.5 -15.5q64 0 77 87l32 232h173l-62 -446h-147q-2 14 -5 63h-5q-49 -55 -120 -55h-6l-31 -225h-170z" />
    <glyph glyph-name="paragraph" unicode="&#xb6;" horiz-adv-x="579" 
d="M391 675l-61 -435h-77q-84 0 -136 52t-52 132q0 100 74 176q75 75 176 75h76zM432 676h161l-88 -624q-18 -132 -92 -191q-74 -60 -178 -66l-47 130q80 7 114 39q35 32 45 104z" />
    <glyph glyph-name="middot" unicode="&#xb7;" horiz-adv-x="282" 
d="M150 336q30 0 49.5 -20.5t19.5 -51.5q0 -38 -29 -67t-65 -29q-30 0 -50.5 21t-20.5 51q0 38 29 67q31 29 67 29z" />
    <glyph glyph-name="cedilla" unicode="&#xb8;" horiz-adv-x="431" 
d="M119 -121l-16 15l99 152l49 -19l-59 -81q49 -4 75 -26.5t26 -57.5q0 -42 -39 -81q-37 -39 -116 -39q-43 0 -85 16l-6 73q36 -18 89 -18q27 0 43 12.5t16 33.5t-23.5 27t-52.5 -7z" />
    <glyph glyph-name="onesuperior" unicode="&#xb9;" horiz-adv-x="355" 
d="M303 787h19l-56 -399h-124l35 249l-94 -38q9 48 15 106z" />
    <glyph glyph-name="ordmasculine" unicode="&#xba;" horiz-adv-x="379" 
d="M236 606q73 0 113.5 -36.5t40.5 -97.5q0 -77 -55 -128q-54 -51 -141 -51q-74 0 -115 35t-41 96q0 77 55 129q56 53 143 53zM224 506q-25 0 -41.5 -21t-16.5 -49q0 -45 40 -45q26 0 44 20t18 50q0 21 -11.5 33t-32.5 12z" />
    <glyph glyph-name="guillemotright" unicode="&#xbb;" horiz-adv-x="514" 
d="M136 11h-151l158 202l-103 195h151l95 -193l-1 -10zM335 11h-152l159 202l-103 195h150l96 -193l-1 -10z" />
    <glyph glyph-name="onequarter" unicode="&#xbc;" horiz-adv-x="838" 
d="M376 93l194 298h118l-153 -228h50l4 24l47 75h81l-14 -99h38l-13 -88h-38l-10 -75h-116l10 75h-201zM285 699h19l-56 -399h-124l35 249l-94 -38q9 52 15 106zM613 685h100l-549 -716h-99z" />
    <glyph glyph-name="onehalf" unicode="&#xbd;" horiz-adv-x="838" 
d="M646 404q68 0 103.5 -28.5t35.5 -77.5q0 -41 -35 -97.5t-97 -111.5h118l-14 -90h-337l1 19q234 147 234 248q0 40 -48 40q-46 0 -126 -41l15 97q70 42 150 42zM282 699h19l-56 -399h-124l35 249l-94 -38q9 52 15 106zM595 685h100l-549 -716h-99z" />
    <glyph glyph-name="threequarters" unicode="&#xbe;" horiz-adv-x="838" 
d="M406 93l194 298h118l-153 -228h50l4 24l47 75h81l-14 -99h38l-13 -88h-38l-10 -75h-116l10 75h-201zM156 487l-10 13l91 102h-145l13 90h308l-2 -18l-116 -131q77 -20 77 -95q0 -67 -54 -112q-53 -44 -135 -44q-83 0 -138 31l14 106q49 -45 117 -45q36 0 58 18t22 43
q0 20 -16.5 33t-43.5 13q-25 0 -40 -4zM651 685h100l-549 -716h-99z" />
    <glyph glyph-name="questiondown" unicode="&#xbf;" horiz-adv-x="522" 
d="M213 -245q-103 0 -158 44t-55 116q0 80 81 150q15 13 49.5 40t52.5 42.5t35 36t18 36.5q0 13 -4 21l136 22q10 -26 10 -51q0 -39 -27 -77t-66 -65q-93 -65 -93 -118q0 -24 18.5 -38t52.5 -14q83 0 171 48l-21 -152q-103 -41 -200 -41zM318 460q33 0 52.5 -19t19.5 -49
q0 -41 -28 -70t-68 -29q-32 0 -51 20t-19 51q0 39 28 67q29 29 66 29z" />
    <glyph glyph-name="Agrave" unicode="&#xc0;" horiz-adv-x="670" 
d="M630 0h-189l-22 84h-222l-44 -84h-183l416 675h23zM350 354h-4l-88 -154h137zM335 900l119 -189h-91l-138 136z" />
    <glyph glyph-name="Aacute" unicode="&#xc1;" horiz-adv-x="670" 
d="M630 0h-189l-22 84h-222l-44 -84h-183l416 675h23zM350 354h-4l-88 -154h137zM594 844l-157 -135h-98l150 191z" />
    <glyph glyph-name="Acircumflex" unicode="&#xc2;" horiz-adv-x="670" 
d="M630 0h-189l-22 84h-222l-44 -84h-183l416 675h23zM350 354h-4l-88 -154h137zM443 892l141 -181h-126l-44 67l-70 -67h-122l198 181h23z" />
    <glyph glyph-name="Atilde" unicode="&#xc3;" horiz-adv-x="670" 
d="M542 883l31 -67q-43 -90 -107 -90q-26 0 -67 25q-41 26 -59 26q-31 0 -64 -56l-35 68q21 41 50.5 66t61.5 25q23 0 63 -27q42 -27 62 -27q28 0 64 57zM630 0h-189l-22 84h-222l-44 -84h-183l416 675h23zM350 354h-4l-88 -154h137z" />
    <glyph glyph-name="Adieresis" unicode="&#xc4;" horiz-adv-x="670" 
d="M322 868q29 0 46.5 -19t17.5 -47q0 -34 -25.5 -60.5t-59.5 -26.5q-29 0 -46.5 18t-17.5 46q0 37 26 63t59 26zM518 868q27 0 45 -19t18 -46q0 -34 -25.5 -61t-58.5 -27q-29 0 -46.5 18t-17.5 46q0 37 25.5 63t59.5 26zM630 0h-189l-22 84h-222l-44 -84h-183l416 675h23z
M350 354h-4l-88 -154h137z" />
    <glyph glyph-name="Aring" unicode="&#xc5;" horiz-adv-x="670" 
d="M426 901q50 0 81.5 -31.5t31.5 -79.5q0 -52 -35 -93q-33 -39 -86 -50l212 -647h-189l-22 84h-222l-44 -84h-183l398 646q-41 7 -65 35.5t-24 70.5q0 60 44 104q44 45 103 45zM350 354h-4l-88 -154h137zM414 820q-19 0 -34.5 -17t-15.5 -39q0 -17 10.5 -27.5t26.5 -10.5
q23 0 37 15.5t14 37.5q0 18 -10 29.5t-28 11.5z" />
    <glyph glyph-name="AE" unicode="&#xc6;" horiz-adv-x="914" 
d="M847 0h-451l12 89h-166l-72 -89h-205l563 659h386l-20 -147h-257q-9 -77 -13 -101h228q-5 -32 -19 -141h-228l-16 -122h278zM445 343h-4l-113 -142h98z" />
    <glyph glyph-name="Ccedilla" unicode="&#xc7;" horiz-adv-x="610" 
d="M240 -134l-16 15l70 109q-119 15 -183.5 90t-64.5 193q0 170 113 285q112 115 295 115q96 0 160 -27l-22 -159q-60 29 -132 29q-89 0 -156 -59q-66 -58 -66 -167q0 -71 42.5 -109t116.5 -38q80 0 167 40l-22 -163q-84 -34 -190 -34h-1l-38 -53q49 -4 75 -26.5t26 -57.5
q0 -42 -39 -81q-37 -39 -116 -39q-43 0 -85 16l-6 73q36 -18 89 -18q27 0 43 12.5t16 33.5t-23.5 27t-52.5 -7z" />
    <glyph glyph-name="Egrave" unicode="&#xc8;" horiz-adv-x="560" 
d="M232 148h281q-6 -46 -10 -74t-10 -74h-472l92 659h450l-21 -147h-258q-4 -20 -9 -57l-6 -44h228l-20 -141h-228q-10 -78 -17 -122zM309 900l119 -189h-91l-138 136z" />
    <glyph glyph-name="Eacute" unicode="&#xc9;" horiz-adv-x="560" 
d="M232 148h281q-6 -46 -10 -74t-10 -74h-472l92 659h450l-21 -147h-258q-4 -20 -9 -57l-6 -44h228l-20 -141h-228q-10 -78 -17 -122zM516 844l-157 -135h-98l150 191z" />
    <glyph glyph-name="Ecircumflex" unicode="&#xca;" horiz-adv-x="560" 
d="M232 148h281q-6 -46 -10 -74t-10 -74h-472l92 659h450l-21 -147h-258q-4 -20 -9 -57l-6 -44h228l-20 -141h-228q-10 -78 -17 -122zM390 893l141 -181h-126l-44 67l-70 -67h-122l198 181h23z" />
    <glyph glyph-name="Edieresis" unicode="&#xcb;" horiz-adv-x="560" 
d="M268 868q29 0 46.5 -19t17.5 -47q0 -34 -25.5 -60.5t-59.5 -26.5q-29 0 -46.5 18t-17.5 46q0 37 26 63t59 26zM464 868q27 0 45 -19t18 -46q0 -34 -25.5 -61t-58.5 -27q-29 0 -46.5 18t-17.5 46q0 37 25.5 63t59.5 26zM232 148h281q-6 -46 -10 -74t-10 -74h-472l92 659
h450l-21 -147h-258q-4 -20 -9 -57l-6 -44h228l-20 -141h-228q-10 -78 -17 -122z" />
    <glyph glyph-name="Igrave" unicode="&#xcc;" horiz-adv-x="311" 
d="M307 659l-92 -659h-191l92 659h191zM168 900l119 -189h-91l-138 136z" />
    <glyph glyph-name="Iacute" unicode="&#xcd;" horiz-adv-x="311" 
d="M307 659l-92 -659h-191l92 659h191zM410 844l-157 -135h-98l150 191z" />
    <glyph glyph-name="Icircumflex" unicode="&#xce;" horiz-adv-x="311" 
d="M307 659l-92 -659h-191l92 659h191zM261 893l141 -181h-126l-44 67l-70 -67h-122l198 181h23z" />
    <glyph glyph-name="Idieresis" unicode="&#xcf;" horiz-adv-x="311" 
d="M307 659l-92 -659h-191l92 659h191zM144 868q29 0 46.5 -19t17.5 -47q0 -34 -25.5 -60.5t-59.5 -26.5q-29 0 -46.5 18t-17.5 46q0 37 26 63t59 26zM340 868q27 0 45 -19t18 -46q0 -34 -25.5 -61t-58.5 -27q-29 0 -46.5 18t-17.5 46q0 37 25.5 63t59.5 26z" />
    <glyph glyph-name="Eth" unicode="&#xd0;" horiz-adv-x="686" 
d="M284 0h-263l41 290h-48l13 88h47l40 281h239q153 0 230 -78q77 -79 77 -205q0 -155 -102 -266q-102 -110 -274 -110zM344 512h-61l-19 -134h106l-12 -88h-107l-19 -142h63q81 1 131 63q49 62 49 165q0 65 -33.5 100.5t-97.5 35.5z" />
    <glyph glyph-name="Ntilde" unicode="&#xd1;" horiz-adv-x="701" 
d="M256 326l-45 -326h-190l95 676h22l324 -329h4l45 312h190l-94 -675h-20l-328 342h-3zM546 881l31 -67q-43 -90 -107 -90q-26 0 -67 25q-41 26 -59 26q-31 0 -64 -56l-35 68q21 41 50.5 66t61.5 25q23 0 63 -27q42 -27 62 -27q28 0 64 57z" />
    <glyph glyph-name="Ograve" unicode="&#xd2;" horiz-adv-x="778" 
d="M447 673q141 0 223 -84q83 -83 83 -213q0 -164 -117 -277q-115 -112 -284 -112q-140 0 -222 82t-82 212q0 163 113 278q114 114 286 114zM375 143q80 0 134 64t54 158q0 67 -35.5 108t-99.5 41q-80 0 -136 -65q-54 -65 -54 -154q0 -68 37.5 -110t99.5 -42zM405 900
l119 -189h-91l-138 136z" />
    <glyph glyph-name="Oacute" unicode="&#xd3;" horiz-adv-x="778" 
d="M447 673q141 0 223 -84q83 -83 83 -213q0 -164 -117 -277q-115 -112 -284 -112q-140 0 -222 82t-82 212q0 163 113 278q114 114 286 114zM375 143q80 0 134 64t54 158q0 67 -35.5 108t-99.5 41q-80 0 -136 -65q-54 -65 -54 -154q0 -68 37.5 -110t99.5 -42zM651 844
l-157 -135h-98l150 191z" />
    <glyph glyph-name="Ocircumflex" unicode="&#xd4;" horiz-adv-x="778" 
d="M447 673q141 0 223 -84q83 -83 83 -213q0 -164 -117 -277q-115 -112 -284 -112q-140 0 -222 82t-82 212q0 163 113 278q114 114 286 114zM375 143q80 0 134 64t54 158q0 67 -35.5 108t-99.5 41q-80 0 -136 -65q-54 -65 -54 -154q0 -68 37.5 -110t99.5 -42zM510 893
l141 -181h-126l-44 67l-70 -67h-122l198 181h23z" />
    <glyph glyph-name="Otilde" unicode="&#xd5;" horiz-adv-x="778" 
d="M447 673q141 0 223 -84q83 -83 83 -213q0 -164 -117 -277q-115 -112 -284 -112q-140 0 -222 82t-82 212q0 163 113 278q114 114 286 114zM375 143q80 0 134 64t54 158q0 67 -35.5 108t-99.5 41q-80 0 -136 -65q-54 -65 -54 -154q0 -68 37.5 -110t99.5 -42zM603 883
l31 -67q-44 -90 -107 -90q-26 0 -67 25q-41 26 -59 26q-31 0 -64 -56l-35 68q21 41 50.5 66t61.5 25q22 0 63 -27q42 -27 62 -27q28 0 64 57z" />
    <glyph glyph-name="Odieresis" unicode="&#xd6;" horiz-adv-x="778" 
d="M447 673q141 0 223 -84q83 -83 83 -213q0 -164 -117 -277q-115 -112 -284 -112q-140 0 -222 82t-82 212q0 163 113 278q114 114 286 114zM375 143q80 0 134 64t54 158q0 67 -35.5 108t-99.5 41q-80 0 -136 -65q-54 -65 -54 -154q0 -68 37.5 -110t99.5 -42zM380 868
q29 0 46.5 -19t17.5 -47q0 -34 -25.5 -60.5t-59.5 -26.5q-29 0 -46.5 18t-17.5 46q0 37 26 63t59 26zM576 868q27 0 45 -19t18 -46q0 -34 -25.5 -61t-58.5 -27q-29 0 -46.5 18t-17.5 46q0 37 25.5 63t59.5 26z" />
    <glyph glyph-name="multiply" unicode="&#xd7;" horiz-adv-x="572" 
d="M376 102l-94 114l-129 -116l-60 72l129 116l-95 115l78 70l95 -114l128 115q22 -23 60 -73l-128 -115l95 -113q-64 -58 -79 -71z" />
    <glyph glyph-name="Oslash" unicode="&#xd8;" horiz-adv-x="778" 
d="M447 673q112 0 190 -57l39 43h62l-66 -72q81 -81 81 -211q0 -164 -117 -277q-115 -112 -284 -112q-106 0 -179 48l-32 -35h-64l58 64q-87 81 -87 217q0 163 113 278q114 114 286 114zM239 295q0 -55 24 -92l252 281q-35 30 -87 30q-81 0 -135 -65t-54 -154zM375 143
q79 0 133 64q55 64 55 158q0 46 -19 81l-249 -279q35 -24 80 -24z" />
    <glyph glyph-name="Ugrave" unicode="&#xd9;" horiz-adv-x="694" 
d="M467 260l56 399h190q-1 -17 -54 -385q-18 -133 -103 -209.5t-227 -76.5q-135 0 -202 76q-68 77 -48 211l53 384h192l-55 -393q-7 -45 10 -83q18 -36 73 -36q47 0 77.5 32.5t37.5 80.5zM389 900l119 -189h-91l-138 136z" />
    <glyph glyph-name="Uacute" unicode="&#xda;" horiz-adv-x="694" 
d="M467 260l56 399h190q-1 -17 -54 -385q-18 -133 -103 -209.5t-227 -76.5q-135 0 -202 76q-68 77 -48 211l53 384h192l-55 -393q-7 -45 10 -83q18 -36 73 -36q47 0 77.5 32.5t37.5 80.5zM616 844l-157 -135h-98l150 191z" />
    <glyph glyph-name="Ucircumflex" unicode="&#xdb;" horiz-adv-x="694" 
d="M467 260l56 399h190q-1 -17 -54 -385q-18 -133 -103 -209.5t-227 -76.5q-135 0 -202 76q-68 77 -48 211l53 384h192l-55 -393q-7 -45 10 -83q18 -36 73 -36q47 0 77.5 32.5t37.5 80.5zM474 891l145 -179h-129l-45 66l-72 -66h-126l204 179h23z" />
    <glyph glyph-name="Udieresis" unicode="&#xdc;" horiz-adv-x="694" 
d="M467 260l56 399h190q-1 -17 -54 -385q-18 -133 -103 -209.5t-227 -76.5q-135 0 -202 76q-68 77 -48 211l53 384h192l-55 -393q-7 -45 10 -83q18 -36 73 -36q47 0 77.5 32.5t37.5 80.5zM352 868q29 0 46.5 -19t17.5 -47q0 -34 -25.5 -60.5t-59.5 -26.5q-29 0 -46.5 18
t-17.5 46q0 37 26 63t59 26zM548 868q27 0 45 -19t18 -46q0 -34 -25.5 -61t-58.5 -27q-29 0 -46.5 18t-17.5 46q0 37 25.5 63t59.5 26z" />
    <glyph glyph-name="Yacute" unicode="&#xdd;" horiz-adv-x="629" 
d="M267 659l69 -252h4q26 53 135 252h206l-272 -415l-34 -244h-191l35 244l-156 415h204zM565 842l-157 -135h-98l150 191z" />
    <glyph glyph-name="Thorn" unicode="&#xde;" horiz-adv-x="587" 
d="M291 575h81q104 0 160.5 -52t56.5 -137q0 -44 -17 -87t-48.5 -80.5t-84.5 -60.5t-119 -23h-90l-18 -135h-190l92 660h189zM328 432h-57l-23 -158h58q42 0 68.5 26.5t26.5 63.5q0 30 -18.5 49t-54.5 19z" />
    <glyph glyph-name="germandbls" unicode="&#xdf;" horiz-adv-x="598" 
d="M363 729q92 0 145.5 -43.5t53.5 -116.5q0 -46 -22.5 -85.5t-60.5 -62.5l-1 -5q88 -34 88 -157q0 -112 -63 -190t-173 -78q-39 0 -75 10l-2 137q17 -5 38 -5q48 0 78.5 35.5t30.5 91.5q0 48 -23.5 67.5t-72.5 19.5l15 113q37 1 59 25.5t22 58.5q0 25 -16 40t-39 15
q-37 0 -57.5 -24t-26.5 -61l-71 -514h-171l67 482q16 109 88 178q74 69 189 69z" />
    <glyph glyph-name="agrave" unicode="&#xe0;" horiz-adv-x="580" 
d="M285 323q-43 0 -68.5 -35.5t-25.5 -85.5q0 -75 67 -75q41 0 69 34t28 85q0 35 -18.5 56t-51.5 21zM368 0l-7 49h-5q-67 -59 -161 -59q-86 0 -132 48.5t-46 133.5q0 123 71 206q70 82 187 82q93 0 143 -65l27 51h113l-63 -446h-127zM283 701l111 -192h-91l-128 139z" />
    <glyph glyph-name="aacute" unicode="&#xe1;" horiz-adv-x="580" 
d="M285 323q-43 0 -68.5 -35.5t-25.5 -85.5q0 -75 67 -75q41 0 69 34t28 85q0 35 -18.5 56t-51.5 21zM368 0l-7 49h-5q-67 -59 -161 -59q-86 0 -132 48.5t-46 133.5q0 123 71 206q70 82 187 82q93 0 143 -65l27 51h113l-63 -446h-127zM475 648l-153 -139h-97l147 196z" />
    <glyph glyph-name="acircumflex" unicode="&#xe2;" horiz-adv-x="580" 
d="M285 323q-43 0 -68.5 -35.5t-25.5 -85.5q0 -75 67 -75q41 0 69 34t28 85q0 35 -18.5 56t-51.5 21zM368 0l-7 49h-5q-67 -59 -161 -59q-86 0 -132 48.5t-46 133.5q0 123 71 206q70 82 187 82q93 0 143 -65l27 51h113l-63 -446h-127zM353 699l133 -190h-118l-42 69l-68 -69
h-119l192 190h22z" />
    <glyph glyph-name="atilde" unicode="&#xe3;" horiz-adv-x="580" 
d="M285 323q-43 0 -68.5 -35.5t-25.5 -85.5q0 -75 67 -75q41 0 69 34t28 85q0 35 -18.5 56t-51.5 21zM368 0l-7 49h-5q-67 -59 -161 -59q-86 0 -132 48.5t-46 133.5q0 123 71 206q70 82 187 82q93 0 143 -65l27 51h113l-63 -446h-127zM451 676l31 -67q-44 -90 -107 -90
q-26 0 -67 25q-41 26 -59 26q-31 0 -64 -56l-35 68q21 41 50.5 66t61.5 25q22 0 63 -27q42 -27 62 -27q28 0 64 57z" />
    <glyph glyph-name="adieresis" unicode="&#xe4;" horiz-adv-x="580" 
d="M285 323q-43 0 -68.5 -35.5t-25.5 -85.5q0 -75 67 -75q41 0 69 34t28 85q0 35 -18.5 56t-51.5 21zM368 0l-7 49h-5q-67 -59 -161 -59q-86 0 -132 48.5t-46 133.5q0 123 71 206q70 82 187 82q93 0 143 -65l27 51h113l-63 -446h-127zM239 681q27 0 45 -18.5t18 -45.5
q0 -33 -26 -61q-25 -27 -58 -27q-29 0 -46.5 18t-17.5 46q0 37 25.5 62.5t59.5 25.5zM433 681q29 0 46.5 -18t17.5 -46q0 -35 -25 -61q-26 -27 -60 -27q-29 0 -46 18t-17 46q0 37 25.5 62.5t58.5 25.5z" />
    <glyph glyph-name="aring" unicode="&#xe5;" horiz-adv-x="580" 
d="M285 323q-43 0 -68.5 -35.5t-25.5 -85.5q0 -75 67 -75q41 0 69 34t28 85q0 35 -18.5 56t-51.5 21zM368 0l-7 49h-5q-67 -59 -161 -59q-86 0 -132 48.5t-46 133.5q0 123 71 206q70 82 187 82q93 0 143 -65l27 51h113l-63 -446h-127zM345 756q50 0 81.5 -31.5t31.5 -79.5
q0 -59 -44 -103q-44 -42 -105 -42q-50 0 -80.5 29.5t-30.5 77.5q0 60 44 104q44 45 103 45zM333 675q-19 0 -34.5 -17t-15.5 -39q0 -17 10.5 -27.5t26.5 -10.5q23 0 37 15.5t14 37.5q0 18 -10 29.5t-28 11.5z" />
    <glyph glyph-name="ae" unicode="&#xe6;" horiz-adv-x="783" 
d="M577 462q81 0 130.5 -37.5t49.5 -98.5q0 -52 -37 -86q-64 -60 -196 -60q-22 0 -43 3q-5 -37 19.5 -56t65.5 -19q87 0 161 52q0 -2 -6 -45.5t-10 -78.5q-73 -45 -190 -45q-125 0 -165 78q-72 -82 -204 -82q-71 0 -111.5 29t-40.5 80q0 73 62 121q63 48 174 48h63
q2 18 2 25q0 47 -77 47q-27 0 -68.5 -9.5t-70.5 -24.5q1 14 8 63q7 42 9 63q81 31 177 31q100 0 140 -49q67 51 158 51zM289 180l3 19h-39q-36 0 -59.5 -18t-23.5 -48q0 -36 41 -36q31 0 51.5 22t26.5 61zM561 340q-31 0 -51.5 -22.5t-26.5 -63.5q10 -3 23 -3q45 0 70 14.5
t25 38.5q0 16 -10.5 26t-29.5 10z" />
    <glyph glyph-name="ccedilla" unicode="&#xe7;" horiz-adv-x="431" 
d="M114 -121l-16 15l65 100q-69 15 -107.5 66t-38.5 124q0 130 81 203q83 74 203 74q67 0 114 -21l-1 -7q-1 -7 -3 -24t-4 -37q-7 -65 -9 -70q-37 22 -88 22q-53 0 -85.5 -32.5t-32.5 -89.5q0 -37 23 -58t64 -21q52 0 109 30l-19 -134q-58 -31 -151 -31h-1l-30 -42
q49 -4 75 -26.5t26 -57.5q0 -42 -39 -81q-37 -39 -116 -39q-43 0 -85 16l-6 73q36 -18 89 -18q27 0 43 12.5t16 33.5t-23.5 27t-52.5 -7z" />
    <glyph glyph-name="egrave" unicode="&#xe8;" horiz-adv-x="497" 
d="M289 462q81 0 130.5 -37.5t49.5 -98.5q0 -42 -22.5 -74.5t-59 -49.5t-76.5 -25.5t-82 -8.5q-6 0 -36 2v-6q0 -56 85 -56q38 0 83 14.5t78 37.5q-3 -18 -16 -124q-76 -46 -194 -46q-109 0 -160 55t-51 140q0 113 73 195t198 82zM269 701l111 -192h-91l-128 139zM273 340
q-31 0 -51.5 -23t-26.5 -64q14 -2 22 -2q40 0 68 14t28 39q0 16 -10.5 26t-29.5 10z" />
    <glyph glyph-name="eacute" unicode="&#xe9;" horiz-adv-x="497" 
d="M289 462q81 0 130.5 -37.5t49.5 -98.5q0 -42 -22.5 -74.5t-59 -49.5t-76.5 -25.5t-82 -8.5q-6 0 -36 2v-6q0 -56 85 -56q38 0 83 14.5t78 37.5q-3 -18 -16 -124q-76 -46 -194 -46q-109 0 -160 55t-51 140q0 113 73 195t198 82zM469 648l-153 -139h-97l147 196zM273 340
q-31 0 -51.5 -23t-26.5 -64q14 -2 22 -2q40 0 68 14t28 39q0 16 -10.5 26t-29.5 10z" />
    <glyph glyph-name="ecircumflex" unicode="&#xea;" horiz-adv-x="497" 
d="M289 462q81 0 130.5 -37.5t49.5 -98.5q0 -42 -22.5 -74.5t-59 -49.5t-76.5 -25.5t-82 -8.5q-6 0 -36 2v-6q0 -56 85 -56q38 0 83 14.5t78 37.5q-3 -18 -16 -124q-76 -46 -194 -46q-109 0 -160 55t-51 140q0 113 73 195t198 82zM342 699l133 -190h-118l-42 69l-68 -69
h-119l192 190h22zM273 340q-31 0 -51.5 -23t-26.5 -64q14 -2 22 -2q40 0 68 14t28 39q0 16 -10.5 26t-29.5 10z" />
    <glyph glyph-name="edieresis" unicode="&#xeb;" horiz-adv-x="497" 
d="M289 462q81 0 130.5 -37.5t49.5 -98.5q0 -42 -22.5 -74.5t-59 -49.5t-76.5 -25.5t-82 -8.5q-6 0 -36 2v-6q0 -56 85 -56q38 0 83 14.5t78 37.5q-3 -18 -16 -124q-76 -46 -194 -46q-109 0 -160 55t-51 140q0 113 73 195t198 82zM421 681q29 0 46.5 -18t17.5 -46
q0 -35 -25 -61q-26 -27 -60 -27q-29 0 -46 18t-17 46q0 37 25.5 62.5t58.5 25.5zM227 681q27 0 45 -18.5t18 -45.5q0 -33 -26 -61q-26 -27 -58 -27q-29 0 -46.5 18t-17.5 46q0 37 25.5 62.5t59.5 25.5zM273 340q-31 0 -51.5 -23t-26.5 -64q14 -2 22 -2q40 0 68 14t28 39
q0 16 -10.5 26t-29.5 10z" />
    <glyph glyph-name="igrave" unicode="&#xec;" horiz-adv-x="275" 
d="M250 446l-62 -446h-172l62 446h172zM129 701l111 -192h-91l-128 139z" />
    <glyph glyph-name="iacute" unicode="&#xed;" horiz-adv-x="275" 
d="M250 446l-62 -446h-172l62 446h172zM354 648l-153 -139h-97l147 196z" />
    <glyph glyph-name="icircumflex" unicode="&#xee;" horiz-adv-x="275" 
d="M250 446l-62 -446h-172l62 446h172zM218 699l133 -190h-118l-42 69l-68 -69h-119l192 190h22z" />
    <glyph glyph-name="idieresis" unicode="&#xef;" horiz-adv-x="275" 
d="M103 681q27 0 45 -18.5t18 -45.5q0 -33 -26 -61q-26 -27 -58 -27q-29 0 -46.5 18t-17.5 46q0 37 25.5 62.5t59.5 25.5zM297 681q29 0 46.5 -18t17.5 -46q0 -35 -25 -61q-26 -27 -60 -27q-29 0 -46 18t-17 46q0 37 25.5 62.5t58.5 25.5zM250 446l-62 -446h-172l62 446h172
z" />
    <glyph glyph-name="eth" unicode="&#xf0;" horiz-adv-x="561" 
d="M246 -10q-107 0 -166 52.5t-59 141.5q0 114 76 193q77 80 193 80q50 0 65 -22l2 4q-13 58 -52 101l-92 -57q0 16 11 74l38 26q-41 40 -107 83l127 66q60 -36 100 -73l97 60l-12 -79l-40 -24q114 -128 114 -294q0 -45 -9.5 -89.5t-32 -88.5t-55.5 -78t-84 -55t-114 -21z
M292 318q-43 0 -70.5 -34t-27.5 -82q0 -35 18.5 -55t52.5 -20q42 0 70.5 33.5t28.5 81.5q0 34 -19.5 55t-52.5 21z" />
    <glyph glyph-name="ntilde" unicode="&#xf1;" horiz-adv-x="556" 
d="M214 446l10 -61l3 1q65 74 157 74q65 0 98.5 -32.5t33.5 -93.5q0 -15 -6 -66l-37 -268h-172l35 249q4 32 -6 52.5t-34 20.5q-68 0 -82 -103l-31 -219h-171l62 446h140zM448 679l31 -67q-43 -90 -107 -90q-26 0 -67 25q-41 26 -59 26q-31 0 -64 -56l-35 68q21 41 50.5 66
t61.5 25q23 0 63 -27q42 -27 62 -27q28 0 64 57z" />
    <glyph glyph-name="ograve" unicode="&#xf2;" horiz-adv-x="550" 
d="M304 461q104 0 161.5 -53.5t57.5 -144.5q0 -119 -79 -197q-80 -77 -204 -77q-104 0 -163 53.5t-59 144.5q0 117 80 195q79 79 206 79zM288 322q-43 0 -69.5 -34.5t-26.5 -84.5q0 -36 17.5 -56t50.5 -20q42 0 70 34t28 84q0 36 -18.5 56.5t-51.5 20.5zM274 701l111 -192
h-91l-128 139z" />
    <glyph glyph-name="oacute" unicode="&#xf3;" horiz-adv-x="550" 
d="M304 461q104 0 161.5 -53.5t57.5 -144.5q0 -119 -79 -197q-80 -77 -204 -77q-104 0 -163 53.5t-59 144.5q0 117 80 195q79 79 206 79zM288 322q-43 0 -69.5 -34.5t-26.5 -84.5q0 -36 17.5 -56t50.5 -20q42 0 70 34t28 84q0 36 -18.5 56.5t-51.5 20.5zM493 648l-153 -139
h-97l147 196z" />
    <glyph glyph-name="ocircumflex" unicode="&#xf4;" horiz-adv-x="550" 
d="M304 461q104 0 161.5 -53.5t57.5 -144.5q0 -119 -79 -197q-80 -77 -204 -77q-104 0 -163 53.5t-59 144.5q0 117 80 195q79 79 206 79zM288 322q-43 0 -69.5 -34.5t-26.5 -84.5q0 -36 17.5 -56t50.5 -20q42 0 70 34t28 84q0 36 -18.5 56.5t-51.5 20.5zM359 699l133 -190
h-118l-42 69l-68 -69h-119l192 190h22z" />
    <glyph glyph-name="otilde" unicode="&#xf5;" horiz-adv-x="550" 
d="M304 461q104 0 161.5 -53.5t57.5 -144.5q0 -119 -79 -197q-80 -77 -204 -77q-104 0 -163 53.5t-59 144.5q0 117 80 195q79 79 206 79zM288 322q-43 0 -69.5 -34.5t-26.5 -84.5q0 -36 17.5 -56t50.5 -20q42 0 70 34t28 84q0 36 -18.5 56.5t-51.5 20.5zM459 675l31 -67
q-44 -90 -107 -90q-26 0 -67 25q-41 26 -59 26q-31 0 -64 -56l-35 68q21 41 50.5 66t61.5 25q22 0 63 -27q42 -27 62 -27q28 0 64 57z" />
    <glyph glyph-name="odieresis" unicode="&#xf6;" horiz-adv-x="550" 
d="M304 461q104 0 161.5 -53.5t57.5 -144.5q0 -119 -79 -197q-80 -77 -204 -77q-104 0 -163 53.5t-59 144.5q0 117 80 195q79 79 206 79zM288 322q-43 0 -69.5 -34.5t-26.5 -84.5q0 -36 17.5 -56t50.5 -20q42 0 70 34t28 84q0 36 -18.5 56.5t-51.5 20.5zM242 681
q27 0 45 -18.5t18 -45.5q0 -33 -26 -61q-25 -27 -58 -27q-29 0 -46.5 18t-17.5 46q0 37 25.5 62.5t59.5 25.5zM436 681q29 0 46.5 -18t17.5 -46q0 -35 -25 -61q-25 -27 -60 -27q-29 0 -46 18t-17 46q0 37 25.5 62.5t58.5 25.5z" />
    <glyph glyph-name="divide" unicode="&#xf7;" horiz-adv-x="572" 
d="M492 243h-416l14 101h416q-14 -98 -14 -101zM327 543q30 0 49.5 -20t19.5 -50q0 -37 -27.5 -64.5t-63.5 -27.5q-30 0 -49 19.5t-19 49.5q0 36 27 65q28 28 63 28zM280 208q30 0 49.5 -20t19.5 -50q0 -36 -29 -65q-28 -27 -63 -27q-29 0 -48 19.5t-19 48.5q0 38 27 66
t63 28z" />
    <glyph glyph-name="oslash" unicode="&#xf8;" horiz-adv-x="550" 
d="M304 461q86 0 139 -37l22 22h53l-46 -47q51 -51 51 -136q0 -119 -79 -197q-80 -77 -204 -77q-78 0 -134 33l-21 -22h-53l43 45q-57 54 -57 142q0 117 80 195q79 79 206 79zM288 322q-43 0 -69.5 -34.5t-26.5 -84.5q0 -20 5 -33l134 138q-17 14 -43 14zM358 245
q0 12 -6 30l-132 -136q15 -12 40 -12q42 0 70 34t28 84z" />
    <glyph glyph-name="ugrave" unicode="&#xf9;" horiz-adv-x="549" 
d="M33 156l41 290h170l-35 -253q-4 -31 7 -49t35 -18q26 0 46.5 27.5t26.5 67.5q24 175 31 225h173l-62 -446h-146q-5 61 -5 64h-5q-57 -73 -152 -73q-61 0 -94 33t-33 92q0 22 2 40zM267 701l111 -192h-91l-128 139z" />
    <glyph glyph-name="uacute" unicode="&#xfa;" horiz-adv-x="549" 
d="M33 156l41 290h170l-35 -253q-4 -31 7 -49t35 -18q26 0 46.5 27.5t26.5 67.5q24 175 31 225h173l-62 -446h-146q-5 61 -5 64h-5q-57 -73 -152 -73q-61 0 -94 33t-33 92q0 22 2 40zM483 648l-153 -139h-97l147 196z" />
    <glyph glyph-name="ucircumflex" unicode="&#xfb;" horiz-adv-x="549" 
d="M33 156l41 290h170l-35 -253q-4 -31 7 -49t35 -18q26 0 46.5 27.5t26.5 67.5q24 175 31 225h173l-62 -446h-146q-5 61 -5 64h-5q-57 -73 -152 -73q-61 0 -94 33t-33 92q0 22 2 40zM347 699l133 -190h-118l-42 69l-68 -69h-119l192 190h22z" />
    <glyph glyph-name="udieresis" unicode="&#xfc;" horiz-adv-x="549" 
d="M33 156l41 290h170l-35 -253q-4 -31 7 -49t35 -18q26 0 46.5 27.5t26.5 67.5q24 175 31 225h173l-62 -446h-146q-5 61 -5 64h-5q-57 -73 -152 -73q-61 0 -94 33t-33 92q0 22 2 40zM236 681q27 0 45 -18.5t18 -45.5q0 -33 -26 -61q-25 -27 -58 -27q-29 0 -46.5 18
t-17.5 46q0 37 25.5 62.5t59.5 25.5zM430 681q29 0 46.5 -18t17.5 -46q0 -35 -25 -61q-25 -27 -60 -27q-29 0 -46 18t-17 46q0 37 25.5 62.5t58.5 25.5z" />
    <glyph glyph-name="yacute" unicode="&#xfd;" horiz-adv-x="504" 
d="M196 446l35 -270h5l115 270h175l-341 -664h-165l116 230l-114 434h174zM470 648l-153 -139h-97l147 196z" />
    <glyph glyph-name="thorn" unicode="&#xfe;" horiz-adv-x="582" 
d="M187 32l-33 -249h-176l129 928h169l-19 -131l-23 -170l3 -3q55 52 138 52q87 0 133.5 -51t46.5 -137q0 -127 -74 -204t-178 -77q-79 0 -116 42zM316 320q-42 0 -70 -34t-28 -85q0 -36 18.5 -57t52.5 -21q42 0 69 34t27 85q0 37 -18 57.5t-51 20.5z" />
    <glyph glyph-name="ydieresis" unicode="&#xff;" horiz-adv-x="504" 
d="M211 679q27 0 45 -18.5t18 -45.5q0 -33 -26 -61q-25 -27 -58 -27q-29 0 -46.5 18t-17.5 46q0 37 25.5 62.5t59.5 25.5zM405 679q29 0 46.5 -18t17.5 -46q0 -35 -25 -61q-26 -27 -60 -27q-29 0 -46 18t-17 46q0 37 25.5 62.5t58.5 25.5zM196 446l35 -270h5l115 270h175
l-341 -664h-165l116 230l-114 434h174z" />
    <glyph glyph-name="Amacron" unicode="&#x100;" horiz-adv-x="670" 
d="M630 0h-189l-22 84h-222l-44 -84h-183l416 675h23zM350 354h-4l-88 -154h137zM565 734h-328l15 104h328z" />
    <glyph glyph-name="amacron" unicode="&#x101;" horiz-adv-x="580" 
d="M285 323q-43 0 -68.5 -35.5t-25.5 -85.5q0 -75 67 -75q41 0 69 34t28 85q0 35 -18.5 56t-51.5 21zM368 0l-7 49h-5q-67 -59 -161 -59q-86 0 -132 48.5t-46 133.5q0 123 71 206q70 82 187 82q93 0 143 -65l27 51h113l-63 -446h-127zM482 539h-324l14 103h324z" />
    <glyph glyph-name="Abreve" unicode="&#x102;" horiz-adv-x="670" 
d="M511 878h76q-13 -67 -61 -121q-46 -51 -125 -51q-66 0 -101.5 37.5t-37.5 100.5q0 27 1 34h78q0 -41 19.5 -63t55.5 -22q30 0 56.5 24t38.5 61zM630 0h-189l-22 84h-222l-44 -84h-183l416 675h23zM350 354h-4l-88 -154h137z" />
    <glyph glyph-name="abreve" unicode="&#x103;" horiz-adv-x="580" 
d="M285 323q-43 0 -68.5 -35.5t-25.5 -85.5q0 -75 67 -75q41 0 69 34t28 85q0 35 -18.5 56t-51.5 21zM368 0l-7 49h-5q-67 -59 -161 -59q-86 0 -132 48.5t-46 133.5q0 123 71 206q70 82 187 82q93 0 143 -65l27 51h113l-63 -446h-127zM416 680h77q-14 -71 -62 -124
q-46 -52 -125 -52q-66 0 -101 38t-37 103q0 27 1 35h78q0 -41 19.5 -63.5t55.5 -22.5q32 0 57.5 23.5t36.5 62.5z" />
    <glyph glyph-name="Aogonek" unicode="&#x104;" horiz-adv-x="670" 
d="M480 -164q44 0 100 29l-11 -70q-68 -38 -148 -38q-103 0 -103 76q0 42 32.5 90t87.5 86l-19 75h-222l-44 -84h-183l416 675h23l221 -675h-129q-77 -66 -77 -121q0 -43 56 -43zM350 354h-4l-88 -154h137z" />
    <glyph glyph-name="aogonek" unicode="&#x105;" horiz-adv-x="580" 
d="M366 11l-5 38h-5q-67 -59 -161 -59q-86 0 -132 48.5t-46 133.5q0 123 71 206q70 82 187 82q93 0 143 -65l27 51h113l-63 -446h-75q-43 -32 -71 -70t-28 -68q0 -43 56 -43q44 0 100 29l-11 -70q-68 -38 -148 -38q-103 0 -103 76q0 47 41.5 101.5t109.5 93.5zM285 323
q-43 0 -68.5 -35.5t-25.5 -85.5q0 -75 67 -75q41 0 69 34t28 85q0 35 -18.5 56t-51.5 21z" />
    <glyph glyph-name="Cacute" unicode="&#x106;" horiz-adv-x="610" 
d="M564 183l-22 -163q-84 -34 -190 -34q-148 0 -228 78q-78 80 -78 209q0 170 113 285q112 115 295 115q96 0 160 -27l-22 -159q-60 29 -132 29q-89 0 -156 -59q-66 -58 -66 -167q0 -71 42.5 -109t116.5 -38q80 0 167 40zM599 844l-157 -135h-98l150 191z" />
    <glyph glyph-name="cacute" unicode="&#x107;" horiz-adv-x="431" 
d="M301 461q67 0 114 -21l-1 -7q-1 -7 -3 -24t-4 -37q-7 -65 -9 -70q-37 22 -88 22q-53 0 -85.5 -32.5t-32.5 -89.5q0 -37 23 -58t64 -21q52 0 109 30l-19 -134q-58 -31 -151 -31q-96 0 -148 55q-53 56 -53 141q0 130 81 203q83 74 203 74zM448 648l-153 -139h-97l147 196z
" />
    <glyph glyph-name="Ccircumflex" unicode="&#x108;" horiz-adv-x="610" 
d="M564 183l-22 -163q-84 -34 -190 -34q-148 0 -228 78q-78 80 -78 209q0 170 113 285q112 115 295 115q96 0 160 -27l-22 -159q-60 29 -132 29q-89 0 -156 -59q-66 -58 -66 -167q0 -71 42.5 -109t116.5 -38q80 0 167 40zM473 900l141 -181h-126l-44 67l-70 -67h-122
l198 181h23z" />
    <glyph glyph-name="ccircumflex" unicode="&#x109;" horiz-adv-x="431" 
d="M301 461q67 0 114 -21l-1 -7q-1 -7 -3 -24t-4 -37q-7 -65 -9 -70q-37 22 -88 22q-53 0 -85.5 -32.5t-32.5 -89.5q0 -37 23 -58t64 -21q52 0 109 30l-19 -134q-58 -31 -151 -31q-96 0 -148 55q-53 56 -53 141q0 130 81 203q83 74 203 74zM319 699l133 -190h-118l-42 69
l-68 -69h-119l192 190h22z" />
    <glyph glyph-name="Cdotaccent" unicode="&#x10a;" horiz-adv-x="610" 
d="M564 183l-22 -163q-84 -34 -190 -34q-148 0 -228 78q-78 80 -78 209q0 170 113 285q112 115 295 115q96 0 160 -27l-22 -159q-60 29 -132 29q-89 0 -156 -59q-66 -58 -66 -167q0 -71 42.5 -109t116.5 -38q80 0 167 40zM474 902q35 0 56.5 -22.5t21.5 -56.5q0 -43 -31 -75
q-30 -32 -73 -32q-36 0 -57 22t-21 57q0 46 32 76q32 31 72 31z" />
    <glyph glyph-name="cdotaccent" unicode="&#x10b;" horiz-adv-x="431" 
d="M301 461q67 0 114 -21l-1 -7q-1 -7 -3 -24t-4 -37q-7 -65 -9 -70q-37 22 -88 22q-53 0 -85.5 -32.5t-32.5 -89.5q0 -37 23 -58t64 -21q52 0 109 30l-19 -134q-58 -31 -151 -31q-96 0 -148 55q-53 56 -53 141q0 130 81 203q83 74 203 74zM323 695q35 0 56.5 -22.5
t21.5 -56.5q0 -43 -31 -75q-30 -32 -73 -32q-36 0 -57 22t-21 57q0 46 32 76q32 31 72 31z" />
    <glyph glyph-name="Ccaron" unicode="&#x10c;" horiz-adv-x="610" 
d="M564 183l-22 -163q-84 -34 -190 -34q-148 0 -228 78q-78 80 -78 209q0 170 113 285q112 115 295 115q96 0 160 -27l-22 -159q-60 29 -132 29q-89 0 -156 -59q-66 -58 -66 -167q0 -71 42.5 -109t116.5 -38q80 0 167 40zM451 826l65 68h128l-192 -181h-23l-146 181h118z
" />
    <glyph glyph-name="ccaron" unicode="&#x10d;" horiz-adv-x="431" 
d="M301 461q67 0 114 -21l-1 -7q-1 -7 -3 -24t-4 -37q-7 -65 -9 -70q-37 22 -88 22q-53 0 -85.5 -32.5t-32.5 -89.5q0 -37 23 -58t64 -21q52 0 109 30l-19 -134q-58 -31 -151 -31q-96 0 -148 55q-53 56 -53 141q0 130 81 203q83 74 203 74zM302 622l63 70h121l-186 -191h-22
l-138 191h116z" />
    <glyph glyph-name="Dcaron" unicode="&#x10e;" horiz-adv-x="686" 
d="M284 0h-263l93 659h239q153 0 230 -78q77 -79 77 -205q0 -155 -102 -266q-102 -110 -274 -110zM342 512h-59l-51 -364h62q82 0 131 62.5t49 165.5q0 65 -34 100.5t-98 35.5zM385 819l65 68h128l-192 -181h-23l-146 181h118z" />
    <glyph glyph-name="dcaron" unicode="&#x10f;" horiz-adv-x="723" 
d="M364 0l-9 42h-4q-59 -51 -152 -51q-88 0 -135.5 51t-47.5 137q0 127 75 204t181 77q69 0 109 -38l7 4l40 285h165l-98 -711h-131zM257 127q42 0 70 34t28 85q0 35 -19 56.5t-52 21.5q-42 0 -69 -34.5t-27 -85.5q0 -36 18 -56.5t51 -20.5zM722 719q29 0 45.5 -18t16.5 -48
q0 -42 -37 -106q-38 -64 -79 -105l-49 9l61 124q-39 17 -39 58q0 35 25 60.5t56 25.5z" />
    <glyph glyph-name="Dcroat" unicode="&#x110;" horiz-adv-x="686" 
d="M284 0h-263l41 290h-48l13 88h47l40 281h239q153 0 230 -78q77 -79 77 -205q0 -155 -102 -266q-102 -110 -274 -110zM344 512h-61l-19 -134h106l-12 -88h-107l-19 -142h63q81 1 131 63q49 62 49 165q0 65 -33.5 100.5t-97.5 35.5z" />
    <glyph glyph-name="dslash" unicode="&#x111;" horiz-adv-x="578" 
d="M364 0l-9 42h-4q-59 -51 -152 -51q-88 0 -135.5 51t-47.5 137q0 127 75 204t181 77q69 0 109 -38l7 4l15 113h-131l10 74h131l15 98h165l-14 -98h57l-10 -74h-57l-74 -539h-131zM257 127q42 0 70 34t28 85q0 35 -19 56.5t-52 21.5q-42 0 -69 -34.5t-27 -85.5
q0 -36 18 -56.5t51 -20.5z" />
    <glyph glyph-name="Emacron" unicode="&#x112;" horiz-adv-x="560" 
d="M232 148h281q-6 -46 -10 -74t-10 -74h-472l92 659h450l-21 -147h-258q-4 -20 -9 -57l-6 -44h228l-20 -141h-228q-10 -78 -17 -122zM521 735h-328l15 104h328z" />
    <glyph glyph-name="emacron" unicode="&#x113;" horiz-adv-x="497" 
d="M289 462q81 0 130.5 -37.5t49.5 -98.5q0 -42 -22.5 -74.5t-59 -49.5t-76.5 -25.5t-82 -8.5q-6 0 -36 2v-6q0 -56 85 -56q38 0 83 14.5t78 37.5q-3 -18 -16 -124q-76 -46 -194 -46q-109 0 -160 55t-51 140q0 113 73 195t198 82zM466 539h-324l14 103h324zM273 340
q-31 0 -51.5 -23t-26.5 -64q14 -2 22 -2q40 0 68 14t28 39q0 16 -10.5 26t-29.5 10z" />
    <glyph glyph-name="Ebreve" unicode="&#x114;" horiz-adv-x="560" 
d="M460 878h76q-13 -67 -61 -121q-46 -51 -125 -51q-66 0 -101.5 37.5t-37.5 100.5q0 27 1 34h78q0 -41 19.5 -63t55.5 -22q30 0 56.5 24t38.5 61zM232 148h281q-6 -46 -10 -74t-10 -74h-472l92 659h450l-21 -147h-258q-4 -20 -9 -57l-6 -44h228l-20 -141h-228
q-10 -78 -17 -122z" />
    <glyph glyph-name="ebreve" unicode="&#x115;" horiz-adv-x="497" 
d="M289 462q81 0 130.5 -37.5t49.5 -98.5q0 -42 -22.5 -74.5t-59 -49.5t-76.5 -25.5t-82 -8.5q-6 0 -36 2v-6q0 -56 85 -56q38 0 83 14.5t78 37.5q-3 -18 -16 -124q-76 -46 -194 -46q-109 0 -160 55t-51 140q0 113 73 195t198 82zM410 680h77q-14 -71 -62 -124
q-46 -52 -125 -52q-66 0 -101 38t-37 103q0 27 1 35h78q0 -41 19.5 -63.5t55.5 -22.5q32 0 57.5 23.5t36.5 62.5zM273 340q-31 0 -51.5 -23t-26.5 -64q14 -2 22 -2q40 0 68 14t28 39q0 16 -10.5 26t-29.5 10z" />
    <glyph glyph-name="Edotaccent" unicode="&#x116;" horiz-adv-x="560" 
d="M232 148h281q-6 -46 -10 -74t-10 -74h-472l92 659h450l-21 -147h-258q-4 -20 -9 -57l-6 -44h228l-20 -141h-228q-10 -78 -17 -122zM378 895q35 0 56.5 -22.5t21.5 -56.5q0 -43 -31 -75q-30 -32 -73 -32q-36 0 -57 22t-21 57q0 46 32 76q32 31 72 31z" />
    <glyph glyph-name="edotaccent" unicode="&#x117;" horiz-adv-x="497" 
d="M289 462q81 0 130.5 -37.5t49.5 -98.5q0 -42 -22.5 -74.5t-59 -49.5t-76.5 -25.5t-82 -8.5q-6 0 -36 2v-6q0 -56 85 -56q38 0 83 14.5t78 37.5q-3 -18 -16 -124q-76 -46 -194 -46q-109 0 -160 55t-51 140q0 113 73 195t198 82zM327 694q35 0 56.5 -22.5t21.5 -56.5
q0 -43 -31 -75q-30 -32 -73 -32q-36 0 -57 22t-21 57q0 46 32 76q32 31 72 31zM273 340q-31 0 -51.5 -23t-26.5 -64q14 -2 22 -2q40 0 68 14t28 39q0 16 -10.5 26t-29.5 10z" />
    <glyph glyph-name="Eogonek" unicode="&#x118;" horiz-adv-x="560" 
d="M387 -170q44 0 100 29l-11 -70q-68 -38 -148 -38q-103 0 -103 76q0 40 31 87.5t85 85.5h-320l92 659h450l-21 -147h-258q-4 -20 -9 -57l-6 -44h228l-20 -141h-228q-10 -78 -17 -122h281q-6 -46 -10 -74t-10 -74h-77q-85 -69 -85 -127q0 -43 56 -43z" />
    <glyph glyph-name="eogonek" unicode="&#x119;" horiz-adv-x="497" 
d="M331 -157q44 0 100 29l-11 -70q-68 -38 -148 -38q-103 0 -103 76q0 75 87 151q-6 -1 -27 -1q-109 0 -160 55t-51 140q0 113 73 195t198 82q81 0 130.5 -37.5t49.5 -98.5q0 -42 -22.5 -74.5t-59 -49.5t-76.5 -25.5t-82 -8.5q-6 0 -36 2v-6q0 -56 85 -56q38 0 83 14.5
t78 37.5q-3 -18 -16 -124q-34 -21 -73 -31q-75 -66 -75 -119q0 -43 56 -43zM273 340q-31 0 -51.5 -23t-26.5 -64q14 -2 22 -2q40 0 68 14t28 39q0 16 -10.5 26t-29.5 10z" />
    <glyph glyph-name="Ecaron" unicode="&#x11a;" horiz-adv-x="560" 
d="M232 148h281q-6 -46 -10 -74t-10 -74h-472l92 659h450l-21 -147h-258q-4 -20 -9 -57l-6 -44h228l-20 -141h-228q-10 -78 -17 -122zM366 819l65 68h128l-192 -181h-23l-146 181h118z" />
    <glyph glyph-name="ecaron" unicode="&#x11b;" horiz-adv-x="497" 
d="M289 462q81 0 130.5 -37.5t49.5 -98.5q0 -42 -22.5 -74.5t-59 -49.5t-76.5 -25.5t-82 -8.5q-6 0 -36 2v-6q0 -56 85 -56q38 0 83 14.5t78 37.5q-3 -18 -16 -124q-76 -46 -194 -46q-109 0 -160 55t-51 140q0 113 73 195t198 82zM308 619l63 70h121l-186 -191h-22l-138 191
h116zM273 340q-31 0 -51.5 -23t-26.5 -64q14 -2 22 -2q40 0 68 14t28 39q0 16 -10.5 26t-29.5 10z" />
    <glyph glyph-name="Gcircumflex" unicode="&#x11c;" horiz-adv-x="668" 
d="M458 674q111 0 184 -37l-22 -165q-67 43 -166 43q-94 0 -155 -64t-61 -171q0 -65 35.5 -102t105.5 -37q29 0 59 8l28 199h166l-46 -323q-105 -38 -240 -38q-145 0 -223.5 75.5t-78.5 206.5q0 169 113 287q112 118 301 118zM495 894l141 -181h-126l-44 67l-70 -67h-122
l198 181h23z" />
    <glyph glyph-name="gcircumflex" unicode="&#x11d;" horiz-adv-x="515" 
d="M161 -229q-97 0 -145.5 33.5t-48.5 85.5q0 36 22.5 71t61.5 57l-13 2q-50 8 -50 49q0 19 34 51q8 7 20.5 18l25 22t14.5 13q-29 29 -29 82q0 89 66 148q67 59 161 59q42 0 87 -16h161q-3 -16 -10 -75l-61 -12q12 -24 12 -52q0 -73 -59 -129q-58 -54 -159 -54
q-47 0 -86 13l-31 -35l165 -20q73 -9 110 -34.5t37 -72.5q0 -20 -8 -44t-28.5 -53t-51 -52.5t-82 -39t-115.5 -15.5zM257 230q28 0 47.5 21.5t19.5 53.5q0 22 -13.5 36t-35.5 14q-29 0 -47.5 -22.5t-18.5 -53.5q0 -49 48 -49zM240 -10q-5 0 -12 1.5t-18.5 3t-19.5 2.5l-49 7
q-27 -30 -27 -64q0 -22 18 -35t49 -13q39 0 66.5 21t27.5 49q0 23 -35 28zM341 699l133 -190h-118l-42 69l-68 -69h-119l192 190h22z" />
    <glyph glyph-name="Gbreve" unicode="&#x11e;" horiz-adv-x="668" 
d="M458 674q111 0 184 -37l-22 -165q-67 43 -166 43q-94 0 -155 -64t-61 -171q0 -65 35.5 -102t105.5 -37q29 0 59 8l28 199h166l-46 -323q-105 -38 -240 -38q-145 0 -223.5 75.5t-78.5 206.5q0 169 113 287q112 118 301 118zM567 878h76q-13 -67 -61 -121q-46 -51 -125 -51
q-66 0 -101.5 37.5t-37.5 100.5q0 27 1 34h78q0 -41 19.5 -63t55.5 -22q30 0 56.5 24t38.5 61z" />
    <glyph glyph-name="gbreve" unicode="&#x11f;" horiz-adv-x="515" 
d="M161 -229q-97 0 -145.5 33.5t-48.5 85.5q0 36 22.5 71t61.5 57l-13 2q-50 8 -50 49q0 19 34 51q8 7 20.5 18l25 22t14.5 13q-29 29 -29 82q0 89 66 148q67 59 161 59q42 0 87 -16h161q-3 -16 -10 -75l-61 -12q12 -24 12 -52q0 -73 -59 -129q-58 -54 -159 -54
q-47 0 -86 13l-31 -35l165 -20q73 -9 110 -34.5t37 -72.5q0 -20 -8 -44t-28.5 -53t-51 -52.5t-82 -39t-115.5 -15.5zM257 230q28 0 47.5 21.5t19.5 53.5q0 22 -13.5 36t-35.5 14q-29 0 -47.5 -22.5t-18.5 -53.5q0 -49 48 -49zM240 -10q-5 0 -12 1.5t-18.5 3t-19.5 2.5l-49 7
q-27 -30 -27 -64q0 -22 18 -35t49 -13q39 0 66.5 21t27.5 49q0 23 -35 28zM406 680h77q-14 -71 -62 -124q-46 -52 -125 -52q-66 0 -101 38t-37 103q0 27 1 35h78q0 -41 19.5 -63.5t55.5 -22.5q32 0 57.5 23.5t36.5 62.5z" />
    <glyph glyph-name="Gdotaccent" unicode="&#x120;" horiz-adv-x="668" 
d="M458 674q111 0 184 -37l-22 -165q-67 43 -166 43q-94 0 -155 -64t-61 -171q0 -65 35.5 -102t105.5 -37q29 0 59 8l28 199h166l-46 -323q-105 -38 -240 -38q-145 0 -223.5 75.5t-78.5 206.5q0 169 113 287q112 118 301 118zM485 902q35 0 56.5 -22.5t21.5 -56.5
q0 -43 -31 -75q-30 -32 -73 -32q-36 0 -57 22t-21 57q0 46 32 76q32 31 72 31z" />
    <glyph glyph-name="gdotaccent" unicode="&#x121;" horiz-adv-x="515" 
d="M161 -229q-97 0 -145.5 33.5t-48.5 85.5q0 36 22.5 71t61.5 57l-13 2q-50 8 -50 49q0 19 34 51q8 7 20.5 18l25 22t14.5 13q-29 29 -29 82q0 89 66 148q67 59 161 59q42 0 87 -16h161q-3 -16 -10 -75l-61 -12q12 -24 12 -52q0 -73 -59 -129q-58 -54 -159 -54
q-47 0 -86 13l-31 -35l165 -20q73 -9 110 -34.5t37 -72.5q0 -20 -8 -44t-28.5 -53t-51 -52.5t-82 -39t-115.5 -15.5zM257 230q28 0 47.5 21.5t19.5 53.5q0 22 -13.5 36t-35.5 14q-29 0 -47.5 -22.5t-18.5 -53.5q0 -49 48 -49zM240 -10q-5 0 -12 1.5t-18.5 3t-19.5 2.5l-49 7
q-27 -30 -27 -64q0 -22 18 -35t49 -13q39 0 66.5 21t27.5 49q0 23 -35 28zM324 693q35 0 56.5 -22.5t21.5 -56.5q0 -43 -31 -75q-30 -32 -73 -32q-36 0 -57 22t-21 57q0 46 32 76q32 31 72 31z" />
    <glyph glyph-name="Gcommaaccent" unicode="&#x122;" horiz-adv-x="668" 
d="M458 674q111 0 184 -37l-22 -165q-67 43 -166 43q-94 0 -155 -64t-61 -171q0 -65 35.5 -102t105.5 -37q29 0 59 8l28 199h166l-46 -323q-105 -38 -240 -38q-145 0 -223.5 75.5t-78.5 206.5q0 169 113 287q112 118 301 118zM350 -52q29 0 45.5 -18t16.5 -48
q0 -43 -37 -105q-37 -65 -79 -106l-49 9l61 124q-39 16 -39 58q0 35 25 60.5t56 25.5z" />
    <glyph glyph-name="gcommaaccent" unicode="&#x123;" horiz-adv-x="515" 
d="M161 -229q-97 0 -145.5 33.5t-48.5 85.5q0 36 22.5 71t61.5 57l-13 2q-50 8 -50 49q0 19 34 51q8 7 20.5 18l25 22t14.5 13q-29 29 -29 82q0 89 66 148q67 59 161 59q42 0 87 -16h161q-3 -16 -10 -75l-61 -12q12 -24 12 -52q0 -73 -59 -129q-58 -54 -159 -54
q-47 0 -86 13l-31 -35l165 -20q73 -9 110 -34.5t37 -72.5q0 -20 -8 -44t-28.5 -53t-51 -52.5t-82 -39t-115.5 -15.5zM257 230q28 0 47.5 21.5t19.5 53.5q0 22 -13.5 36t-35.5 14q-29 0 -47.5 -22.5t-18.5 -53.5q0 -49 48 -49zM240 -10q-5 0 -12 1.5t-18.5 3t-19.5 2.5l-49 7
q-27 -30 -27 -64q0 -22 18 -35t49 -13q39 0 66.5 21t27.5 49q0 23 -35 28zM317 507q-29 0 -45.5 18t-16.5 48q0 43 37 105q37 64 79 106l49 -9l-61 -124q39 -17 39 -58q0 -35 -25 -60.5t-56 -25.5z" />
    <glyph glyph-name="Hcircumflex" unicode="&#x124;" horiz-adv-x="688" 
d="M688 659l-92 -659h-191l37 266h-194l-36 -266h-191l92 659h191l-34 -244h193l34 244h191zM449 893l141 -181h-126l-44 67l-70 -67h-122l198 181h23z" />
    <glyph glyph-name="hcircumflex" unicode="&#x125;" horiz-adv-x="552" 
d="M512 298l-42 -298h-171l34 239q2 18 2 32q0 51 -42 51q-50 0 -70 -68q-14 -47 -27 -138q0 -3 -0.5 -9t-1.5 -8l-14 -99h-170l99 711h165l-44 -314l1 -1h2q62 65 144 65q67 0 102 -33.5t35 -95.5q0 -2 -2 -34zM236 932l141 -181h-126l-44 67l-70 -67h-122l198 181h23z" />
    <glyph glyph-name="Hbar" unicode="&#x126;" horiz-adv-x="688" 
d="M91 500h-41l11 76h41l11 83h191l-12 -83h193q2 5 12 83h191l-12 -83h40l-10 -76h-40l-70 -500h-191l37 266h-194l-36 -266h-191zM282 500l-12 -85h193l12 85h-193z" />
    <glyph glyph-name="hbar" unicode="&#x127;" horiz-adv-x="552" 
d="M511 292l-41 -292h-171l34 249q1 3 1 11q0 62 -41 62q-70 0 -85 -134l-14 -94l-14 -94h-170l75 542h-42l10 75h43l13 94h165l-13 -94h150l-10 -75h-151l-20 -145l1 -1h2q60 64 144 64q65 0 100.5 -33t35.5 -94q0 -23 -2 -41z" />
    <glyph glyph-name="Itilde" unicode="&#x128;" horiz-adv-x="311" 
d="M368 872l31 -67q-43 -90 -107 -90q-26 0 -67 25q-41 26 -59 26q-31 0 -64 -56l-35 68q21 41 50.5 66t61.5 25q23 0 63 -27q42 -27 62 -27q28 0 64 57zM307 659l-92 -659h-191l92 659h191z" />
    <glyph glyph-name="itilde" unicode="&#x129;" horiz-adv-x="275" 
d="M322 677l31 -67q-43 -90 -107 -90q-26 0 -67 25q-41 26 -59 26q-31 0 -64 -56l-35 68q21 41 50.5 66t61.5 25q23 0 63 -27q42 -27 62 -27q28 0 64 57zM250 446l-62 -446h-172l62 446h172z" />
    <glyph glyph-name="Imacron" unicode="&#x12a;" horiz-adv-x="311" 
d="M307 659l-92 -659h-191l92 659h191zM390 734h-328l15 104h328z" />
    <glyph glyph-name="imacron" unicode="&#x12b;" horiz-adv-x="275" 
d="M250 446l-62 -446h-172l62 446h172zM340 539h-324l14 103h324z" />
    <glyph glyph-name="Ibreve" unicode="&#x12c;" horiz-adv-x="311" 
d="M331 880h76q-13 -67 -61 -121q-46 -51 -125 -51q-66 0 -101.5 37.5t-37.5 100.5q0 27 1 34h78q0 -41 19.5 -63t55.5 -22q30 0 56.5 24t38.5 61zM307 659l-92 -659h-191l92 659h191z" />
    <glyph glyph-name="ibreve" unicode="&#x12d;" horiz-adv-x="275" 
d="M284 680h77q-14 -71 -62 -124q-46 -52 -125 -52q-66 0 -101 38t-37 103q0 27 1 35h78q0 -41 19.5 -63.5t55.5 -22.5q32 0 57.5 23.5t36.5 62.5zM250 446l-62 -446h-172l62 446h172z" />
    <glyph glyph-name="Iogonek" unicode="&#x12e;" horiz-adv-x="311" 
d="M124 -171q44 0 100 29l-11 -70q-68 -38 -148 -38q-103 0 -103 76q0 40 31.5 88t85.5 86h-55l92 659h191l-92 -659h-61q-38 -31 -62 -66t-24 -62q0 -43 56 -43z" />
    <glyph glyph-name="iogonek" unicode="&#x12f;" horiz-adv-x="275" 
d="M101 -171q44 0 100 29l-11 -70q-68 -38 -148 -38q-103 0 -103 76q0 40 31.5 88t85.5 86h-40l62 446h172l-62 -446h-57q-38 -31 -62 -66t-24 -62q0 -43 56 -43zM201 695q35 0 57 -22.5t22 -56.5q0 -43 -31 -75q-32 -32 -73 -32q-36 0 -57 22t-21 57q0 44 32 76
q32 31 71 31z" />
    <glyph glyph-name="Idot" unicode="&#x130;" horiz-adv-x="311" 
d="M307 659l-92 -659h-191l92 659h191zM249 894q35 0 56.5 -22.5t21.5 -56.5q0 -43 -31 -75q-30 -32 -73 -32q-36 0 -57 22t-21 57q0 46 32 76q32 31 72 31z" />
    <glyph glyph-name="dotlessi" unicode="&#x131;" horiz-adv-x="275" 
d="M250 446l-62 -446h-172l62 446h172z" />
    <glyph glyph-name="IJ" unicode="&#x132;" horiz-adv-x="790" 
d="M408 147q60 0 92.5 33t42.5 103l53 376h193q-2 -19 -51 -364q-18 -134 -80 -214q-70 -94 -231 -94q-98 0 -162 37q10 76 20 163q62 -40 123 -40zM305 659l-92 -659h-191l92 659h191z" />
    <glyph glyph-name="ij" unicode="&#x133;" horiz-adv-x="537" 
d="M464 694q35 0 57 -22t22 -56q0 -43 -31 -75q-32 -32 -73 -32q-36 0 -57 22t-21 56q0 46 32 76q32 31 71 31zM177 -233l-48 143q85 4 117 36t44 119l54 381h170l-55 -395q-21 -149 -93 -213q-71 -63 -189 -71zM250 446l-62 -446h-172l62 446h172zM201 695q35 0 57 -22.5
t22 -56.5q0 -43 -31 -75q-32 -32 -73 -32q-36 0 -57 22t-21 57q0 44 32 76q32 31 71 31z" />
    <glyph glyph-name="Jcircumflex" unicode="&#x134;" horiz-adv-x="510" 
d="M128 148q60 0 92.5 33t42.5 103l53 376h193q-2 -19 -51 -364q-18 -134 -80 -214q-70 -94 -231 -94q-98 0 -162 37q10 77 20 163q62 -40 123 -40zM462 893l141 -181h-126l-44 67l-70 -67h-122l198 181h23z" />
    <glyph glyph-name="jcircumflex" unicode="&#x135;" horiz-adv-x="271" 
d="M-89 -233l-46 142q85 5 116 39t43 117l54 381h170l-55 -395q-19 -148 -94 -213q-74 -65 -188 -71zM214 699l133 -190h-118l-42 69l-68 -69h-119l192 190h22z" />
    <glyph glyph-name="Kcommaaccent" unicode="&#x136;" horiz-adv-x="659" 
d="M114 660h191l-42 -299l227 299h210l-265 -322l183 -338h-207l-154 320l-44 -320h-191zM296 -37q29 0 45.5 -18t16.5 -48q0 -43 -37 -105q-38 -64 -79 -106l-49 9l61 124q-39 17 -39 58q0 35 25 60.5t56 25.5z" />
    <glyph glyph-name="kcommaaccent" unicode="&#x137;" horiz-adv-x="543" 
d="M371 446h186l-179 -214l125 -232h-183l-103 213l-30 -213h-177l99 711h177l-64 -463zM234 -41q29 0 45.5 -18t16.5 -48q0 -43 -37 -105q-38 -65 -79 -106l-49 9l61 124q-39 17 -39 58q0 35 25 60.5t56 25.5z" />
    <glyph glyph-name="kgreenlandic" unicode="&#x138;" horiz-adv-x="546" 
d="M375 446h185l-177 -214l123 -232h-185l-102 213l-29 -213h-178l62 446h178q-7 -44 -28 -198z" />
    <glyph glyph-name="Lacute" unicode="&#x139;" horiz-adv-x="526" 
d="M22 0l92 659h191l-72 -511h269q-6 -46 -10 -74t-10 -74h-460zM400 844l-157 -135h-98l150 191z" />
    <glyph glyph-name="lacute" unicode="&#x13a;" horiz-adv-x="267" 
d="M284 711l-99 -711h-173l99 711h173zM396 884l-157 -135h-98l150 191z" />
    <glyph glyph-name="Lcommaaccent" unicode="&#x13b;" horiz-adv-x="526" 
d="M22 0l92 659h191l-72 -511h269q-6 -46 -10 -74t-10 -74h-460zM254 -42q29 0 45.5 -18t16.5 -48q0 -43 -37 -105q-37 -64 -79 -106l-49 9l61 124q-39 16 -39 58q0 35 25 60.5t56 25.5z" />
    <glyph glyph-name="lcommaaccent" unicode="&#x13c;" horiz-adv-x="267" 
d="M284 711l-99 -711h-173l99 711h173zM103 -42q29 0 45.5 -18t16.5 -48q0 -43 -37 -105q-38 -65 -79 -106l-49 9l61 124q-39 16 -39 58q0 35 25 60.5t56 25.5z" />
    <glyph glyph-name="Lcaron" unicode="&#x13d;" horiz-adv-x="526" 
d="M22 0l92 659h191l-72 -511h269q-6 -46 -10 -74t-10 -74h-460zM499 672q29 0 45.5 -18t16.5 -48q0 -42 -37 -106q-38 -64 -79 -105l-49 9l61 124q-39 16 -39 58q0 35 25 60.5t56 25.5z" />
    <glyph glyph-name="lcaron" unicode="&#x13e;" horiz-adv-x="409" 
d="M284 711l-99 -711h-173l99 711h173zM406 721q29 0 45.5 -18t16.5 -48q0 -42 -37 -106q-38 -64 -79 -105l-49 9l61 124q-39 17 -39 58q0 35 25 60.5t56 25.5z" />
    <glyph glyph-name="Ldot" unicode="&#x13f;" horiz-adv-x="554" 
d="M22 0l92 659h191l-72 -511h269q-6 -46 -10 -74t-10 -74h-460zM454 456q35 0 56.5 -22.5t21.5 -56.5q0 -43 -31 -75q-30 -32 -73 -32q-36 0 -57 22t-21 57q0 46 32 76q32 31 72 31z" />
    <glyph glyph-name="ldot" unicode="&#x140;" horiz-adv-x="422" 
d="M284 711l-99 -711h-173l99 711h173zM371 455q35 0 56.5 -22.5t21.5 -56.5q0 -43 -31 -75q-30 -32 -73 -32q-36 0 -57 22t-21 57q0 46 32 76q32 31 72 31z" />
    <glyph glyph-name="Lslash" unicode="&#x141;" horiz-adv-x="526" 
d="M57 244l-65 -24q9 60 10 76l65 25l47 338h191q-30 -214 -38 -271l119 48l-11 -80l-120 -46q-2 -10 -5.5 -38.5t-5.5 -42.5q-2 -13 -5.5 -42t-5.5 -39h269q-6 -46 -10 -74t-10 -74h-460z" />
    <glyph glyph-name="lslash" unicode="&#x142;" horiz-adv-x="267" 
d="M229 324l-44 -324h-173l37 266l-65 -25l11 77l65 26l52 367h172l-43 -307l72 28l-12 -80z" />
    <glyph glyph-name="Nacute" unicode="&#x143;" horiz-adv-x="701" 
d="M256 326l-45 -326h-190l95 676h22l324 -329h4l45 312h190l-94 -675h-20l-328 342h-3zM578 843l-157 -135h-98l150 191z" />
    <glyph glyph-name="nacute" unicode="&#x144;" horiz-adv-x="556" 
d="M214 446l10 -61l3 1q65 74 157 74q65 0 98.5 -32.5t33.5 -93.5q0 -15 -6 -66l-37 -268h-172l35 249q4 32 -6 52.5t-34 20.5q-68 0 -82 -103l-31 -219h-171l62 446h140zM469 648l-153 -139h-97l147 196z" />
    <glyph glyph-name="Ncommaaccent" unicode="&#x145;" horiz-adv-x="701" 
d="M256 326l-45 -326h-190l95 676h22l324 -329h4l45 312h190l-94 -675h-20l-328 342h-3zM333 -37q29 0 45.5 -18t16.5 -48q0 -43 -37 -105q-38 -64 -79 -106l-49 9l61 124q-39 17 -39 58q0 35 25 60.5t56 25.5z" />
    <glyph glyph-name="ncommaaccent" unicode="&#x146;" horiz-adv-x="556" 
d="M214 446l10 -61l3 1q65 74 157 74q65 0 98.5 -32.5t33.5 -93.5q0 -15 -6 -66l-37 -268h-172l35 249q4 32 -6 52.5t-34 20.5q-68 0 -82 -103l-31 -219h-171l62 446h140zM239 -40q29 0 45.5 -18t16.5 -48q0 -43 -37 -105q-37 -65 -79 -106l-49 9l61 124q-39 16 -39 58
q0 35 25 60.5t56 25.5z" />
    <glyph glyph-name="Ncaron" unicode="&#x147;" horiz-adv-x="701" 
d="M256 326l-45 -326h-190l95 676h22l324 -329h4l45 312h190l-94 -675h-20l-328 342h-3zM424 819l65 68h128l-192 -181h-23l-146 181h118z" />
    <glyph glyph-name="ncaron" unicode="&#x148;" horiz-adv-x="556" 
d="M214 446l10 -61l3 1q65 74 157 74q65 0 98.5 -32.5t33.5 -93.5q0 -15 -6 -66l-37 -268h-172l35 249q4 32 -6 52.5t-34 20.5q-68 0 -82 -103l-31 -219h-171l62 446h140zM308 619l63 70h121l-186 -191h-22l-138 191h116z" />
    <glyph glyph-name="napostrophe" unicode="&#x149;" horiz-adv-x="612" 
d="M270 446l10 -61l3 1q65 74 157 74q65 0 98.5 -32.5t33.5 -93.5q0 -15 -6 -66l-37 -268h-172l35 249q4 32 -6 52.5t-34 20.5q-68 0 -82 -103l-31 -219h-171l62 446h140zM133 741q29 0 45.5 -18t16.5 -48q0 -42 -37 -106q-38 -64 -79 -105l-49 9l61 124q-39 17 -39 58
q0 35 25 60.5t56 25.5z" />
    <glyph glyph-name="Eng" unicode="&#x14a;" horiz-adv-x="701" 
d="M257 335l-46 -335h-190l95 678h23l322 -342h4l46 323h190l-86 -611q-21 -146 -94 -214t-197 -71l-59 132q88 6 121 42q34 36 45 114l10 70l-180 214h-4z" />
    <glyph glyph-name="eng" unicode="&#x14b;" horiz-adv-x="556" 
d="M512 279l-33 -234q-21 -144 -91.5 -210.5t-192.5 -70.5l-50 128q91 0 124 52q28 43 41 129l26 176q5 33 -5.5 53t-34.5 20q-31 0 -53 -24t-28 -69l-32 -229h-171l62 446h141l7 -58h1q1 -1 2 -1q67 73 158 73q65 0 99 -32t34 -93q0 -29 -4 -56z" />
    <glyph glyph-name="Omacron" unicode="&#x14c;" horiz-adv-x="778" 
d="M447 673q141 0 223 -84q83 -83 83 -213q0 -164 -117 -277q-115 -112 -284 -112q-140 0 -222 82t-82 212q0 163 113 278q114 114 286 114zM375 143q80 0 134 64t54 158q0 67 -35.5 108t-99.5 41q-80 0 -136 -65q-54 -65 -54 -154q0 -68 37.5 -110t99.5 -42zM622 735h-328
l15 104h328z" />
    <glyph glyph-name="omacron" unicode="&#x14d;" horiz-adv-x="550" 
d="M304 461q104 0 161.5 -53.5t57.5 -144.5q0 -119 -79 -197q-80 -77 -204 -77q-104 0 -163 53.5t-59 144.5q0 117 80 195q79 79 206 79zM288 322q-43 0 -69.5 -34.5t-26.5 -84.5q0 -36 17.5 -56t50.5 -20q42 0 70 34t28 84q0 36 -18.5 56.5t-51.5 20.5zM483 539h-324
l14 103h324z" />
    <glyph glyph-name="Obreve" unicode="&#x14e;" horiz-adv-x="778" 
d="M447 673q141 0 223 -84q83 -83 83 -213q0 -164 -117 -277q-115 -112 -284 -112q-140 0 -222 82t-82 212q0 163 113 278q114 114 286 114zM375 143q80 0 134 64t54 158q0 67 -35.5 108t-99.5 41q-80 0 -136 -65q-54 -65 -54 -154q0 -68 37.5 -110t99.5 -42zM566 878h76
q-13 -67 -61 -121q-47 -51 -125 -51q-66 0 -101.5 37.5t-37.5 100.5q0 27 1 34h78q0 -41 19.5 -63t55.5 -22q30 0 56.5 24t38.5 61z" />
    <glyph glyph-name="obreve" unicode="&#x14f;" horiz-adv-x="550" 
d="M304 461q104 0 161.5 -53.5t57.5 -144.5q0 -119 -79 -197q-80 -77 -204 -77q-104 0 -163 53.5t-59 144.5q0 117 80 195q79 79 206 79zM288 322q-43 0 -69.5 -34.5t-26.5 -84.5q0 -36 17.5 -56t50.5 -20q42 0 70 34t28 84q0 36 -18.5 56.5t-51.5 20.5zM425 680h77
q-14 -71 -62 -124q-46 -52 -125 -52q-66 0 -101 38t-37 103q0 27 1 35h78q0 -41 19.5 -63.5t55.5 -22.5q32 0 57.5 23.5t36.5 62.5z" />
    <glyph glyph-name="Ohungarumlaut" unicode="&#x150;" horiz-adv-x="778" 
d="M447 673q141 0 223 -84q83 -83 83 -213q0 -164 -117 -277q-115 -112 -284 -112q-140 0 -222 82t-82 212q0 163 113 278q114 114 286 114zM375 143q80 0 134 64t54 158q0 67 -35.5 108t-99.5 41q-80 0 -136 -65q-54 -65 -54 -154q0 -68 37.5 -110t99.5 -42zM736 846
l-158 -137h-98l152 193zM567 846l-159 -137h-98l152 193z" />
    <glyph glyph-name="ohungarumlaut" unicode="&#x151;" horiz-adv-x="550" 
d="M304 461q104 0 161.5 -53.5t57.5 -144.5q0 -119 -79 -197q-80 -77 -204 -77q-104 0 -163 53.5t-59 144.5q0 117 80 195q79 79 206 79zM288 322q-43 0 -69.5 -34.5t-26.5 -84.5q0 -36 17.5 -56t50.5 -20q42 0 70 34t28 84q0 36 -18.5 56.5t-51.5 20.5zM589 661l-160 -140
h-92l148 197zM424 661l-159 -140h-93l149 197z" />
    <glyph glyph-name="OE" unicode="&#x152;" horiz-adv-x="959" 
d="M451 674q60 0 108 -15h403l-21 -147h-257l-14 -101h228l-20 -141h-228l-17 -122h278q-20 -143 -20 -148h-433q-46 -13 -105 -13q-144 0 -226 82q-81 83 -81 212q0 167 113 280q115 113 292 113zM378 143q33 0 66 14l49 344q-31 14 -63 14q-82 0 -138 -65
q-55 -64 -55 -155q0 -69 38 -110.5t103 -41.5z" />
    <glyph glyph-name="oe" unicode="&#x153;" horiz-adv-x="834" 
d="M629 462q81 0 131 -38t50 -98q0 -81 -83 -120q-72 -31 -151 -31q-22 0 -43 3q0 -70 85 -70q87 0 161 52l-16 -124q-76 -46 -193 -46q-110 0 -161 62q-64 -62 -175 -62q-103 0 -159 53t-56 144q0 119 78 196q79 77 203 77q106 0 155 -63q71 65 174 65zM288 322
q-43 0 -70 -35t-27 -85q0 -36 17.5 -55.5t50.5 -19.5q43 0 71 34t28 84q0 34 -19 55.5t-51 21.5zM613 340q-31 0 -51.5 -22.5t-26.5 -63.5q11 -3 23 -3q45 0 70 14.5t25 38.5q0 16 -10.5 26t-29.5 10z" />
    <glyph glyph-name="Racute" unicode="&#x154;" horiz-adv-x="635" 
d="M113 659h273q102 0 164 -49q64 -48 64 -133q0 -139 -141 -219l124 -258h-204l-106 285l3 16q66 13 99 54t33 80q0 36 -21 56.5t-60 20.5h-58l-72 -512h-190zM526 844l-157 -135h-98l150 191z" />
    <glyph glyph-name="racute" unicode="&#x155;" horiz-adv-x="402" 
d="M199 446l6 -85l4 -1q41 99 140 99q35 0 71 -14q0 -1 -1.5 -12.5t-4 -29.5t-5.5 -39l-10 -80q-38 22 -78 22q-43 0 -75 -34t-40 -95l-23 -177h-171l62 446h125zM380 648l-153 -139h-97l147 196z" />
    <glyph glyph-name="Rcommaaccent" unicode="&#x156;" horiz-adv-x="635" 
d="M113 659h273q102 0 164 -49q64 -48 64 -133q0 -139 -141 -219l124 -258h-204l-106 285l3 16q66 13 99 54t33 80q0 36 -21 56.5t-60 20.5h-58l-72 -512h-190zM274 -36q29 0 45.5 -18t16.5 -48q0 -43 -37 -105q-37 -65 -79 -106l-49 9l61 124q-39 16 -39 58q0 35 25 60.5
t56 25.5z" />
    <glyph glyph-name="rcommaaccent" unicode="&#x157;" horiz-adv-x="402" 
d="M199 446l6 -85l4 -1q41 99 140 99q35 0 71 -14q0 -1 -1.5 -12.5t-4 -29.5t-5.5 -39l-10 -80q-38 22 -78 22q-43 0 -75 -34t-40 -95l-23 -177h-171l62 446h125zM96 -42q29 0 45.5 -18t16.5 -48q0 -43 -37 -105q-38 -65 -79 -106l-49 9l61 124q-39 16 -39 58q0 35 25 60.5
t56 25.5z" />
    <glyph glyph-name="Rcaron" unicode="&#x158;" horiz-adv-x="635" 
d="M113 659h273q102 0 164 -49q64 -48 64 -133q0 -139 -141 -219l124 -258h-204l-106 285l3 16q66 13 99 54t33 80q0 36 -21 56.5t-60 20.5h-58l-72 -512h-190zM371 819l65 68h128l-192 -181h-23l-146 181h118z" />
    <glyph glyph-name="rcaron" unicode="&#x159;" horiz-adv-x="402" 
d="M199 446l6 -85l4 -1q41 99 140 99q35 0 71 -14q0 -1 -1.5 -12.5t-4 -29.5t-5.5 -39l-10 -80q-38 22 -78 22q-43 0 -75 -34t-40 -95l-23 -177h-171l62 446h125zM240 619l63 70h121l-186 -191h-22l-138 191h116z" />
    <glyph glyph-name="Sacute" unicode="&#x15a;" horiz-adv-x="550" 
d="M0 40l23 167q35 -31 96 -54q61 -21 108 -21q40 0 66.5 17.5t26.5 45.5q0 45 -90 87q-34 17 -57 30.5t-51 36.5t-42.5 52.5t-13.5 64.5q0 90 71 150q72 60 195 60q108 0 200 -43q-8 -48 -22 -154q-28 20 -80 37q-51 17 -88 17t-60.5 -14t-23.5 -40q0 -28 90 -72
q168 -69 167 -195q0 -81 -64 -151q-72 -75 -221 -75q-143 0 -230 54zM499 843l-157 -135h-98l150 191z" />
    <glyph glyph-name="sacute" unicode="&#x15b;" 
d="M-11 28l9 64q3 33 8 65q27 -25 68.5 -40.5t76.5 -15.5q52 0 52 33q0 12 -17 24t-41.5 25.5t-49.5 29.5t-42 42.5t-17 59.5q0 64 51.5 104.5t139.5 40.5q81 0 153 -32l-16 -119q-55 35 -110 35q-48 0 -48 -30q0 -18 80 -58q33 -17 56.5 -49t23.5 -71q0 -63 -54 -105
t-154 -42q-102 0 -169 39zM397 648l-153 -139h-97l147 196z" />
    <glyph glyph-name="Scircumflex" unicode="&#x15c;" horiz-adv-x="550" 
d="M0 40l23 167q35 -31 96 -54q61 -21 108 -21q40 0 66.5 17.5t26.5 45.5q0 45 -90 87q-34 17 -57 30.5t-51 36.5t-42.5 52.5t-13.5 64.5q0 90 71 150q72 60 195 60q108 0 200 -43q-8 -48 -22 -154q-28 20 -80 37q-51 17 -88 17t-60.5 -14t-23.5 -40q0 -28 90 -72
q168 -69 167 -195q0 -81 -64 -151q-72 -75 -221 -75q-143 0 -230 54zM382 895l141 -181h-126l-44 67l-70 -67h-122l198 181h23z" />
    <glyph glyph-name="scircumflex" unicode="&#x15d;" 
d="M-11 28l9 64q3 33 8 65q27 -25 68.5 -40.5t76.5 -15.5q52 0 52 33q0 12 -17 24t-41.5 25.5t-49.5 29.5t-42 42.5t-17 59.5q0 64 51.5 104.5t139.5 40.5q81 0 153 -32l-16 -119q-55 35 -110 35q-48 0 -48 -30q0 -18 80 -58q33 -17 56.5 -49t23.5 -71q0 -63 -54 -105
t-154 -42q-102 0 -169 39zM282 699l133 -190h-118l-42 69l-68 -69h-119l192 190h22z" />
    <glyph glyph-name="Scedilla" unicode="&#x15e;" horiz-adv-x="550" 
d="M142 -122l-16 15l61 95q-116 8 -187 52l23 167q35 -31 96 -54q61 -21 108 -21q40 0 66.5 17.5t26.5 45.5q0 45 -90 87q-34 17 -57 30.5t-51 36.5t-42.5 52.5t-13.5 64.5q0 90 71 150q72 60 195 60q108 0 200 -43q-8 -48 -22 -154q-28 20 -80 37q-51 17 -88 17t-60.5 -14
t-23.5 -40q0 -28 90 -72q168 -69 167 -195q0 -39 -15 -76.5t-45.5 -71t-84.5 -55t-125 -23.5l-30 -41q49 -4 75 -26.5t26 -57.5q0 -42 -39 -81q-37 -39 -116 -39q-43 0 -85 16l-6 73q36 -18 89 -18q27 0 43 12.5t16 33.5t-23.5 27t-52.5 -7z" />
    <glyph glyph-name="scedilla" unicode="&#x15f;" 
d="M67 -121l-16 15l63 97q-78 9 -125 37l9 64q3 33 8 65q27 -25 68.5 -40.5t76.5 -15.5q52 0 52 33q0 12 -17 24t-41.5 25.5t-49.5 29.5t-42 42.5t-17 59.5q0 64 51.5 104.5t139.5 40.5q81 0 153 -32l-16 -119q-55 35 -110 35q-48 0 -48 -30q0 -18 80 -58q33 -17 56.5 -49
t23.5 -71q0 -61 -51 -102t-144 -45l-31 -43q49 -4 75 -26.5t26 -57.5q0 -42 -39 -81q-38 -39 -116 -39q-43 0 -85 16l-6 73q36 -18 89 -18q27 0 43 12.5t16 33.5t-23.5 27t-52.5 -7z" />
    <glyph glyph-name="Scaron" unicode="&#x160;" horiz-adv-x="550" 
d="M0 40l23 167q35 -31 96 -54q61 -21 108 -21q40 0 66.5 17.5t26.5 45.5q0 45 -90 87q-34 17 -57 30.5t-51 36.5t-42.5 52.5t-13.5 64.5q0 90 71 150q72 60 195 60q108 0 200 -43q-8 -48 -22 -154q-28 20 -80 37q-51 17 -88 17t-60.5 -14t-23.5 -40q0 -28 90 -72
q168 -69 167 -195q0 -81 -64 -151q-72 -75 -221 -75q-143 0 -230 54zM339 819l65 68h128l-192 -181h-23l-146 181h118z" />
    <glyph glyph-name="scaron" unicode="&#x161;" 
d="M-11 28l9 64q3 33 8 65q27 -25 68.5 -40.5t76.5 -15.5q52 0 52 33q0 12 -17 24t-41.5 25.5t-49.5 29.5t-42 42.5t-17 59.5q0 64 51.5 104.5t139.5 40.5q81 0 153 -32l-16 -119q-55 35 -110 35q-48 0 -48 -30q0 -18 80 -58q33 -17 56.5 -49t23.5 -71q0 -63 -54 -105
t-154 -42q-102 0 -169 39zM249 619l63 70h121l-186 -191h-22l-138 191h116z" />
    <glyph glyph-name="Tcommaaccent" unicode="&#x162;" horiz-adv-x="562" 
d="M162 -121l-16 15l69 106h-65l71 512h-173l20 148h540l-21 -148h-175l-72 -512h-66l-39 -54q49 -4 75 -26.5t26 -57.5q0 -42 -39 -81q-37 -39 -116 -39q-43 0 -85 16l-6 73q36 -18 89 -18q27 0 43 12.5t16 33.5t-23.5 27t-52.5 -7z" />
    <glyph glyph-name="tcommaaccent" unicode="&#x163;" horiz-adv-x="383" 
d="M69 -121l-16 15l70 108q-62 32 -62 119q0 29 8 96l9 53l8 48h-64l14 95l235 184h24l-21 -151h112l-19 -128h-112l-18 -128q-2 -18 -2 -19q0 -48 46 -48q29 0 73 23l-18 -126q-56 -33 -132 -33q-5 0 -31 2l-31 -43q49 -4 75 -26.5t26 -57.5q0 -42 -39 -81
q-38 -39 -116 -39q-43 0 -85 16l-6 73q36 -18 89 -18q27 0 43 12.5t16 33.5t-23.5 27t-52.5 -7z" />
    <glyph glyph-name="Tcaron" unicode="&#x164;" horiz-adv-x="562" 
d="M608 660l-21 -148h-175l-72 -512h-190l71 512h-173l20 148h540zM358 819l65 68h128l-192 -181h-23l-146 181h118z" />
    <glyph glyph-name="tcaron" unicode="&#x165;" horiz-adv-x="457" 
d="M36 413l235 184h24l-21 -151h112l-19 -128h-112l-18 -128q-2 -18 -2 -19q0 -48 46 -48q29 0 73 23l-18 -126q-56 -33 -132 -33q-143 0 -143 134q0 29 8 96l9 53l8 48h-64zM471 771q29 0 45.5 -18t16.5 -48q0 -42 -37 -106q-38 -64 -79 -105l-49 9l61 124q-39 17 -39 58
q0 35 25 60.5t56 25.5z" />
    <glyph glyph-name="Tbar" unicode="&#x166;" horiz-adv-x="562" 
d="M608 660l-21 -148h-175l-21 -147h129l-11 -76h-129l-40 -289h-190l40 289h-127l11 76h127l20 147h-173l20 148h540z" />
    <glyph glyph-name="tbar" unicode="&#x167;" horiz-adv-x="384" 
d="M36 413l236 184h23l-21 -151h111l-18 -128h-112q-3 -31 -5 -40h90l-9 -65h-90q-3 -29 -3 -54q0 -36 43 -36q30 0 73 22l-18 -125q-57 -33 -133 -33q-141 0 -141 135q0 20 3 44l6 47h-53q7 51 10 65h53l5 40h-64z" />
    <glyph glyph-name="Utilde" unicode="&#x168;" horiz-adv-x="694" 
d="M467 260l56 399h190q-1 -17 -54 -385q-18 -133 -103 -209.5t-227 -76.5q-135 0 -202 76q-68 77 -48 211l53 384h192l-55 -393q-7 -45 10 -83q18 -36 73 -36q47 0 77.5 32.5t37.5 80.5zM575 875l31 -67q-44 -90 -107 -90q-26 0 -67 25q-41 26 -59 26q-31 0 -64 -56l-35 68
q21 41 50.5 66t61.5 25q22 0 63 -27q42 -27 62 -27q28 0 64 57z" />
    <glyph glyph-name="utilde" unicode="&#x169;" horiz-adv-x="549" 
d="M33 156l41 290h170l-35 -253q-4 -31 7 -49t35 -18q26 0 46.5 27.5t26.5 67.5q24 175 31 225h173l-62 -446h-146q-5 61 -5 64h-5q-57 -73 -152 -73q-61 0 -94 33t-33 92q0 22 2 40zM459 675l31 -67q-44 -90 -107 -90q-26 0 -67 25q-41 26 -59 26q-31 0 -64 -56l-35 68
q21 41 50.5 66t61.5 25q22 0 63 -27q42 -27 62 -27q28 0 64 57z" />
    <glyph glyph-name="Umacron" unicode="&#x16a;" horiz-adv-x="694" 
d="M467 260l56 399h190q-1 -17 -54 -385q-18 -133 -103 -209.5t-227 -76.5q-135 0 -202 76q-68 77 -48 211l53 384h192l-55 -393q-7 -45 10 -83q18 -36 73 -36q47 0 77.5 32.5t37.5 80.5zM600 734h-328l15 104h328z" />
    <glyph glyph-name="umacron" unicode="&#x16b;" horiz-adv-x="549" 
d="M33 156l41 290h170l-35 -253q-4 -31 7 -49t35 -18q26 0 46.5 27.5t26.5 67.5q24 175 31 225h173l-62 -446h-146q-5 61 -5 64h-5q-57 -73 -152 -73q-61 0 -94 33t-33 92q0 22 2 40zM475 539h-324l14 103h324z" />
    <glyph glyph-name="Ubreve" unicode="&#x16c;" horiz-adv-x="694" 
d="M467 260l56 399h190q-1 -17 -54 -385q-18 -133 -103 -209.5t-227 -76.5q-135 0 -202 76q-68 77 -48 211l53 384h192l-55 -393q-7 -45 10 -83q18 -36 73 -36q47 0 77.5 32.5t37.5 80.5zM535 870h76q-13 -67 -61 -121q-46 -51 -125 -51q-66 0 -101.5 37.5t-37.5 100.5
q0 27 1 34h78q0 -41 19.5 -63t55.5 -22q30 0 56.5 24t38.5 61z" />
    <glyph glyph-name="ubreve" unicode="&#x16d;" horiz-adv-x="549" 
d="M33 156l41 290h170l-35 -253q-4 -31 7 -49t35 -18q26 0 46.5 27.5t26.5 67.5q24 175 31 225h173l-62 -446h-146q-5 61 -5 64h-5q-57 -73 -152 -73q-61 0 -94 33t-33 92q0 22 2 40zM418 678h77q-14 -71 -62 -124q-46 -52 -125 -52q-66 0 -101 38t-37 103q0 27 1 35h78
q0 -41 19.5 -63.5t55.5 -22.5q32 0 57.5 23.5t36.5 62.5z" />
    <glyph glyph-name="Uring" unicode="&#x16e;" horiz-adv-x="694" 
d="M467 260l56 399h190q-1 -17 -54 -385q-18 -133 -103 -209.5t-227 -76.5q-135 0 -202 76q-68 77 -48 211l53 384h192l-55 -393q-7 -45 10 -83q18 -36 73 -36q47 0 77.5 32.5t37.5 80.5zM464 955q50 0 81.5 -31.5t31.5 -79.5q0 -59 -44 -103q-43 -42 -105 -42
q-50 0 -80.5 29.5t-30.5 77.5q0 60 44 104q43 45 103 45zM452 874q-19 0 -34.5 -17t-15.5 -39q0 -17 10.5 -27.5t26.5 -10.5q23 0 37 15.5t14 37.5q0 18 -10 29.5t-28 11.5z" />
    <glyph glyph-name="uring" unicode="&#x16f;" horiz-adv-x="549" 
d="M33 156l41 290h170l-35 -253q-4 -31 7 -49t35 -18q26 0 46.5 27.5t26.5 67.5q24 175 31 225h173l-62 -446h-146q-5 61 -5 64h-5q-57 -73 -152 -73q-61 0 -94 33t-33 92q0 22 2 40zM342 752q50 0 81.5 -31.5t31.5 -79.5q0 -59 -44 -103q-43 -42 -105 -42q-50 0 -80.5 29.5
t-30.5 77.5q0 60 44 104q43 45 103 45zM330 671q-19 0 -34.5 -17t-15.5 -39q0 -17 10.5 -27.5t26.5 -10.5q23 0 37 15.5t14 37.5q0 18 -10 29.5t-28 11.5z" />
    <glyph glyph-name="Uhungarumlaut" unicode="&#x170;" horiz-adv-x="694" 
d="M467 260l56 399h190q-1 -17 -54 -385q-18 -133 -103 -209.5t-227 -76.5q-135 0 -202 76q-68 77 -48 211l53 384h192l-55 -393q-7 -45 10 -83q18 -36 73 -36q47 0 77.5 32.5t37.5 80.5zM712 846l-158 -137h-98l152 193zM543 846l-159 -137h-98l152 193z" />
    <glyph glyph-name="uhungarumlaut" unicode="&#x171;" horiz-adv-x="549" 
d="M33 156l41 290h170l-35 -253q-4 -31 7 -49t35 -18q26 0 46.5 27.5t26.5 67.5q24 175 31 225h173l-62 -446h-146q-5 61 -5 64h-5q-57 -73 -152 -73q-61 0 -94 33t-33 92q0 22 2 40zM569 661l-160 -140h-92l148 197zM404 661l-159 -140h-93l149 197z" />
    <glyph glyph-name="Uogonek" unicode="&#x172;" horiz-adv-x="694" 
d="M349 -176q44 0 100 29l-11 -70q-68 -38 -148 -38q-103 0 -103 76q0 40 29 85.5t80 83.5q-120 9 -178 84.5t-39 200.5l53 384h192l-55 -393q-7 -45 10 -83q18 -36 73 -36q47 0 77.5 32.5t37.5 80.5l56 399h190q-1 -17 -54 -385q-18 -122 -91 -197t-195 -87
q-36 -30 -58 -63t-22 -60q0 -43 56 -43z" />
    <glyph glyph-name="uogonek" unicode="&#x173;" horiz-adv-x="549" 
d="M346 -178q44 0 100 29l-11 -70q-68 -38 -148 -38q-103 0 -103 76q0 45 36.5 96.5t99.5 89.5q-4 46 -5 59h-5q-57 -73 -152 -73q-61 0 -94 33t-33 92q0 22 2 40l41 290h170l-35 -253q-4 -31 7 -49t35 -18q26 0 46.5 27.5t26.5 67.5q24 175 31 225h173l-62 -446h-81
q-41 -32 -68 -69.5t-27 -65.5q0 -43 56 -43z" />
    <glyph glyph-name="Wcircumflex" unicode="&#x174;" horiz-adv-x="971" 
d="M344 359l187 311h21l107 -311h4l160 300h198l-384 -676h-21l-118 366l-221 -366h-23l-192 676h199l79 -300h4zM586 893l141 -181h-126l-44 67l-70 -67h-122l198 181h23z" />
    <glyph glyph-name="wcircumflex" unicode="&#x175;" horiz-adv-x="754" 
d="M255 271l136 188h23l89 -187h4l100 174h174l-283 -457h-24q-13 29 -51 109q-46 101 -53 119l-164 -228h-24l-158 457h175l11 -37q10 -37 18 -63q5 -17 10.5 -35.5t8.5 -27.5l4 -12h4zM451 699l133 -190h-118l-42 69l-68 -69h-119l192 190h22z" />
    <glyph glyph-name="Ycircumflex" unicode="&#x176;" horiz-adv-x="629" 
d="M267 659l69 -252h4q26 53 135 252h206l-272 -415l-34 -244h-191l35 244l-156 415h204zM419 893l141 -181h-126l-44 67l-70 -67h-122l198 181h23z" />
    <glyph glyph-name="ycircumflex" unicode="&#x177;" horiz-adv-x="504" 
d="M196 446l35 -270h5l115 270h175l-341 -664h-165l116 230l-114 434h174zM327 699l133 -190h-118l-42 69l-68 -69h-119l192 190h22z" />
    <glyph glyph-name="Ydieresis" unicode="&#x178;" horiz-adv-x="629" 
d="M306 864q29 0 46.5 -19t17.5 -47q0 -34 -25.5 -60.5t-59.5 -26.5q-29 0 -46.5 18t-17.5 46q0 37 26 63t59 26zM502 864q27 0 45 -19t18 -46q0 -34 -25.5 -61t-58.5 -27q-29 0 -46.5 18t-17.5 46q0 37 25.5 63t59.5 26zM267 659l69 -252h4q26 53 135 252h206l-272 -415
l-34 -244h-191l35 244l-156 415h204z" />
    <glyph glyph-name="Zacute" unicode="&#x179;" horiz-adv-x="599" 
d="M113 659h526l-3 -17l-350 -495h266l-21 -147h-549l3 18l350 494h-243zM555 844l-157 -135h-98l150 191z" />
    <glyph glyph-name="zacute" unicode="&#x17a;" horiz-adv-x="443" 
d="M64 446h392l-2 -13l-228 -304h173l-18 -129h-407l3 13l227 303h-158zM443 648l-153 -139h-97l147 196z" />
    <glyph glyph-name="Zdotaccent" unicode="&#x17b;" horiz-adv-x="599" 
d="M113 659h526l-3 -17l-350 -495h266l-21 -147h-549l3 18l350 494h-243zM418 896q35 0 56.5 -22.5t21.5 -56.5q0 -43 -31 -75q-30 -32 -73 -32q-36 0 -57 22t-21 57q0 46 32 76q32 31 72 31z" />
    <glyph glyph-name="zdotaccent" unicode="&#x17c;" horiz-adv-x="443" 
d="M64 446h392l-2 -13l-228 -304h173l-18 -129h-407l3 13l227 303h-158zM296 690q35 0 56.5 -22.5t21.5 -56.5q0 -43 -31 -75q-30 -32 -73 -32q-36 0 -57 22t-21 57q0 46 32 76q32 31 72 31z" />
    <glyph glyph-name="Zcaron" unicode="&#x17d;" horiz-adv-x="599" 
d="M113 659h526l-3 -17l-350 -495h266l-21 -147h-549l3 18l350 494h-243zM401 819l65 68h128l-192 -181h-23l-146 181h118z" />
    <glyph glyph-name="zcaron" unicode="&#x17e;" horiz-adv-x="443" 
d="M64 446h392l-2 -13l-228 -304h173l-18 -129h-407l3 13l227 303h-158zM284 619l63 70h121l-186 -191h-22l-138 191h116z" />
    <glyph glyph-name="longs" unicode="&#x17f;" horiz-adv-x="303" 
d="M462 713l-9 -134q-37 15 -79 15q-84 0 -97 -94l-100 -714h-169l76 543h-68l14 103l70 15l9 60q15 108 79.5 164.5t169.5 56.5q54 0 104 -15z" />
    <glyph glyph-name="florin" unicode="&#x192;" horiz-adv-x="572" 
d="M206 289h-77l8 115h88l10 62q31 210 204 210q57 0 115 -18l-9 -143q-35 12 -61 12q-66 0 -78 -73l-7 -50h105l-8 -115h-115l-24 -144q-22 -132 -75.5 -191.5t-147.5 -59.5q-50 0 -114 23l10 145q40 -14 68 -14q38 0 56.5 30t33.5 111z" />
    <glyph glyph-name="AEacute" unicode="&#x1fc;" horiz-adv-x="914" 
d="M847 0h-451l12 89h-166l-72 -89h-205l563 659h386l-20 -147h-257q-9 -77 -13 -101h228q-5 -32 -19 -141h-228l-16 -122h278zM445 343h-4l-113 -142h98zM818 844l-157 -135h-98l150 191z" />
    <glyph glyph-name="aeacute" unicode="&#x1fd;" horiz-adv-x="783" 
d="M577 462q81 0 130.5 -37.5t49.5 -98.5q0 -52 -37 -86q-64 -60 -196 -60q-22 0 -43 3q-5 -37 19.5 -56t65.5 -19q87 0 161 52q0 -2 -6 -45.5t-10 -78.5q-73 -45 -190 -45q-125 0 -165 78q-72 -82 -204 -82q-71 0 -111.5 29t-40.5 80q0 73 62 121q63 48 174 48h63
q2 18 2 25q0 47 -77 47q-27 0 -68.5 -9.5t-70.5 -24.5q1 14 8 63q7 42 9 63q81 31 177 31q100 0 140 -49q67 51 158 51zM289 180l3 19h-39q-36 0 -59.5 -18t-23.5 -48q0 -36 41 -36q31 0 51.5 22t26.5 61zM561 340q-31 0 -51.5 -22.5t-26.5 -63.5q10 -3 23 -3q45 0 70 14.5
t25 38.5q0 16 -10.5 26t-29.5 10zM616 648l-153 -139h-97l147 196z" />
    <glyph glyph-name="Oslashacute" unicode="&#x1fe;" horiz-adv-x="778" 
d="M447 673q112 0 190 -57l39 43h62l-66 -72q81 -81 81 -211q0 -164 -117 -277q-115 -112 -284 -112q-106 0 -179 48l-32 -35h-64l58 64q-87 81 -87 217q0 163 113 278q114 114 286 114zM239 295q0 -55 24 -92l252 281q-35 30 -87 30q-81 0 -135 -65t-54 -154zM375 143
q79 0 133 64q55 64 55 158q0 46 -19 81l-249 -279q35 -24 80 -24zM649 848l-157 -135h-98l150 191z" />
    <glyph glyph-name="oslashacute" unicode="&#x1ff;" horiz-adv-x="550" 
d="M304 461q86 0 139 -37l22 22h53l-46 -47q51 -51 51 -136q0 -119 -79 -197q-80 -77 -204 -77q-78 0 -134 33l-21 -22h-53l43 45q-57 54 -57 142q0 117 80 195q79 79 206 79zM288 322q-43 0 -69.5 -34.5t-26.5 -84.5q0 -20 5 -33l134 138q-17 14 -43 14zM358 245
q0 12 -6 30l-132 -136q15 -12 40 -12q42 0 70 34t28 84zM508 648l-153 -139h-97l147 196z" />
    <glyph glyph-name="Scommaaccent" unicode="&#x218;" horiz-adv-x="550" 
d="M0 40l23 167q35 -31 96 -54q61 -21 108 -21q40 0 66.5 17.5t26.5 45.5q0 45 -90 87q-34 17 -57 30.5t-51 36.5t-42.5 52.5t-13.5 64.5q0 90 71 150q72 60 195 60q108 0 200 -43q-8 -48 -22 -154q-28 20 -80 37q-51 17 -88 17t-60.5 -14t-23.5 -40q0 -28 90 -72
q168 -69 167 -195q0 -81 -64 -151q-72 -75 -221 -75q-143 0 -230 54zM211 -42q29 0 45.5 -18t16.5 -48q0 -43 -37 -105q-37 -64 -79 -106l-49 9l61 124q-39 16 -39 58q0 35 25 60.5t56 25.5z" />
    <glyph glyph-name="scommaaccent" unicode="&#x219;" 
d="M-11 28l9 64q3 33 8 65q27 -25 68.5 -40.5t76.5 -15.5q52 0 52 33q0 12 -17 24t-41.5 25.5t-49.5 29.5t-42 42.5t-17 59.5q0 64 51.5 104.5t139.5 40.5q81 0 153 -32l-16 -119q-55 35 -110 35q-48 0 -48 -30q0 -18 80 -58q33 -17 56.5 -49t23.5 -71q0 -63 -54 -105
t-154 -42q-102 0 -169 39zM154 -42q29 0 45.5 -18t16.5 -48q0 -43 -37 -105q-37 -64 -79 -106l-49 9l61 124q-39 16 -39 58q0 35 25 60.5t56 25.5z" />
    <glyph glyph-name="uni021A" unicode="&#x21a;" horiz-adv-x="562" 
d="M608 660l-21 -148h-175l-72 -512h-190l71 512h-173l20 148h540zM238 -38q29 0 45.5 -18t16.5 -48q0 -43 -37 -105q-38 -65 -79 -106l-49 9l61 124q-39 16 -39 58q0 35 25 60.5t56 25.5z" />
    <glyph glyph-name="uni021B" unicode="&#x21b;" horiz-adv-x="383" 
d="M36 413l235 184h24l-21 -151h112l-19 -128h-112l-18 -128q-2 -18 -2 -19q0 -48 46 -48q29 0 73 23l-18 -126q-56 -33 -132 -33q-143 0 -143 134q0 29 8 96l9 53l8 48h-64zM142 -42q29 0 45.5 -18t16.5 -48q0 -43 -37 -105q-38 -64 -79 -106l-49 9l61 124q-39 16 -39 58
q0 35 25 60.5t56 25.5z" />
    <glyph glyph-name="schwa" unicode="&#x259;" horiz-adv-x="508" 
d="M207 -10q-81 0 -130.5 37.5t-49.5 98.5q0 74 68 109q69 36 165 36q25 0 43 -2q-1 35 -23.5 55t-61.5 20q-86 0 -161 -53l16 125q77 47 194 47q108 0 159 -56q52 -55 52 -140q0 -112 -74 -195q-73 -82 -197 -82zM223 112q31 0 51.5 22.5t27.5 63.5q-18 2 -26 2
q-41 0 -67 -13t-26 -39q0 -16 10.5 -26t29.5 -10z" />
    <glyph glyph-name="primemod" unicode="&#x2b9;" horiz-adv-x="273" 
d="M301 571l-191 -278h-88l177 335z" />
    <glyph glyph-name="circumflex" unicode="&#x2c6;" horiz-adv-x="513" 
d="M339 699l133 -190h-118l-42 69l-68 -69h-119l192 190h22z" />
    <glyph glyph-name="caron" unicode="&#x2c7;" horiz-adv-x="513" 
d="M311 619l63 70h121l-186 -191h-22l-138 191h116z" />
    <glyph glyph-name="breve" unicode="&#x2d8;" horiz-adv-x="541" 
d="M414 680h77q-14 -71 -62 -124q-46 -52 -125 -52q-66 0 -101 38t-37 103q0 27 1 35h78q0 -41 19.5 -63.5t55.5 -22.5q32 0 57.5 23.5t36.5 62.5z" />
    <glyph glyph-name="dotaccent" unicode="&#x2d9;" horiz-adv-x="530" 
d="M339 690q35 0 56.5 -22.5t21.5 -56.5q0 -43 -31 -75q-30 -32 -73 -32q-36 0 -57 22t-21 57q0 46 32 76q32 31 72 31z" />
    <glyph glyph-name="ring" unicode="&#x2da;" horiz-adv-x="518" 
d="M336 754q50 0 81.5 -31.5t31.5 -79.5q0 -59 -44 -103q-43 -42 -105 -42q-50 0 -80.5 29.5t-30.5 77.5q0 60 44 104q43 45 103 45zM324 673q-19 0 -34.5 -17t-15.5 -39q0 -17 10.5 -27.5t26.5 -10.5q23 0 37 15.5t14 37.5q0 18 -10 29.5t-28 11.5z" />
    <glyph glyph-name="ogonek" unicode="&#x2db;" horiz-adv-x="519" 
d="M330 -163q44 0 100 29l-11 -70q-68 -38 -148 -38q-103 0 -103 76q0 51 50 113q49 61 135 100l23 -27q-44 -31 -73 -70.5t-29 -69.5q0 -43 56 -43z" />
    <glyph glyph-name="tilde" unicode="&#x2dc;" horiz-adv-x="513" 
d="M443 675l31 -67q-44 -90 -107 -90q-26 0 -67 25q-41 26 -59 26q-31 0 -64 -56l-35 68q21 41 50.5 66t61.5 25q22 0 63 -27q42 -27 62 -27q28 0 64 57z" />
    <glyph glyph-name="hungarumlaut" unicode="&#x2dd;" horiz-adv-x="513" 
d="M557 661l-160 -140h-92l148 197zM392 661l-159 -140h-93l149 197z" />
    <glyph glyph-name="tonos" unicode="&#x384;" horiz-adv-x="513" 
d="M480 661l-160 -140h-92l148 197z" />
    <glyph glyph-name="dieresistonos" unicode="&#x385;" horiz-adv-x="549" 
d="M505 682q29 0 47.5 -19t18.5 -46q0 -33 -26 -61q-26 -26 -61 -26q-29 0 -46.5 18.5t-17.5 45.5q0 38 27 63q26 25 58 25zM197 682q29 0 47.5 -19t18.5 -46q0 -33 -26 -61q-26 -26 -61 -26q-29 0 -46.5 18.5t-17.5 45.5q0 38 27 63q26 25 58 25zM459 690l-147 -176l-82 1
l117 216z" />
    <glyph glyph-name="Alphatonos" unicode="&#x386;" horiz-adv-x="670" 
d="M630 0h-189l-22 84h-222l-44 -84h-183l416 675h23zM350 354h-4l-88 -154h137zM259 638l-160 -140h-92l148 197z" />
    <glyph glyph-name="anoteleia" unicode="&#x387;" horiz-adv-x="282" 
d="M161 418q30 0 50 -21.5t20 -51.5q0 -38 -29 -67t-65 -29q-31 0 -51 20.5t-20 51.5q0 38 29 67q29 30 66 30z" />
    <glyph glyph-name="Epsilontonos" unicode="&#x388;" horiz-adv-x="560" 
d="M232 148h281q-6 -46 -10 -74t-10 -74h-472l92 659h450l-21 -147h-258q-4 -20 -9 -57l-6 -44h228l-20 -141h-228q-10 -78 -17 -122zM78 638l-160 -140h-92l148 197z" />
    <glyph glyph-name="Etatonos" unicode="&#x389;" horiz-adv-x="688" 
d="M688 659l-92 -659h-191l37 266h-194l-36 -266h-191l92 659h191l-34 -244h193l34 244h191zM79 638l-160 -140h-92l148 197z" />
    <glyph glyph-name="Iotatonos" unicode="&#x38a;" horiz-adv-x="311" 
d="M307 659l-92 -659h-191l92 659h191zM84 638l-160 -140h-92l148 197z" />
    <glyph glyph-name="Omicrontonos" unicode="&#x38c;" horiz-adv-x="778" 
d="M447 673q141 0 223 -84q83 -83 83 -213q0 -164 -117 -277q-115 -112 -284 -112q-140 0 -222 82t-82 212q0 163 113 278q114 114 286 114zM375 143q80 0 134 64t54 158q0 67 -35.5 108t-99.5 41q-80 0 -136 -65q-54 -65 -54 -154q0 -68 37.5 -110t99.5 -42zM137 638
l-160 -140h-92l148 197z" />
    <glyph glyph-name="Upsilontonos" unicode="&#x38e;" horiz-adv-x="629" 
d="M267 659l69 -252h4q26 53 135 252h206l-272 -415l-34 -244h-191l35 244l-156 415h204zM48 638l-160 -140h-92l148 197z" />
    <glyph glyph-name="Omegatonos" unicode="&#x38f;" horiz-adv-x="781" 
d="M428 513q-92 0 -143 -81q-50 -82 -50 -194q0 -64 18 -124q20 -61 52 -92l-3 -22h-312q18 136 20 147h84q0 2 2 4q-39 69 -39 150q0 159 111 265q111 108 283 108q142 0 222 -77t80 -199q0 -126 -98 -247l2 -4h82l-21 -147h-313l3 22q67 48 109 146q45 100 45 188
q0 71 -35 114t-99 43zM129 638l-160 -140h-92l148 197z" />
    <glyph glyph-name="iotadieresistonos" unicode="&#x390;" horiz-adv-x="273" 
d="M357 682q29 0 47.5 -19t18.5 -46q0 -33 -26 -61q-26 -26 -61 -26q-29 0 -46.5 18.5t-17.5 45.5q0 38 27 63q26 25 58 25zM49 682q29 0 47.5 -19t18.5 -46q0 -33 -26 -61q-26 -26 -61 -26q-29 0 -46.5 18.5t-17.5 45.5q0 38 27 63q26 25 58 25zM311 690l-147 -176l-82 1
l117 216zM249 446l-62 -446h-172l62 446h172z" />
    <glyph glyph-name="Alpha" unicode="&#x391;" horiz-adv-x="670" 
d="M630 0h-189l-22 84h-222l-44 -84h-183l416 675h23zM350 354h-4l-88 -154h137z" />
    <glyph glyph-name="Beta" unicode="&#x392;" horiz-adv-x="639" 
d="M345 277h-99q-3 -14 -10 -66l-9 -64h102q41 0 62 22t21 53q0 25 -17.5 40t-49.5 15zM354 516h-75l-17 -116h77q28 0 50.5 18t22.5 51q0 47 -58 47zM506 361v-4q42 -21 64 -58.5t22 -83.5q0 -90 -67 -153q-67 -62 -165 -62h-339l92 659h309q81 0 127 -40.5t46 -107.5
q0 -91 -89 -150z" />
    <glyph glyph-name="Gamma" unicode="&#x393;" horiz-adv-x="530" 
d="M551 512h-268l-71 -512h-191l92 659h459z" />
    <glyph glyph-name="increment" unicode="&#x394;" horiz-adv-x="676" 
d="M390 675h23l224 -675h-665zM354 357h-2l-127 -211h194z" />
    <glyph glyph-name="increment" unicode="&#x2206;" horiz-adv-x="676" 
d="M390 675h23l224 -675h-665zM354 357h-2l-127 -211h194z" />
    <glyph glyph-name="Epsilon" unicode="&#x395;" horiz-adv-x="560" 
d="M232 148h281q-6 -46 -10 -74t-10 -74h-472l92 659h450l-21 -147h-258q-4 -20 -9 -57l-6 -44h228l-20 -141h-228q-10 -78 -17 -122z" />
    <glyph glyph-name="Zeta" unicode="&#x396;" horiz-adv-x="599" 
d="M113 659h526l-3 -17l-350 -495h266l-21 -147h-549l3 18l350 494h-243z" />
    <glyph glyph-name="Eta" unicode="&#x397;" horiz-adv-x="688" 
d="M688 659l-92 -659h-191l37 266h-194l-36 -266h-191l92 659h191l-34 -244h193l34 244h191z" />
    <glyph glyph-name="Theta" unicode="&#x398;" horiz-adv-x="778" 
d="M496 272h-213l17 118h213zM447 673q142 0 224 -82t82 -210q0 -163 -117 -279q-117 -114 -284 -114q-141 0 -224 80q-82 81 -82 209q0 163 116 279q116 117 285 117zM428 513q-79 0 -135 -65q-54 -64 -54 -153q0 -68 36.5 -110t98.5 -42q80 0 134 64q55 64 55 157
q0 67 -35.5 108t-99.5 41z" />
    <glyph glyph-name="Iota" unicode="&#x399;" horiz-adv-x="311" 
d="M307 659l-92 -659h-191l92 659h191z" />
    <glyph glyph-name="Kappa" unicode="&#x39a;" horiz-adv-x="659" 
d="M114 660h191l-42 -299l227 299h210l-265 -322l183 -338h-207l-154 320l-44 -320h-191z" />
    <glyph glyph-name="Lambda" unicode="&#x39b;" horiz-adv-x="670" 
d="M630 0h-193l-92 319h-4l-185 -319h-186l416 675h23z" />
    <glyph glyph-name="Mu" unicode="&#x39c;" horiz-adv-x="793" 
d="M551 268l-161 -147h-23l-121 161h-4q-11 -83 -19 -141t-19 -141h-184l95 674h22l270 -340l367 340h21l-94 -674h-185l39 267q-1 0 -2 0.5t-2 0.5z" />
    <glyph glyph-name="Nu" unicode="&#x39d;" horiz-adv-x="701" 
d="M256 326l-45 -326h-190l95 676h22l324 -329h4l45 312h190l-94 -675h-20l-328 342h-3z" />
    <glyph glyph-name="Xi" unicode="&#x39e;" horiz-adv-x="614" 
d="M630 660l-21 -148h-530l20 148h531zM-1 0l20 149h547l-21 -149h-546zM103 270l20 143h421l-19 -143h-422z" />
    <glyph glyph-name="Omicron" unicode="&#x39f;" horiz-adv-x="778" 
d="M447 673q141 0 223 -84q83 -83 83 -213q0 -164 -117 -277q-115 -112 -284 -112q-140 0 -222 82t-82 212q0 163 113 278q114 114 286 114zM375 143q80 0 134 64t54 158q0 67 -35.5 108t-99.5 41q-80 0 -136 -65q-54 -65 -54 -154q0 -68 37.5 -110t99.5 -42z" />
    <glyph glyph-name="Pi" unicode="&#x3a0;" horiz-adv-x="690" 
d="M689 659l-92 -659h-191l72 512h-195l-71 -512h-191l92 659h576z" />
    <glyph glyph-name="Rho" unicode="&#x3a1;" horiz-adv-x="587" 
d="M212 0h-191l92 659h265q109 0 164.5 -54t55.5 -145q0 -103 -76 -175q-75 -72 -196 -72h-85zM332 517h-49l-24 -166h51q48 0 74.5 28t26.5 68q0 32 -20 51t-59 19z" />
    <glyph glyph-name="Sigma" unicode="&#x3a3;" horiz-adv-x="593" 
d="M344 512l77 -170l-138 -195h284q-5 -40 -10 -75l-10 -72h-568q3 15 3 18l226 323l-132 301l3 17h543l-21 -147h-257z" />
    <glyph glyph-name="Tau" unicode="&#x3a4;" horiz-adv-x="562" 
d="M608 660l-21 -148h-175l-72 -512h-190l71 512h-173l20 148h540z" />
    <glyph glyph-name="Upsilon" unicode="&#x3a5;" horiz-adv-x="629" 
d="M267 659l69 -252h4q26 53 135 252h206l-272 -415l-34 -244h-191l35 244l-156 415h204z" />
    <glyph glyph-name="Phi" unicode="&#x3a6;" horiz-adv-x="893" 
d="M319 0l8 60q-137 7 -211 69.5t-74 166.5q0 129 101 221q102 92 262 102l6 40h187l-6 -41q133 -11 205 -77q74 -68 74 -165q0 -125 -98 -214q-97 -88 -260 -102l-8 -60h-186zM572 485l-41 -292q66 8 112 56q47 50 47 112q0 50 -32 85t-86 39zM386 486q-69 -7 -115 -58
q-45 -50 -45 -111q0 -50 31 -83.5t88 -40.5q33 232 41 293z" />
    <glyph glyph-name="Chi" unicode="&#x3a7;" horiz-adv-x="685" 
d="M69 659h206l83 -274l161 274h207l-202 -318l120 -341h-207l-91 297l-172 -297h-207l213 341z" />
    <glyph glyph-name="Psi" unicode="&#x3a8;" horiz-adv-x="850" 
d="M485 0h-190q1 7 11 83l12 83q-120 8 -185 71t-65 169q0 30 4 53l29 201h191l-29 -211q-2 -24 -2 -26q0 -83 79 -96l47 332h190l-46 -331q44 4 74.5 36.5t36.5 78.5l30 217h191l-28 -196q-18 -127 -102 -208t-225 -90l-12 -83q-10 -76 -11 -83z" />
    <glyph glyph-name="Omega" unicode="&#x3a9;" horiz-adv-x="781" 
d="M428 513q-92 0 -143 -81q-50 -82 -50 -194q0 -64 18 -124q20 -61 52 -92l-3 -22h-312q18 136 20 147h84q0 2 2 4q-39 69 -39 150q0 159 111 265q111 108 283 108q142 0 222 -77t80 -199q0 -126 -98 -247l2 -4h82l-21 -147h-313l3 22q67 48 109 146q45 100 45 188
q0 71 -35 114t-99 43z" />
    <glyph glyph-name="Iotadieresis" unicode="&#x3aa;" horiz-adv-x="311" 
d="M307 659l-92 -659h-191l92 659h191zM144 868q29 0 46.5 -19t17.5 -47q0 -34 -25.5 -60.5t-59.5 -26.5q-29 0 -46.5 18t-17.5 46q0 37 26 63t59 26zM340 868q27 0 45 -19t18 -46q0 -34 -25.5 -61t-58.5 -27q-29 0 -46.5 18t-17.5 46q0 37 25.5 63t59.5 26z" />
    <glyph glyph-name="Upsilondieresis" unicode="&#x3ab;" horiz-adv-x="629" 
d="M305 861q29 0 46.5 -19t17.5 -47q0 -34 -25.5 -60.5t-59.5 -26.5q-29 0 -46.5 18t-17.5 46q0 37 26 63t59 26zM501 861q27 0 45 -19t18 -46q0 -34 -25.5 -61t-58.5 -27q-29 0 -46.5 18t-17.5 46q0 37 25.5 63t59.5 26zM267 659l69 -252h4q26 53 135 252h206l-272 -415
l-34 -244h-191l35 244l-156 415h204z" />
    <glyph glyph-name="alphatonos" unicode="&#x3ac;" horiz-adv-x="580" 
d="M285 323q-43 0 -68.5 -35.5t-25.5 -85.5q0 -75 67 -75q41 0 69 34t28 85q0 35 -18.5 56t-51.5 21zM368 0l-7 49h-5q-67 -59 -161 -59q-86 0 -132 48.5t-46 133.5q0 123 71 206q70 82 187 82q93 0 143 -65l27 51h113l-63 -446h-127zM482 661l-160 -140h-92l148 197z" />
    <glyph glyph-name="epsilontonos" unicode="&#x3ad;" horiz-adv-x="416" 
d="M172 -10q-85 0 -129 29t-44 79q0 19 6 40q7 25 31.5 52.5t59.5 42.5l1 4q-60 23 -60 78q0 61 57 104q58 44 154 44q78 0 152 -27l-18 -129q-16 12 -51 21q-34 9 -64 9t-49.5 -9t-19.5 -26q0 -24 37 -24h64l-14 -97h-46q-28 0 -44 -10.5t-16 -28.5q0 -29 59 -29
q30 0 71.5 12.5t70.5 30.5l-17 -126q-79 -40 -191 -40zM420 661l-160 -140h-92l148 197z" />
    <glyph glyph-name="etatonos" unicode="&#x3ae;" horiz-adv-x="556" 
d="M214 446l10 -61l3 1q65 74 157 74q65 0 98.5 -32.5t33.5 -93.5q0 -15 -6 -66l-67 -485h-172l65 466q4 32 -6 52.5t-34 20.5q-68 0 -82 -103l-31 -219h-171l62 446h140zM470 661l-160 -140h-92l148 197z" />
    <glyph glyph-name="iotatonos" unicode="&#x3af;" horiz-adv-x="273" 
d="M249 446l-62 -446h-172l62 446h172zM363 661l-160 -140h-92l148 197z" />
    <glyph glyph-name="upsilondieresistonos" unicode="&#x3b0;" horiz-adv-x="549" 
d="M323 207l33 239h173q-1 -6 -4.5 -29.5t-5.5 -37.5l-11 -80l-9 -67q-20 -141 -105 -195q-73 -47 -152 -47q-98 0 -152 48t-54 135q0 31 4 49q22 140 33 224h170l-34 -234q-2 -10 -2 -28q0 -58 47 -58q57 0 69 81zM493 682q29 0 47.5 -19t18.5 -46q0 -33 -26 -61
q-26 -26 -61 -26q-29 0 -46.5 18.5t-17.5 45.5q0 38 27 63q26 25 58 25zM185 682q29 0 47.5 -19t18.5 -46q0 -33 -26 -61q-26 -26 -61 -26q-29 0 -46.5 18.5t-17.5 45.5q0 38 27 63q26 25 58 25zM447 690l-147 -176l-82 1l117 216z" />
    <glyph glyph-name="alpha" unicode="&#x3b1;" horiz-adv-x="580" 
d="M285 323q-43 0 -68.5 -35.5t-25.5 -85.5q0 -75 67 -75q41 0 69 34t28 85q0 35 -18.5 56t-51.5 21zM368 0l-7 49h-5q-67 -59 -161 -59q-86 0 -132 48.5t-46 133.5q0 123 71 206q70 82 187 82q93 0 143 -65l27 51h113l-63 -446h-127z" />
    <glyph glyph-name="beta" unicode="&#x3b2;" horiz-adv-x="575" 
d="M349 726q89 0 141 -43.5t52 -113.5q0 -47 -26.5 -91t-72.5 -63v-5q100 -40 100 -155q0 -114 -74 -190q-73 -75 -171 -75q-70 0 -116 40q-4 0 -6 -2l-34 -237h-171l88 638q18 131 89 214q72 83 201 83zM320 584q-30 0 -49 -21q-17 -19 -24 -40t-13 -62l-30 -209
q-3 -21 -3 -42q0 -86 69 -86q44 0 72 36q29 38 29 87q0 93 -99 93l15 109q43 0 64 22t21 56q0 22 -15.5 39.5t-36.5 17.5z" />
    <glyph glyph-name="gamma" unicode="&#x3b3;" horiz-adv-x="533" 
d="M257 187h5l60 135l26 60l29 64h177l-232 -452l-29 -212h-173l32 214l-120 450h180q17 -83 45 -259z" />
    <glyph glyph-name="delta" unicode="&#x3b4;" horiz-adv-x="562" 
d="M123 551q0 81 65 128q65 48 161 48q94 0 179 -44l-14 -120q-27 16 -70 27t-77 11q-35 0 -56 -13t-21 -36q0 -31 85 -74q159 -69 158 -206q0 -117 -80 -200q-79 -82 -209 -82q-105 0 -163 53t-58 145q0 77 40 144q40 68 114 100l1 6q-26 17 -40.5 48t-14.5 65zM266 128
q45 0 73 40t28 90q0 76 -74 99q-47 -11 -72 -55q-26 -44 -26 -93q0 -37 18 -59t53 -22z" />
    <glyph glyph-name="epsilon" unicode="&#x3b5;" horiz-adv-x="416" 
d="M172 -10q-85 0 -129 29t-44 79q0 19 6 40q7 25 31.5 52.5t59.5 42.5l1 4q-60 23 -60 78q0 61 57 104q58 44 154 44q78 0 152 -27l-18 -129q-16 12 -51 21q-34 9 -64 9t-49.5 -9t-19.5 -26q0 -24 37 -24h64l-14 -97h-46q-28 0 -44 -10.5t-16 -28.5q0 -29 59 -29
q30 0 71.5 12.5t70.5 30.5l-17 -126q-79 -40 -191 -40z" />
    <glyph glyph-name="zeta" unicode="&#x3b6;" horiz-adv-x="436" 
d="M188 217q0 -29 34 -57q29 -24 76 -50q41 -20 76 -54q35 -32 35 -68q0 -33 -47 -89q-42 -51 -109 -101l-99 56q81 76 81 100q0 11 -10.5 18.5t-52.5 29.5q-79 41 -117.5 83.5t-38.5 96.5q0 76 81 182q81 108 202 214l1 3v4h-191l18 128h457l-2 -15q-150 -135 -273 -281
q-121 -143 -121 -200z" />
    <glyph glyph-name="eta" unicode="&#x3b7;" horiz-adv-x="556" 
d="M214 446l10 -61l3 1q65 74 157 74q65 0 98.5 -32.5t33.5 -93.5q0 -15 -6 -66l-67 -485h-172l65 466q4 32 -6 52.5t-34 20.5q-68 0 -82 -103l-31 -219h-171l62 446h140z" />
    <glyph glyph-name="theta" unicode="&#x3b8;" horiz-adv-x="574" 
d="M560 425q-2 -37 -9 -78q-18 -117 -56 -189q-36 -75 -98.5 -122.5t-148.5 -45.5q-111 0 -161 71q-49 71 -49 190q0 64 11 129t36 127.5t60.5 111t89.5 78t118 29.5q118 0 165 -85q44 -74 44 -187q0 -3 -2 -29zM332 583q-38 0 -66 -43.5t-40 -110.5h171q0 1 1.5 17t1.5 23
q0 52 -17.5 83t-50.5 31zM384 311h-176q-6 -41 -6 -74q0 -106 66 -106q88 0 116 180z" />
    <glyph glyph-name="iota" unicode="&#x3b9;" horiz-adv-x="273" 
d="M249 446l-62 -446h-172l62 446h172z" />
    <glyph glyph-name="kappa" unicode="&#x3ba;" horiz-adv-x="546" 
d="M375 446h185l-177 -214l123 -232h-185l-102 213l-29 -213h-178l62 446h178q-7 -44 -28 -198z" />
    <glyph glyph-name="lambda" unicode="&#x3bb;" horiz-adv-x="522" 
d="M309 0l-40 252h-4l-119 -252h-174l242 444l-55 278h168l154 -722h-172z" />
    <glyph glyph-name="nu" unicode="&#x3bd;" horiz-adv-x="539" 
d="M560 446l-317 -457h-26l-189 457h181l30 -81q19 -51 29 -96h4q8 15 52 89l52 88h184z" />
    <glyph glyph-name="xi" unicode="&#x3be;" horiz-adv-x="455" 
d="M336 724q103 0 166 -31l-10 -130q-59 33 -137 33q-47 0 -77 -24.5t-30 -62.5q0 -61 91 -61h86q-5 -31 -8 -60q-3 -28 -8 -59h-108q-47 0 -76.5 -28.5t-29.5 -71.5q0 -30 36 -60q37 -30 81 -51q46 -22 80 -52q37 -31 37 -63q0 -77 -162 -192l-94 56q75 72 75 92
q0 23 -74 56q-82 45 -117.5 83.5t-35.5 94.5q0 67 39 123t109 82l1 2v3q-88 25 -88 114q0 81 69 144t185 63z" />
    <glyph glyph-name="omicron" unicode="&#x3bf;" horiz-adv-x="550" 
d="M304 461q104 0 161.5 -53.5t57.5 -144.5q0 -119 -79 -197q-80 -77 -204 -77q-104 0 -163 53.5t-59 144.5q0 117 80 195q79 79 206 79zM288 322q-43 0 -69.5 -34.5t-26.5 -84.5q0 -36 17.5 -56t50.5 -20q42 0 70 34t28 84q0 36 -18.5 56.5t-51.5 20.5z" />
    <glyph glyph-name="pi" unicode="&#x3c0;" horiz-adv-x="557" 
d="M537 447l-62 -447h-171l43 315h-121l-44 -315h-170l62 447h463z" />
    <glyph glyph-name="rho" unicode="&#x3c1;" horiz-adv-x="569" 
d="M179 20l-6 -1l-26 -229h-179l53 384q18 130 96 208q79 78 201 78q102 0 161 -54t59 -145q0 -119 -73 -195q-72 -76 -177 -76q-76 0 -109 30zM298 324q-43 0 -71.5 -35t-28.5 -87q0 -35 18 -56.5t52 -21.5q44 0 72 35t28 87q0 78 -70 78z" />
    <glyph glyph-name="sigma1" unicode="&#x3c2;" horiz-adv-x="459" 
d="M308 460q82 0 138 -32l-7 -132q-18 14 -57 21q-38 9 -69 9q-53 0 -85 -28t-32 -75q0 -28 23 -52t79 -54q99 -53 99 -102q0 -81 -165 -186l-96 57q70 63 72 78q0 10 -20 24l-50 28q-115 60 -115 178q0 113 73 189q74 77 212 77z" />
    <glyph glyph-name="sigma" unicode="&#x3c3;" horiz-adv-x="579" 
d="M307 446h140q63 1 141 1l-8 -56q-5 -35 -10 -75l-75 3l-2 -4q33 -31 33 -96q0 -95 -78 -162q-76 -67 -202 -67q-108 0 -166 52.5t-58 137.5q0 111 80 188q81 77 205 78zM300 320q-46 0 -74.5 -34.5t-28.5 -83.5q0 -36 18.5 -56t53.5 -20q41 0 69 33.5t28 83.5
q0 31 -17.5 52t-48.5 25z" />
    <glyph glyph-name="tau" unicode="&#x3c4;" 
d="M13 317l18 128l377 3q-6 -34 -19 -131h-120l-14 -105q-6 -12 -6 -39q0 -50 45 -50q31 0 74 22l-19 -125q-55 -33 -134 -33q-140 0 -140 137q0 17 4 44l21 149h-87z" />
    <glyph glyph-name="upsilon" unicode="&#x3c5;" horiz-adv-x="549" 
d="M323 207l33 239h173q-1 -6 -4.5 -29.5t-5.5 -37.5l-11 -80l-9 -67q-20 -141 -105 -195q-73 -47 -152 -47q-98 0 -152 48t-54 135q0 31 4 49q22 140 33 224h170l-34 -234q-2 -10 -2 -28q0 -58 47 -58q57 0 69 81z" />
    <glyph glyph-name="phi" unicode="&#x3c6;" horiz-adv-x="754" 
d="M224 -218l33 206q-116 6 -175.5 60.5t-59.5 137.5q0 85 57 157q59 74 164 96l2 -5q2 -4 7 -15.5t10 -22.5l21 -43q-43 -20 -67.5 -57.5t-24.5 -82.5q0 -38 23 -66t62 -30q1 13 23 167l25 168h166q106 0 168.5 -52.5t62.5 -141.5q0 -108 -84 -187q-81 -78 -214 -83
l-30 -206h-169zM468 328l-31 -213q54 3 88 40q35 38 35 87q0 81 -92 86z" />
    <glyph glyph-name="chi" unicode="&#x3c7;" horiz-adv-x="530" 
d="M489 0h-175l-60 191l-115 -191h-173l146 230l-78 216h173l57 -178l108 178h173l-137 -216z" />
    <glyph glyph-name="psi" unicode="&#x3c8;" horiz-adv-x="758" 
d="M398 -218h-171l29 204q-108 6 -160 66q-52 59 -52 149q0 21 3 42l26 203h167l-30 -218q0 -2 -0.5 -6t-0.5 -6q0 -95 66 -95l45 325h170l-46 -325q37 2 63 30.5t33 77.5q6 37 15 108l15 109h168q-21 -154 -28 -198q-2 -14 -7 -30q-22 -99 -93.5 -160t-183.5 -72
q-7 -46 -28 -204z" />
    <glyph glyph-name="omega" unicode="&#x3c9;" horiz-adv-x="759" 
d="M319 298h134l-17 -114q-1 -3 -1 -12q0 -22 11.5 -36.5t31.5 -14.5q32 0 53.5 34t21.5 95q0 39 -18.5 67.5t-48.5 33.5l53 108q91 -7 139.5 -59t48.5 -137q0 -110 -65 -192q-65 -80 -175 -80q-103 0 -137 64h-5q-60 -64 -149 -64q-84 0 -129.5 49t-45.5 134q0 117 70 197
q71 81 179 90l35 -107q-51 -7 -80 -53.5t-29 -112.5q0 -65 44 -65q36 0 58 46q11 25 13 63q5 29 8 66z" />
    <glyph glyph-name="iotadieresis" unicode="&#x3ca;" horiz-adv-x="273" 
d="M103 681q27 0 45 -18.5t18 -45.5q0 -33 -26 -61q-26 -27 -58 -27q-29 0 -46.5 18t-17.5 46q0 37 25.5 62.5t59.5 25.5zM297 681q29 0 46.5 -18t17.5 -46q0 -35 -25 -61q-26 -27 -60 -27q-29 0 -46 18t-17 46q0 37 25.5 62.5t58.5 25.5zM249 446l-62 -446h-172l62 446h172
z" />
    <glyph glyph-name="upsilondieresis" unicode="&#x3cb;" horiz-adv-x="549" 
d="M323 207l33 239h173q-1 -6 -4.5 -29.5t-5.5 -37.5l-11 -80l-9 -67q-20 -141 -105 -195q-73 -47 -152 -47q-98 0 -152 48t-54 135q0 31 4 49q22 140 33 224h170l-34 -234q-2 -10 -2 -28q0 -58 47 -58q57 0 69 81zM236 681q27 0 45 -18.5t18 -45.5q0 -33 -26 -61
q-25 -27 -58 -27q-29 0 -46.5 18t-17.5 46q0 37 25.5 62.5t59.5 25.5zM430 681q29 0 46.5 -18t17.5 -46q0 -35 -25 -61q-25 -27 -60 -27q-29 0 -46 18t-17 46q0 37 25.5 62.5t58.5 25.5z" />
    <glyph glyph-name="omicrontonos" unicode="&#x3cc;" horiz-adv-x="550" 
d="M304 461q104 0 161.5 -53.5t57.5 -144.5q0 -119 -79 -197q-80 -77 -204 -77q-104 0 -163 53.5t-59 144.5q0 117 80 195q79 79 206 79zM288 322q-43 0 -69.5 -34.5t-26.5 -84.5q0 -36 17.5 -56t50.5 -20q42 0 70 34t28 84q0 36 -18.5 56.5t-51.5 20.5zM507 661l-160 -140
h-92l148 197z" />
    <glyph glyph-name="upsilontonos" unicode="&#x3cd;" horiz-adv-x="549" 
d="M323 207l33 239h173q-1 -6 -4.5 -29.5t-5.5 -37.5l-11 -80l-9 -67q-20 -141 -105 -195q-73 -47 -152 -47q-98 0 -152 48t-54 135q0 31 4 49q22 140 33 224h170l-34 -234q-2 -10 -2 -28q0 -58 47 -58q57 0 69 81zM489 661l-160 -140h-92l148 197z" />
    <glyph glyph-name="omegatonos" unicode="&#x3ce;" horiz-adv-x="759" 
d="M319 298h134l-17 -114q-1 -3 -1 -12q0 -22 11.5 -36.5t31.5 -14.5q32 0 53.5 34t21.5 95q0 39 -18.5 67.5t-48.5 33.5l53 108q91 -7 139.5 -59t48.5 -137q0 -110 -65 -192q-65 -80 -175 -80q-103 0 -137 64h-5q-60 -64 -149 -64q-84 0 -129.5 49t-45.5 134q0 117 70 197
q71 81 179 90l35 -107q-51 -7 -80 -53.5t-29 -112.5q0 -65 44 -65q36 0 58 46q11 25 13 63q5 29 8 66zM597 654l-160 -140h-92l148 197z" />
    <glyph glyph-name="afii10023" unicode="&#x401;" horiz-adv-x="560" 
d="M272 868q29 0 46.5 -19t17.5 -47q0 -34 -25.5 -60.5t-59.5 -26.5q-29 0 -46.5 18t-17.5 46q0 37 26 63t59 26zM468 868q27 0 45 -19t18 -46q0 -34 -25.5 -61t-58.5 -27q-29 0 -46.5 18t-17.5 46q0 37 25.5 63t59.5 26zM232 148h281q-6 -46 -10 -74t-10 -74h-472l92 659
h450l-21 -147h-258q-4 -20 -9 -57l-6 -44h228l-20 -141h-228q-10 -78 -17 -122z" />
    <glyph glyph-name="afii10051" unicode="&#x402;" horiz-adv-x="823" 
d="M628 660l-21 -148h-195l-19 -132q82 29 161 29q104 0 165 -51t61 -146q0 -120 -75 -215q-74 -95 -176 -142l-99 80q69 37 109 103q40 65 40 125q0 52 -27.5 80.5t-78.5 28.5q-43 0 -98 -20l-35 -252h-190l71 512h-173l20 148h560z" />
    <glyph glyph-name="afii10052" unicode="&#x403;" horiz-adv-x="530" 
d="M551 512h-268l-71 -512h-191l92 659h459zM512 844l-157 -135h-98l150 191z" />
    <glyph glyph-name="afii10053" unicode="&#x404;" horiz-adv-x="610" 
d="M563 183l-22 -163q-81 -33 -190 -33q-147 0 -227 80q-79 79 -79 209q0 165 113 281t296 116q94 0 159 -27l-22 -159q-57 28 -132 28q-64 0 -114.5 -29t-73.5 -81h216l-18 -129h-228q-6 -62 37 -98t119 -36q79 0 166 41z" />
    <glyph glyph-name="afii10054" unicode="&#x405;" horiz-adv-x="550" 
d="M0 40l23 167q35 -31 96 -54q61 -21 108 -21q40 0 66.5 17.5t26.5 45.5q0 45 -90 87q-34 17 -57 30.5t-51 36.5t-42.5 52.5t-13.5 64.5q0 90 71 150q72 60 195 60q108 0 200 -43q-8 -48 -22 -154q-28 20 -80 37q-51 17 -88 17t-60.5 -14t-23.5 -40q0 -28 90 -72
q168 -69 167 -195q0 -81 -64 -151q-72 -75 -221 -75q-143 0 -230 54z" />
    <glyph glyph-name="afii10055" unicode="&#x406;" horiz-adv-x="311" 
d="M307 659l-92 -659h-191l92 659h191z" />
    <glyph glyph-name="afii10056" unicode="&#x407;" horiz-adv-x="311" 
d="M140 868q29 0 46.5 -19t17.5 -47q0 -34 -25.5 -60.5t-59.5 -26.5q-29 0 -46.5 18t-17.5 46q0 37 26 63t59 26zM336 868q27 0 45 -19t18 -46q0 -34 -25.5 -61t-58.5 -27q-29 0 -46.5 18t-17.5 46q0 37 25.5 63t59.5 26zM307 659l-92 -659h-191l92 659h191z" />
    <glyph glyph-name="afii10057" unicode="&#x408;" horiz-adv-x="510" 
d="M128 147q60 0 92.5 33t42.5 103l53 376h193q-2 -19 -51 -364q-18 -134 -80 -214q-70 -94 -231 -94q-98 0 -162 37q10 76 20 163q62 -40 123 -40z" />
    <glyph glyph-name="afii10058" unicode="&#x409;" horiz-adv-x="1014" 
d="M475 520h-112l-56 -243l-12 -52l-13 -49q-12 -40 -43 -91q-61 -93 -196 -110l-66 137q73 12 101 40q29 29 44 97l90 410h473l-34 -245h102q137 0 183 -62q42 -50 42 -117q0 -107 -71 -172q-71 -63 -173 -63h-331zM716 283h-84l-20 -144h88q37 0 62 24t25 60
q0 27 -20 43.5t-51 16.5z" />
    <glyph glyph-name="afii10059" unicode="&#x40a;" horiz-adv-x="1012" 
d="M732 0h-332l38 277h-187l-38 -277h-191l92 660h191l-35 -250h187l35 250h192l-35 -249h103q133 0 183 -60q42 -50 42 -116q0 -107 -72 -171q-71 -64 -173 -64zM714 281h-83l-20 -140h88q37 0 61.5 22.5t24.5 58.5q0 27 -19.5 43t-51.5 16z" />
    <glyph glyph-name="afii10060" unicode="&#x40b;" horiz-adv-x="804" 
d="M620 660l-20 -148h-188l-19 -134q99 29 177 29q98 0 144 -46.5t33 -140.5l-31 -220h-192l23 166q7 49 -10.5 71.5t-65.5 22.5q-40 0 -98 -19l-33 -241h-190l71 512h-173l20 148h552z" />
    <glyph glyph-name="afii10061" unicode="&#x40c;" horiz-adv-x="659" 
d="M114 660h191l-42 -299l232 299h205l-260 -320l178 -340h-207l-154 320l-44 -320h-191zM576 846l-157 -135h-98l150 191z" />
    <glyph glyph-name="afii10062" unicode="&#x40e;" horiz-adv-x="628" 
d="M215 161l4 9l-168 489h201l71 -298h3l152 298h197l-297 -533q-45 -83 -97 -116q-49 -31 -124 -31q-67 0 -126 27l18 136q43 -27 89 -27q53 0 77 46zM485 878h76q-13 -67 -61 -121q-47 -51 -125 -51q-66 0 -101.5 37.5t-37.5 100.5q0 27 1 34h78q0 -41 19.5 -63t55.5 -22
q30 0 56.5 24t38.5 61z" />
    <glyph glyph-name="afii10145" unicode="&#x40f;" horiz-adv-x="696" 
d="M433 147l72 512h191l-92 -659h-211l-24 -166h-164l24 166h-208l92 659h192l-72 -512h200z" />
    <glyph glyph-name="afii10017" unicode="&#x410;" horiz-adv-x="670" 
d="M630 0h-189l-22 84h-222l-44 -84h-183l416 675h23zM350 354h-4l-88 -154h137z" />
    <glyph glyph-name="afii10018" unicode="&#x411;" horiz-adv-x="633" 
d="M354 0h-333l93 659h481q-17 -113 -20 -139h-289l-15 -107h103q54 0 95 -11.5t65 -29t39 -42.5t20 -47.5t5 -48.5q0 -105 -72 -169q-71 -65 -172 -65zM336 283h-83l-20 -143h88q37 0 61 22.5t24 60.5q0 27 -19.5 43.5t-50.5 16.5z" />
    <glyph glyph-name="afii10019" unicode="&#x412;" horiz-adv-x="639" 
d="M345 277h-99q-3 -14 -10 -66l-9 -64h102q41 0 62 22t21 53q0 25 -17.5 40t-49.5 15zM354 516h-75l-17 -116h77q28 0 50.5 18t22.5 51q0 47 -58 47zM506 361v-4q42 -21 64 -58.5t22 -83.5q0 -90 -67 -153q-67 -62 -165 -62h-339l92 659h309q81 0 127 -40.5t46 -107.5
q0 -91 -89 -150z" />
    <glyph glyph-name="afii10020" unicode="&#x413;" horiz-adv-x="530" 
d="M551 512h-268l-71 -512h-191l92 659h459z" />
    <glyph glyph-name="afii10021" unicode="&#x414;" horiz-adv-x="809" 
d="M267 659h495l-71 -512h89l-42 -303h-156l23 156h-479l-22 -156h-153q34 256 41 303h81q49 43 76 101q26 53 53 157zM549 520h-147l-30 -115q-29 -112 -51 -163q-22 -54 -58 -95h235z" />
    <glyph glyph-name="afii10022" unicode="&#x415;" horiz-adv-x="560" 
d="M232 148h281q-6 -46 -10 -74t-10 -74h-472l92 659h450l-21 -147h-258q-4 -20 -9 -57l-6 -44h228l-20 -141h-228q-10 -78 -17 -122z" />
    <glyph glyph-name="afii10024" unicode="&#x416;" horiz-adv-x="1000" 
d="M276 659l143 -298l43 298h190l-42 -298l223 298h208l-256 -321l174 -338h-208l-147 320l-45 -320h-190l45 320l-236 -320h-207l268 342l-166 317h203z" />
    <glyph glyph-name="afii10025" unicode="&#x417;" horiz-adv-x="575" 
d="M205 -13q-121 0 -205 34q9 81 21 162q35 -20 87 -32t98 -12q65 0 102 23.5t37 62.5q0 60 -87 60h-82l17 117h76q41 0 67.5 17t26.5 48q0 51 -96 51q-43 0 -99 -10q-58 -11 -85 -22q1 7 2.5 18.5t4 29t4.5 30.5t4.5 30.5t4 29t2.5 18.5q93 32 219 32q45 0 84 -7.5
t72.5 -24t53 -47.5t19.5 -73q0 -45 -31 -94q-30 -48 -88 -72v-2q46 -15 70.5 -51t24.5 -83q0 -103 -92 -168t-232 -65z" />
    <glyph glyph-name="afii10026" unicode="&#x418;" horiz-adv-x="711" 
d="M712 676l-95 -676h-189l45 325h-4l-430 -340h-20l94 674h191l-45 -322h4l428 339h21z" />
    <glyph glyph-name="afii10027" unicode="&#x419;" horiz-adv-x="711" 
d="M712 676l-95 -676h-189l45 325h-4l-430 -340h-20l94 674h191l-45 -322h4l428 339h21zM551 877h77q-14 -71 -62 -124q-46 -52 -125 -52q-66 0 -101 38t-37 103q0 27 1 35h78q0 -41 19.5 -63.5t55.5 -22.5q32 0 57.5 23.5t36.5 62.5z" />
    <glyph glyph-name="afii10028" unicode="&#x41a;" horiz-adv-x="659" 
d="M114 660h191l-42 -299l232 299h205l-260 -320l178 -340h-207l-154 320l-44 -320h-191z" />
    <glyph glyph-name="afii10029" unicode="&#x41b;" horiz-adv-x="689" 
d="M406 0l72 520h-115l-50 -220q-11 -47 -16 -66q-7 -28 -19 -61q-13 -39 -25 -59q-35 -64 -80 -91q-61 -39 -140 -48l-54 136q73 17 99 43q28 26 43 95l91 410h476l-92 -659h-190z" />
    <glyph glyph-name="afii10030" unicode="&#x41c;" horiz-adv-x="793" 
d="M551 268l-161 -147h-23l-121 161h-4q-11 -83 -19 -141t-19 -141h-184l95 674h22l270 -340l367 340h21l-94 -674h-185l39 267q-1 0 -2 0.5t-2 0.5z" />
    <glyph glyph-name="afii10031" unicode="&#x41d;" horiz-adv-x="688" 
d="M688 659l-92 -659h-191l37 266h-194l-36 -266h-191l92 659h191l-34 -244h193l34 244h191z" />
    <glyph glyph-name="afii10032" unicode="&#x41e;" horiz-adv-x="778" 
d="M447 673q141 0 223 -84q83 -83 83 -213q0 -164 -117 -277q-115 -112 -284 -112q-140 0 -222 82t-82 212q0 163 113 278q114 114 286 114zM375 143q80 0 134 64t54 158q0 67 -35.5 108t-99.5 41q-80 0 -136 -65q-54 -65 -54 -154q0 -68 37.5 -110t99.5 -42z" />
    <glyph glyph-name="afii10033" unicode="&#x41f;" horiz-adv-x="690" 
d="M689 659l-92 -659h-191l72 512h-195l-71 -512h-191l92 659h576z" />
    <glyph glyph-name="afii10034" unicode="&#x420;" horiz-adv-x="587" 
d="M212 0h-191l92 659h265q109 0 164.5 -54t55.5 -145q0 -103 -76 -175q-75 -72 -196 -72h-85zM332 517h-49l-24 -166h51q48 0 74.5 28t26.5 68q0 32 -20 51t-59 19z" />
    <glyph glyph-name="afii10035" unicode="&#x421;" horiz-adv-x="610" 
d="M564 183l-22 -163q-84 -34 -190 -34q-148 0 -228 78q-78 80 -78 209q0 170 113 285q112 115 295 115q96 0 160 -27l-22 -159q-60 29 -132 29q-89 0 -156 -59q-66 -58 -66 -167q0 -71 42.5 -109t116.5 -38q80 0 167 40z" />
    <glyph glyph-name="afii10036" unicode="&#x422;" horiz-adv-x="562" 
d="M608 660l-21 -148h-175l-72 -512h-190l71 512h-173l20 148h540z" />
    <glyph glyph-name="afii10037" unicode="&#x423;" horiz-adv-x="628" 
d="M223 161l4 9l-168 489h201l71 -298h3l152 298h197l-297 -533q-45 -83 -97 -116q-49 -31 -124 -31q-67 0 -126 27l18 136q43 -27 89 -27q53 0 77 46z" />
    <glyph glyph-name="afii10038" unicode="&#x424;" horiz-adv-x="893" 
d="M319 0l8 60q-137 7 -211 69.5t-74 166.5q0 129 101 221q102 92 262 102l6 40h187l-6 -41q133 -11 205 -77q74 -68 74 -165q0 -125 -98 -214q-97 -88 -260 -102l-8 -60h-186zM572 485l-41 -292q66 8 112 56q47 50 47 112q0 50 -32 85t-86 39zM386 486q-69 -7 -115 -58
q-45 -50 -45 -111q0 -50 31 -83.5t88 -40.5q33 232 41 293z" />
    <glyph glyph-name="afii10039" unicode="&#x425;" horiz-adv-x="685" 
d="M69 659h206l83 -274l161 274h207l-202 -318l120 -341h-207l-91 297l-172 -297h-207l213 341z" />
    <glyph glyph-name="afii10040" unicode="&#x426;" horiz-adv-x="740" 
d="M696 659l-72 -512h92l-42 -303h-155l22 156h-520l92 659h192l-72 -512h200l72 512h191z" />
    <glyph glyph-name="afii10041" unicode="&#x427;" horiz-adv-x="676" 
d="M584 0h-192l40 285q-87 -22 -156 -22q-200 0 -200 155q0 20 2 38l29 203h191l-25 -176q-6 -44 12 -65t64 -21q51 0 102 19l34 243h191z" />
    <glyph glyph-name="afii10042" unicode="&#x428;" horiz-adv-x="1022" 
d="M832 660h190l-92 -660h-908l92 660h192l-72 -513h167l71 513h192l-72 -513h167z" />
    <glyph glyph-name="afii10043" unicode="&#x429;" horiz-adv-x="1067" 
d="M233 147h167l72 512h192l-72 -512h167l72 512h191l-72 -512h92l-43 -303h-154l22 156h-846l92 659h192z" />
    <glyph glyph-name="afii10044" unicode="&#x42a;" horiz-adv-x="826" 
d="M462 413h105q134 0 182 -61q42 -50 42 -117q0 -106 -72 -170q-73 -65 -172 -65h-331l71 512h-245l21 147h434q-7 -57 -35 -246zM529 283h-85q-5 -40 -10 -72t-10 -72h89q37 0 61.5 23t24.5 61q0 27 -19.5 43.5t-50.5 16.5z" />
    <glyph glyph-name="afii10045" unicode="&#x42b;" horiz-adv-x="906" 
d="M354 0h-333l93 659h190l-34 -246h104q134 0 182 -61q42 -50 42 -117q0 -106 -72 -170q-71 -65 -172 -65zM336 283h-85q-3 -33 -20 -144h90q36 0 60.5 24t24.5 60q0 27 -19.5 43.5t-50.5 16.5zM905 659l-92 -659h-190l92 659h190z" />
    <glyph glyph-name="afii10046" unicode="&#x42c;" horiz-adv-x="633" 
d="M354 0h-332l93 660h190l-35 -246h105q134 0 182 -61q42 -50 42 -116q0 -106 -72 -172q-73 -65 -173 -65zM336 283h-84l-21 -144h90q37 0 61.5 23.5t24.5 60.5q0 28 -19.5 44t-51.5 16z" />
    <glyph glyph-name="afii10047" unicode="&#x42d;" horiz-adv-x="610" 
d="M2 20l23 163q77 -41 156 -41q73 0 124.5 35.5t68.5 98.5h-228q8 48 18 129h218q-4 53 -43.5 81.5t-101.5 28.5q-83 0 -151 -28l22 157q82 29 189 29q147 0 217 -79q72 -78 72 -204q0 -168 -110 -286q-110 -117 -294 -117q-106 0 -180 33z" />
    <glyph glyph-name="afii10048" unicode="&#x42e;" horiz-adv-x="1072" 
d="M251 272l-38 -272h-192l92 659h192l-36 -255h108q38 120 139 194q102 75 234 75q140 0 219 -81q79 -80 79 -208q0 -166 -113 -282q-113 -114 -283 -114q-134 0 -214 79q-81 79 -81 205h-106zM727 506q-77 0 -130 -63q-53 -62 -53 -149q0 -66 36 -106.5t97 -40.5
q79 0 130 63t51 154q0 65 -34.5 103.5t-96.5 38.5z" />
    <glyph glyph-name="afii10049" unicode="&#x42f;" horiz-adv-x="639" 
d="M169 0h-195l197 266q-93 51 -93 147q0 115 83 180q83 66 198 66h280l-92 -659h-190l71 512h-58q-47 0 -77 -31.5t-30 -77.5q0 -36 25 -63.5t73 -38.5l-3 -16z" />
    <glyph glyph-name="afii10065" unicode="&#x430;" horiz-adv-x="580" 
d="M285 323q-43 0 -68.5 -35.5t-25.5 -85.5q0 -75 67 -75q41 0 69 34t28 85q0 35 -18.5 56t-51.5 21zM368 0l-7 49h-5q-67 -59 -161 -59q-86 0 -132 48.5t-46 133.5q0 123 71 206q70 82 187 82q93 0 143 -65l27 51h113l-63 -446h-127z" />
    <glyph glyph-name="afii10066" unicode="&#x431;" horiz-adv-x="557" 
d="M341 451q84 0 133 -50t49 -134q0 -118 -77 -198q-76 -79 -202 -79q-112 0 -168 56t-56 154q0 188 55 310q49 112 136 160q88 49 277 65l38 -128q-67 -6 -83 -8q-31 -3 -71 -12q-39 -9 -66 -23q-100 -54 -110 -173l2 -2q45 62 143 62zM192 202q0 -75 68 -75q43 0 71 34
t28 85q0 34 -18.5 55t-51.5 21q-43 0 -70 -35t-27 -85z" />
    <glyph glyph-name="afii10067" unicode="&#x432;" horiz-adv-x="523" 
d="M291 462q97 0 138 -35q42 -35 42 -79q0 -29 -17.5 -54.5t-49.5 -37.5v-2q-1 -1 -1 -2q44 -9 66.5 -36t22.5 -63q0 -65 -65 -115t-181 -50q-98 0 -162 43q-63 43 -63 131q0 18 3 38l12 78q12 81 81 132q68 52 174 52zM273 201h-29l12 78h21q24 0 38 11.5t14 28.5
q0 18 -12.5 29t-34.5 11q-68 0 -82 -107l-9 -69q-1 -3 -1 -13q0 -59 66 -59q34 0 53.5 17t19.5 39q0 34 -56 34z" />
    <glyph glyph-name="afii10068" unicode="&#x433;" horiz-adv-x="415" 
d="M375 157l-18 -129q-81 -39 -182 -39q-87 0 -129 30.5t-42 83.5q0 47 34 86.5t75 60t75 40t34 31.5q0 23 -42 23q-58 0 -123 -35l17 119q84 32 169 32q73 0 113 -30.5t40 -81.5q0 -38 -22.5 -72t-57.5 -55q-20 -12 -63 -34t-63 -36t-20 -26q0 -25 47 -25q32 0 77 16
q49 17 81 41z" />
    <glyph glyph-name="afii10069" unicode="&#x434;" horiz-adv-x="563" 
d="M380 414l6 1q0 26 -2 44q-10 79 -76 117q-66 39 -158 40h-39l66 111q5 0 17 0.5t16 0.5q331 0 331 -336q0 -117 -37 -213q-73 -190 -265 -190q-112 0 -166 57q-53 58 -53 141q0 114 70 191q70 78 173 78q84 0 117 -42zM284 322q-41 -1 -66.5 -34t-25.5 -81q0 -80 69 -80
q42 0 68.5 32t26.5 81q0 82 -72 82z" />
    <glyph glyph-name="afii10070" unicode="&#x435;" horiz-adv-x="497" 
d="M289 462q81 0 130.5 -37.5t49.5 -98.5q0 -42 -22.5 -74.5t-59 -49.5t-76.5 -25.5t-82 -8.5q-6 0 -36 2v-6q0 -56 85 -56q38 0 83 14.5t78 37.5q-3 -18 -16 -124q-76 -46 -194 -46q-109 0 -160 55t-51 140q0 113 73 195t198 82zM273 340q-31 0 -51.5 -23t-26.5 -64
q14 -2 22 -2q40 0 68 14t28 39q0 16 -10.5 26t-29.5 10z" />
    <glyph glyph-name="afii10072" unicode="&#x436;" horiz-adv-x="808" 
d="M-30 0l182 232l-113 214h179l96 -197q7 43 28 197h178l-27 -197l150 197h180l-173 -215l118 -231h-183l-97 213l-30 -213h-178l29 213l-156 -213h-183z" />
    <glyph glyph-name="afii10073" unicode="&#x437;" horiz-adv-x="450" 
d="M158 -13q-98 0 -156 31q3 26 6.5 50.5t6 45t3.5 26.5q53 -36 131 -36q43 0 68 13t25 36q0 15 -11 20t-42 5h-53l12 95h42q63 0 63 31q0 36 -66 36q-62 0 -130 -30l7 54l11 71q67 24 163 24q82 0 132 -27t50 -81q0 -78 -82 -112q34 -11 51 -35t17 -53q0 -76 -71 -120
t-177 -44z" />
    <glyph glyph-name="afii10074" unicode="&#x438;" horiz-adv-x="549" 
d="M33 156l41 290h170l-35 -253q-4 -31 7 -49t35 -18q26 0 46.5 27.5t26.5 67.5q24 175 31 225h173l-62 -446h-146q-5 61 -5 64h-5q-57 -73 -152 -73q-61 0 -94 33t-33 92q0 22 2 40z" />
    <glyph glyph-name="afii10075" unicode="&#x439;" horiz-adv-x="549" 
d="M33 156l41 290h170l-35 -253q-4 -31 7 -49t35 -18q26 0 46.5 27.5t26.5 67.5q24 175 31 225h173l-62 -446h-146q-5 61 -5 64h-5q-57 -73 -152 -73q-61 0 -94 33t-33 92q0 22 2 40zM411 676h77q-14 -71 -62 -124q-46 -52 -125 -52q-66 0 -101 38t-37 103q0 27 1 35h78
q0 -41 19.5 -63.5t55.5 -22.5q32 0 57.5 23.5t36.5 62.5z" />
    <glyph glyph-name="afii10076" unicode="&#x43a;" horiz-adv-x="546" 
d="M378 446h182l-178 -214l124 -232h-184l-103 213l-29 -213h-178l62 446h178q-7 -44 -28 -198z" />
    <glyph glyph-name="afii10077" unicode="&#x43b;" horiz-adv-x="547" 
d="M339 318h-72l-27 -118q-17 -72 -39 -117q-23 -45 -64 -70t-114 -34l-47 124q51 6 75.5 31t37.5 77l55 236h383l-63 -447h-169z" />
    <glyph glyph-name="afii10078" unicode="&#x43c;" horiz-adv-x="661" 
d="M431 160l-114 -94h-22l-91 101h-2l-25 -167h-168l68 454h26l225 -221l288 221h25l-59 -454h-170l21 160h-2z" />
    <glyph glyph-name="afii10079" unicode="&#x43d;" horiz-adv-x="560" 
d="M539 446l-62 -446h-171l24 174h-123l-24 -174h-171l62 446h170l-22 -164h123l23 164h171z" />
    <glyph glyph-name="afii10080" unicode="&#x43e;" horiz-adv-x="550" 
d="M304 461q104 0 161.5 -53.5t57.5 -144.5q0 -119 -79 -197q-80 -77 -204 -77q-104 0 -163 53.5t-59 144.5q0 117 80 195q79 79 206 79zM288 322q-43 0 -69.5 -34.5t-26.5 -84.5q0 -36 17.5 -56t50.5 -20q42 0 70 34t28 84q0 36 -18.5 56.5t-51.5 20.5z" />
    <glyph glyph-name="afii10081" unicode="&#x43f;" horiz-adv-x="556" 
d="M214 446l10 -61l3 1q65 74 157 74q65 0 98.5 -32.5t33.5 -93.5q0 -15 -6 -66l-37 -268h-172l35 249q4 32 -6 52.5t-34 20.5q-68 0 -82 -103l-31 -219h-171l62 446h140z" />
    <glyph glyph-name="afii10082" unicode="&#x440;" horiz-adv-x="582" 
d="M212 446l7 -52h5q54 65 151 65q87 0 133 -52.5t46 -139.5q0 -129 -73 -203q-72 -74 -178 -74q-79 0 -116 42l-36 -249h-173l92 663h142zM316 320q-42 0 -70 -34t-28 -85q0 -36 18.5 -57t52.5 -21q42 0 69 34t27 85q0 37 -18 57.5t-51 20.5z" />
    <glyph glyph-name="afii10083" unicode="&#x441;" horiz-adv-x="431" 
d="M301 461q67 0 114 -21l-1 -7q-1 -7 -3 -24t-4 -37q-7 -65 -9 -70q-37 22 -88 22q-53 0 -85.5 -32.5t-32.5 -89.5q0 -37 23 -58t64 -21q52 0 109 30l-19 -134q-58 -31 -151 -31q-96 0 -148 55q-53 56 -53 141q0 130 81 203q83 74 203 74z" />
    <glyph glyph-name="afii10084" unicode="&#x442;" horiz-adv-x="820" 
d="M213 446l9 -56h2q1 -1 3 -1q63 72 147 72q96 0 121 -85q60 85 153 85q64 0 98.5 -33.5t34.5 -95.5q0 -24 -3 -41l-41 -291h-172l35 244q0 2 1 12l1 10q0 56 -38 56q-31 0 -49 -28t-27 -97l-14 -99l-14 -98h-171q29 203 35 251q0 1 0.5 6t0.5 6q0 30 -8.5 44.5t-30.5 14.5
q-34 0 -51 -30t-26 -93l-26 -199h-171l62 446h139z" />
    <glyph glyph-name="afii10085" unicode="&#x443;" horiz-adv-x="504" 
d="M196 446l35 -270h5l115 270h175l-341 -664h-165l116 230l-114 434h174z" />
    <glyph glyph-name="afii10086" unicode="&#x444;" horiz-adv-x="750" 
d="M318 451l36 260h167l-36 -260q112 -6 174 -58.5t62 -136.5q0 -74 -44 -135q-84 -116 -257 -131l-29 -207h-167l29 208q-117 6 -176 60.5t-59 140.5q0 105 83 176q85 71 217 83zM468 327l-30 -210q45 5 81 36q37 33 38 78q0 84 -89 96zM273 117l29 208q-47 -3 -82 -38
q-34 -34 -34 -81q0 -39 23.5 -63t63.5 -26z" />
    <glyph glyph-name="afii10087" unicode="&#x445;" horiz-adv-x="530" 
d="M489 0h-175l-60 191l-115 -191h-173l146 230l-78 216h173l57 -178l108 178h173l-137 -216z" />
    <glyph glyph-name="afii10088" unicode="&#x446;" horiz-adv-x="639" 
d="M159 -10q-64 0 -96.5 33t-32.5 94q0 22 2 40l42 289h171l-36 -253q-1 -3 -1 -11q0 -24 11 -40t31 -16q29 0 48.5 25.5t25.5 69.5q24 175 31 225h173l-44 -315l129 12l9 -11q-3 -17 -9.5 -66t-10.5 -74q-3 -23 -7.5 -54.5t-7.5 -51l-5 -32.5h-151l27 152q-26 -1 -144 -16
l-9 9l11 68q-1 1 -2 1h-1q-1 1 -2 1q-63 -79 -152 -79z" />
    <glyph glyph-name="afii10089" unicode="&#x447;" horiz-adv-x="542" 
d="M459 0h-178l28 191q-1 1 -3 1q-27 -31 -66.5 -48.5t-76.5 -17.5q-125 0 -128 116q0 18 2 36l24 168h171l-12 -90l-5 -50q0 -43 38 -43q39 0 59 40.5t31 142.5h177z" />
    <glyph glyph-name="afii10090" unicode="&#x448;" horiz-adv-x="820" 
d="M598 0l-9 56h-2q-1 1 -3 1q-63 -72 -147 -72q-96 0 -121 85q-60 -85 -153 -85q-64 0 -98.5 33.5t-34.5 95.5q0 24 3 41l41 291h172l-35 -244q0 -2 -1 -12l-1 -10q0 -56 38 -56q31 0 49 28t27 97l14 98l14 99h171q-29 -203 -35 -251q0 -1 -0.5 -6t-0.5 -6q0 -30 8.5 -44.5
t30.5 -14.5q34 0 51 30t26 93l26 199h171l-62 -446h-139z" />
    <glyph glyph-name="afii10091" unicode="&#x449;" horiz-adv-x="911" 
d="M438 -15q-96 0 -122 84q-60 -84 -153 -84q-65 0 -99 34t-34 95q0 16 3 36l41 296h172l-34 -236q-3 -12 -3 -33q0 -54 38 -54q58 0 72 92l32 231h171q-28 -196 -35 -252q-1 -3 -1 -12q0 -59 40 -59q60 0 78 134l24 189h171l-44 -315l129 12l9 -11q-3 -17 -9.5 -66
t-10.5 -74q-3 -23 -7.5 -54.5t-7.5 -51l-5 -32.5h-151q0 2 1.5 10t4 23t5.5 32q16 86 16 87h-1l-139 -16l-8 9l11 68q-3 0 -5 2q-59 -84 -149 -84z" />
    <glyph glyph-name="afii10092" unicode="&#x44a;" horiz-adv-x="669" 
d="M185 317h-165l9 65q7 52 8 64h339l-17 -121l1 -1l2 -2h125q71 0 113.5 -34.5t42.5 -97.5q0 -84 -70 -142q-70 -59 -189 -59q-100 0 -157 48t-57 142q0 21 5 58zM422 218h-72q0 -4 -2.5 -24t-2.5 -26q0 -55 62 -55q33 0 54 18t21 44q0 43 -60 43z" />
    <glyph glyph-name="afii10093" unicode="&#x44b;" horiz-adv-x="769" 
d="M274 219h-73q0 -3 -3 -24t-3 -27q0 -55 64 -55q32 0 53 18.5t21 43.5q0 44 -59 44zM227 446l-15 -124h127q71 0 113.5 -34.5t42.5 -97.5q0 -83 -70 -143q-71 -59 -190 -59q-100 0 -157 48t-57 143q0 2 5 57l28 210h173zM753 446l-62 -446h-172l62 446h172z" />
    <glyph glyph-name="afii10094" unicode="&#x44c;" horiz-adv-x="520" 
d="M274 219h-73q0 -3 -3 -24t-3 -27q0 -55 64 -55q32 0 53 18.5t21 43.5q0 44 -59 44zM227 446l-15 -124h127q71 0 113.5 -34.5t42.5 -97.5q0 -83 -70 -143q-71 -59 -190 -59q-100 0 -157 48t-57 143q0 2 5 57l28 210h173z" />
    <glyph glyph-name="afii10095" unicode="&#x44d;" horiz-adv-x="433" 
d="M215 178h-111l14 95h108q-8 50 -82 50q-48 0 -95 -22l19 135q66 25 136 25q95 0 147 -53t52 -147q0 -119 -73 -195q-74 -77 -192 -77q-92 0 -143 30q9 54 18 134q49 -30 104 -30q74 0 98 55z" />
    <glyph glyph-name="afii10096" unicode="&#x44e;" horiz-adv-x="805" 
d="M562 461q100 0 156 -53.5t56 -144.5q0 -118 -78 -196q-77 -77 -198 -77q-101 0 -155 50.5t-59 141.5h-76q-6 -43 -26 -182h-170l62 446h170l-23 -172h76q27 85 97.5 136t167.5 51zM546 322q-43 0 -69 -35t-26 -85q0 -75 67 -75q42 0 69 33.5t27 84.5q0 34 -18 55.5
t-50 21.5z" />
    <glyph glyph-name="afii10097" unicode="&#x44f;" horiz-adv-x="538" 
d="M148 0h-177l148 182q-65 29 -65 101q0 76 56 120q56 43 145 43h261l-62 -446h-171l47 330h-37q-31 0 -51.5 -19.5t-20.5 -45.5q0 -43 62 -54l-3 -24z" />
    <glyph glyph-name="afii10071" unicode="&#x451;" horiz-adv-x="497" 
d="M289 462q81 0 130.5 -37.5t49.5 -98.5q0 -42 -22.5 -74.5t-59 -49.5t-76.5 -25.5t-82 -8.5q-6 0 -36 2v-6q0 -56 85 -56q38 0 83 14.5t78 37.5q-3 -18 -16 -124q-76 -46 -194 -46q-109 0 -160 55t-51 140q0 113 73 195t198 82zM423 688q29 0 46.5 -18t17.5 -46
q0 -35 -25 -61q-26 -27 -60 -27q-29 0 -46 18t-17 46q0 37 25.5 62.5t58.5 25.5zM229 688q27 0 45 -18.5t18 -45.5q0 -33 -26 -61q-26 -27 -58 -27q-29 0 -46.5 18t-17.5 46q0 37 25.5 62.5t59.5 25.5zM273 340q-31 0 -51.5 -23t-26.5 -64q14 -2 22 -2q40 0 68 14t28 39
q0 16 -10.5 26t-29.5 10z" />
    <glyph glyph-name="afii10099" unicode="&#x452;" horiz-adv-x="577" 
d="M96 617l13 94h165l-13 -94h150l-10 -75h-150l-20 -134l6 -3q62 50 142 50q77 0 122.5 -47t45.5 -137q0 -131 -78 -237q-72 -98 -154 -144l-101 64q99 61 134 146q27 66 27 119q0 96 -79 96q-36 0 -60.5 -23.5t-29.5 -68.5q-8 -50 -31 -223h-165l75 542h-42l10 75h43z" />
    <glyph glyph-name="afii10100" unicode="&#x453;" horiz-adv-x="415" 
d="M375 157l-18 -129q-81 -39 -182 -39q-87 0 -129 30.5t-42 83.5q0 47 34 86.5t75 60t75 40t34 31.5q0 23 -42 23q-58 0 -123 -35l17 119q84 32 169 32q73 0 113 -30.5t40 -81.5q0 -38 -22.5 -72t-57.5 -55q-20 -12 -63 -34t-63 -36t-20 -26q0 -25 47 -25q32 0 77 16
q49 17 81 41zM430 648l-153 -139h-97l147 196z" />
    <glyph glyph-name="afii10101" unicode="&#x454;" horiz-adv-x="431" 
d="M301 461q63 0 114 -21l-9 -69l-9 -69q-37 21 -82 21q-80 0 -107 -50h111l-11 -95h-116q6 -55 87 -55q52 0 109 30l-19 -134q-57 -30 -151 -30t-147 54.5t-53 143.5q0 127 81 200q82 74 202 74z" />
    <glyph glyph-name="afii10102" unicode="&#x455;" 
d="M-11 28l9 64q3 33 8 65q27 -25 68.5 -40.5t76.5 -15.5q52 0 52 33q0 12 -17 24t-41.5 25.5t-49.5 29.5t-42 42.5t-17 59.5q0 64 51.5 104.5t139.5 40.5q81 0 153 -32l-16 -119q-55 35 -110 35q-48 0 -48 -30q0 -18 80 -58q33 -17 56.5 -49t23.5 -71q0 -63 -54 -105
t-154 -42q-102 0 -169 39z" />
    <glyph glyph-name="afii10103" unicode="&#x456;" horiz-adv-x="275" 
d="M250 446l-62 -446h-172l62 446h172zM201 695q35 0 57 -22.5t22 -56.5q0 -43 -31 -75q-32 -32 -73 -32q-36 0 -57 22t-21 57q0 44 32 76q32 31 71 31z" />
    <glyph glyph-name="afii10104" unicode="&#x457;" horiz-adv-x="275" 
d="M105 681q27 0 45 -18.5t18 -45.5q0 -33 -26 -61q-25 -27 -58 -27q-29 0 -46.5 18t-17.5 46q0 37 25.5 62.5t59.5 25.5zM299 681q29 0 46.5 -18t17.5 -46q0 -35 -25 -61q-26 -27 -60 -27q-29 0 -46 18t-17 46q0 37 25.5 62.5t58.5 25.5zM250 446l-62 -446h-172l62 446h172
z" />
    <glyph glyph-name="afii10105" unicode="&#x458;" horiz-adv-x="271" 
d="M198 694q35 0 57 -22t22 -56q0 -43 -31 -75q-32 -32 -73 -32q-36 0 -57 22t-21 56q0 46 32 76q32 31 71 31zM-89 -233l-48 143q85 4 117 36t44 119l54 381h170l-55 -395q-21 -149 -93 -213q-71 -63 -189 -71z" />
    <glyph glyph-name="afii10106" unicode="&#x459;" horiz-adv-x="819" 
d="M322 176v14q3 56 15 128h-70l-27 -116l-16 -63q-5 -17 -23 -55q-16 -34 -39 -52q-55 -48 -147 -53l-21 61l-19 58q56 5 78 32q23 28 36 81l55 235h382l-17 -123q1 -1 2 -1h127q71 0 113.5 -34.5t42.5 -97.5q0 -84 -70 -142q-70 -59 -189 -59q-97 0 -155 48.5t-58 138.5z
M573 218h-72q0 -4 -3 -25t-3 -27q0 -53 63 -53q32 0 53.5 18.5t21.5 43.5q0 43 -60 43z" />
    <glyph glyph-name="afii10107" unicode="&#x45a;" horiz-adv-x="825" 
d="M533 446l-18 -137l2 -2h125q74 0 115.5 -31t41.5 -93q0 -84 -70 -142q-70 -59 -189 -59q-99 0 -160 46t-55 140q0 6 5 38h-116l-31 -206h-171l62 446h170l-18 -138h115l18 138h174zM578 210h-73q-6 -33 -6 -48q-2 -27 13.5 -41t50.5 -14q33 0 54 18t21 44q0 41 -60 41z
" />
    <glyph glyph-name="afii10108" unicode="&#x45b;" horiz-adv-x="552" 
d="M511 292l-41 -292h-171l31 223q4 15 4 37q0 62 -41 62q-52 0 -75 -80q-10 -37 -16 -74q-4 -21 -13 -89l-9 -79h-170l75 542h-42l10 75h43l13 94h165l-13 -94h150l-10 -75h-151l-20 -145l1 -1h2q60 64 144 64q65 0 100.5 -33t35.5 -94q0 -23 -2 -41z" />
    <glyph glyph-name="afii10109" unicode="&#x45c;" horiz-adv-x="546" 
d="M378 446h182l-178 -214l124 -232h-184l-103 213l-29 -213h-178l62 446h178q-7 -44 -28 -198zM481 648l-153 -139h-97l147 196z" />
    <glyph glyph-name="afii10110" unicode="&#x45e;" horiz-adv-x="504" 
d="M399 680h77q-14 -71 -62 -124q-46 -52 -125 -52q-66 0 -101 38t-37 103q0 27 1 35h78q0 -41 19.5 -63.5t55.5 -22.5q32 0 57.5 23.5t36.5 62.5zM196 446l35 -270h5l115 270h175l-341 -664h-165l116 230l-114 434h174z" />
    <glyph glyph-name="afii10193" unicode="&#x45f;" horiz-adv-x="549" 
d="M326 -230h-129l15 86l18 107h119zM33 156l41 290h170l-35 -253q-4 -31 7 -49t35 -18q26 0 46.5 27.5t26.5 67.5q24 175 31 225h173l-62 -446h-146q-5 61 -5 64h-5q-57 -73 -152 -73q-61 0 -94 33t-33 92q0 22 2 40z" />
    <glyph glyph-name="afii10050" unicode="&#x490;" horiz-adv-x="550" 
d="M579 519h-294l-72 -519h-191l92 660h334l17 119h151z" />
    <glyph glyph-name="afii10098" unicode="&#x491;" horiz-adv-x="442" 
d="M446 327h-217l-45 -327h-171l61 447h257l16 107h131z" />
    <glyph glyph-name="schwacyrillic" unicode="&#x4d9;" horiz-adv-x="508" 
d="M207 -10q-81 0 -130.5 37.5t-49.5 98.5q0 74 68 109q69 36 165 36q25 0 43 -2q-1 35 -23.5 55t-61.5 20q-86 0 -161 -53l16 125q77 47 194 47q108 0 159 -56q52 -55 52 -140q0 -112 -74 -195q-73 -82 -197 -82zM223 112q31 0 51.5 22.5t27.5 63.5q-18 2 -26 2
q-41 0 -67 -13t-26 -39q0 -16 10.5 -26t29.5 -10z" />
    <glyph glyph-name="Wgrave" unicode="&#x1e80;" horiz-adv-x="971" 
d="M344 359l187 311h21l107 -311h4l160 300h198l-384 -676h-21l-118 366l-221 -366h-23l-192 676h199l79 -300h4zM488 900l119 -189h-91l-138 136z" />
    <glyph glyph-name="wgrave" unicode="&#x1e81;" horiz-adv-x="754" 
d="M255 271l136 188h23l89 -187h4l100 174h174l-283 -457h-24q-13 29 -51 109q-46 101 -53 119l-164 -228h-24l-158 457h175l11 -37q10 -37 18 -63q5 -17 10.5 -35.5t8.5 -27.5l4 -12h4zM374 701l111 -192h-91l-128 139z" />
    <glyph glyph-name="Wacute" unicode="&#x1e82;" horiz-adv-x="971" 
d="M344 359l187 311h21l107 -311h4l160 300h198l-384 -676h-21l-118 366l-221 -366h-23l-192 676h199l79 -300h4zM737 844l-157 -135h-98l150 191z" />
    <glyph glyph-name="wacute" unicode="&#x1e83;" horiz-adv-x="754" 
d="M255 271l136 188h23l89 -187h4l100 174h174l-283 -457h-24q-13 29 -51 109q-46 101 -53 119l-164 -228h-24l-158 457h175l11 -37q10 -37 18 -63q5 -17 10.5 -35.5t8.5 -27.5l4 -12h4zM592 648l-153 -139h-97l147 196z" />
    <glyph glyph-name="Wdieresis" unicode="&#x1e84;" horiz-adv-x="971" 
d="M344 359l187 311h21l107 -311h4l160 300h198l-384 -676h-21l-118 366l-221 -366h-23l-192 676h199l79 -300h4zM473 868q29 0 46.5 -19t17.5 -47q0 -34 -25.5 -60.5t-59.5 -26.5q-29 0 -46.5 18t-17.5 46q0 37 26 63t59 26zM669 868q27 0 45 -19t18 -46q0 -34 -25.5 -61
t-58.5 -27q-29 0 -46.5 18t-17.5 46q0 37 25.5 63t59.5 26z" />
    <glyph glyph-name="wdieresis" unicode="&#x1e85;" horiz-adv-x="754" 
d="M255 271l136 188h23l89 -187h4l100 174h174l-283 -457h-24q-13 29 -51 109q-46 101 -53 119l-164 -228h-24l-158 457h175l11 -37q10 -37 18 -63q5 -17 10.5 -35.5t8.5 -27.5l4 -12h4zM334 664q27 0 45 -18.5t18 -45.5q0 -33 -26 -61q-25 -27 -58 -27q-29 0 -46.5 18
t-17.5 46q0 37 25.5 62.5t59.5 25.5zM528 664q29 0 46.5 -18t17.5 -46q0 -35 -25 -61q-26 -27 -60 -27q-29 0 -46 18t-17 46q0 37 25.5 62.5t58.5 25.5z" />
    <glyph glyph-name="Ygrave" unicode="&#x1ef2;" horiz-adv-x="629" 
d="M267 659l69 -252h4q26 53 135 252h206l-272 -415l-34 -244h-191l35 244l-156 415h204zM326 900l119 -189h-91l-138 136z" />
    <glyph glyph-name="ygrave" unicode="&#x1ef3;" horiz-adv-x="504" 
d="M196 446l35 -270h5l115 270h175l-341 -664h-165l116 230l-114 434h174zM249 701l111 -192h-91l-128 139z" />
    <glyph glyph-name="endash" unicode="&#x2013;" horiz-adv-x="598" 
d="M565 192h-548l16 121h549z" />
    <glyph glyph-name="emdash" unicode="&#x2014;" horiz-adv-x="830" 
d="M795 192h-776l16 121h777z" />
    <glyph glyph-name="afii00208" unicode="&#x2015;" horiz-adv-x="830" 
d="M795 192h-776l16 121h777z" />
    <glyph glyph-name="quoteleft" unicode="&#x2018;" horiz-adv-x="242" 
d="M137 360q-31 0 -50 19t-19 49q0 50 46 121q47 72 100 127l57 -9l-84 -145q42 -16 42 -62q0 -40 -27.5 -70t-64.5 -30z" />
    <glyph glyph-name="quoteright" unicode="&#x2019;" horiz-adv-x="242" 
d="M182 672q32 0 50.5 -19.5t18.5 -50.5q0 -47 -47 -120q-46 -70 -99 -126l-57 9l84 145q-42 16 -42 63q0 40 27.5 69.5t64.5 29.5z" />
    <glyph glyph-name="quotesinglbase" unicode="&#x201a;" horiz-adv-x="247" 
d="M111 156q33 0 52.5 -20t19.5 -50q0 -54 -47 -128q-45 -71 -100 -123l-58 10l82 145q-44 18 -44 64q0 40 29 71q28 31 66 31z" />
    <glyph glyph-name="quotedblleft" unicode="&#x201c;" horiz-adv-x="437" 
d="M138 360q-32 0 -51 19t-19 49q0 50 46 121q45 69 101 127l56 -9l-84 -145q42 -16 42 -62q0 -41 -28 -70q-27 -30 -63 -30zM323 360q-32 0 -51 19t-19 49q0 49 46 119q45 70 101 129l57 -9l-84 -145q42 -16 42 -62q0 -40 -27.5 -70t-64.5 -30z" />
    <glyph glyph-name="quotedblright" unicode="&#x201d;" horiz-adv-x="437" 
d="M371 672q32 0 51 -19.5t19 -50.5q0 -46 -47 -119q-45 -70 -99 -127l-57 9l84 145q-42 16 -42 62q0 40 27 70t64 30zM186 672q32 0 51 -19t19 -50q0 -47 -47 -120q-49 -74 -99 -127l-57 9l84 145q-43 16 -43 62q0 40 27.5 70t64.5 30z" />
    <glyph glyph-name="quotedblbase" unicode="&#x201e;" horiz-adv-x="440" 
d="M112 156q32 0 52 -20t20 -50q0 -54 -47 -128q-45 -71 -100 -123l-58 10l82 145q-44 18 -44 64q0 40 29 71q28 31 66 31zM303 156q32 0 51.5 -20t19.5 -51q0 -54 -47 -128q-45 -71 -100 -123l-57 10l82 146q-44 17 -44 63q0 41 29 72q28 31 66 31z" />
    <glyph glyph-name="dagger" unicode="&#x2020;" horiz-adv-x="579" 
d="M215 351h-145l10 71l10 71h144l25 177h169l-25 -177h153l-10 -71l-10 -71h-152l-66 -470h-170z" />
    <glyph glyph-name="daggerdbl" unicode="&#x2021;" horiz-adv-x="579" 
d="M217 363h-145q14 108 19 138h144l24 169h169l-24 -169h153q-14 -108 -19 -138h-152l-24 -168h152l-20 -140h-152l-25 -174h-169l12 87q3 25 13 87h-145l20 140h144l12 84z" />
    <glyph glyph-name="bullet" unicode="&#x2022;" horiz-adv-x="490" 
d="M277 397q65 0 108 -45q45 -45 45 -108q0 -64 -45 -108q-44 -44 -108 -44q-62 0 -108 44q-45 45 -45 108t45 108t108 45z" />
    <glyph glyph-name="trianglebullet" unicode="&#x2023;" horiz-adv-x="506" 
d="M121 68v408l390 -199z" />
    <glyph glyph-name="ellipsis" unicode="&#x2026;" horiz-adv-x="750" 
d="M127 159q30 0 50 -21t20 -53q0 -38 -29 -67t-65 -29q-31 0 -52.5 21t-21.5 51q0 41 30 69q31 29 68 29zM365 159q30 0 50 -21t20 -53q0 -38 -29 -67t-65 -29q-32 0 -53 21t-21 51q0 41 30 69q31 29 68 29zM602 159q30 0 50 -21t20 -53q0 -38 -29 -67t-64 -29
q-32 0 -53 21t-21 51q0 41 30 69q31 29 67 29z" />
    <glyph glyph-name="perthousand" unicode="&#x2030;" horiz-adv-x="1194" 
d="M952 -12q-71 0 -110.5 37t-39.5 100q0 79 56 138q55 58 142 58q70 0 110.5 -39t40.5 -101q0 -79 -57 -136t-142 -57zM986 216q-26 0 -45 -23t-19 -53q0 -50 46 -50q27 0 46 21t19 53q0 23 -13 37.5t-34 14.5zM221 353q-71 0 -111.5 38t-40.5 101q0 79 56 138
q57 58 142 58q70 0 111 -39.5t41 -102.5q0 -78 -57 -136q-57 -57 -141 -57zM253 583q-26 0 -44.5 -23t-18.5 -53q0 -24 12 -37.5t33 -13.5q27 0 46.5 21.5t19.5 53.5q0 23 -13 37.5t-35 14.5zM567 -12q-71 0 -110.5 37t-39.5 100q0 79 56 138q55 58 142 58q70 0 110.5 -39.5
t40.5 -101.5q0 -78 -58 -135q-57 -57 -141 -57zM601 216q-27 0 -45.5 -23t-18.5 -53q0 -50 46 -50q27 0 46 21.5t19 52.5q0 23 -12.5 37.5t-34.5 14.5zM637 685h101l-550 -715h-101z" />
    <glyph glyph-name="guilsinglleft" unicode="&#x2039;" horiz-adv-x="316" 
d="M320 408l-157 -195l102 -202h-152l-94 194l1 10l150 193h150z" />
    <glyph glyph-name="guilsinglright" unicode="&#x203a;" horiz-adv-x="316" 
d="M136 11h-151l158 202l-103 195h151l95 -193l-1 -10z" />
    <glyph glyph-name="fraction" unicode="&#x2044;" horiz-adv-x="104" 
d="M294 685h100l-549 -716h-99z" />
    <glyph glyph-name="fraction" unicode="&#x2215;" horiz-adv-x="104" 
d="M294 685h100l-549 -716h-99z" />
    <glyph glyph-name="zerosuperior" unicode="&#x2070;" horiz-adv-x="369" 
d="M260 788q73 0 109.5 -42t36.5 -114q0 -59 -20 -116q-19 -55 -68 -95q-47 -40 -117 -40q-145 0 -145 154q0 44 11 86.5t34 81t64.5 62t94.5 23.5zM247 691q-26 0 -42 -31q-25 -49 -25 -121q0 -60 37 -60q31 0 48 47q16 45 16 104q0 61 -34 61z" />
    <glyph glyph-name="foursuperior" unicode="&#x2074;" horiz-adv-x="369" 
d="M34 482l195 297h117l-152 -228h50l4 25l47 74h80l-14 -99h38l-13 -87h-37l-11 -76h-116l10 76h-200z" />
    <glyph glyph-name="fivesuperior" unicode="&#x2075;" horiz-adv-x="369" 
d="M242 656q60 0 97 -30t37 -83q0 -67 -55 -113q-53 -46 -137 -46q-79 0 -135 31l16 106q47 -44 112 -44q35 0 57.5 17.5t22.5 42.5q0 40 -68 40q-52 0 -88 -15l-13 8l55 212h247l-11 -88h-159l-11 -41q11 3 33 3z" />
    <glyph glyph-name="sixsuperior" unicode="&#x2076;" horiz-adv-x="369" 
d="M362 782l-103 -131l2 -2q60 0 93.5 -29t33.5 -80q0 -68 -54 -113q-53 -44 -135 -44q-69 0 -109.5 31t-40.5 86q0 59 47 121l128 161h138zM224 566q-21 0 -36.5 -15t-15.5 -34q0 -36 40 -36q24 0 39 13.5t15 34.5q0 16 -11.5 26.5t-30.5 10.5z" />
    <glyph glyph-name="sevensuperior" unicode="&#x2077;" horiz-adv-x="364" 
d="M413 763l-231 -375h-127l187 303h-160l15 91h318z" />
    <glyph glyph-name="eightsuperior" unicode="&#x2078;" horiz-adv-x="369" 
d="M243 695q-16 0 -28 -11.5t-12 -27.5q0 -28 32 -28q17 0 28 11.5t11 26.5q0 12 -8.5 20.5t-22.5 8.5zM225 563q-21 0 -36.5 -13.5t-15.5 -34.5q0 -15 11 -25t29 -10q22 0 36 14t14 34q0 16 -10.5 25.5t-27.5 9.5zM257 790q61 0 97 -28t36 -75q0 -59 -53 -90q45 -23 45 -75
q0 -60 -51 -100q-51 -39 -131 -39q-71 0 -111.5 29t-40.5 78q0 31 18 61t48 47q-29 21 -29 60q0 57 52 94q53 38 120 38z" />
    <glyph glyph-name="ninesuperior" unicode="&#x2079;" horiz-adv-x="369" 
d="M257 790q69 0 109 -31t40 -85q0 -31 -13 -61q-12 -32 -25 -49q-12 -18 -36 -48l-101 -127h-139l111 136h-8q-60 0 -94 28t-34 78q0 70 53 114q54 45 137 45zM231 607q21 0 36.5 15.5t15.5 34.5q0 16 -10.5 25.5t-29.5 9.5q-23 0 -39 -13.5t-16 -34.5q0 -16 11.5 -26.5
t31.5 -10.5z" />
    <glyph glyph-name="plussuperior" unicode="&#x207a;" horiz-adv-x="371" 
d="M185 506h-101q9 57 10 70h101l13 95h77l-14 -95h99l-10 -70h-99l-13 -96h-76z" />
    <glyph glyph-name="hyphensuperior" unicode="&#x207b;" horiz-adv-x="239" 
d="M248 491h-187l11 75h186z" />
    <glyph glyph-name="equalsuperior" unicode="&#x207c;" horiz-adv-x="372" 
d="M360 545h-271l9 70h272zM345 439h-271l10 69h271z" />
    <glyph glyph-name="parenleftsuperior" unicode="&#x207d;" horiz-adv-x="206" 
d="M208 828l68 -30q-48 -55 -77.5 -131.5t-29.5 -153.5q0 -96 40 -175l-74 -32q-70 82 -70 205q0 85 39 171q38 83 104 146z" />
    <glyph glyph-name="parenrightsuperior" unicode="&#x207e;" horiz-adv-x="206" 
d="M79 797l76 30q70 -91 70 -214q0 -85 -39 -167q-38 -83 -104 -142l-33 16q-28 16 -32 17q47 60 76 136t29 151q0 97 -43 173z" />
    <glyph glyph-name="nsuperior" unicode="&#x207f;" horiz-adv-x="381" 
d="M160 300h-125l41 296h100l7 -42q44 50 108 50q95 0 95 -89q0 -2 -2 -18l-27 -197h-126l24 171q0 34 -25 34q-32 0 -45 -45q-10 -37 -14 -76z" />
    <glyph glyph-name="zeroinferior" unicode="&#x2080;" horiz-adv-x="369" 
d="M195 308q73 0 109.5 -42t36.5 -114q0 -59 -20 -116q-19 -55 -68 -95q-47 -40 -117 -40q-146 0 -146 153q0 44 11.5 86.5t34 81t64 62.5t95.5 24zM182 211q-25 0 -41.5 -30t-21 -60.5t-4.5 -58.5q0 -63 37 -63q30 0 47 47q16 47 16 106t-33 59z" />
    <glyph glyph-name="oneinferior" unicode="&#x2081;" horiz-adv-x="355" 
d="M255 308h19l-56 -398h-124l34 248l-92 -38l15 107z" />
    <glyph glyph-name="twoinferior" unicode="&#x2082;" horiz-adv-x="369" 
d="M187 314q68 0 103.5 -28.5t35.5 -77.5q0 -41 -35 -97.5t-97 -111.5h118l-14 -90h-337l1 19q234 147 234 248q0 40 -48 40q-46 0 -126 -41l15 97q71 42 150 42z" />
    <glyph glyph-name="threeinferior" unicode="&#x2083;" horiz-adv-x="369" 
d="M95 97l-10 13l91 102h-145l13 90h308l-2 -18l-116 -131q77 -20 77 -95q0 -68 -54 -111q-53 -45 -136 -45t-138 31l15 106q50 -45 117 -45q36 0 58 18t22 43q0 20 -16.5 33t-43.5 13q-25 0 -40 -4z" />
    <glyph glyph-name="fourinferior" unicode="&#x2084;" horiz-adv-x="369" 
d="M-34 3l194 298h118l-153 -228h50l4 24l47 75h81l-14 -99h38l-13 -88h-38l-10 -75h-116l10 75h-201z" />
    <glyph glyph-name="fiveinferior" unicode="&#x2085;" horiz-adv-x="369" 
d="M179 176q60 0 97 -30t37 -83q0 -66 -55 -112q-53 -46 -137 -46q-82 0 -134 30q2 18 14 106q50 -44 113 -44q35 0 57.5 17.5t22.5 42.5q0 40 -68 40q-52 0 -88 -15l-13 8l55 212h247l-11 -88h-159l-11 -41q10 3 33 3z" />
    <glyph glyph-name="sixinferior" unicode="&#x2086;" horiz-adv-x="369" 
d="M300 302l-103 -131l2 -2q60 0 93.5 -29.5t33.5 -78.5q0 -68 -54 -112q-52 -45 -135 -45q-69 0 -109 30.5t-40 85.5q0 65 46 121l128 161h138zM162 86q-21 0 -36.5 -15t-15.5 -34q0 -36 40 -36q24 0 39 13.5t15 34.5q0 16 -11.5 26.5t-30.5 10.5z" />
    <glyph glyph-name="seveninferior" unicode="&#x2087;" horiz-adv-x="364" 
d="M354 284l-230 -375h-128l188 303h-166l20 91h319z" />
    <glyph glyph-name="eightinferior" unicode="&#x2088;" horiz-adv-x="369" 
d="M182 215q-16 0 -27.5 -11.5t-11.5 -27.5q0 -28 32 -28q16 0 27.5 11.5t11.5 26.5q0 12 -9 20.5t-23 8.5zM165 83q-21 0 -36.5 -13.5t-15.5 -34.5q0 -15 11 -25t29 -10q22 0 36 14t14 34q0 16 -10.5 25.5t-27.5 9.5zM196 310q60 0 97 -28.5t37 -74.5q0 -58 -53 -90
q45 -23 45 -76q0 -59 -52 -98q-50 -40 -130 -40q-71 0 -111.5 29t-40.5 78q0 31 18 61t48 47q-29 21 -29 60q0 56 51 94q53 38 120 38z" />
    <glyph glyph-name="nineinferior" unicode="&#x2089;" horiz-adv-x="369" 
d="M194 310q69 0 109.5 -31t40.5 -85q0 -31 -13 -61q-18 -44 -61 -97l-101 -126h-139l111 135h-8q-60 0 -94 28t-34 78q0 70 53 114q53 45 136 45zM169 127q21 0 36.5 15.5t15.5 34.5q0 16 -10.5 25.5t-29.5 9.5q-23 0 -39 -13.5t-16 -34.5q0 -16 11.5 -26.5t31.5 -10.5z
" />
    <glyph glyph-name="plusinferior" unicode="&#x208a;" horiz-adv-x="371" 
d="M119 40h-100q7 53 10 70h101l13 94h76l-13 -94h99q-3 -17 -10 -70h-99l-14 -96h-76z" />
    <glyph glyph-name="hypheninferior" unicode="&#x208b;" horiz-adv-x="239" 
d="M183 24h-187q1 8 4.5 37.5t5.5 38.5h187q-3 -14 -10 -76z" />
    <glyph glyph-name="equalinferior" unicode="&#x208c;" horiz-adv-x="371" 
d="M295 79h-271l10 69h271q-7 -54 -10 -69zM281 -27h-272q7 39 10 68h272q-7 -39 -10 -68z" />
    <glyph glyph-name="parenleftinferior" unicode="&#x208d;" horiz-adv-x="206" 
d="M141 365l67 -30q-46 -55 -76 -133q-30 -76 -30 -154q0 -96 40 -173l-74 -33q-71 88 -71 208q0 84 39 169q41 86 105 146z" />
    <glyph glyph-name="parenrightinferior" unicode="&#x208e;" horiz-adv-x="206" 
d="M11 334l76 29q70 -89 70 -212q0 -85 -39 -167q-38 -83 -104 -142l-65 33q47 60 76 135.5t29 148.5q0 96 -43 175z" />
    <glyph glyph-name="Euro" unicode="&#x20ac;" horiz-adv-x="572" 
d="M473 413l-9 -60h-422l8 60h47q36 123 125 190t218 67q80 0 137 -22l-17 -157q-52 24 -116 24q-120 0 -167 -102h196zM28 255l8 61h423l-8 -61h-202q4 -54 39 -82t96 -28q64 0 141 34q-6 -35 -7 -44l-10 -72l-6 -43q-69 -28 -160 -28q-126 0 -195.5 69.5t-71.5 193.5h-47z
" />
    <glyph glyph-name="centigrade" unicode="&#x2103;" horiz-adv-x="817" 
d="M176 678q45 0 75 -29.5t30 -75.5q0 -55 -42 -99q-42 -42 -97 -42q-50 0 -78.5 28.5t-28.5 74.5q0 59 42 101t99 42zM166 613q-26 0 -47 -20.5t-21 -47.5q0 -22 14 -36t38 -14q27 0 46.5 20.5t19.5 47.5q0 21 -14 35.5t-36 14.5zM770 183l-22 -163q-84 -34 -190 -34
q-148 0 -228 78q-78 80 -78 209q0 170 113 285q112 115 295 115q96 0 160 -27l-22 -159q-60 29 -132 29q-89 0 -156 -59q-66 -58 -66 -167q0 -71 42.5 -109t116.5 -38q80 0 167 40z" />
    <glyph glyph-name="fahrenheit" unicode="&#x2109;" horiz-adv-x="793" 
d="M482 246l-33 -246h-191l92 659h459l-7 -47l-14 -100h-268l-17 -125h227q-6 -46 -10 -70q-5 -31 -10 -71h-228zM176 678q45 0 75 -29.5t30 -75.5q0 -55 -42 -99q-42 -42 -97 -42q-50 0 -78.5 28.5t-28.5 74.5q0 59 42 101t99 42zM166 613q-26 0 -47 -20.5t-21 -47.5
q0 -22 14 -36t38 -14q27 0 46.5 20.5t19.5 47.5q0 21 -14 35.5t-36 14.5z" />
    <glyph glyph-name="afii61289" unicode="&#x2113;" horiz-adv-x="505" 
d="M99 151l-50 78l84 60v190q0 114 44 170t123 56q61 0 97.5 -35t36.5 -103q0 -141 -191 -321v-53q0 -96 65 -96q52 0 110 103l85 -53q-84 -156 -198 -156q-77 0 -121 49t-49 134q-4 -2 -18.5 -12t-17.5 -11zM295 606q-21 0 -38 -47q-16 -45 -16 -113q0 -43 1 -49
q87 107 87 172q0 15 -9 26t-25 11z" />
    <glyph glyph-name="afii61352" unicode="&#x2116;" horiz-adv-x="1042" 
d="M985 223h-326l15 100h325q-5 -33 -14 -100zM255 320l-44 -320h-190l95 676h23l287 -322h4l44 305h191l-95 -674h-21l-290 335h-4zM887 676q73 0 113 -36t40 -97q0 -78 -55 -129q-55 -50 -141 -50q-73 0 -114 35t-41 96q0 77 55 129t143 52zM875 576q-26 0 -42.5 -20.5
t-16.5 -49.5q0 -44 41 -44q26 0 43.5 20t17.5 50q0 44 -43 44z" />
    <glyph glyph-name="published" unicode="&#x2117;" horiz-adv-x="871" 
d="M681 406q0 -62 -45 -106q-44 -43 -120 -43h-58v-137h-130q2 118 2 435h179q83 0 127 -44q45 -43 45 -105zM493 463h-35v-121h27q43 -3 60 28.5t1 63t-53 29.5zM467 -39q-171 0 -274 108q-103 109 -103 279q0 166 110 276q109 109 267 109q157 0 266 -109
q110 -110 110 -276q0 -165 -110 -277q-110 -110 -266 -110zM467 649q-124 0 -206 -88q-82 -86 -82 -213q0 -130 78 -217q79 -87 208 -87q127 0 206 88q81 88 81 216q0 127 -81 214q-79 87 -204 87z" />
    <glyph glyph-name="trademark" unicode="&#x2122;" horiz-adv-x="830" 
d="M427 681l181 -179l181 179h12v-378h-111v154h-2l-72 -83h-14l-74 81h-2v-152h-112v378h13zM382 600h-99v-297h-108v297h-97v79h304v-79z" />
    <glyph glyph-name="Ohm" unicode="&#x2126;" horiz-adv-x="781" 
d="M428 513q-92 0 -143 -81q-50 -82 -50 -194q0 -64 18 -124q20 -61 52 -92l-3 -22h-312q18 136 20 147h84q0 2 2 4q-39 69 -39 150q0 159 111 265q111 108 283 108q142 0 222 -77t80 -199q0 -126 -98 -247l2 -4h82l-21 -147h-313l3 22q67 48 109 146q45 100 45 188
q0 71 -35 114t-99 43z" />
    <glyph glyph-name="angstrom" unicode="&#x212b;" horiz-adv-x="670" 
d="M426 900q50 0 81.5 -31.5t31.5 -79.5q0 -53 -34.5 -92.5t-86.5 -49.5l212 -647h-189l-22 84h-222l-44 -84h-183l398 645q-41 7 -65 35.5t-24 70.5q0 60 44 104q44 45 103 45zM350 354h-4l-88 -154h137zM414 819q-19 0 -34.5 -17t-15.5 -39q0 -17 10.5 -27.5t26.5 -10.5
q23 0 37 15.5t14 37.5q0 18 -10 29.5t-28 11.5z" />
    <glyph glyph-name="estimated" unicode="&#x212e;" horiz-adv-x="817" 
d="M782 311h-557v-171q31 -49 90 -82q59 -32 122 -32q62 0 119.5 29t97.5 79h67q-58 -69 -132.5 -107t-152.5 -38q-143 0 -246 100q-102 101 -102 240q0 137 102 234q103 97 246 97q145 0 245 -100q101 -101 101 -249zM225 346h419v172q-29 48 -87 76q-59 30 -120 30
q-52 0 -108 -30t-104 -81v-167z" />
    <glyph glyph-name="onethird" unicode="&#x2153;" horiz-adv-x="838" 
d="M584 685h100l-549 -716h-99zM281 699h19l-56 -399h-124l35 249l-94 -38q9 52 15 106zM546 187l-10 13l91 102h-145l13 90h308l-2 -18l-116 -131q77 -20 77 -95q0 -67 -54 -112q-53 -44 -136 -44t-138 31l15 106q49 -45 117 -45q36 0 58 18t22 43q0 20 -16.5 33t-43.5 13
q-25 0 -40 -4z" />
    <glyph glyph-name="twothirds" unicode="&#x2154;" horiz-adv-x="838" 
d="M593 187l-10 13l91 102h-145l13 90h308l-2 -18l-116 -131q77 -20 77 -95q0 -67 -54 -112q-53 -44 -136 -44t-138 31l15 106q50 -45 117 -45q36 0 58 18t22 43q0 20 -16.5 33t-43.5 13q-25 0 -40 -4zM202 702q69 0 104 -28t35 -78q0 -40 -36 -97t-98 -112h121l-15 -89
h-336l1 18q234 150 234 248q0 41 -48 41q-45 0 -126 -42l15 97q70 42 149 42zM635 685h100l-549 -716h-99z" />
    <glyph glyph-name="onefifth" unicode="&#x2155;" horiz-adv-x="838" 
d="M617 266q60 0 97 -30t37 -83q0 -66 -55 -112q-53 -46 -137 -46q-81 0 -134 30q2 18 14 106q50 -44 113 -44q35 0 57.5 17.5t22.5 42.5q0 40 -68 40q-52 0 -88 -15l-13 8l55 212h247l-11 -88h-159l-11 -41q10 3 33 3zM270 699h19l-56 -399h-124l35 249l-94 -38
q9 52 15 106zM580 685h100l-549 -716h-99z" />
    <glyph glyph-name="twofifths" unicode="&#x2156;" horiz-adv-x="838" 
d="M667 266q60 0 97 -30t37 -83q0 -66 -55 -112q-53 -46 -137 -46q-81 0 -134 30q2 18 14 106q50 -44 113 -44q35 0 57.5 17.5t22.5 42.5q0 40 -68 40q-52 0 -88 -15l-13 8l55 212h247l-11 -88h-159l-11 -41q10 3 33 3zM218 702q69 0 104 -28t35 -78q0 -40 -36 -97t-98 -112
h121l-15 -89h-336l1 18q234 150 234 248q0 41 -48 41q-45 0 -126 -42l15 97q71 42 149 42zM659 685h100l-549 -716h-99z" />
    <glyph glyph-name="threefifths" unicode="&#x2157;" horiz-adv-x="838" 
d="M627 685h100l-549 -716h-99zM135 487l-10 13l91 102h-145l13 90h308l-2 -18l-116 -131q77 -20 77 -95q0 -67 -54 -112q-53 -44 -135 -44q-83 0 -138 31l14 106q50 -45 117 -45q36 0 58 18t22 43q0 20 -16.5 33t-43.5 13q-25 0 -40 -4zM646 266q60 0 97 -30t37 -83
q0 -66 -55 -112q-53 -46 -137 -46q-82 0 -134 30q2 18 14 106q50 -44 113 -44q35 0 57.5 17.5t22.5 42.5q0 40 -68 40q-52 0 -88 -15l-13 8l55 212h247l-11 -88h-159l-11 -41q11 3 33 3z" />
    <glyph glyph-name="fourfifths" unicode="&#x2158;" horiz-adv-x="838" 
d="M1 392l195 297h117l-152 -228h50l4 25l47 74h80l-14 -99h38l-13 -87h-37l-11 -76h-116l10 76h-200zM655 266q60 0 97 -30t37 -83q0 -66 -55 -112q-53 -46 -137 -46q-81 0 -134 30q2 18 14 106q50 -44 113 -44q35 0 57.5 17.5t22.5 42.5q0 40 -68 40q-52 0 -88 -15l-13 8
l55 212h247l-11 -88h-159l-11 -41q10 3 33 3zM642 685h100l-549 -716h-99z" />
    <glyph glyph-name="onesixth" unicode="&#x2159;" horiz-adv-x="838" 
d="M728 392l-103 -131l2 -2q60 0 93.5 -29.5t33.5 -78.5q0 -68 -54 -113q-53 -44 -135 -44q-69 0 -109 30.5t-40 85.5q0 65 46 121l128 161h138zM590 176q-21 0 -36.5 -15t-15.5 -34q0 -36 40 -36q24 0 39 13.5t15 34.5q0 16 -11.5 26.5t-30.5 10.5zM303 699h19l-56 -399
h-124l35 249l-94 -38q9 52 15 106zM614 685h100l-549 -716h-99z" />
    <glyph glyph-name="fivesixths" unicode="&#x215a;" horiz-adv-x="838" 
d="M729 392l-103 -131l2 -2q60 0 93.5 -29.5t33.5 -78.5q0 -68 -54 -113q-53 -44 -135 -44q-69 0 -109 30.5t-40 85.5q0 65 46 121l128 161h138zM591 176q-21 0 -36.5 -15t-15.5 -34q0 -36 40 -36q24 0 39 13.5t15 34.5q0 16 -11.5 26.5t-30.5 10.5zM225 566q60 0 97 -30
t37 -83q0 -67 -55 -113q-53 -46 -137 -46q-79 0 -135 31l16 106q47 -44 112 -44q35 0 57.5 17.5t22.5 42.5q0 40 -68 40q-52 0 -88 -15l-13 8l55 212h247l-11 -88h-159l-11 -41q10 3 33 3zM630 685h100l-549 -716h-99z" />
    <glyph glyph-name="oneeighth" unicode="&#x215b;" horiz-adv-x="838" 
d="M598 305q-16 0 -27.5 -11.5t-11.5 -27.5q0 -28 32 -28q16 0 27.5 11.5t11.5 26.5q0 12 -9 20.5t-23 8.5zM581 173q-21 0 -36.5 -13.5t-15.5 -34.5q0 -15 11 -25t29 -10q22 0 36 14t14 34q0 16 -10.5 25.5t-27.5 9.5zM612 400q60 0 97 -28.5t37 -74.5q0 -58 -53 -90
q45 -23 45 -76q0 -59 -52 -99q-51 -39 -130 -39q-71 0 -111.5 29t-40.5 78q0 31 18 61t48 47q-29 21 -29 60q0 56 51 94q53 38 120 38zM272 699h19l-56 -399h-124l35 249l-94 -38q9 52 15 106zM579 685h100l-549 -716h-99z" />
    <glyph glyph-name="threeeighths" unicode="&#x215c;" horiz-adv-x="838" 
d="M616 305q-16 0 -27.5 -11.5t-11.5 -27.5q0 -28 32 -28q16 0 27.5 11.5t11.5 26.5q0 12 -9 20.5t-23 8.5zM599 173q-21 0 -36.5 -13.5t-15.5 -34.5q0 -15 11 -25t29 -10q22 0 36 14t14 34q0 16 -10.5 25.5t-27.5 9.5zM630 400q60 0 97 -28.5t37 -74.5q0 -58 -53 -90
q45 -23 45 -76q0 -59 -52 -99q-51 -39 -130 -39q-71 0 -111.5 29t-40.5 78q0 31 18 61t48 47q-29 21 -29 60q0 56 51 94q53 38 120 38zM132 487l-10 13l91 102h-145l13 90h308l-2 -18l-116 -131q77 -20 77 -95q0 -67 -54 -112q-53 -44 -135 -44q-83 0 -138 31l14 106
q49 -45 117 -45q36 0 58 18t22 43q0 20 -16.5 33t-43.5 13q-25 0 -40 -4zM608 685h100l-549 -716h-99z" />
    <glyph glyph-name="fiveeighths" unicode="&#x215d;" horiz-adv-x="838" 
d="M626 305q-16 0 -27.5 -11.5t-11.5 -27.5q0 -28 32 -28q16 0 27.5 11.5t11.5 26.5q0 12 -9 20.5t-23 8.5zM609 173q-21 0 -36.5 -13.5t-15.5 -34.5q0 -15 11 -25t29 -10q22 0 36 14t14 34q0 16 -10.5 25.5t-27.5 9.5zM640 400q60 0 97 -28.5t37 -74.5q0 -58 -53 -90
q45 -23 45 -76q0 -59 -52 -99q-51 -39 -130 -39q-71 0 -111.5 29t-40.5 78q0 31 18 61t48 47q-29 21 -29 60q0 56 51 94q53 38 120 38zM214 566q60 0 97 -30t37 -83q0 -67 -55 -113q-53 -46 -137 -46q-79 0 -135 31l16 106q47 -44 112 -44q35 0 57.5 17.5t22.5 42.5
q0 40 -68 40q-52 0 -88 -15l-13 8l55 212h247l-11 -88h-159l-11 -41q11 3 33 3zM616 685h100l-549 -716h-99z" />
    <glyph glyph-name="seveneighths" unicode="&#x215e;" horiz-adv-x="838" 
d="M600 305q-16 0 -27.5 -11.5t-11.5 -27.5q0 -28 32 -28q16 0 27.5 11.5t11.5 26.5q0 12 -9 20.5t-23 8.5zM583 173q-21 0 -36.5 -13.5t-15.5 -34.5q0 -15 11 -25t29 -10q22 0 36 14t14 34q0 16 -10.5 25.5t-27.5 9.5zM614 400q60 0 97 -28.5t37 -74.5q0 -58 -53 -90
q45 -23 45 -76q0 -59 -52 -99q-51 -39 -130 -39q-71 0 -111.5 29t-40.5 78q0 31 18 61t48 47q-29 21 -29 60q0 56 51 94q53 38 120 38zM408 673l-231 -375h-127l187 303h-160l15 91h318zM575 685h100l-549 -716h-99z" />
    <glyph glyph-name="uni215F" unicode="&#x215f;" horiz-adv-x="450" 
d="M282 699h19l-56 -399h-124l35 249l-94 -38q9 52 15 106zM585 685h100l-549 -716h-99z" />
    <glyph glyph-name="partialdiff" unicode="&#x2202;" horiz-adv-x="653" 
d="M276 -12q-87 0 -138 50t-51 140q0 120 74 199q75 79 176 79q63 0 103 -29q1 7 1 30q0 71 -37.5 112t-100.5 41q-34 0 -68 -10l31 113q36 7 81 7q115 0 173.5 -73.5t58.5 -204.5q0 -211 -91 -332q-92 -122 -212 -122zM292 104q50 0 88 57q38 58 50 132q-44 53 -104 53
q-48 0 -78 -48t-30 -104q0 -44 20 -67t54 -23z" />
    <glyph glyph-name="gradient" unicode="&#x2207;" horiz-adv-x="686" 
d="M69 659h661l-412 -674h-22zM472 512h-196l66 -238h2z" />
    <glyph glyph-name="product" unicode="&#x220f;" horiz-adv-x="672" 
d="M675 659l-110 -778h-190l88 631h-182l-89 -631h-191l110 778h564z" />
    <glyph glyph-name="summation" unicode="&#x2211;" horiz-adv-x="602" 
d="M349 512l70 -231l-147 -251h283l-11 -74q-2 -12 -4.5 -28.5t-4 -27l-2.5 -17.5h-565l3 18l234 380l-124 361l3 17h542l-21 -147h-256z" />
    <glyph glyph-name="minus" unicode="&#x2212;" horiz-adv-x="572" 
d="M504 339l-14 -99h-412l14 99h412z" />
    <glyph glyph-name="radical" unicode="&#x221a;" horiz-adv-x="568" 
d="M35 332l172 72l52 -179l1 1h3l226 514h123l-370 -789h-23l-100 305l-63 -25l-12 58z" />
    <glyph glyph-name="infinity" unicode="&#x221e;" horiz-adv-x="754" 
d="M237 434q81 0 156 -83q91 83 184 83q69 0 111 -40t42 -105q0 -80 -61 -141q-60 -60 -148 -60q-77 0 -152 86q-50 -44 -92.5 -65t-91.5 -21q-67 0 -109.5 40.5t-42.5 105.5q0 82 58 140q59 60 146 60zM224 327q-25 0 -44.5 -23.5t-19.5 -53.5q0 -24 12.5 -39.5t32.5 -15.5
q41 0 104 65q-46 67 -85 67zM558 327q-37 0 -103 -66q26 -32 29 -35q27 -31 54 -31q25 0 45 24.5t20 54.5q0 23 -13 38t-32 15z" />
    <glyph glyph-name="logicaland" unicode="&#x2227;" horiz-adv-x="572" 
d="M327 473l187 -473h-148l-85 242l-149 -242h-146l314 473h27z" />
    <glyph glyph-name="logicalor" unicode="&#x2228;" horiz-adv-x="572" 
d="M279 229l153 243h148l-320 -472h-26l-183 472h147l41 -125q21 -58 40 -118z" />
    <glyph glyph-name="intersection" unicode="&#x2229;" horiz-adv-x="572" 
d="M170 232l-33 -232h-135l30 216q14 114 90 187q77 74 193 74q102 0 159 -55t57 -151q0 -39 -4 -67l-28 -204h-137q11 72 17 120q8 60 17 119q1 3 1 16q0 42 -26 69t-75 27q-55 0 -87 -32.5t-39 -86.5z" />
    <glyph glyph-name="union" unicode="&#x222a;" horiz-adv-x="572" 
d="M395 238l33 232h135q-5 -36 -10 -68q-20 -144 -20 -148q-14 -114 -90 -187q-77 -74 -193 -74q-102 0 -159 55t-57 151q0 39 4 67l28 204h137l-17 -121q-7 -53 -17 -118q-1 -3 -1 -16q0 -42 26 -69t75 -27q55 0 87 32.5t39 86.5z" />
    <glyph glyph-name="integral" unicode="&#x222b;" horiz-adv-x="380" 
d="M111 22q11 94 19 264q7 147 19 259q11 95 61 144.5t136 49.5q41 0 89 -14q0 -69 -3 -111q-49 9 -76 9q-37 0 -55.5 -20t-22.5 -65l-7 -95l-5 -70q-1 -19 -7 -140q-4 -103 -17 -218q-9 -84 -58 -134.5t-126 -50.5q-42 0 -99 17l2 120q53 -19 82 -19q60 0 68 74z" />
    <glyph glyph-name="approxequal" unicode="&#x2248;" horiz-adv-x="572" 
d="M371 136q-35 0 -87 21q-51 22 -74 22q-35 0 -65 -54l-61 62q48 92 128 92q28 0 78 -22q51 -22 74 -22q48 0 79 64l56 -64q-43 -99 -128 -99zM376 310q-34 0 -88 21q-51 22 -74 22q-34 0 -64 -53l-60 63q26 49 56 69.5t71 20.5q28 0 78 -22q53 -21 74 -21q47 0 79 62
l56 -64q-21 -47 -55 -72.5t-73 -25.5z" />
    <glyph glyph-name="notequal" unicode="&#x2260;" horiz-adv-x="572" 
d="M491 259l-14 -99h-260l-74 -79h-83l76 79h-69l14 99h146l57 62h-194l14 100h274l70 76h81l-73 -76h58l-15 -100h-134l-58 -62h184z" />
    <glyph glyph-name="lessequal" unicode="&#x2264;" horiz-adv-x="572" 
d="M494 236l-15 -112l-395 190l3 18l446 183l-15 -112q-145 -52 -213 -79v-2zM462 6h-423q11 79 13 93h423z" />
    <glyph glyph-name="greaterequal" unicode="&#x2265;" horiz-adv-x="572" 
d="M52 99h423l-13 -93h-423q11 79 13 93zM507 332l-3 -18l-448 -190l15 112l213 86v2q-17 8 -189 79l15 112z" />
    <glyph glyph-name="lozenge" unicode="&#x25ca;" horiz-adv-x="547" 
d="M319 0h-31l-223 333l223 332h31l222 -332zM304 521l-122 -188l122 -197l119 197z" />
    <glyph glyph-name="zero.text" unicode="&#xe000;" horiz-adv-x="572" 
d="M344 672q118 0 171 -72q54 -72 54 -186q0 -147 -72 -279q-37 -67 -102 -107t-147 -40q-114 0 -169 66.5t-55 185.5q0 57 10 114.5t34 115.5t59.5 102t91.5 72t125 28zM325 531q-36 0 -63 -30.5t-40 -81.5q-25 -94 -25 -174q0 -115 72 -115q44 0 74 50q54 88 54 236
q0 115 -72 115z" />
    <glyph glyph-name="one.text" unicode="&#xe001;" horiz-adv-x="458" 
d="M398 671h19l-93 -671h-178l61 440l-160 -69l23 158z" />
    <glyph glyph-name="two.text" unicode="&#xe002;" horiz-adv-x="569" 
d="M297 674q100 0 152.5 -46.5t52.5 -124.5q0 -73 -60 -175t-168 -198h204l-18 -130h-498l2 19q358 255 358 431q0 78 -81 78q-74 0 -182 -60l20 139q95 67 218 67z" />
    <glyph glyph-name="three.text" unicode="&#xe003;" horiz-adv-x="560" 
d="M160 328l-12 17l156 183v2l-1 2h-233l21 127h470l-3 -21l-195 -230q61 -15 95 -57.5t34 -101.5q0 -111 -85 -184q-85 -74 -213 -74q-120 0 -202 48q4 36 10 74q5 35 10 75q62 -63 169 -63q67 0 108 34.5t41 89.5q0 41 -31 63.5t-81 22.5q-26 0 -58 -7z" />
    <glyph glyph-name="four.text" unicode="&#xe004;" horiz-adv-x="572" 
d="M390 437h116l-23 -174h57q-1 -4 -18 -127h-58l-18 -136h-169q14 105 19 136h-328l2 17l321 506h182l-267 -396h107l10 69q4 9 67 105z" />
    <glyph glyph-name="five.text" unicode="&#xe005;" horiz-adv-x="572" 
d="M306 437q87 0 146 -47t59 -133q0 -113 -86 -190q-85 -76 -214 -76q-118 0 -202 48l21 150q27 -29 73.5 -46.5t95.5 -17.5q68 0 108.5 35t40.5 90q0 41 -31 62t-84 21q-75 0 -146 -30l-17 12l92 345h375l-9 -65q-7 -49 -8 -62h-255q-13 -44 -29 -105q30 9 70 9z" />
    <glyph glyph-name="six.text" unicode="&#xe006;" horiz-adv-x="572" 
d="M131 433l169 226h185l-186 -240l2 -4q20 9 46 9q90 0 140 -47t50 -126q0 -116 -82 -189t-207 -73q-105 0 -166.5 50.5t-61.5 139.5q0 61 26 117t85 137zM294 309q-42 0 -74 -32q-30 -31 -30 -73q0 -34 21 -54.5t57 -20.5q44 0 73 29.5t29 75.5q0 33 -20.5 54t-55.5 21z
" />
    <glyph glyph-name="seven.text" unicode="&#xe007;" horiz-adv-x="498" 
d="M551 640l-367 -640h-176l304 531h-259l22 128h479z" />
    <glyph glyph-name="eight.text" unicode="&#xe008;" horiz-adv-x="572" 
d="M329 536q-34 0 -59 -24.5t-25 -59.5q0 -26 17.5 -42.5t47.5 -16.5q35 0 59 24t24 59q0 27 -17 43.5t-47 16.5zM295 302q-42 0 -71.5 -30t-29.5 -72q0 -32 21 -52.5t56 -20.5q44 0 72.5 30t28.5 73q0 33 -20.5 52.5t-56.5 19.5zM348 672q92 0 147 -45t55 -118
q0 -46 -23 -89t-64 -66l-2 -5q74 -41 74 -127q0 -102 -80 -167t-203 -65q-110 0 -171 46t-61 126q0 57 31 107.5t84 76.5l2 4q-52 34 -52 104q0 95 77 157q77 61 186 61z" />
    <glyph glyph-name="nine.text" unicode="&#xe009;" horiz-adv-x="572" 
d="M338 672q103 0 165 -50t62 -139q0 -62 -26 -119t-83 -133l-172 -231h-185l188 243l-2 5q-19 -10 -47 -10q-89 0 -139 47.5t-50 126.5q0 114 82 187t207 73zM318 533q-43 0 -72.5 -30t-29.5 -75q0 -33 21 -54t56 -21q42 0 72 31t30 74q0 34 -20.5 54.5t-56.5 20.5z" />
    <glyph glyph-name="numbersign.text" unicode="&#xe00a;" horiz-adv-x="564" 
d="M379 460l60 167h93l-59 -167h86l-11 -81h-103q-6 -19 -35 -96h91q-9 -67 -13 -83h-106l-71 -200h-95l71 200h-85l-69 -200h-96l71 200h-74l13 83h91l17 48l17 48h-82l12 81h99l60 167h93l-59 -167h84zM351 379h-85l-33 -96h85z" />
    <glyph glyph-name="dollar.text" unicode="&#xe00b;" horiz-adv-x="566" 
d="M273 -111h-92l15 110q-105 9 -172 52l21 154q35 -30 100 -54q69 -23 111 -23q39 0 61 18.5t22 48.5q0 41 -88 86q-33 16 -56 30.5t-50 37.5t-41.5 53t-13.5 65q0 75 51.5 126.5t147.5 65.5l17 117h92l-17 -116q80 -9 143 -39l-20 -139q-82 56 -175 56q-35 0 -57 -16
t-22 -45q0 -33 92 -84q33 -17 59 -34t53.5 -42t42.5 -57t15 -69q0 -75 -57 -131q-55 -55 -166 -60z" />
    <glyph glyph-name="euro.text" unicode="&#xe00c;" horiz-adv-x="572" 
d="M470 413l-9 -60h-422l8 60h47q36 123 125 190t218 67q80 0 137 -22l-17 -157q-53 24 -116 24q-121 0 -167 -102h196zM25 255l8 61h423l-8 -61h-202q4 -54 39 -82t96 -28q64 0 141 34q-6 -35 -7 -44l-10 -72l-6 -43q-69 -28 -160 -28q-126 0 -195.5 69.5t-71.5 193.5h-47z
" />
    <glyph glyph-name="florin.text" unicode="&#xe00d;" horiz-adv-x="520" 
d="M158 289h-77l8 115h88l10 62q31 210 204 210q56 0 115 -18l-9 -143q-35 12 -61 12q-66 0 -78 -73l-7 -50h105l-8 -115h-115l-24 -144q-22 -132 -75.5 -191.5t-147.5 -59.5q-50 0 -114 23l10 145q40 -14 68 -14q38 0 56.5 30t33.5 111z" />
    <glyph glyph-name="sterling.text" unicode="&#xe00e;" horiz-adv-x="572" 
d="M558 637l-20 -145q-69 33 -117 33q-89 0 -101 -89l-7 -48h131l-15 -102h-137q-21 -110 -56 -157h264q0 -21 -18 -129h-480l1 8q1 5 1 8q86 100 117 270h-56l15 102h60l9 55q23 110 91.5 168.5t164.5 58.5q84 0 153 -33z" />
    <glyph glyph-name="cent.text" unicode="&#xe00f;" horiz-adv-x="500" 
d="M295 2h-92l16 113q-74 13 -114.5 65.5t-40.5 129.5q0 108 61 178q62 71 158 90l17 113h92l-15 -109q47 -4 85 -19l-20 -138q-37 22 -92 22q-54 0 -86.5 -33t-32.5 -90q0 -37 23 -57.5t64 -20.5q62 0 117 30l-19 -134q-41 -20 -106 -29z" />
    <glyph glyph-name="yen.text" unicode="&#xe010;" horiz-adv-x="572" 
d="M38 152l8 59h479l-9 -59h-148l-21 -152h-189l20 152h-140zM539 311l-9 -61h-478l9 61h119l-107 349h194l40 -269h4l110 269h200l-209 -349h127z" />
    <glyph glyph-name="zero.taboldstyle" unicode="&#xe024;" horiz-adv-x="564" 
d="M312 463q108 0 169 -54.5t61 -145.5q0 -117 -84 -195t-212 -78q-108 0 -169.5 53.5t-61.5 144.5q0 116 84 195q86 80 213 80zM294 325q-45 0 -74 -35t-29 -82q0 -37 20 -58.5t56 -21.5q46 0 76.5 34t30.5 84q0 36 -22 57.5t-58 21.5z" />
    <glyph glyph-name="one.taboldstyle" unicode="&#xe025;" horiz-adv-x="564" 
d="M481 0h-427l9 71l9 58h128l6 48q6 35 15 105l-127 -37l9 68q7 54 10 69l292 84h20l-48 -337h122q-3 -32 -18 -129z" />
    <glyph glyph-name="two.taboldstyle" unicode="&#xe026;" horiz-adv-x="564" 
d="M357 131q0 -2 1 -3h138l-18 -128h-499q2 18 2 20q113 50 210 114q118 77 118 146q0 43 -71 43q-38 0 -92 -14q-50 -13 -86 -30l19 130q107 60 216 60q100 0 147.5 -36.5t47.5 -97.5q0 -49 -34.5 -103.5t-98.5 -100.5z" />
    <glyph glyph-name="three.taboldstyle" unicode="&#xe027;" horiz-adv-x="564" 
d="M143 137q-8 14 -13 19l139 160h-205l18 130h436l-2 -20l-180 -211q57 -16 88 -55t31 -96q0 -102 -79 -169q-80 -69 -198 -69q-106 0 -188 47l19 143q61 -60 157 -60q56 0 92 33t36 79q0 31 -26.5 53.5t-69.5 22.5q-33 0 -55 -7z" />
    <glyph glyph-name="four.taboldstyle" unicode="&#xe028;" horiz-adv-x="564" 
d="M-40 15l301 431h169l-237 -324h90l7 50l70 101h108l-21 -151h59l-17 -122h-59l-24 -168h-163l23 168h-309z" />
    <glyph glyph-name="five.taboldstyle" unicode="&#xe029;" horiz-adv-x="564" 
d="M281 245q86 0 140 -45t54 -125q0 -107 -81 -178q-80 -72 -201 -72q-105 0 -193 47q3 26 20 149q27 -29 71.5 -46t90.5 -17q57 0 93.5 30t36.5 74q0 35 -27.5 57t-73.5 22q-68 0 -134 -29l-18 11l84 323h355l-19 -130h-238q-7 -25 -22 -78q27 7 62 7z" />
    <glyph glyph-name="six.taboldstyle" unicode="&#xe02a;" horiz-adv-x="564" 
d="M338 390q86 0 134.5 -44.5t48.5 -117.5q0 -103 -80 -171q-79 -66 -200 -66q-100 0 -158 46t-58 127q0 69 37 131q16 29 33 53q15 21 43 58l150 199h182l-171 -216q0 -3 1 -4q20 5 38 5zM284 284q-40 0 -65 -30q-26 -31 -26 -67q0 -31 18 -49.5t50 -18.5q41 0 69.5 26.5
t28.5 66.5q0 31 -21 51.5t-54 20.5z" />
    <glyph glyph-name="seven.taboldstyle" unicode="&#xe02b;" horiz-adv-x="564" 
d="M539 425l-337 -593h-177l274 484h-247l18 129h471z" />
    <glyph glyph-name="eight.taboldstyle" unicode="&#xe02c;" horiz-adv-x="564" 
d="M336 618q87 0 139.5 -42t52.5 -111q0 -40 -21.5 -80t-59.5 -63l-1 -3q68 -38 68 -118q0 -94 -75 -152q-74 -59 -191 -59q-104 0 -161.5 42.5t-57.5 115.5q0 52 28.5 99t76.5 70q1 1 1 3q-46 31 -46 99q0 86 74 142q74 57 173 57zM288 275q-37 0 -64 -27t-27 -64
q0 -28 18.5 -47t50.5 -19q38 0 63.5 27.5t25.5 62.5q0 30 -18.5 48.5t-48.5 18.5zM318 488q-30 0 -52.5 -21.5t-22.5 -51.5q0 -23 16 -37.5t43 -14.5q30 0 51 21t21 50q0 24 -15.5 39t-40.5 15z" />
    <glyph glyph-name="nine.taboldstyle" unicode="&#xe02d;" horiz-adv-x="564" 
d="M313 460q99 0 157 -46t58 -128q0 -89 -71 -186l-42 -57l-157 -211h-182l179 229q0 3 -1 4q-17 -5 -38 -5q-86 0 -134 44.5t-48 117.5q0 104 79 171t200 67zM270 166q38 0 64.5 29t26.5 68q0 31 -18 49.5t-50 18.5q-42 0 -70 -26.5t-28 -67.5q0 -31 21 -51t54 -20z" />
    <glyph glyph-name="numbersign.taboldstyle" unicode="&#xe02e;" horiz-adv-x="564" 
d="M368 396l46 126h89l-46 -126h73q-5 -26 -8 -50q-4 -28 -4 -35h-89l-26 -71h77q-5 -26 -8 -50q-4 -28 -4 -35h-95l-53 -155h-92l55 155h-64l-54 -155h-92l54 155h-59l12 85h77q13 32 26 71h-68l12 85h86l45 126h92l-46 -126h64zM338 311h-64l-24 -71h62q13 31 26 71z" />
    <glyph glyph-name="dollar.taboldstyle" unicode="&#xe02f;" horiz-adv-x="564" 
d="M279 -112h-89l14 107q-100 9 -156 43l19 139q31 -27 85 -44q56 -18 95 -18q36 0 58 13t22 37q0 20 -23 37t-56 32t-66 33t-56 48.5t-23 69.5q0 60 47 110q46 49 134 63l15 106h88l-15 -105q69 -4 139 -34l-19 -127q-23 17 -68 31q-42 13 -79 13q-67 0 -72 -42
q0 -15 23 -29t55.5 -28t65.5 -32.5t56 -51.5t23 -76q0 -61 -44 -114q-50 -63 -159 -74z" />
    <glyph glyph-name="euro.taboldstyle" unicode="&#xe030;" horiz-adv-x="564" 
d="M444 345l-7 -54h-394l8 54h43q33 102 114.5 157t196.5 55q73 0 133 -19l-17 -134q-51 20 -105 20q-104 0 -147 -79h175zM31 205l8 54h393l-8 -54h-181q13 -87 124 -87q61 0 129 28l-19 -136q-77 -24 -151 -24q-116 0 -183.5 58.5t-70.5 160.5h-41z" />
    <glyph glyph-name="florin.taboldstyle" unicode="&#xe031;" horiz-adv-x="564" 
d="M197 235h-75l9 101h85q6 45 9 54q31 184 199 184q58 0 112 -16l-9 -124q-32 9 -59 9q-66 0 -74 -63q-1 -3 -7 -44h102l-8 -101h-112l-23 -126q-21 -114 -72 -166.5t-143 -52.5q-48 0 -111 20l9 126q40 -12 67 -12q35 0 51.5 25.5t31.5 98.5z" />
    <glyph glyph-name="sterling.taboldstyle" unicode="&#xe032;" horiz-adv-x="564" 
d="M522 530l-16 -122q-64 27 -116 27q-77 0 -90 -73l-6 -39h123l-12 -88h-127q-15 -76 -37 -106h238l-18 -129h-456l2 14q80 77 105 221h-52l13 88h55l9 45q20 94 82 142t156 48q78 0 147 -28z" />
    <glyph glyph-name="cent.taboldstyle" unicode="&#xe033;" horiz-adv-x="564" 
d="M307 -38h-90l14 101q-70 10 -108.5 54t-38.5 111q0 94 57 158t147 81l14 103h90l-13 -99q45 -4 75 -17l-17 -125q-35 20 -86 20q-45 0 -75 -27t-30 -72q0 -33 21 -50.5t57 -17.5q54 0 110 27l-16 -121q-36 -17 -97 -26z" />
    <glyph glyph-name="yen.taboldstyle" unicode="&#xe034;" horiz-adv-x="564" 
d="M504 215h-455q1 6 4 27t4 27h110l-102 278h189q34 -177 44 -219l93 219h189l-181 -278h113q-1 -12 -8 -54zM45 182h455q-4 -15 -7 -53h-137l-18 -129h-183l18 129h-135q4 15 7 53z" />
    <glyph glyph-name="zero.textoldstyle" unicode="&#xe048;" horiz-adv-x="564" 
d="M312 461q107 0 168 -54.5t61 -144.5q0 -117 -84 -195q-83 -77 -211 -77q-108 0 -169.5 53.5t-61.5 144.5q0 116 84 194q83 79 213 79zM294 323q-46 0 -75 -36q-28 -34 -28 -82q0 -36 20 -56.5t56 -20.5q46 0 76.5 33t30.5 83q0 36 -22 57.5t-58 21.5z" />
    <glyph glyph-name="one.textoldstyle" unicode="&#xe049;" horiz-adv-x="508" 
d="M444 0h-429l18 129h128l22 152l-129 -40l20 142l293 91h20l-48 -345h123z" />
    <glyph glyph-name="two.textoldstyle" unicode="&#xe04a;" horiz-adv-x="564" 
d="M355 131v-3h128l-18 -128h-499q0 2 2 20q113 50 210 113q118 79 118 147q0 43 -71 43q-38 0 -92 -14t-86 -30l19 130q106 60 216 60q99 0 146.5 -36.5t47.5 -97.5q0 -51 -30.5 -105.5t-90.5 -98.5z" />
    <glyph glyph-name="three.textoldstyle" unicode="&#xe04b;" horiz-adv-x="511" 
d="M126 137l-12 19l138 160h-204q1 15 8 65q7 43 9 65h436l-2 -20l-179 -211q57 -16 88 -56t31 -96q0 -101 -80 -169t-198 -68q-107 0 -187 47l19 143q60 -60 157 -60q56 0 92 33t36 79q0 31 -26.5 53.5t-69.5 22.5q-32 0 -56 -7z" />
    <glyph glyph-name="four.textoldstyle" unicode="&#xe04c;" horiz-adv-x="564" 
d="M-40 15l301 431h169l-237 -324h90l7 50l70 101h108l-21 -151h59l-17 -122h-59l-24 -168h-163l23 168h-309z" />
    <glyph glyph-name="five.textoldstyle" unicode="&#xe04d;" horiz-adv-x="530" 
d="M264 245q86 0 140 -45t54 -125q0 -106 -81 -178t-202 -72q-106 0 -192 47l20 149q26 -28 67.5 -45t84.5 -17q64 0 102 29t38 74q0 34 -27.5 56.5t-73.5 22.5q-68 0 -134 -29l-18 11l84 323h354l-18 -130h-238l-21 -78q27 7 61 7z" />
    <glyph glyph-name="six.textoldstyle" unicode="&#xe04e;" horiz-adv-x="564" 
d="M338 390q86 0 134.5 -44.5t48.5 -117.5q0 -103 -80 -171q-79 -66 -200 -66q-100 0 -158 46t-58 127q0 69 37 131q16 29 33 53q15 21 43 58l150 199h182l-171 -216q0 -3 1 -4q20 5 38 5zM284 284q-40 0 -65 -30q-26 -31 -26 -67q0 -31 18 -49.5t50 -18.5q41 0 69.5 26.5
t28.5 66.5q0 31 -21 51.5t-54 20.5z" />
    <glyph glyph-name="seven.textoldstyle" unicode="&#xe04f;" horiz-adv-x="501" 
d="M506 425l-335 -593h-177l272 485h-244l18 128h469z" />
    <glyph glyph-name="eight.textoldstyle" unicode="&#xe050;" horiz-adv-x="564" 
d="M336 618q87 0 139.5 -42t52.5 -111q0 -40 -21.5 -80t-59.5 -63l-1 -3q68 -38 68 -118q0 -94 -75 -152q-74 -59 -191 -59q-104 0 -161.5 42.5t-57.5 115.5q0 52 28.5 99t76.5 70q1 1 1 3q-46 31 -46 99q0 86 74 142q74 57 173 57zM288 275q-37 0 -64 -27t-27 -64
q0 -28 18.5 -47t50.5 -19q38 0 63.5 27t25.5 63q0 30 -18.5 48.5t-48.5 18.5zM318 488q-30 0 -52.5 -21.5t-22.5 -51.5q0 -23 16 -37.5t43 -14.5q30 0 51 21t21 50q0 24 -15.5 39t-40.5 15z" />
    <glyph glyph-name="nine.textoldstyle" unicode="&#xe051;" horiz-adv-x="564" 
d="M313 460q99 0 157 -46t58 -128q0 -89 -71 -186l-42 -57l-157 -211h-182l179 229q0 3 -1 4q-17 -5 -38 -5q-86 0 -134 44.5t-48 117.5q0 104 79 171t200 67zM270 166q38 0 64.5 29t26.5 68q0 31 -18 49.5t-50 18.5q-42 0 -70 -26.5t-28 -67.5q0 -31 21 -51t54 -20z" />
    <glyph glyph-name="numbersign.textoldstyle" unicode="&#xe052;" horiz-adv-x="514" 
d="M334 396l45 126h89l-14 -40l-31 -86h73q-5 -26 -8 -50q-4 -28 -4 -35h-91l-24 -71h76l-11 -85h-96l-53 -155h-91l55 155h-64l-54 -155h-93l55 155h-60l13 85h78l25 71h-68l12 85h86l45 126h92l-46 -126h64zM304 311h-64l-24 -71h63z" />
    <glyph glyph-name="dollar.textoldstyle" unicode="&#xe053;" horiz-adv-x="525" 
d="M241 -112h-89l14 107q-100 9 -156 43l19 139q31 -26 84 -44q55 -18 96 -18q36 0 58 13t22 37q0 20 -23 37t-56 31.5t-66 32.5t-56 48.5t-23 69.5q0 63 48.5 112.5t132.5 61.5l15 106h88l-15 -105q68 -4 138 -34l-18 -127q-24 16 -68 30q-45 14 -79 14q-69 0 -72 -42
q0 -15 23 -29t56 -28t66 -32.5t56 -51.5t23 -76q0 -63 -50.5 -120.5t-153.5 -67.5z" />
    <glyph glyph-name="euro.textoldstyle" unicode="&#xe054;" horiz-adv-x="559" 
d="M446 345l-7 -54h-394l8 54h42q74 212 312 212q75 0 133 -19l-18 -134q-49 20 -104 20q-104 0 -147 -79h175zM33 205l8 54h393l-8 -54h-181q11 -87 123 -87q63 0 129 28l-19 -136q-76 -24 -150 -24q-117 0 -184 58.5t-71 160.5h-40z" />
    <glyph glyph-name="florin.textoldstyle" unicode="&#xe055;" horiz-adv-x="500" 
d="M152 235h-74l8 101h85l9 54q31 184 199 184q58 0 112 -16l-9 -124q-32 9 -59 9q-65 0 -74 -63l-7 -44h102l-8 -101h-112l-23 -126q-20 -114 -71 -166.5t-143 -52.5q-49 0 -112 20l10 126q41 -12 66 -12q35 0 52 26t32 98z" />
    <glyph glyph-name="sterling.textoldstyle" unicode="&#xe056;" horiz-adv-x="523" 
d="M518 530l-14 -122q-64 27 -118 27q-76 0 -89 -73l-7 -39h123q0 -16 -12 -88h-127q-18 -78 -37 -106h238q-18 -108 -18 -129h-456q0 3 1 8l1 6q80 77 105 221h-52l13 88h55l9 46q17 91 82 140t156 49q78 0 147 -28z" />
    <glyph glyph-name="cent.textoldstyle" unicode="&#xe057;" horiz-adv-x="467" 
d="M271 -38h-90l13 101q-69 10 -107 54t-38 111q0 94 57 158t146 81l14 103h90l-13 -99q45 -4 75 -17l-17 -125q-35 20 -86 20q-45 0 -75 -27t-30 -72q0 -32 21 -50t57 -18q54 0 110 27l-17 -121q-34 -17 -96 -26z" />
    <glyph glyph-name="yen.textoldstyle" unicode="&#xe058;" horiz-adv-x="551" 
d="M506 269l-9 -54h-455q0 3 3.5 25t4.5 29h110l-102 278h187l42 -219h2l93 219h191l-181 -278h114zM31 129l7 53h455l-7 -53h-137l-18 -129h-183l18 129h-135z" />
    <glyph glyph-name="percent.text" unicode="&#xe059;" horiz-adv-x="713" 
d="M235 596q60 0 95.5 -34t35.5 -88q0 -69 -49 -119q-50 -50 -123 -50q-61 0 -97 33.5t-36 88.5q0 70 49 119q50 50 125 50zM222 500q-21 0 -36 -17.5t-15 -41.5q0 -40 37 -40q22 0 36.5 16.5t14.5 41.5q0 18 -10 29.5t-27 11.5zM533 283q61 0 96 -34.5t35 -92.5
q0 -66 -51 -115q-49 -48 -121 -48q-62 0 -97 32t-35 87q0 72 48 121q50 50 125 50zM520 186q-23 0 -37 -17.5t-14 -42.5q0 -39 37 -39q21 0 36 17t15 42q0 17 -10.5 28.5t-26.5 11.5zM542 595h90l-458 -617h-90z" />
    <glyph glyph-name="perthousand.text" unicode="&#xe05a;" horiz-adv-x="1044" 
d="M235 596q60 0 95.5 -34t35.5 -88q0 -69 -49 -119q-50 -50 -123 -50q-61 0 -97 33.5t-36 88.5q0 70 49 119q50 50 125 50zM222 500q-21 0 -36 -17.5t-15 -41.5q0 -40 37 -40q22 0 36.5 16.5t14.5 41.5q0 18 -10 29.5t-27 11.5zM533 283q61 0 96 -34.5t35 -92.5
q0 -66 -51 -115q-49 -48 -121 -48q-62 0 -97 32t-35 87q0 72 48 121q50 50 125 50zM520 186q-23 0 -37 -17.5t-14 -42.5q0 -39 37 -39q21 0 36 17t15 42q0 17 -10.5 28.5t-26.5 11.5zM542 595h90l-458 -617h-90zM864 283q61 0 96 -33.5t35 -88.5q0 -70 -49 -119t-123 -49
q-62 0 -97 32t-35 87q0 72 48 121q50 50 125 50zM851 186q-21 0 -36 -17.5t-15 -41.5q0 -40 37 -40q21 0 36 17t15 42q0 18 -10 29t-27 11z" />
    <glyph glyph-name="asuperior" unicode="&#xe06c;" horiz-adv-x="379" 
d="M211 604q71 0 99 -46l15 37h85q-2 -17 -46 -296h-89l-7 38q-40 -45 -111 -45q-60 0 -92 33t-32 90q0 83 49 135q50 54 129 54zM219 506q-26 0 -42 -21t-16 -51q0 -42 39 -42q26 0 43 20t17 50q0 19 -11.5 31.5t-29.5 12.5z" />
    <glyph glyph-name="bsuperior" unicode="&#xe06d;" horiz-adv-x="398" 
d="M34 300l67 465h122l-28 -185q35 25 83 25q62 0 97.5 -35t35.5 -92q0 -80 -50 -133q-49 -52 -131 -52q-60 0 -92 39l-15 -32h-89zM226 391q27 0 44 19t17 49q0 47 -42 47q-27 0 -44 -21t-17 -48q0 -45 42 -46z" />
    <glyph glyph-name="dsuperior" unicode="&#xe06f;" horiz-adv-x="397" 
d="M318 765h120l-65 -465h-95l-9 30q-40 -37 -102 -37t-95.5 33.5t-33.5 89.5q0 84 52 136q53 53 125 53q46 0 75 -22q8 53 18 117t10 65zM206 391q25 0 42.5 20.5t17.5 50.5q0 44 -42 44q-27 0 -43.5 -19.5t-16.5 -49.5q0 -46 42 -46z" />
    <glyph glyph-name="esuperior" unicode="&#xe070;" horiz-adv-x="345" 
d="M230 606q58 0 92.5 -25.5t34.5 -67.5q0 -52 -47 -76q-48 -23 -110 -23q-3 0 -29 2q7 -36 51 -36q59 0 117 40q-9 -68 -13 -94q-57 -33 -136 -33q-74 0 -112 35.5t-38 95.5q0 73 51 127q52 55 139 55zM221 516q-43 0 -53 -52h15q25 0 43.5 9t18.5 23q0 20 -24 20z" />
    <glyph glyph-name="egravesuperior" unicode="&#xe071;" horiz-adv-x="352" 
d="M194 782l104 -142h-75l-105 85zM230 606q58 0 92.5 -25.5t34.5 -67.5q0 -52 -47 -76q-48 -23 -110 -23q-3 0 -29 2q7 -36 51 -36q59 0 117 40q-9 -68 -13 -94q-57 -33 -136 -33q-74 0 -112 35.5t-38 95.5q0 73 51 127q52 55 139 55zM221 516q-43 0 -53 -52h15
q25 0 43.5 9t18.5 23q0 20 -24 20z" />
    <glyph glyph-name="hsuperior" unicode="&#xe073;" horiz-adv-x="381" 
d="M100 764h122l-29 -199q39 39 97 39q108 0 94 -110l-27 -194h-126l24 167q5 38 -26 38q-17 0 -30.5 -15t-17.5 -43l-21 -147h-125z" />
    <glyph glyph-name="isuperior" unicode="&#xe074;" horiz-adv-x="187" 
d="M77 595h127l-41 -295h-127zM164 756q26 0 42 -15t16 -39q0 -30 -22 -52.5t-54 -22.5q-26 0 -41.5 15.5t-15.5 40.5q0 30 23 51.5t52 21.5z" />
    <glyph glyph-name="lsuperior" unicode="&#xe077;" horiz-adv-x="183" 
d="M99 764h127l-65 -464h-127z" />
    <glyph glyph-name="msuperior" unicode="&#xe078;" horiz-adv-x="566" 
d="M161 300h-125l41 295h99l7 -43q39 50 102 50q65 0 85 -50q43 52 106 52q43 0 68 -23.5t25 -64.5q0 -15 -1 -19l-27 -197h-126l23 170q5 35 -22 35q-16 0 -28.5 -13t-15.5 -38l-21 -154h-125l23 164q0 2 1 7v5q0 27 -24 27q-23 0 -34 -23.5t-18 -80.5z" />
    <glyph glyph-name="osuperior" unicode="&#xe079;" horiz-adv-x="379" 
d="M237 606q73 0 113.5 -36.5t40.5 -97.5q0 -77 -55 -128q-54 -51 -141 -51q-74 0 -115 35t-41 96q0 77 55 129q56 53 143 53zM225 506q-25 0 -41.5 -21t-16.5 -49q0 -45 40 -45q26 0 44 20t18 50q0 21 -11.5 33t-32.5 12z" />
    <glyph glyph-name="rsuperior" unicode="&#xe07c;" horiz-adv-x="283" 
d="M76 595h91l7 -51q32 59 99 59q30 0 53 -10l-16 -112q-34 15 -60 15q-41 0 -64 -47q-4 -9 -16 -68q-2 -9 -5.5 -40t-4.5 -41h-125z" />
    <glyph glyph-name="ssuperior" unicode="&#xe07d;" horiz-adv-x="278" 
d="M19 319q13 84 14 98q21 -20 51.5 -31.5t55.5 -11.5q28 0 28 15q0 6 -18.5 15.5t-40 19t-40 31t-18.5 48.5q0 43 37.5 72.5t100.5 29.5q53 0 106 -22l-13 -89q-42 27 -87 27q-25 0 -27 -14q0 -5 18 -13t40 -17t40 -29.5t18 -48.5q0 -45 -37.5 -76t-106.5 -31
q-72 0 -121 27z" />
    <glyph glyph-name="tsuperior" unicode="&#xe07e;" horiz-adv-x="265" 
d="M49 573l164 119h22q-10 -69 -13 -96h75l-12 -93h-76l-7 -41q-5 -35 -5 -47q0 -27 27 -27q18 0 54 17l-12 -90q-40 -25 -97 -25q-102 0 -102 95q0 32 16 118h-43q2 6 9 70z" />
    <glyph glyph-name="i.dot" unicode="&#xe096;" horiz-adv-x="275" 
d="M250 446l-62 -446h-172l62 446h172zM201 695q35 0 57 -22.5t22 -56.5q0 -43 -31 -75q-32 -32 -73 -32q-36 0 -57 22t-21 57q0 44 32 76q32 31 71 31z" />
    <glyph glyph-name="a.alt" unicode="&#xe0a8;" horiz-adv-x="519" 
d="M284 0l-3 45q-1 0 -3 0.5l-2 0.5q-59 -56 -152 -56q-57 0 -88.5 26t-31.5 76q0 80 63 126.5t184 46.5h51q0 2 1 10t1 11q0 28 -18.5 39.5t-58.5 11.5q-26 0 -66 -10q-43 -9 -73 -25q4 32 10 64q5 28 10 63q86 31 183 31q184 0 184 -157q0 -3 -1 -14t-1 -14
q-4 -45 -20 -158l-17 -117h-152zM291 173l2 18h-45q-78 0 -78 -58q0 -32 43 -32q31 0 52.5 19.5t25.5 52.5z" />
    <glyph glyph-name="g.alt" unicode="&#xe0a9;" horiz-adv-x="581" 
d="M333 13l5 31h-2l-2 1q-50 -48 -128 -48q-90 0 -140 48.5t-50 132.5q0 122 72 201q73 79 189 79q93 0 138 -60h4l20 49h123l-49 -356q-17 -122 -59 -195q-72 -130 -269 -130q-49 0 -106 15q-57 14 -88 36l19 144q88 -63 176 -63q58 0 98.5 32t48.5 83zM282 320
q-42 0 -69.5 -32t-27.5 -79q0 -36 18 -57t51 -21q44 0 71 33t27 80q0 34 -18.5 54.5t-51.5 21.5z" />
    <glyph glyph-name="A2.alt" unicode="&#xe0b6;" horiz-adv-x="670" 
d="M627 0h-186l-89 334h-3l-187 -334h-190l415 676h21z" />
    <glyph glyph-name="F.alt" unicode="&#xe0b7;" horiz-adv-x="530" 
d="M245 246l-64 -463h-190l122 876h459l-21 -147h-268l-17 -125h227q-5 -40 -10 -71q-4 -24 -10 -70h-228z" />
    <glyph glyph-name="I.alt" unicode="&#xe0b8;" horiz-adv-x="311" 
d="M337 872l-122 -872h-191l122 872h191z" />
    <glyph glyph-name="L.alt" unicode="&#xe0b9;" horiz-adv-x="526" 
d="M22 0l122 872h191l-102 -724h269q-6 -46 -10 -74t-10 -74h-460z" />
    <glyph glyph-name="P2.alt" unicode="&#xe0ba;" horiz-adv-x="587" 
d="M113 659h265q110 0 166 -56t56 -139q0 -105 -76 -178q-74 -73 -197 -73h-86l-60 -431h-191zM332 517h-49l-24 -166h51q48 0 74.5 28.5t26.5 68.5q0 69 -79 69z" />
    <glyph glyph-name="T.alt" unicode="&#xe0bb;" horiz-adv-x="562" 
d="M638 872l-21 -147h-176l-101 -725h-190l101 725h-174l21 147h540z" />
    <glyph glyph-name="Y.alt" unicode="&#xe0bc;" horiz-adv-x="690" 
d="M271 -217h-185l120 233l-146 643h200l24 -126q10 -48 23 -121q12 -67 16 -96q9 -52 12 -93h4q37 97 93 210l110 226h199z" />
    <glyph glyph-name="Q.alt" unicode="&#xe0bd;" horiz-adv-x="778" 
d="M293 -47l380 -72l-65 -156l-380 71zM447 673q141 0 223 -84q83 -83 83 -213q0 -164 -117 -277q-115 -112 -284 -112q-140 0 -222 82t-82 212q0 163 113 278q114 114 286 114zM375 143q80 0 134 64t54 158q0 67 -35.5 108t-99.5 41q-80 0 -136 -65q-54 -65 -54 -154
q0 -68 37.5 -110t99.5 -42z" />
    <glyph glyph-name="Q2.alt" unicode="&#xe0be;" horiz-adv-x="778" 
d="M447 673q141 0 224 -83t83 -211q0 -143 -90 -251q-91 -108 -227 -130l-29 -215h-173l31 216q-102 20 -160.5 94.5t-58.5 183.5q0 166 112 281t288 115zM428 513q-80 0 -136 -65q-54 -64 -54 -155q0 -89 64 -114l30 146h131q-9 -123 -11 -154q49 22 80 75t31 118
q0 67 -35.5 108t-99.5 41z" />
    <glyph glyph-name="uniE0C0" unicode="&#xe0c0;" horiz-adv-x="530" 
d="M581 724h-268l-101 -724h-191l122 871h459z" />
    <glyph glyph-name="uniE0C4" unicode="&#xe0c4;" horiz-adv-x="880" 
d="M499 668q155 0 256 -81t101 -220q0 -61 -20.5 -121t-61.5 -115t-112 -94.5t-162 -52.5l-28 -201h-190l27 199q-135 17 -200 95q-64 77 -64 189q0 122 66 215q65 92 166.5 139.5t221.5 47.5zM229 281q0 -59 26.5 -99.5t75.5 -47.5l53 376q-49 -9 -86 -49q-69 -75 -69 -180
zM671 362q0 59 -25.5 100t-71.5 47l-53 -375q64 10 107 80t43 148z" />
    <glyph glyph-name="uniE0C5" unicode="&#xe0c5;" horiz-adv-x="850" 
d="M483 -10l-29 -207h-190l29 207q-125 8 -187 73t-62 177q0 28 4 48l53 372h191l-54 -389q-1 -3 -1 -21q0 -94 78 -101l72 510h190l-71 -509q43 4 74 37t37 78l55 395h191l-52 -368q-18 -129 -103 -211q-85 -84 -225 -91z" />
    <glyph glyph-name="Parenleft" unicode="&#xe0d8;" horiz-adv-x="317" 
d="M285 765l94 -33q-186 -244 -186 -500q0 -177 76 -308l-108 -36q-109 146 -109 351q0 133 61 274q62 143 172 252z" />
    <glyph glyph-name="Parenright" unicode="&#xe0d9;" horiz-adv-x="317" 
d="M75 732l104 33q110 -152 110 -355q0 -131 -61 -272q-61 -142 -172 -250q-38 18 -94 42q186 232 186 494q0 163 -73 308z" />
    <glyph glyph-name="Hyphen" unicode="&#xe0da;" horiz-adv-x="362" 
d="M306 223h-265l15 108h265z" />
    <glyph glyph-name="Bracketleft" unicode="&#xe0db;" horiz-adv-x="297" 
d="M210 -103h-210l121 857h210l-15 -105h-66l-92 -653h66q-10 -77 -14 -99z" />
    <glyph glyph-name="Bracketright" unicode="&#xe0dc;" horiz-adv-x="297" 
d="M105 754h209l-121 -857h-208l14 99h65l91 653h-65q1 5 6.5 46.5t8.5 58.5z" />
    <glyph glyph-name="Braceleft" unicode="&#xe0dd;" horiz-adv-x="370" 
d="M194 349v-5q58 -13 58 -84q0 -23 -14 -104q-13 -74 -13 -112q0 -25 9.5 -35.5t36.5 -10.5h22l-14 -101h-70q-70 0 -100.5 28t-30.5 88q0 39 15 121q15 84 15 121q0 66 -49 79q2 16 2 20q60 13 75 94l7 36l14 98q22 172 165 172h78l-15 -104h-17q-34 0 -48 -18t-20 -59
l-18 -127q-11 -79 -88 -97z" />
    <glyph glyph-name="Braceright" unicode="&#xe0de;" horiz-adv-x="370" 
d="M200 344v5q-60 14 -60 80q0 13 1 17q20 128 20 156q0 48 -50 48h-15l14 104h70q69 0 98.5 -27.5t29.5 -86.5q0 -21 -4 -54l-17 -129q-2 -22 -2 -24q0 -63 49 -78l-2 -20q-64 -13 -78 -117l-23 -160q-23 -161 -166 -161h-74l13 101h21q35 0 46 21q8 15 17 51q5 32 22 160
q14 98 90 114z" />
    <glyph glyph-name="Endash" unicode="&#xe0df;" horiz-adv-x="598" 
d="M565 222h-548l16 121h549z" />
    <glyph glyph-name="Emdash" unicode="&#xe0e0;" horiz-adv-x="830" 
d="M795 222h-776l16 121h777z" />
    <glyph glyph-name="Exclamdown" unicode="&#xe0e1;" horiz-adv-x="330" 
d="M8 -213l85 486h141l-53 -486h-173zM196 491q30 0 50 -21t20 -52q0 -37 -29 -68q-29 -29 -65 -29q-32 0 -53 21.5t-21 52.5q0 37 30 66q30 30 68 30z" />
    <glyph glyph-name="Questiondown" unicode="&#xe0e2;" horiz-adv-x="522" 
d="M213 -215q-103 0 -158 44t-55 116q0 80 81 150q15 13 49.5 40t52.5 42.5t35 36t18 36.5q0 13 -4 21l136 22q10 -26 10 -51q0 -39 -27 -77t-66 -65q-93 -65 -93 -118q0 -24 18.5 -38t52.5 -14q83 0 171 48l-21 -152q-103 -41 -200 -41zM318 490q33 0 52.5 -19t19.5 -49
q0 -41 -28 -70t-68 -29q-32 0 -51 20t-19 51q0 39 28 67q29 29 66 29z" />
    <glyph glyph-name="Guillemotleft" unicode="&#xe0e3;" horiz-adv-x="514" 
d="M320 438l-157 -195l102 -202h-152l-94 194l1 10l150 193h150zM519 438l-158 -195l102 -202h-151l-94 194l1 10l150 193h150z" />
    <glyph glyph-name="Guillemotright" unicode="&#xe0e4;" horiz-adv-x="514" 
d="M136 41h-151l158 202l-103 195h151l95 -193l-1 -10zM335 41h-152l159 202l-103 195h150l96 -193l-1 -10z" />
    <glyph glyph-name="uniE12C" unicode="&#xe12c;" horiz-adv-x="1742" 
d="M1415 0h-182l-23 89h-215l-50 -89h-375q-15 19 -155 165q-135 141 -154 168h-4l-46 -333h-190l95 676h22l323 -338h4l46 321h452l-21 -147h-261l-14 -101h227l-20 -141h-227l-17 -122h223q32 56 155 255q130 211 156 256h321q95 0 158 -51q64 -51 64 -137
q0 -134 -138 -206l101 -265h-182l-27 76q-36 105 -47 136l-27 77l3 16q60 12 91.5 44t31.5 72q0 41 -26.5 66t-74.5 25h-161q5 -17 82 -256t82 -256zM1146 368h-4l-93 -171h138q-5 17 -21 85q-4 18 -9 39.5t-7.5 32t-3.5 14.5z" />
    <glyph glyph-name="uniE16E" unicode="&#xe16e;" horiz-adv-x="1116" 
d="M1118 676l-95 -676h-190l46 334h-3l-431 -349h-20l50 352h-3l-433 -352h-20l94 674h191l-45 -326h4l428 343h21l-48 -344h4l428 344h22zM1000 877h76q-14 -71 -62 -124q-46 -52 -125 -52q-66 0 -101 38t-37 104q0 20 2 34h78q0 -85 74 -85q30 0 57 24t38 61z" />
    </font>
</defs>
</svg>
