<?xml version="1.0" standalone="no"?>
<!DOCTYPE svg PUBLIC "-//W3C//DTD SVG 1.1//EN" "http://www.w3.org/Graphics/SVG/1.1/DTD/svg11.dtd" >
<svg>
<metadata>
Created by FontForge 20120731 at Tue Dec 15 21:07:56 2015
 By ,,,
(c)2013 Optimo.
</metadata>
<defs>
<font id="Plain-Super" horiz-adv-x="665" >
  <font-face 
    font-family="Plain Super"
    font-weight="950"
    font-stretch="normal"
    units-per-em="1000"
    panose-1="2 11 0 4 2 2 2 2 2 4"
    ascent="803"
    descent="-197"
    x-height="525"
    cap-height="715"
    bbox="-96 -269 1430 1116"
    underline-thickness="50"
    underline-position="-50"
    unicode-range="U+000D-FB02"
  />
<missing-glyph horiz-adv-x="644" 
d="M50 240v49l309 309q14 -8 26 -23zM50 142v49l347 347v-15q0 -20 -13.5 -37.5t-41.5 -39.5t-37 -31q-23 -23 -36 -54zM104 0h-49l261 261h49l-93 -93h-23v-23zM321 168l273 273v-49l-224 -224h-49zM50 338v49l148 148l39 -2q0 29 20 52t55 23h8zM398 0h-49l33 33h2v2
l210 210v-49zM384 133l210 210v-49l-210 -210v49zM50 44v49l206 206v-38h11zM50 583l196 196h49l-44 -44q-54 -14 -93 -53.5t-54 -93.5l-54 -54v49zM537 482l57 57v-49l-216 -216v7q0 12 2.5 21t11 18.5t12.5 13.5t21 16t23 16q1 1 10 7.5t14 10.5t14.5 12.5t15.5 16.5
t13.5 18.5t13 23.5t8.5 27zM50 681l98 98h49l-147 -147v49zM496 0h-49l147 147v-49zM459 698l81 81h49l-104 -104q-25 22 -26 23zM50 436v49l56 56l46 -3zM506 647l88 88v-49l-70 -70q-6 13 -18 31zM202 0h-49l96 96v-49zM395 732l47 47h49l-62 -62q-15 8 -34 15zM536 579
l58 58v-49l-52 -52q0 13 -6 43zM307 742l37 37h49l-38 -38q-18 2 -28 2q-2 0 -6.5 -0.5t-6.5 -0.5h-7zM300 0h-49l33 33h49zM594 49v-49h-49zM50 779h49l-49 -49v49z" />
    <glyph glyph-name="fi" unicode="fi" horiz-adv-x="693" 
d="M71 525v26q0 88 53 130.5t176 42.5q45 0 80 -5v-146q-14 2 -21 2q-48 0 -50 -50h71v-165h-68v-360h-241v360h-49v165h49zM415 575v140h239v-140h-239zM654 0h-239v525h239v-525z" />
    <glyph glyph-name="fl" unicode="fl" horiz-adv-x="696" 
d="M71 525v26q0 88 53 130.5t176 42.5q45 0 80 -5v-146q-14 2 -21 2q-48 0 -50 -50h71v-165h-68v-360h-241v360h-49v165h49zM417 715h240v-715h-240v715z" />
    <glyph glyph-name=".notdef" horiz-adv-x="644" 
d="M50 240v49l309 309q14 -8 26 -23zM50 142v49l347 347v-15q0 -20 -13.5 -37.5t-41.5 -39.5t-37 -31q-23 -23 -36 -54zM104 0h-49l261 261h49l-93 -93h-23v-23zM321 168l273 273v-49l-224 -224h-49zM50 338v49l148 148l39 -2q0 29 20 52t55 23h8zM398 0h-49l33 33h2v2
l210 210v-49zM384 133l210 210v-49l-210 -210v49zM50 44v49l206 206v-38h11zM50 583l196 196h49l-44 -44q-54 -14 -93 -53.5t-54 -93.5l-54 -54v49zM537 482l57 57v-49l-216 -216v7q0 12 2.5 21t11 18.5t12.5 13.5t21 16t23 16q1 1 10 7.5t14 10.5t14.5 12.5t15.5 16.5
t13.5 18.5t13 23.5t8.5 27zM50 681l98 98h49l-147 -147v49zM496 0h-49l147 147v-49zM459 698l81 81h49l-104 -104q-25 22 -26 23zM50 436v49l56 56l46 -3zM506 647l88 88v-49l-70 -70q-6 13 -18 31zM202 0h-49l96 96v-49zM395 732l47 47h49l-62 -62q-15 8 -34 15zM536 579
l58 58v-49l-52 -52q0 13 -6 43zM307 742l37 37h49l-38 -38q-18 2 -28 2q-2 0 -6.5 -0.5t-6.5 -0.5h-7zM300 0h-49l33 33h49zM594 49v-49h-49zM50 779h49l-49 -49v49z" />
    <glyph glyph-name=".null" horiz-adv-x="0" 
 />
    <glyph glyph-name="nonmarkingreturn" horiz-adv-x="333" 
 />
    <glyph glyph-name="NULL" horiz-adv-x="0" 
 />
    <glyph glyph-name="NULL" horiz-adv-x="0" 
 />
    <glyph glyph-name="CR" unicode="&#xd;" horiz-adv-x="0" 
 />
    <glyph glyph-name="space" unicode=" " horiz-adv-x="194" 
 />
    <glyph glyph-name="exclam" unicode="!" horiz-adv-x="364" 
d="M284 208h-204q-2 42 -6.5 115.5t-7 140.5t-2.5 137v114h236v-114q0 -70 -2.5 -137t-7 -140.5t-6.5 -115.5zM294 164v-164h-224v164h224z" />
    <glyph glyph-name="quotedbl" unicode="&#x22;" horiz-adv-x="563" 
d="M248 451h-199q0 5 -6.5 122t-6.5 142h225q0 -25 -6.5 -142t-6.5 -122zM514 451h-199q0 5 -6.5 122t-6.5 142h225q0 -25 -6.5 -142t-6.5 -122z" />
    <glyph glyph-name="numbersign" unicode="#" 
d="M289 0l38 184h-59l-38 -184h-173l38 184h-79l33 149h76l10 48h-79l33 149h77l38 184h173l-38 -184h59l38 184h173l-38 -184h78l-33 -149h-76l-10 -48h79l-33 -149h-76l-38 -184h-173zM308 381l-10 -48h59l10 48h-59z" />
    <glyph glyph-name="dollar" unicode="$" 
d="M652 485h-253q-1 79 -72 79q-28 0 -42.5 -11.5t-14.5 -29.5q0 -25 23.5 -37t87.5 -29l38 -10q135 -34 191.5 -84.5t56.5 -136.5q0 -84 -53.5 -139.5t-155.5 -76.5v-139h-245v139q-205 42 -217 242h268q2 -46 21 -67.5t60 -21.5q67 0 67 47q0 21 -16 30.5t-56 20.5l-84 22
q-132 33 -187 86.5t-55 141.5q0 78 51 131t148 73v122h245v-125q181 -48 194 -227z" />
    <glyph glyph-name="percent" unicode="%" horiz-adv-x="934" 
d="M216 321q-93 0 -142.5 54t-49.5 149q0 94 49.5 148t141.5 54t141.5 -54.5t49.5 -148.5q0 -95 -49 -148.5t-141 -53.5zM169 522q0 -46 10.5 -68.5t35.5 -22.5t35 22t10 69q0 49 -10 72t-35 23q-46 0 -46 -95zM265 0l274 715h134l-275 -715h-133zM720 -16q-93 0 -142.5 54
t-49.5 149q0 94 49.5 148t141.5 54t141.5 -54.5t49.5 -148.5q0 -95 -49 -148.5t-141 -53.5zM674 185q0 -47 10 -69.5t35 -22.5t35 22.5t10 69.5q0 49 -10 71.5t-35 22.5t-35 -23t-10 -71z" />
    <glyph glyph-name="ampersand" unicode="&#x26;" horiz-adv-x="777" 
d="M313 550q0 -37 38 -75q52 35 52 76q0 20 -12 31.5t-33 11.5q-45 0 -45 -44zM779 92l-143 -129q-49 45 -87 86q-93 -65 -233 -65q-136 0 -212 59.5t-76 162.5q0 140 150 203q-71 58 -71 141q0 85 66.5 132t183.5 47q110 0 175.5 -46t65.5 -124q0 -108 -127 -183
q33 -33 61 -56q14 32 21 84l214 -8q-8 -61 -30 -122.5t-50 -97.5zM407 174l-100 100q-36 -22 -36 -62q0 -29 20 -46t51 -17q42 0 65 25z" />
    <glyph glyph-name="quotesingle" unicode="'" horiz-adv-x="297" 
d="M248 451h-199q0 5 -6.5 122t-6.5 142h225q0 -25 -6.5 -142t-6.5 -122z" />
    <glyph glyph-name="parenleft" unicode="(" horiz-adv-x="378" 
d="M19 294q0 167 85.5 286t236.5 177v-215q-110 -96 -110 -246t110 -239v-220q-150 55 -236 174.5t-86 282.5z" />
    <glyph glyph-name="parenright" unicode=")" horiz-adv-x="378" 
d="M359 294q0 -163 -86.5 -282.5t-235.5 -174.5v220q110 89 110 239t-110 246v215q151 -58 236.5 -177t85.5 -286z" />
    <glyph glyph-name="asterisk" unicode="*" horiz-adv-x="424" 
d="M292 715l-10 -72l68 30l49 -152l-72 -13l50 -55l-129 -94l-36 65l-36 -65l-129 94l49 55l-71 13l49 152l66 -30l-8 72h160z" />
    <glyph glyph-name="plus" unicode="+" 
d="M78 233v204h151v152h206v-152h152v-204h-152v-154h-206v154h-151z" />
    <glyph glyph-name="comma" unicode="," horiz-adv-x="335" 
d="M311 205l-106 -294h-210l80 294h236z" />
    <glyph glyph-name="hyphen" unicode="-" horiz-adv-x="387" 
d="M42 197v201h303v-201h-303z" />
    <glyph glyph-name="period" unicode="." horiz-adv-x="315" 
d="M42 0v205h231v-205h-231z" />
    <glyph glyph-name="slash" unicode="/" horiz-adv-x="538" 
d="M18 -105l290 820h212l-288 -820h-214z" />
    <glyph glyph-name="zero" unicode="0" 
d="M333 183q38 0 52 37.5t14 131.5q0 101 -13 141.5t-53 40.5t-53.5 -41t-13.5 -141q0 -94 14 -131.5t53 -37.5zM333 732q90 0 153 -29t97.5 -83.5t49 -119.5t14.5 -149q0 -66 -8 -118.5t-29.5 -100t-56.5 -79t-90.5 -50t-129.5 -18.5q-92 0 -155.5 27t-97.5 79t-48 114
t-14 146t14.5 149t49 119.5t98 83.5t153.5 29z" />
    <glyph glyph-name="one" unicode="1" 
d="M263 423h-175v181h24q75 0 114.5 25.5t56.5 85.5h235v-715h-255v423z" />
    <glyph glyph-name="two" unicode="2" 
d="M262 443h-237q0 132 78.5 210.5t237.5 78.5q146 0 218.5 -58t72.5 -166q0 -53 -19.5 -100t-57.5 -86.5t-73.5 -66.5t-86.5 -60h239v-195h-607v173q117 73 260 179q58 44 79.5 70.5t21.5 57.5q0 26 -15 41.5t-43 15.5q-66 0 -68 -94z" />
    <glyph glyph-name="three" unicode="3" 
d="M263 481h-226q2 118 77.5 184.5t216.5 66.5q133 0 208 -56t75 -146q0 -56 -21.5 -89t-61.5 -58q113 -59 113 -168q0 -105 -86 -168t-231 -63q-150 0 -231 69.5t-83 200.5h232q4 -47 23.5 -69.5t62.5 -22.5q36 0 55.5 17.5t19.5 47.5q0 33 -30 51t-82 18h-42l1 144h21
q60 0 84.5 16.5t24.5 47.5q0 23 -15.5 36t-40.5 13q-61 0 -64 -72z" />
    <glyph glyph-name="four" unicode="4" 
d="M640 296v-182h-68v-114h-233v114h-329v182l278 419h284v-419h68zM213 295q24 1 71 1h52v69q0 85 4 137h-1q-12 -25 -49 -85l-38 -61l-27 -43q-6 -11 -12 -18z" />
    <glyph glyph-name="five" unicode="5" 
d="M21 231h245q6 -67 72 -67q32 0 52 20.5t20 53.5q0 34 -19 55t-52 21q-50 0 -67 -42l-229 28l46 415h506v-179h-321l-8 -71q57 24 118 24q112 0 186 -65t74 -179q0 -121 -84 -191t-227 -70q-133 0 -216.5 67.5t-95.5 179.5z" />
    <glyph glyph-name="six" unicode="6" 
d="M637 502h-236q-13 49 -64 49q-74 0 -74 -106h2q51 36 136 36q110 0 176.5 -63.5t66.5 -172.5q0 -115 -81.5 -187.5t-221.5 -72.5q-154 0 -238 89.5t-84 258.5q0 192 82 296t252 104q73 0 129 -20t88.5 -54t49 -73.5t17.5 -83.5zM341 168q33 0 53 20t20 53q0 34 -20 54.5
t-55 20.5t-54.5 -20t-19.5 -53q0 -35 21.5 -55t54.5 -20z" />
    <glyph glyph-name="seven" unicode="7" 
d="M369 0h-282q11 34 22.5 65t26.5 65t24.5 57t29.5 60.5t27.5 52.5t32 57.5t30 52.5t34 58.5t32.5 55.5q-1 0 -1 1q-29 -2 -124 -2h-165v192h564v-182q-140 -194 -251 -533z" />
    <glyph glyph-name="eight" unicode="8" 
d="M253 229q0 -31 21.5 -52t58.5 -21t58 21t21 52t-21 52t-58 21t-58.5 -21t-21.5 -52zM265 511q0 -27 18.5 -44t50.5 -17t50 17t18 44t-18 44t-50 17t-50.5 -17t-18.5 -44zM332 -15q-156 0 -236 57.5t-80 162.5q0 117 118 177q-91 55 -91 155q0 86 76 140.5t213 54.5
t213 -54.5t76 -140.5q0 -100 -91 -155q118 -60 118 -177q0 -104 -80.5 -162t-235.5 -58z" />
    <glyph glyph-name="nine" unicode="9" 
d="M26 219h236q13 -52 64 -52q74 0 74 111h-2q-51 -36 -134 -36q-109 0 -176 62t-67 172q0 113 81.5 185t219.5 72q154 0 238 -89.5t84 -258.5q0 -192 -82 -296t-252 -104q-142 0 -211.5 68t-72.5 166zM322 555q-33 0 -53 -20t-20 -53q0 -34 20 -54.5t55 -20.5t54.5 20
t19.5 53q0 35 -21.5 55t-54.5 20z" />
    <glyph glyph-name="colon" unicode=":" horiz-adv-x="315" 
d="M42 0v205h231v-205h-231zM42 285v205h231v-205h-231z" />
    <glyph glyph-name="semicolon" unicode=";" horiz-adv-x="340" 
d="M70 285v205h231v-205h-231zM306 205l-106 -294h-210l80 294h236z" />
    <glyph glyph-name="less" unicode="&#x3c;" 
d="M534 642v-229l-184 -75v-3l184 -76v-231l-435 217v178z" />
    <glyph glyph-name="equal" unicode="=" 
d="M83 142v173h498v-173h-498zM83 357v172h498v-172h-498z" />
    <glyph glyph-name="greater" unicode="&#x3e;" 
d="M131 413v229l435 -219v-178l-435 -217v231l184 76v3z" />
    <glyph glyph-name="question" unicode="?" horiz-adv-x="638" 
d="M256 471h-232q2 117 75.5 189t225.5 72q146 0 218 -56t72 -150q0 -58 -27 -102.5t-81 -84.5l-16 -11q-29 -22 -41 -33t-20.5 -32.5t-8.5 -54.5h-223q0 50 14 86t33 57t58 54l40 33q32 27 32 60q0 22 -15 35.5t-41 13.5q-63 0 -63 -76zM421 164v-164h-224v164h224z" />
    <glyph glyph-name="at" unicode="@" horiz-adv-x="806" 
d="M509 529h120l-43 -229q-7 -32 -7 -39q0 -8 10 -8q29 0 53.5 45t24.5 108q0 107 -64 163t-180 56q-122 0 -198.5 -77t-76.5 -197t78 -195.5t204 -75.5q108 0 209 64l66 -71q-129 -99 -278 -99q-186 0 -292 103t-106 274q0 161 110.5 270.5t282.5 109.5q159 0 257 -89.5
t98 -222.5q0 -120 -61 -196t-152 -76q-53 0 -81 33q-50 -37 -112 -37q-75 0 -122 50.5t-47 132.5q0 93 57.5 160t145.5 67q55 0 102 -35zM417 430q-38 0 -60 -28.5t-22 -71.5q0 -30 14.5 -48t40.5 -18q37 0 59.5 31.5t22.5 74.5q0 60 -55 60z" />
    <glyph glyph-name="A" unicode="A" horiz-adv-x="774" 
d="M236 0h-260q129 362 261 715h303q140 -393 258 -715h-265l-43 130h-212zM326 314h116q-9 33 -29 101t-28 97h-3q-1 -5 -56 -198z" />
    <glyph glyph-name="B" unicode="B" horiz-adv-x="724" 
d="M46 0v715h314q63 0 94 -1q230 -8 230 -177q0 -66 -39 -106.5t-102 -53.5q163 -32 163 -173q0 -90 -49.5 -135.5t-139.5 -61.5q-43 -7 -107 -7h-364zM301 287v-113h43q49 0 72 12t23 46q0 33 -22 44t-71 11h-45zM301 540v-101h48q42 0 60.5 11.5t18.5 42.5q0 27 -17.5 37
t-53.5 10h-56z" />
    <glyph glyph-name="C" unicode="C" horiz-adv-x="769" 
d="M765 454h-266q-22 85 -100 85q-59 0 -88 -48t-29 -135q0 -83 29 -129.5t88 -46.5q71 0 95 65h266q-60 -258 -359 -258q-178 0 -280.5 98.5t-102.5 271.5q0 170 104.5 270.5t279.5 100.5q153 0 244.5 -73t118.5 -201z" />
    <glyph glyph-name="D" unicode="D" horiz-adv-x="783" 
d="M46 0v715h269h30h30t27.5 -0.5t28.5 -1t25.5 -2t27 -3.5t25 -5t27 -6.5t25 -9t26.5 -11.5q177 -86 177 -313q0 -99 -38.5 -181t-103.5 -123q-60 -35 -128.5 -47t-179.5 -12h-268zM304 530v-344h34q84 0 121.5 40.5t37.5 132.5q0 89 -35 130t-122 41h-36z" />
    <glyph glyph-name="E" unicode="E" horiz-adv-x="640" 
d="M304 267v-84h304v-183h-562v715h559v-186h-301v-74h275v-188h-275z" />
    <glyph glyph-name="F" unicode="F" horiz-adv-x="609" 
d="M306 0h-260v715h542v-186h-282v-74h263v-192h-263v-263z" />
    <glyph glyph-name="G" unicode="G" horiz-adv-x="795" 
d="M765 461h-267q-21 79 -98 79q-57 0 -88 -47.5t-31 -129.5q0 -90 31.5 -137.5t88.5 -47.5q36 0 60.5 17t34.5 44q-54 -2 -64 -2h-68v176h399v-413h-199q0 24 0.5 37t0.5 15q-79 -65 -202 -65q-155 0 -250 98.5t-95 271.5q0 169 106 270t278 101q157 0 247 -73t116 -194z
" />
    <glyph glyph-name="H" unicode="H" horiz-adv-x="780" 
d="M310 0h-264v715h264v-232h161v232h263v-715h-263v249h-161v-249z" />
    <glyph glyph-name="I" unicode="I" horiz-adv-x="358" 
d="M312 0h-266v715h266v-715z" />
    <glyph glyph-name="J" unicode="J" horiz-adv-x="621" 
d="M284 -15q-285 0 -285 248h236q1 -25 9 -37.5t30 -12.5q25 0 33.5 19.5t8.5 70.5v442h265v-470q0 -131 -78.5 -195.5t-218.5 -64.5z" />
    <glyph glyph-name="K" unicode="K" horiz-adv-x="780" 
d="M310 0h-264v715h264v-271h2q95 152 171 271h309q-82 -112 -248 -331q32 -48 133.5 -196.5t127.5 -187.5h-312q-145 241 -181 295h-2v-295z" />
    <glyph glyph-name="L" unicode="L" horiz-adv-x="604" 
d="M594 0h-548v715h265v-521h283v-194z" />
    <glyph glyph-name="M" unicode="M" horiz-adv-x="1061" 
d="M667 0h-275l-60 258q-19 85 -45 232h-4q4 -80 4 -234v-256h-241v715h406l35 -187q42 -232 44 -246h3q4 29 20 119.5t23 129.5l34 184h404v-715h-245v257q0 130 4 237h-4q-7 -34 -21.5 -112.5t-23.5 -118.5z" />
    <glyph glyph-name="N" unicode="N" horiz-adv-x="822" 
d="M776 715v-715h-321l-81 178q-65 144 -87 217h-2q4 -72 4 -150v-245h-243v715h335l81 -198q27 -62 73 -182h2q-4 68 -4 227v153h243z" />
    <glyph glyph-name="O" unicode="O" horiz-adv-x="803" 
d="M401 728q176 0 280 -100.5t104 -270.5q0 -173 -103 -271.5t-282 -98.5q-177 0 -279.5 98.5t-102.5 271.5q0 170 103.5 270.5t279.5 100.5zM401 180q58 0 87 46.5t29 130.5q0 87 -29 134.5t-87 47.5q-59 0 -88 -48t-29 -135q0 -83 29 -129.5t88 -46.5z" />
    <glyph glyph-name="P" unicode="P" horiz-adv-x="690" 
d="M46 0v715h296q55 0 80 -1q122 -4 190.5 -70t68.5 -176q0 -125 -87 -192q-42 -32 -98 -42.5t-145 -10.5h-52v-223h-253zM304 529v-115h46q73 0 73 58q0 57 -76 57h-43z" />
    <glyph glyph-name="Q" unicode="Q" horiz-adv-x="803" 
d="M401 728q176 0 280 -100.5t104 -270.5q0 -151 -78 -244l129 -163h-276l-42 50q-58 -13 -118 -13q-177 0 -279.5 98.5t-102.5 271.5q0 170 103.5 270.5t279.5 100.5zM322 258l181 2q14 42 14 97q0 87 -29 134.5t-87 47.5q-59 0 -88 -48t-29 -135q0 -166 106 -176z" />
    <glyph glyph-name="R" unicode="R" horiz-adv-x="723" 
d="M299 224v-224h-253v715h362q137 0 203 -46q86 -63 86 -180q0 -156 -131 -220l168 -269h-281l-121 224h-33zM299 528v-113h54q71 0 71 59q0 54 -76 54h-49z" />
    <glyph glyph-name="S" unicode="S" horiz-adv-x="695" 
d="M666 482h-253q-1 81 -72 81q-57 0 -57 -42q0 -18 14.5 -30t34 -19t62.5 -18l38 -10q135 -36 191.5 -87t56.5 -139q0 -109 -85.5 -170t-246.5 -61q-322 0 -339 258h268q2 -48 21 -69.5t60 -21.5q67 0 67 48q0 15 -10 25t-23 15t-39 12l-84 22q-133 35 -187.5 89.5
t-54.5 143.5q0 101 82.5 160t233.5 59q148 0 231 -62t91 -184z" />
    <glyph glyph-name="T" unicode="T" horiz-adv-x="632" 
d="M450 0h-266v521h-174v194h612v-194h-172v-521z" />
    <glyph glyph-name="U" unicode="U" horiz-adv-x="760" 
d="M381 -15q-229 0 -302 129q-40 70 -40 196v405h270v-420q0 -29 5 -49q13 -46 67 -46q55 0 68 46q5 20 5 49v420h267v-405q0 -126 -40 -196q-73 -129 -300 -129z" />
    <glyph glyph-name="V" unicode="V" horiz-adv-x="760" 
d="M543 0h-328q-111 323 -236 715h285l62 -231q39 -147 54 -216h2q25 100 59 223l65 224h277q-29 -92 -87.5 -267t-104.5 -309.5t-48 -138.5z" />
    <glyph glyph-name="W" unicode="W" horiz-adv-x="1056" 
d="M1061 715l-146 -715h-328l-41 262q-3 20 -17 153h-3q-4 -46 -19 -153l-45 -262h-322l-145 715h276l40 -269q4 -28 17 -154h3q9 77 27 178l41 245h273l37 -238q19 -125 24 -185h4q10 106 17 152l46 271h261z" />
    <glyph glyph-name="X" unicode="X" horiz-adv-x="736" 
d="M749 715l-230 -339l238 -376h-313q-53 107 -79 165h-1q-45 -83 -85 -165h-300l232 362l-224 353h309q14 -32 75 -153h2l79 153h297z" />
    <glyph glyph-name="Y" unicode="Y" horiz-adv-x="680" 
d="M431 715h274q-58 -112 -138 -272q-41 -79 -96 -188v-255h-264v255q-39 76 -84 170l-144 290h281q15 -37 46 -117.5t39 -100.5h2q10 25 37.5 98t46.5 120z" />
    <glyph glyph-name="Z" unicode="Z" horiz-adv-x="670" 
d="M28 0v167l212 266q13 15 36.5 44.5t38.5 46.5q-1 1 -1 2q-30 -2 -121 -2h-161v191h600v-169l-196 -249q-78 -96 -87 -106q0 -1 1 -2q31 2 120 2h177v-191h-619z" />
    <glyph glyph-name="bracketleft" unicode="[" horiz-adv-x="392" 
d="M367 29v-142h-300v828h300v-142h-98v-544h98z" />
    <glyph glyph-name="backslash" unicode="\" horiz-adv-x="538" 
d="M230 715l290 -820h-214l-288 820h212z" />
    <glyph glyph-name="bracketright" unicode="]" horiz-adv-x="392" 
d="M25 -113v142h98v544h-98v142h300v-828h-300z" />
    <glyph glyph-name="asciicircum" unicode="^" 
d="M255 684h153l201 -396h-222q-9 21 -21 51.5t-19.5 48.5t-12.5 27h-3q-5 -9 -13 -27t-20 -48t-22 -52h-221q165 328 200 396z" />
    <glyph glyph-name="underscore" unicode="_" horiz-adv-x="554" 
d="M39 -180v171h476v-171h-476z" />
    <glyph glyph-name="grave" unicode="`" horiz-adv-x="257" 
d="M382 579h-233l-144 136h279z" />
    <glyph glyph-name="a" unicode="a" horiz-adv-x="594" 
d="M573 4v-4h-196q-3 20 -3 52h-2q-53 -63 -166 -63q-91 0 -142.5 42t-51.5 117q0 61 40.5 98t119.5 58q65 18 176 27q0 65 -53 65q-50 0 -55 -51h-208q7 94 77 145.5t188 51.5q131 0 198 -53.5t67 -182.5v-150q0 -124 11 -152zM347 212l-26 -4q-58 -9 -76.5 -20t-18.5 -33
q0 -18 13.5 -28.5t36.5 -10.5q71 0 71 79v17z" />
    <glyph glyph-name="b" unicode="b" horiz-adv-x="677" 
d="M270 0h-231v715h240v-138q0 -13 -0.5 -51t-0.5 -51q54 65 152 65q106 0 167.5 -72.5t61.5 -200.5q0 -126 -63.5 -202.5t-170.5 -76.5q-100 0 -156 74q1 -17 1 -62zM342 383q-62 0 -62 -119q0 -118 63 -118t63 117q0 120 -64 120z" />
    <glyph glyph-name="c" unicode="c" horiz-adv-x="603" 
d="M368 198h228q-16 -97 -91 -155.5t-198 -58.5q-137 0 -214 76.5t-77 201.5q0 126 79 203.5t217 77.5q116 0 191 -59t91 -159h-226q-6 32 -19 47.5t-38 15.5q-34 0 -48.5 -31t-14.5 -94q0 -66 13.5 -95t50.5 -29q25 0 37 14t19 45z" />
    <glyph glyph-name="d" unicode="d" horiz-adv-x="677" 
d="M638 0h-231v56q-54 -68 -161 -68q-105 0 -166.5 73.5t-61.5 201.5q0 125 63 201t168 76q96 0 150 -64q0 22 -0.5 60t-0.5 41v138h240v-715zM335 145q62 0 62 119q0 118 -63 118t-63 -117q0 -120 64 -120z" />
    <glyph glyph-name="e" unicode="e" horiz-adv-x="619" 
d="M376 180l231 -1q-28 -87 -104.5 -141t-197.5 -54q-134 0 -211.5 76t-77.5 205q0 125 81 201.5t220 76.5q141 0 217 -78t76 -222q0 -4 -0.5 -9t-0.5 -7v-7h-369q5 -80 70 -80q47 0 66 40zM242 331h139q-8 71 -67 71q-64 0 -72 -71z" />
    <glyph glyph-name="f" unicode="f" horiz-adv-x="396" 
d="M71 525v26q0 88 53 130.5t176 42.5q45 0 80 -5v-146q-14 2 -21 2q-48 0 -50 -50h71v-165h-68v-360h-241v360h-49v165h49z" />
    <glyph glyph-name="g" unicode="g" horiz-adv-x="677" 
d="M27 3h249q5 -49 57 -49q38 0 54 30.5t16 99.5h-2q-58 -58 -156 -58q-100 0 -163.5 69t-63.5 186q0 111 62.5 185t165.5 74q116 0 163 -68q-3 32 -3 53h232v-470q0 -131 -81 -190.5t-237 -59.5q-274 0 -293 198zM335 164q62 0 62 109q0 108 -63 108t-63 -107
q0 -110 64 -110z" />
    <glyph glyph-name="h" unicode="h" horiz-adv-x="658" 
d="M277 485h3q54 54 150 54q119 0 166 -84q17 -31 22.5 -67.5t5.5 -108.5v-279h-240v268q0 53 -11 76t-39 23q-30 0 -42.5 -25.5t-12.5 -86.5v-255h-240v715h240v-109q0 -55 -2 -121z" />
    <glyph glyph-name="i" unicode="i" horiz-adv-x="317" 
d="M39 575v140h239v-140h-239zM278 0h-239v525h239v-525z" />
    <glyph glyph-name="j" unicode="j" horiz-adv-x="318" 
d="M-19 -26q35 0 46.5 18t11.5 63v470h240v-525q0 -110 -52.5 -151t-166.5 -41q-70 0 -100 7v160q8 -1 21 -1zM39 575v140h240v-140h-240z" />
    <glyph glyph-name="k" unicode="k" horiz-adv-x="684" 
d="M279 0h-240v715h240v-407h1q5 9 62.5 104t69.5 113h276q-44 -53 -110.5 -142t-75.5 -99q133 -196 201 -284h-285q-105 169 -138 239h-1v-239z" />
    <glyph glyph-name="l" unicode="l" horiz-adv-x="318" 
d="M39 715h240v-715h-240v715z" />
    <glyph glyph-name="m" unicode="m" horiz-adv-x="999" 
d="M38 525h225v-59h2q51 73 165 73q112 0 161 -77h1q61 77 177 77q121 0 168 -84q17 -31 22.5 -67.5t5.5 -108.5v-279h-240v268q0 54 -10.5 76.5t-38.5 22.5q-30 0 -42 -25.5t-12 -86.5v-255h-240v268q0 54 -10.5 76.5t-38.5 22.5q-30 0 -42 -25.5t-12 -86.5v-255h-240v438
q0 58 -1 87z" />
    <glyph glyph-name="n" unicode="n" horiz-adv-x="658" 
d="M38 525h225v-59h2q51 73 165 73q119 0 166 -84q17 -31 22.5 -67.5t5.5 -108.5v-279h-240v268q0 53 -11 76t-39 23q-30 0 -42.5 -25.5t-12.5 -86.5v-255h-240v438q0 58 -1 87z" />
    <glyph glyph-name="o" unicode="o" horiz-adv-x="624" 
d="M311 543q139 0 218 -77t79 -204q0 -125 -78.5 -201.5t-217.5 -76.5q-140 0 -218 76t-78 203q0 126 78.5 203t216.5 77zM310 387q-62 0 -62 -124q0 -63 14 -93t49 -30t48.5 29.5t13.5 92.5q0 125 -63 125z" />
    <glyph glyph-name="p" unicode="p" horiz-adv-x="678" 
d="M39 526h239q0 -12 -0.5 -28t-0.5 -23q52 65 153 65q105 0 167.5 -72.5t62.5 -200.5q0 -126 -64 -202.5t-171 -76.5q-102 0 -150 65q4 -48 4 -95v-138h-240v706zM342 383q-62 0 -62 -119q0 -118 63 -118q65 0 65 117q0 120 -66 120z" />
    <glyph glyph-name="q" unicode="q" horiz-adv-x="677" 
d="M406 525h232v-705h-240v138q0 61 1 88q-54 -58 -153 -58q-105 0 -166.5 73.5t-61.5 201.5q0 125 63 201t168 76q106 0 158 -64q0 4 -0.5 24t-0.5 25zM335 145q62 0 62 119q0 118 -63 118t-63 -117q0 -120 64 -120z" />
    <glyph glyph-name="r" unicode="r" horiz-adv-x="444" 
d="M39 0v430q0 62 -1 95h230q0 -45 -1 -64h2q28 77 135 77q14 0 28 -2v-202q-17 4 -41 4q-62 0 -89 -44q-24 -40 -24 -155v-139h-239z" />
    <glyph glyph-name="s" unicode="s" horiz-adv-x="600" 
d="M7 179h225q9 -62 73 -62q54 0 54 32q0 15 -12.5 22t-50.5 16l-82 18q-98 21 -144 61t-46 109q0 78 68.5 123.5t203.5 45.5q133 0 200 -46.5t78 -140.5h-214q-9 58 -66 58q-48 0 -48 -31q0 -15 13 -21.5t61 -19.5l66 -16q109 -27 156 -64.5t47 -105.5q0 -173 -286 -173
q-142 0 -211.5 49t-84.5 146z" />
    <glyph glyph-name="t" unicode="t" horiz-adv-x="434" 
d="M83 360h-72v165h72v140h241v-140h85v-165h-85v-77q0 -79 8.5 -103t46.5 -24q11 0 24 3v-162q-35 -7 -105 -7q-111 0 -163 40.5t-52 145.5v184z" />
    <glyph glyph-name="u" unicode="u" horiz-adv-x="657" 
d="M619 0h-225v59h-2q-51 -73 -165 -73q-118 0 -165 84q-17 31 -22.5 67.5t-5.5 108.5v279h240v-268q0 -53 11 -76t39 -23q30 0 42 25.5t12 86.5v255h240v-438q0 -58 1 -87z" />
    <glyph glyph-name="v" unicode="v" horiz-adv-x="631" 
d="M465 0h-300q-99 299 -176 525h262q2 -9 65 -299h3q10 40 30.5 138.5t35.5 160.5h258q-34 -100 -95 -279.5t-83 -245.5z" />
    <glyph glyph-name="w" unicode="w" horiz-adv-x="969" 
d="M433 0h-291q-30 101 -82.5 294t-63.5 231h254l28 -131q21 -115 26 -140h3q5 34 28 147l27 124h248l28 -125q3 -13 13 -66.5t16 -79.5h2q22 123 27 146l27 125h252q-20 -73 -70.5 -250.5t-76.5 -274.5h-292l-24 117l-26 138h-3q-22 -119 -26 -137z" />
    <glyph glyph-name="x" unicode="x" horiz-adv-x="642" 
d="M-10 0l182 267l-185 258h278q25 -49 58 -106q50 92 58 106h266l-180 -257l192 -268h-275q-54 91 -63 105l-62 -105h-269z" />
    <glyph glyph-name="y" unicode="y" horiz-adv-x="632" 
d="M382 525h263q-33 -91 -130.5 -365t-121.5 -340h-276q4 11 30 81.5t34 96.5q-139 361 -194 527h263l62 -249h5q12 48 34.5 133t30.5 116z" />
    <glyph glyph-name="z" unicode="z" horiz-adv-x="575" 
d="M28 0v154l201 198l-1 1q-29 -2 -125 -2h-70v174h506v-154l-71.5 -71.5l-74 -74t-49.5 -51.5v-1q22 0 60 1t65 1h81v-175h-522z" />
    <glyph glyph-name="braceleft" unicode="{" horiz-adv-x="376" 
d="M210 304v-4q43 -7 57 -33t14 -93v-73q0 -44 13 -59t49 -17v-138h-104q-88 0 -118 22q-33 25 -33 104v129q0 57 -13.5 76t-51.5 23v126q38 4 51.5 23t13.5 76v123q0 79 33 104q30 22 118 22h104v-138q-36 -2 -49 -17t-13 -59v-71q0 -67 -14 -93t-57 -33z" />
    <glyph glyph-name="bar" unicode="|" horiz-adv-x="341" 
d="M68 -62v793h205v-793h-205z" />
    <glyph glyph-name="braceright" unicode="}" horiz-adv-x="376" 
d="M166 300v4q-43 7 -57 33t-14 93v71q0 44 -13 59t-49 17v138h104q88 0 118 -22q33 -25 33 -104v-123q0 -57 13.5 -76t51.5 -23v-126q-38 -4 -51.5 -23t-13.5 -76v-129q0 -79 -33 -104q-30 -22 -118 -22h-104v138q36 2 49 17t13 59v73q0 67 14 93t57 33z" />
    <glyph glyph-name="asciitilde" unicode="~" 
d="M482 459l134 -111q-81 -157 -192 -157q-39 0 -99 29l-20 10q-38 21 -58 21q-31 0 -65 -64l-134 111q81 157 192 157q39 0 99 -29l20 -10q38 -21 58 -21q31 0 65 64z" />
    <glyph glyph-name="uni00A0" unicode="&#xa0;" horiz-adv-x="194" 
 />
    <glyph glyph-name="exclamdown" unicode="&#xa1;" horiz-adv-x="348" 
d="M73 315h205q2 -42 6.5 -116t7 -141.5t2.5 -138.5v-115h-238v115q0 95 8 238.5t9 157.5zM288 525v-165h-225v165h225z" />
    <glyph glyph-name="cent" unicode="&#xa2;" 
d="M397 198h228q-26 -151 -172 -197v-83h-225v82q-88 27 -135.5 95.5t-47.5 166.5t47.5 167.5t135.5 96.5v96h225v-97q69 -23 113.5 -75.5t56.5 -124.5h-226q-6 32 -19 47.5t-38 15.5q-34 0 -48.5 -31t-14.5 -94q0 -66 13.5 -95t50.5 -29q25 0 37 14t19 45z" />
    <glyph glyph-name="sterling" unicode="&#xa3;" 
d="M644 491h-233q-5 53 -44 53q-41 0 -41 -48q0 -19 9 -46h172v-162h-119q15 -28 15 -61q0 -25 -12 -53h243v-174h-588v149q120 6 120 89q0 27 -10 50h-134v159h72q-9 31 -9 67q0 95 70.5 157t217.5 62q138 0 203.5 -61.5t67.5 -180.5z" />
    <glyph glyph-name="currency" unicode="&#xa4;" 
d="M484 58l-60 59q-41 -16 -91 -16t-92 16l-60 -60l-152 152l62 62q-15 41 -15 87q0 50 16 91l-63 64l152 152l64 -65q41 16 88 16q45 0 87 -16l64 64l152 -152l-62 -62q17 -46 17 -92q0 -47 -16 -88l61 -60zM256 358q0 -32 22.5 -54.5t54.5 -22.5q33 0 55.5 22.5t22.5 54.5
q0 33 -22.5 55.5t-55.5 22.5q-32 0 -54.5 -22.5t-22.5 -55.5z" />
    <glyph glyph-name="yen" unicode="&#xa5;" 
d="M422 715h274q-38 -78 -95 -189h38v-173h-127q-9 -18 -33 -64h160v-173h-177v-116h-264v116h-174v173h157q-23 46 -31 64h-126v173h40l-94 189h281q15 -37 46 -117.5t39 -100.5h2q10 25 37.5 98t46.5 120z" />
    <glyph glyph-name="brokenbar" unicode="&#xa6;" horiz-adv-x="343" 
d="M274 418h-205v313h205v-313zM69 251h205v-313h-205v313z" />
    <glyph glyph-name="section" unicode="&#xa7;" 
d="M355 527l64 -16q212 -50 212 -190q0 -50 -21 -84t-51 -51q57 -43 57 -114q0 -174 -286 -174q-136 0 -208 47.5t-88 147.5h224q10 -62 76 -62q52 0 52 32q0 14 -18.5 24.5t-66.5 25.5l-75 24q-186 59 -186 186q0 71 72 124q-48 41 -48 112q0 78 68.5 123.5t203.5 45.5
q131 0 198.5 -45t78.5 -142h-213q-9 58 -66 58q-48 0 -48 -31q0 -14 13 -21.5t56 -19.5zM331 288q9 -3 19.5 -7t23.5 -9t20 -8q18 8 18 33q0 23 -62 45l-74 27q-17 -6 -17 -29q0 -17 14.5 -27t57.5 -25z" />
    <glyph glyph-name="dieresis" unicode="&#xa8;" horiz-adv-x="491" 
d="M88 579v136h166v-136h-166zM299 579v136h165v-136h-165z" />
    <glyph glyph-name="copyright" unicode="&#xa9;" horiz-adv-x="811" 
d="M782 360q0 -158 -110 -267.5t-268 -109.5q-156 0 -265.5 110t-109.5 267t109.5 266.5t267.5 109.5q156 0 266 -110t110 -266zM698 360q0 121 -86 208t-206 87q-122 0 -207 -86.5t-85 -208.5q0 -123 84.5 -210t206.5 -87q121 0 207 87t86 210zM617 413h-154q-14 50 -58 50
q-68 0 -68 -106q0 -102 68 -102q42 0 55 37h154q-35 -149 -208 -149q-103 0 -162.5 56.5t-59.5 157.5q0 99 60.5 157t162.5 58q177 0 210 -159z" />
    <glyph glyph-name="ordfeminine" unicode="&#xaa;" horiz-adv-x="478" 
d="M441 183v-4h-149q0 1 -0.5 4t-0.5 5l-2 25q-39 -42 -119 -42q-69 0 -108 31.5t-39 87.5q0 87 121 118q50 14 130 21q-1 24 -9 35t-30 11q-37 0 -39 -38h-158q5 71 57.5 110t140.5 39q99 0 149.5 -41t50.5 -138v-151q0 -42 5 -73zM273 337l-19 -3q-41 -6 -55 -14.5
t-14 -23.5q0 -29 36 -29q52 0 52 59v11z" />
    <glyph glyph-name="guillemotleft" unicode="&#xab;" horiz-adv-x="620" 
d="M334 473l-96 -187l96 -188h-203l-106 188l106 187h203zM591 473l-96 -187l96 -188h-203l-106 188l106 187h203z" />
    <glyph glyph-name="logicalnot" unicode="&#xac;" 
d="M74 277v203h505v-342h-205v139h-300z" />
    <glyph glyph-name="uni00AD" unicode="&#xad;" horiz-adv-x="387" 
d="M42 197v201h303v-201h-303z" />
    <glyph glyph-name="registered" unicode="&#xae;" horiz-adv-x="521" 
d="M494 502q0 -98 -68 -166t-166 -68q-96 0 -164.5 68.5t-68.5 165.5t68 165t166 68q96 0 164.5 -68.5t68.5 -164.5zM442 502q0 75 -53.5 129t-127.5 54q-75 0 -128 -54t-53 -129q0 -76 52.5 -130t127.5 -54t128.5 54t53.5 130zM234 460v-86h-94v257h141q48 0 71 -16
q30 -21 30 -62q0 -56 -50 -80l55 -99h-100l-40 86h-13zM234 566v-43h19q29 0 29 23q0 20 -30 20h-18z" />
    <glyph glyph-name="macron" unicode="&#xaf;" horiz-adv-x="428" 
d="M80 578v137h273v-137h-273z" />
    <glyph glyph-name="degree" unicode="&#xb0;" horiz-adv-x="371" 
d="M186 400q-70 0 -118.5 47.5t-48.5 116.5q0 70 48.5 117.5t118.5 47.5t118 -47.5t48 -117.5t-47.5 -117t-118.5 -47zM144 564q0 -18 11.5 -29.5t30.5 -11.5q18 0 29.5 11.5t11.5 29.5q0 19 -11.5 30.5t-29.5 11.5q-19 0 -30.5 -11.5t-11.5 -30.5z" />
    <glyph glyph-name="plusminus" unicode="&#xb1;" 
d="M78 314v204h151v104h206v-104h152v-204h-152v-89h-206v89h-151zM78 0v204h509v-204h-509z" />
    <glyph glyph-name="twosuperior" unicode="&#xb2;" horiz-adv-x="450" 
d="M187 543h-151q0 84 48.5 133.5t143.5 49.5q89 0 134.5 -37.5t45.5 -104.5q0 -92 -110 -174q-23 -18 -36 -26h149v-116h-372v106q37 24 156 110q60 48 60 86q0 31 -32 31q-36 0 -36 -58z" />
    <glyph glyph-name="threesuperior" unicode="&#xb3;" horiz-adv-x="432" 
d="M177 572h-142q1 70 49.5 112t130.5 42q83 0 129.5 -35t46.5 -91q0 -59 -49 -92q68 -39 68 -103q0 -66 -52.5 -105t-143.5 -39q-92 0 -142 43.5t-52 125.5h142q5 -59 54 -59q48 0 48 42q0 43 -72 43h-29v93h15q69 0 69 39q0 29 -33 29q-36 0 -37 -45z" />
    <glyph glyph-name="acute" unicode="&#xb4;" horiz-adv-x="427" 
d="M295 579h-233l97 136h279z" />
    <glyph glyph-name="mu" unicode="&#xb5;" horiz-adv-x="663" 
d="M272 -180h-233v705h241v-268q0 -53 11 -76t39 -23q30 0 42 25.5t12 86.5v255h240v-439q0 -58 1 -86h-237v46q-25 -52 -94 -52q-8 0 -22 2v-176z" />
    <glyph glyph-name="paragraph" unicode="&#xb6;" horiz-adv-x="728" 
d="M429 554v-667h-148v326q-107 9 -182.5 78t-75.5 174q0 125 100 197q45 31 96.5 42t128.5 11h322v-161h-43v-667h-148v667h-50z" />
    <glyph glyph-name="periodcentered" unicode="&#xb7;" horiz-adv-x="315" 
d="M42 231v205h231v-205h-231z" />
    <glyph glyph-name="cedilla" unicode="&#xb8;" horiz-adv-x="369" 
d="M26 -163l100 119h243l-75 -119h-268z" />
    <glyph glyph-name="onesuperior" unicode="&#xb9;" horiz-adv-x="309" 
d="M126 544h-113v95h14q88 0 111 76h123v-441h-135v270z" />
    <glyph glyph-name="ordmasculine" unicode="&#xba;" horiz-adv-x="485" 
d="M241 586q105 0 164.5 -58t59.5 -153t-58.5 -151.5t-164.5 -56.5t-164 56.5t-58 152.5q0 95 59 152.5t162 57.5zM240 468q-44 0 -44 -92q0 -47 10 -69t35 -22t35.5 22t10.5 68q0 93 -47 93z" />
    <glyph glyph-name="guillemotright" unicode="&#xbb;" horiz-adv-x="620" 
d="M382 286l-96 187h203l106 -187l-106 -188h-203zM125 286l-96 187h203l106 -187l-106 -188h-203z" />
    <glyph glyph-name="onequarter" unicode="&#xbc;" horiz-adv-x="852" 
d="M648 74h-209v97l124 169q9 11 24.5 34.5t20.5 30.5l25 37h144v-264h50v-104h-50v-74h-129v74zM645 178v69q0 27 1 46l-26 -39l-29 -43q-8 -12 -23 -33h77zM199 0l275 715h133l-275 -715h-133zM137 544h-112v95h14q88 0 110 76h124v-441h-136v270z" />
    <glyph glyph-name="onehalf" unicode="&#xbd;" horiz-adv-x="900" 
d="M192 0l275 715h133l-275 -715h-133zM137 544h-112v95h14q90 0 110 76h124v-441h-136v270zM642 274h-148q0 82 48 131.5t143 49.5q87 0 133.5 -36.5t46.5 -103.5q0 -52 -28.5 -91.5t-82.5 -82.5q-23 -18 -36 -26h150v-115h-372v105q58 37 156 111q60 45 60 85q0 31 -32 31
q-38 0 -38 -58z" />
    <glyph glyph-name="threequarters" unicode="&#xbe;" horiz-adv-x="964" 
d="M761 74h-209v97l125 169q19 29 44 65l25 37h144v-264h50v-104h-50v-74h-129v74zM758 178v69q0 27 1 46l-26 -39l-29 -43q-3 -4 -10 -14t-12 -19h76zM313 0l274 715h133l-274 -715h-133zM182 572h-141q1 70 49.5 112t130.5 42q83 0 129.5 -35t46.5 -91q0 -58 -50 -92
q69 -40 69 -103q0 -66 -53 -105t-143 -39q-92 0 -142.5 43.5t-52.5 125.5h142q5 -59 55 -59q48 0 48 42q0 43 -73 43h-29v93h15q70 0 70 39q0 29 -33 29q-36 0 -38 -45z" />
    <glyph glyph-name="questiondown" unicode="&#xbf;" horiz-adv-x="634" 
d="M381 54h232q-2 -117 -75.5 -189t-225.5 -72q-146 0 -218 56t-72 150q0 58 27 102.5t81 84.5l16 11q29 22 41 33t20.5 32.5t8.5 54.5h223q0 -50 -14 -86t-33 -57t-58 -54l-40 -33q-32 -27 -32 -60q0 -22 15 -35.5t41 -13.5q63 0 63 76zM216 361v164h224v-164h-224z" />
    <glyph glyph-name="Agrave" unicode="&#xc0;" horiz-adv-x="774" 
d="M236 0h-260q129 362 261 715h303q140 -393 258 -715h-265l-43 130h-212zM326 314h116q-9 33 -29 101t-28 97h-3q-1 -5 -56 -198zM517 752h-239l-134 125h279z" />
    <glyph glyph-name="Aacute" unicode="&#xc1;" horiz-adv-x="774" 
d="M236 0h-260q129 362 261 715h303q140 -393 258 -715h-265l-43 130h-212zM326 314h116q-9 33 -29 101t-28 97h-3q-1 -5 -56 -198zM498 752h-239l94 125h279z" />
    <glyph glyph-name="Acircumflex" unicode="&#xc2;" horiz-adv-x="774" 
d="M236 0h-260q129 362 261 715h303q140 -393 258 -715h-265l-43 130h-212zM326 314h116q-9 33 -29 101t-28 97h-3q-1 -5 -56 -198zM272 877h232l103 -125h-181l-37 39l-38 -39h-180z" />
    <glyph glyph-name="Atilde" unicode="&#xc3;" horiz-adv-x="774" 
d="M236 0h-260q129 362 261 715h303q140 -393 258 -715h-265l-43 130h-212zM326 314h116q-9 33 -29 101t-28 97h-3q-1 -5 -56 -198zM327 752h-130q0 67 31 105.5t90 38.5q35 0 77 -20q27 -14 39 -14q20 0 21 26h129q0 -67 -31.5 -105.5t-88.5 -38.5q-39 0 -77 20
q-27 14 -38 14q-10 0 -15.5 -5t-6.5 -21z" />
    <glyph glyph-name="Adieresis" unicode="&#xc4;" horiz-adv-x="774" 
d="M236 0h-260q129 362 261 715h303q140 -393 258 -715h-265l-43 130h-212zM326 314h116q-9 33 -29 101t-28 97h-3q-1 -5 -56 -198zM195 752v125h166v-125h-166zM406 752v125h165v-125h-165z" />
    <glyph glyph-name="Aring" unicode="&#xc5;" horiz-adv-x="774" 
d="M236 0h-260q129 362 261 715h303q140 -393 258 -715h-265l-43 130h-212zM326 314h116q-9 33 -29 101t-28 97h-3q-1 -5 -56 -198zM383 738q-50 0 -85 35.5t-35 86.5q0 49 35.5 84.5t85.5 35.5t85.5 -35.5t35.5 -84.5q0 -51 -35.5 -86.5t-86.5 -35.5zM351 860
q0 -14 9.5 -23.5t22.5 -9.5q14 0 23 9.5t9 23.5q0 12 -9 21.5t-23 9.5q-13 0 -22.5 -9.5t-9.5 -21.5z" />
    <glyph glyph-name="AE" unicode="&#xc6;" horiz-adv-x="1091" 
d="M770 267v-84h289v-183h-539l-4 130h-212l-71 -130h-264l415 715h672v-186h-286v-74h260v-188h-260zM396 314h112q-2 47 -2 109.5t-1 97.5h-1q-34 -68 -108 -207z" />
    <glyph glyph-name="Ccedilla" unicode="&#xc7;" horiz-adv-x="769" 
d="M765 454h-266q-22 85 -100 85q-59 0 -88 -48t-29 -135q0 -83 29 -129.5t88 -46.5q71 0 95 65h266q-60 -258 -359 -258q-178 0 -280.5 98.5t-102.5 271.5q0 170 104.5 270.5t279.5 100.5q153 0 244.5 -73t118.5 -201zM182 -163l100 119h243l-78 -119h-265z" />
    <glyph glyph-name="Egrave" unicode="&#xc8;" horiz-adv-x="640" 
d="M304 267v-84h304v-183h-562v715h559v-186h-301v-74h275v-188h-275zM475 752h-239l-134 125h279z" />
    <glyph glyph-name="Eacute" unicode="&#xc9;" horiz-adv-x="640" 
d="M304 267v-84h304v-183h-562v715h559v-186h-301v-74h275v-188h-275zM417 752h-239l94 125h279z" />
    <glyph glyph-name="Ecircumflex" unicode="&#xca;" horiz-adv-x="640" 
d="M304 267v-84h304v-183h-562v715h559v-186h-301v-74h275v-188h-275zM211 877h232l103 -125h-181l-37 39l-38 -39h-180z" />
    <glyph glyph-name="Edieresis" unicode="&#xcb;" horiz-adv-x="640" 
d="M304 267v-84h304v-183h-562v715h559v-186h-301v-74h275v-188h-275zM137 752v125h166v-125h-166zM348 752v125h165v-125h-165z" />
    <glyph glyph-name="Igrave" unicode="&#xcc;" horiz-adv-x="358" 
d="M312 0h-266v715h266v-715zM298 752h-239l-134 125h279z" />
    <glyph glyph-name="Iacute" unicode="&#xcd;" horiz-adv-x="358" 
d="M312 0h-266v715h266v-715zM292 752h-239l94 125h279z" />
    <glyph glyph-name="Icircumflex" unicode="&#xce;" horiz-adv-x="358" 
d="M312 0h-266v715h266v-715zM64 877h232l103 -125h-181l-37 39l-38 -39h-180z" />
    <glyph glyph-name="Idieresis" unicode="&#xcf;" horiz-adv-x="358" 
d="M312 0h-266v715h266v-715zM-8 752v125h166v-125h-166zM203 752v125h165v-125h-165z" />
    <glyph glyph-name="Eth" unicode="&#xd0;" horiz-adv-x="791" 
d="M4 265v196h50v254h269h30h30t27.5 -0.5t28.5 -1t25.5 -2t27 -3.5t25 -5t27 -6.5t25 -9t26.5 -11.5q177 -86 177 -313q0 -99 -38.5 -181t-103.5 -123q-60 -35 -128.5 -47t-179.5 -12h-268v265h-50zM312 530v-69h62v-196h-62v-79h34q84 0 121.5 40.5t37.5 132.5
q0 89 -35 130t-122 41h-36z" />
    <glyph glyph-name="Ntilde" unicode="&#xd1;" horiz-adv-x="822" 
d="M776 715v-715h-321l-81 178q-65 144 -87 217h-2q4 -72 4 -150v-245h-243v715h335l81 -198q27 -62 73 -182h2q-4 68 -4 227v153h243zM354 752h-130q0 67 31 105.5t90 38.5q35 0 77 -20q27 -14 39 -14q20 0 21 26h129q0 -67 -31.5 -105.5t-88.5 -38.5q-39 0 -77 20
q-27 14 -38 14q-10 0 -15.5 -5t-6.5 -21z" />
    <glyph glyph-name="Ograve" unicode="&#xd2;" horiz-adv-x="803" 
d="M401 728q176 0 280 -100.5t104 -270.5q0 -173 -103 -271.5t-282 -98.5q-177 0 -279.5 98.5t-102.5 271.5q0 170 103.5 270.5t279.5 100.5zM401 180q58 0 87 46.5t29 130.5q0 87 -29 134.5t-87 47.5q-59 0 -88 -48t-29 -135q0 -83 29 -129.5t88 -46.5zM548 752h-239
l-134 125h279z" />
    <glyph glyph-name="Oacute" unicode="&#xd3;" horiz-adv-x="803" 
d="M401 728q176 0 280 -100.5t104 -270.5q0 -173 -103 -271.5t-282 -98.5q-177 0 -279.5 98.5t-102.5 271.5q0 170 103.5 270.5t279.5 100.5zM401 180q58 0 87 46.5t29 130.5q0 87 -29 134.5t-87 47.5q-59 0 -88 -48t-29 -135q0 -83 29 -129.5t88 -46.5zM494 752h-239
l94 125h279z" />
    <glyph glyph-name="Ocircumflex" unicode="&#xd4;" horiz-adv-x="803" 
d="M401 728q176 0 280 -100.5t104 -270.5q0 -173 -103 -271.5t-282 -98.5q-177 0 -279.5 98.5t-102.5 271.5q0 170 103.5 270.5t279.5 100.5zM401 180q58 0 87 46.5t29 130.5q0 87 -29 134.5t-87 47.5q-59 0 -88 -48t-29 -135q0 -83 29 -129.5t88 -46.5zM284 877h232
l103 -125h-181l-37 39l-38 -39h-180z" />
    <glyph glyph-name="Otilde" unicode="&#xd5;" horiz-adv-x="803" 
d="M401 728q176 0 280 -100.5t104 -270.5q0 -173 -103 -271.5t-282 -98.5q-177 0 -279.5 98.5t-102.5 271.5q0 170 103.5 270.5t279.5 100.5zM401 180q58 0 87 46.5t29 130.5q0 87 -29 134.5t-87 47.5q-59 0 -88 -48t-29 -135q0 -83 29 -129.5t88 -46.5zM334 752h-130
q0 67 31 105.5t90 38.5q35 0 77 -20q27 -14 39 -14q20 0 21 26h129q0 -67 -31.5 -105.5t-88.5 -38.5q-39 0 -77 20q-27 14 -38 14q-10 0 -15.5 -5t-6.5 -21z" />
    <glyph glyph-name="Odieresis" unicode="&#xd6;" horiz-adv-x="803" 
d="M401 728q176 0 280 -100.5t104 -270.5q0 -173 -103 -271.5t-282 -98.5q-177 0 -279.5 98.5t-102.5 271.5q0 170 103.5 270.5t279.5 100.5zM401 180q58 0 87 46.5t29 130.5q0 87 -29 134.5t-87 47.5q-59 0 -88 -48t-29 -135q0 -83 29 -129.5t88 -46.5zM215 752v125h166
v-125h-166zM426 752v125h165v-125h-165z" />
    <glyph glyph-name="multiply" unicode="&#xd7;" 
d="M453 579l139 -139l-122 -122l120 -120l-137 -137l-120 120l-120 -120l-139 139l120 120l-120 120l137 137l120 -120z" />
    <glyph glyph-name="Oslash" unicode="&#xd8;" horiz-adv-x="803" 
d="M401 728q38 0 87 -7l41 72l183 -97l-37 -64q110 -99 110 -275q0 -173 -103 -271.5t-282 -98.5q-40 0 -89 7l-43 -77l-183 97l39 68q-106 100 -106 275q0 170 103.5 270.5t279.5 100.5zM517 357v9l-106 -186q106 10 106 177zM284 356v-3l106 185q-106 -10 -106 -182z" />
    <glyph glyph-name="Ugrave" unicode="&#xd9;" horiz-adv-x="760" 
d="M381 -15q-229 0 -302 129q-40 70 -40 196v405h270v-420q0 -29 5 -49q13 -46 67 -46q55 0 68 46q5 20 5 49v420h267v-405q0 -126 -40 -196q-73 -129 -300 -129zM527 752h-239l-134 125h279z" />
    <glyph glyph-name="Uacute" unicode="&#xda;" horiz-adv-x="760" 
d="M381 -15q-229 0 -302 129q-40 70 -40 196v405h270v-420q0 -29 5 -49q13 -46 67 -46q55 0 68 46q5 20 5 49v420h267v-405q0 -126 -40 -196q-73 -129 -300 -129zM478 752h-239l94 125h279z" />
    <glyph glyph-name="Ucircumflex" unicode="&#xdb;" horiz-adv-x="760" 
d="M381 -15q-229 0 -302 129q-40 70 -40 196v405h270v-420q0 -29 5 -49q13 -46 67 -46q55 0 68 46q5 20 5 49v420h267v-405q0 -126 -40 -196q-73 -129 -300 -129zM265 877h232l103 -125h-181l-37 39l-38 -39h-180z" />
    <glyph glyph-name="Udieresis" unicode="&#xdc;" horiz-adv-x="760" 
d="M381 -15q-229 0 -302 129q-40 70 -40 196v405h270v-420q0 -29 5 -49q13 -46 67 -46q55 0 68 46q5 20 5 49v420h267v-405q0 -126 -40 -196q-73 -129 -300 -129zM194 752v125h166v-125h-166zM405 752v125h165v-125h-165z" />
    <glyph glyph-name="Yacute" unicode="&#xdd;" horiz-adv-x="680" 
d="M431 715h274q-58 -112 -138 -272q-41 -79 -96 -188v-255h-264v255q-39 76 -84 170l-144 290h281q15 -37 46 -117.5t39 -100.5h2q10 25 37.5 98t46.5 120zM441 752h-239l94 125h279z" />
    <glyph glyph-name="Thorn" unicode="&#xde;" horiz-adv-x="680" 
d="M46 714h253v-101h43q55 0 80 -1q122 -4 190.5 -70t68.5 -176q0 -125 -87 -192q-42 -32 -98 -42.5t-145 -10.5h-52v-121h-253v714zM304 427v-115h46q73 0 73 58q0 57 -76 57h-43z" />
    <glyph glyph-name="germandbls" unicode="&#xdf;" horiz-adv-x="637" 
d="M304 -1v167q81 0 81 81q0 74 -81 74v144q63 0 63 61q0 50 -45 50q-23 0 -35 -16q-11 -17 -11 -49v-511h-237v458q0 76 15.5 122.5t49.5 79.5q68 64 218 64q132 0 198 -49t66 -131q0 -98 -75 -145q109 -55 109 -177q0 -113 -72 -169.5t-189 -56.5q-33 0 -55 3z" />
    <glyph glyph-name="agrave" unicode="&#xe0;" horiz-adv-x="594" 
d="M573 4v-4h-196q-3 20 -3 52h-2q-53 -63 -166 -63q-91 0 -142.5 42t-51.5 117q0 61 40.5 98t119.5 58q65 18 176 27q0 65 -53 65q-50 0 -55 -51h-208q7 94 77 145.5t188 51.5q131 0 198 -53.5t67 -182.5v-150q0 -124 11 -152zM347 212l-26 -4q-58 -9 -76.5 -20t-18.5 -33
q0 -18 13.5 -28.5t36.5 -10.5q71 0 71 79v17zM463 579h-233l-144 136h279z" />
    <glyph glyph-name="aacute" unicode="&#xe1;" horiz-adv-x="594" 
d="M573 4v-4h-196q-3 20 -3 52h-2q-53 -63 -166 -63q-91 0 -142.5 42t-51.5 117q0 61 40.5 98t119.5 58q65 18 176 27q0 65 -53 65q-50 0 -55 -51h-208q7 94 77 145.5t188 51.5q131 0 198 -53.5t67 -182.5v-150q0 -124 11 -152zM347 212l-26 -4q-58 -9 -76.5 -20t-18.5 -33
q0 -18 13.5 -28.5t36.5 -10.5q71 0 71 79v17zM390 579h-233l97 136h279z" />
    <glyph glyph-name="acircumflex" unicode="&#xe2;" horiz-adv-x="594" 
d="M573 4v-4h-196q-3 20 -3 52h-2q-53 -63 -166 -63q-91 0 -142.5 42t-51.5 117q0 61 40.5 98t119.5 58q65 18 176 27q0 65 -53 65q-50 0 -55 -51h-208q7 94 77 145.5t188 51.5q131 0 198 -53.5t67 -182.5v-150q0 -124 11 -152zM347 212l-26 -4q-58 -9 -76.5 -20t-18.5 -33
q0 -18 13.5 -28.5t36.5 -10.5q71 0 71 79v17zM180 715h238l108 -136h-186l-40 43l-40 -43h-185z" />
    <glyph glyph-name="atilde" unicode="&#xe3;" horiz-adv-x="594" 
d="M573 4v-4h-196q-3 20 -3 52h-2q-53 -63 -166 -63q-91 0 -142.5 42t-51.5 117q0 61 40.5 98t119.5 58q65 18 176 27q0 65 -53 65q-50 0 -55 -51h-208q7 94 77 145.5t188 51.5q131 0 198 -53.5t67 -182.5v-150q0 -124 11 -152zM347 212l-26 -4q-58 -9 -76.5 -20t-18.5 -33
q0 -18 13.5 -28.5t36.5 -10.5q71 0 71 79v17zM246 579h-130q0 67 31 105.5t90 38.5q35 0 77 -20q27 -14 39 -14q20 0 21 26h129q0 -67 -31.5 -105.5t-88.5 -38.5q-39 0 -77 20q-27 14 -38 14q-10 0 -15.5 -5t-6.5 -21z" />
    <glyph glyph-name="adieresis" unicode="&#xe4;" horiz-adv-x="594" 
d="M573 4v-4h-196q-3 20 -3 52h-2q-53 -63 -166 -63q-91 0 -142.5 42t-51.5 117q0 61 40.5 98t119.5 58q65 18 176 27q0 65 -53 65q-50 0 -55 -51h-208q7 94 77 145.5t188 51.5q131 0 198 -53.5t67 -182.5v-150q0 -124 11 -152zM347 212l-26 -4q-58 -9 -76.5 -20t-18.5 -33
q0 -18 13.5 -28.5t36.5 -10.5q71 0 71 79v17zM111 579v136h166v-136h-166zM322 579v136h165v-136h-165z" />
    <glyph glyph-name="aring" unicode="&#xe5;" horiz-adv-x="594" 
d="M573 4v-4h-196q-3 20 -3 52h-2q-53 -63 -166 -63q-91 0 -142.5 42t-51.5 117q0 61 40.5 98t119.5 58q65 18 176 27q0 65 -53 65q-50 0 -55 -51h-208q7 94 77 145.5t188 51.5q131 0 198 -53.5t67 -182.5v-150q0 -124 11 -152zM347 212l-26 -4q-58 -9 -76.5 -20t-18.5 -33
q0 -18 13.5 -28.5t36.5 -10.5q71 0 71 79v17zM305 564q-50 0 -85 35.5t-35 86.5q0 49 35.5 84.5t85.5 35.5t85.5 -35.5t35.5 -84.5q0 -51 -35.5 -86.5t-86.5 -35.5zM273 686q0 -14 9.5 -23.5t22.5 -9.5q14 0 23 9.5t9 23.5q0 12 -9 21.5t-23 9.5q-13 0 -22.5 -9.5
t-9.5 -21.5z" />
    <glyph glyph-name="ae" unicode="&#xe6;" horiz-adv-x="934" 
d="M691 180l231 -1q-28 -87 -104.5 -141t-197.5 -54q-125 0 -202 71q-75 -66 -207 -66q-95 0 -147 42t-52 117q0 61 40.5 98t119.5 58q65 18 176 27q0 65 -53 65q-50 0 -55 -51h-208q7 94 77 145.5t188 51.5q101 0 170 -44q78 45 171 45q136 0 211.5 -78t75.5 -222
q0 -4 -0.5 -9t-0.5 -7v-7h-369q5 -80 70 -80q47 0 66 40zM347 212l-26 -4q-58 -9 -76.5 -20t-18.5 -33q0 -18 13.5 -28.5t36.5 -10.5q71 0 71 79v17zM557 331h139q-8 71 -67 71q-64 0 -72 -71z" />
    <glyph glyph-name="ccedilla" unicode="&#xe7;" horiz-adv-x="603" 
d="M368 198h228q-16 -97 -91 -155.5t-198 -58.5q-137 0 -214 76.5t-77 201.5q0 126 79 203.5t217 77.5q116 0 191 -59t91 -159h-226q-6 32 -19 47.5t-38 15.5q-34 0 -48.5 -31t-14.5 -94q0 -66 13.5 -95t50.5 -29q25 0 37 14t19 45zM102 -163l100 119h243l-75 -119h-268z
" />
    <glyph glyph-name="egrave" unicode="&#xe8;" horiz-adv-x="619" 
d="M376 180l231 -1q-28 -87 -104.5 -141t-197.5 -54q-134 0 -211.5 76t-77.5 205q0 125 81 201.5t220 76.5q141 0 217 -78t76 -222q0 -4 -0.5 -9t-0.5 -7v-7h-369q5 -80 70 -80q47 0 66 40zM242 331h139q-8 71 -67 71q-64 0 -72 -71zM461 579h-233l-144 136h279z" />
    <glyph glyph-name="eacute" unicode="&#xe9;" horiz-adv-x="619" 
d="M376 180l231 -1q-28 -87 -104.5 -141t-197.5 -54q-134 0 -211.5 76t-77.5 205q0 125 81 201.5t220 76.5q141 0 217 -78t76 -222q0 -4 -0.5 -9t-0.5 -7v-7h-369q5 -80 70 -80q47 0 66 40zM242 331h139q-8 71 -67 71q-64 0 -72 -71zM405 579h-233l97 136h279z" />
    <glyph glyph-name="ecircumflex" unicode="&#xea;" horiz-adv-x="619" 
d="M376 180l231 -1q-28 -87 -104.5 -141t-197.5 -54q-134 0 -211.5 76t-77.5 205q0 125 81 201.5t220 76.5q141 0 217 -78t76 -222q0 -4 -0.5 -9t-0.5 -7v-7h-369q5 -80 70 -80q47 0 66 40zM242 331h139q-8 71 -67 71q-64 0 -72 -71zM198 715h238l108 -136h-186l-40 43
l-40 -43h-185z" />
    <glyph glyph-name="edieresis" unicode="&#xeb;" horiz-adv-x="619" 
d="M376 180l231 -1q-28 -87 -104.5 -141t-197.5 -54q-134 0 -211.5 76t-77.5 205q0 125 81 201.5t220 76.5q141 0 217 -78t76 -222q0 -4 -0.5 -9t-0.5 -7v-7h-369q5 -80 70 -80q47 0 66 40zM242 331h139q-8 71 -67 71q-64 0 -72 -71zM130 579v136h166v-136h-166zM341 579
v136h165v-136h-165z" />
    <glyph glyph-name="igrave" unicode="&#xec;" horiz-adv-x="317" 
d="M278 0h-239v525h239v-525zM281 579h-233l-144 136h279z" />
    <glyph glyph-name="iacute" unicode="&#xed;" horiz-adv-x="317" 
d="M278 0h-239v525h239v-525zM276 579h-233l97 136h279z" />
    <glyph glyph-name="icircumflex" unicode="&#xee;" horiz-adv-x="317" 
d="M278 0h-239v525h239v-525zM39 715h238l108 -136h-186l-40 43l-40 -43h-185z" />
    <glyph glyph-name="idieresis" unicode="&#xef;" horiz-adv-x="317" 
d="M278 0h-239v525h239v-525zM-26 579v136h166v-136h-166zM185 579v136h165v-136h-165z" />
    <glyph glyph-name="eth" unicode="&#xf0;" horiz-adv-x="632" 
d="M33 715h320l11 -8l56 25l81 -73l-47 -21q158 -144 158 -347q0 -154 -80.5 -230.5t-221.5 -76.5q-140 0 -217 74.5t-77 204.5t77 203.5t183 73.5q16 0 26 -2l2 2l-23 23l-54 -24l-91 68l54 24q-57 35 -157 84zM311 387q-62 0 -62 -124q0 -63 14 -93t49 -30t48.5 29.5
t13.5 92.5q0 125 -63 125z" />
    <glyph glyph-name="ntilde" unicode="&#xf1;" horiz-adv-x="658" 
d="M38 525h225v-59h2q51 73 165 73q119 0 166 -84q17 -31 22.5 -67.5t5.5 -108.5v-279h-240v268q0 53 -11 76t-39 23q-30 0 -42.5 -25.5t-12.5 -86.5v-255h-240v438q0 58 -1 87zM284 579h-130q0 67 31 105.5t90 38.5q35 0 77 -20q27 -14 39 -14q20 0 21 26h129
q0 -67 -31.5 -105.5t-88.5 -38.5q-39 0 -77 20q-27 14 -38 14q-10 0 -15.5 -5t-6.5 -21z" />
    <glyph glyph-name="ograve" unicode="&#xf2;" horiz-adv-x="624" 
d="M311 543q139 0 218 -77t79 -204q0 -125 -78.5 -201.5t-217.5 -76.5q-140 0 -218 76t-78 203q0 126 78.5 203t216.5 77zM310 387q-62 0 -62 -124q0 -63 14 -93t49 -30t48.5 29.5t13.5 92.5q0 125 -63 125zM451 579h-233l-144 136h279z" />
    <glyph glyph-name="oacute" unicode="&#xf3;" horiz-adv-x="624" 
d="M311 543q139 0 218 -77t79 -204q0 -125 -78.5 -201.5t-217.5 -76.5q-140 0 -218 76t-78 203q0 126 78.5 203t216.5 77zM310 387q-62 0 -62 -124q0 -63 14 -93t49 -30t48.5 29.5t13.5 92.5q0 125 -63 125zM411 579h-233l97 136h279z" />
    <glyph glyph-name="ocircumflex" unicode="&#xf4;" horiz-adv-x="624" 
d="M311 543q139 0 218 -77t79 -204q0 -125 -78.5 -201.5t-217.5 -76.5q-140 0 -218 76t-78 203q0 126 78.5 203t216.5 77zM310 387q-62 0 -62 -124q0 -63 14 -93t49 -30t48.5 29.5t13.5 92.5q0 125 -63 125zM192 715h238l108 -136h-186l-40 43l-40 -43h-185z" />
    <glyph glyph-name="otilde" unicode="&#xf5;" horiz-adv-x="624" 
d="M311 543q139 0 218 -77t79 -204q0 -125 -78.5 -201.5t-217.5 -76.5q-140 0 -218 76t-78 203q0 126 78.5 203t216.5 77zM310 387q-62 0 -62 -124q0 -63 14 -93t49 -30t48.5 29.5t13.5 92.5q0 125 -63 125zM246 579h-130q0 67 31 105.5t90 38.5q35 0 77 -20q27 -14 39 -14
q20 0 21 26h129q0 -67 -31.5 -105.5t-88.5 -38.5q-39 0 -77 20q-27 14 -38 14q-10 0 -15.5 -5t-6.5 -21z" />
    <glyph glyph-name="odieresis" unicode="&#xf6;" horiz-adv-x="624" 
d="M311 543q139 0 218 -77t79 -204q0 -125 -78.5 -201.5t-217.5 -76.5q-140 0 -218 76t-78 203q0 126 78.5 203t216.5 77zM310 387q-62 0 -62 -124q0 -63 14 -93t49 -30t48.5 29.5t13.5 92.5q0 125 -63 125zM124 579v136h166v-136h-166zM335 579v136h165v-136h-165z" />
    <glyph glyph-name="divide" unicode="&#xf7;" 
d="M83 218v194h498v-194h-498zM219 43v147h225v-147h-225zM219 439v147h225v-147h-225z" />
    <glyph glyph-name="oslash" unicode="&#xf8;" horiz-adv-x="624" 
d="M311 543q32 0 57 -4l36 63l153 -77l-32 -56q83 -74 83 -207q0 -125 -78.5 -201.5t-217.5 -76.5q-35 0 -60 4l-33 -59l-153 79l29 51q-79 74 -79 204q0 126 78.5 203t216.5 77zM308 140h3q34 0 47.5 27.5t14.5 85.5zM312 387h-2q-60 0 -62 -114z" />
    <glyph glyph-name="ugrave" unicode="&#xf9;" horiz-adv-x="657" 
d="M619 0h-225v59h-2q-51 -73 -165 -73q-118 0 -165 84q-17 31 -22.5 67.5t-5.5 108.5v279h240v-268q0 -53 11 -76t39 -23q30 0 42 25.5t12 86.5v255h240v-438q0 -58 1 -87zM471 579h-233l-144 136h279z" />
    <glyph glyph-name="uacute" unicode="&#xfa;" horiz-adv-x="657" 
d="M619 0h-225v59h-2q-51 -73 -165 -73q-118 0 -165 84q-17 31 -22.5 67.5t-5.5 108.5v279h240v-268q0 -53 11 -76t39 -23q30 0 42 25.5t12 86.5v255h240v-438q0 -58 1 -87zM420 579h-233l97 136h279z" />
    <glyph glyph-name="ucircumflex" unicode="&#xfb;" horiz-adv-x="657" 
d="M619 0h-225v59h-2q-51 -73 -165 -73q-118 0 -165 84q-17 31 -22.5 67.5t-5.5 108.5v279h240v-268q0 -53 11 -76t39 -23q30 0 42 25.5t12 86.5v255h240v-438q0 -58 1 -87zM207 715h238l108 -136h-186l-40 43l-40 -43h-185z" />
    <glyph glyph-name="udieresis" unicode="&#xfc;" horiz-adv-x="657" 
d="M619 0h-225v59h-2q-51 -73 -165 -73q-118 0 -165 84q-17 31 -22.5 67.5t-5.5 108.5v279h240v-268q0 -53 11 -76t39 -23q30 0 42 25.5t12 86.5v255h240v-438q0 -58 1 -87zM137 579v136h166v-136h-166zM348 579v136h165v-136h-165z" />
    <glyph glyph-name="yacute" unicode="&#xfd;" horiz-adv-x="632" 
d="M382 525h263q-33 -91 -130.5 -365t-121.5 -340h-276q4 11 30 81.5t34 96.5q-139 361 -194 527h263l62 -249h5q12 48 34.5 133t30.5 116zM406 579h-233l97 136h279z" />
    <glyph glyph-name="thorn" unicode="&#xfe;" horiz-adv-x="678" 
d="M39 714h240v-147q0 -13 -0.5 -49t-0.5 -42q51 64 154 64q105 0 166.5 -72.5t61.5 -200.5q0 -126 -64 -202.5t-171 -76.5q-102 0 -150 65q4 -48 4 -95v-138h-240v894zM342 383q-62 0 -62 -119q0 -118 63 -118q65 0 65 117q0 120 -66 120z" />
    <glyph glyph-name="ydieresis" unicode="&#xff;" horiz-adv-x="632" 
d="M382 525h263q-33 -91 -130.5 -365t-121.5 -340h-276q4 11 30 81.5t34 96.5q-139 361 -194 527h263l62 -249h5q12 48 34.5 133t30.5 116zM134 579v136h166v-136h-166zM345 579v136h165v-136h-165z" />
    <glyph glyph-name="Amacron" unicode="&#x100;" horiz-adv-x="774" 
d="M236 0h-260q129 362 261 715h303q140 -393 258 -715h-265l-43 130h-212zM326 314h116q-9 33 -29 101t-28 97h-3q-1 -5 -56 -198zM248 752v125h273v-125h-273z" />
    <glyph glyph-name="amacron" unicode="&#x101;" horiz-adv-x="594" 
d="M573 4v-4h-196q-3 20 -3 52h-2q-53 -63 -166 -63q-91 0 -142.5 42t-51.5 117q0 61 40.5 98t119.5 58q65 18 176 27q0 65 -53 65q-50 0 -55 -51h-208q7 94 77 145.5t188 51.5q131 0 198 -53.5t67 -182.5v-150q0 -124 11 -152zM347 212l-26 -4q-58 -9 -76.5 -20t-18.5 -33
q0 -18 13.5 -28.5t36.5 -10.5q71 0 71 79v17zM161 578v137h273v-137h-273z" />
    <glyph glyph-name="Abreve" unicode="&#x102;" horiz-adv-x="774" 
d="M236 0h-260q129 362 261 715h303q140 -393 258 -715h-265l-43 130h-212zM326 314h116q-9 33 -29 101t-28 97h-3q-1 -5 -56 -198zM385 746q-150 0 -160 137h124q5 -29 36 -29q29 0 35 29h124q-12 -137 -159 -137z" />
    <glyph glyph-name="abreve" unicode="&#x103;" horiz-adv-x="594" 
d="M573 4v-4h-196q-3 20 -3 52h-2q-53 -63 -166 -63q-91 0 -142.5 42t-51.5 117q0 61 40.5 98t119.5 58q65 18 176 27q0 65 -53 65q-50 0 -55 -51h-208q7 94 77 145.5t188 51.5q131 0 198 -53.5t67 -182.5v-150q0 -124 11 -152zM347 212l-26 -4q-58 -9 -76.5 -20t-18.5 -33
q0 -18 13.5 -28.5t36.5 -10.5q71 0 71 79v17zM307 566q-75 0 -118 38.5t-49 110.5h130q5 -30 37 -30q31 0 37 30h129q-7 -72 -49.5 -110.5t-116.5 -38.5z" />
    <glyph glyph-name="Aogonek" unicode="&#x104;" horiz-adv-x="774" 
d="M236 0h-260q129 362 261 715h303q140 -393 258 -715h-265l-43 130h-212zM326 314h116q-9 33 -29 101t-28 97h-3q-1 -5 -56 -198zM778 -44l100 -119h-265l-78 119h243z" />
    <glyph glyph-name="aogonek" unicode="&#x105;" horiz-adv-x="594" 
d="M573 4v-4h-196q-3 20 -3 52h-2q-53 -63 -166 -63q-91 0 -142.5 42t-51.5 117q0 61 40.5 98t119.5 58q65 18 176 27q0 65 -53 65q-50 0 -55 -51h-208q7 94 77 145.5t188 51.5q131 0 198 -53.5t67 -182.5v-150q0 -124 11 -152zM347 212l-26 -4q-58 -9 -76.5 -20t-18.5 -33
q0 -18 13.5 -28.5t36.5 -10.5q71 0 71 79v17zM573 -44l100 -119h-265l-78 119h243z" />
    <glyph glyph-name="Cacute" unicode="&#x106;" horiz-adv-x="769" 
d="M765 454h-266q-22 85 -100 85q-59 0 -88 -48t-29 -135q0 -83 29 -129.5t88 -46.5q71 0 95 65h266q-60 -258 -359 -258q-178 0 -280.5 98.5t-102.5 271.5q0 170 104.5 270.5t279.5 100.5q153 0 244.5 -73t118.5 -201zM503 752h-239l94 125h279z" />
    <glyph glyph-name="cacute" unicode="&#x107;" horiz-adv-x="603" 
d="M368 198h228q-16 -97 -91 -155.5t-198 -58.5q-137 0 -214 76.5t-77 201.5q0 126 79 203.5t217 77.5q116 0 191 -59t91 -159h-226q-6 32 -19 47.5t-38 15.5q-34 0 -48.5 -31t-14.5 -94q0 -66 13.5 -95t50.5 -29q25 0 37 14t19 45zM403 579h-233l97 136h279z" />
    <glyph glyph-name="Ccircumflex" unicode="&#x108;" horiz-adv-x="769" 
d="M765 454h-266q-22 85 -100 85q-59 0 -88 -48t-29 -135q0 -83 29 -129.5t88 -46.5q71 0 95 65h266q-60 -258 -359 -258q-178 0 -280.5 98.5t-102.5 271.5q0 170 104.5 270.5t279.5 100.5q153 0 244.5 -73t118.5 -201zM284 877h232l103 -125h-181l-37 39l-38 -39h-180z" />
    <glyph glyph-name="ccircumflex" unicode="&#x109;" horiz-adv-x="603" 
d="M368 198h228q-16 -97 -91 -155.5t-198 -58.5q-137 0 -214 76.5t-77 201.5q0 126 79 203.5t217 77.5q116 0 191 -59t91 -159h-226q-6 32 -19 47.5t-38 15.5q-34 0 -48.5 -31t-14.5 -94q0 -66 13.5 -95t50.5 -29q25 0 37 14t19 45zM191 715h238l108 -136h-186l-40 43
l-40 -43h-185z" />
    <glyph glyph-name="Cdotaccent" unicode="&#x10a;" horiz-adv-x="769" 
d="M765 454h-266q-22 85 -100 85q-59 0 -88 -48t-29 -135q0 -83 29 -129.5t88 -46.5q71 0 95 65h266q-60 -258 -359 -258q-178 0 -280.5 98.5t-102.5 271.5q0 170 104.5 270.5t279.5 100.5q153 0 244.5 -73t118.5 -201zM311 752v125h174v-125h-174z" />
    <glyph glyph-name="cdotaccent" unicode="&#x10b;" horiz-adv-x="603" 
d="M368 198h228q-16 -97 -91 -155.5t-198 -58.5q-137 0 -214 76.5t-77 201.5q0 126 79 203.5t217 77.5q116 0 191 -59t91 -159h-226q-6 32 -19 47.5t-38 15.5q-34 0 -48.5 -31t-14.5 -94q0 -66 13.5 -95t50.5 -29q25 0 37 14t19 45zM223 579v136h174v-136h-174z" />
    <glyph glyph-name="Ccaron" unicode="&#x10c;" horiz-adv-x="769" 
d="M765 454h-266q-22 85 -100 85q-59 0 -88 -48t-29 -135q0 -83 29 -129.5t88 -46.5q71 0 95 65h266q-60 -258 -359 -258q-178 0 -280.5 98.5t-102.5 271.5q0 170 104.5 270.5t279.5 100.5q153 0 244.5 -73t118.5 -201zM514 752h-232l-101 125h180l38 -39l37 39h181z" />
    <glyph glyph-name="ccaron" unicode="&#x10d;" horiz-adv-x="603" 
d="M368 198h228q-16 -97 -91 -155.5t-198 -58.5q-137 0 -214 76.5t-77 201.5q0 126 79 203.5t217 77.5q116 0 191 -59t91 -159h-226q-6 32 -19 47.5t-38 15.5q-34 0 -48.5 -31t-14.5 -94q0 -66 13.5 -95t50.5 -29q25 0 37 14t19 45zM429 579h-238l-105 136h185l40 -43l40 43
h186z" />
    <glyph glyph-name="Dcaron" unicode="&#x10e;" horiz-adv-x="783" 
d="M46 0v715h269h30h30t27.5 -0.5t28.5 -1t25.5 -2t27 -3.5t25 -5t27 -6.5t25 -9t26.5 -11.5q177 -86 177 -313q0 -99 -38.5 -181t-103.5 -123q-60 -35 -128.5 -47t-179.5 -12h-268zM304 530v-344h34q84 0 121.5 40.5t37.5 132.5q0 89 -35 130t-122 41h-36zM483 752h-232
l-101 125h180l38 -39l37 39h181z" />
    <glyph glyph-name="dcaron" unicode="&#x10f;" horiz-adv-x="893" 
d="M638 0h-231v56q-54 -68 -161 -68q-105 0 -166.5 73.5t-61.5 201.5q0 125 63 201t168 76q96 0 150 -64q0 22 -0.5 60t-0.5 41v138h240v-715zM335 145q62 0 62 119q0 118 -63 118t-63 -117q0 -120 64 -120zM992 715l-106 -294h-210l80 294h236z" />
    <glyph glyph-name="Dcroat" unicode="&#x110;" horiz-adv-x="791" 
d="M4 265v196h50v254h269h30h30t27.5 -0.5t28.5 -1t25.5 -2t27 -3.5t25 -5t27 -6.5t25 -9t26.5 -11.5q177 -86 177 -313q0 -99 -38.5 -181t-103.5 -123q-60 -35 -128.5 -47t-179.5 -12h-268v265h-50zM312 530v-69h62v-196h-62v-79h34q84 0 121.5 40.5t37.5 132.5
q0 89 -35 130t-122 41h-36z" />
    <glyph glyph-name="dcroat" unicode="&#x111;" horiz-adv-x="677" 
d="M354 546v145h44v24h240v-24h28v-145h-28v-546h-231v56q-54 -68 -161 -68q-105 0 -166.5 73.5t-61.5 201.5q0 125 63 201t168 76q96 0 150 -64q-1 24 -1 70h-44zM335 145q62 0 62 119q0 118 -63 118t-63 -117q0 -120 64 -120z" />
    <glyph glyph-name="Emacron" unicode="&#x112;" horiz-adv-x="640" 
d="M304 267v-84h304v-183h-562v715h559v-186h-301v-74h275v-188h-275zM192 752v125h273v-125h-273z" />
    <glyph glyph-name="emacron" unicode="&#x113;" horiz-adv-x="619" 
d="M376 180l231 -1q-28 -87 -104.5 -141t-197.5 -54q-134 0 -211.5 76t-77.5 205q0 125 81 201.5t220 76.5q141 0 217 -78t76 -222q0 -4 -0.5 -9t-0.5 -7v-7h-369q5 -80 70 -80q47 0 66 40zM242 331h139q-8 71 -67 71q-64 0 -72 -71zM177 578v137h273v-137h-273z" />
    <glyph glyph-name="Ebreve" unicode="&#x114;" horiz-adv-x="640" 
d="M304 267v-84h304v-183h-562v715h559v-186h-301v-74h275v-188h-275zM334 746q-150 0 -160 137h124q5 -29 36 -29q29 0 35 29h124q-12 -137 -159 -137z" />
    <glyph glyph-name="ebreve" unicode="&#x115;" horiz-adv-x="619" 
d="M376 180l231 -1q-28 -87 -104.5 -141t-197.5 -54q-134 0 -211.5 76t-77.5 205q0 125 81 201.5t220 76.5q141 0 217 -78t76 -222q0 -4 -0.5 -9t-0.5 -7v-7h-369q5 -80 70 -80q47 0 66 40zM242 331h139q-8 71 -67 71q-64 0 -72 -71zM313 566q-75 0 -118 38.5t-49 110.5h130
q5 -30 37 -30q31 0 37 30h129q-7 -72 -49.5 -110.5t-116.5 -38.5z" />
    <glyph glyph-name="Edotaccent" unicode="&#x116;" horiz-adv-x="640" 
d="M304 267v-84h304v-183h-562v715h559v-186h-301v-74h275v-188h-275zM245 752v125h174v-125h-174z" />
    <glyph glyph-name="edotaccent" unicode="&#x117;" horiz-adv-x="619" 
d="M376 180l231 -1q-28 -87 -104.5 -141t-197.5 -54q-134 0 -211.5 76t-77.5 205q0 125 81 201.5t220 76.5q141 0 217 -78t76 -222q0 -4 -0.5 -9t-0.5 -7v-7h-369q5 -80 70 -80q47 0 66 40zM242 331h139q-8 71 -67 71q-64 0 -72 -71zM227 579v136h174v-136h-174z" />
    <glyph glyph-name="Eogonek" unicode="&#x118;" horiz-adv-x="640" 
d="M304 267v-84h304v-183h-562v715h559v-186h-301v-74h275v-188h-275zM420 -44l100 -119h-265l-78 119h243z" />
    <glyph glyph-name="eogonek" unicode="&#x119;" horiz-adv-x="619" 
d="M376 180l231 -1q-28 -87 -104.5 -141t-197.5 -54q-134 0 -211.5 76t-77.5 205q0 125 81 201.5t220 76.5q141 0 217 -78t76 -222q0 -4 -0.5 -9t-0.5 -7v-7h-369q5 -80 70 -80q47 0 66 40zM242 331h139q-8 71 -67 71q-64 0 -72 -71zM416 -44l100 -119h-265l-78 119h243z
" />
    <glyph glyph-name="Ecaron" unicode="&#x11a;" horiz-adv-x="640" 
d="M304 267v-84h304v-183h-562v715h559v-186h-301v-74h275v-188h-275zM446 752h-232l-101 125h180l38 -39l37 39h181z" />
    <glyph glyph-name="ecaron" unicode="&#x11b;" horiz-adv-x="619" 
d="M376 180l231 -1q-28 -87 -104.5 -141t-197.5 -54q-134 0 -211.5 76t-77.5 205q0 125 81 201.5t220 76.5q141 0 217 -78t76 -222q0 -4 -0.5 -9t-0.5 -7v-7h-369q5 -80 70 -80q47 0 66 40zM242 331h139q-8 71 -67 71q-64 0 -72 -71zM430 579h-238l-105 136h185l40 -43
l40 43h186z" />
    <glyph glyph-name="Gcircumflex" unicode="&#x11c;" horiz-adv-x="795" 
d="M765 461h-267q-21 79 -98 79q-57 0 -88 -47.5t-31 -129.5q0 -90 31.5 -137.5t88.5 -47.5q36 0 60.5 17t34.5 44q-54 -2 -64 -2h-68v176h399v-413h-199q0 24 0.5 37t0.5 15q-79 -65 -202 -65q-155 0 -250 98.5t-95 271.5q0 169 106 270t278 101q157 0 247 -73t116 -194z
M289 877h232l103 -125h-181l-37 39l-38 -39h-180z" />
    <glyph glyph-name="gcircumflex" unicode="&#x11d;" horiz-adv-x="677" 
d="M27 3h249q5 -49 57 -49q38 0 54 30.5t16 99.5h-2q-58 -58 -156 -58q-100 0 -163.5 69t-63.5 186q0 111 62.5 185t165.5 74q116 0 163 -68q-3 32 -3 53h232v-470q0 -131 -81 -190.5t-237 -59.5q-274 0 -293 198zM335 164q62 0 62 109q0 108 -63 108t-63 -107
q0 -110 64 -110zM230 715h238l108 -136h-186l-40 43l-40 -43h-185z" />
    <glyph glyph-name="Gbreve" unicode="&#x11e;" horiz-adv-x="795" 
d="M765 461h-267q-21 79 -98 79q-57 0 -88 -47.5t-31 -129.5q0 -90 31.5 -137.5t88.5 -47.5q36 0 60.5 17t34.5 44q-54 -2 -64 -2h-68v176h399v-413h-199q0 24 0.5 37t0.5 15q-79 -65 -202 -65q-155 0 -250 98.5t-95 271.5q0 169 106 270t278 101q157 0 247 -73t116 -194z
M404 746q-150 0 -160 137h124q5 -29 36 -29q29 0 35 29h124q-12 -137 -159 -137z" />
    <glyph glyph-name="gbreve" unicode="&#x11f;" horiz-adv-x="677" 
d="M27 3h249q5 -49 57 -49q38 0 54 30.5t16 99.5h-2q-58 -58 -156 -58q-100 0 -163.5 69t-63.5 186q0 111 62.5 185t165.5 74q116 0 163 -68q-3 32 -3 53h232v-470q0 -131 -81 -190.5t-237 -59.5q-274 0 -293 198zM335 164q62 0 62 109q0 108 -63 108t-63 -107
q0 -110 64 -110zM343 566q-75 0 -118 38.5t-49 110.5h130q5 -30 37 -30q31 0 37 30h129q-7 -72 -49.5 -110.5t-116.5 -38.5z" />
    <glyph glyph-name="Gdotaccent" unicode="&#x120;" horiz-adv-x="795" 
d="M765 461h-267q-21 79 -98 79q-57 0 -88 -47.5t-31 -129.5q0 -90 31.5 -137.5t88.5 -47.5q36 0 60.5 17t34.5 44q-54 -2 -64 -2h-68v176h399v-413h-199q0 24 0.5 37t0.5 15q-79 -65 -202 -65q-155 0 -250 98.5t-95 271.5q0 169 106 270t278 101q157 0 247 -73t116 -194z
M313 752v125h174v-125h-174z" />
    <glyph glyph-name="gdotaccent" unicode="&#x121;" horiz-adv-x="677" 
d="M27 3h249q5 -49 57 -49q38 0 54 30.5t16 99.5h-2q-58 -58 -156 -58q-100 0 -163.5 69t-63.5 186q0 111 62.5 185t165.5 74q116 0 163 -68q-3 32 -3 53h232v-470q0 -131 -81 -190.5t-237 -59.5q-274 0 -293 198zM335 164q62 0 62 109q0 108 -63 108t-63 -107
q0 -110 64 -110zM247 579v136h174v-136h-174z" />
    <glyph glyph-name="Gcommaaccent" unicode="&#x122;" horiz-adv-x="795" 
d="M765 461h-267q-21 79 -98 79q-57 0 -88 -47.5t-31 -129.5q0 -90 31.5 -137.5t88.5 -47.5q36 0 60.5 17t34.5 44q-54 -2 -64 -2h-68v176h399v-413h-199q0 24 0.5 37t0.5 15q-79 -65 -202 -65q-155 0 -250 98.5t-95 271.5q0 169 106 270t278 101q157 0 247 -73t116 -194z
M218 -163l97 119h218l-74 -119h-241z" />
    <glyph glyph-name="gcommaaccent" unicode="&#x123;" horiz-adv-x="677" 
d="M27 3h249q5 -49 57 -49q38 0 54 30.5t16 99.5h-2q-58 -58 -156 -58q-100 0 -163.5 69t-63.5 186q0 111 62.5 185t165.5 74q116 0 163 -68q-3 32 -3 53h232v-470q0 -131 -81 -190.5t-237 -59.5q-274 0 -293 198zM335 164q62 0 62 109q0 108 -63 108t-63 -107
q0 -110 64 -110zM534 715l-97 -119h-218l74 119h241z" />
    <glyph glyph-name="Hcircumflex" unicode="&#x124;" horiz-adv-x="780" 
d="M310 0h-264v715h264v-232h161v232h263v-715h-263v249h-161v-249zM274 877h232l103 -125h-181l-37 39l-38 -39h-180z" />
    <glyph glyph-name="hcircumflex" unicode="&#x125;" horiz-adv-x="658" 
d="M277 485h3q54 54 150 54q119 0 166 -84q17 -31 22.5 -67.5t5.5 -108.5v-279h-240v268q0 53 -11 76t-39 23q-30 0 -42.5 -25.5t-12.5 -86.5v-255h-240v715h240v-109q0 -55 -2 -121zM45 877h232l103 -125h-181l-37 39l-38 -39h-180z" />
    <glyph glyph-name="Hbar" unicode="&#x126;" horiz-adv-x="780" 
d="M310 0h-264v715h264v-39h161v39h263v-715h-263v249h-161v-249zM310 483h161v32h-161v-32z" />
    <glyph glyph-name="hbar" unicode="&#x127;" horiz-adv-x="659" 
d="M323 691v-145h-45q0 -12 -0.5 -32.5t-0.5 -28.5h3q54 54 151 54q119 0 166 -84q17 -31 22.5 -67.5t5.5 -108.5v-279h-241v268q0 53 -11 76t-39 23q-30 0 -42.5 -25.5t-12.5 -86.5v-255h-240v546h-28v145h28v24h240v-24h44z" />
    <glyph glyph-name="Itilde" unicode="&#x128;" horiz-adv-x="358" 
d="M312 0h-266v715h266v-715zM121 752h-130q0 67 31 105.5t90 38.5q35 0 77 -20q27 -14 39 -14q20 0 21 26h129q0 -67 -31.5 -105.5t-88.5 -38.5q-39 0 -77 20q-27 14 -38 14q-10 0 -15.5 -5t-6.5 -21z" />
    <glyph glyph-name="itilde" unicode="&#x129;" horiz-adv-x="317" 
d="M278 0h-239v525h239v-525zM99 579h-130q0 67 31 105.5t90 38.5q35 0 77 -20q27 -14 39 -14q20 0 21 26h129q0 -67 -31.5 -105.5t-88.5 -38.5q-39 0 -77 20q-27 14 -38 14q-10 0 -15.5 -5t-6.5 -21z" />
    <glyph glyph-name="Imacron" unicode="&#x12a;" horiz-adv-x="358" 
d="M312 0h-266v715h266v-715zM44 752v125h273v-125h-273z" />
    <glyph glyph-name="imacron" unicode="&#x12b;" horiz-adv-x="317" 
d="M278 0h-239v525h239v-525zM26 578v137h273v-137h-273z" />
    <glyph glyph-name="Ibreve" unicode="&#x12c;" horiz-adv-x="358" 
d="M312 0h-266v715h266v-715zM185 746q-150 0 -160 137h124q5 -29 36 -29q29 0 35 29h124q-12 -137 -159 -137z" />
    <glyph glyph-name="ibreve" unicode="&#x12d;" horiz-adv-x="317" 
d="M278 0h-239v525h239v-525zM163 566q-75 0 -118 38.5t-49 110.5h130q5 -30 37 -30q31 0 37 30h129q-7 -72 -49.5 -110.5t-116.5 -38.5z" />
    <glyph glyph-name="Iogonek" unicode="&#x12e;" horiz-adv-x="358" 
d="M312 0h-266v715h266v-715zM295 -44l100 -119h-265l-78 119h243z" />
    <glyph glyph-name="iogonek" unicode="&#x12f;" horiz-adv-x="317" 
d="M39 575v140h239v-140h-239zM278 0h-239v525h239v-525zM279 -44l100 -119h-265l-78 119h243z" />
    <glyph glyph-name="Idotaccent" unicode="&#x130;" horiz-adv-x="358" 
d="M312 0h-266v715h266v-715zM93 752v125h174v-125h-174z" />
    <glyph glyph-name="dotlessi" unicode="&#x131;" horiz-adv-x="317" 
d="M278 0h-239v525h239v-525z" />
    <glyph glyph-name="IJ" unicode="&#x132;" horiz-adv-x="979" 
d="M312 0h-266v715h266v-715zM642 -15q-285 0 -285 248h236q1 -25 9 -37.5t30 -12.5q25 0 33.5 19.5t8.5 70.5v442h265v-470q0 -131 -78.5 -195.5t-218.5 -64.5z" />
    <glyph glyph-name="ij" unicode="&#x133;" horiz-adv-x="635" 
d="M39 575v140h239v-140h-239zM278 0h-239v525h239v-525zM298 -26q35 0 46.5 18t11.5 63v470h240v-525q0 -110 -52.5 -151t-166.5 -41q-70 0 -100 7v160q8 -1 21 -1zM356 575v140h240v-140h-240z" />
    <glyph glyph-name="Jcircumflex" unicode="&#x134;" horiz-adv-x="621" 
d="M284 -15q-285 0 -285 248h236q1 -25 9 -37.5t30 -12.5q25 0 33.5 19.5t8.5 70.5v442h265v-470q0 -131 -78.5 -195.5t-218.5 -64.5zM329 877h232l103 -125h-181l-37 39l-38 -39h-180z" />
    <glyph glyph-name="jcircumflex" unicode="&#x135;" horiz-adv-x="317" 
d="M-19 -26q35 0 46.5 18t11.5 63v470h239v-525q0 -110 -52.5 -151t-166.5 -41q-69 0 -99 7v160q8 -1 21 -1zM39 715h238l108 -136h-186l-40 43l-40 -43h-185z" />
    <glyph glyph-name="Kcommaaccent" unicode="&#x136;" horiz-adv-x="780" 
d="M310 0h-264v715h264v-271h2q95 152 171 271h309q-82 -112 -248 -331q32 -48 133.5 -196.5t127.5 -187.5h-312q-145 241 -181 295h-2v-295zM210 -163l97 119h218l-74 -119h-241z" />
    <glyph glyph-name="kcommaaccent" unicode="&#x137;" horiz-adv-x="684" 
d="M279 0h-240v715h240v-407h1q5 9 62.5 104t69.5 113h276q-44 -53 -110.5 -142t-75.5 -99q133 -196 201 -284h-285q-105 169 -138 239h-1v-239zM151 -163l97 119h218l-74 -119h-241z" />
    <glyph glyph-name="kgreenlandic" unicode="&#x138;" horiz-adv-x="684" 
d="M279 0h-240v525h240v-217h1q5 9 62.5 104t69.5 113h276q-44 -53 -110.5 -142t-75.5 -99q133 -196 201 -284h-285q-105 169 -138 239h-1v-239z" />
    <glyph glyph-name="Lacute" unicode="&#x139;" horiz-adv-x="604" 
d="M594 0h-548v715h265v-521h283v-194zM293 752h-239l94 125h279z" />
    <glyph glyph-name="lacute" unicode="&#x13a;" horiz-adv-x="318" 
d="M39 715h240v-715h-240v715zM273 752h-239l94 125h279z" />
    <glyph glyph-name="Lcommaaccent" unicode="&#x13b;" horiz-adv-x="604" 
d="M594 0h-548v715h265v-521h283v-194zM132 -163l97 119h218l-74 -119h-241z" />
    <glyph glyph-name="lcommaaccent" unicode="&#x13c;" horiz-adv-x="318" 
d="M39 715h240v-715h-240v715zM-28 -163l97 119h218l-74 -119h-241z" />
    <glyph glyph-name="Lcaron" unicode="&#x13d;" horiz-adv-x="620" 
d="M594 0h-548v715h265v-521h283v-194zM647 715l-106 -294h-210l80 294h236z" />
    <glyph glyph-name="lcaron" unicode="&#x13e;" horiz-adv-x="534" 
d="M39 715h240v-715h-240v715zM633 715l-106 -294h-210l80 294h236z" />
    <glyph glyph-name="Ldot" unicode="&#x13f;" horiz-adv-x="608" 
d="M594 0h-548v715h265v-521h283v-194zM361 284v205h231v-205h-231z" />
    <glyph glyph-name="ldot" unicode="&#x140;" horiz-adv-x="585" 
d="M39 715h240v-715h-240v715zM336 264v205h231v-205h-231z" />
    <glyph glyph-name="Lslash" unicode="&#x141;" horiz-adv-x="610" 
d="M8 150v213l44 28v324h265v-151l47 31v-213l-47 -31v-160h283v-191h-548v178z" />
    <glyph glyph-name="lslash" unicode="&#x142;" horiz-adv-x="349" 
d="M308 0h-266v211l-30 -19v192l30 19v312h266v-143l30 19v-192l-30 -19v-380z" />
    <glyph glyph-name="Nacute" unicode="&#x143;" horiz-adv-x="822" 
d="M776 715v-715h-321l-81 178q-65 144 -87 217h-2q4 -72 4 -150v-245h-243v715h335l81 -198q27 -62 73 -182h2q-4 68 -4 227v153h243zM501 752h-239l94 125h279z" />
    <glyph glyph-name="nacute" unicode="&#x144;" horiz-adv-x="658" 
d="M38 525h225v-59h2q51 73 165 73q119 0 166 -84q17 -31 22.5 -67.5t5.5 -108.5v-279h-240v268q0 53 -11 76t-39 23q-30 0 -42.5 -25.5t-12.5 -86.5v-255h-240v438q0 58 -1 87zM435 579h-233l97 136h279z" />
    <glyph glyph-name="Ncommaaccent" unicode="&#x145;" horiz-adv-x="822" 
d="M776 715v-715h-321l-81 178q-65 144 -87 217h-2q4 -72 4 -150v-245h-243v715h335l81 -198q27 -62 73 -182h2q-4 68 -4 227v153h243zM229 -163l97 119h218l-74 -119h-241z" />
    <glyph glyph-name="ncommaaccent" unicode="&#x146;" horiz-adv-x="658" 
d="M38 525h225v-59h2q51 73 165 73q119 0 166 -84q17 -31 22.5 -67.5t5.5 -108.5v-279h-240v268q0 53 -11 76t-39 23q-30 0 -42.5 -25.5t-12.5 -86.5v-255h-240v438q0 58 -1 87zM158 -163l97 119h218l-74 -119h-241z" />
    <glyph glyph-name="Ncaron" unicode="&#x147;" horiz-adv-x="822" 
d="M776 715v-715h-321l-81 178q-65 144 -87 217h-2q4 -72 4 -150v-245h-243v715h335l81 -198q27 -62 73 -182h2q-4 68 -4 227v153h243zM538 752h-232l-101 125h180l38 -39l37 39h181z" />
    <glyph glyph-name="ncaron" unicode="&#x148;" horiz-adv-x="658" 
d="M38 525h225v-59h2q51 73 165 73q119 0 166 -84q17 -31 22.5 -67.5t5.5 -108.5v-279h-240v268q0 53 -11 76t-39 23q-30 0 -42.5 -25.5t-12.5 -86.5v-255h-240v438q0 58 -1 87zM467 579h-238l-105 136h185l40 -43l40 43h186z" />
    <glyph glyph-name="napostrophe" unicode="&#x149;" horiz-adv-x="842" 
d="M38 525h225v-59h2q51 73 165 73q119 0 166 -84q17 -31 22.5 -67.5t5.5 -108.5v-279h-240v268q0 53 -11 76t-39 23q-30 0 -42.5 -25.5t-12.5 -86.5v-255h-240v438q0 58 -1 87zM935 715l-106 -294h-210l80 294h236z" />
    <glyph glyph-name="Eng" unicode="&#x14a;" horiz-adv-x="822" 
d="M776 715v-666q0 -124 -64 -182t-206 -58q-250 0 -264 178h217q7 -35 40 -35q40 0 40 48h-84l-81 178q-65 144 -87 217h-2q4 -72 4 -150v-245h-243v715h335l81 -198q49 -121 73 -182h2q-4 68 -4 227v153h243z" />
    <glyph glyph-name="eng" unicode="&#x14b;" horiz-adv-x="658" 
d="M326 -26q35 0 46.5 18t11.5 63v213q0 53 -11 76t-39 23q-30 0 -42.5 -25.5t-12.5 -86.5v-255h-240v438q0 58 -1 87h225v-59h2q51 73 165 73q119 0 166 -84q17 -31 22.5 -67.5t5.5 -108.5v-279q0 -110 -51.5 -151t-166.5 -41q-69 0 -99 7v160q8 -1 19 -1z" />
    <glyph glyph-name="Omacron" unicode="&#x14c;" horiz-adv-x="803" 
d="M401 728q176 0 280 -100.5t104 -270.5q0 -173 -103 -271.5t-282 -98.5q-177 0 -279.5 98.5t-102.5 271.5q0 170 103.5 270.5t279.5 100.5zM401 180q58 0 87 46.5t29 130.5q0 87 -29 134.5t-87 47.5q-59 0 -88 -48t-29 -135q0 -83 29 -129.5t88 -46.5zM266 752v125h273
v-125h-273z" />
    <glyph glyph-name="omacron" unicode="&#x14d;" horiz-adv-x="624" 
d="M311 543q139 0 218 -77t79 -204q0 -125 -78.5 -201.5t-217.5 -76.5q-140 0 -218 76t-78 203q0 126 78.5 203t216.5 77zM310 387q-62 0 -62 -124q0 -63 14 -93t49 -30t48.5 29.5t13.5 92.5q0 125 -63 125zM175 578v137h273v-137h-273z" />
    <glyph glyph-name="Obreve" unicode="&#x14e;" horiz-adv-x="803" 
d="M401 728q176 0 280 -100.5t104 -270.5q0 -173 -103 -271.5t-282 -98.5q-177 0 -279.5 98.5t-102.5 271.5q0 170 103.5 270.5t279.5 100.5zM401 180q58 0 87 46.5t29 130.5q0 87 -29 134.5t-87 47.5q-59 0 -88 -48t-29 -135q0 -83 29 -129.5t88 -46.5zM402 746
q-150 0 -160 137h124q5 -29 36 -29q29 0 35 29h124q-12 -137 -159 -137z" />
    <glyph glyph-name="obreve" unicode="&#x14f;" horiz-adv-x="624" 
d="M311 543q139 0 218 -77t79 -204q0 -125 -78.5 -201.5t-217.5 -76.5q-140 0 -218 76t-78 203q0 126 78.5 203t216.5 77zM310 387q-62 0 -62 -124q0 -63 14 -93t49 -30t48.5 29.5t13.5 92.5q0 125 -63 125zM310 566q-75 0 -118 38.5t-49 110.5h130q5 -30 37 -30q31 0 37 30
h129q-7 -72 -49.5 -110.5t-116.5 -38.5z" />
    <glyph glyph-name="Ohungarumlaut" unicode="&#x150;" horiz-adv-x="803" 
d="M401 728q176 0 280 -100.5t104 -270.5q0 -173 -103 -271.5t-282 -98.5q-177 0 -279.5 98.5t-102.5 271.5q0 170 103.5 270.5t279.5 100.5zM401 180q58 0 87 46.5t29 130.5q0 87 -29 134.5t-87 47.5q-59 0 -88 -48t-29 -135q0 -83 29 -129.5t88 -46.5zM357 752h-215
l93 125h256zM646 752h-215l93 125h256z" />
    <glyph glyph-name="ohungarumlaut" unicode="&#x151;" horiz-adv-x="624" 
d="M311 543q139 0 218 -77t79 -204q0 -125 -78.5 -201.5t-217.5 -76.5q-140 0 -218 76t-78 203q0 126 78.5 203t216.5 77zM310 387q-62 0 -62 -124q0 -63 14 -93t49 -30t48.5 29.5t13.5 92.5q0 125 -63 125zM251 579h-215l103 136h256zM540 579h-215l103 136h256z" />
    <glyph glyph-name="OE" unicode="&#x152;" horiz-adv-x="1110" 
d="M774 267v-84h304v-183h-522v22q-73 -34 -163 -34q-173 0 -274 98t-101 270q0 170 102.5 271t269.5 101q88 0 166 -35v22h519v-186h-301v-74h275v-188h-275zM401 180q58 0 87 46.5t29 130.5q0 87 -29 134.5t-87 47.5q-59 0 -88 -48t-29 -135q0 -83 29 -129.5t88 -46.5z
" />
    <glyph glyph-name="oe" unicode="&#x153;" horiz-adv-x="984" 
d="M311 543q113 0 187 -57q80 57 190 57q136 0 211.5 -78t75.5 -222q0 -4 -0.5 -9t-0.5 -7v-7h-369q5 -80 70 -80q47 0 66 40l231 -1q-28 -87 -104.5 -141t-197.5 -54q-102 0 -177 51q-70 -51 -181 -51q-140 0 -218 76t-78 203q0 126 78.5 203t216.5 77zM310 387
q-62 0 -62 -124q0 -63 14 -93t49 -30t48.5 29.5t13.5 92.5q0 125 -63 125zM607 331h139q-8 71 -67 71q-64 0 -72 -71z" />
    <glyph glyph-name="Racute" unicode="&#x154;" horiz-adv-x="723" 
d="M299 224v-224h-253v715h362q137 0 203 -46q86 -63 86 -180q0 -156 -131 -220l168 -269h-281l-121 224h-33zM299 528v-113h54q71 0 71 59q0 54 -76 54h-49zM438 752h-239l94 125h279z" />
    <glyph glyph-name="racute" unicode="&#x155;" horiz-adv-x="444" 
d="M39 0v430q0 62 -1 95h230q0 -45 -1 -64h2q28 77 135 77q14 0 28 -2v-202q-17 4 -41 4q-62 0 -89 -44q-24 -40 -24 -155v-139h-239zM279 579h-233l97 136h279z" />
    <glyph glyph-name="Rcommaaccent" unicode="&#x156;" horiz-adv-x="723" 
d="M299 224v-224h-253v715h362q137 0 203 -46q86 -63 86 -180q0 -156 -131 -220l168 -269h-281l-121 224h-33zM299 528v-113h54q71 0 71 59q0 54 -76 54h-49zM174 -163l97 119h218l-74 -119h-241z" />
    <glyph glyph-name="rcommaaccent" unicode="&#x157;" horiz-adv-x="444" 
d="M39 0v430q0 62 -1 95h230q0 -45 -1 -64h2q28 77 135 77q14 0 28 -2v-202q-17 4 -41 4q-62 0 -89 -44q-24 -40 -24 -155v-139h-239zM-17 -163l97 119h218l-74 -119h-241z" />
    <glyph glyph-name="Rcaron" unicode="&#x158;" horiz-adv-x="723" 
d="M299 224v-224h-253v715h362q137 0 203 -46q86 -63 86 -180q0 -156 -131 -220l168 -269h-281l-121 224h-33zM299 528v-113h54q71 0 71 59q0 54 -76 54h-49zM467 752h-232l-101 125h180l38 -39l37 39h181z" />
    <glyph glyph-name="rcaron" unicode="&#x159;" horiz-adv-x="444" 
d="M39 0v430q0 62 -1 95h230q0 -45 -1 -64h2q28 77 135 77q14 0 28 -2v-202q-17 4 -41 4q-62 0 -89 -44q-24 -40 -24 -155v-139h-239zM284 579h-238l-105 136h185l40 -43l40 43h186z" />
    <glyph glyph-name="Sacute" unicode="&#x15a;" horiz-adv-x="695" 
d="M666 482h-253q-1 81 -72 81q-57 0 -57 -42q0 -18 14.5 -30t34 -19t62.5 -18l38 -10q135 -36 191.5 -87t56.5 -139q0 -109 -85.5 -170t-246.5 -61q-322 0 -339 258h268q2 -48 21 -69.5t60 -21.5q67 0 67 48q0 15 -10 25t-23 15t-39 12l-84 22q-133 35 -187.5 89.5
t-54.5 143.5q0 101 82.5 160t233.5 59q148 0 231 -62t91 -184zM440 752h-239l94 125h279z" />
    <glyph glyph-name="sacute" unicode="&#x15b;" horiz-adv-x="600" 
d="M7 179h225q9 -62 73 -62q54 0 54 32q0 15 -12.5 22t-50.5 16l-82 18q-98 21 -144 61t-46 109q0 78 68.5 123.5t203.5 45.5q133 0 200 -46.5t78 -140.5h-214q-9 58 -66 58q-48 0 -48 -31q0 -15 13 -21.5t61 -19.5l66 -16q109 -27 156 -64.5t47 -105.5q0 -173 -286 -173
q-142 0 -211.5 49t-84.5 146zM396 579h-233l97 136h279z" />
    <glyph glyph-name="Scircumflex" unicode="&#x15c;" horiz-adv-x="695" 
d="M666 482h-253q-1 81 -72 81q-57 0 -57 -42q0 -18 14.5 -30t34 -19t62.5 -18l38 -10q135 -36 191.5 -87t56.5 -139q0 -109 -85.5 -170t-246.5 -61q-322 0 -339 258h268q2 -48 21 -69.5t60 -21.5q67 0 67 48q0 15 -10 25t-23 15t-39 12l-84 22q-133 35 -187.5 89.5
t-54.5 143.5q0 101 82.5 160t233.5 59q148 0 231 -62t91 -184zM232 877h232l103 -125h-181l-37 39l-38 -39h-180z" />
    <glyph glyph-name="scircumflex" unicode="&#x15d;" horiz-adv-x="600" 
d="M7 179h225q9 -62 73 -62q54 0 54 32q0 15 -12.5 22t-50.5 16l-82 18q-98 21 -144 61t-46 109q0 78 68.5 123.5t203.5 45.5q133 0 200 -46.5t78 -140.5h-214q-9 58 -66 58q-48 0 -48 -31q0 -15 13 -21.5t61 -19.5l66 -16q109 -27 156 -64.5t47 -105.5q0 -173 -286 -173
q-142 0 -211.5 49t-84.5 146zM184 715h238l108 -136h-186l-40 43l-40 -43h-185z" />
    <glyph glyph-name="Scedilla" unicode="&#x15e;" horiz-adv-x="695" 
d="M666 482h-253q-1 81 -72 81q-57 0 -57 -42q0 -18 14.5 -30t34 -19t62.5 -18l38 -10q135 -36 191.5 -87t56.5 -139q0 -109 -85.5 -170t-246.5 -61q-322 0 -339 258h268q2 -48 21 -69.5t60 -21.5q67 0 67 48q0 15 -10 25t-23 15t-39 12l-84 22q-133 35 -187.5 89.5
t-54.5 143.5q0 101 82.5 160t233.5 59q148 0 231 -62t91 -184zM145 -163l100 119h243l-75 -119h-268z" />
    <glyph glyph-name="scedilla" unicode="&#x15f;" horiz-adv-x="600" 
d="M7 179h225q9 -62 73 -62q54 0 54 32q0 15 -12.5 22t-50.5 16l-82 18q-98 21 -144 61t-46 109q0 78 68.5 123.5t203.5 45.5q133 0 200 -46.5t78 -140.5h-214q-9 58 -66 58q-48 0 -48 -31q0 -15 13 -21.5t61 -19.5l66 -16q109 -27 156 -64.5t47 -105.5q0 -173 -286 -173
q-142 0 -211.5 49t-84.5 146zM95 -163l100 119h243l-75 -119h-268z" />
    <glyph glyph-name="Scaron" unicode="&#x160;" horiz-adv-x="695" 
d="M666 482h-253q-1 81 -72 81q-57 0 -57 -42q0 -18 14.5 -30t34 -19t62.5 -18l38 -10q135 -36 191.5 -87t56.5 -139q0 -109 -85.5 -170t-246.5 -61q-322 0 -339 258h268q2 -48 21 -69.5t60 -21.5q67 0 67 48q0 15 -10 25t-23 15t-39 12l-84 22q-133 35 -187.5 89.5
t-54.5 143.5q0 101 82.5 160t233.5 59q148 0 231 -62t91 -184zM472 752h-232l-101 125h180l38 -39l37 39h181z" />
    <glyph glyph-name="scaron" unicode="&#x161;" horiz-adv-x="600" 
d="M7 179h225q9 -62 73 -62q54 0 54 32q0 15 -12.5 22t-50.5 16l-82 18q-98 21 -144 61t-46 109q0 78 68.5 123.5t203.5 45.5q133 0 200 -46.5t78 -140.5h-214q-9 58 -66 58q-48 0 -48 -31q0 -15 13 -21.5t61 -19.5l66 -16q109 -27 156 -64.5t47 -105.5q0 -173 -286 -173
q-142 0 -211.5 49t-84.5 146zM419 579h-238l-105 136h185l40 -43l40 43h186z" />
    <glyph glyph-name="uni0162" unicode="&#x162;" horiz-adv-x="632" 
d="M450 0h-266v521h-174v194h612v-194h-172v-521zM122 -163l97 119h218l-74 -119h-241z" />
    <glyph glyph-name="uni0163" unicode="&#x163;" horiz-adv-x="434" 
d="M55 -163l97 119h218l-74 -119h-241zM83 360h-72v165h72v140h241v-140h85v-165h-85v-77q0 -79 8.5 -103t46.5 -24q11 0 24 3v-162q-35 -7 -105 -7q-111 0 -163 40.5t-52 145.5v184z" />
    <glyph glyph-name="Tcaron" unicode="&#x164;" horiz-adv-x="632" 
d="M450 0h-266v521h-174v194h612v-194h-172v-521zM435 752h-232l-101 125h180l38 -39l37 39h181z" />
    <glyph glyph-name="tcaron" unicode="&#x165;" horiz-adv-x="616" 
d="M83 360h-72v165h72v140h241v-140h85v-165h-85v-77q0 -79 8.5 -103t46.5 -24q11 0 24 3v-162q-35 -7 -105 -7q-111 0 -163 40.5t-52 145.5v184zM733 715l-106 -294h-210l80 294h236z" />
    <glyph glyph-name="Tbar" unicode="&#x166;" horiz-adv-x="638" 
d="M95 253v185h92v83h-174v194h612v-194h-172v-83h92v-185h-92v-253h-266v253h-92z" />
    <glyph glyph-name="tbar" unicode="&#x167;" horiz-adv-x="436" 
d="M85 362h-72v163h72v140h241v-140h85v-163h-85v-20h85v-163h-78q14 -23 48 -23q11 0 24 3v-162q-35 -7 -105 -7q-110 0 -162.5 42t-52.5 147h-72v163h72v20z" />
    <glyph glyph-name="Utilde" unicode="&#x168;" horiz-adv-x="760" 
d="M381 -15q-229 0 -302 129q-40 70 -40 196v405h270v-420q0 -29 5 -49q13 -46 67 -46q55 0 68 46q5 20 5 49v420h267v-405q0 -126 -40 -196q-73 -129 -300 -129zM318 752h-130q0 67 31 105.5t90 38.5q35 0 77 -20q27 -14 39 -14q20 0 21 26h129q0 -67 -31.5 -105.5
t-88.5 -38.5q-39 0 -77 20q-27 14 -38 14q-10 0 -15.5 -5t-6.5 -21z" />
    <glyph glyph-name="utilde" unicode="&#x169;" horiz-adv-x="657" 
d="M619 0h-225v59h-2q-51 -73 -165 -73q-118 0 -165 84q-17 31 -22.5 67.5t-5.5 108.5v279h240v-268q0 -53 11 -76t39 -23q30 0 42 25.5t12 86.5v255h240v-438q0 -58 1 -87zM263 579h-130q0 67 31 105.5t90 38.5q35 0 77 -20q27 -14 39 -14q20 0 21 26h129
q0 -67 -31.5 -105.5t-88.5 -38.5q-39 0 -77 20q-27 14 -38 14q-10 0 -15.5 -5t-6.5 -21z" />
    <glyph glyph-name="Umacron" unicode="&#x16a;" horiz-adv-x="760" 
d="M381 -15q-229 0 -302 129q-40 70 -40 196v405h270v-420q0 -29 5 -49q13 -46 67 -46q55 0 68 46q5 20 5 49v420h267v-405q0 -126 -40 -196q-73 -129 -300 -129zM246 752v125h273v-125h-273z" />
    <glyph glyph-name="umacron" unicode="&#x16b;" horiz-adv-x="657" 
d="M619 0h-225v59h-2q-51 -73 -165 -73q-118 0 -165 84q-17 31 -22.5 67.5t-5.5 108.5v279h240v-268q0 -53 11 -76t39 -23q30 0 42 25.5t12 86.5v255h240v-438q0 -58 1 -87zM194 578v137h273v-137h-273z" />
    <glyph glyph-name="Ubreve" unicode="&#x16c;" horiz-adv-x="760" 
d="M381 -15q-229 0 -302 129q-40 70 -40 196v405h270v-420q0 -29 5 -49q13 -46 67 -46q55 0 68 46q5 20 5 49v420h267v-405q0 -126 -40 -196q-73 -129 -300 -129zM383 746q-150 0 -160 137h124q5 -29 36 -29q29 0 35 29h124q-12 -137 -159 -137z" />
    <glyph glyph-name="ubreve" unicode="&#x16d;" horiz-adv-x="657" 
d="M619 0h-225v59h-2q-51 -73 -165 -73q-118 0 -165 84q-17 31 -22.5 67.5t-5.5 108.5v279h240v-268q0 -53 11 -76t39 -23q30 0 42 25.5t12 86.5v255h240v-438q0 -58 1 -87zM328 566q-75 0 -118 38.5t-49 110.5h130q5 -30 37 -30q31 0 37 30h129q-7 -72 -49.5 -110.5
t-116.5 -38.5z" />
    <glyph glyph-name="Uring" unicode="&#x16e;" horiz-adv-x="760" 
d="M381 -15q-229 0 -302 129q-40 70 -40 196v405h270v-420q0 -29 5 -49q13 -46 67 -46q55 0 68 46q5 20 5 49v420h267v-405q0 -126 -40 -196q-73 -129 -300 -129zM381 738q-50 0 -85 35.5t-35 86.5q0 49 35.5 84.5t85.5 35.5t85.5 -35.5t35.5 -84.5q0 -51 -35.5 -86.5
t-86.5 -35.5zM349 860q0 -14 9.5 -23.5t22.5 -9.5q14 0 23 9.5t9 23.5q0 12 -9 21.5t-23 9.5q-13 0 -22.5 -9.5t-9.5 -21.5z" />
    <glyph glyph-name="uring" unicode="&#x16f;" horiz-adv-x="657" 
d="M619 0h-225v59h-2q-51 -73 -165 -73q-118 0 -165 84q-17 31 -22.5 67.5t-5.5 108.5v279h240v-268q0 -53 11 -76t39 -23q30 0 42 25.5t12 86.5v255h240v-438q0 -58 1 -87zM329 564q-50 0 -85 35.5t-35 86.5q0 49 35.5 84.5t85.5 35.5t85.5 -35.5t35.5 -84.5
q0 -51 -35.5 -86.5t-86.5 -35.5zM297 686q0 -14 9.5 -23.5t22.5 -9.5q14 0 23 9.5t9 23.5q0 12 -9 21.5t-23 9.5q-13 0 -22.5 -9.5t-9.5 -21.5z" />
    <glyph glyph-name="Uhungarumlaut" unicode="&#x170;" horiz-adv-x="760" 
d="M381 -15q-229 0 -302 129q-40 70 -40 196v405h270v-420q0 -29 5 -49q13 -46 67 -46q55 0 68 46q5 20 5 49v420h267v-405q0 -126 -40 -196q-73 -129 -300 -129zM333 752h-215l93 125h256zM622 752h-215l93 125h256z" />
    <glyph glyph-name="uhungarumlaut" unicode="&#x171;" horiz-adv-x="657" 
d="M619 0h-225v59h-2q-51 -73 -165 -73q-118 0 -165 84q-17 31 -22.5 67.5t-5.5 108.5v279h240v-268q0 -53 11 -76t39 -23q30 0 42 25.5t12 86.5v255h240v-438q0 -58 1 -87zM283 579h-215l103 136h256zM572 579h-215l103 136h256z" />
    <glyph glyph-name="Uogonek" unicode="&#x172;" horiz-adv-x="760" 
d="M381 -15q-229 0 -302 129q-40 70 -40 196v405h270v-420q0 -29 5 -49q13 -46 67 -46q55 0 68 46q5 20 5 49v420h267v-405q0 -126 -40 -196q-73 -129 -300 -129zM483 -44l100 -119h-265l-78 119h243z" />
    <glyph glyph-name="uogonek" unicode="&#x173;" horiz-adv-x="657" 
d="M619 0h-225v59h-2q-51 -73 -165 -73q-118 0 -165 84q-17 31 -22.5 67.5t-5.5 108.5v279h240v-268q0 -53 11 -76t39 -23q30 0 42 25.5t12 86.5v255h240v-438q0 -58 1 -87zM429 -44l100 -119h-265l-78 119h243z" />
    <glyph glyph-name="Wcircumflex" unicode="&#x174;" horiz-adv-x="1056" 
d="M1061 715l-146 -715h-328l-41 262q-3 20 -17 153h-3q-4 -46 -19 -153l-45 -262h-322l-145 715h276l40 -269q4 -28 17 -154h3q9 77 27 178l41 245h273l37 -238q19 -125 24 -185h4q10 106 17 152l46 271h261zM411 877h232l103 -125h-181l-37 39l-38 -39h-180z" />
    <glyph glyph-name="wcircumflex" unicode="&#x175;" horiz-adv-x="969" 
d="M433 0h-291q-30 101 -82.5 294t-63.5 231h254l28 -131q21 -115 26 -140h3q5 34 28 147l27 124h248l28 -125q3 -13 13 -66.5t16 -79.5h2q22 123 27 146l27 125h252q-20 -73 -70.5 -250.5t-76.5 -274.5h-292l-24 117l-26 138h-3q-22 -119 -26 -137zM364 715h238l108 -136
h-186l-40 43l-40 -43h-185z" />
    <glyph glyph-name="Ycircumflex" unicode="&#x176;" horiz-adv-x="680" 
d="M431 715h274q-58 -112 -138 -272q-41 -79 -96 -188v-255h-264v255q-39 76 -84 170l-144 290h281q15 -37 46 -117.5t39 -100.5h2q10 25 37.5 98t46.5 120zM229 877h232l103 -125h-181l-37 39l-38 -39h-180z" />
    <glyph glyph-name="ycircumflex" unicode="&#x177;" horiz-adv-x="632" 
d="M382 525h263q-33 -91 -130.5 -365t-121.5 -340h-276q4 11 30 81.5t34 96.5q-139 361 -194 527h263l62 -249h5q12 48 34.5 133t30.5 116zM198 715h238l108 -136h-186l-40 43l-40 -43h-185z" />
    <glyph glyph-name="Ydieresis" unicode="&#x178;" horiz-adv-x="680" 
d="M431 715h274q-58 -112 -138 -272q-41 -79 -96 -188v-255h-264v255q-39 76 -84 170l-144 290h281q15 -37 46 -117.5t39 -100.5h2q10 25 37.5 98t46.5 120zM158 752v125h166v-125h-166zM369 752v125h165v-125h-165z" />
    <glyph glyph-name="Zacute" unicode="&#x179;" horiz-adv-x="670" 
d="M28 0v167l212 266q13 15 36.5 44.5t38.5 46.5q-1 1 -1 2q-30 -2 -121 -2h-161v191h600v-169l-196 -249q-78 -96 -87 -106q0 -1 1 -2q31 2 120 2h177v-191h-619zM442 752h-239l94 125h279z" />
    <glyph glyph-name="zacute" unicode="&#x17a;" horiz-adv-x="575" 
d="M28 0v154l201 198l-1 1q-29 -2 -125 -2h-70v174h506v-154l-71.5 -71.5l-74 -74t-49.5 -51.5v-1q22 0 60 1t65 1h81v-175h-522zM384 579h-233l97 136h279z" />
    <glyph glyph-name="Zdotaccent" unicode="&#x17b;" horiz-adv-x="670" 
d="M28 0v167l212 266q13 15 36.5 44.5t38.5 46.5q-1 1 -1 2q-30 -2 -121 -2h-161v191h600v-169l-196 -249q-78 -96 -87 -106q0 -1 1 -2q31 2 120 2h177v-191h-619zM245 752v125h174v-125h-174z" />
    <glyph glyph-name="zdotaccent" unicode="&#x17c;" horiz-adv-x="575" 
d="M28 0v154l201 198l-1 1q-29 -2 -125 -2h-70v174h506v-154l-71.5 -71.5l-74 -74t-49.5 -51.5v-1q22 0 60 1t65 1h81v-175h-522zM204 579v136h174v-136h-174z" />
    <glyph glyph-name="Zcaron" unicode="&#x17d;" horiz-adv-x="670" 
d="M28 0v167l212 266q13 15 36.5 44.5t38.5 46.5q-1 1 -1 2q-30 -2 -121 -2h-161v191h600v-169l-196 -249q-78 -96 -87 -106q0 -1 1 -2q31 2 120 2h177v-191h-619zM459 752h-232l-101 125h180l38 -39l37 39h181z" />
    <glyph glyph-name="zcaron" unicode="&#x17e;" horiz-adv-x="575" 
d="M28 0v154l201 198l-1 1q-29 -2 -125 -2h-70v174h506v-154l-71.5 -71.5l-74 -74t-49.5 -51.5v-1q22 0 60 1t65 1h81v-175h-522zM410 579h-238l-105 136h185l40 -43l40 43h186z" />
    <glyph glyph-name="uni0186" unicode="&#x186;" horiz-adv-x="769" 
d="M270 454h-266q27 128 118.5 201t244.5 73q175 0 279.5 -100.5t104.5 -270.5q0 -173 -102.5 -271.5t-280.5 -98.5q-299 0 -359 258h266q24 -65 95 -65q59 0 88 46.5t29 129.5q0 87 -29 135t-88 48q-78 0 -100 -85z" />
    <glyph glyph-name="uni018F" unicode="&#x18f;" horiz-adv-x="790" 
d="M10 419l497 -3q-16 121 -118 121q-72 0 -100 -66h-268q13 48 38.5 90t67.5 81.5t110 62.5t153 23q177 0 279.5 -99.5t102.5 -270.5q0 -165 -103 -268t-286 -103q-122 0 -209 52t-127 135.5t-40 188.5q0 11 3 56zM502 284h-226q4 -53 33.5 -82t78.5 -29t78.5 29.5
t35.5 81.5z" />
    <glyph glyph-name="uni0190" unicode="&#x190;" horiz-adv-x="651" 
d="M623 481h-226q-3 72 -64 72q-25 0 -40.5 -13t-15.5 -36q0 -31 24.5 -47.5t84.5 -16.5h21l1 -144h-42q-52 0 -82 -18t-30 -51q0 -30 19.5 -47.5t55.5 -17.5q43 0 62.5 22.5t23.5 69.5h232q-2 -131 -83 -200.5t-231 -69.5q-145 0 -231 63t-86 168q0 109 113 168
q-40 25 -61.5 58t-21.5 89q0 90 75 146t208 56q141 0 216.5 -66.5t77.5 -184.5z" />
    <glyph glyph-name="florin" unicode="&#x192;" horiz-adv-x="594" 
d="M89 299l25 184h76l1 4q16 120 69 180t158 60q86 0 150 -20l-22 -175q-21 7 -40 7q-53 0 -67 -56h88l-25 -184h-91l-31 -228q-21 -148 -68 -206t-158 -58q-87 0 -165 26l20 165q23 -8 48 -8q41 0 58.5 33.5t26.5 103.5l23 172h-76z" />
    <glyph glyph-name="uni019D" unicode="&#x19d;" horiz-adv-x="823" 
d="M47 715h335l81 -198q27 -62 73 -182h2q-4 68 -4 227v153h243v-715h-321l-81 178q-65 144 -87 217h-2q4 -72 4 -150v-245q0 -110 -52.5 -151t-166.5 -41q-73 0 -103 7v160q8 -1 21 -1q35 0 46.5 18t11.5 63v660z" />
    <glyph glyph-name="uni019F" unicode="&#x19f;" horiz-adv-x="803" 
d="M401 728q176 0 280 -100.5t104 -270.5q0 -173 -103 -271.5t-282 -98.5q-177 0 -279.5 98.5t-102.5 271.5q0 170 103.5 270.5t279.5 100.5zM401 180q83 0 107 97h-216q25 -97 109 -97zM401 539q-77 0 -104 -84h207q-27 84 -103 84z" />
    <glyph glyph-name="Ohorn" unicode="&#x1a0;" horiz-adv-x="802" 
d="M401 728q176 0 280 -100.5t104 -270.5q0 -173 -103 -271.5t-282 -98.5q-177 0 -279.5 98.5t-102.5 271.5q0 170 103.5 270.5t279.5 100.5zM401 180q58 0 87 46.5t29 130.5q0 87 -29 134.5t-87 47.5q-59 0 -88 -48t-29 -135q0 -83 29 -129.5t88 -46.5zM850 906l-89 -198
h-216l56 198h249z" />
    <glyph glyph-name="ohorn" unicode="&#x1a1;" horiz-adv-x="658" 
d="M311 543q139 0 218 -77t79 -204q0 -125 -78.5 -201.5t-217.5 -76.5q-140 0 -218 76t-78 203q0 126 78.5 203t216.5 77zM310 387q-62 0 -62 -124q0 -63 14 -93t49 -30t48.5 29.5t13.5 92.5q0 125 -63 125zM763 715l-89 -198h-216l56 198h249z" />
    <glyph glyph-name="Uhorn" unicode="&#x1af;" horiz-adv-x="760" 
d="M734 913l-89 -198h76v-405q0 -126 -40 -196q-73 -129 -300 -129q-229 0 -302 129q-40 70 -40 196v405h270v-420q0 -29 5 -49q13 -46 67 -46q55 0 68 46q5 20 5 49v420h-25l56 198h249z" />
    <glyph glyph-name="uhorn" unicode="&#x1b0;" horiz-adv-x="657" 
d="M614 715l-88 -190h92v-438q0 -58 1 -87h-225v59h-2q-51 -73 -165 -73q-118 0 -165 84q-17 31 -22.5 67.5t-5.5 108.5v279h240v-268q0 -53 11 -76t39 -23q30 0 42 25.5t12 86.5v255h-68l55 190h249z" />
    <glyph glyph-name="uni01C4" unicode="&#x1c4;" horiz-adv-x="1453" 
d="M46 0v715h269h30h30t27.5 -0.5t28.5 -1t25.5 -2t27 -3.5t25 -5t27 -6.5t25 -9t26.5 -11.5q177 -86 177 -313q0 -99 -38.5 -181t-103.5 -123q-60 -35 -128.5 -47t-179.5 -12h-268zM304 530v-344h34q84 0 121.5 40.5t37.5 132.5q0 89 -35 130t-122 41h-36zM811 0v167
l212 266q13 15 36.5 44.5t38.5 46.5q-1 1 -1 2q-30 -2 -121 -2h-161v191h600v-169l-196 -249q-78 -96 -87 -106q0 -1 1 -2q31 2 120 2h177v-191h-619zM1242 752h-232l-101 125h180l38 -39l37 39h181z" />
    <glyph glyph-name="uni01C5" unicode="&#x1c5;" horiz-adv-x="1358" 
d="M46 0v715h269h30h30t27.5 -0.5t28.5 -1t25.5 -2t27 -3.5t25 -5t27 -6.5t25 -9t26.5 -11.5q177 -86 177 -313q0 -99 -38.5 -181t-103.5 -123q-60 -35 -128.5 -47t-179.5 -12h-268zM304 530v-344h34q84 0 121.5 40.5t37.5 132.5q0 89 -35 130t-122 41h-36zM811 0v154
l201 198l-1 1q-29 -2 -125 -2h-70v174h506v-154l-71.5 -71.5l-74 -74t-49.5 -51.5v-1q22 0 60 1t65 1h81v-175h-522zM1193 579h-238l-105 136h185l40 -43l40 43h186z" />
    <glyph glyph-name="uni01C6" unicode="&#x1c6;" horiz-adv-x="1252" 
d="M638 0h-231v56q-54 -68 -161 -68q-105 0 -166.5 73.5t-61.5 201.5q0 125 63 201t168 76q96 0 150 -64q0 22 -0.5 60t-0.5 41v138h240v-715zM335 145q62 0 62 119q0 118 -63 118t-63 -117q0 -120 64 -120zM705 0v154l201 198l-1 1q-29 -2 -125 -2h-70v174h506v-154
l-71.5 -71.5l-74 -74t-49.5 -51.5v-1q22 0 60 1t65 1h81v-175h-522zM1087 579h-238l-105 136h185l40 -43l40 43h186z" />
    <glyph glyph-name="uni01C7" unicode="&#x1c7;" horiz-adv-x="1225" 
d="M594 0h-548v715h265v-521h283v-194zM888 -15q-285 0 -285 248h236q1 -25 9 -37.5t30 -12.5q25 0 33.5 19.5t8.5 70.5v442h265v-470q0 -131 -78.5 -195.5t-218.5 -64.5z" />
    <glyph glyph-name="uni01C8" unicode="&#x1c8;" horiz-adv-x="922" 
d="M594 0h-548v715h265v-521h283v-194zM585 -26q35 0 46.5 18t11.5 63v470h240v-525q0 -110 -52.5 -151t-166.5 -41q-70 0 -100 7v160q8 -1 21 -1zM643 575v140h240v-140h-240z" />
    <glyph glyph-name="uni01C9" unicode="&#x1c9;" horiz-adv-x="636" 
d="M39 715h240v-715h-240v715zM299 -26q35 0 46.5 18t11.5 63v470h240v-525q0 -110 -52.5 -151t-166.5 -41q-70 0 -100 7v160q8 -1 21 -1zM357 575v140h240v-140h-240z" />
    <glyph glyph-name="uni01CA" unicode="&#x1ca;" horiz-adv-x="1443" 
d="M776 715v-715h-321l-81 178q-65 144 -87 217h-2q4 -72 4 -150v-245h-243v715h335l81 -198q27 -62 73 -182h2q-4 68 -4 227v153h243zM1106 -15q-285 0 -285 248h236q1 -25 9 -37.5t30 -12.5q25 0 33.5 19.5t8.5 70.5v442h265v-470q0 -131 -78.5 -195.5t-218.5 -64.5z" />
    <glyph glyph-name="uni01CB" unicode="&#x1cb;" horiz-adv-x="1140" 
d="M776 715v-715h-321l-81 178q-65 144 -87 217h-2q4 -72 4 -150v-245h-243v715h335l81 -198q27 -62 73 -182h2q-4 68 -4 227v153h243zM803 -26q35 0 46.5 18t11.5 63v470h240v-525q0 -110 -52.5 -151t-166.5 -41q-70 0 -100 7v160q8 -1 21 -1zM861 575v140h240v-140h-240z
" />
    <glyph glyph-name="uni01CC" unicode="&#x1cc;" horiz-adv-x="976" 
d="M38 525h225v-59h2q51 73 165 73q119 0 166 -84q17 -31 22.5 -67.5t5.5 -108.5v-279h-240v268q0 53 -11 76t-39 23q-30 0 -42.5 -25.5t-12.5 -86.5v-255h-240v438q0 58 -1 87zM639 -26q35 0 46.5 18t11.5 63v470h240v-525q0 -110 -52.5 -151t-166.5 -41q-70 0 -100 7v160
q8 -1 21 -1zM697 575v140h240v-140h-240z" />
    <glyph glyph-name="uni01F1" unicode="&#x1f1;" horiz-adv-x="1443" 
d="M46 0v715h269h30h30t27.5 -0.5t28.5 -1t25.5 -2t27 -3.5t25 -5t27 -6.5t25 -9t26.5 -11.5q177 -86 177 -313q0 -99 -38.5 -181t-103.5 -123q-60 -35 -128.5 -47t-179.5 -12h-268zM304 530v-344h34q84 0 121.5 40.5t37.5 132.5q0 89 -35 130t-122 41h-36zM801 0v167
l212 266q13 15 36.5 44.5t38.5 46.5q-1 1 -1 2q-30 -2 -121 -2h-161v191h600v-169l-196 -249q-78 -96 -87 -106q0 -1 1 -2q31 2 120 2h177v-191h-619z" />
    <glyph glyph-name="uni01F2" unicode="&#x1f2;" horiz-adv-x="1358" 
d="M46 0v715h269h30h30t27.5 -0.5t28.5 -1t25.5 -2t27 -3.5t25 -5t27 -6.5t25 -9t26.5 -11.5q177 -86 177 -313q0 -99 -38.5 -181t-103.5 -123q-60 -35 -128.5 -47t-179.5 -12h-268zM304 530v-344h34q84 0 121.5 40.5t37.5 132.5q0 89 -35 130t-122 41h-36zM811 0v154
l201 198l-1 1q-29 -2 -125 -2h-70v174h506v-154l-71.5 -71.5l-74 -74t-49.5 -51.5v-1q22 0 60 1t65 1h81v-175h-522z" />
    <glyph glyph-name="uni01F3" unicode="&#x1f3;" horiz-adv-x="1252" 
d="M638 0h-231v56q-54 -68 -161 -68q-105 0 -166.5 73.5t-61.5 201.5q0 125 63 201t168 76q96 0 150 -64q0 22 -0.5 60t-0.5 41v138h240v-715zM335 145q62 0 62 119q0 118 -63 118t-63 -117q0 -120 64 -120zM705 0v154l201 198l-1 1q-29 -2 -125 -2h-70v174h506v-154
l-71.5 -71.5l-74 -74t-49.5 -51.5v-1q22 0 60 1t65 1h81v-175h-522z" />
    <glyph glyph-name="Aringacute" unicode="&#x1fa;" horiz-adv-x="774" 
d="M236 0h-260q129 362 261 715h303q140 -393 258 -715h-265l-43 130h-212zM326 314h116q-9 33 -29 101t-28 97h-3q-1 -5 -56 -198zM383 732q-50 0 -85 35.5t-35 86.5q0 49 35.5 84.5t85.5 35.5t85.5 -35.5t35.5 -84.5q0 -51 -35.5 -86.5t-86.5 -35.5zM351 854
q0 -14 9.5 -23.5t22.5 -9.5q14 0 23 9.5t9 23.5q0 12 -9 21.5t-23 9.5q-13 0 -22.5 -9.5t-9.5 -21.5zM491 991h-239l94 125h279z" />
    <glyph glyph-name="aringacute" unicode="&#x1fb;" horiz-adv-x="594" 
d="M573 4v-4h-196q-3 20 -3 52h-2q-53 -63 -166 -63q-91 0 -142.5 42t-51.5 117q0 61 40.5 98t119.5 58q65 18 176 27q0 65 -53 65q-50 0 -55 -51h-208q7 94 77 145.5t188 51.5q131 0 198 -53.5t67 -182.5v-150q0 -124 11 -152zM347 212l-26 -4q-58 -9 -76.5 -20t-18.5 -33
q0 -18 13.5 -28.5t36.5 -10.5q71 0 71 79v17zM305 562q-50 0 -85 35.5t-35 86.5q0 49 35.5 84.5t85.5 35.5t85.5 -35.5t35.5 -84.5q0 -51 -35.5 -86.5t-86.5 -35.5zM273 684q0 -14 9.5 -23.5t22.5 -9.5q14 0 23 9.5t9 23.5q0 12 -9 21.5t-23 9.5q-13 0 -22.5 -9.5
t-9.5 -21.5zM406 822h-233l97 136h279z" />
    <glyph glyph-name="AEacute" unicode="&#x1fc;" horiz-adv-x="1091" 
d="M770 267v-84h289v-183h-539l-4 130h-212l-71 -130h-264l415 715h672v-186h-286v-74h260v-188h-260zM396 314h112q-2 47 -2 109.5t-1 97.5h-1q-34 -68 -108 -207zM778 752h-239l94 125h279z" />
    <glyph glyph-name="aeacute" unicode="&#x1fd;" horiz-adv-x="934" 
d="M691 180l231 -1q-28 -87 -104.5 -141t-197.5 -54q-125 0 -202 71q-75 -66 -207 -66q-95 0 -147 42t-52 117q0 61 40.5 98t119.5 58q65 18 176 27q0 65 -53 65q-50 0 -55 -51h-208q7 94 77 145.5t188 51.5q101 0 170 -44q78 45 171 45q136 0 211.5 -78t75.5 -222
q0 -4 -0.5 -9t-0.5 -7v-7h-369q5 -80 70 -80q47 0 66 40zM347 212l-26 -4q-58 -9 -76.5 -20t-18.5 -33q0 -18 13.5 -28.5t36.5 -10.5q71 0 71 79v17zM557 331h139q-8 71 -67 71q-64 0 -72 -71zM584 579h-233l97 136h279z" />
    <glyph glyph-name="Oslashacute" unicode="&#x1fe;" horiz-adv-x="803" 
d="M401 728q38 0 87 -7l41 72l183 -97l-37 -64q110 -99 110 -275q0 -173 -103 -271.5t-282 -98.5q-40 0 -89 7l-43 -77l-183 97l39 68q-106 100 -106 275q0 170 103.5 270.5t279.5 100.5zM517 357v9l-106 -186q106 10 106 177zM284 356v-3l106 185q-106 -10 -106 -182z
M473 752h-239l94 125h279z" />
    <glyph glyph-name="oslashacute" unicode="&#x1ff;" horiz-adv-x="624" 
d="M370 579h-233l97 136h279zM311 543q32 0 57 -4l36 63l153 -77l-32 -56q83 -74 83 -207q0 -125 -78.5 -201.5t-217.5 -76.5q-35 0 -60 4l-33 -59l-153 79l29 51q-79 74 -79 204q0 126 78.5 203t216.5 77zM308 140h3q34 0 47.5 27.5t14.5 85.5zM312 387h-2q-60 0 -62 -114z
" />
    <glyph glyph-name="uni0218" unicode="&#x218;" horiz-adv-x="695" 
d="M666 482h-253q-1 81 -72 81q-57 0 -57 -42q0 -18 14.5 -30t34 -19t62.5 -18l38 -10q135 -36 191.5 -87t56.5 -139q0 -109 -85.5 -170t-246.5 -61q-322 0 -339 258h268q2 -48 21 -69.5t60 -21.5q67 0 67 48q0 15 -10 25t-23 15t-39 12l-84 22q-133 35 -187.5 89.5
t-54.5 143.5q0 101 82.5 160t233.5 59q148 0 231 -62t91 -184zM145 -163l100 119h243l-75 -119h-268z" />
    <glyph glyph-name="uni0219" unicode="&#x219;" horiz-adv-x="600" 
d="M7 179h225q9 -62 73 -62q54 0 54 32q0 15 -12.5 22t-50.5 16l-82 18q-98 21 -144 61t-46 109q0 78 68.5 123.5t203.5 45.5q133 0 200 -46.5t78 -140.5h-214q-9 58 -66 58q-48 0 -48 -31q0 -15 13 -21.5t61 -19.5l66 -16q109 -27 156 -64.5t47 -105.5q0 -173 -286 -173
q-142 0 -211.5 49t-84.5 146zM95 -163l100 119h243l-75 -119h-268z" />
    <glyph glyph-name="uni021A" unicode="&#x21a;" horiz-adv-x="632" 
d="M450 0h-266v521h-174v194h612v-194h-172v-521zM122 -163l97 119h218l-74 -119h-241z" />
    <glyph glyph-name="uni021B" unicode="&#x21b;" horiz-adv-x="434" 
d="M55 -163l97 119h218l-74 -119h-241zM83 360h-72v165h72v140h241v-140h85v-165h-85v-77q0 -79 8.5 -103t46.5 -24q11 0 24 3v-162q-35 -7 -105 -7q-111 0 -163 40.5t-52 145.5v184z" />
    <glyph glyph-name="uni021D" unicode="&#x21d;" horiz-adv-x="640" 
d="M255 293h-226q2 118 77.5 184.5t216.5 66.5q133 0 208 -56t75 -146q0 -56 -21.5 -89t-61.5 -58q113 -59 113 -168q0 -105 -86 -168t-231 -63q-150 0 -231 69.5t-83 200.5h232q4 -47 23.5 -69.5t62.5 -22.5q36 0 55.5 17.5t19.5 47.5q0 33 -30 51t-82 18h-42l1 144h21
q60 0 84.5 16.5t24.5 47.5q0 23 -15.5 36t-40.5 13q-61 0 -64 -72z" />
    <glyph glyph-name="uni0226" unicode="&#x226;" horiz-adv-x="774" 
d="M236 0h-260q129 362 261 715h303q140 -393 258 -715h-265l-43 130h-212zM326 314h116q-9 33 -29 101t-28 97h-3q-1 -5 -56 -198zM296 752v125h174v-125h-174z" />
    <glyph glyph-name="uni0227" unicode="&#x227;" horiz-adv-x="594" 
d="M573 4v-4h-196q-3 20 -3 52h-2q-53 -63 -166 -63q-91 0 -142.5 42t-51.5 117q0 61 40.5 98t119.5 58q65 18 176 27q0 65 -53 65q-50 0 -55 -51h-208q7 94 77 145.5t188 51.5q131 0 198 -53.5t67 -182.5v-150q0 -124 11 -152zM347 212l-26 -4q-58 -9 -76.5 -20t-18.5 -33
q0 -18 13.5 -28.5t36.5 -10.5q71 0 71 79v17zM205 579v136h174v-136h-174z" />
    <glyph glyph-name="uni0232" unicode="&#x232;" horiz-adv-x="680" 
d="M431 715h274q-58 -112 -138 -272q-41 -79 -96 -188v-255h-264v255q-39 76 -84 170l-144 290h281q15 -37 46 -117.5t39 -100.5h2q10 25 37.5 98t46.5 120zM205 752v125h273v-125h-273z" />
    <glyph glyph-name="uni0233" unicode="&#x233;" horiz-adv-x="632" 
d="M382 525h263q-33 -91 -130.5 -365t-121.5 -340h-276q4 11 30 81.5t34 96.5q-139 361 -194 527h263l62 -249h5q12 48 34.5 133t30.5 116zM178 578v137h273v-137h-273z" />
    <glyph glyph-name="dotlessj" unicode="&#x237;" horiz-adv-x="317" 
d="M-19 -26q35 0 46.5 18t11.5 63v470h239v-525q0 -110 -52.5 -151t-166.5 -41q-69 0 -99 7v160q8 -1 21 -1z" />
    <glyph glyph-name="uni0254" unicode="&#x254;" horiz-adv-x="604" 
d="M236 328h-228q16 97 91 155.5t198 58.5q137 0 214 -76.5t77 -201.5q0 -126 -79 -203.5t-217 -77.5q-116 0 -191 59t-91 159h226q6 -32 19 -47.5t38 -15.5q34 0 48.5 31t14.5 94q0 66 -13.5 95t-50.5 29q-25 0 -37 -14t-19 -45z" />
    <glyph glyph-name="uni0259" unicode="&#x259;" horiz-adv-x="619" 
d="M243 345l-231 1q28 87 104.5 141t197.5 54q134 0 211.5 -76t77.5 -205q0 -125 -81 -201.5t-220 -76.5q-141 0 -217 78t-76 222q0 4 0.5 9t0.5 7v7h369q-5 80 -70 80q-47 0 -66 -40zM377 194h-139q8 -71 67 -71q64 0 72 71z" />
    <glyph glyph-name="uni025B" unicode="&#x25b;" horiz-adv-x="640" 
d="M612 293h-226q-3 72 -64 72q-25 0 -40.5 -13t-15.5 -36q0 -31 24.5 -47.5t84.5 -16.5h21l1 -144h-42q-53 0 -82.5 -18t-29.5 -51q0 -30 19.5 -47.5t55.5 -17.5q43 0 62.5 22.5t23.5 69.5h232q-2 -131 -83 -200.5t-231 -69.5q-145 0 -231 63t-86 168q0 109 113 168
q-40 25 -61.5 58t-21.5 89q0 90 75 146t208 56q141 0 216.5 -66.5t77.5 -184.5z" />
    <glyph glyph-name="uni0272" unicode="&#x272;" horiz-adv-x="658" 
d="M39 55v383q0 58 -1 87h225v-59h2q51 73 165 73q119 0 166 -84q17 -31 22.5 -67.5t5.5 -108.5v-279h-240v268q0 53 -11 76t-39 23q-30 0 -42.5 -25.5t-12.5 -86.5v-255q0 -110 -52.5 -151t-166.5 -41q-70 0 -100 7v160q8 -1 21 -1q35 0 46.5 18t11.5 63z" />
    <glyph glyph-name="uni0275" unicode="&#x275;" horiz-adv-x="624" 
d="M311 543q139 0 218 -77t79 -204q0 -125 -78.5 -201.5t-217.5 -76.5q-140 0 -218 76t-78 203q0 126 78.5 203t216.5 77zM311 140q47 0 58 63h-117q11 -63 59 -63zM310 387q-43 0 -56 -55h112q-13 55 -56 55z" />
    <glyph glyph-name="apostrophemod" unicode="&#x2bc;" horiz-adv-x="324" 
d="M319 715l-106 -294h-210l80 294h236z" />
    <glyph glyph-name="circumflex" unicode="&#x2c6;" horiz-adv-x="503" 
d="M139 715h238l108 -136h-186l-40 43l-40 -43h-185z" />
    <glyph glyph-name="caron" unicode="&#x2c7;" horiz-adv-x="503" 
d="M377 579h-238l-105 136h185l40 -43l40 43h186z" />
    <glyph glyph-name="breve" unicode="&#x2d8;" horiz-adv-x="465" 
d="M233 566q-75 0 -118 38.5t-49 110.5h130q5 -30 37 -30q31 0 37 30h129q-7 -72 -49.5 -110.5t-116.5 -38.5z" />
    <glyph glyph-name="dotaccent" unicode="&#x2d9;" horiz-adv-x="328" 
d="M96 579v136h174v-136h-174z" />
    <glyph glyph-name="ring" unicode="&#x2da;" horiz-adv-x="405" 
d="M239 564q-50 0 -85 35.5t-35 86.5q0 49 35.5 84.5t85.5 35.5t85.5 -35.5t35.5 -84.5q0 -51 -35.5 -86.5t-86.5 -35.5zM207 686q0 -14 9.5 -23.5t22.5 -9.5q14 0 23 9.5t9 23.5q0 12 -9 21.5t-23 9.5q-13 0 -22.5 -9.5t-9.5 -21.5z" />
    <glyph glyph-name="ogonek" unicode="&#x2db;" horiz-adv-x="331" 
d="M250 -44l100 -119h-265l-78 119h243z" />
    <glyph glyph-name="tilde" unicode="&#x2dc;" horiz-adv-x="532" 
d="M242 579h-130q0 67 31 105.5t90 38.5q35 0 77 -20q27 -14 39 -14q20 0 21 26h129q0 -67 -31.5 -105.5t-88.5 -38.5q-39 0 -77 20q-27 14 -38 14q-10 0 -15.5 -5t-6.5 -21z" />
    <glyph glyph-name="hungarumlaut" unicode="&#x2dd;" horiz-adv-x="612" 
d="M227 579h-215l103 136h256zM516 579h-215l103 136h256z" />
    <glyph glyph-name="uni032C" unicode="&#x32c;" horiz-adv-x="503" 
d="M134 -43h238l108 -136h-186l-40 43l-40 -43h-185z" />
    <glyph glyph-name="uni0394" unicode="&#x394;" horiz-adv-x="649" 
d="M222 715h206l243 -715h-693zM327 439h-3q-6 -31 -30 -103l-46 -144h153l-45 144q-21 60 -29 103z" />
    <glyph glyph-name="uni03A9" unicode="&#x3a9;" horiz-adv-x="832" 
d="M419 728q180 0 280 -92t100 -224q0 -151 -109 -224h112v-188h-360v179q91 60 91 196q0 71 -29.5 117.5t-84.5 46.5q-58 0 -89 -46t-31 -118q0 -136 91 -196v-179h-360v188h112q-109 73 -109 224q0 133 100.5 224.5t285.5 91.5z" />
    <glyph glyph-name="uni03BC" unicode="&#x3bc;" horiz-adv-x="663" 
d="M272 -180h-233v705h241v-268q0 -53 11 -76t39 -23q30 0 42 25.5t12 86.5v255h240v-439q0 -58 1 -86h-237v46q-25 -52 -94 -52q-8 0 -22 2v-176z" />
    <glyph glyph-name="pi" unicode="&#x3c0;" horiz-adv-x="768" 
d="M325 0h-241v345h-63v180h716v-180h-79v-62q0 -79 8.5 -103t46.5 -24q11 0 24 3v-162q-35 -7 -105 -7q-111 0 -163 40.5t-52 145.5v169h-92v-345z" />
    <glyph glyph-name="Wgrave" unicode="&#x1e80;" horiz-adv-x="1056" 
d="M1061 715l-146 -715h-328l-41 262q-3 20 -17 153h-3q-4 -46 -19 -153l-45 -262h-322l-145 715h276l40 -269q4 -28 17 -154h3q9 77 27 178l41 245h273l37 -238q19 -125 24 -185h4q10 106 17 152l46 271h261zM673 752h-239l-134 125h279z" />
    <glyph glyph-name="wgrave" unicode="&#x1e81;" horiz-adv-x="969" 
d="M433 0h-291q-30 101 -82.5 294t-63.5 231h254l28 -131q21 -115 26 -140h3q5 34 28 147l27 124h248l28 -125q3 -13 13 -66.5t16 -79.5h2q22 123 27 146l27 125h252q-20 -73 -70.5 -250.5t-76.5 -274.5h-292l-24 117l-26 138h-3q-22 -119 -26 -137zM630 579h-233l-144 136
h279z" />
    <glyph glyph-name="Wacute" unicode="&#x1e82;" horiz-adv-x="1056" 
d="M1061 715l-146 -715h-328l-41 262q-3 20 -17 153h-3q-4 -46 -19 -153l-45 -262h-322l-145 715h276l40 -269q4 -28 17 -154h3q9 77 27 178l41 245h273l37 -238q19 -125 24 -185h4q10 106 17 152l46 271h261zM635 752h-239l94 125h279z" />
    <glyph glyph-name="wacute" unicode="&#x1e83;" horiz-adv-x="969" 
d="M433 0h-291q-30 101 -82.5 294t-63.5 231h254l28 -131q21 -115 26 -140h3q5 34 28 147l27 124h248l28 -125q3 -13 13 -66.5t16 -79.5h2q22 123 27 146l27 125h252q-20 -73 -70.5 -250.5t-76.5 -274.5h-292l-24 117l-26 138h-3q-22 -119 -26 -137zM588 579h-233l97 136
h279z" />
    <glyph glyph-name="Wdieresis" unicode="&#x1e84;" horiz-adv-x="1056" 
d="M1061 715l-146 -715h-328l-41 262q-3 20 -17 153h-3q-4 -46 -19 -153l-45 -262h-322l-145 715h276l40 -269q4 -28 17 -154h3q9 77 27 178l41 245h273l37 -238q19 -125 24 -185h4q10 106 17 152l46 271h261zM340 752v125h166v-125h-166zM551 752v125h165v-125h-165z" />
    <glyph glyph-name="wdieresis" unicode="&#x1e85;" horiz-adv-x="969" 
d="M433 0h-291q-30 101 -82.5 294t-63.5 231h254l28 -131q21 -115 26 -140h3q5 34 28 147l27 124h248l28 -125q3 -13 13 -66.5t16 -79.5h2q22 123 27 146l27 125h252q-20 -73 -70.5 -250.5t-76.5 -274.5h-292l-24 117l-26 138h-3q-22 -119 -26 -137zM300 579v136h166v-136
h-166zM511 579v136h165v-136h-165z" />
    <glyph glyph-name="uni1EA0" unicode="&#x1ea0;" horiz-adv-x="774" 
d="M236 0h-260q129 362 261 715h303q140 -393 258 -715h-265l-43 130h-212zM326 314h116q-9 33 -29 101t-28 97h-3q-1 -5 -56 -198zM298 -182v136h174v-136h-174z" />
    <glyph glyph-name="uni1EA1" unicode="&#x1ea1;" horiz-adv-x="594" 
d="M573 4v-4h-196q-3 20 -3 52h-2q-53 -63 -166 -63q-91 0 -142.5 42t-51.5 117q0 61 40.5 98t119.5 58q65 18 176 27q0 65 -53 65q-50 0 -55 -51h-208q7 94 77 145.5t188 51.5q131 0 198 -53.5t67 -182.5v-150q0 -124 11 -152zM347 212l-26 -4q-58 -9 -76.5 -20t-18.5 -33
q0 -18 13.5 -28.5t36.5 -10.5q71 0 71 79v17zM210 -182v136h174v-136h-174z" />
    <glyph glyph-name="uni1EB8" unicode="&#x1eb8;" horiz-adv-x="640" 
d="M304 267v-84h304v-183h-562v715h559v-186h-301v-74h275v-188h-275zM236 -182v136h174v-136h-174z" />
    <glyph glyph-name="uni1EB9" unicode="&#x1eb9;" horiz-adv-x="619" 
d="M376 180l231 -1q-28 -87 -104.5 -141t-197.5 -54q-134 0 -211.5 76t-77.5 205q0 125 81 201.5t220 76.5q141 0 217 -78t76 -222q0 -4 -0.5 -9t-0.5 -7v-7h-369q5 -80 70 -80q47 0 66 40zM242 331h139q-8 71 -67 71q-64 0 -72 -71zM226 -182v136h174v-136h-174z" />
    <glyph glyph-name="uni1ECA" unicode="&#x1eca;" horiz-adv-x="358" 
d="M312 0h-266v715h266v-715zM94 -182v136h174v-136h-174z" />
    <glyph glyph-name="uni1ECB" unicode="&#x1ecb;" horiz-adv-x="317" 
d="M39 575v140h239v-140h-239zM278 0h-239v525h239v-525zM71 -182v136h174v-136h-174z" />
    <glyph glyph-name="uni1ECC" unicode="&#x1ecc;" horiz-adv-x="803" 
d="M401 728q176 0 280 -100.5t104 -270.5q0 -173 -103 -271.5t-282 -98.5q-177 0 -279.5 98.5t-102.5 271.5q0 170 103.5 270.5t279.5 100.5zM401 180q58 0 87 46.5t29 130.5q0 87 -29 134.5t-87 47.5q-59 0 -88 -48t-29 -135q0 -83 29 -129.5t88 -46.5zM314 -182v136h174
v-136h-174z" />
    <glyph glyph-name="uni1ECD" unicode="&#x1ecd;" horiz-adv-x="624" 
d="M311 543q139 0 218 -77t79 -204q0 -125 -78.5 -201.5t-217.5 -76.5q-140 0 -218 76t-78 203q0 126 78.5 203t216.5 77zM310 387q-62 0 -62 -124q0 -63 14 -93t49 -30t48.5 29.5t13.5 92.5q0 125 -63 125zM224 -182v136h174v-136h-174z" />
    <glyph glyph-name="uni1EE4" unicode="&#x1ee4;" horiz-adv-x="760" 
d="M381 -15q-229 0 -302 129q-40 70 -40 196v405h270v-420q0 -29 5 -49q13 -46 67 -46q55 0 68 46q5 20 5 49v420h267v-405q0 -126 -40 -196q-73 -129 -300 -129zM295 -182v136h174v-136h-174z" />
    <glyph glyph-name="uni1EE5" unicode="&#x1ee5;" horiz-adv-x="657" 
d="M619 0h-225v59h-2q-51 -73 -165 -73q-118 0 -165 84q-17 31 -22.5 67.5t-5.5 108.5v279h240v-268q0 -53 11 -76t39 -23q30 0 42 25.5t12 86.5v255h240v-438q0 -58 1 -87zM234 -182v136h174v-136h-174z" />
    <glyph glyph-name="Ygrave" unicode="&#x1ef2;" horiz-adv-x="680" 
d="M431 715h274q-58 -112 -138 -272q-41 -79 -96 -188v-255h-264v255q-39 76 -84 170l-144 290h281q15 -37 46 -117.5t39 -100.5h2q10 25 37.5 98t46.5 120zM490 752h-239l-134 125h279z" />
    <glyph glyph-name="ygrave" unicode="&#x1ef3;" horiz-adv-x="632" 
d="M382 525h263q-33 -91 -130.5 -365t-121.5 -340h-276q4 11 30 81.5t34 96.5q-139 361 -194 527h263l62 -249h5q12 48 34.5 133t30.5 116zM467 579h-233l-144 136h279z" />
    <glyph glyph-name="enspace" unicode="&#x2002;" horiz-adv-x="500" 
 />
    <glyph glyph-name="emspace" unicode="&#x2003;" horiz-adv-x="1000" 
 />
    <glyph glyph-name="threeperemspace" unicode="&#x2004;" horiz-adv-x="0" 
 />
    <glyph glyph-name="fourperemspace" unicode="&#x2005;" horiz-adv-x="250" 
 />
    <glyph glyph-name="thinspace" unicode="&#x2009;" horiz-adv-x="133" 
 />
    <glyph glyph-name="hairspace" unicode="&#x200a;" horiz-adv-x="75" 
 />
    <glyph glyph-name="endash" unicode="&#x2013;" horiz-adv-x="562" 
d="M43 204v186h476v-186h-476z" />
    <glyph glyph-name="emdash" unicode="&#x2014;" horiz-adv-x="927" 
d="M43 204v186h841v-186h-841z" />
    <glyph glyph-name="quoteleft" unicode="&#x2018;" horiz-adv-x="343" 
d="M16 421l106 294h210l-80 -294h-236z" />
    <glyph glyph-name="quoteright" unicode="&#x2019;" horiz-adv-x="342" 
d="M337 715l-106 -294h-210l80 294h236z" />
    <glyph glyph-name="quotesinglbase" unicode="&#x201a;" horiz-adv-x="335" 
d="M311 205l-106 -294h-210l80 294h236z" />
    <glyph glyph-name="quotedblleft" unicode="&#x201c;" horiz-adv-x="610" 
d="M283 421l106 294h210l-80 -294h-236zM16 421l106 294h210l-80 -294h-236z" />
    <glyph glyph-name="quotedblright" unicode="&#x201d;" horiz-adv-x="609" 
d="M337 715l-106 -294h-210l80 294h236zM604 715l-106 -294h-210l80 294h236z" />
    <glyph glyph-name="quotedblbase" unicode="&#x201e;" horiz-adv-x="602" 
d="M311 205l-106 -294h-210l80 294h236zM578 205l-106 -294h-210l80 294h236z" />
    <glyph glyph-name="dagger" unicode="&#x2020;" horiz-adv-x="501" 
d="M367 715v-133h106v-202h-106v-448h-233v448h-107v202h107v133h233z" />
    <glyph glyph-name="daggerdbl" unicode="&#x2021;" horiz-adv-x="512" 
d="M373 380v-113h106v-202h-106v-133h-233v133h-107v202h107v113h-107v202h107v133h233v-133h106v-202h-106z" />
    <glyph glyph-name="bullet" unicode="&#x2022;" horiz-adv-x="589" 
d="M295 87q-105 0 -176.5 71.5t-71.5 175.5t71.5 175t176.5 71q103 0 175 -71t72 -175t-72 -175.5t-175 -71.5z" />
    <glyph glyph-name="ellipsis" unicode="&#x2026;" horiz-adv-x="976" 
d="M42 0v205h231v-205h-231zM373 0v205h231v-205h-231zM703 0v205h231v-205h-231z" />
    <glyph glyph-name="perthousand" unicode="&#x2030;" horiz-adv-x="1355" 
d="M216 321q-93 0 -142.5 54t-49.5 149q0 94 49.5 148t141.5 54t141.5 -54.5t49.5 -148.5q0 -95 -49 -148.5t-141 -53.5zM169 522q0 -46 10.5 -68.5t35.5 -22.5t34.5 21.5t9.5 69.5q0 50 -9.5 72.5t-34.5 22.5q-46 0 -46 -95zM264 0l275 715h133l-274 -715h-134zM720 -16
q-93 0 -142.5 54t-49.5 149q0 94 49.5 148t141.5 54t141.5 -54.5t49.5 -148.5q0 -95 -49 -148.5t-141 -53.5zM673 185q0 -92 46 -92q25 0 35 22.5t10 69.5q0 49 -10 71.5t-35 22.5q-46 0 -46 -94zM1142 -16q-93 0 -142.5 54t-49.5 149q0 94 49.5 148t141.5 54
q91 0 140.5 -54.5t49.5 -148.5q0 -95 -48.5 -148.5t-140.5 -53.5zM1095 185q0 -92 46 -92q44 0 44 92q0 50 -9.5 72t-34.5 22q-46 0 -46 -94z" />
    <glyph glyph-name="guilsinglleft" unicode="&#x2039;" horiz-adv-x="363" 
d="M334 473l-96 -187l96 -188h-203l-106 188l106 187h203z" />
    <glyph glyph-name="guilsinglright" unicode="&#x203a;" horiz-adv-x="363" 
d="M125 286l-96 187h203l106 -187l-106 -188h-203z" />
    <glyph glyph-name="fraction" unicode="&#x2044;" horiz-adv-x="469" 
d="M-17 -105l290 820h212l-288 -820h-214z" />
    <glyph glyph-name="Euro" unicode="&#x20ac;" 
d="M-1 358l34 128h29q45 246 303 246q134 0 203 -60t92 -175l-243 -1q-15 38 -53 38q-42 0 -57 -48h154l-34 -128h-132v-6v-16h127l-33 -126h-74q13 -27 49 -27q40 0 53 36l247 1q-19 -113 -89 -174t-210 -61q-137 0 -208.5 58.5t-93.5 166.5h-62l33 126h17v15v7h-52z" />
    <glyph glyph-name="trademark" unicode="&#x2122;" horiz-adv-x="1000" 
d="M741 297h-113q-11 44 -64 249h-3q0 -25 2 -68.5t2 -75.5v-105h-142v418h209q53 -213 57 -233q4 24 13.5 63.5t21.5 90t19 79.5h206v-418h-143v135q0 25 1.5 63t1.5 55h-3q-9 -36 -20 -83.5t-21 -86.5t-24 -83zM400 715v-117h-99v-301h-149v301h-105v117h353z" />
    <glyph glyph-name="Omega" unicode="&#x2126;" horiz-adv-x="832" 
d="M419 728q180 0 280 -92t100 -224q0 -151 -109 -224h112v-188h-360v179q91 60 91 196q0 71 -29.5 117.5t-84.5 46.5q-58 0 -89 -46t-31 -118q0 -136 91 -196v-179h-360v188h112q-109 73 -109 224q0 133 100.5 224.5t285.5 91.5z" />
    <glyph glyph-name="onethird" unicode="&#x2153;" horiz-adv-x="899" 
d="M192 0l275 715h133l-275 -715h-133zM138 544h-113v95h14q90 0 110 76h124v-441h-135v270zM640 303h-142q1 70 49 112t131 42t129.5 -35t46.5 -91q0 -58 -49 -91q68 -39 68 -104q0 -66 -53 -105t-143 -39q-92 0 -142 44t-52 125h142q5 -59 54 -59q48 0 48 42q0 44 -72 44
h-29v92h15q69 0 69 39q0 29 -33 29q-35 0 -37 -45z" />
    <glyph glyph-name="twothirds" unicode="&#x2154;" horiz-adv-x="1027" 
d="M321 0l274 715h133l-274 -715h-133zM756 144q0 -21 13.5 -34t38.5 -13q24 0 37.5 13t13.5 34t-13.5 33.5t-37.5 12.5q-25 0 -38.5 -13t-13.5 -33zM764 319q0 -17 11.5 -28t32.5 -11t32 10.5t11 28.5q0 16 -11.5 27t-31.5 11q-21 0 -32.5 -11t-11.5 -27zM807 -8
q-97 0 -146 36.5t-49 101.5q0 71 71 109q-54 33 -54 95q0 54 47 88t131 34t131 -34t47 -88q0 -62 -54 -95q71 -38 71 -109q0 -65 -50 -101.5t-145 -36.5zM183 549h-150q0 82 48.5 131.5t143.5 49.5q87 0 133.5 -36.5t46.5 -103.5q0 -92 -111 -174q-23 -18 -36 -26h150v-116
h-372v106q54 34 155 110q61 48 61 86q0 31 -32 31q-37 0 -37 -58z" />
    <glyph glyph-name="oneeighth" unicode="&#x215b;" horiz-adv-x="900" 
d="M192 0l275 715h133l-275 -715h-133zM138 544h-113v95h14q90 0 110 76h124v-441h-135v270zM628 144q0 -21 13.5 -34t37.5 -13t37.5 13t13.5 34t-13.5 33.5t-37.5 12.5t-37.5 -13t-13.5 -33zM636 319q0 -17 11.5 -28t31.5 -11q21 0 32 10.5t11 28.5q0 16 -11.5 27t-31.5 11
t-31.5 -11t-11.5 -27zM678 -8q-97 0 -145.5 36.5t-48.5 101.5q0 72 70 109q-54 33 -54 95q0 54 47 88t131 34q85 0 131.5 -34t46.5 -88q0 -63 -53 -95q70 -37 70 -109q0 -65 -49.5 -101.5t-145.5 -36.5z" />
    <glyph glyph-name="threeeighths" unicode="&#x215c;" horiz-adv-x="1019" 
d="M312 0l274 715h133l-274 -715h-133zM747 144q0 -21 13.5 -34t38.5 -13q24 0 37.5 13t13.5 34t-13.5 33.5t-37.5 12.5q-25 0 -38.5 -13t-13.5 -33zM755 319q0 -17 11.5 -28t32.5 -11t32 10.5t11 28.5q0 16 -11.5 27t-31.5 11q-21 0 -32.5 -11t-11.5 -27zM798 -8
q-97 0 -146 36.5t-49 101.5q0 71 71 109q-54 33 -54 95q0 54 47 88t131 34t131 -34t47 -88q0 -62 -54 -95q71 -38 71 -109q0 -65 -50 -101.5t-145 -36.5zM182 575h-141q1 70 49.5 112t130.5 42q83 0 129.5 -35t46.5 -91q0 -58 -50 -92q69 -40 69 -103q0 -66 -52.5 -105
t-143.5 -39q-92 0 -142.5 43.5t-52.5 125.5h142q5 -59 55 -59q48 0 48 42q0 43 -73 43h-29v93h15q70 0 70 39q0 29 -33 29q-36 0 -38 -45z" />
    <glyph glyph-name="fiveeighths" unicode="&#x215d;" horiz-adv-x="1005" 
d="M297 0l274 715h133l-274 -715h-133zM732 144q0 -21 13.5 -34t38.5 -13q24 0 37.5 13t13.5 34t-13.5 33.5t-37.5 12.5q-25 0 -38.5 -13t-13.5 -33zM740 319q0 -17 11.5 -28t32.5 -11t32 10.5t11 28.5q0 16 -11.5 27t-31.5 11q-21 0 -32.5 -11t-11.5 -27zM783 -8
q-97 0 -146 36.5t-49 101.5q0 71 71 109q-54 33 -54 95q0 54 47 88t131 34t131 -34t47 -88q0 -62 -54 -95q71 -38 71 -109q0 -65 -50 -101.5t-145 -36.5zM24 416l150 -1q2 -21 15 -32.5t32 -11.5q20 0 32 13t12 34q0 22 -12 35t-34 13q-32 0 -42 -28l-139 18l30 258h311
v-107h-198l-5 -47q28 13 72 13q69 0 115 -39.5t46 -110.5q0 -76 -52.5 -119.5t-139.5 -43.5q-80 0 -132.5 43t-60.5 113z" />
    <glyph glyph-name="seveneighths" unicode="&#x215e;" horiz-adv-x="921" 
d="M215 0l275 715h133l-275 -715h-133zM651 144q0 -21 13.5 -34t37.5 -13t37.5 13t13.5 34t-13.5 33.5t-37.5 12.5t-37.5 -13t-13.5 -33zM659 319q0 -17 11.5 -28t31.5 -11q21 0 32 10.5t11 28.5q0 16 -11.5 27t-31.5 11t-31.5 -11t-11.5 -27zM701 -8q-97 0 -145.5 36.5
t-48.5 101.5q0 72 70 109q-54 33 -54 95q0 54 47 88t131 34q85 0 131.5 -34t46.5 -88q0 -63 -53 -95q70 -37 70 -109q0 -65 -49.5 -101.5t-145.5 -36.5zM221 274h-165q54 157 161 326q-24 -1 -73 -1h-116l-1 116h353v-107q-93 -136 -159 -334z" />
    <glyph glyph-name="arrowleft" unicode="&#x2190;" horiz-adv-x="820" 
d="M778 209h-365q11 -11 131 -126q25 -25 87 -83h-304q-26 27 -144 152.5t-165 173.5q49 49 174.5 182t134.5 142h304q-47 -44 -87 -84q-124 -118 -131 -125h365v-232z" />
    <glyph glyph-name="arrowup" unicode="&#x2191;" horiz-adv-x="720" 
d="M241 0v368q-9 -9 -33 -33.5l-48 -49t-43 -45.5q-40 -40 -82 -85v296q18 17 147 138t179 171q47 -47 172 -165t152 -144v-296l-82 85l-124 128v-368h-238z" />
    <glyph glyph-name="arrowright" unicode="&#x2192;" horiz-adv-x="820" 
d="M406 209h-365v232h365q-7 7 -131 125q-41 40 -87 84h304q26 -27 144 -152t165 -172q-50 -50 -171 -179t-138 -147h-304q62 58 87 83q120 115 131 126z" />
    <glyph glyph-name="arrowdown" unicode="&#x2193;" horiz-adv-x="720" 
d="M241 355v368h238v-368l124 128l82 85v-296q-9 -9 -142 -134.5t-182 -174.5q-48 47 -173.5 165t-152.5 144v296q42 -45 82 -85q19 -21 43 -45.5l48 -49t33 -33.5z" />
    <glyph glyph-name="uni2196" unicode="&#x2196;" horiz-adv-x="750" 
d="M523 -56l-255 255q0 -95 4 -180l4 -119l-213 215q0 20 1.5 114.5t1.5 149.5l2 185h453l205 -201l-121 3q-36 0 -100 1.5t-81 1.5l263 -261z" />
    <glyph glyph-name="uni2197" unicode="&#x2197;" horiz-adv-x="750" 
d="M482 199l-255 -255l-164 164l263 261q-17 0 -81 -1.5t-100 -1.5l-121 -3l205 201h453l2 -185q0 -55 1.5 -149.5t1.5 -114.5l-213 -215l4 119q4 85 4 180z" />
    <glyph glyph-name="uni2198" unicode="&#x2198;" horiz-adv-x="750" 
d="M224 620l255 -255q0 13 -0.5 47t-1.5 68.5t-2 63.5l-4 120l213 -215q0 -21 -1.5 -115t-1.5 -149l-2 -185h-453l-205 201l121 -3q36 0 100 -1.5t81 -1.5l-263 261z" />
    <glyph glyph-name="uni2199" unicode="&#x2199;" horiz-adv-x="750" 
d="M271 365l255 255l164 -164l-263 -261q17 0 81 1.5t100 1.5l121 3l-205 -201h-453l-2 185q0 55 -1.5 149t-1.5 115l213 215l-4 -120q-4 -85 -4 -179z" />
    <glyph glyph-name="partialdiff" unicode="&#x2202;" horiz-adv-x="632" 
d="M33 715h320q259 -162 259 -424q0 -154 -80.5 -230.5t-221.5 -76.5q-140 0 -217 74.5t-77 204.5t77 203.5t183 73.5q16 0 26 -2l2 2q-32 34 -83.5 69t-88.5 55t-99 51zM311 387q-62 0 -62 -124q0 -63 14 -93t49 -30t48.5 29.5t13.5 92.5q0 125 -63 125z" />
    <glyph glyph-name="Delta" unicode="&#x2206;" horiz-adv-x="729" 
d="M262 715h206l243 -715h-693zM367 439h-3q-6 -31 -30 -103l-46 -144h153l-45 144q-21 60 -29 103z" />
    <glyph glyph-name="product" unicode="&#x220f;" horiz-adv-x="851" 
d="M815 715v-234h-71v-594h-254v594h-129v-594h-254v594h-71v234h779z" />
    <glyph glyph-name="summation" unicode="&#x2211;" horiz-adv-x="648" 
d="M31 47l227 250l-223 241v177h572v-186h-257l211 -224l-240 -251h297v-167h-587v160z" />
    <glyph glyph-name="minus" unicode="&#x2212;" 
d="M83 233v204h498v-204h-498z" />
    <glyph glyph-name="uni2219" unicode="&#x2219;" horiz-adv-x="315" 
d="M42 231v205h231v-205h-231z" />
    <glyph glyph-name="radical" unicode="&#x221a;" 
d="M-5 346v179h269l16 -74q33 -158 50 -226h2q11 41 24.5 105t20.5 93l75 292h245l-217 -715h-302q-28 78 -65 190t-52 156h-66z" />
    <glyph glyph-name="infinity" unicode="&#x221e;" horiz-adv-x="871" 
d="M237 540q60 0 101.5 -22t97.5 -71q55 49 98.5 71t102.5 22q94 0 150 -59t56 -154q0 -87 -53 -149.5t-149 -62.5q-62 0 -109.5 26.5t-96.5 73.5q-104 -100 -203 -100q-101 0 -152.5 62t-51.5 150q0 95 56.5 154t152.5 59zM625 292q31 0 31 36q0 17 -8.5 27t-21.5 10
q-23 0 -71 -37q49 -36 70 -36zM247 292q25 0 68 36q-45 37 -69 37q-29 0 -29 -37q0 -36 30 -36z" />
    <glyph glyph-name="integral" unicode="&#x222b;" 
d="M482 419l-48 -348q-21 -148 -68 -206t-158 -58q-87 0 -165 26l20 165q23 -8 48 -8q41 0 58.5 33.5t26.5 103.5l49 360q16 120 69 180t158 60q86 0 150 -20l-22 -175q-21 7 -38 7q-37 0 -54 -28t-26 -92z" />
    <glyph glyph-name="approxequal" unicode="&#x2248;" 
d="M484 591l134 -111q-81 -157 -192 -157q-39 0 -99 29l-20 10q-38 21 -58 21q-31 0 -65 -64l-134 111q81 157 192 157q39 0 99 -29l20 -10q38 -21 58 -21q31 0 65 64zM482 301l134 -111q-81 -157 -192 -157q-39 0 -99 29l-20 10q-38 21 -58 21q-31 0 -65 -64l-134 111
q81 157 192 157q39 0 99 -29l20 -10q38 -21 58 -21q31 0 65 64z" />
    <glyph glyph-name="notequal" unicode="&#x2260;" 
d="M83 357v172h252l27 51h189l-27 -51h57v-172h-147l-22 -42h169v-173h-259l-31 -59h-189l31 59h-50v173h140l22 42h-162z" />
    <glyph glyph-name="lessequal" unicode="&#x2264;" 
d="M535 751v-201l-182 -59v-3l182 -63v-203l-435 175v178zM100 0v210h435v-210h-435z" />
    <glyph glyph-name="greaterequal" unicode="&#x2265;" 
d="M130 550v201l435 -176v-178l-435 -175v203l182 63v3zM565 210v-210h-435v210h435z" />
    <glyph glyph-name="dotmath" unicode="&#x22c5;" horiz-adv-x="315" 
d="M42 231v205h231v-205h-231z" />
    <glyph glyph-name="lozenge" unicode="&#x25ca;" 
d="M448 0h-230l-227 356l226 359h231l225 -359zM333 211l82 145l-82 140l-84 -140z" />
    <glyph glyph-name="commaaccent" unicode="&#xf6c3;" horiz-adv-x="369" 
d="M43 -163l97 119h218l-74 -119h-241z" />
    <glyph glyph-name="uniF8FF" unicode="&#xf8ff;" horiz-adv-x="511" 
d="M256 87q-105 0 -176.5 71.5t-71.5 175.5t71.5 175t176.5 71q103 0 175 -71t72 -175t-72 -175.5t-175 -71.5z" />
    <glyph glyph-name="acute.caps" horiz-adv-x="427" 
d="M302 752h-239l94 125h279z" />
    <glyph glyph-name="grave.caps" horiz-adv-x="512" 
d="M440 752h-239l-134 125h279z" />
    <glyph glyph-name="circumflex.caps" horiz-adv-x="503" 
d="M141 877h232l103 -125h-181l-37 39l-38 -39h-180z" />
    <glyph glyph-name="caron.caps" horiz-adv-x="502" 
d="M373 752h-232l-101 125h180l38 -39l37 39h181z" />
    <glyph glyph-name="tilde.caps" horiz-adv-x="470" 
d="M188 752h-130q0 67 31 105.5t90 38.5q35 0 77 -20q27 -14 39 -14q20 0 21 26h129q0 -67 -31.5 -105.5t-88.5 -38.5q-39 0 -77 20q-27 14 -38 14q-10 0 -15.5 -5t-6.5 -21z" />
    <glyph glyph-name="macron.caps" horiz-adv-x="428" 
d="M108 752v125h273v-125h-273z" />
    <glyph glyph-name="breve.caps" horiz-adv-x="465" 
d="M254 746q-150 0 -160 137h124q5 -29 36 -29q29 0 35 29h124q-12 -137 -159 -137z" />
    <glyph glyph-name="dotaccent.caps" horiz-adv-x="328" 
d="M117 752v125h174v-125h-174z" />
    <glyph glyph-name="ring.caps" horiz-adv-x="405" 
d="M248 738q-50 0 -85 35.5t-35 86.5q0 49 35.5 84.5t85.5 35.5t85.5 -35.5t35.5 -84.5q0 -51 -35.5 -86.5t-86.5 -35.5zM216 860q0 -14 9.5 -23.5t22.5 -9.5q14 0 23 9.5t9 23.5q0 12 -9 21.5t-23 9.5q-13 0 -22.5 -9.5t-9.5 -21.5z" />
    <glyph glyph-name="cedilla.caps" horiz-adv-x="369" 
d="M26 -163l100 119h243l-78 -119h-265z" />
    <glyph glyph-name="ogonek.caps" horiz-adv-x="331" 
d="M250 -44l100 -119h-265l-78 119h243z" />
    <glyph glyph-name="hungarumlaut.caps" horiz-adv-x="612" 
d="M234 752h-215l93 125h256zM523 752h-215l93 125h256z" />
    <glyph glyph-name="dieresis.caps" horiz-adv-x="491" 
d="M54 752v125h166v-125h-166zM265 752v125h165v-125h-165z" />
    <glyph glyph-name="horn" horiz-adv-x="290" 
d="M307 715l-89 -198h-216l56 198h249z" />
    <glyph glyph-name="zero.plf" horiz-adv-x="680" 
d="M341 183q38 0 52 37.5t14 131.5q0 101 -13 141.5t-53 40.5t-53.5 -41t-13.5 -141q0 -94 14 -131.5t53 -37.5zM341 732q90 0 153 -29t97.5 -83.5t49 -119.5t14.5 -149q0 -66 -8 -118.5t-29.5 -100t-56.5 -79t-90.5 -50t-129.5 -18.5q-92 0 -155.5 27t-97.5 79t-48 114
t-14 146t14.5 149t49 119.5t98 83.5t153.5 29z" />
    <glyph glyph-name="one.plf" horiz-adv-x="515" 
d="M188 423h-175v181h24q75 0 114.5 25.5t56.5 85.5h235v-715h-255v423z" />
    <glyph glyph-name="two.plf" horiz-adv-x="669" 
d="M264 443h-237q0 132 78.5 210.5t237.5 78.5q146 0 218.5 -58t72.5 -166q0 -53 -19.5 -100t-57.5 -86.5t-73.5 -66.5t-86.5 -60h239v-195h-607v173q117 73 260 179q58 44 79.5 70.5t21.5 57.5q0 26 -15 41.5t-43 15.5q-66 0 -68 -94z" />
    <glyph glyph-name="three.plf" horiz-adv-x="666" 
d="M264 481h-226q2 118 77.5 184.5t216.5 66.5q133 0 208 -56t75 -146q0 -56 -21.5 -89t-61.5 -58q113 -59 113 -168q0 -105 -86 -168t-231 -63q-150 0 -231 69.5t-83 200.5h232q4 -47 23.5 -69.5t62.5 -22.5q36 0 55.5 17.5t19.5 47.5q0 33 -29.5 51t-82.5 18h-42l1 144h21
q60 0 84.5 16.5t24.5 47.5q0 23 -15.5 36t-40.5 13q-61 0 -64 -72z" />
    <glyph glyph-name="four.plf" horiz-adv-x="671" 
d="M643 296v-182h-68v-114h-233v114h-329v182l278 419h284v-419h68zM216 295q24 1 71 1h52v69q0 85 4 137h-1q-12 -25 -49 -85l-38 -61l-27 -43q-6 -11 -12 -18z" />
    <glyph glyph-name="five.plf" horiz-adv-x="668" 
d="M23 231h245q6 -67 72 -67q32 0 52 20.5t20 53.5q0 34 -19 55t-52 21q-50 0 -67 -42l-229 28l46 415h506v-179h-321l-8 -71q57 24 118 24q112 0 186 -65t74 -179q0 -121 -84 -191t-227 -70q-133 0 -216.5 67.5t-95.5 179.5z" />
    <glyph glyph-name="six.plf" horiz-adv-x="674" 
d="M642 502h-236q-13 49 -64 49q-74 0 -74 -106h2q51 36 136 36q110 0 176.5 -63.5t66.5 -172.5q0 -115 -81.5 -187.5t-221.5 -72.5q-154 0 -238 89.5t-84 258.5q0 192 82 296t252 104q73 0 129 -20t88.5 -54t49 -73.5t17.5 -83.5zM346 168q33 0 53 20t20 53q0 34 -20 54.5
t-55 20.5t-54.5 -20t-19.5 -53q0 -35 21.5 -55t54.5 -20z" />
    <glyph glyph-name="seven.plf" horiz-adv-x="588" 
d="M331 0h-282q11 34 22.5 65t26.5 65t24.5 57t29.5 60.5t27.5 52.5t32 57.5t30 52.5t34 58.5t32.5 55.5q-1 0 -1 1q-29 -2 -124 -2h-165v192h564v-182q-140 -194 -251 -533z" />
    <glyph glyph-name="eight.plf" horiz-adv-x="676" 
d="M259 229q0 -31 21.5 -52t58.5 -21t58 21t21 52t-21 52t-58 21t-58.5 -21t-21.5 -52zM271 511q0 -27 18.5 -44t50.5 -17t50 17t18 44t-18 44t-50 17t-50.5 -17t-18.5 -44zM338 -15q-156 0 -236 57.5t-80 162.5q0 117 118 177q-91 55 -91 155q0 86 76 140.5t213 54.5
t213 -54.5t76 -140.5q0 -100 -91 -155q118 -60 118 -177q0 -104 -80.5 -162t-235.5 -58z" />
    <glyph glyph-name="nine.plf" horiz-adv-x="672" 
d="M30 219h236q13 -52 64 -52q74 0 74 111h-2q-51 -36 -134 -36q-109 0 -176 62t-67 172q0 113 81.5 185t219.5 72q154 0 238 -89.5t84 -258.5q0 -192 -82 -296t-252 -104q-142 0 -211.5 68t-72.5 166zM326 555q-33 0 -53 -20t-20 -53q0 -34 20 -54.5t55 -20.5t54.5 20
t19.5 53q0 35 -21.5 55t-54.5 20z" />
    <glyph glyph-name="Gtilde" horiz-adv-x="795" 
d="M765 461h-267q-21 79 -98 79q-57 0 -88 -47.5t-31 -129.5q0 -90 31.5 -137.5t88.5 -47.5q36 0 60.5 17t34.5 44q-54 -2 -64 -2h-68v176h399v-413h-199q0 24 0.5 37t0.5 15q-79 -65 -202 -65q-155 0 -250 98.5t-95 271.5q0 169 106 270t278 101q157 0 247 -73t116 -194z
M340 752h-130q0 67 31 105.5t90 38.5q35 0 77 -20q27 -14 39 -14q20 0 21 26h129q0 -67 -31.5 -105.5t-88.5 -38.5q-39 0 -77 20q-27 14 -38 14q-10 0 -15.5 -5t-6.5 -21z" />
    <glyph glyph-name="gtilde" horiz-adv-x="677" 
d="M27 3h249q5 -49 57 -49q38 0 54 30.5t16 99.5h-2q-58 -58 -156 -58q-100 0 -163.5 69t-63.5 186q0 111 62.5 185t165.5 74q116 0 163 -68q-3 32 -3 53h232v-470q0 -131 -81 -190.5t-237 -59.5q-274 0 -293 198zM335 164q62 0 62 109q0 108 -63 108t-63 -107
q0 -110 64 -110zM293 579h-130q0 67 31 105.5t90 38.5q35 0 77 -20q27 -14 39 -14q20 0 21 26h129q0 -67 -31.5 -105.5t-88.5 -38.5q-39 0 -77 20q-27 14 -38 14q-10 0 -15.5 -5t-6.5 -21z" />
    <glyph glyph-name="Mcircumflex" horiz-adv-x="1061" 
d="M667 0h-275l-60 258q-19 85 -45 232h-4q4 -80 4 -234v-256h-241v715h406l35 -187q42 -232 44 -246h3q4 29 20 119.5t23 129.5l34 184h404v-715h-245v257q0 130 4 237h-4q-7 -34 -21.5 -112.5t-23.5 -118.5zM417 877h232l103 -125h-181l-37 39l-38 -39h-180z" />
    <glyph glyph-name="mcircumflex" horiz-adv-x="999" 
d="M38 525h225v-59h2q51 73 165 73q112 0 161 -77h1q61 77 177 77q121 0 168 -84q17 -31 22.5 -67.5t5.5 -108.5v-279h-240v268q0 54 -10.5 76.5t-38.5 22.5q-30 0 -42 -25.5t-12 -86.5v-255h-240v268q0 54 -10.5 76.5t-38.5 22.5q-30 0 -42 -25.5t-12 -86.5v-255h-240v438
q0 58 -1 87zM385 715h238l108 -136h-186l-40 43l-40 -43h-185z" />
    <glyph glyph-name="Mmacron" horiz-adv-x="1061" 
d="M667 0h-275l-60 258q-19 85 -45 232h-4q4 -80 4 -234v-256h-241v715h406l35 -187q42 -232 44 -246h3q4 29 20 119.5t23 129.5l34 184h404v-715h-245v257q0 130 4 237h-4q-7 -34 -21.5 -112.5t-23.5 -118.5zM397 752v125h273v-125h-273z" />
    <glyph glyph-name="mmacron" horiz-adv-x="999" 
d="M38 525h225v-59h2q51 73 165 73q112 0 161 -77h1q61 77 177 77q121 0 168 -84q17 -31 22.5 -67.5t5.5 -108.5v-279h-240v268q0 54 -10.5 76.5t-38.5 22.5q-30 0 -42 -25.5t-12 -86.5v-255h-240v268q0 54 -10.5 76.5t-38.5 22.5q-30 0 -42 -25.5t-12 -86.5v-255h-240v438
q0 58 -1 87zM369 578v137h273v-137h-273z" />
    <glyph glyph-name="Ncircumflex" horiz-adv-x="822" 
d="M776 715v-715h-321l-81 178q-65 144 -87 217h-2q4 -72 4 -150v-245h-243v715h335l81 -198q27 -62 73 -182h2q-4 68 -4 227v153h243zM304 877h232l103 -125h-181l-37 39l-38 -39h-180z" />
    <glyph glyph-name="ncircumflex" horiz-adv-x="658" 
d="M38 525h225v-59h2q51 73 165 73q119 0 166 -84q17 -31 22.5 -67.5t5.5 -108.5v-279h-240v268q0 53 -11 76t-39 23q-30 0 -42.5 -25.5t-12.5 -86.5v-255h-240v438q0 58 -1 87zM221 715h238l108 -136h-186l-40 43l-40 -43h-185z" />
    <glyph glyph-name="Ndieresis" horiz-adv-x="822" 
d="M776 715v-715h-321l-81 178q-65 144 -87 217h-2q4 -72 4 -150v-245h-243v715h335l81 -198q27 -62 73 -182h2q-4 68 -4 227v153h243zM225 752v125h166v-125h-166zM436 752v125h165v-125h-165z" />
    <glyph glyph-name="ndieresis" horiz-adv-x="658" 
d="M38 525h225v-59h2q51 73 165 73q119 0 166 -84q17 -31 22.5 -67.5t5.5 -108.5v-279h-240v268q0 53 -11 76t-39 23q-30 0 -42.5 -25.5t-12.5 -86.5v-255h-240v438q0 58 -1 87zM152 579v136h166v-136h-166zM363 579v136h165v-136h-165z" />
    <glyph glyph-name="Nmacron" horiz-adv-x="822" 
d="M776 715v-715h-321l-81 178q-65 144 -87 217h-2q4 -72 4 -150v-245h-243v715h335l81 -198q27 -62 73 -182h2q-4 68 -4 227v153h243zM274 752v125h273v-125h-273z" />
    <glyph glyph-name="nmacron" horiz-adv-x="658" 
d="M38 525h225v-59h2q51 73 165 73q119 0 166 -84q17 -31 22.5 -67.5t5.5 -108.5v-279h-240v268q0 53 -11 76t-39 23q-30 0 -42.5 -25.5t-12.5 -86.5v-255h-240v438q0 58 -1 87zM218 578v137h273v-137h-273z" />
    <glyph glyph-name="Pmacron" horiz-adv-x="690" 
d="M46 0v715h296q55 0 80 -1q122 -4 190.5 -70t68.5 -176q0 -125 -87 -192q-42 -32 -98 -42.5t-145 -10.5h-52v-223h-253zM304 529v-115h46q73 0 73 58q0 57 -76 57h-43zM200 752v125h273v-125h-273z" />
    <glyph glyph-name="pmacron" horiz-adv-x="678" 
d="M39 526h239q0 -12 -0.5 -28t-0.5 -23q52 65 153 65q105 0 167.5 -72.5t62.5 -200.5q0 -126 -64 -202.5t-171 -76.5q-102 0 -150 65q4 -48 4 -95v-138h-240v706zM342 383q-62 0 -62 -119q0 -118 63 -118q65 0 65 117q0 120 -66 120zM192 578v137h273v-137h-273z" />
    <glyph glyph-name="registered.alt" horiz-adv-x="797" 
d="M775 360q0 -158 -110 -267.5t-268 -109.5q-156 0 -265.5 110t-109.5 267t109.5 266.5t267.5 109.5q156 0 266 -110t110 -266zM691 360q0 121 -86 208t-206 87q-122 0 -207 -86.5t-85 -208.5q0 -123 84.5 -210t206.5 -87q121 0 207 87t86 210zM359 284v-130h-147v415h210
q78 0 118 -27q50 -37 50 -104q0 -92 -76 -128l92 -156h-163l-65 130h-19zM359 460v-65h32q41 0 41 34q0 31 -44 31h-29z" />
    <glyph glyph-name="uni00AD.case" horiz-adv-x="381" 
d="M40 257v201h303v-201h-303z" />
    <glyph glyph-name="endash.case" horiz-adv-x="556" 
d="M41 264v186h476v-186h-476z" />
    <glyph glyph-name="emdash.case" horiz-adv-x="921" 
d="M41 264v186h841v-186h-841z" />
    <glyph glyph-name="hyphen.case" horiz-adv-x="381" 
d="M40 257v201h303v-201h-303z" />
    <glyph glyph-name="guillemotleft.case" horiz-adv-x="623" 
d="M335 533l-96 -187l96 -188h-203l-106 188l106 187h203zM592 533l-96 -187l96 -188h-203l-106 188l106 187h203z" />
    <glyph glyph-name="guillemotright.case" horiz-adv-x="623" 
d="M384 346l-96 187h203l106 -187l-106 -188h-203zM127 346l-96 187h203l106 -187l-106 -188h-203z" />
    <glyph glyph-name="guilsinglleft.case" horiz-adv-x="366" 
d="M335 533l-96 -187l96 -188h-203l-106 188l106 187h203z" />
    <glyph glyph-name="guilsinglright.case" horiz-adv-x="366" 
d="M127 346l-96 187h203l106 -187l-106 -188h-203z" />
    <glyph glyph-name="parenleft.case" horiz-adv-x="385" 
d="M19 344q0 167 85.5 286t236.5 177v-215q-110 -96 -110 -246t110 -239v-220q-150 55 -236 174.5t-86 282.5z" />
    <glyph glyph-name="parenright.case" horiz-adv-x="385" 
d="M367 344q0 -163 -86.5 -282.5t-235.5 -174.5v220q110 89 110 239t-110 246v215q151 -58 236.5 -177t85.5 -286z" />
    <glyph glyph-name="bracketleft.case" horiz-adv-x="397" 
d="M370 79v-142h-300v828h300v-142h-98v-544h98z" />
    <glyph glyph-name="bracketright.case" horiz-adv-x="397" 
d="M27 -63v142h98v544h-98v142h300v-828h-300z" />
    <glyph glyph-name="braceleft.case" horiz-adv-x="382" 
d="M210 354v-4q43 -7 57 -33t14 -93v-73q0 -44 13 -59t49 -17v-138h-104q-88 0 -118 22q-33 25 -33 104v129q0 57 -13.5 76t-51.5 23v126q38 4 51.5 23t13.5 76v123q0 79 33 104q30 22 118 22h104v-138q-36 -2 -49 -17t-13 -59v-71q0 -67 -14 -93t-57 -33z" />
    <glyph glyph-name="braceright.case" horiz-adv-x="382" 
d="M172 350v4q-43 7 -57 33t-14 93v71q0 44 -13 59t-49 17v138h104q88 0 118 -22q33 -25 33 -104v-123q0 -57 13.5 -76t51.5 -23v-126q-38 -4 -51.5 -23t-13.5 -76v-129q0 -79 -33 -104q-30 -22 -118 -22h-104v138q36 2 49 17t13 59v73q0 67 14 93t57 33z" />
    <glyph glyph-name="bar.case" horiz-adv-x="347" 
d="M71 -42v793h205v-793h-205z" />
    <glyph glyph-name="minus.case" 
d="M83 273v204h498v-204h-498z" />
    <glyph glyph-name="multiply.case" 
d="M453 619l139 -139l-122 -122l120 -120l-137 -137l-120 120l-120 -120l-139 139l120 120l-120 120l137 137l120 -120z" />
    <glyph glyph-name="plus.case" 
d="M78 273v204h151v152h206v-152h152v-204h-152v-154h-206v154h-151z" />
    <glyph glyph-name="less.case" 
d="M534 682v-229l-184 -75v-3l184 -76v-231l-435 217v178z" />
    <glyph glyph-name="equal.case" 
d="M83 182v173h498v-173h-498zM83 397v172h498v-172h-498z" />
    <glyph glyph-name="greater.case" 
d="M131 453v229l435 -219v-178l-435 -217v231l184 76v3z" />
    <glyph glyph-name="at.case" horiz-adv-x="806" 
d="M509 529h120l-43 -229q-7 -32 -7 -39q0 -8 10 -8q29 0 53.5 45t24.5 108q0 107 -64 163t-180 56q-122 0 -198.5 -77t-76.5 -197t78 -195.5t204 -75.5q108 0 209 64l66 -71q-129 -99 -278 -99q-186 0 -292 103t-106 274q0 161 110.5 270.5t282.5 109.5q159 0 257 -89.5
t98 -222.5q0 -120 -61 -196t-152 -76q-53 0 -81 33q-50 -37 -112 -37q-75 0 -122 50.5t-47 132.5q0 93 57.5 160t145.5 67q55 0 102 -35zM417 430q-38 0 -60 -28.5t-22 -71.5q0 -30 14.5 -48t40.5 -18q37 0 59.5 31.5t22.5 74.5q0 60 -55 60z" />
    <glyph glyph-name="notequal.case" 
d="M83 397v172h252l27 51h189l-27 -51h57v-172h-147l-22 -42h169v-173h-259l-31 -59h-189l31 59h-50v173h140l22 42h-162z" />
    <glyph glyph-name="plusminus.case" 
d="M79 354v204h151v104h206v-104h152v-204h-152v-89h-206v89h-151zM79 40v204h509v-204h-509z" />
    <glyph glyph-name="lessequal.case" 
d="M536 791v-201l-182 -59v-3l182 -63v-203l-435 175v178zM101 40v210h435v-210h-435z" />
    <glyph glyph-name="greaterequal.case" 
d="M130 590v201l435 -176v-178l-435 -175v203l182 63v3zM565 250v-210h-435v210h435z" />
    <glyph glyph-name="logicalnot.case" 
d="M74 317v203h505v-342h-205v139h-300z" />
    <glyph glyph-name="approxequal.case" 
d="M484 581l134 -111q-81 -157 -192 -157q-39 0 -99 29l-20 10q-38 21 -58 21q-31 0 -65 -64l-134 111q81 157 192 157q39 0 99 -29l20 -10q38 -21 58 -21q31 0 65 64zM482 331l134 -111q-81 -157 -192 -157q-39 0 -99 29l-20 10q-38 21 -58 21q-31 0 -65 -64l-134 111
q81 157 192 157q39 0 99 -29l20 -10q38 -21 58 -21q31 0 65 64z" />
    <glyph glyph-name="divide.case" 
d="M83 258v194h498v-194h-498zM219 83v147h225v-147h-225zM219 479v147h225v-147h-225z" />
    <glyph glyph-name="infinity.case" horiz-adv-x="872" 
d="M238 570q60 0 101.5 -22t97.5 -71q55 49 98.5 71t102.5 22q94 0 150 -59t56 -154q0 -87 -53 -149.5t-149 -62.5q-62 0 -109.5 26.5t-96.5 73.5q-104 -100 -203 -100q-101 0 -152.5 62t-51.5 150q0 95 56.5 154t152.5 59zM626 322q31 0 31 36q0 17 -8.5 27t-21.5 10
q-23 0 -71 -37q49 -36 70 -36zM248 322q25 0 68 36q-45 37 -69 37q-29 0 -29 -37q0 -36 30 -36z" />
    <glyph glyph-name="zero.posf" horiz-adv-x="681" 
d="M341 180q39 0 52.5 36.5t13.5 128.5q0 99 -13 138.5t-53 39.5t-53.5 -40t-13.5 -138q0 -92 14 -128.5t53 -36.5zM341 718q90 0 153 -29t97.5 -82t49 -117t14.5 -146t-14 -143t-47.5 -112t-97 -77.5t-155.5 -26.5t-155.5 26.5t-97.5 77.5t-48 112t-14 143t14.5 146t49 117
t98 82t153.5 29z" />
    <glyph glyph-name="one.posf" horiz-adv-x="516" 
d="M189 415h-175v177h24q75 0 114.5 25t56.5 84h235v-701h-255v415z" />
    <glyph glyph-name="two.posf" horiz-adv-x="670" 
d="M265 434h-237q0 129 79 206.5t237 77.5q146 0 218.5 -57.5t72.5 -162.5q0 -52 -19.5 -98t-57.5 -84.5t-73 -65.5t-87 -59h239v-191h-607v170q116 68 260 175q58 44 79.5 70t21.5 56q0 25 -15.5 40.5t-42.5 15.5q-66 0 -68 -93z" />
    <glyph glyph-name="three.posf" horiz-adv-x="666" 
d="M264 472h-226q2 114 78 180t216 66q133 0 208 -55t75 -143q0 -54 -21.5 -86.5t-61.5 -58.5q113 -59 113 -164q0 -103 -86 -165t-231 -62q-149 0 -230.5 68.5t-83.5 196.5h232q4 -45 23.5 -67.5t62.5 -22.5q36 0 55.5 17t19.5 47q0 33 -29.5 50t-82.5 17h-42l1 141h21
q109 0 109 63q0 23 -15.5 35.5t-40.5 12.5q-61 0 -64 -70z" />
    <glyph glyph-name="four.posf" horiz-adv-x="671" 
d="M644 290v-178h-68v-112h-233v112h-329v178l278 411h284v-411h68zM217 289q24 1 71 1h52v68q0 85 4 134h-1q-28 -50 -49 -83l-38 -60q-4 -5 -27 -42q-6 -11 -12 -18z" />
    <glyph glyph-name="five.posf" horiz-adv-x="668" 
d="M24 226h245q6 -65 72 -65q32 0 52 20t20 52q0 33 -19 54t-52 21q-49 0 -67 -41l-229 27l46 407h506v-176h-321l-8 -69q55 23 118 23q112 0 186 -63.5t74 -175.5q0 -119 -84 -187.5t-227 -68.5q-133 0 -216.5 66.5t-95.5 175.5z" />
    <glyph glyph-name="six.posf" horiz-adv-x="674" 
d="M642 492h-236q-13 48 -64 48q-74 0 -74 -104h2q51 36 136 36q110 0 176.5 -62.5t66.5 -169.5q0 -113 -81.5 -184t-221.5 -71q-154 0 -238 88t-84 254q0 188 82 290t252 102q73 0 129 -20t88.5 -53t49 -72t17.5 -82zM346 165q33 0 53 19.5t20 51.5q0 33 -20 53.5t-55 20.5
t-54.5 -19.5t-19.5 -52.5q0 -34 21.5 -53.5t54.5 -19.5z" />
    <glyph glyph-name="seven.posf" horiz-adv-x="589" 
d="M332 0h-282q11 33 22.5 64t26 63.5t25 56t29.5 58.5t27.5 52t31.5 56.5t30 51.5t34 57l33 55q-1 0 -1 1q-29 -2 -124 -2h-165v188h564v-179q-141 -192 -251 -522z" />
    <glyph glyph-name="eight.posf" horiz-adv-x="676" 
d="M259 225q0 -31 21 -51.5t59 -20.5q37 0 58 20.5t21 51.5t-21 51t-58 20q-38 0 -59 -20t-21 -51zM271 501q0 -26 18.5 -43t50.5 -17t50 16.5t18 43.5t-18 43.5t-50 16.5t-50.5 -17t-18.5 -43zM338 -15q-156 0 -236 56.5t-80 159.5q0 114 118 174q-91 55 -91 151
q0 85 76 138.5t213 53.5t213 -53.5t76 -138.5q0 -96 -91 -151q118 -60 118 -174q0 -103 -80.5 -159.5t-235.5 -56.5z" />
    <glyph glyph-name="nine.posf" horiz-adv-x="673" 
d="M31 215h236q13 -51 64 -51q74 0 74 109h-2q-51 -36 -134 -36q-109 0 -176 61.5t-67 168.5q0 111 81.5 181.5t219.5 70.5q154 0 238 -88t84 -254q0 -188 -82 -290t-252 -102q-73 0 -129 19.5t-88.5 53t-49 73t-17.5 84.5zM327 544q-33 0 -53 -19.5t-20 -51.5q0 -34 20 -54
t55 -20t54.5 19.5t19.5 52.5q0 34 -21.5 53.5t-54.5 19.5z" />
    <glyph glyph-name="brokenbar.case" horiz-adv-x="347" 
d="M276 418h-205v313h205v-313zM71 251h205v-313h-205v313z" />
    <glyph glyph-name="zero.slashplf" horiz-adv-x="680" 
d="M341 732q90 0 153 -29t97.5 -83.5t49 -119.5t14.5 -149q0 -66 -8 -118.5t-29.5 -100t-56.5 -79t-90.5 -50t-129.5 -18.5q-92 0 -155.5 27t-97.5 79t-48 114t-14 146t14.5 149t49 119.5t98 83.5t153.5 29zM274 352v-23l73 204q-1 0 -3 0.5t-3 0.5q-40 0 -53.5 -41
t-13.5 -141zM337 183h4q38 0 52 37.5t14 131.5v27z" />
    <glyph glyph-name="zero.slash" 
d="M333 732q90 0 153 -29t97.5 -83.5t49 -119.5t14.5 -149q0 -66 -8 -118.5t-29.5 -100t-56.5 -79t-90.5 -50t-129.5 -18.5q-92 0 -155.5 27t-97.5 79t-48 114t-14 146t14.5 149t49 119.5t98 83.5t153.5 29zM266 352v-23l73 204q-1 0 -3 0.5t-3 0.5q-40 0 -53.5 -41
t-13.5 -141zM329 183h4q38 0 52 37.5t14 131.5v27z" />
    <glyph glyph-name="zero.tosf" 
d="M333 180q39 0 52.5 36.5t13.5 128.5q0 99 -13 138.5t-53 39.5t-53.5 -40t-13.5 -138q0 -92 14 -128.5t53 -36.5zM333 718q90 0 153 -29t97.5 -82t49 -117t14.5 -146t-14 -143t-47.5 -112t-97 -77.5t-155.5 -26.5t-155.5 26.5t-97.5 77.5t-48 112t-14 143t14.5 146t49 117
t98 82t153.5 29z" />
    <glyph glyph-name="one.tosf" 
d="M263 415h-175v177h24q75 0 114.5 25t56.5 84h235v-701h-255v415z" />
    <glyph glyph-name="two.tosf" 
d="M262 434h-237q0 129 79 206.5t237 77.5q146 0 218.5 -57.5t72.5 -162.5q0 -52 -19.5 -98t-57.5 -84.5t-73 -65.5t-87 -59h239v-191h-607v170q116 68 260 175q58 44 79.5 70t21.5 56q0 25 -15.5 40.5t-42.5 15.5q-66 0 -68 -93z" />
    <glyph glyph-name="three.tosf" 
d="M263 472h-226q2 114 78 180t216 66q133 0 208 -55t75 -143q0 -54 -21.5 -86.5t-61.5 -58.5q113 -59 113 -164q0 -103 -86 -165t-231 -62q-149 0 -230.5 68.5t-83.5 196.5h232q4 -45 23.5 -67.5t62.5 -22.5q36 0 55.5 17t19.5 47q0 33 -29.5 50t-82.5 17h-42l1 141h21
q109 0 109 63q0 23 -15.5 35.5t-40.5 12.5q-61 0 -64 -70z" />
    <glyph glyph-name="four.tosf" 
d="M641 290v-178h-68v-112h-233v112h-329v178l278 411h284v-411h68zM214 289q24 1 71 1h52v68q0 85 4 134h-1q-28 -50 -49 -83l-38 -60q-4 -5 -27 -42q-6 -11 -12 -18z" />
    <glyph glyph-name="five.tosf" 
d="M22 226h245q6 -65 72 -65q32 0 52 20t20 52q0 33 -19 54t-52 21q-49 0 -67 -41l-229 27l46 407h506v-176h-321l-8 -69q55 23 118 23q112 0 186 -63.5t74 -175.5q0 -119 -84 -187.5t-227 -68.5q-133 0 -216.5 66.5t-95.5 175.5z" />
    <glyph glyph-name="six.tosf" 
d="M637 492h-236q-13 48 -64 48q-74 0 -74 -104h2q51 36 136 36q110 0 176.5 -62.5t66.5 -169.5q0 -113 -81.5 -184t-221.5 -71q-154 0 -238 88t-84 254q0 188 82 290t252 102q73 0 129 -20t88.5 -53t49 -72t17.5 -82zM341 165q33 0 53 19.5t20 51.5q0 33 -20 53.5t-55 20.5
t-54.5 -19.5t-19.5 -52.5q0 -34 21.5 -53.5t54.5 -19.5z" />
    <glyph glyph-name="seven.tosf" 
d="M370 0h-282q11 33 22.5 64t26 63.5t25 56t29.5 58.5t27.5 52t31.5 56.5t30 51.5t34 57l33 55q-1 0 -1 1q-29 -2 -124 -2h-165v188h564v-179q-141 -192 -251 -522z" />
    <glyph glyph-name="eight.tosf" 
d="M253 225q0 -31 21 -51.5t59 -20.5q37 0 58 20.5t21 51.5t-21 51t-58 20q-38 0 -59 -20t-21 -51zM265 501q0 -26 18.5 -43t50.5 -17t50 16.5t18 43.5t-18 43.5t-50 16.5t-50.5 -17t-18.5 -43zM332 -15q-156 0 -236 56.5t-80 159.5q0 114 118 174q-91 55 -91 151
q0 85 76 138.5t213 53.5t213 -53.5t76 -138.5q0 -96 -91 -151q118 -60 118 -174q0 -103 -80.5 -159.5t-235.5 -56.5z" />
    <glyph glyph-name="nine.tosf" 
d="M27 215h236q13 -51 64 -51q74 0 74 109h-2q-51 -36 -134 -36q-109 0 -176 61.5t-67 168.5q0 111 81.5 181.5t219.5 70.5q154 0 238 -88t84 -254q0 -188 -82 -290t-252 -102q-73 0 -129 19.5t-88.5 53t-49 73t-17.5 84.5zM323 544q-33 0 -53 -19.5t-20 -51.5q0 -34 20 -54
t55 -20t54.5 19.5t19.5 52.5q0 34 -21.5 53.5t-54.5 19.5z" />
    <glyph glyph-name="zero.sub" horiz-adv-x="514" 
d="M258 14q28 0 37.5 27t9.5 99q0 75 -9.5 105t-37.5 30q-29 0 -39 -30.5t-10 -104.5q0 -71 10 -98.5t39 -27.5zM258 425q68 0 115.5 -22t72.5 -63t36 -89.5t11 -111.5q0 -132 -51.5 -203.5t-183.5 -71.5q-134 0 -185.5 71.5t-51.5 203.5q0 63 11 111.5t36.5 89.5t73.5 63
t116 22z" />
    <glyph glyph-name="one.sub" horiz-adv-x="393" 
d="M142 194h-131v136h19q55 0 84.5 19.5t42.5 64.5h177v-537h-192v317z" />
    <glyph glyph-name="two.sub" horiz-adv-x="509" 
d="M204 209h-181q0 98 59.5 157.5t178.5 59.5q109 0 163.5 -43.5t54.5 -124.5q0 -40 -14 -75t-41.5 -64t-54 -49.5t-64.5 -44.5h176v-148h-456v131q93 56 195 134q39 29 56.5 51t17.5 46q0 40 -42 40q-46 0 -48 -70z" />
    <glyph glyph-name="three.sub" horiz-adv-x="507" 
d="M202 235h-171q1 89 57.5 139t163.5 50q101 0 158 -41.5t57 -109.5q0 -73 -62 -110q84 -48 84 -126q0 -79 -65.5 -126.5t-174.5 -47.5q-112 0 -173.5 52.5t-62.5 151.5h176q6 -69 63 -69q26 0 40.5 13.5t14.5 34.5q0 24 -22.5 37t-59.5 13h-32v110h17q79 0 79 47
q0 17 -11 26.5t-29 9.5q-44 0 -47 -54z" />
    <glyph glyph-name="four.sub" horiz-adv-x="511" 
d="M485 100v-137h-51v-86h-176v86h-246v137l208 314h214v-314h51zM167 100h89v31q0 25 2 68.5t2 49.5h-2q-14 -30 -34 -60l-29 -46l-20 -31q-6 -10 -8 -12z" />
    <glyph glyph-name="five.sub" horiz-adv-x="507" 
d="M20 51h186q4 -51 53 -51q23 0 37.5 15.5t14.5 39.5t-14 40t-38 16q-35 0 -49 -32l-174 21l35 313h380v-136h-239l-6 -50q32 17 86 17q85 0 140.5 -48.5t55.5 -135.5q0 -90 -63.5 -143t-169.5 -53q-100 0 -163.5 51.5t-71.5 135.5z" />
    <glyph glyph-name="six.sub" horiz-adv-x="512" 
d="M486 250h-179q-10 37 -46 37q-28 0 -41.5 -22.5t-11.5 -53.5q42 25 100 25q83 0 133 -47.5t50 -130.5q0 -86 -61.5 -140.5t-165.5 -54.5q-117 0 -180 67.5t-63 193.5q0 300 251 300q106 0 158.5 -51.5t55.5 -122.5zM264 2q23 0 37.5 14.5t14.5 38.5q0 25 -14 40.5
t-40 15.5q-24 0 -39 -15t-15 -39q0 -26 15.5 -40.5t40.5 -14.5z" />
    <glyph glyph-name="seven.sub" horiz-adv-x="445" 
d="M252 -123h-212q21 66 51.5 132t53.5 108t66 113v-1l21 40q-32 -1 -91 -1h-125v145h424v-138q-111 -162 -188 -398z" />
    <glyph glyph-name="eight.sub" horiz-adv-x="513" 
d="M199 45q0 -22 15.5 -37.5t43.5 -15.5q26 0 41.5 15t15.5 38t-15.5 38.5t-41.5 15.5q-28 0 -43.5 -15.5t-15.5 -38.5zM208 257q0 -19 13.5 -32t36.5 -13t36 13t13 32t-13 32t-36 13t-36.5 -13t-13.5 -32zM257 -138q-118 0 -178 43t-60 122q0 88 87 133q-67 43 -67 116
q0 65 56.5 106t161.5 41q104 0 160.5 -41t56.5 -106q0 -76 -67 -116q87 -44 87 -133q0 -78 -60.5 -121.5t-176.5 -43.5z" />
    <glyph glyph-name="nine.sub" horiz-adv-x="510" 
d="M25 40h179q10 -39 47 -39q27 0 40 23t12 56q-42 -25 -99 -25q-82 0 -132.5 47.5t-50.5 129.5q0 85 61 138.5t166 53.5q116 0 178.5 -67t62.5 -194q0 -300 -250 -300q-108 0 -159.5 51t-54.5 126zM248 290q-24 0 -39 -15t-15 -39q0 -25 14.5 -40t40.5 -15q25 0 39.5 15
t14.5 39q0 26 -15.5 40.5t-39.5 14.5z" />
    <glyph glyph-name="zero.sup" horiz-adv-x="514" 
d="M258 439q28 0 37.5 27t9.5 99q0 75 -9.5 105t-37.5 30q-29 0 -39 -30.5t-10 -104.5q0 -71 10 -98.5t39 -27.5zM258 850q68 0 115.5 -22t72.5 -63t36 -89.5t11 -111.5q0 -132 -51.5 -203.5t-183.5 -71.5q-134 0 -185.5 71.5t-51.5 203.5q0 63 11 111.5t36.5 89.5t73.5 63
t116 22z" />
    <glyph glyph-name="one.sup" horiz-adv-x="393" 
d="M142 619h-131v136h19q55 0 84.5 19.5t42.5 64.5h177v-537h-192v317z" />
    <glyph glyph-name="two.sup" horiz-adv-x="509" 
d="M204 634h-181q0 98 59.5 157.5t178.5 59.5q109 0 163.5 -43.5t54.5 -124.5q0 -40 -14 -75t-41.5 -64t-54 -49.5t-64.5 -44.5h176v-148h-456v131q93 56 195 134q39 29 56.5 51t17.5 46q0 40 -42 40q-46 0 -48 -70z" />
    <glyph glyph-name="three.sup" horiz-adv-x="506" 
d="M201 660h-171q1 89 57.5 139t163.5 50q101 0 158 -41.5t57 -109.5q0 -73 -62 -110q84 -48 84 -126q0 -79 -65.5 -126.5t-174.5 -47.5q-112 0 -173.5 52.5t-62.5 151.5h176q6 -69 63 -69q26 0 40.5 13.5t14.5 34.5q0 24 -22.5 37t-59.5 13h-32v110h17q79 0 79 47
q0 17 -11 26.5t-29 9.5q-44 0 -47 -54z" />
    <glyph glyph-name="four.sup" horiz-adv-x="509" 
d="M484 525v-137h-51v-86h-176v86h-246v137l208 314h214v-314h51zM166 525h89v31q0 25 2 68.5t2 49.5h-2q-14 -30 -34 -60l-29 -46l-20 -31q-6 -10 -8 -12z" />
    <glyph glyph-name="five.sup" horiz-adv-x="507" 
d="M20 476h186q4 -51 53 -51q23 0 37.5 15.5t14.5 39.5t-14 40t-38 16q-35 0 -49 -32l-174 21l35 313h380v-136h-239l-6 -50q32 17 86 17q85 0 140.5 -48.5t55.5 -135.5q0 -90 -63.5 -143t-169.5 -53q-100 0 -163.5 51.5t-71.5 135.5z" />
    <glyph glyph-name="six.sup" horiz-adv-x="511" 
d="M485 675h-179q-10 37 -46 37q-28 0 -41.5 -22.5t-11.5 -53.5q42 25 100 25q83 0 133 -47.5t50 -130.5q0 -86 -61.5 -140.5t-165.5 -54.5q-117 0 -180 67.5t-63 193.5q0 300 251 300q106 0 158.5 -51.5t55.5 -122.5zM263 427q23 0 37.5 14.5t14.5 38.5q0 25 -14 40.5
t-40 15.5q-24 0 -39 -15t-15 -39q0 -26 15.5 -40.5t40.5 -14.5z" />
    <glyph glyph-name="seven.sup" horiz-adv-x="444" 
d="M251 302h-212q21 66 51.5 132t53.5 108t66 113v-1l21 40q-32 -1 -91 -1h-125v145h424v-138q-111 -162 -188 -398z" />
    <glyph glyph-name="eight.sup" horiz-adv-x="513" 
d="M199 470q0 -22 15.5 -37.5t43.5 -15.5q26 0 41.5 15t15.5 38t-15.5 38.5t-41.5 15.5q-28 0 -43.5 -15.5t-15.5 -38.5zM208 682q0 -19 13.5 -32t36.5 -13t36 13t13 32t-13 32t-36 13t-36.5 -13t-13.5 -32zM257 287q-118 0 -178 43t-60 122q0 88 87 133q-67 43 -67 116
q0 65 56.5 106t161.5 41q104 0 160.5 -41t56.5 -106q0 -76 -67 -116q87 -43 87 -133q0 -78 -60.5 -121.5t-176.5 -43.5z" />
    <glyph glyph-name="nine.sup" horiz-adv-x="509" 
d="M25 465h179q10 -39 47 -39q27 0 40 23t12 56q-42 -25 -99 -25q-82 0 -132.5 47.5t-50.5 129.5q0 85 61 138.5t166 53.5q116 0 178.5 -67t62.5 -194q0 -300 -250 -300q-108 0 -159.5 51t-54.5 126zM248 715q-24 0 -39 -15t-15 -39q0 -25 14.5 -40t40.5 -15q25 0 39.5 15
t14.5 39q0 26 -15.5 40.5t-39.5 14.5z" />
    <glyph glyph-name="a.sub" horiz-adv-x="449" 
d="M427 -119v-4h-149q0 1 -0.5 4t-0.5 5l-2 25q-39 -42 -119 -42q-69 0 -108 31.5t-39 87.5q0 87 121 118q50 14 130 21q-1 24 -9 35t-30 11q-37 0 -39 -38h-158q5 71 57.5 110t140.5 39q99 0 149.5 -41t50.5 -138v-151q0 -42 5 -73zM259 35l-19 -3q-41 -6 -55 -14.5
t-14 -23.5q0 -29 36 -29q52 0 52 59v11z" />
    <glyph glyph-name="b.sub" horiz-adv-x="511" 
d="M207 -123h-176v536h182v-177q38 46 112 46q79 0 125 -54.5t46 -150.5q0 -95 -47 -152t-128 -57q-79 0 -115 51q1 -12 1 -42zM259 163q-45 0 -45 -88t45 -88q47 0 47 87q0 89 -47 89z" />
    <glyph glyph-name="c.sub" horiz-adv-x="458" 
d="M277 29h173q-12 -73 -68 -117t-149 -44q-103 0 -161 57t-58 151q0 95 59.5 153t162.5 58q88 0 144.5 -44.5t68.5 -119.5h-172q-6 24 -15 35.5t-26 11.5q-46 0 -46 -93q0 -47 10.5 -69.5t35.5 -22.5q19 0 27 10t14 34z" />
    <glyph glyph-name="d.sub" horiz-adv-x="511" 
d="M480 -123h-174v39q-40 -48 -119 -48q-80 0 -126 54.5t-46 151.5q0 94 47.5 151t127.5 57q65 0 110 -45q-1 28 -1 72v104h181v-536zM253 -13q46 0 46 88q0 87 -47 87q-45 0 -45 -86q0 -89 46 -89z" />
    <glyph glyph-name="e.sub" horiz-adv-x="469" 
d="M283 16l175 -1q-21 -64 -79 -105.5t-148 -41.5q-102 0 -159.5 56.5t-57.5 154.5q0 94 61 151t165 57q106 0 163.5 -58.5t57.5 -166.5q0 -4 -0.5 -8t-0.5 -5v-5h-276q5 -58 51 -58q32 0 48 30zM186 129h101q-6 51 -49 51q-47 0 -52 -51z" />
    <glyph glyph-name="f.sub" horiz-adv-x="301" 
d="M54 271v19q0 66 40 98t132 32q30 0 52 -2h6l3 -1v-112q-8 2 -17 2q-33 0 -36 -36h53v-125h-51v-269h-182v269h-36v125h36z" />
    <glyph glyph-name="g.sub" horiz-adv-x="509" 
d="M20 -119h189q5 -36 41 -36q27 0 38.5 22t11.5 71q-43 -41 -115 -41q-76 0 -124 51.5t-48 139.5q0 84 47 139t125 55q85 0 120 -47q-2 22 -2 36h175v-352q0 -99 -60.5 -143.5t-177.5 -44.5q-206 0 -220 150zM251 1q46 0 46 81q0 80 -47 80q-45 0 -45 -79q0 -82 46 -82z
" />
    <glyph glyph-name="h.sub" horiz-adv-x="499" 
d="M212 279v-38q37 41 113 41q92 0 126 -64q21 -36 21 -131v-210h-183v201q0 40 -8 57t-29 17q-22 0 -30.5 -19t-8.5 -64v-192h-182v537h182v-83q0 -10 -0.5 -27t-0.5 -25z" />
    <glyph glyph-name="i.sub" horiz-adv-x="242" 
d="M31 307v107h180v-107h-180zM211 -123h-180v394h180v-394z" />
    <glyph glyph-name="j.sub" horiz-adv-x="242" 
d="M-12 -140q26 0 34.5 13t8.5 47v351h180v-393q0 -83 -38.5 -114t-125.5 -31q-57 0 -75 6v122q7 -1 16 -1zM31 307v107h180v-107h-180z" />
    <glyph glyph-name="k.sub" horiz-adv-x="511" 
d="M213 -123h-182v537h182l1 -301l19 32q14 23 43 70.5t34 55.5h210q-19 -25 -64.5 -84t-75.5 -97q73 -107 150 -213h-216q-82 133 -101 175v-175z" />
    <glyph glyph-name="l.sub" horiz-adv-x="243" 
d="M31 414h181v-537h-181v537z" />
    <glyph glyph-name="m.sub" horiz-adv-x="754" 
d="M30 271h171v-13q0 -4 0.5 -12.5t0.5 -15.5q39 52 122 52q84 0 122 -57q47 57 133 57q91 0 127 -64q13 -23 17 -49.5t4 -81.5v-210h-183v201q0 40 -7.5 57t-27.5 17q-22 0 -30.5 -19t-8.5 -64v-192h-183v201q0 40 -7.5 57t-27.5 17q-22 0 -30.5 -19t-8.5 -64v-192h-182
v328q0 43 -1 66z" />
    <glyph glyph-name="n.sub" horiz-adv-x="499" 
d="M30 271h172v-23t1 -18q37 52 122 52q90 0 126 -64q13 -23 17 -49.5t4 -81.5v-210h-183v201q0 40 -8 57t-29 17q-22 0 -30.5 -19t-8.5 -64v-192h-182v328q0 43 -1 66z" />
    <glyph glyph-name="o.sub" horiz-adv-x="471" 
d="M234 284q105 0 164.5 -58t59.5 -153t-58.5 -151.5t-164.5 -56.5t-164 56.5t-58 152.5q0 95 59 152.5t162 57.5zM233 166q-44 0 -44 -92q0 -47 10 -69t35 -22t35.5 22t10.5 68q0 93 -47 93z" />
    <glyph glyph-name="p.sub" horiz-adv-x="511" 
d="M31 271h181q0 -5 -0.5 -13t-0.5 -11v-11q38 46 113 46q80 0 126 -54t46 -151q0 -95 -47.5 -152t-128.5 -57q-76 0 -109 45q2 -16 2 -67v-104h-182v529zM258 163q-45 0 -45 -88t46 -88q47 0 47 87q0 89 -48 89z" />
    <glyph glyph-name="q.sub" horiz-adv-x="511" 
d="M305 271h175v-529h-181v104q0 42 1 62q-42 -40 -113 -40q-79 0 -125.5 55t-46.5 151q0 95 47 151.5t128 56.5q73 0 116 -45q0 1 -0.5 6t-0.5 8v20zM253 -13q46 0 46 88q0 87 -47 87q-45 0 -45 -86q0 -89 46 -89z" />
    <glyph glyph-name="r.sub" horiz-adv-x="332" 
d="M31 -123v323q0 46 -1 71h174v-43q26 53 101 53q12 0 22 -2v-152q-15 3 -32 3q-47 0 -66 -33q-18 -30 -18 -116v-104h-180z" />
    <glyph glyph-name="s.sub" horiz-adv-x="454" 
d="M7 10h170q6 -46 53 -46q40 0 40 23q0 11 -10.5 16t-36.5 11q-9 2 -29 7t-31 7q-76 16 -110 45.5t-34 82.5q0 60 51 93.5t153 33.5q193 0 210 -141h-163q-6 43 -48 43q-34 0 -34 -22q0 -11 10 -16t43 -14l50 -12q79 -19 116 -49t37 -79q0 -130 -215 -130q-107 0 -159.5 37
t-62.5 110z" />
    <glyph glyph-name="t.sub" horiz-adv-x="331" 
d="M63 146h-54v125h54v105h181v-105h64v-125h-64v-57q0 -57 6.5 -75.5t34.5 -18.5q11 0 14 1q1 0 3 0.5l2 0.5v-122q-24 -6 -80 -6q-82 0 -121.5 31t-39.5 109v137z" />
    <glyph glyph-name="u.sub" horiz-adv-x="498" 
d="M468 -123h-171v13q0 4 -2 28q-39 -52 -121 -52q-90 0 -126 64q-13 23 -17 49.5t-4 81.5v210h183v-201q0 -40 7.5 -57t27.5 -17q23 0 31.5 18.5t8.5 64.5v192h182v-328q0 -43 1 -66z" />
    <glyph glyph-name="v.sub" horiz-adv-x="473" 
d="M123 -123l-32 97q-60 181 -100 297h198q28 -140 49 -222l21 97q21 96 28 125h194q-13 -36 -73 -220q-39 -117 -59 -174h-226z" />
    <glyph glyph-name="w.sub" horiz-adv-x="728" 
d="M108 -123l-1 1q-39 133 -62 220l-48 173h193l21 -98q8 -36 16 -84l4 -12q15 76 21 101q5 31 19 93h188l21 -93l9 -45q9 -48 13 -59v5l18 99l21 93h191l-46 -160q-5 -15 -65 -234h-220l-18 85q-4 18 -10 48.5t-10 44.5q-3 -10 -7.5 -33.5t-6.5 -33.5q-2 -4 -3 -12.5
t-2 -12.5l-18 -86h-218z" />
    <glyph glyph-name="x.sub" horiz-adv-x="475" 
d="M-12 -123l137 201l-139 193h210l43 -77l43 77h202l-135 -192l143 -202h-208q-34 57 -47 76l-29 -52l-15 -24h-205z" />
    <glyph glyph-name="y.sub" horiz-adv-x="476" 
d="M286 271h199q-13 -38 -56 -156.5t-78.5 -219t-53.5 -153.5h-208l20 55q6 16 15.5 44.5t12.5 35.5q-75 184 -146 394h199l23 -94l22 -93l3 1q15 65 29 112z" />
    <glyph glyph-name="z.sub" horiz-adv-x="435" 
d="M22 -123v116q16 17 43 43t32 31q13 13 30 29.5t27 26.5t17 18q-31 -1 -92 -1h-53v131h380v-116l-65 -66q-49 -49 -79 -82q4 0 9.5 0.5t7.5 0.5q21 1 74 1h62v-132h-393z" />
    <glyph glyph-name="a.sup" horiz-adv-x="449" 
d="M427 306v-4h-149q0 2 -0.5 5t-0.5 4l-2 25q-39 -42 -119 -42q-69 0 -108 31.5t-39 87.5q0 87 121 118q50 14 130 21q-1 24 -9 35t-30 11q-37 0 -39 -38h-158q5 71 57.5 110t140.5 39q99 0 149.5 -41t50.5 -138v-151q0 -42 5 -73zM259 460l-19 -3q-41 -6 -55 -14.5
t-14 -23.5q0 -29 36 -29q52 0 52 59v11z" />
    <glyph glyph-name="b.sup" horiz-adv-x="511" 
d="M207 302h-176v536h182v-177q38 46 112 46q79 0 125 -54.5t46 -150.5q0 -95 -47 -152t-128 -57q-79 0 -115 51q1 -12 1 -42zM259 588q-45 0 -45 -88t45 -88q47 0 47 87q0 89 -47 89z" />
    <glyph glyph-name="c.sup" horiz-adv-x="455" 
d="M276 454h173q-12 -73 -68 -117t-149 -44q-103 0 -161 57t-58 151q0 95 59.5 153t162.5 58q88 0 144.5 -44.5t68.5 -119.5h-172q-6 24 -15 35.5t-26 11.5q-46 0 -46 -93q0 -47 10.5 -69.5t35.5 -22.5q19 0 27 10t14 34z" />
    <glyph glyph-name="d.sup" horiz-adv-x="511" 
d="M480 302h-174v39q-40 -48 -119 -48q-80 0 -126 54.5t-46 151.5q0 94 47.5 151t127.5 57q65 0 110 -45q-1 28 -1 72v104h181v-536zM253 412q46 0 46 88q0 87 -47 87q-45 0 -45 -86q0 -89 46 -89z" />
    <glyph glyph-name="e.sup" horiz-adv-x="468" 
d="M282 441l175 -1q-21 -64 -79 -105.5t-148 -41.5q-102 0 -159.5 56.5t-57.5 154.5q0 94 61 151t165 57q106 0 163.5 -58.5t57.5 -166.5q0 -4 -0.5 -8t-0.5 -5v-5h-276q5 -58 51 -58q32 0 48 30zM185 554h101q-6 51 -49 51q-47 0 -52 -51z" />
    <glyph glyph-name="f.sup" horiz-adv-x="302" 
d="M54 696v19q0 66 40 98t132 32q30 0 52 -2q2 0 6 -1h3v-112q-8 2 -17 2q-33 0 -36 -36h53v-125h-51v-269h-182v269h-36v125h36z" />
    <glyph glyph-name="g.sup" horiz-adv-x="512" 
d="M23 306h189q5 -36 41 -36q27 0 38.5 22t11.5 71q-43 -41 -115 -41q-76 0 -124 51.5t-48 139.5q0 84 47 139t125 55q85 0 120 -47q-2 22 -2 36h175v-352q0 -99 -60.5 -143.5t-177.5 -44.5q-206 0 -220 150zM254 426q46 0 46 81q0 80 -47 80q-45 0 -45 -79q0 -82 46 -82z
" />
    <glyph glyph-name="h.sup" horiz-adv-x="499" 
d="M212 704v-38q37 41 113 41q92 0 126 -64q21 -36 21 -131v-210h-183v201q0 40 -8 57t-29 17q-22 0 -30.5 -19t-8.5 -64v-192h-182v537h182v-83q0 -10 -0.5 -27t-0.5 -25z" />
    <glyph glyph-name="i.sup" horiz-adv-x="242" 
d="M31 732v107h180v-107h-180zM211 302h-180v394h180v-394z" />
    <glyph glyph-name="j.sup" horiz-adv-x="242" 
d="M-12 285q26 0 34.5 13t8.5 47v351h180v-393q0 -83 -38.5 -114t-125.5 -31q-57 0 -75 6v122q7 -1 16 -1zM31 732v107h180v-107h-180z" />
    <glyph glyph-name="k.sup" horiz-adv-x="511" 
d="M213 302h-182v537h182l1 -301l19 32q14 23 43 70.5t34 55.5h210q-19 -25 -64.5 -84t-75.5 -97q73 -107 150 -213h-216q-82 133 -101 175v-175z" />
    <glyph glyph-name="l.sup" horiz-adv-x="243" 
d="M31 839h181v-537h-181v537z" />
    <glyph glyph-name="m.sup" horiz-adv-x="754" 
d="M30 696h171v-13q0 -4 0.5 -12.5t0.5 -15.5q39 52 122 52q84 0 122 -57q47 57 133 57q91 0 127 -64q13 -23 17 -49.5t4 -81.5v-210h-183v201q0 40 -7.5 57t-27.5 17q-22 0 -30.5 -19t-8.5 -64v-192h-183v201q0 40 -7.5 57t-27.5 17q-22 0 -30.5 -19t-8.5 -64v-192h-182
v328q0 43 -1 66z" />
    <glyph glyph-name="n.sup" horiz-adv-x="499" 
d="M30 696h172v-23t1 -18q37 52 122 52q90 0 126 -64q13 -23 17 -49.5t4 -81.5v-210h-183v201q0 40 -8 57t-29 17q-22 0 -30.5 -19t-8.5 -64v-192h-182v328q0 43 -1 66z" />
    <glyph glyph-name="o.sup" horiz-adv-x="471" 
d="M234 709q105 0 164.5 -58t59.5 -153t-58.5 -151.5t-164.5 -56.5t-164 56.5t-58 152.5q0 95 59 152.5t162 57.5zM233 591q-44 0 -44 -92q0 -47 10 -69t35 -22t35.5 22t10.5 68q0 93 -47 93z" />
    <glyph glyph-name="p.sup" horiz-adv-x="511" 
d="M31 696h181q0 -5 -0.5 -13t-0.5 -11v-11q38 46 113 46q80 0 126 -54t46 -151q0 -95 -47.5 -152t-128.5 -57q-76 0 -109 45q2 -16 2 -67v-104h-182v529zM258 588q-45 0 -45 -88t46 -88q47 0 47 87q0 89 -48 89z" />
    <glyph glyph-name="q.sup" horiz-adv-x="511" 
d="M305 696h175v-529h-181v104q0 42 1 62q-42 -40 -113 -40q-79 0 -125.5 55t-46.5 151q0 95 47 151.5t128 56.5q73 0 116 -45q0 1 -0.5 6t-0.5 8v20zM253 412q46 0 46 88q0 87 -47 87q-45 0 -45 -86q0 -89 46 -89z" />
    <glyph glyph-name="r.sup" horiz-adv-x="333" 
d="M31 302v323q0 46 -1 71h174v-43q26 53 101 53q12 0 22 -2v-152q-15 3 -32 3q-47 0 -66 -33q-18 -30 -18 -116v-104h-180z" />
    <glyph glyph-name="s.sup" horiz-adv-x="453" 
d="M7 435h170q6 -46 53 -46q40 0 40 23q0 11 -10.5 16t-36.5 11q-9 2 -29 7t-31 7q-76 16 -110 45.5t-34 82.5q0 60 51 93.5t153 33.5q193 0 210 -141h-163q-6 43 -48 43q-34 0 -34 -22q0 -11 10 -16t43 -14l50 -12q79 -19 116 -49t37 -79q0 -130 -215 -130
q-107 0 -159.5 37t-62.5 110z" />
    <glyph glyph-name="t.sup" horiz-adv-x="330" 
d="M62 571h-54v125h54v105h181v-105h64v-125h-64v-57q0 -57 6.5 -75.5t34.5 -18.5q11 0 14 1l2 1h3v-122q-24 -6 -80 -6q-82 0 -121.5 31t-39.5 109v137z" />
    <glyph glyph-name="u.sup" horiz-adv-x="497" 
d="M467 302h-171v13q0 4 -2 28q-39 -52 -121 -52q-90 0 -126 64q-13 23 -17 49.5t-4 81.5v210h183v-201q0 -40 7.5 -57t27.5 -17q23 0 31.5 18.5t8.5 64.5v192h182v-328q0 -43 1 -66z" />
    <glyph glyph-name="v.sup" horiz-adv-x="475" 
d="M124 302l-32 97q-60 181 -100 297h198q28 -140 49 -222l21 97q21 96 28 125h194q-13 -36 -73 -220q-39 -117 -59 -174h-226z" />
    <glyph glyph-name="w.sup" horiz-adv-x="729" 
d="M109 302l-1 1q-39 133 -62 220l-48 173h193l21 -98q8 -36 16 -84l4 -12q15 76 21 101q5 31 19 93h188l21 -93l9 -45q9 -48 13 -59v5l18 99l21 93h191l-46 -160q-5 -15 -65 -234h-220l-18 85q-4 18 -10 48.5t-10 44.5q-3 -11 -7.5 -33.5t-6.5 -33.5q-2 -4 -3 -12.5
t-2 -12.5l-18 -86h-218z" />
    <glyph glyph-name="x.sup" horiz-adv-x="475" 
d="M-12 302l137 201l-139 193h210l43 -77l43 77h202l-135 -192l143 -202h-208q-34 57 -47 76l-29 -52l-15 -24h-205z" />
    <glyph glyph-name="y.sup" horiz-adv-x="476" 
d="M286 696h199q-13 -38 -56 -156.5t-78.5 -219t-53.5 -153.5h-208l20 55q6 16 15.5 44.5t12.5 35.5q-75 184 -146 394h199l23 -94l22 -93l3 1q15 65 29 112z" />
    <glyph glyph-name="z.sup" horiz-adv-x="435" 
d="M22 302v116q16 17 43 43t32 31l74 74q-31 -1 -92 -1h-53v131h380v-116l-65 -66q-49 -49 -79 -82q4 0 9.5 0.5t7.5 0.5q21 1 74 1h62v-132h-393z" />
    <glyph glyph-name="idotaccent" horiz-adv-x="317" 
d="M39 575v140h239v-140h-239zM278 0h-239v525h239v-525z" />
    </font>
</defs>
</svg>
