<?xml version="1.0" standalone="no"?>
<!DOCTYPE svg PUBLIC "-//W3C//DTD SVG 1.1//EN" "http://www.w3.org/Graphics/SVG/1.1/DTD/svg11.dtd" >
<svg>
<metadata>
Created by FontForge 20120731 at Tue Dec 15 21:07:55 2015
 By ,,,
(c)2013 Optimo. wf-rip
</metadata>
<defs>
<font id="Plain-MediumIta" horiz-adv-x="586" >
  <font-face 
    font-family="Plain Medium"
    font-weight="600"
    font-style="italic"
    font-stretch="normal"
    units-per-em="1000"
    panose-1="2 11 0 4 2 2 2 2 2 4"
    ascent="803"
    descent="-197"
    x-height="525"
    cap-height="715"
    bbox="-115 -274 1324 1073"
    underline-thickness="50"
    underline-position="-50"
    slope="-10"
    unicode-range="U+000D-FB02"
  />
<missing-glyph horiz-adv-x="644" 
d="M50 240v49l309 309q14 -8 26 -23zM50 142v49l347 347v-15q0 -20 -13.5 -37.5t-41.5 -39.5t-37 -31q-23 -23 -36 -54zM104 0h-49l261 261h49l-93 -93h-23v-23zM321 168l273 273v-49l-224 -224h-49zM50 338v49l148 148l39 -2q0 29 20 52t55 23h8zM398 0h-49l33 33h2v2
l210 210v-49zM384 133l210 210v-49l-210 -210v49zM50 44v49l206 206v-38h11zM50 583l196 196h49l-44 -44q-54 -14 -93 -53.5t-54 -93.5l-54 -54v49zM537 482l57 57v-49l-216 -216v7q0 12 2.5 21t11 18.5t12.5 13.5t21 16t23 16q1 1 10 7.5t14 10.5t14.5 12.5t15.5 16.5
t13.5 18.5t13 23.5t8.5 27zM50 681l98 98h49l-147 -147v49zM496 0h-49l147 147v-49zM459 698l81 81h49l-104 -104q-25 22 -26 23zM50 436v49l56 56l46 -3zM506 647l88 88v-49l-70 -70q-6 13 -18 31zM202 0h-49l96 96v-49zM395 732l47 47h49l-62 -62q-15 8 -34 15zM536 579
l58 58v-49l-52 -52q0 13 -6 43zM307 742l37 37h49l-38 -38q-18 2 -28 2q-2 0 -6.5 -0.5t-6.5 -0.5h-7zM300 0h-49l33 33h49zM594 49v-49h-49zM50 779h49l-49 -49v49z" />
    <glyph glyph-name="fi" unicode="fi" horiz-adv-x="568" 
d="M379 719l-18 -99q-14 2 -22 2q-65 0 -75 -59l-7 -38h87l-17 -96h-86l-76 -429h-122l75 429h-68l17 96h68l10 49q30 148 195 148q18 0 39 -3zM322 0l92 525h123l-93 -525h-122zM424 601l20 114h127l-20 -114h-127z" />
    <glyph glyph-name="fl" unicode="fl" horiz-adv-x="569" 
d="M379 719l-18 -99q-14 2 -22 2q-65 0 -75 -59l-7 -38h87l-17 -96h-86l-76 -429h-122l75 429h-68l17 96h68l10 49q30 148 195 148q18 0 39 -3zM320 0l125 715h123l-126 -715h-122z" />
    <glyph glyph-name=".notdef" horiz-adv-x="644" 
d="M50 240v49l309 309q14 -8 26 -23zM50 142v49l347 347v-15q0 -20 -13.5 -37.5t-41.5 -39.5t-37 -31q-23 -23 -36 -54zM104 0h-49l261 261h49l-93 -93h-23v-23zM321 168l273 273v-49l-224 -224h-49zM50 338v49l148 148l39 -2q0 29 20 52t55 23h8zM398 0h-49l33 33h2v2
l210 210v-49zM384 133l210 210v-49l-210 -210v49zM50 44v49l206 206v-38h11zM50 583l196 196h49l-44 -44q-54 -14 -93 -53.5t-54 -93.5l-54 -54v49zM537 482l57 57v-49l-216 -216v7q0 12 2.5 21t11 18.5t12.5 13.5t21 16t23 16q1 1 10 7.5t14 10.5t14.5 12.5t15.5 16.5
t13.5 18.5t13 23.5t8.5 27zM50 681l98 98h49l-147 -147v49zM496 0h-49l147 147v-49zM459 698l81 81h49l-104 -104q-25 22 -26 23zM50 436v49l56 56l46 -3zM506 647l88 88v-49l-70 -70q-6 13 -18 31zM202 0h-49l96 96v-49zM395 732l47 47h49l-62 -62q-15 8 -34 15zM536 579
l58 58v-49l-52 -52q0 13 -6 43zM307 742l37 37h49l-38 -38q-18 2 -28 2q-2 0 -6.5 -0.5t-6.5 -0.5h-7zM300 0h-49l33 33h49zM594 49v-49h-49zM50 779h49l-49 -49v49z" />
    <glyph glyph-name=".null" horiz-adv-x="0" 
 />
    <glyph glyph-name="nonmarkingreturn" horiz-adv-x="333" 
 />
    <glyph glyph-name="NULL" horiz-adv-x="0" 
 />
    <glyph glyph-name="NULL" horiz-adv-x="0" 
 />
    <glyph glyph-name="CR" unicode="&#xd;" horiz-adv-x="0" 
 />
    <glyph glyph-name="space" unicode=" " horiz-adv-x="247" 
 />
    <glyph glyph-name="exclam" unicode="!" horiz-adv-x="305" 
d="M181 186h-100q44 320 62 425l19 108h126l-19 -108q-17 -95 -88 -425zM34 0l22 124h129l-22 -124h-129z" />
    <glyph glyph-name="quotedbl" unicode="&#x22;" horiz-adv-x="412" 
d="M189 451h-93q0 12 14 123t20 141h119q-17 -94 -60 -264zM365 451h-93q0 12 14 123t20 141h119q-17 -94 -60 -264z" />
    <glyph glyph-name="numbersign" unicode="#" 
d="M250 0l71 228h-114l-71 -228h-80l71 228h-103l23 75h103l37 120h-104l23 75h104l68 217h80l-68 -217h114l68 217h80l-68 -217h97l-23 -75h-97l-37 -120h98l-23 -75h-98l-71 -228h-80zM267 423l-37 -120h114l37 120h-114z" />
    <glyph glyph-name="dollar" unicode="$" 
d="M150 -117l20 115q-81 19 -123.5 72.5t-37.5 131.5h122q2 -49 36.5 -77t96.5 -28q63 0 101.5 28.5t38.5 76.5q0 39 -26.5 58.5t-88.5 40.5l-36 12q-88 29 -127 72t-39 121q0 86 57 144t153 70l19 108h117l-20 -111q81 -16 122.5 -66t36.5 -122h-121q-3 40 -33 63t-80 23
q-56 0 -86.5 -25t-30.5 -65q0 -34 21.5 -55t69.5 -39l33 -12q47 -17 75.5 -30.5t59 -35.5t44.5 -52.5t14 -71.5q0 -105 -67 -168t-185 -71l-19 -107h-117z" />
    <glyph glyph-name="percent" unicode="%" horiz-adv-x="870" 
d="M190 0l426 715h81l-426 -715h-81zM264 725q74 0 111 -40q21 -21 23 -74q0 -47 -10 -91q-8 -39 -14 -61.5t-21.5 -51.5t-37.5 -47q-44 -37 -117 -37q-74 0 -111 40q-21 21 -23 74q0 47 10 91q8 39 14 61.5t21.5 51.5t37.5 47q44 37 117 37zM208 395q31 0 50.5 17.5t27 39
t15.5 59.5l4 23q7 37 7 60q-1 29 -13 44t-44 15q-31 0 -50.5 -17.5t-27 -39t-15.5 -59.5l-4 -23q-7 -37 -7 -60q1 -29 13 -44t44 -15zM690 387q74 0 111 -40q21 -21 23 -74q0 -47 -10 -91q-8 -39 -14 -61.5t-21.5 -51.5t-37.5 -47q-44 -37 -117 -37q-74 0 -111 40
q-21 21 -23 74q0 47 10 91q8 39 14 61.5t21.5 51.5t37.5 47q44 37 117 37zM634 57q31 0 50.5 17.5t27 39t15.5 59.5l4 23q7 37 7 60q-1 29 -13 44t-44 15q-31 0 -50.5 -17.5t-27 -39t-15.5 -59.5l-4 -23q-7 -37 -7 -60q1 -29 13 -44t44 -15z" />
    <glyph glyph-name="ampersand" unicode="&#x26;" horiz-adv-x="676" 
d="M619 51l-107 -69l-69 99q-97 -95 -217 -95q-92 0 -144.5 51.5t-52.5 131.5t51.5 136.5t144.5 103.5q-49 73 -49 145q0 74 52.5 125t146.5 51q83 0 129 -41t46 -107q0 -115 -166 -200l80 -120q24 32 79 129l120 -10q-79 -141 -132 -205zM332 459q52 25 77 47t25 59
q0 28 -17 46t-49 18q-35 0 -54 -22t-19 -54q0 -50 37 -94zM386 162q-8 10 -18.5 26t-36 55t-56.5 84q-122 -55 -122 -137q0 -45 27 -72t70 -27q79 0 136 71z" />
    <glyph glyph-name="quotesingle" unicode="'" horiz-adv-x="236" 
d="M189 451h-93q0 12 14 123t20 141h119q-17 -94 -60 -264z" />
    <glyph glyph-name="parenleft" unicode="(" horiz-adv-x="333" 
d="M234 -42l-20 -115q-80 56 -130.5 154t-50.5 239q0 170 98 318t244 205l-20 -115q-97 -71 -151 -180t-54 -236q0 -162 84 -270z" />
    <glyph glyph-name="parenright" unicode=")" horiz-adv-x="332" 
d="M97 644l20 115q80 -56 130.5 -154t50.5 -239q0 -170 -98 -318t-244 -205l20 115q97 69 151 179.5t54 236.5q0 162 -84 270z" />
    <glyph glyph-name="asterisk" unicode="*" horiz-adv-x="458" 
d="M348 704l-32 -125l126 28l13 -96l-129 -8l66 -110l-87 -43l-48 119l-85 -96l-67 70l99 82l-118 51l46 86l108 -69l13 128z" />
    <glyph glyph-name="plus" unicode="+" 
d="M74 268v107h167v175h107v-175h168v-107h-168v-176h-107v176h-167z" />
    <glyph glyph-name="comma" unicode="," horiz-adv-x="268" 
d="M182 134l-132 -255h-109l116 255h125z" />
    <glyph glyph-name="hyphen" unicode="-" horiz-adv-x="396" 
d="M50 241l19 105h272l-19 -105h-272z" />
    <glyph glyph-name="period" unicode="." horiz-adv-x="255" 
d="M10 0l23 134h129l-23 -134h-129z" />
    <glyph glyph-name="slash" unicode="/" horiz-adv-x="402" 
d="M-46 -105l376 820h116l-375 -820h-117z" />
    <glyph glyph-name="zero" unicode="0" 
d="M255 95q36 0 63.5 20t46 58.5t30.5 81t22 100.5q15 85 15 140q0 123 -87 123q-36 0 -63.5 -20t-46 -58.5t-30.5 -81t-22 -100.5q-15 -85 -15 -140q0 -123 87 -123zM360 730q208 0 208 -234q0 -57 -13 -137q-10 -62 -24.5 -111.5t-39.5 -100t-57.5 -84.5t-81.5 -55.5
t-110 -21.5q-208 0 -208 234q0 57 13 137q10 62 24.5 111.5t39.5 100t57.5 84.5t81.5 55.5t110 21.5z" />
    <glyph glyph-name="one" unicode="1" 
d="M314 510h-171l17 97q94 2 139 26t65 82h115l-127 -715h-128z" />
    <glyph glyph-name="two" unicode="2" 
d="M9 0l19 108q20 15 60 45.5t58.5 44.5t49.5 38t60 48.5t63 53.5q119 101 119 187q0 43 -27.5 68t-73.5 25q-57 0 -92 -37t-37 -95h-120q2 102 75.5 172.5t192.5 70.5q97 0 154 -49.5t57 -131.5q0 -41 -15.5 -82.5t-36.5 -73t-56.5 -67t-62.5 -58t-67 -53.5
q-28 -21 -79.5 -58t-65.5 -47h309l-19 -109h-465z" />
    <glyph glyph-name="three" unicode="3" 
d="M239 339l18 101q157 0 157 113q0 34 -23.5 52t-61.5 18q-41 0 -66.5 -22.5t-32.5 -62.5h-116q10 84 74 137t160 53q87 0 140 -42.5t53 -112.5q0 -121 -126 -175q50 -18 77.5 -59.5t27.5 -95.5q0 -112 -75 -184t-196 -72q-113 0 -175 62t-52 156h120q-4 -49 28 -80t89 -31
q61 0 97 40.5t36 99.5q0 54 -37.5 79.5t-96.5 25.5h-19z" />
    <glyph glyph-name="four" unicode="4" 
d="M317 145h-323l17 98l268 309q2 2 37.5 42.5t52.5 61.5l51 60h111l-82 -465h92l-19 -106h-92l-26 -145h-113zM392 555h-1q-65 -82 -102 -126q-18 -22 -152 -178h199l31 176q3 18 13 65.5t12 62.5z" />
    <glyph glyph-name="five" unicode="5" 
d="M22 196h122q3 -44 34 -74t83 -30q64 0 103.5 47.5t39.5 116.5q0 55 -32 85t-84 30q-72 0 -107 -59l-110 19q23 77 63.5 214.5t50.5 169.5h375l-20 -111h-277l-48 -159q50 30 115 30q81 0 140.5 -50t59.5 -150q0 -127 -73.5 -208.5t-203.5 -81.5q-105 0 -170 59t-61 152z
" />
    <glyph glyph-name="six" unicode="6" 
d="M575 527h-121q0 37 -24 64t-71 27q-122 0 -175 -209h2q61 54 145 54q94 0 149.5 -56.5t55.5 -154.5q0 -117 -73.5 -192.5t-191.5 -75.5q-115 0 -174.5 62t-59.5 184q0 66 10.5 132.5t35.5 132.5t62 116.5t94 82t127 31.5q100 0 155.5 -54.5t53.5 -143.5zM273 96
q61 0 99.5 43.5t38.5 107.5q0 53 -30 82.5t-81 29.5q-65 0 -102 -43t-37 -106q0 -53 30.5 -83.5t81.5 -30.5z" />
    <glyph glyph-name="seven" unicode="7" 
d="M204 0h-141q128 222 379 600h-314l20 115h446l-18 -106q-186 -279 -372 -609z" />
    <glyph glyph-name="eight" unicode="8" 
d="M356 729q89 0 141 -46t52 -117q0 -122 -115 -179q90 -51 90 -166q0 -110 -73.5 -173t-195.5 -63q-103 0 -167.5 51.5t-64.5 142.5q0 73 42 127.5t113 81.5q-61 47 -61 130q0 94 65 152.5t174 58.5zM340 622q-44 0 -76 -28.5t-32 -77.5q0 -38 24 -60.5t66 -22.5
q43 0 75.5 31t32.5 78q0 35 -24.5 57.5t-65.5 22.5zM289 332q-58 0 -98 -38.5t-40 -98.5q0 -48 30 -76.5t82 -28.5q60 0 97.5 37.5t37.5 100.5q0 48 -29 76t-80 28z" />
    <glyph glyph-name="nine" unicode="9" 
d="M27 181h121q0 -37 24 -64t71 -27q121 0 175 211h-2q-61 -54 -145 -54q-94 0 -149.5 55t-55.5 154q0 117 73.5 192.5t191.5 75.5q115 0 174.5 -62t59.5 -184q0 -67 -10 -133t-34.5 -132.5t-61 -116.5t-94.5 -81.5t-129 -31.5q-100 0 -155.5 54.5t-53.5 143.5zM329 615
q-61 0 -99.5 -43.5t-38.5 -107.5q0 -53 30 -82.5t81 -29.5q65 0 102 43t37 106q0 53 -30.5 83.5t-81.5 30.5z" />
    <glyph glyph-name="colon" unicode=":" horiz-adv-x="254" 
d="M8 0l24 134h129l-24 -134h-129zM71 356l24 134h129l-24 -134h-129z" />
    <glyph glyph-name="semicolon" unicode=";" horiz-adv-x="291" 
d="M98 356l23 134h129l-23 -134h-129zM192 134l-136 -264h-109l120 264h125z" />
    <glyph glyph-name="less" unicode="&#x3c;" 
d="M77 267v105q226 117 396 208v-125q-240 -113 -275 -130v-3q66 -33 275 -132v-128q-79 42 -227 118t-169 87z" />
    <glyph glyph-name="equal" unicode="=" 
d="M72 191v105h442v-105h-442zM72 352v105h442v-105h-442z" />
    <glyph glyph-name="greater" unicode="&#x3e;" 
d="M511 372v-105q-21 -11 -169 -87t-227 -118v128q209 99 275 132v3q-35 17 -275 130v125q170 -91 396 -208z" />
    <glyph glyph-name="question" unicode="?" horiz-adv-x="524" 
d="M191 506h-122q8 97 77 159t174 62q94 0 149 -47t55 -120q0 -68 -31.5 -115t-94.5 -95q-39 -30 -54.5 -43.5t-29.5 -38.5t-22 -63l-2 -10h-118q14 77 40 118t89 90l10 8q29 23 42.5 35.5t29.5 39.5t16 55q0 36 -24.5 57t-68.5 21q-52 0 -82.5 -32.5t-32.5 -80.5zM132 0
l25 134h129l-25 -134h-129z" />
    <glyph glyph-name="at" unicode="@" horiz-adv-x="823" 
d="M558 538h89l-48 -272q-4 -21 -4 -30q0 -21 26 -21q48 0 78 66.5t30 140.5q0 108 -73 177.5t-198 69.5q-140 0 -237 -96t-97 -242q0 -133 87.5 -213t224.5 -80q128 0 226 77l57 -26q-127 -115 -292 -115q-167 0 -270.5 98.5t-103.5 256.5q0 167 117.5 284.5t290.5 117.5
q147 0 240.5 -84.5t93.5 -213.5q0 -72 -21.5 -134t-72 -105t-122.5 -43q-62 0 -76 39q-42 -42 -116 -42q-73 0 -115.5 45t-42.5 125q0 93 55 161t146 68q81 0 121 -52zM439 470q-57 0 -88 -45t-31 -107q0 -44 23 -71.5t67 -27.5q58 0 90 45.5t32 106.5q0 99 -93 99z" />
    <glyph glyph-name="A" unicode="A" horiz-adv-x="712" 
d="M361 715h140l164 -715h-130l-44 206h-298l-113 -206h-136q111 194 235 404zM255 316h213l-58 286z" />
    <glyph glyph-name="B" unicode="B" horiz-adv-x="639" 
d="M31 0l126 715h158q103 0 152 -10q131 -30 131 -137q0 -65 -33.5 -113t-99.5 -68q47 -15 83.5 -52.5t36.5 -99.5q0 -53 -23 -101.5t-67 -78.5q-78 -55 -232 -55h-232zM177 112h80q114 0 157 32q41 32 41 91q0 84 -132 84h-109zM234 429h64q97 0 133 27q34 25 34 79
q0 41 -31 54.5t-93 13.5h-76z" />
    <glyph glyph-name="C" unicode="C" horiz-adv-x="755" 
d="M577 205h140q-48 -102 -136.5 -160t-210.5 -58q-148 0 -235 82.5t-87 237.5q0 111 47.5 206.5t138.5 154.5t206 59q123 0 202.5 -58.5t105.5 -168.5h-138q-44 117 -177 117q-116 0 -183.5 -88.5t-67.5 -207.5q0 -104 51.5 -164t146.5 -60q124 0 197 108z" />
    <glyph glyph-name="D" unicode="D" horiz-adv-x="727" 
d="M697 416q0 -100 -41 -192t-121 -149q-65 -46 -137.5 -60.5t-186.5 -14.5h-180l126 715h140q96 0 165.5 -10.5t121.5 -46.5q113 -75 113 -242zM457 163q53 35 80 102.5t27 140.5q0 97 -58.5 146.5t-166.5 49.5h-74l-87 -490h76q131 0 203 51z" />
    <glyph glyph-name="E" unicode="E" horiz-adv-x="574" 
d="M31 0l126 715h436l-20 -114h-308l-32 -180h284l-20 -114h-284l-34 -194h315l-20 -113h-443z" />
    <glyph glyph-name="F" unicode="F" horiz-adv-x="549" 
d="M31 0l126 715h420l-20 -114h-292l-32 -180h269l-20 -114h-269l-54 -307h-128z" />
    <glyph glyph-name="G" unicode="G" horiz-adv-x="782" 
d="M675 0h-118q1 5 5.5 34t6.5 34q-84 -81 -222 -81q-131 0 -214.5 86t-83.5 240q0 171 109.5 292.5t284.5 121.5q122 0 202.5 -58.5t106.5 -168.5h-138q-44 117 -180 117q-115 0 -183 -88.5t-68 -207.5q0 -105 50.5 -164.5t147.5 -59.5q81 0 141.5 48.5t84.5 130.5h-249
l19 102h365z" />
    <glyph glyph-name="H" unicode="H" horiz-adv-x="725" 
d="M31 0l126 715h128l-51 -291h300l51 291h128l-126 -715h-128l55 311h-300l-55 -311h-128z" />
    <glyph glyph-name="I" unicode="I" horiz-adv-x="297" 
d="M285 715l-126 -715h-128l126 715h128z" />
    <glyph glyph-name="J" unicode="J" horiz-adv-x="506" 
d="M372 715h128l-88 -494q-15 -82 -42 -132q-59 -104 -191 -104q-83 0 -132.5 43.5t-49.5 120.5q0 10 2 32h119v-8q0 -35 18.5 -56t52.5 -21q22 0 38 8.5t25 18t17 34.5t10.5 39.5t9.5 52.5z" />
    <glyph glyph-name="K" unicode="K" horiz-adv-x="630" 
d="M222 362l-63 -362h-128l126 715h128l-57 -320q62 64 172.5 174t146.5 146h160l-353 -332l226 -383h-149q-35 59 -115 199t-94 163z" />
    <glyph glyph-name="L" unicode="L" horiz-adv-x="517" 
d="M31 0l126 715h128l-106 -602h281l-20 -113h-409z" />
    <glyph glyph-name="M" unicode="M" horiz-adv-x="947" 
d="M31 0l126 715h200l60 -380q16 -102 26 -177h1q64 118 97 184l191 373h203l-126 -715h-128l64 364q5 27 43 230h-1q-45 -90 -113 -222l-191 -372h-131l-70 442q-6 36 -11.5 82.5t-9.5 69.5h-1q-4 -23 -15 -94t-22 -126l-66 -374h-126z" />
    <glyph glyph-name="N" unicode="N" horiz-adv-x="760" 
d="M31 0l126 715h154l165 -410q9 -23 28 -67.5t25 -60.5l1 1l31 184l63 353h125l-128 -715h-150l-160 392q-56 135 -60 146h-1q-2 -18 -9.5 -59.5t-17 -93.5t-13.5 -75l-54 -310h-125z" />
    <glyph glyph-name="O" unicode="O" horiz-adv-x="804" 
d="M384 97q121 0 188 88t67 211q0 104 -52 162.5t-150 58.5q-120 0 -187.5 -88t-67.5 -208q0 -105 51.5 -164.5t150.5 -59.5zM444 727q151 0 240 -83.5t89 -232.5q0 -182 -109.5 -303t-291.5 -121q-146 0 -235 83.5t-89 236.5q0 112 47 207t139 154t210 59z" />
    <glyph glyph-name="P" unicode="P" horiz-adv-x="615" 
d="M620 539q0 -64 -29.5 -122t-83.5 -93q-66 -41 -204 -41h-94l-50 -283h-128l126 715h199q73 0 112.5 -6t75.5 -27q76 -44 76 -143zM228 394h101q68 0 106 21q56 30 56 104q0 47 -34 65.5t-95 18.5h-96z" />
    <glyph glyph-name="Q" unicode="Q" horiz-adv-x="802" 
d="M444 727q151 0 240 -83.5t89 -232.5q0 -205 -131 -325l113 -136h-151l-61 71q-83 -34 -171 -34q-146 0 -235 83.5t-89 236.5q0 112 47 207t139 154t210 59zM375 220h155l36 -44q73 85 73 220q0 104 -52 162.5t-150 58.5q-120 0 -187.5 -88t-67.5 -208q0 -105 51.5 -164.5
t150.5 -59.5q43 0 84 13z" />
    <glyph glyph-name="R" unicode="R" horiz-adv-x="632" 
d="M31 0l126 715h228q127 0 182 -41q64 -46 64 -132q0 -101 -55 -166t-152 -84l121 -292h-138l-109 278h-90l-49 -278h-128zM266 603l-38 -217h105q84 0 127 33q42 31 42 95q0 89 -138 89h-98z" />
    <glyph glyph-name="S" unicode="S" horiz-adv-x="603" 
d="M548 228q0 -112 -76 -177.5t-210 -65.5q-121 0 -187.5 58.5t-60.5 156.5h123q2 -49 37.5 -77.5t97.5 -28.5q64 0 102.5 29t38.5 77q0 21 -6.5 35.5t-26 26.5t-33.5 18.5t-50 19.5l-36 13q-90 31 -129 73.5t-39 121.5q0 97 72.5 158t189.5 61q111 0 172.5 -54t55.5 -142
h-122q-3 39 -34 63t-81 24q-56 0 -87 -25.5t-31 -65.5q0 -35 21.5 -56t70.5 -39l34 -12q46 -16 76 -30t59.5 -36.5t44 -53.5t14.5 -72z" />
    <glyph glyph-name="T" unicode="T" horiz-adv-x="546" 
d="M156 0l106 601h-175l20 114h477l-20 -114h-174l-106 -601h-128z" />
    <glyph glyph-name="U" unicode="U" horiz-adv-x="680" 
d="M302 -16q-117 0 -177.5 56.5t-60.5 154.5q0 39 8 85l77 435h128l-74 -420q-8 -48 -8 -75q0 -123 119 -123q75 0 107 45.5t50 142.5l76 430h128l-78 -445q-25 -145 -92.5 -215.5t-202.5 -70.5z" />
    <glyph glyph-name="V" unicode="V" horiz-adv-x="682" 
d="M304 134h2q21 44 95 182l211 399h134l-388 -715h-148q-24 109 -77.5 404t-56.5 311h131l70 -405q5 -28 27 -176z" />
    <glyph glyph-name="W" unicode="W" horiz-adv-x="944" 
d="M991 715l-277 -715h-171l-15 421q-4 121 -2 182h-1q-45 -125 -68 -182l-165 -421h-177l-23 715h132l2 -405q0 -151 -1 -179h3q14 40 68 178l164 406h169l18 -406q1 -27 1 -181h2q12 41 32.5 95.5t31.5 86.5l149 405h128z" />
    <glyph glyph-name="X" unicode="X" horiz-adv-x="652" 
d="M97 0h-150l314 365q-132 259 -179 350h144q5 -11 127 -255q32 39 103 124t109 131h153q-46 -54 -154 -175t-155 -176q27 -52 90.5 -175t97.5 -189h-147q-44 85 -130 268q-69 -80 -223 -268z" />
    <glyph glyph-name="Y" unicode="Y" horiz-adv-x="610" 
d="M183 0l48 276q-27 73 -79 218.5t-79 220.5h138q65 -208 105 -328q19 27 223 328h139l-318 -439l-48 -276h-129z" />
    <glyph glyph-name="Z" unicode="Z" horiz-adv-x="574" 
d="M-17 0l17 96q7 8 27 32.5t41.5 50.5t37.5 47l243 296q8 9 63 79h-312l20 114h477l-18 -99l-26 -31q-7 -9 -29.5 -35.5t-35.5 -42.5l-257 -312q-65 -77 -68 -82h341l-20 -113h-501z" />
    <glyph glyph-name="bracketleft" unicode="[" horiz-adv-x="354" 
d="M261 -31l-14 -82h-230l145 828h230l-14 -82h-113l-117 -664h113z" />
    <glyph glyph-name="backslash" unicode="\" horiz-adv-x="499" 
d="M201 715l203 -820h-112l-198 820h107z" />
    <glyph glyph-name="bracketright" unicode="]" horiz-adv-x="352" 
d="M-39 -113l14 82h112l117 664h-113l14 82h229l-145 -828h-228z" />
    <glyph glyph-name="asciicircum" unicode="^" 
d="M243 684h104q24 -46 64 -125t74.5 -145.5t66.5 -125.5h-125q-16 35 -48 102t-53.5 113t-28.5 60h-3q-50 -99 -132 -275h-124q32 59 66.5 125.5t74.5 145.5t64 125z" />
    <glyph glyph-name="underscore" unicode="_" horiz-adv-x="618" 
d="M474 -153h-492l14 86h494z" />
    <glyph glyph-name="grave" unicode="`" horiz-adv-x="429" 
d="M207 596l-126 119h146l93 -119h-113z" />
    <glyph glyph-name="a" unicode="a" horiz-adv-x="564" 
d="M361 325q22 2 25 2q4 20 4 40q0 37 -24 58t-68 21q-94 0 -111 -84h-122q16 80 80.5 129.5t164.5 49.5q96 0 147.5 -42t51.5 -125q0 -45 -9 -90l-23 -119q-18 -98 -23 -165h-112q2 23 9 62h-2q-72 -72 -179 -72q-76 0 -120.5 35.5t-44.5 101.5q0 39 16 70t47.5 51.5t63 34
t78.5 22t76.5 12.5t74.5 8zM373 242l-50 -7q-38 -5 -57 -8t-48.5 -10.5t-43.5 -16.5t-25 -24t-11 -35q0 -29 21.5 -44.5t58.5 -15.5q65 0 100.5 35.5t50.5 106.5z" />
    <glyph glyph-name="b" unicode="b" horiz-adv-x="642" 
d="M16 0l125 715h123l-27 -155q-6 -43 -16 -89q17 23 60 45t102 22q95 0 155.5 -62t60.5 -171q0 -132 -77.5 -227t-204.5 -95q-62 0 -108.5 24t-63.5 57l-11 -64h-118zM306 88q79 0 122 62.5t43 147.5q0 65 -31.5 102.5t-93.5 37.5q-82 0 -126 -62.5t-44 -147.5
q0 -65 33 -102.5t97 -37.5z" />
    <glyph glyph-name="c" unicode="c" horiz-adv-x="587" 
d="M410 167h125q-73 -185 -264 -185q-112 0 -177.5 65t-65.5 178q0 134 82 223.5t216 89.5q105 0 168.5 -52.5t67.5 -137.5h-126q-8 42 -38 64.5t-78 22.5q-76 0 -120.5 -62t-44.5 -143q0 -67 32 -105t91 -38q85 0 132 80z" />
    <glyph glyph-name="d" unicode="d" horiz-adv-x="641" 
d="M517 0h-123l9 47q-17 -22 -59.5 -43t-100.5 -21q-97 0 -156.5 63t-59.5 174q0 129 77.5 223.5t203.5 94.5q59 0 103 -21t64 -52l45 250h123zM320 433q-79 0 -122.5 -64t-43.5 -149q0 -61 32.5 -99t92.5 -38q81 0 125.5 62.5t44.5 147.5q0 140 -129 140z" />
    <glyph glyph-name="e" unicode="e" horiz-adv-x="595" 
d="M551 227q-67 0 -200 0.5t-200 0.5q0 -64 35.5 -103.5t95.5 -39.5q86 0 126 63h127q-32 -74 -101 -120t-165 -46q-107 0 -174.5 63.5t-67.5 179.5q0 132 82 222.5t214 90.5q114 0 174.5 -66.5t60.5 -171.5q0 -41 -7 -73zM163 315h277q-2 58 -35 92t-89 34
q-124 0 -153 -126z" />
    <glyph glyph-name="f" unicode="f" horiz-adv-x="323" 
d="M379 719l-18 -99q-14 2 -22 2q-65 0 -75 -59l-7 -38h87l-17 -96h-86l-76 -429h-122l75 429h-68l17 96h68l10 49q30 148 195 148q18 0 39 -3z" />
    <glyph glyph-name="g" unicode="g" horiz-adv-x="639" 
d="M410 82l-2 1q-16 -21 -56.5 -40t-95.5 -19q-98 0 -161 59t-63 165q0 117 78 204.5t197 87.5q64 0 109 -22.5t63 -52.5l11 60h118l-74 -429q-23 -131 -78 -197q-76 -91 -219 -91q-102 0 -172 48.5t-78 124.5h129q26 -70 128 -70q139 0 166 171zM322 443q-77 0 -120 -57
t-43 -133q0 -64 32.5 -100t94.5 -36q81 0 124 56.5t43 137.5q0 62 -33 97t-98 35z" />
    <glyph glyph-name="h" unicode="h" horiz-adv-x="605" 
d="M16 0l126 715h122l-26 -149q-11 -66 -20 -102q23 30 67 51.5t100 21.5q79 0 122 -42t43 -117q0 -26 -6 -61l-57 -317h-122l46 269q7 37 7 67q0 99 -91 99q-109 0 -138 -148l-51 -287h-122z" />
    <glyph glyph-name="i" unicode="i" horiz-adv-x="262" 
d="M16 0l92 525h123l-93 -525h-122zM118 601l20 114h127l-20 -114h-127z" />
    <glyph glyph-name="j" unicode="j" horiz-adv-x="262" 
d="M231 525l-97 -548q-18 -102 -56.5 -138t-137.5 -36q-39 0 -55 4l17 92q14 -2 26 -2q35 0 55 14.5t26 51.5l99 562h123zM267 715l-19 -114h-128l20 114h127z" />
    <glyph glyph-name="k" unicode="k" horiz-adv-x="548" 
d="M494 0h-152q-80 128 -98 158l-61 99l-45 -257h-122l125 715h123l-73 -418l87 88l138 140h156q-29 -26 -172 -161l-89 -84q9 -15 41 -63.5t74.5 -113t67.5 -103.5z" />
    <glyph glyph-name="l" unicode="l" horiz-adv-x="268" 
d="M19 0l125 715h123l-126 -715h-122z" />
    <glyph glyph-name="m" unicode="m" horiz-adv-x="929" 
d="M138 0h-122l92 525h118l-13 -68q63 81 165 81q55 0 94 -22.5t55 -64.5q72 87 181 87q79 0 122.5 -42t43.5 -115q0 -24 -5 -56l-57 -325h-122l48 276q6 36 6 60q0 98 -85 98q-54 0 -86.5 -36.5t-44.5 -98.5l-53 -299h-122l48 276q6 36 6 60q0 98 -85 98q-54 0 -86.5 -36.5
t-44.5 -98.5z" />
    <glyph glyph-name="n" unicode="n" horiz-adv-x="604" 
d="M15 0l93 525h117l-12 -67q22 31 67 55t104 24q79 0 122 -42t43 -117q0 -26 -6 -61l-57 -317h-122l46 269q7 37 7 67q0 99 -91 99q-109 0 -138 -148l-51 -287h-122z" />
    <glyph glyph-name="o" unicode="o" horiz-adv-x="623" 
d="M286 86q77 0 121 63t44 147q0 65 -32 102t-96 37q-80 0 -124.5 -63t-44.5 -146q0 -67 33.5 -103.5t98.5 -36.5zM332 538q113 0 180 -62t67 -176q0 -137 -81 -227.5t-223 -90.5q-113 0 -180.5 62.5t-67.5 176.5q0 134 83 225.5t222 91.5z" />
    <glyph glyph-name="p" unicode="p" horiz-adv-x="642" 
d="M108 525h123q0 -1 -3.5 -20.5t-6.5 -33.5q17 23 60 45t102 22q95 0 155.5 -62t60.5 -171q0 -132 -77.5 -227t-204.5 -95q-59 0 -104 22.5t-65 53.5q-7 -54 -18 -109l-24 -130h-122zM306 88q79 0 122 62.5t43 147.5q0 65 -31.5 102.5t-93.5 37.5q-82 0 -126 -62.5
t-44 -147.5q0 -65 33 -102.5t97 -37.5z" />
    <glyph glyph-name="q" unicode="q" horiz-adv-x="641" 
d="M609 525l-123 -705h-123l25 141q8 53 15 86q-17 -22 -59.5 -43t-100.5 -21q-97 0 -156.5 63t-59.5 174q0 129 77.5 223.5t203.5 94.5q62 0 107.5 -23.5t64.5 -56.5l11 67h118zM320 433q-79 0 -122.5 -64t-43.5 -149q0 -61 32.5 -99t92.5 -38q81 0 125.5 62.5t44.5 147.5
q0 140 -129 140z" />
    <glyph glyph-name="r" unicode="r" horiz-adv-x="351" 
d="M370 527l-21 -117q-15 3 -30 3q-65 0 -94 -42t-45 -131l-42 -240h-122l91 525h116l-12 -71q18 35 56 55.5t76 20.5q19 0 27 -3z" />
    <glyph glyph-name="s" unicode="s" horiz-adv-x="496" 
d="M5 167h109q4 -39 31 -61t74 -22q49 0 73.5 18.5t24.5 47.5q0 16 -11.5 27t-24.5 16.5t-44 15.5l-51 16q-67 21 -97.5 52.5t-30.5 87.5q0 78 60.5 126.5t157.5 48.5q84 0 135.5 -38.5t51.5 -106.5q0 -9 -1 -17h-104q-11 64 -94 64q-39 0 -62.5 -16t-23.5 -43q0 -39 64 -57
l52 -15q74 -21 107.5 -52.5t33.5 -87.5q0 -84 -62.5 -135t-162.5 -51q-95 0 -150 46t-55 136z" />
    <glyph glyph-name="t" unicode="t" horiz-adv-x="337" 
d="M114 429h-78l17 96h78l26 142h123l-26 -142h96l-17 -96h-96l-48 -269q-4 -15 -4 -36q0 -43 54 -43q9 0 23 2l-17 -92q-21 -3 -40 -3q-73 0 -110.5 23t-37.5 77q0 14 6 52z" />
    <glyph glyph-name="u" unicode="u" horiz-adv-x="603" 
d="M572 525l-92 -525h-118l11 64q-20 -31 -65 -55t-105 -24q-78 0 -121 42t-43 117q0 27 6 61l59 320h122l-48 -272q-7 -37 -7 -67q0 -99 90 -99q108 0 137 148l52 290h122z" />
    <glyph glyph-name="v" unicode="v" horiz-adv-x="537" 
d="M270 0h-114l-109 525h131l32 -204q10 -53 27 -172h2q18 37 46 90.5t47 93.5l98 192h134z" />
    <glyph glyph-name="w" unicode="w" horiz-adv-x="796" 
d="M253 0h-125q-15 90 -39 267.5t-37 257.5h121l24 -204q4 -34 8 -87.5t8 -86.5h2q60 147 82 196l76 182h116l16 -204q2 -22 4.5 -52t5 -58t4.5 -64h2q10 22 35 80t47 106l89 192h126l-261 -525h-126q-23 157 -31 321h-3q-29 -66 -144 -321z" />
    <glyph glyph-name="x" unicode="x" horiz-adv-x="526" 
d="M94 0h-142q59 64 238 270l-132 255h134q23 -51 79 -165l130 165h140q-31 -38 -111 -130.5t-107 -125.5q22 -41 75.5 -138.5t70.5 -130.5h-138q-58 120 -89 182q-27 -33 -78.5 -96.5t-69.5 -85.5z" />
    <glyph glyph-name="y" unicode="y" horiz-adv-x="538" 
d="M163 -180h-123l114 194q-70 339 -107 511h130q52 -323 61 -371h2q25 46 93 180.5t98 190.5h134q-41 -71 -148.5 -263.5t-168.5 -296.5z" />
    <glyph glyph-name="z" unicode="z" horiz-adv-x="494" 
d="M-16 0l15 92l247 261q15 15 28.5 29t19.5 20t13 12.5t14 13.5q-37 -1 -125 -1h-131l17 98h403l-16 -94l-235 -247q-9 -9 -39.5 -41t-46.5 -46q19 0 67 0.5t71 0.5h136l-17 -98h-421z" />
    <glyph glyph-name="braceleft" unicode="{" horiz-adv-x="320" 
d="M30 290l7 41q39 11 57 32t27 77l27 153q12 72 46 99t116 27q4 0 12.5 -0.5t11.5 -0.5h12l-14 -79q-36 0 -52 -16.5t-24 -64.5l-16 -94q-13 -80 -30 -107t-64 -45l-1 -2q29 -13 40 -27.5t11 -42.5q0 -31 -10 -82l-21 -115q-4 -20 -4 -37q0 -25 12 -34.5t40 -9.5l-14 -79
q-4 -1 -12 -1h-24q-69 0 -96 17t-27 61q0 16 5 48l31 173q5 32 5 46q0 29 -11.5 41.5t-39.5 21.5z" />
    <glyph glyph-name="bar" unicode="|" horiz-adv-x="294" 
d="M26 -62l139 793h113l-139 -793h-113z" />
    <glyph glyph-name="braceright" unicode="}" horiz-adv-x="318" 
d="M288 320l-7 -41q-39 -11 -57 -32t-27 -77l-28 -162q-12 -72 -46 -99t-116 -27h-24q-8 0 -12 1l14 79q36 0 52 16.5t24 64.5l17 103q14 81 30.5 107.5t63.5 44.5l1 2q-29 13 -40 27.5t-11 42.5q0 32 10 82l20 106q4 17 4 37q0 25 -12 34.5t-40 9.5l14 79h12q3 0 11 0.5
t13 0.5q68 0 95.5 -17.5t27.5 -60.5q0 -16 -5 -48l-30 -164q-5 -32 -5 -46q0 -29 11.5 -41.5t39.5 -21.5z" />
    <glyph glyph-name="asciitilde" unicode="~" 
d="M483 382l68 -49q-30 -54 -64.5 -83.5t-81.5 -29.5q-13 0 -25.5 2t-28 7.5t-22.5 8t-26.5 11.5t-22.5 10l-26 11q-44 21 -72 21q-53 0 -82 -68l-68 50q64 118 150 118q38 0 117 -35l13 -6q66 -30 91 -30q46 0 80 62z" />
    <glyph glyph-name="uni00A0" unicode="&#xa0;" horiz-adv-x="247" 
 />
    <glyph glyph-name="exclamdown" unicode="&#xa1;" horiz-adv-x="285" 
d="M98 337h100q-45 -331 -62 -428l-19 -109h-127l19 109q25 140 89 428zM246 525l-22 -125h-130l22 125h130z" />
    <glyph glyph-name="cent" unicode="&#xa2;" 
d="M410 167h123q-67 -170 -235 -184l-11 -65h-107l13 74q-79 20 -122 80.5t-43 152.5q0 124 72 211.5t190 99.5l15 86h107l-16 -92q75 -17 117.5 -64.5t46.5 -117.5h-124q-13 55 -59 76l-59 -332q55 15 92 75zM155 230q0 -93 58 -127l57 324q-55 -19 -85 -74.5t-30 -122.5z
" />
    <glyph glyph-name="sterling" unicode="&#xa3;" 
d="M495 103l-17 -103h-459l14 95q71 9 107.5 49.5t36.5 106.5q0 32 -9 68h-121l16 99h80q-5 25 -5 60q0 107 65.5 178t181.5 71q95 0 147.5 -45t52.5 -130q0 -4 -0.5 -10t-0.5 -10h-115q-1 41 -25 66.5t-70 25.5q-55 0 -83 -37t-28 -95q0 -33 8 -71h165l-19 -102h-129
q9 -39 9 -73q0 -90 -68 -144l1 -1q94 2 123 2h142z" />
    <glyph glyph-name="currency" unicode="&#xa4;" 
d="M60 359q0 69 38 131l-52 54l73 74l17 -17l19.5 -19.5l16.5 -16.5q64 38 130 38q71 0 132 -38l53 53q42 -45 73 -74l-53 -53q40 -62 40 -131q0 -74 -39 -130l52 -52q-31 -29 -73 -74l-51 52q-65 -39 -131 -39q-72 0 -134 40l-52 -53l-73 73l51 53q-37 66 -37 129zM161 360
q0 -58 41.5 -100.5t100.5 -42.5q60 0 101.5 42.5t41.5 100.5t-41.5 100t-101.5 42q-59 0 -100.5 -42t-41.5 -100z" />
    <glyph glyph-name="yen" unicode="&#xa5;" 
d="M19 196l13 81h186l-36 106h-131l14 81h91q-56 178 -82 251h135q11 -38 30 -104.5t34.5 -120t31.5 -101.5q22 33 48 73t73.5 114t89.5 139h137l-175 -251h91l-14 -81h-133l-74 -106h188l-14 -81h-188l-35 -196h-129l35 196h-186z" />
    <glyph glyph-name="brokenbar" unicode="&#xa6;" horiz-adv-x="248" 
d="M89 428l53 303h113l-53 -303h-113zM3 -62l53 303h113l-53 -303h-113z" />
    <glyph glyph-name="section" unicode="&#xa7;" 
d="M343 62q0 11 -4 20t-8.5 15t-17 13.5t-21 12t-29.5 14.5t-34 16l-46 22q-53 25 -83 58.5t-30 85.5q0 100 103 149q-27 31 -27 85q0 78 59.5 126.5t156.5 48.5q86 0 137.5 -38.5t51.5 -106.5q0 -9 -1 -17h-104q-11 64 -94 64q-41 0 -63.5 -15.5t-22.5 -41.5
q0 -23 12.5 -34t49.5 -28q6 -2 9 -4l62 -31q58 -30 89 -60t31 -79q0 -105 -105 -157q47 -43 47 -101q0 -83 -63.5 -133.5t-163.5 -50.5q-93 0 -148 46t-55 136h109q4 -39 31 -61t74 -22q49 0 73.5 18.5t24.5 49.5zM246 279l91 -46q26 8 45.5 27t19.5 46q0 9 -2.5 16t-9 14
t-13 12t-19 12t-22 11.5t-27.5 13.5l-30 15l-29 14q-65 -15 -65 -66q0 -17 8.5 -29.5t19 -20t33.5 -19.5z" />
    <glyph glyph-name="dieresis" unicode="&#xa8;" horiz-adv-x="491" 
d="M115 603l19 110h112l-19 -110h-112zM302 603l19 110h111l-19 -110h-111z" />
    <glyph glyph-name="copyright" unicode="&#xa9;" horiz-adv-x="849" 
d="M433 507q-58 0 -92 -42t-34 -107q0 -64 35 -105.5t94 -41.5q68 0 105 64h90q-22 -60 -73 -100t-125 -40q-95 0 -154.5 63.5t-59.5 159.5q0 97 59.5 160.5t155.5 63.5q76 0 127.5 -39t70.5 -104h-92q-32 68 -107 68zM810 360q0 -158 -110 -267.5t-268 -109.5
q-156 0 -265.5 110t-109.5 267t109.5 266.5t267.5 109.5q156 0 266 -110t110 -266zM747 360q0 131 -92 223.5t-221 92.5q-131 0 -222 -92t-91 -224q0 -131 91 -224.5t221 -93.5t222 93t92 225z" />
    <glyph glyph-name="ordfeminine" unicode="&#xaa;" horiz-adv-x="456" 
d="M198 450h-93q13 60 61 97.5t123 37.5q150 0 150 -125q0 -28 -7 -68l-19 -96q-16 -80 -20 -117h-83q5 41 6 42q-48 -50 -128 -50q-59 0 -93.5 28t-34.5 78q0 57 48.5 89.5t119.5 43.5q2 0 105 11h7q3 0 4 1v2q1 2 1 3q3 15 3 27q0 27 -17.5 42.5t-50.5 15.5q-67 0 -82 -62
zM318 355q-41 -4 -61.5 -7t-47 -10.5t-37.5 -20.5t-11 -33q0 -44 60 -44q86 0 107 97l4 20q-8 -2 -14 -2z" />
    <glyph glyph-name="guillemotleft" unicode="&#xab;" horiz-adv-x="516" 
d="M301 473l-132 -187l57 -188h-119l-68 188l135 187h127zM499 473l-127 -187l52 -188h-117l-68 188l135 187h125z" />
    <glyph glyph-name="logicalnot" unicode="&#xac;" 
d="M34 360v107h504v-330h-109v223h-395z" />
    <glyph glyph-name="uni00AD" unicode="&#xad;" horiz-adv-x="396" 
d="M50 241l19 105h272l-19 -105h-272z" />
    <glyph glyph-name="registered" unicode="&#xae;" horiz-adv-x="554" 
d="M218 362v270h96q46 0 71 -15q33 -24 33 -66q0 -61 -56 -81q14 -21 66 -108h-70l-59 100h-21v-100h-60zM278 579v-64h32q48 0 48 33q0 31 -48 31h-32zM543 499q0 -97 -68.5 -165.5t-165.5 -68.5q-96 0 -164.5 68.5t-68.5 165.5t68 165.5t166 68.5q96 0 164.5 -68.5
t68.5 -165.5zM497 499q0 78 -55.5 134t-131.5 56q-78 0 -132.5 -55.5t-54.5 -134.5t54 -134.5t132 -55.5q77 0 132.5 55.5t55.5 134.5z" />
    <glyph glyph-name="macron" unicode="&#xaf;" horiz-adv-x="428" 
d="M72 618l15 85h273l-15 -85h-273z" />
    <glyph glyph-name="degree" unicode="&#xb0;" horiz-adv-x="416" 
d="M252 400q-70 0 -118.5 47.5t-48.5 116.5q0 70 48.5 117.5t118.5 47.5t118 -47.5t48 -117.5t-47.5 -117t-118.5 -47zM173 564q0 -33 23 -55.5t56 -22.5t55.5 22t22.5 56t-23 56.5t-55 22.5q-33 0 -56 -22.5t-23 -56.5z" />
    <glyph glyph-name="plusminus" unicode="&#xb1;" 
d="M58 310v107h167v134h107v-134h168v-107h-168v-136h-107v136h-167zM500 0h-442v107h442v-107z" />
    <glyph glyph-name="twosuperior" unicode="&#xb2;" horiz-adv-x="419" 
d="M56 271l12 68l40 31q36 27 140 112q21 18 34 30.5t26 35t13 44.5q0 26 -15.5 41.5t-44.5 15.5q-35 0 -54 -21.5t-21 -57.5h-82q2 63 49.5 108t120.5 45q63 0 99 -32t36 -84q0 -55 -41 -104.5t-105 -100.5q-49 -38 -80 -56h184l-15 -75h-296z" />
    <glyph glyph-name="threesuperior" unicode="&#xb3;" horiz-adv-x="394" 
d="M190 480l11 67q96 0 96 67q0 20 -14 30.5t-36 10.5q-46 0 -57 -53h-78q7 54 47 87.5t100 33.5q56 0 89 -26t33 -71q0 -73 -74 -107q61 -26 61 -95q0 -70 -48.5 -115t-123.5 -45q-67 0 -104 34t-37 88v10q0 4 1 6h80v-7q0 -27 18.5 -44.5t50.5 -17.5q37 0 58 24t21 61
q0 32 -22.5 47t-57.5 15h-14z" />
    <glyph glyph-name="acute" unicode="&#xb4;" horiz-adv-x="427" 
d="M378 715l-161 -119h-127l135 119h153z" />
    <glyph glyph-name="mu" unicode="&#xb5;" horiz-adv-x="607" 
d="M576 525l-92 -525h-118l11 64q-25 -36 -67.5 -57t-90.5 -21q-45 0 -82 19l-35 -201h-121l127 721h122l-48 -272q-7 -37 -7 -67q0 -99 90 -99q108 0 137 148l52 290h122z" />
    <glyph glyph-name="paragraph" unicode="&#xb6;" horiz-adv-x="647" 
d="M402 620l-129 -733h-93l75 430q-91 0 -140 50.5t-49 126.5q0 139 124 195q60 26 162 26h296l-16 -95h-43l-129 -733h-93l129 733h-94z" />
    <glyph glyph-name="periodcentered" unicode="&#xb7;" horiz-adv-x="254" 
d="M53 253l23 134h129l-23 -134h-129z" />
    <glyph glyph-name="cedilla" unicode="&#xb8;" horiz-adv-x="369" 
d="M84 -163l114 114h123l-97 -114h-140z" />
    <glyph glyph-name="onesuperior" unicode="&#xb9;" horiz-adv-x="281" 
d="M183 588h-106l10 60q59 2 87 16.5t40 50.5h71l-79 -439h-79z" />
    <glyph glyph-name="ordmasculine" unicode="&#xba;" horiz-adv-x="493" 
d="M265 241q59 0 91 46.5t32 109.5q0 47 -24 75t-71 28q-59 0 -92 -46.5t-33 -109.5q0 -49 25 -76t72 -27zM300 578q84 0 135 -46.5t51 -131.5q0 -103 -61 -171t-167 -68q-85 0 -136 47t-51 133q0 101 62 169t167 68z" />
    <glyph glyph-name="guillemotright" unicode="&#xbb;" horiz-adv-x="516" 
d="M208 98l132 187l-57 188h119l68 -188l-135 -187h-127zM10 98l127 187l-52 188h117l68 -188l-135 -187h-125z" />
    <glyph glyph-name="onequarter" unicode="&#xbc;" horiz-adv-x="805" 
d="M577 0l14 80h-205l11 63l259 295h78l-52 -292h62l-12 -66h-62l-14 -80h-79zM603 146l16 98q3 13 9 46t10 49h-1q-121 -141 -162 -193h128zM117 0l426 715h81l-426 -715h-81zM188 588h-106l10 60q59 2 87 16.5t40 50.5h71l-79 -439h-79z" />
    <glyph glyph-name="onehalf" unicode="&#xbd;" horiz-adv-x="809" 
d="M416 0l12 68l40 31q36 27 140 112q21 18 34 30.5t26 35t13 44.5q0 25 -15.5 41t-44.5 16q-35 0 -54 -21.5t-21 -57.5h-82q2 63 49.5 108t120.5 45q63 0 99 -32t36 -84q0 -55 -41 -104.5t-105 -100.5q-49 -38 -80 -56h184l-15 -75h-296zM117 0l426 715h81l-426 -715h-81z
M188 588h-106l10 60q59 2 87 16.5t40 50.5h71l-79 -439h-79z" />
    <glyph glyph-name="threequarters" unicode="&#xbe;" horiz-adv-x="921" 
d="M187 480l11 67q96 0 96 66q0 20 -14 30.5t-36 10.5q-46 0 -57 -52h-78q7 54 47 87.5t100 33.5q56 0 89 -26t33 -71q0 -73 -74 -107q61 -26 61 -95q0 -70 -48.5 -115t-123.5 -45q-67 0 -104 34t-37 88v10q0 4 1 6h80v-7q0 -27 18.5 -44.5t50.5 -17.5q37 0 58 24t21 61
q0 32 -22.5 47t-57.5 15h-14zM695 0l14 80h-205l11 63l259 295h78l-52 -292h62l-12 -66h-62l-14 -80h-79zM720 146l17 98q3 15 8 44.5t9 45.5h-1q-121 -141 -158 -188h125zM235 0l426 715h81l-426 -715h-81z" />
    <glyph glyph-name="questiondown" unicode="&#xbf;" horiz-adv-x="515" 
d="M311 19h122q-8 -97 -77 -159t-174 -62q-94 0 -149 47t-55 120q0 68 31.5 115t94.5 95q39 30 54.5 43.5t29.5 38.5t22 63l2 10h118q-14 -77 -40 -118t-89 -90l-10 -8q-29 -23 -42.5 -35.5t-29.5 -39.5t-16 -55q0 -36 24.5 -57t68.5 -21q52 0 82.5 32.5t32.5 80.5zM370 525
l-25 -134h-129l25 134h129z" />
    <glyph glyph-name="Agrave" unicode="&#xc0;" horiz-adv-x="712" 
d="M361 715h140l164 -715h-130l-44 206h-298l-113 -206h-136q111 194 235 404zM255 316h213l-58 286zM383 761l-123 115h154l91 -115h-122z" />
    <glyph glyph-name="Aacute" unicode="&#xc1;" horiz-adv-x="712" 
d="M361 715h140l164 -715h-130l-44 206h-298l-113 -206h-136q111 194 235 404zM255 316h213l-58 286zM645 876l-156 -115h-137l131 115h162z" />
    <glyph glyph-name="Acircumflex" unicode="&#xc2;" horiz-adv-x="712" 
d="M361 715h140l164 -715h-130l-44 206h-298l-113 -206h-136q111 194 235 404zM255 316h213l-58 286zM385 875h132l87 -114h-114l-46 58l-65 -58h-124q22 18 130 114z" />
    <glyph glyph-name="Atilde" unicode="&#xc3;" horiz-adv-x="712" 
d="M361 715h140l164 -715h-130l-44 206h-298l-113 -206h-136q111 194 235 404zM255 316h213l-58 286zM486 760q-28 0 -63 20t-48 20q-24 0 -37 -37h-75q8 49 40 83.5t70 34.5q26 0 63.5 -20t52.5 -20q13 0 21 8.5t15 28.5h76q-10 -50 -42 -84t-73 -34z" />
    <glyph glyph-name="Adieresis" unicode="&#xc4;" horiz-adv-x="712" 
d="M361 715h140l164 -715h-130l-44 206h-298l-113 -206h-136q111 194 235 404zM255 316h213l-58 286zM291 763l23 110h112l-23 -110h-112zM478 763l23 110h111l-23 -110h-111z" />
    <glyph glyph-name="Aring" unicode="&#xc5;" horiz-adv-x="712" 
d="M361 715h140l164 -715h-130l-44 206h-298l-113 -206h-136q111 194 235 404zM255 316h213l-58 286zM449 738q-41 0 -69 28.5t-28 70.5q0 40 29 68.5t69 28.5q41 0 69.5 -28.5t28.5 -68.5q0 -42 -28.5 -70.5t-70.5 -28.5zM406 837q0 -19 12.5 -32t30.5 -13q19 0 31.5 12.5
t12.5 32.5q0 17 -12.5 30t-31.5 13q-18 0 -30.5 -13t-12.5 -30z" />
    <glyph glyph-name="AE" unicode="&#xc6;" horiz-adv-x="915" 
d="M935 715l-21 -114h-302l-25 -180h272l-20 -114h-269l-29 -194h294l-20 -113h-416l25 164h-232l-119 -164h-139l531 715h470zM440 274l18 122q27 174 28 179h-2q-58 -87 -98 -140l-116 -161h170z" />
    <glyph glyph-name="Ccedilla" unicode="&#xc7;" horiz-adv-x="755" 
d="M577 205h140q-48 -102 -136.5 -160t-210.5 -58q-148 0 -235 82.5t-87 237.5q0 111 47.5 206.5t138.5 154.5t206 59q123 0 202.5 -58.5t105.5 -168.5h-138q-44 117 -177 117q-116 0 -183.5 -88.5t-67.5 -207.5q0 -104 51.5 -164t146.5 -60q124 0 197 108zM189 -163
l114 114h123l-97 -114h-140z" />
    <glyph glyph-name="Egrave" unicode="&#xc8;" horiz-adv-x="574" 
d="M31 0l126 715h436l-20 -114h-308l-32 -180h284l-20 -114h-284l-34 -194h315l-20 -113h-443zM344 761l-123 115h154l91 -115h-122z" />
    <glyph glyph-name="Eacute" unicode="&#xc9;" horiz-adv-x="574" 
d="M31 0l126 715h436l-20 -114h-308l-32 -180h284l-20 -114h-284l-34 -194h315l-20 -113h-443zM563 876l-156 -115h-137l131 115h162z" />
    <glyph glyph-name="Ecircumflex" unicode="&#xca;" horiz-adv-x="574" 
d="M31 0l126 715h436l-20 -114h-308l-32 -180h284l-20 -114h-284l-34 -194h315l-20 -113h-443zM333 875h132l87 -114h-114l-46 58l-65 -58h-124q22 18 130 114z" />
    <glyph glyph-name="Edieresis" unicode="&#xcb;" horiz-adv-x="574" 
d="M31 0l126 715h436l-20 -114h-308l-32 -180h284l-20 -114h-284l-34 -194h315l-20 -113h-443zM227 763l23 110h112l-23 -110h-112zM414 763l23 110h111l-23 -110h-111z" />
    <glyph glyph-name="Igrave" unicode="&#xcc;" horiz-adv-x="297" 
d="M285 715l-126 -715h-128l126 715h128zM180 761l-123 115h154l91 -115h-122z" />
    <glyph glyph-name="Iacute" unicode="&#xcd;" horiz-adv-x="297" 
d="M285 715l-126 -715h-128l126 715h128zM444 876l-156 -115h-137l131 115h162z" />
    <glyph glyph-name="Icircumflex" unicode="&#xce;" horiz-adv-x="297" 
d="M285 715l-126 -715h-128l126 715h128zM184 875h132l87 -114h-114l-46 58l-65 -58h-124q22 18 130 114z" />
    <glyph glyph-name="Idieresis" unicode="&#xcf;" horiz-adv-x="297" 
d="M285 715l-126 -715h-128l126 715h128zM82 763l23 110h112l-23 -110h-112zM269 763l23 110h111l-23 -110h-111z" />
    <glyph glyph-name="Eth" unicode="&#xd0;" horiz-adv-x="733" 
d="M25 314l20 98h64l54 303h141q96 0 165.5 -10.5t121.5 -46.5q112 -75 112 -242q0 -100 -41.5 -191.5t-122.5 -149.5q-65 -46 -137.5 -60.5t-186.5 -14.5h-178l55 314h-67zM463 163q53 35 80 102.5t27 140.5q0 97 -58.5 146.5t-166.5 49.5h-74l-34 -190h138l-21 -98h-134
l-36 -202h76q131 0 203 51z" />
    <glyph glyph-name="Ntilde" unicode="&#xd1;" horiz-adv-x="760" 
d="M31 0l126 715h154l165 -410q9 -23 28 -67.5t25 -60.5l1 1l31 184l63 353h125l-128 -715h-150l-160 392q-56 135 -60 146h-1q-2 -18 -9.5 -59.5t-17 -93.5t-13.5 -75l-54 -310h-125zM535 760q-29 0 -63.5 20t-47.5 20q-24 0 -37 -37h-75q8 49 40 83.5t70 34.5
q26 0 63.5 -20t52.5 -20q13 0 21 8.5t15 28.5h76q-10 -50 -42 -84t-73 -34z" />
    <glyph glyph-name="Ograve" unicode="&#xd2;" horiz-adv-x="804" 
d="M384 97q121 0 188 88t67 211q0 104 -52 162.5t-150 58.5q-120 0 -187.5 -88t-67.5 -208q0 -105 51.5 -164.5t150.5 -59.5zM444 727q151 0 240 -83.5t89 -232.5q0 -182 -109.5 -303t-291.5 -121q-146 0 -235 83.5t-89 236.5q0 112 47 207t139 154t210 59zM419 761
l-123 115h154l91 -115h-122z" />
    <glyph glyph-name="Oacute" unicode="&#xd3;" horiz-adv-x="804" 
d="M384 97q121 0 188 88t67 211q0 104 -52 162.5t-150 58.5q-120 0 -187.5 -88t-67.5 -208q0 -105 51.5 -164.5t150.5 -59.5zM444 727q151 0 240 -83.5t89 -232.5q0 -182 -109.5 -303t-291.5 -121q-146 0 -235 83.5t-89 236.5q0 112 47 207t139 154t210 59zM673 876
l-156 -115h-137l131 115h162z" />
    <glyph glyph-name="Ocircumflex" unicode="&#xd4;" horiz-adv-x="804" 
d="M384 97q121 0 188 88t67 211q0 104 -52 162.5t-150 58.5q-120 0 -187.5 -88t-67.5 -208q0 -105 51.5 -164.5t150.5 -59.5zM444 727q151 0 240 -83.5t89 -232.5q0 -182 -109.5 -303t-291.5 -121q-146 0 -235 83.5t-89 236.5q0 112 47 207t139 154t210 59zM434 875h132
l87 -114h-114l-46 58l-65 -58h-124q22 18 130 114z" />
    <glyph glyph-name="Otilde" unicode="&#xd5;" horiz-adv-x="804" 
d="M384 97q121 0 188 88t67 211q0 104 -52 162.5t-150 58.5q-120 0 -187.5 -88t-67.5 -208q0 -105 51.5 -164.5t150.5 -59.5zM444 727q151 0 240 -83.5t89 -232.5q0 -182 -109.5 -303t-291.5 -121q-146 0 -235 83.5t-89 236.5q0 112 47 207t139 154t210 59zM527 760
q-29 0 -63 20t-48 20q-24 0 -37 -37h-75q8 49 40 83.5t70 34.5q26 0 63.5 -20t52.5 -20q13 0 21 8.5t15 28.5h76q-10 -50 -42 -84t-73 -34z" />
    <glyph glyph-name="Odieresis" unicode="&#xd6;" horiz-adv-x="804" 
d="M384 97q121 0 188 88t67 211q0 104 -52 162.5t-150 58.5q-120 0 -187.5 -88t-67.5 -208q0 -105 51.5 -164.5t150.5 -59.5zM444 727q151 0 240 -83.5t89 -232.5q0 -182 -109.5 -303t-291.5 -121q-146 0 -235 83.5t-89 236.5q0 112 47 207t139 154t210 59zM303 763l23 110
h112l-23 -110h-112zM490 763l23 110h111l-23 -110h-111z" />
    <glyph glyph-name="multiply" unicode="&#xd7;" 
d="M143 97l-73 73l151 151l-151 151l73 73l151 -151l152 152l73 -73l-152 -152l152 -152l-73 -73l-152 152z" />
    <glyph glyph-name="Oslash" unicode="&#xd8;" horiz-adv-x="804" 
d="M444 727q86 0 158 -32l55 71l91 -67l-53 -69q78 -84 78 -219q0 -182 -109.5 -303t-291.5 -121q-84 0 -150 28l-51 -67l-91 67l49 64q-81 84 -81 228q0 112 47 207t139 154t210 59zM182 321q0 -80 30 -134l317 412q-41 18 -92 18q-120 0 -187.5 -88t-67.5 -208zM384 97
q121 0 188 88t67 211q0 73 -28 125l-314 -409q37 -15 87 -15z" />
    <glyph glyph-name="Ugrave" unicode="&#xd9;" horiz-adv-x="680" 
d="M302 -16q-117 0 -177.5 56.5t-60.5 154.5q0 39 8 85l77 435h128l-74 -420q-8 -48 -8 -75q0 -123 119 -123q75 0 107 45.5t50 142.5l76 430h128l-78 -445q-25 -145 -92.5 -215.5t-202.5 -70.5zM379 761l-123 115h154l91 -115h-122z" />
    <glyph glyph-name="Uacute" unicode="&#xda;" horiz-adv-x="680" 
d="M302 -16q-117 0 -177.5 56.5t-60.5 154.5q0 39 8 85l77 435h128l-74 -420q-8 -48 -8 -75q0 -123 119 -123q75 0 107 45.5t50 142.5l76 430h128l-78 -445q-25 -145 -92.5 -215.5t-202.5 -70.5zM607 876l-156 -115h-137l131 115h162z" />
    <glyph glyph-name="Ucircumflex" unicode="&#xdb;" horiz-adv-x="680" 
d="M302 -16q-117 0 -177.5 56.5t-60.5 154.5q0 39 8 85l77 435h128l-74 -420q-8 -48 -8 -75q0 -123 119 -123q75 0 107 45.5t50 142.5l76 430h128l-78 -445q-25 -145 -92.5 -215.5t-202.5 -70.5zM366 875h132l87 -114h-114l-46 58l-65 -58h-124q22 18 130 114z" />
    <glyph glyph-name="Udieresis" unicode="&#xdc;" horiz-adv-x="680" 
d="M302 -16q-117 0 -177.5 56.5t-60.5 154.5q0 39 8 85l77 435h128l-74 -420q-8 -48 -8 -75q0 -123 119 -123q75 0 107 45.5t50 142.5l76 430h128l-78 -445q-25 -145 -92.5 -215.5t-202.5 -70.5zM272 763l23 110h112l-23 -110h-112zM459 763l23 110h111l-23 -110h-111z" />
    <glyph glyph-name="Yacute" unicode="&#xdd;" horiz-adv-x="610" 
d="M183 0l48 276q-27 73 -79 218.5t-79 220.5h138q65 -208 105 -328q19 27 223 328h139l-318 -439l-48 -276h-129zM578 876l-156 -115h-137l131 115h162z" />
    <glyph glyph-name="Thorn" unicode="&#xde;" horiz-adv-x="603" 
d="M159 0h-128l126 715h128l-22 -121h72q73 0 112.5 -6t75.5 -27q76 -44 76 -143q0 -64 -29.5 -122t-83.5 -93q-66 -41 -204 -41h-94zM207 273h101q68 0 106 21q56 30 56 104q0 47 -34 65.5t-95 18.5h-96z" />
    <glyph glyph-name="germandbls" unicode="&#xdf;" horiz-adv-x="582" 
d="M533 270q0 -123 -79.5 -197.5t-204.5 -74.5q-27 0 -59 5l16 92q20 -4 38 -4q72 0 117.5 43.5t45.5 121.5q0 110 -144 110h-9l15 86h7q66 0 106.5 26t40.5 77q0 35 -22 53.5t-62 18.5q-50 0 -75.5 -28.5t-35.5 -85.5l-90 -513h-123l87 489q21 115 72 169q59 65 179 65
q91 0 144 -38t53 -104q0 -61 -32 -100t-74 -57q38 -18 63.5 -57.5t25.5 -96.5z" />
    <glyph glyph-name="agrave" unicode="&#xe0;" horiz-adv-x="564" 
d="M361 325q22 2 25 2q4 20 4 40q0 37 -24 58t-68 21q-94 0 -111 -84h-122q16 80 80.5 129.5t164.5 49.5q96 0 147.5 -42t51.5 -125q0 -45 -9 -90l-23 -119q-18 -98 -23 -165h-112q2 23 9 62h-2q-72 -72 -179 -72q-76 0 -120.5 35.5t-44.5 101.5q0 39 16 70t47.5 51.5t63 34
t78.5 22t76.5 12.5t74.5 8zM373 242l-50 -7q-38 -5 -57 -8t-48.5 -10.5t-43.5 -16.5t-25 -24t-11 -35q0 -29 21.5 -44.5t58.5 -15.5q65 0 100.5 35.5t50.5 106.5zM316 596l-126 119h146l93 -119h-113z" />
    <glyph glyph-name="aacute" unicode="&#xe1;" horiz-adv-x="564" 
d="M361 325q22 2 25 2q4 20 4 40q0 37 -24 58t-68 21q-94 0 -111 -84h-122q16 80 80.5 129.5t164.5 49.5q96 0 147.5 -42t51.5 -125q0 -45 -9 -90l-23 -119q-18 -98 -23 -165h-112q2 23 9 62h-2q-72 -72 -179 -72q-76 0 -120.5 35.5t-44.5 101.5q0 39 16 70t47.5 51.5t63 34
t78.5 22t76.5 12.5t74.5 8zM373 242l-50 -7q-38 -5 -57 -8t-48.5 -10.5t-43.5 -16.5t-25 -24t-11 -35q0 -29 21.5 -44.5t58.5 -15.5q65 0 100.5 35.5t50.5 106.5zM529 715l-161 -119h-127l135 119h153z" />
    <glyph glyph-name="acircumflex" unicode="&#xe2;" horiz-adv-x="564" 
d="M361 325q22 2 25 2q4 20 4 40q0 37 -24 58t-68 21q-94 0 -111 -84h-122q16 80 80.5 129.5t164.5 49.5q96 0 147.5 -42t51.5 -125q0 -45 -9 -90l-23 -119q-18 -98 -23 -165h-112q2 23 9 62h-2q-72 -72 -179 -72q-76 0 -120.5 35.5t-44.5 101.5q0 39 16 70t47.5 51.5t63 34
t78.5 22t76.5 12.5t74.5 8zM373 242l-50 -7q-38 -5 -57 -8t-48.5 -10.5t-43.5 -16.5t-25 -24t-11 -35q0 -29 21.5 -44.5t58.5 -15.5q65 0 100.5 35.5t50.5 106.5zM288 715h129q15 -22 45 -61.5t42 -57.5h-112l-44 62l-67 -62h-120q24 21 66 61.5t61 57.5z" />
    <glyph glyph-name="atilde" unicode="&#xe3;" horiz-adv-x="564" 
d="M361 325q22 2 25 2q4 20 4 40q0 37 -24 58t-68 21q-94 0 -111 -84h-122q16 80 80.5 129.5t164.5 49.5q96 0 147.5 -42t51.5 -125q0 -45 -9 -90l-23 -119q-18 -98 -23 -165h-112q2 23 9 62h-2q-72 -72 -179 -72q-76 0 -120.5 35.5t-44.5 101.5q0 39 16 70t47.5 51.5t63 34
t78.5 22t76.5 12.5t74.5 8zM373 242l-50 -7q-38 -5 -57 -8t-48.5 -10.5t-43.5 -16.5t-25 -24t-11 -35q0 -29 21.5 -44.5t58.5 -15.5q65 0 100.5 35.5t50.5 106.5zM396 592q-31 0 -64.5 20t-46.5 20q-24 0 -37 -37h-75q9 50 40.5 87t69.5 37q29 0 65 -20t51 -20q13 0 21 8.5
t15 28.5h76q-10 -51 -42 -87.5t-73 -36.5z" />
    <glyph glyph-name="adieresis" unicode="&#xe4;" horiz-adv-x="564" 
d="M361 325q22 2 25 2q4 20 4 40q0 37 -24 58t-68 21q-94 0 -111 -84h-122q16 80 80.5 129.5t164.5 49.5q96 0 147.5 -42t51.5 -125q0 -45 -9 -90l-23 -119q-18 -98 -23 -165h-112q2 23 9 62h-2q-72 -72 -179 -72q-76 0 -120.5 35.5t-44.5 101.5q0 39 16 70t47.5 51.5t63 34
t78.5 22t76.5 12.5t74.5 8zM373 242l-50 -7q-38 -5 -57 -8t-48.5 -10.5t-43.5 -16.5t-25 -24t-11 -35q0 -29 21.5 -44.5t58.5 -15.5q65 0 100.5 35.5t50.5 106.5zM178 603l19 110h112l-19 -110h-112zM365 603l19 110h111l-19 -110h-111z" />
    <glyph glyph-name="aring" unicode="&#xe5;" horiz-adv-x="564" 
d="M361 325q22 2 25 2q4 20 4 40q0 37 -24 58t-68 21q-94 0 -111 -84h-122q16 80 80.5 129.5t164.5 49.5q96 0 147.5 -42t51.5 -125q0 -45 -9 -90l-23 -119q-18 -98 -23 -165h-112q2 23 9 62h-2q-72 -72 -179 -72q-76 0 -120.5 35.5t-44.5 101.5q0 39 16 70t47.5 51.5t63 34
t78.5 22t76.5 12.5t74.5 8zM373 242l-50 -7q-38 -5 -57 -8t-48.5 -10.5t-43.5 -16.5t-25 -24t-11 -35q0 -29 21.5 -44.5t58.5 -15.5q65 0 100.5 35.5t50.5 106.5zM335 578q-41 0 -69 28.5t-28 70.5q0 40 29 68.5t69 28.5q41 0 69.5 -28.5t28.5 -68.5q0 -42 -28.5 -70.5
t-70.5 -28.5zM292 677q0 -19 12.5 -32t30.5 -13q19 0 31.5 12.5t12.5 32.5q0 17 -12.5 30t-31.5 13q-18 0 -30.5 -13t-12.5 -30z" />
    <glyph glyph-name="ae" unicode="&#xe6;" horiz-adv-x="932" 
d="M888 227q-66 0 -200 0.5t-200 0.5q0 -64 35.5 -103.5t95.5 -39.5q86 0 126 63h127q-32 -74 -101 -120t-165 -46q-137 0 -203 103q-87 -95 -223 -95q-175 0 -175 137q0 39 16 70t47.5 51.5t63 34t78.5 22t76.5 12.5t74.5 8q22 2 25 2q4 20 4 40q0 37 -24 58t-68 21
q-94 0 -111 -84h-122q16 80 80.5 129.5t164.5 49.5q119 0 167 -69q78 66 183 66q114 0 174.5 -66.5t60.5 -171.5q0 -41 -7 -73zM500 315h277q-2 58 -35 92t-89 34q-124 0 -153 -126zM373 242l-50 -7q-38 -5 -57 -8t-48.5 -10.5t-43.5 -16.5t-25 -24t-11 -35
q0 -29 21.5 -44.5t58.5 -15.5q65 0 100.5 35.5t50.5 106.5z" />
    <glyph glyph-name="ccedilla" unicode="&#xe7;" horiz-adv-x="587" 
d="M410 167h125q-73 -185 -264 -185q-112 0 -177.5 65t-65.5 178q0 134 82 223.5t216 89.5q105 0 168.5 -52.5t67.5 -137.5h-126q-8 42 -38 64.5t-78 22.5q-76 0 -120.5 -62t-44.5 -143q0 -67 32 -105t91 -38q85 0 132 80zM85 -163l114 114h123l-97 -114h-140z" />
    <glyph glyph-name="egrave" unicode="&#xe8;" horiz-adv-x="595" 
d="M551 227q-67 0 -200 0.5t-200 0.5q0 -64 35.5 -103.5t95.5 -39.5q86 0 126 63h127q-32 -74 -101 -120t-165 -46q-107 0 -174.5 63.5t-67.5 179.5q0 132 82 222.5t214 90.5q114 0 174.5 -66.5t60.5 -171.5q0 -41 -7 -73zM163 315h277q-2 58 -35 92t-89 34
q-124 0 -153 -126zM308 596l-126 119h146l93 -119h-113z" />
    <glyph glyph-name="eacute" unicode="&#xe9;" horiz-adv-x="595" 
d="M551 227q-67 0 -200 0.5t-200 0.5q0 -64 35.5 -103.5t95.5 -39.5q86 0 126 63h127q-32 -74 -101 -120t-165 -46q-107 0 -174.5 63.5t-67.5 179.5q0 132 82 222.5t214 90.5q114 0 174.5 -66.5t60.5 -171.5q0 -41 -7 -73zM163 315h277q-2 58 -35 92t-89 34
q-124 0 -153 -126zM547 715l-161 -119h-127l135 119h153z" />
    <glyph glyph-name="ecircumflex" unicode="&#xea;" horiz-adv-x="595" 
d="M551 227q-67 0 -200 0.5t-200 0.5q0 -64 35.5 -103.5t95.5 -39.5q86 0 126 63h127q-32 -74 -101 -120t-165 -46q-107 0 -174.5 63.5t-67.5 179.5q0 132 82 222.5t214 90.5q114 0 174.5 -66.5t60.5 -171.5q0 -41 -7 -73zM163 315h277q-2 58 -35 92t-89 34
q-124 0 -153 -126zM301 715h129q15 -22 45 -61.5t42 -57.5h-112l-44 62l-67 -62h-120q24 21 66 61.5t61 57.5z" />
    <glyph glyph-name="edieresis" unicode="&#xeb;" horiz-adv-x="595" 
d="M551 227q-67 0 -200 0.5t-200 0.5q0 -64 35.5 -103.5t95.5 -39.5q86 0 126 63h127q-32 -74 -101 -120t-165 -46q-107 0 -174.5 63.5t-67.5 179.5q0 132 82 222.5t214 90.5q114 0 174.5 -66.5t60.5 -171.5q0 -41 -7 -73zM163 315h277q-2 58 -35 92t-89 34
q-124 0 -153 -126zM198 603l19 110h112l-19 -110h-112zM385 603l19 110h111l-19 -110h-111z" />
    <glyph glyph-name="igrave" unicode="&#xec;" horiz-adv-x="262" 
d="M16 0l92 525h123l-92 -525h-123zM137 596l-126 119h146l93 -119h-113z" />
    <glyph glyph-name="iacute" unicode="&#xed;" horiz-adv-x="262" 
d="M16 0l92 525h123l-92 -525h-123zM379 715l-161 -119h-127l135 119h153z" />
    <glyph glyph-name="icircumflex" unicode="&#xee;" horiz-adv-x="262" 
d="M16 0l92 525h123l-92 -525h-123zM135 715h129q15 -22 45 -61.5t42 -57.5h-112l-44 62l-67 -62h-120q24 21 66 61.5t61 57.5z" />
    <glyph glyph-name="idieresis" unicode="&#xef;" horiz-adv-x="262" 
d="M16 0l92 525h123l-92 -525h-123zM35 603l19 110h112l-19 -110h-112zM222 603l19 110h111l-19 -110h-111z" />
    <glyph glyph-name="eth" unicode="&#xf0;" horiz-adv-x="630" 
d="M218 607l111 45q-40 33 -86 63h173q4 -3 11 -9t11 -10l68 28l39 -48l-63 -26q106 -130 106 -312q0 -152 -83 -254t-231 -102q-120 0 -183.5 68t-63.5 174q0 132 82.5 223t214.5 91q39 0 72 -8t46 -18l3 3q-23 44 -68 91l-122 -50zM286 86q77 0 121 63t44 147
q0 65 -32 102t-96 37q-80 0 -124.5 -63t-44.5 -146q0 -67 33.5 -103.5t98.5 -36.5z" />
    <glyph glyph-name="ntilde" unicode="&#xf1;" horiz-adv-x="604" 
d="M15 0l93 525h117l-12 -67q22 31 67 55t104 24q79 0 122 -42t43 -117q0 -26 -6 -61l-57 -317h-122l46 269q7 37 7 67q0 99 -91 99q-109 0 -138 -148l-51 -287h-122zM418 591q-31 0 -64.5 20t-46.5 20q-24 0 -37 -37h-75q9 50 40.5 87t69.5 37q29 0 65 -20t51 -20
q13 0 21 8.5t15 28.5h76q-10 -51 -42 -87.5t-73 -36.5z" />
    <glyph glyph-name="ograve" unicode="&#xf2;" horiz-adv-x="623" 
d="M286 86q77 0 121 63t44 147q0 65 -32 102t-96 37q-80 0 -124.5 -63t-44.5 -146q0 -67 33.5 -103.5t98.5 -36.5zM332 538q113 0 180 -62t67 -176q0 -137 -81 -227.5t-223 -90.5q-113 0 -180.5 62.5t-67.5 176.5q0 134 83 225.5t222 91.5zM322 596l-126 119h146l93 -119
h-113z" />
    <glyph glyph-name="oacute" unicode="&#xf3;" horiz-adv-x="623" 
d="M286 86q77 0 121 63t44 147q0 65 -32 102t-96 37q-80 0 -124.5 -63t-44.5 -146q0 -67 33.5 -103.5t98.5 -36.5zM332 538q113 0 180 -62t67 -176q0 -137 -81 -227.5t-223 -90.5q-113 0 -180.5 62.5t-67.5 176.5q0 134 83 225.5t222 91.5zM538 715l-161 -119h-127l135 119
h153z" />
    <glyph glyph-name="ocircumflex" unicode="&#xf4;" horiz-adv-x="623" 
d="M286 86q77 0 121 63t44 147q0 65 -32 102t-96 37q-80 0 -124.5 -63t-44.5 -146q0 -67 33.5 -103.5t98.5 -36.5zM332 538q113 0 180 -62t67 -176q0 -137 -81 -227.5t-223 -90.5q-113 0 -180.5 62.5t-67.5 176.5q0 134 83 225.5t222 91.5zM316 715h129q15 -22 45 -61.5
t42 -57.5h-112l-44 62l-67 -62h-120q24 21 66 61.5t61 57.5z" />
    <glyph glyph-name="otilde" unicode="&#xf5;" horiz-adv-x="623" 
d="M286 86q77 0 121 63t44 147q0 65 -32 102t-96 37q-80 0 -124.5 -63t-44.5 -146q0 -67 33.5 -103.5t98.5 -36.5zM332 538q113 0 180 -62t67 -176q0 -137 -81 -227.5t-223 -90.5q-113 0 -180.5 62.5t-67.5 176.5q0 134 83 225.5t222 91.5zM413 591q-31 0 -64.5 20t-46.5 20
q-24 0 -37 -37h-75q9 50 40.5 87t69.5 37q30 0 66 -20t50 -20q13 0 21 8.5t15 28.5h76q-10 -51 -42 -87.5t-73 -36.5z" />
    <glyph glyph-name="odieresis" unicode="&#xf6;" horiz-adv-x="623" 
d="M286 86q77 0 121 63t44 147q0 65 -32 102t-96 37q-80 0 -124.5 -63t-44.5 -146q0 -67 33.5 -103.5t98.5 -36.5zM332 538q113 0 180 -62t67 -176q0 -137 -81 -227.5t-223 -90.5q-113 0 -180.5 62.5t-67.5 176.5q0 134 83 225.5t222 91.5zM203 603l19 110h112l-19 -110
h-112zM390 603l19 110h111l-19 -110h-111z" />
    <glyph glyph-name="divide" unicode="&#xf7;" 
d="M74 268v107h442v-107h-442zM235 430v120h117v-120h-117zM235 92v120h117v-120h-117z" />
    <glyph glyph-name="oslash" unicode="&#xf8;" horiz-adv-x="623" 
d="M332 538q58 0 104 -18l60 77l72 -53l-55 -71q66 -64 66 -173q0 -137 -81 -227.5t-223 -90.5q-66 0 -121 23l-58 -76l-77 56l59 76q-51 61 -51 160q0 134 83 225.5t222 91.5zM286 86q77 0 121 63t44 147q0 44 -15 76l-211 -275q24 -11 61 -11zM154 226q0 -28 8 -57
l203 260q-18 6 -42 6q-80 0 -124.5 -63t-44.5 -146z" />
    <glyph glyph-name="ugrave" unicode="&#xf9;" horiz-adv-x="603" 
d="M572 525l-92 -525h-118l11 64q-20 -31 -65 -55t-105 -24q-78 0 -121 42t-43 117q0 27 6 61l59 320h122l-48 -272q-7 -37 -7 -67q0 -99 90 -99q108 0 137 148l52 290h122zM320 596l-126 119h146l93 -119h-113z" />
    <glyph glyph-name="uacute" unicode="&#xfa;" horiz-adv-x="603" 
d="M572 525l-92 -525h-118l11 64q-20 -31 -65 -55t-105 -24q-78 0 -121 42t-43 117q0 27 6 61l59 320h122l-48 -272q-7 -37 -7 -67q0 -99 90 -99q108 0 137 148l52 290h122zM528 715l-161 -119h-127l135 119h153z" />
    <glyph glyph-name="ucircumflex" unicode="&#xfb;" horiz-adv-x="603" 
d="M572 525l-92 -525h-118l11 64q-20 -31 -65 -55t-105 -24q-78 0 -121 42t-43 117q0 27 6 61l59 320h122l-48 -272q-7 -37 -7 -67q0 -99 90 -99q108 0 137 148l52 290h122zM294 715h129q15 -22 45 -61.5t42 -57.5h-112l-44 62l-67 -62h-120q24 21 66 61.5t61 57.5z" />
    <glyph glyph-name="udieresis" unicode="&#xfc;" horiz-adv-x="603" 
d="M572 525l-92 -525h-118l11 64q-20 -31 -65 -55t-105 -24q-78 0 -121 42t-43 117q0 27 6 61l59 320h122l-48 -272q-7 -37 -7 -67q0 -99 90 -99q108 0 137 148l52 290h122zM198 603l19 110h112l-19 -110h-112zM385 603l19 110h111l-19 -110h-111z" />
    <glyph glyph-name="yacute" unicode="&#xfd;" horiz-adv-x="538" 
d="M163 -180h-123l114 194q-70 339 -107 511h130q52 -323 61 -371h2q25 46 93 180.5t98 190.5h134q-41 -71 -148.5 -263.5t-168.5 -296.5zM504 715l-161 -119h-127l135 119h153z" />
    <glyph glyph-name="thorn" unicode="&#xfe;" horiz-adv-x="642" 
d="M106 -180h-122l157 895h123l-44 -244h1q21 24 61.5 45.5t100.5 21.5q95 0 155.5 -62t60.5 -171q0 -132 -77.5 -227t-204.5 -95q-59 0 -104 22.5t-65 53.5q-7 -54 -18 -109zM306 88q79 0 122 62.5t43 147.5q0 65 -31.5 102.5t-93.5 37.5q-82 0 -126 -62.5t-44 -147.5
q0 -65 33 -102.5t97 -37.5z" />
    <glyph glyph-name="ydieresis" unicode="&#xff;" horiz-adv-x="538" 
d="M163 -180h-123l114 194q-70 339 -107 511h130q52 -323 61 -371h2q25 46 93 180.5t98 190.5h134q-41 -71 -148.5 -263.5t-168.5 -296.5zM166 603l19 110h112l-19 -110h-112zM353 603l19 110h111l-19 -110h-111z" />
    <glyph glyph-name="Amacron" unicode="&#x100;" horiz-adv-x="712" 
d="M361 715h140l164 -715h-130l-44 206h-298l-113 -206h-136q111 194 235 404zM255 316h213l-58 286zM300 773l19 85h273l-19 -85h-273z" />
    <glyph glyph-name="amacron" unicode="&#x101;" horiz-adv-x="564" 
d="M361 325q22 2 25 2q4 20 4 40q0 37 -24 58t-68 21q-94 0 -111 -84h-122q16 80 80.5 129.5t164.5 49.5q96 0 147.5 -42t51.5 -125q0 -45 -9 -90l-23 -119q-18 -98 -23 -165h-112q2 23 9 62h-2q-72 -72 -179 -72q-76 0 -120.5 35.5t-44.5 101.5q0 39 16 70t47.5 51.5t63 34
t78.5 22t76.5 12.5t74.5 8zM373 242l-50 -7q-38 -5 -57 -8t-48.5 -10.5t-43.5 -16.5t-25 -24t-11 -35q0 -29 21.5 -44.5t58.5 -15.5q65 0 100.5 35.5t50.5 106.5zM202 618l15 85h273l-15 -85h-273z" />
    <glyph glyph-name="Abreve" unicode="&#x102;" horiz-adv-x="712" 
d="M361 715h140l164 -715h-130l-44 206h-298l-113 -206h-136q111 194 235 404zM255 316h213l-58 286zM437 751q-59 0 -91.5 29.5t-32.5 81.5v8q0 4 1 6h82q5 -49 55 -49q48 0 77 49h81q-21 -58 -65.5 -91.5t-106.5 -33.5z" />
    <glyph glyph-name="abreve" unicode="&#x103;" horiz-adv-x="564" 
d="M361 325q22 2 25 2q4 20 4 40q0 37 -24 58t-68 21q-94 0 -111 -84h-122q16 80 80.5 129.5t164.5 49.5q96 0 147.5 -42t51.5 -125q0 -45 -9 -90l-23 -119q-18 -98 -23 -165h-112q2 23 9 62h-2q-72 -72 -179 -72q-76 0 -120.5 35.5t-44.5 101.5q0 39 16 70t47.5 51.5t63 34
t78.5 22t76.5 12.5t74.5 8zM373 242l-50 -7q-38 -5 -57 -8t-48.5 -10.5t-43.5 -16.5t-25 -24t-11 -35q0 -29 21.5 -44.5t58.5 -15.5q65 0 100.5 35.5t50.5 106.5zM340 584q-59 0 -91.5 30.5t-32.5 84.5v10q0 4 1 6h79q5 -49 56 -49q49 0 76 49h84q-20 -62 -66 -96.5
t-106 -34.5z" />
    <glyph glyph-name="Aogonek" unicode="&#x104;" horiz-adv-x="712" 
d="M361 715h140l164 -715h-130l-44 206h-298l-113 -206h-136q111 194 235 404zM255 316h213l-58 286zM649 -49l80 -114h-130l-55 114h105z" />
    <glyph glyph-name="aogonek" unicode="&#x105;" horiz-adv-x="564" 
d="M361 325q22 2 25 2q4 20 4 40q0 37 -24 58t-68 21q-94 0 -111 -84h-122q16 80 80.5 129.5t164.5 49.5q96 0 147.5 -42t51.5 -125q0 -45 -9 -90l-23 -119q-18 -98 -23 -165h-112q2 23 9 62h-2q-72 -72 -179 -72q-76 0 -120.5 35.5t-44.5 101.5q0 39 16 70t47.5 51.5t63 34
t78.5 22t76.5 12.5t74.5 8zM373 242l-50 -7q-38 -5 -57 -8t-48.5 -10.5t-43.5 -16.5t-25 -24t-11 -35q0 -29 21.5 -44.5t58.5 -15.5q65 0 100.5 35.5t50.5 106.5zM429 -49l80 -114h-130l-55 114h105z" />
    <glyph glyph-name="Cacute" unicode="&#x106;" horiz-adv-x="755" 
d="M577 205h140q-48 -102 -136.5 -160t-210.5 -58q-148 0 -235 82.5t-87 237.5q0 111 47.5 206.5t138.5 154.5t206 59q123 0 202.5 -58.5t105.5 -168.5h-138q-44 117 -177 117q-116 0 -183.5 -88.5t-67.5 -207.5q0 -104 51.5 -164t146.5 -60q124 0 197 108zM668 876
l-156 -115h-137l131 115h162z" />
    <glyph glyph-name="cacute" unicode="&#x107;" horiz-adv-x="587" 
d="M410 167h125q-73 -185 -264 -185q-112 0 -177.5 65t-65.5 178q0 134 82 223.5t216 89.5q105 0 168.5 -52.5t67.5 -137.5h-126q-8 42 -38 64.5t-78 22.5q-76 0 -120.5 -62t-44.5 -143q0 -67 32 -105t91 -38q85 0 132 80zM560 715l-161 -119h-127l135 119h153z" />
    <glyph glyph-name="Ccircumflex" unicode="&#x108;" horiz-adv-x="755" 
d="M577 205h140q-48 -102 -136.5 -160t-210.5 -58q-148 0 -235 82.5t-87 237.5q0 111 47.5 206.5t138.5 154.5t206 59q123 0 202.5 -58.5t105.5 -168.5h-138q-44 117 -177 117q-116 0 -183.5 -88.5t-67.5 -207.5q0 -104 51.5 -164t146.5 -60q124 0 197 108zM417 875h132
l87 -114h-114l-46 58l-65 -58h-124q22 18 130 114z" />
    <glyph glyph-name="ccircumflex" unicode="&#x109;" horiz-adv-x="587" 
d="M410 167h125q-73 -185 -264 -185q-112 0 -177.5 65t-65.5 178q0 134 82 223.5t216 89.5q105 0 168.5 -52.5t67.5 -137.5h-126q-8 42 -38 64.5t-78 22.5q-76 0 -120.5 -62t-44.5 -143q0 -67 32 -105t91 -38q85 0 132 80zM297 715h129q15 -22 45 -61.5t42 -57.5h-112
l-44 62l-67 -62h-120q24 21 66 61.5t61 57.5z" />
    <glyph glyph-name="Cdotaccent" unicode="&#x10a;" horiz-adv-x="755" 
d="M577 205h140q-48 -102 -136.5 -160t-210.5 -58q-148 0 -235 82.5t-87 237.5q0 111 47.5 206.5t138.5 154.5t206 59q123 0 202.5 -58.5t105.5 -168.5h-138q-44 117 -177 117q-116 0 -183.5 -88.5t-67.5 -207.5q0 -104 51.5 -164t146.5 -60q124 0 197 108zM396 763l23 110
h112l-23 -110h-112z" />
    <glyph glyph-name="cdotaccent" unicode="&#x10b;" horiz-adv-x="587" 
d="M410 167h125q-73 -185 -264 -185q-112 0 -177.5 65t-65.5 178q0 134 82 223.5t216 89.5q105 0 168.5 -52.5t67.5 -137.5h-126q-8 42 -38 64.5t-78 22.5q-76 0 -120.5 -62t-44.5 -143q0 -67 32 -105t91 -38q85 0 132 80zM286 603l19 110h112l-19 -110h-112z" />
    <glyph glyph-name="Ccaron" unicode="&#x10c;" horiz-adv-x="755" 
d="M577 205h140q-48 -102 -136.5 -160t-210.5 -58q-148 0 -235 82.5t-87 237.5q0 111 47.5 206.5t138.5 154.5t206 59q123 0 202.5 -58.5t105.5 -168.5h-138q-44 117 -177 117q-116 0 -183.5 -88.5t-67.5 -207.5q0 -104 51.5 -164t146.5 -60q124 0 197 108zM527 761h-132
l-87 114h114l46 -58l65 58h124q-22 -18 -130 -114z" />
    <glyph glyph-name="ccaron" unicode="&#x10d;" horiz-adv-x="587" 
d="M410 167h125q-73 -185 -264 -185q-112 0 -177.5 65t-65.5 178q0 134 82 223.5t216 89.5q105 0 168.5 -52.5t67.5 -137.5h-126q-8 42 -38 64.5t-78 22.5q-76 0 -120.5 -62t-44.5 -143q0 -67 32 -105t91 -38q85 0 132 80zM426 596h-129q-3 4 -35 50t-50 69h113l45 -62
l66 62h119q-21 -20 -64.5 -59t-64.5 -60z" />
    <glyph glyph-name="Dcaron" unicode="&#x10e;" horiz-adv-x="727" 
d="M697 416q0 -100 -41 -192t-121 -149q-65 -46 -137.5 -60.5t-186.5 -14.5h-180l126 715h140q96 0 165.5 -10.5t121.5 -46.5q113 -75 113 -242zM457 163q53 35 80 102.5t27 140.5q0 97 -58.5 146.5t-166.5 49.5h-74l-87 -490h76q131 0 203 51zM471 761h-132l-87 114h114
l46 -58l65 58h124q-22 -18 -130 -114z" />
    <glyph glyph-name="dcaron" unicode="&#x10f;" horiz-adv-x="735" 
d="M517 0h-123l9 47q-17 -22 -59.5 -43t-100.5 -21q-97 0 -156.5 63t-59.5 174q0 129 77.5 223.5t203.5 94.5q59 0 103 -21t64 -52l45 250h123zM320 433q-79 0 -122.5 -64t-43.5 -149q0 -61 32.5 -99t92.5 -38q81 0 125.5 62.5t44.5 147.5q0 140 -129 140zM881 715
l-132 -255h-110l117 255h125z" />
    <glyph glyph-name="Dcroat" unicode="&#x110;" horiz-adv-x="733" 
d="M25 314l20 98h64l54 303h141q96 0 165.5 -10.5t121.5 -46.5q112 -75 112 -242q0 -100 -41.5 -191.5t-122.5 -149.5q-65 -46 -137.5 -60.5t-186.5 -14.5h-178l55 314h-67zM463 163q53 35 80 102.5t27 140.5q0 97 -58.5 146.5t-166.5 49.5h-74l-34 -190h138l-21 -98h-134
l-36 -202h76q131 0 203 51z" />
    <glyph glyph-name="dcroat" unicode="&#x111;" horiz-adv-x="641" 
d="M422 563l17 98h71l10 54h123l-10 -54h55l-17 -98h-55l-99 -563h-123l9 47q-17 -22 -59.5 -43t-100.5 -21q-97 0 -156.5 63t-59.5 174q0 129 77.5 223.5t203.5 94.5q59 0 103 -21t64 -52l17 98h-70zM320 433q-79 0 -122.5 -64t-43.5 -149q0 -61 32.5 -99t92.5 -38
q81 0 125.5 62.5t44.5 147.5q0 140 -129 140z" />
    <glyph glyph-name="Emacron" unicode="&#x112;" horiz-adv-x="574" 
d="M31 0l126 715h436l-20 -114h-308l-32 -180h284l-20 -114h-284l-34 -194h315l-20 -113h-443zM239 773l19 85h273l-19 -85h-273z" />
    <glyph glyph-name="emacron" unicode="&#x113;" horiz-adv-x="595" 
d="M551 227q-67 0 -200 0.5t-200 0.5q0 -64 35.5 -103.5t95.5 -39.5q86 0 126 63h127q-32 -74 -101 -120t-165 -46q-107 0 -174.5 63.5t-67.5 179.5q0 132 82 222.5t214 90.5q114 0 174.5 -66.5t60.5 -171.5q0 -41 -7 -73zM163 315h277q-2 58 -35 92t-89 34
q-124 0 -153 -126zM208 618l15 85h273l-15 -85h-273z" />
    <glyph glyph-name="Ebreve" unicode="&#x114;" horiz-adv-x="574" 
d="M31 0l126 715h436l-20 -114h-308l-32 -180h284l-20 -114h-284l-34 -194h315l-20 -113h-443zM383 751q-59 0 -91.5 29.5t-32.5 81.5v8q0 4 1 6h82q5 -49 55 -49q48 0 77 49h81q-21 -58 -65.5 -91.5t-106.5 -33.5z" />
    <glyph glyph-name="ebreve" unicode="&#x115;" horiz-adv-x="595" 
d="M551 227q-67 0 -200 0.5t-200 0.5q0 -64 35.5 -103.5t95.5 -39.5q86 0 126 63h127q-32 -74 -101 -120t-165 -46q-107 0 -174.5 63.5t-67.5 179.5q0 132 82 222.5t214 90.5q114 0 174.5 -66.5t60.5 -171.5q0 -41 -7 -73zM163 315h277q-2 58 -35 92t-89 34
q-124 0 -153 -126zM343 584q-59 0 -91.5 30.5t-32.5 84.5v10q0 4 1 6h79q5 -49 56 -49q49 0 76 49h84q-20 -62 -66 -96.5t-106 -34.5z" />
    <glyph glyph-name="Edotaccent" unicode="&#x116;" horiz-adv-x="574" 
d="M31 0l126 715h436l-20 -114h-308l-32 -180h284l-20 -114h-284l-34 -194h315l-20 -113h-443zM327 763l23 110h112l-23 -110h-112z" />
    <glyph glyph-name="edotaccent" unicode="&#x117;" horiz-adv-x="595" 
d="M551 227q-67 0 -200 0.5t-200 0.5q0 -64 35.5 -103.5t95.5 -39.5q86 0 126 63h127q-32 -74 -101 -120t-165 -46q-107 0 -174.5 63.5t-67.5 179.5q0 132 82 222.5t214 90.5q114 0 174.5 -66.5t60.5 -171.5q0 -41 -7 -73zM163 315h277q-2 58 -35 92t-89 34
q-124 0 -153 -126zM275 603l19 110h112l-19 -110h-112z" />
    <glyph glyph-name="Eogonek" unicode="&#x118;" horiz-adv-x="574" 
d="M31 0l126 715h436l-20 -114h-308l-32 -180h284l-20 -114h-284l-34 -194h315l-20 -113h-443zM307 -49l80 -114h-130l-55 114h105z" />
    <glyph glyph-name="eogonek" unicode="&#x119;" horiz-adv-x="595" 
d="M551 227q-67 0 -200 0.5t-200 0.5q0 -64 35.5 -103.5t95.5 -39.5q86 0 126 63h127q-32 -74 -101 -120t-165 -46q-107 0 -174.5 63.5t-67.5 179.5q0 132 82 222.5t214 90.5q114 0 174.5 -66.5t60.5 -171.5q0 -41 -7 -73zM163 315h277q-2 58 -35 92t-89 34
q-124 0 -153 -126zM298 -49l80 -114h-130l-55 114h105z" />
    <glyph glyph-name="Ecaron" unicode="&#x11a;" horiz-adv-x="574" 
d="M31 0l126 715h436l-20 -114h-308l-32 -180h284l-20 -114h-284l-34 -194h315l-20 -113h-443zM443 761h-132l-87 114h114l46 -58l65 58h124q-22 -18 -130 -114z" />
    <glyph glyph-name="ecaron" unicode="&#x11b;" horiz-adv-x="595" 
d="M551 227q-67 0 -200 0.5t-200 0.5q0 -64 35.5 -103.5t95.5 -39.5q86 0 126 63h127q-32 -74 -101 -120t-165 -46q-107 0 -174.5 63.5t-67.5 179.5q0 132 82 222.5t214 90.5q114 0 174.5 -66.5t60.5 -171.5q0 -41 -7 -73zM163 315h277q-2 58 -35 92t-89 34
q-124 0 -153 -126zM400 596h-129q-3 4 -35 50t-50 69h113l45 -62l66 62h119q-22 -20 -65 -59t-64 -60z" />
    <glyph glyph-name="Gcircumflex" unicode="&#x11c;" horiz-adv-x="782" 
d="M675 0h-118q1 5 5.5 34t6.5 34q-84 -81 -222 -81q-131 0 -214.5 86t-83.5 240q0 171 109.5 292.5t284.5 121.5q122 0 202.5 -58.5t106.5 -168.5h-138q-44 117 -180 117q-115 0 -183 -88.5t-68 -207.5q0 -105 50.5 -164.5t147.5 -59.5q81 0 141.5 48.5t84.5 130.5h-249
l19 102h365zM415 875h132l87 -114h-114l-46 58l-65 -58h-124q22 18 130 114z" />
    <glyph glyph-name="gcircumflex" unicode="&#x11d;" horiz-adv-x="639" 
d="M410 82l-2 1q-16 -21 -56.5 -40t-95.5 -19q-98 0 -161 59t-63 165q0 117 78 204.5t197 87.5q64 0 109 -22.5t63 -52.5l11 60h118l-74 -429q-23 -131 -78 -197q-76 -91 -219 -91q-102 0 -172 48.5t-78 124.5h129q26 -70 128 -70q139 0 166 171zM322 443q-77 0 -120 -57
t-43 -133q0 -64 32.5 -100t94.5 -36q81 0 124 56.5t43 137.5q0 62 -33 97t-98 35zM305 715h129q15 -22 45 -61.5t42 -57.5h-112l-44 62l-67 -62h-120q24 21 66 61.5t61 57.5z" />
    <glyph glyph-name="Gbreve" unicode="&#x11e;" horiz-adv-x="782" 
d="M675 0h-118q1 5 5.5 34t6.5 34q-84 -81 -222 -81q-131 0 -214.5 86t-83.5 240q0 171 109.5 292.5t284.5 121.5q122 0 202.5 -58.5t106.5 -168.5h-138q-44 117 -180 117q-115 0 -183 -88.5t-68 -207.5q0 -105 50.5 -164.5t147.5 -59.5q81 0 141.5 48.5t84.5 130.5h-249
l19 102h365zM461 751q-59 0 -91.5 29.5t-32.5 81.5v8q0 4 1 6h82q5 -49 55 -49q48 0 77 49h81q-21 -58 -65.5 -91.5t-106.5 -33.5z" />
    <glyph glyph-name="gbreve" unicode="&#x11f;" horiz-adv-x="639" 
d="M410 82l-2 1q-16 -21 -56.5 -40t-95.5 -19q-98 0 -161 59t-63 165q0 117 78 204.5t197 87.5q64 0 109 -22.5t63 -52.5l11 60h118l-74 -429q-23 -131 -78 -197q-76 -91 -219 -91q-102 0 -172 48.5t-78 124.5h129q26 -70 128 -70q139 0 166 171zM322 443q-77 0 -120 -57
t-43 -133q0 -64 32.5 -100t94.5 -36q81 0 124 56.5t43 137.5q0 62 -33 97t-98 35zM347 584q-59 0 -91.5 30.5t-32.5 84.5v10q0 4 1 6h79q5 -49 56 -49q49 0 76 49h84q-20 -62 -66 -96.5t-106 -34.5z" />
    <glyph glyph-name="Gdotaccent" unicode="&#x120;" horiz-adv-x="782" 
d="M675 0h-118q1 5 5.5 34t6.5 34q-84 -81 -222 -81q-131 0 -214.5 86t-83.5 240q0 171 109.5 292.5t284.5 121.5q122 0 202.5 -58.5t106.5 -168.5h-138q-44 117 -180 117q-115 0 -183 -88.5t-68 -207.5q0 -105 50.5 -164.5t147.5 -59.5q81 0 141.5 48.5t84.5 130.5h-249
l19 102h365zM397 763l23 110h112l-23 -110h-112z" />
    <glyph glyph-name="gdotaccent" unicode="&#x121;" horiz-adv-x="639" 
d="M410 82l-2 1q-16 -21 -56.5 -40t-95.5 -19q-98 0 -161 59t-63 165q0 117 78 204.5t197 87.5q64 0 109 -22.5t63 -52.5l11 60h118l-74 -429q-23 -131 -78 -197q-76 -91 -219 -91q-102 0 -172 48.5t-78 124.5h129q26 -70 128 -70q139 0 166 171zM322 443q-77 0 -120 -57
t-43 -133q0 -64 32.5 -100t94.5 -36q81 0 124 56.5t43 137.5q0 62 -33 97t-98 35zM277 603l19 110h112l-19 -110h-112z" />
    <glyph glyph-name="Gcommaaccent" unicode="&#x122;" horiz-adv-x="782" 
d="M675 0h-118q1 5 5.5 34t6.5 34q-84 -81 -222 -81q-131 0 -214.5 86t-83.5 240q0 171 109.5 292.5t284.5 121.5q122 0 202.5 -58.5t106.5 -168.5h-138q-44 117 -180 117q-115 0 -183 -88.5t-68 -207.5q0 -105 50.5 -164.5t147.5 -59.5q81 0 141.5 48.5t84.5 130.5h-249
l19 102h365zM442 -49l-108 -119h-116l84 119h140z" />
    <glyph glyph-name="gcommaaccent" unicode="&#x123;" horiz-adv-x="639" 
d="M410 82l-2 1q-16 -21 -56.5 -40t-95.5 -19q-98 0 -161 59t-63 165q0 117 78 204.5t197 87.5q64 0 109 -22.5t63 -52.5l11 60h118l-74 -429q-23 -131 -78 -197q-76 -91 -219 -91q-102 0 -172 48.5t-78 124.5h129q26 -70 128 -70q139 0 166 171zM322 443q-77 0 -120 -57
t-43 -133q0 -64 32.5 -100t94.5 -36q81 0 124 56.5t43 137.5q0 62 -33 97t-98 35zM496 715l-108 -119h-116l84 119h140z" />
    <glyph glyph-name="Hcircumflex" unicode="&#x124;" horiz-adv-x="725" 
d="M31 0l126 715h128l-51 -291h300l51 291h128l-126 -715h-128l55 311h-300l-55 -311h-128zM386 875h132l87 -114h-114l-46 58l-65 -58h-124q22 18 130 114z" />
    <glyph glyph-name="hcircumflex" unicode="&#x125;" horiz-adv-x="605" 
d="M16 0l126 715h122l-26 -149q-11 -66 -20 -102q23 30 67 51.5t100 21.5q79 0 122 -42t43 -117q0 -26 -6 -61l-57 -317h-122l46 269q7 37 7 67q0 99 -91 99q-109 0 -138 -148l-51 -287h-122zM167 875h132l87 -114h-114l-46 58l-65 -58h-124q22 18 130 114z" />
    <glyph glyph-name="Hbar" unicode="&#x126;" horiz-adv-x="725" 
d="M31 0l126 715h128l-16 -91h300l16 91h128l-126 -715h-128l55 311h-300l-55 -311h-128zM234 424h300l18 102h-300z" />
    <glyph glyph-name="hbar" unicode="&#x127;" horiz-adv-x="605" 
d="M65 563l17 98h50l10 54h122l-10 -54h77l-17 -98h-77q-11 -68 -19 -99q23 30 67 51.5t100 21.5q79 0 122 -42t43 -117q0 -26 -6 -61l-57 -317h-122l46 269q7 37 7 67q0 99 -91 99q-109 0 -138 -148l-51 -287h-122l99 563h-50z" />
    <glyph glyph-name="Itilde" unicode="&#x128;" horiz-adv-x="297" 
d="M285 715l-126 -715h-128l126 715h128zM286 760q-28 0 -63 20t-48 20q-24 0 -37 -37h-75q8 49 40 83.5t70 34.5q26 0 63.5 -20t52.5 -20q13 0 21 8.5t15 28.5h76q-10 -50 -42 -84t-73 -34z" />
    <glyph glyph-name="itilde" unicode="&#x129;" horiz-adv-x="262" 
d="M16 0l92 525h123l-92 -525h-123zM243 591q-31 0 -64.5 20t-46.5 20q-24 0 -37 -37h-75q9 50 40.5 87t69.5 37q30 0 66 -20t50 -20q13 0 21 8.5t15 28.5h76q-10 -51 -42 -87.5t-73 -36.5z" />
    <glyph glyph-name="Imacron" unicode="&#x12a;" horiz-adv-x="297" 
d="M285 715l-126 -715h-128l126 715h128zM87 773l19 85h273l-19 -85h-273z" />
    <glyph glyph-name="imacron" unicode="&#x12b;" horiz-adv-x="262" 
d="M16 0l92 525h123l-92 -525h-123zM45 618l15 85h273l-15 -85h-273z" />
    <glyph glyph-name="Ibreve" unicode="&#x12c;" horiz-adv-x="297" 
d="M285 715l-126 -715h-128l126 715h128zM231 751q-59 0 -91.5 29.5t-32.5 81.5v8q0 4 1 6h82q5 -49 55 -49q48 0 77 49h81q-21 -58 -65.5 -91.5t-106.5 -33.5z" />
    <glyph glyph-name="ibreve" unicode="&#x12d;" horiz-adv-x="262" 
d="M16 0l92 525h123l-92 -525h-123zM184 584q-59 0 -91.5 30.5t-32.5 84.5v10q0 4 1 6h79q5 -49 56 -49q49 0 76 49h84q-20 -62 -66 -96.5t-106 -34.5z" />
    <glyph glyph-name="Iogonek" unicode="&#x12e;" horiz-adv-x="297" 
d="M285 715l-126 -715h-128l126 715h128zM146 -49l80 -114h-130l-55 114h105z" />
    <glyph glyph-name="iogonek" unicode="&#x12f;" horiz-adv-x="262" 
d="M16 0l92 525h123l-93 -525h-122zM118 601l20 114h127l-20 -114h-127zM128 -49l80 -114h-130l-55 114h105z" />
    <glyph glyph-name="Idotaccent" unicode="&#x130;" horiz-adv-x="297" 
d="M285 715l-126 -715h-128l126 715h128zM171 763l23 110h112l-23 -110h-112z" />
    <glyph glyph-name="dotlessi" unicode="&#x131;" horiz-adv-x="262" 
d="M16 0l92 525h123l-92 -525h-123z" />
    <glyph glyph-name="IJ" unicode="&#x132;" horiz-adv-x="803" 
d="M285 715l-126 -715h-128l126 715h128zM669 715h128l-88 -494q-15 -82 -42 -132q-59 -104 -191 -104q-83 0 -132.5 43.5t-49.5 120.5q0 10 2 32h119v-8q0 -35 18.5 -56t52.5 -21q22 0 38 8.5t25 18t17 34.5t10.5 39.5t9.5 52.5z" />
    <glyph glyph-name="ij" unicode="&#x133;" horiz-adv-x="524" 
d="M16 0l92 525h123l-93 -525h-122zM118 601l20 114h127l-20 -114h-127zM493 525l-97 -548q-18 -102 -56.5 -138t-137.5 -36q-39 0 -55 4l17 92q14 -2 26 -2q35 0 55 14.5t26 51.5l99 562h123zM529 715l-19 -114h-128l20 114h127z" />
    <glyph glyph-name="Jcircumflex" unicode="&#x134;" horiz-adv-x="506" 
d="M372 715h128l-88 -494q-15 -82 -42 -132q-59 -104 -191 -104q-83 0 -132.5 43.5t-49.5 120.5q0 10 2 32h119v-8q0 -35 18.5 -56t52.5 -21q22 0 38 8.5t25 18t17 34.5t10.5 39.5t9.5 52.5zM389 875h132l87 -114h-114l-46 58l-65 -58h-124q22 18 130 114z" />
    <glyph glyph-name="jcircumflex" unicode="&#x135;" horiz-adv-x="262" 
d="M231 525l-97 -548q-18 -102 -56.5 -138t-137.5 -36q-39 0 -55 4l17 92q14 -2 26 -2q35 0 55 14.5t26 51.5l99 562h123zM135 715h129q15 -22 45 -61.5t42 -57.5h-112l-44 62l-67 -62h-120q24 21 66 61.5t61 57.5z" />
    <glyph glyph-name="Kcommaaccent" unicode="&#x136;" horiz-adv-x="630" 
d="M222 362l-63 -362h-128l126 715h128l-57 -320q62 64 172.5 174t146.5 146h160l-353 -332l226 -383h-149q-35 59 -115 199t-94 163zM366 -49l-108 -119h-116l84 119h140z" />
    <glyph glyph-name="kcommaaccent" unicode="&#x137;" horiz-adv-x="548" 
d="M494 0h-152q-80 128 -98 158l-61 99l-45 -257h-122l125 715h123l-73 -418l87 88l138 140h156q-29 -26 -172 -161l-89 -84q9 -15 41 -63.5t74.5 -113t67.5 -103.5zM320 -49l-108 -119h-116l84 119h140z" />
    <glyph glyph-name="kgreenlandic" unicode="&#x138;" horiz-adv-x="548" 
d="M108 526h123l-40 -229l87 88l138 140h156q-29 -26 -172 -161l-89 -84q9 -15 41 -63.5t74.5 -113t67.5 -103.5h-152q-80 128 -98 158l-61 99l-45 -257h-122z" />
    <glyph glyph-name="Lacute" unicode="&#x139;" horiz-adv-x="517" 
d="M31 0l126 715h128l-106 -602h281l-20 -113h-409zM450 876l-156 -115h-137l131 115h162z" />
    <glyph glyph-name="lacute" unicode="&#x13a;" horiz-adv-x="268" 
d="M19 0l125 715h123l-126 -715h-122zM418 876l-156 -115h-137l131 115h162z" />
    <glyph glyph-name="Lcommaaccent" unicode="&#x13b;" horiz-adv-x="517" 
d="M31 0l126 715h128l-106 -602h281l-20 -113h-409zM318 -49l-108 -119h-116l84 119h140z" />
    <glyph glyph-name="lcommaaccent" unicode="&#x13c;" horiz-adv-x="268" 
d="M19 0l125 715h123l-126 -715h-122zM164 -49l-108 -119h-116l84 119h140z" />
    <glyph glyph-name="Lcaron" unicode="&#x13d;" horiz-adv-x="518" 
d="M31 0l126 715h128l-106 -602h281l-20 -113h-409zM531 715l-132 -255h-110l117 255h125z" />
    <glyph glyph-name="lcaron" unicode="&#x13e;" horiz-adv-x="350" 
d="M19 0l125 715h123l-126 -715h-122zM495 715l-132 -255h-110l117 255h125z" />
    <glyph glyph-name="Ldot" unicode="&#x13f;" horiz-adv-x="517" 
d="M31 0l126 715h128l-106 -602h281l-20 -113h-409zM273 253l23 134h129l-23 -134h-129z" />
    <glyph glyph-name="ldot" unicode="&#x140;" horiz-adv-x="388" 
d="M19 0l125 715h123l-126 -715h-122zM251 253l23 134h129l-23 -134h-129z" />
    <glyph glyph-name="Lslash" unicode="&#x141;" horiz-adv-x="524" 
d="M-7 214l23 109l89 51l60 341h128l-46 -260l161 92l-23 -109l-157 -90l-41 -235h281l-20 -113h-409l47 267z" />
    <glyph glyph-name="lslash" unicode="&#x142;" horiz-adv-x="302" 
d="M35 0l52 299l-93 -53l22 104l89 51l55 314h123l-42 -236l98 56l-22 -104l-94 -54l-66 -377h-122z" />
    <glyph glyph-name="Nacute" unicode="&#x143;" horiz-adv-x="760" 
d="M31 0l126 715h154l165 -410q9 -23 28 -67.5t25 -60.5l1 1l31 184l63 353h125l-128 -715h-150l-160 392q-56 135 -60 146h-1q-2 -18 -9.5 -59.5t-17 -93.5t-13.5 -75l-54 -310h-125zM652 876l-156 -115h-137l131 115h162z" />
    <glyph glyph-name="nacute" unicode="&#x144;" horiz-adv-x="604" 
d="M15 0l93 525h117l-12 -67q22 31 67 55t104 24q79 0 122 -42t43 -117q0 -26 -6 -61l-57 -317h-122l46 269q7 37 7 67q0 99 -91 99q-109 0 -138 -148l-51 -287h-122zM543 715l-161 -119h-127l135 119h153z" />
    <glyph glyph-name="Ncommaaccent" unicode="&#x145;" horiz-adv-x="760" 
d="M31 0l126 715h154l165 -410q9 -23 28 -67.5t25 -60.5l1 1l31 184l63 353h125l-128 -715h-150l-160 392q-56 135 -60 146h-1q-2 -18 -9.5 -59.5t-17 -93.5t-13.5 -75l-54 -310h-125zM433 -49l-108 -119h-116l84 119h140z" />
    <glyph glyph-name="ncommaaccent" unicode="&#x146;" horiz-adv-x="604" 
d="M15 0l93 525h117l-12 -67q22 31 67 55t104 24q79 0 122 -42t43 -117q0 -26 -6 -61l-57 -317h-122l46 269q7 37 7 67q0 99 -91 99q-109 0 -138 -148l-51 -287h-122zM353 -49l-108 -119h-116l84 119h140z" />
    <glyph glyph-name="Ncaron" unicode="&#x147;" horiz-adv-x="760" 
d="M31 0l126 715h154l165 -410q9 -23 28 -67.5t25 -60.5l1 1l31 184l63 353h125l-128 -715h-150l-160 392q-56 135 -60 146h-1q-2 -18 -9.5 -59.5t-17 -93.5t-13.5 -75l-54 -310h-125zM535 761h-132l-87 114h114l46 -58l65 58h124q-22 -18 -130 -114z" />
    <glyph glyph-name="ncaron" unicode="&#x148;" horiz-adv-x="604" 
d="M15 0l93 525h117l-12 -67q22 31 67 55t104 24q79 0 122 -42t43 -117q0 -26 -6 -61l-57 -317h-122l46 269q7 37 7 67q0 99 -91 99q-109 0 -138 -148l-51 -287h-122zM434 596h-129q-3 4 -35 50t-50 69h113l45 -62l66 62h119q-21 -20 -64.5 -59t-64.5 -60z" />
    <glyph glyph-name="napostrophe" unicode="&#x149;" horiz-adv-x="705" 
d="M116 0l93 525h117l-12 -67q22 31 67 55t104 24q79 0 122 -42t43 -117q0 -26 -6 -61l-57 -317h-122l46 269q7 37 7 67q0 99 -91 99q-109 0 -138 -148l-51 -287h-122zM260 715l-132 -255h-110l117 255h125z" />
    <glyph glyph-name="Eng" unicode="&#x14a;" horiz-adv-x="760" 
d="M31 0l126 715h154l165 -410q9 -23 28 -67.5t25 -60.5l1 1l31 184l63 353h125l-121 -671q-15 -82 -42 -132q-59 -104 -189 -104q-86 0 -135 43t-49 122q0 13 2 27h119v-4q0 -35 18.5 -56t53.5 -21q70 0 87 81h-22l-160 392q-56 135 -60 146h-1q-2 -18 -9.5 -59.5
t-17 -93.5t-13.5 -75l-54 -310h-125z" />
    <glyph glyph-name="eng" unicode="&#x14b;" horiz-adv-x="604" 
d="M543 317l-61 -340q-18 -102 -56.5 -138t-137.5 -36q-39 0 -55 4l17 92q14 -2 26 -2q35 0 54 14.5t27 51.5l53 306q7 37 7 67q0 99 -91 99q-109 0 -138 -148l-51 -287h-122l93 525h117l-12 -67q22 31 67 55t104 24q79 0 122 -42t43 -117q0 -26 -6 -61z" />
    <glyph glyph-name="Omacron" unicode="&#x14c;" horiz-adv-x="804" 
d="M384 97q121 0 188 88t67 211q0 104 -52 162.5t-150 58.5q-120 0 -187.5 -88t-67.5 -208q0 -105 51.5 -164.5t150.5 -59.5zM444 727q151 0 240 -83.5t89 -232.5q0 -182 -109.5 -303t-291.5 -121q-146 0 -235 83.5t-89 236.5q0 112 47 207t139 154t210 59zM330 773l19 85
h273l-19 -85h-273z" />
    <glyph glyph-name="omacron" unicode="&#x14d;" horiz-adv-x="623" 
d="M286 86q77 0 121 63t44 147q0 65 -32 102t-96 37q-80 0 -124.5 -63t-44.5 -146q0 -67 33.5 -103.5t98.5 -36.5zM332 538q113 0 180 -62t67 -176q0 -137 -81 -227.5t-223 -90.5q-113 0 -180.5 62.5t-67.5 176.5q0 134 83 225.5t222 91.5zM235 618l15 85h273l-15 -85h-273z
" />
    <glyph glyph-name="Obreve" unicode="&#x14e;" horiz-adv-x="804" 
d="M384 97q121 0 188 88t67 211q0 104 -52 162.5t-150 58.5q-120 0 -187.5 -88t-67.5 -208q0 -105 51.5 -164.5t150.5 -59.5zM444 727q151 0 240 -83.5t89 -232.5q0 -182 -109.5 -303t-291.5 -121q-146 0 -235 83.5t-89 236.5q0 112 47 207t139 154t210 59zM474 751
q-59 0 -91.5 29.5t-32.5 81.5v8q0 4 1 6h82q5 -49 55 -49q48 0 77 49h81q-21 -58 -65.5 -91.5t-106.5 -33.5z" />
    <glyph glyph-name="obreve" unicode="&#x14f;" horiz-adv-x="623" 
d="M286 86q77 0 121 63t44 147q0 65 -32 102t-96 37q-80 0 -124.5 -63t-44.5 -146q0 -67 33.5 -103.5t98.5 -36.5zM332 538q113 0 180 -62t67 -176q0 -137 -81 -227.5t-223 -90.5q-113 0 -180.5 62.5t-67.5 176.5q0 134 83 225.5t222 91.5zM374 584q-59 0 -91.5 30.5
t-32.5 84.5v10q0 4 1 6h79q5 -49 56 -49q49 0 76 49h84q-20 -62 -66 -96.5t-106 -34.5z" />
    <glyph glyph-name="Ohungarumlaut" unicode="&#x150;" horiz-adv-x="804" 
d="M384 97q121 0 188 88t67 211q0 104 -52 162.5t-150 58.5q-120 0 -187.5 -88t-67.5 -208q0 -105 51.5 -164.5t150.5 -59.5zM444 727q151 0 240 -83.5t89 -232.5q0 -182 -109.5 -303t-291.5 -121q-146 0 -235 83.5t-89 236.5q0 112 47 207t139 154t210 59zM568 876
l-156 -115h-137l131 115h162zM776 876l-156 -115h-137l131 115h162z" />
    <glyph glyph-name="ohungarumlaut" unicode="&#x151;" horiz-adv-x="623" 
d="M286 86q77 0 121 63t44 147q0 65 -32 102t-96 37q-80 0 -124.5 -63t-44.5 -146q0 -67 33.5 -103.5t98.5 -36.5zM332 538q113 0 180 -62t67 -176q0 -137 -81 -227.5t-223 -90.5q-113 0 -180.5 62.5t-67.5 176.5q0 134 83 225.5t222 91.5zM459 715l-162 -119h-123l135 119
h150zM661 715l-162 -119h-123l135 119h150z" />
    <glyph glyph-name="OE" unicode="&#x152;" horiz-adv-x="1102" 
d="M559 0l8 45q-90 -58 -204 -58q-140 0 -227.5 84t-87.5 236q0 112 47 207.5t138 154t207 58.5q146 0 232 -84l13 72h436l-20 -114h-308l-32 -180h284l-20 -114h-284l-34 -194h315l-20 -113h-443zM382 97q121 0 186 88t65 211q0 105 -50.5 163t-147.5 58q-82 0 -141 -44
t-85.5 -109.5t-26.5 -142.5q0 -105 50.5 -164.5t149.5 -59.5z" />
    <glyph glyph-name="oe" unicode="&#x153;" horiz-adv-x="1005" 
d="M961 227q-67 0 -200 0.5t-200 0.5q0 -64 35.5 -103.5t95.5 -39.5q86 0 126 63h127q-32 -74 -101 -120t-165 -46q-123 0 -191 86q-83 -86 -213 -86q-113 0 -180.5 62.5t-67.5 179.5q0 131 82.5 222.5t219.5 91.5q131 0 199 -85q83 85 205 85q114 0 174.5 -66.5
t60.5 -171.5q0 -41 -7 -73zM286 86q77 0 121 63t44 147q0 65 -32 102t-96 37q-80 0 -124.5 -63t-44.5 -146q0 -67 33.5 -103.5t98.5 -36.5zM573 315h277q-2 58 -35 92t-89 34q-124 0 -153 -126z" />
    <glyph glyph-name="Racute" unicode="&#x154;" horiz-adv-x="632" 
d="M31 0l126 715h228q127 0 182 -41q64 -46 64 -132q0 -101 -55 -166t-152 -84l121 -292h-138l-109 278h-90l-49 -278h-128zM266 603l-38 -217h105q84 0 127 33q42 31 42 95q0 89 -138 89h-98zM582 876l-156 -115h-137l131 115h162z" />
    <glyph glyph-name="racute" unicode="&#x155;" horiz-adv-x="351" 
d="M370 527l-21 -117q-15 3 -30 3q-65 0 -94 -42t-45 -131l-42 -240h-122l91 525h116l-12 -71q18 35 56 55.5t76 20.5q19 0 27 -3zM437 715l-161 -119h-127l135 119h153z" />
    <glyph glyph-name="Rcommaaccent" unicode="&#x156;" horiz-adv-x="632" 
d="M31 0l126 715h228q127 0 182 -41q64 -46 64 -132q0 -101 -55 -166t-152 -84l121 -292h-138l-109 278h-90l-49 -278h-128zM266 603l-38 -217h105q84 0 127 33q42 31 42 95q0 89 -138 89h-98zM377 -49l-108 -119h-116l84 119h140z" />
    <glyph glyph-name="rcommaaccent" unicode="&#x157;" horiz-adv-x="351" 
d="M370 527l-21 -117q-15 3 -30 3q-65 0 -94 -42t-45 -131l-42 -240h-122l91 525h116l-12 -71q18 35 56 55.5t76 20.5q19 0 27 -3zM189 -49l-108 -119h-116l84 119h140z" />
    <glyph glyph-name="Rcaron" unicode="&#x158;" horiz-adv-x="632" 
d="M31 0l126 715h228q127 0 182 -41q64 -46 64 -132q0 -101 -55 -166t-152 -84l121 -292h-138l-109 278h-90l-49 -278h-128zM266 603l-38 -217h105q84 0 127 33q42 31 42 95q0 89 -138 89h-98zM453 761h-132l-87 114h114l46 -58l65 58h124q-22 -18 -130 -114z" />
    <glyph glyph-name="rcaron" unicode="&#x159;" horiz-adv-x="351" 
d="M370 527l-21 -117q-15 3 -30 3q-65 0 -94 -42t-45 -131l-42 -240h-122l91 525h116l-12 -71q18 35 56 55.5t76 20.5q19 0 27 -3zM308 596h-129q-3 4 -35 50t-50 69h113l45 -62l66 62h119q-22 -20 -65 -59t-64 -60z" />
    <glyph glyph-name="Sacute" unicode="&#x15a;" horiz-adv-x="603" 
d="M548 228q0 -112 -76 -177.5t-210 -65.5q-121 0 -187.5 58.5t-60.5 156.5h123q2 -49 37.5 -77.5t97.5 -28.5q64 0 102.5 29t38.5 77q0 21 -6.5 35.5t-26 26.5t-33.5 18.5t-50 19.5l-36 13q-90 31 -129 73.5t-39 121.5q0 97 72.5 158t189.5 61q111 0 172.5 -54t55.5 -142
h-122q-3 39 -34 63t-81 24q-56 0 -87 -25.5t-31 -65.5q0 -35 21.5 -56t70.5 -39l34 -12q46 -16 76 -30t59.5 -36.5t44 -53.5t14.5 -72zM566 876l-156 -115h-137l131 115h162z" />
    <glyph glyph-name="sacute" unicode="&#x15b;" horiz-adv-x="496" 
d="M5 167h109q4 -39 31 -61t74 -22q49 0 73.5 18.5t24.5 47.5q0 16 -11.5 27t-24.5 16.5t-44 15.5l-51 16q-67 21 -97.5 52.5t-30.5 87.5q0 78 60.5 126.5t157.5 48.5q84 0 135.5 -38.5t51.5 -106.5q0 -9 -1 -17h-104q-11 64 -94 64q-39 0 -62.5 -16t-23.5 -43q0 -39 64 -57
l52 -15q74 -21 107.5 -52.5t33.5 -87.5q0 -84 -62.5 -135t-162.5 -51q-95 0 -150 46t-55 136zM486 715l-161 -119h-127l135 119h153z" />
    <glyph glyph-name="Scircumflex" unicode="&#x15c;" horiz-adv-x="603" 
d="M548 228q0 -112 -76 -177.5t-210 -65.5q-121 0 -187.5 58.5t-60.5 156.5h123q2 -49 37.5 -77.5t97.5 -28.5q64 0 102.5 29t38.5 77q0 21 -6.5 35.5t-26 26.5t-33.5 18.5t-50 19.5l-36 13q-90 31 -129 73.5t-39 121.5q0 97 72.5 158t189.5 61q111 0 172.5 -54t55.5 -142
h-122q-3 39 -34 63t-81 24q-56 0 -87 -25.5t-31 -65.5q0 -35 21.5 -56t70.5 -39l34 -12q46 -16 76 -30t59.5 -36.5t44 -53.5t14.5 -72zM335 875h132l87 -114h-114l-46 58l-65 -58h-124q22 18 130 114z" />
    <glyph glyph-name="scircumflex" unicode="&#x15d;" horiz-adv-x="496" 
d="M5 167h109q4 -39 31 -61t74 -22q49 0 73.5 18.5t24.5 47.5q0 16 -11.5 27t-24.5 16.5t-44 15.5l-51 16q-67 21 -97.5 52.5t-30.5 87.5q0 78 60.5 126.5t157.5 48.5q84 0 135.5 -38.5t51.5 -106.5q0 -9 -1 -17h-104q-11 64 -94 64q-39 0 -62.5 -16t-23.5 -43q0 -39 64 -57
l52 -15q74 -21 107.5 -52.5t33.5 -87.5q0 -84 -62.5 -135t-162.5 -51q-95 0 -150 46t-55 136zM257 715h129q15 -22 45 -61.5t42 -57.5h-112l-44 62l-67 -62h-120q24 21 66 61.5t61 57.5z" />
    <glyph glyph-name="Scedilla" unicode="&#x15e;" horiz-adv-x="603" 
d="M548 228q0 -112 -76 -177.5t-210 -65.5q-121 0 -187.5 58.5t-60.5 156.5h123q2 -49 37.5 -77.5t97.5 -28.5q64 0 102.5 29t38.5 77q0 21 -6.5 35.5t-26 26.5t-33.5 18.5t-50 19.5l-36 13q-90 31 -129 73.5t-39 121.5q0 97 72.5 158t189.5 61q111 0 172.5 -54t55.5 -142
h-122q-3 39 -34 63t-81 24q-56 0 -87 -25.5t-31 -65.5q0 -35 21.5 -56t70.5 -39l34 -12q46 -16 76 -30t59.5 -36.5t44 -53.5t14.5 -72zM101 -163l114 114h123l-97 -114h-140z" />
    <glyph glyph-name="scedilla" unicode="&#x15f;" horiz-adv-x="496" 
d="M5 167h109q4 -39 31 -61t74 -22q49 0 73.5 18.5t24.5 47.5q0 16 -11.5 27t-24.5 16.5t-44 15.5l-51 16q-67 21 -97.5 52.5t-30.5 87.5q0 78 60.5 126.5t157.5 48.5q84 0 135.5 -38.5t51.5 -106.5q0 -9 -1 -17h-104q-11 64 -94 64q-39 0 -62.5 -16t-23.5 -43q0 -39 64 -57
l52 -15q74 -21 107.5 -52.5t33.5 -87.5q0 -84 -62.5 -135t-162.5 -51q-95 0 -150 46t-55 136zM35 -163l114 114h123l-97 -114h-140z" />
    <glyph glyph-name="Scaron" unicode="&#x160;" horiz-adv-x="603" 
d="M548 228q0 -112 -76 -177.5t-210 -65.5q-121 0 -187.5 58.5t-60.5 156.5h123q2 -49 37.5 -77.5t97.5 -28.5q64 0 102.5 29t38.5 77q0 21 -6.5 35.5t-26 26.5t-33.5 18.5t-50 19.5l-36 13q-90 31 -129 73.5t-39 121.5q0 97 72.5 158t189.5 61q111 0 172.5 -54t55.5 -142
h-122q-3 39 -34 63t-81 24q-56 0 -87 -25.5t-31 -65.5q0 -35 21.5 -56t70.5 -39l34 -12q46 -16 76 -30t59.5 -36.5t44 -53.5t14.5 -72zM437 761h-132l-87 114h114l46 -58l65 58h124q-22 -18 -130 -114z" />
    <glyph glyph-name="scaron" unicode="&#x161;" horiz-adv-x="496" 
d="M5 167h109q4 -39 31 -61t74 -22q49 0 73.5 18.5t24.5 47.5q0 16 -11.5 27t-24.5 16.5t-44 15.5l-51 16q-67 21 -97.5 52.5t-30.5 87.5q0 78 60.5 126.5t157.5 48.5q84 0 135.5 -38.5t51.5 -106.5q0 -9 -1 -17h-104q-11 64 -94 64q-39 0 -62.5 -16t-23.5 -43q0 -39 64 -57
l52 -15q74 -21 107.5 -52.5t33.5 -87.5q0 -84 -62.5 -135t-162.5 -51q-95 0 -150 46t-55 136zM357 596h-129q-3 4 -35 50t-50 69h113l45 -62l66 62h119q-22 -20 -64.5 -59t-64.5 -60z" />
    <glyph glyph-name="uni0162" unicode="&#x162;" horiz-adv-x="546" 
d="M156 0l106 601h-175l20 114h477l-20 -114h-174l-106 -601h-128zM289 -49l-108 -119h-116l84 119h140z" />
    <glyph glyph-name="uni0163" unicode="&#x163;" horiz-adv-x="337" 
d="M114 429h-78l17 96h78l26 142h123l-26 -142h96l-17 -96h-96l-48 -269q-4 -15 -4 -36q0 -43 54 -43q9 0 23 2l-17 -92q-21 -3 -40 -3q-73 0 -110.5 23t-37.5 77q0 14 6 52zM222 -49l-108 -119h-116l84 119h140z" />
    <glyph glyph-name="Tcaron" unicode="&#x164;" horiz-adv-x="546" 
d="M156 0l106 601h-175l20 114h477l-20 -114h-174l-106 -601h-128zM417 761h-132l-87 114h114l46 -58l65 58h124q-22 -18 -130 -114z" />
    <glyph glyph-name="tcaron" unicode="&#x165;" horiz-adv-x="412" 
d="M114 429h-78l17 96h78l26 142h123l-26 -142h96l-17 -96h-96l-48 -269q-4 -15 -4 -36q0 -43 54 -43q9 0 23 2l-17 -92q-21 -3 -40 -3q-73 0 -110.5 23t-37.5 77q0 14 6 52zM574 715l-132 -255h-110l117 255h125z" />
    <glyph glyph-name="Tbar" unicode="&#x166;" horiz-adv-x="566" 
d="M80 314l17 98h140l34 189h-175l20 114h477l-20 -114h-174l-34 -189h142l-17 -98h-142l-55 -314h-128l55 314h-140z" />
    <glyph glyph-name="tbar" unicode="&#x167;" horiz-adv-x="343" 
d="M8 264l21 95h76l13 70h-78l17 96h78l26 142h123l-26 -142h96l-17 -96h-96l-13 -70h97l-21 -95h-93l-18 -104q-4 -15 -4 -36q0 -43 54 -43q9 0 23 2l-17 -92q-21 -3 -40 -3q-73 0 -110.5 23t-37.5 77q0 14 6 52l22 124h-81z" />
    <glyph glyph-name="Utilde" unicode="&#x168;" horiz-adv-x="680" 
d="M302 -16q-117 0 -177.5 56.5t-60.5 154.5q0 39 8 85l77 435h128l-74 -420q-8 -48 -8 -75q0 -123 119 -123q75 0 107 45.5t50 142.5l76 430h128l-78 -445q-25 -145 -92.5 -215.5t-202.5 -70.5zM482 760q-28 0 -63 20t-48 20q-24 0 -37 -37h-75q8 49 40 83.5t70 34.5
q26 0 63.5 -20t52.5 -20q13 0 21 8.5t15 28.5h76q-10 -50 -42 -84t-73 -34z" />
    <glyph glyph-name="utilde" unicode="&#x169;" horiz-adv-x="603" 
d="M572 525l-92 -525h-118l11 64q-20 -31 -65 -55t-105 -24q-78 0 -121 42t-43 117q0 27 6 61l59 320h122l-48 -272q-7 -37 -7 -67q0 -99 90 -99q108 0 137 148l52 290h122zM427 591q-31 0 -64.5 20t-46.5 20q-24 0 -37 -37h-75q9 50 40.5 87t69.5 37q30 0 66 -20t50 -20
q13 0 21 8.5t15 28.5h76q-10 -51 -42 -87.5t-73 -36.5z" />
    <glyph glyph-name="Umacron" unicode="&#x16a;" horiz-adv-x="680" 
d="M302 -16q-117 0 -177.5 56.5t-60.5 154.5q0 39 8 85l77 435h128l-74 -420q-8 -48 -8 -75q0 -123 119 -123q75 0 107 45.5t50 142.5l76 430h128l-78 -445q-25 -145 -92.5 -215.5t-202.5 -70.5zM277 773l19 85h273l-19 -85h-273z" />
    <glyph glyph-name="umacron" unicode="&#x16b;" horiz-adv-x="603" 
d="M572 525l-92 -525h-118l11 64q-20 -31 -65 -55t-105 -24q-78 0 -121 42t-43 117q0 27 6 61l59 320h122l-48 -272q-7 -37 -7 -67q0 -99 90 -99q108 0 137 148l52 290h122zM220 618l15 85h273l-15 -85h-273z" />
    <glyph glyph-name="Ubreve" unicode="&#x16c;" horiz-adv-x="680" 
d="M302 -16q-117 0 -177.5 56.5t-60.5 154.5q0 39 8 85l77 435h128l-74 -420q-8 -48 -8 -75q0 -123 119 -123q75 0 107 45.5t50 142.5l76 430h128l-78 -445q-25 -145 -92.5 -215.5t-202.5 -70.5zM415 751q-59 0 -91.5 29.5t-32.5 81.5v8q0 4 1 6h82q5 -49 55 -49q48 0 77 49
h81q-21 -58 -65.5 -91.5t-106.5 -33.5z" />
    <glyph glyph-name="ubreve" unicode="&#x16d;" horiz-adv-x="603" 
d="M572 525l-92 -525h-118l11 64q-20 -31 -65 -55t-105 -24q-78 0 -121 42t-43 117q0 27 6 61l59 320h122l-48 -272q-7 -37 -7 -67q0 -99 90 -99q108 0 137 148l52 290h122zM307 584q-59 0 -91.5 30.5t-32.5 84.5v10q0 4 1 6h79q5 -49 56 -49q49 0 76 49h84
q-20 -62 -66 -96.5t-106 -34.5z" />
    <glyph glyph-name="Uring" unicode="&#x16e;" horiz-adv-x="680" 
d="M302 -16q-117 0 -177.5 56.5t-60.5 154.5q0 39 8 85l77 435h128l-74 -420q-8 -48 -8 -75q0 -123 119 -123q75 0 107 45.5t50 142.5l76 430h128l-78 -445q-25 -145 -92.5 -215.5t-202.5 -70.5zM417 738q-41 0 -69 28.5t-28 70.5q0 40 29 68.5t69 28.5q41 0 69.5 -28.5
t28.5 -68.5q0 -42 -28.5 -70.5t-70.5 -28.5zM374 837q0 -19 12.5 -32t30.5 -13q19 0 31.5 12.5t12.5 32.5q0 17 -12.5 30t-31.5 13q-18 0 -30.5 -13t-12.5 -30z" />
    <glyph glyph-name="uring" unicode="&#x16f;" horiz-adv-x="603" 
d="M572 525l-92 -525h-118l11 64q-20 -31 -65 -55t-105 -24q-78 0 -121 42t-43 117q0 27 6 61l59 320h122l-48 -272q-7 -37 -7 -67q0 -99 90 -99q108 0 137 148l52 290h122zM355 578q-41 0 -69 28.5t-28 70.5q0 40 29 68.5t69 28.5q41 0 69.5 -28.5t28.5 -68.5
q0 -42 -28.5 -70.5t-70.5 -28.5zM312 677q0 -19 12.5 -32t30.5 -13q19 0 31.5 12.5t12.5 32.5q0 17 -12.5 30t-31.5 13q-18 0 -30.5 -13t-12.5 -30z" />
    <glyph glyph-name="Uhungarumlaut" unicode="&#x170;" horiz-adv-x="680" 
d="M302 -16q-117 0 -177.5 56.5t-60.5 154.5q0 39 8 85l77 435h128l-74 -420q-8 -48 -8 -75q0 -123 119 -123q75 0 107 45.5t50 142.5l76 430h128l-78 -445q-25 -145 -92.5 -215.5t-202.5 -70.5zM519 876l-156 -115h-137l131 115h162zM727 876l-156 -115h-137l131 115h162z
" />
    <glyph glyph-name="uhungarumlaut" unicode="&#x171;" horiz-adv-x="603" 
d="M572 525l-92 -525h-118l11 64q-20 -31 -65 -55t-105 -24q-78 0 -121 42t-43 117q0 27 6 61l59 320h122l-48 -272q-7 -37 -7 -67q0 -99 90 -99q108 0 137 148l52 290h122zM453 715l-162 -119h-123l135 119h150zM655 715l-162 -119h-123l135 119h150z" />
    <glyph glyph-name="Uogonek" unicode="&#x172;" horiz-adv-x="680" 
d="M302 -16q-117 0 -177.5 56.5t-60.5 154.5q0 39 8 85l77 435h128l-74 -420q-8 -48 -8 -75q0 -123 119 -123q75 0 107 45.5t50 142.5l76 430h128l-78 -445q-25 -145 -92.5 -215.5t-202.5 -70.5zM336 -49l80 -114h-130l-55 114h105z" />
    <glyph glyph-name="uogonek" unicode="&#x173;" horiz-adv-x="603" 
d="M572 525l-92 -525h-118l11 64q-20 -31 -65 -55t-105 -24q-78 0 -121 42t-43 117q0 27 6 61l59 320h122l-48 -272q-7 -37 -7 -67q0 -99 90 -99q108 0 137 148l52 290h122zM276 -49l80 -114h-130l-55 114h105z" />
    <glyph glyph-name="Wcircumflex" unicode="&#x174;" horiz-adv-x="945" 
d="M992 715l-277 -715h-171l-15 421q-4 121 -2 182h-1q-45 -125 -68 -182l-165 -421h-177l-23 715h132l2 -405q0 -151 -1 -179h3q14 40 68 178l164 406h169l18 -406q1 -27 1 -181h2q12 41 32.5 95.5t31.5 86.5l149 405h128zM507 875h132l87 -114h-114l-46 58l-65 -58h-124
q22 18 130 114z" />
    <glyph glyph-name="wcircumflex" unicode="&#x175;" horiz-adv-x="796" 
d="M253 0h-125q-15 90 -39 267.5t-37 257.5h121l24 -204q4 -34 8 -87.5t8 -86.5h2q60 147 82 196l76 182h116l16 -204q2 -22 4.5 -52t5 -58t4.5 -64h2q10 22 35 80t47 106l89 192h126l-261 -525h-126q-23 157 -31 321h-3q-29 -66 -144 -321zM394 715h129q15 -22 45 -61.5
t42 -57.5h-112l-44 62l-67 -62h-120q24 21 66 61.5t61 57.5z" />
    <glyph glyph-name="Ycircumflex" unicode="&#x176;" horiz-adv-x="610" 
d="M183 0l48 276q-27 73 -79 218.5t-79 220.5h138q65 -208 105 -328q19 27 223 328h139l-318 -439l-48 -276h-129zM322 875h132l87 -114h-114l-46 58l-65 -58h-124q22 18 130 114z" />
    <glyph glyph-name="ycircumflex" unicode="&#x177;" horiz-adv-x="538" 
d="M163 -180h-123l114 194q-70 339 -107 511h130q52 -323 61 -371h2q25 46 93 180.5t98 190.5h134q-41 -71 -148.5 -263.5t-168.5 -296.5zM266 715h129q15 -22 45 -61.5t42 -57.5h-112l-44 62l-67 -62h-120q24 21 66 61.5t61 57.5z" />
    <glyph glyph-name="Ydieresis" unicode="&#x178;" horiz-adv-x="610" 
d="M183 0l48 276q-27 73 -79 218.5t-79 220.5h138q65 -208 105 -328q19 27 223 328h139l-318 -439l-48 -276h-129zM230 792l19 110h112l-19 -110h-112zM417 792l19 110h111l-19 -110h-111z" />
    <glyph glyph-name="Zacute" unicode="&#x179;" horiz-adv-x="574" 
d="M-17 0l17 96q7 8 27 32.5t41.5 50.5t37.5 47l243 296q8 9 63 79h-312l20 114h477l-18 -99l-26 -31q-7 -9 -29.5 -35.5t-35.5 -42.5l-257 -312q-65 -77 -68 -82h341l-20 -113h-501zM550 876l-156 -115h-137l131 115h162z" />
    <glyph glyph-name="zacute" unicode="&#x17a;" horiz-adv-x="494" 
d="M-16 0l15 92l247 261q15 15 28.5 29t19.5 20t13 12.5t14 13.5q-37 -1 -125 -1h-131l17 98h403l-16 -94l-235 -247q-9 -9 -39.5 -41t-46.5 -46q19 0 67 0.5t71 0.5h136l-17 -98h-421zM477 715l-161 -119h-127l135 119h153z" />
    <glyph glyph-name="Zdotaccent" unicode="&#x17b;" horiz-adv-x="574" 
d="M-17 0l17 96q7 8 27 32.5t41.5 50.5t37.5 47l243 296q8 9 63 79h-312l20 114h477l-18 -99l-26 -31q-7 -9 -29.5 -35.5t-35.5 -42.5l-257 -312q-65 -77 -68 -82h341l-20 -113h-501zM300 763l23 110h112l-23 -110h-112z" />
    <glyph glyph-name="zdotaccent" unicode="&#x17c;" horiz-adv-x="494" 
d="M-16 0l15 92l247 261q15 15 28.5 29t19.5 20t13 12.5t14 13.5q-37 -1 -125 -1h-131l17 98h403l-16 -94l-235 -247q-9 -9 -39.5 -41t-46.5 -46q19 0 67 0.5t71 0.5h136l-17 -98h-421zM232 603l19 110h112l-19 -110h-112z" />
    <glyph glyph-name="Zcaron" unicode="&#x17d;" horiz-adv-x="574" 
d="M-17 0l17 96q7 8 27 32.5t41.5 50.5t37.5 47l243 296q8 9 63 79h-312l20 114h477l-18 -99l-26 -31q-7 -9 -29.5 -35.5t-35.5 -42.5l-257 -312q-65 -77 -68 -82h341l-20 -113h-501zM426 761h-132l-87 114h114l46 -58l65 58h124q-22 -18 -130 -114z" />
    <glyph glyph-name="zcaron" unicode="&#x17e;" horiz-adv-x="494" 
d="M-16 0l15 92l247 261q15 15 28.5 29t19.5 20t13 12.5t14 13.5q-37 -1 -125 -1h-131l17 98h403l-16 -94l-235 -247q-9 -9 -39.5 -41t-46.5 -46q19 0 67 0.5t71 0.5h136l-17 -98h-421zM352 596h-129q-3 4 -35 50t-50 69h113l45 -62l66 62h119q-22 -20 -65 -59t-64 -60z" />
    <glyph glyph-name="uni0186" unicode="&#x186;" horiz-adv-x="753" 
d="M194 509h-140q48 102 136.5 160t210.5 58q148 0 235 -82.5t87 -237.5q0 -111 -47.5 -206.5t-138.5 -154.5t-206 -59q-123 0 -202.5 58.5t-105.5 168.5h138q44 -117 177 -117q116 0 183.5 88.5t67.5 207.5q0 104 -51.5 164t-146.5 60q-124 0 -197 -108z" />
    <glyph glyph-name="uni018F" unicode="&#x18f;" horiz-adv-x="784" 
d="M49 400h573q-2 101 -55.5 159t-149.5 58q-133 0 -204 -111h-140q48 101 139.5 161t211.5 60q151 0 240 -83.5t89 -232.5q0 -182 -109.5 -303t-291.5 -121q-145 0 -229 83t-84 237q0 52 10 93zM364 96q95 0 158.5 57t86.5 146h-441q2 -92 50 -147.5t146 -55.5z" />
    <glyph glyph-name="uni0190" unicode="&#x190;" horiz-adv-x="556" 
d="M355 376l-18 -101q-157 0 -157 -113q0 -34 23.5 -52t61.5 -18q41 0 66.5 22.5t32.5 62.5h116q-10 -84 -74 -137t-160 -53q-87 0 -140 42.5t-53 112.5q0 121 126 175q-50 18 -77.5 59.5t-27.5 95.5q0 112 75 184t196 72q113 0 175 -62t52 -156h-120q4 49 -28 80t-89 31
q-61 0 -97 -40.5t-36 -99.5q0 -54 37.5 -79.5t96.5 -25.5h19z" />
    <glyph glyph-name="florin" unicode="&#x192;" horiz-adv-x="392" 
d="M273 483h114l-12 -94h-114l-42 -301q-21 -148 -67 -207.5t-149 -59.5q-35 0 -62 8l11 92q18 -5 34 -5q58 0 79.5 38t32.5 126l43 309h-99l11 94h100q16 122 67 183t149 61q33 0 45 -4l-12 -96q-9 3 -26 3q-50 0 -72 -36.5t-31 -110.5z" />
    <glyph glyph-name="uni019D" unicode="&#x19d;" horiz-adv-x="760" 
d="M210 310l-59 -333q-18 -103 -57.5 -138.5t-138.5 -35.5q-39 0 -55 4l17 92q14 -2 26 -2q35 0 54.5 14.5t27.5 55.5l132 748h154l165 -410q9 -23 28 -67.5t25 -60.5l1 1l31 184l63 353h125l-128 -715h-150l-160 392q-56 135 -60 146h-1q-2 -18 -9.5 -59.5t-17 -93.5
t-13.5 -75z" />
    <glyph glyph-name="uni019F" unicode="&#x19f;" horiz-adv-x="804" 
d="M444 727q151 0 240 -83.5t89 -232.5q0 -182 -109.5 -303t-291.5 -121q-146 0 -235 83.5t-89 236.5q0 112 47 207t139 154t210 59zM384 97q97 0 160.5 58.5t85.5 150.5h-450q4 -98 56.5 -153.5t147.5 -55.5zM437 617q-95 0 -158.5 -56.5t-86.5 -143.5h448q-5 94 -57.5 147
t-145.5 53z" />
    <glyph glyph-name="Ohorn" unicode="&#x1a0;" horiz-adv-x="804" 
d="M384 97q121 0 188 88t67 211q0 104 -52 162.5t-150 58.5q-120 0 -187.5 -88t-67.5 -208q0 -105 51.5 -164.5t150.5 -59.5zM444 727q151 0 240 -83.5t89 -232.5q0 -182 -109.5 -303t-291.5 -121q-146 0 -235 83.5t-89 236.5q0 112 47 207t139 154t210 59zM797 906
l-111 -191h-105l96 191h120z" />
    <glyph glyph-name="ohorn" unicode="&#x1a1;" horiz-adv-x="623" 
d="M286 86q77 0 121 63t44 147q0 65 -32 102t-96 37q-80 0 -124.5 -63t-44.5 -146q0 -67 33.5 -103.5t98.5 -36.5zM332 538q113 0 180 -62t67 -176q0 -137 -81 -227.5t-223 -90.5q-113 0 -180.5 62.5t-67.5 176.5q0 134 83 225.5t222 91.5zM658 715l-111 -191h-105l96 191
h120z" />
    <glyph glyph-name="Uhorn" unicode="&#x1af;" horiz-adv-x="680" 
d="M716 905l-111 -190h70l-78 -445q-25 -145 -92.5 -215.5t-202.5 -70.5q-117 0 -177.5 56.5t-60.5 154.5q0 39 8 85l77 435h128l-74 -420q-8 -48 -8 -75q0 -123 119 -123q75 0 107 45.5t50 142.5l76 429h-47l96 191h120z" />
    <glyph glyph-name="uhorn" unicode="&#x1b0;" horiz-adv-x="603" 
d="M619 715l-111 -190h64l-92 -525h-118l11 64q-20 -31 -65 -55t-105 -24q-78 0 -121 42t-43 117q0 27 6 61l59 320h122l-48 -272q-7 -37 -7 -67q0 -99 90 -99q108 0 137 148l52 289h-47l96 191h120z" />
    <glyph glyph-name="uni01C4" unicode="&#x1c4;" horiz-adv-x="1301" 
d="M697 416q0 -100 -41 -192t-121 -149q-65 -46 -137.5 -60.5t-186.5 -14.5h-180l126 715h140q96 0 165.5 -10.5t121.5 -46.5q113 -75 113 -242zM457 163q53 35 80 102.5t27 140.5q0 97 -58.5 146.5t-166.5 49.5h-74l-87 -490h76q131 0 203 51zM710 0l17 96q7 8 27 32.5
t41.5 50.5t37.5 47l243 296q8 9 63 79h-312l20 114h477l-18 -99l-26 -31q-7 -9 -29.5 -35.5t-35.5 -42.5l-257 -312q-65 -77 -68 -82h341l-20 -113h-501zM1153 761h-132l-87 114h114l46 -58l65 58h124q-22 -18 -130 -114z" />
    <glyph glyph-name="uni01C5" unicode="&#x1c5;" horiz-adv-x="1221" 
d="M697 416q0 -100 -41 -192t-121 -149q-65 -46 -137.5 -60.5t-186.5 -14.5h-180l126 715h140q96 0 165.5 -10.5t121.5 -46.5q113 -75 113 -242zM457 163q53 35 80 102.5t27 140.5q0 97 -58.5 146.5t-166.5 49.5h-74l-87 -490h76q131 0 203 51zM711 0l15 92l247 261l75 75
q-37 -1 -125 -1h-131l17 98h403l-16 -94l-235 -247q-9 -9 -39.5 -41t-46.5 -46q19 0 67 0.5t71 0.5h136l-17 -98h-421zM1079 596h-129q-3 4 -35 50t-50 69h113l45 -62l66 62h119q-21 -20 -64 -59t-65 -60z" />
    <glyph glyph-name="uni01C6" unicode="&#x1c6;" horiz-adv-x="1135" 
d="M517 0h-123l9 47q-17 -22 -59.5 -43t-100.5 -21q-97 0 -156.5 63t-59.5 174q0 129 77.5 223.5t203.5 94.5q59 0 103 -21t64 -52l45 250h123zM320 433q-79 0 -122.5 -64t-43.5 -149q0 -61 32.5 -99t92.5 -38q81 0 125.5 62.5t44.5 147.5q0 140 -129 140zM625 0l15 92
l247 261l75 75q-37 -1 -125 -1h-131l17 98h403l-16 -94l-235 -247q-9 -9 -39.5 -41t-46.5 -46q19 0 67 0.5t71 0.5h136l-17 -98h-421zM993 596h-129q-3 4 -35 50t-50 69h113l45 -62l66 62h119q-21 -20 -64.5 -59t-64.5 -60z" />
    <glyph glyph-name="uni01C7" unicode="&#x1c7;" horiz-adv-x="1023" 
d="M31 0l126 715h128l-106 -602h281l-20 -113h-409zM889 715h128l-88 -494q-15 -82 -42 -132q-59 -104 -191 -104q-83 0 -132.5 43.5t-49.5 120.5q0 10 2 32h119v-8q0 -35 18.5 -56t52.5 -21q22 0 38 8.5t25 18t17 34.5t10.5 39.5t9.5 52.5z" />
    <glyph glyph-name="uni01C8" unicode="&#x1c8;" horiz-adv-x="779" 
d="M31 0l126 715h128l-106 -602h281l-20 -113h-409zM748 525l-97 -548q-18 -102 -56.5 -138t-137.5 -36q-39 0 -55 4l17 92q14 -2 26 -2q35 0 55 14.5t26 51.5l99 562h123zM784 715l-19 -114h-128l20 114h127z" />
    <glyph glyph-name="uni01C9" unicode="&#x1c9;" horiz-adv-x="530" 
d="M19 0l125 715h123l-126 -715h-122zM499 525l-97 -548q-18 -102 -56.5 -138t-137.5 -36q-39 0 -55 4l17 92q14 -2 26 -2q35 0 55 14.5t26 51.5l99 562h123zM535 715l-19 -114h-128l20 114h127z" />
    <glyph glyph-name="uni01CA" unicode="&#x1ca;" horiz-adv-x="1266" 
d="M31 0l126 715h154l165 -410q9 -23 28 -67.5t25 -60.5l1 1l31 184l63 353h125l-128 -715h-150l-160 392q-56 135 -60 146h-1q-2 -18 -9.5 -59.5t-17 -93.5t-13.5 -75l-54 -310h-125zM1132 715h128l-88 -494q-15 -82 -42 -132q-59 -104 -191 -104q-83 0 -132.5 43.5
t-49.5 120.5q0 10 2 32h119v-8q0 -35 18.5 -56t52.5 -21q22 0 38 8.5t25 18t17 34.5t10.5 39.5t9.5 52.5z" />
    <glyph glyph-name="uni01CB" unicode="&#x1cb;" horiz-adv-x="1022" 
d="M31 0l126 715h154l165 -410q9 -23 28 -67.5t25 -60.5l1 1l31 184l63 353h125l-128 -715h-150l-160 392q-56 135 -60 146h-1q-2 -18 -9.5 -59.5t-17 -93.5t-13.5 -75l-54 -310h-125zM991 525l-97 -548q-18 -102 -56.5 -138t-137.5 -36q-39 0 -55 4l17 92q14 -2 26 -2
q35 0 55 14.5t26 51.5l99 562h123zM1027 715l-19 -114h-128l20 114h127z" />
    <glyph glyph-name="uni01CC" unicode="&#x1cc;" horiz-adv-x="866" 
d="M15 0l93 525h117l-12 -67q22 31 67 55t104 24q79 0 122 -42t43 -117q0 -26 -6 -61l-57 -317h-122l46 269q7 37 7 67q0 99 -91 99q-109 0 -138 -148l-51 -287h-122zM835 525l-97 -548q-18 -102 -56.5 -138t-137.5 -36q-39 0 -55 4l17 92q14 -2 26 -2q35 0 55 14.5t26 51.5
l99 562h123zM871 715l-19 -114h-128l20 114h127z" />
    <glyph glyph-name="uni01F1" unicode="&#x1f1;" horiz-adv-x="1290" 
d="M697 416q0 -100 -41 -192t-121 -149q-65 -46 -137.5 -60.5t-186.5 -14.5h-180l126 715h140q96 0 165.5 -10.5t121.5 -46.5q113 -75 113 -242zM457 163q53 35 80 102.5t27 140.5q0 97 -58.5 146.5t-166.5 49.5h-74l-87 -490h76q131 0 203 51zM699 0l17 96q7 8 27 32.5
t41.5 50.5t37.5 47l243 296q8 9 63 79h-312l20 114h477l-18 -99l-26 -31q-7 -9 -29.5 -35.5t-35.5 -42.5l-257 -312q-65 -77 -68 -82h341l-20 -113h-501z" />
    <glyph glyph-name="uni01F2" unicode="&#x1f2;" horiz-adv-x="1221" 
d="M697 416q0 -100 -41 -192t-121 -149q-65 -46 -137.5 -60.5t-186.5 -14.5h-180l126 715h140q96 0 165.5 -10.5t121.5 -46.5q113 -75 113 -242zM457 163q53 35 80 102.5t27 140.5q0 97 -58.5 146.5t-166.5 49.5h-74l-87 -490h76q131 0 203 51zM711 0l15 92l247 261l75 75
q-37 -1 -125 -1h-131l17 98h403l-16 -94l-235 -247q-9 -9 -39.5 -41t-46.5 -46q19 0 67 0.5t71 0.5h136l-17 -98h-421z" />
    <glyph glyph-name="uni01F3" unicode="&#x1f3;" horiz-adv-x="1135" 
d="M517 0h-123l9 47q-17 -22 -59.5 -43t-100.5 -21q-97 0 -156.5 63t-59.5 174q0 129 77.5 223.5t203.5 94.5q59 0 103 -21t64 -52l45 250h123zM320 433q-79 0 -122.5 -64t-43.5 -149q0 -61 32.5 -99t92.5 -38q81 0 125.5 62.5t44.5 147.5q0 140 -129 140zM625 0l15 92
l247 261l75 75q-37 -1 -125 -1h-131l17 98h403l-16 -94l-235 -247q-9 -9 -39.5 -41t-46.5 -46q19 0 67 0.5t71 0.5h136l-17 -98h-421z" />
    <glyph glyph-name="Aringacute" unicode="&#x1fa;" horiz-adv-x="712" 
d="M361 715h140l164 -715h-130l-44 206h-298l-113 -206h-136q111 194 235 404zM255 316h213l-58 286zM442 738q-41 0 -69 28.5t-28 70.5q0 40 29 68.5t69 28.5q41 0 69.5 -28.5t28.5 -68.5q0 -42 -28.5 -70.5t-70.5 -28.5zM399 837q0 -19 12.5 -32t30.5 -13q19 0 31.5 12.5
t12.5 32.5q0 17 -13 30t-31 13t-30.5 -13t-12.5 -30zM669 1073l-156 -115h-137l131 115h162z" />
    <glyph glyph-name="aringacute" unicode="&#x1fb;" horiz-adv-x="564" 
d="M361 325q22 2 25 2q4 20 4 40q0 37 -24 58t-68 21q-94 0 -111 -84h-122q16 80 80.5 129.5t164.5 49.5q96 0 147.5 -42t51.5 -125q0 -45 -9 -90l-23 -119q-18 -98 -23 -165h-112q2 23 9 62h-2q-72 -72 -179 -72q-76 0 -120.5 35.5t-44.5 101.5q0 39 16 70t47.5 51.5t63 34
t78.5 22t76.5 12.5t74.5 8zM373 242l-50 -7q-38 -5 -57 -8t-48.5 -10.5t-43.5 -16.5t-25 -24t-11 -35q0 -29 21.5 -44.5t58.5 -15.5q65 0 100.5 35.5t50.5 106.5zM358 564q-41 0 -69 28.5t-28 70.5q0 40 29 68.5t69 28.5q41 0 69.5 -28.5t28.5 -68.5q0 -42 -28.5 -70.5
t-70.5 -28.5zM315 663q0 -19 12.5 -32t30.5 -13q19 0 31.5 12.5t12.5 32.5q0 17 -13 30t-31 13t-30.5 -13t-12.5 -30zM583 902l-161 -119h-127l135 119h153z" />
    <glyph glyph-name="AEacute" unicode="&#x1fc;" horiz-adv-x="915" 
d="M935 715l-21 -114h-302l-25 -180h272l-20 -114h-269l-29 -194h294l-20 -113h-416l25 164h-232l-119 -164h-139l531 715h470zM440 274l18 122q27 174 28 179h-2q-58 -87 -98 -140l-116 -161h170zM887 876l-156 -115h-137l131 115h162z" />
    <glyph glyph-name="aeacute" unicode="&#x1fd;" horiz-adv-x="932" 
d="M888 227q-66 0 -200 0.5t-200 0.5q0 -64 35.5 -103.5t95.5 -39.5q86 0 126 63h127q-32 -74 -101 -120t-165 -46q-137 0 -203 103q-87 -95 -223 -95q-175 0 -175 137q0 39 16 70t47.5 51.5t63 34t78.5 22t76.5 12.5t74.5 8q22 2 25 2q4 20 4 40q0 37 -24 58t-68 21
q-94 0 -111 -84h-122q16 80 80.5 129.5t164.5 49.5q119 0 167 -69q78 66 183 66q114 0 174.5 -66.5t60.5 -171.5q0 -41 -7 -73zM500 315h277q-2 58 -35 92t-89 34q-124 0 -153 -126zM373 242l-50 -7q-38 -5 -57 -8t-48.5 -10.5t-43.5 -16.5t-25 -24t-11 -35
q0 -29 21.5 -44.5t58.5 -15.5q65 0 100.5 35.5t50.5 106.5zM710 715l-161 -119h-127l135 119h153z" />
    <glyph glyph-name="Oslashacute" unicode="&#x1fe;" horiz-adv-x="804" 
d="M444 727q86 0 158 -32l55 71l91 -67l-53 -69q78 -84 78 -219q0 -182 -109.5 -303t-291.5 -121q-84 0 -150 28l-51 -67l-91 67l49 64q-81 84 -81 228q0 112 47 207t139 154t210 59zM182 321q0 -80 30 -134l317 412q-41 18 -92 18q-120 0 -187.5 -88t-67.5 -208zM384 97
q121 0 188 88t67 211q0 73 -28 125l-314 -409q37 -15 87 -15zM661 876l-156 -115h-137l131 115h162z" />
    <glyph glyph-name="oslashacute" unicode="&#x1ff;" horiz-adv-x="623" 
d="M547 715l-161 -119h-127l135 119h153zM332 538q58 0 104 -18l60 77l72 -53l-55 -71q66 -64 66 -173q0 -137 -81 -227.5t-223 -90.5q-66 0 -121 23l-58 -76l-77 56l59 76q-51 61 -51 160q0 134 83 225.5t222 91.5zM286 86q77 0 121 63t44 147q0 44 -15 76l-211 -275
q24 -11 61 -11zM154 226q0 -28 8 -57l203 260q-18 6 -42 6q-80 0 -124.5 -63t-44.5 -146z" />
    <glyph glyph-name="uni0218" unicode="&#x218;" horiz-adv-x="603" 
d="M548 228q0 -112 -76 -177.5t-210 -65.5q-121 0 -187.5 58.5t-60.5 156.5h123q2 -49 37.5 -77.5t97.5 -28.5q64 0 102.5 29t38.5 77q0 21 -6.5 35.5t-26 26.5t-33.5 18.5t-50 19.5l-36 13q-90 31 -129 73.5t-39 121.5q0 97 72.5 158t189.5 61q111 0 172.5 -54t55.5 -142
h-122q-3 39 -34 63t-81 24q-56 0 -87 -25.5t-31 -65.5q0 -35 21.5 -56t70.5 -39l34 -12q46 -16 76 -30t59.5 -36.5t44 -53.5t14.5 -72zM101 -163l114 114h123l-97 -114h-140z" />
    <glyph glyph-name="uni0219" unicode="&#x219;" horiz-adv-x="496" 
d="M5 167h109q4 -39 31 -61t74 -22q49 0 73.5 18.5t24.5 47.5q0 16 -11.5 27t-24.5 16.5t-44 15.5l-51 16q-67 21 -97.5 52.5t-30.5 87.5q0 78 60.5 126.5t157.5 48.5q84 0 135.5 -38.5t51.5 -106.5q0 -9 -1 -17h-104q-11 64 -94 64q-39 0 -62.5 -16t-23.5 -43q0 -39 64 -57
l52 -15q74 -21 107.5 -52.5t33.5 -87.5q0 -84 -62.5 -135t-162.5 -51q-95 0 -150 46t-55 136zM35 -163l114 114h123l-97 -114h-140z" />
    <glyph glyph-name="uni021A" unicode="&#x21a;" horiz-adv-x="546" 
d="M156 0l106 601h-175l20 114h477l-20 -114h-174l-106 -601h-128zM289 -49l-108 -119h-116l84 119h140z" />
    <glyph glyph-name="uni021B" unicode="&#x21b;" horiz-adv-x="337" 
d="M114 429h-78l17 96h78l26 142h123l-26 -142h96l-17 -96h-96l-48 -269q-4 -15 -4 -36q0 -43 54 -43q9 0 23 2l-17 -92q-21 -3 -40 -3q-73 0 -110.5 23t-37.5 77q0 14 6 52zM222 -49l-108 -119h-116l84 119h140z" />
    <glyph glyph-name="uni021D" unicode="&#x21d;" horiz-adv-x="535" 
d="M186 151l18 101q157 0 157 113q0 34 -23.5 52t-61.5 18q-41 0 -66.5 -22.5t-32.5 -62.5h-116q10 84 74 137t160 53q87 0 140 -42.5t53 -112.5q0 -121 -126 -175q50 -18 77.5 -59.5t27.5 -95.5q0 -112 -75 -184t-196 -72q-113 0 -175 62t-52 156h120q-4 -49 28 -80t89 -31
q61 0 97 40.5t36 99.5q0 54 -37.5 79.5t-96.5 25.5h-19z" />
    <glyph glyph-name="uni0226" unicode="&#x226;" horiz-adv-x="712" 
d="M361 715h140l164 -715h-130l-44 206h-298l-113 -206h-136q111 194 235 404zM255 316h213l-58 286zM383 763l23 110h112l-23 -110h-112z" />
    <glyph glyph-name="uni0227" unicode="&#x227;" horiz-adv-x="564" 
d="M361 325q22 2 25 2q4 20 4 40q0 37 -24 58t-68 21q-94 0 -111 -84h-122q16 80 80.5 129.5t164.5 49.5q96 0 147.5 -42t51.5 -125q0 -45 -9 -90l-23 -119q-18 -98 -23 -165h-112q2 23 9 62h-2q-72 -72 -179 -72q-76 0 -120.5 35.5t-44.5 101.5q0 39 16 70t47.5 51.5t63 34
t78.5 22t76.5 12.5t74.5 8zM373 242l-50 -7q-38 -5 -57 -8t-48.5 -10.5t-43.5 -16.5t-25 -24t-11 -35q0 -29 21.5 -44.5t58.5 -15.5q65 0 100.5 35.5t50.5 106.5zM271 603l19 110h112l-19 -110h-112z" />
    <glyph glyph-name="uni0232" unicode="&#x232;" horiz-adv-x="610" 
d="M183 0l48 276q-27 73 -79 218.5t-79 220.5h138q65 -208 105 -328q19 27 223 328h139l-318 -439l-48 -276h-129zM247 773l19 85h273l-19 -85h-273z" />
    <glyph glyph-name="uni0233" unicode="&#x233;" horiz-adv-x="538" 
d="M163 -180h-123l114 194q-70 339 -107 511h130q52 -323 61 -371h2q25 46 93 180.5t98 190.5h134q-41 -71 -148.5 -263.5t-168.5 -296.5zM180 618l15 85h273l-15 -85h-273z" />
    <glyph glyph-name="dotlessj" unicode="&#x237;" horiz-adv-x="262" 
d="M231 525l-97 -548q-18 -102 -56.5 -138t-137.5 -36q-39 0 -55 4l17 92q14 -2 26 -2q35 0 55 14.5t26 51.5l99 562h123z" />
    <glyph glyph-name="uni0254" unicode="&#x254;" horiz-adv-x="587" 
d="M162 359h-125q73 185 264 185q112 0 177.5 -65t65.5 -178q0 -134 -82 -223.5t-216 -89.5q-105 0 -168.5 52.5t-67.5 137.5h126q8 -42 38 -64.5t78 -22.5q76 0 120.5 62t44.5 143q0 67 -32 105t-91 38q-85 0 -132 -80z" />
    <glyph glyph-name="uni0259" unicode="&#x259;" horiz-adv-x="596" 
d="M29 298q67 0 200 -0.5t200 -0.5q0 64 -35.5 103.5t-95.5 39.5q-86 0 -126 -63h-127q32 74 101 120t165 46q107 0 174.5 -63.5t67.5 -179.5q0 -132 -82 -222.5t-214 -90.5q-114 0 -174.5 66.5t-60.5 171.5q0 41 7 73zM417 210h-277q2 -58 35 -92t89 -34q124 0 153 126z
" />
    <glyph glyph-name="uni025B" unicode="&#x25b;" horiz-adv-x="550" 
d="M318 187l-18 -101q-157 0 -157 -113q0 -34 23.5 -52t61.5 -18q41 0 66.5 22.5t32.5 62.5h116q-10 -84 -74 -137t-160 -53q-87 0 -140 42.5t-53 112.5q0 121 126 175q-50 18 -77.5 59.5t-27.5 95.5q0 112 75 184t196 72q113 0 175 -62t52 -156h-120q4 49 -28 80t-89 31
q-61 0 -97 -40.5t-36 -99.5q0 -54 37.5 -79.5t96.5 -25.5h19z" />
    <glyph glyph-name="uni0272" unicode="&#x272;" horiz-adv-x="605" 
d="M9 -37l100 562h117l-12 -67q22 31 67 55t104 24q79 0 122 -42t43 -117q0 -26 -6 -61l-57 -317h-122l46 269q7 37 7 67q0 99 -91 99q-109 0 -138 -148l-55 -310q-18 -102 -56.5 -138t-137.5 -36q-39 0 -55 4l17 92q14 -2 26 -2q35 0 55 14.5t26 51.5z" />
    <glyph glyph-name="uni0275" unicode="&#x275;" horiz-adv-x="623" 
d="M332 538q113 0 180 -62t67 -176q0 -137 -81 -227.5t-223 -90.5q-113 0 -180.5 62.5t-67.5 176.5q0 134 83 225.5t222 91.5zM286 86q58 0 98.5 37t57.5 95h-290q2 -64 36.5 -98t97.5 -34zM323 435q-57 0 -97 -32.5t-59 -84.5h285q-5 55 -38 86t-91 31z" />
    <glyph glyph-name="apostrophemod" unicode="&#x2bc;" horiz-adv-x="245" 
d="M275 715l-132 -255h-110l117 255h125z" />
    <glyph glyph-name="circumflex" unicode="&#x2c6;" horiz-adv-x="503" 
d="M197 715h129q15 -22 45 -61.5t42 -57.5h-112l-44 62l-67 -62h-120q24 21 66 61.5t61 57.5z" />
    <glyph glyph-name="caron" unicode="&#x2c7;" horiz-adv-x="502" 
d="M305 596h-129q-3 4 -35 50t-50 69h113l45 -62l66 62h119q-21 -20 -64 -59t-65 -60z" />
    <glyph glyph-name="breve" unicode="&#x2d8;" horiz-adv-x="465" 
d="M221 584q-59 0 -91.5 30.5t-32.5 84.5v10q0 4 1 6h79q5 -49 56 -49q49 0 76 49h84q-20 -62 -66 -96.5t-106 -34.5z" />
    <glyph glyph-name="dotaccent" unicode="&#x2d9;" horiz-adv-x="328" 
d="M98 603l19 110h112l-19 -110h-112z" />
    <glyph glyph-name="ring" unicode="&#x2da;" horiz-adv-x="405" 
d="M239 578q-41 0 -69 28.5t-28 70.5q0 40 29 68.5t69 28.5q41 0 69.5 -28.5t28.5 -68.5q0 -42 -28.5 -70.5t-70.5 -28.5zM196 677q0 -19 12.5 -32t30.5 -13q19 0 31.5 12.5t12.5 32.5q0 17 -12.5 30t-31.5 13q-18 0 -30.5 -13t-12.5 -30z" />
    <glyph glyph-name="ogonek" unicode="&#x2db;" horiz-adv-x="331" 
d="M180 -49l80 -114h-130l-55 114h105z" />
    <glyph glyph-name="tilde" unicode="&#x2dc;" horiz-adv-x="470" 
d="M363 591q-31 0 -64.5 20t-46.5 20q-24 0 -37 -37h-75q9 50 40.5 87t69.5 37q30 0 66 -20t50 -20q13 0 21 8.5t15 28.5h76q-10 -51 -42 -87.5t-73 -36.5z" />
    <glyph glyph-name="hungarumlaut" unicode="&#x2dd;" horiz-adv-x="612" 
d="M375 715l-162 -119h-123l135 119h150zM577 715l-162 -119h-123l135 119h150z" />
    <glyph glyph-name="uni032C" unicode="&#x32c;" horiz-adv-x="503" 
d="M123 -48h129q15 -22 45 -61.5t42 -57.5h-112l-44 62l-67 -62h-120q24 21 66 61.5t61 57.5z" />
    <glyph glyph-name="uni0394" unicode="&#x394;" horiz-adv-x="670" 
d="M233 715h153l260 -715h-673zM310 610l-176 -506h352z" />
    <glyph glyph-name="uni03A9" unicode="&#x3a9;" horiz-adv-x="830" 
d="M61 392q0 136 95.5 235.5t254.5 99.5q158 0 253.5 -99.5t95.5 -235.5q0 -91 -33 -157.5t-102 -122.5h133v-112h-298v105q168 97 168 280q0 100 -57.5 166t-159.5 66t-160 -66t-58 -166q0 -183 168 -280v-105h-298v112h133q-69 56 -102 122.5t-33 157.5z" />
    <glyph glyph-name="uni03BC" unicode="&#x3bc;" horiz-adv-x="607" 
d="M576 525l-92 -525h-118l11 64q-25 -36 -67.5 -57t-90.5 -21q-45 0 -82 19l-35 -201h-121l127 721h122l-48 -272q-7 -37 -7 -67q0 -99 90 -99q108 0 137 148l52 290h122z" />
    <glyph glyph-name="pi" unicode="&#x3c0;" horiz-adv-x="658" 
d="M644 427h-94l-48 -267q-4 -15 -4 -36q0 -43 54 -43q9 0 23 2l-17 -92q-21 -3 -40 -3q-73 0 -110.5 23t-37.5 77q0 14 6 52l51 287h-170l-76 -427h-123l76 427h-101l17 98h611z" />
    <glyph glyph-name="Wgrave" unicode="&#x1e80;" horiz-adv-x="945" 
d="M992 715l-277 -715h-171l-15 421q-4 121 -2 182h-1q-45 -125 -68 -182l-165 -421h-177l-23 715h132l2 -405q0 -151 -1 -179h3q14 40 68 178l164 406h169l18 -406q1 -27 1 -181h2q12 41 32.5 95.5t31.5 86.5l149 405h128zM497 761l-123 115h154l91 -115h-122z" />
    <glyph glyph-name="wgrave" unicode="&#x1e81;" horiz-adv-x="796" 
d="M253 0h-125q-15 90 -39 267.5t-37 257.5h121l24 -204q4 -34 8 -87.5t8 -86.5h2q60 147 82 196l76 182h116l16 -204q2 -22 4.5 -52t5 -58t4.5 -64h2q10 22 35 80t47 106l89 192h126l-261 -525h-126q-23 157 -31 321h-3q-29 -66 -144 -321zM391 596l-126 119h146l93 -119
h-113z" />
    <glyph glyph-name="Wacute" unicode="&#x1e82;" horiz-adv-x="945" 
d="M992 715l-277 -715h-171l-15 421q-4 121 -2 182h-1q-45 -125 -68 -182l-165 -421h-177l-23 715h132l2 -405q0 -151 -1 -179h3q14 40 68 178l164 406h169l18 -406q1 -27 1 -181h2q12 41 32.5 95.5t31.5 86.5l149 405h128zM754 876l-156 -115h-137l131 115h162z" />
    <glyph glyph-name="wacute" unicode="&#x1e83;" horiz-adv-x="796" 
d="M253 0h-125q-15 90 -39 267.5t-37 257.5h121l24 -204q4 -34 8 -87.5t8 -86.5h2q60 147 82 196l76 182h116l16 -204q2 -22 4.5 -52t5 -58t4.5 -64h2q10 22 35 80t47 106l89 192h126l-261 -525h-126q-23 157 -31 321h-3q-29 -66 -144 -321zM651 715l-161 -119h-127l135 119
h153z" />
    <glyph glyph-name="Wdieresis" unicode="&#x1e84;" horiz-adv-x="945" 
d="M992 715l-277 -715h-171l-15 421q-4 121 -2 182h-1q-45 -125 -68 -182l-165 -421h-177l-23 715h132l2 -405q0 -151 -1 -179h3q14 40 68 178l164 406h169l18 -406q1 -27 1 -181h2q12 41 32.5 95.5t31.5 86.5l149 405h128zM404 763l23 110h112l-23 -110h-112zM591 763
l23 110h111l-23 -110h-111z" />
    <glyph glyph-name="wdieresis" unicode="&#x1e85;" horiz-adv-x="796" 
d="M253 0h-125q-15 90 -39 267.5t-37 257.5h121l24 -204q4 -34 8 -87.5t8 -86.5h2q60 147 82 196l76 182h116l16 -204q2 -22 4.5 -52t5 -58t4.5 -64h2q10 22 35 80t47 106l89 192h126l-261 -525h-126q-23 157 -31 321h-3q-29 -66 -144 -321zM295 603l19 110h112l-19 -110
h-112zM482 603l19 110h111l-19 -110h-111z" />
    <glyph glyph-name="uni1EA0" unicode="&#x1ea0;" horiz-adv-x="712" 
d="M361 715h140l164 -715h-130l-44 206h-298l-113 -206h-136q111 194 235 404zM255 316h213l-58 286zM236 -158l19 110h112l-19 -110h-112z" />
    <glyph glyph-name="uni1EA1" unicode="&#x1ea1;" horiz-adv-x="564" 
d="M361 325q22 2 25 2q4 20 4 40q0 37 -24 58t-68 21q-94 0 -111 -84h-122q16 80 80.5 129.5t164.5 49.5q96 0 147.5 -42t51.5 -125q0 -45 -9 -90l-23 -119q-18 -98 -23 -165h-112q2 23 9 62h-2q-72 -72 -179 -72q-76 0 -120.5 35.5t-44.5 101.5q0 39 16 70t47.5 51.5t63 34
t78.5 22t76.5 12.5t74.5 8zM373 242l-50 -7q-38 -5 -57 -8t-48.5 -10.5t-43.5 -16.5t-25 -24t-11 -35q0 -29 21.5 -44.5t58.5 -15.5q65 0 100.5 35.5t50.5 106.5zM156 -158l19 110h112l-19 -110h-112z" />
    <glyph glyph-name="uni1EB8" unicode="&#x1eb8;" horiz-adv-x="574" 
d="M31 0l126 715h436l-20 -114h-308l-32 -180h284l-20 -114h-284l-34 -194h315l-20 -113h-443zM190 -158l19 110h112l-19 -110h-112z" />
    <glyph glyph-name="uni1EB9" unicode="&#x1eb9;" horiz-adv-x="595" 
d="M551 227q-67 0 -200 0.5t-200 0.5q0 -64 35.5 -103.5t95.5 -39.5q86 0 126 63h127q-32 -74 -101 -120t-165 -46q-107 0 -174.5 63.5t-67.5 179.5q0 132 82 222.5t214 90.5q114 0 174.5 -66.5t60.5 -171.5q0 -41 -7 -73zM163 315h277q-2 58 -35 92t-89 34
q-124 0 -153 -126zM180 -158l19 110h112l-19 -110h-112z" />
    <glyph glyph-name="uni1ECA" unicode="&#x1eca;" horiz-adv-x="297" 
d="M285 715l-126 -715h-128l126 715h128zM15 -158l19 110h112l-19 -110h-112z" />
    <glyph glyph-name="uni1ECB" unicode="&#x1ecb;" horiz-adv-x="262" 
d="M16 0l92 525h123l-93 -525h-122zM118 601l20 114h127l-20 -114h-127zM-4 -158l19 110h112l-19 -110h-112z" />
    <glyph glyph-name="uni1ECC" unicode="&#x1ecc;" horiz-adv-x="804" 
d="M384 97q121 0 188 88t67 211q0 104 -52 162.5t-150 58.5q-120 0 -187.5 -88t-67.5 -208q0 -105 51.5 -164.5t150.5 -59.5zM444 727q151 0 240 -83.5t89 -232.5q0 -182 -109.5 -303t-291.5 -121q-146 0 -235 83.5t-89 236.5q0 112 47 207t139 154t210 59zM267 -158l19 110
h112l-19 -110h-112z" />
    <glyph glyph-name="uni1ECD" unicode="&#x1ecd;" horiz-adv-x="623" 
d="M286 86q77 0 121 63t44 147q0 65 -32 102t-96 37q-80 0 -124.5 -63t-44.5 -146q0 -67 33.5 -103.5t98.5 -36.5zM332 538q113 0 180 -62t67 -176q0 -137 -81 -227.5t-223 -90.5q-113 0 -180.5 62.5t-67.5 176.5q0 134 83 225.5t222 91.5zM184 -158l19 110h112l-19 -110
h-112z" />
    <glyph glyph-name="uni1EE4" unicode="&#x1ee4;" horiz-adv-x="680" 
d="M302 -16q-117 0 -177.5 56.5t-60.5 154.5q0 39 8 85l77 435h128l-74 -420q-8 -48 -8 -75q0 -123 119 -123q75 0 107 45.5t50 142.5l76 430h128l-78 -445q-25 -145 -92.5 -215.5t-202.5 -70.5zM207 -158l19 110h112l-19 -110h-112z" />
    <glyph glyph-name="uni1EE5" unicode="&#x1ee5;" horiz-adv-x="603" 
d="M572 525l-92 -525h-118l11 64q-20 -31 -65 -55t-105 -24q-78 0 -121 42t-43 117q0 27 6 61l59 320h122l-48 -272q-7 -37 -7 -67q0 -99 90 -99q108 0 137 148l52 290h122zM163 -158l19 110h112l-19 -110h-112z" />
    <glyph glyph-name="Ygrave" unicode="&#x1ef2;" horiz-adv-x="610" 
d="M183 0l48 276q-27 73 -79 218.5t-79 220.5h138q65 -208 105 -328q19 27 223 328h139l-318 -439l-48 -276h-129zM332 761l-123 115h154l91 -115h-122z" />
    <glyph glyph-name="ygrave" unicode="&#x1ef3;" horiz-adv-x="538" 
d="M163 -180h-123l114 194q-70 339 -107 511h130q52 -323 61 -371h2q25 46 93 180.5t98 190.5h134q-41 -71 -148.5 -263.5t-168.5 -296.5zM273 596l-126 119h146l93 -119h-113z" />
    <glyph glyph-name="enspace" unicode="&#x2002;" horiz-adv-x="500" 
 />
    <glyph glyph-name="emspace" unicode="&#x2003;" horiz-adv-x="1000" 
 />
    <glyph glyph-name="threeperemspace" unicode="&#x2004;" horiz-adv-x="0" 
 />
    <glyph glyph-name="fourperemspace" unicode="&#x2005;" horiz-adv-x="250" 
 />
    <glyph glyph-name="thinspace" unicode="&#x2009;" horiz-adv-x="133" 
 />
    <glyph glyph-name="hairspace" unicode="&#x200a;" horiz-adv-x="75" 
 />
    <glyph glyph-name="endash" unicode="&#x2013;" horiz-adv-x="604" 
d="M53 251l18 103h476l-18 -103h-476z" />
    <glyph glyph-name="emdash" unicode="&#x2014;" horiz-adv-x="969" 
d="M53 251l18 103h841l-18 -103h-841z" />
    <glyph glyph-name="quoteleft" unicode="&#x2018;" horiz-adv-x="276" 
d="M71 460l132 255h110l-117 -255h-125z" />
    <glyph glyph-name="quoteright" unicode="&#x2019;" horiz-adv-x="273" 
d="M315 715l-132 -255h-110l117 255h125z" />
    <glyph glyph-name="quotesinglbase" unicode="&#x201a;" horiz-adv-x="268" 
d="M182 134l-132 -255h-109l116 255h125z" />
    <glyph glyph-name="quotedblleft" unicode="&#x201c;" horiz-adv-x="472" 
d="M267 460l132 255h110l-117 -255h-125zM71 460l132 255h110l-117 -255h-125z" />
    <glyph glyph-name="quotedblright" unicode="&#x201d;" horiz-adv-x="469" 
d="M315 715l-132 -255h-110l117 255h125zM511 715l-132 -255h-110l117 255h125z" />
    <glyph glyph-name="quotedblbase" unicode="&#x201e;" horiz-adv-x="465" 
d="M183 134l-132 -255h-110l117 255h125zM379 134l-132 -255h-110l117 255h125z" />
    <glyph glyph-name="dagger" unicode="&#x2020;" horiz-adv-x="515" 
d="M393 731l-32 -181h162l-18 -105h-162l-92 -513h-122l92 513h-163l18 105h163l32 181h122z" />
    <glyph glyph-name="daggerdbl" unicode="&#x2021;" horiz-adv-x="540" 
d="M471 182h-162l-45 -250h-121l45 250h-163l18 105h163l25 142h-163l19 105h163l32 181h121l-32 -181h162l-19 -105h-162l-25 -142h162z" />
    <glyph glyph-name="bullet" unicode="&#x2022;" horiz-adv-x="515" 
d="M263 156q-75 0 -127 52t-52 126q0 75 52 126t127 51t126.5 -51t51.5 -126q0 -74 -52 -126t-126 -52z" />
    <glyph glyph-name="ellipsis" unicode="&#x2026;" horiz-adv-x="925" 
d="M10 0l23 134h129l-23 -134h-129zM345 0l23 134h129l-23 -134h-129zM680 0l23 134h129l-23 -134h-129z" />
    <glyph glyph-name="perthousand" unicode="&#x2030;" horiz-adv-x="1260" 
d="M190 0l426 715h81l-426 -715h-81zM264 725q74 0 111 -40q21 -21 23 -74q0 -47 -10 -91q-8 -39 -14 -61.5t-21.5 -51.5t-37.5 -47q-44 -37 -117 -37q-74 0 -111 40q-21 21 -23 74q0 47 10 91q8 39 14 61.5t21.5 51.5t37.5 47q44 37 117 37zM208 395q31 0 50.5 17.5t27 39
t15.5 59.5l4 23q7 37 7 60q-1 29 -13 44t-44 15q-31 0 -50.5 -17.5t-27 -39t-15.5 -59.5l-4 -23q-7 -37 -7 -60q1 -29 13 -44t44 -15zM690 387q74 0 111 -40q21 -21 23 -74q0 -47 -10 -91q-8 -39 -14 -61.5t-21.5 -51.5t-37.5 -47q-44 -37 -117 -37q-74 0 -111 40
q-21 21 -23 74q0 47 10 91q8 39 14 61.5t21.5 51.5t37.5 47q44 37 117 37zM634 57q31 0 50.5 17.5t27 39t15.5 59.5l4 23q7 37 7 60q-1 29 -13 44t-44 15q-31 0 -50.5 -17.5t-27 -39t-15.5 -59.5l-4 -23q-7 -37 -7 -60q1 -29 13 -44t44 -15zM1080 387q74 0 111 -40
q21 -21 23 -74q0 -47 -10 -91q-8 -39 -14 -61.5t-21.5 -51.5t-37.5 -47q-44 -37 -117 -37q-74 0 -111 40q-21 21 -23 74q0 47 10 91q8 39 14 61.5t21.5 51.5t37.5 47q44 37 117 37zM1024 57q31 0 50.5 17.5t27 39t15.5 59.5l4 23q7 37 7 60q-1 29 -13 44t-44 15
q-31 0 -50.5 -17.5t-27 -39t-15.5 -59.5l-4 -23q-7 -37 -7 -60q1 -29 13 -44t44 -15z" />
    <glyph glyph-name="guilsinglleft" unicode="&#x2039;" horiz-adv-x="318" 
d="M301 473l-132 -187l57 -188h-119l-68 188l135 187h127z" />
    <glyph glyph-name="guilsinglright" unicode="&#x203a;" horiz-adv-x="318" 
d="M10 98l132 187l-57 188h119l68 -188l-135 -187h-127z" />
    <glyph glyph-name="fraction" unicode="&#x2044;" horiz-adv-x="361" 
d="M-65 -105l376 820h116l-375 -820h-117z" />
    <glyph glyph-name="Euro" unicode="&#x20ac;" 
d="M19 374l46 106h52q67 250 284 250q117 0 168 -72q35 -48 35 -136v-22h-124v7q0 54 -21.5 83.5t-74.5 29.5q-58 0 -90.5 -37t-50.5 -103h228l-47 -106h-205l-8 -45h194l-47 -106h-161v-12q0 -113 98 -113q93 0 132 115h128q-31 -103 -90 -159q-72 -66 -185 -66
q-119 0 -171 72q-35 48 -35 137v26h-81l46 106h48q7 39 7 45h-75z" />
    <glyph glyph-name="trademark" unicode="&#x2122;" horiz-adv-x="953" 
d="M680 297h-78l-48 348h-3q-6 -42 -35 -207l-25 -141h-82l73 418h137q32 -224 42 -310q8 18 65 136.5t83 173.5h141l-73 -418h-84l35 202q5 27 14.5 77t12.5 70h-3q-25 -50 -83 -169.5t-89 -179.5zM422 715l-11 -67h-105l-62 -351h-86l62 351h-105l11 67h296z" />
    <glyph glyph-name="Omega" unicode="&#x2126;" horiz-adv-x="830" 
d="M61 392q0 136 95.5 235.5t254.5 99.5q158 0 253.5 -99.5t95.5 -235.5q0 -91 -33 -157.5t-102 -122.5h133v-112h-298v105q168 97 168 280q0 100 -57.5 166t-159.5 66t-160 -66t-58 -166q0 -183 168 -280v-105h-298v112h133q-69 56 -102 122.5t-33 157.5z" />
    <glyph glyph-name="onethird" unicode="&#x2153;" horiz-adv-x="808" 
d="M117 0l426 715h81l-426 -715h-81zM188 588h-106l10 60q59 2 87 16.5t40 50.5h71l-79 -439h-79zM565 209l11 67q96 0 96 66q0 20 -14 30.5t-36 10.5q-46 0 -57 -52h-78q7 54 47 87.5t100 33.5q56 0 89 -26t33 -71q0 -73 -74 -107q61 -26 61 -95q0 -70 -48.5 -115
t-123.5 -45q-67 0 -104 34t-37 88v10q0 4 1 6h80v-7q0 -27 18.5 -44.5t50.5 -17.5q37 0 58 24t21 61q0 32 -22.5 47t-57.5 15h-14z" />
    <glyph glyph-name="twothirds" unicode="&#x2154;" horiz-adv-x="913" 
d="M224 0l426 715h81l-426 -715h-81zM672 209l11 67q96 0 96 66q0 20 -14 30.5t-36 10.5q-48 0 -59 -52h-78q7 54 48 87.5t101 33.5q56 0 89 -26t33 -71q0 -73 -74 -107q61 -26 61 -95q0 -70 -48.5 -115t-123.5 -45q-67 0 -104 34t-37 88v10q0 4 1 6h80v-7q0 -27 18.5 -44.5
t50.5 -17.5q37 0 58 24t21 61q0 32 -22.5 47t-57.5 15h-14zM45 276l12 68l39 30q85 64 139 111q72 59 72 109q0 26 -15.5 41t-43.5 15q-35 0 -54 -21.5t-21 -56.5h-81q2 63 48.5 107.5t120.5 44.5q62 0 97.5 -31.5t35.5 -83.5q0 -90 -144 -203q-49 -37 -80 -55h183l-15 -75
h-293z" />
    <glyph glyph-name="oneeighth" unicode="&#x215b;" horiz-adv-x="807" 
d="M117 0l426 715h81l-426 -715h-81zM188 588h-106l10 60q59 2 87 16.5t40 50.5h71l-79 -439h-79zM636 452q55 0 87 -28.5t32 -71.5q0 -74 -71 -111q55 -30 55 -102q0 -68 -44.5 -106.5t-120.5 -38.5q-64 0 -103.5 32t-39.5 88q0 46 26 79t70 49q-38 29 -38 80q0 58 40 94
t107 36zM626 386q-27 0 -46.5 -17.5t-19.5 -47.5q0 -24 14.5 -37.5t40.5 -13.5q27 0 47 19t20 48q0 21 -15 35t-41 14zM595 208q-36 0 -60.5 -23.5t-24.5 -61.5q0 -29 18.5 -46.5t50.5 -17.5q37 0 60 23t23 62q0 29 -18 46.5t-49 17.5z" />
    <glyph glyph-name="threeeighths" unicode="&#x215c;" horiz-adv-x="945" 
d="M185 480l11 67q96 0 96 66q0 20 -14 30.5t-36 10.5q-46 0 -57 -52h-78q7 54 47 87.5t100 33.5q56 0 89 -26t33 -71q0 -73 -74 -107q61 -26 61 -95q0 -70 -48.5 -115t-123.5 -45q-67 0 -104 34t-37 88v10q0 4 1 6h80v-7q0 -27 18.5 -44.5t50.5 -17.5q37 0 58 24t21 61
q0 32 -22.5 47t-57.5 15h-14zM233 0l426 715h81l-426 -715h-81zM776 452q55 0 87 -28.5t32 -71.5q0 -74 -71 -111q55 -30 55 -102q0 -68 -44.5 -106.5t-120.5 -38.5q-64 0 -103.5 32t-39.5 88q0 46 26 79t70 49q-38 29 -38 80q0 58 40 94t107 36zM766 386q-27 0 -46.5 -17.5
t-19.5 -47.5q0 -24 14.5 -37.5t40.5 -13.5q27 0 47 19t20 48q0 21 -15 35t-41 14zM735 208q-36 0 -60.5 -23.5t-24.5 -61.5q0 -29 18.5 -46.5t50.5 -17.5q37 0 60 23t23 62q0 29 -18 46.5t-49 17.5z" />
    <glyph glyph-name="fiveeighths" unicode="&#x215d;" horiz-adv-x="942" 
d="M230 0l426 715h81l-426 -715h-81zM773 452q55 0 87 -28.5t32 -71.5q0 -74 -71 -111q55 -30 55 -102q0 -68 -44.5 -106.5t-120.5 -38.5q-64 0 -103.5 32t-39.5 88q0 46 26 79t70 49q-38 29 -38 80q0 58 40 94t107 36zM763 386q-27 0 -46.5 -17.5t-19.5 -47.5
q0 -24 14.5 -37.5t40.5 -13.5q27 0 47 19t20 48q0 21 -15 35t-41 14zM732 208q-36 0 -60.5 -23.5t-24.5 -61.5q0 -29 18.5 -46.5t50.5 -17.5q37 0 60 23t23 62q0 29 -18 46.5t-49 17.5zM49 394h76q2 -28 21 -46.5t52 -18.5q40 0 64 29.5t24 72.5q0 34 -20 52.5t-52 18.5
q-45 0 -66 -37l-68 12q12 38 35 117t36 121h232l-12 -69h-172l-30 -98q32 18 71 18q50 0 87 -31.5t37 -92.5q0 -78 -45 -128.5t-126 -50.5q-66 0 -106 36.5t-38 94.5z" />
    <glyph glyph-name="seveneighths" unicode="&#x215e;" horiz-adv-x="855" 
d="M144 0l426 715h81l-426 -715h-81zM687 452q55 0 87 -28.5t32 -71.5q0 -74 -71 -111q55 -30 55 -102q0 -68 -44.5 -106.5t-120.5 -38.5q-64 0 -103.5 32t-39.5 88q0 46 26 79t70 49q-38 29 -38 80q0 58 40 94t107 36zM677 386q-27 0 -46.5 -17.5t-19.5 -47.5
q0 -24 14.5 -37.5t40.5 -13.5q27 0 47 19t20 48q0 21 -15 35t-41 14zM646 208q-37 0 -61.5 -23t-24.5 -60q0 -30 19 -48t51 -18q37 0 60 23t23 62q0 29 -18 46.5t-49 17.5zM141 272h-87q84 147 235 372h-195l13 71h276l-11 -66q-102 -152 -231 -377z" />
    <glyph glyph-name="arrowleft" unicode="&#x2190;" horiz-adv-x="820" 
d="M782 270h-565q8 -8 36.5 -37.5t60 -61t58.5 -57.5q70 -72 112 -114h-153q-26 27 -144 152.5t-165 173.5q49 49 174.5 182t134.5 142h153l-112 -114q-22 -22 -57.5 -58.5t-60 -61t-37.5 -36.5h565v-110z" />
    <glyph glyph-name="arrowup" unicode="&#x2191;" horiz-adv-x="720" 
d="M313 0v554l-155 -155l-113 -111v153q14 14 145 137t180 172q49 -51 184.5 -177.5t140.5 -131.5v-153l-113 111q-93 89 -155 155v-554h-114z" />
    <glyph glyph-name="arrowright" unicode="&#x2192;" horiz-adv-x="820" 
d="M609 270h-565v110h565q-58 54 -155 156q-73 73 -112 114h153q26 -27 144 -152t165 -172q-50 -50 -171 -179t-138 -147h-153l112 114z" />
    <glyph glyph-name="arrowdown" unicode="&#x2193;" horiz-adv-x="720" 
d="M310 160v554h114v-554q62 66 155 155l113 111v-153q-304 -288 -325 -309q-46 45 -169.5 161.5t-155.5 147.5v153l113 -111z" />
    <glyph glyph-name="uni2196" unicode="&#x2196;" horiz-adv-x="750" 
d="M602 -20l-400 401q0 -14 0.5 -94t0.5 -128q0 -104 -1 -161l-105 108q0 50 2 221t2 232q61 0 229 2.5t219 2.5l106 -102q-57 -1 -159 -1h-219l403 -403z" />
    <glyph glyph-name="uni2197" unicode="&#x2197;" horiz-adv-x="750" 
d="M532 381l-400 -401l-78 78l403 403h-219q-102 0 -159 1l106 102q51 0 219 -2.5t229 -2.5q0 -61 2 -232t2 -221l-105 -108q-1 57 -1 161q0 48 0.5 128t0.5 94z" />
    <glyph glyph-name="uni2198" unicode="&#x2198;" horiz-adv-x="750" 
d="M139 581l400 -401q0 14 -0.5 94t-0.5 128q0 104 1 161l105 -108q0 -50 -2 -221t-2 -232q-61 0 -229 -2.5t-219 -2.5l-106 102q110 0 159 1h219l-403 403z" />
    <glyph glyph-name="uni2199" unicode="&#x2199;" horiz-adv-x="750" 
d="M208 180l400 401l78 -78l-403 -403h219q49 -1 159 -1l-106 -102q-51 0 -219 2.5t-229 2.5q0 61 -2 232t-2 221l105 108q1 -57 1 -161q0 -48 -0.5 -128t-0.5 -94z" />
    <glyph glyph-name="partialdiff" unicode="&#x2202;" horiz-adv-x="629" 
d="M243 715h173q77 -61 124.5 -155.5t47.5 -221.5q0 -152 -83 -254t-231 -102q-120 0 -183.5 68t-63.5 174q0 132 82.5 223t214.5 91q39 0 72 -8t46 -18l3 3q-29 54 -85 108.5t-117 91.5zM286 86q77 0 121 63t44 147q0 65 -32 102t-96 37q-80 0 -124.5 -63t-44.5 -146
q0 -67 33.5 -103.5t98.5 -36.5z" />
    <glyph glyph-name="Delta" unicode="&#x2206;" horiz-adv-x="760" 
d="M271 715h153l260 -715h-673zM348 610l-176 -506h352z" />
    <glyph glyph-name="product" unicode="&#x220f;" horiz-adv-x="885" 
d="M742 607v-720h-123v720h-290v-720h-123v720h-107v108h750v-108h-107z" />
    <glyph glyph-name="summation" unicode="&#x2211;" horiz-adv-x="748" 
d="M96 -15l250 312l-246 315v103h533v-108h-378l236 -300l-247 -311h400v-109h-548v98z" />
    <glyph glyph-name="minus" unicode="&#x2212;" 
d="M73 268v107h442v-107h-442z" />
    <glyph glyph-name="uni2219" unicode="&#x2219;" horiz-adv-x="254" 
d="M53 253l23 134h129l-23 -134h-129z" />
    <glyph glyph-name="radical" unicode="&#x221a;" 
d="M41 422v103h185l62 -194q8 -27 22.5 -78t27.5 -92h2l47 182l100 372h126l-220 -715h-117q-47 135 -145 422h-90z" />
    <glyph glyph-name="infinity" unicode="&#x221e;" horiz-adv-x="859" 
d="M239 512q35 0 71.5 -16.5t58 -33t67.5 -55.5q42 37 65.5 55t59 34t69.5 16q80 0 127 -49t47 -129q0 -72 -44 -123.5t-126 -51.5q-39 0 -78.5 18.5t-62.5 37.5t-59 54q-71 -65 -104 -84q-46 -26 -95 -26q-82 0 -126 51.5t-44 123.5q0 80 47 129t127 49zM627 264
q34 0 53 19.5t19 53.5q0 31 -19 51.5t-51 20.5q-47 0 -133 -74q6 -5 21 -17t21.5 -17t19.5 -14t22 -13t21.5 -7t25.5 -3zM242 264q15 0 28 3t29 13t22.5 14t27.5 21.5t24 19.5q-86 74 -133 74q-32 0 -51 -20.5t-19 -51.5q0 -34 19 -53.5t53 -19.5z" />
    <glyph glyph-name="integral" unicode="&#x222b;" 
d="M379 483l-54 -395q-21 -148 -67 -207.5t-149 -59.5q-35 0 -62 8l11 92q18 -5 34 -5q58 0 79.5 38t32.5 126l55 406q16 122 66.5 181.5t149.5 59.5q33 0 45 -4l-12 -96q-9 3 -26 3q-50 0 -72 -36.5t-31 -110.5z" />
    <glyph glyph-name="approxequal" unicode="&#x2248;" 
d="M484 504l68 -49q-30 -54 -64.5 -83.5t-81.5 -29.5q-13 0 -25.5 2t-28 7.5t-22.5 8t-26.5 11.5t-22.5 10l-26 11q-44 21 -72 21q-53 0 -82 -68l-68 50q64 118 150 118q38 0 117 -35l13 -6q66 -30 91 -30q46 0 80 62zM482 254l68 -49q-30 -54 -64.5 -83.5t-81.5 -29.5
q-13 0 -25.5 2t-28 7.5t-22.5 8t-26.5 11.5t-22.5 10l-26 11q-44 21 -72 21q-53 0 -82 -68l-68 50q64 118 150 118q38 0 117 -35l13 -6q66 -30 91 -30q46 0 80 62z" />
    <glyph glyph-name="notequal" unicode="&#x2260;" 
d="M74 352v105h230l50 103h109l-50 -103h103v-105h-154l-27 -56h181v-105h-232l-54 -111h-109l54 111h-101v105h152l27 56h-179z" />
    <glyph glyph-name="lessequal" unicode="&#x2264;" 
d="M80 310v91l396 179v-115q-217 -84 -265 -104v-3q7 -3 57.5 -23t108 -43t99.5 -41v-117q-67 30 -198.5 88t-197.5 88zM476 0h-396v107h396v-107z" />
    <glyph glyph-name="greaterequal" unicode="&#x2265;" 
d="M488 401v-91q-67 -30 -198.5 -88t-197.5 -88v117q42 18 99.5 41t108 43t57.5 23v3q-48 20 -265 104v115zM488 0h-396v107h396v-107z" />
    <glyph glyph-name="dotmath" unicode="&#x22c5;" horiz-adv-x="254" 
d="M53 253l23 134h129l-23 -134h-129z" />
    <glyph glyph-name="lozenge" unicode="&#x25ca;" 
d="M354 0h-104l-220 356l220 359h104l219 -359zM302 125l134 231l-134 234l-135 -234z" />
    <glyph glyph-name="commaaccent" unicode="&#xf6c3;" horiz-adv-x="269" 
d="M248 -49l-108 -119h-116l84 119h140z" />
    <glyph glyph-name="uniF8FF" unicode="&#xf8ff;" horiz-adv-x="529" 
d="M265 115q-90 0 -152.5 62t-62.5 152q0 89 62.5 150.5t152.5 61.5q88 0 151 -61.5t63 -150.5t-63 -151.5t-151 -62.5z" />
    <glyph glyph-name="horn" horiz-adv-x="264" 
d="M251 715l-111 -191h-105l96 191h120z" />
    <glyph glyph-name="circumflex.caps" horiz-adv-x="503" 
d="M195 875h132l87 -114h-114l-46 58l-65 -58h-124q22 18 130 114z" />
    <glyph glyph-name="tilde.caps" horiz-adv-x="470" 
d="M305 760q-29 0 -63 20t-48 20q-24 0 -37 -37h-75q8 49 40 83.5t70 34.5q26 0 63.5 -20t52.5 -20q13 0 21 8.5t15 28.5h76q-10 -50 -42 -84t-73 -34z" />
    <glyph glyph-name="macron.caps" horiz-adv-x="428" 
d="M100 773l19 85h273l-19 -85h-273z" />
    <glyph glyph-name="breve.caps" horiz-adv-x="465" 
d="M237 751q-59 0 -91.5 29.5t-32.5 81.5v8q0 4 1 6h82q5 -49 55 -49q48 0 77 49h81q-21 -58 -65.5 -91.5t-106.5 -33.5z" />
    <glyph glyph-name="dotaccent.caps" horiz-adv-x="328" 
d="M96 763l23 110h112l-23 -110h-112z" />
    <glyph glyph-name="ring.caps" horiz-adv-x="405" 
d="M246 738q-41 0 -69 28.5t-28 70.5q0 40 29 68.5t69 28.5q41 0 69.5 -28.5t28.5 -68.5q0 -42 -28.5 -70.5t-70.5 -28.5zM203 837q0 -19 12.5 -32t30.5 -13q19 0 31.5 12.5t12.5 32.5q0 17 -13 30t-31 13t-30.5 -13t-12.5 -30z" />
    <glyph glyph-name="cedilla.caps" horiz-adv-x="369" 
d="M84 -163l114 114h123l-97 -114h-140z" />
    <glyph glyph-name="hungarumlaut.caps" horiz-adv-x="612" 
d="M404 876l-156 -115h-137l131 115h162zM612 876l-156 -115h-137l131 115h162z" />
    <glyph glyph-name="ogonek.caps" horiz-adv-x="331" 
d="M180 -49l80 -114h-130l-55 114h105z" />
    <glyph glyph-name="caron.caps" horiz-adv-x="502" 
d="M307 761h-132l-87 114h114l46 -58l65 58h124q-22 -18 -130 -114z" />
    <glyph glyph-name="grave.caps" horiz-adv-x="512" 
d="M267 761l-123 115h154l91 -115h-122z" />
    <glyph glyph-name="acute.caps" horiz-adv-x="427" 
d="M402 876l-156 -115h-137l131 115h162z" />
    <glyph glyph-name="dieresis.caps" horiz-adv-x="491" 
d="M102 763l23 110h112l-23 -110h-112zM289 763l23 110h111l-23 -110h-111z" />
    <glyph glyph-name="Gtilde" horiz-adv-x="782" 
d="M675 0h-118q1 5 5.5 34t6.5 34q-84 -81 -222 -81q-131 0 -214.5 86t-83.5 240q0 171 109.5 292.5t284.5 121.5q122 0 202.5 -58.5t106.5 -168.5h-138q-44 117 -180 117q-115 0 -183 -88.5t-68 -207.5q0 -105 50.5 -164.5t147.5 -59.5q81 0 141.5 48.5t84.5 130.5h-249
l19 102h365zM526 760q-28 0 -63 20t-48 20q-24 0 -37 -37h-75q8 49 40 83.5t70 34.5q26 0 63.5 -20t52.5 -20q13 0 21 8.5t15 28.5h76q-10 -50 -42 -84t-73 -34z" />
    <glyph glyph-name="gtilde" horiz-adv-x="639" 
d="M410 82l-2 1q-16 -21 -56.5 -40t-95.5 -19q-98 0 -161 59t-63 165q0 117 78 204.5t197 87.5q64 0 109 -22.5t63 -52.5l11 60h118l-74 -429q-23 -131 -78 -197q-76 -91 -219 -91q-102 0 -172 48.5t-78 124.5h129q26 -70 128 -70q139 0 166 171zM322 443q-77 0 -120 -57
t-43 -133q0 -64 32.5 -100t94.5 -36q81 0 124 56.5t43 137.5q0 62 -33 97t-98 35zM413 591q-31 0 -64.5 20t-46.5 20q-24 0 -37 -37h-75q9 50 40.5 87t69.5 37q30 0 66 -20t50 -20q13 0 21 8.5t15 28.5h76q-10 -51 -42 -87.5t-73 -36.5z" />
    <glyph glyph-name="Mcircumflex" horiz-adv-x="947" 
d="M31 0l126 715h200l60 -380q16 -102 26 -177h1q64 118 97 184l191 373h203l-126 -715h-128l64 364q5 27 43 230h-1q-45 -90 -113 -222l-191 -372h-131l-70 442q-6 36 -11.5 82.5t-9.5 69.5h-1q-4 -23 -15 -94t-22 -126l-66 -374h-126zM473 875h132l87 -114h-114l-46 58
l-65 -58h-124q22 18 130 114z" />
    <glyph glyph-name="mcircumflex" horiz-adv-x="929" 
d="M138 0h-122l92 525h118l-13 -68q63 81 165 81q55 0 94 -22.5t55 -64.5q72 87 181 87q79 0 122.5 -42t43.5 -115q0 -24 -5 -56l-57 -325h-122l48 276q6 36 6 60q0 98 -85 98q-54 0 -86.5 -36.5t-44.5 -98.5l-53 -299h-122l48 276q6 36 6 60q0 98 -85 98q-54 0 -86.5 -36.5
t-44.5 -98.5zM487 715h129q15 -22 45 -61.5t42 -57.5h-112l-44 62l-67 -62h-120q24 21 66 61.5t61 57.5z" />
    <glyph glyph-name="Mmacron" horiz-adv-x="947" 
d="M31 0l126 715h200l60 -380q16 -102 26 -177h1q64 118 97 184l191 373h203l-126 -715h-128l64 364q5 27 43 230h-1q-45 -90 -113 -222l-191 -372h-131l-70 442q-6 36 -11.5 82.5t-9.5 69.5h-1q-4 -23 -15 -94t-22 -126l-66 -374h-126zM392 773l19 85h273l-19 -85h-273z
" />
    <glyph glyph-name="mmacron" horiz-adv-x="929" 
d="M138 0h-122l92 525h118l-13 -68q63 81 165 81q55 0 94 -22.5t55 -64.5q72 87 181 87q79 0 122.5 -42t43.5 -115q0 -24 -5 -56l-57 -325h-122l48 276q6 36 6 60q0 98 -85 98q-54 0 -86.5 -36.5t-44.5 -98.5l-53 -299h-122l48 276q6 36 6 60q0 98 -85 98q-54 0 -86.5 -36.5
t-44.5 -98.5zM388 618l15 85h273l-15 -85h-273z" />
    <glyph glyph-name="Ncircumflex" horiz-adv-x="760" 
d="M31 0l126 715h154l165 -410q9 -23 28 -67.5t25 -60.5l1 1l31 184l63 353h125l-128 -715h-150l-160 392q-56 135 -60 146h-1q-2 -18 -9.5 -59.5t-17 -93.5t-13.5 -75l-54 -310h-125zM416 875h132l87 -114h-114l-46 58l-65 -58h-124q22 18 130 114z" />
    <glyph glyph-name="ncircumflex" horiz-adv-x="604" 
d="M15 0l93 525h117l-12 -67q22 31 67 55t104 24q79 0 122 -42t43 -117q0 -26 -6 -61l-57 -317h-122l46 269q7 37 7 67q0 99 -91 99q-109 0 -138 -148l-51 -287h-122zM318 715h129q15 -22 45 -61.5t42 -57.5h-112l-44 62l-67 -62h-120q24 21 66 61.5t61 57.5z" />
    <glyph glyph-name="Ndieresis" horiz-adv-x="760" 
d="M31 0l126 715h154l165 -410q9 -23 28 -67.5t25 -60.5l1 1l31 184l63 353h125l-128 -715h-150l-160 392q-56 135 -60 146h-1q-2 -18 -9.5 -59.5t-17 -93.5t-13.5 -75l-54 -310h-125zM323 763l23 110h112l-23 -110h-112zM510 763l23 110h111l-23 -110h-111z" />
    <glyph glyph-name="ndieresis" horiz-adv-x="604" 
d="M15 0l93 525h117l-12 -67q22 31 67 55t104 24q79 0 122 -42t43 -117q0 -26 -6 -61l-57 -317h-122l46 269q7 37 7 67q0 99 -91 99q-109 0 -138 -148l-51 -287h-122zM213 603l19 110h112l-19 -110h-112zM400 603l19 110h111l-19 -110h-111z" />
    <glyph glyph-name="Nmacron" horiz-adv-x="760" 
d="M31 0l126 715h154l165 -410q9 -23 28 -67.5t25 -60.5l1 1l31 184l63 353h125l-128 -715h-150l-160 392q-56 135 -60 146h-1q-2 -18 -9.5 -59.5t-17 -93.5t-13.5 -75l-54 -310h-125zM331 773l19 85h273l-19 -85h-273z" />
    <glyph glyph-name="nmacron" horiz-adv-x="604" 
d="M15 0l93 525h117l-12 -67q22 31 67 55t104 24q79 0 122 -42t43 -117q0 -26 -6 -61l-57 -317h-122l46 269q7 37 7 67q0 99 -91 99q-109 0 -138 -148l-51 -287h-122zM241 618l15 85h273l-15 -85h-273z" />
    <glyph glyph-name="Pmacron" horiz-adv-x="615" 
d="M620 539q0 -64 -29.5 -122t-83.5 -93q-66 -41 -204 -41h-94l-50 -283h-128l126 715h199q73 0 112.5 -6t75.5 -27q76 -44 76 -143zM228 394h101q68 0 106 21q56 30 56 104q0 47 -34 65.5t-95 18.5h-96zM255 773l19 85h273l-19 -85h-273z" />
    <glyph glyph-name="pmacron" horiz-adv-x="642" 
d="M108 525h123q0 -1 -3.5 -20.5t-6.5 -33.5q17 23 60 45t102 22q95 0 155.5 -62t60.5 -171q0 -132 -77.5 -227t-204.5 -95q-59 0 -104 22.5t-65 53.5q-7 -54 -18 -109l-24 -130h-122zM306 88q79 0 122 62.5t43 147.5q0 65 -31.5 102.5t-93.5 37.5q-82 0 -126 -62.5
t-44 -147.5q0 -65 33 -102.5t97 -37.5zM229 618l15 85h273l-15 -85h-273z" />
    <glyph glyph-name="zero.plf" horiz-adv-x="612" 
d="M269 95q36 0 63.5 20t46 58.5t30.5 81t22 100.5q15 85 15 140q0 123 -87 123q-36 0 -63.5 -20t-46 -58.5t-30.5 -81t-22 -100.5q-15 -85 -15 -140q0 -123 87 -123zM374 730q208 0 208 -234q0 -57 -13 -137q-10 -62 -24.5 -111.5t-39.5 -100t-57.5 -84.5t-81.5 -55.5
t-110 -21.5q-208 0 -208 234q0 57 13 137q10 62 24.5 111.5t39.5 100t57.5 84.5t81.5 55.5t110 21.5z" />
    <glyph glyph-name="one.plf" horiz-adv-x="424" 
d="M233 510h-171l17 97q94 2 139 26t65 82h115l-127 -715h-128z" />
    <glyph glyph-name="two.plf" horiz-adv-x="574" 
d="M3 0l19 108q20 15 60 45.5t58.5 44.5t49.5 38t60 48.5t63 53.5q119 101 119 187q0 43 -27.5 68t-73.5 25q-57 0 -92 -37t-37 -95h-120q2 102 75.5 172.5t192.5 70.5q97 0 154 -49.5t57 -131.5q0 -41 -15.5 -82.5t-36.5 -73t-56.5 -67t-62.5 -58t-67 -53.5
q-28 -21 -79.5 -58t-65.5 -47h309l-19 -109h-465z" />
    <glyph glyph-name="three.plf" horiz-adv-x="575" 
d="M234 339l18 101q157 0 157 113q0 34 -23.5 52t-61.5 18q-41 0 -66.5 -22.5t-32.5 -62.5h-116q10 84 74 137t160 53q87 0 140 -42.5t53 -112.5q0 -121 -126 -175q50 -18 77.5 -59.5t27.5 -95.5q0 -112 -75 -184t-196 -72q-113 0 -175 62t-52 156h120q-4 -49 28 -80t89 -31
q61 0 97 40.5t36 99.5q0 54 -37.5 79.5t-96.5 25.5h-19z" />
    <glyph glyph-name="four.plf" horiz-adv-x="596" 
d="M322 145h-323l17 98l268 309q2 2 37.5 42.5t52.5 61.5l51 60h111l-82 -465h92l-19 -106h-92l-26 -145h-113zM397 555h-1q-65 -82 -102 -126q-18 -22 -152 -178h199l31 176q3 18 13 65.5t12 62.5z" />
    <glyph glyph-name="five.plf" horiz-adv-x="573" 
d="M16 196h122q3 -44 34 -74t83 -30q64 0 103.5 47.5t39.5 116.5q0 55 -32 85t-84 30q-72 0 -107 -59l-110 19q23 77 63.5 214.5t50.5 169.5h375l-20 -111h-277l-48 -159q50 30 115 30q81 0 140.5 -50t59.5 -150q0 -127 -73.5 -208.5t-203.5 -81.5q-105 0 -170 59t-61 152z
" />
    <glyph glyph-name="six.plf" horiz-adv-x="606" 
d="M585 527h-121q0 37 -24 64t-71 27q-122 0 -175 -209h2q61 54 145 54q94 0 149.5 -56.5t55.5 -154.5q0 -117 -73.5 -192.5t-191.5 -75.5q-115 0 -174.5 62t-59.5 184q0 66 10.5 132.5t35.5 132.5t62 116.5t94 82t127 31.5q100 0 155.5 -54.5t53.5 -143.5zM283 96
q61 0 99.5 43.5t38.5 107.5q0 53 -30 82.5t-81 29.5q-65 0 -102 -43t-37 -106q0 -53 30.5 -83.5t81.5 -30.5z" />
    <glyph glyph-name="seven.plf" horiz-adv-x="498" 
d="M160 0h-141q128 222 379 600h-314l20 115h446l-18 -106q-186 -279 -372 -609z" />
    <glyph glyph-name="eight.plf" horiz-adv-x="589" 
d="M358 729q89 0 141 -46t52 -117q0 -122 -115 -179q90 -51 90 -166q0 -110 -73.5 -173t-195.5 -63q-103 0 -167.5 51.5t-64.5 142.5q0 73 42 127.5t113 81.5q-61 47 -61 130q0 94 65 152.5t174 58.5zM342 622q-44 0 -76 -28.5t-32 -77.5q0 -38 24 -60.5t66 -22.5
q43 0 75.5 31t32.5 78q0 35 -24.5 57.5t-65.5 22.5zM291 332q-58 0 -98 -38.5t-40 -98.5q0 -48 30 -76.5t82 -28.5q60 0 97.5 37.5t37.5 100.5q0 48 -29 76t-80 28z" />
    <glyph glyph-name="nine.plf" horiz-adv-x="607" 
d="M38 181h121q0 -37 24 -64t71 -27q121 0 175 211h-2q-61 -54 -145 -54q-94 0 -149.5 55t-55.5 154q0 117 73.5 192.5t191.5 75.5q115 0 174.5 -62t59.5 -184q0 -67 -10 -133t-34.5 -132.5t-61 -116.5t-94.5 -81.5t-129 -31.5q-100 0 -155.5 54.5t-53.5 143.5zM340 615
q-61 0 -99.5 -43.5t-38.5 -107.5q0 -53 30 -82.5t81 -29.5q65 0 102 43t37 106q0 53 -30.5 83.5t-81.5 30.5z" />
    <glyph glyph-name="zero.posf" horiz-adv-x="610" 
d="M266 93q36 0 63.5 20t46 58t30.5 79.5t22 97.5q15 85 15 137q0 121 -87 121q-36 0 -63.5 -20t-46 -58t-30.5 -79.5t-22 -97.5q-15 -85 -15 -137q0 -121 87 -121zM371 716q208 0 208 -230q0 -56 -13 -134q-13 -77 -33.5 -136t-55.5 -114.5t-92 -85.5t-132 -30
q-208 0 -208 230q0 56 13 134q13 77 33.5 136t55.5 114.5t92 85.5t132 30z" />
    <glyph glyph-name="one.posf" horiz-adv-x="424" 
d="M232 500h-171l17 95q93 2 139 25.5t65 80.5h115l-127 -701h-128z" />
    <glyph glyph-name="two.posf" horiz-adv-x="576" 
d="M3 0l19 106q18 13 59.5 43.5t59 43.5t49.5 37.5t60.5 48.5t62.5 53q119 97 119 183q0 42 -27.5 66.5t-73.5 24.5q-58 0 -92 -36t-37 -93h-120q2 99 75.5 168.5t192.5 69.5q97 0 154 -49t57 -129q0 -50 -20.5 -97.5t-60.5 -90.5t-73 -71.5t-84 -67.5q-79 -58 -145 -103
h309l-19 -107h-465z" />
    <glyph glyph-name="three.posf" horiz-adv-x="575" 
d="M233 332l18 99q157 0 157 111q0 33 -24 51t-61 18q-41 0 -66.5 -22t-32.5 -62h-116q10 82 74 134.5t160 52.5q87 0 140 -42t53 -110q0 -118 -126 -172q50 -17 77.5 -58t27.5 -94q0 -109 -75 -180t-196 -71q-113 0 -175 61t-52 153h120q-5 -48 27.5 -78.5t89.5 -30.5
q61 0 97 39.5t36 97.5q0 53 -37 78t-97 25h-19z" />
    <glyph glyph-name="four.posf" horiz-adv-x="598" 
d="M322 142h-323l17 96l268 303l90 102l51 59h111l-82 -456h92l-19 -104h-92l-26 -142h-113zM397 544h-1q-33 -42 -102 -123q-31 -37 -80.5 -93.5t-71.5 -81.5h199l31 173q3 18 13 64t12 61z" />
    <glyph glyph-name="five.posf" horiz-adv-x="573" 
d="M14 192h122q3 -44 33.5 -73t83.5 -29q63 0 103 47t40 114q0 55 -32 84t-84 29q-72 0 -107 -58l-110 18q1 3 114 377h375l-20 -109h-277l-48 -156q48 29 115 29q81 0 140.5 -49.5t59.5 -146.5q0 -124 -73.5 -204t-203.5 -80q-104 0 -169.5 58.5t-61.5 148.5z" />
    <glyph glyph-name="six.posf" horiz-adv-x="607" 
d="M584 517h-121q0 37 -24 63t-71 26q-121 0 -175 -205h2q62 53 145 53q94 0 149.5 -55t55.5 -152q0 -114 -74 -188.5t-191 -74.5q-115 0 -174.5 61t-59.5 180q0 65 10.5 130t35.5 130t62 114.5t94 80.5t127 31q99 0 155 -54t54 -140zM282 94q61 0 99.5 42.5t38.5 105.5
q0 51 -30 80.5t-81 29.5q-65 0 -102 -42.5t-37 -103.5q0 -53 30.5 -82.5t81.5 -29.5z" />
    <glyph glyph-name="seven.posf" horiz-adv-x="500" 
d="M159 0h-141q127 217 379 588h-314l20 113h446l-18 -104q-185 -273 -372 -597z" />
    <glyph glyph-name="eight.posf" horiz-adv-x="591" 
d="M358 715q89 0 141 -45.5t52 -114.5q0 -119 -115 -176q90 -50 90 -162q0 -107 -73.5 -169.5t-195.5 -62.5q-103 0 -167.5 50.5t-64.5 140.5q0 72 42 124.5t113 79.5q-61 47 -61 128q0 91 65.5 149t173.5 58zM342 610q-44 0 -76 -28.5t-32 -75.5q0 -37 24 -59.5t66 -22.5
q43 0 75.5 31t32.5 76q0 34 -24.5 56.5t-65.5 22.5zM291 325q-58 0 -98 -37.5t-40 -96.5q0 -47 30 -75t82 -28q60 0 97.5 37t37.5 99q0 46 -29.5 73.5t-79.5 27.5z" />
    <glyph glyph-name="nine.posf" horiz-adv-x="608" 
d="M37 177h121q0 -37 24 -63t71 -26q121 0 175 207h-2q-62 -53 -145 -53q-94 0 -149.5 54t-55.5 151q0 114 74 188.5t191 74.5q115 0 174.5 -61t59.5 -180q0 -84 -17.5 -164.5t-53.5 -155t-103 -120.5t-155 -46q-99 0 -155 54t-54 140zM339 603q-61 0 -99.5 -42.5
t-38.5 -105.5q0 -51 30 -80.5t81 -29.5q65 0 102 42.5t37 103.5q0 53 -30.5 82.5t-81.5 29.5z" />
    <glyph glyph-name="registered.alt" horiz-adv-x="843" 
d="M287 141v431h150q75 0 114 -25q52 -36 52 -103q0 -100 -96 -128l106 -175h-100l-97 164h-42v-164h-87zM374 497v-117h58q85 0 85 59q0 58 -85 58h-58zM807 360q0 -158 -110 -267.5t-268 -109.5q-156 0 -265.5 110t-109.5 267t109.5 266.5t267.5 109.5q156 0 266 -110
t110 -266zM744 360q0 131 -92 223.5t-221 92.5q-131 0 -222 -92t-91 -224q0 -131 91 -224.5t221 -93.5t222 93t92 225z" />
    <glyph glyph-name="uni00AD.case" horiz-adv-x="402" 
d="M63 301l19 105h272l-19 -105h-272z" />
    <glyph glyph-name="endash.case" horiz-adv-x="607" 
d="M65 311l18 103h476l-18 -103h-476z" />
    <glyph glyph-name="emdash.case" horiz-adv-x="972" 
d="M65 311l18 103h841l-18 -103h-841z" />
    <glyph glyph-name="hyphen.case" horiz-adv-x="402" 
d="M63 301l19 105h272l-19 -105h-272z" />
    <glyph glyph-name="guillemotleft.case" horiz-adv-x="531" 
d="M318 533l-132 -187l57 -188h-119l-68 188l135 187h127zM516 533l-127 -187l52 -188h-117l-68 188l135 187h125z" />
    <glyph glyph-name="guillemotright.case" horiz-adv-x="531" 
d="M226 158l132 187l-57 188h119l68 -188l-135 -187h-127zM28 158l127 187l-52 188h117l68 -188l-135 -187h-125z" />
    <glyph glyph-name="guilsinglleft.case" horiz-adv-x="331" 
d="M318 533l-132 -187l57 -188h-119l-68 188l135 187h127z" />
    <glyph glyph-name="guilsinglright.case" horiz-adv-x="330" 
d="M25 158l132 187l-57 188h119l68 -188l-135 -187h-127z" />
    <glyph glyph-name="parenleft.case" horiz-adv-x="343" 
d="M245 8l-20 -115q-80 56 -130.5 154t-50.5 239q0 170 98 318t244 205l-20 -115q-97 -71 -151 -180t-54 -236q0 -162 84 -270z" />
    <glyph glyph-name="parenright.case" horiz-adv-x="343" 
d="M114 694l20 115q80 -56 130.5 -154t50.5 -239q0 -170 -98 -318t-244 -205l20 115q97 69 151 179.5t54 236.5q0 162 -84 270z" />
    <glyph glyph-name="bracketleft.case" horiz-adv-x="367" 
d="M276 19l-14 -82h-230l145 828h230l-14 -82h-113l-117 -664h113z" />
    <glyph glyph-name="bracketright.case" horiz-adv-x="367" 
d="M-23 -63l14 82h112l117 664h-113l14 82h229l-145 -828h-228z" />
    <glyph glyph-name="braceleft.case" horiz-adv-x="332" 
d="M44 340l7 41q39 11 57 32t27 77l27 153q12 72 46 99t116 27q4 0 12.5 -0.5t11.5 -0.5h12l-14 -79q-36 0 -52 -16.5t-24 -64.5l-16 -94q-13 -80 -30 -107t-64 -45l-1 -2q29 -13 40 -27.5t11 -42.5q0 -31 -10 -82l-21 -115q-4 -20 -4 -37q0 -25 12 -34.5t40 -9.5l-14 -79
q-4 -1 -12 -1h-24q-69 0 -96 17t-27 61q0 16 5 48l31 173q5 32 5 46q0 29 -11.5 41.5t-39.5 21.5z" />
    <glyph glyph-name="braceright.case" horiz-adv-x="332" 
d="M306 370l-7 -41q-39 -11 -57 -32t-27 -77l-28 -162q-12 -72 -46 -99t-116 -27h-24q-8 0 -12 1l14 79q36 0 52 16.5t24 64.5l17 103q14 81 30.5 107.5t63.5 44.5l1 2q-29 13 -40 27.5t-11 42.5q0 32 10 82l20 106q4 17 4 37q0 25 -12 34.5t-40 9.5l14 79h12q3 0 11 0.5
t13 0.5q68 0 95.5 -17.5t27.5 -60.5q0 -16 -5 -48l-30 -164q-5 -32 -5 -46q0 -29 11.5 -41.5t39.5 -21.5z" />
    <glyph glyph-name="bar.case" horiz-adv-x="309" 
d="M37 -42l139 793h113l-139 -793h-113z" />
    <glyph glyph-name="minus.case" 
d="M80 308v107h442v-107h-442z" />
    <glyph glyph-name="multiply.case" 
d="M149 137l-73 73l151 151l-151 151l73 73l151 -151l152 152l73 -73l-152 -152l152 -152l-73 -73l-152 152z" />
    <glyph glyph-name="plus.case" 
d="M81 308v107h167v175h107v-175h168v-107h-168v-176h-107v176h-167z" />
    <glyph glyph-name="less.case" 
d="M83 307v105q226 117 396 208v-125q-240 -113 -275 -130v-3q66 -33 275 -132v-128q-79 42 -227 118t-169 87z" />
    <glyph glyph-name="equal.case" 
d="M78 231v105h442v-105h-442zM78 392v105h442v-105h-442z" />
    <glyph glyph-name="greater.case" 
d="M522 412v-105q-21 -11 -169 -87t-227 -118v128q209 99 275 132v3q-35 17 -275 130v125q170 -91 396 -208z" />
    <glyph glyph-name="at.case" horiz-adv-x="823" 
d="M558 538h89l-48 -272q-4 -21 -4 -30q0 -21 26 -21q48 0 78 66.5t30 140.5q0 108 -73 177.5t-198 69.5q-140 0 -237 -96t-97 -242q0 -133 87.5 -213t224.5 -80q128 0 226 77l57 -26q-127 -115 -292 -115q-167 0 -270.5 98.5t-103.5 256.5q0 167 117.5 284.5t290.5 117.5
q147 0 240.5 -84.5t93.5 -213.5q0 -72 -21.5 -134t-72 -105t-122.5 -43q-62 0 -76 39q-42 -42 -116 -42q-73 0 -115.5 45t-42.5 125q0 93 55 161t146 68q81 0 121 -52zM439 470q-57 0 -88 -45t-31 -107q0 -44 23 -71.5t67 -27.5q58 0 90 45.5t32 106.5q0 99 -93 99z" />
    <glyph glyph-name="notequal.case" 
d="M77 392v105h230l50 103h109l-50 -103h103v-105h-154l-27 -56h181v-105h-232l-54 -111h-109l54 111h-101v105h152l27 56h-179z" />
    <glyph glyph-name="plusminus.case" 
d="M65 350v107h167v134h107v-134h168v-107h-168v-136h-107v136h-167zM507 40h-442v107h442v-107z" />
    <glyph glyph-name="lessequal.case" 
d="M86 350v91l396 179v-115q-217 -84 -265 -104v-3q7 -3 57.5 -23t108 -43t99.5 -41v-117q-67 30 -198 88t-198 88zM482 40h-396v107h396v-107z" />
    <glyph glyph-name="greaterequal.case" 
d="M496 441v-91q-67 -30 -198.5 -88t-197.5 -88v117q42 18 99.5 41t108 43t57.5 23v3q-48 20 -265 104v115zM496 40h-396v107h396v-107z" />
    <glyph glyph-name="logicalnot.case" 
d="M38 400v107h504v-330h-109v223h-395z" />
    <glyph glyph-name="approxequal.case" 
d="M484 504l68 -49q-30 -54 -64.5 -83.5t-81.5 -29.5q-13 0 -25.5 2t-28 7.5t-22.5 8t-26.5 11.5t-22.5 10l-26 11q-44 21 -72 21q-53 0 -82 -68l-68 50q64 118 150 118q38 0 117 -35l13 -6q66 -30 91 -30q46 0 80 62zM482 254l68 -49q-30 -54 -64.5 -83.5t-81.5 -29.5
q-13 0 -25.5 2t-28 7.5t-22.5 8t-26.5 11.5t-22.5 10l-26 11q-44 21 -72 21q-53 0 -82 -68l-68 50q64 118 150 118q38 0 117 -35l13 -6q66 -30 91 -30q46 0 80 62z" />
    <glyph glyph-name="divide.case" 
d="M81 308v107h442v-107h-442zM242 470v120h117v-120h-117zM242 132v120h117v-120h-117z" />
    <glyph glyph-name="infinity.case" horiz-adv-x="834" 
d="M231 542q35 0 71.5 -16.5t58 -33t67.5 -55.5q42 37 65.5 55t59 34t69.5 16q80 0 127 -49t47 -129q0 -72 -44 -123.5t-126 -51.5q-39 0 -78.5 18.5t-62.5 37.5t-59 54q-71 -65 -104 -84q-46 -26 -95 -26q-82 0 -126 51.5t-44 123.5q0 80 47 129t127 49zM619 294
q34 0 53 19.5t19 53.5q0 31 -19 51.5t-51 20.5q-47 0 -133 -74q6 -5 21 -17t21.5 -17t19.5 -14t22 -13t21.5 -7t25.5 -3zM234 294q15 0 28 3t29 13t22.5 14t27.5 21.5t24 19.5q-86 74 -133 74q-32 0 -51 -20.5t-19 -51.5q0 -34 19 -53.5t53 -19.5z" />
    <glyph glyph-name="brokenbar.case" horiz-adv-x="252" 
d="M91 428l53 303h113l-53 -303h-113zM5 -62l53 303h113l-53 -303h-113z" />
    <glyph glyph-name="idotaccent" horiz-adv-x="262" 
d="M16 0l92 525h123l-93 -525h-122zM118 601l20 114h127l-20 -114h-127z" />
    <glyph glyph-name="zero.slashplf" horiz-adv-x="606" 
d="M81 60q-35 48 -35 137q0 64 19 168q18 105 43.5 177.5t76.5 120.5q74 67 188 67q119 0 170 -72q35 -48 35 -136q0 -68 -19 -172q-14 -73 -24.5 -114.5t-35.5 -94.5t-60 -87q-72 -66 -187 -66q-119 0 -171 72zM171 211v-15l224 419q-20 5 -37 5q-24 0 -44 -7.5t-34 -16.5
t-26.5 -29.5t-19.5 -34t-15 -43.5t-11.5 -45t-10.5 -50l-13 -70q-13 -74 -13 -113zM428 324l13 70q13 74 13 113v8l-220 -414q14 -3 33 -3q32 0 57.5 13t41 32.5t28.5 51.5t20 60t14 69z" />
    <glyph glyph-name="zero.slash" 
d="M70 60q-35 48 -35 137q0 64 19 168q18 105 43.5 177.5t76.5 120.5q74 67 188 67q119 0 170 -72q35 -48 35 -136q0 -68 -19 -172q-14 -73 -24.5 -114.5t-35.5 -94.5t-60 -87q-72 -66 -187 -66q-119 0 -171 72zM160 211v-15l224 419q-20 5 -37 5q-24 0 -44 -7.5t-34 -16.5
t-26.5 -29.5t-19.5 -34t-15 -43.5t-11.5 -45t-10.5 -50l-13 -70q-13 -74 -13 -113zM417 324l13 70q13 74 13 113v8l-220 -414q13 -3 33 -3q32 0 57.5 13t41 32.5t28.5 51.5t20 60t14 69z" />
    <glyph glyph-name="zero.tosf" 
d="M254 93q36 0 63.5 20t46 58t30.5 79.5t22 97.5q15 85 15 137q0 121 -87 121q-36 0 -63.5 -20t-46 -58t-30.5 -79.5t-22 -97.5q-15 -85 -15 -137q0 -121 87 -121zM359 716q208 0 208 -230q0 -56 -13 -134q-13 -77 -33.5 -136t-55.5 -114.5t-92 -85.5t-132 -30
q-208 0 -208 230q0 56 13 134q13 77 33.5 136t55.5 114.5t92 85.5t132 30z" />
    <glyph glyph-name="one.tosf" 
d="M313 500h-171l17 95q93 2 139 25.5t65 80.5h115l-127 -701h-128z" />
    <glyph glyph-name="two.tosf" 
d="M8 0l19 106q18 13 59.5 43.5t59 43.5t49.5 37.5t60.5 48.5t62.5 53q119 97 119 183q0 42 -27.5 66.5t-73.5 24.5q-58 0 -92 -36t-37 -93h-120q2 99 75.5 168.5t192.5 69.5q97 0 154 -49t57 -129q0 -50 -20.5 -97.5t-60.5 -90.5t-73 -71.5t-84 -67.5q-80 -58 -145 -103
h309l-19 -107h-465z" />
    <glyph glyph-name="three.tosf" 
d="M238 332l18 99q157 0 157 111q0 33 -24 51t-61 18q-41 0 -66.5 -22t-32.5 -62h-116q10 82 74 134.5t160 52.5q87 0 140 -42t53 -110q0 -118 -126 -172q50 -17 77.5 -58t27.5 -94q0 -109 -75 -180t-196 -71q-113 0 -175 61t-52 153h120q-5 -48 27.5 -78.5t89.5 -30.5
q61 0 97 39.5t36 97.5q0 53 -37 78t-97 25h-19z" />
    <glyph glyph-name="four.tosf" 
d="M316 142h-323l17 96l268 303l90 102l51 59h111l-82 -456h92l-19 -104h-92l-26 -142h-113zM391 544h-1q-33 -42 -102 -123q-31 -37 -80.5 -93.5t-71.5 -81.5h199l31 173q3 18 13 64t12 61z" />
    <glyph glyph-name="five.tosf" 
d="M20 192h122q3 -44 33.5 -73t83.5 -29q63 0 103 47t40 114q0 55 -32 84t-84 29q-72 0 -107 -58l-110 18q1 3 114 377h375l-20 -109h-277l-48 -156q48 29 115 29q81 0 140.5 -49.5t59.5 -146.5q0 -124 -73.5 -204t-203.5 -80q-104 0 -169.5 58.5t-61.5 148.5z" />
    <glyph glyph-name="six.tosf" 
d="M574 517h-121q0 37 -24 63t-71 26q-121 0 -175 -205h2q62 53 145 53q94 0 149.5 -55t55.5 -152q0 -114 -74 -188.5t-191 -74.5q-115 0 -174.5 61t-59.5 180q0 65 10.5 130t35.5 130t62 114.5t94 80.5t127 31q99 0 155 -54t54 -140zM272 94q61 0 99.5 42.5t38.5 105.5
q0 51 -30 80.5t-81 29.5q-65 0 -102 -42.5t-37 -103.5q0 -53 30.5 -82.5t81.5 -29.5z" />
    <glyph glyph-name="seven.tosf" 
d="M202 0h-141q127 217 379 588h-314l20 113h446l-18 -104q-185 -273 -372 -597z" />
    <glyph glyph-name="eight.tosf" 
d="M356 715q89 0 141 -45.5t52 -114.5q0 -119 -115 -176q90 -50 90 -162q0 -107 -73.5 -169.5t-195.5 -62.5q-103 0 -167.5 50.5t-64.5 140.5q0 72 42 124.5t113 79.5q-61 47 -61 128q0 91 65.5 149t173.5 58zM340 610q-44 0 -76 -28.5t-32 -75.5q0 -37 24 -59.5t66 -22.5
q43 0 75.5 31t32.5 76q0 34 -24.5 56.5t-65.5 22.5zM289 325q-58 0 -98 -37.5t-40 -96.5q0 -47 30 -75t82 -28q60 0 97.5 37t37.5 99q0 46 -29.5 73.5t-79.5 27.5z" />
    <glyph glyph-name="nine.tosf" 
d="M26 177h121q0 -37 24 -63t71 -26q121 0 175 207h-2q-62 -53 -145 -53q-94 0 -149.5 54t-55.5 151q0 114 74 188.5t191 74.5q115 0 174.5 -61t59.5 -180q0 -84 -17.5 -164.5t-53.5 -155t-103 -120.5t-155 -46q-99 0 -155 54t-54 140zM328 603q-61 0 -99.5 -42.5
t-38.5 -105.5q0 -51 30 -80.5t81 -29.5q65 0 102 42.5t37 103.5q0 53 -30.5 82.5t-81.5 29.5z" />
    <glyph glyph-name="a.sub" horiz-adv-x="414" 
d="M125 148h-93q13 60 61 97.5t123 37.5q150 0 150 -125q0 -28 -7 -68l-19 -96q-16 -80 -20 -117h-83q5 41 6 42q-48 -50 -128 -50q-59 0 -93.5 28t-34.5 78q0 57 48.5 89.5t119.5 43.5q2 0 105 11h7q3 0 4 1q0 2 1 2v3q3 15 3 27q0 27 -17.5 42.5t-50.5 15.5q-67 0 -82 -62
zM245 53q-41 -4 -61.5 -7t-47 -10.5t-37.5 -20.5t-11 -33q0 -44 60 -44q86 0 107 97l4 20q-8 -2 -14 -2z" />
    <glyph glyph-name="b.sub" horiz-adv-x="475" 
d="M-9 -123l94 536h94l-20 -117q-3 -11 -5 -29l-6 -33q15 18 45.5 32.5t72.5 14.5q72 0 117.5 -46.5t45.5 -128.5q0 -100 -58 -171t-154 -71q-45 0 -78.5 17t-49.5 41l-8 -45h-90zM208 -56q59 0 91 46.5t32 110.5q0 47 -23.5 75t-69.5 28q-60 0 -92.5 -46.5t-32.5 -109.5
q0 -49 24 -76.5t71 -27.5z" />
    <glyph glyph-name="c.sub" horiz-adv-x="441" 
d="M292 -1h96q-53 -140 -198 -140q-85 0 -134 48.5t-49 134.5q0 101 61 167.5t161 66.5q80 0 128 -39.5t51 -103.5h-96q-15 65 -86 65q-56 0 -89 -46t-33 -107q0 -50 23.5 -78t67.5 -28q62 0 97 60z" />
    <glyph glyph-name="d.sub" horiz-adv-x="473" 
d="M374 -123h-94l6 32q-41 -44 -117 -44q-74 0 -118.5 46.5t-44.5 130.5q0 98 58 168.5t153 70.5q42 0 75 -15t50 -37l33 185h94zM226 200q-59 0 -91 -47t-32 -111q0 -46 24 -73.5t69 -27.5q60 0 92.5 46.5t32.5 109.5q0 49 -24 76t-71 27z" />
    <glyph glyph-name="e.sub" horiz-adv-x="448" 
d="M401 44h-151q-26 0 -75 0.5t-73 0.5q2 -46 28.5 -75t68.5 -29q64 0 93 46h97q-25 -57 -76 -91.5t-123 -34.5q-81 0 -132 47.5t-51 135.5q0 99 61 166.5t161 67.5q87 0 132.5 -49.5t45.5 -128.5q0 -28 -6 -56zM224 204q-42 0 -72 -24t-41 -68h205q-2 42 -26.5 67t-65.5 25
zM316 111l1 1h-1v-1z" />
    <glyph glyph-name="f.sub" horiz-adv-x="246" 
d="M273 416l-14 -76q-14 2 -17 2q-48 0 -54 -44l-6 -27h65l-13 -74h-64l-57 -320h-93l56 320h-51l13 74h51l7 36q22 112 147 112q13 0 30 -3z" />
    <glyph glyph-name="g.sub" horiz-adv-x="473" 
d="M292 -67q-12 -16 -41.5 -30.5t-72.5 -14.5q-74 0 -121.5 44t-47.5 122q0 89 57.5 155t150.5 66q44 0 78 -14.5t49 -36.5l8 40h90l-55 -321q-17 -95 -59 -148q-59 -69 -164 -69q-77 0 -129.5 37.5t-58.5 94.5h98q19 -52 95 -52q104 0 123 127zM227 202q-57 0 -88.5 -42
t-31.5 -100q0 -47 24.5 -74t68.5 -27q59 0 91.5 42.5t32.5 102.5q0 46 -25 72t-72 26z" />
    <glyph glyph-name="h.sub" horiz-adv-x="440" 
d="M-9 -123l94 537h94l-20 -113q-9 -49 -14 -72q51 51 122 51q60 0 92.5 -31t32.5 -88q0 -23 -4 -46l-43 -238h-94l35 202q5 27 5 50q0 73 -67 73q-41 0 -66.5 -30.5t-35.5 -78.5q-6 -36 -19.5 -112t-18.5 -104h-93z" />
    <glyph glyph-name="i.sub" horiz-adv-x="183" 
d="M-9 -123l69 394h93l-68 -394h-94zM68 326l15 88h96l-15 -88h-96z" />
    <glyph glyph-name="j.sub" horiz-adv-x="182" 
d="M153 271l-72 -410q-14 -76 -43.5 -103.5t-102.5 -27.5q-34 0 -42 3l12 71q14 -2 21 -2q49 0 60 49q11 68 36.5 210t37.5 210h93zM180 414l-14 -88h-97l15 88h96z" />
    <glyph glyph-name="k.sub" horiz-adv-x="398" 
d="M352 -123h-117q-33 51 -73 117q-10 15 -44 72l-33 -189h-94l94 537h94l-53 -310q7 7 72.5 74t91.5 93h121q-24 -22 -68.5 -64.5t-60.5 -56.5q-44 -42 -67 -63q18 -30 84 -130q38 -56 53 -80z" />
    <glyph glyph-name="l.sub" horiz-adv-x="182" 
d="M-9 -123l94 537h93l-94 -537h-93z" />
    <glyph glyph-name="m.sub" horiz-adv-x="682" 
d="M85 -123h-94l69 394h91l-9 -47q45 57 121 57q39 0 69 -17t42 -47q53 64 135 64q60 0 93 -31.5t33 -86.5q0 -25 -4 -42l-43 -244h-93l36 207q4 25 4 45q0 73 -62 73q-37 0 -62 -28.5t-35 -72.5l-40 -224h-93l36 207q4 25 4 45q0 73 -61 73q-38 0 -63 -28.5t-35 -72.5z" />
    <glyph glyph-name="n.sub" horiz-adv-x="440" 
d="M-9 -123l69 394h90l-8 -45q40 54 125 54q60 0 92.5 -31t32.5 -88q0 -23 -4 -46l-43 -238h-94l35 202q5 27 5 50q0 73 -67 73q-41 0 -66.5 -30.5t-35.5 -79.5l-38 -215h-93z" />
    <glyph glyph-name="o.sub" horiz-adv-x="468" 
d="M200 -61q59 0 91 46.5t32 109.5q0 47 -24 75t-71 28q-59 0 -92 -46.5t-33 -109.5q0 -49 25 -76t72 -27zM235 276q84 0 135 -46.5t51 -131.5q0 -103 -61 -171t-167 -68q-85 0 -136 47t-51 133q0 101 62 169t167 68z" />
    <glyph glyph-name="p.sub" horiz-adv-x="475" 
d="M59 266h94l-7 -37q47 47 119 47t117.5 -46t45.5 -129q0 -99 -58 -170t-154 -71q-42 0 -75 16t-50 38q-3 -23 -14 -78l-18 -98h-93zM207 -59q59 0 91 46t32 109q0 48 -23.5 76t-69.5 28q-60 0 -92.5 -46.5t-32.5 -109.5q0 -48 24 -75.5t71 -27.5z" />
    <glyph glyph-name="q.sub" horiz-adv-x="474" 
d="M443 265l-92 -528h-94l18 106q3 12 5 26q1 5 2 15t3 18q-40 -43 -116 -43q-74 0 -118.5 47t-44.5 131q0 97 58 167.5t152 70.5q45 0 79 -17t50 -40l8 47h90zM225 195q-58 0 -90 -47t-32 -111q0 -47 23.5 -74t69.5 -27q60 0 92.5 46t32.5 109q0 104 -96 104z" />
    <glyph glyph-name="r.sub" horiz-adv-x="252" 
d="M258 271l-16 -87q-1 0 -3.5 0.5t-4.5 0.5q-5 1 -16 1q-46 0 -68 -32.5t-34 -96.5l-31 -180h-94l68 394h89l-8 -49q17 24 44 38.5t52 14.5q15 0 22 -4z" />
    <glyph glyph-name="s.sub" horiz-adv-x="371" 
d="M-12 -3h84q6 -61 78 -61q35 0 53 13t18 34q0 12 -8.5 20t-17 11.5t-32.5 11.5l-38 12q-50 17 -73.5 41t-23.5 65q0 58 45.5 95t117.5 37q65 0 103.5 -28.5t38.5 -80.5q0 -7 -1 -14h-80q-8 47 -69 47q-28 0 -45.5 -11t-17.5 -31q0 -25 47 -42l38 -11q56 -16 81.5 -39.5
t25.5 -66.5q0 -63 -47 -101.5t-122 -38.5q-72 0 -113 35t-42 103z" />
    <glyph glyph-name="t.sub" horiz-adv-x="261" 
d="M73 193h-59l13 74h58l20 106h93l-19 -106h72l-13 -74h-71l-36 -200q-3 -15 -3 -26q0 -32 39 -32h12q4 0 6 1l-12 -70q-18 -2 -31 -2q-112 0 -112 75q0 18 4 39z" />
    <glyph glyph-name="u.sub" horiz-adv-x="437" 
d="M408 270l-69 -393h-90l8 44q-16 -23 -48.5 -39.5t-76.5 -16.5q-60 0 -92 31.5t-32 88.5q0 25 4 45q7 41 22.5 125t21.5 115h94l-36 -204q-5 -28 -5 -50q0 -72 66 -72q81 0 101 109l39 217h93z" />
    <glyph glyph-name="v.sub" horiz-adv-x="395" 
d="M101 -123l-1 1q-8 35 -21.5 100.5t-19.5 94.5q0 2 -40 197h100l24 -153q5 -42 21 -127l67 136l74 144h103l-221 -393h-86z" />
    <glyph glyph-name="w.sub" horiz-adv-x="589" 
d="M81 -123l-1 1q-16 93 -57 392h92l18 -153q10 -100 13 -127q44 114 116 280h89l12 -153l12 -126q43 102 60 135q8 18 31.5 68t34.5 76h96l-195 -393h-96q-17 104 -26 234q-79 -184 -105 -234h-94z" />
    <glyph glyph-name="x.sub" horiz-adv-x="382" 
d="M-58 -123l180 203l-100 190h104l57 -121q41 53 96 121h109l-165 -193q3 -6 10.5 -19t34 -60.5t65.5 -120.5h-106l-65 134q-18 -21 -54 -66t-56 -68h-110z" />
    <glyph glyph-name="y.sub" horiz-adv-x="397" 
d="M108 -259h-95l86 148l-80 381h99l28 -167q18 -99 20 -109q13 25 48.5 96.5t55.5 109.5q7 15 36 70h103q-187 -335 -301 -529z" />
    <glyph glyph-name="z.sub" horiz-adv-x="371" 
d="M-25 -123l11 70l238 250q-27 -1 -89 -1h-100l13 74h303l-12 -71q-41 -43 -77.5 -82t-57.5 -61.5t-39.5 -42.5t-27.5 -29.5t-16 -17t-10.5 -10.5t-7.5 -6q11 0 51 0.5t47 0.5h103l-13 -74h-316z" />
    <glyph glyph-name="a.sup" horiz-adv-x="413" 
d="M178 573h-93q13 60 61 97.5t123 37.5q150 0 150 -125q0 -28 -7 -68l-19 -96q-16 -80 -20 -117h-83q5 41 6 42q-48 -50 -128 -50q-59 0 -93.5 28t-34.5 78q0 57 48.5 89.5t119.5 43.5q2 0 105 11h7q3 0 4 1q0 1 0.5 2t0.5 3q3 15 3 27q0 27 -17.5 42.5t-50.5 15.5
q-67 0 -82 -62zM298 478q-41 -4 -61.5 -7t-47 -10.5t-37.5 -20.5t-11 -33q0 -44 60 -44q86 0 107 97l4 20q-8 -2 -14 -2z" />
    <glyph glyph-name="b.sup" horiz-adv-x="475" 
d="M44 302l94 536h94l-20 -117q-3 -11 -5 -29l-6 -33q15 18 45.5 32.5t72.5 14.5q72 0 117.5 -46.5t45.5 -128.5q0 -100 -58 -171t-154 -71q-45 0 -78.5 17t-49.5 41l-8 -45h-90zM261 369q59 0 91 46.5t32 110.5q0 47 -23.5 75t-69.5 28q-60 0 -92.5 -46.5t-32.5 -109.5
q0 -49 24 -76.5t71 -27.5z" />
    <glyph glyph-name="c.sup" horiz-adv-x="440" 
d="M345 424h96q-53 -140 -198 -140q-85 0 -134 48.5t-49 134.5q0 101 61 167.5t161 66.5q80 0 128 -39.5t51 -103.5h-96q-15 65 -86 65q-56 0 -89 -46t-33 -107q0 -50 23.5 -78t67.5 -28q62 0 97 60z" />
    <glyph glyph-name="d.sup" horiz-adv-x="473" 
d="M428 302h-94l6 32q-41 -44 -117 -44q-74 0 -118.5 46.5t-44.5 130.5q0 98 58 168.5t153 70.5q42 0 75 -15t50 -37l33 185h94zM280 625q-59 0 -91 -47t-32 -111q0 -46 24 -73.5t69 -27.5q60 0 92.5 46.5t32.5 109.5q0 49 -24 76t-71 27z" />
    <glyph glyph-name="e.sup" horiz-adv-x="448" 
d="M454 469h-151q-26 0 -75 0.5t-73 0.5q2 -46 28.5 -75t68.5 -29q64 0 93 46h97q-25 -57 -76 -91.5t-123 -34.5q-81 0 -132 47.5t-51 135.5q0 99 61 166.5t161 67.5q87 0 132.5 -49.5t45.5 -128.5q0 -28 -6 -56zM277 629q-43 0 -72.5 -23.5t-40.5 -68.5h205q-2 42 -26.5 67
t-65.5 25zM369 536l1 1h-1v-1z" />
    <glyph glyph-name="f.sup" horiz-adv-x="245" 
d="M326 841l-14 -76q-14 2 -17 2q-48 0 -54 -44l-6 -27h65l-13 -74h-64l-57 -320h-93l56 320h-51l13 74h51l7 36q22 112 147 112q14 0 30 -3z" />
    <glyph glyph-name="g.sup" horiz-adv-x="473" 
d="M345 358q-12 -16 -41.5 -30.5t-72.5 -14.5q-74 0 -121.5 44t-47.5 122q0 89 57.5 155t150.5 66q44 0 78 -14.5t49 -36.5l8 40h90l-55 -321q-17 -95 -59 -148q-59 -69 -164 -69q-77 0 -129.5 37.5t-58.5 94.5h98q19 -52 95 -52q104 0 123 127zM280 627q-57 0 -88.5 -42
t-31.5 -100q0 -47 24.5 -74t68.5 -27q59 0 91.5 42.5t32.5 102.5q0 46 -25 72t-72 26z" />
    <glyph glyph-name="h.sup" horiz-adv-x="439" 
d="M44 302l94 537h94l-20 -113q-9 -49 -14 -72q51 51 122 51q60 0 92.5 -31t32.5 -88q0 -23 -4 -46l-43 -238h-94l35 202q5 27 5 50q0 73 -67 73q-41 0 -66.5 -30.5t-35.5 -78.5q-6 -36 -19.5 -112t-18.5 -104h-93z" />
    <glyph glyph-name="i.sup" horiz-adv-x="183" 
d="M44 302l69 394h93l-68 -394h-94zM121 751l15 88h96l-15 -88h-96z" />
    <glyph glyph-name="j.sup" horiz-adv-x="182" 
d="M206 696l-72 -410q-14 -76 -43.5 -103.5t-102.5 -27.5q-34 0 -42 3l12 71q14 -2 21 -2q49 0 60 49q11 68 37 210.5t37 209.5h93zM233 839l-14 -88h-97l15 88h96z" />
    <glyph glyph-name="k.sup" horiz-adv-x="398" 
d="M405 302h-117q-33 51 -73 117q-10 15 -44 72l-33 -189h-94l94 537h94l-53 -310q7 7 72.5 74t91.5 93h121q-24 -22 -68.5 -64.5t-60.5 -56.5q-44 -42 -67 -63q18 -30 84 -130q38 -56 53 -80z" />
    <glyph glyph-name="l.sup" horiz-adv-x="182" 
d="M44 302l94 537h93l-94 -537h-93z" />
    <glyph glyph-name="m.sup" horiz-adv-x="682" 
d="M138 302h-94l69 394h91l-9 -47q45 57 121 57q39 0 69 -17t42 -47q53 64 135 64q60 0 93 -31.5t33 -86.5q0 -25 -4 -42l-43 -244h-93l36 207q4 25 4 45q0 73 -62 73q-37 0 -62 -28.5t-35 -72.5l-40 -224h-93l36 207q4 25 4 45q0 73 -61 73q-38 0 -63 -28.5t-35 -72.5z" />
    <glyph glyph-name="n.sup" horiz-adv-x="439" 
d="M44 302l69 394h90l-8 -45q40 54 125 54q60 0 92.5 -31t32.5 -88q0 -23 -4 -46l-43 -238h-94l35 202q5 27 5 50q0 73 -67 73q-41 0 -66.5 -30.5t-35.5 -79.5l-38 -215h-93z" />
    <glyph glyph-name="o.sup" horiz-adv-x="467" 
d="M253 364q59 0 91 46.5t32 109.5q0 47 -24 75t-71 28q-59 0 -92 -46.5t-33 -109.5q0 -49 25 -76t72 -27zM288 701q84 0 135 -46.5t51 -131.5q0 -103 -61 -171t-167 -68q-85 0 -136 47t-51 133q0 101 62 169t167 68z" />
    <glyph glyph-name="p.sup" horiz-adv-x="475" 
d="M112 691h94l-7 -37q47 47 119 47t117.5 -46t45.5 -129q0 -99 -58 -170t-154 -71q-42 0 -75 16t-50 38q-3 -23 -14 -78l-18 -98h-93zM260 366q59 0 91 46t32 109q0 48 -23.5 76t-69.5 28q-60 0 -92.5 -46.5t-32.5 -109.5q0 -48 24 -75.5t71 -27.5z" />
    <glyph glyph-name="q.sup" horiz-adv-x="473" 
d="M496 690l-92 -528h-94l18 106q3 12 5 26q1 5 2 15t3 18q-40 -43 -116 -43q-74 0 -118.5 47t-44.5 131q0 97 58 167.5t152 70.5q45 0 79 -17t50 -40l8 47h90zM278 620q-58 0 -90 -47t-32 -111q0 -47 23.5 -74t69.5 -27q60 0 92.5 46t32.5 109q0 104 -96 104z" />
    <glyph glyph-name="r.sup" horiz-adv-x="253" 
d="M312 696l-16 -87q-2 0 -4 0.5t-4 0.5q-5 1 -16 1q-46 0 -68 -32.5t-34 -96.5l-31 -180h-94l68 394h89l-8 -49q17 24 44 38.5t52 14.5q15 0 22 -4z" />
    <glyph glyph-name="s.sup" horiz-adv-x="371" 
d="M41 422h84q6 -61 78 -61q35 0 53 13t18 34q0 12 -8.5 20t-17 11.5t-32.5 11.5l-38 12q-50 17 -73.5 41t-23.5 65q0 58 45.5 95t117.5 37q65 0 103.5 -28.5t38.5 -80.5q0 -7 -1 -14h-80q-8 47 -69 47q-28 0 -45.5 -11t-17.5 -31q0 -25 47 -42l38 -11q56 -16 81.5 -39.5
t25.5 -66.5q0 -63 -47 -101.5t-122 -38.5q-72 0 -113 35t-42 103z" />
    <glyph glyph-name="t.sup" horiz-adv-x="261" 
d="M126 618h-59l13 74h58l20 106h93l-19 -106h72l-13 -74h-71l-36 -200q-3 -15 -3 -26q0 -32 39 -32h12q4 0 6 1l-12 -70q-18 -2 -31 -2q-112 0 -112 75q0 18 4 39z" />
    <glyph glyph-name="u.sup" horiz-adv-x="438" 
d="M462 695l-69 -393h-90l8 44q-16 -23 -48.5 -39.5t-76.5 -16.5q-60 0 -92 31.5t-32 88.5q0 25 4 45q7 41 22.5 125t21.5 115h94l-36 -204q-5 -28 -5 -50q0 -72 66 -72q81 0 101 109l39 217h93z" />
    <glyph glyph-name="v.sup" horiz-adv-x="393" 
d="M153 302l-1 1q-8 35 -21.5 100.5t-19.5 94.5q0 2 -40 197h100l24 -153q5 -42 21 -127l67 136l74 144h103l-221 -393h-86z" />
    <glyph glyph-name="w.sup" horiz-adv-x="588" 
d="M134 302l-1 1q-16 93 -57 392h92l18 -153q10 -100 13 -127q44 114 116 280h89l12 -153l12 -126q43 102 60 135q8 18 31.5 68t34.5 76h96l-195 -393h-96q-17 104 -26 234q-79 -184 -105 -234h-94z" />
    <glyph glyph-name="x.sup" horiz-adv-x="381" 
d="M-5 302l180 203l-100 190h104l57 -121q41 53 96 121h109l-165 -193q3 -6 10.5 -19t34 -60.5t65.5 -120.5h-106l-65 134q-18 -21 -54 -66t-56 -68h-110z" />
    <glyph glyph-name="y.sup" horiz-adv-x="395" 
d="M160 166h-95l86 148l-80 381h99l28 -167q18 -99 20 -109q13 25 48.5 96.5t55.5 109.5q7 15 36 70h103q-187 -335 -301 -529z" />
    <glyph glyph-name="z.sup" horiz-adv-x="371" 
d="M28 302l11 70l238 250q-27 -1 -89 -1h-100l13 74h303l-12 -71q-41 -43 -77.5 -82t-57.5 -61.5t-39.5 -42.5t-27.5 -29.5t-16 -17t-10.5 -10.5t-7.5 -6q11 0 51 0.5t47 0.5h103l-13 -74h-316z" />
    <glyph glyph-name="zero.sub" horiz-adv-x="454" 
d="M186 -50q27 0 47.5 15t34 44t22 60.5t16.5 74.5q11 61 11 104q0 91 -64 91q-49 0 -76 -51.5t-44 -141.5q-11 -58 -11 -105q0 -91 64 -91zM264 425q157 0 157 -177q0 -51 -10 -101q-10 -59 -25 -104.5t-41.5 -87.5t-69 -65t-98.5 -23q-157 0 -157 175q0 47 9 103
q8 46 18.5 83.5t29.5 75.5t43.5 63.5t61.5 41.5t82 16z" />
    <glyph glyph-name="one.sub" horiz-adv-x="319" 
d="M160 258h-127l13 75q70 1 103.5 19t48.5 62h88l-95 -537h-97z" />
    <glyph glyph-name="two.sub" horiz-adv-x="429" 
d="M-13 -123l14 82l47 35q70 51 170 138q26 23 42 39t31.5 44t15.5 55q0 32 -20.5 50.5t-53.5 18.5q-43 0 -68 -27.5t-27 -71.5h-92q2 77 56.5 130.5t144.5 53.5q74 0 116.5 -37.5t42.5 -99.5q0 -38 -15.5 -74.5t-45 -69t-55 -55.5t-62.5 -51q-58 -45 -105 -77h228l-15 -83
h-349z" />
    <glyph glyph-name="three.sub" horiz-adv-x="429" 
d="M159 128l13 76q117 0 117 84q0 25 -17.5 38.5t-45.5 13.5q-29 0 -48 -17t-24 -47h-89q8 64 56 104t120 40q66 0 105.5 -31.5t39.5 -85.5q0 -92 -92 -130q37 -14 57 -45t20 -71q0 -85 -56 -138.5t-148 -53.5q-86 0 -132.5 46.5t-38.5 117.5h92q-3 -36 21 -59.5t66 -23.5
q45 0 71.5 30t26.5 74q0 40 -28 59t-71 19h-15z" />
    <glyph glyph-name="four.sub" horiz-adv-x="447" 
d="M227 -15h-242l13 76l200 230q41 50 68 79l38 44h85l-61 -347h69l-15 -82h-69l-19 -108h-87zM96 67h145q4 21 11.5 65t11.5 65l18 93q-28 -37 -53 -68l-21 -25l-78 -91zM284 292h-1l-1 -2z" />
    <glyph glyph-name="five.sub" horiz-adv-x="427" 
d="M88 21l1 -1q2 -33 25 -55t62 -22q46 0 75.5 36t29.5 86q0 41 -24 63.5t-61 22.5q-52 0 -79 -45l-85 15l73 243q9 35 13 46h282l-15 -86h-207l-35 -115q36 21 82 21q66 0 109.5 -39t43.5 -111q0 -96 -55 -157t-153 -61q-80 0 -128 44.5t-46 114.5h92z" />
    <glyph glyph-name="six.sub" horiz-adv-x="454" 
d="M425 272h-93q0 29 -17.5 48.5t-52.5 19.5q-89 0 -127 -152q47 38 106 38q71 0 113 -42t42 -116q0 -88 -55 -144.5t-144 -56.5q-176 0 -176 184q0 63 13.5 125t41 119t77 92t114.5 35q76 0 117.5 -41t40.5 -109zM199 -48q44 0 72.5 32.5t28.5 79.5q0 38 -23 60.5t-59 22.5
q-48 0 -75 -32t-27 -79q0 -39 23 -61.5t60 -22.5z" />
    <glyph glyph-name="seven.sub" horiz-adv-x="375" 
d="M107 -123h-108q108 186 284 448h-234l15 89h336l-14 -82q-151 -228 -279 -455z" />
    <glyph glyph-name="eight.sub" horiz-adv-x="440" 
d="M253 425q68 0 107 -35t39 -88q0 -92 -85 -134q66 -45 66 -124q0 -82 -55 -129.5t-146 -47.5q-78 0 -126.5 38.5t-48.5 106.5q0 55 31 95.5t84 61.5q-45 37 -45 97q0 70 49 114.5t130 44.5zM241 343q-32 0 -55.5 -22t-23.5 -57q0 -27 18.5 -44t47.5 -17q33 0 56.5 23
t23.5 58q0 25 -18.5 42t-48.5 17zM203 126q-40 0 -70.5 -29t-30.5 -73q0 -35 22.5 -56t60.5 -21q43 0 71 27.5t28 74.5q0 35 -22 56t-59 21z" />
    <glyph glyph-name="nine.sub" horiz-adv-x="453" 
d="M14 16h93q0 -29 17.5 -48.5t52.5 -19.5q89 0 127 153q-46 -37 -106 -37q-71 0 -113 41t-42 115q0 88 55 145t144 57q176 0 176 -185q0 -63 -13 -124.5t-40 -118.5t-77 -92t-116 -35q-76 0 -118 41t-40 108zM240 339q-44 0 -72.5 -33t-28.5 -80q0 -38 22.5 -60t58.5 -22
q49 0 76 31.5t27 78.5q0 39 -23 62t-60 23z" />
    <glyph glyph-name="zero.sup" horiz-adv-x="455" 
d="M240 375q27 0 47.5 15t34 44t22 60.5t16.5 74.5q11 61 11 104q0 91 -64 91q-49 0 -76 -51.5t-44 -141.5q-11 -58 -11 -105q0 -91 64 -91zM318 850q157 0 157 -177q0 -51 -10 -101q-10 -59 -25 -104.5t-41.5 -87.5t-69 -65t-98.5 -23q-157 0 -157 175q0 47 9 103
q8 46 18.5 83.5t29.5 75.5t43.5 63.5t61.5 41.5t82 16z" />
    <glyph glyph-name="one.sup" horiz-adv-x="317" 
d="M212 683h-127l13 75q70 1 103.5 19t48.5 62h88l-95 -537h-97z" />
    <glyph glyph-name="two.sup" horiz-adv-x="428" 
d="M40 302l14 82l47 35q70 51 170 138q26 23 42 39t31.5 44t15.5 55q0 32 -20.5 50.5t-53.5 18.5q-43 0 -68 -27.5t-27 -71.5h-92q2 77 56.5 130.5t144.5 53.5q74 0 116.5 -37.5t42.5 -99.5q0 -38 -15.5 -74.5t-45 -69t-55 -55.5t-62.5 -51q-58 -45 -105 -77h228l-15 -83
h-349z" />
    <glyph glyph-name="three.sup" horiz-adv-x="429" 
d="M213 553l13 76q117 0 117 84q0 25 -17.5 38.5t-45.5 13.5q-29 0 -48 -17t-24 -47h-89q8 64 56 104t120 40q66 0 105.5 -31.5t39.5 -85.5q0 -92 -92 -130q37 -14 57 -45t20 -71q0 -85 -56 -138.5t-148 -53.5q-86 0 -132.5 46.5t-38.5 117.5h92q-3 -36 21 -59.5t66 -23.5
q45 0 71.5 30t26.5 74q0 40 -28 59t-71 19h-15z" />
    <glyph glyph-name="four.sup" horiz-adv-x="447" 
d="M280 410h-242l13 76l200 230q41 50 68 79l38 44h85l-61 -347h69l-15 -82h-69l-19 -108h-87zM149 492h145q4 22 11.5 65.5t11.5 64.5l18 93q-28 -37 -53 -68l-21 -25l-78 -91zM337 717h-1l-1 -2z" />
    <glyph glyph-name="five.sup" horiz-adv-x="427" 
d="M141 446l1 -1q2 -33 25 -55t62 -22q46 0 75.5 36t29.5 86q0 41 -24 63.5t-61 22.5q-52 0 -79 -45l-85 15l73 243q9 35 13 46h282l-15 -86h-207l-35 -115q36 21 82 21q66 0 109.5 -39t43.5 -111q0 -96 -55 -157t-153 -61q-80 0 -128 44.5t-46 114.5h92z" />
    <glyph glyph-name="six.sup" horiz-adv-x="453" 
d="M478 697h-93q0 29 -17.5 48.5t-52.5 19.5q-89 0 -127 -152q47 38 106 38q71 0 113 -42t42 -116q0 -88 -55 -144.5t-144 -56.5q-176 0 -176 184q0 63 13.5 125t41 119t77 92t114.5 35q76 0 117.5 -41t40.5 -109zM252 377q44 0 72.5 32.5t28.5 79.5q0 38 -23 60.5t-59 22.5
q-48 0 -75 -32t-27 -79q0 -39 23 -61.5t60 -22.5z" />
    <glyph glyph-name="seven.sup" horiz-adv-x="374" 
d="M160 302h-108q108 186 284 448h-234l15 89h336l-14 -82q-151 -228 -279 -455z" />
    <glyph glyph-name="eight.sup" horiz-adv-x="441" 
d="M307 850q68 0 107 -35t39 -88q0 -91 -85 -134q66 -45 66 -124q0 -82 -55 -129.5t-146 -47.5q-78 0 -126.5 38.5t-48.5 106.5q0 55 31 95.5t84 61.5q-45 37 -45 97q0 70 49 114.5t130 44.5zM295 768q-32 0 -55.5 -22t-23.5 -57q0 -27 18.5 -44t47.5 -17q33 0 56.5 23
t23.5 58q0 25 -18.5 42t-48.5 17zM257 551q-40 0 -70.5 -29t-30.5 -73q0 -35 22.5 -56t60.5 -21q43 0 71 27.5t28 74.5q0 35 -22 56t-59 21z" />
    <glyph glyph-name="nine.sup" horiz-adv-x="453" 
d="M67 441h93q0 -29 17.5 -48.5t52.5 -19.5q89 0 127 153q-46 -37 -106 -37q-71 0 -113 41t-42 115q0 88 55 145t144 57q176 0 176 -185q0 -63 -13 -124.5t-40 -118.5t-77 -92t-116 -35q-76 0 -118 41t-40 108zM293 764q-44 0 -72.5 -33t-28.5 -80q0 -38 22.5 -60t58.5 -22
q49 0 76 31.5t27 78.5q0 39 -23 62t-60 23z" />
    </font>
</defs>
</svg>
