<?xml version="1.0" standalone="no"?>
<!DOCTYPE svg PUBLIC "-//W3C//DTD SVG 1.1//EN" "http://www.w3.org/Graphics/SVG/1.1/DTD/svg11.dtd" >
<svg>
<metadata>
Created by FontForge 20120731 at Tue Dec 15 21:07:57 2015
 By ,,,
(c)2013 Optimo.
</metadata>
<defs>
<font id="Plain-ThinIta" horiz-adv-x="560" >
  <font-face 
    font-family="Plain Thin"
    font-weight="250"
    font-style="italic"
    font-stretch="normal"
    units-per-em="1000"
    panose-1="2 11 0 4 2 2 2 2 2 4"
    ascent="803"
    descent="-197"
    x-height="525"
    cap-height="715"
    bbox="-106 -271 1324 1071"
    underline-thickness="50"
    underline-position="-50"
    slope="-10"
    unicode-range="U+000D-FB02"
  />
<missing-glyph horiz-adv-x="644" 
d="M50 240v49l309 309q14 -8 26 -23zM50 142v49l347 347v-15q0 -20 -13.5 -37.5t-41.5 -39.5t-37 -31q-23 -23 -36 -54zM104 0h-49l261 261h49l-93 -93h-23v-23zM321 168l273 273v-49l-224 -224h-49zM50 338v49l148 148l39 -2q0 29 20 52t55 23h8zM398 0h-49l33 33h2v2
l210 210v-49zM384 133l210 210v-49l-210 -210v49zM50 44v49l206 206v-38h11zM50 583l196 196h49l-44 -44q-54 -14 -93 -53.5t-54 -93.5l-54 -54v49zM537 482l57 57v-49l-216 -216v7q0 12 2.5 21t11 18.5t12.5 13.5t21 16t23 16q1 1 10 7.5t14 10.5t14.5 12.5t15.5 16.5
t13.5 18.5t13 23.5t8.5 27zM50 681l98 98h49l-147 -147v49zM496 0h-49l147 147v-49zM459 698l81 81h49l-104 -104q-25 22 -26 23zM50 436v49l56 56l46 -3zM506 647l88 88v-49l-70 -70q-6 13 -18 31zM202 0h-49l96 96v-49zM395 732l47 47h49l-62 -62q-15 8 -34 15zM536 579
l58 58v-49l-52 -52q0 13 -6 43zM307 742l37 37h49l-38 -38q-18 2 -28 2q-2 0 -6.5 -0.5t-6.5 -0.5h-7zM300 0h-49l33 33h49zM594 49v-49h-49zM50 779h49l-49 -49v49z" />
    <glyph glyph-name="fi" unicode="fi" horiz-adv-x="495" 
d="M332 717l-9 -56q-14 2 -24 2q-34 0 -53 -17t-27 -58l-11 -63h91l-10 -53h-91l-83 -472h-72l83 472h-69l10 53h69l8 48q13 72 47 109.5t106 37.5q19 0 35 -3zM471 604h-76l20 111h76zM383 525h72l-93 -525h-72z" />
    <glyph glyph-name="fl" unicode="fl" horiz-adv-x="498" 
d="M332 717l-9 -56q-14 2 -24 2q-34 0 -53 -17t-27 -58l-11 -63h91l-10 -53h-91l-83 -472h-72l83 472h-69l10 53h69l8 48q13 72 47 109.5t106 37.5q19 0 35 -3zM289 0l127 715h72l-127 -715h-72z" />
    <glyph glyph-name=".notdef" horiz-adv-x="644" 
d="M50 240v49l309 309q14 -8 26 -23zM50 142v49l347 347v-15q0 -20 -13.5 -37.5t-41.5 -39.5t-37 -31q-23 -23 -36 -54zM104 0h-49l261 261h49l-93 -93h-23v-23zM321 168l273 273v-49l-224 -224h-49zM50 338v49l148 148l39 -2q0 29 20 52t55 23h8zM398 0h-49l33 33h2v2
l210 210v-49zM384 133l210 210v-49l-210 -210v49zM50 44v49l206 206v-38h11zM50 583l196 196h49l-44 -44q-54 -14 -93 -53.5t-54 -93.5l-54 -54v49zM537 482l57 57v-49l-216 -216v7q0 12 2.5 21t11 18.5t12.5 13.5t21 16t23 16q1 1 10 7.5t14 10.5t14.5 12.5t15.5 16.5
t13.5 18.5t13 23.5t8.5 27zM50 681l98 98h49l-147 -147v49zM496 0h-49l147 147v-49zM459 698l81 81h49l-104 -104q-25 22 -26 23zM50 436v49l56 56l46 -3zM506 647l88 88v-49l-70 -70q-6 13 -18 31zM202 0h-49l96 96v-49zM395 732l47 47h49l-62 -62q-15 8 -34 15zM536 579
l58 58v-49l-52 -52q0 13 -6 43zM307 742l37 37h49l-38 -38q-18 2 -28 2q-2 0 -6.5 -0.5t-6.5 -0.5h-7zM300 0h-49l33 33h49zM594 49v-49h-49zM50 779h49l-49 -49v49z" />
    <glyph glyph-name=".null" horiz-adv-x="0" 
 />
    <glyph glyph-name="nonmarkingreturn" horiz-adv-x="333" 
 />
    <glyph glyph-name="NULL" horiz-adv-x="0" 
 />
    <glyph glyph-name="NULL" horiz-adv-x="0" 
 />
    <glyph glyph-name="CR" unicode="&#xd;" horiz-adv-x="0" 
 />
    <glyph glyph-name="space" unicode=" " horiz-adv-x="262" 
 />
    <glyph glyph-name="exclam" unicode="!" horiz-adv-x="263" 
d="M132 186h-44q46 340 60 421l20 108h72l-20 -108q-12 -72 -26.5 -141.5t-35 -161t-26.5 -118.5zM39 0l19 104h76l-19 -104h-76z" />
    <glyph glyph-name="quotedbl" unicode="&#x22;" horiz-adv-x="341" 
d="M151 451h-48q1 7 15.5 121.5t18.5 142.5h74zM286 451h-48q1 7 15.5 121.5t18.5 142.5h74z" />
    <glyph glyph-name="numbersign" unicode="#" 
d="M269 0l72 232h-178l-72 -232h-43l72 232h-107l13 40h106l57 183h-108l12 40h109l68 220h43l-69 -220h179l68 220h43l-69 -220h102l-12 -40h-102l-57 -183h104l-13 -40h-103l-72 -232h-43zM232 455l-57 -183h178l57 183h-178z" />
    <glyph glyph-name="dollar" unicode="$" 
d="M6 207h71q7 -75 56.5 -115t129.5 -40q75 0 124 33.5t49 102.5q0 23 -8.5 42.5t-17.5 31t-32.5 26t-34 19.5t-40.5 19q-9 4 -13 6l-39 16q-83 34 -123.5 74t-40.5 112q0 86 59 136t164 52l19 106h68l-20 -111q168 -25 176 -190h-68q-5 67 -50.5 102.5t-119.5 35.5
t-113 -30t-39 -87q0 -51 31 -80t101 -58l45 -20q90 -39 132 -77.5t42 -105.5q0 -98 -68.5 -154.5t-184.5 -58.5l-20 -112h-68l21 117q-177 31 -188 208z" />
    <glyph glyph-name="percent" unicode="%" horiz-adv-x="875" 
d="M225 0l400 715h50l-402 -715h-48zM217 371q41 0 69 24t40 61t16.5 66t4.5 56q0 49 -23 77.5t-69 28.5q-41 0 -69 -23.5t-40 -61t-16 -66.5t-4 -56q0 -106 91 -106zM212 330q-68 0 -104 37.5t-36 107.5q0 28 3.5 56.5t16 65t32 64t55.5 46.5t82 19q69 0 105 -37.5
t36 -107.5q0 -36 -7 -73t-25.5 -80.5t-59 -70.5t-98.5 -27zM635 25q41 0 69 24t40 61t16.5 66t4.5 56q0 49 -23 77.5t-69 28.5q-41 0 -69 -23.5t-40 -61t-16 -66.5t-4 -56q0 -106 91 -106zM630 -16q-68 0 -104 37.5t-36 107.5q0 28 3.5 56.5t16 65t32 64t55.5 46.5t82 19
q69 0 105 -37.5t36 -107.5q0 -36 -7 -73t-25.5 -80.5t-59 -70.5t-98.5 -27z" />
    <glyph glyph-name="ampersand" unicode="&#x26;" horiz-adv-x="656" 
d="M577 377l65 -5q-72 -141 -144 -220l86 -119l-51 -37q-1 1 -78 109q-59 -58 -116 -88t-128 -30q-85 0 -132 47.5t-47 122.5q0 44 17 81.5t49.5 67.5t66 51t80.5 44q-60 83 -60 157q0 72 48 118.5t132 46.5q72 0 116 -35.5t44 -92.5q0 -72 -52 -121.5t-139 -90.5
q33 -52 129 -187q65 83 114 181zM422 147q-38 47 -150 211q-38 -19 -60 -32t-51 -36.5t-43.5 -54t-14.5 -67.5q0 -55 33.5 -89.5t94.5 -34.5q93 0 191 103zM306 427l38 19q114 57 114 139q0 41 -26 63.5t-72 22.5q-52 0 -80 -30t-28 -75q0 -62 54 -139z" />
    <glyph glyph-name="quotesingle" unicode="'" horiz-adv-x="206" 
d="M151 451h-48q1 7 15.5 121.5t18.5 142.5h74z" />
    <glyph glyph-name="parenleft" unicode="(" horiz-adv-x="294" 
d="M35 212q0 155 81 305.5t224 239.5l-13 -72q-106 -89 -165.5 -212.5t-59.5 -262.5q0 -178 90 -295l-13 -71q-63 49 -103.5 149.5t-40.5 218.5z" />
    <glyph glyph-name="parenright" unicode=")" horiz-adv-x="294" 
d="M257 390q0 -157 -80.5 -308.5t-224.5 -238.5l13 72q106 89 165.5 213t59.5 263q0 179 -90 296l13 70q63 -48 103.5 -149.5t40.5 -217.5z" />
    <glyph glyph-name="asterisk" unicode="*" horiz-adv-x="444" 
d="M320 708l-37 -144l147 31l7 -53l-148 -12l74 -128l-49 -24l-57 137l-98 -110l-38 39l113 96l-135 60l26 49l125 -79l16 147z" />
    <glyph glyph-name="plus" unicode="+" 
d="M61 293v57h191v200h59v-200h192v-57h-192v-200h-59v200h-191z" />
    <glyph glyph-name="comma" unicode="," horiz-adv-x="236" 
d="M135 111l-121 -232h-61l106 232h76z" />
    <glyph glyph-name="hyphen" unicode="-" horiz-adv-x="407" 
d="M59 263l11 61h272l-11 -61h-272z" />
    <glyph glyph-name="period" unicode="." horiz-adv-x="213" 
d="M16 0l19 111h76l-19 -111h-76z" />
    <glyph glyph-name="slash" unicode="/" horiz-adv-x="371" 
d="M-36 -105l375 820h67l-376 -820h-66z" />
    <glyph glyph-name="zero" unicode="0" 
d="M237 43q65 0 112 45q57 57 90 187.5t33 239.5q0 72 -32.5 113.5t-99.5 41.5q-64 0 -111 -45q-56 -56 -88.5 -187t-32.5 -240q0 -155 129 -155zM534 357q-15 -79 -35 -139.5t-54 -116t-87.5 -85.5t-123.5 -30q-105 0 -152.5 54t-48.5 160q0 77 14 153q12 64 25 113t37 101
t54.5 85.5t77 55t104.5 21.5q201 0 203 -220q0 -76 -14 -152z" />
    <glyph glyph-name="one" unicode="1" 
d="M239 0l97 549h-178l10 53h22q90 0 132 26t62 87h54l-127 -715h-72z" />
    <glyph glyph-name="two" unicode="2" 
d="M462 0h-465l11 59l82 62l158 120q50 38 76 60.5t66 64.5t59 86t19 91q0 60 -37 93.5t-102 33.5q-76 0 -116.5 -46.5t-55.5 -131.5h-74q15 109 79 173t173 64q102 0 156 -47t54 -126q0 -60 -23 -114.5t-68 -103.5t-86 -83.5t-103 -79.5q-3 -2 -53 -38t-105 -74h366z" />
    <glyph glyph-name="three" unicode="3" 
d="M18 206h73q-2 -80 39 -121.5t115 -41.5q82 0 130 45.5t48 125.5q0 71 -51.5 106.5t-127.5 35.5h-12l11 59h8q195 0 195 145q0 52 -32 81t-91 29q-117 0 -147 -132h-74q15 87 75 139t157 52q89 0 138.5 -43.5t49.5 -111.5q0 -71 -41.5 -118t-114.5 -65q52 -17 92 -60.5
t40 -113.5q0 -103 -69.5 -167t-185.5 -64q-110 0 -169.5 57t-55.5 163z" />
    <glyph glyph-name="four" unicode="4" 
d="M519 227l-10 -59h-101l-30 -168h-71l30 168h-344l8 51l291 333l141 163h72l-87 -488h101zM423 622h-2l-154 -184l-59 -69q-10 -11 -37.5 -42t-41.5 -47l-47 -53h265l23 127q25 150 53 268z" />
    <glyph glyph-name="five" unicode="5" 
d="M69 337l109 378h366l-11 -63h-308l-73 -254q59 59 147 59q92 0 150 -56t58 -149q0 -112 -69 -189.5t-187 -77.5q-103 0 -167 53t-70 157h75q2 -65 46 -108.5t118 -43.5q81 0 129.5 57.5t48.5 139.5q0 73 -41.5 115t-108.5 42q-35 0 -64 -11.5t-44 -24.5t-36 -35z" />
    <glyph glyph-name="six" unicode="6" 
d="M549 531h-73q0 55 -31.5 97.5t-101.5 42.5q-86 0 -137 -76.5t-82 -239.5q20 42 68.5 72t115.5 30q90 0 147 -55t57 -149q0 -117 -69.5 -192t-189.5 -75q-100 0 -158 56t-58 171q0 58 12 130q34 203 106.5 294.5t194.5 91.5q100 0 147.5 -54t51.5 -144zM286 397
q-81 0 -128 -53t-47 -141q0 -76 38 -118.5t111 -42.5q76 0 126 54.5t50 143.5q0 72 -39.5 114.5t-110.5 42.5z" />
    <glyph glyph-name="seven" unicode="7" 
d="M167 0h-89q32 54 67.5 111.5t82 131t68.5 108.5q182 280 197 301l1 1q-20 -1 -56 -1h-312l12 63h440l-11 -57l-33 -53q-268 -426 -367 -605z" />
    <glyph glyph-name="eight" unicode="8" 
d="M180 387q-76 57 -76 144q0 88 60.5 143t168.5 55q94 0 148.5 -44.5t54.5 -117.5q0 -67 -37 -115.5t-98 -69.5q107 -55 107 -167q0 -101 -71 -165t-191 -64q-101 0 -167 50t-66 141q0 75 44 131t123 79zM326 671q-66 0 -107.5 -35t-41.5 -100q0 -58 34.5 -92t96.5 -34
q66 0 108.5 40.5t42.5 105.5q0 53 -36 84t-97 31zM275 355q-78 0 -131 -46t-53 -124q0 -68 43.5 -105t114.5 -37q84 0 133.5 47.5t49.5 128.5q0 62 -43.5 99t-113.5 37z" />
    <glyph glyph-name="nine" unicode="9" 
d="M29 184h73q0 -55 31.5 -97.5t101.5 -42.5q86 0 137 76.5t82 239.5q-20 -42 -68.5 -72t-115.5 -30q-90 0 -147 55t-57 149q0 116 69 191.5t188 75.5q101 0 159.5 -56t58.5 -171q0 -58 -12 -130q-34 -203 -106.5 -294.5t-194.5 -91.5q-100 0 -148.5 54t-50.5 144zM292 318
q81 0 128 53t47 141q0 76 -38 118.5t-111 42.5q-76 0 -126 -54.5t-50 -143.5q0 -72 39.5 -114.5t110.5 -42.5z" />
    <glyph glyph-name="colon" unicode=":" horiz-adv-x="211" 
d="M13 0l20 111h76l-20 -111h-76zM80 379l20 111h76l-20 -111h-76z" />
    <glyph glyph-name="semicolon" unicode=";" horiz-adv-x="265" 
d="M108 379l20 111h76l-20 -111h-76zM153 111l-121 -232h-61l106 232h76z" />
    <glyph glyph-name="less" unicode="&#x3c;" 
d="M63 295v57q226 117 396 208v-64q-42 -20 -117 -57t-148 -74.5t-75 -38.5v-3q6 -3 76 -39.5t146 -75t118 -57.5v-64q-170 91 -396 208z" />
    <glyph glyph-name="equal" unicode="=" 
d="M60 385v59h442v-59h-442zM60 204v59h442v-59h-442z" />
    <glyph glyph-name="greater" unicode="&#x3e;" 
d="M498 352v-57q-226 -117 -396 -208v64q42 20 118 58.5t145.5 74t76.5 39.5v3l-340 170v64q170 -91 396 -208z" />
    <glyph glyph-name="question" unicode="?" horiz-adv-x="507" 
d="M262 199h-68q12 65 37 105.5t77 79.5l34 27q92 72 92 151q0 46 -34.5 75t-95.5 29q-68 0 -109 -40t-48 -115h-73q8 98 72.5 158t166.5 60q94 0 145 -44t51 -116q0 -58 -28 -102t-79 -85l-29 -23q-55 -44 -77.5 -73.5t-33.5 -86.5zM154 0l19 104h76l-19 -104h-76z" />
    <glyph glyph-name="at" unicode="@" horiz-adv-x="835" 
d="M581 533h58l-51 -288q-8 -47 44 -47q48 0 84.5 63t36.5 146q0 125 -82 202t-221 77q-148 0 -241 -95t-93 -239q0 -149 95.5 -241.5t243.5 -92.5q81 0 136.5 22.5t108.5 64.5l39 -22q-115 -108 -289 -108t-281 103.5t-107 273.5q0 160 109 269.5t279 109.5q155 0 253 -87
t98 -223q0 -119 -56 -192.5t-139 -73.5q-66 0 -84 51q-44 -52 -124 -52q-71 0 -112.5 42.5t-41.5 121.5q0 87 54.5 155t142.5 68q89 0 129 -69zM446 493q-65 0 -101 -52t-36 -122q0 -58 27 -90t81 -32q69 0 104.5 52.5t35.5 124.5q0 119 -111 119z" />
    <glyph glyph-name="A" unicode="A" horiz-adv-x="674" 
d="M-49 0l419 715h86l163 -715h-74l-52 236h-331l-134 -236h-77zM404 656h-2q-124 -217 -167 -294l-40 -68h285l-16 77q-4 19 -27 124t-33 161z" />
    <glyph glyph-name="B" unicode="B" horiz-adv-x="638" 
d="M40 0l127 715h197q72 0 117 -10q120 -28 120 -140q0 -76 -41.5 -125t-102.5 -65q116 -34 116 -145q0 -146 -133 -202q-68 -28 -184 -28h-216zM173 337l-49 -276h167q83 0 127 27q73 42 73 136q0 60 -43.5 86.5t-128.5 26.5h-146zM229 654l-46 -258h141q93 0 143.5 40
t50.5 113q0 60 -43 82.5t-135 22.5h-111z" />
    <glyph glyph-name="C" unicode="C" horiz-adv-x="764" 
d="M647 206h73q-99 -220 -339 -220q-146 0 -236.5 83.5t-90.5 237.5q0 82 25.5 157t72.5 134.5t122 95t167 35.5q125 0 204.5 -59.5t106.5 -169.5h-73q-23 81 -85.5 125t-157.5 44q-98 0 -169 -52t-103 -130t-32 -171q0 -128 66 -199t187 -71q182 0 262 160z" />
    <glyph glyph-name="D" unicode="D" horiz-adv-x="718" 
d="M40 0l127 715h116q96 0 145 -8q120 -20 186.5 -87t66.5 -203q0 -166 -89 -277q-35 -45 -79 -74t-98 -43t-103.5 -18.5t-117.5 -4.5h-154zM230 654l-105 -593h116q122 0 202 41q162 85 162 313q0 163 -132 217q-54 22 -144 22h-99z" />
    <glyph glyph-name="E" unicode="E" horiz-adv-x="589" 
d="M40 0l127 715h442l-12 -63h-368l-44 -254h344l-11 -63h-344l-48 -272h375l-12 -63h-449z" />
    <glyph glyph-name="F" unicode="F" horiz-adv-x="584" 
d="M114 0h-74l127 715h436l-12 -63h-362l-44 -254h338l-11 -63h-338z" />
    <glyph glyph-name="G" unicode="G" horiz-adv-x="798" 
d="M366 -13q-135 0 -223.5 86t-88.5 237q0 81 25.5 155t72.5 133.5t122 95t167 35.5q125 0 204.5 -59.5t106.5 -169.5h-73q-23 81 -85.5 125t-157.5 44q-98 0 -169 -52t-103 -130t-32 -171q0 -125 64.5 -197.5t180.5 -72.5q68 0 122.5 22t89 59.5t55 80t30.5 90.5h-285
l11 63h352l-64 -361h-68l10 56l9 46l6 25q-95 -140 -279 -140z" />
    <glyph glyph-name="H" unicode="H" horiz-adv-x="703" 
d="M40 0l127 715h73l-57 -318h369l57 318h73l-127 -715h-73l60 335h-369l-60 -335h-73z" />
    <glyph glyph-name="I" unicode="I" horiz-adv-x="261" 
d="M40 0l127 715h73l-127 -715h-73z" />
    <glyph glyph-name="J" unicode="J" horiz-adv-x="471" 
d="M383 715h73l-92 -518q-20 -107 -64 -159t-138 -52q-161 0 -161 158q0 7 2 29h69q-1 -9 -1 -25q0 -105 97 -105q28 0 48.5 10.5t32.5 24.5t22.5 43t15 51t11.5 63z" />
    <glyph glyph-name="K" unicode="K" horiz-adv-x="574" 
d="M40 0l127 715h74l-58 -328q341 303 368 328h100l-386 -339q82 -120 261 -376h-92q-146 209 -254 371l-66 -371h-74z" />
    <glyph glyph-name="L" unicode="L" horiz-adv-x="527" 
d="M167 715h74l-115 -652h334l-12 -63h-408z" />
    <glyph glyph-name="M" unicode="M" horiz-adv-x="847" 
d="M40 0l127 715h123l61 -427q2 -14 28 -209h1q40 74 109 216l218 420h119l-127 -715h-72l64 362q42 226 58 299h-1q-33 -77 -145 -291l-195 -370h-87l-68 471q-21 147 -24 190h-1q-18 -117 -45 -260l-71 -401h-72z" />
    <glyph glyph-name="N" unicode="N" horiz-adv-x="730" 
d="M582 0h-108l-163 433q-69 176 -82 226h-2q-4 -20 -24.5 -145t-26.5 -157l-63 -357h-73l127 715h118l164 -439l73 -203h2q4 19 18 106t21 124l73 412h73z" />
    <glyph glyph-name="O" unicode="O" horiz-adv-x="810" 
d="M443 729q148 0 239.5 -84t91.5 -231q0 -185 -107 -306.5t-286 -121.5q-145 0 -236 84.5t-91 236.5q0 114 43.5 208.5t133.5 154t212 59.5zM438 669q-98 0 -169.5 -52t-104 -130t-32.5 -171q0 -128 66 -199t187 -71q77 0 137.5 30.5t98 82.5t56.5 117t19 137
q0 117 -70.5 186.5t-187.5 69.5z" />
    <glyph glyph-name="P" unicode="P" horiz-adv-x="581" 
d="M40 0l127 715h156q121 0 180 -31q79 -42 79 -139q0 -62 -27 -115.5t-79 -85.5q-63 -41 -205 -41h-103l-54 -303h-74zM230 654l-51 -290h112q214 0 214 171q0 119 -177 119h-98z" />
    <glyph glyph-name="Q" unicode="Q" horiz-adv-x="810" 
d="M443 729q148 0 239.5 -84t91.5 -231q0 -118 -45 -213t-128 -151l84 -100h-89l-57 66q-74 -30 -158 -30q-145 0 -236 84.5t-91 236.5q0 114 43.5 208.5t133.5 154t212 59.5zM366 220h93l102 -122q66 49 100.5 132.5t34.5 182.5q0 117 -70.5 186.5t-187.5 69.5
q-98 0 -169.5 -52t-104 -130t-32.5 -171q0 -128 66 -199t187 -71q63 0 113 18z" />
    <glyph glyph-name="R" unicode="R" horiz-adv-x="598" 
d="M40 0l127 715h197q102 0 157 -32q71 -44 71 -135q0 -98 -59 -159.5t-163 -77.5l139 -311h-86l-133 305h-122l-54 -305h-74zM229 653l-50 -286h121q107 0 157 42q56 43 56 125q0 64 -44.5 91.5t-129.5 27.5h-110z" />
    <glyph glyph-name="S" unicode="S" horiz-adv-x="600" 
d="M19 204h73q7 -77 57 -117.5t133 -40.5q76 0 126 34t50 105q0 29 -10.5 51.5t-33 39t-40.5 26t-51 23.5q-9 4 -14 6l-40 17q-85 36 -126 76.5t-41 113.5q0 90 63 140.5t174 50.5q113 0 173.5 -52t65.5 -147h-70q-5 68 -51 104.5t-122 36.5q-75 0 -115 -31t-40 -88
q0 -52 32 -82t102 -59l46 -20q91 -39 134.5 -79t43.5 -108q0 -101 -71.5 -159t-190.5 -58q-113 0 -181 54.5t-76 162.5z" />
    <glyph glyph-name="T" unicode="T" horiz-adv-x="537" 
d="M177 0l115 652h-206l12 63h485l-12 -63h-206l-115 -652h-73z" />
    <glyph glyph-name="U" unicode="U" horiz-adv-x="684" 
d="M297 -14q-109 0 -167 50t-58 145q0 37 9 93l78 441h73l-79 -446q-7 -44 -7 -73q0 -69 39 -110t123 -41q97 0 144 58.5t69 180.5l76 431h73l-80 -449q-15 -90 -48 -152q-71 -128 -245 -128z" />
    <glyph glyph-name="V" unicode="V" horiz-adv-x="657" 
d="M278 62h2q18 35 59.5 110.5t59.5 109.5l231 433h83l-393 -715h-101q-24 109 -76.5 401.5t-56.5 313.5h78l76 -439q4 -23 18 -96.5t20 -117.5z" />
    <glyph glyph-name="W" unicode="W" horiz-adv-x="876" 
d="M917 715l-284 -715h-113l-15 391q-9 193 -9 263h-2q-12 -32 -55 -137t-62 -155l-147 -362h-112l-24 715h80l6 -440q0 -30 2.5 -100t0.5 -117h3q33 95 84 213l180 444h113l17 -434q1 -29 3 -74.5t3.5 -80.5t1.5 -67h2q14 37 40.5 109.5t42.5 114.5l166 432h78z" />
    <glyph glyph-name="X" unicode="X" horiz-adv-x="609" 
d="M39 0h-88q58 65 171 194.5t150 171.5q-18 35 -84.5 160.5t-98.5 188.5h84q36 -74 67.5 -135.5t53 -103.5t28.5 -56q106 122 250 295h90q-163 -183 -306 -350l198 -365h-87l-163 310q-84 -99 -163 -190t-102 -120z" />
    <glyph glyph-name="Y" unicode="Y" horiz-adv-x="593" 
d="M200 0l49 275l-171 440h82q21 -58 71 -188t68 -180q42 57 135.5 183t134.5 185h86l-332 -440l-49 -275h-74z" />
    <glyph glyph-name="Z" unicode="Z" horiz-adv-x="572" 
d="M-19 0l11 60q19 20 115 131l321 368q14 16 79 92h-409l12 64h496l-11 -60q-6 -7 -41 -50t-66 -78l-307 -350q-13 -14 -34 -38t-41 -46.5t-25 -28.5h413l-12 -64h-501z" />
    <glyph glyph-name="bracketleft" unicode="[" horiz-adv-x="302" 
d="M202 -61l-9 -52h-170l145 828h170l-9 -52h-103l-127 -724h103z" />
    <glyph glyph-name="backslash" unicode="\" horiz-adv-x="461" 
d="M162 715l202 -820h-68l-201 820h67z" />
    <glyph glyph-name="bracketright" unicode="]" horiz-adv-x="301" 
d="M-38 -113l9 52h102l127 724h-103l9 52h170l-145 -828h-169z" />
    <glyph glyph-name="asciicircum" unicode="^" 
d="M253 683h57q99 -191 208 -395h-64q-20 42 -58 117.5t-74 146t-39 75.5h-3q-3 -7 -38.5 -76.5t-74 -145t-58.5 -117.5h-63q74 138 207 395z" />
    <glyph glyph-name="underscore" unicode="_" horiz-adv-x="611" 
d="M-12 -142l11 59h476l-11 -59h-476z" />
    <glyph glyph-name="grave" unicode="`" horiz-adv-x="429" 
d="M232 596l-142 119h102l116 -119h-76z" />
    <glyph glyph-name="a" unicode="a" horiz-adv-x="549" 
d="M147 366h-73q14 79 74.5 126t154.5 47q181 0 181 -156q0 -31 -21 -150l-22 -124q-10 -61 -10 -91q0 -4 0.5 -9t0.5 -9h-67v13q0 33 8 73q-69 -96 -202 -96q-75 0 -118 33.5t-43 93.5q0 144 253 179q87 14 146 18q6 30 6 58q0 110 -123 110q-118 0 -145 -116zM396 233
q5 26 6 29q-82 -9 -138 -19q-92 -18 -124 -35q-52 -29 -52 -82q0 -42 29 -63.5t80 -21.5q79 0 130.5 49t68.5 143z" />
    <glyph glyph-name="b" unicode="b" horiz-adv-x="622" 
d="M24 0l127 715h72l-27 -149q-3 -14 -10.5 -55t-11.5 -62q60 90 182 90q96 0 156 -63t60 -169q0 -138 -77 -229t-196 -91q-72 0 -120 32t-68 80l-18 -99h-69zM294 45q92 0 146.5 72.5t54.5 180.5q0 82 -41.5 132.5t-120.5 50.5q-96 0 -147 -76.5t-51 -180.5q0 -83 40 -131
t119 -48z" />
    <glyph glyph-name="c" unicode="c" horiz-adv-x="589" 
d="M462 167h71q-29 -81 -97 -130.5t-164 -49.5q-110 0 -173.5 63.5t-63.5 173.5q0 134 78 224.5t210 90.5q97 0 156 -50t74 -136h-72q-33 129 -162 129q-96 0 -152.5 -74t-56.5 -181q0 -86 45 -134.5t127 -48.5q123 0 180 123z" />
    <glyph glyph-name="d" unicode="d" horiz-adv-x="622" 
d="M489 0h-66l14 76q-24 -36 -71 -63t-115 -27q-96 0 -156 63t-60 169q0 138 77 229t196 91q70 0 119.5 -31.5t68.5 -78.5l5 37q7 52 14 88l29 162h72zM310 480q-91 0 -144.5 -72.5t-53.5 -180.5q0 -82 41.5 -132.5t120.5 -50.5q96 0 147 77t51 182q0 81 -41.5 129
t-120.5 48z" />
    <glyph glyph-name="e" unicode="e" horiz-adv-x="594" 
d="M455 149h73q-32 -74 -98 -118t-158 -44q-109 0 -173 63t-64 176q0 132 77 222.5t208 90.5q114 0 172.5 -68t58.5 -186q0 -20 -1 -32h-443v-26q0 -85 46 -133.5t128 -48.5q122 0 174 104zM316 483q-79 0 -130 -47.5t-70 -126.5h362q-4 88 -46 131t-116 43z" />
    <glyph glyph-name="f" unicode="f" horiz-adv-x="277" 
d="M332 717l-9 -56q-14 2 -24 2q-34 0 -53 -17t-27 -58l-11 -63h91l-10 -53h-91l-83 -472h-72l83 472h-69l10 53h69l8 48q13 72 47 109.5t106 37.5q19 0 35 -3z" />
    <glyph glyph-name="g" unicode="g" horiz-adv-x="626" 
d="M439 80q1 5 3 17.5t4 16.5h-3q-63 -89 -187 -89q-94 0 -155 58t-61 156q0 131 74 215t195 84q71 0 121.5 -31t69.5 -76l17 94h69l-76 -433q-26 -139 -91 -210t-191 -71q-103 0 -158.5 48.5t-59.5 123.5h74q4 -46 40.5 -81t108.5 -35q170 0 206 213zM313 480
q-91 0 -143.5 -64t-52.5 -163q0 -77 42 -124t121 -47q97 0 147 72t50 164q0 74 -42.5 118t-121.5 44z" />
    <glyph glyph-name="h" unicode="h" horiz-adv-x="581" 
d="M25 0l126 715h72l-22 -125q-10 -60 -26 -143q61 92 176 92q79 0 122 -41.5t43 -116.5q0 -33 -7 -73l-55 -308h-72l54 302q6 31 6 60q0 120 -114 120q-69 0 -115.5 -46.5t-59.5 -116.5l-56 -319h-72z" />
    <glyph glyph-name="i" unicode="i" horiz-adv-x="230" 
d="M206 604h-76l20 111h76zM118 525h72l-93 -525h-72z" />
    <glyph glyph-name="j" unicode="j" horiz-adv-x="229" 
d="M117 525h72l-100 -570q-15 -82 -48.5 -117t-108.5 -35q-26 0 -38 4l10 58q2 -1 7 -1q3 -1 17 -1q39 0 58.5 16t28.5 64zM205 604h-76l20 111h76z" />
    <glyph glyph-name="k" unicode="k" horiz-adv-x="492" 
d="M432 0h-92l-120 165l-77 106l-48 -271h-71l127 715h71l-75 -422l103 90q33 29 92 81t69 61h99q-134 -116 -289 -245q12 -17 211 -280z" />
    <glyph glyph-name="l" unicode="l" horiz-adv-x="238" 
d="M29 0l127 715h72l-127 -715h-72z" />
    <glyph glyph-name="m" unicode="m" horiz-adv-x="921" 
d="M722 0l54 302q6 31 6 60q0 120 -108 120q-67 0 -113 -47t-59 -116l-56 -319h-72l53 302q6 31 6 60q0 120 -108 120q-67 0 -113 -47t-59 -116l-56 -319h-72l78 445q11 58 14 80h72l-14 -78q61 92 173 92q122 0 152 -105h1q27 41 75.5 73t117.5 32q78 0 120 -41.5
t42 -116.5q0 -33 -7 -73l-55 -308h-72z" />
    <glyph glyph-name="n" unicode="n" horiz-adv-x="581" 
d="M25 0l78 445q11 58 14 80h72l-14 -78q61 92 176 92q79 0 122 -41.5t43 -116.5q0 -33 -7 -73l-55 -308h-72l54 302q6 31 6 60q0 120 -114 120q-69 0 -115.5 -46.5t-59.5 -116.5l-56 -319h-72z" />
    <glyph glyph-name="o" unicode="o" horiz-adv-x="623" 
d="M283 44q96 0 154.5 71.5t58.5 178.5q0 85 -46.5 136.5t-128.5 51.5q-98 0 -154.5 -74t-56.5 -181q0 -86 45 -134.5t128 -48.5zM278 -13q-114 0 -178.5 63t-64.5 174q0 134 78.5 224.5t214.5 90.5q113 0 179 -65t66 -174q0 -134 -80.5 -223.5t-214.5 -89.5z" />
    <glyph glyph-name="p" unicode="p" horiz-adv-x="623" 
d="M118 525h71l-15 -77q61 91 183 91q96 0 156 -63t60 -169q0 -138 -77 -229t-196 -91q-72 0 -120 32t-68 81q-3 -17 -9.5 -59t-12.5 -77l-26 -144h-72zM295 45q92 0 146.5 72.5t54.5 180.5q0 82 -41.5 132.5t-120.5 50.5q-96 0 -147 -76.5t-51 -180.5q0 -83 40 -131
t119 -48z" />
    <glyph glyph-name="q" unicode="q" horiz-adv-x="622" 
d="M456 -180h-71l22 121q16 88 28 132q-58 -87 -184 -87q-96 0 -156 63t-60 169q0 138 77 229t196 91q70 0 119.5 -31.5t68.5 -78.5l4 29l11 68h71zM310 480q-91 0 -144.5 -72.5t-53.5 -180.5q0 -82 41.5 -132.5t120.5 -50.5q96 0 147 77t51 182q0 81 -41.5 129t-120.5 48z
" />
    <glyph glyph-name="r" unicode="r" horiz-adv-x="311" 
d="M186 525l-15 -84q19 41 60.5 68.5t88.5 27.5q11 0 16 -1l-12 -69q-12 3 -29 3q-114 0 -145 -173l-53 -297h-72l79 446q12 75 13 79h69z" />
    <glyph glyph-name="s" unicode="s" horiz-adv-x="495" 
d="M9 159h69q5 -54 41 -85.5t101 -31.5q63 0 98 25t35 71q0 37 -26 58t-78 37l-51 17q-66 23 -98.5 53t-32.5 86q0 67 53.5 108.5t140.5 41.5q90 0 142 -38t53 -114h-67q-12 97 -131 97q-56 0 -87.5 -22.5t-31.5 -61.5q0 -35 22.5 -55t75.5 -38l50 -17q67 -21 102.5 -51
t35.5 -87q0 -77 -55.5 -121t-151.5 -44q-94 0 -147.5 43.5t-61.5 128.5z" />
    <glyph glyph-name="t" unicode="t" horiz-adv-x="287" 
d="M124 472h-81l9 53h81l25 142h72l-25 -142h100l-9 -53h-100l-61 -350q-3 -15 -3 -27q0 -26 15 -37t48 -11q8 0 16 1l-10 -56q-14 -2 -27 -2q-117 0 -117 88q0 16 5 44z" />
    <glyph glyph-name="u" unicode="u" horiz-adv-x="578" 
d="M538 525l-79 -445q-6 -31 -13 -80h-72l14 78q-61 -92 -174 -92q-79 0 -121.5 41.5t-42.5 116.5q0 33 7 73l55 308h72l-54 -302q-6 -31 -6 -60q0 -120 113 -120q69 0 114.5 46.5t58.5 116.5l55 319h73z" />
    <glyph glyph-name="v" unicode="v" horiz-adv-x="515" 
d="M239 0h-80q-78 406 -103 525h77l48 -275l28 -183h2l103 197l141 261h79q-112 -194 -295 -525z" />
    <glyph glyph-name="w" unicode="w" horiz-adv-x="799" 
d="M223 0h-92l-26 199q-8 65 -24 184.5t-19 141.5h72l30 -270q2 -19 10.5 -85t12.5 -110h2q18 43 95 217l109 248h94l16 -236q3 -51 8 -124.5t7 -103.5h2q39 87 114 240l109 224h69q-18 -36 -74.5 -151t-87.5 -175l-99 -199h-92l-15 202l-15 258h-3q-79 -189 -113 -262z" />
    <glyph glyph-name="x" unicode="x" horiz-adv-x="495" 
d="M45 0h-83q123 134 240 267l-144 258h77q8 -18 112 -211q127 145 181 211h84q-39 -42 -134 -148.5t-99 -110.5q19 -35 72.5 -130.5t75.5 -135.5h-76q-17 31 -59.5 110t-58.5 109q-21 -25 -93 -109.5t-95 -109.5z" />
    <glyph glyph-name="y" unicode="y" horiz-adv-x="522" 
d="M136 -180h-75l109 181q-17 86 -59.5 269t-57.5 255h79q16 -81 47.5 -234.5t41.5 -205.5h1q28 52 125 228.5t116 211.5h78q-299 -524 -405 -705z" />
    <glyph glyph-name="z" unicode="z" horiz-adv-x="496" 
d="M-20 0l10 55l289 296q18 19 43.5 44.5t43 43.5t24.5 26q-18 0 -79.5 -0.5t-81.5 -0.5h-156l11 61h414l-10 -55l-285 -286l-124 -124q18 0 76 0.5t81 0.5h176l-11 -61h-421z" />
    <glyph glyph-name="braceleft" unicode="{" horiz-adv-x="278" 
d="M35 288l5 29q39 11 56 31t26 76l30 168q12 74 35 99t87 25q4 0 11.5 -0.5t9.5 -0.5h8l-10 -53q-38 0 -52.5 -13t-22.5 -61l-23 -134q-14 -83 -30.5 -110.5t-63.5 -41.5l-1 -2q29 -13 40 -27.5t11 -42.5q0 -31 -10 -82l-24 -136q-4 -17 -4 -37q0 -23 11.5 -30.5t40.5 -9.5
l-9 -49q-3 -1 -8 -1h-20q-48 0 -66.5 14.5t-18.5 49.5q0 26 7 64l29 164q5 33 5 48q0 28 -11 41t-38 22z" />
    <glyph glyph-name="bar" unicode="|" horiz-adv-x="260" 
d="M32 -62l139 793h67l-139 -793h-67z" />
    <glyph glyph-name="braceright" unicode="}" horiz-adv-x="277" 
d="M240 308l-5 -29q-39 -11 -56 -31t-26 -76l-30 -163q-12 -74 -35 -99t-87 -25h-21q-5 0 -8 1l10 51q38 0 51.5 13t23.5 61l23 132q15 83 31 110t63 42l1 2q-29 13 -40 27.5t-11 42.5q0 31 10 82l24 140q4 17 4 37q0 23 -11.5 30.5t-40.5 9.5l9 49h8q2 0 8.5 0.5t11.5 0.5
q48 0 66.5 -14.5t18.5 -49.5q0 -26 -7 -64l-29 -169q-5 -33 -5 -48q0 -28 11 -41t38 -22z" />
    <glyph glyph-name="asciitilde" unicode="~" 
d="M488 360l44 -28q-60 -101 -145 -101q-37 0 -103 31l-42 20q-56 27 -83 27q-55 0 -90 -67l-42 30q59 94 138 94q43 0 96 -27l52 -26q52 -25 78 -25q58 0 97 72z" />
    <glyph glyph-name="uni00A0" unicode="&#xa0;" horiz-adv-x="262" 
 />
    <glyph glyph-name="exclamdown" unicode="&#xa1;" horiz-adv-x="243" 
d="M105 337h44q-48 -353 -60 -424l-21 -109h-72l20 109q12 72 27 143.5t35 161t27 119.5zM199 525l-20 -105h-76l19 105h77z" />
    <glyph glyph-name="cent" unicode="&#xa2;" 
d="M448 167h71q-29 -79 -95 -128.5t-159 -51.5l-12 -69h-66l13 74q-85 16 -132 76.5t-47 155.5q0 130 74.5 220t201.5 94l15 84h66l-16 -88q74 -12 119 -59.5t58 -121.5h-72q-27 103 -115 124l-77 -433q119 4 173 123zM96 227q0 -69 29.5 -114.5t84.5 -61.5l77 430
q-89 -8 -140 -80.5t-51 -173.5z" />
    <glyph glyph-name="sterling" unicode="&#xa3;" 
d="M456 60l-11 -60h-438l9 54q74 10 116 61.5t42 130.5q0 44 -15 95h-106l10 56h83q-12 53 -12 98q0 98 62.5 166t170.5 68q95 0 144.5 -51t45.5 -137h-69q0 61 -34 94.5t-99 33.5q-71 0 -108.5 -47t-37.5 -115q0 -43 14 -107h173l-11 -59h-151q11 -55 11 -92
q0 -122 -109 -190q16 1 162 1h158z" />
    <glyph glyph-name="currency" unicode="&#xa4;" 
d="M486 117l-47 47q-64 -50 -148 -50q-80 0 -149 50l-48 -48l-48 48l49 49q-49 65 -49 146q0 84 50 148l-50 50l48 48l50 -50q65 49 147 49q81 0 146 -49l49 49l48 -48l-49 -49q51 -65 51 -148q0 -82 -49 -147l47 -47zM100 359q0 -79 56 -135t135 -56t135 56t56 135t-56 135
t-135 56t-135 -56t-56 -135z" />
    <glyph glyph-name="yen" unicode="&#xa5;" 
d="M9 220l9 55h215l-53 135h-138l9 55h108l-97 250h82q21 -58 71 -188t68 -180q42 57 135.5 183t134.5 185h86l-189 -250h105l-9 -55h-137l-102 -135h215l-10 -55h-215l-39 -220h-74l39 220h-214z" />
    <glyph glyph-name="brokenbar" unicode="&#xa6;" horiz-adv-x="214" 
d="M95 428l53 303h67l-53 -303h-67zM9 -62l53 303h67l-53 -303h-67z" />
    <glyph glyph-name="section" unicode="&#xa7;" 
d="M296 495l83 -38q57 -25 88.5 -56.5t31.5 -81.5q0 -60 -37.5 -101t-91.5 -54q23 -19 31.5 -26.5t20.5 -31t12 -51.5q0 -78 -57.5 -121t-153.5 -43q-85 0 -141 43t-64 129h68q5 -55 45 -86t102 -31t95.5 25.5t33.5 72.5q0 32 -20.5 54.5t-65.5 44.5l-91 46q-63 32 -89.5 64
t-26.5 82t36 87.5t90 49.5q-53 41 -53 107t54.5 106.5t140.5 40.5q84 0 139 -37.5t55 -115.5h-68q-3 47 -39.5 72.5t-92.5 25.5t-87 -22t-31 -61q0 -35 19.5 -54t63.5 -39zM218 253l102 -53q45 9 76 36t31 71q0 34 -26.5 56.5t-83.5 46.5l-66 28q-44 -4 -76.5 -27.5
t-32.5 -65.5q0 -30 16 -50.5t60 -41.5z" />
    <glyph glyph-name="dieresis" unicode="&#xa8;" horiz-adv-x="491" 
d="M152 616l15 80h79l-15 -80h-79zM305 616l15 80h78l-15 -80h-78z" />
    <glyph glyph-name="copyright" unicode="&#xa9;" horiz-adv-x="860" 
d="M586 275h55q-24 -67 -76.5 -104t-126.5 -37q-95 0 -154.5 62t-59.5 162t60.5 162t156.5 62q154 0 199 -146h-55q-33 101 -144 101q-75 0 -118 -49.5t-43 -128.5q0 -80 43.5 -130t117.5 -50q102 0 145 96zM816 360q0 -158 -110 -267.5t-268 -109.5q-156 0 -265.5 110
t-109.5 267t109.5 266.5t267.5 109.5q156 0 266 -110t110 -266zM771 360q0 140 -97 237.5t-234 97.5q-140 0 -236 -97t-96 -238t95.5 -239t235.5 -98q138 0 235 98t97 239z" />
    <glyph glyph-name="ordfeminine" unicode="&#xaa;" horiz-adv-x="450" 
d="M172 453h-57q12 59 57 94.5t115 35.5q137 0 137 -117q0 -39 -12 -92l-4 -20q-3 -15 -8.5 -46t-8.5 -47q-7 -41 -7 -67v-7q0 -1 0.5 -3.5t0.5 -4.5h-53v11q0 20 5 50q-53 -68 -148 -68q-57 0 -89.5 25t-32.5 70q0 105 190 135q12 1 52 6.5t56 7.5q5 25 5 42q0 81 -91 81
q-85 0 -107 -86zM356 354q0 2 1 5q1 4 1 5l2 11l-21 -3q-54 -6 -81 -12q-26 -4 -43.5 -8t-40 -13.5t-34.5 -25.5t-12 -39q0 -30 21.5 -46t58.5 -16q58 0 96.5 36t51.5 106z" />
    <glyph glyph-name="guillemotleft" unicode="&#xab;" horiz-adv-x="475" 
d="M257 473l-132 -183l66 -192h-61l-78 196l140 179h65zM444 473l-127 -183l61 -192h-59l-78 196l140 179h63z" />
    <glyph glyph-name="logicalnot" unicode="&#xac;" 
d="M25 403v57h503v-323h-59v266h-444z" />
    <glyph glyph-name="uni00AD" unicode="&#xad;" horiz-adv-x="368" 
d="M61 333l11 61h272l-11 -61h-272z" />
    <glyph glyph-name="registered" unicode="&#xae;" horiz-adv-x="564" 
d="M233 367v263h76q50 0 70 -14q31 -21 31 -62q0 -56 -61 -75l68 -112h-43l-62 107h-45v-107h-34zM267 601v-95h42q29 0 47 12q16 10 16 36q0 27 -21 39q-19 8 -42 8h-42zM548 500q0 -98 -68 -166t-166 -68q-96 0 -164.5 68.5t-68.5 165.5t68 165t166 68q96 0 164.5 -68.5
t68.5 -164.5zM513 500q0 82 -59 141t-139 59q-83 0 -140.5 -59t-57.5 -141q0 -83 57.5 -142t139.5 -59q81 0 140 59t59 142z" />
    <glyph glyph-name="macron" unicode="&#xaf;" horiz-adv-x="428" 
d="M93 630l8 51h244l-8 -51h-244z" />
    <glyph glyph-name="degree" unicode="&#xb0;" horiz-adv-x="429" 
d="M258 400q-70 0 -118.5 47.5t-48.5 116.5q0 70 48.5 117.5t118.5 47.5t118 -47.5t48 -117.5t-47.5 -117t-118.5 -47zM141 564q0 -48 34.5 -82t82.5 -34q49 0 82.5 33t33.5 83q0 48 -34 82.5t-82 34.5t-82.5 -34t-34.5 -83z" />
    <glyph glyph-name="plusminus" unicode="&#xb1;" 
d="M44 0v59h442v-59h-442zM43 306v57h191v188h59v-188h192v-57h-192v-188h-59v188h-191z" />
    <glyph glyph-name="twosuperior" unicode="&#xb2;" horiz-adv-x="416" 
d="M346 284h-284l8 44l50 35q51 37 95 71q31 24 45.5 36t38.5 36.5t35 49.5t11 52q0 35 -20 55.5t-57 20.5q-83 0 -102 -105h-50q9 66 49.5 106t107.5 40q62 0 94 -29t32 -79q0 -35 -14 -67t-43 -62t-53.5 -51t-65.5 -50q-5 -5 -14.5 -10.5t-30.5 -18.5t-45 -29h221z" />
    <glyph glyph-name="threesuperior" unicode="&#xb3;" horiz-adv-x="393" 
d="M65 407h49q1 -44 26 -68.5t62 -24.5q48 0 76.5 28t28.5 76q0 42 -25.5 62t-68.5 20h-15l7 39q118 6 118 86q0 29 -19 45t-50 16q-70 0 -88 -73h-49q9 50 47.5 82t96.5 32q53 0 83 -25t30 -66q0 -44 -25.5 -74t-68.5 -39v-2q34 -9 56.5 -36t22.5 -65q0 -66 -43.5 -105.5
t-115.5 -39.5q-62 0 -98 36t-37 96z" />
    <glyph glyph-name="acute" unicode="&#xb4;" horiz-adv-x="427" 
d="M360 715l-142 -119h-76l116 119h102z" />
    <glyph glyph-name="mu" unicode="&#xb5;" horiz-adv-x="584" 
d="M544 525l-79 -445q-6 -31 -13 -80h-72l14 78q-61 -92 -174 -92q-74 0 -118 39l-37 -205h-72l125 705h72l-54 -302q-6 -31 -6 -60q0 -120 113 -120q69 0 114.5 46.5t58.5 116.5l55 319h73z" />
    <glyph glyph-name="paragraph" unicode="&#xb6;" horiz-adv-x="575" 
d="M579 715l-9 -53h-53l-136 -775h-63l136 775h-125l-136 -775h-63l95 540q-72 0 -108.5 35.5t-36.5 94.5q0 96 89 139q37 19 120 19h290z" />
    <glyph glyph-name="periodcentered" unicode="&#xb7;" horiz-adv-x="213" 
d="M60 261l19 111h76l-19 -111h-76z" />
    <glyph glyph-name="cedilla" unicode="&#xb8;" horiz-adv-x="369" 
d="M124 -163l93 115h69l-76 -115h-86z" />
    <glyph glyph-name="onesuperior" unicode="&#xb9;" horiz-adv-x="253" 
d="M184 612h-100l6 33q57 0 83.5 16t40.5 54h36l-75 -431h-48z" />
    <glyph glyph-name="ordmasculine" unicode="&#xba;" horiz-adv-x="497" 
d="M265 214q71 0 115 52.5t44 132.5q0 63 -34.5 101t-95.5 38q-72 0 -114.5 -55t-42.5 -134q0 -63 33.5 -99t94.5 -36zM261 169q-86 0 -134 47t-48 131q0 102 59 169t161 67q85 0 135 -49t50 -130q0 -102 -60.5 -168.5t-162.5 -66.5z" />
    <glyph glyph-name="guillemotright" unicode="&#xbb;" horiz-adv-x="474" 
d="M210 98l132 183l-66 192h61l78 -196l-140 -179h-65zM23 98l127 183l-61 192h59l78 -196l-140 -179h-63z" />
    <glyph glyph-name="onequarter" unicode="&#xbc;" horiz-adv-x="744" 
d="M561 94h-217l7 39q143 164 260 303h59l-52 -297h61l-8 -45h-61l-17 -94h-49zM569 139l17 98q3 13 15 75t14 72h-1l-96 -116l-54 -64q-10 -11 -29.5 -32.5t-27.5 -32.5h162zM118 0l400 715h50l-402 -715h-48zM187 612h-100l6 33q57 0 82.5 16t42.5 54h36l-76 -431h-48z
" />
    <glyph glyph-name="onehalf" unicode="&#xbd;" horiz-adv-x="780" 
d="M187 612h-100l6 33q57 0 82.5 16t42.5 54h36l-76 -431h-48zM682 0h-284l8 44l50 37l51 39t44 34q31 24 45.5 36t38.5 36.5t35 49.5t11 52q0 35 -20 55.5t-57 20.5q-83 0 -102 -105h-50q9 66 49.5 106t107.5 40q62 0 94 -29t32 -79q0 -35 -14 -67t-43 -62t-53.5 -51
t-65.5 -50q-6 -5 -15.5 -11.5t-32 -20.5t-45.5 -30h224zM118 0l400 715h50l-402 -715h-48z" />
    <glyph glyph-name="threequarters" unicode="&#xbe;" horiz-adv-x="842" 
d="M56 407h49q1 -44 26 -68.5t62 -24.5q48 0 76.5 28t28.5 76q0 42 -25.5 62t-68.5 20h-15l7 39q118 6 118 86q0 29 -19 45t-50 16q-70 0 -88 -73h-49q9 50 47.5 82t96.5 32q53 0 83 -25t30 -66q0 -44 -25.5 -74t-68.5 -39v-2q34 -9 56.5 -36t22.5 -65q0 -66 -43.5 -105.5
t-115.5 -39.5q-62 0 -98 36t-37 96zM660 94h-217l7 39q143 164 260 303h59l-52 -297h61l-8 -45h-61l-17 -94h-49zM668 139l17 98q3 13 15 75t14 72h-1l-96 -116l-54 -64q-10 -11 -29.5 -32.5t-27.5 -32.5h162zM217 0l400 715h50l-402 -715h-48z" />
    <glyph glyph-name="questiondown" unicode="&#xbf;" horiz-adv-x="496" 
d="M222 326h68q-12 -65 -37 -105.5t-77 -79.5l-34 -27q-92 -72 -92 -151q0 -46 34.5 -75t95.5 -29q68 0 109 40t48 115h73q-8 -98 -72.5 -158t-166.5 -60q-94 0 -145 44t-51 116q0 58 28 102t79 85l29 23q55 44 77.5 73.5t33.5 86.5zM330 525l-19 -104h-76l19 104h76z" />
    <glyph glyph-name="Agrave" unicode="&#xc0;" horiz-adv-x="674" 
d="M-49 0l419 715h86l163 -715h-74l-52 236h-331l-134 -236h-77zM404 656h-2q-124 -217 -167 -294l-40 -68h285l-16 77q-4 19 -27 124t-33 161zM385 761l-137 114h102l111 -114h-76z" />
    <glyph glyph-name="Aacute" unicode="&#xc1;" horiz-adv-x="674" 
d="M-49 0l419 715h86l163 -715h-74l-52 236h-331l-134 -236h-77zM404 656h-2q-124 -217 -167 -294l-40 -68h285l-16 77q-4 19 -27 124t-33 161zM582 875l-137 -114h-76l111 114h102z" />
    <glyph glyph-name="Acircumflex" unicode="&#xc2;" horiz-adv-x="674" 
d="M-49 0l419 715h86l163 -715h-74l-52 236h-331l-134 -236h-77zM404 656h-2q-124 -217 -167 -294l-40 -68h285l-16 77q-4 19 -27 124t-33 161zM394 875h77q10 -15 36.5 -54.5t40.5 -59.5h-65l-56 67l-79 -67h-72q15 14 118 114z" />
    <glyph glyph-name="Atilde" unicode="&#xc3;" horiz-adv-x="674" 
d="M-49 0l419 715h86l163 -715h-74l-52 236h-331l-134 -236h-77zM404 656h-2q-124 -217 -167 -294l-40 -68h285l-16 77q-4 19 -27 124t-33 161zM319 765h-50q3 46 23 70t54 24q26 0 75 -20q43 -18 57 -18q31 0 37 46h49q-6 -97 -80 -97q-26 0 -66 17q-46 21 -63 21
q-31 0 -36 -43z" />
    <glyph glyph-name="Adieresis" unicode="&#xc4;" horiz-adv-x="674" 
d="M-49 0l419 715h86l163 -715h-74l-52 236h-331l-134 -236h-77zM404 656h-2q-124 -217 -167 -294l-40 -68h285l-16 77q-4 19 -27 124t-33 161zM304 766l15 80h79l-15 -80h-79zM457 766l15 80h78l-15 -80h-78z" />
    <glyph glyph-name="Aring" unicode="&#xc5;" horiz-adv-x="674" 
d="M-49 0l419 715h86l163 -715h-74l-52 236h-331l-134 -236h-77zM404 656h-2q-124 -217 -167 -294l-40 -68h285l-16 77q-4 19 -27 124t-33 161zM425 751q-36 0 -60 24.5t-24 61.5q0 35 24.5 59.5t60.5 24.5t60.5 -24.5t24.5 -59.5q0 -37 -24.5 -61.5t-61.5 -24.5zM376 837
q0 -22 14 -37t35 -15q22 0 36 14.5t14 37.5q0 21 -14.5 35.5t-35.5 14.5t-35 -14.5t-14 -35.5z" />
    <glyph glyph-name="AE" unicode="&#xc6;" horiz-adv-x="881" 
d="M903 715l-12 -63h-342l-38 -254h312l-11 -63h-310l-43 -273h335l-11 -62h-406l33 209h-245l-149 -209h-76l514 715h449zM417 270l30 188q7 53 19 114.5t15 82.5h-5q-4 -6 -44.5 -66t-62.5 -92l-160 -227h208z" />
    <glyph glyph-name="Ccedilla" unicode="&#xc7;" horiz-adv-x="764" 
d="M647 206h73q-99 -220 -339 -220q-146 0 -236.5 83.5t-90.5 237.5q0 82 25.5 157t72.5 134.5t122 95t167 35.5q125 0 204.5 -59.5t106.5 -169.5h-73q-23 81 -85.5 125t-157.5 44q-98 0 -169 -52t-103 -130t-32 -171q0 -128 66 -199t187 -71q182 0 262 160zM244 -163
l93 115h72l-76 -115h-89z" />
    <glyph glyph-name="Egrave" unicode="&#xc8;" horiz-adv-x="589" 
d="M40 0l127 715h442l-12 -63h-368l-44 -254h344l-11 -63h-344l-48 -272h375l-12 -63h-449zM380 761l-137 114h102l111 -114h-76z" />
    <glyph glyph-name="Eacute" unicode="&#xc9;" horiz-adv-x="589" 
d="M40 0l127 715h442l-12 -63h-368l-44 -254h344l-11 -63h-344l-48 -272h375l-12 -63h-449zM540 875l-137 -114h-76l111 114h102z" />
    <glyph glyph-name="Ecircumflex" unicode="&#xca;" horiz-adv-x="589" 
d="M40 0l127 715h442l-12 -63h-368l-44 -254h344l-11 -63h-344l-48 -272h375l-12 -63h-449zM375 875h77q10 -15 36.5 -54.5t40.5 -59.5h-65l-56 67l-79 -67h-72q15 14 118 114z" />
    <glyph glyph-name="Edieresis" unicode="&#xcb;" horiz-adv-x="589" 
d="M40 0l127 715h442l-12 -63h-368l-44 -254h344l-11 -63h-344l-48 -272h375l-12 -63h-449zM274 766l15 80h79l-15 -80h-79zM427 766l15 80h78l-15 -80h-78z" />
    <glyph glyph-name="Igrave" unicode="&#xcc;" horiz-adv-x="261" 
d="M40 0l127 715h73l-127 -715h-73zM180 761l-137 114h102l111 -114h-76z" />
    <glyph glyph-name="Iacute" unicode="&#xcd;" horiz-adv-x="261" 
d="M40 0l127 715h73l-127 -715h-73zM375 875l-137 -114h-76l111 114h102z" />
    <glyph glyph-name="Icircumflex" unicode="&#xce;" horiz-adv-x="261" 
d="M40 0l127 715h73l-127 -715h-73zM193 875h77q10 -15 36.5 -54.5t40.5 -59.5h-65l-56 67l-79 -67h-72q15 14 118 114z" />
    <glyph glyph-name="Idieresis" unicode="&#xcf;" horiz-adv-x="261" 
d="M40 0l127 715h73l-127 -715h-73zM97 766l15 80h79l-15 -80h-79zM250 766l15 80h78l-15 -80h-78z" />
    <glyph glyph-name="Eth" unicode="&#xd0;" horiz-adv-x="718" 
d="M16 332l11 61h83l57 322h116q96 0 145 -8q120 -20 186.5 -87t66.5 -203q0 -166 -89 -277q-35 -45 -79 -74t-98 -43t-103.5 -18.5t-117.5 -4.5h-154l59 332h-83zM230 654l-46 -261h157l-11 -61h-157l-48 -271h116q122 0 202 41q162 85 162 313q0 163 -132 217
q-54 22 -144 22h-99z" />
    <glyph glyph-name="Ntilde" unicode="&#xd1;" horiz-adv-x="730" 
d="M582 0h-108l-163 433q-69 176 -82 226h-2q-4 -20 -24.5 -145t-26.5 -157l-63 -357h-73l127 715h118l164 -439l73 -203h2q4 19 18 106t21 124l73 412h73zM363 765h-50q3 46 23 70t54 24q26 0 75 -20q43 -18 57 -18q31 0 37 46h49q-6 -97 -80 -97q-26 0 -66 17
q-46 21 -63 21q-31 0 -36 -43z" />
    <glyph glyph-name="Ograve" unicode="&#xd2;" horiz-adv-x="810" 
d="M443 729q148 0 239.5 -84t91.5 -231q0 -185 -107 -306.5t-286 -121.5q-145 0 -236 84.5t-91 236.5q0 114 43.5 208.5t133.5 154t212 59.5zM438 669q-98 0 -169.5 -52t-104 -130t-32.5 -171q0 -128 66 -199t187 -71q77 0 137.5 30.5t98 82.5t56.5 117t19 137
q0 117 -70.5 186.5t-187.5 69.5zM434 761l-137 114h102l111 -114h-76z" />
    <glyph glyph-name="Oacute" unicode="&#xd3;" horiz-adv-x="810" 
d="M443 729q148 0 239.5 -84t91.5 -231q0 -185 -107 -306.5t-286 -121.5q-145 0 -236 84.5t-91 236.5q0 114 43.5 208.5t133.5 154t212 59.5zM438 669q-98 0 -169.5 -52t-104 -130t-32.5 -171q0 -128 66 -199t187 -71q77 0 137.5 30.5t98 82.5t56.5 117t19 137
q0 117 -70.5 186.5t-187.5 69.5zM629 875l-137 -114h-76l111 114h102z" />
    <glyph glyph-name="Ocircumflex" unicode="&#xd4;" horiz-adv-x="810" 
d="M443 729q148 0 239.5 -84t91.5 -231q0 -185 -107 -306.5t-286 -121.5q-145 0 -236 84.5t-91 236.5q0 114 43.5 208.5t133.5 154t212 59.5zM438 669q-98 0 -169.5 -52t-104 -130t-32.5 -171q0 -128 66 -199t187 -71q77 0 137.5 30.5t98 82.5t56.5 117t19 137
q0 117 -70.5 186.5t-187.5 69.5zM440 875h77q10 -15 36.5 -54.5t40.5 -59.5h-65l-56 67l-79 -67h-72q15 14 118 114z" />
    <glyph glyph-name="Otilde" unicode="&#xd5;" horiz-adv-x="810" 
d="M443 729q148 0 239.5 -84t91.5 -231q0 -185 -107 -306.5t-286 -121.5q-145 0 -236 84.5t-91 236.5q0 114 43.5 208.5t133.5 154t212 59.5zM438 669q-98 0 -169.5 -52t-104 -130t-32.5 -171q0 -128 66 -199t187 -71q77 0 137.5 30.5t98 82.5t56.5 117t19 137
q0 117 -70.5 186.5t-187.5 69.5zM367 765h-50q3 46 23 70t54 24q26 0 75 -20q43 -18 57 -18q31 0 37 46h49q-6 -97 -80 -97q-26 0 -66 17q-46 21 -63 21q-31 0 -36 -43z" />
    <glyph glyph-name="Odieresis" unicode="&#xd6;" horiz-adv-x="810" 
d="M443 729q148 0 239.5 -84t91.5 -231q0 -185 -107 -306.5t-286 -121.5q-145 0 -236 84.5t-91 236.5q0 114 43.5 208.5t133.5 154t212 59.5zM438 669q-98 0 -169.5 -52t-104 -130t-32.5 -171q0 -128 66 -199t187 -71q77 0 137.5 30.5t98 82.5t56.5 117t19 137
q0 117 -70.5 186.5t-187.5 69.5zM349 766l15 80h79l-15 -80h-79zM502 766l15 80h78l-15 -80h-78z" />
    <glyph glyph-name="multiply" unicode="&#xd7;" 
d="M111 112l-41 42l167 167l-167 167l41 42l167 -167l168 167l42 -41l-168 -168l168 -168l-42 -41l-168 167z" />
    <glyph glyph-name="Oslash" unicode="&#xd8;" horiz-adv-x="811" 
d="M444 729q114 0 194 -50l51 61l53 -44l-50 -60q83 -88 83 -222q0 -185 -107 -306.5t-286 -121.5q-110 0 -189 48l-55 -67l-53 41l56 67q-86 86 -86 232q0 114 43.5 208.5t133.5 154t212 59.5zM439 669q-98 0 -169.5 -52t-104 -130t-32.5 -171q0 -115 54 -185l407 494
q-64 44 -155 44zM697 413q0 98 -52 166l-409 -493q61 -40 150 -40q77 0 137.5 30.5t98 82.5t56.5 117t19 137z" />
    <glyph glyph-name="Ugrave" unicode="&#xd9;" horiz-adv-x="684" 
d="M297 -14q-109 0 -167 50t-58 145q0 37 9 93l78 441h73l-79 -446q-7 -44 -7 -73q0 -69 39 -110t123 -41q97 0 144 58.5t69 180.5l76 431h73l-80 -449q-15 -90 -48 -152q-71 -128 -245 -128zM408 761l-137 114h102l111 -114h-76z" />
    <glyph glyph-name="Uacute" unicode="&#xda;" horiz-adv-x="684" 
d="M297 -14q-109 0 -167 50t-58 145q0 37 9 93l78 441h73l-79 -446q-7 -44 -7 -73q0 -69 39 -110t123 -41q97 0 144 58.5t69 180.5l76 431h73l-80 -449q-15 -90 -48 -152q-71 -128 -245 -128zM562 875l-137 -114h-76l111 114h102z" />
    <glyph glyph-name="Ucircumflex" unicode="&#xdb;" horiz-adv-x="684" 
d="M297 -14q-109 0 -167 50t-58 145q0 37 9 93l78 441h73l-79 -446q-7 -44 -7 -73q0 -69 39 -110t123 -41q97 0 144 58.5t69 180.5l76 431h73l-80 -449q-15 -90 -48 -152q-71 -128 -245 -128zM396 875h77q10 -15 36.5 -54.5t40.5 -59.5h-65l-56 67l-79 -67h-72
q15 14 118 114z" />
    <glyph glyph-name="Udieresis" unicode="&#xdc;" horiz-adv-x="684" 
d="M297 -14q-109 0 -167 50t-58 145q0 37 9 93l78 441h73l-79 -446q-7 -44 -7 -73q0 -69 39 -110t123 -41q97 0 144 58.5t69 180.5l76 431h73l-80 -449q-15 -90 -48 -152q-71 -128 -245 -128zM301 766l15 80h79l-15 -80h-79zM454 766l15 80h78l-15 -80h-78z" />
    <glyph glyph-name="Yacute" unicode="&#xdd;" horiz-adv-x="593" 
d="M200 0l49 275l-171 440h82q21 -58 71 -188t68 -180q42 57 135.5 183t134.5 185h86l-332 -440l-49 -275h-74zM517 875l-137 -114h-76l111 114h102z" />
    <glyph glyph-name="Thorn" unicode="&#xde;" horiz-adv-x="568" 
d="M167 715h75l-22 -121h82q121 0 180 -31q79 -42 79 -139q0 -62 -27 -115.5t-79 -85.5q-63 -41 -205 -41h-103l-32 -182h-75zM209 533l-51 -290h112q214 0 214 171q0 119 -177 119h-98z" />
    <glyph glyph-name="germandbls" unicode="&#xdf;" horiz-adv-x="567" 
d="M25 0l87 495q20 120 80 175q56 53 155 53q85 0 133 -39.5t48 -103.5q0 -66 -42 -112t-110 -61q56 -13 96 -57.5t40 -109.5q0 -109 -77.5 -176t-193.5 -67q-28 0 -39 2l9 53h16q95 0 152 46.5t57 140.5q0 67 -45 103.5t-119 36.5h-4l9 51q76 4 127 38.5t51 104.5
q0 43 -30.5 69t-83.5 26q-56 0 -94 -31q-45 -38 -62 -142l-87 -495h-73z" />
    <glyph glyph-name="agrave" unicode="&#xe0;" horiz-adv-x="549" 
d="M147 366h-73q14 79 74.5 126t154.5 47q181 0 181 -156q0 -31 -21 -150l-22 -124q-10 -61 -10 -91q0 -4 0.5 -9t0.5 -9h-67v13q0 33 8 73q-69 -96 -202 -96q-75 0 -118 33.5t-43 93.5q0 144 253 179q87 14 146 18q6 30 6 58q0 110 -123 110q-118 0 -145 -116zM396 233
q5 26 6 29q-82 -9 -138 -19q-92 -18 -124 -35q-52 -29 -52 -82q0 -42 29 -63.5t80 -21.5q79 0 130.5 49t68.5 143zM333 596l-142 119h102l116 -119h-76z" />
    <glyph glyph-name="aacute" unicode="&#xe1;" horiz-adv-x="549" 
d="M147 366h-73q14 79 74.5 126t154.5 47q181 0 181 -156q0 -31 -21 -150l-22 -124q-10 -61 -10 -91q0 -4 0.5 -9t0.5 -9h-67v13q0 33 8 73q-69 -96 -202 -96q-75 0 -118 33.5t-43 93.5q0 144 253 179q87 14 146 18q6 30 6 58q0 110 -123 110q-118 0 -145 -116zM396 233
q5 26 6 29q-82 -9 -138 -19q-92 -18 -124 -35q-52 -29 -52 -82q0 -42 29 -63.5t80 -21.5q79 0 130.5 49t68.5 143zM484 715l-142 -119h-76l116 119h102z" />
    <glyph glyph-name="acircumflex" unicode="&#xe2;" horiz-adv-x="549" 
d="M147 366h-73q14 79 74.5 126t154.5 47q181 0 181 -156q0 -31 -21 -150l-22 -124q-10 -61 -10 -91q0 -4 0.5 -9t0.5 -9h-67v13q0 33 8 73q-69 -96 -202 -96q-75 0 -118 33.5t-43 93.5q0 144 253 179q87 14 146 18q6 30 6 58q0 110 -123 110q-118 0 -145 -116zM396 233
q5 26 6 29q-82 -9 -138 -19q-92 -18 -124 -35q-52 -29 -52 -82q0 -42 29 -63.5t80 -21.5q79 0 130.5 49t68.5 143zM307 715h77q11 -17 38 -58.5t40 -60.5h-65l-57 72l-80 -72h-72q19 18 60 60t59 59z" />
    <glyph glyph-name="atilde" unicode="&#xe3;" horiz-adv-x="549" 
d="M147 366h-73q14 79 74.5 126t154.5 47q181 0 181 -156q0 -31 -21 -150l-22 -124q-10 -61 -10 -91q0 -4 0.5 -9t0.5 -9h-67v13q0 33 8 73q-69 -96 -202 -96q-75 0 -118 33.5t-43 93.5q0 144 253 179q87 14 146 18q6 30 6 58q0 110 -123 110q-118 0 -145 -116zM396 233
q5 26 6 29q-82 -9 -138 -19q-92 -18 -124 -35q-52 -29 -52 -82q0 -42 29 -63.5t80 -21.5q79 0 130.5 49t68.5 143zM224 613h-50q3 46 23 70t54 24q26 0 75 -20q43 -18 57 -18q31 0 37 46h49q-6 -97 -80 -97q-26 0 -66 17q-46 21 -63 21q-31 0 -36 -43z" />
    <glyph glyph-name="adieresis" unicode="&#xe4;" horiz-adv-x="549" 
d="M147 366h-73q14 79 74.5 126t154.5 47q181 0 181 -156q0 -31 -21 -150l-22 -124q-10 -61 -10 -91q0 -4 0.5 -9t0.5 -9h-67v13q0 33 8 73q-69 -96 -202 -96q-75 0 -118 33.5t-43 93.5q0 144 253 179q87 14 146 18q6 30 6 58q0 110 -123 110q-118 0 -145 -116zM396 233
q5 26 6 29q-82 -9 -138 -19q-92 -18 -124 -35q-52 -29 -52 -82q0 -42 29 -63.5t80 -21.5q79 0 130.5 49t68.5 143zM214 616l15 80h79l-15 -80h-79zM367 616l15 80h78l-15 -80h-78z" />
    <glyph glyph-name="aring" unicode="&#xe5;" horiz-adv-x="549" 
d="M147 366h-73q14 79 74.5 126t154.5 47q181 0 181 -156q0 -31 -21 -150l-22 -124q-10 -61 -10 -91q0 -4 0.5 -9t0.5 -9h-67v13q0 33 8 73q-69 -96 -202 -96q-75 0 -118 33.5t-43 93.5q0 144 253 179q87 14 146 18q6 30 6 58q0 110 -123 110q-118 0 -145 -116zM396 233
q5 26 6 29q-82 -9 -138 -19q-92 -18 -124 -35q-52 -29 -52 -82q0 -42 29 -63.5t80 -21.5q79 0 130.5 49t68.5 143zM338 591q-36 0 -60 24.5t-24 61.5q0 35 24.5 59.5t60.5 24.5t60.5 -24.5t24.5 -59.5q0 -37 -24.5 -61.5t-61.5 -24.5zM289 677q0 -22 14 -37t35 -15
q22 0 36 14.5t14 37.5q0 21 -14.5 35.5t-35.5 14.5t-35 -14.5t-14 -35.5z" />
    <glyph glyph-name="ae" unicode="&#xe6;" horiz-adv-x="953" 
d="M814 149h73q-32 -74 -98 -118t-158 -44q-164 0 -218 131q-71 -128 -239 -128q-78 0 -121 33t-43 94q0 144 253 179q87 14 146 18q6 30 6 58q0 110 -123 110q-118 0 -145 -116h-73q14 78 75 125.5t153 47.5q132 0 166 -94q79 94 211 94q114 0 172.5 -68t58.5 -186
q0 -20 -1 -32h-443v-26q0 -85 46 -133.5t128 -48.5q122 0 174 104zM675 483q-79 0 -130 -47.5t-70 -126.5h362q-4 88 -46 131t-116 43zM396 233q5 26 6 29q-82 -9 -138 -19q-92 -18 -124 -35q-52 -29 -52 -82q0 -42 29 -63.5t80 -21.5q79 0 130.5 49t68.5 143z" />
    <glyph glyph-name="ccedilla" unicode="&#xe7;" horiz-adv-x="589" 
d="M462 167h71q-29 -81 -97 -130.5t-164 -49.5q-110 0 -173.5 63.5t-63.5 173.5q0 134 78 224.5t210 90.5q97 0 156 -50t74 -136h-72q-33 129 -162 129q-96 0 -152.5 -74t-56.5 -181q0 -86 45 -134.5t127 -48.5q123 0 180 123zM149 -163l93 115h69l-76 -115h-86z" />
    <glyph glyph-name="egrave" unicode="&#xe8;" horiz-adv-x="594" 
d="M455 149h73q-32 -74 -98 -118t-158 -44q-109 0 -173 63t-64 176q0 132 77 222.5t208 90.5q114 0 172.5 -68t58.5 -186q0 -20 -1 -32h-443v-26q0 -85 46 -133.5t128 -48.5q122 0 174 104zM316 483q-79 0 -130 -47.5t-70 -126.5h362q-4 88 -46 131t-116 43zM314 596
l-142 119h102l116 -119h-76z" />
    <glyph glyph-name="eacute" unicode="&#xe9;" horiz-adv-x="594" 
d="M455 149h73q-32 -74 -98 -118t-158 -44q-109 0 -173 63t-64 176q0 132 77 222.5t208 90.5q114 0 172.5 -68t58.5 -186q0 -20 -1 -32h-443v-26q0 -85 46 -133.5t128 -48.5q122 0 174 104zM316 483q-79 0 -130 -47.5t-70 -126.5h362q-4 88 -46 131t-116 43zM486 715
l-142 -119h-76l116 119h102z" />
    <glyph glyph-name="ecircumflex" unicode="&#xea;" horiz-adv-x="594" 
d="M455 149h73q-32 -74 -98 -118t-158 -44q-109 0 -173 63t-64 176q0 132 77 222.5t208 90.5q114 0 172.5 -68t58.5 -186q0 -20 -1 -32h-443v-26q0 -85 46 -133.5t128 -48.5q122 0 174 104zM316 483q-79 0 -130 -47.5t-70 -126.5h362q-4 88 -46 131t-116 43zM315 715h77
q11 -17 38 -58.5t40 -60.5h-65l-57 72l-80 -72h-72q19 18 60 60t59 59z" />
    <glyph glyph-name="edieresis" unicode="&#xeb;" horiz-adv-x="594" 
d="M455 149h73q-32 -74 -98 -118t-158 -44q-109 0 -173 63t-64 176q0 132 77 222.5t208 90.5q114 0 172.5 -68t58.5 -186q0 -20 -1 -32h-443v-26q0 -85 46 -133.5t128 -48.5q122 0 174 104zM316 483q-79 0 -130 -47.5t-70 -126.5h362q-4 88 -46 131t-116 43zM224 616l15 80
h79l-15 -80h-79zM377 616l15 80h78l-15 -80h-78z" />
    <glyph glyph-name="igrave" unicode="&#xec;" horiz-adv-x="230" 
d="M118 525h72l-93 -525h-72zM134 596l-142 119h102l116 -119h-76z" />
    <glyph glyph-name="iacute" unicode="&#xed;" horiz-adv-x="230" 
d="M118 525h72l-93 -525h-72zM337 715l-142 -119h-76l116 119h102z" />
    <glyph glyph-name="icircumflex" unicode="&#xee;" horiz-adv-x="230" 
d="M118 525h72l-93 -525h-72zM146 715h77q11 -17 38 -58.5t40 -60.5h-65l-57 72l-80 -72h-72q19 18 60 60t59 59z" />
    <glyph glyph-name="idieresis" unicode="&#xef;" horiz-adv-x="230" 
d="M118 525h72l-93 -525h-72zM53 616l15 80h79l-15 -80h-79zM206 616l15 80h78l-15 -80h-78z" />
    <glyph glyph-name="eth" unicode="&#xf0;" horiz-adv-x="623" 
d="M237 715h117q25 -17 41 -30l94 42l35 -34l-91 -41q67 -67 103 -155t36 -183q0 -149 -79.5 -238t-220.5 -89q-110 0 -173.5 63t-63.5 178q0 134 79.5 222.5t201.5 88.5q98 0 154 -56l4 3q-43 83 -102 138l-119 -53l-38 35l117 51q-39 29 -95 58zM283 44q96 0 154.5 71.5
t58.5 178.5q0 85 -46.5 136.5t-128.5 51.5q-98 0 -154.5 -74t-56.5 -181q0 -86 45 -134.5t128 -48.5z" />
    <glyph glyph-name="ntilde" unicode="&#xf1;" horiz-adv-x="581" 
d="M25 0l78 445q11 58 14 80h72l-14 -78q61 92 176 92q79 0 122 -41.5t43 -116.5q0 -33 -7 -73l-55 -308h-72l54 302q6 31 6 60q0 120 -114 120q-69 0 -115.5 -46.5t-59.5 -116.5l-56 -319h-72zM263 613h-50q3 46 23 70t54 24q26 0 75 -20q43 -18 57 -18q31 0 37 46h49
q-6 -97 -80 -97q-26 0 -66 17q-46 21 -63 21q-31 0 -36 -43z" />
    <glyph glyph-name="ograve" unicode="&#xf2;" horiz-adv-x="623" 
d="M283 44q96 0 154.5 71.5t58.5 178.5q0 85 -46.5 136.5t-128.5 51.5q-98 0 -154.5 -74t-56.5 -181q0 -86 45 -134.5t128 -48.5zM278 -13q-114 0 -178.5 63t-64.5 174q0 134 78.5 224.5t214.5 90.5q113 0 179 -65t66 -174q0 -134 -80.5 -223.5t-214.5 -89.5zM353 596
l-142 119h102l116 -119h-76z" />
    <glyph glyph-name="oacute" unicode="&#xf3;" horiz-adv-x="623" 
d="M283 44q96 0 154.5 71.5t58.5 178.5q0 85 -46.5 136.5t-128.5 51.5q-98 0 -154.5 -74t-56.5 -181q0 -86 45 -134.5t128 -48.5zM278 -13q-114 0 -178.5 63t-64.5 174q0 134 78.5 224.5t214.5 90.5q113 0 179 -65t66 -174q0 -134 -80.5 -223.5t-214.5 -89.5zM522 715
l-142 -119h-76l116 119h102z" />
    <glyph glyph-name="ocircumflex" unicode="&#xf4;" horiz-adv-x="623" 
d="M283 44q96 0 154.5 71.5t58.5 178.5q0 85 -46.5 136.5t-128.5 51.5q-98 0 -154.5 -74t-56.5 -181q0 -86 45 -134.5t128 -48.5zM278 -13q-114 0 -178.5 63t-64.5 174q0 134 78.5 224.5t214.5 90.5q113 0 179 -65t66 -174q0 -134 -80.5 -223.5t-214.5 -89.5zM338 715h77
q11 -17 38 -58.5t40 -60.5h-65l-57 72l-80 -72h-72q19 18 60 60t59 59z" />
    <glyph glyph-name="otilde" unicode="&#xf5;" horiz-adv-x="623" 
d="M283 44q96 0 154.5 71.5t58.5 178.5q0 85 -46.5 136.5t-128.5 51.5q-98 0 -154.5 -74t-56.5 -181q0 -86 45 -134.5t128 -48.5zM278 -13q-114 0 -178.5 63t-64.5 174q0 134 78.5 224.5t214.5 90.5q113 0 179 -65t66 -174q0 -134 -80.5 -223.5t-214.5 -89.5zM260 613h-50
q3 46 23 70t54 24q26 0 75 -20q43 -18 57 -18q31 0 37 46h49q-6 -97 -80 -97q-26 0 -66 17q-46 21 -63 21q-31 0 -36 -43z" />
    <glyph glyph-name="odieresis" unicode="&#xf6;" horiz-adv-x="623" 
d="M283 44q96 0 154.5 71.5t58.5 178.5q0 85 -46.5 136.5t-128.5 51.5q-98 0 -154.5 -74t-56.5 -181q0 -86 45 -134.5t128 -48.5zM278 -13q-114 0 -178.5 63t-64.5 174q0 134 78.5 224.5t214.5 90.5q113 0 179 -65t66 -174q0 -134 -80.5 -223.5t-214.5 -89.5zM231 616l15 80
h79l-15 -80h-79zM384 616l15 80h78l-15 -80h-78z" />
    <glyph glyph-name="divide" unicode="&#xf7;" 
d="M61 293v59h442v-59h-442zM241 95v111h76v-111h-76zM241 438v111h76v-111h-76z" />
    <glyph glyph-name="oslash" unicode="&#xf8;" horiz-adv-x="623" 
d="M278 -13q-76 0 -133 30l-44 -53l-48 40l42 51q-60 63 -60 169q0 134 78.5 224.5t214.5 90.5q80 0 139 -35l43 52l48 -40l-43 -52q58 -64 58 -164q0 -134 -80.5 -223.5t-214.5 -89.5zM110 227q0 -74 31 -117l283 342q-43 30 -103 30q-98 0 -154.5 -74t-56.5 -181zM283 44
q96 0 154.5 71.5t58.5 178.5q0 65 -29 112l-280 -339q41 -23 96 -23z" />
    <glyph glyph-name="ugrave" unicode="&#xf9;" horiz-adv-x="578" 
d="M538 525l-79 -445q-6 -31 -13 -80h-72l14 78q-61 -92 -174 -92q-79 0 -121.5 41.5t-42.5 116.5q0 33 7 73l55 308h72l-54 -302q-6 -31 -6 -60q0 -120 113 -120q69 0 114.5 46.5t58.5 116.5l55 319h73zM321 596l-142 119h102l116 -119h-76z" />
    <glyph glyph-name="uacute" unicode="&#xfa;" horiz-adv-x="578" 
d="M538 525l-79 -445q-6 -31 -13 -80h-72l14 78q-61 -92 -174 -92q-79 0 -121.5 41.5t-42.5 116.5q0 33 7 73l55 308h72l-54 -302q-6 -31 -6 -60q0 -120 113 -120q69 0 114.5 46.5t58.5 116.5l55 319h73zM478 715l-142 -119h-76l116 119h102z" />
    <glyph glyph-name="ucircumflex" unicode="&#xfb;" horiz-adv-x="578" 
d="M538 525l-79 -445q-6 -31 -13 -80h-72l14 78q-61 -92 -174 -92q-79 0 -121.5 41.5t-42.5 116.5q0 33 7 73l55 308h72l-54 -302q-6 -31 -6 -60q0 -120 113 -120q69 0 114.5 46.5t58.5 116.5l55 319h73zM315 715h77q11 -17 38 -58.5t40 -60.5h-65l-57 72l-80 -72h-72
q19 18 60 60t59 59z" />
    <glyph glyph-name="udieresis" unicode="&#xfc;" horiz-adv-x="578" 
d="M538 525l-79 -445q-6 -31 -13 -80h-72l14 78q-61 -92 -174 -92q-79 0 -121.5 41.5t-42.5 116.5q0 33 7 73l55 308h72l-54 -302q-6 -31 -6 -60q0 -120 113 -120q69 0 114.5 46.5t58.5 116.5l55 319h73zM222 616l15 80h79l-15 -80h-79zM375 616l15 80h78l-15 -80h-78z" />
    <glyph glyph-name="yacute" unicode="&#xfd;" horiz-adv-x="522" 
d="M136 -180h-75l109 181q-17 86 -59.5 269t-57.5 255h79q16 -81 47.5 -234.5t41.5 -205.5h1q28 52 125 228.5t116 211.5h78q-299 -524 -405 -705zM454 715l-142 -119h-76l116 119h102z" />
    <glyph glyph-name="thorn" unicode="&#xfe;" horiz-adv-x="623" 
d="M295 45q92 0 146.5 72.5t54.5 180.5q0 82 -41.5 132.5t-120.5 50.5q-96 0 -147 -76.5t-51 -180.5q0 -83 40 -131t119 -48zM223 715l-31 -177l-18 -90q61 91 183 91q96 0 156 -63t60 -169q0 -138 -77 -229t-196 -91q-72 0 -120 32t-68 81q-3 -17 -9.5 -59t-12.5 -77
l-26 -144h-72l159 895h72z" />
    <glyph glyph-name="ydieresis" unicode="&#xff;" horiz-adv-x="522" 
d="M136 -180h-75l109 181q-17 86 -59.5 269t-57.5 255h79q16 -81 47.5 -234.5t41.5 -205.5h1q28 52 125 228.5t116 211.5h78q-299 -524 -405 -705zM192 616l15 80h79l-15 -80h-79zM345 616l15 80h78l-15 -80h-78z" />
    <glyph glyph-name="Amacron" unicode="&#x100;" horiz-adv-x="674" 
d="M-49 0l419 715h86l163 -715h-74l-52 236h-331l-134 -236h-77zM404 656h-2q-124 -217 -167 -294l-40 -68h285l-16 77q-4 19 -27 124t-33 161zM299 788l8 51h244l-8 -51h-244z" />
    <glyph glyph-name="amacron" unicode="&#x101;" horiz-adv-x="549" 
d="M147 366h-73q14 79 74.5 126t154.5 47q181 0 181 -156q0 -31 -21 -150l-22 -124q-10 -61 -10 -91q0 -4 0.5 -9t0.5 -9h-67v13q0 33 8 73q-69 -96 -202 -96q-75 0 -118 33.5t-43 93.5q0 144 253 179q87 14 146 18q6 30 6 58q0 110 -123 110q-118 0 -145 -116zM396 233
q5 26 6 29q-82 -9 -138 -19q-92 -18 -124 -35q-52 -29 -52 -82q0 -42 29 -63.5t80 -21.5q79 0 130.5 49t68.5 143zM208 630l8 51h244l-8 -51h-244z" />
    <glyph glyph-name="Abreve" unicode="&#x102;" horiz-adv-x="674" 
d="M-49 0l419 715h86l163 -715h-74l-52 236h-331l-134 -236h-77zM404 656h-2q-124 -217 -167 -294l-40 -68h285l-16 77q-4 19 -27 124t-33 161zM424 817q35 0 54.5 16t32.5 46h57q-38 -110 -152 -110q-117 0 -119 110h55q6 -62 72 -62z" />
    <glyph glyph-name="abreve" unicode="&#x103;" horiz-adv-x="549" 
d="M147 366h-73q14 79 74.5 126t154.5 47q181 0 181 -156q0 -31 -21 -150l-22 -124q-10 -61 -10 -91q0 -4 0.5 -9t0.5 -9h-67v13q0 33 8 73q-69 -96 -202 -96q-75 0 -118 33.5t-43 93.5q0 144 253 179q87 14 146 18q6 30 6 58q0 110 -123 110q-118 0 -145 -116zM396 233
q5 26 6 29q-82 -9 -138 -19q-92 -18 -124 -35q-52 -29 -52 -82q0 -42 29 -63.5t80 -21.5q79 0 130.5 49t68.5 143zM338 653q35 0 54.5 16t32.5 46h57q-38 -110 -152 -110q-117 0 -119 110h55q6 -62 72 -62z" />
    <glyph glyph-name="Aogonek" unicode="&#x104;" horiz-adv-x="674" 
d="M-49 0l419 715h86l163 -715h-74l-52 236h-331l-134 -236h-77zM404 656h-2q-124 -217 -167 -294l-40 -68h285l-16 77q-4 19 -27 124t-33 161zM616 -48l93 -115h-89l-76 115h72z" />
    <glyph glyph-name="aogonek" unicode="&#x105;" horiz-adv-x="549" 
d="M147 366h-73q14 79 74.5 126t154.5 47q181 0 181 -156q0 -31 -21 -150l-22 -124q-10 -61 -10 -91q0 -4 0.5 -9t0.5 -9h-67v13q0 33 8 73q-69 -96 -202 -96q-75 0 -118 33.5t-43 93.5q0 144 253 179q87 14 146 18q6 30 6 58q0 110 -123 110q-118 0 -145 -116zM396 233
q5 26 6 29q-82 -9 -138 -19q-92 -18 -124 -35q-52 -29 -52 -82q0 -42 29 -63.5t80 -21.5q79 0 130.5 49t68.5 143zM406 -48l93 -115h-89l-76 115h72z" />
    <glyph glyph-name="Cacute" unicode="&#x106;" horiz-adv-x="764" 
d="M647 206h73q-99 -220 -339 -220q-146 0 -236.5 83.5t-90.5 237.5q0 82 25.5 157t72.5 134.5t122 95t167 35.5q125 0 204.5 -59.5t106.5 -169.5h-73q-23 81 -85.5 125t-157.5 44q-98 0 -169 -52t-103 -130t-32 -171q0 -128 66 -199t187 -71q182 0 262 160zM618 875
l-137 -114h-76l111 114h102z" />
    <glyph glyph-name="cacute" unicode="&#x107;" horiz-adv-x="589" 
d="M462 167h71q-29 -81 -97 -130.5t-164 -49.5q-110 0 -173.5 63.5t-63.5 173.5q0 134 78 224.5t210 90.5q97 0 156 -50t74 -136h-72q-33 129 -162 129q-96 0 -152.5 -74t-56.5 -181q0 -86 45 -134.5t127 -48.5q123 0 180 123zM507 715l-142 -119h-76l116 119h102z" />
    <glyph glyph-name="Ccircumflex" unicode="&#x108;" horiz-adv-x="764" 
d="M647 206h73q-99 -220 -339 -220q-146 0 -236.5 83.5t-90.5 237.5q0 82 25.5 157t72.5 134.5t122 95t167 35.5q125 0 204.5 -59.5t106.5 -169.5h-73q-23 81 -85.5 125t-157.5 44q-98 0 -169 -52t-103 -130t-32 -171q0 -128 66 -199t187 -71q182 0 262 160zM442 875h77
q10 -15 36.5 -54.5t40.5 -59.5h-65l-56 67l-79 -67h-72q15 14 118 114z" />
    <glyph glyph-name="ccircumflex" unicode="&#x109;" horiz-adv-x="589" 
d="M462 167h71q-29 -81 -97 -130.5t-164 -49.5q-110 0 -173.5 63.5t-63.5 173.5q0 134 78 224.5t210 90.5q97 0 156 -50t74 -136h-72q-33 129 -162 129q-96 0 -152.5 -74t-56.5 -181q0 -86 45 -134.5t127 -48.5q123 0 180 123zM320 715h77q11 -17 38 -58.5t40 -60.5h-65
l-57 72l-80 -72h-72q19 18 60 60t59 59z" />
    <glyph glyph-name="Cdotaccent" unicode="&#x10a;" horiz-adv-x="764" 
d="M647 206h73q-99 -220 -339 -220q-146 0 -236.5 83.5t-90.5 237.5q0 82 25.5 157t72.5 134.5t122 95t167 35.5q125 0 204.5 -59.5t106.5 -169.5h-73q-23 81 -85.5 125t-157.5 44q-98 0 -169 -52t-103 -130t-32 -171q0 -128 66 -199t187 -71q182 0 262 160zM409 769l15 83
h81l-15 -83h-81z" />
    <glyph glyph-name="cdotaccent" unicode="&#x10b;" horiz-adv-x="589" 
d="M462 167h71q-29 -81 -97 -130.5t-164 -49.5q-110 0 -173.5 63.5t-63.5 173.5q0 134 78 224.5t210 90.5q97 0 156 -50t74 -136h-72q-33 129 -162 129q-96 0 -152.5 -74t-56.5 -181q0 -86 45 -134.5t127 -48.5q123 0 180 123zM297 609l15 83h81l-15 -83h-81z" />
    <glyph glyph-name="Ccaron" unicode="&#x10c;" horiz-adv-x="764" 
d="M647 206h73q-99 -220 -339 -220q-146 0 -236.5 83.5t-90.5 237.5q0 82 25.5 157t72.5 134.5t122 95t167 35.5q125 0 204.5 -59.5t106.5 -169.5h-73q-23 81 -85.5 125t-157.5 44q-98 0 -169 -52t-103 -130t-32 -171q0 -128 66 -199t187 -71q182 0 262 160zM496 761h-77
q-10 15 -36.5 54.5t-40.5 59.5h65l56 -67l79 67h72q-15 -14 -118 -114z" />
    <glyph glyph-name="ccaron" unicode="&#x10d;" horiz-adv-x="589" 
d="M462 167h71q-29 -81 -97 -130.5t-164 -49.5q-110 0 -173.5 63.5t-63.5 173.5q0 134 78 224.5t210 90.5q97 0 156 -50t74 -136h-72q-33 129 -162 129q-96 0 -152.5 -74t-56.5 -181q0 -86 45 -134.5t127 -48.5q123 0 180 123zM375 596h-77q-11 17 -38 58.5t-40 60.5h65
l57 -72l80 72h72q-19 -18 -60 -60t-59 -59z" />
    <glyph glyph-name="Dcaron" unicode="&#x10e;" horiz-adv-x="718" 
d="M40 0l127 715h116q96 0 145 -8q120 -20 186.5 -87t66.5 -203q0 -166 -89 -277q-35 -45 -79 -74t-98 -43t-103.5 -18.5t-117.5 -4.5h-154zM230 654l-105 -593h116q122 0 202 41q162 85 162 313q0 163 -132 217q-54 22 -144 22h-99zM433 761h-77q-10 15 -36.5 54.5
t-40.5 59.5h65l56 -67l79 67h72q-15 -14 -118 -114z" />
    <glyph glyph-name="dcaron" unicode="&#x10f;" horiz-adv-x="701" 
d="M489 0h-66l14 76q-24 -36 -71 -63t-115 -27q-96 0 -156 63t-60 169q0 138 77 229t196 91q70 0 119.5 -31.5t68.5 -78.5l5 37q7 52 14 88l29 162h72zM310 480q-91 0 -144.5 -72.5t-53.5 -180.5q0 -82 41.5 -132.5t120.5 -50.5q96 0 147 77t51 182q0 81 -41.5 129
t-120.5 48zM842 715l-119 -229h-60l104 229h75z" />
    <glyph glyph-name="Dcroat" unicode="&#x110;" horiz-adv-x="718" 
d="M16 332l11 61h83l57 322h116q96 0 145 -8q120 -20 186.5 -87t66.5 -203q0 -166 -89 -277q-35 -45 -79 -74t-98 -43t-103.5 -18.5t-117.5 -4.5h-154l59 332h-83zM230 654l-46 -261h157l-11 -61h-157l-48 -271h116q122 0 202 41q162 85 162 313q0 163 -132 217
q-54 22 -144 22h-99z" />
    <glyph glyph-name="dcroat" unicode="&#x111;" horiz-adv-x="622" 
d="M439 592l10 55h83l12 68h72l-12 -68h68l-10 -55h-68l-105 -592h-66l14 76q-24 -36 -71 -63t-115 -27q-96 0 -156 63t-60 169q0 138 77 229t196 91q70 0 119.5 -31.5t68.5 -78.5l5 37q7 52 14 88l7 39h-83zM310 480q-91 0 -144.5 -72.5t-53.5 -180.5q0 -82 41.5 -132.5
t120.5 -50.5q96 0 147 77t51 182q0 81 -41.5 129t-120.5 48z" />
    <glyph glyph-name="Emacron" unicode="&#x112;" horiz-adv-x="589" 
d="M40 0l127 715h442l-12 -63h-368l-44 -254h344l-11 -63h-344l-48 -272h375l-12 -63h-449zM266 788l8 51h244l-8 -51h-244z" />
    <glyph glyph-name="emacron" unicode="&#x113;" horiz-adv-x="594" 
d="M455 149h73q-32 -74 -98 -118t-158 -44q-109 0 -173 63t-64 176q0 132 77 222.5t208 90.5q114 0 172.5 -68t58.5 -186q0 -20 -1 -32h-443v-26q0 -85 46 -133.5t128 -48.5q122 0 174 104zM316 483q-79 0 -130 -47.5t-70 -126.5h362q-4 88 -46 131t-116 43zM228 630l8 51
h244l-8 -51h-244z" />
    <glyph glyph-name="Ebreve" unicode="&#x114;" horiz-adv-x="589" 
d="M40 0l127 715h442l-12 -63h-368l-44 -254h344l-11 -63h-344l-48 -272h375l-12 -63h-449zM399 817q35 0 54.5 16t32.5 46h57q-38 -110 -152 -110q-117 0 -119 110h55q6 -62 72 -62z" />
    <glyph glyph-name="ebreve" unicode="&#x115;" horiz-adv-x="594" 
d="M455 149h73q-32 -74 -98 -118t-158 -44q-109 0 -173 63t-64 176q0 132 77 222.5t208 90.5q114 0 172.5 -68t58.5 -186q0 -20 -1 -32h-443v-26q0 -85 46 -133.5t128 -48.5q122 0 174 104zM316 483q-79 0 -130 -47.5t-70 -126.5h362q-4 88 -46 131t-116 43zM343 653
q35 0 54.5 16t32.5 46h57q-38 -110 -152 -110q-117 0 -119 110h55q6 -62 72 -62z" />
    <glyph glyph-name="Edotaccent" unicode="&#x116;" horiz-adv-x="589" 
d="M40 0l127 715h442l-12 -63h-368l-44 -254h344l-11 -63h-344l-48 -272h375l-12 -63h-449zM345 769l15 83h81l-15 -83h-81z" />
    <glyph glyph-name="edotaccent" unicode="&#x117;" horiz-adv-x="594" 
d="M455 149h73q-32 -74 -98 -118t-158 -44q-109 0 -173 63t-64 176q0 132 77 222.5t208 90.5q114 0 172.5 -68t58.5 -186q0 -20 -1 -32h-443v-26q0 -85 46 -133.5t128 -48.5q122 0 174 104zM316 483q-79 0 -130 -47.5t-70 -126.5h362q-4 88 -46 131t-116 43zM288 609l15 83
h81l-15 -83h-81z" />
    <glyph glyph-name="Eogonek" unicode="&#x118;" horiz-adv-x="589" 
d="M40 0l127 715h442l-12 -63h-368l-44 -254h344l-11 -63h-344l-48 -272h375l-12 -63h-449zM299 -48l93 -115h-89l-76 115h72z" />
    <glyph glyph-name="eogonek" unicode="&#x119;" horiz-adv-x="594" 
d="M455 149h73q-32 -74 -98 -118t-158 -44q-109 0 -173 63t-64 176q0 132 77 222.5t208 90.5q114 0 172.5 -68t58.5 -186q0 -20 -1 -32h-443v-26q0 -85 46 -133.5t128 -48.5q122 0 174 104zM316 483q-79 0 -130 -47.5t-70 -126.5h362q-4 88 -46 131t-116 43zM291 -48
l93 -115h-89l-76 115h72z" />
    <glyph glyph-name="Ecaron" unicode="&#x11a;" horiz-adv-x="589" 
d="M40 0l127 715h442l-12 -63h-368l-44 -254h344l-11 -63h-344l-48 -272h375l-12 -63h-449zM426 761h-77q-10 15 -36.5 54.5t-40.5 59.5h65l56 -67l79 67h72q-15 -14 -118 -114z" />
    <glyph glyph-name="ecaron" unicode="&#x11b;" horiz-adv-x="594" 
d="M455 149h73q-32 -74 -98 -118t-158 -44q-109 0 -173 63t-64 176q0 132 77 222.5t208 90.5q114 0 172.5 -68t58.5 -186q0 -20 -1 -32h-443v-26q0 -85 46 -133.5t128 -48.5q122 0 174 104zM316 483q-79 0 -130 -47.5t-70 -126.5h362q-4 88 -46 131t-116 43zM378 596h-77
q-11 17 -38 58.5t-40 60.5h65l57 -72l80 72h72q-19 -18 -60 -60t-59 -59z" />
    <glyph glyph-name="Gcircumflex" unicode="&#x11c;" horiz-adv-x="798" 
d="M366 -13q-135 0 -223.5 86t-88.5 237q0 81 25.5 155t72.5 133.5t122 95t167 35.5q125 0 204.5 -59.5t106.5 -169.5h-73q-23 81 -85.5 125t-157.5 44q-98 0 -169 -52t-103 -130t-32 -171q0 -125 64.5 -197.5t180.5 -72.5q68 0 122.5 22t89 59.5t55 80t30.5 90.5h-285
l11 63h352l-64 -361h-68l10 56l9 46l6 25q-95 -140 -279 -140zM440 875h77q10 -15 36.5 -54.5t40.5 -59.5h-65l-56 67l-79 -67h-72q15 14 118 114z" />
    <glyph glyph-name="gcircumflex" unicode="&#x11d;" horiz-adv-x="626" 
d="M439 80q1 5 3 17.5t4 16.5h-3q-63 -89 -187 -89q-94 0 -155 58t-61 156q0 131 74 215t195 84q71 0 121.5 -31t69.5 -76l17 94h69l-76 -433q-26 -139 -91 -210t-191 -71q-103 0 -158.5 48.5t-59.5 123.5h74q4 -46 40.5 -81t108.5 -35q170 0 206 213zM313 480
q-91 0 -143.5 -64t-52.5 -163q0 -77 42 -124t121 -47q97 0 147 72t50 164q0 74 -42.5 118t-121.5 44zM330 715h77q11 -17 38 -58.5t40 -60.5h-65l-57 72l-80 -72h-72q19 18 60 60t59 59z" />
    <glyph glyph-name="Gbreve" unicode="&#x11e;" horiz-adv-x="798" 
d="M366 -13q-135 0 -223.5 86t-88.5 237q0 81 25.5 155t72.5 133.5t122 95t167 35.5q125 0 204.5 -59.5t106.5 -169.5h-73q-23 81 -85.5 125t-157.5 44q-98 0 -169 -52t-103 -130t-32 -171q0 -125 64.5 -197.5t180.5 -72.5q68 0 122.5 22t89 59.5t55 80t30.5 90.5h-285
l11 63h352l-64 -361h-68l10 56l9 46l6 25q-95 -140 -279 -140zM469 817q35 0 54.5 16t32.5 46h57q-38 -110 -152 -110q-117 0 -119 110h55q6 -62 72 -62z" />
    <glyph glyph-name="gbreve" unicode="&#x11f;" horiz-adv-x="626" 
d="M439 80q1 5 3 17.5t4 16.5h-3q-63 -89 -187 -89q-94 0 -155 58t-61 156q0 131 74 215t195 84q71 0 121.5 -31t69.5 -76l17 94h69l-76 -433q-26 -139 -91 -210t-191 -71q-103 0 -158.5 48.5t-59.5 123.5h74q4 -46 40.5 -81t108.5 -35q170 0 206 213zM313 480
q-91 0 -143.5 -64t-52.5 -163q0 -77 42 -124t121 -47q97 0 147 72t50 164q0 74 -42.5 118t-121.5 44zM361 653q35 0 54.5 16t32.5 46h57q-38 -110 -152 -110q-117 0 -119 110h55q6 -62 72 -62z" />
    <glyph glyph-name="Gdotaccent" unicode="&#x120;" horiz-adv-x="798" 
d="M366 -13q-135 0 -223.5 86t-88.5 237q0 81 25.5 155t72.5 133.5t122 95t167 35.5q125 0 204.5 -59.5t106.5 -169.5h-73q-23 81 -85.5 125t-157.5 44q-98 0 -169 -52t-103 -130t-32 -171q0 -125 64.5 -197.5t180.5 -72.5q68 0 122.5 22t89 59.5t55 80t30.5 90.5h-285
l11 63h352l-64 -361h-68l10 56l9 46l6 25q-95 -140 -279 -140zM420 769l15 83h81l-15 -83h-81z" />
    <glyph glyph-name="gdotaccent" unicode="&#x121;" horiz-adv-x="626" 
d="M439 80q1 5 3 17.5t4 16.5h-3q-63 -89 -187 -89q-94 0 -155 58t-61 156q0 131 74 215t195 84q71 0 121.5 -31t69.5 -76l17 94h69l-76 -433q-26 -139 -91 -210t-191 -71q-103 0 -158.5 48.5t-59.5 123.5h74q4 -46 40.5 -81t108.5 -35q170 0 206 213zM313 480
q-91 0 -143.5 -64t-52.5 -163q0 -77 42 -124t121 -47q97 0 147 72t50 164q0 74 -42.5 118t-121.5 44zM297 609l15 83h81l-15 -83h-81z" />
    <glyph glyph-name="Gcommaaccent" unicode="&#x122;" horiz-adv-x="798" 
d="M366 -13q-135 0 -223.5 86t-88.5 237q0 81 25.5 155t72.5 133.5t122 95t167 35.5q125 0 204.5 -59.5t106.5 -169.5h-73q-23 81 -85.5 125t-157.5 44q-98 0 -169 -52t-103 -130t-32 -171q0 -125 64.5 -197.5t180.5 -72.5q68 0 122.5 22t89 59.5t55 80t30.5 90.5h-285
l11 63h352l-64 -361h-68l10 56l9 46l6 25q-95 -140 -279 -140zM236 -163l93 115h69l-76 -115h-86z" />
    <glyph glyph-name="gcommaaccent" unicode="&#x123;" horiz-adv-x="626" 
d="M439 80q1 5 3 17.5t4 16.5h-3q-63 -89 -187 -89q-94 0 -155 58t-61 156q0 131 74 215t195 84q71 0 121.5 -31t69.5 -76l17 94h69l-76 -433q-26 -139 -91 -210t-191 -71q-103 0 -158.5 48.5t-59.5 123.5h74q4 -46 40.5 -81t108.5 -35q170 0 206 213zM313 480
q-91 0 -143.5 -64t-52.5 -163q0 -77 42 -124t121 -47q97 0 147 72t50 164q0 74 -42.5 118t-121.5 44zM470 715l-93 -115h-69l76 115h86z" />
    <glyph glyph-name="Hcircumflex" unicode="&#x124;" horiz-adv-x="703" 
d="M40 0l127 715h73l-57 -318h369l57 318h73l-127 -715h-73l60 335h-369l-60 -335h-73zM405 875h77q10 -15 36.5 -54.5t40.5 -59.5h-65l-56 67l-79 -67h-72q15 14 118 114z" />
    <glyph glyph-name="hcircumflex" unicode="&#x125;" horiz-adv-x="581" 
d="M25 0l126 715h72l-22 -125q-10 -60 -26 -143q61 92 176 92q79 0 122 -41.5t43 -116.5q0 -33 -7 -73l-55 -308h-72l54 302q6 31 6 60q0 120 -114 120q-69 0 -115.5 -46.5t-59.5 -116.5l-56 -319h-72zM176 875h77q10 -15 36.5 -54.5t40.5 -59.5h-65l-56 67l-79 -67h-72
q15 14 118 114z" />
    <glyph glyph-name="Hbar" unicode="&#x126;" horiz-adv-x="703" 
d="M40 0l127 715h73l-19 -103h369l19 103h73l-127 -715h-73l60 335h-369l-60 -335h-73zM183 397h369l27 153h-369z" />
    <glyph glyph-name="hbar" unicode="&#x127;" horiz-adv-x="581" 
d="M25 0l104 592h-68l10 55h68l12 68h72l-12 -68h83l-10 -55h-83v-2q-10 -60 -26 -143q61 92 176 92q79 0 122 -41.5t43 -116.5q0 -33 -7 -73l-55 -308h-72l54 302q6 31 6 60q0 120 -114 120q-69 0 -115.5 -46.5t-59.5 -116.5l-56 -319h-72z" />
    <glyph glyph-name="Itilde" unicode="&#x128;" horiz-adv-x="261" 
d="M40 0l127 715h73l-127 -715h-73zM118 765h-50q3 46 23 70t54 24q26 0 75 -20q43 -18 57 -18q31 0 37 46h49q-6 -97 -80 -97q-26 0 -66 17q-46 21 -63 21q-31 0 -36 -43z" />
    <glyph glyph-name="itilde" unicode="&#x129;" horiz-adv-x="230" 
d="M118 525h72l-93 -525h-72zM73 613h-50q3 46 23 70t54 24q26 0 75 -20q43 -18 57 -18q31 0 37 46h49q-6 -97 -80 -97q-26 0 -66 17q-46 21 -63 21q-31 0 -36 -43z" />
    <glyph glyph-name="Imacron" unicode="&#x12a;" horiz-adv-x="261" 
d="M40 0l127 715h73l-127 -715h-73zM92 788l8 51h244l-8 -51h-244z" />
    <glyph glyph-name="imacron" unicode="&#x12b;" horiz-adv-x="230" 
d="M118 525h72l-93 -525h-72zM46 630l8 51h244l-8 -51h-244z" />
    <glyph glyph-name="Ibreve" unicode="&#x12c;" horiz-adv-x="261" 
d="M40 0l127 715h73l-127 -715h-73zM221 817q35 0 54.5 16t32.5 46h57q-38 -110 -152 -110q-117 0 -119 110h55q6 -62 72 -62z" />
    <glyph glyph-name="ibreve" unicode="&#x12d;" horiz-adv-x="230" 
d="M118 525h72l-93 -525h-72zM179 653q35 0 54.5 16t32.5 46h57q-38 -110 -152 -110q-117 0 -119 110h55q6 -62 72 -62z" />
    <glyph glyph-name="Iogonek" unicode="&#x12e;" horiz-adv-x="261" 
d="M40 0l127 715h73l-127 -715h-73zM102 -48l93 -115h-89l-76 115h72z" />
    <glyph glyph-name="iogonek" unicode="&#x12f;" horiz-adv-x="230" 
d="M206 604h-76l20 111h76zM118 525h72l-93 -525h-72zM95 -48l93 -115h-89l-76 115h72z" />
    <glyph glyph-name="Idotaccent" unicode="&#x130;" horiz-adv-x="261" 
d="M40 0l127 715h73l-127 -715h-73zM173 769l15 83h81l-15 -83h-81z" />
    <glyph glyph-name="dotlessi" unicode="&#x131;" horiz-adv-x="230" 
d="M118 525h72l-93 -525h-72z" />
    <glyph glyph-name="IJ" unicode="&#x132;" horiz-adv-x="732" 
d="M40 0l127 715h73l-127 -715h-73zM644 715h73l-92 -518q-20 -107 -64 -159t-138 -52q-161 0 -161 158q0 7 2 29h69q-1 -9 -1 -25q0 -105 97 -105q28 0 48.5 10.5t32.5 24.5t22.5 43t15 51t11.5 63z" />
    <glyph glyph-name="ij" unicode="&#x133;" horiz-adv-x="459" 
d="M206 604h-76l20 111h76zM118 525h72l-93 -525h-72zM347 525h72l-100 -570q-15 -82 -48.5 -117t-108.5 -35q-26 0 -38 4l10 58q2 -1 7 -1q3 -1 17 -1q39 0 58.5 16t28.5 64zM435 604h-76l20 111h76z" />
    <glyph glyph-name="Jcircumflex" unicode="&#x134;" horiz-adv-x="471" 
d="M383 715h73l-92 -518q-20 -107 -64 -159t-138 -52q-161 0 -161 158q0 7 2 29h69q-1 -9 -1 -25q0 -105 97 -105q28 0 48.5 10.5t32.5 24.5t22.5 43t15 51t11.5 63zM404 875h77q10 -15 36.5 -54.5t40.5 -59.5h-65l-56 67l-79 -67h-72q15 14 118 114z" />
    <glyph glyph-name="jcircumflex" unicode="&#x135;" horiz-adv-x="229" 
d="M117 525h72l-100 -570q-15 -82 -48.5 -117t-108.5 -35q-26 0 -38 4l10 58q2 -1 7 -1q3 -1 17 -1q39 0 58.5 16t28.5 64zM143 715h77q11 -17 38 -58.5t40 -60.5h-65l-57 72l-80 -72h-72q19 18 60 60t59 59z" />
    <glyph glyph-name="Kcommaaccent" unicode="&#x136;" horiz-adv-x="574" 
d="M40 0l127 715h74l-58 -328q341 303 368 328h100l-386 -339q82 -120 261 -376h-92q-146 209 -254 371l-66 -371h-74zM142 -163l93 115h69l-76 -115h-86z" />
    <glyph glyph-name="kcommaaccent" unicode="&#x137;" horiz-adv-x="492" 
d="M432 0h-92l-120 165l-77 106l-48 -271h-71l127 715h71l-75 -422l103 90q33 29 92 81t69 61h99q-134 -116 -289 -245q12 -17 211 -280zM89 -163l93 115h69l-76 -115h-86z" />
    <glyph glyph-name="kgreenlandic" unicode="&#x138;" horiz-adv-x="493" 
d="M118 525h71l-41 -232l103 90q33 29 92 81t69 61h99q-134 -116 -289 -245q11 -17 211 -280h-92l-120 165l-77 106l-48 -271h-71z" />
    <glyph glyph-name="Lacute" unicode="&#x139;" horiz-adv-x="527" 
d="M167 715h74l-115 -652h334l-12 -63h-408zM381 875l-137 -114h-76l111 114h102z" />
    <glyph glyph-name="lacute" unicode="&#x13a;" horiz-adv-x="238" 
d="M29 0l127 715h72l-127 -715h-72zM360 875l-137 -114h-76l111 114h102z" />
    <glyph glyph-name="Lcommaaccent" unicode="&#x13b;" horiz-adv-x="527" 
d="M167 715h74l-115 -652h334l-12 -63h-408zM128 -163l93 115h69l-76 -115h-86z" />
    <glyph glyph-name="lcommaaccent" unicode="&#x13c;" horiz-adv-x="238" 
d="M29 0l127 715h72l-127 -715h-72zM-62 -163l93 115h69l-76 -115h-86z" />
    <glyph glyph-name="Lcaron" unicode="&#x13d;" horiz-adv-x="527" 
d="M167 715h74l-115 -652h334l-12 -63h-408zM500 715l-119 -229h-60l104 229h75z" />
    <glyph glyph-name="lcaron" unicode="&#x13e;" horiz-adv-x="302" 
d="M29 0l127 715h72l-127 -715h-72zM442 715l-119 -229h-60l104 229h75z" />
    <glyph glyph-name="Ldot" unicode="&#x13f;" horiz-adv-x="527" 
d="M167 715h74l-115 -652h334l-12 -63h-408zM297 261l19 111h76l-19 -111h-76z" />
    <glyph glyph-name="ldot" unicode="&#x140;" horiz-adv-x="350" 
d="M29 0l127 715h72l-127 -715h-72zM249 261l19 111h76l-19 -111h-76z" />
    <glyph glyph-name="Lslash" unicode="&#x141;" horiz-adv-x="533" 
d="M174 715h74l-54 -301l163 95l-12 -71l-163 -95l-49 -280h334l-12 -63h-408l52 295l-87 -53l12 71l88 52z" />
    <glyph glyph-name="lslash" unicode="&#x142;" horiz-adv-x="249" 
d="M36 0l56 315l-79 -47l11 68l80 47l59 332h72l-51 -285l86 50l-12 -68l-86 -50l-64 -362h-72z" />
    <glyph glyph-name="Nacute" unicode="&#x143;" horiz-adv-x="730" 
d="M582 0h-108l-163 433q-69 176 -82 226h-2q-4 -20 -24.5 -145t-26.5 -157l-63 -357h-73l127 715h118l164 -439l73 -203h2q4 19 18 106t21 124l73 412h73zM587 875l-137 -114h-76l111 114h102z" />
    <glyph glyph-name="nacute" unicode="&#x144;" horiz-adv-x="581" 
d="M25 0l78 445q11 58 14 80h72l-14 -78q61 92 176 92q79 0 122 -41.5t43 -116.5q0 -33 -7 -73l-55 -308h-72l54 302q6 31 6 60q0 120 -114 120q-69 0 -115.5 -46.5t-59.5 -116.5l-56 -319h-72zM495 715l-142 -119h-76l116 119h102z" />
    <glyph glyph-name="Ncommaaccent" unicode="&#x145;" horiz-adv-x="730" 
d="M582 0h-108l-163 433q-69 176 -82 226h-2q-4 -20 -24.5 -145t-26.5 -157l-63 -357h-73l127 715h118l164 -439l73 -203h2q4 19 18 106t21 124l73 412h73zM364 -47l-93 -115h-69l76 115h86z" />
    <glyph glyph-name="ncommaaccent" unicode="&#x146;" horiz-adv-x="581" 
d="M25 0l78 445q11 58 14 80h72l-14 -78q61 92 176 92q79 0 122 -41.5t43 -116.5q0 -33 -7 -73l-55 -308h-72l54 302q6 31 6 60q0 120 -114 120q-69 0 -115.5 -46.5t-59.5 -116.5l-56 -319h-72zM288 -47l-93 -115h-69l76 115h86z" />
    <glyph glyph-name="Ncaron" unicode="&#x147;" horiz-adv-x="730" 
d="M582 0h-108l-163 433q-69 176 -82 226h-2q-4 -20 -24.5 -145t-26.5 -157l-63 -357h-73l127 715h118l164 -439l73 -203h2q4 19 18 106t21 124l73 412h73zM486 761h-77q-10 15 -36.5 54.5t-40.5 59.5h65l56 -67l79 67h72q-15 -14 -118 -114z" />
    <glyph glyph-name="ncaron" unicode="&#x148;" horiz-adv-x="581" 
d="M25 0l78 445q11 58 14 80h72l-14 -78q61 92 176 92q79 0 122 -41.5t43 -116.5q0 -33 -7 -73l-55 -308h-72l54 302q6 31 6 60q0 120 -114 120q-69 0 -115.5 -46.5t-59.5 -116.5l-56 -319h-72zM391 596h-77q-11 17 -38 58.5t-40 60.5h65l57 -72l80 72h72q-19 -18 -60 -60
t-59 -59z" />
    <glyph glyph-name="napostrophe" unicode="&#x149;" horiz-adv-x="659" 
d="M103 0l78 445q11 58 14 80h72l-14 -78q61 92 176 92q79 0 122 -41.5t43 -116.5q0 -33 -7 -73l-55 -308h-72l54 302q6 31 6 60q0 120 -114 120q-69 0 -115.5 -46.5t-59.5 -116.5l-56 -319h-72zM203 715l-119 -229h-60l104 229h75z" />
    <glyph glyph-name="Eng" unicode="&#x14a;" horiz-adv-x="730" 
d="M709 715l-124 -698q-20 -107 -64 -159t-138 -52q-77 0 -118 40.5t-41 117.5q0 7 2 29h69q-1 -9 -1 -25q0 -105 97 -105q54 0 80 34.5t40 102.5h-37l-163 433q-69 176 -82 226h-2q-4 -20 -24.5 -145t-26.5 -157l-63 -357h-73l127 715h118l164 -439l73 -203h2q4 19 18 106
t21 124l73 412h73z" />
    <glyph glyph-name="eng" unicode="&#x14b;" horiz-adv-x="581" 
d="M509 308l-63 -353q-15 -82 -48.5 -117t-108.5 -35q-26 0 -38 4l10 58q2 -1 7 -1q3 -1 17 -1q39 0 58.5 16t28.5 64l64 359q6 31 6 60q0 120 -114 120q-69 0 -115.5 -46.5t-59.5 -116.5l-56 -319h-72l78 445q11 58 14 80h72l-14 -78q61 92 176 92q79 0 122 -41.5
t43 -116.5q0 -33 -7 -73z" />
    <glyph glyph-name="Omacron" unicode="&#x14c;" horiz-adv-x="810" 
d="M443 729q148 0 239.5 -84t91.5 -231q0 -185 -107 -306.5t-286 -121.5q-145 0 -236 84.5t-91 236.5q0 114 43.5 208.5t133.5 154t212 59.5zM438 669q-98 0 -169.5 -52t-104 -130t-32.5 -171q0 -128 66 -199t187 -71q77 0 137.5 30.5t98 82.5t56.5 117t19 137
q0 117 -70.5 186.5t-187.5 69.5zM347 788l8 51h244l-8 -51h-244z" />
    <glyph glyph-name="omacron" unicode="&#x14d;" horiz-adv-x="623" 
d="M283 44q96 0 154.5 71.5t58.5 178.5q0 85 -46.5 136.5t-128.5 51.5q-98 0 -154.5 -74t-56.5 -181q0 -86 45 -134.5t128 -48.5zM278 -13q-114 0 -178.5 63t-64.5 174q0 134 78.5 224.5t214.5 90.5q113 0 179 -65t66 -174q0 -134 -80.5 -223.5t-214.5 -89.5zM220 630l8 51
h244l-8 -51h-244z" />
    <glyph glyph-name="Obreve" unicode="&#x14e;" horiz-adv-x="810" 
d="M443 729q148 0 239.5 -84t91.5 -231q0 -185 -107 -306.5t-286 -121.5q-145 0 -236 84.5t-91 236.5q0 114 43.5 208.5t133.5 154t212 59.5zM438 669q-98 0 -169.5 -52t-104 -130t-32.5 -171q0 -128 66 -199t187 -71q77 0 137.5 30.5t98 82.5t56.5 117t19 137
q0 117 -70.5 186.5t-187.5 69.5zM481 817q35 0 54.5 16t32.5 46h57q-38 -110 -152 -110q-117 0 -119 110h55q6 -62 72 -62z" />
    <glyph glyph-name="obreve" unicode="&#x14f;" horiz-adv-x="623" 
d="M283 44q96 0 154.5 71.5t58.5 178.5q0 85 -46.5 136.5t-128.5 51.5q-98 0 -154.5 -74t-56.5 -181q0 -86 45 -134.5t128 -48.5zM278 -13q-114 0 -178.5 63t-64.5 174q0 134 78.5 224.5t214.5 90.5q113 0 179 -65t66 -174q0 -134 -80.5 -223.5t-214.5 -89.5zM380 653
q35 0 54.5 16t32.5 46h57q-38 -110 -152 -110q-117 0 -119 110h55q6 -62 72 -62z" />
    <glyph glyph-name="Ohungarumlaut" unicode="&#x150;" horiz-adv-x="810" 
d="M443 729q148 0 239.5 -84t91.5 -231q0 -185 -107 -306.5t-286 -121.5q-145 0 -236 84.5t-91 236.5q0 114 43.5 208.5t133.5 154t212 59.5zM438 669q-98 0 -169.5 -52t-104 -130t-32.5 -171q0 -128 66 -199t187 -71q77 0 137.5 30.5t98 82.5t56.5 117t19 137
q0 117 -70.5 186.5t-187.5 69.5zM540 875l-137 -114h-75l111 114h101zM720 875l-137 -114h-75l111 114h101z" />
    <glyph glyph-name="ohungarumlaut" unicode="&#x151;" horiz-adv-x="623" 
d="M283 44q96 0 154.5 71.5t58.5 178.5q0 85 -46.5 136.5t-128.5 51.5q-98 0 -154.5 -74t-56.5 -181q0 -86 45 -134.5t128 -48.5zM278 -13q-114 0 -178.5 63t-64.5 174q0 134 78.5 224.5t214.5 90.5q113 0 179 -65t66 -174q0 -134 -80.5 -223.5t-214.5 -89.5zM424 715
l-142 -119h-74l116 119h100zM599 715l-142 -119h-74l116 119h100z" />
    <glyph glyph-name="OE" unicode="&#x152;" horiz-adv-x="1174" 
d="M628 0l19 113q-105 -127 -274 -127q-142 0 -230.5 84.5t-88.5 237.5q0 112 44 207t132.5 154.5t205.5 59.5q208 0 289 -164l27 150h442l-12 -63h-368l-44 -254h344l-11 -63h-344l-48 -272h375l-12 -63h-446zM439 669q-98 0 -169.5 -52t-104 -130t-32.5 -171
q0 -128 66 -199t187 -71q77 0 137.5 30.5t98 82.5t56.5 117t19 137q0 117 -70.5 186.5t-187.5 69.5z" />
    <glyph glyph-name="oe" unicode="&#x153;" horiz-adv-x="1041" 
d="M275 -13q-114 0 -177 63t-63 174q0 135 77.5 225t212.5 90q155 0 213 -118q79 118 229 118q114 0 172.5 -68t58.5 -186q0 -20 -1 -32h-443v-26q0 -85 46 -133.5t128 -48.5q122 0 174 104h73q-32 -74 -98 -118t-158 -44q-155 0 -211 116q-82 -116 -233 -116zM280 44
q96 0 153 71t57 179q0 85 -45 136.5t-127 51.5q-98 0 -153 -73.5t-55 -181.5q0 -86 43.5 -134.5t126.5 -48.5zM763 483q-79 0 -130 -47.5t-70 -126.5h362q-4 88 -46 131t-116 43z" />
    <glyph glyph-name="Racute" unicode="&#x154;" horiz-adv-x="598" 
d="M40 0l127 715h197q102 0 157 -32q71 -44 71 -135q0 -98 -59 -159.5t-163 -77.5l139 -311h-86l-133 305h-122l-54 -305h-74zM229 653l-50 -286h121q107 0 157 42q56 43 56 125q0 64 -44.5 91.5t-129.5 27.5h-110zM536 875l-137 -114h-76l111 114h102z" />
    <glyph glyph-name="racute" unicode="&#x155;" horiz-adv-x="311" 
d="M186 525l-15 -84q19 41 60.5 68.5t88.5 27.5q11 0 16 -1l-12 -69q-12 3 -29 3q-114 0 -145 -173l-53 -297h-72l79 446q12 75 13 79h69zM354 715l-142 -119h-76l116 119h102z" />
    <glyph glyph-name="Rcommaaccent" unicode="&#x156;" horiz-adv-x="598" 
d="M40 0l127 715h197q102 0 157 -32q71 -44 71 -135q0 -98 -59 -159.5t-163 -77.5l139 -311h-86l-133 305h-122l-54 -305h-74zM229 653l-50 -286h121q107 0 157 42q56 43 56 125q0 64 -44.5 91.5t-129.5 27.5h-110zM134 -163l93 115h69l-76 -115h-86z" />
    <glyph glyph-name="rcommaaccent" unicode="&#x157;" horiz-adv-x="311" 
d="M186 525l-15 -84q19 41 60.5 68.5t88.5 27.5q11 0 16 -1l-12 -69q-12 3 -29 3q-114 0 -145 -173l-53 -297h-72l79 446q12 75 13 79h69zM-58 -163l93 115h69l-76 -115h-86z" />
    <glyph glyph-name="Rcaron" unicode="&#x158;" horiz-adv-x="598" 
d="M40 0l127 715h197q102 0 157 -32q71 -44 71 -135q0 -98 -59 -159.5t-163 -77.5l139 -311h-86l-133 305h-122l-54 -305h-74zM229 653l-50 -286h121q107 0 157 42q56 43 56 125q0 64 -44.5 91.5t-129.5 27.5h-110zM410 761h-77q-10 15 -36.5 54.5t-40.5 59.5h65l56 -67
l79 67h72q-15 -14 -118 -114z" />
    <glyph glyph-name="rcaron" unicode="&#x159;" horiz-adv-x="311" 
d="M186 525l-15 -84q19 41 60.5 68.5t88.5 27.5q11 0 16 -1l-12 -69q-12 3 -29 3q-114 0 -145 -173l-53 -297h-72l79 446q12 75 13 79h69zM210 596h-77q-11 17 -38 58.5t-40 60.5h65l57 -72l80 72h72q-19 -18 -60 -60t-59 -59z" />
    <glyph glyph-name="Sacute" unicode="&#x15a;" horiz-adv-x="600" 
d="M19 204h73q7 -77 57 -117.5t133 -40.5q76 0 126 34t50 105q0 29 -10.5 51.5t-33 39t-40.5 26t-51 23.5q-9 4 -14 6l-40 17q-85 36 -126 76.5t-41 113.5q0 90 63 140.5t174 50.5q113 0 173.5 -52t65.5 -147h-70q-5 68 -51 104.5t-122 36.5q-75 0 -115 -31t-40 -88
q0 -52 32 -82t102 -59l46 -20q91 -39 134.5 -79t43.5 -108q0 -101 -71.5 -159t-190.5 -58q-113 0 -181 54.5t-76 162.5zM527 875l-137 -114h-76l111 114h102z" />
    <glyph glyph-name="sacute" unicode="&#x15b;" horiz-adv-x="495" 
d="M9 159h69q5 -54 41 -85.5t101 -31.5q63 0 98 25t35 71q0 37 -26 58t-78 37l-51 17q-66 23 -98.5 53t-32.5 86q0 67 53.5 108.5t140.5 41.5q90 0 142 -38t53 -114h-67q-12 97 -131 97q-56 0 -87.5 -22.5t-31.5 -61.5q0 -35 22.5 -55t75.5 -38l50 -17q67 -21 102.5 -51
t35.5 -87q0 -77 -55.5 -121t-151.5 -44q-94 0 -147.5 43.5t-61.5 128.5zM456 715l-142 -119h-76l116 119h102z" />
    <glyph glyph-name="Scircumflex" unicode="&#x15c;" horiz-adv-x="600" 
d="M19 204h73q7 -77 57 -117.5t133 -40.5q76 0 126 34t50 105q0 29 -10.5 51.5t-33 39t-40.5 26t-51 23.5q-9 4 -14 6l-40 17q-85 36 -126 76.5t-41 113.5q0 90 63 140.5t174 50.5q113 0 173.5 -52t65.5 -147h-70q-5 68 -51 104.5t-122 36.5q-75 0 -115 -31t-40 -88
q0 -52 32 -82t102 -59l46 -20q91 -39 134.5 -79t43.5 -108q0 -101 -71.5 -159t-190.5 -58q-113 0 -181 54.5t-76 162.5zM344 875h77q10 -15 36.5 -54.5t40.5 -59.5h-65l-56 67l-79 -67h-72q15 14 118 114z" />
    <glyph glyph-name="scircumflex" unicode="&#x15d;" horiz-adv-x="495" 
d="M9 159h69q5 -54 41 -85.5t101 -31.5q63 0 98 25t35 71q0 37 -26 58t-78 37l-51 17q-66 23 -98.5 53t-32.5 86q0 67 53.5 108.5t140.5 41.5q90 0 142 -38t53 -114h-67q-12 97 -131 97q-56 0 -87.5 -22.5t-31.5 -61.5q0 -35 22.5 -55t75.5 -38l50 -17q67 -21 102.5 -51
t35.5 -87q0 -77 -55.5 -121t-151.5 -44q-94 0 -147.5 43.5t-61.5 128.5zM269 715h77q11 -17 38 -58.5t40 -60.5h-65l-57 72l-80 -72h-72q19 18 60 60t59 59z" />
    <glyph glyph-name="Scedilla" unicode="&#x15e;" horiz-adv-x="600" 
d="M19 204h73q7 -77 57 -117.5t133 -40.5q76 0 126 34t50 105q0 29 -10.5 51.5t-33 39t-40.5 26t-51 23.5q-9 4 -14 6l-40 17q-85 36 -126 76.5t-41 113.5q0 90 63 140.5t174 50.5q113 0 173.5 -52t65.5 -147h-70q-5 68 -51 104.5t-122 36.5q-75 0 -115 -31t-40 -88
q0 -52 32 -82t102 -59l46 -20q91 -39 134.5 -79t43.5 -108q0 -101 -71.5 -159t-190.5 -58q-113 0 -181 54.5t-76 162.5zM130 -163l93 115h69l-76 -115h-86z" />
    <glyph glyph-name="scedilla" unicode="&#x15f;" horiz-adv-x="495" 
d="M9 159h69q5 -54 41 -85.5t101 -31.5q63 0 98 25t35 71q0 37 -26 58t-78 37l-51 17q-66 23 -98.5 53t-32.5 86q0 67 53.5 108.5t140.5 41.5q90 0 142 -38t53 -114h-67q-12 97 -131 97q-56 0 -87.5 -22.5t-31.5 -61.5q0 -35 22.5 -55t75.5 -38l50 -17q67 -21 102.5 -51
t35.5 -87q0 -77 -55.5 -121t-151.5 -44q-94 0 -147.5 43.5t-61.5 128.5zM86 -163l93 115h69l-76 -115h-86z" />
    <glyph glyph-name="Scaron" unicode="&#x160;" horiz-adv-x="600" 
d="M19 204h73q7 -77 57 -117.5t133 -40.5q76 0 126 34t50 105q0 29 -10.5 51.5t-33 39t-40.5 26t-51 23.5q-9 4 -14 6l-40 17q-85 36 -126 76.5t-41 113.5q0 90 63 140.5t174 50.5q113 0 173.5 -52t65.5 -147h-70q-5 68 -51 104.5t-122 36.5q-75 0 -115 -31t-40 -88
q0 -52 32 -82t102 -59l46 -20q91 -39 134.5 -79t43.5 -108q0 -101 -71.5 -159t-190.5 -58q-113 0 -181 54.5t-76 162.5zM408 761h-77q-10 15 -36.5 54.5t-40.5 59.5h65l56 -67l79 67h72q-15 -14 -118 -114z" />
    <glyph glyph-name="scaron" unicode="&#x161;" horiz-adv-x="495" 
d="M9 159h69q5 -54 41 -85.5t101 -31.5q63 0 98 25t35 71q0 37 -26 58t-78 37l-51 17q-66 23 -98.5 53t-32.5 86q0 67 53.5 108.5t140.5 41.5q90 0 142 -38t53 -114h-67q-12 97 -131 97q-56 0 -87.5 -22.5t-31.5 -61.5q0 -35 22.5 -55t75.5 -38l50 -17q67 -21 102.5 -51
t35.5 -87q0 -77 -55.5 -121t-151.5 -44q-94 0 -147.5 43.5t-61.5 128.5zM327 596h-77q-11 17 -38 58.5t-40 60.5h65l57 -72l80 72h72q-19 -18 -60 -60t-59 -59z" />
    <glyph glyph-name="uni0162" unicode="&#x162;" horiz-adv-x="537" 
d="M177 0l115 652h-206l12 63h485l-12 -63h-206l-115 -652h-73zM89 -163l93 115h69l-76 -115h-86z" />
    <glyph glyph-name="uni0163" unicode="&#x163;" horiz-adv-x="287" 
d="M124 472h-81l9 53h81l25 142h72l-25 -142h100l-9 -53h-100l-61 -350q-3 -15 -3 -27q0 -26 15 -37t48 -11q8 0 16 1l-10 -56q-14 -2 -27 -2q-117 0 -117 88q0 16 5 44zM20 -163l93 115h69l-76 -115h-86z" />
    <glyph glyph-name="Tcaron" unicode="&#x164;" horiz-adv-x="537" 
d="M177 0l115 652h-206l12 63h485l-12 -63h-206l-115 -652h-73zM386 761h-77q-10 15 -36.5 54.5t-40.5 59.5h65l56 -67l79 67h72q-15 -14 -118 -114z" />
    <glyph glyph-name="tcaron" unicode="&#x165;" horiz-adv-x="330" 
d="M124 472h-81l9 53h81l25 142h72l-25 -142h100l-9 -53h-100l-61 -350q-3 -15 -3 -27q0 -26 15 -37t48 -11q8 0 16 1l-10 -56q-14 -2 -27 -2q-117 0 -117 88q0 16 5 44zM489 715l-119 -229h-60l104 229h75z" />
    <glyph glyph-name="Tbar" unicode="&#x166;" horiz-adv-x="556" 
d="M487 396l-11 -63h-159l-59 -333h-73l59 333h-146l11 63h146l45 256h-206l12 63h485l-12 -63h-206l-45 -256h159z" />
    <glyph glyph-name="tbar" unicode="&#x167;" horiz-adv-x="290" 
d="M126 472h-81l9 53h81l25 142h72l-25 -142h100l-9 -53h-100l-21 -121h80l-9 -55h-81l-30 -174q-3 -15 -3 -27q0 -26 15 -37t48 -11q8 0 16 1l-10 -56q-14 -2 -27 -2q-117 0 -117 88q0 16 5 44l31 174h-70l9 55h70z" />
    <glyph glyph-name="Utilde" unicode="&#x168;" horiz-adv-x="684" 
d="M297 -14q-109 0 -167 50t-58 145q0 37 9 93l78 441h73l-79 -446q-7 -44 -7 -73q0 -69 39 -110t123 -41q97 0 144 58.5t69 180.5l76 431h73l-80 -449q-15 -90 -48 -152q-71 -128 -245 -128zM330 765h-50q3 46 23 70t54 24q26 0 75 -20q43 -18 57 -18q31 0 37 46h49
q-6 -97 -80 -97q-26 0 -66 17q-46 21 -63 21q-31 0 -36 -43z" />
    <glyph glyph-name="utilde" unicode="&#x169;" horiz-adv-x="578" 
d="M538 525l-79 -445q-6 -31 -13 -80h-72l14 78q-61 -92 -174 -92q-79 0 -121.5 41.5t-42.5 116.5q0 33 7 73l55 308h72l-54 -302q-6 -31 -6 -60q0 -120 113 -120q69 0 114.5 46.5t58.5 116.5l55 319h73zM253 613h-50q3 46 23 70t54 24q26 0 75 -20q43 -18 57 -18
q31 0 37 46h49q-6 -97 -80 -97q-26 0 -66 17q-46 21 -63 21q-31 0 -36 -43z" />
    <glyph glyph-name="Umacron" unicode="&#x16a;" horiz-adv-x="684" 
d="M297 -14q-109 0 -167 50t-58 145q0 37 9 93l78 441h73l-79 -446q-7 -44 -7 -73q0 -69 39 -110t123 -41q97 0 144 58.5t69 180.5l76 431h73l-80 -449q-15 -90 -48 -152q-71 -128 -245 -128zM302 788l8 51h244l-8 -51h-244z" />
    <glyph glyph-name="umacron" unicode="&#x16b;" horiz-adv-x="578" 
d="M538 525l-79 -445q-6 -31 -13 -80h-72l14 78q-61 -92 -174 -92q-79 0 -121.5 41.5t-42.5 116.5q0 33 7 73l55 308h72l-54 -302q-6 -31 -6 -60q0 -120 113 -120q69 0 114.5 46.5t58.5 116.5l55 319h73zM220 630l8 51h244l-8 -51h-244z" />
    <glyph glyph-name="Ubreve" unicode="&#x16c;" horiz-adv-x="684" 
d="M297 -14q-109 0 -167 50t-58 145q0 37 9 93l78 441h73l-79 -446q-7 -44 -7 -73q0 -69 39 -110t123 -41q97 0 144 58.5t69 180.5l76 431h73l-80 -449q-15 -90 -48 -152q-71 -128 -245 -128zM422 817q35 0 54.5 16t32.5 46h57q-38 -110 -152 -110q-117 0 -119 110h55
q6 -62 72 -62z" />
    <glyph glyph-name="ubreve" unicode="&#x16d;" horiz-adv-x="578" 
d="M538 525l-79 -445q-6 -31 -13 -80h-72l14 78q-61 -92 -174 -92q-79 0 -121.5 41.5t-42.5 116.5q0 33 7 73l55 308h72l-54 -302q-6 -31 -6 -60q0 -120 113 -120q69 0 114.5 46.5t58.5 116.5l55 319h73zM341 653q35 0 54.5 16t32.5 46h57q-38 -110 -152 -110
q-117 0 -119 110h55q6 -62 72 -62z" />
    <glyph glyph-name="Uring" unicode="&#x16e;" horiz-adv-x="684" 
d="M297 -14q-109 0 -167 50t-58 145q0 37 9 93l78 441h73l-79 -446q-7 -44 -7 -73q0 -69 39 -110t123 -41q97 0 144 58.5t69 180.5l76 431h73l-80 -449q-15 -90 -48 -152q-71 -128 -245 -128zM425 751q-36 0 -60 24.5t-24 61.5q0 35 24.5 59.5t60.5 24.5t60.5 -24.5
t24.5 -59.5q0 -37 -24.5 -61.5t-61.5 -24.5zM376 837q0 -22 14 -37t35 -15q22 0 36 14.5t14 37.5q0 21 -14.5 35.5t-35.5 14.5t-35 -14.5t-14 -35.5z" />
    <glyph glyph-name="uring" unicode="&#x16f;" horiz-adv-x="578" 
d="M538 525l-79 -445q-6 -31 -13 -80h-72l14 78q-61 -92 -174 -92q-79 0 -121.5 41.5t-42.5 116.5q0 33 7 73l55 308h72l-54 -302q-6 -31 -6 -60q0 -120 113 -120q69 0 114.5 46.5t58.5 116.5l55 319h73zM343 591q-36 0 -60 24.5t-24 61.5q0 35 24.5 59.5t60.5 24.5
t60.5 -24.5t24.5 -59.5q0 -37 -24.5 -61.5t-61.5 -24.5zM294 677q0 -22 14 -37t35 -15q22 0 36 14.5t14 37.5q0 21 -14.5 35.5t-35.5 14.5t-35 -14.5t-14 -35.5z" />
    <glyph glyph-name="Uhungarumlaut" unicode="&#x170;" horiz-adv-x="684" 
d="M297 -14q-109 0 -167 50t-58 145q0 37 9 93l78 441h73l-79 -446q-7 -44 -7 -73q0 -69 39 -110t123 -41q97 0 144 58.5t69 180.5l76 431h73l-80 -449q-15 -90 -48 -152q-71 -128 -245 -128zM486 875l-137 -114h-75l111 114h101zM666 875l-137 -114h-75l111 114h101z" />
    <glyph glyph-name="uhungarumlaut" unicode="&#x171;" horiz-adv-x="578" 
d="M538 525l-79 -445q-6 -31 -13 -80h-72l14 78q-61 -92 -174 -92q-79 0 -121.5 41.5t-42.5 116.5q0 33 7 73l55 308h72l-54 -302q-6 -31 -6 -60q0 -120 113 -120q69 0 114.5 46.5t58.5 116.5l55 319h73zM402 715l-142 -119h-74l116 119h100zM577 715l-142 -119h-74l116 119
h100z" />
    <glyph glyph-name="Uogonek" unicode="&#x172;" horiz-adv-x="684" 
d="M297 -14q-109 0 -167 50t-58 145q0 37 9 93l78 441h73l-79 -446q-7 -44 -7 -73q0 -69 39 -110t123 -41q97 0 144 58.5t69 180.5l76 431h73l-80 -449q-15 -90 -48 -152q-71 -128 -245 -128zM318 -48l93 -115h-89l-76 115h72z" />
    <glyph glyph-name="uogonek" unicode="&#x173;" horiz-adv-x="578" 
d="M538 525l-79 -445q-6 -31 -13 -80h-72l14 78q-61 -92 -174 -92q-79 0 -121.5 41.5t-42.5 116.5q0 33 7 73l55 308h72l-54 -302q-6 -31 -6 -60q0 -120 113 -120q69 0 114.5 46.5t58.5 116.5l55 319h73zM252 -48l93 -115h-89l-76 115h72z" />
    <glyph glyph-name="Wcircumflex" unicode="&#x174;" horiz-adv-x="885" 
d="M926 715l-284 -715h-113l-15 391q-9 193 -9 263h-2q-12 -32 -55 -137t-62 -155l-147 -362h-112l-24 715h80l6 -440q0 -30 2.5 -100t0.5 -117h3q33 95 84 213l180 444h113l17 -434q1 -29 3 -74.5t3.5 -80.5t1.5 -67h2q14 37 40.5 109.5t42.5 114.5l166 432h78zM499 875h77
q10 -15 36.5 -54.5t40.5 -59.5h-65l-56 67l-79 -67h-72q15 14 118 114z" />
    <glyph glyph-name="wcircumflex" unicode="&#x175;" horiz-adv-x="799" 
d="M223 0h-92l-26 199q-8 65 -24 184.5t-19 141.5h72l30 -270q2 -19 10.5 -85t12.5 -110h2q18 43 95 217l109 248h94l16 -236q3 -51 8 -124.5t7 -103.5h2q39 87 114 240l109 224h69q-18 -36 -74.5 -151t-87.5 -175l-99 -199h-92l-15 202l-15 258h-3q-79 -189 -113 -262z
M427 715h77q11 -17 38 -58.5t40 -60.5h-65l-57 72l-80 -72h-72q19 18 60 60t59 59z" />
    <glyph glyph-name="Ycircumflex" unicode="&#x176;" horiz-adv-x="593" 
d="M200 0l49 275l-171 440h82q21 -58 71 -188t68 -180q42 57 135.5 183t134.5 185h86l-332 -440l-49 -275h-74zM342 875h77q10 -15 36.5 -54.5t40.5 -59.5h-65l-56 67l-79 -67h-72q15 14 118 114z" />
    <glyph glyph-name="ycircumflex" unicode="&#x177;" horiz-adv-x="522" 
d="M136 -180h-75l109 181q-17 86 -59.5 269t-57.5 255h79q16 -81 47.5 -234.5t41.5 -205.5h1q28 52 125 228.5t116 211.5h78q-299 -524 -405 -705zM288 715h77q11 -17 38 -58.5t40 -60.5h-65l-57 72l-80 -72h-72q19 18 60 60t59 59z" />
    <glyph glyph-name="Ydieresis" unicode="&#x178;" horiz-adv-x="593" 
d="M200 0l49 275l-171 440h82q21 -58 71 -188t68 -180q42 57 135.5 183t134.5 185h86l-332 -440l-49 -275h-74zM248 766l15 80h79l-15 -80h-79zM401 766l15 80h78l-15 -80h-78z" />
    <glyph glyph-name="Zacute" unicode="&#x179;" horiz-adv-x="572" 
d="M-19 0l11 60q19 20 115 131l321 368q14 16 79 92h-409l12 64h496l-11 -60q-6 -7 -41 -50t-66 -78l-307 -350q-13 -14 -34 -38t-41 -46.5t-25 -28.5h413l-12 -64h-501zM507 875l-137 -114h-76l111 114h102z" />
    <glyph glyph-name="zacute" unicode="&#x17a;" horiz-adv-x="496" 
d="M-20 0l10 55l289 296q18 19 43.5 44.5t43 43.5t24.5 26q-18 0 -79.5 -0.5t-81.5 -0.5h-156l11 61h414l-10 -55l-285 -286l-124 -124q18 0 76 0.5t81 0.5h176l-11 -61h-421zM453 715l-142 -119h-76l116 119h102z" />
    <glyph glyph-name="Zdotaccent" unicode="&#x17b;" horiz-adv-x="572" 
d="M-19 0l11 60q19 20 115 131l321 368q14 16 79 92h-409l12 64h496l-11 -60q-6 -7 -41 -50t-66 -78l-307 -350q-13 -14 -34 -38t-41 -46.5t-25 -28.5h413l-12 -64h-501zM308 769l15 83h81l-15 -83h-81z" />
    <glyph glyph-name="zdotaccent" unicode="&#x17c;" horiz-adv-x="496" 
d="M-20 0l10 55l289 296q18 19 43.5 44.5t43 43.5t24.5 26q-18 0 -79.5 -0.5t-81.5 -0.5h-156l11 61h414l-10 -55l-285 -286l-124 -124q18 0 76 0.5t81 0.5h176l-11 -61h-421zM252 609l15 83h81l-15 -83h-81z" />
    <glyph glyph-name="Zcaron" unicode="&#x17d;" horiz-adv-x="572" 
d="M-19 0l11 60q19 20 115 131l321 368q14 16 79 92h-409l12 64h496l-11 -60q-6 -7 -41 -50t-66 -78l-307 -350q-13 -14 -34 -38t-41 -46.5t-25 -28.5h413l-12 -64h-501zM397 761h-77q-10 15 -36.5 54.5t-40.5 59.5h65l56 -67l79 67h72q-15 -14 -118 -114z" />
    <glyph glyph-name="zcaron" unicode="&#x17e;" horiz-adv-x="496" 
d="M-20 0l10 55l289 296q18 19 43.5 44.5t43 43.5t24.5 26q-18 0 -79.5 -0.5t-81.5 -0.5h-156l11 61h414l-10 -55l-285 -286l-124 -124q18 0 76 0.5t81 0.5h176l-11 -61h-421zM331 596h-77q-11 17 -38 58.5t-40 60.5h65l57 -72l80 72h72q-19 -18 -60 -60t-59 -59z" />
    <glyph glyph-name="uni0186" unicode="&#x186;" horiz-adv-x="762" 
d="M133 509h-73q99 220 339 220q146 0 236.5 -83.5t90.5 -237.5q0 -82 -25.5 -157t-72.5 -134.5t-122 -95t-167 -35.5q-125 0 -204.5 59.5t-106.5 169.5h73q23 -81 85.5 -125t157.5 -44q98 0 169 52t103 130t32 171q0 128 -66 199t-187 71q-182 0 -262 -160z" />
    <glyph glyph-name="uni018F" unicode="&#x18f;" horiz-adv-x="784" 
d="M49 379l624 3q0 4 0.5 11t0.5 10q0 123 -70.5 194.5t-189.5 71.5q-186 0 -258 -161h-78q11 30 28 58t46.5 58.5t65.5 53t88 37t111 14.5q154 0 242.5 -86t88.5 -236q0 -113 -45.5 -208t-135 -154t-207.5 -59q-154 0 -234.5 88.5t-80.5 235.5q0 37 4 69zM665 317h-549v-13
q0 -124 67.5 -191t187.5 -67q121 0 198 78.5t96 192.5z" />
    <glyph glyph-name="uni0190" unicode="&#x190;" horiz-adv-x="553" 
d="M561 509h-73q2 80 -39 121.5t-115 41.5q-82 0 -130 -45.5t-48 -125.5q0 -71 51.5 -106.5t127.5 -35.5h12l-11 -59h-8q-195 0 -195 -145q0 -52 32 -81t91 -29q117 0 147 132h74q-15 -87 -75 -139t-157 -52q-89 0 -138.5 43.5t-49.5 111.5q0 71 41.5 118t114.5 65
q-52 17 -92 60.5t-40 113.5q0 103 69.5 167t185.5 64q110 0 169.5 -57t55.5 -163z" />
    <glyph glyph-name="florin" unicode="&#x192;" horiz-adv-x="374" 
d="M246 499l-3 -18h125l-8 -53h-124l-51 -360q-21 -139 -65 -196t-137 -57q-26 0 -37 3q2 10 4 29t3 29q7 -1 25 -1q65 0 91 41t39 139l54 373h-115l8 53h115l2 11q17 119 61 174.5t138 55.5q27 0 34 -2l-8 -60q-7 1 -29 1q-59 0 -85 -39.5t-37 -122.5z" />
    <glyph glyph-name="uni019D" unicode="&#x19d;" horiz-adv-x="729" 
d="M175 357l-71 -402q-15 -82 -48.5 -117t-108.5 -35q-26 0 -38 4l10 58q2 -1 7 -1q3 -1 17 -1q39 0 58 16t28 64l137 772h118l164 -439l73 -203h2q4 19 18 106t21 124l73 412h73l-127 -715h-108l-163 433q-69 176 -82 226h-2q-4 -20 -24.5 -145t-26.5 -157z" />
    <glyph glyph-name="uni019F" unicode="&#x19f;" horiz-adv-x="810" 
d="M443 729q148 0 239.5 -84t91.5 -231q0 -185 -107 -306.5t-286 -121.5q-145 0 -236 84.5t-91 236.5q0 114 43.5 208.5t133.5 154t212 59.5zM385 46q129 0 207.5 80.5t97.5 205.5h-558v-16q0 -128 66 -199t187 -71zM438 669q-125 0 -203 -78.5t-97 -197.5h558v20
q0 117 -70.5 186.5t-187.5 69.5z" />
    <glyph glyph-name="Ohorn" unicode="&#x1a0;" horiz-adv-x="810" 
d="M443 729q148 0 239.5 -84t91.5 -231q0 -185 -107 -306.5t-286 -121.5q-145 0 -236 84.5t-91 236.5q0 114 43.5 208.5t133.5 154t212 59.5zM438 669q-98 0 -169.5 -52t-104 -130t-32.5 -171q0 -128 66 -199t187 -71q77 0 137.5 30.5t98 82.5t56.5 117t19 137
q0 117 -70.5 186.5t-187.5 69.5zM761 906l-135 -191h-60l120 191h75z" />
    <glyph glyph-name="ohorn" unicode="&#x1a1;" horiz-adv-x="623" 
d="M283 44q96 0 154.5 71.5t58.5 178.5q0 85 -46.5 136.5t-128.5 51.5q-98 0 -154.5 -74t-56.5 -181q0 -86 45 -134.5t128 -48.5zM278 -13q-114 0 -178.5 63t-64.5 174q0 134 78.5 224.5t214.5 90.5q113 0 179 -65t66 -174q0 -134 -80.5 -223.5t-214.5 -89.5zM631 715
l-135 -191h-60l120 191h75z" />
    <glyph glyph-name="Uhorn" unicode="&#x1af;" horiz-adv-x="684" 
d="M732 906l-102 -191h40l-80 -449q-15 -90 -48 -152q-71 -128 -245 -128q-109 0 -167 50t-58 145q0 37 9 93l78 441h73l-79 -446q-7 -44 -7 -73q0 -69 39 -110t123 -41q97 0 144 58.5t69 180.5l76 431h-27l87 191h75z" />
    <glyph glyph-name="uhorn" unicode="&#x1b0;" horiz-adv-x="578" 
d="M605 715l-102 -190h35l-79 -445q-6 -31 -13 -80h-72l14 78q-61 -92 -174 -92q-79 0 -121.5 41.5t-42.5 116.5q0 33 7 73l55 308h72l-54 -302q-6 -31 -6 -60q0 -120 113 -120q69 0 114.5 46.5t58.5 116.5l55 319h-22l87 190h75z" />
    <glyph glyph-name="uni01C4" unicode="&#x1c4;" horiz-adv-x="1290" 
d="M40 0l127 715h116q96 0 145 -8q120 -20 186.5 -87t66.5 -203q0 -166 -89 -277q-35 -45 -79 -74t-98 -43t-103.5 -18.5t-117.5 -4.5h-154zM230 654l-105 -593h116q122 0 202 41q162 85 162 313q0 163 -132 217q-54 22 -144 22h-99zM699 0l11 60q19 20 115 131l321 368
q14 16 79 92h-409l12 64h496l-11 -60q-6 -7 -41 -50t-66 -78l-307 -350q-13 -14 -34 -38t-41 -46.5t-25 -28.5h413l-12 -64h-501zM1115 761h-77q-10 15 -36.5 54.5t-40.5 59.5h65l56 -67l79 67h72q-15 -14 -118 -114z" />
    <glyph glyph-name="uni01C5" unicode="&#x1c5;" horiz-adv-x="1214" 
d="M40 0l127 715h116q96 0 145 -8q120 -20 186.5 -87t66.5 -203q0 -166 -89 -277q-35 -45 -79 -74t-98 -43t-103.5 -18.5t-117.5 -4.5h-154zM230 654l-105 -593h116q122 0 202 41q162 85 162 313q0 163 -132 217q-54 22 -144 22h-99zM698 0l10 55l289 296q18 19 43.5 44.5
t43 43.5t24.5 26q-18 0 -79.5 -0.5t-81.5 -0.5h-156l11 61h414l-10 -55l-285 -286l-124 -124q18 0 76 0.5t81 0.5h176l-11 -61h-421zM1049 596h-77q-11 17 -38 58.5t-40 60.5h65l57 -72l80 72h72q-19 -18 -60 -60t-59 -59z" />
    <glyph glyph-name="uni01C6" unicode="&#x1c6;" horiz-adv-x="1118" 
d="M489 0h-66l14 76q-24 -36 -71 -63t-115 -27q-96 0 -156 63t-60 169q0 138 77 229t196 91q70 0 119.5 -31.5t68.5 -78.5l5 37q7 52 14 88l29 162h72zM310 480q-91 0 -144.5 -72.5t-53.5 -180.5q0 -82 41.5 -132.5t120.5 -50.5q96 0 147 77t51 182q0 81 -41.5 129
t-120.5 48zM602 0l10 55l289 296q18 19 43.5 44.5t43 43.5t24.5 26q-18 0 -79.5 -0.5t-81.5 -0.5h-156l11 61h414l-10 -55l-285 -286l-124 -124q18 0 76 0.5t81 0.5h176l-11 -61h-421zM953 596h-77q-11 17 -38 58.5t-40 60.5h65l57 -72l80 72h72q-19 -18 -60 -60t-59 -59z
" />
    <glyph glyph-name="uni01C7" unicode="&#x1c7;" horiz-adv-x="998" 
d="M167 715h74l-115 -652h334l-12 -63h-408zM910 715h73l-92 -518q-20 -107 -64 -159t-138 -52q-161 0 -161 158q0 7 2 29h69q-1 -9 -1 -25q0 -105 97 -105q28 0 48.5 10.5t32.5 24.5t22.5 43t15 51t11.5 63z" />
    <glyph glyph-name="uni01C8" unicode="&#x1c8;" horiz-adv-x="756" 
d="M167 715h74l-115 -652h334l-12 -63h-408zM644 525h72l-100 -570q-15 -82 -48.5 -117t-108.5 -35q-26 0 -38 4l10 58q2 -1 7 -1q3 -1 17 -1q39 0 58.5 16t28.5 64zM732 604h-76l20 111h76z" />
    <glyph glyph-name="uni01C9" unicode="&#x1c9;" horiz-adv-x="467" 
d="M29 0l127 715h72l-127 -715h-72zM355 525h72l-100 -570q-15 -82 -48.5 -117t-108.5 -35q-26 0 -38 4l10 58q2 -1 7 -1q3 -1 17 -1q39 0 58.5 16t28.5 64zM443 604h-76l20 111h76z" />
    <glyph glyph-name="uni01CA" unicode="&#x1ca;" horiz-adv-x="1201" 
d="M582 0h-108l-163 433q-69 176 -82 226h-2q-4 -20 -24.5 -145t-26.5 -157l-63 -357h-73l127 715h118l164 -439l73 -203h2q4 19 18 106t21 124l73 412h73zM1113 715h73l-92 -518q-20 -107 -64 -159t-138 -52q-161 0 -161 158q0 7 2 29h69q-1 -9 -1 -25q0 -105 97 -105
q28 0 48.5 10.5t32.5 24.5t22.5 43t15 51t11.5 63z" />
    <glyph glyph-name="uni01CB" unicode="&#x1cb;" horiz-adv-x="959" 
d="M582 0h-108l-163 433q-69 176 -82 226h-2q-4 -20 -24.5 -145t-26.5 -157l-63 -357h-73l127 715h118l164 -439l73 -203h2q4 19 18 106t21 124l73 412h73zM847 525h72l-100 -570q-15 -82 -48.5 -117t-108.5 -35q-26 0 -38 4l10 58q2 -1 7 -1q3 -1 17 -1q39 0 58.5 16
t28.5 64zM935 604h-76l20 111h76z" />
    <glyph glyph-name="uni01CC" unicode="&#x1cc;" horiz-adv-x="810" 
d="M25 0l78 445q11 58 14 80h72l-14 -78q61 92 176 92q79 0 122 -41.5t43 -116.5q0 -33 -7 -73l-55 -308h-72l54 302q6 31 6 60q0 120 -114 120q-69 0 -115.5 -46.5t-59.5 -116.5l-56 -319h-72zM698 525h72l-100 -570q-15 -82 -48.5 -117t-108.5 -35q-26 0 -38 4l10 58
q2 -1 7 -1q3 -1 17 -1q39 0 58.5 16t28.5 64zM786 604h-76l20 111h76z" />
    <glyph glyph-name="uni01F1" unicode="&#x1f1;" horiz-adv-x="1276" 
d="M40 0l127 715h116q96 0 145 -8q120 -20 186.5 -87t66.5 -203q0 -166 -89 -277q-35 -45 -79 -74t-98 -43t-103.5 -18.5t-117.5 -4.5h-154zM230 654l-105 -593h116q122 0 202 41q162 85 162 313q0 163 -132 217q-54 22 -144 22h-99zM685 0l11 60q19 20 115 131l321 368
q14 16 79 92h-409l12 64h496l-11 -60q-6 -7 -41 -50t-66 -78l-307 -350q-13 -14 -34 -38t-41 -46.5t-25 -28.5h413l-12 -64h-501z" />
    <glyph glyph-name="uni01F2" unicode="&#x1f2;" horiz-adv-x="1214" 
d="M40 0l127 715h116q96 0 145 -8q120 -20 186.5 -87t66.5 -203q0 -166 -89 -277q-35 -45 -79 -74t-98 -43t-103.5 -18.5t-117.5 -4.5h-154zM230 654l-105 -593h116q122 0 202 41q162 85 162 313q0 163 -132 217q-54 22 -144 22h-99zM698 0l10 55l289 296q18 19 43.5 44.5
t43 43.5t24.5 26q-18 0 -79.5 -0.5t-81.5 -0.5h-156l11 61h414l-10 -55l-285 -286l-124 -124q18 0 76 0.5t81 0.5h176l-11 -61h-421z" />
    <glyph glyph-name="uni01F3" unicode="&#x1f3;" horiz-adv-x="1118" 
d="M489 0h-66l14 76q-24 -36 -71 -63t-115 -27q-96 0 -156 63t-60 169q0 138 77 229t196 91q70 0 119.5 -31.5t68.5 -78.5l5 37q7 52 14 88l29 162h72zM310 480q-91 0 -144.5 -72.5t-53.5 -180.5q0 -82 41.5 -132.5t120.5 -50.5q96 0 147 77t51 182q0 81 -41.5 129
t-120.5 48zM602 0l10 55l289 296q18 19 43.5 44.5t43 43.5t24.5 26q-18 0 -79.5 -0.5t-81.5 -0.5h-156l11 61h414l-10 -55l-285 -286l-124 -124q18 0 76 0.5t81 0.5h176l-11 -61h-421z" />
    <glyph glyph-name="Aringacute" unicode="&#x1fa;" horiz-adv-x="674" 
d="M-49 0l419 715h86l163 -715h-74l-52 236h-331l-134 -236h-77zM404 656h-2q-124 -217 -167 -294l-40 -68h285l-16 77q-4 19 -27 124t-33 161zM426 752q-36 0 -60 24.5t-24 61.5q0 35 24.5 59.5t60.5 24.5t60.5 -24.5t24.5 -59.5q0 -37 -24.5 -61.5t-61.5 -24.5zM377 838
q0 -22 14 -37t35 -15q22 0 36 14.5t14 37.5q0 21 -14.5 35.5t-35.5 14.5t-35 -14.5t-14 -35.5zM602 1071l-142 -119h-76l116 119h102z" />
    <glyph glyph-name="aringacute" unicode="&#x1fb;" horiz-adv-x="549" 
d="M147 366h-73q14 79 74.5 126t154.5 47q181 0 181 -156q0 -31 -21 -150l-22 -124q-10 -61 -10 -91q0 -4 0.5 -9t0.5 -9h-67v13q0 33 8 73q-69 -96 -202 -96q-75 0 -118 33.5t-43 93.5q0 144 253 179q87 14 146 18q6 30 6 58q0 110 -123 110q-118 0 -145 -116zM396 233
q5 26 6 29q-82 -9 -138 -19q-92 -18 -124 -35q-52 -29 -52 -82q0 -42 29 -63.5t80 -21.5q79 0 130.5 49t68.5 143zM327 577q-36 0 -60 24.5t-24 61.5q0 35 24.5 59.5t60.5 24.5t60.5 -24.5t24.5 -59.5q0 -37 -24.5 -61.5t-61.5 -24.5zM278 663q0 -22 14 -37t35 -15
q22 0 36 14.5t14 37.5q0 21 -14.5 35.5t-35.5 14.5t-35 -14.5t-14 -35.5zM505 902l-142 -119h-76l116 119h102z" />
    <glyph glyph-name="AEacute" unicode="&#x1fc;" horiz-adv-x="881" 
d="M903 715l-12 -63h-342l-38 -254h312l-11 -63h-310l-43 -273h335l-11 -62h-406l33 209h-245l-149 -209h-76l514 715h449zM417 270l30 188q7 53 19 114.5t15 82.5h-5q-4 -6 -44.5 -66t-62.5 -92l-160 -227h208zM778 875l-137 -114h-76l111 114h102z" />
    <glyph glyph-name="aeacute" unicode="&#x1fd;" horiz-adv-x="953" 
d="M814 149h73q-32 -74 -98 -118t-158 -44q-164 0 -218 131q-71 -128 -239 -128q-78 0 -121 33t-43 94q0 144 253 179q87 14 146 18q6 30 6 58q0 110 -123 110q-118 0 -145 -116h-73q14 78 75 125.5t153 47.5q132 0 166 -94q79 94 211 94q114 0 172.5 -68t58.5 -186
q0 -20 -1 -32h-443v-26q0 -85 46 -133.5t128 -48.5q122 0 174 104zM675 483q-79 0 -130 -47.5t-70 -126.5h362q-4 88 -46 131t-116 43zM396 233q5 26 6 29q-82 -9 -138 -19q-92 -18 -124 -35q-52 -29 -52 -82q0 -42 29 -63.5t80 -21.5q79 0 130.5 49t68.5 143zM664 715
l-142 -119h-76l116 119h102z" />
    <glyph glyph-name="Oslashacute" unicode="&#x1fe;" horiz-adv-x="810" 
d="M444 729q114 0 194 -50l51 61l53 -44l-50 -60q83 -88 83 -222q0 -185 -107 -306.5t-286 -121.5q-110 0 -189 48l-55 -67l-53 41l56 67q-86 86 -86 232q0 114 43.5 208.5t133.5 154t212 59.5zM439 669q-98 0 -169.5 -52t-104 -130t-32.5 -171q0 -115 54 -185l407 494
q-64 44 -155 44zM697 413q0 98 -52 166l-409 -493q61 -40 150 -40q77 0 137.5 30.5t98 82.5t56.5 117t19 137zM621 875l-137 -114h-76l111 114h102z" />
    <glyph glyph-name="oslashacute" unicode="&#x1ff;" horiz-adv-x="623" 
d="M499 715l-142 -119h-76l116 119h102zM278 -13q-76 0 -133 30l-44 -53l-48 40l42 51q-60 63 -60 169q0 134 78.5 224.5t214.5 90.5q80 0 139 -35l43 52l48 -40l-43 -52q58 -64 58 -164q0 -134 -80.5 -223.5t-214.5 -89.5zM110 227q0 -74 31 -117l283 342q-43 30 -103 30
q-98 0 -154.5 -74t-56.5 -181zM283 44q96 0 154.5 71.5t58.5 178.5q0 65 -29 112l-280 -339q41 -23 96 -23z" />
    <glyph glyph-name="uni0218" unicode="&#x218;" horiz-adv-x="600" 
d="M19 204h73q7 -77 57 -117.5t133 -40.5q76 0 126 34t50 105q0 29 -10.5 51.5t-33 39t-40.5 26t-51 23.5q-9 4 -14 6l-40 17q-85 36 -126 76.5t-41 113.5q0 90 63 140.5t174 50.5q113 0 173.5 -52t65.5 -147h-70q-5 68 -51 104.5t-122 36.5q-75 0 -115 -31t-40 -88
q0 -52 32 -82t102 -59l46 -20q91 -39 134.5 -79t43.5 -108q0 -101 -71.5 -159t-190.5 -58q-113 0 -181 54.5t-76 162.5zM148 -163l93 115h69l-76 -115h-86z" />
    <glyph glyph-name="uni0219" unicode="&#x219;" horiz-adv-x="495" 
d="M9 159h69q5 -54 41 -85.5t101 -31.5q63 0 98 25t35 71q0 37 -26 58t-78 37l-51 17q-66 23 -98.5 53t-32.5 86q0 67 53.5 108.5t140.5 41.5q90 0 142 -38t53 -114h-67q-12 97 -131 97q-56 0 -87.5 -22.5t-31.5 -61.5q0 -35 22.5 -55t75.5 -38l50 -17q67 -21 102.5 -51
t35.5 -87q0 -77 -55.5 -121t-151.5 -44q-94 0 -147.5 43.5t-61.5 128.5zM96 -163l93 115h69l-76 -115h-86z" />
    <glyph glyph-name="uni021A" unicode="&#x21a;" horiz-adv-x="537" 
d="M177 0l115 652h-206l12 63h485l-12 -63h-206l-115 -652h-73zM89 -163l93 115h69l-76 -115h-86z" />
    <glyph glyph-name="uni021B" unicode="&#x21b;" horiz-adv-x="287" 
d="M124 472h-81l9 53h81l25 142h72l-25 -142h100l-9 -53h-100l-61 -350q-3 -15 -3 -27q0 -26 15 -37t48 -11q8 0 16 1l-10 -56q-14 -2 -27 -2q-117 0 -117 88q0 16 5 44zM20 -163l93 115h69l-76 -115h-86z" />
    <glyph glyph-name="uni021D" unicode="&#x21d;" horiz-adv-x="535" 
d="M-19 18h73q-2 -80 39 -121.5t115 -41.5q82 0 130 45.5t48 125.5q0 71 -51.5 106.5t-127.5 35.5h-12l11 59h8q195 0 195 145q0 52 -32 81t-91 29q-117 0 -147 -132h-74q15 87 75 139t157 52q89 0 138.5 -43.5t49.5 -111.5q0 -71 -41.5 -118t-114.5 -65q52 -17 92 -60.5
t40 -113.5q0 -103 -69.5 -167t-185.5 -64q-110 0 -169.5 57t-55.5 163z" />
    <glyph glyph-name="uni0226" unicode="&#x226;" horiz-adv-x="674" 
d="M-49 0l419 715h86l163 -715h-74l-52 236h-331l-134 -236h-77zM404 656h-2q-124 -217 -167 -294l-40 -68h285l-16 77q-4 19 -27 124t-33 161zM380 769l15 83h81l-15 -83h-81z" />
    <glyph glyph-name="uni0227" unicode="&#x227;" horiz-adv-x="549" 
d="M147 366h-73q14 79 74.5 126t154.5 47q181 0 181 -156q0 -31 -21 -150l-22 -124q-10 -61 -10 -91q0 -4 0.5 -9t0.5 -9h-67v13q0 33 8 73q-69 -96 -202 -96q-75 0 -118 33.5t-43 93.5q0 144 253 179q87 14 146 18q6 30 6 58q0 110 -123 110q-118 0 -145 -116zM396 233
q5 26 6 29q-82 -9 -138 -19q-92 -18 -124 -35q-52 -29 -52 -82q0 -42 29 -63.5t80 -21.5q79 0 130.5 49t68.5 143zM288 609l15 83h81l-15 -83h-81z" />
    <glyph glyph-name="uni0232" unicode="&#x232;" horiz-adv-x="593" 
d="M200 0l49 275l-171 440h82q21 -58 71 -188t68 -180q42 57 135.5 183t134.5 185h86l-332 -440l-49 -275h-74zM251 788l8 51h244l-8 -51h-244z" />
    <glyph glyph-name="uni0233" unicode="&#x233;" horiz-adv-x="522" 
d="M136 -180h-75l109 181q-17 86 -59.5 269t-57.5 255h79q16 -81 47.5 -234.5t41.5 -205.5h1q28 52 125 228.5t116 211.5h78q-299 -524 -405 -705zM195 630l8 51h244l-8 -51h-244z" />
    <glyph glyph-name="dotlessj" unicode="&#x237;" horiz-adv-x="229" 
d="M117 525h72l-100 -570q-15 -82 -48.5 -117t-108.5 -35q-26 0 -38 4l10 58q2 -1 7 -1q3 -1 17 -1q39 0 58.5 16t28.5 64z" />
    <glyph glyph-name="uni0254" unicode="&#x254;" horiz-adv-x="588" 
d="M111 359h-71q29 81 97 130.5t164 49.5q110 0 173.5 -63.5t63.5 -173.5q0 -134 -78 -224.5t-210 -90.5q-97 0 -156 50t-74 136h72q33 -129 162 -129q96 0 152.5 74t56.5 181q0 86 -45 134.5t-127 48.5q-123 0 -180 -123z" />
    <glyph glyph-name="uni0259" unicode="&#x259;" horiz-adv-x="594" 
d="M124 376h-73q32 74 98 118t158 44q109 0 173 -63t64 -176q0 -132 -77 -222.5t-208 -90.5q-114 0 -172.5 68t-58.5 186q0 20 1 32h443v26q0 85 -46 133.5t-128 48.5q-122 0 -174 -104zM263 42q79 0 130 47.5t70 126.5h-362q4 -88 46 -131t116 -43z" />
    <glyph glyph-name="uni025B" unicode="&#x25b;" horiz-adv-x="547" 
d="M523 320h-73q2 80 -39 121.5t-115 41.5q-82 0 -130 -45.5t-48 -125.5q0 -71 51.5 -106.5t127.5 -35.5h12l-11 -59h-8q-195 0 -195 -145q0 -52 32 -81t91 -29q117 0 147 132h74q-15 -87 -75 -139t-157 -52q-89 0 -138.5 43.5t-49.5 111.5q0 71 41.5 118t114.5 65
q-52 17 -92 60.5t-40 113.5q0 103 69.5 167t185.5 64q110 0 169.5 -57t55.5 -163z" />
    <glyph glyph-name="uni0272" unicode="&#x272;" horiz-adv-x="581" 
d="M153 319l-64 -364q-15 -82 -48.5 -117t-108.5 -35q-26 0 -38 4l10 58q2 -1 7 -1q3 -1 17 -1q39 0 58.5 16t28.5 64l88 502q11 58 14 80h72l-14 -78q61 92 176 92q79 0 122 -41.5t43 -116.5q0 -33 -7 -73l-55 -308h-72l54 302q6 31 6 60q0 120 -114 120
q-69 0 -115.5 -46.5t-59.5 -116.5z" />
    <glyph glyph-name="uni0275" unicode="&#x275;" horiz-adv-x="623" 
d="M278 -13q-114 0 -178.5 63t-64.5 174q0 134 78.5 224.5t214.5 90.5q113 0 179 -65t66 -174q0 -134 -80.5 -223.5t-214.5 -89.5zM283 44q83 0 138 53t71 140h-383v-10q0 -86 45.5 -134.5t128.5 -48.5zM321 482q-81 0 -134.5 -51.5t-70.5 -133.5h381q0 83 -48 134t-128 51z
" />
    <glyph glyph-name="apostrophemod" unicode="&#x2bc;" horiz-adv-x="164" 
d="M208 715l-119 -229h-60l104 229h75z" />
    <glyph glyph-name="circumflex" unicode="&#x2c6;" horiz-adv-x="503" 
d="M228 715h77q11 -17 38 -58.5t40 -60.5h-65l-57 72l-80 -72h-72q19 18 60 60t59 59z" />
    <glyph glyph-name="caron" unicode="&#x2c7;" horiz-adv-x="502" 
d="M264 596h-77q-11 17 -38 58.5t-40 60.5h65l57 -72l80 72h72q-19 -18 -60 -60t-59 -59z" />
    <glyph glyph-name="breve" unicode="&#x2d8;" horiz-adv-x="465" 
d="M238 653q35 0 54.5 16t32.5 46h57q-38 -110 -152 -110q-117 0 -119 110h55q6 -62 72 -62z" />
    <glyph glyph-name="dotaccent" unicode="&#x2d9;" horiz-adv-x="328" 
d="M117 609l15 83h81l-15 -83h-81z" />
    <glyph glyph-name="ring" unicode="&#x2da;" horiz-adv-x="405" 
d="M240 591q-36 0 -60 24.5t-24 61.5q0 35 24.5 59.5t60.5 24.5t60.5 -24.5t24.5 -59.5q0 -37 -24.5 -61.5t-61.5 -24.5zM191 677q0 -22 14 -37t35 -15q22 0 36 14.5t14 37.5q0 21 -14.5 35.5t-35.5 14.5t-35 -14.5t-14 -35.5z" />
    <glyph glyph-name="ogonek" unicode="&#x2db;" horiz-adv-x="331" 
d="M159 -48l93 -115h-89l-76 115h72z" />
    <glyph glyph-name="tilde" unicode="&#x2dc;" horiz-adv-x="470" 
d="M213 613h-50q3 46 23 70t54 24q26 0 75 -20q43 -18 57 -18q31 0 37 46h49q-6 -97 -80 -97q-26 0 -66 17q-46 21 -63 21q-31 0 -36 -43z" />
    <glyph glyph-name="hungarumlaut" unicode="&#x2dd;" horiz-adv-x="612" 
d="M353 715l-142 -119h-74l116 119h100zM528 715l-142 -119h-74l116 119h100z" />
    <glyph glyph-name="uni032C" unicode="&#x32c;" horiz-adv-x="503" 
d="M144 -48h77q11 -17 38 -58.5t40 -60.5h-65l-57 72l-80 -72h-72q19 18 60 60t59 59z" />
    <glyph glyph-name="uni0394" unicode="&#x394;" horiz-adv-x="667" 
d="M263 715h91l284 -715h-659zM308 658l-232 -599h464z" />
    <glyph glyph-name="uni03A9" unicode="&#x3a9;" horiz-adv-x="834" 
d="M411 729q163 0 254.5 -98.5t91.5 -239.5q0 -213 -181 -328v-2h24q6 0 26 0.5t32 0.5h101v-62h-276v54q195 129 195 332q0 124 -70 204t-197 80t-197 -80t-70 -204q0 -203 195 -332v-54h-276v62h101q12 0 32 -0.5t26 -0.5h24v2q-181 115 -181 328q0 141 91.5 239.5
t254.5 98.5z" />
    <glyph glyph-name="uni03BC" unicode="&#x3bc;" horiz-adv-x="584" 
d="M544 525l-79 -445q-6 -31 -13 -80h-72l14 78q-61 -92 -174 -92q-74 0 -118 39l-37 -205h-72l125 705h72l-54 -302q-6 -31 -6 -60q0 -120 113 -120q69 0 114.5 46.5t58.5 116.5l55 319h73z" />
    <glyph glyph-name="pi" unicode="&#x3c0;" horiz-adv-x="622" 
d="M619 469h-101l-60 -347q-3 -15 -3 -27q0 -26 15 -37t48 -11q8 0 16 1l-10 -56q-14 -2 -27 -2q-117 0 -117 88q0 16 5 44l61 347h-226l-83 -469h-72l83 469h-111l10 56h582z" />
    <glyph glyph-name="Wgrave" unicode="&#x1e80;" horiz-adv-x="885" 
d="M926 715l-284 -715h-113l-15 391q-9 193 -9 263h-2q-12 -32 -55 -137t-62 -155l-147 -362h-112l-24 715h80l6 -440q0 -30 2.5 -100t0.5 -117h3q33 95 84 213l180 444h113l17 -434q1 -29 3 -74.5t3.5 -80.5t1.5 -67h2q14 37 40.5 109.5t42.5 114.5l166 432h78zM491 761
l-137 114h102l111 -114h-76z" />
    <glyph glyph-name="wgrave" unicode="&#x1e81;" horiz-adv-x="799" 
d="M223 0h-92l-26 199q-8 65 -24 184.5t-19 141.5h72l30 -270q2 -19 10.5 -85t12.5 -110h2q18 43 95 217l109 248h94l16 -236q3 -51 8 -124.5t7 -103.5h2q39 87 114 240l109 224h69q-18 -36 -74.5 -151t-87.5 -175l-99 -199h-92l-15 202l-15 258h-3q-79 -189 -113 -262z
M410 596l-142 119h102l116 -119h-76z" />
    <glyph glyph-name="Wacute" unicode="&#x1e82;" horiz-adv-x="885" 
d="M926 715l-284 -715h-113l-15 391q-9 193 -9 263h-2q-12 -32 -55 -137t-62 -155l-147 -362h-112l-24 715h80l6 -440q0 -30 2.5 -100t0.5 -117h3q33 95 84 213l180 444h113l17 -434q1 -29 3 -74.5t3.5 -80.5t1.5 -67h2q14 37 40.5 109.5t42.5 114.5l166 432h78zM684 875
l-137 -114h-76l111 114h102z" />
    <glyph glyph-name="wacute" unicode="&#x1e83;" horiz-adv-x="799" 
d="M223 0h-92l-26 199q-8 65 -24 184.5t-19 141.5h72l30 -270q2 -19 10.5 -85t12.5 -110h2q18 43 95 217l109 248h94l16 -236q3 -51 8 -124.5t7 -103.5h2q39 87 114 240l109 224h69q-18 -36 -74.5 -151t-87.5 -175l-99 -199h-92l-15 202l-15 258h-3q-79 -189 -113 -262z
M614 715l-142 -119h-76l116 119h102z" />
    <glyph glyph-name="Wdieresis" unicode="&#x1e84;" horiz-adv-x="885" 
d="M926 715l-284 -715h-113l-15 391q-9 193 -9 263h-2q-12 -32 -55 -137t-62 -155l-147 -362h-112l-24 715h80l6 -440q0 -30 2.5 -100t0.5 -117h3q33 95 84 213l180 444h113l17 -434q1 -29 3 -74.5t3.5 -80.5t1.5 -67h2q14 37 40.5 109.5t42.5 114.5l166 432h78zM407 766
l15 80h79l-15 -80h-79zM560 766l15 80h78l-15 -80h-78z" />
    <glyph glyph-name="wdieresis" unicode="&#x1e85;" horiz-adv-x="799" 
d="M223 0h-92l-26 199q-8 65 -24 184.5t-19 141.5h72l30 -270q2 -19 10.5 -85t12.5 -110h2q18 43 95 217l109 248h94l16 -236q3 -51 8 -124.5t7 -103.5h2q39 87 114 240l109 224h69q-18 -36 -74.5 -151t-87.5 -175l-99 -199h-92l-15 202l-15 258h-3q-79 -189 -113 -262z
M335 616l15 80h79l-15 -80h-79zM488 616l15 80h78l-15 -80h-78z" />
    <glyph glyph-name="uni1EA0" unicode="&#x1ea0;" horiz-adv-x="674" 
d="M-49 0l419 715h86l163 -715h-74l-52 236h-331l-134 -236h-77zM404 656h-2q-124 -217 -167 -294l-40 -68h285l-16 77q-4 19 -27 124t-33 161zM230 -152l15 83h81l-15 -83h-81z" />
    <glyph glyph-name="uni1EA1" unicode="&#x1ea1;" horiz-adv-x="549" 
d="M147 366h-73q14 79 74.5 126t154.5 47q181 0 181 -156q0 -31 -21 -150l-22 -124q-10 -61 -10 -91q0 -4 0.5 -9t0.5 -9h-67v13q0 33 8 73q-69 -96 -202 -96q-75 0 -118 33.5t-43 93.5q0 144 253 179q87 14 146 18q6 30 6 58q0 110 -123 110q-118 0 -145 -116zM396 233
q5 26 6 29q-82 -9 -138 -19q-92 -18 -124 -35q-52 -29 -52 -82q0 -42 29 -63.5t80 -21.5q79 0 130.5 49t68.5 143zM158 -152l15 83h81l-15 -83h-81z" />
    <glyph glyph-name="uni1EB8" unicode="&#x1eb8;" horiz-adv-x="589" 
d="M40 0l127 715h442l-12 -63h-368l-44 -254h344l-11 -63h-344l-48 -272h375l-12 -63h-449zM213 -152l15 83h81l-15 -83h-81z" />
    <glyph glyph-name="uni1EB9" unicode="&#x1eb9;" horiz-adv-x="594" 
d="M455 149h73q-32 -74 -98 -118t-158 -44q-109 0 -173 63t-64 176q0 132 77 222.5t208 90.5q114 0 172.5 -68t58.5 -186q0 -20 -1 -32h-443v-26q0 -85 46 -133.5t128 -48.5q122 0 174 104zM316 483q-79 0 -130 -47.5t-70 -126.5h362q-4 88 -46 131t-116 43zM202 -152l15 83
h81l-15 -83h-81z" />
    <glyph glyph-name="uni1ECA" unicode="&#x1eca;" horiz-adv-x="261" 
d="M40 0l127 715h73l-127 -715h-73zM13 -152l15 83h81l-15 -83h-81z" />
    <glyph glyph-name="uni1ECB" unicode="&#x1ecb;" horiz-adv-x="230" 
d="M206 604h-76l20 111h76zM118 525h72l-93 -525h-72zM-2 -152l15 83h81l-15 -83h-81z" />
    <glyph glyph-name="uni1ECC" unicode="&#x1ecc;" horiz-adv-x="810" 
d="M443 729q148 0 239.5 -84t91.5 -231q0 -185 -107 -306.5t-286 -121.5q-145 0 -236 84.5t-91 236.5q0 114 43.5 208.5t133.5 154t212 59.5zM438 669q-98 0 -169.5 -52t-104 -130t-32.5 -171q0 -128 66 -199t187 -71q77 0 137.5 30.5t98 82.5t56.5 117t19 137
q0 117 -70.5 186.5t-187.5 69.5zM314 -152l15 83h81l-15 -83h-81z" />
    <glyph glyph-name="uni1ECD" unicode="&#x1ecd;" horiz-adv-x="623" 
d="M283 44q96 0 154.5 71.5t58.5 178.5q0 85 -46.5 136.5t-128.5 51.5q-98 0 -154.5 -74t-56.5 -181q0 -86 45 -134.5t128 -48.5zM278 -13q-114 0 -178.5 63t-64.5 174q0 134 78.5 224.5t214.5 90.5q113 0 179 -65t66 -174q0 -134 -80.5 -223.5t-214.5 -89.5zM211 -152
l15 83h81l-15 -83h-81z" />
    <glyph glyph-name="uni1EE4" unicode="&#x1ee4;" horiz-adv-x="684" 
d="M297 -14q-109 0 -167 50t-58 145q0 37 9 93l78 441h73l-79 -446q-7 -44 -7 -73q0 -69 39 -110t123 -41q97 0 144 58.5t69 180.5l76 431h73l-80 -449q-15 -90 -48 -152q-71 -128 -245 -128zM222 -152l15 83h81l-15 -83h-81z" />
    <glyph glyph-name="uni1EE5" unicode="&#x1ee5;" horiz-adv-x="578" 
d="M538 525l-79 -445q-6 -31 -13 -80h-72l14 78q-61 -92 -174 -92q-79 0 -121.5 41.5t-42.5 116.5q0 33 7 73l55 308h72l-54 -302q-6 -31 -6 -60q0 -120 113 -120q69 0 114.5 46.5t58.5 116.5l55 319h73zM178 -152l15 83h81l-15 -83h-81z" />
    <glyph glyph-name="Ygrave" unicode="&#x1ef2;" horiz-adv-x="593" 
d="M200 0l49 275l-171 440h82q21 -58 71 -188t68 -180q42 57 135.5 183t134.5 185h86l-332 -440l-49 -275h-74zM361 761l-137 114h102l111 -114h-76z" />
    <glyph glyph-name="ygrave" unicode="&#x1ef3;" horiz-adv-x="522" 
d="M136 -180h-75l109 181q-17 86 -59.5 269t-57.5 255h79q16 -81 47.5 -234.5t41.5 -205.5h1q28 52 125 228.5t116 211.5h78q-299 -524 -405 -705zM279 596l-142 119h102l116 -119h-76z" />
    <glyph glyph-name="enspace" unicode="&#x2002;" horiz-adv-x="500" 
 />
    <glyph glyph-name="emspace" unicode="&#x2003;" horiz-adv-x="1000" 
 />
    <glyph glyph-name="threeperemspace" unicode="&#x2004;" horiz-adv-x="0" 
 />
    <glyph glyph-name="fourperemspace" unicode="&#x2005;" horiz-adv-x="250" 
 />
    <glyph glyph-name="thinspace" unicode="&#x2009;" horiz-adv-x="133" 
 />
    <glyph glyph-name="hairspace" unicode="&#x200a;" horiz-adv-x="75" 
 />
    <glyph glyph-name="endash" unicode="&#x2013;" horiz-adv-x="603" 
d="M56 273l11 59h476l-11 -59h-476z" />
    <glyph glyph-name="emdash" unicode="&#x2014;" horiz-adv-x="968" 
d="M56 273l11 59h841l-11 -59h-841z" />
    <glyph glyph-name="quoteleft" unicode="&#x2018;" horiz-adv-x="237" 
d="M85 486l119 229h60l-104 -229h-75z" />
    <glyph glyph-name="quoteright" unicode="&#x2019;" horiz-adv-x="235" 
d="M266 715l-119 -229h-60l104 229h75z" />
    <glyph glyph-name="quotesinglbase" unicode="&#x201a;" horiz-adv-x="236" 
d="M135 111l-121 -232h-61l106 232h76z" />
    <glyph glyph-name="quotedblleft" unicode="&#x201c;" horiz-adv-x="397" 
d="M243 483l120 232h60l-105 -232h-75zM84 483l120 232h61l-106 -232h-75z" />
    <glyph glyph-name="quotedblright" unicode="&#x201d;" horiz-adv-x="394" 
d="M266 715l-120 -232h-60l105 232h75zM425 715l-120 -232h-61l106 232h75z" />
    <glyph glyph-name="quotedblbase" unicode="&#x201e;" horiz-adv-x="394" 
d="M134 111l-120 -232h-60l105 232h75zM293 111l-120 -232h-61l106 232h75z" />
    <glyph glyph-name="dagger" unicode="&#x2020;" horiz-adv-x="502" 
d="M494 461h-181l-94 -529h-72l94 529h-179l12 68h179l33 186h72l-33 -186h181z" />
    <glyph glyph-name="daggerdbl" unicode="&#x2021;" horiz-adv-x="535" 
d="M466 212h-181l-50 -280h-72l50 280h-179l12 68h179l32 181h-179l12 68h179l33 186h72l-33 -186h181l-12 -68h-181l-32 -181h181z" />
    <glyph glyph-name="bullet" unicode="&#x2022;" horiz-adv-x="385" 
d="M196 225q-46 0 -78 31.5t-32 77.5q0 45 32 76.5t78 31.5q45 0 77 -31.5t32 -76.5q0 -46 -32 -77.5t-77 -31.5z" />
    <glyph glyph-name="ellipsis" unicode="&#x2026;" horiz-adv-x="882" 
d="M348 0l19 111h76l-19 -111h-76zM16 0l19 111h76l-19 -111h-76zM685 0l19 111h76l-19 -111h-76z" />
    <glyph glyph-name="perthousand" unicode="&#x2030;" horiz-adv-x="1303" 
d="M225 0l400 715h50l-402 -715h-48zM217 371q41 0 69 24t40 61t16.5 66t4.5 56q0 49 -23 77.5t-69 28.5q-41 0 -69 -23.5t-40 -61t-16 -66.5t-4 -56q0 -106 91 -106zM212 330q-68 0 -104 37.5t-36 107.5q0 28 3.5 56.5t16 65t32 64t55.5 46.5t82 19q69 0 105 -37.5
t36 -107.5q0 -36 -7 -73t-25.5 -80.5t-59 -70.5t-98.5 -27zM635 25q41 0 69 24t40 61t16.5 66t4.5 56q0 49 -23 77.5t-69 28.5q-41 0 -69 -23.5t-40 -61t-16 -66.5t-4 -56q0 -106 91 -106zM630 -16q-68 0 -104 37.5t-36 107.5q0 28 3.5 56.5t16 65t32 64t55.5 46.5t82 19
q69 0 105 -37.5t36 -107.5q0 -36 -7 -73t-25.5 -80.5t-59 -70.5t-98.5 -27zM1063 25q41 0 69 24t40 61t16.5 66t4.5 56q0 49 -23 77.5t-69 28.5q-41 0 -69 -23.5t-40 -61t-16 -66.5t-4 -56q0 -106 91 -106zM1058 -16q-68 0 -104 37.5t-36 107.5q0 28 3.5 56.5t16 65t32 64
t55.5 46.5t82 19q69 0 105 -37.5t36 -107.5q0 -36 -7 -73t-25.5 -80.5t-59 -70.5t-98.5 -27z" />
    <glyph glyph-name="guilsinglleft" unicode="&#x2039;" horiz-adv-x="286" 
d="M255 473l-127 -183l61 -192h-59l-78 196l140 179h63z" />
    <glyph glyph-name="guilsinglright" unicode="&#x203a;" horiz-adv-x="285" 
d="M23 98l127 183l-61 192h59l78 -196l-140 -179h-63z" />
    <glyph glyph-name="fraction" unicode="&#x2044;" horiz-adv-x="318" 
d="M-62 -105l375 820h67l-376 -820h-66z" />
    <glyph glyph-name="Euro" unicode="&#x20ac;" 
d="M30 405l27 57h50q16 59 37.5 104.5t54 83.5t78.5 58.5t104 20.5q195 0 195 -218v-10h-68v14q0 72 -32.5 113.5t-99.5 41.5q-64 0 -111 -45q-51 -51 -82 -163h271l-27 -57h-259q-10 -42 -16 -89h240l-27 -57h-219q-2 -46 -2 -61q0 -155 129 -155q65 0 112 45q39 39 70 124
h71q-38 -107 -98 -166.5t-161 -59.5q-102 0 -149.5 54t-48.5 160q0 13 2 59h-71l26 57h51q1 19 6 37q7 38 10 52h-63z" />
    <glyph glyph-name="trademark" unicode="&#x2122;" horiz-adv-x="875" 
d="M632 300h-52q-8 55 -20.5 182t-20.5 182h-3q-4 -33 -19.5 -115.5t-19.5 -110.5l-24 -138h-51l73 415h86q7 -49 15 -126t14.5 -145.5t7.5 -80.5q9 18 72 158t88 194h88l-73 -415h-52l33 190q11 69 32 176h-3q-94 -211 -171 -366zM397 715l-7 -43h-108l-66 -372h-53l66 372
h-109l7 43h270z" />
    <glyph glyph-name="Omega" unicode="&#x2126;" horiz-adv-x="834" 
d="M411 729q163 0 254.5 -98.5t91.5 -239.5q0 -213 -181 -328v-2h24q6 0 26 0.5t32 0.5h101v-62h-276v54q195 129 195 332q0 124 -70 204t-197 80t-197 -80t-70 -204q0 -203 195 -332v-54h-276v62h101q12 0 32 -0.5t26 -0.5h24v2q-181 115 -181 328q0 141 91.5 239.5
t254.5 98.5z" />
    <glyph glyph-name="onethird" unicode="&#x2153;" horiz-adv-x="774" 
d="M187 612h-100l6 33q57 0 82.5 16t42.5 54h36l-76 -431h-48zM118 0l400 715h50l-402 -715h-48zM410 125h49q1 -44 26 -68.5t62 -24.5q48 0 76.5 28t28.5 76q0 42 -25.5 62t-68.5 20h-15l7 39q118 6 118 86q0 29 -19 45t-50 16q-70 0 -88 -73h-49q9 50 47.5 82t96.5 32
q53 0 83 -25t30 -66q0 -44 -25.5 -74t-68.5 -39v-2q34 -9 56.5 -36t22.5 -65q0 -66 -43.5 -105.5t-115.5 -39.5q-62 0 -98 36t-37 96z" />
    <glyph glyph-name="twothirds" unicode="&#x2154;" horiz-adv-x="894" 
d="M241 0l400 715h50l-402 -715h-48zM533 125h49q1 -44 26 -68.5t62 -24.5q48 0 76.5 28t28.5 76q0 42 -25.5 62t-68.5 20h-15l7 39q118 6 118 86q0 29 -19 45t-50 16q-70 0 -88 -73h-49q9 50 47.5 82t96.5 32q53 0 83 -25t30 -66q0 -44 -25.5 -74t-68.5 -39v-2
q34 -9 56.5 -36t22.5 -65q0 -66 -43.5 -105.5t-115.5 -39.5q-62 0 -98 36t-37 96zM331 284h-284l8 44l50 35q51 37 95 71q31 24 45.5 36t38.5 36.5t35 49.5t11 52q0 35 -20 55.5t-57 20.5q-83 0 -102 -105h-50q9 66 49.5 106t107.5 40q62 0 94 -29t32 -79q0 -35 -14 -67
t-43 -62t-53.5 -51t-65.5 -50q-5 -5 -14.5 -10.5t-30.5 -18.5t-45 -29h221z" />
    <glyph glyph-name="oneeighth" unicode="&#x215b;" horiz-adv-x="777" 
d="M187 612h-100l6 33q57 0 82.5 16t42.5 54h36l-76 -431h-48zM118 0l400 715h50l-402 -715h-48zM505 236q-46 34 -46 88q0 53 38.5 87t103.5 34q56 0 89 -28t33 -71q0 -41 -23 -70.5t-60 -42.5q64 -33 64 -99q0 -65 -43.5 -103.5t-118.5 -38.5q-62 0 -101 30t-39 85
q0 46 26.5 80t76.5 49zM595 404q-39 0 -63.5 -21t-24.5 -59q0 -33 20.5 -51.5t56.5 -18.5q39 0 64 23t25 61q0 31 -21 48.5t-57 17.5zM563 214q-46 0 -77.5 -27t-31.5 -72q0 -39 25 -61t67 -22q50 0 79 27.5t29 75.5q0 36 -24.5 57.5t-66.5 21.5z" />
    <glyph glyph-name="threeeighths" unicode="&#x215c;" horiz-adv-x="874" 
d="M219 0l400 715h50l-402 -715h-48zM606 236q-46 34 -46 88q0 53 38.5 87t103.5 34q56 0 89 -28t33 -71q0 -41 -23 -70.5t-60 -42.5q64 -33 64 -99q0 -65 -43.5 -103.5t-118.5 -38.5q-62 0 -101 30t-39 85q0 46 26.5 80t76.5 49zM696 404q-39 0 -63.5 -21t-24.5 -59
q0 -33 20.5 -51.5t56.5 -18.5q39 0 64 23t25 61q0 31 -21 48.5t-57 17.5zM664 214q-46 0 -77.5 -27t-31.5 -72q0 -39 25 -61t67 -22q50 0 79 27.5t29 75.5q0 36 -24.5 57.5t-66.5 21.5zM54 407h49q1 -44 26 -68.5t62 -24.5q48 0 76.5 28t28.5 76q0 42 -25.5 62t-68.5 20h-15
l7 39q118 6 118 86q0 29 -19 45t-50 16q-70 0 -88 -73h-49q9 50 47.5 82t96.5 32q53 0 83 -25t30 -66q0 -44 -25.5 -74t-68.5 -39v-2q34 -9 56.5 -36t22.5 -65q0 -66 -43.5 -105.5t-115.5 -39.5q-62 0 -98 36t-37 96z" />
    <glyph glyph-name="fiveeighths" unicode="&#x215d;" horiz-adv-x="876" 
d="M219 0l400 715h50l-402 -715h-48zM606 236q-46 34 -46 88q0 53 38.5 87t103.5 34q56 0 89 -28t33 -71q0 -41 -23 -70.5t-60 -42.5q64 -33 64 -99q0 -65 -43.5 -103.5t-118.5 -38.5q-62 0 -101 30t-39 85q0 46 26.5 80t76.5 49zM696 404q-39 0 -63.5 -21t-24.5 -59
q0 -33 20.5 -51.5t56.5 -18.5q39 0 64 23t25 61q0 31 -21 48.5t-57 17.5zM664 214q-46 0 -77.5 -27t-31.5 -72q0 -39 25 -61t67 -22q50 0 79 27.5t29 75.5q0 36 -24.5 57.5t-66.5 21.5zM86 486l67 229h226l-8 -45h-186l-43 -142q30 34 89 34q55 0 89 -31.5t34 -88.5
q0 -73 -42.5 -120.5t-117.5 -47.5q-61 0 -99 33t-43 95h52q2 -38 26.5 -62t67.5 -24q48 0 76 31t28 84q0 44 -25.5 67t-65.5 23q-49 0 -81 -43z" />
    <glyph glyph-name="seveneighths" unicode="&#x215e;" horiz-adv-x="798" 
d="M141 0l400 715h50l-402 -715h-48zM528 236q-46 34 -46 88q0 53 38.5 87t103.5 34q56 0 89 -28t33 -71q0 -41 -23 -70.5t-60 -42.5q64 -33 64 -99q0 -65 -43.5 -103.5t-118.5 -38.5q-62 0 -101 30t-39 85q0 46 26.5 80t76.5 49zM618 404q-39 0 -63.5 -21t-24.5 -59
q0 -33 20.5 -51.5t56.5 -18.5q39 0 64 23t25 61q0 31 -21 48.5t-57 17.5zM586 214q-46 0 -77.5 -27t-31.5 -72q0 -39 25 -61t67 -22q50 0 79 27.5t29 75.5q0 36 -24.5 57.5t-66.5 21.5zM130 282h-61q25 44 75 124t57 91q57 88 119 174h-34h-187l8 44h270l-7 -41l-20 -32
q-162 -254 -220 -360z" />
    <glyph glyph-name="arrowleft" unicode="&#x2190;" horiz-adv-x="820" 
d="M783 295h-646q102 -102 167 -169l123 -126h-95q-31 32 -147.5 155t-161.5 170q49 49 172 180t137 145h95l-123 -126q-122 -127 -167 -168h646v-61z" />
    <glyph glyph-name="arrowup" unicode="&#x2191;" horiz-adv-x="720" 
d="M344 0v642q-101 -101 -168 -165q-20 -19 -61.5 -59.5t-63.5 -61.5v84q28 27 152.5 144t172.5 165q50 -51 185 -177.5t140 -131.5v-84q-22 21 -63.5 61.5t-61.5 59.5q-131 125 -167 165v-642h-65z" />
    <glyph glyph-name="arrowright" unicode="&#x2192;" horiz-adv-x="820" 
d="M690 295h-646v61h646q-46 42 -167 168l-123 126h95q5 -5 131.5 -140t177.5 -185q-48 -48 -165 -172.5t-144 -152.5h-95l123 126q43 45 167 169z" />
    <glyph glyph-name="arrowdown" unicode="&#x2193;" horiz-adv-x="720" 
d="M329 73v642h65v-642q36 40 167 165q20 19 61.5 59.5t63.5 61.5v-84q-14 -14 -145 -137t-180 -172q-47 45 -170 161.5t-155 147.5v84q22 -21 63.5 -61.5t61.5 -59.5q67 -64 168 -165z" />
    <glyph glyph-name="uni2196" unicode="&#x2196;" horiz-adv-x="750" 
d="M627 0l-455 455q0 -14 -0.5 -98.5t-0.5 -136.5l-2 -175l-57 59q7 243 7 448q240 0 448 6l60 -56q-120 0 -174 -1q-53 0 -137 -0.5t-98 -0.5l454 -454z" />
    <glyph glyph-name="uni2197" unicode="&#x2197;" horiz-adv-x="750" 
d="M556 455l-455 -455l-45 46l454 454q-14 0 -98.5 0.5t-136.5 0.5q-54 1 -174 1l60 56q208 -6 448 -6q0 -205 7 -448l-57 -59l-2 175q0 52 -0.5 136.5t-0.5 98.5z" />
    <glyph glyph-name="uni2198" unicode="&#x2198;" horiz-adv-x="750" 
d="M113 553l455 -455v235q0 112 1 175l57 -59q-5 -173 -5 -448q-309 0 -448 -4l-60 56h174h235l-454 454z" />
    <glyph glyph-name="uni2199" unicode="&#x2199;" horiz-adv-x="750" 
d="M182 98l455 455l45 -46l-454 -454h235h174l-60 -56q-139 4 -448 4q0 275 -5 448l57 59q0 -121 1 -175v-235z" />
    <glyph glyph-name="partialdiff" unicode="&#x2202;" horiz-adv-x="623" 
d="M232 715h122q103 -63 160.5 -171.5t57.5 -229.5q0 -149 -79.5 -238t-220.5 -89q-110 0 -173.5 63t-63.5 178q0 135 80 223t203 88q96 0 152 -56l4 3q-37 73 -92.5 126.5t-149.5 102.5zM283 44q96 0 154.5 71.5t58.5 178.5q0 85 -46.5 136.5t-128.5 51.5q-98 0 -154.5 -74
t-56.5 -181q0 -86 45 -134.5t128 -48.5z" />
    <glyph glyph-name="Delta" unicode="&#x2206;" horiz-adv-x="749" 
d="M296 715h91l284 -715h-659zM341 658l-232 -599h464z" />
    <glyph glyph-name="product" unicode="&#x220f;" horiz-adv-x="873" 
d="M849 715v-63h-121v-765h-74v765h-360v-765h-74v765h-121v63h750z" />
    <glyph glyph-name="summation" unicode="&#x2211;" horiz-adv-x="752" 
d="M97 -61l288 364l-284 352v60h533v-63h-435l273 -345l-285 -357h458v-63h-548v52z" />
    <glyph glyph-name="minus" unicode="&#x2212;" 
d="M60 292v59h442v-59h-442z" />
    <glyph glyph-name="uni2219" unicode="&#x2219;" horiz-adv-x="213" 
d="M60 261l19 111h76l-19 -111h-76z" />
    <glyph glyph-name="radical" unicode="&#x221a;" 
d="M34 469v56h145l83 -256q8 -25 31 -93t37 -111h2q11 40 33 113t31 103l128 434h69l-220 -715h-88q-22 64 -79.5 229.5t-83.5 239.5h-88z" />
    <glyph glyph-name="infinity" unicode="&#x221e;" horiz-adv-x="853" 
d="M221 502q39 0 79.5 -20.5t65.5 -42.5t66 -63q43 43 66 63.5t63 41.5t79 21q74 0 117.5 -45.5t43.5 -121.5q0 -73 -40.5 -120.5t-119.5 -47.5q-54 0 -101 29.5t-111 93.5q-65 -65 -110.5 -94t-99.5 -29q-79 0 -119.5 47.5t-40.5 120.5q0 76 44 121.5t118 45.5zM220 221
q42 0 79 26t99 86q-6 6 -38.5 37t-46.5 42t-41.5 24.5t-53.5 13.5q-46 0 -72.5 -33t-26.5 -81q0 -52 26.5 -83.5t74.5 -31.5zM640 221q48 0 74.5 31.5t26.5 83.5q0 48 -26.5 81t-72.5 33q-26 0 -53.5 -13.5t-41.5 -24.5t-46.5 -42t-38.5 -37q62 -60 99 -86t79 -26z" />
    <glyph glyph-name="integral" unicode="&#x222b;" 
d="M344 499l-61 -431q-21 -139 -65 -196t-137 -57q-26 0 -37 3q2 10 4 29t3 29q7 -1 25 -1q65 0 91 41t39 139l64 437q17 119 61 174.5t138 55.5q27 0 34 -2l-8 -60q-7 1 -29 1q-59 0 -85 -39.5t-37 -122.5z" />
    <glyph glyph-name="approxequal" unicode="&#x2248;" 
d="M488 482l44 -28q-60 -101 -145 -101q-37 0 -103 31l-42 20q-56 27 -83 27q-55 0 -90 -67l-42 30q59 94 138 94q43 0 96 -27l52 -26q52 -25 78 -25q58 0 97 72zM486 232l44 -28q-60 -101 -145 -101q-37 0 -103 31l-42 20q-56 27 -83 27q-55 0 -90 -67l-42 30q59 94 138 94
q43 0 96 -27l52 -26q52 -25 78 -25q58 0 97 72z" />
    <glyph glyph-name="notequal" unicode="&#x2260;" 
d="M58 385v59h245l56 116h66l-56 -116h131v-59h-160l-59 -122h219v-59h-247l-60 -124h-66l60 124h-129v59h157l59 122h-216z" />
    <glyph glyph-name="lessequal" unicode="&#x2264;" 
d="M64 323v57q54 28 188.5 95t207.5 106v-64q-141 -65 -338 -163v-3q177 -91 338 -165v-64q-73 39 -207.5 106t-188.5 95zM64 0v59h396v-59h-396z" />
    <glyph glyph-name="greaterequal" unicode="&#x2265;" 
d="M475 380v-57q-54 -28 -188.5 -95t-207.5 -106v64q220 104 338 165v3q-115 57 -338 163v64q73 -39 207.5 -106t188.5 -95zM475 59v-59h-396v59h396z" />
    <glyph glyph-name="dotmath" unicode="&#x22c5;" horiz-adv-x="213" 
d="M60 261l19 111h76l-19 -111h-76z" />
    <glyph glyph-name="lozenge" unicode="&#x25ca;" 
d="M319 0h-60l-230 356l230 359h60l229 -359zM474 356l-185 294l-186 -294l186 -289z" />
    <glyph glyph-name="commaaccent" unicode="&#xf6c3;" horiz-adv-x="369" 
d="M124 -163l93 115h69l-76 -115h-86z" />
    <glyph glyph-name="uniF8FF" unicode="&#xf8ff;" horiz-adv-x="319" 
d="M155 225q-46 0 -78 31.5t-32 77.5q0 45 32 76.5t78 31.5q45 0 77 -31.5t32 -76.5q0 -46 -32 -77.5t-77 -31.5z" />
    <glyph glyph-name="acute.caps" horiz-adv-x="427" 
d="M372 875l-137 -114h-76l111 114h102z" />
    <glyph glyph-name="grave.caps" horiz-adv-x="512" 
d="M300 761l-137 114h102l111 -114h-76z" />
    <glyph glyph-name="circumflex.caps" horiz-adv-x="503" 
d="M224 875h77q10 -15 36.5 -54.5t40.5 -59.5h-65l-56 67l-79 -67h-72q15 14 118 114z" />
    <glyph glyph-name="caron.caps" horiz-adv-x="502" 
d="M280 761h-77q-10 15 -36.5 54.5t-40.5 59.5h65l56 -67l79 67h72q-15 -14 -118 -114z" />
    <glyph glyph-name="tilde.caps" horiz-adv-x="470" 
d="M149 765h-50q3 46 23 70t54 24q26 0 75 -20q43 -18 57 -18q31 0 37 46h49q-6 -97 -80 -97q-26 0 -66 17q-46 21 -63 21q-31 0 -36 -43z" />
    <glyph glyph-name="macron.caps" horiz-adv-x="428" 
d="M119 788l8 51h244l-8 -51h-244z" />
    <glyph glyph-name="breve.caps" horiz-adv-x="465" 
d="M247 817q35 0 54.5 16t32.5 46h57q-38 -110 -152 -110q-117 0 -119 110h55q6 -62 72 -62z" />
    <glyph glyph-name="dotaccent.caps" horiz-adv-x="328" 
d="M116 769l15 83h81l-15 -83h-81z" />
    <glyph glyph-name="ring.caps" horiz-adv-x="405" 
d="M246 751q-36 0 -60 24.5t-24 61.5q0 35 24.5 59.5t60.5 24.5t60.5 -24.5t24.5 -59.5q0 -37 -24.5 -61.5t-61.5 -24.5zM197 837q0 -22 14 -37t35 -15q22 0 36 14.5t14 37.5q0 21 -14.5 35.5t-35.5 14.5t-35 -14.5t-14 -35.5z" />
    <glyph glyph-name="cedilla.caps" horiz-adv-x="369" 
d="M121 -163l93 115h72l-76 -115h-89z" />
    <glyph glyph-name="ogonek.caps" horiz-adv-x="331" 
d="M159 -48l93 -115h-89l-76 115h72z" />
    <glyph glyph-name="hungarumlaut.caps" horiz-adv-x="612" 
d="M372 875l-137 -114h-75l111 114h101zM552 875l-137 -114h-75l111 114h101z" />
    <glyph glyph-name="dieresis.caps" horiz-adv-x="491" 
d="M139 766l15 80h79l-15 -80h-79zM292 766l15 80h78l-15 -80h-78z" />
    <glyph glyph-name="horn" horiz-adv-x="264" 
d="M220 715l-135 -191h-60l120 191h75z" />
    <glyph glyph-name="zero.plf" horiz-adv-x="607" 
d="M261 43q65 0 112 45q57 57 90 187.5t33 239.5q0 72 -32.5 113.5t-99.5 41.5q-64 0 -111 -45q-56 -56 -88.5 -187t-32.5 -240q0 -155 129 -155zM558 357q-15 -79 -35 -139.5t-54 -116t-87.5 -85.5t-123.5 -30q-105 0 -152.5 54t-48.5 160q0 77 14 153q12 64 25 113t37 101
t54.5 85.5t77 55t104.5 21.5q201 0 203 -220q0 -76 -14 -152z" />
    <glyph glyph-name="one.plf" horiz-adv-x="383" 
d="M151 0l97 549h-178l10 53h22q90 0 132 26t62 87h54l-127 -715h-72z" />
    <glyph glyph-name="two.plf" horiz-adv-x="567" 
d="M466 0h-465l11 59l82 62l158 120q50 38 76 60.5t66 64.5t59 86t19 91q0 60 -37 93.5t-102 33.5q-76 0 -116.5 -46.5t-55.5 -131.5h-74q15 109 79 173t173 64q102 0 156 -47t54 -126q0 -60 -23 -114.5t-68 -103.5t-86 -83.5t-103 -79.5q-3 -2 -53 -38t-105 -74h366z" />
    <glyph glyph-name="three.plf" horiz-adv-x="574" 
d="M25 206h73q-2 -80 39 -121.5t115 -41.5q82 0 130 45.5t48 125.5q0 71 -51.5 106.5t-127.5 35.5h-12l11 59h8q195 0 195 145q0 52 -32 81t-91 29q-117 0 -147 -132h-74q15 87 75 139t157 52q89 0 138.5 -43.5t49.5 -111.5q0 -71 -41.5 -118t-114.5 -65q52 -17 92 -60.5
t40 -113.5q0 -102 -71 -166.5t-187 -64.5q-110 0 -168 57t-54 163z" />
    <glyph glyph-name="four.plf" horiz-adv-x="581" 
d="M530 227l-10 -59h-101l-30 -168h-71l30 168h-344l8 51l291 333l141 163h72l-87 -488h101zM434 622h-2l-154 -184l-59 -69q-10 -11 -37 -42t-42 -47l-47 -53h265l23 127q25 150 53 268z" />
    <glyph glyph-name="five.plf" horiz-adv-x="567" 
d="M73 337l109 378h366l-11 -63h-308l-73 -254q59 59 147 59q92 0 150 -56t58 -149q0 -112 -69 -189.5t-187 -77.5q-103 0 -167 53t-70 157h75q2 -65 46 -108.5t118 -43.5q81 0 129.5 57.5t48.5 139.5q0 73 -41.5 115t-108.5 42q-35 0 -64 -11.5t-44 -24.5t-36 -35z" />
    <glyph glyph-name="six.plf" horiz-adv-x="594" 
d="M566 531h-73q0 55 -31.5 97.5t-101.5 42.5q-86 0 -137 -76.5t-82 -239.5q20 42 68.5 72t115.5 30q90 0 147 -55t57 -149q0 -117 -69.5 -192t-189.5 -75q-100 0 -158 56t-58 171q0 58 12 130q34 203 106.5 294.5t194.5 91.5q100 0 147.5 -54t51.5 -144zM303 397
q-81 0 -128 -53t-47 -141q0 -76 38 -118.5t111 -42.5q76 0 126 54.5t50 143.5q0 72 -39.5 114.5t-110.5 42.5z" />
    <glyph glyph-name="seven.plf" horiz-adv-x="484" 
d="M129 0h-89q32 54 67.5 111.5t82 131t68.5 108.5q182 280 197 301l1 1q-20 -1 -56 -1h-312l12 63h440l-11 -57l-33 -53q-268 -426 -367 -605z" />
    <glyph glyph-name="eight.plf" horiz-adv-x="596" 
d="M198 387q-76 57 -76 144q0 88 60.5 143t168.5 55q94 0 148.5 -44.5t54.5 -117.5q0 -67 -37 -115.5t-98 -69.5q107 -55 107 -167q0 -101 -71 -165t-191 -64q-101 0 -167 50t-66 141q0 75 44 131t123 79zM344 671q-66 0 -107.5 -35t-41.5 -100q0 -58 34.5 -92t96.5 -34
q66 0 108.5 40.5t42.5 105.5q0 53 -36 84t-97 31zM293 355q-78 0 -131 -46t-53 -124q0 -68 43.5 -105t114.5 -37q84 0 133.5 47.5t49.5 128.5q0 62 -43.5 99t-113.5 37z" />
    <glyph glyph-name="nine.plf" horiz-adv-x="592" 
d="M45 184h73q0 -55 31.5 -97.5t101.5 -42.5q86 0 137 76.5t82 239.5q-20 -42 -68.5 -72t-115.5 -30q-90 0 -147 55t-57 149q0 116 69 191.5t188 75.5q101 0 159.5 -56t58.5 -171q0 -58 -12 -130q-34 -203 -106.5 -294.5t-194.5 -91.5q-100 0 -148.5 54t-50.5 144zM308 318
q81 0 128 53t47 141q0 76 -38 118.5t-111 42.5q-76 0 -126 -54.5t-50 -143.5q0 -72 39.5 -114.5t110.5 -42.5z" />
    <glyph glyph-name="Gtilde" horiz-adv-x="798" 
d="M366 -13q-135 0 -223.5 86t-88.5 237q0 81 25.5 155t72.5 133.5t122 95t167 35.5q125 0 204.5 -59.5t106.5 -169.5h-73q-23 81 -85.5 125t-157.5 44q-98 0 -169 -52t-103 -130t-32 -171q0 -125 64.5 -197.5t180.5 -72.5q68 0 122.5 22t89 59.5t55 80t30.5 90.5h-285
l11 63h352l-64 -361h-68l10 56l9 46l6 25q-95 -140 -279 -140zM371 765h-50q3 46 23 70t54 24q26 0 75 -20q43 -18 57 -18q31 0 37 46h49q-6 -97 -80 -97q-26 0 -66 17q-46 21 -63 21q-31 0 -36 -43z" />
    <glyph glyph-name="gtilde" horiz-adv-x="626" 
d="M439 80q1 5 3 17.5t4 16.5h-3q-63 -89 -187 -89q-94 0 -155 58t-61 156q0 131 74 215t195 84q71 0 121.5 -31t69.5 -76l17 94h69l-76 -433q-26 -139 -91 -210t-191 -71q-103 0 -158.5 48.5t-59.5 123.5h74q4 -46 40.5 -81t108.5 -35q170 0 206 213zM313 480
q-91 0 -143.5 -64t-52.5 -163q0 -77 42 -124t121 -47q97 0 147 72t50 164q0 74 -42.5 118t-121.5 44zM258 613h-50q3 46 23 70t54 24q26 0 75 -20q43 -18 57 -18q31 0 37 46h49q-6 -97 -80 -97q-26 0 -66 17q-46 21 -63 21q-31 0 -36 -43z" />
    <glyph glyph-name="Mcircumflex" horiz-adv-x="847" 
d="M40 0l127 715h123l61 -427q2 -14 28 -209h1q40 74 109 216l218 420h119l-127 -715h-72l64 362q42 226 58 299h-1q-33 -77 -145 -291l-195 -370h-87l-68 471q-21 147 -24 190h-1q-18 -117 -45 -260l-71 -401h-72zM473 875h77q10 -15 36.5 -54.5t40.5 -59.5h-65l-56 67
l-79 -67h-72q15 14 118 114z" />
    <glyph glyph-name="mcircumflex" horiz-adv-x="921" 
d="M722 0l54 302q6 31 6 60q0 120 -108 120q-67 0 -113 -47t-59 -116l-56 -319h-72l53 302q6 31 6 60q0 120 -108 120q-67 0 -113 -47t-59 -116l-56 -319h-72l78 445q11 58 14 80h72l-14 -78q61 92 173 92q122 0 152 -105h1q27 41 75.5 73t117.5 32q78 0 120 -41.5
t42 -116.5q0 -33 -7 -73l-55 -308h-72zM500 715h77q11 -17 38 -58.5t40 -60.5h-65l-57 72l-80 -72h-72q19 18 60 60t59 59z" />
    <glyph glyph-name="Mmacron" horiz-adv-x="847" 
d="M40 0l127 715h123l61 -427q2 -14 28 -209h1q40 74 109 216l218 420h119l-127 -715h-72l64 362q42 226 58 299h-1q-33 -77 -145 -291l-195 -370h-87l-68 471q-21 147 -24 190h-1q-18 -117 -45 -260l-71 -401h-72zM381 788l8 51h244l-8 -51h-244z" />
    <glyph glyph-name="mmacron" horiz-adv-x="921" 
d="M722 0l54 302q6 31 6 60q0 120 -108 120q-67 0 -113 -47t-59 -116l-56 -319h-72l53 302q6 31 6 60q0 120 -108 120q-67 0 -113 -47t-59 -116l-56 -319h-72l78 445q11 58 14 80h72l-14 -78q61 92 173 92q122 0 152 -105h1q27 41 75.5 73t117.5 32q78 0 120 -41.5
t42 -116.5q0 -33 -7 -73l-55 -308h-72zM391 630l8 51h244l-8 -51h-244z" />
    <glyph glyph-name="Ncircumflex" horiz-adv-x="730" 
d="M582 0h-108l-163 433q-69 176 -82 226h-2q-4 -20 -24.5 -145t-26.5 -157l-63 -357h-73l127 715h118l164 -439l73 -203h2q4 19 18 106t21 124l73 412h73zM422 875h77q10 -15 36.5 -54.5t40.5 -59.5h-65l-56 67l-79 -67h-72q15 14 118 114z" />
    <glyph glyph-name="ncircumflex" horiz-adv-x="581" 
d="M25 0l78 445q11 58 14 80h72l-14 -78q61 92 176 92q79 0 122 -41.5t43 -116.5q0 -33 -7 -73l-55 -308h-72l54 302q6 31 6 60q0 120 -114 120q-69 0 -115.5 -46.5t-59.5 -116.5l-56 -319h-72zM323 715h77q11 -17 38 -58.5t40 -60.5h-65l-57 72l-80 -72h-72q19 18 60 60
t59 59z" />
    <glyph glyph-name="Ndieresis" horiz-adv-x="730" 
d="M582 0h-108l-163 433q-69 176 -82 226h-2q-4 -20 -24.5 -145t-26.5 -157l-63 -357h-73l127 715h118l164 -439l73 -203h2q4 19 18 106t21 124l73 412h73zM333 766l15 80h79l-15 -80h-79zM486 766l15 80h78l-15 -80h-78z" />
    <glyph glyph-name="ndieresis" horiz-adv-x="581" 
d="M25 0l78 445q11 58 14 80h72l-14 -78q61 92 176 92q79 0 122 -41.5t43 -116.5q0 -33 -7 -73l-55 -308h-72l54 302q6 31 6 60q0 120 -114 120q-69 0 -115.5 -46.5t-59.5 -116.5l-56 -319h-72zM234 616l15 80h79l-15 -80h-79zM387 616l15 80h78l-15 -80h-78z" />
    <glyph glyph-name="Nmacron" horiz-adv-x="730" 
d="M582 0h-108l-163 433q-69 176 -82 226h-2q-4 -20 -24.5 -145t-26.5 -157l-63 -357h-73l127 715h118l164 -439l73 -203h2q4 19 18 106t21 124l73 412h73zM332 788l8 51h244l-8 -51h-244z" />
    <glyph glyph-name="nmacron" horiz-adv-x="581" 
d="M25 0l78 445q11 58 14 80h72l-14 -78q61 92 176 92q79 0 122 -41.5t43 -116.5q0 -33 -7 -73l-55 -308h-72l54 302q6 31 6 60q0 120 -114 120q-69 0 -115.5 -46.5t-59.5 -116.5l-56 -319h-72zM223 630l8 51h244l-8 -51h-244z" />
    <glyph glyph-name="Pmacron" horiz-adv-x="581" 
d="M40 0l127 715h156q121 0 180 -31q79 -42 79 -139q0 -62 -27 -115.5t-79 -85.5q-63 -41 -205 -41h-103l-54 -303h-74zM230 654l-51 -290h112q214 0 214 171q0 119 -177 119h-98zM254 788l8 51h244l-8 -51h-244z" />
    <glyph glyph-name="pmacron" horiz-adv-x="623" 
d="M118 525h71l-15 -77q61 91 183 91q96 0 156 -63t60 -169q0 -138 -77 -229t-196 -91q-72 0 -120 32t-68 81q-3 -17 -9.5 -59t-12.5 -77l-26 -144h-72zM295 45q92 0 146.5 72.5t54.5 180.5q0 82 -41.5 132.5t-120.5 50.5q-96 0 -147 -76.5t-51 -180.5q0 -83 40 -131
t119 -48zM247 630l8 51h244l-8 -51h-244z" />
    <glyph glyph-name="at.case" horiz-adv-x="835" 
d="M581 533h58l-51 -288q-8 -47 44 -47q48 0 84.5 63t36.5 146q0 125 -82 202t-221 77q-148 0 -241 -95t-93 -239q0 -149 95.5 -241.5t243.5 -92.5q81 0 136.5 22.5t108.5 64.5l39 -22q-115 -108 -289 -108t-281 103.5t-107 273.5q0 160 109 269.5t279 109.5q155 0 253 -87
t98 -223q0 -119 -56 -192.5t-139 -73.5q-66 0 -84 51q-44 -52 -124 -52q-71 0 -112.5 42.5t-41.5 121.5q0 87 54.5 155t142.5 68q89 0 129 -69zM446 493q-65 0 -101 -52t-36 -122q0 -58 27 -90t81 -32q69 0 104.5 52.5t35.5 124.5q0 119 -111 119z" />
    <glyph glyph-name="bar.case" horiz-adv-x="273" 
d="M42 -42l139 793h67l-139 -793h-67z" />
    <glyph glyph-name="plus.case" 
d="M70 343v57h191v200h59v-200h192v-57h-192v-200h-59v200h-191z" />
    <glyph glyph-name="minus.case" 
d="M68 342v59h442v-59h-442z" />
    <glyph glyph-name="plusminus.case" 
d="M50 50v59h442v-59h-442zM49 356v57h191v188h59v-188h192v-57h-192v-188h-59v188h-191z" />
    <glyph glyph-name="multiply.case" 
d="M119 162l-41 42l167 167l-167 167l41 42l167 -167l168 167l42 -41l-168 -168l168 -168l-42 -41l-168 167z" />
    <glyph glyph-name="divide.case" 
d="M70 343v59h442v-59h-442zM250 145v111h76v-111h-76zM250 488v111h76v-111h-76z" />
    <glyph glyph-name="equal.case" 
d="M67 435v59h442v-59h-442zM67 254v59h442v-59h-442z" />
    <glyph glyph-name="notequal.case" 
d="M63 435v59h245l56 116h66l-56 -116h131v-59h-160l-59 -122h219v-59h-247l-60 -124h-66l60 124h-129v59h157l59 122h-216z" />
    <glyph glyph-name="approxequal.case" 
d="M490 492l44 -28q-60 -101 -145 -101q-37 0 -103 31l-42 20q-56 27 -83 27q-55 0 -90 -67l-42 30q59 94 138 94q43 0 96 -27l52 -26q52 -25 78 -25q58 0 97 72zM488 242l44 -28q-60 -101 -145 -101q-37 0 -103 31l-42 20q-56 27 -83 27q-55 0 -90 -67l-42 30q59 94 138 94
q43 0 96 -27l52 -26q52 -25 78 -25q58 0 97 72z" />
    <glyph glyph-name="logicalnot.case" 
d="M27 453v57h503v-323h-59v266h-444z" />
    <glyph glyph-name="parenleft.case" horiz-adv-x="304" 
d="M46 262q0 155 81 305.5t224 239.5l-13 -72q-106 -89 -165.5 -212.5t-59.5 -262.5q0 -178 90 -295l-13 -71q-63 49 -103.5 149.5t-40.5 218.5z" />
    <glyph glyph-name="parenright.case" horiz-adv-x="304" 
d="M273 440q0 -157 -80.5 -308.5t-224.5 -238.5l13 72q106 89 165.5 213t59.5 263q0 179 -90 296l13 70q63 -48 103.5 -149.5t40.5 -217.5z" />
    <glyph glyph-name="hyphen.case" horiz-adv-x="416" 
d="M75 333l11 61h272l-11 -61h-272z" />
    <glyph glyph-name="bracketleft.case" horiz-adv-x="314" 
d="M217 -11l-9 -52h-170l145 828h170l-9 -52h-103l-127 -724h103z" />
    <glyph glyph-name="bracketright.case" horiz-adv-x="314" 
d="M-22 -63l9 52h102l127 724h-103l9 52h170l-145 -828h-169z" />
    <glyph glyph-name="braceleft.case" horiz-adv-x="286" 
d="M45 338l5 29q39 11 56 31t26 76l30 168q12 74 35 99t87 25q4 0 11.5 -0.5t9.5 -0.5h8l-10 -53q-38 0 -52.5 -13t-22.5 -61l-23 -134q-14 -83 -30.5 -110.5t-63.5 -41.5l-1 -2q29 -13 40 -27.5t11 -42.5q0 -31 -10 -82l-24 -136q-4 -17 -4 -37q0 -23 11.5 -30.5t40.5 -9.5
l-9 -49q-3 -1 -8 -1h-20q-48 0 -66.5 14.5t-18.5 49.5q0 26 7 64l29 164q5 33 5 48q0 28 -11 41t-38 22z" />
    <glyph glyph-name="braceright.case" horiz-adv-x="288" 
d="M257 358l-5 -29q-39 -11 -56 -31t-26 -76l-30 -163q-12 -74 -35 -99t-87 -25h-21q-5 0 -8 1l10 51q38 0 51.5 13t23.5 61l23 132q15 83 31 110t63 42l1 2q-29 13 -40 27.5t-11 42.5q0 31 10 82l24 140q4 17 4 37q0 23 -11.5 30.5t-40.5 9.5l9 49h8q2 0 8.5 0.5t11.5 0.5
q48 0 66.5 -14.5t18.5 -49.5q0 -26 -7 -64l-29 -169q-5 -33 -5 -48q0 -28 11 -41t38 -22z" />
    <glyph glyph-name="guillemotleft.case" horiz-adv-x="486" 
d="M273 533l-132 -183l66 -192h-61l-78 196l140 179h65zM460 533l-127 -183l61 -192h-59l-78 196l140 179h63z" />
    <glyph glyph-name="guillemotright.case" horiz-adv-x="487" 
d="M227 158l132 183l-66 192h61l78 -196l-140 -179h-65zM40 158l127 183l-61 192h59l78 -196l-140 -179h-63z" />
    <glyph glyph-name="endash.case" horiz-adv-x="621" 
d="M75 333l11 59h476l-11 -59h-476z" />
    <glyph glyph-name="emdash.case" horiz-adv-x="986" 
d="M75 333l11 59h841l-11 -59h-841z" />
    <glyph glyph-name="guilsinglleft.case" horiz-adv-x="297" 
d="M271 533l-127 -183l61 -192h-59l-78 196l140 179h63z" />
    <glyph glyph-name="guilsinglright.case" horiz-adv-x="298" 
d="M40 158l127 183l-61 192h59l78 -196l-140 -179h-63z" />
    <glyph glyph-name="brokenbar.case" horiz-adv-x="217" 
d="M100 448l53 303h67l-53 -303h-67zM14 -42l53 303h67l-53 -303h-67z" />
    <glyph glyph-name="registered.alt" horiz-adv-x="854" 
d="M305 143v429h134q73 0 113 -30t40 -89q0 -104 -111 -123l113 -187h-64l-103 178h-68v-178h-54zM359 527v-161h69q55 0 77 17q31 19 31 66q0 48 -38 66q-25 12 -70 12h-69zM813 360q0 -158 -110 -267.5t-268 -109.5q-156 0 -265.5 110t-109.5 267t109.5 266.5t267.5 109.5
q156 0 266 -110t110 -266zM768 360q0 140 -97 237.5t-234 97.5q-140 0 -236 -97t-96 -238t95.5 -239t235.5 -98q138 0 235 98t97 239z" />
    <glyph glyph-name="less.case" 
d="M67 335v57q226 117 396 208v-64q-42 -20 -117 -57t-148 -74.5t-75 -38.5v-3q6 -3 76 -39.5t146 -75t118 -57.5v-64q-170 91 -396 208z" />
    <glyph glyph-name="greater.case" 
d="M512 392v-57q-226 -117 -396 -208v64q42 20 118 58.5t145.5 74t76.5 39.5v3q-2 1 -75.5 38t-148 74.5t-116.5 57.5v64q170 -91 396 -208z" />
    <glyph glyph-name="lessequal.case" 
d="M64 323v57q54 28 188.5 95t207.5 106v-64q-141 -65 -338 -163v-3q177 -91 338 -165v-64q-73 39 -207.5 106t-188.5 95zM64 0v59h396v-59h-396z" />
    <glyph glyph-name="greaterequal.case" 
d="M475 380v-57q-54 -28 -188.5 -95t-207.5 -106v64q220 104 338 165v3q-115 57 -338 163v64q73 -39 207.5 -106t188.5 -95zM475 59v-59h-396v59h396z" />
    <glyph glyph-name="infinity.case" horiz-adv-x="852" 
d="M225 532q39 0 79.5 -20.5t65.5 -42.5t66 -63q43 43 66 63.5t63 41.5t79 21q74 0 117.5 -45.5t43.5 -121.5q0 -73 -40.5 -120.5t-119.5 -47.5q-54 0 -101 29.5t-111 93.5q-65 -65 -110.5 -94t-99.5 -29q-79 0 -119.5 47.5t-40.5 120.5q0 76 44 121.5t118 45.5zM224 251
q42 0 79 26t99 86q-6 6 -38.5 37t-46.5 42t-41.5 24.5t-53.5 13.5q-46 0 -72.5 -33t-26.5 -81q0 -52 26.5 -83.5t74.5 -31.5zM644 251q48 0 74.5 31.5t26.5 83.5q0 48 -26.5 81t-72.5 33q-26 0 -53.5 -13.5t-41.5 -24.5t-46.5 -42t-38.5 -37q62 -60 99 -86t79 -26z" />
    <glyph glyph-name="uni00AD.case" horiz-adv-x="416" 
d="M75 333l11 61h272l-11 -61h-272z" />
    <glyph glyph-name="zero.posf" horiz-adv-x="609" 
d="M259 41q65 0 112 44q57 55 90 183.5t33 235.5q0 71 -32.5 111.5t-99.5 40.5q-64 0 -111 -44q-56 -54 -88.5 -183t-32.5 -236q0 -152 129 -152zM556 349q-15 -78 -35 -137t-54 -113.5t-87.5 -84t-123.5 -29.5q-105 0 -152.5 52.5t-48.5 157.5q0 75 14 150q14 79 33 137.5
t52.5 115t87 86.5t125.5 30q201 0 203 -216q0 -74 -14 -149z" />
    <glyph glyph-name="one.posf" horiz-adv-x="382" 
d="M149 0l97 538h-178l10 52h22q90 0 131.5 25.5t62.5 85.5h54l-127 -701h-72z" />
    <glyph glyph-name="two.posf" horiz-adv-x="569" 
d="M466 0h-465l11 58q51 36 82 60q141 105 158 118q43 33 60 46.5t55.5 49.5t55.5 61t33 63t16 76q0 60 -36.5 92.5t-102.5 32.5q-141 0 -172 -175h-74q15 107 79 170t173 63q102 0 156 -46.5t54 -123.5q0 -48 -17.5 -93.5t-41 -80t-66 -74.5t-73.5 -64t-82 -61
q-5 -3 -28 -19.5t-56 -39.5t-74 -51h366z" />
    <glyph glyph-name="three.posf" horiz-adv-x="574" 
d="M24 201h73q-2 -79 39 -119.5t115 -40.5q81 0 129.5 45.5t48.5 122.5q0 70 -51.5 104.5t-127.5 34.5h-12l11 58h8q195 0 195 142q0 51 -32 79.5t-91 28.5q-116 0 -147 -130h-74q15 86 75 137t157 51q89 0 138.5 -42.5t49.5 -109.5q0 -70 -41.5 -116t-114.5 -64
q50 -15 91 -58.5t41 -111.5q0 -100 -71.5 -163.5t-186.5 -63.5q-109 0 -167.5 56t-54.5 160z" />
    <glyph glyph-name="four.posf" horiz-adv-x="581" 
d="M529 223l-10 -58h-101l-30 -165h-71l30 165h-344l8 50l291 326q28 32 77.5 88t63.5 72h72l-87 -478h101zM433 610h-2q-136 -161 -154 -181l-59 -67q-12 -13 -39 -43.5t-40 -44.5l-47 -51h265l23 124q23 135 53 263z" />
    <glyph glyph-name="five.posf" horiz-adv-x="567" 
d="M72 330l109 371h366l-11 -62h-308l-73 -249q58 58 147 58q92 0 150 -55t58 -146q0 -111 -68.5 -186.5t-187.5 -75.5q-102 0 -166.5 52.5t-70.5 153.5h75q2 -63 46 -106t118 -43q81 0 129.5 56t48.5 137q0 71 -41.5 112.5t-108.5 41.5q-84 0 -144 -70z" />
    <glyph glyph-name="six.posf" horiz-adv-x="594" 
d="M565 521h-73q0 54 -31.5 95.5t-101.5 41.5q-86 0 -137 -75t-82 -235q20 41 68.5 70.5t115.5 29.5q90 0 147 -53.5t57 -146.5q0 -114 -69.5 -188t-189.5 -74q-100 0 -158 54.5t-58 168.5q0 57 12 127q34 200 106.5 289.5t194.5 89.5q100 0 147.5 -53t51.5 -141zM302 389
q-81 0 -128 -52.5t-47 -137.5q0 -74 38 -116t111 -42q76 0 126 54t50 140q0 70 -39.5 112t-110.5 42z" />
    <glyph glyph-name="seven.posf" horiz-adv-x="490" 
d="M130 0h-89q42 70 122 194t96 150q130 202 197 295l1 1q-20 -1 -56 -1h-312l12 62h440l-11 -56l-33 -52q-271 -421 -367 -593z" />
    <glyph glyph-name="eight.posf" horiz-adv-x="596" 
d="M197 378q-76 57 -76 142q0 86 60.5 140t168.5 54q95 0 149 -43.5t54 -115.5q0 -66 -36.5 -113t-98.5 -68q107 -55 107 -164q0 -100 -70.5 -162.5t-191.5 -62.5q-101 0 -167 49.5t-66 138.5q0 74 44 128t123 77zM343 657q-66 0 -107.5 -34.5t-41.5 -98.5q0 -57 34.5 -90
t96.5 -33q66 0 108.5 40t42.5 103q0 53 -36 83t-97 30zM292 347q-78 0 -131 -45.5t-53 -121.5q0 -65 43.5 -102t114.5 -37q85 0 134 46.5t49 126.5q0 62 -43 97.5t-114 35.5z" />
    <glyph glyph-name="nine.posf" horiz-adv-x="594" 
d="M43 179h73q0 -54 31.5 -95.5t101.5 -41.5q86 0 137 75t82 235q-20 -41 -68.5 -70.5t-115.5 -29.5q-90 0 -147 53.5t-57 146.5q0 114 69 188t188 74q101 0 159.5 -54.5t58.5 -168.5q0 -57 -12 -127q-33 -199 -105.5 -289t-195.5 -90q-99 0 -148 53.5t-51 140.5zM306 311
q81 0 128 52.5t47 137.5q0 74 -38 116t-111 42q-76 0 -126 -54t-50 -140q0 -70 39.5 -112t110.5 -42z" />
    <glyph glyph-name="zero.slashplf" horiz-adv-x="607" 
d="M558 357q-15 -79 -35 -139.5t-54 -116t-87.5 -85.5t-123.5 -30q-105 0 -152.5 54t-48.5 160q0 77 14 153q12 64 25 113t37 101t54.5 85.5t77 55t104.5 21.5q201 0 203 -220q0 -76 -14 -152zM132 198q0 -58 17 -93l291 545q-32 20 -76 20q-64 0 -111 -45
q-56 -56 -88.5 -187t-32.5 -240zM261 43q65 0 112 45q57 57 90 187.5t33 239.5q0 48 -15 84l-287 -541q27 -15 67 -15z" />
    <glyph glyph-name="zero.slash" 
d="M534 357q-15 -79 -35 -139.5t-54 -116t-87.5 -85.5t-123.5 -30q-105 0 -152.5 54t-48.5 160q0 77 14 153q12 64 25 113t37 101t54.5 85.5t77 55t104.5 21.5q201 0 203 -220q0 -76 -14 -152zM108 198q0 -58 17 -93l291 545q-32 20 -76 20q-64 0 -111 -45
q-56 -56 -88.5 -187t-32.5 -240zM237 43q65 0 112 45q57 57 90 187.5t33 239.5q0 48 -15 84l-287 -541q27 -15 67 -15z" />
    <glyph glyph-name="zero.tosf" 
d="M234 41q65 0 112 44q57 55 90 183.5t33 235.5q0 71 -32.5 111.5t-99.5 40.5q-64 0 -111 -44q-56 -54 -88.5 -183t-32.5 -236q0 -152 129 -152zM531 349q-15 -78 -35 -137t-54 -113.5t-87.5 -84t-123.5 -29.5q-105 0 -152.5 52.5t-48.5 157.5q0 75 14 150q14 79 33 137.5
t52.5 115t87 86.5t125.5 30q201 0 203 -216q0 -74 -14 -149z" />
    <glyph glyph-name="one.tosf" 
d="M238 0l97 538h-178l10 52h22q90 0 131.5 25.5t62.5 85.5h54l-127 -701h-72z" />
    <glyph glyph-name="two.tosf" 
d="M461 0h-465l11 58q51 36 82 60q141 105 158 118q43 33 60 46.5t55.5 49.5t55.5 61t33 63t16 76q0 60 -36.5 92.5t-102.5 32.5q-141 0 -172 -175h-74q15 107 79 170t173 63q102 0 156 -46.5t54 -123.5q0 -48 -17.5 -93.5t-41 -80t-66 -74.5t-73.5 -64t-82 -61
q-5 -3 -28 -19.5t-56 -39.5t-74 -51h366z" />
    <glyph glyph-name="three.tosf" 
d="M17 202h73q-2 -79 39 -119.5t115 -40.5q81 0 129.5 45.5t48.5 122.5q0 70 -51.5 104.5t-127.5 34.5h-12l11 58h8q195 0 195 142q0 51 -32 79.5t-91 28.5q-116 0 -147 -130h-74q15 86 75 137t157 51q89 0 138.5 -42.5t49.5 -109.5q0 -70 -41.5 -116t-114.5 -64
q50 -15 91 -58.5t41 -111.5q0 -100 -71.5 -163.5t-186.5 -63.5q-109 0 -167.5 56t-54.5 160z" />
    <glyph glyph-name="four.tosf" 
d="M518 223l-10 -58h-101l-30 -165h-71l30 165h-344l8 50l291 326q28 32 77.5 88t63.5 72h72l-87 -478h101zM422 610h-2q-136 -161 -154 -181l-59 -67q-12 -13 -39 -43.5t-40 -44.5l-47 -51h265l23 124q23 135 53 263z" />
    <glyph glyph-name="five.tosf" 
d="M68 331l109 371h366l-11 -62h-308l-73 -249q58 58 147 58q92 0 150 -55t58 -146q0 -111 -68.5 -186.5t-187.5 -75.5q-102 0 -166.5 52.5t-70.5 153.5h75q2 -63 46 -106t118 -43q81 0 129.5 56t48.5 137q0 71 -41.5 112.5t-108.5 41.5q-84 0 -144 -70z" />
    <glyph glyph-name="six.tosf" 
d="M548 521h-73q0 54 -31.5 95.5t-101.5 41.5q-86 0 -137 -75t-82 -235q20 41 68.5 70.5t115.5 29.5q90 0 147 -53.5t57 -146.5q0 -114 -69.5 -188t-189.5 -74q-100 0 -158 54.5t-58 168.5q0 57 12 127q34 200 106.5 289.5t194.5 89.5q100 0 147.5 -53t51.5 -141zM285 389
q-81 0 -128 -52.5t-47 -137.5q0 -74 38 -116t111 -42q76 0 126 54t50 140q0 70 -39.5 112t-110.5 42z" />
    <glyph glyph-name="seven.tosf" 
d="M165 0h-89q42 70 122 194t96 150q130 202 197 295l1 1q-20 -1 -56 -1h-312l12 62h440l-11 -56l-33 -52q-271 -421 -367 -593z" />
    <glyph glyph-name="eight.tosf" 
d="M179 379q-76 57 -76 142q0 86 60.5 140t168.5 54q95 0 149 -43.5t54 -115.5q0 -66 -36.5 -113t-98.5 -68q107 -55 107 -164q0 -100 -70.5 -162.5t-191.5 -62.5q-101 0 -167 49.5t-66 138.5q0 74 44 128t123 77zM325 658q-66 0 -107.5 -34.5t-41.5 -98.5q0 -57 34.5 -90
t96.5 -33q66 0 108.5 40t42.5 103q0 53 -36 83t-97 30zM274 348q-78 0 -131 -45.5t-53 -121.5q0 -65 43.5 -102t114.5 -37q85 0 134 46.5t49 126.5q0 62 -43 97.5t-114 35.5z" />
    <glyph glyph-name="nine.tosf" 
d="M27 180h73q0 -54 31.5 -95.5t101.5 -41.5q86 0 137 75t82 235q-20 -41 -68.5 -70.5t-115.5 -29.5q-90 0 -147 53.5t-57 146.5q0 114 69 188t188 74q101 0 159.5 -54.5t58.5 -168.5q0 -56 -12 -127q-33 -199 -105.5 -289t-195.5 -90q-99 0 -148 53.5t-51 140.5zM290 312
q81 0 128 52.5t47 137.5q0 74 -38 116t-111 42q-76 0 -126 -54t-50 -140q0 -70 39.5 -112t110.5 -42z" />
    <glyph glyph-name="zero.sub" horiz-adv-x="454" 
d="M180 -89q50 0 82 33q43 43 68 140t25 179q0 53 -24.5 83.5t-73.5 30.5q-45 0 -82 -34q-42 -42 -66 -138.5t-24 -179.5q0 -114 95 -114zM403 144q-47 -278 -225 -278q-80 0 -115.5 40t-36.5 120q0 57 11 115q9 47 19.5 83.5t28.5 75.5t41 64.5t57 42t77 16.5
q152 0 154 -165q0 -56 -11 -114z" />
    <glyph glyph-name="one.sub" horiz-adv-x="291" 
d="M103 -123l72 411h-133l7 41h18q67 0 98 19.5t46 65.5h42l-94 -537h-56z" />
    <glyph glyph-name="two.sub" horiz-adv-x="428" 
d="M337 -123h-350l9 45l61 46q10 7 53 40t66 51q35 26 56.5 45t50 49t43 63t14.5 68q0 44 -27.5 69t-75.5 25q-106 0 -128 -133h-57q10 82 58.5 130.5t131.5 48.5q76 0 116.5 -35.5t40.5 -94.5q0 -45 -17 -85.5t-52 -78.5t-63.5 -62.5t-76.5 -60.5q-26 -19 -115 -81h270z
" />
    <glyph glyph-name="three.sub" horiz-adv-x="432" 
d="M5 32h57q-1 -59 29.5 -90t85.5 -31q60 0 95.5 33.5t35.5 92.5q0 53 -38 79t-94 26h-10l8 47h7q144 0 144 107q0 38 -23.5 59.5t-66.5 21.5q-86 0 -109 -98h-58q12 66 57 105t118 39q68 0 104.5 -32t36.5 -84q0 -53 -30 -88.5t-84 -48.5q39 -15 67.5 -47.5t28.5 -83.5
q0 -77 -53.5 -125t-139.5 -48q-83 0 -126.5 42.5t-41.5 123.5z" />
    <glyph glyph-name="four.sub" horiz-adv-x="439" 
d="M386 49l-7 -47h-76l-23 -125h-54l22 125h-257l6 41l218 249q4 4 14 15t14 17q39 44 77 90h56l-66 -365h76zM272 143q15 82 33 165l6 32l-113 -135l-44 -52q-10 -11 -59 -66l-34 -38h194q3 15 8.5 47t8.5 47zM313 342h-1l-1 -2z" />
    <glyph glyph-name="five.sub" horiz-adv-x="427" 
d="M41 129l82 285h276l-9 -50h-230q-10 -31 -27 -92.5t-26 -91.5q45 41 108 41q69 0 112.5 -42t43.5 -113q0 -85 -51 -142.5t-141 -57.5q-78 0 -126 40t-53 119h58q2 -48 34.5 -80.5t87.5 -32.5q60 0 96 42.5t36 102.5q0 54 -31 85.5t-80 31.5q-60 0 -107 -53z" />
    <glyph glyph-name="six.sub" horiz-adv-x="445" 
d="M411 274h-57q0 41 -23.5 72.5t-74.5 31.5q-62 0 -100 -55.5t-62 -173.5q18 30 53.5 50.5t82.5 20.5q68 0 110.5 -41.5t42.5 -112.5q0 -87 -52 -143.5t-142 -56.5q-76 0 -119.5 41.5t-43.5 128.5q0 44 9 98q26 153 79.5 221t146.5 68q76 0 112 -40.5t38 -108.5zM214 173
q-60 0 -95.5 -40t-35.5 -104q0 -56 28 -87.5t83 -31.5q56 0 93 40.5t37 105.5q0 54 -29 85.5t-81 31.5z" />
    <glyph glyph-name="seven.sub" horiz-adv-x="372" 
d="M88 -123h-69l117 189l48 76q106 169 145 223q-13 -1 -39 -1h-234l9 50h331l-8 -45l-25 -40l-20 -31q-19 -30 -66.5 -106.5t-70 -113t-57 -94.5t-61.5 -107z" />
    <glyph glyph-name="eight.sub" horiz-adv-x="449" 
d="M10 9q0 56 32.5 97.5t91.5 60.5q-55 39 -55 108q0 66 45 107t127 41q71 0 112 -33t41 -88q0 -50 -27.5 -86.5t-73.5 -52.5q80 -45 80 -125q0 -77 -53 -124.5t-144 -47.5q-77 0 -126.5 37.5t-49.5 105.5zM246 378q-50 0 -80.5 -26.5t-30.5 -73.5q0 -43 25.5 -68t72.5 -25
q48 0 79.5 30t31.5 78q0 39 -27.5 62t-70.5 23zM208 142q-58 0 -97.5 -34.5t-39.5 -92.5q0 -49 32.5 -76.5t84.5 -27.5q62 0 99 35t37 95q0 47 -32 74t-84 27z" />
    <glyph glyph-name="nine.sub" horiz-adv-x="445" 
d="M20 15h57q0 -41 23 -72.5t75 -31.5q62 0 100 55.5t62 173.5q-18 -29 -53 -50t-82 -21q-69 0 -111.5 41t-42.5 113q0 87 51.5 143.5t141.5 56.5q76 0 120 -41.5t44 -128.5q0 -44 -9 -98q-26 -152 -80.5 -220.5t-145.5 -68.5q-76 0 -112 40.5t-38 108.5zM218 116
q59 0 94 39.5t35 104.5q0 55 -28 87t-81 32q-57 0 -94 -40.5t-37 -105.5q0 -54 29 -85.5t82 -31.5z" />
    <glyph glyph-name="a.sub" horiz-adv-x="402" 
d="M96 151h-57q12 59 57 94.5t115 35.5q137 0 137 -117q0 -39 -12 -92l-4 -20q-3 -15 -8.5 -46t-8.5 -47q-7 -41 -7 -67v-7q0 -2 0.5 -4.5t0.5 -3.5h-53v11q0 20 5 50q-53 -68 -148 -68q-57 0 -89.5 25t-32.5 70q0 105 190 135q12 1 52 6.5t56 7.5q5 25 5 42q0 81 -91 81
q-85 0 -107 -86zM280 52q0 2 1 5q1 4 1 5l2 11l-21 -3q-54 -6 -81 -12q-26 -4 -43.5 -8t-40 -13.5t-34.5 -25.5t-12 -39q0 -30 21.5 -46t58.5 -16q58 0 96.5 36t51.5 106z" />
    <glyph glyph-name="b.sub" horiz-adv-x="459" 
d="M-5 -123l96 536h56l-21 -113q-11 -71 -14 -81q45 62 132 62q73 0 118 -47t45 -127q0 -105 -57.5 -172.5t-147.5 -67.5q-53 0 -88 22.5t-51 57.5q-2 -11 -7 -35t-7 -35h-54zM198 -88q68 0 109 53.5t41 134.5q0 61 -31 98t-90 37q-71 0 -108.5 -56.5t-37.5 -133.5
q0 -62 29.5 -97.5t87.5 -35.5z" />
    <glyph glyph-name="c.sub" horiz-adv-x="440" 
d="M332 3h55q-23 -61 -73.5 -98.5t-122.5 -37.5q-83 0 -130.5 47.5t-47.5 130.5q0 102 58 169t158 67q73 0 117 -38t56 -103h-56q-24 96 -120 96q-71 0 -113 -55t-42 -134q0 -63 33.5 -99t93.5 -36q90 0 134 91z" />
    <glyph glyph-name="d.sub" horiz-adv-x="458" 
d="M354 -123h-51l9 52q-46 -63 -136 -63q-73 0 -118 46.5t-45 127.5q0 105 57 172.5t147 67.5q54 0 89.5 -23.5t51.5 -59.5l4 28q1 6 4 28.5t6 36.5l21 123h56zM219 235q-67 0 -107 -54t-40 -134q0 -61 31 -98t90 -37q71 0 108.5 56.5t37.5 135.5q0 61 -30.5 96t-89.5 35z
" />
    <glyph glyph-name="e.sub" horiz-adv-x="447" 
d="M328 -10h56q-25 -56 -74 -89t-118 -33q-83 0 -131 46.5t-48 132.5q0 99 57.5 167t156.5 68q86 0 130 -51t44 -140v-25h-332v-18q0 -63 34.5 -99t94.5 -36q91 0 130 77zM224 238q-57 0 -95 -35t-53 -93h269q-4 64 -35.5 96t-85.5 32z" />
    <glyph glyph-name="f.sub" horiz-adv-x="214" 
d="M240 415l-7 -44h-9q-1 0 -4.5 0.5t-5.5 0.5q-46 0 -58 -55l-8 -46h67l-7 -42h-68q-6 -34 -28.5 -160t-33.5 -192h-56l62 352h-51l7 42h52l6 35q19 111 115 111q11 0 27 -2z" />
    <glyph glyph-name="g.sub" horiz-adv-x="461" 
d="M315 -61q2 18 2 20q-49 -63 -138 -63q-71 0 -117 43.5t-46 117.5q0 99 55.5 161.5t146.5 62.5q51 0 88 -22t54 -54l13 66h54l-57 -323q-19 -103 -68.5 -157.5t-143.5 -54.5q-77 0 -119.5 37t-44.5 94h57q3 -34 30.5 -60.5t80.5 -26.5q64 0 102 42.5t51 116.5zM221 236
q-67 0 -106 -47.5t-39 -121.5q0 -57 31 -91.5t89 -34.5q74 0 110.5 53t36.5 122q0 55 -31.5 87.5t-90.5 32.5z" />
    <glyph glyph-name="h.sub" horiz-adv-x="419" 
d="M-4 -123l95 537h56l-17 -95q-15 -87 -18 -101q48 64 129 64q60 0 92.5 -31.5t32.5 -87.5q0 -17 -6 -55l-41 -231h-56l41 227q4 21 4 45q0 88 -84 88q-49 0 -84 -35t-46 -85l-42 -240h-56z" />
    <glyph glyph-name="i.sub" horiz-adv-x="156" 
d="M134 328h-59l15 86h58zM66 271h56l-70 -394h-56z" />
    <glyph glyph-name="j.sub" horiz-adv-x="156" 
d="M65 270h56l-75 -426q-11 -62 -36.5 -88.5t-82.5 -26.5q-19 0 -30 3l8 45q1 -1 5 -1h14q28 0 43 12.5t21 46.5zM132 328h-58l15 85h58z" />
    <glyph glyph-name="k.sub" horiz-adv-x="356" 
d="M305 -123h-73l-89 123l-57 78l-35 -201h-55l95 537h55l-56 -314l195 171h78q-39 -34 -83.5 -72.5t-85.5 -72.5t-48 -40l69 -92z" />
    <glyph glyph-name="l.sub" horiz-adv-x="156" 
d="M-4 -123l95 537h55l-94 -537h-56z" />
    <glyph glyph-name="m.sub" horiz-adv-x="673" 
d="M517 -123l40 227q5 27 5 45q0 88 -80 88q-49 0 -82.5 -35t-44.5 -85l-42 -240h-56l39 227q5 27 5 45q0 88 -80 88q-49 0 -82.5 -35t-44.5 -85l-42 -240h-56l58 333q7 37 11 61h56l-10 -54q47 65 127 65q91 0 115 -77q17 29 55 53t89 24q59 0 90.5 -31t31.5 -88
q0 -23 -5 -55l-41 -231h-56z" />
    <glyph glyph-name="n.sub" horiz-adv-x="419" 
d="M-4 -123l59 333q3 17 10 61h56l-9 -54q41 65 129 65q60 0 92.5 -31.5t32.5 -87.5q0 -17 -6 -55l-41 -231h-56l41 227q4 21 4 45q0 88 -84 88q-49 0 -84 -35t-46 -85l-42 -240h-56z" />
    <glyph glyph-name="o.sub" horiz-adv-x="470" 
d="M199 -88q71 0 115 52.5t44 132.5q0 63 -34.5 101t-95.5 38q-72 0 -114.5 -55t-42.5 -134q0 -63 33.5 -99t94.5 -36zM195 -133q-86 0 -134 47t-48 131q0 102 59 169t161 67q85 0 135 -49t50 -130q0 -102 -60.5 -168.5t-162.5 -66.5z" />
    <glyph glyph-name="p.sub" horiz-adv-x="460" 
d="M66 271h55l-11 -54q52 64 135 64q73 0 118 -46.5t45 -127.5q0 -105 -57.5 -172.5t-147.5 -67.5q-53 0 -88.5 23.5t-51.5 59.5l-5 -35q-2 -10 -6 -32t-5 -32l-19 -109h-56zM199 -87q68 0 109 53.5t41 133.5q0 62 -31 99t-90 37q-71 0 -108.5 -56.5t-37.5 -134.5
q0 -62 29.5 -97t87.5 -35z" />
    <glyph glyph-name="q.sub" horiz-adv-x="458" 
d="M330 -256h-55l16 91l3 15q3 12 8 39.5t8 37.5q-44 -59 -134 -59q-72 0 -117.5 47t-45.5 127q0 104 58 172t147 68q51 0 87.5 -22t52.5 -56q0 5 2 14.5t4.5 26t4.5 27.5h56zM220 237q-67 0 -107 -54t-40 -134q0 -61 31 -98t90 -37q70 0 108 57t38 135q0 61 -30.5 96
t-89.5 35z" />
    <glyph glyph-name="r.sub" horiz-adv-x="222" 
d="M119 271l-11 -57q15 30 44.5 48t64.5 18q9 0 13 -1l-9 -54q-9 3 -23 3q-42 0 -69 -33.5t-37 -94.5l-40 -223h-56l59 334q8 39 10 60h54z" />
    <glyph glyph-name="s.sub" horiz-adv-x="372" 
d="M-6 -2h54q3 -40 29.5 -63.5t75.5 -23.5q46 0 72 18.5t26 51.5q0 27 -18.5 42t-57.5 28l-38 13q-50 17 -75 40t-25 65q0 51 40.5 82t106.5 31t105.5 -29t40.5 -86h-52q-4 32 -27.5 52t-68.5 20q-41 0 -65 -17t-24 -44q0 -26 17 -41t56 -28l36 -13q52 -17 78.5 -39
t26.5 -65q0 -58 -41.5 -91t-113.5 -33q-147 0 -158 130z" />
    <glyph glyph-name="t.sub" horiz-adv-x="225" 
d="M79 229h-60l6 42h61l19 106h56l-19 -106h74l-7 -42h-74l-45 -260q-3 -12 -3 -21q0 -34 47 -34q6 0 13 1l-8 -44q-5 -1 -21 -1q-44 0 -66.5 15t-22.5 51q0 17 4 33z" />
    <glyph glyph-name="u.sub" horiz-adv-x="416" 
d="M382 271l-59 -333q-3 -17 -10 -61h-56l9 54q-47 -65 -127 -65q-60 0 -92 31t-32 88q0 23 5 55l41 231h56l-40 -227q-5 -27 -5 -45q0 -88 84 -88q49 0 83 34.5t45 85.5l41 240h57z" />
    <glyph glyph-name="v.sub" horiz-adv-x="376" 
d="M103 -123l-1 1l-32 165l-45 227h59l36 -206q4 -23 11.5 -63t11.5 -70l74 144l107 195h61q-11 -19 -61 -106t-95 -166.5t-66 -120.5h-60z" />
    <glyph glyph-name="w.sub" horiz-adv-x="587" 
d="M81 -122l-1 1q-11 97 -19 149l-32 243h56l29 -258q2 -12 5 -40.5t6 -45.5l37 86q11 21 114 258h72l12 -177l13 -166q67 143 84 175l80 168h55q-10 -19 -35 -68.5t-47 -94t-40 -81.5l-74 -149h-71l-11 151q-3 33 -7.5 102.5t-5.5 85.5l-12 -27q-66 -156 -70 -164
q-37 -78 -68 -148h-70z" />
    <glyph glyph-name="x.sub" horiz-adv-x="358" 
d="M-48 -123l-1 2q12 15 57 63l123 136l-109 192h59l21 -38l63 -118q8 9 25 30t27 32l82 94h67q-57 -60 -114 -125l-62 -69l41 -73q24 -42 70 -126h-59q-12 21 -43 80t-44 82l-82 -96l-58 -66h-63z" />
    <glyph glyph-name="y.sub" horiz-adv-x="381" 
d="M86 -258h-59l83 138q-23 109 -52 231l-36 160h61q3 -18 41 -200q1 -4 27 -127q12 21 33.5 62.5t32.5 60.5l112 204h61l-101 -174q-27 -46 -95 -167t-108 -188z" />
    <glyph glyph-name="z.sub" horiz-adv-x="373" 
d="M-28 -123l7 43l216 221l43 44l16 16t14 13.5t8 8.5h-235l9 47h311l-7 -43l-304 -303h247l-9 -47h-316z" />
    <glyph glyph-name="zero.sup" horiz-adv-x="454" 
d="M233 336q51 0 82 33q43 43 68 140t25 179q0 53 -24.5 83.5t-73.5 30.5q-45 0 -82 -34q-42 -42 -66 -138.5t-24 -179.5q0 -114 95 -114zM456 569q-47 -278 -225 -278q-80 0 -115.5 40t-36.5 120q0 57 11 115q9 47 19.5 83.5t28.5 75.5t41 64.5t57 42t77 16.5
q152 0 154 -165q0 -56 -11 -114z" />
    <glyph glyph-name="one.sup" horiz-adv-x="291" 
d="M156 302l72 411h-133l7 41h18q67 0 98 19.5t46 65.5h42l-94 -537h-56z" />
    <glyph glyph-name="two.sup" horiz-adv-x="427" 
d="M390 302h-350l9 45l61 46q10 7 53 40t66 51q35 26 56.5 45t50 49t43 63t14.5 68q0 44 -27.5 69t-75.5 25q-106 0 -128 -133h-57q10 82 58.5 130.5t131.5 48.5q76 0 116.5 -35.5t40.5 -94.5q0 -45 -17 -85.5t-52 -78.5t-63.5 -62.5t-76.5 -60.5q-26 -19 -115 -81h270z" />
    <glyph glyph-name="three.sup" horiz-adv-x="430" 
d="M57 457h57q-1 -59 29.5 -90t85.5 -31q60 0 95.5 33.5t35.5 92.5q0 53 -38 79t-94 26h-10l8 47h7q144 0 144 107q0 38 -23.5 59.5t-66.5 21.5q-86 0 -109 -98h-58q12 66 57 105t118 39q68 0 104.5 -32t36.5 -84q0 -53 -30 -88.5t-84 -48.5q39 -15 67.5 -47.5t28.5 -83.5
q0 -77 -53.5 -125t-139.5 -48q-83 0 -126.5 42.5t-41.5 123.5z" />
    <glyph glyph-name="four.sup" horiz-adv-x="438" 
d="M439 474l-7 -47h-76l-23 -125h-54l22 125h-257l6 41l218 249q4 4 14 15t14 17q39 44 77 90h56l-66 -365h76zM325 568q15 82 33 165l6 32l-113 -135l-44 -52q-10 -11 -59 -66l-34 -38h194q3 15 8.5 47t8.5 47zM366 767h-1l-1 -2z" />
    <glyph glyph-name="five.sup" horiz-adv-x="426" 
d="M93 554l82 285h276l-9 -50h-230q-10 -31 -27 -92.5t-26 -91.5q45 41 108 41q69 0 112.5 -42t43.5 -113q0 -85 -51 -142.5t-141 -57.5q-78 0 -126 40t-53 119h58q2 -48 34.5 -80.5t87.5 -32.5q60 0 96 42.5t36 102.5q0 54 -31 85.5t-80 31.5q-60 0 -107 -53z" />
    <glyph glyph-name="six.sup" horiz-adv-x="444" 
d="M464 699h-57q0 41 -23.5 72.5t-74.5 31.5q-62 0 -100 -55.5t-62 -173.5q18 30 53.5 50.5t82.5 20.5q68 0 110.5 -41.5t42.5 -112.5q0 -87 -52 -143.5t-142 -56.5q-76 0 -119.5 41.5t-43.5 128.5q0 44 9 98q26 153 79.5 221t146.5 68q76 0 112 -40.5t38 -108.5zM267 598
q-60 0 -95.5 -40t-35.5 -104q0 -56 28 -87.5t83 -31.5q56 0 93 40.5t37 105.5q0 54 -29 85.5t-81 31.5z" />
    <glyph glyph-name="seven.sup" horiz-adv-x="371" 
d="M141 302h-69l117 189l48 76q106 169 145 223q-13 -1 -39 -1h-234l9 50h331l-8 -45l-25 -40l-20 -31q-19 -30 -66.5 -106.5t-70 -113t-57 -94.5t-61.5 -107z" />
    <glyph glyph-name="eight.sup" horiz-adv-x="449" 
d="M63 434q0 56 32.5 97.5t91.5 60.5q-55 39 -55 108q0 66 45 107t127 41q71 0 112 -33t41 -88q0 -50 -27.5 -86.5t-73.5 -52.5q80 -45 80 -125q0 -77 -53 -124.5t-144 -47.5q-77 0 -126.5 37.5t-49.5 105.5zM299 803q-50 0 -80.5 -26.5t-30.5 -73.5q0 -43 25.5 -68
t72.5 -25q48 0 79.5 30t31.5 78q0 39 -27.5 62t-70.5 23zM261 567q-58 0 -97.5 -34.5t-39.5 -92.5q0 -49 32.5 -76.5t84.5 -27.5q62 0 99 35t37 95q0 47 -32 74t-84 27z" />
    <glyph glyph-name="nine.sup" horiz-adv-x="444" 
d="M73 440h57q0 -41 23 -72.5t75 -31.5q62 0 100 55.5t62 173.5q-18 -29 -53 -50t-82 -21q-69 0 -111.5 41t-42.5 113q0 87 51.5 143.5t141.5 56.5q76 0 120 -41.5t44 -128.5q0 -44 -9 -98q-26 -152 -80.5 -220.5t-145.5 -68.5q-76 0 -112 40.5t-38 108.5zM271 541
q59 0 94 39.5t35 104.5q0 55 -28 87t-81 32q-57 0 -94 -40.5t-37 -105.5q0 -54 29 -85.5t82 -31.5z" />
    <glyph glyph-name="a.sup" horiz-adv-x="403" 
d="M150 576h-57q12 59 57 94.5t115 35.5q137 0 137 -117q0 -39 -12 -92l-4 -20q-2 -16 -8 -47t-9 -46q-7 -41 -7 -67v-7q0 -2 0.5 -4t0.5 -4h-53v11q0 20 5 50q-53 -68 -148 -68q-57 0 -89.5 25t-32.5 70q0 105 190 135q12 1 52 6.5t56 7.5q5 25 5 42q0 81 -91 81
q-85 0 -107 -86zM334 477q0 2 1 5q1 4 1 5l2 11l-21 -3q-54 -6 -81 -12q-26 -4 -43.5 -8t-40 -13.5t-34.5 -25.5t-12 -39q0 -30 21.5 -46t58.5 -16q58 0 96.5 36t51.5 106z" />
    <glyph glyph-name="b.sup" horiz-adv-x="459" 
d="M49 302l96 536h56l-21 -113q-11 -71 -14 -81q45 62 132 62q73 0 118 -47t45 -127q0 -105 -57.5 -172.5t-147.5 -67.5q-53 0 -88 22.5t-51 57.5q-2 -12 -7 -35.5t-7 -34.5h-54zM252 337q68 0 109 53.5t41 134.5q0 61 -31 98t-90 37q-71 0 -108.5 -56.5t-37.5 -133.5
q0 -62 29.5 -97.5t87.5 -35.5z" />
    <glyph glyph-name="c.sup" horiz-adv-x="441" 
d="M386 428h55q-23 -61 -73.5 -98.5t-122.5 -37.5q-83 0 -130.5 47.5t-47.5 130.5q0 102 58 169t158 67q73 0 117 -38t56 -103h-56q-24 96 -120 96q-71 0 -113 -55t-42 -134q0 -63 33.5 -99t93.5 -36q90 0 134 91z" />
    <glyph glyph-name="d.sup" horiz-adv-x="459" 
d="M407 302h-51l9 52q-46 -63 -136 -63q-73 0 -118 46.5t-45 127.5q0 105 57 172.5t147 67.5q54 0 89.5 -23.5t51.5 -59.5l4 28q1 6 4 28.5t6 36.5l21 123h56zM272 660q-67 0 -107 -54t-40 -134q0 -61 31 -98t90 -37q71 0 108.5 56.5t37.5 135.5q0 61 -30.5 96t-89.5 35z
" />
    <glyph glyph-name="e.sup" horiz-adv-x="447" 
d="M382 415h56q-25 -56 -74 -89t-118 -33q-83 0 -131 46.5t-48 132.5q0 99 57.5 167t156.5 68q86 0 130 -51t44 -140v-25h-332v-18q0 -63 34.5 -99t94.5 -36q91 0 130 77zM278 663q-57 0 -95 -35t-53 -93h269q-4 64 -35.5 96t-85.5 32z" />
    <glyph glyph-name="f.sup" horiz-adv-x="213" 
d="M293 840l-7 -44h-9q-1 0 -4.5 0.5t-5.5 0.5q-46 0 -58 -55l-8 -46h67l-7 -42h-68q-6 -34 -28.5 -160t-33.5 -192h-56l62 352h-51l7 42h52l6 35q19 111 115 111q11 0 27 -2z" />
    <glyph glyph-name="g.sup" horiz-adv-x="462" 
d="M369 364q2 18 2 20q-49 -63 -138 -63q-71 0 -117 43.5t-46 117.5q0 99 55.5 161.5t146.5 62.5q51 0 88 -22t54 -54l13 66h54l-57 -323q-19 -103 -68.5 -157.5t-143.5 -54.5q-77 0 -119.5 37t-44.5 94h57q3 -34 30.5 -60.5t80.5 -26.5q64 0 102 42.5t51 116.5zM275 661
q-67 0 -106 -47.5t-39 -121.5q0 -57 31 -91.5t89 -34.5q74 0 110.5 53t36.5 122q0 55 -31.5 87.5t-90.5 32.5z" />
    <glyph glyph-name="h.sup" horiz-adv-x="419" 
d="M49 302l95 537h56l-17 -95q-15 -87 -18 -101q48 64 129 64q60 0 92.5 -31.5t32.5 -87.5q0 -17 -6 -55l-41 -231h-56l41 227q4 21 4 45q0 88 -84 88q-49 0 -84 -35t-46 -85l-42 -240h-56z" />
    <glyph glyph-name="i.sup" horiz-adv-x="157" 
d="M187 753h-59l15 86h58zM119 696h56l-70 -394h-56z" />
    <glyph glyph-name="j.sup" horiz-adv-x="156" 
d="M118 695h56l-75 -426q-11 -62 -36.5 -88.5t-82.5 -26.5q-20 0 -30 3l8 45q1 -1 5 -1h14q28 0 43 12.5t21 46.5zM185 753h-58l15 85h58z" />
    <glyph glyph-name="k.sup" horiz-adv-x="355" 
d="M358 302h-73l-89 123l-57 78l-35 -201h-55l95 537h55l-56 -314l195 171h78q-39 -34 -83.5 -72.5t-85.5 -72.5t-48 -40l69 -92z" />
    <glyph glyph-name="l.sup" horiz-adv-x="156" 
d="M49 302l95 537h55l-94 -537h-56z" />
    <glyph glyph-name="m.sup" horiz-adv-x="673" 
d="M571 302l40 227q5 27 5 45q0 88 -80 88q-49 0 -82.5 -35t-44.5 -85l-42 -240h-56l39 227q5 27 5 45q0 88 -80 88q-49 0 -82.5 -35t-44.5 -85l-42 -240h-56l58 333q7 37 11 61h56l-10 -54q47 65 127 65q91 0 115 -77q17 29 55 53t89 24q59 0 90.5 -31t31.5 -88
q0 -23 -5 -55l-41 -231h-56z" />
    <glyph glyph-name="n.sup" horiz-adv-x="419" 
d="M49 302l59 333q3 17 10 61h56l-9 -54q41 65 129 65q60 0 92.5 -31.5t32.5 -87.5q0 -17 -6 -55l-41 -231h-56l41 227q4 21 4 45q0 88 -84 88q-49 0 -84 -35t-46 -85l-42 -240h-56z" />
    <glyph glyph-name="o.sup" horiz-adv-x="470" 
d="M253 337q71 0 115 52.5t44 132.5q0 63 -34.5 101t-95.5 38q-72 0 -114.5 -55t-42.5 -134q0 -63 33.5 -99t94.5 -36zM249 292q-86 0 -134 47t-48 131q0 102 59 169t161 67q85 0 135 -49t50 -130q0 -102 -60.5 -168.5t-162.5 -66.5z" />
    <glyph glyph-name="p.sup" horiz-adv-x="459" 
d="M119 696h55l-11 -54q52 64 135 64q73 0 118 -46.5t45 -127.5q0 -105 -57.5 -172.5t-147.5 -67.5q-53 0 -88.5 23.5t-51.5 59.5l-5 -35q-1 -10 -5 -32t-6 -32l-19 -109h-56zM252 338q68 0 109 53.5t41 133.5q0 62 -31 99t-90 37q-71 0 -108.5 -56.5t-37.5 -134.5
q0 -62 29.5 -97t87.5 -35z" />
    <glyph glyph-name="q.sup" horiz-adv-x="459" 
d="M383 169h-55l16 91l3 15q3 12 8 39.5t8 37.5q-44 -59 -134 -59q-72 0 -117.5 47t-45.5 127q0 104 58 172t147 68q51 0 87.5 -22t52.5 -56q0 5 2 14.5t4.5 26t4.5 27.5h56zM273 662q-67 0 -107 -54t-40 -134q0 -61 31 -98t90 -37q70 0 108 57t38 135q0 61 -30.5 96
t-89.5 35z" />
    <glyph glyph-name="r.sup" horiz-adv-x="222" 
d="M172 696l-11 -57q15 30 44.5 48t64.5 18q9 0 13 -1l-9 -54q-9 3 -23 3q-42 0 -69 -33.5t-37 -94.5l-40 -223h-56l59 334q8 39 10 60h54z" />
    <glyph glyph-name="s.sup" horiz-adv-x="372" 
d="M46 423h54q3 -40 29.5 -63.5t75.5 -23.5q46 0 72 18.5t26 51.5q0 27 -18.5 42t-57.5 28l-38 13q-50 17 -75 40t-25 65q0 51 40.5 82t106.5 31t105.5 -29t40.5 -86h-52q-4 32 -27.5 52t-68.5 20q-41 0 -65 -17t-24 -44q0 -26 17 -41t56 -28l36 -13q52 -17 78.5 -39
t26.5 -65q0 -58 -41.5 -91t-113.5 -33q-147 0 -158 130z" />
    <glyph glyph-name="t.sup" horiz-adv-x="227" 
d="M134 654h-60l6 42h61l19 106h56l-19 -106h74l-7 -42h-74l-45 -260q-3 -12 -3 -21q0 -34 47 -34q6 0 13 1l-8 -44q-5 -1 -21 -1q-44 0 -66.5 15t-22.5 51q0 17 4 33z" />
    <glyph glyph-name="u.sup" horiz-adv-x="417" 
d="M435 696l-59 -333q-3 -17 -10 -61h-56l9 54q-47 -65 -127 -65q-60 0 -92 31t-32 88q0 23 5 55l41 231h56l-40 -227q-5 -27 -5 -45q0 -88 84 -88q49 0 83 34.5t45 85.5l41 240h57z" />
    <glyph glyph-name="v.sup" horiz-adv-x="376" 
d="M156 302l-1 1l-32 165l-45 227h59l36 -206q4 -23 11.5 -63t11.5 -70l74 144l107 195h61q-11 -19 -61 -106t-95 -166.5t-66 -120.5h-60z" />
    <glyph glyph-name="w.sup" horiz-adv-x="590" 
d="M136 303l-1 1q-11 97 -19 149l-32 243h56l29 -258q2 -12 5 -40.5t6 -45.5l37 86q11 21 114 258h72l12 -177l13 -166q67 143 84 175l80 168h55q-10 -19 -35 -68.5t-47 -94t-40 -81.5l-74 -149h-71l-11 151q-3 33 -7.5 102.5t-5.5 85.5l-12 -27q-66 -156 -70 -164
q-37 -78 -68 -148h-70z" />
    <glyph glyph-name="x.sup" horiz-adv-x="356" 
d="M4 302l-1 2q12 15 57 63l123 136l-109 192h59l21 -38l63 -118q8 9 25 30t27 32l82 94h67q-57 -60 -114 -125l-62 -69l41 -73q24 -42 70 -126h-59q-12 21 -43 80t-44 82l-82 -96l-58 -66h-63z" />
    <glyph glyph-name="y.sup" horiz-adv-x="383" 
d="M140 167h-59l83 138q-23 109 -52 231l-36 160h61q3 -18 41 -200q1 -4 27 -127q12 21 33.5 62.5t32.5 60.5l112 204h61l-101 -174q-27 -46 -95 -167t-108 -188z" />
    <glyph glyph-name="z.sup" horiz-adv-x="374" 
d="M26 302l7 43l216 221l43 44l16 16t14 13.5t8 8.5h-235l9 47h311l-7 -43l-304 -303h247l-9 -47h-316z" />
    <glyph glyph-name="idotaccent" horiz-adv-x="230" 
d="M206 604h-76l20 111h76zM118 525h72l-93 -525h-72z" />
    </font>
</defs>
</svg>
