<?xml version="1.0" standalone="no"?>
<!DOCTYPE svg PUBLIC "-//W3C//DTD SVG 1.1//EN" "http://www.w3.org/Graphics/SVG/1.1/DTD/svg11.dtd" >
<svg>
<metadata>
Created by FontForge 20120731 at Tue Dec 15 21:08:27 2015
 By ,,,
Copyright 2014 Dalton Maag Ltd. Modification of this file requires prior written permission from Dalton Maag Ltd.
</metadata>
<defs>
<font id="Prometo-Bold" horiz-adv-x="390" >
  <font-face 
    font-family="Prometo"
    font-weight="700"
    font-stretch="normal"
    units-per-em="1000"
    panose-1="2 11 8 4 3 2 3 6 2 3"
    ascent="800"
    descent="-200"
    x-height="523"
    cap-height="712"
    bbox="-201 -261 1301 982"
    underline-thickness="93"
    underline-position="-54"
    unicode-range="U+0008-FB04"
  />
<missing-glyph horiz-adv-x="500" 
d="M450 0h-400v750h400v-750zM100 50h300v650h-300v-650z" />
    <glyph glyph-name="uniF603" unicode="ft" horiz-adv-x="766" 
d="M308 620q-57 0 -79 -21.5t-22 -75.5h157l-24 -125h-133v-398h-159v502q0 135 57 189t200 54q43 0 97 -2l-24 -124q-35 1 -70 1zM725 398h-158v-189q0 -52 15 -68.5t66 -16.5q12 0 48.5 0.5t42.5 0.5l-24 -125q-5 0 -40 -0.5t-47 -0.5q-134 0 -177 41.5t-43 165.5v422
l159 23v-128h182z" />
    <glyph glyph-name="uniFB00" unicode="ff" horiz-adv-x="724" 
d="M661 620q-57 0 -79 -21.5t-22 -75.5h155l-24 -125h-131v-398h-159v502q0 135 57 189t200 54q51 0 101 -2l-24 -124q-29 1 -74 1zM48 0v502q0 135 57 189t200 54q30 0 86 -2l-24 -124q-19 1 -59 1q-57 0 -79 -21.5t-22 -75.5h149l-24 -125h-125v-398h-159z" />
    <glyph glyph-name="uniFB01" unicode="fi" horiz-adv-x="600" 
d="M325 745q24 0 85.5 -1t84.5 -1l-24 -125q-82 2 -146 2q-66 0 -91 -20t-27 -77h144l-24 -125h-120v-398h-159v491q0 140 60.5 197t216.5 57zM393 523h159v-523h-159v523z" />
    <glyph glyph-name="uniFB02" unicode="fl" horiz-adv-x="621" 
d="M305 745q29 0 67 -2l-24 -124q-17 1 -40 1q-57 0 -79 -21.5t-22 -75.5h138l-24 -125h-114v-398h-159v502q0 135 57 189t200 54zM414 0v743h159v-743h-159z" />
    <glyph glyph-name="uniFB03" unicode="ffi" horiz-adv-x="954" 
d="M561 523h144l-24 -125h-120v-398h-159v491q0 140 60.5 197t216.5 57q21 0 82 -1t88 -1l-24 -125q-82 2 -146 2q-66 0 -91 -20t-27 -77zM207 0h-159v502q0 135 57 189t200 54q30 0 86 -2l-24 -124q-19 1 -59 1q-57 0 -79 -21.5t-22 -75.5h149l-24 -125h-125v-398zM747 523
h159v-523h-159v523z" />
    <glyph glyph-name="uniFB04" unicode="ffl" horiz-adv-x="975" 
d="M48 0v502q0 135 57 189t200 54q30 0 86 -2l-24 -124q-19 1 -59 1q-57 0 -79 -21.5t-22 -75.5h149l-24 -125h-125v-398h-159zM659 745q29 0 67 -2l-24 -124q-17 1 -40 1q-57 0 -79 -21.5t-22 -75.5h138l-24 -125h-114v-398h-159v502q0 135 57 189t200 54zM768 0v743h159
v-743h-159z" />
    <glyph glyph-name="f_f_t.liga" unicode="fft" horiz-adv-x="1119" 
d="M661 620q-57 0 -79 -21.5t-22 -75.5h157l-24 -125h-133v-398h-159v502q0 135 57 189t200 54q43 0 97 -2l-24 -124q-35 1 -70 1zM48 0v502q0 135 57 189t200 54q30 0 86 -2l-24 -124q-19 1 -59 1q-57 0 -79 -21.5t-22 -75.5h149l-24 -125h-125v-398h-159zM1078 398h-158
v-189q0 -52 15 -68.5t66 -16.5q12 0 48.5 0.5t42.5 0.5l-24 -125q-5 0 -40 -0.5t-47 -0.5q-134 0 -177 41.5t-43 165.5v422l159 23v-128h182z" />
    <glyph glyph-name=".notdef" horiz-adv-x="500" 
d="M450 0h-400v750h400v-750zM100 50h300v650h-300v-650z" />
    <glyph glyph-name=".null" horiz-adv-x="0" 
 />
    <glyph glyph-name="nonmarkingreturn" horiz-adv-x="333" 
 />
    <glyph glyph-name="uni0008" horiz-adv-x="0" 
 />
    <glyph glyph-name="uni0008" horiz-adv-x="0" 
 />
    <glyph glyph-name="uni0008" horiz-adv-x="0" 
 />
    <glyph glyph-name="uni0009" unicode="&#x9;" horiz-adv-x="231" 
 />
    <glyph glyph-name="uni0009" unicode="&#xd;" horiz-adv-x="231" 
 />
    <glyph glyph-name="space" unicode=" " horiz-adv-x="231" 
 />
    <glyph glyph-name="exclam" unicode="!" horiz-adv-x="268" 
d="M200 215h-131l-12 153q-6 74 -6 137v207h166v-207q0 -63 -6 -137zM223 73q0 -83 -89 -83t-89 83t89 83t89 -83z" />
    <glyph glyph-name="quotedbl" unicode="&#x22;" horiz-adv-x="418" 
d="M158 446h-124l-9 117q0 9 -2 43t-2 48v89h151v-89q0 -56 -5 -91zM384 446h-124l-9 117q0 9 -2 43t-2 48v89h151v-89q0 -56 -5 -91z" />
    <glyph glyph-name="numbersign" unicode="#" horiz-adv-x="686" 
d="M356 0l21 151h-124l-21 -151h-138l21 151h-93l24 120h86l20 138h-94l24 120h87l21 151h138l-21 -151h124l21 151h138l-21 -151h95l-23 -120h-89l-20 -138h96l-23 -120h-90l-21 -151h-138zM290 409l-20 -138h124l20 138h-124z" />
    <glyph glyph-name="dollar" unicode="$" horiz-adv-x="595" 
d="M246 777h85v-95q105 0 190 -4l-24 -127q-74 3 -166 3v-149l21 -4q103 -18 150.5 -63t47.5 -125v-8q0 -91 -50 -144t-169 -61v-99h-85v98q-141 0 -211 2l24 127q39 -3 187 -3v159l-32 5q-97 15 -142 59.5t-45 135.5v7q1 39 11 68.5t33 56.5t67 43t108 21v97zM337 270l-6 1
v-144q41 4 56 19.5t15 50.5q0 37 -13 52t-52 21zM180 486q0 -36 10.5 -47.5t49.5 -17.5l6 -1v133q-40 -4 -53 -18.5t-13 -48.5z" />
    <glyph glyph-name="percent" unicode="%" horiz-adv-x="924" 
d="M190 0l409 680h136l-409 -680h-136zM729 87q37 0 48 17.5t11 72.5v38q0 55 -11 72.5t-48 17.5t-47.5 -17t-10.5 -73v-38q0 -56 10.5 -73t47.5 -17zM729 -9q-102 0 -140.5 43t-38.5 137v50q0 94 38.5 137t140.5 43t141.5 -43t39.5 -137v-50q0 -94 -39.5 -137t-141.5 -43z
M194 375q37 0 48 17.5t11 72.5v38q0 55 -11 72.5t-48 17.5t-47.5 -17t-10.5 -73v-38q0 -56 10.5 -73t47.5 -17zM194 279q-102 0 -140.5 43t-38.5 137v50q0 94 38.5 137t140.5 43t141.5 -43t39.5 -137v-50q0 -94 -39.5 -137t-141.5 -43z" />
    <glyph glyph-name="ampersand" unicode="&#x26;" horiz-adv-x="648" 
d="M193 225v-18q0 -46 19.5 -66.5t66.5 -20.5h133v196h-128q-49 0 -70 -22t-21 -69zM45 527v15q0 173 228 173q145 0 207 -2l-22 -121q-112 2 -176 2q-45 0 -62 -17t-17 -58v-13q0 -37 19 -53.5t64 -16.5h351l-22 -120h-50v-213q0 -54 -23 -78.5t-72 -24.5h-200
q-125 0 -182 47t-57 142v20q0 131 101 163q-87 40 -87 155z" />
    <glyph glyph-name="quotesingle" unicode="'" horiz-adv-x="192" 
d="M158 446h-124l-9 117q0 9 -2 43t-2 48v89h151v-89q0 -56 -5 -91z" />
    <glyph glyph-name="parenleft" unicode="(" horiz-adv-x="382" 
d="M370 -55l-23 -120h-27q-81 0 -131 14.5t-83 54t-46 105t-13 170.5v199q0 137 26.5 211t84 103.5t163.5 29.5h49l-23 -120h-17q-58 0 -84 -15t-37.5 -61t-11.5 -148v-199q0 -102 11.5 -148t37.5 -61t84 -15h40z" />
    <glyph glyph-name="parenright" unicode=")" horiz-adv-x="382" 
d="M12 592l23 120h27q81 0 131 -14.5t83 -54t46 -105t13 -170.5v-199q0 -137 -26.5 -211t-84 -103.5t-163.5 -29.5h-49l23 120h17q58 0 84 15t37.5 61t11.5 148v199q0 62 -3.5 100t-11 64.5t-24.5 38.5t-38 16.5t-57 4.5h-39z" />
    <glyph glyph-name="asterisk" unicode="*" horiz-adv-x="454" 
d="M295 323l-67 101l-69 -101l-100 72l78 98l-123 36l37 114l117 -47l-6 125h131l-6 -124l117 46l36 -114l-122 -36l78 -98z" />
    <glyph glyph-name="plus" unicode="+" horiz-adv-x="595" 
d="M368 571v-165h161v-130h-161v-165h-142v165h-160v130h160v165h142z" />
    <glyph glyph-name="comma" unicode="," horiz-adv-x="223" 
d="M150 -62l-51 -102h-105l61 178q-32 20 -32 67q0 80 88 80q89 0 89 -81q0 -44 -50 -142z" />
    <glyph glyph-name="hyphen" unicode="-" horiz-adv-x="382" 
d="M342 223h-328l27 138h327z" />
    <glyph glyph-name="period" unicode="." horiz-adv-x="223" 
d="M201 75q0 -43 -21 -64t-68 -21t-68.5 21t-21.5 64t21.5 64t68.5 21t68 -21t21 -64z" />
    <glyph glyph-name="slash" unicode="/" horiz-adv-x="431" 
d="M259 712h160l-247 -712h-160z" />
    <glyph glyph-name="zero" unicode="0" horiz-adv-x="612" 
d="M204 397v-115q0 -106 19.5 -139t82.5 -33t82.5 33t19.5 139v115q0 107 -19.5 140t-82.5 33t-82.5 -33t-19.5 -140zM306 696q152 0 209 -69t57 -224v-126q0 -155 -57 -224t-209 -69t-209 69t-57 224v126q0 155 57 224t209 69z" />
    <glyph glyph-name="one" unicode="1" horiz-adv-x="473" 
d="M447 123l-24 -123h-390l24 123h104v434h-127l24 123h264v-557h125z" />
    <glyph glyph-name="two" unicode="2" horiz-adv-x="549" 
d="M379 301l-132 -55q-33 -14 -44.5 -34t-11.5 -63v-20h320l-23 -129h-456v119q0 102 33.5 154.5t116.5 89.5l110 48q37 15 48.5 30t11.5 47q0 37 -16.5 51.5t-59.5 14.5q-85 0 -231 -2l22 128q134 2 223 2q115 0 167.5 -44t52.5 -130v-16q0 -70 -30.5 -116t-100.5 -75z" />
    <glyph glyph-name="three" unicode="3" horiz-adv-x="542" 
d="M34 554l23 126q136 2 229 2q104 0 155.5 -44t51.5 -124v-19q0 -55 -19 -87t-62 -53q95 -36 95 -148v-22q0 -94 -60 -140.5t-187 -46.5q-189 0 -242 2l24 126q118 -2 222 -2q43 0 62 17t19 54v15q0 39 -19.5 56t-66.5 17h-189l23 123h163q76 0 76 64v16q0 36 -17.5 52.5
t-58.5 16.5q-142 0 -222 -1z" />
    <glyph glyph-name="four" unicode="4" horiz-adv-x="584" 
d="M571 249l-24 -123h-52v-126h-149v126h-319v106l228 448h156l-224 -431h159v185l149 25v-210h76z" />
    <glyph glyph-name="five" unicode="5" horiz-adv-x="546" 
d="M504 227v-22q0 -113 -59 -160t-209 -47q-92 0 -206 2l23 127q69 -3 186 -3q60 0 82 18t22 68v13q0 51 -20.5 67.5t-83.5 16.5h-190v373h428l-23 -126h-260v-125h68q134 0 188 -44.5t54 -157.5z" />
    <glyph glyph-name="six" unicode="6" horiz-adv-x="568" 
d="M191 436v-18q43 31 127 31q113 0 165 -51t52 -172v-19q0 -116 -59 -169.5t-188 -53.5q-132 0 -190.5 58t-58.5 195v156q0 74 12 125t42.5 89.5t85 56.5t135.5 18q125 0 182 -2l-24 -127q-142 2 -162 2q-70 0 -94.5 -30.5t-24.5 -88.5zM287 103q55 0 75.5 23t20.5 85v14
q0 62 -19 84.5t-71 22.5q-58 0 -80 -22t-22 -86v-14q0 -61 22 -84t74 -23z" />
    <glyph glyph-name="seven" unicode="7" horiz-adv-x="532" 
d="M288 0h-168l210 549h-316l24 131h458v-112z" />
    <glyph glyph-name="eight" unicode="8" horiz-adv-x="582" 
d="M291 696q127 0 184 -45.5t57 -135.5v-16q0 -97 -84 -143q99 -42 99 -156v-23q0 -99 -61 -146t-195 -47q-136 0 -196 46.5t-60 146.5v23q0 114 98 156q-84 46 -84 143v16q0 90 57 135.5t185 45.5zM291 296q-59 0 -80.5 -21t-21.5 -72v-10q0 -51 21 -71.5t81 -20.5
q59 0 80 20.5t21 71.5v10q0 51 -21 72t-80 21zM291 583q-52 0 -73.5 -18t-21.5 -60v-15q0 -46 20.5 -63.5t74.5 -17.5t74.5 17.5t20.5 63.5v15q0 43 -21 60.5t-74 17.5z" />
    <glyph glyph-name="nine" unicode="9" horiz-adv-x="567" 
d="M377 244v18q-42 -31 -127 -31q-114 0 -166 51t-52 172v19q0 117 59 170t189 53q133 0 191 -58t58 -195v-156q0 -74 -12 -125t-42.5 -89.5t-85 -56.5t-135.5 -18q-36 0 -182 2l24 127q142 -2 162 -2q70 0 94.5 30.5t24.5 88.5zM281 577q-55 0 -75.5 -23t-20.5 -85v-14
q0 -62 19 -84.5t71 -22.5q58 0 80 22t22 86v14q0 60 -22 83.5t-74 23.5z" />
    <glyph glyph-name="colon" unicode=":" horiz-adv-x="223" 
d="M201 75q0 -43 -21 -64t-68 -21t-68.5 21t-21.5 64t21.5 64t68.5 21t68 -21t21 -64zM201 444q0 -43 -21 -64t-68 -21t-68.5 21t-21.5 64t21.5 64t68.5 21t68 -21t21 -64z" />
    <glyph glyph-name="semicolon" unicode=";" horiz-adv-x="223" 
d="M150 -62l-51 -102h-105l61 178q-32 20 -32 67q0 80 88 80q89 0 89 -81q0 -44 -50 -142zM201 444q0 -43 -21 -64t-68 -21t-68.5 21t-21.5 64t21.5 64t68.5 21t68 -21t21 -64z" />
    <glyph glyph-name="less" unicode="&#x3c;" horiz-adv-x="595" 
d="M66 273v136l463 178v-134l-315 -112l315 -112v-134z" />
    <glyph glyph-name="equal" unicode="=" horiz-adv-x="595" 
d="M529 170h-463v130h463v-130zM529 386h-463v130h463v-130z" />
    <glyph glyph-name="greater" unicode="&#x3e;" horiz-adv-x="595" 
d="M529 409v-136l-463 -178v134l315 112l-315 112v134z" />
    <glyph glyph-name="question" unicode="?" horiz-adv-x="474" 
d="M198 412l45 21q28 14 37.5 29.5t9.5 47.5q0 43 -16.5 60t-63.5 17q-33 0 -98.5 -1t-106.5 -1l23 128q160 2 201 2q116 0 169 -44.5t53 -141.5v-16q0 -67 -24.5 -106t-80.5 -64l-47 -21q-36 -16 -46.5 -32.5t-10.5 -57.5v-20h-152v20q0 78 24 115.5t84 64.5zM255 73
q0 -83 -89 -83t-89 83t89 83t89 -83z" />
    <glyph glyph-name="at" unicode="@" horiz-adv-x="784" 
d="M676 -92l-23 -123q-72 -3 -203 -3q-231 0 -319.5 70.5t-88.5 262.5v132q0 172 87.5 244t292.5 72q172 0 245 -53.5t73 -179.5v-220q0 -56 -25 -78.5t-87 -22.5h-163q-100 0 -145 38.5t-45 117.5v23q0 81 47 118.5t142 37.5q74 0 126 -26v12q0 63 -35.5 86t-135.5 23
q-136 0 -183.5 -40t-47.5 -152v-132q0 -86 21 -129t75.5 -61.5t163.5 -18.5q180 0 228 2zM492 120h97v59q0 34 -17.5 46.5t-67.5 12.5q-47 0 -63.5 -12t-16.5 -44v-5q0 -31 15 -44t53 -13z" />
    <glyph glyph-name="A" unicode="A" horiz-adv-x="729" 
d="M546 0l-58 172h-256l-56 -172h-166l257 712h194l258 -712h-173zM359 566l-87 -265h176z" />
    <glyph glyph-name="B" unicode="B" horiz-adv-x="648" 
d="M58 0v712h327q111 0 163 -43.5t52 -133.5v-11q0 -110 -88 -147q108 -37 108 -163v-18q0 -101 -61.5 -148.5t-182.5 -47.5h-318zM213 306v-180h151q54 0 75 17.5t21 64.5v13q0 48 -22.5 66.5t-77.5 18.5h-147zM359 586h-146v-155h139q48 0 68.5 17.5t20.5 57.5v12
q0 36 -18.5 52t-63.5 16z" />
    <glyph glyph-name="C" unicode="C" horiz-adv-x="586" 
d="M213 400v-88q0 -108 31 -141.5t128 -33.5q121 0 187 2l-27 -139q-55 -2 -169 -2q-179 0 -250 70t-71 247v83q0 175 72.5 245.5t248.5 70.5q125 0 190 -2l-27 -139q-98 2 -156 2q-98 0 -127.5 -32.5t-29.5 -142.5z" />
    <glyph glyph-name="D" unicode="D" horiz-adv-x="709" 
d="M58 0v712h294q178 0 246.5 -74t68.5 -239v-85q0 -162 -68.5 -238t-243.5 -76h-297zM220 574v-436h119q90 0 123.5 35.5t33.5 141.5v83q0 105 -33.5 140.5t-123.5 35.5h-119z" />
    <glyph glyph-name="E" unicode="E" horiz-adv-x="610" 
d="M546 432l-26 -139h-297v-154h361l-27 -139h-499v712h520l-26 -139h-329v-141h323z" />
    <glyph glyph-name="F" unicode="F" horiz-adv-x="575" 
d="M223 278v-278h-165v712h503l-26 -139h-312v-156h297l-26 -139h-271z" />
    <glyph glyph-name="G" unicode="G" horiz-adv-x="671" 
d="M512 0h-147q-183 0 -253 69.5t-70 237.5v99q0 163 75 235.5t266 72.5q169 0 226 -2l-26 -138q-84 2 -210 2q-99 0 -129.5 -32.5t-30.5 -139.5v-94q0 -108 30 -140.5t120 -32.5h102v130h-112l28 136h250v-297q0 -55 -25.5 -80.5t-93.5 -25.5z" />
    <glyph glyph-name="H" unicode="H" horiz-adv-x="725" 
d="M502 712h165v-712h-165v290h-279v-290h-165v712h165v-277h279v277z" />
    <glyph glyph-name="I" unicode="I" horiz-adv-x="281" 
d="M58 712h165v-712h-165v712z" />
    <glyph glyph-name="J" unicode="J" horiz-adv-x="476" 
d="M258 279v433h165v-445q0 -147 -53.5 -208t-185.5 -61q-47 0 -98.5 1t-72.5 1l26 139q33 -1 106 -1q68 0 90.5 25.5t22.5 115.5z" />
    <glyph glyph-name="K" unicode="K" horiz-adv-x="687" 
d="M223 712v-293l245 293h189l-287 -337l321 -375h-212l-256 307v-307h-165v712h165z" />
    <glyph glyph-name="L" unicode="L" horiz-adv-x="571" 
d="M58 712h165v-573h335l-27 -139h-473v712z" />
    <glyph glyph-name="M" unicode="M" horiz-adv-x="833" 
d="M483 199h-133l-137 265v-464h-155v712h176l186 -363l180 363h175v-712h-155v469z" />
    <glyph glyph-name="N" unicode="N" horiz-adv-x="722" 
d="M58 712h134l316 -451v451h156v-712h-136l-313 447v-447h-157v712z" />
    <glyph glyph-name="O" unicode="O" horiz-adv-x="733" 
d="M367 120q94 0 123.5 35t29.5 152v99q0 116 -29.5 151.5t-123.5 35.5q-95 0 -124.5 -35t-29.5 -152v-99q0 -116 30 -151.5t124 -35.5zM367 -18q-183 0 -254 75t-71 248v104q0 169 71 245.5t254 76.5t253.5 -75t70.5 -247v-104q0 -171 -70.5 -247t-253.5 -76z" />
    <glyph glyph-name="P" unicode="P" horiz-adv-x="645" 
d="M341 240h-122v-240h-161v712h285q145 0 208.5 -51.5t63.5 -164.5v-40q0 -110 -65.5 -163t-208.5 -53zM450 470v12q0 57 -24.5 76.5t-91.5 19.5h-115v-204h115q67 0 91.5 19.5t24.5 76.5z" />
    <glyph glyph-name="Q" unicode="Q" horiz-adv-x="733" 
d="M673 -131h-201l-124 113q-172 4 -239 79t-67 244v104q0 169 71 245.5t254 76.5t253.5 -75t70.5 -247v-104q0 -130 -38.5 -203t-133.5 -102zM367 120q94 0 123.5 35t29.5 152v99q0 116 -29.5 151.5t-123.5 35.5q-95 0 -124.5 -35t-29.5 -152v-99q0 -116 30 -151.5
t124 -35.5z" />
    <glyph glyph-name="R" unicode="R" horiz-adv-x="657" 
d="M615 494v-27q0 -149 -127 -193l161 -274h-181l-136 250h-113v-250h-161v712h287q144 0 207 -50.5t63 -167.5zM453 476v8q0 56 -24 75t-89 19h-121v-198h121q64 0 88.5 19.5t24.5 76.5z" />
    <glyph glyph-name="S" unicode="S" horiz-adv-x="592" 
d="M263 441l122 -21q102 -18 142 -64.5t40 -136.5v-15q0 -110 -62.5 -158t-218.5 -48q-172 0 -260 2l25 134q70 -2 237 -2q66 0 88 14.5t22 56.5q0 39 -14 54t-61 23l-105 18q-113 20 -152 63.5t-39 135.5v16q0 99 63 150t206 51q173 0 251 -2l-25 -134q-69 2 -229 2
q-60 0 -80.5 -14t-20.5 -53q0 -35 13.5 -49.5t57.5 -22.5z" />
    <glyph glyph-name="T" unicode="T" horiz-adv-x="670" 
d="M39 712h618l-27 -139h-214v-573h-165v573h-238z" />
    <glyph glyph-name="U" unicode="U" horiz-adv-x="702" 
d="M53 283v429h165v-430q0 -96 26.5 -129t106.5 -33t107 33.5t27 128.5v430h164v-429q0 -161 -65 -231t-233 -70t-233 70t-65 231z" />
    <glyph glyph-name="V" unicode="V" horiz-adv-x="687" 
d="M9 712h179l159 -522l159 522h172l-238 -712h-191z" />
    <glyph glyph-name="W" unicode="W" horiz-adv-x="947" 
d="M676 196l94 516h161l-164 -712h-179l-113 481l-114 -481h-183l-162 712h171l92 -515l123 515h151z" />
    <glyph glyph-name="X" unicode="X" horiz-adv-x="698" 
d="M669 712l-228 -335l255 -377h-190l-161 257l-160 -257h-183l254 377l-226 335h186l137 -219l135 219h181z" />
    <glyph glyph-name="Y" unicode="Y" horiz-adv-x="683" 
d="M5 712h183l157 -288l155 288h178l-254 -422v-290h-163v288z" />
    <glyph glyph-name="Z" unicode="Z" horiz-adv-x="631" 
d="M30 0v120l343 454h-339l27 138h517v-122l-343 -452h368l-26 -138h-547z" />
    <glyph glyph-name="bracketleft" unicode="[" horiz-adv-x="383" 
d="M58 712h313l-23 -122h-141v-643h164l-23 -122h-290v887z" />
    <glyph glyph-name="backslash" unicode="\" horiz-adv-x="431" 
d="M12 712h162l245 -712h-162z" />
    <glyph glyph-name="bracketright" unicode="]" horiz-adv-x="383" 
d="M325 -175h-313l23 122h141v643h-164l23 122h290v-887z" />
    <glyph glyph-name="asciicircum" unicode="^" horiz-adv-x="595" 
d="M52 395l163 317h165l163 -317h-151l-95 190l-94 -190h-151z" />
    <glyph glyph-name="underscore" unicode="_" horiz-adv-x="500" 
d="M0 -187v133h500v-133h-500z" />
    <glyph glyph-name="grave" unicode="`" horiz-adv-x="500" 
d="M276 734l107 -136h-147l-129 136h169z" />
    <glyph glyph-name="a" unicode="a" horiz-adv-x="569" 
d="M186 173v-7q0 -30 16.5 -42.5t57.5 -12.5h106v58q0 33 -17.5 46.5t-68.5 13.5h-14q-46 0 -63 -12.5t-17 -43.5zM521 336v-233q0 -58 -25.5 -80.5t-88.5 -22.5h-177q-107 0 -152 39.5t-45 117.5v21q0 82 49.5 120t153.5 38q82 0 131 -27v11q0 45 -19 63.5t-81 18.5
q-149 0 -188 -2l23 123q78 2 175 2q127 0 185.5 -44t58.5 -145z" />
    <glyph glyph-name="b" unicode="b" horiz-adv-x="600" 
d="M305 414q-60 0 -79 -21.5t-19 -88.5v-74q0 -77 18.5 -99t78.5 -22q57 0 76.5 22t19.5 99v61q0 77 -19 100t-76 23zM561 289v-55q0 -135 -58.5 -192.5t-201.5 -57.5q-137 0 -195 55.5t-58 190.5v513h159v-235q46 31 129 31q117 0 171 -58t54 -192z" />
    <glyph glyph-name="c" unicode="c" horiz-adv-x="487" 
d="M297 525q104 0 155 -2l-24 -126q-46 3 -125 3q-63 0 -83 -20.5t-20 -91.5v-53q0 -70 20.5 -91t82.5 -21q114 0 151 2l-24 -125q-106 -2 -131 -2q-146 0 -203 53.5t-57 183.5v53q0 129 58.5 183t199.5 54z" />
    <glyph glyph-name="d" unicode="d" horiz-adv-x="599" 
d="M296 125h96v186q0 63 -20 83t-77 20q-58 0 -76.5 -23t-18.5 -96v-48q0 -76 18.5 -99t77.5 -23zM437 0h-144q-145 0 -199.5 53.5t-54.5 190.5v46q0 134 54.5 191.5t174.5 57.5q85 0 124 -30v234h159v-640q0 -58 -25.5 -80.5t-88.5 -22.5z" />
    <glyph glyph-name="e" unicode="e" horiz-adv-x="557" 
d="M434 208h-236q2 -51 22 -68t78 -17q116 0 195 1l-23 -124q-45 -2 -187 -2q-137 0 -190.5 56t-53.5 181v55q0 129 56.5 189t192.5 60q234 0 234 -199v-21q0 -65 -18.5 -88t-69.5 -23zM284 422q-53 0 -69.5 -20.5t-16.5 -83.5h173q0 63 -17 83.5t-70 20.5z" />
    <glyph glyph-name="f" unicode="f" horiz-adv-x="383" 
d="M308 620q-57 0 -79 -21.5t-22 -75.5h176l-24 -125h-152v-398h-159v502q0 135 57 189t200 54q19 0 60.5 -1t52.5 -1l-24 -125q-40 2 -86 2z" />
    <glyph glyph-name="g" unicode="g" horiz-adv-x="598" 
d="M296 152q57 0 76 20t19 78v42q0 74 -16.5 96t-78.5 22t-79 -22t-17 -96v-22q0 -73 17.5 -95.5t78.5 -22.5zM391 47v6q-43 -30 -125 -30q-120 0 -173.5 56t-53.5 184v36q0 126 57.5 183t199.5 57q143 0 198.5 -56t55.5 -172v-268q0 -118 -58.5 -169t-199.5 -51
q-125 0 -202 2l24 129q64 -2 167 -2q66 0 88 18t22 77z" />
    <glyph glyph-name="h" unicode="h" horiz-adv-x="590" 
d="M207 0h-159v743h159v-240q45 36 134 36q201 0 201 -176v-363h-159v330q0 45 -16.5 62.5t-67.5 17.5q-54 0 -73 -20.5t-19 -75.5v-314z" />
    <glyph glyph-name="i" unicode="i" horiz-adv-x="255" 
d="M48 0v523h159v-523h-159zM218 667q0 -42 -19.5 -59.5t-70.5 -17.5q-52 0 -71.5 17.5t-19.5 59.5q0 40 19.5 58t71.5 18q50 0 70 -18t20 -58z" />
    <glyph glyph-name="j" unicode="j" horiz-adv-x="255" 
d="M-104 -175l24 125q34 -2 60 -2q40 0 54 14.5t14 62.5v498h159v-506q0 -112 -43.5 -153t-151.5 -41q-87 0 -116 2zM218 667q0 -42 -19.5 -59.5t-70.5 -17.5q-52 0 -71.5 17.5t-19.5 59.5q0 40 19.5 58t71.5 18q50 0 70 -18t20 -58z" />
    <glyph glyph-name="k" unicode="k" horiz-adv-x="585" 
d="M207 743v-410l172 190h188l-222 -235l242 -288h-193l-187 229v-229h-159v743h159z" />
    <glyph glyph-name="l" unicode="l" horiz-adv-x="255" 
d="M48 0v743h159v-743h-159z" />
    <glyph glyph-name="m" unicode="m" horiz-adv-x="872" 
d="M207 0h-159v345q0 106 55.5 150t166.5 44q114 0 166 -58q49 58 168 58q109 0 164.5 -44t55.5 -150v-345h-159v330q0 45 -14 62.5t-61 17.5q-45 0 -60 -16t-15 -56v-338h-159v330q0 45 -13.5 62.5t-60.5 17.5t-61 -17.5t-14 -62.5v-330z" />
    <glyph glyph-name="n" unicode="n" horiz-adv-x="590" 
d="M207 0h-159v342q0 109 56.5 153t190.5 44t190.5 -44t56.5 -153v-342h-159v330q0 45 -16.5 62.5t-71.5 17.5t-71.5 -17.5t-16.5 -62.5v-330z" />
    <glyph glyph-name="o" unicode="o" horiz-adv-x="593" 
d="M297 539q142 0 199.5 -54t57.5 -196v-55q0 -140 -57.5 -195t-199.5 -55t-200 55t-58 195v55q0 142 57.5 196t200.5 54zM393 230v64q0 76 -18.5 98t-77.5 22t-78 -22.5t-19 -97.5v-64q0 -76 19 -98.5t78 -22.5t77.5 22t18.5 99z" />
    <glyph glyph-name="p" unicode="p" horiz-adv-x="598" 
d="M303 109q59 0 77 22.5t18 100.5v58q0 79 -18.5 101.5t-76.5 22.5t-77 -22.5t-19 -98.5v-72q0 -68 19.5 -90t76.5 -22zM559 286v-50q0 -138 -54.5 -195t-178.5 -57q-78 0 -119 29v-188h-159v468q0 135 60 190.5t199 55.5q137 0 194.5 -55.5t57.5 -197.5z" />
    <glyph glyph-name="q" unicode="q" horiz-adv-x="598" 
d="M293 109q60 0 79 21t19 89v74q0 77 -18.5 99t-77.5 22q-58 0 -76.5 -22t-18.5 -99v-61q0 -77 18.5 -100t74.5 -23zM39 233v56q0 135 58 192.5t200 57.5q137 0 195 -56t58 -190v-468h-159v190q-43 -31 -129 -31q-116 0 -169.5 57.5t-53.5 191.5z" />
    <glyph glyph-name="r" unicode="r" horiz-adv-x="393" 
d="M207 312v-312h-159v329q0 109 54.5 153t171.5 44q88 0 120 -2l-24 -129q-24 2 -80 2q-52 0 -67.5 -18.5t-15.5 -66.5z" />
    <glyph glyph-name="s" unicode="s" horiz-adv-x="526" 
d="M185 372q0 -17 10.5 -24t44.5 -10l92 -8q88 -8 124 -47.5t36 -106.5v-17q0 -83 -55 -122t-173 -39q-180 0 -235 2l22 123q134 -2 218 -2q42 0 56.5 7t14.5 29q0 18 -10.5 26t-44.5 10l-98 7q-79 6 -116 46t-37 105v19q0 77 52.5 116t172.5 39q146 0 223 -2l-23 -123
q-81 2 -210 2q-38 0 -51 -5.5t-13 -24.5z" />
    <glyph glyph-name="t" unicode="t" horiz-adv-x="406" 
d="M365 398h-158v-189q0 -52 15 -68.5t66 -16.5q12 0 51 0.5t44 0.5l-24 -125q-5 0 -42 -0.5t-49 -0.5q-134 0 -177 41.5t-43 165.5v438l159 23v-144h182z" />
    <glyph glyph-name="u" unicode="u" horiz-adv-x="587" 
d="M294 -16q-132 0 -189 44t-57 154v341h159v-334q0 -45 16.5 -62.5t70.5 -17.5q53 0 69.5 17.5t16.5 62.5v334h159v-341q0 -110 -57 -154t-188 -44z" />
    <glyph glyph-name="v" unicode="v" horiz-adv-x="565" 
d="M8 523h174l104 -363l107 363h164l-181 -523h-185z" />
    <glyph glyph-name="w" unicode="w" horiz-adv-x="798" 
d="M471 523l84 -358l77 358h154l-152 -523h-155l-78 330l-80 -330h-159l-150 523h161l75 -357l86 357h137z" />
    <glyph glyph-name="x" unicode="x" horiz-adv-x="573" 
d="M26 523h178l85 -146l88 146h168l-171 -248l189 -275h-178l-102 163l-103 -163h-170l186 270z" />
    <glyph glyph-name="y" unicode="y" horiz-adv-x="587" 
d="M380 47v6q-44 -30 -134 -30q-99 0 -148.5 41.5t-49.5 133.5v325h159v-291q0 -45 15 -62.5t66 -17.5q56 0 74 18t18 68v285h159v-480q0 -118 -58.5 -169t-199.5 -51q-127 0 -202 2l24 129q64 -2 167 -2q66 0 88 18t22 77z" />
    <glyph glyph-name="z" unicode="z" horiz-adv-x="523" 
d="M31 0v105l248 293h-251l24 125h432v-105l-250 -293h264l-24 -125h-443z" />
    <glyph glyph-name="braceleft" unicode="{" horiz-adv-x="419" 
d="M328 712h79l-23 -119h-48q-42 0 -58 -17t-16 -56v-142q0 -74 -68 -109q68 -35 68 -109v-143q0 -40 15.5 -56.5t58.5 -16.5h71l-23 -119h-56q-120 0 -166.5 40.5t-46.5 126.5v153q0 29 -13.5 45t-49.5 16h-22v126h22q36 0 49.5 16t13.5 45v152q0 86 46.5 126.5t166.5 40.5
z" />
    <glyph glyph-name="bar" unicode="|" horiz-adv-x="259" 
d="M50 -175v918h159v-918h-159z" />
    <glyph glyph-name="braceright" unicode="}" horiz-adv-x="419" 
d="M91 -175h-79l23 119h48q43 0 58.5 16.5t15.5 56.5v143q0 74 68 109q-68 35 -68 109v142q0 39 -16 56t-58 17h-71l23 119h56q120 0 166.5 -40.5t46.5 -126.5v-152q0 -29 13.5 -45t49.5 -16h22v-126h-22q-36 0 -49.5 -16t-13.5 -45v-153q0 -86 -46.5 -126.5t-166.5 -40.5z
" />
    <glyph glyph-name="asciitilde" unicode="~" horiz-adv-x="595" 
d="M175 243h-126v21q0 187 129 187q12 0 24 -2t19.5 -3.5t21 -7t18 -7.5t20.5 -10l20 -10l16 -8q52 -25 69 -25q33 0 33 47v15h126v-21q0 -187 -129 -187q-12 0 -24 2t-19.5 3.5t-21 7t-18 7.5t-20.5 10l-20 10l-16 8q-52 25 -69 25q-33 0 -33 -47v-15z" />
    <glyph glyph-name="uni00A0" unicode="&#xa0;" horiz-adv-x="231" 
 />
    <glyph glyph-name="exclamdown" unicode="&#xa1;" horiz-adv-x="268" 
d="M68 304h131l12 -153q6 -73 6 -137v-207h-166v207q0 64 6 137zM45 446q0 83 89 83t89 -83t-89 -83t-89 83z" />
    <glyph glyph-name="cent" unicode="&#xa2;" horiz-adv-x="595" 
d="M306 619h85v-94q21 0 115 -2l-24 -126l-91 3v-277q88 0 114 2l-24 -125q-16 0 -47.5 -0.5t-42.5 -0.5v-95h-85v95q-135 4 -186.5 57t-51.5 179v53q0 125 52.5 178.5t185.5 57.5v95zM306 124v276q-48 -4 -62.5 -26t-14.5 -86v-53q0 -63 15 -85t62 -26z" />
    <glyph glyph-name="sterling" unicode="&#xa3;" horiz-adv-x="595" 
d="M399 682q67 0 153 -2l-24 -125q-39 2 -129 2q-69 0 -93.5 -22.5t-24.5 -87.5v-37h198l-24 -125h-174v-160h279l-24 -125h-489l24 125h51v160h-75l24 125h51v18q0 140 60.5 197t216.5 57z" />
    <glyph glyph-name="currency" unicode="&#xa4;" horiz-adv-x="595" 
d="M175 355q0 -52 32.5 -85.5t88.5 -33.5t88.5 33.5t32.5 85.5t-32.5 85.5t-88.5 33.5t-88.5 -33.5t-32.5 -85.5zM536 354q0 -64 -34 -117l64 -64l-86 -85l-68 68q-53 -31 -116 -31q-64 0 -117 31l-67 -68l-86 85l64 64q-34 53 -34 117q0 62 34 117l-64 64l85 85l68 -68
q53 31 117 31q61 0 117 -31l68 68l85 -85l-64 -64q34 -55 34 -117z" />
    <glyph glyph-name="yen" unicode="&#xa5;" horiz-adv-x="595" 
d="M64 275v100h106l-167 305h176l118 -251l123 251h173l-171 -305h106v-100h-155v-54h155v-100h-155v-121h-156v121h-153v100h153v54h-153z" />
    <glyph glyph-name="brokenbar" unicode="&#xa6;" horiz-adv-x="259" 
d="M209 414h-159v329h159v-329zM209 154v-329h-159v329h159z" />
    <glyph glyph-name="section" unicode="&#xa7;" horiz-adv-x="592" 
d="M550 295v-7q0 -96 -74 -144q73 -39 73 -133v-12q-2 -183 -245 -183q-29 0 -126 1t-133 1l23 123q130 -2 235 -2q46 0 64.5 13t18.5 48q0 31 -15 43.5t-64 16.5l-95 9q-88 8 -129 48t-43 121v8q0 52 20.5 90.5t58.5 56.5q-78 45 -78 138v11q0 81 57 127t173 46
q93 0 261 -2l-24 -125q-58 2 -242 2q-42 0 -57 -12.5t-15 -40.5t11.5 -41t45.5 -17l120 -11q92 -9 135 -49.5t44 -123.5zM187 266q0 -39 17 -56.5t59 -21.5l42 -4q22 -2 31 -2q68 0 68 89q0 39 -17 56.5t-59 21.5l-42 4q-22 2 -31 2q-68 0 -68 -89z" />
    <glyph glyph-name="dieresis" unicode="&#xa8;" horiz-adv-x="500" 
d="M226 661q0 -36 -18.5 -53.5t-59.5 -17.5q-42 0 -60 17.5t-18 53.5t18 53.5t60 17.5q41 0 59.5 -17.5t18.5 -53.5zM430 661q0 -36 -18.5 -53.5t-59.5 -17.5q-42 0 -60 17.5t-18 53.5t18 53.5t60 17.5q41 0 59.5 -17.5t18.5 -53.5z" />
    <glyph glyph-name="copyright" unicode="&#xa9;" horiz-adv-x="843" 
d="M560 574l-22 -109q-37 1 -82 1q-46 0 -59.5 -15t-13.5 -73v-44q0 -59 14.5 -73.5t67.5 -14.5q65 0 94 1l-22 -110q-36 -1 -85 -1q-117 0 -163 44t-46 153v46q0 107 44 152t165 45q44 0 108 -2zM810 356q0 -210 -86.5 -295.5t-301.5 -85.5t-302 84.5t-87 296.5
q0 210 87 295.5t302 85.5q214 0 301 -84.5t87 -296.5zM697 356q0 87 -11 138.5t-43 84.5t-83 44.5t-139 11.5q-168 0 -221.5 -55t-53.5 -224q0 -87 11 -138.5t43 -84.5t83 -44.5t138 -11.5q70 0 116 8t78.5 25t49.5 51t24.5 79.5t7.5 115.5z" />
    <glyph glyph-name="ordfeminine" unicode="&#xaa;" horiz-adv-x="445" 
d="M148 442v-10q0 -24 13.5 -32.5t43.5 -8.5h80v48q0 26 -13 36t-51 10h-10q-35 0 -49 -9.5t-14 -33.5zM410 569v-187q0 -43 -18 -62t-57 -19h-152q-84 0 -121.5 30.5t-37.5 94.5v17q0 66 38.5 96t121.5 30q63 0 102 -22v12q0 35 -14.5 48.5t-63.5 13.5q-113 0 -146 -2
l18 99q31 1 138 1q98 0 145 -34t47 -116z" />
    <glyph glyph-name="guillemotleft" unicode="&#xab;" horiz-adv-x="571" 
d="M33 183v156l229 161v-149l-133 -90l133 -90v-149zM304 183v156l229 161v-149l-133 -90l133 -90v-149z" />
    <glyph glyph-name="logicalnot" unicode="&#xac;" horiz-adv-x="595" 
d="M374 347h-319v131h461v-288h-142v157z" />
    <glyph glyph-name="uni00AD" unicode="&#xad;" horiz-adv-x="382" 
d="M342 223h-328l27 138h327z" />
    <glyph glyph-name="registered" unicode="&#xae;" horiz-adv-x="597" 
d="M573 484q0 -145 -63.5 -205.5t-211.5 -60.5t-211 60.5t-63 205.5t63 205.5t211 60.5t211.5 -60.5t63.5 -205.5zM108 484q0 -114 38 -152.5t152 -38.5t152 38.5t38 152.5t-38 152.5t-152 38.5t-152 -38.5t-38 -152.5zM419 531v-12q0 -52 -42 -74l51 -90h-94l-38 76h-23
v-76h-85v265h126q57 0 81 -20.5t24 -68.5zM335 520v7q0 17 -7 22t-28 5h-27v-60h27q21 0 28 4.5t7 21.5z" />
    <glyph glyph-name="overscore" unicode="&#xaf;" horiz-adv-x="500" 
d="M90 605v107h320v-107h-320z" />
    <glyph glyph-name="degree" unicode="&#xb0;" horiz-adv-x="365" 
d="M354 592q0 -160 -172 -160q-171 0 -171 160q0 159 171 159q172 0 172 -159zM248 592q0 38 -15 53.5t-51 15.5t-51 -15.5t-15 -53.5t15 -53.5t51 -15.5t51 15.5t15 53.5z" />
    <glyph glyph-name="plusminus" unicode="&#xb1;" horiz-adv-x="595" 
d="M529 1h-463v130h463v-130zM368 631v-165h161v-130h-161v-165h-142v165h-160v130h160v165h142z" />
    <glyph glyph-name="uni00B2" unicode="&#xb2;" 
d="M258 454l-56 -18q-25 -8 -32.5 -17t-7.5 -33v-7h185l-16 -91h-287v77q0 61 21.5 95t75.5 51l53 16q22 7 28.5 13.5t6.5 21.5q0 18 -8 24t-34 6q-104 0 -133 -2l15 89q78 2 125 2q79 0 115 -25.5t36 -82.5v-13q0 -43 -19 -67t-68 -39z" />
    <glyph glyph-name="uni00B3" unicode="&#xb3;" 
d="M341 580v-6q0 -60 -48 -80q58 -19 58 -87v-8q0 -56 -35.5 -84t-117.5 -28q-18 0 -84.5 0.5t-74.5 0.5l16 90q66 -2 133 -2q24 0 33 6.5t9 24.5v5q0 18 -9 25t-33 7h-115l14 85h93q26 0 35.5 6.5t9.5 23.5v5q0 17 -9 22t-36 5q-92 0 -129 -1l16 89q82 2 136 2
q72 0 105 -25t33 -76z" />
    <glyph glyph-name="acute" unicode="&#xb4;" horiz-adv-x="500" 
d="M112 598l107 136h169l-129 -136h-147z" />
    <glyph glyph-name="uni00B5" unicode="&#xb5;" horiz-adv-x="595" 
d="M417 0h-92q-87 0 -120 26v-201h-157v698h159v-303q0 -55 19.5 -75t75.5 -20h84v398h161v-420q0 -57 -28 -80t-102 -23z" />
    <glyph glyph-name="paragraph" unicode="&#xb6;" horiz-adv-x="669" 
d="M403 600v-775h-123v448h-35q-61 0 -105.5 19t-68 51t-34.5 66t-11 70v31q0 83 51.5 142.5t151.5 59.5h382v-887h-123v775h-85z" />
    <glyph glyph-name="middot" unicode="&#xb7;" horiz-adv-x="223" 
d="M201 341q0 -43 -21 -64t-68 -21t-68.5 21t-21.5 64t21.5 64t68.5 21t68 -21t21 -64z" />
    <glyph glyph-name="cedilla" unicode="&#xb8;" horiz-adv-x="500" 
d="M256 -127q0 13 -6.5 18.5t-24.5 5.5q-29 0 -53 -1l16 69q16 1 67 1q62 0 87.5 -20t25.5 -68v-7q0 -54 -28 -75.5t-98 -21.5q-71 0 -102 3l18 74q54 -2 67 -2q18 0 24.5 5.5t6.5 18.5z" />
    <glyph glyph-name="uni00B9" unicode="&#xb9;" 
d="M268 385h86l-16 -97h-284l17 97h74v200h-87l18 95h192v-295z" />
    <glyph glyph-name="ordmasculine" unicode="&#xba;" horiz-adv-x="472" 
d="M236 398q47 0 60.5 16.5t13.5 70.5v51q0 53 -13.5 70t-60.5 17t-60.5 -17t-13.5 -70v-51q0 -54 13.5 -70.5t60.5 -16.5zM236 296q-113 0 -161 42.5t-48 144.5v55q0 102 48 144.5t161 42.5q112 0 160.5 -43t48.5 -144v-55q0 -101 -48.5 -144t-160.5 -43z" />
    <glyph glyph-name="guillemotright" unicode="&#xbb;" horiz-adv-x="571" 
d="M538 339v-156l-229 -161v149l133 90l-133 90v149zM267 339v-156l-229 -161v149l133 90l-133 90v149z" />
    <glyph glyph-name="onequarter" unicode="&#xbc;" horiz-adv-x="924" 
d="M199 0l409 680h136l-409 -680h-136zM799 392l-128 -233h81v87l108 15v-102h49l-17 -88h-31v-71h-109v71h-193v85l125 236h115zM268 385h86l-16 -97h-284l17 97h74v200h-87l18 95h192v-295z" />
    <glyph glyph-name="onehalf" unicode="&#xbd;" horiz-adv-x="924" 
d="M193 0l409 680h136l-409 -680h-136zM792 166l-56 -18q-25 -8 -32.5 -17t-7.5 -33v-7h185l-16 -91h-287v77q0 61 21.5 95t75.5 51l53 16q22 7 28.5 13.5t6.5 21.5q0 18 -8 24t-34 6q-104 0 -133 -2l15 89q78 2 125 2q79 0 115 -25.5t36 -82.5v-13q0 -43 -19 -67t-68 -39z
M268 385h86l-16 -97h-284l17 97h74v200h-87l18 95h192v-295z" />
    <glyph glyph-name="threequarters" unicode="&#xbe;" horiz-adv-x="924" 
d="M210 0l409 680h136l-409 -680h-136zM799 392l-128 -233h81v87l108 15v-102h49l-17 -88h-31v-71h-109v71h-193v85l125 236h115zM341 580v-6q0 -60 -48 -80q58 -19 58 -87v-8q0 -56 -35.5 -84t-117.5 -28q-18 0 -84.5 0.5t-74.5 0.5l16 90q66 -2 133 -2q24 0 33 6.5t9 24.5
v5q0 18 -9 25t-33 7h-115l14 85h93q26 0 35.5 6.5t9.5 23.5v5q0 17 -9 22t-36 5q-92 0 -129 -1l16 89q82 2 136 2q72 0 105 -25t33 -76z" />
    <glyph glyph-name="questiondown" unicode="&#xbf;" horiz-adv-x="474" 
d="M276 107l-45 -21q-28 -14 -37.5 -29.5t-9.5 -46.5q0 -43 16.5 -60t63.5 -17q115 0 205 2l-23 -128q-88 -2 -200 -2q-116 0 -169.5 44.5t-53.5 140.5v16q0 68 24.5 106.5t80.5 63.5l47 22q36 16 46.5 32.5t10.5 57.5v20h152v-20q0 -79 -24 -116t-84 -65zM219 446
q0 41 20.5 62t68.5 21t68.5 -21t20.5 -62q0 -40 -20.5 -61t-68.5 -21t-68.5 21t-20.5 61z" />
    <glyph glyph-name="Agrave" unicode="&#xc0;" horiz-adv-x="729" 
d="M546 0l-58 172h-256l-56 -172h-166l257 712h194l258 -712h-173zM359 566l-87 -265h176zM171 905h175l114 -133h-147z" />
    <glyph glyph-name="Aacute" unicode="&#xc1;" horiz-adv-x="729" 
d="M546 0l-58 172h-256l-56 -172h-166l257 712h194l258 -712h-173zM359 566l-87 -265h176zM388 905h175l-142 -133h-147z" />
    <glyph glyph-name="Acircumflex" unicode="&#xc2;" horiz-adv-x="729" 
d="M546 0l-58 172h-256l-56 -172h-166l257 712h194l258 -712h-173zM359 566l-87 -265h176zM427 772l-62 63l-62 -63h-143l123 132h164l122 -132h-142z" />
    <glyph glyph-name="Atilde" unicode="&#xc3;" horiz-adv-x="729" 
d="M546 0l-58 172h-256l-56 -172h-166l257 712h194l258 -712h-173zM359 566l-87 -265h176zM363 785l-12 4q-38 17 -56 17q-13 0 -19 -6.5t-6 -26.5v-10h-96v11q0 137 98 137q39 0 93 -23l12 -5q41 -17 56 -17q13 0 19 6.5t6 26.5v11h96v-12q0 -137 -98 -137q-35 0 -93 24z
" />
    <glyph glyph-name="Adieresis" unicode="&#xc4;" horiz-adv-x="729" 
d="M546 0l-58 172h-256l-56 -172h-166l257 712h194l258 -712h-173zM359 566l-87 -265h176zM337 838q0 -73 -80 -73q-78 0 -78 73q0 36 18 54t60 18q80 0 80 -72zM550 838q0 -73 -79 -73t-79 73q0 72 79 72t79 -72z" />
    <glyph glyph-name="Aring" unicode="&#xc5;" horiz-adv-x="729" 
d="M223 771q0 64 36.5 97t104.5 33q67 0 103.5 -33t36.5 -97q0 -60 -31 -92l246 -679h-173l-58 172h-256l-56 -172h-166l244 678q-31 32 -31 93zM359 566l-87 -265h176zM415 771q0 28 -12 39.5t-39 11.5q-28 0 -40 -11.5t-12 -39.5t12 -40t40 -12q27 0 39 12t12 40z" />
    <glyph glyph-name="AE" unicode="&#xc6;" horiz-adv-x="1029" 
d="M997 712l-26 -139h-329v-141h323l-26 -139h-297v-154h361l-27 -139h-499v186h-207l-93 -186h-172l382 712h610zM466 578l-132 -263h143v263h-11z" />
    <glyph glyph-name="Ccedilla" unicode="&#xc7;" horiz-adv-x="586" 
d="M213 400v-88q0 -108 31 -141.5t128 -33.5q121 0 187 2l-27 -139q-55 -2 -169 -2q-179 0 -250 70t-71 247v83q0 175 72.5 245.5t248.5 70.5q125 0 190 -2l-27 -139q-98 2 -156 2q-98 0 -127.5 -32.5t-29.5 -142.5zM296 -105q-36 0 -59 -1l16 71q28 1 80 1q61 0 86 -20.5
t25 -68.5v-7q0 -54 -27.5 -75t-98.5 -21q-73 0 -113 3l18 75q23 -1 73 -1q18 0 24.5 4.5t6.5 18.5q0 13 -6.5 17t-24.5 4z" />
    <glyph glyph-name="Egrave" unicode="&#xc8;" horiz-adv-x="610" 
d="M546 432l-26 -139h-297v-154h361l-27 -139h-499v712h520l-26 -139h-329v-141h323zM146 905h175l114 -133h-147z" />
    <glyph glyph-name="Eacute" unicode="&#xc9;" horiz-adv-x="610" 
d="M546 432l-26 -139h-297v-154h361l-27 -139h-499v712h520l-26 -139h-329v-141h323zM324 905h175l-142 -133h-147z" />
    <glyph glyph-name="Ecircumflex" unicode="&#xca;" horiz-adv-x="610" 
d="M546 432l-26 -139h-297v-154h361l-27 -139h-499v712h520l-26 -139h-329v-141h323zM376 772l-62 63l-62 -63h-143l123 132h164l122 -132h-142z" />
    <glyph glyph-name="Edieresis" unicode="&#xcb;" horiz-adv-x="610" 
d="M546 432l-26 -139h-297v-154h361l-27 -139h-499v712h520l-26 -139h-329v-141h323zM282 838q0 -73 -80 -73q-78 0 -78 73q0 36 18 54t60 18q80 0 80 -72zM495 838q0 -73 -79 -73t-79 73q0 72 79 72t79 -72z" />
    <glyph glyph-name="Igrave" unicode="&#xcc;" horiz-adv-x="281" 
d="M58 712h165v-712h-165v712zM-45 905h175l114 -133h-147z" />
    <glyph glyph-name="Iacute" unicode="&#xcd;" horiz-adv-x="281" 
d="M58 712h165v-712h-165v712zM163 905h175l-142 -133h-147z" />
    <glyph glyph-name="Icircumflex" unicode="&#xce;" horiz-adv-x="281" 
d="M58 712h165v-712h-165v712zM204 772l-62 63l-62 -63h-143l123 132h164l122 -132h-142z" />
    <glyph glyph-name="Idieresis" unicode="&#xcf;" horiz-adv-x="281" 
d="M58 712h165v-712h-165v712zM114 838q0 -73 -80 -73q-78 0 -78 73q0 36 18 54t60 18q80 0 80 -72zM327 838q0 -73 -79 -73t-79 73q0 72 79 72t79 -72z" />
    <glyph glyph-name="Eth" unicode="&#xd0;" horiz-adv-x="734" 
d="M83 0v302h-67v115h67v295h294q178 0 246.5 -74t68.5 -239v-85q0 -162 -68.5 -238t-243.5 -76h-297zM380 302h-135v-164h119q90 0 123.5 35.5t33.5 141.5v83q0 105 -33.5 140.5t-123.5 35.5h-119v-157h135v-115z" />
    <glyph glyph-name="Ntilde" unicode="&#xd1;" horiz-adv-x="722" 
d="M58 712h134l316 -451v451h156v-712h-136l-313 447v-447h-157v712zM366 785l-12 4q-38 17 -56 17q-13 0 -19 -6.5t-6 -26.5v-10h-96v11q0 137 98 137q39 0 93 -23l12 -5q41 -17 56 -17q13 0 19 6.5t6 26.5v11h96v-12q0 -137 -98 -137q-35 0 -93 24z" />
    <glyph glyph-name="Ograve" unicode="&#xd2;" horiz-adv-x="733" 
d="M367 120q94 0 123.5 35t29.5 152v99q0 116 -29.5 151.5t-123.5 35.5q-95 0 -124.5 -35t-29.5 -152v-99q0 -116 30 -151.5t124 -35.5zM367 -18q-183 0 -254 75t-71 248v104q0 169 71 245.5t254 76.5t253.5 -75t70.5 -247v-104q0 -171 -70.5 -247t-253.5 -76zM188 905h175
l114 -133h-147z" />
    <glyph glyph-name="Oacute" unicode="&#xd3;" horiz-adv-x="733" 
d="M367 120q94 0 123.5 35t29.5 152v99q0 116 -29.5 151.5t-123.5 35.5q-95 0 -124.5 -35t-29.5 -152v-99q0 -116 30 -151.5t124 -35.5zM367 -18q-183 0 -254 75t-71 248v104q0 169 71 245.5t254 76.5t253.5 -75t70.5 -247v-104q0 -171 -70.5 -247t-253.5 -76zM364 905h175
l-142 -133h-147z" />
    <glyph glyph-name="Ocircumflex" unicode="&#xd4;" horiz-adv-x="733" 
d="M367 120q94 0 123.5 35t29.5 152v99q0 116 -29.5 151.5t-123.5 35.5q-95 0 -124.5 -35t-29.5 -152v-99q0 -116 30 -151.5t124 -35.5zM367 -18q-183 0 -254 75t-71 248v104q0 169 71 245.5t254 76.5t253.5 -75t70.5 -247v-104q0 -171 -70.5 -247t-253.5 -76zM429 772
l-62 63l-62 -63h-143l123 132h164l122 -132h-142z" />
    <glyph glyph-name="Otilde" unicode="&#xd5;" horiz-adv-x="733" 
d="M367 120q94 0 123.5 35t29.5 152v99q0 116 -29.5 151.5t-123.5 35.5q-95 0 -124.5 -35t-29.5 -152v-99q0 -116 30 -151.5t124 -35.5zM367 -18q-183 0 -254 75t-71 248v104q0 169 71 245.5t254 76.5t253.5 -75t70.5 -247v-104q0 -171 -70.5 -247t-253.5 -76zM365 785
l-12 4q-38 17 -56 17q-13 0 -19 -6.5t-6 -26.5v-10h-96v11q0 137 98 137q39 0 93 -23l12 -5q41 -17 56 -17q13 0 19 6.5t6 26.5v11h96v-12q0 -137 -98 -137q-35 0 -93 24z" />
    <glyph glyph-name="Odieresis" unicode="&#xd6;" horiz-adv-x="733" 
d="M367 120q94 0 123.5 35t29.5 152v99q0 116 -29.5 151.5t-123.5 35.5q-95 0 -124.5 -35t-29.5 -152v-99q0 -116 30 -151.5t124 -35.5zM367 -18q-183 0 -254 75t-71 248v104q0 169 71 245.5t254 76.5t253.5 -75t70.5 -247v-104q0 -171 -70.5 -247t-253.5 -76zM339 838
q0 -73 -80 -73q-78 0 -78 73q0 36 18 54t60 18q80 0 80 -72zM552 838q0 -73 -79 -73t-79 73q0 72 79 72t79 -72z" />
    <glyph glyph-name="multiply" unicode="&#xd7;" horiz-adv-x="595" 
d="M526 472l-131 -131l134 -134l-97 -97l-134 134l-135 -135l-98 97l136 136l-132 132l97 97l132 -132l130 130z" />
    <glyph glyph-name="Oslash" unicode="&#xd8;" horiz-adv-x="733" 
d="M191 -90h-115l64 124q-53 37 -75.5 102.5t-22.5 168.5v104q0 169 71 245.5t254 76.5q78 0 131 -13l44 85h115l-65 -124q53 -37 76 -102.5t23 -167.5v-104q0 -171 -70.5 -247t-253.5 -76q-81 0 -132 13zM213 406v-99q0 -75 11 -114l206 395q-32 5 -63 5q-95 0 -124.5 -35
t-29.5 -152zM367 120q94 0 123.5 35t29.5 152v99q0 76 -11 114l-206 -396q25 -4 64 -4z" />
    <glyph glyph-name="Ugrave" unicode="&#xd9;" horiz-adv-x="702" 
d="M53 283v429h165v-430q0 -96 26.5 -129t106.5 -33t107 33.5t27 128.5v430h164v-429q0 -161 -65 -231t-233 -70t-233 70t-65 231zM177 905h175l114 -133h-147z" />
    <glyph glyph-name="Uacute" unicode="&#xda;" horiz-adv-x="702" 
d="M53 283v429h165v-430q0 -96 26.5 -129t106.5 -33t107 33.5t27 128.5v430h164v-429q0 -161 -65 -231t-233 -70t-233 70t-65 231zM355 905h175l-142 -133h-147z" />
    <glyph glyph-name="Ucircumflex" unicode="&#xdb;" horiz-adv-x="702" 
d="M53 283v429h165v-430q0 -96 26.5 -129t106.5 -33t107 33.5t27 128.5v430h164v-429q0 -161 -65 -231t-233 -70t-233 70t-65 231zM414 772l-62 63l-62 -63h-143l123 132h164l122 -132h-142z" />
    <glyph glyph-name="Udieresis" unicode="&#xdc;" horiz-adv-x="702" 
d="M53 283v429h165v-430q0 -96 26.5 -129t106.5 -33t107 33.5t27 128.5v430h164v-429q0 -161 -65 -231t-233 -70t-233 70t-65 231zM324 838q0 -73 -80 -73q-78 0 -78 73q0 36 18 54t60 18q80 0 80 -72zM537 838q0 -73 -79 -73t-79 73q0 72 79 72t79 -72z" />
    <glyph glyph-name="Yacute" unicode="&#xdd;" horiz-adv-x="683" 
d="M5 712h183l157 -288l155 288h178l-254 -422v-290h-163v288zM343 905h175l-142 -133h-147z" />
    <glyph glyph-name="Thorn" unicode="&#xde;" horiz-adv-x="641" 
d="M450 353v12q0 57 -24.5 76.5t-91.5 19.5h-115v-204h115q67 0 91.5 19.5t24.5 76.5zM219 123v-123h-161v712h161v-117h124q145 0 208.5 -51.5t63.5 -164.5v-40q0 -110 -65.5 -163t-208.5 -53h-122z" />
    <glyph glyph-name="germandbls" unicode="&#xdf;" horiz-adv-x="601" 
d="M255 0l24 125q8 -1 35 -1q53 0 76 21t23 77v10q0 52 -22 75t-77 23h-56l20 125h25q45 0 64 16.5t19 60.5v12q0 43 -21 62t-67 19q-51 0 -71 -25.5t-20 -86.5v-513h-159v503q0 129 61 188t196 59q122 0 178.5 -48t56.5 -141v-9q0 -103 -82 -143q112 -31 112 -178v-21
q0 -107 -56 -159t-185 -52q-7 0 -39 0.5t-35 0.5z" />
    <glyph glyph-name="agrave" unicode="&#xe0;" horiz-adv-x="569" 
d="M186 173v-7q0 -30 16.5 -42.5t57.5 -12.5h106v58q0 33 -17.5 46.5t-68.5 13.5h-14q-46 0 -63 -12.5t-17 -43.5zM521 336v-233q0 -58 -25.5 -80.5t-88.5 -22.5h-177q-107 0 -152 39.5t-45 117.5v21q0 82 49.5 120t153.5 38q82 0 131 -27v11q0 45 -19 63.5t-81 18.5
q-149 0 -188 -2l23 123q78 2 175 2q127 0 185.5 -44t58.5 -145zM296 734l107 -136h-147l-129 136h169z" />
    <glyph glyph-name="aacute" unicode="&#xe1;" horiz-adv-x="569" 
d="M186 173v-7q0 -30 16.5 -42.5t57.5 -12.5h106v58q0 33 -17.5 46.5t-68.5 13.5h-14q-46 0 -63 -12.5t-17 -43.5zM521 336v-233q0 -58 -25.5 -80.5t-88.5 -22.5h-177q-107 0 -152 39.5t-45 117.5v21q0 82 49.5 120t153.5 38q82 0 131 -27v11q0 45 -19 63.5t-81 18.5
q-149 0 -188 -2l23 123q78 2 175 2q127 0 185.5 -44t58.5 -145zM194 598l107 136h169l-129 -136h-147z" />
    <glyph glyph-name="acircumflex" unicode="&#xe2;" horiz-adv-x="569" 
d="M186 173v-7q0 -30 16.5 -42.5t57.5 -12.5h106v58q0 33 -17.5 46.5t-68.5 13.5h-14q-46 0 -63 -12.5t-17 -43.5zM521 336v-233q0 -58 -25.5 -80.5t-88.5 -22.5h-177q-107 0 -152 39.5t-45 117.5v21q0 82 49.5 120t153.5 38q82 0 131 -27v11q0 45 -19 63.5t-81 18.5
q-149 0 -188 -2l23 123q78 2 175 2q127 0 185.5 -44t58.5 -145zM209 737h155l113 -139h-135l-56 67l-57 -67h-134z" />
    <glyph glyph-name="atilde" unicode="&#xe3;" horiz-adv-x="569" 
d="M186 173v-7q0 -30 16.5 -42.5t57.5 -12.5h106v58q0 33 -17.5 46.5t-68.5 13.5h-14q-46 0 -63 -12.5t-17 -43.5zM521 336v-233q0 -58 -25.5 -80.5t-88.5 -22.5h-177q-107 0 -152 39.5t-45 117.5v21q0 82 49.5 120t153.5 38q82 0 131 -27v11q0 45 -19 63.5t-81 18.5
q-149 0 -188 -2l23 123q78 2 175 2q127 0 185.5 -44t58.5 -145zM379 735h95v-10q0 -74 -25 -104t-75 -30q-35 0 -86 23l-20 9q-30 14 -43 14q-26 0 -26 -34v-9h-95v10q0 74 25 104t75 30q35 0 86 -23l20 -9q30 -14 43 -14q26 0 26 34v9z" />
    <glyph glyph-name="adieresis" unicode="&#xe4;" horiz-adv-x="569" 
d="M186 173v-7q0 -30 16.5 -42.5t57.5 -12.5h106v58q0 33 -17.5 46.5t-68.5 13.5h-14q-46 0 -63 -12.5t-17 -43.5zM521 336v-233q0 -58 -25.5 -80.5t-88.5 -22.5h-177q-107 0 -152 39.5t-45 117.5v21q0 82 49.5 120t153.5 38q82 0 131 -27v11q0 45 -19 63.5t-81 18.5
q-149 0 -188 -2l23 123q78 2 175 2q127 0 185.5 -44t58.5 -145zM267 661q0 -36 -18.5 -53.5t-59.5 -17.5q-42 0 -60 17.5t-18 53.5t18 53.5t60 17.5q41 0 59.5 -17.5t18.5 -53.5zM471 661q0 -36 -18.5 -53.5t-59.5 -17.5q-42 0 -60 17.5t-18 53.5t18 53.5t60 17.5
q41 0 59.5 -17.5t18.5 -53.5z" />
    <glyph glyph-name="aring" unicode="&#xe5;" horiz-adv-x="569" 
d="M186 173v-7q0 -30 16.5 -42.5t57.5 -12.5h106v58q0 33 -17.5 46.5t-68.5 13.5h-14q-46 0 -63 -12.5t-17 -43.5zM521 336v-233q0 -58 -25.5 -80.5t-88.5 -22.5h-177q-107 0 -152 39.5t-45 117.5v21q0 82 49.5 120t153.5 38q82 0 131 -27v11q0 45 -19 63.5t-81 18.5
q-149 0 -188 -2l23 123q78 2 175 2q127 0 185.5 -44t58.5 -145zM149 691q0 125 136 125q137 0 137 -125t-137 -125q-136 0 -136 125zM335 691q0 27 -11.5 38.5t-38.5 11.5t-38 -11.5t-11 -38.5t11 -38.5t38 -11.5t38.5 11.5t11.5 38.5z" />
    <glyph glyph-name="ae" unicode="&#xe6;" horiz-adv-x="880" 
d="M257 111h15q57 0 75.5 18t18.5 76v18h-113q-39 0 -53 -10.5t-14 -42.5v-5q0 -30 17 -42t54 -12zM611 539q234 0 234 -199v-21q0 -65 -18.5 -88t-69.5 -23h-236q2 -51 22 -68t78 -17q116 0 195 1l-23 -124q-45 -2 -187 -2q-66 1 -104 12.5t-63 43.5q-46 -56 -154 -56h-56
q-104 0 -150 39t-46 124v8q0 85 46 123t144 38h144q0 42 -22 57t-81 15q-146 0 -185 -2l23 123q74 2 176 2q120 0 163 -49q51 63 170 63zM607 422q-53 0 -69.5 -20.5t-16.5 -83.5h173q0 63 -17 83.5t-70 20.5z" />
    <glyph glyph-name="ccedilla" unicode="&#xe7;" horiz-adv-x="487" 
d="M297 525q104 0 155 -2l-24 -126q-46 3 -125 3q-63 0 -83 -20.5t-20 -91.5v-53q0 -70 20.5 -91t82.5 -21q114 0 151 2l-24 -125q-106 -2 -131 -2q-146 0 -203 53.5t-57 183.5v53q0 129 58.5 183t199.5 54zM263 -127q0 13 -6.5 18.5t-24.5 5.5q-29 0 -53 -1l16 69
q16 1 67 1q62 0 87.5 -20t25.5 -68v-7q0 -54 -28 -75.5t-98 -21.5q-71 0 -102 3l18 74q54 -2 67 -2q18 0 24.5 5.5t6.5 18.5z" />
    <glyph glyph-name="egrave" unicode="&#xe8;" horiz-adv-x="557" 
d="M434 208h-236q2 -51 22 -68t78 -17q116 0 195 1l-23 -124q-45 -2 -187 -2q-137 0 -190.5 56t-53.5 181v55q0 129 56.5 189t192.5 60q234 0 234 -199v-21q0 -65 -18.5 -88t-69.5 -23zM284 422q-53 0 -69.5 -20.5t-16.5 -83.5h173q0 63 -17 83.5t-70 20.5zM290 734
l107 -136h-147l-129 136h169z" />
    <glyph glyph-name="eacute" unicode="&#xe9;" horiz-adv-x="557" 
d="M434 208h-236q2 -51 22 -68t78 -17q116 0 195 1l-23 -124q-45 -2 -187 -2q-137 0 -190.5 56t-53.5 181v55q0 129 56.5 189t192.5 60q234 0 234 -199v-21q0 -65 -18.5 -88t-69.5 -23zM284 422q-53 0 -69.5 -20.5t-16.5 -83.5h173q0 63 -17 83.5t-70 20.5zM168 598l107 136
h169l-129 -136h-147z" />
    <glyph glyph-name="ecircumflex" unicode="&#xea;" horiz-adv-x="557" 
d="M434 208h-236q2 -51 22 -68t78 -17q116 0 195 1l-23 -124q-45 -2 -187 -2q-137 0 -190.5 56t-53.5 181v55q0 129 56.5 189t192.5 60q234 0 234 -199v-21q0 -65 -18.5 -88t-69.5 -23zM284 422q-53 0 -69.5 -20.5t-16.5 -83.5h173q0 63 -17 83.5t-70 20.5zM205 737h155
l113 -139h-135l-56 67l-57 -67h-134z" />
    <glyph glyph-name="edieresis" unicode="&#xeb;" horiz-adv-x="557" 
d="M434 208h-236q2 -51 22 -68t78 -17q116 0 195 1l-23 -124q-45 -2 -187 -2q-137 0 -190.5 56t-53.5 181v55q0 129 56.5 189t192.5 60q234 0 234 -199v-21q0 -65 -18.5 -88t-69.5 -23zM284 422q-53 0 -69.5 -20.5t-16.5 -83.5h173q0 63 -17 83.5t-70 20.5zM260 661
q0 -36 -18.5 -53.5t-59.5 -17.5q-42 0 -60 17.5t-18 53.5t18 53.5t60 17.5q41 0 59.5 -17.5t18.5 -53.5zM464 661q0 -36 -18.5 -53.5t-59.5 -17.5q-42 0 -60 17.5t-18 53.5t18 53.5t60 17.5q41 0 59.5 -17.5t18.5 -53.5z" />
    <glyph glyph-name="igrave" unicode="&#xec;" horiz-adv-x="255" 
d="M48 0v523h159v-523h-159zM114 734l107 -136h-147l-129 136h169z" />
    <glyph glyph-name="iacute" unicode="&#xed;" horiz-adv-x="255" 
d="M48 0v523h159v-523h-159zM38 598l107 136h169l-129 -136h-147z" />
    <glyph glyph-name="icircumflex" unicode="&#xee;" horiz-adv-x="255" 
d="M48 0v523h159v-523h-159zM51 737h155l113 -139h-135l-56 67l-57 -67h-134z" />
    <glyph glyph-name="idieresis" unicode="&#xef;" horiz-adv-x="255" 
d="M48 0v523h159v-523h-159zM104 661q0 -36 -18.5 -53.5t-59.5 -17.5q-42 0 -60 17.5t-18 53.5t18 53.5t60 17.5q41 0 59.5 -17.5t18.5 -53.5zM308 661q0 -36 -18.5 -53.5t-59.5 -17.5q-42 0 -60 17.5t-18 53.5t18 53.5t60 17.5q41 0 59.5 -17.5t18.5 -53.5z" />
    <glyph glyph-name="eth" unicode="&#xf0;" horiz-adv-x="602" 
d="M515 705l31 -77l-49 -21q57 -103 57 -278v-120q0 -119 -55 -172t-202 -53t-202.5 53t-55.5 172v49q0 122 56.5 172.5t171.5 50.5q81 0 124 -29q-7 58 -34 98l-106 -44l-30 75l76 32q-33 23 -64 39l98 106q69 -36 115 -82zM393 212v54q0 54 -18.5 72t-77.5 18t-78 -19
t-19 -84v-41q0 -64 17.5 -83.5t79.5 -19.5t79 19.5t17 83.5z" />
    <glyph glyph-name="ntilde" unicode="&#xf1;" horiz-adv-x="590" 
d="M207 0h-159v342q0 109 56.5 153t190.5 44t190.5 -44t56.5 -153v-342h-159v330q0 45 -16.5 62.5t-71.5 17.5t-71.5 -17.5t-16.5 -62.5v-330zM385 735h95v-10q0 -74 -25 -104t-75 -30q-35 0 -86 23l-20 9q-30 14 -43 14q-26 0 -26 -34v-9h-95v10q0 74 25 104t75 30
q35 0 86 -23l20 -9q30 -14 43 -14q26 0 26 34v9z" />
    <glyph glyph-name="ograve" unicode="&#xf2;" horiz-adv-x="593" 
d="M297 539q142 0 199.5 -54t57.5 -196v-55q0 -140 -57.5 -195t-199.5 -55t-200 55t-58 195v55q0 142 57.5 196t200.5 54zM393 230v64q0 76 -18.5 98t-77.5 22t-78 -22.5t-19 -97.5v-64q0 -76 19 -98.5t78 -22.5t77.5 22t18.5 99zM297 734l107 -136h-147l-129 136h169z" />
    <glyph glyph-name="oacute" unicode="&#xf3;" horiz-adv-x="593" 
d="M297 539q142 0 199.5 -54t57.5 -196v-55q0 -140 -57.5 -195t-199.5 -55t-200 55t-58 195v55q0 142 57.5 196t200.5 54zM393 230v64q0 76 -18.5 98t-77.5 22t-78 -22.5t-19 -97.5v-64q0 -76 19 -98.5t78 -22.5t77.5 22t18.5 99zM190 598l107 136h169l-129 -136h-147z" />
    <glyph glyph-name="ocircumflex" unicode="&#xf4;" horiz-adv-x="593" 
d="M297 539q142 0 199.5 -54t57.5 -196v-55q0 -140 -57.5 -195t-199.5 -55t-200 55t-58 195v55q0 142 57.5 196t200.5 54zM393 230v64q0 76 -18.5 98t-77.5 22t-78 -22.5t-19 -97.5v-64q0 -76 19 -98.5t78 -22.5t77.5 22t18.5 99zM219 737h155l113 -139h-135l-56 67l-57 -67
h-134z" />
    <glyph glyph-name="otilde" unicode="&#xf5;" horiz-adv-x="593" 
d="M297 539q142 0 199.5 -54t57.5 -196v-55q0 -140 -57.5 -195t-199.5 -55t-200 55t-58 195v55q0 142 57.5 196t200.5 54zM393 230v64q0 76 -18.5 98t-77.5 22t-78 -22.5t-19 -97.5v-64q0 -76 19 -98.5t78 -22.5t77.5 22t18.5 99zM387 735h95v-10q0 -74 -25 -104t-75 -30
q-35 0 -86 23l-20 9q-30 14 -43 14q-26 0 -26 -34v-9h-95v10q0 74 25 104t75 30q35 0 86 -23l20 -9q30 -14 43 -14q26 0 26 34v9z" />
    <glyph glyph-name="odieresis" unicode="&#xf6;" horiz-adv-x="593" 
d="M297 539q142 0 199.5 -54t57.5 -196v-55q0 -140 -57.5 -195t-199.5 -55t-200 55t-58 195v55q0 142 57.5 196t200.5 54zM393 230v64q0 76 -18.5 98t-77.5 22t-78 -22.5t-19 -97.5v-64q0 -76 19 -98.5t78 -22.5t77.5 22t18.5 99zM273 661q0 -36 -18.5 -53.5t-59.5 -17.5
q-42 0 -60 17.5t-18 53.5t18 53.5t60 17.5q41 0 59.5 -17.5t18.5 -53.5zM477 661q0 -36 -18.5 -53.5t-59.5 -17.5q-42 0 -60 17.5t-18 53.5t18 53.5t60 17.5q41 0 59.5 -17.5t18.5 -53.5z" />
    <glyph glyph-name="divide" unicode="&#xf7;" horiz-adv-x="595" 
d="M529 276h-463v130h463v-130zM297 594q44 0 62 -18.5t18 -53.5q0 -73 -80 -73q-79 0 -79 73q0 72 79 72zM297 233q44 0 62 -18.5t18 -53.5q0 -73 -80 -73q-79 0 -79 73q0 72 79 72z" />
    <glyph glyph-name="oslash" unicode="&#xf8;" horiz-adv-x="593" 
d="M297 539q52 0 97 -8l32 58h104l-50 -91q74 -53 74 -209v-55q0 -140 -57.5 -195t-199.5 -55q-53 0 -98 8l-33 -60h-104l51 93q-74 53 -74 209v55q0 142 57.5 196t200.5 54zM397 228v68q0 19 -2 49l-134 -240q7 -2 36 -2q62 0 81 22.5t19 102.5zM196 296v-68q0 -40 2 -50
l133 240q-22 2 -34 2q-62 0 -81.5 -22.5t-19.5 -101.5z" />
    <glyph glyph-name="ugrave" unicode="&#xf9;" horiz-adv-x="587" 
d="M294 -16q-132 0 -189 44t-57 154v341h159v-334q0 -45 16.5 -62.5t70.5 -17.5q53 0 69.5 17.5t16.5 62.5v334h159v-341q0 -110 -57 -154t-188 -44zM297 734l107 -136h-147l-129 136h169z" />
    <glyph glyph-name="uacute" unicode="&#xfa;" horiz-adv-x="587" 
d="M294 -16q-132 0 -189 44t-57 154v341h159v-334q0 -45 16.5 -62.5t70.5 -17.5q53 0 69.5 17.5t16.5 62.5v334h159v-341q0 -110 -57 -154t-188 -44zM185 598l107 136h169l-129 -136h-147z" />
    <glyph glyph-name="ucircumflex" unicode="&#xfb;" horiz-adv-x="587" 
d="M294 -16q-132 0 -189 44t-57 154v341h159v-334q0 -45 16.5 -62.5t70.5 -17.5q53 0 69.5 17.5t16.5 62.5v334h159v-341q0 -110 -57 -154t-188 -44zM217 737h155l113 -139h-135l-56 67l-57 -67h-134z" />
    <glyph glyph-name="udieresis" unicode="&#xfc;" horiz-adv-x="587" 
d="M294 -16q-132 0 -189 44t-57 154v341h159v-334q0 -45 16.5 -62.5t70.5 -17.5q53 0 69.5 17.5t16.5 62.5v334h159v-341q0 -110 -57 -154t-188 -44zM270 661q0 -36 -18.5 -53.5t-59.5 -17.5q-42 0 -60 17.5t-18 53.5t18 53.5t60 17.5q41 0 59.5 -17.5t18.5 -53.5zM474 661
q0 -36 -18.5 -53.5t-59.5 -17.5q-42 0 -60 17.5t-18 53.5t18 53.5t60 17.5q41 0 59.5 -17.5t18.5 -53.5z" />
    <glyph glyph-name="yacute" unicode="&#xfd;" horiz-adv-x="587" 
d="M380 47v6q-44 -30 -134 -30q-99 0 -148.5 41.5t-49.5 133.5v325h159v-291q0 -45 15 -62.5t66 -17.5q56 0 74 18t18 68v285h159v-480q0 -118 -58.5 -169t-199.5 -51q-127 0 -202 2l24 129q64 -2 167 -2q66 0 88 18t22 77zM191 598l107 136h169l-129 -136h-147z" />
    <glyph glyph-name="thorn" unicode="&#xfe;" horiz-adv-x="598" 
d="M334 538q117 0 171 -58t54 -192v-52q0 -138 -54.5 -195t-178.5 -57q-77 0 -118 29v-188h-160v918h159v-236q46 31 127 31zM303 413q-58 0 -77 -21.5t-19 -88.5v-82q0 -68 19.5 -90t76.5 -22q59 0 77 22.5t18 100.5v58q0 77 -19 100t-76 23z" />
    <glyph glyph-name="ydieresis" unicode="&#xff;" horiz-adv-x="587" 
d="M380 47v6q-44 -30 -134 -30q-99 0 -148.5 41.5t-49.5 133.5v325h159v-291q0 -45 15 -62.5t66 -17.5q56 0 74 18t18 68v285h159v-480q0 -118 -58.5 -169t-199.5 -51q-127 0 -202 2l24 129q64 -2 167 -2q66 0 88 18t22 77zM273 661q0 -36 -18.5 -53.5t-59.5 -17.5
q-42 0 -60 17.5t-18 53.5t18 53.5t60 17.5q41 0 59.5 -17.5t18.5 -53.5zM477 661q0 -36 -18.5 -53.5t-59.5 -17.5q-42 0 -60 17.5t-18 53.5t18 53.5t60 17.5q41 0 59.5 -17.5t18.5 -53.5z" />
    <glyph glyph-name="Amacron" unicode="&#x100;" horiz-adv-x="729" 
d="M546 0l-58 172h-256l-56 -172h-166l257 712h194l258 -712h-173zM359 566l-87 -265h176zM205 783v108h320v-108h-320z" />
    <glyph glyph-name="amacron" unicode="&#x101;" horiz-adv-x="569" 
d="M186 173v-7q0 -30 16.5 -42.5t57.5 -12.5h106v58q0 33 -17.5 46.5t-68.5 13.5h-14q-46 0 -63 -12.5t-17 -43.5zM521 336v-233q0 -58 -25.5 -80.5t-88.5 -22.5h-177q-107 0 -152 39.5t-45 117.5v21q0 82 49.5 120t153.5 38q82 0 131 -27v11q0 45 -19 63.5t-81 18.5
q-149 0 -188 -2l23 123q78 2 175 2q127 0 185.5 -44t58.5 -145zM133 605v107h320v-107h-320z" />
    <glyph glyph-name="Abreve" unicode="&#x102;" horiz-adv-x="729" 
d="M546 0l-58 172h-256l-56 -172h-166l257 712h194l258 -712h-173zM359 566l-87 -265h176zM364 765q-91 0 -132.5 35.5t-41.5 113.5h116q2 -35 14.5 -49t43.5 -14t43.5 14t13.5 49h117q0 -78 -41.5 -113.5t-132.5 -35.5z" />
    <glyph glyph-name="abreve" unicode="&#x103;" horiz-adv-x="569" 
d="M186 173v-7q0 -30 16.5 -42.5t57.5 -12.5h106v58q0 33 -17.5 46.5t-68.5 13.5h-14q-46 0 -63 -12.5t-17 -43.5zM521 336v-233q0 -58 -25.5 -80.5t-88.5 -22.5h-177q-107 0 -152 39.5t-45 117.5v21q0 82 49.5 120t153.5 38q82 0 131 -27v11q0 45 -19 63.5t-81 18.5
q-149 0 -188 -2l23 123q78 2 175 2q127 0 185.5 -44t58.5 -145zM287 583q-92 0 -132.5 35t-40.5 107h118q2 -30 14 -42.5t41 -12.5t40.5 12.5t13.5 42.5h119q0 -71 -41 -106.5t-132 -35.5z" />
    <glyph glyph-name="Aogonek" unicode="&#x104;" horiz-adv-x="729" 
d="M546 0l-58 172h-256l-56 -172h-166l257 712h194l258 -712q-75 -51 -75 -85q0 -12 8 -16.5t29 -4.5h37l-21 -107h-70q-57 0 -84 19t-27 61q0 73 86 133h-56zM359 566l-87 -265h176z" />
    <glyph glyph-name="aogonek" unicode="&#x105;" horiz-adv-x="569" 
d="M305 -136q0 73 65 136h-140q-107 0 -152 39.5t-45 117.5v21q0 82 49.5 120t153.5 38q82 0 131 -27v11q0 45 -19 63.5t-81 18.5q-149 0 -188 -2l23 123q78 2 175 2q127 0 185.5 -44t58.5 -145v-233q0 -55 -22 -77q-66 -65 -66 -107q0 -15 7 -20t30 -5h37l-21 -107h-70
q-111 0 -111 77zM186 173v-7q0 -30 16.5 -42.5t57.5 -12.5h106v58q0 33 -17.5 46.5t-68.5 13.5h-14q-46 0 -63 -12.5t-17 -43.5z" />
    <glyph glyph-name="Cacute" unicode="&#x106;" horiz-adv-x="586" 
d="M213 400v-88q0 -108 31 -141.5t128 -33.5q121 0 187 2l-27 -139q-55 -2 -169 -2q-179 0 -250 70t-71 247v83q0 175 72.5 245.5t248.5 70.5q125 0 190 -2l-27 -139q-98 2 -156 2q-98 0 -127.5 -32.5t-29.5 -142.5zM356 905h175l-142 -133h-147z" />
    <glyph glyph-name="cacute" unicode="&#x107;" horiz-adv-x="487" 
d="M297 525q104 0 155 -2l-24 -126q-46 3 -125 3q-63 0 -83 -20.5t-20 -91.5v-53q0 -70 20.5 -91t82.5 -21q114 0 151 2l-24 -125q-106 -2 -131 -2q-146 0 -203 53.5t-57 183.5v53q0 129 58.5 183t199.5 54zM175 598l107 136h169l-129 -136h-147z" />
    <glyph glyph-name="Ccircumflex" unicode="&#x108;" horiz-adv-x="586" 
d="M213 400v-88q0 -108 31 -141.5t128 -33.5q121 0 187 2l-27 -139q-55 -2 -169 -2q-179 0 -250 70t-71 247v83q0 175 72.5 245.5t248.5 70.5q125 0 190 -2l-27 -139q-98 2 -156 2q-98 0 -127.5 -32.5t-29.5 -142.5zM404 772l-62 63l-62 -63h-143l123 132h164l122 -132h-142
z" />
    <glyph glyph-name="ccircumflex" unicode="&#x109;" horiz-adv-x="487" 
d="M297 525q104 0 155 -2l-24 -126q-46 3 -125 3q-63 0 -83 -20.5t-20 -91.5v-53q0 -70 20.5 -91t82.5 -21q114 0 151 2l-24 -125q-106 -2 -131 -2q-146 0 -203 53.5t-57 183.5v53q0 129 58.5 183t199.5 54zM190 737h155l113 -139h-135l-56 67l-57 -67h-134z" />
    <glyph glyph-name="Cdotaccent" unicode="&#x10a;" horiz-adv-x="586" 
d="M213 400v-88q0 -108 31 -141.5t128 -33.5q121 0 187 2l-27 -139q-55 -2 -169 -2q-179 0 -250 70t-71 247v83q0 175 72.5 245.5t248.5 70.5q125 0 190 -2l-27 -139q-98 2 -156 2q-98 0 -127.5 -32.5t-29.5 -142.5zM439 842q0 -42 -19.5 -59.5t-70.5 -17.5
q-52 0 -71.5 17.5t-19.5 59.5q0 40 19.5 58t71.5 18q50 0 70 -18t20 -58z" />
    <glyph glyph-name="cdotaccent" unicode="&#x10b;" horiz-adv-x="487" 
d="M297 525q104 0 155 -2l-24 -126q-46 3 -125 3q-63 0 -83 -20.5t-20 -91.5v-53q0 -70 20.5 -91t82.5 -21q114 0 151 2l-24 -125q-106 -2 -131 -2q-146 0 -203 53.5t-57 183.5v53q0 129 58.5 183t199.5 54zM365 667q0 -42 -19.5 -59.5t-70.5 -17.5q-52 0 -71.5 17.5
t-19.5 59.5q0 40 19.5 58t71.5 18q50 0 70 -18t20 -58z" />
    <glyph glyph-name="Ccaron" unicode="&#x10c;" horiz-adv-x="586" 
d="M213 400v-88q0 -108 31 -141.5t128 -33.5q121 0 187 2l-27 -139q-55 -2 -169 -2q-179 0 -250 70t-71 247v83q0 175 72.5 245.5t248.5 70.5q125 0 190 -2l-27 -139q-98 2 -156 2q-98 0 -127.5 -32.5t-29.5 -142.5zM283 904l62 -63l62 63h143l-123 -132h-164l-122 132h142z
" />
    <glyph glyph-name="ccaron" unicode="&#x10d;" horiz-adv-x="487" 
d="M297 525q104 0 155 -2l-24 -126q-46 3 -125 3q-63 0 -83 -20.5t-20 -91.5v-53q0 -70 20.5 -91t82.5 -21q114 0 151 2l-24 -125q-106 -2 -131 -2q-146 0 -203 53.5t-57 183.5v53q0 129 58.5 183t199.5 54zM347 598h-155l-113 139h135l56 -67l57 67h134z" />
    <glyph glyph-name="Dcaron" unicode="&#x10e;" horiz-adv-x="709" 
d="M58 0v712h294q178 0 246.5 -74t68.5 -239v-85q0 -162 -68.5 -238t-243.5 -76h-297zM220 574v-436h119q90 0 123.5 35.5t33.5 141.5v83q0 105 -33.5 140.5t-123.5 35.5h-119zM279 904l62 -63l62 63h143l-123 -132h-164l-122 132h142z" />
    <glyph glyph-name="dcaron" unicode="&#x10f;" horiz-adv-x="711" 
d="M296 125h96v186q0 63 -20 83t-77 20q-58 0 -76.5 -23t-18.5 -96v-48q0 -76 18.5 -99t77.5 -23zM437 0h-144q-145 0 -199.5 53.5t-54.5 190.5v46q0 134 54.5 191.5t174.5 57.5q85 0 124 -30v234h159v-640q0 -58 -25.5 -80.5t-88.5 -22.5zM594 743h132l-34 -195h-104z" />
    <glyph glyph-name="Dcroat" unicode="&#x110;" horiz-adv-x="734" 
d="M83 0v302h-67v115h67v295h294q178 0 246.5 -74t68.5 -239v-85q0 -162 -68.5 -238t-243.5 -76h-297zM380 302h-135v-164h119q90 0 123.5 35.5t33.5 141.5v83q0 105 -33.5 140.5t-123.5 35.5h-119v-157h135v-115z" />
    <glyph glyph-name="dslash" unicode="&#x111;" horiz-adv-x="599" 
d="M229 581v98h163v64h159v-64h50v-98h-50v-478q0 -58 -25.5 -80.5t-88.5 -22.5h-144q-145 0 -199.5 53.5t-54.5 190.5v45q0 134 54.5 191.5t174.5 57.5q85 0 124 -30v73h-163zM296 125h96v185q0 63 -20 83t-77 20q-58 0 -76.5 -23t-18.5 -96v-47q0 -76 18.5 -99t77.5 -23z
" />
    <glyph glyph-name="Emacron" unicode="&#x112;" horiz-adv-x="610" 
d="M546 432l-26 -139h-297v-154h361l-27 -139h-499v712h520l-26 -139h-329v-141h323zM151 783v108h320v-108h-320z" />
    <glyph glyph-name="emacron" unicode="&#x113;" horiz-adv-x="557" 
d="M434 208h-236q2 -51 22 -68t78 -17q116 0 195 1l-23 -124q-45 -2 -187 -2q-137 0 -190.5 56t-53.5 181v55q0 129 56.5 189t192.5 60q234 0 234 -199v-21q0 -65 -18.5 -88t-69.5 -23zM284 422q-53 0 -69.5 -20.5t-16.5 -83.5h173q0 63 -17 83.5t-70 20.5zM121 605v107h320
v-107h-320z" />
    <glyph glyph-name="Ebreve" unicode="&#x114;" horiz-adv-x="610" 
d="M546 432l-26 -139h-297v-154h361l-27 -139h-499v712h520l-26 -139h-329v-141h323zM325 765q-91 0 -132.5 35.5t-41.5 113.5h116q2 -35 14.5 -49t43.5 -14t43.5 14t13.5 49h117q0 -78 -41.5 -113.5t-132.5 -35.5z" />
    <glyph glyph-name="ebreve" unicode="&#x115;" horiz-adv-x="557" 
d="M434 208h-236q2 -51 22 -68t78 -17q116 0 195 1l-23 -124q-45 -2 -187 -2q-137 0 -190.5 56t-53.5 181v55q0 129 56.5 189t192.5 60q234 0 234 -199v-21q0 -65 -18.5 -88t-69.5 -23zM284 422q-53 0 -69.5 -20.5t-16.5 -83.5h173q0 63 -17 83.5t-70 20.5zM281 583
q-92 0 -132.5 35t-40.5 107h118q2 -30 14 -42.5t41 -12.5t40.5 12.5t13.5 42.5h119q0 -71 -41 -106.5t-132 -35.5z" />
    <glyph glyph-name="Edotaccent" unicode="&#x116;" horiz-adv-x="610" 
d="M546 432l-26 -139h-297v-154h361l-27 -139h-499v712h520l-26 -139h-329v-141h323zM406 842q0 -42 -19.5 -59.5t-70.5 -17.5q-52 0 -71.5 17.5t-19.5 59.5q0 40 19.5 58t71.5 18q50 0 70 -18t20 -58z" />
    <glyph glyph-name="edotaccent" unicode="&#x117;" horiz-adv-x="557" 
d="M434 208h-236q2 -51 22 -68t78 -17q116 0 195 1l-23 -124q-45 -2 -187 -2q-137 0 -190.5 56t-53.5 181v55q0 129 56.5 189t192.5 60q234 0 234 -199v-21q0 -65 -18.5 -88t-69.5 -23zM284 422q-53 0 -69.5 -20.5t-16.5 -83.5h173q0 63 -17 83.5t-70 20.5zM370 667
q0 -42 -19.5 -59.5t-70.5 -17.5q-52 0 -71.5 17.5t-19.5 59.5q0 40 19.5 58t71.5 18q50 0 70 -18t20 -58z" />
    <glyph glyph-name="Eogonek" unicode="&#x118;" horiz-adv-x="610" 
d="M556 -106l-21 -107h-70q-57 0 -84 19t-27 61q0 73 86 133h-382v712h520l-26 -139h-329v-141h323l-26 -139h-297v-154h361l-27 -139q-75 -51 -75 -85q0 -12 8 -16.5t29 -4.5h37z" />
    <glyph glyph-name="eogonek" unicode="&#x119;" horiz-adv-x="557" 
d="M434 208h-236q2 -51 22 -68t78 -17q116 0 195 1l-23 -124q-76 -51 -76 -85q0 -12 7.5 -16.5t29.5 -4.5h37l-21 -107h-70q-58 0 -84.5 19t-26.5 61q0 69 76 131h-59q-137 0 -190.5 56t-53.5 181v55q0 129 56.5 189t192.5 60q234 0 234 -199v-21q0 -65 -18.5 -88t-69.5 -23
zM284 422q-53 0 -69.5 -20.5t-16.5 -83.5h173q0 63 -17 83.5t-70 20.5z" />
    <glyph glyph-name="Ecaron" unicode="&#x11a;" horiz-adv-x="610" 
d="M546 432l-26 -139h-297v-154h361l-27 -139h-499v712h520l-26 -139h-329v-141h323zM257 904l62 -63l62 63h143l-123 -132h-164l-122 132h142z" />
    <glyph glyph-name="ecaron" unicode="&#x11b;" horiz-adv-x="557" 
d="M434 208h-236q2 -51 22 -68t78 -17q116 0 195 1l-23 -124q-45 -2 -187 -2q-137 0 -190.5 56t-53.5 181v55q0 129 56.5 189t192.5 60q234 0 234 -199v-21q0 -65 -18.5 -88t-69.5 -23zM284 422q-53 0 -69.5 -20.5t-16.5 -83.5h173q0 63 -17 83.5t-70 20.5zM363 598h-155
l-113 139h135l56 -67l57 67h134z" />
    <glyph glyph-name="Gcircumflex" unicode="&#x11c;" horiz-adv-x="671" 
d="M512 0h-147q-183 0 -253 69.5t-70 237.5v99q0 163 75 235.5t266 72.5q169 0 226 -2l-26 -138q-84 2 -210 2q-99 0 -129.5 -32.5t-30.5 -139.5v-94q0 -108 30 -140.5t120 -32.5h102v130h-112l28 136h250v-297q0 -55 -25.5 -80.5t-93.5 -25.5zM432 772l-62 63l-62 -63h-143
l123 132h164l122 -132h-142z" />
    <glyph glyph-name="gcircumflex" unicode="&#x11d;" horiz-adv-x="598" 
d="M296 152q57 0 76 20t19 78v42q0 74 -16.5 96t-78.5 22t-79 -22t-17 -96v-22q0 -73 17.5 -95.5t78.5 -22.5zM391 47v6q-43 -30 -125 -30q-120 0 -173.5 56t-53.5 184v36q0 126 57.5 183t199.5 57q143 0 198.5 -56t55.5 -172v-268q0 -118 -58.5 -169t-199.5 -51
q-125 0 -202 2l24 129q64 -2 167 -2q66 0 88 18t22 77zM221 737h155l113 -139h-135l-56 67l-57 -67h-134z" />
    <glyph glyph-name="Gbreve" unicode="&#x11e;" horiz-adv-x="671" 
d="M512 0h-147q-183 0 -253 69.5t-70 237.5v99q0 163 75 235.5t266 72.5q169 0 226 -2l-26 -138q-84 2 -210 2q-99 0 -129.5 -32.5t-30.5 -139.5v-94q0 -108 30 -140.5t120 -32.5h102v130h-112l28 136h250v-297q0 -55 -25.5 -80.5t-93.5 -25.5zM360 765q-91 0 -132.5 35.5
t-41.5 113.5h116q2 -35 14.5 -49t43.5 -14t43.5 14t13.5 49h117q0 -78 -41.5 -113.5t-132.5 -35.5z" />
    <glyph glyph-name="gbreve" unicode="&#x11f;" horiz-adv-x="598" 
d="M296 152q57 0 76 20t19 78v42q0 74 -16.5 96t-78.5 22t-79 -22t-17 -96v-22q0 -73 17.5 -95.5t78.5 -22.5zM391 47v6q-43 -30 -125 -30q-120 0 -173.5 56t-53.5 184v36q0 126 57.5 183t199.5 57q143 0 198.5 -56t55.5 -172v-268q0 -118 -58.5 -169t-199.5 -51
q-125 0 -202 2l24 129q64 -2 167 -2q66 0 88 18t22 77zM290 583q-92 0 -132.5 35t-40.5 107h118q2 -30 14 -42.5t41 -12.5t40.5 12.5t13.5 42.5h119q0 -71 -41 -106.5t-132 -35.5z" />
    <glyph glyph-name="Gdotaccent" unicode="&#x120;" horiz-adv-x="671" 
d="M512 0h-147q-183 0 -253 69.5t-70 237.5v99q0 163 75 235.5t266 72.5q169 0 226 -2l-26 -138q-84 2 -210 2q-99 0 -129.5 -32.5t-30.5 -139.5v-94q0 -108 30 -140.5t120 -32.5h102v130h-112l28 136h250v-297q0 -55 -25.5 -80.5t-93.5 -25.5zM460 842q0 -42 -19.5 -59.5
t-70.5 -17.5q-52 0 -71.5 17.5t-19.5 59.5q0 40 19.5 58t71.5 18q50 0 70 -18t20 -58z" />
    <glyph glyph-name="gdotaccent" unicode="&#x121;" horiz-adv-x="598" 
d="M296 152q57 0 76 20t19 78v42q0 74 -16.5 96t-78.5 22t-79 -22t-17 -96v-22q0 -73 17.5 -95.5t78.5 -22.5zM391 47v6q-43 -30 -125 -30q-120 0 -173.5 56t-53.5 184v36q0 126 57.5 183t199.5 57q143 0 198.5 -56t55.5 -172v-268q0 -118 -58.5 -169t-199.5 -51
q-125 0 -202 2l24 129q64 -2 167 -2q66 0 88 18t22 77zM387 667q0 -42 -19.5 -59.5t-70.5 -17.5q-52 0 -71.5 17.5t-19.5 59.5q0 40 19.5 58t71.5 18q50 0 70 -18t20 -58z" />
    <glyph glyph-name="Gcommaaccent" unicode="&#x122;" horiz-adv-x="671" 
d="M512 0h-147q-183 0 -253 69.5t-70 237.5v99q0 163 75 235.5t266 72.5q169 0 226 -2l-26 -138q-84 2 -210 2q-99 0 -129.5 -32.5t-30.5 -139.5v-94q0 -108 30 -140.5t120 -32.5h102v130h-112l28 136h250v-297q0 -55 -25.5 -80.5t-93.5 -25.5zM384 -261h-102l33 87
q-31 13 -31 56q0 64 81 64q78 0 78 -63q0 -32 -20 -69z" />
    <glyph glyph-name="gcommaaccent" unicode="&#x123;" horiz-adv-x="598" 
d="M296 152q57 0 76 20t19 78v42q0 74 -16.5 96t-78.5 22t-79 -22t-17 -96v-22q0 -73 17.5 -95.5t78.5 -22.5zM391 47v6q-43 -30 -125 -30q-120 0 -173.5 56t-53.5 184v36q0 126 57.5 183t199.5 57q143 0 198.5 -56t55.5 -172v-268q0 -118 -58.5 -169t-199.5 -51
q-125 0 -202 2l24 129q64 -2 167 -2q66 0 88 18t22 77zM270 797h102l-33 -86q32 -14 32 -56q0 -65 -81 -65q-79 0 -79 64q0 31 20 68z" />
    <glyph glyph-name="Hcircumflex" unicode="&#x124;" horiz-adv-x="725" 
d="M502 712h165v-712h-165v290h-279v-290h-165v712h165v-277h279v277zM424 772l-62 63l-62 -63h-143l123 132h164l122 -132h-142z" />
    <glyph glyph-name="hcircumflex" unicode="&#x125;" horiz-adv-x="590" 
d="M207 0h-159v743h159v-240q45 36 134 36q201 0 201 -176v-363h-159v330q0 45 -16.5 62.5t-67.5 17.5q-54 0 -73 -20.5t-19 -75.5v-314zM307 772l-62 56l-61 -56h-133l122 121h146l122 -121h-134z" />
    <glyph glyph-name="Hbar" unicode="&#x126;" horiz-adv-x="779" 
d="M529 712h165v-83h69v-112h-69v-517h-165v290h-279v-290h-165v517h-69v112h69v83h165v-83h279v83zM250 435h279v82h-279v-82z" />
    <glyph glyph-name="hbar" unicode="&#x127;" horiz-adv-x="590" 
d="M368 581h-161v-78q45 36 134 36q201 0 201 -176v-363h-159v330q0 45 -16.5 62.5t-67.5 17.5q-54 0 -73 -20.5t-19 -75.5v-314h-159v581h-50v98h50v64h159v-64h161v-98z" />
    <glyph glyph-name="Itilde" unicode="&#x128;" horiz-adv-x="281" 
d="M58 712h165v-712h-165v712zM140 785l-12 4q-38 17 -56 17q-13 0 -19 -6.5t-6 -26.5v-10h-96v11q0 137 98 137q39 0 93 -23l12 -5q41 -17 56 -17q13 0 19 6.5t6 26.5v11h96v-12q0 -137 -98 -137q-35 0 -93 24z" />
    <glyph glyph-name="itilde" unicode="&#x129;" horiz-adv-x="255" 
d="M48 0v523h159v-523h-159zM218 735h95v-10q0 -74 -25 -104t-75 -30q-35 0 -86 23l-20 9q-30 14 -43 14q-26 0 -26 -34v-9h-95v10q0 74 25 104t75 30q35 0 86 -23l20 -9q30 -14 43 -14q26 0 26 34v9z" />
    <glyph glyph-name="Imacron" unicode="&#x12a;" horiz-adv-x="281" 
d="M58 712h165v-712h-165v712zM-19 783v108h320v-108h-320z" />
    <glyph glyph-name="imacron" unicode="&#x12b;" horiz-adv-x="255" 
d="M48 0v523h159v-523h-159zM-32 605v107h320v-107h-320z" />
    <glyph glyph-name="Ibreve" unicode="&#x12c;" horiz-adv-x="281" 
d="M58 712h165v-712h-165v712zM141 765q-91 0 -132.5 35.5t-41.5 113.5h116q2 -35 14.5 -49t43.5 -14t43.5 14t13.5 49h117q0 -78 -41.5 -113.5t-132.5 -35.5z" />
    <glyph glyph-name="ibreve" unicode="&#x12d;" horiz-adv-x="255" 
d="M48 0v523h159v-523h-159zM128 583q-92 0 -132.5 35t-40.5 107h118q2 -30 14 -42.5t41 -12.5t40.5 12.5t13.5 42.5h119q0 -71 -41 -106.5t-132 -35.5z" />
    <glyph glyph-name="Iogonek" unicode="&#x12e;" horiz-adv-x="281" 
d="M58 712h165v-712q-75 -51 -75 -85q0 -12 8 -16.5t29 -4.5h37l-21 -107h-70q-57 0 -84 19t-27 61q0 73 86 133h-48v712z" />
    <glyph glyph-name="iogonek" unicode="&#x12f;" horiz-adv-x="255" 
d="M48 0v523h159v-523q-74 -50 -74 -85q0 -12 7.5 -16.5t29.5 -4.5h37l-21 -107h-70q-58 0 -84.5 19t-26.5 61q0 73 85 133h-42zM218 667q0 -42 -19.5 -59.5t-70.5 -17.5q-52 0 -71.5 17.5t-19.5 59.5q0 40 19.5 58t71.5 18q50 0 70 -18t20 -58z" />
    <glyph glyph-name="Idot" unicode="&#x130;" horiz-adv-x="281" 
d="M58 712h165v-712h-165v712zM231 842q0 -42 -19.5 -59.5t-70.5 -17.5q-52 0 -71.5 17.5t-19.5 59.5q0 40 19.5 58t71.5 18q50 0 70 -18t20 -58z" />
    <glyph glyph-name="dotlessi" unicode="&#x131;" horiz-adv-x="255" 
d="M48 0v523h159v-523h-159z" />
    <glyph glyph-name="IJ" unicode="&#x132;" horiz-adv-x="757" 
d="M58 712h165v-712h-165v712zM539 279v433h165v-445q0 -147 -53.5 -208t-185.5 -61q-47 0 -98.5 1t-72.5 1l26 139q33 -1 106 -1q68 0 90.5 25.5t22.5 115.5z" />
    <glyph glyph-name="ij" unicode="&#x133;" horiz-adv-x="510" 
d="M48 0v523h159v-523h-159zM218 667q0 -42 -19.5 -59.5t-70.5 -17.5q-52 0 -71.5 17.5t-19.5 59.5q0 40 19.5 58t71.5 18q50 0 70 -18t20 -58zM151 -175l24 125q34 -2 60 -2q40 0 54 14.5t14 62.5v498h159v-506q0 -112 -43.5 -153t-151.5 -41q-87 0 -116 2zM473 667
q0 -42 -19.5 -59.5t-70.5 -17.5q-52 0 -71.5 17.5t-19.5 59.5q0 40 19.5 58t71.5 18q50 0 70 -18t20 -58z" />
    <glyph glyph-name="Jcircumflex" unicode="&#x134;" horiz-adv-x="476" 
d="M258 279v433h165v-445q0 -147 -53.5 -208t-185.5 -61q-47 0 -98.5 1t-72.5 1l26 139q33 -1 106 -1q68 0 90.5 25.5t22.5 115.5zM396 772l-62 63l-62 -63h-143l123 132h164l122 -132h-142z" />
    <glyph glyph-name="jcircumflex" unicode="&#x135;" horiz-adv-x="255" 
d="M-104 -175l24 125q34 -2 60 -2q40 0 54 14.5t14 62.5v498h159v-506q0 -112 -43.5 -153t-151.5 -41q-87 0 -116 2zM50 737h155l113 -139h-135l-56 67l-57 -67h-134z" />
    <glyph glyph-name="Kcommaaccent" unicode="&#x136;" horiz-adv-x="687" 
d="M223 712v-293l245 293h189l-287 -337l321 -375h-212l-256 307v-307h-165v712h165zM348 -261h-102l33 87q-31 13 -31 56q0 64 81 64q78 0 78 -63q0 -32 -20 -69z" />
    <glyph glyph-name="kcommaaccent" unicode="&#x137;" horiz-adv-x="585" 
d="M207 743v-410l172 190h188l-222 -235l242 -288h-193l-187 229v-229h-159v743h159zM206 -118q0 64 80 64q79 0 79 -64q0 -31 -20 -68l-39 -75h-102l33 88q-31 13 -31 55z" />
    <glyph glyph-name="kgreenlandic" unicode="&#x138;" horiz-adv-x="584" 
d="M207 523v-200l178 200h183l-225 -245l243 -278h-190l-189 219v-219h-159v523h159z" />
    <glyph glyph-name="Lacute" unicode="&#x139;" horiz-adv-x="571" 
d="M58 712h165v-573h335l-27 -139h-473v712zM189 905h175l-142 -133h-147z" />
    <glyph glyph-name="lacute" unicode="&#x13a;" horiz-adv-x="255" 
d="M48 0v743h159v-743h-159zM157 889h177l-149 -117h-149z" />
    <glyph glyph-name="Lcommaaccent" unicode="&#x13b;" horiz-adv-x="571" 
d="M58 712h165v-573h335l-27 -139h-473v712zM321 -261h-102l33 87q-31 13 -31 56q0 64 81 64q78 0 78 -63q0 -32 -20 -69z" />
    <glyph glyph-name="lcommaaccent" unicode="&#x13c;" horiz-adv-x="255" 
d="M48 0v743h159v-743h-159zM50 -118q0 64 80 64q79 0 79 -64q0 -31 -20 -68l-39 -75h-102l33 88q-31 13 -31 55z" />
    <glyph glyph-name="Lcaron" unicode="&#x13d;" horiz-adv-x="571" 
d="M58 712h165v-573h335l-27 -139h-473v712zM304 763h132l-34 -195h-104z" />
    <glyph glyph-name="lcaron" unicode="&#x13e;" horiz-adv-x="367" 
d="M48 0v743h159v-743h-159zM250 743h132l-34 -195h-104z" />
    <glyph glyph-name="Ldot" unicode="&#x13f;" horiz-adv-x="571" 
d="M58 712h165v-573h335l-27 -139h-473v712zM499 410q0 -43 -21 -64t-68 -21t-68.5 21t-21.5 64t21.5 64t68.5 21t68 -21t21 -64z" />
    <glyph glyph-name="ldot" unicode="&#x140;" horiz-adv-x="446" 
d="M48 0v743h159v-743h-159zM442 376q0 -43 -21 -64t-68 -21t-68.5 21t-21.5 64t21.5 64t68.5 21t68 -21t21 -64z" />
    <glyph glyph-name="Lslash" unicode="&#x141;" horiz-adv-x="603" 
d="M16 194v133l74 42v343h160v-251l178 102v-133l-178 -102v-189h340l-27 -139h-473v236z" />
    <glyph glyph-name="lslash" unicode="&#x142;" horiz-adv-x="298" 
d="M293 426l-65 -44v-382h-159v275l-64 -43v130l64 43v338h159v-232l65 44v-129z" />
    <glyph glyph-name="Nacute" unicode="&#x143;" horiz-adv-x="722" 
d="M58 712h134l316 -451v451h156v-712h-136l-313 447v-447h-157v712zM377 905h175l-142 -133h-147z" />
    <glyph glyph-name="nacute" unicode="&#x144;" horiz-adv-x="590" 
d="M207 0h-159v342q0 109 56.5 153t190.5 44t190.5 -44t56.5 -153v-342h-159v330q0 45 -16.5 62.5t-71.5 17.5t-71.5 -17.5t-16.5 -62.5v-330zM195 598l107 136h169l-129 -136h-147z" />
    <glyph glyph-name="Ncommaaccent" unicode="&#x145;" horiz-adv-x="722" 
d="M58 712h134l316 -451v451h156v-712h-136l-313 447v-447h-157v712zM386 -261h-102l33 87q-31 13 -31 56q0 64 81 64q78 0 78 -63q0 -32 -20 -69z" />
    <glyph glyph-name="ncommaaccent" unicode="&#x146;" horiz-adv-x="590" 
d="M207 0h-159v342q0 109 56.5 153t190.5 44t190.5 -44t56.5 -153v-342h-159v330q0 45 -16.5 62.5t-71.5 17.5t-71.5 -17.5t-16.5 -62.5v-330zM217 -118q0 64 80 64q79 0 79 -64q0 -31 -20 -68l-39 -75h-102l33 88q-31 13 -31 55z" />
    <glyph glyph-name="Ncaron" unicode="&#x147;" horiz-adv-x="722" 
d="M58 712h134l316 -451v451h156v-712h-136l-313 447v-447h-157v712zM299 904l62 -63l62 63h143l-123 -132h-164l-122 132h142z" />
    <glyph glyph-name="ncaron" unicode="&#x148;" horiz-adv-x="590" 
d="M207 0h-159v342q0 109 56.5 153t190.5 44t190.5 -44t56.5 -153v-342h-159v330q0 45 -16.5 62.5t-71.5 17.5t-71.5 -17.5t-16.5 -62.5v-330zM372 598h-155l-113 139h135l56 -67l57 67h134z" />
    <glyph glyph-name="napostrophe" unicode="&#x149;" horiz-adv-x="694" 
d="M311 0h-159v342q0 109 56.5 153t190.5 44t190.5 -44t56.5 -153v-342h-159v330q0 45 -16.5 62.5t-71.5 17.5t-71.5 -17.5t-16.5 -62.5v-330zM111 750q79 0 79 -73q0 -36 -39 -111l-48 -93h-97l53 142q-28 20 -28 60q0 37 18.5 56t61.5 19z" />
    <glyph glyph-name="Eng" unicode="&#x14a;" horiz-adv-x="722" 
d="M285 -179l26 139q40 -2 75 -2q57 0 80.5 16.5t29.5 70.5l-281 402v-447h-157v712h134l316 -451v451h156v-624q0 -147 -53.5 -208t-185.5 -61q-99 0 -140 2z" />
    <glyph glyph-name="eng" unicode="&#x14b;" horiz-adv-x="590" 
d="M383 25v305q0 45 -16.5 62.5t-71.5 17.5t-71.5 -17.5t-16.5 -62.5v-330h-159v342q0 109 56.5 153t190.5 44t190.5 -44t56.5 -153v-325q0 -112 -43.5 -153t-151.5 -41q-87 0 -116 2l24 125q34 -2 60 -2q40 0 54 14.5t14 62.5z" />
    <glyph glyph-name="Omacron" unicode="&#x14c;" horiz-adv-x="733" 
d="M367 120q94 0 123.5 35t29.5 152v99q0 116 -29.5 151.5t-123.5 35.5q-95 0 -124.5 -35t-29.5 -152v-99q0 -116 30 -151.5t124 -35.5zM367 -18q-183 0 -254 75t-71 248v104q0 169 71 245.5t254 76.5t253.5 -75t70.5 -247v-104q0 -171 -70.5 -247t-253.5 -76zM207 783v108
h320v-108h-320z" />
    <glyph glyph-name="omacron" unicode="&#x14d;" horiz-adv-x="593" 
d="M297 539q142 0 199.5 -54t57.5 -196v-55q0 -140 -57.5 -195t-199.5 -55t-200 55t-58 195v55q0 142 57.5 196t200.5 54zM393 230v64q0 76 -18.5 98t-77.5 22t-78 -22.5t-19 -97.5v-64q0 -76 19 -98.5t78 -22.5t77.5 22t18.5 99zM136 605v107h320v-107h-320z" />
    <glyph glyph-name="Obreve" unicode="&#x14e;" horiz-adv-x="733" 
d="M367 120q94 0 123.5 35t29.5 152v99q0 116 -29.5 151.5t-123.5 35.5q-95 0 -124.5 -35t-29.5 -152v-99q0 -116 30 -151.5t124 -35.5zM367 -18q-183 0 -254 75t-71 248v104q0 169 71 245.5t254 76.5t253.5 -75t70.5 -247v-104q0 -171 -70.5 -247t-253.5 -76zM367 765
q-91 0 -132.5 35.5t-41.5 113.5h116q2 -35 14.5 -49t43.5 -14t43.5 14t13.5 49h117q0 -78 -41.5 -113.5t-132.5 -35.5z" />
    <glyph glyph-name="obreve" unicode="&#x14f;" horiz-adv-x="593" 
d="M297 539q142 0 199.5 -54t57.5 -196v-55q0 -140 -57.5 -195t-199.5 -55t-200 55t-58 195v55q0 142 57.5 196t200.5 54zM393 230v64q0 76 -18.5 98t-77.5 22t-78 -22.5t-19 -97.5v-64q0 -76 19 -98.5t78 -22.5t77.5 22t18.5 99zM296 583q-92 0 -132.5 35t-40.5 107h118
q2 -30 14 -42.5t41 -12.5t40.5 12.5t13.5 42.5h119q0 -71 -41 -106.5t-132 -35.5z" />
    <glyph glyph-name="Ohungarumlaut" unicode="&#x150;" horiz-adv-x="733" 
d="M367 120q94 0 123.5 35t29.5 152v99q0 116 -29.5 151.5t-123.5 35.5q-95 0 -124.5 -35t-29.5 -152v-99q0 -116 30 -151.5t124 -35.5zM367 -18q-183 0 -254 75t-71 248v104q0 169 71 245.5t254 76.5t253.5 -75t70.5 -247v-104q0 -171 -70.5 -247t-253.5 -76zM274 905h160
l-131 -133h-134zM484 905h160l-131 -133h-134z" />
    <glyph glyph-name="ohungarumlaut" unicode="&#x151;" horiz-adv-x="593" 
d="M297 539q142 0 199.5 -54t57.5 -196v-55q0 -140 -57.5 -195t-199.5 -55t-200 55t-58 195v55q0 142 57.5 196t200.5 54zM393 230v64q0 76 -18.5 98t-77.5 22t-78 -22.5t-19 -97.5v-64q0 -76 19 -98.5t78 -22.5t77.5 22t18.5 99zM114 598l92 136h146l-113 -136h-125z
M310 598l92 136h147l-113 -136h-126z" />
    <glyph glyph-name="OE" unicode="&#x152;" horiz-adv-x="1012" 
d="M980 712l-26 -139h-329v-141h323l-26 -139h-297v-154h361l-27 -139h-592q-183 0 -254 75t-71 248v67q0 169 71 245.5t254 76.5h613zM367 138h93v436h-93q-95 0 -124.5 -35t-29.5 -152v-62q0 -116 30 -151.5t124 -35.5z" />
    <glyph glyph-name="oe" unicode="&#x153;" horiz-adv-x="912" 
d="M297 109q62 0 79 23t17 100v59q0 77 -17 100t-79 23q-59 0 -78 -22.5t-19 -97.5v-64q0 -76 19 -98.5t78 -22.5zM642 539q235 0 235 -199v-21q0 -65 -18.5 -88t-69.5 -23h-236q2 -51 22 -68t78 -17q116 0 195 1l-23 -124q-45 -2 -188 -2q-60 0 -96 10.5t-63 37.5
q-51 -62 -185 -62q-139 0 -196.5 55.5t-57.5 195.5v54q0 140 57.5 195t196.5 55q132 0 182 -58q51 58 167 58zM639 422q-53 0 -69.5 -20.5t-16.5 -83.5h173q0 63 -17 83.5t-70 20.5z" />
    <glyph glyph-name="Racute" unicode="&#x154;" horiz-adv-x="657" 
d="M615 494v-27q0 -149 -127 -193l161 -274h-181l-136 250h-113v-250h-161v712h287q144 0 207 -50.5t63 -167.5zM453 476v8q0 56 -24 75t-89 19h-121v-198h121q64 0 88.5 19.5t24.5 76.5zM331 905h175l-142 -133h-147z" />
    <glyph glyph-name="racute" unicode="&#x155;" horiz-adv-x="393" 
d="M207 312v-312h-159v329q0 109 54.5 153t171.5 44q88 0 120 -2l-24 -129q-24 2 -80 2q-52 0 -67.5 -18.5t-15.5 -66.5zM129 598l107 136h169l-129 -136h-147z" />
    <glyph glyph-name="Rcommaaccent" unicode="&#x156;" horiz-adv-x="657" 
d="M615 494v-27q0 -149 -127 -193l161 -274h-181l-136 250h-113v-250h-161v712h287q144 0 207 -50.5t63 -167.5zM453 476v8q0 56 -24 75t-89 19h-121v-198h121q64 0 88.5 19.5t24.5 76.5zM357 -261h-102l33 87q-31 13 -31 56q0 64 81 64q78 0 78 -63q0 -32 -20 -69z" />
    <glyph glyph-name="rcommaaccent" unicode="&#x157;" horiz-adv-x="393" 
d="M207 312v-312h-159v329q0 109 54.5 153t171.5 44q88 0 120 -2l-24 -129q-24 2 -80 2q-52 0 -67.5 -18.5t-15.5 -66.5zM53 -118q0 64 80 64q79 0 79 -64q0 -31 -20 -68l-39 -75h-102l33 88q-31 13 -31 55z" />
    <glyph glyph-name="Rcaron" unicode="&#x158;" horiz-adv-x="657" 
d="M615 494v-27q0 -149 -127 -193l161 -274h-181l-136 250h-113v-250h-161v712h287q144 0 207 -50.5t63 -167.5zM453 476v8q0 56 -24 75t-89 19h-121v-198h121q64 0 88.5 19.5t24.5 76.5zM254 904l62 -63l62 63h143l-123 -132h-164l-122 132h142z" />
    <glyph glyph-name="rcaron" unicode="&#x159;" horiz-adv-x="393" 
d="M207 312v-312h-159v329q0 109 54.5 153t171.5 44q88 0 120 -2l-24 -129q-24 2 -80 2q-52 0 -67.5 -18.5t-15.5 -66.5zM307 598h-155l-113 139h135l56 -67l57 67h134z" />
    <glyph glyph-name="Sacute" unicode="&#x15a;" horiz-adv-x="592" 
d="M263 441l122 -21q102 -18 142 -64.5t40 -136.5v-15q0 -110 -62.5 -158t-218.5 -48q-172 0 -260 2l25 134q70 -2 237 -2q66 0 88 14.5t22 56.5q0 39 -14 54t-61 23l-105 18q-113 20 -152 63.5t-39 135.5v16q0 99 63 150t206 51q173 0 251 -2l-25 -134q-69 2 -229 2
q-60 0 -80.5 -14t-20.5 -53q0 -35 13.5 -49.5t57.5 -22.5zM306 905h175l-142 -133h-147z" />
    <glyph glyph-name="sacute" unicode="&#x15b;" horiz-adv-x="526" 
d="M185 372q0 -17 10.5 -24t44.5 -10l92 -8q88 -8 124 -47.5t36 -106.5v-17q0 -83 -55 -122t-173 -39q-180 0 -235 2l22 123q134 -2 218 -2q42 0 56.5 7t14.5 29q0 18 -10.5 26t-44.5 10l-98 7q-79 6 -116 46t-37 105v19q0 77 52.5 116t172.5 39q146 0 223 -2l-23 -123
q-81 2 -210 2q-38 0 -51 -5.5t-13 -24.5zM167 598l107 136h169l-129 -136h-147z" />
    <glyph glyph-name="Scircumflex" unicode="&#x15c;" horiz-adv-x="592" 
d="M263 441l122 -21q102 -18 142 -64.5t40 -136.5v-15q0 -110 -62.5 -158t-218.5 -48q-172 0 -260 2l25 134q70 -2 237 -2q66 0 88 14.5t22 56.5q0 39 -14 54t-61 23l-105 18q-113 20 -152 63.5t-39 135.5v16q0 99 63 150t206 51q173 0 251 -2l-25 -134q-69 2 -229 2
q-60 0 -80.5 -14t-20.5 -53q0 -35 13.5 -49.5t57.5 -22.5zM365 772l-62 63l-62 -63h-143l123 132h164l122 -132h-142z" />
    <glyph glyph-name="scircumflex" unicode="&#x15d;" horiz-adv-x="526" 
d="M185 372q0 -17 10.5 -24t44.5 -10l92 -8q88 -8 124 -47.5t36 -106.5v-17q0 -83 -55 -122t-173 -39q-180 0 -235 2l22 123q134 -2 218 -2q42 0 56.5 7t14.5 29q0 18 -10.5 26t-44.5 10l-98 7q-79 6 -116 46t-37 105v19q0 77 52.5 116t172.5 39q146 0 223 -2l-23 -123
q-81 2 -210 2q-38 0 -51 -5.5t-13 -24.5zM184 737h155l113 -139h-135l-56 67l-57 -67h-134z" />
    <glyph glyph-name="Scedilla" unicode="&#x15e;" horiz-adv-x="592" 
d="M263 441l122 -21q102 -18 142 -64.5t40 -136.5v-15q0 -110 -62.5 -158t-218.5 -48q-172 0 -260 2l25 134q70 -2 237 -2q66 0 88 14.5t22 56.5q0 39 -14 54t-61 23l-105 18q-113 20 -152 63.5t-39 135.5v16q0 99 63 150t206 51q173 0 251 -2l-25 -134q-69 2 -229 2
q-60 0 -80.5 -14t-20.5 -53q0 -35 13.5 -49.5t57.5 -22.5zM259 -105q-36 0 -59 -1l16 71q28 1 80 1q61 0 86 -20.5t25 -68.5v-7q0 -54 -27.5 -75t-98.5 -21q-73 0 -113 3l18 75q23 -1 73 -1q18 0 24.5 4.5t6.5 18.5q0 13 -6.5 17t-24.5 4z" />
    <glyph glyph-name="scedilla" unicode="&#x15f;" horiz-adv-x="526" 
d="M185 372q0 -17 10.5 -24t44.5 -10l92 -8q88 -8 124 -47.5t36 -106.5v-17q0 -83 -55 -122t-173 -39q-180 0 -235 2l22 123q134 -2 218 -2q42 0 56.5 7t14.5 29q0 18 -10.5 26t-44.5 10l-98 7q-79 6 -116 46t-37 105v19q0 77 52.5 116t172.5 39q146 0 223 -2l-23 -123
q-81 2 -210 2q-38 0 -51 -5.5t-13 -24.5zM240 -127q0 13 -6.5 18.5t-24.5 5.5q-29 0 -53 -1l16 69q16 1 67 1q62 0 87.5 -20t25.5 -68v-7q0 -54 -28 -75.5t-98 -21.5q-71 0 -102 3l18 74q54 -2 67 -2q18 0 24.5 5.5t6.5 18.5z" />
    <glyph glyph-name="Scaron" unicode="&#x160;" horiz-adv-x="592" 
d="M263 441l122 -21q102 -18 142 -64.5t40 -136.5v-15q0 -110 -62.5 -158t-218.5 -48q-172 0 -260 2l25 134q70 -2 237 -2q66 0 88 14.5t22 56.5q0 39 -14 54t-61 23l-105 18q-113 20 -152 63.5t-39 135.5v16q0 99 63 150t206 51q173 0 251 -2l-25 -134q-69 2 -229 2
q-60 0 -80.5 -14t-20.5 -53q0 -35 13.5 -49.5t57.5 -22.5zM238 904l62 -63l62 63h143l-123 -132h-164l-122 132h142z" />
    <glyph glyph-name="scaron" unicode="&#x161;" horiz-adv-x="526" 
d="M185 372q0 -17 10.5 -24t44.5 -10l92 -8q88 -8 124 -47.5t36 -106.5v-17q0 -83 -55 -122t-173 -39q-180 0 -235 2l22 123q134 -2 218 -2q42 0 56.5 7t14.5 29q0 18 -10.5 26t-44.5 10l-98 7q-79 6 -116 46t-37 105v19q0 77 52.5 116t172.5 39q146 0 223 -2l-23 -123
q-81 2 -210 2q-38 0 -51 -5.5t-13 -24.5zM342 598h-155l-113 139h135l56 -67l57 67h134z" />
    <glyph glyph-name="Tcommaaccent" unicode="&#x162;" horiz-adv-x="670" 
d="M39 712h618l-27 -139h-214v-573h-165v573h-238zM297 -105q-36 0 -59 -1l16 71q28 1 80 1q61 0 86 -20.5t25 -68.5v-7q0 -54 -27.5 -75t-98.5 -21q-73 0 -113 3l18 75q23 -1 73 -1q18 0 24.5 4.5t6.5 18.5q0 13 -6.5 17t-24.5 4z" />
    <glyph glyph-name="tcommaaccent" unicode="&#x163;" horiz-adv-x="402" 
d="M365 398h-158v-189q0 -52 15 -68.5t66 -16.5q12 0 51 0.5t44 0.5l-24 -125q-5 0 -42 -0.5t-49 -0.5q-134 0 -177 41.5t-43 165.5v438l159 23v-144h182zM205 -127q0 13 -6.5 18.5t-24.5 5.5q-29 0 -53 -1l16 69q16 1 67 1q62 0 87.5 -20t25.5 -68v-7q0 -54 -28 -75.5
t-98 -21.5q-71 0 -102 3l18 74q54 -2 67 -2q18 0 24.5 5.5t6.5 18.5z" />
    <glyph glyph-name="Tcaron" unicode="&#x164;" horiz-adv-x="670" 
d="M39 712h618l-27 -139h-214v-573h-165v573h-238zM273 904l62 -63l62 63h143l-123 -132h-164l-122 132h142z" />
    <glyph glyph-name="tcaron" unicode="&#x165;" horiz-adv-x="406" 
d="M365 398h-158v-189q0 -52 15 -68.5t66 -16.5q12 0 51 0.5t44 0.5l-24 -125q-5 0 -42 -0.5t-49 -0.5q-134 0 -177 41.5t-43 165.5v438l159 23v-144h182zM260 743h132l-31 -170h-106z" />
    <glyph glyph-name="Tbar" unicode="&#x166;" horiz-adv-x="670" 
d="M39 712h618l-27 -139h-214v-179h141v-121h-141v-273h-165v273h-141v121h141v179h-238z" />
    <glyph glyph-name="tbar" unicode="&#x167;" horiz-adv-x="443" 
d="M15 325h52v319l159 23v-144h182l-24 -125h-158v-73h155v-101h-155v-15q0 -52 15 -68.5t66 -16.5q11 0 50 0.5t45 0.5l-24 -125q-5 0 -42 -0.5t-49 -0.5q-134 0 -177 41.5t-43 165.5v18h-52v101z" />
    <glyph glyph-name="Utilde" unicode="&#x168;" horiz-adv-x="702" 
d="M53 283v429h165v-430q0 -96 26.5 -129t106.5 -33t107 33.5t27 128.5v430h164v-429q0 -161 -65 -231t-233 -70t-233 70t-65 231zM350 785l-12 4q-38 17 -56 17q-13 0 -19 -6.5t-6 -26.5v-10h-96v11q0 137 98 137q39 0 93 -23l12 -5q41 -17 56 -17q13 0 19 6.5t6 26.5v11
h96v-12q0 -137 -98 -137q-35 0 -93 24z" />
    <glyph glyph-name="utilde" unicode="&#x169;" horiz-adv-x="587" 
d="M294 -16q-132 0 -189 44t-57 154v341h159v-334q0 -45 16.5 -62.5t70.5 -17.5q53 0 69.5 17.5t16.5 62.5v334h159v-341q0 -110 -57 -154t-188 -44zM383 735h95v-10q0 -74 -25 -104t-75 -30q-35 0 -86 23l-20 9q-30 14 -43 14q-26 0 -26 -34v-9h-95v10q0 74 25 104t75 30
q35 0 86 -23l20 -9q30 -14 43 -14q26 0 26 34v9z" />
    <glyph glyph-name="Umacron" unicode="&#x16a;" horiz-adv-x="702" 
d="M53 283v429h165v-430q0 -96 26.5 -129t106.5 -33t107 33.5t27 128.5v430h164v-429q0 -161 -65 -231t-233 -70t-233 70t-65 231zM191 783v108h320v-108h-320z" />
    <glyph glyph-name="umacron" unicode="&#x16b;" horiz-adv-x="587" 
d="M294 -16q-132 0 -189 44t-57 154v341h159v-334q0 -45 16.5 -62.5t70.5 -17.5q53 0 69.5 17.5t16.5 62.5v334h159v-341q0 -110 -57 -154t-188 -44zM134 605v107h320v-107h-320z" />
    <glyph glyph-name="Ubreve" unicode="&#x16c;" horiz-adv-x="702" 
d="M53 283v429h165v-430q0 -96 26.5 -129t106.5 -33t107 33.5t27 128.5v430h164v-429q0 -161 -65 -231t-233 -70t-233 70t-65 231zM351 765q-91 0 -132.5 35.5t-41.5 113.5h116q2 -35 14.5 -49t43.5 -14t43.5 14t13.5 49h117q0 -78 -41.5 -113.5t-132.5 -35.5z" />
    <glyph glyph-name="ubreve" unicode="&#x16d;" horiz-adv-x="587" 
d="M294 -16q-132 0 -189 44t-57 154v341h159v-334q0 -45 16.5 -62.5t70.5 -17.5q53 0 69.5 17.5t16.5 62.5v334h159v-341q0 -110 -57 -154t-188 -44zM293 583q-92 0 -132.5 35t-40.5 107h118q2 -30 14 -42.5t41 -12.5t40.5 12.5t13.5 42.5h119q0 -71 -41 -106.5t-132 -35.5z
" />
    <glyph glyph-name="Uring" unicode="&#x16e;" horiz-adv-x="702" 
d="M53 283v429h165v-430q0 -96 26.5 -129t106.5 -33t107 33.5t27 128.5v430h164v-429q0 -161 -65 -231t-233 -70t-233 70t-65 231zM211 852q0 64 36.5 97t104.5 33q67 0 103.5 -33t36.5 -97q0 -65 -36.5 -98t-103.5 -33q-68 0 -104.5 33t-36.5 98zM403 852q0 28 -12 39.5
t-39 11.5q-28 0 -40 -11.5t-12 -39.5t12 -40t40 -12q27 0 39 12t12 40z" />
    <glyph glyph-name="uring" unicode="&#x16f;" horiz-adv-x="587" 
d="M294 -16q-132 0 -189 44t-57 154v341h159v-334q0 -45 16.5 -62.5t70.5 -17.5q53 0 69.5 17.5t16.5 62.5v334h159v-341q0 -110 -57 -154t-188 -44zM157 691q0 125 136 125q137 0 137 -125t-137 -125q-136 0 -136 125zM343 691q0 27 -11.5 38.5t-38.5 11.5t-38 -11.5
t-11 -38.5t11 -38.5t38 -11.5t38.5 11.5t11.5 38.5z" />
    <glyph glyph-name="Uhungarumlaut" unicode="&#x170;" horiz-adv-x="702" 
d="M53 283v429h165v-430q0 -96 26.5 -129t106.5 -33t107 33.5t27 128.5v430h164v-429q0 -161 -65 -231t-233 -70t-233 70t-65 231zM254 905h160l-131 -133h-134zM464 905h160l-131 -133h-134z" />
    <glyph glyph-name="uhungarumlaut" unicode="&#x171;" horiz-adv-x="587" 
d="M294 -16q-132 0 -189 44t-57 154v341h159v-334q0 -45 16.5 -62.5t70.5 -17.5q53 0 69.5 17.5t16.5 62.5v334h159v-341q0 -110 -57 -154t-188 -44zM107 598l92 136h146l-113 -136h-125zM303 598l92 136h147l-113 -136h-126z" />
    <glyph glyph-name="Uogonek" unicode="&#x172;" horiz-adv-x="702" 
d="M53 283v429h165v-430q0 -96 26.5 -129t106.5 -33t107 33.5t27 128.5v430h164v-429q0 -111 -28.5 -176.5t-97.5 -96.5q-73 -49 -73 -95q0 -12 8 -16.5t29 -4.5h37l-21 -107h-70q-57 0 -84 19t-27 61q0 65 57 116q-9 -1 -28 -1q-168 0 -233 70t-65 231z" />
    <glyph glyph-name="uogonek" unicode="&#x173;" horiz-adv-x="587" 
d="M301 -16q-139 0 -196 43.5t-57 154.5v341h159v-334q0 -45 16.5 -62.5t70.5 -17.5q53 0 69.5 17.5t16.5 62.5v334h159v-341q0 -74 -24 -116.5t-77 -62.5q-72 -46 -72 -88q0 -12 7.5 -16.5t29.5 -4.5h37l-21 -107h-70q-58 0 -84.5 19t-26.5 61q0 30 17 62t46 55z" />
    <glyph glyph-name="Wcircumflex" unicode="&#x174;" horiz-adv-x="947" 
d="M676 196l94 516h161l-164 -712h-179l-113 481l-114 -481h-183l-162 712h171l92 -515l123 515h151zM535 772l-62 63l-62 -63h-143l123 132h164l122 -132h-142z" />
    <glyph glyph-name="wcircumflex" unicode="&#x175;" horiz-adv-x="798" 
d="M471 523l84 -358l77 358h154l-152 -523h-155l-78 330l-80 -330h-159l-150 523h161l75 -357l86 357h137zM322 737h155l113 -139h-135l-56 67l-57 -67h-134z" />
    <glyph glyph-name="Ycircumflex" unicode="&#x176;" horiz-adv-x="683" 
d="M5 712h183l157 -288l155 288h178l-254 -422v-290h-163v288zM404 772l-62 63l-62 -63h-143l123 132h164l122 -132h-142z" />
    <glyph glyph-name="ycircumflex" unicode="&#x177;" horiz-adv-x="587" 
d="M380 47v6q-44 -30 -134 -30q-99 0 -148.5 41.5t-49.5 133.5v325h159v-291q0 -45 15 -62.5t66 -17.5q56 0 74 18t18 68v285h159v-480q0 -118 -58.5 -169t-199.5 -51q-127 0 -202 2l24 129q64 -2 167 -2q66 0 88 18t22 77zM216 737h155l113 -139h-135l-56 67l-57 -67h-134z
" />
    <glyph glyph-name="Ydieresis" unicode="&#x178;" horiz-adv-x="683" 
d="M5 712h183l157 -288l155 288h178l-254 -422v-290h-163v288zM314 838q0 -73 -80 -73q-78 0 -78 73q0 36 18 54t60 18q80 0 80 -72zM527 838q0 -73 -79 -73t-79 73q0 72 79 72t79 -72z" />
    <glyph glyph-name="Zacute" unicode="&#x179;" horiz-adv-x="631" 
d="M30 0v120l343 454h-339l27 138h517v-122l-343 -452h368l-26 -138h-547zM335 905h175l-142 -133h-147z" />
    <glyph glyph-name="zacute" unicode="&#x17a;" horiz-adv-x="523" 
d="M31 0v105l248 293h-251l24 125h432v-105l-250 -293h264l-24 -125h-443zM163 598l107 136h169l-129 -136h-147z" />
    <glyph glyph-name="Zdotaccent" unicode="&#x17b;" horiz-adv-x="631" 
d="M30 0v120l343 454h-339l27 138h517v-122l-343 -452h368l-26 -138h-547zM401 842q0 -42 -19.5 -59.5t-70.5 -17.5q-52 0 -71.5 17.5t-19.5 59.5q0 40 19.5 58t71.5 18q50 0 70 -18t20 -58z" />
    <glyph glyph-name="zdotaccent" unicode="&#x17c;" horiz-adv-x="523" 
d="M31 0v105l248 293h-251l24 125h432v-105l-250 -293h264l-24 -125h-443zM360 667q0 -42 -19.5 -59.5t-70.5 -17.5q-52 0 -71.5 17.5t-19.5 59.5q0 40 19.5 58t71.5 18q50 0 70 -18t20 -58z" />
    <glyph glyph-name="Zcaron" unicode="&#x17d;" horiz-adv-x="631" 
d="M30 0v120l343 454h-339l27 138h517v-122l-343 -452h368l-26 -138h-547zM257 904l62 -63l62 63h143l-123 -132h-164l-122 132h142z" />
    <glyph glyph-name="zcaron" unicode="&#x17e;" horiz-adv-x="523" 
d="M31 0v105l248 293h-251l24 125h432v-105l-250 -293h264l-24 -125h-443zM347 598h-155l-113 139h135l56 -67l57 67h134z" />
    <glyph glyph-name="longs" unicode="&#x17f;" horiz-adv-x="255" 
d="M207 520v-520h-159v502q0 135 57 189t200 54q52 0 102 -2l-24 -125q-40 2 -75 2q-58 0 -79.5 -22t-21.5 -78z" />
    <glyph glyph-name="florin" unicode="&#x192;" horiz-adv-x="383" 
d="M48 25v477q0 135 57 189t200 54q19 0 60.5 -1t52.5 -1l-24 -125q-40 2 -86 2q-57 0 -79 -21.5t-22 -75.5h176l-24 -125h-152v-381q0 -112 -43.5 -153t-151.5 -41q-87 0 -116 2l24 125q34 -2 60 -2q40 0 54 14.5t14 62.5z" />
    <glyph glyph-name="Scommaaccent" unicode="&#x218;" horiz-adv-x="592" 
d="M263 441l122 -21q102 -18 142 -64.5t40 -136.5v-15q0 -110 -62.5 -158t-218.5 -48q-172 0 -260 2l25 134q70 -2 237 -2q66 0 88 14.5t22 56.5q0 39 -14 54t-61 23l-105 18q-113 20 -152 63.5t-39 135.5v16q0 99 63 150t206 51q173 0 251 -2l-25 -134q-69 2 -229 2
q-60 0 -80.5 -14t-20.5 -53q0 -35 13.5 -49.5t57.5 -22.5zM310 -261h-102l33 87q-31 13 -31 56q0 64 81 64q78 0 78 -63q0 -32 -20 -69z" />
    <glyph glyph-name="scommaaccent" unicode="&#x219;" horiz-adv-x="526" 
d="M185 372q0 -17 10.5 -24t44.5 -10l92 -8q88 -8 124 -47.5t36 -106.5v-17q0 -83 -55 -122t-173 -39q-180 0 -235 2l22 123q134 -2 218 -2q42 0 56.5 7t14.5 29q0 18 -10.5 26t-44.5 10l-98 7q-79 6 -116 46t-37 105v19q0 77 52.5 116t172.5 39q146 0 223 -2l-23 -123
q-81 2 -210 2q-38 0 -51 -5.5t-13 -24.5zM172 -118q0 64 80 64q79 0 79 -64q0 -31 -20 -68l-39 -75h-102l33 88q-31 13 -31 55z" />
    <glyph glyph-name="uni021A" unicode="&#x21a;" horiz-adv-x="670" 
d="M39 712h618l-27 -139h-214v-573h-165v573h-238zM356 -261h-102l33 87q-31 13 -31 56q0 64 81 64q78 0 78 -63q0 -32 -20 -69z" />
    <glyph glyph-name="uni021B" unicode="&#x21b;" horiz-adv-x="406" 
d="M365 398h-158v-189q0 -52 15 -68.5t66 -16.5q12 0 51 0.5t44 0.5l-24 -125q-5 0 -42 -0.5t-49 -0.5q-134 0 -177 41.5t-43 165.5v438l159 23v-144h182zM137 -118q0 64 80 64q79 0 79 -64q0 -31 -20 -68l-39 -75h-102l33 88q-31 13 -31 55z" />
    <glyph glyph-name="uni0237" unicode="&#x237;" horiz-adv-x="255" 
d="M-104 -175l24 125q34 -2 60 -2q40 0 54 14.5t14 62.5v498h159v-506q0 -112 -43.5 -153t-151.5 -41q-87 0 -116 2z" />
    <glyph glyph-name="afii57929" unicode="&#x2bc;" horiz-adv-x="363" 
d="M189 750q79 0 79 -73q0 -36 -39 -111l-48 -93h-97l53 142q-28 20 -28 60q0 37 18.5 56t61.5 19z" />
    <glyph glyph-name="circumflex" unicode="&#x2c6;" horiz-adv-x="500" 
d="M173 737h155l113 -139h-135l-56 67l-57 -67h-134z" />
    <glyph glyph-name="caron" unicode="&#x2c7;" horiz-adv-x="500" 
d="M327 598h-155l-113 139h135l56 -67l57 67h134z" />
    <glyph glyph-name="uni02C9" unicode="&#x2c9;" horiz-adv-x="500" 
d="M90 605v107h320v-107h-320z" />
    <glyph glyph-name="breve" unicode="&#x2d8;" horiz-adv-x="500" 
d="M250 583q-92 0 -132.5 35t-40.5 107h118q2 -30 14 -42.5t41 -12.5t40.5 12.5t13.5 42.5h119q0 -71 -41 -106.5t-132 -35.5z" />
    <glyph glyph-name="dotaccent" unicode="&#x2d9;" horiz-adv-x="500" 
d="M340 667q0 -42 -19.5 -59.5t-70.5 -17.5q-52 0 -71.5 17.5t-19.5 59.5q0 40 19.5 58t71.5 18q50 0 70 -18t20 -58z" />
    <glyph glyph-name="ring" unicode="&#x2da;" horiz-adv-x="500" 
d="M114 691q0 125 136 125q137 0 137 -125t-137 -125q-136 0 -136 125zM300 691q0 27 -11.5 38.5t-38.5 11.5t-38 -11.5t-11 -38.5t11 -38.5t38 -11.5t38.5 11.5t11.5 38.5z" />
    <glyph glyph-name="ogonek" unicode="&#x2db;" horiz-adv-x="500" 
d="M345 -106l-21 -107h-70q-58 0 -84.5 19t-26.5 61q0 38 28.5 78t81.5 71l92 -16q-74 -50 -74 -85q0 -12 7.5 -16.5t29.5 -4.5h37z" />
    <glyph glyph-name="tilde" unicode="&#x2dc;" horiz-adv-x="500" 
d="M340 735h95v-10q0 -74 -25 -104t-75 -30q-35 0 -86 23l-20 9q-30 14 -43 14q-26 0 -26 -34v-9h-95v10q0 74 25 104t75 30q35 0 86 -23l20 -9q30 -14 43 -14q26 0 26 34v9z" />
    <glyph glyph-name="hungarumlaut" unicode="&#x2dd;" horiz-adv-x="500" 
d="M36 598l92 136h146l-113 -136h-125zM232 598l92 136h147l-113 -136h-126z" />
    <glyph glyph-name="increment" unicode="&#x394;" horiz-adv-x="696" 
d="M686 0h-676l240 712h197zM346 566l-137 -435h273z" />
    <glyph glyph-name="Omega" unicode="&#x3a9;" horiz-adv-x="739" 
d="M44 366v40q0 172 73 248.5t252 76.5q178 0 251.5 -76.5t73.5 -248.5v-40q0 -147 -86 -238h107l-25 -128h-266v115q51 40 75 86.5t24 136.5v63q0 116 -30.5 154t-123.5 38t-123.5 -38t-30.5 -154v-63q0 -90 24 -137.5t75 -85.5v-115h-290l24 128h81q-85 92 -85 238z" />
    <glyph glyph-name="mu" unicode="&#x3bc;" horiz-adv-x="595" 
d="M417 0h-92q-87 0 -120 26v-201h-157v698h159v-303q0 -55 19.5 -75t75.5 -20h84v398h161v-420q0 -57 -28 -80t-102 -23z" />
    <glyph glyph-name="pi" unicode="&#x3c0;" horiz-adv-x="678" 
d="M106 399h-86l23 121h615l-24 -121h-63v-399h-156v399h-154v-399h-155v399z" />
    <glyph glyph-name="Wgrave" unicode="&#x1e80;" horiz-adv-x="947" 
d="M676 196l94 516h161l-164 -712h-179l-113 481l-114 -481h-183l-162 712h171l92 -515l123 515h151zM285 905h175l114 -133h-147z" />
    <glyph glyph-name="wgrave" unicode="&#x1e81;" horiz-adv-x="798" 
d="M471 523l84 -358l77 358h154l-152 -523h-155l-78 330l-80 -330h-159l-150 523h161l75 -357l86 357h137zM388 734l107 -136h-147l-129 136h169z" />
    <glyph glyph-name="Wacute" unicode="&#x1e82;" horiz-adv-x="947" 
d="M676 196l94 516h161l-164 -712h-179l-113 481l-114 -481h-183l-162 712h171l92 -515l123 515h151zM492 905h175l-142 -133h-147z" />
    <glyph glyph-name="wacute" unicode="&#x1e83;" horiz-adv-x="798" 
d="M471 523l84 -358l77 358h154l-152 -523h-155l-78 330l-80 -330h-159l-150 523h161l75 -357l86 357h137zM307 598l107 136h169l-129 -136h-147z" />
    <glyph glyph-name="Wdieresis" unicode="&#x1e84;" horiz-adv-x="947" 
d="M676 196l94 516h161l-164 -712h-179l-113 481l-114 -481h-183l-162 712h171l92 -515l123 515h151zM446 838q0 -73 -80 -73q-78 0 -78 73q0 36 18 54t60 18q80 0 80 -72zM659 838q0 -73 -79 -73t-79 73q0 72 79 72t79 -72z" />
    <glyph glyph-name="wdieresis" unicode="&#x1e85;" horiz-adv-x="798" 
d="M471 523l84 -358l77 358h154l-152 -523h-155l-78 330l-80 -330h-159l-150 523h161l75 -357l86 357h137zM375 661q0 -36 -18.5 -53.5t-59.5 -17.5q-42 0 -60 17.5t-18 53.5t18 53.5t60 17.5q41 0 59.5 -17.5t18.5 -53.5zM579 661q0 -36 -18.5 -53.5t-59.5 -17.5
q-42 0 -60 17.5t-18 53.5t18 53.5t60 17.5q41 0 59.5 -17.5t18.5 -53.5z" />
    <glyph glyph-name="Ygrave" unicode="&#x1ef2;" horiz-adv-x="683" 
d="M5 712h183l157 -288l155 288h178l-254 -422v-290h-163v288zM164 905h175l114 -133h-147z" />
    <glyph glyph-name="ygrave" unicode="&#x1ef3;" horiz-adv-x="587" 
d="M380 47v6q-44 -30 -134 -30q-99 0 -148.5 41.5t-49.5 133.5v325h159v-291q0 -45 15 -62.5t66 -17.5q56 0 74 18t18 68v285h159v-480q0 -118 -58.5 -169t-199.5 -51q-127 0 -202 2l24 129q64 -2 167 -2q66 0 88 18t22 77zM301 734l107 -136h-147l-129 136h169z" />
    <glyph glyph-name="endash" unicode="&#x2013;" horiz-adv-x="500" 
d="M0 212v138h500v-138h-500z" />
    <glyph glyph-name="emdash" unicode="&#x2014;" horiz-adv-x="1000" 
d="M0 212v138h1000v-138h-1000z" />
    <glyph glyph-name="quoteleft" unicode="&#x2018;" horiz-adv-x="251" 
d="M78 648l50 95h100l-62 -169q33 -20 33 -64q0 -79 -85 -79q-84 0 -84 78q0 47 48 139z" />
    <glyph glyph-name="quoteright" unicode="&#x2019;" horiz-adv-x="251" 
d="M173 531l-50 -95h-100l61 168q-32 18 -32 64q0 79 84 79q85 0 85 -78q0 -47 -48 -138z" />
    <glyph glyph-name="quotesinglbase" unicode="&#x201a;" horiz-adv-x="213" 
d="M143 -66l-50 -95h-100l61 168q-32 18 -32 64q0 79 84 79q85 0 85 -78q0 -46 -48 -138z" />
    <glyph glyph-name="quotedblleft" unicode="&#x201c;" horiz-adv-x="485" 
d="M78 648l50 95h100l-62 -169q33 -20 33 -64q0 -79 -85 -79q-84 0 -84 78q0 47 48 139zM312 648l50 95h100l-62 -169q33 -20 33 -64q0 -79 -85 -79q-84 0 -84 78q0 47 48 139z" />
    <glyph glyph-name="quotedblright" unicode="&#x201d;" horiz-adv-x="485" 
d="M173 531l-50 -95h-100l61 168q-32 18 -32 64q0 79 84 79q85 0 85 -78q0 -47 -48 -138zM407 531l-50 -95h-100l61 168q-32 18 -32 64q0 79 84 79q85 0 85 -78q0 -47 -48 -138z" />
    <glyph glyph-name="quotedblbase" unicode="&#x201e;" horiz-adv-x="446" 
d="M144 -65l-50 -95h-100l61 168q-32 18 -32 64q0 79 84 79q85 0 85 -78q0 -46 -48 -138zM376 -65l-50 -95h-100l61 168q-32 18 -32 64q0 79 84 79q85 0 85 -78q0 -46 -48 -138z" />
    <glyph glyph-name="dagger" unicode="&#x2020;" horiz-adv-x="531" 
d="M185 353h-172l25 132h147v227h159v-227h174l-25 -132h-149v-534h-159v534z" />
    <glyph glyph-name="daggerdbl" unicode="&#x2021;" horiz-adv-x="531" 
d="M185 38h-172l25 132h147v196h-172l25 132h147v214h159v-214h174l-25 -132h-149v-196h174l-25 -132h-149v-219h-159v219z" />
    <glyph glyph-name="bullet" unicode="&#x2022;" horiz-adv-x="430" 
d="M366 280q0 -77 -35.5 -114t-115.5 -37t-115.5 37t-35.5 114t35.5 114t115.5 37t115.5 -37t35.5 -114z" />
    <glyph glyph-name="ellipsis" unicode="&#x2026;" horiz-adv-x="1000" 
d="M256 75q0 -43 -21 -64t-68 -21t-68.5 21t-21.5 64t21.5 64t68.5 21t68 -21t21 -64zM591 75q0 -43 -21 -64t-68 -21t-68.5 21t-21.5 64t21.5 64t68.5 21t68 -21t21 -64zM923 75q0 -43 -21 -64t-68 -21t-68.5 21t-21.5 64t21.5 64t68.5 21t68 -21t21 -64z" />
    <glyph glyph-name="perthousand" unicode="&#x2030;" horiz-adv-x="1316" 
d="M191 0l409 680h136l-409 -680h-136zM730 87q37 0 48 17.5t11 72.5v38q0 55 -11 72.5t-48 17.5t-47.5 -17t-10.5 -73v-38q0 -56 10.5 -73t47.5 -17zM730 -9q-102 0 -140.5 43t-38.5 137v50q0 94 38.5 137t140.5 43t141.5 -43t39.5 -137v-50q0 -94 -39.5 -137t-141.5 -43z
M1120 87q37 0 48 17.5t11 72.5v38q0 55 -11 72.5t-48 17.5t-47.5 -17t-10.5 -73v-38q0 -56 10.5 -73t47.5 -17zM1120 -9q-102 0 -140.5 43t-38.5 137v50q0 94 38.5 137t140.5 43t141.5 -43t39.5 -137v-50q0 -94 -39.5 -137t-141.5 -43zM195 375q37 0 48 17.5t11 72.5v38
q0 55 -11 72.5t-48 17.5t-47.5 -17t-10.5 -73v-38q0 -56 10.5 -73t47.5 -17zM195 279q-102 0 -140.5 43t-38.5 137v50q0 94 38.5 137t140.5 43t141.5 -43t39.5 -137v-50q0 -94 -39.5 -137t-141.5 -43z" />
    <glyph glyph-name="guilsinglleft" unicode="&#x2039;" horiz-adv-x="335" 
d="M33 182v159l264 159v-149l-155 -90l155 -90v-149z" />
    <glyph glyph-name="guilsinglright" unicode="&#x203a;" horiz-adv-x="335" 
d="M302 341v-159l-264 -160v149l154 90l-154 90v149z" />
    <glyph glyph-name="fraction" unicode="&#x2044;" horiz-adv-x="144" 
d="M-201 0l409 680h136l-409 -680h-136z" />
    <glyph glyph-name="uni2070" unicode="&#x2070;" 
d="M194 375q37 0 48 17.5t11 72.5v38q0 55 -11 72.5t-48 17.5t-47.5 -17t-10.5 -73v-38q0 -56 10.5 -73t47.5 -17zM194 279q-102 0 -140.5 43t-38.5 137v50q0 94 38.5 137t140.5 43t141.5 -43t39.5 -137v-50q0 -94 -39.5 -137t-141.5 -43z" />
    <glyph glyph-name="uni2074" unicode="&#x2074;" 
d="M265 680l-128 -233h81v87l108 15v-102h49l-17 -88h-31v-71h-109v71h-193v85l125 236h115z" />
    <glyph glyph-name="uni2075" unicode="&#x2075;" 
d="M187 449h-136v231h281l-16 -88h-161v-56h57q75 0 106 -26t31 -91v-17q0 -61 -35.5 -88t-113.5 -27q-71 0 -161 2l17 89q39 -1 131 -1q26 0 35 7t9 25v8q0 18 -9 25t-35 7z" />
    <glyph glyph-name="uni2076" unicode="&#x2076;" 
d="M331 679l-16 -88q-25 2 -86 2q-49 0 -66.5 -12t-17.5 -47v-9q33 19 81 19q68 0 102.5 -30t34.5 -95v-11q0 -66 -40 -97.5t-126 -31.5t-126.5 36t-40.5 118v83q0 86 44 125.5t142 39.5q85 0 115 -2zM198 464q-30 0 -42.5 -10.5t-12.5 -36.5v-7q0 -26 12 -36.5t42 -10.5
q31 0 43.5 10.5t12.5 36.5v7q0 26 -12.5 36.5t-42.5 10.5z" />
    <glyph glyph-name="uni2077" unicode="&#x2077;" 
d="M215 288h-128l136 295h-188l18 97h296v-83z" />
    <glyph glyph-name="uni2078" unicode="&#x2078;" 
d="M195 279q-88 0 -129 29.5t-41 89.5v5q0 68 62 91q-51 22 -51 82v6q0 107 159 107t159 -107v-6q0 -60 -51 -82q62 -23 62 -91v-5q0 -60 -41 -89.5t-129 -29.5zM195 358q30 0 42.5 10.5t12.5 34.5v8q0 24 -12.5 34t-42.5 10t-42.5 -10t-12.5 -34v-8q0 -24 12.5 -34.5
t42.5 -10.5zM195 527q29 0 39.5 8.5t10.5 31.5v5q0 23 -10.5 32t-39.5 9t-39.5 -9t-10.5 -32v-5q0 -23 10.5 -31.5t39.5 -8.5z" />
    <glyph glyph-name="uni2079" unicode="&#x2079;" 
d="M58 289l16 88q23 -2 87 -2q49 0 66 11.5t17 46.5v8q-28 -18 -81 -18q-68 0 -102.5 29.5t-34.5 95.5v12q0 66 41 97.5t125 31.5q86 0 126.5 -36t40.5 -118v-84q0 -85 -44 -124.5t-142 -39.5q-61 0 -115 2zM192 503q30 0 42.5 10.5t12.5 37.5v6q0 27 -12.5 37.5t-42.5 10.5
q-31 0 -43 -10.5t-12 -37.5v-6q0 -27 12 -37.5t43 -10.5z" />
    <glyph glyph-name="uni2080" unicode="&#x2080;" 
d="M194 87q37 0 48 17.5t11 72.5v38q0 55 -11 72.5t-48 17.5t-47.5 -17t-10.5 -73v-38q0 -56 10.5 -73t47.5 -17zM194 -9q-102 0 -140.5 43t-38.5 137v50q0 94 38.5 137t140.5 43t141.5 -43t39.5 -137v-50q0 -94 -39.5 -137t-141.5 -43z" />
    <glyph glyph-name="uni2081" unicode="&#x2081;" 
d="M268 97h86l-16 -97h-284l17 97h74v200h-87l18 95h192v-295z" />
    <glyph glyph-name="uni2082" unicode="&#x2082;" 
d="M258 166l-56 -18q-25 -8 -32.5 -17t-7.5 -33v-7h185l-16 -91h-287v77q0 61 21.5 95t75.5 51l53 16q22 7 28.5 13.5t6.5 21.5q0 18 -8 24t-34 6q-104 0 -133 -2l15 89q78 2 125 2q79 0 115 -25.5t36 -82.5v-13q0 -43 -19 -67t-68 -39z" />
    <glyph glyph-name="uni2083" unicode="&#x2083;" 
d="M341 292v-6q0 -60 -48 -80q58 -19 58 -87v-8q0 -56 -35.5 -84t-117.5 -28q-18 0 -84.5 0.5t-74.5 0.5l16 90q66 -2 133 -2q24 0 33 6.5t9 24.5v5q0 18 -9 25t-33 7h-115l14 85h93q26 0 35.5 6.5t9.5 23.5v5q0 17 -9 22t-36 5q-92 0 -129 -1l16 89q82 2 136 2
q72 0 105 -25t33 -76z" />
    <glyph glyph-name="uni2084" unicode="&#x2084;" 
d="M265 392l-128 -233h81v87l108 15v-102h49l-17 -88h-31v-71h-109v71h-193v85l125 236h115z" />
    <glyph glyph-name="uni2085" unicode="&#x2085;" 
d="M187 161h-136v231h281l-16 -88h-161v-56h57q75 0 106 -26t31 -91v-17q0 -61 -35.5 -88t-113.5 -27q-71 0 -161 2l17 89q39 -1 131 -1q26 0 35 7t9 25v8q0 18 -9 25t-35 7z" />
    <glyph glyph-name="uni2086" unicode="&#x2086;" 
d="M331 391l-16 -88q-25 2 -86 2q-49 0 -66.5 -12t-17.5 -47v-9q33 19 81 19q68 0 102.5 -30t34.5 -95v-11q0 -66 -40 -97.5t-126 -31.5t-126.5 36t-40.5 118v83q0 86 44 125.5t142 39.5q85 0 115 -2zM198 176q-30 0 -42.5 -10.5t-12.5 -36.5v-7q0 -26 12 -36.5t42 -10.5
q31 0 43.5 10.5t12.5 36.5v7q0 26 -12.5 36.5t-42.5 10.5z" />
    <glyph glyph-name="uni2087" unicode="&#x2087;" 
d="M215 0h-128l136 295h-188l18 97h296v-83z" />
    <glyph glyph-name="uni2088" unicode="&#x2088;" 
d="M195 -9q-88 0 -129 29.5t-41 89.5v5q0 68 62 91q-51 23 -51 82v6q0 107 159 107t159 -107v-6q0 -59 -51 -82q62 -23 62 -91v-5q0 -60 -41 -89.5t-129 -29.5zM195 70q30 0 42.5 10.5t12.5 34.5v8q0 24 -12.5 34t-42.5 10t-42.5 -10t-12.5 -34v-8q0 -24 12.5 -34.5
t42.5 -10.5zM195 239q29 0 39.5 8.5t10.5 31.5v5q0 23 -10.5 32t-39.5 9t-39.5 -9t-10.5 -32v-5q0 -23 10.5 -31.5t39.5 -8.5z" />
    <glyph glyph-name="uni2089" unicode="&#x2089;" 
d="M58 1l16 88q23 -2 87 -2q49 0 66 11.5t17 46.5v8q-28 -18 -81 -18q-68 0 -102.5 29.5t-34.5 95.5v12q0 66 41 97.5t125 31.5q86 0 126.5 -36t40.5 -118v-84q0 -85 -44 -124.5t-142 -39.5q-61 0 -115 2zM192 215q30 0 42.5 10.5t12.5 37.5v6q0 27 -12.5 37.5t-42.5 10.5
q-31 0 -43 -10.5t-12 -37.5v-6q0 -27 12 -37.5t43 -10.5z" />
    <glyph glyph-name="Euro" unicode="&#x20ac;" horiz-adv-x="595" 
d="M498 306l-17 -101h-217q9 -47 39.5 -63.5t98.5 -16.5q107 0 158 2l-25 -127q-32 -2 -135 -2q-144 0 -211 48.5t-81 158.5h-77l17 101h58v65h-74l17 101h60q15 106 81 158t206 52q9 0 159 -2l-24 -127q-47 2 -135 2q-67 0 -95.5 -17t-36.5 -66h234l-17 -101h-224v-65h241z
" />
    <glyph glyph-name="uni20B9" unicode="&#x20b9;" horiz-adv-x="595" 
d="M203 565h-149v115h488l-21 -115h-87q15 -22 23 -56h85l-21 -115h-64q-12 -86 -61.5 -127.5t-139.5 -48.5l252 -218h-202l-252 221v117h149q54 0 74 10.5t26 45.5h-249v115h249q-5 35 -25.5 45.5t-74.5 10.5z" />
    <glyph glyph-name="uni20BA" unicode="&#x20ba;" horiz-adv-x="595" 
d="M48 333v108l65 29v210h149v-144l153 69v-108l-153 -69v-65l153 69v-108l-153 -69v-125h44q71 0 96.5 23t25.5 89v16l138 23v-37q0 -132 -57.5 -188t-202.5 -56h-193v189l-65 -29v108l65 29v65z" />
    <glyph glyph-name="afii61289" unicode="&#x2113;" horiz-adv-x="502" 
d="M110 147l-49 -39l-61 95l101 74v236q0 211 185 211q82 0 128.5 -44t46.5 -127t-52.5 -158t-170.5 -162v-34q0 -51 19 -72.5t68 -21.5q50 0 106 24l33 -97q-79 -46 -173 -46q-144 0 -181 161zM238 525v-153q49 47 69.5 86.5t20.5 83.5q0 66 -44 66q-24 0 -35 -18.5
t-11 -64.5z" />
    <glyph glyph-name="trademark" unicode="&#x2122;" horiz-adv-x="891" 
d="M421 712h134l82 -161l80 161h131v-372h-113v211l-66 -128h-70l-66 128v-211h-112v372zM24 712h356l-20 -103h-108v-269h-120v269h-127z" />
    <glyph glyph-name="uni2126" unicode="&#x2126;" horiz-adv-x="739" 
d="M44 366v40q0 172 73 248.5t252 76.5q178 0 251.5 -76.5t73.5 -248.5v-40q0 -147 -86 -238h107l-25 -128h-266v115q51 40 75 86.5t24 136.5v63q0 116 -30.5 154t-123.5 38t-123.5 -38t-30.5 -154v-63q0 -90 24 -137.5t75 -85.5v-115h-290l24 128h81q-85 92 -85 238z" />
    <glyph glyph-name="estimated" unicode="&#x212e;" horiz-adv-x="785" 
d="M389 656q-143 0 -212 -69v-211h431v211q-82 69 -219 69zM669 164l22 -15q-56 -87 -126 -123t-172 -36q-161 0 -255 99.5t-94 250.5t92.5 248t252.5 97q162 0 256 -94.5t96 -250.5h-564v-245q78 -78 217 -78q95 0 160.5 34t114.5 113z" />
    <glyph glyph-name="uni2150" unicode="&#x2150;" horiz-adv-x="924" 
d="M189 0l409 680h136l-409 -680h-136zM749 0h-128l136 295h-188l18 97h296v-83zM268 385h86l-16 -97h-284l17 97h74v200h-87l18 95h192v-295z" />
    <glyph glyph-name="uni2151" unicode="&#x2151;" horiz-adv-x="924" 
d="M197 0l409 680h136l-409 -680h-136zM592 1l16 88q23 -2 87 -2q49 0 66 11.5t17 46.5v8q-28 -18 -81 -18q-68 0 -102.5 29.5t-34.5 95.5v12q0 66 41 97.5t125 31.5q86 0 126.5 -36t40.5 -118v-84q0 -85 -44 -124.5t-142 -39.5q-61 0 -115 2zM726 215q30 0 42.5 10.5
t12.5 37.5v6q0 27 -12.5 37.5t-42.5 10.5q-31 0 -43 -10.5t-12 -37.5v-6q0 -27 12 -37.5t43 -10.5zM268 385h86l-16 -97h-284l17 97h74v200h-87l18 95h192v-295z" />
    <glyph glyph-name="onethird" unicode="&#x2153;" horiz-adv-x="924" 
d="M191 0l409 680h136l-409 -680h-136zM875 292v-6q0 -60 -48 -80q58 -19 58 -87v-8q0 -56 -35.5 -84t-117.5 -28q-18 0 -84.5 0.5t-74.5 0.5l16 90q66 -2 133 -2q24 0 33 6.5t9 24.5v5q0 18 -9 25t-33 7h-115l14 85h93q26 0 35.5 6.5t9.5 23.5v5q0 17 -9 22t-36 5
q-92 0 -129 -1l16 89q82 2 136 2q72 0 105 -25t33 -76zM268 385h86l-16 -97h-284l17 97h74v200h-87l18 95h192v-295z" />
    <glyph glyph-name="twothirds" unicode="&#x2154;" horiz-adv-x="924" 
d="M191 0l409 680h136l-409 -680h-136zM875 292v-6q0 -60 -48 -80q58 -19 58 -87v-8q0 -56 -35.5 -84t-117.5 -28q-18 0 -84.5 0.5t-74.5 0.5l16 90q66 -2 133 -2q24 0 33 6.5t9 24.5v5q0 18 -9 25t-33 7h-115l14 85h93q26 0 35.5 6.5t9.5 23.5v5q0 17 -9 22t-36 5
q-92 0 -129 -1l16 89q82 2 136 2q72 0 105 -25t33 -76zM258 454l-56 -18q-25 -8 -32.5 -17t-7.5 -33v-7h185l-16 -91h-287v77q0 61 21.5 95t75.5 51l53 16q22 7 28.5 13.5t6.5 21.5q0 18 -8 24t-34 6q-104 0 -133 -2l15 89q78 2 125 2q79 0 115 -25.5t36 -82.5v-13
q0 -43 -19 -67t-68 -39z" />
    <glyph glyph-name="uni2155" unicode="&#x2155;" horiz-adv-x="924" 
d="M188 0l409 680h136l-409 -680h-136zM721 161h-136v231h281l-16 -88h-161v-56h57q75 0 106 -26t31 -91v-17q0 -61 -35.5 -88t-113.5 -27q-71 0 -161 2l17 89q39 -1 131 -1q26 0 35 7t9 25v8q0 18 -9 25t-35 7zM268 385h86l-16 -97h-284l17 97h74v200h-87l18 95h192v-295z
" />
    <glyph glyph-name="uni2156" unicode="&#x2156;" horiz-adv-x="924" 
d="M185 0l409 680h136l-409 -680h-136zM721 161h-136v231h281l-16 -88h-161v-56h57q75 0 106 -26t31 -91v-17q0 -61 -35.5 -88t-113.5 -27q-71 0 -161 2l17 89q39 -1 131 -1q26 0 35 7t9 25v8q0 18 -9 25t-35 7zM258 454l-56 -18q-25 -8 -32.5 -17t-7.5 -33v-7h185l-16 -91
h-287v77q0 61 21.5 95t75.5 51l53 16q22 7 28.5 13.5t6.5 21.5q0 18 -8 24t-34 6q-104 0 -133 -2l15 89q78 2 125 2q79 0 115 -25.5t36 -82.5v-13q0 -43 -19 -67t-68 -39z" />
    <glyph glyph-name="uni2157" unicode="&#x2157;" horiz-adv-x="924" 
d="M176 0l409 680h136l-409 -680h-136zM721 161h-136v231h281l-16 -88h-161v-56h57q75 0 106 -26t31 -91v-17q0 -61 -35.5 -88t-113.5 -27q-71 0 -161 2l17 89q39 -1 131 -1q26 0 35 7t9 25v8q0 18 -9 25t-35 7zM341 580v-6q0 -60 -48 -80q58 -19 58 -87v-8q0 -56 -35.5 -84
t-117.5 -28q-18 0 -84.5 0.5t-74.5 0.5l16 90q66 -2 133 -2q24 0 33 6.5t9 24.5v5q0 18 -9 25t-33 7h-115l14 85h93q26 0 35.5 6.5t9.5 23.5v5q0 17 -9 22t-36 5q-92 0 -129 -1l16 89q82 2 136 2q72 0 105 -25t33 -76z" />
    <glyph glyph-name="uni2158" unicode="&#x2158;" horiz-adv-x="924" 
d="M186 0l409 680h136l-409 -680h-136zM721 161h-136v231h281l-16 -88h-161v-56h57q75 0 106 -26t31 -91v-17q0 -61 -35.5 -88t-113.5 -27q-71 0 -161 2l17 89q39 -1 131 -1q26 0 35 7t9 25v8q0 18 -9 25t-35 7zM265 680l-128 -233h81v87l108 15v-102h49l-17 -88h-31v-71
h-109v71h-193v85l125 236h115z" />
    <glyph glyph-name="uni2159" unicode="&#x2159;" horiz-adv-x="924" 
d="M203 0l409 680h136l-409 -680h-136zM865 391l-16 -88q-25 2 -86 2q-49 0 -66.5 -12t-17.5 -47v-9q33 19 81 19q68 0 102.5 -30t34.5 -95v-11q0 -66 -40 -97.5t-126 -31.5t-126.5 36t-40.5 118v83q0 86 44 125.5t142 39.5q85 0 115 -2zM732 176q-30 0 -42.5 -10.5
t-12.5 -36.5v-7q0 -26 12 -36.5t42 -10.5q31 0 43.5 10.5t12.5 36.5v7q0 26 -12.5 36.5t-42.5 10.5zM268 385h86l-16 -97h-284l17 97h74v200h-87l18 95h192v-295z" />
    <glyph glyph-name="uni215A" unicode="&#x215a;" horiz-adv-x="924" 
d="M191 0l409 680h136l-409 -680h-136zM865 391l-16 -88q-25 2 -86 2q-49 0 -66.5 -12t-17.5 -47v-9q33 19 81 19q68 0 102.5 -30t34.5 -95v-11q0 -66 -40 -97.5t-126 -31.5t-126.5 36t-40.5 118v83q0 86 44 125.5t142 39.5q85 0 115 -2zM732 176q-30 0 -42.5 -10.5
t-12.5 -36.5v-7q0 -26 12 -36.5t42 -10.5q31 0 43.5 10.5t12.5 36.5v7q0 26 -12.5 36.5t-42.5 10.5zM187 449h-136v231h281l-16 -88h-161v-56h57q75 0 106 -26t31 -91v-17q0 -61 -35.5 -88t-113.5 -27q-71 0 -161 2l17 89q39 -1 131 -1q26 0 35 7t9 25v8q0 18 -9 25t-35 7z
" />
    <glyph glyph-name="oneeighth" unicode="&#x215b;" horiz-adv-x="924" 
d="M198 0l409 680h136l-409 -680h-136zM729 -9q-88 0 -129 29.5t-41 89.5v5q0 68 62 91q-51 23 -51 82v6q0 107 159 107t159 -107v-6q0 -59 -51 -82q62 -23 62 -91v-5q0 -60 -41 -89.5t-129 -29.5zM729 70q30 0 42.5 10.5t12.5 34.5v8q0 24 -12.5 34t-42.5 10t-42.5 -10
t-12.5 -34v-8q0 -24 12.5 -34.5t42.5 -10.5zM729 239q29 0 39.5 8.5t10.5 31.5v5q0 23 -10.5 32t-39.5 9t-39.5 -9t-10.5 -32v-5q0 -23 10.5 -31.5t39.5 -8.5zM268 385h86l-16 -97h-284l17 97h74v200h-87l18 95h192v-295z" />
    <glyph glyph-name="threeeighths" unicode="&#x215c;" horiz-adv-x="924" 
d="M185 0l409 680h136l-409 -680h-136zM729 -9q-88 0 -129 29.5t-41 89.5v5q0 68 62 91q-51 23 -51 82v6q0 107 159 107t159 -107v-6q0 -59 -51 -82q62 -23 62 -91v-5q0 -60 -41 -89.5t-129 -29.5zM729 70q30 0 42.5 10.5t12.5 34.5v8q0 24 -12.5 34t-42.5 10t-42.5 -10
t-12.5 -34v-8q0 -24 12.5 -34.5t42.5 -10.5zM729 239q29 0 39.5 8.5t10.5 31.5v5q0 23 -10.5 32t-39.5 9t-39.5 -9t-10.5 -32v-5q0 -23 10.5 -31.5t39.5 -8.5zM341 580v-6q0 -60 -48 -80q58 -19 58 -87v-8q0 -56 -35.5 -84t-117.5 -28q-18 0 -84.5 0.5t-74.5 0.5l16 90
q66 -2 133 -2q24 0 33 6.5t9 24.5v5q0 18 -9 25t-33 7h-115l14 85h93q26 0 35.5 6.5t9.5 23.5v5q0 17 -9 22t-36 5q-92 0 -129 -1l16 89q82 2 136 2q72 0 105 -25t33 -76z" />
    <glyph glyph-name="fiveeighths" unicode="&#x215d;" horiz-adv-x="924" 
d="M189 0l409 680h136l-409 -680h-136zM729 -9q-88 0 -129 29.5t-41 89.5v5q0 68 62 91q-51 23 -51 82v6q0 107 159 107t159 -107v-6q0 -59 -51 -82q62 -23 62 -91v-5q0 -60 -41 -89.5t-129 -29.5zM729 70q30 0 42.5 10.5t12.5 34.5v8q0 24 -12.5 34t-42.5 10t-42.5 -10
t-12.5 -34v-8q0 -24 12.5 -34.5t42.5 -10.5zM729 239q29 0 39.5 8.5t10.5 31.5v5q0 23 -10.5 32t-39.5 9t-39.5 -9t-10.5 -32v-5q0 -23 10.5 -31.5t39.5 -8.5zM187 449h-136v231h281l-16 -88h-161v-56h57q75 0 106 -26t31 -91v-17q0 -61 -35.5 -88t-113.5 -27q-71 0 -161 2
l17 89q39 -1 131 -1q26 0 35 7t9 25v8q0 18 -9 25t-35 7z" />
    <glyph glyph-name="seveneighths" unicode="&#x215e;" horiz-adv-x="924" 
d="M151 0l409 680h136l-409 -680h-136zM729 -9q-88 0 -129 29.5t-41 89.5v5q0 68 62 91q-51 23 -51 82v6q0 107 159 107t159 -107v-6q0 -59 -51 -82q62 -23 62 -91v-5q0 -60 -41 -89.5t-129 -29.5zM729 70q30 0 42.5 10.5t12.5 34.5v8q0 24 -12.5 34t-42.5 10t-42.5 -10
t-12.5 -34v-8q0 -24 12.5 -34.5t42.5 -10.5zM729 239q29 0 39.5 8.5t10.5 31.5v5q0 23 -10.5 32t-39.5 9t-39.5 -9t-10.5 -32v-5q0 -23 10.5 -31.5t39.5 -8.5zM215 288h-128l136 295h-188l18 97h296v-83z" />
    <glyph glyph-name="partialdiff" unicode="&#x2202;" horiz-adv-x="626" 
d="M274 466q104 0 149 -53q9 47 9 79q0 70 -38.5 96t-133.5 26q-74 0 -138 -3l30 121q65 4 135 4q161 0 229.5 -59t68.5 -196q0 -60 -10 -127q-28 -209 -90.5 -289.5t-205.5 -80.5q-251 0 -251 200q0 27 4 52q17 124 77 177t165 53zM188 216q-3 -15 -3 -29q0 -81 96 -81
q51 0 76.5 28t37.5 105q3 17 3 30q0 80 -97 80q-52 0 -76.5 -28t-36.5 -105z" />
    <glyph glyph-name="uni2206" unicode="&#x2206;" horiz-adv-x="696" 
d="M686 0h-676l240 712h197zM346 566l-137 -435h273z" />
    <glyph glyph-name="product" unicode="&#x220f;" horiz-adv-x="747" 
d="M653 591v-679h-158v679h-244v-679h-157v679h-84l23 121h704l-23 -121h-61z" />
    <glyph glyph-name="summation" unicode="&#x2211;" horiz-adv-x="578" 
d="M409 331l-209 -298h361l-25 -131h-521v110l217 309l-203 281v110h528l-25 -131h-304z" />
    <glyph glyph-name="minus" unicode="&#x2212;" horiz-adv-x="595" 
d="M529 276h-463v130h463v-130z" />
    <glyph glyph-name="uni2215" unicode="&#x2215;" horiz-adv-x="144" 
d="M-201 0l409 680h136l-409 -680h-136z" />
    <glyph glyph-name="uni2219" unicode="&#x2219;" horiz-adv-x="223" 
d="M201 370q0 -43 -21 -64t-68 -21t-68.5 21t-21.5 64t21.5 64t68.5 21t68 -21t21 -64z" />
    <glyph glyph-name="radical" unicode="&#x221a;" horiz-adv-x="666" 
d="M117 363l-107 -55v134l201 104l126 -372l206 705h153l-276 -884h-162z" />
    <glyph glyph-name="infinity" unicode="&#x221e;" horiz-adv-x="747" 
d="M159 350v-7q0 -74 60 -74q29 0 49.5 16.5t44.5 60.5q-24 45 -44 61.5t-50 16.5q-60 0 -60 -74zM374 231q-57 -86 -167 -86q-86 0 -132.5 50.5t-46.5 141.5v16q0 91 46.5 143t132.5 52q111 0 166 -86q57 86 168 86q86 0 132 -50.5t46 -141.5v-17q0 -91 -46.5 -142.5
t-132.5 -51.5q-112 0 -166 86zM588 343v7q0 74 -60 74q-29 0 -49.5 -17t-44.5 -60q24 -45 44 -61.5t50 -16.5q60 0 60 74z" />
    <glyph glyph-name="integral" unicode="&#x222b;" horiz-adv-x="377" 
d="M9 -191l21 123q25 -2 71 -2q36 0 50.5 12t14.5 44q0 29 -8 74l-94 528q-13 76 -13 123q0 169 196 169q16 0 53 -1t69 -2l-21 -123q-58 2 -75 2q-36 0 -49.5 -12t-13.5 -45q0 -26 8 -71l93 -529q13 -71 13 -124q0 -169 -191 -169q-85 0 -124 3z" />
    <glyph glyph-name="approxequal" unicode="&#x2248;" horiz-adv-x="595" 
d="M175 363h-126v21q0 187 129 187q12 0 24 -2t19.5 -3.5t21 -7t18 -7.5t20.5 -10l20 -10l16 -8q52 -25 69 -25q33 0 33 47v15h126v-21q0 -187 -129 -187q-12 0 -24 2t-19.5 3.5t-21 7t-18 7.5t-20.5 10l-20 10l-16 8q-52 25 -69 25q-33 0 -33 -47v-15zM175 107h-126v21
q0 187 129 187q12 0 24 -2t19.5 -3.5t21 -7t18 -7.5t20.5 -10l20 -10l16 -8q52 -25 69 -25q33 0 33 47v15h126v-21q0 -187 -129 -187q-12 0 -24 2t-19.5 3.5t-21 7t-18 7.5t-20.5 10l-20 10l-16 8q-52 25 -69 25q-33 0 -33 -47v-15z" />
    <glyph glyph-name="notequal" unicode="&#x2260;" horiz-adv-x="595" 
d="M529 386h-159l-43 -86h202v-130h-267l-46 -93h-108l46 93h-88v130h153l43 86h-196v130h260l51 101h108l-51 -101h95v-130z" />
    <glyph glyph-name="lessequal" unicode="&#x2264;" horiz-adv-x="595" 
d="M529 1h-463v130h463v-130zM66 335v136l463 178v-134l-315 -112l315 -112v-134z" />
    <glyph glyph-name="greaterequal" unicode="&#x2265;" horiz-adv-x="595" 
d="M529 1h-463v130h463v-130zM529 471v-136l-463 -178v134l315 112l-315 112v134z" />
    <glyph glyph-name="lozenge" unicode="&#x25ca;" horiz-adv-x="632" 
d="M624 356l-239 -356h-138l-240 356l240 356h138zM176 355l140 -211l140 212l-140 211z" />
    <glyph glyph-name="uniF001" unicode="&#xf001;" horiz-adv-x="600" 
d="M325 745q24 0 85.5 -1t84.5 -1l-24 -125q-82 2 -146 2q-66 0 -91 -20t-27 -77h144l-24 -125h-120v-398h-159v491q0 140 60.5 197t216.5 57zM393 523h159v-523h-159v523z" />
    <glyph glyph-name="uniF002" unicode="&#xf002;" horiz-adv-x="621" 
d="M305 745q29 0 67 -2l-24 -124q-17 1 -40 1q-57 0 -79 -21.5t-22 -75.5h138l-24 -125h-114v-398h-159v502q0 135 57 189t200 54zM414 0v743h159v-743h-159z" />
    <glyph glyph-name="uniF507" unicode="&#xf507;" horiz-adv-x="924" 
d="M187 0l409 680h136l-409 -680h-136zM749 0h-128l136 295h-188l18 97h296v-83zM258 454l-56 -18q-25 -8 -32.5 -17t-7.5 -33v-7h185l-16 -91h-287v77q0 61 21.5 95t75.5 51l53 16q22 7 28.5 13.5t6.5 21.5q0 18 -8 24t-34 6q-104 0 -133 -2l15 89q78 2 125 2
q79 0 115 -25.5t36 -82.5v-13q0 -43 -19 -67t-68 -39z" />
    <glyph glyph-name="uniF508" unicode="&#xf508;" horiz-adv-x="924" 
d="M177 0l409 680h136l-409 -680h-136zM749 0h-128l136 295h-188l18 97h296v-83zM341 580v-6q0 -60 -48 -80q58 -19 58 -87v-8q0 -56 -35.5 -84t-117.5 -28q-18 0 -84.5 0.5t-74.5 0.5l16 90q66 -2 133 -2q24 0 33 6.5t9 24.5v5q0 18 -9 25t-33 7h-115l14 85h93
q26 0 35.5 6.5t9.5 23.5v5q0 17 -9 22t-36 5q-92 0 -129 -1l16 89q82 2 136 2q72 0 105 -25t33 -76z" />
    <glyph glyph-name="uniF509" unicode="&#xf509;" horiz-adv-x="924" 
d="M185 0l409 680h136l-409 -680h-136zM749 0h-128l136 295h-188l18 97h296v-83zM265 680l-128 -233h81v87l108 15v-102h49l-17 -88h-31v-71h-109v71h-193v85l125 236h115z" />
    <glyph glyph-name="uniF50A" unicode="&#xf50a;" horiz-adv-x="924" 
d="M176 0l409 680h136l-409 -680h-136zM749 0h-128l136 295h-188l18 97h296v-83zM187 449h-136v231h281l-16 -88h-161v-56h57q75 0 106 -26t31 -91v-17q0 -61 -35.5 -88t-113.5 -27q-71 0 -161 2l17 89q39 -1 131 -1q26 0 35 7t9 25v8q0 18 -9 25t-35 7z" />
    <glyph glyph-name="uniF50B" unicode="&#xf50b;" horiz-adv-x="924" 
d="M185 0l409 680h136l-409 -680h-136zM749 0h-128l136 295h-188l18 97h296v-83zM331 679l-16 -88q-25 2 -86 2q-49 0 -66.5 -12t-17.5 -47v-9q33 19 81 19q68 0 102.5 -30t34.5 -95v-11q0 -66 -40 -97.5t-126 -31.5t-126.5 36t-40.5 118v83q0 86 44 125.5t142 39.5
q85 0 115 -2zM198 464q-30 0 -42.5 -10.5t-12.5 -36.5v-7q0 -26 12 -36.5t42 -10.5q31 0 43.5 10.5t12.5 36.5v7q0 26 -12.5 36.5t-42.5 10.5z" />
    <glyph glyph-name="uniF50D" unicode="&#xf50d;" horiz-adv-x="924" 
d="M196 0l409 680h136l-409 -680h-136zM592 1l16 88q23 -2 87 -2q49 0 66 11.5t17 46.5v8q-28 -18 -81 -18q-68 0 -102.5 29.5t-34.5 95.5v12q0 66 41 97.5t125 31.5q86 0 126.5 -36t40.5 -118v-84q0 -85 -44 -124.5t-142 -39.5q-61 0 -115 2zM726 215q30 0 42.5 10.5
t12.5 37.5v6q0 27 -12.5 37.5t-42.5 10.5q-31 0 -43 -10.5t-12 -37.5v-6q0 -27 12 -37.5t43 -10.5zM258 454l-56 -18q-25 -8 -32.5 -17t-7.5 -33v-7h185l-16 -91h-287v77q0 61 21.5 95t75.5 51l53 16q22 7 28.5 13.5t6.5 21.5q0 18 -8 24t-34 6q-104 0 -133 -2l15 89
q78 2 125 2q79 0 115 -25.5t36 -82.5v-13q0 -43 -19 -67t-68 -39z" />
    <glyph glyph-name="uniF50E" unicode="&#xf50e;" horiz-adv-x="924" 
d="M195 0l409 680h136l-409 -680h-136zM592 1l16 88q23 -2 87 -2q49 0 66 11.5t17 46.5v8q-28 -18 -81 -18q-68 0 -102.5 29.5t-34.5 95.5v12q0 66 41 97.5t125 31.5q86 0 126.5 -36t40.5 -118v-84q0 -85 -44 -124.5t-142 -39.5q-61 0 -115 2zM726 215q30 0 42.5 10.5
t12.5 37.5v6q0 27 -12.5 37.5t-42.5 10.5q-31 0 -43 -10.5t-12 -37.5v-6q0 -27 12 -37.5t43 -10.5zM265 680l-128 -233h81v87l108 15v-102h49l-17 -88h-31v-71h-109v71h-193v85l125 236h115z" />
    <glyph glyph-name="uniF50F" unicode="&#xf50f;" horiz-adv-x="924" 
d="M184 0l409 680h136l-409 -680h-136zM592 1l16 88q23 -2 87 -2q49 0 66 11.5t17 46.5v8q-28 -18 -81 -18q-68 0 -102.5 29.5t-34.5 95.5v12q0 66 41 97.5t125 31.5q86 0 126.5 -36t40.5 -118v-84q0 -85 -44 -124.5t-142 -39.5q-61 0 -115 2zM726 215q30 0 42.5 10.5
t12.5 37.5v6q0 27 -12.5 37.5t-42.5 10.5q-31 0 -43 -10.5t-12 -37.5v-6q0 -27 12 -37.5t43 -10.5zM187 449h-136v231h281l-16 -88h-161v-56h57q75 0 106 -26t31 -91v-17q0 -61 -35.5 -88t-113.5 -27q-71 0 -161 2l17 89q39 -1 131 -1q26 0 35 7t9 25v8q0 18 -9 25t-35 7z
" />
    <glyph glyph-name="uniF510" unicode="&#xf510;" horiz-adv-x="924" 
d="M149 0l409 680h136l-409 -680h-136zM592 1l16 88q23 -2 87 -2q49 0 66 11.5t17 46.5v8q-28 -18 -81 -18q-68 0 -102.5 29.5t-34.5 95.5v12q0 66 41 97.5t125 31.5q86 0 126.5 -36t40.5 -118v-84q0 -85 -44 -124.5t-142 -39.5q-61 0 -115 2zM726 215q30 0 42.5 10.5
t12.5 37.5v6q0 27 -12.5 37.5t-42.5 10.5q-31 0 -43 -10.5t-12 -37.5v-6q0 -27 12 -37.5t43 -10.5zM215 288h-128l136 295h-188l18 97h296v-83z" />
    <glyph glyph-name="uniF511" unicode="&#xf511;" horiz-adv-x="924" 
d="M191 0l409 680h136l-409 -680h-136zM592 1l16 88q23 -2 87 -2q49 0 66 11.5t17 46.5v8q-28 -18 -81 -18q-68 0 -102.5 29.5t-34.5 95.5v12q0 66 41 97.5t125 31.5q86 0 126.5 -36t40.5 -118v-84q0 -85 -44 -124.5t-142 -39.5q-61 0 -115 2zM726 215q30 0 42.5 10.5
t12.5 37.5v6q0 27 -12.5 37.5t-42.5 10.5q-31 0 -43 -10.5t-12 -37.5v-6q0 -27 12 -37.5t43 -10.5zM195 279q-88 0 -129 29.5t-41 89.5v5q0 68 62 91q-51 22 -51 82v6q0 107 159 107t159 -107v-6q0 -60 -51 -82q62 -23 62 -91v-5q0 -60 -41 -89.5t-129 -29.5zM195 358
q30 0 42.5 10.5t12.5 34.5v8q0 24 -12.5 34t-42.5 10t-42.5 -10t-12.5 -34v-8q0 -24 12.5 -34.5t42.5 -10.5zM195 527q29 0 39.5 8.5t10.5 31.5v5q0 23 -10.5 32t-39.5 9t-39.5 -9t-10.5 -32v-5q0 -23 10.5 -31.5t39.5 -8.5z" />
    <glyph glyph-name="uniF6C3" unicode="&#xf6c3;" horiz-adv-x="500" 
d="M172 -118q0 64 80 64q79 0 79 -64q0 -31 -20 -68l-39 -75h-102l33 88q-31 13 -31 55z" />
    <glyph glyph-name="uniF800" unicode="&#xf800;" horiz-adv-x="595" 
d="M197 397v-115q0 -106 19.5 -139t82.5 -33t82.5 33t19.5 139v115q0 107 -19.5 140t-82.5 33t-82.5 -33t-19.5 -140zM299 696q152 0 209 -69t57 -224v-126q0 -155 -57 -224t-209 -69t-209 69t-57 224v126q0 155 57 224t209 69z" />
    <glyph glyph-name="uniF801" unicode="&#xf801;" horiz-adv-x="595" 
d="M518 123l-24 -123h-390l24 123h104v434h-127l24 123h264v-557h125z" />
    <glyph glyph-name="uniF802" unicode="&#xf802;" horiz-adv-x="595" 
d="M400 301l-132 -55q-33 -14 -44.5 -34t-11.5 -63v-20h320l-23 -129h-456v119q0 102 33.5 154.5t116.5 89.5l110 48q37 15 48.5 30t11.5 47q0 37 -16.5 51.5t-59.5 14.5q-85 0 -231 -2l22 128q134 2 223 2q115 0 167.5 -44t52.5 -130v-16q0 -70 -30.5 -116t-100.5 -75z" />
    <glyph glyph-name="uniF803" unicode="&#xf803;" horiz-adv-x="595" 
d="M63 554l23 126q136 2 229 2q104 0 155.5 -44t51.5 -124v-19q0 -55 -19 -87t-62 -53q95 -36 95 -148v-22q0 -94 -60 -140.5t-187 -46.5q-189 0 -242 2l24 126q118 -2 222 -2q43 0 62 17t19 54v15q0 39 -19.5 56t-66.5 17h-189l23 123h163q76 0 76 64v16q0 36 -17.5 52.5
t-58.5 16.5q-142 0 -222 -1z" />
    <glyph glyph-name="uniF804" unicode="&#xf804;" horiz-adv-x="595" 
d="M576 249l-24 -123h-52v-126h-149v126h-319v106l228 448h156l-224 -431h159v185l149 25v-210h76z" />
    <glyph glyph-name="uniF805" unicode="&#xf805;" horiz-adv-x="595" 
d="M535 227v-22q0 -113 -59 -160t-209 -47q-92 0 -206 2l23 127q69 -3 186 -3q60 0 82 18t22 68v13q0 51 -21 67.5t-83 16.5h-190v373h428l-23 -126h-260v-125h68q134 0 188 -44.5t54 -157.5z" />
    <glyph glyph-name="uniF806" unicode="&#xf806;" horiz-adv-x="595" 
d="M206 436v-18q43 31 127 31q113 0 165 -51t52 -172v-19q0 -116 -59 -169.5t-188 -53.5q-132 0 -190.5 58t-58.5 195v156q0 74 12 125t42.5 89.5t85 56.5t135.5 18q125 0 182 -2l-24 -127q-142 2 -162 2q-70 0 -94.5 -30.5t-24.5 -88.5zM302 103q55 0 75.5 23t20.5 85v14
q0 62 -19 84.5t-71 22.5q-58 0 -80 -22t-22 -86v-14q0 -61 22 -84t74 -23z" />
    <glyph glyph-name="uniF807" unicode="&#xf807;" horiz-adv-x="595" 
d="M325 0h-168l210 549h-316l24 131h458v-112z" />
    <glyph glyph-name="uniF808" unicode="&#xf808;" horiz-adv-x="595" 
d="M296 696q127 0 184 -45.5t57 -135.5v-16q0 -97 -84 -143q99 -42 99 -156v-23q0 -99 -61 -146t-195 -47q-136 0 -196 46.5t-60 146.5v23q0 114 98 156q-84 46 -84 143v16q0 90 57 135.5t185 45.5zM296 296q-59 0 -80.5 -21t-21.5 -72v-10q0 -51 21 -71.5t81 -20.5
q59 0 80 20.5t21 71.5v10q0 51 -21 72t-80 21zM296 583q-52 0 -73.5 -18t-21.5 -60v-15q0 -46 20.5 -63.5t74.5 -17.5t74.5 17.5t20.5 63.5v15q0 43 -21 60.5t-74 17.5z" />
    <glyph glyph-name="uniF809" unicode="&#xf809;" horiz-adv-x="595" 
d="M389 244v18q-42 -31 -127 -31q-114 0 -166 51t-52 172v19q0 117 59 170t189 53q133 0 191 -58t58 -195v-156q0 -74 -12 -125t-42.5 -89.5t-85 -56.5t-135.5 -18q-36 0 -182 2l24 127q142 -2 162 -2q70 0 94.5 30.5t24.5 88.5zM293 577q-55 0 -75.5 -23t-20.5 -85v-14
q0 -62 19 -84.5t71 -22.5q58 0 80 22t22 86v14q0 60 -22 83.5t-74 23.5z" />
    <glyph glyph-name="uniF80A" unicode="&#xf80a;" 
d="M194 495q37 0 48 17.5t11 72.5v38q0 55 -11 72.5t-48 17.5t-47.5 -17t-10.5 -73v-38q0 -56 10.5 -73t47.5 -17zM194 399q-102 0 -140.5 43t-38.5 137v50q0 94 38.5 137t140.5 43t141.5 -43t39.5 -137v-50q0 -94 -39.5 -137t-141.5 -43z" />
    <glyph glyph-name="uniF80B" unicode="&#xf80b;" 
d="M268 505h86l-16 -97h-284l17 97h74v200h-87l18 95h192v-295z" />
    <glyph glyph-name="uniF80C" unicode="&#xf80c;" 
d="M258 574l-56 -18q-25 -8 -32.5 -17t-7.5 -33v-7h185l-16 -91h-287v77q0 61 21.5 95t75.5 51l53 16q22 7 28.5 13.5t6.5 21.5q0 18 -8 24t-34 6q-104 0 -133 -2l15 89q78 2 125 2q79 0 115 -25.5t36 -82.5v-13q0 -43 -19 -67t-68 -39z" />
    <glyph glyph-name="uniF80D" unicode="&#xf80d;" 
d="M341 700v-6q0 -60 -48 -80q58 -19 58 -87v-8q0 -56 -35.5 -84t-117.5 -28q-18 0 -84.5 0.5t-74.5 0.5l16 90q66 -2 133 -2q24 0 33 6.5t9 24.5v5q0 18 -9 25t-33 7h-115l14 85h93q26 0 35.5 6.5t9.5 23.5v5q0 17 -9 22t-36 5q-92 0 -129 -1l16 89q82 2 136 2
q72 0 105 -25t33 -76z" />
    <glyph glyph-name="uniF80E" unicode="&#xf80e;" 
d="M265 800l-128 -233h81v87l108 15v-102h49l-17 -88h-31v-71h-109v71h-193v85l125 236h115z" />
    <glyph glyph-name="uniF80F" unicode="&#xf80f;" 
d="M187 569h-136v231h281l-16 -88h-161v-56h57q75 0 106 -26t31 -91v-17q0 -61 -35.5 -88t-113.5 -27q-71 0 -161 2l17 89q39 -1 131 -1q26 0 35 7t9 25v8q0 18 -9 25t-35 7z" />
    <glyph glyph-name="uniF810" unicode="&#xf810;" 
d="M331 799l-16 -88q-25 2 -86 2q-49 0 -66.5 -12t-17.5 -47v-9q33 19 81 19q68 0 102.5 -30t34.5 -95v-11q0 -66 -40 -97.5t-126 -31.5t-126.5 36t-40.5 118v83q0 86 44 125.5t142 39.5q85 0 115 -2zM198 584q-30 0 -42.5 -10.5t-12.5 -36.5v-7q0 -26 12 -36.5t42 -10.5
q31 0 43.5 10.5t12.5 36.5v7q0 26 -12.5 36.5t-42.5 10.5z" />
    <glyph glyph-name="uniF811" unicode="&#xf811;" 
d="M215 408h-128l136 295h-188l18 97h296v-83z" />
    <glyph glyph-name="uniF812" unicode="&#xf812;" 
d="M195 399q-88 0 -129 29.5t-41 89.5v5q0 68 62 91q-51 22 -51 82v6q0 107 159 107t159 -107v-6q0 -60 -51 -82q62 -23 62 -91v-5q0 -60 -41 -89.5t-129 -29.5zM195 478q30 0 42.5 10.5t12.5 34.5v8q0 24 -12.5 34t-42.5 10t-42.5 -10t-12.5 -34v-8q0 -24 12.5 -34.5
t42.5 -10.5zM195 647q29 0 39.5 8.5t10.5 31.5v5q0 23 -10.5 32t-39.5 9t-39.5 -9t-10.5 -32v-5q0 -23 10.5 -31.5t39.5 -8.5z" />
    <glyph glyph-name="uniF813" unicode="&#xf813;" 
d="M58 409l16 88q23 -2 87 -2q49 0 66 11.5t17 46.5v8q-28 -18 -81 -18q-68 0 -102.5 29.5t-34.5 95.5v12q0 66 41 97.5t125 31.5q86 0 126.5 -36t40.5 -118v-84q0 -85 -44 -124.5t-142 -39.5q-61 0 -115 2zM192 623q30 0 42.5 10.5t12.5 37.5v6q0 27 -12.5 37.5t-42.5 10.5
q-31 0 -43 -10.5t-12 -37.5v-6q0 -27 12 -37.5t43 -10.5z" />
    <glyph glyph-name="uniF814" unicode="&#xf814;" 
d="M194 -32q37 0 48 17.5t11 72.5v38q0 55 -11 72.5t-48 17.5t-47.5 -17t-10.5 -73v-38q0 -56 10.5 -73t47.5 -17zM194 -128q-102 0 -140.5 43t-38.5 137v50q0 94 38.5 137t140.5 43t141.5 -43t39.5 -137v-50q0 -94 -39.5 -137t-141.5 -43z" />
    <glyph glyph-name="uniF815" unicode="&#xf815;" 
d="M268 -22h86l-16 -97h-284l17 97h74v200h-87l18 95h192v-295z" />
    <glyph glyph-name="uniF816" unicode="&#xf816;" 
d="M258 47l-56 -18q-25 -8 -32.5 -17t-7.5 -33v-7h185l-16 -91h-287v77q0 61 21.5 95t75.5 51l53 16q22 7 28.5 13.5t6.5 21.5q0 18 -8 24t-34 6q-104 0 -133 -2l15 89q78 2 125 2q79 0 115 -25.5t36 -82.5v-13q0 -43 -19 -67t-68 -39z" />
    <glyph glyph-name="uniF817" unicode="&#xf817;" 
d="M341 173v-6q0 -60 -48 -80q58 -19 58 -87v-8q0 -56 -35.5 -84t-117.5 -28q-18 0 -84.5 0.5t-74.5 0.5l16 90q66 -2 133 -2q24 0 33 6.5t9 24.5v5q0 18 -9 25t-33 7h-115l14 85h93q26 0 35.5 6.5t9.5 23.5v5q0 17 -9 22t-36 5q-92 0 -129 -1l16 89q82 2 136 2
q72 0 105 -25t33 -76z" />
    <glyph glyph-name="uniF818" unicode="&#xf818;" 
d="M265 273l-128 -233h81v87l108 15v-102h49l-17 -88h-31v-71h-109v71h-193v85l125 236h115z" />
    <glyph glyph-name="uniF819" unicode="&#xf819;" 
d="M187 42h-136v231h281l-16 -88h-161v-56h57q75 0 106 -26t31 -91v-17q0 -61 -35.5 -88t-113.5 -27q-71 0 -161 2l17 89q39 -1 131 -1q26 0 35 7t9 25v8q0 18 -9 25t-35 7z" />
    <glyph glyph-name="uniF81A" unicode="&#xf81a;" 
d="M331 272l-16 -88q-25 2 -86 2q-49 0 -66.5 -12t-17.5 -47v-9q33 19 81 19q68 0 102.5 -30t34.5 -95v-11q0 -66 -40 -97.5t-126 -31.5t-126.5 36t-40.5 118v83q0 86 44 125.5t142 39.5q85 0 115 -2zM198 57q-30 0 -42.5 -10.5t-12.5 -36.5v-7q0 -26 12 -36.5t42 -10.5
q31 0 43.5 10.5t12.5 36.5v7q0 26 -12.5 36.5t-42.5 10.5z" />
    <glyph glyph-name="uniF81B" unicode="&#xf81b;" 
d="M215 -119h-128l136 295h-188l18 97h296v-83z" />
    <glyph glyph-name="uniF81C" unicode="&#xf81c;" 
d="M195 -128q-88 0 -129 29.5t-41 89.5v5q0 68 62 91q-51 23 -51 82v6q0 107 159 107t159 -107v-6q0 -59 -51 -82q62 -23 62 -91v-5q0 -60 -41 -89.5t-129 -29.5zM195 -49q30 0 42.5 10.5t12.5 34.5v8q0 24 -12.5 34t-42.5 10t-42.5 -10t-12.5 -34v-8q0 -24 12.5 -34.5
t42.5 -10.5zM195 120q29 0 39.5 8.5t10.5 31.5v5q0 23 -10.5 32t-39.5 9t-39.5 -9t-10.5 -32v-5q0 -23 10.5 -31.5t39.5 -8.5z" />
    <glyph glyph-name="uniF81D" unicode="&#xf81d;" 
d="M58 -118l16 88q23 -2 87 -2q49 0 66 11.5t17 46.5v8q-28 -18 -81 -18q-68 0 -102.5 29.5t-34.5 95.5v12q0 66 41 97.5t125 31.5q86 0 126.5 -36t40.5 -118v-84q0 -85 -44 -124.5t-142 -39.5q-61 0 -115 2zM192 96q30 0 42.5 10.5t12.5 37.5v6q0 27 -12.5 37.5t-42.5 10.5
q-31 0 -43 -10.5t-12 -37.5v-6q0 -27 12 -37.5t43 -10.5z" />
    <glyph glyph-name="NULL" horiz-adv-x="0" 
 />
    <glyph glyph-name="CR" horiz-adv-x="333" 
 />
    <glyph glyph-name="i.locl" horiz-adv-x="255" 
d="M48 0v523h159v-523h-159zM218 667q0 -42 -19.5 -59.5t-70.5 -17.5q-52 0 -71.5 17.5t-19.5 59.5q0 40 19.5 58t71.5 18q50 0 70 -18t20 -58z" />
    <glyph glyph-name="glyph469" horiz-adv-x="500" 
d="M117 905h160l-131 -133h-134zM327 905h160l-131 -133h-134z" />
    <glyph glyph-name="glyph470" horiz-adv-x="500" 
d="M225 -105q-36 0 -59 -1l16 71q28 1 80 1q61 0 86 -20.5t25 -68.5v-7q0 -54 -27.5 -75t-98.5 -21q-73 0 -113 3l18 75q23 -1 73 -1q18 0 24.5 4.5t6.5 18.5q0 13 -6.5 17t-24.5 4z" />
    <glyph glyph-name="glyph471" horiz-adv-x="500" 
d="M249 785l-12 4q-38 17 -56 17q-13 0 -19 -6.5t-6 -26.5v-10h-96v11q0 137 98 137q39 0 93 -23l12 -5q41 -17 56 -17q13 0 19 6.5t6 26.5v11h96v-12q0 -137 -98 -137q-35 0 -93 24z" />
    <glyph glyph-name="glyph472" horiz-adv-x="500" 
d="M342 -106l-21 -107h-70q-57 0 -84 19t-27 61q0 38 29 78t82 71l92 -16q-75 -51 -75 -85q0 -12 8 -16.5t29 -4.5h37z" />
    <glyph glyph-name="glyph473" horiz-adv-x="500" 
d="M109 852q0 64 36.5 97t104.5 33q67 0 103.5 -33t36.5 -97q0 -65 -36.5 -98t-103.5 -33q-68 0 -104.5 33t-36.5 98zM301 852q0 28 -12 39.5t-39 11.5q-28 0 -40 -11.5t-12 -39.5t12 -40t40 -12q27 0 39 12t12 40z" />
    <glyph glyph-name="glyph474" horiz-adv-x="500" 
d="M188 904l62 -63l62 63h143l-123 -132h-164l-122 132h142z" />
    <glyph glyph-name="glyph475" horiz-adv-x="500" 
d="M90 783v108h320v-108h-320z" />
    <glyph glyph-name="glyph476" horiz-adv-x="500" 
d="M223 838q0 -73 -80 -73q-78 0 -78 73q0 36 18 54t60 18q80 0 80 -72zM436 838q0 -73 -79 -73t-79 73q0 72 79 72t79 -72z" />
    <glyph glyph-name="glyph477" horiz-adv-x="500" 
d="M340 842q0 -42 -19.5 -59.5t-70.5 -17.5q-52 0 -71.5 17.5t-19.5 59.5q0 40 19.5 58t71.5 18q50 0 70 -18t20 -58z" />
    <glyph glyph-name="glyph478" horiz-adv-x="500" 
d="M313 772l-62 63l-62 -63h-143l123 132h164l122 -132h-142z" />
    <glyph glyph-name="glyph479" horiz-adv-x="500" 
d="M219 905h175l-142 -133h-147z" />
    <glyph glyph-name="glyph480" horiz-adv-x="500" 
d="M106 905h175l114 -133h-147z" />
    <glyph glyph-name="glyph481" horiz-adv-x="500" 
d="M250 765q-91 0 -132.5 35.5t-41.5 113.5h116q2 -35 14.5 -49t43.5 -14t43.5 14t13.5 49h117q0 -78 -41.5 -113.5t-132.5 -35.5z" />
    <glyph glyph-name="glyph482" horiz-adv-x="500" 
d="M272 -261h-102l33 87q-31 13 -31 56q0 64 81 64q78 0 78 -63q0 -32 -20 -69z" />
    <glyph glyph-name="glyph483" horiz-adv-x="500" 
d="M191 743h132l-34 -195h-104z" />
    <glyph glyph-name="glyph485" horiz-adv-x="500" 
d="M228 797h102l-33 -86q32 -14 32 -56q0 -65 -81 -65q-79 0 -79 64q0 31 20 68z" />
    <glyph glyph-name="glyph486" horiz-adv-x="500" 
d="M222 889h177l-149 -117h-149z" />
    <glyph glyph-name="glyph487" horiz-adv-x="500" 
d="M311 772l-62 56l-61 -56h-133l122 121h146l122 -121h-134z" />
    <glyph glyph-name="glyph488" horiz-adv-x="500" 
d="M186 743h132l-31 -170h-106z" />
    <glyph glyph-name="parenleft.case" horiz-adv-x="382" 
d="M370 32l-23 -120h-27q-81 0 -131 14.5t-83 54t-46 105t-13 170.5v199q0 137 26.5 211t84 103.5t163.5 29.5h49l-23 -120h-17q-58 0 -84 -15t-37.5 -61t-11.5 -148v-199q0 -102 11.5 -148t37.5 -61t84 -15h40z" />
    <glyph glyph-name="parenright.case" horiz-adv-x="382" 
d="M12 679l23 120h27q81 0 131 -14.5t83 -54t46 -105t13 -170.5v-199q0 -137 -26.5 -211t-84 -103.5t-163.5 -29.5h-49l23 120h17q58 0 84 15t37.5 61t11.5 148v199q0 62 -3.5 100t-11 64.5t-24.5 38.5t-38 16.5t-57 4.5h-39z" />
    <glyph glyph-name="hyphen.case" horiz-adv-x="382" 
d="M342 290h-328l27 138h327z" />
    <glyph glyph-name="slash.case" horiz-adv-x="431" 
d="M259 712h160l-247 -712h-160z" />
    <glyph glyph-name="at.case" horiz-adv-x="784" 
d="M676 87l-23 -123q-72 -3 -203 -3q-231 0 -319.5 70.5t-88.5 262.5v132q0 172 87.5 244t292.5 72q172 0 245 -53.5t73 -179.5v-220q0 -56 -25 -78.5t-87 -22.5h-163q-100 0 -145 38.5t-45 117.5v23q0 81 47 118.5t142 37.5q74 0 126 -26v12q0 63 -35.5 86t-135.5 23
q-136 0 -183.5 -40t-47.5 -152v-132q0 -86 21 -129t75.5 -61.5t163.5 -18.5q180 0 228 2zM492 299h97v59q0 34 -17.5 46.5t-67.5 12.5q-47 0 -63.5 -12t-16.5 -44v-5q0 -31 15 -44t53 -13z" />
    <glyph glyph-name="bracketleft.case" horiz-adv-x="383" 
d="M58 799h313l-23 -122h-141v-643h164l-23 -122h-290v887z" />
    <glyph glyph-name="backslash.case" horiz-adv-x="431" 
d="M12 712h162l245 -712h-162z" />
    <glyph glyph-name="bracketright.case" horiz-adv-x="383" 
d="M325 -88h-313l23 122h141v643h-164l23 122h290v-887z" />
    <glyph glyph-name="braceleft.case" horiz-adv-x="419" 
d="M328 799h79l-23 -119h-48q-42 0 -58 -17t-16 -56v-142q0 -74 -68 -109q68 -35 68 -109v-143q0 -40 15.5 -56.5t58.5 -16.5h71l-23 -119h-56q-120 0 -166.5 40.5t-46.5 126.5v153q0 29 -13.5 45t-49.5 16h-22v126h22q36 0 49.5 16t13.5 45v152q0 86 46.5 126.5t166.5 40.5
z" />
    <glyph glyph-name="braceright.case" horiz-adv-x="419" 
d="M91 -88h-79l23 119h48q43 0 58.5 16.5t15.5 56.5v143q0 74 68 109q-68 35 -68 109v142q0 39 -16 56t-58 17h-71l23 119h56q120 0 166.5 -40.5t46.5 -126.5v-152q0 -29 13.5 -45t49.5 -16h22v-126h-22q-36 0 -49.5 -16t-13.5 -45v-153q0 -86 -46.5 -126.5t-166.5 -40.5z
" />
    <glyph glyph-name="guilsinglleft.case" horiz-adv-x="335" 
d="M33 274v159l264 159v-149l-155 -90l155 -90v-149z" />
    <glyph glyph-name="bullet.case" horiz-adv-x="430" 
d="M366 357q0 -77 -35.5 -114t-115.5 -37t-115.5 37t-35.5 114t35.5 114t115.5 37t115.5 -37t35.5 -114z" />
    <glyph glyph-name="endash.case" horiz-adv-x="500" 
d="M0 288v138h500v-138h-500z" />
    <glyph glyph-name="emdash.case" horiz-adv-x="1000" 
d="M0 288v138h1000v-138h-1000z" />
    <glyph glyph-name="guilsinglright.case" horiz-adv-x="335" 
d="M302 433v-159l-264 -160v149l154 90l-154 90v149z" />
    <glyph glyph-name="exclamdown.case" horiz-adv-x="268" 
d="M68 497h131l12 -153q6 -73 6 -137v-207h-166v207q0 63 6 137zM45 639q0 83 89 83t89 -83t-89 -83t-89 83z" />
    <glyph glyph-name="guillemotleft.case" horiz-adv-x="571" 
d="M33 275v156l229 161v-149l-133 -90l133 -90v-149zM304 275v156l229 161v-149l-133 -90l133 -90v-149z" />
    <glyph glyph-name="guillemotright.case" horiz-adv-x="571" 
d="M538 431v-156l-229 -161v149l133 90l-133 90v149zM267 431v-156l-229 -161v149l133 90l-133 90v149z" />
    </font>
</defs>
</svg>
