<?xml version="1.0" standalone="no"?>
<!DOCTYPE svg PUBLIC "-//W3C//DTD SVG 1.1//EN" "http://www.w3.org/Graphics/SVG/1.1/DTD/svg11.dtd" >
<svg>
<metadata>
Created by FontForge 20120731 at Tue Dec 15 21:08:26 2015
 By ,,,
Copyright 2014 Dalton Maag Ltd. Modification of this file requires prior written permission from Dalton Maag Ltd.
</metadata>
<defs>
<font id="Prometo-BoldItalic" horiz-adv-x="390" >
  <font-face 
    font-family="Prometo"
    font-weight="700"
    font-style="italic"
    font-stretch="normal"
    units-per-em="1000"
    panose-1="2 11 8 4 3 2 3 13 2 3"
    ascent="800"
    descent="-200"
    x-height="523"
    cap-height="712"
    bbox="-252 -261 1326 982"
    underline-thickness="93"
    underline-position="-54"
    slope="-11"
    unicode-range="U+0008-FB04"
  />
<missing-glyph horiz-adv-x="500" 
d="M450 0h-400v750h400v-750zM100 50h300v650h-300v-650z" />
    <glyph glyph-name="uniF603" unicode="ft" horiz-adv-x="752" 
d="M258 523h158l-48 -125h-135l-77 -398h-159l102 522q24 123 88.5 173t189.5 50q79 0 106 -3l-45 -124q-46 2 -62 2q-60 0 -84 -19.5t-34 -77.5zM728 398h-136l-37 -192q-4 -15 -4 -34q0 -25 14 -36.5t47 -11.5q10 0 54 0.5t49 0.5l-48 -125q-3 0 -47.5 -0.5t-60.5 -0.5
q-170 0 -170 148q0 23 7 63l82 421l163 19l-25 -127h160z" />
    <glyph glyph-name="uniFB00" unicode="ff" horiz-adv-x="710" 
d="M258 523h137l-48 -125h-114l-77 -398h-159l102 522q24 123 88.5 173t189.5 50q55 0 85 -3l-45 -124q-26 2 -41 2q-60 0 -84 -19.5t-34 -77.5zM603 523h164l-48 -125h-141l-77 -398h-159l102 522q24 123 88.5 173t189.5 50q73 0 112 -3l-45 -124q-46 2 -68 2
q-60 0 -84 -19.5t-34 -77.5z" />
    <glyph glyph-name="uniFB01" unicode="fi" horiz-adv-x="592" 
d="M258 523h135l-48 -125h-112l-77 -398h-159l102 522q23 123 91 173t199 50q146 0 189 -3l-46 -124q-26 0 -78.5 1t-64.5 1q-69 0 -95 -19t-36 -78zM334 0l102 523h159l-102 -523h-159z" />
    <glyph glyph-name="uniFB02" unicode="fl" horiz-adv-x="605" 
d="M258 523h129l-48 -125h-106l-77 -398h-159l102 522q24 123 88.5 173t189.5 50q21 0 72 -3l-45 -124q-18 2 -28 2q-60 0 -84 -19.5t-34 -77.5zM347 0l145 743h159l-145 -743h-159z" />
    <glyph glyph-name="uniFB03" unicode="ffi" horiz-adv-x="938" 
d="M258 523h137l-48 -125h-114l-77 -398h-159l102 522q24 123 88.5 173t189.5 50q55 0 85 -3l-45 -124q-26 2 -41 2q-60 0 -84 -19.5t-34 -77.5zM603 523h136l-48 -125h-113l-77 -398h-157l100 522q24 123 91.5 173t199.5 50q146 0 189 -3l-46 -124q-26 0 -78.5 1t-64.5 1
q-69 0 -95.5 -19t-36.5 -78zM680 0l102 523h159l-102 -523h-159z" />
    <glyph glyph-name="uniFB04" unicode="ffl" horiz-adv-x="950" 
d="M258 523h137l-48 -125h-114l-77 -398h-159l102 522q24 123 88.5 173t189.5 50q55 0 85 -3l-45 -124q-26 2 -41 2q-60 0 -84 -19.5t-34 -77.5zM603 523h129l-48 -125h-106l-77 -398h-159l102 522q24 123 88.5 173t189.5 50q21 0 72 -3l-45 -124q-18 2 -28 2
q-60 0 -84 -19.5t-34 -77.5zM692 0l145 743h159l-145 -743h-159z" />
    <glyph glyph-name="f_f_t.liga" unicode="fft" horiz-adv-x="1097" 
d="M258 523h137l-48 -125h-114l-77 -398h-159l102 522q24 123 88.5 173t189.5 50q55 0 85 -3l-45 -124q-26 2 -41 2q-60 0 -84 -19.5t-34 -77.5zM603 523h158l-48 -125h-135l-77 -398h-159l102 522q24 123 88.5 173t189.5 50q79 0 106 -3l-45 -124q-46 2 -62 2
q-60 0 -84 -19.5t-34 -77.5zM1073 398h-136l-37 -192q-4 -15 -4 -34q0 -25 14 -36.5t47 -11.5q10 0 54 0.5t49 0.5l-48 -125q-3 0 -47.5 -0.5t-60.5 -0.5q-170 0 -170 148q0 23 7 63l82 421l163 19l-25 -127h160z" />
    <glyph glyph-name=".notdef" horiz-adv-x="500" 
d="M450 0h-400v750h400v-750zM100 50h300v650h-300v-650z" />
    <glyph glyph-name=".null" horiz-adv-x="0" 
 />
    <glyph glyph-name="nonmarkingreturn" horiz-adv-x="333" 
 />
    <glyph glyph-name="uni0008" horiz-adv-x="0" 
 />
    <glyph glyph-name="uni0008" horiz-adv-x="0" 
 />
    <glyph glyph-name="uni0008" horiz-adv-x="0" 
 />
    <glyph glyph-name="uni0009" unicode="&#x9;" horiz-adv-x="231" 
 />
    <glyph glyph-name="uni0009" unicode="&#xd;" horiz-adv-x="231" 
 />
    <glyph glyph-name="space" unicode=" " horiz-adv-x="231" 
 />
    <glyph glyph-name="exclam" unicode="!" horiz-adv-x="270" 
d="M190 215h-133l19 153q16 112 22 138l40 206h165l-41 -206q-4 -21 -9 -42.5t-12 -48.5t-12 -47zM9 56q0 54 23.5 77t76.5 23q79 0 79 -65q0 -54 -23.5 -77.5t-76.5 -23.5q-79 0 -79 66z" />
    <glyph glyph-name="quotedbl" unicode="&#x22;" horiz-adv-x="419" 
d="M115 743h151l-16 -89q-17 -75 -22 -91l-33 -117h-123l13 117q5 55 12 91zM340 743h151l-16 -89q-17 -75 -22 -91l-33 -117h-123l13 117q5 55 12 91z" />
    <glyph glyph-name="numbersign" unicode="#" horiz-adv-x="681" 
d="M578 151h-90l-50 -151h-137l51 151h-121l-51 -151h-137l50 151h-91l46 120h86l46 138h-93l46 120h87l51 151h138l-51 -151h121l51 151h137l-51 -151h95l-46 -120h-89l-47 -138h95zM318 409l-47 -138h121l47 138h-121z" />
    <glyph glyph-name="dollar" unicode="$" horiz-adv-x="595" 
d="M356 777h85l-19 -94q38 0 100.5 -1t73.5 -1l-49 -126q-102 2 -150 2l-29 -154l17 -5q78 -24 115.5 -62.5t37.5 -101.5q0 -24 -6 -56q-17 -82 -70.5 -126t-172.5 -52l-19 -99h-85l19 98q-46 0 -124 1l-77 2l48 125q114 -2 177 -2l32 161l-20 6q-82 24 -118 64t-36 99
q0 18 5 50q15 84 73 127t173 49zM384 208q0 35 -44 53l-26 -132q33 6 46.5 19t20.5 39q3 12 3 21zM241 481q0 -35 47 -53l24 127q-33 -5 -47 -17.5t-21 -35.5q-3 -10 -3 -21z" />
    <glyph glyph-name="percent" unicode="%" horiz-adv-x="964" 
d="M296 0h-141l542 680h141zM801 179l7 34q6 31 6 48q0 26 -11 35t-35 9q-29 0 -44 -17.5t-26 -74.5l-6 -34q-7 -35 -7 -48q0 -25 11.5 -34.5t34.5 -9.5q29 0 44 17.5t26 74.5zM930 218l-9 -49q-17 -91 -64 -134.5t-131 -43.5q-79 0 -120 35t-41 101q0 20 5 47l9 49
q17 93 63.5 135.5t130.5 42.5q80 0 121 -36t41 -100q0 -20 -5 -47zM295 468l7 34q6 32 6 48q0 26 -11 35t-35 9q-29 0 -44 -17.5t-26 -74.5l-6 -34q-7 -35 -7 -48q0 -25 11.5 -34.5t34.5 -9.5q29 0 44 17.5t26 74.5zM424 507l-9 -49q-17 -91 -64 -134.5t-131 -43.5
q-79 0 -120 35t-41 101q0 20 5 47l9 49q17 93 63.5 135.5t130.5 42.5q80 0 121 -36t41 -100q0 -20 -5 -47z" />
    <glyph glyph-name="ampersand" unicode="&#x26;" horiz-adv-x="619" 
d="M17 223q23 121 129 156q-60 33 -60 116q0 27 5 48q19 90 79.5 131t179.5 41q114 0 200 -2l-47 -121q-80 2 -125 2q-68 0 -95.5 -14t-35.5 -53q-4 -15 -4 -31q0 -34 22.5 -47t72.5 -13h313l-47 -120h-47l-42 -215q-12 -55 -37.5 -76.5t-78.5 -27.5q-57 -7 -116 -7
q-272 0 -272 176q0 27 6 57zM297 110q36 0 69 5l39 201h-89q-63 0 -93 -18t-43 -66q-6 -26 -6 -45q0 -43 30 -60t93 -17z" />
    <glyph glyph-name="quotesingle" unicode="'" horiz-adv-x="194" 
d="M115 743h151l-16 -89q-17 -75 -22 -91l-33 -117h-123l13 117q5 55 12 91z" />
    <glyph glyph-name="parenleft" unicode="(" horiz-adv-x="379" 
d="M298 -55l-46 -120h-22q-123 0 -174.5 50t-51.5 148q0 63 17 145l35 183q28 145 69.5 223.5t99.5 108t152 29.5h76l-47 -120h-21q-40 0 -63 -6.5t-45.5 -31t-38.5 -72.5t-32 -131l-36 -185q-16 -74 -16 -126q0 -57 24.5 -76t83.5 -19h36z" />
    <glyph glyph-name="parenright" unicode=")" horiz-adv-x="379" 
d="M82 592l46 120h22q123 0 174.5 -50t51.5 -148q0 -63 -17 -145l-35 -183q-28 -145 -69.5 -223.5t-99.5 -108t-152 -29.5h-76l47 120h21q40 0 63 6.5t45.5 31t38.5 72.5t32 131l36 185q16 74 16 126q0 57 -25 76t-83 19h-36z" />
    <glyph glyph-name="asterisk" unicode="*" horiz-adv-x="446" 
d="M163 322l-88 74l99 101l-114 35l57 112l109 -48l20 125h123l-30 -125l120 45l25 -112l-131 -35l65 -110l-110 -59l-51 106z" />
    <glyph glyph-name="plus" unicode="+" horiz-adv-x="595" 
d="M427 571l-31 -165h166l-25 -130h-167l-31 -165h-141l31 165h-166l26 130h166l31 165h141z" />
    <glyph glyph-name="comma" unicode="," horiz-adv-x="222" 
d="M-14 63q0 50 23 74t76 24q79 0 79 -67q0 -30 -12 -55.5t-44 -70.5l-92 -132h-107l96 180q-19 15 -19 47z" />
    <glyph glyph-name="hyphen" unicode="-" horiz-adv-x="381" 
d="M335 223h-327l53 138h326z" />
    <glyph glyph-name="period" unicode="." horiz-adv-x="222" 
d="M-14 58q0 54 23 78t76 24q79 0 79 -68q0 -54 -23 -78t-76 -24q-79 0 -79 68z" />
    <glyph glyph-name="slash" unicode="/" horiz-adv-x="437" 
d="M348 712h165l-387 -712h-165z" />
    <glyph glyph-name="zero" unicode="0" horiz-adv-x="608" 
d="M408 304l14 70q15 78 15 117q0 46 -18.5 62.5t-61.5 16.5q-57 0 -82 -37t-49 -158l-14 -69q-16 -76 -16 -117q0 -45 19 -62t62 -17q57 0 82 36.5t49 157.5zM49 300l17 88q31 163 99 235.5t204 72.5q119 0 174 -52t55 -155q0 -49 -12 -109l-17 -88q-31 -164 -99 -236
t-204 -72q-119 0 -174 52t-55 154q0 50 12 110z" />
    <glyph glyph-name="one" unicode="1" horiz-adv-x="450" 
d="M73 557l48 123h272l-108 -557h121l-47 -123h-380l47 123h98l84 434h-135z" />
    <glyph glyph-name="two" unicode="2" horiz-adv-x="543" 
d="M87 551l49 128q86 3 205 3q202 0 202 -153q0 -28 -6 -58q-14 -66 -50.5 -104.5t-114.5 -70.5l-111 -46q-40 -15 -56.5 -36.5t-24.5 -68.5l-4 -16h314l-48 -129h-445l26 136q18 98 56 147t127 87l97 41q56 24 70 43q12 17 12 51q0 26 -16 37.5t-56 11.5q-148 0 -226 -3z
" />
    <glyph glyph-name="three" unicode="3" horiz-adv-x="524" 
d="M513 481q-16 -97 -106 -133q71 -32 71 -127q0 -26 -2 -35q-15 -97 -82 -142.5t-203 -45.5q-187 0 -224 2l48 126q112 -2 198 -2q48 0 73 18.5t30 61.5q2 14 2 20q0 33 -18.5 46t-58.5 13h-175l48 123h148q44 0 66 17t27 58q1 7 1 18q0 31 -18.5 43.5t-57.5 12.5
q-32 0 -100 -0.5t-104 -0.5l49 126q26 0 88.5 1t86.5 1q217 0 217 -157q0 -27 -4 -44z" />
    <glyph glyph-name="four" unicode="4" horiz-adv-x="586" 
d="M530 459l-41 -210h77l-47 -123h-54l-24 -126h-149l24 126h-305l14 106l293 448h156l-283 -431h149l36 185z" />
    <glyph glyph-name="five" unicode="5" horiz-adv-x="528" 
d="M205 124q57 0 85.5 21.5t35.5 70.5q2 16 2 23q0 37 -21.5 52.5t-67.5 15.5h-186l73 373h414l-48 -126h-246l-24 -125h53q215 0 215 -171q0 -36 -7 -68q-23 -102 -92.5 -147t-208.5 -45q-146 0 -194 2l47 126q94 -2 170 -2z" />
    <glyph glyph-name="six" unicode="6" horiz-adv-x="566" 
d="M394 682q130 0 170 -2l-48 -127q-9 0 -42.5 1t-76.5 1q-75 0 -113.5 -25.5t-55.5 -110.5q36 30 108 30q95 0 143.5 -47t48.5 -136q0 -23 -5 -61q-37 -221 -261 -221q-225 0 -225 199q0 41 9 87l21 109q35 172 110 237.5t217 65.5zM191 230q-5 -32 -5 -47q0 -79 80 -79
q47 0 71 22t35 80q4 23 4 47q0 42 -19 60.5t-61 18.5q-48 0 -71 -21.5t-34 -80.5z" />
    <glyph glyph-name="seven" unicode="7" horiz-adv-x="527" 
d="M238 0h-172l306 549h-314l51 131h451l-12 -104z" />
    <glyph glyph-name="eight" unicode="8" horiz-adv-x="574" 
d="M526 177q-33 -193 -274 -193q-121 0 -179 45.5t-58 123.5q0 19 3 39q20 131 137 170q-64 34 -64 117q0 10 2 28q11 92 78 140.5t181 48.5q107 0 165.5 -40t58.5 -119q0 -26 -4 -46q-21 -105 -119 -138q77 -38 77 -130q0 -26 -4 -46zM174 208q-4 -17 -4 -35q0 -72 94 -72
q48 0 74 20t36 68q4 17 4 35q0 37 -22.5 54.5t-71.5 17.5q-45 0 -72 -19.5t-38 -68.5zM239 504q-4 -15 -4 -32q0 -63 88 -63q87 0 102 78q4 13 4 31q0 65 -89 65q-85 0 -101 -79z" />
    <glyph glyph-name="nine" unicode="9" horiz-adv-x="564" 
d="M196 -2q-130 0 -170 2l48 127q9 0 42.5 -1t76.5 -1q75 0 113.5 25.5t55.5 110.5q-36 -30 -108 -30q-95 0 -143.5 47t-48.5 136q0 23 5 61q35 221 261 221q225 0 225 -199q0 -41 -9 -87l-21 -109q-35 -172 -110 -237.5t-217 -65.5zM399 450q5 32 5 47q0 79 -80 79
q-47 0 -71 -22t-35 -80q-4 -23 -4 -47q0 -42 19 -60.5t61 -18.5q48 0 71 21.5t34 80.5z" />
    <glyph glyph-name="colon" unicode=":" horiz-adv-x="222" 
d="M57 427q0 54 23 78t76 24q79 0 79 -68q0 -54 -23 -78t-76 -24q-79 0 -79 68zM-14 58q0 54 23 78t76 24q79 0 79 -68q0 -54 -23 -78t-76 -24q-79 0 -79 68z" />
    <glyph glyph-name="semicolon" unicode=";" horiz-adv-x="222" 
d="M-14 63q0 50 23 74t76 24q79 0 79 -67q0 -30 -12 -55.5t-44 -70.5l-92 -132h-107l96 180q-19 15 -19 47zM57 427q0 54 23 78t76 24q79 0 79 -68q0 -54 -23 -78t-76 -24q-79 0 -79 68z" />
    <glyph glyph-name="less" unicode="&#x3c;" horiz-adv-x="595" 
d="M553 446l-319 -110l276 -110l-25 -131l-406 176l27 139l475 177z" />
    <glyph glyph-name="equal" unicode="=" horiz-adv-x="595" 
d="M85 300h441l-26 -130h-441zM126 516h441l-25 -130h-441z" />
    <glyph glyph-name="greater" unicode="&#x3e;" horiz-adv-x="595" 
d="M72 236l319 110l-276 110l25 131l406 -176l-27 -139l-475 -177z" />
    <glyph glyph-name="question" unicode="?" horiz-adv-x="487" 
d="M58 56q0 54 23.5 77t76.5 23q79 0 79 -65q0 -54 -23.5 -77.5t-76.5 -23.5q-79 0 -79 66zM73 584l49 129q51 3 179 3q108 0 160 -39t52 -121q0 -20 -3 -42q-9 -74 -51 -115t-125 -74q-48 -19 -63 -34.5t-23 -59.5l-4 -19h-149l5 31q14 82 44 115.5t112 66.5q52 21 70 36.5
t24 46.5q3 15 3 27q0 28 -18 40t-62 12q-123 0 -200 -3z" />
    <glyph glyph-name="at" unicode="@" horiz-adv-x="774" 
d="M610 -92l-47 -122q-61 -4 -157 -4q-205 0 -299 63.5t-94 214.5q0 69 16 146q20 106 53.5 176t87 109.5t118.5 55.5t158 16q298 0 298 -197q0 -31 -7 -65l-36 -186q-12 -57 -37 -77.5t-82 -26.5q-56 -6 -117 -6q-111 0 -160.5 32t-49.5 103q0 19 7 59q31 145 203 145
q91 0 126 -32l2 12q4 16 4 34q0 45 -36 63t-124 18q-59 0 -98 -9t-72.5 -33.5t-54 -69t-34.5 -115.5q-18 -92 -18 -139q0 -95 62.5 -131.5t222.5 -36.5q114 0 165 3zM480 114q35 0 73 5l10 50q3 12 3 23q0 26 -18.5 36t-59.5 10q-40 0 -58 -11t-24 -43q-3 -15 -3 -25
q0 -28 17.5 -36.5t59.5 -8.5z" />
    <glyph glyph-name="A" unicode="A" horiz-adv-x="718" 
d="M493 0l-23 172h-251l-91 -172h-168l400 712h181l116 -712h-164zM423 563l-140 -262h173z" />
    <glyph glyph-name="B" unicode="B" horiz-adv-x="635" 
d="M321 0h-314l139 712h272q218 0 218 -160q0 -17 -5 -49q-18 -95 -107 -134q78 -34 78 -136q0 -20 -3 -41q-15 -101 -85 -146.5t-193 -45.5zM348 306h-128l-35 -180h130q63 0 91 17t36 62q3 18 3 33q0 38 -23.5 53t-73.5 15zM395 586h-121l-30 -155h124q53 0 77 15.5
t32 54.5q2 7 2 26q0 32 -20.5 45.5t-63.5 13.5z" />
    <glyph glyph-name="C" unicode="C" horiz-adv-x="564" 
d="M522 140l-53 -139q-53 -3 -136 -3q-154 0 -221 64t-67 185q0 55 12 120q36 195 132 271t271 76q75 0 158 -3l-53 -139q-51 3 -115 3q-103 0 -151 -45.5t-73 -171.5q-12 -60 -12 -100q0 -68 35.5 -94t111.5 -26q33 0 82.5 1t78.5 1z" />
    <glyph glyph-name="D" unicode="D" horiz-adv-x="695" 
d="M7 0l139 712h233q155 0 231 -61.5t76 -195.5q0 -44 -11 -108q-14 -83 -41.5 -144t-63.5 -99.5t-85.5 -62t-102.5 -32.5t-120 -9h-255zM362 574h-78l-86 -436h83q52 0 85.5 7.5t63 30t48 66t30.5 113.5q10 53 10 94q0 72 -37 98.5t-119 26.5z" />
    <glyph glyph-name="E" unicode="E" horiz-adv-x="603" 
d="M507 0h-500l139 712h509l-53 -139h-325l-27 -141h319l-53 -139h-292l-31 -154h367z" />
    <glyph glyph-name="F" unicode="F" horiz-adv-x="566" 
d="M489 278h-269l-54 -278h-159l139 712h493l-53 -139h-309l-30 -156h294z" />
    <glyph glyph-name="G" unicode="G" horiz-adv-x="662" 
d="M224 358q-12 -60 -12 -101q0 -66 34 -93t113 -27q47 0 67 1l25 129h-103l53 136h242l-57 -296q-10 -52 -33 -74.5t-68 -27.5q-44 -6 -151 -6q-153 0 -221 64t-68 183q0 53 14 123q20 103 54 170.5t87.5 106t118 53.5t155.5 15q126 0 198 -3l-53 -138q-57 3 -168 3
q-106 0 -154.5 -45t-72.5 -173z" />
    <glyph glyph-name="H" unicode="H" horiz-adv-x="715" 
d="M441 0l57 290h-270l-56 -290h-165l139 712h165l-54 -277h269l54 277h165l-139 -712h-165z" />
    <glyph glyph-name="I" unicode="I" horiz-adv-x="281" 
d="M146 712h165l-139 -712h-165z" />
    <glyph glyph-name="J" unicode="J" horiz-adv-x="471" 
d="M247 254l89 458h165l-92 -469q-26 -136 -90 -190.5t-201 -54.5q-96 0 -150 2l52 139q31 -1 85 -1q65 0 96.5 23.5t45.5 92.5z" />
    <glyph glyph-name="K" unicode="K" horiz-adv-x="660" 
d="M720 712l-345 -349l242 -363h-196l-198 304l-59 -304h-157l139 712h156l-56 -290l284 290h190z" />
    <glyph glyph-name="L" unicode="L" horiz-adv-x="559" 
d="M311 712l-112 -573h322l-53 -139h-461l139 712h165z" />
    <glyph glyph-name="M" unicode="M" horiz-adv-x="820" 
d="M711 0h-154l90 460l-178 -261h-134l-83 268l-91 -467h-154l139 712h168l111 -367l251 367h173z" />
    <glyph glyph-name="N" unicode="N" horiz-adv-x="710" 
d="M465 0l-214 455l-88 -455h-156l139 712h134l216 -457l89 457h154l-138 -712h-136z" />
    <glyph glyph-name="O" unicode="O" horiz-adv-x="717" 
d="M335 120q59 0 92.5 17.5t56.5 66.5t41 146q14 79 14 125q0 68 -28.5 93t-91.5 25q-86 0 -126 -45t-65 -185q-14 -79 -14 -124q0 -69 28.5 -94t92.5 -25zM695 345q-35 -200 -123.5 -281.5t-249.5 -81.5q-140 0 -208.5 61t-68.5 194q0 62 13 131q35 200 123 281.5t249 81.5
q140 0 209 -61.5t69 -194.5q0 -52 -13 -130z" />
    <glyph glyph-name="P" unicode="P" horiz-adv-x="639" 
d="M329 240h-114l-47 -240h-161l139 712h240q263 0 263 -191q0 -27 -6 -59q-20 -123 -100 -172.5t-214 -49.5zM280 578l-40 -204h101q72 0 102 19.5t40 70.5q4 17 4 38q0 42 -25.5 59t-81.5 17h-100z" />
    <glyph glyph-name="Q" unicode="Q" horiz-adv-x="717" 
d="M695 345q-27 -154 -86.5 -237.5t-155.5 -109.5l134 -129h-190l-118 115q-118 9 -176 70t-58 183q0 62 13 131q35 200 123 281.5t249 81.5q140 0 209 -61.5t69 -194.5q0 -52 -13 -130zM335 120q59 0 92.5 17.5t56.5 66.5t41 146q14 79 14 125q0 68 -28.5 93t-91.5 25
q-86 0 -126 -45t-65 -185q-14 -79 -14 -124q0 -69 28.5 -94t92.5 -25z" />
    <glyph glyph-name="R" unicode="R" horiz-adv-x="650" 
d="M416 0l-96 250h-108l-49 -250h-156l139 712h247q257 0 257 -188q0 -24 -5 -57q-27 -155 -169 -197l110 -270h-170zM275 578l-38 -198h108q72 0 101.5 19t39.5 70q4 17 4 36q0 41 -25.5 57t-81.5 16h-108z" />
    <glyph glyph-name="S" unicode="S" horiz-adv-x="587" 
d="M616 712l-52 -133q-52 0 -117.5 0.5t-95.5 0.5q-95 0 -106 -57q-3 -12 -3 -23q0 -22 13.5 -34.5t45.5 -21.5l92 -29q152 -48 152 -170q0 -26 -6 -56q-21 -108 -93.5 -149.5t-219.5 -41.5q-26 0 -109.5 1t-133.5 1l51 134q51 -2 215 -2q63 0 92 13t37 51q2 14 2 20
q0 23 -15 37t-47 24l-85 26q-85 27 -120.5 67t-35.5 100q0 28 6 59q19 102 96 143.5t209 41.5q140 0 228 -2z" />
    <glyph glyph-name="T" unicode="T" horiz-adv-x="663" 
d="M681 573h-208l-112 -573h-165l112 573h-234l52 139h608z" />
    <glyph glyph-name="U" unicode="U" horiz-adv-x="694" 
d="M563 712h165l-89 -460q-27 -145 -103.5 -207.5t-216.5 -62.5q-269 0 -269 217q0 47 8 82l84 431h165l-88 -450q-5 -32 -5 -51q0 -48 27 -69.5t88 -21.5q68 0 99 30.5t47 112.5z" />
    <glyph glyph-name="V" unicode="V" horiz-adv-x="678" 
d="M97 712h171l53 -527l262 527h172l-377 -712h-186z" />
    <glyph glyph-name="W" unicode="W" horiz-adv-x="937" 
d="M704 0h-173l-17 487l-211 -487h-177l-22 712h163l-6 -515l222 515h148l16 -513l199 513h162z" />
    <glyph glyph-name="X" unicode="X" horiz-adv-x="679" 
d="M447 0l-109 254l-209 -254h-181l325 381l-154 331h172l96 -222l173 222h181l-288 -348l173 -364h-179z" />
    <glyph glyph-name="Y" unicode="Y" horiz-adv-x="670" 
d="M92 712h176l90 -292l212 292h182l-331 -421l-57 -291h-165l56 290z" />
    <glyph glyph-name="Z" unicode="Z" horiz-adv-x="619" 
d="M634 590l-418 -452h355l-53 -138h-536l23 120l420 454h-331l53 138h510z" />
    <glyph glyph-name="bracketleft" unicode="[" horiz-adv-x="371" 
d="M293 -53l-47 -122h-273l172 887h296l-46 -122h-125l-125 -643h148z" />
    <glyph glyph-name="backslash" unicode="\" horiz-adv-x="437" 
d="M99 712h150l126 -712h-149z" />
    <glyph glyph-name="bracketright" unicode="]" horiz-adv-x="371" 
d="M79 590l47 122h273l-172 -887h-296l46 122h125l125 643h-148z" />
    <glyph glyph-name="asciicircum" unicode="^" horiz-adv-x="595" 
d="M423 395l-58 192l-130 -192h-153l223 317h158l104 -317h-144z" />
    <glyph glyph-name="underscore" unicode="_" horiz-adv-x="501" 
d="M-86 -187l26 133h500l-26 -133h-500z" />
    <glyph glyph-name="grave" unicode="`" horiz-adv-x="500" 
d="M370 734l79 -136h-143l-102 136h166z" />
    <glyph glyph-name="a" unicode="a" horiz-adv-x="557" 
d="M217 -9q-103 0 -153 34t-50 106q0 34 6 59q33 146 217 146q96 0 133 -33l4 20q3 13 3 24q0 31 -22 43t-69 12q-142 0 -193 -2l45 123q26 2 164 2q113 0 167 -39t54 -123q0 -25 -7 -67l-37 -194q-12 -56 -37 -77.5t-81 -27.5q-70 -6 -144 -6zM258 229q-46 0 -66.5 -12
t-26.5 -44q-2 -7 -2 -24q0 -28 19.5 -37.5t66.5 -9.5q45 0 83 5l9 47q2 5 2 22q0 31 -21 42t-64 11z" />
    <glyph glyph-name="b" unicode="b" horiz-adv-x="593" 
d="M142 743h159l-46 -234q41 30 111 30q197 0 197 -197q0 -46 -10 -97q-26 -136 -93 -198.5t-193 -62.5q-114 0 -171 45.5t-57 145.5q0 46 10 93zM275 109q53 0 76.5 26t41.5 107q13 53 13 93q0 46 -20 63t-62 17q-52 0 -75.5 -27t-39.5 -108q-12 -58 -12 -93
q0 -44 18.5 -61t59.5 -17z" />
    <glyph glyph-name="c" unicode="c" horiz-adv-x="467" 
d="M266 -2q-128 0 -182 48t-54 139q0 43 9 91q15 76 42 126t69 76.5t89 36.5t114 10q13 0 59 -1t69 -1l-47 -125q-56 2 -93 2q-68 0 -98 -25t-44 -101q-10 -44 -10 -74q0 -46 22.5 -61.5t78.5 -15.5q93 0 131 2l-48 -125q-70 -2 -107 -2z" />
    <glyph glyph-name="d" unicode="d" horiz-adv-x="585" 
d="M303 539q82 0 122 -38l47 242h159l-125 -641q-12 -59 -38 -80t-88 -27q-37 -4 -100 -4q-122 0 -186 46t-64 156q0 44 10 95q26 140 93 195.5t170 55.5zM281 116q32 0 70 5l34 176q5 28 5 45q0 40 -20 56t-61 16q-48 0 -72 -26.5t-39 -102.5q-10 -47 -10 -84
q0 -48 22.5 -66.5t70.5 -18.5z" />
    <glyph glyph-name="e" unicode="e" horiz-adv-x="543" 
d="M284 200h-105v-16q1 -37 23 -54t73 -17q107 0 182 5l-45 -115q-51 -5 -167 -5q-117 0 -166 49.5t-49 137.5q0 42 9 87q14 80 43 134.5t69.5 82.5t83 39t96.5 11q201 0 201 -147q-2 -29 -7 -54q-17 -75 -74 -106.5t-167 -31.5zM319 426q-51 0 -77 -25.5t-42 -90.5h87
q49 0 68.5 9.5t27.5 35.5q4 11 4 26q0 45 -68 45z" />
    <glyph glyph-name="f" unicode="f" horiz-adv-x="365" 
d="M258 523h164l-48 -125h-141l-77 -398h-159l102 522q24 123 88.5 173t189.5 50q73 0 112 -3l-45 -124q-46 2 -68 2q-60 0 -84 -19.5t-34 -77.5z" />
    <glyph glyph-name="g" unicode="g" horiz-adv-x="593" 
d="M345 43l2 10q-41 -30 -116 -30q-196 0 -196 188q0 49 8 84q24 129 92.5 186.5t191.5 57.5q113 0 171 -44t58 -140q0 -37 -9 -84l-43 -222q-23 -119 -89 -172.5t-188 -53.5q-140 0 -212 3l50 129q141 -3 159 -3q57 0 84 20t37 71zM315 410q-51 0 -75.5 -22.5t-38.5 -88.5
q-9 -45 -9 -74q0 -41 20 -57t62 -16q51 0 75.5 22.5t38.5 88.5q9 45 9 74q0 41 -20 57t-62 16z" />
    <glyph glyph-name="h" unicode="h" horiz-adv-x="582" 
d="M218 318l-62 -318h-159l145 743h159l-46 -235q42 31 116 31q84 0 132 -40t48 -120q0 -32 -7 -64l-61 -315h-159l62 318q4 17 4 34q0 31 -17 44.5t-52 13.5q-50 0 -71.5 -19.5t-31.5 -72.5z" />
    <glyph glyph-name="i" unicode="i" horiz-adv-x="255" 
d="M-3 0l102 523h159l-102 -523h-159zM211 743q80 0 80 -59q0 -51 -25.5 -72t-77.5 -21q-80 0 -80 59q0 93 103 93z" />
    <glyph glyph-name="j" unicode="j" horiz-adv-x="255" 
d="M5 42l94 481h159l-98 -501q-22 -110 -76 -154.5t-153 -44.5q-85 0 -108 2l46 124q16 -1 43 -1q42 0 62.5 20t30.5 74zM211 743q80 0 80 -59q0 -51 -25.5 -72t-77.5 -21q-80 0 -80 59q0 93 103 93z" />
    <glyph glyph-name="k" unicode="k" horiz-adv-x="570" 
d="M601 523l-263 -248l184 -275h-182l-146 229l-44 -229h-153l145 743h152l-79 -409l198 189h188z" />
    <glyph glyph-name="l" unicode="l" horiz-adv-x="255" 
d="M-3 0l145 743h159l-145 -743h-159z" />
    <glyph glyph-name="m" unicode="m" horiz-adv-x="860" 
d="M522 321l-63 -321h-159l63 321q4 17 4 35q0 54 -64 54q-38 0 -55.5 -19.5t-27.5 -69.5l-63 -321h-159l63 326q22 112 80 162.5t163 50.5q111 0 157 -59q52 59 164 59q203 0 203 -165q0 -28 -6 -63l-61 -311h-159l63 321q4 17 4 35q0 54 -64 54q-38 0 -55.5 -19.5
t-27.5 -69.5z" />
    <glyph glyph-name="n" unicode="n" horiz-adv-x="581" 
d="M218 318l-62 -318h-159l64 326q22 117 84 165t187 48q218 0 218 -167q0 -21 -7 -61l-60 -311h-159l62 318q4 17 4 34q0 58 -69 58q-50 0 -71.5 -19.5t-31.5 -72.5z" />
    <glyph glyph-name="o" unicode="o" horiz-adv-x="584" 
d="M267 109q53 0 77 28t40 108q12 59 12 92q0 44 -19 60.5t-61 16.5q-53 0 -76.5 -28t-39.5 -107q-12 -60 -12 -93q0 -43 18.5 -60t60.5 -17zM331 539q112 0 167.5 -46t55.5 -148q0 -41 -11 -98q-25 -141 -93 -202t-197 -61q-113 0 -168 45.5t-55 148.5q0 47 10 98
q26 141 94 202t197 61z" />
    <glyph glyph-name="p" unicode="p" horiz-adv-x="593" 
d="M122 -175h-159l90 460q27 139 93 196.5t187 57.5q118 0 174 -46.5t56 -148.5q0 -42 -11 -103q-27 -135 -91 -196t-172 -61q-89 0 -128 39zM280 109q50 0 73 26.5t41 107.5q12 60 12 93q0 46 -19.5 62t-60.5 16q-52 0 -75 -26t-41 -106q-13 -56 -13 -94q0 -45 19.5 -62
t63.5 -17z" />
    <glyph glyph-name="q" unicode="q" horiz-adv-x="594" 
d="M461 -175h-159l37 189q-41 -29 -112 -29q-197 0 -197 196q0 45 10 98q25 136 93 198t193 62q116 0 173 -45t57 -144q0 -37 -11 -95zM270 109q50 0 73 26.5t41 107.5q12 60 12 93q0 46 -19.5 62t-60.5 16q-52 0 -75 -26t-41 -106q-13 -63 -13 -94q0 -45 19.5 -62t63.5 -17
z" />
    <glyph glyph-name="r" unicode="r" horiz-adv-x="382" 
d="M320 526q73 0 106 -3l-49 -128q-40 2 -53 2q-55 0 -76.5 -20t-33.5 -80l-58 -297h-159l60 307q25 127 86.5 173t176.5 46z" />
    <glyph glyph-name="s" unicode="s" horiz-adv-x="486" 
d="M228 339l85 -23q65 -18 95.5 -48t30.5 -82q0 -24 -6 -53q-14 -69 -75 -102t-173 -33q-158 0 -207 2l41 123q49 -2 194 -2q52 0 66 16q7 10 7 23q0 12 -9 18t-32 12l-94 25q-109 32 -109 128q0 15 5 43q14 72 71 105.5t165 33.5q66 0 206 -4l-45 -122q-104 3 -180 3
q-51 0 -63 -12q-8 -8 -8 -24q0 -11 7.5 -16t27.5 -11z" />
    <glyph glyph-name="t" unicode="t" horiz-adv-x="394" 
d="M370 398h-136l-37 -192q-4 -15 -4 -34q0 -25 14 -36.5t47 -11.5q10 0 54 0.5t49 0.5l-48 -125q-3 0 -47.5 -0.5t-60.5 -0.5q-170 0 -170 148q0 23 7 63l85 438l163 19l-28 -144h160z" />
    <glyph glyph-name="u" unicode="u" horiz-adv-x="579" 
d="M361 205l62 318h159l-63 -325q-22 -118 -84 -166t-187 -48q-216 0 -216 167q0 33 6 61l61 311h159l-62 -318q-4 -17 -4 -34q0 -31 16.5 -44.5t50.5 -13.5q50 0 71 18.5t31 73.5z" />
    <glyph glyph-name="v" unicode="v" horiz-adv-x="553" 
d="M224 523l33 -367l173 367h164l-275 -523h-181l-78 523h164z" />
    <glyph glyph-name="w" unicode="w" horiz-adv-x="782" 
d="M416 0l-12 328l-141 -328h-154l-46 523h154l6 -354l151 354h135l13 -352l145 352h154l-250 -523h-155z" />
    <glyph glyph-name="x" unicode="x" horiz-adv-x="560" 
d="M130 0h-171l238 284l-122 239h164l65 -144l110 144h170l-220 -263l134 -260h-166l-74 159z" />
    <glyph glyph-name="y" unicode="y" horiz-adv-x="580" 
d="M333 45l2 10q-41 -32 -113 -32q-182 0 -182 159q0 29 6 64l54 277h159l-54 -279q-4 -20 -4 -34q0 -31 16.5 -44.5t50.5 -13.5q50 0 71.5 18.5t31.5 73.5l54 279h159l-92 -471q-24 -121 -89.5 -175t-187.5 -54q-141 0 -213 3l50 129q147 -3 159 -3q56 0 83.5 20.5
t38.5 72.5z" />
    <glyph glyph-name="z" unicode="z" horiz-adv-x="521" 
d="M505 422l-283 -297h247l-47 -125h-430l17 101l283 297h-234l47 125h417z" />
    <glyph glyph-name="braceleft" unicode="{" horiz-adv-x="394" 
d="M296 525l-29 -147q-9 -46 -28.5 -71.5t-60.5 -37.5q49 -18 49 -82q0 -19 -4 -36l-26 -135q-3 -17 -3 -28q0 -24 14 -34t47 -10h72l-46 -119h-61q-89 0 -133 35t-44 100q0 18 5 45l27 141q3 12 3 22q0 20 -11 29t-38 9h-26l24 125h23q35 0 51 15.5t23 53.5l28 140
q18 93 72 132.5t157 39.5h87l-46 -119h-40q-41 0 -59.5 -14t-26.5 -54z" />
    <glyph glyph-name="bar" unicode="|" horiz-adv-x="260" 
d="M-34 -175l177 918h159l-177 -918h-159z" />
    <glyph glyph-name="braceright" unicode="}" horiz-adv-x="394" 
d="M100 12l29 147q9 46 28.5 71.5t60.5 37.5q-49 18 -49 82q0 19 4 36l26 135q3 17 3 28q0 24 -14 34t-47 10h-72l46 119h61q89 0 133 -35t44 -100q0 -18 -5 -45l-27 -141q-3 -12 -3 -22q0 -20 11 -29t38 -9h26l-24 -125h-23q-35 0 -51 -15.5t-23 -53.5l-28 -140
q-18 -93 -72 -132.5t-157 -39.5h-87l46 119h40q41 0 59.5 14t26.5 54z" />
    <glyph glyph-name="asciitilde" unicode="~" horiz-adv-x="595" 
d="M447 440h126l-4 -21q-20 -99 -56.5 -143t-97.5 -44q-19 0 -39.5 6t-31 11.5t-40.5 21.5l-17 9q-50 27 -68 27q-15 0 -24.5 -10.5t-15.5 -38.5l-3 -15h-125l4 21q18 100 55 143t99 43q27 0 50 -9t61 -30l17 -9q48 -26 67 -26q31 0 40 49z" />
    <glyph glyph-name="uni00A0" unicode="&#xa0;" horiz-adv-x="231" 
 />
    <glyph glyph-name="exclamdown" unicode="&#xa1;" horiz-adv-x="270" 
d="M80 303h133l-19 -153q-7 -57 -22 -138l-40 -206h-165l41 206q9 49 33 138zM261 462q0 -54 -23.5 -77t-76.5 -23q-79 0 -79 65q0 54 23.5 77.5t76.5 23.5q79 0 79 -66z" />
    <glyph glyph-name="cent" unicode="&#xa2;" horiz-adv-x="595" 
d="M372 619h85l-18 -94q45 0 95 -2l-46 -123q-15 0 -73 2l-55 -281q31 0 113 2l-45 -123q-46 -2 -92 -2l-18 -94h-85l19 97q-171 23 -171 183q0 45 10 92q23 127 84.5 182t177.5 65zM227 202q0 -61 49 -76l53 271q-41 -9 -62 -38t-31 -85q-9 -44 -9 -72z" />
    <glyph glyph-name="sterling" unicode="&#xa3;" horiz-adv-x="595" 
d="M615 680l-47 -125q-35 2 -113 2q-62 0 -94 -23.5t-44 -85.5l-7 -38h190l-47 -125h-168l-31 -160h269l-47 -125h-475l48 125h51l32 160h-76l48 125h52l11 56q23 112 93 164t190 52q33 0 93.5 -1t71.5 -1z" />
    <glyph glyph-name="currency" unicode="&#xa4;" horiz-adv-x="595" 
d="M76 354q0 62 34 117l-64 64l85 85l68 -68q53 31 117 31t117 -31l68 68l85 -85l-64 -64q34 -55 34 -117q0 -64 -34 -117l64 -64l-86 -85l-68 68q-53 -31 -116 -31q-62 0 -117 31l-67 -68l-86 85l64 64q-34 53 -34 117zM316 236q56 0 88.5 33.5t32.5 85.5t-32.5 85.5
t-88.5 33.5t-88.5 -33.5t-32.5 -85.5t32.5 -85.5t88.5 -33.5z" />
    <glyph glyph-name="yen" unicode="&#xa5;" horiz-adv-x="595" 
d="M496 121h-150l-24 -121h-156l24 121h-147l19 100h147l11 54h-148l20 100h103l-104 305h166l68 -255l174 255h172l-227 -305h101l-19 -100h-151l-10 -54h150z" />
    <glyph glyph-name="brokenbar" unicode="&#xa6;" horiz-adv-x="260" 
d="M239 414h-159l64 329h159zM29 154h159l-63 -329h-159z" />
    <glyph glyph-name="section" unicode="&#xa7;" horiz-adv-x="593" 
d="M545 266q-12 -52 -43 -87t-74 -47q69 -38 69 -116q0 -24 -6 -49q-11 -46 -36 -76.5t-63.5 -46t-79 -21.5t-94.5 -6q-18 0 -112 1t-134 1l46 123q55 -2 226 -2q44 0 66.5 9t30.5 32q4 11 4 23q0 30 -50 44l-108 28q-63 15 -103 54.5t-40 95.5q0 26 7 48q15 53 41.5 84
t73.5 46q-68 35 -68 113q0 25 6 54q19 79 86.5 111.5t175.5 32.5q162 0 234 -2l-47 -125q-65 2 -215 2q-66 0 -82 -34q-6 -14 -6 -28q0 -17 10 -26.5t34 -15.5l114 -28q143 -36 143 -145q0 -21 -6 -47zM249 188l38 -9q13 -3 24 -3q68 0 89 92q2 14 2 19q0 45 -58 60l-38 9
q-14 3 -24 3q-68 0 -89 -92q-2 -14 -2 -19q0 -45 58 -60z" />
    <glyph glyph-name="dieresis" unicode="&#xa8;" horiz-adv-x="500" 
d="M147 649q0 45 21 66t69 21q70 0 70 -55q0 -45 -21 -66t-69 -21q-70 0 -70 55zM350 649q0 46 21 66.5t69 20.5q69 0 69 -55q0 -45 -20.5 -66t-68.5 -21q-70 0 -70 55z" />
    <glyph glyph-name="copyright" unicode="&#xa9;" horiz-adv-x="858" 
d="M585 574l-22 -109q-37 1 -82 1q-46 0 -59.5 -15t-13.5 -73v-44q0 -59 14.5 -73.5t67.5 -14.5q65 0 94 1l-22 -110q-36 -1 -85 -1q-117 0 -163 44t-46 153v46q0 107 44 152t165 45q44 0 108 -2zM835 356q0 -210 -86.5 -295.5t-301.5 -85.5t-302 84.5t-87 296.5
q0 210 87 295.5t302 85.5q214 0 301 -84.5t87 -296.5zM722 356q0 87 -11 138.5t-43 84.5t-83 44.5t-139 11.5q-168 0 -221.5 -55t-53.5 -224q0 -87 11 -138.5t43 -84.5t83 -44.5t138 -11.5q70 0 116 8t78.5 25t49.5 51t24.5 79.5t7.5 115.5z" />
    <glyph glyph-name="ordfeminine" unicode="&#xaa;" horiz-adv-x="442" 
d="M234 569q73 0 104 -23l2 8q3 14 3 25q0 22 -15.5 32t-55.5 10q-93 0 -154 -1l36 97q62 2 130 2q89 0 135.5 -29.5t46.5 -98.5q0 -25 -6 -53l-30 -156q-9 -43 -31.5 -60t-67.5 -21q-37 -4 -97 -4q-92 0 -135 26.5t-43 85.5q0 18 5 45q12 58 53.5 86.5t119.5 28.5zM247 387
q36 0 61 4l8 42q2 14 2 15q0 21 -15.5 29t-50.5 8q-37 0 -51 -10t-18 -34q-2 -14 -2 -17q0 -20 15 -28t51 -9z" />
    <glyph glyph-name="guillemotleft" unicode="&#xab;" horiz-adv-x="568" 
d="M15 182l30 159l259 159l-30 -153l-149 -89l114 -91l-28 -145zM284 182l31 159l258 159l-30 -153l-149 -89l114 -91l-28 -145z" />
    <glyph glyph-name="logicalnot" unicode="&#xac;" horiz-adv-x="595" 
d="M390 347h-319l26 131h461l-56 -288h-142z" />
    <glyph glyph-name="uni00AD" unicode="&#xad;" horiz-adv-x="381" 
d="M335 223h-327l53 138h326z" />
    <glyph glyph-name="registered" unicode="&#xae;" horiz-adv-x="606" 
d="M622 484q0 -145 -63.5 -205.5t-211.5 -60.5t-211 60.5t-63 205.5t63 205.5t211 60.5t211.5 -60.5t63.5 -205.5zM157 484q0 -114 38 -152.5t152 -38.5t152 38.5t38 152.5t-38 152.5t-152 38.5t-152 -38.5t-38 -152.5zM468 531v-12q0 -52 -42 -74l51 -90h-94l-38 76h-23
v-76h-85v265h126q57 0 81 -20.5t24 -68.5zM384 520v7q0 17 -7 22t-28 5h-27v-60h27q21 0 28 4.5t7 21.5z" />
    <glyph glyph-name="overscore" unicode="&#xaf;" horiz-adv-x="500" 
d="M157 605l20 107h320l-21 -107h-319z" />
    <glyph glyph-name="degree" unicode="&#xb0;" horiz-adv-x="370" 
d="M421 592q0 -160 -172 -160q-171 0 -171 160q0 159 171 159q172 0 172 -159zM315 592q0 38 -15 53.5t-51 15.5t-51 -15.5t-15 -53.5t15 -53.5t51 -15.5t51 15.5t15 53.5z" />
    <glyph glyph-name="plusminus" unicode="&#xb1;" horiz-adv-x="595" 
d="M466 1h-445l26 130h444zM439 631l-31 -165h166l-25 -130h-167l-31 -165h-141l31 165h-166l26 130h166l31 165h141z" />
    <glyph glyph-name="uni00B2" unicode="&#xb2;" 
d="M191 383l-1 -4h184l-30 -91h-287l14 71q12 64 36.5 97t75.5 51l60 22q27 10 32 26q2 6 2 14q0 12 -8.5 17.5t-31.5 5.5q-94 0 -129 -2l33 89q34 2 118 2q136 0 136 -94q0 -13 -3 -30q-8 -41 -30.5 -64t-67.5 -41l-57 -21q-23 -8 -32.5 -18t-13.5 -30z" />
    <glyph glyph-name="uni00B3" unicode="&#xb3;" 
d="M219 444h-110l33 85h93q23 0 33 8q12 11 12 28q0 26 -39 26q-91 0 -128 -1l36 90q35 1 123 1q60 0 92.5 -23t32.5 -66q0 -30 -10 -49q-16 -39 -55 -55q46 -18 46 -75q0 -10 -2 -26q-18 -100 -166 -100q-15 0 -82.5 0.5t-77.5 0.5l34 89q14 0 58.5 -0.5t68.5 -0.5
q27 0 37 9q13 10 13 31q0 16 -10 22t-32 6z" />
    <glyph glyph-name="acute" unicode="&#xb4;" horiz-adv-x="500" 
d="M177 598l129 136h171l-152 -136h-148z" />
    <glyph glyph-name="uni00B5" unicode="&#xb5;" horiz-adv-x="584" 
d="M349 121l79 402h159l-82 -421q-12 -58 -38.5 -79.5t-87.5 -27.5q-27 -4 -81 -4q-100 0 -141 32l-38 -198h-155l135 698h158l-62 -318q-3 -11 -3 -29q0 -32 21.5 -46t69.5 -14q33 0 66 5z" />
    <glyph glyph-name="paragraph" unicode="&#xb6;" horiz-adv-x="661" 
d="M194 -175l87 448h-24q-88 0 -139.5 40t-51.5 128q0 32 7 66q39 206 272 206h349l-173 -888h-122l151 776h-84l-151 -776h-121z" />
    <glyph glyph-name="middot" unicode="&#xb7;" horiz-adv-x="223" 
d="M38 323q0 54 23 78t76 24q79 0 79 -68q0 -54 -23 -78t-76 -24q-79 0 -79 68z" />
    <glyph glyph-name="cedilla" unicode="&#xb8;" horiz-adv-x="500" 
d="M44 -223l28 74q50 -2 69 -2q18 0 26 8q10 8 10 23q0 17 -26 17q-30 0 -54 -1l26 69q7 0 28 0.5t31 0.5q105 0 105 -76q0 -28 -14 -59q-17 -32 -50 -44.5t-92 -12.5q-60 0 -87 3z" />
    <glyph glyph-name="uni00B9" unicode="&#xb9;" 
d="M119 585l38 95h189l-57 -295h87l-35 -97h-282l35 97h73l39 200h-87z" />
    <glyph glyph-name="ordmasculine" unicode="&#xba;" horiz-adv-x="459" 
d="M341 499q9 43 9 69q0 32 -13.5 44t-43.5 12q-37 0 -54 -20.5t-29 -80.5q-9 -43 -9 -69q0 -32 13.5 -44t43.5 -12q38 0 54.5 20.5t28.5 80.5zM251 297q-92 0 -137.5 37.5t-45.5 117.5q0 28 8 71q19 105 72 153.5t153 48.5q91 0 137 -37.5t46 -118.5q0 -28 -8 -71
q-19 -105 -72 -153t-153 -48z" />
    <glyph glyph-name="guillemotright" unicode="&#xbb;" horiz-adv-x="568" 
d="M554 341l-31 -159l-258 -160l30 153l149 89l-114 91l28 145zM285 341l-31 -159l-258 -160l30 153l149 89l-115 91l28 145z" />
    <glyph glyph-name="onequarter" unicode="&#xbc;" horiz-adv-x="925" 
d="M304 0h-141l542 680h141zM886 159l-35 -88h-29l-14 -71h-103l14 71h-190l12 80l165 241h115l-162 -233h77l17 87l106 15l-20 -102h47zM119 585l38 95h189l-57 -295h87l-35 -97h-282l35 97h73l39 200h-87z" />
    <glyph glyph-name="onehalf" unicode="&#xbd;" horiz-adv-x="925" 
d="M281 0h-141l542 680h141zM670 95l-1 -4h184l-30 -91h-287l14 71q12 64 36.5 97t75.5 51l60 22q27 10 32 26q2 6 2 14q0 12 -8.5 17.5t-31.5 5.5q-94 0 -129 -2l33 89q34 2 118 2q136 0 136 -94q0 -13 -3 -30q-8 -41 -30.5 -64t-67.5 -41l-57 -21q-23 -8 -32.5 -18
t-13.5 -30zM119 585l38 95h189l-57 -295h87l-35 -97h-282l35 97h73l39 200h-87z" />
    <glyph glyph-name="threequarters" unicode="&#xbe;" horiz-adv-x="925" 
d="M294 0h-141l542 680h141zM887 159l-35 -88h-29l-14 -71h-103l14 71h-190l12 80l165 241h115l-162 -233h77l17 87l106 15l-20 -102h47zM219 444h-110l33 85h93q23 0 33 8q12 11 12 28q0 26 -39 26q-91 0 -128 -1l36 90q35 1 123 1q60 0 92.5 -23t32.5 -66q0 -30 -10 -49
q-16 -39 -55 -55q46 -18 46 -75q0 -10 -2 -26q-18 -100 -166 -100q-15 0 -82.5 0.5t-77.5 0.5l34 89q14 0 58.5 -0.5t68.5 -0.5q27 0 37 9q13 10 13 31q0 16 -10 22t-32 6z" />
    <glyph glyph-name="questiondown" unicode="&#xbf;" horiz-adv-x="487" 
d="M429 463q0 -54 -23.5 -77t-76.5 -23q-79 0 -79 65q0 54 23.5 77.5t76.5 23.5q79 0 79 -66zM414 -65l-49 -129q-51 -3 -179 -3q-108 0 -160 39t-52 121q0 19 3 42q9 74 51 115t125 74q48 19 63 34.5t23 59.5l4 19h149l-5 -31q-16 -84 -44.5 -116.5t-111.5 -65.5
q-51 -19 -69.5 -35.5t-24.5 -47.5q-3 -15 -3 -27q0 -28 18 -40t62 -12q123 0 200 3z" />
    <glyph glyph-name="Agrave" unicode="&#xc0;" horiz-adv-x="718" 
d="M493 0l-23 172h-251l-91 -172h-168l400 712h181l116 -712h-164zM423 563l-140 -262h173zM448 905l85 -133h-143l-113 133h171z" />
    <glyph glyph-name="Aacute" unicode="&#xc1;" horiz-adv-x="718" 
d="M493 0l-23 172h-251l-91 -172h-168l400 712h181l116 -712h-164zM423 563l-140 -262h173zM361 772l137 133h178l-164 -133h-151z" />
    <glyph glyph-name="Acircumflex" unicode="&#xc2;" horiz-adv-x="718" 
d="M493 0l-23 172h-251l-91 -172h-168l400 712h181l116 -712h-164zM423 563l-140 -262h173zM511 772l-47 62l-73 -62h-145l146 132h164l95 -132h-140z" />
    <glyph glyph-name="Atilde" unicode="&#xc3;" horiz-adv-x="718" 
d="M493 0l-23 172h-251l-91 -172h-168l400 712h181l116 -712h-164zM423 563l-140 -262h173zM355 763h-96l3 17q14 75 42.5 104t79.5 29q38 0 86 -25l20 -10q26 -14 46 -14q12 0 18.5 7t11.5 29l2 10h96l-3 -17q-14 -75 -42.5 -103.5t-79.5 -28.5q-41 0 -86 24l-20 10
q-26 14 -47 14q-12 0 -18 -7t-11 -29z" />
    <glyph glyph-name="Adieresis" unicode="&#xc4;" horiz-adv-x="718" 
d="M493 0l-23 172h-251l-91 -172h-168l400 712h181l116 -712h-164zM423 563l-140 -262h173zM272 822q0 47 22 67.5t69 20.5q71 0 71 -57q0 -46 -21.5 -67t-69.5 -21q-71 0 -71 57zM484 822q0 47 22 67.5t69 20.5q70 0 70 -57q0 -46 -21 -67t-69 -21q-71 0 -71 57z" />
    <glyph glyph-name="Aring" unicode="&#xc5;" horiz-adv-x="718" 
d="M321 773q17 128 154 128q58 0 90 -27t32 -77q0 -8 -2 -24q-9 -60 -50 -87l112 -686h-164l-23 172h-251l-91 -172h-168l387 691q-28 18 -28 60q0 8 2 22zM423 563l-140 -262h173zM511 771q2 7 2 20q0 35 -46 35q-30 0 -42 -11.5t-19 -38.5q-3 -15 -3 -20q0 -36 47 -36
q31 0 43 11.5t18 39.5z" />
    <glyph glyph-name="AE" unicode="&#xc6;" horiz-adv-x="1034" 
d="M938 0h-500l36 186h-208l-130 -186h-176l520 712h606l-53 -139h-325l-27 -141h319l-53 -139h-292l-31 -154h367zM540 578l-184 -263h143l52 263h-11z" />
    <glyph glyph-name="Ccedilla" unicode="&#xc7;" horiz-adv-x="564" 
d="M522 140l-53 -139q-53 -3 -136 -3q-154 0 -221 64t-67 185q0 55 12 120q36 195 132 271t271 76q75 0 158 -3l-53 -139q-51 3 -115 3q-103 0 -151 -45.5t-73 -171.5q-12 -60 -12 -100q0 -68 35.5 -94t111.5 -26q33 0 82.5 1t78.5 1zM123 -223l28 75q54 -2 76 -2q19 0 26 7
q9 9 9 23q0 16 -26 16q-35 0 -60 -1l27 70q7 0 32.5 0.5t36.5 0.5q106 0 106 -76q0 -8 -2 -22q-9 -52 -46.5 -73t-109.5 -21q-69 0 -97 3z" />
    <glyph glyph-name="Egrave" unicode="&#xc8;" horiz-adv-x="603" 
d="M507 0h-500l139 712h509l-53 -139h-325l-27 -141h319l-53 -139h-292l-31 -154h367zM427 905l85 -133h-143l-113 133h171z" />
    <glyph glyph-name="Eacute" unicode="&#xc9;" horiz-adv-x="603" 
d="M507 0h-500l139 712h509l-53 -139h-325l-27 -141h319l-53 -139h-292l-31 -154h367zM296 772l137 133h178l-164 -133h-151z" />
    <glyph glyph-name="Ecircumflex" unicode="&#xca;" horiz-adv-x="603" 
d="M507 0h-500l139 712h509l-53 -139h-325l-27 -141h319l-53 -139h-292l-31 -154h367zM467 772l-47 62l-73 -62h-145l146 132h164l95 -132h-140z" />
    <glyph glyph-name="Edieresis" unicode="&#xcb;" horiz-adv-x="603" 
d="M507 0h-500l139 712h509l-53 -139h-325l-27 -141h319l-53 -139h-292l-31 -154h367zM220 822q0 47 22 67.5t69 20.5q71 0 71 -57q0 -46 -21.5 -67t-69.5 -21q-71 0 -71 57zM432 822q0 47 22 67.5t69 20.5q70 0 70 -57q0 -46 -21 -67t-69 -21q-71 0 -71 57z" />
    <glyph glyph-name="Igrave" unicode="&#xcc;" horiz-adv-x="281" 
d="M146 712h165l-139 -712h-165zM238 905l85 -133h-143l-113 133h171z" />
    <glyph glyph-name="Iacute" unicode="&#xcd;" horiz-adv-x="281" 
d="M146 712h165l-139 -712h-165zM143 772l137 133h178l-164 -133h-151z" />
    <glyph glyph-name="Icircumflex" unicode="&#xce;" horiz-adv-x="281" 
d="M146 712h165l-139 -712h-165zM295 772l-47 62l-73 -62h-145l146 132h164l95 -132h-140z" />
    <glyph glyph-name="Idieresis" unicode="&#xcf;" horiz-adv-x="281" 
d="M146 712h165l-139 -712h-165zM58 822q0 47 22 67.5t69 20.5q71 0 71 -57q0 -46 -21.5 -67t-69.5 -21q-71 0 -71 57zM270 822q0 47 22 67.5t69 20.5q70 0 70 -57q0 -46 -21 -67t-69 -21q-71 0 -71 57z" />
    <glyph glyph-name="Eth" unicode="&#xd0;" horiz-adv-x="714" 
d="M26 0l59 302h-68l22 115h68l58 295h233q155 0 231 -61.5t76 -195.5q0 -44 -11 -108q-14 -83 -41.5 -144t-63.5 -99.5t-85.5 -62t-102.5 -32.5t-120 -9h-255zM381 574h-78l-31 -157h132l-22 -115h-133l-32 -164h83q52 0 85.5 7.5t62.5 30.5t47.5 66t31.5 113q10 50 10 94
q0 72 -37 98.5t-119 26.5z" />
    <glyph glyph-name="Ntilde" unicode="&#xd1;" horiz-adv-x="710" 
d="M465 0l-214 455l-88 -455h-156l139 712h134l216 -457l89 457h154l-138 -712h-136zM346 763h-96l3 17q14 75 42.5 104t79.5 29q38 0 86 -25l20 -10q26 -14 46 -14q12 0 18.5 7t11.5 29l2 10h96l-3 -17q-14 -75 -42.5 -103.5t-79.5 -28.5q-41 0 -86 24l-20 10
q-26 14 -47 14q-12 0 -18 -7t-11 -29z" />
    <glyph glyph-name="Ograve" unicode="&#xd2;" horiz-adv-x="717" 
d="M335 120q59 0 92.5 17.5t56.5 66.5t41 146q14 79 14 125q0 68 -28.5 93t-91.5 25q-86 0 -126 -45t-65 -185q-14 -79 -14 -124q0 -69 28.5 -94t92.5 -25zM695 345q-35 -200 -123.5 -281.5t-249.5 -81.5q-140 0 -208.5 61t-68.5 194q0 62 13 131q35 200 123 281.5t249 81.5
q140 0 209 -61.5t69 -194.5q0 -52 -13 -130zM474 905l85 -133h-143l-113 133h171z" />
    <glyph glyph-name="Oacute" unicode="&#xd3;" horiz-adv-x="717" 
d="M335 120q59 0 92.5 17.5t56.5 66.5t41 146q14 79 14 125q0 68 -28.5 93t-91.5 25q-86 0 -126 -45t-65 -185q-14 -79 -14 -124q0 -69 28.5 -94t92.5 -25zM695 345q-35 -200 -123.5 -281.5t-249.5 -81.5q-140 0 -208.5 61t-68.5 194q0 62 13 131q35 200 123 281.5t249 81.5
q140 0 209 -61.5t69 -194.5q0 -52 -13 -130zM327 772l137 133h178l-164 -133h-151z" />
    <glyph glyph-name="Ocircumflex" unicode="&#xd4;" horiz-adv-x="717" 
d="M335 120q59 0 92.5 17.5t56.5 66.5t41 146q14 79 14 125q0 68 -28.5 93t-91.5 25q-86 0 -126 -45t-65 -185q-14 -79 -14 -124q0 -69 28.5 -94t92.5 -25zM695 345q-35 -200 -123.5 -281.5t-249.5 -81.5q-140 0 -208.5 61t-68.5 194q0 62 13 131q35 200 123 281.5t249 81.5
q140 0 209 -61.5t69 -194.5q0 -52 -13 -130zM503 772l-47 62l-73 -62h-145l146 132h164l95 -132h-140z" />
    <glyph glyph-name="Otilde" unicode="&#xd5;" horiz-adv-x="717" 
d="M335 120q59 0 92.5 17.5t56.5 66.5t41 146q14 79 14 125q0 68 -28.5 93t-91.5 25q-86 0 -126 -45t-65 -185q-14 -79 -14 -124q0 -69 28.5 -94t92.5 -25zM695 345q-35 -200 -123.5 -281.5t-249.5 -81.5q-140 0 -208.5 61t-68.5 194q0 62 13 131q35 200 123 281.5t249 81.5
q140 0 209 -61.5t69 -194.5q0 -52 -13 -130zM345 763h-96l3 17q14 75 42.5 104t79.5 29q38 0 86 -25l20 -10q26 -14 46 -14q12 0 18.5 7t11.5 29l2 10h96l-3 -17q-14 -75 -42.5 -103.5t-79.5 -28.5q-41 0 -86 24l-20 10q-26 14 -47 14q-12 0 -18 -7t-11 -29z" />
    <glyph glyph-name="Odieresis" unicode="&#xd6;" horiz-adv-x="717" 
d="M335 120q59 0 92.5 17.5t56.5 66.5t41 146q14 79 14 125q0 68 -28.5 93t-91.5 25q-86 0 -126 -45t-65 -185q-14 -79 -14 -124q0 -69 28.5 -94t92.5 -25zM695 345q-35 -200 -123.5 -281.5t-249.5 -81.5q-140 0 -208.5 61t-68.5 194q0 62 13 131q35 200 123 281.5t249 81.5
q140 0 209 -61.5t69 -194.5q0 -52 -13 -130zM262 822q0 47 22 67.5t69 20.5q71 0 71 -57q0 -46 -21.5 -67t-69.5 -21q-71 0 -71 57zM474 822q0 47 22 67.5t69 20.5q70 0 70 -57q0 -46 -21 -67t-69 -21q-71 0 -71 57z" />
    <glyph glyph-name="multiply" unicode="&#xd7;" horiz-adv-x="595" 
d="M568 471l-161 -136l107 -133l-108 -89l-107 132l-156 -132l-83 98l159 134l-107 136l108 89l107 -134l159 134z" />
    <glyph glyph-name="Oslash" unicode="&#xd8;" horiz-adv-x="717" 
d="M695 345q-35 -200 -123.5 -281.5t-249.5 -81.5q-72 0 -129 17l-60 -89h-118l94 138q-64 61 -64 189q0 62 13 131q35 200 123 281.5t249 81.5q76 0 132 -18l61 90h118l-96 -140q63 -62 63 -188q0 -52 -13 -130zM214 239q0 -27 2 -34l260 382q-24 6 -57 6q-86 0 -126 -45
t-65 -185q-14 -79 -14 -124zM335 120q59 0 92.5 17.5t56.5 66.5t41 146q14 79 14 125q0 11 -2 29l-258 -379q20 -5 56 -5z" />
    <glyph glyph-name="Ugrave" unicode="&#xd9;" horiz-adv-x="694" 
d="M563 712h165l-89 -460q-27 -145 -103.5 -207.5t-216.5 -62.5q-269 0 -269 217q0 47 8 82l84 431h165l-88 -450q-5 -32 -5 -51q0 -48 27 -69.5t88 -21.5q68 0 99 30.5t47 112.5zM455 905l85 -133h-143l-113 133h171z" />
    <glyph glyph-name="Uacute" unicode="&#xda;" horiz-adv-x="694" 
d="M563 712h165l-89 -460q-27 -145 -103.5 -207.5t-216.5 -62.5q-269 0 -269 217q0 47 8 82l84 431h165l-88 -450q-5 -32 -5 -51q0 -48 27 -69.5t88 -21.5q68 0 99 30.5t47 112.5zM323 772l137 133h178l-164 -133h-151z" />
    <glyph glyph-name="Ucircumflex" unicode="&#xdb;" horiz-adv-x="694" 
d="M563 712h165l-89 -460q-27 -145 -103.5 -207.5t-216.5 -62.5q-269 0 -269 217q0 47 8 82l84 431h165l-88 -450q-5 -32 -5 -51q0 -48 27 -69.5t88 -21.5q68 0 99 30.5t47 112.5zM503 772l-47 62l-73 -62h-145l146 132h164l95 -132h-140z" />
    <glyph glyph-name="Udieresis" unicode="&#xdc;" horiz-adv-x="694" 
d="M563 712h165l-89 -460q-27 -145 -103.5 -207.5t-216.5 -62.5q-269 0 -269 217q0 47 8 82l84 431h165l-88 -450q-5 -32 -5 -51q0 -48 27 -69.5t88 -21.5q68 0 99 30.5t47 112.5zM264 822q0 47 22 67.5t69 20.5q71 0 71 -57q0 -46 -21.5 -67t-69.5 -21q-71 0 -71 57z
M476 822q0 47 22 67.5t69 20.5q70 0 70 -57q0 -46 -21 -67t-69 -21q-71 0 -71 57z" />
    <glyph glyph-name="Yacute" unicode="&#xdd;" horiz-adv-x="670" 
d="M92 712h176l90 -292l212 292h182l-331 -421l-57 -291h-165l56 290zM307 772l137 133h178l-164 -133h-151z" />
    <glyph glyph-name="Thorn" unicode="&#xde;" horiz-adv-x="636" 
d="M306 123h-114l-24 -123h-161l139 712h161l-23 -117h79q263 0 263 -191q0 -28 -6 -59q-20 -123 -100 -172.5t-214 -49.5zM257 461l-40 -204h101q72 0 102 19.5t40 70.5q4 17 4 38q0 42 -25.5 59t-81.5 17h-100z" />
    <glyph glyph-name="germandbls" unicode="&#xdf;" horiz-adv-x="597" 
d="M589 532q-10 -49 -35 -80t-69 -52q76 -34 76 -141q0 -26 -4 -49q-17 -109 -83 -160t-183 -51q-51 0 -86 6l46 121q18 -2 37 -2q25 0 40.5 3t32 12.5t27 31t16.5 56.5q3 17 3 31q0 72 -79 72h-54l41 125h26q70 0 90 51q10 23 10 58q0 59 -79 59q-49 0 -73 -24.5t-36 -87.5
l-99 -511h-156l101 524q22 113 87.5 169t186.5 56q96 0 159 -41.5t63 -124.5q0 -24 -6 -51z" />
    <glyph glyph-name="agrave" unicode="&#xe0;" horiz-adv-x="557" 
d="M217 -9q-103 0 -153 34t-50 106q0 34 6 59q33 146 217 146q96 0 133 -33l4 20q3 13 3 24q0 31 -22 43t-69 12q-142 0 -193 -2l45 123q26 2 164 2q113 0 167 -39t54 -123q0 -25 -7 -67l-37 -194q-12 -56 -37 -77.5t-81 -27.5q-70 -6 -144 -6zM258 229q-46 0 -66.5 -12
t-26.5 -44q-2 -7 -2 -24q0 -28 19.5 -37.5t66.5 -9.5q45 0 83 5l9 47q2 5 2 22q0 31 -21 42t-64 11zM363 734l79 -136h-143l-102 136h166z" />
    <glyph glyph-name="aacute" unicode="&#xe1;" horiz-adv-x="557" 
d="M217 -9q-103 0 -153 34t-50 106q0 34 6 59q33 146 217 146q96 0 133 -33l4 20q3 13 3 24q0 31 -22 43t-69 12q-142 0 -193 -2l45 123q26 2 164 2q113 0 167 -39t54 -123q0 -25 -7 -67l-37 -194q-12 -56 -37 -77.5t-81 -27.5q-70 -6 -144 -6zM258 229q-46 0 -66.5 -12
t-26.5 -44q-2 -7 -2 -24q0 -28 19.5 -37.5t66.5 -9.5q45 0 83 5l9 47q2 5 2 22q0 31 -21 42t-64 11zM233 598l129 136h171l-152 -136h-148z" />
    <glyph glyph-name="acircumflex" unicode="&#xe2;" horiz-adv-x="557" 
d="M217 -9q-103 0 -153 34t-50 106q0 34 6 59q33 146 217 146q96 0 133 -33l4 20q3 13 3 24q0 31 -22 43t-69 12q-142 0 -193 -2l45 123q26 2 164 2q113 0 167 -39t54 -123q0 -25 -7 -67l-37 -194q-12 -56 -37 -77.5t-81 -27.5q-70 -6 -144 -6zM258 229q-46 0 -66.5 -12
t-26.5 -44q-2 -7 -2 -24q0 -28 19.5 -37.5t66.5 -9.5q45 0 83 5l9 47q2 5 2 22q0 31 -21 42t-64 11zM397 598l-43 68l-68 -68h-137l139 139h155l84 -139h-130z" />
    <glyph glyph-name="atilde" unicode="&#xe3;" horiz-adv-x="557" 
d="M217 -9q-103 0 -153 34t-50 106q0 34 6 59q33 146 217 146q96 0 133 -33l4 20q3 13 3 24q0 31 -22 43t-69 12q-142 0 -193 -2l45 123q26 2 164 2q113 0 167 -39t54 -123q0 -25 -7 -67l-37 -194q-12 -56 -37 -77.5t-81 -27.5q-70 -6 -144 -6zM258 229q-46 0 -66.5 -12
t-26.5 -44q-2 -7 -2 -24q0 -28 19.5 -37.5t66.5 -9.5q45 0 83 5l9 47q2 5 2 22q0 31 -21 42t-64 11zM441 735h95l-3 -17q-12 -71 -39.5 -99t-77.5 -28q-38 0 -83 22l-19 10q-24 13 -44 13q-12 0 -18 -6t-11 -26l-2 -10h-94l3 17q12 70 40 98.5t77 28.5q38 0 83 -23l19 -9
q26 -14 44 -14q11 0 17 6.5t11 27.5z" />
    <glyph glyph-name="adieresis" unicode="&#xe4;" horiz-adv-x="557" 
d="M217 -9q-103 0 -153 34t-50 106q0 34 6 59q33 146 217 146q96 0 133 -33l4 20q3 13 3 24q0 31 -22 43t-69 12q-142 0 -193 -2l45 123q26 2 164 2q113 0 167 -39t54 -123q0 -25 -7 -67l-37 -194q-12 -56 -37 -77.5t-81 -27.5q-70 -6 -144 -6zM258 229q-46 0 -66.5 -12
t-26.5 -44q-2 -7 -2 -24q0 -28 19.5 -37.5t66.5 -9.5q45 0 83 5l9 47q2 5 2 22q0 31 -21 42t-64 11zM161 649q0 45 21 66t69 21q70 0 70 -55q0 -45 -21 -66t-69 -21q-70 0 -70 55zM364 649q0 46 21 66.5t69 20.5q69 0 69 -55q0 -45 -20.5 -66t-68.5 -21q-70 0 -70 55z" />
    <glyph glyph-name="aring" unicode="&#xe5;" horiz-adv-x="557" 
d="M217 -9q-103 0 -153 34t-50 106q0 34 6 59q33 146 217 146q96 0 133 -33l4 20q3 13 3 24q0 31 -22 43t-69 12q-142 0 -193 -2l45 123q26 2 164 2q113 0 167 -39t54 -123q0 -25 -7 -67l-37 -194q-12 -56 -37 -77.5t-81 -27.5q-70 -6 -144 -6zM258 229q-46 0 -66.5 -12
t-26.5 -44q-2 -7 -2 -24q0 -28 19.5 -37.5t66.5 -9.5q45 0 83 5l9 47q2 5 2 22q0 31 -21 42t-64 11zM333 566q-53 0 -85 25.5t-32 75.5q0 6 2 24q18 125 149 125q53 0 85 -25.5t32 -75.5q0 -6 -2 -24q-18 -125 -149 -125zM342 640q30 0 41.5 10.5t17.5 36.5q2 7 2 20
q0 34 -44 34q-30 0 -41.5 -10.5t-17.5 -36.5q-2 -7 -2 -20q0 -34 44 -34z" />
    <glyph glyph-name="ae" unicode="&#xe6;" horiz-adv-x="857" 
d="M600 217h-105q-1 -9 -1 -24q0 -45 21 -62.5t73 -17.5q109 0 184 5l-45 -115q-49 -5 -161 -5q-120 0 -168 60q-58 -60 -182 -60q-202 0 -202 142q0 17 5 49q13 71 65.5 106t154.5 35h136q2 14 2 19q0 31 -23 42t-72 11q-138 0 -189 -2l45 123q29 2 160 2q118 0 163 -51
q65 61 182 61q90 0 146.5 -34t56.5 -109q0 -22 -4 -39q-14 -74 -72.5 -105t-169.5 -31zM347 179l8 44h-104q-45 0 -64 -11.5t-23 -37.5q-2 -14 -2 -19q1 -24 19 -34t60 -10q94 0 106 68zM631 422q-49 0 -74 -24.5t-40 -79.5h84q49 0 67.5 8t27.5 31q4 11 4 25q-2 40 -69 40z
" />
    <glyph glyph-name="ccedilla" unicode="&#xe7;" horiz-adv-x="467" 
d="M266 -2q-128 0 -182 48t-54 139q0 43 9 91q15 76 42 126t69 76.5t89 36.5t114 10q13 0 59 -1t69 -1l-47 -125q-56 2 -93 2q-68 0 -98 -25t-44 -101q-10 -44 -10 -74q0 -46 22.5 -61.5t78.5 -15.5q93 0 131 2l-48 -125q-70 -2 -107 -2zM68 -223l28 74q50 -2 69 -2
q18 0 26 8q10 8 10 23q0 17 -26 17q-30 0 -54 -1l26 69q7 0 28 0.5t31 0.5q105 0 105 -76q0 -28 -14 -59q-17 -32 -50 -44.5t-92 -12.5q-60 0 -87 3z" />
    <glyph glyph-name="egrave" unicode="&#xe8;" horiz-adv-x="543" 
d="M284 200h-105v-16q1 -37 23 -54t73 -17q107 0 182 5l-45 -115q-51 -5 -167 -5q-117 0 -166 49.5t-49 137.5q0 42 9 87q14 80 43 134.5t69.5 82.5t83 39t96.5 11q201 0 201 -147q-2 -29 -7 -54q-17 -75 -74 -106.5t-167 -31.5zM319 426q-51 0 -77 -25.5t-42 -90.5h87
q49 0 68.5 9.5t27.5 35.5q4 11 4 26q0 45 -68 45zM364 734l79 -136h-143l-102 136h166z" />
    <glyph glyph-name="eacute" unicode="&#xe9;" horiz-adv-x="543" 
d="M284 200h-105v-16q1 -37 23 -54t73 -17q107 0 182 5l-45 -115q-51 -5 -167 -5q-117 0 -166 49.5t-49 137.5q0 42 9 87q14 80 43 134.5t69.5 82.5t83 39t96.5 11q201 0 201 -147q-2 -29 -7 -54q-17 -75 -74 -106.5t-167 -31.5zM319 426q-51 0 -77 -25.5t-42 -90.5h87
q49 0 68.5 9.5t27.5 35.5q4 11 4 26q0 45 -68 45zM249 598l129 136h171l-152 -136h-148z" />
    <glyph glyph-name="ecircumflex" unicode="&#xea;" horiz-adv-x="543" 
d="M284 200h-105v-16q1 -37 23 -54t73 -17q107 0 182 5l-45 -115q-51 -5 -167 -5q-117 0 -166 49.5t-49 137.5q0 42 9 87q14 80 43 134.5t69.5 82.5t83 39t96.5 11q201 0 201 -147q-2 -29 -7 -54q-17 -75 -74 -106.5t-167 -31.5zM319 426q-51 0 -77 -25.5t-42 -90.5h87
q49 0 68.5 9.5t27.5 35.5q4 11 4 26q0 45 -68 45zM389 598l-43 68l-68 -68h-137l139 139h155l84 -139h-130z" />
    <glyph glyph-name="edieresis" unicode="&#xeb;" horiz-adv-x="543" 
d="M284 200h-105v-16q1 -37 23 -54t73 -17q107 0 182 5l-45 -115q-51 -5 -167 -5q-117 0 -166 49.5t-49 137.5q0 42 9 87q14 80 43 134.5t69.5 82.5t83 39t96.5 11q201 0 201 -147q-2 -29 -7 -54q-17 -75 -74 -106.5t-167 -31.5zM319 426q-51 0 -77 -25.5t-42 -90.5h87
q49 0 68.5 9.5t27.5 35.5q4 11 4 26q0 45 -68 45zM159 649q0 45 21 66t69 21q70 0 70 -55q0 -45 -21 -66t-69 -21q-70 0 -70 55zM362 649q0 46 21 66.5t69 20.5q69 0 69 -55q0 -45 -20.5 -66t-68.5 -21q-70 0 -70 55z" />
    <glyph glyph-name="igrave" unicode="&#xec;" horiz-adv-x="255" 
d="M-3 0l102 523h159l-102 -523h-159zM198 734l79 -136h-143l-102 136h166z" />
    <glyph glyph-name="iacute" unicode="&#xed;" horiz-adv-x="255" 
d="M-3 0l102 523h159l-102 -523h-159zM96 598l129 136h171l-152 -136h-148z" />
    <glyph glyph-name="icircumflex" unicode="&#xee;" horiz-adv-x="255" 
d="M-3 0l102 523h159l-102 -523h-159zM241 598l-43 68l-68 -68h-137l139 139h155l84 -139h-130z" />
    <glyph glyph-name="idieresis" unicode="&#xef;" horiz-adv-x="255" 
d="M-3 0l102 523h159l-102 -523h-159zM16 649q0 45 21 66t69 21q70 0 70 -55q0 -45 -21 -66t-69 -21q-70 0 -70 55zM219 649q0 46 21 66.5t69 20.5q69 0 69 -55q0 -45 -21 -66t-68 -21q-70 0 -70 55z" />
    <glyph glyph-name="eth" unicode="&#xf0;" horiz-adv-x="594" 
d="M587 705l27 -77l-71 -27q27 -76 27 -161q0 -100 -30 -227q-14 -56 -33.5 -95.5t-52 -71t-81.5 -47t-117 -15.5q-226 0 -226 190q0 46 8 79q23 117 91.5 172.5t167.5 55.5q82 0 119 -35v15q0 43 -14 87l-104 -39l-27 77l93 35q-21 28 -49 55l126 82q37 -34 67 -83z
M308 356q-52 0 -75 -23t-37 -87q-8 -43 -8 -65q0 -41 20 -56.5t62 -15.5q50 0 73.5 23.5t37.5 86.5q8 31 8 66q0 40 -20 55.5t-61 15.5z" />
    <glyph glyph-name="ntilde" unicode="&#xf1;" horiz-adv-x="581" 
d="M218 318l-62 -318h-159l64 326q22 117 84 165t187 48q218 0 218 -167q0 -21 -7 -61l-60 -311h-159l62 318q4 17 4 34q0 58 -69 58q-50 0 -71.5 -19.5t-31.5 -72.5zM449 731h95l-3 -17q-12 -71 -39.5 -99t-77.5 -28q-38 0 -83 22l-19 10q-24 13 -44 13q-12 0 -18 -6
t-11 -26l-2 -10h-94l3 17q12 70 40 98.5t77 28.5q38 0 83 -23l19 -9q26 -14 44 -14q11 0 17 6.5t11 27.5z" />
    <glyph glyph-name="ograve" unicode="&#xf2;" horiz-adv-x="584" 
d="M267 109q53 0 77 28t40 108q12 59 12 92q0 44 -19 60.5t-61 16.5q-53 0 -76.5 -28t-39.5 -107q-12 -60 -12 -93q0 -43 18.5 -60t60.5 -17zM331 539q112 0 167.5 -46t55.5 -148q0 -41 -11 -98q-25 -141 -93 -202t-197 -61q-113 0 -168 45.5t-55 148.5q0 47 10 98
q26 141 94 202t197 61zM362 734l79 -136h-143l-102 136h166z" />
    <glyph glyph-name="oacute" unicode="&#xf3;" horiz-adv-x="584" 
d="M267 109q53 0 77 28t40 108q12 59 12 92q0 44 -19 60.5t-61 16.5q-53 0 -76.5 -28t-39.5 -107q-12 -60 -12 -93q0 -43 18.5 -60t60.5 -17zM331 539q112 0 167.5 -46t55.5 -148q0 -41 -11 -98q-25 -141 -93 -202t-197 -61q-113 0 -168 45.5t-55 148.5q0 47 10 98
q26 141 94 202t197 61zM243 598l129 136h171l-152 -136h-148z" />
    <glyph glyph-name="ocircumflex" unicode="&#xf4;" horiz-adv-x="584" 
d="M267 109q53 0 77 28t40 108q12 59 12 92q0 44 -19 60.5t-61 16.5q-53 0 -76.5 -28t-39.5 -107q-12 -60 -12 -93q0 -43 18.5 -60t60.5 -17zM331 539q112 0 167.5 -46t55.5 -148q0 -41 -11 -98q-25 -141 -93 -202t-197 -61q-113 0 -168 45.5t-55 148.5q0 47 10 98
q26 141 94 202t197 61zM407 598l-43 68l-68 -68h-137l139 139h155l84 -139h-130z" />
    <glyph glyph-name="otilde" unicode="&#xf5;" horiz-adv-x="584" 
d="M267 109q53 0 77 28t40 108q12 59 12 92q0 44 -19 60.5t-61 16.5q-53 0 -76.5 -28t-39.5 -107q-12 -60 -12 -93q0 -43 18.5 -60t60.5 -17zM331 539q112 0 167.5 -46t55.5 -148q0 -41 -11 -98q-25 -141 -93 -202t-197 -61q-113 0 -168 45.5t-55 148.5q0 47 10 98
q26 141 94 202t197 61zM457 735h95l-3 -17q-12 -71 -39.5 -99t-77.5 -28q-38 0 -83 22l-19 10q-24 13 -44 13q-12 0 -18 -6t-11 -26l-2 -10h-94l3 17q12 70 40 98.5t77 28.5q38 0 83 -23l19 -9q26 -14 44 -14q11 0 17 6.5t11 27.5z" />
    <glyph glyph-name="odieresis" unicode="&#xf6;" horiz-adv-x="584" 
d="M267 109q53 0 77 28t40 108q12 59 12 92q0 44 -19 60.5t-61 16.5q-53 0 -76.5 -28t-39.5 -107q-12 -60 -12 -93q0 -43 18.5 -60t60.5 -17zM331 539q112 0 167.5 -46t55.5 -148q0 -41 -11 -98q-25 -141 -93 -202t-197 -61q-113 0 -168 45.5t-55 148.5q0 47 10 98
q26 141 94 202t197 61zM178 649q0 45 21 66t69 21q70 0 70 -55q0 -45 -21 -66t-69 -21q-70 0 -70 55zM381 649q0 46 21 66.5t69 20.5q69 0 69 -55q0 -45 -21 -66t-68 -21q-70 0 -70 55z" />
    <glyph glyph-name="divide" unicode="&#xf7;" horiz-adv-x="595" 
d="M267 507q0 46 21 66.5t69 20.5q71 0 71 -58q0 -46 -21 -66.5t-69 -20.5q-71 0 -71 58zM197 146q0 46 20.5 66.5t68.5 20.5q72 0 72 -58q0 -46 -21 -66.5t-69 -20.5q-71 0 -71 58zM532 276h-465l25 130h466z" />
    <glyph glyph-name="oslash" unicode="&#xf8;" horiz-adv-x="584" 
d="M331 539q55 0 99 -12l45 63h108l-76 -106q47 -47 47 -139q0 -41 -11 -98q-25 -141 -93 -202t-197 -61q-52 0 -98 11l-44 -62h-108l74 104q-47 47 -47 141q0 47 10 98q26 141 94 202t197 61zM182 182l168 234q-15 3 -33 3q-57 0 -81 -28.5t-41 -110.5q-12 -62 -13 -98z
M266 104q57 0 81 28.5t42 111.5q11 57 13 94l-167 -232q18 -2 31 -2z" />
    <glyph glyph-name="ugrave" unicode="&#xf9;" horiz-adv-x="579" 
d="M361 205l62 318h159l-63 -325q-22 -118 -84 -166t-187 -48q-216 0 -216 167q0 33 6 61l61 311h159l-62 -318q-4 -17 -4 -34q0 -31 16.5 -44.5t50.5 -13.5q50 0 71 18.5t31 73.5zM370 734l79 -136h-143l-102 136h166z" />
    <glyph glyph-name="uacute" unicode="&#xfa;" horiz-adv-x="579" 
d="M361 205l62 318h159l-63 -325q-22 -118 -84 -166t-187 -48q-216 0 -216 167q0 33 6 61l61 311h159l-62 -318q-4 -17 -4 -34q0 -31 16.5 -44.5t50.5 -13.5q50 0 71 18.5t31 73.5zM237 598l129 136h171l-152 -136h-148z" />
    <glyph glyph-name="ucircumflex" unicode="&#xfb;" horiz-adv-x="579" 
d="M361 205l62 318h159l-63 -325q-22 -118 -84 -166t-187 -48q-216 0 -216 167q0 33 6 61l61 311h159l-62 -318q-4 -17 -4 -34q0 -31 16.5 -44.5t50.5 -13.5q50 0 71 18.5t31 73.5zM407 598l-43 68l-68 -68h-137l139 139h155l84 -139h-130z" />
    <glyph glyph-name="udieresis" unicode="&#xfc;" horiz-adv-x="579" 
d="M361 205l62 318h159l-63 -325q-22 -118 -84 -166t-187 -48q-216 0 -216 167q0 33 6 61l61 311h159l-62 -318q-4 -17 -4 -34q0 -31 16.5 -44.5t50.5 -13.5q50 0 71 18.5t31 73.5zM178 649q0 45 21 66t69 21q70 0 70 -55q0 -45 -21 -66t-69 -21q-70 0 -70 55zM381 649
q0 46 21 66.5t69 20.5q69 0 69 -55q0 -45 -21 -66t-68 -21q-70 0 -70 55z" />
    <glyph glyph-name="yacute" unicode="&#xfd;" horiz-adv-x="580" 
d="M333 45l2 10q-41 -32 -113 -32q-182 0 -182 159q0 29 6 64l54 277h159l-54 -279q-4 -20 -4 -34q0 -31 16.5 -44.5t50.5 -13.5q50 0 71.5 18.5t31.5 73.5l54 279h159l-92 -471q-24 -121 -89.5 -175t-187.5 -54q-141 0 -213 3l50 129q147 -3 159 -3q56 0 83.5 20.5
t38.5 72.5zM241 598l129 136h171l-152 -136h-148z" />
    <glyph glyph-name="thorn" unicode="&#xfe;" horiz-adv-x="593" 
d="M553 244q-26 -135 -90.5 -197.5t-173.5 -62.5q-89 0 -128 39l-39 -198h-159l178 918h159l-45 -235q39 30 112 30q196 0 196 -194q0 -47 -10 -100zM326 414q-49 0 -73.5 -25.5t-41.5 -106.5q-13 -63 -13 -94q0 -45 19.5 -62t63.5 -17q50 0 73 26.5t41 107.5q12 59 12 92
q0 47 -19.5 63t-61.5 16z" />
    <glyph glyph-name="ydieresis" unicode="&#xff;" horiz-adv-x="580" 
d="M333 45l2 10q-41 -32 -113 -32q-182 0 -182 159q0 29 6 64l54 277h159l-54 -279q-4 -20 -4 -34q0 -31 16.5 -44.5t50.5 -13.5q50 0 71.5 18.5t31.5 73.5l54 279h159l-92 -471q-24 -121 -89.5 -175t-187.5 -54q-141 0 -213 3l50 129q147 -3 159 -3q56 0 83.5 20.5
t38.5 72.5zM180 649q0 45 21 66t69 21q70 0 70 -55q0 -45 -21 -66t-69 -21q-70 0 -70 55zM383 649q0 46 21 66.5t69 20.5q69 0 69 -55q0 -45 -21 -66t-68 -21q-70 0 -70 55z" />
    <glyph glyph-name="Amacron" unicode="&#x100;" horiz-adv-x="718" 
d="M493 0l-23 172h-251l-91 -172h-168l400 712h181l116 -712h-164zM423 563l-140 -262h173zM293 783l21 108h316l-20 -108h-317z" />
    <glyph glyph-name="amacron" unicode="&#x101;" horiz-adv-x="557" 
d="M217 -9q-103 0 -153 34t-50 106q0 34 6 59q33 146 217 146q96 0 133 -33l4 20q3 13 3 24q0 31 -22 43t-69 12q-142 0 -193 -2l45 123q26 2 164 2q113 0 167 -39t54 -123q0 -25 -7 -67l-37 -194q-12 -56 -37 -77.5t-81 -27.5q-70 -6 -144 -6zM258 229q-46 0 -66.5 -12
t-26.5 -44q-2 -7 -2 -24q0 -28 19.5 -37.5t66.5 -9.5q45 0 83 5l9 47q2 5 2 22q0 31 -21 42t-64 11zM173 605l20 107h320l-21 -107h-319z" />
    <glyph glyph-name="Abreve" unicode="&#x102;" horiz-adv-x="718" 
d="M493 0l-23 172h-251l-91 -172h-168l400 712h181l116 -712h-164zM423 563l-140 -262h173zM467 852q30 0 44 14t19 48h117q-15 -77 -58.5 -113t-129.5 -36q-159 0 -159 117q0 14 2 32h116q-1 -8 -1 -18q0 -44 50 -44z" />
    <glyph glyph-name="abreve" unicode="&#x103;" horiz-adv-x="557" 
d="M217 -9q-103 0 -153 34t-50 106q0 34 6 59q33 146 217 146q96 0 133 -33l4 20q3 13 3 24q0 31 -22 43t-69 12q-142 0 -193 -2l45 123q26 2 164 2q113 0 167 -39t54 -123q0 -25 -7 -67l-37 -194q-12 -56 -37 -77.5t-81 -27.5q-70 -6 -144 -6zM258 229q-46 0 -66.5 -12
t-26.5 -44q-2 -7 -2 -24q0 -28 19.5 -37.5t66.5 -9.5q45 0 83 5l9 47q2 5 2 22q0 31 -21 42t-64 11zM344 670q29 0 42.5 12.5t18.5 42.5h119q-15 -73 -58.5 -107.5t-128.5 -34.5q-160 0 -160 113q0 16 3 29h119q-1 -7 -1 -16q0 -39 46 -39z" />
    <glyph glyph-name="Aogonek" unicode="&#x104;" horiz-adv-x="718" 
d="M493 0l-23 172h-251l-91 -172h-168l400 712h181l116 -712q-52 -37 -71.5 -54.5t-19.5 -33.5q0 -18 33 -18h37l-45 -107h-43q-117 0 -117 71q0 39 22 69t83 73h-43zM423 563l-140 -262h173z" />
    <glyph glyph-name="aogonek" unicode="&#x105;" horiz-adv-x="557" 
d="M217 -9q-103 0 -153 34t-50 106q0 34 6 59q33 146 217 146q96 0 133 -33l4 20q3 13 3 24q0 31 -22 43t-69 12q-142 0 -193 -2l45 123q26 2 164 2q113 0 167 -39t54 -123q0 -25 -7 -67l-37 -194q-10 -53 -41 -81q-52 -48 -69 -68.5t-17 -40.5q0 -18 33 -18h36l-44 -107
h-44q-116 0 -116 71q0 37 16 67t56 68q-46 -2 -72 -2zM258 229q-46 0 -66.5 -12t-26.5 -44q-2 -7 -2 -24q0 -28 19.5 -37.5t66.5 -9.5q45 0 83 5l9 47q2 5 2 22q0 31 -21 42t-64 11z" />
    <glyph glyph-name="Cacute" unicode="&#x106;" horiz-adv-x="564" 
d="M522 140l-53 -139q-53 -3 -136 -3q-154 0 -221 64t-67 185q0 55 12 120q36 195 132 271t271 76q75 0 158 -3l-53 -139q-51 3 -115 3q-103 0 -151 -45.5t-73 -171.5q-12 -60 -12 -100q0 -68 35.5 -94t111.5 -26q33 0 82.5 1t78.5 1zM318 772l137 133h178l-164 -133h-151z
" />
    <glyph glyph-name="cacute" unicode="&#x107;" horiz-adv-x="467" 
d="M266 -2q-128 0 -182 48t-54 139q0 43 9 91q15 76 42 126t69 76.5t89 36.5t114 10q13 0 59 -1t69 -1l-47 -125q-56 2 -93 2q-68 0 -98 -25t-44 -101q-10 -44 -10 -74q0 -46 22.5 -61.5t78.5 -15.5q93 0 131 2l-48 -125q-70 -2 -107 -2zM223 598l129 136h171l-152 -136
h-148z" />
    <glyph glyph-name="Ccircumflex" unicode="&#x108;" horiz-adv-x="564" 
d="M522 140l-53 -139q-53 -3 -136 -3q-154 0 -221 64t-67 185q0 55 12 120q36 195 132 271t271 76q75 0 158 -3l-53 -139q-51 3 -115 3q-103 0 -151 -45.5t-73 -171.5q-12 -60 -12 -100q0 -68 35.5 -94t111.5 -26q33 0 82.5 1t78.5 1zM493 772l-47 62l-73 -62h-145l146 132
h164l95 -132h-140z" />
    <glyph glyph-name="ccircumflex" unicode="&#x109;" horiz-adv-x="467" 
d="M266 -2q-128 0 -182 48t-54 139q0 43 9 91q15 76 42 126t69 76.5t89 36.5t114 10q13 0 59 -1t69 -1l-47 -125q-56 2 -93 2q-68 0 -98 -25t-44 -101q-10 -44 -10 -74q0 -46 22.5 -61.5t78.5 -15.5q93 0 131 2l-48 -125q-70 -2 -107 -2zM364 598l-43 68l-68 -68h-137
l139 139h155l84 -139h-130z" />
    <glyph glyph-name="Cdotaccent" unicode="&#x10a;" horiz-adv-x="564" 
d="M522 140l-53 -139q-53 -3 -136 -3q-154 0 -221 64t-67 185q0 55 12 120q36 195 132 271t271 76q75 0 158 -3l-53 -139q-51 3 -115 3q-103 0 -151 -45.5t-73 -171.5q-12 -60 -12 -100q0 -68 35.5 -94t111.5 -26q33 0 82.5 1t78.5 1zM453 917q80 0 80 -59q0 -51 -26 -72
t-78 -21q-80 0 -80 59q0 93 104 93z" />
    <glyph glyph-name="cdotaccent" unicode="&#x10b;" horiz-adv-x="467" 
d="M266 -2q-128 0 -182 48t-54 139q0 43 9 91q15 76 42 126t69 76.5t89 36.5t114 10q13 0 59 -1t69 -1l-47 -125q-56 2 -93 2q-68 0 -98 -25t-44 -101q-10 -44 -10 -74q0 -46 22.5 -61.5t78.5 -15.5q93 0 131 2l-48 -125q-70 -2 -107 -2zM347 743q80 0 80 -59
q0 -51 -25.5 -72t-77.5 -21q-80 0 -80 59q0 93 103 93z" />
    <glyph glyph-name="Ccaron" unicode="&#x10c;" horiz-adv-x="564" 
d="M522 140l-53 -139q-53 -3 -136 -3q-154 0 -221 64t-67 185q0 55 12 120q36 195 132 271t271 76q75 0 158 -3l-53 -139q-51 3 -115 3q-103 0 -151 -45.5t-73 -171.5q-12 -60 -12 -100q0 -68 35.5 -94t111.5 -26q33 0 82.5 1t78.5 1zM397 904l47 -63l72 63h146l-146 -132
h-164l-95 132h140z" />
    <glyph glyph-name="ccaron" unicode="&#x10d;" horiz-adv-x="467" 
d="M266 -2q-128 0 -182 48t-54 139q0 43 9 91q15 76 42 126t69 76.5t89 36.5t114 10q13 0 59 -1t69 -1l-47 -125q-56 2 -93 2q-68 0 -98 -25t-44 -101q-10 -44 -10 -74q0 -46 22.5 -61.5t78.5 -15.5q93 0 131 2l-48 -125q-70 -2 -107 -2zM299 737l42 -67l68 67h137
l-139 -139h-155l-84 139h131z" />
    <glyph glyph-name="Dcaron" unicode="&#x10e;" horiz-adv-x="695" 
d="M7 0l139 712h233q155 0 231 -61.5t76 -195.5q0 -44 -11 -108q-14 -83 -41.5 -144t-63.5 -99.5t-85.5 -62t-102.5 -32.5t-120 -9h-255zM362 574h-78l-86 -436h83q52 0 85.5 7.5t63 30t48 66t30.5 113.5q10 53 10 94q0 72 -37 98.5t-119 26.5zM392 904l47 -63l72 63h146
l-146 -132h-164l-95 132h140z" />
    <glyph glyph-name="dcaron" unicode="&#x10f;" horiz-adv-x="696" 
d="M303 539q82 0 122 -38l47 242h159l-125 -641q-12 -59 -38 -80t-88 -27q-37 -4 -100 -4q-122 0 -186 46t-64 156q0 44 10 95q26 140 93 195.5t170 55.5zM281 116q32 0 70 5l34 176q5 28 5 45q0 40 -20 56t-61 16q-48 0 -72 -26.5t-39 -102.5q-10 -47 -10 -84
q0 -48 22.5 -66.5t70.5 -18.5zM671 743h132l-72 -195h-103z" />
    <glyph glyph-name="Dcroat" unicode="&#x110;" horiz-adv-x="714" 
d="M26 0l59 302h-68l22 115h68l58 295h233q155 0 231 -61.5t76 -195.5q0 -44 -11 -108q-14 -83 -41.5 -144t-63.5 -99.5t-85.5 -62t-102.5 -32.5t-120 -9h-255zM381 574h-78l-31 -157h132l-22 -115h-133l-32 -164h83q52 0 85.5 7.5t62.5 30.5t47.5 66t31.5 113q10 50 10 94
q0 72 -37 98.5t-119 26.5z" />
    <glyph glyph-name="dslash" unicode="&#x111;" horiz-adv-x="585" 
d="M303 538q83 0 122 -37l15 80h-160l19 98h160l13 64h159l-13 -64h49l-18 -98h-50l-93 -479q-12 -59 -38 -80t-88 -27q-37 -4 -100 -4q-122 0 -186 46t-64 156q0 44 10 95q26 139 93 194.5t170 55.5zM281 116q32 0 70 5l34 176q5 28 5 45q0 40 -20 55.5t-61 15.5
q-48 0 -72 -26t-39 -102q-10 -47 -10 -84q0 -48 22.5 -66.5t70.5 -18.5z" />
    <glyph glyph-name="Emacron" unicode="&#x112;" horiz-adv-x="603" 
d="M507 0h-500l139 712h509l-53 -139h-325l-27 -141h319l-53 -139h-292l-31 -154h367zM249 783l21 108h316l-20 -108h-317z" />
    <glyph glyph-name="emacron" unicode="&#x113;" horiz-adv-x="543" 
d="M284 200h-105v-16q1 -37 23 -54t73 -17q107 0 182 5l-45 -115q-51 -5 -167 -5q-117 0 -166 49.5t-49 137.5q0 42 9 87q14 80 43 134.5t69.5 82.5t83 39t96.5 11q201 0 201 -147q-2 -29 -7 -54q-17 -75 -74 -106.5t-167 -31.5zM319 426q-51 0 -77 -25.5t-42 -90.5h87
q49 0 68.5 9.5t27.5 35.5q4 11 4 26q0 45 -68 45zM164 605l20 107h320l-21 -107h-319z" />
    <glyph glyph-name="Ebreve" unicode="&#x114;" horiz-adv-x="603" 
d="M507 0h-500l139 712h509l-53 -139h-325l-27 -141h319l-53 -139h-292l-31 -154h367zM419 852q30 0 44 14t19 48h117q-15 -77 -58.5 -113t-129.5 -36q-159 0 -159 117q0 14 2 32h116q-1 -8 -1 -18q0 -44 50 -44z" />
    <glyph glyph-name="ebreve" unicode="&#x115;" horiz-adv-x="543" 
d="M284 200h-105v-16q1 -37 23 -54t73 -17q107 0 182 5l-45 -115q-51 -5 -167 -5q-117 0 -166 49.5t-49 137.5q0 42 9 87q14 80 43 134.5t69.5 82.5t83 39t96.5 11q201 0 201 -147q-2 -29 -7 -54q-17 -75 -74 -106.5t-167 -31.5zM319 426q-51 0 -77 -25.5t-42 -90.5h87
q49 0 68.5 9.5t27.5 35.5q4 11 4 26q0 45 -68 45zM348 670q29 0 42.5 12.5t18.5 42.5h119q-15 -73 -58.5 -107.5t-128.5 -34.5q-160 0 -160 113q0 16 3 29h119q-1 -7 -1 -16q0 -39 46 -39z" />
    <glyph glyph-name="Edotaccent" unicode="&#x116;" horiz-adv-x="603" 
d="M507 0h-500l139 712h509l-53 -139h-325l-27 -141h319l-53 -139h-292l-31 -154h367zM429 917q80 0 80 -59q0 -51 -26 -72t-78 -21q-80 0 -80 59q0 93 104 93z" />
    <glyph glyph-name="edotaccent" unicode="&#x117;" horiz-adv-x="543" 
d="M284 200h-105v-16q1 -37 23 -54t73 -17q107 0 182 5l-45 -115q-51 -5 -167 -5q-117 0 -166 49.5t-49 137.5q0 42 9 87q14 80 43 134.5t69.5 82.5t83 39t96.5 11q201 0 201 -147q-2 -29 -7 -54q-17 -75 -74 -106.5t-167 -31.5zM319 426q-51 0 -77 -25.5t-42 -90.5h87
q49 0 68.5 9.5t27.5 35.5q4 11 4 26q0 45 -68 45zM363 743q80 0 80 -59q0 -51 -25.5 -72t-77.5 -21q-80 0 -80 59q0 93 103 93z" />
    <glyph glyph-name="Eogonek" unicode="&#x118;" horiz-adv-x="603" 
d="M193 139h367l-53 -139q-52 -37 -71.5 -54.5t-19.5 -33.5q0 -18 33 -18h37l-45 -107h-43q-117 0 -117 71q0 38 22.5 69t82.5 73h-379l139 712h509l-53 -139h-325l-27 -141h319l-53 -139h-292z" />
    <glyph glyph-name="eogonek" unicode="&#x119;" horiz-adv-x="543" 
d="M284 200h-105v-16q1 -37 23 -54t73 -17q107 0 182 5l-45 -115q-49 -35 -69.5 -55t-20.5 -36q0 -18 33 -18h36l-44 -107h-44q-116 0 -116 71q0 38 21 69.5t76 70.5h-39q-117 0 -166 49.5t-49 137.5q0 42 9 87q14 80 43 134.5t69.5 82.5t83 39t96.5 11q201 0 201 -147
q-2 -29 -7 -54q-17 -75 -74 -106.5t-167 -31.5zM319 426q-51 0 -77 -25.5t-42 -90.5h87q49 0 68.5 9.5t27.5 35.5q4 11 4 26q0 45 -68 45z" />
    <glyph glyph-name="Ecaron" unicode="&#x11a;" horiz-adv-x="603" 
d="M507 0h-500l139 712h509l-53 -139h-325l-27 -141h319l-53 -139h-292l-31 -154h367zM372 904l47 -63l72 63h146l-146 -132h-164l-95 132h140z" />
    <glyph glyph-name="ecaron" unicode="&#x11b;" horiz-adv-x="543" 
d="M284 200h-105v-16q1 -37 23 -54t73 -17q107 0 182 5l-45 -115q-51 -5 -167 -5q-117 0 -166 49.5t-49 137.5q0 42 9 87q14 80 43 134.5t69.5 82.5t83 39t96.5 11q201 0 201 -147q-2 -29 -7 -54q-17 -75 -74 -106.5t-167 -31.5zM319 426q-51 0 -77 -25.5t-42 -90.5h87
q49 0 68.5 9.5t27.5 35.5q4 11 4 26q0 45 -68 45zM301 737l42 -67l68 67h137l-139 -139h-155l-84 139h131z" />
    <glyph glyph-name="Gcircumflex" unicode="&#x11c;" horiz-adv-x="662" 
d="M224 358q-12 -60 -12 -101q0 -66 34 -93t113 -27q47 0 67 1l25 129h-103l53 136h242l-57 -296q-10 -52 -33 -74.5t-68 -27.5q-44 -6 -151 -6q-153 0 -221 64t-68 183q0 53 14 123q20 103 54 170.5t87.5 106t118 53.5t155.5 15q126 0 198 -3l-53 -138q-57 3 -168 3
q-106 0 -154.5 -45t-72.5 -173zM505 772l-47 62l-73 -62h-145l146 132h164l95 -132h-140z" />
    <glyph glyph-name="gcircumflex" unicode="&#x11d;" horiz-adv-x="593" 
d="M345 43l2 10q-41 -30 -116 -30q-196 0 -196 188q0 49 8 84q24 129 92.5 186.5t191.5 57.5q113 0 171 -44t58 -140q0 -37 -9 -84l-43 -222q-23 -119 -89 -172.5t-188 -53.5q-140 0 -212 3l50 129q141 -3 159 -3q57 0 84 20t37 71zM315 410q-51 0 -75.5 -22.5t-38.5 -88.5
q-9 -45 -9 -74q0 -41 20 -57t62 -16q51 0 75.5 22.5t38.5 88.5q9 45 9 74q0 41 -20 57t-62 16zM407 598l-43 68l-68 -68h-137l139 139h155l84 -139h-130z" />
    <glyph glyph-name="Gbreve" unicode="&#x11e;" horiz-adv-x="662" 
d="M224 358q-12 -60 -12 -101q0 -66 34 -93t113 -27q47 0 67 1l25 129h-103l53 136h242l-57 -296q-10 -52 -33 -74.5t-68 -27.5q-44 -6 -151 -6q-153 0 -221 64t-68 183q0 53 14 123q20 103 54 170.5t87.5 106t118 53.5t155.5 15q126 0 198 -3l-53 -138q-57 3 -168 3
q-106 0 -154.5 -45t-72.5 -173zM452 852q30 0 44 14t19 48h117q-15 -77 -58.5 -113t-129.5 -36q-159 0 -159 117q0 14 2 32h116q-1 -8 -1 -18q0 -44 50 -44z" />
    <glyph glyph-name="gbreve" unicode="&#x11f;" horiz-adv-x="593" 
d="M345 43l2 10q-41 -30 -116 -30q-196 0 -196 188q0 49 8 84q24 129 92.5 186.5t191.5 57.5q113 0 171 -44t58 -140q0 -37 -9 -84l-43 -222q-23 -119 -89 -172.5t-188 -53.5q-140 0 -212 3l50 129q141 -3 159 -3q57 0 84 20t37 71zM315 410q-51 0 -75.5 -22.5t-38.5 -88.5
q-9 -45 -9 -74q0 -41 20 -57t62 -16q51 0 75.5 22.5t38.5 88.5q9 45 9 74q0 41 -20 57t-62 16zM360 670q29 0 42.5 12.5t18.5 42.5h119q-15 -73 -58.5 -107.5t-128.5 -34.5q-160 0 -160 113q0 16 3 29h119q-1 -7 -1 -16q0 -39 46 -39z" />
    <glyph glyph-name="Gdotaccent" unicode="&#x120;" horiz-adv-x="662" 
d="M224 358q-12 -60 -12 -101q0 -66 34 -93t113 -27q47 0 67 1l25 129h-103l53 136h242l-57 -296q-10 -52 -33 -74.5t-68 -27.5q-44 -6 -151 -6q-153 0 -221 64t-68 183q0 53 14 123q20 103 54 170.5t87.5 106t118 53.5t155.5 15q126 0 198 -3l-53 -138q-57 3 -168 3
q-106 0 -154.5 -45t-72.5 -173zM467 917q80 0 80 -59q0 -51 -26 -72t-78 -21q-80 0 -80 59q0 93 104 93z" />
    <glyph glyph-name="gdotaccent" unicode="&#x121;" horiz-adv-x="593" 
d="M345 43l2 10q-41 -30 -116 -30q-196 0 -196 188q0 49 8 84q24 129 92.5 186.5t191.5 57.5q113 0 171 -44t58 -140q0 -37 -9 -84l-43 -222q-23 -119 -89 -172.5t-188 -53.5q-140 0 -212 3l50 129q141 -3 159 -3q57 0 84 20t37 71zM315 410q-51 0 -75.5 -22.5t-38.5 -88.5
q-9 -45 -9 -74q0 -41 20 -57t62 -16q51 0 75.5 22.5t38.5 88.5q9 45 9 74q0 41 -20 57t-62 16zM370 743q80 0 80 -59q0 -51 -25.5 -72t-77.5 -21q-80 0 -80 59q0 93 103 93z" />
    <glyph glyph-name="Gcommaaccent" unicode="&#x122;" horiz-adv-x="662" 
d="M224 358q-12 -60 -12 -101q0 -66 34 -93t113 -27q47 0 67 1l25 129h-103l53 136h242l-57 -296q-10 -52 -33 -74.5t-68 -27.5q-44 -6 -151 -6q-153 0 -221 64t-68 183q0 53 14 123q20 103 54 170.5t87.5 106t118 53.5t155.5 15q126 0 198 -3l-53 -138q-57 3 -168 3
q-106 0 -154.5 -45t-72.5 -173zM293 -261h-104l50 88q-19 14 -19 43q0 76 91 76q68 0 68 -55q0 -35 -33 -79z" />
    <glyph glyph-name="gcommaaccent" unicode="&#x123;" horiz-adv-x="593" 
d="M345 43l2 10q-41 -30 -116 -30q-196 0 -196 188q0 49 8 84q24 129 92.5 186.5t191.5 57.5q113 0 171 -44t58 -140q0 -37 -9 -84l-43 -222q-23 -119 -89 -172.5t-188 -53.5q-140 0 -212 3l50 129q141 -3 159 -3q57 0 84 20t37 71zM315 410q-51 0 -75.5 -22.5t-38.5 -88.5
q-9 -45 -9 -74q0 -41 20 -57t62 -16q51 0 75.5 22.5t38.5 88.5q9 45 9 74q0 41 -20 57t-62 16zM357 797h103l-50 -87q20 -14 20 -43q0 -36 -22.5 -56.5t-68.5 -20.5q-69 0 -69 56q0 33 33 79z" />
    <glyph glyph-name="Hcircumflex" unicode="&#x124;" horiz-adv-x="715" 
d="M441 0l57 290h-270l-56 -290h-165l139 712h165l-54 -277h269l54 277h165l-139 -712h-165zM508 772l-47 62l-73 -62h-145l146 132h164l95 -132h-140z" />
    <glyph glyph-name="hcircumflex" unicode="&#x125;" horiz-adv-x="582" 
d="M218 318l-62 -318h-159l145 743h159l-46 -235q42 31 116 31q84 0 132 -40t48 -120q0 -32 -7 -64l-61 -315h-159l62 318q4 17 4 34q0 31 -17 44.5t-52 13.5q-50 0 -71.5 -19.5t-31.5 -72.5zM284 772h-137l143 121h147l97 -121h-130l-50 56z" />
    <glyph glyph-name="Hbar" unicode="&#x126;" horiz-adv-x="754" 
d="M460 0l57 290h-270l-56 -290h-165l101 517h-68l22 112h68l16 83h165l-16 -83h269l16 83h165l-16 -83h69l-22 -112h-69l-101 -517h-165zM276 435h269l16 82h-269z" />
    <glyph glyph-name="hbar" unicode="&#x127;" horiz-adv-x="582" 
d="M218 318l-62 -318h-159l113 581h-49l19 98h49l13 64h159l-13 -64h159l-19 -98h-159l-14 -73q42 31 116 31q84 0 132 -40t48 -120q0 -32 -7 -64l-61 -315h-159l62 318q4 17 4 34q0 31 -17 44.5t-52 13.5q-50 0 -71.5 -19.5t-31.5 -72.5z" />
    <glyph glyph-name="Itilde" unicode="&#x128;" horiz-adv-x="281" 
d="M146 712h165l-139 -712h-165zM138 763h-96l3 17q14 75 42.5 104t79.5 29q38 0 86 -25l20 -10q26 -14 46 -14q12 0 18.5 7t11.5 29l2 10h96l-3 -17q-14 -75 -42.5 -103.5t-79.5 -28.5q-41 0 -86 24l-20 10q-26 14 -47 14q-12 0 -18 -7t-11 -29z" />
    <glyph glyph-name="itilde" unicode="&#x129;" horiz-adv-x="255" 
d="M-3 0l102 523h159l-102 -523h-159zM297 735h95l-3 -17q-12 -71 -39.5 -99t-77.5 -28q-38 0 -83 22l-19 10q-24 13 -44 13q-12 0 -18 -6t-11 -26l-2 -10h-94l3 17q12 70 40 98.5t77 28.5q38 0 83 -23l19 -9q26 -14 44 -14q11 0 17 6.5t11 27.5z" />
    <glyph glyph-name="Imacron" unicode="&#x12a;" horiz-adv-x="281" 
d="M146 712h165l-139 -712h-165zM76 783l21 108h316l-20 -108h-317z" />
    <glyph glyph-name="imacron" unicode="&#x12b;" horiz-adv-x="255" 
d="M-3 0l102 523h159l-102 -523h-159zM27 605l20 107h320l-21 -107h-319z" />
    <glyph glyph-name="Ibreve" unicode="&#x12c;" horiz-adv-x="281" 
d="M146 712h165l-139 -712h-165zM252 852q30 0 44 14t19 48h117q-15 -77 -58.5 -113t-129.5 -36q-159 0 -159 117q0 14 2 32h116q-1 -8 -1 -18q0 -44 50 -44z" />
    <glyph glyph-name="ibreve" unicode="&#x12d;" horiz-adv-x="255" 
d="M-3 0l102 523h159l-102 -523h-159zM199 670q29 0 42.5 12.5t18.5 42.5h119q-15 -73 -58.5 -107.5t-128.5 -34.5q-160 0 -160 113q0 16 3 29h119q-1 -7 -1 -16q0 -39 46 -39z" />
    <glyph glyph-name="Iogonek" unicode="&#x12e;" horiz-adv-x="281" 
d="M146 712h165l-139 -712q-52 -37 -71.5 -54.5t-19.5 -33.5q0 -18 33 -18h37l-45 -107h-43q-117 0 -117 71q0 39 22 69t83 73h-44z" />
    <glyph glyph-name="iogonek" unicode="&#x12f;" horiz-adv-x="255" 
d="M-3 0l102 523h159l-102 -523q-52 -37 -71 -54.5t-19 -33.5q0 -18 33 -18h36l-44 -107h-44q-116 0 -116 71q0 39 22 69.5t82 72.5h-38zM211 743q80 0 80 -59q0 -51 -25.5 -72t-77.5 -21q-80 0 -80 59q0 93 103 93z" />
    <glyph glyph-name="Idot" unicode="&#x130;" horiz-adv-x="281" 
d="M146 712h165l-139 -712h-165zM259 917q80 0 80 -59q0 -51 -26 -72t-78 -21q-80 0 -80 59q0 93 104 93z" />
    <glyph glyph-name="dotlessi" unicode="&#x131;" horiz-adv-x="255" 
d="M-3 0l102 523h159l-102 -523h-159z" />
    <glyph glyph-name="IJ" unicode="&#x132;" horiz-adv-x="752" 
d="M146 712h165l-139 -712h-165zM528 254l89 458h165l-92 -469q-26 -136 -90 -190.5t-201 -54.5q-96 0 -150 2l52 139q31 -1 85 -1q65 0 96.5 23.5t45.5 92.5z" />
    <glyph glyph-name="ij" unicode="&#x133;" horiz-adv-x="510" 
d="M-3 0l102 523h159l-102 -523h-159zM211 743q80 0 80 -59q0 -51 -25.5 -72t-77.5 -21q-80 0 -80 59q0 93 103 93zM260 42l94 481h159l-98 -501q-22 -110 -76 -154.5t-153 -44.5q-85 0 -108 2l46 124q16 -1 43 -1q42 0 62.5 20t30.5 74zM466 743q80 0 80 -59
q0 -51 -25.5 -72t-77.5 -21q-80 0 -80 59q0 93 103 93z" />
    <glyph glyph-name="Jcircumflex" unicode="&#x134;" horiz-adv-x="471" 
d="M247 254l89 458h165l-92 -469q-26 -136 -90 -190.5t-201 -54.5q-96 0 -150 2l52 139q31 -1 85 -1q65 0 96.5 23.5t45.5 92.5zM491 772l-47 62l-73 -62h-145l146 132h164l95 -132h-140z" />
    <glyph glyph-name="jcircumflex" unicode="&#x135;" horiz-adv-x="255" 
d="M5 42l94 481h159l-98 -501q-22 -110 -76 -154.5t-153 -44.5q-85 0 -108 2l46 124q16 -1 43 -1q42 0 62.5 20t30.5 74zM241 598l-43 68l-68 -68h-137l139 139h155l84 -139h-130z" />
    <glyph glyph-name="Kcommaaccent" unicode="&#x136;" horiz-adv-x="660" 
d="M720 712l-345 -349l242 -363h-196l-198 304l-59 -304h-157l139 712h156l-56 -290l284 290h190zM262 -261h-104l50 88q-19 14 -19 43q0 76 91 76q68 0 68 -55q0 -35 -33 -79z" />
    <glyph glyph-name="kcommaaccent" unicode="&#x137;" horiz-adv-x="570" 
d="M601 523l-263 -248l184 -275h-182l-146 229l-44 -229h-153l145 743h152l-79 -409l198 189h188zM220 -261h-103l50 88q-20 15 -20 43q0 76 91 76q69 0 69 -55q0 -35 -33 -79z" />
    <glyph glyph-name="kgreenlandic" unicode="&#x138;" horiz-adv-x="565" 
d="M601 523l-264 -256l185 -267h-182l-147 221l-43 -221h-153l102 523h152l-37 -197l199 197h188z" />
    <glyph glyph-name="Lacute" unicode="&#x139;" horiz-adv-x="559" 
d="M311 712l-112 -573h322l-53 -139h-461l139 712h165zM128 772l137 133h178l-164 -133h-151z" />
    <glyph glyph-name="lacute" unicode="&#x13a;" horiz-adv-x="255" 
d="M-3 0l145 743h159l-145 -743h-159zM288 772h-153l141 117h180z" />
    <glyph glyph-name="Lcommaaccent" unicode="&#x13b;" horiz-adv-x="559" 
d="M311 712l-112 -573h322l-53 -139h-461l139 712h165zM234 -261h-104l50 88q-19 14 -19 43q0 76 91 76q68 0 68 -55q0 -35 -33 -79z" />
    <glyph glyph-name="lcommaaccent" unicode="&#x13c;" horiz-adv-x="255" 
d="M-3 0l145 743h159l-145 -743h-159zM54 -261h-103l50 88q-20 15 -20 43q0 76 91 76q69 0 69 -55q0 -35 -33 -79z" />
    <glyph glyph-name="Lcaron" unicode="&#x13d;" horiz-adv-x="559" 
d="M311 712l-112 -573h322l-53 -139h-461l139 712h165zM395 763h132l-72 -195h-103z" />
    <glyph glyph-name="lcaron" unicode="&#x13e;" horiz-adv-x="366" 
d="M-3 0l145 743h159l-145 -743h-159zM341 743h132l-72 -195h-103z" />
    <glyph glyph-name="Ldot" unicode="&#x13f;" horiz-adv-x="559" 
d="M311 712l-112 -573h322l-53 -139h-461l139 712h165zM346 393q0 54 23 78t76 24q79 0 79 -68q0 -54 -23 -78t-76 -24q-79 0 -79 68z" />
    <glyph glyph-name="ldot" unicode="&#x140;" horiz-adv-x="444" 
d="M-3 0l145 743h159l-145 -743h-159zM284 359q0 54 23 78t76 24q79 0 79 -68q0 -54 -23 -78t-76 -24q-79 0 -79 68z" />
    <glyph glyph-name="Lslash" unicode="&#x141;" horiz-adv-x="579" 
d="M331 712l-49 -248l193 99l-27 -136l-192 -100l-37 -188h322l-53 -139h-461l45 232l-77 -40l26 137l78 40l67 343h165z" />
    <glyph glyph-name="lslash" unicode="&#x142;" horiz-adv-x="294" 
d="M16 0l53 273l-70 -42l26 133l70 42l66 337h159l-45 -230l71 43l-26 -133l-71 -43l-74 -380h-159z" />
    <glyph glyph-name="Nacute" unicode="&#x143;" horiz-adv-x="710" 
d="M465 0l-214 455l-88 -455h-156l139 712h134l216 -457l89 457h154l-138 -712h-136zM333 772l137 133h178l-164 -133h-151z" />
    <glyph glyph-name="nacute" unicode="&#x144;" horiz-adv-x="581" 
d="M218 318l-62 -318h-159l64 326q22 117 84 165t187 48q218 0 218 -167q0 -21 -7 -61l-60 -311h-159l62 318q4 17 4 34q0 58 -69 58q-50 0 -71.5 -19.5t-31.5 -72.5zM237 598l129 136h171l-152 -136h-148z" />
    <glyph glyph-name="Ncommaaccent" unicode="&#x145;" horiz-adv-x="710" 
d="M465 0l-214 455l-88 -455h-156l139 712h134l216 -457l89 457h154l-138 -712h-136zM297 -261h-104l50 88q-19 14 -19 43q0 76 91 76q68 0 68 -55q0 -35 -33 -79z" />
    <glyph glyph-name="ncommaaccent" unicode="&#x146;" horiz-adv-x="581" 
d="M218 318l-62 -318h-159l64 326q22 117 84 165t187 48q218 0 218 -167q0 -21 -7 -61l-60 -311h-159l62 318q4 17 4 34q0 58 -69 58q-50 0 -71.5 -19.5t-31.5 -72.5zM223 -261h-103l50 88q-20 15 -20 43q0 76 91 76q69 0 69 -55q0 -35 -33 -79z" />
    <glyph glyph-name="Ncaron" unicode="&#x147;" horiz-adv-x="710" 
d="M465 0l-214 455l-88 -455h-156l139 712h134l216 -457l89 457h154l-138 -712h-136zM409 904l47 -63l72 63h146l-146 -132h-164l-95 132h140z" />
    <glyph glyph-name="ncaron" unicode="&#x148;" horiz-adv-x="581" 
d="M218 318l-62 -318h-159l64 326q22 117 84 165t187 48q218 0 218 -167q0 -21 -7 -61l-60 -311h-159l62 318q4 17 4 34q0 58 -69 58q-50 0 -71.5 -19.5t-31.5 -72.5zM313 737l42 -67l68 67h137l-139 -139h-155l-84 139h131z" />
    <glyph glyph-name="napostrophe" unicode="&#x149;" horiz-adv-x="683" 
d="M320 318l-62 -318h-159l64 326q22 117 84 165t187 48q218 0 218 -167q0 -21 -7 -61l-60 -311h-159l62 318q4 17 4 34q0 58 -69 58q-50 0 -71.5 -19.5t-31.5 -72.5zM261 690q0 -8 -1 -15t-4 -15.5t-5.5 -14t-9.5 -17t-10.5 -17.5t-14.5 -23t-16 -25l-58 -90h-99l76 142
q-20 15 -20 48q0 87 89 87q73 0 73 -60z" />
    <glyph glyph-name="Eng" unicode="&#x14a;" horiz-adv-x="710" 
d="M333 -42q50 0 76 16t40 59l-198 422l-88 -455h-156l139 712h134l216 -457l89 457h154l-125 -643q-28 -144 -91.5 -197t-205.5 -53q-72 0 -118 2l52 138q25 -1 82 -1z" />
    <glyph glyph-name="eng" unicode="&#x14b;" horiz-adv-x="581" 
d="M218 318l-62 -318h-159l64 326q22 117 84 165t187 48q218 0 218 -167q0 -21 -7 -61l-56 -289q-22 -110 -75 -154.5t-151 -44.5q-84 0 -106 2l46 124q15 -1 41 -1q40 0 60 20t30 74l54 276q4 17 4 34q0 58 -69 58q-50 0 -71.5 -19.5t-31.5 -72.5z" />
    <glyph glyph-name="Omacron" unicode="&#x14c;" horiz-adv-x="717" 
d="M335 120q59 0 92.5 17.5t56.5 66.5t41 146q14 79 14 125q0 68 -28.5 93t-91.5 25q-86 0 -126 -45t-65 -185q-14 -79 -14 -124q0 -69 28.5 -94t92.5 -25zM695 345q-35 -200 -123.5 -281.5t-249.5 -81.5q-140 0 -208.5 61t-68.5 194q0 62 13 131q35 200 123 281.5t249 81.5
q140 0 209 -61.5t69 -194.5q0 -52 -13 -130zM283 783l21 108h316l-20 -108h-317z" />
    <glyph glyph-name="omacron" unicode="&#x14d;" horiz-adv-x="584" 
d="M267 109q53 0 77 28t40 108q12 59 12 92q0 44 -19 60.5t-61 16.5q-53 0 -76.5 -28t-39.5 -107q-12 -60 -12 -93q0 -43 18.5 -60t60.5 -17zM331 539q112 0 167.5 -46t55.5 -148q0 -41 -11 -98q-25 -141 -93 -202t-197 -61q-113 0 -168 45.5t-55 148.5q0 47 10 98
q26 141 94 202t197 61zM186 605l20 107h320l-21 -107h-319z" />
    <glyph glyph-name="Obreve" unicode="&#x14e;" horiz-adv-x="717" 
d="M335 120q59 0 92.5 17.5t56.5 66.5t41 146q14 79 14 125q0 68 -28.5 93t-91.5 25q-86 0 -126 -45t-65 -185q-14 -79 -14 -124q0 -69 28.5 -94t92.5 -25zM695 345q-35 -200 -123.5 -281.5t-249.5 -81.5q-140 0 -208.5 61t-68.5 194q0 62 13 131q35 200 123 281.5t249 81.5
q140 0 209 -61.5t69 -194.5q0 -52 -13 -130zM464 852q30 0 44 14t19 48h117q-15 -77 -58.5 -113t-129.5 -36q-159 0 -159 117q0 14 2 32h116q-1 -8 -1 -18q0 -44 50 -44z" />
    <glyph glyph-name="obreve" unicode="&#x14f;" horiz-adv-x="584" 
d="M267 109q53 0 77 28t40 108q12 59 12 92q0 44 -19 60.5t-61 16.5q-53 0 -76.5 -28t-39.5 -107q-12 -60 -12 -93q0 -43 18.5 -60t60.5 -17zM331 539q112 0 167.5 -46t55.5 -148q0 -41 -11 -98q-25 -141 -93 -202t-197 -61q-113 0 -168 45.5t-55 148.5q0 47 10 98
q26 141 94 202t197 61zM359 670q29 0 42.5 12.5t18.5 42.5h119q-15 -73 -58.5 -107.5t-128.5 -34.5q-160 0 -160 113q0 16 3 29h119q-1 -7 -1 -16q0 -39 46 -39z" />
    <glyph glyph-name="Ohungarumlaut" unicode="&#x150;" horiz-adv-x="717" 
d="M335 120q59 0 92.5 17.5t56.5 66.5t41 146q14 79 14 125q0 68 -28.5 93t-91.5 25q-86 0 -126 -45t-65 -185q-14 -79 -14 -124q0 -69 28.5 -94t92.5 -25zM695 345q-35 -200 -123.5 -281.5t-249.5 -81.5q-140 0 -208.5 61t-68.5 194q0 62 13 131q35 200 123 281.5t249 81.5
q140 0 209 -61.5t69 -194.5q0 -52 -13 -130zM247 772l128 133h163l-154 -133h-137zM458 772l128 133h163l-154 -133h-137z" />
    <glyph glyph-name="ohungarumlaut" unicode="&#x151;" horiz-adv-x="584" 
d="M267 109q53 0 77 28t40 108q12 59 12 92q0 44 -19 60.5t-61 16.5q-53 0 -76.5 -28t-39.5 -107q-12 -60 -12 -93q0 -43 18.5 -60t60.5 -17zM331 539q112 0 167.5 -46t55.5 -148q0 -41 -11 -98q-25 -141 -93 -202t-197 -61q-113 0 -168 45.5t-55 148.5q0 47 10 98
q26 141 94 202t197 61zM166 598l116 136h151l-138 -136h-129zM364 598l116 136h151l-138 -136h-129z" />
    <glyph glyph-name="OE" unicode="&#x152;" horiz-adv-x="994" 
d="M951 139l-53 -139h-557q-153 0 -224.5 59t-71.5 187q0 48 13 120q18 100 50.5 167.5t82.5 106.5t112 55.5t147 16.5h596l-53 -139h-325l-27 -141h319l-53 -139h-292l-31 -154h367zM351 138h74l85 436h-73q-98 0 -141 -40.5t-68 -173.5q-13 -72 -13 -107q0 -66 31.5 -90.5
t104.5 -24.5z" />
    <glyph glyph-name="oe" unicode="&#x153;" horiz-adv-x="896" 
d="M637 200h-105v-16q1 -37 23 -54t73 -17q107 0 182 5l-45 -115q-49 -5 -158 -5q-119 0 -167 61q-60 -71 -189 -71q-115 0 -168.5 45.5t-53.5 144.5q0 41 11 98q26 139 92.5 201t195.5 62q122 0 166 -70q65 70 190 70q201 0 201 -147q0 -21 -7 -54q-17 -75 -74 -106.5
t-167 -31.5zM267 109q53 0 75.5 27t40.5 109q12 59 12 93q0 44 -19 60t-61 16q-53 0 -76.5 -27.5t-39.5 -107.5q-12 -60 -12 -93q0 -45 19 -61t61 -16zM672 426q-51 0 -77 -25.5t-42 -90.5h87q49 0 68.5 9.5t27.5 35.5q4 11 4 26q0 45 -68 45z" />
    <glyph glyph-name="Racute" unicode="&#x154;" horiz-adv-x="650" 
d="M416 0l-96 250h-108l-49 -250h-156l139 712h247q257 0 257 -188q0 -24 -5 -57q-27 -155 -169 -197l110 -270h-170zM275 578l-38 -198h108q72 0 101.5 19t39.5 70q4 17 4 36q0 41 -25.5 57t-81.5 16h-108zM296 772l137 133h178l-164 -133h-151z" />
    <glyph glyph-name="racute" unicode="&#x155;" horiz-adv-x="382" 
d="M320 526q73 0 106 -3l-49 -128q-40 2 -53 2q-55 0 -76.5 -20t-33.5 -80l-58 -297h-159l60 307q25 127 86.5 173t176.5 46zM194 598l129 136h171l-152 -136h-148z" />
    <glyph glyph-name="Rcommaaccent" unicode="&#x156;" horiz-adv-x="650" 
d="M416 0l-96 250h-108l-49 -250h-156l139 712h247q257 0 257 -188q0 -24 -5 -57q-27 -155 -169 -197l110 -270h-170zM275 578l-38 -198h108q72 0 101.5 19t39.5 70q4 17 4 36q0 41 -25.5 57t-81.5 16h-108zM261 -261h-104l50 88q-19 14 -19 43q0 76 91 76q68 0 68 -55
q0 -35 -33 -79z" />
    <glyph glyph-name="rcommaaccent" unicode="&#x157;" horiz-adv-x="382" 
d="M320 526q73 0 106 -3l-49 -128q-40 2 -53 2q-55 0 -76.5 -20t-33.5 -80l-58 -297h-159l60 307q25 127 86.5 173t176.5 46zM53 -261h-103l50 88q-20 15 -20 43q0 76 91 76q69 0 69 -55q0 -35 -33 -79z" />
    <glyph glyph-name="Rcaron" unicode="&#x158;" horiz-adv-x="650" 
d="M416 0l-96 250h-108l-49 -250h-156l139 712h247q257 0 257 -188q0 -24 -5 -57q-27 -155 -169 -197l110 -270h-170zM275 578l-38 -198h108q72 0 101.5 19t39.5 70q4 17 4 36q0 41 -25.5 57t-81.5 16h-108zM353 904l47 -63l72 63h146l-146 -132h-164l-95 132h140z" />
    <glyph glyph-name="rcaron" unicode="&#x159;" horiz-adv-x="382" 
d="M320 526q73 0 106 -3l-49 -128q-40 2 -53 2q-55 0 -76.5 -20t-33.5 -80l-58 -297h-159l60 307q25 127 86.5 173t176.5 46zM255 737l42 -67l68 67h137l-139 -139h-155l-84 139h131z" />
    <glyph glyph-name="Sacute" unicode="&#x15a;" horiz-adv-x="587" 
d="M616 712l-52 -133q-52 0 -117.5 0.5t-95.5 0.5q-95 0 -106 -57q-3 -12 -3 -23q0 -22 13.5 -34.5t45.5 -21.5l92 -29q152 -48 152 -170q0 -26 -6 -56q-21 -108 -93.5 -149.5t-219.5 -41.5q-26 0 -109.5 1t-133.5 1l51 134q51 -2 215 -2q63 0 92 13t37 51q2 14 2 20
q0 23 -15 37t-47 24l-85 26q-85 27 -120.5 67t-35.5 100q0 28 6 59q19 102 96 143.5t209 41.5q140 0 228 -2zM289 772l137 133h178l-164 -133h-151z" />
    <glyph glyph-name="sacute" unicode="&#x15b;" horiz-adv-x="486" 
d="M228 339l85 -23q65 -18 95.5 -48t30.5 -82q0 -24 -6 -53q-14 -69 -75 -102t-173 -33q-158 0 -207 2l41 123q49 -2 194 -2q52 0 66 16q7 10 7 23q0 12 -9 18t-32 12l-94 25q-109 32 -109 128q0 15 5 43q14 72 71 105.5t165 33.5q66 0 206 -4l-45 -122q-104 3 -180 3
q-51 0 -63 -12q-8 -8 -8 -24q0 -11 7.5 -16t27.5 -11zM193 598l129 136h171l-152 -136h-148z" />
    <glyph glyph-name="Scircumflex" unicode="&#x15c;" horiz-adv-x="587" 
d="M616 712l-52 -133q-52 0 -117.5 0.5t-95.5 0.5q-95 0 -106 -57q-3 -12 -3 -23q0 -22 13.5 -34.5t45.5 -21.5l92 -29q152 -48 152 -170q0 -26 -6 -56q-21 -108 -93.5 -149.5t-219.5 -41.5q-26 0 -109.5 1t-133.5 1l51 134q51 -2 215 -2q63 0 92 13t37 51q2 14 2 20
q0 23 -15 37t-47 24l-85 26q-85 27 -120.5 67t-35.5 100q0 28 6 59q19 102 96 143.5t209 41.5q140 0 228 -2zM445 772l-47 62l-73 -62h-145l146 132h164l95 -132h-140z" />
    <glyph glyph-name="scircumflex" unicode="&#x15d;" horiz-adv-x="486" 
d="M228 339l85 -23q65 -18 95.5 -48t30.5 -82q0 -24 -6 -53q-14 -69 -75 -102t-173 -33q-158 0 -207 2l41 123q49 -2 194 -2q52 0 66 16q7 10 7 23q0 12 -9 18t-32 12l-94 25q-109 32 -109 128q0 15 5 43q14 72 71 105.5t165 33.5q66 0 206 -4l-45 -122q-104 3 -180 3
q-51 0 -63 -12q-8 -8 -8 -24q0 -11 7.5 -16t27.5 -11zM354 598l-43 68l-68 -68h-137l139 139h155l84 -139h-130z" />
    <glyph glyph-name="Scedilla" unicode="&#x15e;" horiz-adv-x="587" 
d="M616 712l-52 -133q-52 0 -117.5 0.5t-95.5 0.5q-95 0 -106 -57q-3 -12 -3 -23q0 -22 13.5 -34.5t45.5 -21.5l92 -29q152 -48 152 -170q0 -26 -6 -56q-21 -108 -93.5 -149.5t-219.5 -41.5q-26 0 -109.5 1t-133.5 1l51 134q51 -2 215 -2q63 0 92 13t37 51q2 14 2 20
q0 23 -15 37t-47 24l-85 26q-85 27 -120.5 67t-35.5 100q0 28 6 59q19 102 96 143.5t209 41.5q140 0 228 -2zM89 -223l28 75q54 -2 76 -2q19 0 26 7q9 9 9 23q0 16 -26 16q-35 0 -60 -1l27 70q7 0 32.5 0.5t36.5 0.5q106 0 106 -76q0 -8 -2 -22q-9 -52 -46.5 -73t-109.5 -21
q-69 0 -97 3z" />
    <glyph glyph-name="scedilla" unicode="&#x15f;" horiz-adv-x="486" 
d="M228 339l85 -23q65 -18 95.5 -48t30.5 -82q0 -24 -6 -53q-14 -69 -75 -102t-173 -33q-158 0 -207 2l41 123q49 -2 194 -2q52 0 66 16q7 10 7 23q0 12 -9 18t-32 12l-94 25q-109 32 -109 128q0 15 5 43q14 72 71 105.5t165 33.5q66 0 206 -4l-45 -122q-104 3 -180 3
q-51 0 -63 -12q-8 -8 -8 -24q0 -11 7.5 -16t27.5 -11zM39 -223l28 74q50 -2 69 -2q18 0 26 8q10 8 10 23q0 17 -26 17q-30 0 -54 -1l26 69q7 0 28 0.5t31 0.5q105 0 105 -76q0 -28 -14 -59q-17 -32 -50 -44.5t-92 -12.5q-60 0 -87 3z" />
    <glyph glyph-name="Scaron" unicode="&#x160;" horiz-adv-x="587" 
d="M616 712l-52 -133q-52 0 -117.5 0.5t-95.5 0.5q-95 0 -106 -57q-3 -12 -3 -23q0 -22 13.5 -34.5t45.5 -21.5l92 -29q152 -48 152 -170q0 -26 -6 -56q-21 -108 -93.5 -149.5t-219.5 -41.5q-26 0 -109.5 1t-133.5 1l51 134q51 -2 215 -2q63 0 92 13t37 51q2 14 2 20
q0 23 -15 37t-47 24l-85 26q-85 27 -120.5 67t-35.5 100q0 28 6 59q19 102 96 143.5t209 41.5q140 0 228 -2zM348 904l47 -63l72 63h146l-146 -132h-164l-95 132h140z" />
    <glyph glyph-name="scaron" unicode="&#x161;" horiz-adv-x="486" 
d="M228 339l85 -23q65 -18 95.5 -48t30.5 -82q0 -24 -6 -53q-14 -69 -75 -102t-173 -33q-158 0 -207 2l41 123q49 -2 194 -2q52 0 66 16q7 10 7 23q0 12 -9 18t-32 12l-94 25q-109 32 -109 128q0 15 5 43q14 72 71 105.5t165 33.5q66 0 206 -4l-45 -122q-104 3 -180 3
q-51 0 -63 -12q-8 -8 -8 -24q0 -11 7.5 -16t27.5 -11zM260 737l42 -67l68 67h137l-139 -139h-155l-84 139h131z" />
    <glyph glyph-name="Tcommaaccent" unicode="&#x162;" horiz-adv-x="660" 
d="M681 573h-208l-112 -573h-165l112 573h-234l52 139h608zM111 -223l28 75q54 -2 76 -2q19 0 26 7q9 9 9 23q0 16 -26 16q-35 0 -60 -1l27 70q7 0 32.5 0.5t36.5 0.5q106 0 106 -76q0 -8 -2 -22q-9 -52 -46.5 -73t-109.5 -21q-69 0 -97 3z" />
    <glyph glyph-name="tcommaaccent" unicode="&#x163;" horiz-adv-x="394" 
d="M370 398h-136l-37 -192q-4 -15 -4 -34q0 -25 14 -36.5t47 -11.5q10 0 54 0.5t49 0.5l-48 -125q-3 0 -47.5 -0.5t-60.5 -0.5q-170 0 -170 148q0 23 7 63l85 438l163 19l-28 -144h160zM10 -223l28 74q50 -2 69 -2q18 0 26 8q10 8 10 23q0 17 -26 17q-30 0 -54 -1l26 69
q7 0 28 0.5t31 0.5q105 0 105 -76q0 -28 -14 -59q-17 -32 -50 -44.5t-92 -12.5q-60 0 -87 3z" />
    <glyph glyph-name="Tcaron" unicode="&#x164;" horiz-adv-x="663" 
d="M681 573h-208l-112 -573h-165l112 573h-234l52 139h608zM379 904l47 -63l72 63h146l-146 -132h-164l-95 132h140z" />
    <glyph glyph-name="tcaron" unicode="&#x165;" horiz-adv-x="394" 
d="M370 398h-136l-37 -192q-4 -15 -4 -34q0 -25 14 -36.5t47 -11.5q10 0 54 0.5t49 0.5l-48 -125q-3 0 -47.5 -0.5t-60.5 -0.5q-170 0 -170 148q0 23 7 63l85 438l163 19l-28 -144h160zM353 743h133l-64 -170h-107z" />
    <glyph glyph-name="Tbar" unicode="&#x166;" horiz-adv-x="663" 
d="M681 573h-208l-35 -179h131l-24 -121h-131l-53 -273h-165l53 273h-132l24 121h132l35 179h-234l52 139h608z" />
    <glyph glyph-name="tbar" unicode="&#x167;" horiz-adv-x="405" 
d="M381 398h-141l-14 -73h150l-20 -101h-150l-3 -18q-4 -15 -4 -34q0 -25 14 -36.5t47 -11.5q11 0 56.5 0.5t51.5 0.5l-48 -125q-3 0 -47.5 -0.5t-60.5 -0.5q-170 0 -170 148q0 23 7 63l2 14h-50l19 101h51l63 323l158 19l-28 -144h165z" />
    <glyph glyph-name="Utilde" unicode="&#x168;" horiz-adv-x="694" 
d="M563 712h165l-89 -460q-27 -145 -103.5 -207.5t-216.5 -62.5q-269 0 -269 217q0 47 8 82l84 431h165l-88 -450q-5 -32 -5 -51q0 -48 27 -69.5t88 -21.5q68 0 99 30.5t47 112.5zM341 763h-96l3 17q14 75 42.5 104t79.5 29q38 0 86 -25l20 -10q26 -14 46 -14q12 0 18.5 7
t11.5 29l2 10h96l-3 -17q-14 -75 -42.5 -103.5t-79.5 -28.5q-41 0 -86 24l-20 10q-26 14 -47 14q-12 0 -18 -7t-11 -29z" />
    <glyph glyph-name="utilde" unicode="&#x169;" horiz-adv-x="579" 
d="M361 205l62 318h159l-63 -325q-22 -118 -84 -166t-187 -48q-216 0 -216 167q0 33 6 61l61 311h159l-62 -318q-4 -17 -4 -34q0 -31 16.5 -44.5t50.5 -13.5q50 0 71 18.5t31 73.5zM453 735h95l-3 -17q-12 -71 -39.5 -99t-77.5 -28q-38 0 -83 22l-19 10q-24 13 -44 13
q-12 0 -18 -6t-11 -26l-2 -10h-94l3 17q12 70 40 98.5t77 28.5q38 0 83 -23l19 -9q26 -14 44 -14q11 0 17 6.5t11 27.5z" />
    <glyph glyph-name="Umacron" unicode="&#x16a;" horiz-adv-x="694" 
d="M563 712h165l-89 -460q-27 -145 -103.5 -207.5t-216.5 -62.5q-269 0 -269 217q0 47 8 82l84 431h165l-88 -450q-5 -32 -5 -51q0 -48 27 -69.5t88 -21.5q68 0 99 30.5t47 112.5zM283 783l21 108h316l-20 -108h-317z" />
    <glyph glyph-name="umacron" unicode="&#x16b;" horiz-adv-x="579" 
d="M361 205l62 318h159l-63 -325q-22 -118 -84 -166t-187 -48q-216 0 -216 167q0 33 6 61l61 311h159l-62 -318q-4 -17 -4 -34q0 -31 16.5 -44.5t50.5 -13.5q50 0 71 18.5t31 73.5zM185 605l20 107h320l-21 -107h-319z" />
    <glyph glyph-name="Ubreve" unicode="&#x16c;" horiz-adv-x="694" 
d="M563 712h165l-89 -460q-27 -145 -103.5 -207.5t-216.5 -62.5q-269 0 -269 217q0 47 8 82l84 431h165l-88 -450q-5 -32 -5 -51q0 -48 27 -69.5t88 -21.5q68 0 99 30.5t47 112.5zM455 852q30 0 44 14t19 48h117q-15 -77 -58.5 -113t-129.5 -36q-159 0 -159 117q0 14 2 32
h116q-1 -8 -1 -18q0 -44 50 -44z" />
    <glyph glyph-name="ubreve" unicode="&#x16d;" horiz-adv-x="579" 
d="M361 205l62 318h159l-63 -325q-22 -118 -84 -166t-187 -48q-216 0 -216 167q0 33 6 61l61 311h159l-62 -318q-4 -17 -4 -34q0 -31 16.5 -44.5t50.5 -13.5q50 0 71 18.5t31 73.5zM355 670q29 0 42.5 12.5t18.5 42.5h119q-15 -73 -58.5 -107.5t-128.5 -34.5
q-160 0 -160 113q0 16 3 29h119q-1 -7 -1 -16q0 -39 46 -39z" />
    <glyph glyph-name="Uring" unicode="&#x16e;" horiz-adv-x="694" 
d="M563 712h165l-89 -460q-27 -145 -103.5 -207.5t-216.5 -62.5q-269 0 -269 217q0 47 8 82l84 431h165l-88 -450q-5 -32 -5 -51q0 -48 27 -69.5t88 -21.5q68 0 99 30.5t47 112.5zM504 849q3 15 3 21q0 19 -11.5 26t-34.5 7q-31 0 -43 -10.5t-18 -37.5q-3 -15 -3 -21
q0 -34 46 -34q31 0 43 11t18 38zM591 876q0 -8 -2 -24q-18 -131 -155 -131q-57 0 -89.5 28t-32.5 79q0 8 2 24q18 130 155 130q57 0 89.5 -27.5t32.5 -78.5z" />
    <glyph glyph-name="uring" unicode="&#x16f;" horiz-adv-x="579" 
d="M361 205l62 318h159l-63 -325q-22 -118 -84 -166t-187 -48q-216 0 -216 167q0 33 6 61l61 311h159l-62 -318q-4 -17 -4 -34q0 -31 16.5 -44.5t50.5 -13.5q50 0 71 18.5t31 73.5zM341 566q-53 0 -85 25.5t-32 75.5q0 6 2 24q18 125 149 125q53 0 85 -25.5t32 -75.5
q0 -6 -2 -24q-18 -125 -149 -125zM350 640q30 0 41.5 10.5t17.5 36.5q2 7 2 20q0 34 -44 34q-30 0 -41.5 -10.5t-17.5 -36.5q-2 -7 -2 -20q0 -34 44 -34z" />
    <glyph glyph-name="Uhungarumlaut" unicode="&#x170;" horiz-adv-x="694" 
d="M563 712h165l-89 -460q-27 -145 -103.5 -207.5t-216.5 -62.5q-269 0 -269 217q0 47 8 82l84 431h165l-88 -450q-5 -32 -5 -51q0 -48 27 -69.5t88 -21.5q68 0 99 30.5t47 112.5zM236 772l128 133h163l-154 -133h-137zM447 772l128 133h163l-154 -133h-137z" />
    <glyph glyph-name="uhungarumlaut" unicode="&#x171;" horiz-adv-x="579" 
d="M361 205l62 318h159l-63 -325q-22 -118 -84 -166t-187 -48q-216 0 -216 167q0 33 6 61l61 311h159l-62 -318q-4 -17 -4 -34q0 -31 16.5 -44.5t50.5 -13.5q50 0 71 18.5t31 73.5zM152 598l116 136h151l-138 -136h-129zM350 598l116 136h151l-138 -136h-129z" />
    <glyph glyph-name="Uogonek" unicode="&#x172;" horiz-adv-x="694" 
d="M563 712h165l-89 -460q-21 -109 -68 -169.5t-127 -84.5q-28 -21 -39.5 -29.5t-25.5 -20.5t-18 -20t-4 -16q0 -18 33 -18h37l-45 -107h-43q-117 0 -117 71q0 35 17.5 62.5t62.5 61.5q-252 8 -252 217q0 47 8 82l84 431h165l-88 -450q-5 -32 -5 -51q0 -48 27 -69.5
t88 -21.5q68 0 99 30.5t47 112.5z" />
    <glyph glyph-name="uogonek" unicode="&#x173;" horiz-adv-x="579" 
d="M361 205l62 318h159l-63 -325q-15 -81 -47 -127t-88 -67q-50 -36 -69.5 -55.5t-19.5 -36.5q0 -18 33 -18h36l-44 -107h-44q-116 0 -116 71q0 35 17 63.5t60 62.5q-205 5 -205 167q0 33 6 61l61 311h159l-62 -318q-4 -17 -4 -34q0 -31 16.5 -44.5t50.5 -13.5q50 0 71 18.5
t31 73.5z" />
    <glyph glyph-name="Wcircumflex" unicode="&#x174;" horiz-adv-x="937" 
d="M704 0h-173l-17 487l-211 -487h-177l-22 712h163l-6 -515l222 515h148l16 -513l199 513h162zM620 772l-47 62l-73 -62h-145l146 132h164l95 -132h-140z" />
    <glyph glyph-name="wcircumflex" unicode="&#x175;" horiz-adv-x="782" 
d="M416 0l-12 328l-141 -328h-154l-46 523h154l6 -354l151 354h135l13 -352l145 352h154l-250 -523h-155zM509 598l-43 68l-68 -68h-137l139 139h155l84 -139h-130z" />
    <glyph glyph-name="Ycircumflex" unicode="&#x176;" horiz-adv-x="670" 
d="M92 712h176l90 -292l212 292h182l-331 -421l-57 -291h-165l56 290zM487 772l-47 62l-73 -62h-145l146 132h164l95 -132h-140z" />
    <glyph glyph-name="ycircumflex" unicode="&#x177;" horiz-adv-x="580" 
d="M333 45l2 10q-41 -32 -113 -32q-182 0 -182 159q0 29 6 64l54 277h159l-54 -279q-4 -20 -4 -34q0 -31 16.5 -44.5t50.5 -13.5q50 0 71.5 18.5t31.5 73.5l54 279h159l-92 -471q-24 -121 -89.5 -175t-187.5 -54q-141 0 -213 3l50 129q147 -3 159 -3q56 0 83.5 20.5
t38.5 72.5zM409 598l-43 68l-68 -68h-137l139 139h155l84 -139h-130z" />
    <glyph glyph-name="Ydieresis" unicode="&#x178;" horiz-adv-x="670" 
d="M92 712h176l90 -292l212 292h182l-331 -421l-57 -291h-165l56 290zM245 822q0 47 22 67.5t69 20.5q71 0 71 -57q0 -46 -21.5 -67t-69.5 -21q-71 0 -71 57zM457 822q0 47 22 67.5t69 20.5q70 0 70 -57q0 -46 -21 -67t-69 -21q-71 0 -71 57z" />
    <glyph glyph-name="Zacute" unicode="&#x179;" horiz-adv-x="619" 
d="M634 590l-418 -452h355l-53 -138h-536l23 120l420 454h-331l53 138h510zM293 772l137 133h178l-164 -133h-151z" />
    <glyph glyph-name="zacute" unicode="&#x17a;" horiz-adv-x="521" 
d="M505 422l-283 -297h247l-47 -125h-430l17 101l283 297h-234l47 125h417zM215 598l129 136h171l-152 -136h-148z" />
    <glyph glyph-name="Zdotaccent" unicode="&#x17b;" horiz-adv-x="619" 
d="M634 590l-418 -452h355l-53 -138h-536l23 120l420 454h-331l53 138h510zM427 917q80 0 80 -59q0 -51 -26 -72t-78 -21q-80 0 -80 59q0 93 104 93z" />
    <glyph glyph-name="zdotaccent" unicode="&#x17c;" horiz-adv-x="521" 
d="M505 422l-283 -297h247l-47 -125h-430l17 101l283 297h-234l47 125h417zM338 743q80 0 80 -59q0 -51 -25.5 -72t-77.5 -21q-80 0 -80 59q0 93 103 93z" />
    <glyph glyph-name="Zcaron" unicode="&#x17d;" horiz-adv-x="619" 
d="M634 590l-418 -452h355l-53 -138h-536l23 120l420 454h-331l53 138h510zM368 904l47 -63l72 63h146l-146 -132h-164l-95 132h140z" />
    <glyph glyph-name="zcaron" unicode="&#x17e;" horiz-adv-x="521" 
d="M505 422l-283 -297h247l-47 -125h-430l17 101l283 297h-234l47 125h417zM287 737l42 -67l68 67h137l-139 -139h-155l-84 139h131z" />
    <glyph glyph-name="longs" unicode="&#x17f;" horiz-adv-x="254" 
d="M256 519l-100 -519h-159l102 522q24 122 88.5 172.5t190.5 50.5q77 0 101 -3l-45 -124q-40 2 -57 2q-60 0 -84.5 -20t-36.5 -81z" />
    <glyph glyph-name="florin" unicode="&#x192;" horiz-adv-x="365" 
d="M258 523h164l-48 -125h-141l-73 -376q-22 -110 -76 -154.5t-153 -44.5q-85 0 -108 2l46 124q16 -1 43 -1q42 0 62.5 20t30.5 74l94 480q24 123 88.5 173t189.5 50q73 0 112 -3l-45 -124q-46 2 -68 2q-60 0 -84 -19.5t-34 -77.5z" />
    <glyph glyph-name="Scommaaccent" unicode="&#x218;" horiz-adv-x="587" 
d="M616 712l-52 -133q-52 0 -117.5 0.5t-95.5 0.5q-95 0 -106 -57q-3 -12 -3 -23q0 -22 13.5 -34.5t45.5 -21.5l92 -29q152 -48 152 -170q0 -26 -6 -56q-21 -108 -93.5 -149.5t-219.5 -41.5q-26 0 -109.5 1t-133.5 1l51 134q51 -2 215 -2q63 0 92 13t37 51q2 14 2 20
q0 23 -15 37t-47 24l-85 26q-85 27 -120.5 67t-35.5 100q0 28 6 59q19 102 96 143.5t209 41.5q140 0 228 -2zM225 -261h-104l50 88q-19 14 -19 43q0 76 91 76q68 0 68 -55q0 -35 -33 -79z" />
    <glyph glyph-name="scommaaccent" unicode="&#x219;" horiz-adv-x="486" 
d="M228 339l85 -23q65 -18 95.5 -48t30.5 -82q0 -24 -6 -53q-14 -69 -75 -102t-173 -33q-158 0 -207 2l41 123q49 -2 194 -2q52 0 66 16q7 10 7 23q0 12 -9 18t-32 12l-94 25q-109 32 -109 128q0 15 5 43q14 72 71 105.5t165 33.5q66 0 206 -4l-45 -122q-104 3 -180 3
q-51 0 -63 -12q-8 -8 -8 -24q0 -11 7.5 -16t27.5 -11zM171 -261h-103l50 88q-20 15 -20 43q0 76 91 76q69 0 69 -55q0 -35 -33 -79z" />
    <glyph glyph-name="uni021A" unicode="&#x21a;" horiz-adv-x="663" 
d="M681 573h-208l-112 -573h-165l112 573h-234l52 139h608zM249 -261h-104l50 88q-19 14 -19 43q0 76 91 76q68 0 68 -55q0 -35 -33 -79z" />
    <glyph glyph-name="uni021B" unicode="&#x21b;" horiz-adv-x="394" 
d="M370 398h-136l-37 -192q-4 -15 -4 -34q0 -25 14 -36.5t47 -11.5q10 0 54 0.5t49 0.5l-48 -125q-3 0 -47.5 -0.5t-60.5 -0.5q-170 0 -170 148q0 23 7 63l85 438l163 19l-28 -144h160zM146 -261h-103l50 88q-20 15 -20 43q0 76 91 76q69 0 69 -55q0 -35 -33 -79z" />
    <glyph glyph-name="uni0237" unicode="&#x237;" horiz-adv-x="255" 
d="M5 42l94 481h159l-98 -501q-22 -110 -76 -154.5t-153 -44.5q-85 0 -108 2l46 124q16 -1 43 -1q42 0 62.5 20t30.5 74z" />
    <glyph glyph-name="afii57929" unicode="&#x2bc;" horiz-adv-x="363" 
d="M351 690q0 -8 -1 -15t-4 -15.5t-5.5 -14t-9.5 -17t-10.5 -17.5t-14.5 -23t-16 -25l-58 -90h-99l76 142q-20 15 -20 48q0 87 89 87q73 0 73 -60z" />
    <glyph glyph-name="circumflex" unicode="&#x2c6;" horiz-adv-x="500" 
d="M373 598l-43 68l-68 -68h-137l139 139h155l84 -139h-130z" />
    <glyph glyph-name="caron" unicode="&#x2c7;" horiz-adv-x="500" 
d="M281 737l42 -67l68 67h137l-139 -139h-155l-84 139h131z" />
    <glyph glyph-name="uni02C9" unicode="&#x2c9;" horiz-adv-x="500" 
d="M157 605l20 107h320l-21 -107h-319z" />
    <glyph glyph-name="breve" unicode="&#x2d8;" horiz-adv-x="500" 
d="M331 670q29 0 42.5 12.5t18.5 42.5h119q-15 -73 -58.5 -107.5t-128.5 -34.5q-160 0 -160 113q0 16 3 29h119q-1 -7 -1 -16q0 -39 46 -39z" />
    <glyph glyph-name="dotaccent" unicode="&#x2d9;" horiz-adv-x="500" 
d="M340 743q80 0 80 -59q0 -51 -25.5 -72t-77.5 -21q-80 0 -80 59q0 93 103 93z" />
    <glyph glyph-name="ring" unicode="&#x2da;" horiz-adv-x="500" 
d="M316 566q-53 0 -85 25.5t-32 75.5q0 6 2 24q18 125 149 125q53 0 85 -25.5t32 -75.5q0 -6 -2 -24q-18 -125 -149 -125zM325 640q30 0 41.5 10.5t17.5 36.5q2 7 2 20q0 34 -44 34q-30 0 -41.5 -10.5t-17.5 -36.5q-2 -7 -2 -20q0 -34 44 -34z" />
    <glyph glyph-name="ogonek" unicode="&#x2db;" horiz-adv-x="500" 
d="M211 22l88 -22q-52 -37 -71 -54.5t-19 -33.5q0 -18 33 -18h36l-44 -107h-44q-116 0 -116 71q0 43 29 78t108 86z" />
    <glyph glyph-name="tilde" unicode="&#x2dc;" horiz-adv-x="500" 
d="M429 735h95l-3 -17q-12 -71 -39.5 -99t-77.5 -28q-38 0 -83 22l-19 10q-24 13 -44 13q-12 0 -18 -6t-11 -26l-2 -10h-94l3 17q12 70 40 98.5t77 28.5q38 0 83 -23l19 -9q26 -14 44 -14q11 0 17 6.5t11 27.5z" />
    <glyph glyph-name="hungarumlaut" unicode="&#x2dd;" horiz-adv-x="500" 
d="M94 598l116 136h151l-138 -136h-129zM292 598l116 136h151l-138 -136h-129z" />
    <glyph glyph-name="increment" unicode="&#x394;" horiz-adv-x="707" 
d="M-40 0l386 712h189l111 -712h-686zM414 569l-222 -438h275z" />
    <glyph glyph-name="Omega" unicode="&#x3a9;" horiz-adv-x="719" 
d="M678 128l-51 -128h-267l23 115q57 42 89.5 93.5t49.5 143.5q14 79 14 123q0 68 -29 93t-95 25q-84 0 -124 -45.5t-65 -184.5q-10 -57 -10 -101q0 -89 58 -147l-23 -115h-278l50 128h83q-53 63 -53 165q0 47 10 103q32 177 118 256t246 79q284 0 284 -247q0 -62 -16 -130
q-16 -75 -43.5 -127t-77.5 -99h107z" />
    <glyph glyph-name="mu" unicode="&#x3bc;" horiz-adv-x="584" 
d="M349 121l79 402h159l-82 -421q-12 -58 -38.5 -79.5t-87.5 -27.5q-27 -4 -81 -4q-100 0 -141 32l-38 -198h-155l135 698h158l-62 -318q-3 -11 -3 -29q0 -32 21.5 -46t69.5 -14q33 0 66 5z" />
    <glyph glyph-name="pi" unicode="&#x3c0;" horiz-adv-x="695" 
d="M712 520l-46 -121h-63l-78 -399h-154l78 399h-150l-78 -399h-154l78 399h-85l45 121h607z" />
    <glyph glyph-name="Wgrave" unicode="&#x1e80;" horiz-adv-x="937" 
d="M704 0h-173l-17 487l-211 -487h-177l-22 712h163l-6 -515l222 515h148l16 -513l199 513h162zM574 905l85 -133h-143l-113 133h171z" />
    <glyph glyph-name="wgrave" unicode="&#x1e81;" horiz-adv-x="782" 
d="M416 0l-12 328l-141 -328h-154l-46 523h154l6 -354l151 354h135l13 -352l145 352h154l-250 -523h-155zM467 734l79 -136h-143l-102 136h166z" />
    <glyph glyph-name="Wacute" unicode="&#x1e82;" horiz-adv-x="937" 
d="M704 0h-173l-17 487l-211 -487h-177l-22 712h163l-6 -515l222 515h148l16 -513l199 513h162zM476 772l137 133h178l-164 -133h-151z" />
    <glyph glyph-name="wacute" unicode="&#x1e83;" horiz-adv-x="782" 
d="M416 0l-12 328l-141 -328h-154l-46 523h154l6 -354l151 354h135l13 -352l145 352h154l-250 -523h-155zM367 598l129 136h171l-152 -136h-148z" />
    <glyph glyph-name="Wdieresis" unicode="&#x1e84;" horiz-adv-x="937" 
d="M704 0h-173l-17 487l-211 -487h-177l-22 712h163l-6 -515l222 515h148l16 -513l199 513h162zM384 822q0 47 22 67.5t69 20.5q71 0 71 -57q0 -46 -21.5 -67t-69.5 -21q-71 0 -71 57zM596 822q0 47 22 67.5t69 20.5q70 0 70 -57q0 -46 -21 -67t-69 -21q-71 0 -71 57z" />
    <glyph glyph-name="wdieresis" unicode="&#x1e85;" horiz-adv-x="782" 
d="M416 0l-12 328l-141 -328h-154l-46 523h154l6 -354l151 354h135l13 -352l145 352h154l-250 -523h-155zM284 649q0 45 21 66t69 21q70 0 70 -55q0 -45 -21 -66t-69 -21q-70 0 -70 55zM487 649q0 46 21 66.5t69 20.5q69 0 69 -55q0 -45 -21 -66t-68 -21q-70 0 -70 55z" />
    <glyph glyph-name="Ygrave" unicode="&#x1ef2;" horiz-adv-x="670" 
d="M92 712h176l90 -292l212 292h182l-331 -421l-57 -291h-165l56 290zM437 905l85 -133h-143l-113 133h171z" />
    <glyph glyph-name="ygrave" unicode="&#x1ef3;" horiz-adv-x="580" 
d="M333 45l2 10q-41 -32 -113 -32q-182 0 -182 159q0 29 6 64l54 277h159l-54 -279q-4 -20 -4 -34q0 -31 16.5 -44.5t50.5 -13.5q50 0 71.5 18.5t31.5 73.5l54 279h159l-92 -471q-24 -121 -89.5 -175t-187.5 -54q-141 0 -213 3l50 129q147 -3 159 -3q56 0 83.5 20.5
t38.5 72.5zM372 734l79 -136h-143l-102 136h166z" />
    <glyph glyph-name="endash" unicode="&#x2013;" horiz-adv-x="500" 
d="M-12 212l27 138h500l-27 -138h-500z" />
    <glyph glyph-name="emdash" unicode="&#x2014;" horiz-adv-x="1000" 
d="M-12 212l27 138h1000l-27 -138h-1000z" />
    <glyph glyph-name="quoteleft" unicode="&#x2018;" horiz-adv-x="250" 
d="M215 743h100l-91 -168q21 -14 21 -47q0 -50 -23 -73t-72 -23q-75 0 -75 66q0 30 15.5 60.5t52.5 82.5z" />
    <glyph glyph-name="quoteright" unicode="&#x2019;" horiz-adv-x="250" 
d="M159 436h-100l91 168q-21 14 -21 47q0 50 23 73t72 23q75 0 75 -66q0 -30 -15.5 -60.5t-52.5 -82.5z" />
    <glyph glyph-name="quotesinglbase" unicode="&#x201a;" horiz-adv-x="217" 
d="M21 -161h-101l91 167q-20 15 -20 48q0 50 22.5 73t71.5 23q76 0 76 -66q0 -30 -15.5 -60.5t-52.5 -82.5z" />
    <glyph glyph-name="quotedblleft" unicode="&#x201c;" horiz-adv-x="479" 
d="M215 743h100l-91 -168q21 -14 21 -47q0 -50 -23 -73t-72 -23q-75 0 -75 66q0 30 15.5 60.5t52.5 82.5zM444 743h100l-91 -168q21 -14 21 -47q0 -50 -23 -73t-72 -23q-75 0 -75 66q0 30 15.5 60.5t52.5 82.5z" />
    <glyph glyph-name="quotedblright" unicode="&#x201d;" horiz-adv-x="479" 
d="M159 436h-100l91 168q-21 14 -21 47q0 50 23 73t72 23q75 0 75 -66q0 -30 -15.5 -60.5t-52.5 -82.5zM388 436h-100l91 168q-21 14 -21 47q0 50 23 73t72 23q75 0 75 -66q0 -30 -15.5 -60.5t-52.5 -82.5z" />
    <glyph glyph-name="quotedblbase" unicode="&#x201e;" horiz-adv-x="441" 
d="M21 -160h-100l91 168q-21 14 -21 47q0 50 23 73t72 23q75 0 75 -66q0 -30 -15.5 -60.5t-52.5 -82.5zM245 -160h-100l91 168q-21 14 -21 47q0 50 23 73t72 23q75 0 75 -66q0 -30 -15.5 -60.5t-52.5 -82.5z" />
    <glyph glyph-name="dagger" unicode="&#x2020;" horiz-adv-x="523" 
d="M506 353h-148l-104 -534h-158l104 534h-171l50 132h147l44 228h158l-44 -228h172z" />
    <glyph glyph-name="daggerdbl" unicode="&#x2021;" horiz-adv-x="527" 
d="M446 38h-148l-42 -219h-158l42 219h-170l49 132h147l38 196h-171l50 132h146l42 215h158l-42 -215h173l-50 -132h-148l-38 -196h172z" />
    <glyph glyph-name="bullet" unicode="&#x2022;" horiz-adv-x="429" 
d="M367 280q0 -77 -35.5 -114t-115.5 -37t-115.5 37t-35.5 114t35.5 114t115.5 37t115.5 -37t35.5 -114z" />
    <glyph glyph-name="ellipsis" unicode="&#x2026;" horiz-adv-x="1000" 
d="M40 58q0 54 23 78t76 24q79 0 79 -68q0 -54 -23 -78t-76 -24q-79 0 -79 68zM375 58q0 54 23 78t76 24q79 0 79 -68q0 -54 -23 -78t-76 -24q-79 0 -79 68zM708 58q0 54 23 78t76 24q79 0 79 -68q0 -54 -23 -78t-76 -24q-79 0 -79 68z" />
    <glyph glyph-name="perthousand" unicode="&#x2030;" horiz-adv-x="1355" 
d="M296 0h-141l542 680h141zM801 179l7 34q6 31 6 48q0 26 -11 35t-35 9q-29 0 -44 -17.5t-26 -74.5l-6 -34q-7 -35 -7 -48q0 -25 11.5 -34.5t34.5 -9.5q29 0 44 17.5t26 74.5zM930 218l-9 -49q-17 -91 -64 -134.5t-131 -43.5q-79 0 -120 35t-41 101q0 20 5 47l9 49
q17 93 63.5 135.5t130.5 42.5q80 0 121 -36t41 -100q0 -20 -5 -47zM1192 179l7 34q6 31 6 48q0 26 -11 35t-35 9q-29 0 -44 -17.5t-26 -74.5l-6 -34q-7 -35 -7 -48q0 -25 11.5 -34.5t34.5 -9.5q29 0 44 17.5t26 74.5zM1321 218l-9 -49q-17 -91 -64 -134.5t-131 -43.5
q-79 0 -120 35t-41 101q0 20 5 47l9 49q17 93 63.5 135.5t130.5 42.5q80 0 121 -36t41 -100q0 -20 -5 -47zM295 468l7 34q6 32 6 48q0 26 -11 35t-35 9q-29 0 -44 -17.5t-26 -74.5l-6 -34q-7 -35 -7 -48q0 -25 11.5 -34.5t34.5 -9.5q29 0 44 17.5t26 74.5zM424 507l-9 -49
q-17 -91 -64 -134.5t-131 -43.5q-79 0 -120 35t-41 101q0 20 5 47l9 49q17 93 63.5 135.5t130.5 42.5q80 0 121 -36t41 -100q0 -20 -5 -47z" />
    <glyph glyph-name="guilsinglleft" unicode="&#x2039;" horiz-adv-x="333" 
d="M309 346l-170 -88l135 -91l-28 -145l-231 160l30 159l294 159z" />
    <glyph glyph-name="guilsinglright" unicode="&#x203a;" horiz-adv-x="333" 
d="M25 175l169 88l-135 92l28 145l232 -160l-31 -159l-293 -159z" />
    <glyph glyph-name="fraction" unicode="&#x2044;" horiz-adv-x="147" 
d="M-111 0h-141l542 680h141z" />
    <glyph glyph-name="uni2070" unicode="&#x2070;" 
d="M289 467l7 34q6 31 6 48q0 26 -11 35t-35 9q-29 0 -44 -17.5t-26 -74.5l-6 -34q-7 -35 -7 -48q0 -25 11.5 -34.5t34.5 -9.5q29 0 44 17.5t26 74.5zM418 506l-9 -49q-17 -91 -64 -134.5t-131 -43.5q-79 0 -120 35t-41 101q0 20 5 47l9 49q17 93 63.5 135.5t130.5 42.5
q80 0 121 -36t41 -100q0 -20 -5 -47z" />
    <glyph glyph-name="uni2074" unicode="&#x2074;" 
d="M408 447l-35 -88h-29l-14 -71h-103l14 71h-190l12 80l165 241h115l-162 -233h77l17 87l106 15l-20 -102h47z" />
    <glyph glyph-name="uni2075" unicode="&#x2075;" 
d="M215 377q25 0 38 9q14 11 14 33q0 30 -45 30h-126l45 231h270l-29 -88h-156l-11 -56h41q130 0 130 -103q0 -15 -3 -35q-21 -111 -169 -111q-100 0 -152 1l29 90q36 -1 124 -1z" />
    <glyph glyph-name="uni2076" unicode="&#x2076;" 
d="M74 451l13 75q27 155 202 155q30 0 66.5 -0.5t54.5 -0.5l-33 -89q-25 2 -91 2q-38 0 -58.5 -13t-28.5 -48l-1 -8q23 20 73 20q60 0 91.5 -28t31.5 -80q0 -16 -3 -33q-24 -124 -170 -124q-152 0 -152 125q0 15 5 47zM179 422q-2 -5 -2 -20q0 -39 49 -39t58 45q1 8 1 17
q0 39 -49 39q-48 0 -57 -42z" />
    <glyph glyph-name="uni2077" unicode="&#x2077;" 
d="M224 288h-131l186 295h-180l37 97h293l-17 -83z" />
    <glyph glyph-name="uni2078" unicode="&#x2078;" 
d="M411 570q-13 -60 -66 -80q45 -22 45 -76q0 -12 -3 -27q-11 -55 -52.5 -81.5t-121.5 -26.5q-78 0 -118.5 26t-40.5 75q0 5 2 27q15 74 77 92q-34 19 -34 64q0 8 2 22q17 104 162 104q74 0 112 -25t38 -71q0 -5 -2 -23zM170 412q-2 -14 -2 -16q0 -38 50 -38q27 0 40 9
t18 35q2 14 2 16q0 37 -51 37q-27 0 -39.5 -9.5t-17.5 -33.5zM206 574q-2 -14 -2 -15q0 -33 47 -33q24 0 35.5 8.5t16.5 31.5q1 5 1 14q0 32 -46 32q-24 0 -36 -8.5t-16 -29.5z" />
    <glyph glyph-name="uni2079" unicode="&#x2079;" 
d="M404 517l-14 -75q-15 -82 -65 -118.5t-137 -36.5q-30 0 -66.5 0.5t-54.5 0.5l34 89q24 -2 91 -2q38 0 58 13t28 48l2 8q-25 -20 -73 -20q-60 0 -91.5 28t-31.5 80q0 16 3 33q20 124 169 124q152 0 152 -125q0 -22 -4 -47zM299 546q2 14 2 20q0 39 -50 39q-25 0 -38.5 -10
t-18.5 -35q-2 -5 -2 -17q0 -39 49 -39t58 42z" />
    <glyph glyph-name="uni2080" unicode="&#x2080;" 
d="M233 179l7 34q6 31 6 48q0 26 -11 35t-35 9q-29 0 -44 -17.5t-26 -74.5l-6 -34q-7 -35 -7 -48q0 -25 11.5 -34.5t34.5 -9.5q29 0 44 17.5t26 74.5zM362 218l-9 -49q-17 -91 -64 -134.5t-131 -43.5q-79 0 -120 35t-41 101q0 20 5 47l9 49q17 93 63.5 135.5t130.5 42.5
q80 0 121 -36t41 -100q0 -20 -5 -47z" />
    <glyph glyph-name="uni2081" unicode="&#x2081;" 
d="M63 297l38 95h189l-57 -295h87l-35 -97h-282l35 97h73l39 200h-87z" />
    <glyph glyph-name="uni2082" unicode="&#x2082;" 
d="M135 95l-1 -4h184l-30 -91h-287l14 71q12 64 36.5 97t75.5 51l60 22q27 10 32 26q2 6 2 14q0 12 -8.5 17.5t-31.5 5.5q-94 0 -129 -2l33 89q34 2 118 2q136 0 136 -94q0 -13 -3 -30q-8 -41 -30.5 -64t-67.5 -41l-57 -21q-23 -8 -32.5 -18t-13.5 -30z" />
    <glyph glyph-name="uni2083" unicode="&#x2083;" 
d="M163 156h-110l33 85h93q23 0 33 8q12 11 12 28q0 26 -39 26q-91 0 -128 -1l36 90q35 1 123 1q60 0 92.5 -23t32.5 -66q0 -30 -10 -49q-16 -39 -55 -55q46 -18 46 -75q0 -10 -2 -26q-18 -100 -166 -100q-15 0 -82.5 0.5t-77.5 0.5l34 89q14 0 58.5 -0.5t68.5 -0.5
q27 0 37 9q13 10 13 31q0 16 -10 22t-32 6z" />
    <glyph glyph-name="uni2084" unicode="&#x2084;" 
d="M352 159l-35 -88h-29l-14 -71h-103l14 71h-190l12 80l165 241h115l-162 -233h77l17 87l106 15l-20 -102h47z" />
    <glyph glyph-name="uni2085" unicode="&#x2085;" 
d="M159 89q25 0 38 9q14 11 14 33q0 30 -45 30h-126l45 231h270l-29 -88h-156l-11 -56h41q130 0 130 -103q0 -15 -3 -35q-21 -111 -169 -111q-100 0 -152 1l29 90q36 -1 124 -1z" />
    <glyph glyph-name="uni2086" unicode="&#x2086;" 
d="M18 163l13 75q27 155 202 155q30 0 66.5 -0.5t54.5 -0.5l-33 -89q-25 2 -91 2q-38 0 -58.5 -13t-28.5 -48l-1 -8q23 20 73 20q60 0 91.5 -28t31.5 -80q0 -16 -3 -33q-24 -124 -170 -124q-152 0 -152 125q0 15 5 47zM123 134q-2 -5 -2 -20q0 -39 49 -39t58 45q1 8 1 17
q0 39 -49 39q-48 0 -57 -42z" />
    <glyph glyph-name="uni2087" unicode="&#x2087;" 
d="M168 0h-131l186 295h-180l37 97h293l-17 -83z" />
    <glyph glyph-name="uni2088" unicode="&#x2088;" 
d="M355 282q-13 -60 -66 -80q45 -22 45 -76q0 -12 -3 -27q-11 -55 -52.5 -81.5t-121.5 -26.5q-78 0 -118.5 26t-40.5 75q0 5 2 27q15 74 77 92q-34 19 -34 64q0 8 2 22q17 104 162 104q74 0 112 -25t38 -71q0 -5 -2 -23zM114 124q-2 -14 -2 -16q0 -38 50 -38q27 0 40 9
t18 35q2 14 2 16q0 37 -51 37q-27 0 -39.5 -9.5t-17.5 -33.5zM150 286q-2 -14 -2 -15q0 -33 47 -33q24 0 35.5 8.5t16.5 31.5q1 5 1 14q0 32 -46 32q-24 0 -36 -8.5t-16 -29.5z" />
    <glyph glyph-name="uni2089" unicode="&#x2089;" 
d="M348 229l-14 -75q-15 -82 -65 -118.5t-137 -36.5q-30 0 -66.5 0.5t-54.5 0.5l34 89q24 -2 91 -2q38 0 58 13t28 48l2 8q-25 -20 -73 -20q-60 0 -91.5 28t-31.5 80q0 16 3 33q20 124 169 124q152 0 152 -125q0 -22 -4 -47zM243 258q2 14 2 20q0 39 -50 39q-25 0 -38.5 -10
t-18.5 -35q-2 -5 -2 -17q0 -39 49 -39t58 42z" />
    <glyph glyph-name="Euro" unicode="&#x20ac;" horiz-adv-x="595" 
d="M53 371l37 101h61q43 118 126 164t225 46q60 0 129 -4l-48 -126q-39 3 -105 3q-68 0 -106.5 -18t-62.5 -65h226l-38 -101h-224q-7 -32 -12 -65h241l-39 -101h-204q7 -44 38.5 -62t98.5 -18q37 0 133 2l-46 -125q-27 -2 -116 -2q-131 0 -193.5 51.5t-68.5 153.5h-88
l40 101h54q5 31 12 65h-70z" />
    <glyph glyph-name="uni20B9" unicode="&#x20b9;" horiz-adv-x="595" 
d="M581 509l-43 -115h-55q-48 -165 -231 -172l214 -222h-187l-224 235l20 103h122q57 0 87 12t44 44h-243l23 115h235q-5 29 -28 42.5t-73 13.5h-123l23 115h473l-36 -96h-114q21 -28 28 -75h88z" />
    <glyph glyph-name="uni20BA" unicode="&#x20ba;" horiz-adv-x="595" 
d="M448 494l-153 -65l-12 -60l152 64l-21 -111l-152 -64l-25 -128h41q57 0 89.5 24t44.5 85l3 15l142 27l-8 -44q-24 -123 -85 -180t-191 -57h-210l37 189l-70 -29l21 111l70 30l12 60l-69 -29l21 111l69 29l41 208h149l-27 -139l152 64z" />
    <glyph glyph-name="afii61289" unicode="&#x2113;" horiz-adv-x="495" 
d="M103 147l-49 -39l-61 95l101 74v236q0 211 185 211q82 0 128.5 -44t46.5 -127t-52.5 -158t-170.5 -162v-34q0 -51 19 -72.5t68 -21.5q50 0 106 24l33 -97q-79 -46 -173 -46q-167 0 -181 161zM231 525v-153q49 47 69.5 86.5t20.5 83.5q0 66 -44 66q-24 0 -35 -18.5
t-11 -64.5z" />
    <glyph glyph-name="trademark" unicode="&#x2122;" horiz-adv-x="884" 
d="M583 557l-42 -217h-112l73 372h127l49 -164l107 164h135l-72 -372h-113l42 217l-87 -134h-70zM461 712l-42 -103h-103l-52 -269h-120l52 269h-124l42 103h347z" />
    <glyph glyph-name="uni2126" unicode="&#x2126;" horiz-adv-x="719" 
d="M678 128l-51 -128h-267l23 115q57 42 89.5 93.5t49.5 143.5q14 79 14 123q0 68 -29 93t-95 25q-84 0 -124 -45.5t-65 -184.5q-10 -57 -10 -101q0 -89 58 -147l-23 -115h-278l50 128h83q-53 63 -53 165q0 47 10 103q32 177 118 256t246 79q284 0 284 -247q0 -62 -16 -130
q-16 -75 -43.5 -127t-77.5 -99h107z" />
    <glyph glyph-name="estimated" unicode="&#x212e;" horiz-adv-x="767" 
d="M398 656q-143 0 -212 -69v-211h431v211q-82 69 -219 69zM678 164l22 -15q-56 -87 -126 -123t-172 -36q-161 0 -255 99.5t-94 250.5t92.5 248t252.5 97q162 0 256 -94.5t96 -250.5h-564v-245q78 -78 217 -78q95 0 160.5 34t114.5 113z" />
    <glyph glyph-name="uni2150" unicode="&#x2150;" horiz-adv-x="925" 
d="M278 0h-141l542 680h141zM703 0h-131l186 295h-180l37 97h293l-17 -83zM119 585l38 95h189l-57 -295h87l-35 -97h-282l35 97h73l39 200h-87z" />
    <glyph glyph-name="uni2151" unicode="&#x2151;" horiz-adv-x="925" 
d="M280 0h-141l542 680h141zM883 229l-14 -75q-15 -82 -65 -118.5t-137 -36.5q-30 0 -66.5 0.5t-54.5 0.5l34 89q24 -2 91 -2q38 0 58 13t28 48l2 8q-25 -20 -73 -20q-60 0 -91.5 28t-31.5 80q0 16 3 33q20 124 169 124q152 0 152 -125q0 -22 -4 -47zM778 258q2 14 2 20
q0 39 -50 39q-25 0 -38.5 -10t-18.5 -35q-2 -5 -2 -17q0 -39 49 -39t58 42zM119 585l38 95h189l-57 -295h87l-35 -97h-282l35 97h73l39 200h-87z" />
    <glyph glyph-name="onethird" unicode="&#x2153;" horiz-adv-x="925" 
d="M284 0h-141l542 680h141zM697 156h-110l33 85h93q23 0 33 8q12 11 12 28q0 26 -39 26q-91 0 -128 -1l36 90q35 1 123 1q60 0 92.5 -23t32.5 -66q0 -30 -10 -49q-16 -39 -55 -55q46 -18 46 -75q0 -10 -2 -26q-18 -100 -166 -100q-15 0 -82.5 0.5t-77.5 0.5l34 89
q14 0 58.5 -0.5t68.5 -0.5q27 0 37 9q13 10 13 31q0 16 -10 22t-32 6zM119 585l38 95h189l-57 -295h87l-35 -97h-282l35 97h73l39 200h-87z" />
    <glyph glyph-name="twothirds" unicode="&#x2154;" horiz-adv-x="925" 
d="M288 0h-141l542 680h141zM698 156h-110l33 85h93q23 0 33 8q12 11 12 28q0 26 -39 26q-91 0 -128 -1l36 90q35 1 123 1q60 0 92.5 -23t32.5 -66q0 -30 -10 -49q-16 -39 -55 -55q46 -18 46 -75q0 -10 -2 -26q-18 -100 -166 -100q-15 0 -82.5 0.5t-77.5 0.5l34 89
q14 0 58.5 -0.5t68.5 -0.5q27 0 37 9q13 10 13 31q0 16 -10 22t-32 6zM191 383l-1 -4h184l-30 -91h-287l14 71q12 64 36.5 97t75.5 51l60 22q27 10 32 26q2 6 2 14q0 12 -8.5 17.5t-31.5 5.5q-94 0 -129 -2l33 89q34 2 118 2q136 0 136 -94q0 -13 -3 -30q-8 -41 -30.5 -64
t-67.5 -41l-57 -21q-23 -8 -32.5 -18t-13.5 -30z" />
    <glyph glyph-name="uni2155" unicode="&#x2155;" horiz-adv-x="925" 
d="M279 0h-141l542 680h141zM694 89q24 0 38 9q14 11 14 33q0 30 -45 30h-126l45 231h270l-29 -88h-156l-11 -56h41q130 0 130 -103q0 -15 -3 -35q-21 -111 -169 -111q-100 0 -152 1l29 90q36 -1 124 -1zM119 585l38 95h189l-57 -295h87l-35 -97h-282l35 97h73l39 200h-87z
" />
    <glyph glyph-name="uni2156" unicode="&#x2156;" horiz-adv-x="925" 
d="M282 0h-141l542 680h141zM694 89q24 0 38 9q14 11 14 33q0 30 -45 30h-126l45 231h270l-29 -88h-156l-11 -56h41q130 0 130 -103q0 -15 -3 -35q-21 -111 -169 -111q-100 0 -152 1l29 90q36 -1 124 -1zM191 383l-1 -4h184l-30 -91h-287l14 71q12 64 36.5 97t75.5 51l60 22
q27 10 32 26q2 6 2 14q0 12 -8.5 17.5t-31.5 5.5q-94 0 -129 -2l33 89q34 2 118 2q136 0 136 -94q0 -13 -3 -30q-8 -41 -30.5 -64t-67.5 -41l-57 -21q-23 -8 -32.5 -18t-13.5 -30z" />
    <glyph glyph-name="uni2157" unicode="&#x2157;" horiz-adv-x="925" 
d="M271 0h-141l542 680h141zM694 89q24 0 38 9q14 11 14 33q0 30 -45 30h-126l45 231h270l-29 -88h-156l-11 -56h41q130 0 130 -103q0 -15 -3 -35q-21 -111 -169 -111q-100 0 -152 1l29 90q36 -1 124 -1zM219 444h-110l33 85h93q23 0 33 8q12 11 12 28q0 26 -39 26
q-91 0 -128 -1l36 90q35 1 123 1q60 0 92.5 -23t32.5 -66q0 -30 -10 -49q-16 -39 -55 -55q46 -18 46 -75q0 -10 -2 -26q-18 -100 -166 -100q-15 0 -82.5 0.5t-77.5 0.5l34 89q14 0 58.5 -0.5t68.5 -0.5q27 0 37 9q13 10 13 31q0 16 -10 22t-32 6z" />
    <glyph glyph-name="uni2158" unicode="&#x2158;" horiz-adv-x="925" 
d="M278 0h-141l542 680h141zM694 89q24 0 38 9q14 11 14 33q0 30 -45 30h-126l45 231h270l-29 -88h-156l-11 -56h41q130 0 130 -103q0 -15 -3 -35q-21 -111 -169 -111q-100 0 -152 1l29 90q36 -1 124 -1zM408 447l-35 -88h-29l-14 -71h-103l14 71h-190l12 80l165 241h115
l-162 -233h77l17 87l106 15l-20 -102h47z" />
    <glyph glyph-name="uni2159" unicode="&#x2159;" horiz-adv-x="925" 
d="M289 0h-141l542 680h141zM553 163l13 75q27 155 202 155q30 0 66.5 -0.5t54.5 -0.5l-33 -89q-25 2 -91 2q-38 0 -58.5 -13t-28.5 -48l-1 -8q23 20 73 20q60 0 91.5 -28t31.5 -80q0 -16 -3 -33q-24 -124 -170 -124q-152 0 -152 125q0 15 5 47zM658 134q-2 -5 -2 -20
q0 -39 49 -39t58 45q1 8 1 17q0 39 -49 39q-48 0 -57 -42zM119 585l38 95h189l-57 -295h87l-35 -97h-282l35 97h73l39 200h-87z" />
    <glyph glyph-name="uni215A" unicode="&#x215a;" horiz-adv-x="925" 
d="M283 0h-141l542 680h141zM553 163l13 75q27 155 202 155q30 0 66.5 -0.5t54.5 -0.5l-33 -89q-25 2 -91 2q-38 0 -58.5 -13t-28.5 -48l-1 -8q23 20 73 20q60 0 91.5 -28t31.5 -80q0 -16 -3 -33q-24 -124 -170 -124q-152 0 -152 125q0 15 5 47zM658 134q-2 -5 -2 -20
q0 -39 49 -39t58 45q1 8 1 17q0 39 -49 39q-48 0 -57 -42zM215 377q25 0 38 9q14 11 14 33q0 30 -45 30h-126l45 231h270l-29 -88h-156l-11 -56h41q130 0 130 -103q0 -15 -3 -35q-21 -111 -169 -111q-100 0 -152 1l29 90q36 -1 124 -1z" />
    <glyph glyph-name="oneeighth" unicode="&#x215b;" horiz-adv-x="925" 
d="M281 0h-141l542 680h141zM890 282q-13 -60 -66 -80q45 -22 45 -76q0 -12 -3 -27q-11 -55 -52.5 -81.5t-121.5 -26.5q-78 0 -118.5 26t-40.5 75q0 5 2 27q15 74 77 92q-34 19 -34 64q0 8 2 22q17 104 162 104q74 0 112 -25t38 -71q0 -5 -2 -23zM649 124q-2 -14 -2 -16
q0 -38 50 -38q27 0 40 9t18 35q2 14 2 16q0 37 -51 37q-27 0 -39.5 -9.5t-17.5 -33.5zM685 286q-2 -14 -2 -15q0 -33 47 -33q24 0 35.5 8.5t16.5 31.5q1 5 1 14q0 32 -46 32q-24 0 -36 -8.5t-16 -29.5zM119 585l38 95h189l-57 -295h87l-35 -97h-282l35 97h73l39 200h-87z
" />
    <glyph glyph-name="threeeighths" unicode="&#x215c;" horiz-adv-x="925" 
d="M273 0h-141l542 680h141zM890 282q-13 -60 -66 -80q45 -22 45 -76q0 -12 -3 -27q-11 -55 -52.5 -81.5t-121.5 -26.5q-78 0 -118.5 26t-40.5 75q0 5 2 27q15 74 77 92q-34 19 -34 64q0 8 2 22q17 104 162 104q74 0 112 -25t38 -71q0 -5 -2 -23zM649 124q-2 -14 -2 -16
q0 -38 50 -38q27 0 40 9t18 35q2 14 2 16q0 37 -51 37q-27 0 -39.5 -9.5t-17.5 -33.5zM685 286q-2 -14 -2 -15q0 -33 47 -33q24 0 35.5 8.5t16.5 31.5q1 5 1 14q0 32 -46 32q-24 0 -36 -8.5t-16 -29.5zM219 444h-110l33 85h93q23 0 33 8q12 11 12 28q0 26 -39 26
q-91 0 -128 -1l36 90q35 1 123 1q60 0 92.5 -23t32.5 -66q0 -30 -10 -49q-16 -39 -55 -55q46 -18 46 -75q0 -10 -2 -26q-18 -100 -166 -100q-15 0 -82.5 0.5t-77.5 0.5l34 89q14 0 58.5 -0.5t68.5 -0.5q27 0 37 9q13 10 13 31q0 16 -10 22t-32 6z" />
    <glyph glyph-name="fiveeighths" unicode="&#x215d;" horiz-adv-x="925" 
d="M274 0h-141l542 680h141zM890 282q-13 -60 -66 -80q45 -22 45 -76q0 -12 -3 -27q-11 -55 -52.5 -81.5t-121.5 -26.5q-78 0 -118.5 26t-40.5 75q0 5 2 27q15 74 77 92q-34 19 -34 64q0 8 2 22q17 104 162 104q74 0 112 -25t38 -71q0 -5 -2 -23zM649 124q-2 -14 -2 -16
q0 -38 50 -38q27 0 40 9t18 35q2 14 2 16q0 37 -51 37q-27 0 -39.5 -9.5t-17.5 -33.5zM685 286q-2 -14 -2 -15q0 -33 47 -33q24 0 35.5 8.5t16.5 31.5q1 5 1 14q0 32 -46 32q-24 0 -36 -8.5t-16 -29.5zM215 377q25 0 38 9q14 11 14 33q0 30 -45 30h-126l45 231h270l-29 -88
h-156l-11 -56h41q130 0 130 -103q0 -15 -3 -35q-21 -111 -169 -111q-100 0 -152 1l29 90q36 -1 124 -1z" />
    <glyph glyph-name="seveneighths" unicode="&#x215e;" horiz-adv-x="925" 
d="M241 0h-141l542 680h141zM890 282q-13 -60 -66 -80q45 -22 45 -76q0 -12 -3 -27q-11 -55 -52.5 -81.5t-121.5 -26.5q-78 0 -118.5 26t-40.5 75q0 5 2 27q15 74 77 92q-34 19 -34 64q0 8 2 22q17 104 162 104q74 0 112 -25t38 -71q0 -5 -2 -23zM649 124q-2 -14 -2 -16
q0 -38 50 -38q27 0 40 9t18 35q2 14 2 16q0 37 -51 37q-27 0 -39.5 -9.5t-17.5 -33.5zM685 286q-2 -14 -2 -15q0 -33 47 -33q24 0 35.5 8.5t16.5 31.5q1 5 1 14q0 32 -46 32q-24 0 -36 -8.5t-16 -29.5zM224 288h-131l186 295h-180l37 97h293l-17 -83z" />
    <glyph glyph-name="partialdiff" unicode="&#x2202;" horiz-adv-x="613" 
d="M281 466q114 0 160 -61q24 70 24 112q0 49 -35 73t-116 24q-48 0 -142 -3l68 122q40 3 110 3q140 0 203 -51.5t63 -151.5q0 -74 -32 -179q-45 -150 -94 -230.5t-106 -110t-144 -29.5q-115 0 -170 48t-55 131q0 46 13 89q60 214 253 214zM254 106q46 0 75 28.5t52 102.5
q9 29 9 47q0 65 -86 65q-48 0 -77.5 -29t-49.5 -101q-8 -29 -8 -47q0 -66 85 -66z" />
    <glyph glyph-name="uni2206" unicode="&#x2206;" horiz-adv-x="707" 
d="M-40 0l386 712h189l111 -712h-686zM414 569l-222 -438h275z" />
    <glyph glyph-name="product" unicode="&#x220f;" horiz-adv-x="737" 
d="M815 712l-45 -121h-62l-132 -679h-156l131 679h-238l-132 -679h-156l131 679h-83l46 121h696z" />
    <glyph glyph-name="summation" unicode="&#x2211;" horiz-adv-x="570" 
d="M413 322l-250 -289h348l-50 -131h-513l21 110l275 317l-146 274l21 109h521l-51 -131h-314z" />
    <glyph glyph-name="minus" unicode="&#x2212;" horiz-adv-x="595" 
d="M522 276h-445l26 130h444z" />
    <glyph glyph-name="uni2215" unicode="&#x2215;" horiz-adv-x="147" 
d="M-111 0h-141l542 680h141z" />
    <glyph glyph-name="uni2219" unicode="&#x2219;" horiz-adv-x="225" 
d="M43 353q0 54 23 78t76 24q79 0 79 -68q0 -54 -23 -78t-76 -24q-79 0 -79 68z" />
    <glyph glyph-name="radical" unicode="&#x221a;" horiz-adv-x="664" 
d="M45 442l214 102l55 -375l340 710h155l-443 -884h-157l-66 369l-125 -60z" />
    <glyph glyph-name="infinity" unicode="&#x221e;" horiz-adv-x="743" 
d="M255 548q100 0 148 -86q74 86 172 86q78 0 120 -42.5t42 -115.5q0 -26 -6 -56q-40 -189 -210 -189q-100 0 -149 85q-72 -85 -170 -85q-78 0 -120 42t-42 116q0 31 5 55q36 190 210 190zM174 347q-3 -15 -3 -27q0 -51 50 -51q29 0 51.5 16t55.5 61q-17 44 -35 61t-48 17
q-57 0 -71 -77zM603 346q3 15 3 27q0 51 -51 51q-29 0 -51.5 -16t-54.5 -61q17 -45 35 -61.5t47 -16.5q57 0 72 77z" />
    <glyph glyph-name="integral" unicode="&#x222b;" horiz-adv-x="371" 
d="M33 -70q46 0 62.5 26.5t17.5 89.5l10 580q2 122 56.5 188t180.5 66q72 0 120 -4l-43 -122q-70 2 -76 2q-44 0 -61 -26.5t-18 -89.5l-10 -580q-2 -119 -56 -186.5t-181 -67.5q-69 0 -116 4l43 122q64 -2 71 -2z" />
    <glyph glyph-name="approxequal" unicode="&#x2248;" horiz-adv-x="595" 
d="M422 304h126l-4 -21q-20 -99 -56.5 -143t-97.5 -44q-19 0 -39.5 6t-31 11.5t-40.5 21.5l-17 9q-50 27 -68 27q-15 0 -24.5 -10.5t-15.5 -38.5l-3 -15h-125l4 21q18 100 55 143t99 43q27 0 50 -9t61 -30l17 -9q48 -26 67 -26q31 0 40 49zM471 560h126l-4 -21
q-20 -99 -56.5 -143t-97.5 -44q-19 0 -39.5 6t-31 11.5t-40.5 21.5l-17 9q-50 27 -68 27q-15 0 -24.5 -10.5t-15.5 -38.5l-3 -15h-125l4 21q18 100 55 143t99 43q27 0 50 -9t61 -30l17 -9q48 -26 67 -26q31 0 40 49z" />
    <glyph glyph-name="notequal" unicode="&#x2260;" horiz-adv-x="595" 
d="M126 516h249l69 101h109l-70 -101h84l-25 -130h-148l-59 -86h191l-26 -130h-254l-63 -93h-108l63 93h-79l26 130h142l59 86h-185z" />
    <glyph glyph-name="lessequal" unicode="&#x2264;" horiz-adv-x="595" 
d="M470 1h-445l26 130h444zM564 508l-319 -110l276 -110l-25 -131l-406 176l27 139l475 177z" />
    <glyph glyph-name="greaterequal" unicode="&#x2265;" horiz-adv-x="595" 
d="M470 1h-445l26 130h444zM84 298l319 110l-276 110l25 131l406 -176l-27 -139l-475 -177z" />
    <glyph glyph-name="lozenge" unicode="&#x25ca;" horiz-adv-x="626" 
d="M192 0l-166 356l305 356h137l167 -356l-306 -356h-137zM192 344l91 -200l185 224l-90 199z" />
    <glyph glyph-name="uniF001" unicode="&#xf001;" horiz-adv-x="592" 
d="M258 523h135l-48 -125h-112l-77 -398h-159l102 522q23 123 91 173t199 50q146 0 189 -3l-46 -124q-26 0 -78.5 1t-64.5 1q-69 0 -95 -19t-36 -78zM334 0l102 523h159l-102 -523h-159z" />
    <glyph glyph-name="uniF002" unicode="&#xf002;" horiz-adv-x="605" 
d="M258 523h129l-48 -125h-106l-77 -398h-159l102 522q24 123 88.5 173t189.5 50q21 0 72 -3l-45 -124q-18 2 -28 2q-60 0 -84 -19.5t-34 -77.5zM347 0l145 743h159l-145 -743h-159z" />
    <glyph glyph-name="uniF507" unicode="&#xf507;" horiz-adv-x="925" 
d="M278 0h-141l542 680h141zM703 0h-131l186 295h-180l37 97h293l-17 -83zM191 383l-1 -4h184l-30 -91h-287l14 71q12 64 36.5 97t75.5 51l60 22q27 10 32 26q2 6 2 14q0 12 -8.5 17.5t-31.5 5.5q-94 0 -129 -2l33 89q34 2 118 2q136 0 136 -94q0 -13 -3 -30
q-8 -41 -30.5 -64t-67.5 -41l-57 -21q-23 -8 -32.5 -18t-13.5 -30z" />
    <glyph glyph-name="uniF508" unicode="&#xf508;" horiz-adv-x="925" 
d="M271 0h-141l542 680h141zM703 0h-131l186 295h-180l37 97h293l-17 -83zM219 444h-110l33 85h93q23 0 33 8q12 11 12 28q0 26 -39 26q-91 0 -128 -1l36 90q35 1 123 1q60 0 92.5 -23t32.5 -66q0 -30 -10 -49q-16 -39 -55 -55q46 -18 46 -75q0 -10 -2 -26
q-18 -100 -166 -100q-15 0 -82.5 0.5t-77.5 0.5l34 89q14 0 58.5 -0.5t68.5 -0.5q27 0 37 9q13 10 13 31q0 16 -10 22t-32 6z" />
    <glyph glyph-name="uniF509" unicode="&#xf509;" horiz-adv-x="925" 
d="M272 0h-141l542 680h141zM703 0h-131l186 295h-180l37 97h293l-17 -83zM408 447l-35 -88h-29l-14 -71h-103l14 71h-190l12 80l165 241h115l-162 -233h77l17 87l106 15l-20 -102h47z" />
    <glyph glyph-name="uniF50A" unicode="&#xf50a;" horiz-adv-x="925" 
d="M273 0h-141l542 680h141zM703 0h-131l186 295h-180l37 97h293l-17 -83zM215 377q25 0 38 9q14 11 14 33q0 30 -45 30h-126l45 231h270l-29 -88h-156l-11 -56h41q130 0 130 -103q0 -15 -3 -35q-21 -111 -169 -111q-100 0 -152 1l29 90q36 -1 124 -1z" />
    <glyph glyph-name="uniF50B" unicode="&#xf50b;" horiz-adv-x="925" 
d="M274 0h-141l542 680h141zM703 0h-131l186 295h-180l37 97h293l-17 -83zM74 451l13 75q27 155 202 155q30 0 66.5 -0.5t54.5 -0.5l-33 -89q-25 2 -91 2q-38 0 -58.5 -13t-28.5 -48l-1 -8q23 20 73 20q60 0 91.5 -28t31.5 -80q0 -16 -3 -33q-24 -124 -170 -124
q-152 0 -152 125q0 15 5 47zM179 422q-2 -5 -2 -20q0 -39 49 -39t58 45q1 8 1 17q0 39 -49 39q-48 0 -57 -42z" />
    <glyph glyph-name="uniF50D" unicode="&#xf50d;" horiz-adv-x="925" 
d="M280 0h-141l542 680h141zM883 229l-14 -75q-15 -82 -65 -118.5t-137 -36.5q-30 0 -66.5 0.5t-54.5 0.5l34 89q24 -2 91 -2q38 0 58 13t28 48l2 8q-25 -20 -73 -20q-60 0 -91.5 28t-31.5 80q0 16 3 33q20 124 169 124q152 0 152 -125q0 -22 -4 -47zM778 258q2 14 2 20
q0 39 -50 39q-25 0 -38.5 -10t-18.5 -35q-2 -5 -2 -17q0 -39 49 -39t58 42zM191 383l-1 -4h184l-30 -91h-287l14 71q12 64 36.5 97t75.5 51l60 22q27 10 32 26q2 6 2 14q0 12 -8.5 17.5t-31.5 5.5q-94 0 -129 -2l33 89q34 2 118 2q136 0 136 -94q0 -13 -3 -30
q-8 -41 -30.5 -64t-67.5 -41l-57 -21q-23 -8 -32.5 -18t-13.5 -30z" />
    <glyph glyph-name="uniF50E" unicode="&#xf50e;" horiz-adv-x="925" 
d="M274 0h-141l542 680h141zM883 230l-14 -75q-15 -82 -65 -118.5t-137 -36.5q-30 0 -66.5 0.5t-54.5 0.5l34 89q24 -2 91 -2q38 0 58 13t28 48l2 8q-25 -20 -73 -20q-60 0 -91.5 28t-31.5 80q0 17 3 33q20 124 169 124q152 0 152 -125q0 -22 -4 -47zM778 259q2 14 2 20
q0 39 -50 39q-25 0 -38.5 -10t-18.5 -35q-2 -5 -2 -17q0 -39 49 -39t58 42zM408 447l-35 -88h-29l-14 -71h-103l14 71h-190l12 80l165 241h115l-162 -233h77l17 87l106 15l-20 -102h47z" />
    <glyph glyph-name="uniF50F" unicode="&#xf50f;" horiz-adv-x="925" 
d="M272 0h-141l542 680h141zM883 229l-14 -75q-15 -82 -65 -118.5t-137 -36.5q-30 0 -66.5 0.5t-54.5 0.5l34 89q24 -2 91 -2q38 0 58 13t28 48l2 8q-25 -20 -73 -20q-60 0 -91.5 28t-31.5 80q0 16 3 33q20 124 169 124q152 0 152 -125q0 -22 -4 -47zM778 258q2 14 2 20
q0 39 -50 39q-25 0 -38.5 -10t-18.5 -35q-2 -5 -2 -17q0 -39 49 -39t58 42zM215 377q25 0 38 9q14 11 14 33q0 30 -45 30h-126l45 231h270l-29 -88h-156l-11 -56h41q130 0 130 -103q0 -15 -3 -35q-21 -111 -169 -111q-100 0 -152 1l29 90q36 -1 124 -1z" />
    <glyph glyph-name="uniF510" unicode="&#xf510;" horiz-adv-x="925" 
d="M246 0h-141l542 680h141zM883 229l-14 -75q-15 -82 -65 -118.5t-137 -36.5q-30 0 -66.5 0.5t-54.5 0.5l34 89q24 -2 91 -2q38 0 58 13t28 48l2 8q-25 -20 -73 -20q-60 0 -91.5 28t-31.5 80q0 16 3 33q20 124 169 124q152 0 152 -125q0 -22 -4 -47zM778 258q2 14 2 20
q0 39 -50 39q-25 0 -38.5 -10t-18.5 -35q-2 -5 -2 -17q0 -39 49 -39t58 42zM224 288h-131l186 295h-180l37 97h293l-17 -83z" />
    <glyph glyph-name="uniF511" unicode="&#xf511;" horiz-adv-x="925" 
d="M279 0h-141l542 680h141zM883 229l-14 -75q-15 -82 -65 -118.5t-137 -36.5q-30 0 -66.5 0.5t-54.5 0.5l34 89q24 -2 91 -2q38 0 58 13t28 48l2 8q-25 -20 -73 -20q-60 0 -91.5 28t-31.5 80q0 16 3 33q20 124 169 124q152 0 152 -125q0 -22 -4 -47zM778 258q2 14 2 20
q0 39 -50 39q-25 0 -38.5 -10t-18.5 -35q-2 -5 -2 -17q0 -39 49 -39t58 42zM411 570q-13 -60 -66 -80q45 -22 45 -76q0 -12 -3 -27q-11 -55 -52.5 -81.5t-121.5 -26.5q-78 0 -118.5 26t-40.5 75q0 5 2 27q15 74 77 92q-34 19 -34 64q0 8 2 22q17 104 162 104q74 0 112 -25
t38 -71q0 -5 -2 -23zM170 412q-2 -14 -2 -16q0 -38 50 -38q27 0 40 9t18 35q2 14 2 16q0 37 -51 37q-27 0 -39.5 -9.5t-17.5 -33.5zM206 574q-2 -14 -2 -15q0 -33 47 -33q24 0 35.5 8.5t16.5 31.5q1 5 1 14q0 32 -46 32q-24 0 -36 -8.5t-16 -29.5z" />
    <glyph glyph-name="uniF6C3" unicode="&#xf6c3;" horiz-adv-x="500" 
d="M171 -261h-103l50 88q-20 15 -20 43q0 76 91 76q69 0 69 -55q0 -35 -33 -79z" />
    <glyph glyph-name="uniF800" unicode="&#xf800;" horiz-adv-x="595" 
d="M407 304l14 70q15 78 15 117q0 46 -18.5 62.5t-61.5 16.5q-57 0 -82 -37t-49 -158l-14 -69q-16 -76 -16 -117q0 -45 19 -62t62 -17q57 0 82 36.5t49 157.5zM48 300l17 88q31 163 99 235.5t204 72.5q119 0 174 -52t55 -155q0 -49 -12 -109l-17 -88q-31 -164 -99 -236
t-204 -72q-119 0 -174 52t-55 154q0 50 12 110z" />
    <glyph glyph-name="uniF801" unicode="&#xf801;" horiz-adv-x="595" 
d="M156 557l48 123h272l-108 -557h121l-47 -123h-380l47 123h98l84 434h-135z" />
    <glyph glyph-name="uniF802" unicode="&#xf802;" horiz-adv-x="595" 
d="M113 551l49 128q86 3 205 3q202 0 202 -153q0 -28 -6 -58q-14 -66 -50.5 -104.5t-114.5 -70.5l-111 -46q-40 -15 -56.5 -36.5t-24.5 -68.5l-4 -16h314l-48 -129h-445l26 136q18 98 56 147t127 87l97 41q56 24 70 43q12 17 12 51q0 26 -16 37.5t-56 11.5q-148 0 -226 -3z
" />
    <glyph glyph-name="uniF803" unicode="&#xf803;" horiz-adv-x="595" 
d="M562 481q-16 -97 -106 -133q71 -32 71 -127q0 -26 -2 -35q-15 -97 -82 -142.5t-203 -45.5q-187 0 -224 2l48 126q112 -2 198 -2q48 0 73 18.5t30 61.5q2 14 2 20q0 33 -18.5 46t-58.5 13h-175l48 123h148q44 0 66 17t27 58q1 7 1 18q0 31 -18.5 43.5t-57.5 12.5
q-32 0 -100 -0.5t-104 -0.5l49 126q26 0 88.5 1t86.5 1q217 0 217 -157q0 -27 -4 -44z" />
    <glyph glyph-name="uniF804" unicode="&#xf804;" horiz-adv-x="595" 
d="M537 459l-41 -210h77l-47 -123h-54l-24 -126h-149l24 126h-305l14 106l293 448h156l-283 -431h149l36 185z" />
    <glyph glyph-name="uniF805" unicode="&#xf805;" horiz-adv-x="595" 
d="M243 124q57 0 85.5 21.5t35.5 70.5q2 16 2 23q0 37 -21.5 52.5t-67.5 15.5h-186l73 373h414l-48 -126h-246l-24 -125h53q215 0 215 -171q0 -36 -7 -68q-23 -102 -92.5 -147t-208.5 -45q-146 0 -194 2l47 126q94 -2 170 -2z" />
    <glyph glyph-name="uniF806" unicode="&#xf806;" horiz-adv-x="595" 
d="M407 682q130 0 170 -2l-48 -127q-9 0 -42.5 1t-76.5 1q-75 0 -113.5 -25.5t-55.5 -110.5q36 30 108 30q95 0 143.5 -47t48.5 -136q0 -23 -5 -61q-37 -221 -261 -221q-225 0 -225 199q0 41 9 87l21 109q35 172 110 237.5t217 65.5zM204 230q-5 -32 -5 -47q0 -79 80 -79
q47 0 71 22t35 80q4 23 4 47q0 42 -19 60.5t-61 18.5q-48 0 -71 -21.5t-34 -80.5z" />
    <glyph glyph-name="uniF807" unicode="&#xf807;" horiz-adv-x="595" 
d="M276 0h-172l306 549h-314l51 131h451l-12 -104z" />
    <glyph glyph-name="uniF808" unicode="&#xf808;" horiz-adv-x="595" 
d="M538 177q-33 -193 -274 -193q-121 0 -179 45.5t-58 123.5q0 19 3 39q20 131 137 170q-64 34 -64 117q0 10 2 28q11 92 78 140.5t181 48.5q107 0 165.5 -40t58.5 -119q0 -26 -4 -46q-21 -105 -119 -138q77 -38 77 -130q0 -26 -4 -46zM186 208q-4 -17 -4 -35q0 -72 94 -72
q48 0 74 20t36 68q4 17 4 35q0 37 -22.5 54.5t-71.5 17.5q-45 0 -72 -19.5t-38 -68.5zM251 504q-4 -15 -4 -32q0 -63 88 -63q87 0 102 78q4 13 4 31q0 65 -89 65q-85 0 -101 -79z" />
    <glyph glyph-name="uniF809" unicode="&#xf809;" horiz-adv-x="595" 
d="M214 -2q-130 0 -170 2l48 127q9 0 42.5 -1t76.5 -1q75 0 113.5 25.5t55.5 110.5q-36 -30 -108 -30q-95 0 -143.5 47t-48.5 136q0 23 5 61q35 221 261 221q225 0 225 -199q0 -41 -9 -87l-21 -109q-35 -172 -110 -237.5t-217 -65.5zM417 450q5 32 5 47q0 79 -80 79
q-47 0 -71 -22t-35 -80q-4 -23 -4 -47q0 -42 19 -60.5t61 -18.5q48 0 71 21.5t34 80.5z" />
    <glyph glyph-name="uniF80A" unicode="&#xf80a;" 
d="M312 587l7 34q6 31 6 48q0 26 -11 35t-35 9q-29 0 -44 -17.5t-26 -74.5l-6 -34q-7 -35 -7 -48q0 -25 11.5 -34.5t34.5 -9.5q29 0 44 17.5t26 74.5zM441 626l-9 -49q-17 -91 -64 -134.5t-131 -43.5q-79 0 -120 35t-41 101q0 20 5 47l9 49q17 93 63.5 135.5t130.5 42.5
q80 0 121 -36t41 -100q0 -20 -5 -47z" />
    <glyph glyph-name="uniF80B" unicode="&#xf80b;" 
d="M142 705l38 95h189l-57 -295h87l-35 -97h-282l35 97h73l39 200h-87z" />
    <glyph glyph-name="uniF80C" unicode="&#xf80c;" 
d="M214 503l-1 -4h184l-30 -91h-287l14 71q12 64 36.5 97t75.5 51l60 22q27 10 32 26q2 6 2 14q0 12 -8.5 17.5t-31.5 5.5q-94 0 -129 -2l33 89q34 2 118 2q136 0 136 -94q0 -13 -3 -30q-8 -41 -30.5 -64t-67.5 -41l-57 -21q-23 -8 -32.5 -18t-13.5 -30z" />
    <glyph glyph-name="uniF80D" unicode="&#xf80d;" 
d="M242 564h-110l33 85h93q23 0 33 8q12 11 12 28q0 26 -39 26q-91 0 -128 -1l36 90q35 1 123 1q60 0 92.5 -23t32.5 -66q0 -30 -10 -49q-16 -39 -55 -55q46 -18 46 -75q0 -10 -2 -26q-18 -100 -166 -100q-15 0 -82.5 0.5t-77.5 0.5l34 89q14 0 58.5 -0.5t68.5 -0.5
q27 0 37 9q13 10 13 31q0 16 -10 22t-32 6z" />
    <glyph glyph-name="uniF80E" unicode="&#xf80e;" 
d="M431 567l-35 -88h-29l-14 -71h-103l14 71h-190l12 80l165 241h115l-162 -233h77l17 87l106 15l-20 -102h47z" />
    <glyph glyph-name="uniF80F" unicode="&#xf80f;" 
d="M238 497q24 0 38 9q14 11 14 33q0 30 -45 30h-126l45 231h270l-29 -88h-156l-11 -56h41q130 0 130 -103q0 -15 -3 -35q-21 -111 -169 -111q-100 0 -152 1l29 90q36 -1 124 -1z" />
    <glyph glyph-name="uniF810" unicode="&#xf810;" 
d="M97 571l13 75q27 155 202 155q30 0 66.5 -0.5t54.5 -0.5l-33 -89q-25 2 -91 2q-38 0 -58.5 -13t-28.5 -48l-1 -8q23 20 73 20q60 0 91.5 -28t31.5 -80q0 -16 -3 -33q-24 -124 -170 -124q-152 0 -152 125q0 15 5 47zM202 542q-2 -5 -2 -20q0 -39 49 -39t58 45q1 8 1 17
q0 39 -49 39q-48 0 -57 -42z" />
    <glyph glyph-name="uniF811" unicode="&#xf811;" 
d="M247 408h-131l186 295h-180l37 97h293l-17 -83z" />
    <glyph glyph-name="uniF812" unicode="&#xf812;" 
d="M434 690q-13 -60 -66 -80q45 -22 45 -76q0 -12 -3 -27q-11 -55 -52.5 -81.5t-121.5 -26.5q-78 0 -118.5 26t-40.5 75q0 5 2 27q15 74 77 92q-34 19 -34 64q0 8 2 22q17 104 162 104q74 0 112 -25t38 -71q0 -5 -2 -23zM193 532q-2 -14 -2 -16q0 -38 50 -38q27 0 40 9
t18 35q2 14 2 16q0 37 -51 37q-27 0 -39.5 -9.5t-17.5 -33.5zM229 694q-2 -14 -2 -15q0 -33 47 -33q24 0 35.5 8.5t16.5 31.5q1 5 1 14q0 32 -46 32q-24 0 -36 -8.5t-16 -29.5z" />
    <glyph glyph-name="uniF813" unicode="&#xf813;" 
d="M427 637l-14 -75q-15 -82 -65 -118.5t-137 -36.5q-30 0 -66.5 0.5t-54.5 0.5l34 89q24 -2 91 -2q38 0 58 13t28 48l2 8q-25 -20 -73 -20q-60 0 -91.5 28t-31.5 80q0 16 3 33q20 124 169 124q152 0 152 -125q0 -22 -4 -47zM322 666q2 14 2 20q0 39 -50 39q-25 0 -38.5 -10
t-18.5 -35q-2 -5 -2 -17q0 -39 49 -39t58 42z" />
    <glyph glyph-name="uniF814" unicode="&#xf814;" 
d="M211 60l7 34q6 32 6 48q0 26 -11 35t-35 9q-29 0 -44 -17.5t-26 -74.5l-6 -34q-7 -35 -7 -48q0 -25 11.5 -34.5t34.5 -9.5q29 0 44 17.5t26 74.5zM340 99l-9 -49q-17 -91 -64 -134.5t-131 -43.5q-79 0 -120 35t-41 101q0 20 5 47l9 49q17 93 63.5 135.5t130.5 42.5
q80 0 121 -36t41 -100q0 -20 -5 -47z" />
    <glyph glyph-name="uniF815" unicode="&#xf815;" 
d="M41 178l38 95h189l-57 -295h87l-35 -97h-282l35 97h73l39 200h-87z" />
    <glyph glyph-name="uniF816" unicode="&#xf816;" 
d="M113 -24l-1 -4h184l-30 -91h-287l14 71q12 64 36.5 97t75.5 51l60 22q27 10 32 26q2 6 2 14q0 12 -8.5 17.5t-31.5 5.5q-94 0 -129 -2l33 89q34 2 118 2q136 0 136 -94q0 -14 -3 -30q-8 -41 -30.5 -64t-67.5 -41l-57 -21q-23 -8 -32.5 -18t-13.5 -30z" />
    <glyph glyph-name="uniF817" unicode="&#xf817;" 
d="M141 37h-110l33 85h93q23 0 33 8q12 10 12 28q0 26 -39 26q-91 0 -128 -1l36 90q35 1 123 1q60 0 92.5 -23t32.5 -66q0 -30 -10 -49q-16 -39 -55 -55q46 -18 46 -75q0 -10 -2 -26q-18 -100 -166 -100q-15 0 -82.5 0.5t-77.5 0.5l34 89q14 0 58.5 -0.5t68.5 -0.5
q27 0 37 9q13 10 13 31q0 16 -10 22t-32 6z" />
    <glyph glyph-name="uniF818" unicode="&#xf818;" 
d="M330 40l-35 -88h-29l-14 -71h-103l14 71h-190l12 80l165 241h115l-162 -233h77l17 87l106 15l-20 -102h47z" />
    <glyph glyph-name="uniF819" unicode="&#xf819;" 
d="M137 -30q25 0 38 9q14 11 14 33q0 30 -45 30h-126l45 231h270l-29 -88h-156l-11 -56h41q130 0 130 -103q0 -16 -3 -35q-21 -111 -169 -111q-100 0 -152 1l29 90q36 -1 124 -1z" />
    <glyph glyph-name="uniF81A" unicode="&#xf81a;" 
d="M-4 44l13 75q27 155 202 155q30 0 66.5 -0.5t54.5 -0.5l-33 -89q-25 2 -91 2q-38 0 -58.5 -13t-28.5 -48l-1 -8q23 20 73 20q60 0 91.5 -28t31.5 -80q0 -17 -3 -33q-24 -124 -170 -124q-152 0 -152 125q0 15 5 47zM101 15q-2 -5 -2 -20q0 -39 49 -39t58 45q1 8 1 17
q0 39 -49 39q-48 0 -57 -42z" />
    <glyph glyph-name="uniF81B" unicode="&#xf81b;" 
d="M146 -119h-131l186 295h-180l37 97h293l-17 -83z" />
    <glyph glyph-name="uniF81C" unicode="&#xf81c;" 
d="M333 163q-13 -60 -66 -80q45 -22 45 -76q0 -12 -3 -27q-11 -55 -52.5 -81.5t-121.5 -26.5q-78 0 -118.5 26t-40.5 75q0 5 2 27q15 74 77 92q-34 19 -34 64q0 8 2 22q17 104 162 104q74 0 112 -25t38 -71q0 -5 -2 -23zM92 5q-2 -14 -2 -16q0 -38 50 -38q27 0 40 9t18 35
q2 14 2 16q0 37 -51 37q-27 0 -39.5 -9.5t-17.5 -33.5zM128 167q-2 -14 -2 -15q0 -33 47 -33q24 0 35.5 8.5t16.5 31.5q1 5 1 14q0 32 -46 32q-24 0 -36 -8.5t-16 -29.5z" />
    <glyph glyph-name="uniF81D" unicode="&#xf81d;" 
d="M326 110l-14 -75q-15 -82 -65 -118.5t-137 -36.5q-30 0 -66.5 0.5t-54.5 0.5l34 89q24 -2 91 -2q38 0 58 13t28 48l2 8q-25 -20 -73 -20q-60 0 -91.5 28t-31.5 80q0 17 3 33q20 124 169 124q152 0 152 -125q0 -22 -4 -47zM221 139q2 14 2 20q0 39 -50 39q-25 0 -38.5 -10
t-18.5 -35q-2 -5 -2 -17q0 -39 49 -39t58 42z" />
    <glyph glyph-name="NULL" horiz-adv-x="0" 
 />
    <glyph glyph-name="CR" horiz-adv-x="333" 
 />
    <glyph glyph-name="i.locl" horiz-adv-x="255" 
d="M-3 0l102 523h159l-102 -523h-159zM211 743q80 0 80 -59q0 -51 -25.5 -72t-77.5 -21q-80 0 -80 59q0 93 103 93z" />
    <glyph glyph-name="glyph469" horiz-adv-x="500" 
d="M111 772l128 133h163l-154 -133h-137zM322 772l128 133h163l-154 -133h-137z" />
    <glyph glyph-name="glyph470" horiz-adv-x="500" 
d="M38 -223l28 75q54 -2 76 -2q19 0 26 7q9 9 9 23q0 16 -26 16q-35 0 -60 -1l27 70q7 0 32.5 0.5t36.5 0.5q106 0 106 -76q0 -8 -2 -22q-9 -52 -46.5 -73t-109.5 -21q-69 0 -97 3z" />
    <glyph glyph-name="glyph471" horiz-adv-x="500" 
d="M255 763h-96l3 17q14 75 42.5 104t79.5 29q38 0 86 -25l20 -10q26 -14 46 -14q12 0 18.5 7t11.5 29l2 10h96l-3 -17q-14 -75 -42.5 -103.5t-79.5 -28.5q-41 0 -86 24l-20 10q-26 14 -47 14q-12 0 -18 -7t-11 -29z" />
    <glyph glyph-name="glyph472" horiz-adv-x="500" 
d="M214 22l88 -22q-52 -37 -71.5 -54.5t-19.5 -33.5q0 -18 33 -18h37l-45 -107h-43q-117 0 -117 71q0 43 29 78t109 86z" />
    <glyph glyph-name="glyph473" horiz-adv-x="500" 
d="M417 849q3 15 3 21q0 19 -11.5 26t-34.5 7q-31 0 -43 -10.5t-18 -37.5q-3 -15 -3 -21q0 -34 46 -34q31 0 43 11t18 38zM504 876q0 -8 -2 -24q-18 -131 -155 -131q-57 0 -89.5 28t-32.5 79q0 8 2 24q18 130 155 130q57 0 89.5 -27.5t32.5 -78.5z" />
    <glyph glyph-name="glyph474" horiz-adv-x="500" 
d="M314 904l47 -63l72 63h146l-146 -132h-164l-95 132h140z" />
    <glyph glyph-name="glyph475" horiz-adv-x="500" 
d="M193 783l21 108h316l-20 -108h-317z" />
    <glyph glyph-name="glyph476" horiz-adv-x="500" 
d="M175 822q0 47 22 67.5t69 20.5q71 0 71 -57q0 -46 -21.5 -67t-69.5 -21q-71 0 -71 57zM387 822q0 47 22 67.5t69 20.5q70 0 70 -57q0 -46 -21 -67t-69 -21q-71 0 -71 57z" />
    <glyph glyph-name="glyph477" horiz-adv-x="500" 
d="M373 917q80 0 80 -59q0 -51 -26 -72t-78 -21q-80 0 -80 59q0 93 104 93z" />
    <glyph glyph-name="glyph478" horiz-adv-x="500" 
d="M412 772l-47 62l-73 -62h-145l146 132h164l95 -132h-140z" />
    <glyph glyph-name="glyph479" horiz-adv-x="500" 
d="M204 772l137 133h178l-164 -133h-151z" />
    <glyph glyph-name="glyph480" horiz-adv-x="500" 
d="M405 905l85 -133h-143l-113 133h171z" />
    <glyph glyph-name="glyph481" horiz-adv-x="500" 
d="M369 852q30 0 44 14t19 48h117q-15 -77 -58.5 -113t-129.5 -36q-159 0 -159 117q0 14 2 32h116q-1 -8 -1 -18q0 -44 50 -44z" />
    <glyph glyph-name="glyph482" horiz-adv-x="500" 
d="M170 -261h-104l50 88q-19 14 -19 43q0 76 91 76q68 0 68 -55q0 -35 -33 -79z" />
    <glyph glyph-name="glyph483" horiz-adv-x="500" 
d="M280 743h132l-72 -195h-103z" />
    <glyph glyph-name="glyph485" horiz-adv-x="500" 
d="M332 797h103l-50 -87q20 -14 20 -43q0 -36 -22.5 -56.5t-68.5 -20.5q-69 0 -69 56q0 33 33 79z" />
    <glyph glyph-name="glyph486" horiz-adv-x="500" 
d="M353 772h-153l141 117h180z" />
    <glyph glyph-name="glyph487" horiz-adv-x="500" 
d="M293 772h-137l143 121h147l97 -121h-130l-50 56z" />
    <glyph glyph-name="glyph488" horiz-adv-x="500" 
d="M280 743h133l-64 -170h-107z" />
    <glyph glyph-name="parenleft.case" horiz-adv-x="379" 
d="M314 32l-46 -120h-22q-123 0 -174.5 50t-51.5 148q0 63 17 145l35 183q28 145 69.5 223.5t99.5 108t152 29.5h76l-47 -120h-21q-40 0 -63 -6.5t-45.5 -31t-38.5 -72.5t-32 -131l-36 -185q-16 -74 -16 -126q0 -57 24.5 -76t83.5 -19h36z" />
    <glyph glyph-name="parenright.case" horiz-adv-x="379" 
d="M98 679l46 120h22q123 0 174.5 -50t51.5 -148q0 -63 -17 -145l-35 -183q-28 -145 -69.5 -223.5t-99.5 -108t-152 -29.5h-76l47 120h21q40 0 63 6.5t45.5 31t38.5 72.5t32 131l36 185q16 74 16 126q0 57 -25 76t-83 19h-36z" />
    <glyph glyph-name="hyphen.case" horiz-adv-x="381" 
d="M347 290h-327l53 138h326z" />
    <glyph glyph-name="slash.case" horiz-adv-x="437" 
d="M348 712h165l-387 -712h-165z" />
    <glyph glyph-name="at.case" horiz-adv-x="774" 
d="M644 87l-47 -122q-61 -4 -157 -4q-205 0 -299 63.5t-94 214.5q0 69 16 146q20 106 53.5 176t87 109.5t118.5 55.5t158 16q298 0 298 -197q0 -31 -7 -65l-36 -186q-12 -57 -37 -77.5t-82 -26.5q-56 -6 -117 -6q-111 0 -160.5 32t-49.5 103q0 19 7 59q31 145 203 145
q91 0 126 -32l2 12q4 16 4 34q0 45 -36 63t-124 18q-59 0 -98 -9t-72.5 -33.5t-54 -69t-34.5 -115.5q-18 -92 -18 -139q0 -95 62.5 -131.5t222.5 -36.5q114 0 165 3zM514 293q35 0 73 5l10 50q3 12 3 23q0 26 -18.5 36t-59.5 10q-40 0 -58 -11t-24 -43q-3 -15 -3 -25
q0 -28 17.5 -36.5t59.5 -8.5z" />
    <glyph glyph-name="bracketleft.case" horiz-adv-x="371" 
d="M310 34l-47 -122h-273l172 887h296l-46 -122h-125l-125 -643h148z" />
    <glyph glyph-name="backslash.case" horiz-adv-x="437" 
d="M99 712h150l126 -712h-149z" />
    <glyph glyph-name="bracketright.case" horiz-adv-x="371" 
d="M96 677l47 122h273l-172 -887h-296l46 122h125l125 643h-148z" />
    <glyph glyph-name="braceleft.case" horiz-adv-x="394" 
d="M313 612l-29 -147q-9 -46 -28.5 -71.5t-60.5 -37.5q49 -18 49 -82q0 -19 -4 -36l-26 -135q-3 -16 -3 -28q0 -24 14 -34t47 -10h72l-46 -119h-61q-89 0 -133 35t-44 100q0 18 5 45l27 141q3 12 3 22q0 20 -11 29t-38 9h-26l24 125h23q35 0 51 15.5t23 53.5l28 140
q18 93 72 132.5t157 39.5h87l-46 -119h-40q-41 0 -59.5 -14t-26.5 -54z" />
    <glyph glyph-name="braceright.case" horiz-adv-x="394" 
d="M117 99l29 147q9 46 28.5 71.5t60.5 37.5q-49 18 -49 82q0 19 4 36l26 135q3 16 3 28q0 24 -14 34t-47 10h-72l46 119h61q89 0 133 -35t44 -100q0 -18 -5 -45l-27 -141q-3 -12 -3 -22q0 -20 11 -29t38 -9h26l-24 -125h-23q-35 0 -51 -15.5t-23 -53.5l-28 -140
q-18 -93 -72 -132.5t-157 -39.5h-87l46 119h40q41 0 59.5 14t26.5 54z" />
    <glyph glyph-name="guilsinglleft.case" horiz-adv-x="333" 
d="M326 437l-170 -88l135 -91l-28 -145l-231 160l30 159l294 159z" />
    <glyph glyph-name="bullet.case" horiz-adv-x="429" 
d="M382 357q0 -77 -35.5 -114t-115.5 -37t-115.5 37t-35.5 114t35.5 114t115.5 37t115.5 -37t35.5 -114z" />
    <glyph glyph-name="endash.case" horiz-adv-x="500" 
d="M2 288l27 138h500l-27 -138h-500z" />
    <glyph glyph-name="emdash.case" horiz-adv-x="1000" 
d="M2 288l27 138h1000l-27 -138h-1000z" />
    <glyph glyph-name="guilsinglright.case" horiz-adv-x="333" 
d="M43 266l169 88l-135 92l28 145l232 -160l-31 -159l-293 -159z" />
    <glyph glyph-name="exclamdown.case" horiz-adv-x="270" 
d="M117 497h133l-19 -153q-7 -57 -22 -138l-40 -206h-165l41 206q9 49 33 138zM298 656q0 -54 -23.5 -77t-76.5 -23q-79 0 -79 65q0 54 23.5 77.5t76.5 23.5q79 0 79 -66z" />
    <glyph glyph-name="guillemotleft.case" horiz-adv-x="568" 
d="M32 274l30 159l259 159l-30 -153l-149 -89l114 -91l-28 -145zM301 274l31 159l258 159l-30 -153l-149 -89l114 -91l-28 -145z" />
    <glyph glyph-name="guillemotright.case" horiz-adv-x="568" 
d="M571 433l-31 -159l-258 -160l30 153l149 89l-114 91l28 145zM302 433l-31 -159l-258 -160l30 153l149 89l-115 91l28 145z" />
    </font>
</defs>
</svg>
