<?xml version="1.0" standalone="no"?>
<!DOCTYPE svg PUBLIC "-//W3C//DTD SVG 1.1//EN" "http://www.w3.org/Graphics/SVG/1.1/DTD/svg11.dtd" >
<svg>
<metadata>
Created by FontForge 20120731 at Tue Dec 15 21:08:28 2015
 By ,,,
Copyright 2014 Dalton Maag Ltd. Modification of this file requires prior written permission from Dalton Maag Ltd.
</metadata>
<defs>
<font id="Prometo" horiz-adv-x="378" >
  <font-face 
    font-family="Prometo"
    font-weight="400"
    font-stretch="normal"
    units-per-em="1000"
    panose-1="2 11 6 4 3 2 3 6 2 3"
    ascent="800"
    descent="-200"
    x-height="517"
    cap-height="712"
    bbox="-195 -235 1310 966"
    underline-thickness="93"
    underline-position="-54"
    unicode-range="U+0008-FB04"
  />
<missing-glyph horiz-adv-x="500" 
d="M450 0h-400v750h400v-750zM100 50h300v650h-300v-650z" />
    <glyph glyph-name="uniF603" unicode="ft" horiz-adv-x="689" 
d="M301 658q-87 0 -112.5 -26t-25.5 -115h161l-18 -87h-143v-430h-105v512q0 129 50 181t179 52q52 0 86 -2l-18 -87q-38 2 -54 2zM374 187v423l105 19v-112h190l-18 -87h-172v-240q0 -67 17 -86t76 -19h91l-18 -85h-72q-119 0 -159 39t-40 148z" />
    <glyph glyph-name="uniFB00" unicode="ff" horiz-adv-x="679" 
d="M629 658q-87 0 -112.5 -26t-25.5 -115h175l-18 -87h-157v-430h-105v512q0 129 50 181t179 52q30 0 94 -2l-18 -87q-40 2 -62 2zM301 658q-87 0 -112.5 -26t-25.5 -115h173l-18 -87h-155v-430h-105v512q0 129 50 181t179 52q44 0 86 -2l-18 -87q-38 2 -54 2z" />
    <glyph glyph-name="uniFB01" unicode="fi" horiz-adv-x="535" 
d="M299 658q-85 0 -110.5 -26t-25.5 -115h159l-18 -87h-141v-430h-105v512q0 127 54 180t187 53q100 0 153 -2l-18 -87q-19 0 -67 1t-68 1zM372 517h105v-517h-105v517z" />
    <glyph glyph-name="uniFB02" unicode="fl" horiz-adv-x="573" 
d="M287 745q35 0 73 -2l-18 -87q-30 2 -41 2q-87 0 -112.5 -26t-25.5 -115h161l-18 -87h-143v-430h-105v512q0 129 50 181t179 52zM410 0v743h105v-743h-105z" />
    <glyph glyph-name="uniFB03" unicode="ffi" horiz-adv-x="865" 
d="M627 658q-85 0 -110.5 -26t-25.5 -115h161l-18 -87h-143v-430h-105v512q0 127 54 180t187 53q100 0 153 -2l-18 -87q-19 0 -67 1t-68 1zM702 517h105v-517h-105v517zM301 658q-87 0 -112.5 -26t-25.5 -115h173l-18 -87h-155v-430h-105v512q0 129 50 181t179 52
q44 0 86 -2l-18 -87q-38 2 -54 2z" />
    <glyph glyph-name="uniFB04" unicode="ffl" horiz-adv-x="903" 
d="M301 658q-87 0 -112.5 -26t-25.5 -115h173l-18 -87h-155v-430h-105v512q0 129 50 181t179 52q38 0 86 -2l-18 -87q-38 2 -54 2zM615 745q35 0 73 -2l-18 -87q-30 2 -41 2q-87 0 -112.5 -26t-25.5 -115h161l-18 -87h-143v-430h-105v512q0 129 50 181t179 52zM740 0v743
h105v-743h-105z" />
    <glyph glyph-name="f_f_t.liga" unicode="fft" horiz-adv-x="1017" 
d="M301 658q-87 0 -112.5 -26t-25.5 -115h173l-18 -87h-155v-430h-105v512q0 129 50 181t179 52q48 0 86 -2l-18 -87q-30 2 -54 2zM629 658q-87 0 -112.5 -26t-25.5 -115h161l-18 -87h-143v-430h-105v512q0 129 50 181t179 52q44 0 86 -2l-18 -87q-38 2 -54 2zM702 187v423
l105 19v-112h190l-18 -87h-172v-240q0 -67 17 -86t76 -19h91l-18 -85h-72q-119 0 -159 39t-40 148z" />
    <glyph glyph-name=".notdef" horiz-adv-x="500" 
d="M450 0h-400v750h400v-750zM100 50h300v650h-300v-650z" />
    <glyph glyph-name=".null" horiz-adv-x="0" 
 />
    <glyph glyph-name="nonmarkingreturn" horiz-adv-x="333" 
 />
    <glyph glyph-name="uni0008" horiz-adv-x="0" 
 />
    <glyph glyph-name="uni0008" horiz-adv-x="0" 
 />
    <glyph glyph-name="uni0008" horiz-adv-x="0" 
 />
    <glyph glyph-name="uni0009" unicode="&#x9;" horiz-adv-x="250" 
 />
    <glyph glyph-name="uni0009" unicode="&#xd;" horiz-adv-x="250" 
 />
    <glyph glyph-name="space" unicode=" " horiz-adv-x="250" 
 />
    <glyph glyph-name="exclam" unicode="!" horiz-adv-x="236" 
d="M78 200l-12 203q-2 19 -2 89v220h108v-220q0 -70 -2 -89l-11 -203h-81zM186 61q0 -35 -16 -51.5t-52 -16.5t-52 16.5t-16 51.5t16 51.5t52 16.5t52 -16.5t16 -51.5z" />
    <glyph glyph-name="quotedbl" unicode="&#x22;" horiz-adv-x="356" 
d="M126 487h-84l-9 121q-3 57 -3 65v70h108v-70q0 -5 -3 -65zM314 487h-84l-9 121q-3 57 -3 65v70h108v-70q0 -5 -3 -65z" />
    <glyph glyph-name="numbersign" unicode="#" horiz-adv-x="670" 
d="M364 0l25 170h-162l-25 -170h-95l25 170h-97l18 83h91l25 174h-96l18 83h91l25 170h95l-25 -170h162l25 170h95l-25 -170h101l-18 -83h-96l-25 -174h101l-18 -83h-95l-25 -170h-95zM264 427l-25 -174h162l25 174h-162z" />
    <glyph glyph-name="dollar" unicode="$" horiz-adv-x="595" 
d="M327 -96h-80v96q-106 0 -196 2l17 87q37 -2 179 -2v219l-31 6q-165 31 -165 169v24q0 74 48.5 120t147.5 55v80h80v-78q131 0 177 -2l-17 -87q-110 2 -160 2v-207l29 -5q92 -18 132 -60.5t40 -119.5v-19q0 -164 -201 -182v-98zM424 188q0 52 -19.5 73.5t-77.5 31.5v-204
q54 5 75.5 28t21.5 71zM152 500q0 -78 95 -96v189q-56 -6 -75.5 -28t-19.5 -65z" />
    <glyph glyph-name="percent" unicode="%" horiz-adv-x="930" 
d="M211 0l420 680h94l-420 -680h-94zM730 65q54 0 68 24t14 100v14q0 76 -14 100t-68 24t-68 -24t-14 -100v-14q0 -76 14 -100t68 -24zM730 -9q-103 0 -137 45.5t-34 141.5v36q0 96 34 141.5t137 45.5t137 -45.5t34 -141.5v-36q0 -96 -34 -141.5t-137 -45.5zM200 353
q54 0 68 24t14 100v14q0 76 -14 100t-68 24t-68 -24t-14 -100v-14q0 -76 14 -100t68 -24zM200 279q-103 0 -137 45.5t-34 141.5v36q0 96 34 141.5t137 45.5t137 -45.5t34 -141.5v-36q0 -96 -34 -141.5t-137 -45.5z" />
    <glyph glyph-name="ampersand" unicode="&#x26;" horiz-adv-x="632" 
d="M146 218v-23q0 -109 103 -109h190v248h-180q-113 0 -113 -116zM477 0h-207q-230 0 -230 189v28q0 126 103 159q-87 41 -87 153v16q0 78 51 124t148 46q69 0 213 -2l-17 -88q-86 2 -195 2q-53 0 -75 -24t-22 -74v-20q0 -89 104 -89h354l-17 -86h-59v-248q0 -86 -64 -86z
" />
    <glyph glyph-name="quotesingle" unicode="'" horiz-adv-x="168" 
d="M126 487h-84l-9 121q-3 57 -3 65v70h108v-70q0 -5 -3 -65z" />
    <glyph glyph-name="parenleft" unicode="(" horiz-adv-x="356" 
d="M338 -87l-18 -88h-18q-57 0 -94 8t-66.5 29t-45 61t-23.5 99.5t-8 148.5v195q0 89 8 148.5t23.5 99.5t45 61t66.5 29t94 8h36l-18 -88h-15q-65 0 -92 -16.5t-38.5 -68.5t-11.5 -173v-195q0 -121 11.5 -173t38.5 -68.5t92 -16.5h33z" />
    <glyph glyph-name="parenright" unicode=")" horiz-adv-x="356" 
d="M18 624l18 88h18q57 0 94 -8t66.5 -29t45 -61t23.5 -99.5t8 -148.5v-195q0 -89 -8 -148.5t-23.5 -99.5t-45 -61t-66.5 -29t-94 -8h-36l18 88h15q65 0 92 16.5t38.5 68.5t11.5 173v195q0 121 -11.5 173t-38.5 68.5t-92 16.5h-33z" />
    <glyph glyph-name="asterisk" unicode="*" horiz-adv-x="430" 
d="M291 352l-75 112l-78 -112l-67 49l82 106l-128 38l26 81l125 -48l-5 134h89l-5 -134l124 48l26 -81l-128 -37l82 -107z" />
    <glyph glyph-name="plus" unicode="+" horiz-adv-x="595" 
d="M346 563v-179h167v-87h-167v-179h-97v179h-168v87h168v179h97z" />
    <glyph glyph-name="comma" unicode="," horiz-adv-x="208" 
d="M138 -46l-59 -118h-68l59 168q-36 17 -36 61q0 67 70 67q33 0 51.5 -18t18.5 -50q0 -42 -36 -110z" />
    <glyph glyph-name="hyphen" unicode="-" horiz-adv-x="338" 
d="M299 240h-279l19 94h279z" />
    <glyph glyph-name="period" unicode="." horiz-adv-x="208" 
d="M173 62q0 -69 -69 -69t-69 69t69 69t69 -69z" />
    <glyph glyph-name="slash" unicode="/" horiz-adv-x="401" 
d="M275 712h106l-255 -712h-106z" />
    <glyph glyph-name="zero" unicode="0" horiz-adv-x="605" 
d="M302 72q89 0 117 43.5t28 185.5v77q0 99 -12.5 146.5t-42 65.5t-90.5 18t-90.5 -18t-41.5 -65.5t-12 -146.5v-77q0 -142 28 -185.5t116 -43.5zM302 696q79 0 130.5 -20t78 -62.5t36.5 -95t10 -130.5v-96q0 -78 -10 -130t-36.5 -95t-78 -63t-130.5 -20t-130 20t-77.5 63
t-36.5 95t-10 130v96q0 78 9.5 130.5t36.5 95t78 62.5t130 20z" />
    <glyph glyph-name="one" unicode="1" horiz-adv-x="467" 
d="M422 84l-17 -84h-351l17 84h114v512h-135l17 84h225v-596h130z" />
    <glyph glyph-name="two" unicode="2" horiz-adv-x="530" 
d="M355 312l-136 -57q-47 -19 -61 -44t-14 -89v-32h335l-16 -90h-426v103q0 102 33.5 156t117.5 88l117 49q40 17 54 36.5t14 64.5q0 54 -21.5 74.5t-79.5 20.5q-80 0 -218 -2l14 90q146 2 200 2q113 0 162.5 -44t49.5 -130v-13q0 -69 -30 -113t-95 -70z" />
    <glyph glyph-name="three" unicode="3" horiz-adv-x="532" 
d="M39 590l17 90q130 2 212 2q97 0 148.5 -45.5t51.5 -119.5v-20q0 -61 -22.5 -93t-69.5 -49q108 -28 108 -148v-29q0 -86 -58 -133t-173 -47q-99 0 -227 2l17 90q22 0 104.5 -1t124.5 -1q102 0 102 93v24q0 54 -26 76.5t-86 22.5h-187l17 90h173q96 0 96 82v24
q0 49 -22.5 70.5t-73.5 21.5q-178 0 -226 -2z" />
    <glyph glyph-name="four" unicode="4" horiz-adv-x="572" 
d="M551 222l-18 -86h-65v-136h-103v136h-331v79l273 465h106l-269 -458h221v220l103 19v-239h83z" />
    <glyph glyph-name="five" unicode="5" horiz-adv-x="532" 
d="M483 223v-24q0 -108 -55 -154.5t-191 -46.5q-108 0 -194 2l17 91q70 -3 177 -3q81 0 109 23.5t28 92.5v19q0 71 -27 92t-110 21h-178v344h397l-17 -90h-281v-168h95q129 0 179.5 -43t50.5 -156z" />
    <glyph glyph-name="six" unicode="6" horiz-adv-x="550" 
d="M149 435v-31q49 43 145 43q115 0 166 -50.5t51 -170.5v-21q0 -110 -56 -165.5t-177 -55.5q-129 0 -180.5 58.5t-51.5 202.5v156q0 50 5 88.5t20 76.5t40 62t67.5 39t100.5 15q54 0 188 -2l-17 -90q-53 2 -176 2q-40 0 -66 -12.5t-38.5 -36t-16.5 -48.5t-4 -60zM278 67
q73 0 100.5 30t27.5 114v9q0 86 -25 115t-92 29q-80 0 -110 -28.5t-30 -116.5v-9q0 -82 29.5 -112.5t99.5 -30.5z" />
    <glyph glyph-name="seven" unicode="7" horiz-adv-x="528" 
d="M247 0h-114l230 590h-346l18 90h439v-84z" />
    <glyph glyph-name="eight" unicode="8" horiz-adv-x="571" 
d="M288 696q121 0 174 -43t53 -136v-15q0 -103 -89 -145q103 -36 103 -154v-28q0 -101 -58.5 -146t-182.5 -45t-182.5 45t-58.5 146v28q0 118 103 154q-89 42 -89 145v15q0 94 53.5 136.5t173.5 42.5zM288 316q-78 0 -106.5 -28t-28.5 -94v-6q0 -67 27.5 -94t107.5 -27
t107.5 27t27.5 94v6q0 66 -28.5 94t-106.5 28zM289 618q-70 0 -98.5 -22.5t-28.5 -78.5v-15q0 -62 26.5 -84t99.5 -22t99.5 22t26.5 84v15q0 56 -27 78.5t-98 22.5z" />
    <glyph glyph-name="nine" unicode="9" horiz-adv-x="550" 
d="M402 245v30q-46 -42 -145 -42q-115 0 -166 50.5t-51 170.5v21q0 113 55.5 167t177.5 54q128 0 180 -58.5t52 -202.5v-156q0 -64 -9 -110t-33 -87.5t-71.5 -62.5t-119.5 -21q-100 0 -188 2l17 90q54 -2 176 -2q40 0 66 12t38.5 36t16.5 48.5t4 60.5zM273 613
q-73 0 -100.5 -30t-27.5 -114v-9q0 -86 25 -115t92 -29q80 0 110 28t30 117v9q0 82 -29.5 112.5t-99.5 30.5z" />
    <glyph glyph-name="colon" unicode=":" horiz-adv-x="208" 
d="M173 62q0 -69 -69 -69t-69 69t69 69t69 -69zM173 455q0 -69 -69 -69t-69 69t69 69t69 -69z" />
    <glyph glyph-name="semicolon" unicode=";" horiz-adv-x="208" 
d="M138 -46l-59 -118h-68l59 168q-36 17 -36 61q0 67 70 67q33 0 51.5 -18t18.5 -50q0 -42 -36 -110zM173 455q0 -69 -69 -69t-69 69t69 69t69 -69z" />
    <glyph glyph-name="less" unicode="&#x3c;" horiz-adv-x="595" 
d="M81 297v87l432 177v-91l-323 -129l323 -125v-96z" />
    <glyph glyph-name="equal" unicode="=" horiz-adv-x="595" 
d="M81 394v87h432v-87h-432zM81 200v87h432v-87h-432z" />
    <glyph glyph-name="greater" unicode="&#x3e;" horiz-adv-x="595" 
d="M513 384v-87l-432 -177v96l323 125l-323 129v91z" />
    <glyph glyph-name="question" unicode="?" horiz-adv-x="459" 
d="M207 393l48 23q38 18 51 39t13 64q0 59 -21 83t-81 24q-37 0 -207 -2l14 87q160 2 189 2q110 0 160.5 -42t50.5 -130v-26q0 -68 -26.5 -104.5t-86.5 -64.5l-50 -23q-35 -16 -44.5 -34t-9.5 -65v-27h-103v27q0 71 24 107t79 62zM223 61q0 -35 -16 -51.5t-52 -16.5
t-52 16.5t-16 51.5t16 51.5t52 16.5t52 -16.5t16 -51.5z" />
    <glyph glyph-name="at" unicode="@" horiz-adv-x="722" 
d="M672 338v-238q0 -46 -20.5 -64.5t-77.5 -18.5h-137q-92 0 -139.5 35.5t-47.5 116.5v25q0 81 47 118t140 37q86 0 135 -29v18q0 81 -41 110t-143 29q-142 0 -191.5 -47t-49.5 -169v-150q0 -73 11.5 -115.5t46 -70.5t91.5 -38t154 -10q117 0 157 3l-17 -86q-57 -4 -143 -4
q-158 0 -242.5 30t-119.5 97.5t-35 193.5v150q0 160 78 231t259 71q148 0 216.5 -53t68.5 -172zM436 103h136v92q0 42 -23.5 56.5t-91.5 14.5t-89 -14.5t-21 -56.5v-19q0 -40 19.5 -56.5t69.5 -16.5z" />
    <glyph glyph-name="A" unicode="A" horiz-adv-x="690" 
d="M563 0l-75 204h-293l-74 -204h-106l272 712h116l272 -712h-112zM341 606l-114 -312h228z" />
    <glyph glyph-name="B" unicode="B" horiz-adv-x="628" 
d="M72 0v712h290q110 0 160.5 -43t50.5 -134v-8q0 -118 -98 -152q55 -13 86.5 -55.5t31.5 -110.5v-16q0 -193 -228 -193h-293zM177 325v-233h188q65 0 91.5 23.5t26.5 83.5v13q0 63 -28.5 88t-97.5 25h-180zM466 519v14q0 47 -24.5 67t-79.5 20h-185v-203h173q62 0 89 24
t27 78z" />
    <glyph glyph-name="C" unicode="C" horiz-adv-x="565" 
d="M160 393v-73q0 -141 36.5 -184.5t151.5 -43.5q131 0 187 2l-19 -94q-48 -2 -168 -2q-170 0 -234 71.5t-64 250.5v73q0 182 65.5 251.5t231.5 69.5q129 0 182 -2l-19 -94q-20 0 -80 1t-85 1q-62 0 -95 -7.5t-55 -33.5t-28.5 -68t-6.5 -118z" />
    <glyph glyph-name="D" unicode="D" horiz-adv-x="687" 
d="M72 0v712h258q171 0 239 -76t68 -239v-81q0 -164 -67.5 -240t-239.5 -76h-258zM177 618v-524h153q113 0 155 45.5t42 183.5v67q0 95 -20 144.5t-60 66.5t-117 17h-153z" />
    <glyph glyph-name="E" unicode="E" horiz-adv-x="603" 
d="M72 712h488l-19 -94h-364v-205h358l-19 -94h-339v-225h383l-19 -94h-469v712z" />
    <glyph glyph-name="F" unicode="F" horiz-adv-x="570" 
d="M72 712h473l-19 -94h-349v-211h334l-19 -94h-315v-313h-105v712z" />
    <glyph glyph-name="G" unicode="G" horiz-adv-x="645" 
d="M372 373h218v-279q0 -49 -16.5 -71.5t-52.5 -22.5h-173q-88 0 -146.5 18.5t-91.5 59t-46.5 94.5t-13.5 134v101q0 78 13 131.5t46 95t94 61t154 19.5q168 0 213 -2l-17 -94q-75 2 -203 2q-119 0 -154.5 -39.5t-35.5 -177.5v-93q0 -73 8 -114.5t31 -64.5t55 -30t91 -7h140
v189h-132z" />
    <glyph glyph-name="H" unicode="H" horiz-adv-x="709" 
d="M532 712h105v-712h-105v317h-355v-317h-105v712h105v-301h355v301z" />
    <glyph glyph-name="I" unicode="I" horiz-adv-x="249" 
d="M72 712h105v-712h-105v712z" />
    <glyph glyph-name="J" unicode="J" horiz-adv-x="466" 
d="M20 0l19 93q39 -1 126 -1q41 0 62.5 5t39 24t23.5 56.5t6 102.5v432h105v-453q0 -147 -50 -204t-186 -57q-99 0 -145 2z" />
    <glyph glyph-name="K" unicode="K" horiz-adv-x="639" 
d="M177 712v-312l302 312h125l-323 -337l358 -375h-145l-317 335v-335h-105v712h105z" />
    <glyph glyph-name="L" unicode="L" horiz-adv-x="558" 
d="M72 712h105v-618h361l-19 -94h-447v712z" />
    <glyph glyph-name="M" unicode="M" horiz-adv-x="823" 
d="M459 203h-93l-189 340v-543h-105v712h117l228 -408l215 408h119v-712h-105v552z" />
    <glyph glyph-name="N" unicode="N" horiz-adv-x="709" 
d="M72 712h93l367 -537v537h105v-712h-95l-365 534v-534h-105v712z" />
    <glyph glyph-name="O" unicode="O" horiz-adv-x="710" 
d="M355 73q63 0 98 8t58.5 35.5t31 72.5t7.5 126v83q0 80 -7.5 125t-31 72.5t-58.5 36t-98 8.5t-98 -8t-58.5 -35.5t-31 -72.5t-7.5 -126v-83q0 -80 7.5 -125t31 -72.5t58.5 -36t98 -8.5zM355 -18q-93 0 -154 20t-93.5 64.5t-45 101.5t-12.5 143v91q0 66 7 113.5t26.5 90.5
t53 69t88 41t130.5 15q93 0 154 -20t93.5 -64.5t45 -101.5t12.5 -143v-91q0 -66 -7 -113.5t-26.5 -90.5t-53 -69t-88 -41t-130.5 -15z" />
    <glyph glyph-name="P" unicode="P" horiz-adv-x="625" 
d="M340 278h-163v-278h-105v712h268q129 0 187 -48t58 -147v-44q0 -102 -59.5 -148.5t-185.5 -46.5zM480 489v12q0 71 -30 94t-110 23h-163v-246h163q80 0 110 23t30 94z" />
    <glyph glyph-name="Q" unicode="Q" horiz-adv-x="710" 
d="M640 -131h-149l-136 113q-93 0 -154 20t-93.5 64.5t-45 101.5t-12.5 143v91q0 66 7 113.5t26.5 90.5t53 69t88 41t130.5 15q93 0 154 -20t93.5 -64.5t45 -101.5t12.5 -143v-91q0 -136 -37 -212.5t-139 -102.5zM355 73q63 0 98 8t58.5 35.5t31 72.5t7.5 126v83
q0 80 -7.5 125t-31 72.5t-58.5 36t-98 8.5t-98 -8t-58.5 -35.5t-31 -72.5t-7.5 -126v-83q0 -80 7.5 -125t31 -72.5t58.5 -36t98 -8.5z" />
    <glyph glyph-name="R" unicode="R" horiz-adv-x="638" 
d="M177 278v-278h-105v712h268q127 0 186 -47.5t59 -153.5v-32q0 -81 -34.5 -127.5t-106.5 -63.5l174 -288h-122l-160 278h-159zM480 493v5q0 74 -28.5 97t-111.5 23h-163v-246h163q82 0 111 23.5t29 97.5z" />
    <glyph glyph-name="S" unicode="S" horiz-adv-x="576" 
d="M238 420l139 -23q93 -16 130 -59.5t37 -130.5v-17q0 -100 -59.5 -146t-206.5 -46q-160 0 -243 2l18 94q71 -2 225 -2q98 0 129.5 20t31.5 81q0 54 -18.5 75.5t-82.5 33.5l-135 22q-96 16 -131 59t-35 125v19q0 91 60.5 139t199.5 48q151 0 225 -2l-18 -94q-63 2 -216 2
q-87 0 -116.5 -20t-29.5 -77q0 -50 18.5 -72t77.5 -31z" />
    <glyph glyph-name="T" unicode="T" horiz-adv-x="651" 
d="M39 712h592l-19 -94h-237v-618h-105v618h-250z" />
    <glyph glyph-name="U" unicode="U" horiz-adv-x="680" 
d="M340 -18q-68 0 -116.5 13.5t-79 37t-48.5 63t-24.5 84.5t-6.5 107v425h105v-427q0 -127 33.5 -169.5t136.5 -42.5t136.5 42.5t33.5 169.5v427h105v-425q0 -62 -6.5 -107t-24.5 -84.5t-48.5 -63t-79 -37t-116.5 -13.5z" />
    <glyph glyph-name="V" unicode="V" horiz-adv-x="653" 
d="M15 712h117l198 -578l198 578h110l-252 -712h-116z" />
    <glyph glyph-name="W" unicode="W" horiz-adv-x="895" 
d="M652 146l115 566h103l-158 -712h-117l-147 567l-151 -567h-117l-155 712h109l112 -566l154 566h100z" />
    <glyph glyph-name="X" unicode="X" horiz-adv-x="648" 
d="M617 712l-236 -337l263 -375h-127l-196 292l-195 -292h-122l260 375l-232 337h121l174 -257l169 257h121z" />
    <glyph glyph-name="Y" unicode="Y" horiz-adv-x="652" 
d="M10 712h119l201 -322l198 322h114l-262 -413v-299h-105v299z" />
    <glyph glyph-name="Z" unicode="Z" horiz-adv-x="615" 
d="M38 0v89l386 529h-375l19 94h479v-89l-385 -529h411l-19 -94h-516z" />
    <glyph glyph-name="bracketleft" unicode="[" horiz-adv-x="352" 
d="M72 712h259l-19 -90h-142v-707h161l-19 -90h-240v887z" />
    <glyph glyph-name="backslash" unicode="\" horiz-adv-x="401" 
d="M20 712h110l251 -712h-110z" />
    <glyph glyph-name="bracketright" unicode="]" horiz-adv-x="352" 
d="M280 -175h-259l19 90h142v707h-161l19 90h240v-887z" />
    <glyph glyph-name="asciicircum" unicode="^" horiz-adv-x="595" 
d="M85 402l160 310h105l161 -310h-105l-109 211l-107 -211h-105z" />
    <glyph glyph-name="underscore" unicode="_" horiz-adv-x="500" 
d="M0 -185v93h500v-93h-500z" />
    <glyph glyph-name="grave" unicode="`" horiz-adv-x="500" 
d="M257 725l103 -126h-103l-117 126h117z" />
    <glyph glyph-name="a" unicode="a" horiz-adv-x="546" 
d="M138 176v-21q0 -37 21.5 -53.5t76.5 -16.5h152v92q0 41 -22 56.5t-94 15.5h-23q-65 0 -88 -15.5t-23 -57.5zM488 351v-265q0 -48 -22 -67t-80 -19h-150q-103 0 -149.5 37.5t-46.5 116.5v22q0 83 49 119.5t155 36.5q102 0 144 -30v30q0 55 -23.5 77.5t-105.5 22.5
q-81 0 -171 -2l19 87q74 2 152 2q119 0 174 -41.5t55 -126.5z" />
    <glyph glyph-name="b" unicode="b" horiz-adv-x="584" 
d="M300 447q-85 0 -111 -27.5t-26 -113.5v-75q0 -104 24.5 -132.5t109.5 -28.5q43 0 65.5 5t40 22t23 48t5.5 86v50q0 55 -5.5 86.5t-21.5 50t-39 24t-65 5.5zM310 533q127 0 177.5 -59.5t50.5 -186.5v-56q0 -131 -52 -189t-193 -58q-126 0 -180.5 54t-54.5 193v512h105
v-251q47 41 147 41z" />
    <glyph glyph-name="c" unicode="c" horiz-adv-x="471" 
d="M287 432q-84 0 -109 -25.5t-25 -121.5v-53q0 -95 26 -121t108 -26q78 0 142 2l-18 -87q-70 -2 -124 -2q-134 0 -187.5 52t-53.5 182v53q0 130 53.5 182t187.5 52q92 0 140 -3l-18 -87q-55 3 -122 3z" />
    <glyph glyph-name="d" unicode="d" horiz-adv-x="580" 
d="M285 86h132v233q0 78 -26.5 103t-107.5 25q-83 0 -106.5 -29.5t-23.5 -129.5v-38q0 -105 23 -134.5t109 -29.5zM420 0h-141q-131 0 -182 56t-51 194v38q0 128 49 186.5t180 58.5q101 0 142 -38v248h105v-657q0 -47 -21.5 -66.5t-80.5 -19.5z" />
    <glyph glyph-name="e" unicode="e" horiz-adv-x="543" 
d="M427 220h-276q0 -84 22.5 -109.5t101.5 -25.5q126 0 189 2l-18 -87q-55 -2 -171 -2q-69 0 -115 16t-70.5 48.5t-34 72.5t-9.5 97v56q0 125 48.5 185t185.5 60q123 0 171 -51.5t48 -138.5v-15q0 -68 -15.5 -88t-56.5 -20zM275 450q-79 0 -101.5 -28t-22.5 -121h249v34
q0 67 -25.5 91t-99.5 24z" />
    <glyph glyph-name="f" unicode="f" horiz-adv-x="372" 
d="M301 658q-87 0 -112.5 -26t-25.5 -115h196l-18 -87h-178v-430h-105v512q0 129 50 181t179 52q49 0 115 -2l-18 -87q-50 2 -83 2z" />
    <glyph glyph-name="g" unicode="g" horiz-adv-x="579" 
d="M285 104q81 0 106.5 26t25.5 103v48q0 57 -3 84.5t-17 48.5t-39.5 27t-72.5 6t-72.5 -6t-39.5 -27t-17 -48.5t-3 -84.5v-11q0 -106 21.5 -136t110.5 -30zM417 50v9q-46 -41 -141 -41q-132 0 -181 60t-49 186v23q0 62 9.5 103.5t34.5 75.5t73 50.5t121 16.5t121 -16
t72.5 -49t34 -71.5t9.5 -94.5v-252q0 -122 -56 -174.5t-183 -52.5q-129 0 -183 2l20 87q45 -2 162 -2q77 0 106.5 29t29.5 111z" />
    <glyph glyph-name="h" unicode="h" horiz-adv-x="574" 
d="M163 0h-105v743h105v-256q40 46 149 46q204 0 204 -168v-365h-105v344q0 57 -20.5 79.5t-95.5 22.5q-79 0 -105.5 -28.5t-26.5 -104.5v-313z" />
    <glyph glyph-name="i" unicode="i" horiz-adv-x="221" 
d="M58 0v517h105v-517h-105zM176 670q0 -35 -15.5 -50.5t-50.5 -15.5t-50.5 15.5t-15.5 50.5t15.5 50.5t50.5 15.5t50.5 -15.5t15.5 -50.5z" />
    <glyph glyph-name="j" unicode="j" horiz-adv-x="221" 
d="M176 670q0 -35 -15.5 -50.5t-50.5 -15.5t-50.5 15.5t-15.5 50.5t15.5 50.5t50.5 15.5t50.5 -15.5t15.5 -50.5zM-106 -175l18 83q19 -1 63 -1q50 0 66.5 17.5t16.5 80.5v512h105v-512q0 -104 -41 -143t-144 -39q-62 0 -84 2z" />
    <glyph glyph-name="k" unicode="k" horiz-adv-x="538" 
d="M163 743v-429l216 203h133l-251 -229l277 -288h-138l-237 249v-249h-105v743h105z" />
    <glyph glyph-name="l" unicode="l" horiz-adv-x="221" 
d="M58 0v743h105v-743h-105z" />
    <glyph glyph-name="m" unicode="m" horiz-adv-x="845" 
d="M163 0h-105v365q0 90 51 129t157 39q112 0 156 -58q44 58 156 58q106 0 157.5 -39t51.5 -129v-365h-105v344q0 57 -18 79.5t-86 22.5q-63 0 -83 -20.5t-20 -67.5v-358h-105v344q0 57 -18 79.5t-86 22.5q-67 0 -85 -22.5t-18 -79.5v-344z" />
    <glyph glyph-name="n" unicode="n" horiz-adv-x="574" 
d="M163 0h-105v365q0 89 55 128.5t174 39.5t174 -39.5t55 -128.5v-365h-105v344q0 29 -3 45t-15 30.5t-37.5 20.5t-68.5 6t-68.5 -6t-37.5 -20.5t-15 -30.5t-3 -45v-344z" />
    <glyph glyph-name="o" unicode="o" horiz-adv-x="574" 
d="M287 533q132 0 186.5 -53t54.5 -194v-55q0 -141 -54.5 -194t-186.5 -53t-186.5 53t-54.5 194v55q0 141 54.5 194t186.5 53zM421 231v55q0 104 -25 132.5t-109 28.5t-109 -28.5t-25 -132.5v-55q0 -104 25 -132.5t109 -28.5t109 28.5t25 132.5z" />
    <glyph glyph-name="p" unicode="p" horiz-adv-x="580" 
d="M296 70q84 0 107.5 30t23.5 136v45q0 108 -24 137t-107 29t-108 -29t-25 -132v-71q0 -87 27 -116t106 -29zM297 533q131 0 184 -53.5t53 -198.5v-45q0 -137 -50 -194.5t-188 -57.5q-86 0 -132 41v-200h-106v461q0 139 54.5 193t184.5 54z" />
    <glyph glyph-name="q" unicode="q" horiz-adv-x="580" 
d="M280 70q85 0 111 27.5t26 113.5v75q0 104 -24.5 132.5t-109.5 28.5q-42 0 -64.5 -4.5t-39 -22t-21.5 -48.5t-5 -86v-50q0 -74 11 -108t36 -46t80 -12zM270 -16q-126 0 -175 59t-49 187v56q0 65 10 108.5t36.5 76t74 47.5t120.5 15q126 0 180.5 -54t54.5 -193v-461h-105
v200q-47 -41 -147 -41z" />
    <glyph glyph-name="r" unicode="r" horiz-adv-x="380" 
d="M163 0h-105v354q0 165 195 165q94 0 117 -1l-18 -87l-15 1h-36.5h-37.5q-64 0 -82 -22.5t-18 -78.5v-331z" />
    <glyph glyph-name="s" unicode="s" horiz-adv-x="519" 
d="M215 316l116 -11q142 -13 142 -143v-14q0 -150 -208 -150q-64 0 -224 2l18 87q144 -2 211 -2q58 0 79.5 13t21.5 51q0 28 -14.5 43.5t-57.5 18.5l-120 11q-69 6 -102.5 44t-33.5 91v17q0 145 201 145q159 0 217 -2l-18 -87q-75 2 -210 2q-51 0 -71 -12.5t-20 -44.5
q0 -28 14 -41.5t59 -17.5z" />
    <glyph glyph-name="t" unicode="t" horiz-adv-x="373" 
d="M58 187v452l105 19v-141h190l-18 -87h-172v-240q0 -67 17 -86t76 -19h91l-18 -85h-72q-119 0 -159 39t-40 148z" />
    <glyph glyph-name="u" unicode="u" horiz-adv-x="569" 
d="M285 -16q-116 0 -171.5 39t-55.5 129v365h105v-344q0 -29 3 -45t14.5 -30.5t37 -20.5t67.5 -6t67 6t36.5 20.5t14.5 30.5t3 45v344h105v-365q0 -90 -55.5 -129t-170.5 -39z" />
    <glyph glyph-name="v" unicode="v" horiz-adv-x="541" 
d="M15 517h116l141 -403l145 403h109l-200 -517h-111z" />
    <glyph glyph-name="w" unicode="w" horiz-adv-x="770" 
d="M486 0l-101 391l-104 -391h-108l-153 517h105l103 -407l109 407h102l104 -409l109 409h98l-156 -517h-108z" />
    <glyph glyph-name="x" unicode="x" horiz-adv-x="531" 
d="M33 517h119l114 -177l119 177h111l-173 -242l193 -275h-119l-135 203l-136 -203h-111l190 269z" />
    <glyph glyph-name="y" unicode="y" horiz-adv-x="569" 
d="M88 -175l19 87q45 -2 163 -2q77 0 106.5 29t29.5 111v11q-16 -14 -28.5 -21.5t-44 -14.5t-76.5 -7q-100 0 -149.5 38t-49.5 127v334h105v-310q0 -58 18.5 -80t91.5 -22q83 0 108 23.5t25 89.5v299h105v-467q0 -122 -56 -174.5t-184 -52.5q-129 0 -183 2z" />
    <glyph glyph-name="z" unicode="z" horiz-adv-x="507" 
d="M462 435l-300 -348h315l-18 -87h-423v82l301 348h-300l18 87h407v-82z" />
    <glyph glyph-name="braceleft" unicode="{" horiz-adv-x="367" 
d="M279 712h74l-19 -88h-58q-44 0 -60 -18t-16 -55v-186q0 -66 -57 -96q57 -30 57 -96v-187q0 -37 16 -55t60 -18h77l-19 -88h-55q-100 0 -138 38t-38 104v197q0 61 -73 61h-15v88h15q73 0 73 61v196q0 66 38 104t138 38z" />
    <glyph glyph-name="bar" unicode="|" horiz-adv-x="217" 
d="M58 -175v918h101v-918h-101z" />
    <glyph glyph-name="braceright" unicode="}" horiz-adv-x="367" 
d="M88 -175h-74l19 88h58q43 0 59.5 18t16.5 55v187q0 66 57 96q-57 30 -57 96v186q0 37 -16.5 55t-59.5 18h-77l19 88h55q100 0 138 -38t38 -104v-196q0 -61 73 -61h15v-88h-15q-73 0 -73 -61v-197q0 -66 -38 -104t-138 -38z" />
    <glyph glyph-name="asciitilde" unicode="~" horiz-adv-x="595" 
d="M293 393l23 -11q61 -29 81 -29q18 0 26 11t8 40v13h94v-13q0 -151 -105 -151q-46 0 -118 37l-23 11q-61 29 -81 29q-18 0 -26 -11t-8 -40v-13h-94v13q0 81 26.5 116t78.5 35q46 0 118 -37z" />
    <glyph glyph-name="uni00A0" unicode="&#xa0;" horiz-adv-x="250" 
 />
    <glyph glyph-name="exclamdown" unicode="&#xa1;" horiz-adv-x="236" 
d="M158 317l12 -203q2 -19 2 -89v-221h-108v221q0 70 2 89l11 203h81zM50 456q0 35 16 51.5t52 16.5t52 -16.5t16 -51.5t-16 -51.5t-52 -16.5t-52 16.5t-16 51.5z" />
    <glyph glyph-name="cent" unicode="&#xa2;" horiz-adv-x="595" 
d="M379 613v-94h5q54 0 104 -2l-18 -86q-54 2 -86 2h-5v-349h8q71 0 108 1l-18 -85q-54 -2 -98 -2v-94h-80v95q-110 4 -152 55.5t-42 177.5v62q0 111 45.5 163t148.5 60v96h80zM212 294v-62q0 -84 17 -113.5t70 -33.5v347q-53 -4 -70 -31.5t-17 -106.5z" />
    <glyph glyph-name="sterling" unicode="&#xa3;" horiz-adv-x="595" 
d="M534 90l-18 -90h-450l19 90h50v214h-69l18 90h51v73q0 112 57 163.5t185 51.5q88 0 154 -2l-14 -90q-38 2 -148 2q-81 0 -107 -27t-26 -109v-62h221l-18 -90h-203v-214h298z" />
    <glyph glyph-name="currency" unicode="&#xa4;" horiz-adv-x="595" 
d="M147 354q0 -60 42.5 -102.5t107.5 -42.5t107.5 42.5t42.5 102.5t-42.5 102.5t-107.5 42.5t-107.5 -42.5t-42.5 -102.5zM525 354q0 -64 -41 -123l59 -59l-59 -58l-59 59q-59 -41 -128 -41t-128 41l-59 -59l-59 58l59 59q-41 59 -41 123t41 123l-59 59l59 58l59 -59
q59 41 128 41t128 -41l59 59l59 -58l-59 -59q41 -59 41 -123z" />
    <glyph glyph-name="yen" unicode="&#xa5;" horiz-adv-x="595" 
d="M89 294v80h114l-184 306h115l166 -285l168 285h109l-187 -306h116v-80h-157v-76h157v-80h-157v-138h-104v138h-156v80h156v76h-156z" />
    <glyph glyph-name="brokenbar" unicode="&#xa6;" horiz-adv-x="217" 
d="M159 437h-101v306h101v-306zM159 131v-306h-101v306h101z" />
    <glyph glyph-name="section" unicode="&#xa7;" horiz-adv-x="595" 
d="M233 470l131 -13q87 -9 129 -50t42 -128v-8q0 -87 -67 -140q33 -19 49 -54t16 -74v-13q0 -79 -52.5 -126.5t-170.5 -47.5q-95 0 -239 2l18 87q126 -2 226 -2q65 0 91.5 19.5t26.5 67.5q0 76 -72 82l-138 14q-84 9 -123 47t-39 125v12q0 43 20 80.5t54 55.5
q-72 38 -72 128v16q0 74 49.5 119.5t152.5 45.5q110 0 246 -2l-18 -87q-112 2 -233 2q-59 0 -79.5 -18.5t-20.5 -58.5t14.5 -58.5t58.5 -22.5zM348 365l-68 7q-28 3 -39 3q-82 0 -82 -107q0 -48 19.5 -68.5t72.5 -26.5l65 -7q28 -3 39 -3q82 0 82 107q0 51 -18.5 70.5
t-70.5 24.5z" />
    <glyph glyph-name="dieresis" unicode="&#xa8;" horiz-adv-x="500" 
d="M223 663q0 -31 -13.5 -45t-45.5 -14t-45.5 14t-13.5 45t13.5 45t45.5 14t45.5 -14t13.5 -45zM395 663q0 -31 -13.5 -45t-45.5 -14t-45.5 14t-13.5 45t13.5 45t45.5 14t45.5 -14t13.5 -45z" />
    <glyph glyph-name="copyright" unicode="&#xa9;" horiz-adv-x="832" 
d="M544 574l-19 -81q-35 1 -79 1q-65 0 -82.5 -19.5t-17.5 -97.5v-42q0 -77 20 -97t96 -20q60 0 81 1l-19 -81q-46 -2 -86 -2q-105 0 -146.5 47t-41.5 150v45q0 103 38.5 150.5t148.5 47.5q59 0 107 -2zM792 356q0 -202 -82.5 -283.5t-293.5 -81.5q-208 0 -292 80t-84 285
q0 202 82.5 283.5t293.5 81.5q208 0 292 -80t84 -285zM705 356q0 88 -11 140t-44 86.5t-87.5 47t-146.5 12.5t-146.5 -12t-87.5 -46t-44 -86.5t-11 -141.5q0 -88 11 -140t44 -86.5t87.5 -47t146.5 -12.5t146.5 12t87.5 46t44 86.5t11 141.5z" />
    <glyph glyph-name="ordfeminine" unicode="&#xaa;" horiz-adv-x="430" 
d="M115 441v-14q0 -30 18 -40.5t57 -10.5h107v65q0 34 -14.5 45.5t-71.5 11.5h-8q-52 0 -70 -12t-18 -45zM382 582v-210q0 -67 -51 -67h-144q-76 0 -115.5 28t-39.5 93v19q0 67 38 95t121 28q72 0 106 -24v22q0 43 -16 58.5t-78 15.5q-61 0 -133 -2l15 75q29 1 119 1
t134 -30.5t44 -101.5z" />
    <glyph glyph-name="guillemotleft" unicode="&#xab;" horiz-adv-x="560" 
d="M40 208v103l219 173v-112l-144 -113l144 -112v-112zM301 208v103l219 173v-112l-144 -113l144 -112v-112z" />
    <glyph glyph-name="logicalnot" unicode="&#xac;" horiz-adv-x="595" 
d="M403 384h-335v87h432v-261h-97v174z" />
    <glyph glyph-name="uni00AD" unicode="&#xad;" horiz-adv-x="338" 
d="M299 240h-279l19 94h279z" />
    <glyph glyph-name="registered" unicode="&#xae;" horiz-adv-x="590" 
d="M558 484q0 -141 -60 -198.5t-203 -57.5t-203 57.5t-60 198.5t60 198.5t203 57.5t203 -57.5t60 -198.5zM106 484q0 -114 38.5 -153t150.5 -39t150.5 39t38.5 153t-38.5 153t-150.5 39t-150.5 -39t-38.5 -153zM407 541v-16q0 -30 -9.5 -46.5t-34.5 -27.5l57 -94h-79l-44 83
h-33v-83h-71v263h128q86 0 86 -79zM337 526v8q0 19 -7.5 24.5t-31.5 5.5h-35v-68h35q24 0 31.5 5.5t7.5 24.5z" />
    <glyph glyph-name="overscore" unicode="&#xaf;" horiz-adv-x="500" 
d="M105 619v81h289v-81h-289z" />
    <glyph glyph-name="degree" unicode="&#xb0;" horiz-adv-x="348" 
d="M336 598q0 -75 -41.5 -114t-120.5 -39t-120.5 39t-41.5 114t41.5 114t120.5 39t120.5 -39t41.5 -114zM252 598q0 45 -17.5 63t-60.5 18t-60.5 -18t-17.5 -63q0 -46 17.5 -63.5t60.5 -17.5t60.5 17.5t17.5 63.5z" />
    <glyph glyph-name="plusminus" unicode="&#xb1;" horiz-adv-x="595" 
d="M81 1v87h432v-87h-432zM346 583v-179h167v-87h-167v-179h-97v179h-168v87h168v179h97z" />
    <glyph glyph-name="uni00B2" unicode="&#xb2;" 
d="M244 461l-58 -17q-34 -10 -42.5 -22.5t-8.5 -50.5v-9h198l-12 -74h-273v71q0 67 23.5 101t83.5 51l44 13q31 9 39.5 17.5t8.5 28.5q0 23 -11 31t-44 8q-80 0 -134 -2l11 72q62 2 117 2q79 0 113 -25t34 -78v-12q0 -43 -18.5 -66.5t-70.5 -38.5z" />
    <glyph glyph-name="uni00B3" unicode="&#xb3;" 
d="M324 579v-5q0 -64 -55 -80q65 -19 65 -87v-9q0 -111 -155 -111q-60 0 -134 2l11 73q66 -2 135 -2q32 0 43.5 8t11.5 34v5q0 26 -12 35t-43 9h-112l11 72h87q37 0 49.5 8.5t12.5 33.5v5q0 22 -12 29.5t-50 7.5q-58 0 -120 -2l11 74q86 2 117 2q74 0 106.5 -25t32.5 -77z
" />
    <glyph glyph-name="acute" unicode="&#xb4;" horiz-adv-x="500" 
d="M140 599l103 126h117l-117 -126h-103z" />
    <glyph glyph-name="uni00B5" unicode="&#xb5;" horiz-adv-x="574" 
d="M414 0h-113q-103 0 -139 36v-211h-104v692h105v-302q0 -76 28 -103t110 -27h110v432h105v-431q0 -47 -21.5 -66.5t-80.5 -19.5z" />
    <glyph glyph-name="paragraph" unicode="&#xb6;" horiz-adv-x="650" 
d="M402 631v-806h-85v448h-54q-61 0 -105.5 19t-68 51t-34.5 66t-11 70v31q0 83 51.5 142.5t151.5 59.5h336v-887h-85v806h-96z" />
    <glyph glyph-name="middot" unicode="&#xb7;" horiz-adv-x="208" 
d="M173 341q0 -69 -69 -69t-69 69t69 69t69 -69z" />
    <glyph glyph-name="cedilla" unicode="&#xb8;" horiz-adv-x="500" 
d="M260 -117q0 13 -6 18t-23 5q-28 0 -48 -1l17 60q13 1 52 1q52 0 74.5 -17t22.5 -59v-9q0 -46 -25.5 -64.5t-89.5 -18.5q-43 0 -82 3l20 61q38 -2 59 -2q17 0 23 5t6 18z" />
    <glyph glyph-name="uni00B9" unicode="&#xb9;" 
d="M250 362h93l-12 -74h-262l12 74h82v248h-93l14 70h166v-318z" />
    <glyph glyph-name="ordmasculine" unicode="&#xba;" horiz-adv-x="472" 
d="M236 372q65 0 83 22t18 96v38q0 74 -18 96t-83 22t-83 -22t-18 -96v-38q0 -74 18 -96t83 -22zM236 298q-108 0 -152 40.5t-44 146.5v48q0 106 44 146.5t152 40.5t152 -40.5t44 -146.5v-48q0 -106 -44 -146.5t-152 -40.5z" />
    <glyph glyph-name="guillemotright" unicode="&#xbb;" horiz-adv-x="560" 
d="M520 311v-103l-219 -173v112l144 112l-144 113v112zM259 311v-103l-219 -173v112l144 112l-144 113v112z" />
    <glyph glyph-name="onequarter" unicode="&#xbc;" horiz-adv-x="880" 
d="M183 0l420 680h94l-420 -680h-94zM767 392l-142 -248h104v102l84 12v-114h50l-14 -67h-36v-77h-84v77h-191v66l139 249h90zM250 362h93l-12 -74h-262l12 74h82v248h-93l14 70h166v-318z" />
    <glyph glyph-name="onehalf" unicode="&#xbd;" horiz-adv-x="880" 
d="M183 0l420 680h94l-420 -680h-94zM746 173l-58 -17q-34 -10 -42.5 -22.5t-8.5 -50.5v-9h198l-12 -74h-273v71q0 67 23.5 101t83.5 51l44 13q31 9 39.5 17.5t8.5 28.5q0 23 -11 31t-44 8q-80 0 -134 -2l11 72q62 2 117 2q79 0 113 -25t34 -78v-12q0 -43 -18.5 -66.5
t-70.5 -38.5zM250 362h93l-12 -74h-262l12 74h82v248h-93l14 70h166v-318z" />
    <glyph glyph-name="threequarters" unicode="&#xbe;" horiz-adv-x="880" 
d="M204 0l420 680h94l-420 -680h-94zM767 392l-142 -248h104v102l84 12v-114h50l-14 -67h-36v-77h-84v77h-191v66l139 249h90zM324 579v-5q0 -64 -55 -80q65 -19 65 -87v-9q0 -111 -155 -111q-60 0 -134 2l11 73q66 -2 135 -2q32 0 43.5 8t11.5 34v5q0 26 -12 35t-43 9h-112
l11 72h87q37 0 49.5 8.5t12.5 33.5v5q0 22 -12 29.5t-50 7.5q-58 0 -120 -2l11 74q86 2 117 2q74 0 106.5 -25t32.5 -77z" />
    <glyph glyph-name="questiondown" unicode="&#xbf;" horiz-adv-x="459" 
d="M252 124l-48 -23q-38 -18 -51 -39t-13 -64q0 -59 21 -83t81 -24q39 0 121 1t86 1l-14 -87q-3 0 -37.5 -0.5t-79 -1t-72.5 -0.5q-110 0 -160.5 42.5t-50.5 129.5v26q0 67 26.5 104.5t86.5 64.5l50 23q35 16 44.5 34t9.5 65v27h103v-27q0 -72 -24 -107t-79 -62zM236 456
q0 35 16 51.5t52 16.5t52 -16.5t16 -51.5t-16 -51.5t-52 -16.5t-52 16.5t-16 51.5z" />
    <glyph glyph-name="Agrave" unicode="&#xc0;" horiz-adv-x="690" 
d="M563 0l-75 204h-293l-74 -204h-106l272 712h116l272 -712h-112zM341 606l-114 -312h228zM166 892h132l114 -119h-109z" />
    <glyph glyph-name="Aacute" unicode="&#xc1;" horiz-adv-x="690" 
d="M563 0l-75 204h-293l-74 -204h-106l272 712h116l272 -712h-112zM341 606l-114 -312h228zM394 892h132l-137 -119h-109z" />
    <glyph glyph-name="Acircumflex" unicode="&#xc2;" horiz-adv-x="690" 
d="M563 0l-75 204h-293l-74 -204h-106l272 712h116l272 -712h-112zM341 606l-114 -312h228zM415 773l-70 63l-69 -63h-106l117 118h117l117 -118h-106z" />
    <glyph glyph-name="Atilde" unicode="&#xc3;" horiz-adv-x="690" 
d="M563 0l-75 204h-293l-74 -204h-106l272 712h116l272 -712h-112zM341 606l-114 -312h228zM347 786l-17 6q-45 17 -60 17q-13 0 -18.5 -5.5t-5.5 -24.5v-16h-74v17q0 111 82 111q34 0 89 -21l17 -6q50 -17 60 -17q13 0 18.5 5.5t5.5 24.5v16h74v-17q0 -111 -82 -111
q-34 0 -89 21z" />
    <glyph glyph-name="Adieresis" unicode="&#xc4;" horiz-adv-x="690" 
d="M563 0l-75 204h-293l-74 -204h-106l272 712h116l272 -712h-112zM341 606l-114 -312h228zM312 831q0 -32 -14 -46t-46 -14t-46 14t-14 46t14 46t46 14t46 -14t14 -46zM498 831q0 -32 -14 -46t-46 -14t-46 14t-14 46t14 46t46 14t46 -14t14 -46z" />
    <glyph glyph-name="Aring" unicode="&#xc5;" horiz-adv-x="690" 
d="M216 786q0 121 129 121t129 -121q0 -80 -58 -108l259 -678h-112l-75 204h-293l-74 -204h-106l259 678q-58 27 -58 108zM341 606l-114 -312h228zM403 786q0 35 -12 46.5t-46 11.5t-46 -11.5t-12 -46.5t12 -46.5t46 -11.5t46 11.5t12 46.5z" />
    <glyph glyph-name="AE" unicode="&#xc6;" horiz-adv-x="984" 
d="M279 310h174v308h-7zM453 220h-222l-119 -220h-107l395 712h541l-19 -94h-364v-205h359l-19 -94h-340v-225h383l-19 -94h-469v220z" />
    <glyph glyph-name="Ccedilla" unicode="&#xc7;" horiz-adv-x="565" 
d="M160 393v-73q0 -141 36.5 -184.5t151.5 -43.5q131 0 187 2l-19 -94q-48 -2 -168 -2q-170 0 -234 71.5t-64 250.5v73q0 182 65.5 251.5t231.5 69.5q129 0 182 -2l-19 -94q-20 0 -80 1t-85 1q-62 0 -95 -7.5t-55 -33.5t-28.5 -68t-6.5 -118zM295 -95q-35 0 -55 -1l17 61
q13 1 66 1t74.5 -18t21.5 -59v-10q0 -45 -25.5 -63t-90.5 -18q-53 0 -94 3l20 62q38 -2 66 -2q17 0 23 4.5t6 18.5q0 13 -6 17t-23 4z" />
    <glyph glyph-name="Egrave" unicode="&#xc8;" horiz-adv-x="603" 
d="M72 712h488l-19 -94h-364v-205h358l-19 -94h-339v-225h383l-19 -94h-469v712zM167 892h132l114 -119h-109z" />
    <glyph glyph-name="Eacute" unicode="&#xc9;" horiz-adv-x="603" 
d="M72 712h488l-19 -94h-364v-205h358l-19 -94h-339v-225h383l-19 -94h-469v712zM342 892h132l-137 -119h-109z" />
    <glyph glyph-name="Ecircumflex" unicode="&#xca;" horiz-adv-x="603" 
d="M72 712h488l-19 -94h-364v-205h358l-19 -94h-339v-225h383l-19 -94h-469v712zM386 773l-70 63l-69 -63h-106l117 118h117l117 -118h-106z" />
    <glyph glyph-name="Edieresis" unicode="&#xcb;" horiz-adv-x="603" 
d="M72 712h488l-19 -94h-364v-205h358l-19 -94h-339v-225h383l-19 -94h-469v712zM274 831q0 -32 -14 -46t-46 -14t-46 14t-14 46t14 46t46 14t46 -14t14 -46zM460 831q0 -32 -14 -46t-46 -14t-46 14t-14 46t14 46t46 14t46 -14t14 -46z" />
    <glyph glyph-name="Igrave" unicode="&#xcc;" horiz-adv-x="249" 
d="M72 712h105v-712h-105v712zM-43 892h132l114 -119h-109z" />
    <glyph glyph-name="Iacute" unicode="&#xcd;" horiz-adv-x="249" 
d="M72 712h105v-712h-105v712zM171 892h132l-137 -119h-109z" />
    <glyph glyph-name="Icircumflex" unicode="&#xce;" horiz-adv-x="249" 
d="M72 712h105v-712h-105v712zM195 773l-70 63l-69 -63h-106l117 118h117l117 -118h-106z" />
    <glyph glyph-name="Idieresis" unicode="&#xcf;" horiz-adv-x="249" 
d="M72 712h105v-712h-105v712zM92 831q0 -32 -14 -46t-46 -14t-46 14t-14 46t14 46t46 14t46 -14t14 -46zM278 831q0 -32 -14 -46t-46 -14t-46 14t-14 46t14 46t46 14t46 -14t14 -46z" />
    <glyph glyph-name="Eth" unicode="&#xd0;" horiz-adv-x="706" 
d="M91 0v316h-66v85h66v311h258q171 0 239 -76t68 -239v-81q0 -164 -67.5 -240t-239.5 -76h-258zM359 316h-163v-222h153q113 0 155 45.5t42 183.5v67q0 95 -20 144.5t-60 66.5t-117 17h-153v-217h163v-85z" />
    <glyph glyph-name="Ntilde" unicode="&#xd1;" horiz-adv-x="709" 
d="M72 712h93l367 -537v537h105v-712h-95l-365 534v-534h-105v712zM363 786l-17 6q-45 17 -60 17q-13 0 -18.5 -5.5t-5.5 -24.5v-16h-74v17q0 111 82 111q34 0 89 -21l17 -6q50 -17 60 -17q13 0 18.5 5.5t5.5 24.5v16h74v-17q0 -111 -82 -111q-34 0 -89 21z" />
    <glyph glyph-name="Ograve" unicode="&#xd2;" horiz-adv-x="710" 
d="M355 73q63 0 98 8t58.5 35.5t31 72.5t7.5 126v83q0 80 -7.5 125t-31 72.5t-58.5 36t-98 8.5t-98 -8t-58.5 -35.5t-31 -72.5t-7.5 -126v-83q0 -80 7.5 -125t31 -72.5t58.5 -36t98 -8.5zM355 -18q-93 0 -154 20t-93.5 64.5t-45 101.5t-12.5 143v91q0 66 7 113.5t26.5 90.5
t53 69t88 41t130.5 15q93 0 154 -20t93.5 -64.5t45 -101.5t12.5 -143v-91q0 -66 -7 -113.5t-26.5 -90.5t-53 -69t-88 -41t-130.5 -15zM214 892h132l114 -119h-109z" />
    <glyph glyph-name="Oacute" unicode="&#xd3;" horiz-adv-x="710" 
d="M355 73q63 0 98 8t58.5 35.5t31 72.5t7.5 126v83q0 80 -7.5 125t-31 72.5t-58.5 36t-98 8.5t-98 -8t-58.5 -35.5t-31 -72.5t-7.5 -126v-83q0 -80 7.5 -125t31 -72.5t58.5 -36t98 -8.5zM355 -18q-93 0 -154 20t-93.5 64.5t-45 101.5t-12.5 143v91q0 66 7 113.5t26.5 90.5
t53 69t88 41t130.5 15q93 0 154 -20t93.5 -64.5t45 -101.5t12.5 -143v-91q0 -66 -7 -113.5t-26.5 -90.5t-53 -69t-88 -41t-130.5 -15zM369 892h132l-137 -119h-109z" />
    <glyph glyph-name="Ocircumflex" unicode="&#xd4;" horiz-adv-x="710" 
d="M355 73q63 0 98 8t58.5 35.5t31 72.5t7.5 126v83q0 80 -7.5 125t-31 72.5t-58.5 36t-98 8.5t-98 -8t-58.5 -35.5t-31 -72.5t-7.5 -126v-83q0 -80 7.5 -125t31 -72.5t58.5 -36t98 -8.5zM355 -18q-93 0 -154 20t-93.5 64.5t-45 101.5t-12.5 143v91q0 66 7 113.5t26.5 90.5
t53 69t88 41t130.5 15q93 0 154 -20t93.5 -64.5t45 -101.5t12.5 -143v-91q0 -66 -7 -113.5t-26.5 -90.5t-53 -69t-88 -41t-130.5 -15zM425 773l-70 63l-69 -63h-106l117 118h117l117 -118h-106z" />
    <glyph glyph-name="Otilde" unicode="&#xd5;" horiz-adv-x="710" 
d="M355 73q63 0 98 8t58.5 35.5t31 72.5t7.5 126v83q0 80 -7.5 125t-31 72.5t-58.5 36t-98 8.5t-98 -8t-58.5 -35.5t-31 -72.5t-7.5 -126v-83q0 -80 7.5 -125t31 -72.5t58.5 -36t98 -8.5zM355 -18q-93 0 -154 20t-93.5 64.5t-45 101.5t-12.5 143v91q0 66 7 113.5t26.5 90.5
t53 69t88 41t130.5 15q93 0 154 -20t93.5 -64.5t45 -101.5t12.5 -143v-91q0 -66 -7 -113.5t-26.5 -90.5t-53 -69t-88 -41t-130.5 -15zM357 786l-17 6q-45 17 -60 17q-13 0 -18.5 -5.5t-5.5 -24.5v-16h-74v17q0 111 82 111q34 0 89 -21l17 -6q50 -17 60 -17q13 0 18.5 5.5
t5.5 24.5v16h74v-17q0 -111 -82 -111q-34 0 -89 21z" />
    <glyph glyph-name="Odieresis" unicode="&#xd6;" horiz-adv-x="710" 
d="M355 73q63 0 98 8t58.5 35.5t31 72.5t7.5 126v83q0 80 -7.5 125t-31 72.5t-58.5 36t-98 8.5t-98 -8t-58.5 -35.5t-31 -72.5t-7.5 -126v-83q0 -80 7.5 -125t31 -72.5t58.5 -36t98 -8.5zM355 -18q-93 0 -154 20t-93.5 64.5t-45 101.5t-12.5 143v91q0 66 7 113.5t26.5 90.5
t53 69t88 41t130.5 15q93 0 154 -20t93.5 -64.5t45 -101.5t12.5 -143v-91q0 -66 -7 -113.5t-26.5 -90.5t-53 -69t-88 -41t-130.5 -15zM322 831q0 -32 -14 -46t-46 -14t-46 14t-14 46t14 46t46 14t46 -14t14 -46zM508 831q0 -32 -14 -46t-46 -14t-46 14t-14 46t14 46t46 14
t46 -14t14 -46z" />
    <glyph glyph-name="multiply" unicode="&#xd7;" horiz-adv-x="595" 
d="M503 475l-138 -138l140 -138l-68 -68l-138 139l-140 -141l-69 68l142 142l-140 140l68 66l139 -140l136 136z" />
    <glyph glyph-name="Oslash" unicode="&#xd8;" horiz-adv-x="710" 
d="M160 -90h-91l67 127q-48 39 -67 105t-19 169v91q0 66 7 113.5t26.5 90.5t53 69t88 41t130.5 15q79 0 135 -15l46 87h91l-63 -120q54 -38 75 -105.5t21 -175.5v-91q0 -66 -7 -113.5t-26.5 -90.5t-53 -69t-88 -41t-130.5 -15q-85 0 -148 19zM355 73q63 0 98 8t58.5 35.5
t31 72.5t7.5 126v83q0 148 -34 193l-265 -507q37 -11 104 -11zM160 398v-83q0 -134 26 -181l261 498q-29 8 -92 8t-98 -8t-58.5 -35.5t-31 -72.5t-7.5 -126z" />
    <glyph glyph-name="Ugrave" unicode="&#xd9;" horiz-adv-x="680" 
d="M340 -18q-68 0 -116.5 13.5t-79 37t-48.5 63t-24.5 84.5t-6.5 107v425h105v-427q0 -127 33.5 -169.5t136.5 -42.5t136.5 42.5t33.5 169.5v427h105v-425q0 -62 -6.5 -107t-24.5 -84.5t-48.5 -63t-79 -37t-116.5 -13.5zM178 892h132l114 -119h-109z" />
    <glyph glyph-name="Uacute" unicode="&#xda;" horiz-adv-x="680" 
d="M340 -18q-68 0 -116.5 13.5t-79 37t-48.5 63t-24.5 84.5t-6.5 107v425h105v-427q0 -127 33.5 -169.5t136.5 -42.5t136.5 42.5t33.5 169.5v427h105v-425q0 -62 -6.5 -107t-24.5 -84.5t-48.5 -63t-79 -37t-116.5 -13.5zM364 892h132l-137 -119h-109z" />
    <glyph glyph-name="Ucircumflex" unicode="&#xdb;" horiz-adv-x="680" 
d="M340 -18q-68 0 -116.5 13.5t-79 37t-48.5 63t-24.5 84.5t-6.5 107v425h105v-427q0 -127 33.5 -169.5t136.5 -42.5t136.5 42.5t33.5 169.5v427h105v-425q0 -62 -6.5 -107t-24.5 -84.5t-48.5 -63t-79 -37t-116.5 -13.5zM410 773l-70 63l-69 -63h-106l117 118h117l117 -118
h-106z" />
    <glyph glyph-name="Udieresis" unicode="&#xdc;" horiz-adv-x="680" 
d="M340 -18q-68 0 -116.5 13.5t-79 37t-48.5 63t-24.5 84.5t-6.5 107v425h105v-427q0 -127 33.5 -169.5t136.5 -42.5t136.5 42.5t33.5 169.5v427h105v-425q0 -62 -6.5 -107t-24.5 -84.5t-48.5 -63t-79 -37t-116.5 -13.5zM307 831q0 -32 -14 -46t-46 -14t-46 14t-14 46t14 46
t46 14t46 -14t14 -46zM493 831q0 -32 -14 -46t-46 -14t-46 14t-14 46t14 46t46 14t46 -14t14 -46z" />
    <glyph glyph-name="Yacute" unicode="&#xdd;" horiz-adv-x="652" 
d="M10 712h119l201 -322l198 322h114l-262 -413v-299h-105v299zM346 892h132l-137 -119h-109z" />
    <glyph glyph-name="Thorn" unicode="&#xde;" horiz-adv-x="615" 
d="M177 712v-136h163q126 0 185.5 -46.5t59.5 -148.5v-44q0 -102 -59.5 -148.5t-185.5 -46.5h-163v-142h-105v712h105zM480 353v12q0 71 -30 94t-110 23h-163v-246h163q80 0 110 23t30 94z" />
    <glyph glyph-name="germandbls" unicode="&#xdf;" horiz-adv-x="568" 
d="M497 569v-14q0 -52 -25.5 -90t-67.5 -53q65 -12 94.5 -55t29.5 -120v-31q0 -105 -55.5 -156.5t-180.5 -51.5q-31 0 -61 2l18 87q30 -2 52 -2q65 0 93 25t28 96v30q0 68 -26 97.5t-91 29.5h-71l18 87h40q55 0 80 23.5t25 77.5v14q0 54 -25 78.5t-86 24.5q-67 0 -95 -33
t-28 -111v-524h-105v524q0 226 228 226q114 0 162.5 -45t48.5 -136z" />
    <glyph glyph-name="agrave" unicode="&#xe0;" horiz-adv-x="546" 
d="M138 176v-21q0 -37 21.5 -53.5t76.5 -16.5h152v92q0 41 -22 56.5t-94 15.5h-23q-65 0 -88 -15.5t-23 -57.5zM488 351v-265q0 -48 -22 -67t-80 -19h-150q-103 0 -149.5 37.5t-46.5 116.5v22q0 83 49 119.5t155 36.5q102 0 144 -30v30q0 55 -23.5 77.5t-105.5 22.5
q-81 0 -171 -2l19 87q74 2 152 2q119 0 174 -41.5t55 -126.5zM257 725l103 -126h-103l-117 126h117z" />
    <glyph glyph-name="aacute" unicode="&#xe1;" horiz-adv-x="546" 
d="M138 176v-21q0 -37 21.5 -53.5t76.5 -16.5h152v92q0 41 -22 56.5t-94 15.5h-23q-65 0 -88 -15.5t-23 -57.5zM488 351v-265q0 -48 -22 -67t-80 -19h-150q-103 0 -149.5 37.5t-46.5 116.5v22q0 83 49 119.5t155 36.5q102 0 144 -30v30q0 55 -23.5 77.5t-105.5 22.5
q-81 0 -171 -2l19 87q74 2 152 2q119 0 174 -41.5t55 -126.5zM194 599l103 126h117l-117 -126h-103z" />
    <glyph glyph-name="acircumflex" unicode="&#xe2;" horiz-adv-x="546" 
d="M138 176v-21q0 -37 21.5 -53.5t76.5 -16.5h152v92q0 41 -22 56.5t-94 15.5h-23q-65 0 -88 -15.5t-23 -57.5zM488 351v-265q0 -48 -22 -67t-80 -19h-150q-103 0 -149.5 37.5t-46.5 116.5v22q0 83 49 119.5t155 36.5q102 0 144 -30v30q0 55 -23.5 77.5t-105.5 22.5
q-81 0 -171 -2l19 87q74 2 152 2q119 0 174 -41.5t55 -126.5zM219 726h110l105 -127h-96l-64 72l-64 -72h-96z" />
    <glyph glyph-name="atilde" unicode="&#xe3;" horiz-adv-x="546" 
d="M138 176v-21q0 -37 21.5 -53.5t76.5 -16.5h152v92q0 41 -22 56.5t-94 15.5h-23q-65 0 -88 -15.5t-23 -57.5zM488 351v-265q0 -48 -22 -67t-80 -19h-150q-103 0 -149.5 37.5t-46.5 116.5v22q0 83 49 119.5t155 36.5q102 0 144 -30v30q0 55 -23.5 77.5t-105.5 22.5
q-81 0 -171 -2l19 87q74 2 152 2q119 0 174 -41.5t55 -126.5zM273 617l-32 15q-19 11 -36 11q-12 0 -18 -6.5t-6 -26.5v-13h-74v15q0 62 22.5 85.5t65.5 23.5q34 0 75 -20l32 -15q19 -11 36 -11q12 0 18 6.5t6 26.5v13h74v-15q0 -62 -22.5 -85.5t-65.5 -23.5q-34 0 -75 20z
" />
    <glyph glyph-name="adieresis" unicode="&#xe4;" horiz-adv-x="546" 
d="M138 176v-21q0 -37 21.5 -53.5t76.5 -16.5h152v92q0 41 -22 56.5t-94 15.5h-23q-65 0 -88 -15.5t-23 -57.5zM488 351v-265q0 -48 -22 -67t-80 -19h-150q-103 0 -149.5 37.5t-46.5 116.5v22q0 83 49 119.5t155 36.5q102 0 144 -30v30q0 55 -23.5 77.5t-105.5 22.5
q-81 0 -171 -2l19 87q74 2 152 2q119 0 174 -41.5t55 -126.5zM257 663q0 -31 -13.5 -45t-45.5 -14t-45.5 14t-13.5 45t13.5 45t45.5 14t45.5 -14t13.5 -45zM429 663q0 -31 -13.5 -45t-45.5 -14t-45.5 14t-13.5 45t13.5 45t45.5 14t45.5 -14t13.5 -45z" />
    <glyph glyph-name="aring" unicode="&#xe5;" horiz-adv-x="546" 
d="M138 176v-21q0 -37 21.5 -53.5t76.5 -16.5h152v92q0 41 -22 56.5t-94 15.5h-23q-65 0 -88 -15.5t-23 -57.5zM488 351v-265q0 -48 -22 -67t-80 -19h-150q-103 0 -149.5 37.5t-46.5 116.5v22q0 83 49 119.5t155 36.5q102 0 144 -30v30q0 55 -23.5 77.5t-105.5 22.5
q-81 0 -171 -2l19 87q74 2 152 2q119 0 174 -41.5t55 -126.5zM142 689q0 121 129 121t129 -121t-129 -121t-129 121zM329 689q0 35 -12 46.5t-46 11.5t-46 -11.5t-12 -46.5t12 -46.5t46 -11.5t46 11.5t12 46.5z" />
    <glyph glyph-name="ae" unicode="&#xe6;" horiz-adv-x="876" 
d="M832 351v-10q0 -68 -15.5 -88t-56.5 -20h-274q0 -94 21 -121t98 -27q126 0 192 2l-18 -87q-128 -2 -173 -2q-70 0 -110.5 14t-65.5 54q-27 -37 -68.5 -51.5t-113.5 -14.5h-12q-96 0 -146 35.5t-50 118.5v11q0 83 46 119t136 36h164v19q0 53 -30.5 73t-106.5 20
q-71 0 -161 -2l19 87q74 2 157 2q135 0 172 -59q43 73 178 73q218 0 218 -182zM232 85h15q85 0 112 25.5t27 112.5v15h-163q-48 0 -66.5 -15t-18.5 -57v-11q0 -39 23.5 -54.5t70.5 -15.5zM610 450q-76 0 -100 -25.5t-24 -110.5h247v23q0 67 -26 90t-97 23z" />
    <glyph glyph-name="ccedilla" unicode="&#xe7;" horiz-adv-x="471" 
d="M287 432q-84 0 -109 -25.5t-25 -121.5v-53q0 -95 26 -121t108 -26q78 0 142 2l-18 -87q-70 -2 -124 -2q-134 0 -187.5 52t-53.5 182v53q0 130 53.5 182t187.5 52q92 0 140 -3l-18 -87q-55 3 -122 3zM253 -117q0 13 -6 18t-23 5q-28 0 -48 -1l17 60q13 1 52 1
q52 0 74.5 -17t22.5 -59v-9q0 -46 -25.5 -64.5t-89.5 -18.5q-43 0 -82 3l20 61q38 -2 59 -2q17 0 23 5t6 18z" />
    <glyph glyph-name="egrave" unicode="&#xe8;" horiz-adv-x="543" 
d="M427 220h-276q0 -84 22.5 -109.5t101.5 -25.5q126 0 189 2l-18 -87q-55 -2 -171 -2q-69 0 -115 16t-70.5 48.5t-34 72.5t-9.5 97v56q0 125 48.5 185t185.5 60q123 0 171 -51.5t48 -138.5v-15q0 -68 -15.5 -88t-56.5 -20zM275 450q-79 0 -101.5 -28t-22.5 -121h249v34
q0 67 -25.5 91t-99.5 24zM268 725l103 -126h-103l-117 126h117z" />
    <glyph glyph-name="eacute" unicode="&#xe9;" horiz-adv-x="543" 
d="M427 220h-276q0 -84 22.5 -109.5t101.5 -25.5q126 0 189 2l-18 -87q-55 -2 -171 -2q-69 0 -115 16t-70.5 48.5t-34 72.5t-9.5 97v56q0 125 48.5 185t185.5 60q123 0 171 -51.5t48 -138.5v-15q0 -68 -15.5 -88t-56.5 -20zM275 450q-79 0 -101.5 -28t-22.5 -121h249v34
q0 67 -25.5 91t-99.5 24zM196 599l103 126h117l-117 -126h-103z" />
    <glyph glyph-name="ecircumflex" unicode="&#xea;" horiz-adv-x="543" 
d="M427 220h-276q0 -84 22.5 -109.5t101.5 -25.5q126 0 189 2l-18 -87q-55 -2 -171 -2q-69 0 -115 16t-70.5 48.5t-34 72.5t-9.5 97v56q0 125 48.5 185t185.5 60q123 0 171 -51.5t48 -138.5v-15q0 -68 -15.5 -88t-56.5 -20zM275 450q-79 0 -101.5 -28t-22.5 -121h249v34
q0 67 -25.5 91t-99.5 24zM219 726h110l105 -127h-96l-64 72l-64 -72h-96z" />
    <glyph glyph-name="edieresis" unicode="&#xeb;" horiz-adv-x="543" 
d="M427 220h-276q0 -84 22.5 -109.5t101.5 -25.5q126 0 189 2l-18 -87q-55 -2 -171 -2q-69 0 -115 16t-70.5 48.5t-34 72.5t-9.5 97v56q0 125 48.5 185t185.5 60q123 0 171 -51.5t48 -138.5v-15q0 -68 -15.5 -88t-56.5 -20zM275 450q-79 0 -101.5 -28t-22.5 -121h249v34
q0 67 -25.5 91t-99.5 24zM256 663q0 -31 -13.5 -45t-45.5 -14t-45.5 14t-13.5 45t13.5 45t45.5 14t45.5 -14t13.5 -45zM428 663q0 -31 -13.5 -45t-45.5 -14t-45.5 14t-13.5 45t13.5 45t45.5 14t45.5 -14t13.5 -45z" />
    <glyph glyph-name="igrave" unicode="&#xec;" horiz-adv-x="221" 
d="M58 0v517h105v-517h-105zM75 725l103 -126h-103l-117 126h117z" />
    <glyph glyph-name="iacute" unicode="&#xed;" horiz-adv-x="221" 
d="M58 0v517h105v-517h-105zM45 599l103 126h117l-117 -126h-103z" />
    <glyph glyph-name="icircumflex" unicode="&#xee;" horiz-adv-x="221" 
d="M58 0v517h105v-517h-105zM56 726h110l105 -127h-96l-64 72l-64 -72h-96z" />
    <glyph glyph-name="idieresis" unicode="&#xef;" horiz-adv-x="221" 
d="M58 0v517h105v-517h-105zM84 663q0 -31 -13.5 -45t-45.5 -14t-45.5 14t-13.5 45t13.5 45t45.5 14t45.5 -14t13.5 -45zM256 663q0 -31 -13.5 -45t-45.5 -14t-45.5 14t-13.5 45t13.5 45t45.5 14t45.5 -14t13.5 -45z" />
    <glyph glyph-name="eth" unicode="&#xf0;" horiz-adv-x="583" 
d="M514 682l23 -68l-59 -20q50 -91 50 -270v-118q0 -56 -9.5 -93.5t-34.5 -68.5t-74 -45.5t-123 -14.5t-123 14.5t-74 45.5t-34.5 68.5t-9.5 93.5v46q0 122 52 172t174 50q102 0 149 -40q-3 75 -35 128l-141 -49l-22 66l112 40q-31 26 -84 52l60 71q79 -39 124 -88zM421 214
v54q0 73 -25 96.5t-109 23.5q-83 0 -108.5 -26t-25.5 -118v-30q0 -39 2 -60t9 -40t22.5 -27t39 -12.5t61.5 -4.5q48 0 74 5.5t40 24t17 42t3 72.5z" />
    <glyph glyph-name="ntilde" unicode="&#xf1;" horiz-adv-x="574" 
d="M163 0h-105v365q0 89 55 128.5t174 39.5t174 -39.5t55 -128.5v-365h-105v344q0 29 -3 45t-15 30.5t-37.5 20.5t-68.5 6t-68.5 -6t-37.5 -20.5t-15 -30.5t-3 -45v-344zM289 617l-32 15q-19 11 -36 11q-12 0 -18 -6.5t-6 -26.5v-13h-74v15q0 62 22.5 85.5t65.5 23.5
q34 0 75 -20l32 -15q19 -11 36 -11q12 0 18 6.5t6 26.5v13h74v-15q0 -62 -22.5 -85.5t-65.5 -23.5q-34 0 -75 20z" />
    <glyph glyph-name="ograve" unicode="&#xf2;" horiz-adv-x="574" 
d="M287 533q132 0 186.5 -53t54.5 -194v-55q0 -141 -54.5 -194t-186.5 -53t-186.5 53t-54.5 194v55q0 141 54.5 194t186.5 53zM421 231v55q0 104 -25 132.5t-109 28.5t-109 -28.5t-25 -132.5v-55q0 -104 25 -132.5t109 -28.5t109 28.5t25 132.5zM267 725l103 -126h-103
l-117 126h117z" />
    <glyph glyph-name="oacute" unicode="&#xf3;" horiz-adv-x="574" 
d="M287 533q132 0 186.5 -53t54.5 -194v-55q0 -141 -54.5 -194t-186.5 -53t-186.5 53t-54.5 194v55q0 141 54.5 194t186.5 53zM421 231v55q0 104 -25 132.5t-109 28.5t-109 -28.5t-25 -132.5v-55q0 -104 25 -132.5t109 -28.5t109 28.5t25 132.5zM204 599l103 126h117
l-117 -126h-103z" />
    <glyph glyph-name="ocircumflex" unicode="&#xf4;" horiz-adv-x="574" 
d="M287 533q132 0 186.5 -53t54.5 -194v-55q0 -141 -54.5 -194t-186.5 -53t-186.5 53t-54.5 194v55q0 141 54.5 194t186.5 53zM421 231v55q0 104 -25 132.5t-109 28.5t-109 -28.5t-25 -132.5v-55q0 -104 25 -132.5t109 -28.5t109 28.5t25 132.5zM232 726h110l105 -127h-96
l-64 72l-64 -72h-96z" />
    <glyph glyph-name="otilde" unicode="&#xf5;" horiz-adv-x="574" 
d="M287 533q132 0 186.5 -53t54.5 -194v-55q0 -141 -54.5 -194t-186.5 -53t-186.5 53t-54.5 194v55q0 141 54.5 194t186.5 53zM421 231v55q0 104 -25 132.5t-109 28.5t-109 -28.5t-25 -132.5v-55q0 -104 25 -132.5t109 -28.5t109 28.5t25 132.5zM289 617l-32 15
q-19 11 -36 11q-12 0 -18 -6.5t-6 -26.5v-13h-74v15q0 62 22.5 85.5t65.5 23.5q34 0 75 -20l32 -15q19 -11 36 -11q12 0 18 6.5t6 26.5v13h74v-15q0 -62 -22.5 -85.5t-65.5 -23.5q-34 0 -75 20z" />
    <glyph glyph-name="odieresis" unicode="&#xf6;" horiz-adv-x="574" 
d="M287 533q132 0 186.5 -53t54.5 -194v-55q0 -141 -54.5 -194t-186.5 -53t-186.5 53t-54.5 194v55q0 141 54.5 194t186.5 53zM421 231v55q0 104 -25 132.5t-109 28.5t-109 -28.5t-25 -132.5v-55q0 -104 25 -132.5t109 -28.5t109 28.5t25 132.5zM260 663q0 -31 -13.5 -45
t-45.5 -14t-45.5 14t-13.5 45t13.5 45t45.5 14t45.5 -14t13.5 -45zM432 663q0 -31 -13.5 -45t-45.5 -14t-45.5 14t-13.5 45t13.5 45t45.5 14t45.5 -14t13.5 -45z" />
    <glyph glyph-name="divide" unicode="&#xf7;" horiz-adv-x="595" 
d="M81 297v87h432v-87h-432zM297 243q37 0 50 -15t13 -48t-13 -48t-50 -15t-50 15t-13 48t13 48t50 15zM297 563q37 0 50 -15t13 -48t-13 -48t-50 -15t-50 15t-13 48t13 48t50 15z" />
    <glyph glyph-name="oslash" unicode="&#xf8;" horiz-adv-x="574" 
d="M287 533q48 0 91 -8l31 62h79l-42 -85q82 -50 82 -216v-55q0 -141 -54.5 -194t-186.5 -53q-47 0 -93 8l-30 -62h-79l42 85q-43 26 -62 77.5t-19 138.5v55q0 141 54.5 194t186.5 53zM421 231v55q0 94 -20 125l-167 -339q10 -2 53 -2q84 0 109 28.5t25 132.5zM153 286v-55
q0 -95 19 -125l166 338q-21 3 -51 3q-84 0 -109 -28.5t-25 -132.5z" />
    <glyph glyph-name="ugrave" unicode="&#xf9;" horiz-adv-x="569" 
d="M285 -16q-116 0 -171.5 39t-55.5 129v365h105v-344q0 -29 3 -45t14.5 -30.5t37 -20.5t67.5 -6t67 6t36.5 20.5t14.5 30.5t3 45v344h105v-365q0 -90 -55.5 -129t-170.5 -39zM270 725l103 -126h-103l-117 126h117z" />
    <glyph glyph-name="uacute" unicode="&#xfa;" horiz-adv-x="569" 
d="M285 -16q-116 0 -171.5 39t-55.5 129v365h105v-344q0 -29 3 -45t14.5 -30.5t37 -20.5t67.5 -6t67 6t36.5 20.5t14.5 30.5t3 45v344h105v-365q0 -90 -55.5 -129t-170.5 -39zM201 599l103 126h117l-117 -126h-103z" />
    <glyph glyph-name="ucircumflex" unicode="&#xfb;" horiz-adv-x="569" 
d="M285 -16q-116 0 -171.5 39t-55.5 129v365h105v-344q0 -29 3 -45t14.5 -30.5t37 -20.5t67.5 -6t67 6t36.5 20.5t14.5 30.5t3 45v344h105v-365q0 -90 -55.5 -129t-170.5 -39zM229 726h110l105 -127h-96l-64 72l-64 -72h-96z" />
    <glyph glyph-name="udieresis" unicode="&#xfc;" horiz-adv-x="569" 
d="M285 -16q-116 0 -171.5 39t-55.5 129v365h105v-344q0 -29 3 -45t14.5 -30.5t37 -20.5t67.5 -6t67 6t36.5 20.5t14.5 30.5t3 45v344h105v-365q0 -90 -55.5 -129t-170.5 -39zM257 663q0 -31 -13.5 -45t-45.5 -14t-45.5 14t-13.5 45t13.5 45t45.5 14t45.5 -14t13.5 -45z
M429 663q0 -31 -13.5 -45t-45.5 -14t-45.5 14t-13.5 45t13.5 45t45.5 14t45.5 -14t13.5 -45z" />
    <glyph glyph-name="yacute" unicode="&#xfd;" horiz-adv-x="569" 
d="M88 -175l19 87q45 -2 163 -2q77 0 106.5 29t29.5 111v11q-16 -14 -28.5 -21.5t-44 -14.5t-76.5 -7q-100 0 -149.5 38t-49.5 127v334h105v-310q0 -58 18.5 -80t91.5 -22q83 0 108 23.5t25 89.5v299h105v-467q0 -122 -56 -174.5t-184 -52.5q-129 0 -183 2zM201 599l103 126
h117l-117 -126h-103z" />
    <glyph glyph-name="thorn" unicode="&#xfe;" horiz-adv-x="580" 
d="M295 447q-80 0 -106 -28t-26 -113v-104q0 -75 28.5 -103.5t103.5 -28.5q86 0 109 31t23 135v45q0 103 -25 134.5t-107 31.5zM309 533q129 0 177 -61t48 -185v-57q0 -128 -48.5 -187t-181.5 -59q-94 0 -140 41v-200h-106v918h105v-251q45 41 146 41z" />
    <glyph glyph-name="ydieresis" unicode="&#xff;" horiz-adv-x="569" 
d="M88 -175l19 87q45 -2 163 -2q77 0 106.5 29t29.5 111v11q-16 -14 -28.5 -21.5t-44 -14.5t-76.5 -7q-100 0 -149.5 38t-49.5 127v334h105v-310q0 -58 18.5 -80t91.5 -22q83 0 108 23.5t25 89.5v299h105v-467q0 -122 -56 -174.5t-184 -52.5q-129 0 -183 2zM257 663
q0 -31 -13.5 -45t-45.5 -14t-45.5 14t-13.5 45t13.5 45t45.5 14t45.5 -14t13.5 -45zM429 663q0 -31 -13.5 -45t-45.5 -14t-45.5 14t-13.5 45t13.5 45t45.5 14t45.5 -14t13.5 -45z" />
    <glyph glyph-name="Amacron" unicode="&#x100;" horiz-adv-x="690" 
d="M563 0l-75 204h-293l-74 -204h-106l272 712h116l272 -712h-112zM341 606l-114 -312h228zM201 791v81h289v-81h-289z" />
    <glyph glyph-name="amacron" unicode="&#x101;" horiz-adv-x="546" 
d="M138 176v-21q0 -37 21.5 -53.5t76.5 -16.5h152v92q0 41 -22 56.5t-94 15.5h-23q-65 0 -88 -15.5t-23 -57.5zM488 351v-265q0 -48 -22 -67t-80 -19h-150q-103 0 -149.5 37.5t-46.5 116.5v22q0 83 49 119.5t155 36.5q102 0 144 -30v30q0 55 -23.5 77.5t-105.5 22.5
q-81 0 -171 -2l19 87q74 2 152 2q119 0 174 -41.5t55 -126.5zM135 619v81h289v-81h-289z" />
    <glyph glyph-name="Abreve" unicode="&#x102;" horiz-adv-x="690" 
d="M563 0l-75 204h-293l-74 -204h-106l272 712h116l272 -712h-112zM341 606l-114 -312h228zM345 768q-83 0 -120 32t-38 102h93q0 -33 14.5 -48t50.5 -15t50.5 15t14.5 48h93q-1 -70 -38 -102t-120 -32z" />
    <glyph glyph-name="abreve" unicode="&#x103;" horiz-adv-x="546" 
d="M138 176v-21q0 -37 21.5 -53.5t76.5 -16.5h152v92q0 41 -22 56.5t-94 15.5h-23q-65 0 -88 -15.5t-23 -57.5zM488 351v-265q0 -48 -22 -67t-80 -19h-150q-103 0 -149.5 37.5t-46.5 116.5v22q0 83 49 119.5t155 36.5q102 0 144 -30v30q0 55 -23.5 77.5t-105.5 22.5
q-81 0 -171 -2l19 87q74 2 152 2q119 0 174 -41.5t55 -126.5zM274 594q-82 0 -118.5 31.5t-37.5 98.5h93q0 -29 14 -43.5t49 -14.5t49 14.5t14 43.5h93q-1 -67 -37.5 -98.5t-118.5 -31.5z" />
    <glyph glyph-name="Aogonek" unicode="&#x104;" horiz-adv-x="690" 
d="M563 0l-75 204h-293l-74 -204h-106l272 712h116l272 -712q-79 -61 -79 -95q0 -12 6.5 -16t26.5 -4h45l-17 -79h-58q-47 0 -69 15.5t-22 55.5q0 65 76 123h-21zM341 606l-114 -312h228z" />
    <glyph glyph-name="aogonek" unicode="&#x105;" horiz-adv-x="546" 
d="M364 0h-128q-96 0 -146 35.5t-50 118.5v22q0 84 48.5 120t155.5 36q102 0 144 -30v30q0 55 -23.5 77.5t-105.5 22.5q-81 0 -171 -2l19 87q74 2 153 2q113 0 170.5 -39.5t57.5 -128.5v-265q0 -46 -20 -66q-67 -66 -67 -115q0 -12 6.5 -16t26.5 -4h45l-17 -79h-58
q-47 0 -69 15.5t-22 55.5q0 58 51 123zM138 176v-21q0 -39 23.5 -54.5t70.5 -15.5h156v92q0 41 -22 56.5t-94 15.5h-23q-65 0 -88 -15.5t-23 -57.5z" />
    <glyph glyph-name="Cacute" unicode="&#x106;" horiz-adv-x="565" 
d="M160 393v-73q0 -141 36.5 -184.5t151.5 -43.5q131 0 187 2l-19 -94q-48 -2 -168 -2q-170 0 -234 71.5t-64 250.5v73q0 182 65.5 251.5t231.5 69.5q129 0 182 -2l-19 -94q-20 0 -80 1t-85 1q-62 0 -95 -7.5t-55 -33.5t-28.5 -68t-6.5 -118zM352 892h132l-137 -119h-109z
" />
    <glyph glyph-name="cacute" unicode="&#x107;" horiz-adv-x="471" 
d="M287 432q-84 0 -109 -25.5t-25 -121.5v-53q0 -95 26 -121t108 -26q78 0 142 2l-18 -87q-70 -2 -124 -2q-134 0 -187.5 52t-53.5 182v53q0 130 53.5 182t187.5 52q92 0 140 -3l-18 -87q-55 3 -122 3zM196 599l103 126h117l-117 -126h-103z" />
    <glyph glyph-name="Ccircumflex" unicode="&#x108;" horiz-adv-x="565" 
d="M160 393v-73q0 -141 36.5 -184.5t151.5 -43.5q131 0 187 2l-19 -94q-48 -2 -168 -2q-170 0 -234 71.5t-64 250.5v73q0 182 65.5 251.5t231.5 69.5q129 0 182 -2l-19 -94q-20 0 -80 1t-85 1q-62 0 -95 -7.5t-55 -33.5t-28.5 -68t-6.5 -118zM408 773l-70 63l-69 -63h-106
l117 118h117l117 -118h-106z" />
    <glyph glyph-name="ccircumflex" unicode="&#x109;" horiz-adv-x="471" 
d="M287 432q-84 0 -109 -25.5t-25 -121.5v-53q0 -95 26 -121t108 -26q78 0 142 2l-18 -87q-70 -2 -124 -2q-134 0 -187.5 52t-53.5 182v53q0 130 53.5 182t187.5 52q92 0 140 -3l-18 -87q-55 3 -122 3zM206 726h110l105 -127h-96l-64 72l-64 -72h-96z" />
    <glyph glyph-name="Cdotaccent" unicode="&#x10a;" horiz-adv-x="565" 
d="M160 393v-73q0 -141 36.5 -184.5t151.5 -43.5q131 0 187 2l-19 -94q-48 -2 -168 -2q-170 0 -234 71.5t-64 250.5v73q0 182 65.5 251.5t231.5 69.5q129 0 182 -2l-19 -94q-20 0 -80 1t-85 1q-62 0 -95 -7.5t-55 -33.5t-28.5 -68t-6.5 -118zM407 828q0 -35 -15.5 -50.5
t-50.5 -15.5t-50.5 15.5t-15.5 50.5t15.5 50.5t50.5 15.5t50.5 -15.5t15.5 -50.5z" />
    <glyph glyph-name="cdotaccent" unicode="&#x10b;" horiz-adv-x="471" 
d="M287 432q-84 0 -109 -25.5t-25 -121.5v-53q0 -95 26 -121t108 -26q78 0 142 2l-18 -87q-70 -2 -124 -2q-134 0 -187.5 52t-53.5 182v53q0 130 53.5 182t187.5 52q92 0 140 -3l-18 -87q-55 3 -122 3zM337 670q0 -35 -15.5 -50.5t-50.5 -15.5t-50.5 15.5t-15.5 50.5
t15.5 50.5t50.5 15.5t50.5 -15.5t15.5 -50.5z" />
    <glyph glyph-name="Ccaron" unicode="&#x10c;" horiz-adv-x="565" 
d="M160 393v-73q0 -141 36.5 -184.5t151.5 -43.5q131 0 187 2l-19 -94q-48 -2 -168 -2q-170 0 -234 71.5t-64 250.5v73q0 182 65.5 251.5t231.5 69.5q129 0 182 -2l-19 -94q-20 0 -80 1t-85 1q-62 0 -95 -7.5t-55 -33.5t-28.5 -68t-6.5 -118zM165 891h106l69 -63l70 63h106
l-117 -118h-117z" />
    <glyph glyph-name="ccaron" unicode="&#x10d;" horiz-adv-x="471" 
d="M287 432q-84 0 -109 -25.5t-25 -121.5v-53q0 -95 26 -121t108 -26q78 0 142 2l-18 -87q-70 -2 -124 -2q-134 0 -187.5 52t-53.5 182v53q0 130 53.5 182t187.5 52q92 0 140 -3l-18 -87q-55 3 -122 3zM318 599h-110l-105 127h96l64 -72l64 72h96z" />
    <glyph glyph-name="Dcaron" unicode="&#x10e;" horiz-adv-x="687" 
d="M72 0v712h258q171 0 239 -76t68 -239v-81q0 -164 -67.5 -240t-239.5 -76h-258zM177 618v-524h153q113 0 155 45.5t42 183.5v67q0 95 -20 144.5t-60 66.5t-117 17h-153zM156 891h106l69 -63l70 63h106l-117 -118h-117z" />
    <glyph glyph-name="dcaron" unicode="&#x10f;" horiz-adv-x="655" 
d="M285 86h132v233q0 78 -26.5 103t-107.5 25q-83 0 -106.5 -29.5t-23.5 -129.5v-38q0 -105 23 -134.5t109 -29.5zM420 0h-141q-131 0 -182 56t-51 194v38q0 128 49 186.5t180 58.5q101 0 142 -38v248h105v-657q0 -47 -21.5 -66.5t-80.5 -19.5zM571 743h100l-30 -193h-77z
" />
    <glyph glyph-name="Dcroat" unicode="&#x110;" horiz-adv-x="706" 
d="M91 0v316h-66v85h66v311h258q171 0 239 -76t68 -239v-81q0 -164 -67.5 -240t-239.5 -76h-258zM359 316h-163v-222h153q113 0 155 45.5t42 183.5v67q0 95 -20 144.5t-60 66.5t-117 17h-153v-217h163v-85z" />
    <glyph glyph-name="dslash" unicode="&#x111;" horiz-adv-x="580" 
d="M575 592h-53v-506q0 -47 -21.5 -66.5t-80.5 -19.5h-141q-131 0 -182 56t-51 194v38q0 128 49 186.5t180 58.5q101 0 142 -38v97h-182v76h182v75h105v-75h53v-76zM285 86h132v233q0 78 -26.5 103t-107.5 25q-83 0 -106.5 -29.5t-23.5 -129.5v-38q0 -105 23 -134.5
t109 -29.5z" />
    <glyph glyph-name="Emacron" unicode="&#x112;" horiz-adv-x="603" 
d="M72 712h488l-19 -94h-364v-205h358l-19 -94h-339v-225h383l-19 -94h-469v712zM165 791v81h289v-81h-289z" />
    <glyph glyph-name="emacron" unicode="&#x113;" horiz-adv-x="543" 
d="M427 220h-276q0 -84 22.5 -109.5t101.5 -25.5q126 0 189 2l-18 -87q-55 -2 -171 -2q-69 0 -115 16t-70.5 48.5t-34 72.5t-9.5 97v56q0 125 48.5 185t185.5 60q123 0 171 -51.5t48 -138.5v-15q0 -68 -15.5 -88t-56.5 -20zM275 450q-79 0 -101.5 -28t-22.5 -121h249v34
q0 67 -25.5 91t-99.5 24zM134 619v81h289v-81h-289z" />
    <glyph glyph-name="Ebreve" unicode="&#x114;" horiz-adv-x="603" 
d="M72 712h488l-19 -94h-364v-205h358l-19 -94h-339v-225h383l-19 -94h-469v712zM325 768q-83 0 -120 32t-38 102h93q0 -33 14.5 -48t50.5 -15t50.5 15t14.5 48h93q-1 -70 -38 -102t-120 -32z" />
    <glyph glyph-name="ebreve" unicode="&#x115;" horiz-adv-x="543" 
d="M427 220h-276q0 -84 22.5 -109.5t101.5 -25.5q126 0 189 2l-18 -87q-55 -2 -171 -2q-69 0 -115 16t-70.5 48.5t-34 72.5t-9.5 97v56q0 125 48.5 185t185.5 60q123 0 171 -51.5t48 -138.5v-15q0 -68 -15.5 -88t-56.5 -20zM275 450q-79 0 -101.5 -28t-22.5 -121h249v34
q0 67 -25.5 91t-99.5 24zM276 594q-82 0 -118.5 31.5t-37.5 98.5h93q0 -29 14 -43.5t49 -14.5t49 14.5t14 43.5h93q-1 -67 -37.5 -98.5t-118.5 -31.5z" />
    <glyph glyph-name="Edotaccent" unicode="&#x116;" horiz-adv-x="603" 
d="M72 712h488l-19 -94h-364v-205h358l-19 -94h-339v-225h383l-19 -94h-469v712zM381 828q0 -35 -15.5 -50.5t-50.5 -15.5t-50.5 15.5t-15.5 50.5t15.5 50.5t50.5 15.5t50.5 -15.5t15.5 -50.5z" />
    <glyph glyph-name="edotaccent" unicode="&#x117;" horiz-adv-x="543" 
d="M427 220h-276q0 -84 22.5 -109.5t101.5 -25.5q126 0 189 2l-18 -87q-55 -2 -171 -2q-69 0 -115 16t-70.5 48.5t-34 72.5t-9.5 97v56q0 125 48.5 185t185.5 60q123 0 171 -51.5t48 -138.5v-15q0 -68 -15.5 -88t-56.5 -20zM275 450q-79 0 -101.5 -28t-22.5 -121h249v34
q0 67 -25.5 91t-99.5 24zM338 670q0 -35 -15.5 -50.5t-50.5 -15.5t-50.5 15.5t-15.5 50.5t15.5 50.5t50.5 15.5t50.5 -15.5t15.5 -50.5z" />
    <glyph glyph-name="Eogonek" unicode="&#x118;" horiz-adv-x="603" 
d="M540 -115l-17 -79h-58q-47 0 -69 15.5t-22 55.5q0 65 76 123h-378v712h488l-19 -94h-364v-205h358l-19 -94h-339v-225h383l-19 -94q-79 -61 -79 -95q0 -12 6.5 -16t26.5 -4h45z" />
    <glyph glyph-name="eogonek" unicode="&#x119;" horiz-adv-x="543" 
d="M445 -115l-17 -79h-58q-47 0 -69 15.5t-22 55.5q0 65 74 122q-27 -1 -78 -1q-69 0 -115 16t-70.5 48.5t-34 72.5t-9.5 97v56q0 125 48.5 185t185.5 60q123 0 171 -51.5t48 -138.5v-15q0 -68 -15.5 -88t-56.5 -20h-276q0 -84 22.5 -109.5t101.5 -25.5q31 0 189 2l-18 -87
q-79 -61 -79 -95q0 -12 6.5 -16t26.5 -4h45zM275 450q-79 0 -101.5 -28t-22.5 -121h249v34q0 67 -25.5 91t-99.5 24z" />
    <glyph glyph-name="Ecaron" unicode="&#x11a;" horiz-adv-x="603" 
d="M72 712h488l-19 -94h-364v-205h358l-19 -94h-339v-225h383l-19 -94h-469v712zM145 891h106l69 -63l70 63h106l-117 -118h-117z" />
    <glyph glyph-name="ecaron" unicode="&#x11b;" horiz-adv-x="543" 
d="M427 220h-276q0 -84 22.5 -109.5t101.5 -25.5q126 0 189 2l-18 -87q-55 -2 -171 -2q-69 0 -115 16t-70.5 48.5t-34 72.5t-9.5 97v56q0 125 48.5 185t185.5 60q123 0 171 -51.5t48 -138.5v-15q0 -68 -15.5 -88t-56.5 -20zM275 450q-79 0 -101.5 -28t-22.5 -121h249v34
q0 67 -25.5 91t-99.5 24zM332 599h-110l-105 127h96l64 -72l64 72h96z" />
    <glyph glyph-name="Gcircumflex" unicode="&#x11c;" horiz-adv-x="645" 
d="M372 373h218v-279q0 -49 -16.5 -71.5t-52.5 -22.5h-173q-88 0 -146.5 18.5t-91.5 59t-46.5 94.5t-13.5 134v101q0 78 13 131.5t46 95t94 61t154 19.5q168 0 213 -2l-17 -94q-75 2 -203 2q-119 0 -154.5 -39.5t-35.5 -177.5v-93q0 -73 8 -114.5t31 -64.5t55 -30t91 -7h140
v189h-132zM431 773l-70 63l-69 -63h-106l117 118h117l117 -118h-106z" />
    <glyph glyph-name="gcircumflex" unicode="&#x11d;" horiz-adv-x="579" 
d="M285 104q81 0 106.5 26t25.5 103v48q0 57 -3 84.5t-17 48.5t-39.5 27t-72.5 6t-72.5 -6t-39.5 -27t-17 -48.5t-3 -84.5v-11q0 -106 21.5 -136t110.5 -30zM417 50v9q-46 -41 -141 -41q-132 0 -181 60t-49 186v23q0 62 9.5 103.5t34.5 75.5t73 50.5t121 16.5t121 -16
t72.5 -49t34 -71.5t9.5 -94.5v-252q0 -122 -56 -174.5t-183 -52.5q-129 0 -183 2l20 87q45 -2 162 -2q77 0 106.5 29t29.5 111zM229 726h110l105 -127h-96l-64 72l-64 -72h-96z" />
    <glyph glyph-name="Gbreve" unicode="&#x11e;" horiz-adv-x="645" 
d="M372 373h218v-279q0 -49 -16.5 -71.5t-52.5 -22.5h-173q-88 0 -146.5 18.5t-91.5 59t-46.5 94.5t-13.5 134v101q0 78 13 131.5t46 95t94 61t154 19.5q168 0 213 -2l-17 -94q-75 2 -203 2q-119 0 -154.5 -39.5t-35.5 -177.5v-93q0 -73 8 -114.5t31 -64.5t55 -30t91 -7h140
v189h-132zM341 768q-83 0 -120 32t-38 102h93q0 -33 14.5 -48t50.5 -15t50.5 15t14.5 48h93q-1 -70 -38 -102t-120 -32z" />
    <glyph glyph-name="gbreve" unicode="&#x11f;" horiz-adv-x="579" 
d="M285 104q81 0 106.5 26t25.5 103v48q0 57 -3 84.5t-17 48.5t-39.5 27t-72.5 6t-72.5 -6t-39.5 -27t-17 -48.5t-3 -84.5v-11q0 -106 21.5 -136t110.5 -30zM417 50v9q-46 -41 -141 -41q-132 0 -181 60t-49 186v23q0 62 9.5 103.5t34.5 75.5t73 50.5t121 16.5t121 -16
t72.5 -49t34 -71.5t9.5 -94.5v-252q0 -122 -56 -174.5t-183 -52.5q-129 0 -183 2l20 87q45 -2 162 -2q77 0 106.5 29t29.5 111zM279 594q-82 0 -118.5 31.5t-37.5 98.5h93q0 -29 14 -43.5t49 -14.5t49 14.5t14 43.5h93q-1 -67 -37.5 -98.5t-118.5 -31.5z" />
    <glyph glyph-name="Gdotaccent" unicode="&#x120;" horiz-adv-x="645" 
d="M372 373h218v-279q0 -49 -16.5 -71.5t-52.5 -22.5h-173q-88 0 -146.5 18.5t-91.5 59t-46.5 94.5t-13.5 134v101q0 78 13 131.5t46 95t94 61t154 19.5q168 0 213 -2l-17 -94q-75 2 -203 2q-119 0 -154.5 -39.5t-35.5 -177.5v-93q0 -73 8 -114.5t31 -64.5t55 -30t91 -7h140
v189h-132zM426 828q0 -35 -15.5 -50.5t-50.5 -15.5t-50.5 15.5t-15.5 50.5t15.5 50.5t50.5 15.5t50.5 -15.5t15.5 -50.5z" />
    <glyph glyph-name="gdotaccent" unicode="&#x121;" horiz-adv-x="579" 
d="M285 104q81 0 106.5 26t25.5 103v48q0 57 -3 84.5t-17 48.5t-39.5 27t-72.5 6t-72.5 -6t-39.5 -27t-17 -48.5t-3 -84.5v-11q0 -106 21.5 -136t110.5 -30zM417 50v9q-46 -41 -141 -41q-132 0 -181 60t-49 186v23q0 62 9.5 103.5t34.5 75.5t73 50.5t121 16.5t121 -16
t72.5 -49t34 -71.5t9.5 -94.5v-252q0 -122 -56 -174.5t-183 -52.5q-129 0 -183 2l20 87q45 -2 162 -2q77 0 106.5 29t29.5 111zM350 670q0 -35 -15.5 -50.5t-50.5 -15.5t-50.5 15.5t-15.5 50.5t15.5 50.5t50.5 15.5t50.5 -15.5t15.5 -50.5z" />
    <glyph glyph-name="Gcommaaccent" unicode="&#x122;" horiz-adv-x="645" 
d="M372 373h218v-279q0 -49 -16.5 -71.5t-52.5 -22.5h-173q-88 0 -146.5 18.5t-91.5 59t-46.5 94.5t-13.5 134v101q0 78 13 131.5t46 95t94 61t154 19.5q168 0 213 -2l-17 -94q-75 2 -203 2q-119 0 -154.5 -39.5t-35.5 -177.5v-93q0 -73 8 -114.5t31 -64.5t55 -30t91 -7h140
v189h-132zM355 -235h-71l28 77q-28 10 -28 48q0 25 15.5 40t46.5 15q59 0 59 -53q0 -22 -16 -55z" />
    <glyph glyph-name="gcommaaccent" unicode="&#x123;" horiz-adv-x="579" 
d="M285 104q81 0 106.5 26t25.5 103v48q0 57 -3 84.5t-17 48.5t-39.5 27t-72.5 6t-72.5 -6t-39.5 -27t-17 -48.5t-3 -84.5v-11q0 -106 21.5 -136t110.5 -30zM417 50v9q-46 -41 -141 -41q-132 0 -181 60t-49 186v23q0 62 9.5 103.5t34.5 75.5t73 50.5t121 16.5t121 -16
t72.5 -49t34 -71.5t9.5 -94.5v-252q0 -122 -56 -174.5t-183 -52.5q-129 0 -183 2l20 87q45 -2 162 -2q77 0 106.5 29t29.5 111zM272 784h71l-28 -77q28 -10 28 -48q0 -25 -15.5 -40t-46.5 -15q-59 0 -59 53q0 22 16 55z" />
    <glyph glyph-name="Hcircumflex" unicode="&#x124;" horiz-adv-x="709" 
d="M532 712h105v-712h-105v317h-355v-317h-105v712h105v-301h355v301zM423 773l-70 63l-69 -63h-106l117 118h117l117 -118h-106z" />
    <glyph glyph-name="hcircumflex" unicode="&#x125;" horiz-adv-x="574" 
d="M163 0h-105v743h105v-256q40 46 149 46q204 0 204 -168v-365h-105v344q0 57 -20.5 79.5t-95.5 22.5q-79 0 -105.5 -28.5t-26.5 -104.5v-313zM285 772l-64 59l-63 -59h-99l107 113h111l107 -113h-99z" />
    <glyph glyph-name="Hbar" unicode="&#x126;" horiz-adv-x="751" 
d="M553 712h105v-102h68v-81h-68v-529h-105v317h-355v-317h-105v529h-68v81h68v102h105v-102h355v102zM198 411h355v118h-355v-118z" />
    <glyph glyph-name="hbar" unicode="&#x127;" horiz-adv-x="574" 
d="M163 0h-105v592h-53v76h53v75h105v-75h180v-76h-180v-105q40 46 149 46q204 0 204 -168v-365h-105v344q0 57 -20.5 79.5t-95.5 22.5q-79 0 -105.5 -28.5t-26.5 -104.5v-313z" />
    <glyph glyph-name="Itilde" unicode="&#x128;" horiz-adv-x="249" 
d="M72 712h105v-712h-105v712zM127 786l-17 6q-45 17 -60 17q-13 0 -18.5 -5.5t-5.5 -24.5v-16h-74v17q0 111 82 111q34 0 89 -21l17 -6q50 -17 60 -17q13 0 18.5 5.5t5.5 24.5v16h74v-17q0 -111 -82 -111q-34 0 -89 21z" />
    <glyph glyph-name="itilde" unicode="&#x129;" horiz-adv-x="221" 
d="M58 0v517h105v-517h-105zM113 617l-32 15q-19 11 -36 11q-12 0 -18 -6.5t-6 -26.5v-13h-74v15q0 62 22.5 85.5t65.5 23.5q34 0 75 -20l32 -15q19 -11 36 -11q12 0 18 6.5t6 26.5v13h74v-15q0 -62 -22.5 -85.5t-65.5 -23.5q-34 0 -75 20z" />
    <glyph glyph-name="Imacron" unicode="&#x12a;" horiz-adv-x="249" 
d="M72 712h105v-712h-105v712zM-19 791v81h289v-81h-289z" />
    <glyph glyph-name="imacron" unicode="&#x12b;" horiz-adv-x="221" 
d="M58 0v517h105v-517h-105zM-33 619v81h289v-81h-289z" />
    <glyph glyph-name="Ibreve" unicode="&#x12c;" horiz-adv-x="249" 
d="M72 712h105v-712h-105v712zM125 768q-83 0 -120 32t-38 102h93q0 -33 14.5 -48t50.5 -15t50.5 15t14.5 48h93q-1 -70 -38 -102t-120 -32z" />
    <glyph glyph-name="ibreve" unicode="&#x12d;" horiz-adv-x="221" 
d="M58 0v517h105v-517h-105zM111 594q-82 0 -118.5 31.5t-37.5 98.5h93q0 -29 14 -43.5t49 -14.5t49 14.5t14 43.5h93q-1 -67 -37.5 -98.5t-118.5 -31.5z" />
    <glyph glyph-name="Iogonek" unicode="&#x12e;" horiz-adv-x="249" 
d="M176 -115l-17 -79h-58q-47 0 -69 15.5t-22 55.5q0 65 76 123h-14v712h105v-712q-79 -61 -79 -95q0 -12 6.5 -16t26.5 -4h45z" />
    <glyph glyph-name="iogonek" unicode="&#x12f;" horiz-adv-x="221" 
d="M58 517h105v-517q-79 -61 -79 -95q0 -12 6.5 -16t26.5 -4h45l-17 -79h-58q-47 0 -69 15.5t-22 55.5q0 65 76 123h-14v517zM177 670q0 -35 -15.5 -50.5t-50.5 -15.5t-50.5 15.5t-15.5 50.5t15.5 50.5t50.5 15.5t50.5 -15.5t15.5 -50.5z" />
    <glyph glyph-name="Idot" unicode="&#x130;" horiz-adv-x="249" 
d="M72 712h105v-712h-105v712zM191 828q0 -35 -15.5 -50.5t-50.5 -15.5t-50.5 15.5t-15.5 50.5t15.5 50.5t50.5 15.5t50.5 -15.5t15.5 -50.5z" />
    <glyph glyph-name="dotlessi" unicode="&#x131;" horiz-adv-x="221" 
d="M58 0v517h105v-517h-105z" />
    <glyph glyph-name="IJ" unicode="&#x132;" horiz-adv-x="715" 
d="M72 712h105v-712h-105v712zM269 0l19 93q39 -1 126 -1q41 0 62.5 5t39 24t23.5 56.5t6 102.5v432h105v-453q0 -147 -50 -204t-186 -57q-99 0 -145 2z" />
    <glyph glyph-name="ij" unicode="&#x133;" horiz-adv-x="442" 
d="M58 0v517h105v-517h-105zM176 670q0 -35 -15.5 -50.5t-50.5 -15.5t-50.5 15.5t-15.5 50.5t15.5 50.5t50.5 15.5t50.5 -15.5t15.5 -50.5zM397 670q0 -35 -15.5 -50.5t-50.5 -15.5t-50.5 15.5t-15.5 50.5t15.5 50.5t50.5 15.5t50.5 -15.5t15.5 -50.5zM115 -175l18 83
q19 -1 63 -1q50 0 66.5 17.5t16.5 80.5v512h105v-512q0 -104 -41 -143t-144 -39q-62 0 -84 2z" />
    <glyph glyph-name="Jcircumflex" unicode="&#x134;" horiz-adv-x="466" 
d="M20 0l19 93q39 -1 126 -1q41 0 62.5 5t39 24t23.5 56.5t6 102.5v432h105v-453q0 -147 -50 -204t-186 -57q-99 0 -145 2zM407 773l-70 63l-69 -63h-106l117 118h117l117 -118h-106z" />
    <glyph glyph-name="jcircumflex" unicode="&#x135;" horiz-adv-x="221" 
d="M-106 -175l18 83q19 -1 63 -1q50 0 66.5 17.5t16.5 80.5v512h105v-512q0 -104 -41 -143t-144 -39q-62 0 -84 2zM56 726h110l105 -127h-96l-64 72l-64 -72h-96z" />
    <glyph glyph-name="Kcommaaccent" unicode="&#x136;" horiz-adv-x="639" 
d="M177 712v-312l302 312h125l-323 -337l358 -375h-145l-317 335v-335h-105v712h105zM322 -235h-71l28 77q-28 10 -28 48q0 25 15.5 40t46.5 15q59 0 59 -53q0 -22 -16 -55z" />
    <glyph glyph-name="kcommaaccent" unicode="&#x137;" horiz-adv-x="538" 
d="M163 743v-429l216 203h133l-251 -229l277 -288h-138l-237 249v-249h-105v743h105zM203 -110q0 25 16.5 40t44.5 15q30 0 45 -15t15 -39q0 -23 -15 -54l-35 -72h-71l28 78q-28 12 -28 47z" />
    <glyph glyph-name="kgreenlandic" unicode="&#x138;" horiz-adv-x="535" 
d="M163 517v-216l223 216h128l-251 -242l272 -275h-137l-235 236v-236h-105v517h105z" />
    <glyph glyph-name="Lacute" unicode="&#x139;" horiz-adv-x="558" 
d="M72 712h105v-618h361l-19 -94h-447v712zM205 892h132l-137 -119h-109z" />
    <glyph glyph-name="lacute" unicode="&#x13a;" horiz-adv-x="221" 
d="M58 0v743h105v-743h-105zM173 876h133l-154 -104h-106z" />
    <glyph glyph-name="Lcommaaccent" unicode="&#x13b;" horiz-adv-x="558" 
d="M72 712h105v-618h361l-19 -94h-447v712zM305 -235h-71l28 77q-28 10 -28 48q0 25 15.5 40t46.5 15q59 0 59 -53q0 -22 -16 -55z" />
    <glyph glyph-name="lcommaaccent" unicode="&#x13c;" horiz-adv-x="221" 
d="M58 0v743h105v-743h-105zM51 -110q0 25 16.5 40t44.5 15q30 0 45 -15t15 -39q0 -23 -15 -54l-35 -72h-71l28 78q-28 12 -28 47z" />
    <glyph glyph-name="Lcaron" unicode="&#x13d;" horiz-adv-x="558" 
d="M72 712h105v-618h361l-19 -94h-447v712zM272 763h100l-30 -193h-77z" />
    <glyph glyph-name="lcaron" unicode="&#x13e;" horiz-adv-x="296" 
d="M58 0v743h105v-743h-105zM212 743h100l-30 -193h-77z" />
    <glyph glyph-name="Ldot" unicode="&#x13f;" horiz-adv-x="558" 
d="M72 712h105v-618h361l-19 -94h-447v712zM447 402q0 -69 -69 -69t-69 69t69 69t69 -69z" />
    <glyph glyph-name="ldot" unicode="&#x140;" horiz-adv-x="368" 
d="M58 0v743h105v-743h-105zM366 380q0 -69 -69 -69t-69 69t69 69t69 -69z" />
    <glyph glyph-name="Lslash" unicode="&#x141;" horiz-adv-x="592" 
d="M106 712h105v-286l184 117v-94l-184 -117v-238h361l-19 -94h-447v265l-81 -51v94l81 51v353z" />
    <glyph glyph-name="lslash" unicode="&#x142;" horiz-adv-x="241" 
d="M67 0v302l-62 -54v100l62 54v341h105v-249l64 56v-100l-64 -56v-394h-105z" />
    <glyph glyph-name="Nacute" unicode="&#x143;" horiz-adv-x="709" 
d="M72 712h93l367 -537v537h105v-712h-95l-365 534v-534h-105v712zM389 892h132l-137 -119h-109z" />
    <glyph glyph-name="nacute" unicode="&#x144;" horiz-adv-x="574" 
d="M163 0h-105v365q0 89 55 128.5t174 39.5t174 -39.5t55 -128.5v-365h-105v344q0 29 -3 45t-15 30.5t-37.5 20.5t-68.5 6t-68.5 -6t-37.5 -20.5t-15 -30.5t-3 -45v-344zM213 599l103 126h117l-117 -126h-103z" />
    <glyph glyph-name="Ncommaaccent" unicode="&#x145;" horiz-adv-x="709" 
d="M72 712h93l367 -537v537h105v-712h-95l-365 534v-534h-105v712zM368 -235h-71l28 77q-28 10 -28 48q0 25 15.5 40t46.5 15q59 0 59 -53q0 -22 -16 -55z" />
    <glyph glyph-name="ncommaaccent" unicode="&#x146;" horiz-adv-x="574" 
d="M163 0h-105v365q0 89 55 128.5t174 39.5t174 -39.5t55 -128.5v-365h-105v344q0 29 -3 45t-15 30.5t-37.5 20.5t-68.5 6t-68.5 -6t-37.5 -20.5t-15 -30.5t-3 -45v-344zM227 -110q0 25 16.5 40t44.5 15q30 0 45 -15t15 -39q0 -23 -15 -54l-35 -72h-71l28 78q-28 12 -28 47z
" />
    <glyph glyph-name="Ncaron" unicode="&#x147;" horiz-adv-x="709" 
d="M72 712h93l367 -537v537h105v-712h-95l-365 534v-534h-105v712zM178 891h106l69 -63l70 63h106l-117 -118h-117z" />
    <glyph glyph-name="ncaron" unicode="&#x148;" horiz-adv-x="574" 
d="M163 0h-105v365q0 89 55 128.5t174 39.5t174 -39.5t55 -128.5v-365h-105v344q0 29 -3 45t-15 30.5t-37.5 20.5t-68.5 6t-68.5 -6t-37.5 -20.5t-15 -30.5t-3 -45v-344zM342 599h-110l-105 127h96l64 -72l64 72h96z" />
    <glyph glyph-name="napostrophe" unicode="&#x149;" horiz-adv-x="622" 
d="M211 0h-105v365q0 89 55 128.5t174 39.5t174 -39.5t55 -128.5v-365h-105v344q0 29 -3 45t-15 30.5t-37.5 20.5t-68.5 6t-68.5 -6t-37.5 -20.5t-15 -30.5t-3 -45v-344zM95 746q63 0 63 -62q0 -34 -21 -70l-64 -118h-72l55 136q-24 18 -24 50t13.5 48t49.5 16z" />
    <glyph glyph-name="Eng" unicode="&#x14a;" horiz-adv-x="709" 
d="M386 -176q-33 0 -63.5 0.5t-31.5 0.5l19 94q40 -1 88 -1q68 0 96 22t34 75v5l-351 513v-533h-105v712h93l367 -536v536h105v-627q0 -68 -10.5 -114t-38 -80.5t-77 -50.5t-125.5 -16z" />
    <glyph glyph-name="eng" unicode="&#x14b;" horiz-adv-x="574" 
d="M516 365v-385q0 -85 -47 -121t-140 -36q-63 0 -82 1l18 84q27 -1 58 -1q58 0 73 15.5t15 76.5v345q0 29 -3 45t-15 30.5t-37.5 20.5t-68.5 6t-68.5 -6t-37.5 -20.5t-15 -30.5t-3 -45v-344h-105v365q0 90 56 129t173 39t173 -39t56 -129z" />
    <glyph glyph-name="Omacron" unicode="&#x14c;" horiz-adv-x="710" 
d="M355 73q63 0 98 8t58.5 35.5t31 72.5t7.5 126v83q0 80 -7.5 125t-31 72.5t-58.5 36t-98 8.5t-98 -8t-58.5 -35.5t-31 -72.5t-7.5 -126v-83q0 -80 7.5 -125t31 -72.5t58.5 -36t98 -8.5zM355 -18q-93 0 -154 20t-93.5 64.5t-45 101.5t-12.5 143v91q0 66 7 113.5t26.5 90.5
t53 69t88 41t130.5 15q93 0 154 -20t93.5 -64.5t45 -101.5t12.5 -143v-91q0 -66 -7 -113.5t-26.5 -90.5t-53 -69t-88 -41t-130.5 -15zM211 791v81h289v-81h-289z" />
    <glyph glyph-name="omacron" unicode="&#x14d;" horiz-adv-x="574" 
d="M287 533q132 0 186.5 -53t54.5 -194v-55q0 -141 -54.5 -194t-186.5 -53t-186.5 53t-54.5 194v55q0 141 54.5 194t186.5 53zM421 231v55q0 104 -25 132.5t-109 28.5t-109 -28.5t-25 -132.5v-55q0 -104 25 -132.5t109 -28.5t109 28.5t25 132.5zM143 619v81h289v-81h-289z
" />
    <glyph glyph-name="Obreve" unicode="&#x14e;" horiz-adv-x="710" 
d="M355 73q63 0 98 8t58.5 35.5t31 72.5t7.5 126v83q0 80 -7.5 125t-31 72.5t-58.5 36t-98 8.5t-98 -8t-58.5 -35.5t-31 -72.5t-7.5 -126v-83q0 -80 7.5 -125t31 -72.5t58.5 -36t98 -8.5zM355 -18q-93 0 -154 20t-93.5 64.5t-45 101.5t-12.5 143v91q0 66 7 113.5t26.5 90.5
t53 69t88 41t130.5 15q93 0 154 -20t93.5 -64.5t45 -101.5t12.5 -143v-91q0 -66 -7 -113.5t-26.5 -90.5t-53 -69t-88 -41t-130.5 -15zM355 768q-83 0 -120 32t-38 102h93q0 -33 14.5 -48t50.5 -15t50.5 15t14.5 48h93q-1 -70 -38 -102t-120 -32z" />
    <glyph glyph-name="obreve" unicode="&#x14f;" horiz-adv-x="574" 
d="M287 533q132 0 186.5 -53t54.5 -194v-55q0 -141 -54.5 -194t-186.5 -53t-186.5 53t-54.5 194v55q0 141 54.5 194t186.5 53zM421 231v55q0 104 -25 132.5t-109 28.5t-109 -28.5t-25 -132.5v-55q0 -104 25 -132.5t109 -28.5t109 28.5t25 132.5zM287 594q-82 0 -118.5 31.5
t-37.5 98.5h93q0 -29 14 -43.5t49 -14.5t49 14.5t14 43.5h93q-1 -67 -37.5 -98.5t-118.5 -31.5z" />
    <glyph glyph-name="Ohungarumlaut" unicode="&#x150;" horiz-adv-x="710" 
d="M355 73q63 0 98 8t58.5 35.5t31 72.5t7.5 126v83q0 80 -7.5 125t-31 72.5t-58.5 36t-98 8.5t-98 -8t-58.5 -35.5t-31 -72.5t-7.5 -126v-83q0 -80 7.5 -125t31 -72.5t58.5 -36t98 -8.5zM355 -18q-93 0 -154 20t-93.5 64.5t-45 101.5t-12.5 143v91q0 66 7 113.5t26.5 90.5
t53 69t88 41t130.5 15q93 0 154 -20t93.5 -64.5t45 -101.5t12.5 -143v-91q0 -66 -7 -113.5t-26.5 -90.5t-53 -69t-88 -41t-130.5 -15zM292 892h132l-131 -119h-109zM478 892h132l-131 -119h-109z" />
    <glyph glyph-name="ohungarumlaut" unicode="&#x151;" horiz-adv-x="574" 
d="M287 533q132 0 186.5 -53t54.5 -194v-55q0 -141 -54.5 -194t-186.5 -53t-186.5 53t-54.5 194v55q0 141 54.5 194t186.5 53zM421 231v55q0 104 -25 132.5t-109 28.5t-109 -28.5t-25 -132.5v-55q0 -104 25 -132.5t109 -28.5t109 28.5t25 132.5zM144 599l83 126h106
l-97 -126h-92zM304 599l83 126h106l-97 -126h-92z" />
    <glyph glyph-name="OE" unicode="&#x152;" horiz-adv-x="985" 
d="M942 94l-19 -94h-575q-88 0 -147 20t-91.5 62t-46 97.5t-13.5 136.5v81q0 78 13.5 133t46 97.5t92 63.5t146.5 21h594l-19 -94h-364v-205h358l-19 -94h-339v-225h383zM345 91h109v529h-109q-57 0 -90.5 -8.5t-56 -34t-30.5 -68.5t-8 -116v-73q0 -140 37.5 -184.5
t147.5 -44.5z" />
    <glyph glyph-name="oe" unicode="&#x153;" horiz-adv-x="913" 
d="M287 70q38 0 61.5 5t39 14t22.5 30.5t9 46.5t2 70v45q0 45 -2 70t-9 46.5t-22.5 30.5t-39 14t-61.5 5q-84 0 -109 -28.5t-25 -132.5v-55q0 -104 25 -132.5t109 -28.5zM869 344v-16q0 -68 -15.5 -88t-56.5 -20h-276q0 -84 22.5 -109.5t101.5 -25.5q135 0 189 2l-18 -87
q-27 -2 -171 -2q-69 0 -105.5 12.5t-64.5 48.5q-26 -42 -70 -58.5t-118 -16.5q-132 0 -186.5 53t-54.5 194v55q0 141 54.5 194t186.5 53q137 0 186 -71q49 71 177 71q65 0 109.5 -15t67.5 -42.5t32.5 -59t9.5 -72.5zM645 451q-78 0 -101 -28.5t-23 -121.5h249v35
q0 67 -25.5 91t-99.5 24z" />
    <glyph glyph-name="Racute" unicode="&#x154;" horiz-adv-x="638" 
d="M177 278v-278h-105v712h268q127 0 186 -47.5t59 -153.5v-32q0 -81 -34.5 -127.5t-106.5 -63.5l174 -288h-122l-160 278h-159zM480 493v5q0 74 -28.5 97t-111.5 23h-163v-246h163q82 0 111 23.5t29 97.5zM340 892h132l-137 -119h-109z" />
    <glyph glyph-name="racute" unicode="&#x155;" horiz-adv-x="380" 
d="M163 0h-105v354q0 165 195 165q94 0 117 -1l-18 -87l-15 1h-36.5h-37.5q-64 0 -82 -22.5t-18 -78.5v-331zM145 599l103 126h117l-117 -126h-103z" />
    <glyph glyph-name="Rcommaaccent" unicode="&#x156;" horiz-adv-x="638" 
d="M177 278v-278h-105v712h268q127 0 186 -47.5t59 -153.5v-32q0 -81 -34.5 -127.5t-106.5 -63.5l174 -288h-122l-160 278h-159zM480 493v5q0 74 -28.5 97t-111.5 23h-163v-246h163q82 0 111 23.5t29 97.5zM338 -235h-71l28 77q-28 10 -28 48q0 25 15.5 40t46.5 15
q59 0 59 -53q0 -22 -16 -55z" />
    <glyph glyph-name="rcommaaccent" unicode="&#x157;" horiz-adv-x="380" 
d="M163 0h-105v354q0 165 195 165q94 0 117 -1l-18 -87l-15 1h-36.5h-37.5q-64 0 -82 -22.5t-18 -78.5v-331zM51 -110q0 25 16.5 40t44.5 15q30 0 45 -15t15 -39q0 -23 -15 -54l-35 -72h-71l28 78q-28 12 -28 47z" />
    <glyph glyph-name="Rcaron" unicode="&#x158;" horiz-adv-x="638" 
d="M177 278v-278h-105v712h268q127 0 186 -47.5t59 -153.5v-32q0 -81 -34.5 -127.5t-106.5 -63.5l174 -288h-122l-160 278h-159zM480 493v5q0 74 -28.5 97t-111.5 23h-163v-246h163q82 0 111 23.5t29 97.5zM132 891h106l69 -63l70 63h106l-117 -118h-117z" />
    <glyph glyph-name="rcaron" unicode="&#x159;" horiz-adv-x="380" 
d="M163 0h-105v354q0 165 195 165q94 0 117 -1l-18 -87l-15 1h-36.5h-37.5q-64 0 -82 -22.5t-18 -78.5v-331zM282 599h-110l-105 127h96l64 -72l64 72h96z" />
    <glyph glyph-name="Sacute" unicode="&#x15a;" horiz-adv-x="576" 
d="M238 420l139 -23q93 -16 130 -59.5t37 -130.5v-17q0 -100 -59.5 -146t-206.5 -46q-160 0 -243 2l18 94q71 -2 225 -2q98 0 129.5 20t31.5 81q0 54 -18.5 75.5t-82.5 33.5l-135 22q-96 16 -131 59t-35 125v19q0 91 60.5 139t199.5 48q151 0 225 -2l-18 -94q-63 2 -216 2
q-87 0 -116.5 -20t-29.5 -77q0 -50 18.5 -72t77.5 -31zM310 892h132l-137 -119h-109z" />
    <glyph glyph-name="sacute" unicode="&#x15b;" horiz-adv-x="519" 
d="M215 316l116 -11q142 -13 142 -143v-14q0 -150 -208 -150q-64 0 -224 2l18 87q144 -2 211 -2q58 0 79.5 13t21.5 51q0 28 -14.5 43.5t-57.5 18.5l-120 11q-69 6 -102.5 44t-33.5 91v17q0 145 201 145q159 0 217 -2l-18 -87q-75 2 -210 2q-51 0 -71 -12.5t-20 -44.5
q0 -28 14 -41.5t59 -17.5zM191 599l103 126h117l-117 -126h-103z" />
    <glyph glyph-name="Scircumflex" unicode="&#x15c;" horiz-adv-x="576" 
d="M238 420l139 -23q93 -16 130 -59.5t37 -130.5v-17q0 -100 -59.5 -146t-206.5 -46q-160 0 -243 2l18 94q71 -2 225 -2q98 0 129.5 20t31.5 81q0 54 -18.5 75.5t-82.5 33.5l-135 22q-96 16 -131 59t-35 125v19q0 91 60.5 139t199.5 48q151 0 225 -2l-18 -94q-63 2 -216 2
q-87 0 -116.5 -20t-29.5 -77q0 -50 18.5 -72t77.5 -31zM366 773l-70 63l-69 -63h-106l117 118h117l117 -118h-106z" />
    <glyph glyph-name="scircumflex" unicode="&#x15d;" horiz-adv-x="519" 
d="M215 316l116 -11q142 -13 142 -143v-14q0 -150 -208 -150q-64 0 -224 2l18 87q144 -2 211 -2q58 0 79.5 13t21.5 51q0 28 -14.5 43.5t-57.5 18.5l-120 11q-69 6 -102.5 44t-33.5 91v17q0 145 201 145q159 0 217 -2l-18 -87q-75 2 -210 2q-51 0 -71 -12.5t-20 -44.5
q0 -28 14 -41.5t59 -17.5zM206 726h110l105 -127h-96l-64 72l-64 -72h-96z" />
    <glyph glyph-name="Scedilla" unicode="&#x15e;" horiz-adv-x="576" 
d="M238 420l139 -23q93 -16 130 -59.5t37 -130.5v-17q0 -100 -59.5 -146t-206.5 -46q-160 0 -243 2l18 94q71 -2 225 -2q98 0 129.5 20t31.5 81q0 54 -18.5 75.5t-82.5 33.5l-135 22q-96 16 -131 59t-35 125v19q0 91 60.5 139t199.5 48q151 0 225 -2l-18 -94q-63 2 -216 2
q-87 0 -116.5 -20t-29.5 -77q0 -50 18.5 -72t77.5 -31zM253 -95q-35 0 -55 -1l17 61q13 1 66 1t74.5 -18t21.5 -59v-10q0 -45 -25.5 -63t-90.5 -18q-53 0 -94 3l20 62q38 -2 66 -2q17 0 23 4.5t6 18.5q0 13 -6 17t-23 4z" />
    <glyph glyph-name="scedilla" unicode="&#x15f;" horiz-adv-x="519" 
d="M215 316l116 -11q142 -13 142 -143v-14q0 -150 -208 -150q-64 0 -224 2l18 87q144 -2 211 -2q58 0 79.5 13t21.5 51q0 28 -14.5 43.5t-57.5 18.5l-120 11q-69 6 -102.5 44t-33.5 91v17q0 145 201 145q159 0 217 -2l-18 -87q-75 2 -210 2q-51 0 -71 -12.5t-20 -44.5
q0 -28 14 -41.5t59 -17.5zM253 -117q0 13 -6 18t-23 5q-28 0 -48 -1l17 60q13 1 52 1q52 0 74.5 -17t22.5 -59v-9q0 -46 -25.5 -64.5t-89.5 -18.5q-43 0 -82 3l20 61q38 -2 59 -2q17 0 23 5t6 18z" />
    <glyph glyph-name="Scaron" unicode="&#x160;" horiz-adv-x="576" 
d="M238 420l139 -23q93 -16 130 -59.5t37 -130.5v-17q0 -100 -59.5 -146t-206.5 -46q-160 0 -243 2l18 94q71 -2 225 -2q98 0 129.5 20t31.5 81q0 54 -18.5 75.5t-82.5 33.5l-135 22q-96 16 -131 59t-35 125v19q0 91 60.5 139t199.5 48q151 0 225 -2l-18 -94q-63 2 -216 2
q-87 0 -116.5 -20t-29.5 -77q0 -50 18.5 -72t77.5 -31zM115 891h106l69 -63l70 63h106l-117 -118h-117z" />
    <glyph glyph-name="scaron" unicode="&#x161;" horiz-adv-x="519" 
d="M215 316l116 -11q142 -13 142 -143v-14q0 -150 -208 -150q-64 0 -224 2l18 87q144 -2 211 -2q58 0 79.5 13t21.5 51q0 28 -14.5 43.5t-57.5 18.5l-120 11q-69 6 -102.5 44t-33.5 91v17q0 145 201 145q159 0 217 -2l-18 -87q-75 2 -210 2q-51 0 -71 -12.5t-20 -44.5
q0 -28 14 -41.5t59 -17.5zM318 599h-110l-105 127h96l64 -72l64 72h96z" />
    <glyph glyph-name="Tcommaaccent" unicode="&#x162;" horiz-adv-x="651" 
d="M39 712h592l-19 -94h-237v-618h-105v618h-250zM295 -95q-35 0 -55 -1l17 61q13 1 66 1t74.5 -18t21.5 -59v-10q0 -45 -25.5 -63t-90.5 -18q-53 0 -94 3l20 62q38 -2 66 -2q17 0 23 4.5t6 18.5q0 13 -6 17t-23 4z" />
    <glyph glyph-name="tcommaaccent" unicode="&#x163;" horiz-adv-x="373" 
d="M58 187v452l105 19v-141h190l-18 -87h-172v-240q0 -67 17 -86t76 -19h91l-18 -85h-72q-119 0 -159 39t-40 148zM204 -117q0 13 -6 18t-23 5q-28 0 -48 -1l17 60q13 1 52 1q52 0 74.5 -17t22.5 -59v-9q0 -46 -25.5 -64.5t-89.5 -18.5q-43 0 -82 3l20 61q38 -2 59 -2
q17 0 23 5t6 18z" />
    <glyph glyph-name="Tcaron" unicode="&#x164;" horiz-adv-x="651" 
d="M39 712h592l-19 -94h-237v-618h-105v618h-250zM150 891h106l69 -63l70 63h106l-117 -118h-117z" />
    <glyph glyph-name="tcaron" unicode="&#x165;" horiz-adv-x="373" 
d="M58 187v452l105 19v-141h190l-18 -87h-172v-240q0 -67 17 -86t76 -19h91l-18 -85h-72q-119 0 -159 39t-40 148zM226 743h96l-30 -181h-72z" />
    <glyph glyph-name="Tbar" unicode="&#x166;" horiz-adv-x="651" 
d="M39 712h592l-19 -94h-237v-233h157v-86h-157v-299h-105v299h-158v86h158v233h-250z" />
    <glyph glyph-name="tbar" unicode="&#x167;" horiz-adv-x="388" 
d="M10 236v81h48v322l105 19v-141h190l-18 -87h-172v-113h172v-81h-172v-46q0 -67 17 -86t76 -19h91l-18 -85h-72q-119 0 -159 39t-40 148v49h-48z" />
    <glyph glyph-name="Utilde" unicode="&#x168;" horiz-adv-x="680" 
d="M340 -18q-68 0 -116.5 13.5t-79 37t-48.5 63t-24.5 84.5t-6.5 107v425h105v-427q0 -127 33.5 -169.5t136.5 -42.5t136.5 42.5t33.5 169.5v427h105v-425q0 -62 -6.5 -107t-24.5 -84.5t-48.5 -63t-79 -37t-116.5 -13.5zM342 786l-17 6q-45 17 -60 17q-13 0 -18.5 -5.5
t-5.5 -24.5v-16h-74v17q0 111 82 111q34 0 89 -21l17 -6q50 -17 60 -17q13 0 18.5 5.5t5.5 24.5v16h74v-17q0 -111 -82 -111q-34 0 -89 21z" />
    <glyph glyph-name="utilde" unicode="&#x169;" horiz-adv-x="569" 
d="M285 -16q-116 0 -171.5 39t-55.5 129v365h105v-344q0 -29 3 -45t14.5 -30.5t37 -20.5t67.5 -6t67 6t36.5 20.5t14.5 30.5t3 45v344h105v-365q0 -90 -55.5 -129t-170.5 -39zM286 617l-32 15q-19 11 -36 11q-12 0 -18 -6.5t-6 -26.5v-13h-74v15q0 62 22.5 85.5t65.5 23.5
q34 0 75 -20l32 -15q19 -11 36 -11q12 0 18 6.5t6 26.5v13h74v-15q0 -62 -22.5 -85.5t-65.5 -23.5q-34 0 -75 20z" />
    <glyph glyph-name="Umacron" unicode="&#x16a;" horiz-adv-x="680" 
d="M340 -18q-68 0 -116.5 13.5t-79 37t-48.5 63t-24.5 84.5t-6.5 107v425h105v-427q0 -127 33.5 -169.5t136.5 -42.5t136.5 42.5t33.5 169.5v427h105v-425q0 -62 -6.5 -107t-24.5 -84.5t-48.5 -63t-79 -37t-116.5 -13.5zM196 791v81h289v-81h-289z" />
    <glyph glyph-name="umacron" unicode="&#x16b;" horiz-adv-x="569" 
d="M285 -16q-116 0 -171.5 39t-55.5 129v365h105v-344q0 -29 3 -45t14.5 -30.5t37 -20.5t67.5 -6t67 6t36.5 20.5t14.5 30.5t3 45v344h105v-365q0 -90 -55.5 -129t-170.5 -39zM140 619v81h289v-81h-289z" />
    <glyph glyph-name="Ubreve" unicode="&#x16c;" horiz-adv-x="680" 
d="M340 -18q-68 0 -116.5 13.5t-79 37t-48.5 63t-24.5 84.5t-6.5 107v425h105v-427q0 -127 33.5 -169.5t136.5 -42.5t136.5 42.5t33.5 169.5v427h105v-425q0 -62 -6.5 -107t-24.5 -84.5t-48.5 -63t-79 -37t-116.5 -13.5zM340 768q-83 0 -120 32t-38 102h93q0 -33 14.5 -48
t50.5 -15t50.5 15t14.5 48h93q-1 -70 -38 -102t-120 -32z" />
    <glyph glyph-name="ubreve" unicode="&#x16d;" horiz-adv-x="569" 
d="M285 -16q-116 0 -171.5 39t-55.5 129v365h105v-344q0 -29 3 -45t14.5 -30.5t37 -20.5t67.5 -6t67 6t36.5 20.5t14.5 30.5t3 45v344h105v-365q0 -90 -55.5 -129t-170.5 -39zM284 594q-82 0 -118.5 31.5t-37.5 98.5h93q0 -29 14 -43.5t49 -14.5t49 14.5t14 43.5h93
q-1 -67 -37.5 -98.5t-118.5 -31.5z" />
    <glyph glyph-name="Uring" unicode="&#x16e;" horiz-adv-x="680" 
d="M340 -18q-68 0 -116.5 13.5t-79 37t-48.5 63t-24.5 84.5t-6.5 107v425h105v-427q0 -127 33.5 -169.5t136.5 -42.5t136.5 42.5t33.5 169.5v427h105v-425q0 -62 -6.5 -107t-24.5 -84.5t-48.5 -63t-79 -37t-116.5 -13.5zM211 845q0 121 129 121t129 -121t-129 -121t-129 121
zM398 845q0 35 -12 46.5t-46 11.5t-46 -11.5t-12 -46.5t12 -46.5t46 -11.5t46 11.5t12 46.5z" />
    <glyph glyph-name="uring" unicode="&#x16f;" horiz-adv-x="569" 
d="M285 -16q-116 0 -171.5 39t-55.5 129v365h105v-344q0 -29 3 -45t14.5 -30.5t37 -20.5t67.5 -6t67 6t36.5 20.5t14.5 30.5t3 45v344h105v-365q0 -90 -55.5 -129t-170.5 -39zM155 689q0 121 129 121t129 -121t-129 -121t-129 121zM342 689q0 35 -12 46.5t-46 11.5
t-46 -11.5t-12 -46.5t12 -46.5t46 -11.5t46 11.5t12 46.5z" />
    <glyph glyph-name="Uhungarumlaut" unicode="&#x170;" horiz-adv-x="680" 
d="M340 -18q-68 0 -116.5 13.5t-79 37t-48.5 63t-24.5 84.5t-6.5 107v425h105v-427q0 -127 33.5 -169.5t136.5 -42.5t136.5 42.5t33.5 169.5v427h105v-425q0 -62 -6.5 -107t-24.5 -84.5t-48.5 -63t-79 -37t-116.5 -13.5zM275 892h132l-131 -119h-109zM461 892h132l-131 -119
h-109z" />
    <glyph glyph-name="uhungarumlaut" unicode="&#x171;" horiz-adv-x="569" 
d="M285 -16q-116 0 -171.5 39t-55.5 129v365h105v-344q0 -29 3 -45t14.5 -30.5t37 -20.5t67.5 -6t67 6t36.5 20.5t14.5 30.5t3 45v344h105v-365q0 -90 -55.5 -129t-170.5 -39zM144 599l83 126h106l-97 -126h-92zM304 599l83 126h106l-97 -126h-92z" />
    <glyph glyph-name="Uogonek" unicode="&#x172;" horiz-adv-x="680" 
d="M340 -18q-68 0 -116.5 13.5t-79 37t-48.5 63t-24.5 84.5t-6.5 107v425h105v-427q0 -127 33.5 -169.5t136.5 -42.5t136.5 42.5t33.5 169.5v427h105v-425q0 -110 -24.5 -176.5t-88.5 -98.5q-51 -41 -70.5 -64.5t-19.5 -41.5q0 -12 8.5 -16.5t31.5 -4.5h38l-17 -79h-51
q-50 0 -74 16t-24 55q0 54 57 107q-26 -2 -41 -2z" />
    <glyph glyph-name="uogonek" unicode="&#x173;" horiz-adv-x="569" 
d="M285 -16q-120 0 -173.5 39.5t-53.5 128.5v365h105v-344q0 -29 3 -45t14.5 -30.5t37 -20.5t67.5 -6t67 6t36.5 20.5t14.5 30.5t3 45v344h105v-365q0 -47 -14 -79t-50 -57q-100 -70 -100 -110q0 -12 8.5 -16.5t31.5 -4.5h46l-17 -79h-59q-50 0 -74 16t-24 55q0 55 60 109
q-22 -2 -34 -2z" />
    <glyph glyph-name="Wcircumflex" unicode="&#x174;" horiz-adv-x="895" 
d="M652 146l115 566h103l-158 -712h-117l-147 567l-151 -567h-117l-155 712h109l112 -566l154 566h100zM517 773l-70 63l-69 -63h-106l117 118h117l117 -118h-106z" />
    <glyph glyph-name="wcircumflex" unicode="&#x175;" horiz-adv-x="770" 
d="M486 0l-101 391l-104 -391h-108l-153 517h105l103 -407l109 407h102l104 -409l109 409h98l-156 -517h-108zM331 726h110l105 -127h-96l-64 72l-64 -72h-96z" />
    <glyph glyph-name="Ycircumflex" unicode="&#x176;" horiz-adv-x="652" 
d="M10 712h119l201 -322l198 322h114l-262 -413v-299h-105v299zM396 773l-70 63l-69 -63h-106l117 118h117l117 -118h-106z" />
    <glyph glyph-name="ycircumflex" unicode="&#x177;" horiz-adv-x="569" 
d="M88 -175l19 87q45 -2 163 -2q77 0 106.5 29t29.5 111v11q-16 -14 -28.5 -21.5t-44 -14.5t-76.5 -7q-100 0 -149.5 38t-49.5 127v334h105v-310q0 -58 18.5 -80t91.5 -22q83 0 108 23.5t25 89.5v299h105v-467q0 -122 -56 -174.5t-184 -52.5q-129 0 -183 2zM229 726h110
l105 -127h-96l-64 72l-64 -72h-96z" />
    <glyph glyph-name="Ydieresis" unicode="&#x178;" horiz-adv-x="652" 
d="M10 712h119l201 -322l198 322h114l-262 -413v-299h-105v299zM293 831q0 -32 -14 -46t-46 -14t-46 14t-14 46t14 46t46 14t46 -14t14 -46zM479 831q0 -32 -14 -46t-46 -14t-46 14t-14 46t14 46t46 14t46 -14t14 -46z" />
    <glyph glyph-name="Zacute" unicode="&#x179;" horiz-adv-x="615" 
d="M38 0v89l386 529h-375l19 94h479v-89l-385 -529h411l-19 -94h-516zM351 892h132l-137 -119h-109z" />
    <glyph glyph-name="zacute" unicode="&#x17a;" horiz-adv-x="507" 
d="M462 435l-300 -348h315l-18 -87h-423v82l301 348h-300l18 87h407v-82zM178 599l103 126h117l-117 -126h-103z" />
    <glyph glyph-name="Zdotaccent" unicode="&#x17b;" horiz-adv-x="615" 
d="M38 0v89l386 529h-375l19 94h479v-89l-385 -529h411l-19 -94h-516zM364 828q0 -35 -15.5 -50.5t-50.5 -15.5t-50.5 15.5t-15.5 50.5t15.5 50.5t50.5 15.5t50.5 -15.5t15.5 -50.5z" />
    <glyph glyph-name="zdotaccent" unicode="&#x17c;" horiz-adv-x="507" 
d="M462 435l-300 -348h315l-18 -87h-423v82l301 348h-300l18 87h407v-82zM323 670q0 -35 -15.5 -50.5t-50.5 -15.5t-50.5 15.5t-15.5 50.5t15.5 50.5t50.5 15.5t50.5 -15.5t15.5 -50.5z" />
    <glyph glyph-name="Zcaron" unicode="&#x17d;" horiz-adv-x="615" 
d="M38 0v89l386 529h-375l19 94h479v-89l-385 -529h411l-19 -94h-516zM139 891h106l69 -63l70 63h106l-117 -118h-117z" />
    <glyph glyph-name="zcaron" unicode="&#x17e;" horiz-adv-x="507" 
d="M462 435l-300 -348h315l-18 -87h-423v82l301 348h-300l18 87h407v-82zM310 599h-110l-105 127h96l64 -72l64 72h96z" />
    <glyph glyph-name="longs" unicode="&#x17f;" horiz-adv-x="221" 
d="M163 517v-517h-105v512q0 129 51 181t184 52q28 0 94 -2l-18 -87q-38 2 -72 2q-83 0 -108.5 -26t-25.5 -115z" />
    <glyph glyph-name="florin" unicode="&#x192;" horiz-adv-x="372" 
d="M58 4v508q0 129 50 181t179 52q65 0 115 -2l-18 -87q-46 2 -83 2q-87 0 -112.5 -26t-25.5 -115h196l-18 -87h-178v-426q0 -104 -41 -142.5t-144 -38.5q-62 0 -84 2l18 83q19 -1 63 -1q50 0 66.5 17t16.5 80z" />
    <glyph glyph-name="Scommaaccent" unicode="&#x218;" horiz-adv-x="576" 
d="M238 420l139 -23q93 -16 130 -59.5t37 -130.5v-17q0 -100 -59.5 -146t-206.5 -46q-160 0 -243 2l18 94q71 -2 225 -2q98 0 129.5 20t31.5 81q0 54 -18.5 75.5t-82.5 33.5l-135 22q-96 16 -131 59t-35 125v19q0 91 60.5 139t199.5 48q151 0 225 -2l-18 -94q-63 2 -216 2
q-87 0 -116.5 -20t-29.5 -77q0 -50 18.5 -72t77.5 -31zM308 -235h-71l28 77q-28 10 -28 48q0 25 15.5 40t46.5 15q59 0 59 -53q0 -22 -16 -55z" />
    <glyph glyph-name="scommaaccent" unicode="&#x219;" horiz-adv-x="519" 
d="M215 316l116 -11q142 -13 142 -143v-14q0 -150 -208 -150q-64 0 -224 2l18 87q144 -2 211 -2q58 0 79.5 13t21.5 51q0 28 -14.5 43.5t-57.5 18.5l-120 11q-69 6 -102.5 44t-33.5 91v17q0 145 201 145q159 0 217 -2l-18 -87q-75 2 -210 2q-51 0 -71 -12.5t-20 -44.5
q0 -28 14 -41.5t59 -17.5zM195 -110q0 25 16.5 40t44.5 15q30 0 45 -15t15 -39q0 -23 -15 -54l-35 -72h-71l28 78q-28 12 -28 47z" />
    <glyph glyph-name="uni021A" unicode="&#x21a;" horiz-adv-x="651" 
d="M39 712h592l-19 -94h-237v-618h-105v618h-250zM337 -235h-71l28 77q-28 10 -28 48q0 25 15.5 40t46.5 15q59 0 59 -53q0 -22 -16 -55z" />
    <glyph glyph-name="uni021B" unicode="&#x21b;" horiz-adv-x="373" 
d="M58 187v452l105 19v-141h190l-18 -87h-172v-240q0 -67 17 -86t76 -19h91l-18 -85h-72q-119 0 -159 39t-40 148zM148 -110q0 25 16.5 40t44.5 15q30 0 45 -15t15 -39q0 -23 -15 -54l-35 -72h-71l28 78q-28 12 -28 47z" />
    <glyph glyph-name="uni0237" unicode="&#x237;" horiz-adv-x="221" 
d="M-106 -175l18 83q19 -1 63 -1q50 0 66.5 17.5t16.5 80.5v512h105v-512q0 -104 -41 -143t-144 -39q-62 0 -84 2z" />
    <glyph glyph-name="afii57929" unicode="&#x2bc;" horiz-adv-x="242" 
d="M136 746q63 0 63 -62q0 -34 -21 -70l-64 -118h-72l55 136q-24 18 -24 50t13.5 48t49.5 16z" />
    <glyph glyph-name="circumflex" unicode="&#x2c6;" horiz-adv-x="500" 
d="M195 726h110l105 -127h-96l-64 72l-64 -72h-96z" />
    <glyph glyph-name="caron" unicode="&#x2c7;" horiz-adv-x="500" 
d="M305 599h-110l-105 127h96l64 -72l64 72h96z" />
    <glyph glyph-name="uni02C9" unicode="&#x2c9;" horiz-adv-x="500" 
d="M105 619v81h289v-81h-289z" />
    <glyph glyph-name="breve" unicode="&#x2d8;" horiz-adv-x="500" 
d="M250 594q-82 0 -118.5 31.5t-37.5 98.5h93q0 -29 14 -43.5t49 -14.5t49 14.5t14 43.5h93q-1 -67 -37.5 -98.5t-118.5 -31.5z" />
    <glyph glyph-name="dotaccent" unicode="&#x2d9;" horiz-adv-x="500" 
d="M316 670q0 -35 -15.5 -50.5t-50.5 -15.5t-50.5 15.5t-15.5 50.5t15.5 50.5t50.5 15.5t50.5 -15.5t15.5 -50.5z" />
    <glyph glyph-name="ring" unicode="&#x2da;" horiz-adv-x="500" 
d="M121 689q0 121 129 121t129 -121t-129 -121t-129 121zM308 689q0 35 -12 46.5t-46 11.5t-46 -11.5t-12 -46.5t12 -46.5t46 -11.5t46 11.5t12 46.5z" />
    <glyph glyph-name="ogonek" unicode="&#x2db;" horiz-adv-x="500" 
d="M329 -115l-17 -79h-58q-47 0 -69 15.5t-22 55.5q0 32 24.5 68.5t70.5 67.5l72 -13q-79 -61 -79 -95q0 -12 6.5 -16t26.5 -4h45z" />
    <glyph glyph-name="tilde" unicode="&#x2dc;" horiz-adv-x="500" 
d="M252 617l-32 15q-19 11 -36 11q-12 0 -18 -6.5t-6 -26.5v-13h-74v15q0 62 22.5 85.5t65.5 23.5q34 0 75 -20l32 -15q19 -11 36 -11q12 0 18 6.5t6 26.5v13h74v-15q0 -62 -22.5 -85.5t-65.5 -23.5q-34 0 -75 20z" />
    <glyph glyph-name="hungarumlaut" unicode="&#x2dd;" horiz-adv-x="500" 
d="M76 599l83 126h106l-97 -126h-92zM236 599l83 126h106l-97 -126h-92z" />
    <glyph glyph-name="increment" unicode="&#x394;" horiz-adv-x="670" 
d="M655 0h-640l262 712h116zM332 614l-178 -522h357z" />
    <glyph glyph-name="Omega" unicode="&#x3a9;" horiz-adv-x="716" 
d="M49 366v39q0 177 72 251.5t233 74.5t233 -74.5t72 -251.5v-39q0 -187 -106 -279h123l-18 -87h-240v76q45 33 69.5 60.5t43 86t18.5 146.5v36q0 141 -39.5 188t-155.5 47t-155.5 -47t-39.5 -188v-36q0 -88 18.5 -146.5t43 -86t69.5 -60.5v-76h-250l18 87h96
q-105 91 -105 279z" />
    <glyph glyph-name="mu" unicode="&#x3bc;" horiz-adv-x="574" 
d="M414 0h-113q-103 0 -139 36v-211h-104v692h105v-302q0 -76 28 -103t110 -27h110v432h105v-431q0 -47 -21.5 -66.5t-80.5 -19.5z" />
    <glyph glyph-name="pi" unicode="&#x3c0;" horiz-adv-x="616" 
d="M99 430h-79l18 87h558l-18 -87h-61v-430h-105v430h-208v-430h-105v430z" />
    <glyph glyph-name="Wgrave" unicode="&#x1e80;" horiz-adv-x="895" 
d="M652 146l115 566h103l-158 -712h-117l-147 567l-151 -567h-117l-155 712h109l112 -566l154 566h100zM283 892h132l114 -119h-109z" />
    <glyph glyph-name="wgrave" unicode="&#x1e81;" horiz-adv-x="770" 
d="M486 0l-101 391l-104 -391h-108l-153 517h105l103 -407l109 407h102l104 -409l109 409h98l-156 -517h-108zM348 725l103 -126h-103l-117 126h117z" />
    <glyph glyph-name="Wacute" unicode="&#x1e82;" horiz-adv-x="895" 
d="M652 146l115 566h103l-158 -712h-117l-147 567l-151 -567h-117l-155 712h109l112 -566l154 566h100zM485 892h132l-137 -119h-109z" />
    <glyph glyph-name="wacute" unicode="&#x1e83;" horiz-adv-x="770" 
d="M486 0l-101 391l-104 -391h-108l-153 517h105l103 -407l109 407h102l104 -409l109 409h98l-156 -517h-108zM306 599l103 126h117l-117 -126h-103z" />
    <glyph glyph-name="Wdieresis" unicode="&#x1e84;" horiz-adv-x="895" 
d="M652 146l115 566h103l-158 -712h-117l-147 567l-151 -567h-117l-155 712h109l112 -566l154 566h100zM414 831q0 -32 -14 -46t-46 -14t-46 14t-14 46t14 46t46 14t46 -14t14 -46zM600 831q0 -32 -14 -46t-46 -14t-46 14t-14 46t14 46t46 14t46 -14t14 -46z" />
    <glyph glyph-name="wdieresis" unicode="&#x1e85;" horiz-adv-x="770" 
d="M486 0l-101 391l-104 -391h-108l-153 517h105l103 -407l109 407h102l104 -409l109 409h98l-156 -517h-108zM357 663q0 -31 -13.5 -45t-45.5 -14t-45.5 14t-13.5 45t13.5 45t45.5 14t45.5 -14t13.5 -45zM529 663q0 -31 -13.5 -45t-45.5 -14t-45.5 14t-13.5 45t13.5 45
t45.5 14t45.5 -14t13.5 -45z" />
    <glyph glyph-name="Ygrave" unicode="&#x1ef2;" horiz-adv-x="652" 
d="M10 712h119l201 -322l198 322h114l-262 -413v-299h-105v299zM178 892h132l114 -119h-109z" />
    <glyph glyph-name="ygrave" unicode="&#x1ef3;" horiz-adv-x="569" 
d="M88 -175l19 87q45 -2 163 -2q77 0 106.5 29t29.5 111v11q-16 -14 -28.5 -21.5t-44 -14.5t-76.5 -7q-100 0 -149.5 38t-49.5 127v334h105v-310q0 -58 18.5 -80t91.5 -22q83 0 108 23.5t25 89.5v299h105v-467q0 -122 -56 -174.5t-184 -52.5q-129 0 -183 2zM267 725
l103 -126h-103l-117 126h117z" />
    <glyph glyph-name="endash" unicode="&#x2013;" horiz-adv-x="500" 
d="M0 232v93h500v-93h-500z" />
    <glyph glyph-name="emdash" unicode="&#x2014;" horiz-adv-x="1000" 
d="M0 232v93h1000v-93h-1000z" />
    <glyph glyph-name="quoteleft" unicode="&#x2018;" horiz-adv-x="242" 
d="M83 635l58 108h65l-59 -151q33 -18 33 -55q0 -66 -66 -66t-66 64q0 34 35 100z" />
    <glyph glyph-name="quoteright" unicode="&#x2019;" horiz-adv-x="242" 
d="M159 579l-58 -108h-65l59 151q-33 14 -33 55q0 66 66 66t66 -64q0 -34 -35 -100z" />
    <glyph glyph-name="quotesinglbase" unicode="&#x201a;" horiz-adv-x="203" 
d="M139 -50l-58 -108h-65l59 151q-33 14 -33 55q0 66 66 66t66 -64q0 -34 -35 -100z" />
    <glyph glyph-name="quotedblleft" unicode="&#x201c;" horiz-adv-x="452" 
d="M83 635l58 108h65l-59 -151q33 -18 33 -55q0 -66 -66 -66t-66 64q0 34 35 100zM293 635l58 108h65l-59 -151q33 -18 33 -55q0 -66 -66 -66t-66 64q0 34 35 100z" />
    <glyph glyph-name="quotedblright" unicode="&#x201d;" horiz-adv-x="452" 
d="M159 579l-58 -108h-65l59 151q-33 14 -33 55q0 66 66 66t66 -64q0 -34 -35 -100zM369 579l-58 -108h-65l59 151q-33 14 -33 55q0 66 66 66t66 -64q0 -34 -35 -100z" />
    <glyph glyph-name="quotedblbase" unicode="&#x201e;" horiz-adv-x="413" 
d="M140 -49l-58 -108h-65l59 151q-33 14 -33 55q0 66 66 66t66 -64q0 -34 -35 -100zM349 -49l-58 -108h-65l59 151q-33 14 -33 55q0 66 66 66t66 -64q0 -34 -35 -100z" />
    <glyph glyph-name="dagger" unicode="&#x2020;" horiz-adv-x="495" 
d="M199 390h-179l18 87h161v235h97v-235h179l-18 -87h-161v-565h-97v565z" />
    <glyph glyph-name="daggerdbl" unicode="&#x2021;" horiz-adv-x="495" 
d="M199 52h-179l18 87h161v261h-179l18 87h161v225h97v-225h179l-18 -87h-161v-261h179l-18 -87h-161v-227h-97v227z" />
    <glyph glyph-name="bullet" unicode="&#x2022;" horiz-adv-x="420" 
d="M335 280q0 -64 -29 -94.5t-96 -30.5t-96 30.5t-29 94.5t29 94.5t96 30.5t96 -30.5t29 -94.5z" />
    <glyph glyph-name="ellipsis" unicode="&#x2026;" horiz-adv-x="1000" 
d="M236 62q0 -69 -69 -69t-69 69t69 69t69 -69zM570 62q0 -69 -69 -69t-69 69t69 69t69 -69zM902 62q0 -69 -69 -69t-69 69t69 69t69 -69z" />
    <glyph glyph-name="perthousand" unicode="&#x2030;" horiz-adv-x="1339" 
d="M211 0l420 680h94l-420 -680h-94zM730 65q54 0 68 24t14 100v14q0 76 -14 100t-68 24t-68 -24t-14 -100v-14q0 -76 14 -100t68 -24zM730 -9q-103 0 -137 45.5t-34 141.5v36q0 96 34 141.5t137 45.5t137 -45.5t34 -141.5v-36q0 -96 -34 -141.5t-137 -45.5zM1139 65
q54 0 68 24t14 100v14q0 76 -14 100t-68 24t-68 -24t-14 -100v-14q0 -76 14 -100t68 -24zM1139 -9q-103 0 -137 45.5t-34 141.5v36q0 96 34 141.5t137 45.5t137 -45.5t34 -141.5v-36q0 -96 -34 -141.5t-137 -45.5zM200 353q54 0 68 24t14 100v14q0 76 -14 100t-68 24
t-68 -24t-14 -100v-14q0 -76 14 -100t68 -24zM200 279q-103 0 -137 45.5t-34 141.5v36q0 96 34 141.5t137 45.5t137 -45.5t34 -141.5v-36q0 -96 -34 -141.5t-137 -45.5z" />
    <glyph glyph-name="guilsinglleft" unicode="&#x2039;" horiz-adv-x="313" 
d="M40 205v109l233 170v-112l-156 -113l156 -112v-112z" />
    <glyph glyph-name="guilsinglright" unicode="&#x203a;" horiz-adv-x="313" 
d="M273 314v-109l-233 -170v112l156 112l-156 113v112z" />
    <glyph glyph-name="fraction" unicode="&#x2044;" horiz-adv-x="124" 
d="M-195 0l420 680h94l-420 -680h-94z" />
    <glyph glyph-name="uni2070" unicode="&#x2070;" 
d="M189 353q54 0 68 24t14 100v14q0 76 -14 100t-68 24t-68 -24t-14 -100v-14q0 -76 14 -100t68 -24zM189 279q-103 0 -137 45.5t-34 141.5v36q0 96 34 141.5t137 45.5t137 -45.5t34 -141.5v-36q0 -96 -34 -141.5t-137 -45.5z" />
    <glyph glyph-name="uni2074" unicode="&#x2074;" 
d="M265 680l-142 -248h104v102l84 12v-114h50l-14 -67h-36v-77h-84v77h-191v66l139 249h90z" />
    <glyph glyph-name="uni2075" unicode="&#x2075;" 
d="M190 459h-137v221h263l-14 -73h-169v-77h65q77 0 106 -25t29 -88v-20q0 -58 -36.5 -84t-117.5 -26q-25 0 -74.5 1t-61.5 1l14 72q56 -2 132 -2q35 0 46.5 9t11.5 36v10q0 27 -11 36t-46 9z" />
    <glyph glyph-name="uni2076" unicode="&#x2076;" 
d="M314 680l-13 -73q-20 1 -85 1q-55 0 -75.5 -16.5t-20.5 -60.5v-11q32 25 89 25q69 0 103.5 -30t34.5 -94v-14q0 -128 -154 -128q-79 0 -117 34t-38 115v89q0 86 42 125t136 39q71 0 98 -1zM192 478q-40 0 -56 -13t-16 -49v-5q0 -36 15.5 -49t55.5 -13q42 0 57.5 13
t15.5 49v5q0 36 -15.5 49t-56.5 13z" />
    <glyph glyph-name="uni2077" unicode="&#x2077;" 
d="M184 288h-92l146 318h-197l14 74h271v-69z" />
    <glyph glyph-name="uni2078" unicode="&#x2078;" 
d="M189 279q-157 0 -157 114v6q0 71 66 94q-55 17 -55 84v7q0 105 146 105t146 -105v-7q0 -66 -56 -84q67 -24 67 -94v-6q0 -114 -157 -114zM189 342q39 0 55.5 12.5t16.5 43.5v6q0 31 -16.5 43.5t-55.5 12.5t-55.5 -12.5t-16.5 -43.5v-6q0 -31 16.5 -43.5t55.5 -12.5z
M189 524q38 0 51 10.5t13 39.5v5q0 29 -13 39.5t-51 10.5t-51 -10.5t-13 -39.5v-5q0 -29 13 -39.5t51 -10.5z" />
    <glyph glyph-name="uni2079" unicode="&#x2079;" 
d="M63 289l13 73q30 -2 85 -2t75.5 16.5t20.5 60.5v11q-32 -25 -89 -25q-138 0 -138 124v14q0 128 154 128q79 0 117 -34t38 -115v-89q0 -86 -42 -125t-136 -39q-44 0 -98 2zM185 490q40 0 56 13t16 49v5q0 36 -15.5 49t-55.5 13q-42 0 -57.5 -13t-15.5 -49v-5
q0 -36 15.5 -49t56.5 -13z" />
    <glyph glyph-name="uni2080" unicode="&#x2080;" 
d="M189 65q54 0 68 24t14 100v14q0 76 -14 100t-68 24t-68 -24t-14 -100v-14q0 -76 14 -100t68 -24zM189 -9q-103 0 -137 45.5t-34 141.5v36q0 96 34 141.5t137 45.5t137 -45.5t34 -141.5v-36q0 -96 -34 -141.5t-137 -45.5z" />
    <glyph glyph-name="uni2081" unicode="&#x2081;" 
d="M250 74h93l-12 -74h-262l12 74h82v248h-93l14 70h166v-318z" />
    <glyph glyph-name="uni2082" unicode="&#x2082;" 
d="M244 173l-58 -17q-34 -10 -42.5 -22.5t-8.5 -50.5v-9h198l-12 -74h-273v71q0 67 23.5 101t83.5 51l44 13q31 9 39.5 17.5t8.5 28.5q0 23 -11 31t-44 8q-80 0 -134 -2l11 72q62 2 117 2q79 0 113 -25t34 -78v-12q0 -43 -18.5 -66.5t-70.5 -38.5z" />
    <glyph glyph-name="uni2083" unicode="&#x2083;" 
d="M324 291v-5q0 -64 -55 -80q65 -19 65 -87v-9q0 -111 -155 -111q-60 0 -134 2l11 73q66 -2 135 -2q32 0 43.5 8t11.5 34v5q0 26 -12 35t-43 9h-112l11 72h87q37 0 49.5 8.5t12.5 33.5v5q0 22 -12 29.5t-50 7.5q-58 0 -120 -2l11 74q86 2 117 2q74 0 106.5 -25t32.5 -77z
" />
    <glyph glyph-name="uni2084" unicode="&#x2084;" 
d="M265 392l-142 -248h104v102l84 12v-114h50l-14 -67h-36v-77h-84v77h-191v66l139 249h90z" />
    <glyph glyph-name="uni2085" unicode="&#x2085;" 
d="M190 171h-137v221h263l-14 -73h-169v-77h65q77 0 106 -25t29 -88v-20q0 -58 -36.5 -84t-117.5 -26q-25 0 -74.5 1t-61.5 1l14 72q56 -2 132 -2q35 0 46.5 9t11.5 36v10q0 27 -11 36t-46 9z" />
    <glyph glyph-name="uni2086" unicode="&#x2086;" 
d="M314 392l-13 -73q-20 1 -85 1q-55 0 -75.5 -16.5t-20.5 -60.5v-11q32 25 89 25q69 0 103.5 -30t34.5 -94v-14q0 -128 -154 -128q-79 0 -117 34t-38 115v89q0 86 42 125t136 39q71 0 98 -1zM192 190q-40 0 -56 -13t-16 -49v-5q0 -36 15.5 -49t55.5 -13q42 0 57.5 13
t15.5 49v5q0 36 -15.5 49t-56.5 13z" />
    <glyph glyph-name="uni2087" unicode="&#x2087;" 
d="M184 0h-92l146 318h-197l14 74h271v-69z" />
    <glyph glyph-name="uni2088" unicode="&#x2088;" 
d="M189 -9q-157 0 -157 114v6q0 71 66 94q-55 17 -55 84v7q0 105 146 105t146 -105v-7q0 -66 -56 -84q67 -24 67 -94v-6q0 -114 -157 -114zM189 54q39 0 55.5 12.5t16.5 43.5v6q0 31 -16.5 43.5t-55.5 12.5t-55.5 -12.5t-16.5 -43.5v-6q0 -31 16.5 -43.5t55.5 -12.5z
M189 236q38 0 51 10.5t13 39.5v5q0 29 -13 39.5t-51 10.5t-51 -10.5t-13 -39.5v-5q0 -29 13 -39.5t51 -10.5z" />
    <glyph glyph-name="uni2089" unicode="&#x2089;" 
d="M63 1l13 73q30 -2 85 -2t75.5 16.5t20.5 60.5v11q-32 -25 -89 -25q-138 0 -138 124v14q0 128 154 128q79 0 117 -34t38 -115v-89q0 -86 -42 -125t-136 -39q-44 0 -98 2zM185 202q40 0 56 13t16 49v5q0 36 -15.5 49t-55.5 13q-42 0 -57.5 -13t-15.5 -49v-5q0 -36 15.5 -49
t56.5 -13z" />
    <glyph glyph-name="Euro" unicode="&#x20ac;" horiz-adv-x="595" 
d="M470 387h-254v-93h269l-15 -79h-245q8 -72 47.5 -99.5t129.5 -27.5q49 0 143 2l-19 -90q-39 -2 -127 -2q-143 0 -205 52.5t-75 164.5h-78l15 79h61v93h-76l15 79h63q15 109 76.5 162.5t196.5 53.5q72 0 142 -2l-19 -90q-70 2 -123 2q-88 0 -122.5 -25.5t-44.5 -100.5h260
z" />
    <glyph glyph-name="uni20B9" unicode="&#x20b9;" horiz-adv-x="595" 
d="M52 419v86h275q-4 55 -33.5 73t-110.5 18h-131v84h476l-16 -85h-114q28 -33 33 -90h97l-16 -86h-81q-9 -87 -63 -126t-164 -39h-7l285 -254h-139l-291 263v72h134q80 0 108.5 16.5t32.5 67.5h-275z" />
    <glyph glyph-name="uni20BA" unicode="&#x20ba;" horiz-adv-x="595" 
d="M437 218v19l95 20v-35q0 -121 -59.5 -171.5t-202.5 -50.5h-153v201l-65 -28v84l65 28v96l-65 -28v84l65 28v215h99v-171l182 80v-84l-182 -80v-96l182 80v-84l-182 -80v-155h54q97 0 132 26.5t35 101.5z" />
    <glyph glyph-name="afii61289" unicode="&#x2113;" horiz-adv-x="404" 
d="M94 165v13l-51 -48l-43 62l93 82v247q0 203 145 203q64 0 99 -38t35 -112q0 -86 -47.5 -160.5t-145.5 -165.5v-57q0 -71 17 -99t65 -28q42 0 92 26l26 -63q-64 -43 -139 -43t-110.5 49t-35.5 132zM179 543v-194q62 63 85 112t23 104q0 41 -12 60t-40 19q-29 0 -42.5 -23
t-13.5 -78z" />
    <glyph glyph-name="trademark" unicode="&#x2122;" horiz-adv-x="833" 
d="M397 712h86l112 -186l107 186h86v-372h-80v249l-89 -147h-55l-89 147v-249h-78v372zM22 712h330l-14 -69h-117v-303h-83v303h-130z" />
    <glyph glyph-name="uni2126" unicode="&#x2126;" horiz-adv-x="716" 
d="M49 366v39q0 177 72 251.5t233 74.5t233 -74.5t72 -251.5v-39q0 -187 -106 -279h123l-18 -87h-240v76q45 33 69.5 60.5t43 86t18.5 146.5v36q0 141 -39.5 188t-155.5 47t-155.5 -47t-39.5 -188v-36q0 -88 18.5 -146.5t43 -86t69.5 -60.5v-76h-250l18 87h96
q-105 91 -105 279z" />
    <glyph glyph-name="estimated" unicode="&#x212e;" horiz-adv-x="785" 
d="M389 656q-143 0 -212 -69v-211h431v211q-82 69 -219 69zM669 164l22 -15q-56 -87 -126 -123t-172 -36q-161 0 -255 99.5t-94 250.5t92.5 248t252.5 97q162 0 256 -94.5t96 -250.5h-564v-245q78 -78 217 -78q95 0 160.5 34t114.5 113z" />
    <glyph glyph-name="uni2150" unicode="&#x2150;" horiz-adv-x="880" 
d="M185 0l420 680h94l-420 -680h-94zM686 0h-92l146 318h-197l14 74h271v-69zM250 362h93l-12 -74h-262l12 74h82v248h-93l14 70h166v-318z" />
    <glyph glyph-name="uni2151" unicode="&#x2151;" horiz-adv-x="880" 
d="M193 0l420 680h94l-420 -680h-94zM565 1l13 73q30 -2 85 -2t75.5 16.5t20.5 60.5v11q-32 -25 -89 -25q-138 0 -138 124v14q0 128 154 128q79 0 117 -34t38 -115v-89q0 -86 -42 -125t-136 -39q-44 0 -98 2zM687 202q40 0 56 13t16 49v5q0 36 -15.5 49t-55.5 13
q-42 0 -57.5 -13t-15.5 -49v-5q0 -36 15.5 -49t56.5 -13zM250 362h93l-12 -74h-262l12 74h82v248h-93l14 70h166v-318z" />
    <glyph glyph-name="onethird" unicode="&#x2153;" horiz-adv-x="880" 
d="M183 0l420 680h94l-420 -680h-94zM826 291v-5q0 -64 -55 -80q65 -19 65 -87v-9q0 -111 -155 -111q-60 0 -134 2l11 73q66 -2 135 -2q32 0 43.5 8t11.5 34v5q0 26 -12 35t-43 9h-112l11 72h87q37 0 49.5 8.5t12.5 33.5v5q0 22 -12 29.5t-50 7.5q-58 0 -120 -2l11 74
q86 2 117 2q74 0 106.5 -25t32.5 -77zM250 362h93l-12 -74h-262l12 74h82v248h-93l14 70h166v-318z" />
    <glyph glyph-name="twothirds" unicode="&#x2154;" horiz-adv-x="880" 
d="M183 0l420 680h94l-420 -680h-94zM826 291v-5q0 -64 -55 -80q65 -19 65 -87v-9q0 -111 -155 -111q-60 0 -134 2l11 73q66 -2 135 -2q32 0 43.5 8t11.5 34v5q0 26 -12 35t-43 9h-112l11 72h87q37 0 49.5 8.5t12.5 33.5v5q0 22 -12 29.5t-50 7.5q-58 0 -120 -2l11 74
q86 2 117 2q74 0 106.5 -25t32.5 -77zM244 461l-58 -17q-34 -10 -42.5 -22.5t-8.5 -50.5v-9h198l-12 -74h-273v71q0 67 23.5 101t83.5 51l44 13q31 9 39.5 17.5t8.5 28.5q0 23 -11 31t-44 8q-80 0 -134 -2l11 72q62 2 117 2q79 0 113 -25t34 -78v-12q0 -43 -18.5 -66.5
t-70.5 -38.5z" />
    <glyph glyph-name="uni2155" unicode="&#x2155;" horiz-adv-x="880" 
d="M183 0l420 680h94l-420 -680h-94zM692 171h-137v221h263l-14 -73h-169v-77h65q77 0 106 -25t29 -88v-20q0 -58 -36.5 -84t-117.5 -26q-25 0 -74.5 1t-61.5 1l14 72q56 -2 132 -2q35 0 46.5 9t11.5 36v10q0 27 -11 36t-46 9zM250 362h93l-12 -74h-262l12 74h82v248h-93
l14 70h166v-318z" />
    <glyph glyph-name="uni2156" unicode="&#x2156;" horiz-adv-x="880" 
d="M180 0l420 680h94l-420 -680h-94zM692 171h-137v221h263l-14 -73h-169v-77h65q77 0 106 -25t29 -88v-20q0 -58 -36.5 -84t-117.5 -26q-25 0 -74.5 1t-61.5 1l14 72q56 -2 132 -2q35 0 46.5 9t11.5 36v10q0 27 -11 36t-46 9zM244 461l-58 -17q-34 -10 -42.5 -22.5
t-8.5 -50.5v-9h198l-12 -74h-273v71q0 67 23.5 101t83.5 51l44 13q31 9 39.5 17.5t8.5 28.5q0 23 -11 31t-44 8q-80 0 -134 -2l11 72q62 2 117 2q79 0 113 -25t34 -78v-12q0 -43 -18.5 -66.5t-70.5 -38.5z" />
    <glyph glyph-name="uni2157" unicode="&#x2157;" horiz-adv-x="880" 
d="M168 0l420 680h94l-420 -680h-94zM692 171h-137v221h263l-14 -73h-169v-77h65q77 0 106 -25t29 -88v-20q0 -58 -36.5 -84t-117.5 -26q-25 0 -74.5 1t-61.5 1l14 72q56 -2 132 -2q35 0 46.5 9t11.5 36v10q0 27 -11 36t-46 9zM324 579v-5q0 -64 -55 -80q65 -19 65 -87v-9
q0 -111 -155 -111q-60 0 -134 2l11 73q66 -2 135 -2q32 0 43.5 8t11.5 34v5q0 26 -12 35t-43 9h-112l11 72h87q37 0 49.5 8.5t12.5 33.5v5q0 22 -12 29.5t-50 7.5q-58 0 -120 -2l11 74q86 2 117 2q74 0 106.5 -25t32.5 -77z" />
    <glyph glyph-name="uni2158" unicode="&#x2158;" horiz-adv-x="880" 
d="M179 0l420 680h94l-420 -680h-94zM692 171h-137v221h263l-14 -73h-169v-77h65q77 0 106 -25t29 -88v-20q0 -58 -36.5 -84t-117.5 -26q-25 0 -74.5 1t-61.5 1l14 72q56 -2 132 -2q35 0 46.5 9t11.5 36v10q0 27 -11 36t-46 9zM265 680l-142 -248h104v102l84 12v-114h50
l-14 -67h-36v-77h-84v77h-191v66l139 249h90z" />
    <glyph glyph-name="uni2159" unicode="&#x2159;" horiz-adv-x="880" 
d="M204 0l420 680h94l-420 -680h-94zM816 392l-13 -73q-20 1 -85 1q-55 0 -75.5 -16.5t-20.5 -60.5v-11q32 25 89 25q69 0 103.5 -30t34.5 -94v-14q0 -128 -154 -128q-79 0 -117 34t-38 115v89q0 86 42 125t136 39q71 0 98 -1zM694 190q-40 0 -56 -13t-16 -49v-5
q0 -36 15.5 -49t55.5 -13q42 0 57.5 13t15.5 49v5q0 36 -15.5 49t-56.5 13zM250 362h93l-12 -74h-262l12 74h82v248h-93l14 70h166v-318z" />
    <glyph glyph-name="uni215A" unicode="&#x215a;" horiz-adv-x="880" 
d="M185 0l420 680h94l-420 -680h-94zM816 392l-13 -73q-20 1 -85 1q-55 0 -75.5 -16.5t-20.5 -60.5v-11q32 25 89 25q69 0 103.5 -30t34.5 -94v-14q0 -128 -154 -128q-79 0 -117 34t-38 115v89q0 86 42 125t136 39q71 0 98 -1zM694 190q-40 0 -56 -13t-16 -49v-5
q0 -36 15.5 -49t55.5 -13q42 0 57.5 13t15.5 49v5q0 36 -15.5 49t-56.5 13zM190 459h-137v221h263l-14 -73h-169v-77h65q77 0 106 -25t29 -88v-20q0 -58 -36.5 -84t-117.5 -26q-25 0 -74.5 1t-61.5 1l14 72q56 -2 132 -2q35 0 46.5 9t11.5 36v10q0 27 -11 36t-46 9z" />
    <glyph glyph-name="oneeighth" unicode="&#x215b;" horiz-adv-x="880" 
d="M194 0l420 680h94l-420 -680h-94zM691 -9q-157 0 -157 114v6q0 71 66 94q-55 17 -55 84v7q0 105 146 105t146 -105v-7q0 -66 -56 -84q67 -24 67 -94v-6q0 -114 -157 -114zM691 54q39 0 55.5 12.5t16.5 43.5v6q0 31 -16.5 43.5t-55.5 12.5t-55.5 -12.5t-16.5 -43.5v-6
q0 -31 16.5 -43.5t55.5 -12.5zM691 236q38 0 51 10.5t13 39.5v5q0 29 -13 39.5t-51 10.5t-51 -10.5t-13 -39.5v-5q0 -29 13 -39.5t51 -10.5zM250 362h93l-12 -74h-262l12 74h82v248h-93l14 70h166v-318z" />
    <glyph glyph-name="threeeighths" unicode="&#x215c;" horiz-adv-x="880" 
d="M176 0l420 680h94l-420 -680h-94zM691 -9q-157 0 -157 114v6q0 71 66 94q-55 17 -55 84v7q0 105 146 105t146 -105v-7q0 -66 -56 -84q67 -24 67 -94v-6q0 -114 -157 -114zM691 54q39 0 55.5 12.5t16.5 43.5v6q0 31 -16.5 43.5t-55.5 12.5t-55.5 -12.5t-16.5 -43.5v-6
q0 -31 16.5 -43.5t55.5 -12.5zM691 236q38 0 51 10.5t13 39.5v5q0 29 -13 39.5t-51 10.5t-51 -10.5t-13 -39.5v-5q0 -29 13 -39.5t51 -10.5zM324 579v-5q0 -64 -55 -80q65 -19 65 -87v-9q0 -111 -155 -111q-60 0 -134 2l11 73q66 -2 135 -2q32 0 43.5 8t11.5 34v5
q0 26 -12 35t-43 9h-112l11 72h87q37 0 49.5 8.5t12.5 33.5v5q0 22 -12 29.5t-50 7.5q-58 0 -120 -2l11 74q86 2 117 2q74 0 106.5 -25t32.5 -77z" />
    <glyph glyph-name="fiveeighths" unicode="&#x215d;" horiz-adv-x="880" 
d="M183 0l420 680h94l-420 -680h-94zM691 -9q-157 0 -157 114v6q0 71 66 94q-55 17 -55 84v7q0 105 146 105t146 -105v-7q0 -66 -56 -84q67 -24 67 -94v-6q0 -114 -157 -114zM691 54q39 0 55.5 12.5t16.5 43.5v6q0 31 -16.5 43.5t-55.5 12.5t-55.5 -12.5t-16.5 -43.5v-6
q0 -31 16.5 -43.5t55.5 -12.5zM691 236q38 0 51 10.5t13 39.5v5q0 29 -13 39.5t-51 10.5t-51 -10.5t-13 -39.5v-5q0 -29 13 -39.5t51 -10.5zM190 459h-137v221h263l-14 -73h-169v-77h65q77 0 106 -25t29 -88v-20q0 -58 -36.5 -84t-117.5 -26q-25 0 -74.5 1t-61.5 1l14 72
q56 -2 132 -2q35 0 46.5 9t11.5 36v10q0 27 -11 36t-46 9z" />
    <glyph glyph-name="seveneighths" unicode="&#x215e;" horiz-adv-x="880" 
d="M135 0l420 680h94l-420 -680h-94zM691 -9q-157 0 -157 114v6q0 71 66 94q-55 17 -55 84v7q0 105 146 105t146 -105v-7q0 -66 -56 -84q67 -24 67 -94v-6q0 -114 -157 -114zM691 54q39 0 55.5 12.5t16.5 43.5v6q0 31 -16.5 43.5t-55.5 12.5t-55.5 -12.5t-16.5 -43.5v-6
q0 -31 16.5 -43.5t55.5 -12.5zM691 236q38 0 51 10.5t13 39.5v5q0 29 -13 39.5t-51 10.5t-51 -10.5t-13 -39.5v-5q0 -29 13 -39.5t51 -10.5zM184 288h-92l146 318h-197l14 74h271v-69z" />
    <glyph glyph-name="partialdiff" unicode="&#x2202;" horiz-adv-x="598" 
d="M282 463q118 0 157 -63q10 56 10 100q0 84 -41 116.5t-134 32.5q-81 0 -148 -3l31 86q65 4 120 4q145 0 208 -57t63 -189q0 -54 -9 -121q-13 -89 -26.5 -147.5t-34 -107t-49 -75.5t-69 -41t-97.5 -14q-105 0 -166 47t-61 142q0 20 3 44q18 133 76.5 189.5t166.5 56.5z
M139 197q-1 -8 -1 -22q0 -108 126 -108q66 0 101 39.5t46 144.5q1 9 1 24q0 106 -127 106q-66 0 -99 -38.5t-47 -145.5z" />
    <glyph glyph-name="uni2206" unicode="&#x2206;" horiz-adv-x="670" 
d="M655 0h-640l262 712h116zM332 614l-178 -522h357z" />
    <glyph glyph-name="product" unicode="&#x220f;" horiz-adv-x="717" 
d="M702 712l-18 -87h-61v-713h-108v713h-313v-713h-108v713h-79l18 87h669z" />
    <glyph glyph-name="summation" unicode="&#x2211;" horiz-adv-x="546" 
d="M355 331l-222 -324h398l-19 -94h-497v89l220 322l-200 299v89h491l-19 -94h-347z" />
    <glyph glyph-name="minus" unicode="&#x2212;" horiz-adv-x="595" 
d="M81 297v87h432v-87h-432z" />
    <glyph glyph-name="uni2215" unicode="&#x2215;" horiz-adv-x="124" 
d="M-195 0l420 680h94l-420 -680h-94z" />
    <glyph glyph-name="uni2219" unicode="&#x2219;" horiz-adv-x="208" 
d="M173 357q0 -69 -69 -69t-69 69t69 69t69 -69z" />
    <glyph glyph-name="radical" unicode="&#x221a;" horiz-adv-x="625" 
d="M114 405l-109 -58v98l170 88l150 -415l211 761h99l-252 -884h-111z" />
    <glyph glyph-name="infinity" unicode="&#x221e;" horiz-adv-x="712" 
d="M122 350v-5q0 -94 73 -94q35 0 61.5 20.5t55.5 75.5q-29 55 -55.5 76t-61.5 21q-73 0 -73 -94zM356 260q-31 -52 -70.5 -73t-94.5 -21q-77 0 -119 46t-42 127v17q0 81 42 127t119 46q55 0 94.5 -21t70.5 -73q31 52 70.5 73t94.5 21q77 0 119 -46t42 -127v-17
q0 -81 -42 -127t-119 -46q-55 0 -94.5 21t-70.5 73zM590 345v5q0 94 -73 94q-35 0 -61.5 -20.5t-55.5 -75.5q29 -55 55.5 -76t61.5 -21q73 0 73 94z" />
    <glyph glyph-name="integral" unicode="&#x222b;" horiz-adv-x="322" 
d="M12 -188l13 86q42 -2 71 -2q41 0 56.5 13.5t15.5 50.5q0 46 -10 92l-94 547q-16 102 -16 134q0 71 46.5 108.5t127.5 37.5q53 0 88 -3l-13 -85q-50 2 -74 2q-39 0 -54 -14t-15 -50q0 -46 10 -92l94 -547q15 -86 15 -134q0 -71 -45.5 -108.5t-122.5 -37.5q-63 0 -93 2z
" />
    <glyph glyph-name="approxequal" unicode="&#x2248;" horiz-adv-x="595" 
d="M293 488l23 -11q61 -29 81 -29q18 0 26 11t8 40v13h94v-13q0 -151 -105 -151q-46 0 -118 37l-23 11q-61 29 -81 29q-18 0 -26 -11t-8 -40v-13h-94v13q0 81 26.5 116t78.5 35q46 0 118 -37zM293 266l23 -11q61 -29 81 -29q18 0 26 11t8 40v13h94v-13q0 -151 -105 -151
q-46 0 -118 37l-23 11q-61 29 -81 29q-18 0 -26 -11t-8 -40v-13h-94v13q0 81 26.5 116t78.5 35q46 0 118 -37z" />
    <glyph glyph-name="notequal" unicode="&#x2260;" horiz-adv-x="595" 
d="M81 394v87h245l50 95h87l-50 -95h100v-87h-146l-57 -107h203v-87h-249l-50 -96h-87l50 96h-96v87h142l57 107h-199z" />
    <glyph glyph-name="lessequal" unicode="&#x2264;" horiz-adv-x="595" 
d="M81 1v87h432v-87h-432zM81 304v87l432 177v-91l-323 -129l323 -125v-96z" />
    <glyph glyph-name="greaterequal" unicode="&#x2265;" horiz-adv-x="595" 
d="M81 1v87h432v-87h-432zM513 391v-87l-432 -177v96l323 125l-323 129v91z" />
    <glyph glyph-name="lozenge" unicode="&#x25ca;" horiz-adv-x="578" 
d="M568 356l-233 -356h-92l-233 356l233 356h92zM124 355l165 -256l165 257l-165 256z" />
    <glyph glyph-name="uniF001" unicode="&#xf001;" horiz-adv-x="535" 
d="M299 658q-85 0 -110.5 -26t-25.5 -115h159l-18 -87h-141v-430h-105v512q0 127 54 180t187 53q100 0 153 -2l-18 -87q-19 0 -67 1t-68 1zM372 517h105v-517h-105v517z" />
    <glyph glyph-name="uniF002" unicode="&#xf002;" horiz-adv-x="573" 
d="M287 745q35 0 73 -2l-18 -87q-30 2 -41 2q-87 0 -112.5 -26t-25.5 -115h161l-18 -87h-143v-430h-105v512q0 129 50 181t179 52zM410 0v743h105v-743h-105z" />
    <glyph glyph-name="uniF507" unicode="&#xf507;" horiz-adv-x="880" 
d="M181 0l420 680h94l-420 -680h-94zM686 0h-92l146 318h-197l14 74h271v-69zM244 461l-58 -17q-34 -10 -42.5 -22.5t-8.5 -50.5v-9h198l-12 -74h-273v71q0 67 23.5 101t83.5 51l44 13q31 9 39.5 17.5t8.5 28.5q0 23 -11 31t-44 8q-80 0 -134 -2l11 72q62 2 117 2
q79 0 113 -25t34 -78v-12q0 -43 -18.5 -66.5t-70.5 -38.5z" />
    <glyph glyph-name="uniF508" unicode="&#xf508;" horiz-adv-x="880" 
d="M167 0l420 680h94l-420 -680h-94zM686 0h-92l146 318h-197l14 74h271v-69zM324 579v-5q0 -64 -55 -80q65 -19 65 -87v-9q0 -111 -155 -111q-60 0 -134 2l11 73q66 -2 135 -2q32 0 43.5 8t11.5 34v5q0 26 -12 35t-43 9h-112l11 72h87q37 0 49.5 8.5t12.5 33.5v5
q0 22 -12 29.5t-50 7.5q-58 0 -120 -2l11 74q86 2 117 2q74 0 106.5 -25t32.5 -77z" />
    <glyph glyph-name="uniF509" unicode="&#xf509;" horiz-adv-x="880" 
d="M178 0l420 680h94l-420 -680h-94zM686 0h-92l146 318h-197l14 74h271v-69zM265 680l-142 -248h104v102l84 12v-114h50l-14 -67h-36v-77h-84v77h-191v66l139 249h90z" />
    <glyph glyph-name="uniF50A" unicode="&#xf50a;" horiz-adv-x="880" 
d="M167 0l420 680h94l-420 -680h-94zM686 0h-92l146 318h-197l14 74h271v-69zM190 459h-137v221h263l-14 -73h-169v-77h65q77 0 106 -25t29 -88v-20q0 -58 -36.5 -84t-117.5 -26q-25 0 -74.5 1t-61.5 1l14 72q56 -2 132 -2q35 0 46.5 9t11.5 36v10q0 27 -11 36t-46 9z" />
    <glyph glyph-name="uniF50B" unicode="&#xf50b;" horiz-adv-x="880" 
d="M178 0l420 680h94l-420 -680h-94zM686 0h-92l146 318h-197l14 74h271v-69zM314 680l-13 -73q-20 1 -85 1q-55 0 -75.5 -16.5t-20.5 -60.5v-11q32 25 89 25q69 0 103.5 -30t34.5 -94v-14q0 -128 -154 -128q-79 0 -117 34t-38 115v89q0 86 42 125t136 39q71 0 98 -1z
M192 478q-40 0 -56 -13t-16 -49v-5q0 -36 15.5 -49t55.5 -13q42 0 57.5 13t15.5 49v5q0 36 -15.5 49t-56.5 13z" />
    <glyph glyph-name="uniF50D" unicode="&#xf50d;" horiz-adv-x="880" 
d="M192 0l420 680h94l-420 -680h-94zM565 1l13 73q30 -2 85 -2t75.5 16.5t20.5 60.5v11q-32 -25 -89 -25q-138 0 -138 124v14q0 128 154 128q79 0 117 -34t38 -115v-89q0 -86 -42 -125t-136 -39q-44 0 -98 2zM687 202q40 0 56 13t16 49v5q0 36 -15.5 49t-55.5 13
q-42 0 -57.5 -13t-15.5 -49v-5q0 -36 15.5 -49t56.5 -13zM244 461l-58 -17q-34 -10 -42.5 -22.5t-8.5 -50.5v-9h198l-12 -74h-273v71q0 67 23.5 101t83.5 51l44 13q31 9 39.5 17.5t8.5 28.5q0 23 -11 31t-44 8q-80 0 -134 -2l11 72q62 2 117 2q79 0 113 -25t34 -78v-12
q0 -43 -18.5 -66.5t-70.5 -38.5z" />
    <glyph glyph-name="uniF50E" unicode="&#xf50e;" horiz-adv-x="880" 
d="M189 0l420 680h94l-420 -680h-94zM565 1l13 73q30 -2 85 -2t75.5 16.5t20.5 60.5v11q-32 -25 -89 -25q-138 0 -138 124v14q0 128 154 128q79 0 117 -34t38 -115v-89q0 -86 -42 -125t-136 -39q-44 0 -98 2zM687 202q40 0 56 13t16 49v5q0 36 -15.5 49t-55.5 13
q-42 0 -57.5 -13t-15.5 -49v-5q0 -36 15.5 -49t56.5 -13zM265 680l-142 -248h104v102l84 12v-114h50l-14 -67h-36v-77h-84v77h-191v66l139 249h90z" />
    <glyph glyph-name="uniF50F" unicode="&#xf50f;" horiz-adv-x="880" 
d="M174 0l420 680h94l-420 -680h-94zM565 1l13 73q30 -2 85 -2t75.5 16.5t20.5 60.5v11q-32 -25 -89 -25q-138 0 -138 124v14q0 128 154 128q79 0 117 -34t38 -115v-89q0 -86 -42 -125t-136 -39q-44 0 -98 2zM687 202q40 0 56 13t16 49v5q0 36 -15.5 49t-55.5 13
q-42 0 -57.5 -13t-15.5 -49v-5q0 -36 15.5 -49t56.5 -13zM190 459h-137v221h263l-14 -73h-169v-77h65q77 0 106 -25t29 -88v-20q0 -58 -36.5 -84t-117.5 -26q-25 0 -74.5 1t-61.5 1l14 72q56 -2 132 -2q35 0 46.5 9t11.5 36v10q0 27 -11 36t-46 9z" />
    <glyph glyph-name="uniF510" unicode="&#xf510;" horiz-adv-x="880" 
d="M135 0l420 680h94l-420 -680h-94zM565 1l13 73q30 -2 85 -2t75.5 16.5t20.5 60.5v11q-32 -25 -89 -25q-138 0 -138 124v14q0 128 154 128q79 0 117 -34t38 -115v-89q0 -86 -42 -125t-136 -39q-44 0 -98 2zM687 202q40 0 56 13t16 49v5q0 36 -15.5 49t-55.5 13
q-42 0 -57.5 -13t-15.5 -49v-5q0 -36 15.5 -49t56.5 -13zM184 288h-92l146 318h-197l14 74h271v-69z" />
    <glyph glyph-name="uniF511" unicode="&#xf511;" horiz-adv-x="880" 
d="M181 0l420 680h94l-420 -680h-94zM565 1l13 73q30 -2 85 -2t75.5 16.5t20.5 60.5v11q-32 -25 -89 -25q-138 0 -138 124v14q0 128 154 128q79 0 117 -34t38 -115v-89q0 -86 -42 -125t-136 -39q-44 0 -98 2zM687 202q40 0 56 13t16 49v5q0 36 -15.5 49t-55.5 13
q-42 0 -57.5 -13t-15.5 -49v-5q0 -36 15.5 -49t56.5 -13zM189 279q-157 0 -157 114v6q0 71 66 94q-55 17 -55 84v7q0 105 146 105t146 -105v-7q0 -66 -56 -84q67 -24 67 -94v-6q0 -114 -157 -114zM189 342q39 0 55.5 12.5t16.5 43.5v6q0 31 -16.5 43.5t-55.5 12.5
t-55.5 -12.5t-16.5 -43.5v-6q0 -31 16.5 -43.5t55.5 -12.5zM189 524q38 0 51 10.5t13 39.5v5q0 29 -13 39.5t-51 10.5t-51 -10.5t-13 -39.5v-5q0 -29 13 -39.5t51 -10.5z" />
    <glyph glyph-name="uniF6C3" unicode="&#xf6c3;" horiz-adv-x="500" 
d="M190 -110q0 25 16.5 40t44.5 15q30 0 45 -15t15 -39q0 -23 -15 -54l-35 -72h-71l28 78q-28 12 -28 47z" />
    <glyph glyph-name="uniF800" unicode="&#xf800;" horiz-adv-x="595" 
d="M298 72q89 0 117 43.5t28 185.5v77q0 99 -12.5 146.5t-42 65.5t-90.5 18t-90.5 -18t-41.5 -65.5t-12 -146.5v-77q0 -142 28 -185.5t116 -43.5zM298 696q79 0 130.5 -20t78 -62.5t36.5 -95t10 -130.5v-96q0 -78 -10 -130t-36.5 -95t-78 -63t-130.5 -20t-130 20t-77.5 63
t-36.5 95t-10 130v96q0 78 9.5 130.5t36.5 95t78 62.5t130 20z" />
    <glyph glyph-name="uniF801" unicode="&#xf801;" horiz-adv-x="595" 
d="M497 84l-17 -84h-351l17 84h114v512h-135l17 84h225v-596h130z" />
    <glyph glyph-name="uniF802" unicode="&#xf802;" horiz-adv-x="595" 
d="M390 312l-136 -57q-47 -19 -61 -44t-14 -89v-32h335l-16 -90h-426v103q0 102 33.5 156t117.5 88l117 49q40 17 54 36.5t14 64.5q0 54 -21.5 74.5t-79.5 20.5q-80 0 -218 -2l14 90q146 2 200 2q113 0 162.5 -44t49.5 -130v-13q0 -69 -30 -113t-95 -70z" />
    <glyph glyph-name="uniF803" unicode="&#xf803;" horiz-adv-x="595" 
d="M74 590l17 90q130 2 212 2q97 0 148.5 -45.5t51.5 -119.5v-20q0 -61 -22.5 -93t-69.5 -49q108 -28 108 -148v-29q0 -86 -58 -133t-173 -47q-99 0 -227 2l17 90q22 0 104.5 -1t124.5 -1q102 0 102 93v24q0 54 -26 76.5t-86 22.5h-187l17 90h173q96 0 96 82v24
q0 49 -22.5 70.5t-73.5 21.5q-178 0 -226 -2z" />
    <glyph glyph-name="uniF804" unicode="&#xf804;" horiz-adv-x="595" 
d="M567 222l-18 -86h-65v-136h-103v136h-331v79l273 465h106l-269 -458h221v220l103 19v-239h83z" />
    <glyph glyph-name="uniF805" unicode="&#xf805;" horiz-adv-x="595" 
d="M516 223v-24q0 -108 -55 -154.5t-191 -46.5q-108 0 -194 2l17 91q70 -3 177 -3q81 0 109 23.5t28 92.5v19q0 71 -27 92t-110 21h-178v344h397l-17 -90h-281v-168h95q129 0 179.5 -43t50.5 -156z" />
    <glyph glyph-name="uniF806" unicode="&#xf806;" horiz-adv-x="595" 
d="M174 435v-31q49 43 145 43q115 0 166 -50.5t51 -170.5v-21q0 -110 -56 -165.5t-177 -55.5q-129 0 -180.5 58.5t-51.5 202.5v156q0 50 5 88.5t20 76.5t40 62t67.5 39t100.5 15q54 0 188 -2l-17 -90q-53 2 -176 2q-40 0 -66 -12.5t-38.5 -36t-16.5 -48.5t-4 -60zM303 67
q73 0 100.5 30t27.5 114v9q0 86 -25 115t-92 29q-80 0 -110 -28.5t-30 -116.5v-9q0 -82 29.5 -112.5t99.5 -30.5z" />
    <glyph glyph-name="uniF807" unicode="&#xf807;" horiz-adv-x="595" 
d="M297 0h-114l230 590h-346l18 90h439v-84z" />
    <glyph glyph-name="uniF808" unicode="&#xf808;" horiz-adv-x="595" 
d="M295 696q121 0 174 -43t53 -136v-15q0 -103 -89 -145q103 -36 103 -154v-28q0 -101 -58.5 -146t-182.5 -45t-182.5 45t-58.5 146v28q0 118 103 154q-89 42 -89 145v15q0 94 53.5 136.5t173.5 42.5zM295 316q-78 0 -106.5 -28t-28.5 -94v-6q0 -67 27.5 -94t107.5 -27
t107.5 27t27.5 94v6q0 66 -28.5 94t-106.5 28zM296 618q-70 0 -98.5 -22.5t-28.5 -78.5v-15q0 -62 26.5 -84t99.5 -22t99.5 22t26.5 84v15q0 56 -27 78.5t-98 22.5z" />
    <glyph glyph-name="uniF809" unicode="&#xf809;" horiz-adv-x="595" 
d="M421 245v30q-47 -42 -145 -42q-115 0 -166 50.5t-51 170.5v21q0 113 55.5 167t177.5 54q128 0 180 -58.5t52 -202.5v-156q0 -64 -9 -110t-33 -87.5t-71.5 -62.5t-119.5 -21q-100 0 -188 2l17 90q54 -2 176 -2q40 0 66 12t38.5 36t16.5 48.5t4 60.5zM292 613
q-73 0 -100.5 -30t-27.5 -114v-9q0 -86 25 -115t92 -29q80 0 110 28t30 117v9q0 82 -29.5 112.5t-99.5 30.5z" />
    <glyph glyph-name="uniF80A" unicode="&#xf80a;" 
d="M189 473q54 0 68 24t14 100v14q0 76 -14 100t-68 24t-68 -24t-14 -100v-14q0 -76 14 -100t68 -24zM189 399q-103 0 -137 45.5t-34 141.5v36q0 96 34 141.5t137 45.5t137 -45.5t34 -141.5v-36q0 -96 -34 -141.5t-137 -45.5z" />
    <glyph glyph-name="uniF80B" unicode="&#xf80b;" 
d="M250 482h93l-12 -74h-262l12 74h82v248h-93l14 70h166v-318z" />
    <glyph glyph-name="uniF80C" unicode="&#xf80c;" 
d="M244 581l-58 -17q-34 -10 -42.5 -22.5t-8.5 -50.5v-9h198l-12 -74h-273v71q0 67 23.5 101t83.5 51l44 13q31 9 39.5 17.5t8.5 28.5q0 23 -11 31t-44 8q-80 0 -134 -2l11 72q62 2 117 2q79 0 113 -25t34 -78v-12q0 -43 -18.5 -66.5t-70.5 -38.5z" />
    <glyph glyph-name="uniF80D" unicode="&#xf80d;" 
d="M324 699v-5q0 -64 -55 -80q65 -19 65 -87v-9q0 -111 -155 -111q-60 0 -134 2l11 73q66 -2 135 -2q32 0 43.5 8t11.5 34v5q0 26 -12 35t-43 9h-112l11 72h87q37 0 49.5 8.5t12.5 33.5v5q0 22 -12 29.5t-50 7.5q-58 0 -120 -2l11 74q86 2 117 2q74 0 106.5 -25t32.5 -77z
" />
    <glyph glyph-name="uniF80E" unicode="&#xf80e;" 
d="M265 800l-142 -248h104v102l84 12v-114h50l-14 -67h-36v-77h-84v77h-191v66l139 249h90z" />
    <glyph glyph-name="uniF80F" unicode="&#xf80f;" 
d="M190 579h-137v221h263l-14 -73h-169v-77h65q77 0 106 -25t29 -88v-20q0 -58 -36.5 -84t-117.5 -26q-25 0 -74.5 1t-61.5 1l14 72q56 -2 132 -2q35 0 46.5 9t11.5 36v10q0 27 -11 36t-46 9z" />
    <glyph glyph-name="uniF810" unicode="&#xf810;" 
d="M314 800l-13 -73q-20 1 -85 1q-55 0 -75.5 -16.5t-20.5 -60.5v-11q32 25 89 25q69 0 103.5 -30t34.5 -94v-14q0 -128 -154 -128q-79 0 -117 34t-38 115v89q0 86 42 125t136 39q71 0 98 -1zM192 598q-40 0 -56 -13t-16 -49v-5q0 -36 15.5 -49t55.5 -13q42 0 57.5 13
t15.5 49v5q0 36 -15.5 49t-56.5 13z" />
    <glyph glyph-name="uniF811" unicode="&#xf811;" 
d="M184 408h-92l146 318h-197l14 74h271v-69z" />
    <glyph glyph-name="uniF812" unicode="&#xf812;" 
d="M189 399q-157 0 -157 114v6q0 71 66 94q-55 17 -55 84v7q0 105 146 105t146 -105v-7q0 -66 -56 -84q67 -24 67 -94v-6q0 -114 -157 -114zM189 462q39 0 55.5 12.5t16.5 43.5v6q0 31 -16.5 43.5t-55.5 12.5t-55.5 -12.5t-16.5 -43.5v-6q0 -31 16.5 -43.5t55.5 -12.5z
M189 644q38 0 51 10.5t13 39.5v5q0 29 -13 39.5t-51 10.5t-51 -10.5t-13 -39.5v-5q0 -29 13 -39.5t51 -10.5z" />
    <glyph glyph-name="uniF813" unicode="&#xf813;" 
d="M63 409l13 73q30 -2 85 -2t75.5 16.5t20.5 60.5v11q-32 -25 -89 -25q-138 0 -138 124v14q0 128 154 128q79 0 117 -34t38 -115v-89q0 -86 -42 -125t-136 -39q-44 0 -98 2zM185 610q40 0 56 13t16 49v5q0 36 -15.5 49t-55.5 13q-42 0 -57.5 -13t-15.5 -49v-5
q0 -36 15.5 -49t56.5 -13z" />
    <glyph glyph-name="uniF814" unicode="&#xf814;" 
d="M189 -54q54 0 68 24t14 100v14q0 76 -14 100t-68 24t-68 -24t-14 -100v-14q0 -76 14 -100t68 -24zM189 -128q-103 0 -137 45.5t-34 141.5v36q0 96 34 141.5t137 45.5t137 -45.5t34 -141.5v-36q0 -96 -34 -141.5t-137 -45.5z" />
    <glyph glyph-name="uniF815" unicode="&#xf815;" 
d="M250 -45h93l-12 -74h-262l12 74h82v248h-93l14 70h166v-318z" />
    <glyph glyph-name="uniF816" unicode="&#xf816;" 
d="M244 54l-58 -17q-34 -10 -42.5 -22.5t-8.5 -50.5v-9h198l-12 -74h-273v71q0 67 23.5 101t83.5 51l44 13q31 9 39.5 17.5t8.5 28.5q0 23 -11 31t-44 8q-80 0 -134 -2l11 72q62 2 117 2q79 0 113 -25t34 -78v-12q0 -43 -18.5 -66.5t-70.5 -38.5z" />
    <glyph glyph-name="uniF817" unicode="&#xf817;" 
d="M324 172v-5q0 -64 -55 -80q65 -19 65 -87v-9q0 -111 -155 -111q-60 0 -134 2l11 73q66 -2 135 -2q32 0 43.5 8t11.5 34v5q0 26 -12 35t-43 9h-112l11 72h87q37 0 49.5 8.5t12.5 33.5v5q0 22 -12 29.5t-50 7.5q-58 0 -120 -2l11 74q86 2 117 2q74 0 106.5 -25t32.5 -77z
" />
    <glyph glyph-name="uniF818" unicode="&#xf818;" 
d="M265 273l-142 -248h104v102l84 12v-114h50l-14 -67h-36v-77h-84v77h-191v66l139 249h90z" />
    <glyph glyph-name="uniF819" unicode="&#xf819;" 
d="M190 52h-137v221h263l-14 -73h-169v-77h65q77 0 106 -25t29 -88v-20q0 -58 -36.5 -84t-117.5 -26q-25 0 -74.5 1t-61.5 1l14 72q56 -2 132 -2q35 0 46.5 9t11.5 36v10q0 27 -11 36t-46 9z" />
    <glyph glyph-name="uniF81A" unicode="&#xf81a;" 
d="M314 273l-13 -73q-20 1 -85 1q-55 0 -75.5 -16.5t-20.5 -60.5v-11q32 25 89 25q69 0 103.5 -30t34.5 -94v-14q0 -128 -154 -128q-79 0 -117 34t-38 115v89q0 86 42 125t136 39q71 0 98 -1zM192 71q-40 0 -56 -13t-16 -49v-5q0 -36 15.5 -49t55.5 -13q42 0 57.5 13
t15.5 49v5q0 36 -15.5 49t-56.5 13z" />
    <glyph glyph-name="uniF81B" unicode="&#xf81b;" 
d="M184 -119h-92l146 318h-197l14 74h271v-69z" />
    <glyph glyph-name="uniF81C" unicode="&#xf81c;" 
d="M189 -128q-157 0 -157 114v6q0 71 66 94q-55 17 -55 84v7q0 105 146 105t146 -105v-7q0 -66 -56 -84q67 -24 67 -94v-6q0 -114 -157 -114zM189 -65q39 0 55.5 12.5t16.5 43.5v6q0 31 -16.5 43.5t-55.5 12.5t-55.5 -12.5t-16.5 -43.5v-6q0 -31 16.5 -43.5t55.5 -12.5z
M189 117q38 0 51 10.5t13 39.5v5q0 29 -13 39.5t-51 10.5t-51 -10.5t-13 -39.5v-5q0 -29 13 -39.5t51 -10.5z" />
    <glyph glyph-name="uniF81D" unicode="&#xf81d;" 
d="M63 -118l13 73q30 -2 85 -2t75.5 16.5t20.5 60.5v11q-32 -25 -89 -25q-138 0 -138 124v14q0 128 154 128q79 0 117 -34t38 -115v-89q0 -86 -42 -125t-136 -39q-44 0 -98 2zM185 83q40 0 56 13t16 49v5q0 36 -15.5 49t-55.5 13q-42 0 -57.5 -13t-15.5 -49v-5
q0 -36 15.5 -49t56.5 -13z" />
    <glyph glyph-name="NULL" horiz-adv-x="0" 
 />
    <glyph glyph-name="CR" horiz-adv-x="333" 
 />
    <glyph glyph-name="i.locl" horiz-adv-x="221" 
d="M58 0v517h105v-517h-105zM176 670q0 -35 -15.5 -50.5t-50.5 -15.5t-50.5 15.5t-15.5 50.5t15.5 50.5t50.5 15.5t50.5 -15.5t15.5 -50.5z" />
    <glyph glyph-name="glyph469" horiz-adv-x="500" 
d="M145 892h132l-131 -119h-109zM331 892h132l-131 -119h-109z" />
    <glyph glyph-name="glyph470" horiz-adv-x="500" 
d="M231 -95q-35 0 -55 -1l17 61q13 1 66 1t74.5 -18t21.5 -59v-10q0 -45 -25.5 -63t-90.5 -18q-53 0 -94 3l20 62q38 -2 66 -2q17 0 23 4.5t6 18.5q0 13 -6 17t-23 4z" />
    <glyph glyph-name="glyph471" horiz-adv-x="500" 
d="M252 786l-17 6q-45 17 -60 17q-13 0 -18.5 -5.5t-5.5 -24.5v-16h-74v17q0 111 82 111q34 0 89 -21l17 -6q50 -17 60 -17q13 0 18.5 5.5t5.5 24.5v16h74v-17q0 -111 -82 -111q-34 0 -89 21z" />
    <glyph glyph-name="glyph472" horiz-adv-x="500" 
d="M329 -115l-17 -79h-58q-47 0 -69 15.5t-22 55.5q0 32 24.5 68.5t70.5 67.5l72 -13q-79 -61 -79 -95q0 -12 6.5 -16t26.5 -4h45z" />
    <glyph glyph-name="glyph473" horiz-adv-x="500" 
d="M121 845q0 121 129 121t129 -121t-129 -121t-129 121zM308 845q0 35 -12 46.5t-46 11.5t-46 -11.5t-12 -46.5t12 -46.5t46 -11.5t46 11.5t12 46.5z" />
    <glyph glyph-name="glyph474" horiz-adv-x="500" 
d="M76 891h106l69 -63l70 63h106l-117 -118h-117z" />
    <glyph glyph-name="glyph475" horiz-adv-x="500" 
d="M105 791v81h289v-81h-289z" />
    <glyph glyph-name="glyph476" horiz-adv-x="500" 
d="M217 831q0 -32 -14 -46t-46 -14t-46 14t-14 46t14 46t46 14t46 -14t14 -46zM403 831q0 -32 -14 -46t-46 -14t-46 14t-14 46t14 46t46 14t46 -14t14 -46z" />
    <glyph glyph-name="glyph477" horiz-adv-x="500" 
d="M316 828q0 -35 -15.5 -50.5t-50.5 -15.5t-50.5 15.5t-15.5 50.5t15.5 50.5t50.5 15.5t50.5 -15.5t15.5 -50.5z" />
    <glyph glyph-name="glyph478" horiz-adv-x="500" 
d="M324 773l-70 63l-69 -63h-106l117 118h117l117 -118h-106z" />
    <glyph glyph-name="glyph479" horiz-adv-x="500" 
d="M241 892h132l-137 -119h-109z" />
    <glyph glyph-name="glyph480" horiz-adv-x="500" 
d="M127 892h132l114 -119h-109z" />
    <glyph glyph-name="glyph481" horiz-adv-x="500" 
d="M250 768q-83 0 -120 32t-38 102h93q0 -33 14.5 -48t50.5 -15t50.5 15t14.5 48h93q-1 -70 -38 -102t-120 -32z" />
    <glyph glyph-name="glyph482" horiz-adv-x="500" 
d="M262 -235h-71l28 77q-28 10 -28 48q0 25 15.5 40t46.5 15q59 0 59 -53q0 -22 -16 -55z" />
    <glyph glyph-name="glyph483" horiz-adv-x="500" 
d="M209 743h100l-30 -193h-77z" />
    <glyph glyph-name="glyph485" horiz-adv-x="500" 
d="M239 784h71l-28 -77q28 -10 28 -48q0 -25 -15.5 -40t-46.5 -15q-59 0 -59 53q0 22 16 55z" />
    <glyph glyph-name="glyph486" horiz-adv-x="500" 
d="M247 876h133l-154 -104h-106z" />
    <glyph glyph-name="glyph487" horiz-adv-x="500" 
d="M313 772l-64 59l-63 -59h-99l107 113h111l107 -113h-99z" />
    <glyph glyph-name="glyph488" horiz-adv-x="500" 
d="M205 743h96l-30 -181h-72z" />
    <glyph glyph-name="parenleft.case" horiz-adv-x="356" 
d="M338 0l-18 -88h-18q-57 0 -94 8t-66.5 29t-45 61t-23.5 99.5t-8 148.5v195q0 89 8 148.5t23.5 99.5t45 61t66.5 29t94 8h36l-18 -88h-15q-65 0 -92 -16.5t-38.5 -68.5t-11.5 -173v-195q0 -121 11.5 -173t38.5 -68.5t92 -16.5h33z" />
    <glyph glyph-name="parenright.case" horiz-adv-x="356" 
d="M18 711l18 88h18q57 0 94 -8t66.5 -29t45 -61t23.5 -99.5t8 -148.5v-195q0 -89 -8 -148.5t-23.5 -99.5t-45 -61t-66.5 -29t-94 -8h-36l18 88h15q65 0 92 16.5t38.5 68.5t11.5 173v195q0 121 -11.5 173t-38.5 68.5t-92 16.5h-33z" />
    <glyph glyph-name="hyphen.case" horiz-adv-x="338" 
d="M299 309h-279l19 94h279z" />
    <glyph glyph-name="slash.case" horiz-adv-x="401" 
d="M275 712h106l-255 -712h-106z" />
    <glyph glyph-name="at.case" horiz-adv-x="722" 
d="M672 517v-238q0 -46 -20.5 -64.5t-77.5 -18.5h-137q-92 0 -139.5 35.5t-47.5 116.5v25q0 81 47 118t140 37q86 0 135 -29v18q0 81 -41 110t-143 29q-142 0 -191.5 -47t-49.5 -169v-150q0 -73 11.5 -115.5t46 -70.5t91.5 -38t154 -10q117 0 157 3l-17 -86q-57 -4 -143 -4
q-158 0 -242.5 30t-119.5 97.5t-35 193.5v150q0 160 78 231t259 71q148 0 216.5 -53t68.5 -172zM436 282h136v92q0 42 -23.5 56.5t-91.5 14.5t-89 -14.5t-21 -56.5v-19q0 -40 19.5 -56.5t69.5 -16.5z" />
    <glyph glyph-name="bracketleft.case" horiz-adv-x="352" 
d="M72 799h259l-19 -90h-142v-707h161l-19 -90h-240v887z" />
    <glyph glyph-name="backslash.case" horiz-adv-x="401" 
d="M20 712h110l251 -712h-110z" />
    <glyph glyph-name="bracketright.case" horiz-adv-x="352" 
d="M280 -88h-259l19 90h142v707h-161l19 90h240v-887z" />
    <glyph glyph-name="braceleft.case" horiz-adv-x="367" 
d="M279 799h74l-19 -88h-58q-44 0 -60 -18t-16 -55v-186q0 -66 -57 -96q57 -30 57 -96v-187q0 -37 16 -55t60 -18h77l-19 -88h-55q-100 0 -138 38t-38 104v197q0 61 -73 61h-15v88h15q73 0 73 61v196q0 66 38 104t138 38z" />
    <glyph glyph-name="braceright.case" horiz-adv-x="367" 
d="M88 -88h-74l19 88h58q43 0 59.5 18t16.5 55v187q0 66 57 96q-57 30 -57 96v186q0 37 -16.5 55t-59.5 18h-77l19 88h55q100 0 138 -38t38 -104v-196q0 -61 73 -61h15v-88h-15q-73 0 -73 -61v-197q0 -66 -38 -104t-138 -38z" />
    <glyph glyph-name="guilsinglleft.case" horiz-adv-x="313" 
d="M40 302v109l233 170v-112l-156 -113l156 -112v-112z" />
    <glyph glyph-name="bullet.case" horiz-adv-x="420" 
d="M335 356q0 -64 -29 -94.5t-96 -30.5t-96 30.5t-29 94.5t29 94.5t96 30.5t96 -30.5t29 -94.5z" />
    <glyph glyph-name="endash.case" horiz-adv-x="500" 
d="M0 309v93h500v-93h-500z" />
    <glyph glyph-name="emdash.case" horiz-adv-x="1000" 
d="M0 309v93h1000v-93h-1000z" />
    <glyph glyph-name="guilsinglright.case" horiz-adv-x="313" 
d="M273 411v-109l-233 -170v112l156 112l-156 113v112z" />
    <glyph glyph-name="exclamdown.case" horiz-adv-x="236" 
d="M158 513l12 -203q2 -19 2 -89v-221h-108v221q0 70 2 89l11 203h81zM50 652q0 35 16 51.5t52 16.5t52 -16.5t16 -51.5t-16 -51.5t-52 -16.5t-52 16.5t-16 51.5z" />
    <glyph glyph-name="guillemotleft.case" horiz-adv-x="560" 
d="M40 305v103l219 173v-112l-144 -113l144 -112v-112zM301 305v103l219 173v-112l-144 -113l144 -112v-112z" />
    <glyph glyph-name="guillemotright.case" horiz-adv-x="560" 
d="M520 408v-103l-219 -173v112l144 112l-144 113v112zM259 408v-103l-219 -173v112l144 112l-144 113v112z" />
    </font>
</defs>
</svg>
