<?xml version="1.0" standalone="no"?>
<!DOCTYPE svg PUBLIC "-//W3C//DTD SVG 1.1//EN" "http://www.w3.org/Graphics/SVG/1.1/DTD/svg11.dtd" >
<svg>
<metadata>
Created by FontForge 20120731 at Tue Dec 15 21:08:28 2015
 By ,,,
Copyright 2014 Dalton Maag Ltd. Modification of this file requires prior written permission from Dalton Maag Ltd.
</metadata>
<defs>
<font id="Prometo-LightItalic" horiz-adv-x="372" >
  <font-face 
    font-family="Prometo"
    font-weight="300"
    font-style="italic"
    font-stretch="normal"
    units-per-em="1000"
    panose-1="2 11 4 4 3 2 3 13 2 3"
    ascent="800"
    descent="-200"
    x-height="514"
    cap-height="712"
    bbox="-235 -232 1209 956"
    underline-thickness="93"
    underline-position="-54"
    slope="-11"
    unicode-range="U+0008-FB04"
  />
<missing-glyph horiz-adv-x="500" 
d="M450 0h-400v750h400v-750zM100 50h300v650h-300v-650z" />
    <glyph glyph-name="uniF603" unicode="ft" horiz-adv-x="679" 
d="M180 514h191l-20 -50h-181l-90 -464h-58l102 522q24 126 78 174.5t167 48.5q49 0 79 -2l-19 -51q-32 2 -65 2q-84 0 -123.5 -34.5t-60.5 -145.5zM512 644l-26 -130h197l-20 -50h-187l-55 -285q-6 -31 -6 -52q0 -43 23 -59.5t76 -16.5h86l-20 -51h-70q-78 0 -115 28
t-37 92q0 34 7 69l87 446z" />
    <glyph glyph-name="uniFB00" unicode="ff" horiz-adv-x="633" 
d="M180 514h192l-20 -50h-182l-90 -464h-58l102 522q24 126 78 174.5t167 48.5q43 0 73 -2l-19 -51q-32 2 -59 2q-84 0 -123.5 -34.5t-60.5 -145.5zM756 743l-19 -51q-32 2 -65 2q-84 0 -123.5 -34.5t-60.5 -145.5h198l-20 -50h-188l-90 -464h-58l102 522q24 126 78 174.5
t167 48.5q49 0 79 -2z" />
    <glyph glyph-name="uniFB01" unicode="fi" horiz-adv-x="504" 
d="M180 514h187l-20 -50h-177l-90 -464h-58l102 522q24 126 87.5 174.5t194.5 48.5q18 0 59.5 -1t50.5 -1l-20 -51q-50 2 -94 2q-52 0 -84 -6t-61 -24.5t-47 -54.5t-30 -95zM324 0l100 514h58l-100 -514h-58z" />
    <glyph glyph-name="uniFB02" unicode="fl" horiz-adv-x="511" 
d="M364 694q-84 0 -123.5 -34.5t-60.5 -145.5h187l-20 -50h-177l-90 -464h-58l102 522q24 125 76.5 174t160.5 49q45 0 71 -2l-19 -51q-30 2 -49 2zM331 0l145 743h58l-145 -743h-58z" />
    <glyph glyph-name="uniFB03" unicode="ffi" horiz-adv-x="812" 
d="M488 514h187l-20 -50h-177l-90 -464h-58l102 522q24 126 87.5 174.5t194.5 48.5q18 0 59.5 -1t50.5 -1l-20 -51q-50 2 -94 2q-52 0 -84 -6t-61 -24.5t-47 -54.5t-30 -95zM632 0l100 514h58l-100 -514h-58zM180 514h192l-20 -50h-182l-90 -464h-58l102 522
q24 126 78 174.5t167 48.5q43 0 73 -2l-19 -51q-32 2 -59 2q-84 0 -123.5 -34.5t-60.5 -145.5z" />
    <glyph glyph-name="uniFB04" unicode="ffl" horiz-adv-x="819" 
d="M672 694q-84 0 -123.5 -34.5t-60.5 -145.5h187l-20 -50h-177l-90 -464h-58l102 522q24 125 76.5 174t160.5 49q45 0 71 -2l-19 -51q-30 2 -49 2zM180 514h192l-20 -50h-182l-90 -464h-58l102 522q24 126 78 174.5t167 48.5q43 0 73 -2l-19 -51q-32 2 -59 2
q-84 0 -123.5 -34.5t-60.5 -145.5zM639 0l145 743h58l-145 -743h-58z" />
    <glyph glyph-name="f_f_t.liga" unicode="fft" horiz-adv-x="988" 
d="M489 514h191l-20 -50h-181l-90 -464h-58l102 522q24 126 78 174.5t167 48.5q49 0 79 -2l-19 -51q-32 2 -65 2q-84 0 -123.5 -34.5t-60.5 -145.5zM180 514h192l-20 -50h-182l-90 -464h-58l102 522q24 126 78 174.5t167 48.5q43 0 73 -2l-19 -51q-32 2 -59 2
q-84 0 -123.5 -34.5t-60.5 -145.5zM821 644l-26 -130h197l-20 -50h-187l-55 -285q-6 -32 -6 -52q0 -43 23 -59.5t76 -16.5h86l-20 -51h-70q-78 0 -115 28t-37 92q0 34 7 69l87 446z" />
    <glyph glyph-name=".notdef" horiz-adv-x="500" 
d="M450 0h-400v750h400v-750zM100 50h300v650h-300v-650z" />
    <glyph glyph-name=".null" horiz-adv-x="0" 
 />
    <glyph glyph-name="nonmarkingreturn" horiz-adv-x="333" 
 />
    <glyph glyph-name="uni0008" horiz-adv-x="0" 
 />
    <glyph glyph-name="uni0008" horiz-adv-x="0" 
 />
    <glyph glyph-name="uni0008" horiz-adv-x="0" 
 />
    <glyph glyph-name="uni0009" unicode="&#x9;" horiz-adv-x="250" 
 />
    <glyph glyph-name="uni0009" unicode="&#xd;" horiz-adv-x="250" 
 />
    <glyph glyph-name="space" unicode=" " horiz-adv-x="250" 
 />
    <glyph glyph-name="exclam" unicode="!" horiz-adv-x="211" 
d="M164 712h60l-36 -186q-12 -65 -34 -166l-40 -184h-48l31 184q10 67 32 168zM72 90q40 0 40 -40q0 -55 -50 -55q-40 0 -40 40q0 55 50 55z" />
    <glyph glyph-name="quotedbl" unicode="&#x22;" horiz-adv-x="322" 
d="M298 690l11 53h60l-10 -53q-3 -12 -8.5 -41t-9.5 -44l-28 -118h-46l17 118q9 66 14 85zM132 690l11 53h60l-10 -53q-3 -12 -8.5 -41t-9.5 -44l-28 -118h-46l17 118q9 66 14 85z" />
    <glyph glyph-name="numbersign" unicode="#" horiz-adv-x="660" 
d="M552 184h-106l-62 -184h-53l62 184h-200l-62 -184h-53l62 184h-108l20 49h104l73 214h-107l20 49h103l63 184h53l-62 -184h199l63 184h53l-62 -184h109l-19 -49h-107l-72 -214h108zM282 447l-72 -214h199l73 214h-200z" />
    <glyph glyph-name="dollar" unicode="$" horiz-adv-x="595" 
d="M362 760h47l-16 -78q75 0 171 -4l-20 -51q-87 4 -161 4l-51 -262l32 -9q70 -21 105 -55t35 -92q0 -23 -6 -53q-17 -83 -73 -118t-164 -41l-19 -97h-47l18 95h-30q-78 0 -153 4l21 50q83 -3 142 -3h30l54 277l-26 8q-139 41 -139 148q0 19 7 52q19 75 73 109.5t154 37.5z
M354 304l-32 10l-51 -263q79 5 118.5 30.5t53.5 85.5q5 25 5 39q0 69 -94 98zM262 390l26 -8l48 247q-74 -3 -111 -26t-50 -72q-6 -24 -6 -42q0 -42 25.5 -64t67.5 -35z" />
    <glyph glyph-name="percent" unicode="%" horiz-adv-x="861" 
d="M139 0l554 680h60l-554 -680h-60zM687 354q-55 0 -83 -26t-44 -107l-9 -48q-6 -31 -6 -54q0 -46 23 -63.5t69 -17.5q55 0 83 26t44 107l9 48q6 31 6 54q0 46 -23 63.5t-69 17.5zM634 -9q-141 0 -141 126q0 26 6 56l9 51q17 93 59.5 135t122.5 42q141 0 141 -126
q0 -26 -6 -56l-9 -51q-17 -93 -59.5 -135t-122.5 -42zM257 642q-55 0 -83 -26t-44 -107l-9 -48q-6 -31 -6 -54q0 -46 23 -63.5t69 -17.5q55 0 83 26t44 107l9 48q6 31 6 54q0 46 -23 63.5t-69 17.5zM204 279q-141 0 -141 126q0 26 6 56l9 51q17 93 59.5 135t122.5 42
q141 0 141 -126q0 -26 -6 -56l-9 -51q-17 -93 -59.5 -135t-122.5 -42z" />
    <glyph glyph-name="ampersand" unicode="&#x26;" horiz-adv-x="624" 
d="M53 228q16 63 48.5 100t92.5 52q-70 27 -70 116q0 27 5 51q18 90 78 129t180 39q122 0 154 -2l-22 -53q-70 2 -116 2q-109 0 -154 -21.5t-62 -89.5q-8 -24 -8 -54q0 -54 37.5 -75t104.5 -21h294l-21 -52h-58l-56 -297q-5 -25 -17 -35t-43 -16q-51 -10 -127 -10
q-250 0 -250 164q0 36 10 73zM295 42q74 0 127 10l58 297h-160q-101 0 -144.5 -25t-63.5 -96q-10 -36 -10 -66q0 -68 50 -94t143 -26z" />
    <glyph glyph-name="quotesingle" unicode="'" horiz-adv-x="156" 
d="M132 690l11 53h60l-10 -53q-3 -12 -8.5 -41t-9.5 -44l-28 -118h-46l17 118q9 66 14 85z" />
    <glyph glyph-name="parenleft" unicode="(" horiz-adv-x="314" 
d="M383 712l-21 -52h-11q-71 0 -110 -24.5t-67 -92t-55 -208.5l-28 -144q-23 -123 -23 -186q0 -72 28 -100t93 -28h28l-20 -52h-14q-91 0 -130.5 42.5t-39.5 133.5q0 69 24 191l28 143q30 156 65 235t86 110.5t140 31.5h27z" />
    <glyph glyph-name="parenright" unicode=")" horiz-adv-x="314" 
d="M-69 -175l21 52h11q71 0 110 24.5t67 92t55 208.5l28 144q23 123 23 186q0 71 -28.5 99.5t-92.5 28.5h-28l20 52h14q91 0 130.5 -42.5t39.5 -133.5q0 -69 -24 -191l-28 -143q-24 -118 -47 -188t-57 -114t-77 -59.5t-110 -15.5h-27z" />
    <glyph glyph-name="asterisk" unicode="*" horiz-adv-x="404" 
d="M308 374l-60 122l-106 -122l-37 31l110 116l-123 41l22 45l122 -46l27 141h50l-31 -142l136 47l9 -47l-141 -42l67 -119z" />
    <glyph glyph-name="plus" unicode="+" horiz-adv-x="595" 
d="M244 124l37 190h-183l10 52h183l37 190h55l-36 -190h183l-10 -52h-183l-37 -190h-56z" />
    <glyph glyph-name="comma" unicode="," horiz-adv-x="174" 
d="M50 90q41 0 41 -40q0 -26 -30 -72l-85 -130h-45l86 153q-16 9 -16 35q0 54 49 54z" />
    <glyph glyph-name="hyphen" unicode="-" horiz-adv-x="359" 
d="M58 320h279l-21 -53h-279z" />
    <glyph glyph-name="period" unicode="." horiz-adv-x="174" 
d="M51 90q40 0 40 -40q0 -55 -50 -55q-40 0 -40 40q0 55 50 55z" />
    <glyph glyph-name="slash" unicode="/" horiz-adv-x="379" 
d="M43 0h-60l390 712h60z" />
    <glyph glyph-name="zero" unicode="0" horiz-adv-x="597" 
d="M555 380l-17 -88q-31 -166 -91 -237t-186 -71q-107 0 -155 48t-48 143q0 52 14 125l17 88q31 166 91 237t186 71q106 0 154.5 -48t48.5 -144q0 -51 -14 -124zM149 388l-18 -94q-14 -76 -14 -119q0 -79 36 -109t111 -30q63 0 100 19t65 74.5t49 162.5l18 93q14 61 14 120
q0 79 -36 109t-111 30q-48 0 -79 -9.5t-57.5 -37.5t-44.5 -78t-33 -131z" />
    <glyph glyph-name="one" unicode="1" horiz-adv-x="409" 
d="M-4 0l20 50h124l113 580h-138l21 50h185l-123 -630h138l-21 -50h-319z" />
    <glyph glyph-name="two" unicode="2" horiz-adv-x="520" 
d="M506 491q-13 -65 -52 -102t-111 -64l-98 -39q-75 -31 -106 -67t-45 -113l-11 -54h341l-20 -52h-389l21 108q18 96 59 143.5t133 84.5l96 39q57 23 84.5 49t37.5 68q5 20 5 48q0 45 -28.5 67.5t-99.5 22.5q-108 0 -183 -4l20 52q89 4 168 4q184 0 184 -137q0 -27 -6 -54z
" />
    <glyph glyph-name="three" unicode="3" horiz-adv-x="488" 
d="M180 -2q-93 0 -205 2l20 52q144 -2 191 -2q80 0 124 32.5t53 105.5q3 20 3 36q0 56 -31 78.5t-101 22.5h-145l21 52h149q69 0 107 29.5t47 97.5q3 18 3 34q0 50 -29.5 71t-94.5 21q-138 0 -179 -2l21 52q45 2 163 2q91 0 134.5 -34t43.5 -107q0 -19 -3 -42
q-16 -121 -125 -151q79 -27 79 -126q0 -18 -3 -41q-25 -183 -243 -183z" />
    <glyph glyph-name="four" unicode="4" horiz-adv-x="525" 
d="M369 0h-57l30 156h-329l8 44l354 480h64l-350 -473h263l48 240l58 10l-49 -250h88l-20 -51h-78z" />
    <glyph glyph-name="five" unicode="5" horiz-adv-x="496" 
d="M188 50q86 0 131 35t57 117q4 20 4 44q0 59 -35 83t-111 24h-153l64 327h353l-21 -51h-286l-44 -225h97q100 0 147.5 -38t47.5 -116q0 -28 -7 -63q-20 -102 -82 -145.5t-170 -43.5q-128 0 -178 2l20 52q74 -2 166 -2z" />
    <glyph glyph-name="six" unicode="6" horiz-adv-x="538" 
d="M144 374q44 59 150 59q192 0 192 -178q0 -30 -4 -57q-30 -214 -233 -214q-196 0 -196 180q0 30 9 80l25 130q18 94 43 154.5t63 94.5t83 46.5t112 12.5q58 0 130 -2l-21 -52q-66 2 -112 2q-51 0 -83.5 -7.5t-65 -33t-54.5 -78t-38 -137.5zM117 234q-7 -38 -7 -69
q0 -68 35 -99.5t108 -31.5q74 0 114 34.5t55 121.5q6 36 6 64q0 67 -35.5 98t-109.5 31q-72 0 -110.5 -32t-55.5 -117z" />
    <glyph glyph-name="seven" unicode="7" horiz-adv-x="468" 
d="M77 629l21 51h404l-6 -42l-362 -638h-65l362 629h-354z" />
    <glyph glyph-name="eight" unicode="8" horiz-adv-x="542" 
d="M35 197q27 139 154 166q-82 30 -82 124q0 19 5 46q30 163 223 163q96 0 147.5 -36.5t51.5 -110.5q0 -18 -5 -50q-25 -124 -143 -146q95 -29 95 -140q0 -29 -5 -53q-33 -176 -238 -176q-105 0 -157 42t-52 119q0 25 6 52zM419 168q5 32 5 47q0 118 -152 118
q-79 0 -121.5 -30.5t-56.5 -103.5q-6 -27 -6 -50q0 -58 37.5 -86.5t117.5 -28.5q78 0 120 31.5t56 102.5zM330 647q-69 0 -109 -26.5t-52 -91.5q-5 -27 -5 -45q0 -53 35.5 -77.5t110.5 -24.5q70 0 109.5 28.5t52.5 91.5q5 27 5 45q0 52 -35 76t-112 24z" />
    <glyph glyph-name="nine" unicode="9" horiz-adv-x="538" 
d="M426 306q-44 -59 -150 -59q-192 0 -192 178q0 30 4 57q30 214 233 214q196 0 196 -180q0 -30 -9 -80l-25 -130q-18 -94 -43 -154.5t-63 -94.5t-83 -46.5t-112 -12.5q-58 0 -130 2l21 52q66 -2 112 -2q51 0 83.5 7.5t65 33t54.5 78t38 137.5zM453 446q7 38 7 69
q0 68 -35 99.5t-108 31.5q-74 0 -114 -34.5t-55 -121.5q-6 -36 -6 -64q0 -67 35.5 -98t109.5 -31q72 0 110.5 32t55.5 117z" />
    <glyph glyph-name="colon" unicode=":" horiz-adv-x="174" 
d="M135 519q40 0 40 -40q0 -55 -50 -55q-40 0 -40 40q0 55 50 55zM51 90q40 0 40 -40q0 -55 -50 -55q-40 0 -40 40q0 55 50 55z" />
    <glyph glyph-name="semicolon" unicode=";" horiz-adv-x="174" 
d="M50 90q41 0 41 -40q0 -26 -30 -72l-85 -130h-45l86 153q-16 9 -16 35q0 54 49 54zM135 519q40 0 40 -40q0 -55 -50 -55q-40 0 -40 40q0 55 50 55z" />
    <glyph glyph-name="less" unicode="&#x3c;" horiz-adv-x="595" 
d="M119 312l10 52l414 181l-11 -57l-352 -152l295 -141l-10 -53z" />
    <glyph glyph-name="equal" unicode="=" horiz-adv-x="595" 
d="M141 470h397l-11 -52h-397zM101 265h397l-11 -52h-397z" />
    <glyph glyph-name="greater" unicode="&#x3e;" horiz-adv-x="595" 
d="M511 376l-10 -53l-415 -181l11 58l352 151l-295 142l10 52z" />
    <glyph glyph-name="question" unicode="?" horiz-adv-x="454" 
d="M275 713q190 0 190 -144q0 -15 -3 -36q-11 -79 -51.5 -117t-118.5 -70q-66 -27 -84 -46.5t-30 -79.5l-9 -45h-57l10 55q13 72 42 102.5t105 59.5q66 25 94 53.5t38 86.5q3 21 3 36q0 52 -31.5 73t-103.5 21q-115 0 -166 -2l21 50q55 3 151 3zM123 90q40 0 40 -40
q0 -55 -50 -55q-40 0 -40 40q0 55 50 55z" />
    <glyph glyph-name="at" unicode="@" horiz-adv-x="722" 
d="M665 330l-49 -257q-5 -27 -16.5 -37t-39.5 -15q-63 -9 -123 -9q-97 0 -146.5 31t-49.5 102q0 29 7 58q17 75 63.5 111.5t138.5 36.5q118 0 152 -63l8 39q5 25 5 55q0 65 -46 97.5t-151 32.5q-140 0 -205.5 -64t-101.5 -233q-22 -95 -22 -167q0 -113 68.5 -160t235.5 -47
q85 0 128 3l-21 -51q-51 -3 -120 -3q-182 0 -263.5 59t-81.5 199q0 67 20 165q38 192 120.5 271t245.5 79q250 0 250 -175q0 -26 -6 -58zM443 63q58 0 117 8l19 98q4 12 4 39q0 50 -32.5 72t-101.5 22q-65 0 -98.5 -23t-47.5 -85q-4 -21 -4 -42q0 -53 36 -71t108 -18z" />
    <glyph glyph-name="A" unicode="A" horiz-adv-x="648" 
d="M33 0h-62l413 712h59l132 -712h-59l-40 228h-314zM402 646l-210 -365h275z" />
    <glyph glyph-name="B" unicode="B" horiz-adv-x="606" 
d="M31 0l139 712h221q200 0 200 -149q0 -27 -4 -52q-20 -111 -127 -142q92 -29 92 -139q0 -28 -5 -52q-18 -91 -84.5 -134.5t-192.5 -43.5h-239zM336 344h-180l-57 -291h177q95 0 146.5 29.5t65.5 100.5q5 24 5 50q0 60 -39 85.5t-118 25.5zM388 659h-170l-52 -262h171
q89 0 134 26t58 92q4 20 4 42q0 56 -36 79t-109 23z" />
    <glyph glyph-name="C" unicode="C" horiz-adv-x="565" 
d="M595 711l-22 -54q-45 3 -125 3q-67 0 -112.5 -12.5t-84 -45t-64 -92t-43.5 -152.5q-15 -75 -15 -129q0 -99 50.5 -138t162.5 -39q63 0 135 2l-22 -54q-21 -2 -121 -2q-142 0 -204 57t-62 170q0 65 16 142q21 103 52 170.5t77.5 106.5t103 54.5t136.5 15.5q105 0 142 -3z
" />
    <glyph glyph-name="D" unicode="D" horiz-adv-x="666" 
d="M624 347q-36 -194 -126.5 -270.5t-254.5 -76.5h-212l139 712h202q138 0 202 -57.5t64 -178.5q0 -54 -14 -129zM369 658h-151l-118 -604h150q141 0 209.5 64t102.5 231q15 73 15 127q0 98 -49.5 140t-158.5 42z" />
    <glyph glyph-name="E" unicode="E" horiz-adv-x="588" 
d="M529 393l-21 -54h-352l-56 -285h397l-21 -54h-445l139 712h444l-22 -54h-374l-52 -265h363z" />
    <glyph glyph-name="F" unicode="F" horiz-adv-x="543" 
d="M89 0h-58l139 712h427l-21 -54h-358l-53 -270h337l-21 -54h-326z" />
    <glyph glyph-name="G" unicode="G" horiz-adv-x="633" 
d="M348 -1q-152 0 -216 56t-64 168q0 60 17 145q20 102 50.5 169t77 106t103.5 55t138 16q114 0 178 -3l-21 -54q-75 3 -161 3q-67 0 -112.5 -12t-84.5 -45t-65 -92.5t-44 -151.5q-15 -77 -15 -130q0 -101 53.5 -138.5t174.5 -37.5q68 0 116 6l47 242h-149l21 54h198
l-58 -294q-6 -30 -17.5 -41t-37.5 -14q-47 -7 -129 -7z" />
    <glyph glyph-name="H" unicode="H" horiz-adv-x="687" 
d="M498 0l66 338h-409l-66 -338h-58l139 712h58l-63 -320h409l63 320h58l-139 -712h-58z" />
    <glyph glyph-name="I" unicode="I" horiz-adv-x="220" 
d="M170 712h58l-139 -712h-58z" />
    <glyph glyph-name="J" unicode="J" horiz-adv-x="430" 
d="M108 54q82 0 122 34t55 112l100 512h58l-99 -510q-22 -109 -75.5 -156t-161.5 -47q-94 0 -127 2l21 54q43 -1 107 -1z" />
    <glyph glyph-name="K" unicode="K" horiz-adv-x="610" 
d="M646 712l-431 -342l337 -370h-77l-317 350l-69 -350h-58l139 712h58l-62 -320l404 320h76z" />
    <glyph glyph-name="L" unicode="L" horiz-adv-x="530" 
d="M228 712l-128 -658h363l-22 -54h-410l139 712h58z" />
    <glyph glyph-name="M" unicode="M" horiz-adv-x="792" 
d="M415 217h-48l-158 407l-121 -624h-57l139 712h62l168 -437l339 437h61l-139 -712h-57l119 614z" />
    <glyph glyph-name="N" unicode="N" horiz-adv-x="686" 
d="M637 712h56l-138 -712h-53l-294 621l-120 -621h-57l139 712h54l292 -620z" />
    <glyph glyph-name="O" unicode="O" horiz-adv-x="694" 
d="M311 35q60 0 100.5 12.5t76 46t59.5 96.5t42 161q17 94 17 153q0 100 -44.5 137t-141.5 37q-59 0 -99.5 -12.5t-75.5 -46.5t-59.5 -97t-42.5 -160q-17 -94 -17 -153q0 -100 44 -137t141 -37zM307 -18q-125 0 -182.5 53t-57.5 177q0 66 15 154q35 202 114.5 283.5
t228.5 81.5q125 0 182.5 -53t57.5 -177q0 -65 -15 -154q-35 -202 -114.5 -283.5t-228.5 -81.5z" />
    <glyph glyph-name="P" unicode="P" horiz-adv-x="598" 
d="M324 298h-176l-59 -298h-58l139 712h204q115 0 172.5 -39t57.5 -125q0 -21 -5 -53q-17 -110 -85 -153.5t-190 -43.5zM372 658h-155l-59 -306h170q103 0 149 30t62 108q7 35 7 54q0 63 -43 88.5t-131 25.5z" />
    <glyph glyph-name="Q" unicode="Q" horiz-adv-x="693" 
d="M321 -18h-14q-125 0 -182.5 53t-57.5 177q0 66 15 154q35 202 114.5 283.5t228.5 81.5q125 0 182.5 -53t57.5 -177q0 -65 -15 -154q-30 -170 -90.5 -253t-166.5 -104l124 -121h-82zM311 35q60 0 100.5 12.5t76 46t59.5 96.5t42 161q17 94 17 153q0 100 -44.5 137
t-141.5 37q-59 0 -99.5 -12.5t-75.5 -46.5t-59.5 -97t-42.5 -160q-17 -94 -17 -153q0 -100 44 -137t141 -37z" />
    <glyph glyph-name="R" unicode="R" horiz-adv-x="619" 
d="M349 299h-202l-58 -299h-58l139 712h203q115 0 173 -39t58 -125q0 -21 -5 -53q-15 -89 -62 -133t-128 -57l137 -305h-65zM372 658h-155l-59 -305h170q103 0 149 29.5t62 107.5q6 30 6 54q0 63 -42.5 88.5t-130.5 25.5z" />
    <glyph glyph-name="S" unicode="S" horiz-adv-x="539" 
d="M0 1l21 55q85 -4 183 -4q95 0 139.5 22t63.5 70q15 39 15 74q0 41 -23 65.5t-74 40.5l-94 30q-72 23 -103.5 58t-31.5 89q0 34 8 60q21 83 82.5 118t175.5 35q129 0 192 -2l-22 -54q-50 2 -179 2q-90 0 -133.5 -24t-57.5 -81q-7 -28 -7 -47q0 -41 24.5 -63t69.5 -37
l99 -31q134 -42 134 -153q0 -47 -19 -96q-28 -70 -87.5 -100t-176.5 -30q-135 0 -199 3z" />
    <glyph glyph-name="T" unicode="T" horiz-adv-x="613" 
d="M653 658h-239l-128 -658h-59l128 658h-250l22 54h547z" />
    <glyph glyph-name="U" unicode="U" horiz-adv-x="659" 
d="M614 712h58l-93 -482q-27 -137 -93.5 -192.5t-187.5 -55.5q-232 0 -232 189q0 37 8 82l89 459h58l-89 -462q-9 -49 -9 -76q0 -78 43 -108.5t133 -30.5q99 0 150 44t74 164z" />
    <glyph glyph-name="V" unicode="V" horiz-adv-x="622" 
d="M112 712h59l103 -640l352 640h61l-397 -712h-60z" />
    <glyph glyph-name="W" unicode="W" horiz-adv-x="855" 
d="M150 0l-29 712h58l18 -635l292 635h56l39 -634l269 634h59l-311 -712h-63l-38 626l-287 -626h-63z" />
    <glyph glyph-name="X" unicode="X" horiz-adv-x="616" 
d="M671 712l-307 -345l189 -367h-62l-168 329l-293 -329h-69l337 375l-177 337h62l156 -299l264 299h68z" />
    <glyph glyph-name="Y" unicode="Y" horiz-adv-x="606" 
d="M104 712h61l153 -353l292 353h68l-337 -404l-60 -308h-58l60 308z" />
    <glyph glyph-name="Z" unicode="Z" horiz-adv-x="578" 
d="M135 658l21 54h451l-10 -52l-524 -606h424l-21 -54h-482l10 52l524 606h-393z" />
    <glyph glyph-name="bracketleft" unicode="[" horiz-adv-x="330" 
d="M379 659h-151l-153 -781h162l-20 -53h-207l172 887h217z" />
    <glyph glyph-name="backslash" unicode="\" horiz-adv-x="379" 
d="M122 712h55l117 -712h-55z" />
    <glyph glyph-name="bracketright" unicode="]" horiz-adv-x="330" 
d="M-44 -122h151l153 781h-162l20 53h207l-172 -887h-217z" />
    <glyph glyph-name="asciicircum" unicode="^" horiz-adv-x="595" 
d="M458 409l-81 249l-178 -249h-62l219 303h58l102 -303h-58z" />
    <glyph glyph-name="underscore" unicode="_" horiz-adv-x="500" 
d="M-81 -178l11 54h498l-11 -54h-498z" />
    <glyph glyph-name="grave" unicode="`" horiz-adv-x="500" 
d="M313 725l96 -126h-57l-105 126h66z" />
    <glyph glyph-name="a" unicode="a" horiz-adv-x="535" 
d="M233 -9q-101 0 -152 31.5t-51 103.5q0 25 6 55q34 146 207 146q131 0 167 -63l10 52q7 35 7 55q0 49 -31.5 71.5t-105.5 22.5q-120 0 -159 -2l20 51q15 2 144 2q186 0 186 -141q0 -24 -7 -64l-51 -258q-5 -28 -16.5 -37.5t-41.5 -15.5q-56 -9 -132 -9zM240 42q54 0 128 9
l18 93q4 20 4 40q0 52 -35 73t-110 21q-71 0 -108 -24t-46 -82q-4 -17 -4 -40q0 -54 38 -72t115 -18z" />
    <glyph glyph-name="b" unicode="b" horiz-adv-x="576" 
d="M258 -16q-97 0 -146 42t-49 137q0 48 11 103l93 477h58l-55 -282q53 69 169 69q94 0 143 -43t49 -140q0 -51 -11 -105q-26 -137 -85.5 -197.5t-176.5 -60.5zM263 35q88 0 130.5 43t66.5 160q13 70 13 110q0 72 -34.5 101.5t-109.5 29.5q-84 0 -128 -43.5t-67 -158.5
q-14 -75 -14 -111q0 -72 33.5 -101.5t109.5 -29.5z" />
    <glyph glyph-name="c" unicode="c" horiz-adv-x="450" 
d="M256 49q23 0 111 2l-21 -51q-18 -2 -95 -2q-110 0 -159 44t-49 130q0 46 12 103q15 74 39.5 122t62 74t80.5 35.5t105 9.5q33 0 99 -2l-21 -51q-46 2 -86 2q-102 0 -149.5 -39t-70.5 -153q-12 -59 -12 -98q0 -72 37.5 -99t116.5 -27z" />
    <glyph glyph-name="d" unicode="d" horiz-adv-x="564" 
d="M55 274q14 78 39.5 130.5t61 79t72 36.5t84.5 10q128 0 161 -74l56 287h58l-134 -687q-6 -30 -19.5 -41.5t-42.5 -15.5q-62 -8 -117 -8q-117 0 -173 43.5t-56 143.5q0 45 10 96zM309 479q-40 0 -68 -7.5t-53.5 -29t-43 -62t-29.5 -103.5q-11 -61 -11 -96q0 -77 40.5 -108
t132.5 -31q59 0 117 9l51 261q6 34 6 51q0 116 -142 116z" />
    <glyph glyph-name="e" unicode="e" horiz-adv-x="514" 
d="M275 234h-168q-5 -26 -5 -57q0 -66 33 -97t114 -31q97 0 148 4l-20 -51q-44 -4 -130 -4q-109 0 -156.5 45.5t-47.5 129.5q0 51 12 104q33 142 95 197.5t167 55.5q173 0 173 -123q0 -22 -6 -46q-14 -66 -62.5 -96.5t-146.5 -30.5zM314 481q-84 0 -129.5 -44.5
t-69.5 -153.5h160q77 0 107.5 18t45.5 65q5 20 5 38q0 77 -119 77z" />
    <glyph glyph-name="f" unicode="f" horiz-adv-x="325" 
d="M180 514h198l-20 -50h-188l-90 -464h-58l102 522q24 126 78 174.5t167 48.5q49 0 79 -2l-19 -51q-32 2 -65 2q-84 0 -123.5 -34.5t-60.5 -145.5z" />
    <glyph glyph-name="g" unicode="g" horiz-adv-x="572" 
d="M315 530q97 0 146.5 -40.5t49.5 -132.5q0 -44 -10 -95l-42 -216q-23 -117 -76.5 -170t-169.5 -53q-49 0 -177 2l21 52q59 -3 157 -3q86 0 127.5 38.5t59.5 131.5l8 41q-54 -67 -170 -67q-95 0 -144 42t-49 135q0 46 10 93q24 129 83 185.5t176 56.5zM309 479
q-87 0 -130 -40t-64 -147q-11 -61 -11 -96q0 -70 34 -98.5t111 -28.5q84 0 128.5 40.5t65.5 148.5q11 61 11 96q0 68 -34.5 96.5t-110.5 28.5z" />
    <glyph glyph-name="h" unicode="h" horiz-adv-x="563" 
d="M22 0l145 743h58l-53 -271q49 58 159 58q179 0 179 -147q0 -31 -7 -63l-62 -320h-57l62 323q6 29 6 54q0 56 -32.5 79t-97.5 23q-81 0 -121 -34.5t-58 -121.5l-63 -323h-58z" />
    <glyph glyph-name="i" unicode="i" horiz-adv-x="202" 
d="M22 0l100 514h58l-100 -514h-58zM181 703q37 0 37 -36q0 -52 -48 -52q-37 0 -37 36q0 52 48 52z" />
    <glyph glyph-name="j" unicode="j" horiz-adv-x="202" 
d="M24 10l98 504h58l-99 -509q-21 -106 -62 -144t-129 -38q-46 0 -62 1l20 50q15 -1 44 -1q61 0 88.5 28t43.5 109zM181 703q37 0 37 -36q0 -52 -48 -52q-37 0 -37 36q0 52 48 52z" />
    <glyph glyph-name="k" unicode="k" horiz-adv-x="510" 
d="M449 0h-72l-246 263l-51 -263h-58l145 743h58l-86 -442l300 213h81l-332 -235z" />
    <glyph glyph-name="l" unicode="l" horiz-adv-x="202" 
d="M22 0l145 743h58l-145 -743h-58z" />
    <glyph glyph-name="m" unicode="m" horiz-adv-x="827" 
d="M392 0h-57l65 334q5 25 5 52q0 52 -28 72.5t-84 20.5q-63 0 -97.5 -33.5t-50.5 -111.5l-65 -334h-58l68 347q19 95 67 139t136 44q126 0 152 -81q48 81 165 81q85 0 125.5 -34t40.5 -104q0 -22 -7 -62l-64 -330h-57l65 334q5 32 5 52q0 52 -28 72.5t-85 20.5
q-63 0 -97 -32t-50 -110z" />
    <glyph glyph-name="n" unicode="n" horiz-adv-x="564" 
d="M80 0h-58l65 332q20 106 75 152t159 46q189 0 189 -150q0 -28 -6 -60l-62 -320h-58l63 323q6 30 6 52q0 57 -33.5 80.5t-100.5 23.5q-79 0 -119 -33t-56 -118z" />
    <glyph glyph-name="o" unicode="o" horiz-adv-x="556" 
d="M239 -16q-97 0 -146 42.5t-49 140.5q0 42 11 105q24 136 84.5 197t178.5 61q96 0 145 -42t49 -140q0 -51 -11 -105q-27 -138 -86 -198.5t-176 -60.5zM245 35q88 0 131.5 44.5t65.5 160.5q13 70 13 109q0 71 -34 100.5t-110 29.5q-89 0 -131.5 -44t-64.5 -161
q-13 -70 -13 -108q0 -72 34 -101.5t109 -29.5z" />
    <glyph glyph-name="p" unicode="p" horiz-adv-x="573" 
d="M263 -16q-138 0 -170 88l-48 -247h-57l87 450q26 138 85.5 196.5t170.5 58.5q98 0 148 -43.5t50 -140.5q0 -51 -11 -106q-26 -135 -85 -195.5t-170 -60.5zM264 35q86 0 128.5 43.5t66.5 160.5q12 63 12 106q0 73 -34.5 103.5t-108.5 30.5q-87 0 -129.5 -43.5
t-66.5 -159.5q-13 -70 -13 -109q0 -73 34.5 -102.5t110.5 -29.5z" />
    <glyph glyph-name="q" unicode="q" horiz-adv-x="571" 
d="M313 530q98 0 147 -42t49 -138q0 -45 -12 -105l-82 -420h-57l44 228q-56 -69 -168 -69q-95 0 -143.5 43t-48.5 141q0 50 11 105q27 135 86 196t174 61zM308 479q-87 0 -129.5 -43.5t-66.5 -159.5q-13 -70 -13 -109q0 -73 34.5 -102.5t110.5 -29.5q82 0 126.5 44t67.5 160
q12 63 12 106q0 73 -34 103.5t-108 30.5z" />
    <glyph glyph-name="r" unicode="r" horiz-adv-x="371" 
d="M142 318l-62 -318h-58l63 323q22 115 76.5 154t154.5 39q38 0 78 -2l-20 -51q-38 2 -64 2q-76 0 -113.5 -29.5t-54.5 -117.5z" />
    <glyph glyph-name="s" unicode="s" horiz-adv-x="471" 
d="M122 395q-4 -12 -4 -26q0 -26 13.5 -39t54.5 -25l100 -29q62 -18 89 -46t27 -71q0 -23 -6 -47q-13 -56 -59.5 -85t-150.5 -29q-144 0 -189 2l20 51q59 -2 171 -2q81 0 113 18t40 56q3 17 3 29q0 27 -17 43.5t-55 27.5l-109 31q-56 16 -78 40.5t-22 69.5q0 20 4 37
q14 63 64 89t139 26q86 0 182 -4l-20 -51q-87 4 -178 4q-62 0 -93 -16t-39 -54z" />
    <glyph glyph-name="t" unicode="t" horiz-adv-x="373" 
d="M208 655l-28 -141h197l-20 -50h-187l-55 -285q-6 -31 -6 -52q0 -43 23 -59.5t76 -16.5h86l-20 -51h-70q-78 0 -115 28t-37 92q0 34 7 69l89 457z" />
    <glyph glyph-name="u" unicode="u" horiz-adv-x="558" 
d="M478 514h58l-64 -329q-21 -107 -75 -154t-158 -47q-185 0 -185 150q0 30 6 61l62 319h58l-63 -323q-6 -30 -6 -53q0 -57 32.5 -80t98.5 -23q77 0 116 34.5t57 121.5z" />
    <glyph glyph-name="v" unicode="v" horiz-adv-x="496" 
d="M69 514h59l82 -453l257 453h61l-295 -514h-65z" />
    <glyph glyph-name="w" unicode="w" horiz-adv-x="724" 
d="M384 514h57l38 -444l214 444h57l-254 -514h-59l-39 438l-210 -438h-60l-54 514h56l40 -445z" />
    <glyph glyph-name="x" unicode="x" horiz-adv-x="484" 
d="M359 0l-122 233l-207 -233h-65l248 276l-126 238h60l105 -203l178 203h65l-220 -246l144 -268h-60z" />
    <glyph glyph-name="y" unicode="y" horiz-adv-x="563" 
d="M205 -126q86 0 127.5 38.5t59.5 131.5l6 31q-50 -57 -157 -57q-180 0 -180 149q0 27 6 62l55 285h58l-56 -289q-6 -30 -6 -54q0 -57 32 -79.5t98 -22.5q81 0 122.5 34t56.5 119l56 292h58l-90 -465q-24 -119 -78 -172.5t-169 -53.5q-41 0 -177 2l20 52q78 -3 158 -3z" />
    <glyph glyph-name="z" unicode="z" horiz-adv-x="481" 
d="M-2 0l6 43l391 421h-307l20 50h368l-7 -43l-390 -420h325l-20 -51h-386z" />
    <glyph glyph-name="braceleft" unicode="{" horiz-adv-x="373" 
d="M282 -124l-22 -51h-42q-146 0 -146 114q0 19 5 47l32 165q4 20 4 37q0 30 -15.5 42.5t-53.5 12.5h-24l10 50h22q50 0 70.5 20t32.5 78l34 172q15 80 55 114.5t132 34.5h57l-22 -51h-39q-65 0 -91 -21.5t-36 -76.5l-36 -180q-10 -53 -28 -78.5t-53 -36.5q40 -16 40 -77
q0 -24 -4 -44l-32 -166q-4 -16 -4 -37q0 -36 22.5 -52t75.5 -16h56z" />
    <glyph glyph-name="bar" unicode="|" horiz-adv-x="208" 
d="M-9 -175l178 918h57l-177 -918h-58z" />
    <glyph glyph-name="braceright" unicode="}" horiz-adv-x="373" 
d="M97 661l22 51h42q146 0 146 -114q0 -19 -5 -47l-32 -165q-4 -17 -4 -37q0 -30 15.5 -42.5t53.5 -12.5h24l-10 -50h-22q-50 0 -70.5 -20t-32.5 -78l-34 -172q-17 -80 -56 -114.5t-131 -34.5h-57l22 51h39q65 0 91 21.5t36 76.5l36 180q11 55 28.5 80t52.5 36
q-40 16 -40 76q0 24 4 44l32 166q4 16 4 37q0 36 -22.5 52t-75.5 16h-56z" />
    <glyph glyph-name="asciitilde" unicode="~" horiz-adv-x="595" 
d="M488 416h52l-5 -27q-22 -123 -114 -123q-44 0 -106 44l-13 9q-26 18 -37 25.5t-26.5 13.5t-30.5 6q-24 0 -39.5 -16t-23.5 -54l-5 -27h-52l5 27q22 123 114 123q44 0 106 -44l13 -9q26 -18 37 -25.5t26.5 -13.5t30.5 -6q24 0 39.5 16t23.5 54z" />
    <glyph glyph-name="uni00A0" unicode="&#xa0;" horiz-adv-x="250" 
 />
    <glyph glyph-name="exclamdown" unicode="&#xa1;" horiz-adv-x="211" 
d="M47 -201h-60l36 186q12 65 34 166l40 184h48l-31 -184q-10 -71 -32 -168zM139 421q-40 0 -40 40q0 55 50 55q40 0 40 -40q0 -55 -50 -55z" />
    <glyph glyph-name="cent" unicode="&#xa2;" horiz-adv-x="595" 
d="M415 465h-24l-81 -415q9 -1 29 -1q27 0 99 2l-19 -51q-15 -2 -84 -2q-27 0 -35 1l-18 -95h-47l19 99q-74 14 -107 55.5t-33 113.5q0 42 11 103q24 124 78.5 176.5t149.5 61.5l19 100h48l-19 -97h22q27 0 89 -2l-19 -51q-40 2 -78 2zM172 177q0 -57 23 -85.5t69 -37.5
l79 407q-68 -10 -104 -51t-56 -137q-11 -61 -11 -96z" />
    <glyph glyph-name="sterling" unicode="&#xa3;" horiz-adv-x="595" 
d="M76 329l21 51h69l11 54q28 142 95 195t215 53q36 0 92 -2l-21 -53q-66 2 -84 2q-120 0 -168.5 -39t-72.5 -159l-10 -51h233l-21 -51h-223l-53 -276h307l-21 -53h-433l21 53h69l54 276h-80z" />
    <glyph glyph-name="currency" unicode="&#xa4;" horiz-adv-x="595" 
d="M159 354q0 -68 43.5 -113t116.5 -45t116.5 45t43.5 113t-43.5 113t-116.5 45t-116.5 -45t-43.5 -113zM528 354q0 -71 -44 -128l68 -67l-35 -35l-69 67q-57 -44 -129 -44t-129 44l-68 -67l-36 35l68 67q-44 57 -44 128t44 128l-68 67l36 35l68 -67q55 44 129 44t129 -44
l69 67l35 -35l-68 -67q44 -57 44 -128z" />
    <glyph glyph-name="yen" unicode="&#xa5;" horiz-adv-x="595" 
d="M481 159h-174l-31 -159h-57l31 159h-173l9 49h173l19 96h-173l10 48h152l-131 328h58l122 -320l247 320h64l-258 -328h150l-9 -48h-174l-20 -96h174z" />
    <glyph glyph-name="brokenbar" unicode="&#xa6;" horiz-adv-x="208" 
d="M111 437l59 306h57l-59 -306h-57zM-8 -175l59 306h57l-58 -306h-58z" />
    <glyph glyph-name="section" unicode="&#xa7;" horiz-adv-x="552" 
d="M202 -133q88 0 124.5 22t49.5 68q5 25 5 37q0 66 -87 87l-101 25q-132 31 -132 137q0 30 13 69q31 98 124 122q-84 32 -84 110q0 23 4 40q15 70 72.5 100.5t161.5 30.5q75 0 188 -4l-19 -51q-85 4 -185 4q-75 0 -114 -20t-49 -65q-3 -18 -3 -33q0 -31 20.5 -50.5
t70.5 -31.5l104 -25q132 -32 132 -137q0 -30 -13 -71q-31 -98 -126 -121q79 -35 79 -113q0 -23 -8 -53q-19 -66 -72 -97t-161 -31q-81 0 -217 2l20 51q112 -2 203 -2zM213 154l34 -8q27 -6 52 -6q48 0 82.5 27.5t49.5 75.5q9 26 9 53q0 73 -95 94l-33 8q-25 7 -53 7
q-48 0 -82 -27t-49 -76q-10 -27 -10 -53q0 -72 95 -95z" />
    <glyph glyph-name="dieresis" unicode="&#xa8;" horiz-adv-x="500" 
d="M261 699q35 0 35 -34q0 -50 -46 -50q-36 0 -36 34q0 50 47 50zM408 699q35 0 35 -34q0 -50 -46 -50q-36 0 -36 34q0 50 47 50z" />
    <glyph glyph-name="copyright" unicode="&#xa9;" horiz-adv-x="819" 
d="M546 574l-10 -47q-27 1 -77 1q-75 0 -103.5 -29.5t-28.5 -118.5v-47q0 -89 29 -119t115 -30q52 0 75 1l-11 -47q-40 -2 -74 -2q-105 0 -146.5 46.5t-41.5 149.5v48q0 105 42.5 150.5t141.5 45.5q41 0 89 -2zM791 356q0 -194 -79.5 -275t-282.5 -81q-202 0 -282.5 80.5
t-80.5 275.5q0 194 80 275t283 81t282.5 -80t79.5 -276zM742 356q0 90 -13.5 146t-49 94.5t-95 54t-155.5 15.5t-156 -15t-95.5 -53.5t-48.5 -94.5t-13 -147t13 -147t48.5 -94t95.5 -53.5t156 -15.5t155.5 15.5t95 53.5t49 94.5t13.5 146.5z" />
    <glyph glyph-name="ordfeminine" unicode="&#xaa;" horiz-adv-x="436" 
d="M281 669q-84 0 -125 -1l17 45q33 1 113 1q81 0 115.5 -28t34.5 -82q0 -27 -5 -51l-40 -200q-5 -24 -16 -33t-37 -13q-54 -7 -100 -7q-160 0 -160 106q0 17 5 44q13 57 51 85.5t112 28.5q100 0 130 -44l7 36q4 21 4 42q0 39 -23.5 55t-82.5 16zM244 344q53 0 98 6l14 68
q4 15 4 33q0 38 -26 53.5t-86 15.5q-58 0 -83.5 -16t-33.5 -60q-4 -16 -4 -31q0 -42 28.5 -55.5t88.5 -13.5z" />
    <glyph glyph-name="guillemotleft" unicode="&#xab;" horiz-adv-x="498" 
d="M37 287l234 178l-14 -69l-179 -139l125 -139l-12 -63l-165 177zM256 287l234 178l-14 -69l-179 -139l125 -139l-12 -63l-165 177z" />
    <glyph glyph-name="logicalnot" unicode="&#xac;" horiz-adv-x="595" 
d="M480 217h-57l37 190h-355l10 52h411z" />
    <glyph glyph-name="uni00AD" unicode="&#xad;" horiz-adv-x="359" 
d="M58 320h279l-21 -53h-279z" />
    <glyph glyph-name="registered" unicode="&#xae;" horiz-adv-x="584" 
d="M591 484q0 -138 -59.5 -194t-195.5 -56t-195 56t-59 194t59 194t195 56t195.5 -56t59.5 -194zM128 484q0 -119 45 -163.5t163 -44.5q119 0 164 44.5t45 163.5t-45 163.5t-164 44.5q-118 0 -163 -44.5t-45 -163.5zM438 539v-9q0 -56 -46 -72l58 -101h-52l-51 94h-59v-94
h-47v263h105q48 0 70 -19t22 -62zM392 530v7q0 26 -11 35t-42 9h-52v-91h52q31 0 42 8t11 32z" />
    <glyph glyph-name="overscore" unicode="&#xaf;" horiz-adv-x="500" 
d="M194 626l9 48h257l-9 -48h-257z" />
    <glyph glyph-name="degree" unicode="&#xb0;" horiz-adv-x="357" 
d="M397 598q0 -70 -39 -107t-113 -37t-112.5 37t-38.5 107t38.5 107t112.5 37t113 -37t39 -107zM347 598q0 52 -24 76.5t-78 24.5t-78 -24.5t-24 -76.5t24 -76.5t78 -24.5t78 24.5t24 76.5z" />
    <glyph glyph-name="plusminus" unicode="&#xb1;" horiz-adv-x="595" 
d="M457 1h-416l10 52h416zM245 130l37 190h-183l10 52h183l37 190h55l-36 -190h183l-10 -52h-183l-37 -190h-56z" />
    <glyph glyph-name="uni00B2" unicode="&#xb2;" 
d="M328 334l-17 -46h-246l12 63q12 61 36.5 89.5t84.5 52.5l56 22q49 20 58 42q6 18 6 34q0 24 -16 34.5t-54 10.5q-89 0 -116 -2l17 45q34 2 104 2q116 0 116 -85q0 -31 -11 -53q-10 -25 -29 -40.5t-57 -30.5l-57 -22q-45 -18 -62 -36t-25 -59l-4 -21h204z" />
    <glyph glyph-name="uni00B3" unicode="&#xb3;" 
d="M62 289l17 45q37 -1 112 -1q49 0 73 14t32 51q3 12 3 24q0 27 -16 38.5t-52 11.5h-102l17 44h89q70 0 86 47q4 11 4 27q0 24 -16 34.5t-52 10.5q-14 0 -57.5 -0.5t-61.5 -0.5l19 46q35 1 103 1q116 0 116 -82q0 -25 -6 -43q-17 -47 -70 -61q50 -17 50 -74q0 -19 -5 -37
q-13 -50 -51 -73.5t-107 -23.5q-95 0 -125 2z" />
    <glyph glyph-name="acute" unicode="&#xb4;" horiz-adv-x="500" 
d="M221 599l141 126h74l-151 -126h-64z" />
    <glyph glyph-name="uni00B5" unicode="&#xb5;" horiz-adv-x="559" 
d="M266 -9q-142 0 -176 71l-45 -237h-56l133 689h58l-62 -317q-6 -27 -6 -49q0 -58 38 -82t118 -24q59 0 121 8l91 464h58l-91 -462q-5 -27 -16.5 -37.5t-42.5 -15.5q-56 -8 -122 -8z" />
    <glyph glyph-name="paragraph" unicode="&#xb6;" horiz-adv-x="637" 
d="M474 -175h-52l163 841h-136l-163 -841h-53l90 465h-61q-188 0 -188 160q0 28 6 63q20 103 85 151t178 48h304z" />
    <glyph glyph-name="middot" unicode="&#xb7;" horiz-adv-x="174" 
d="M109 389q40 0 40 -40q0 -55 -50 -55q-40 0 -40 40q0 55 50 55z" />
    <glyph glyph-name="cedilla" unicode="&#xb8;" horiz-adv-x="500" 
d="M272 -102q0 -97 -123 -97q-49 0 -81 2l18 42q30 -2 68 -2q34 0 49.5 11.5t15.5 39.5q0 15 -9.5 20.5t-31.5 5.5q-42 0 -59 -1l18 41q15 1 52 1q83 0 83 -63z" />
    <glyph glyph-name="uni00B9" unicode="&#xb9;" 
d="M140 635l18 45h142l-68 -346h102l-17 -46h-240l18 46h87l59 301h-101z" />
    <glyph glyph-name="ordmasculine" unicode="&#xba;" horiz-adv-x="452" 
d="M250 344q66 0 96 32t48 120q10 47 10 84q0 52 -25 73t-80 21q-66 0 -96.5 -32.5t-48.5 -119.5q-10 -47 -10 -83q0 -53 25 -74t81 -21zM243 299q-75 0 -113.5 32.5t-38.5 107.5q0 35 9 81q21 107 66 153t139 46q76 0 114.5 -32.5t38.5 -107.5q0 -35 -9 -81
q-21 -107 -66.5 -153t-139.5 -46z" />
    <glyph glyph-name="guillemotright" unicode="&#xbb;" horiz-adv-x="498" 
d="M462 232l-234 -177l14 68l179 139l-125 140l12 63l165 -178zM243 232l-233 -177l14 68l178 139l-124 140l12 63l165 -178z" />
    <glyph glyph-name="onequarter" unicode="&#xbc;" horiz-adv-x="839" 
d="M152 0l554 680h60l-554 -680h-60zM789 134l-18 -44h-51l-17 -90h-48l17 90h-206l8 40l192 262h54l-188 -258h149l22 116l50 8l-24 -124h60zM140 635l18 45h142l-68 -346h102l-17 -46h-240l18 46h87l59 301h-101z" />
    <glyph glyph-name="onehalf" unicode="&#xbd;" horiz-adv-x="839" 
d="M130 0l554 680h60l-554 -680h-60zM739 46l-17 -46h-246l12 63q12 61 36.5 89.5t84.5 52.5l56 22q49 20 58 42q6 18 6 34q0 24 -16 34.5t-54 10.5q-89 0 -116 -2l17 45q34 2 104 2q116 0 116 -85q0 -31 -11 -53q-10 -25 -29 -40.5t-57 -30.5l-57 -22q-45 -18 -62 -36
t-25 -59l-4 -21h204zM140 635l18 45h142l-68 -346h102l-17 -46h-240l18 46h87l59 301h-101z" />
    <glyph glyph-name="threequarters" unicode="&#xbe;" horiz-adv-x="839" 
d="M148 0l554 680h60l-554 -680h-60zM789 134l-18 -44h-51l-17 -90h-48l17 90h-206l8 40l192 262h54l-188 -258h149l22 116l50 8l-24 -124h60zM62 289l17 45q37 -1 112 -1q49 0 73 14t32 51q3 12 3 24q0 27 -16 38.5t-52 11.5h-102l17 44h89q70 0 86 47q4 11 4 27
q0 24 -16 34.5t-52 10.5q-14 0 -57.5 -0.5t-61.5 -0.5l19 46q35 1 103 1q116 0 116 -82q0 -25 -6 -43q-17 -47 -70 -61q50 -17 50 -74q0 -19 -5 -37q-13 -50 -51 -73.5t-107 -23.5q-95 0 -125 2z" />
    <glyph glyph-name="questiondown" unicode="&#xbf;" horiz-adv-x="454" 
d="M177 -202q-94 0 -142 33.5t-48 110.5q0 15 3 36q11 79 51.5 117t118.5 70q66 27 84 46.5t30 79.5l9 45h57l-10 -55q-15 -73 -43.5 -103.5t-103.5 -58.5q-67 -25 -95.5 -54t-36.5 -86q-3 -21 -3 -36q0 -52 31.5 -73t103.5 -21q115 0 166 2l-21 -50q-55 -3 -151 -3z
M329 421q-40 0 -40 40q0 55 50 55q40 0 40 -40q0 -55 -50 -55z" />
    <glyph glyph-name="Agrave" unicode="&#xc0;" horiz-adv-x="648" 
d="M33 0h-62l413 712h59l132 -712h-59l-40 228h-314zM402 646l-210 -365h275zM383 892l96 -119h-59l-108 119h71z" />
    <glyph glyph-name="Aacute" unicode="&#xc1;" horiz-adv-x="648" 
d="M33 0h-62l413 712h59l132 -712h-59l-40 228h-314zM402 646l-210 -365h275zM363 773l138 119h80l-151 -119h-67z" />
    <glyph glyph-name="Acircumflex" unicode="&#xc2;" horiz-adv-x="648" 
d="M33 0h-62l413 712h59l132 -712h-59l-40 228h-314zM402 646l-210 -365h275zM510 773l-72 79l-104 -79h-65l141 115h62l98 -115h-60z" />
    <glyph glyph-name="Atilde" unicode="&#xc3;" horiz-adv-x="648" 
d="M33 0h-62l413 712h59l132 -712h-59l-40 228h-314zM402 646l-210 -365h275zM499 770q-33 0 -67 23l-30 19q-27 17 -44 17q-15 0 -24.5 -9.5t-17.5 -37.5l-3 -12h-46l2 11q12 49 32 71.5t60 22.5q33 0 67 -23l30 -19q27 -17 44 -17q15 0 24.5 9.5t17.5 37.5l3 12h46l-2 -11
q-12 -49 -32 -71.5t-60 -22.5z" />
    <glyph glyph-name="Adieresis" unicode="&#xc4;" horiz-adv-x="648" 
d="M33 0h-62l413 712h59l132 -712h-59l-40 228h-314zM402 646l-210 -365h275zM360 859q36 0 36 -35q0 -51 -46 -51q-37 0 -37 35q0 51 47 51zM512 859q36 0 36 -35q0 -51 -46 -51q-37 0 -37 35q0 51 47 51z" />
    <glyph glyph-name="Aring" unicode="&#xc5;" horiz-adv-x="648" 
d="M33 0h-62l398 686q-61 20 -61 84q0 6 2 22q20 112 131 112q49 0 78 -23t29 -67q0 -6 -2 -22q-17 -93 -98 -109l127 -683h-59l-40 228h-314zM402 646l-210 -365h275zM437 862q-36 0 -52.5 -14t-25.5 -46q-4 -13 -4 -30q0 -50 64 -50q36 0 52.5 14t25.5 46q4 13 4 30
q0 50 -64 50z" />
    <glyph glyph-name="AE" unicode="&#xc6;" horiz-adv-x="956" 
d="M982 712l-22 -54h-374l-52 -265h363l-21 -54h-352l-56 -285h397l-21 -54h-445l45 233h-242l-178 -233h-66l551 712h473zM520 647l-278 -361h213l70 361h-5z" />
    <glyph glyph-name="Ccedilla" unicode="&#xc7;" horiz-adv-x="565" 
d="M595 711l-22 -54q-45 3 -125 3q-67 0 -112.5 -12.5t-84 -45t-64 -92t-43.5 -152.5q-15 -75 -15 -129q0 -99 50.5 -138t162.5 -39q63 0 135 2l-22 -54q-21 -2 -121 -2q-142 0 -204 57t-62 170q0 65 16 142q21 103 52 170.5t77.5 106.5t103 54.5t136.5 15.5q105 0 142 -3z
M349 -122q-13 -77 -123 -77q-35 0 -83 3l18 43q30 -2 70 -2q66 0 66 49q0 15 -10 20t-32 5q-44 0 -61 -1l18 42q15 1 54 1q85 0 85 -63q0 -6 -2 -20z" />
    <glyph glyph-name="Egrave" unicode="&#xc8;" horiz-adv-x="588" 
d="M529 393l-21 -54h-352l-56 -285h397l-21 -54h-445l139 712h444l-22 -54h-374l-52 -265h363zM383 892l96 -119h-59l-108 119h71z" />
    <glyph glyph-name="Eacute" unicode="&#xc9;" horiz-adv-x="588" 
d="M529 393l-21 -54h-352l-56 -285h397l-21 -54h-445l139 712h444l-22 -54h-374l-52 -265h363zM327 773l138 119h80l-151 -119h-67z" />
    <glyph glyph-name="Ecircumflex" unicode="&#xca;" horiz-adv-x="588" 
d="M529 393l-21 -54h-352l-56 -285h397l-21 -54h-445l139 712h444l-22 -54h-374l-52 -265h363zM493 773l-72 79l-104 -79h-65l141 115h62l98 -115h-60z" />
    <glyph glyph-name="Edieresis" unicode="&#xcb;" horiz-adv-x="588" 
d="M529 393l-21 -54h-352l-56 -285h397l-21 -54h-445l139 712h444l-22 -54h-374l-52 -265h363zM340 859q36 0 36 -35q0 -51 -46 -51q-37 0 -37 35q0 51 47 51zM492 859q36 0 36 -35q0 -51 -46 -51q-37 0 -37 35q0 51 47 51z" />
    <glyph glyph-name="Igrave" unicode="&#xcc;" horiz-adv-x="220" 
d="M170 712h58l-139 -712h-58zM156 892l96 -119h-59l-108 119h71z" />
    <glyph glyph-name="Iacute" unicode="&#xcd;" horiz-adv-x="220" 
d="M170 712h58l-139 -712h-58zM163 773l138 119h80l-151 -119h-67z" />
    <glyph glyph-name="Icircumflex" unicode="&#xce;" horiz-adv-x="220" 
d="M170 712h58l-139 -712h-58zM294 773l-72 79l-104 -79h-65l141 115h62l98 -115h-60z" />
    <glyph glyph-name="Idieresis" unicode="&#xcf;" horiz-adv-x="220" 
d="M170 712h58l-139 -712h-58zM148 859q36 0 36 -35q0 -51 -46 -51q-37 0 -37 35q0 51 47 51zM300 859q36 0 36 -35q0 -51 -46 -51q-37 0 -37 35q0 51 47 51z" />
    <glyph glyph-name="Eth" unicode="&#xd0;" horiz-adv-x="686" 
d="M644 347q-36 -194 -126.5 -270.5t-254.5 -76.5h-212l65 334h-71l9 50h72l64 328h202q138 0 202 -57.5t64 -178.5q0 -54 -14 -129zM389 658h-151l-54 -274h186l-10 -50h-186l-54 -280h150q141 0 209.5 64t102.5 231q15 73 15 127q0 98 -49.5 140t-158.5 42z" />
    <glyph glyph-name="Ntilde" unicode="&#xd1;" horiz-adv-x="686" 
d="M637 712h56l-138 -712h-53l-294 621l-120 -621h-57l139 712h54l292 -620zM512 770q-33 0 -67 23l-30 19q-27 17 -44 17q-15 0 -24.5 -9.5t-17.5 -37.5l-3 -12h-46l2 11q12 49 32 71.5t60 22.5q33 0 67 -23l30 -19q27 -17 44 -17q15 0 24.5 9.5t17.5 37.5l3 12h46l-2 -11
q-12 -49 -32 -71.5t-60 -22.5z" />
    <glyph glyph-name="Ograve" unicode="&#xd2;" horiz-adv-x="694" 
d="M311 35q60 0 100.5 12.5t76 46t59.5 96.5t42 161q17 94 17 153q0 100 -44.5 137t-141.5 37q-59 0 -99.5 -12.5t-75.5 -46.5t-59.5 -97t-42.5 -160q-17 -94 -17 -153q0 -100 44 -137t141 -37zM307 -18q-125 0 -182.5 53t-57.5 177q0 66 15 154q35 202 114.5 283.5
t228.5 81.5q125 0 182.5 -53t57.5 -177q0 -65 -15 -154q-35 -202 -114.5 -283.5t-228.5 -81.5zM427 892l96 -119h-59l-108 119h71z" />
    <glyph glyph-name="Oacute" unicode="&#xd3;" horiz-adv-x="694" 
d="M311 35q60 0 100.5 12.5t76 46t59.5 96.5t42 161q17 94 17 153q0 100 -44.5 137t-141.5 37q-59 0 -99.5 -12.5t-75.5 -46.5t-59.5 -97t-42.5 -160q-17 -94 -17 -153q0 -100 44 -137t141 -37zM307 -18q-125 0 -182.5 53t-57.5 177q0 66 15 154q35 202 114.5 283.5
t228.5 81.5q125 0 182.5 -53t57.5 -177q0 -65 -15 -154q-35 -202 -114.5 -283.5t-228.5 -81.5zM361 773l138 119h80l-151 -119h-67z" />
    <glyph glyph-name="Ocircumflex" unicode="&#xd4;" horiz-adv-x="694" 
d="M311 35q60 0 100.5 12.5t76 46t59.5 96.5t42 161q17 94 17 153q0 100 -44.5 137t-141.5 37q-59 0 -99.5 -12.5t-75.5 -46.5t-59.5 -97t-42.5 -160q-17 -94 -17 -153q0 -100 44 -137t141 -37zM307 -18q-125 0 -182.5 53t-57.5 177q0 66 15 154q35 202 114.5 283.5
t228.5 81.5q125 0 182.5 -53t57.5 -177q0 -65 -15 -154q-35 -202 -114.5 -283.5t-228.5 -81.5zM531 773l-72 79l-104 -79h-65l141 115h62l98 -115h-60z" />
    <glyph glyph-name="Otilde" unicode="&#xd5;" horiz-adv-x="694" 
d="M311 35q60 0 100.5 12.5t76 46t59.5 96.5t42 161q17 94 17 153q0 100 -44.5 137t-141.5 37q-59 0 -99.5 -12.5t-75.5 -46.5t-59.5 -97t-42.5 -160q-17 -94 -17 -153q0 -100 44 -137t141 -37zM307 -18q-125 0 -182.5 53t-57.5 177q0 66 15 154q35 202 114.5 283.5
t228.5 81.5q125 0 182.5 -53t57.5 -177q0 -65 -15 -154q-35 -202 -114.5 -283.5t-228.5 -81.5zM517 770q-33 0 -67 23l-30 19q-27 17 -44 17q-15 0 -24.5 -9.5t-17.5 -37.5l-3 -12h-46l2 11q12 49 32 71.5t60 22.5q33 0 67 -23l30 -19q27 -17 44 -17q15 0 24.5 9.5
t17.5 37.5l3 12h46l-2 -11q-12 -49 -32 -71.5t-60 -22.5z" />
    <glyph glyph-name="Odieresis" unicode="&#xd6;" horiz-adv-x="694" 
d="M311 35q60 0 100.5 12.5t76 46t59.5 96.5t42 161q17 94 17 153q0 100 -44.5 137t-141.5 37q-59 0 -99.5 -12.5t-75.5 -46.5t-59.5 -97t-42.5 -160q-17 -94 -17 -153q0 -100 44 -137t141 -37zM307 -18q-125 0 -182.5 53t-57.5 177q0 66 15 154q35 202 114.5 283.5
t228.5 81.5q125 0 182.5 -53t57.5 -177q0 -65 -15 -154q-35 -202 -114.5 -283.5t-228.5 -81.5zM378 859q36 0 36 -35q0 -51 -46 -51q-37 0 -37 35q0 51 47 51zM530 859q36 0 36 -35q0 -51 -46 -51q-37 0 -37 35q0 51 47 51z" />
    <glyph glyph-name="multiply" unicode="&#xd7;" horiz-adv-x="595" 
d="M422 158l-112 143l-169 -143l-34 40l169 144l-115 148l42 35l116 -146l171 146l35 -41l-173 -147l114 -144z" />
    <glyph glyph-name="Oslash" unicode="&#xd8;" horiz-adv-x="694" 
d="M649 347q-35 -202 -114 -283.5t-228 -81.5q-98 0 -154 32l-73 -103h-57l93 132q-49 55 -49 169q0 66 15 154q35 202 114.5 283.5t228.5 81.5q100 0 154 -32l73 103h57l-94 -133q50 -56 50 -168q0 -71 -16 -154zM126 209q0 -76 25 -116l395 559q-42 26 -126 26
q-59 0 -99.5 -12.5t-75.5 -46.5t-59.5 -97t-42.5 -160q-17 -94 -17 -153zM588 351q17 94 17 153q0 75 -25 115l-395 -559q41 -25 126 -25q59 0 99.5 12.5t76 46t60 96.5t41.5 161z" />
    <glyph glyph-name="Ugrave" unicode="&#xd9;" horiz-adv-x="659" 
d="M614 712h58l-93 -482q-27 -137 -93.5 -192.5t-187.5 -55.5q-232 0 -232 189q0 37 8 82l89 459h58l-89 -462q-9 -49 -9 -76q0 -78 43 -108.5t133 -30.5q99 0 150 44t74 164zM395 892l96 -119h-59l-108 119h71z" />
    <glyph glyph-name="Uacute" unicode="&#xda;" horiz-adv-x="659" 
d="M614 712h58l-93 -482q-27 -137 -93.5 -192.5t-187.5 -55.5q-232 0 -232 189q0 37 8 82l89 459h58l-89 -462q-9 -49 -9 -76q0 -78 43 -108.5t133 -30.5q99 0 150 44t74 164zM335 773l138 119h80l-151 -119h-67z" />
    <glyph glyph-name="Ucircumflex" unicode="&#xdb;" horiz-adv-x="659" 
d="M614 712h58l-93 -482q-27 -137 -93.5 -192.5t-187.5 -55.5q-232 0 -232 189q0 37 8 82l89 459h58l-89 -462q-9 -49 -9 -76q0 -78 43 -108.5t133 -30.5q99 0 150 44t74 164zM518 773l-72 79l-104 -79h-65l141 115h62l98 -115h-60z" />
    <glyph glyph-name="Udieresis" unicode="&#xdc;" horiz-adv-x="659" 
d="M614 712h58l-93 -482q-27 -137 -93.5 -192.5t-187.5 -55.5q-232 0 -232 189q0 37 8 82l89 459h58l-89 -462q-9 -49 -9 -76q0 -78 43 -108.5t133 -30.5q99 0 150 44t74 164zM360 859q36 0 36 -35q0 -51 -46 -51q-37 0 -37 35q0 51 47 51zM512 859q36 0 36 -35
q0 -51 -46 -51q-37 0 -37 35q0 51 47 51z" />
    <glyph glyph-name="Yacute" unicode="&#xdd;" horiz-adv-x="606" 
d="M104 712h61l153 -353l292 353h68l-337 -404l-60 -308h-58l60 308zM320 773l138 119h80l-151 -119h-67z" />
    <glyph glyph-name="Thorn" unicode="&#xde;" horiz-adv-x="596" 
d="M228 712l-28 -139h146q115 0 172.5 -39t57.5 -125q0 -21 -5 -53q-17 -110 -85 -153.5t-190 -43.5h-176l-31 -159h-59l140 712h58zM344 519h-154l-60 -306h170q103 0 149 30t62 108q7 35 7 54q0 63 -43 88.5t-131 25.5z" />
    <glyph glyph-name="germandbls" unicode="&#xdf;" horiz-adv-x="549" 
d="M183 3l18 49q23 -3 48 -3q36 0 63.5 6t57 23t48.5 53.5t27 90.5q2 9 2 39q0 120 -127 120h-60l20 52h44q64 0 104 27.5t53 98.5q3 16 3 39q0 102 -130 102q-75 0 -114 -39t-57 -135l-103 -526h-57l103 535q21 110 77 162.5t157 52.5q93 0 136.5 -41t43.5 -109
q0 -19 -4 -44q-21 -119 -125 -150q92 -33 92 -147q0 -20 -3 -41q-28 -220 -252 -220q-39 0 -65 5z" />
    <glyph glyph-name="agrave" unicode="&#xe0;" horiz-adv-x="535" 
d="M233 -9q-101 0 -152 31.5t-51 103.5q0 25 6 55q34 146 207 146q131 0 167 -63l10 52q7 35 7 55q0 49 -31.5 71.5t-105.5 22.5q-120 0 -159 -2l20 51q15 2 144 2q186 0 186 -141q0 -24 -7 -64l-51 -258q-5 -28 -16.5 -37.5t-41.5 -15.5q-56 -9 -132 -9zM240 42q54 0 128 9
l18 93q4 20 4 40q0 52 -35 73t-110 21q-71 0 -108 -24t-46 -82q-4 -17 -4 -40q0 -54 38 -72t115 -18zM301 725l96 -126h-57l-105 126h66z" />
    <glyph glyph-name="aacute" unicode="&#xe1;" horiz-adv-x="535" 
d="M233 -9q-101 0 -152 31.5t-51 103.5q0 25 6 55q34 146 207 146q131 0 167 -63l10 52q7 35 7 55q0 49 -31.5 71.5t-105.5 22.5q-120 0 -159 -2l20 51q15 2 144 2q186 0 186 -141q0 -24 -7 -64l-51 -258q-5 -28 -16.5 -37.5t-41.5 -15.5q-56 -9 -132 -9zM240 42q54 0 128 9
l18 93q4 20 4 40q0 52 -35 73t-110 21q-71 0 -108 -24t-46 -82q-4 -17 -4 -40q0 -54 38 -72t115 -18zM254 599l141 126h74l-151 -126h-64z" />
    <glyph glyph-name="acircumflex" unicode="&#xe2;" horiz-adv-x="535" 
d="M233 -9q-101 0 -152 31.5t-51 103.5q0 25 6 55q34 146 207 146q131 0 167 -63l10 52q7 35 7 55q0 49 -31.5 71.5t-105.5 22.5q-120 0 -159 -2l20 51q15 2 144 2q186 0 186 -141q0 -24 -7 -64l-51 -258q-5 -28 -16.5 -37.5t-41.5 -15.5q-56 -9 -132 -9zM240 42q54 0 128 9
l18 93q4 20 4 40q0 52 -35 73t-110 21q-71 0 -108 -24t-46 -82q-4 -17 -4 -40q0 -54 38 -72t115 -18zM408 599l-63 86l-98 -86h-62l135 124h60l86 -124h-58z" />
    <glyph glyph-name="atilde" unicode="&#xe3;" horiz-adv-x="535" 
d="M233 -9q-101 0 -152 31.5t-51 103.5q0 25 6 55q34 146 207 146q131 0 167 -63l10 52q7 35 7 55q0 49 -31.5 71.5t-105.5 22.5q-120 0 -159 -2l20 51q15 2 144 2q186 0 186 -141q0 -24 -7 -64l-51 -258q-5 -28 -16.5 -37.5t-41.5 -15.5q-56 -9 -132 -9zM240 42q54 0 128 9
l18 93q4 20 4 40q0 52 -35 73t-110 21q-71 0 -108 -24t-46 -82q-4 -17 -4 -40q0 -54 38 -72t115 -18zM330 678l29 -17q31 -18 47 -18q28 0 39 48l2 9h44l-2 -9q-20 -94 -85 -94q-31 0 -67 22l-29 17q-31 18 -47 18q-28 0 -39 -48l-2 -9h-44l2 9q20 94 85 94q31 0 67 -22z
" />
    <glyph glyph-name="adieresis" unicode="&#xe4;" horiz-adv-x="535" 
d="M233 -9q-101 0 -152 31.5t-51 103.5q0 25 6 55q34 146 207 146q131 0 167 -63l10 52q7 35 7 55q0 49 -31.5 71.5t-105.5 22.5q-120 0 -159 -2l20 51q15 2 144 2q186 0 186 -141q0 -24 -7 -64l-51 -258q-5 -28 -16.5 -37.5t-41.5 -15.5q-56 -9 -132 -9zM240 42q54 0 128 9
l18 93q4 20 4 40q0 52 -35 73t-110 21q-71 0 -108 -24t-46 -82q-4 -17 -4 -40q0 -54 38 -72t115 -18zM270 699q35 0 35 -34q0 -50 -46 -50q-36 0 -36 34q0 50 47 50zM417 699q35 0 35 -34q0 -50 -46 -50q-36 0 -36 34q0 50 47 50z" />
    <glyph glyph-name="aring" unicode="&#xe5;" horiz-adv-x="535" 
d="M233 -9q-101 0 -152 31.5t-51 103.5q0 25 6 55q34 146 207 146q131 0 167 -63l10 52q7 35 7 55q0 49 -31.5 71.5t-105.5 22.5q-120 0 -159 -2l20 51q15 2 144 2q186 0 186 -141q0 -24 -7 -64l-51 -258q-5 -28 -16.5 -37.5t-41.5 -15.5q-56 -9 -132 -9zM240 42q54 0 128 9
l18 93q4 20 4 40q0 52 -35 73t-110 21q-71 0 -108 -24t-46 -82q-4 -17 -4 -40q0 -54 38 -72t115 -18zM356 750q-36 0 -52.5 -14t-25.5 -46q-4 -13 -4 -30q0 -50 64 -50q36 0 52.5 14t25.5 46q4 13 4 30q0 50 -64 50zM334 568q-49 0 -78 23t-29 67q0 6 2 22q20 112 131 112
q49 0 78 -23t29 -67q0 -6 -2 -22q-20 -112 -131 -112z" />
    <glyph glyph-name="ae" unicode="&#xe6;" horiz-adv-x="872" 
d="M248 309h171q8 35 8 61q0 51 -31.5 73t-105.5 22q-120 0 -159 -2l20 51q15 2 144 2q148 0 175 -95q40 61 91 82.5t121 21.5q167 0 167 -114q0 -15 -5 -40q-14 -58 -61.5 -85t-145.5 -27h-169q-9 -43 -9 -80q0 -68 34.5 -99t116.5 -31q74 0 145 4l-20 -51q-57 -4 -128 -4
q-157 0 -191 104q-52 -111 -209 -111q-87 0 -132 34.5t-45 95.5q0 25 6 53q15 70 65 102.5t147 32.5zM210 42q83 0 127 34.5t62 119.5l13 64h-164q-73 0 -109 -21t-48 -73q-4 -20 -4 -40q0 -84 123 -84zM680 475q-85 0 -130 -37t-71 -130h157q77 0 107.5 14t42.5 54
q5 20 5 31q0 68 -111 68z" />
    <glyph glyph-name="ccedilla" unicode="&#xe7;" horiz-adv-x="450" 
d="M256 49q23 0 111 2l-21 -51q-18 -2 -95 -2q-110 0 -159 44t-49 130q0 46 12 103q15 74 39.5 122t62 74t80.5 35.5t105 9.5q33 0 99 -2l-21 -51q-46 2 -86 2q-102 0 -149.5 -39t-70.5 -153q-12 -59 -12 -98q0 -72 37.5 -99t116.5 -27zM278 -102q0 -97 -123 -97
q-49 0 -81 2l18 42q30 -2 68 -2q34 0 49.5 11.5t15.5 39.5q0 15 -9.5 20.5t-31.5 5.5q-42 0 -59 -1l18 41q15 1 52 1q83 0 83 -63z" />
    <glyph glyph-name="egrave" unicode="&#xe8;" horiz-adv-x="514" 
d="M275 234h-168q-5 -26 -5 -57q0 -66 33 -97t114 -31q97 0 148 4l-20 -51q-44 -4 -130 -4q-109 0 -156.5 45.5t-47.5 129.5q0 51 12 104q33 142 95 197.5t167 55.5q173 0 173 -123q0 -22 -6 -46q-14 -66 -62.5 -96.5t-146.5 -30.5zM314 481q-84 0 -129.5 -44.5
t-69.5 -153.5h160q77 0 107.5 18t45.5 65q5 20 5 38q0 77 -119 77zM304 725l96 -126h-57l-105 126h66z" />
    <glyph glyph-name="eacute" unicode="&#xe9;" horiz-adv-x="514" 
d="M275 234h-168q-5 -26 -5 -57q0 -66 33 -97t114 -31q97 0 148 4l-20 -51q-44 -4 -130 -4q-109 0 -156.5 45.5t-47.5 129.5q0 51 12 104q33 142 95 197.5t167 55.5q173 0 173 -123q0 -22 -6 -46q-14 -66 -62.5 -96.5t-146.5 -30.5zM314 481q-84 0 -129.5 -44.5
t-69.5 -153.5h160q77 0 107.5 18t45.5 65q5 20 5 38q0 77 -119 77zM268 599l141 126h74l-151 -126h-64z" />
    <glyph glyph-name="ecircumflex" unicode="&#xea;" horiz-adv-x="514" 
d="M275 234h-168q-5 -26 -5 -57q0 -66 33 -97t114 -31q97 0 148 4l-20 -51q-44 -4 -130 -4q-109 0 -156.5 45.5t-47.5 129.5q0 51 12 104q33 142 95 197.5t167 55.5q173 0 173 -123q0 -22 -6 -46q-14 -66 -62.5 -96.5t-146.5 -30.5zM314 481q-84 0 -129.5 -44.5
t-69.5 -153.5h160q77 0 107.5 18t45.5 65q5 20 5 38q0 77 -119 77zM407 599l-63 86l-98 -86h-62l135 124h60l86 -124h-58z" />
    <glyph glyph-name="edieresis" unicode="&#xeb;" horiz-adv-x="514" 
d="M275 234h-168q-5 -26 -5 -57q0 -66 33 -97t114 -31q97 0 148 4l-20 -51q-44 -4 -130 -4q-109 0 -156.5 45.5t-47.5 129.5q0 51 12 104q33 142 95 197.5t167 55.5q173 0 173 -123q0 -22 -6 -46q-14 -66 -62.5 -96.5t-146.5 -30.5zM314 481q-84 0 -129.5 -44.5
t-69.5 -153.5h160q77 0 107.5 18t45.5 65q5 20 5 38q0 77 -119 77zM268 699q35 0 35 -34q0 -50 -46 -50q-36 0 -36 34q0 50 47 50zM415 699q35 0 35 -34q0 -50 -46 -50q-36 0 -36 34q0 50 47 50z" />
    <glyph glyph-name="igrave" unicode="&#xec;" horiz-adv-x="202" 
d="M22 0l100 514h58l-100 -514h-58zM111 725l96 -126h-57l-105 126h66z" />
    <glyph glyph-name="iacute" unicode="&#xed;" horiz-adv-x="202" 
d="M22 0l100 514h58l-100 -514h-58zM119 599l141 126h74l-151 -126h-64z" />
    <glyph glyph-name="icircumflex" unicode="&#xee;" horiz-adv-x="202" 
d="M22 0l100 514h58l-100 -514h-58zM240 599l-63 86l-98 -86h-62l135 124h60l86 -124h-58z" />
    <glyph glyph-name="idieresis" unicode="&#xef;" horiz-adv-x="202" 
d="M22 0l100 514h58l-100 -514h-58zM105 699q35 0 35 -34q0 -50 -46 -50q-36 0 -36 34q0 50 47 50zM252 699q35 0 35 -34q0 -50 -46 -50q-36 0 -36 34q0 50 47 50z" />
    <glyph glyph-name="eth" unicode="&#xf0;" horiz-adv-x="569" 
d="M581 672l14 -41l-94 -33q25 -59 25 -149q0 -96 -36 -255q-23 -106 -80 -158t-172 -52q-98 0 -147.5 41.5t-49.5 132.5q0 34 8 85q21 121 81.5 177t172.5 56q130 0 164 -85q4 28 4 61q0 75 -22 128l-149 -51l-13 40l143 50q-26 43 -71 82l46 33q51 -45 79 -96zM245 35
q87 0 130 39.5t61 140.5q10 50 10 88q0 67 -34.5 94.5t-111.5 27.5q-87 0 -129.5 -39t-62.5 -141q-9 -51 -9 -87q0 -68 34.5 -95.5t111.5 -27.5z" />
    <glyph glyph-name="ntilde" unicode="&#xf1;" horiz-adv-x="564" 
d="M80 0h-58l65 332q20 106 75 152t159 46q189 0 189 -150q0 -28 -6 -60l-62 -320h-58l63 323q6 30 6 52q0 57 -33.5 80.5t-100.5 23.5q-79 0 -119 -33t-56 -118zM338 676l29 -17q31 -18 47 -18q28 0 39 48l2 9h44l-2 -9q-20 -94 -85 -94q-31 0 -67 22l-29 17q-31 18 -47 18
q-28 0 -39 -48l-2 -9h-44l2 9q20 94 85 94q31 0 67 -22z" />
    <glyph glyph-name="ograve" unicode="&#xf2;" horiz-adv-x="556" 
d="M239 -16q-97 0 -146 42.5t-49 140.5q0 42 11 105q24 136 84.5 197t178.5 61q96 0 145 -42t49 -140q0 -51 -11 -105q-27 -138 -86 -198.5t-176 -60.5zM245 35q88 0 131.5 44.5t65.5 160.5q13 70 13 109q0 71 -34 100.5t-110 29.5q-89 0 -131.5 -44t-64.5 -161
q-13 -70 -13 -108q0 -72 34 -101.5t109 -29.5zM301 725l96 -126h-57l-105 126h66z" />
    <glyph glyph-name="oacute" unicode="&#xf3;" horiz-adv-x="556" 
d="M239 -16q-97 0 -146 42.5t-49 140.5q0 42 11 105q24 136 84.5 197t178.5 61q96 0 145 -42t49 -140q0 -51 -11 -105q-27 -138 -86 -198.5t-176 -60.5zM245 35q88 0 131.5 44.5t65.5 160.5q13 70 13 109q0 71 -34 100.5t-110 29.5q-89 0 -131.5 -44t-64.5 -161
q-13 -70 -13 -108q0 -72 34 -101.5t109 -29.5zM266 599l141 126h74l-151 -126h-64z" />
    <glyph glyph-name="ocircumflex" unicode="&#xf4;" horiz-adv-x="556" 
d="M239 -16q-97 0 -146 42.5t-49 140.5q0 42 11 105q24 136 84.5 197t178.5 61q96 0 145 -42t49 -140q0 -51 -11 -105q-27 -138 -86 -198.5t-176 -60.5zM245 35q88 0 131.5 44.5t65.5 160.5q13 70 13 109q0 71 -34 100.5t-110 29.5q-89 0 -131.5 -44t-64.5 -161
q-13 -70 -13 -108q0 -72 34 -101.5t109 -29.5zM416 599l-63 86l-98 -86h-62l135 124h60l86 -124h-58z" />
    <glyph glyph-name="otilde" unicode="&#xf5;" horiz-adv-x="556" 
d="M239 -16q-97 0 -146 42.5t-49 140.5q0 42 11 105q24 136 84.5 197t178.5 61q96 0 145 -42t49 -140q0 -51 -11 -105q-27 -138 -86 -198.5t-176 -60.5zM245 35q88 0 131.5 44.5t65.5 160.5q13 70 13 109q0 71 -34 100.5t-110 29.5q-89 0 -131.5 -44t-64.5 -161
q-13 -70 -13 -108q0 -72 34 -101.5t109 -29.5zM340 678l29 -17q31 -18 47 -18q28 0 39 48l2 9h44l-2 -9q-20 -94 -85 -94q-31 0 -67 22l-29 17q-31 18 -47 18q-28 0 -39 -48l-2 -9h-44l2 9q20 94 85 94q31 0 67 -22z" />
    <glyph glyph-name="odieresis" unicode="&#xf6;" horiz-adv-x="556" 
d="M239 -16q-97 0 -146 42.5t-49 140.5q0 42 11 105q24 136 84.5 197t178.5 61q96 0 145 -42t49 -140q0 -51 -11 -105q-27 -138 -86 -198.5t-176 -60.5zM245 35q88 0 131.5 44.5t65.5 160.5q13 70 13 109q0 71 -34 100.5t-110 29.5q-89 0 -131.5 -44t-64.5 -161
q-13 -70 -13 -108q0 -72 34 -101.5t109 -29.5zM277 699q35 0 35 -34q0 -50 -46 -50q-36 0 -36 34q0 50 47 50zM424 699q35 0 35 -34q0 -50 -46 -50q-36 0 -36 34q0 50 47 50z" />
    <glyph glyph-name="divide" unicode="&#xf7;" horiz-adv-x="595" 
d="M347 552q38 0 38 -38q0 -53 -48 -53q-38 0 -38 38q0 53 48 53zM283 223q39 0 39 -38q0 -53 -49 -53q-38 0 -38 38q0 53 48 53zM517 316h-417l10 52h417z" />
    <glyph glyph-name="oslash" unicode="&#xf8;" horiz-adv-x="556" 
d="M239 -16q-73 0 -119 23l-57 -77h-55l77 104q-41 44 -41 133q0 42 11 105q24 136 84.5 197t178.5 61q70 0 116 -23l59 80h54l-78 -106q43 -45 43 -133q0 -51 -11 -105q-27 -138 -86 -198.5t-176 -60.5zM245 35q88 0 131.5 44.5t65.5 160.5q13 70 13 109q0 55 -21 85
l-281 -382q34 -17 92 -17zM102 166q0 -53 18 -83l281 379q-34 17 -90 17q-89 0 -131.5 -44t-64.5 -161q-13 -70 -13 -108z" />
    <glyph glyph-name="ugrave" unicode="&#xf9;" horiz-adv-x="558" 
d="M478 514h58l-64 -329q-21 -107 -75 -154t-158 -47q-185 0 -185 150q0 30 6 61l62 319h58l-63 -323q-6 -30 -6 -53q0 -57 32.5 -80t98.5 -23q77 0 116 34.5t57 121.5zM305 725l96 -126h-57l-105 126h66z" />
    <glyph glyph-name="uacute" unicode="&#xfa;" horiz-adv-x="558" 
d="M478 514h58l-64 -329q-21 -107 -75 -154t-158 -47q-185 0 -185 150q0 30 6 61l62 319h58l-63 -323q-6 -30 -6 -53q0 -57 32.5 -80t98.5 -23q77 0 116 34.5t57 121.5zM265 599l141 126h74l-151 -126h-64z" />
    <glyph glyph-name="ucircumflex" unicode="&#xfb;" horiz-adv-x="558" 
d="M478 514h58l-64 -329q-21 -107 -75 -154t-158 -47q-185 0 -185 150q0 30 6 61l62 319h58l-63 -323q-6 -30 -6 -53q0 -57 32.5 -80t98.5 -23q77 0 116 34.5t57 121.5zM420 599l-63 86l-98 -86h-62l135 124h60l86 -124h-58z" />
    <glyph glyph-name="udieresis" unicode="&#xfc;" horiz-adv-x="558" 
d="M478 514h58l-64 -329q-21 -107 -75 -154t-158 -47q-185 0 -185 150q0 30 6 61l62 319h58l-63 -323q-6 -30 -6 -53q0 -57 32.5 -80t98.5 -23q77 0 116 34.5t57 121.5zM279 699q35 0 35 -34q0 -50 -46 -50q-36 0 -36 34q0 50 47 50zM426 699q35 0 35 -34q0 -50 -46 -50
q-36 0 -36 34q0 50 47 50z" />
    <glyph glyph-name="yacute" unicode="&#xfd;" horiz-adv-x="563" 
d="M205 -126q86 0 127.5 38.5t59.5 131.5l6 31q-50 -57 -157 -57q-180 0 -180 149q0 27 6 62l55 285h58l-56 -289q-6 -30 -6 -54q0 -57 32 -79.5t98 -22.5q81 0 122.5 34t56.5 119l56 292h58l-90 -465q-24 -119 -78 -172.5t-169 -53.5q-41 0 -177 2l20 52q78 -3 158 -3z
M265 599l141 126h74l-151 -126h-64z" />
    <glyph glyph-name="thorn" unicode="&#xfe;" horiz-adv-x="573" 
d="M471 348q0 71 -34.5 101t-108.5 30q-84 0 -128.5 -44t-67.5 -159q-13 -70 -13 -109q0 -73 34.5 -102.5t110.5 -29.5q86 0 128.5 43.5t66.5 160.5q12 63 12 109zM529 347q0 -52 -11 -107q-26 -135 -85 -195.5t-170 -60.5q-138 0 -170 88l-48 -247h-57l178 918h58l-56 -283
q55 70 166 70q195 0 195 -183z" />
    <glyph glyph-name="ydieresis" unicode="&#xff;" horiz-adv-x="563" 
d="M205 -126q86 0 127.5 38.5t59.5 131.5l6 31q-50 -57 -157 -57q-180 0 -180 149q0 27 6 62l55 285h58l-56 -289q-6 -30 -6 -54q0 -57 32 -79.5t98 -22.5q81 0 122.5 34t56.5 119l56 292h58l-90 -465q-24 -119 -78 -172.5t-169 -53.5q-41 0 -177 2l20 52q78 -3 158 -3z
M281 699q35 0 35 -34q0 -50 -46 -50q-36 0 -36 34q0 50 47 50zM428 699q35 0 35 -34q0 -50 -46 -50q-36 0 -36 34q0 50 47 50z" />
    <glyph glyph-name="Amacron" unicode="&#x100;" horiz-adv-x="648" 
d="M33 0h-62l413 712h59l132 -712h-59l-40 228h-314zM402 646l-210 -365h275zM291 792l10 48h257l-9 -48h-258z" />
    <glyph glyph-name="amacron" unicode="&#x101;" horiz-adv-x="535" 
d="M233 -9q-101 0 -152 31.5t-51 103.5q0 25 6 55q34 146 207 146q131 0 167 -63l10 52q7 35 7 55q0 49 -31.5 71.5t-105.5 22.5q-120 0 -159 -2l20 51q15 2 144 2q186 0 186 -141q0 -24 -7 -64l-51 -258q-5 -28 -16.5 -37.5t-41.5 -15.5q-56 -9 -132 -9zM240 42q54 0 128 9
l18 93q4 20 4 40q0 52 -35 73t-110 21q-71 0 -108 -24t-46 -82q-4 -17 -4 -40q0 -54 38 -72t115 -18zM209 626l9 48h257l-9 -48h-257z" />
    <glyph glyph-name="Abreve" unicode="&#x102;" horiz-adv-x="648" 
d="M33 0h-62l413 712h59l132 -712h-59l-40 228h-314zM402 646l-210 -365h275zM424 814q86 0 101 80h51q-23 -123 -154 -123t-131 98q0 9 2 25h51q-1 -7 -1 -17q0 -32 18 -47.5t63 -15.5z" />
    <glyph glyph-name="abreve" unicode="&#x103;" horiz-adv-x="535" 
d="M233 -9q-101 0 -152 31.5t-51 103.5q0 25 6 55q34 146 207 146q131 0 167 -63l10 52q7 35 7 55q0 49 -31.5 71.5t-105.5 22.5q-120 0 -159 -2l20 51q15 2 144 2q186 0 186 -141q0 -24 -7 -64l-51 -258q-5 -28 -16.5 -37.5t-41.5 -15.5q-56 -9 -132 -9zM240 42q54 0 128 9
l18 93q4 20 4 40q0 52 -35 73t-110 21q-71 0 -108 -24t-46 -82q-4 -17 -4 -40q0 -54 38 -72t115 -18zM329 639q85 0 101 80h51q-23 -123 -154 -123q-130 0 -130 98q0 11 2 25h51q-1 -7 -1 -17q0 -33 17.5 -48t62.5 -15z" />
    <glyph glyph-name="Aogonek" unicode="&#x104;" horiz-adv-x="648" 
d="M384 712h59l132 -712q-64 -40 -87.5 -64t-23.5 -47q0 -24 48 -24h37l-21 -48h-36q-84 0 -84 56q0 67 107 131l-39 224h-314l-129 -228h-62zM402 646l-210 -365h275z" />
    <glyph glyph-name="aogonek" unicode="&#x105;" horiz-adv-x="535" 
d="M368 51l18 93q4 20 4 40q0 52 -35 73t-110 21q-71 0 -108 -24t-46 -82q-4 -17 -4 -40q0 -54 38 -72t115 -18q54 0 128 9zM474 311l-51 -258q-6 -30 -24 -42q-64 -45 -87 -71t-23 -51q0 -24 47 -24h38l-21 -48h-35q-83 0 -83 56q0 62 80 122q-36 -4 -82 -4
q-101 0 -152 31.5t-51 103.5q0 25 6 55q34 146 207 146q131 0 167 -63l10 52q7 35 7 55q0 49 -31.5 71.5t-105.5 22.5q-120 0 -159 -2l20 51q15 2 144 2q186 0 186 -141q0 -24 -7 -64z" />
    <glyph glyph-name="Cacute" unicode="&#x106;" horiz-adv-x="565" 
d="M595 711l-22 -54q-45 3 -125 3q-67 0 -112.5 -12.5t-84 -45t-64 -92t-43.5 -152.5q-15 -75 -15 -129q0 -99 50.5 -138t162.5 -39q63 0 135 2l-22 -54q-21 -2 -121 -2q-142 0 -204 57t-62 170q0 65 16 142q21 103 52 170.5t77.5 106.5t103 54.5t136.5 15.5q105 0 142 -3z
M353 773l138 119h80l-151 -119h-67z" />
    <glyph glyph-name="cacute" unicode="&#x107;" horiz-adv-x="450" 
d="M256 49q23 0 111 2l-21 -51q-18 -2 -95 -2q-110 0 -159 44t-49 130q0 46 12 103q15 74 39.5 122t62 74t80.5 35.5t105 9.5q33 0 99 -2l-21 -51q-46 2 -86 2q-102 0 -149.5 -39t-70.5 -153q-12 -59 -12 -98q0 -72 37.5 -99t116.5 -27zM244 599l141 126h74l-151 -126h-64z
" />
    <glyph glyph-name="Ccircumflex" unicode="&#x108;" horiz-adv-x="565" 
d="M595 711l-22 -54q-45 3 -125 3q-67 0 -112.5 -12.5t-84 -45t-64 -92t-43.5 -152.5q-15 -75 -15 -129q0 -99 50.5 -138t162.5 -39q63 0 135 2l-22 -54q-21 -2 -121 -2q-142 0 -204 57t-62 170q0 65 16 142q21 103 52 170.5t77.5 106.5t103 54.5t136.5 15.5q105 0 142 -3z
M508 773l-72 79l-104 -79h-65l141 115h62l98 -115h-60z" />
    <glyph glyph-name="ccircumflex" unicode="&#x109;" horiz-adv-x="450" 
d="M256 49q23 0 111 2l-21 -51q-18 -2 -95 -2q-110 0 -159 44t-49 130q0 46 12 103q15 74 39.5 122t62 74t80.5 35.5t105 9.5q33 0 99 -2l-21 -51q-46 2 -86 2q-102 0 -149.5 -39t-70.5 -153q-12 -59 -12 -98q0 -72 37.5 -99t116.5 -27zM387 599l-63 86l-98 -86h-62l135 124
h60l86 -124h-58z" />
    <glyph glyph-name="Cdotaccent" unicode="&#x10a;" horiz-adv-x="565" 
d="M595 711l-22 -54q-45 3 -125 3q-67 0 -112.5 -12.5t-84 -45t-64 -92t-43.5 -152.5q-15 -75 -15 -129q0 -99 50.5 -138t162.5 -39q63 0 135 2l-22 -54q-21 -2 -121 -2q-142 0 -204 57t-62 170q0 65 16 142q21 103 52 170.5t77.5 106.5t103 54.5t136.5 15.5q105 0 142 -3z
M437 860q37 0 37 -36q0 -51 -47 -51q-38 0 -38 36q0 51 48 51z" />
    <glyph glyph-name="cdotaccent" unicode="&#x10b;" horiz-adv-x="450" 
d="M256 49q23 0 111 2l-21 -51q-18 -2 -95 -2q-110 0 -159 44t-49 130q0 46 12 103q15 74 39.5 122t62 74t80.5 35.5t105 9.5q33 0 99 -2l-21 -51q-46 2 -86 2q-102 0 -149.5 -39t-70.5 -153q-12 -59 -12 -98q0 -72 37.5 -99t116.5 -27zM334 703q37 0 37 -36q0 -52 -48 -52
q-37 0 -37 36q0 52 48 52z" />
    <glyph glyph-name="Ccaron" unicode="&#x10c;" horiz-adv-x="565" 
d="M595 711l-22 -54q-45 3 -125 3q-67 0 -112.5 -12.5t-84 -45t-64 -92t-43.5 -152.5q-15 -75 -15 -129q0 -99 50.5 -138t162.5 -39q63 0 135 2l-22 -54q-21 -2 -121 -2q-142 0 -204 57t-62 170q0 65 16 142q21 103 52 170.5t77.5 106.5t103 54.5t136.5 15.5q105 0 142 -3z
M356 888l72 -80l104 80h64l-141 -115h-63l-96 115h60z" />
    <glyph glyph-name="ccaron" unicode="&#x10d;" horiz-adv-x="450" 
d="M256 49q23 0 111 2l-21 -51q-18 -2 -95 -2q-110 0 -159 44t-49 130q0 46 12 103q15 74 39.5 122t62 74t80.5 35.5t105 9.5q33 0 99 -2l-21 -51q-46 2 -86 2q-102 0 -149.5 -39t-70.5 -153q-12 -59 -12 -98q0 -72 37.5 -99t116.5 -27zM201 723h57l63 -86l98 86h62
l-135 -124h-60z" />
    <glyph glyph-name="Dcaron" unicode="&#x10e;" horiz-adv-x="666" 
d="M624 347q-36 -194 -126.5 -270.5t-254.5 -76.5h-212l139 712h202q138 0 202 -57.5t64 -178.5q0 -54 -14 -129zM369 658h-151l-118 -604h150q141 0 209.5 64t102.5 231q15 73 15 127q0 98 -49.5 140t-158.5 42zM344 888l72 -80l104 80h64l-141 -115h-63l-96 115h60z" />
    <glyph glyph-name="dcaron" unicode="&#x10f;" horiz-adv-x="607" 
d="M55 274q14 78 39.5 130.5t61 79t72 36.5t84.5 10q128 0 161 -74l56 287h58l-134 -687q-6 -30 -19.5 -41.5t-42.5 -15.5q-62 -8 -117 -8q-117 0 -173 43.5t-56 143.5q0 45 10 96zM309 479q-40 0 -68 -7.5t-53.5 -29t-43 -62t-29.5 -103.5q-11 -61 -11 -96q0 -77 40.5 -108
t132.5 -31q59 0 117 9l51 261q6 34 6 51q0 116 -142 116zM653 743h55l-54 -175h-42z" />
    <glyph glyph-name="Dcroat" unicode="&#x110;" horiz-adv-x="686" 
d="M644 347q-36 -194 -126.5 -270.5t-254.5 -76.5h-212l65 334h-71l9 50h72l64 328h202q138 0 202 -57.5t64 -178.5q0 -54 -14 -129zM389 658h-151l-54 -274h186l-10 -50h-186l-54 -280h150q141 0 209.5 64t102.5 231q15 73 15 127q0 98 -49.5 140t-158.5 42z" />
    <glyph glyph-name="dslash" unicode="&#x111;" horiz-adv-x="564" 
d="M55 274q14 78 39.5 130.5t61 79t72 36.5t84.5 10q128 0 161 -74l30 154h-205l9 47h205l17 86h58l-17 -86h69l-10 -47h-68l-108 -554q-6 -30 -19.5 -41.5t-42.5 -15.5q-62 -8 -117 -8q-117 0 -173 43.5t-56 143.5q0 45 10 96zM309 479q-40 0 -68 -7.5t-53.5 -29t-43 -62
t-29.5 -103.5q-11 -61 -11 -96q0 -77 40.5 -108t132.5 -31q59 0 117 9l51 261q6 34 6 51q0 116 -142 116z" />
    <glyph glyph-name="Emacron" unicode="&#x112;" horiz-adv-x="588" 
d="M529 393l-21 -54h-352l-56 -285h397l-21 -54h-445l139 712h444l-22 -54h-374l-52 -265h363zM275 792l10 48h257l-9 -48h-258z" />
    <glyph glyph-name="emacron" unicode="&#x113;" horiz-adv-x="514" 
d="M275 234h-168q-5 -26 -5 -57q0 -66 33 -97t114 -31q97 0 148 4l-20 -51q-44 -4 -130 -4q-109 0 -156.5 45.5t-47.5 129.5q0 51 12 104q33 142 95 197.5t167 55.5q173 0 173 -123q0 -22 -6 -46q-14 -66 -62.5 -96.5t-146.5 -30.5zM314 481q-84 0 -129.5 -44.5
t-69.5 -153.5h160q77 0 107.5 18t45.5 65q5 20 5 38q0 77 -119 77zM204 626l9 48h257l-9 -48h-257z" />
    <glyph glyph-name="Ebreve" unicode="&#x114;" horiz-adv-x="588" 
d="M529 393l-21 -54h-352l-56 -285h397l-21 -54h-445l139 712h444l-22 -54h-374l-52 -265h363zM415 814q86 0 101 80h51q-23 -123 -154 -123t-131 98q0 9 2 25h51q-1 -7 -1 -17q0 -32 18 -47.5t63 -15.5z" />
    <glyph glyph-name="ebreve" unicode="&#x115;" horiz-adv-x="514" 
d="M275 234h-168q-5 -26 -5 -57q0 -66 33 -97t114 -31q97 0 148 4l-20 -51q-44 -4 -130 -4q-109 0 -156.5 45.5t-47.5 129.5q0 51 12 104q33 142 95 197.5t167 55.5q173 0 173 -123q0 -22 -6 -46q-14 -66 -62.5 -96.5t-146.5 -30.5zM314 481q-84 0 -129.5 -44.5
t-69.5 -153.5h160q77 0 107.5 18t45.5 65q5 20 5 38q0 77 -119 77zM337 639q85 0 101 80h51q-23 -123 -154 -123q-130 0 -130 98q0 11 2 25h51q-1 -7 -1 -17q0 -33 17.5 -48t62.5 -15z" />
    <glyph glyph-name="Edotaccent" unicode="&#x116;" horiz-adv-x="588" 
d="M529 393l-21 -54h-352l-56 -285h397l-21 -54h-445l139 712h444l-22 -54h-374l-52 -265h363zM413 860q37 0 37 -36q0 -51 -47 -51q-38 0 -38 36q0 51 48 51z" />
    <glyph glyph-name="edotaccent" unicode="&#x117;" horiz-adv-x="514" 
d="M275 234h-168q-5 -26 -5 -57q0 -66 33 -97t114 -31q97 0 148 4l-20 -51q-44 -4 -130 -4q-109 0 -156.5 45.5t-47.5 129.5q0 51 12 104q33 142 95 197.5t167 55.5q173 0 173 -123q0 -22 -6 -46q-14 -66 -62.5 -96.5t-146.5 -30.5zM314 481q-84 0 -129.5 -44.5
t-69.5 -153.5h160q77 0 107.5 18t45.5 65q5 20 5 38q0 77 -119 77zM345 703q37 0 37 -36q0 -52 -48 -52q-37 0 -37 36q0 52 48 52z" />
    <glyph glyph-name="Eogonek" unicode="&#x118;" horiz-adv-x="588" 
d="M100 54h397l-21 -54q-64 -40 -87.5 -64t-23.5 -47q0 -24 48 -24h37l-21 -48h-36q-84 0 -84 56q0 65 100 127h-378l139 712h444l-22 -54h-374l-52 -265h363l-21 -54h-352z" />
    <glyph glyph-name="eogonek" unicode="&#x119;" horiz-adv-x="514" 
d="M275 234h-168q-5 -26 -5 -57q0 -66 33 -97t114 -31q97 0 148 4l-20 -51q-112 -68 -112 -113q0 -24 47 -24h38l-21 -48h-35q-83 0 -83 56q0 34 22 63.5t71 61.5h-57q-109 0 -156.5 45.5t-47.5 129.5q0 51 12 104q33 142 95 197.5t167 55.5q173 0 173 -123q0 -22 -6 -46
q-14 -66 -62.5 -96.5t-146.5 -30.5zM314 481q-84 0 -129.5 -44.5t-69.5 -153.5h160q77 0 107.5 18t45.5 65q5 20 5 38q0 77 -119 77z" />
    <glyph glyph-name="Ecaron" unicode="&#x11a;" horiz-adv-x="588" 
d="M529 393l-21 -54h-352l-56 -285h397l-21 -54h-445l139 712h444l-22 -54h-374l-52 -265h363zM327 888l72 -80l104 80h64l-141 -115h-63l-96 115h60z" />
    <glyph glyph-name="ecaron" unicode="&#x11b;" horiz-adv-x="514" 
d="M275 234h-168q-5 -26 -5 -57q0 -66 33 -97t114 -31q97 0 148 4l-20 -51q-44 -4 -130 -4q-109 0 -156.5 45.5t-47.5 129.5q0 51 12 104q33 142 95 197.5t167 55.5q173 0 173 -123q0 -22 -6 -46q-14 -66 -62.5 -96.5t-146.5 -30.5zM314 481q-84 0 -129.5 -44.5
t-69.5 -153.5h160q77 0 107.5 18t45.5 65q5 20 5 38q0 77 -119 77zM211 723h57l63 -86l98 86h62l-135 -124h-60z" />
    <glyph glyph-name="Gcircumflex" unicode="&#x11c;" horiz-adv-x="633" 
d="M348 -1q-152 0 -216 56t-64 168q0 60 17 145q20 102 50.5 169t77 106t103.5 55t138 16q114 0 178 -3l-21 -54q-75 3 -161 3q-67 0 -112.5 -12t-84.5 -45t-65 -92.5t-44 -151.5q-15 -77 -15 -130q0 -101 53.5 -138.5t174.5 -37.5q68 0 116 6l47 242h-149l21 54h198
l-58 -294q-6 -30 -17.5 -41t-37.5 -14q-47 -7 -129 -7zM535 773l-72 79l-104 -79h-65l141 115h62l98 -115h-60z" />
    <glyph glyph-name="gcircumflex" unicode="&#x11d;" horiz-adv-x="572" 
d="M315 530q97 0 146.5 -40.5t49.5 -132.5q0 -44 -10 -95l-42 -216q-23 -117 -76.5 -170t-169.5 -53q-49 0 -177 2l21 52q59 -3 157 -3q86 0 127.5 38.5t59.5 131.5l8 41q-54 -67 -170 -67q-95 0 -144 42t-49 135q0 46 10 93q24 129 83 185.5t176 56.5zM309 479
q-87 0 -130 -40t-64 -147q-11 -61 -11 -96q0 -70 34 -98.5t111 -28.5q84 0 128.5 40.5t65.5 148.5q11 61 11 96q0 68 -34.5 96.5t-110.5 28.5zM416 599l-63 86l-98 -86h-62l135 124h60l86 -124h-58z" />
    <glyph glyph-name="Gbreve" unicode="&#x11e;" horiz-adv-x="633" 
d="M348 -1q-152 0 -216 56t-64 168q0 60 17 145q20 102 50.5 169t77 106t103.5 55t138 16q114 0 178 -3l-21 -54q-75 3 -161 3q-67 0 -112.5 -12t-84.5 -45t-65 -92.5t-44 -151.5q-15 -77 -15 -130q0 -101 53.5 -138.5t174.5 -37.5q68 0 116 6l47 242h-149l21 54h198
l-58 -294q-6 -30 -17.5 -41t-37.5 -14q-47 -7 -129 -7zM437 814q86 0 101 80h51q-23 -123 -154 -123t-131 98q0 9 2 25h51q-1 -7 -1 -17q0 -32 18 -47.5t63 -15.5z" />
    <glyph glyph-name="gbreve" unicode="&#x11f;" horiz-adv-x="572" 
d="M315 530q97 0 146.5 -40.5t49.5 -132.5q0 -44 -10 -95l-42 -216q-23 -117 -76.5 -170t-169.5 -53q-49 0 -177 2l21 52q59 -3 157 -3q86 0 127.5 38.5t59.5 131.5l8 41q-54 -67 -170 -67q-95 0 -144 42t-49 135q0 46 10 93q24 129 83 185.5t176 56.5zM309 479
q-87 0 -130 -40t-64 -147q-11 -61 -11 -96q0 -70 34 -98.5t111 -28.5q84 0 128.5 40.5t65.5 148.5q11 61 11 96q0 68 -34.5 96.5t-110.5 28.5zM344 639q85 0 101 80h51q-23 -123 -154 -123q-130 0 -130 98q0 11 2 25h51q-1 -7 -1 -17q0 -33 17.5 -48t62.5 -15z" />
    <glyph glyph-name="Gdotaccent" unicode="&#x120;" horiz-adv-x="633" 
d="M348 -1q-152 0 -216 56t-64 168q0 60 17 145q20 102 50.5 169t77 106t103.5 55t138 16q114 0 178 -3l-21 -54q-75 3 -161 3q-67 0 -112.5 -12t-84.5 -45t-65 -92.5t-44 -151.5q-15 -77 -15 -130q0 -101 53.5 -138.5t174.5 -37.5q68 0 116 6l47 242h-149l21 54h198
l-58 -294q-6 -30 -17.5 -41t-37.5 -14q-47 -7 -129 -7zM462 860q37 0 37 -36q0 -51 -47 -51q-38 0 -38 36q0 51 48 51z" />
    <glyph glyph-name="gdotaccent" unicode="&#x121;" horiz-adv-x="572" 
d="M315 530q97 0 146.5 -40.5t49.5 -132.5q0 -44 -10 -95l-42 -216q-23 -117 -76.5 -170t-169.5 -53q-49 0 -177 2l21 52q59 -3 157 -3q86 0 127.5 38.5t59.5 131.5l8 41q-54 -67 -170 -67q-95 0 -144 42t-49 135q0 46 10 93q24 129 83 185.5t176 56.5zM309 479
q-87 0 -130 -40t-64 -147q-11 -61 -11 -96q0 -70 34 -98.5t111 -28.5q84 0 128.5 40.5t65.5 148.5q11 61 11 96q0 68 -34.5 96.5t-110.5 28.5zM357 703q37 0 37 -36q0 -52 -48 -52q-37 0 -37 36q0 52 48 52z" />
    <glyph glyph-name="Gcommaaccent" unicode="&#x122;" horiz-adv-x="633" 
d="M348 -1q-152 0 -216 56t-64 168q0 60 17 145q20 102 50.5 169t77 106t103.5 55t138 16q114 0 178 -3l-21 -54q-75 3 -161 3q-67 0 -112.5 -12t-84.5 -45t-65 -92.5t-44 -151.5q-15 -77 -15 -130q0 -101 53.5 -138.5t174.5 -37.5q68 0 116 6l47 242h-149l21 54h198
l-58 -294q-6 -30 -17.5 -41t-37.5 -14q-47 -7 -129 -7zM256 -232h-45l53 97q-13 6 -13 29q0 47 46 47q35 0 35 -33q0 -21 -23 -57z" />
    <glyph glyph-name="gcommaaccent" unicode="&#x123;" horiz-adv-x="572" 
d="M315 530q97 0 146.5 -40.5t49.5 -132.5q0 -44 -10 -95l-42 -216q-23 -117 -76.5 -170t-169.5 -53q-49 0 -177 2l21 52q59 -3 157 -3q86 0 127.5 38.5t59.5 131.5l8 41q-54 -67 -170 -67q-95 0 -144 42t-49 135q0 46 10 93q24 129 83 185.5t176 56.5zM309 479
q-87 0 -130 -40t-64 -147q-11 -61 -11 -96q0 -70 34 -98.5t111 -28.5q84 0 128.5 40.5t65.5 148.5q11 61 11 96q0 68 -34.5 96.5t-110.5 28.5zM375 662q0 -47 -44 -47q-37 0 -37 34q0 23 23 57l53 82h44l-52 -96q13 -6 13 -30z" />
    <glyph glyph-name="Hcircumflex" unicode="&#x124;" horiz-adv-x="687" 
d="M498 0l66 338h-409l-66 -338h-58l139 712h58l-63 -320h409l63 320h58l-139 -712h-58zM526 773l-72 79l-104 -79h-65l141 115h62l98 -115h-60z" />
    <glyph glyph-name="hcircumflex" unicode="&#x125;" horiz-adv-x="563" 
d="M22 0l145 743h58l-53 -271q49 58 159 58q179 0 179 -147q0 -31 -7 -63l-62 -320h-57l62 323q6 29 6 54q0 56 -32.5 79t-97.5 23q-81 0 -121 -34.5t-58 -121.5l-63 -323h-58zM403 772l-71 79l-102 -79h-62l138 113h60l95 -113h-58z" />
    <glyph glyph-name="Hbar" unicode="&#x126;" horiz-adv-x="745" 
d="M527 0l66 338h-409l-66 -338h-58l104 536h-80l10 49h80l25 127h58l-25 -127h409l25 127h58l-25 -127h78l-9 -49h-79l-104 -536h-58zM194 392h409l28 144h-409z" />
    <glyph glyph-name="hbar" unicode="&#x127;" horiz-adv-x="563" 
d="M22 0l119 610h-66l10 47h65l17 86h58l-17 -86h207l-10 -47h-206l-27 -138q49 58 159 58q179 0 179 -147q0 -31 -7 -63l-62 -320h-57l62 323q6 29 6 54q0 56 -32.5 79t-97.5 23q-81 0 -121 -34.5t-58 -121.5l-63 -323h-58z" />
    <glyph glyph-name="Itilde" unicode="&#x128;" horiz-adv-x="220" 
d="M170 712h58l-139 -712h-58zM281 770q-33 0 -67 23l-30 19q-27 17 -44 17q-15 0 -24.5 -9.5t-17.5 -37.5l-3 -12h-46l2 11q12 49 32 71.5t60 22.5q33 0 67 -23l30 -19q27 -17 44 -17q15 0 24.5 9.5t17.5 37.5l3 12h46l-2 -11q-12 -49 -32 -71.5t-60 -22.5z" />
    <glyph glyph-name="itilde" unicode="&#x129;" horiz-adv-x="202" 
d="M22 0l100 514h58l-100 -514h-58zM167 678l29 -17q31 -18 47 -18q28 0 39 48l2 9h44l-2 -9q-20 -94 -85 -94q-31 0 -67 22l-29 17q-31 18 -47 18q-28 0 -39 -48l-2 -9h-44l2 9q20 94 85 94q31 0 67 -22z" />
    <glyph glyph-name="Imacron" unicode="&#x12a;" horiz-adv-x="220" 
d="M170 712h58l-139 -712h-58zM73 792l10 48h257l-9 -48h-258z" />
    <glyph glyph-name="imacron" unicode="&#x12b;" horiz-adv-x="202" 
d="M22 0l100 514h58l-100 -514h-58zM38 626l9 48h257l-9 -48h-257z" />
    <glyph glyph-name="Ibreve" unicode="&#x12c;" horiz-adv-x="220" 
d="M170 712h58l-139 -712h-58zM215 814q86 0 101 80h51q-23 -123 -154 -123t-131 98q0 9 2 25h51q-1 -7 -1 -17q0 -32 18 -47.5t63 -15.5z" />
    <glyph glyph-name="ibreve" unicode="&#x12d;" horiz-adv-x="202" 
d="M22 0l100 514h58l-100 -514h-58zM168 639q85 0 101 80h51q-23 -123 -154 -123q-130 0 -130 98q0 11 2 25h51q-1 -7 -1 -17q0 -33 17.5 -48t62.5 -15z" />
    <glyph glyph-name="Iogonek" unicode="&#x12e;" horiz-adv-x="220" 
d="M170 712h58l-139 -712q-64 -40 -87.5 -64t-23.5 -47q0 -24 48 -24h37l-21 -48h-36q-84 0 -84 56q0 68 110 133z" />
    <glyph glyph-name="iogonek" unicode="&#x12f;" horiz-adv-x="202" 
d="M54 -135l-21 -48h-35q-83 0 -83 56q0 69 108 133l99 508h58l-100 -514q-64 -40 -87.5 -64t-23.5 -47q0 -24 47 -24h38zM181 703q37 0 37 -36q0 -52 -48 -52q-37 0 -37 36q0 52 48 52z" />
    <glyph glyph-name="Idot" unicode="&#x130;" horiz-adv-x="220" 
d="M170 712h58l-139 -712h-58zM220 860q37 0 37 -36q0 -51 -47 -51q-38 0 -38 36q0 51 48 51z" />
    <glyph glyph-name="dotlessi" unicode="&#x131;" horiz-adv-x="202" 
d="M22 0l100 514h58l-100 -514h-58z" />
    <glyph glyph-name="IJ" unicode="&#x132;" horiz-adv-x="650" 
d="M170 712h58l-139 -712h-58zM328 54q82 0 122 34t55 112l100 512h58l-99 -510q-22 -109 -75.5 -156t-161.5 -47q-94 0 -127 2l21 54q43 -1 107 -1z" />
    <glyph glyph-name="ij" unicode="&#x133;" horiz-adv-x="404" 
d="M22 0l100 514h58l-100 -514h-58zM181 703q37 0 37 -36q0 -52 -48 -52q-37 0 -37 36q0 52 48 52zM226 10l98 504h58l-99 -509q-21 -106 -62 -144t-129 -38q-46 0 -62 1l20 50q15 -1 44 -1q61 0 88.5 28t43.5 109zM383 703q37 0 37 -36q0 -52 -48 -52q-37 0 -37 36
q0 52 48 52z" />
    <glyph glyph-name="Jcircumflex" unicode="&#x134;" horiz-adv-x="430" 
d="M108 54q82 0 122 34t55 112l100 512h58l-99 -510q-22 -109 -75.5 -156t-161.5 -47q-94 0 -127 2l21 54q43 -1 107 -1zM512 773l-72 79l-104 -79h-65l141 115h62l98 -115h-60z" />
    <glyph glyph-name="jcircumflex" unicode="&#x135;" horiz-adv-x="202" 
d="M24 10l98 504h58l-99 -509q-21 -106 -62 -144t-129 -38q-46 0 -62 1l20 50q15 -1 44 -1q61 0 88.5 28t43.5 109zM240 599l-63 86l-98 -86h-62l135 124h60l86 -124h-58z" />
    <glyph glyph-name="Kcommaaccent" unicode="&#x136;" horiz-adv-x="610" 
d="M646 712l-431 -342l337 -370h-77l-317 350l-69 -350h-58l139 712h58l-62 -320l404 320h76zM224 -232h-45l53 97q-13 6 -13 29q0 47 46 47q35 0 35 -33q0 -21 -23 -57z" />
    <glyph glyph-name="kcommaaccent" unicode="&#x137;" horiz-adv-x="510" 
d="M449 0h-72l-246 263l-51 -263h-58l145 743h58l-86 -442l300 213h81l-332 -235zM183 -232h-45l53 97q-13 6 -13 29q0 47 46 47q35 0 35 -33q0 -21 -23 -57z" />
    <glyph glyph-name="kgreenlandic" unicode="&#x138;" horiz-adv-x="491" 
d="M181 514l-45 -229l303 229h81l-335 -252l263 -262h-71l-249 244l-48 -244h-58l100 514h59z" />
    <glyph glyph-name="Lacute" unicode="&#x139;" horiz-adv-x="530" 
d="M228 712l-128 -658h363l-22 -54h-410l139 712h58zM163 773l138 119h80l-151 -119h-67z" />
    <glyph glyph-name="lacute" unicode="&#x13a;" horiz-adv-x="202" 
d="M22 0l145 743h58l-145 -743h-58zM293 876h75l-147 -104h-62z" />
    <glyph glyph-name="Lcommaaccent" unicode="&#x13b;" horiz-adv-x="530" 
d="M228 712l-128 -658h363l-22 -54h-410l139 712h58zM205 -232h-45l53 97q-13 6 -13 29q0 47 46 47q35 0 35 -33q0 -21 -23 -57z" />
    <glyph glyph-name="lcommaaccent" unicode="&#x13c;" horiz-adv-x="202" 
d="M22 0l145 743h58l-145 -743h-58zM-2 -232h-45l53 97q-13 6 -13 29q0 47 46 47q35 0 35 -33q0 -21 -23 -57z" />
    <glyph glyph-name="Lcaron" unicode="&#x13d;" horiz-adv-x="530" 
d="M228 712l-128 -658h363l-22 -54h-410l139 712h58zM355 763h55l-54 -175h-42z" />
    <glyph glyph-name="lcaron" unicode="&#x13e;" horiz-adv-x="245" 
d="M22 0l145 743h58l-145 -743h-58zM292 743h55l-54 -175h-42z" />
    <glyph glyph-name="Ldot" unicode="&#x13f;" horiz-adv-x="530" 
d="M228 712l-128 -658h363l-22 -54h-410l139 712h58zM401 447q40 0 40 -40q0 -55 -50 -55q-40 0 -40 40q0 55 50 55z" />
    <glyph glyph-name="ldot" unicode="&#x140;" horiz-adv-x="302" 
d="M22 0l145 743h58l-145 -743h-58zM281 432q40 0 40 -40q0 -55 -50 -55q-40 0 -40 40q0 55 50 55z" />
    <glyph glyph-name="Lslash" unicode="&#x141;" horiz-adv-x="551" 
d="M411 463l-238 -137l-53 -272h363l-22 -54h-410l56 289l-87 -50l11 63l89 50l70 360h58l-63 -323l238 136z" />
    <glyph glyph-name="lslash" unicode="&#x142;" horiz-adv-x="231" 
d="M11 276l12 62l92 70l66 335h58l-56 -284l95 71l-12 -62l-95 -72l-77 -396h-58l67 345z" />
    <glyph glyph-name="Nacute" unicode="&#x143;" horiz-adv-x="686" 
d="M637 712h56l-138 -712h-53l-294 621l-120 -621h-57l139 712h54l292 -620zM365 773l138 119h80l-151 -119h-67z" />
    <glyph glyph-name="nacute" unicode="&#x144;" horiz-adv-x="564" 
d="M80 0h-58l65 332q20 106 75 152t159 46q189 0 189 -150q0 -28 -6 -60l-62 -320h-58l63 323q6 30 6 52q0 57 -33.5 80.5t-100.5 23.5q-79 0 -119 -33t-56 -118zM264 599l141 126h74l-151 -126h-64z" />
    <glyph glyph-name="Ncommaaccent" unicode="&#x145;" horiz-adv-x="686" 
d="M637 712h56l-138 -712h-53l-294 621l-120 -621h-57l139 712h54l292 -620zM254 -232h-45l53 97q-13 6 -13 29q0 47 46 47q35 0 35 -33q0 -21 -23 -57z" />
    <glyph glyph-name="ncommaaccent" unicode="&#x146;" horiz-adv-x="564" 
d="M80 0h-58l65 332q20 106 75 152t159 46q189 0 189 -150q0 -28 -6 -60l-62 -320h-58l63 323q6 30 6 52q0 57 -33.5 80.5t-100.5 23.5q-79 0 -119 -33t-56 -118zM193 -232h-45l53 97q-13 6 -13 29q0 47 46 47q35 0 35 -33q0 -21 -23 -57z" />
    <glyph glyph-name="Ncaron" unicode="&#x147;" horiz-adv-x="686" 
d="M637 712h56l-138 -712h-53l-294 621l-120 -621h-57l139 712h54l292 -620zM363 888l72 -80l104 80h64l-141 -115h-63l-96 115h60z" />
    <glyph glyph-name="ncaron" unicode="&#x148;" horiz-adv-x="564" 
d="M80 0h-58l65 332q20 106 75 152t159 46q189 0 189 -150q0 -28 -6 -60l-62 -320h-58l63 323q6 30 6 52q0 57 -33.5 80.5t-100.5 23.5q-79 0 -119 -33t-56 -118zM223 723h57l63 -86l98 86h62l-135 -124h-60z" />
    <glyph glyph-name="napostrophe" unicode="&#x149;" horiz-adv-x="581" 
d="M97 0h-58l65 332q20 106 75 152t159 46q189 0 189 -150q0 -28 -6 -60l-62 -320h-58l63 323q6 30 6 52q0 57 -33.5 80.5t-100.5 23.5q-79 0 -119 -33t-56 -118zM178 631l-69 -110h-46l72 131q-14 9 -14 33q0 51 47 51q39 0 39 -37q0 -24 -29 -68z" />
    <glyph glyph-name="Eng" unicode="&#x14a;" horiz-adv-x="686" 
d="M323 -122q84 0 121 29t53 102l-289 612l-120 -621h-57l139 712h54l292 -620l121 620h56l-134 -689q-22 -111 -72.5 -155t-164.5 -44q-88 0 -122 2l21 53q43 -1 102 -1z" />
    <glyph glyph-name="eng" unicode="&#x14b;" horiz-adv-x="564" 
d="M504 320l-60 -311q-22 -107 -62.5 -146.5t-127.5 -39.5q-46 0 -62 1l20 50q15 -1 44 -1q60 0 87 28.5t43 109.5l61 312q6 30 6 52q0 57 -33.5 80.5t-100.5 23.5q-79 0 -119 -33t-56 -118l-64 -328h-58l65 332q20 106 75 152t159 46q189 0 189 -150q0 -28 -6 -60z" />
    <glyph glyph-name="Omacron" unicode="&#x14c;" horiz-adv-x="694" 
d="M311 35q60 0 100.5 12.5t76 46t59.5 96.5t42 161q17 94 17 153q0 100 -44.5 137t-141.5 37q-59 0 -99.5 -12.5t-75.5 -46.5t-59.5 -97t-42.5 -160q-17 -94 -17 -153q0 -100 44 -137t141 -37zM307 -18q-125 0 -182.5 53t-57.5 177q0 66 15 154q35 202 114.5 283.5
t228.5 81.5q125 0 182.5 -53t57.5 -177q0 -65 -15 -154q-35 -202 -114.5 -283.5t-228.5 -81.5zM310 792l10 48h257l-9 -48h-258z" />
    <glyph glyph-name="omacron" unicode="&#x14d;" horiz-adv-x="556" 
d="M239 -16q-97 0 -146 42.5t-49 140.5q0 42 11 105q24 136 84.5 197t178.5 61q96 0 145 -42t49 -140q0 -51 -11 -105q-27 -138 -86 -198.5t-176 -60.5zM245 35q88 0 131.5 44.5t65.5 160.5q13 70 13 109q0 71 -34 100.5t-110 29.5q-89 0 -131.5 -44t-64.5 -161
q-13 -70 -13 -108q0 -72 34 -101.5t109 -29.5zM207 626l9 48h257l-9 -48h-257z" />
    <glyph glyph-name="Obreve" unicode="&#x14e;" horiz-adv-x="694" 
d="M311 35q60 0 100.5 12.5t76 46t59.5 96.5t42 161q17 94 17 153q0 100 -44.5 137t-141.5 37q-59 0 -99.5 -12.5t-75.5 -46.5t-59.5 -97t-42.5 -160q-17 -94 -17 -153q0 -100 44 -137t141 -37zM307 -18q-125 0 -182.5 53t-57.5 177q0 66 15 154q35 202 114.5 283.5
t228.5 81.5q125 0 182.5 -53t57.5 -177q0 -65 -15 -154q-35 -202 -114.5 -283.5t-228.5 -81.5zM453 814q86 0 101 80h51q-23 -123 -154 -123t-131 98q0 9 2 25h51q-1 -7 -1 -17q0 -32 18 -47.5t63 -15.5z" />
    <glyph glyph-name="obreve" unicode="&#x14f;" horiz-adv-x="556" 
d="M239 -16q-97 0 -146 42.5t-49 140.5q0 42 11 105q24 136 84.5 197t178.5 61q96 0 145 -42t49 -140q0 -51 -11 -105q-27 -138 -86 -198.5t-176 -60.5zM245 35q88 0 131.5 44.5t65.5 160.5q13 70 13 109q0 71 -34 100.5t-110 29.5q-89 0 -131.5 -44t-64.5 -161
q-13 -70 -13 -108q0 -72 34 -101.5t109 -29.5zM344 639q85 0 101 80h51q-23 -123 -154 -123q-130 0 -130 98q0 11 2 25h51q-1 -7 -1 -17q0 -33 17.5 -48t62.5 -15z" />
    <glyph glyph-name="Ohungarumlaut" unicode="&#x150;" horiz-adv-x="694" 
d="M311 35q60 0 100.5 12.5t76 46t59.5 96.5t42 161q17 94 17 153q0 100 -44.5 137t-141.5 37q-59 0 -99.5 -12.5t-75.5 -46.5t-59.5 -97t-42.5 -160q-17 -94 -17 -153q0 -100 44 -137t141 -37zM307 -18q-125 0 -182.5 53t-57.5 177q0 66 15 154q35 202 114.5 283.5
t228.5 81.5q125 0 182.5 -53t57.5 -177q0 -65 -15 -154q-35 -202 -114.5 -283.5t-228.5 -81.5zM305 773l115 119h75l-127 -119h-63zM458 773l115 119h75l-127 -119h-63z" />
    <glyph glyph-name="ohungarumlaut" unicode="&#x151;" horiz-adv-x="556" 
d="M239 -16q-97 0 -146 42.5t-49 140.5q0 42 11 105q24 136 84.5 197t178.5 61q96 0 145 -42t49 -140q0 -51 -11 -105q-27 -138 -86 -198.5t-176 -60.5zM245 35q88 0 131.5 44.5t65.5 160.5q13 70 13 109q0 71 -34 100.5t-110 29.5q-89 0 -131.5 -44t-64.5 -161
q-13 -70 -13 -108q0 -72 34 -101.5t109 -29.5zM214 599l114 126h68l-122 -126h-60zM360 599l114 126h68l-122 -126h-60z" />
    <glyph glyph-name="OE" unicode="&#x152;" horiz-adv-x="996" 
d="M937 393l-21 -54h-352l-56 -285h397l-21 -54h-550q-139 0 -202.5 57t-63.5 177q0 58 15 131q37 195 126 271t255 76h558l-22 -54h-374l-52 -265h363zM129 233q0 -97 49.5 -138.5t159.5 -41.5h111l118 606h-111q-142 0 -211 -64.5t-101 -231.5q-15 -75 -15 -130z" />
    <glyph glyph-name="oe" unicode="&#x153;" horiz-adv-x="907" 
d="M245 41q88 0 130 42.5t66 156.5q13 70 13 109q0 71 -34 100.5t-110 29.5q-87 0 -129 -44t-66 -161q-13 -70 -13 -106q0 -70 34 -98.5t109 -28.5zM668 234h-169q-5 -26 -5 -56q0 -68 34.5 -98.5t116.5 -30.5q94 0 145 4l-20 -51q-43 -4 -127 -4q-163 0 -190 108
q-59 -116 -215 -116q-97 0 -145.5 41t-48.5 139q0 38 11 102q25 135 84.5 196.5t176.5 61.5q79 0 124 -29.5t59 -93.5q34 68 85.5 95.5t125.5 27.5q173 0 173 -123q0 -22 -6 -46q-15 -66 -63 -96.5t-146 -30.5zM707 481q-84 0 -129.5 -44.5t-69.5 -153.5h160q77 0 107.5 18
t45.5 65q5 18 5 38q0 77 -119 77z" />
    <glyph glyph-name="Racute" unicode="&#x154;" horiz-adv-x="619" 
d="M349 299h-202l-58 -299h-58l139 712h203q115 0 173 -39t58 -125q0 -21 -5 -53q-15 -89 -62 -133t-128 -57l137 -305h-65zM372 658h-155l-59 -305h170q103 0 149 29.5t62 107.5q6 30 6 54q0 63 -42.5 88.5t-130.5 25.5zM320 773l138 119h80l-151 -119h-67z" />
    <glyph glyph-name="racute" unicode="&#x155;" horiz-adv-x="371" 
d="M142 318l-62 -318h-58l63 323q22 115 76.5 154t154.5 39q38 0 78 -2l-20 -51q-38 2 -64 2q-76 0 -113.5 -29.5t-54.5 -117.5zM221 599l141 126h74l-151 -126h-64z" />
    <glyph glyph-name="Rcommaaccent" unicode="&#x156;" horiz-adv-x="619" 
d="M349 299h-202l-58 -299h-58l139 712h203q115 0 173 -39t58 -125q0 -21 -5 -53q-15 -89 -62 -133t-128 -57l137 -305h-65zM372 658h-155l-59 -305h170q103 0 149 29.5t62 107.5q6 30 6 54q0 63 -42.5 88.5t-130.5 25.5zM228 -232h-45l53 97q-13 6 -13 29q0 47 46 47
q35 0 35 -33q0 -21 -23 -57z" />
    <glyph glyph-name="rcommaaccent" unicode="&#x157;" horiz-adv-x="371" 
d="M142 318l-62 -318h-58l63 323q22 115 76.5 154t154.5 39q38 0 78 -2l-20 -51q-38 2 -64 2q-76 0 -113.5 -29.5t-54.5 -117.5zM5 -232h-45l53 97q-13 6 -13 29q0 47 46 47q35 0 35 -33q0 -21 -23 -57z" />
    <glyph glyph-name="Rcaron" unicode="&#x158;" horiz-adv-x="619" 
d="M349 299h-202l-58 -299h-58l139 712h203q115 0 173 -39t58 -125q0 -21 -5 -53q-15 -89 -62 -133t-128 -57l137 -305h-65zM372 658h-155l-59 -305h170q103 0 149 29.5t62 107.5q6 30 6 54q0 63 -42.5 88.5t-130.5 25.5zM322 888l72 -80l104 80h64l-141 -115h-63l-96 115
h60z" />
    <glyph glyph-name="rcaron" unicode="&#x159;" horiz-adv-x="371" 
d="M142 318l-62 -318h-58l63 323q22 115 76.5 154t154.5 39q38 0 78 -2l-20 -51q-38 2 -64 2q-76 0 -113.5 -29.5t-54.5 -117.5zM161 723h57l63 -86l98 86h62l-135 -124h-60z" />
    <glyph glyph-name="Sacute" unicode="&#x15a;" horiz-adv-x="539" 
d="M0 1l21 55q85 -4 183 -4q95 0 139.5 22t63.5 70q15 39 15 74q0 41 -23 65.5t-74 40.5l-94 30q-72 23 -103.5 58t-31.5 89q0 34 8 60q21 83 82.5 118t175.5 35q129 0 192 -2l-22 -54q-50 2 -179 2q-90 0 -133.5 -24t-57.5 -81q-7 -28 -7 -47q0 -41 24.5 -63t69.5 -37
l99 -31q134 -42 134 -153q0 -47 -19 -96q-28 -70 -87.5 -100t-176.5 -30q-135 0 -199 3zM292 773l138 119h80l-151 -119h-67z" />
    <glyph glyph-name="sacute" unicode="&#x15b;" horiz-adv-x="471" 
d="M122 395q-4 -12 -4 -26q0 -26 13.5 -39t54.5 -25l100 -29q62 -18 89 -46t27 -71q0 -23 -6 -47q-13 -56 -59.5 -85t-150.5 -29q-144 0 -189 2l20 51q59 -2 171 -2q81 0 113 18t40 56q3 17 3 29q0 27 -17 43.5t-55 27.5l-109 31q-56 16 -78 40.5t-22 69.5q0 20 4 37
q14 63 64 89t139 26q86 0 182 -4l-20 -51q-87 4 -178 4q-62 0 -93 -16t-39 -54zM218 599l141 126h74l-151 -126h-64z" />
    <glyph glyph-name="Scircumflex" unicode="&#x15c;" horiz-adv-x="539" 
d="M0 1l21 55q85 -4 183 -4q95 0 139.5 22t63.5 70q15 39 15 74q0 41 -23 65.5t-74 40.5l-94 30q-72 23 -103.5 58t-31.5 89q0 34 8 60q21 83 82.5 118t175.5 35q129 0 192 -2l-22 -54q-50 2 -179 2q-90 0 -133.5 -24t-57.5 -81q-7 -28 -7 -47q0 -41 24.5 -63t69.5 -37
l99 -31q134 -42 134 -153q0 -47 -19 -96q-28 -70 -87.5 -100t-176.5 -30q-135 0 -199 3zM456 773l-72 79l-104 -79h-65l141 115h62l98 -115h-60z" />
    <glyph glyph-name="scircumflex" unicode="&#x15d;" horiz-adv-x="471" 
d="M122 395q-4 -12 -4 -26q0 -26 13.5 -39t54.5 -25l100 -29q62 -18 89 -46t27 -71q0 -23 -6 -47q-13 -56 -59.5 -85t-150.5 -29q-144 0 -189 2l20 51q59 -2 171 -2q81 0 113 18t40 56q3 17 3 29q0 27 -17 43.5t-55 27.5l-109 31q-56 16 -78 40.5t-22 69.5q0 20 4 37
q14 63 64 89t139 26q86 0 182 -4l-20 -51q-87 4 -178 4q-62 0 -93 -16t-39 -54zM369 599l-63 86l-98 -86h-62l135 124h60l86 -124h-58z" />
    <glyph glyph-name="Scedilla" unicode="&#x15e;" horiz-adv-x="539" 
d="M0 1l21 55q85 -4 183 -4q95 0 139.5 22t63.5 70q15 39 15 74q0 41 -23 65.5t-74 40.5l-94 30q-72 23 -103.5 58t-31.5 89q0 34 8 60q21 83 82.5 118t175.5 35q129 0 192 -2l-22 -54q-50 2 -179 2q-90 0 -133.5 -24t-57.5 -81q-7 -28 -7 -47q0 -41 24.5 -63t69.5 -37
l99 -31q134 -42 134 -153q0 -47 -19 -96q-28 -70 -87.5 -100t-176.5 -30q-135 0 -199 3zM291 -122q-13 -77 -123 -77q-35 0 -83 3l18 43q30 -2 70 -2q66 0 66 49q0 15 -10 20t-32 5q-44 0 -61 -1l18 42q15 1 54 1q85 0 85 -63q0 -6 -2 -20z" />
    <glyph glyph-name="scedilla" unicode="&#x15f;" horiz-adv-x="471" 
d="M122 395q-4 -12 -4 -26q0 -26 13.5 -39t54.5 -25l100 -29q62 -18 89 -46t27 -71q0 -23 -6 -47q-13 -56 -59.5 -85t-150.5 -29q-144 0 -189 2l20 51q59 -2 171 -2q81 0 113 18t40 56q3 17 3 29q0 27 -17 43.5t-55 27.5l-109 31q-56 16 -78 40.5t-22 69.5q0 20 4 37
q14 63 64 89t139 26q86 0 182 -4l-20 -51q-87 4 -178 4q-62 0 -93 -16t-39 -54zM239 -102q0 -97 -123 -97q-49 0 -81 2l18 42q30 -2 68 -2q34 0 49.5 11.5t15.5 39.5q0 15 -9.5 20.5t-31.5 5.5q-42 0 -59 -1l18 41q15 1 52 1q83 0 83 -63z" />
    <glyph glyph-name="Scaron" unicode="&#x160;" horiz-adv-x="539" 
d="M0 1l21 55q85 -4 183 -4q95 0 139.5 22t63.5 70q15 39 15 74q0 41 -23 65.5t-74 40.5l-94 30q-72 23 -103.5 58t-31.5 89q0 34 8 60q21 83 82.5 118t175.5 35q129 0 192 -2l-22 -54q-50 2 -179 2q-90 0 -133.5 -24t-57.5 -81q-7 -28 -7 -47q0 -41 24.5 -63t69.5 -37
l99 -31q134 -42 134 -153q0 -47 -19 -96q-28 -70 -87.5 -100t-176.5 -30q-135 0 -199 3zM296 888l72 -80l104 80h64l-141 -115h-63l-96 115h60z" />
    <glyph glyph-name="scaron" unicode="&#x161;" horiz-adv-x="471" 
d="M122 395q-4 -12 -4 -26q0 -26 13.5 -39t54.5 -25l100 -29q62 -18 89 -46t27 -71q0 -23 -6 -47q-13 -56 -59.5 -85t-150.5 -29q-144 0 -189 2l20 51q59 -2 171 -2q81 0 113 18t40 56q3 17 3 29q0 27 -17 43.5t-55 27.5l-109 31q-56 16 -78 40.5t-22 69.5q0 20 4 37
q14 63 64 89t139 26q86 0 182 -4l-20 -51q-87 4 -178 4q-62 0 -93 -16t-39 -54zM161 723h57l63 -86l98 86h62l-135 -124h-60z" />
    <glyph glyph-name="Tcommaaccent" unicode="&#x162;" horiz-adv-x="612" 
d="M653 658h-239l-128 -658h-59l128 658h-250l22 54h547zM322 -122q-13 -77 -123 -77q-35 0 -83 3l18 43q30 -2 70 -2q66 0 66 49q0 15 -10 20t-32 5q-44 0 -61 -1l18 42q15 1 54 1q85 0 85 -63q0 -6 -2 -20z" />
    <glyph glyph-name="tcommaaccent" unicode="&#x163;" horiz-adv-x="373" 
d="M208 655l-28 -141h197l-20 -50h-187l-55 -285q-6 -31 -6 -52q0 -43 23 -59.5t76 -16.5h86l-20 -51h-70q-78 0 -115 28t-37 92q0 34 7 69l89 457zM222 -102q0 -97 -123 -97q-49 0 -81 2l18 42q30 -2 68 -2q34 0 49.5 11.5t15.5 39.5q0 15 -9.5 20.5t-31.5 5.5
q-42 0 -59 -1l18 41q15 1 52 1q83 0 83 -63z" />
    <glyph glyph-name="Tcaron" unicode="&#x164;" horiz-adv-x="613" 
d="M653 658h-239l-128 -658h-59l128 658h-250l22 54h547zM331 888l72 -80l104 80h64l-141 -115h-63l-96 115h60z" />
    <glyph glyph-name="tcaron" unicode="&#x165;" horiz-adv-x="373" 
d="M208 655l-28 -141h197l-20 -50h-187l-55 -285q-6 -31 -6 -52q0 -43 23 -59.5t76 -16.5h86l-20 -51h-70q-78 0 -115 28t-37 92q0 34 7 69l89 457zM299 575h-44l40 168h56z" />
    <glyph glyph-name="Tbar" unicode="&#x166;" horiz-adv-x="613" 
d="M535 372l-10 -50h-176l-63 -322h-59l62 322h-174l10 50h174l56 286h-250l22 54h547l-21 -54h-239l-56 -286h177z" />
    <glyph glyph-name="tbar" unicode="&#x167;" horiz-adv-x="378" 
d="M211 655l-28 -141h197l-20 -50h-187l-31 -162h180l-10 -48h-180l-14 -75q-6 -31 -6 -52q0 -43 23 -59.5t76 -16.5h86l-20 -51h-70q-78 0 -115 28t-37 92q0 34 7 69l12 65h-58l9 48h59l67 344z" />
    <glyph glyph-name="Utilde" unicode="&#x168;" horiz-adv-x="659" 
d="M614 712h58l-93 -482q-27 -137 -93.5 -192.5t-187.5 -55.5q-232 0 -232 189q0 37 8 82l89 459h58l-89 -462q-9 -49 -9 -76q0 -78 43 -108.5t133 -30.5q99 0 150 44t74 164zM509 770q-33 0 -67 23l-30 19q-27 17 -44 17q-15 0 -24.5 -9.5t-17.5 -37.5l-3 -12h-46l2 11
q12 49 32 71.5t60 22.5q33 0 67 -23l30 -19q27 -17 44 -17q15 0 24.5 9.5t17.5 37.5l3 12h46l-2 -11q-12 -49 -32 -71.5t-60 -22.5z" />
    <glyph glyph-name="utilde" unicode="&#x169;" horiz-adv-x="558" 
d="M478 514h58l-64 -329q-21 -107 -75 -154t-158 -47q-185 0 -185 150q0 30 6 61l62 319h58l-63 -323q-6 -30 -6 -53q0 -57 32.5 -80t98.5 -23q77 0 116 34.5t57 121.5zM344 678l29 -17q31 -18 47 -18q28 0 39 48l2 9h44l-2 -9q-20 -94 -85 -94q-31 0 -67 22l-29 17
q-31 18 -47 18q-28 0 -39 -48l-2 -9h-44l2 9q20 94 85 94q31 0 67 -22z" />
    <glyph glyph-name="Umacron" unicode="&#x16a;" horiz-adv-x="659" 
d="M614 712h58l-93 -482q-27 -137 -93.5 -192.5t-187.5 -55.5q-232 0 -232 189q0 37 8 82l89 459h58l-89 -462q-9 -49 -9 -76q0 -78 43 -108.5t133 -30.5q99 0 150 44t74 164zM296 792l10 48h257l-9 -48h-258z" />
    <glyph glyph-name="umacron" unicode="&#x16b;" horiz-adv-x="558" 
d="M478 514h58l-64 -329q-21 -107 -75 -154t-158 -47q-185 0 -185 150q0 30 6 61l62 319h58l-63 -323q-6 -30 -6 -53q0 -57 32.5 -80t98.5 -23q77 0 116 34.5t57 121.5zM212 626l9 48h257l-9 -48h-257z" />
    <glyph glyph-name="Ubreve" unicode="&#x16c;" horiz-adv-x="659" 
d="M614 712h58l-93 -482q-27 -137 -93.5 -192.5t-187.5 -55.5q-232 0 -232 189q0 37 8 82l89 459h58l-89 -462q-9 -49 -9 -76q0 -78 43 -108.5t133 -30.5q99 0 150 44t74 164zM436 814q86 0 101 80h51q-23 -123 -154 -123t-131 98q0 9 2 25h51q-1 -7 -1 -17q0 -32 18 -47.5
t63 -15.5z" />
    <glyph glyph-name="ubreve" unicode="&#x16d;" horiz-adv-x="558" 
d="M478 514h58l-64 -329q-21 -107 -75 -154t-158 -47q-185 0 -185 150q0 30 6 61l62 319h58l-63 -323q-6 -30 -6 -53q0 -57 32.5 -80t98.5 -23q77 0 116 34.5t57 121.5zM346 639q85 0 101 80h51q-23 -123 -154 -123q-130 0 -130 98q0 11 2 25h51q-1 -7 -1 -17
q0 -33 17.5 -48t62.5 -15z" />
    <glyph glyph-name="Uring" unicode="&#x16e;" horiz-adv-x="659" 
d="M614 712h58l-93 -482q-27 -137 -93.5 -192.5t-187.5 -55.5q-232 0 -232 189q0 37 8 82l89 459h58l-89 -462q-9 -49 -9 -76q0 -78 43 -108.5t133 -30.5q99 0 150 44t74 164zM445 914q-36 0 -52.5 -14t-25.5 -46q-4 -13 -4 -30q0 -50 64 -50q36 0 52.5 14t25.5 46
q4 13 4 30q0 50 -64 50zM423 732q-49 0 -78 23t-29 67q0 6 2 22q20 112 131 112q49 0 78 -23t29 -67q0 -6 -2 -22q-20 -112 -131 -112z" />
    <glyph glyph-name="uring" unicode="&#x16f;" horiz-adv-x="558" 
d="M478 514h58l-64 -329q-21 -107 -75 -154t-158 -47q-185 0 -185 150q0 30 6 61l62 319h58l-63 -323q-6 -30 -6 -53q0 -57 32.5 -80t98.5 -23q77 0 116 34.5t57 121.5zM360 750q-36 0 -52.5 -14t-25.5 -46q-4 -13 -4 -30q0 -50 64 -50q36 0 52.5 14t25.5 46q4 13 4 30
q0 50 -64 50zM338 568q-49 0 -78 23t-29 67q0 6 2 22q20 112 131 112q49 0 78 -23t29 -67q0 -6 -2 -22q-20 -112 -131 -112z" />
    <glyph glyph-name="Uhungarumlaut" unicode="&#x170;" horiz-adv-x="659" 
d="M614 712h58l-93 -482q-27 -137 -93.5 -192.5t-187.5 -55.5q-232 0 -232 189q0 37 8 82l89 459h58l-89 -462q-9 -49 -9 -76q0 -78 43 -108.5t133 -30.5q99 0 150 44t74 164zM284 773l115 119h75l-127 -119h-63zM437 773l115 119h75l-127 -119h-63z" />
    <glyph glyph-name="uhungarumlaut" unicode="&#x171;" horiz-adv-x="558" 
d="M478 514h58l-64 -329q-21 -107 -75 -154t-158 -47q-185 0 -185 150q0 30 6 61l62 319h58l-63 -323q-6 -30 -6 -53q0 -57 32.5 -80t98.5 -23q77 0 116 34.5t57 121.5zM208 599l114 126h68l-122 -126h-60zM354 599l114 126h68l-122 -126h-60z" />
    <glyph glyph-name="Uogonek" unicode="&#x172;" horiz-adv-x="659" 
d="M614 712h58l-93 -482q-20 -102 -61 -157t-109 -76q-59 -37 -81 -61t-22 -47q0 -24 48 -24h37l-21 -48h-36q-84 0 -84 56t73 110q-8 -1 -25 -1q-232 0 -232 189q0 37 8 82l89 459h58l-89 -462q-9 -49 -9 -76q0 -78 43 -108.5t133 -30.5q99 0 150 44t74 164z" />
    <glyph glyph-name="uogonek" unicode="&#x173;" horiz-adv-x="558" 
d="M478 514h58l-64 -329q-15 -76 -44.5 -120t-80.5 -64q-60 -40 -82.5 -64.5t-22.5 -47.5q0 -24 48 -24h37l-21 -48h-36q-84 0 -84 56q0 57 73 112q-7 -1 -20 -1q-185 0 -185 150q0 30 6 61l62 319h58l-63 -323q-6 -30 -6 -53q0 -57 32.5 -80t98.5 -23q77 0 116 34.5
t57 121.5z" />
    <glyph glyph-name="Wcircumflex" unicode="&#x174;" horiz-adv-x="855" 
d="M150 0l-29 712h58l18 -635l292 635h56l39 -634l269 634h59l-311 -712h-63l-38 626l-287 -626h-63zM611 773l-72 79l-104 -79h-65l141 115h62l98 -115h-60z" />
    <glyph glyph-name="wcircumflex" unicode="&#x175;" horiz-adv-x="724" 
d="M384 514h57l38 -444l214 444h57l-254 -514h-59l-39 438l-210 -438h-60l-54 514h56l40 -445zM502 599l-63 86l-98 -86h-62l135 124h60l86 -124h-58z" />
    <glyph glyph-name="Ycircumflex" unicode="&#x176;" horiz-adv-x="606" 
d="M104 712h61l153 -353l292 353h68l-337 -404l-60 -308h-58l60 308zM483 773l-72 79l-104 -79h-65l141 115h62l98 -115h-60z" />
    <glyph glyph-name="ycircumflex" unicode="&#x177;" horiz-adv-x="563" 
d="M205 -126q86 0 127.5 38.5t59.5 131.5l6 31q-50 -57 -157 -57q-180 0 -180 149q0 27 6 62l55 285h58l-56 -289q-6 -30 -6 -54q0 -57 32 -79.5t98 -22.5q81 0 122.5 34t56.5 119l56 292h58l-90 -465q-24 -119 -78 -172.5t-169 -53.5q-41 0 -177 2l20 52q78 -3 158 -3z
M427 599l-63 86l-98 -86h-62l135 124h60l86 -124h-58z" />
    <glyph glyph-name="Ydieresis" unicode="&#x178;" horiz-adv-x="606" 
d="M104 712h61l153 -353l292 353h68l-337 -404l-60 -308h-58l60 308zM334 859q36 0 36 -35q0 -51 -46 -51q-37 0 -37 35q0 51 47 51zM486 859q36 0 36 -35q0 -51 -46 -51q-37 0 -37 35q0 51 47 51z" />
    <glyph glyph-name="Zacute" unicode="&#x179;" horiz-adv-x="578" 
d="M135 658l21 54h451l-10 -52l-524 -606h424l-21 -54h-482l10 52l524 606h-393zM313 773l138 119h80l-151 -119h-67z" />
    <glyph glyph-name="zacute" unicode="&#x17a;" horiz-adv-x="481" 
d="M-2 0l6 43l391 421h-307l20 50h368l-7 -43l-390 -420h325l-20 -51h-386zM222 599l141 126h74l-151 -126h-64z" />
    <glyph glyph-name="Zdotaccent" unicode="&#x17b;" horiz-adv-x="578" 
d="M135 658l21 54h451l-10 -52l-524 -606h424l-21 -54h-482l10 52l524 606h-393zM397 860q37 0 37 -36q0 -51 -47 -51q-38 0 -38 36q0 51 48 51z" />
    <glyph glyph-name="zdotaccent" unicode="&#x17c;" horiz-adv-x="481" 
d="M-2 0l6 43l391 421h-307l20 50h368l-7 -43l-390 -420h325l-20 -51h-386zM309 703q37 0 37 -36q0 -52 -48 -52q-37 0 -37 36q0 52 48 52z" />
    <glyph glyph-name="Zcaron" unicode="&#x17d;" horiz-adv-x="578" 
d="M135 658l21 54h451l-10 -52l-524 -606h424l-21 -54h-482l10 52l524 606h-393zM325 888l72 -80l104 80h64l-141 -115h-63l-96 115h60z" />
    <glyph glyph-name="zcaron" unicode="&#x17e;" horiz-adv-x="481" 
d="M-2 0l6 43l391 421h-307l20 50h368l-7 -43l-390 -420h325l-20 -51h-386zM183 723h57l63 -86l98 86h62l-135 -124h-60z" />
    <glyph glyph-name="longs" unicode="&#x17f;" horiz-adv-x="202" 
d="M180 514l-100 -514h-58l102 522q24 126 78 174.5t167 48.5q36 0 62 -2l-20 -51q-26 2 -47 2q-84 0 -123 -35t-61 -145z" />
    <glyph glyph-name="florin" unicode="&#x192;" horiz-adv-x="325" 
d="M24 10l100 512q24 126 78 174.5t167 48.5q49 0 79 -2l-19 -51q-32 2 -65 2q-84 0 -123.5 -34.5t-60.5 -145.5h198l-20 -50h-188l-89 -459q-21 -106 -62 -144t-129 -38q-46 0 -62 1l20 50q15 -1 44 -1q61 0 88.5 28t43.5 109z" />
    <glyph glyph-name="Scommaaccent" unicode="&#x218;" horiz-adv-x="539" 
d="M0 1l21 55q85 -4 183 -4q95 0 139.5 22t63.5 70q15 39 15 74q0 41 -23 65.5t-74 40.5l-94 30q-72 23 -103.5 58t-31.5 89q0 34 8 60q21 83 82.5 118t175.5 35q129 0 192 -2l-22 -54q-50 2 -179 2q-90 0 -133.5 -24t-57.5 -81q-7 -28 -7 -47q0 -41 24.5 -63t69.5 -37
l99 -31q134 -42 134 -153q0 -47 -19 -96q-28 -70 -87.5 -100t-176.5 -30q-135 0 -199 3zM181 -232h-45l53 97q-13 6 -13 29q0 47 46 47q35 0 35 -33q0 -21 -23 -57z" />
    <glyph glyph-name="scommaaccent" unicode="&#x219;" horiz-adv-x="471" 
d="M122 395q-4 -12 -4 -26q0 -26 13.5 -39t54.5 -25l100 -29q62 -18 89 -46t27 -71q0 -23 -6 -47q-13 -56 -59.5 -85t-150.5 -29q-144 0 -189 2l20 51q59 -2 171 -2q81 0 113 18t40 56q3 17 3 29q0 27 -17 43.5t-55 27.5l-109 31q-56 16 -78 40.5t-22 69.5q0 20 4 37
q14 63 64 89t139 26q86 0 182 -4l-20 -51q-87 4 -178 4q-62 0 -93 -16t-39 -54zM130 -232h-45l53 97q-13 6 -13 29q0 47 46 47q35 0 35 -33q0 -21 -23 -57z" />
    <glyph glyph-name="uni021A" unicode="&#x21a;" horiz-adv-x="613" 
d="M653 658h-239l-128 -658h-59l128 658h-250l22 54h547zM204 -232h-45l53 97q-13 6 -13 29q0 47 46 47q35 0 35 -33q0 -21 -23 -57z" />
    <glyph glyph-name="uni021B" unicode="&#x21b;" horiz-adv-x="373" 
d="M208 655l-28 -141h197l-20 -50h-187l-55 -285q-6 -31 -6 -52q0 -43 23 -59.5t76 -16.5h86l-20 -51h-70q-78 0 -115 28t-37 92q0 34 7 69l89 457zM107 -232h-45l53 97q-13 6 -13 29q0 47 46 47q35 0 35 -33q0 -21 -23 -57z" />
    <glyph glyph-name="uni0237" unicode="&#x237;" horiz-adv-x="202" 
d="M24 10l98 504h58l-99 -509q-21 -106 -62 -144t-129 -38q-46 0 -62 1l20 50q15 -1 44 -1q61 0 88.5 28t43.5 109z" />
    <glyph glyph-name="afii57929" unicode="&#x2bc;" horiz-adv-x="239" 
d="M224 631l-69 -110h-46l72 131q-14 9 -14 33q0 51 47 51q39 0 39 -37q0 -24 -29 -68z" />
    <glyph glyph-name="circumflex" unicode="&#x2c6;" horiz-adv-x="500" 
d="M399 599l-63 86l-98 -86h-62l135 124h60l86 -124h-58z" />
    <glyph glyph-name="caron" unicode="&#x2c7;" horiz-adv-x="500" 
d="M199 723h57l63 -86l98 86h62l-135 -124h-60z" />
    <glyph glyph-name="uni02C9" unicode="&#x2c9;" horiz-adv-x="500" 
d="M194 626l9 48h257l-9 -48h-257z" />
    <glyph glyph-name="breve" unicode="&#x2d8;" horiz-adv-x="500" 
d="M328 639q85 0 101 80h51q-23 -123 -154 -123q-130 0 -130 98q0 11 2 25h51q-1 -7 -1 -17q0 -33 17.5 -48t62.5 -15z" />
    <glyph glyph-name="dotaccent" unicode="&#x2d9;" horiz-adv-x="500" 
d="M334 703q37 0 37 -36q0 -52 -48 -52q-37 0 -37 36q0 52 48 52z" />
    <glyph glyph-name="ring" unicode="&#x2da;" horiz-adv-x="500" 
d="M342 750q-36 0 -52.5 -14t-25.5 -46q-4 -13 -4 -30q0 -50 64 -50q36 0 52.5 14t25.5 46q4 13 4 30q0 50 -64 50zM320 568q-49 0 -78 23t-29 67q0 6 2 22q20 112 131 112q49 0 78 -23t29 -67q0 -6 -2 -22q-20 -112 -131 -112z" />
    <glyph glyph-name="ogonek" unicode="&#x2db;" horiz-adv-x="500" 
d="M245 -135l-21 -48h-35q-83 0 -83 56q0 38 29 71t93 70l43 -14q-64 -40 -87.5 -64t-23.5 -47q0 -24 47 -24h38z" />
    <glyph glyph-name="tilde" unicode="&#x2dc;" horiz-adv-x="500" 
d="M324 678l29 -17q31 -18 47 -18q28 0 39 48l2 9h44l-2 -9q-20 -94 -85 -94q-31 0 -67 22l-29 17q-31 18 -47 18q-28 0 -39 -48l-2 -9h-44l2 9q20 94 85 94q31 0 67 -22z" />
    <glyph glyph-name="hungarumlaut" unicode="&#x2dd;" horiz-adv-x="500" 
d="M164 599l114 126h68l-122 -126h-60zM310 599l114 126h68l-122 -126h-60z" />
    <glyph glyph-name="increment" unicode="&#x394;" horiz-adv-x="646" 
d="M572 0h-598l405 712h63zM400 650l-336 -597h439z" />
    <glyph glyph-name="Omega" unicode="&#x3a9;" horiz-adv-x="691" 
d="M643 360q-25 -113 -66.5 -184t-122.5 -124h155l-21 -52h-226l8 45q93 59 140.5 127t71.5 194q16 80 16 137q0 101 -46 138t-136 37q-55 0 -95.5 -12t-79 -44t-65 -96.5t-41.5 -160.5q-8 -56 -8 -94q0 -72 22.5 -125t73.5 -101l-9 -45h-218l21 52h137q-86 86 -86 223
q0 57 8 97q31 194 115 276.5t228 82.5q119 0 179.5 -55.5t60.5 -173.5q0 -65 -16 -142z" />
    <glyph glyph-name="mu" unicode="&#x3bc;" horiz-adv-x="559" 
d="M266 -9q-142 0 -176 71l-45 -237h-56l133 689h58l-62 -317q-6 -27 -6 -49q0 -58 38 -82t118 -24q59 0 121 8l91 464h58l-91 -462q-5 -27 -16.5 -37.5t-42.5 -15.5q-56 -8 -122 -8z" />
    <glyph glyph-name="pi" unicode="&#x3c0;" horiz-adv-x="611" 
d="M535 463l-89 -463h-58l89 463h-264l-90 -463h-58l90 463h-92l20 51h554l-21 -51h-81z" />
    <glyph glyph-name="Wgrave" unicode="&#x1e80;" horiz-adv-x="855" 
d="M150 0l-29 712h58l18 -635l292 635h56l39 -634l269 634h59l-311 -712h-63l-38 626l-287 -626h-63zM487 892l96 -119h-59l-108 119h71z" />
    <glyph glyph-name="wgrave" unicode="&#x1e81;" horiz-adv-x="724" 
d="M384 514h57l38 -444l214 444h57l-254 -514h-59l-39 438l-210 -438h-60l-54 514h56l40 -445zM384 725l96 -126h-57l-105 126h66z" />
    <glyph glyph-name="Wacute" unicode="&#x1e82;" horiz-adv-x="855" 
d="M150 0l-29 712h58l18 -635l292 635h56l39 -634l269 634h59l-311 -712h-63l-38 626l-287 -626h-63zM462 773l138 119h80l-151 -119h-67z" />
    <glyph glyph-name="wacute" unicode="&#x1e83;" horiz-adv-x="724" 
d="M384 514h57l38 -444l214 444h57l-254 -514h-59l-39 438l-210 -438h-60l-54 514h56l40 -445zM364 599l141 126h74l-151 -126h-64z" />
    <glyph glyph-name="Wdieresis" unicode="&#x1e84;" horiz-adv-x="855" 
d="M150 0l-29 712h58l18 -635l292 635h56l39 -634l269 634h59l-311 -712h-63l-38 626l-287 -626h-63zM457 859q36 0 36 -35q0 -51 -46 -51q-37 0 -37 35q0 51 47 51zM609 859q36 0 36 -35q0 -51 -46 -51q-37 0 -37 35q0 51 47 51z" />
    <glyph glyph-name="wdieresis" unicode="&#x1e85;" horiz-adv-x="724" 
d="M384 514h57l38 -444l214 444h57l-254 -514h-59l-39 438l-210 -438h-60l-54 514h56l40 -445zM367 699q35 0 35 -34q0 -50 -46 -50q-36 0 -36 34q0 50 47 50zM514 699q35 0 35 -34q0 -50 -46 -50q-36 0 -36 34q0 50 47 50z" />
    <glyph glyph-name="Ygrave" unicode="&#x1ef2;" horiz-adv-x="606" 
d="M104 712h61l153 -353l292 353h68l-337 -404l-60 -308h-58l60 308zM370 892l96 -119h-59l-108 119h71z" />
    <glyph glyph-name="ygrave" unicode="&#x1ef3;" horiz-adv-x="563" 
d="M205 -126q86 0 127.5 38.5t59.5 131.5l6 31q-50 -57 -157 -57q-180 0 -180 149q0 27 6 62l55 285h58l-56 -289q-6 -30 -6 -54q0 -57 32 -79.5t98 -22.5q81 0 122.5 34t56.5 119l56 292h58l-90 -465q-24 -119 -78 -172.5t-169 -53.5q-41 0 -177 2l20 52q78 -3 158 -3z
M308 725l96 -126h-57l-105 126h66z" />
    <glyph glyph-name="endash" unicode="&#x2013;" horiz-adv-x="500" 
d="M-3 251l11 53h500l-11 -53h-500z" />
    <glyph glyph-name="emdash" unicode="&#x2014;" horiz-adv-x="1000" 
d="M-3 251l11 53h1000l-11 -53h-1000z" />
    <glyph glyph-name="quoteleft" unicode="&#x2018;" horiz-adv-x="180" 
d="M203 716h42l-78 -139q16 -9 16 -34q0 -51 -47 -51q-38 0 -38 38q0 23 30 70z" />
    <glyph glyph-name="quoteright" unicode="&#x2019;" horiz-adv-x="180" 
d="M114 495h-42l78 139q-16 9 -16 34q0 51 47 51q38 0 38 -38q0 -23 -30 -70z" />
    <glyph glyph-name="quotesinglbase" unicode="&#x201a;" horiz-adv-x="174" 
d="M61 -20l-76 -116h-41l78 139q-16 9 -16 34q0 51 47 51q38 0 38 -38q0 -23 -30 -70z" />
    <glyph glyph-name="quotedblleft" unicode="&#x201c;" horiz-adv-x="345" 
d="M203 716h42l-78 -139q16 -9 16 -34q0 -51 -47 -51q-38 0 -38 38q0 23 30 70zM368 716h42l-78 -139q16 -9 16 -34q0 -51 -47 -51q-38 0 -38 38q0 23 30 70z" />
    <glyph glyph-name="quotedblright" unicode="&#x201d;" horiz-adv-x="344" 
d="M114 495h-42l78 139q-16 9 -16 34q0 51 47 51q38 0 38 -38q0 -23 -30 -70zM278 495h-42l78 139q-16 9 -16 34q0 51 47 51q38 0 38 -38q0 -23 -30 -70z" />
    <glyph glyph-name="quotedblbase" unicode="&#x201e;" horiz-adv-x="338" 
d="M-13 -135h-42l78 139q-16 9 -16 34q0 51 47 51q38 0 38 -38q0 -23 -30 -70zM150 -135h-42l78 139q-16 9 -16 34q0 51 47 51q38 0 38 -38q0 -23 -30 -70z" />
    <glyph glyph-name="dagger" unicode="&#x2020;" horiz-adv-x="495" 
d="M484 412h-178l-115 -587h-56l114 587h-187l21 52h176l49 248h56l-48 -248h189z" />
    <glyph glyph-name="daggerdbl" unicode="&#x2021;" horiz-adv-x="495" 
d="M183 72h-187l21 52h176l57 291h-187l20 52h177l48 245h56l-48 -245h189l-21 -52h-178l-57 -291h189l-20 -52h-179l-48 -247h-56z" />
    <glyph glyph-name="bullet" unicode="&#x2022;" horiz-adv-x="346" 
d="M274 280q0 -50 -22.5 -74t-75.5 -24q-52 0 -74.5 24t-22.5 74t22.5 74t74.5 24q53 0 75.5 -24t22.5 -74z" />
    <glyph glyph-name="ellipsis" unicode="&#x2026;" horiz-adv-x="1000" 
d="M127 90q40 0 40 -40q0 -55 -50 -55q-40 0 -40 40q0 55 50 55zM467 90q40 0 40 -40q0 -55 -50 -55q-40 0 -40 40q0 55 50 55zM797 90q40 0 40 -40q0 -55 -50 -55q-40 0 -40 40q0 55 50 55z" />
    <glyph glyph-name="perthousand" unicode="&#x2030;" horiz-adv-x="1239" 
d="M139 0l554 680h60l-554 -680h-60zM687 354q-55 0 -83 -26t-44 -107l-9 -48q-6 -31 -6 -54q0 -46 23 -63.5t69 -17.5q55 0 83 26t44 107l9 48q6 31 6 54q0 46 -23 63.5t-69 17.5zM634 -9q-141 0 -141 126q0 26 6 56l9 51q17 93 59.5 135t122.5 42q141 0 141 -126
q0 -26 -6 -56l-9 -51q-17 -93 -59.5 -135t-122.5 -42zM1065 354q-55 0 -83 -26t-44 -107l-9 -48q-6 -31 -6 -54q0 -46 23 -63.5t69 -17.5q55 0 83 26t44 107l9 48q6 31 6 54q0 46 -23 63.5t-69 17.5zM1012 -9q-141 0 -141 126q0 26 6 56l9 51q17 93 59.5 135t122.5 42
q141 0 141 -126q0 -26 -6 -56l-9 -51q-17 -93 -59.5 -135t-122.5 -42zM257 642q-55 0 -83 -26t-44 -107l-9 -48q-6 -31 -6 -54q0 -46 23 -63.5t69 -17.5q55 0 83 26t44 107l9 48q6 31 6 54q0 46 -23 63.5t-69 17.5zM204 279q-141 0 -141 126q0 26 6 56l9 51q17 93 59.5 135
t122.5 42q141 0 141 -126q0 -26 -6 -56l-9 -51q-17 -93 -59.5 -135t-122.5 -42z" />
    <glyph glyph-name="guilsinglleft" unicode="&#x2039;" horiz-adv-x="306" 
d="M296 457l-14 -69l-201 -132l150 -132l-12 -63l-193 170l11 56z" />
    <glyph glyph-name="guilsinglright" unicode="&#x203a;" horiz-adv-x="306" 
d="M11 61l14 69l201 132l-150 133l12 62l193 -170l-11 -56z" />
    <glyph glyph-name="fraction" unicode="&#x2044;" horiz-adv-x="111" 
d="M-235 0l554 680h60l-554 -680h-60z" />
    <glyph glyph-name="uni2070" unicode="&#x2070;" 
d="M255 642q-55 0 -83 -26t-44 -107l-9 -48q-6 -31 -6 -54q0 -46 23 -63.5t69 -17.5q55 0 83 26t44 107l9 48q6 31 6 54q0 46 -23 63.5t-69 17.5zM202 279q-141 0 -141 126q0 26 6 56l9 51q17 93 59.5 135t122.5 42q141 0 141 -126q0 -26 -6 -56l-9 -51q-17 -93 -59.5 -135
t-122.5 -42z" />
    <glyph glyph-name="uni2074" unicode="&#x2074;" 
d="M378 422l-18 -44h-51l-17 -90h-48l17 90h-206l8 40l192 262h54l-188 -258h149l22 116l50 8l-24 -124h60z" />
    <glyph glyph-name="uni2075" unicode="&#x2075;" 
d="M67 288l16 45q14 0 50 -0.5t57 -0.5q75 0 96 46q8 21 8 44q0 31 -17.5 43.5t-55.5 12.5h-113l39 202h234l-17 -46h-179l-22 -112h62q122 0 122 -95q0 -37 -14 -68q-35 -72 -151 -72q-68 0 -115 1z" />
    <glyph glyph-name="uni2076" unicode="&#x2076;" 
d="M272 681q29 0 57.5 -0.5t49.5 -0.5l-18 -46q-43 1 -92 1t-76 -20t-38 -71l-7 -32q29 29 96 29q120 0 120 -107q0 -36 -9 -62q-19 -53 -55.5 -73t-92.5 -20q-127 0 -127 111q0 21 4 42l22 112q14 74 55 105.5t111 31.5zM212 324q38 0 60 12t34 43q8 24 8 50q0 39 -21 53.5
t-63 14.5q-44 0 -67 -16t-32 -59q-3 -18 -3 -31q0 -67 84 -67z" />
    <glyph glyph-name="uni2077" unicode="&#x2077;" 
d="M118 634l18 46h254l-7 -42l-200 -350h-57l200 346h-208z" />
    <glyph glyph-name="uni2078" unicode="&#x2078;" 
d="M364 531q-18 -26 -55 -41q49 -24 49 -78q0 -38 -18 -70q-37 -63 -140 -63q-132 0 -132 102q0 93 85 116q-40 21 -40 70q0 61 39 91.5t107 30.5q62 0 94.5 -23t32.5 -66q0 -38 -22 -69zM221 474q-102 0 -102 -93q0 -59 85 -59q69 0 92 39q13 22 13 51q0 62 -88 62z
M255 647q-47 0 -70 -18.5t-23 -61.5q0 -28 19.5 -39.5t63.5 -11.5q59 0 80 32q12 20 12 48q0 51 -82 51z" />
    <glyph glyph-name="uni2079" unicode="&#x2079;" 
d="M188 287q-29 0 -57.5 0.5t-49.5 0.5l18 46q43 -1 92 -1t76 20t38 71l7 32q-29 -29 -96 -29q-120 0 -120 107q0 36 9 62q32 93 148 93q127 0 127 -111q0 -21 -4 -42l-22 -112q-14 -74 -55 -105.5t-111 -31.5zM248 644q-38 0 -60 -12t-34 -43q-8 -24 -8 -50q0 -39 21 -53.5
t63 -14.5q44 0 67 16t32 59q3 18 3 31q0 67 -84 67z" />
    <glyph glyph-name="uni2080" unicode="&#x2080;" 
d="M199 354q-55 0 -83 -26t-44 -107l-9 -48q-6 -31 -6 -54q0 -46 23 -63.5t69 -17.5q55 0 83 26t44 107l9 48q6 31 6 54q0 46 -23 63.5t-69 17.5zM146 -9q-141 0 -141 126q0 26 6 56l9 51q17 93 59.5 135t122.5 42q141 0 141 -126q0 -26 -6 -56l-9 -51q-17 -93 -59.5 -135
t-122.5 -42z" />
    <glyph glyph-name="uni2081" unicode="&#x2081;" 
d="M84 347l18 45h142l-68 -346h102l-17 -46h-240l18 46h87l59 301h-101z" />
    <glyph glyph-name="uni2082" unicode="&#x2082;" 
d="M272 46l-17 -46h-246l12 63q12 61 36.5 89.5t84.5 52.5l56 22q49 20 58 42q6 18 6 34q0 24 -16 34.5t-54 10.5q-89 0 -116 -2l17 45q34 2 104 2q116 0 116 -85q0 -31 -11 -53q-10 -25 -29 -40.5t-57 -30.5l-57 -22q-45 -18 -62 -36t-25 -59l-4 -21h204z" />
    <glyph glyph-name="uni2083" unicode="&#x2083;" 
d="M6 1l17 45q37 -1 112 -1q49 0 73 14t32 51q3 12 3 24q0 27 -16 38.5t-52 11.5h-102l17 44h89q70 0 86 47q4 11 4 27q0 24 -16 34.5t-52 10.5q-14 0 -57.5 -0.5t-61.5 -0.5l19 46q35 1 103 1q116 0 116 -82q0 -25 -6 -43q-17 -47 -70 -61q50 -17 50 -74q0 -19 -5 -37
q-13 -50 -51 -73.5t-107 -23.5q-95 0 -125 2z" />
    <glyph glyph-name="uni2084" unicode="&#x2084;" 
d="M322 134l-18 -44h-51l-17 -90h-48l17 90h-206l8 40l192 262h54l-188 -258h149l22 116l50 8l-24 -124h60z" />
    <glyph glyph-name="uni2085" unicode="&#x2085;" 
d="M11 0l16 45q14 0 50 -0.5t57 -0.5q75 0 96 46q8 21 8 44q0 31 -17.5 43.5t-55.5 12.5h-113l39 202h234l-17 -46h-179l-22 -112h62q122 0 122 -95q0 -37 -14 -68q-35 -72 -151 -72q-68 0 -115 1z" />
    <glyph glyph-name="uni2086" unicode="&#x2086;" 
d="M216 393q29 0 57.5 -0.5t49.5 -0.5l-18 -46q-43 1 -92 1t-76 -20t-38 -71l-7 -32q29 29 96 29q120 0 120 -107q0 -36 -9 -62q-19 -53 -55.5 -73t-92.5 -20q-127 0 -127 111q0 21 4 42l22 112q14 74 55 105.5t111 31.5zM156 36q38 0 60 12t34 43q8 24 8 50q0 39 -21 53.5
t-63 14.5q-44 0 -67 -16t-32 -59q-3 -18 -3 -31q0 -67 84 -67z" />
    <glyph glyph-name="uni2087" unicode="&#x2087;" 
d="M62 346l18 46h254l-7 -42l-200 -350h-57l200 346h-208z" />
    <glyph glyph-name="uni2088" unicode="&#x2088;" 
d="M308 243q-18 -26 -55 -41q49 -24 49 -78q0 -38 -18 -70q-37 -63 -140 -63q-132 0 -132 102q0 93 85 116q-40 21 -40 70q0 61 39 91.5t107 30.5q62 0 94.5 -23t32.5 -66q0 -38 -22 -69zM165 186q-102 0 -102 -93q0 -59 85 -59q69 0 92 39q13 22 13 51q0 62 -88 62z
M199 359q-47 0 -70 -18.5t-23 -61.5q0 -28 19.5 -39.5t63.5 -11.5q59 0 80 32q12 20 12 48q0 51 -82 51z" />
    <glyph glyph-name="uni2089" unicode="&#x2089;" 
d="M132 -1q-29 0 -57.5 0.5t-49.5 0.5l18 46q43 -1 92 -1t76 20t38 71l7 32q-29 -29 -96 -29q-120 0 -120 107q0 36 9 62q32 93 148 93q127 0 127 -111q0 -21 -4 -42l-22 -112q-14 -74 -55 -105.5t-111 -31.5zM192 356q-38 0 -60 -12t-34 -43q-8 -24 -8 -50q0 -39 21 -53.5
t63 -14.5q44 0 67 16t32 59q3 18 3 31q0 67 -84 67z" />
    <glyph glyph-name="Euro" unicode="&#x20ac;" horiz-adv-x="595" 
d="M459 233h-277v-16q0 -94 46.5 -130.5t152.5 -36.5q82 0 109 2l-21 -52q-23 -2 -93 -2q-76 0 -126.5 15.5t-77 47.5t-36.5 72.5t-10 99.5h-89l20 48h73q8 51 22 120h-81l19 48h75q41 132 114.5 182.5t209.5 50.5q83 0 109 -2l-20 -53q-50 3 -97 3q-108 0 -166 -37.5
t-92 -143.5h288l-19 -48h-282q-16 -61 -23 -120h291z" />
    <glyph glyph-name="uni20B9" unicode="&#x20b9;" horiz-adv-x="595" 
d="M292 629h-131l10 51h428l-19 -50h-145q44 -30 44 -101q0 -17 -1 -28h86l-20 -52h-73q-21 -93 -81 -132.5t-165 -39.5h-54l252 -277h-72l-256 284l8 43h130q77 0 121 27.5t59 94.5h-287l10 52h286q1 8 1 29q-2 53 -33 76t-98 23z" />
    <glyph glyph-name="uni20BA" unicode="&#x20ba;" horiz-adv-x="595" 
d="M413 335l-214 -92l-37 -190h76q104 0 152.5 36.5t62.5 131.5l3 20l57 13l-6 -36q-19 -114 -80 -166t-193 -52h-136l42 217l-80 -34l10 55l81 35l26 130l-81 -35l10 55l81 35l44 222h54l-39 -197l213 91l-10 -54l-214 -92l-25 -130l213 91z" />
    <glyph glyph-name="afii61289" unicode="&#x2113;" horiz-adv-x="370" 
d="M101 141v69q-4 -5 -25.5 -28.5t-29.5 -33.5l-29 33l84 89v276q0 178 119 178q108 0 108 -135q0 -84 -38 -150.5t-138 -179.5v-108q0 -67 17.5 -94t57.5 -27q48 0 91 29l19 -38q-50 -38 -116 -38q-120 0 -120 158zM152 553v-230q69 82 97 138.5t28 124.5q0 49 -14.5 69.5
t-45.5 20.5q-32 0 -48.5 -28t-16.5 -95z" />
    <glyph glyph-name="trademark" unicode="&#x2122;" horiz-adv-x="823" 
d="M765 340h-47l58 299l-151 -189h-35l-79 190l-58 -300h-46l72 372h48l89 -213l167 213h54zM105 712h308l-18 -44h-125l-64 -328h-49l64 328h-134z" />
    <glyph glyph-name="uni2126" unicode="&#x2126;" horiz-adv-x="691" 
d="M643 360q-25 -113 -66.5 -184t-122.5 -124h155l-21 -52h-226l8 45q93 59 140.5 127t71.5 194q16 80 16 137q0 101 -46 138t-136 37q-55 0 -95.5 -12t-79 -44t-65 -96.5t-41.5 -160.5q-8 -56 -8 -94q0 -72 22.5 -125t73.5 -101l-9 -45h-218l21 52h137q-86 86 -86 223
q0 57 8 97q31 194 115 276.5t228 82.5q119 0 179.5 -55.5t60.5 -173.5q0 -65 -16 -142z" />
    <glyph glyph-name="estimated" unicode="&#x212e;" horiz-adv-x="785" 
d="M409 656q-143 0 -212 -69v-211h431v211q-82 69 -219 69zM689 164l22 -15q-56 -87 -126 -123t-172 -36q-161 0 -255 99.5t-94 250.5t92.5 248t252.5 97q162 0 256 -94.5t96 -250.5h-564v-245q78 -78 217 -78q95 0 160.5 34t114.5 113z" />
    <glyph glyph-name="uni2150" unicode="&#x2150;" horiz-adv-x="839" 
d="M128 0l554 680h60l-554 -680h-60zM529 346l18 46h254l-7 -42l-200 -350h-57l200 346h-208zM140 635l18 45h142l-68 -346h102l-17 -46h-240l18 46h87l59 301h-101z" />
    <glyph glyph-name="uni2151" unicode="&#x2151;" horiz-adv-x="839" 
d="M130 0l554 680h60l-554 -680h-60zM599 -1q-29 0 -57.5 0.5t-49.5 0.5l18 46q43 -1 92 -1t76 20t38 71l7 32q-29 -29 -96 -29q-120 0 -120 107q0 36 9 62q32 93 148 93q127 0 127 -111q0 -21 -4 -42l-22 -112q-14 -74 -55 -105.5t-111 -31.5zM659 356q-38 0 -60 -12
t-34 -43q-8 -24 -8 -50q0 -39 21 -53.5t63 -14.5q44 0 67 16t32 59q3 18 3 31q0 67 -84 67zM140 635l18 45h142l-68 -346h102l-17 -46h-240l18 46h87l59 301h-101z" />
    <glyph glyph-name="onethird" unicode="&#x2153;" horiz-adv-x="839" 
d="M133 0l554 680h60l-554 -680h-60zM473 1l17 45q37 -1 112 -1q49 0 73 14t32 51q3 12 3 24q0 27 -16 38.5t-52 11.5h-102l17 44h89q70 0 86 47q4 11 4 27q0 24 -16 34.5t-52 10.5q-14 0 -57.5 -0.5t-61.5 -0.5l19 46q35 1 103 1q116 0 116 -82q0 -25 -6 -43
q-17 -47 -70 -61q50 -17 50 -74q0 -19 -5 -37q-13 -50 -51 -73.5t-107 -23.5q-95 0 -125 2zM140 635l18 45h142l-68 -346h102l-17 -46h-240l18 46h87l59 301h-101z" />
    <glyph glyph-name="twothirds" unicode="&#x2154;" horiz-adv-x="839" 
d="M134 0l554 680h60l-554 -680h-60zM473 1l17 45q37 -1 112 -1q49 0 73 14t32 51q3 12 3 24q0 27 -16 38.5t-52 11.5h-102l17 44h89q70 0 86 47q4 11 4 27q0 24 -16 34.5t-52 10.5q-14 0 -57.5 -0.5t-61.5 -0.5l19 46q35 1 103 1q116 0 116 -82q0 -25 -6 -43
q-17 -47 -70 -61q50 -17 50 -74q0 -19 -5 -37q-13 -50 -51 -73.5t-107 -23.5q-95 0 -125 2zM328 334l-17 -46h-246l12 63q12 61 36.5 89.5t84.5 52.5l56 22q49 20 58 42q6 18 6 34q0 24 -16 34.5t-54 10.5q-89 0 -116 -2l17 45q34 2 104 2q116 0 116 -85q0 -31 -11 -53
q-10 -25 -29 -40.5t-57 -30.5l-57 -22q-45 -18 -62 -36t-25 -59l-4 -21h204z" />
    <glyph glyph-name="uni2155" unicode="&#x2155;" horiz-adv-x="839" 
d="M125 0l554 680h60l-554 -680h-60zM478 0l16 45q14 0 50 -0.5t57 -0.5q75 0 96 46q8 21 8 44q0 31 -17.5 43.5t-55.5 12.5h-113l39 202h234l-17 -46h-179l-22 -112h62q122 0 122 -95q0 -37 -14 -68q-35 -72 -151 -72q-68 0 -115 1zM140 635l18 45h142l-68 -346h102
l-17 -46h-240l18 46h87l59 301h-101z" />
    <glyph glyph-name="uni2156" unicode="&#x2156;" horiz-adv-x="839" 
d="M124 0l554 680h60l-554 -680h-60zM478 0l16 45q14 0 50 -0.5t57 -0.5q75 0 96 46q8 21 8 44q0 31 -17.5 43.5t-55.5 12.5h-113l39 202h234l-17 -46h-179l-22 -112h62q122 0 122 -95q0 -37 -14 -68q-35 -72 -151 -72q-68 0 -115 1zM328 334l-17 -46h-246l12 63
q12 61 36.5 89.5t84.5 52.5l56 22q49 20 58 42q6 18 6 34q0 24 -16 34.5t-54 10.5q-89 0 -116 -2l17 45q34 2 104 2q116 0 116 -85q0 -31 -11 -53q-10 -25 -29 -40.5t-57 -30.5l-57 -22q-45 -18 -62 -36t-25 -59l-4 -21h204z" />
    <glyph glyph-name="uni2157" unicode="&#x2157;" horiz-adv-x="839" 
d="M117 0l554 680h60l-554 -680h-60zM478 0l16 45q14 0 50 -0.5t57 -0.5q75 0 96 46q8 21 8 44q0 31 -17.5 43.5t-55.5 12.5h-113l39 202h234l-17 -46h-179l-22 -112h62q122 0 122 -95q0 -37 -14 -68q-35 -72 -151 -72q-68 0 -115 1zM62 289l17 45q37 -1 112 -1q49 0 73 14
t32 51q3 12 3 24q0 27 -16 38.5t-52 11.5h-102l17 44h89q70 0 86 47q4 11 4 27q0 24 -16 34.5t-52 10.5q-14 0 -57.5 -0.5t-61.5 -0.5l19 46q35 1 103 1q116 0 116 -82q0 -25 -6 -43q-17 -47 -70 -61q50 -17 50 -74q0 -19 -5 -37q-13 -50 -51 -73.5t-107 -23.5q-95 0 -125 2
z" />
    <glyph glyph-name="uni2158" unicode="&#x2158;" horiz-adv-x="839" 
d="M119 0l554 680h60l-554 -680h-60zM478 0l16 45q14 0 50 -0.5t57 -0.5q75 0 96 46q8 21 8 44q0 31 -17.5 43.5t-55.5 12.5h-113l39 202h234l-17 -46h-179l-22 -112h62q122 0 122 -95q0 -37 -14 -68q-35 -72 -151 -72q-68 0 -115 1zM378 422l-18 -44h-51l-17 -90h-48l17 90
h-206l8 40l192 262h54l-188 -258h149l22 116l50 8l-24 -124h60z" />
    <glyph glyph-name="uni2159" unicode="&#x2159;" horiz-adv-x="839" 
d="M138 0l554 680h60l-554 -680h-60zM683 393q29 0 57.5 -0.5t49.5 -0.5l-18 -46q-43 1 -92 1t-76 -20t-38 -71l-7 -32q29 29 96 29q120 0 120 -107q0 -36 -9 -62q-19 -53 -55.5 -73t-92.5 -20q-127 0 -127 111q0 21 4 42l22 112q14 74 55 105.5t111 31.5zM623 36
q38 0 60 12t34 43q8 24 8 50q0 39 -21 53.5t-63 14.5q-44 0 -67 -16t-32 -59q-3 -18 -3 -31q0 -67 84 -67zM140 635l18 45h142l-68 -346h102l-17 -46h-240l18 46h87l59 301h-101z" />
    <glyph glyph-name="uni215A" unicode="&#x215a;" horiz-adv-x="839" 
d="M131 0l554 680h60l-554 -680h-60zM683 393q29 0 57.5 -0.5t49.5 -0.5l-18 -46q-43 1 -92 1t-76 -20t-38 -71l-7 -32q29 29 96 29q120 0 120 -107q0 -36 -9 -62q-19 -53 -55.5 -73t-92.5 -20q-127 0 -127 111q0 21 4 42l22 112q14 74 55 105.5t111 31.5zM623 36
q38 0 60 12t34 43q8 24 8 50q0 39 -21 53.5t-63 14.5q-44 0 -67 -16t-32 -59q-3 -18 -3 -31q0 -67 84 -67zM67 288l16 45q14 0 50 -0.5t57 -0.5q75 0 96 46q8 21 8 44q0 31 -17.5 43.5t-55.5 12.5h-113l39 202h234l-17 -46h-179l-22 -112h62q122 0 122 -95q0 -37 -14 -68
q-35 -72 -151 -72q-68 0 -115 1z" />
    <glyph glyph-name="oneeighth" unicode="&#x215b;" horiz-adv-x="839" 
d="M131 0l554 680h60l-554 -680h-60zM775 243q-18 -26 -55 -41q49 -24 49 -78q0 -38 -18 -70q-37 -63 -140 -63q-132 0 -132 102q0 93 85 116q-40 21 -40 70q0 61 39 91.5t107 30.5q62 0 94.5 -23t32.5 -66q0 -38 -22 -69zM632 186q-102 0 -102 -93q0 -59 85 -59q69 0 92 39
q13 22 13 51q0 62 -88 62zM666 359q-47 0 -70 -18.5t-23 -61.5q0 -28 19.5 -39.5t63.5 -11.5q59 0 80 32q12 20 12 48q0 51 -82 51zM140 635l18 45h142l-68 -346h102l-17 -46h-240l18 46h87l59 301h-101z" />
    <glyph glyph-name="threeeighths" unicode="&#x215c;" horiz-adv-x="839" 
d="M122 0l554 680h60l-554 -680h-60zM775 243q-18 -26 -55 -41q49 -24 49 -78q0 -38 -18 -70q-37 -63 -140 -63q-132 0 -132 102q0 93 85 116q-40 21 -40 70q0 61 39 91.5t107 30.5q62 0 94.5 -23t32.5 -66q0 -38 -22 -69zM632 186q-102 0 -102 -93q0 -59 85 -59q69 0 92 39
q13 22 13 51q0 62 -88 62zM666 359q-47 0 -70 -18.5t-23 -61.5q0 -28 19.5 -39.5t63.5 -11.5q59 0 80 32q12 20 12 48q0 51 -82 51zM62 289l17 45q37 -1 112 -1q49 0 73 14t32 51q3 12 3 24q0 27 -16 38.5t-52 11.5h-102l17 44h89q70 0 86 47q4 11 4 27q0 24 -16 34.5
t-52 10.5q-14 0 -57.5 -0.5t-61.5 -0.5l19 46q35 1 103 1q116 0 116 -82q0 -25 -6 -43q-17 -47 -70 -61q50 -17 50 -74q0 -19 -5 -37q-13 -50 -51 -73.5t-107 -23.5q-95 0 -125 2z" />
    <glyph glyph-name="fiveeighths" unicode="&#x215d;" horiz-adv-x="839" 
d="M122 0l554 680h60l-554 -680h-60zM775 243q-18 -26 -55 -41q49 -24 49 -78q0 -38 -18 -70q-37 -63 -140 -63q-132 0 -132 102q0 93 85 116q-40 21 -40 70q0 61 39 91.5t107 30.5q62 0 94.5 -23t32.5 -66q0 -38 -22 -69zM632 186q-102 0 -102 -93q0 -59 85 -59q69 0 92 39
q13 22 13 51q0 62 -88 62zM666 359q-47 0 -70 -18.5t-23 -61.5q0 -28 19.5 -39.5t63.5 -11.5q59 0 80 32q12 20 12 48q0 51 -82 51zM67 288l16 45q14 0 50 -0.5t57 -0.5q75 0 96 46q8 21 8 44q0 31 -17.5 43.5t-55.5 12.5h-113l39 202h234l-17 -46h-179l-22 -112h62
q122 0 122 -95q0 -37 -14 -68q-35 -72 -151 -72q-68 0 -115 1z" />
    <glyph glyph-name="seveneighths" unicode="&#x215e;" horiz-adv-x="839" 
d="M88 0l554 680h60l-554 -680h-60zM775 243q-18 -26 -55 -41q49 -24 49 -78q0 -38 -18 -70q-37 -63 -140 -63q-132 0 -132 102q0 93 85 116q-40 21 -40 70q0 61 39 91.5t107 30.5q62 0 94.5 -23t32.5 -66q0 -38 -22 -69zM632 186q-102 0 -102 -93q0 -59 85 -59q69 0 92 39
q13 22 13 51q0 62 -88 62zM666 359q-47 0 -70 -18.5t-23 -61.5q0 -28 19.5 -39.5t63.5 -11.5q59 0 80 32q12 20 12 48q0 51 -82 51zM118 634l18 46h254l-7 -42l-200 -350h-57l200 346h-208z" />
    <glyph glyph-name="partialdiff" unicode="&#x2202;" horiz-adv-x="593" 
d="M298 463q73 0 118.5 -30t56.5 -85q43 129 43 203q0 68 -41.5 101t-138.5 33q-46 0 -119 -4l27 51q52 4 104 4q119 0 171.5 -47t52.5 -135q0 -81 -45 -221q-44 -141 -87 -216t-93 -104t-127 -29q-190 0 -190 156q0 42 13 88q58 235 255 235zM419 212q18 54 18 91
q0 110 -137 110q-81 0 -126.5 -44t-75.5 -153q-11 -44 -11 -73q0 -109 139 -109q67 0 113 37t80 141z" />
    <glyph glyph-name="uni2206" unicode="&#x2206;" horiz-adv-x="646" 
d="M572 0h-598l405 712h63zM400 650l-336 -597h439z" />
    <glyph glyph-name="product" unicode="&#x220f;" horiz-adv-x="731" 
d="M122 712h672l-20 -51h-86l-145 -749h-59l145 749h-370l-145 -749h-60l145 749h-97z" />
    <glyph glyph-name="summation" unicode="&#x2211;" horiz-adv-x="510" 
d="M561 658h-379l154 -333l-298 -358h403l-22 -54h-465l10 51l306 367l-151 330l9 51h454z" />
    <glyph glyph-name="minus" unicode="&#x2212;" horiz-adv-x="595" 
d="M517 316h-416l10 52h416z" />
    <glyph glyph-name="uni2215" unicode="&#x2215;" horiz-adv-x="111" 
d="M-235 0l554 680h60l-554 -680h-60z" />
    <glyph glyph-name="uni2219" unicode="&#x2219;" horiz-adv-x="175" 
d="M113 405q40 0 40 -40q0 -55 -50 -55q-40 0 -40 40q0 55 50 55z" />
    <glyph glyph-name="radical" unicode="&#x221a;" horiz-adv-x="611" 
d="M240 -5l-82 437l-121 -59l12 60l152 76l81 -451l395 821h60l-432 -884h-65z" />
    <glyph glyph-name="infinity" unicode="&#x221e;" horiz-adv-x="690" 
d="M105 349q-4 -20 -4 -36q0 -82 82 -82q39 0 73 23t79 93q-21 69 -48 93t-69 24t-73 -29t-40 -86zM620 345q4 15 4 37q0 82 -82 82q-39 0 -73 -23t-79 -93q18 -69 47 -93t70 -24q90 0 113 114zM357 298q-44 -64 -87 -90.5t-94 -26.5q-60 0 -94.5 31.5t-34.5 95.5q0 17 5 49
q14 77 61.5 117t110.5 40q106 0 144 -117q80 117 181 117q60 0 94.5 -31.5t34.5 -95.5q0 -17 -5 -49q-15 -78 -62 -117.5t-110 -39.5q-107 0 -144 117z" />
    <glyph glyph-name="integral" unicode="&#x222b;" horiz-adv-x="296" 
d="M9 -138q53 0 78 18t35 63q8 34 8 85l8 630q2 63 11 99q15 64 56 93t118 29q29 0 75 -2l-19 -52q-46 2 -59 2q-52 0 -77 -17t-36 -60q-9 -34 -10 -89l-9 -630q0 -52 -8 -92q-15 -66 -56 -97.5t-120 -31.5q-29 0 -75 2l20 52q32 -2 60 -2z" />
    <glyph glyph-name="approxequal" unicode="&#x2248;" horiz-adv-x="595" 
d="M464 287h52l-5 -27q-22 -123 -114 -123q-44 0 -106 44l-13 9q-26 18 -37 25.5t-26.5 13.5t-30.5 6q-24 0 -39.5 -16t-23.5 -54l-5 -27h-52l5 27q22 123 114 123q44 0 106 -44l13 -9q26 -18 37 -25.5t26.5 -13.5t30.5 -6q24 0 39.5 16t23.5 54zM507 511h52l-5 -27
q-22 -123 -114 -123q-44 0 -106 44l-13 9q-26 18 -37 25.5t-26.5 13.5t-30.5 6q-24 0 -39.5 -16t-23.5 -54l-5 -27h-52l5 27q22 123 114 123q44 0 106 -44l13 -9q26 -18 37 -25.5t26.5 -13.5t30.5 -6q24 0 39.5 16t23.5 54z" />
    <glyph glyph-name="notequal" unicode="&#x2260;" horiz-adv-x="595" 
d="M101 265h128l121 153h-220l11 52h250l86 108h56l-86 -108h91l-11 -52h-121l-122 -153h214l-11 -52h-244l-86 -109h-55l86 109h-98z" />
    <glyph glyph-name="lessequal" unicode="&#x2264;" horiz-adv-x="595" 
d="M448 1h-416l10 52h416zM114 314l10 52l414 181l-11 -57l-352 -152l295 -141l-10 -53z" />
    <glyph glyph-name="greaterequal" unicode="&#x2265;" horiz-adv-x="595" 
d="M448 1h-416l10 52h416zM506 378l-10 -53l-415 -181l11 58l352 151l-295 142l10 52z" />
    <glyph glyph-name="lozenge" unicode="&#x25ca;" horiz-adv-x="576" 
d="M566 356l-302 -356h-52l-165 356l303 356h51zM109 349l136 -293l259 307l-136 292z" />
    <glyph glyph-name="uniF001" unicode="&#xf001;" horiz-adv-x="504" 
d="M180 514h187l-20 -50h-177l-90 -464h-58l102 522q24 126 87.5 174.5t194.5 48.5q18 0 59.5 -1t50.5 -1l-20 -51q-50 2 -94 2q-52 0 -84 -6t-61 -24.5t-47 -54.5t-30 -95zM324 0l100 514h58l-100 -514h-58z" />
    <glyph glyph-name="uniF002" unicode="&#xf002;" horiz-adv-x="511" 
d="M364 694q-84 0 -123.5 -34.5t-60.5 -145.5h187l-20 -50h-177l-90 -464h-58l102 522q24 125 76.5 174t160.5 49q45 0 71 -2l-19 -51q-30 2 -49 2zM331 0l145 743h58l-145 -743h-58z" />
    <glyph glyph-name="uniF507" unicode="&#xf507;" horiz-adv-x="839" 
d="M127 0l554 680h60l-554 -680h-60zM529 346l18 46h254l-7 -42l-200 -350h-57l200 346h-208zM328 334l-17 -46h-246l12 63q12 61 36.5 89.5t84.5 52.5l56 22q49 20 58 42q6 18 6 34q0 24 -16 34.5t-54 10.5q-89 0 -116 -2l17 45q34 2 104 2q116 0 116 -85q0 -31 -11 -53
q-10 -25 -29 -40.5t-57 -30.5l-57 -22q-45 -18 -62 -36t-25 -59l-4 -21h204z" />
    <glyph glyph-name="uniF508" unicode="&#xf508;" horiz-adv-x="839" 
d="M112 0l554 680h60l-554 -680h-60zM529 346l18 46h254l-7 -42l-200 -350h-57l200 346h-208zM62 289l17 45q37 -1 112 -1q49 0 73 14t32 51q3 12 3 24q0 27 -16 38.5t-52 11.5h-102l17 44h89q70 0 86 47q4 11 4 27q0 24 -16 34.5t-52 10.5q-14 0 -57.5 -0.5t-61.5 -0.5
l19 46q35 1 103 1q116 0 116 -82q0 -25 -6 -43q-17 -47 -70 -61q50 -17 50 -74q0 -19 -5 -37q-13 -50 -51 -73.5t-107 -23.5q-95 0 -125 2z" />
    <glyph glyph-name="uniF509" unicode="&#xf509;" horiz-adv-x="839" 
d="M119 0l554 680h60l-554 -680h-60zM529 346l18 46h254l-7 -42l-200 -350h-57l200 346h-208zM378 422l-18 -44h-51l-17 -90h-48l17 90h-206l8 40l192 262h54l-188 -258h149l22 116l50 8l-24 -124h60z" />
    <glyph glyph-name="uniF50A" unicode="&#xf50a;" horiz-adv-x="839" 
d="M116 0l554 680h60l-554 -680h-60zM529 346l18 46h254l-7 -42l-200 -350h-57l200 346h-208zM67 288l16 45q14 0 50 -0.5t57 -0.5q75 0 96 46q8 21 8 44q0 31 -17.5 43.5t-55.5 12.5h-113l39 202h234l-17 -46h-179l-22 -112h62q122 0 122 -95q0 -37 -14 -68
q-35 -72 -151 -72q-68 0 -115 1z" />
    <glyph glyph-name="uniF50B" unicode="&#xf50b;" horiz-adv-x="839" 
d="M117 0l554 680h60l-554 -680h-60zM529 346l18 46h254l-7 -42l-200 -350h-57l200 346h-208zM272 681q29 0 57.5 -0.5t49.5 -0.5l-18 -46q-43 1 -92 1t-76 -20t-38 -71l-7 -32q29 29 96 29q120 0 120 -107q0 -36 -9 -62q-19 -53 -55.5 -73t-92.5 -20q-127 0 -127 111
q0 21 4 42l22 112q14 74 55 105.5t111 31.5zM212 324q38 0 60 12t34 43q8 24 8 50q0 39 -21 53.5t-63 14.5q-44 0 -67 -16t-32 -59q-3 -18 -3 -31q0 -67 84 -67z" />
    <glyph glyph-name="uniF50D" unicode="&#xf50d;" horiz-adv-x="839" 
d="M129 0l554 680h60l-554 -680h-60zM599 -1q-29 0 -57.5 0.5t-49.5 0.5l18 46q43 -1 92 -1t76 20t38 71l7 32q-29 -29 -96 -29q-120 0 -120 107q0 36 9 62q32 93 148 93q127 0 127 -111q0 -21 -4 -42l-22 -112q-14 -74 -55 -105.5t-111 -31.5zM659 356q-38 0 -60 -12
t-34 -43q-8 -24 -8 -50q0 -39 21 -53.5t63 -14.5q44 0 67 16t32 59q3 18 3 31q0 67 -84 67zM328 334l-17 -46h-246l12 63q12 61 36.5 89.5t84.5 52.5l56 22q49 20 58 42q6 18 6 34q0 24 -16 34.5t-54 10.5q-89 0 -116 -2l17 45q34 2 104 2q116 0 116 -85q0 -31 -11 -53
q-10 -25 -29 -40.5t-57 -30.5l-57 -22q-45 -18 -62 -36t-25 -59l-4 -21h204z" />
    <glyph glyph-name="uniF50E" unicode="&#xf50e;" horiz-adv-x="839" 
d="M123 0l554 680h60l-554 -680h-60zM599 -1q-29 0 -57.5 0.5t-49.5 0.5l18 46q43 -1 92 -1t76 20t38 71l7 32q-29 -29 -96 -29q-120 0 -120 107q0 36 9 62q32 93 148 93q127 0 127 -111q0 -21 -4 -42l-22 -112q-14 -74 -55 -105.5t-111 -31.5zM659 356q-38 0 -60 -12
t-34 -43q-8 -24 -8 -50q0 -39 21 -53.5t63 -14.5q44 0 67 16t32 59q3 18 3 31q0 67 -84 67zM378 422l-18 -44h-51l-17 -90h-48l17 90h-206l8 40l192 262h54l-188 -258h149l22 116l50 8l-24 -124h60z" />
    <glyph glyph-name="uniF50F" unicode="&#xf50f;" horiz-adv-x="839" 
d="M117 0l554 680h60l-554 -680h-60zM599 -1q-29 0 -57.5 0.5t-49.5 0.5l18 46q43 -1 92 -1t76 20t38 71l7 32q-29 -29 -96 -29q-120 0 -120 107q0 36 9 62q32 93 148 93q127 0 127 -111q0 -21 -4 -42l-22 -112q-14 -74 -55 -105.5t-111 -31.5zM659 356q-38 0 -60 -12
t-34 -43q-8 -24 -8 -50q0 -39 21 -53.5t63 -14.5q44 0 67 16t32 59q3 18 3 31q0 67 -84 67zM67 288l16 45q14 0 50 -0.5t57 -0.5q75 0 96 46q8 21 8 44q0 31 -17.5 43.5t-55.5 12.5h-113l39 202h234l-17 -46h-179l-22 -112h62q122 0 122 -95q0 -37 -14 -68q-35 -72 -151 -72
q-68 0 -115 1z" />
    <glyph glyph-name="uniF510" unicode="&#xf510;" horiz-adv-x="839" 
d="M91 0l554 680h60l-554 -680h-60zM599 -1q-29 0 -57.5 0.5t-49.5 0.5l18 46q43 -1 92 -1t76 20t38 71l7 32q-29 -29 -96 -29q-120 0 -120 107q0 36 9 62q32 93 148 93q127 0 127 -111q0 -21 -4 -42l-22 -112q-14 -74 -55 -105.5t-111 -31.5zM659 356q-38 0 -60 -12
t-34 -43q-8 -24 -8 -50q0 -39 21 -53.5t63 -14.5q44 0 67 16t32 59q3 18 3 31q0 67 -84 67zM118 634l18 46h254l-7 -42l-200 -350h-57l200 346h-208z" />
    <glyph glyph-name="uniF511" unicode="&#xf511;" horiz-adv-x="839" 
d="M131 0l554 680h60l-554 -680h-60zM599 -1q-29 0 -57.5 0.5t-49.5 0.5l18 46q43 -1 92 -1t76 20t38 71l7 32q-29 -29 -96 -29q-120 0 -120 107q0 36 9 62q32 93 148 93q127 0 127 -111q0 -21 -4 -42l-22 -112q-14 -74 -55 -105.5t-111 -31.5zM659 356q-38 0 -60 -12
t-34 -43q-8 -24 -8 -50q0 -39 21 -53.5t63 -14.5q44 0 67 16t32 59q3 18 3 31q0 67 -84 67zM364 531q-18 -26 -55 -41q49 -24 49 -78q0 -38 -18 -70q-37 -63 -140 -63q-132 0 -132 102q0 93 85 116q-40 21 -40 70q0 61 39 91.5t107 30.5q62 0 94.5 -23t32.5 -66
q0 -38 -22 -69zM221 474q-102 0 -102 -93q0 -59 85 -59q69 0 92 39q13 22 13 51q0 62 -88 62zM255 647q-47 0 -70 -18.5t-23 -61.5q0 -28 19.5 -39.5t63.5 -11.5q59 0 80 32q12 20 12 48q0 51 -82 51z" />
    <glyph glyph-name="uniF6C3" unicode="&#xf6c3;" horiz-adv-x="500" 
d="M151 -232h-45l53 97q-13 6 -13 29q0 47 46 47q35 0 35 -33q0 -21 -23 -57z" />
    <glyph glyph-name="uniF800" unicode="&#xf800;" horiz-adv-x="595" 
d="M557 380l-17 -88q-31 -166 -91 -237t-186 -71q-107 0 -155 48t-48 143q0 52 14 125l17 88q31 166 91 237t186 71q106 0 154.5 -48t48.5 -144q0 -51 -14 -124zM151 388l-18 -94q-14 -76 -14 -119q0 -79 36 -109t111 -30q63 0 100 19t65 74.5t49 162.5l18 93q14 61 14 120
q0 79 -36 109t-111 30q-48 0 -79 -9.5t-57.5 -37.5t-44.5 -78t-33 -131z" />
    <glyph glyph-name="uniF801" unicode="&#xf801;" horiz-adv-x="595" 
d="M84 0l20 50h124l113 580h-138l21 50h185l-123 -630h138l-21 -50h-319z" />
    <glyph glyph-name="uniF802" unicode="&#xf802;" horiz-adv-x="595" 
d="M535 491q-13 -65 -52 -102t-111 -64l-98 -39q-75 -31 -106 -67t-45 -113l-11 -54h341l-20 -52h-389l21 108q18 96 59 143.5t133 84.5l96 39q57 23 84.5 49t37.5 68q5 20 5 48q0 45 -28.5 67.5t-99.5 22.5q-108 0 -183 -4l20 52q89 4 168 4q184 0 184 -137q0 -27 -6 -54z
" />
    <glyph glyph-name="uniF803" unicode="&#xf803;" horiz-adv-x="595" 
d="M237 -2q-93 0 -205 2l20 52q144 -2 191 -2q80 0 124 32.5t53 105.5q3 20 3 36q0 56 -31 78.5t-101 22.5h-145l21 52h149q69 0 107 29.5t47 97.5q3 18 3 34q0 50 -29.5 71t-94.5 21q-138 0 -179 -2l21 52q45 2 163 2q91 0 134.5 -34t43.5 -107q0 -19 -3 -42
q-16 -121 -125 -151q79 -27 79 -126q0 -18 -3 -41q-25 -183 -243 -183z" />
    <glyph glyph-name="uniF804" unicode="&#xf804;" horiz-adv-x="595" 
d="M401 0h-57l30 156h-329l8 44l354 480h64l-350 -473h263l48 240l58 10l-49 -250h88l-20 -51h-78z" />
    <glyph glyph-name="uniF805" unicode="&#xf805;" horiz-adv-x="595" 
d="M234 50q86 0 131 35t57 117q4 20 4 44q0 59 -35 83t-111 24h-153l64 327h353l-21 -51h-286l-44 -225h97q100 0 147.5 -38t47.5 -116q0 -28 -7 -63q-20 -102 -82 -145.5t-170 -43.5q-128 0 -178 2l20 52q74 -2 166 -2z" />
    <glyph glyph-name="uniF806" unicode="&#xf806;" horiz-adv-x="595" 
d="M172 374q44 59 150 59q192 0 192 -178q0 -30 -4 -57q-30 -214 -233 -214q-196 0 -196 180q0 30 9 80l25 130q18 94 43 154.5t63 94.5t83 46.5t112 12.5q58 0 130 -2l-21 -52q-66 2 -112 2q-51 0 -83.5 -7.5t-65 -33t-54.5 -78t-38 -137.5zM145 234q-7 -38 -7 -69
q0 -68 35 -99.5t108 -31.5q74 0 114 34.5t55 121.5q6 36 6 64q0 67 -35.5 98t-109.5 31q-72 0 -110.5 -32t-55.5 -117z" />
    <glyph glyph-name="uniF807" unicode="&#xf807;" horiz-adv-x="595" 
d="M142 629l21 51h404l-6 -42l-362 -638h-65l362 629h-354z" />
    <glyph glyph-name="uniF808" unicode="&#xf808;" horiz-adv-x="595" 
d="M63 197q27 139 154 166q-82 30 -82 124q0 19 5 46q30 163 223 163q96 0 147.5 -36.5t51.5 -110.5q0 -18 -5 -50q-25 -124 -143 -146q95 -29 95 -140q0 -29 -5 -53q-33 -176 -238 -176q-105 0 -157 42t-52 119q0 25 6 52zM447 168q5 32 5 47q0 118 -152 118
q-79 0 -121.5 -30.5t-56.5 -103.5q-6 -27 -6 -50q0 -58 37.5 -86.5t117.5 -28.5q78 0 120 31.5t56 102.5zM358 647q-69 0 -109 -26.5t-52 -91.5q-5 -27 -5 -45q0 -53 35.5 -77.5t110.5 -24.5q70 0 109.5 28.5t52.5 91.5q5 27 5 45q0 52 -35 76t-112 24z" />
    <glyph glyph-name="uniF809" unicode="&#xf809;" horiz-adv-x="595" 
d="M456 306q-44 -59 -150 -59q-192 0 -192 178q0 30 4 57q30 214 233 214q196 0 196 -180q0 -30 -9 -80l-25 -130q-18 -94 -43 -154.5t-63 -94.5t-83 -46.5t-112 -12.5q-58 0 -130 2l21 52q66 -2 112 -2q51 0 83.5 7.5t65 33t54.5 78t38 137.5zM483 446q7 38 7 69
q0 68 -35 99.5t-108 31.5q-74 0 -114 -34.5t-55 -121.5q-6 -36 -6 -64q0 -67 35.5 -98t109.5 -31q72 0 110.5 32t55.5 117z" />
    <glyph glyph-name="uniF80A" unicode="&#xf80a;" 
d="M279 762q-55 0 -83 -26t-44 -107l-9 -48q-6 -31 -6 -54q0 -46 23 -63.5t69 -17.5q55 0 83 26t44 107l9 48q6 31 6 54q0 46 -23 63.5t-69 17.5zM226 399q-141 0 -141 126q0 26 6 56l9 51q17 93 59.5 135t122.5 42q141 0 141 -126q0 -26 -6 -56l-9 -51q-17 -93 -59.5 -135
t-122.5 -42z" />
    <glyph glyph-name="uniF80B" unicode="&#xf80b;" 
d="M164 755l18 45h142l-68 -346h102l-17 -46h-240l18 46h87l59 301h-101z" />
    <glyph glyph-name="uniF80C" unicode="&#xf80c;" 
d="M352 454l-17 -46h-246l12 63q12 61 36.5 89.5t84.5 52.5l56 22q49 20 58 42q6 18 6 34q0 24 -16 34.5t-54 10.5q-89 0 -116 -2l17 45q34 2 104 2q116 0 116 -85q0 -31 -11 -53q-10 -25 -29 -40.5t-57 -30.5l-57 -22q-45 -18 -62 -36t-25 -59l-4 -21h204z" />
    <glyph glyph-name="uniF80D" unicode="&#xf80d;" 
d="M86 409l17 45q37 -1 112 -1q49 0 73 14t32 51q3 12 3 24q0 27 -16 38.5t-52 11.5h-102l17 44h89q70 0 86 47q4 11 4 27q0 24 -16 34.5t-52 10.5q-14 0 -57.5 -0.5t-61.5 -0.5l19 46q35 1 103 1q116 0 116 -82q0 -25 -6 -43q-17 -47 -70 -61q50 -17 50 -74q0 -19 -5 -37
q-13 -50 -51 -73.5t-107 -23.5q-95 0 -125 2z" />
    <glyph glyph-name="uniF80E" unicode="&#xf80e;" 
d="M402 542l-18 -44h-51l-17 -90h-48l17 90h-206l8 40l192 262h54l-188 -258h149l22 116l50 8l-24 -124h60z" />
    <glyph glyph-name="uniF80F" unicode="&#xf80f;" 
d="M91 408l16 45q14 0 50 -0.5t57 -0.5q75 0 96 46q8 21 8 44q0 31 -17.5 43.5t-55.5 12.5h-113l39 202h234l-17 -46h-179l-22 -112h62q122 0 122 -95q0 -37 -14 -68q-35 -72 -151 -72q-68 0 -115 1z" />
    <glyph glyph-name="uniF810" unicode="&#xf810;" 
d="M296 801q29 0 57.5 -0.5t49.5 -0.5l-18 -46q-43 1 -92 1t-76 -20t-38 -71l-7 -32q29 29 96 29q120 0 120 -107q0 -36 -9 -62q-19 -53 -55.5 -73t-92.5 -20q-127 0 -127 111q0 21 4 42l22 112q14 74 55 105.5t111 31.5zM236 444q38 0 60 12t34 43q8 24 8 50q0 39 -21 53.5
t-63 14.5q-44 0 -67 -16t-32 -59q-3 -18 -3 -31q0 -67 84 -67z" />
    <glyph glyph-name="uniF811" unicode="&#xf811;" 
d="M142 754l18 46h254l-7 -42l-200 -350h-57l200 346h-208z" />
    <glyph glyph-name="uniF812" unicode="&#xf812;" 
d="M388 651q-18 -26 -55 -41q49 -24 49 -78q0 -39 -18 -70q-37 -63 -140 -63q-132 0 -132 102q0 93 85 116q-40 21 -40 70q0 61 39 91.5t107 30.5q62 0 94.5 -23t32.5 -66q0 -38 -22 -69zM245 594q-102 0 -102 -93q0 -59 85 -59q69 0 92 39q13 22 13 51q0 62 -88 62z
M279 767q-47 0 -70 -18.5t-23 -61.5q0 -28 19.5 -39.5t63.5 -11.5q59 0 80 32q12 20 12 48q0 51 -82 51z" />
    <glyph glyph-name="uniF813" unicode="&#xf813;" 
d="M212 407q-29 0 -57.5 0.5t-49.5 0.5l18 46q43 -1 92 -1t76 20t38 71l7 32q-29 -29 -96 -29q-120 0 -120 107q0 36 9 62q32 93 148 93q127 0 127 -111q0 -21 -4 -42l-22 -112q-14 -74 -55 -105.5t-111 -31.5zM272 764q-38 0 -60 -12t-34 -43q-8 -24 -8 -50q0 -39 21 -53.5
t63 -14.5q44 0 67 16t32 59q3 18 3 31q0 67 -84 67z" />
    <glyph glyph-name="uniF814" unicode="&#xf814;" 
d="M177 235q-55 0 -83 -26t-44 -107l-9 -48q-6 -32 -6 -54q0 -46 23 -63.5t69 -17.5q55 0 83 26t44 107l9 48q6 32 6 54q0 46 -23 63.5t-69 17.5zM124 -128q-141 0 -141 126q0 26 6 56l9 51q17 93 59.5 135t122.5 42q141 0 141 -126q0 -26 -6 -56l-9 -51q-17 -93 -59.5 -135
t-122.5 -42z" />
    <glyph glyph-name="uniF815" unicode="&#xf815;" 
d="M62 228l18 45h142l-68 -346h102l-17 -46h-240l18 46h87l59 301h-101z" />
    <glyph glyph-name="uniF816" unicode="&#xf816;" 
d="M250 -73l-17 -46h-246l12 63q12 61 36.5 89.5t84.5 52.5l56 22q49 20 58 42q6 18 6 34q0 24 -16 34.5t-54 10.5q-89 0 -116 -2l17 45q34 2 104 2q116 0 116 -85q0 -31 -11 -53q-10 -25 -29 -40.5t-57 -30.5l-57 -22q-45 -18 -62 -36t-25 -59l-4 -21h204z" />
    <glyph glyph-name="uniF817" unicode="&#xf817;" 
d="M-16 -118l17 45q37 -1 112 -1q49 0 73 14t32 51q3 12 3 24q0 27 -16 38.5t-52 11.5h-102l17 44h89q70 0 86 47q4 11 4 27q0 24 -16 34.5t-52 10.5q-14 0 -57.5 -0.5t-61.5 -0.5l19 46q35 1 103 1q116 0 116 -82q0 -25 -6 -43q-17 -47 -70 -61q50 -17 50 -74q0 -19 -5 -37
q-13 -50 -51 -73.5t-107 -23.5q-95 0 -125 2z" />
    <glyph glyph-name="uniF818" unicode="&#xf818;" 
d="M300 15l-18 -44h-51l-17 -90h-48l17 90h-206l8 40l192 262h54l-188 -258h149l22 116l50 8l-24 -124h60z" />
    <glyph glyph-name="uniF819" unicode="&#xf819;" 
d="M-11 -119l16 45q14 0 50 -0.5t57 -0.5q75 0 96 46q8 21 8 44q0 31 -17.5 43.5t-55.5 12.5h-113l39 202h234l-17 -46h-179l-22 -112h62q122 0 122 -95q0 -37 -14 -68q-35 -72 -151 -72q-68 0 -115 1z" />
    <glyph glyph-name="uniF81A" unicode="&#xf81a;" 
d="M194 274q29 0 57.5 -0.5t49.5 -0.5l-18 -46q-43 1 -92 1t-76 -20t-38 -71l-7 -32q29 29 96 29q120 0 120 -107q0 -36 -9 -62q-19 -53 -55.5 -73t-92.5 -20q-127 0 -127 111q0 21 4 42l22 112q14 74 55 105.5t111 31.5zM134 -83q38 0 60 12t34 43q8 24 8 50q0 39 -21 53.5
t-63 14.5q-44 0 -67 -16t-32 -59q-3 -18 -3 -31q0 -67 84 -67z" />
    <glyph glyph-name="uniF81B" unicode="&#xf81b;" 
d="M40 227l18 46h254l-7 -42l-200 -350h-57l200 346h-208z" />
    <glyph glyph-name="uniF81C" unicode="&#xf81c;" 
d="M286 124q-18 -26 -55 -41q49 -25 49 -78q0 -39 -18 -70q-37 -63 -140 -63q-132 0 -132 102q0 93 85 116q-40 21 -40 70q0 61 39 91.5t107 30.5q62 0 94.5 -23t32.5 -66q0 -38 -22 -69zM143 67q-102 0 -102 -93q0 -59 85 -59q69 0 92 39q13 22 13 51q0 62 -88 62zM177 240
q-47 0 -70 -18.5t-23 -61.5q0 -28 19.5 -39.5t63.5 -11.5q59 0 80 32q12 19 12 48q0 51 -82 51z" />
    <glyph glyph-name="uniF81D" unicode="&#xf81d;" 
d="M110 -120q-29 0 -57.5 0.5t-49.5 0.5l18 46q43 -1 92 -1t76 20t38 71l7 32q-29 -29 -96 -29q-120 0 -120 107q0 36 9 62q32 93 148 93q127 0 127 -111q0 -21 -4 -42l-22 -112q-14 -74 -55 -105.5t-111 -31.5zM170 237q-38 0 -60 -12t-34 -43q-8 -24 -8 -50
q0 -39 21 -53.5t63 -14.5q44 0 67 16t32 59q3 18 3 31q0 67 -84 67z" />
    <glyph glyph-name="NULL" horiz-adv-x="0" 
 />
    <glyph glyph-name="CR" horiz-adv-x="333" 
 />
    <glyph glyph-name="i.locl" horiz-adv-x="202" 
d="M22 0l100 514h58l-100 -514h-58zM181 703q37 0 37 -36q0 -52 -48 -52q-37 0 -37 36q0 52 48 52z" />
    <glyph glyph-name="glyph469" horiz-adv-x="500" 
d="M191 773l115 119h75l-127 -119h-63zM344 773l115 119h75l-127 -119h-63z" />
    <glyph glyph-name="glyph470" horiz-adv-x="500" 
d="M272 -122q-13 -77 -123 -77q-35 0 -83 3l18 43q30 -2 70 -2q66 0 66 49q0 15 -10 20t-32 5q-44 0 -61 -1l18 42q15 1 54 1q85 0 85 -63q0 -6 -2 -20z" />
    <glyph glyph-name="glyph471" horiz-adv-x="500" 
d="M429 770q-33 0 -67 23l-30 19q-27 17 -44 17q-15 0 -24.5 -9.5t-17.5 -37.5l-3 -12h-46l2 11q12 49 32 71.5t60 22.5q33 0 67 -23l30 -19q27 -17 44 -17q15 0 24.5 9.5t17.5 37.5l3 12h46l-2 -11q-12 -49 -32 -71.5t-60 -22.5z" />
    <glyph glyph-name="glyph472" horiz-adv-x="500" 
d="M247 -135l-21 -48h-36q-84 0 -84 56q0 38 29 71t95 70l43 -14q-64 -40 -87.5 -64t-23.5 -47q0 -24 48 -24h37z" />
    <glyph glyph-name="glyph473" horiz-adv-x="500" 
d="M373 914q-36 0 -52.5 -14t-25.5 -46q-4 -13 -4 -30q0 -50 64 -50q36 0 52.5 14t25.5 46q4 13 4 30q0 50 -64 50zM351 732q-49 0 -78 23t-29 67q0 6 2 22q20 112 131 112q49 0 78 -23t29 -67q0 -6 -2 -22q-20 -112 -131 -112z" />
    <glyph glyph-name="glyph474" horiz-adv-x="500" 
d="M283 888l72 -80l104 80h64l-141 -115h-63l-96 115h60z" />
    <glyph glyph-name="glyph475" horiz-adv-x="500" 
d="M226 792l10 48h257l-9 -48h-258z" />
    <glyph glyph-name="glyph476" horiz-adv-x="500" 
d="M289 859q36 0 36 -35q0 -51 -46 -51q-37 0 -37 35q0 51 47 51zM441 859q36 0 36 -35q0 -51 -46 -51q-37 0 -37 35q0 51 47 51z" />
    <glyph glyph-name="glyph477" horiz-adv-x="500" 
d="M364 860q37 0 37 -36q0 -51 -47 -51q-38 0 -38 36q0 51 48 51z" />
    <glyph glyph-name="glyph478" horiz-adv-x="500" 
d="M441 773l-72 79l-104 -79h-65l141 115h62l98 -115h-60z" />
    <glyph glyph-name="glyph479" horiz-adv-x="500" 
d="M253 773l138 119h80l-151 -119h-67z" />
    <glyph glyph-name="glyph480" horiz-adv-x="500" 
d="M350 892l96 -119h-59l-108 119h71z" />
    <glyph glyph-name="glyph481" horiz-adv-x="500" 
d="M364 814q86 0 101 80h51q-23 -123 -154 -123t-131 98q0 9 2 25h51q-1 -7 -1 -17q0 -32 18 -47.5t63 -15.5z" />
    <glyph glyph-name="glyph482" horiz-adv-x="500" 
d="M147 -232h-45l53 97q-13 6 -13 29q0 47 46 47q35 0 35 -33q0 -21 -23 -57z" />
    <glyph glyph-name="glyph483" horiz-adv-x="500" 
d="M321 743h55l-54 -175h-42z" />
    <glyph glyph-name="glyph485" horiz-adv-x="500" 
d="M364 662q0 -47 -44 -47q-37 0 -37 34q0 23 23 57l53 82h44l-52 -96q13 -6 13 -30z" />
    <glyph glyph-name="glyph486" horiz-adv-x="500" 
d="M386 876h75l-147 -104h-62z" />
    <glyph glyph-name="glyph487" horiz-adv-x="500" 
d="M440 772l-71 79l-102 -79h-62l138 113h60l95 -113h-58z" />
    <glyph glyph-name="glyph488" horiz-adv-x="500" 
d="M325 575h-44l40 168h56z" />
    <glyph glyph-name="parenleft.case" horiz-adv-x="314" 
d="M400 799l-21 -52h-11q-71 0 -110 -24.5t-67 -92t-55 -208.5l-28 -144q-23 -123 -23 -186q0 -72 28 -100t93 -28h28l-20 -52h-14q-91 0 -130.5 42.5t-39.5 133.5q0 69 24 191l28 143q30 156 65 235t86 110.5t140 31.5h27z" />
    <glyph glyph-name="parenright.case" horiz-adv-x="314" 
d="M-52 -88l21 52h11q71 0 110 24.5t67 92t55 208.5l28 144q23 123 23 186q0 71 -28.5 99.5t-92.5 28.5h-28l20 52h14q91 0 130.5 -42.5t39.5 -133.5q0 -69 -24 -191l-28 -143q-24 -118 -47 -188t-57 -114t-77 -59.5t-110 -15.5h-27z" />
    <glyph glyph-name="hyphen.case" horiz-adv-x="359" 
d="M70 383h279l-21 -53h-279z" />
    <glyph glyph-name="slash.case" horiz-adv-x="379" 
d="M43 0h-60l390 712h60z" />
    <glyph glyph-name="at.case" horiz-adv-x="722" 
d="M699 509l-49 -257q-5 -27 -16.5 -37t-39.5 -15q-63 -9 -123 -9q-97 0 -146.5 31t-49.5 102q0 29 7 58q17 75 63.5 111.5t138.5 36.5q118 0 152 -63l8 39q5 25 5 55q0 65 -46 97.5t-151 32.5q-140 0 -205.5 -64t-101.5 -233q-22 -95 -22 -167q0 -113 68.5 -160t235.5 -47
q85 0 128 3l-21 -51q-51 -3 -120 -3q-182 0 -263.5 59t-81.5 199q0 67 20 165q38 192 120.5 271t245.5 79q250 0 250 -175q0 -27 -6 -58zM477 242q58 0 117 8l19 98q4 12 4 39q0 50 -32.5 72t-101.5 22q-65 0 -98.5 -23t-47.5 -85q-4 -21 -4 -42q0 -53 36 -71t108 -18z" />
    <glyph glyph-name="bracketleft.case" horiz-adv-x="330" 
d="M396 746h-151l-153 -781h162l-20 -53h-207l172 887h217z" />
    <glyph glyph-name="backslash.case" horiz-adv-x="379" 
d="M122 712h55l117 -712h-55z" />
    <glyph glyph-name="bracketright.case" horiz-adv-x="330" 
d="M-27 -35h151l153 781h-162l20 53h207l-172 -887h-217z" />
    <glyph glyph-name="braceleft.case" horiz-adv-x="373" 
d="M299 -37l-22 -51h-42q-146 0 -146 114q0 19 5 47l32 165q4 20 4 37q0 30 -15.5 42.5t-53.5 12.5h-24l10 50h22q50 0 70.5 20t32.5 78l34 172q15 80 55 114.5t132 34.5h57l-22 -51h-39q-65 0 -91 -21.5t-36 -76.5l-36 -180q-10 -53 -28 -78.5t-53 -36.5q40 -16 40 -77
q0 -24 -4 -44l-32 -166q-4 -16 -4 -37q0 -36 22.5 -52t75.5 -16h56z" />
    <glyph glyph-name="braceright.case" horiz-adv-x="373" 
d="M114 748l22 51h42q146 0 146 -114q0 -19 -5 -47l-32 -165q-4 -17 -4 -37q0 -30 15.5 -42.5t53.5 -12.5h24l-10 -50h-22q-50 0 -70.5 -20t-32.5 -78l-34 -172q-17 -80 -56 -114.5t-131 -34.5h-57l22 51h39q65 0 91 21.5t36 76.5l36 180q11 55 28.5 80t52.5 36
q-40 16 -40 76q0 24 4 44l32 166q4 16 4 37q0 36 -22.5 52t-75.5 16h-56z" />
    <glyph glyph-name="guilsinglleft.case" horiz-adv-x="306" 
d="M315 554l-14 -69l-201 -132l150 -132l-12 -63l-193 170l11 56z" />
    <glyph glyph-name="bullet.case" horiz-adv-x="346" 
d="M289 356q0 -50 -22.5 -74t-75.5 -24q-52 0 -74.5 24t-22.5 74t22.5 74t74.5 24q53 0 75.5 -24t22.5 -74z" />
    <glyph glyph-name="endash.case" horiz-adv-x="500" 
d="M13 329l11 53h500l-11 -53h-500z" />
    <glyph glyph-name="emdash.case" horiz-adv-x="1000" 
d="M13 329l11 53h1000l-11 -53h-1000z" />
    <glyph glyph-name="guilsinglright.case" horiz-adv-x="306" 
d="M30 158l14 69l201 132l-150 133l12 62l193 -170l-11 -56z" />
    <glyph glyph-name="exclamdown.case" horiz-adv-x="211" 
d="M86 0h-60l36 186q12 65 34 166l40 184h48l-31 -184q-10 -71 -32 -168zM178 622q-40 0 -40 40q0 55 50 55q40 0 40 -40q0 -55 -50 -55z" />
    <glyph glyph-name="guillemotleft.case" horiz-adv-x="498" 
d="M55 377l234 178l-14 -69l-179 -139l125 -139l-12 -63l-165 177zM274 377l234 178l-14 -69l-179 -139l125 -139l-12 -63l-165 177z" />
    <glyph glyph-name="guillemotright.case" horiz-adv-x="498" 
d="M480 322l-234 -177l14 68l179 139l-125 140l12 63l165 -178zM261 322l-233 -177l14 68l178 139l-124 140l12 63l165 -178z" />
    </font>
</defs>
</svg>
