<?xml version="1.0" standalone="no"?>
<!DOCTYPE svg PUBLIC "-//W3C//DTD SVG 1.1//EN" "http://www.w3.org/Graphics/SVG/1.1/DTD/svg11.dtd" >
<svg>
<metadata>
Created by FontForge 20120731 at Tue Dec 15 21:08:27 2015
 By ,,,
Copyright 2014 Dalton Maag Ltd. Modification of this file requires prior written permission from Dalton Maag Ltd.
</metadata>
<defs>
<font id="Prometo-XBold" horiz-adv-x="396" >
  <font-face 
    font-family="Prometo"
    font-weight="800"
    font-stretch="normal"
    units-per-em="1000"
    panose-1="2 11 8 4 3 2 3 6 2 3"
    ascent="800"
    descent="-200"
    x-height="526"
    cap-height="712"
    bbox="-204 -275 1333 994"
    underline-thickness="93"
    underline-position="-54"
    unicode-range="U+0008-FB04"
  />
<missing-glyph horiz-adv-x="500" 
d="M450 0h-400v750h400v-750zM100 50h300v650h-300v-650z" />
    <glyph glyph-name="uniF603" unicode="ft" horiz-adv-x="805" 
d="M300 745q54 0 116 -2l-26 -141q-44 1 -68 1q-52 0 -71 -15.5t-21 -61.5h155l-27 -142h-128v-384h-187v504q0 129 58.5 185t198.5 56zM655 -1q-140 0 -185 43t-45 173v423l187 25v-137h177l-26 -142h-151v-164q0 -46 14.5 -61t60.5 -15q76 0 96 1l-27 -145q-20 -1 -101 -1
z" />
    <glyph glyph-name="uniFB00" unicode="ff" horiz-adv-x="747" 
d="M687 603q-52 0 -70.5 -15.5t-20.5 -61.5h159l-27 -142h-132v-384h-187v504q0 129 58.5 185t198.5 56q48 0 118 -2l-26 -141q-23 1 -71 1zM300 745q69 0 100 -2l-26 -141q-19 1 -52 1q-52 0 -71 -15.5t-21 -61.5h139l-27 -142h-112v-384h-187v504q0 129 58.5 185t198.5 56
z" />
    <glyph glyph-name="uniFB01" unicode="fi" horiz-adv-x="634" 
d="M338 603q-59 0 -82.5 -15.5t-25.5 -61.5h137l-27 -142h-110v-384h-187v506q0 129 65 184t222 55q119 0 186 -2l-25 -142q-86 2 -153 2zM404 526h187v-526h-187v526z" />
    <glyph glyph-name="uniFB02" unicode="fl" horiz-adv-x="645" 
d="M300 745q49 0 78 -1l-26 -142q-17 1 -30 1q-52 0 -71 -15.5t-21 -61.5h127l-27 -142h-100v-384h-187v504q0 129 58.5 185t198.5 56zM415 0v743h187v-743h-187z" />
    <glyph glyph-name="uniFB03" unicode="ffi" horiz-adv-x="999" 
d="M703 603q-59 0 -82.5 -15.5t-25.5 -61.5h137l-27 -142h-110v-384h-187v506q0 129 65 184t222 55q119 0 186 -2l-25 -142q-86 2 -153 2zM300 745q69 0 100 -2l-26 -141q-19 1 -52 1q-52 0 -71 -15.5t-21 -61.5h139l-27 -142h-112v-384h-187v504q0 129 58.5 185t198.5 56z
M769 526h187v-526h-187v526z" />
    <glyph glyph-name="uniFB04" unicode="ffl" horiz-adv-x="1011" 
d="M300 745q69 0 100 -2l-26 -141q-19 1 -52 1q-52 0 -71 -15.5t-21 -61.5h139l-27 -142h-112v-384h-187v504q0 129 58.5 185t198.5 56zM666 745q49 0 78 -1l-26 -142q-17 1 -30 1q-52 0 -71 -15.5t-21 -61.5h127l-27 -142h-100v-384h-187v504q0 129 58.5 185t198.5 56z
M781 0v743h187v-743h-187z" />
    <glyph glyph-name="f_f_t.liga" unicode="fft" horiz-adv-x="1167" 
d="M666 745q54 0 116 -2l-26 -141q-44 1 -68 1q-52 0 -71 -15.5t-21 -61.5h155l-27 -142h-128v-384h-187v504q0 129 58.5 185t198.5 56zM300 745q58 0 100 -2l-26 -141q-23 1 -52 1q-52 0 -71 -15.5t-21 -61.5h139l-27 -142h-112v-384h-187v504q0 129 58.5 185t198.5 56z
M1021 -1q-140 0 -185 43t-45 173v423l187 25v-137h177l-26 -142h-151v-164q0 -46 14.5 -61t60.5 -15q76 0 96 1l-27 -145q-20 -1 -101 -1z" />
    <glyph glyph-name=".notdef" horiz-adv-x="500" 
d="M450 0h-400v750h400v-750zM100 50h300v650h-300v-650z" />
    <glyph glyph-name=".null" horiz-adv-x="0" 
 />
    <glyph glyph-name="nonmarkingreturn" horiz-adv-x="333" 
 />
    <glyph glyph-name="uni0008" horiz-adv-x="0" 
 />
    <glyph glyph-name="uni0008" horiz-adv-x="0" 
 />
    <glyph glyph-name="uni0008" horiz-adv-x="0" 
 />
    <glyph glyph-name="uni0009" unicode="&#x9;" horiz-adv-x="222" 
 />
    <glyph glyph-name="uni0009" unicode="&#xd;" horiz-adv-x="222" 
 />
    <glyph glyph-name="space" unicode=" " horiz-adv-x="222" 
 />
    <glyph glyph-name="exclam" unicode="!" horiz-adv-x="284" 
d="M221 223h-157l-11 127q-8 96 -8 162v200h194v-200q0 -78 -7 -162zM242 79q0 -90 -100 -90t-100 90t100 90t100 -90z" />
    <glyph glyph-name="quotedbl" unicode="&#x22;" horiz-adv-x="450" 
d="M174 425h-143l-10 115q-5 35 -5 104v99h173v-99q0 -69 -5 -104zM419 425h-143l-10 115q-5 35 -5 104v99h173v-99q0 -69 -5 -104z" />
    <glyph glyph-name="numbersign" unicode="#" horiz-adv-x="695" 
d="M353 0l19 141h-106l-19 -141h-160l19 141h-90l26 139h83l17 120h-91l26 139h84l20 141h161l-20 -141h105l19 141h161l-20 -141h92l-26 -139h-85l-17 -120h93l-26 -139h-87l-19 -141h-159zM303 400l-17 -120h105l17 120h-105z" />
    <glyph glyph-name="dollar" unicode="$" horiz-adv-x="595" 
d="M570 226v-16q0 -104 -52.5 -152t-158.5 -57v-108h-131v106q-118 0 -200 2l27 148q29 0 115 -0.5t132 -0.5q54 0 70.5 11t16.5 44q0 28 -12.5 39.5t-50.5 16.5l-113 15q-102 13 -147.5 60t-45.5 143v14q0 179 209 191v105h131v-105q127 0 177 -2l-27 -149q-135 3 -234 3
q-45 0 -60.5 -11t-15.5 -39q0 -25 13.5 -37.5t49.5 -17.5l98 -14q110 -16 159.5 -61.5t49.5 -127.5z" />
    <glyph glyph-name="percent" unicode="%" horiz-adv-x="947" 
d="M193 0l403 680h158l-403 -680h-158zM795 171v50q0 45 -8.5 59t-37.5 14t-37.5 -14t-8.5 -59v-50q0 -45 8.5 -59t37.5 -14t37.5 14t8.5 59zM749 -9q-102 0 -143 41.5t-41 135.5v56q0 94 41 135.5t143 41.5t143 -41.5t41 -135.5v-56q0 -94 -41 -135.5t-143 -41.5zM244 459
v50q0 45 -8.5 59t-37.5 14t-37.5 -14t-8.5 -59v-50q0 -45 8.5 -59t37.5 -14t37.5 14t8.5 59zM198 279q-102 0 -143 41.5t-41 135.5v56q0 94 41 135.5t143 41.5t143 -41.5t41 -135.5v-56q0 -94 -41 -135.5t-143 -41.5z" />
    <glyph glyph-name="ampersand" unicode="&#x26;" horiz-adv-x="655" 
d="M217 228v-15q0 -42 17.5 -59t59.5 -17h104v169h-101q-45 0 -62.5 -18t-17.5 -60zM466 0h-195q-131 0 -188 47t-57 143v16q0 132 100 164q-87 39 -87 156v14q0 174 243 174q145 0 204 -2l-25 -137q-41 2 -165 2q-41 0 -56 -13.5t-15 -50.5v-9q0 -34 15.5 -47.5t57.5 -13.5
h350l-26 -137h-45v-194q0 -62 -26.5 -87t-84.5 -25z" />
    <glyph glyph-name="quotesingle" unicode="'" horiz-adv-x="205" 
d="M174 425h-143l-10 115q-5 35 -5 104v99h173v-99q0 -69 -5 -104z" />
    <glyph glyph-name="parenleft" unicode="(" horiz-adv-x="395" 
d="M386 -38l-26 -137h-30q-169 0 -231 71.5t-62 271.5v201q0 195 64 269t230 74h55l-26 -137h-17q-56 0 -81 -14.5t-36 -56.5t-11 -135v-201q0 -93 11 -135t36 -56.5t81 -14.5h43z" />
    <glyph glyph-name="parenright" unicode=")" horiz-adv-x="395" 
d="M9 575l26 137h30q169 0 231 -71.5t62 -271.5v-201q0 -195 -64 -269t-230 -74h-55l26 137h17q56 0 81 14.5t36 56.5t11 135v201q0 93 -11 135t-36 56.5t-81 14.5h-43z" />
    <glyph glyph-name="asterisk" unicode="*" horiz-adv-x="464" 
d="M296 308l-64 95l-64 -95l-117 83l76 94l-120 35l43 130l112 -45l-6 121h152l-5 -120l112 44l42 -130l-120 -34l76 -95z" />
    <glyph glyph-name="plus" unicode="+" horiz-adv-x="595" 
d="M379 571v-154h150v-152h-150v-154h-163v154h-150v152h150v154h163z" />
    <glyph glyph-name="comma" unicode="," horiz-adv-x="231" 
d="M156 -70l-47 -93h-124l62 182q-30 23 -30 69q0 88 98 88t98 -88q0 -47 -57 -158z" />
    <glyph glyph-name="hyphen" unicode="-" horiz-adv-x="403" 
d="M362 214h-352l30 161h353z" />
    <glyph glyph-name="period" unicode="." horiz-adv-x="231" 
d="M216 82q0 -48 -24 -70.5t-77 -22.5t-76.5 22.5t-23.5 70.5t23.5 70.5t76.5 22.5t77 -22.5t24 -70.5z" />
    <glyph glyph-name="slash" unicode="/" horiz-adv-x="446" 
d="M251 712h188l-244 -712h-188z" />
    <glyph glyph-name="zero" unicode="0" horiz-adv-x="616" 
d="M308 130q50 0 65 27t15 116v134q0 89 -15 116t-65 27t-65 -27t-15 -116v-134q0 -89 15 -116t65 -27zM308 696q152 0 211.5 -66t59.5 -220v-140q0 -154 -59.5 -220t-211.5 -66t-211.5 66t-59.5 220v140q0 154 59.5 220t211.5 66z" />
    <glyph glyph-name="one" unicode="1" horiz-adv-x="476" 
d="M460 143l-27 -143h-410l27 143h99v394h-123l27 143h284v-537h123z" />
    <glyph glyph-name="two" unicode="2" horiz-adv-x="558" 
d="M391 295l-130 -54q-27 -12 -37 -28.5t-10 -49.5v-15h314l-27 -148h-472v128q0 102 33.5 154t116.5 89l106 47q35 15 45.5 27t10.5 38q0 29 -14 40t-49 11q-29 0 -113.5 -1t-124.5 -1l26 148q56 2 235 2q117 0 170.5 -43.5t53.5 -130.5v-17q0 -71 -31 -118.5t-103 -77.5z
" />
    <glyph glyph-name="three" unicode="3" horiz-adv-x="547" 
d="M31 535l26 145q136 2 239 2q210 0 210 -170v-19q0 -51 -17.5 -83t-57.5 -55q88 -42 88 -148v-18q0 -99 -60.5 -145t-194.5 -46q-191 0 -249 2l26 145q42 -2 219 -2q38 0 54 14t16 45v10q0 33 -16 47t-57 14h-189l25 139h158q67 0 67 55v12q0 58 -67 58q-52 0 -220 -2z
" />
    <glyph glyph-name="four" unicode="4" horiz-adv-x="590" 
d="M581 262l-27 -141h-45v-121h-172v121h-313v120l204 439h182l-201 -418h128v168l172 27v-195h72z" />
    <glyph glyph-name="five" unicode="5" horiz-adv-x="553" 
d="M514 229v-21q0 -116 -60.5 -163t-217.5 -47q-170 0 -213 2l26 145q45 -2 192 -2q50 0 68.5 15.5t18.5 54.5v9q0 40 -18.5 55t-68.5 15h-198v388h445l-26 -145h-249v-103h54q137 0 192 -44.5t55 -158.5z" />
    <glyph glyph-name="six" unicode="6" horiz-adv-x="577" 
d="M213 437v-12q40 26 117 26q113 0 165.5 -52.5t52.5 -173.5v-16q0 -119 -61.5 -172t-192.5 -53q-135 0 -196.5 58t-61.5 192v156q0 157 64.5 224.5t231.5 67.5q116 0 178 -2l-27 -146q-134 2 -154 2q-66 0 -91 -24.5t-25 -74.5zM292 122q45 0 62 18.5t17 69.5v17
q0 51 -16.5 70t-59.5 19q-46 0 -64 -19t-18 -70v-17q0 -50 17.5 -69t61.5 -19z" />
    <glyph glyph-name="seven" unicode="7" horiz-adv-x="534" 
d="M309 0h-196l200 528h-301l28 152h467v-127z" />
    <glyph glyph-name="eight" unicode="8" horiz-adv-x="589" 
d="M295 696q249 0 249 -183v-15q0 -96 -82 -142q97 -45 97 -158v-19q0 -100 -61.5 -147.5t-202.5 -47.5q-142 0 -203 47t-61 148v19q0 113 97 158q-82 47 -82 142v15q0 183 249 183zM295 285q-49 0 -66.5 -17.5t-17.5 -60.5v-11q0 -44 17.5 -61t66.5 -17q50 0 67.5 17.5
t17.5 60.5v11q0 43 -17.5 60.5t-67.5 17.5zM295 565q-43 0 -61 -15.5t-18 -50.5v-15q0 -38 17 -53t62 -15t62 15t17 53v15q0 36 -17.5 51t-61.5 15z" />
    <glyph glyph-name="nine" unicode="9" horiz-adv-x="576" 
d="M364 243v12q-42 -26 -118 -26q-112 0 -164.5 52.5t-52.5 173.5v16q0 120 61 172.5t193 52.5q135 0 196.5 -58t61.5 -192v-156q0 -157 -64.5 -224.5t-231.5 -67.5q-120 0 -179 2l27 146q136 -2 155 -2q66 0 91 24.5t25 74.5zM284 558q-45 0 -62 -18.5t-17 -69.5v-17
q0 -51 16.5 -70t59.5 -19q46 0 64.5 19t18.5 70v17q0 50 -18 69t-62 19z" />
    <glyph glyph-name="colon" unicode=":" horiz-adv-x="231" 
d="M216 82q0 -48 -24 -70.5t-77 -22.5t-76.5 22.5t-23.5 70.5t23.5 70.5t76.5 22.5t77 -22.5t24 -70.5zM216 439q0 -48 -24 -70.5t-77 -22.5t-76.5 22.5t-23.5 70.5t23.5 70.5t76.5 22.5t77 -22.5t24 -70.5z" />
    <glyph glyph-name="semicolon" unicode=";" horiz-adv-x="231" 
d="M156 -70l-47 -93h-124l62 182q-30 23 -30 69q0 88 98 88t98 -88q0 -47 -57 -158zM216 439q0 -48 -24 -70.5t-77 -22.5t-76.5 22.5t-23.5 70.5t23.5 70.5t76.5 22.5t77 -22.5t24 -70.5z" />
    <glyph glyph-name="less" unicode="&#x3c;" horiz-adv-x="595" 
d="M529 427l-285 -86l285 -86v-160l-463 161v170l463 161v-160z" />
    <glyph glyph-name="equal" unicode="=" horiz-adv-x="595" 
d="M66 380v146h463v-146h-463zM66 150v146h463v-146h-463z" />
    <glyph glyph-name="greater" unicode="&#x3e;" horiz-adv-x="595" 
d="M66 255l285 86l-285 86v160l463 -161v-170l-463 -161v160z" />
    <glyph glyph-name="question" unicode="?" horiz-adv-x="482" 
d="M195 430l44 20q23 11 31 23t8 36q0 33 -14 45t-55 12q-152 0 -204 -2l27 150q53 2 206 2q120 0 174 -46.5t54 -146.5v-11q0 -68 -22.5 -107.5t-76.5 -64.5l-45 -21q-37 -17 -48.5 -31.5t-11.5 -52.5v-16h-177v16q0 85 23.5 126t86.5 69zM273 79q0 -90 -100 -90t-100 90
t100 90t100 -90z" />
    <glyph glyph-name="at" unicode="@" horiz-adv-x="815" 
d="M661 0h-187q-103 0 -147 41.5t-44 121.5v17q0 81 46.5 119t143.5 38q71 0 128 -26v14q0 55 -33.5 75t-132.5 20q-133 0 -178.5 -36.5t-45.5 -143.5v-123q0 -118 46 -157.5t189 -39.5q176 0 265 3l-26 -143q-88 -3 -234 -3q-116 0 -192 15.5t-128.5 54.5t-75 104
t-22.5 166v123q0 178 95 250.5t312 72.5q179 0 259 -55t80 -182v-215q0 -62 -26.5 -86.5t-91.5 -24.5zM519 123h80v53q0 29 -15 40.5t-55 11.5t-53 -10t-13 -36v-11q0 -26 12.5 -37t43.5 -11z" />
    <glyph glyph-name="A" unicode="A" horiz-adv-x="749" 
d="M537 0l-49 156h-237l-48 -156h-195l249 712h234l250 -712h-204zM369 546l-75 -241h150z" />
    <glyph glyph-name="B" unicode="B" horiz-adv-x="658" 
d="M50 0v712h345q112 0 164.5 -44t52.5 -133v-13q0 -103 -83 -144q104 -39 104 -162v-18q0 -104 -62 -151t-190 -47h-331zM229 299v-153h134q46 0 65 15t19 54v13q0 41 -19 56t-68 15h-131zM427 497v10q0 32 -16 45.5t-55 13.5h-127v-131h124q41 0 57.5 14.5t16.5 47.5z" />
    <glyph glyph-name="C" unicode="C" horiz-adv-x="598" 
d="M241 401v-90q0 -90 28 -119.5t116 -29.5q116 0 187 2l-30 -164q-60 -2 -170 -2q-183 0 -257.5 69t-74.5 245v89q0 171 75.5 242t255.5 71q122 0 195 -2l-30 -164q-43 2 -152 2q-88 0 -115.5 -29t-27.5 -120z" />
    <glyph glyph-name="D" unicode="D" horiz-adv-x="721" 
d="M50 0v712h312q94 0 156 -18.5t98 -58.5t50.5 -96t14.5 -138v-89q0 -159 -69.5 -235.5t-244.5 -76.5h-317zM241 548v-384h101q79 0 108.5 30.5t29.5 119.5v85q0 88 -29.5 118.5t-108.5 30.5h-101z" />
    <glyph glyph-name="E" unicode="E" horiz-adv-x="613" 
d="M50 712h537l-29 -154h-320v-120h313l-29 -154h-284v-130h355l-29 -154h-514v712z" />
    <glyph glyph-name="F" unicode="F" horiz-adv-x="576" 
d="M50 712h519l-29 -156h-302v-138h285l-28 -151h-257v-267h-188v712z" />
    <glyph glyph-name="G" unicode="G" horiz-adv-x="686" 
d="M533 0h-154q-189 0 -264 68t-75 240v97q0 167 79.5 238t278.5 71q171 0 234 -2l-29 -164q-89 2 -217 2q-88 0 -116.5 -27.5t-28.5 -117.5v-96q0 -89 27 -117t106 -28h89v103h-102l28 147h262v-302q0 -61 -27.5 -86.5t-90.5 -25.5z" />
    <glyph glyph-name="H" unicode="H" horiz-adv-x="731" 
d="M486 712h195v-712h-195v273h-241v-273h-195v712h195v-268h241v268z" />
    <glyph glyph-name="I" unicode="I" horiz-adv-x="295" 
d="M50 712h195v-712h-195v712z" />
    <glyph glyph-name="J" unicode="J" horiz-adv-x="482" 
d="M239 272v440h195v-440q0 -150 -55 -212t-185 -62q-142 0 -185 2l30 164q62 -2 97 -2q62 0 82.5 21t20.5 89z" />
    <glyph glyph-name="K" unicode="K" horiz-adv-x="711" 
d="M243 712v-280l213 280h223l-268 -338l300 -374h-246l-222 287v-287h-193v712h193z" />
    <glyph glyph-name="L" unicode="L" horiz-adv-x="577" 
d="M50 712h194v-548h324l-32 -164h-486v712z" />
    <glyph glyph-name="M" unicode="M" horiz-adv-x="836" 
d="M495 197h-153l-112 226v-423h-180v712h206l165 -341l161 341h204v-712h-180v426z" />
    <glyph glyph-name="N" unicode="N" horiz-adv-x="730" 
d="M50 712h156l289 -406v406h185v-712h-159l-286 399v-399h-185v712z" />
    <glyph glyph-name="O" unicode="O" horiz-adv-x="748" 
d="M374 145q81 0 106.5 30t25.5 128v108q0 97 -25.5 127.5t-106.5 30.5t-107 -30.5t-26 -127.5v-108q0 -97 26 -127.5t107 -30.5zM374 -18q-185 0 -259.5 73.5t-74.5 246.5v110q0 171 74.5 245.5t259.5 74.5q184 0 259 -74t75 -246v-110q0 -171 -74.5 -245.5t-259.5 -74.5z
" />
    <glyph glyph-name="P" unicode="P" horiz-adv-x="657" 
d="M345 219h-100v-219h-195v712h297q154 0 220 -52.5t66 -173.5v-40q0 -115 -68 -171t-220 -56zM438 459v13q0 49 -22.5 67t-81.5 18h-89v-183h89q60 0 82 17.5t22 67.5z" />
    <glyph glyph-name="Q" unicode="Q" horiz-adv-x="748" 
d="M693 -131h-227l-121 114q-169 6 -237 79t-68 240v110q0 171 74.5 245.5t259.5 74.5q184 0 259 -74t75 -246v-110q0 -126 -38.5 -197.5t-127.5 -100.5zM374 145q81 0 106.5 30t25.5 128v108q0 97 -25.5 127.5t-106.5 30.5t-107 -30.5t-26 -127.5v-108q0 -97 26 -127.5
t107 -30.5z" />
    <glyph glyph-name="R" unicode="R" horiz-adv-x="668" 
d="M510 267l152 -267h-208l-117 232h-95v-232h-192v712h298q153 0 218 -52t65 -175v-24q0 -144 -121 -194zM439 467v8q-1 47 -22.5 64.5t-76.5 17.5h-98v-172h98q55 0 76.5 17.5t22.5 64.5z" />
    <glyph glyph-name="S" unicode="S" horiz-adv-x="601" 
d="M22 489v17q0 103 64.5 155.5t209.5 52.5q183 0 264 -2l-28 -156q-218 2 -234 2q-47 0 -62.5 -10t-15.5 -39q0 -28 10.5 -38t47.5 -16l112 -20q107 -20 148 -67t41 -140v-17q0 -115 -64.5 -164t-225.5 -49q-176 0 -267 2l27 156q70 -2 242 -2q51 0 67.5 10t16.5 42
q0 30 -12 42t-50 18l-89 15q-119 21 -160.5 66.5t-41.5 141.5z" />
    <glyph glyph-name="T" unicode="T" horiz-adv-x="679" 
d="M9 548l31 164h630l-31 -164h-202v-548h-194v548h-234z" />
    <glyph glyph-name="U" unicode="U" horiz-adv-x="716" 
d="M48 281v431h194v-432q0 -78 23.5 -106.5t92.5 -28.5t92.5 28.5t23.5 106.5v432h194v-431q0 -161 -69 -230t-241 -69t-241 69t-69 230z" />
    <glyph glyph-name="V" unicode="V" horiz-adv-x="709" 
d="M8 712h211l139 -493l139 493h204l-232 -712h-228z" />
    <glyph glyph-name="W" unicode="W" horiz-adv-x="973" 
d="M688 222l83 490h191l-167 -712h-210l-96 436l-95 -436h-217l-166 712h203l82 -489l108 489h176z" />
    <glyph glyph-name="X" unicode="X" horiz-adv-x="724" 
d="M696 712l-225 -334l252 -378h-222l-144 239l-142 -239h-214l251 378l-224 334h220l119 -199l117 199h212z" />
    <glyph glyph-name="Y" unicode="Y" horiz-adv-x="703" 
d="M5 712h215l135 -271l132 271h211l-249 -427v-285h-193v283z" />
    <glyph glyph-name="Z" unicode="Z" horiz-adv-x="638" 
d="M25 0v135l329 421h-326l29 156h537v-139l-328 -417h351l-29 -156h-563z" />
    <glyph glyph-name="bracketleft" unicode="[" horiz-adv-x="400" 
d="M51 712h341l-26 -139h-140v-609h166l-26 -139h-315v887z" />
    <glyph glyph-name="backslash" unicode="\" horiz-adv-x="446" 
d="M7 712h189l243 -712h-189z" />
    <glyph glyph-name="bracketright" unicode="]" horiz-adv-x="400" 
d="M349 -175h-341l26 139h140v609h-166l26 139h315v-887z" />
    <glyph glyph-name="asciicircum" unicode="^" horiz-adv-x="595" 
d="M35 393l165 319h195l165 -319h-175l-88 178l-87 -178h-175z" />
    <glyph glyph-name="underscore" unicode="_" horiz-adv-x="500" 
d="M0 -189v155h500v-155h-500z" />
    <glyph glyph-name="grave" unicode="`" horiz-adv-x="500" 
d="M285 740l109 -143h-168l-136 143h195z" />
    <glyph glyph-name="a" unicode="a" horiz-adv-x="576" 
d="M206 178v-11q0 -24 14.5 -35t48.5 -11h84v50q0 30 -14.5 42t-55.5 12h-12q-37 0 -51 -10.5t-14 -36.5zM533 329v-217q0 -62 -28 -87t-92 -25h-188q-109 0 -153.5 40.5t-44.5 117.5v17q0 81 48.5 120t150.5 39q82 0 128 -24v10q0 40 -17 56.5t-69 16.5q-136 0 -195 -2
l26 135q78 2 185 2q129 0 189 -45.5t60 -153.5z" />
    <glyph glyph-name="b" unicode="b" horiz-adv-x="609" 
d="M308 397q-46 0 -62 -19t-16 -75v-74q0 -62 15.5 -81t61.5 -19q45 0 61 19t16 81v66q0 63 -15.5 82.5t-60.5 19.5zM573 290v-55q0 -136 -62 -193.5t-206 -57.5q-142 0 -202 56.5t-60 188.5v514h187v-228q43 27 119 27q112 0 168 -57t56 -195z" />
    <glyph glyph-name="c" unicode="c" horiz-adv-x="494" 
d="M312 143q61 0 155 2l-27 -145q-43 -2 -135 -2q-151 0 -210 53.5t-59 184.5v54q0 129 60 183.5t206 54.5q102 0 163 -2l-27 -145q-60 2 -126 2q-53 0 -70 -18t-17 -75v-54q0 -57 17 -75t70 -18z" />
    <glyph glyph-name="d" unicode="d" horiz-adv-x="608" 
d="M302 145h77v162q0 55 -16 72.5t-62 17.5q-45 0 -60.5 -19.5t-15.5 -79.5v-52q0 -62 15.5 -81.5t61.5 -19.5zM446 0h-146q-152 0 -208 52t-56 189v49q0 138 56.5 195t172.5 57q73 0 114 -26v227h186v-631q0 -63 -26.5 -87.5t-92.5 -24.5z" />
    <glyph glyph-name="e" unicode="e" horiz-adv-x="563" 
d="M436 206h-220q1 -42 20 -56.5t71 -14.5q159 0 198 2l-25 -137q-120 -2 -192 -2q-139 0 -195.5 55t-56.5 183v55q0 132 59.5 191.5t195.5 59.5q125 0 183 -49.5t58 -152.5v-22q0 -64 -19.5 -88t-76.5 -24zM291 411q-43 0 -59 -18t-16 -71h150q-1 53 -16.5 71t-58.5 18z
" />
    <glyph glyph-name="f" unicode="f" horiz-adv-x="388" 
d="M230 526h165l-27 -142h-138v-384h-187v504q0 129 58.5 185t198.5 56q53 0 125 -2l-26 -141q-47 1 -77 1q-52 0 -71 -15.5t-21 -61.5z" />
    <glyph glyph-name="g" unicode="g" horiz-adv-x="607" 
d="M301 168q45 0 61 16.5t16 66.5v56q0 58 -14.5 75.5t-62.5 17.5q-47 0 -61.5 -17.5t-14.5 -75.5v-46q0 -57 14.5 -75t61.5 -18zM378 47v5q-44 -25 -118 -25q-113 0 -168.5 54t-55.5 184v40q0 127 61.5 182t204.5 55q145 0 203.5 -55t58.5 -172v-273q0 -117 -59.5 -168
t-207.5 -51q-122 0 -212 2l26 139q75 -2 169 -2q55 0 76.5 18t21.5 67z" />
    <glyph glyph-name="h" unicode="h" horiz-adv-x="598" 
d="M230 0h-187v743h187v-231q43 30 126 30q199 0 199 -181v-361h-187v323q0 40 -13 54.5t-54 14.5q-42 0 -56.5 -16.5t-14.5 -61.5v-314z" />
    <glyph glyph-name="i" unicode="i" horiz-adv-x="273" 
d="M43 0v526h187v-526h-187zM239 666q0 -44 -21.5 -63t-81.5 -19q-59 0 -81 19t-22 63t22 63.5t81 19.5t81 -19.5t22 -63.5z" />
    <glyph glyph-name="j" unicode="j" horiz-adv-x="273" 
d="M239 666q0 -44 -21.5 -63t-81.5 -19q-59 0 -81 19t-22 63t22 63.5t81 19.5t81 -19.5t22 -63.5zM43 32v494h187v-494q0 -120 -47 -164.5t-159 -44.5q-84 0 -124 2l25 149q16 -1 51 -1q38 0 52.5 12.5t14.5 46.5z" />
    <glyph glyph-name="k" unicode="k" horiz-adv-x="606" 
d="M229 743v-400l152 183h212l-211 -237l229 -289h-217l-165 217v-217h-186v743h186z" />
    <glyph glyph-name="l" unicode="l" horiz-adv-x="273" 
d="M43 0v743h187v-743h-187z" />
    <glyph glyph-name="m" unicode="m" horiz-adv-x="885" 
d="M536 0h-187v323q0 40 -11.5 54.5t-48.5 14.5q-36 0 -47.5 -14.5t-11.5 -54.5v-323h-187v334q0 114 58.5 161t170.5 47q116 0 171 -58q55 58 174 58q111 0 168 -47t57 -161v-334h-187v323q0 40 -11.5 54.5t-48.5 14.5q-36 0 -47.5 -14.5t-11.5 -54.5v-323z" />
    <glyph glyph-name="n" unicode="n" horiz-adv-x="598" 
d="M230 0h-187v330q0 119 57.5 165.5t198.5 46.5t198.5 -46.5t57.5 -165.5v-330h-187v323q0 38 -14 53.5t-55 15.5q-42 0 -55.5 -15t-13.5 -54v-323z" />
    <glyph glyph-name="o" unicode="o" horiz-adv-x="604" 
d="M302 542q147 0 206.5 -55t59.5 -197v-54q0 -141 -59.5 -196.5t-206.5 -55.5t-206.5 55.5t-59.5 196.5v54q0 142 59.5 197t206.5 55zM379 229v68q0 62 -15.5 81t-61.5 19t-61.5 -19t-15.5 -81v-68q0 -62 15.5 -81t61.5 -19t61.5 19t15.5 81z" />
    <glyph glyph-name="p" unicode="p" horiz-adv-x="608" 
d="M307 128q46 0 61 19.5t15 82.5v65q0 64 -15 83t-61 19t-61.5 -19t-15.5 -81v-73q0 -57 16.5 -76.5t60.5 -19.5zM572 289v-52q0 -140 -57 -197t-174 -57q-68 0 -111 24v-182h-187v472q0 132 62.5 188.5t206.5 56.5q139 0 199.5 -56.5t60.5 -196.5z" />
    <glyph glyph-name="q" unicode="q" horiz-adv-x="608" 
d="M300 128q46 0 62 19t16 75v75q0 62 -15.5 81t-61.5 19q-45 0 -60.5 -19t-15.5 -81v-67q0 -63 15 -82.5t60 -19.5zM36 235v55q0 137 62 194.5t205 57.5q142 0 202 -56.5t60 -188.5v-472h-187v185q-43 -27 -119 -27q-113 0 -168 57t-55 195z" />
    <glyph glyph-name="r" unicode="r" horiz-adv-x="399" 
d="M230 0h-187v316q0 120 56.5 166.5t184.5 46.5q81 0 122 -2l-28 -150q-32 2 -74 2q-46 0 -60 -16t-14 -61v-302z" />
    <glyph glyph-name="s" unicode="s" horiz-adv-x="530" 
d="M272 190l-90 7q-84 6 -118 46.5t-34 112.5v12q0 80 54.5 120t181.5 40q140 0 227 -2l-24 -132q-52 0 -100 0.5t-72.5 1t-36.5 0.5q-28 0 -38 -5t-10 -22q0 -15 8.5 -20.5t36.5 -7.5l77 -6q88 -7 128 -44t40 -107v-19q0 -89 -56.5 -128.5t-182.5 -39.5q-155 0 -239 3
l24 131q31 0 106.5 -1t107.5 -1q33 0 44 5.5t11 25.5q0 17 -8.5 22.5t-36.5 7.5z" />
    <glyph glyph-name="t" unicode="t" horiz-adv-x="423" 
d="M407 526l-26 -142h-151v-164q0 -46 14.5 -61t60.5 -15q76 0 96 1l-27 -145q-20 -1 -101 -1q-140 0 -185 43t-45 173v431l187 25v-145h177z" />
    <glyph glyph-name="u" unicode="u" horiz-adv-x="597" 
d="M298 -16q-140 0 -197.5 46.5t-57.5 166.5v329h187v-323q0 -39 13.5 -54t54.5 -15t55 15.5t14 53.5v323h187v-329q0 -120 -58 -166.5t-198 -46.5z" />
    <glyph glyph-name="v" unicode="v" horiz-adv-x="578" 
d="M5 526h203l85 -343l87 343h193l-172 -526h-223z" />
    <glyph glyph-name="w" unicode="w" horiz-adv-x="812" 
d="M488 526l73 -332l61 332h183l-151 -526h-179l-67 299l-67 -299h-184l-150 526h191l60 -332l75 332h155z" />
    <glyph glyph-name="x" unicode="x" horiz-adv-x="594" 
d="M22 526h209l70 -130l73 130h197l-171 -251l186 -275h-207l-86 143l-85 -143h-200l183 271z" />
    <glyph glyph-name="y" unicode="y" horiz-adv-x="597" 
d="M367 526h187v-484q0 -117 -59.5 -168t-207.5 -51q-122 0 -212 2l26 139q75 -2 169 -2q55 0 76.5 18t21.5 67v5q-44 -25 -127 -25q-100 0 -149 42t-49 136v321h187v-281q0 -39 12.5 -53.5t52.5 -14.5q43 0 57.5 14.5t14.5 56.5v278z" />
    <glyph glyph-name="z" unicode="z" horiz-adv-x="532" 
d="M495 409l-223 -264h237l-27 -145h-454v116l224 265h-228l27 145h444v-117z" />
    <glyph glyph-name="braceleft" unicode="{" horiz-adv-x="442" 
d="M349 712h83l-26 -136h-42q-43 0 -58.5 -16t-15.5 -55v-120q0 -81 -74 -116q74 -35 74 -116v-121q0 -39 15.5 -55t58.5 -16h68l-26 -136h-57q-129 0 -180.5 42t-51.5 138v130q0 62 -56 62h-26v144h26q56 0 56 62v129q0 96 51.5 138t180.5 42z" />
    <glyph glyph-name="bar" unicode="|" horiz-adv-x="282" 
d="M47 -175v918h188v-918h-188z" />
    <glyph glyph-name="braceright" unicode="}" horiz-adv-x="442" 
d="M93 -175h-83l25 136h43q43 0 58.5 16t15.5 55v121q0 81 74 116q-74 35 -74 116v120q0 39 -15.5 55t-58.5 16h-68l25 136h58q129 0 180.5 -42t51.5 -138v-129q0 -62 56 -62h26v-144h-26q-56 0 -56 -62v-130q0 -96 -51.5 -138t-180.5 -42z" />
    <glyph glyph-name="asciitilde" unicode="~" horiz-adv-x="595" 
d="M413 452h142v-25q0 -205 -141 -205q-52 0 -119 37l-6 3l-15 8q-40 22 -59 22q-18 0 -26 -10t-8 -35v-16h-142v25q0 205 141 205q16 0 30 -2t28.5 -7.5t22 -8.5t24 -11.5t20.5 -10.5l15 -8q40 -22 59 -22q18 0 26 10t8 35v16z" />
    <glyph glyph-name="uni00A0" unicode="&#xa0;" horiz-adv-x="222" 
 />
    <glyph glyph-name="exclamdown" unicode="&#xa1;" horiz-adv-x="284" 
d="M63 297h157l11 -127q8 -96 8 -162v-200h-194v200q0 78 7 162zM42 441q0 90 100 90t100 -90t-100 -90t-100 90z" />
    <glyph glyph-name="cent" unicode="&#xa2;" horiz-adv-x="595" 
d="M391 -97h-127v99q-102 12 -143.5 64t-41.5 169v58q0 112 42 165.5t143 65.5v100h127v-96q22 0 62 -0.5t60 -0.5l-27 -142q-21 0 -66 0.5t-83 0.5q-53 0 -67.5 -17t-14.5 -76v-58q0 -56 14.5 -74.5t67.5 -18.5q37 0 93 1t86 1l-26 -143q-48 -2 -99 -2v-96z" />
    <glyph glyph-name="sterling" unicode="&#xa3;" horiz-adv-x="595" 
d="M568 141l-26 -141h-505l27 141h52v137h-78l26 137h52v38q0 119 63.5 174t214.5 55q136 0 167 -2l-24 -137q-60 1 -137 1q-59 0 -80 -19t-21 -75v-35h189l-26 -137h-163v-137h269z" />
    <glyph glyph-name="currency" unicode="&#xa4;" horiz-adv-x="595" 
d="M191 355q0 -49 27.5 -77t79.5 -28q51 0 79 28t28 77t-28 77.5t-79 28.5q-52 0 -79.5 -28.5t-27.5 -77.5zM544 354q0 -62 -31 -114l67 -67l-99 -98l-73 72q-49 -25 -110 -25q-62 0 -111 25l-72 -72l-99 98l66 67q-30 55 -30 114t30 114l-66 67l98 98l72 -72q49 25 112 25
q62 0 112 -25l72 72l98 -98l-67 -67q31 -52 31 -114z" />
    <glyph glyph-name="yen" unicode="&#xa5;" horiz-adv-x="595" 
d="M56 274v102h97l-158 304h207l93 -233l100 233h205l-162 -304h96v-102h-148v-52h148v-102h-148v-120h-183v120h-147v102h147v52h-147z" />
    <glyph glyph-name="brokenbar" unicode="&#xa6;" horiz-adv-x="282" 
d="M235 402h-188v341h188v-341zM235 166v-341h-188v341h188z" />
    <glyph glyph-name="section" unicode="&#xa7;" horiz-adv-x="590" 
d="M260 484l114 -11q95 -8 138.5 -47.5t44.5 -121.5v-5q0 -108 -80 -153q79 -38 79 -133v-10q0 -187 -255 -187q-21 0 -124.5 1t-145.5 1l26 141q28 0 103 -1t137 -1q37 0 51.5 10.5t14.5 39.5q0 22 -10 33.5t-36 13.5l-111 11q-90 8 -132.5 45.5t-44.5 114.5v7
q0 113 83 152q-46 25 -64 59.5t-18 83.5v9q0 84 60.5 131t183.5 47q201 0 268 -2l-26 -143q-69 2 -247 2q-34 0 -46 -9.5t-12 -31.5t10 -32.5t39 -13.5zM325 337l-24 3q-22 2 -36 2q-33 0 -48 -16.5t-15 -59.5q0 -35 13.5 -49.5t47.5 -18.5l25 -3q24 -2 35 -2
q33 0 48.5 17.5t15.5 60.5q0 35 -13.5 48.5t-48.5 17.5z" />
    <glyph glyph-name="dieresis" unicode="&#xa8;" horiz-adv-x="500" 
d="M227 661q0 -77 -88 -77q-87 0 -87 77t87 77q88 0 88 -77zM448 661q0 -77 -89 -77q-87 0 -87 77t87 77q89 0 89 -77z" />
    <glyph glyph-name="copyright" unicode="&#xa9;" horiz-adv-x="849" 
d="M568 574l-23 -120q-39 1 -83 1q-39 0 -51 -13.5t-12 -62.5v-45q0 -49 13 -62.5t54 -13.5q69 0 101 1l-23 -120q-16 0 -35 -0.5t-30 -1t-20 -0.5q-123 0 -170 42t-47 154v46q0 109 45.5 153t171.5 44q37 0 109 -2zM820 356q0 -214 -89 -301t-306 -87q-218 0 -307 86.5
t-89 301.5q0 214 89 301t307 87q217 0 306 -86.5t89 -301.5zM702 356q0 90 -11 142t-43.5 85.5t-84 45t-139.5 11.5t-139 -11.5t-83.5 -44.5t-43.5 -85.5t-11 -142.5q0 -173 54 -228.5t223 -55.5q88 0 139.5 11.5t84 44.5t43.5 85.5t11 142.5z" />
    <glyph glyph-name="ordfeminine" unicode="&#xaa;" horiz-adv-x="453" 
d="M165 439v-10q0 -20 11.5 -28t36.5 -8h66v42q0 23 -11.5 31.5t-41.5 8.5h-10q-29 0 -40 -8.5t-11 -27.5zM425 562v-174q0 -49 -20.5 -69t-67.5 -20h-156q-87 0 -124 31.5t-37 94.5v14q0 66 38.5 96.5t121.5 30.5q65 0 100 -20v12q0 31 -14 43.5t-55 12.5q-117 0 -154 -2
l20 108q62 2 148 2q103 0 151.5 -36t48.5 -124z" />
    <glyph glyph-name="guillemotleft" unicode="&#xab;" horiz-adv-x="576" 
d="M30 170v184l234 155v-168l-127 -79l127 -79v-168zM307 170v184l234 155v-168l-128 -79l128 -79v-168z" />
    <glyph glyph-name="logicalnot" unicode="&#xac;" horiz-adv-x="595" 
d="M360 329h-312v152h477v-302h-165v150z" />
    <glyph glyph-name="uni00AD" unicode="&#xad;" horiz-adv-x="403" 
d="M362 214h-352l30 161h353z" />
    <glyph glyph-name="registered" unicode="&#xae;" horiz-adv-x="600" 
d="M580 484q0 -147 -64.5 -209t-215.5 -62t-215.5 62t-64.5 209t64.5 209t215.5 62t215.5 -62t64.5 -209zM110 484q0 -116 37.5 -153.5t152.5 -37.5t152.5 37.5t37.5 153.5q0 114 -38 152.5t-152 38.5t-152 -38.5t-38 -152.5zM423 525v-9q0 -52 -39 -73l48 -90h-100l-34 74
h-21v-74h-90v268h123q63 0 88 -21.5t25 -74.5zM335 517v6q0 16 -6.5 20.5t-25.5 4.5h-27v-55h27q18 0 25 5t7 19z" />
    <glyph glyph-name="overscore" unicode="&#xaf;" horiz-adv-x="500" 
d="M82 599v121h335v-121h-335z" />
    <glyph glyph-name="degree" unicode="&#xb0;" horiz-adv-x="374" 
d="M363 589q0 -163 -176 -163t-176 163t176 163t176 -163zM246 589q0 34 -13.5 48t-45.5 14t-46 -14t-14 -48q0 -35 13.5 -49t46.5 -14q32 0 45.5 14t13.5 49z" />
    <glyph glyph-name="plusminus" unicode="&#xb1;" horiz-adv-x="595" 
d="M66 1v152h463v-152h-463zM379 670v-154h150v-152h-150v-154h-163v154h-150v152h150v154h163z" />
    <glyph glyph-name="uni00B2" unicode="&#xb2;" 
d="M265 450l-55 -17q-21 -7 -28 -14.5t-7 -24.5v-6h179l-17 -100h-295v80q0 59 20 92t72 50l57 19q18 6 23 11.5t5 17.5q0 14 -7 19.5t-27 5.5q-98 0 -133 -2l16 97q63 3 131 3q79 0 115.5 -26t36.5 -85v-13q0 -43 -19 -67t-67 -40z" />
    <glyph glyph-name="uni00B3" unicode="&#xb3;" 
d="M350 580v-5q0 -59 -45 -80q55 -22 55 -87v-9q0 -57 -34 -84.5t-118 -27.5q-9 0 -88 0.5t-84 0.5l18 97q35 -1 133 -1q19 0 27 5.5t8 20.5v5q0 14 -7.5 20t-27.5 6h-117l16 91h96q21 0 28.5 5t7.5 19v5q0 14 -7.5 18.5t-28.5 4.5q-54 0 -134 -2l18 98q40 1 146 1
q72 0 105 -24.5t33 -76.5z" />
    <glyph glyph-name="acute" unicode="&#xb4;" horiz-adv-x="500" 
d="M98 597l109 143h196l-137 -143h-168z" />
    <glyph glyph-name="uni00B5" unicode="&#xb5;" horiz-adv-x="605" 
d="M419 0h-82q-80 0 -110 21v-196h-184v701h187v-303q0 -45 14.5 -61t58.5 -16h70v380h189v-414q0 -64 -31 -88t-112 -24z" />
    <glyph glyph-name="paragraph" unicode="&#xb6;" horiz-adv-x="674" 
d="M403 583v-758h-141v448h-27q-61 0 -105.5 19t-68 51t-34.5 66t-11 70v31q0 83 51.5 142.5t151.5 59.5h406v-887h-142v758h-80z" />
    <glyph glyph-name="middot" unicode="&#xb7;" horiz-adv-x="231" 
d="M216 341q0 -48 -24 -70.5t-77 -22.5t-76.5 22.5t-23.5 70.5t23.5 70.5t76.5 22.5t77 -22.5t24 -70.5z" />
    <glyph glyph-name="cedilla" unicode="&#xb8;" horiz-adv-x="500" 
d="M254 -132q0 13 -7 18.5t-25 5.5q-28 0 -55 -1l15 73q38 2 75 2q66 0 93.5 -21.5t27.5 -72.5v-7q0 -58 -29.5 -81t-102.5 -23q-72 0 -112 3l17 81q31 -1 71 -1q19 0 25.5 5t6.5 19z" />
    <glyph glyph-name="uni00B9" unicode="&#xb9;" 
d="M277 397h83l-19 -109h-295l19 109h70v175h-83l19 108h206v-283z" />
    <glyph glyph-name="ordmasculine" unicode="&#xba;" horiz-adv-x="471" 
d="M235 411q36 0 48 14.5t12 56.5v58q0 42 -12 56.5t-48 14.5t-47.5 -14t-11.5 -57v-58q0 -43 11.5 -57t47.5 -14zM235 295q-115 0 -165 44t-50 143v58q0 99 50 143t165 44t165.5 -44t50.5 -143v-58q0 -99 -50.5 -143t-165.5 -44z" />
    <glyph glyph-name="guillemotright" unicode="&#xbb;" horiz-adv-x="576" 
d="M546 354v-184l-234 -155v168l128 79l-128 79v168zM269 354v-184l-234 -155v168l128 79l-128 79v168z" />
    <glyph glyph-name="onequarter" unicode="&#xbc;" horiz-adv-x="947" 
d="M207 0l403 680h158l-403 -680h-158zM817 392l-122 -225h70v79l120 17v-96h48l-19 -99h-29v-68h-120v68h-194v94l117 230h129zM277 397h83l-19 -109h-295l19 109h70v175h-83l19 108h206v-283z" />
    <glyph glyph-name="onehalf" unicode="&#xbd;" horiz-adv-x="947" 
d="M197 0l403 680h158l-403 -680h-158zM816 162l-55 -17q-21 -7 -28 -14.5t-7 -24.5v-6h179l-17 -100h-295v80q0 59 20 92t72 50l57 19q18 6 23 11.5t5 17.5q0 14 -7 19.5t-27 5.5q-98 0 -133 -2l16 97q63 3 131 3q79 0 115.5 -26t36.5 -85v-13q0 -43 -19 -67t-67 -40z
M277 397h83l-19 -109h-295l19 109h70v175h-83l19 108h206v-283z" />
    <glyph glyph-name="threequarters" unicode="&#xbe;" horiz-adv-x="947" 
d="M213 0l403 680h158l-403 -680h-158zM817 392l-122 -225h70v79l120 17v-96h48l-19 -99h-29v-68h-120v68h-194v94l117 230h129zM350 581v-5q0 -59 -45 -80q55 -22 55 -87v-9q0 -57 -34 -84.5t-118 -27.5q-9 0 -88 0.5t-84 0.5l18 97q35 -1 133 -1q19 0 27 5.5t8 20.5v5
q0 14 -7.5 20t-27.5 6h-117l16 91h96q21 0 28.5 5t7.5 19v5q0 14 -7.5 18.5t-28.5 4.5q-54 0 -134 -2l18 98q40 1 146 1q72 0 105 -24.5t33 -76.5z" />
    <glyph glyph-name="questiondown" unicode="&#xbf;" horiz-adv-x="482" 
d="M287 91l-44 -20q-23 -11 -31 -23t-8 -36q0 -33 14 -45t55 -12q152 0 204 2l-27 -150q-53 -2 -206 -2q-120 0 -174 46.5t-54 146.5v11q0 68 22.5 107.5t76.5 64.5l45 21q37 17 48.5 31.5t11.5 52.5v16h177v-16q0 -85 -23 -125.5t-87 -69.5zM209 442q0 90 100 90t100 -90
t-100 -90t-100 90z" />
    <glyph glyph-name="Agrave" unicode="&#xc0;" horiz-adv-x="749" 
d="M537 0l-49 156h-237l-48 -156h-195l249 712h234l250 -712h-204zM369 546l-75 -241h150zM174 912h197l114 -140h-167z" />
    <glyph glyph-name="Aacute" unicode="&#xc1;" horiz-adv-x="749" 
d="M537 0l-49 156h-237l-48 -156h-195l249 712h234l250 -712h-204zM369 546l-75 -241h150zM385 912h197l-144 -140h-167z" />
    <glyph glyph-name="Acircumflex" unicode="&#xc2;" horiz-adv-x="749" 
d="M537 0l-49 156h-237l-48 -156h-195l249 712h234l250 -712h-204zM369 546l-75 -241h150zM432 772l-58 63l-58 -63h-161l125 140h188l125 -140h-161z" />
    <glyph glyph-name="Atilde" unicode="&#xc3;" horiz-adv-x="749" 
d="M537 0l-49 156h-237l-48 -156h-195l249 712h234l250 -712h-204zM369 546l-75 -241h150zM372 785l-9 4q-40 17 -55 17q-13 0 -19.5 -6.5t-6.5 -27.5v-9h-107v9q0 81 26.5 116t79.5 35q43 0 95 -25l9 -4q38 -17 55 -17q13 0 19 7t7 27v8h107v-8q0 -80 -26.5 -115.5
t-79.5 -35.5q-37 0 -95 25z" />
    <glyph glyph-name="Adieresis" unicode="&#xc4;" horiz-adv-x="749" 
d="M537 0l-49 156h-237l-48 -156h-195l249 712h234l250 -712h-204zM369 546l-75 -241h150zM350 840q0 -79 -90 -79q-88 0 -88 79t88 79q90 0 90 -79zM577 840q0 -79 -89 -79t-89 79t89 79t89 -79z" />
    <glyph glyph-name="Aring" unicode="&#xc5;" horiz-adv-x="749" 
d="M225 767q0 65 38.5 100t108.5 35t109 -35t39 -100q0 -47 -21 -79l242 -688h-204l-49 156h-237l-48 -156h-195l239 685q-22 31 -22 82zM369 546l-75 -241h150zM423 767q0 24 -13.5 38t-37.5 14t-37.5 -14t-13.5 -38t13.5 -38t37.5 -14t37.5 14t13.5 38z" />
    <glyph glyph-name="AE" unicode="&#xc6;" horiz-adv-x="1053" 
d="M361 317h129v240h-12zM382 712h645l-29 -154h-320v-120h313l-29 -154h-284v-130h355l-29 -154h-514v168h-198l-82 -168h-205z" />
    <glyph glyph-name="Ccedilla" unicode="&#xc7;" horiz-adv-x="598" 
d="M241 401v-90q0 -90 28 -119.5t116 -29.5q116 0 187 2l-30 -164q-60 -2 -170 -2q-183 0 -257.5 69t-74.5 245v89q0 171 75.5 242t255.5 71q122 0 195 -2l-30 -164q-43 2 -152 2q-88 0 -115.5 -29t-27.5 -120zM298 -110q-35 0 -62 -1l17 75q23 2 86 2q67 0 93.5 -21.5
t26.5 -73.5v-6q0 -58 -29.5 -81t-101.5 -23q-76 0 -124 3l17 83q54 -2 77 -2q19 0 25.5 4.5t6.5 18.5q0 13 -6.5 17.5t-25.5 4.5z" />
    <glyph glyph-name="Egrave" unicode="&#xc8;" horiz-adv-x="613" 
d="M50 712h537l-29 -154h-320v-120h313l-29 -154h-284v-130h355l-29 -154h-514v712zM133 912h197l114 -140h-167z" />
    <glyph glyph-name="Eacute" unicode="&#xc9;" horiz-adv-x="613" 
d="M50 712h537l-29 -154h-320v-120h313l-29 -154h-284v-130h355l-29 -154h-514v712zM314 912h197l-144 -140h-167z" />
    <glyph glyph-name="Ecircumflex" unicode="&#xca;" horiz-adv-x="613" 
d="M50 712h537l-29 -154h-320v-120h313l-29 -154h-284v-130h355l-29 -154h-514v712zM370 772l-58 63l-58 -63h-161l125 140h188l125 -140h-161z" />
    <glyph glyph-name="Edieresis" unicode="&#xcb;" horiz-adv-x="613" 
d="M50 712h537l-29 -154h-320v-120h313l-29 -154h-284v-130h355l-29 -154h-514v712zM286 840q0 -79 -90 -79q-88 0 -88 79t88 79q90 0 90 -79zM513 840q0 -79 -89 -79t-89 79t89 79t89 -79z" />
    <glyph glyph-name="Igrave" unicode="&#xcc;" horiz-adv-x="295" 
d="M50 712h195v-712h-195v712zM-47 912h197l114 -140h-167z" />
    <glyph glyph-name="Iacute" unicode="&#xcd;" horiz-adv-x="295" 
d="M50 712h195v-712h-195v712zM158 912h197l-144 -140h-167z" />
    <glyph glyph-name="Icircumflex" unicode="&#xce;" horiz-adv-x="295" 
d="M50 712h195v-712h-195v712zM206 772l-58 63l-58 -63h-161l125 140h188l125 -140h-161z" />
    <glyph glyph-name="Idieresis" unicode="&#xcf;" horiz-adv-x="295" 
d="M50 712h195v-712h-195v712zM124 840q0 -79 -90 -79q-88 0 -88 79t88 79q90 0 90 -79zM351 840q0 -79 -89 -79t-89 79t89 79t89 -79z" />
    <glyph glyph-name="Eth" unicode="&#xd0;" horiz-adv-x="754" 
d="M83 0v295h-68v130h68v287h312q94 0 156 -18.5t98 -58.5t50.5 -96t14.5 -138v-89q0 -159 -69.5 -235.5t-244.5 -76.5h-317zM274 548v-123h121v-130h-121v-131h101q79 0 108.5 30.5t29.5 119.5v85q0 88 -29.5 118.5t-108.5 30.5h-101z" />
    <glyph glyph-name="Ntilde" unicode="&#xd1;" horiz-adv-x="730" 
d="M50 712h156l289 -406v406h185v-712h-159l-286 399v-399h-185v712zM368 785l-9 4q-40 17 -55 17q-13 0 -19.5 -6.5t-6.5 -27.5v-9h-107v9q0 81 26.5 116t79.5 35q43 0 95 -25l9 -4q38 -17 55 -17q13 0 19 7t7 27v8h107v-8q0 -80 -26.5 -115.5t-79.5 -35.5q-37 0 -95 25z
" />
    <glyph glyph-name="Ograve" unicode="&#xd2;" horiz-adv-x="748" 
d="M374 145q81 0 106.5 30t25.5 128v108q0 97 -25.5 127.5t-106.5 30.5t-107 -30.5t-26 -127.5v-108q0 -97 26 -127.5t107 -30.5zM374 -18q-185 0 -259.5 73.5t-74.5 246.5v110q0 171 74.5 245.5t259.5 74.5q184 0 259 -74t75 -246v-110q0 -171 -74.5 -245.5t-259.5 -74.5z
M175 912h197l114 -140h-167z" />
    <glyph glyph-name="Oacute" unicode="&#xd3;" horiz-adv-x="748" 
d="M374 145q81 0 106.5 30t25.5 128v108q0 97 -25.5 127.5t-106.5 30.5t-107 -30.5t-26 -127.5v-108q0 -97 26 -127.5t107 -30.5zM374 -18q-185 0 -259.5 73.5t-74.5 246.5v110q0 171 74.5 245.5t259.5 74.5q184 0 259 -74t75 -246v-110q0 -171 -74.5 -245.5t-259.5 -74.5z
M363 912h197l-144 -140h-167z" />
    <glyph glyph-name="Ocircumflex" unicode="&#xd4;" horiz-adv-x="748" 
d="M374 145q81 0 106.5 30t25.5 128v108q0 97 -25.5 127.5t-106.5 30.5t-107 -30.5t-26 -127.5v-108q0 -97 26 -127.5t107 -30.5zM374 -18q-185 0 -259.5 73.5t-74.5 246.5v110q0 171 74.5 245.5t259.5 74.5q184 0 259 -74t75 -246v-110q0 -171 -74.5 -245.5t-259.5 -74.5z
M432 772l-58 63l-58 -63h-161l125 140h188l125 -140h-161z" />
    <glyph glyph-name="Otilde" unicode="&#xd5;" horiz-adv-x="748" 
d="M374 145q81 0 106.5 30t25.5 128v108q0 97 -25.5 127.5t-106.5 30.5t-107 -30.5t-26 -127.5v-108q0 -97 26 -127.5t107 -30.5zM374 -18q-185 0 -259.5 73.5t-74.5 246.5v110q0 171 74.5 245.5t259.5 74.5q184 0 259 -74t75 -246v-110q0 -171 -74.5 -245.5t-259.5 -74.5z
M372 785l-9 4q-40 17 -55 17q-13 0 -19.5 -6.5t-6.5 -27.5v-9h-107v9q0 81 26.5 116t79.5 35q43 0 95 -25l9 -4q38 -17 55 -17q13 0 19 7t7 27v8h107v-8q0 -80 -26.5 -115.5t-79.5 -35.5q-37 0 -95 25z" />
    <glyph glyph-name="Odieresis" unicode="&#xd6;" horiz-adv-x="748" 
d="M374 145q81 0 106.5 30t25.5 128v108q0 97 -25.5 127.5t-106.5 30.5t-107 -30.5t-26 -127.5v-108q0 -97 26 -127.5t107 -30.5zM374 -18q-185 0 -259.5 73.5t-74.5 246.5v110q0 171 74.5 245.5t259.5 74.5q184 0 259 -74t75 -246v-110q0 -171 -74.5 -245.5t-259.5 -74.5z
M350 840q0 -79 -90 -79q-88 0 -88 79t88 79q90 0 90 -79zM577 840q0 -79 -89 -79t-89 79t89 79t89 -79z" />
    <glyph glyph-name="multiply" unicode="&#xd7;" horiz-adv-x="595" 
d="M538 471l-128 -128l132 -131l-113 -113l-131 132l-133 -133l-113 113l132 133l-127 128l112 112l129 -128l127 127z" />
    <glyph glyph-name="Oslash" unicode="&#xd8;" horiz-adv-x="748" 
d="M374 -18q-76 0 -131 12l-44 -84h-124l65 124q-53 38 -76.5 102t-23.5 166v110q0 171 74.5 245.5t259.5 74.5q68 0 126 -11l43 82h124l-64 -122q56 -36 80.5 -101.5t24.5 -167.5v-110q0 -171 -74.5 -245.5t-259.5 -74.5zM374 145q81 0 106.5 30t25.5 128v108q0 42 -5 75
l-177 -338q21 -3 50 -3zM241 411v-108q0 -44 4 -69l174 332q-19 3 -45 3q-81 0 -107 -30.5t-26 -127.5z" />
    <glyph glyph-name="Ugrave" unicode="&#xd9;" horiz-adv-x="716" 
d="M48 281v431h194v-432q0 -78 23.5 -106.5t92.5 -28.5t92.5 28.5t23.5 106.5v432h194v-431q0 -161 -69 -230t-241 -69t-241 69t-69 230zM176 912h197l114 -140h-167z" />
    <glyph glyph-name="Uacute" unicode="&#xda;" horiz-adv-x="716" 
d="M48 281v431h194v-432q0 -78 23.5 -106.5t92.5 -28.5t92.5 28.5t23.5 106.5v432h194v-431q0 -161 -69 -230t-241 -69t-241 69t-69 230zM351 912h197l-144 -140h-167z" />
    <glyph glyph-name="Ucircumflex" unicode="&#xdb;" horiz-adv-x="716" 
d="M48 281v431h194v-432q0 -78 23.5 -106.5t92.5 -28.5t92.5 28.5t23.5 106.5v432h194v-431q0 -161 -69 -230t-241 -69t-241 69t-69 230zM415 772l-58 63l-58 -63h-161l125 140h188l125 -140h-161z" />
    <glyph glyph-name="Udieresis" unicode="&#xdc;" horiz-adv-x="716" 
d="M48 281v431h194v-432q0 -78 23.5 -106.5t92.5 -28.5t92.5 28.5t23.5 106.5v432h194v-431q0 -161 -69 -230t-241 -69t-241 69t-69 230zM333 840q0 -79 -90 -79q-88 0 -88 79t88 79q90 0 90 -79zM560 840q0 -79 -89 -79t-89 79t89 79t89 -79z" />
    <glyph glyph-name="Yacute" unicode="&#xdd;" horiz-adv-x="703" 
d="M5 712h215l135 -271l132 271h211l-249 -427v-285h-193v283zM344 912h197l-144 -140h-167z" />
    <glyph glyph-name="Thorn" unicode="&#xde;" horiz-adv-x="654" 
d="M438 352v13q0 49 -22.5 67t-81.5 18h-89v-183h89q60 0 82 17.5t22 67.5zM241 712v-107h106q154 0 220 -52.5t66 -173.5v-40q0 -115 -68 -171t-220 -56h-100v-112h-195v712h191z" />
    <glyph glyph-name="germandbls" unicode="&#xdf;" horiz-adv-x="622" 
d="M566 558v-8q0 -100 -79 -142q109 -35 109 -180v-16q0 -108 -58 -160.5t-189 -52.5q-4 0 -41.5 0.5t-40.5 0.5l26 142q12 -1 35 -1q43 0 61.5 18t18.5 65v11q0 45 -19.5 63t-70.5 18h-46l20 142h16q40 0 56.5 15t16.5 54v10q0 38 -18.5 54.5t-57.5 16.5q-42 0 -58.5 -21.5
t-16.5 -75.5v-511h-187v493q0 137 64.5 197t211.5 60q247 0 247 -192z" />
    <glyph glyph-name="agrave" unicode="&#xe0;" horiz-adv-x="576" 
d="M206 178v-11q0 -24 14.5 -35t48.5 -11h84v50q0 30 -14.5 42t-55.5 12h-12q-37 0 -51 -10.5t-14 -36.5zM533 329v-217q0 -62 -28 -87t-92 -25h-188q-109 0 -153.5 40.5t-44.5 117.5v17q0 81 48.5 120t150.5 39q82 0 128 -24v10q0 40 -17 56.5t-69 16.5q-136 0 -195 -2
l26 135q78 2 185 2q129 0 189 -45.5t60 -153.5zM312 740l109 -143h-168l-136 143h195z" />
    <glyph glyph-name="aacute" unicode="&#xe1;" horiz-adv-x="576" 
d="M206 178v-11q0 -24 14.5 -35t48.5 -11h84v50q0 30 -14.5 42t-55.5 12h-12q-37 0 -51 -10.5t-14 -36.5zM533 329v-217q0 -62 -28 -87t-92 -25h-188q-109 0 -153.5 40.5t-44.5 117.5v17q0 81 48.5 120t150.5 39q82 0 128 -24v10q0 40 -17 56.5t-69 16.5q-136 0 -195 -2
l26 135q78 2 185 2q129 0 189 -45.5t60 -153.5zM192 597l109 143h196l-137 -143h-168z" />
    <glyph glyph-name="acircumflex" unicode="&#xe2;" horiz-adv-x="576" 
d="M206 178v-11q0 -24 14.5 -35t48.5 -11h84v50q0 30 -14.5 42t-55.5 12h-12q-37 0 -51 -10.5t-14 -36.5zM533 329v-217q0 -62 -28 -87t-92 -25h-188q-109 0 -153.5 40.5t-44.5 117.5v17q0 81 48.5 120t150.5 39q82 0 128 -24v10q0 40 -17 56.5t-69 16.5q-136 0 -195 -2
l26 135q78 2 185 2q129 0 189 -45.5t60 -153.5zM202 743h178l116 -146h-153l-54 66l-52 -66h-153z" />
    <glyph glyph-name="atilde" unicode="&#xe3;" horiz-adv-x="576" 
d="M206 178v-11q0 -24 14.5 -35t48.5 -11h84v50q0 30 -14.5 42t-55.5 12h-12q-37 0 -51 -10.5t-14 -36.5zM533 329v-217q0 -62 -28 -87t-92 -25h-188q-109 0 -153.5 40.5t-44.5 117.5v17q0 81 48.5 120t150.5 39q82 0 128 -24v10q0 40 -17 56.5t-69 16.5q-136 0 -195 -2
l26 135q78 2 185 2q129 0 189 -45.5t60 -153.5zM292 612l-14 7q-27 15 -46 15q-27 0 -27 -34v-8h-106v8q0 79 26.5 113.5t80.5 34.5q41 0 91 -25l13 -6q29 -15 47 -15q27 0 27 34v7h106v-8q0 -79 -27 -113t-81 -34q-40 0 -90 24z" />
    <glyph glyph-name="adieresis" unicode="&#xe4;" horiz-adv-x="576" 
d="M206 178v-11q0 -24 14.5 -35t48.5 -11h84v50q0 30 -14.5 42t-55.5 12h-12q-37 0 -51 -10.5t-14 -36.5zM533 329v-217q0 -62 -28 -87t-92 -25h-188q-109 0 -153.5 40.5t-44.5 117.5v17q0 81 48.5 120t150.5 39q82 0 128 -24v10q0 40 -17 56.5t-69 16.5q-136 0 -195 -2
l26 135q78 2 185 2q129 0 189 -45.5t60 -153.5zM269 661q0 -77 -88 -77q-87 0 -87 77t87 77q88 0 88 -77zM490 661q0 -77 -89 -77q-87 0 -87 77t87 77q89 0 89 -77z" />
    <glyph glyph-name="aring" unicode="&#xe5;" horiz-adv-x="576" 
d="M206 178v-11q0 -24 14.5 -35t48.5 -11h84v50q0 30 -14.5 42t-55.5 12h-12q-37 0 -51 -10.5t-14 -36.5zM533 329v-217q0 -62 -28 -87t-92 -25h-188q-109 0 -153.5 40.5t-44.5 117.5v17q0 81 48.5 120t150.5 39q82 0 128 -24v10q0 40 -17 56.5t-69 16.5q-136 0 -195 -2
l26 135q78 2 185 2q129 0 189 -45.5t60 -153.5zM152 693q0 60 36.5 92.5t100.5 32.5q65 0 101.5 -32.5t36.5 -92.5t-36.5 -92.5t-101.5 -32.5q-64 0 -100.5 32.5t-36.5 92.5zM335 693q0 47 -46 47t-46 -47t46 -47t46 47z" />
    <glyph glyph-name="ae" unicode="&#xe6;" horiz-adv-x="871" 
d="M266 119h7q44 0 60.5 15t16.5 57v31h-86q-32 0 -45 -10.5t-13 -37.5v-9q0 -46 60 -46zM220 331h129q0 34 -19.5 48t-69.5 14q-143 0 -187 -2l26 135q72 2 175 2q118 0 158 -45q50 59 167 59q125 0 183 -49.5t58 -152.5v-22q0 -64 -19.5 -88t-76.5 -24h-220
q1 -42 20 -56.5t71 -14.5q153 0 198 2l-25 -137q-118 -2 -198 -2q-116 0 -158 50q-44 -50 -140 -50h-65q-109 0 -154.5 39t-45.5 125v10q0 84 49 121.5t144 37.5zM599 411q-43 0 -59 -18t-16 -71h150q-1 53 -16.5 71t-58.5 18z" />
    <glyph glyph-name="ccedilla" unicode="&#xe7;" horiz-adv-x="494" 
d="M312 143q61 0 155 2l-27 -145q-43 -2 -135 -2q-151 0 -210 53.5t-59 184.5v54q0 129 60 183.5t206 54.5q102 0 163 -2l-27 -145q-60 2 -126 2q-53 0 -70 -18t-17 -75v-54q0 -57 17 -75t70 -18zM268 -132q0 13 -7 18.5t-25 5.5q-28 0 -55 -1l15 73q38 2 75 2
q66 0 93.5 -21.5t27.5 -72.5v-7q0 -58 -29.5 -81t-102.5 -23q-72 0 -112 3l17 81q31 -1 71 -1q19 0 25.5 5t6.5 19z" />
    <glyph glyph-name="egrave" unicode="&#xe8;" horiz-adv-x="563" 
d="M436 206h-220q1 -42 20 -56.5t71 -14.5q159 0 198 2l-25 -137q-120 -2 -192 -2q-139 0 -195.5 55t-56.5 183v55q0 132 59.5 191.5t195.5 59.5q125 0 183 -49.5t58 -152.5v-22q0 -64 -19.5 -88t-76.5 -24zM291 411q-43 0 -59 -18t-16 -71h150q-1 53 -16.5 71t-58.5 18z
M300 740l109 -143h-168l-136 143h195z" />
    <glyph glyph-name="eacute" unicode="&#xe9;" horiz-adv-x="563" 
d="M436 206h-220q1 -42 20 -56.5t71 -14.5q159 0 198 2l-25 -137q-120 -2 -192 -2q-139 0 -195.5 55t-56.5 183v55q0 132 59.5 191.5t195.5 59.5q125 0 183 -49.5t58 -152.5v-22q0 -64 -19.5 -88t-76.5 -24zM291 411q-43 0 -59 -18t-16 -71h150q-1 53 -16.5 71t-58.5 18z
M153 597l109 143h196l-137 -143h-168z" />
    <glyph glyph-name="ecircumflex" unicode="&#xea;" horiz-adv-x="563" 
d="M436 206h-220q1 -42 20 -56.5t71 -14.5q159 0 198 2l-25 -137q-120 -2 -192 -2q-139 0 -195.5 55t-56.5 183v55q0 132 59.5 191.5t195.5 59.5q125 0 183 -49.5t58 -152.5v-22q0 -64 -19.5 -88t-76.5 -24zM291 411q-43 0 -59 -18t-16 -71h150q-1 53 -16.5 71t-58.5 18z
M198 743h178l116 -146h-153l-54 66l-52 -66h-153z" />
    <glyph glyph-name="edieresis" unicode="&#xeb;" horiz-adv-x="563" 
d="M436 206h-220q1 -42 20 -56.5t71 -14.5q159 0 198 2l-25 -137q-120 -2 -192 -2q-139 0 -195.5 55t-56.5 183v55q0 132 59.5 191.5t195.5 59.5q125 0 183 -49.5t58 -152.5v-22q0 -64 -19.5 -88t-76.5 -24zM291 411q-43 0 -59 -18t-16 -71h150q-1 53 -16.5 71t-58.5 18z
M262 661q0 -77 -88 -77q-87 0 -87 77t87 77q88 0 88 -77zM483 661q0 -77 -89 -77q-87 0 -87 77t87 77q89 0 89 -77z" />
    <glyph glyph-name="igrave" unicode="&#xec;" horiz-adv-x="273" 
d="M43 0v526h187v-526h-187zM134 740l109 -143h-168l-136 143h195z" />
    <glyph glyph-name="iacute" unicode="&#xed;" horiz-adv-x="273" 
d="M43 0v526h187v-526h-187zM34 597l109 143h196l-137 -143h-168z" />
    <glyph glyph-name="icircumflex" unicode="&#xee;" horiz-adv-x="273" 
d="M43 0v526h187v-526h-187zM49 743h178l116 -146h-153l-54 66l-52 -66h-153z" />
    <glyph glyph-name="idieresis" unicode="&#xef;" horiz-adv-x="273" 
d="M43 0v526h187v-526h-187zM114 661q0 -77 -88 -77q-87 0 -87 77t87 77q88 0 88 -77zM335 661q0 -77 -89 -77q-87 0 -87 77t87 77q89 0 89 -77z" />
    <glyph glyph-name="eth" unicode="&#xf0;" horiz-adv-x="610" 
d="M516 715l36 -78l-48 -22q64 -106 64 -284v-120q0 -123 -58.5 -175t-207.5 -52t-207.5 52t-58.5 175v48q0 121 58 172t170 51q72 0 112 -22q-10 47 -34 84l-88 -39l-34 76l59 27q-14 11 -56 35l119 124q73 -48 107 -82zM379 211v51q0 45 -15.5 60t-61.5 15t-61.5 -15.5
t-15.5 -66.5v-44q0 -50 14.5 -66t62.5 -16t62.5 16t14.5 66z" />
    <glyph glyph-name="ntilde" unicode="&#xf1;" horiz-adv-x="598" 
d="M230 0h-187v330q0 119 57.5 165.5t198.5 46.5t198.5 -46.5t57.5 -165.5v-330h-187v323q0 38 -14 53.5t-55 15.5q-42 0 -55.5 -15t-13.5 -54v-323zM297 612l-14 7q-27 15 -46 15q-27 0 -27 -34v-8h-106v8q0 79 26.5 113.5t80.5 34.5q41 0 91 -25l13 -6q29 -15 47 -15
q27 0 27 34v7h106v-8q0 -79 -27 -113t-81 -34q-40 0 -90 24z" />
    <glyph glyph-name="ograve" unicode="&#xf2;" horiz-adv-x="604" 
d="M302 542q147 0 206.5 -55t59.5 -197v-54q0 -141 -59.5 -196.5t-206.5 -55.5t-206.5 55.5t-59.5 196.5v54q0 142 59.5 197t206.5 55zM379 229v68q0 62 -15.5 81t-61.5 19t-61.5 -19t-15.5 -81v-68q0 -62 15.5 -81t61.5 -19t61.5 19t15.5 81zM312 740l109 -143h-168
l-136 143h195z" />
    <glyph glyph-name="oacute" unicode="&#xf3;" horiz-adv-x="604" 
d="M302 542q147 0 206.5 -55t59.5 -197v-54q0 -141 -59.5 -196.5t-206.5 -55.5t-206.5 55.5t-59.5 196.5v54q0 142 59.5 197t206.5 55zM379 229v68q0 62 -15.5 81t-61.5 19t-61.5 -19t-15.5 -81v-68q0 -62 15.5 -81t61.5 -19t61.5 19t15.5 81zM183 597l109 143h196
l-137 -143h-168z" />
    <glyph glyph-name="ocircumflex" unicode="&#xf4;" horiz-adv-x="604" 
d="M302 542q147 0 206.5 -55t59.5 -197v-54q0 -141 -59.5 -196.5t-206.5 -55.5t-206.5 55.5t-59.5 196.5v54q0 142 59.5 197t206.5 55zM379 229v68q0 62 -15.5 81t-61.5 19t-61.5 -19t-15.5 -81v-68q0 -62 15.5 -81t61.5 -19t61.5 19t15.5 81zM214 743h178l116 -146h-153
l-54 66l-52 -66h-153z" />
    <glyph glyph-name="otilde" unicode="&#xf5;" horiz-adv-x="604" 
d="M302 542q147 0 206.5 -55t59.5 -197v-54q0 -141 -59.5 -196.5t-206.5 -55.5t-206.5 55.5t-59.5 196.5v54q0 142 59.5 197t206.5 55zM379 229v68q0 62 -15.5 81t-61.5 19t-61.5 -19t-15.5 -81v-68q0 -62 15.5 -81t61.5 -19t61.5 19t15.5 81zM300 612l-14 7q-27 15 -46 15
q-27 0 -27 -34v-8h-106v8q0 79 26.5 113.5t80.5 34.5q41 0 91 -25l13 -6q29 -15 47 -15q27 0 27 34v7h106v-8q0 -79 -27 -113t-81 -34q-40 0 -90 24z" />
    <glyph glyph-name="odieresis" unicode="&#xf6;" horiz-adv-x="604" 
d="M302 542q147 0 206.5 -55t59.5 -197v-54q0 -141 -59.5 -196.5t-206.5 -55.5t-206.5 55.5t-59.5 196.5v54q0 142 59.5 197t206.5 55zM379 229v68q0 62 -15.5 81t-61.5 19t-61.5 -19t-15.5 -81v-68q0 -62 15.5 -81t61.5 -19t61.5 19t15.5 81zM280 661q0 -77 -88 -77
q-87 0 -87 77t87 77q88 0 88 -77zM501 661q0 -77 -89 -77q-87 0 -87 77t87 77q89 0 89 -77z" />
    <glyph glyph-name="divide" unicode="&#xf7;" horiz-adv-x="595" 
d="M66 265v152h463v-152h-463zM298 228q93 0 93 -80q0 -82 -93 -82t-93 82q0 80 93 80zM298 616q93 0 93 -80q0 -82 -93 -82t-93 82q0 80 93 80z" />
    <glyph glyph-name="oslash" unicode="&#xf8;" horiz-adv-x="604" 
d="M302 542q62 0 108 -9l35 59h100l-54 -92q77 -52 77 -210v-54q0 -141 -59.5 -196.5t-206.5 -55.5q-62 0 -109 9l-34 -58h-100l53 90q-41 29 -58.5 79t-17.5 132v54q0 142 59.5 197t206.5 55zM386 227v94l-116 -196q6 -2 32 -2q50 0 67 20t17 84zM218 299v-93l115 195
q-18 2 -31 2q-50 0 -67 -20t-17 -84z" />
    <glyph glyph-name="ugrave" unicode="&#xf9;" horiz-adv-x="597" 
d="M298 -16q-140 0 -197.5 46.5t-57.5 166.5v329h187v-323q0 -39 13.5 -54t54.5 -15t55 15.5t14 53.5v323h187v-329q0 -120 -58 -166.5t-198 -46.5zM309 740l109 -143h-168l-136 143h195z" />
    <glyph glyph-name="uacute" unicode="&#xfa;" horiz-adv-x="597" 
d="M298 -16q-140 0 -197.5 46.5t-57.5 166.5v329h187v-323q0 -39 13.5 -54t54.5 -15t55 15.5t14 53.5v323h187v-329q0 -120 -58 -166.5t-198 -46.5zM177 597l109 143h196l-137 -143h-168z" />
    <glyph glyph-name="ucircumflex" unicode="&#xfb;" horiz-adv-x="597" 
d="M298 -16q-140 0 -197.5 46.5t-57.5 166.5v329h187v-323q0 -39 13.5 -54t54.5 -15t55 15.5t14 53.5v323h187v-329q0 -120 -58 -166.5t-198 -46.5zM211 743h178l116 -146h-153l-54 66l-52 -66h-153z" />
    <glyph glyph-name="udieresis" unicode="&#xfc;" horiz-adv-x="597" 
d="M298 -16q-140 0 -197.5 46.5t-57.5 166.5v329h187v-323q0 -39 13.5 -54t54.5 -15t55 15.5t14 53.5v323h187v-329q0 -120 -58 -166.5t-198 -46.5zM276 661q0 -77 -88 -77q-87 0 -87 77t87 77q88 0 88 -77zM497 661q0 -77 -89 -77q-87 0 -87 77t87 77q89 0 89 -77z" />
    <glyph glyph-name="yacute" unicode="&#xfd;" horiz-adv-x="597" 
d="M367 526h187v-484q0 -117 -59.5 -168t-207.5 -51q-122 0 -212 2l26 139q75 -2 169 -2q55 0 76.5 18t21.5 67v5q-44 -25 -127 -25q-100 0 -149 42t-49 136v321h187v-281q0 -39 12.5 -53.5t52.5 -14.5q43 0 57.5 14.5t14.5 56.5v278zM187 597l109 143h196l-137 -143h-168z
" />
    <glyph glyph-name="thorn" unicode="&#xfe;" horiz-adv-x="608" 
d="M43 -175v918h187v-229q43 27 118 27q112 0 168 -57t56 -195v-52q0 -140 -57 -197t-174 -57q-68 0 -111 24v-182h-187zM308 396q-46 0 -62 -19t-16 -75v-78q0 -57 16.5 -76.5t60.5 -19.5q46 0 61 19.5t15 82.5v64q0 63 -15 82.5t-60 19.5z" />
    <glyph glyph-name="ydieresis" unicode="&#xff;" horiz-adv-x="597" 
d="M367 526h187v-484q0 -117 -59.5 -168t-207.5 -51q-122 0 -212 2l26 139q75 -2 169 -2q55 0 76.5 18t21.5 67v5q-44 -25 -127 -25q-100 0 -149 42t-49 136v321h187v-281q0 -39 12.5 -53.5t52.5 -14.5q43 0 57.5 14.5t14.5 56.5v278zM280 661q0 -77 -88 -77q-87 0 -87 77
t87 77q88 0 88 -77zM501 661q0 -77 -89 -77q-87 0 -87 77t87 77q89 0 89 -77z" />
    <glyph glyph-name="Amacron" unicode="&#x100;" horiz-adv-x="749" 
d="M537 0l-49 156h-237l-48 -156h-195l249 712h234l250 -712h-204zM369 546l-75 -241h150zM206 780v120h335v-120h-335z" />
    <glyph glyph-name="amacron" unicode="&#x101;" horiz-adv-x="576" 
d="M206 178v-11q0 -24 14.5 -35t48.5 -11h84v50q0 30 -14.5 42t-55.5 12h-12q-37 0 -51 -10.5t-14 -36.5zM533 329v-217q0 -62 -28 -87t-92 -25h-188q-109 0 -153.5 40.5t-44.5 117.5v17q0 81 48.5 120t150.5 39q82 0 128 -24v10q0 40 -17 56.5t-69 16.5q-136 0 -195 -2
l26 135q78 2 185 2q129 0 189 -45.5t60 -153.5zM129 599v121h335v-121h-335z" />
    <glyph glyph-name="Abreve" unicode="&#x102;" horiz-adv-x="749" 
d="M537 0l-49 156h-237l-48 -156h-195l249 712h234l250 -712h-204zM369 546l-75 -241h150zM374 768q-94 0 -138.5 36.5t-44.5 119.5h129q2 -35 14 -49t40 -14q27 0 39.5 14t14.5 49h129q0 -83 -44.5 -119.5t-138.5 -36.5z" />
    <glyph glyph-name="abreve" unicode="&#x103;" horiz-adv-x="576" 
d="M206 178v-11q0 -24 14.5 -35t48.5 -11h84v50q0 30 -14.5 42t-55.5 12h-12q-37 0 -51 -10.5t-14 -36.5zM533 329v-217q0 -62 -28 -87t-92 -25h-188q-109 0 -153.5 40.5t-44.5 117.5v17q0 81 48.5 120t150.5 39q82 0 128 -24v10q0 40 -17 56.5t-69 16.5q-136 0 -195 -2
l26 135q78 2 185 2q129 0 189 -45.5t60 -153.5zM291 578q-96 0 -139 37t-43 110h132q2 -30 13 -41.5t37 -11.5t37 11.5t13 41.5h132q0 -74 -43 -110.5t-139 -36.5z" />
    <glyph glyph-name="Aogonek" unicode="&#x104;" horiz-adv-x="749" 
d="M257 712h234l250 -712q-72 -44 -72 -80q0 -12 8.5 -17t30.5 -5h33l-23 -121h-76q-64 0 -92.5 21t-28.5 64q0 76 89 138h-73l-49 156h-237l-48 -156h-195zM369 546l-75 -241h150z" />
    <glyph glyph-name="aogonek" unicode="&#x105;" horiz-adv-x="576" 
d="M533 329v-217q0 -64 -28 -88l-5 -5q-55 -49 -55 -99q0 -12 8.5 -17t30.5 -5h32l-22 -121h-77q-121 0 -121 85q0 74 69 138h-140q-109 0 -153.5 40.5t-44.5 117.5v17q0 81 48.5 120t150.5 39q82 0 128 -24v10q0 40 -17 56.5t-69 16.5q-151 0 -195 -2l26 135q78 2 185 2
q129 0 189 -45.5t60 -153.5zM206 178v-11q0 -24 14.5 -35t48.5 -11h84v50q0 30 -14.5 42t-55.5 12h-12q-37 0 -51 -10.5t-14 -36.5z" />
    <glyph glyph-name="Cacute" unicode="&#x106;" horiz-adv-x="598" 
d="M241 401v-90q0 -90 28 -119.5t116 -29.5q116 0 187 2l-30 -164q-60 -2 -170 -2q-183 0 -257.5 69t-74.5 245v89q0 171 75.5 242t255.5 71q122 0 195 -2l-30 -164q-43 2 -152 2q-88 0 -115.5 -29t-27.5 -120zM360 912h197l-144 -140h-167z" />
    <glyph glyph-name="cacute" unicode="&#x107;" horiz-adv-x="494" 
d="M312 143q61 0 155 2l-27 -145q-43 -2 -135 -2q-151 0 -210 53.5t-59 184.5v54q0 129 60 183.5t206 54.5q102 0 163 -2l-27 -145q-60 2 -126 2q-53 0 -70 -18t-17 -75v-54q0 -57 17 -75t70 -18zM165 597l109 143h196l-137 -143h-168z" />
    <glyph glyph-name="Ccircumflex" unicode="&#x108;" horiz-adv-x="598" 
d="M241 401v-90q0 -90 28 -119.5t116 -29.5q116 0 187 2l-30 -164q-60 -2 -170 -2q-183 0 -257.5 69t-74.5 245v89q0 171 75.5 242t255.5 71q122 0 195 -2l-30 -164q-43 2 -152 2q-88 0 -115.5 -29t-27.5 -120zM403 772l-58 63l-58 -63h-161l125 140h188l125 -140h-161z" />
    <glyph glyph-name="ccircumflex" unicode="&#x109;" horiz-adv-x="494" 
d="M312 143q61 0 155 2l-27 -145q-43 -2 -135 -2q-151 0 -210 53.5t-59 184.5v54q0 129 60 183.5t206 54.5q102 0 163 -2l-27 -145q-60 2 -126 2q-53 0 -70 -18t-17 -75v-54q0 -57 17 -75t70 -18zM182 743h178l116 -146h-153l-54 66l-52 -66h-153z" />
    <glyph glyph-name="Cdotaccent" unicode="&#x10a;" horiz-adv-x="598" 
d="M241 401v-90q0 -90 28 -119.5t116 -29.5q116 0 187 2l-30 -164q-60 -2 -170 -2q-183 0 -257.5 69t-74.5 245v89q0 171 75.5 242t255.5 71q122 0 195 -2l-30 -164q-43 2 -152 2q-88 0 -115.5 -29t-27.5 -120zM457 843q0 -44 -21.5 -63t-81.5 -19q-59 0 -81 19t-22 63
t22 63.5t81 19.5t81 -19.5t22 -63.5z" />
    <glyph glyph-name="cdotaccent" unicode="&#x10b;" horiz-adv-x="494" 
d="M312 143q61 0 155 2l-27 -145q-43 -2 -135 -2q-151 0 -210 53.5t-59 184.5v54q0 129 60 183.5t206 54.5q102 0 163 -2l-27 -145q-60 2 -126 2q-53 0 -70 -18t-17 -75v-54q0 -57 17 -75t70 -18zM380 666q0 -44 -21.5 -63t-81.5 -19q-59 0 -81 19t-22 63t22 63.5t81 19.5
t81 -19.5t22 -63.5z" />
    <glyph glyph-name="Ccaron" unicode="&#x10c;" horiz-adv-x="598" 
d="M241 401v-90q0 -90 28 -119.5t116 -29.5q116 0 187 2l-30 -164q-60 -2 -170 -2q-183 0 -257.5 69t-74.5 245v89q0 171 75.5 242t255.5 71q122 0 195 -2l-30 -164q-43 2 -152 2q-88 0 -115.5 -29t-27.5 -120zM293 912l58 -63l58 63h161l-125 -140h-188l-125 140h161z" />
    <glyph glyph-name="ccaron" unicode="&#x10d;" horiz-adv-x="494" 
d="M312 143q61 0 155 2l-27 -145q-43 -2 -135 -2q-151 0 -210 53.5t-59 184.5v54q0 129 60 183.5t206 54.5q102 0 163 -2l-27 -145q-60 2 -126 2q-53 0 -70 -18t-17 -75v-54q0 -57 17 -75t70 -18zM362 597h-178l-116 146h153l54 -66l52 66h153z" />
    <glyph glyph-name="Dcaron" unicode="&#x10e;" horiz-adv-x="721" 
d="M50 0v712h312q94 0 156 -18.5t98 -58.5t50.5 -96t14.5 -138v-89q0 -159 -69.5 -235.5t-244.5 -76.5h-317zM241 548v-384h101q79 0 108.5 30.5t29.5 119.5v85q0 88 -29.5 118.5t-108.5 30.5h-101zM289 912l58 -63l58 63h161l-125 -140h-188l-125 140h161z" />
    <glyph glyph-name="dcaron" unicode="&#x10f;" horiz-adv-x="742" 
d="M302 145h77v162q0 55 -16 72.5t-62 17.5q-45 0 -60.5 -19.5t-15.5 -79.5v-52q0 -62 15.5 -81.5t61.5 -19.5zM446 0h-146q-152 0 -208 52t-56 189v49q0 138 56.5 195t172.5 57q73 0 114 -26v227h186v-631q0 -63 -26.5 -87.5t-92.5 -24.5zM605 743h152l-38 -196h-119z" />
    <glyph glyph-name="Dcroat" unicode="&#x110;" horiz-adv-x="754" 
d="M83 0v295h-68v130h68v287h312q94 0 156 -18.5t98 -58.5t50.5 -96t14.5 -138v-89q0 -159 -69.5 -235.5t-244.5 -76.5h-317zM274 548v-123h121v-130h-121v-131h101q79 0 108.5 30.5t29.5 119.5v85q0 88 -29.5 118.5t-108.5 30.5h-101z" />
    <glyph glyph-name="dslash" unicode="&#x111;" horiz-adv-x="608" 
d="M226 681h153v62h186v-62h48v-102h-48v-467q0 -63 -26.5 -87.5t-92.5 -24.5h-146q-152 0 -208 52t-56 189v43q0 138 56.5 195t172.5 57q73 0 114 -26v69h-153v102zM302 145h77v156q0 55 -16 72.5t-62 17.5q-45 0 -60.5 -19.5t-15.5 -79.5v-46q0 -62 15.5 -81.5t61.5 -19.5
z" />
    <glyph glyph-name="Emacron" unicode="&#x112;" horiz-adv-x="613" 
d="M50 712h537l-29 -154h-320v-120h313l-29 -154h-284v-130h355l-29 -154h-514v712zM143 780v120h335v-120h-335z" />
    <glyph glyph-name="emacron" unicode="&#x113;" horiz-adv-x="563" 
d="M436 206h-220q1 -42 20 -56.5t71 -14.5q159 0 198 2l-25 -137q-120 -2 -192 -2q-139 0 -195.5 55t-56.5 183v55q0 132 59.5 191.5t195.5 59.5q125 0 183 -49.5t58 -152.5v-22q0 -64 -19.5 -88t-76.5 -24zM291 411q-43 0 -59 -18t-16 -71h150q-1 53 -16.5 71t-58.5 18z
M115 599v121h335v-121h-335z" />
    <glyph glyph-name="Ebreve" unicode="&#x114;" horiz-adv-x="613" 
d="M50 712h537l-29 -154h-320v-120h313l-29 -154h-284v-130h355l-29 -154h-514v712zM324 768q-94 0 -138.5 36.5t-44.5 119.5h129q2 -35 14 -49t40 -14q27 0 39.5 14t14.5 49h129q0 -83 -44.5 -119.5t-138.5 -36.5z" />
    <glyph glyph-name="ebreve" unicode="&#x115;" horiz-adv-x="563" 
d="M436 206h-220q1 -42 20 -56.5t71 -14.5q159 0 198 2l-25 -137q-120 -2 -192 -2q-139 0 -195.5 55t-56.5 183v55q0 132 59.5 191.5t195.5 59.5q125 0 183 -49.5t58 -152.5v-22q0 -64 -19.5 -88t-76.5 -24zM291 411q-43 0 -59 -18t-16 -71h150q-1 53 -16.5 71t-58.5 18z
M284 578q-96 0 -139 37t-43 110h132q2 -30 13 -41.5t37 -11.5t37 11.5t13 41.5h132q0 -74 -43 -110.5t-139 -36.5z" />
    <glyph glyph-name="Edotaccent" unicode="&#x116;" horiz-adv-x="613" 
d="M50 712h537l-29 -154h-320v-120h313l-29 -154h-284v-130h355l-29 -154h-514v712zM419 843q0 -44 -21.5 -63t-81.5 -19q-59 0 -81 19t-22 63t22 63.5t81 19.5t81 -19.5t22 -63.5z" />
    <glyph glyph-name="edotaccent" unicode="&#x117;" horiz-adv-x="563" 
d="M436 206h-220q1 -42 20 -56.5t71 -14.5q159 0 198 2l-25 -137q-120 -2 -192 -2q-139 0 -195.5 55t-56.5 183v55q0 132 59.5 191.5t195.5 59.5q125 0 183 -49.5t58 -152.5v-22q0 -64 -19.5 -88t-76.5 -24zM291 411q-43 0 -59 -18t-16 -71h150q-1 53 -16.5 71t-58.5 18z
M388 666q0 -44 -21.5 -63t-81.5 -19q-59 0 -81 19t-22 63t22 63.5t81 19.5t81 -19.5t22 -63.5z" />
    <glyph glyph-name="Eogonek" unicode="&#x118;" horiz-adv-x="613" 
d="M564 -102l-23 -121h-76q-64 0 -92.5 21t-28.5 64q0 76 89 138h-383v712h537l-29 -154h-320v-120h313l-29 -154h-284v-130h355l-29 -154q-72 -44 -72 -80q0 -12 8.5 -17t30.5 -5h33z" />
    <glyph glyph-name="eogonek" unicode="&#x119;" horiz-adv-x="563" 
d="M505 137l-25 -137q-72 -44 -72 -80q0 -12 8.5 -17t30.5 -5h32l-22 -121h-77q-121 0 -121 85q0 73 87 136h-58q-139 0 -195.5 55t-56.5 183v55q0 132 59.5 191.5t195.5 59.5q125 0 183 -49.5t58 -152.5v-22q0 -64 -19.5 -88t-76.5 -24h-220q1 -42 20 -56.5t71 -14.5
q153 0 198 2zM291 411q-43 0 -59 -18t-16 -71h150q-1 53 -16.5 71t-58.5 18z" />
    <glyph glyph-name="Ecaron" unicode="&#x11a;" horiz-adv-x="613" 
d="M50 712h537l-29 -154h-320v-120h313l-29 -154h-284v-130h355l-29 -154h-514v712zM263 912l58 -63l58 63h161l-125 -140h-188l-125 140h161z" />
    <glyph glyph-name="ecaron" unicode="&#x11b;" horiz-adv-x="563" 
d="M436 206h-220q1 -42 20 -56.5t71 -14.5q159 0 198 2l-25 -137q-120 -2 -192 -2q-139 0 -195.5 55t-56.5 183v55q0 132 59.5 191.5t195.5 59.5q125 0 183 -49.5t58 -152.5v-22q0 -64 -19.5 -88t-76.5 -24zM291 411q-43 0 -59 -18t-16 -71h150q-1 53 -16.5 71t-58.5 18z
M379 597h-178l-116 146h153l54 -66l52 66h153z" />
    <glyph glyph-name="Gcircumflex" unicode="&#x11c;" horiz-adv-x="686" 
d="M533 0h-154q-189 0 -264 68t-75 240v97q0 167 79.5 238t278.5 71q171 0 234 -2l-29 -164q-89 2 -217 2q-88 0 -116.5 -27.5t-28.5 -117.5v-96q0 -89 27 -117t106 -28h89v103h-102l28 147h262v-302q0 -61 -27.5 -86.5t-90.5 -25.5zM434 772l-58 63l-58 -63h-161l125 140
h188l125 -140h-161z" />
    <glyph glyph-name="gcircumflex" unicode="&#x11d;" horiz-adv-x="607" 
d="M301 168q45 0 61 16.5t16 66.5v56q0 58 -14.5 75.5t-62.5 17.5q-47 0 -61.5 -17.5t-14.5 -75.5v-46q0 -57 14.5 -75t61.5 -18zM378 47v5q-44 -25 -118 -25q-113 0 -168.5 54t-55.5 184v40q0 127 61.5 182t204.5 55q145 0 203.5 -55t58.5 -172v-273q0 -117 -59.5 -168
t-207.5 -51q-122 0 -212 2l26 139q75 -2 169 -2q55 0 76.5 18t21.5 67zM217 743h178l116 -146h-153l-54 66l-52 -66h-153z" />
    <glyph glyph-name="Gbreve" unicode="&#x11e;" horiz-adv-x="686" 
d="M533 0h-154q-189 0 -264 68t-75 240v97q0 167 79.5 238t278.5 71q171 0 234 -2l-29 -164q-89 2 -217 2q-88 0 -116.5 -27.5t-28.5 -117.5v-96q0 -89 27 -117t106 -28h89v103h-102l28 147h262v-302q0 -61 -27.5 -86.5t-90.5 -25.5zM371 768q-94 0 -138.5 36.5t-44.5 119.5
h129q2 -35 14 -49t40 -14q27 0 39.5 14t14.5 49h129q0 -83 -44.5 -119.5t-138.5 -36.5z" />
    <glyph glyph-name="gbreve" unicode="&#x11f;" horiz-adv-x="607" 
d="M301 168q45 0 61 16.5t16 66.5v56q0 58 -14.5 75.5t-62.5 17.5q-47 0 -61.5 -17.5t-14.5 -75.5v-46q0 -57 14.5 -75t61.5 -18zM378 47v5q-44 -25 -118 -25q-113 0 -168.5 54t-55.5 184v40q0 127 61.5 182t204.5 55q145 0 203.5 -55t58.5 -172v-273q0 -117 -59.5 -168
t-207.5 -51q-122 0 -212 2l26 139q75 -2 169 -2q55 0 76.5 18t21.5 67zM296 578q-96 0 -139 37t-43 110h132q2 -30 13 -41.5t37 -11.5t37 11.5t13 41.5h132q0 -74 -43 -110.5t-139 -36.5z" />
    <glyph glyph-name="Gdotaccent" unicode="&#x120;" horiz-adv-x="686" 
d="M533 0h-154q-189 0 -264 68t-75 240v97q0 167 79.5 238t278.5 71q171 0 234 -2l-29 -164q-89 2 -217 2q-88 0 -116.5 -27.5t-28.5 -117.5v-96q0 -89 27 -117t106 -28h89v103h-102l28 147h262v-302q0 -61 -27.5 -86.5t-90.5 -25.5zM478 843q0 -44 -21.5 -63t-81.5 -19
q-59 0 -81 19t-22 63t22 63.5t81 19.5t81 -19.5t22 -63.5z" />
    <glyph glyph-name="gdotaccent" unicode="&#x121;" horiz-adv-x="607" 
d="M301 168q45 0 61 16.5t16 66.5v56q0 58 -14.5 75.5t-62.5 17.5q-47 0 -61.5 -17.5t-14.5 -75.5v-46q0 -57 14.5 -75t61.5 -18zM378 47v5q-44 -25 -118 -25q-113 0 -168.5 54t-55.5 184v40q0 127 61.5 182t204.5 55q145 0 203.5 -55t58.5 -172v-273q0 -117 -59.5 -168
t-207.5 -51q-122 0 -212 2l26 139q75 -2 169 -2q55 0 76.5 18t21.5 67zM407 666q0 -44 -21.5 -63t-81.5 -19q-59 0 -81 19t-22 63t22 63.5t81 19.5t81 -19.5t22 -63.5z" />
    <glyph glyph-name="Gcommaaccent" unicode="&#x122;" horiz-adv-x="686" 
d="M533 0h-154q-189 0 -264 68t-75 240v97q0 167 79.5 238t278.5 71q171 0 234 -2l-29 -164q-89 2 -217 2q-88 0 -116.5 -27.5t-28.5 -117.5v-96q0 -89 27 -117t106 -28h89v103h-102l28 147h262v-302q0 -61 -27.5 -86.5t-90.5 -25.5zM400 -275h-117l36 94q-34 13 -34 58
q0 70 90 70q88 0 88 -69q0 -32 -22 -75z" />
    <glyph glyph-name="gcommaaccent" unicode="&#x123;" horiz-adv-x="607" 
d="M301 168q45 0 61 16.5t16 66.5v56q0 58 -14.5 75.5t-62.5 17.5q-47 0 -61.5 -17.5t-14.5 -75.5v-46q0 -57 14.5 -75t61.5 -18zM378 47v5q-44 -25 -118 -25q-113 0 -168.5 54t-55.5 184v40q0 127 61.5 182t204.5 55q145 0 203.5 -55t58.5 -172v-273q0 -117 -59.5 -168
t-207.5 -51q-122 0 -212 2l26 139q75 -2 169 -2q55 0 76.5 18t21.5 67zM270 806h117l-36 -92q34 -13 34 -60q0 -70 -90 -70q-89 0 -89 69q0 34 23 76z" />
    <glyph glyph-name="Hcircumflex" unicode="&#x124;" horiz-adv-x="731" 
d="M486 712h195v-712h-195v273h-241v-273h-195v712h195v-268h241v268zM423 772l-58 63l-58 -63h-161l125 140h188l125 -140h-161z" />
    <glyph glyph-name="hcircumflex" unicode="&#x125;" horiz-adv-x="598" 
d="M230 0h-187v743h187v-231q43 30 126 30q199 0 199 -181v-361h-187v323q0 40 -13 54.5t-54 14.5q-42 0 -56.5 -16.5t-14.5 -61.5v-314zM316 772l-60 54l-60 -54h-152l131 125h164l129 -125h-152z" />
    <glyph glyph-name="Hbar" unicode="&#x126;" horiz-adv-x="801" 
d="M521 712h195v-73h70v-128h-70v-511h-195v268h-241v-268h-195v511h-70v128h70v73h195v-73h241v73zM280 439h241v72h-241v-72z" />
    <glyph glyph-name="hbar" unicode="&#x127;" horiz-adv-x="598" 
d="M230 0h-187v579h-48v102h48v62h187v-62h151v-102h-151v-73q43 30 126 30q199 0 199 -181v-355h-187v317q0 40 -13 54.5t-54 14.5q-42 0 -56.5 -16.5t-14.5 -61.5v-308z" />
    <glyph glyph-name="Itilde" unicode="&#x128;" horiz-adv-x="295" 
d="M50 712h195v-712h-195v712zM146 785l-9 4q-40 17 -55 17q-13 0 -19.5 -6.5t-6.5 -27.5v-9h-107v9q0 81 26.5 116t79.5 35q43 0 95 -25l9 -4q38 -17 55 -17q13 0 19 7t7 27v8h107v-8q0 -80 -26.5 -115.5t-79.5 -35.5q-37 0 -95 25z" />
    <glyph glyph-name="itilde" unicode="&#x129;" horiz-adv-x="273" 
d="M43 0v526h187v-526h-187zM135 612l-14 7q-27 15 -46 15q-27 0 -27 -34v-8h-106v8q0 79 26.5 113.5t80.5 34.5q41 0 91 -25l13 -6q29 -15 47 -15q27 0 27 34v7h106v-8q0 -79 -27 -113t-81 -34q-40 0 -90 24z" />
    <glyph glyph-name="Imacron" unicode="&#x12a;" horiz-adv-x="295" 
d="M50 712h195v-712h-195v712zM-20 780v120h335v-120h-335z" />
    <glyph glyph-name="imacron" unicode="&#x12b;" horiz-adv-x="273" 
d="M43 0v526h187v-526h-187zM-30 599v121h335v-121h-335z" />
    <glyph glyph-name="Ibreve" unicode="&#x12c;" horiz-adv-x="295" 
d="M50 712h195v-712h-195v712zM148 768q-94 0 -138.5 36.5t-44.5 119.5h129q2 -35 14 -49t40 -14q27 0 39.5 14t14.5 49h129q0 -83 -44.5 -119.5t-138.5 -36.5z" />
    <glyph glyph-name="ibreve" unicode="&#x12d;" horiz-adv-x="273" 
d="M43 0v526h187v-526h-187zM137 578q-96 0 -139 37t-43 110h132q2 -30 13 -41.5t37 -11.5t37 11.5t13 41.5h132q0 -74 -43 -110.5t-139 -36.5z" />
    <glyph glyph-name="Iogonek" unicode="&#x12e;" horiz-adv-x="295" 
d="M245 -102l-23 -121h-76q-64 0 -92.5 21t-28.5 64q0 76 89 138h-64v712h195v-712q-72 -44 -72 -80q0 -12 8.5 -17t30.5 -5h33z" />
    <glyph glyph-name="iogonek" unicode="&#x12f;" horiz-adv-x="273" 
d="M43 526h187v-526q-72 -44 -72 -80q0 -12 8.5 -17t30.5 -5h32l-22 -121h-77q-121 0 -121 85q0 76 90 138h-56v526zM239 666q0 -44 -21.5 -63t-81.5 -19q-59 0 -81 19t-22 63t22 63.5t81 19.5t81 -19.5t22 -63.5z" />
    <glyph glyph-name="Idot" unicode="&#x130;" horiz-adv-x="295" 
d="M50 712h195v-712h-195v712zM251 843q0 -44 -21.5 -63t-81.5 -19q-59 0 -81 19t-22 63t22 63.5t81 19.5t81 -19.5t22 -63.5z" />
    <glyph glyph-name="dotlessi" unicode="&#x131;" horiz-adv-x="273" 
d="M43 0v526h187v-526h-187z" />
    <glyph glyph-name="IJ" unicode="&#x132;" horiz-adv-x="777" 
d="M50 712h195v-712h-195v712zM534 272v440h195v-440q0 -150 -55 -212t-185 -62q-142 0 -185 2l30 164q62 -2 97 -2q62 0 82.5 21t20.5 89z" />
    <glyph glyph-name="ij" unicode="&#x133;" horiz-adv-x="546" 
d="M43 0v526h187v-526h-187zM239 666q0 -44 -21.5 -63t-81.5 -19q-59 0 -81 19t-22 63t22 63.5t81 19.5t81 -19.5t22 -63.5zM512 666q0 -44 -21.5 -63t-81.5 -19q-59 0 -81 19t-22 63t22 63.5t81 19.5t81 -19.5t22 -63.5zM316 32v494h187v-494q0 -120 -47 -164.5t-159 -44.5
q-84 0 -124 2l25 149q16 -1 51 -1q38 0 52.5 12.5t14.5 46.5z" />
    <glyph glyph-name="Jcircumflex" unicode="&#x134;" horiz-adv-x="482" 
d="M239 272v440h195v-440q0 -150 -55 -212t-185 -62q-142 0 -185 2l30 164q62 -2 97 -2q62 0 82.5 21t20.5 89zM390 772l-58 63l-58 -63h-161l125 140h188l125 -140h-161z" />
    <glyph glyph-name="jcircumflex" unicode="&#x135;" horiz-adv-x="273" 
d="M43 32v494h187v-494q0 -120 -47 -164.5t-159 -44.5q-84 0 -124 2l25 149q16 -1 51 -1q38 0 52.5 12.5t14.5 46.5zM48 743h178l116 -146h-153l-54 66l-52 -66h-153z" />
    <glyph glyph-name="Kcommaaccent" unicode="&#x136;" horiz-adv-x="711" 
d="M243 712v-280l213 280h223l-268 -338l300 -374h-246l-222 287v-287h-193v712h193zM363 -275h-117l36 94q-34 13 -34 58q0 70 90 70q88 0 88 -69q0 -32 -22 -75z" />
    <glyph glyph-name="kcommaaccent" unicode="&#x137;" horiz-adv-x="606" 
d="M229 743v-400l152 183h212l-211 -237l229 -289h-217l-165 217v-217h-186v743h186zM209 -123q0 70 90 70q89 0 89 -69q0 -32 -22 -75l-42 -78h-117l36 94q-34 15 -34 58z" />
    <glyph glyph-name="kgreenlandic" unicode="&#x138;" horiz-adv-x="606" 
d="M229 526v-191l155 191h211l-211 -243l227 -283h-217l-165 210v-210h-186v526h186z" />
    <glyph glyph-name="Lacute" unicode="&#x139;" horiz-adv-x="577" 
d="M50 712h194v-548h324l-32 -164h-486v712zM180 912h197l-144 -140h-167z" />
    <glyph glyph-name="lacute" unicode="&#x13a;" horiz-adv-x="273" 
d="M43 0v743h187v-743h-187zM149 895h200l-146 -123h-172z" />
    <glyph glyph-name="Lcommaaccent" unicode="&#x13b;" horiz-adv-x="577" 
d="M50 712h194v-548h324l-32 -164h-486v712zM328 -275h-117l36 94q-34 13 -34 58q0 70 90 70q88 0 88 -69q0 -32 -22 -75z" />
    <glyph glyph-name="lcommaaccent" unicode="&#x13c;" horiz-adv-x="273" 
d="M43 0v743h187v-743h-187zM49 -123q0 70 90 70q89 0 89 -69q0 -32 -22 -75l-42 -78h-117l36 94q-34 15 -34 58z" />
    <glyph glyph-name="Lcaron" unicode="&#x13d;" horiz-adv-x="577" 
d="M50 712h194v-548h324l-32 -164h-486v712zM310 763h152l-38 -196h-119z" />
    <glyph glyph-name="lcaron" unicode="&#x13e;" horiz-adv-x="407" 
d="M43 0v743h187v-743h-187zM270 743h152l-38 -196h-119z" />
    <glyph glyph-name="Ldot" unicode="&#x13f;" horiz-adv-x="577" 
d="M50 712h194v-548h324l-32 -164h-486v712zM525 415q0 -48 -24 -70.5t-77 -22.5t-76.5 22.5t-23.5 70.5t23.5 70.5t76.5 22.5t77 -22.5t24 -70.5z" />
    <glyph glyph-name="ldot" unicode="&#x140;" horiz-adv-x="487" 
d="M43 0v743h187v-743h-187zM482 374q0 -48 -24 -70.5t-77 -22.5t-76.5 22.5t-23.5 70.5t23.5 70.5t76.5 22.5t77 -22.5t24 -70.5z" />
    <glyph glyph-name="Lslash" unicode="&#x141;" horiz-adv-x="611" 
d="M84 712h194v-232l171 94v-153l-171 -94v-163h324l-32 -164h-486v221l-69 -38v153l69 38v338z" />
    <glyph glyph-name="lslash" unicode="&#x142;" horiz-adv-x="329" 
d="M71 0v262l-66 -39v145l66 39v336h187v-225l66 40v-145l-66 -40v-373h-187z" />
    <glyph glyph-name="Nacute" unicode="&#x143;" horiz-adv-x="730" 
d="M50 712h156l289 -406v406h185v-712h-159l-286 399v-399h-185v712zM372 912h197l-144 -140h-167z" />
    <glyph glyph-name="nacute" unicode="&#x144;" horiz-adv-x="598" 
d="M230 0h-187v330q0 119 57.5 165.5t198.5 46.5t198.5 -46.5t57.5 -165.5v-330h-187v323q0 38 -14 53.5t-55 15.5q-42 0 -55.5 -15t-13.5 -54v-323zM186 597l109 143h196l-137 -143h-168z" />
    <glyph glyph-name="Ncommaaccent" unicode="&#x145;" horiz-adv-x="730" 
d="M50 712h156l289 -406v406h185v-712h-159l-286 399v-399h-185v712zM395 -275h-117l36 94q-34 13 -34 58q0 70 90 70q88 0 88 -69q0 -32 -22 -75z" />
    <glyph glyph-name="ncommaaccent" unicode="&#x146;" horiz-adv-x="598" 
d="M230 0h-187v330q0 119 57.5 165.5t198.5 46.5t198.5 -46.5t57.5 -165.5v-330h-187v323q0 38 -14 53.5t-55 15.5q-42 0 -55.5 -15t-13.5 -54v-323zM210 -123q0 70 90 70q89 0 89 -69q0 -32 -22 -75l-42 -78h-117l36 94q-34 15 -34 58z" />
    <glyph glyph-name="Ncaron" unicode="&#x147;" horiz-adv-x="730" 
d="M50 712h156l289 -406v406h185v-712h-159l-286 399v-399h-185v712zM309 912l58 -63l58 63h161l-125 -140h-188l-125 140h161z" />
    <glyph glyph-name="ncaron" unicode="&#x148;" horiz-adv-x="598" 
d="M230 0h-187v330q0 119 57.5 165.5t198.5 46.5t198.5 -46.5t57.5 -165.5v-330h-187v323q0 38 -14 53.5t-55 15.5q-42 0 -55.5 -15t-13.5 -54v-323zM387 597h-178l-116 146h153l54 -66l52 66h153z" />
    <glyph glyph-name="napostrophe" unicode="&#x149;" horiz-adv-x="730" 
d="M362 0h-187v330q0 119 57.5 165.5t198.5 46.5t198.5 -46.5t57.5 -165.5v-330h-187v323q0 38 -14 53.5t-55 15.5q-42 0 -55.5 -15t-13.5 -54v-323zM118 752q87 0 87 -78q0 -9 -2 -20t-4 -18.5t-8 -21.5l-9 -21t-12 -25.5t-13 -26.5l-39 -80h-110l51 145q-30 24 -30 66
q0 80 89 80z" />
    <glyph glyph-name="Eng" unicode="&#x14a;" horiz-adv-x="730" 
d="M235 402v-402h-185v712h156l289 -407v407h185v-623q0 -147 -56 -210t-186 -63q-102 0 -147 2l31 164q34 -2 80 -2q45 0 66 12.5t25 43.5z" />
    <glyph glyph-name="eng" unicode="&#x14b;" horiz-adv-x="598" 
d="M230 0h-187v330q0 119 57.5 165.5t198.5 46.5t198.5 -46.5t57.5 -165.5v-309q0 -113 -50 -155.5t-156 -42.5q-84 0 -124 2l25 149q16 -1 51 -1q38 0 52.5 12.5t14.5 46.5v291q0 38 -14 53.5t-55 15.5q-42 0 -55.5 -15t-13.5 -54v-323z" />
    <glyph glyph-name="Omacron" unicode="&#x14c;" horiz-adv-x="748" 
d="M374 145q81 0 106.5 30t25.5 128v108q0 97 -25.5 127.5t-106.5 30.5t-107 -30.5t-26 -127.5v-108q0 -97 26 -127.5t107 -30.5zM374 -18q-185 0 -259.5 73.5t-74.5 246.5v110q0 171 74.5 245.5t259.5 74.5q184 0 259 -74t75 -246v-110q0 -171 -74.5 -245.5t-259.5 -74.5z
M207 780v120h335v-120h-335z" />
    <glyph glyph-name="omacron" unicode="&#x14d;" horiz-adv-x="604" 
d="M302 542q147 0 206.5 -55t59.5 -197v-54q0 -141 -59.5 -196.5t-206.5 -55.5t-206.5 55.5t-59.5 196.5v54q0 142 59.5 197t206.5 55zM379 229v68q0 62 -15.5 81t-61.5 19t-61.5 -19t-15.5 -81v-68q0 -62 15.5 -81t61.5 -19t61.5 19t15.5 81zM135 599v121h335v-121h-335z
" />
    <glyph glyph-name="Obreve" unicode="&#x14e;" horiz-adv-x="748" 
d="M374 145q81 0 106.5 30t25.5 128v108q0 97 -25.5 127.5t-106.5 30.5t-107 -30.5t-26 -127.5v-108q0 -97 26 -127.5t107 -30.5zM374 -18q-185 0 -259.5 73.5t-74.5 246.5v110q0 171 74.5 245.5t259.5 74.5q184 0 259 -74t75 -246v-110q0 -171 -74.5 -245.5t-259.5 -74.5z
M374 768q-94 0 -138.5 36.5t-44.5 119.5h129q2 -35 14 -49t40 -14q27 0 39.5 14t14.5 49h129q0 -83 -44.5 -119.5t-138.5 -36.5z" />
    <glyph glyph-name="obreve" unicode="&#x14f;" horiz-adv-x="604" 
d="M302 542q147 0 206.5 -55t59.5 -197v-54q0 -141 -59.5 -196.5t-206.5 -55.5t-206.5 55.5t-59.5 196.5v54q0 142 59.5 197t206.5 55zM379 229v68q0 62 -15.5 81t-61.5 19t-61.5 -19t-15.5 -81v-68q0 -62 15.5 -81t61.5 -19t61.5 19t15.5 81zM302 578q-96 0 -139 37
t-43 110h132q2 -30 13 -41.5t37 -11.5t37 11.5t13 41.5h132q0 -74 -43 -110.5t-139 -36.5z" />
    <glyph glyph-name="Ohungarumlaut" unicode="&#x150;" horiz-adv-x="748" 
d="M374 145q81 0 106.5 30t25.5 128v108q0 97 -25.5 127.5t-106.5 30.5t-107 -30.5t-26 -127.5v-108q0 -97 26 -127.5t107 -30.5zM374 -18q-185 0 -259.5 73.5t-74.5 246.5v110q0 171 74.5 245.5t259.5 74.5q184 0 259 -74t75 -246v-110q0 -171 -74.5 -245.5t-259.5 -74.5z
M265 912h176l-131 -140h-148zM488 912h175l-131 -140h-147z" />
    <glyph glyph-name="ohungarumlaut" unicode="&#x151;" horiz-adv-x="604" 
d="M302 542q147 0 206.5 -55t59.5 -197v-54q0 -141 -59.5 -196.5t-206.5 -55.5t-206.5 55.5t-59.5 196.5v54q0 142 59.5 197t206.5 55zM379 229v68q0 62 -15.5 81t-61.5 19t-61.5 -19t-15.5 -81v-68q0 -62 15.5 -81t61.5 -19t61.5 19t15.5 81zM100 597l95 143h168l-121 -143
h-142zM314 597l96 143h168l-121 -143h-143z" />
    <glyph glyph-name="OE" unicode="&#x152;" horiz-adv-x="1027" 
d="M1007 154l-29 -154h-622q-180 0 -248 73.5t-68 238.5v88q0 77 14.5 132.5t49.5 97t96.5 62t151.5 20.5h649l-29 -154h-320v-120h313l-29 -154h-284v-130h355zM375 163h89v386h-89q-81 0 -107.5 -28.5t-26.5 -120.5v-90q0 -91 26.5 -119t107.5 -28z" />
    <glyph glyph-name="oe" unicode="&#x153;" horiz-adv-x="912" 
d="M302 129q48 0 62.5 19.5t14.5 81.5v66q0 62 -14.5 81.5t-62.5 19.5q-46 0 -61.5 -19t-15.5 -81v-68q0 -62 15.5 -81t61.5 -19zM632 -2q-104 0 -153 42q-52 -56 -183 -56q-142 0 -201 56.5t-59 196.5v53q0 140 59 196t201 56q127 0 181 -51q51 51 163 51q125 0 183 -49.5
t58 -152.5v-22q0 -64 -19.5 -88t-76.5 -24h-220q1 -42 20 -56.5t71 -14.5q153 0 198 2l-25 -137q-118 -2 -197 -2zM640 411q-43 0 -59 -18t-16 -71h150q-1 53 -16.5 71t-58.5 18z" />
    <glyph glyph-name="Racute" unicode="&#x154;" horiz-adv-x="668" 
d="M510 267l152 -267h-208l-117 232h-95v-232h-192v712h298q153 0 218 -52t65 -175v-24q0 -144 -121 -194zM439 467v8q-1 47 -22.5 64.5t-76.5 17.5h-98v-172h98q55 0 76.5 17.5t22.5 64.5zM328 912h197l-144 -140h-167z" />
    <glyph glyph-name="racute" unicode="&#x155;" horiz-adv-x="399" 
d="M230 0h-187v316q0 120 56.5 166.5t184.5 46.5q81 0 122 -2l-28 -150q-32 2 -74 2q-46 0 -60 -16t-14 -61v-302zM121 597l109 143h196l-137 -143h-168z" />
    <glyph glyph-name="Rcommaaccent" unicode="&#x156;" horiz-adv-x="668" 
d="M510 267l152 -267h-208l-117 232h-95v-232h-192v712h298q153 0 218 -52t65 -175v-24q0 -144 -121 -194zM439 467v8q-1 47 -22.5 64.5t-76.5 17.5h-98v-172h98q55 0 76.5 17.5t22.5 64.5zM368 -275h-117l36 94q-34 13 -34 58q0 70 90 70q88 0 88 -69q0 -32 -22 -75z" />
    <glyph glyph-name="rcommaaccent" unicode="&#x157;" horiz-adv-x="399" 
d="M230 0h-187v316q0 120 56.5 166.5t184.5 46.5q81 0 122 -2l-28 -150q-32 2 -74 2q-46 0 -60 -16t-14 -61v-302zM53 -123q0 70 90 70q89 0 89 -69q0 -32 -22 -75l-42 -78h-117l36 94q-34 15 -34 58z" />
    <glyph glyph-name="Rcaron" unicode="&#x158;" horiz-adv-x="668" 
d="M510 267l152 -267h-208l-117 232h-95v-232h-192v712h298q153 0 218 -52t65 -175v-24q0 -144 -121 -194zM439 467v8q-1 47 -22.5 64.5t-76.5 17.5h-98v-172h98q55 0 76.5 17.5t22.5 64.5zM266 912l58 -63l58 63h161l-125 -140h-188l-125 140h161z" />
    <glyph glyph-name="rcaron" unicode="&#x159;" horiz-adv-x="399" 
d="M230 0h-187v316q0 120 56.5 166.5t184.5 46.5q81 0 122 -2l-28 -150q-32 2 -74 2q-46 0 -60 -16t-14 -61v-302zM320 597h-178l-116 146h153l54 -66l52 66h153z" />
    <glyph glyph-name="Sacute" unicode="&#x15a;" horiz-adv-x="601" 
d="M22 489v17q0 103 64.5 155.5t209.5 52.5q183 0 264 -2l-28 -156q-218 2 -234 2q-47 0 -62.5 -10t-15.5 -39q0 -28 10.5 -38t47.5 -16l112 -20q107 -20 148 -67t41 -140v-17q0 -115 -64.5 -164t-225.5 -49q-176 0 -267 2l27 156q70 -2 242 -2q51 0 67.5 10t16.5 42
q0 30 -12 42t-50 18l-89 15q-119 21 -160.5 66.5t-41.5 141.5zM304 912h197l-144 -140h-167z" />
    <glyph glyph-name="sacute" unicode="&#x15b;" horiz-adv-x="530" 
d="M272 190l-90 7q-84 6 -118 46.5t-34 112.5v12q0 80 54.5 120t181.5 40q140 0 227 -2l-24 -132q-52 0 -100 0.5t-72.5 1t-36.5 0.5q-28 0 -38 -5t-10 -22q0 -15 8.5 -20.5t36.5 -7.5l77 -6q88 -7 128 -44t40 -107v-19q0 -89 -56.5 -128.5t-182.5 -39.5q-155 0 -239 3
l24 131q31 0 106.5 -1t107.5 -1q33 0 44 5.5t11 25.5q0 17 -8.5 22.5t-36.5 7.5zM155 597l109 143h196l-137 -143h-168z" />
    <glyph glyph-name="Scircumflex" unicode="&#x15c;" horiz-adv-x="601" 
d="M22 489v17q0 103 64.5 155.5t209.5 52.5q183 0 264 -2l-28 -156q-218 2 -234 2q-47 0 -62.5 -10t-15.5 -39q0 -28 10.5 -38t47.5 -16l112 -20q107 -20 148 -67t41 -140v-17q0 -115 -64.5 -164t-225.5 -49q-176 0 -267 2l27 156q70 -2 242 -2q51 0 67.5 10t16.5 42
q0 30 -12 42t-50 18l-89 15q-119 21 -160.5 66.5t-41.5 141.5zM365 772l-58 63l-58 -63h-161l125 140h188l125 -140h-161z" />
    <glyph glyph-name="scircumflex" unicode="&#x15d;" horiz-adv-x="530" 
d="M272 190l-90 7q-84 6 -118 46.5t-34 112.5v12q0 80 54.5 120t181.5 40q140 0 227 -2l-24 -132q-52 0 -100 0.5t-72.5 1t-36.5 0.5q-28 0 -38 -5t-10 -22q0 -15 8.5 -20.5t36.5 -7.5l77 -6q88 -7 128 -44t40 -107v-19q0 -89 -56.5 -128.5t-182.5 -39.5q-155 0 -239 3
l24 131q31 0 106.5 -1t107.5 -1q33 0 44 5.5t11 25.5q0 17 -8.5 22.5t-36.5 7.5zM173 743h178l116 -146h-153l-54 66l-52 -66h-153z" />
    <glyph glyph-name="Scedilla" unicode="&#x15e;" horiz-adv-x="601" 
d="M22 489v17q0 103 64.5 155.5t209.5 52.5q183 0 264 -2l-28 -156q-218 2 -234 2q-47 0 -62.5 -10t-15.5 -39q0 -28 10.5 -38t47.5 -16l112 -20q107 -20 148 -67t41 -140v-17q0 -115 -64.5 -164t-225.5 -49q-176 0 -267 2l27 156q70 -2 242 -2q51 0 67.5 10t16.5 42
q0 30 -12 42t-50 18l-89 15q-119 21 -160.5 66.5t-41.5 141.5zM262 -110q-35 0 -62 -1l17 75q23 2 86 2q67 0 93.5 -21.5t26.5 -73.5v-6q0 -58 -29.5 -81t-101.5 -23q-76 0 -124 3l17 83q54 -2 77 -2q19 0 25.5 4.5t6.5 18.5q0 13 -6.5 17.5t-25.5 4.5z" />
    <glyph glyph-name="scedilla" unicode="&#x15f;" horiz-adv-x="530" 
d="M272 190l-90 7q-84 6 -118 46.5t-34 112.5v12q0 80 54.5 120t181.5 40q140 0 227 -2l-24 -132q-52 0 -100 0.5t-72.5 1t-36.5 0.5q-28 0 -38 -5t-10 -22q0 -15 8.5 -20.5t36.5 -7.5l77 -6q88 -7 128 -44t40 -107v-19q0 -89 -56.5 -128.5t-182.5 -39.5q-155 0 -239 3
l24 131q31 0 106.5 -1t107.5 -1q33 0 44 5.5t11 25.5q0 17 -8.5 22.5t-36.5 7.5zM233 -132q0 13 -7 18.5t-25 5.5q-28 0 -55 -1l15 73q38 2 75 2q66 0 93.5 -21.5t27.5 -72.5v-7q0 -58 -29.5 -81t-102.5 -23q-72 0 -112 3l17 81q31 -1 71 -1q19 0 25.5 5t6.5 19z" />
    <glyph glyph-name="Scaron" unicode="&#x160;" horiz-adv-x="601" 
d="M22 489v17q0 103 64.5 155.5t209.5 52.5q183 0 264 -2l-28 -156q-218 2 -234 2q-47 0 -62.5 -10t-15.5 -39q0 -28 10.5 -38t47.5 -16l112 -20q107 -20 148 -67t41 -140v-17q0 -115 -64.5 -164t-225.5 -49q-176 0 -267 2l27 156q70 -2 242 -2q51 0 67.5 10t16.5 42
q0 30 -12 42t-50 18l-89 15q-119 21 -160.5 66.5t-41.5 141.5zM250 912l58 -63l58 63h161l-125 -140h-188l-125 140h161z" />
    <glyph glyph-name="scaron" unicode="&#x161;" horiz-adv-x="530" 
d="M272 190l-90 7q-84 6 -118 46.5t-34 112.5v12q0 80 54.5 120t181.5 40q140 0 227 -2l-24 -132q-52 0 -100 0.5t-72.5 1t-36.5 0.5q-28 0 -38 -5t-10 -22q0 -15 8.5 -20.5t36.5 -7.5l77 -6q88 -7 128 -44t40 -107v-19q0 -89 -56.5 -128.5t-182.5 -39.5q-155 0 -239 3
l24 131q31 0 106.5 -1t107.5 -1q33 0 44 5.5t11 25.5q0 17 -8.5 22.5t-36.5 7.5zM355 597h-178l-116 146h153l54 -66l52 66h153z" />
    <glyph glyph-name="Tcommaaccent" unicode="&#x162;" horiz-adv-x="679" 
d="M9 548l31 164h630l-31 -164h-202v-548h-194v548h-234zM298 -110q-35 0 -62 -1l17 75q23 2 86 2q67 0 93.5 -21.5t26.5 -73.5v-6q0 -58 -29.5 -81t-101.5 -23q-76 0 -124 3l17 83q54 -2 77 -2q19 0 25.5 4.5t6.5 18.5q0 13 -6.5 17.5t-25.5 4.5z" />
    <glyph glyph-name="tcommaaccent" unicode="&#x163;" horiz-adv-x="417" 
d="M407 526l-26 -142h-151v-164q0 -46 14.5 -61t60.5 -15q76 0 96 1l-27 -145q-20 -1 -101 -1q-140 0 -185 43t-45 173v431l187 25v-145h177zM205 -132q0 13 -7 18.5t-25 5.5q-28 0 -55 -1l15 73q38 2 75 2q66 0 93.5 -21.5t27.5 -72.5v-7q0 -58 -29.5 -81t-102.5 -23
q-72 0 -112 3l17 81q31 -1 71 -1q19 0 25.5 5t6.5 19z" />
    <glyph glyph-name="Tcaron" unicode="&#x164;" horiz-adv-x="679" 
d="M9 548l31 164h630l-31 -164h-202v-548h-194v548h-234zM283 912l58 -63l58 63h161l-125 -140h-188l-125 140h161z" />
    <glyph glyph-name="tcaron" unicode="&#x165;" horiz-adv-x="423" 
d="M407 526l-26 -142h-151v-164q0 -46 14.5 -61t60.5 -15q76 0 96 1l-27 -145q-20 -1 -101 -1q-140 0 -185 43t-45 173v431l187 25v-145h177zM278 743h152l-35 -169h-122z" />
    <glyph glyph-name="Tbar" unicode="&#x166;" horiz-adv-x="679" 
d="M9 548l31 164h630l-31 -164h-202v-150h134v-138h-134v-260h-194v260h-134v138h134v150h-234z" />
    <glyph glyph-name="tbar" unicode="&#x167;" horiz-adv-x="454" 
d="M65 218h-55v110h55v318l187 25v-145h177l-26 -142h-151v-56h147v-110h-147q0 -45 14 -59.5t61 -14.5q76 0 96 1l-27 -145q-20 -1 -101 -1q-140 0 -185 43.5t-45 175.5z" />
    <glyph glyph-name="Utilde" unicode="&#x168;" horiz-adv-x="716" 
d="M48 281v431h194v-432q0 -78 23.5 -106.5t92.5 -28.5t92.5 28.5t23.5 106.5v432h194v-431q0 -161 -69 -230t-241 -69t-241 69t-69 230zM356 785l-9 4q-40 17 -55 17q-13 0 -19.5 -6.5t-6.5 -27.5v-9h-107v9q0 81 26.5 116t79.5 35q43 0 95 -25l9 -4q38 -17 55 -17
q13 0 19 7t7 27v8h107v-8q0 -80 -26.5 -115.5t-79.5 -35.5q-37 0 -95 25z" />
    <glyph glyph-name="utilde" unicode="&#x169;" horiz-adv-x="597" 
d="M298 -16q-140 0 -197.5 46.5t-57.5 166.5v329h187v-323q0 -39 13.5 -54t54.5 -15t55 15.5t14 53.5v323h187v-329q0 -120 -58 -166.5t-198 -46.5zM296 612l-14 7q-27 15 -46 15q-27 0 -27 -34v-8h-106v8q0 79 26.5 113.5t80.5 34.5q41 0 91 -25l13 -6q29 -15 47 -15
q27 0 27 34v7h106v-8q0 -79 -27 -113t-81 -34q-40 0 -90 24z" />
    <glyph glyph-name="Umacron" unicode="&#x16a;" horiz-adv-x="716" 
d="M48 281v431h194v-432q0 -78 23.5 -106.5t92.5 -28.5t92.5 28.5t23.5 106.5v432h194v-431q0 -161 -69 -230t-241 -69t-241 69t-69 230zM191 780v120h335v-120h-335z" />
    <glyph glyph-name="umacron" unicode="&#x16b;" horiz-adv-x="597" 
d="M298 -16q-140 0 -197.5 46.5t-57.5 166.5v329h187v-323q0 -39 13.5 -54t54.5 -15t55 15.5t14 53.5v323h187v-329q0 -120 -58 -166.5t-198 -46.5zM130 599v121h335v-121h-335z" />
    <glyph glyph-name="Ubreve" unicode="&#x16c;" horiz-adv-x="716" 
d="M48 281v431h194v-432q0 -78 23.5 -106.5t92.5 -28.5t92.5 28.5t23.5 106.5v432h194v-431q0 -161 -69 -230t-241 -69t-241 69t-69 230zM358 768q-94 0 -138.5 36.5t-44.5 119.5h129q2 -35 14 -49t40 -14q27 0 39.5 14t14.5 49h129q0 -83 -44.5 -119.5t-138.5 -36.5z" />
    <glyph glyph-name="ubreve" unicode="&#x16d;" horiz-adv-x="597" 
d="M298 -16q-140 0 -197.5 46.5t-57.5 166.5v329h187v-323q0 -39 13.5 -54t54.5 -15t55 15.5t14 53.5v323h187v-329q0 -120 -58 -166.5t-198 -46.5zM298 578q-96 0 -139 37t-43 110h132q2 -30 13 -41.5t37 -11.5t37 11.5t13 41.5h132q0 -74 -43 -110.5t-139 -36.5z" />
    <glyph glyph-name="Uring" unicode="&#x16e;" horiz-adv-x="716" 
d="M48 281v431h194v-432q0 -78 23.5 -106.5t92.5 -28.5t92.5 28.5t23.5 106.5v432h194v-431q0 -161 -69 -230t-241 -69t-241 69t-69 230zM409 859q0 24 -13.5 38t-37.5 14t-37.5 -14t-13.5 -38t13.5 -38t37.5 -14t37.5 14t13.5 38zM211 859q0 65 38.5 100t108.5 35t109 -35
t39 -100t-39 -100t-109 -35t-108.5 35t-38.5 100z" />
    <glyph glyph-name="uring" unicode="&#x16f;" horiz-adv-x="597" 
d="M298 -16q-140 0 -197.5 46.5t-57.5 166.5v329h187v-323q0 -39 13.5 -54t54.5 -15t55 15.5t14 53.5v323h187v-329q0 -120 -58 -166.5t-198 -46.5zM161 693q0 60 36.5 92.5t100.5 32.5q65 0 101.5 -32.5t36.5 -92.5t-36.5 -92.5t-101.5 -32.5q-64 0 -100.5 32.5t-36.5 92.5
zM344 693q0 47 -46 47t-46 -47t46 -47t46 47z" />
    <glyph glyph-name="Uhungarumlaut" unicode="&#x170;" horiz-adv-x="716" 
d="M48 281v431h194v-432q0 -78 23.5 -106.5t92.5 -28.5t92.5 28.5t23.5 106.5v432h194v-431q0 -161 -69 -230t-241 -69t-241 69t-69 230zM244 912h176l-131 -140h-148zM467 912h175l-131 -140h-147z" />
    <glyph glyph-name="uhungarumlaut" unicode="&#x171;" horiz-adv-x="597" 
d="M298 -16q-140 0 -197.5 46.5t-57.5 166.5v329h187v-323q0 -39 13.5 -54t54.5 -15t55 15.5t14 53.5v323h187v-329q0 -120 -58 -166.5t-198 -46.5zM89 597l95 143h168l-121 -143h-142zM303 597l96 143h168l-121 -143h-143z" />
    <glyph glyph-name="Uogonek" unicode="&#x172;" horiz-adv-x="716" 
d="M48 281v431h194v-432q0 -78 23.5 -106.5t92.5 -28.5t92.5 28.5t23.5 106.5v432h194v-431q0 -109 -30 -174t-98 -95q-70 -45 -70 -90q0 -13 8 -18.5t31 -5.5h33l-23 -121h-76q-64 0 -92.5 21t-28.5 64q0 61 57 120h-21q-172 0 -241 69t-69 230z" />
    <glyph glyph-name="uogonek" unicode="&#x173;" horiz-adv-x="597" 
d="M444 -102l-22 -121h-77q-121 0 -121 85q0 66 65 122q-135 2 -190.5 48t-55.5 165v329h187v-323q0 -39 13.5 -54t54.5 -15t55 15.5t14 53.5v323h187v-329q0 -83 -26 -129t-85 -66q-70 -42 -70 -82q0 -12 8.5 -17t30.5 -5h32z" />
    <glyph glyph-name="Wcircumflex" unicode="&#x174;" horiz-adv-x="973" 
d="M688 222l83 490h191l-167 -712h-210l-96 436l-95 -436h-217l-166 712h203l82 -489l108 489h176zM544 772l-58 63l-58 -63h-161l125 140h188l125 -140h-161z" />
    <glyph glyph-name="wcircumflex" unicode="&#x175;" horiz-adv-x="812" 
d="M488 526l73 -332l61 332h183l-151 -526h-179l-67 299l-67 -299h-184l-150 526h191l60 -332l75 332h155zM318 743h178l116 -146h-153l-54 66l-52 -66h-153z" />
    <glyph glyph-name="Ycircumflex" unicode="&#x176;" horiz-adv-x="703" 
d="M5 712h215l135 -271l132 271h211l-249 -427v-285h-193v283zM410 772l-58 63l-58 -63h-161l125 140h188l125 -140h-161z" />
    <glyph glyph-name="ycircumflex" unicode="&#x177;" horiz-adv-x="597" 
d="M367 526h187v-484q0 -117 -59.5 -168t-207.5 -51q-122 0 -212 2l26 139q75 -2 169 -2q55 0 76.5 18t21.5 67v5q-44 -25 -127 -25q-100 0 -149 42t-49 136v321h187v-281q0 -39 12.5 -53.5t52.5 -14.5q43 0 57.5 14.5t14.5 56.5v278zM210 743h178l116 -146h-153l-54 66
l-52 -66h-153z" />
    <glyph glyph-name="Ydieresis" unicode="&#x178;" horiz-adv-x="703" 
d="M5 712h215l135 -271l132 271h211l-249 -427v-285h-193v283zM327 840q0 -79 -90 -79q-88 0 -88 79t88 79q90 0 90 -79zM554 840q0 -79 -89 -79t-89 79t89 79t89 -79z" />
    <glyph glyph-name="Zacute" unicode="&#x179;" horiz-adv-x="638" 
d="M25 0v135l329 421h-326l29 156h537v-139l-328 -417h351l-29 -156h-563zM327 912h197l-144 -140h-167z" />
    <glyph glyph-name="zacute" unicode="&#x17a;" horiz-adv-x="532" 
d="M495 409l-223 -264h237l-27 -145h-454v116l224 265h-228l27 145h444v-117zM155 597l109 143h196l-137 -143h-168z" />
    <glyph glyph-name="Zdotaccent" unicode="&#x17b;" horiz-adv-x="638" 
d="M25 0v135l329 421h-326l29 156h537v-139l-328 -417h351l-29 -156h-563zM421 843q0 -44 -21.5 -63t-81.5 -19q-59 0 -81 19t-22 63t22 63.5t81 19.5t81 -19.5t22 -63.5z" />
    <glyph glyph-name="zdotaccent" unicode="&#x17c;" horiz-adv-x="532" 
d="M495 409l-223 -264h237l-27 -145h-454v116l224 265h-228l27 145h444v-117zM380 666q0 -44 -21.5 -63t-81.5 -19q-59 0 -81 19t-22 63t22 63.5t81 19.5t81 -19.5t22 -63.5z" />
    <glyph glyph-name="Zcaron" unicode="&#x17d;" horiz-adv-x="638" 
d="M25 0v135l329 421h-326l29 156h537v-139l-328 -417h351l-29 -156h-563zM266 912l58 -63l58 63h161l-125 -140h-188l-125 140h161z" />
    <glyph glyph-name="zcaron" unicode="&#x17e;" horiz-adv-x="532" 
d="M495 409l-223 -264h237l-27 -145h-454v116l224 265h-228l27 145h444v-117zM366 597h-178l-116 146h153l54 -66l52 66h153z" />
    <glyph glyph-name="longs" unicode="&#x17f;" horiz-adv-x="273" 
d="M230 511v-511h-187v504q0 129 58.5 185t198.5 56q52 0 116 -2l-26 -141q-27 1 -68 1q-56 0 -74 -18t-18 -74z" />
    <glyph glyph-name="florin" unicode="&#x192;" horiz-adv-x="388" 
d="M43 32v472q0 129 58.5 185t198.5 56q53 0 125 -2l-26 -141q-47 1 -77 1q-52 0 -71 -15.5t-21 -61.5h165l-27 -142h-138v-352q0 -120 -47 -164.5t-159 -44.5q-84 0 -124 2l25 149q16 -1 51 -1q38 0 52.5 12.5t14.5 46.5z" />
    <glyph glyph-name="Scommaaccent" unicode="&#x218;" horiz-adv-x="601" 
d="M22 489v17q0 103 64.5 155.5t209.5 52.5q183 0 264 -2l-28 -156q-218 2 -234 2q-47 0 -62.5 -10t-15.5 -39q0 -28 10.5 -38t47.5 -16l112 -20q107 -20 148 -67t41 -140v-17q0 -115 -64.5 -164t-225.5 -49q-176 0 -267 2l27 156q70 -2 242 -2q51 0 67.5 10t16.5 42
q0 30 -12 42t-50 18l-89 15q-119 21 -160.5 66.5t-41.5 141.5zM310 -275h-117l36 94q-34 13 -34 58q0 70 90 70q88 0 88 -69q0 -32 -22 -75z" />
    <glyph glyph-name="scommaaccent" unicode="&#x219;" horiz-adv-x="530" 
d="M272 190l-90 7q-84 6 -118 46.5t-34 112.5v12q0 80 54.5 120t181.5 40q140 0 227 -2l-24 -132q-52 0 -100 0.5t-72.5 1t-36.5 0.5q-28 0 -38 -5t-10 -22q0 -15 8.5 -20.5t36.5 -7.5l77 -6q88 -7 128 -44t40 -107v-19q0 -89 -56.5 -128.5t-182.5 -39.5q-155 0 -239 3
l24 131q31 0 106.5 -1t107.5 -1q33 0 44 5.5t11 25.5q0 17 -8.5 22.5t-36.5 7.5zM159 -123q0 70 90 70q89 0 89 -69q0 -32 -22 -75l-42 -78h-117l36 94q-34 15 -34 58z" />
    <glyph glyph-name="uni021A" unicode="&#x21a;" horiz-adv-x="679" 
d="M9 548l31 164h630l-31 -164h-202v-548h-194v548h-234zM366 -275h-117l36 94q-34 13 -34 58q0 70 90 70q88 0 88 -69q0 -32 -22 -75z" />
    <glyph glyph-name="uni021B" unicode="&#x21b;" horiz-adv-x="423" 
d="M407 526l-26 -142h-151v-164q0 -46 14.5 -61t60.5 -15q76 0 96 1l-27 -145q-20 -1 -101 -1q-140 0 -185 43t-45 173v431l187 25v-145h177zM131 -123q0 70 90 70q89 0 89 -69q0 -32 -22 -75l-42 -78h-117l36 94q-34 15 -34 58z" />
    <glyph glyph-name="uni0237" unicode="&#x237;" horiz-adv-x="273" 
d="M43 32v494h187v-494q0 -120 -47 -164.5t-159 -44.5q-84 0 -124 2l25 149q16 -1 51 -1q38 0 52.5 12.5t14.5 46.5z" />
    <glyph glyph-name="afii57929" unicode="&#x2bc;" horiz-adv-x="425" 
d="M216 752q87 0 87 -78q0 -9 -2 -20t-4 -18.5t-8 -21.5l-9 -21t-12 -25.5t-13 -26.5l-39 -80h-110l51 145q-30 24 -30 66q0 80 89 80z" />
    <glyph glyph-name="circumflex" unicode="&#x2c6;" horiz-adv-x="500" 
d="M162 743h178l116 -146h-153l-54 66l-52 -66h-153z" />
    <glyph glyph-name="caron" unicode="&#x2c7;" horiz-adv-x="500" 
d="M338 597h-178l-116 146h153l54 -66l52 66h153z" />
    <glyph glyph-name="uni02C9" unicode="&#x2c9;" horiz-adv-x="500" 
d="M82 599v121h335v-121h-335z" />
    <glyph glyph-name="breve" unicode="&#x2d8;" horiz-adv-x="500" 
d="M250 578q-96 0 -139 37t-43 110h132q2 -30 13 -41.5t37 -11.5t37 11.5t13 41.5h132q0 -74 -43 -110.5t-139 -36.5z" />
    <glyph glyph-name="dotaccent" unicode="&#x2d9;" horiz-adv-x="500" 
d="M353 666q0 -44 -21.5 -63t-81.5 -19q-59 0 -81 19t-22 63t22 63.5t81 19.5t81 -19.5t22 -63.5z" />
    <glyph glyph-name="ring" unicode="&#x2da;" horiz-adv-x="500" 
d="M113 693q0 60 36.5 92.5t100.5 32.5q65 0 101.5 -32.5t36.5 -92.5t-36.5 -92.5t-101.5 -32.5q-64 0 -100.5 32.5t-36.5 92.5zM296 693q0 47 -46 47t-46 -47t46 -47t46 47z" />
    <glyph glyph-name="ogonek" unicode="&#x2db;" horiz-adv-x="500" 
d="M352 -102l-22 -121h-77q-121 0 -121 85q0 41 30.5 82.5t88.5 73.5l102 -18q-72 -44 -72 -80q0 -12 8.5 -17t30.5 -5h32z" />
    <glyph glyph-name="tilde" unicode="&#x2dc;" horiz-adv-x="500" 
d="M248 612l-14 7q-27 15 -46 15q-27 0 -27 -34v-8h-106v8q0 79 26.5 113.5t80.5 34.5q41 0 91 -25l13 -6q29 -15 47 -15q27 0 27 34v7h106v-8q0 -79 -27 -113t-81 -34q-40 0 -90 24z" />
    <glyph glyph-name="hungarumlaut" unicode="&#x2dd;" horiz-adv-x="500" 
d="M16 597l95 143h168l-121 -143h-142zM230 597l96 143h168l-121 -143h-143z" />
    <glyph glyph-name="increment" unicode="&#x394;" horiz-adv-x="710" 
d="M702 0h-694l228 712h238zM353 541l-115 -390h229z" />
    <glyph glyph-name="Omega" unicode="&#x3a9;" horiz-adv-x="750" 
d="M43 365v42q0 170 73.5 246.5t260.5 76.5t260.5 -76.5t73.5 -246.5v-42q0 -126 -74 -216h98l-28 -149h-280v136q42 31 62 71.5t20 114.5v75q0 103 -25.5 137t-106.5 34t-107 -34t-26 -137v-75q0 -73 20 -114.5t63 -71.5v-136h-312l28 149h73q-73 85 -73 216z" />
    <glyph glyph-name="mu" unicode="&#x3bc;" horiz-adv-x="605" 
d="M419 0h-82q-80 0 -110 21v-196h-184v701h187v-303q0 -45 14.5 -61t58.5 -16h70v380h189v-414q0 -64 -31 -88t-112 -24z" />
    <glyph glyph-name="pi" unicode="&#x3c0;" horiz-adv-x="709" 
d="M109 384h-89l26 138h643l-26 -138h-65v-384h-182v384h-125v-384h-182v384z" />
    <glyph glyph-name="Wgrave" unicode="&#x1e80;" horiz-adv-x="973" 
d="M688 222l83 490h191l-167 -712h-210l-96 436l-95 -436h-217l-166 712h203l82 -489l108 489h176zM286 912h197l114 -140h-167z" />
    <glyph glyph-name="wgrave" unicode="&#x1e81;" horiz-adv-x="812" 
d="M488 526l73 -332l61 332h183l-151 -526h-179l-67 299l-67 -299h-184l-150 526h191l60 -332l75 332h155zM406 740l109 -143h-168l-136 143h195z" />
    <glyph glyph-name="Wacute" unicode="&#x1e82;" horiz-adv-x="973" 
d="M688 222l83 490h191l-167 -712h-210l-96 436l-95 -436h-217l-166 712h203l82 -489l108 489h176zM496 912h197l-144 -140h-167z" />
    <glyph glyph-name="wacute" unicode="&#x1e83;" horiz-adv-x="812" 
d="M488 526l73 -332l61 332h183l-151 -526h-179l-67 299l-67 -299h-184l-150 526h191l60 -332l75 332h155zM306 597l109 143h196l-137 -143h-168z" />
    <glyph glyph-name="Wdieresis" unicode="&#x1e84;" horiz-adv-x="973" 
d="M688 222l83 490h191l-167 -712h-210l-96 436l-95 -436h-217l-166 712h203l82 -489l108 489h176zM462 840q0 -79 -90 -79q-88 0 -88 79t88 79q90 0 90 -79zM689 840q0 -79 -89 -79t-89 79t89 79t89 -79z" />
    <glyph glyph-name="wdieresis" unicode="&#x1e85;" horiz-adv-x="812" 
d="M488 526l73 -332l61 332h183l-151 -526h-179l-67 299l-67 -299h-184l-150 526h191l60 -332l75 332h155zM383 661q0 -77 -88 -77q-87 0 -87 77t87 77q88 0 88 -77zM604 661q0 -77 -89 -77q-87 0 -87 77t87 77q89 0 89 -77z" />
    <glyph glyph-name="Ygrave" unicode="&#x1ef2;" horiz-adv-x="703" 
d="M5 712h215l135 -271l132 271h211l-249 -427v-285h-193v283zM159 912h197l114 -140h-167z" />
    <glyph glyph-name="ygrave" unicode="&#x1ef3;" horiz-adv-x="597" 
d="M367 526h187v-484q0 -117 -59.5 -168t-207.5 -51q-122 0 -212 2l26 139q75 -2 169 -2q55 0 76.5 18t21.5 67v5q-44 -25 -127 -25q-100 0 -149 42t-49 136v321h187v-281q0 -39 12.5 -53.5t52.5 -14.5q43 0 57.5 14.5t14.5 56.5v278zM317 740l109 -143h-168l-136 143h195z
" />
    <glyph glyph-name="endash" unicode="&#x2013;" horiz-adv-x="500" 
d="M0 201v162h500v-162h-500z" />
    <glyph glyph-name="emdash" unicode="&#x2014;" horiz-adv-x="1000" 
d="M0 201v162h1000v-162h-1000z" />
    <glyph glyph-name="quoteleft" unicode="&#x2018;" horiz-adv-x="256" 
d="M75 654l46 89h117l-63 -179q33 -20 33 -68q0 -86 -94 -86t-94 85q0 51 55 159z" />
    <glyph glyph-name="quoteright" unicode="&#x2019;" horiz-adv-x="256" 
d="M181 507l-46 -89h-117l62 177q-32 23 -32 69q0 85 94 85t94 -85q0 -50 -55 -157z" />
    <glyph glyph-name="quotesinglbase" unicode="&#x201a;" horiz-adv-x="223" 
d="M152 -74l-46 -89h-117l62 177q-32 23 -32 69q0 86 95 86q93 0 93 -86q0 -49 -55 -157z" />
    <glyph glyph-name="quotedblleft" unicode="&#x201c;" horiz-adv-x="502" 
d="M75 654l46 89h117l-63 -179q33 -20 33 -68q0 -86 -94 -86t-94 85q0 51 55 159zM321 654l46 89h117l-63 -179q33 -20 33 -68q0 -86 -94 -86t-94 85q0 51 55 159z" />
    <glyph glyph-name="quotedblright" unicode="&#x201d;" horiz-adv-x="502" 
d="M181 507l-46 -89h-117l62 177q-32 23 -32 69q0 85 94 85t94 -85q0 -50 -55 -157zM427 507l-46 -89h-117l62 177q-32 23 -32 69q0 85 94 85t94 -85q0 -50 -55 -157z" />
    <glyph glyph-name="quotedblbase" unicode="&#x201e;" horiz-adv-x="469" 
d="M153 -73l-46 -89h-117l62 177q-32 23 -32 69q0 85 94 85t94 -85q0 -50 -55 -157zM398 -73l-46 -89h-117l62 177q-32 23 -32 69q0 85 94 85t94 -85q0 -50 -55 -157z" />
    <glyph glyph-name="dagger" unicode="&#x2020;" horiz-adv-x="549" 
d="M178 334h-169l29 154h140v224h191v-224h171l-29 -154h-142v-518h-191v518z" />
    <glyph glyph-name="daggerdbl" unicode="&#x2021;" horiz-adv-x="549" 
d="M178 31h-169l29 155h140v163h-169l29 154h140v209h191v-209h171l-29 -154h-142v-163h171l-29 -155h-142v-215h-191v215z" />
    <glyph glyph-name="bullet" unicode="&#x2022;" horiz-adv-x="438" 
d="M383 280q0 -84 -38.5 -124t-125.5 -40t-125.5 40t-38.5 124t38.5 124t125.5 40t125.5 -40t38.5 -124z" />
    <glyph glyph-name="ellipsis" unicode="&#x2026;" horiz-adv-x="1000" 
d="M267 82q0 -48 -24 -70.5t-77 -22.5t-76.5 22.5t-23.5 70.5t23.5 70.5t76.5 22.5t77 -22.5t24 -70.5zM602 82q0 -48 -24 -70.5t-77 -22.5t-76.5 22.5t-23.5 70.5t23.5 70.5t76.5 22.5t77 -22.5t24 -70.5zM934 82q0 -48 -24 -70.5t-77 -22.5t-76.5 22.5t-23.5 70.5
t23.5 70.5t76.5 22.5t77 -22.5t24 -70.5z" />
    <glyph glyph-name="perthousand" unicode="&#x2030;" horiz-adv-x="1347" 
d="M193 0l403 680h158l-403 -680h-158zM795 171v50q0 45 -8.5 59t-37.5 14t-37.5 -14t-8.5 -59v-50q0 -45 8.5 -59t37.5 -14t37.5 14t8.5 59zM749 -9q-102 0 -143 41.5t-41 135.5v56q0 94 41 135.5t143 41.5t143 -41.5t41 -135.5v-56q0 -94 -41 -135.5t-143 -41.5zM1195 171
v50q0 45 -8.5 59t-37.5 14t-37.5 -14t-8.5 -59v-50q0 -45 8.5 -59t37.5 -14t37.5 14t8.5 59zM1149 -9q-102 0 -143 41.5t-41 135.5v56q0 94 41 135.5t143 41.5t143 -41.5t41 -135.5v-56q0 -94 -41 -135.5t-143 -41.5zM244 459v50q0 45 -8.5 59t-37.5 14t-37.5 -14t-8.5 -59
v-50q0 -45 8.5 -59t37.5 -14t37.5 14t8.5 59zM198 279q-102 0 -143 41.5t-41 135.5v56q0 94 41 135.5t143 41.5t143 -41.5t41 -135.5v-56q0 -94 -41 -135.5t-143 -41.5z" />
    <glyph glyph-name="guilsinglleft" unicode="&#x2039;" horiz-adv-x="346" 
d="M30 170v184l281 155v-169l-155 -78l155 -78v-169z" />
    <glyph glyph-name="guilsinglright" unicode="&#x203a;" horiz-adv-x="346" 
d="M316 354v-184l-281 -155v169l154 78l-154 78v169z" />
    <glyph glyph-name="fraction" unicode="&#x2044;" horiz-adv-x="155" 
d="M-204 0l403 680h158l-403 -680h-158z" />
    <glyph glyph-name="uni2070" unicode="&#x2070;" 
d="M244 459v50q0 45 -8.5 59t-37.5 14t-37.5 -14t-8.5 -59v-50q0 -45 8.5 -59t37.5 -14t37.5 14t8.5 59zM198 279q-102 0 -143 41.5t-41 135.5v56q0 94 41 135.5t143 41.5t143 -41.5t41 -135.5v-56q0 -94 -41 -135.5t-143 -41.5z" />
    <glyph glyph-name="uni2074" unicode="&#x2074;" 
d="M266 680l-122 -225h70v79l120 17v-96h48l-19 -99h-29v-68h-120v68h-194v94l117 230h129z" />
    <glyph glyph-name="uni2075" unicode="&#x2075;" 
d="M186 444h-136v236h291l-18 -96h-157v-45h53q75 0 107 -27t32 -92v-16q0 -62 -34.5 -89.5t-112.5 -27.5q-139 0 -174 2l19 98q43 -1 129 -1q23 0 30.5 5.5t7.5 20.5v6q0 15 -7 20.5t-30 5.5z" />
    <glyph glyph-name="uni2076" unicode="&#x2076;" 
d="M340 679l-18 -95q-26 0 -52 0.5t-35 0.5q-46 0 -61.5 -10t-15.5 -40v-7q32 15 77 15q69 0 103 -29.5t34 -96.5v-8q0 -66 -42 -98t-131 -32t-131 37t-42 120v80q0 86 45 125.5t146 39.5q69 0 123 -2zM201 457q-25 0 -36 -8.5t-11 -31.5v-7q0 -22 10 -31t36 -9t36.5 9
t10.5 31v7q0 23 -10.5 31.5t-35.5 8.5z" />
    <glyph glyph-name="uni2077" unicode="&#x2077;" 
d="M230 288h-146l131 284h-183l20 108h308v-89z" />
    <glyph glyph-name="uni2078" unicode="&#x2078;" 
d="M198 279q-177 0 -177 121v5q0 67 60 89q-48 24 -48 81v5q0 109 165 109t165 -109v-5q0 -57 -48 -81q60 -22 60 -89v-5q0 -121 -177 -121zM198 367q26 0 36.5 8.5t10.5 29.5v10q0 38 -47 38q-46 0 -46 -38v-10q0 -21 10 -29.5t36 -8.5zM198 528q24 0 33.5 8t9.5 28v5
q0 20 -9.5 28t-33.5 8t-33 -8t-9 -28v-5q0 -20 9 -28t33 -8z" />
    <glyph glyph-name="uni2079" unicode="&#x2079;" 
d="M56 289l17 96q30 -2 87 -2q47 0 62.5 9t15.5 39v7q-30 -14 -77 -14q-69 0 -103 28.5t-34 95.5v11q0 67 42 98.5t130 31.5q89 0 131.5 -37t42.5 -120v-81q0 -87 -44.5 -125.5t-146.5 -38.5q-69 0 -123 2zM195 510q25 0 35.5 9t10.5 31v8q0 21 -10 30.5t-36 9.5t-36 -9.5
t-10 -30.5v-8q0 -22 10 -31t36 -9z" />
    <glyph glyph-name="uni2080" unicode="&#x2080;" 
d="M244 171v50q0 45 -8.5 59t-37.5 14t-37.5 -14t-8.5 -59v-50q0 -45 8.5 -59t37.5 -14t37.5 14t8.5 59zM198 -9q-102 0 -143 41.5t-41 135.5v56q0 94 41 135.5t143 41.5t143 -41.5t41 -135.5v-56q0 -94 -41 -135.5t-143 -41.5z" />
    <glyph glyph-name="uni2081" unicode="&#x2081;" 
d="M277 109h83l-19 -109h-295l19 109h70v175h-83l19 108h206v-283z" />
    <glyph glyph-name="uni2082" unicode="&#x2082;" 
d="M265 162l-55 -17q-21 -7 -28 -14.5t-7 -24.5v-6h179l-17 -100h-295v80q0 59 20 92t72 50l57 19q18 6 23 11.5t5 17.5q0 14 -7 19.5t-27 5.5q-98 0 -133 -2l16 97q63 3 131 3q79 0 115.5 -26t36.5 -85v-13q0 -43 -19 -67t-67 -40z" />
    <glyph glyph-name="uni2083" unicode="&#x2083;" 
d="M350 292v-5q0 -59 -45 -80q55 -22 55 -87v-9q0 -57 -34 -84.5t-118 -27.5q-9 0 -88 0.5t-84 0.5l18 97q35 -1 133 -1q19 0 27 5.5t8 20.5v5q0 14 -7.5 20t-27.5 6h-117l16 91h96q21 0 28.5 5t7.5 19v5q0 14 -7.5 18.5t-28.5 4.5q-54 0 -134 -2l18 98q40 1 146 1
q72 0 105 -24.5t33 -76.5z" />
    <glyph glyph-name="uni2084" unicode="&#x2084;" 
d="M266 392l-122 -225h70v79l120 17v-96h48l-19 -99h-29v-68h-120v68h-194v94l117 230h129z" />
    <glyph glyph-name="uni2085" unicode="&#x2085;" 
d="M186 156h-136v236h291l-18 -96h-157v-45h53q75 0 107 -27t32 -92v-16q0 -62 -34.5 -89.5t-112.5 -27.5q-139 0 -174 2l19 98q43 -1 129 -1q23 0 30.5 5.5t7.5 20.5v6q0 15 -7 20.5t-30 5.5z" />
    <glyph glyph-name="uni2086" unicode="&#x2086;" 
d="M340 391l-18 -95q-26 0 -52 0.5t-35 0.5q-46 0 -61.5 -10t-15.5 -40v-7q32 15 77 15q69 0 103 -29.5t34 -96.5v-8q0 -66 -42 -98t-131 -32t-131 37t-42 120v80q0 86 45 125.5t146 39.5q69 0 123 -2zM201 169q-25 0 -36 -8.5t-11 -31.5v-7q0 -22 10 -31t36 -9t36.5 9
t10.5 31v7q0 23 -10.5 31.5t-35.5 8.5z" />
    <glyph glyph-name="uni2087" unicode="&#x2087;" 
d="M230 0h-146l131 284h-183l20 108h308v-89z" />
    <glyph glyph-name="uni2088" unicode="&#x2088;" 
d="M198 -9q-177 0 -177 121v5q0 67 60 89q-48 24 -48 81v5q0 109 165 109t165 -109v-5q0 -57 -48 -81q60 -22 60 -89v-5q0 -121 -177 -121zM198 79q26 0 36.5 8.5t10.5 29.5v10q0 38 -47 38q-46 0 -46 -38v-10q0 -21 10 -29.5t36 -8.5zM198 240q24 0 33.5 8t9.5 28v5
q0 20 -9.5 28t-33.5 8t-33 -8t-9 -28v-5q0 -20 9 -28t33 -8z" />
    <glyph glyph-name="uni2089" unicode="&#x2089;" 
d="M56 1l17 96q30 -2 87 -2q47 0 62.5 9t15.5 39v7q-30 -14 -77 -14q-69 0 -103 28.5t-34 95.5v11q0 67 42 98.5t130 31.5q89 0 131.5 -37t42.5 -120v-81q0 -87 -44.5 -125.5t-146.5 -38.5q-69 0 -123 2zM195 222q25 0 35.5 9t10.5 31v8q0 21 -10 30.5t-36 9.5t-36 -9.5
t-10 -30.5v-8q0 -22 10 -31t36 -9z" />
    <glyph glyph-name="Euro" unicode="&#x20ac;" horiz-adv-x="595" 
d="M32 371l16 101h55q15 106 83.5 158t211.5 52q15 0 36.5 -0.5t60 -1t71.5 -0.5l-27 -145q-53 2 -141 2q-56 0 -81 -13.5t-33 -51.5h218l-16 -101h-208v-65h224l-16 -101h-202q9 -37 34.5 -49.5t82.5 -12.5q13 0 34 0.5t58.5 1t73.5 0.5l-28 -145q-62 -2 -139 -2
q-145 0 -214 48t-83 159h-71l16 101h52v65h-68z" />
    <glyph glyph-name="uni20B9" unicode="&#x20b9;" horiz-adv-x="595" 
d="M185 562h-127v118h492l-22 -118h-74q14 -26 18 -57h76l-21 -118h-54q-9 -80 -51.5 -120t-132.5 -53l235 -214h-231l-235 221v110h127q60 0 78.5 9.5t20.5 46.5h-226v118h226q-4 37 -22.5 47t-76.5 10z" />
    <glyph glyph-name="uni20BA" unicode="&#x20ba;" horiz-adv-x="595" 
d="M424 333l-138 -63v-119h38q57 0 78 21t21 82v15l160 24v-38q0 -139 -56.5 -197t-202.5 -58h-213v191l-65 -29v108l65 29v63l-65 -29v108l65 29v210h175v-131l138 63v-108l-138 -63v-63l138 63v-108z" />
    <glyph glyph-name="afii61289" unicode="&#x2113;" horiz-adv-x="552" 
d="M119 131l-48 -34l-71 111l105 70v231q0 100 51 157.5t155 57.5q92 0 144 -46.5t52 -134.5q0 -83 -54.5 -157t-184.5 -160v-23q0 -40 20 -58.5t70 -18.5q48 0 112 23l37 -114q-86 -48 -190 -48q-153 0 -198 144zM268 515v-131q81 72 81 146q0 60 -40 60q-21 0 -31 -17
t-10 -58z" />
    <glyph glyph-name="trademark" unicode="&#x2122;" horiz-adv-x="920" 
d="M434 712h158l67 -148l66 148h154v-372h-130v192l-54 -119h-78l-54 119v-192h-129v372zM26 712h368l-23 -121h-104v-251h-138v251h-126z" />
    <glyph glyph-name="uni2126" unicode="&#x2126;" horiz-adv-x="750" 
d="M43 365v42q0 170 73.5 246.5t260.5 76.5t260.5 -76.5t73.5 -246.5v-42q0 -126 -74 -216h98l-28 -149h-280v136q42 31 62 71.5t20 114.5v75q0 103 -25.5 137t-106.5 34t-107 -34t-26 -137v-75q0 -73 20 -114.5t63 -71.5v-136h-312l28 149h73q-73 85 -73 216z" />
    <glyph glyph-name="estimated" unicode="&#x212e;" horiz-adv-x="785" 
d="M389 656q-143 0 -212 -69v-211h431v211q-82 69 -219 69zM669 164l22 -15q-56 -87 -126 -123t-172 -36q-161 0 -255 99.5t-94 250.5t92.5 248t252.5 97q162 0 256 -94.5t96 -250.5h-564v-245q78 -78 217 -78q95 0 160.5 34t114.5 113z" />
    <glyph glyph-name="uni2150" unicode="&#x2150;" horiz-adv-x="947" 
d="M192 0l403 680h158l-403 -680h-158zM781 0h-146l131 284h-183l20 108h308v-89zM277 397h83l-19 -109h-295l19 109h70v175h-83l19 108h206v-283z" />
    <glyph glyph-name="uni2151" unicode="&#x2151;" horiz-adv-x="947" 
d="M199 0l403 680h158l-403 -680h-158zM607 1l17 96q30 -2 87 -2q47 0 62.5 9t15.5 39v7q-30 -14 -77 -14q-69 0 -103 28.5t-34 95.5v11q0 67 42 98.5t130 31.5q89 0 131.5 -37t42.5 -120v-81q0 -87 -44.5 -125.5t-146.5 -38.5q-69 0 -123 2zM746 222q25 0 35.5 9t10.5 31v8
q0 21 -10 30.5t-36 9.5t-36 -9.5t-10 -30.5v-8q0 -22 10 -31t36 -9zM277 397h83l-19 -109h-295l19 109h70v175h-83l19 108h206v-283z" />
    <glyph glyph-name="onethird" unicode="&#x2153;" horiz-adv-x="947" 
d="M195 0l403 680h158l-403 -680h-158zM901 292v-5q0 -59 -45 -80q55 -22 55 -87v-9q0 -57 -34 -84.5t-118 -27.5q-9 0 -88 0.5t-84 0.5l18 97q35 -1 133 -1q19 0 27 5.5t8 20.5v5q0 14 -7.5 20t-27.5 6h-117l16 91h96q21 0 28.5 5t7.5 19v5q0 14 -7.5 18.5t-28.5 4.5
q-54 0 -134 -2l18 98q40 1 146 1q72 0 105 -24.5t33 -76.5zM277 397h83l-19 -109h-295l19 109h70v175h-83l19 108h206v-283z" />
    <glyph glyph-name="twothirds" unicode="&#x2154;" horiz-adv-x="947" 
d="M195 0l403 680h158l-403 -680h-158zM901 292v-5q0 -59 -45 -80q55 -22 55 -87v-9q0 -57 -34 -84.5t-118 -27.5q-9 0 -88 0.5t-84 0.5l18 97q35 -1 133 -1q19 0 27 5.5t8 20.5v5q0 14 -7.5 20t-27.5 6h-117l16 91h96q21 0 28.5 5t7.5 19v5q0 14 -7.5 18.5t-28.5 4.5
q-54 0 -134 -2l18 98q40 1 146 1q72 0 105 -24.5t33 -76.5zM265 450l-55 -17q-21 -7 -28 -14.5t-7 -24.5v-6h179l-17 -100h-295v80q0 59 20 92t72 50l57 19q18 6 23 11.5t5 17.5q0 14 -7 19.5t-27 5.5q-98 0 -133 -2l16 97q63 3 131 3q79 0 115.5 -26t36.5 -85v-13
q0 -43 -19 -67t-67 -40z" />
    <glyph glyph-name="uni2155" unicode="&#x2155;" horiz-adv-x="947" 
d="M190 0l403 680h158l-403 -680h-158zM737 156h-136v236h291l-18 -96h-157v-45h53q75 0 107 -27t32 -92v-16q0 -62 -34.5 -89.5t-112.5 -27.5q-139 0 -174 2l19 98q43 -1 129 -1q23 0 30.5 5.5t7.5 20.5v6q0 15 -7 20.5t-30 5.5zM277 397h83l-19 -109h-295l19 109h70v175
h-83l19 108h206v-283z" />
    <glyph glyph-name="uni2156" unicode="&#x2156;" horiz-adv-x="947" 
d="M188 0l403 680h158l-403 -680h-158zM737 156h-136v236h291l-18 -96h-157v-45h53q75 0 107 -27t32 -92v-16q0 -62 -34.5 -89.5t-112.5 -27.5q-139 0 -174 2l19 98q43 -1 129 -1q23 0 30.5 5.5t7.5 20.5v6q0 15 -7 20.5t-30 5.5zM265 450l-55 -17q-21 -7 -28 -14.5
t-7 -24.5v-6h179l-17 -100h-295v80q0 59 20 92t72 50l57 19q18 6 23 11.5t5 17.5q0 14 -7 19.5t-27 5.5q-98 0 -133 -2l16 97q63 3 131 3q79 0 115.5 -26t36.5 -85v-13q0 -43 -19 -67t-67 -40z" />
    <glyph glyph-name="uni2157" unicode="&#x2157;" horiz-adv-x="947" 
d="M180 0l403 680h158l-403 -680h-158zM737 156h-136v236h291l-18 -96h-157v-45h53q75 0 107 -27t32 -92v-16q0 -62 -34.5 -89.5t-112.5 -27.5q-139 0 -174 2l19 98q43 -1 129 -1q23 0 30.5 5.5t7.5 20.5v6q0 15 -7 20.5t-30 5.5zM350 581v-5q0 -59 -45 -80q55 -22 55 -87
v-9q0 -57 -34 -84.5t-118 -27.5q-9 0 -88 0.5t-84 0.5l18 97q35 -1 133 -1q19 0 27 5.5t8 20.5v5q0 14 -7.5 20t-27.5 6h-117l16 91h96q21 0 28.5 5t7.5 19v5q0 14 -7.5 18.5t-28.5 4.5q-54 0 -134 -2l18 98q40 1 146 1q72 0 105 -24.5t33 -76.5z" />
    <glyph glyph-name="uni2158" unicode="&#x2158;" horiz-adv-x="947" 
d="M189 0l403 680h158l-403 -680h-158zM737 156h-136v236h291l-18 -96h-157v-45h53q75 0 107 -27t32 -92v-16q0 -62 -34.5 -89.5t-112.5 -27.5q-139 0 -174 2l19 98q43 -1 129 -1q23 0 30.5 5.5t7.5 20.5v6q0 15 -7 20.5t-30 5.5zM266 680l-122 -225h70v79l120 17v-96h48
l-19 -99h-29v-68h-120v68h-194v94l117 230h129z" />
    <glyph glyph-name="uni2159" unicode="&#x2159;" horiz-adv-x="947" 
d="M202 0l403 680h158l-403 -680h-158zM891 391l-18 -95q-26 0 -52 0.5t-35 0.5q-46 0 -61.5 -10t-15.5 -40v-7q32 15 77 15q69 0 103 -29.5t34 -96.5v-8q0 -66 -42 -98t-131 -32t-131 37t-42 120v80q0 86 45 125.5t146 39.5q69 0 123 -2zM752 169q-25 0 -36 -8.5t-11 -31.5
v-7q0 -22 10 -31t36 -9t36.5 9t10.5 31v7q0 23 -10.5 31.5t-35.5 8.5zM277 397h83l-19 -109h-295l19 109h70v175h-83l19 108h206v-283z" />
    <glyph glyph-name="uni215A" unicode="&#x215a;" horiz-adv-x="947" 
d="M194 0l403 680h158l-403 -680h-158zM891 391l-18 -95q-26 0 -52 0.5t-35 0.5q-46 0 -61.5 -10t-15.5 -40v-7q32 15 77 15q69 0 103 -29.5t34 -96.5v-8q0 -66 -42 -98t-131 -32t-131 37t-42 120v80q0 86 45 125.5t146 39.5q69 0 123 -2zM752 169q-25 0 -36 -8.5t-11 -31.5
v-7q0 -22 10 -31t36 -9t36.5 9t10.5 31v7q0 23 -10.5 31.5t-35.5 8.5zM186 444h-136v236h291l-18 -96h-157v-45h53q75 0 107 -27t32 -92v-16q0 -62 -34.5 -89.5t-112.5 -27.5q-139 0 -174 2l19 98q43 -1 129 -1q23 0 30.5 5.5t7.5 20.5v6q0 15 -7 20.5t-30 5.5z" />
    <glyph glyph-name="oneeighth" unicode="&#x215b;" horiz-adv-x="947" 
d="M200 0l403 680h158l-403 -680h-158zM749 -9q-177 0 -177 121v5q0 67 60 89q-48 24 -48 81v5q0 109 165 109t165 -109v-5q0 -57 -48 -81q60 -22 60 -89v-5q0 -121 -177 -121zM749 79q26 0 36.5 8.5t10.5 29.5v10q0 38 -47 38q-46 0 -46 -38v-10q0 -21 10 -29.5t36 -8.5z
M749 240q24 0 33.5 8t9.5 28v5q0 20 -9.5 28t-33.5 8t-33 -8t-9 -28v-5q0 -20 9 -28t33 -8zM277 397h83l-19 -109h-295l19 109h70v175h-83l19 108h206v-283z" />
    <glyph glyph-name="threeeighths" unicode="&#x215c;" horiz-adv-x="947" 
d="M190 0l403 680h158l-403 -680h-158zM749 -9q-177 0 -177 121v5q0 67 60 89q-48 24 -48 81v5q0 109 165 109t165 -109v-5q0 -57 -48 -81q60 -22 60 -89v-5q0 -121 -177 -121zM749 79q26 0 36.5 8.5t10.5 29.5v10q0 38 -47 38q-46 0 -46 -38v-10q0 -21 10 -29.5t36 -8.5z
M749 240q24 0 33.5 8t9.5 28v5q0 20 -9.5 28t-33.5 8t-33 -8t-9 -28v-5q0 -20 9 -28t33 -8zM350 581v-5q0 -59 -45 -80q55 -22 55 -87v-9q0 -57 -34 -84.5t-118 -27.5q-9 0 -88 0.5t-84 0.5l18 97q35 -1 133 -1q19 0 27 5.5t8 20.5v5q0 14 -7.5 20t-27.5 6h-117l16 91h96
q21 0 28.5 5t7.5 19v5q0 14 -7.5 18.5t-28.5 4.5q-54 0 -134 -2l18 98q40 1 146 1q72 0 105 -24.5t33 -76.5z" />
    <glyph glyph-name="fiveeighths" unicode="&#x215d;" horiz-adv-x="947" 
d="M192 0l403 680h158l-403 -680h-158zM749 -9q-177 0 -177 121v5q0 67 60 89q-48 24 -48 81v5q0 109 165 109t165 -109v-5q0 -57 -48 -81q60 -22 60 -89v-5q0 -121 -177 -121zM749 79q26 0 36.5 8.5t10.5 29.5v10q0 38 -47 38q-46 0 -46 -38v-10q0 -21 10 -29.5t36 -8.5z
M749 240q24 0 33.5 8t9.5 28v5q0 20 -9.5 28t-33.5 8t-33 -8t-9 -28v-5q0 -20 9 -28t33 -8zM186 444h-136v236h291l-18 -96h-157v-45h53q75 0 107 -27t32 -92v-16q0 -62 -34.5 -89.5t-112.5 -27.5q-139 0 -174 2l19 98q43 -1 129 -1q23 0 30.5 5.5t7.5 20.5v6q0 15 -7 20.5
t-30 5.5z" />
    <glyph glyph-name="seveneighths" unicode="&#x215e;" horiz-adv-x="947" 
d="M159 0l403 680h158l-403 -680h-158zM749 -9q-177 0 -177 121v5q0 67 60 89q-48 24 -48 81v5q0 109 165 109t165 -109v-5q0 -57 -48 -81q60 -22 60 -89v-5q0 -121 -177 -121zM749 79q26 0 36.5 8.5t10.5 29.5v10q0 38 -47 38q-46 0 -46 -38v-10q0 -21 10 -29.5t36 -8.5z
M749 240q24 0 33.5 8t9.5 28v5q0 20 -9.5 28t-33.5 8t-33 -8t-9 -28v-5q0 -20 9 -28t33 -8zM230 288h-146l131 284h-183l20 108h308v-89z" />
    <glyph glyph-name="partialdiff" unicode="&#x2202;" horiz-adv-x="640" 
d="M270 468q98 0 146 -49q7 47 7 69q0 62 -37.5 85t-132.5 23q-72 0 -133 -3l30 140q65 4 143 4q169 0 240 -61t71 -200q0 -60 -10 -129q-28 -205 -94 -284t-213 -79q-262 0 -262 206q0 29 4 56q17 119 77 170.5t164 51.5zM213 226q-4 -15 -4 -33q0 -66 81 -66
q43 0 64.5 22.5t32.5 83.5q4 15 4 33q0 67 -82 67q-43 0 -64 -22.5t-32 -84.5z" />
    <glyph glyph-name="uni2206" unicode="&#x2206;" horiz-adv-x="710" 
d="M702 0h-694l228 712h238zM353 541l-115 -390h229z" />
    <glyph glyph-name="product" unicode="&#x220f;" horiz-adv-x="761" 
d="M755 712l-26 -138h-63v-661h-182v661h-209v-661h-182v661h-87l26 138h723z" />
    <glyph glyph-name="summation" unicode="&#x2211;" horiz-adv-x="594" 
d="M437 331l-203 -284h342l-28 -149h-533v121l216 302l-205 272v119h546l-27 -149h-282z" />
    <glyph glyph-name="minus" unicode="&#x2212;" horiz-adv-x="595" 
d="M66 265v152h463v-152h-463z" />
    <glyph glyph-name="uni2215" unicode="&#x2215;" horiz-adv-x="155" 
d="M-204 0l403 680h158l-403 -680h-158z" />
    <glyph glyph-name="uni2219" unicode="&#x2219;" horiz-adv-x="231" 
d="M216 377q0 -48 -24 -70.5t-77 -22.5t-76.5 22.5t-23.5 70.5t23.5 70.5t76.5 22.5t77 -22.5t24 -70.5z" />
    <glyph glyph-name="radical" unicode="&#x221a;" horiz-adv-x="677" 
d="M118 342l-106 -55v153l218 112l113 -350l203 677h181l-288 -884h-188z" />
    <glyph glyph-name="infinity" unicode="&#x221e;" horiz-adv-x="763" 
d="M177 349v-7q0 -64 54 -64q26 0 43 15t38 53q-21 39 -38 53t-43 14q-54 0 -54 -64zM382 216q-29 -40 -68 -61t-101 -21q-90 0 -138.5 53t-48.5 149v16q0 95 48.5 150t139.5 55q114 0 167 -82q29 40 68 61t101 21q90 0 138.5 -53t48.5 -149v-15q0 -96 -48.5 -151
t-139.5 -55q-112 0 -167 82zM586 342v7q0 64 -54 64q-25 0 -42.5 -15t-38.5 -52q21 -38 38.5 -53t42.5 -15q54 0 54 64z" />
    <glyph glyph-name="integral" unicode="&#x222b;" horiz-adv-x="406" 
d="M7 -193l25 142q31 -2 72 -2q33 0 46.5 10.5t13.5 41.5q0 34 -6 64l-93 520q-13 70 -13 117q0 93 52 136.5t156 43.5q88 0 139 -2l-25 -142q-50 2 -76 2q-34 0 -47 -11t-13 -43q0 -23 7 -61l93 -520q12 -65 12 -119q0 -93 -50 -136.5t-153 -43.5q-63 0 -140 3z" />
    <glyph glyph-name="approxequal" unicode="&#x2248;" horiz-adv-x="595" 
d="M413 580h142v-25q0 -205 -141 -205q-52 0 -119 37l-6 3l-15 8q-40 22 -59 22q-18 0 -26 -10t-8 -35v-16h-142v25q0 205 141 205q16 0 30 -2t28.5 -7.5t22 -8.5t24 -11.5t20.5 -10.5l15 -8q40 -22 59 -22q18 0 26 10t8 35v16zM413 307h142v-25q0 -205 -141 -205
q-52 0 -119 37l-6 3l-15 8q-40 22 -59 22q-18 0 -26 -10t-8 -35v-16h-142v25q0 205 141 205q16 0 30 -2t28.5 -7.5t22 -8.5t24 -11.5t20.5 -10.5l15 -8q40 -22 59 -22q18 0 26 10t8 35v16z" />
    <glyph glyph-name="notequal" unicode="&#x2260;" horiz-adv-x="595" 
d="M370 623h119l-47 -97h87v-146h-158l-41 -84h199v-146h-270l-49 -102h-119l49 102h-74v146h145l41 84h-186v146h257z" />
    <glyph glyph-name="lessequal" unicode="&#x2264;" horiz-adv-x="595" 
d="M66 1v152h463v-152h-463zM529 513l-285 -86l285 -86v-160l-463 161v170l463 161v-160z" />
    <glyph glyph-name="greaterequal" unicode="&#x2265;" horiz-adv-x="595" 
d="M66 1v152h463v-152h-463zM66 341l285 86l-285 86v160l463 -161v-170l-463 -161v160z" />
    <glyph glyph-name="lozenge" unicode="&#x25ca;" horiz-adv-x="659" 
d="M653 356l-243 -356h-161l-243 356l243 356h161zM202 356l127 -189l128 189l-128 189z" />
    <glyph glyph-name="uniF001" unicode="&#xf001;" horiz-adv-x="634" 
d="M338 603q-59 0 -82.5 -15.5t-25.5 -61.5h137l-27 -142h-110v-384h-187v506q0 129 65 184t222 55q119 0 186 -2l-25 -142q-86 2 -153 2zM404 526h187v-526h-187v526z" />
    <glyph glyph-name="uniF002" unicode="&#xf002;" horiz-adv-x="645" 
d="M300 745q49 0 78 -1l-26 -142q-17 1 -30 1q-52 0 -71 -15.5t-21 -61.5h127l-27 -142h-100v-384h-187v504q0 129 58.5 185t198.5 56zM415 0v743h187v-743h-187z" />
    <glyph glyph-name="uniF507" unicode="&#xf507;" horiz-adv-x="947" 
d="M190 0l403 680h158l-403 -680h-158zM781 0h-146l131 284h-183l20 108h308v-89zM265 450l-55 -17q-21 -7 -28 -14.5t-7 -24.5v-6h179l-17 -100h-295v80q0 59 20 92t72 50l57 19q18 6 23 11.5t5 17.5q0 14 -7 19.5t-27 5.5q-98 0 -133 -2l16 97q63 3 131 3q79 0 115.5 -26
t36.5 -85v-13q0 -43 -19 -67t-67 -40z" />
    <glyph glyph-name="uniF508" unicode="&#xf508;" horiz-adv-x="947" 
d="M182 0l403 680h158l-403 -680h-158zM781 0h-146l131 284h-183l20 108h308v-89zM350 581v-5q0 -59 -45 -80q55 -22 55 -87v-9q0 -57 -34 -84.5t-118 -27.5q-9 0 -88 0.5t-84 0.5l18 97q35 -1 133 -1q19 0 27 5.5t8 20.5v5q0 14 -7.5 20t-27.5 6h-117l16 91h96q21 0 28.5 5
t7.5 19v5q0 14 -7.5 18.5t-28.5 4.5q-54 0 -134 -2l18 98q40 1 146 1q72 0 105 -24.5t33 -76.5z" />
    <glyph glyph-name="uniF509" unicode="&#xf509;" horiz-adv-x="947" 
d="M189 0l403 680h158l-403 -680h-158zM781 0h-146l131 284h-183l20 108h308v-89zM266 680l-122 -225h70v79l120 17v-96h48l-19 -99h-29v-68h-120v68h-194v94l117 230h129z" />
    <glyph glyph-name="uniF50A" unicode="&#xf50a;" horiz-adv-x="947" 
d="M181 0l403 680h158l-403 -680h-158zM781 0h-146l131 284h-183l20 108h308v-89zM186 444h-136v236h291l-18 -96h-157v-45h53q75 0 107 -27t32 -92v-16q0 -62 -34.5 -89.5t-112.5 -27.5q-139 0 -174 2l19 98q43 -1 129 -1q23 0 30.5 5.5t7.5 20.5v6q0 15 -7 20.5t-30 5.5z
" />
    <glyph glyph-name="uniF50B" unicode="&#xf50b;" horiz-adv-x="947" 
d="M188 0l403 680h158l-403 -680h-158zM781 0h-146l131 284h-183l20 108h308v-89zM340 679l-18 -95q-26 0 -52 0.5t-35 0.5q-46 0 -61.5 -10t-15.5 -40v-7q32 15 77 15q69 0 103 -29.5t34 -96.5v-8q0 -66 -42 -98t-131 -32t-131 37t-42 120v80q0 86 45 125.5t146 39.5
q69 0 123 -2zM201 457q-25 0 -36 -8.5t-11 -31.5v-7q0 -22 10 -31t36 -9t36.5 9t10.5 31v7q0 23 -10.5 31.5t-35.5 8.5z" />
    <glyph glyph-name="uniF50D" unicode="&#xf50d;" horiz-adv-x="947" 
d="M199 0l403 680h158l-403 -680h-158zM607 1l17 96q30 -2 87 -2q47 0 62.5 9t15.5 39v7q-30 -14 -77 -14q-69 0 -103 28.5t-34 95.5v11q0 67 42 98.5t130 31.5q89 0 131.5 -37t42.5 -120v-81q0 -87 -44.5 -125.5t-146.5 -38.5q-69 0 -123 2zM746 222q25 0 35.5 9t10.5 31v8
q0 21 -10 30.5t-36 9.5t-36 -9.5t-10 -30.5v-8q0 -22 10 -31t36 -9zM265 450l-55 -17q-21 -7 -28 -14.5t-7 -24.5v-6h179l-17 -100h-295v80q0 59 20 92t72 50l57 19q18 6 23 11.5t5 17.5q0 14 -7 19.5t-27 5.5q-98 0 -133 -2l16 97q63 3 131 3q79 0 115.5 -26t36.5 -85v-13
q0 -43 -19 -67t-67 -40z" />
    <glyph glyph-name="uniF50E" unicode="&#xf50e;" horiz-adv-x="947" 
d="M198 0l403 680h158l-403 -680h-158zM607 1l17 96q30 -2 87 -2q47 0 62.5 9t15.5 39v7q-30 -14 -77 -14q-69 0 -103 28.5t-34 95.5v11q0 67 42 98.5t130 31.5q89 0 131.5 -37t42.5 -120v-81q0 -87 -44.5 -125.5t-146.5 -38.5q-69 0 -123 2zM746 222q25 0 35.5 9t10.5 31v8
q0 21 -10 30.5t-36 9.5t-36 -9.5t-10 -30.5v-8q0 -22 10 -31t36 -9zM266 680l-122 -225h70v79l120 17v-96h48l-19 -99h-29v-68h-120v68h-194v94l117 230h129z" />
    <glyph glyph-name="uniF50F" unicode="&#xf50f;" horiz-adv-x="947" 
d="M189 0l403 680h158l-403 -680h-158zM607 1l17 96q30 -2 87 -2q47 0 62.5 9t15.5 39v7q-30 -14 -77 -14q-69 0 -103 28.5t-34 95.5v11q0 67 42 98.5t130 31.5q89 0 131.5 -37t42.5 -120v-81q0 -87 -44.5 -125.5t-146.5 -38.5q-69 0 -123 2zM746 222q25 0 35.5 9t10.5 31v8
q0 21 -10 30.5t-36 9.5t-36 -9.5t-10 -30.5v-8q0 -22 10 -31t36 -9zM186 444h-136v236h291l-18 -96h-157v-45h53q75 0 107 -27t32 -92v-16q0 -62 -34.5 -89.5t-112.5 -27.5q-139 0 -174 2l19 98q43 -1 129 -1q23 0 30.5 5.5t7.5 20.5v6q0 15 -7 20.5t-30 5.5z" />
    <glyph glyph-name="uniF510" unicode="&#xf510;" horiz-adv-x="947" 
d="M157 0l403 680h158l-403 -680h-158zM607 1l17 96q30 -2 87 -2q47 0 62.5 9t15.5 39v7q-30 -14 -77 -14q-69 0 -103 28.5t-34 95.5v11q0 67 42 98.5t130 31.5q89 0 131.5 -37t42.5 -120v-81q0 -87 -44.5 -125.5t-146.5 -38.5q-69 0 -123 2zM746 222q25 0 35.5 9t10.5 31v8
q0 21 -10 30.5t-36 9.5t-36 -9.5t-10 -30.5v-8q0 -22 10 -31t36 -9zM230 288h-146l131 284h-183l20 108h308v-89z" />
    <glyph glyph-name="uniF511" unicode="&#xf511;" horiz-adv-x="947" 
d="M196 0l403 680h158l-403 -680h-158zM607 1l17 96q30 -2 87 -2q47 0 62.5 9t15.5 39v7q-30 -14 -77 -14q-69 0 -103 28.5t-34 95.5v11q0 67 42 98.5t130 31.5q89 0 131.5 -37t42.5 -120v-81q0 -87 -44.5 -125.5t-146.5 -38.5q-69 0 -123 2zM746 222q25 0 35.5 9t10.5 31v8
q0 21 -10 30.5t-36 9.5t-36 -9.5t-10 -30.5v-8q0 -22 10 -31t36 -9zM198 279q-177 0 -177 121v5q0 67 60 89q-48 24 -48 81v5q0 109 165 109t165 -109v-5q0 -57 -48 -81q60 -22 60 -89v-5q0 -121 -177 -121zM198 367q26 0 36.5 8.5t10.5 29.5v10q0 38 -47 38q-46 0 -46 -38
v-10q0 -21 10 -29.5t36 -8.5zM198 528q24 0 33.5 8t9.5 28v5q0 20 -9.5 28t-33.5 8t-33 -8t-9 -28v-5q0 -20 9 -28t33 -8z" />
    <glyph glyph-name="uniF6C3" unicode="&#xf6c3;" horiz-adv-x="500" 
d="M162 -123q0 70 90 70q89 0 89 -69q0 -32 -22 -75l-42 -78h-117l36 94q-34 15 -34 58z" />
    <glyph glyph-name="uniF800" unicode="&#xf800;" horiz-adv-x="595" 
d="M299 130q50 0 65 27t15 116v134q0 89 -15 116t-65 27t-65 -27t-15 -116v-134q0 -89 15 -116t65 -27zM299 696q152 0 211.5 -66t59.5 -220v-140q0 -154 -59.5 -220t-211.5 -66t-211.5 66t-59.5 220v140q0 154 59.5 220t211.5 66z" />
    <glyph glyph-name="uniF801" unicode="&#xf801;" horiz-adv-x="595" 
d="M529 143l-27 -143h-410l27 143h99v394h-123l27 143h284v-537h123z" />
    <glyph glyph-name="uniF802" unicode="&#xf802;" horiz-adv-x="595" 
d="M405 295l-130 -54q-27 -12 -37 -28.5t-10 -49.5v-15h314l-27 -148h-472v128q0 102 33.5 154t116.5 89l106 47q35 15 45.5 27t10.5 38q0 29 -14 40t-49 11q-29 0 -113.5 -1t-124.5 -1l26 148q56 2 235 2q117 0 170.5 -43.5t53.5 -130.5v-17q0 -71 -31 -118.5t-103 -77.5z
" />
    <glyph glyph-name="uniF803" unicode="&#xf803;" horiz-adv-x="595" 
d="M57 535l26 145q136 2 239 2q210 0 210 -170v-19q0 -51 -17.5 -83t-57.5 -55q88 -42 88 -148v-18q0 -99 -60.5 -145t-194.5 -46q-191 0 -249 2l26 145q42 -2 219 -2q38 0 54 14t16 45v10q0 33 -16 47t-57 14h-189l25 139h158q67 0 67 55v12q0 58 -67 58q-52 0 -220 -2z
" />
    <glyph glyph-name="uniF804" unicode="&#xf804;" horiz-adv-x="595" 
d="M581 262l-27 -141h-45v-121h-172v121h-313v120l204 439h182l-201 -418h128v168l172 27v-195h72z" />
    <glyph glyph-name="uniF805" unicode="&#xf805;" horiz-adv-x="595" 
d="M543 229v-21q0 -116 -60.5 -163t-217.5 -47q-170 0 -213 2l26 145q45 -2 192 -2q50 0 68.5 15.5t18.5 54.5v9q0 40 -18.5 55t-68.5 15h-198v388h445l-26 -145h-249v-103h54q137 0 192 -44.5t55 -158.5z" />
    <glyph glyph-name="uniF806" unicode="&#xf806;" horiz-adv-x="595" 
d="M222 437v-12q40 26 117 26q113 0 165.5 -52.5t52.5 -173.5v-16q0 -119 -61.5 -172t-192.5 -53q-135 0 -196.5 58t-61.5 192v156q0 157 64.5 224.5t231.5 67.5q116 0 178 -2l-27 -146q-134 2 -154 2q-66 0 -91 -24.5t-25 -74.5zM301 122q45 0 62 18.5t17 69.5v17
q0 51 -16.5 70t-59.5 19q-46 0 -64 -19t-18 -70v-17q0 -50 17.5 -69t61.5 -19z" />
    <glyph glyph-name="uniF807" unicode="&#xf807;" horiz-adv-x="595" 
d="M340 0h-196l200 528h-301l28 152h467v-127z" />
    <glyph glyph-name="uniF808" unicode="&#xf808;" horiz-adv-x="595" 
d="M296 696q249 0 249 -183v-15q0 -96 -82 -142q97 -45 97 -158v-19q0 -100 -61.5 -147.5t-202.5 -47.5q-142 0 -203 47t-61 148v19q0 113 97 158q-82 47 -82 142v15q0 183 249 183zM296 285q-50 0 -67 -17.5t-17 -60.5v-11q0 -44 17 -61t67 -17t67.5 17.5t17.5 60.5v11
q0 43 -17.5 60.5t-67.5 17.5zM296 565q-43 0 -61 -15.5t-18 -50.5v-15q0 -38 17 -53t62 -15t62 15t17 53v15q0 36 -17.5 51t-61.5 15z" />
    <glyph glyph-name="uniF809" unicode="&#xf809;" horiz-adv-x="595" 
d="M372 243v12q-42 -26 -118 -26q-112 0 -164.5 52.5t-52.5 173.5v16q0 120 61 172.5t193 52.5q135 0 196.5 -58t61.5 -192v-156q0 -157 -64.5 -224.5t-231.5 -67.5q-120 0 -179 2l27 146q136 -2 155 -2q66 0 91 24.5t25 74.5zM292 558q-45 0 -62 -18.5t-17 -69.5v-17
q0 -51 16.5 -70t59.5 -19q46 0 64.5 19t18.5 70v17q0 50 -18 69t-62 19z" />
    <glyph glyph-name="uniF80A" unicode="&#xf80a;" 
d="M244 579v50q0 45 -8.5 59t-37.5 14t-37.5 -14t-8.5 -59v-50q0 -45 8.5 -59t37.5 -14t37.5 14t8.5 59zM198 399q-102 0 -143 41.5t-41 135.5v56q0 94 41 135.5t143 41.5t143 -41.5t41 -135.5v-56q0 -94 -41 -135.5t-143 -41.5z" />
    <glyph glyph-name="uniF80B" unicode="&#xf80b;" 
d="M277 517h83l-19 -109h-295l19 109h70v175h-83l19 108h206v-283z" />
    <glyph glyph-name="uniF80C" unicode="&#xf80c;" 
d="M265 570l-55 -17q-21 -7 -28 -14.5t-7 -24.5v-6h179l-17 -100h-295v80q0 59 20 92t72 50l57 19q18 6 23 11.5t5 17.5q0 14 -7 19.5t-27 5.5q-98 0 -133 -2l16 97q63 3 131 3q79 0 115.5 -26t36.5 -85v-13q0 -43 -19 -67t-67 -40z" />
    <glyph glyph-name="uniF80D" unicode="&#xf80d;" 
d="M350 700v-5q0 -59 -45 -80q55 -22 55 -87v-9q0 -57 -34 -84.5t-118 -27.5q-9 0 -88 0.5t-84 0.5l18 97q35 -1 133 -1q19 0 27 5.5t8 20.5v5q0 14 -7.5 20t-27.5 6h-117l16 91h96q21 0 28.5 5t7.5 19v5q0 14 -7.5 18.5t-28.5 4.5q-54 0 -134 -2l18 98q40 1 146 1
q72 0 105 -24.5t33 -76.5z" />
    <glyph glyph-name="uniF80E" unicode="&#xf80e;" 
d="M266 800l-122 -225h70v79l120 17v-96h48l-19 -99h-29v-68h-120v68h-194v94l117 230h129z" />
    <glyph glyph-name="uniF80F" unicode="&#xf80f;" 
d="M186 564h-136v236h291l-18 -96h-157v-45h53q75 0 107 -27t32 -92v-16q0 -62 -34.5 -89.5t-112.5 -27.5q-139 0 -174 2l19 98q43 -1 129 -1q23 0 30.5 5.5t7.5 20.5v6q0 15 -7 20.5t-30 5.5z" />
    <glyph glyph-name="uniF810" unicode="&#xf810;" 
d="M340 799l-18 -95q-26 0 -52 0.5t-35 0.5q-46 0 -61.5 -10t-15.5 -40v-7q32 15 77 15q69 0 103 -29.5t34 -96.5v-8q0 -66 -42 -98t-131 -32t-131 37t-42 120v80q0 86 45 125.5t146 39.5q69 0 123 -2zM201 577q-25 0 -36 -8.5t-11 -31.5v-7q0 -22 10 -31t36 -9t36.5 9
t10.5 31v7q0 23 -10.5 31.5t-35.5 8.5z" />
    <glyph glyph-name="uniF811" unicode="&#xf811;" 
d="M230 408h-146l131 284h-183l20 108h308v-89z" />
    <glyph glyph-name="uniF812" unicode="&#xf812;" 
d="M198 399q-177 0 -177 121v5q0 67 60 89q-48 24 -48 81v5q0 109 165 109t165 -109v-5q0 -57 -48 -81q60 -22 60 -89v-5q0 -121 -177 -121zM198 487q26 0 36.5 8.5t10.5 29.5v10q0 38 -47 38q-46 0 -46 -38v-10q0 -21 10 -29.5t36 -8.5zM198 648q24 0 33.5 8t9.5 28v5
q0 20 -9.5 28t-33.5 8t-33 -8t-9 -28v-5q0 -20 9 -28t33 -8z" />
    <glyph glyph-name="uniF813" unicode="&#xf813;" 
d="M56 409l17 96q30 -2 87 -2q47 0 62.5 9t15.5 39v7q-30 -14 -77 -14q-69 0 -103 28.5t-34 95.5v11q0 67 42 98.5t130 31.5q89 0 131.5 -37t42.5 -120v-81q0 -87 -44.5 -125.5t-146.5 -38.5q-69 0 -123 2zM195 630q25 0 35.5 9t10.5 31v8q0 21 -10 30.5t-36 9.5t-36 -9.5
t-10 -30.5v-8q0 -22 10 -31t36 -9z" />
    <glyph glyph-name="uniF814" unicode="&#xf814;" 
d="M244 52v50q0 45 -8.5 59t-37.5 14t-37.5 -14t-8.5 -59v-50q0 -45 8.5 -59t37.5 -14t37.5 14t8.5 59zM198 -128q-102 0 -143 41.5t-41 135.5v56q0 94 41 135.5t143 41.5t143 -41.5t41 -135.5v-56q0 -94 -41 -135.5t-143 -41.5z" />
    <glyph glyph-name="uniF815" unicode="&#xf815;" 
d="M277 -10h83l-19 -109h-295l19 109h70v175h-83l19 108h206v-283z" />
    <glyph glyph-name="uniF816" unicode="&#xf816;" 
d="M265 43l-55 -17q-21 -7 -28 -14.5t-7 -24.5v-6h179l-17 -100h-295v80q0 59 20 92t72 50l57 19q18 6 23 11.5t5 17.5q0 14 -7 19.5t-27 5.5q-98 0 -133 -2l16 97q63 3 131 3q79 0 115.5 -26t36.5 -85v-13q0 -43 -19 -67t-67 -40z" />
    <glyph glyph-name="uniF817" unicode="&#xf817;" 
d="M350 173v-5q0 -59 -45 -80q55 -22 55 -87v-9q0 -57 -34 -84.5t-118 -27.5q-9 0 -88 0.5t-84 0.5l18 97q35 -1 133 -1q19 0 27 5.5t8 20.5v5q0 14 -7.5 20t-27.5 6h-117l16 91h96q21 0 28.5 5t7.5 19v5q0 14 -7.5 18.5t-28.5 4.5q-54 0 -134 -2l18 98q40 1 146 1
q72 0 105 -24.5t33 -76.5z" />
    <glyph glyph-name="uniF818" unicode="&#xf818;" 
d="M266 273l-122 -225h70v79l120 17v-96h48l-19 -99h-29v-68h-120v68h-194v94l117 230h129z" />
    <glyph glyph-name="uniF819" unicode="&#xf819;" 
d="M186 37h-136v236h291l-18 -96h-157v-45h53q75 0 107 -27t32 -92v-16q0 -62 -34.5 -89.5t-112.5 -27.5q-139 0 -174 2l19 98q43 -1 129 -1q23 0 30.5 5.5t7.5 20.5v6q0 15 -7 20.5t-30 5.5z" />
    <glyph glyph-name="uniF81A" unicode="&#xf81a;" 
d="M340 272l-18 -95q-26 0 -52 0.5t-35 0.5q-46 0 -61.5 -10t-15.5 -40v-7q32 15 77 15q69 0 103 -29.5t34 -96.5v-8q0 -66 -42 -98t-131 -32t-131 37t-42 120v80q0 86 45 125.5t146 39.5q69 0 123 -2zM201 50q-25 0 -36 -8.5t-11 -31.5v-7q0 -22 10 -31t36 -9t36.5 9
t10.5 31v7q0 23 -10.5 31.5t-35.5 8.5z" />
    <glyph glyph-name="uniF81B" unicode="&#xf81b;" 
d="M230 -119h-146l131 284h-183l20 108h308v-89z" />
    <glyph glyph-name="uniF81C" unicode="&#xf81c;" 
d="M198 -128q-177 0 -177 121v5q0 66 60 89q-48 24 -48 81v5q0 109 165 109t165 -109v-5q0 -57 -48 -81q60 -23 60 -89v-5q0 -121 -177 -121zM198 -40q26 0 36.5 8.5t10.5 29.5v10q0 38 -47 38q-46 0 -46 -38v-10q0 -21 10 -29.5t36 -8.5zM198 121q24 0 33.5 8t9.5 28v5
q0 20 -9.5 28t-33.5 8t-33 -8t-9 -28v-5q0 -20 9 -28t33 -8z" />
    <glyph glyph-name="uniF81D" unicode="&#xf81d;" 
d="M56 -118l17 96q30 -2 87 -2q47 0 62.5 9t15.5 39v7q-30 -14 -77 -14q-69 0 -103 28.5t-34 95.5v11q0 67 42 98.5t130 31.5q89 0 131.5 -37t42.5 -120v-81q0 -87 -44.5 -125.5t-146.5 -38.5q-69 0 -123 2zM195 103q25 0 35.5 9t10.5 31v8q0 21 -10 30.5t-36 9.5t-36 -9.5
t-10 -30.5v-8q0 -22 10 -31t36 -9z" />
    <glyph glyph-name="NULL" horiz-adv-x="0" 
 />
    <glyph glyph-name="CR" horiz-adv-x="333" 
 />
    <glyph glyph-name="i.locl" horiz-adv-x="273" 
d="M43 0v526h187v-526h-187zM239 666q0 -44 -21.5 -63t-81.5 -19q-59 0 -81 19t-22 63t22 63.5t81 19.5t81 -19.5t22 -63.5z" />
    <glyph glyph-name="glyph469" horiz-adv-x="500" 
d="M102 912h176l-131 -140h-148zM325 912h175l-131 -140h-147z" />
    <glyph glyph-name="glyph470" horiz-adv-x="500" 
d="M222 -110q-35 0 -62 -1l17 75q23 2 86 2q67 0 93.5 -21.5t26.5 -73.5v-6q0 -58 -29.5 -81t-101.5 -23q-76 0 -124 3l17 83q54 -2 77 -2q19 0 25.5 4.5t6.5 18.5q0 13 -6.5 17.5t-25.5 4.5z" />
    <glyph glyph-name="glyph471" horiz-adv-x="500" 
d="M248 785l-9 4q-40 17 -55 17q-13 0 -19.5 -6.5t-6.5 -27.5v-9h-107v9q0 81 26.5 116t79.5 35q43 0 95 -25l9 -4q38 -17 55 -17q13 0 19 7t7 27v8h107v-8q0 -80 -26.5 -115.5t-79.5 -35.5q-37 0 -95 25z" />
    <glyph glyph-name="glyph472" horiz-adv-x="500" 
d="M349 -102l-23 -121h-76q-64 0 -92.5 21t-28.5 64q0 41 30.5 82.5t87.5 73.5l102 -18q-72 -44 -72 -80q0 -12 8.5 -17t30.5 -5h33z" />
    <glyph glyph-name="glyph473" horiz-adv-x="500" 
d="M300 859q0 24 -13.5 38t-37.5 14t-37.5 -14t-13.5 -38t13.5 -38t37.5 -14t37.5 14t13.5 38zM102 859q0 65 38.5 100t108.5 35t109 -35t39 -100t-39 -100t-109 -35t-108.5 35t-38.5 100z" />
    <glyph glyph-name="glyph474" horiz-adv-x="500" 
d="M192 912l58 -63l58 63h161l-125 -140h-188l-125 140h161z" />
    <glyph glyph-name="glyph475" horiz-adv-x="500" 
d="M82 780v120h335v-120h-335z" />
    <glyph glyph-name="glyph476" horiz-adv-x="500" 
d="M226 840q0 -79 -90 -79q-88 0 -88 79t88 79q90 0 90 -79zM453 840q0 -79 -89 -79t-89 79t89 79t89 -79z" />
    <glyph glyph-name="glyph477" horiz-adv-x="500" 
d="M353 843q0 -44 -21.5 -63t-81.5 -19q-59 0 -81 19t-22 63t22 63.5t81 19.5t81 -19.5t22 -63.5z" />
    <glyph glyph-name="glyph478" horiz-adv-x="500" 
d="M308 772l-58 63l-58 -63h-161l125 140h188l125 -140h-161z" />
    <glyph glyph-name="glyph479" horiz-adv-x="500" 
d="M208 912h197l-144 -140h-167z" />
    <glyph glyph-name="glyph480" horiz-adv-x="500" 
d="M95 912h197l114 -140h-167z" />
    <glyph glyph-name="glyph481" horiz-adv-x="500" 
d="M250 768q-94 0 -138.5 36.5t-44.5 119.5h129q2 -35 14 -49t40 -14q27 0 39.5 14t14.5 49h129q0 -83 -44.5 -119.5t-138.5 -36.5z" />
    <glyph glyph-name="glyph482" horiz-adv-x="500" 
d="M277 -275h-117l36 94q-34 13 -34 58q0 70 90 70q88 0 88 -69q0 -32 -22 -75z" />
    <glyph glyph-name="glyph483" horiz-adv-x="500" 
d="M181 743h152l-38 -196h-119z" />
    <glyph glyph-name="glyph485" horiz-adv-x="500" 
d="M223 806h117l-36 -92q34 -13 34 -60q0 -70 -90 -70q-89 0 -89 69q0 34 23 76z" />
    <glyph glyph-name="glyph486" horiz-adv-x="500" 
d="M209 895h200l-146 -123h-172z" />
    <glyph glyph-name="glyph487" horiz-adv-x="500" 
d="M310 772l-60 54l-60 -54h-152l131 125h164l129 -125h-152z" />
    <glyph glyph-name="glyph488" horiz-adv-x="500" 
d="M176 743h152l-35 -169h-122z" />
    <glyph glyph-name="parenleft.case" horiz-adv-x="395" 
d="M386 49l-26 -137h-30q-169 0 -231 71.5t-62 271.5v201q0 195 64 269t230 74h55l-26 -137h-17q-56 0 -81 -14.5t-36 -56.5t-11 -135v-201q0 -93 11 -135t36 -56.5t81 -14.5h43z" />
    <glyph glyph-name="parenright.case" horiz-adv-x="395" 
d="M9 662l26 137h30q169 0 231 -71.5t62 -271.5v-201q0 -195 -64 -269t-230 -74h-55l26 137h17q56 0 81 14.5t36 56.5t11 135v201q0 93 -11 135t-36 56.5t-81 14.5h-43z" />
    <glyph glyph-name="hyphen.case" horiz-adv-x="403" 
d="M362 279h-352l30 161h353z" />
    <glyph glyph-name="slash.case" horiz-adv-x="446" 
d="M251 712h188l-244 -712h-188z" />
    <glyph glyph-name="at.case" horiz-adv-x="815" 
d="M661 179h-187q-103 0 -147 41.5t-44 121.5v17q0 81 46.5 119t143.5 38q71 0 128 -26v14q0 55 -33.5 75t-132.5 20q-133 0 -178.5 -36.5t-45.5 -143.5v-123q0 -118 46 -157.5t189 -39.5q176 0 265 3l-26 -143q-88 -3 -234 -3q-116 0 -192 15.5t-128.5 54.5t-75 104
t-22.5 166v123q0 178 95 250.5t312 72.5q179 0 259 -55t80 -182v-215q0 -62 -26.5 -86.5t-91.5 -24.5zM519 302h80v53q0 29 -15 40.5t-55 11.5t-53 -10t-13 -36v-11q0 -26 12.5 -37t43.5 -11z" />
    <glyph glyph-name="bracketleft.case" horiz-adv-x="400" 
d="M51 799h341l-26 -139h-140v-609h166l-26 -139h-315v887z" />
    <glyph glyph-name="backslash.case" horiz-adv-x="446" 
d="M7 712h189l243 -712h-189z" />
    <glyph glyph-name="bracketright.case" horiz-adv-x="400" 
d="M349 -88h-341l26 139h140v609h-166l26 139h315v-887z" />
    <glyph glyph-name="braceleft.case" horiz-adv-x="442" 
d="M349 799h83l-26 -136h-42q-43 0 -58.5 -16t-15.5 -55v-120q0 -81 -74 -116q74 -35 74 -116v-121q0 -39 15.5 -55t58.5 -16h68l-26 -136h-57q-129 0 -180.5 42t-51.5 138v130q0 62 -56 62h-26v144h26q56 0 56 62v129q0 96 51.5 138t180.5 42z" />
    <glyph glyph-name="braceright.case" horiz-adv-x="442" 
d="M93 -88h-83l25 136h43q43 0 58.5 16t15.5 55v121q0 81 74 116q-74 35 -74 116v120q0 39 -15.5 55t-58.5 16h-68l25 136h58q129 0 180.5 -42t51.5 -138v-129q0 -62 56 -62h26v-144h-26q-56 0 -56 -62v-130q0 -96 -51.5 -138t-180.5 -42z" />
    <glyph glyph-name="guilsinglleft.case" horiz-adv-x="346" 
d="M30 259v184l281 155v-169l-155 -78l155 -78v-169z" />
    <glyph glyph-name="bullet.case" horiz-adv-x="438" 
d="M383 357q0 -84 -38.5 -124t-125.5 -40t-125.5 40t-38.5 124t38.5 124t125.5 40t125.5 -40t38.5 -124z" />
    <glyph glyph-name="endash.case" horiz-adv-x="500" 
d="M0 276v162h500v-162h-500z" />
    <glyph glyph-name="emdash.case" horiz-adv-x="1000" 
d="M0 277v162h1000v-162h-1000z" />
    <glyph glyph-name="guilsinglright.case" horiz-adv-x="346" 
d="M316 443v-184l-281 -155v169l154 78l-154 78v169z" />
    <glyph glyph-name="exclamdown.case" horiz-adv-x="284" 
d="M63 489h157l11 -127q8 -96 8 -162v-200h-194v200q0 78 7 162zM42 633q0 90 100 90t100 -90t-100 -90t-100 90z" />
    <glyph glyph-name="guillemotleft.case" horiz-adv-x="576" 
d="M30 259v184l234 155v-168l-127 -79l127 -79v-168zM307 259v184l234 155v-168l-128 -79l128 -79v-168z" />
    <glyph glyph-name="guillemotright.case" horiz-adv-x="576" 
d="M546 443v-184l-234 -155v168l128 79l-128 79v168zM269 443v-184l-234 -155v168l128 79l-128 79v168z" />
    </font>
</defs>
</svg>
