<?xml version="1.0" standalone="no"?>
<!DOCTYPE svg PUBLIC "-//W3C//DTD SVG 1.1//EN" "http://www.w3.org/Graphics/SVG/1.1/DTD/svg11.dtd" >
<svg>
<metadata>
Created by FontForge 20120731 at Tue Dec 15 21:06:50 2015
 By ,,,
Copyright (c) Olivier Gourvat - Mostardesign Studio, 2004-2011. All rights reserved.
</metadata>
<defs>
<font id="IntervalSansPro-Black" horiz-adv-x="594" >
  <font-face 
    font-family="Interval Sans Pro Black"
    font-weight="900"
    font-stretch="normal"
    units-per-em="1000"
    panose-1="2 0 5 3 0 0 0 2 0 4"
    ascent="750"
    descent="-250"
    x-height="484"
    cap-height="674"
    bbox="-54 -220 1239 1102"
    underline-thickness="50"
    underline-position="-50"
    unicode-range="U+0020-FB06"
  />
<missing-glyph horiz-adv-x="500" 
 />
    <glyph glyph-name="ff" unicode="ff" horiz-adv-x="670" 
d="M17 484h52v35q0 47 15.5 80.5t35.5 49.5t48 25t42 10t29 1q49 0 116 -36l-29 -97q-23 12 -50 12q-28 0 -28 -30v-50h159v35q0 47 15.5 80.5t35.5 49.5t48 25t42 10t29 1q49 0 116 -36l-29 -97q-23 12 -50 12q-28 0 -28 -30v-50h82v-110h-82v-374h-180l1 374h-159v-374
h-180l1 374h-52v110z" />
    <glyph glyph-name="fi" unicode="fi" horiz-adv-x="647" 
d="M410 0v374h-162v-374h-180l1 374h-52v110h52v35q0 47 15.5 80.5t35.5 49.5t48 25t42 10t29 1q49 0 116 -36l-29 -97q-23 12 -50 12q-28 0 -28 -30v-50h342v-484h-180z" />
    <glyph glyph-name="fl" unicode="fl" horiz-adv-x="647" 
d="M410 0v553h-134q-28 0 -28 -30v-39h82v-110h-82v-374h-180l1 374h-52v110h52v24q0 47 15.5 80.5t35.5 49.5t48 25t42 10t29 1h351v-674h-180z" />
    <glyph glyph-name="f_f_i" unicode="ffi" horiz-adv-x="985" 
d="M748 0v374h-162v-374h-180l1 374h-159v-374h-180l1 374h-52v110h52v35q0 47 15.5 80.5t35.5 49.5t48 25t42 10t29 1q49 0 116 -36l-29 -97q-23 12 -50 12q-28 0 -28 -30v-50h159v35q0 47 15.5 80.5t35.5 49.5t48 25t42 10t29 1q49 0 116 -36l-29 -97q-23 12 -50 12
q-28 0 -28 -30v-50h342v-484h-180z" />
    <glyph glyph-name="f_f_l" unicode="ffl" horiz-adv-x="985" 
d="M748 0v553h-134q-28 0 -28 -30v-39h82v-110h-82v-374h-180l1 374h-159v-374h-180l1 374h-52v110h52v35q0 47 15.5 80.5t35.5 49.5t48 25t42 10t29 1q49 0 116 -36l-29 -97q-23 12 -50 12q-28 0 -28 -30v-50h159v24q0 47 15.5 80.5t35.5 49.5t48 25t42 10t29 1h351v-674
h-180z" />
    <glyph glyph-name="f_f_j" unicode="ffj" horiz-adv-x="991" 
d="M933 484v-508q0 -166 -168 -166q-53 0 -127 39l27 98l62 -13q9 -2 15.5 1.5t8.5 11.5t2.5 14t0.5 15v398h-168v-374h-180l1 374h-159v-374h-180l1 374h-52v110h52v35q0 47 15.5 80.5t35.5 49.5t48 25t42 10t29 1q49 0 116 -36l-29 -97q-23 12 -50 12q-28 0 -28 -30v-50
h159v35q0 47 15.5 80.5t35.5 49.5t48 25t42 10t29 1q49 0 116 -36l-29 -97q-23 12 -50 12q-28 0 -28 -30v-50h347z" />
    <glyph glyph-name="f_j" unicode="fj" horiz-adv-x="653" 
d="M595 484v-508q0 -166 -168 -166q-53 0 -127 39l27 98l62 -13q9 -2 15.5 1.5t8.5 11.5t2.5 14t0.5 15v398h-168v-374h-180l1 374h-52v110h52v35q0 47 15.5 80.5t35.5 49.5t48 25t42 10t29 1q49 0 116 -36l-29 -97q-23 12 -50 12q-28 0 -28 -30v-50h347z" />
    <glyph glyph-name="f_b" unicode="fb" horiz-adv-x="932" 
d="M590 674v-251q12 32 44 53t66 21q86 0 143 -66t57 -189q0 -121 -52.5 -185.5t-130.5 -64.5q-84 0 -128 63v-55h-179v553h-134q-28 0 -28 -30v-39h82v-110h-82v-374h-180l1 374h-52v110h52v24q0 47 15.5 80.5t35.5 49.5t48 25t42 10t29 1h351zM641 363q-8 0 -18.5 -4
t-21.5 -19.5t-11 -39.5v-121q0 -58 66 -58q32 0 51 36.5t19 84.5q0 52 -21 86.5t-64 34.5z" />
    <glyph glyph-name="f_f_b" unicode="ffb" horiz-adv-x="1270" 
d="M928 674v-251q12 32 44 53t66 21q86 0 143 -66t57 -189q0 -121 -52.5 -185.5t-130.5 -64.5q-84 0 -128 63v-55h-179v553h-134q-28 0 -28 -30v-39h82v-110h-82v-374h-180l1 374h-159v-374h-180l1 374h-52v110h52v35q0 47 15.5 80.5t35.5 49.5t48 25t42 10t29 1
q49 0 116 -36l-29 -97q-23 12 -50 12q-28 0 -28 -30v-50h159v24q0 47 15.5 80.5t35.5 49.5t48 25t42 10t29 1h351zM979 363q-8 0 -18.5 -4t-21.5 -19.5t-11 -39.5v-121q0 -58 66 -58q32 0 51 36.5t19 84.5q0 52 -21 86.5t-64 34.5z" />
    <glyph glyph-name="f_h" unicode="fh" horiz-adv-x="933" 
d="M876 280v-280h-180v280q0 83 -39 83q-13 0 -26 -4.5t-27 -24t-14 -52.5v-282h-180v553h-134q-28 0 -28 -30v-39h82v-110h-82v-374h-180l1 374h-52v110h52v24q0 47 15.5 80.5t35.5 49.5t48 25t42 10t29 1h351v-251q16 40 48 57t56 17q182 0 182 -217z" />
    <glyph glyph-name="f_f_h" unicode="ffh" horiz-adv-x="1271" 
d="M1214 280v-280h-180v280q0 83 -39 83q-13 0 -26 -4.5t-27 -24t-14 -52.5v-282h-180v553h-134q-28 0 -28 -30v-39h82v-110h-82v-374h-180l1 374h-159v-374h-180l1 374h-52v110h52v35q0 47 15.5 80.5t35.5 49.5t48 25t42 10t29 1q49 0 116 -36l-29 -97q-23 12 -50 12
q-28 0 -28 -30v-50h159v24q0 47 15.5 80.5t35.5 49.5t48 25t42 10t29 1h351v-251q16 40 48 57t56 17q182 0 182 -217z" />
    <glyph glyph-name="f_k" unicode="fk" horiz-adv-x="908" 
d="M696 292l205 -292h-201l-110 184v-184h-180v553h-134q-28 0 -28 -30v-39h82v-110h-82v-374h-180l1 374h-52v110h52v24q0 47 15.5 80.5t35.5 49.5t48 25t42 10t29 1h351v-295l81 105h215z" />
    <glyph glyph-name="f_f_k" unicode="ffk" horiz-adv-x="1246" 
d="M1034 292l205 -292h-201l-110 184v-184h-180v553h-134q-28 0 -28 -30v-39h82v-110h-82v-374h-180l1 374h-159v-374h-180l1 374h-52v110h52v35q0 47 15.5 80.5t35.5 49.5t48 25t42 10t29 1q49 0 116 -36l-29 -97q-23 12 -50 12q-28 0 -28 -30v-50h159v24q0 47 15.5 80.5
t35.5 49.5t48 25t42 10t29 1h351v-295l81 105h215z" />
    <glyph glyph-name="f_t" unicode="ft" horiz-adv-x="722" 
d="M416 374h-168v-374h-180l1 374h-52v110h52v35q0 47 15.5 80.5t35.5 49.5t48 25t42 10t29 1q49 0 116 -36l-29 -97q-23 12 -50 12q-28 0 -28 -30v-50h168v114h186v-114h91v-110h-91v-231q0 -26 15 -26q33 0 81 19l7 -112q-68 -35 -118 -35h-23t-28.5 3.5t-34 9t-31 18
t-28 30t-18.5 46t-8 64.5v214z" />
    <glyph glyph-name="f_f_t" unicode="fft" horiz-adv-x="1060" 
d="M754 374h-168v-374h-180l1 374h-159v-374h-180l1 374h-52v110h52v35q0 47 15.5 80.5t35.5 49.5t48 25t42 10t29 1q49 0 116 -36l-29 -97q-23 12 -50 12q-28 0 -28 -30v-50h159v35q0 47 15.5 80.5t35.5 49.5t48 25t42 10t29 1q49 0 116 -36l-29 -97q-23 12 -50 12
q-28 0 -28 -30v-50h168v114h186v-114h91v-110h-91v-231q0 -26 15 -26q33 0 81 19l7 -112q-68 -35 -118 -35h-23t-28.5 3.5t-33.5 9t-31 18t-28.5 30t-18.5 46t-8 64.5v214z" />
    <glyph glyph-name="t_h" unicode="th" horiz-adv-x="970" 
d="M447 0v374h-183v-231q0 -26 15 -26q33 0 81 19l7 -112q-68 -35 -118 -35h-23t-28.5 3.5t-33.5 9t-31 18t-28.5 30t-18.5 46t-8 64.5v214h-69v110h69v114h186v-114h183v190h180v-251q16 40 48 57t56 17q182 0 182 -217v-280h-180v280q0 83 -39 83q-13 0 -26 -4.5t-27 -24
t-14 -52.5v-282h-180z" />
    <glyph glyph-name=".notdef" horiz-adv-x="500" 
 />
    <glyph glyph-name=".null" horiz-adv-x="0" 
 />
    <glyph glyph-name="nonmarkingreturn" horiz-adv-x="333" 
 />
    <glyph glyph-name="space" unicode=" " horiz-adv-x="278" 
 />
    <glyph glyph-name="space" unicode="&#xa0;" horiz-adv-x="278" 
 />
    <glyph glyph-name="exclam" unicode="!" horiz-adv-x="315" 
d="M84 196l-13 478h173l-13 -478h-147zM67 0v141h181v-141h-181z" />
    <glyph glyph-name="quotedbl" unicode="&#x22;" horiz-adv-x="461" 
d="M63 357l-26 317h174l-26 -317h-122zM276 357l-26 317h174l-26 -317h-122z" />
    <glyph glyph-name="numbersign" unicode="#" horiz-adv-x="624" 
d="M252 674h133l-58 -191h66l58 191h131l-58 -191h63v-100h-96l-31 -98h72l-1 -103h-104l-59 -182h-128l59 182h-67l-60 -182h-132l58 182h-61v103h93l29 98h-72l1 100h106zM294 383l-31 -98h68l31 98h-68z" />
    <glyph glyph-name="dollar" unicode="$" horiz-adv-x="617" 
d="M247 -117v114q-35 3 -68 15q-97 36 -152 89l64 128q43 -39 110.5 -66.5t125.5 -27.5q30 0 53 12t23 38q0 35 -32 49l-173 67q-79 32 -115 78.5t-36 97.5q0 81 55 134.5t145 68.5v97h122v-96q92 -13 196 -90l-53 -121q-54 34 -100 51t-59.5 18t-38.5 1q-38 0 -60.5 -14
t-22.5 -34q0 -29 43 -50l171 -64q145 -56 145 -177q0 -89 -63 -142.5t-158 -63.5v-112h-122z" />
    <glyph glyph-name="percent" unicode="%" horiz-adv-x="814" 
d="M21 505q0 79 45.5 124t123.5 45q79 0 125.5 -45.5t46.5 -123.5q0 -79 -46.5 -124.5t-125.5 -45.5q-78 0 -123.5 45.5t-45.5 124.5zM234 505q0 27 -12.5 47t-31.5 20q-18 0 -30 -20t-12 -47t12 -46.5t30 -19.5t31 19.5t13 46.5zM451 165q0 79 45.5 124t123.5 45
q79 0 125.5 -45.5t46.5 -123.5q0 -79 -46.5 -124.5t-125.5 -45.5q-78 0 -123.5 45.5t-45.5 124.5zM664 165q0 27 -12.5 47t-31.5 20q-18 0 -30 -20t-12 -47t12 -46.5t30 -19.5t31 19.5t13 46.5zM155 0l398 674h80l-397 -674h-81z" />
    <glyph glyph-name="ampersand" unicode="&#x26;" horiz-adv-x="644" 
d="M214 195q0 -37 19 -59t54 -22q22 0 45 15.5t36 35.5l-106 105q-18 -12 -33 -32.5t-15 -42.5zM321 492q-2 53 -34 53q-28 0 -35 -52q-2 -25 7 -47.5t26 -31.5q17 12 27.5 34t8.5 44zM401 331l43 -41q14 14 14 53h133q0 -72 -5.5 -104.5t-26.5 -67.5q37 -35 52 -68t15 -103
h-154q0 8 0.5 19t0.5 18t-2 15.5t-6 15.5q-24 -30 -74 -54t-104 -24q-123 0 -186.5 57t-63.5 141q0 109 105 170q-58 61 -56 138q6 75 64.5 117t136.5 42q77 0 135 -41.5t64 -115.5q6 -97 -85 -167z" />
    <glyph glyph-name="quotesingle" unicode="'" horiz-adv-x="248" 
d="M63 357l-26 317h174l-26 -317h-122z" />
    <glyph glyph-name="parenleft" unicode="(" horiz-adv-x="428" 
d="M57 253q0 193 87 309t227 116v-104q-61 0 -114 -89t-53 -233t53.5 -233.5t113.5 -89.5v-103q-140 0 -227 117t-87 310z" />
    <glyph glyph-name="parenright" unicode=")" horiz-adv-x="428" 
d="M371 253q0 -193 -86.5 -310t-227.5 -117v103q60 0 113.5 89.5t53.5 233.5t-53 233t-114 89v104q141 0 227.5 -116t86.5 -309z" />
    <glyph glyph-name="asterisk" unicode="*" horiz-adv-x="422" 
d="M257 584l74 47l54 -88l-88 -42l88 -40l-54 -90l-74 47l4 -86h-98l5 86l-78 -47l-53 90l88 41q-3 1 -8 2.5t-8 3.5l-72 33l53 90l77 -47l-2 42q-2 30 -2 44h98z" />
    <glyph glyph-name="plus" unicode="+" horiz-adv-x="593" 
d="M37 400h178v175h164v-175h177v-134h-177v-175h-164v175h-178v134z" />
    <glyph glyph-name="comma" unicode="," horiz-adv-x="379" 
d="M37 -88l120 239h185l-156 -239h-149z" />
    <glyph glyph-name="hyphen" unicode="-" horiz-adv-x="465" 
d="M428 185h-391v148h391v-148z" />
    <glyph glyph-name="period" unicode="." horiz-adv-x="281" 
d="M47 0v151h187v-151h-187z" />
    <glyph glyph-name="slash" unicode="/" horiz-adv-x="413" 
d="M386 674l-236 -674h-123l235 674h124z" />
    <glyph glyph-name="zero" unicode="0" 
d="M294 -12q-119 0 -189 89t-70 242q0 154 70 243t189 89q123 0 193.5 -89t70.5 -243t-70.5 -242.5t-193.5 -88.5zM294 519q-40 0 -62.5 -60t-22.5 -140q0 -81 22.5 -140t62.5 -59q43 0 66.5 58.5t23.5 140.5q0 81 -23.5 140.5t-66.5 59.5z" />
    <glyph glyph-name="one" unicode="1" 
d="M169 379l-84 100l188 161h144v-640h-174v441z" />
    <glyph glyph-name="two" unicode="2" 
d="M295 495q-37 0 -75.5 -24t-63.5 -54l-88 97q29 33 55 56t74.5 45t101.5 22q100 0 168.5 -57t68.5 -150q0 -35 -15 -66t-46 -58.5t-56.5 -45t-68.5 -42.5h1q-88 -56 -109 -78h283v-140h-467v60q0 52 11.5 89.5t51.5 77.5t66.5 59.5t106.5 73.5q25 17 38 26q32 26 32 49
q0 25 -18.5 42.5t-50.5 17.5z" />
    <glyph glyph-name="three" unicode="3" 
d="M303 -10q-142 0 -251 99l72 95q64 -61 146 -61q92 0 92 65q0 29 -17.5 49.5t-50.5 20.5h-80v137h77q30 0 47 18t17 43t-16 44t-44 19q-97 0 -151 -63l-73 90q10 16 33.5 37t78 44.5t117.5 23.5q101 0 166.5 -51t65.5 -142q0 -36 -20 -71t-66 -57q45 -14 70.5 -59.5
t25.5 -80.5q0 -90 -71 -145t-168 -55z" />
    <glyph glyph-name="four" unicode="4" 
d="M476 0l-175 1v113h-268v112q47 111 123.5 221.5t160.5 192.5h159v-392h84v-135h-84v-113zM182 248h119v183q-90 -111 -119 -183z" />
    <glyph glyph-name="five" unicode="5" 
d="M382 224q0 37 -22 67.5t-64 30.5q-23 0 -46 -12t-34 -39h-150l61 370h374v-141h-254l-16 -99q38 41 122 41q80 0 136 -59t56 -160q0 -60 -23 -107.5t-62 -75t-85 -41.5t-96 -14q-137 0 -230 103l75 110q72 -75 148 -75q58 0 84 29.5t26 71.5z" />
    <glyph glyph-name="six" unicode="6" 
d="M512 589l-43 -104q-54 37 -129 37q-44 0 -83 -37.5t-34 -105.5q23 30 55.5 43t59.5 13q88 0 147 -61t59 -162q0 -105 -68 -164.5t-175 -59.5q-63 0 -110 21.5t-73 52.5t-42 75t-21 81t-5 78q0 169 76 262t201 93q93 0 185 -62zM299 117q33 0 49.5 29.5t16.5 65.5
q0 35 -17.5 66t-49.5 31q-29 0 -45.5 -27t-16.5 -64q0 -44 17 -72.5t46 -28.5z" />
    <glyph glyph-name="seven" unicode="7" 
d="M51 501v139h491v-106q-94 -118 -155.5 -246t-112.5 -288h-195q102 271 284 501h-312z" />
    <glyph glyph-name="eight" unicode="8" 
d="M296 -12q-123 0 -186.5 56t-63.5 140q0 44 28 89.5t85 59.5q-45 20 -69.5 60t-24.5 77q0 75 53 118t130 57q36 4 48 4q25 0 53 -4q73 -14 125.5 -58t52.5 -117q0 -39 -20.5 -77t-69.5 -60q37 -10 63.5 -39t36.5 -57.5t10 -52.5q0 -84 -64 -140t-187 -56zM296 124
q35 0 58.5 19t23.5 46q0 35 -22 56t-60 21q-37 0 -57.5 -21t-20.5 -56q0 -31 23.5 -48t54.5 -17zM294 403q29 0 51.5 15.5t22.5 41.5q0 29 -19.5 45t-52.5 16q-31 0 -51 -16t-20 -43q0 -28 20.5 -43.5t48.5 -15.5z" />
    <glyph glyph-name="nine" unicode="9" 
d="M82 50l43 104q57 -37 129 -37q44 0 83 37.5t34 105.5q-46 -56 -115 -56q-88 0 -147 61t-59 162q0 105 68 164.5t175 59.5q63 0 110 -21.5t73 -52.5t42 -75t21 -81t5 -78q0 -169 -76 -262t-201 -93q-93 0 -185 62zM295 522q-33 0 -49.5 -29.5t-16.5 -65.5q0 -35 17.5 -66
t49.5 -31q29 0 45.5 27t16.5 64q0 44 -17 72.5t-46 28.5z" />
    <glyph glyph-name="colon" unicode=":" horiz-adv-x="262" 
d="M37 0v151h188v-151h-188zM37 333v151h188v-151h-188z" />
    <glyph glyph-name="semicolon" unicode=";" horiz-adv-x="379" 
d="M155 333v151h187v-151h-187zM37 -88l120 239h185l-156 -239h-149z" />
    <glyph glyph-name="less" unicode="&#x3c;" horiz-adv-x="606" 
d="M549 512v-155l-295 -117l295 -116v-153l-522 231v80z" />
    <glyph glyph-name="equal" unicode="=" horiz-adv-x="530" 
d="M493 358h-456v126h456v-126zM493 160h-456v126h456v-126z" />
    <glyph glyph-name="greater" unicode="&#x3e;" horiz-adv-x="607" 
d="M57 357v155l522 -230v-80l-522 -231v153l295 116z" />
    <glyph glyph-name="question" unicode="?" horiz-adv-x="571" 
d="M324 418q30 27 30 68q0 26 -18 46.5t-47 20.5q-38 0 -72.5 -25.5t-50.5 -56.5l-104 82q10 18 26.5 37.5t44 42t69.5 37t90 14.5q104 0 173 -52.5t69 -151.5q0 -57 -39.5 -109.5t-91.5 -84.5q-28 -23 -35 -34q-12 -20 -12 -66h-157q0 47 2.5 71.5t16 49t30.5 41.5t57 53
q12 11 19 17zM189 0v141h181v-141h-181z" />
    <glyph glyph-name="at" unicode="@" horiz-adv-x="827" 
d="M701 106l43 -59q-53 -56 -140.5 -90.5t-170.5 -34.5q-171 0 -278.5 105.5t-107.5 275.5q0 167 108 270.5t268 103.5q91 0 163 -29t112.5 -75.5t61 -98.5t20.5 -105q0 -73 -22 -130t-58 -89.5t-74.5 -48.5t-77.5 -16q-37 0 -59.5 27t-25.5 61q-13 -29 -36.5 -46t-38 -20.5
t-25.5 -3.5q-74 0 -115 38.5t-41 115.5q0 97 60.5 163.5t137.5 66.5q50 0 68 -55l11 47h137l-55 -244q-4 -5 -1.5 -26.5t17.5 -21.5q10 0 24.5 10.5t30.5 30t27 55.5t11 80q0 108 -74.5 163.5t-177.5 55.5q-117 0 -192.5 -77.5t-75.5 -201.5q0 -129 75 -211.5t206 -82.5
q128 0 265 97zM430 387q-43 0 -64 -40.5t-21 -92.5t27 -52q18 0 40.5 13t27.5 39l18 107q2 14 -8.5 20t-19.5 6z" />
    <glyph glyph-name="A" unicode="A" horiz-adv-x="742" 
d="M205 0h-196l280 674h164l280 -674h-196l-57 147h-219zM370 500l-70 -220h142z" />
    <glyph glyph-name="B" unicode="B" horiz-adv-x="654" 
d="M386 272h-137v-134h137q28 0 44 19t16 44q0 28 -16 49.5t-44 21.5zM601 479q0 -79 -74 -120q48 -9 76.5 -59.5t28.5 -99.5q0 -76 -57.5 -138t-162.5 -62h-350v674h320q110 0 164.5 -56.5t54.5 -138.5zM249 406h123q20 0 32.5 21t12.5 41q0 30 -15.5 49t-41.5 19h-111
v-130z" />
    <glyph glyph-name="C" unicode="C" horiz-adv-x="653" 
d="M37 337q0 149 96.5 248.5t256.5 99.5q55 0 121 -14.5t115 -40.5l-47 -119q-86 32 -169 32q-63 0 -106 -31.5t-60.5 -76.5t-17.5 -98q0 -84 45.5 -144t138.5 -60q75 0 172 33l44 -120q-50 -25 -116 -39.5t-120 -14.5q-160 0 -256.5 98.5t-96.5 246.5z" />
    <glyph glyph-name="D" unicode="D" horiz-adv-x="713" 
d="M328 0h-266v674h266q167 0 260 -85.5t93 -251.5t-93 -251.5t-260 -85.5zM248 141h84q73 0 119 48.5t46 147.5q0 101 -45 148.5t-123 47.5h-81v-392z" />
    <glyph glyph-name="E" unicode="E" horiz-adv-x="613" 
d="M571 0h-509v674h503v-141h-317v-123h293v-141h-293v-128h323v-141z" />
    <glyph glyph-name="F" unicode="F" horiz-adv-x="571" 
d="M250 -1l-188 1v674h477v-141h-289v-123h266v-141h-266v-270z" />
    <glyph glyph-name="G" unicode="G" horiz-adv-x="717" 
d="M501 258h-130v135h304v-337q-44 -28 -122.5 -45.5t-137.5 -17.5q-172 0 -275 97.5t-103 246.5t103 248.5t275 99.5q134 0 252 -74l-62 -116q-79 49 -181 49q-103 0 -151 -60.5t-48 -146.5q0 -82 52.5 -142.5t147.5 -60.5q36 0 76 10v114z" />
    <glyph glyph-name="H" unicode="H" horiz-adv-x="705" 
d="M456 275h-207v-275h-187v674h187v-258h207v258h187v-674h-187v275z" />
    <glyph glyph-name="I" unicode="I" horiz-adv-x="310" 
d="M62 0v674h186v-674h-186z" />
    <glyph glyph-name="J" unicode="J" horiz-adv-x="487" 
d="M7 45l42 121q31 -18 69 -31t64 -13q59 0 59 81v471h184v-477q0 -204 -215 -204q-93 0 -203 52z" />
    <glyph glyph-name="K" unicode="K" horiz-adv-x="669" 
d="M662 0h-222l-176 243l-16 -19v-224h-186v674h186v-223l161 223h214l-245 -306z" />
    <glyph glyph-name="L" unicode="L" horiz-adv-x="583" 
d="M250 674v-532h296v-142h-484v674h188z" />
    <glyph glyph-name="M" unicode="M" horiz-adv-x="894" 
d="M373 0l-119 358l-23 -358h-184l52 674h201l147 -444q22 63 72 216t76 228h200l52 -674h-182l-23 358l-121 -358h-148z" />
    <glyph glyph-name="N" unicode="N" horiz-adv-x="709" 
d="M441 0l-194 388v-388h-185v674h215l185 -382v382h185v-674h-206z" />
    <glyph glyph-name="O" unicode="O" horiz-adv-x="757" 
d="M378 -7q-158 0 -249.5 91t-91.5 253t91.5 255t249.5 93t250 -93t92 -255t-91.5 -253t-250.5 -91zM378 546q-72 0 -110.5 -59.5t-38.5 -149.5q0 -93 38 -149.5t111 -56.5t111.5 57t38.5 149q0 89 -39 149t-111 60z" />
    <glyph glyph-name="P" unicode="P" horiz-adv-x="627" 
d="M389 233h-140v-233h-187v674h320q61 0 107.5 -21.5t71.5 -56.5t37 -72.5t12 -76.5q0 -12 -2.5 -30.5t-15.5 -53t-34.5 -61.5t-65.5 -48t-103 -21zM249 374h112q36 0 52 26t16 51q0 34 -17.5 58t-51.5 24h-111v-159z" />
    <glyph glyph-name="Q" unicode="Q" horiz-adv-x="747" 
d="M470 -4l-92 -8q-153 0 -247 94t-94 255q0 162 91.5 255t249.5 93t250 -93t92 -255q0 -174 -117 -273q12 -16 38 -16h78v-127h-83q-70 0 -101 13.5t-53 41.5zM378 546q-72 0 -110.5 -59.5t-38.5 -149.5q0 -93 38 -151t111 -58t111.5 58t38.5 151q0 89 -39 149t-111 60z
" />
    <glyph glyph-name="R" unicode="R" horiz-adv-x="671" 
d="M609 461q0 -16 -4 -33.5t-14 -42t-35 -46.5t-61 -36q14 -3 24.5 -9.5t18.5 -17t12 -16.5t10 -20.5t6 -15.5l88 -224h-191l-79 192q-18 48 -56 49h-80v-241h-186v674h311q56 0 99 -13t68.5 -34t41.5 -50t21.5 -57t5.5 -59zM248 382h114q34 0 49.5 25t15.5 48
q0 33 -17 55.5t-48 22.5h-114v-151z" />
    <glyph glyph-name="S" unicode="S" horiz-adv-x="617" 
d="M308 685q79 0 135.5 -22t121.5 -72l-53 -121q-54 34 -100 51t-59.5 18t-38.5 1q-38 0 -60.5 -14t-22.5 -34q0 -29 43 -50l171 -64q145 -56 145 -177q0 -99 -77 -153.5t-187 -54.5q-99 0 -147 19q-97 36 -152 89l64 128q43 -39 110.5 -66.5t125.5 -27.5q30 0 53 12t23 38
q0 35 -32 49l-173 67q-79 32 -115 78.5t-36 97.5q0 96 73.5 152t187.5 56z" />
    <glyph glyph-name="T" unicode="T" horiz-adv-x="591" 
d="M582 533h-194v-533h-186v533h-193v141h573v-141z" />
    <glyph glyph-name="U" unicode="U" horiz-adv-x="727" 
d="M363 -12q-147 0 -224 72.5t-77 242.5v371h187v-372q0 -88 27.5 -131t86.5 -43q62 0 89 42.5t27 131.5v372h186v-371q0 -171 -76.5 -243t-225.5 -72z" />
    <glyph glyph-name="V" unicode="V" horiz-adv-x="694" 
d="M9 674h192l147 -449l146 449h191l-254 -674h-166z" />
    <glyph glyph-name="W" unicode="W" horiz-adv-x="968" 
d="M569 652l98 -398l98 420h194l-206 -674h-170l-98 387l-100 -387h-169l-207 674h191l101 -420l99 398h169z" />
    <glyph glyph-name="X" unicode="X" horiz-adv-x="728" 
d="M503 0l-140 210l-140 -210h-214l252 333l-240 341h213l130 -210l130 210h212l-240 -341l253 -333h-216z" />
    <glyph glyph-name="Y" unicode="Y" horiz-adv-x="724" 
d="M457 0h-189v238l-259 436h213l141 -284l138 284h214l-258 -435v-239z" />
    <glyph glyph-name="Z" unicode="Z" horiz-adv-x="624" 
d="M586 0h-564v121l335 412h-319v141h564v-118l-341 -413h325v-143z" />
    <glyph glyph-name="bracketleft" unicode="[" horiz-adv-x="366" 
d="M309 559h-103v-619h103v-114h-252v848h252v-115z" />
    <glyph glyph-name="backslash" unicode="\" horiz-adv-x="413" 
d="M263 0l-236 674h124l235 -674h-123z" />
    <glyph glyph-name="bracketright" unicode="]" horiz-adv-x="366" 
d="M160 559h-103v115h252v-848h-252v114h103v619z" />
    <glyph glyph-name="asciicircum" unicode="^" horiz-adv-x="490" 
d="M37 361l155 313h107l154 -313h-150l-58 162l-59 -162h-149z" />
    <glyph glyph-name="underscore" unicode="_" horiz-adv-x="651" 
d="M37 -12h577v-114h-577v114z" />
    <glyph glyph-name="grave" unicode="`" horiz-adv-x="326" 
d="M210 708l79 -154h-130l-122 154h173z" />
    <glyph glyph-name="a" unicode="a" horiz-adv-x="536" 
d="M484 0h-178v63q-16 -28 -54 -47.5t-86 -19.5q-59 0 -98 43t-39 106q0 149 279 175v15q-4 44 -64 44q-49 0 -101 -21q-27 -12 -44 -21l-42 104q0 2 27.5 15.5t82 28t109.5 14.5q122 0 176 -68q32 -41 32 -102v-329zM226 120q11 0 27.5 3.5t35.5 18t19 37.5v46
q-41 0 -78 -21.5t-37 -51.5q0 -32 33 -32z" />
    <glyph glyph-name="b" unicode="b" horiz-adv-x="579" 
d="M237 674v-251q12 32 44 53t66 21q86 0 143 -66t57 -189q0 -121 -52.5 -185.5t-130.5 -64.5q-84 0 -128 63v-55h-179v674h180zM288 363q-8 0 -18.5 -4t-21.5 -19.5t-11 -39.5v-121q0 -58 66 -58q32 0 51 36.5t19 84.5q0 52 -21 86.5t-64 34.5z" />
    <glyph glyph-name="c" unicode="c" horiz-adv-x="501" 
d="M32 242q0 117 70 186t191 69q92 0 181 -46l-37 -115q-50 27 -129 27q-47 0 -72.5 -35.5t-25.5 -85.5t25.5 -85t72.5 -35q71 0 129 25l37 -114q-88 -45 -181 -45q-121 0 -191 68t-70 186z" />
    <glyph glyph-name="d" unicode="d" horiz-adv-x="579" 
d="M342 423v251h180v-674h-179v55q-47 -63 -128 -63q-78 0 -130.5 64.5t-52.5 185.5q0 123 57 189t143 66q34 0 66 -21t44 -53zM291 363q-43 0 -64 -34.5t-21 -86.5q0 -48 19 -84.5t51 -36.5q66 0 66 58v121q0 34 -18 48.5t-33 14.5z" />
    <glyph glyph-name="e" unicode="e" horiz-adv-x="562" 
d="M291 -7q-121 0 -190 71.5t-69 177.5q0 112 68 183.5t182 71.5q116 0 182 -71.5t66 -180.5q0 -26 -4 -59h-320q5 -33 34 -52t76 -19q62 0 145 29l41 -98q-86 -53 -211 -53zM204 293h163q0 35 -21 60.5t-60 25.5q-41 0 -61.5 -26.5t-20.5 -59.5z" />
    <glyph glyph-name="f" unicode="f" horiz-adv-x="332" 
d="M17 484h52v35q0 47 15.5 80.5t35.5 49.5t48 25t42 10t29 1q49 0 116 -36l-29 -97q-23 12 -50 12q-28 0 -28 -30v-50h82v-110h-82v-374h-180l1 374h-52v110z" />
    <glyph glyph-name="g" unicode="g" horiz-adv-x="581" 
d="M292 121q18 0 35 14t17 46v124q0 59 -67 59q-31 0 -45.5 -35.5t-14.5 -86.5q0 -121 75 -121zM275 -64q73 0 77 55v64q-33 -61 -91 -61q-41 0 -80.5 15t-73 44t-54.5 78t-21 111q0 122 54.5 188.5t135.5 66.5q40 0 74.5 -19.5t48.5 -54.5v61h179v-507q0 -47 -20.5 -81.5
t-56 -53t-75.5 -26.5t-87 -8q-58 0 -116 17.5t-90 40.5l42 110q66 -40 154 -40z" />
    <glyph glyph-name="h" unicode="h" horiz-adv-x="580" 
d="M523 280v-280h-180v280q0 83 -39 83q-13 0 -26 -4.5t-27 -24t-14 -52.5v-282h-180v674h180v-251q16 40 48 57t56 17q182 0 182 -217z" />
    <glyph glyph-name="i" unicode="i" horiz-adv-x="294" 
d="M57 0v484h180v-484h-180zM57 538v136h180v-136h-180z" />
    <glyph glyph-name="j" unicode="j" horiz-adv-x="300" 
d="M242 484v-508q0 -166 -168 -166q-53 0 -127 39l27 98l54 -15q16 -2 24.5 6.5t9.5 16.5t1 21v508h179zM63 538v136h180v-136h-180z" />
    <glyph glyph-name="k" unicode="k" horiz-adv-x="555" 
d="M343 292l205 -292h-201l-110 184v-184h-180v674h180v-295l81 105h215z" />
    <glyph glyph-name="l" unicode="l" horiz-adv-x="294" 
d="M57 0v674h180v-674h-180z" />
    <glyph glyph-name="m" unicode="m" horiz-adv-x="815" 
d="M320 0v292q0 71 -41 71t-41 -92v-271h-181v484h175v-61q16 40 54.5 57t67.5 17q87 0 120 -74q25 43 58.5 58.5t82.5 15.5q56 0 99.5 -47t43.5 -157v-293h-179v279q0 84 -39 84q-4 0 -7.5 -0.5t-10.5 -4.5t-12 -11t-8.5 -21t-3.5 -33v-293h-178z" />
    <glyph glyph-name="n" unicode="n" horiz-adv-x="580" 
d="M523 278v-278h-180v278q0 87 -39 87q-21 0 -44 -19.5t-23 -65.5v-280h-180v484h174v-61q21 40 55 57t58 17q88 0 133.5 -50.5t45.5 -168.5z" />
    <glyph glyph-name="o" unicode="o" horiz-adv-x="569" 
d="M32 243q0 118 68 186t184 68q117 0 185 -68t68 -186q0 -117 -67.5 -183.5t-185.5 -66.5q-117 0 -184.5 66.5t-67.5 183.5zM358 243q0 49 -20 86t-54 37t-53.5 -37t-19.5 -86q0 -50 19.5 -87t53.5 -37t54 37.5t20 86.5z" />
    <glyph glyph-name="p" unicode="p" horiz-adv-x="579" 
d="M236 56v-230h-179v658h178v-61q16 30 48 52t61 22q89 0 146 -65.5t57 -188.5q0 -122 -60 -186t-152 -64q-26 0 -59 17.5t-40 45.5zM287 121q76 0 76 122q0 50 -14.5 85t-45.5 35q-67 0 -67 -57v-120q0 -26 11.5 -42t21.5 -19.5t18 -3.5z" />
    <glyph glyph-name="q" unicode="q" horiz-adv-x="579" 
d="M343 -174v230q-7 -28 -40 -45.5t-59 -17.5q-92 0 -152 64t-60 186q0 123 57 188.5t146 65.5q29 0 61 -22t48 -52v61h178v-658h-179zM292 121q8 0 18 3.5t21.5 19.5t11.5 42v120q0 57 -67 57q-31 0 -45.5 -35t-14.5 -85q0 -122 76 -122z" />
    <glyph glyph-name="r" unicode="r" horiz-adv-x="394" 
d="M361 490v-150h-29q-47 0 -70 -31.5t-23 -77.5l1 -231h-178v484h174v-78q34 84 103 84h22z" />
    <glyph glyph-name="s" unicode="s" horiz-adv-x="489" 
d="M27 71l68 97q51 -37 115 -51t76 12q11 24 -14 32l-118 44q-65 28 -90.5 62.5t-25.5 78.5q0 67 57.5 108.5t149.5 41.5q114 0 206 -62l-56 -102q-70 45 -146 45q-25 0 -27 -19q-1 -20 29 -31l87 -29q73 -25 106 -86.5t4 -131.5q-21 -41 -71.5 -64t-120.5 -23
q-133 0 -229 78z" />
    <glyph glyph-name="t" unicode="t" horiz-adv-x="384" 
d="M78 374h-69v110h69v114h186v-114h91v-110h-91v-231q0 -26 15 -26q33 0 81 19l7 -112q-68 -35 -118 -35h-23t-28.5 3.5t-33.5 9t-31 18t-28.5 30t-18.5 46t-8 64.5v214z" />
    <glyph glyph-name="u" unicode="u" horiz-adv-x="580" 
d="M57 206v278h180v-278q0 -85 39 -85q8 0 16 1.5t21 7.5t21.5 21.5t8.5 38.5v294h180v-484h-174v56q-12 -22 -29.5 -36t-36 -19t-27.5 -6.5t-16 -1.5q-32 0 -62 10.5t-58.5 33t-45.5 66.5t-17 103z" />
    <glyph glyph-name="v" unicode="v" horiz-adv-x="593" 
d="M378 0h-162l-207 484h190l98 -298l98 298h189z" />
    <glyph glyph-name="w" unicode="w" horiz-adv-x="812" 
d="M9 484h188l62 -263l61 263h172l62 -260l62 260h187l-168 -484h-154l-75 238l-73 -238h-156z" />
    <glyph glyph-name="x" unicode="x" horiz-adv-x="604" 
d="M377 484h202l-173 -239l189 -245h-204l-89 135l-90 -135h-203l185 245l-174 239h204l78 -127z" />
    <glyph glyph-name="y" unicode="y" horiz-adv-x="595" 
d="M87 -149l15 110q18 -5 49 -8q10 -1 21.5 6t16.5 20l22 51q-11 26 -31 72t-70.5 157.5t-100.5 224.5h189l102 -285l96 285h190l-243 -571q-21 -50 -67 -68.5t-86 -18.5q-32 0 -103 25z" />
    <glyph glyph-name="z" unicode="z" horiz-adv-x="496" 
d="M22 0v104l226 252h-218v128h444v-104l-224 -252h216v-128h-444z" />
    <glyph glyph-name="braceleft" unicode="{" horiz-adv-x="395" 
d="M270 538v-160q0 -36 -21 -71.5t-54 -51.5q32 -12 53.5 -49t21.5 -74v-170q0 -24 21 -24h67v-112h-89q-63 0 -103 35.5t-40 92.5v165q0 26 -3.5 42.5t-19.5 31.5t-46 19v86q42 3 56 28t14 64v156q0 57 39.5 92.5t102.5 35.5h89v-112h-68q-20 0 -20 -24z" />
    <glyph glyph-name="bar" unicode="|" horiz-adv-x="236" 
d="M57 -108v878h122v-878h-122z" />
    <glyph glyph-name="braceright" unicode="}" horiz-adv-x="395" 
d="M125 378v160q0 24 -20 24h-68v112h89q63 0 102.5 -35.5t39.5 -92.5v-156q0 -18 2.5 -31t9 -27.5t21.5 -23t37 -10.5v-86q-30 -4 -46 -19t-19.5 -31.5t-3.5 -42.5v-165q0 -57 -40 -92.5t-103 -35.5h-89v112h67q21 0 21 24v170q0 37 21.5 74t53.5 49q-33 16 -54 51.5
t-21 71.5z" />
    <glyph glyph-name="asciitilde" unicode="~" horiz-adv-x="526" 
d="M198 371q22 0 62 -20.5t61 -20.5q40 0 40 55h128q0 -93 -39.5 -138.5t-124.5 -45.5q-23 0 -64 20.5t-62 20.5q-36 0 -35 -56h-127q0 96 38.5 140.5t122.5 44.5z" />
    <glyph glyph-name="exclamdown" unicode="&#xa1;" horiz-adv-x="315" 
d="M71 -174l13 462h147l13 -462h-173zM67 344v140h181v-140h-181z" />
    <glyph glyph-name="cent" unicode="&#xa2;" horiz-adv-x="501" 
d="M205 -108v107q-82 22 -127.5 85t-45.5 158q0 94 45 157t128 86v93h122v-83q82 -12 147 -44l-37 -115q-50 27 -129 27q-47 0 -72.5 -35.5t-25.5 -85.5t25.5 -85t72.5 -35q71 0 129 25l37 -114q-71 -35 -147 -43v-98h-122z" />
    <glyph glyph-name="sterling" unicode="&#xa3;" horiz-adv-x="553" 
d="M271 307v-190h225v-129h-463v129h57v190h-73v119h73v2q0 104 56 161t130 67h-1q9 3 56 3q90 0 170 -56l-51 -102q-73 30 -119 30q-29 0 -44.5 -28.5t-15.5 -74.5v-2h149v-119h-149z" />
    <glyph glyph-name="currency" unicode="&#xa4;" horiz-adv-x="534" 
d="M37 450l74 79l66 -66q42 19 86 19q42 0 87 -19l65 64l82 -84l-64 -63q20 -40 20 -79q0 -43 -25 -92l62 -60l-81 -78l-59 60q-46 -23 -88 -23q-43 0 -84 16l-67 -64l-74 82l57 58q-27 44 -27 94q0 55 30 95q-44 44 -60 61zM317 297q0 26 -18.5 41t-39.5 15
q-20 0 -37 -15.5t-17 -43.5t16.5 -42.5t37.5 -14.5t39.5 15.5t18.5 44.5z" />
    <glyph glyph-name="yen" unicode="&#xa5;" horiz-adv-x="630" 
d="M404 0h-177v81h-144v104h144v55h-144v105h103l-177 329h196l110 -255l111 255h195l-178 -329h102v-105h-141v-55h141v-104h-141v-81z" />
    <glyph glyph-name="brokenbar" unicode="&#xa6;" horiz-adv-x="236" 
d="M57 -108v395h122v-395h-122zM57 376v395h122v-395h-122z" />
    <glyph glyph-name="section" unicode="&#xa7;" horiz-adv-x="499" 
d="M256 121q19 0 22 10q6 10 -8 18l-81 34q-136 53 -136 148q0 55 47 100q-39 51 -31 111q9 57 59.5 91t128.5 34q88 0 198 -73l-60 -99q-58 40 -133 40q-21 0 -23 -17q-1 -6 5.5 -9.5t29.5 -13.5q107 -39 140 -67q48 -47 48 -97q0 -67 -44 -107q30 -46 30 -90
q0 -62 -53.5 -104t-138.5 -42q-125 0 -219 87l67 102q68 -56 152 -56zM294 339l-71 28q-8 -10 -8 -23q0 -30 50 -51q4 -1 9 -3t8 -3.5t5 -1.5q8 7 14 16t5.5 20.5t-12.5 17.5z" />
    <glyph glyph-name="dieresis" unicode="&#xa8;" horiz-adv-x="412" 
d="M37 555v136h148v-136h-148zM227 555v136h148v-136h-148z" />
    <glyph glyph-name="copyright" unicode="&#xa9;" horiz-adv-x="784" 
d="M37 336q0 145 104 247t251 102t251 -102t104 -247t-104 -247t-251 -102t-251 102t-104 247zM198 334q0 87 54.5 144.5t144.5 57.5q76 0 121 -23l-20 -51q-43 17 -89 17q-72 0 -105 -42t-33 -103q0 -62 32.5 -103.5t104.5 -41.5q45 0 92 16l18 -50q-45 -23 -121 -23
q-90 0 -144.5 57.5t-54.5 144.5zM106 335q0 -117 84.5 -200.5t204.5 -83.5t204.5 83.5t84.5 200.5t-84.5 200.5t-204.5 83.5t-204.5 -83.5t-84.5 -200.5z" />
    <glyph glyph-name="ordfeminine" unicode="&#xaa;" horiz-adv-x="357" 
d="M35 401h295v-79h-295v79zM330 443h-131v33q-10 -14 -35 -25.5t-41 -11.5q-34 0 -65 26.5t-31 80.5q0 83 174 100q0 32 -22 32q-27 0 -65 -10q-22 -6 -33 -11l-37 60q0 2 18 14t54.5 25t73.5 13q2 1 15.5 0.5t35 -6t41.5 -16.5t34 -34.5t14 -56.5v-213zM151 525
q7 0 16.5 2t21.5 10t12 21v31q-62 -15 -62 -48q0 -16 12 -16z" />
    <glyph glyph-name="guillemotleft" unicode="&#xab;" horiz-adv-x="612" 
d="M198 325l133 -232h-153l-131 232l131 232h153zM432 325l133 -232h-153l-131 232l131 232h153z" />
    <glyph glyph-name="logicalnot" unicode="&#xac;" 
d="M399 279h-362v144h520v-266h-158v122z" />
    <glyph glyph-name="registered" unicode="&#xae;" horiz-adv-x="784" 
d="M539 412q0 -74 -66 -95q24 -14 37 -46l53 -126h-74l-53 123q-15 28 -43 28h-81v-151h-70v390h173q69 0 96.5 -36t27.5 -87zM312 353h104q30 0 42 19t12 40q0 68 -59 68h-99v-127zM37 336q0 145 104 247t251 102t251 -102t104 -247t-104 -247t-251 -102t-251 102t-104 247
zM106 335q0 -117 84.5 -200.5t204.5 -83.5t204.5 83.5t84.5 200.5t-84.5 200.5t-204.5 83.5t-204.5 -83.5t-84.5 -200.5z" />
    <glyph glyph-name="macron" unicode="&#xaf;" horiz-adv-x="363" 
d="M37 575v117h289v-117h-289z" />
    <glyph glyph-name="degree" unicode="&#xb0;" horiz-adv-x="389" 
d="M37 506q0 60 46 102.5t111 42.5t111.5 -42.5t46.5 -102.5t-46 -102t-112 -42q-65 0 -111 41.5t-46 102.5zM142 506q0 -20 15 -34.5t37 -14.5t37 14.5t15 34.5t-15 34.5t-37 14.5t-37 -14.5t-15 -34.5z" />
    <glyph glyph-name="plusminus" unicode="&#xb1;" horiz-adv-x="595" 
d="M37 467h180v166h162v-166h179v-127h-179v-165h-162v165h-180v127zM558 0h-521v125h521v-125z" />
    <glyph glyph-name="twosuperior" unicode="&#xb2;" horiz-adv-x="379" 
d="M185 757q-41 0 -83 -46l-56 54q59 77 142 77q60 0 102 -34.5t42 -89.5q0 -21 -9 -39.5t-28.5 -35.5t-33.5 -26t-41 -26q-40 -24 -57 -41h163v-87h-285v54q0 43 28.5 73.5t80.5 62.5q68 40 68 67q0 13 -9 25t-24 12z" />
    <glyph glyph-name="threesuperior" unicode="&#xb3;" horiz-adv-x="338" 
d="M155 457q-84 0 -153 63l50 58q45 -39 89 -39q24 0 34.5 11.5t10.5 26.5q0 39 -41 39h-50v79h48q40 0 40 37q0 14 -9 25t-25 11q-52 0 -86 -37l-50 53q54 66 141 66q62 0 102 -31t40 -86q0 -43 -51 -73q27 -12 42 -35.5t15 -46.5q0 -55 -44 -88t-103 -33z" />
    <glyph glyph-name="acute" unicode="&#xb4;" horiz-adv-x="326" 
d="M37 554l79 154h173l-122 -154h-130z" />
    <glyph glyph-name="mu" unicode="&#xb5;" horiz-adv-x="580" 
d="M237 -12v-162h-180v658h180v-288q1 -33 14.5 -54t34.5 -21q6 0 13 1.5t18.5 7.5t18.5 21.5t7 38.5v294h180v-484h-174v55q-11 -17 -19 -26.5t-32 -24t-54 -16.5h-7z" />
    <glyph glyph-name="mu" unicode="&#x3bc;" horiz-adv-x="580" 
d="M237 -12v-162h-180v658h180v-288q1 -33 14.5 -54t34.5 -21q6 0 13 1.5t18.5 7.5t18.5 21.5t7 38.5v294h180v-484h-174v55q-11 -17 -19 -26.5t-32 -24t-54 -16.5h-7z" />
    <glyph glyph-name="paragraph" unicode="&#xb6;" horiz-adv-x="576" 
d="M202 -185v468q-76 12 -125.5 66.5t-49.5 127.5q0 82 62 139.5t150 57.5h280v-859h-123v753h-71v-753h-123z" />
    <glyph glyph-name="periodcentered" unicode="&#xb7;" horiz-adv-x="281" 
d="M47 226v151h187v-151h-187z" />
    <glyph glyph-name="cedilla" unicode="&#xb8;" horiz-adv-x="270" 
d="M82 10h95q31 -34 48 -84q20 -62 -10.5 -96.5t-95.5 -28.5q-43 5 -82 23v95l47 -13q55 -17 41 28q-8 27 -43 76z" />
    <glyph glyph-name="onesuperior" unicode="&#xb9;" horiz-adv-x="270" 
d="M62 670l-54 58l114 116h94v-381h-115v244z" />
    <glyph glyph-name="ordmasculine" unicode="&#xba;" horiz-adv-x="389" 
d="M36 401h318v-79h-318v79zM27 604q0 77 44.5 121.5t121.5 44.5q78 0 123.5 -44.5t45.5 -121.5q0 -78 -45.5 -122t-123.5 -44q-77 0 -121.5 44t-44.5 122zM232 604q0 29 -11 51t-28 22q-16 0 -26.5 -22t-10.5 -51t10 -51.5t27 -22.5t28 22.5t11 51.5z" />
    <glyph glyph-name="guillemotright" unicode="&#xbb;" horiz-adv-x="612" 
d="M281 93l133 232l-133 232h153l131 -232l-131 -232h-153zM47 93l133 232l-133 232h153l131 -232l-131 -232h-153z" />
    <glyph glyph-name="onequarter" unicode="&#xbc;" horiz-adv-x="774" 
d="M85 498l-54 58l114 116h94v-381h-115v244zM123 0l398 674h80l-397 -674h-81zM694 0l-117 1v65h-154v71q51 125 166 244h105v-227h48v-88h-48v-66zM510 154h67v100q-15 -15 -36.5 -46t-30.5 -54z" />
    <glyph glyph-name="onehalf" unicode="&#xbd;" horiz-adv-x="794" 
d="M100 498l-54 58l114 116h94v-381h-115v244zM600 289q-46 0 -83 -41l-56 54q59 77 142 77q60 0 102 -34.5t42 -89.5q0 -21 -9 -39.5t-28.5 -35.5t-33.5 -26t-41 -26q-40 -24 -57 -41h163v-87h-280v54q0 42 27.5 74t76.5 62q68 40 68 67q0 12 -9 22t-24 10zM138 0l398 674
h80l-397 -674h-81z" />
    <glyph glyph-name="threequarters" unicode="&#xbe;" horiz-adv-x="790" 
d="M168 0l398 674h80l-397 -674h-81zM722 0l-117 1v65h-154v71q51 125 166 244h105v-227h48v-88h-48v-66zM538 154h67v100q-15 -15 -36.5 -46t-30.5 -54zM172 285q-84 0 -153 63l50 58q45 -39 89 -39q24 0 34.5 11.5t10.5 26.5q0 39 -41 39h-50v79h48q40 0 40 37q0 14 -9 25
t-25 11q-52 0 -86 -37l-50 53q54 66 141 66q62 0 102 -31t40 -86q0 -43 -51 -73q27 -12 42 -35.5t15 -46.5q0 -55 -44 -88t-103 -33z" />
    <glyph glyph-name="questiondown" unicode="&#xbf;" horiz-adv-x="507" 
d="M247 77q-30 -27 -30 -68q0 -26 18 -46.5t47 -20.5q38 0 72 25.5t51 56.5l104 -82q-10 -18 -26 -37.5t-43.5 -42t-69.5 -37t-91 -14.5q-104 0 -173 52.5t-69 151.5q0 58 39 109.5t92 84.5q4 3 18 13t17 14.5t7.5 20.5t4.5 41h157v-46t-5.5 -36t-7 -25.5t-16.5 -24
t-21 -22.5t-33.5 -29.5t-41.5 -37.5zM382 484v-141h-181v141h181z" />
    <glyph glyph-name="Agrave" unicode="&#xc0;" horiz-adv-x="742" 
d="M379 898l79 -154h-130l-122 154h173zM205 0h-196l280 674h164l280 -674h-196l-57 147h-219zM370 500l-70 -220h142z" />
    <glyph glyph-name="Aacute" unicode="&#xc1;" horiz-adv-x="742" 
d="M294 744l79 154h173l-122 -154h-130zM205 0h-196l280 674h164l280 -674h-196l-57 147h-219zM370 500l-70 -220h142z" />
    <glyph glyph-name="Acircumflex" unicode="&#xc2;" horiz-adv-x="742" 
d="M293 906h154l110 -167h-148l-40 84l-36 -84h-149zM205 0h-196l280 674h164l280 -674h-196l-57 147h-219zM370 500l-70 -220h142z" />
    <glyph glyph-name="Atilde" unicode="&#xc3;" horiz-adv-x="742" 
d="M333 776q-26 0 -30 -42h-91q0 80 22.5 118.5t82.5 38.5q24 0 51 -16q32 -17 42 -17q31 0 26 40h93q0 -71 -22.5 -114t-83.5 -43q-21 0 -51 18q-28 17 -39 17zM205 0h-196l280 674h164l280 -674h-196l-57 147h-219zM370 500l-70 -220h142z" />
    <glyph glyph-name="Adieresis" unicode="&#xc4;" horiz-adv-x="742" 
d="M202 733v136h148v-136h-148zM392 733v136h148v-136h-148zM205 0h-196l280 674h164l280 -674h-196l-57 147h-219zM370 500l-70 -220h142z" />
    <glyph glyph-name="Aring" unicode="&#xc5;" horiz-adv-x="742" 
d="M259 855q0 45 27.5 74.5t84.5 29.5q59 0 85.5 -29t26.5 -75q0 -104 -112 -104q-58 0 -85 29.5t-27 74.5zM397 855q0 32 -27 32t-27 -32q0 -33 27 -33t27 33zM205 0h-196l280 674h164l280 -674h-196l-57 147h-219zM370 500l-70 -220h142z" />
    <glyph glyph-name="AE" unicode="&#xc6;" horiz-adv-x="966" 
d="M414 525l-92 -244h92v244zM601 141h323v-141h-510v142h-133l-69 -142h-205l338 674h572v-141h-315v-123h293v-141h-294v-128z" />
    <glyph glyph-name="Ccedilla" unicode="&#xc7;" horiz-adv-x="653" 
d="M37 337q0 149 96.5 248.5t256.5 99.5q55 0 121 -14.5t115 -40.5l-47 -119q-86 32 -169 32q-63 0 -106 -31.5t-60.5 -76.5t-17.5 -98q0 -84 45.5 -144t138.5 -60q75 0 172 33l44 -120q-95 -48 -217 -53q24 -36 35 -67q20 -62 -10.5 -96.5t-95.5 -28.5q-43 5 -82 23v95
l47 -13q49 -16 43 19q-4 25 -38 75q-125 24 -198 116.5t-73 220.5z" />
    <glyph glyph-name="Egrave" unicode="&#xc8;" horiz-adv-x="613" 
d="M571 0h-509v674h503v-141h-317v-123h293v-141h-293v-128h323v-141zM306 898l79 -154h-130l-122 154h173z" />
    <glyph glyph-name="Eacute" unicode="&#xc9;" horiz-adv-x="613" 
d="M571 0h-509v674h503v-141h-317v-123h293v-141h-293v-128h323v-141zM212 744l79 154h163l-116 -154h-126z" />
    <glyph glyph-name="Ecircumflex" unicode="&#xca;" horiz-adv-x="613" 
d="M571 0h-509v674h503v-141h-317v-123h293v-141h-293v-128h323v-141zM229 906h154l110 -167h-148l-40 84l-36 -84h-149z" />
    <glyph glyph-name="Edieresis" unicode="&#xcb;" horiz-adv-x="613" 
d="M571 0h-509v674h503v-141h-317v-123h293v-141h-293v-128h323v-141zM137 745v136h148v-136h-148zM327 745v136h148v-136h-148z" />
    <glyph glyph-name="Igrave" unicode="&#xcc;" horiz-adv-x="310" 
d="M62 0v674h186v-674h-186zM168 898l79 -154h-130l-122 154h173z" />
    <glyph glyph-name="Iacute" unicode="&#xcd;" horiz-adv-x="310" 
d="M62 0v674h186v-674h-186zM60 744l79 154h173l-122 -154h-130z" />
    <glyph glyph-name="Icircumflex" unicode="&#xce;" horiz-adv-x="310" 
d="M62 0v674h186v-674h-186zM78 906h154l110 -167h-148l-40 84l-36 -84h-149z" />
    <glyph glyph-name="Idieresis" unicode="&#xcf;" horiz-adv-x="310" 
d="M62 0v674h186v-674h-186zM-14 745v136h148v-136h-148zM176 745v136h148v-136h-148z" />
    <glyph glyph-name="Eth" unicode="&#xd0;" horiz-adv-x="746" 
d="M99 674h267q167 0 260 -85.5t93 -251.5t-93 -251.5t-260 -85.5h-267v271h-90v135h90v268zM285 141h85q72 0 118 48.5t46 147.5q0 101 -45 148.5t-122 47.5h-82v-127h151v-135h-151v-130z" />
    <glyph glyph-name="Ntilde" unicode="&#xd1;" horiz-adv-x="709" 
d="M441 0l-194 388v-388h-185v674h215l185 -382v382h185v-674h-206zM317 776q-26 0 -30 -42h-91q0 80 22.5 118.5t82.5 38.5q24 0 51 -16q32 -17 42 -17q31 0 26 40h93q0 -71 -22.5 -114t-83.5 -43q-21 0 -51 18q-28 17 -39 17z" />
    <glyph glyph-name="Ograve" unicode="&#xd2;" horiz-adv-x="757" 
d="M378 -7q-158 0 -249.5 91t-91.5 253t91.5 255t249.5 93t250 -93t92 -255t-91.5 -253t-250.5 -91zM378 546q-72 0 -110.5 -59.5t-38.5 -149.5q0 -93 38 -149.5t111 -56.5t111.5 57t38.5 149q0 89 -39 149t-111 60zM376 898l79 -154h-130l-122 154h173z" />
    <glyph glyph-name="Oacute" unicode="&#xd3;" horiz-adv-x="757" 
d="M378 -7q-158 0 -249.5 91t-91.5 253t91.5 255t249.5 93t250 -93t92 -255t-91.5 -253t-250.5 -91zM378 546q-72 0 -110.5 -59.5t-38.5 -149.5q0 -93 38 -149.5t111 -56.5t111.5 57t38.5 149q0 89 -39 149t-111 60zM298 744l79 154h173l-122 -154h-130z" />
    <glyph glyph-name="Ocircumflex" unicode="&#xd4;" horiz-adv-x="757" 
d="M378 -7q-158 0 -249.5 91t-91.5 253t91.5 255t249.5 93t250 -93t92 -255t-91.5 -253t-250.5 -91zM378 546q-72 0 -110.5 -59.5t-38.5 -149.5q0 -93 38 -149.5t111 -56.5t111.5 57t38.5 149q0 89 -39 149t-111 60zM301 906h154l110 -167h-148l-40 84l-36 -84h-149z" />
    <glyph glyph-name="Otilde" unicode="&#xd5;" horiz-adv-x="757" 
d="M378 -7q-158 0 -249.5 91t-91.5 253t91.5 255t249.5 93t250 -93t92 -255t-91.5 -253t-250.5 -91zM378 546q-72 0 -110.5 -59.5t-38.5 -149.5q0 -93 38 -149.5t111 -56.5t111.5 57t38.5 149q0 89 -39 149t-111 60zM341 776q-26 0 -30 -42h-91q0 80 22.5 118.5t82.5 38.5
q24 0 51 -16q32 -17 42 -17q31 0 26 40h93q0 -71 -22.5 -114t-83.5 -43q-21 0 -51 18q-28 17 -39 17z" />
    <glyph glyph-name="Odieresis" unicode="&#xd6;" horiz-adv-x="757" 
d="M378 -7q-158 0 -249.5 91t-91.5 253t91.5 255t249.5 93t250 -93t92 -255t-91.5 -253t-250.5 -91zM378 546q-72 0 -110.5 -59.5t-38.5 -149.5q0 -93 38 -149.5t111 -56.5t111.5 57t38.5 149q0 89 -39 149t-111 60zM209 733v136h148v-136h-148zM399 733v136h148v-136h-148z
" />
    <glyph glyph-name="multiply" unicode="&#xd7;" horiz-adv-x="612" 
d="M37 145l167 166l-167 166l103 103l166 -167l166 166l103 -102l-166 -166l166 -165l-103 -103l-166 165l-166 -166z" />
    <glyph glyph-name="Oslash" unicode="&#xd8;" horiz-adv-x="757" 
d="M247 223l199 305q-33 18 -68 18q-72 0 -110.5 -59.5t-38.5 -149.5q0 -68 18 -114zM66 -53l78 119q-107 93 -107 271q0 162 91.5 255t249.5 93q87 0 152 -28l39 59h126l-77 -116q102 -90 102 -263q0 -162 -91.5 -255.5t-250.5 -93.5q-80 0 -144 23l-43 -64h-125zM513 438
l-194 -298q26 -14 59 -14q73 0 111.5 59.5t38.5 151.5q0 61 -15 101z" />
    <glyph glyph-name="Ugrave" unicode="&#xd9;" horiz-adv-x="727" 
d="M363 -12q-147 0 -224 72.5t-77 242.5v371h187v-372q0 -88 27.5 -131t86.5 -43q62 0 89 42.5t27 131.5v372h186v-371q0 -171 -76.5 -243t-225.5 -72zM371 898l79 -154h-130l-122 154h173z" />
    <glyph glyph-name="Uacute" unicode="&#xda;" horiz-adv-x="727" 
d="M363 -12q-147 0 -224 72.5t-77 242.5v371h187v-372q0 -88 27.5 -131t86.5 -43q62 0 89 42.5t27 131.5v372h186v-371q0 -171 -76.5 -243t-225.5 -72zM275 744l79 154h173l-122 -154h-130z" />
    <glyph glyph-name="Ucircumflex" unicode="&#xdb;" horiz-adv-x="727" 
d="M363 -12q-147 0 -224 72.5t-77 242.5v371h187v-372q0 -88 27.5 -131t86.5 -43q62 0 89 42.5t27 131.5v372h186v-371q0 -171 -76.5 -243t-225.5 -72zM286 906h154l110 -167h-148l-40 84l-36 -84h-149z" />
    <glyph glyph-name="Udieresis" unicode="&#xdc;" horiz-adv-x="727" 
d="M363 -12q-147 0 -224 72.5t-77 242.5v371h187v-372q0 -88 27.5 -131t86.5 -43q62 0 89 42.5t27 131.5v372h186v-371q0 -171 -76.5 -243t-225.5 -72zM194 733v136h148v-136h-148zM384 733v136h148v-136h-148z" />
    <glyph glyph-name="Yacute" unicode="&#xdd;" horiz-adv-x="724" 
d="M457 0h-189v238l-259 436h213l141 -284l138 284h214l-258 -435v-239zM281 744l79 154h173l-122 -154h-130z" />
    <glyph glyph-name="Thorn" unicode="&#xde;" horiz-adv-x="605" 
d="M248 674v-144q24 30 52.5 44t51.5 14q91 0 156 -67.5t65 -194.5q0 -128 -67 -195t-172 -67q-21 0 -47 14t-40 41v-119h-185v674h186zM302 453q-7 0 -13.5 -2t-17 -8.5t-17 -23.5t-6.5 -42v-119q0 -58 71 -58q63 0 63 126q0 127 -80 127z" />
    <glyph glyph-name="germandbls" unicode="&#xdf;" horiz-adv-x="605" 
d="M318 0h-38v130h38q33 0 54 26.5t21 57.5q0 104 -92 104q-4 0 -7.5 0.5t-9.5 0.5v99h16q52 0 52 69q0 25 -16.5 41.5t-51.5 16.5q-54 0 -54 -102v-443h-181v443q2 105 64 167.5t171 62.5q41 0 81.5 -10t78.5 -30t61.5 -58t23.5 -88q0 -75 -76 -114q56 -22 83 -68.5
t27 -97.5q0 -82 -65 -144.5t-180 -62.5z" />
    <glyph glyph-name="agrave" unicode="&#xe0;" horiz-adv-x="536" 
d="M484 0h-178v63q-16 -28 -54 -47.5t-86 -19.5q-59 0 -98 43t-39 106q0 149 279 175v15q-4 44 -64 44q-49 0 -101 -21q-27 -12 -44 -21l-42 104q0 2 27.5 15.5t82 28t109.5 14.5q122 0 176 -68q32 -41 32 -102v-329zM226 120q11 0 27.5 3.5t35.5 18t19 37.5v46
q-41 0 -78 -21.5t-37 -51.5q0 -32 33 -32zM262 708l79 -154h-130l-122 154h173z" />
    <glyph glyph-name="aacute" unicode="&#xe1;" horiz-adv-x="536" 
d="M484 0h-178v63q-16 -28 -54 -47.5t-86 -19.5q-59 0 -98 43t-39 106q0 149 279 175v15q-4 44 -64 44q-49 0 -101 -21q-27 -12 -44 -21l-42 104q0 2 27.5 15.5t82 28t109.5 14.5q12 0 27 -0.5t50.5 -9.5t61.5 -25t47.5 -51t21.5 -84v-329zM226 120q11 0 27.5 3.5t35.5 18
t19 37.5v46q-41 0 -78 -21.5t-37 -51.5q0 -32 33 -32zM178 554l79 154h173l-122 -154h-130z" />
    <glyph glyph-name="acircumflex" unicode="&#xe2;" horiz-adv-x="536" 
d="M484 0h-178v63q-16 -28 -54 -47.5t-86 -19.5q-59 0 -98 43t-39 106q0 149 279 175v15q-4 44 -64 44q-49 0 -101 -21q-27 -12 -44 -21l-42 104q0 2 27.5 15.5t82 28t109.5 14.5q122 0 176 -68q32 -41 32 -102v-329zM226 120q11 0 27.5 3.5t35.5 18t19 37.5v46
q-41 0 -78 -21.5t-37 -51.5q0 -32 33 -32zM190 716h154l110 -167h-148l-40 84l-36 -84h-149z" />
    <glyph glyph-name="atilde" unicode="&#xe3;" horiz-adv-x="536" 
d="M484 0h-178v63q-16 -28 -54 -47.5t-86 -19.5q-59 0 -98 43t-39 106q0 149 279 175v15q-4 44 -64 44q-49 0 -101 -21q-27 -12 -44 -21l-42 104q0 2 27.5 15.5t82 28t109.5 14.5q122 0 176 -68q32 -41 32 -102v-329zM226 120q11 0 27.5 3.5t35.5 18t19 37.5v46
q-41 0 -78 -21.5t-37 -51.5q0 -32 33 -32zM230 586q-26 0 -30 -42h-91q0 80 22.5 118.5t82.5 38.5q24 0 51 -16q32 -17 42 -17q31 0 26 40h93q0 -71 -22.5 -114t-83.5 -43q-21 0 -51 18q-28 17 -39 17z" />
    <glyph glyph-name="adieresis" unicode="&#xe4;" horiz-adv-x="536" 
d="M484 0h-178v63q-16 -28 -54 -47.5t-86 -19.5q-59 0 -98 43t-39 106q0 149 279 175v15q-4 44 -64 44q-49 0 -101 -21q-27 -12 -44 -21l-42 104q0 2 27.5 15.5t82 28t109.5 14.5q12 0 27 -0.5t50.5 -9.5t61.5 -25t47.5 -51t21.5 -84v-329zM226 120q11 0 27.5 3.5t35.5 18
t19 37.5v46q-41 0 -78 -21.5t-37 -51.5q0 -32 33 -32zM99 555v136h148v-136h-148zM289 555v136h148v-136h-148z" />
    <glyph glyph-name="aring" unicode="&#xe5;" horiz-adv-x="536" 
d="M484 0h-178v63q-16 -28 -54 -47.5t-86 -19.5q-59 0 -98 43t-39 106q0 149 279 175v15q-4 44 -64 44q-49 0 -101 -21q-27 -12 -44 -21l-42 104q0 2 27.5 15.5t82 28t109.5 14.5q122 0 176 -68q32 -41 32 -102v-329zM226 120q11 0 27.5 3.5t35.5 18t19 37.5v46
q-41 0 -78 -21.5t-37 -51.5q0 -32 33 -32zM156 665q0 45 27.5 74.5t84.5 29.5q59 0 85.5 -29t26.5 -75q0 -104 -112 -104q-58 0 -85 29.5t-27 74.5zM294 665q0 32 -27 32t-27 -32q0 -33 27 -33t27 33z" />
    <glyph glyph-name="ae" unicode="&#xe6;" horiz-adv-x="841" 
d="M570 -7q-121 0 -192 73q-18 -25 -44 -40.5t-61 -21.5t-55 -7t-54 -1q-59 0 -98 43t-39 106q0 149 279 175v15q-4 44 -64 44q-49 0 -101 -21q-27 -12 -44 -21l-42 104q0 2 27.5 15.5t82 28t109.5 14.5q91 0 146 -58q57 56 141 56q116 0 182 -71.5t66 -180.5q0 -26 -4 -59
h-320q5 -33 34 -52t76 -19q62 0 145 29l41 -98q-86 -53 -211 -53zM483 293h163q0 35 -21 60.5t-60 25.5q-41 0 -61.5 -26.5t-20.5 -59.5zM224 120q11 0 27.5 3.5t35.5 18t19 37.5v46q-41 0 -78 -21.5t-37 -51.5q0 -32 33 -32z" />
    <glyph glyph-name="ccedilla" unicode="&#xe7;" horiz-adv-x="501" 
d="M324 -10q24 -34 33 -64q20 -62 -10.5 -96.5t-95.5 -28.5q-43 5 -82 23v95l47 -13q45 -13 44 14q-2 23 -36 75q-91 17 -141.5 81.5t-50.5 165.5q0 117 70 186t191 69q92 0 181 -46l-37 -115q-50 27 -129 27q-47 0 -72.5 -35.5t-25.5 -85.5t25.5 -85t72.5 -35q71 0 129 25
l37 -114q-67 -34 -150 -43z" />
    <glyph glyph-name="egrave" unicode="&#xe8;" horiz-adv-x="562" 
d="M291 -7q-121 0 -190 71.5t-69 177.5q0 112 68 183.5t182 71.5q116 0 182 -71.5t66 -180.5q0 -26 -4 -59h-320q5 -33 34 -52t76 -19q62 0 145 29l41 -98q-86 -53 -211 -53zM204 293h163q0 35 -21 60.5t-60 25.5q-41 0 -61.5 -26.5t-20.5 -59.5zM271 708l79 -154h-130
l-122 154h173z" />
    <glyph glyph-name="eacute" unicode="&#xe9;" horiz-adv-x="562" 
d="M291 -7q-121 0 -190 71.5t-69 177.5q0 112 68 183.5t182 71.5q116 0 182 -71.5t66 -180.5q0 -26 -4 -59h-320q5 -33 34 -52t76 -19q62 0 145 29l41 -98q-86 -53 -211 -53zM204 293h163q0 35 -21 60.5t-60 25.5q-41 0 -61.5 -26.5t-20.5 -59.5zM201 554l79 154h173
l-122 -154h-130z" />
    <glyph glyph-name="ecircumflex" unicode="&#xea;" horiz-adv-x="562" 
d="M291 -7q-121 0 -190 71.5t-69 177.5q0 112 68 183.5t182 71.5q116 0 182 -71.5t66 -180.5q0 -26 -4 -59h-320q5 -33 34 -52t76 -19q62 0 145 29l41 -98q-86 -53 -211 -53zM204 293h163q0 35 -21 60.5t-60 25.5q-41 0 -61.5 -26.5t-20.5 -59.5zM203 716h154l110 -167h-148
l-40 84l-36 -84h-149z" />
    <glyph glyph-name="edieresis" unicode="&#xeb;" horiz-adv-x="562" 
d="M291 -7q-121 0 -190 71.5t-69 177.5q0 112 68 183.5t182 71.5q116 0 182 -71.5t66 -180.5q0 -26 -4 -59h-320q5 -33 34 -52t76 -19q62 0 145 29l41 -98q-86 -53 -211 -53zM204 293h163q0 35 -21 60.5t-60 25.5q-41 0 -61.5 -26.5t-20.5 -59.5zM112 555v136h148v-136h-148
zM302 555v136h148v-136h-148z" />
    <glyph glyph-name="igrave" unicode="&#xec;" horiz-adv-x="294" 
d="M57 0v484h180v-484h-180zM158 708l79 -154h-130l-122 154h173z" />
    <glyph glyph-name="iacute" unicode="&#xed;" horiz-adv-x="294" 
d="M57 0v484h180v-484h-180zM57 554l79 154h173l-122 -154h-130z" />
    <glyph glyph-name="icircumflex" unicode="&#xee;" horiz-adv-x="294" 
d="M57 0v484h180v-484h-180zM70 716h154l110 -167h-148l-40 84l-36 -84h-149z" />
    <glyph glyph-name="idieresis" unicode="&#xef;" horiz-adv-x="294" 
d="M57 0v484h180v-484h-180zM-22 555v136h148v-136h-148zM168 555v136h148v-136h-148z" />
    <glyph glyph-name="eth" unicode="&#xf0;" horiz-adv-x="558" 
d="M122 451l-67 62l58 61q-10 10 -58 40l92 86q34 -10 66 -30l64 64l72 -59l-58 -56q89 -52 164.5 -164.5t75.5 -214.5q0 -117 -67.5 -183.5t-184.5 -66.5t-184.5 66.5t-67.5 183.5q0 90 67 155t150 65q12 0 32 -6q-17 50 -79 75zM346 240q0 46 -18 80.5t-49 34.5t-48.5 -34
t-17.5 -81q0 -46 17.5 -79.5t48.5 -33.5t49 34t18 79z" />
    <glyph glyph-name="ntilde" unicode="&#xf1;" horiz-adv-x="580" 
d="M523 278v-278h-180v278q0 87 -39 87q-21 0 -44 -19.5t-23 -65.5v-280h-180v484h174v-61q21 40 55 57t58 17q88 0 133.5 -50.5t45.5 -168.5zM252 586q-26 0 -30 -42h-91q0 80 22.5 118.5t82.5 38.5q24 0 51 -16q32 -17 42 -17q31 0 26 40h93q0 -71 -22.5 -114t-83.5 -43
q-21 0 -51 18q-28 17 -39 17z" />
    <glyph glyph-name="ograve" unicode="&#xf2;" horiz-adv-x="569" 
d="M32 243q0 118 68 186t184 68q117 0 185 -68t68 -186q0 -117 -67.5 -183.5t-185.5 -66.5q-117 0 -184.5 66.5t-67.5 183.5zM358 243q0 49 -20 86t-54 37t-53.5 -37t-19.5 -86q0 -50 19.5 -87t53.5 -37t54 37.5t20 86.5zM278 708l79 -154h-130l-122 154h173z" />
    <glyph glyph-name="oacute" unicode="&#xf3;" horiz-adv-x="569" 
d="M32 243q0 118 68 186t184 68q117 0 185 -68t68 -186q0 -117 -67.5 -183.5t-185.5 -66.5q-117 0 -184.5 66.5t-67.5 183.5zM358 243q0 49 -20 86t-54 37t-53.5 -37t-19.5 -86q0 -50 19.5 -87t53.5 -37t54 37.5t20 86.5zM211 554l79 154h173l-122 -154h-130z" />
    <glyph glyph-name="ocircumflex" unicode="&#xf4;" horiz-adv-x="569" 
d="M32 243q0 118 68 186t184 68q117 0 185 -68t68 -186q0 -117 -67.5 -183.5t-185.5 -66.5q-117 0 -184.5 66.5t-67.5 183.5zM358 243q0 49 -20 86t-54 37t-53.5 -37t-19.5 -86q0 -50 19.5 -87t53.5 -37t54 37.5t20 86.5zM207 716h154l110 -167h-148l-40 84l-36 -84h-149z
" />
    <glyph glyph-name="otilde" unicode="&#xf5;" horiz-adv-x="569" 
d="M32 243q0 118 68 186t184 68q117 0 185 -68t68 -186q0 -117 -67.5 -183.5t-185.5 -66.5q-117 0 -184.5 66.5t-67.5 183.5zM358 243q0 49 -20 86t-54 37t-53.5 -37t-19.5 -86q0 -50 19.5 -87t53.5 -37t54 37.5t20 86.5zM247 586q-26 0 -30 -42h-91q0 80 22.5 118.5
t82.5 38.5q24 0 51 -16q32 -17 42 -17q31 0 26 40h93q0 -71 -22.5 -114t-83.5 -43q-21 0 -51 18q-28 17 -39 17z" />
    <glyph glyph-name="odieresis" unicode="&#xf6;" horiz-adv-x="569" 
d="M32 243q0 118 68 186t184 68q117 0 185 -68t68 -186q0 -117 -67.5 -183.5t-185.5 -66.5q-117 0 -184.5 66.5t-67.5 183.5zM358 243q0 49 -20 86t-54 37t-53.5 -37t-19.5 -86q0 -50 19.5 -87t53.5 -37t54 37.5t20 86.5zM115 555v136h148v-136h-148zM305 555v136h148v-136
h-148z" />
    <glyph glyph-name="divide" unicode="&#xf7;" horiz-adv-x="593" 
d="M37 400h519v-134h-519v134zM197 449v144h187v-144h-187zM197 78v143h187v-143h-187z" />
    <glyph glyph-name="oslash" unicode="&#xf8;" horiz-adv-x="569" 
d="M214 207l104 147q-17 12 -34 12q-34 0 -53.5 -37t-19.5 -86q0 -18 3 -36zM168 14l-28 -40h-91l56 80q-73 67 -73 189q0 118 68 186t184 68q64 0 119 -23l24 34h92l-54 -76q72 -67 72 -189q0 -117 -67.5 -183.5t-185.5 -66.5q-65 0 -116 21zM355 276l-104 -146
q14 -11 33 -11q34 0 54 37.5t20 86.5q0 18 -3 33z" />
    <glyph glyph-name="ugrave" unicode="&#xf9;" horiz-adv-x="580" 
d="M57 206v278h180v-278q0 -85 39 -85q8 0 16 1.5t21 7.5t21.5 21.5t8.5 38.5v294h180v-484h-174v56q-12 -22 -29.5 -36t-36 -19t-27.5 -6.5t-16 -1.5q-32 0 -62 10.5t-58.5 33t-45.5 66.5t-17 103zM297 708l79 -154h-130l-122 154h173z" />
    <glyph glyph-name="uacute" unicode="&#xfa;" horiz-adv-x="580" 
d="M57 206v278h180v-278q0 -85 39 -85q8 0 16 1.5t21 7.5t21.5 21.5t8.5 38.5v294h180v-484h-174v56q-12 -22 -29.5 -36t-36 -19t-27.5 -6.5t-16 -1.5q-32 0 -62 10.5t-58.5 33t-45.5 66.5t-17 103zM190 554l79 154h173l-122 -154h-130z" />
    <glyph glyph-name="ucircumflex" unicode="&#xfb;" horiz-adv-x="580" 
d="M57 206v278h180v-278q0 -85 39 -85q8 0 16 1.5t21 7.5t21.5 21.5t8.5 38.5v294h180v-484h-174v56q-12 -22 -29.5 -36t-36 -19t-27.5 -6.5t-16 -1.5q-32 0 -62 10.5t-58.5 33t-45.5 66.5t-17 103zM212 716h154l110 -167h-148l-40 84l-36 -84h-149z" />
    <glyph glyph-name="udieresis" unicode="&#xfc;" horiz-adv-x="580" 
d="M57 206v278h180v-278q0 -85 39 -85q8 0 16 1.5t21 7.5t21.5 21.5t8.5 38.5v294h180v-484h-174v56q-12 -22 -29.5 -36t-36 -19t-27.5 -6.5t-16 -1.5q-32 0 -62 10.5t-58.5 33t-45.5 66.5t-17 103zM121 555v136h148v-136h-148zM311 555v136h148v-136h-148z" />
    <glyph glyph-name="yacute" unicode="&#xfd;" horiz-adv-x="595" 
d="M87 -149l15 110q18 -5 49 -8q10 -1 21.5 6t16.5 20l22 51q-11 26 -31 72t-70.5 157.5t-100.5 224.5h189l102 -285l96 285h190l-243 -571q-21 -50 -67 -68.5t-86 -18.5q-32 0 -103 25zM204 554l79 154h173l-122 -154h-130z" />
    <glyph glyph-name="thorn" unicode="&#xfe;" horiz-adv-x="585" 
d="M242 663v-231q31 65 98 65q92 0 152.5 -66t60.5 -189q0 -124 -58.5 -186.5t-157.5 -62.5q-5 0 -14.5 1.5t-26.5 6t-32 17t-23 30.5v-222h-179v837h180zM294 363q-9 0 -19 -3t-21.5 -19t-11.5 -43v-119q0 -54 66 -54q61 0 61 117q0 121 -75 121z" />
    <glyph glyph-name="ydieresis" unicode="&#xff;" horiz-adv-x="595" 
d="M87 -149l15 110q18 -5 49 -8q10 -1 21.5 6t16.5 20l22 51q-11 26 -31 72t-70.5 157.5t-100.5 224.5h189l102 -285l96 285h190l-243 -571q-21 -50 -67 -68.5t-86 -18.5q-32 0 -103 25zM128 555v136h148v-136h-148zM318 555v136h148v-136h-148z" />
    <glyph glyph-name="Amacron" unicode="&#x100;" horiz-adv-x="742" 
d="M226 765v117h289v-117h-289zM205 0h-196l280 674h164l280 -674h-196l-57 147h-219zM370 500l-70 -220h142z" />
    <glyph glyph-name="amacron" unicode="&#x101;" horiz-adv-x="536" 
d="M484 0h-178v63q-16 -28 -54 -47.5t-86 -19.5q-59 0 -98 43t-39 106q0 149 279 175v15q-4 44 -64 44q-49 0 -101 -21q-27 -12 -44 -21l-42 104q0 2 27.5 15.5t82 28t109.5 14.5q12 0 27 -0.5t50.5 -9.5t61.5 -25t47.5 -51t21.5 -84v-329zM226 120q11 0 27.5 3.5t35.5 18
t19 37.5v46q-41 0 -78 -21.5t-37 -51.5q0 -32 33 -32zM123 575v117h289v-117h-289z" />
    <glyph glyph-name="Abreve" unicode="&#x102;" horiz-adv-x="742" 
d="M372 735q-81 0 -123 49.5t-42 126.5h104q2 -40 14 -54.5t46 -14.5t46 15t14 54h104q0 -77 -42 -126.5t-121 -49.5zM205 0h-196l280 674h164l280 -674h-196l-57 147h-219zM370 500l-70 -220h142z" />
    <glyph glyph-name="abreve" unicode="&#x103;" horiz-adv-x="536" 
d="M484 0h-178v63q-16 -28 -54 -47.5t-86 -19.5q-59 0 -98 43t-39 106q0 149 279 175v15q-4 44 -64 44q-49 0 -101 -21q-27 -12 -44 -21l-42 104q0 2 27.5 15.5t82 28t109.5 14.5q12 0 27 -0.5t50.5 -9.5t61.5 -25t47.5 -51t21.5 -84v-329zM226 120q11 0 27.5 3.5t35.5 18
t19 37.5v46q-41 0 -78 -21.5t-37 -51.5q0 -32 33 -32zM269 545q-81 0 -123 49.5t-42 126.5h104q2 -40 14 -54.5t46 -14.5t46 15t14 54h104q0 -77 -42 -126.5t-121 -49.5z" />
    <glyph glyph-name="Aogonek" unicode="&#x104;" horiz-adv-x="742" 
d="M537 0l-57 147h-219l-56 -147h-196l280 674h164l280 -674h-100q-71 -105 -15 -99q8 1 20 5l47 13v-95q-39 -18 -82 -23q-65 -6 -95.5 28.5t-10.5 96.5q13 38 40 74zM370 500l-70 -220h142z" />
    <glyph glyph-name="aogonek" unicode="&#x105;" horiz-adv-x="536" 
d="M308 0h-2v63q-16 -28 -54 -47.5t-86 -19.5q-59 0 -98 43t-39 106q0 149 279 175v15q-4 44 -64 44q-49 0 -101 -21q-27 -12 -44 -21l-42 104q0 2 27.5 15.5t82 28t109.5 14.5q122 0 176 -68q32 -41 32 -102v-329h-80q-71 -105 -15 -99q8 1 20 5l47 13v-95q-39 -18 -82 -23
q-65 -6 -95.5 28.5t-10.5 96.5q13 38 40 74zM226 120q11 0 27.5 3.5t35.5 18t19 37.5v46q-41 0 -78 -21.5t-37 -51.5q0 -32 33 -32z" />
    <glyph glyph-name="Cacute" unicode="&#x106;" horiz-adv-x="653" 
d="M37 337q0 149 96.5 248.5t256.5 99.5q55 0 121 -14.5t115 -40.5l-47 -119q-86 32 -169 32q-63 0 -106 -31.5t-60.5 -76.5t-17.5 -98q0 -84 45.5 -144t138.5 -60q75 0 172 33l44 -120q-50 -25 -116 -39.5t-120 -14.5q-160 0 -256.5 98.5t-96.5 246.5zM295 744l79 154h173
l-122 -154h-130z" />
    <glyph glyph-name="cacute" unicode="&#x107;" horiz-adv-x="501" 
d="M32 242q0 117 70 186t191 69q92 0 181 -46l-37 -115q-50 27 -129 27q-47 0 -72.5 -35.5t-25.5 -85.5t25.5 -85t72.5 -35q71 0 129 25l37 -114q-88 -45 -181 -45q-121 0 -191 68t-70 186zM170 554l79 154h173l-122 -154h-130z" />
    <glyph glyph-name="Ccircumflex" unicode="&#x108;" horiz-adv-x="653" 
d="M37 337q0 149 96.5 248.5t256.5 99.5q55 0 121 -14.5t115 -40.5l-47 -119q-86 32 -169 32q-63 0 -106 -31.5t-60.5 -76.5t-17.5 -98q0 -84 45.5 -144t138.5 -60q75 0 172 33l44 -120q-50 -25 -116 -39.5t-120 -14.5q-160 0 -256.5 98.5t-96.5 246.5zM288 906h154
l110 -167h-148l-40 84l-36 -84h-149z" />
    <glyph glyph-name="ccircumflex" unicode="&#x109;" horiz-adv-x="501" 
d="M32 242q0 117 70 186t191 69q92 0 181 -46l-37 -115q-50 27 -129 27q-47 0 -72.5 -35.5t-25.5 -85.5t25.5 -85t72.5 -35q71 0 129 25l37 -114q-88 -45 -181 -45q-121 0 -191 68t-70 186zM197 716h154l110 -167h-148l-40 84l-36 -84h-149z" />
    <glyph glyph-name="Cdotaccent" unicode="&#x10a;" horiz-adv-x="653" 
d="M37 337q0 149 96.5 248.5t256.5 99.5q55 0 121 -14.5t115 -40.5l-47 -119q-86 32 -169 32q-63 0 -106 -31.5t-60.5 -76.5t-17.5 -98q0 -84 45.5 -144t138.5 -60q75 0 172 33l44 -120q-50 -25 -116 -39.5t-120 -14.5q-160 0 -256.5 98.5t-96.5 246.5zM290 753v130h169
v-130h-169z" />
    <glyph glyph-name="cdotaccent" unicode="&#x10b;" horiz-adv-x="501" 
d="M32 242q0 117 70 186t191 69q92 0 181 -46l-37 -115q-50 27 -129 27q-47 0 -72.5 -35.5t-25.5 -85.5t25.5 -85t72.5 -35q71 0 129 25l37 -114q-88 -45 -181 -45q-121 0 -191 68t-70 186zM195 563v130h169v-130h-169z" />
    <glyph glyph-name="Ccaron" unicode="&#x10c;" horiz-adv-x="653" 
d="M37 337q0 149 96.5 248.5t256.5 99.5q55 0 121 -14.5t115 -40.5l-47 -119q-86 32 -169 32q-63 0 -106 -31.5t-60.5 -76.5t-17.5 -98q0 -84 45.5 -144t138.5 -60q75 0 172 33l44 -120q-50 -25 -116 -39.5t-120 -14.5q-160 0 -256.5 98.5t-96.5 246.5zM455 738h-154
l-110 167h148l40 -84l36 84h149z" />
    <glyph glyph-name="ccaron" unicode="&#x10d;" horiz-adv-x="501" 
d="M32 242q0 117 70 186t191 69q92 0 181 -46l-37 -115q-50 27 -129 27q-47 0 -72.5 -35.5t-25.5 -85.5t25.5 -85t72.5 -35q71 0 129 25l37 -114q-88 -45 -181 -45q-121 0 -191 68t-70 186zM328 548h-154l-110 167h148l40 -84l36 84h149z" />
    <glyph glyph-name="Dcaron" unicode="&#x10e;" horiz-adv-x="713" 
d="M328 0h-266v674h266q167 0 260 -85.5t93 -251.5t-93 -251.5t-260 -85.5zM248 141h84q73 0 119 48.5t46 147.5q0 101 -45 148.5t-123 47.5h-81v-392zM434 738h-154l-110 167h148l40 -84l36 84h149z" />
    <glyph glyph-name="dcaron" unicode="&#x10f;" horiz-adv-x="832" 
d="M342 423v251h180v-674h-179v55q-47 -63 -128 -63q-78 0 -130.5 64.5t-52.5 185.5q0 123 57 189t143 66q34 0 66 -21t44 -53zM291 363q-43 0 -64 -34.5t-21 -86.5q0 -48 19 -84.5t51 -36.5q66 0 66 58v121q0 34 -18 48.5t-33 14.5zM575 436l99 238h170l-133 -238h-136z
" />
    <glyph glyph-name="Dcroat" unicode="&#x110;" horiz-adv-x="713" 
d="M328 0h-266v674h266q167 0 260 -85.5t93 -251.5t-93 -251.5t-260 -85.5zM248 141h84q73 0 119 48.5t46 147.5q0 101 -45 148.5t-123 47.5h-81v-392zM212 765v117h289v-117h-289z" />
    <glyph glyph-name="dcroat" unicode="&#x111;" horiz-adv-x="626" 
d="M342 528h-136v94h136v52h180v-52h92v-94h-92v-528h-179v55q-47 -63 -128 -63q-78 0 -130.5 64.5t-52.5 185.5q0 123 57 189t143 66q34 0 66 -21t44 -53v105zM291 363q-43 0 -64 -34.5t-21 -86.5q0 -48 19 -84.5t51 -36.5q66 0 66 58v121q0 34 -18 48.5t-33 14.5z" />
    <glyph glyph-name="Emacron" unicode="&#x112;" horiz-adv-x="613" 
d="M571 0h-509v674h503v-141h-317v-123h293v-141h-293v-128h323v-141zM162 765v117h289v-117h-289z" />
    <glyph glyph-name="emacron" unicode="&#x113;" horiz-adv-x="562" 
d="M291 -7q-121 0 -190 71.5t-69 177.5q0 112 68 183.5t182 71.5q116 0 182 -71.5t66 -180.5q0 -26 -4 -59h-320q5 -33 34 -52t76 -19q62 0 145 29l41 -98q-86 -53 -211 -53zM204 293h163q0 35 -21 60.5t-60 25.5q-41 0 -61.5 -26.5t-20.5 -59.5zM136 575v117h289v-117h-289
z" />
    <glyph glyph-name="Ebreve" unicode="&#x114;" horiz-adv-x="613" 
d="M571 0h-509v674h503v-141h-317v-123h293v-141h-293v-128h323v-141zM307 735q-81 0 -123 49.5t-42 126.5h104q2 -40 14 -54.5t46 -14.5t46 15t14 54h104q0 -77 -42 -126.5t-121 -49.5z" />
    <glyph glyph-name="ebreve" unicode="&#x115;" horiz-adv-x="562" 
d="M291 -7q-121 0 -190 71.5t-69 177.5q0 112 68 183.5t182 71.5q116 0 182 -71.5t66 -180.5q0 -26 -4 -59h-320q5 -33 34 -52t76 -19q62 0 145 29l41 -98q-86 -53 -211 -53zM204 293h163q0 35 -21 60.5t-60 25.5q-41 0 -61.5 -26.5t-20.5 -59.5zM282 545q-81 0 -123 49.5
t-42 126.5h104q2 -40 14 -54.5t46 -14.5t46 15t14 54h104q0 -77 -42 -126.5t-121 -49.5z" />
    <glyph glyph-name="Edotaccent" unicode="&#x116;" horiz-adv-x="613" 
d="M571 0h-509v674h503v-141h-317v-123h293v-141h-293v-128h323v-141zM222 753v130h169v-130h-169z" />
    <glyph glyph-name="edotaccent" unicode="&#x117;" horiz-adv-x="562" 
d="M291 -7q-121 0 -190 71.5t-69 177.5q0 112 68 183.5t182 71.5q116 0 182 -71.5t66 -180.5q0 -26 -4 -59h-320q5 -33 34 -52t76 -19q62 0 145 29l41 -98q-86 -53 -211 -53zM204 293h163q0 35 -21 60.5t-60 25.5q-41 0 -61.5 -26.5t-20.5 -59.5zM196 563v130h169v-130h-169
z" />
    <glyph glyph-name="Eogonek" unicode="&#x118;" horiz-adv-x="613" 
d="M571 0h-2q-71 -105 -15 -99q8 1 20 5l47 13v-95q-39 -18 -82 -23q-65 -6 -95.5 28.5t-10.5 96.5q13 38 40 74h-411v674h503v-141h-317v-123h293v-141h-293v-128h323v-141z" />
    <glyph glyph-name="eogonek" unicode="&#x119;" horiz-adv-x="562" 
d="M461 144l41 -98q-85 -132 -52 -143q10 -4 33 3l47 13v-95q-39 -18 -82 -23q-65 -6 -95.5 28.5t-10.5 96.5q11 33 41 76q-50 -9 -92 -9q-121 0 -190 71.5t-69 177.5q0 112 68 183.5t182 71.5q116 0 182 -71.5t66 -180.5q0 -26 -4 -59h-320q5 -33 34 -52t76 -19
q62 0 145 29zM204 293h163q0 35 -21 60.5t-60 25.5q-41 0 -61.5 -26.5t-20.5 -59.5z" />
    <glyph glyph-name="Ecaron" unicode="&#x11a;" horiz-adv-x="613" 
d="M571 0h-509v674h503v-141h-317v-123h293v-141h-293v-128h323v-141zM384 738h-154l-110 167h148l40 -84l36 84h149z" />
    <glyph glyph-name="ecaron" unicode="&#x11b;" horiz-adv-x="562" 
d="M291 -7q-121 0 -190 71.5t-69 177.5q0 112 68 183.5t182 71.5q116 0 182 -71.5t66 -180.5q0 -26 -4 -59h-320q5 -33 34 -52t76 -19q62 0 145 29l41 -98q-86 -53 -211 -53zM204 293h163q0 35 -21 60.5t-60 25.5q-41 0 -61.5 -26.5t-20.5 -59.5zM358 548h-154l-110 167h148
l40 -84l36 84h149z" />
    <glyph glyph-name="Gcircumflex" unicode="&#x11c;" horiz-adv-x="717" 
d="M501 258h-130v135h304v-337q-44 -28 -122.5 -45.5t-137.5 -17.5q-172 0 -275 97.5t-103 246.5t103 248.5t275 99.5q134 0 252 -74l-62 -116q-79 49 -181 49q-103 0 -151 -60.5t-48 -146.5q0 -82 52.5 -142.5t147.5 -60.5q36 0 76 10v114zM328 906h154l110 -167h-148
l-40 84l-36 -84h-149z" />
    <glyph glyph-name="gcircumflex" unicode="&#x11d;" horiz-adv-x="581" 
d="M292 121q18 0 35 14t17 46v124q0 59 -67 59q-31 0 -45.5 -35.5t-14.5 -86.5q0 -121 75 -121zM275 -64q73 0 77 55v64q-33 -61 -91 -61q-41 0 -80.5 15t-73 44t-54.5 78t-21 111q0 122 54.5 188.5t135.5 66.5q40 0 74.5 -19.5t48.5 -54.5v61h179v-507q0 -47 -20.5 -81.5
t-56 -53t-75.5 -26.5t-87 -8q-58 0 -116 17.5t-90 40.5l42 110q66 -40 154 -40zM213 716h154l110 -167h-148l-40 84l-36 -84h-149z" />
    <glyph glyph-name="Gbreve" unicode="&#x11e;" horiz-adv-x="717" 
d="M501 258h-130v135h304v-337q-44 -28 -122.5 -45.5t-137.5 -17.5q-172 0 -275 97.5t-103 246.5t103 248.5t275 99.5q134 0 252 -74l-62 -116q-79 49 -181 49q-103 0 -151 -60.5t-48 -146.5q0 -82 52.5 -142.5t147.5 -60.5q36 0 76 10v114zM386 735q-81 0 -123 49.5
t-42 126.5h104q2 -40 14 -54.5t46 -14.5t46 15t14 54h104q0 -77 -42 -126.5t-121 -49.5z" />
    <glyph glyph-name="gbreve" unicode="&#x11f;" horiz-adv-x="581" 
d="M292 121q18 0 35 14t17 46v124q0 59 -67 59q-31 0 -45.5 -35.5t-14.5 -86.5q0 -121 75 -121zM275 -64q73 0 77 55v64q-33 -61 -91 -61q-41 0 -80.5 15t-73 44t-54.5 78t-21 111q0 122 54.5 188.5t135.5 66.5q40 0 74.5 -19.5t48.5 -54.5v61h179v-507q0 -47 -20.5 -81.5
t-56 -53t-75.5 -26.5t-87 -8q-58 0 -116 17.5t-90 40.5l42 110q66 -40 154 -40zM291 545q-81 0 -123 49.5t-42 126.5h104q2 -40 14 -54.5t46 -14.5t46 15t14 54h104q0 -77 -42 -126.5t-121 -49.5z" />
    <glyph glyph-name="Gdotaccent" unicode="&#x120;" horiz-adv-x="717" 
d="M501 258h-130v135h304v-337q-44 -28 -122.5 -45.5t-137.5 -17.5q-172 0 -275 97.5t-103 246.5t103 248.5t275 99.5q134 0 252 -74l-62 -116q-79 49 -181 49q-103 0 -151 -60.5t-48 -146.5q0 -82 52.5 -142.5t147.5 -60.5q36 0 76 10v114zM318 753v130h169v-130h-169z" />
    <glyph glyph-name="gdotaccent" unicode="&#x121;" horiz-adv-x="581" 
d="M292 121q18 0 35 14t17 46v124q0 59 -67 59q-31 0 -45.5 -35.5t-14.5 -86.5q0 -121 75 -121zM275 -64q73 0 77 55v64q-33 -61 -91 -61q-41 0 -80.5 15t-73 44t-54.5 78t-21 111q0 122 54.5 188.5t135.5 66.5q40 0 74.5 -19.5t48.5 -54.5v61h179v-507q0 -47 -20.5 -81.5
t-56 -53t-75.5 -26.5t-87 -8q-58 0 -116 17.5t-90 40.5l42 110q66 -40 154 -40zM206 563v130h169v-130h-169z" />
    <glyph glyph-name="Gcommaaccent" unicode="&#x122;" horiz-adv-x="717" 
d="M501 258h-130v135h304v-337q-44 -28 -122.5 -45.5t-137.5 -17.5q-172 0 -275 97.5t-103 246.5t103 248.5t275 99.5q134 0 252 -74l-62 -116q-79 49 -181 49q-103 0 -151 -60.5t-48 -146.5q0 -82 52.5 -142.5t147.5 -60.5q36 0 76 10v114zM226 -220l93 179h173l-136 -179
h-130z" />
    <glyph glyph-name="gcommaaccent" unicode="&#x123;" horiz-adv-x="581" 
d="M292 121q18 0 35 14t17 46v124q0 59 -67 59q-31 0 -45.5 -35.5t-14.5 -86.5q0 -121 75 -121zM275 -64q73 0 77 55v64q-33 -61 -91 -61q-41 0 -80.5 15t-73 44t-54.5 78t-21 111q0 122 54.5 188.5t135.5 66.5q40 0 74.5 -19.5t48.5 -54.5v61h179v-507q0 -47 -20.5 -81.5
t-56 -53t-75.5 -26.5t-87 -8q-58 0 -116 17.5t-90 40.5l42 110q66 -40 154 -40zM441 799l-123 -238h-185l157 238h151z" />
    <glyph glyph-name="Hcircumflex" unicode="&#x124;" horiz-adv-x="705" 
d="M456 275h-207v-275h-187v674h187v-258h207v258h187v-674h-187v275zM275 906h154l110 -167h-148l-40 84l-36 -84h-149z" />
    <glyph glyph-name="hcircumflex" unicode="&#x125;" horiz-adv-x="580" 
d="M523 280v-280h-180v280q0 83 -39 83q-13 0 -26 -4.5t-27 -24t-14 -52.5v-282h-180v674h180v-251q16 40 48 57t56 17q182 0 182 -217zM69 897h154l110 -167h-148l-40 84l-36 -84h-149z" />
    <glyph glyph-name="Hbar" unicode="&#x126;" horiz-adv-x="705" 
d="M456 275h-207v-275h-187v674h187v-258h207v258h187v-674h-187v275zM208 765v117h289v-117h-289z" />
    <glyph glyph-name="hbar" unicode="&#x127;" horiz-adv-x="619" 
d="M12 528v94h84v52h180v-52h133v-94h-133v-105q16 40 48 57t56 17q182 0 182 -217v-280h-180v280q0 83 -39 83q-13 0 -26 -4.5t-27 -24t-14 -52.5v-282h-180v528h-84z" />
    <glyph glyph-name="Itilde" unicode="&#x128;" horiz-adv-x="310" 
d="M62 0v674h186v-674h-186zM118 776q-26 0 -30 -42h-91q0 80 22.5 118.5t82.5 38.5q24 0 51 -16q32 -17 42 -17q31 0 26 40h93q0 -71 -22.5 -114t-83.5 -43q-21 0 -51 18q-28 17 -39 17z" />
    <glyph glyph-name="itilde" unicode="&#x129;" horiz-adv-x="294" 
d="M57 0v484h180v-484h-180zM110 586q-26 0 -30 -42h-91q0 80 22.5 118.5t82.5 38.5q24 0 51 -16q32 -17 42 -17q31 0 26 40h93q0 -71 -22.5 -114t-83.5 -43q-21 0 -51 18q-28 17 -39 17z" />
    <glyph glyph-name="imacron" unicode="&#x12b;" horiz-adv-x="294" 
d="M57 0v484h180v-484h-180zM3 575v117h289v-117h-289z" />
    <glyph glyph-name="Ibreve" unicode="&#x12c;" horiz-adv-x="310" 
d="M62 0v674h186v-674h-186zM156 735q-81 0 -123 49.5t-42 126.5h104q2 -40 14 -54.5t46 -14.5t46 15t14 54h104q0 -77 -42 -126.5t-121 -49.5z" />
    <glyph glyph-name="Iogonek" unicode="&#x12e;" horiz-adv-x="310" 
d="M62 0v674h186v-674h-90q-71 -105 -15 -99q8 1 20 5l47 13v-95q-39 -18 -82 -23q-65 -6 -95.5 28.5t-10.5 96.5q13 38 40 74z" />
    <glyph glyph-name="iogonek" unicode="&#x12f;" horiz-adv-x="294" 
d="M57 0v484h180v-484h-83q-71 -105 -15 -99q8 1 20 5l47 13v-95q-39 -18 -82 -23q-65 -6 -95.5 28.5t-10.5 96.5q13 38 40 74h-1zM57 538v136h180v-136h-180z" />
    <glyph glyph-name="Idotaccent" unicode="&#x130;" horiz-adv-x="310" 
d="M62 0v674h186v-674h-186zM70 753v130h169v-130h-169z" />
    <glyph glyph-name="dotlessi" unicode="&#x131;" horiz-adv-x="294" 
d="M57 0v484h180v-484h-180z" />
    <glyph glyph-name="IJ" unicode="&#x132;" horiz-adv-x="803" 
d="M62 0v674h186v-674h-186zM323 45l42 121q31 -18 69 -31t64 -13q59 0 59 81v471h184v-477q0 -204 -215 -204q-93 0 -203 52z" />
    <glyph glyph-name="ij" unicode="&#x133;" horiz-adv-x="600" 
d="M57 0v484h180v-484h-180zM57 538v136h180v-136h-180zM363 538v136h180v-136h-180zM542 484v-508q0 -166 -168 -166q-53 0 -127 39l27 98l54 -15q16 -2 24.5 6.5t9.5 16.5t1 21v508h179z" />
    <glyph glyph-name="Jcircumflex" unicode="&#x134;" horiz-adv-x="487" 
d="M7 45l42 121q31 -18 69 -31t64 -13q59 0 59 81v471h184v-477q0 -204 -215 -204q-93 0 -203 52zM257 906h154l110 -167h-148l-40 84l-36 -84h-149z" />
    <glyph glyph-name="jcircumflex" unicode="&#x135;" horiz-adv-x="300" 
d="M73 716h154l110 -167h-148l-40 84l-36 -84h-149zM241 484v-508q0 -166 -168 -166q-53 0 -127 39l27 98l54 -15q16 -2 24.5 6.5t9.5 16.5t1 21v508h179z" />
    <glyph glyph-name="Kcommaaccent" unicode="&#x136;" horiz-adv-x="669" 
d="M662 0h-222l-176 243l-16 -19v-224h-186v674h186v-223l161 223h214l-245 -306zM166 -220l93 179h173l-136 -179h-130z" />
    <glyph glyph-name="kcedilla" unicode="&#x137;" horiz-adv-x="555" 
d="M343 292l205 -292h-201l-110 184v-184h-180v674h180v-295l81 105h215zM245 10h72q31 -34 48 -84q20 -62 -10.5 -96.5t-95.5 -28.5q-43 5 -82 23v95l47 -13q54 -16 57 20q2 30 -36 84z" />
    <glyph glyph-name="kgreenlandic" unicode="&#x138;" horiz-adv-x="555" 
d="M373 248l175 -248h-201l-110 184v-184h-180v484h180v-170l119 170h196z" />
    <glyph glyph-name="Lacute" unicode="&#x139;" horiz-adv-x="583" 
d="M250 674v-532h296v-142h-484v674h188zM76 744l79 154h173l-122 -154h-130z" />
    <glyph glyph-name="lacute" unicode="&#x13a;" horiz-adv-x="294" 
d="M57 0v674h180v-674h-180zM61 720l79 154h173l-122 -154h-130z" />
    <glyph glyph-name="Lcommaaccent" unicode="&#x13b;" horiz-adv-x="583" 
d="M250 674v-532h296v-142h-484v674h188zM143 -220l93 179h173l-136 -179h-130z" />
    <glyph glyph-name="lcommaaccent" unicode="&#x13c;" horiz-adv-x="294" 
d="M57 0v674h180v-674h-180zM-31 -220l93 179h173l-136 -179h-130z" />
    <glyph glyph-name="Lcaron" unicode="&#x13d;" horiz-adv-x="607" 
d="M250 674v-532h296v-142h-484v674h188zM291 436l123 238h185l-157 -238h-151z" />
    <glyph glyph-name="lcaron" unicode="&#x13e;" horiz-adv-x="583" 
d="M57 0v674h180v-674h-180zM269 436l123 238h185l-157 -238h-151z" />
    <glyph glyph-name="Ldot" unicode="&#x13f;" horiz-adv-x="583" 
d="M250 674v-532h296v-142h-484v674h188zM340 429v151h187v-151h-187z" />
    <glyph glyph-name="ldot" unicode="&#x140;" horiz-adv-x="519" 
d="M57 0v674h180v-674h-180zM285 226v151h187v-151h-187z" />
    <glyph glyph-name="Lslash" unicode="&#x141;" horiz-adv-x="635" 
d="M114 0v251l-102 -63v109l102 67v310h187v-202l101 66v-109l-101 -66v-221h297v-142h-484z" />
    <glyph glyph-name="lslash" unicode="&#x142;" horiz-adv-x="399" 
d="M290 352v-352h-181v229l-97 -65v115l97 71v324h181v-211l97 66v-113z" />
    <glyph glyph-name="Nacute" unicode="&#x143;" horiz-adv-x="709" 
d="M441 0l-194 388v-388h-185v674h215l185 -382v382h185v-674h-206zM274 744l79 154h173l-122 -154h-130z" />
    <glyph glyph-name="nacute" unicode="&#x144;" horiz-adv-x="580" 
d="M523 278v-278h-180v278q0 87 -39 87q-21 0 -44 -19.5t-23 -65.5v-280h-180v484h174v-61q21 40 55 57t58 17q88 0 133.5 -50.5t45.5 -168.5zM164 554l79 154h173l-122 -154h-130z" />
    <glyph glyph-name="Ncommaaccent" unicode="&#x145;" horiz-adv-x="709" 
d="M441 0l-194 388v-388h-185v674h215l185 -382v382h185v-674h-206zM166 -220l93 179h173l-136 -179h-130z" />
    <glyph glyph-name="ncommaaccent" unicode="&#x146;" horiz-adv-x="580" 
d="M523 278v-278h-180v278q0 87 -39 87q-21 0 -44 -19.5t-23 -65.5v-280h-180v484h174v-61q21 40 55 57t58 17q88 0 133.5 -50.5t45.5 -168.5zM124 -220l93 179h173l-136 -179h-130z" />
    <glyph glyph-name="Ncaron" unicode="&#x147;" horiz-adv-x="709" 
d="M441 0l-194 388v-388h-185v674h215l185 -382v382h185v-674h-206zM432 738h-154l-110 167h148l40 -84l36 84h149z" />
    <glyph glyph-name="ncaron" unicode="&#x148;" horiz-adv-x="580" 
d="M523 278v-278h-180v278q0 87 -39 87q-21 0 -44 -19.5t-23 -65.5v-280h-180v484h174v-61q21 40 55 57t58 17q88 0 133.5 -50.5t45.5 -168.5zM367 548h-154l-110 167h148l40 -84l36 84h149z" />
    <glyph glyph-name="Eng" unicode="&#x14a;" horiz-adv-x="709" 
d="M461 0l-214 400v-400h-185v674h215l185 -382v382h185v-674q-10 -184 -215 -184q-6 0 -34 1t-35 1v127h41q33 0 44.5 12t12.5 43z" />
    <glyph glyph-name="eng" unicode="&#x14b;" horiz-adv-x="580" 
d="M523 278v-278q-10 -184 -215 -184q-6 0 -34 1t-35 1v127h47q33 0 44.5 12t12.5 43v278q0 87 -39 87q-21 0 -44 -19.5t-23 -65.5v-280h-180v484h174v-61q21 40 55 57t58 17q88 0 133.5 -50.5t45.5 -168.5z" />
    <glyph glyph-name="Omacron" unicode="&#x14c;" horiz-adv-x="757" 
d="M378 -7q-158 0 -249.5 91t-91.5 253t91.5 255t249.5 93t250 -93t92 -255t-91.5 -253t-250.5 -91zM378 546q-72 0 -110.5 -59.5t-38.5 -149.5q0 -93 38 -149.5t111 -56.5t111.5 57t38.5 149q0 89 -39 149t-111 60zM234 765v117h289v-117h-289z" />
    <glyph glyph-name="omacron" unicode="&#x14d;" horiz-adv-x="569" 
d="M32 243q0 118 68 186t184 68q117 0 185 -68t68 -186q0 -117 -67.5 -183.5t-185.5 -66.5q-117 0 -184.5 66.5t-67.5 183.5zM358 243q0 49 -20 86t-54 37t-53.5 -37t-19.5 -86q0 -50 19.5 -87t53.5 -37t54 37.5t20 86.5zM140 575v117h289v-117h-289z" />
    <glyph glyph-name="Obreve" unicode="&#x14e;" horiz-adv-x="757" 
d="M378 -7q-158 0 -249.5 91t-91.5 253t91.5 255t249.5 93t250 -93t92 -255t-91.5 -253t-250.5 -91zM378 546q-72 0 -110.5 -59.5t-38.5 -149.5q0 -93 38 -149.5t111 -56.5t111.5 57t38.5 149q0 89 -39 149t-111 60zM379 735q-81 0 -123 49.5t-42 126.5h104q2 -40 14 -54.5
t46 -14.5t46 15t14 54h104q0 -77 -42 -126.5t-121 -49.5z" />
    <glyph glyph-name="obreve" unicode="&#x14f;" horiz-adv-x="569" 
d="M32 243q0 118 68 186t184 68q117 0 185 -68t68 -186q0 -117 -67.5 -183.5t-185.5 -66.5q-117 0 -184.5 66.5t-67.5 183.5zM358 243q0 49 -20 86t-54 37t-53.5 -37t-19.5 -86q0 -50 19.5 -87t53.5 -37t54 37.5t20 86.5zM285 545q-81 0 -123 49.5t-42 126.5h104
q2 -40 14 -54.5t46 -14.5t46 15t14 54h104q0 -77 -42 -126.5t-121 -49.5z" />
    <glyph glyph-name="Ohungarumlaut" unicode="&#x150;" horiz-adv-x="757" 
d="M378 -7q-158 0 -249.5 91t-91.5 253t91.5 255t249.5 93t250 -93t92 -255t-91.5 -253t-250.5 -91zM378 546q-72 0 -110.5 -59.5t-38.5 -149.5q0 -93 38 -149.5t111 -56.5t111.5 57t38.5 149q0 89 -39 149t-111 60zM224 741l78 164h144l-105 -164h-117zM401 741l78 164h144
l-105 -164h-117z" />
    <glyph glyph-name="ohungarumlaut" unicode="&#x151;" horiz-adv-x="569" 
d="M32 243q0 118 68 186t184 68q117 0 185 -68t68 -186q0 -117 -67.5 -183.5t-185.5 -66.5q-117 0 -184.5 66.5t-67.5 183.5zM358 243q0 49 -20 86t-54 37t-53.5 -37t-19.5 -86q0 -50 19.5 -87t53.5 -37t54 37.5t20 86.5zM124 551l78 164h144l-105 -164h-117zM301 551
l78 164h144l-105 -164h-117z" />
    <glyph glyph-name="OE" unicode="&#x152;" horiz-adv-x="1081" 
d="M378 546q-72 0 -111.5 -60t-39.5 -149q0 -92 39 -149t112 -57t111.5 57t38.5 149q0 89 -39 149t-111 60zM529 0v50q-59 -58 -165 -58q-149 0 -238 92t-89 253q0 159 91.5 253.5t235.5 94.5q100 0 165 -68v57h503v-141h-316v-123h292v-141h-292v-128h323v-141h-510z" />
    <glyph glyph-name="oe" unicode="&#x153;" horiz-adv-x="894" 
d="M623 -7q-101 0 -170 53q-65 -53 -169 -53q-117 0 -184.5 66.5t-67.5 183.5q0 118 68 186t184 68q103 0 168 -53q66 53 162 53q116 0 182 -71.5t66 -180.5q0 -26 -4 -59h-320q20 -71 110 -71q81 0 149 34l41 -103q-86 -53 -215 -53zM358 243q0 49 -20 86t-54 37t-53.5 -37
t-19.5 -86q0 -50 19.5 -87t53.5 -37t54 37.5t20 86.5zM536 296h163q-1 31 -24.5 50t-56.5 19t-57.5 -20.5t-24.5 -48.5z" />
    <glyph glyph-name="Racute" unicode="&#x154;" horiz-adv-x="671" 
d="M230 744l79 154h173l-122 -154h-130zM609 461q0 -16 -4 -33.5t-14 -42t-35 -46.5t-61 -36q14 -3 24.5 -9.5t18.5 -17t12 -16.5t10 -20.5t6 -15.5l88 -224h-191l-79 192q-18 48 -56 49h-80v-241h-186v674h311q56 0 99 -13t68.5 -34t41.5 -50t21.5 -57t5.5 -59zM248 382
h114q34 0 49.5 25t15.5 48q0 33 -17 55.5t-48 22.5h-114v-151z" />
    <glyph glyph-name="racute" unicode="&#x155;" horiz-adv-x="394" 
d="M71 554l79 154h173l-122 -154h-130zM361 490v-150h-29q-47 0 -70 -31.5t-23 -77.5l1 -231h-178v484h174v-78q34 84 103 84h22z" />
    <glyph glyph-name="Rcommaaccent" unicode="&#x156;" horiz-adv-x="671" 
d="M166 -220l93 179h173l-136 -179h-130zM609 461q0 -16 -4 -33.5t-14 -42t-35 -46.5t-61 -36q14 -3 24.5 -9.5t18.5 -17t12 -16.5t10 -20.5t6 -15.5l88 -224h-191l-79 192q-18 48 -56 49h-80v-241h-186v674h311q56 0 99 -13t68.5 -34t41.5 -50t21.5 -57t5.5 -59zM248 382
h114q34 0 49.5 25t15.5 48q0 33 -17 55.5t-48 22.5h-114v-151z" />
    <glyph glyph-name="rcommaaccent" unicode="&#x157;" horiz-adv-x="394" 
d="M-27 -220l93 179h173l-136 -179h-130zM361 490v-150h-29q-47 0 -70 -31.5t-23 -77.5l1 -231h-178v484h174v-78q34 84 103 84h22z" />
    <glyph glyph-name="Rcaron" unicode="&#x158;" horiz-adv-x="671" 
d="M413 738h-154l-110 167h148l40 -84l36 84h149zM609 461q0 -16 -4 -33.5t-14 -42t-35 -46.5t-61 -36q14 -3 24.5 -9.5t18.5 -17t12 -16.5t10 -20.5t6 -15.5l88 -224h-191l-79 192q-18 48 -56 49h-80v-241h-186v674h311q56 0 99 -13t68.5 -34t41.5 -50t21.5 -57t5.5 -59z
M248 382h114q34 0 49.5 25t15.5 48q0 33 -17 55.5t-48 22.5h-114v-151z" />
    <glyph glyph-name="rcaron" unicode="&#x159;" horiz-adv-x="394" 
d="M275 548h-154l-110 167h148l40 -84l36 84h149zM361 490v-150h-29q-47 0 -70 -31.5t-23 -77.5l1 -231h-178v484h174v-78q34 84 103 84h22z" />
    <glyph glyph-name="Sacute" unicode="&#x15a;" horiz-adv-x="617" 
d="M308 685q79 0 135.5 -22t121.5 -72l-53 -121q-54 34 -100 51t-59.5 18t-38.5 1q-38 0 -60.5 -14t-22.5 -34q0 -29 43 -50l171 -64q145 -56 145 -177q0 -99 -77 -153.5t-187 -54.5q-99 0 -147 19q-97 36 -152 89l64 128q43 -39 110.5 -66.5t125.5 -27.5q30 0 53 12t23 38
q0 35 -32 49l-173 67q-79 32 -115 78.5t-36 97.5q0 96 73.5 152t187.5 56zM222 744l79 154h173l-122 -154h-130z" />
    <glyph glyph-name="sacute" unicode="&#x15b;" horiz-adv-x="489" 
d="M27 71l68 97q51 -37 115 -51t76 12q11 24 -14 32l-118 44q-65 28 -90.5 62.5t-25.5 78.5q0 67 57.5 108.5t149.5 41.5q114 0 206 -62l-56 -102q-70 45 -146 45q-25 0 -27 -19q-1 -20 29 -31l87 -29q73 -25 106 -86.5t4 -131.5q-21 -41 -71.5 -64t-120.5 -23
q-133 0 -229 78zM176 554l79 154h173l-122 -154h-130z" />
    <glyph glyph-name="Scircumflex" unicode="&#x15c;" horiz-adv-x="617" 
d="M308 685q79 0 135.5 -22t121.5 -72l-53 -121q-54 34 -100 51t-59.5 18t-38.5 1q-38 0 -60.5 -14t-22.5 -34q0 -29 43 -50l171 -64q145 -56 145 -177q0 -99 -77 -153.5t-187 -54.5q-99 0 -147 19q-97 36 -152 89l64 128q43 -39 110.5 -66.5t125.5 -27.5q30 0 53 12t23 38
q0 35 -32 49l-173 67q-79 32 -115 78.5t-36 97.5q0 96 73.5 152t187.5 56zM231 906h154l110 -167h-148l-40 84l-36 -84h-149z" />
    <glyph glyph-name="scircumflex" unicode="&#x15d;" horiz-adv-x="489" 
d="M27 71l68 97q51 -37 115 -51t76 12q11 24 -14 32l-118 44q-65 28 -90.5 62.5t-25.5 78.5q0 67 57.5 108.5t149.5 41.5q114 0 206 -62l-56 -102q-70 45 -146 45q-25 0 -27 -19q-1 -20 29 -31l87 -29q73 -25 106 -86.5t4 -131.5q-21 -41 -71.5 -64t-120.5 -23
q-133 0 -229 78zM167 716h154l110 -167h-148l-40 84l-36 -84h-149z" />
    <glyph glyph-name="Scedilla" unicode="&#x15e;" horiz-adv-x="617" 
d="M353 -6q23 -32 36 -68q20 -62 -10.5 -96.5t-95.5 -28.5q-43 5 -82 23v95l47 -13q49 -16 43 18q-4 24 -35 72q-56 6 -77 16q-97 36 -152 89l64 128q43 -39 110.5 -66.5t125.5 -27.5q30 0 53 12t23 38q0 35 -32 49l-173 67q-79 32 -115 78.5t-36 97.5q0 96 73.5 152
t187.5 56q79 0 135.5 -22t121.5 -72l-53 -121q-54 34 -100 51t-59.5 18t-38.5 1q-38 0 -60.5 -14t-22.5 -34q0 -29 43 -50l171 -64q145 -56 145 -177q0 -93 -68.5 -147t-168.5 -60z" />
    <glyph glyph-name="scedilla" unicode="&#x15f;" horiz-adv-x="489" 
d="M289 -5q24 -37 36 -69q20 -62 -10.5 -96.5t-95.5 -28.5q-43 5 -82 23v95l47 -13q49 -16 43 18q-4 25 -37 74q-90 14 -163 73l68 97q51 -37 115 -51t76 12q11 24 -14 32l-118 44q-65 28 -90.5 62.5t-25.5 78.5q0 67 57.5 108.5t149.5 41.5q114 0 206 -62l-56 -102
q-70 45 -146 45q-25 0 -27 -19q-1 -20 29 -31l87 -29q73 -25 106 -86.5t4 -131.5q-39 -74 -159 -85z" />
    <glyph glyph-name="Scaron" unicode="&#x160;" horiz-adv-x="617" 
d="M308 685q79 0 135.5 -22t121.5 -72l-53 -121q-54 34 -100 51t-59.5 18t-38.5 1q-38 0 -60.5 -14t-22.5 -34q0 -29 43 -50l171 -64q145 -56 145 -177q0 -99 -77 -153.5t-187 -54.5q-99 0 -147 19q-97 36 -152 89l64 128q43 -39 110.5 -66.5t125.5 -27.5q30 0 53 12t23 38
q0 35 -32 49l-173 67q-79 32 -115 78.5t-36 97.5q0 96 73.5 152t187.5 56zM386 738h-154l-110 167h148l40 -84l36 84h149z" />
    <glyph glyph-name="scaron" unicode="&#x161;" horiz-adv-x="489" 
d="M27 71l68 97q51 -37 115 -51t76 12q11 24 -14 32l-118 44q-65 28 -90.5 62.5t-25.5 78.5q0 67 57.5 108.5t149.5 41.5q114 0 206 -62l-56 -102q-70 45 -146 45q-25 0 -27 -19q-1 -20 29 -31l87 -29q73 -25 106 -86.5t4 -131.5q-21 -41 -71.5 -64t-120.5 -23
q-133 0 -229 78zM322 548h-154l-110 167h148l40 -84l36 84h149z" />
    <glyph glyph-name="Tcommaaccent" unicode="&#x162;" horiz-adv-x="591" 
d="M582 533h-194v-533h-186v533h-193v141h573v-141zM111 -220l93 179h173l-136 -179h-130z" />
    <glyph glyph-name="tcommaaccent" unicode="&#x163;" horiz-adv-x="384" 
d="M78 374h-69v110h69v114h186v-114h91v-110h-91v-231q0 -26 15 -26q33 0 81 19l7 -112q-68 -35 -118 -35h-23t-28.5 3.5t-33.5 9t-31 18t-28.5 30t-18.5 46t-8 64.5v214zM32 -220l93 179h173l-136 -179h-130z" />
    <glyph glyph-name="Tcaron" unicode="&#x164;" horiz-adv-x="591" 
d="M582 533h-194v-533h-186v533h-193v141h573v-141zM373 738h-154l-110 167h148l40 -84l36 84h149z" />
    <glyph glyph-name="tcaron" unicode="&#x165;" horiz-adv-x="556" 
d="M78 374h-69v110h69v114h186v-114h91v-110h-91v-231q0 -26 15 -26q33 0 81 19l7 -112q-68 -35 -118 -35h-23t-28.5 3.5t-33.5 9t-31 18t-28.5 30t-18.5 46t-8 64.5v214zM319 547l99 238h170l-133 -238h-136z" />
    <glyph glyph-name="Tbar" unicode="&#x166;" horiz-adv-x="591" 
d="M582 533h-194v-533h-186v533h-193v141h573v-141zM151 765v117h289v-117h-289z" />
    <glyph glyph-name="tbar" unicode="&#x167;" horiz-adv-x="384" 
d="M78 210h-49v100h49v64h-69v110h69v114h186v-114h91v-110h-91v-64h64v-100h-64v-67q0 -26 15 -26q33 0 81 19l7 -112q-68 -35 -118 -35h-23t-28.5 3.5t-33.5 9t-31 18t-28.5 30t-18.5 46t-8 64.5v50z" />
    <glyph glyph-name="Utilde" unicode="&#x168;" horiz-adv-x="727" 
d="M363 -12q-147 0 -224 72.5t-77 242.5v371h187v-372q0 -88 27.5 -131t86.5 -43q62 0 89 42.5t27 131.5v372h186v-371q0 -171 -76.5 -243t-225.5 -72zM326 776q-26 0 -30 -42h-91q0 80 22.5 118.5t82.5 38.5q24 0 51 -16q32 -17 42 -17q31 0 26 40h93q0 -71 -22.5 -114
t-83.5 -43q-21 0 -51 18q-28 17 -39 17z" />
    <glyph glyph-name="utilde" unicode="&#x169;" horiz-adv-x="580" 
d="M57 206v278h180v-278q0 -85 39 -85q8 0 16 1.5t21 7.5t21.5 21.5t8.5 38.5v294h180v-484h-174v56q-12 -22 -29.5 -36t-36 -19t-27.5 -6.5t-16 -1.5q-32 0 -62 10.5t-58.5 33t-45.5 66.5t-17 103zM252 586q-26 0 -30 -42h-91q0 80 22.5 118.5t82.5 38.5q24 0 51 -16
q32 -17 42 -17q31 0 26 40h93q0 -71 -22.5 -114t-83.5 -43q-21 0 -51 18q-28 17 -39 17z" />
    <glyph glyph-name="Umacron" unicode="&#x16a;" horiz-adv-x="727" 
d="M363 -12q-147 0 -224 72.5t-77 242.5v371h187v-372q0 -88 27.5 -131t86.5 -43q62 0 89 42.5t27 131.5v372h186v-371q0 -171 -76.5 -243t-225.5 -72zM219 765v117h289v-117h-289z" />
    <glyph glyph-name="umacron" unicode="&#x16b;" horiz-adv-x="580" 
d="M57 206v278h180v-278q0 -85 39 -85q8 0 16 1.5t21 7.5t21.5 21.5t8.5 38.5v294h180v-484h-174v56q-12 -22 -29.5 -36t-36 -19t-27.5 -6.5t-16 -1.5q-32 0 -62 10.5t-58.5 33t-45.5 66.5t-17 103zM145 575v117h289v-117h-289z" />
    <glyph glyph-name="Ubreve" unicode="&#x16c;" horiz-adv-x="727" 
d="M363 -12q-147 0 -224 72.5t-77 242.5v371h187v-372q0 -88 27.5 -131t86.5 -43q62 0 89 42.5t27 131.5v372h186v-371q0 -171 -76.5 -243t-225.5 -72zM364 735q-81 0 -123 49.5t-42 126.5h104q2 -40 14 -54.5t46 -14.5t46 15t14 54h104q0 -77 -42 -126.5t-121 -49.5z" />
    <glyph glyph-name="ubreve" unicode="&#x16d;" horiz-adv-x="580" 
d="M57 206v278h180v-278q0 -85 39 -85q8 0 16 1.5t21 7.5t21.5 21.5t8.5 38.5v294h180v-484h-174v56q-12 -22 -29.5 -36t-36 -19t-27.5 -6.5t-16 -1.5q-32 0 -62 10.5t-58.5 33t-45.5 66.5t-17 103zM291 545q-81 0 -123 49.5t-42 126.5h104q2 -40 14 -54.5t46 -14.5t46 15
t14 54h104q0 -77 -42 -126.5t-121 -49.5z" />
    <glyph glyph-name="Uring" unicode="&#x16e;" horiz-adv-x="727" 
d="M363 -12q-147 0 -224 72.5t-77 242.5v371h187v-372q0 -88 27.5 -131t86.5 -43q62 0 89 42.5t27 131.5v372h186v-371q0 -171 -76.5 -243t-225.5 -72zM251 855q0 45 27.5 74.5t84.5 29.5q59 0 85.5 -29t26.5 -75q0 -104 -112 -104q-58 0 -85 29.5t-27 74.5zM389 855
q0 32 -27 32t-27 -32q0 -33 27 -33t27 33z" />
    <glyph glyph-name="uring" unicode="&#x16f;" horiz-adv-x="580" 
d="M57 206v278h180v-278q0 -85 39 -85q8 0 16 1.5t21 7.5t21.5 21.5t8.5 38.5v294h180v-484h-174v56q-12 -22 -29.5 -36t-36 -19t-27.5 -6.5t-16 -1.5q-32 0 -62 10.5t-58.5 33t-45.5 66.5t-17 103zM178 665q0 45 27.5 74.5t84.5 29.5q59 0 85.5 -29t26.5 -75
q0 -104 -112 -104q-58 0 -85 29.5t-27 74.5zM316 665q0 32 -27 32t-27 -32q0 -33 27 -33t27 33z" />
    <glyph glyph-name="Uhungarumlaut" unicode="&#x170;" horiz-adv-x="727" 
d="M363 -12q-147 0 -224 72.5t-77 242.5v371h187v-372q0 -88 27.5 -131t86.5 -43q62 0 89 42.5t27 131.5v372h186v-371q0 -171 -76.5 -243t-225.5 -72zM193 741l78 164h144l-105 -164h-117zM370 741l78 164h144l-105 -164h-117z" />
    <glyph glyph-name="uhungarumlaut" unicode="&#x171;" horiz-adv-x="580" 
d="M57 206v278h180v-278q0 -85 39 -85q8 0 16 1.5t21 7.5t21.5 21.5t8.5 38.5v294h180v-484h-174v56q-12 -22 -29.5 -36t-36 -19t-27.5 -6.5t-16 -1.5q-32 0 -62 10.5t-58.5 33t-45.5 66.5t-17 103zM132 551l78 164h144l-105 -164h-117zM309 551l78 164h144l-105 -164h-117z
" />
    <glyph glyph-name="Uogonek" unicode="&#x172;" horiz-adv-x="727" 
d="M411 -10q-58 -89 -12 -88q9 0 24 4l47 13v-95q-39 -18 -82 -23q-65 -6 -95.5 28.5t-10.5 96.5q9 30 33 64q-123 10 -188 84t-65 229v371h187v-372q0 -88 27.5 -131t86.5 -43q62 0 89 42.5t27 131.5v372h186v-371q0 -157 -65 -230t-189 -83z" />
    <glyph glyph-name="uogonek" unicode="&#x173;" horiz-adv-x="580" 
d="M57 206v278h180v-278q0 -85 39 -85q8 0 16 1.5t21 7.5t21.5 21.5t8.5 38.5v294h180v-484h-78q-71 -105 -15 -99q8 1 20 5l47 13v-95q-39 -18 -82 -23q-65 -6 -95.5 28.5t-10.5 96.5q13 38 40 74v56q-12 -22 -29.5 -36t-36 -19t-27.5 -6.5t-16 -1.5q-32 0 -62 10.5
t-58.5 33t-45.5 66.5t-17 103z" />
    <glyph glyph-name="Wcircumflex" unicode="&#x174;" horiz-adv-x="968" 
d="M569 652l98 -398l98 420h194l-206 -674h-170l-98 387l-100 -387h-169l-207 674h191l101 -420l99 398h169zM406 906h154l110 -167h-148l-40 84l-36 -84h-149z" />
    <glyph glyph-name="wcircumflex" unicode="&#x175;" horiz-adv-x="812" 
d="M9 484h188l62 -263l61 263h172l62 -260l62 260h187l-168 -484h-154l-75 238l-73 -238h-156zM328 716h154l110 -167h-148l-40 84l-36 -84h-149z" />
    <glyph glyph-name="Ycircumflex" unicode="&#x176;" horiz-adv-x="724" 
d="M457 0h-189v238l-259 436h213l141 -284l138 284h214l-258 -435v-239zM284 906h154l110 -167h-148l-40 84l-36 -84h-149z" />
    <glyph glyph-name="ycircumflex" unicode="&#x177;" horiz-adv-x="595" 
d="M87 -149l15 110q18 -5 49 -8q10 -1 21.5 6t16.5 20l22 51q-11 26 -31 72t-70.5 157.5t-100.5 224.5h189l102 -285l96 285h190l-243 -571q-21 -50 -67 -68.5t-86 -18.5q-32 0 -103 25zM220 716h154l110 -167h-148l-40 84l-36 -84h-149z" />
    <glyph glyph-name="Ydieresis" unicode="&#x178;" horiz-adv-x="724" 
d="M457 0h-189v238l-259 436h213l141 -284l138 284h214l-258 -435v-239zM193 745v136h148v-136h-148zM383 745v136h148v-136h-148z" />
    <glyph glyph-name="Zacute" unicode="&#x179;" horiz-adv-x="624" 
d="M586 0h-564v121l335 412h-319v141h564v-118l-341 -413h325v-143zM225 744l79 154h173l-122 -154h-130z" />
    <glyph glyph-name="zacute" unicode="&#x17a;" horiz-adv-x="496" 
d="M22 0v104l226 252h-218v128h444v-104l-224 -252h216v-128h-444zM151 554l79 154h173l-122 -154h-130z" />
    <glyph glyph-name="Zdotaccent" unicode="&#x17b;" horiz-adv-x="624" 
d="M586 0h-564v121l335 412h-319v141h564v-118l-341 -413h325v-143zM227 753v130h169v-130h-169z" />
    <glyph glyph-name="zdotaccent" unicode="&#x17c;" horiz-adv-x="496" 
d="M22 0v104l226 252h-218v128h444v-104l-224 -252h216v-128h-444zM163 563v130h169v-130h-169z" />
    <glyph glyph-name="Zcaron" unicode="&#x17d;" horiz-adv-x="624" 
d="M586 0h-564v121l335 412h-319v141h564v-118l-341 -413h325v-143zM389 738h-154l-110 167h148l40 -84l36 84h149z" />
    <glyph glyph-name="zcaron" unicode="&#x17e;" horiz-adv-x="496" 
d="M22 0v104l226 252h-218v128h444v-104l-224 -252h216v-128h-444zM325 548h-154l-110 167h148l40 -84l36 84h149z" />
    <glyph glyph-name="longs" unicode="&#x17f;" horiz-adv-x="328" 
d="M13 484h52v35q0 47 15.5 80.5t35.5 49.5t48 25t42 10t29 1q49 0 116 -36l-29 -97q-23 12 -50 12q-28 0 -28 -30v-534h-180l1 374h-52v110z" />
    <glyph glyph-name="florin" unicode="&#x192;" horiz-adv-x="582" 
d="M117 -5l92 364h-52l25 101h53l10 38q38 160 198 157h4q49 0 113 -39l-27 -106q-29 17 -80 17q-20 0 -29 -37l-7 -30h81l-25 -101h-82l-94 -370q-9 -33 -23.5 -59.5t-30 -42.5t-36 -28t-35 -17.5t-33.5 -8t-26 -3t-17 -0.5q-52 0 -114 39l24 109q46 -18 81 -18q22 0 30 35
z" />
    <glyph glyph-name="Aringacute" unicode="&#x1fa;" horiz-adv-x="742" 
d="M259 812q0 45 27.5 74.5t84.5 29.5q59 0 85.5 -29t26.5 -75q0 -104 -112 -104q-58 0 -85 29.5t-27 74.5zM397 812q0 32 -27 32t-27 -32q0 -33 27 -33t27 33zM309 948l79 154h173l-122 -154h-130zM205 0h-196l280 674h164l280 -674h-196l-57 147h-219zM370 500l-70 -220
h142z" />
    <glyph glyph-name="aringacute" unicode="&#x1fb;" horiz-adv-x="536" 
d="M148 650q0 45 27.5 74.5t84.5 29.5q59 0 85.5 -29t26.5 -75q0 -104 -112 -104q-58 0 -85 29.5t-27 74.5zM286 650q0 32 -27 32t-27 -32q0 -33 27 -33t27 33zM195 779l79 154h173l-122 -154h-130zM484 0h-178v63q-16 -28 -54 -47.5t-86 -19.5q-59 0 -98 43t-39 106
q0 149 279 175v15q-4 44 -64 44q-49 0 -101 -21q-27 -12 -44 -21l-42 104q0 2 27.5 15.5t82 28t109.5 14.5q12 0 27 -0.5t50.5 -9.5t61.5 -25t47.5 -51t21.5 -84v-329zM226 120q11 0 27.5 3.5t35.5 18t19 37.5v46q-41 0 -78 -21.5t-37 -51.5q0 -32 33 -32z" />
    <glyph glyph-name="AEacute" unicode="&#x1fc;" horiz-adv-x="966" 
d="M357 744l79 154h173l-122 -154h-130zM414 525l-92 -244h92v244zM601 141h323v-141h-510v142h-133l-69 -142h-205l338 674h572v-141h-315v-123h293v-141h-294v-128z" />
    <glyph glyph-name="aeacute" unicode="&#x1fd;" horiz-adv-x="835" 
d="M326 554l79 154h173l-122 -154h-130zM567 -7q-121 0 -192 73q-18 -25 -44 -40.5t-61 -21.5t-55 -7t-54 -1q-59 0 -98 43t-39 106q0 149 279 175v15q-4 44 -64 44q-49 0 -101 -21q-27 -12 -44 -21l-42 104q0 2 27.5 15.5t82 28t109.5 14.5q91 0 146 -58q57 56 141 56
q116 0 182 -71.5t66 -180.5q0 -26 -4 -59h-320q5 -33 34 -52t76 -19q62 0 145 29l41 -98q-86 -53 -211 -53zM480 293h163q0 35 -21 60.5t-60 25.5q-41 0 -61.5 -26.5t-20.5 -59.5zM221 120q11 0 27.5 3.5t35.5 18t19 37.5v46q-41 0 -78 -21.5t-37 -51.5q0 -32 33 -32z" />
    <glyph glyph-name="Oslashacute" unicode="&#x1fe;" horiz-adv-x="757" 
d="M309 744l79 154h173l-122 -154h-130zM247 223l199 305q-33 18 -68 18q-72 0 -110.5 -59.5t-38.5 -149.5q0 -68 18 -114zM66 -53l78 119q-107 93 -107 271q0 162 91.5 255t249.5 93q87 0 152 -28l39 59h126l-77 -116q102 -90 102 -263q0 -162 -91.5 -255.5t-250.5 -93.5
q-80 0 -144 23l-43 -64h-125zM513 438l-194 -298q26 -14 59 -14q73 0 111.5 59.5t38.5 151.5q0 61 -15 101z" />
    <glyph glyph-name="oslashacute" unicode="&#x1ff;" horiz-adv-x="569" 
d="M226 554l79 154h173l-122 -154h-130zM214 207l104 147q-17 12 -34 12q-34 0 -53.5 -37t-19.5 -86q0 -18 3 -36zM168 14l-28 -40h-91l56 80q-73 67 -73 189q0 118 68 186t184 68q64 0 119 -23l24 34h92l-54 -76q72 -67 72 -189q0 -117 -67.5 -183.5t-185.5 -66.5
q-65 0 -116 21zM355 276l-104 -146q14 -11 33 -11q34 0 54 37.5t20 86.5q0 18 -3 33z" />
    <glyph glyph-name="Scommaaccent" unicode="&#x218;" horiz-adv-x="617" 
d="M308 685q79 0 135.5 -22t121.5 -72l-53 -121q-54 34 -100 51t-59.5 18t-38.5 1q-38 0 -60.5 -14t-22.5 -34q0 -29 43 -50l171 -64q145 -56 145 -177q0 -99 -77 -153.5t-187 -54.5q-99 0 -147 19q-97 36 -152 89l64 128q43 -39 110.5 -66.5t125.5 -27.5q30 0 53 12t23 38
q0 35 -32 49l-173 67q-79 32 -115 78.5t-36 97.5q0 96 73.5 152t187.5 56zM143 -220l93 179h173l-136 -179h-130z" />
    <glyph glyph-name="scommaaccent" unicode="&#x219;" horiz-adv-x="483" 
d="M253 121q24 0 31 16q7 20 -8 26l-121 45q-65 28 -88.5 61t-23.5 78q0 68 55.5 109t144.5 41q54 0 98 -15.5t107 -58.5l-54 -103q-72 51 -146 51q-21 0 -27 -16q-3 -8 5.5 -15.5t32.5 -16.5l74 -28q72 -25 104 -84.5t4 -130.5q-20 -41 -69.5 -64t-117.5 -23q-63 0 -105 14
q-67 22 -122 72l69 109q76 -67 157 -67zM63 -220l93 179h173l-136 -179h-130z" />
    <glyph glyph-name="hsuperior" unicode="&#x2b0;" horiz-adv-x="377" 
d="M345 624v-181h-132v181q0 49 -15 49q-6 0 -13 -2.5t-14 -14t-7 -30.5v-183h-132v428h132v-148q24 44 57 44q124 0 124 -143z" />
    <glyph glyph-name="jsuperior" unicode="&#x2b2;" horiz-adv-x="201" 
d="M168 758v-316q0 -110 -116 -110q-35 0 -90 28l19 66q55 -22 55 19v313h132zM38 787v84h131v-84h-131z" />
    <glyph glyph-name="wsuperior" unicode="&#x2b7;" horiz-adv-x="539" 
d="M9 761h139l30 -165l40 165h104l39 -165l31 165h138l-110 -318h-111l-39 167l-37 -167h-113z" />
    <glyph glyph-name="ysuperior" unicode="&#x2b8;" horiz-adv-x="405" 
d="M60 354l11 80q19 -8 31 -10t18.5 3t9.5 12.5t7 22.5q1 5 2 8l-130 291h138l57 -166l55 166h137l-156 -366q-16 -31 -48 -44.5t-57 -13.5q-22 0 -75 17z" />
    <glyph glyph-name="circumflex" unicode="&#x2c6;" horiz-adv-x="447" 
d="M146 716h154l110 -167h-148l-40 84l-36 -84h-149z" />
    <glyph glyph-name="caron" unicode="&#x2c7;" horiz-adv-x="447" 
d="M301 548h-154l-110 167h148l40 -84l36 84h149z" />
    <glyph glyph-name="breve" unicode="&#x2d8;" horiz-adv-x="402" 
d="M202 545q-81 0 -123 49.5t-42 126.5h104q2 -40 14 -54.5t46 -14.5t46 15t14 54h104q0 -77 -42 -126.5t-121 -49.5z" />
    <glyph glyph-name="dotaccent" unicode="&#x2d9;" horiz-adv-x="243" 
d="M37 563v130h169v-130h-169z" />
    <glyph glyph-name="ring" unicode="&#x2da;" horiz-adv-x="298" 
d="M37 665q0 45 27.5 74.5t84.5 29.5q59 0 85.5 -29t26.5 -75q0 -104 -112 -104q-58 0 -85 29.5t-27 74.5zM175 665q0 32 -27 32t-27 -32q0 -33 27 -33t27 33z" />
    <glyph glyph-name="ogonek" unicode="&#x2db;" horiz-adv-x="270" 
d="M93 10h95q-81 -115 -21 -108q8 1 19 4l47 13v-95q-39 -18 -82 -23q-65 -6 -95.5 28.5t-10.5 96.5q17 50 48 84z" />
    <glyph glyph-name="tilde" unicode="&#x2dc;" horiz-adv-x="391" 
d="M158 586q-26 0 -30 -42h-91q0 80 22.5 118.5t82.5 38.5q24 0 51 -16q32 -17 42 -17q31 0 26 40h93q0 -71 -22.5 -114t-83.5 -43q-21 0 -51 18q-28 17 -39 17z" />
    <glyph glyph-name="hungarumlaut" unicode="&#x2dd;" horiz-adv-x="473" 
d="M37 551l78 164h144l-105 -164h-117zM214 551l78 164h144l-105 -164h-117z" />
    <glyph glyph-name="xsuperior" unicode="&#x2e3;" horiz-adv-x="419" 
d="M251 761h149l-114 -157l124 -161h-151l-49 97l-50 -97h-151l123 161l-113 157h149l40 -87z" />
    <glyph glyph-name="Omega" unicode="&#x3a9;" horiz-adv-x="708" 
d="M354 542q-75 0 -110.5 -53t-35.5 -125q0 -46 4 -78t15.5 -66.5t37.5 -58.5t66 -37v-124h-292v140h97q-43 31 -71 98.5t-28 125.5q0 143 84.5 230t232.5 87t232.5 -87t84.5 -230q0 -58 -28 -126t-71 -98h97v-140h-292v124q40 13 66 37t37.5 58.5t15.5 66.5t4 78
q0 72 -35.5 125t-110.5 53z" />
    <glyph glyph-name="Omega" unicode="&#x2126;" horiz-adv-x="708" 
d="M354 542q-75 0 -110.5 -53t-35.5 -125q0 -46 4 -78t15.5 -66.5t37.5 -58.5t66 -37v-124h-292v140h97q-43 31 -71 98.5t-28 125.5q0 143 84.5 230t232.5 87t232.5 -87t84.5 -230q0 -58 -28 -126t-71 -98h97v-140h-292v124q40 13 66 37t37.5 58.5t15.5 66.5t4 78
q0 72 -35.5 125t-110.5 53z" />
    <glyph glyph-name="pi" unicode="&#x3c0;" horiz-adv-x="667" 
d="M378 0v354h-85v-354h-167v354h-89v130h593v-130h-85v-354h-167z" />
    <glyph glyph-name="Wgrave" unicode="&#x1e80;" horiz-adv-x="968" 
d="M569 652l98 -398l98 420h194l-206 -674h-170l-98 387l-100 -387h-169l-207 674h191l101 -420l99 398h169zM497 898l79 -154h-130l-122 154h173z" />
    <glyph glyph-name="wgrave" unicode="&#x1e81;" horiz-adv-x="812" 
d="M9 484h188l62 -263l61 263h172l62 -260l62 260h187l-168 -484h-154l-75 238l-73 -238h-156zM421 708l79 -154h-130l-122 154h173z" />
    <glyph glyph-name="Wacute" unicode="&#x1e82;" horiz-adv-x="968" 
d="M569 652l98 -398l98 420h194l-206 -674h-170l-98 387l-100 -387h-169l-207 674h191l101 -420l99 398h169zM403 744l79 154h173l-122 -154h-130z" />
    <glyph glyph-name="wacute" unicode="&#x1e83;" horiz-adv-x="812" 
d="M9 484h188l62 -263l61 263h172l62 -260l62 260h187l-168 -484h-154l-75 238l-73 -238h-156zM309 554l79 154h173l-122 -154h-130z" />
    <glyph glyph-name="Wdieresis" unicode="&#x1e84;" horiz-adv-x="968" 
d="M569 652l98 -398l98 420h194l-206 -674h-170l-98 387l-100 -387h-169l-207 674h191l101 -420l99 398h169zM315 745v136h148v-136h-148zM505 745v136h148v-136h-148z" />
    <glyph glyph-name="wdieresis" unicode="&#x1e85;" horiz-adv-x="812" 
d="M9 484h188l62 -263l61 263h172l62 -260l62 260h187l-168 -484h-154l-75 238l-73 -238h-156zM237 555v136h148v-136h-148zM427 555v136h148v-136h-148z" />
    <glyph glyph-name="Ygrave" unicode="&#x1ef2;" horiz-adv-x="724" 
d="M457 0h-189v238l-259 436h213l141 -284l138 284h214l-258 -435v-239zM376 898l79 -154h-130l-122 154h173z" />
    <glyph glyph-name="ygrave" unicode="&#x1ef3;" horiz-adv-x="595" 
d="M87 -149l15 110q18 -5 49 -8q10 -1 21.5 6t16.5 20l22 51q-11 26 -31 72t-70.5 157.5t-100.5 224.5h189l102 -285l96 285h190l-243 -571q-21 -50 -67 -68.5t-86 -18.5q-32 0 -103 25zM312 708l79 -154h-130l-122 154h173z" />
    <glyph glyph-name="endash" unicode="&#x2013;" horiz-adv-x="589" 
d="M37 327h515v-141h-515v141z" />
    <glyph glyph-name="emdash" unicode="&#x2014;" horiz-adv-x="744" 
d="M37 327h670v-140h-670v140z" />
    <glyph glyph-name="quoteleft" unicode="&#x2018;" horiz-adv-x="382" 
d="M345 674l-123 -238h-185l157 238h151z" />
    <glyph glyph-name="quoteright" unicode="&#x2019;" horiz-adv-x="382" 
d="M37 436l123 238h185l-157 -238h-151z" />
    <glyph glyph-name="quotesinglbase" unicode="&#x201a;" horiz-adv-x="382" 
d="M37 -108l123 238h185l-157 -238h-151z" />
    <glyph glyph-name="quotedblleft" unicode="&#x201c;" horiz-adv-x="620" 
d="M460 674l123 -238h-151l-157 238h185zM222 674l123 -238h-151l-157 238h185z" />
    <glyph glyph-name="quotedblright" unicode="&#x201d;" horiz-adv-x="620" 
d="M37 436l123 238h185l-157 -238h-151zM275 436l123 238h185l-157 -238h-151z" />
    <glyph glyph-name="quotedblbase" unicode="&#x201e;" horiz-adv-x="623" 
d="M37 -108l123 238h185l-157 -238h-151zM278 -108l123 238h185l-157 -238h-151z" />
    <glyph glyph-name="dagger" unicode="&#x2020;" horiz-adv-x="508" 
d="M471 394h-141v-394h-153v394h-140v111h140v158h153v-158h141v-111z" />
    <glyph glyph-name="daggerdbl" unicode="&#x2021;" horiz-adv-x="508" 
d="M471 414h-141v-153h141v-111h-141v-150h-153v150h-140v111h140v153h-140v111h140v138h153v-138h141v-111z" />
    <glyph glyph-name="bullet" unicode="&#x2022;" horiz-adv-x="387" 
d="M47 297q0 54 42.5 91.5t103.5 37.5q62 0 104.5 -37.5t42.5 -91.5q0 -55 -42.5 -92t-104.5 -37t-104 37t-42 92z" />
    <glyph glyph-name="ellipsis" unicode="&#x2026;" horiz-adv-x="764" 
d="M47 0v151h181v-151h-181zM292 0v151h180v-151h-180zM538 0v151h179v-151h-179z" />
    <glyph glyph-name="perthousand" unicode="&#x2030;" horiz-adv-x="1208" 
d="M22 505q0 79 45.5 124t123.5 45q79 0 125.5 -45.5t46.5 -123.5q0 -79 -46.5 -124.5t-125.5 -45.5q-78 0 -123.5 45.5t-45.5 124.5zM235 505q0 27 -12.5 47t-31.5 20q-18 0 -30 -20t-12 -47t12 -46.5t30 -19.5t31 19.5t13 46.5zM452 165q0 79 45.5 124t123.5 45
q79 0 125.5 -45.5t46.5 -123.5q0 -79 -46.5 -124.5t-125.5 -45.5q-78 0 -123.5 45.5t-45.5 124.5zM665 165q0 27 -12.5 47t-31.5 20q-18 0 -30 -20t-12 -47t12 -46.5t30 -19.5t31 19.5t13 46.5zM156 0l398 674h80l-397 -674h-81zM845 165q0 79 45.5 124t123.5 45
q79 0 125.5 -45.5t46.5 -123.5q0 -79 -46.5 -124.5t-125.5 -45.5q-78 0 -123.5 45.5t-45.5 124.5zM1058 165q0 27 -12.5 47t-31.5 20q-18 0 -30 -20t-12 -47t12 -46.5t30 -19.5t31 19.5t13 46.5z" />
    <glyph glyph-name="guilsinglleft" unicode="&#x2039;" horiz-adv-x="378" 
d="M198 325l133 -232h-153l-131 232l131 232h153z" />
    <glyph glyph-name="guilsinglright" unicode="&#x203a;" horiz-adv-x="378" 
d="M47 93l133 232l-133 232h153l131 -232l-131 -232h-153z" />
    <glyph glyph-name="fraction" unicode="&#x2044;" horiz-adv-x="552" 
d="M37 0l398 674h80l-397 -674h-81z" />
    <glyph glyph-name="zerosuperior" unicode="&#x2070;" horiz-adv-x="371" 
d="M184 456q-72 0 -114.5 52.5t-42.5 144.5t42.5 144.5t114.5 52.5q75 0 117.5 -52.5t42.5 -144.5t-42.5 -144.5t-117.5 -52.5zM184 764q-19 0 -31 -33.5t-12 -77.5t12 -77.5t31 -33.5q22 0 34 32.5t12 78.5q0 45 -12 78t-34 33z" />
    <glyph glyph-name="foursuperior" unicode="&#x2074;" horiz-adv-x="356" 
d="M278 463l-117 1v65h-154v71q51 125 166 244h105v-227h48v-88h-48v-66zM94 617h67v100q-15 -15 -36.5 -46t-30.5 -54z" />
    <glyph glyph-name="fivesuperior" unicode="&#x2075;" horiz-adv-x="364" 
d="M221 599q0 19 -11 34t-32 15q-12 0 -18.5 -1t-14 -7.5t-13.5 -19.5h-96q35 217 37 225h231v-88h-148l-10 -56q28 26 74 26q38 0 73.5 -35t35.5 -94q0 -71 -47.5 -107.5t-114.5 -36.5q-83 0 -140 63l47 65q9 -9 18 -16t17.5 -11t15 -6.5t13.5 -3.5l10.5 -1.5t9 0t6.5 0.5
q30 0 43.5 16t13.5 39z" />
    <glyph glyph-name="sixsuperior" unicode="&#x2076;" horiz-adv-x="364" 
d="M309 811l-28 -63q-39 18 -70 18q-11 0 -18.5 -1.5t-22 -8t-22.5 -25.5t-8 -48q17 21 34.5 31t46.5 10q42 0 75 -37t33 -96q0 -63 -42 -99t-107 -36q-38 0 -66.5 12.5t-44.5 31.5t-26 45t-13 48t-3 46q0 101 46.5 156t121.5 55q61 0 114 -39zM179 540q16 0 23.5 15.5
t7.5 35.5q0 18 -7.5 34t-23.5 16q-14 0 -21.5 -13.5t-7.5 -32.5q0 -55 29 -55z" />
    <glyph glyph-name="sevensuperior" unicode="&#x2077;" horiz-adv-x="362" 
d="M27 753v91h300v-67q-99 -125 -159 -314h-125q58 156 170 290h-186z" />
    <glyph glyph-name="eightsuperior" unicode="&#x2078;" horiz-adv-x="361" 
d="M177 455q-74 0 -113.5 34.5t-39.5 83.5q0 24 18 51.5t50 34.5q-24 7 -40 33t-16 47q0 52 44 80.5t97 28.5q57 0 99 -29.5t42 -79.5q0 -46 -50 -80q34 -11 47.5 -36t13.5 -50q0 -49 -39 -83.5t-113 -34.5zM176 537q17 0 28.5 13t11.5 27q0 45 -40 45q-37 0 -37 -45
q0 -16 11 -28t26 -12zM176 695q16 0 25 12t9 25q0 14 -9 26t-24 12t-25 -12t-10 -24q0 -15 8.5 -27t25.5 -12z" />
    <glyph glyph-name="ninesuperior" unicode="&#x2079;" horiz-adv-x="361" 
d="M47 495l28 63q42 -18 70 -18q11 0 18.5 1.5t22 8t22.5 25.5t8 48q-17 -21 -34.5 -31t-46.5 -10q-42 0 -75 37t-33 96q0 63 42 99t107 36q38 0 66.5 -12.5t44.5 -31.5t26 -45t13 -48t3 -46q0 -101 -46.5 -156t-121.5 -55q-61 0 -114 39zM177 766q-16 0 -23.5 -15.5
t-7.5 -35.5q0 -18 7.5 -34t23.5 -16q14 0 21.5 13.5t7.5 32.5q0 55 -29 55z" />
    <glyph glyph-name="nsuperior" unicode="&#x207f;" horiz-adv-x="377" 
d="M345 624v-181h-128v181q0 21 -5.5 36t-13.5 15q-11 0 -24 -11.5t-13 -38.5v-182h-129v316h125v-40q29 49 66 49q60 0 91 -33t31 -111z" />
    <glyph glyph-name="zeroinferior" unicode="&#x2080;" horiz-adv-x="371" 
d="M184 -155q-72 0 -114.5 52.5t-42.5 144.5t42.5 144.5t114.5 52.5q75 0 117.5 -52.5t42.5 -144.5t-42.5 -144.5t-117.5 -52.5zM184 153q-19 0 -31 -33.5t-12 -77.5t12 -77.5t31 -33.5q22 0 34 32.5t12 78.5q0 45 -12 78t-34 33z" />
    <glyph glyph-name="oneinferior" unicode="&#x2081;" horiz-adv-x="270" 
d="M62 59l-54 58l114 116h94v-381h-115v244z" />
    <glyph glyph-name="twoinferior" unicode="&#x2082;" horiz-adv-x="379" 
d="M185 148q-40 0 -83 -48l-56 54q59 77 142 77q60 0 102 -34.5t42 -89.5q0 -21 -9 -39.5t-28.5 -35.5t-33.5 -26t-41 -26q-40 -24 -57 -41h163v-87h-285v54q0 43 28.5 73.5t80.5 62.5q68 40 68 67q0 13 -9.5 26t-23.5 13z" />
    <glyph glyph-name="threeinferior" unicode="&#x2083;" horiz-adv-x="338" 
d="M155 -154q-84 0 -153 63l50 58q45 -39 89 -39q24 0 34.5 11.5t10.5 26.5q0 39 -41 39h-50v79h48q40 0 40 37q0 14 -9 25t-25 11q-52 0 -86 -37l-50 53q54 66 141 66q62 0 102 -31t40 -86q0 -43 -51 -73q27 -12 42 -35.5t15 -46.5q0 -55 -44 -88t-103 -33z" />
    <glyph glyph-name="fourinferior" unicode="&#x2084;" horiz-adv-x="356" 
d="M278 -148h-117v66h-154v71q51 125 166 244h105v-227h48v-88h-48v-66zM94 6h67v100q-15 -15 -36.5 -46t-30.5 -54z" />
    <glyph glyph-name="fiveinferior" unicode="&#x2085;" horiz-adv-x="364" 
d="M221 -12q0 19 -11 34t-32 15q-12 0 -18.5 -1t-14 -7.5t-13.5 -19.5h-96q35 217 37 225h231v-88h-148l-10 -56q28 26 74 26q38 0 73.5 -35t35.5 -94q0 -71 -47.5 -107.5t-114.5 -36.5q-83 0 -140 63l47 65q9 -9 18 -16t17.5 -11t15 -6.5t13.5 -3.5l10.5 -1.5t9 0t6.5 0.5
q30 0 43.5 16t13.5 39z" />
    <glyph glyph-name="sixinferior" unicode="&#x2086;" horiz-adv-x="364" 
d="M309 200l-28 -63q-39 18 -70 18q-11 0 -18.5 -1.5t-22 -8t-22.5 -25.5t-8 -48q17 21 34.5 31t46.5 10q42 0 75 -37t33 -96q0 -63 -42 -99t-107 -36q-38 0 -66.5 12.5t-44.5 31.5t-26 45t-13 48t-3 46q0 101 46.5 156t121.5 55q61 0 114 -39zM179 -71q16 0 23.5 15.5
t7.5 35.5q0 18 -7.5 34t-23.5 16q-14 0 -21.5 -13.5t-7.5 -32.5q0 -55 29 -55z" />
    <glyph glyph-name="seveninferior" unicode="&#x2087;" horiz-adv-x="362" 
d="M27 142v91h300v-67q-99 -125 -159 -314h-125q58 156 170 290h-186z" />
    <glyph glyph-name="eightinferior" unicode="&#x2088;" horiz-adv-x="361" 
d="M177 -155q-74 0 -113.5 34.5t-39.5 83.5q0 24 18 51.5t50 34.5q-24 7 -40 33t-16 47q0 52 44 80.5t97 28.5q57 0 99 -29.5t42 -79.5q0 -46 -50 -80q34 -11 47.5 -36t13.5 -50q0 -49 -39 -83.5t-113 -34.5zM176 -73q17 0 28.5 13t11.5 27q0 45 -40 45q-37 0 -37 -45
q0 -16 11 -28t26 -12zM176 85q16 0 25 12t9 25q0 14 -9 26t-24 12t-25 -12t-10 -24q0 -15 8.5 -27t25.5 -12z" />
    <glyph glyph-name="nineinferior" unicode="&#x2089;" horiz-adv-x="361" 
d="M47 -116l28 63q39 -18 70 -18q11 0 18.5 1.5t22 8t22.5 25.5t8 48q-17 -21 -34.5 -31t-46.5 -10q-42 0 -75 37t-33 96q0 63 42 99t107 36q38 0 66.5 -12.5t44.5 -31.5t26 -45t13 -48t3 -46q0 -101 -46.5 -156t-121.5 -55q-61 0 -114 39zM177 155q-16 0 -23.5 -15.5
t-7.5 -35.5q0 -18 7.5 -34t23.5 -16q14 0 21.5 13.5t7.5 32.5q0 55 -29 55z" />
    <glyph glyph-name="Euro" unicode="&#x20ac;" horiz-adv-x="702" 
d="M21 216l46 89h64q0 5 0.5 25t0.5 23h-115l52 88h79q36 103 120 168t205 65q110 0 192 -55l-56 -109q-64 32 -117 32q-104 0 -157 -101h251l-52 -88h-226q-6 -23 0 -48h211l-53 -89h-124q56 -90 150 -90q57 0 112 32l54 -113q-101 -52 -185 -52q-122 0 -206 61t-115 162
h-131z" />
    <glyph glyph-name="afii61289" unicode="&#x2113;" horiz-adv-x="368" 
d="M341 499v-137q0 -48 -14.5 -84.5t-34 -56t-44 -31.5t-41 -15.5t-28.5 -3.5q-2 0 -3.5 -0.5t-3.5 0.5v-28q0 -40 35 -40q26 0 103 23l14 -104q-24 -12 -57.5 -20t-53 -10.5t-27.5 -2.5h-3q-17 0 -29.5 1t-38.5 9.5t-43 24t-31 49.5t-14 81v345q0 47 14 81t31.5 49.5t44 24
t39 9.5t29.5 1h4q14 0 27 -1t38 -10t42 -25t31 -49.5t14 -79.5zM208 352v158q0 13 -8.5 30t-15.5 17q-12 0 -12 -47v-220q36 31 36 62z" />
    <glyph glyph-name="trademark" unicode="&#x2122;" horiz-adv-x="823" 
d="M348 605h-125v-330h-91v330h-120v69h445l100 -292l101 292h104l24 -399h-89l-11 261l-92 -261h-73l-91 260l-12 -260h-90z" />
    <glyph glyph-name="estimated" unicode="&#x212e;" horiz-adv-x="622" 
d="M585 282h-429v-193q68 -63 152 -63q76 0 122 32.5t88 94.5l31 -19q-43 -68 -98.5 -104.5t-142.5 -36.5q-119 0 -195 84.5t-76 205.5q0 123 75 206.5t200 83.5q124 0 198.5 -84.5t74.5 -206.5zM465 315v163q-68 62 -153 62q-96 0 -156 -62v-163h309z" />
    <glyph glyph-name="onethird" unicode="&#x2153;" horiz-adv-x="844" 
d="M116 498l-54 58l114 116h94v-381h-115v244zM154 0l398 674h80l-397 -674h-81zM635 -6q-84 0 -153 63l50 58q45 -39 89 -39q24 0 34.5 11.5t10.5 26.5q0 39 -41 39h-50v79h48q40 0 40 37q0 14 -9 25t-25 11q-52 0 -86 -37l-50 53q54 66 141 66q62 0 102 -31t40 -86
q0 -43 -51 -73q27 -12 42 -35.5t15 -46.5q0 -55 -44 -88t-103 -33z" />
    <glyph glyph-name="twothirds" unicode="&#x2154;" horiz-adv-x="879" 
d="M214 0l398 674h80l-397 -674h-81zM695 -6q-84 0 -153 63l50 58q45 -39 89 -39q24 0 34.5 11.5t10.5 26.5q0 39 -41 39h-50v79h48q40 0 40 37q0 14 -9 25t-25 11q-52 0 -86 -37l-50 53q54 66 141 66q62 0 102 -31t40 -86q0 -43 -51 -73q27 -12 42 -35.5t15 -46.5
q0 -55 -44 -88t-103 -33zM181 595q-42 0 -83 -45l-56 54q59 77 142 77q60 0 102 -34.5t42 -89.5q0 -21 -9 -39.5t-28.5 -35.5t-33.5 -26t-41 -26q-40 -24 -57 -41h163v-87h-285v54q0 43 28.5 73.5t80.5 62.5q2 1 12.5 7t14.5 8.5t13 8.5t13.5 10.5l10 10t8 11t2.5 11.5
q0 12 -12 24t-27 12z" />
    <glyph glyph-name="oneeighth" unicode="&#x215b;" horiz-adv-x="814" 
d="M615 -7q-74 0 -113.5 34.5t-39.5 83.5q0 22 15.5 49.5t44.5 36.5q-22 11 -35 35t-13 45q0 52 44 80.5t97 28.5q57 0 99 -29.5t42 -79.5q0 -46 -50 -80q34 -11 47.5 -36t13.5 -50q0 -49 -39 -83.5t-113 -34.5zM614 75q17 0 28.5 13t11.5 27q0 45 -40 45q-37 0 -37 -45
q0 -16 11 -28t26 -12zM614 233q16 0 25 12t9 25q0 14 -9 26t-24 12t-25 -12t-10 -24q0 -15 8.5 -27t25.5 -12zM147 0l398 674h80l-397 -674h-81zM101 498l-54 58l114 116h94v-381h-115v244z" />
    <glyph glyph-name="threeeighths" unicode="&#x215c;" horiz-adv-x="875" 
d="M666 -7q-74 0 -113.5 34.5t-39.5 83.5q0 22 15.5 49.5t44.5 36.5q-22 11 -35 35t-13 45q0 52 44 80.5t97 28.5q57 0 99 -29.5t42 -79.5q0 -46 -50 -80q34 -11 47.5 -36t13.5 -50q0 -49 -39 -83.5t-113 -34.5zM665 75q17 0 28.5 13t11.5 27q0 45 -40 45q-37 0 -37 -45
q0 -16 11 -28t26 -12zM665 233q16 0 25 12t9 25q0 14 -9 26t-24 12t-25 -12t-10 -24q0 -15 8.5 -27t25.5 -12zM198 0l398 674h80l-397 -674h-81zM210 285q-84 0 -153 63l50 58q45 -39 89 -39q24 0 34.5 11.5t10.5 26.5q0 39 -41 39h-50v79h48q40 0 40 37q0 14 -9 25t-25 11
q-52 0 -86 -37l-50 53q54 66 141 66q62 0 102 -31t40 -86q0 -43 -51 -73q27 -12 42 -35.5t15 -46.5q0 -55 -44 -88t-103 -33z" />
    <glyph glyph-name="fiveeighths" unicode="&#x215d;" horiz-adv-x="874" 
d="M665 -7q-74 0 -113.5 34.5t-39.5 83.5q0 55 50 86q-38 33 -38 80q0 52 44 80.5t97 28.5q57 0 99 -29.5t42 -79.5q0 -41 -39 -80q50 -25 50 -86q0 -49 -39 -83.5t-113 -34.5zM664 75q17 0 28.5 13t11.5 27q0 45 -40 45q-37 0 -37 -45q0 -16 11 -28t26 -12zM664 233
q16 0 25 12t9 25q0 14 -9 26t-24 12t-25 -12t-10 -24q0 -15 8.5 -27t25.5 -12zM251 427q0 19 -11 34t-32 15q-12 0 -18.5 -1t-14 -7.5t-13.5 -19.5h-96q35 217 37 225h231v-88h-148l-10 -56q28 26 74 26q38 0 73.5 -35t35.5 -94q0 -71 -47.5 -107.5t-114.5 -36.5
q-83 0 -140 63l47 65q9 -9 18 -16t17.5 -11t15 -6.5t13.5 -3.5l10.5 -1.5t9 0t6.5 0.5q30 0 43.5 16t13.5 39zM197 0l398 674h80l-397 -674h-81z" />
    <glyph glyph-name="seveneighths" unicode="&#x215e;" horiz-adv-x="789" 
d="M585 -7q-74 0 -113.5 34.5t-39.5 83.5q0 55 50 86q-38 33 -38 80q0 52 44 80.5t97 28.5q57 0 99 -29.5t42 -79.5q0 -41 -39 -80q50 -25 50 -86q0 -49 -39 -83.5t-113 -34.5zM584 75q17 0 28.5 13t11.5 27q0 45 -40 45q-37 0 -37 -45q0 -16 11 -28t26 -12zM584 233
q16 0 25 12t9 25q0 14 -9 26t-24 12t-25 -12t-10 -24q0 -15 8.5 -27t25.5 -12zM117 0l398 674h80l-397 -674h-81zM52 581v91h300v-67q-99 -125 -159 -314h-125q58 156 170 290h-186z" />
    <glyph glyph-name="arrowleft" unicode="&#x2190;" horiz-adv-x="759" 
d="M324 351h393v-80h-393v-131l-282 171l282 172v-132z" />
    <glyph glyph-name="arrowup" unicode="&#x2191;" horiz-adv-x="757" 
d="M339 0v393h-132l172 282l171 -282h-131v-393h-80z" />
    <glyph glyph-name="arrowright" unicode="&#x2192;" horiz-adv-x="759" 
d="M42 351h393v132l282 -172l-282 -171v131h-393v80z" />
    <glyph glyph-name="arrowdown" unicode="&#x2193;" horiz-adv-x="757" 
d="M339 281v393h80v-393h131l-171 -282l-172 282h132z" />
    <glyph glyph-name="partialdiff" unicode="&#x2202;" horiz-adv-x="605" 
d="M316 522q-93 0 -164 -54l-30 104q3 1 39.5 22t54.5 29t56.5 18t77.5 10q103 0 160.5 -62t57.5 -178q0 -59 -13 -118q-8 -40 -20.5 -77t-37.5 -80.5t-57.5 -74.5t-84 -52t-113.5 -21q-94 0 -149.5 45.5t-55.5 127.5q0 27 6 54q21 99 98 159.5t171 60.5q60 0 88 -56
q6 36 7 68t-21.5 53.5t-69.5 21.5zM264 117q30 0 54.5 29.5t33.5 73.5q4 15 4 30q0 26 -11.5 42.5t-32.5 16.5q-33 0 -58 -32t-32 -68q-3 -14 -3 -26q0 -66 45 -66z" />
    <glyph glyph-name="Delta" unicode="&#x2206;" horiz-adv-x="786" 
d="M37 0l275 663h161l276 -663h-712zM392 479l-112 -346h226z" />
    <glyph glyph-name="product" unicode="&#x220f;" horiz-adv-x="667" 
d="M378 0v544h-85v-544h-167v544h-89v130h593v-130h-85v-544h-167z" />
    <glyph glyph-name="summation" unicode="&#x2211;" horiz-adv-x="604" 
d="M557 -147h-510v103l197 305l-197 307v102h510v-132h-299l186 -277l-187 -276h300v-132z" />
    <glyph glyph-name="minus" unicode="&#x2212;" horiz-adv-x="503" 
d="M37 410h429v-148h-429v148z" />
    <glyph glyph-name="radical" unicode="&#x221a;" horiz-adv-x="660" 
d="M272 0l-113 358h-142v126h276l57 -209l121 399h172l-223 -674h-148z" />
    <glyph glyph-name="infinity" unicode="&#x221e;" horiz-adv-x="740" 
d="M531 161q-48 0 -90.5 23.5t-70.5 61.5q-27 -39 -69.5 -62t-91.5 -23q-84 0 -128 45t-44 107q0 63 44 107.5t128 44.5q48 0 90.5 -23t70.5 -60q28 37 70.5 60t90.5 23q84 0 128 -44.5t44 -107.5q0 -62 -44 -107t-128 -45zM217 281q33 0 54 32q-22 32 -54 32q-40 0 -40 -32
t40 -32zM522 280q42 0 42 33q0 34 -42 34q-36 0 -56 -34q19 -33 56 -33z" />
    <glyph glyph-name="integral" unicode="&#x222b;" horiz-adv-x="438" 
d="M128 14l1 493q0 48 14.5 82t32.5 50t45.5 24.5t41 9t32.5 0.5h5q48 0 116 -36l-30 -100q-27 14 -56 14q-22 0 -22 -29v-535q0 -48 -14.5 -82.5t-32.5 -50t-45.5 -24.5t-41 -9.5t-31.5 -0.5h-5q-47 0 -116 37l29 99q34 -13 62 -13q16 0 16 29z" />
    <glyph glyph-name="approxequal" unicode="&#x2248;" horiz-adv-x="526" 
d="M198 514q22 0 62 -20.5t61 -20.5q40 0 40 55h128q0 -93 -39.5 -138.5t-124.5 -45.5q-23 0 -64 20.5t-62 20.5q-36 0 -35 -56h-127q0 96 38.5 140.5t122.5 44.5zM198 290q22 0 62 -20.5t61 -20.5q40 0 40 55h128q0 -93 -39.5 -138.5t-124.5 -45.5q-23 0 -64 20.5t-62 20.5
q-36 0 -35 -56h-127q0 96 38.5 140.5t122.5 44.5z" />
    <glyph glyph-name="notequal" unicode="&#x2260;" horiz-adv-x="534" 
d="M61 0l80 160h-104v126h168l36 72h-204v126h268l96 190h96l-96 -190h92v-126h-155l-36 -72h191v-126h-255l-80 -160h-97z" />
    <glyph glyph-name="lessequal" unicode="&#x2264;" horiz-adv-x="597" 
d="M560 702v-155l-295 -117l295 -116v-153l-522 231v80zM37 122h523v-122h-523v122z" />
    <glyph glyph-name="greaterequal" unicode="&#x2265;" horiz-adv-x="597" 
d="M37 547v155l522 -230v-80l-522 -231v153l295 116zM37 122h523v-122h-523v122z" />
    <glyph glyph-name="triangleright" unicode="&#x22b2;" horiz-adv-x="460" 
d="M57 125v420l346 -210z" />
    <glyph glyph-name="triangleleft" unicode="&#x22b3;" horiz-adv-x="460" 
d="M403 545v-420l-346 210z" />
    <glyph glyph-name="uni2318" unicode="&#x2318;" horiz-adv-x="695" 
d="M238 156v67h-68q-28 0 -47 -19.5t-19 -47.5t19.5 -48.5t47.5 -20.5t47.5 20.5t19.5 48.5zM238 440v68q0 29 -19 48.5t-47 19.5t-48 -19.5t-20 -48.5q0 -28 20 -48t48 -20h66zM286 269h124v125h-124v-125zM591 156q0 28 -18.5 47.5t-46.5 19.5h-68v-67q0 -28 19.5 -48.5
t47.5 -20.5q27 0 46.5 20.5t19.5 48.5zM591 508q0 29 -19 48.5t-47 19.5t-47.5 -19.5t-19.5 -48.5v-68h68q27 0 46 20t19 48zM638 156q0 -47 -33.5 -81t-79.5 -34q-47 0 -81 34t-34 81v67h-124v-67q0 -47 -34 -81t-81 -34t-80.5 34t-33.5 81q0 46 33.5 79.5t80.5 33.5h67
v125h-66q-47 0 -81 33.5t-34 80.5t34 80.5t81 33.5t80.5 -33.5t33.5 -80.5v-68h124v68q0 47 34 80.5t81 33.5q46 0 79.5 -33.5t33.5 -80.5q0 -46 -33.5 -80t-79.5 -34h-67v-125h67q46 0 79.5 -33.5t33.5 -79.5z" />
    <glyph glyph-name="blacksquare" unicode="&#x25a0;" horiz-adv-x="533" 
d="M57 91v419h419v-419h-419z" />
    <glyph glyph-name="lozenge" unicode="&#x25ca;" horiz-adv-x="562" 
d="M304 -1h-46l-221 337l221 338h46l221 -338zM281 481l-83 -145l83 -142l83 142z" />
    <glyph glyph-name="circlesolid" unicode="&#x25cf;" horiz-adv-x="530" 
d="M57 302q0 86 61 147t147 61t147 -61t61 -147t-61 -147t-147 -61t-147 61t-61 147z" />
    <glyph glyph-name="blackstar" unicode="&#x2605;" horiz-adv-x="681" 
d="M624 400l-176 -128l68 -206l-176 127l-175 -127l67 206l-175 128h216l67 206l67 -206h217z" />
    <glyph glyph-name="diamond" unicode="&#x2666;" horiz-adv-x="615" 
d="M558 331l-251 -250l-250 250l250 251z" />
    <glyph glyph-name="s_t" unicode="&#xfb06;" horiz-adv-x="873" 
d="M567 574h-152q-12 0 -21 -2.5t-14 -8t-9 -10t-4.5 -14t-1 -15t2 -16.5t3 -15t3.5 -15t3 -12q37 -20 71 -43l-54 -103q-72 51 -146 51q-21 0 -27 -16q-3 -8 5.5 -15.5t32.5 -16.5l74 -28q72 -25 104 -84.5t4 -130.5q-20 -41 -69.5 -64t-117.5 -23q-63 0 -105 14
q-67 22 -122 72l69 109q76 -67 157 -67q24 0 31 16q7 20 -8 26l-121 45q-65 28 -88.5 61t-23.5 78q0 66 53.5 107t141.5 43q-8 53 4 91.5t31 56.5t49 28t44.5 11t30.5 1h229h127v-201h91v-110h-91v-231q0 -26 15 -26q33 0 81 19l7 -112q-68 -35 -118 -35h-23t-28.5 3.5
t-33.5 9t-31 18t-28.5 30t-18.5 46t-8 64.5v214h-69v110h69v90z" />
    <glyph glyph-name="CR" horiz-adv-x="278" 
 />
    <glyph glyph-name="_224" horiz-adv-x="0" 
 />
    <glyph glyph-name="apple" horiz-adv-x="709" 
d="M57 686h595v-552h-595v552zM577 207v405h-122q-15 -47 -50 -145.5t-51 -145.5l-100 291h-122v-405h64v367l131 -359h53l133 359v-367h64zM96 0h-14l-6 54q0 6 -1 18.5t-1 16.5h-2q0 -1 1 -8.5t1 -12.5v-68h-17v109h25l5 -45q0 -1 2 -12.5t2 -19.5q0 27 2 32l3 45h25v-109
h-15v50v39q0 -4 -1 -21.5t-1 -20.5zM132 17v74q0 21 18 21q23 0 23 -21v-74q0 -19 -23 -19q-6 0 -12 5t-6 14zM148 91v-74q0 -4 2 -4q7 0 7 4v74q0 5 -1 6t-6 1q-2 0 -2 -7zM199 42v-25q0 -4 5 -4q6 0 6 4v11q0 8 -14 24.5t-14 26.5v12q0 21 22 21q21 0 21 -21v-21h-15v21
q0 7 -6 7q-5 0 -5 -7v-12q0 -4 13 -20.5t13 -21.5v-20q0 -9 -7 -14t-14 -5q-22 0 -22 19v25h17zM231 109h45v-13h-13v-96h-17v96h-15v13zM271 0l12 109h25l12 -109h-16l-5 28h-11l-3 -28h-14zM291 45h8l-4 44h-2zM340 0h-15v109h22q22 0 22 -20v-12q0 -14 -17 -17
q13 0 17 -15v-45h-15q-2 9 -2 42q0 8 -12 8v-50zM340 98v-34h3q9 0 9 6v21q0 7 -5 7h-7zM376 0v109h21q13 0 17 -5t4 -19v-65q0 -20 -19 -20h-23zM393 98v-83h4q4 0 4 5v69q0 9 -4 9h-4zM465 0h-39v109h39v-13h-22v-28h20v-14h-20v-39h22v-15zM488 42v-25q0 -4 2 -4q7 0 7 4
v11q0 8 -13 24.5t-13 26.5v12q0 21 19 21q23 0 23 -21v-21h-16v21q0 5 -1 6t-6 1q-2 0 -2 -7v-12q0 -4 12.5 -20.5t12.5 -21.5v-20q0 -19 -23 -19q-7 0 -13 5t-6 14v25h17zM538 0h-16v109h16v-109zM569 54h21v-54h-8v6q-8 -8 -17 -8q-6 0 -12.5 5t-6.5 14v74q0 21 23 21
q21 0 21 -21v-21h-17v21q0 7 -4 7q-6 0 -6 -7v-74q0 -4 6 -4q4 0 4 4v25h-4v12zM600 109h25l2 -30q8 -22 8 -62v6v31v55h15v-109h-25l-7 57q-5 18 -5 34v-12v-79h-13v109z" />
    <glyph glyph-name="Imacron" horiz-adv-x="310" 
d="M62 0v674h186v-674h-186zM11 765v117h289v-117h-289z" />
    <glyph glyph-name="kcommaaccent" horiz-adv-x="555" 
d="M343 292l205 -292h-201l-110 184v-184h-180v674h180v-295l81 105h215zM112 -220l93 179h173l-136 -179h-130z" />
    <glyph glyph-name="ibreve" horiz-adv-x="294" 
d="M57 0v484h180v-484h-180zM148 545q-81 0 -123 49.5t-42 126.5h104q2 -40 14 -54.5t46 -14.5t46 15t14 54h104q0 -77 -42 -126.5t-121 -49.5z" />
    <glyph glyph-name="zero.taboldstyle" 
d="M294 -8q-103 0 -163.5 64t-60.5 174t60.5 174t163.5 64q108 0 168.5 -63.5t60.5 -174.5t-60.5 -174.5t-168.5 -63.5zM294 351q-30 0 -46 -36t-16 -85t16.5 -85t45.5 -36t47.5 36.5t18.5 84.5t-18 84.5t-48 36.5z" />
    <glyph glyph-name="one.taboldstyle" 
d="M76 0v125h139v160l-98 -52l-65 110l193 117h139v-335h136v-125h-444z" />
    <glyph glyph-name="two.taboldstyle" 
d="M293 360q-31 0 -59 -12t-41.5 -23t-33.5 -31l-87 79q31 27 54.5 44.5t71 35t99.5 17.5q95 0 160 -43t65 -111q0 -27 -13.5 -50t-42 -42.5t-51.5 -32t-61 -30.5q-22 -10 -40.5 -18.5t-28 -13t-15.5 -6.5h242v-123h-444v71q0 43 46 82t101.5 63.5t101.5 52.5t46 50
q0 18 -24 29.5t-46 11.5z" />
    <glyph glyph-name="six.taboldstyle" 
d="M512 595l-43 -104q-54 37 -129 37q-44 0 -83 -37.5t-34 -105.5q23 30 55.5 43t59.5 13q88 0 147 -61t59 -162q0 -105 -68 -164.5t-175 -59.5q-63 0 -110 21.5t-73 52.5t-42 75t-21 81t-5 78q0 169 76 262t201 93q93 0 185 -62zM299 123q33 0 49.5 29.5t16.5 65.5
q0 35 -17.5 66t-49.5 31q-29 0 -45.5 -27t-16.5 -64q0 -44 17 -72.5t46 -28.5z" />
    <glyph glyph-name="eight.taboldstyle" 
d="M296 -6q-123 0 -186.5 56t-63.5 140q0 44 28 89.5t85 59.5q-45 20 -69.5 60t-24.5 77q0 75 53 118t130 57q36 4 48 4q25 0 53 -4q73 -14 125.5 -58t52.5 -117q0 -39 -20.5 -77t-69.5 -60q37 -10 63.5 -39t36.5 -57.5t10 -52.5q0 -84 -64 -140t-187 -56zM296 130
q35 0 58.5 19t23.5 46q0 35 -22 56t-60 21q-37 0 -57.5 -21t-20.5 -56q0 -31 23.5 -48t54.5 -17zM294 409q29 0 51.5 15.5t22.5 41.5q0 29 -19.5 45t-52.5 16q-31 0 -51 -16t-20 -43q0 -28 20.5 -43.5t48.5 -15.5z" />
    <glyph glyph-name="three.taboldstyle" 
d="M303 -192q-142 0 -251 99l72 95q64 -61 146 -61q92 0 92 65q0 29 -17.5 49.5t-50.5 20.5h-80v137h77q30 0 47 18t17 43t-16 44t-44 19q-97 0 -151 -63l-73 90q10 16 33.5 37t78 44.5t117.5 23.5q101 0 166.5 -51t65.5 -142q0 -36 -20 -71t-66 -57q45 -14 70.5 -59.5
t25.5 -80.5q0 -90 -71 -145t-168 -55z" />
    <glyph glyph-name="four.taboldstyle" 
d="M476 -174h-175v114h-268v112q47 111 123.5 221.5t160.5 192.5h159v-392h84v-135h-84v-113zM182 74h119v183q-90 -111 -119 -183z" />
    <glyph glyph-name="five.taboldstyle" 
d="M382 47q0 37 -22 67.5t-64 30.5q-23 0 -46 -12t-34 -39h-150l61 370h374v-141h-254l-16 -99q38 41 122 41q80 0 136 -59t56 -160q0 -60 -23 -107.5t-62 -75t-85 -41.5t-96 -14q-137 0 -230 103l75 110q72 -75 148 -75q58 0 84 29.5t26 71.5z" />
    <glyph glyph-name="seven.taboldstyle" 
d="M51 309v139h491v-106q-94 -118 -155.5 -246t-112.5 -288h-195q102 271 284 501h-312z" />
    <glyph glyph-name="nine.taboldstyle" 
d="M82 -128l43 104q54 -37 129 -37q44 0 83 37.5t34 105.5q-46 -56 -115 -56q-88 0 -147 61t-59 162q0 105 68 164.5t175 59.5q63 0 110 -21.5t73 -52.5t42 -75t21 -81t5 -78q0 -169 -76 -262t-201 -93q-93 0 -185 62zM295 344q-33 0 -49.5 -29.5t-16.5 -65.5
q0 -35 17.5 -66t49.5 -31q29 0 45.5 27t16.5 64q0 44 -17 72.5t-46 28.5z" />
    <glyph glyph-name="zero.titling" horiz-adv-x="617" 
d="M306 -12q-119 0 -189 89t-70 242q0 154 70 243t189 89q123 0 193.5 -89t70.5 -243t-70.5 -242.5t-193.5 -88.5zM306 519q-40 0 -62.5 -60t-22.5 -140q0 -81 22.5 -140t62.5 -59q43 0 66.5 58.5t23.5 140.5q0 81 -23.5 140.5t-66.5 59.5z" />
    <glyph glyph-name="one.titling" horiz-adv-x="434" 
d="M99 379l-84 100l188 161h144v-640h-174v441z" />
    <glyph glyph-name="two.titling" horiz-adv-x="602" 
d="M299 495q-37 0 -75.5 -24t-63.5 -54l-88 97q29 33 55 56t74.5 45t101.5 22q100 0 168.5 -57t68.5 -150q0 -35 -15 -66t-46 -58.5t-56.5 -45t-68.5 -42.5h1q-88 -56 -109 -78h283v-140h-467v60q0 52 11.5 89.5t51.5 77.5t66.5 59.5t106.5 73.5q25 17 38 26q32 26 32 49
q0 25 -18.5 42.5t-50.5 17.5z" />
    <glyph glyph-name="three.titling" horiz-adv-x="556" 
d="M260 -10q-142 0 -251 99l72 95q64 -61 146 -61q92 0 92 65q0 29 -17.5 49.5t-50.5 20.5h-80v137h77q30 0 47 18t17 43t-16 44t-44 19q-97 0 -151 -63l-73 90q10 16 33.5 37t78 44.5t117.5 23.5q101 0 166.5 -51t65.5 -142q0 -36 -20 -71t-66 -57q45 -14 70.5 -59.5
t25.5 -80.5q0 -90 -71 -145t-168 -55z" />
    <glyph glyph-name="four.titling" horiz-adv-x="578" 
d="M472 0l-175 1v113h-268v112q47 111 123.5 221.5t160.5 192.5h159v-392h84v-135h-84v-113zM178 248h119v183q-90 -111 -119 -183z" />
    <glyph glyph-name="five.titling" horiz-adv-x="590" 
d="M380 224q0 37 -22 67.5t-64 30.5q-23 0 -46 -12t-34 -39h-150l61 370h374v-141h-254l-16 -99q38 41 122 41q80 0 136 -59t56 -160q0 -60 -23 -107.5t-62 -75t-85 -41.5t-96 -14q-137 0 -230 103l75 110q72 -75 148 -75q58 0 84 29.5t26 71.5z" />
    <glyph glyph-name="six.titling" horiz-adv-x="578" 
d="M504 589l-43 -104q-54 37 -129 37q-44 0 -83 -37.5t-34 -105.5q23 30 55.5 43t59.5 13q88 0 147 -61t59 -162q0 -105 -68 -164.5t-175 -59.5q-63 0 -110 21.5t-73 52.5t-42 75t-21 81t-5 78q0 169 76 262t201 93q93 0 185 -62zM291 117q33 0 49.5 29.5t16.5 65.5
q0 35 -17.5 66t-49.5 31q-29 0 -45.5 -27t-16.5 -64q0 -44 17 -72.5t46 -28.5z" />
    <glyph glyph-name="seven.titling" horiz-adv-x="535" 
d="M22 501v139h491v-106q-94 -118 -155.5 -246t-112.5 -288h-195q102 271 284 501h-312z" />
    <glyph glyph-name="eight.titling" horiz-adv-x="575" 
d="M287 -12q-123 0 -186.5 56t-63.5 140q0 44 28 89.5t85 59.5q-45 20 -69.5 60t-24.5 77q0 75 53 118t130 57q36 4 48 4q25 0 53 -4q73 -14 125.5 -58t52.5 -117q0 -39 -20.5 -77t-69.5 -60q37 -10 63.5 -39t36.5 -57.5t10 -52.5q0 -84 -64 -140t-187 -56zM287 124
q35 0 58.5 19t23.5 46q0 35 -22 56t-60 21q-37 0 -57.5 -21t-20.5 -56q0 -31 23.5 -48t54.5 -17zM285 403q29 0 51.5 15.5t22.5 41.5q0 29 -19.5 45t-52.5 16q-31 0 -51 -16t-20 -43q0 -28 20.5 -43.5t48.5 -15.5z" />
    <glyph glyph-name="nine.titling" horiz-adv-x="568" 
d="M69 50l43 104q57 -37 129 -37q44 0 83 37.5t34 105.5q-46 -56 -115 -56q-88 0 -147 61t-59 162q0 105 68 164.5t175 59.5q63 0 110 -21.5t73 -52.5t42 -75t21 -81t5 -78q0 -169 -76 -262t-201 -93q-93 0 -185 62zM282 522q-33 0 -49.5 -29.5t-16.5 -65.5q0 -35 17.5 -66
t49.5 -31q29 0 45.5 27t16.5 64q0 44 -17 72.5t-46 28.5z" />
    <glyph glyph-name="zero.denominator" horiz-adv-x="371" 
d="M184 -7q-72 0 -114.5 52.5t-42.5 144.5t42.5 144.5t114.5 52.5q75 0 117.5 -52.5t42.5 -144.5t-42.5 -144.5t-117.5 -52.5zM184 301q-19 0 -31 -33.5t-12 -77.5t12 -77.5t31 -33.5q22 0 34 32.5t12 78.5q0 45 -12 78t-34 33z" />
    <glyph glyph-name="one.denominator" horiz-adv-x="270" 
d="M62 207l-54 58l114 116h94v-381h-115v244z" />
    <glyph glyph-name="two.denominator" horiz-adv-x="379" 
d="M185 296q-40 0 -83 -48l-56 54q59 77 142 77q60 0 102 -34.5t42 -89.5q0 -21 -9 -39.5t-28.5 -35.5t-33.5 -26t-41 -26q-40 -24 -57 -41h163v-87h-285v54q0 43 28.5 73.5t80.5 62.5q68 40 68 67q0 13 -9.5 26t-23.5 13z" />
    <glyph glyph-name="three.denominator" horiz-adv-x="338" 
d="M155 -6q-84 0 -153 63l50 58q45 -39 89 -39q24 0 34.5 11.5t10.5 26.5q0 39 -41 39h-50v79h48q40 0 40 37q0 14 -9 25t-25 11q-52 0 -86 -37l-50 53q54 66 141 66q62 0 102 -31t40 -86q0 -43 -51 -73q27 -12 42 -35.5t15 -46.5q0 -55 -44 -88t-103 -33z" />
    <glyph glyph-name="four.denominator" horiz-adv-x="356" 
d="M278 0l-117 1v65h-154v71q51 125 166 244h105v-227h48v-88h-48v-66zM94 154h67v100q-15 -15 -36.5 -46t-30.5 -54z" />
    <glyph glyph-name="five.denominator" horiz-adv-x="364" 
d="M221 136q0 19 -11 34t-32 15q-12 0 -18.5 -1t-14 -7.5t-13.5 -19.5h-96q35 217 37 225h231v-88h-148l-10 -56q28 26 74 26q38 0 73.5 -35t35.5 -94q0 -71 -47.5 -107.5t-114.5 -36.5q-83 0 -140 63l47 65q9 -9 18 -16t17.5 -11t15 -6.5t13.5 -3.5l10.5 -1.5t9 0t6.5 0.5
q30 0 43.5 16t13.5 39z" />
    <glyph glyph-name="six.denominator" horiz-adv-x="363" 
d="M309 348l-28 -63q-39 18 -70 18q-11 0 -18.5 -1.5t-22 -8t-22.5 -25.5t-8 -48q17 21 34.5 31t46.5 10q42 0 75 -37t33 -96q0 -63 -42 -99t-107 -36q-38 0 -66.5 12.5t-44.5 31.5t-26 45t-13 48t-3 46q0 101 46.5 156t121.5 55q61 0 114 -39zM179 77q16 0 23.5 15.5
t7.5 35.5q0 18 -7.5 34t-23.5 16q-14 0 -21.5 -13.5t-7.5 -32.5q0 -55 29 -55z" />
    <glyph glyph-name="seven.denominator" horiz-adv-x="361" 
d="M27 290v91h300v-67q-99 -125 -159 -314h-125q58 156 170 290h-186z" />
    <glyph glyph-name="eight.denominator" horiz-adv-x="361" 
d="M177 -7q-74 0 -113.5 34.5t-39.5 83.5q0 24 18 51.5t50 34.5q-24 7 -40 33t-16 47q0 52 44 80.5t97 28.5q57 0 99 -29.5t42 -79.5q0 -46 -50 -80q34 -11 47.5 -36t13.5 -50q0 -49 -39 -83.5t-113 -34.5zM176 75q17 0 28.5 13t11.5 27q0 45 -40 45q-37 0 -37 -45
q0 -16 11 -28t26 -12zM176 233q16 0 25 12t9 25q0 14 -9 26t-24 12t-25 -12t-10 -24q0 -15 8.5 -27t25.5 -12z" />
    <glyph glyph-name="nine.denominator" horiz-adv-x="361" 
d="M47 32l28 63q42 -18 70 -18q11 0 18.5 1.5t22 8t22.5 25.5t8 48q-17 -21 -34.5 -31t-46.5 -10q-42 0 -75 37t-33 96q0 63 42 99t107 36q38 0 66.5 -12.5t44.5 -31.5t26 -45t13 -48t3 -46q0 -101 -46.5 -156t-121.5 -55q-61 0 -114 39zM177 303q-16 0 -23.5 -15.5
t-7.5 -35.5q0 -18 7.5 -34t23.5 -16q14 0 21.5 13.5t7.5 32.5q0 55 -29 55z" />
    <glyph glyph-name="zero.numerator" horiz-adv-x="371" 
d="M184 284q-72 0 -114.5 52.5t-42.5 144.5t42.5 144.5t114.5 52.5q75 0 117.5 -52.5t42.5 -144.5t-42.5 -144.5t-117.5 -52.5zM184 592q-19 0 -31 -33.5t-12 -77.5t12 -77.5t31 -33.5q22 0 34 32.5t12 78.5q0 45 -12 78t-34 33z" />
    <glyph glyph-name="one.numerator" horiz-adv-x="270" 
d="M62 498l-54 58l114 116h94v-381h-115v244z" />
    <glyph glyph-name="two.numerator" horiz-adv-x="379" 
d="M185 585q-41 0 -83 -46l-56 54q59 77 142 77q60 0 102 -34.5t42 -89.5q0 -21 -9 -39.5t-28.5 -35.5t-33.5 -26t-41 -26q-40 -24 -57 -41h163v-87h-285v54q0 43 28.5 73.5t80.5 62.5q68 40 68 67q0 13 -9 25t-24 12z" />
    <glyph glyph-name="three.numerator" horiz-adv-x="338" 
d="M155 285q-84 0 -153 63l50 58q45 -39 89 -39q24 0 34.5 11.5t10.5 26.5q0 39 -41 39h-50v79h48q40 0 40 37q0 14 -9 25t-25 11q-52 0 -86 -37l-50 53q54 66 141 66q62 0 102 -31t40 -86q0 -43 -51 -73q27 -12 42 -35.5t15 -46.5q0 -55 -44 -88t-103 -33z" />
    <glyph glyph-name="four.numerator" horiz-adv-x="356" 
d="M278 291l-117 1v65h-154v71q51 125 166 244h105v-227h48v-88h-48v-66zM94 445h67v100q-15 -15 -36.5 -46t-30.5 -54z" />
    <glyph glyph-name="five.numerator" horiz-adv-x="364" 
d="M221 427q0 19 -11 34t-32 15q-12 0 -18.5 -1t-14 -7.5t-13.5 -19.5h-96q35 217 37 225h231v-88h-148l-10 -56q28 26 74 26q38 0 73.5 -35t35.5 -94q0 -71 -47.5 -107.5t-114.5 -36.5q-83 0 -140 63l47 65q9 -9 18 -16t17.5 -11t15 -6.5t13.5 -3.5l10.5 -1.5t9 0t6.5 0.5
q30 0 43.5 16t13.5 39z" />
    <glyph glyph-name="six.numerator" horiz-adv-x="363" 
d="M309 639l-28 -63q-39 18 -70 18q-11 0 -18.5 -1.5t-22 -8t-22.5 -25.5t-8 -48q17 21 34.5 31t46.5 10q42 0 75 -37t33 -96q0 -63 -42 -99t-107 -36q-38 0 -66.5 12.5t-44.5 31.5t-26 45t-13 48t-3 46q0 101 46.5 156t121.5 55q61 0 114 -39zM179 368q16 0 23.5 15.5
t7.5 35.5q0 18 -7.5 34t-23.5 16q-14 0 -21.5 -13.5t-7.5 -32.5q0 -55 29 -55z" />
    <glyph glyph-name="seven.numerator" horiz-adv-x="361" 
d="M27 581v91h300v-67q-99 -125 -159 -314h-125q58 156 170 290h-186z" />
    <glyph glyph-name="eight.numerator" horiz-adv-x="361" 
d="M177 283q-74 0 -113.5 34.5t-39.5 83.5q0 24 18 51.5t50 34.5q-24 7 -40 33t-16 47q0 52 44 80.5t97 28.5q57 0 99 -29.5t42 -79.5q0 -46 -50 -80q34 -11 47.5 -36t13.5 -50q0 -49 -39 -83.5t-113 -34.5zM176 365q17 0 28.5 13t11.5 27q0 45 -40 45q-37 0 -37 -45
q0 -16 11 -28t26 -12zM176 523q16 0 25 12t9 25q0 14 -9 26t-24 12t-25 -12t-10 -24q0 -15 8.5 -27t25.5 -12z" />
    <glyph glyph-name="nine.numerator" horiz-adv-x="361" 
d="M47 323l28 63q42 -18 70 -18q11 0 18.5 1.5t22 8t22.5 25.5t8 48q-17 -21 -34.5 -31t-46.5 -10q-42 0 -75 37t-33 96q0 63 42 99t107 36q38 0 66.5 -12.5t44.5 -31.5t26 -45t13 -48t3 -46q0 -101 -46.5 -156t-121.5 -55q-61 0 -114 39zM177 594q-16 0 -23.5 -15.5
t-7.5 -35.5q0 -18 7.5 -34t23.5 -16q14 0 21.5 13.5t7.5 32.5q0 55 -29 55z" />
    <glyph glyph-name="a.alt" horiz-adv-x="579" 
d="M342 423v61h180v-484h-179v55q-42 -60 -128 -60q-78 0 -130.5 63t-52.5 184q0 123 56.5 187t143.5 64q35 0 66.5 -19t43.5 -51zM291 363q-43 0 -64 -34.5t-21 -86.5q0 -48 19 -84.5t51 -36.5q66 0 66 58v121q0 34 -18 48.5t-33 14.5z" />
    <glyph glyph-name="aacute.alt" horiz-adv-x="579" 
d="M206 554l79 154h173l-122 -154h-130zM342 423v61h180v-484h-179v55q-42 -60 -128 -60q-78 0 -130.5 63t-52.5 184q0 123 56.5 187t143.5 64q35 0 66.5 -19t43.5 -51zM291 363q-43 0 -64 -34.5t-21 -86.5q0 -48 19 -84.5t51 -36.5q66 0 66 58v121q0 34 -18 48.5t-33 14.5z
" />
    <glyph glyph-name="agrave.alt" horiz-adv-x="579" 
d="M293 708l79 -154h-130l-122 154h173zM342 423v61h180v-484h-179v55q-42 -60 -128 -60q-78 0 -130.5 63t-52.5 184q0 123 56.5 187t143.5 64q35 0 66.5 -19t43.5 -51zM291 363q-43 0 -64 -34.5t-21 -86.5q0 -48 19 -84.5t51 -36.5q66 0 66 58v121q0 34 -18 48.5t-33 14.5z
" />
    <glyph glyph-name="acircumflex.alt" horiz-adv-x="579" 
d="M205 716h154l110 -167h-148l-40 84l-36 -84h-149zM342 423v61h180v-484h-179v55q-42 -60 -128 -60q-78 0 -130.5 63t-52.5 184q0 123 56.5 187t143.5 64q35 0 66.5 -19t43.5 -51zM291 363q-43 0 -64 -34.5t-21 -86.5q0 -48 19 -84.5t51 -36.5q66 0 66 58v121
q0 34 -18 48.5t-33 14.5z" />
    <glyph glyph-name="adieresis.alt" horiz-adv-x="579" 
d="M126 555v136h148v-136h-148zM316 555v136h148v-136h-148zM342 423v61h180v-484h-179v55q-42 -60 -128 -60q-78 0 -130.5 63t-52.5 184q0 123 56.5 187t143.5 64q35 0 66.5 -19t43.5 -51zM291 363q-43 0 -64 -34.5t-21 -86.5q0 -48 19 -84.5t51 -36.5q66 0 66 58v121
q0 34 -18 48.5t-33 14.5z" />
    <glyph glyph-name="atilde.alt" horiz-adv-x="579" 
d="M240 586q-26 0 -30 -42h-91q0 80 22.5 118.5t82.5 38.5q24 0 51 -16q32 -17 42 -17q31 0 26 40h93q0 -71 -22.5 -114t-83.5 -43q-21 0 -51 18q-28 17 -39 17zM342 423v61h180v-484h-179v55q-42 -60 -128 -60q-78 0 -130.5 63t-52.5 184q0 123 56.5 187t143.5 64
q35 0 66.5 -19t43.5 -51zM291 363q-43 0 -64 -34.5t-21 -86.5q0 -48 19 -84.5t51 -36.5q66 0 66 58v121q0 34 -18 48.5t-33 14.5z" />
    <glyph glyph-name="aring.alt" horiz-adv-x="579" 
d="M175 665q0 45 27.5 74.5t84.5 29.5q59 0 85.5 -29t26.5 -75q0 -104 -112 -104q-58 0 -85 29.5t-27 74.5zM313 665q0 32 -27 32t-27 -32q0 -33 27 -33t27 33zM342 423v61h180v-484h-179v55q-42 -60 -128 -60q-78 0 -130.5 63t-52.5 184q0 123 56.5 187t143.5 64
q35 0 66.5 -19t43.5 -51zM291 363q-43 0 -64 -34.5t-21 -86.5q0 -48 19 -84.5t51 -36.5q66 0 66 58v121q0 34 -18 48.5t-33 14.5z" />
    <glyph glyph-name="abreve.alt" horiz-adv-x="579" 
d="M296 545q-81 0 -123 49.5t-42 126.5h104q2 -40 14 -54.5t46 -14.5t46 15t14 54h104q0 -77 -42 -126.5t-121 -49.5zM342 423v61h180v-484h-179v55q-42 -60 -128 -60q-78 0 -130.5 63t-52.5 184q0 123 56.5 187t143.5 64q35 0 66.5 -19t43.5 -51zM291 363q-43 0 -64 -34.5
t-21 -86.5q0 -48 19 -84.5t51 -36.5q66 0 66 58v121q0 34 -18 48.5t-33 14.5z" />
    <glyph glyph-name="amacron.alt" horiz-adv-x="579" 
d="M147 575v117h289v-117h-289zM342 423v61h180v-484h-179v55q-42 -60 -128 -60q-78 0 -130.5 63t-52.5 184q0 123 56.5 187t143.5 64q35 0 66.5 -19t43.5 -51zM291 363q-43 0 -64 -34.5t-21 -86.5q0 -48 19 -84.5t51 -36.5q66 0 66 58v121q0 34 -18 48.5t-33 14.5z" />
    <glyph glyph-name="aogonek.alt" horiz-adv-x="579" 
d="M343 0v55q-42 -60 -128 -60q-78 0 -130.5 63t-52.5 184q0 123 56.5 187t143.5 64q35 0 66.5 -19t43.5 -51v61h180v-484h-83q-71 -105 -15 -99q8 1 20 5l47 13v-95q-39 -18 -82 -23q-65 -6 -95.5 28.5t-10.5 96.5q13 38 40 74zM291 363q-43 0 -64 -34.5t-21 -86.5
q0 -48 19 -84.5t51 -36.5q66 0 66 58v121q0 34 -18 48.5t-33 14.5z" />
    <glyph glyph-name="aringacute.alt" horiz-adv-x="579" 
d="M173 650q0 45 27.5 74.5t84.5 29.5q59 0 85.5 -29t26.5 -75q0 -104 -112 -104q-58 0 -85 29.5t-27 74.5zM311 650q0 32 -27 32t-27 -32q0 -33 27 -33t27 33zM220 779l79 154h173l-122 -154h-130zM342 423v61h180v-484h-179v55q-42 -60 -128 -60q-78 0 -130.5 63
t-52.5 184q0 123 56.5 187t143.5 64q35 0 66.5 -19t43.5 -51zM291 363q-43 0 -64 -34.5t-21 -86.5q0 -48 19 -84.5t51 -36.5q66 0 66 58v121q0 34 -18 48.5t-33 14.5z" />
    <glyph glyph-name="T_h" horiz-adv-x="1171" 
d="M1114 280v-280h-180v280q0 83 -39 83q-13 0 -26 -4.5t-27 -24t-14 -52.5v-282h-180v533h-260v-533h-186v533h-193v141h819v-251q16 40 48 57t56 17q182 0 182 -217z" />
    <glyph glyph-name="c_t" horiz-adv-x="891" 
d="M32 242q0 109 59 175.5t164 77.5q-7 54 5.5 92.5t31.5 56.5t49 28.5t44 11.5t30 1h356v-201h91v-110h-91v-231q0 -26 15 -26q33 0 81 19l7 -112q-68 -35 -118 -35h-23t-28.5 3.5t-34 9t-31 18t-28 30t-18.5 46t-8 64.5v214h-69v110h69v90h-152q-22 0 -34 -8t-13.5 -25
t0 -28t5.5 -31q45 -11 83 -31l-37 -115q-50 27 -129 27q-47 0 -72.5 -35.5t-25.5 -85.5t25.5 -85t72.5 -35q71 0 129 25l37 -114q-88 -45 -181 -45q-121 0 -191 68t-70 186z" />
    <glyph glyph-name="asuperior" horiz-adv-x="347" 
d="M315 443h-131v33q-10 -14 -35 -25.5t-41 -11.5q-34 0 -65 26.5t-31 80.5q0 83 174 100q0 32 -22 32q-27 0 -65 -10q-22 -6 -33 -11l-37 60q0 2 18 14t54.5 25t73.5 13q9 0 16.5 -0.5t33 -6t43 -16t32.5 -34t15 -56.5v-213zM146 525q6 0 14 2t17 10t9 21v27
q-52 -13 -52 -44q0 -16 12 -16z" />
    <glyph glyph-name="bsuperior" horiz-adv-x="366" 
d="M159 871v-147q26 43 60 43q57 0 96 -43.5t39 -122.5q0 -81 -35 -123t-94 -42q-18 0 -37 12t-30 32v-37h-131v428h132zM182 672q-4 0 -9 -2.5t-9.5 -10.5t-4.5 -21v-78q0 -30 33 -30q29 0 29 71t-39 71z" />
    <glyph glyph-name="csuperior" horiz-adv-x="314" 
d="M12 602q0 78 46.5 122.5t127.5 44.5q59 0 123 -33l-27 -82q-13 7 -25.5 12t-23 6t-17 1.5t-14 0t-8.5 -0.5q-25 0 -38.5 -20.5t-13.5 -50.5q0 -29 13.5 -49.5t38.5 -20.5q53 0 89 15l26 -78q-56 -32 -123 -32q-81 0 -127.5 44t-46.5 121z" />
    <glyph glyph-name="dsuperior" horiz-adv-x="366" 
d="M207 724v147h132v-428h-131v37q-11 -20 -30 -32t-37 -12q-58 0 -93.5 42t-35.5 123q0 79 39 122.5t96 43.5q34 0 60 -43zM184 672q-39 0 -39 -71t29 -71q33 0 33 30v78q0 18 -7.5 26t-15.5 8z" />
    <glyph glyph-name="esuperior" horiz-adv-x="365" 
d="M189 438q-81 0 -126.5 47.5t-45.5 116.5q0 73 45 120t120 47q78 0 122 -47t44 -118q0 -11 -3 -32h-200q2 -18 18.5 -31t39.5 -13q40 0 101 23l28 -73q-62 -40 -143 -40zM142 639h83q-9 36 -40 36q-35 0 -43 -36z" />
    <glyph glyph-name="fsuperior" horiz-adv-x="217" 
d="M7 752h32v16q0 112 113 110h3q36 0 82 -26l-19 -66q-13 6 -34 6q-12 0 -14 -15v-25h52v-74h-52v-235h-131v235h-32v74z" />
    <glyph glyph-name="gsuperior" horiz-adv-x="372" 
d="M184 531q8 0 16 7.5t8 25.5v79q0 32 -34 32q-29 0 -29 -72t39 -72zM213 445v28q-6 -13 -25.5 -22t-34.5 -9q-53 0 -97 42t-44 119q0 79 36.5 122.5t87.5 43.5q43 0 72 -40v31h132v-313q0 -60 -47.5 -91.5t-112.5 -31.5q-39 0 -79 12.5t-59 29.5l27 67q38 -25 101 -25
q39 0 43 37z" />
    <glyph glyph-name="isuperior" horiz-adv-x="195" 
d="M32 443v317h131v-317h-131zM32 787v84h131v-84h-131z" />
    <glyph glyph-name="ksuperior" horiz-adv-x="367" 
d="M226 623l134 -180h-145l-55 105v-105h-133v428h133v-172l34 61h147z" />
    <glyph glyph-name="lsuperior" horiz-adv-x="195" 
d="M32 443v428h131v-428h-131z" />
    <glyph glyph-name="msuperior" horiz-adv-x="525" 
d="M198 443v190q0 40 -16 40q-20 0 -20 -53v-177h-130v316h123v-37q24 46 62 46q40 0 68 -42q36 42 79 42q129 0 129 -134v-191h-128v181q0 49 -19 49q-17 0 -17 -39v-191h-131z" />
    <glyph glyph-name="osuperior" horiz-adv-x="369" 
d="M17 604q0 77 44.5 121.5t121.5 44.5q78 0 123.5 -44.5t45.5 -121.5q0 -78 -45.5 -122t-123.5 -44q-77 0 -121.5 44t-44.5 122zM222 604q0 29 -11 51t-28 22q-16 0 -26.5 -22t-10.5 -51t10 -51.5t27 -22.5t28 22.5t11 51.5z" />
    <glyph glyph-name="psuperior" horiz-adv-x="366" 
d="M159 470v-140h-132v428h131v-37q28 45 67 45q59 0 94 -42.5t35 -123.5q0 -80 -38.5 -122.5t-96.5 -42.5q-39 0 -60 35zM182 529q39 0 39 71t-29 71q-33 0 -33 -30v-78q0 -18 7.5 -26t15.5 -8z" />
    <glyph glyph-name="qsuperior" horiz-adv-x="366" 
d="M207 330v140q-21 -35 -60 -35q-58 0 -96.5 42.5t-38.5 122.5q0 81 35.5 123.5t93.5 42.5q39 0 67 -45v37h131v-428h-132zM184 529q4 0 9 2.5t9.5 10.5t4.5 21v78q0 30 -33 30q-29 0 -29 -71t39 -71z" />
    <glyph glyph-name="rsuperior" horiz-adv-x="255" 
d="M248 768v-100h-37q-49 0 -49 -52v-173h-130v316h128v-47q13 29 32.5 42.5t35.5 13.5h20z" />
    <glyph glyph-name="ssuperior" horiz-adv-x="344" 
d="M203 530q1 5 -0.5 8t-9 6.5t-16.5 6.5t-27.5 10.5t-36.5 15.5q-43 19 -59 41t-16 52q0 45 37.5 72.5t97.5 27.5q37 0 67 -10.5t74 -40.5l-43 -68q-5 4 -20 11t-34 14t-32.5 7t-16.5 -10q-1 -3 2 -5.5t15 -7.5l47 -17q41 -14 63 -40.5t22 -59.5q0 -20 -11 -44
q-15 -27 -48.5 -44t-78.5 -17q-77 0 -152 61l50 70q19 -16 48.5 -30t51 -17t26.5 8z" />
    <glyph glyph-name="tsuperior" horiz-adv-x="255" 
d="M50 678h-46v76h46v72h130v-72h60v-76h-60v-139q0 -12 16 -12q14 0 47 14l5 -80q-48 -25 -81 -25q-117 0 -117 110v132z" />
    <glyph glyph-name="usuperior" horiz-adv-x="377" 
d="M32 578v181h129v-181q0 -49 18 -49q5 0 11.5 1.5t14.5 11t8 26.5v191h132v-316h-128v41q-27 -48 -70 -48q-115 0 -115 142z" />
    <glyph glyph-name="vsuperior" horiz-adv-x="404" 
d="M259 443h-115l-135 318h137l56 -179l56 179h137z" />
    <glyph glyph-name="zsuperior" horiz-adv-x="337" 
d="M17 443v74l137 152h-131v92h297v-74l-136 -152h132v-92h-299z" />
    <glyph glyph-name="zero.oldstyle" horiz-adv-x="467" 
d="M231 -8q-103 0 -163.5 64t-60.5 174t60.5 174t163.5 64q108 0 168.5 -63.5t60.5 -174.5t-60.5 -174.5t-168.5 -63.5zM231 351q-30 0 -46 -36t-16 -85t16.5 -85t45.5 -36t47.5 36.5t18.5 84.5t-18 84.5t-48 36.5z" />
    <glyph glyph-name="one.oldstyle" horiz-adv-x="542" 
d="M61 0v125h139v160l-98 -52l-65 110l193 117h139v-335h136v-125h-444z" />
    <glyph glyph-name="two.oldstyle" horiz-adv-x="528" 
d="M262 360q-31 0 -59 -12t-41.5 -23t-33.5 -31l-87 79q31 27 54.5 44.5t71 35t99.5 17.5q95 0 160 -43t65 -111q0 -27 -13.5 -50t-42 -42.5t-51.5 -32t-61 -30.5q-22 -10 -40.5 -18.5t-28 -13t-15.5 -6.5h242v-123h-444v71q0 43 46 82t101.5 63.5t101.5 52.5t46 50
q0 18 -24 29.5t-46 11.5z" />
    <glyph glyph-name="three.oldstyle" horiz-adv-x="528" 
d="M254 -192q-142 0 -251 99l72 95q64 -61 146 -61q92 0 92 65q0 29 -17.5 49.5t-50.5 20.5h-80v137h77q30 0 47 18t17 43t-16 44t-44 19q-97 0 -151 -63l-73 90q10 16 33.5 37t78 44.5t117.5 23.5q101 0 166.5 -51t65.5 -142q0 -36 -20 -71t-66 -57q45 -14 70.5 -59.5
t25.5 -80.5q0 -90 -71 -145t-168 -55z" />
    <glyph glyph-name="four.oldstyle" horiz-adv-x="591" 
d="M480 -174h-175v114h-268v112q47 111 123.5 221.5t160.5 192.5h159v-392h84v-135h-84v-113zM186 74h119v183q-90 -111 -119 -183z" />
    <glyph glyph-name="five.oldstyle" horiz-adv-x="590" 
d="M380 47q0 37 -22 67.5t-64 30.5q-23 0 -46 -12t-34 -39h-150l61 370h374v-141h-254l-16 -99q38 41 122 41q80 0 136 -59t56 -160q0 -60 -23 -107.5t-62 -75t-85 -41.5t-96 -14q-137 0 -230 103l75 110q72 -75 148 -75q58 0 84 29.5t26 71.5z" />
    <glyph glyph-name="six.oldstyle" horiz-adv-x="580" 
d="M509 595l-43 -104q-54 37 -129 37q-44 0 -83 -37.5t-34 -105.5q23 30 55.5 43t59.5 13q88 0 147 -61t59 -162q0 -105 -68 -164.5t-175 -59.5q-63 0 -110 21.5t-73 52.5t-42 75t-21 81t-5 78q0 169 76 262t201 93q93 0 185 -62zM296 123q33 0 49.5 29.5t16.5 65.5
q0 35 -17.5 66t-49.5 31q-29 0 -45.5 -27t-16.5 -64q0 -44 17 -72.5t46 -28.5z" />
    <glyph glyph-name="seven.oldstyle" horiz-adv-x="557" 
d="M27 309v139h491v-106q-94 -118 -155.5 -246t-112.5 -288h-195q102 271 284 501h-312z" />
    <glyph glyph-name="eight.oldstyle" horiz-adv-x="575" 
d="M287 -6q-123 0 -186.5 56t-63.5 140q0 44 28 89.5t85 59.5q-45 20 -69.5 60t-24.5 77q0 75 53 118t130 57q36 4 48 4q25 0 53 -4q73 -14 125.5 -58t52.5 -117q0 -39 -20.5 -77t-69.5 -60q37 -10 63.5 -39t36.5 -57.5t10 -52.5q0 -84 -64 -140t-187 -56zM287 130
q35 0 58.5 19t23.5 46q0 35 -22 56t-60 21q-37 0 -57.5 -21t-20.5 -56q0 -31 23.5 -48t54.5 -17zM285 409q29 0 51.5 15.5t22.5 41.5q0 29 -19.5 45t-52.5 16q-31 0 -51 -16t-20 -43q0 -28 20.5 -43.5t48.5 -15.5z" />
    <glyph glyph-name="nine.oldstyle" horiz-adv-x="578" 
d="M69 -128l43 104q54 -37 129 -37q44 0 83 37.5t34 105.5q-46 -56 -115 -56q-88 0 -147 61t-59 162q0 105 68 164.5t175 59.5q63 0 110 -21.5t73 -52.5t42 -75t21 -81t5 -78q0 -169 -76 -262t-201 -93q-93 0 -185 62zM282 344q-33 0 -49.5 -29.5t-16.5 -65.5
q0 -35 17.5 -66t49.5 -31q29 0 45.5 27t16.5 64q0 44 -17 72.5t-46 28.5z" />
    <glyph glyph-name="zero.pzero" horiz-adv-x="614" 
d="M163 37l-45 -68h-81l78 119q-61 89 -61 231q0 154 70 243t189 89q86 0 145 -43l35 53h80l-66 -99q70 -92 70 -243q0 -154 -70.5 -242.5t-193.5 -88.5q-89 0 -150 49zM231 263l140 213q-24 43 -58 43q-40 0 -62.5 -60t-22.5 -140q0 -29 3 -56zM397 394l-145 -220
q25 -54 61 -54q43 0 66.5 58.5t23.5 140.5q0 39 -6 75z" />
    <glyph glyph-name="zero.tzero" horiz-adv-x="628" 
d="M170 37l-45 -68h-81l78 119q-61 89 -61 231q0 154 70 243t189 89q86 0 145 -43l35 53h80l-66 -99q70 -92 70 -243q0 -154 -70.5 -242.5t-193.5 -88.5q-89 0 -150 49zM238 263l140 213q-24 43 -58 43q-40 0 -62.5 -60t-22.5 -140q0 -29 3 -56zM404 394l-145 -220
q25 -54 61 -54q43 0 66.5 58.5t23.5 140.5q0 39 -6 75z" />
    <glyph glyph-name="triangleup" horiz-adv-x="534" 
d="M477 162h-420l210 346z" />
    <glyph glyph-name="triangledown" horiz-adv-x="534" 
d="M57 508h420l-210 -346z" />
    <glyph glyph-name="zero.ozero" horiz-adv-x="470" 
d="M123 17l-35 -50h-81l63 90q-60 63 -60 173t60.5 174t163.5 64q59 0 108 -23l27 39h80l-52 -75q66 -63 66 -179q0 -111 -60.5 -174.5t-168.5 -63.5q-64 0 -111 25zM173 204l93 133q-14 14 -32 14q-30 0 -46 -36t-16 -85q0 -17 1 -26zM297 266l-98 -139q13 -18 35 -18
q29 0 47.5 36.5t18.5 84.5q0 18 -3 36z" />
    <glyph glyph-name="zero.tozero" horiz-adv-x="597" 
d="M186 17l-35 -50h-81l63 90q-60 63 -60 173t60.5 174t163.5 64q59 0 108 -23l27 39h80l-52 -75q66 -63 66 -179q0 -111 -60.5 -174.5t-168.5 -63.5q-64 0 -111 25zM236 204l93 133q-14 14 -32 14q-30 0 -46 -36t-16 -85q0 -17 1 -26zM360 266l-98 -139q14 -18 35 -18
q29 0 47.5 36.5t18.5 84.5q0 18 -3 36z" />
    <glyph glyph-name="A.small" horiz-adv-x="559" 
d="M179 0h-170l201 484h139l201 -484h-169l-41 101h-122zM280 354l-38 -146h76z" />
    <glyph glyph-name="B.small" horiz-adv-x="485" 
d="M268 190h-68v-77h68q12 0 22 11.5t10 23.5q0 42 -32 42zM442 351q0 -61 -56 -92q77 -24 77 -118q0 -55 -44 -98t-125 -43h-257v484h236q86 0 127.5 -37.5t41.5 -95.5zM200 297h51q14 0 22 12t8 23q0 16 -8.5 27.5t-24.5 11.5h-48v-74z" />
    <glyph glyph-name="C.small" horiz-adv-x="465" 
d="M17 242q0 107 71 178.5t188 71.5q90 0 182 -45l-40 -102q-76 28 -128 28q-56 0 -83 -38.5t-27 -92.5t27 -92t83 -38h4q46 0 126 28l38 -102q-90 -44 -182 -44q-118 0 -188.5 70.5t-70.5 177.5z" />
    <glyph glyph-name="D.small" horiz-adv-x="518" 
d="M236 0h-199v484h199q123 0 191.5 -61t68.5 -181t-68.5 -181t-191.5 -61zM198 118h41q42 0 69 31t27 93q0 124 -99 124h-38v-248z" />
    <glyph glyph-name="E.small" horiz-adv-x="442" 
d="M420 0h-383v484h379v-118h-218v-64h202v-117h-202v-67h222v-118z" />
    <glyph glyph-name="F.small" horiz-adv-x="406" 
d="M201 -1l-164 1v484h362v-118h-198v-64h183v-117h-183v-186z" />
    <glyph glyph-name="G.small" horiz-adv-x="507" 
d="M348 179h-101v112h243v-246q-35 -22 -94 -36t-102 -14q-126 0 -201.5 70t-75.5 177t75.5 178.5t201.5 71.5q98 0 192 -59l-53 -95q-60 36 -133 36q-62 0 -90.5 -38.5t-28.5 -93.5q0 -53 31 -91t88 -38q28 0 48 4v62z" />
    <glyph glyph-name="H.small" horiz-adv-x="508" 
d="M308 188h-108v-188h-163v484h163v-177h108v177h163v-484h-163v188z" />
    <glyph glyph-name="I.small" horiz-adv-x="236" 
d="M37 0v484h162v-484h-162z" />
    <glyph glyph-name="J.small" horiz-adv-x="365" 
d="M5 37l37 92q39 -24 103 -24q23 0 23 45v334h160v-339q0 -150 -164 -150q-71 0 -159 42z" />
    <glyph glyph-name="K.small" horiz-adv-x="499" 
d="M492 0h-190l-104 165v-165h-161v484h161v-131l83 131h184l-160 -221z" />
    <glyph glyph-name="L.small" horiz-adv-x="415" 
d="M200 484v-365h203v-119h-366v484h163z" />
    <glyph glyph-name="M.small" horiz-adv-x="660" 
d="M266 0l-57 232l-11 -232h-161l38 484h168l87 -290l87 290h168l38 -484h-159l-13 234l-56 -234h-129z" />
    <glyph glyph-name="N.small" horiz-adv-x="510" 
d="M302 0l-104 240v-240h-161v484h177l98 -251v251h161v-484h-171z" />
    <glyph glyph-name="O.small" horiz-adv-x="538" 
d="M269 -5q-118 0 -185 65t-67 182t67.5 183.5t184.5 66.5t184.5 -66.5t67.5 -183.5t-67 -182t-185 -65zM269 375q-42 0 -63.5 -38t-21.5 -95q0 -60 21 -95.5t64 -35.5q41 0 63 36t22 95q0 56 -22.5 94.5t-62.5 38.5z" />
    <glyph glyph-name="P.small" horiz-adv-x="464" 
d="M278 160h-78v-160h-163v484h236q90 0 132 -51t42 -115q0 -9 -2 -22.5t-12 -39t-26.5 -45.5t-50 -35.5t-78.5 -15.5zM200 278h69q28 0 28 42q0 46 -38 46h-59v-88z" />
    <glyph glyph-name="Q.small" horiz-adv-x="558" 
d="M281 -9h-2q-113 0 -182.5 67.5t-69.5 183.5q0 117 67.5 183.5t184.5 66.5t184.5 -66.5t67.5 -183.5q0 -118 -80 -187h79v-110h-74q-39 0 -64.5 7t-34.5 14.5t-23 23.5l-3 6zM279 375q-42 0 -63.5 -38t-21.5 -95q0 -60 21.5 -96.5t63.5 -36.5q41 0 63 37t22 96
q0 56 -22.5 94.5t-62.5 38.5z" />
    <glyph glyph-name="R.small" horiz-adv-x="489" 
d="M447 327q0 -73 -81 -107q20 -4 31 -15t21 -37l62 -168h-166l-55 139q-8 26 -30 26h-30v-165h-162v484h231q52 0 89.5 -14t56 -38.5t26 -49.5t7.5 -55zM199 283h68q28 0 28 36q0 47 -35 47h-61v-83z" />
    <glyph glyph-name="S.small" horiz-adv-x="466" 
d="M232 492q59 0 102 -17.5t94 -55.5l-46 -102q-38 30 -80.5 42t-64.5 12q-40 0 -40 -23q0 -15 18 -25l118 -44q111 -41 111 -131q0 -72 -58.5 -112.5t-140.5 -40.5q-67 0 -107 15q-71 25 -116 68l54 107q36 -30 84.5 -50.5t85.5 -20.5q35 0 35 24q0 20 -12 24l-119 46
q-59 23 -86.5 58t-27.5 72q0 70 55.5 112t140.5 42z" />
    <glyph glyph-name="T.small" horiz-adv-x="446" 
d="M437 366h-133v-366h-163v366h-132v118h428v-118z" />
    <glyph glyph-name="U.small" horiz-adv-x="523" 
d="M261 -6q-109 0 -166.5 51.5t-57.5 173.5v265h163v-266q0 -54 14.5 -77.5t46.5 -23.5q33 0 47.5 23.5t14.5 77.5v266h163v-265q0 -123 -57 -174t-168 -51z" />
    <glyph glyph-name="V.small" horiz-adv-x="526" 
d="M9 484h166l88 -298l88 298h166l-183 -484h-141z" />
    <glyph glyph-name="W.small" horiz-adv-x="711" 
d="M428 469l52 -234l52 249h170l-148 -484h-145l-54 238l-53 -238h-146l-147 484h167l53 -251l54 236h145z" />
    <glyph glyph-name="X.small" horiz-adv-x="558" 
d="M362 0l-84 137l-85 -137h-184l181 240l-173 244h184l78 -136l78 136h182l-171 -245l181 -239h-187z" />
    <glyph glyph-name="Y.small" horiz-adv-x="551" 
d="M358 0h-164v173l-185 311h183l84 -195l83 195h183l-184 -310v-174z" />
    <glyph glyph-name="Z.small" horiz-adv-x="476" 
d="M444 0h-422v96l219 270h-209v118h422v-94l-223 -270h213v-120z" />
    <glyph glyph-name="Eth.small" horiz-adv-x="550" 
d="M68 484h201q123 0 191 -61t68 -181q0 -119 -68.5 -180.5t-190.5 -61.5h-201v193h-61v101h61v190zM231 118h41q42 0 69 31t27 93q0 124 -98 124h-39v-72h81v-101h-81v-75z" />
    <glyph glyph-name="Lslash.small" horiz-adv-x="456" 
d="M77 0v157l-70 -43v97l70 45v228h163v-131l69 45v-97l-69 -45v-137h204v-119h-367z" />
    <glyph glyph-name="Scaron.small" horiz-adv-x="466" 
d="M232 492q59 0 102 -17.5t94 -55.5l-46 -102q-38 30 -80.5 42t-64.5 12q-40 0 -40 -23q0 -15 18 -25l118 -44q111 -41 111 -131q0 -72 -58.5 -112.5t-140.5 -40.5q-67 0 -107 15q-71 25 -116 68l54 107q36 -30 84.5 -50.5t85.5 -20.5q35 0 35 24q0 20 -12 24l-119 46
q-59 23 -86.5 58t-27.5 72q0 70 55.5 112t140.5 42zM304 539h-135l-96 146h133l31 -74l28 74h134z" />
    <glyph glyph-name="Yacute.small" horiz-adv-x="551" 
d="M358 0h-164v173l-185 311h183l84 -195l83 195h183l-184 -310v-174zM169 541l79 144h163l-128 -144h-114z" />
    <glyph glyph-name="Zcaron.small" horiz-adv-x="476" 
d="M300 539h-135l-96 146h133l31 -74l28 74h134zM444 0h-422v96l219 270h-209v118h422v-94l-223 -270h213v-120z" />
    <glyph glyph-name="Thorn.small" horiz-adv-x="438" 
d="M195 484v-111q13 26 34.5 39t36.5 13q64 0 108.5 -49t44.5 -142q0 -91 -46.5 -140.5t-113.5 -49.5q-38 0 -65 37v-81h-160v484h161zM215 311q-20 0 -20 -41v-83q0 -28 32 -28q26 0 26 75q0 77 -38 77z" />
    <glyph glyph-name="Adieresis.small" horiz-adv-x="559" 
d="M297 548v120h134v-120h-134zM120 548v120h134v-120h-134zM179 0h-170l201 484h139l201 -484h-169l-41 101h-122zM280 354l-38 -146h76z" />
    <glyph glyph-name="Aring.small" horiz-adv-x="559" 
d="M280 533q-49 0 -72.5 26t-23.5 65q0 40 23.5 66.5t72.5 26.5q50 0 73.5 -26t23.5 -67q0 -40 -23.5 -65.5t-73.5 -25.5zM280 599q26 0 26 25q0 26 -26 26q-13 0 -20 -8t-7 -18t7 -17.5t20 -7.5zM179 0h-170l201 484h139l201 -484h-169l-41 101h-122zM280 354l-38 -146h76z
" />
    <glyph glyph-name="Ccedilla.small" horiz-adv-x="465" 
d="M17 242q0 107 71 178.5t188 71.5q90 0 182 -45l-40 -102q-76 28 -128 28q-56 0 -83 -38.5t-27 -92.5t27 -92t83 -38h4q46 0 126 28l38 -102q-65 -32 -145 -41q11 -18 17 -33q5 -16 5 -35q0 -35 -25.5 -53t-70.5 -13q-35 5 -72 22v86l54 -14q7 -2 11.5 1.5t3.5 13.5
t-11 25q-94 16 -151 84.5t-57 160.5z" />
    <glyph glyph-name="Eacute.small" horiz-adv-x="442" 
d="M420 0h-383v484h379v-118h-218v-64h202v-117h-202v-67h222v-118zM134 541l79 144h163l-128 -144h-114z" />
    <glyph glyph-name="Ntilde.small" horiz-adv-x="510" 
d="M237 575q-15 0 -18 -39h-87q0 73 20 110.5t71 29.5q20 -3 37 -11t26 -14t12 -6q7 0 10 11.5t1 25.5h91q0 -66 -20 -106.5t-72 -33.5q-17 2 -33 10.5t-25.5 15.5t-12.5 7zM302 0l-104 240v-240h-161v484h177l98 -251v251h161v-484h-171z" />
    <glyph glyph-name="Odieresis.small" horiz-adv-x="538" 
d="M289 548v120h134v-120h-134zM112 548v120h134v-120h-134zM269 -5q-118 0 -185 65t-67 182t67.5 183.5t184.5 66.5t184.5 -66.5t67.5 -183.5t-67 -182t-185 -65zM269 375q-42 0 -63.5 -38t-21.5 -95q0 -60 21 -95.5t64 -35.5q41 0 63 36t22 95q0 56 -22.5 94.5t-62.5 38.5
z" />
    <glyph glyph-name="Udieresis.small" horiz-adv-x="523" 
d="M282 548v120h134v-120h-134zM105 548v120h134v-120h-134zM261 -6q-109 0 -166.5 51.5t-57.5 173.5v265h163v-266q0 -54 14.5 -77.5t46.5 -23.5q33 0 47.5 23.5t14.5 77.5v266h163v-265q0 -123 -57 -174t-168 -51z" />
    <glyph glyph-name="AE.small" horiz-adv-x="701" 
d="M303 368l-61 -154h61v154zM451 118h228v-118h-376v98h-83l-41 -98h-170l243 484h423v-118h-224v-64h208v-117h-208v-67z" />
    <glyph glyph-name="Oslash.small" horiz-adv-x="538" 
d="M186 204l109 165q-17 6 -26 6q-42 0 -63.5 -38t-21.5 -95q0 -16 2 -38zM30 -36l60 91q-73 66 -73 187q0 117 67.5 183.5t184.5 66.5q53 0 96 -15l24 36h122l-58 -89q68 -66 68 -182q0 -117 -67.5 -184t-184.5 -67q-47 0 -91 13l-27 -40h-121zM353 271l-105 -161
q10 -3 21 -3q41 0 63 37.5t22 97.5q0 18 -1 29z" />
    <glyph glyph-name="Agrave.small" horiz-adv-x="559" 
d="M270 685l79 -144h-114l-128 144h163zM179 0h-170l201 484h139l201 -484h-169l-41 101h-122zM280 354l-38 -146h76z" />
    <glyph glyph-name="Atilde.small" horiz-adv-x="559" 
d="M237 575q-15 0 -18 -39h-87q0 73 20 110.5t71 29.5q20 -3 37 -11t26 -14t12 -6q7 0 10 11.5t1 25.5h91q0 -66 -20 -106.5t-72 -33.5q-17 2 -33 10.5t-25.5 15.5t-12.5 7zM179 0h-170l201 484h139l201 -484h-169l-41 101h-122zM280 354l-38 -146h76z" />
    <glyph glyph-name="Otilde.small" horiz-adv-x="538" 
d="M237 575q-15 0 -18 -39h-87q0 73 20 110.5t71 29.5q20 -3 37 -11t26 -14t12 -6q7 0 10 11.5t1 25.5h91q0 -66 -20 -106.5t-72 -33.5q-17 2 -33 10.5t-25.5 15.5t-12.5 7zM269 -5q-118 0 -185 65t-67 182t67.5 183.5t184.5 66.5t184.5 -66.5t67.5 -183.5t-67 -182
t-185 -65zM269 375q-42 0 -63.5 -38t-21.5 -95q0 -60 21 -95.5t64 -35.5q41 0 63 36t22 95q0 56 -22.5 94.5t-62.5 38.5z" />
    <glyph glyph-name="OE.small" horiz-adv-x="761" 
d="M269 375q-43 0 -65.5 -38t-22.5 -95q0 -60 22.5 -95.5t65.5 -35.5q41 0 63 36t22 95q0 56 -22.5 94.5t-62.5 38.5zM355 0h-96q-111 0 -176.5 63.5t-65.5 178.5q0 114 67 178t175 64h96h379v-118h-217v-64h201v-117h-201v-67h222v-118h-384z" />
    <glyph glyph-name="Ydieresis.small" horiz-adv-x="551" 
d="M297 548v120h134v-120h-134zM120 548v120h134v-120h-134zM358 0h-164v173l-185 311h183l84 -195l83 195h183l-184 -310v-174z" />
    <glyph glyph-name="Acircumflex.small" horiz-adv-x="559" 
d="M207 685h135l96 -146h-133l-31 74l-28 -74h-134zM179 0h-170l201 484h139l201 -484h-169l-41 101h-122zM280 354l-38 -146h76z" />
    <glyph glyph-name="Ecircumflex.small" horiz-adv-x="442" 
d="M157 685h135l96 -146h-133l-31 74l-28 -74h-134zM420 0h-383v484h379v-118h-218v-64h202v-117h-202v-67h222v-118z" />
    <glyph glyph-name="Aacute.small" horiz-adv-x="559" 
d="M208 541l79 144h163l-128 -144h-114zM179 0h-170l201 484h139l201 -484h-169l-41 101h-122zM280 354l-38 -146h76z" />
    <glyph glyph-name="Edieresis.small" horiz-adv-x="442" 
d="M253 548v120h134v-120h-134zM76 548v120h134v-120h-134zM420 0h-383v484h379v-118h-218v-64h202v-117h-202v-67h222v-118z" />
    <glyph glyph-name="Egrave.small" horiz-adv-x="442" 
d="M227 685l79 -144h-114l-128 144h163zM420 0h-383v484h379v-118h-218v-64h202v-117h-202v-67h222v-118z" />
    <glyph glyph-name="Iacute.small" horiz-adv-x="236" 
d="M39 541l79 144h163l-128 -144h-114zM37 0v484h162v-484h-162z" />
    <glyph glyph-name="Icircumflex.small" horiz-adv-x="236" 
d="M50 685h135l96 -146h-133l-31 74l-28 -74h-134zM37 0v484h162v-484h-162z" />
    <glyph glyph-name="Idieresis.small" horiz-adv-x="236" 
d="M141 548v120h134v-120h-134zM-36 548v120h134v-120h-134zM37 0v484h162v-484h-162z" />
    <glyph glyph-name="Igrave.small" horiz-adv-x="236" 
d="M122 685l79 -144h-114l-128 144h163zM37 0v484h162v-484h-162z" />
    <glyph glyph-name="Oacute.small" horiz-adv-x="538" 
d="M191 541l79 144h163l-128 -144h-114zM269 -5q-118 0 -185 65t-67 182t67.5 183.5t184.5 66.5t184.5 -66.5t67.5 -183.5t-67 -182t-185 -65zM269 375q-42 0 -63.5 -38t-21.5 -95q0 -60 21 -95.5t64 -35.5q41 0 63 36t22 95q0 56 -22.5 94.5t-62.5 38.5z" />
    <glyph glyph-name="Ocircumflex.small" horiz-adv-x="538" 
d="M200 685h135l96 -146h-133l-31 74l-28 -74h-134zM269 -5q-118 0 -185 65t-67 182t67.5 183.5t184.5 66.5t184.5 -66.5t67.5 -183.5t-67 -182t-185 -65zM269 375q-42 0 -63.5 -38t-21.5 -95q0 -60 21 -95.5t64 -35.5q41 0 63 36t22 95q0 56 -22.5 94.5t-62.5 38.5z" />
    <glyph glyph-name="Ograve.small" horiz-adv-x="538" 
d="M241 685l79 -144h-114l-128 144h163zM269 -5q-118 0 -185 65t-67 182t67.5 183.5t184.5 66.5t184.5 -66.5t67.5 -183.5t-67 -182t-185 -65zM269 375q-42 0 -63.5 -38t-21.5 -95q0 -60 21 -95.5t64 -35.5q41 0 63 36t22 95q0 56 -22.5 94.5t-62.5 38.5z" />
    <glyph glyph-name="Uacute.small" horiz-adv-x="523" 
d="M166 541l79 144h163l-128 -144h-114zM261 -6q-109 0 -166.5 51.5t-57.5 173.5v265h163v-266q0 -54 14.5 -77.5t46.5 -23.5q33 0 47.5 23.5t14.5 77.5v266h163v-265q0 -123 -57 -174t-168 -51z" />
    <glyph glyph-name="Ucircumflex.small" horiz-adv-x="523" 
d="M192 685h135l96 -146h-133l-31 74l-28 -74h-134zM261 -6q-109 0 -166.5 51.5t-57.5 173.5v265h163v-266q0 -54 14.5 -77.5t46.5 -23.5q33 0 47.5 23.5t14.5 77.5v266h163v-265q0 -123 -57 -174t-168 -51z" />
    <glyph glyph-name="Ugrave.small" horiz-adv-x="523" 
d="M260 685l79 -144h-114l-128 144h163zM261 -6q-109 0 -166.5 51.5t-57.5 173.5v265h163v-266q0 -54 14.5 -77.5t46.5 -23.5q33 0 47.5 23.5t14.5 77.5v266h163v-265q0 -123 -57 -174t-168 -51z" />
    <glyph glyph-name="Cdotaccent.small" horiz-adv-x="465" 
d="M17 242q0 107 71 178.5t188 71.5q90 0 182 -45l-40 -102q-76 28 -128 28q-56 0 -83 -38.5t-27 -92.5t27 -92t83 -38h4q46 0 126 28l38 -102q-90 -44 -182 -44q-118 0 -188.5 70.5t-70.5 177.5zM195 544v130h145v-130h-145z" />
    <glyph glyph-name="Ibreve.small" horiz-adv-x="236" 
d="M37 0v484h162v-484h-162zM118 531q-64 0 -99 41t-35 102h92q1 -50 41 -50q39 0 42 50h91q0 -61 -34.5 -102t-97.5 -41z" />
    <glyph glyph-name="Idotaccent.small" horiz-adv-x="236" 
d="M37 0v484h162v-484h-162zM37 544v130h162v-130h-162z" />
    <glyph glyph-name="Ycircumflex.small" horiz-adv-x="551" 
d="M208 685h135l96 -146h-133l-31 74l-28 -74h-134zM358 0h-164v173l-185 311h183l84 -195l83 195h183l-184 -310v-174z" />
    <glyph glyph-name="Wcircumflex.small" horiz-adv-x="711" 
d="M283 685h135l96 -146h-133l-31 74l-28 -74h-134zM428 469l52 -234q47 226 52 249h170l-148 -484h-145l-54 238l-53 -238h-146l-147 484h167l53 -251q9 35 26.5 116.5t27.5 119.5h145z" />
    <glyph glyph-name="Tcaron.small" horiz-adv-x="446" 
d="M286 539h-135l-96 146h133l31 -74l28 74h134zM437 366h-133v-366h-163v366h-132v118h428v-118z" />
    <glyph glyph-name="Utilde.small" horiz-adv-x="523" 
d="M237 575q-15 0 -18 -39h-87q0 73 20 110.5t71 29.5q20 -3 37 -11t26 -14t12 -6q7 0 10 11.5t1 25.5h91q0 -66 -20 -106.5t-72 -33.5q-17 2 -33 10.5t-25.5 15.5t-12.5 7zM261 -6q-109 0 -166.5 51.5t-57.5 173.5v265h163v-266q0 -54 14.5 -77.5t46.5 -23.5
q33 0 47.5 23.5t14.5 77.5v266h163v-265q0 -123 -57 -174t-168 -51z" />
    <glyph glyph-name="Scircumflex.small" horiz-adv-x="466" 
d="M164 685h135l96 -146h-133l-31 74l-28 -74h-134zM232 492q59 0 102 -17.5t94 -55.5l-46 -102q-38 30 -80.5 42t-64.5 12q-40 0 -40 -23q0 -15 18 -25l118 -44q111 -41 111 -131q0 -72 -58.5 -112.5t-140.5 -40.5q-67 0 -107 15q-71 25 -116 68l54 107q36 -30 84.5 -50.5
t85.5 -20.5q35 0 35 24q0 20 -12 24l-119 46q-59 23 -86.5 58t-27.5 72q0 70 55.5 112t140.5 42z" />
    <glyph glyph-name="Rcaron.small" horiz-adv-x="489" 
d="M300 539h-135l-96 146h133l31 -74l28 74h134zM447 327q0 -73 -81 -107q20 -4 31 -15t21 -37l62 -168h-166l-55 139q-8 26 -30 26h-30v-165h-162v484h231q52 0 89.5 -14t56 -38.5t26 -49.5t7.5 -55zM199 283h68q28 0 28 36q0 47 -35 47h-61v-83z" />
    <glyph glyph-name="Ncaron.small" horiz-adv-x="510" 
d="M300 539h-135l-96 146h133l31 -74l28 74h134zM302 0l-104 240v-240h-161v484h177l98 -251v251h161v-484h-171z" />
    <glyph glyph-name="Jcircumflex.small" horiz-adv-x="452" 
d="M184 685h135l96 -146h-133l-31 74l-28 -74h-134zM5 37l37 92q39 -24 103 -24q23 0 23 45v334h160v-339q0 -150 -164 -150q-71 0 -159 42z" />
    <glyph glyph-name="Itilde.small" horiz-adv-x="236" 
d="M91 575q-15 0 -18 -39h-87q0 73 20 110.5t71 29.5q20 -3 37 -11t26 -14t12 -6q7 0 10 11.5t1 25.5h91q0 -66 -20 -106.5t-72 -33.5q-17 2 -33 10.5t-25.5 15.5t-12.5 7zM37 0v484h162v-484h-162z" />
    <glyph glyph-name="Hcircumflex.small" horiz-adv-x="508" 
d="M185 685h135l96 -146h-133l-31 74l-28 -74h-134zM308 188h-108v-188h-163v484h163v-177h108v177h163v-484h-163v188z" />
    <glyph glyph-name="Gcircumflex.small" horiz-adv-x="507" 
d="M199 685h135l96 -146h-133l-31 74l-28 -74h-134zM348 179h-101v112h243v-246q-35 -22 -94 -36t-102 -14q-126 0 -201.5 70t-75.5 177t75.5 178.5t201.5 71.5q98 0 192 -59l-53 -95q-60 36 -133 36q-62 0 -90.5 -38.5t-28.5 -93.5q0 -53 31 -91t88 -38q28 0 48 4v62z" />
    <glyph glyph-name="Ecaron.small" horiz-adv-x="442" 
d="M286 539h-135l-96 146h133l31 -74l28 74h134zM420 0h-383v484h379v-118h-218v-64h202v-117h-202v-67h222v-118z" />
    <glyph glyph-name="Dcaron.small" horiz-adv-x="518" 
d="M315 539h-135l-96 146h133l31 -74l28 74h134zM236 0h-199v484h199q123 0 191.5 -61t68.5 -181t-68.5 -181t-191.5 -61zM198 118h41q42 0 69 31t27 93q0 124 -99 124h-38v-248z" />
    <glyph glyph-name="Lcaron.small" horiz-adv-x="442" 
d="M200 484v-365h203v-119h-366v484h163zM226 330l64 154h150l-100 -154h-114z" />
    <glyph glyph-name="Ccaron.small" horiz-adv-x="465" 
d="M330 539h-135l-96 146h133l31 -74l28 74h134zM17 242q0 107 71 178.5t188 71.5q90 0 182 -45l-40 -102q-76 28 -128 28q-56 0 -83 -38.5t-27 -92.5t27 -92t83 -38h4q46 0 126 28l38 -102q-90 -44 -182 -44q-118 0 -188.5 70.5t-70.5 177.5z" />
    <glyph glyph-name="Ccircumflex.small" horiz-adv-x="465" 
d="M194 685h135l96 -146h-133l-31 74l-28 -74h-134zM17 242q0 107 71 178.5t188 71.5q90 0 182 -45l-40 -102q-76 28 -128 28q-56 0 -83 -38.5t-27 -92.5t27 -92t83 -38h4q46 0 126 28l38 -102q-90 -44 -182 -44q-118 0 -188.5 70.5t-70.5 177.5z" />
    <glyph glyph-name="Zacute.small" horiz-adv-x="476" 
d="M161 541l79 144h163l-128 -144h-114zM444 0h-422v96l219 270h-209v118h422v-94l-223 -270h213v-120z" />
    <glyph glyph-name="Wgrave.small" horiz-adv-x="711" 
d="M331 685l79 -144h-114l-128 144h163zM428 469l52 -234l52 249h170l-148 -484h-145l-54 238l-53 -238h-146l-147 484h167l53 -251l54 236h145z" />
    <glyph glyph-name="Wacute.small" horiz-adv-x="711" 
d="M288 541l79 144h163l-128 -144h-114zM428 469l52 -234l52 249h170l-148 -484h-145l-54 238l-53 -238h-146l-147 484h167l53 -251l54 236h145z" />
    <glyph glyph-name="Ygrave.small" horiz-adv-x="551" 
d="M264 685l79 -144h-114l-128 144h163zM358 0h-164v173l-185 311h183l84 -195l83 195h183l-184 -310v-174z" />
    <glyph glyph-name="Sacute.small" horiz-adv-x="466" 
d="M159 541l79 144h163l-128 -144h-114zM232 492q59 0 102 -17.5t94 -55.5l-46 -102q-38 30 -80.5 42t-64.5 12q-40 0 -40 -23q0 -15 18 -25l118 -44q111 -41 111 -131q0 -72 -58.5 -112.5t-140.5 -40.5q-67 0 -107 15q-71 25 -116 68l54 107q36 -30 84.5 -50.5t85.5 -20.5
q35 0 35 24q0 20 -12 24l-119 46q-59 23 -86.5 58t-27.5 72q0 70 55.5 112t140.5 42z" />
    <glyph glyph-name="Racute.small" horiz-adv-x="489" 
d="M134 541l79 144h163l-128 -144h-114zM447 327q0 -73 -81 -107q20 -4 31 -15t21 -37l62 -168h-166l-55 139q-8 26 -30 26h-30v-165h-162v484h231q52 0 89.5 -14t56 -38.5t26 -49.5t7.5 -55zM199 283h68q28 0 28 36q0 47 -35 47h-61v-83z" />
    <glyph glyph-name="Lacute.small" horiz-adv-x="415" 
d="M39 541l79 144h163l-128 -144h-114zM200 484v-365h203v-119h-366v484h163z" />
    <glyph glyph-name="Cacute.small" horiz-adv-x="465" 
d="M179 541l79 144h163l-128 -144h-114zM17 242q0 107 71 178.5t188 71.5q90 0 182 -45l-40 -102q-76 28 -128 28q-56 0 -83 -38.5t-27 -92.5t27 -92t83 -38h4q46 0 126 28l38 -102q-90 -44 -182 -44q-118 0 -188.5 70.5t-70.5 177.5z" />
    <glyph glyph-name="Gdotaccent.small" horiz-adv-x="507" 
d="M203 544v130h145v-130h-145zM348 179h-101v112h243v-246q-35 -22 -94 -36t-102 -14q-126 0 -201.5 70t-75.5 177t75.5 178.5t201.5 71.5q98 0 192 -59l-53 -95q-60 36 -133 36q-62 0 -90.5 -38.5t-28.5 -93.5q0 -53 31 -91t88 -38q28 0 48 4v62z" />
    <glyph glyph-name="Edotaccent.small" horiz-adv-x="442" 
d="M164 544v130h145v-130h-145zM420 0h-383v484h379v-118h-218v-64h202v-117h-202v-67h222v-118z" />
    <glyph glyph-name="Ohungarumlaut.small" horiz-adv-x="538" 
d="M150 520l64 154h122l-100 -154h-86zM298 520l64 154h122l-100 -154h-86zM269 -5q-118 0 -185 65t-67 182t67.5 183.5t184.5 66.5t184.5 -66.5t67.5 -183.5t-67 -182t-185 -65zM269 375q-42 0 -63.5 -38t-21.5 -95q0 -60 21 -95.5t64 -35.5q41 0 63 36t22 95
q0 56 -22.5 94.5t-62.5 38.5z" />
    <glyph glyph-name="Uhungarumlaut.small" horiz-adv-x="523" 
d="M120 520l64 154h122l-100 -154h-86zM268 520l64 154h122l-100 -154h-86zM261 -6q-109 0 -166.5 51.5t-57.5 173.5v265h163v-266q0 -54 14.5 -77.5t46.5 -23.5q33 0 47.5 23.5t14.5 77.5v266h163v-265q0 -123 -57 -174t-168 -51z" />
    <glyph glyph-name="Uring.small" horiz-adv-x="523" 
d="M261 -9q-109 0 -166.5 52.5t-57.5 175.5v265h163v-266q0 -109 61 -109q62 0 62 109v266h163v-265q0 -123 -57.5 -175.5t-167.5 -52.5zM262 533q-49 0 -72.5 26t-23.5 65q0 40 23.5 66.5t72.5 26.5q50 0 73.5 -26t23.5 -67q0 -40 -23.5 -65.5t-73.5 -25.5zM262 599
q26 0 26 25q0 26 -26 26q-13 0 -20 -8t-7 -18t7 -17.5t20 -7.5z" />
    <glyph glyph-name="Ldot.small" horiz-adv-x="420" 
d="M200 484v-365h203v-119h-366v484h163zM258 292v130h145v-130h-145z" />
    <glyph glyph-name="Ubreve.small" horiz-adv-x="523" 
d="M255 531q-64 0 -99 41t-35 102h92q1 -50 41 -50q39 0 42 50h91q0 -61 -34.5 -102t-97.5 -41zM261 -6q-109 0 -166.5 51.5t-57.5 173.5v265h163v-266q0 -54 14.5 -77.5t46.5 -23.5q33 0 47.5 23.5t14.5 77.5v266h163v-265q0 -123 -57 -174t-168 -51z" />
    <glyph glyph-name="Obreve.small" horiz-adv-x="538" 
d="M271 531q-64 0 -99 41t-35 102h92q1 -50 41 -50q39 0 42 50h91q0 -61 -34.5 -102t-97.5 -41zM269 -5q-118 0 -185 65t-67 182t67.5 183.5t184.5 66.5t184.5 -66.5t67.5 -183.5t-67 -182t-185 -65zM269 375q-42 0 -63.5 -38t-21.5 -95q0 -60 21 -95.5t64 -35.5q41 0 63 36
t22 95q0 56 -22.5 94.5t-62.5 38.5z" />
    <glyph glyph-name="Gbreve.small" horiz-adv-x="507" 
d="M285 531q-64 0 -99 41t-35 102h92q1 -50 41 -50q39 0 42 50h91q0 -61 -34.5 -102t-97.5 -41zM348 179h-101v112h243v-246q-35 -22 -94 -36t-102 -14q-126 0 -201.5 70t-75.5 177t75.5 178.5t201.5 71.5q98 0 192 -59l-53 -95q-60 36 -133 36q-62 0 -90.5 -38.5
t-28.5 -93.5q0 -53 31 -91t88 -38q28 0 48 4v62z" />
    <glyph glyph-name="Ebreve.small" horiz-adv-x="442" 
d="M225 531q-64 0 -99 41t-35 102h92q1 -50 41 -50q39 0 42 50h91q0 -61 -34.5 -102t-97.5 -41zM420 0h-383v484h379v-118h-218v-64h202v-117h-202v-67h222v-118z" />
    <glyph glyph-name="Abreve.small" horiz-adv-x="559" 
d="M280 531q-64 0 -99 41t-35 102h92q1 -50 41 -50q39 0 42 50h91q0 -61 -34.5 -102t-97.5 -41zM179 0h-170l201 484h139l201 -484h-169l-41 101h-122zM280 329l-35 -116h69z" />
    <glyph glyph-name="Nacute.small" horiz-adv-x="510" 
d="M152 541l79 144h163l-128 -144h-114zM302 0l-104 240v-240h-161v484h177l98 -251v251h161v-484h-171z" />
    <glyph glyph-name="Zdotaccent.small" horiz-adv-x="476" 
d="M170 544v130h145v-130h-145zM444 0h-422v96l219 270h-209v118h422v-94l-223 -270h213v-120z" />
    <glyph glyph-name="Wdieresis.small" horiz-adv-x="711" 
d="M377 548v120h134v-120h-134zM200 548v120h134v-120h-134zM428 469l52 -234l52 249h170l-148 -484h-145l-54 238l-53 -238h-146l-147 484h167l53 -251l54 236h145z" />
    <glyph glyph-name="Umacron.small" horiz-adv-x="523" 
d="M143 553v108h248v-108h-248zM261 -6q-109 0 -166.5 51.5t-57.5 173.5v265h163v-266q0 -54 14.5 -77.5t46.5 -23.5q33 0 47.5 23.5t14.5 77.5v266h163v-265q0 -123 -57 -174t-168 -51z" />
    <glyph glyph-name="Amacron.small" horiz-adv-x="559" 
d="M151 553v108h248v-108h-248zM179 0h-170l201 484h139l201 -484h-169l-41 101h-122zM280 329l-35 -116h69z" />
    <glyph glyph-name="Emacron.small" horiz-adv-x="442" 
d="M420 0h-383v484h379v-118h-218v-64h202v-117h-202v-67h222v-118zM105 553v108h248v-108h-248z" />
    <glyph glyph-name="Omacron.small" horiz-adv-x="542" 
d="M151 553v108h248v-108h-248zM275 -5q-118 0 -185 65t-67 182t67.5 183.5t184.5 66.5t184.5 -66.5t67.5 -183.5t-67 -182t-185 -65zM275 375q-42 0 -63.5 -38t-21.5 -95q0 -60 21 -95.5t64 -35.5q41 0 63 36t22 95q0 56 -22.5 94.5t-62.5 38.5z" />
    <glyph glyph-name="lacute.small" horiz-adv-x="236" 
d="M40 541l79 144h163l-128 -144h-114zM37 0v484h162v-484h-162z" />
    <glyph glyph-name="Imacron.small" horiz-adv-x="236" 
d="M37 0v484h162v-484h-162zM-8 553v108h248v-108h-248z" />
    <glyph glyph-name="Uogonek.small" horiz-adv-x="523" 
d="M302 -4q-10 -15 -3 -32t40 -12l30 5v-79q-39 -18 -72 -22q-44 -5 -70.5 16t-26.5 57q0 34 18 67q-88 9 -134.5 61.5t-46.5 161.5v265h163v-266q0 -54 14.5 -77.5t46.5 -23.5q33 0 47.5 23.5t14.5 77.5v266h163v-265q0 -111 -46.5 -162.5t-137.5 -60.5z" />
    <glyph glyph-name="Aogonek.small" horiz-adv-x="559" 
d="M381 0l-41 101h-122l-39 -101h-170l201 484h139l201 -484h-85q-6 -7 -9.5 -19.5t5 -23t36.5 -5.5l30 5v-79q-39 -18 -72 -22q-44 -5 -70.5 16t-26.5 57q0 19 6 35q4 16 18 36h-1zM280 354l-38 -146h76z" />
    <glyph glyph-name="Eogonek.small" horiz-adv-x="448" 
d="M420 0l-2 -2q-22 -42 3 -47q12 -3 33 1l30 5v-79q-39 -18 -72 -22q-44 -5 -70.5 16t-26.5 57q0 37 21 71h-299v484h379v-118h-218v-64h202v-117h-202v-67h222v-118z" />
    <glyph glyph-name="Hbar.small" horiz-adv-x="508" 
d="M129 553v108h248v-108h-248zM308 188h-108v-188h-163v484h163v-177h108v177h163v-484h-163v188z" />
    <glyph glyph-name="Scedilla.small" horiz-adv-x="466" 
d="M284 -2q20 -35 20 -69q0 -36 -26.5 -57t-70.5 -16q-33 4 -72 22v79l30 -5q23 -4 33 4t9 18.5t-6 22.5q-106 11 -179 81l54 107q36 -30 84.5 -50.5t85.5 -20.5q35 0 35 24q0 20 -12 24l-119 46q-59 23 -86.5 58t-27.5 72q0 70 55.5 112t140.5 42q59 0 102 -17.5t94 -55.5
l-46 -102q-38 30 -80.5 42t-64.5 12q-40 0 -40 -23q0 -15 18 -25l118 -44q111 -41 111 -131q0 -63 -45.5 -102t-114.5 -48z" />
    <glyph glyph-name="Tbar.small" horiz-adv-x="446" 
d="M102 553v108h248v-108h-248zM437 366h-133v-366h-163v366h-132v118h428v-118z" />
    <glyph glyph-name="Eng.small" horiz-adv-x="510" 
d="M311 11l-113 232v-243h-161v484h177l98 -235v235h161v-474q-3 -75 -50 -107t-115 -32h-24q-5 0 -22 0.5t-18 0.5v98h45q20 0 22 41z" />
    <glyph glyph-name="Ncommaaccent.small" horiz-adv-x="510" 
d="M91 -186l87 156h159l-134 -156h-112zM302 0l-104 240v-240h-161v484h177l98 -251v251h161v-484h-171z" />
    <glyph glyph-name="Kcommaaccent.small" horiz-adv-x="499" 
d="M91 -186l87 156h159l-134 -156h-112zM492 0h-190l-104 165v-165h-161v484h161v-131l83 131h184l-160 -221z" />
    <glyph glyph-name="Gcommaaccent.small" horiz-adv-x="507" 
d="M124 -186l87 156h159l-134 -156h-112zM348 179h-101v112h243v-246q-35 -22 -94 -36t-102 -14q-126 0 -201.5 70t-75.5 177t75.5 178.5t201.5 71.5q98 0 192 -59l-53 -95q-60 36 -133 36q-62 0 -90.5 -38.5t-28.5 -93.5q0 -53 31 -91t88 -38q28 0 48 4v62z" />
    <glyph glyph-name="Lcommaaccent.small" horiz-adv-x="415" 
d="M62 -186l87 156h159l-134 -156h-112zM200 484v-365h203v-119h-366v484h163z" />
    <glyph glyph-name="Rcommaaccent.small" horiz-adv-x="489" 
d="M91 -186l87 156h159l-134 -156h-112zM447 327q0 -73 -81 -107q20 -4 31 -15t21 -37l62 -168h-166l-55 139q-8 26 -30 26h-30v-165h-162v484h231q52 0 89.5 -14t56 -38.5t26 -49.5t7.5 -55zM199 283h68q28 0 28 36q0 47 -35 47h-61v-83z" />
    <glyph glyph-name="Dcroat.small" horiz-adv-x="518" 
d="M106 553v108h248v-108h-248zM236 0h-199v484h199q123 0 191.5 -61t68.5 -181t-68.5 -181t-191.5 -61zM198 118h41q42 0 69 31t27 93q0 124 -99 124h-38v-248z" />
    <glyph glyph-name="Aringacute.small" horiz-adv-x="559" 
d="M179 0h-170l199 479q-24 24 -24 66q0 40 23.5 66.5t72.5 26.5q50 0 73.5 -26t23.5 -67q0 -44 -26 -67l199 -478h-169l-41 101h-122zM212 661l79 144h163l-128 -144h-114zM280 329l-35 -116h69zM280 520q26 0 26 25q0 26 -26 26q-13 0 -20 -8t-7 -18t7 -17.5t20 -7.5z" />
    <glyph glyph-name="AEacute.small" horiz-adv-x="701" 
d="M253 541l79 144h163l-128 -144h-114zM303 368l-61 -154h61v154zM451 118h228v-118h-376v98h-83l-41 -98h-170l243 484h423v-118h-224v-64h208v-117h-208v-67z" />
    <glyph glyph-name="IJ.small" horiz-adv-x="583" 
d="M37 0v484h162v-484h-162zM223 37l37 92q39 -24 103 -24q23 0 23 45v334h160v-339q0 -150 -164 -150q-71 0 -159 42z" />
    <glyph glyph-name="Oslashacute.small" horiz-adv-x="538" 
d="M188 541l79 144h163l-128 -144h-114zM186 204l109 165q-17 6 -26 6q-42 0 -63.5 -38t-21.5 -95q0 -16 2 -38zM30 -36l60 91q-73 66 -73 187q0 117 67.5 183.5t184.5 66.5q53 0 96 -15l24 36h122l-58 -89q68 -66 68 -182q0 -117 -67.5 -184t-184.5 -67q-47 0 -91 13
l-27 -40h-121zM353 271l-105 -161q10 -3 21 -3q41 0 63 37.5t22 97.5q0 18 -1 29z" />
    <glyph glyph-name="Tcommaaccent.small" horiz-adv-x="446" 
d="M60 -186l87 156h159l-134 -156h-112zM437 366h-133v-366h-163v366h-132v118h428v-118z" />
    <glyph glyph-name="Scommaaccent.small" horiz-adv-x="466" 
d="M232 492q59 0 102 -17.5t94 -55.5l-46 -102q-38 30 -80.5 42t-64.5 12q-40 0 -40 -23q0 -15 18 -25l118 -44q111 -41 111 -131q0 -72 -58.5 -112.5t-140.5 -40.5q-67 0 -107 15q-71 25 -116 68l54 107q36 -30 84.5 -50.5t85.5 -20.5q35 0 35 24q0 20 -12 24l-119 46
q-59 23 -86.5 58t-27.5 72q0 70 55.5 112t140.5 42zM60 -186l87 156h159l-134 -156h-112z" />
    <glyph glyph-name="parenleft.small" horiz-adv-x="345" 
d="M57 157q0 139 70.5 233t180.5 94v-88q-42 0 -88 -73t-46 -167q0 -95 46 -170.5t88 -75.5v-87q-109 0 -180 96.5t-71 237.5z" />
    <glyph glyph-name="parenright.small" horiz-adv-x="345" 
d="M288 157q0 -141 -71 -237.5t-180 -96.5v87q42 0 88 75.5t46 170.5q0 94 -46 167t-88 73v88q110 0 180.5 -94t70.5 -233z" />
    <glyph glyph-name="braceleft.small" horiz-adv-x="338" 
d="M227 382v-134q0 -25 -17 -50t-39 -39l-2 -2l2 -2q56 -43 56 -90v-136q0 -22 16 -22h58v-81h-90q-36 0 -68.5 27t-32.5 65v139q0 29 -10.5 46.5t-42.5 20.5v66q32 3 42.5 20.5t10.5 47.5v135q0 39 32 65t69 26h90v-81h-58q-16 0 -16 -21z" />
    <glyph glyph-name="braceright.small" horiz-adv-x="338" 
d="M111 248v134q0 21 -16 21h-58v81h90q37 0 69 -26t32 -65v-135q0 -30 10.5 -47.5t42.5 -20.5v-66q-32 -3 -42.5 -20.5t-10.5 -46.5v-139q0 -38 -32.5 -65t-68.5 -27h-90v81h58q16 0 16 22v136q0 47 56 90l2 2l-2 2q-21 14 -38.5 39.5t-17.5 49.5z" />
    <glyph glyph-name="bracketleft.small" horiz-adv-x="305" 
d="M268 387h-82v-464h82v-97h-211v658h211v-97z" />
    <glyph glyph-name="bracketright.small" horiz-adv-x="305" 
d="M119 387h-82v97h211v-658h-211v97h82v464z" />
    <glyph glyph-name="ampersand.small" horiz-adv-x="463" 
d="M154 144q0 -24 15 -40.5t40 -16.5q26 0 49 29l-73 75q-31 -21 -31 -47zM184 359q-2 -13 5.5 -29.5t17.5 -22.5q27 19 27 52q0 12 -7 21.5t-18 9.5q-25 0 -25 -31zM297 243l28 -27q14 14 14 53h96q6 -90 -35 -129q28 -28 41.5 -58t13.5 -82h-113q0 26 -5 41
q-18 -22 -52.5 -35.5t-75.5 -13.5q-89 0 -135.5 43t-46.5 106q0 81 72 122q-37 41 -35 100q4 57 46.5 88.5t98.5 31.5q55 0 99 -32t46 -87q0 -73 -57 -121z" />
    <glyph glyph-name="asterisk.small" horiz-adv-x="382" 
d="M232 598l65 41l48 -77l-78 -38q60 -27 78 -35l-48 -80l-65 42l3 -76h-86l4 76q-49 -28 -69 -42l-47 80l78 36q-2 1 -7 2.5t-7 3.5l-64 29l47 79l68 -41l-2 37q-1 12 -1 39h86z" />
    <glyph glyph-name="at.small" horiz-adv-x="590" 
d="M506 73l29 -41q-39 -41 -101.5 -65t-124.5 -24q-124 0 -203 77t-79 199q0 120 80 195.5t196 75.5q67 0 119 -20.5t81.5 -54t44.5 -71.5t15 -77q0 -101 -53 -153t-117 -52q-39 0 -63 43q-38 -29 -72 -29q-111 0 -111 110q0 69 43 116.5t95 47.5q34 0 53 -35l7 30h78
l-34 -179q-5 -12 5.5 -22.5t23.5 -10.5q10 0 24.5 12t28.5 44t14 74q0 79 -54.5 120.5t-127.5 41.5q-86 0 -141.5 -57t-55.5 -149q0 -95 55 -155.5t150 -60.5q92 0 195 70zM301 283q-30 0 -50 -30t-20 -63q0 -19 7.5 -33.5t21.5 -14.5t30 11t18 29l18 79q2 12 -7.5 17
t-17.5 5z" />
    <glyph glyph-name="exclam.small" horiz-adv-x="227" 
d="M51 147l-14 337h153l-14 -337h-125zM39 0v109h149v-109h-149z" />
    <glyph glyph-name="question.small" horiz-adv-x="417" 
d="M221 305q18 15 18 39q0 16 -15 26t-30 10q-45 0 -84 -52l-77 60q18 36 62.5 69.5t114.5 33.5q80 0 132 -39t52 -111q0 -42 -28.5 -79.5t-67.5 -62.5q-2 -2 -5.5 -4.5t-5.5 -4t-4.5 -4t-3.5 -4.5t-3 -5.5t-2.5 -7.5t-1 -9.5t-0.5 -12.5h-143q0 32 0.5 47.5t9 31t13.5 20.5
t29 24.5t40 34.5zM126 0v109h149v-109h-149z" />
    <glyph glyph-name="exclamdown.small" horiz-adv-x="227" 
d="M37 -130l14 337h125l14 -337h-153zM39 245v109h149v-109h-149z" />
    <glyph glyph-name="questiondown.small" horiz-adv-x="356" 
d="M196 49q-18 -15 -18 -39q0 -16 15 -26t30 -10q45 0 84 52l77 -60q-18 -36 -62.5 -69.5t-114.5 -33.5q-80 0 -132 39t-52 111q0 77 96 142q2 2 5.5 4.5t5.5 4t4.5 4t3.5 4.5t3 5.5t2.5 7.5t1 9.5t0.5 12.5h143q0 -32 -0.5 -47.5t-9 -31t-13.5 -20.5t-29 -24.5t-40 -34.5z
M291 354v-109h-149v109h149z" />
    <glyph glyph-name="emdash.small" horiz-adv-x="569" 
d="M37 246h495v-118h-495v118z" />
    <glyph glyph-name="endash.small" horiz-adv-x="462" 
d="M37 246h388v-118h-388v118z" />
    <glyph glyph-name="guillemotleft.small" horiz-adv-x="451" 
d="M151 233l97 -169h-115l-96 169l96 171h115zM317 233l97 -169h-115l-96 169l96 171h115z" />
    <glyph glyph-name="guillemotright.small" horiz-adv-x="451" 
d="M203 64l97 169l-97 171h115l96 -171l-96 -169h-115zM37 64l97 169l-97 171h115l96 -171l-96 -169h-115z" />
    <glyph glyph-name="guilsinglleft.small" horiz-adv-x="285" 
d="M151 233l97 -169h-115l-96 169l96 171h115z" />
    <glyph glyph-name="guilsinglright.small" horiz-adv-x="285" 
d="M37 64l97 169l-97 171h115l96 -171l-96 -169h-115z" />
    <glyph glyph-name="periodcentered.small" horiz-adv-x="217" 
d="M27 155v125h163v-125h-163z" />
    <glyph glyph-name="iacute.small" horiz-adv-x="254" 
d="M37 0v484h180v-484h-180zM37 554l79 154h173l-122 -154h-130z" />
    </font>
</defs>
</svg>
