<?xml version="1.0" standalone="no"?>
<!DOCTYPE svg PUBLIC "-//W3C//DTD SVG 1.1//EN" "http://www.w3.org/Graphics/SVG/1.1/DTD/svg11.dtd" >
<svg>
<metadata>
Created by FontForge 20120731 at Tue Dec 15 21:05:29 2015
 By ,,,
Copyright (c) 2013 Parachute, www.parachute.gr.  All rights reserved.
</metadata>
<defs>
<font id="PFBagueSansPro-LightItalic" horiz-adv-x="0" >
  <font-face 
    font-family="PF Bague Sans Pro"
    font-weight="300"
    font-style="italic"
    font-stretch="normal"
    units-per-em="1000"
    panose-1="2 0 5 6 0 0 0 9 0 3"
    ascent="800"
    descent="-200"
    x-height="445"
    cap-height="662"
    bbox="-495 -246 1716 902"
    underline-thickness="40"
    underline-position="-60"
    slope="-12"
    unicode-range="U+0020-FB06"
  />
<missing-glyph horiz-adv-x="445" 
d="M469 0h-434v699h434v-699zM413 33l-161 285l-161 -285h322zM413 665h-322l161 -285zM436 637l-163 -288l163 -287v575zM68 63l163 286l-163 287v-573z" />
    <glyph glyph-name="fj" unicode="fj" horiz-adv-x="448" 
d="M167 -227l-19 52q67 2 99 36.5t42 108.5l55 428h-184l-72 -504h-55l72 504h-80l6 37l81 10l14 100q27 180 192 180q76 0 122 -31l-7 -52q-59 36 -125 36q-109 0 -126 -128l-15 -105h239l-62 -476q-26 -189 -177 -196z" />
    <glyph glyph-name="ffj" unicode="ffj" horiz-adv-x="698" 
d="M594 398h-184l-72 -507h-55l73 508h-195l-84 -599h-55l84 599h-80l5 36l81 10l11 81q13 85 60.5 132.5t132.5 47.5q70 0 120 -30q50 49 133 49q77 0 121 -31l-7 -52q-58 36 -124 36q-110 0 -127 -128l-15 -105h239l-62 -476q-26 -189 -177 -196l-19 52q67 2 99 36.5
t42 108.5zM362 445l14 100q8 53 29 91q-48 23 -100 23q-106 0 -126 -128l-12 -86h195z" />
    <glyph glyph-name="f_t" unicode="ft" horiz-adv-x="546" 
d="M379 713l-3 -50q-34 14 -78 14q-99 0 -116 -128l-15 -104h190l51 134h24l-19 -134h125l-7 -47h-125l-38 -271q-6 -43 6 -63t48 -20q43 0 86 28l-8 -52q-41 -29 -92 -29q-63 0 -84 33.5t-12 102.5l38 271h-190l-80 -598h-55l80 598h-80l6 37l81 10l14 99q26 180 182 180
q36 0 71 -11z" />
    <glyph glyph-name="ff" unicode="ff" horiz-adv-x="526" 
d="M31 435l81 10l11 79q27 180 192 180q74 0 121 -31q47 50 128 50q36 0 69 -11l-7 -50q-33 14 -72 14q-97 0 -117 -128l-15 -103h134l-6 -46h-134l-73 -525h-55l73 525h-200l-82 -599h-55l82 599h-80zM167 445h200l14 98q7 54 27 90q-48 24 -103 24q-106 0 -126 -128z" />
    <glyph glyph-name="fi" unicode="fi" horiz-adv-x="446" 
d="M406 445l-62 -445h-56l55 398h-183l-81 -598h-55l81 598h-80l6 37l81 10l14 100q27 180 192 180q76 0 122 -31l-7 -52q-59 36 -125 36q-109 0 -126 -128l-15 -105h239z" />
    <glyph glyph-name="fl" unicode="fl" horiz-adv-x="447" 
d="M167 445h121l-7 -47h-121l-86 -598h-55l86 598h-80l6 37l81 10l14 100q27 180 192 180q76 0 122 -31l-97 -694h-56l93 666q-32 12 -72 12q-109 0 -126 -128z" />
    <glyph glyph-name="ffi" unicode="ffi" horiz-adv-x="703" 
d="M432 550l-15 -105h244l-62 -445h-56l55 398h-188l-71 -524h-55l72 525h-195l-85 -599h-55l85 599h-80l5 36l81 10l11 81q13 85 60.5 132.5t132.5 47.5q70 0 120 -30q50 49 133 49q77 0 121 -31l-7 -52q-58 36 -124 36q-110 0 -127 -128zM362 445l14 100q8 53 29 91
q-48 23 -100 23q-106 0 -126 -128l-12 -86h195z" />
    <glyph glyph-name="ffl" unicode="ffl" horiz-adv-x="702" 
d="M413 445h121l-7 -47h-121l-72 -524h-55l72 524h-191l-84 -598h-55l84 598h-80l6 37l81 10l11 81q13 85 60.5 132.5t132.5 47.5q70 0 119 -30q52 49 135 49q81 0 125 -31l-97 -694h-56l93 666q-31 12 -75 12q-115 0 -132 -128zM167 445h191l14 100q9 57 31 92
q-44 22 -98 22q-106 0 -126 -128z" />
    <glyph glyph-name="longs_t" unicode="&#x17f;t" horiz-adv-x="517" 
d="M182 549l-105 -749h-55l84 599h-80l5 36l81 10l14 99q26 180 185 180q67 0 113 -31l-7 -52q-59 36 -116 36q-102 0 -119 -128zM330 445l52 134h23l-19 -134h124l-7 -47h-124l-38 -271q-14 -61 24.5 -78t115.5 25l-8 -54q-44 -29 -92 -29q-63 0 -84 33.5t-12 102.5l38 271
h-74l6 37z" />
    <glyph glyph-name=".notdef" horiz-adv-x="445" 
d="M469 0h-434v699h434v-699zM413 33l-161 285l-161 -285h322zM413 665h-322l161 -285zM436 637l-163 -288l163 -287v575zM68 63l163 286l-163 287v-573z" />
    <glyph glyph-name=".null" 
 />
    <glyph glyph-name="nonmarkingreturn" horiz-adv-x="333" 
 />
    <glyph glyph-name="space" unicode=" " horiz-adv-x="235" 
 />
    <glyph glyph-name="exclam" unicode="!" horiz-adv-x="269" 
d="M227 690l-84 -538h-41l64 538h61zM111 81q17 0 27.5 -11t10.5 -28q0 -21 -15.5 -36t-35.5 -15q-16 0 -27 10.5t-11 27.5q0 21 15.5 36.5t35.5 15.5z" />
    <glyph glyph-name="quotedbl" unicode="&#x22;" horiz-adv-x="276" 
d="M268 682l-29 -209h-48l29 209h48zM177 682l-29 -209h-48l29 209h48z" />
    <glyph glyph-name="numbersign" unicode="#" horiz-adv-x="529" 
d="M399 452l64 176h40q-17 -46 -63 -176h78l-5 -36h-87l-63 -176h87l-5 -36h-95l-71 -204h-41l73 204h-158l-72 -204h-40l39 110l34 94h-83l5 36h90l27 76l36 100h-92l5 36h99l65 176h39l-63 -176h157zM386 416h-157l-63 -176h157q36 95 63 176z" />
    <glyph glyph-name="dollar" unicode="$" horiz-adv-x="529" 
d="M239 -96h-47l13 92q-103 4 -165 51l8 57q76 -61 171 -61q81 0 128 41.5t47 110.5q0 75 -98 123l-27 13.5t-28.5 14.5t-26 14.5t-27 17t-22.5 17.5t-20.5 20.5t-14.5 22t-11 26.5t-3 29q0 81 53 123q52 41 130 46l13 95h47l-13 -94q70 -3 129 -36l-9 -60q-62 48 -144 48
q-27 0 -51.5 -6t-47.5 -19t-37 -38.5t-14 -60.5q0 -53 99 -102q38 -18 62.5 -32.5t56 -38.5t47 -55t15.5 -68q0 -85 -58 -137q-59 -53 -142 -60z" />
    <glyph glyph-name="percent" unicode="%" horiz-adv-x="699" 
d="M201 359q-61 0 -96.5 35.5t-35.5 93.5q0 75 52 127q53 54 124 54q57 0 93 -37t36 -94q0 -74 -52 -126q-51 -53 -121 -53zM238 625q-52 0 -86 -40q-34 -38 -34 -92q0 -41 24 -66t65 -25q49 0 83 39q34 40 34 90q0 40 -24 67t-62 27zM483 -6q-62 0 -97 34.5t-35 92.5
q0 76 52 129q53 54 123 54q58 0 94 -36t36 -93q0 -74 -51 -128q-51 -53 -122 -53zM520 260q-48 0 -84 -39q-35 -40 -35 -91q0 -42 23.5 -67.5t64.5 -25.5q50 0 83 40q34 40 34 91q0 40 -24 66t-62 26zM632 681h46l-594 -700h-46z" />
    <glyph glyph-name="ampersand" unicode="&#x26;" horiz-adv-x="667" 
d="M623 -16l-51 -34q-81 52 -146 109q-95 -74 -211 -74q-78 0 -123 39.5t-45 105.5t45 127q47 64 128 95q-14 50 -14 90q0 88 55 152q56 65 161 65q66 0 123 -25v-57q-59 32 -130 32q-80 0 -116 -50q-35 -50 -35 -110q0 -152 171 -320q75 79 131 241l41 -34
q-59 -154 -139 -238q59 -55 155 -114zM228 34q86 0 163 56q-110 110 -155 217q-58 -19 -96 -69q-36 -50 -36 -101q0 -48 34.5 -75.5t89.5 -27.5z" />
    <glyph glyph-name="quotesingle" unicode="'" horiz-adv-x="195" 
d="M182 682l-29 -209h-49l29 209h49z" />
    <glyph glyph-name="parenleft" unicode="(" horiz-adv-x="284" 
d="M300 737l31 -12q-202 -244 -202 -515q0 -169 82 -326l-36 -13q-98 161 -98 352q0 270 223 514z" />
    <glyph glyph-name="parenright" unicode=")" horiz-adv-x="284" 
d="M91 725l35 12q103 -163 103 -344q0 -131 -60 -270t-162 -252l-32 13q201 250 201 516q0 171 -85 325z" />
    <glyph glyph-name="asterisk" unicode="*" horiz-adv-x="430" 
d="M288 527l101 -49l-38 -52l-86 71l-3 -121h-57l30 120l-108 -71l-22 52l115 48l-102 50l36 51l86 -70l5 119h58l-30 -119l106 70l22 -51z" />
    <glyph glyph-name="plus" unicode="+" horiz-adv-x="529" 
d="M453 276h-163l-23 -169h-45l23 169h-164l7 45h164l23 167h45l-23 -167h163z" />
    <glyph glyph-name="comma" unicode="," horiz-adv-x="170" 
d="M11 41q3 19 18.5 33t34.5 14q18 0 29 -12.5t8 -33.5q-3 -27 -33 -82q-27 -55 -57 -100l-34 5l56 134q-25 10 -22 42z" />
    <glyph glyph-name="hyphen" unicode="-" horiz-adv-x="368" 
d="M304 217h-249l7 53h249z" />
    <glyph glyph-name="period" unicode="." horiz-adv-x="162" 
d="M56 84q18 0 28.5 -11t10.5 -29q0 -21 -15.5 -36t-35.5 -15q-17 0 -28 11t-11 27q0 22 15.5 37.5t35.5 15.5z" />
    <glyph glyph-name="slash" unicode="/" horiz-adv-x="291" 
d="M393 690l-427 -778h-44l425 778h46z" />
    <glyph glyph-name="zero" unicode="0" horiz-adv-x="529" 
d="M316 671q112 0 156 -79q39 -68 39 -168q0 -15 -2 -55q-6 -77 -30 -157q-14 -45 -34 -82.5t-50 -70.5t-73 -51.5t-94 -18.5q-191 0 -191 241q0 16 2 58q8 88 30 160q28 97 88.5 160t158.5 63zM314 623q-115 0 -173 -137q-26 -60 -40 -153q-7 -52 -7 -102q0 -194 139 -194
q56 0 101 34t68 85q21 44 35 109q19 93 19 163q0 195 -142 195z" />
    <glyph glyph-name="one" unicode="1" horiz-adv-x="529" 
d="M341 666h14l-93 -666h-55l81 577l-170 -109l9 61z" />
    <glyph glyph-name="two" unicode="2" horiz-adv-x="518" 
d="M266 671q76 0 120.5 -44t44.5 -115q0 -69 -37.5 -145.5t-98.5 -141.5q-102 -110 -205 -177h285l-6 -48h-404l2 13q41 27 88 60q47 35 105 85q65 56 107 105q45 53 77 115q33 64 33 121q0 60 -31 91t-85 31q-45 0 -94.5 -20t-89.5 -54l9 60q85 64 180 64z" />
    <glyph glyph-name="three" unicode="3" horiz-adv-x="529" 
d="M144 356l-8 11l235 244v4h-291l6 46h389l-1 -13l-235 -240q84 0 133.5 -44.5t49.5 -117.5q0 -114 -77 -185q-76 -70 -186 -70q-118 0 -186 58l9 64q73 -73 185 -73q85 0 141 56t56 138q0 64 -41 97t-113 33q-31 0 -66 -8z" />
    <glyph glyph-name="four" unicode="4" horiz-adv-x="529" 
d="M380 403l55 69h9l-35 -251h89l-7 -46h-89l-24 -175h-54l24 175h-350l2 13l404 474h68l-377 -441h260z" />
    <glyph glyph-name="five" unicode="5" horiz-adv-x="529" 
d="M278 409q82 0 138 -44t56 -126q0 -113 -80 -181q-79 -67 -185 -67q-116 0 -183 58l10 65q27 -33 76 -54t104 -21q87 0 143 55q58 55 58 138q0 63 -41 96t-112 33q-81 0 -160 -46l-14 5l91 341h331l-6 -45h-282l-61 -228q49 21 117 21z" />
    <glyph glyph-name="six" unicode="6" horiz-adv-x="529" 
d="M121 381l205 280h61l-211 -286l5 -1q41 33 115 33q82 0 132 -48t50 -126q0 -105 -73 -175q-73 -69 -177 -69q-90 0 -142.5 47t-52.5 128q0 98 88 217zM282 360q-79 0 -136 -51t-57 -136q0 -62 38.5 -99.5t107.5 -37.5q83 0 135 55q53 56 53 135q0 61 -38 97.5t-103 36.5z
" />
    <glyph glyph-name="seven" unicode="7" horiz-adv-x="529" 
d="M488 647l-374 -647h-55l356 615h-328l6 46h397z" />
    <glyph glyph-name="eight" unicode="8" horiz-adv-x="529" 
d="M325 672q72 0 121 -41q49 -40 49 -108q0 -55 -32.5 -101.5t-83.5 -64.5l-1 -3q96 -40 96 -142q0 -100 -72 -161q-70 -61 -173 -61q-88 0 -141 43t-53 115q0 67 38.5 121t103.5 77l1 4q-73 36 -73 122q0 87 65 143q66 57 155 57zM276 326q-80 0 -133 -48q-53 -47 -53 -117
q0 -56 39 -90.5t107 -34.5q82 0 132 49q51 49 51 121q0 54 -38.5 87t-104.5 33zM318 623q-67 0 -112 -42q-45 -41 -45 -103q0 -47 33.5 -76.5t88.5 -29.5q63 0 109 41q46 40 46 102q0 48 -33 78t-87 30z" />
    <glyph glyph-name="nine" unicode="9" horiz-adv-x="529" 
d="M323 671q89 0 140 -47t51 -126q0 -95 -86 -216l-205 -282h-61l211 287l-3 3q-46 -35 -116 -35q-81 0 -131 48t-50 126q0 104 73 173q74 69 177 69zM269 303q78 0 134 50q55 51 55 137q0 61 -37.5 97.5t-104.5 36.5q-83 0 -135 -55q-53 -55 -53 -133q0 -60 38 -96.5
t103 -36.5z" />
    <glyph glyph-name="colon" unicode=":" horiz-adv-x="188" 
d="M114 395q18 0 28.5 -11t10.5 -29q0 -20 -16 -35t-36 -15q-16 0 -27 10.5t-11 26.5q0 22 15.5 37.5t35.5 15.5zM69 85q17 0 28 -10.5t11 -27.5q0 -21 -15 -36.5t-36 -15.5q-16 0 -27 11t-11 28q0 21 15.5 36t34.5 15z" />
    <glyph glyph-name="semicolon" unicode=";" horiz-adv-x="200" 
d="M124 395q17 0 28 -11.5t11 -28.5q0 -20 -16 -35t-36 -15q-17 0 -27.5 10.5t-10.5 26.5q0 22 15 37.5t36 15.5zM21 41q3 19 18.5 33t34.5 14q18 0 29 -12.5t8 -33.5q-3 -27 -33 -82q-27 -55 -57 -100l-34 5l56 134q-25 10 -22 42z" />
    <glyph glyph-name="less" unicode="&#x3c;" horiz-adv-x="529" 
d="M170 298l269 -161l-8 -54l-351 210l1 9l410 209l-7 -55z" />
    <glyph glyph-name="equal" unicode="=" horiz-adv-x="529" 
d="M477 399l-7 -45h-383l7 45h383zM454 237l-6 -44h-383l6 44h383z" />
    <glyph glyph-name="greater" unicode="&#x3e;" horiz-adv-x="529" 
d="M461 293l-411 -210l8 54l314 161l-269 158l7 55l352 -209z" />
    <glyph glyph-name="question" unicode="?" horiz-adv-x="482" 
d="M448 544q0 -49 -25.5 -96t-66.5 -82q-17 -14 -56 -45t-58 -48t-36.5 -41.5t-17.5 -45.5q0 -14 8 -32l-57 -16q-8 29 -8 46q0 69 91 139q5 4 24.5 18.5t27 20t24.5 19.5t25 22t21.5 22t19.5 25t13.5 24.5t10 27.5t2.5 29q0 49 -34 78.5t-96 29.5q-66 0 -147 -38l8 58
q54 26 112.5 31.5t106.5 -8.5t78.5 -50t29.5 -88zM162 80q18 0 28 -10.5t10 -27.5q0 -21 -15.5 -36t-35.5 -15q-17 0 -27 10.5t-10 26.5q0 22 15 37t35 15z" />
    <glyph glyph-name="at" unicode="@" horiz-adv-x="877" 
d="M595 506h33l-39 -279q-1 -3 -1 -15q0 -55 56 -55q52 0 93 65q42 64 42 167q0 111 -76 172q-77 62 -192 62q-156 0 -271 -110q-114 -109 -114 -267q0 -124 73 -198q74 -74 196 -74q95 0 174 40l-9 -52q-75 -32 -164 -32q-148 0 -233 85q-86 86 -86 226q0 183 129 304
q129 123 309 123q137 0 224 -75q88 -75 88 -204q0 -120 -56 -196q-55 -75 -135 -75q-41 0 -65.5 20t-24.5 58q0 9 1 12h-2q-26 -42 -67.5 -65t-84.5 -23q-74 0 -111.5 43.5t-37.5 115.5q0 105 58 170q58 66 143 66q95 0 132 -87zM446 472q-70 0 -110 -55q-41 -56 -41 -129
q0 -58 27 -91.5t80 -33.5q66 0 110 53t44 134q0 55 -29 88.5t-81 33.5z" />
    <glyph glyph-name="A" unicode="A" horiz-adv-x="600" 
d="M550 0h-57l-42 161h-322l-87 -161h-62l372 665h14zM346 545h-4l-185 -335h280z" />
    <glyph glyph-name="B" unicode="B" horiz-adv-x="592" 
d="M324 330h-173l-39 -277h183q41 0 73 11t50.5 28t31 39.5t17 42t4.5 39.5q0 54 -39.5 85.5t-107.5 31.5zM368 610h-178l-32 -229h169q22 0 45 6t48.5 19.5t41.5 42.5t16 69q0 43 -28.5 67.5t-81.5 24.5zM428 361v-4q103 -28 103 -141q0 -96 -67 -156q-66 -60 -163 -60
h-253l93 662h229q79 0 123 -35.5t44 -105.5q0 -52 -28.5 -94.5t-80.5 -65.5z" />
    <glyph glyph-name="C" unicode="C" horiz-adv-x="599" 
d="M552 96l-8 -57q-81 -48 -198 -48q-139 0 -212 76q-74 77 -74 201q0 120 55 214q54 92 140.5 141.5t189.5 49.5t159 -33l-3 -58q-64 39 -157 39q-83 0 -157 -41q-73 -40 -120 -122t-47 -184q0 -107 62.5 -169t177.5 -62q94 0 192 53z" />
    <glyph glyph-name="D" unicode="D" horiz-adv-x="666" 
d="M345 610h-155l-78 -557h160q136 0 214 94q79 94 79 242q0 102 -56.5 161.5t-163.5 59.5zM275 0h-227l93 662h217q127 0 197 -73.5t70 -203.5q0 -172 -98 -279q-97 -106 -252 -106z" />
    <glyph glyph-name="E" unicode="E" horiz-adv-x="545" 
d="M113 53h374l-7 -53h-432l93 662h406l-8 -52h-348l-33 -234h324l-7 -52h-324z" />
    <glyph glyph-name="F" unicode="F" horiz-adv-x="506" 
d="M147 303l-42 -303h-57l93 662h408l-8 -52h-351l-36 -255h322l-7 -52h-322z" />
    <glyph glyph-name="G" unicode="G" horiz-adv-x="652" 
d="M450 674q108 0 166 -37l-4 -58q-72 42 -168 42q-83 0 -157 -41q-73 -40 -120 -122t-47 -184q0 -108 62 -169.5t177 -61.5q75 0 148 29l35 254h56l-41 -293q-90 -42 -220 -42q-134 0 -206 79q-71 80 -71 202q0 173 114 287q114 115 276 115z" />
    <glyph glyph-name="H" unicode="H" horiz-adv-x="655" 
d="M629 662l-93 -662h-56l45 324h-375l-45 -324h-57l93 662h57l-41 -286h375l41 286h56z" />
    <glyph glyph-name="I" unicode="I" horiz-adv-x="243" 
d="M208 662l-93 -662h-57l93 662h57z" />
    <glyph glyph-name="J" unicode="J" horiz-adv-x="436" 
d="M112 44q84 0 126 47.5t55 142.5l61 428h57l-59 -418q-16 -115 -64 -180q-54 -74 -175 -74q-31 0 -74 8q-39 7 -62 22l9 61q22 -17 58.5 -27t67.5 -10z" />
    <glyph glyph-name="K" unicode="K" horiz-adv-x="568" 
d="M141 662h57l-45 -314l363 314h70l-361 -318l299 -344h-81l-291 339l-47 -339h-57z" />
    <glyph glyph-name="L" unicode="L" horiz-adv-x="502" 
d="M48 0l93 662h57l-86 -609h352l-7 -53h-409z" />
    <glyph glyph-name="M" unicode="M" horiz-adv-x="799" 
d="M695 511l-303 -358h-14l-202 369l-2 -3l-72 -519h-54l93 667h15l237 -438l366 438h14l-93 -667h-54l71 509z" />
    <glyph glyph-name="N" unicode="N" horiz-adv-x="707" 
d="M179 542l-76 -542h-55l94 671h15l389 -546h4l76 537h55l-94 -669h-14l-391 549h-3z" />
    <glyph glyph-name="O" unicode="O" horiz-adv-x="752" 
d="M431 671q132 0 206 -80t74 -210q0 -164 -107 -277q-106 -112 -260 -112q-131 0 -206 78q-75 80 -75 207q0 162 107 278t261 116zM429 619q-127 0 -216 -101t-89 -239q0 -105 58 -170q58 -66 161 -66q131 0 219 97q89 98 89 240q0 104 -60 171q-60 68 -162 68z" />
    <glyph glyph-name="P" unicode="P" horiz-adv-x="555" 
d="M105 0h-58l92 661h213q96 0 147 -51.5t51 -136.5q0 -111 -78 -176q-77 -64 -183 -64h-152zM325 613h-134l-47 -332h141q53 0 93.5 17.5t64 46.5t35 62t11.5 68q0 64 -40 101t-124 37z" />
    <glyph glyph-name="Q" unicode="Q" horiz-adv-x="752" 
d="M431 671q132 0 206 -80t74 -210q0 -140 -79 -244q-78 -103 -201 -135l237 -55l-27 -62l-347 111q-108 13 -170 90q-61 76 -61 191q0 162 107 278t261 116zM429 619q-126 0 -215 -101q-88 -100 -88 -239q0 -104 57 -170q59 -66 160 -66q126 0 215 98q90 98 90 239
q0 104 -59 172q-58 67 -160 67z" />
    <glyph glyph-name="R" unicode="R" horiz-adv-x="565" 
d="M318 252l203 -252h-73l-213 276l2 12q128 2 193 59q65 59 65 135q0 60 -40.5 94.5t-108.5 34.5h-156l-85 -611h-58l92 661h222q80 0 135 -46q57 -45 57 -128q0 -87 -66 -155q-67 -67 -169 -80z" />
    <glyph glyph-name="S" unicode="S" horiz-adv-x="475" 
d="M5 44l8 62q81 -63 177 -63q83 0 133 37t50 107q0 38 -21.5 67.5t-54 47.5t-70 37.5t-70 37.5t-54 47.5t-21.5 67.5q0 46 20.5 82.5t53 57t68.5 30.5t71 10q94 0 159 -41l-9 -62q-65 50 -150 50q-59 0 -106 -30q-46 -28 -46 -92q0 -57 102 -106q34 -16 52.5 -25.5
t48.5 -29t46 -37.5t28.5 -45t12.5 -58q0 -104 -70 -155q-71 -51 -174 -51q-111 0 -184 54z" />
    <glyph glyph-name="T" unicode="T" horiz-adv-x="513" 
d="M556 662l-8 -52h-212l-85 -610h-58l85 610h-213l8 52h483z" />
    <glyph glyph-name="U" unicode="U" horiz-adv-x="662" 
d="M539 246l59 416h56l-60 -422q-16 -117 -88.5 -183.5t-194.5 -66.5q-116 0 -171.5 69.5t-38.5 189.5l57 413h56l-58 -412q-13 -98 27.5 -152t135.5 -54q97 0 152 53t68 149z" />
    <glyph glyph-name="V" unicode="V" horiz-adv-x="558" 
d="M605 660l-354 -667h-14l-170 667h55l136 -539h5l284 539h58z" />
    <glyph glyph-name="W" unicode="W" horiz-adv-x="868" 
d="M574 -7l-102 527h-4l-247 -527h-14l-141 667h56l108 -526h5l248 531h12l101 -531h5l256 526h57l-329 -667h-11z" />
    <glyph glyph-name="X" unicode="X" horiz-adv-x="594" 
d="M549 0h-71l-170 332l-259 -332h-74l279 345l-170 316h60l165 -304l247 304h68l-260 -319z" />
    <glyph glyph-name="Y" unicode="Y" horiz-adv-x="529" 
d="M127 662l156 -311h4l227 311h63l-268 -367l-41 -295h-57l41 295l-184 367h59z" />
    <glyph glyph-name="Z" unicode="Z" horiz-adv-x="490" 
d="M117 662h408l-2 -12l-440 -598h359l-7 -52h-450l1 9l444 601h-321z" />
    <glyph glyph-name="bracketleft" unicode="[" horiz-adv-x="252" 
d="M170 -120h-149l120 853h149l-6 -42h-99l-108 -769h99z" />
    <glyph glyph-name="backslash" unicode="\" horiz-adv-x="291" 
d="M76 690l208 -778h-45l-209 778h46z" />
    <glyph glyph-name="bracketright" unicode="]" horiz-adv-x="252" 
d="M97 733h149l-120 -853h-149l6 42h99l108 769h-99z" />
    <glyph glyph-name="asciicircum" unicode="^" horiz-adv-x="464" 
d="M299 659l154 -310h-54l-120 241l-190 -241h-51l243 310h18z" />
    <glyph glyph-name="underscore" unicode="_" horiz-adv-x="500" 
d="M443 -120h-489l5 37h489z" />
    <glyph glyph-name="grave" unicode="`" horiz-adv-x="460" 
d="M235 679l88 -148h-42l-102 133z" />
    <glyph glyph-name="a" unicode="a" horiz-adv-x="539" 
d="M274 408q-82 0 -131 -67q-48 -66 -48 -155q0 -71 32 -110.5t94 -39.5q79 0 132 63q53 64 53 160q0 67 -35 108t-97 41zM211 -11q-86 0 -130 54q-43 53 -43 133q0 124 67 200q68 77 170 77t149 -86q3 0 4 1l25 77h36l-62 -445h-41l-3 67l-3 1q-67 -79 -169 -79z" />
    <glyph glyph-name="b" unicode="b" horiz-adv-x="537" 
d="M25 0l100 711h54l-50 -341l4 -2q67 88 171 88q92 0 139 -54q48 -54 48 -133q0 -127 -70 -203q-69 -75 -173 -75q-53 0 -95 24t-63 69h-6l-23 -84h-36zM242 39q89 0 139 62q51 62 51 155q0 71 -33.5 112t-98.5 41q-82 0 -136 -63t-54 -154q0 -68 35 -110t97 -43z" />
    <glyph glyph-name="c" unicode="c" horiz-adv-x="417" 
d="M368 73l-8 -54q-53 -29 -134 -29q-92 0 -140 56q-48 57 -48 143q0 118 73 191q73 75 183 75q65 0 107 -20l-8 -54q-37 26 -98 26q-87 0 -145 -61q-58 -59 -58 -161q0 -66 40.5 -106t109.5 -40q74 0 126 34z" />
    <glyph glyph-name="d" unicode="d" horiz-adv-x="545" 
d="M433 375l48 336h54l-99 -711h-41v70l-1 1l-2 1q-62 -80 -176 -80q-86 0 -132 54q-46 55 -46 132q0 122 69 199q69 78 166 78q111 0 155 -81zM229 38q81 0 134 63q53 65 53 161q0 67 -35 106.5t-99 39.5q-88 0 -137 -63q-50 -64 -50 -156q0 -70 34.5 -110.5t99.5 -40.5z
" />
    <glyph glyph-name="e" unicode="e" horiz-adv-x="461" 
d="M282 454q69 0 109 -35t40 -88q0 -62 -66 -101.5t-194 -39.5q-49 0 -74 3q-1 -3 -1 -16q0 -65 33.5 -102t97.5 -37q101 0 175 62l-10 -59q-76 -51 -168 -51q-90 0 -138 50.5t-48 139.5q0 114 69 194t175 80zM281 404q-67 0 -115 -44.5t-64 -119.5q38 -5 78 -5
q94 0 143 26.5t49 67.5q0 34 -23.5 54.5t-67.5 20.5z" />
    <glyph glyph-name="f" unicode="f" horiz-adv-x="289" 
d="M379 713l-2 -51q-42 15 -79 15q-99 0 -116 -128l-15 -104h133l-7 -47h-133l-80 -598h-55l80 598h-80l5 34l82 13l14 99q26 180 182 180q36 0 71 -11z" />
    <glyph glyph-name="g" unicode="g" horiz-adv-x="489" 
d="M145 -217q-81 0 -122.5 31t-41.5 81q0 38 24 76.5t64 64.5l-15 2q-25 3 -34.5 11t-9.5 26q0 11 1 14l93 75q-34 34 -34 94q0 80 57 138q58 58 140 58q31 0 66 -11h144l-5 -35l-88 -10q33 -34 33 -91q0 -76 -59 -132q-58 -55 -138 -55q-58 0 -89 24l-63 -61l213 -24
q107 -12 107 -88q0 -55 -57 -117q-29 -32 -78.5 -51.5t-107.5 -19.5zM227 165q59 0 98 41q40 40 40 97q0 46 -29 75.5t-75 29.5q-57 0 -98 -42q-40 -41 -40 -101q0 -45 28 -72.5t76 -27.5zM273 13l-172 20q-27 -25 -44.5 -59.5t-17.5 -66.5q0 -77 112 -77q87 0 133 45
q48 43 48 88q0 42 -59 50z" />
    <glyph glyph-name="h" unicode="h" horiz-adv-x="514" 
d="M444 266l-37 -266h-56l35 255q21 150 -93 150q-65 0 -115 -57t-63 -148l-30 -200h-56l99 711h55l-51 -345h4q72 89 167 89q81 0 117 -49t24 -140z" />
    <glyph glyph-name="i" unicode="i" horiz-adv-x="222" 
d="M163 616q14 0 23 -9.5t9 -23.5q0 -18 -13 -31t-30 -13q-16 0 -25 9t-9 23q0 17 13.5 31t31.5 14zM165 445l-62 -445h-56l62 445h56z" />
    <glyph glyph-name="j" unicode="j" horiz-adv-x="206" 
d="M156 616q14 0 23 -9.5t9 -23.5q0 -18 -13 -31t-30 -13q-15 0 -24 9t-9 23q0 18 13 31.5t31 13.5zM-86 -227l-24 53q67 2 101 37t44 107l67 475h55l-67 -476q-14 -96 -55 -140.5t-121 -55.5z" />
    <glyph glyph-name="k" unicode="k" horiz-adv-x="458" 
d="M377 444h79l-278 -212l240 -232h-76l-228 227l-31 -227h-54l99 711h54l-66 -471z" />
    <glyph glyph-name="l" unicode="l" horiz-adv-x="199" 
d="M193 711l-99 -711h-56l99 711h56z" />
    <glyph glyph-name="m" unicode="m" horiz-adv-x="800" 
d="M729 276l-38 -276h-55l38 272q18 134 -92 134q-58 0 -101.5 -45.5t-55.5 -131.5l-32 -229h-56l38 272q9 65 -13.5 99.5t-72.5 34.5q-58 0 -106 -54t-60 -142l-29 -210h-56l62 444h38v-78q1 -1 3 -1q67 90 157 90q51 0 85 -23.5t45 -65.5q31 43 74.5 66t85.5 23
q82 0 117.5 -47t23.5 -132z" />
    <glyph glyph-name="n" unicode="n" horiz-adv-x="524" 
d="M453 266l-37 -266h-56l35 255q21 150 -93 150q-66 0 -115 -57q-50 -57 -63 -148l-30 -200h-56l62 445h42l-1 -79h4q72 89 167 89q81 0 117 -49t24 -140z" />
    <glyph glyph-name="o" unicode="o" horiz-adv-x="521" 
d="M287 455q89 0 138.5 -53.5t49.5 -143.5q0 -112 -69 -191q-68 -78 -176 -78q-91 0 -141.5 53t-50.5 142q0 114 69 192q69 79 180 79zM286 406q-84 0 -136 -64q-52 -62 -52 -156q0 -68 34.5 -109t98.5 -41q84 0 136 64q53 65 53 155q0 67 -36 109t-98 42z" />
    <glyph glyph-name="p" unicode="p" horiz-adv-x="527" 
d="M86 70l-42 -285h-54l93 660h41v-70q0 -1 1 -1l2 -1q62 80 176 80q86 0 132 -55q46 -53 46 -131q0 -122 -69 -200q-69 -77 -166 -77q-112 0 -155 81zM290 407q-82 0 -134 -64q-53 -64 -53 -160q0 -67 35 -106.5t99 -39.5q87 0 137 63q50 64 50 156q0 70 -34.5 110.5
t-99.5 40.5z" />
    <glyph glyph-name="q" unicode="q" horiz-adv-x="542" 
d="M504 445l-92 -660h-54l42 290l-4 2q-67 -88 -171 -88q-92 0 -140 54q-47 55 -47 133q0 127 69 202q70 76 174 76q53 0 95 -24t63 -69h6l23 84h36zM287 406q-85 0 -137 -63q-53 -64 -53 -154q0 -71 33.5 -112t98.5 -41q82 0 136 63t54 154q0 68 -35 110t-97 43z" />
    <glyph glyph-name="r" unicode="r" horiz-adv-x="304" 
d="M327 451v-61q-24 7 -49 7q-66 0 -107 -57.5t-54 -161.5l-23 -178h-56l62 444h37v-92q0 -1 2 -1q21 49 59.5 76.5t88.5 27.5q23 0 40 -4z" />
    <glyph glyph-name="s" unicode="s" horiz-adv-x="362" 
d="M-7 29l4 56q58 -48 136 -48q121 0 121 88q0 25 -21 45t-50.5 34t-59 29t-50.5 39t-21 55q0 66 48 97q47 31 111 31q67 0 121 -30l-7 -55q-62 38 -113 38q-102 0 -102 -76q0 -26 31.5 -47.5t69.5 -36t69.5 -45t31.5 -71.5q0 -70 -52 -106q-53 -35 -128 -35q-80 0 -139 38z
" />
    <glyph glyph-name="t" unicode="t" horiz-adv-x="314" 
d="M125 445l52 134h23l-19 -134h124l-7 -47h-124l-38 -271q-14 -61 24.5 -78t115.5 25l-8 -54q-44 -29 -92 -29q-63 0 -84 33.5t-12 102.5l38 271h-74l6 37z" />
    <glyph glyph-name="u" unicode="u" horiz-adv-x="511" 
d="M74 179l37 266h56l-35 -255q-21 -150 93 -150q64 0 107.5 56t58.5 149l30 200h56l-62 -445h-42l1 79h-4q-62 -89 -155 -89q-81 0 -117 49t-24 140z" />
    <glyph glyph-name="v" unicode="v" horiz-adv-x="438" 
d="M450 445l-270 -451h-10l-140 451h60l100 -339h5l196 339h59z" />
    <glyph glyph-name="w" unicode="w" horiz-adv-x="685" 
d="M169 111l190 334h9l98 -334h4l173 334h54l-241 -451h-10l-98 335h-3l-192 -335h-11l-112 451h57l79 -334h3z" />
    <glyph glyph-name="x" unicode="x" horiz-adv-x="436" 
d="M388 0h-64l-117 216l-173 -216h-69l191 228l-119 217h60l113 -205l163 205h68l-181 -216z" />
    <glyph glyph-name="y" unicode="y" horiz-adv-x="422" 
d="M85 445l94 -366h5l196 366h59l-361 -660h-58l126 230l-120 430h59z" />
    <glyph glyph-name="z" unicode="z" horiz-adv-x="390" 
d="M64 445h328l-2 -12l-326 -387h268l-6 -46h-356l1 11l330 388h-243z" />
    <glyph glyph-name="braceleft" unicode="{" horiz-adv-x="282" 
d="M127 337l-1 -5q55 -36 29 -159l-25 -178q-11 -74 33 -74h38l-6 -44h-47q-36 0 -54 18t-17.5 44t3.5 54l29 218q15 106 -45 119l1 13q65 14 78 113l23 149q5 46 22 84q20 47 76 47h52l-6 -43h-36q-27 0 -39.5 -18t-16.5 -55l-23 -163q-14 -98 -68 -120z" />
    <glyph glyph-name="bar" unicode="|" horiz-adv-x="253" 
d="M187 -138h-50v897h50v-897z" />
    <glyph glyph-name="braceright" unicode="}" horiz-adv-x="282" 
d="M179 332l1 5q-48 21 -34 120l23 163q6 38 -1.5 55.5t-34.5 17.5h-37l6 43h52q37 0 53 -22q7 -8 10.5 -18t4 -22.5t0 -21t-2 -24.5t-2.5 -23l-21 -150q-13 -100 45 -113l-3 -15q-62 -14 -77 -119l-30 -215q-8 -49 -25 -77q-23 -39 -78 -39h-47l6 44h39q44 0 55 74l25 178
q10 71 24.5 105.5t48.5 53.5z" />
    <glyph glyph-name="asciitilde" unicode="~" horiz-adv-x="480" 
d="M444 373l29 -30q-54 -85 -132 -85q-35 0 -104 32t-90 32q-44 0 -93 -64l-28 30q59 86 131 86q37 0 104 -33q69 -32 90 -32q25 0 45 14.5t48 49.5z" />
    <glyph glyph-name="uni00A0" unicode="&#xa0;" horiz-adv-x="235" 
 />
    <glyph glyph-name="exclamdown" unicode="&#xa1;" horiz-adv-x="269" 
d="M35 -243l87 538h41l-67 -538h-61zM164 456q16 0 26.5 -10.5t10.5 -27.5q0 -21 -14.5 -36.5t-35.5 -15.5q-16 0 -27 11t-11 28q0 21 16 36t35 15z" />
    <glyph glyph-name="cent" unicode="&#xa2;" horiz-adv-x="529" 
d="M283 -30h-47l15 104q-75 9 -116 62.5t-41 134.5q0 106 62 179q63 73 160 85l15 109h47l-15 -107q57 -1 94 -20l-8 -54q-37 26 -98 26q-87 0 -145 -61q-58 -59 -58 -161q0 -66 40.5 -106t109.5 -40q74 0 126 34l-8 -54q-41 -24 -118 -29z" />
    <glyph glyph-name="sterling" unicode="&#xa3;" horiz-adv-x="529" 
d="M512 649l-7 -50q-47 19 -88 19q-64 0 -107 -40t-55 -123l-13 -99h180l-6 -41h-180q-12 -74 -39 -149q-26 -76 -66 -119h301l-6 -47h-383l1 12q110 104 137 303h-80l6 41h80l14 100q6 49 25.5 90t44.5 63q63 57 151 57q51 0 90 -17z" />
    <glyph glyph-name="currency" unicode="&#xa4;" horiz-adv-x="540" 
d="M116 286q0 58 36 112l-51 52l42 40l50 -52q55 38 111 38q60 0 113 -39l51 50l40 -39l-52 -53q36 -50 36 -109q0 -58 -36 -110l53 -51l-41 -41l-52 50q-54 -36 -112 -36q-57 0 -112 36l-47 -50l-42 41l50 48q-37 46 -37 113zM168 285q0 -55 40 -95t95 -40q57 0 96 39
q39 41 39 96q0 57 -39 97t-96 40q-56 0 -96 -40q-39 -40 -39 -97z" />
    <glyph glyph-name="yen" unicode="&#xa5;" horiz-adv-x="529" 
d="M497 322l-5 -37h-421l5 37h161l-137 340h60l120 -327h3l223 327h58l-236 -340h169zM57 191l6 37h421l-6 -37h-185l-27 -191h-56l26 191h-179z" />
    <glyph glyph-name="brokenbar" unicode="&#xa6;" horiz-adv-x="252" 
d="M186 759v-345h-49v345h49zM137 -138v417h49v-417h-49z" />
    <glyph glyph-name="section" unicode="&#xa7;" horiz-adv-x="542" 
d="M356 711q72 0 124 -29l-8 -54q-55 34 -120 34q-55 0 -89 -22.5t-34 -63.5q0 -30 25 -54.5t60.5 -43.5t71.5 -39t61 -51.5t25 -71.5q0 -48 -30.5 -89t-80.5 -62q50 -42 50 -94q0 -70 -56 -114q-55 -45 -139 -45q-49 0 -97.5 13.5t-74.5 31.5l9 58q75 -51 156 -51
q57 0 97 24q41 23 41 74q0 33 -25.5 60.5t-62.5 48t-73.5 42t-62 53.5t-25.5 71q0 45 28 82.5t81 61.5q-38 44 -38 86q0 64 52 104t135 40zM296 422l-55 33q-82 -33 -82 -104q0 -49 50 -83q3 -2 22 -14t34 -21q45 -27 60 -38q87 43 87 108q0 25 -17 48t-40 37q-15 10 -59 34
z" />
    <glyph glyph-name="dieresis" unicode="&#xa8;" horiz-adv-x="460" 
d="M196 623q30 0 30 -31q0 -19 -11.5 -31t-28.5 -12q-15 0 -24 8.5t-9 22.5q0 16 13 29.5t30 13.5zM352 623q31 0 31 -31q0 -18 -12 -30.5t-29 -12.5q-32 0 -32 30q0 17 12.5 30.5t29.5 13.5z" />
    <glyph glyph-name="copyright" unicode="&#xa9;" horiz-adv-x="838" 
d="M596 173v-42q-50 -29 -129 -29q-112 0 -175 64t-63 173q0 105 68 176q69 70 171 70q64 0 110 -21v-44q-45 24 -105 24q-82 0 -138 -56t-56 -149q0 -85 54 -141t139 -56q72 0 124 31zM812 351q0 -149 -106 -255t-255 -106t-255 106t-106 255q0 153 106 256
q106 105 260 105q147 0 251 -107q105 -107 105 -254zM770 351q0 131 -93 226t-222 95q-136 0 -230 -94q-93 -93 -93 -227q0 -133 93 -227q94 -94 226 -94t225 94q94 94 94 227z" />
    <glyph glyph-name="ordfeminine" unicode="&#xaa;" horiz-adv-x="341" 
d="M329 430l-21 -132h-30v59q-38 -65 -116 -65q-58 0 -88.5 34.5t-30.5 90.5q0 81 45 131q46 49 117 49q76 0 102 -62l14 55h33zM204 559q-52 0 -84 -41q-30 -40 -30 -95q0 -91 79 -91q51 0 86 39q34 38 34 98q0 40 -22.5 65t-62.5 25z" />
    <glyph glyph-name="guillemotleft" unicode="&#xab;" horiz-adv-x="403" 
d="M255 381l-159 -180l108 -185h-62l-106 178l1 9l159 178h59zM385 381l-159 -180l108 -185h-61l-107 178l1 9l160 178h58z" />
    <glyph glyph-name="logicalnot" unicode="&#xac;" horiz-adv-x="529" 
d="M88 321h372l-30 -214h-46l23 169h-326z" />
    <glyph glyph-name="sfthyphen" unicode="&#xad;" horiz-adv-x="368" 
d="M304 217h-249l7 53h249z" />
    <glyph glyph-name="registered" unicode="&#xae;" horiz-adv-x="607" 
d="M367 436l97 -112h-49l-105 128v9q99 1 99 55q0 58 -69 58h-55v-250h-36v283h95q42 0 72 -23.5t30 -63.5q0 -30 -21 -53t-58 -31zM338 223q-107 0 -173 68q-65 68 -65 170q0 98 70 168q71 71 168 71q103 0 170 -70q69 -71 69 -169q0 -99 -70 -169q-71 -69 -169 -69z
M338 665q-86 0 -144 -60q-58 -58 -58 -144q0 -87 57 -145q57 -59 145 -59q85 0 143 60q60 60 60 144t-60 144q-58 60 -143 60z" />
    <glyph glyph-name="overscore" unicode="&#xaf;" horiz-adv-x="460" 
d="M396 552h-259l7 48h259z" />
    <glyph glyph-name="degree" unicode="&#xb0;" horiz-adv-x="409" 
d="M261 652q47 0 75.5 -28.5t28.5 -73.5q0 -57 -40 -97t-97 -40q-47 0 -74 27t-27 71q0 55 41 98q40 43 93 43zM256 612q-35 0 -61 -29t-26 -64q0 -29 17.5 -48.5t46.5 -19.5q39 0 65.5 27.5t26.5 64.5q0 30 -18.5 49.5t-50.5 19.5z" />
    <glyph glyph-name="plusminus" unicode="&#xb1;" horiz-adv-x="529" 
d="M43 0l6 46h372l-6 -46h-372zM452 264h-163l-23 -161h-45l23 161h-164l6 45h164l22 159h45l-22 -159h163z" />
    <glyph glyph-name="twosuperior" unicode="&#xb2;" horiz-adv-x="333" 
d="M211 777q52 0 81.5 -26t29.5 -70q0 -48 -37 -100q-34 -49 -71 -82.5t-90 -69.5h164l-4 -40h-273l1 10q265 156 265 272q0 65 -69 65q-59 0 -128 -51l10 53q64 39 121 39z" />
    <glyph glyph-name="threesuperior" unicode="&#xb3;" horiz-adv-x="333" 
d="M110 595l-4 8l137 130h-161l5 40h243l-1 -8l-145 -137q53 0 84.5 -28t31.5 -75q0 -65 -47 -103t-108 -38q-81 0 -124 36l7 51q52 -49 116 -49q47 0 77.5 29.5t30.5 72.5q0 37 -25.5 56t-69.5 19q-30 0 -47 -4z" />
    <glyph glyph-name="acute" unicode="&#xb4;" horiz-adv-x="460" 
d="M411 661l-129 -130h-46l119 148z" />
    <glyph glyph-name="mu" unicode="&#xb5;" horiz-adv-x="506" 
d="M4 -215l92 660h54l-39 -286q-8 -57 15.5 -87.5t74.5 -30.5q67 0 112.5 45t57.5 129l32 230h56l-62 -445h-43l-2 64q0 1 -2 1q-72 -75 -156 -75q-74 0 -102 37l-34 -242h-54z" />
    <glyph glyph-name="mu" unicode="&#x3bc;" horiz-adv-x="506" 
d="M4 -215l92 660h54l-39 -286q-8 -57 15.5 -87.5t74.5 -30.5q67 0 112.5 45t57.5 129l32 230h56l-62 -445h-43l-2 64q0 1 -2 1q-72 -75 -156 -75q-74 0 -102 37l-34 -242h-54z" />
    <glyph glyph-name="paragraph" unicode="&#xb6;" horiz-adv-x="517" 
d="M387 690l-51 -363h-77q-69 0 -112 43.5t-43 110.5q0 85 61 146q61 63 145 63h77zM436 690h59l-93 -664q-27 -193 -185 -202l-18 51q70 2 101.5 40.5t43.5 118.5z" />
    <glyph glyph-name="middot" unicode="&#xb7;" horiz-adv-x="188" 
d="M100 296q18 0 28.5 -11t10.5 -29q0 -21 -16 -36.5t-36 -15.5q-17 0 -28 10.5t-11 27.5q0 22 15.5 38t36.5 16z" />
    <glyph glyph-name="cedilla" unicode="&#xb8;" horiz-adv-x="418" 
d="M129 -93l-13 8l57 105h40l-43 -70q51 -1 76 -19t25 -48q0 -41 -38 -70t-89 -29q-38 0 -78 17l5 42q37 -18 78 -18q32 0 50 13.5t18 34.5q0 18 -16 28t-40 10q-20 0 -32 -4z" />
    <glyph glyph-name="onesuperior" unicode="&#xb9;" horiz-adv-x="279" 
d="M220 778h8l-55 -389h-47l45 316q-19 -12 -53 -27t-53 -27l7 47z" />
    <glyph glyph-name="ordmasculine" unicode="&#xba;" horiz-adv-x="359" 
d="M225 603q63 0 98.5 -36t35.5 -96q0 -73 -48 -126q-48 -52 -124 -52q-65 0 -101 35t-36 96q0 74 48 126q50 53 127 53zM224 559q-53 0 -87 -38t-34 -96q0 -41 22 -66t62 -25q54 0 88 40q35 41 35 95q0 40 -23.5 65t-62.5 25z" />
    <glyph glyph-name="guillemotright" unicode="&#xbb;" horiz-adv-x="403" 
d="M203 16h-62l161 185l-110 180h59l109 -178l-1 -9zM73 16h-62l160 185l-109 180h59l109 -178l-1 -9z" />
    <glyph glyph-name="onequarter" unicode="&#xbc;" horiz-adv-x="735" 
d="M328 104l237 276h52l-216 -251h133l13 94l39 46h13l-20 -140h56l-5 -39h-56l-13 -92h-45l13 92h-203zM247 687h8l-55 -389h-47l45 316q-15 -10 -53 -27t-53 -27l7 47zM645 681h46l-592 -700h-46z" />
    <glyph glyph-name="onehalf" unicode="&#xbd;" horiz-adv-x="735" 
d="M229 687h8l-55 -389h-47l45 316q-15 -10 -53 -27t-53 -27l7 47zM565 387q52 0 81.5 -26t29.5 -70q0 -48 -37 -100q-34 -49 -71 -82.5t-90 -69.5h164l-4 -40h-273l1 10q265 156 265 272q0 65 -69 65q-59 0 -128 -51l10 53q64 39 121 39zM605 681h46l-592 -700h-46z" />
    <glyph glyph-name="threequarters" unicode="&#xbe;" horiz-adv-x="735" 
d="M359 104l237 276h52l-216 -251h133l13 94l39 46h13l-20 -140h56l-5 -39h-56l-13 -92h-45l13 92h-203zM133 504l-4 8l137 130h-161l5 40h243l-1 -8l-145 -137q53 0 84.5 -28t31.5 -75q0 -65 -47 -103t-108 -38q-80 0 -124 36l7 51q52 -49 116 -49q47 0 77.5 29.5
t30.5 72.5q0 37 -25.5 56t-69.5 19q-30 0 -47 -4zM680 681h46l-592 -700h-46z" />
    <glyph glyph-name="questiondown" unicode="&#xbf;" horiz-adv-x="482" 
d="M216 -246q-74 0 -127 39q-51 39 -51 109q0 98 92 177q18 15 55.5 45.5t57.5 47.5t37.5 41.5t17.5 44.5t-7 34l57 16q7 -21 7 -43q0 -34 -19 -65.5t-48 -55t-62.5 -50.5t-62.5 -51.5t-48 -58.5t-19 -71q0 -48 34.5 -77t95.5 -29q66 0 148 38l-8 -58q-76 -33 -150 -33z
M337 455q16 0 26.5 -10.5t10.5 -27.5q0 -21 -14.5 -36t-34.5 -15q-18 0 -28.5 10.5t-10.5 27.5q0 21 15.5 36t35.5 15z" />
    <glyph glyph-name="Agrave" unicode="&#xc0;" horiz-adv-x="600" 
d="M550 0h-57l-42 161h-322l-87 -161h-62l372 665h14zM346 545h-4l-185 -335h280zM272 870l99 -137h-47l-118 119z" />
    <glyph glyph-name="Aacute" unicode="&#xc1;" horiz-adv-x="600" 
d="M550 0h-57l-42 161h-322l-87 -161h-62l372 665h14zM346 545h-4l-185 -335h280zM521 844l-144 -111h-50l131 129z" />
    <glyph glyph-name="Acircumflex" unicode="&#xc2;" horiz-adv-x="600" 
d="M550 0h-57l-42 161h-322l-87 -161h-62l372 665h14zM346 545h-4l-185 -335h280zM387 856l113 -133h-66l-60 74l-93 -74h-66l156 133h16z" />
    <glyph glyph-name="Atilde" unicode="&#xc3;" horiz-adv-x="600" 
d="M550 0h-57l-42 161h-322l-87 -161h-62l372 665h14zM346 545h-4l-185 -335h280zM490 860l23 -31q-34 -70 -88 -70q-23 0 -61 24t-53 24q-29 0 -61 -54l-26 31q39 71 91 71q25 0 62 -24q39 -24 53 -24q28 0 60 53z" />
    <glyph glyph-name="Adieresis" unicode="&#xc4;" horiz-adv-x="600" 
d="M550 0h-57l-42 161h-322l-87 -161h-62l372 665h14zM346 545h-4l-185 -335h280zM296 832q13 0 21.5 -8.5t8.5 -22.5q0 -18 -12 -30.5t-28 -12.5q-15 0 -24.5 8.5t-9.5 22.5q0 16 13.5 29.5t30.5 13.5zM452 832q31 0 31 -31q0 -18 -12 -30.5t-29 -12.5q-15 0 -24 8.5
t-9 22.5q0 16 13 29.5t30 13.5z" />
    <glyph glyph-name="Aring" unicode="&#xc5;" horiz-adv-x="600" 
d="M550 0h-57l-42 161h-322l-87 -161h-62l372 665h14zM346 545h-4l-185 -335h280zM380 870q34 0 55 -21t21 -54q0 -41 -30 -69q-29 -29 -70 -29q-35 0 -54.5 18.5t-19.5 51.5q0 42 29.5 72.5t68.5 30.5zM376 836q-24 0 -41.5 -19t-17.5 -43q0 -19 12 -31.5t32 -12.5
q26 0 42.5 18t16.5 43q0 19 -12 32t-32 13z" />
    <glyph glyph-name="AE" unicode="&#xc6;" horiz-adv-x="936" 
d="M886 53l-6 -53h-432l19 161h-298l-148 -161h-68l614 662h358l-7 -52h-342l-28 -234h323l-5 -52h-323l-32 -271h375zM509 526h-4l-291 -316h258z" />
    <glyph glyph-name="Ccedilla" unicode="&#xc7;" horiz-adv-x="599" 
d="M261 -98l-13 8l46 85q-112 14 -173 87t-61 186q0 120 55 214q54 92 140.5 141.5t189.5 49.5t159 -33l-3 -58q-64 39 -157 39q-83 0 -157 -41q-73 -40 -120 -122t-47 -184q0 -107 62.5 -169t177.5 -62q94 0 192 53l-8 -57q-81 -48 -198 -48h-16l-28 -46q51 -1 76 -19
t25 -48q0 -41 -38 -70t-89 -29q-38 0 -78 17l5 42q37 -18 78 -18q32 0 50 13.5t18 34.5q0 18 -16 28t-40 10q-20 0 -32 -4z" />
    <glyph glyph-name="Egrave" unicode="&#xc8;" horiz-adv-x="545" 
d="M113 53h374l-7 -53h-432l93 662h406l-8 -52h-348l-33 -234h324l-7 -52h-324zM309 870l99 -137h-47l-118 119z" />
    <glyph glyph-name="Eacute" unicode="&#xc9;" horiz-adv-x="545" 
d="M113 53h374l-7 -53h-432l93 662h406l-8 -52h-348l-33 -234h324l-7 -52h-324zM481 844l-144 -111h-50l131 129z" />
    <glyph glyph-name="Ecircumflex" unicode="&#xca;" horiz-adv-x="545" 
d="M113 53h374l-7 -53h-432l93 662h406l-8 -52h-348l-33 -234h324l-7 -52h-324zM368 861l113 -133h-66l-60 74l-93 -74h-66l156 133h16z" />
    <glyph glyph-name="Edieresis" unicode="&#xcb;" horiz-adv-x="545" 
d="M113 53h374l-7 -53h-432l93 662h406l-8 -52h-348l-33 -234h324l-7 -52h-324zM271 832q13 0 21.5 -8.5t8.5 -22.5q0 -18 -12 -30.5t-28 -12.5q-15 0 -24.5 8.5t-9.5 22.5q0 16 13.5 29.5t30.5 13.5zM427 832q31 0 31 -31q0 -18 -12 -30.5t-29 -12.5q-15 0 -24 8.5t-9 22.5
q0 16 13 29.5t30 13.5z" />
    <glyph glyph-name="Igrave" unicode="&#xcc;" horiz-adv-x="243" 
d="M208 662l-93 -662h-57l93 662h57zM124 870l99 -137h-47l-118 119z" />
    <glyph glyph-name="Iacute" unicode="&#xcd;" horiz-adv-x="243" 
d="M208 662l-93 -662h-57l93 662h57zM335 844l-144 -111h-50l131 129z" />
    <glyph glyph-name="Icircumflex" unicode="&#xce;" horiz-adv-x="243" 
d="M218 861l113 -133h-66l-60 74l-93 -74h-66l156 133h16zM208 662l-93 -662h-57l93 662h57z" />
    <glyph glyph-name="Idieresis" unicode="&#xcf;" horiz-adv-x="243" 
d="M122 832q13 0 21.5 -8.5t8.5 -22.5q0 -18 -12 -30.5t-28 -12.5q-15 0 -24.5 8.5t-9.5 22.5q0 16 13.5 29.5t30.5 13.5zM278 832q31 0 31 -31q0 -18 -12 -30.5t-29 -12.5q-15 0 -24 8.5t-9 22.5q0 16 13 29.5t30 13.5zM208 662l-93 -662h-57l93 662h57z" />
    <glyph glyph-name="Eth" unicode="&#xd0;" horiz-adv-x="666" 
d="M275 0h-227l44 318h-61l7 51h61l42 293h217q127 0 197 -73.5t70 -203.5q0 -172 -98 -279q-97 -106 -252 -106zM351 610h-161l-34 -241h215l-7 -51h-215l-37 -265h166q136 0 214 94q79 94 79 242q0 102 -56.5 161.5t-163.5 59.5z" />
    <glyph glyph-name="Ntilde" unicode="&#xd1;" horiz-adv-x="707" 
d="M179 542l-76 -542h-55l94 671h15l389 -546h4l76 537h55l-94 -669h-14l-391 549h-3zM550 848l23 -31q-34 -70 -88 -70q-23 0 -61 24t-53 24q-29 0 -61 -54l-26 31q39 71 91 71q25 0 62 -24q39 -24 53 -24q28 0 60 53z" />
    <glyph glyph-name="Ograve" unicode="&#xd2;" horiz-adv-x="752" 
d="M431 671q132 0 206 -80t74 -210q0 -164 -107 -277q-106 -112 -260 -112q-131 0 -206 78q-75 80 -75 207q0 162 107 278t261 116zM429 619q-127 0 -216 -101t-89 -239q0 -105 58 -170q58 -66 161 -66q131 0 219 97q89 98 89 240q0 104 -60 171q-60 68 -162 68zM397 870
l99 -137h-47l-118 119z" />
    <glyph glyph-name="Oacute" unicode="&#xd3;" horiz-adv-x="752" 
d="M431 671q132 0 206 -80t74 -210q0 -164 -107 -277q-106 -112 -260 -112q-131 0 -206 78q-75 80 -75 207q0 162 107 278t261 116zM429 619q-127 0 -216 -101t-89 -239q0 -105 58 -170q58 -66 161 -66q131 0 219 97q89 98 89 240q0 104 -60 171q-60 68 -162 68zM605 844
l-144 -111h-50l131 129z" />
    <glyph glyph-name="Ocircumflex" unicode="&#xd4;" horiz-adv-x="752" 
d="M483 861l113 -133h-66l-60 74l-93 -74h-66l156 133h16zM431 671q132 0 206 -80t74 -210q0 -164 -107 -277q-106 -112 -260 -112q-131 0 -206 78q-75 80 -75 207q0 162 107 278t261 116zM429 619q-127 0 -216 -101t-89 -239q0 -105 58 -170q58 -66 161 -66q131 0 219 97
q89 98 89 240q0 104 -60 171q-60 68 -162 68z" />
    <glyph glyph-name="Otilde" unicode="&#xd5;" horiz-adv-x="752" 
d="M431 671q132 0 206 -80t74 -210q0 -164 -107 -277q-106 -112 -260 -112q-131 0 -206 78q-75 80 -75 207q0 162 107 278t261 116zM429 619q-127 0 -216 -101t-89 -239q0 -105 58 -170q58 -66 161 -66q131 0 219 97q89 98 89 240q0 104 -60 171q-60 68 -162 68zM581 861
l23 -31q-34 -70 -88 -70q-24 0 -62 24q-37 24 -52 24q-30 0 -61 -54l-26 31q39 71 91 71q24 0 62 -24q39 -24 53 -24q28 0 60 53z" />
    <glyph glyph-name="Odieresis" unicode="&#xd6;" horiz-adv-x="752" 
d="M431 671q132 0 206 -80t74 -210q0 -164 -107 -277q-106 -112 -260 -112q-131 0 -206 78q-75 80 -75 207q0 162 107 278t261 116zM429 619q-127 0 -216 -101t-89 -239q0 -105 58 -170q58 -66 161 -66q131 0 219 97q89 98 89 240q0 104 -60 171q-60 68 -162 68zM381 832
q13 0 21.5 -8.5t8.5 -22.5q0 -18 -12 -30.5t-28 -12.5q-15 0 -24.5 8.5t-9.5 22.5q0 16 13.5 29.5t30.5 13.5zM537 832q31 0 31 -31q0 -18 -12 -30.5t-29 -12.5q-15 0 -24 8.5t-9 22.5q0 16 13 29.5t30 13.5z" />
    <glyph glyph-name="multiply" unicode="&#xd7;" horiz-adv-x="529" 
d="M365 142l-97 117l-135 -120l-27 33l134 120l-99 118l36 32l99 -118l129 117l29 -34l-131 -116l99 -117z" />
    <glyph glyph-name="Oslash" unicode="&#xd8;" horiz-adv-x="752" 
d="M431 671q109 0 183 -60l44 51h54l-68 -79q67 -77 67 -202q0 -164 -107 -277q-106 -112 -260 -112q-100 0 -167 46l-33 -38h-55l55 64q-81 78 -81 213q0 162 107 278t261 116zM429 619q-126 0 -215 -101q-88 -100 -88 -239q0 -105 57 -170l392 457q-59 53 -146 53z
M648 380q0 90 -45 155l-389 -454q55 -38 129 -38q126 0 215 98q90 98 90 239z" />
    <glyph glyph-name="Ugrave" unicode="&#xd9;" horiz-adv-x="662" 
d="M539 246l59 416h56l-60 -422q-16 -117 -88.5 -183.5t-194.5 -66.5q-116 0 -171.5 69.5t-38.5 189.5l57 413h56l-58 -412q-13 -98 27.5 -152t135.5 -54q97 0 152 53t68 149zM360 870l99 -137h-47l-118 119z" />
    <glyph glyph-name="Uacute" unicode="&#xda;" horiz-adv-x="662" 
d="M539 246l59 416h56l-60 -422q-16 -117 -88.5 -183.5t-194.5 -66.5q-116 0 -171.5 69.5t-38.5 189.5l57 413h56l-58 -412q-13 -98 27.5 -152t135.5 -54q97 0 152 53t68 149zM552 844l-144 -111h-50l131 129z" />
    <glyph glyph-name="Ucircumflex" unicode="&#xdb;" horiz-adv-x="662" 
d="M539 246l59 416h56l-60 -422q-16 -117 -88.5 -183.5t-194.5 -66.5q-116 0 -171.5 69.5t-38.5 189.5l57 413h56l-58 -412q-13 -98 27.5 -152t135.5 -54q97 0 152 53t68 149zM438 861l113 -133h-66l-60 74l-93 -74h-66l156 133h16z" />
    <glyph glyph-name="Udieresis" unicode="&#xdc;" horiz-adv-x="662" 
d="M539 246l59 416h56l-60 -422q-16 -117 -88.5 -183.5t-194.5 -66.5q-116 0 -171.5 69.5t-38.5 189.5l57 413h56l-58 -412q-13 -98 27.5 -152t135.5 -54q97 0 152 53t68 149zM342 832q13 0 21.5 -8.5t8.5 -22.5q0 -18 -12 -30.5t-28 -12.5q-15 0 -24.5 8.5t-9.5 22.5
q0 16 13.5 29.5t30.5 13.5zM498 832q31 0 31 -31q0 -18 -12 -30.5t-29 -12.5q-15 0 -24 8.5t-9 22.5q0 16 13 29.5t30 13.5z" />
    <glyph glyph-name="Yacute" unicode="&#xdd;" horiz-adv-x="529" 
d="M127 662l156 -311h4l227 311h63l-268 -367l-41 -295h-57l41 295l-184 367h59zM477 837l-144 -111h-50l131 129z" />
    <glyph glyph-name="Thorn" unicode="&#xde;" horiz-adv-x="552" 
d="M183 559h178q81 0 129.5 -49.5t48.5 -129.5q0 -24 -6 -51t-23 -58.5t-43 -56.5t-70 -41.5t-100 -16.5h-171l-21 -156h-57l93 662h57zM342 507h-166l-42 -300h167q77 0 128 48q52 48 52 123q0 57 -34.5 93t-104.5 36z" />
    <glyph glyph-name="germandbls" unicode="&#xdf;" horiz-adv-x="545" 
d="M329 724q74 0 118.5 -39.5t44.5 -104.5q0 -48 -26 -89t-72 -67l-1 -5q48 -16 76.5 -60.5t28.5 -104.5q0 -114 -70 -187q-71 -74 -186 -74q-21 0 -56 5l-5 52q30 -8 61 -8q84 0 142 58q59 59 59 157q0 68 -43 102.5t-113 34.5l6 47q39 0 69 15t44.5 37.5t21.5 43t7 37.5
q0 47 -31.5 75t-78.5 28q-88 0 -129 -61q-32 -48 -40 -107l-71 -509h-56l71 508q14 98 75 156q61 60 154 60z" />
    <glyph glyph-name="agrave" unicode="&#xe0;" horiz-adv-x="539" 
d="M274 408q-82 0 -131 -67q-48 -66 -48 -155q0 -71 32 -110.5t94 -39.5q79 0 132 63q53 64 53 160q0 67 -35 108t-97 41zM211 -11q-86 0 -130 54q-43 53 -43 133q0 124 67 200q68 77 170 77t149 -86q3 0 4 1l25 77h36l-62 -445h-41l-3 67l-3 1q-67 -79 -169 -79zM241 679
l88 -148h-42l-102 133z" />
    <glyph glyph-name="aacute" unicode="&#xe1;" horiz-adv-x="539" 
d="M274 408q-82 0 -131 -67q-48 -66 -48 -155q0 -71 32 -110.5t94 -39.5q79 0 132 63q53 64 53 160q0 67 -35 108t-97 41zM211 -11q-86 0 -130 54q-43 53 -43 133q0 124 67 200q68 77 170 77t149 -86q3 0 4 1l25 77h36l-62 -445h-41l-3 67l-3 1q-67 -79 -169 -79zM429 661
l-129 -130h-46l119 148z" />
    <glyph glyph-name="acircumflex" unicode="&#xe2;" horiz-adv-x="539" 
d="M274 408q-82 0 -131 -67q-48 -66 -48 -155q0 -71 32 -110.5t94 -39.5q79 0 132 63q53 64 53 160q0 67 -35 108t-97 41zM211 -11q-86 0 -130 54q-43 53 -43 133q0 124 67 200q68 77 170 77t149 -86q3 0 4 1l25 77h36l-62 -445h-41l-3 67l-3 1q-67 -79 -169 -79zM329 672
l110 -143h-59l-64 83l-95 -83h-62l155 143h15z" />
    <glyph glyph-name="atilde" unicode="&#xe3;" horiz-adv-x="539" 
d="M274 408q-82 0 -131 -67q-48 -66 -48 -155q0 -71 32 -110.5t94 -39.5q79 0 132 63q53 64 53 160q0 67 -35 108t-97 41zM211 -11q-86 0 -130 54q-43 53 -43 133q0 124 67 200q68 77 170 77t149 -86q3 0 4 1l25 77h36l-62 -445h-41l-3 67l-3 1q-67 -79 -169 -79zM429 647
l23 -31q-34 -70 -88 -70q-24 0 -62 24q-37 24 -52 24q-30 0 -61 -54l-26 31q39 71 91 71q24 0 62 -24q39 -24 53 -24q28 0 60 53z" />
    <glyph glyph-name="adieresis" unicode="&#xe4;" horiz-adv-x="539" 
d="M274 408q-82 0 -131 -67q-48 -66 -48 -155q0 -71 32 -110.5t94 -39.5q79 0 132 63q53 64 53 160q0 67 -35 108t-97 41zM211 -11q-86 0 -130 54q-43 53 -43 133q0 124 67 200q68 77 170 77t149 -86q3 0 4 1l25 77h36l-62 -445h-41l-3 67l-3 1q-67 -79 -169 -79zM233 623
q30 0 30 -31q0 -19 -11.5 -31t-28.5 -12q-15 0 -24 8.5t-9 22.5q0 16 13 29.5t30 13.5zM389 623q31 0 31 -31q0 -18 -12 -30.5t-29 -12.5q-32 0 -32 30q0 17 12.5 30.5t29.5 13.5z" />
    <glyph glyph-name="aring" unicode="&#xe5;" horiz-adv-x="539" 
d="M274 408q-82 0 -131 -67q-48 -66 -48 -155q0 -71 32 -110.5t94 -39.5q79 0 132 63q53 64 53 160q0 67 -35 108t-97 41zM211 -11q-86 0 -130 54q-43 53 -43 133q0 124 67 200q68 77 170 77t149 -86q3 0 4 1l25 77h36l-62 -445h-41l-3 67l-3 1q-67 -79 -169 -79zM326 697
q34 0 55 -21t21 -54q0 -40 -30 -69q-29 -29 -70 -29q-35 0 -54.5 18.5t-19.5 51.5q0 42 29.5 72.5t68.5 30.5zM322 663q-24 0 -41.5 -19t-17.5 -43q0 -19 12 -31.5t32 -12.5q26 0 42.5 18t16.5 43q0 19 -12 32t-32 13z" />
    <glyph glyph-name="ae" unicode="&#xe6;" horiz-adv-x="767" 
d="M588 454q69 0 109 -35t40 -88q0 -62 -66 -101.5t-194 -39.5q-49 0 -74 3q-1 -3 -1 -16q0 -65 33.5 -102t97.5 -37q101 0 175 62l-10 -59q-76 -51 -168 -51q-138 0 -175 112q-71 -113 -201 -113q-73 0 -109 32.5t-36 81.5q0 47 21.5 81.5t59.5 50.5q73 30 156 30h101l4 28
q8 55 -20.5 85t-88.5 30q-68 0 -150 -43l7 52q75 39 152 39q131 0 155 -90q72 88 182 88zM337 195l4 26h-96q-41 0 -81 -8q-40 -9 -68.5 -36t-28.5 -66q0 -35 28.5 -54t77.5 -19q67 0 109.5 43.5t54.5 113.5zM587 404q-67 0 -115 -44.5t-64 -119.5q38 -5 78 -5
q94 0 143 26.5t49 67.5q0 34 -23.5 54.5t-67.5 20.5z" />
    <glyph glyph-name="ccedilla" unicode="&#xe7;" horiz-adv-x="417" 
d="M146 -94l-13 8l44 81q-67 14 -103 66.5t-36 127.5q0 118 73 191q73 75 183 75q65 0 107 -20l-8 -54q-37 26 -98 26q-87 0 -145 -61q-58 -59 -58 -161q0 -66 40.5 -106t109.5 -40q74 0 126 34l-8 -54q-53 -29 -134 -29h-14l-25 -41q51 -1 76 -19t25 -48q0 -41 -38 -70
t-89 -29q-38 0 -78 17l5 42q38 -18 78 -18q32 0 50 13.5t18 34.5q0 18 -16 28t-40 10q-20 0 -32 -4z" />
    <glyph glyph-name="egrave" unicode="&#xe8;" horiz-adv-x="461" 
d="M282 454q69 0 109 -35t40 -88q0 -62 -66 -101.5t-194 -39.5q-49 0 -74 3q-1 -3 -1 -16q0 -65 33.5 -102t97.5 -37q101 0 175 62l-10 -59q-76 -51 -168 -51q-90 0 -138 50.5t-48 139.5q0 114 69 194t175 80zM281 404q-67 0 -115 -44.5t-64 -119.5q38 -5 78 -5
q94 0 143 26.5t49 67.5q0 34 -23.5 54.5t-67.5 20.5zM267 679l88 -148h-42l-102 133z" />
    <glyph glyph-name="eacute" unicode="&#xe9;" horiz-adv-x="461" 
d="M282 454q69 0 109 -35t40 -88q0 -62 -66 -101.5t-194 -39.5q-49 0 -74 3q-1 -3 -1 -16q0 -65 33.5 -102t97.5 -37q101 0 175 62l-10 -59q-76 -51 -168 -51q-90 0 -138 50.5t-48 139.5q0 114 69 194t175 80zM281 404q-67 0 -115 -44.5t-64 -119.5q38 -5 78 -5
q94 0 143 26.5t49 67.5q0 34 -23.5 54.5t-67.5 20.5zM437 661l-129 -130h-46l119 148z" />
    <glyph glyph-name="ecircumflex" unicode="&#xea;" horiz-adv-x="461" 
d="M282 454q69 0 109 -35t40 -88q0 -62 -66 -101.5t-194 -39.5q-49 0 -74 3q-1 -3 -1 -16q0 -65 33.5 -102t97.5 -37q101 0 175 62l-10 -59q-76 -51 -168 -51q-90 0 -138 50.5t-48 139.5q0 114 69 194t175 80zM281 404q-67 0 -115 -44.5t-64 -119.5q38 -5 78 -5
q94 0 143 26.5t49 67.5q0 34 -23.5 54.5t-67.5 20.5zM341 672l110 -143h-59l-64 83l-95 -83h-62l155 143h15z" />
    <glyph glyph-name="edieresis" unicode="&#xeb;" horiz-adv-x="461" 
d="M282 454q69 0 109 -35t40 -88q0 -62 -66 -101.5t-194 -39.5q-49 0 -74 3q-1 -3 -1 -16q0 -65 33.5 -102t97.5 -37q101 0 175 62l-10 -59q-76 -51 -168 -51q-90 0 -138 50.5t-48 139.5q0 114 69 194t175 80zM281 404q-67 0 -115 -44.5t-64 -119.5q38 -5 78 -5
q94 0 143 26.5t49 67.5q0 34 -23.5 54.5t-67.5 20.5zM234 623q30 0 30 -31q0 -19 -11.5 -31t-28.5 -12q-15 0 -24 8.5t-9 22.5q0 16 13 29.5t30 13.5zM390 623q31 0 31 -31q0 -18 -12 -30.5t-29 -12.5q-32 0 -32 30q0 17 12.5 30.5t29.5 13.5z" />
    <glyph glyph-name="igrave" unicode="&#xec;" horiz-adv-x="222" 
d="M165 445l-62 -445h-56l62 445h56zM83 679l88 -148h-42l-102 133z" />
    <glyph glyph-name="iacute" unicode="&#xed;" horiz-adv-x="222" 
d="M165 445l-62 -445h-56l62 445h56zM300 661l-129 -130h-46l119 148z" />
    <glyph glyph-name="icircumflex" unicode="&#xee;" horiz-adv-x="222" 
d="M179 672l110 -143h-59l-64 83l-95 -83h-62l155 143h15zM165 445l-62 -445h-56l62 445h56z" />
    <glyph glyph-name="idieresis" unicode="&#xef;" horiz-adv-x="222" 
d="M77 623q30 0 30 -31q0 -19 -11.5 -31t-28.5 -12q-15 0 -24 8.5t-9 22.5q0 16 13 29.5t30 13.5zM233 623q31 0 31 -31q0 -18 -12 -30.5t-29 -12.5q-32 0 -32 30q0 17 12.5 30.5t29.5 13.5zM165 445l-62 -445h-56l62 445h56z" />
    <glyph glyph-name="eth" unicode="&#xf0;" horiz-adv-x="539" 
d="M293 440q52 0 94 -24t59 -68l4 1q-7 109 -79 208l-105 -63l7 48l72 46q-49 52 -114 93l48 28q63 -36 112 -92l111 69l-8 -53l-77 -48q83 -119 83 -262q0 -56 -15.5 -112t-46 -106.5t-84.5 -82.5t-123 -32q-92 0 -143.5 50.5t-51.5 134.5q0 111 76 187q76 78 181 78z
M287 391q-84 0 -139 -61t-55 -147q0 -66 38.5 -106t106.5 -40q84 0 138 64q54 65 54 142q0 65 -39 106.5t-104 41.5z" />
    <glyph glyph-name="ntilde" unicode="&#xf1;" horiz-adv-x="524" 
d="M453 266l-37 -266h-56l35 255q21 150 -93 150q-66 0 -115 -57q-50 -57 -63 -148l-30 -200h-56l62 445h42l-1 -79h4q72 89 167 89q81 0 117 -49t24 -140zM422 645l23 -31q-34 -70 -88 -70q-23 0 -61 24t-53 24q-29 0 -61 -54l-26 31q39 71 91 71q25 0 62 -24
q39 -24 53 -24q28 0 60 53z" />
    <glyph glyph-name="ograve" unicode="&#xf2;" horiz-adv-x="521" 
d="M287 455q89 0 138.5 -53.5t49.5 -143.5q0 -112 -69 -191q-68 -78 -176 -78q-91 0 -141.5 53t-50.5 142q0 114 69 192q69 79 180 79zM286 406q-84 0 -136 -64q-52 -62 -52 -156q0 -68 34.5 -109t98.5 -41q84 0 136 64q53 65 53 155q0 67 -36 109t-98 42zM275 679l88 -148
h-42l-102 133z" />
    <glyph glyph-name="oacute" unicode="&#xf3;" horiz-adv-x="521" 
d="M287 455q89 0 138.5 -53.5t49.5 -143.5q0 -112 -69 -191q-68 -78 -176 -78q-91 0 -141.5 53t-50.5 142q0 114 69 192q69 79 180 79zM286 406q-84 0 -136 -64q-52 -62 -52 -156q0 -68 34.5 -109t98.5 -41q84 0 136 64q53 65 53 155q0 67 -36 109t-98 42zM453 661
l-129 -130h-46l119 148z" />
    <glyph glyph-name="ocircumflex" unicode="&#xf4;" horiz-adv-x="521" 
d="M353 672l110 -143h-59l-64 83l-95 -83h-62l155 143h15zM287 455q89 0 138.5 -53.5t49.5 -143.5q0 -112 -69 -191q-68 -78 -176 -78q-91 0 -141.5 53t-50.5 142q0 114 69 192q69 79 180 79zM286 406q-84 0 -136 -64q-52 -62 -52 -156q0 -68 34.5 -109t98.5 -41
q84 0 136 64q53 65 53 155q0 67 -36 109t-98 42z" />
    <glyph glyph-name="otilde" unicode="&#xf5;" horiz-adv-x="521" 
d="M287 455q89 0 138.5 -53.5t49.5 -143.5q0 -112 -69 -191q-68 -78 -176 -78q-91 0 -141.5 53t-50.5 142q0 114 69 192q69 79 180 79zM286 406q-84 0 -136 -64q-52 -62 -52 -156q0 -68 34.5 -109t98.5 -41q84 0 136 64q53 65 53 155q0 67 -36 109t-98 42zM436 645l23 -31
q-34 -70 -88 -70q-23 0 -61 24q-37 24 -53 24q-29 0 -61 -54l-26 31q39 71 91 71q25 0 62 -24q39 -24 53 -24q28 0 60 53z" />
    <glyph glyph-name="odieresis" unicode="&#xf6;" horiz-adv-x="521" 
d="M287 455q89 0 138.5 -53.5t49.5 -143.5q0 -112 -69 -191q-68 -78 -176 -78q-91 0 -141.5 53t-50.5 142q0 114 69 192q69 79 180 79zM286 406q-84 0 -136 -64q-52 -62 -52 -156q0 -68 34.5 -109t98.5 -41q84 0 136 64q53 65 53 155q0 67 -36 109t-98 42zM246 623
q30 0 30 -31q0 -19 -11.5 -31t-28.5 -12q-15 0 -24 8.5t-9 22.5q0 16 13 29.5t30 13.5zM402 623q31 0 31 -31q0 -18 -12 -30.5t-29 -12.5q-32 0 -32 30q0 17 12.5 30.5t29.5 13.5z" />
    <glyph glyph-name="divide" unicode="&#xf7;" horiz-adv-x="529" 
d="M296 475q16 0 26.5 -10t10.5 -26q0 -20 -14.5 -35.5t-33.5 -15.5q-16 0 -27 11t-11 27q0 20 15 34.5t34 14.5zM459 323l-7 -47h-369l7 47h369zM258 206q17 0 27.5 -10.5t10.5 -26.5q0 -19 -15.5 -34t-33.5 -15q-16 0 -27 11t-11 26q0 20 14.5 34.5t34.5 14.5z" />
    <glyph glyph-name="oslash" unicode="&#xf8;" horiz-adv-x="521" 
d="M287 455q81 0 130 -46l34 35h52l-61 -63q33 -49 33 -123q0 -112 -69 -191q-68 -78 -176 -78q-80 0 -130 41l-29 -30h-53l57 58q-37 49 -37 126q0 114 69 192q69 79 180 79zM286 406q-84 0 -136 -64q-52 -62 -52 -156q0 -50 18 -86l262 270q-36 36 -92 36zM420 255
q0 47 -19 84l-262 -269q31 -34 92 -34q84 0 136 64q53 65 53 155z" />
    <glyph glyph-name="ugrave" unicode="&#xf9;" horiz-adv-x="511" 
d="M74 179l37 266h56l-35 -255q-21 -150 93 -150q64 0 107.5 56t58.5 149l30 200h56l-62 -445h-42l1 79h-4q-62 -89 -155 -89q-81 0 -117 49t-24 140zM255 679l88 -148h-42l-102 133z" />
    <glyph glyph-name="uacute" unicode="&#xfa;" horiz-adv-x="511" 
d="M74 179l37 266h56l-35 -255q-21 -150 93 -150q64 0 107.5 56t58.5 149l30 200h56l-62 -445h-42l1 79h-4q-62 -89 -155 -89q-81 0 -117 49t-24 140zM428 661l-129 -130h-46l119 148z" />
    <glyph glyph-name="ucircumflex" unicode="&#xfb;" horiz-adv-x="511" 
d="M74 179l37 266h56l-35 -255q-21 -150 93 -150q64 0 107.5 56t58.5 149l30 200h56l-62 -445h-42l1 79h-4q-62 -89 -155 -89q-81 0 -117 49t-24 140zM328 672l110 -143h-59l-64 83l-95 -83h-62l155 143h15z" />
    <glyph glyph-name="udieresis" unicode="&#xfc;" horiz-adv-x="511" 
d="M74 179l37 266h56l-35 -255q-21 -150 93 -150q64 0 107.5 56t58.5 149l30 200h56l-62 -445h-42l1 79h-4q-62 -89 -155 -89q-81 0 -117 49t-24 140zM240 623q30 0 30 -31q0 -19 -11.5 -31t-28.5 -12q-15 0 -24 8.5t-9 22.5q0 16 13 29.5t30 13.5zM396 623q31 0 31 -31
q0 -18 -12 -30.5t-29 -12.5q-32 0 -32 30q0 17 12.5 30.5t29.5 13.5z" />
    <glyph glyph-name="yacute" unicode="&#xfd;" horiz-adv-x="422" 
d="M85 445l94 -366h5l196 366h59l-361 -660h-58l126 230l-120 430h59zM373 658l-129 -130h-46l119 148z" />
    <glyph glyph-name="thorn" unicode="&#xfe;" horiz-adv-x="527" 
d="M86 70l-42 -285h-54l131 926h52l-49 -336q0 -1 1 -1l2 -1q62 80 176 80q86 0 132 -55q46 -53 46 -131q0 -122 -69 -200q-69 -77 -166 -77q-112 0 -155 81zM290 407q-82 0 -134 -64q-53 -64 -53 -160q0 -67 35 -106.5t99 -39.5q87 0 137 63q50 64 50 156q0 70 -34.5 110.5
t-99.5 40.5z" />
    <glyph glyph-name="ydieresis" unicode="&#xff;" horiz-adv-x="422" 
d="M85 445l94 -366h5l196 366h59l-361 -660h-58l126 230l-120 430h59zM187 611q30 0 30 -31q0 -19 -11.5 -31t-28.5 -12q-15 0 -24 8.5t-9 22.5q0 16 13 29.5t30 13.5zM343 611q31 0 31 -31q0 -18 -12 -30.5t-29 -12.5q-32 0 -32 30q0 17 12.5 30.5t29.5 13.5z" />
    <glyph glyph-name="Amacron" unicode="&#x100;" horiz-adv-x="600" 
d="M550 0h-57l-42 161h-322l-87 -161h-62l372 665h14zM346 545h-4l-185 -335h280zM509 762h-273l7 51h273z" />
    <glyph glyph-name="amacron" unicode="&#x101;" horiz-adv-x="539" 
d="M274 408q-82 0 -131 -67q-48 -66 -48 -155q0 -71 32 -110.5t94 -39.5q79 0 132 63q53 64 53 160q0 67 -35 108t-97 41zM211 -11q-86 0 -130 54q-43 53 -43 133q0 124 67 200q68 77 170 77t149 -86q3 0 4 1l25 77h36l-62 -445h-41l-3 67l-3 1q-67 -79 -169 -79zM431 552
h-259l7 48h259z" />
    <glyph glyph-name="Abreve" unicode="&#x102;" horiz-adv-x="600" 
d="M550 0h-57l-42 161h-322l-87 -161h-62l372 665h14zM346 545h-4l-185 -335h280zM467 858h46q-10 -58 -49 -96.5t-97 -38.5q-54 0 -82 38.5t-22 96.5h46q-5 -41 12 -68t51 -27q75 0 95 95z" />
    <glyph glyph-name="abreve" unicode="&#x103;" horiz-adv-x="539" 
d="M274 408q-82 0 -131 -67q-48 -66 -48 -155q0 -71 32 -110.5t94 -39.5q79 0 132 63q53 64 53 160q0 67 -35 108t-97 41zM211 -11q-86 0 -130 54q-43 53 -43 133q0 124 67 200q68 77 170 77t149 -86q3 0 4 1l25 77h36l-62 -445h-41l-3 67l-3 1q-67 -79 -169 -79zM406 672
h46q-10 -58 -49 -96.5t-97 -38.5q-54 0 -82 38.5t-22 96.5h46q-5 -41 12 -68t51 -27q75 0 95 95z" />
    <glyph glyph-name="Aogonek" unicode="&#x104;" horiz-adv-x="600" 
d="M442 -182q44 0 102 34l-11 -45q-51 -30 -110 -30q-74 0 -74 60q0 95 141 174l-39 150h-322l-87 -161h-62l372 665h14l184 -665h-36q-50 -34 -80.5 -75.5t-30.5 -71.5q0 -35 39 -35zM346 545h-4l-185 -335h280z" />
    <glyph glyph-name="aogonek" unicode="&#x105;" horiz-adv-x="539" 
d="M330 -177q44 0 102 34l-11 -45q-51 -30 -110 -30q-74 0 -74 60q0 99 148 178l-2 47l-3 1q-67 -79 -169 -79q-86 0 -130 54q-43 53 -43 133q0 124 67 200q68 77 170 77t149 -86q3 0 4 1l25 77h36l-62 -445h-33q-47 -34 -75 -73.5t-28 -68.5q0 -35 39 -35zM274 408
q-82 0 -131 -67q-48 -66 -48 -155q0 -71 32 -110.5t94 -39.5q79 0 132 63q53 64 53 160q0 67 -35 108t-97 41z" />
    <glyph glyph-name="Cacute" unicode="&#x106;" horiz-adv-x="599" 
d="M552 96l-8 -57q-81 -48 -198 -48q-139 0 -212 76q-74 77 -74 201q0 120 55 214q54 92 140.5 141.5t189.5 49.5t159 -33l-3 -58q-64 39 -157 39q-83 0 -157 -41q-73 -40 -120 -122t-47 -184q0 -107 62.5 -169t177.5 -62q94 0 192 53zM560 844l-144 -111h-50l131 129z" />
    <glyph glyph-name="cacute" unicode="&#x107;" horiz-adv-x="417" 
d="M368 73l-8 -54q-53 -29 -134 -29q-92 0 -140 56q-48 57 -48 143q0 118 73 191q73 75 183 75q65 0 107 -20l-8 -54q-37 26 -98 26q-87 0 -145 -61q-58 -59 -58 -161q0 -66 40.5 -106t109.5 -40q74 0 126 34zM403 661l-129 -130h-46l119 148z" />
    <glyph glyph-name="Ccircumflex" unicode="&#x108;" horiz-adv-x="599" 
d="M461 861l113 -133h-66l-60 74l-93 -74h-66l156 133h16zM552 96l-8 -57q-81 -48 -198 -48q-139 0 -212 76q-74 77 -74 201q0 120 55 214q54 92 140.5 141.5t189.5 49.5t159 -33l-3 -58q-64 39 -157 39q-83 0 -157 -41q-73 -40 -120 -122t-47 -184q0 -107 62.5 -169
t177.5 -62q94 0 192 53z" />
    <glyph glyph-name="ccircumflex" unicode="&#x109;" horiz-adv-x="417" 
d="M317 672l110 -143h-59l-64 83l-95 -83h-62l155 143h15zM368 73l-8 -54q-53 -29 -134 -29q-92 0 -140 56q-48 57 -48 143q0 118 73 191q73 75 183 75q65 0 107 -20l-8 -54q-37 26 -98 26q-87 0 -145 -61q-58 -59 -58 -161q0 -66 40.5 -106t109.5 -40q74 0 126 34z" />
    <glyph glyph-name="Cdotaccent" unicode="&#x10a;" horiz-adv-x="599" 
d="M552 96l-8 -57q-81 -48 -198 -48q-139 0 -212 76q-74 77 -74 201q0 120 55 214q54 92 140.5 141.5t189.5 49.5t159 -33l-3 -58q-64 39 -157 39q-83 0 -157 -41q-73 -40 -120 -122t-47 -184q0 -107 62.5 -169t177.5 -62q94 0 192 53zM465 838q14 0 22.5 -9.5t8.5 -23.5
q0 -19 -12.5 -31.5t-29.5 -12.5q-16 0 -25 9t-9 23q0 17 13.5 31t31.5 14z" />
    <glyph glyph-name="cdotaccent" unicode="&#x10b;" horiz-adv-x="417" 
d="M368 73l-8 -54q-53 -29 -134 -29q-92 0 -140 56q-48 57 -48 143q0 118 73 191q73 75 183 75q65 0 107 -20l-8 -54q-37 26 -98 26q-87 0 -145 -61q-58 -59 -58 -161q0 -66 40.5 -106t109.5 -40q74 0 126 34zM303 628q14 0 22.5 -9.5t8.5 -23.5q0 -19 -12.5 -31.5
t-29.5 -12.5q-16 0 -25 9t-9 23q0 17 13.5 31t31.5 14z" />
    <glyph glyph-name="Ccaron" unicode="&#x10c;" horiz-adv-x="599" 
d="M438 782l90 79h64l-151 -133h-16l-118 133h66zM552 96l-8 -57q-81 -48 -198 -48q-139 0 -212 76q-74 77 -74 201q0 120 55 214q54 92 140.5 141.5t189.5 49.5t159 -33l-3 -58q-64 39 -157 39q-83 0 -157 -41q-73 -40 -120 -122t-47 -184q0 -107 62.5 -169t177.5 -62
q94 0 192 53z" />
    <glyph glyph-name="ccaron" unicode="&#x10d;" horiz-adv-x="417" 
d="M297 587l87 85h64l-150 -143h-15l-115 143h62zM368 73l-8 -54q-53 -29 -134 -29q-92 0 -140 56q-48 57 -48 143q0 118 73 191q73 75 183 75q65 0 107 -20l-8 -54q-37 26 -98 26q-87 0 -145 -61q-58 -59 -58 -161q0 -66 40.5 -106t109.5 -40q74 0 126 34z" />
    <glyph glyph-name="Dcaron" unicode="&#x10e;" horiz-adv-x="666" 
d="M385 782l90 79h64l-151 -133h-16l-118 133h66zM345 610h-155l-78 -557h160q136 0 214 94q79 94 79 242q0 102 -56.5 161.5t-163.5 59.5zM275 0h-227l93 662h217q127 0 197 -73.5t70 -203.5q0 -172 -98 -279q-97 -106 -252 -106z" />
    <glyph glyph-name="dcaron" unicode="&#x10f;" horiz-adv-x="584" 
d="M433 375l48 336h54l-99 -711h-41v70l-1 1l-2 1q-62 -80 -176 -80q-86 0 -132 54q-46 55 -46 132q0 122 69 199q69 78 166 78q111 0 155 -81zM229 38q81 0 134 63q53 65 53 161q0 67 -35 106.5t-99 39.5q-88 0 -137 -63q-50 -64 -50 -156q0 -70 34.5 -110.5t99.5 -40.5z
M633 721q15 0 24.5 -9t9.5 -25q0 -42 -79 -161l-31 5l49 113q-19 6 -19 31q0 18 14.5 32t31.5 14z" />
    <glyph glyph-name="Dcroat" unicode="&#x110;" horiz-adv-x="666" 
d="M275 0h-227l44 318h-61l7 51h61l42 293h217q127 0 197 -73.5t70 -203.5q0 -172 -98 -279q-97 -106 -252 -106zM351 610h-161l-34 -241h215l-7 -51h-215l-37 -265h166q136 0 214 94q79 94 79 242q0 102 -56.5 161.5t-163.5 59.5z" />
    <glyph glyph-name="dslash" unicode="&#x111;" horiz-adv-x="545" 
d="M466 605l15 106h54l-15 -106h85l-6 -42h-85l-78 -563h-41v70l-1 1l-2 1q-62 -80 -176 -80q-86 0 -132 54q-46 55 -46 132q0 122 69 199q69 78 166 78q111 0 155 -81l5 1l27 188h-169l6 42h169zM229 38q81 0 134 63q53 65 53 161q0 67 -35 106.5t-99 39.5q-88 0 -137 -63
q-50 -64 -50 -156q0 -70 34.5 -110.5t99.5 -40.5z" />
    <glyph glyph-name="Emacron" unicode="&#x112;" horiz-adv-x="545" 
d="M113 53h374l-7 -53h-432l93 662h406l-8 -52h-348l-33 -234h324l-7 -52h-324zM505 767h-273l7 51h273z" />
    <glyph glyph-name="emacron" unicode="&#x113;" horiz-adv-x="461" 
d="M282 454q69 0 109 -35t40 -88q0 -62 -66 -101.5t-194 -39.5q-49 0 -74 3q-1 -3 -1 -16q0 -65 33.5 -102t97.5 -37q101 0 175 62l-10 -59q-76 -51 -168 -51q-90 0 -138 50.5t-48 139.5q0 114 69 194t175 80zM281 404q-67 0 -115 -44.5t-64 -119.5q38 -5 78 -5
q94 0 143 26.5t49 67.5q0 34 -23.5 54.5t-67.5 20.5zM436 552h-259l7 48h259z" />
    <glyph glyph-name="Ebreve" unicode="&#x114;" horiz-adv-x="545" 
d="M113 53h374l-7 -53h-432l93 662h406l-8 -52h-348l-33 -234h324l-7 -52h-324zM456 858h46q-10 -58 -49 -96.5t-97 -38.5q-54 0 -82 38.5t-22 96.5h46q-5 -41 12 -68t51 -27q75 0 95 95z" />
    <glyph glyph-name="ebreve" unicode="&#x115;" horiz-adv-x="461" 
d="M282 454q69 0 109 -35t40 -88q0 -62 -66 -101.5t-194 -39.5q-49 0 -74 3q-1 -3 -1 -16q0 -65 33.5 -102t97.5 -37q101 0 175 62l-10 -59q-76 -51 -168 -51q-90 0 -138 50.5t-48 139.5q0 114 69 194t175 80zM281 404q-67 0 -115 -44.5t-64 -119.5q38 -5 78 -5
q94 0 143 26.5t49 67.5q0 34 -23.5 54.5t-67.5 20.5zM402 672h46q-10 -58 -49 -96.5t-97 -38.5q-54 0 -82 38.5t-22 96.5h46q-5 -41 12 -68t51 -27q75 0 95 95z" />
    <glyph glyph-name="Edotaccent" unicode="&#x116;" horiz-adv-x="545" 
d="M113 53h374l-7 -53h-432l93 662h406l-8 -52h-348l-33 -234h324l-7 -52h-324zM375 838q14 0 22.5 -9.5t8.5 -23.5q0 -19 -12.5 -31.5t-29.5 -12.5q-16 0 -25 9t-9 23q0 17 13.5 31t31.5 14z" />
    <glyph glyph-name="edotaccent" unicode="&#x117;" horiz-adv-x="461" 
d="M282 454q69 0 109 -35t40 -88q0 -62 -66 -101.5t-194 -39.5q-49 0 -74 3q-1 -3 -1 -16q0 -65 33.5 -102t97.5 -37q101 0 175 62l-10 -59q-76 -51 -168 -51q-90 0 -138 50.5t-48 139.5q0 114 69 194t175 80zM281 404q-67 0 -115 -44.5t-64 -119.5q38 -5 78 -5
q94 0 143 26.5t49 67.5q0 34 -23.5 54.5t-67.5 20.5zM313 628q14 0 22.5 -9.5t8.5 -23.5q0 -19 -12.5 -31.5t-29.5 -12.5q-16 0 -25 9t-9 23q0 17 13.5 31t31.5 14z" />
    <glyph glyph-name="Eogonek" unicode="&#x118;" horiz-adv-x="545" 
d="M328 -178q44 0 102 34l-11 -45q-51 -30 -110 -30q-74 0 -74 60q0 84 115 159h-302l93 662h406l-8 -52h-348l-33 -234h324l-7 -52h-324l-38 -271h374l-7 -53h-87q-47 -34 -75.5 -74t-28.5 -69q0 -35 39 -35z" />
    <glyph glyph-name="eogonek" unicode="&#x119;" horiz-adv-x="461" 
d="M281 -165q44 0 102 34l-11 -45q-51 -30 -110 -30q-74 0 -74 60q0 74 88 140q-28 -4 -52 -4q-90 0 -138 50.5t-48 139.5q0 114 69 194t175 80q69 0 109 -35t40 -88q0 -62 -66 -101.5t-194 -39.5q-49 0 -74 3q-1 -3 -1 -16q0 -65 33.5 -102t97.5 -37q101 0 175 62l-10 -59
q-14 -10 -30 -18q-54 -35 -87 -78.5t-33 -74.5q0 -35 39 -35zM281 404q-67 0 -115 -44.5t-64 -119.5q38 -5 78 -5q94 0 143 26.5t49 67.5q0 34 -23.5 54.5t-67.5 20.5z" />
    <glyph glyph-name="Ecaron" unicode="&#x11a;" horiz-adv-x="545" 
d="M113 53h374l-7 -53h-432l93 662h406l-8 -52h-348l-33 -234h324l-7 -52h-324zM364 782l90 79h64l-151 -133h-16l-118 133h66z" />
    <glyph glyph-name="ecaron" unicode="&#x11b;" horiz-adv-x="461" 
d="M282 454q69 0 109 -35t40 -88q0 -62 -66 -101.5t-194 -39.5q-49 0 -74 3q-1 -3 -1 -16q0 -65 33.5 -102t97.5 -37q101 0 175 62l-10 -59q-76 -51 -168 -51q-90 0 -138 50.5t-48 139.5q0 114 69 194t175 80zM281 404q-67 0 -115 -44.5t-64 -119.5q38 -5 78 -5
q94 0 143 26.5t49 67.5q0 34 -23.5 54.5t-67.5 20.5zM310 587l87 85h64l-150 -143h-15l-115 143h62z" />
    <glyph glyph-name="Gcircumflex" unicode="&#x11c;" horiz-adv-x="652" 
d="M450 674q108 0 166 -37l-4 -58q-72 42 -168 42q-83 0 -157 -41q-73 -40 -120 -122t-47 -184q0 -108 62 -169.5t177 -61.5q75 0 148 29l35 254h56l-41 -293q-90 -42 -220 -42q-134 0 -206 79q-71 80 -71 202q0 173 114 287q114 115 276 115zM471 867l113 -133h-66l-60 74
l-93 -74h-66l156 133h16z" />
    <glyph glyph-name="gcircumflex" unicode="&#x11d;" horiz-adv-x="489" 
d="M145 -217q-81 0 -122.5 31t-41.5 81q0 38 24 76.5t64 64.5l-15 2q-25 3 -34.5 11t-9.5 26q0 11 1 14l93 75q-34 34 -34 94q0 80 57 138q58 58 140 58q31 0 66 -11h144l-5 -35l-88 -10q33 -34 33 -91q0 -76 -59 -132q-58 -55 -138 -55q-58 0 -89 24l-63 -61l213 -24
q107 -12 107 -88q0 -55 -57 -117q-29 -32 -78.5 -51.5t-107.5 -19.5zM227 165q59 0 98 41q40 40 40 97q0 46 -29 75.5t-75 29.5q-57 0 -98 -42q-40 -41 -40 -101q0 -45 28 -72.5t76 -27.5zM273 13l-172 20q-27 -25 -44.5 -59.5t-17.5 -66.5q0 -77 112 -77q87 0 133 45
q48 43 48 88q0 42 -59 50zM330 672l110 -143h-59l-64 83l-95 -83h-62l155 143h15z" />
    <glyph glyph-name="Gbreve" unicode="&#x11e;" horiz-adv-x="652" 
d="M450 674q108 0 166 -37l-4 -58q-72 42 -168 42q-83 0 -157 -41q-73 -40 -120 -122t-47 -184q0 -108 62 -169.5t177 -61.5q75 0 148 29l35 254h56l-41 -293q-90 -42 -220 -42q-134 0 -206 79q-71 80 -71 202q0 173 114 287q114 115 276 115zM553 858h46q-10 -58 -49 -96.5
t-97 -38.5q-54 0 -82 38.5t-22 96.5h46q-5 -41 12 -68t51 -27q75 0 95 95z" />
    <glyph glyph-name="gbreve" unicode="&#x11f;" horiz-adv-x="489" 
d="M145 -217q-81 0 -122.5 31t-41.5 81q0 38 24 76.5t64 64.5l-15 2q-25 3 -34.5 11t-9.5 26q0 11 1 14l93 75q-34 34 -34 94q0 80 57 138q58 58 140 58q31 0 66 -11h144l-5 -35l-88 -10q33 -34 33 -91q0 -76 -59 -132q-58 -55 -138 -55q-58 0 -89 24l-63 -61l213 -24
q107 -12 107 -88q0 -55 -57 -117q-29 -32 -78.5 -51.5t-107.5 -19.5zM227 165q59 0 98 41q40 40 40 97q0 46 -29 75.5t-75 29.5q-57 0 -98 -42q-40 -41 -40 -101q0 -45 28 -72.5t76 -27.5zM273 13l-172 20q-27 -25 -44.5 -59.5t-17.5 -66.5q0 -77 112 -77q87 0 133 45
q48 43 48 88q0 42 -59 50zM392 672h46q-10 -58 -49 -96.5t-97 -38.5q-54 0 -82 38.5t-22 96.5h46q-5 -41 12 -68t51 -27q75 0 95 95z" />
    <glyph glyph-name="Gdotaccent" unicode="&#x120;" horiz-adv-x="652" 
d="M450 674q108 0 166 -37l-4 -58q-72 42 -168 42q-83 0 -157 -41q-73 -40 -120 -122t-47 -184q0 -108 62 -169.5t177 -61.5q75 0 148 29l35 254h56l-41 -293q-90 -42 -220 -42q-134 0 -206 79q-71 80 -71 202q0 173 114 287q114 115 276 115zM467 838q14 0 22.5 -9.5
t8.5 -23.5q0 -19 -12.5 -31.5t-29.5 -12.5q-16 0 -25 9t-9 23q0 17 13.5 31t31.5 14z" />
    <glyph glyph-name="gdotaccent" unicode="&#x121;" horiz-adv-x="489" 
d="M145 -217q-81 0 -122.5 31t-41.5 81q0 38 24 76.5t64 64.5l-15 2q-25 3 -34.5 11t-9.5 26q0 11 1 14l93 75q-34 34 -34 94q0 80 57 138q58 58 140 58q31 0 66 -11h144l-5 -35l-88 -10q33 -34 33 -91q0 -76 -59 -132q-58 -55 -138 -55q-58 0 -89 24l-63 -61l213 -24
q107 -12 107 -88q0 -55 -57 -117q-29 -32 -78.5 -51.5t-107.5 -19.5zM227 165q59 0 98 41q40 40 40 97q0 46 -29 75.5t-75 29.5q-57 0 -98 -42q-40 -41 -40 -101q0 -45 28 -72.5t76 -27.5zM273 13l-172 20q-27 -25 -44.5 -59.5t-17.5 -66.5q0 -77 112 -77q87 0 133 45
q48 43 48 88q0 42 -59 50zM299 628q14 0 22.5 -9.5t8.5 -23.5q0 -19 -12.5 -31.5t-29.5 -12.5q-16 0 -25 9t-9 23q0 17 13.5 31t31.5 14z" />
    <glyph glyph-name="Gcommaaccent" unicode="&#x122;" horiz-adv-x="652" 
d="M450 674q108 0 166 -37l-4 -58q-72 42 -168 42q-83 0 -157 -41q-73 -40 -120 -122t-47 -184q0 -108 62 -169.5t177 -61.5q75 0 148 29l35 254h56l-41 -293q-90 -42 -220 -42q-134 0 -206 79q-71 80 -71 202q0 173 114 287q114 115 276 115zM322 -45q15 0 24.5 -9t9.5 -25
q0 -42 -79 -161l-31 5l49 113q-19 6 -19 31q0 18 14.5 32t31.5 14z" />
    <glyph glyph-name="gcommaaccent" unicode="&#x123;" horiz-adv-x="489" 
d="M145 -217q-81 0 -122.5 31t-41.5 81q0 38 24 76.5t64 64.5l-15 2q-25 3 -34.5 11t-9.5 26q0 11 1 14l93 75q-34 34 -34 94q0 80 57 138q58 58 140 58q31 0 66 -11h144l-5 -35l-88 -10q33 -34 33 -91q0 -76 -59 -132q-58 -55 -138 -55q-58 0 -89 24l-63 -61l213 -24
q107 -12 107 -88q0 -55 -57 -117q-29 -32 -78.5 -51.5t-107.5 -19.5zM227 165q59 0 98 41q40 40 40 97q0 46 -29 75.5t-75 29.5q-57 0 -98 -42q-40 -41 -40 -101q0 -45 28 -72.5t76 -27.5zM273 13l-172 20q-27 -25 -44.5 -59.5t-17.5 -66.5q0 -77 112 -77q87 0 133 45
q48 43 48 88q0 42 -59 50zM323 540q-15 0 -24.5 9t-9.5 25q0 42 79 161l31 -5l-49 -113q19 -6 19 -31q0 -18 -14.5 -32t-31.5 -14z" />
    <glyph glyph-name="Hcircumflex" unicode="&#x124;" horiz-adv-x="655" 
d="M629 662l-93 -662h-56l45 324h-375l-45 -324h-57l93 662h57l-41 -286h375l41 286h56zM420 861l113 -133h-66l-60 74l-93 -74h-66l156 133h16z" />
    <glyph glyph-name="hcircumflex" unicode="&#x125;" horiz-adv-x="514" 
d="M444 266l-37 -266h-56l35 255q21 150 -93 150q-65 0 -115 -57t-63 -148l-30 -200h-56l99 711h55l-51 -345h4q72 89 167 89q81 0 117 -49t24 -140zM190 868l113 -133h-66l-60 74l-93 -74h-66l156 133h16z" />
    <glyph glyph-name="Hbar" unicode="&#x126;" horiz-adv-x="655" 
d="M121 522h-50l6 47h50l14 93h57l-14 -93h375l14 93h56l-14 -93h43l-6 -47h-43l-73 -522h-56l45 324h-375l-45 -324h-57zM178 522l-21 -146h375l21 146h-375z" />
    <glyph glyph-name="hbar" unicode="&#x127;" horiz-adv-x="514" 
d="M444 266l-37 -266h-56l35 255q21 150 -93 150q-65 0 -115 -57t-63 -148l-30 -200h-56l80 573h-53l6 46h53l13 92h55l-14 -92h178l-6 -46h-179l-30 -207h4q72 89 167 89q81 0 117 -49t24 -140z" />
    <glyph glyph-name="Itilde" unicode="&#x128;" horiz-adv-x="243" 
d="M315 860l23 -31q-34 -70 -88 -70q-24 0 -62 24q-37 24 -52 24q-30 0 -61 -54l-26 31q39 71 91 71q24 0 62 -24q39 -24 53 -24q28 0 60 53zM208 662l-93 -662h-57l93 662h57z" />
    <glyph glyph-name="itilde" unicode="&#x129;" horiz-adv-x="222" 
d="M278 645l23 -31q-34 -70 -88 -70q-23 0 -62 24q-37 24 -52 24q-29 0 -61 -54l-26 31q39 71 91 71q25 0 62 -24q39 -24 53 -24q28 0 60 53zM165 445l-62 -445h-56l62 445h56z" />
    <glyph glyph-name="Imacron" unicode="&#x12a;" horiz-adv-x="243" 
d="M208 662l-93 -662h-57l93 662h57zM329 762h-273l7 51h273z" />
    <glyph glyph-name="imacron" unicode="&#x12b;" horiz-adv-x="222" 
d="M165 445l-62 -445h-56l62 445h56zM280 552h-259l7 48h259z" />
    <glyph glyph-name="Ibreve" unicode="&#x12c;" horiz-adv-x="243" 
d="M287 858h46q-10 -58 -49 -96.5t-97 -38.5q-54 0 -82 38.5t-22 96.5h46q-5 -41 12 -68t51 -27q75 0 95 95zM208 662l-93 -662h-57l93 662h57z" />
    <glyph glyph-name="ibreve" unicode="&#x12d;" horiz-adv-x="222" 
d="M257 676h46q-10 -58 -49 -96.5t-97 -38.5q-54 0 -82 38.5t-22 96.5h46q-5 -41 12 -68t51 -27q75 0 95 95zM171 445l-62 -445h-56l62 445h56z" />
    <glyph glyph-name="Iogonek" unicode="&#x12e;" horiz-adv-x="243" 
d="M31 -171q44 0 102 34l-11 -45q-51 -30 -110 -30q-74 0 -74 60q0 86 121 162l92 652h57l-93 -662h-28q-44 -32 -69.5 -70t-25.5 -66q0 -35 39 -35z" />
    <glyph glyph-name="iogonek" unicode="&#x12f;" horiz-adv-x="222" 
d="M20 -171q44 0 102 34l-11 -45q-51 -30 -110 -30q-74 0 -74 60q0 86 121 162l61 435h56l-62 -445h-27q-44 -32 -69.5 -70t-25.5 -66q0 -35 39 -35zM163 616q14 0 23 -9.5t9 -23.5q0 -18 -13 -31t-30 -13q-16 0 -25 9t-9 23q0 17 13.5 31t31.5 14z" />
    <glyph glyph-name="Idot" unicode="&#x130;" horiz-adv-x="243" 
d="M208 662l-93 -662h-57l93 662h57zM204 838q14 0 22.5 -9.5t8.5 -23.5q0 -19 -12.5 -31.5t-29.5 -12.5q-16 0 -25 9t-9 23q0 17 13.5 31t31.5 14z" />
    <glyph glyph-name="dotlessi" unicode="&#x131;" horiz-adv-x="222" 
d="M165 445l-62 -445h-56l62 445h56z" />
    <glyph glyph-name="IJ" unicode="&#x132;" horiz-adv-x="623" 
d="M298 44q84 0 126 47.5t55 142.5l61 428h57l-59 -418q-16 -115 -64 -180q-54 -74 -175 -74q-31 0 -74 8q-39 7 -62 22l9 61q22 -17 58.5 -27t67.5 -10zM198 662l-93 -662h-57l93 662h57z" />
    <glyph glyph-name="ij" unicode="&#x133;" horiz-adv-x="394" 
d="M344 616q14 0 23 -9.5t9 -23.5q0 -18 -13 -31t-30 -13q-15 0 -24 9t-9 23q0 18 13 31.5t31 13.5zM102 -227l-24 53q67 2 101 37t44 107l67 475h55l-67 -476q-14 -96 -55 -140.5t-121 -55.5zM163 616q14 0 23 -9.5t9 -23.5q0 -18 -13 -31t-30 -13q-16 0 -25 9t-9 23
q0 17 13.5 31t31.5 14zM165 445l-62 -445h-56l62 445h56z" />
    <glyph glyph-name="Jcircumflex" unicode="&#x134;" horiz-adv-x="436" 
d="M112 45q84 0 126 47.5t55 142.5l61 428h57l-59 -418q-16 -115 -64 -180q-54 -74 -175 -74q-31 0 -74 8q-39 7 -62 22l9 61q22 -17 58.5 -27t67.5 -10zM420 863l113 -133h-66l-60 74l-93 -74h-66l156 133h16z" />
    <glyph glyph-name="jcircumflex" unicode="&#x135;" horiz-adv-x="206" 
d="M-86 -227l-18 48q120 5 139 149l67 475h54l-67 -476q-26 -188 -175 -196zM166 672l110 -143h-59l-64 83l-95 -83h-62l155 143h15z" />
    <glyph glyph-name="Kcommaaccent" unicode="&#x136;" horiz-adv-x="568" 
d="M141 662h57l-45 -314l363 314h70l-361 -318l299 -344h-81l-291 339l-47 -339h-57zM259 -22q15 0 24.5 -9t9.5 -25q0 -42 -79 -161l-31 5l49 113q-19 6 -19 31q0 18 14.5 32t31.5 14z" />
    <glyph glyph-name="kcommaaccent" unicode="&#x137;" horiz-adv-x="458" 
d="M377 444h79l-278 -212l240 -232h-76l-228 227l-31 -227h-54l99 711h54l-66 -471zM199 -39q15 0 24.5 -9t9.5 -25q0 -42 -79 -161l-31 5l49 113q-19 6 -19 31q0 18 14.5 32t31.5 14z" />
    <glyph glyph-name="kgreenlandic" unicode="&#x138;" horiz-adv-x="467" 
d="M393 444h73l-272 -208l234 -236h-83l-222 227l-31 -227h-54l62 444h54l-29 -204z" />
    <glyph glyph-name="Lacute" unicode="&#x139;" horiz-adv-x="502" 
d="M48 0l93 662h57l-86 -609h352l-7 -53h-409zM324 844l-144 -111h-50l131 129z" />
    <glyph glyph-name="lacute" unicode="&#x13a;" horiz-adv-x="199" 
d="M193 711l-99 -711h-56l99 711h56zM315 871l-144 -111h-50l131 129z" />
    <glyph glyph-name="Lcommaaccent" unicode="&#x13b;" horiz-adv-x="502" 
d="M48 0l93 662h57l-86 -609h352l-7 -53h-409zM254 -45q15 0 24.5 -9t9.5 -25q0 -42 -79 -161l-31 5l49 113q-19 6 -19 31q0 18 14.5 32t31.5 14z" />
    <glyph glyph-name="lcommaaccent" unicode="&#x13c;" horiz-adv-x="199" 
d="M193 711l-99 -711h-56l99 711h56zM63 -45q15 0 24.5 -9t9.5 -25q0 -42 -79 -161l-31 5l49 113q-19 6 -19 31q0 18 14.5 32t31.5 14z" />
    <glyph glyph-name="Lcaron" unicode="&#x13d;" horiz-adv-x="502" 
d="M48 0l93 662h57l-86 -609h352l-7 -53h-409zM408 669q15 0 24.5 -9t9.5 -25q0 -42 -79 -161l-31 5l49 113q-19 6 -19 31q0 18 14.5 32t31.5 14z" />
    <glyph glyph-name="lcaron" unicode="&#x13e;" horiz-adv-x="241" 
d="M193 711l-99 -711h-56l99 711h56zM291 718q15 0 24.5 -9t9.5 -25q0 -42 -79 -161l-31 5l49 113q-19 6 -19 31q0 18 14.5 32t31.5 14z" />
    <glyph glyph-name="Ldot" unicode="&#x13f;" horiz-adv-x="502" 
d="M48 0l93 662h57l-86 -609h352l-7 -53h-409zM348 355q14 0 22.5 -9.5t8.5 -23.5q0 -19 -12.5 -31.5t-29.5 -12.5q-16 0 -25 9t-9 23q0 17 13.5 31t31.5 14z" />
    <glyph glyph-name="ldot" unicode="&#x140;" horiz-adv-x="233" 
d="M193 711l-99 -711h-56l99 711h56zM231 379q14 0 22.5 -9.5t8.5 -23.5q0 -19 -12.5 -31.5t-29.5 -12.5q-16 0 -25 9t-9 23q0 17 13.5 31t31.5 14z" />
    <glyph glyph-name="Lslash" unicode="&#x141;" horiz-adv-x="502" 
d="M81 230l-90 -47l7 47l90 49l54 383h56l-50 -349l182 97l-7 -50l-181 -96l-30 -211h353l-7 -53h-409z" />
    <glyph glyph-name="lslash" unicode="&#x142;" horiz-adv-x="203" 
d="M135 296l-41 -296h-56l37 264l-95 -50l6 49l96 51l56 398h56l-52 -365l103 54l-7 -51z" />
    <glyph glyph-name="Nacute" unicode="&#x143;" horiz-adv-x="707" 
d="M179 542l-76 -542h-55l94 671h15l389 -546h4l76 537h55l-94 -669h-14l-391 549h-3zM565 839l-144 -111h-50l131 129z" />
    <glyph glyph-name="nacute" unicode="&#x144;" horiz-adv-x="524" 
d="M453 266l-37 -266h-56l35 255q21 150 -93 150q-66 0 -115 -57q-50 -57 -63 -148l-30 -200h-56l62 445h42l-1 -79h4q72 89 167 89q81 0 117 -49t24 -140zM408 661l-129 -130h-46l119 148z" />
    <glyph glyph-name="Ncommaaccent" unicode="&#x145;" horiz-adv-x="707" 
d="M179 542l-76 -542h-55l94 671h15l389 -546h4l76 537h55l-94 -669h-14l-391 549h-3zM313 -24q15 0 24.5 -9t9.5 -25q0 -42 -79 -161l-31 5l49 113q-19 6 -19 31q0 18 14.5 32t31.5 14z" />
    <glyph glyph-name="ncommaaccent" unicode="&#x146;" horiz-adv-x="524" 
d="M453 266l-37 -266h-56l35 255q21 150 -93 150q-66 0 -115 -57q-50 -57 -63 -148l-30 -200h-56l62 445h42l-1 -79h4q72 89 167 89q81 0 117 -49t24 -140zM220 -36q15 0 24.5 -9t9.5 -25q0 -42 -79 -161l-31 5l49 113q-19 6 -19 31q0 18 14.5 32t31.5 14z" />
    <glyph glyph-name="Ncaron" unicode="&#x147;" horiz-adv-x="707" 
d="M179 542l-76 -542h-55l94 671h15l389 -546h4l76 537h55l-94 -669h-14l-391 549h-3zM439 782l90 79h64l-151 -133h-16l-118 133h66z" />
    <glyph glyph-name="ncaron" unicode="&#x148;" horiz-adv-x="524" 
d="M453 266l-37 -266h-56l35 255q21 150 -93 150q-66 0 -115 -57q-50 -57 -63 -148l-30 -200h-56l62 445h42l-1 -79h4q72 89 167 89q81 0 117 -49t24 -140zM296 587l87 85h64l-150 -143h-15l-115 143h62z" />
    <glyph glyph-name="napostrophe" unicode="&#x149;" horiz-adv-x="524" 
d="M453 266l-37 -266h-56l35 255q21 150 -93 150q-66 0 -115 -57q-50 -57 -63 -148l-30 -200h-56l62 445h42l-1 -79h4q72 89 167 89q81 0 117 -49t24 -140zM96 671q15 0 24.5 -9t9.5 -25q0 -42 -79 -161l-31 5l49 113q-19 6 -19 31q0 18 14.5 32t31.5 14z" />
    <glyph glyph-name="Eng" unicode="&#x14a;" horiz-adv-x="707" 
d="M179 547l-76 -547h-55l95 676h20l383 -555h4l76 541h55l-99 -698q-26 -185 -173 -192l-17 46q120 5 139 147l8 63l-357 519h-3z" />
    <glyph glyph-name="eng" unicode="&#x14b;" horiz-adv-x="524" 
d="M453 266l-43 -302q-26 -185 -173 -192l-18 46q117 5 136 147l40 290q10 72 -14 111t-79 39q-68 0 -116 -45.5t-60 -129.5l-32 -230h-56l62 445h44v-67h3q72 77 165 77q81 0 117 -49t24 -140z" />
    <glyph glyph-name="Omacron" unicode="&#x14c;" horiz-adv-x="752" 
d="M431 671q132 0 206 -80t74 -210q0 -164 -107 -277q-106 -112 -260 -112q-131 0 -206 78q-75 80 -75 207q0 162 107 278t261 116zM429 619q-127 0 -216 -101t-89 -239q0 -105 58 -170q58 -66 161 -66q131 0 219 97q89 98 89 240q0 104 -60 171q-60 68 -162 68zM586 769
h-273l7 51h273z" />
    <glyph glyph-name="omacron" unicode="&#x14d;" horiz-adv-x="521" 
d="M287 455q89 0 138.5 -53.5t49.5 -143.5q0 -112 -69 -191q-68 -78 -176 -78q-91 0 -141.5 53t-50.5 142q0 114 69 192q69 79 180 79zM286 406q-84 0 -136 -64q-52 -62 -52 -156q0 -68 34.5 -109t98.5 -41q84 0 136 64q53 65 53 155q0 67 -36 109t-98 42zM446 552h-259
l7 48h259z" />
    <glyph glyph-name="Obreve" unicode="&#x14e;" horiz-adv-x="752" 
d="M431 671q132 0 206 -80t74 -210q0 -164 -107 -277q-106 -112 -260 -112q-131 0 -206 78q-75 80 -75 207q0 162 107 278t261 116zM429 619q-127 0 -216 -101t-89 -239q0 -105 58 -170q58 -66 161 -66q131 0 219 97q89 98 89 240q0 104 -60 171q-60 68 -162 68zM551 858h46
q-10 -58 -49 -96.5t-97 -38.5q-54 0 -82 38.5t-22 96.5h46q-5 -41 12 -68t51 -27q75 0 95 95z" />
    <glyph glyph-name="obreve" unicode="&#x14f;" horiz-adv-x="521" 
d="M287 455q89 0 138.5 -53.5t49.5 -143.5q0 -112 -69 -191q-68 -78 -176 -78q-91 0 -141.5 53t-50.5 142q0 114 69 192q69 79 180 79zM286 406q-84 0 -136 -64q-52 -62 -52 -156q0 -68 34.5 -109t98.5 -41q84 0 136 64q53 65 53 155q0 67 -36 109t-98 42zM414 672h46
q-10 -58 -49 -96.5t-97 -38.5q-54 0 -82 38.5t-22 96.5h46q-5 -41 12 -68t51 -27q75 0 95 95z" />
    <glyph glyph-name="Ohungarumlaut" unicode="&#x150;" horiz-adv-x="752" 
d="M431 671q132 0 206 -80t74 -210q0 -164 -107 -277q-106 -112 -260 -112q-131 0 -206 78q-75 80 -75 207q0 162 107 278t261 116zM429 619q-127 0 -216 -101t-89 -239q0 -105 58 -170q58 -66 161 -66q131 0 219 97q89 98 89 240q0 104 -60 171q-60 68 -162 68zM558 852
l-150 -119h-50l138 137zM676 852l-150 -119h-50l137 137z" />
    <glyph glyph-name="ohungarumlaut" unicode="&#x151;" horiz-adv-x="521" 
d="M287 455q89 0 138.5 -53.5t49.5 -143.5q0 -112 -69 -191q-68 -78 -176 -78q-91 0 -141.5 53t-50.5 142q0 114 69 192q69 79 180 79zM286 406q-84 0 -136 -64q-52 -62 -52 -156q0 -68 34.5 -109t98.5 -41q84 0 136 64q53 65 53 155q0 67 -36 109t-98 42zM405 664
l-137 -133h-45l123 151zM505 664l-137 -133h-45l123 151z" />
    <glyph glyph-name="OE" unicode="&#x152;" horiz-adv-x="920" 
d="M488 52h375l-7 -52h-417q-37 -10 -90 -10q-140 0 -214 76t-74 209q0 171 111 287q111 115 274 115q57 0 104 -15h372l-8 -52h-348l-33 -234h324l-7 -52h-324zM356 42q36 0 76 8l79 565q-33 9 -73 9q-137 0 -229 -101q-90 -101 -90 -244q0 -109 62.5 -173t174.5 -64z" />
    <glyph glyph-name="oe" unicode="&#x153;" horiz-adv-x="840" 
d="M661 454q69 0 109 -35t40 -88q0 -62 -66 -101.5t-194 -39.5q-48 0 -74 3q-1 -3 -1 -16q0 -65 33.5 -102t97.5 -37q101 0 175 62l-10 -59q-77 -51 -168 -51q-134 0 -173 108q-70 -109 -200 -109q-91 0 -141.5 53t-50.5 142q0 114 69 192q69 79 180 79q66 0 110.5 -30
t63.5 -84q34 53 86 83t114 30zM286 406q-84 0 -136 -64q-52 -62 -52 -156q0 -68 34.5 -109t98.5 -41q84 0 136 64q53 65 53 155q0 67 -36 109t-98 42zM660 404q-67 0 -115 -44.5t-64 -119.5q38 -5 78 -5q94 0 143 26.5t49 67.5q0 34 -23.5 54.5t-67.5 20.5z" />
    <glyph glyph-name="Racute" unicode="&#x154;" horiz-adv-x="565" 
d="M318 252l203 -252h-73l-213 276l2 12q128 2 193 59q65 59 65 135q0 60 -40.5 94.5t-108.5 34.5h-156l-85 -611h-58l92 661h222q80 0 135 -46q57 -45 57 -128q0 -87 -66 -155q-67 -67 -169 -80zM451 844l-144 -111h-50l131 129z" />
    <glyph glyph-name="racute" unicode="&#x155;" horiz-adv-x="304" 
d="M327 451v-61q-24 7 -49 7q-66 0 -107 -57.5t-54 -161.5l-23 -178h-56l62 444h37v-92q0 -1 2 -1q21 49 59.5 76.5t88.5 27.5q23 0 40 -4zM294 661l-129 -130h-46l119 148z" />
    <glyph glyph-name="Rcommaaccent" unicode="&#x156;" horiz-adv-x="565" 
d="M318 252l203 -252h-73l-213 276l2 12q128 2 193 59q65 59 65 135q0 60 -40.5 94.5t-108.5 34.5h-156l-85 -611h-58l92 661h222q80 0 135 -46q57 -45 57 -128q0 -87 -66 -155q-67 -67 -169 -80zM243 -19q15 0 24.5 -9t9.5 -25q0 -42 -79 -161l-31 5l49 113q-19 6 -19 31
q0 18 14.5 32t31.5 14z" />
    <glyph glyph-name="rcommaaccent" unicode="&#x157;" horiz-adv-x="304" 
d="M327 451v-61q-24 7 -49 7q-66 0 -107 -57.5t-54 -161.5l-23 -178h-56l62 444h37v-92q0 -1 2 -1q21 49 59.5 76.5t88.5 27.5q23 0 40 -4zM51 -42q15 0 24.5 -9t9.5 -25q0 -42 -79 -161l-31 5l49 113q-19 6 -19 31q0 18 14.5 32t31.5 14z" />
    <glyph glyph-name="Rcaron" unicode="&#x158;" horiz-adv-x="565" 
d="M318 252l203 -252h-73l-213 276l2 12q128 2 193 59q65 59 65 135q0 60 -40.5 94.5t-108.5 34.5h-156l-85 -611h-58l92 661h222q80 0 135 -46q57 -45 57 -128q0 -87 -66 -155q-67 -67 -169 -80zM344 782l90 79h64l-151 -133h-16l-118 133h66z" />
    <glyph glyph-name="rcaron" unicode="&#x159;" horiz-adv-x="304" 
d="M327 451v-61q-24 7 -49 7q-66 0 -107 -57.5t-54 -161.5l-23 -178h-56l62 444h37v-92q0 -1 2 -1q21 49 59.5 76.5t88.5 27.5q23 0 40 -4zM188 587l87 85h64l-150 -143h-15l-115 143h62z" />
    <glyph glyph-name="Sacute" unicode="&#x15a;" horiz-adv-x="475" 
d="M5 44l8 62q81 -63 177 -63q83 0 133 37t50 107q0 38 -21.5 67.5t-54 47.5t-70 37.5t-70 37.5t-54 47.5t-21.5 67.5q0 46 20.5 82.5t53 57t68.5 30.5t71 10q94 0 159 -41l-9 -62q-65 50 -150 50q-59 0 -106 -30q-46 -28 -46 -92q0 -57 102 -106q34 -16 52.5 -25.5
t48.5 -29t46 -37.5t28.5 -45t12.5 -58q0 -104 -70 -155q-71 -51 -174 -51q-111 0 -184 54zM424 844l-144 -111h-50l131 129z" />
    <glyph glyph-name="sacute" unicode="&#x15b;" horiz-adv-x="362" 
d="M-7 29l4 56q58 -48 136 -48q121 0 121 88q0 25 -21 45t-50.5 34t-59 29t-50.5 39t-21 55q0 66 48 97q47 31 111 31q67 0 121 -30l-7 -55q-62 38 -113 38q-102 0 -102 -76q0 -26 31.5 -47.5t69.5 -36t69.5 -45t31.5 -71.5q0 -70 -52 -106q-53 -35 -128 -35q-80 0 -139 38z
M336 661l-129 -130h-46l119 148z" />
    <glyph glyph-name="Scircumflex" unicode="&#x15c;" horiz-adv-x="475" 
d="M5 44l8 62q81 -63 177 -63q83 0 133 37t50 107q0 38 -21.5 67.5t-54 47.5t-70 37.5t-70 37.5t-54 47.5t-21.5 67.5q0 46 20.5 82.5t53 57t68.5 30.5t71 10q94 0 159 -41l-9 -62q-65 50 -150 50q-59 0 -106 -30q-46 -28 -46 -92q0 -57 102 -106q34 -16 52.5 -25.5
t48.5 -29t46 -37.5t28.5 -45t12.5 -58q0 -104 -70 -155q-71 -51 -174 -51q-111 0 -184 54zM327 861l113 -133h-66l-60 74l-93 -74h-66l156 133h16z" />
    <glyph glyph-name="scircumflex" unicode="&#x15d;" horiz-adv-x="362" 
d="M-7 29l4 56q58 -48 136 -48q121 0 121 88q0 25 -21 45t-50.5 34t-59 29t-50.5 39t-21 55q0 66 48 97q47 31 111 31q67 0 121 -30l-7 -55q-62 38 -113 38q-102 0 -102 -76q0 -26 31.5 -47.5t69.5 -36t69.5 -45t31.5 -71.5q0 -70 -52 -106q-53 -35 -128 -35q-80 0 -139 38z
M258 672l110 -143h-59l-64 83l-95 -83h-62l155 143h15z" />
    <glyph glyph-name="Scedilla" unicode="&#x15e;" horiz-adv-x="475" 
d="M146 -98l-13 8l43 80q-105 4 -171 54l8 62q81 -63 177 -63q83 0 133 37t50 107q0 38 -21.5 67.5t-54 47.5t-70 37.5t-70 37.5t-54 47.5t-21.5 67.5q0 46 20.5 82.5t53 57t68.5 30.5t71 10q94 0 159 -41l-9 -62q-65 50 -150 50q-59 0 -106 -30q-46 -28 -46 -92
q0 -57 102 -106q34 -16 52.5 -25.5t48.5 -29t46 -37.5t28.5 -45t12.5 -58q0 -98 -62 -148q-61 -50 -156 -57l-28 -46q51 -1 76 -19t25 -48q0 -41 -38 -70t-89 -29q-38 0 -78 17l5 42q38 -18 78 -18q32 0 50 13.5t18 34.5q0 18 -16 28t-40 10q-20 0 -32 -4z" />
    <glyph glyph-name="scedilla" unicode="&#x15f;" horiz-adv-x="362" 
d="M75 -93l-13 8l42 78q-64 5 -111 36l4 56q58 -48 136 -48q121 0 121 88q0 25 -21 45t-50.5 34t-59 29t-50.5 39t-21 55q0 66 48 97q47 31 111 31q67 0 121 -30l-7 -55q-62 38 -113 38q-102 0 -102 -76q0 -26 31.5 -47.5t69.5 -36t69.5 -45t31.5 -71.5q0 -66 -47.5 -102.5
t-123.5 -38.5l-25 -41q51 -1 76 -19t25 -48q0 -41 -38 -70t-89 -29q-38 0 -78 17l5 42q37 -18 78 -18q32 0 50 13.5t18 34.5q0 18 -16 28t-40 10q-20 0 -32 -4z" />
    <glyph glyph-name="Scaron" unicode="&#x160;" horiz-adv-x="475" 
d="M5 44l8 62q81 -63 177 -63q83 0 133 37t50 107q0 38 -21.5 67.5t-54 47.5t-70 37.5t-70 37.5t-54 47.5t-21.5 67.5q0 46 20.5 82.5t53 57t68.5 30.5t71 10q94 0 159 -41l-9 -62q-65 50 -150 50q-59 0 -106 -30q-46 -28 -46 -92q0 -57 102 -106q34 -16 52.5 -25.5
t48.5 -29t46 -37.5t28.5 -45t12.5 -58q0 -104 -70 -155q-71 -51 -174 -51q-111 0 -184 54zM310 782l90 79h64l-151 -133h-16l-118 133h66z" />
    <glyph glyph-name="scaron" unicode="&#x161;" horiz-adv-x="362" 
d="M-7 29l4 56q58 -48 136 -48q121 0 121 88q0 25 -21 45t-50.5 34t-59 29t-50.5 39t-21 55q0 66 48 97q47 31 111 31q67 0 121 -30l-7 -55q-62 38 -113 38q-102 0 -102 -76q0 -26 31.5 -47.5t69.5 -36t69.5 -45t31.5 -71.5q0 -70 -52 -106q-53 -35 -128 -35q-80 0 -139 38z
M226 587l87 85h64l-150 -143h-15l-115 143h62z" />
    <glyph glyph-name="Tcommaaccent" unicode="&#x162;" horiz-adv-x="513" 
d="M158 -93l-13 8l48 89l85 606h-213l8 52h483l-8 -52h-212l-85 -610h-22l-30 -50q51 -1 76 -19t25 -48q0 -41 -38 -70t-89 -29q-38 0 -78 17l5 42q38 -18 78 -18q32 0 50 13.5t18 34.5q0 18 -16 28t-40 10q-20 0 -32 -4z" />
    <glyph glyph-name="tcommaaccent" unicode="&#x163;" horiz-adv-x="314" 
d="M61 -93l-13 8l53 98q-33 30 -21 114l38 271h-74l6 37l75 10l52 134h23l-19 -134h124l-7 -47h-124l-38 -271q-14 -61 24.5 -78t115.5 25l-8 -54q-44 -29 -92 -29q-27 0 -45 6l-29 -47q51 -1 76 -19t25 -48q0 -41 -38 -70t-89 -29q-38 0 -78 17l5 42q37 -18 78 -18
q32 0 50 13.5t18 34.5q0 18 -16 28t-40 10q-20 0 -32 -4z" />
    <glyph glyph-name="Tcaron" unicode="&#x164;" horiz-adv-x="513" 
d="M331 782l90 79h64l-151 -133h-16l-118 133h66zM556 662l-8 -52h-212l-85 -610h-58l85 610h-213l8 52h483z" />
    <glyph glyph-name="tcaron" unicode="&#x165;" horiz-adv-x="298" 
d="M125 445l52 134h23l-19 -134h124l-7 -47h-124l-38 -271q-14 -61 24.5 -78t115.5 25l-8 -54q-44 -29 -92 -29q-63 0 -84 33.5t-12 102.5l38 271h-74l6 37zM339 710q15 0 24.5 -9t9.5 -25q0 -42 -79 -161l-31 5l49 113q-19 6 -19 31q0 18 14.5 32t31.5 14z" />
    <glyph glyph-name="Tbar" unicode="&#x166;" horiz-adv-x="513" 
d="M556 662l-8 -52h-212l-31 -224h161l-7 -49h-161l-47 -337h-58l47 337h-162l7 49h162l31 224h-212l8 52h482z" />
    <glyph glyph-name="tbar" unicode="&#x167;" horiz-adv-x="318" 
d="M124 445l55 133h21l-19 -133h123l-7 -47h-123l-13 -97h116l-6 -44h-116l-19 -131q-6 -43 5.5 -63t47.5 -20q39 0 85 28l-7 -51q-44 -29 -92 -29q-63 0 -84 34t-12 101l19 131h-69l6 44h69l13 97h-73l8 36z" />
    <glyph glyph-name="Utilde" unicode="&#x168;" horiz-adv-x="662" 
d="M539 246l59 416h56l-60 -422q-16 -117 -88.5 -183.5t-194.5 -66.5q-116 0 -171.5 69.5t-38.5 189.5l57 413h56l-58 -412q-13 -98 27.5 -152t135.5 -54q97 0 152 53t68 149zM546 851l23 -31q-34 -70 -88 -70q-23 0 -62 24q-37 24 -52 24q-29 0 -61 -54l-26 31q39 71 91 71
q25 0 62 -24q39 -24 53 -24q28 0 60 53z" />
    <glyph glyph-name="utilde" unicode="&#x169;" horiz-adv-x="511" 
d="M74 179l37 266h56l-35 -255q-21 -150 93 -150q64 0 107.5 56t58.5 149l30 200h56l-62 -445h-42l1 79h-4q-62 -89 -155 -89q-81 0 -117 49t-24 140zM447 645l23 -31q-34 -70 -88 -70q-24 0 -62 24q-37 24 -52 24q-30 0 -61 -54l-26 31q39 71 91 71q24 0 62 -24
q39 -24 53 -24q28 0 60 53z" />
    <glyph glyph-name="Umacron" unicode="&#x16a;" horiz-adv-x="662" 
d="M539 246l59 416h56l-60 -422q-16 -117 -88.5 -183.5t-194.5 -66.5q-116 0 -171.5 69.5t-38.5 189.5l57 413h56l-58 -412q-13 -98 27.5 -152t135.5 -54q97 0 152 53t68 149zM556 759h-273l7 51h273z" />
    <glyph glyph-name="umacron" unicode="&#x16b;" horiz-adv-x="511" 
d="M74 179l37 266h56l-35 -255q-21 -150 93 -150q64 0 107.5 56t58.5 149l30 200h56l-62 -445h-42l1 79h-4q-62 -89 -155 -89q-81 0 -117 49t-24 140zM433 552h-259l7 48h259z" />
    <glyph glyph-name="Ubreve" unicode="&#x16c;" horiz-adv-x="662" 
d="M539 246l59 416h56l-60 -422q-16 -117 -88.5 -183.5t-194.5 -66.5q-116 0 -171.5 69.5t-38.5 189.5l57 413h56l-58 -412q-13 -98 27.5 -152t135.5 -54q97 0 152 53t68 149zM505 850h46q-10 -58 -49 -96.5t-97 -38.5q-54 0 -82 38.5t-22 96.5h46q-5 -41 12 -68t51 -27
q75 0 95 95z" />
    <glyph glyph-name="ubreve" unicode="&#x16d;" horiz-adv-x="511" 
d="M74 179l37 266h56l-35 -255q-21 -150 93 -150q64 0 107.5 56t58.5 149l30 200h56l-62 -445h-42l1 79h-4q-62 -89 -155 -89q-81 0 -117 49t-24 140zM402 662h46q-10 -58 -49 -96.5t-97 -38.5q-54 0 -82 38.5t-22 96.5h46q-5 -41 12 -68t51 -27q75 0 95 95z" />
    <glyph glyph-name="Uring" unicode="&#x16e;" horiz-adv-x="662" 
d="M539 246l59 416h56l-60 -422q-16 -117 -88.5 -183.5t-194.5 -66.5q-116 0 -171.5 69.5t-38.5 189.5l57 413h56l-58 -412q-13 -98 27.5 -152t135.5 -54q97 0 152 53t68 149zM437 902q34 0 55 -21t21 -54q0 -40 -30 -69q-29 -29 -70 -29q-35 0 -54.5 18.5t-19.5 51.5
q0 42 29.5 72.5t68.5 30.5zM433 868q-24 0 -41.5 -19t-17.5 -43q0 -19 12 -31.5t32 -12.5q26 0 42.5 18t16.5 43q0 19 -12 32t-32 13z" />
    <glyph glyph-name="uring" unicode="&#x16f;" horiz-adv-x="511" 
d="M74 179l37 266h56l-35 -255q-21 -150 93 -150q64 0 107.5 56t58.5 149l30 200h56l-62 -445h-42l1 79h-4q-62 -89 -155 -89q-81 0 -117 49t-24 140zM328 693q34 0 55 -21t21 -54q0 -40 -30 -69q-29 -29 -70 -29q-35 0 -54.5 18.5t-19.5 51.5q0 42 29.5 72.5t68.5 30.5z
M324 659q-24 0 -41.5 -19t-17.5 -43q0 -19 12 -31.5t32 -12.5q26 0 42.5 18t16.5 43q0 19 -12 32t-32 13z" />
    <glyph glyph-name="Uhungarumlaut" unicode="&#x170;" horiz-adv-x="662" 
d="M539 246l59 416h56l-60 -422q-16 -117 -88.5 -183.5t-194.5 -66.5q-116 0 -171.5 69.5t-38.5 189.5l57 413h56l-58 -412q-13 -98 27.5 -152t135.5 -54q97 0 152 53t68 149zM500 852l-150 -119h-50l138 137zM618 852l-150 -119h-50l137 137z" />
    <glyph glyph-name="uhungarumlaut" unicode="&#x171;" horiz-adv-x="511" 
d="M74 179l37 266h56l-35 -255q-21 -150 93 -150q64 0 107.5 56t58.5 149l30 200h56l-62 -445h-42l1 79h-4q-62 -89 -155 -89q-81 0 -117 49t-24 140zM390 664l-137 -133h-45l123 151zM490 664l-137 -133h-45l123 151z" />
    <glyph glyph-name="Uogonek" unicode="&#x172;" horiz-adv-x="662" 
d="M283 -180q44 0 102 34l-11 -45q-51 -30 -110 -30q-74 0 -74 60q0 80 104 152q-108 5 -159 73.5t-35 184.5l57 413h56l-58 -412q-13 -98 27.5 -152t135.5 -54q97 0 152 53t68 149l59 416h56l-60 -422q-15 -110 -79.5 -175t-174.5 -73q-44 -33 -69.5 -71t-25.5 -66
q0 -35 39 -35z" />
    <glyph glyph-name="uogonek" unicode="&#x173;" horiz-adv-x="511" 
d="M329 -171q44 0 102 34l-11 -45q-51 -30 -110 -30q-74 0 -74 60q0 92 137 172l1 59h-4q-62 -89 -155 -89q-81 0 -117 49t-24 140l37 266h56l-35 -255q-21 -150 93 -150q64 0 107.5 56t58.5 149l30 200h56l-62 -445h-30q-44 -32 -69.5 -70t-25.5 -66q0 -35 39 -35z" />
    <glyph glyph-name="Wcircumflex" unicode="&#x174;" horiz-adv-x="868" 
d="M574 -7l-102 527h-4l-247 -527h-14l-141 667h56l108 -526h5l248 531h12l101 -531h5l256 526h57l-329 -667h-11zM522 861l113 -133h-66l-60 74l-93 -74h-66l156 133h16z" />
    <glyph glyph-name="wcircumflex" unicode="&#x175;" horiz-adv-x="685" 
d="M169 111l190 334h9l98 -334h4l173 334h54l-241 -451h-10l-98 335h-3l-192 -335h-11l-112 451h57l79 -334h3zM409 672l110 -143h-59l-64 83l-95 -83h-62l155 143h15z" />
    <glyph glyph-name="Ycircumflex" unicode="&#x176;" horiz-adv-x="529" 
d="M127 662l156 -311h4l227 311h63l-268 -367l-41 -295h-57l41 295l-184 367h59zM353 860l113 -133h-66l-60 74l-93 -74h-66l156 133h16z" />
    <glyph glyph-name="ycircumflex" unicode="&#x177;" horiz-adv-x="422" 
d="M85 445l94 -366h5l196 366h59l-361 -660h-58l126 230l-120 430h59zM279 673l110 -143h-59l-64 83l-95 -83h-62l155 143h15z" />
    <glyph glyph-name="Ydieresis" unicode="&#x178;" horiz-adv-x="529" 
d="M127 662l156 -311h4l227 311h63l-268 -367l-41 -295h-57l41 295l-184 367h59zM264 816q13 0 21.5 -8.5t8.5 -22.5q0 -18 -12 -30.5t-28 -12.5q-15 0 -24.5 8.5t-9.5 22.5q0 16 13.5 29.5t30.5 13.5zM420 816q31 0 31 -31q0 -18 -12 -30.5t-29 -12.5q-15 0 -24 8.5
t-9 22.5q0 16 13 29.5t30 13.5z" />
    <glyph glyph-name="Zacute" unicode="&#x179;" horiz-adv-x="490" 
d="M117 662h408l-2 -12l-440 -598h359l-7 -52h-450l1 9l444 601h-321zM457 844l-144 -111h-50l131 129z" />
    <glyph glyph-name="zacute" unicode="&#x17a;" horiz-adv-x="390" 
d="M64 445h328l-2 -12l-326 -387h268l-6 -46h-356l1 11l330 388h-243zM356 661l-129 -130h-46l119 148z" />
    <glyph glyph-name="Zdotaccent" unicode="&#x17b;" horiz-adv-x="490" 
d="M117 662h408l-2 -12l-440 -598h359l-7 -52h-450l1 9l444 601h-321zM345 838q14 0 22.5 -9.5t8.5 -23.5q0 -19 -12.5 -31.5t-29.5 -12.5q-16 0 -25 9t-9 23q0 17 13.5 31t31.5 14z" />
    <glyph glyph-name="zdotaccent" unicode="&#x17c;" horiz-adv-x="390" 
d="M64 445h328l-2 -12l-326 -387h268l-6 -46h-356l1 11l330 388h-243zM251 628q14 0 22.5 -9.5t8.5 -23.5q0 -19 -12.5 -31.5t-29.5 -12.5q-16 0 -25 9t-9 23q0 17 13.5 31t31.5 14z" />
    <glyph glyph-name="Zcaron" unicode="&#x17d;" horiz-adv-x="490" 
d="M333 782l90 79h64l-151 -133h-16l-118 133h66zM117 662h408l-2 -12l-440 -598h359l-7 -52h-450l1 9l444 601h-321z" />
    <glyph glyph-name="zcaron" unicode="&#x17e;" horiz-adv-x="390" 
d="M241 587l87 85h64l-150 -143h-15l-115 143h62zM64 445h328l-2 -12l-326 -387h268l-6 -46h-356l1 11l330 388h-243z" />
    <glyph glyph-name="longs" unicode="&#x17f;" horiz-adv-x="224" 
d="M379 713l-2 -51q-42 15 -79 15q-99 0 -116 -128l-102 -749h-55l80 598h-80l5 34l82 13l14 99q26 180 182 180q36 0 71 -11z" />
    <glyph glyph-name="florin" unicode="&#x192;" horiz-adv-x="529" 
d="M254 356h-79l3 43h86l17 95q17 90 56.5 133t105.5 43q31 0 64 -12v-49q-39 12 -63 12q-45 0 -70 -30t-38 -98l-18 -94h95l-3 -43h-100l-38 -187q-29 -148 -64 -201q-36 -55 -105 -55q-35 0 -72 15v57q43 -18 72 -18q49 0 69 44q20 41 52 197z" />
    <glyph glyph-name="AEacute" unicode="&#x1fc;" horiz-adv-x="936" 
d="M886 53l-6 -53h-432l19 161h-298l-148 -161h-68l614 662h358l-7 -52h-342l-28 -234h323l-5 -52h-323l-32 -271h375zM509 526h-4l-291 -316h258zM786 844l-144 -111h-50l131 129z" />
    <glyph glyph-name="aeacute" unicode="&#x1fd;" horiz-adv-x="767" 
d="M588 454q69 0 109 -35t40 -88q0 -62 -66 -101.5t-194 -39.5q-49 0 -74 3q-1 -3 -1 -16q0 -65 33.5 -102t97.5 -37q101 0 175 62l-10 -59q-76 -51 -168 -51q-138 0 -175 112q-71 -113 -201 -113q-73 0 -109 32.5t-36 81.5q0 47 21.5 81.5t59.5 50.5q73 30 156 30h101l4 28
q8 55 -20.5 85t-88.5 30q-68 0 -150 -43l7 52q75 39 152 39q131 0 155 -90q72 88 182 88zM337 195l4 26h-96q-41 0 -81 -8q-40 -9 -68.5 -36t-28.5 -66q0 -35 28.5 -54t77.5 -19q67 0 109.5 43.5t54.5 113.5zM587 404q-67 0 -115 -44.5t-64 -119.5q38 -5 78 -5
q94 0 143 26.5t49 67.5q0 34 -23.5 54.5t-67.5 20.5zM581 661l-129 -130h-46l119 148z" />
    <glyph glyph-name="Oslashacute" unicode="&#x1fe;" horiz-adv-x="752" 
d="M431 671q109 0 183 -60l44 51h54l-68 -79q67 -77 67 -202q0 -164 -107 -277q-106 -112 -260 -112q-100 0 -167 46l-33 -38h-55l55 64q-81 78 -81 213q0 162 107 278t261 116zM429 619q-126 0 -215 -101q-88 -100 -88 -239q0 -105 57 -170l392 457q-59 53 -146 53z
M648 380q0 90 -45 155l-389 -454q55 -38 129 -38q126 0 215 98q90 98 90 239zM600 844l-144 -111h-50l131 129z" />
    <glyph glyph-name="oslashacute" unicode="&#x1ff;" horiz-adv-x="521" 
d="M287 455q81 0 130 -46l34 35h52l-61 -63q33 -49 33 -123q0 -112 -69 -191q-68 -78 -176 -78q-80 0 -130 41l-29 -30h-53l57 58q-37 49 -37 126q0 114 69 192q69 79 180 79zM286 406q-84 0 -136 -64q-52 -62 -52 -156q0 -50 18 -86l262 270q-36 36 -92 36zM420 255
q0 47 -19 84l-262 -269q31 -34 92 -34q84 0 136 64q53 65 53 155zM449 661l-129 -130h-46l119 148z" />
    <glyph glyph-name="Scommaaccent" unicode="&#x218;" horiz-adv-x="475" 
d="M5 44l8 62q81 -63 177 -63q83 0 133 37t50 107q0 38 -21.5 67.5t-54 47.5t-70 37.5t-70 37.5t-54 47.5t-21.5 67.5q0 46 20.5 82.5t53 57t68.5 30.5t71 10q94 0 159 -41l-9 -62q-65 50 -150 50q-59 0 -106 -30q-46 -28 -46 -92q0 -57 102 -106q34 -16 52.5 -25.5
t48.5 -29t46 -37.5t28.5 -45t12.5 -58q0 -104 -70 -155q-71 -51 -174 -51q-111 0 -184 54zM187 -45q15 0 24.5 -9t9.5 -25q0 -42 -79 -161l-31 5l49 113q-19 6 -19 31q0 18 14.5 32t31.5 14z" />
    <glyph glyph-name="scommaaccent" unicode="&#x219;" horiz-adv-x="362" 
d="M-7 29l4 56q58 -48 136 -48q121 0 121 88q0 25 -21 45t-50.5 34t-59 29t-50.5 39t-21 55q0 66 48 97q47 31 111 31q67 0 121 -30l-7 -55q-62 38 -113 38q-102 0 -102 -76q0 -26 31.5 -47.5t69.5 -36t69.5 -45t31.5 -71.5q0 -70 -52 -106q-53 -35 -128 -35q-80 0 -139 38z
M130 -45q15 0 24.5 -9t9.5 -25q0 -42 -79 -161l-31 5l49 113q-19 6 -19 31q0 18 14.5 32t31.5 14z" />
    <glyph glyph-name="uni021A" unicode="&#x21a;" horiz-adv-x="513" 
d="M556 662l-8 -52h-212l-85 -610h-58l85 610h-213l8 52h483zM209 -45q15 0 24.5 -9t9.5 -25q0 -42 -79 -161l-31 5l49 113q-19 6 -19 31q0 18 14.5 32t31.5 14z" />
    <glyph glyph-name="uni021B" unicode="&#x21b;" horiz-adv-x="314" 
d="M125 445l52 134h23l-19 -134h124l-7 -47h-124l-38 -271q-14 -61 24.5 -78t115.5 25l-8 -54q-44 -29 -92 -29q-63 0 -84 33.5t-12 102.5l38 271h-74l6 37zM94 -45q15 0 24.5 -9t9.5 -25q0 -42 -79 -161l-31 5l49 113q-19 6 -19 31q0 18 14.5 32t31.5 14z" />
    <glyph glyph-name="schwa" unicode="&#x259;" horiz-adv-x="467" 
d="M177 -10q-69 0 -109 35t-40 88q0 62 66 101.5t194 39.5q48 0 74 -3q1 3 1 16q0 65 -33.5 102t-97.5 37q-101 0 -175 -62l10 59q77 51 168 51q90 0 138 -50.5t48 -139.5q0 -116 -69 -195t-175 -79zM178 40q67 0 115 44.5t64 119.5q-38 5 -78 5q-94 0 -143 -26.5t-49 -67.5
q0 -34 23.5 -54.5t67.5 -20.5z" />
    <glyph glyph-name="primemod" unicode="&#x2b9;" horiz-adv-x="203" 
d="M244 663l-152 -238h-42l139 257z" />
    <glyph glyph-name="circumflex" unicode="&#x2c6;" horiz-adv-x="460" 
d="M300 672l110 -143h-59l-64 83l-95 -83h-62l155 143h15z" />
    <glyph glyph-name="caron" unicode="&#x2c7;" horiz-adv-x="460" 
d="M269 587l87 85h64l-150 -143h-15l-115 143h62z" />
    <glyph glyph-name="breve" unicode="&#x2d8;" horiz-adv-x="460" 
d="M367 672h46q-10 -58 -49 -96.5t-97 -38.5q-54 0 -82 38.5t-22 96.5h46q-5 -41 12 -68t51 -27q75 0 95 95z" />
    <glyph glyph-name="dotaccent" unicode="&#x2d9;" horiz-adv-x="418" 
d="M304 628q14 0 22.5 -9.5t8.5 -23.5q0 -19 -12.5 -31.5t-29.5 -12.5q-16 0 -25 9t-9 23q0 17 13.5 31t31.5 14z" />
    <glyph glyph-name="ring" unicode="&#x2da;" horiz-adv-x="460" 
d="M288 703q34 0 55 -21t21 -54q0 -40 -30 -69q-29 -29 -70 -29q-35 0 -54.5 18.5t-19.5 51.5q0 42 29.5 72.5t68.5 30.5zM284 669q-24 0 -41.5 -19t-17.5 -43q0 -19 12 -31.5t32 -12.5q26 0 42.5 18t16.5 43q0 19 -12 32t-32 13z" />
    <glyph glyph-name="ogonek" unicode="&#x2db;" horiz-adv-x="513" 
d="M241 -171q44 0 102 34l-11 -45q-51 -30 -110 -30q-74 0 -74 60q0 104 168 189l6 -20q-54 -35 -87 -78.5t-33 -74.5q0 -35 39 -35z" />
    <glyph glyph-name="tilde" unicode="&#x2dc;" horiz-adv-x="460" 
d="M387 645l23 -31q-34 -70 -88 -70q-24 0 -62 24q-37 24 -52 24q-30 0 -61 -54l-26 31q39 71 91 71q24 0 62 -24q39 -24 53 -24q28 0 60 53z" />
    <glyph glyph-name="hungarumlaut" unicode="&#x2dd;" horiz-adv-x="460" 
d="M349 664l-137 -133h-45l123 151zM449 664l-137 -133h-45l123 151z" />
    <glyph glyph-name="tonos" unicode="&#x384;" horiz-adv-x="460" 
d="M409 664l-137 -133h-46l123 151z" />
    <glyph glyph-name="dieresistonos" unicode="&#x385;" horiz-adv-x="460" 
d="M191 624q14 0 23 -9.5t9 -23.5q0 -18 -12 -30.5t-30 -12.5q-14 0 -23 9.5t-9 23.5q0 17 13 30t29 13zM401 624q14 0 23.5 -9.5t9.5 -23.5q0 -17 -13 -30t-30 -13q-13 0 -22.5 9t-9.5 23q0 18 13 31t29 13zM386 653l-135 -133h-46l123 151z" />
    <glyph glyph-name="Alphatonos" unicode="&#x386;" horiz-adv-x="600" 
d="M550 0h-57l-42 161h-322l-87 -161h-62l372 665h14zM346 545h-4l-185 -335h280zM225 663l-137 -133h-46l123 151z" />
    <glyph glyph-name="anoteleia" unicode="&#x387;" horiz-adv-x="188" 
d="M114 396q18 0 28.5 -11t10.5 -29q0 -21 -16 -36.5t-36 -15.5q-17 0 -28 10.5t-11 27.5q0 22 15.5 38t36.5 16z" />
    <glyph glyph-name="Epsilontonos" unicode="&#x388;" horiz-adv-x="545" 
d="M113 53h374l-7 -53h-432l93 662h406l-8 -52h-348l-33 -234h324l-7 -52h-324zM94 663l-137 -133h-46l123 151z" />
    <glyph glyph-name="Etatonos" unicode="&#x389;" horiz-adv-x="655" 
d="M629 662l-93 -662h-56l45 324h-375l-45 -324h-57l93 662h57l-41 -286h375l41 286h56zM92 662l-137 -133h-46l123 151z" />
    <glyph glyph-name="Iotatonos" unicode="&#x38a;" horiz-adv-x="243" 
d="M208 662l-93 -662h-57l93 662h57zM111 662l-137 -133h-46l123 151z" />
    <glyph glyph-name="Omicrontonos" unicode="&#x38c;" horiz-adv-x="752" 
d="M431 671q132 0 206 -80t74 -210q0 -164 -107 -277q-106 -112 -260 -112q-131 0 -206 78q-75 80 -75 207q0 162 107 278t261 116zM429 619q-127 0 -216 -101t-89 -239q0 -105 58 -170q58 -66 161 -66q131 0 219 97q89 98 89 240q0 104 -60 171q-60 68 -162 68zM135 662
l-137 -133h-46l123 151z" />
    <glyph glyph-name="Upsilontonos" unicode="&#x38e;" horiz-adv-x="529" 
d="M127 662l156 -311h4l227 311h63l-268 -367l-41 -295h-57l41 295l-184 367h59zM49 663l-137 -133h-46l123 151z" />
    <glyph glyph-name="Omegatonos" unicode="&#x38f;" horiz-adv-x="763" 
d="M437 621q-137 0 -230 -101q-93 -100 -93 -241q0 -86 38 -162q38 -73 117 -105l-1 -12h-253l7 52h117v4q-84 76 -84 211q-2 108 52.5 203.5t145.5 150.5t191 52q126 0 206 -83q79 -82 79 -208q0 -90 -42 -179q-41 -89 -117 -147v-4h118l-7 -52h-252l1 12q79 29 136 95
q107 124 107 269q0 103 -62 174t-174 71zM127 661l-137 -133h-46l123 151z" />
    <glyph glyph-name="iotadieresistonos" unicode="&#x390;" horiz-adv-x="213" 
d="M59 624q14 0 23 -9.5t9 -23.5q0 -18 -12 -30.5t-30 -12.5q-14 0 -23 9.5t-9 23.5q0 17 13 30t29 13zM269 624q14 0 23.5 -9.5t9.5 -23.5q0 -17 -13 -30t-30 -13q-13 0 -22.5 9t-9.5 23q0 18 13 31t29 13zM254 653l-135 -133h-46l123 151zM161 445l-62 -445h-56l62 445h56
z" />
    <glyph glyph-name="Alpha" unicode="&#x391;" horiz-adv-x="600" 
d="M550 0h-57l-42 161h-322l-87 -161h-62l372 665h14zM346 545h-4l-185 -335h280z" />
    <glyph glyph-name="Beta" unicode="&#x392;" horiz-adv-x="592" 
d="M324 330h-173l-39 -277h183q41 0 73 11t50.5 28t31 39.5t17 42t4.5 39.5q0 54 -39.5 85.5t-107.5 31.5zM368 610h-178l-32 -229h169q22 0 45 6t48.5 19.5t41.5 42.5t16 69q0 43 -28.5 67.5t-81.5 24.5zM428 361v-4q103 -28 103 -141q0 -96 -67 -156q-66 -60 -163 -60
h-253l93 662h229q79 0 123 -35.5t44 -105.5q0 -52 -28.5 -94.5t-80.5 -65.5z" />
    <glyph glyph-name="Gamma" unicode="&#x393;" horiz-adv-x="506" 
d="M541 610h-351l-85 -610h-57l93 662h408z" />
    <glyph glyph-name="increment" unicode="&#x394;" horiz-adv-x="625" 
d="M367 669h11l199 -669h-595zM355 554h-1l-286 -503h433z" />
    <glyph glyph-name="increment" unicode="&#x2206;" horiz-adv-x="625" 
d="M367 669h11l199 -669h-595zM355 554h-1l-286 -503h433z" />
    <glyph glyph-name="Epsilon" unicode="&#x395;" horiz-adv-x="545" 
d="M113 53h374l-7 -53h-432l93 662h406l-8 -52h-348l-33 -234h324l-7 -52h-324z" />
    <glyph glyph-name="Zeta" unicode="&#x396;" horiz-adv-x="490" 
d="M117 662h408l-2 -12l-440 -598h359l-7 -52h-450l1 9l444 601h-321z" />
    <glyph glyph-name="Eta" unicode="&#x397;" horiz-adv-x="655" 
d="M629 662l-93 -662h-56l45 324h-375l-45 -324h-57l93 662h57l-41 -286h375l41 286h56z" />
    <glyph glyph-name="Theta" unicode="&#x398;" horiz-adv-x="752" 
d="M551 322h-337l7 52h337zM431 671q132 0 206 -80t74 -210q0 -164 -107 -277q-106 -112 -260 -112q-131 0 -206 78q-75 80 -75 207q0 162 107 278t261 116zM429 619q-126 0 -215 -101q-88 -100 -88 -239q0 -104 57 -170q59 -66 160 -66q126 0 215 98q90 98 90 239
q0 104 -59 172q-58 67 -160 67z" />
    <glyph glyph-name="Iota" unicode="&#x399;" horiz-adv-x="243" 
d="M208 662l-93 -662h-57l93 662h57z" />
    <glyph glyph-name="Kappa" unicode="&#x39a;" horiz-adv-x="568" 
d="M141 662h57l-45 -314l363 314h70l-361 -318l299 -344h-81l-291 339l-47 -339h-57z" />
    <glyph glyph-name="Lambda" unicode="&#x39b;" horiz-adv-x="600" 
d="M550 0h-59l-149 546h-4l-300 -546h-58l374 669h12z" />
    <glyph glyph-name="Mu" unicode="&#x39c;" horiz-adv-x="799" 
d="M695 511l-303 -358h-14l-202 369l-2 -3l-72 -519h-54l93 667h15l237 -438l366 438h14l-93 -667h-54l71 509z" />
    <glyph glyph-name="Nu" unicode="&#x39d;" horiz-adv-x="707" 
d="M179 542l-76 -542h-55l94 671h15l389 -546h4l76 537h55l-94 -669h-14l-391 549h-3z" />
    <glyph glyph-name="Xi" unicode="&#x39e;" horiz-adv-x="555" 
d="M-1 0l7 56h486l-7 -56h-486zM101 324l8 54h376l-8 -54h-376zM566 662l-8 -54h-461l8 54h461z" />
    <glyph glyph-name="Omicron" unicode="&#x39f;" horiz-adv-x="752" 
d="M431 671q132 0 206 -80t74 -210q0 -164 -107 -277q-106 -112 -260 -112q-131 0 -206 78q-75 80 -75 207q0 162 107 278t261 116zM429 619q-127 0 -216 -101t-89 -239q0 -105 58 -170q58 -66 161 -66q131 0 219 97q89 98 89 240q0 104 -60 171q-60 68 -162 68z" />
    <glyph glyph-name="Pi" unicode="&#x3a0;" horiz-adv-x="661" 
d="M635 662l-93 -662h-57l85 610h-380l-85 -610h-57l93 662h494z" />
    <glyph glyph-name="Rho" unicode="&#x3a1;" horiz-adv-x="555" 
d="M105 0h-58l92 661h213q96 0 147 -51.5t51 -136.5q0 -111 -78 -176q-77 -64 -183 -64h-152zM325 613h-134l-47 -332h141q53 0 93.5 17.5t64 46.5t35 62t11.5 68q0 64 -40 101t-124 37z" />
    <glyph glyph-name="Sigma" unicode="&#x3a3;" horiz-adv-x="529" 
d="M180 610l129 -251l-224 -307h401l-7 -52h-490l1 9l254 348l-151 293l2 12h460l-8 -52h-367z" />
    <glyph glyph-name="Tau" unicode="&#x3a4;" horiz-adv-x="513" 
d="M556 662l-8 -52h-212l-85 -610h-58l85 610h-213l8 52h483z" />
    <glyph glyph-name="Upsilon" unicode="&#x3a5;" horiz-adv-x="529" 
d="M127 662l156 -311h4l227 311h63l-268 -367l-41 -295h-57l41 295l-184 367h59z" />
    <glyph glyph-name="Phi" unicode="&#x3a6;" horiz-adv-x="802" 
d="M337 0l9 68q-122 4 -203 70q-79 64 -79 168q0 129 107 218q106 88 252 94l7 44h57l-7 -44q130 -8 207 -72q76 -64 76 -168q0 -130 -102 -215q-103 -85 -258 -95l-9 -68h-57zM473 567l-62 -446q126 4 212 75q85 70 85 177q0 83 -65 136q-64 52 -170 58zM354 121l62 445
q-128 -8 -210 -78q-82 -69 -82 -177q0 -82 60.5 -132t169.5 -58z" />
    <glyph glyph-name="Chi" unicode="&#x3a7;" horiz-adv-x="594" 
d="M549 0h-71l-170 332l-259 -332h-74l279 345l-170 316h60l165 -304l247 304h68l-260 -319z" />
    <glyph glyph-name="Psi" unicode="&#x3a8;" horiz-adv-x="716" 
d="M393 194l-27 -194h-57l27 194q-114 10 -174 84t-44 185l29 199h56l-28 -197q-13 -86 31 -149q45 -61 137 -67l59 413h57l-59 -413q95 5 157 63.5t74 149.5l29 200h57l-30 -208q-15 -110 -95 -182q-79 -72 -199 -78z" />
    <glyph glyph-name="Omega" unicode="&#x3a9;" horiz-adv-x="763" 
d="M437 621q-137 0 -230 -101q-93 -100 -93 -241q0 -86 38 -162q38 -73 117 -105l-1 -12h-253l7 52h117v4q-84 76 -84 211q-2 108 52.5 203.5t145.5 150.5t191 52q126 0 206 -83q79 -82 79 -208q0 -90 -42 -179q-41 -89 -117 -147v-4h118l-7 -52h-252l1 12q79 29 136 95
q107 124 107 269q0 103 -62 174t-174 71z" />
    <glyph glyph-name="Iotadieresis" unicode="&#x3aa;" horiz-adv-x="243" 
d="M120 832q13 0 21.5 -8.5t8.5 -22.5q0 -18 -12 -30.5t-28 -12.5q-15 0 -24.5 8.5t-9.5 22.5q0 16 13.5 29.5t30.5 13.5zM276 832q31 0 31 -31q0 -18 -12 -30.5t-29 -12.5q-15 0 -24 8.5t-9 22.5q0 16 13 29.5t30 13.5zM208 662l-93 -662h-57l93 662h57z" />
    <glyph glyph-name="Upsilondieresis" unicode="&#x3ab;" horiz-adv-x="529" 
d="M127 662l156 -311h4l227 311h63l-268 -367l-41 -295h-57l41 295l-184 367h59zM264 809q13 0 21.5 -8.5t8.5 -22.5q0 -18 -12 -30.5t-28 -12.5q-15 0 -24.5 8.5t-9.5 22.5q0 16 13.5 29.5t30.5 13.5zM420 809q31 0 31 -31q0 -18 -12 -30.5t-29 -12.5q-15 0 -24 8.5
t-9 22.5q0 16 13 29.5t30 13.5z" />
    <glyph glyph-name="alphatonos" unicode="&#x3ac;" horiz-adv-x="539" 
d="M274 408q-82 0 -131 -67q-48 -66 -48 -155q0 -71 32 -110.5t94 -39.5q79 0 132 63q53 64 53 160q0 67 -35 108t-97 41zM211 -11q-86 0 -130 54q-43 53 -43 133q0 124 67 200q68 77 170 77t149 -86q3 0 4 1l25 77h36l-62 -445h-41l-3 67l-3 1q-67 -79 -169 -79zM445 664
l-137 -133h-46l123 151z" />
    <glyph glyph-name="epsilontonos" unicode="&#x3ad;" horiz-adv-x="401" 
d="M251 456q69 0 125 -30l-7 -54q-56 36 -128 36q-51 0 -84.5 -23.5t-33.5 -64.5q0 -26 21.5 -39.5t52.5 -13.5h73l-7 -47h-59q-57 0 -89.5 -29t-32.5 -74q0 -37 29.5 -58.5t88.5 -21.5q77 0 148 49l-8 -57q-70 -39 -149 -39q-80 0 -123 31.5t-43 83.5q0 34 23 74
q22 39 74 59v3q-56 23 -56 75q0 58 53 99t132 41zM386 664l-137 -133h-46l123 151z" />
    <glyph glyph-name="etatonos" unicode="&#x3ae;" horiz-adv-x="524" 
d="M453 266l-69 -482h-56l67 471q21 150 -93 150q-66 0 -115 -57q-50 -57 -63 -148l-30 -200h-56l62 445h42l-1 -79h4q72 89 167 89q81 0 117 -49t24 -140zM416 664l-137 -133h-46l123 151z" />
    <glyph glyph-name="iotatonos" unicode="&#x3af;" horiz-adv-x="213" 
d="M161 445l-62 -445h-56l62 445h56zM288 664l-137 -133h-46l123 151z" />
    <glyph glyph-name="upsilondieresistonos" unicode="&#x3b0;" horiz-adv-x="508" 
d="M388 189l36 256h56l-36 -256q-13 -94 -68.5 -146.5t-144.5 -52.5q-90 0 -130 54.5t-26 154.5l35 246h53l-36 -253q-10 -72 17.5 -112t93.5 -40q63 0 101.5 39t48.5 110zM216 624q14 0 23 -9.5t9 -23.5q0 -18 -12 -30.5t-30 -12.5q-14 0 -23 9.5t-9 23.5q0 17 13 30t29 13
zM426 624q14 0 23.5 -9.5t9.5 -23.5q0 -17 -13 -30t-30 -13q-14 0 -23 9t-9 23q0 18 13 31t29 13zM411 653l-135 -133h-46l123 151z" />
    <glyph glyph-name="alpha" unicode="&#x3b1;" horiz-adv-x="539" 
d="M274 408q-82 0 -131 -67q-48 -66 -48 -155q0 -71 32 -110.5t94 -39.5q79 0 132 63q53 64 53 160q0 67 -35 108t-97 41zM211 -11q-86 0 -130 54q-43 53 -43 133q0 124 67 200q68 77 170 77t149 -86q3 0 4 1l25 77h36l-62 -445h-41l-3 67l-3 1q-67 -79 -169 -79z" />
    <glyph glyph-name="beta" unicode="&#x3b2;" horiz-adv-x="525" 
d="M316 724q72 0 114.5 -39.5t42.5 -105.5q0 -48 -26.5 -88.5t-72.5 -65.5v-5q46 -15 76 -61.5t30 -106.5q0 -101 -69 -182q-69 -80 -173 -80q-56 0 -95.5 23.5t-55.5 61.5h-3l-41 -290h-55l102 723q13 97 74 156q60 60 152 60zM145 509l-41 -292q-11 -79 25 -129.5
t109 -50.5q77 0 131 60q54 61 54 160q0 67 -42.5 102t-109.5 35h-28l7 48h31q40 0 68.5 14.5t42 37t19 42.5t5.5 39q0 48 -30 75t-74 27q-43 0 -77 -17q-44 -25 -62 -61.5t-28 -89.5z" />
    <glyph glyph-name="gamma" unicode="&#x3b3;" horiz-adv-x="425" 
d="M96 445l92 -339h6l192 339h57l-234 -409l-36 -251h-55l35 247l-118 413h61z" />
    <glyph glyph-name="delta" unicode="&#x3b4;" horiz-adv-x="543" 
d="M345 724q80 0 142 -35l-8 -53q-65 41 -131 41q-59 0 -97 -26.5t-38 -75.5q0 -34 31 -59q20 -15 71 -40l42 -20q15 -7 40 -22q26 -15 39 -29q65 -59 59 -140q0 -113 -77 -195q-77 -80 -184 -80q-92 0 -144 52t-52 139q0 82 52 161q53 81 147 109v4q-36 16 -59 48.5
t-23 71.5q0 64 53 106q52 43 137 43zM241 37q85 0 141 65q56 67 56 153q0 125 -144 170q-95 -17 -147 -89q-52 -71 -52 -149q0 -68 38.5 -109t107.5 -41z" />
    <glyph glyph-name="epsilon" unicode="&#x3b5;" horiz-adv-x="401" 
d="M251 456q69 0 125 -30l-7 -54q-56 36 -128 36q-51 0 -84.5 -23.5t-33.5 -64.5q0 -26 21.5 -39.5t52.5 -13.5h73l-7 -47h-59q-57 0 -89.5 -29t-32.5 -74q0 -37 29.5 -58.5t88.5 -21.5q77 0 148 49l-8 -57q-70 -39 -149 -39q-80 0 -123 31.5t-43 83.5q0 34 23 74
q22 39 74 59v3q-56 23 -56 75q0 58 53 99t132 41z" />
    <glyph glyph-name="zeta" unicode="&#x3b6;" horiz-adv-x="378" 
d="M277 47q49 -21 68.5 -38.5t19.5 -41.5q0 -21 -29.5 -61t-72.5 -75l-39 16q77 85 77 112q0 11 -18 21.5t-77 35.5q-89 37 -130 72q-40 36 -40 96q0 87 101 220q100 131 259 257l-1 4h-271l6 46h383l-1 -13q-189 -147 -304 -281q-116 -136 -116 -220q0 -49 40 -77
q39 -28 145 -73z" />
    <glyph glyph-name="eta" unicode="&#x3b7;" horiz-adv-x="524" 
d="M453 266l-69 -482h-56l67 471q21 150 -93 150q-66 0 -115 -57q-50 -57 -63 -148l-30 -200h-56l62 445h42l-1 -79h4q72 89 167 89q81 0 117 -49t24 -140z" />
    <glyph glyph-name="theta" unicode="&#x3b8;" horiz-adv-x="536" 
d="M501 353q-22 -164 -94 -265q-71 -98 -181 -98q-86 0 -129 64.5t-43 182.5q0 128 31 236q31 109 96 180t152 71q86 0 131 -68t45 -191q0 -43 -8 -112zM326 675q-74 0 -125 -79q-52 -81 -74 -202h323q4 43 4 69q0 99 -33 155.5t-95 56.5zM445 346h-326q-6 -51 -6 -97
q0 -211 121 -211q56 1 100.5 43.5t71 109.5t39.5 155z" />
    <glyph glyph-name="iota" unicode="&#x3b9;" horiz-adv-x="213" 
d="M161 445l-62 -445h-56l62 445h56z" />
    <glyph glyph-name="kappa" unicode="&#x3ba;" horiz-adv-x="467" 
d="M393 444h73l-272 -208l234 -236h-83l-222 227l-31 -227h-54l62 444h54l-29 -204z" />
    <glyph glyph-name="lambda" unicode="&#x3bb;" horiz-adv-x="451" 
d="M347 0l-98 368h-4l-204 -368h-66l255 440l-71 271h57l190 -711h-59z" />
    <glyph glyph-name="nu" unicode="&#x3bd;" horiz-adv-x="438" 
d="M450 445l-270 -451h-10l-140 451h60l100 -339h5l196 339h59z" />
    <glyph glyph-name="xi" unicode="&#x3be;" horiz-adv-x="407" 
d="M322 724q81 0 140 -38l-8 -59q-61 49 -136 49q-73 0 -114 -44q-40 -43 -40 -95q0 -51 37 -77t96 -26h96l-6 -47h-101q-83 0 -133 -56q-49 -55 -49 -127q0 -48 39 -77.5t139 -64.5q55 -18 77.5 -36.5t22.5 -43.5q0 -48 -91 -145l-44 14q69 88 69 116q0 14 -16 25t-60 25
q-104 34 -149 73t-45 101q0 65 37 126t110 91l1 5q-88 30 -88 122q0 30 12 61.5t36 61t68 48t100 18.5z" />
    <glyph glyph-name="omicron" unicode="&#x3bf;" horiz-adv-x="521" 
d="M287 455q89 0 138.5 -53.5t49.5 -143.5q0 -112 -69 -191q-68 -78 -176 -78q-91 0 -141.5 53t-50.5 142q0 114 69 192q69 79 180 79zM286 406q-84 0 -136 -64q-52 -62 -52 -156q0 -68 34.5 -109t98.5 -41q84 0 136 64q53 65 53 155q0 67 -36 109t-98 42z" />
    <glyph glyph-name="pi" unicode="&#x3c0;" horiz-adv-x="525" 
d="M479 445l-62 -445h-57l55 393h-266l-55 -393h-56l62 445h379z" />
    <glyph glyph-name="rho" unicode="&#x3c1;" horiz-adv-x="527" 
d="M86 70l-42 -285h-54l60 420q6 44 23 86t45.5 79.5t73.5 60t100 22.5q92 0 140 -54q49 -52 49 -132q0 -122 -69 -200q-69 -77 -166 -77q-112 0 -155 81zM290 407q-82 0 -134 -64q-53 -64 -53 -160q0 -67 35 -106.5t99 -39.5q87 0 137 63q50 64 50 156q0 70 -34.5 110.5
t-99.5 40.5z" />
    <glyph glyph-name="sigma1" unicode="&#x3c2;" horiz-adv-x="395" 
d="M293 456q61 0 103 -20l-7 -59q-40 31 -99 31q-80 0 -139 -56q-58 -55 -58 -157q0 -43 26.5 -75t87.5 -59q94 -41 110 -57q12 -14 12 -27q0 -45 -86 -117l-43 13q61 64 64 85q0 11 -21.5 23t-71.5 34q-72 33 -103 74t-31 101q0 121 73 193q73 73 183 73z" />
    <glyph glyph-name="sigma" unicode="&#x3c3;" horiz-adv-x="540" 
d="M287 445h250l-7 -47h-110l-2 -4q59 -50 59 -143q0 -109 -72 -185q-70 -76 -173 -76q-89 0 -140 51.5t-51 136.5q0 110 72 188q72 79 174 79zM279 397q-80 0 -131 -62q-50 -62 -50 -151q0 -67 37.5 -107t103.5 -40q77 0 129 64q54 65 54 148q0 67 -38 107.5t-105 40.5z
" />
    <glyph glyph-name="tau" unicode="&#x3c4;" horiz-adv-x="358" 
d="M36 399l6 46h320l-6 -46h-149l-39 -272q-6 -43 6 -63t48 -20q43 0 86 28l-8 -52q-41 -29 -92 -29q-63 0 -84 33.5t-12 102.5l39 272h-115z" />
    <glyph glyph-name="upsilon" unicode="&#x3c5;" horiz-adv-x="508" 
d="M388 189l36 256h56l-36 -256q-13 -94 -68.5 -146.5t-144.5 -52.5q-90 0 -130 54.5t-26 154.5l35 246h53l-36 -253q-10 -72 17.5 -112t93.5 -40q63 0 101.5 39t48.5 110z" />
    <glyph glyph-name="phi" unicode="&#x3c6;" horiz-adv-x="661" 
d="M379 408l-52 -369q105 8 167 68q63 61 63 146q0 70 -45 111.5t-133 43.5zM332 455h56q103 0 163 -51t60 -139q0 -110 -79 -186q-79 -77 -211 -86l-30 -211h-53l30 211q-104 1 -165 58q-60 55 -60 140q0 92 56 162q57 69 142 90l31 -40q-81 -16 -128 -76q-47 -59 -47 -131
q0 -67 47.5 -111t129.5 -46z" />
    <glyph glyph-name="chi" unicode="&#x3c7;" horiz-adv-x="436" 
d="M388 0h-64l-117 216l-173 -216h-69l191 228l-119 217h60l113 -205l163 205h68l-181 -216z" />
    <glyph glyph-name="psi" unicode="&#x3c8;" horiz-adv-x="612" 
d="M280 -219h-53l29 209q-97 1 -145 61.5t-34 157.5l33 236h53l-33 -234q-10 -73 24.5 -120t108.5 -50l57 404h53l-57 -404q78 2 124 47.5t58 126.5l32 230h55l-33 -237q-13 -94 -78 -154q-64 -59 -165 -64z" />
    <glyph glyph-name="omega" unicode="&#x3c9;" horiz-adv-x="734" 
d="M345 307h57l-21 -144q-7 -49 15 -87q22 -37 78 -37q65 0 109 65q44 67 44 153q0 65 -32.5 106t-89.5 44l24 48q77 -4 115.5 -56t38.5 -139q0 -98 -53 -178q-26 -41 -69.5 -66t-95.5 -25q-46 0 -78.5 23t-44.5 59h-4q-66 -82 -155 -82q-70 0 -107 46.5t-37 126.5
q0 114 60 200q62 86 163 90l13 -47q-82 -4 -130 -73q-47 -68 -47 -164q0 -61 25 -96t73 -35q53 0 86.5 36.5t42.5 91.5z" />
    <glyph glyph-name="iotadieresis" unicode="&#x3ca;" horiz-adv-x="213" 
d="M82 623q30 0 30 -31q0 -19 -11.5 -31t-28.5 -12q-15 0 -24 8.5t-9 22.5q0 16 13 29.5t30 13.5zM238 623q31 0 31 -31q0 -18 -12 -30.5t-29 -12.5q-32 0 -32 30q0 17 12.5 30.5t29.5 13.5zM161 445l-62 -445h-56l62 445h56z" />
    <glyph glyph-name="upsilondieresis" unicode="&#x3cb;" horiz-adv-x="508" 
d="M388 189l36 256h56l-36 -256q-13 -94 -68.5 -146.5t-144.5 -52.5q-90 0 -130 54.5t-26 154.5l35 246h53l-36 -253q-10 -72 17.5 -112t93.5 -40q63 0 101.5 39t48.5 110zM238 623q30 0 30 -31q0 -19 -11.5 -31t-28.5 -12q-15 0 -24 8.5t-9 22.5q0 16 13 29.5t30 13.5z
M394 623q31 0 31 -31q0 -18 -12 -30.5t-29 -12.5q-32 0 -32 30q0 17 12.5 30.5t29.5 13.5z" />
    <glyph glyph-name="omicrontonos" unicode="&#x3cc;" horiz-adv-x="521" 
d="M287 455q89 0 138.5 -53.5t49.5 -143.5q0 -112 -69 -191q-68 -78 -176 -78q-91 0 -141.5 53t-50.5 142q0 114 69 192q69 79 180 79zM286 406q-84 0 -136 -64q-52 -62 -52 -156q0 -68 34.5 -109t98.5 -41q84 0 136 64q53 65 53 155q0 67 -36 109t-98 42zM463 664
l-137 -133h-46l123 151z" />
    <glyph glyph-name="upsilontonos" unicode="&#x3cd;" horiz-adv-x="508" 
d="M388 189l36 256h56l-36 -256q-13 -94 -68.5 -146.5t-144.5 -52.5q-90 0 -130 54.5t-26 154.5l35 246h53l-36 -253q-10 -72 17.5 -112t93.5 -40q63 0 101.5 39t48.5 110zM444 664l-137 -133h-46l123 151z" />
    <glyph glyph-name="omegatonos" unicode="&#x3ce;" horiz-adv-x="734" 
d="M345 307h57l-21 -144q-7 -49 15 -87q22 -37 78 -37q65 0 109 65q44 67 44 153q0 65 -32.5 106t-89.5 44l24 48q77 -4 115.5 -56t38.5 -139q0 -98 -53 -178q-26 -41 -69.5 -66t-95.5 -25q-46 0 -78.5 23t-44.5 59h-4q-66 -82 -155 -82q-70 0 -107 46.5t-37 126.5
q0 114 60 200q62 86 163 90l13 -47q-82 -4 -130 -73q-47 -68 -47 -164q0 -61 25 -96t73 -35q53 0 86.5 36.5t42.5 91.5zM538 664l-137 -133h-46l123 151z" />
    <glyph glyph-name="afii10023" unicode="&#x401;" horiz-adv-x="545" 
d="M113 53h374l-7 -53h-432l93 662h406l-8 -52h-348l-33 -234h324l-7 -52h-324zM284 832q13 0 21.5 -8.5t8.5 -22.5q0 -18 -12 -30.5t-28 -12.5q-15 0 -24.5 8.5t-9.5 22.5q0 16 13.5 29.5t30.5 13.5zM440 832q31 0 31 -31q0 -18 -12 -30.5t-29 -12.5q-15 0 -24 8.5t-9 22.5
q0 16 13 29.5t30 13.5z" />
    <glyph glyph-name="afii10051" unicode="&#x402;" horiz-adv-x="764" 
d="M575 662l-8 -52h-231l-32 -232q98 39 184 39q107 0 162 -58q56 -58 56 -146q0 -107 -63 -199q-60 -89 -157 -131l-40 34q70 31 117 81q83 91 83 207q0 74 -44.5 118t-128.5 44q-86 0 -176 -37l-46 -330h-58l85 610h-213l8 52h502z" />
    <glyph glyph-name="afii10052" unicode="&#x403;" horiz-adv-x="506" 
d="M541 610h-351l-85 -610h-57l93 662h408zM471 844l-144 -111h-50l131 129z" />
    <glyph glyph-name="afii10053" unicode="&#x404;" horiz-adv-x="599" 
d="M552 96l-8 -57q-81 -48 -198 -48q-140 0 -213 76t-73 203q0 118 55 212q54 92 141 141.5t190 49.5t158 -32l-4 -56q-68 36 -156 36q-106 0 -193 -66q-85 -66 -117 -179h350l-7 -52h-353q-4 -32 -4 -51q0 -107 62.5 -168.5t177.5 -61.5q94 0 192 53z" />
    <glyph glyph-name="afii10054" unicode="&#x405;" horiz-adv-x="475" 
d="M5 44l8 62q81 -63 177 -63q83 0 133 37t50 107q0 38 -21.5 67.5t-54 47.5t-70 37.5t-70 37.5t-54 47.5t-21.5 67.5q0 46 20.5 82.5t53 57t68.5 30.5t71 10q94 0 159 -41l-9 -62q-65 50 -150 50q-59 0 -106 -30q-46 -28 -46 -92q0 -57 102 -106q34 -16 52.5 -25.5
t48.5 -29t46 -37.5t28.5 -45t12.5 -58q0 -104 -70 -155q-71 -51 -174 -51q-111 0 -184 54z" />
    <glyph glyph-name="afii10055" unicode="&#x406;" horiz-adv-x="243" 
d="M208 662l-93 -662h-57l93 662h57z" />
    <glyph glyph-name="afii10056" unicode="&#x407;" horiz-adv-x="243" 
d="M116 832q13 0 21.5 -8.5t8.5 -22.5q0 -18 -12 -30.5t-28 -12.5q-15 0 -24.5 8.5t-9.5 22.5q0 16 13.5 29.5t30.5 13.5zM272 832q31 0 31 -31q0 -18 -12 -30.5t-29 -12.5q-15 0 -24 8.5t-9 22.5q0 16 13 29.5t30 13.5zM208 662l-93 -662h-57l93 662h57z" />
    <glyph glyph-name="afii10057" unicode="&#x408;" horiz-adv-x="436" 
d="M112 44q84 0 126 47.5t55 142.5l61 428h57l-59 -418q-16 -115 -64 -180q-54 -74 -175 -74q-31 0 -74 8q-39 7 -62 22l9 61q22 -17 58.5 -27t67.5 -10z" />
    <glyph glyph-name="afii10058" unicode="&#x409;" horiz-adv-x="1004" 
d="M518 613h-236l-90 -372q-31 -130 -70 -188q-37 -55 -125 -70l-24 45q73 16 105 56t53 128l106 449h347l-36 -259h195q98 0 151.5 -47.5t53.5 -129.5q0 -108 -71 -167q-70 -58 -169 -58h-276zM745 349h-204l-42 -296h218q73 0 123 43q51 44 51 128q0 59 -40.5 92
t-105.5 33z" />
    <glyph glyph-name="afii10059" unicode="&#x40a;" horiz-adv-x="1028" 
d="M732 0h-275l47 340h-352l-47 -340h-57l93 662h57l-38 -270h352l38 270h59l-38 -270h195q99 0 152.5 -45.5t53.5 -126.5q0 -106 -70 -163t-170 -57zM768 339h-205l-40 -286h218q73 0 123 40q51 40 51 125q0 58 -40 89.5t-107 31.5z" />
    <glyph glyph-name="afii10060" unicode="&#x40b;" horiz-adv-x="761" 
d="M576 662l-8 -52h-232l-32 -238q99 35 196 35q102 0 146 -49.5t32 -139.5l-30 -218h-58l28 203q12 77 -20.5 115.5t-120.5 38.5q-92 0 -180 -35l-46 -322h-58l85 610h-213l8 52h503z" />
    <glyph glyph-name="afii10061" unicode="&#x40c;" horiz-adv-x="568" 
d="M141 662h57l-45 -314l363 314h70l-361 -318l299 -344h-81l-291 339l-47 -339h-57zM482 846l-144 -111h-50l131 129z" />
    <glyph glyph-name="afii10062" unicode="&#x40e;" horiz-adv-x="558" 
d="M198 127l26 44l-192 490h61l163 -432l256 432h58l-334 -564q-35 -58 -70 -82.5t-82 -24.5q-57 0 -102 24l9 58q47 -30 96 -30q62 0 111 85zM412 858h46q-10 -58 -49 -96.5t-97 -38.5q-54 0 -82 38.5t-22 96.5h46q-5 -41 12 -68t51 -27q75 0 95 95z" />
    <glyph glyph-name="afii10145" unicode="&#x40f;" horiz-adv-x="663" 
d="M495 52l86 610h57l-93 -662h-215l-23 -159h-60l23 159h-222l93 662h57l-86 -610h383z" />
    <glyph glyph-name="afii10017" unicode="&#x410;" horiz-adv-x="600" 
d="M550 0h-57l-42 161h-322l-87 -161h-62l372 665h14zM346 545h-4l-185 -335h280z" />
    <glyph glyph-name="afii10018" unicode="&#x411;" horiz-adv-x="619" 
d="M324 0h-276l93 662h408l-8 -51h-349l-29 -209h200q98 0 149 -48t51 -136q0 -99 -70 -159q-71 -59 -169 -59zM361 349h-205l-42 -296h219q73 0 123 43q51 44 51 128q0 59 -40.5 92t-105.5 33z" />
    <glyph glyph-name="afii10019" unicode="&#x412;" horiz-adv-x="592" 
d="M324 330h-173l-39 -277h183q41 0 73 11t50.5 28t31 39.5t17 42t4.5 39.5q0 54 -39.5 85.5t-107.5 31.5zM368 610h-178l-32 -229h169q22 0 45 6t48.5 19.5t41.5 42.5t16 69q0 43 -28.5 67.5t-81.5 24.5zM428 361v-4q103 -28 103 -141q0 -96 -67 -156q-66 -60 -163 -60
h-253l93 662h229q79 0 123 -35.5t44 -105.5q0 -52 -28.5 -94.5t-80.5 -65.5z" />
    <glyph glyph-name="afii10020" unicode="&#x413;" horiz-adv-x="506" 
d="M541 610h-351l-85 -610h-57l93 662h408z" />
    <glyph glyph-name="afii10021" unicode="&#x414;" horiz-adv-x="775" 
d="M300 661h404l-85 -609h89l-30 -211h-60l23 159h-607l-23 -159h-58l29 211h81q53 47 94 128q14 24 35 87q20 61 27 89l30 110zM638 611h-298l-46 -181q-37 -146 -72 -232q-34 -84 -92 -146h430z" />
    <glyph glyph-name="afii10022" unicode="&#x415;" horiz-adv-x="545" 
d="M113 53h374l-7 -53h-432l93 662h406l-8 -52h-348l-33 -234h324l-7 -52h-324z" />
    <glyph glyph-name="afii10024" unicode="&#x416;" horiz-adv-x="890" 
d="M167 662l262 -314l45 314h57l-45 -314l353 314h71l-360 -322l297 -340h-80l-282 339l-47 -339h-57l47 339l-375 -339h-80l389 348l-266 314h71z" />
    <glyph glyph-name="afii10025" unicode="&#x417;" horiz-adv-x="560" 
d="M190 -10q-50 0 -106 13q-58 13 -90 36l8 57q86 -53 184 -53q119 0 187 47.5t68 126.5q0 53 -48.5 84.5t-127.5 31.5h-78l7 51h76q87 0 138 38.5t51 96.5q0 47 -43 74.5t-115 27.5q-39 0 -98 -12q-55 -10 -108 -34l8 57q94 42 208 42q99 0 155 -37.5t56 -104.5
q0 -50 -35 -100q-34 -49 -99 -67l-1 -5q53 -11 83 -49.5t30 -90.5q0 -99 -83 -165q-83 -65 -227 -65z" />
    <glyph glyph-name="afii10026" unicode="&#x418;" horiz-adv-x="707" 
d="M681 668l-93 -668h-55l77 541h-3l-546 -545h-14l94 666h55l-76 -536h4l545 542h12z" />
    <glyph glyph-name="afii10027" unicode="&#x419;" horiz-adv-x="707" 
d="M681 668l-93 -668h-55l77 541h-3l-546 -545h-14l94 666h55l-76 -536h4l545 542h12zM520 862h46q-10 -58 -49 -96.5t-97 -38.5q-54 0 -82 38.5t-22 96.5h46q-5 -41 12 -68t51 -27q75 0 95 95z" />
    <glyph glyph-name="afii10028" unicode="&#x41a;" horiz-adv-x="568" 
d="M141 662h57l-45 -314l363 314h70l-361 -318l299 -344h-81l-291 339l-47 -339h-57z" />
    <glyph glyph-name="afii10029" unicode="&#x41b;" horiz-adv-x="620" 
d="M443 0l86 613h-247l-90 -372q-31 -130 -70 -188q-37 -55 -126 -70l-23 45q73 16 105 56t53 128l106 449h357l-92 -661h-59z" />
    <glyph glyph-name="afii10030" unicode="&#x41c;" horiz-adv-x="799" 
d="M695 511l-303 -358h-14l-202 369l-2 -3l-72 -519h-54l93 667h15l237 -438l366 438h14l-93 -667h-54l71 509z" />
    <glyph glyph-name="afii10031" unicode="&#x41d;" horiz-adv-x="655" 
d="M629 662l-93 -662h-56l45 324h-375l-45 -324h-57l93 662h57l-41 -286h375l41 286h56z" />
    <glyph glyph-name="afii10032" unicode="&#x41e;" horiz-adv-x="752" 
d="M431 671q132 0 206 -80t74 -210q0 -164 -107 -277q-106 -112 -260 -112q-131 0 -206 78q-75 80 -75 207q0 162 107 278t261 116zM429 619q-127 0 -216 -101t-89 -239q0 -105 58 -170q58 -66 161 -66q131 0 219 97q89 98 89 240q0 104 -60 171q-60 68 -162 68z" />
    <glyph glyph-name="afii10033" unicode="&#x41f;" horiz-adv-x="661" 
d="M635 662l-93 -662h-57l85 610h-380l-85 -610h-57l93 662h494z" />
    <glyph glyph-name="afii10034" unicode="&#x420;" horiz-adv-x="555" 
d="M105 0h-58l92 661h213q96 0 147 -51.5t51 -136.5q0 -111 -78 -176q-77 -64 -183 -64h-152zM325 613h-134l-47 -332h141q53 0 93.5 17.5t64 46.5t35 62t11.5 68q0 64 -40 101t-124 37z" />
    <glyph glyph-name="afii10035" unicode="&#x421;" horiz-adv-x="599" 
d="M552 96l-8 -57q-81 -48 -198 -48q-139 0 -212 76q-74 77 -74 201q0 120 55 214q54 92 140.5 141.5t189.5 49.5t159 -33l-3 -58q-64 39 -157 39q-83 0 -157 -41q-73 -40 -120 -122t-47 -184q0 -107 62.5 -169t177.5 -62q94 0 192 53z" />
    <glyph glyph-name="afii10036" unicode="&#x422;" horiz-adv-x="513" 
d="M556 662l-8 -52h-212l-85 -610h-58l85 610h-213l8 52h483z" />
    <glyph glyph-name="afii10037" unicode="&#x423;" horiz-adv-x="558" 
d="M233 127l26 44l-192 490h61l163 -432l256 432h58l-334 -564q-35 -58 -70 -82.5t-82 -24.5q-57 0 -102 24l9 58q46 -30 96 -30q62 0 111 85z" />
    <glyph glyph-name="afii10038" unicode="&#x424;" horiz-adv-x="802" 
d="M337 0l9 68q-122 4 -203 70q-79 64 -79 168q0 129 107 218q106 88 252 94l7 44h57l-7 -44q130 -8 207 -72q76 -64 76 -168q0 -130 -102 -215q-103 -85 -258 -95l-9 -68h-57zM473 567l-62 -446q126 4 212 75q85 70 85 177q0 83 -65 136q-64 52 -170 58zM354 121l62 445
q-128 -8 -210 -78q-82 -69 -82 -177q0 -82 60.5 -132t169.5 -58z" />
    <glyph glyph-name="afii10039" unicode="&#x425;" horiz-adv-x="594" 
d="M549 0h-71l-170 332l-259 -332h-74l279 345l-170 316h60l165 -304l247 304h68l-260 -319z" />
    <glyph glyph-name="afii10040" unicode="&#x426;" horiz-adv-x="682" 
d="M638 662l-86 -610h92l-30 -211h-60l23 159h-529l93 662h57l-86 -610h383l86 610h57z" />
    <glyph glyph-name="afii10041" unicode="&#x427;" horiz-adv-x="617" 
d="M511 0h-59l43 313q-97 -35 -195 -35q-104 0 -152.5 51t-36.5 138l28 195h57l-26 -180q-22 -154 154 -154q91 0 179 35l42 299h59z" />
    <glyph glyph-name="afii10042" unicode="&#x428;" horiz-adv-x="914" 
d="M832 662h57l-93 -662h-748l93 662h57l-86 -610h286l86 610h59l-86 -610h289z" />
    <glyph glyph-name="afii10043" unicode="&#x429;" horiz-adv-x="933" 
d="M112 52h286l86 610h59l-86 -610h289l86 610h57l-86 -610h92l-30 -211h-60l23 159h-780l93 662h57z" />
    <glyph glyph-name="afii10044" unicode="&#x42a;" horiz-adv-x="820" 
d="M401 662l-37 -260h200q98 0 149 -47.5t51 -132.5q0 -102 -71 -162t-168 -60h-276l85 611h-274l8 51h333zM562 349h-205l-42 -296h219q73 0 122 43q51 44 51 129q0 59 -40 91.5t-105 32.5z" />
    <glyph glyph-name="afii10045" unicode="&#x42b;" horiz-adv-x="806" 
d="M324 0h-276l93 662h59l-37 -260h200q98 0 149 -47t51 -131q0 -104 -71 -164q-70 -60 -168 -60zM361 349h-205l-42 -296h219q73 0 123 43q51 44 51 128q0 59 -40.5 92t-105.5 33zM780 662l-93 -662h-57l93 662h57z" />
    <glyph glyph-name="afii10046" unicode="&#x42c;" horiz-adv-x="619" 
d="M324 0h-276l93 662h59l-37 -260h200q97 0 148.5 -46.5t51.5 -128.5q0 -107 -71 -167q-70 -60 -168 -60zM361 349h-205l-42 -296h219q73 0 123 43q51 44 51 128q0 59 -40.5 92t-105.5 33z" />
    <glyph glyph-name="afii10047" unicode="&#x42d;" horiz-adv-x="599" 
d="M-6 39l8 57q86 -53 179 -53q134 0 216 80q82 82 98 201h-354l7 52h353v20q0 108 -60.5 166.5t-171.5 58.5q-94 0 -172 -36l8 57q59 31 175 31q137 0 208 -77t71 -214q0 -149 -95 -267q-46 -57 -121 -90.5t-164 -33.5q-49 0 -101 12q-52 13 -84 36z" />
    <glyph glyph-name="afii10048" unicode="&#x42e;" horiz-adv-x="1004" 
d="M151 318l-44 -318h-59l92 661h59l-41 -294h169q30 133 130 218q101 86 231 86t203 -81q73 -79 73 -208q0 -166 -108 -279q-106 -112 -264 -112q-124 0 -201 77q-76 77 -76 199q0 30 4 51h-168zM681 620q-129 0 -218 -102q-88 -100 -88 -238q0 -106 60 -173t164 -67
q132 0 218 101q86 103 86 242q0 105 -58 170q-58 67 -164 67z" />
    <glyph glyph-name="afii10049" unicode="&#x42f;" horiz-adv-x="581" 
d="M68 0h-79l267 252q-80 10 -126 63q-45 53 -45 121q0 55 23.5 99.5t60.5 71t79.5 40.5t84.5 14h222l-92 -661h-58l85 611h-156q-80 0 -135 -48q-56 -47 -56 -128q0 -63 54.5 -104t155.5 -43l-2 -12z" />
    <glyph glyph-name="afii10065" unicode="&#x430;" horiz-adv-x="539" 
d="M274 408q-82 0 -131 -67q-48 -66 -48 -155q0 -71 32 -110.5t94 -39.5q79 0 132 63q53 64 53 160q0 67 -35 108t-97 41zM211 -11q-86 0 -130 54q-43 53 -43 133q0 124 67 200q68 77 170 77t149 -86q3 0 4 1l25 77h36l-62 -445h-41l-3 67l-3 1q-67 -79 -169 -79z" />
    <glyph glyph-name="afii10066" unicode="&#x431;" horiz-adv-x="521" 
d="M301 453q84 0 130 -51t46 -135q0 -69 -27 -131q-24 -59 -85 -104q-58 -42 -139 -42q-93 0 -140 50.5t-47 137.5q0 200 58 341q39 97 109 144q35 24 77 37q69 22 189 27l21 -44q-80 -5 -115 -11q-40 -6 -91 -23q-90 -32 -137 -137q-35 -72 -47 -170l3 -1q27 53 81 82.5
t114 29.5zM98 185q0 -148 132 -148q85 0 139 67q54 68 54 155q0 65 -35.5 105.5t-98.5 40.5q-83 0 -137 -65q-54 -64 -54 -155z" />
    <glyph glyph-name="afii10067" unicode="&#x432;" horiz-adv-x="482" 
d="M287 454q76 0 115.5 -31.5t39.5 -77.5q0 -30 -16.5 -55.5t-45.5 -37.5v-2l-1 -2q37 -9 56.5 -32t19.5 -54q0 -70 -56 -121q-55 -51 -166 -51q-104 0 -149 56t-27 159l13 75q14 75 71 124q59 50 146 50zM312 226h-83l8 44h70q35 0 56.5 18.5t21.5 43.5q0 32 -25.5 53.5
t-76.5 21.5q-66 0 -106 -37t-52 -100l-15 -81q-13 -73 19 -113t108 -40q81 0 122 37q42 38 42 82q0 32 -22 51.5t-67 19.5z" />
    <glyph glyph-name="afii10068" unicode="&#x433;" horiz-adv-x="359" 
d="M308 85l-8 -56q-68 -38 -149 -38q-67 0 -105 28t-38 82q0 44 28 77t68 52t80.5 35t68.5 37.5t28 49.5q0 56 -85 56q-69 0 -140 -38l8 55q65 30 145 30q57 0 92 -24.5t35 -71.5q0 -40 -26.5 -71.5t-70.5 -50.5q-11 -5 -39.5 -17t-42 -18t-35 -18.5t-32 -23.5t-19 -26.5
t-8.5 -33.5q0 -63 100 -63q73 0 145 48z" />
    <glyph glyph-name="afii10069" unicode="&#x434;" horiz-adv-x="531" 
d="M440 350l3 1q2 42 2 47q0 128 -58.5 207t-188.5 79q-26 0 -55 -3l33 46q4 0 15 0.5t13 0.5q291 0 291 -332q0 -165 -60 -281q-31 -59 -85 -92t-124 -33q-94 0 -141 54q-47 56 -47 138q0 115 69 193q70 79 175 79q57 0 100.5 -26.5t57.5 -77.5zM286 406q-84 0 -136 -64
q-52 -62 -52 -156q0 -68 34.5 -109t98.5 -41q85 0 137 64t52 155q0 67 -36 109t-98 42z" />
    <glyph glyph-name="afii10070" unicode="&#x435;" horiz-adv-x="461" 
d="M282 454q69 0 109 -35t40 -88q0 -62 -66 -101.5t-194 -39.5q-49 0 -74 3q-1 -3 -1 -16q0 -65 33.5 -102t97.5 -37q101 0 175 62l-10 -59q-76 -51 -168 -51q-90 0 -138 50.5t-48 139.5q0 114 69 194t175 80zM281 404q-67 0 -115 -44.5t-64 -119.5q38 -5 78 -5
q94 0 143 26.5t49 67.5q0 34 -23.5 54.5t-67.5 20.5z" />
    <glyph glyph-name="afii10072" unicode="&#x436;" horiz-adv-x="723" 
d="M-30 0l297 236l-212 209h73l204 -204l29 204h55l-29 -204l262 204h73l-270 -214l231 -231h-80l-218 226l-31 -226h-55l31 226l-280 -226h-80z" />
    <glyph glyph-name="afii10073" unicode="&#x437;" horiz-adv-x="397" 
d="M123 -10q-29 0 -71 8q-36 7 -61 22l4 54q18 -15 60 -26q40 -9 73 -9q77 0 116 31t39 78q0 34 -28.5 52t-80.5 18h-64l6 45h59q59 0 92 22.5t33 58.5q0 27 -27 44t-78 17q-80 0 -136 -29l8 52q62 27 140 27q73 0 111 -26t38 -74q0 -36 -23 -66.5t-71 -45.5q38 -9 58 -34.5
t20 -59.5q0 -67 -60 -114q-58 -45 -157 -45z" />
    <glyph glyph-name="afii10074" unicode="&#x438;" horiz-adv-x="511" 
d="M75 179l37 266h56l-35 -255q-21 -150 93 -150q64 0 107.5 56t58.5 149l30 200h56l-62 -445h-42l1 79h-4q-62 -89 -155 -89q-81 0 -117.5 49.5t-23.5 139.5z" />
    <glyph glyph-name="afii10075" unicode="&#x439;" horiz-adv-x="511" 
d="M75 179l37 266h56l-35 -255q-21 -150 93 -150q64 0 107.5 56t58.5 149l30 200h56l-62 -445h-42l1 79h-4q-62 -89 -155 -89q-81 0 -117.5 49.5t-23.5 139.5zM403 662h46q-10 -58 -49 -96.5t-97 -38.5q-54 0 -82 38.5t-22 96.5h46q-5 -41 12 -68t51 -27q75 0 95 95z" />
    <glyph glyph-name="afii10076" unicode="&#x43a;" horiz-adv-x="467" 
d="M393 444h73l-275 -215l237 -229h-80l-225 227l-31 -227h-54l62 444h54l-29 -204z" />
    <glyph glyph-name="afii10077" unicode="&#x43b;" horiz-adv-x="477" 
d="M369 400h-170l-44 -182l-17 -67q-18 -69 -36 -97q-41 -61 -107 -68l-21 46q58 10 81 46q23 35 44 122l57 244h275l-62 -444h-56z" />
    <glyph glyph-name="afii10078" unicode="&#x43c;" horiz-adv-x="654" 
d="M541 333l-223 -241h-15l-165 244l-58 -336h-55l82 450h12l197 -292l272 292h13l-41 -450h-54z" />
    <glyph glyph-name="afii10079" unicode="&#x43d;" horiz-adv-x="523" 
d="M477 445l-62 -445h-55l29 210h-267l-29 -210h-55l62 445h55l-27 -192h267l27 192h55z" />
    <glyph glyph-name="afii10080" unicode="&#x43e;" horiz-adv-x="521" 
d="M287 455q89 0 138.5 -53.5t49.5 -143.5q0 -112 -69 -191q-68 -78 -176 -78q-91 0 -141.5 53t-50.5 142q0 114 69 192q69 79 180 79zM286 406q-84 0 -136 -64q-52 -62 -52 -156q0 -68 34.5 -109t98.5 -41q84 0 136 64q53 65 53 155q0 67 -36 109t-98 42z" />
    <glyph glyph-name="afii10081" unicode="&#x43f;" horiz-adv-x="524" 
d="M453 266l-37 -266h-56l35 255q21 150 -93 150q-66 0 -115 -57q-50 -57 -63 -148l-30 -200h-56l62 445h42l-1 -79h4q72 89 167 89q81 0 117 -49t24 -140z" />
    <glyph glyph-name="afii10082" unicode="&#x440;" horiz-adv-x="527" 
d="M86 70l-42 -285h-54l93 660h41v-70q0 -1 1 -1l2 -1q62 80 176 80q86 0 132 -55q46 -53 46 -131q0 -122 -69 -200q-69 -77 -166 -77q-112 0 -155 81zM290 407q-82 0 -134 -64q-53 -64 -53 -160q0 -67 35 -106.5t99 -39.5q87 0 137 63q50 64 50 156q0 70 -34.5 110.5
t-99.5 40.5z" />
    <glyph glyph-name="afii10083" unicode="&#x441;" horiz-adv-x="417" 
d="M368 73l-8 -54q-53 -29 -134 -29q-92 0 -140 56q-48 57 -48 143q0 118 73 191q73 75 183 75q65 0 107 -20l-8 -54q-37 26 -98 26q-87 0 -145 -61q-58 -59 -58 -161q0 -66 40.5 -106t109.5 -40q74 0 126 34z" />
    <glyph glyph-name="afii10084" unicode="&#x442;" horiz-adv-x="800" 
d="M729 276l-38 -276h-55l38 272q18 134 -92 134q-58 0 -101.5 -45.5t-55.5 -131.5l-32 -229h-56l38 272q9 65 -13.5 99.5t-72.5 34.5q-58 0 -106 -54t-60 -142l-29 -210h-56l62 444h38v-78q1 -1 3 -1q67 90 157 90q51 0 85 -23.5t45 -65.5q31 43 74.5 66t85.5 23
q82 0 117.5 -47t23.5 -132z" />
    <glyph glyph-name="afii10085" unicode="&#x443;" horiz-adv-x="422" 
d="M85 445l94 -366h5l196 366h59l-361 -660h-58l126 230l-120 430h59z" />
    <glyph glyph-name="afii10086" unicode="&#x444;" horiz-adv-x="657" 
d="M343 454l35 257h55l-36 -256q119 -6 180 -69q62 -62 48 -164q-13 -100 -97 -167q-83 -67 -196 -68l-28 -202h-55l29 202q-114 3 -178 67q-63 64 -48 168q14 100 93 162t198 70zM569 222q11 82 -37.5 133.5t-139.5 52.5l-53 -375q90 3 155 56q65 54 75 133zM109 222
q-11 -80 36 -133q48 -53 139 -56l53 375q-88 -2 -152 -54q-66 -52 -76 -132z" />
    <glyph glyph-name="afii10087" unicode="&#x445;" horiz-adv-x="436" 
d="M388 0h-64l-117 216l-173 -216h-69l191 228l-119 217h60l113 -205l163 205h68l-181 -216z" />
    <glyph glyph-name="afii10088" unicode="&#x446;" horiz-adv-x="530" 
d="M208 -10q-76 0 -111 50t-23 139l37 266h56l-35 -255q-21 -150 93 -150q64 0 107.5 56t58.5 149l30 200h56l-53 -398l90 16l6 -9l-56 -198h-54l43 150l-3 1l-79 -15l-9 7l10 81h-1q-1 1 -2 1q-61 -91 -161 -91z" />
    <glyph glyph-name="afii10089" unicode="&#x447;" horiz-adv-x="500" 
d="M403 0h-56l33 233q-1 1 -2 1q-32 -41 -80 -66.5t-93 -25.5q-149 0 -125 174l18 129h56l-16 -120q-9 -65 13 -99t67 -34q19 0 38.5 5t43 18.5t42.5 33t35 53t22 75.5l10 68h56z" />
    <glyph glyph-name="afii10090" unicode="&#x448;" horiz-adv-x="798" 
d="M73 168l38 277h55l-38 -273q-18 -134 92 -134q58 0 101.5 45.5t55.5 131.5l32 230h56l-38 -273q-9 -65 13.5 -99.5t72.5 -34.5q58 0 106 54t60 142l29 211h56l-62 -445h-38v78q-1 1 -3 1q-67 -90 -157 -90q-51 0 -85 23.5t-45 65.5q-31 -43 -74.5 -66t-85.5 -23
q-82 0 -117.5 47t-23.5 132z" />
    <glyph glyph-name="afii10091" unicode="&#x449;" horiz-adv-x="817" 
d="M506 -11q-51 0 -86 23.5t-46 65.5q-31 -43 -74.5 -66t-85.5 -23q-82 0 -117.5 47t-23.5 132l38 277h55l-38 -273q-18 -134 92 -134q58 0 101.5 45.5t55.5 131.5l32 230h56l-38 -273q-9 -65 13.5 -99.5t72.5 -34.5q63 0 107 57q44 59 57 150l30 200h56l-53 -398l90 16
l6 -9l-56 -198h-54l43 150l-3 1l-79 -15l-9 7l10 81h-1q-1 1 -2 1q-59 -92 -149 -92z" />
    <glyph glyph-name="afii10092" unicode="&#x44a;" horiz-adv-x="619" 
d="M220 399h-199l6 46h258l-21 -144h154q79 0 120 -35t41 -89q0 -77 -58 -132q-59 -56 -164 -56q-93 0 -135.5 52t-29.5 147zM407 256h-149l-10 -65q-13 -79 14 -117.5t108 -38.5q73 0 112 41q40 40 40 89q0 43 -29.5 67t-85.5 24z" />
    <glyph glyph-name="afii10093" unicode="&#x44b;" horiz-adv-x="646" 
d="M129 301h154q79 0 120 -35t41 -89q0 -77 -58 -132q-59 -56 -164 -56q-93 0 -135.5 52t-29.5 147l35 257h58zM272 256h-149l-10 -65q-13 -79 14 -117.5t108 -38.5q73 0 112 41q40 40 40 89q0 43 -29.5 67t-85.5 24zM612 445l-62 -445h-56l62 445h56z" />
    <glyph glyph-name="afii10094" unicode="&#x44c;" horiz-adv-x="471" 
d="M129 301h154q79 0 120 -35t41 -89q0 -77 -58 -132q-59 -56 -164 -56q-93 0 -135.5 52t-29.5 147l35 257h58zM272 256h-149l-10 -65q-13 -79 14 -117.5t108 -38.5q73 0 112 41q40 40 40 89q0 43 -29.5 67t-85.5 24z" />
    <glyph glyph-name="afii10095" unicode="&#x44d;" horiz-adv-x="423" 
d="M-9 19l8 54q43 -34 123 -34q77 0 128 46.5t61 119.5h-213l6 44h212q1 6 1 25q0 62 -37 96.5t-98 34.5q-67 0 -123 -29l8 52q62 28 127 28q81 0 129.5 -50.5t48.5 -139.5q0 -118 -69 -198q-67 -78 -185 -78q-80 0 -127 29z" />
    <glyph glyph-name="afii10096" unicode="&#x44e;" horiz-adv-x="737" 
d="M503 455q89 0 138.5 -53.5t49.5 -143.5q0 -112 -69 -191q-68 -78 -176 -78q-91 0 -141.5 53t-50.5 142q0 25 1 32h-132l-30 -216h-55l62 444h55l-26 -185h133q21 88 85 141q64 55 156 55zM502 406q-84 0 -136 -64q-52 -62 -52 -156q0 -68 34.5 -109t98.5 -41q84 0 136 64
q53 65 53 155q0 67 -36 109t-98 42z" />
    <glyph glyph-name="afii10097" unicode="&#x44f;" horiz-adv-x="456" 
d="M61 0h-76l181 167q-52 9 -81.5 42.5t-29.5 79.5q0 74 55 114q56 42 127 42h172l-62 -445h-54l56 399h-112q-56 0 -90 -29t-34 -79q0 -38 38 -62.5t110 -25.5l-2 -12z" />
    <glyph glyph-name="afii10071" unicode="&#x451;" horiz-adv-x="461" 
d="M282 454q69 0 109 -35t40 -88q0 -62 -66 -101.5t-194 -39.5q-49 0 -74 3q-1 -3 -1 -16q0 -65 33.5 -102t97.5 -37q101 0 175 62l-10 -59q-76 -51 -168 -51q-90 0 -138 50.5t-48 139.5q0 114 69 194t175 80zM281 404q-67 0 -115 -44.5t-64 -119.5q38 -5 78 -5
q94 0 143 26.5t49 67.5q0 34 -23.5 54.5t-67.5 20.5zM235 630q30 0 30 -31q0 -19 -11.5 -31t-28.5 -12q-15 0 -24 8.5t-9 22.5q0 16 13 29.5t30 13.5zM391 630q31 0 31 -31q0 -18 -12 -30.5t-29 -12.5q-32 0 -32 30q0 17 12.5 30.5t29.5 13.5z" />
    <glyph glyph-name="afii10099" unicode="&#x452;" horiz-adv-x="536" 
d="M115 619l13 92h55l-13 -92h177l-6 -46h-177l-31 -209l3 -1q66 91 177 91q79 0 125.5 -47t46.5 -136q0 -109 -60 -209t-168 -153l-43 30q64 30 111 76.5t68 97.5q36 86 36 151q0 141 -128 141q-66 0 -118 -54q-51 -51 -65 -133l-34 -218h-55l80 573h-53l6 46h53z" />
    <glyph glyph-name="afii10100" unicode="&#x453;" horiz-adv-x="359" 
d="M308 85l-8 -56q-68 -38 -149 -38q-67 0 -105 28t-38 82q0 44 28 77t68 52t80.5 35t68.5 37.5t28 49.5q0 56 -85 56q-69 0 -140 -38l8 55q65 30 145 30q57 0 92 -24.5t35 -71.5q0 -40 -26.5 -71.5t-70.5 -50.5q-11 -5 -39.5 -17t-42 -18t-35 -18.5t-32 -23.5t-19 -26.5
t-8.5 -33.5q0 -63 100 -63q73 0 145 48zM348 661l-129 -130h-46l119 148z" />
    <glyph glyph-name="afii10101" unicode="&#x454;" horiz-adv-x="417" 
d="M368 73l-8 -54q-53 -29 -134 -29q-92 0 -140 56q-48 57 -48 143q0 118 73 191q73 75 183 75q65 0 107 -20l-8 -54q-37 26 -98 26q-73 0 -126 -43t-70 -117h218l-6 -44h-219v-18q0 -66 40.5 -106t109.5 -40q74 0 126 34z" />
    <glyph glyph-name="afii10102" unicode="&#x455;" horiz-adv-x="362" 
d="M-7 29l4 56q58 -48 136 -48q121 0 121 88q0 25 -21 45t-50.5 34t-59 29t-50.5 39t-21 55q0 66 48 97q47 31 111 31q67 0 121 -30l-7 -55q-62 38 -113 38q-102 0 -102 -76q0 -26 31.5 -47.5t69.5 -36t69.5 -45t31.5 -71.5q0 -70 -52 -106q-53 -35 -128 -35q-80 0 -139 38z
" />
    <glyph glyph-name="afii10103" unicode="&#x456;" horiz-adv-x="222" 
d="M163 616q14 0 23 -9.5t9 -23.5q0 -18 -13 -31t-30 -13q-16 0 -25 9t-9 23q0 17 13.5 31t31.5 14zM165 445l-62 -445h-56l62 445h56z" />
    <glyph glyph-name="afii10104" unicode="&#x457;" horiz-adv-x="222" 
d="M86 623q30 0 30 -31q0 -19 -11.5 -31t-28.5 -12q-15 0 -24 8.5t-9 22.5q0 16 13 29.5t30 13.5zM242 623q31 0 31 -31q0 -18 -12 -30.5t-29 -12.5q-32 0 -32 30q0 17 12.5 30.5t29.5 13.5zM165 445l-62 -445h-56l62 445h56z" />
    <glyph glyph-name="afii10105" unicode="&#x458;" horiz-adv-x="206" 
d="M156 616q14 0 23 -9.5t9 -23.5q0 -18 -13 -31t-30 -13q-15 0 -24 9t-9 23q0 18 13 31.5t31 13.5zM-86 -227l-24 53q67 2 101 37t44 107l67 475h55l-67 -476q-14 -96 -55 -140.5t-121 -55.5z" />
    <glyph glyph-name="afii10106" unicode="&#x459;" horiz-adv-x="761" 
d="M334 188l29 212h-164l-44 -182l-14 -58q-19 -69 -30 -89q-23 -44 -44 -57q-33 -22 -73 -28l-20 46q58 10 81 46q23 35 44 122l57 244h269l-21 -143h156q79 0 120 -35t41 -89q0 -77 -58 -132q-59 -56 -164 -56q-95 0 -137 50.5t-28 148.5zM549 256h-149l-10 -65
q-13 -79 14 -117.5t108 -38.5q73 0 112 41q40 40 40 89q0 43 -29.5 67t-85.5 24z" />
    <glyph glyph-name="afii10107" unicode="&#x45a;" horiz-adv-x="783" 
d="M449 445l-22 -152h154q81 0 121.5 -32.5t40.5 -85.5q0 -76 -58 -131t-164 -55q-93 0 -135.5 52t-29.5 147l7 54h-236l-34 -242h-55l62 444h55l-22 -157h236l22 158h58zM570 246h-149l-9 -55q-13 -79 14 -117.5t108 -38.5q73 0 112 40q40 40 40 88q0 83 -116 83z" />
    <glyph glyph-name="afii10108" unicode="&#x45b;" horiz-adv-x="514" 
d="M444 266l-37 -266h-56l35 255q21 150 -93 150q-65 0 -115 -57t-63 -148l-30 -200h-56l80 573h-53l6 46h53l13 92h55l-14 -92h178l-6 -46h-179l-30 -207h4q72 89 167 89q81 0 117 -49t24 -140z" />
    <glyph glyph-name="afii10109" unicode="&#x45c;" horiz-adv-x="467" 
d="M393 444h73l-275 -215l237 -229h-80l-225 227l-31 -227h-54l62 444h54l-29 -204zM396 661l-129 -130h-46l119 148z" />
    <glyph glyph-name="afii10110" unicode="&#x45e;" horiz-adv-x="422" 
d="M85 445l94 -366h5l196 366h59l-361 -660h-58l126 230l-120 430h59zM343 672h46q-10 -58 -49 -96.5t-97 -38.5q-54 0 -82 38.5t-22 96.5h46q-5 -41 12 -68t51 -27q75 0 95 95z" />
    <glyph glyph-name="afii10193" unicode="&#x45f;" horiz-adv-x="511" 
d="M332 -188h-53l22 154h53zM74 179l37 266h56l-35 -255q-21 -150 93 -150q64 0 107.5 56t58.5 149l30 200h56l-62 -445h-42l1 79h-4q-62 -89 -155 -89q-81 0 -117 49t-24 140z" />
    <glyph glyph-name="afii10050" unicode="&#x490;" horiz-adv-x="506" 
d="M541 610h-351l-85 -610h-57l93 662h358l15 112h50z" />
    <glyph glyph-name="afii10098" unicode="&#x491;" horiz-adv-x="416" 
d="M423 399h-273l-56 -399h-56l62 444h282l15 110h47z" />
    <glyph glyph-name="schwacyrillic" unicode="&#x4d9;" horiz-adv-x="467" 
d="M177 -10q-69 0 -109 35t-40 88q0 62 66 101.5t194 39.5q48 0 74 -3q1 3 1 16q0 65 -33.5 102t-97.5 37q-101 0 -175 -62l10 59q77 51 168 51q90 0 138 -50.5t48 -139.5q0 -116 -69 -195t-175 -79zM178 40q67 0 115 44.5t64 119.5q-38 5 -78 5q-94 0 -143 -26.5t-49 -67.5
q0 -34 23.5 -54.5t67.5 -20.5z" />
    <glyph glyph-name="Wgrave" unicode="&#x1e80;" horiz-adv-x="868" 
d="M574 -7l-102 527h-4l-247 -527h-14l-141 667h56l108 -526h5l248 531h12l101 -531h5l256 526h57l-329 -667h-11zM429 870l99 -137h-47l-118 119z" />
    <glyph glyph-name="wgrave" unicode="&#x1e81;" horiz-adv-x="685" 
d="M169 111l190 334h9l98 -334h4l173 334h54l-241 -451h-10l-98 335h-3l-192 -335h-11l-112 451h57l79 -334h3zM334 679l88 -148h-42l-102 133z" />
    <glyph glyph-name="Wacute" unicode="&#x1e82;" horiz-adv-x="868" 
d="M574 -7l-102 527h-4l-247 -527h-14l-141 667h56l108 -526h5l248 531h12l101 -531h5l256 526h57l-329 -667h-11zM647 844l-144 -111h-50l131 129z" />
    <glyph glyph-name="wacute" unicode="&#x1e83;" horiz-adv-x="685" 
d="M169 111l190 334h9l98 -334h4l173 334h54l-241 -451h-10l-98 335h-3l-192 -335h-11l-112 451h57l79 -334h3zM521 661l-129 -130h-46l119 148z" />
    <glyph glyph-name="Wdieresis" unicode="&#x1e84;" horiz-adv-x="868" 
d="M574 -7l-102 527h-4l-247 -527h-14l-141 667h56l108 -526h5l248 531h12l101 -531h5l256 526h57l-329 -667h-11zM427 832q13 0 21.5 -8.5t8.5 -22.5q0 -18 -12 -30.5t-28 -12.5q-15 0 -24.5 8.5t-9.5 22.5q0 16 13.5 29.5t30.5 13.5zM583 832q31 0 31 -31q0 -18 -12 -30.5
t-29 -12.5q-15 0 -24 8.5t-9 22.5q0 16 13 29.5t30 13.5z" />
    <glyph glyph-name="wdieresis" unicode="&#x1e85;" horiz-adv-x="685" 
d="M169 111l190 334h9l98 -334h4l173 334h54l-241 -451h-10l-98 335h-3l-192 -335h-11l-112 451h57l79 -334h3zM305 606q30 0 30 -31q0 -19 -11.5 -31t-28.5 -12q-15 0 -24 8.5t-9 22.5q0 16 13 29.5t30 13.5zM461 606q31 0 31 -31q0 -18 -12 -30.5t-29 -12.5q-32 0 -32 30
q0 17 12.5 30.5t29.5 13.5z" />
    <glyph glyph-name="Ygrave" unicode="&#x1ef2;" horiz-adv-x="529" 
d="M127 662l156 -311h4l227 311h63l-268 -367l-41 -295h-57l41 295l-184 367h59zM280 870l99 -137h-47l-118 119z" />
    <glyph glyph-name="ygrave" unicode="&#x1ef3;" horiz-adv-x="422" 
d="M85 445l94 -366h5l196 366h59l-361 -660h-58l126 230l-120 430h59zM205 679l88 -148h-42l-102 133z" />
    <glyph glyph-name="endash" unicode="&#x2013;" horiz-adv-x="538" 
d="M501 215h-475l6 48h475z" />
    <glyph glyph-name="emdash" unicode="&#x2014;" horiz-adv-x="803" 
d="M764 215h-735l6 48h735z" />
    <glyph glyph-name="afii00208" unicode="&#x2015;" horiz-adv-x="803" 
d="M764 215h-735l6 48h735z" />
    <glyph glyph-name="quoteleft" unicode="&#x2018;" horiz-adv-x="188" 
d="M92 522q8 51 86 162l32 -5l-52 -117q26 -9 21 -39q-3 -33 -37 -42q-32 -9 -46 13q-7 11 -4 28z" />
    <glyph glyph-name="quoteright" unicode="&#x2019;" horiz-adv-x="188" 
d="M162 684q16 0 26 -10t10 -26q0 -43 -85 -170l-33 5l52 117q-21 6 -21 34q0 20 16 35t35 15z" />
    <glyph glyph-name="quotesinglbase" unicode="&#x201a;" horiz-adv-x="207" 
d="M84 82q16 0 26.5 -10t10.5 -27q0 -25 -30 -82q-32 -60 -61 -102l-32 5l56 132q-21 6 -21 31q0 22 15.5 37.5t35.5 15.5z" />
    <glyph glyph-name="quotedblleft" unicode="&#x201c;" horiz-adv-x="298" 
d="M128 478q-16 0 -27 10t-11 27q0 45 87 169l32 -5l-52 -117q21 -6 21 -32q0 -21 -15 -36.5t-35 -15.5zM233 478q-17 0 -27.5 10t-10.5 26q0 43 86 170l33 -5l-52 -117q21 -6 21 -32q0 -21 -15.5 -36.5t-34.5 -15.5z" />
    <glyph glyph-name="quotedblright" unicode="&#x201d;" horiz-adv-x="298" 
d="M266 684q16 0 26 -10t10 -26q0 -43 -85 -170l-33 5l52 117q-21 6 -21 33q0 21 16 36t35 15zM161 684q16 0 26 -10t10 -26q0 -43 -85 -170l-33 5l52 117q-21 6 -21 34q0 20 16 35t35 15z" />
    <glyph glyph-name="quotedblbase" unicode="&#x201e;" horiz-adv-x="307" 
d="M79 82q16 0 26.5 -10t10.5 -27q0 -25 -30 -82q-32 -60 -61 -102l-32 5l56 132q-21 8 -21 32q0 21 15.5 36.5t35.5 15.5zM187 82q16 0 26.5 -10t10.5 -27q0 -25 -30 -82q-32 -60 -61 -102l-32 5l56 132q-21 6 -21 31q0 22 15.5 37.5t35.5 15.5z" />
    <glyph glyph-name="dagger" unicode="&#x2020;" horiz-adv-x="500" 
d="M248 446h-162l7 51h161l27 191h59l-27 -191h162l-7 -51h-161l-78 -554h-59z" />
    <glyph glyph-name="daggerdbl" unicode="&#x2021;" horiz-adv-x="500" 
d="M247 446h-162l7 51h162l27 191h58l-27 -191h163l-7 -51h-162l-33 -239h162l-8 -51h-162l-37 -264h-59l37 264h-162l8 51h162z" />
    <glyph glyph-name="bullet" unicode="&#x2022;" horiz-adv-x="469" 
d="M191 156q-32 32 -32 78t32 78t78 32t78 -32q33 -32 33 -78t-33 -78q-32 -32 -78 -32t-78 32z" />
    <glyph glyph-name="trianglebullet" unicode="&#x2023;" horiz-adv-x="506" 
d="M121 68v408l390 -199z" />
    <glyph glyph-name="ellipsis" unicode="&#x2026;" horiz-adv-x="587" 
d="M77 83q17 0 28 -11.5t11 -28.5q0 -21 -16.5 -36.5t-35.5 -15.5q-17 0 -28 10.5t-11 27.5q0 23 15 38.5t37 15.5zM271 83q18 0 29 -11.5t11 -28.5q0 -21 -16.5 -36.5t-35.5 -15.5q-17 0 -28 10.5t-11 27.5q0 22 15 38t36 16zM465 83q18 0 29 -11.5t11 -28.5
q0 -21 -16.5 -36.5t-35.5 -15.5q-17 0 -28 10.5t-11 27.5q0 22 15.5 38t35.5 16z" />
    <glyph glyph-name="perthousand" unicode="&#x2030;" horiz-adv-x="1047" 
d="M831 -6q-62 0 -97 34.5t-35 92.5q0 76 52 129q53 54 123 54q58 0 94 -36t36 -93q0 -74 -51 -128q-51 -53 -122 -53zM868 260q-48 0 -84 -39q-35 -40 -35 -91q0 -42 23.5 -67.5t64.5 -25.5q50 0 83 40q34 40 34 91q0 40 -24 66t-62 26zM201 359q-61 0 -96.5 35.5
t-35.5 93.5q0 75 52 127q53 54 124 54q57 0 93 -37t36 -94q0 -74 -52 -126q-51 -53 -121 -53zM238 625q-52 0 -86 -40q-34 -38 -34 -92q0 -41 24 -66t65 -25q49 0 83 39q34 40 34 90q0 40 -24 67t-62 27zM483 -6q-62 0 -97 34.5t-35 92.5q0 76 52 129q53 54 123 54
q58 0 94 -36t36 -93q0 -74 -51 -128q-51 -53 -122 -53zM520 260q-48 0 -84 -39q-35 -40 -35 -91q0 -42 23.5 -67.5t64.5 -25.5q50 0 83 40q34 40 34 91q0 40 -24 66t-62 26zM632 681h46l-594 -700h-46z" />
    <glyph glyph-name="guilsinglleft" unicode="&#x2039;" horiz-adv-x="276" 
d="M255 381l-159 -180l108 -185h-62l-106 178l1 9l159 178h59z" />
    <glyph glyph-name="guilsinglright" unicode="&#x203a;" horiz-adv-x="276" 
d="M73 16h-62l160 185l-109 180h59l109 -178l-1 -9z" />
    <glyph glyph-name="fraction" unicode="&#x2044;" horiz-adv-x="105" 
d="M332 681h46l-592 -700h-46z" />
    <glyph glyph-name="fraction" unicode="&#x2215;" horiz-adv-x="105" 
d="M332 681h46l-592 -700h-46z" />
    <glyph glyph-name="zerosuperior" unicode="&#x2070;" horiz-adv-x="333" 
d="M236 777q110 0 110 -142q0 -85 -33 -161q-18 -41 -52.5 -66t-80.5 -25q-113 0 -113 139q0 71 30 155q18 46 54 73t85 27zM230 736q-40 0 -62 -27.5t-38 -75.5q-8 -27 -11 -52q-3 -36 -3 -55q0 -102 70 -102q34 0 59 24.5t34 64.5q17 69 17 121q0 102 -66 102z" />
    <glyph glyph-name="foursuperior" unicode="&#x2074;" horiz-adv-x="333" 
d="M43 496l237 276h52l-216 -251h133l13 87l42 53h10l-20 -140h56l-5 -39h-56l-13 -92h-45l13 92h-203z" />
    <glyph glyph-name="fivesuperior" unicode="&#x2075;" horiz-adv-x="333" 
d="M209 632q54 0 86.5 -28.5t32.5 -80.5q0 -63 -49 -102q-49 -38 -111 -38q-73 0 -115 36l8 53q18 -21 48.5 -34.5t63.5 -13.5q46 0 77.5 28.5t31.5 69.5q0 32 -23 50t-61 18q-52 0 -99 -27l-8 3l52 206h202l-5 -40h-162l-28 -108q27 8 59 8z" />
    <glyph glyph-name="sixsuperior" unicode="&#x2076;" horiz-adv-x="333" 
d="M219 632q51 0 84 -30.5t33 -76.5q0 -61 -47 -102q-46 -40 -112 -40q-58 0 -90 27.5t-32 73.5q0 25 9 49q13 37 43 74l125 165h52l-112 -145q18 5 47 5zM206 591q-42 0 -71.5 -29.5t-29.5 -68.5q0 -31 20.5 -50t56.5 -19q45 0 75 27t30 68q0 30 -23 51t-58 21z" />
    <glyph glyph-name="sevensuperior" unicode="&#x2077;" horiz-adv-x="316" 
d="M348 764l-229 -376h-48l211 344h-199l5 40h261z" />
    <glyph glyph-name="eightsuperior" unicode="&#x2078;" horiz-adv-x="333" 
d="M207 570q-39 0 -67 -24.5t-28 -60.5q0 -28 19.5 -44.5t54.5 -16.5q39 0 65.5 24.5t26.5 57.5q0 29 -20 46.5t-51 17.5zM236 777q43 0 71.5 -25t28.5 -66q0 -59 -56 -95q47 -27 47 -80q0 -54 -44 -92q-43 -36 -102 -36q-54 0 -86 25.5t-32 70.5q0 31 19 61t51 50
q-31 28 -31 69q0 51 40 84q40 34 94 34zM228 735q-32 0 -55.5 -21t-23.5 -50q0 -23 17 -38.5t45 -15.5q32 0 54 21t22 49q0 24 -16.5 39.5t-42.5 15.5z" />
    <glyph glyph-name="ninesuperior" unicode="&#x2079;" horiz-adv-x="333" 
d="M239 777q56 0 87 -28.5t31 -73.5q0 -53 -51 -122l-124 -165h-53l106 143q-13 -3 -40 -3q-53 0 -86 29t-33 77q0 61 47 102q49 41 116 41zM209 569q41 0 70 28.5t29 69.5q0 31 -20.5 50t-55.5 19q-45 0 -76 -27.5t-31 -68.5q0 -33 22.5 -52t61.5 -19z" />
    <glyph glyph-name="plussuperior" unicode="&#x207a;" horiz-adv-x="345" 
d="M206 520h-106l4 33h106l14 97h35l-14 -97h105l-4 -33h-105l-14 -100h-35z" />
    <glyph glyph-name="hyphensuperior" unicode="&#x207b;" horiz-adv-x="253" 
d="M265 503h-186l5 37h186z" />
    <glyph glyph-name="equalsuperior" unicode="&#x207c;" horiz-adv-x="346" 
d="M345 563h-255l4 32h255zM333 480h-255l4 32h255z" />
    <glyph glyph-name="parenleftsuperior" unicode="&#x207d;" horiz-adv-x="188" 
d="M220 832l25 -9q-27 -31 -46 -61q-23 -37 -48 -109q-25 -71 -25 -147q0 -108 48 -194l-29 -10q-67 91 -67 211q0 107 45 188q44 81 97 131z" />
    <glyph glyph-name="parenrightsuperior" unicode="&#x207e;" horiz-adv-x="188" 
d="M88 822l29 9q68 -92 68 -207q0 -120 -58 -213q-46 -73 -85 -110l-25 10q121 151 121 319q0 112 -50 192z" />
    <glyph glyph-name="nsuperior" unicode="&#x207f;" horiz-adv-x="351" 
d="M97 300h-46l41 295h35l-2 -59q45 64 120 64q111 0 94 -123l-25 -177h-45l24 173q6 42 -10 64t-52 22q-41 0 -74 -33t-41 -90z" />
    <glyph glyph-name="zeroinferior" unicode="&#x2080;" horiz-adv-x="333" 
d="M170 297q110 0 110 -142q0 -87 -33 -160q-18 -42 -52.5 -67t-80.5 -25q-113 0 -113 139q0 71 30 155q18 46 54 73t85 27zM164 256q-40 0 -62 -27.5t-38 -75.5q-8 -27 -11 -52q-3 -36 -3 -55q0 -102 70 -102q34 0 59 24.5t34 64.5q17 69 17 121q0 102 -66 102z" />
    <glyph glyph-name="oneinferior" unicode="&#x2081;" horiz-adv-x="279" 
d="M184 297h8l-55 -389h-47l45 316q-16 -10 -53 -28q-28 -12 -53 -26l7 47z" />
    <glyph glyph-name="twoinferior" unicode="&#x2082;" horiz-adv-x="333" 
d="M175 297q52 0 81.5 -26t29.5 -70q0 -48 -37 -100q-34 -49 -71 -82.5t-90 -69.5h164l-4 -40h-273l1 10q265 156 265 272q0 65 -69 65q-59 0 -128 -51l10 53q64 39 121 39z" />
    <glyph glyph-name="threeinferior" unicode="&#x2083;" horiz-adv-x="333" 
d="M74 114l-4 8l137 130h-161l5 40h243l-1 -8l-145 -137q53 0 84.5 -28t31.5 -75q0 -65 -47 -103t-108 -38q-81 0 -124 36l7 51q52 -49 116 -49q47 0 77.5 29.5t30.5 72.5q0 37 -25.5 56t-69.5 19q-30 0 -47 -4z" />
    <glyph glyph-name="fourinferior" unicode="&#x2084;" horiz-adv-x="333" 
d="M-24 14l237 276h52l-216 -251h133l13 94l39 46h13l-20 -140h56l-5 -39h-56l-13 -92h-45l13 92h-203z" />
    <glyph glyph-name="fiveinferior" unicode="&#x2085;" horiz-adv-x="333" 
d="M143 152q54 0 86.5 -28.5t32.5 -80.5q0 -64 -49 -101q-48 -39 -111 -39q-73 0 -115 36l8 53q18 -21 48.5 -34.5t63.5 -13.5q46 0 77.5 28.5t31.5 69.5q0 32 -23 50t-61 18q-52 0 -99 -27l-8 3l52 206h202l-5 -40h-162l-28 -108q27 8 59 8z" />
    <glyph glyph-name="sixinferior" unicode="&#x2086;" horiz-adv-x="333" 
d="M153 152q51 0 84 -30.5t33 -76.5q0 -60 -47 -101t-112 -41q-58 0 -90 27.5t-32 73.5q0 25 9 49q13 37 43 74l125 165h52l-112 -145q18 5 47 5zM140 111q-42 0 -71.5 -29.5t-29.5 -68.5q0 -31 20.5 -50t56.5 -19q45 0 75 27t30 68q0 30 -23 51t-58 21z" />
    <glyph glyph-name="seveninferior" unicode="&#x2087;" horiz-adv-x="316" 
d="M284 284l-229 -376h-48l211 344h-199l5 40h261z" />
    <glyph glyph-name="eightinferior" unicode="&#x2088;" horiz-adv-x="333" 
d="M141 90q-39 0 -67 -24.5t-28 -60.5q0 -28 19.5 -44.5t54.5 -16.5q39 0 65.5 24.5t26.5 57.5q0 29 -20 46.5t-51 17.5zM170 297q43 0 71.5 -25t28.5 -66q0 -59 -56 -95q47 -27 47 -80q0 -55 -44 -91q-43 -37 -102 -37q-54 0 -86 25.5t-32 70.5q0 31 19 61t51 50
q-31 28 -31 69q0 51 40 84q40 34 94 34zM162 255q-32 0 -55.5 -21t-23.5 -50q0 -23 17 -38.5t45 -15.5q32 0 54 21t22 49q0 24 -16.5 39.5t-42.5 15.5z" />
    <glyph glyph-name="nineinferior" unicode="&#x2089;" horiz-adv-x="333" 
d="M176 297q56 0 87 -28.5t31 -73.5q0 -53 -51 -122l-124 -165h-53l106 143q-14 -3 -40 -3q-53 0 -86 29t-33 77q0 61 47 102q49 41 116 41zM146 89q41 0 70 28.5t29 69.5q0 31 -20.5 50t-55.5 19q-45 0 -76 -27.5t-31 -68.5q0 -33 22.5 -52t61.5 -19z" />
    <glyph glyph-name="plusinferior" unicode="&#x208a;" horiz-adv-x="345" 
d="M141 64h-106l5 32h106l14 97h35l-14 -97h105l-5 -32h-105l-14 -100h-35z" />
    <glyph glyph-name="hypheninferior" unicode="&#x208b;" horiz-adv-x="253" 
d="M201 46h-186l5 38h186z" />
    <glyph glyph-name="equalinferior" unicode="&#x208c;" horiz-adv-x="345" 
d="M285 107h-255l4 32h255zM273 23h-255l4 33h255z" />
    <glyph glyph-name="parenleftinferior" unicode="&#x208d;" horiz-adv-x="188" 
d="M157 374l26 -9q-25 -27 -47 -61q-22 -36 -48 -108q-25 -69 -25 -145q0 -105 48 -197l-28 -10q-67 91 -67 214q0 74 27 144q29 71 55 106q32 40 59 66z" />
    <glyph glyph-name="parenrightinferior" unicode="&#x208e;" horiz-adv-x="188" 
d="M26 364l28 9q68 -88 68 -206q0 -122 -58 -213q-43 -73 -84 -111l-26 10q121 149 121 322q0 112 -49 189z" />
    <glyph glyph-name="Euro" unicode="&#x20ac;" horiz-adv-x="529" 
d="M40 272l5 37h395l-5 -37h-293q-2 -30 -2 -32q0 -98 56 -148q58 -50 142 -50q66 0 136 30l-11 -52q-66 -26 -133 -26q-105 0 -176 65q-70 64 -70 179q0 2 2 34h-46zM453 403l-5 -37h-395l5 37h51q30 124 114 194q85 71 192 71q66 0 120 -17l1 -51q-50 18 -117 18
q-89 0 -159 -58q-70 -57 -94 -157h287z" />
    <glyph glyph-name="centigrade" unicode="&#x2103;" horiz-adv-x="794" 
d="M747 96l-8 -57q-81 -48 -198 -48q-139 0 -212 76q-74 77 -74 201q0 120 55 214q54 92 140.5 141.5t189.5 49.5q104 0 159 -33l-3 -58q-65 39 -157 39q-83 0 -157 -41q-73 -40 -120 -122t-47 -184q0 -107 63 -169t177 -62q94 0 192 53zM165 682q47 0 75.5 -28.5
t28.5 -73.5q0 -57 -40 -97t-97 -40q-47 0 -74 27t-27 71q0 55 41 98q40 43 93 43zM160 642q-35 0 -61 -29t-26 -64q0 -29 17.5 -48.5t46.5 -19.5q39 0 65.5 27.5t26.5 64.5q0 30 -18.5 49.5t-50.5 19.5z" />
    <glyph glyph-name="fahrenheit" unicode="&#x2109;" horiz-adv-x="737" 
d="M378 303l-42 -303h-57l93 662h408l-8 -52h-351l-36 -255h322l-7 -52h-322zM165 682q47 0 75.5 -28.5t28.5 -73.5q0 -57 -40 -97t-97 -40q-47 0 -74 27t-27 71q0 55 41 98q40 43 93 43zM160 642q-35 0 -61 -29t-26 -64q0 -29 17.5 -48.5t46.5 -19.5q39 0 65.5 27.5
t26.5 64.5q0 30 -18.5 49.5t-50.5 19.5z" />
    <glyph glyph-name="afii61289" unicode="&#x2113;" horiz-adv-x="508" 
d="M111 180l-20 37l74 56v209q0 107 39 160t107 53q48 0 79.5 -29t31.5 -84q0 -151 -207 -331v-81q0 -133 100 -133q77 0 131 104l38 -20q-64 -130 -173 -130q-70 0 -106 41t-38 116q-1 9 -1 71q-17 -13 -55 -39zM215 485l1 -176q159 151 159 270q0 32 -18 53.5t-49 21.5
q-39 0 -66 -44t-27 -125z" />
    <glyph glyph-name="afii61352" unicode="&#x2116;" horiz-adv-x="1022" 
d="M977 309l-6 -44h-303l6 44h303zM178 537l-75 -537h-55l93 668h20l356 -540h4l76 534h55l-94 -666h-20l-357 541h-3zM872 674q63 0 98.5 -36t35.5 -96q0 -74 -48 -126t-124 -52q-65 0 -101 35t-36 96q0 73 48 126q50 53 127 53zM871 630q-53 0 -87 -38t-34 -96
q0 -41 22 -66t62 -25q54 0 88 40q35 41 35 95q0 40 -23.5 65t-62.5 25z" />
    <glyph glyph-name="published" unicode="&#x2117;" horiz-adv-x="821" 
d="M447 -13q-163 0 -260 102q-97 103 -97 265q0 156 104 260t253 104q147 0 251 -104t104 -260t-104 -262q-104 -105 -251 -105zM134 354q0 -141 83 -233q82 -91 220 -91q131 0 225 94q95 95 95 230t-90 227q-90 93 -220 93q-131 0 -222 -93q-91 -91 -91 -227zM485 259h-110
v-147h-52v461h163q78 0 121 -46q44 -47 44 -110q0 -72 -49 -115t-117 -43zM600 417q0 49 -33 82t-93 33h-99v-232h106q56 0 87.5 33.5t31.5 83.5z" />
    <glyph glyph-name="trademark" unicode="&#x2122;" horiz-adv-x="735" 
d="M405 671l151 -191h5l149 191h12v-362h-44v248h-4l-111 -141h-10l-111 139q-1 -1 -3 -1v-245h-47v362h13zM363 633h-106v-324h-46v324h-109v38h261v-38z" />
    <glyph glyph-name="Ohm" unicode="&#x2126;" horiz-adv-x="763" 
d="M437 621q-137 0 -230 -101q-93 -100 -93 -241q0 -86 38 -162q38 -73 117 -105l-1 -12h-253l7 52h117v4q-84 76 -84 211q-2 108 52.5 203.5t145.5 150.5t191 52q126 0 206 -83q79 -82 79 -208q0 -90 -42 -179q-41 -89 -117 -147v-4h118l-7 -52h-252l1 12q79 29 136 95
q107 124 107 269q0 103 -62 174t-174 71z" />
    <glyph glyph-name="angstrom" unicode="&#x212b;" horiz-adv-x="600" 
d="M550 0h-57l-42 161h-322l-87 -161h-62l372 665h14zM346 545h-4l-185 -335h280zM385 850q34 0 55 -21t21 -54q0 -41 -30 -69q-29 -29 -70 -29q-35 0 -54.5 18.5t-19.5 51.5q0 42 29.5 72.5t68.5 30.5zM381 816q-24 0 -41.5 -19t-17.5 -43q0 -19 12 -31.5t32 -12.5
q26 0 42.5 18t16.5 43q0 19 -12 32t-32 13z" />
    <glyph glyph-name="estimated" unicode="&#x212e;" horiz-adv-x="817" 
d="M795 319h-570v-193q33 -51 94 -84t126 -33q63 0 124.5 30.5t103.5 82.5h50q-54 -63 -126.5 -98t-152.5 -35q-145 0 -248 100t-103 240q0 137 103 234t248 97q147 0 248 -98q101 -97 103 -243zM225 337h436v193q-30 50 -92 80q-61 31 -124 31q-56 0 -114.5 -30.5
t-105.5 -83.5v-190z" />
    <glyph glyph-name="onethird" unicode="&#x2153;" horiz-adv-x="735" 
d="M594 681h46l-592 -700h-46zM249 687h8l-55 -389h-47l45 316q-16 -10 -54 -27q-34 -16 -52 -27l7 47zM466 204l-4 8l137 130h-161l5 40h243l-1 -8l-145 -137q53 0 84.5 -28t31.5 -75q0 -65 -47 -103t-108 -38q-81 0 -124 36l7 51q52 -49 116 -49q47 0 77.5 29.5t30.5 72.5
q0 37 -25.5 56t-69.5 19q-30 0 -47 -4z" />
    <glyph glyph-name="twothirds" unicode="&#x2154;" horiz-adv-x="735" 
d="M487 204l-4 8l137 130h-161l5 40h243l-1 -8l-145 -137q53 0 84.5 -28t31.5 -75q0 -65 -47 -103t-108 -38q-80 0 -124 36l7 51q52 -49 116 -49q47 0 77.5 29.5t30.5 72.5q0 37 -25.5 56t-69.5 19q-30 0 -47 -4zM211 686q52 0 81.5 -26t29.5 -70q0 -48 -37 -100
q-34 -49 -71 -82.5t-90 -69.5h164l-4 -40h-273l1 10q265 156 265 272q0 65 -69 65q-59 0 -128 -51l10 53q64 39 121 39zM639 681h46l-592 -700h-46z" />
    <glyph glyph-name="onefifth" unicode="&#x2155;" horiz-adv-x="735" 
d="M245 687h8l-55 -389h-47l45 316q-19 -12 -53 -27t-53 -27l7 47zM538 242q54 0 86.5 -28.5t32.5 -80.5q0 -63 -49 -102q-49 -38 -111 -38q-73 0 -115 36l8 53q18 -21 48.5 -34.5t63.5 -13.5q46 0 77.5 28.5t31.5 69.5q0 32 -23 50t-61 18q-53 0 -99 -27l-8 3l52 206h202
l-5 -40h-162l-28 -108q27 8 59 8zM605 681h46l-592 -700h-46z" />
    <glyph glyph-name="twofifths" unicode="&#x2156;" horiz-adv-x="735" 
d="M558 242q54 0 86.5 -28.5t32.5 -80.5q0 -63 -49 -102q-49 -38 -111 -38q-73 0 -115 36l8 53q18 -21 48.5 -34.5t63.5 -13.5q46 0 77.5 28.5t31.5 69.5q0 32 -23 50t-61 18q-53 0 -99 -27l-8 3l52 206h202l-5 -40h-162l-28 -108q27 8 59 8zM230 686q52 0 81.5 -26
t29.5 -70q0 -48 -37 -100q-34 -49 -71 -82.5t-90 -69.5h164l-4 -40h-273l1 10q265 156 265 272q0 65 -69 65q-59 0 -128 -51l10 53q65 39 121 39zM663 681h46l-592 -700h-46z" />
    <glyph glyph-name="threefifths" unicode="&#x2157;" horiz-adv-x="735" 
d="M132 504l-4 8l137 130h-161l5 40h243l-1 -8l-145 -137q53 0 84.5 -28t31.5 -75q0 -65 -47 -103t-108 -38q-81 0 -124 36l7 51q52 -49 116 -49q47 0 77.5 29.5t30.5 72.5q0 37 -25.5 56t-69.5 19q-30 0 -47 -4zM555 242q54 0 86.5 -28.5t32.5 -80.5q0 -63 -49 -102
q-49 -38 -111 -38q-73 0 -115 36l8 53q18 -21 48.5 -34.5t63.5 -13.5q46 0 77.5 28.5t31.5 69.5q0 32 -23 50t-61 18q-52 0 -99 -27l-8 3l52 206h202l-5 -40h-162l-28 -108q27 8 59 8zM640 681h46l-592 -700h-46z" />
    <glyph glyph-name="fourfifths" unicode="&#x2158;" horiz-adv-x="735" 
d="M26 406l237 276h52l-216 -251h133l13 87l42 53h10l-20 -140h56l-5 -39h-56l-13 -92h-45l13 92h-203zM564 242q54 0 86.5 -28.5t32.5 -80.5q0 -63 -49 -102q-49 -38 -111 -38q-73 0 -115 36l8 53q18 -21 48.5 -34.5t63.5 -13.5q46 0 77.5 28.5t31.5 69.5q0 32 -23 50
t-61 18q-53 0 -99 -27l-8 3l52 206h202l-5 -40h-162l-28 -108q27 8 59 8zM643 681h46l-592 -700h-46z" />
    <glyph glyph-name="onesixth" unicode="&#x2159;" horiz-adv-x="735" 
d="M248 687h8l-55 -389h-47l45 316q-15 -10 -53 -27t-53 -27l7 47zM520 242q51 0 84 -30.5t33 -76.5q0 -61 -47 -102q-46 -40 -112 -40q-58 0 -90 27.5t-32 73.5q0 25 9 49q13 37 43 74l125 165h52l-112 -145q18 5 47 5zM507 201q-42 0 -71.5 -29.5t-29.5 -68.5
q0 -31 20.5 -50t56.5 -19q45 0 75 27t30 68q0 30 -23 51t-58 21zM616 681h46l-592 -700h-46z" />
    <glyph glyph-name="fivesixths" unicode="&#x215a;" horiz-adv-x="735" 
d="M560 242q51 0 84 -30.5t33 -76.5q0 -61 -47 -102q-46 -40 -112 -40q-58 0 -90 27.5t-32 73.5q0 25 9 49q13 37 43 74l125 165h52l-112 -145q18 5 47 5zM547 201q-42 0 -71.5 -29.5t-29.5 -68.5q0 -31 20.5 -50t56.5 -19q45 0 75 27t30 68q0 30 -23 51t-58 21zM196 542
q54 0 86.5 -28.5t32.5 -80.5q0 -63 -49 -102q-49 -38 -111 -38q-73 0 -115 36l8 53q18 -21 48.5 -34.5t63.5 -13.5q46 0 77.5 28.5t31.5 69.5q0 32 -23 50t-61 18q-53 0 -99 -27l-8 3l52 206h202l-5 -40h-162l-28 -108q27 8 59 8zM652 681h46l-592 -700h-46z" />
    <glyph glyph-name="oneeighth" unicode="&#x215b;" horiz-adv-x="735" 
d="M597 681h46l-592 -700h-46zM246 687h8l-55 -389h-47l45 316q-17 -10 -54 -27q-34 -16 -52 -27l7 47zM517 180q-39 0 -67 -24.5t-28 -60.5q0 -28 19.5 -44.5t54.5 -16.5q39 0 65.5 24.5t26.5 57.5q0 29 -20 46.5t-51 17.5zM546 387q43 0 71.5 -25t28.5 -66q0 -59 -56 -95
q47 -27 47 -80q0 -54 -44 -92q-43 -36 -102 -36q-54 0 -86 25.5t-32 70.5q0 31 19 61t51 50q-31 28 -31 69q0 51 40 84q40 34 94 34zM538 345q-32 0 -55.5 -21t-23.5 -50q0 -23 17 -38.5t45 -15.5q32 0 54 21t22 49q0 24 -16.5 39.5t-42.5 15.5z" />
    <glyph glyph-name="threeeighths" unicode="&#x215c;" horiz-adv-x="735" 
d="M536 180q-39 0 -67 -24.5t-28 -60.5q0 -28 19.5 -44.5t54.5 -16.5q39 0 65.5 24.5t26.5 57.5q0 29 -20 46.5t-51 17.5zM565 387q43 0 71.5 -25t28.5 -66q0 -59 -56 -95q47 -27 47 -80q0 -54 -44 -92q-44 -36 -102 -36q-54 0 -86 25.5t-32 70.5q0 31 19 61t51 50
q-31 28 -31 69q0 51 40 84q40 34 94 34zM557 345q-32 0 -55.5 -21t-23.5 -50q0 -23 17 -38.5t45 -15.5q32 0 54 21t22 49q0 24 -16.5 39.5t-42.5 15.5zM130 504l-4 8l137 130h-161l5 40h243l-1 -8l-145 -137q53 0 84.5 -28t31.5 -75q0 -65 -47 -103t-108 -38q-81 0 -124 36
l7 51q52 -49 116 -49q47 0 77.5 29.5t30.5 72.5q0 37 -25.5 56t-69.5 19q-30 0 -47 -4zM630 681h46l-592 -700h-46z" />
    <glyph glyph-name="fiveeighths" unicode="&#x215d;" horiz-adv-x="735" 
d="M546 180q-39 0 -67 -24.5t-28 -60.5q0 -28 19.5 -44.5t54.5 -16.5q39 0 65.5 24.5t26.5 57.5q0 29 -20 46.5t-51 17.5zM575 387q43 0 71.5 -25t28.5 -66q0 -59 -56 -95q47 -27 47 -80q0 -54 -44 -92q-44 -36 -102 -36q-54 0 -86 25.5t-32 70.5q0 31 19 61t51 50
q-31 28 -31 69q0 51 40 84q40 34 94 34zM567 345q-32 0 -55.5 -21t-23.5 -50q0 -23 17 -38.5t45 -15.5q32 0 54 21t22 49q0 24 -16.5 39.5t-42.5 15.5zM195 542q54 0 86.5 -28.5t32.5 -80.5q0 -63 -49 -102q-49 -38 -111 -38q-73 0 -115 36l8 53q18 -21 48.5 -34.5
t63.5 -13.5q46 0 77.5 28.5t31.5 69.5q0 32 -23 50t-61 18q-52 0 -99 -27l-8 3l52 206h202l-5 -40h-162l-28 -108q27 8 59 8zM636 681h46l-592 -700h-46z" />
    <glyph glyph-name="seveneighths" unicode="&#x215e;" horiz-adv-x="735" 
d="M527 180q-39 0 -67 -24.5t-28 -60.5q0 -28 19.5 -44.5t54.5 -16.5q39 0 65.5 24.5t26.5 57.5q0 29 -20 46.5t-51 17.5zM556 387q43 0 71.5 -25t28.5 -66q0 -59 -56 -95q47 -27 47 -80q0 -54 -44 -92q-43 -36 -102 -36q-54 0 -86 25.5t-32 70.5q0 31 19 61t51 50
q-31 28 -31 69q0 51 40 84q40 34 94 34zM548 345q-32 0 -55.5 -21t-23.5 -50q0 -23 17 -38.5t45 -15.5q32 0 54 21t22 49q0 24 -16.5 39.5t-42.5 15.5zM358 674l-229 -376h-48l211 344h-199l5 40h261zM591 681h46l-592 -700h-46z" />
    <glyph glyph-name="uni215F" unicode="&#x215f;" horiz-adv-x="424" 
d="M255 687h8l-55 -389h-47l45 316q-19 -12 -53 -27t-53 -27l7 47zM614 681h46l-592 -700h-46z" />
    <glyph glyph-name="partialdiff" unicode="&#x2202;" horiz-adv-x="521" 
d="M209 -10q-76 0 -120 44.5t-44 125.5q0 112 65 185q66 72 159 72q42 0 83.5 -17.5t69.5 -50.5q5 50 5 78q0 112 -45 177t-125 65q-33 0 -57 -4l20 46q19 4 50 4q108 0 161 -81q53 -80 53 -206q0 -202 -82 -320t-193 -118zM218 39q74 0 127 75q53 77 69 175q-58 82 -149 82
q-76 0 -121 -62q-44 -62 -44 -143q0 -62 31.5 -94.5t86.5 -32.5z" />
    <glyph glyph-name="gradient" unicode="&#x2207;" horiz-adv-x="624" 
d="M75 662h595l-384 -666h-17zM579 611h-433l146 -500h1z" />
    <glyph glyph-name="product" unicode="&#x220f;" horiz-adv-x="593" 
d="M577 662l-108 -762h-55l100 710h-334l-100 -710h-57l108 762h446z" />
    <glyph glyph-name="summation" unicode="&#x2211;" horiz-adv-x="563" 
d="M200 609l126 -300l-234 -356h395l-8 -53h-485l2 9l263 398l-146 343l2 12h454l-8 -53h-361z" />
    <glyph glyph-name="minus" unicode="&#x2212;" horiz-adv-x="529" 
d="M460 321l-7 -45h-372l7 45h372z" />
    <glyph glyph-name="radical" unicode="&#x221a;" horiz-adv-x="512" 
d="M41 328l102 50l62 -292l1 1q61 140 151 335q96 208 154 345h50l-363 -796h-16l-79 341l-52 -25z" />
    <glyph glyph-name="infinity" unicode="&#x221e;" horiz-adv-x="735" 
d="M228 440q80 0 159 -111l63 57q69 54 133 54q55 0 87.5 -33t32.5 -86q0 -74 -51 -125t-119 -51q-41 0 -76.5 24t-81.5 84q-38 -36 -61 -54q-69 -54 -133 -54q-51 0 -84.5 35.5t-33.5 88.5q0 71 49 120q49 51 116 51zM218 392q-42 0 -73 -36q-31 -35 -31 -80q0 -36 22 -60
t58 -24q60 0 158 97q-29 40 -57 68q-35 35 -77 35zM572 392q-58 0 -159 -100l44 -57q36 -43 84 -43q46 0 77 37q32 38 32 83q0 36 -22 58t-56 22z" />
    <glyph glyph-name="logicaland" unicode="&#x2227;" horiz-adv-x="529" 
d="M296 472l149 -472h-55l-116 368q-43 -80 -105 -188l-102 -180h-54q52 97 134 238q101 173 134 234h15z" />
    <glyph glyph-name="logicalor" unicode="&#x2228;" horiz-adv-x="529" 
d="M237 102l219 368h55l-282 -472h-15q-25 94 -67 232q-50 170 -68 240h54q10 -38 52 -184t52 -184z" />
    <glyph glyph-name="intersection" unicode="&#x2229;" horiz-adv-x="529" 
d="M130 278l-39 -278h-53l39 280q12 88 70.5 140.5t146.5 52.5t132.5 -56.5t31.5 -147.5l-37 -269h-55l38 271q9 68 -22 110t-96 42t-106 -39t-50 -106z" />
    <glyph glyph-name="union" unicode="&#x222a;" horiz-adv-x="529" 
d="M76 191l39 278h53l-39 -277q-9 -66 21 -105t95 -39q66 0 109 42t52 110l37 269h55l-37 -268q-14 -90 -73 -146q-61 -56 -149 -56t-131.5 52t-31.5 140z" />
    <glyph glyph-name="integral" unicode="&#x222b;" horiz-adv-x="316" 
d="M114 12q14 96 25 281q10 167 25 279q10 75 47 117.5t96 42.5q35 0 65 -11v-42q-30 6 -58 6q-43 0 -66.5 -26t-32.5 -87q-14 -103 -25 -286q-9 -171 -23 -274q-11 -75 -47 -115t-95 -40q-27 0 -66 11l2 44q31 -10 64 -10q43 0 62.5 26t26.5 84z" />
    <glyph glyph-name="approxequal" unicode="&#x2248;" horiz-adv-x="529" 
d="M423 279l24 -31q-45 -72 -110 -72q-30 0 -85 26q-52 27 -71 27q-45 0 -85 -60l-23 32q49 73 110 73q32 0 86 -27q55 -27 73 -27q46 0 81 59zM441 409l24 -32q-43 -67 -109 -67q-30 0 -87 26q-55 27 -73 27q-38 0 -80 -54l-20 33q43 67 106 67q32 0 86 -27q55 -27 73 -27
q39 0 80 54z" />
    <glyph glyph-name="notequal" unicode="&#x2260;" horiz-adv-x="529" 
d="M92 93h-49l105 100h-85l6 44h126l124 118h-234l7 44h275l80 77h49l-81 -77h60l-7 -44h-100l-125 -118h209l-6 -44h-249z" />
    <glyph glyph-name="lessequal" unicode="&#x2264;" horiz-adv-x="529" 
d="M473 164l-8 -53l-416 183l2 12l467 183l-7 -53l-346 -134zM453 25h-442l7 48h442z" />
    <glyph glyph-name="greaterequal" unicode="&#x2265;" horiz-adv-x="529" 
d="M18 73h442l-7 -48h-442zM493 306l-2 -12l-468 -183l8 53l346 138l-308 134l7 53z" />
    <glyph glyph-name="lozenge" unicode="&#x25ca;" horiz-adv-x="540" 
d="M317 0h-26l-198 344l198 332h26l196 -332zM304 601l-151 -257l152 -269l147 269z" />
    <glyph glyph-name="zero.text" unicode="&#xe000;" horiz-adv-x="529" 
d="M314 671q112 0 156 -79q39 -68 39 -168q0 -15 -2 -55q-6 -77 -30 -157q-14 -45 -34 -82.5t-50 -70.5t-73 -51.5t-94 -18.5q-191 0 -191 241q0 16 2 58q8 88 30 160q28 97 88.5 160t158.5 63zM312 623q-115 0 -173 -137q-26 -60 -40 -153q-7 -52 -7 -102q0 -194 139 -194
q56 0 101 34t68 85q21 44 35 109q19 93 19 163q0 195 -142 195z" />
    <glyph glyph-name="one.text" unicode="&#xe001;" horiz-adv-x="390" 
d="M288 666h14l-93 -666h-55l81 577l-170 -109l9 61z" />
    <glyph glyph-name="two.text" unicode="&#xe002;" horiz-adv-x="516" 
d="M266 671q76 0 120.5 -44t44.5 -115q0 -69 -37.5 -145.5t-98.5 -141.5q-102 -110 -205 -177h285l-6 -48h-404l2 13q41 27 88 60q47 35 105 85q65 56 107 105q45 53 77 115q33 64 33 121q0 60 -31 91t-85 31q-45 0 -94.5 -20t-89.5 -54l9 60q85 64 180 64z" />
    <glyph glyph-name="three.text" unicode="&#xe003;" horiz-adv-x="529" 
d="M149 356l-8 11l235 244v4h-291l6 46h389l-1 -13l-235 -240q84 0 133.5 -44.5t49.5 -117.5q0 -114 -77 -185q-76 -70 -186 -70q-118 0 -186 58l9 64q73 -73 185 -73q85 0 141 56t56 138q0 64 -41 97t-113 33q-31 0 -66 -8z" />
    <glyph glyph-name="four.text" unicode="&#xe004;" horiz-adv-x="529" 
d="M366 403l55 69h9l-35 -251h89l-7 -46h-89l-24 -175h-54l24 175h-350l2 13l404 474h68l-377 -441h260z" />
    <glyph glyph-name="five.text" unicode="&#xe005;" horiz-adv-x="529" 
d="M263 409q82 0 138 -44t56 -126q0 -113 -80 -181q-79 -67 -185 -67q-116 0 -183 58l10 65q27 -33 76 -54t104 -21q87 0 143 55q58 55 58 138q0 63 -41 96t-112 33q-81 0 -160 -46l-14 5l91 341h331l-6 -45h-282l-61 -228q50 21 117 21z" />
    <glyph glyph-name="six.text" unicode="&#xe006;" horiz-adv-x="529" 
d="M110 381l205 280h61l-211 -286l5 -1q41 33 115 33q82 0 132 -48t50 -126q0 -105 -73 -175q-74 -69 -177 -69q-90 0 -142.5 47t-52.5 128q0 98 88 217zM271 360q-79 0 -136 -51t-57 -136q0 -62 38.5 -99.5t107.5 -37.5q83 0 135 55q53 56 53 135q0 61 -38 97.5t-103 36.5z
" />
    <glyph glyph-name="seven.text" unicode="&#xe007;" horiz-adv-x="442" 
d="M458 647l-374 -647h-55l356 615h-328l6 46h397z" />
    <glyph glyph-name="eight.text" unicode="&#xe008;" horiz-adv-x="529" 
d="M320 672q72 0 121 -41q49 -40 49 -108q0 -55 -32.5 -101.5t-83.5 -64.5l-1 -3q96 -40 96 -142q0 -100 -72 -161q-70 -61 -173 -61q-88 0 -141 43t-53 115q0 67 38.5 121t103.5 77l1 4q-73 36 -73 122q0 87 65 143q66 57 155 57zM271 326q-81 0 -133 -48q-53 -47 -53 -117
q0 -56 39 -90.5t107 -34.5q82 0 132 49q51 49 51 121q0 54 -38.5 87t-104.5 33zM313 623q-67 0 -112 -42q-45 -41 -45 -103q0 -47 33.5 -76.5t88.5 -29.5q63 0 109 41q46 40 46 102q0 48 -33 78t-87 30z" />
    <glyph glyph-name="nine.text" unicode="&#xe009;" horiz-adv-x="529" 
d="M310 671q89 0 140 -47t51 -126q0 -95 -86 -216l-205 -282h-61l211 287l-3 3q-46 -35 -116 -35q-81 0 -131 48t-50 126q0 104 73 173t177 69zM256 303q78 0 134 50q55 51 55 137q0 61 -37.5 97.5t-104.5 36.5q-83 0 -135 -55q-53 -55 -53 -133q0 -60 38 -96.5t103 -36.5z
" />
    <glyph glyph-name="numbersign.text" unicode="&#xe00a;" horiz-adv-x="500" 
d="M389 452l64 176h40q-17 -46 -63 -176h78l-5 -36h-87l-63 -176h87l-5 -36h-95l-71 -204h-41l73 204h-158l-72 -204h-40l39 110l34 94h-83l5 36h90l27 76l36 100h-92l5 36h99l65 176h39l-63 -176h157zM376 416h-157l-63 -176h157q36 95 63 176z" />
    <glyph glyph-name="dollar.text" unicode="&#xe00b;" horiz-adv-x="508" 
d="M224 -96h-47l13 92q-104 4 -165 51l8 57q76 -61 171 -61q81 0 128 41.5t47 110.5q0 75 -98 123l-27 13.5t-28.5 14.5t-26 14.5t-27 17t-22.5 17.5t-20.5 20.5t-14.5 22t-11 26.5t-3 29q0 81 53 123q52 41 130 46l13 95h47l-13 -94q71 -3 129 -36l-9 -60q-61 48 -144 48
q-27 0 -51.5 -6t-47.5 -19t-37 -38.5t-14 -60.5q0 -53 99 -102q38 -18 62.5 -32.5t56 -38.5t47 -55t15.5 -68q0 -85 -58 -137q-59 -53 -142 -60z" />
    <glyph glyph-name="euro.text" unicode="&#xe00c;" horiz-adv-x="529" 
d="M35 272l5 37h395l-5 -37h-293q-2 -30 -2 -32q0 -98 56 -148q58 -50 142 -50q66 0 136 30l-11 -52q-66 -26 -133 -26q-105 0 -176 65q-70 64 -70 179q0 2 2 34h-46zM448 403l-5 -37h-395l5 37h51q30 124 114 194q85 71 192 71q66 0 120 -17l1 -51q-49 18 -117 18
q-89 0 -159 -58q-70 -57 -94 -157h287z" />
    <glyph glyph-name="florin.text" unicode="&#xe00d;" horiz-adv-x="449" 
d="M190 356h-79l3 43h86l17 95q17 90 56.5 133t105.5 43q31 0 64 -12v-49q-39 12 -63 12q-45 0 -70 -30t-38 -98l-18 -94h95l-3 -43h-100l-38 -187q-29 -148 -64 -201q-36 -55 -105 -55q-35 0 -72 15v57q43 -18 72 -18q49 0 69 44q20 41 52 197z" />
    <glyph glyph-name="sterling.text" unicode="&#xe00e;" horiz-adv-x="529" 
d="M507 649l-7 -50q-47 19 -88 19q-64 0 -107 -40t-55 -123l-13 -99h180l-6 -41h-180q-12 -74 -39 -149q-26 -76 -66 -119h301l-6 -47h-383l1 12q110 104 137 303h-80l6 41h80l14 100q6 49 25.5 90t44.5 63q63 57 151 57q51 0 90 -17z" />
    <glyph glyph-name="cent.text" unicode="&#xe00f;" horiz-adv-x="500" 
d="M281 6h-47l15 104q-75 9 -116 62.5t-41 134.5q0 106 62 179q63 73 160 85l15 109h47l-15 -107q57 -1 94 -20l-8 -54q-37 26 -98 26q-87 0 -145 -61q-58 -59 -58 -161q0 -66 40.5 -106t109.5 -40q74 0 126 34l-8 -54q-41 -24 -118 -29z" />
    <glyph glyph-name="yen.text" unicode="&#xe010;" horiz-adv-x="529" 
d="M482 322l-5 -37h-421l5 37h161l-137 340h60l120 -327h3l223 327h58l-236 -340h169zM42 191l6 37h421l-6 -37h-185l-27 -191h-56l26 191h-179z" />
    <glyph glyph-name="zero.taboldstyle" unicode="&#xe024;" horiz-adv-x="500" 
d="M279 455q87 0 140 -56q54 -56 54 -140q0 -111 -78 -190q-76 -79 -181 -79q-92 0 -144.5 52.5t-52.5 139.5q0 111 78 192t184 81zM273 407q-85 0 -142 -65q-57 -64 -57 -154q0 -68 39 -109t108 -41q85 0 140 64q56 65 56 152q0 68 -39 110.5t-105 42.5z" />
    <glyph glyph-name="one.taboldstyle" unicode="&#xe025;" horiz-adv-x="500" 
d="M424 0h-398l6 45h182l46 327l-176 -88l8 55l220 112h12l-57 -406h163z" />
    <glyph glyph-name="two.taboldstyle" unicode="&#xe026;" horiz-adv-x="500" 
d="M165 50l-1 -5h262l-6 -45h-418l1 14q120 54 235 128q72 47 114.5 97.5t42.5 94.5q0 37 -32 58t-85 21q-88 0 -189 -53l10 53q100 48 187 48q79 0 122.5 -32t43.5 -84q0 -92 -106 -178q-94 -75 -181 -117z" />
    <glyph glyph-name="three.taboldstyle" unicode="&#xe027;" horiz-adv-x="500" 
d="M112 164l-5 12l224 220h-263l7 48h359l-2 -14l-224 -217q81 -1 129 -44.5t48 -119.5q0 -102 -73 -163q-71 -61 -171 -61q-103 0 -167 57l6 59q73 -68 170 -68q77 0 130 50q52 49 52 125q0 59 -42 92t-108 33q-31 0 -70 -9z" />
    <glyph glyph-name="four.taboldstyle" unicode="&#xe028;" horiz-adv-x="500" 
d="M-20 13l363 431h59l-335 -399h227l27 189l46 57h14l-34 -246h97l-6 -45h-97l-25 -171h-53l25 171h-309z" />
    <glyph glyph-name="five.taboldstyle" unicode="&#xe029;" horiz-adv-x="500" 
d="M234 217q81 0 131.5 -43t50.5 -119q0 -72 -38 -127q-70 -103 -209 -103q-106 0 -168 55l8 61q25 -31 70.5 -49.5t97.5 -18.5q78 0 130 49q54 49 54 125q0 56 -39 89t-102 33q-70 0 -144 -42l-14 4l84 313h296l-7 -48h-254l-52 -199q51 20 105 20z" />
    <glyph glyph-name="six.taboldstyle" unicode="&#xe02a;" horiz-adv-x="500" 
d="M277 381q75 0 122 -47t47 -117q0 -97 -70 -161q-71 -65 -169 -65q-82 0 -127 43t-45 114q0 38 13 76q21 57 66 119l189 266h60l-177 -243q0 -1 1 -2q39 17 90 17zM256 332q-69 0 -117 -51q-47 -52 -47 -122q0 -55 33 -87.5t90 -32.5q71 0 123 47q52 48 52 121
q0 54 -37.5 89.5t-96.5 35.5z" />
    <glyph glyph-name="seven.taboldstyle" unicode="&#xe02b;" horiz-adv-x="500" 
d="M454 427l-348 -595h-58l330 564h-313l7 48h384z" />
    <glyph glyph-name="eight.taboldstyle" unicode="&#xe02c;" horiz-adv-x="500" 
d="M257 297q-64 0 -111 -43q-47 -44 -47 -109q0 -48 33 -78.5t89 -30.5q67 0 111 44q45 45 45 105q0 50 -34 81t-86 31zM302 618q66 0 107 -38t41 -101q0 -46 -27 -90t-70 -69q81 -38 81 -128q0 -86 -66 -145q-64 -58 -154 -58q-79 0 -125.5 39.5t-46.5 107.5q0 56 35 109
t88 74q-27 17 -43 48t-16 67q0 80 58 132t138 52zM293 567q-54 0 -95 -38q-40 -37 -40 -90q0 -41 29 -68.5t75 -27.5q57 0 94 37q39 38 39 90q0 43 -28.5 70t-73.5 27z" />
    <glyph glyph-name="nine.taboldstyle" unicode="&#xe02d;" horiz-adv-x="500" 
d="M284 455q82 0 127.5 -43t45.5 -114q0 -87 -78 -195l-194 -271h-60l181 248q0 1 -1 2q-39 -17 -90 -17q-75 0 -122 46t-47 118q0 97 69 161q71 65 169 65zM236 114q68 0 116 51t48 121q0 56 -32.5 88.5t-90.5 32.5q-71 0 -124 -48q-51 -47 -51 -120q0 -57 36.5 -91
t97.5 -34z" />
    <glyph glyph-name="numbersign.taboldstyle" unicode="&#xe02e;" horiz-adv-x="500" 
d="M362 352l50 132h40l-49 -132h67l-6 -40h-75l-45 -120h73l-5 -38h-82l-56 -154h-40l57 154h-116l-58 -154h-40l56 154h-64l5 38h73l46 120h-74l6 40h81l49 132h42l-51 -132h116zM348 312h-116l-45 -120h115z" />
    <glyph glyph-name="dollar.taboldstyle" unicode="&#xe02f;" horiz-adv-x="500" 
d="M227 -90h-46l12 84q-85 4 -145 45l7 55q70 -54 151 -54q68 0 109.5 29.5t41.5 84.5q0 33 -25 59.5t-61 44t-72.5 36t-61.5 46.5t-25 65q0 66 47 104q47 37 113 43l11 81h44l-11 -81q59 -3 113 -34l-8 -55q-56 41 -128 41q-50 0 -88 -23q-37 -22 -37 -74q0 -40 85 -83
q35 -16 55.5 -28t48 -32t41 -45t13.5 -54q0 -73 -47.5 -116.5t-124.5 -52.5z" />
    <glyph glyph-name="euro.taboldstyle" unicode="&#xe030;" horiz-adv-x="500" 
d="M41 213l6 41h347l-6 -41h-250q-5 -83 45 -128q49 -45 127 -45q57 0 116 24l-7 -50q-62 -22 -119 -22q-98 0 -160 57t-57 164h-42zM407 346l-6 -42h-347l6 42h45q27 99 102.5 153.5t175.5 54.5q51 0 93 -14l-3 -51q-48 14 -98 14q-160 0 -212 -157h244z" />
    <glyph glyph-name="florin.taboldstyle" unicode="&#xe031;" horiz-adv-x="500" 
d="M230 290h-73l4 45h79l15 81q18 83 53.5 122t97.5 39q26 0 61 -11v-45q-32 7 -60 7q-83 0 -101 -111q-5 -22 -16 -82h90l-4 -45h-94l-32 -164q-27 -130 -57 -180t-95 -50q-34 0 -68 15l-1 51q37 -15 67 -15q44 0 62 40q18 36 47 174z" />
    <glyph glyph-name="sterling.taboldstyle" unicode="&#xe032;" horiz-adv-x="500" 
d="M446 541l-2 -48q-38 15 -86 15q-54 0 -90.5 -32.5t-45.5 -98.5l-10 -77h155l-7 -44h-155q-24 -154 -82 -210h257l-6 -46h-337l1 13q48 26 77 101q29 79 38 142h-70l7 44h70l11 78q7 53 29.5 91.5t54.5 54.5q56 30 108 30q51 0 83 -13z" />
    <glyph glyph-name="cent.taboldstyle" unicode="&#xe033;" horiz-adv-x="500" 
d="M259 -29h-44l13 89q-65 6 -99.5 48t-34.5 107q0 88 52 149q53 62 134 68l12 87h44l-12 -86q44 -1 72 -15l-7 -55q-35 24 -84 24q-63 0 -109 -46q-47 -47 -47 -121q0 -52 31 -82.5t85 -30.5q56 0 107 33l-7 -54q-37 -20 -93 -26z" />
    <glyph glyph-name="yen.taboldstyle" unicode="&#xe034;" horiz-adv-x="500" 
d="M452 305l-6 -42h-383l6 42h133l-111 238h58l113 -253l170 253h59l-165 -238h126zM51 171l5 41h383l-5 -41h-158l-24 -171h-54l24 171h-171z" />
    <glyph glyph-name="zero.textoldstyle" unicode="&#xe048;" horiz-adv-x="500" 
d="M279 455q87 0 140 -56q54 -56 54 -140q0 -111 -78 -190q-76 -79 -181 -79q-92 0 -144.5 52.5t-52.5 139.5q0 111 78 192t184 81zM273 407q-85 0 -142 -65q-57 -64 -57 -154q0 -68 39 -109t108 -41q85 0 140 64q56 65 56 152q0 68 -39 110.5t-105 42.5z" />
    <glyph glyph-name="one.textoldstyle" unicode="&#xe049;" horiz-adv-x="452" 
d="M414 0h-398l6 45h182l46 327l-176 -88l8 55l220 112h12l-57 -406h163z" />
    <glyph glyph-name="two.textoldstyle" unicode="&#xe04a;" horiz-adv-x="500" 
d="M138 50l-1 -5h262l-6 -45h-418l1 14q120 54 235 128q72 47 114.5 97.5t42.5 94.5q0 37 -32 58t-85 21q-88 0 -189 -53l10 53q101 48 187 48q79 0 122.5 -32t43.5 -84q0 -92 -106 -178q-94 -75 -181 -117z" />
    <glyph glyph-name="three.textoldstyle" unicode="&#xe04b;" horiz-adv-x="449" 
d="M92 164l-5 12l224 220h-263l7 48h359l-2 -14l-224 -217q81 -1 129 -44.5t48 -119.5q0 -102 -73 -163q-71 -61 -171 -61q-102 0 -167 57l6 59q73 -68 170 -68q77 0 130 50q52 49 52 125q0 59 -42 92t-108 33q-31 0 -70 -9z" />
    <glyph glyph-name="four.textoldstyle" unicode="&#xe04c;" horiz-adv-x="500" 
d="M-20 13l363 431h59l-335 -399h227l27 189l46 57h14l-34 -246h97l-6 -45h-97l-25 -171h-53l25 171h-309z" />
    <glyph glyph-name="five.textoldstyle" unicode="&#xe04d;" horiz-adv-x="486" 
d="M224 217q81 0 131.5 -43t50.5 -119q0 -72 -38 -127q-70 -103 -209 -103q-106 0 -168 55l8 61q25 -31 70.5 -49.5t97.5 -18.5q78 0 130 49q54 49 54 125q0 56 -39 89t-102 33q-70 0 -144 -42l-14 4l84 313h296l-7 -48h-254l-52 -199q51 20 105 20z" />
    <glyph glyph-name="six.textoldstyle" unicode="&#xe04e;" horiz-adv-x="500" 
d="M277 381q75 0 122 -47t47 -117q0 -97 -70 -161q-71 -65 -169 -65q-82 0 -127 43t-45 114q0 38 13 76q21 57 66 119l189 266h60l-177 -243q0 -1 1 -2q39 17 90 17zM256 332q-69 0 -117 -51q-47 -52 -47 -122q0 -55 33 -87.5t90 -32.5q71 0 123 47q52 48 52 121
q0 54 -37.5 89.5t-96.5 35.5z" />
    <glyph glyph-name="seven.textoldstyle" unicode="&#xe04f;" horiz-adv-x="440" 
d="M415 427l-349 -595h-58l330 564h-312l7 48h384z" />
    <glyph glyph-name="eight.textoldstyle" unicode="&#xe050;" horiz-adv-x="500" 
d="M257 297q-64 0 -111 -43q-47 -44 -47 -109q0 -48 33 -78.5t89 -30.5q67 0 111 44q45 45 45 105q0 50 -34 81t-86 31zM302 618q66 0 107 -38t41 -101q0 -46 -27 -90t-70 -69q81 -38 81 -128q0 -86 -66 -145q-64 -58 -154 -58q-79 0 -125.5 39.5t-46.5 107.5q0 56 35 109
t88 74q-27 17 -43 48t-16 67q0 80 58 132t138 52zM293 567q-54 0 -95 -38q-40 -37 -40 -90q0 -41 29 -68.5t75 -27.5q57 0 94 37q39 38 39 90q0 43 -28.5 70t-73.5 27z" />
    <glyph glyph-name="nine.textoldstyle" unicode="&#xe051;" horiz-adv-x="500" 
d="M284 455q82 0 127.5 -43t45.5 -114q0 -87 -78 -195l-194 -271h-60l181 248q0 1 -1 2q-39 -17 -90 -17q-75 0 -122 46t-47 118q0 97 69 161q71 65 169 65zM236 114q68 0 116 51t48 121q0 56 -32.5 88.5t-90.5 32.5q-71 0 -124 -48q-51 -47 -51 -120q0 -57 36.5 -91
t97.5 -34z" />
    <glyph glyph-name="numbersign.textoldstyle" unicode="&#xe052;" horiz-adv-x="446" 
d="M313 352l49 132h40l-48 -132h67l-6 -40h-76l-44 -120h72l-5 -38h-81l-56 -154h-40l57 154h-117l-57 -154h-40l56 154h-65l5 38h74l45 120h-73l6 40h81l48 132h43l-52 -132h117zM299 312h-117l-44 -120h115z" />
    <glyph glyph-name="dollar.textoldstyle" unicode="&#xe053;" horiz-adv-x="435" 
d="M188 -90h-46l12 84q-85 4 -145 45l7 55q70 -54 151 -54q68 0 109.5 29.5t41.5 84.5q0 33 -25 59.5t-61 44t-72.5 36t-61.5 46.5t-25 65q0 66 47 104q47 37 113 43l11 81h44l-11 -81q59 -3 113 -34l-8 -55q-56 41 -128 41q-50 0 -88 -23q-37 -22 -37 -74q0 -40 85 -83
q35 -16 55.5 -28t48 -32t41 -45t13.5 -54q0 -73 -47.5 -116.5t-124.5 -52.5z" />
    <glyph glyph-name="euro.textoldstyle" unicode="&#xe054;" horiz-adv-x="480" 
d="M31 213l6 41h347l-6 -41h-250q-5 -83 45 -128q49 -45 127 -45q58 0 116 24l-7 -50q-62 -22 -119 -22q-98 0 -160 57t-57 164h-42zM397 346l-6 -42h-347l6 42h45q27 99 102.5 153.5t175.5 54.5q51 0 93 -14l-3 -51q-48 14 -98 14q-160 0 -212 -157h244z" />
    <glyph glyph-name="florin.textoldstyle" unicode="&#xe055;" horiz-adv-x="389" 
d="M171 290h-73l4 45h79l15 81q18 83 53.5 122t97.5 39q26 0 61 -11v-45q-32 7 -60 7q-42 0 -66.5 -27t-34.5 -84q-5 -22 -16 -82h90l-4 -45h-94l-32 -164q-27 -130 -57 -180t-95 -50q-33 0 -68 15l-1 51q38 -15 67 -15q44 0 62 40q18 36 47 174z" />
    <glyph glyph-name="sterling.textoldstyle" unicode="&#xe056;" horiz-adv-x="429" 
d="M416 541l-2 -48q-38 15 -86 15q-54 0 -90.5 -32.5t-45.5 -98.5l-10 -77h155l-7 -44h-155q-24 -154 -82 -210h257l-6 -46h-337l1 13q48 26 77 101q29 79 38 142h-70l7 44h70l11 78q7 53 29.5 91.5t54.5 54.5q56 30 108 30q51 0 83 -13z" />
    <glyph glyph-name="cent.textoldstyle" unicode="&#xe057;" horiz-adv-x="423" 
d="M231 -29h-44l13 89q-65 6 -99.5 48t-34.5 107q0 88 52 149q53 62 134 68l12 87h44l-12 -86q44 -1 72 -15l-7 -55q-35 24 -84 24q-63 0 -109 -46q-47 -47 -47 -121q0 -52 31 -82.5t85 -30.5q56 0 107 33l-7 -54q-37 -20 -93 -26z" />
    <glyph glyph-name="yen.textoldstyle" unicode="&#xe058;" horiz-adv-x="446" 
d="M425 305l-6 -42h-383l6 42h133l-111 238h58l113 -253l170 253h59l-165 -238h126zM24 171l5 41h383l-5 -41h-158l-24 -171h-54l24 171h-171z" />
    <glyph glyph-name="percent.text" unicode="&#xe059;" horiz-adv-x="633" 
d="M192 300q-58 0 -89 36.5t-23 92.5q8 58 50 94q44 39 98 39q56 0 87 -38t23 -95q-8 -54 -50 -92q-41 -37 -96 -37zM222 516q-36 0 -63 -25t-32 -62t14 -61t57 -24q35 0 61 24.5t31 60.5t-14 61.5t-54 25.5zM525 577h52l-439 -591h-51zM431 -6q-59 0 -89.5 36t-22.5 93
q8 58 50 94q44 38 98 38q56 0 87 -37.5t23 -94.5q-8 -54 -50 -92q-40 -37 -96 -37zM461 209q-36 0 -63 -24.5t-32 -61.5t14 -60.5t57 -23.5q35 0 61 24.5t31 59.5q5 36 -14 61t-54 25z" />
    <glyph glyph-name="perthousand.text" unicode="&#xe05a;" horiz-adv-x="925" 
d="M192 300q-58 0 -89 36.5t-23 92.5q8 58 50 94q44 39 98 39q56 0 87 -38t23 -95q-8 -54 -50 -92q-41 -37 -96 -37zM222 516q-36 0 -63 -25t-32 -62t14 -61t57 -24q35 0 61 24.5t31 60.5t-14 61.5t-54 25.5zM525 577h52l-439 -591h-51zM431 -6q-59 0 -89.5 36t-22.5 93
q8 58 50 94q44 38 98 38q56 0 87 -37.5t23 -94.5q-8 -54 -50 -92q-40 -37 -96 -37zM461 209q-36 0 -63 -24.5t-32 -61.5t14 -60.5t57 -23.5q35 0 61 24.5t31 59.5q5 36 -14 61t-54 25zM728 -6q-59 0 -89.5 36t-22.5 93q8 58 50 94q44 38 98 38q56 0 87 -37.5t23 -94.5
q-8 -54 -50 -92q-40 -37 -96 -37zM758 209q-36 0 -63 -24.5t-32 -61.5t14 -60.5t57 -23.5q35 0 61 24.5t31 59.5q5 36 -14 61t-54 25z" />
    <glyph glyph-name="asuperior" unicode="&#xe06c;" horiz-adv-x="341" 
d="M329 430l-21 -132h-30v59q-38 -65 -116 -65q-58 0 -88.5 34.5t-30.5 90.5q0 81 45 131q46 49 117 49q76 0 102 -62l14 55h33zM204 559q-52 0 -84 -41q-30 -40 -30 -95q0 -91 79 -91q51 0 86 39q34 38 34 98q0 40 -22.5 65t-62.5 25z" />
    <glyph glyph-name="bsuperior" unicode="&#xe06d;" horiz-adv-x="379" 
d="M50 300l70 466h49l-37 -214q43 51 115 51q62 0 97 -35t35 -90q0 -85 -49 -134q-48 -50 -121 -50q-75 0 -109 54l-13 -48h-37zM205 336q56 0 89 37.5t33 95.5q0 43 -21 67.5t-62 24.5q-53 0 -88 -38t-35 -94q0 -42 22 -67t62 -26z" />
    <glyph glyph-name="dsuperior" unicode="&#xe06f;" horiz-adv-x="371" 
d="M320 556l32 210h48l-69 -466h-38v39q-44 -44 -116 -44q-59 0 -93 36t-34 89q0 81 48 132q50 51 117 51q72 0 105 -47zM186 336q53 0 87 38.5t34 98.5q0 40 -22 63.5t-63 23.5q-55 0 -88 -37.5t-33 -95.5q0 -42 22 -66.5t63 -24.5z" />
    <glyph glyph-name="esuperior" unicode="&#xe070;" horiz-adv-x="328" 
d="M222 602q49 0 77.5 -24t28.5 -61q0 -42 -46.5 -69t-135.5 -27q-40 0 -45 1v-3q0 -39 21.5 -61t62.5 -22q66 0 126 48l-9 -55q-58 -36 -119 -36q-65 0 -99 33.5t-34 94.5q0 75 48 128q50 53 124 53zM221 558q-41 0 -71.5 -25.5t-43.5 -68.5q22 -2 46 -2q61 0 93 15.5
t32 38.5q0 19 -14.5 30.5t-41.5 11.5z" />
    <glyph glyph-name="egravesuperior" unicode="&#xe071;" horiz-adv-x="328" 
d="M178 754l92 -114h-43l-93 83zM222 602q49 0 77.5 -24t28.5 -61q0 -42 -46.5 -69t-135.5 -27q-40 0 -45 1v-3q0 -39 21.5 -61t62.5 -22q66 0 126 48l-9 -55q-58 -36 -119 -36q-65 0 -99 33.5t-34 94.5q0 75 48 128q50 53 124 53zM221 558q-41 0 -71.5 -25.5t-43.5 -68.5
q22 -2 46 -2q61 0 93 15.5t32 38.5q0 19 -14.5 30.5t-41.5 11.5z" />
    <glyph glyph-name="hsuperior" unicode="&#xe073;" horiz-adv-x="352" 
d="M116 763h45l-34 -227q44 62 118 62q111 0 95 -115l-25 -183h-47l25 177q6 39 -11 59.5t-51 20.5q-41 0 -74.5 -33.5t-42.5 -92.5l-18 -131h-45z" />
    <glyph glyph-name="isuperior" unicode="&#xe074;" horiz-adv-x="142" 
d="M95 592h48l-42 -292h-47zM136 713q11 0 19 -7.5t8 -18.5q0 -14 -10.5 -25t-25.5 -11q-12 0 -20 8.5t-8 19.5q0 14 11.5 24t25.5 10z" />
    <glyph glyph-name="lsuperior" unicode="&#xe077;" horiz-adv-x="133" 
d="M116 762h45l-65 -462h-45z" />
    <glyph glyph-name="msuperior" unicode="&#xe078;" horiz-adv-x="553" 
d="M98 300h-46l41 292h31l2 -56q42 63 112 63q75 0 90 -63q22 29 56 46t65 17q51 0 75.5 -32t16.5 -89l-25 -178h-47l25 180q6 39 -10 59t-49 20q-37 0 -68.5 -27t-37.5 -73l-22 -159h-46l24 172q13 87 -59 87q-34 0 -67 -30q-34 -31 -41 -82z" />
    <glyph glyph-name="osuperior" unicode="&#xe079;" horiz-adv-x="359" 
d="M225 603q63 0 98.5 -36t35.5 -96q0 -73 -48 -126q-48 -52 -124 -52q-65 0 -101 35t-36 96q0 74 48 126q50 53 127 53zM224 559q-53 0 -87 -38t-34 -96q0 -41 22 -66t62 -25q54 0 88 40q35 41 35 95q0 40 -23.5 65t-62.5 25z" />
    <glyph glyph-name="rsuperior" unicode="&#xe07c;" horiz-adv-x="233" 
d="M92 592h30v-64q15 36 48 54t70 18q21 0 36 -3l-6 -45q-23 6 -44 6q-51 0 -77 -38.5t-38 -120.5l-14 -99h-46z" />
    <glyph glyph-name="ssuperior" unicode="&#xe07d;" horiz-adv-x="250" 
d="M22 322l7 49q48 -36 95 -36q74 0 74 49q0 19 -21.5 33.5t-47 23t-47 27t-21.5 45.5q0 43 32.5 66.5t80.5 23.5q50 0 88 -22l-7 -49q-47 28 -82 28q-61 0 -61 -41q0 -13 21.5 -25t47 -21.5t47 -31t21.5 -50.5q0 -46 -35.5 -71.5t-91.5 -25.5t-100 28z" />
    <glyph glyph-name="tsuperior" unicode="&#xe07e;" horiz-adv-x="217" 
d="M111 595l35 86h25l-12 -85h84l-5 -40h-84l-25 -173q-6 -47 32 -47q27 0 65 23l-6 -44q-32 -21 -69 -21q-46 0 -61.5 23t-8.5 70l24 169h-50l4 30z" />
    <glyph glyph-name="i.dot" unicode="&#xe096;" horiz-adv-x="222" 
d="M163 616q14 0 23 -9.5t9 -23.5q0 -18 -13 -31t-30 -13q-16 0 -25 9t-9 23q0 17 13.5 31t31.5 14zM165 445l-62 -445h-56l62 445h56z" />
    <glyph glyph-name="a.alt" unicode="&#xe0a8;" horiz-adv-x="485" 
d="M332 0v57l-5 1q-71 -68 -162 -68q-71 0 -105.5 31.5t-34.5 81.5q0 78 58 120t166 42h110l3 24q13 118 -110 118q-66 0 -148 -43l7 52q30 17 75 28q46 11 75 11q87 0 127.5 -44t27.5 -130l-39 -281h-45zM348 188l5 33h-116q-72 0 -113 -28.5t-41 -81.5q0 -35 28 -54
t74 -19q67 0 110 41.5t53 108.5z" />
    <glyph glyph-name="g.alt" unicode="&#xe0a9;" horiz-adv-x="541" 
d="M392 25l8 50l-4 2q-67 -88 -171 -88q-92 0 -140 54q-47 55 -47 133q0 127 69 202q70 76 174 76q53 0 95 -24t63 -69h6l23 84h36l-60 -422q-17 -121 -88.5 -186.5t-190.5 -65.5q-45 0 -95 12.5t-82 35.5l6 56q77 -56 171 -56q92 0 152 55t75 151zM287 406q-85 0 -137 -63
q-53 -64 -53 -154q0 -71 33.5 -112t98.5 -41q82 0 136 63t54 154q0 68 -35 110t-97 43z" />
    <glyph glyph-name="A2.alt" unicode="&#xe0b6;" horiz-adv-x="600" 
d="M550 0h-57l-149 546h-3l-301 -546h-60l374 669h12z" />
    <glyph glyph-name="F.alt" unicode="&#xe0b7;" horiz-adv-x="506" 
d="M147 303l-73 -518h-57l124 877h408l-8 -52h-351l-36 -255h322l-7 -52h-322z" />
    <glyph glyph-name="I.alt" unicode="&#xe0b8;" horiz-adv-x="243" 
d="M227 802l-112 -802h-57l112 802h57z" />
    <glyph glyph-name="L.alt" unicode="&#xe0b9;" horiz-adv-x="502" 
d="M48 0l112 802h57l-105 -749h352l-7 -53h-409z" />
    <glyph glyph-name="P2.alt" unicode="&#xe0ba;" horiz-adv-x="552" 
d="M74 -215h-58l123 876h213q96 0 147 -51.5t51 -136.5q0 -111 -78 -176q-77 -64 -183 -64h-152zM325 613h-134l-47 -332h141q53 0 93.5 17.5t64 46.5t35 62t11.5 68q0 64 -40 101t-124 37z" />
    <glyph glyph-name="T.alt" unicode="&#xe0bb;" horiz-adv-x="513" 
d="M575 802l-7 -52h-212l-105 -750h-58l105 750h-213l7 52h483z" />
    <glyph glyph-name="Y.alt" unicode="&#xe0bc;" horiz-adv-x="565" 
d="M170 -215h-56l106 203l-160 672h58l138 -596h3l306 596h55z" />
    <glyph glyph-name="Q.alt" unicode="&#xe0bd;" horiz-adv-x="752" 
d="M255 -78l382 -72l-23 -53l-383 71zM431 671q132 0 206 -80t74 -210q0 -164 -107 -277q-106 -112 -260 -112q-131 0 -206 78q-75 80 -75 207q0 162 107 278t261 116zM429 619q-127 0 -216 -101t-89 -239q0 -105 58 -170q58 -66 161 -66q131 0 219 97q89 98 89 240
q0 104 -60 171q-60 68 -162 68z" />
    <glyph glyph-name="Q2.alt" unicode="&#xe0be;" horiz-adv-x="752" 
d="M431 671q132 0 206 -80t74 -210q0 -156 -98 -266q-98 -111 -242 -121l-29 -208h-54l29 207q-119 8 -187 85q-67 77 -67 199q0 162 107 278t261 116zM429 619q-127 0 -216 -101t-89 -239q0 -99 53 -164t147 -72l34 237h54l-33 -235q118 13 195 109q77 95 77 226
q0 104 -60 171q-60 68 -162 68z" />
    <glyph glyph-name="uniE0C0" unicode="&#xe0c0;" horiz-adv-x="506" 
d="M561 749h-351l-105 -749h-57l112 801h408z" />
    <glyph glyph-name="uniE0C4" unicode="&#xe0c4;" horiz-adv-x="752" 
d="M431 671q132 0 206 -80t74 -210q0 -156 -98 -266q-98 -111 -241 -121l-29 -208h-54l29 207q-119 8 -187 85q-68 79 -68 199q0 162 107 278t261 116zM124 279q0 -99 53 -164q54 -65 148 -72l81 575q-119 -11 -201 -109q-81 -97 -81 -230zM651 380q0 95 -51 161
q-51 65 -140 76l-81 -572q118 13 195 109q77 95 77 226z" />
    <glyph glyph-name="uniE0C5" unicode="&#xe0c5;" horiz-adv-x="716" 
d="M365 -4l-30 -211h-57l30 211q-116 10 -174 84q-59 75 -42 188l55 394h56l-56 -395q-12 -88 30 -149q43 -61 139 -67l86 611h57l-86 -611q95 5 156.5 63t74.5 150l56 398h57l-58 -406q-15 -111 -93 -183q-79 -71 -201 -77z" />
    <glyph glyph-name="Parenleft" unicode="&#xe0d8;" horiz-adv-x="284" 
d="M300 767l31 -12q-202 -244 -202 -515q0 -169 82 -326l-36 -13q-98 161 -98 352q0 270 223 514z" />
    <glyph glyph-name="Parenright" unicode="&#xe0d9;" horiz-adv-x="284" 
d="M91 755l35 12q103 -163 103 -344q0 -131 -60 -270t-162 -252l-32 13q201 250 201 516q0 171 -85 325z" />
    <glyph glyph-name="Hyphen" unicode="&#xe0da;" horiz-adv-x="368" 
d="M304 247h-249l7 53h249z" />
    <glyph glyph-name="Bracketleft" unicode="&#xe0db;" horiz-adv-x="252" 
d="M170 -90h-149l120 853h149l-6 -42h-99l-108 -769h99z" />
    <glyph glyph-name="Bracketright" unicode="&#xe0dc;" horiz-adv-x="252" 
d="M97 763h149l-120 -853h-149l6 42h99l108 769h-99z" />
    <glyph glyph-name="Braceleft" unicode="&#xe0dd;" horiz-adv-x="282" 
d="M127 367l-1 -5q55 -36 29 -159l-25 -178q-11 -74 33 -74h38l-6 -44h-47q-36 0 -54 18t-17.5 44t3.5 54l29 218q15 106 -45 119l1 13q65 14 78 113l23 149q5 46 22 84q20 47 76 47h52l-6 -43h-36q-27 0 -39.5 -18t-16.5 -55l-23 -163q-14 -98 -68 -120z" />
    <glyph glyph-name="Braceright" unicode="&#xe0de;" horiz-adv-x="282" 
d="M179 362l1 5q-48 21 -34 120l23 163q6 38 -1.5 55.5t-34.5 17.5h-37l6 43h52q37 0 53 -22q7 -8 10.5 -18t4 -22.5t0 -21t-2 -24.5t-2.5 -23l-21 -150q-13 -100 45 -113l-3 -15q-62 -14 -77 -119l-30 -215q-8 -49 -25 -77q-23 -39 -78 -39h-47l6 44h39q44 0 55 74l25 178
q10 71 24.5 105.5t48.5 53.5z" />
    <glyph glyph-name="Endash" unicode="&#xe0df;" horiz-adv-x="538" 
d="M501 245h-475l6 48h475z" />
    <glyph glyph-name="Emdash" unicode="&#xe0e0;" horiz-adv-x="803" 
d="M764 245h-735l6 48h735z" />
    <glyph glyph-name="Exclamdown" unicode="&#xe0e1;" horiz-adv-x="269" 
d="M35 -213l87 538h41l-67 -538h-61zM164 486q16 0 26.5 -10.5t10.5 -27.5q0 -21 -14.5 -36.5t-35.5 -15.5q-16 0 -27 11t-11 28q0 21 16 36t35 15z" />
    <glyph glyph-name="Questiondown" unicode="&#xe0e2;" horiz-adv-x="482" 
d="M216 -216q-74 0 -127 39q-51 39 -51 109q0 98 92 177q18 15 55.5 45.5t57.5 47.5t37.5 41.5t17.5 44.5t-7 34l57 16q7 -21 7 -43q0 -34 -19 -65.5t-48 -55t-62.5 -50.5t-62.5 -51.5t-48 -58.5t-19 -71q0 -48 34.5 -77t95.5 -29q66 0 148 38l-8 -58q-76 -33 -150 -33z
M337 485q16 0 26.5 -10.5t10.5 -27.5q0 -21 -14.5 -36t-34.5 -15q-18 0 -28.5 10.5t-10.5 27.5q0 21 15.5 36t35.5 15z" />
    <glyph glyph-name="Guillemotleft" unicode="&#xe0e3;" horiz-adv-x="403" 
d="M255 411l-159 -180l108 -185h-62l-106 178l1 9l159 178h59zM385 411l-159 -180l108 -185h-61l-107 178l1 9l160 178h58z" />
    <glyph glyph-name="Guillemotright" unicode="&#xe0e4;" horiz-adv-x="403" 
d="M203 46h-62l161 185l-110 180h59l109 -178l-1 -9zM73 46h-62l160 185l-109 180h59l109 -178l-1 -9z" />
    <glyph glyph-name="uniE12C" unicode="&#xe12c;" horiz-adv-x="1716" 
d="M1413 0h-58l-45 161h-321l-88 -161h-332l-388 539h-3l-75 -539h-55l93 668h16l389 -540h3l76 534h406l-8 -52h-348l-33 -234h324l-7 -52h-324l-38 -271h275l339 608h314q79 0 134 -46q57 -46 57 -128q0 -90 -66 -159q-67 -70 -181 -83l78 -245h-59l-86 276l2 12
q126 1 191 59q64 58 64 135q0 60 -40.5 94.5t-108.5 34.5h-265zM1205 546h-4l-185 -336h280z" />
    <glyph glyph-name="uniE16E" unicode="&#xe16e;" horiz-adv-x="1192" 
d="M1166 668l-93 -668h-55l75 539h-2l-543 -543h-16l76 543h-3l-542 -543h-16l94 666h55l-76 -534h4l542 540h15l-76 -540h4l542 540h15zM1012 862h46q-12 -59 -50 -97t-95 -38q-55 0 -83 38t-22 97h46q-6 -41 11 -68t52 -27q75 0 95 95z" />
    <glyph glyph-name="uniE16F" unicode="&#xe16f;" horiz-adv-x="1138" 
d="M633 324l-45 -324h-55l77 541h-3l-546 -545h-14l94 666h55l-76 -536h4l545 542h12l-41 -292h376l41 286h55l-93 -662h-55l45 324h-376z" />
    <glyph glyph-name="uniE170" unicode="&#xe170;" horiz-adv-x="1138" 
d="M1112 668l-93 -668h-54l77 541h-3l-547 -545h-14l46 328h-375l-45 -324h-56l93 662h56l-41 -286h375l41 286h55l-76 -536h4l545 542h12z" />
    <glyph glyph-name="uniE171" unicode="&#xe171;" horiz-adv-x="1138" 
d="M1112 668l-93 -668h-54l77 541h-3l-547 -545h-14l86 614h-375l-85 -610h-56l93 662h486l-76 -536h4l545 542h12z" />
    <glyph glyph-name="uniE172" unicode="&#xe172;" horiz-adv-x="712" 
d="M687 668l-93 -668h-55l77 541h-3l-548 -547h-13l106 756h-214l7 52h482l-7 -52h-212l-88 -624h4l544 542h13z" />
    <glyph glyph-name="uniE173" unicode="&#xe173;" horiz-adv-x="1058" 
d="M1033 662l-93 -662h-56l45 324h-374q-14 -85 -46 -324h-57l18 130q-112 -139 -291 -139q-49 0 -101 12q-52 13 -84 36l8 57q86 -53 179 -53q134 0 216 80q82 82 98 201h-354l7 52h351q6 117 -53.5 181t-176.5 64q-94 0 -172 -36l8 57q59 31 175 31q180 0 248 -126l17 115
h57l-41 -286h375l41 286h56z" />
    <glyph glyph-name="uniE174" unicode="&#xe174;" horiz-adv-x="955" 
d="M510 0h-58l18 130q-112 -139 -291 -139q-49 0 -101 12q-52 13 -84 36l8 57q86 -53 179 -53q134 0 216 80q82 82 98 201h-354l7 52h351q10 108 -49 177q-59 68 -181 68q-94 0 -172 -36l8 57q59 31 175 31q180 0 248 -126l16 114h201q99 0 154 -54q56 -54 56 -133
q0 -112 -78 -177q-77 -64 -181 -64h-154zM730 613h-134l-47 -332h145q99 0 149 57.5t49 130.5q0 65 -40.5 104.5t-121.5 39.5z" />
    <glyph glyph-name="uniE175" unicode="&#xe175;" horiz-adv-x="908" 
d="M68 0h-79l267 252q-80 11 -127 62q-46 52 -46 120q0 72 41 125.5t96.5 77.5t112.5 24h366q102 0 155 -53t53 -133q0 -108 -74 -176q-73 -66 -170 -66h-168l-32 -233h-58l85 611h-156q-80 0 -135 -48q-56 -47 -56 -128q0 -63 54.5 -104t155.5 -43l-2 -12zM683 613h-134
l-47 -332h145q101 0 150 58t49 136q0 62 -42 100t-121 38z" />
    <glyph glyph-name="uniE176" unicode="&#xe176;" horiz-adv-x="1102" 
d="M806 0h-276l47 341h-424l-40 -288h374l-7 -53h-432l93 662h406l-8 -52h-348l-30 -217h424l38 269h408l-8 -51h-349l-30 -218h200q96 0 150 -46.5t54 -125.5q0 -103 -72 -162q-71 -59 -170 -59zM841 340h-205l-40 -287h219q71 0 122 42q52 43 52 124q0 58 -40.5 89.5
t-107.5 31.5z" />
    <glyph glyph-name="A.alt" unicode="&#xe188;" horiz-adv-x="598" 
d="M449 146l-464 -171l-8 10l375 686h13l183 -671h-59zM338 545l-260 -480l1 -3l356 133l-93 350h-4z" />
    <glyph glyph-name="P.alt" unicode="&#xe189;" horiz-adv-x="531" 
d="M106 0h-58l93 662h191q95 0 146 -50.5t51 -142.5q0 -105 -69 -176.5t-190 -95.5l-141 -29zM323 610h-132l-54 -388l136 28q96 20 148 77.5t52 144.5q0 64 -39.5 101t-110.5 37z" />
    <glyph glyph-name="R.alt" unicode="&#xe18a;" horiz-adv-x="541" 
d="M106 0h-58l93 662h191q94 0 146.5 -49.5t52.5 -138.5q0 -79 -46.5 -138t-128.5 -93l109 -243h-65l-100 224l-168 -35zM323 610h-132l-52 -369l136 29q93 19 146.5 72t53.5 134q0 61 -41 97.5t-111 36.5z" />
    <glyph glyph-name="K.alt" unicode="&#xe18b;" horiz-adv-x="567" 
d="M329 350l-1 -3q23 -7 45 -31q28 -29 58 -101l92 -215h-62l-101 229q-26 59 -51 76.5t-69 8.5l-94 -19l-41 -295h-57l93 662h57l-45 -315l89 19q51 11 82 30q33 22 74 75l148 191h58l-147 -192q-78 -102 -128 -120z" />
    <glyph glyph-name="B.alt" unicode="&#xe18c;" horiz-adv-x="592" 
d="M283 322l-137 -26l-34 -243h187q50 0 86.5 16t54.5 42t26.5 51t8.5 50q0 70 -57 97q-56 28 -135 13zM370 610h-180l-37 -264l176 35q151 31 151 137q0 43 -28.5 67.5t-81.5 24.5zM427 365l-1 -4q52 -14 78.5 -53t26.5 -91q0 -94 -68 -156q-67 -61 -162 -61h-253l93 662
h229q77 0 122.5 -33.5t45.5 -97.5q0 -52 -29 -97.5t-82 -68.5z" />
    <glyph glyph-name="A_P.3" unicode="&#xe196;" horiz-adv-x="945" 
d="M499 0h-57l22 161h-293l-153 -161h-73l630 662h168q97 0 149 -52q53 -53 53 -129q0 -113 -75 -181q-74 -67 -177 -67h-162zM719 613h-134l-47 -332h145q101 0 150 58q50 59 50 136q0 64 -40 101t-124 37zM515 526h-4l-293 -316h253z" />
    <glyph glyph-name="A_R.4" unicode="&#xe197;" horiz-adv-x="972" 
d="M719 252l197 -252h-79l-206 278l1 10q128 2 192 60q65 59 65 134q0 60 -40.5 94.5t-107.5 34.5h-156l-85 -611h-58l22 161h-295l-150 -161h-74l630 662h182q79 0 134 -46q57 -46 57 -128q0 -86 -64 -154q-64 -69 -165 -82zM515 526h-4l-295 -316h255z" />
    <glyph glyph-name="A_B" unicode="&#xe198;" horiz-adv-x="985" 
d="M515 529h-2l-302 -319h259zM694 0h-253l22 161h-298l-151 -161h-69l630 662h188q79 0 124 -35.5t45 -105.5q0 -52 -28 -96t-84 -67v-4q52 -14 78 -53t26 -90q0 -94 -68 -153q-67 -58 -162 -58zM721 330h-177l-39 -277h187q50 0 86.5 16t55 42t26.5 51.5t8 50.5
q0 54 -39.5 85.5t-107.5 31.5zM763 610h-180l-32 -229h171q22 0 45 6t48.5 19.5t41.5 42.5t16 69q0 43 -28.5 67.5t-81.5 24.5z" />
    </font>
</defs>
</svg>
