<?xml version="1.0" standalone="no"?>
<!DOCTYPE svg PUBLIC "-//W3C//DTD SVG 1.1//EN" "http://www.w3.org/Graphics/SVG/1.1/DTD/svg11.dtd" >
<svg>
<metadata>
Created by FontForge 20120731 at Tue Dec 15 21:05:29 2015
 By ,,,
Copyright (c) 2013 Parachute, www.parachute.gr.  All rights reserved.
</metadata>
<defs>
<font id="PFBagueSansPro-ThinItalic" horiz-adv-x="533" >
  <font-face 
    font-family="PF Bague Sans Pro"
    font-weight="200"
    font-style="italic"
    font-stretch="normal"
    units-per-em="1000"
    panose-1="2 0 5 6 0 0 0 9 0 3"
    ascent="800"
    descent="-200"
    x-height="443"
    cap-height="661"
    bbox="-474 -240.351 1727 882"
    underline-thickness="30"
    underline-position="-70"
    slope="-12"
    unicode-range="U+0020-FB06"
  />
<missing-glyph horiz-adv-x="439" 
d="M453 0h-432v699h432v-699zM414 22l-177 305l-178 -305h355zM414 675h-354l177 -305zM430 655l-178 -306l178 -306v612zM44 44l179 305l-179 306v-611z" />
    <glyph glyph-name="fj" unicode="fj" horiz-adv-x="448" 
d="M142 412l-74 -521h-37l75 521h-79l4 25q1 0 5 0.5t12.5 1t16.5 0.5l45 4l14 96q28 192 197 192q77 0 120 -30l-4 -35q-52 34 -123 34t-109 -44q-15 -17 -28 -50q-14 -40 -25 -122l-5 -41h257q-14 -102 -29 -219q-23 -180 -31 -237q-15 -105 -54.5 -153t-116.5 -52l-13 34
q66 2 100 37.5t44 107.5l59 451h-221z" />
    <glyph glyph-name="ffj" unicode="ffj" horiz-adv-x="695" 
d="M144 443h223l13 98q10 75 48 120q-39 17 -90 22q-83 0 -127 -42.5t-59 -142.5zM398 412l-72 -514h-37l74 515h-223l-86 -614h-36l86 614h-77q3 17 4 24q60 6 77 6q8 61 10 70q13 95 66.5 148.5t142.5 53.5q68 0 123 -28q52 44 130 44q67 0 108 -26q0 -2 -1 -8t-2 -13
l-2 -14q-47 30 -110 30q-92 0 -126 -65q-26 -54 -37 -138l-7 -54h258q-10 -68 -34 -252l-30 -231q-23 -170 -167 -178l-13 34q67 2 101 37t43 108l59 451h-222z" />
    <glyph glyph-name="f_t" unicode="ft" horiz-adv-x="568" 
d="M410 443h151q-1 -6 -5 -31h-151l-36 -255q-5 -35 -5 -57q0 -37 16 -55t55 -18q49 0 92 31l-5 -36q-43 -29 -96 -29q-101 0 -101 95q0 17 6 62l37 262h-216l-84 -613h-36l83 613h-88l4 25q66 6 89 6l14 101q12 90 49 134q37 46 129 46q39 0 70 -10q-2 -32 -2 -34
q-33 13 -76 13q-62 0 -92.5 -36.5t-40.5 -109.5l-15 -104h217l38 133h17z" />
    <glyph glyph-name="ff" unicode="ff" horiz-adv-x="526" 
d="M634 724v-33q-30 13 -77 13q-62 0 -91.5 -36t-41.5 -111l-17 -114h148l-4 -30h-148l-75 -539h-36l75 539h-227l-85 -614h-36l85 614h-77q3 17 4 24q60 6 77 6l11 80q27 193 196 193q67 0 125 -29q43 48 124 48q37 0 70 -11zM144 443h227l5 45l7 50l8 42q9 47 30 81
q-57 24 -111 24q-132 0 -154 -159z" />
    <glyph glyph-name="fi" unicode="fi" horiz-adv-x="447" 
d="M405 444l-61 -444h-37l57 412h-221l-85 -613h-37l85 613h-79l4 26l80 6l13 96q28 192 197 192q76 0 121 -30l-2 -35q-51 33 -126 33q-131 0 -153 -157l-14 -99h258z" />
    <glyph glyph-name="fl" unicode="fl" horiz-adv-x="447" 
d="M440 700l-98 -700h-37l95 680q-41 12 -83 12q-88 5 -130 -70q-12 -21 -19 -52q-8 -35 -12 -58q-4 -26 -9 -69h141q-1 -6 -5 -31h-141l-88 -613h-36l88 613h-79l4 25q1 0 5 0.5t12.5 1t16.5 0.5l45 4l14 95q29 185 199 185q76 0 117 -23z" />
    <glyph glyph-name="ffi" unicode="ffi" horiz-adv-x="698" 
d="M688 705v-35q-46 30 -115 30q-100 -1 -135 -84q-15 -39 -19 -66q-5 -24 -6 -35l-5 -37l-5 -35h251l-61 -443h-37l56 412h-214l-74 -538h-36l75 539h-223l-86 -614h-37l87 614h-77q3 17 4 24q60 6 77 6l10 70q13 95 66.5 148.5t142.5 53.5q68 0 123 -28q52 44 130 44
q67 0 108 -26zM144 443h223l13 98q9 73 48 120q-48 22 -90 22q-83 0 -127 -42.5t-59 -142.5z" />
    <glyph glyph-name="ffl" unicode="ffl" horiz-adv-x="697" 
d="M401 443h137q0 -1 -1.5 -11.5t-3.5 -19.5h-137l-75 -538h-36l75 538h-220l-86 -613h-37l86 613h-76l4 25q60 6 77 6l10 70q30 202 209 202q67 0 122 -28q53 45 130 45q75 0 113 -25l-99 -707h-37l96 688q-33 13 -77 13q-82 0 -119 -55q-32 -49 -44 -128zM144 443h220
l14 98q11 80 49 120q-48 22 -89 22q-84 0 -125 -37q-43 -38 -59 -142z" />
    <glyph glyph-name="longs_t" unicode="&#x17f;t" horiz-adv-x="537" 
d="M410 701q0 -5 -2.5 -19t-2.5 -15q-49 26 -99 26q-63 0 -94 -36.5t-41 -109.5l-105 -748h-37l87 614h-89q3 17 4 24q66 6 89 6l14 101q24 181 178 181q56 0 98 -24zM380 443h150l-4 -31h-151l-36 -259q-5 -35 -5 -56q0 -70 72 -70q45 0 92 32l-6 -37q-43 -29 -96 -29
t-76.5 23.5t-23.5 70.5q0 19 3 42l39 283h-81l4 25q1 0 5 0.5t12.5 1t17.5 0.5l47 4l39 133h17z" />
    <glyph glyph-name=".notdef" horiz-adv-x="439" 
d="M453 0h-432v699h432v-699zM414 22l-177 305l-178 -305h355zM414 675h-354l177 -305zM430 655l-178 -306l178 -306v612zM44 44l179 305l-179 306v-611z" />
    <glyph glyph-name=".null" horiz-adv-x="0" 
 />
    <glyph glyph-name="nonmarkingreturn" horiz-adv-x="333" 
 />
    <glyph glyph-name="space" unicode=" " horiz-adv-x="237" 
 />
    <glyph glyph-name="exclam" unicode="!" horiz-adv-x="245" 
d="M204 684l-84 -553h-27l70 553h41zM59 21q0 14 11 25t25 11q12 0 19.5 -8t7.5 -20q0 -14 -11 -24.5t-25 -10.5q-27 0 -27 27z" />
    <glyph glyph-name="quotedbl" unicode="&#x22;" horiz-adv-x="254" 
d="M251 679l-30 -206h-32l29 206h33zM160 679l-29 -206h-33l29 206h33z" />
    <glyph glyph-name="numbersign" unicode="#" 
d="M408 448l66 180h27l-65 -180h84l-4 -25h-89l-67 -184h90l-4 -25h-95l-75 -214h-28l77 214h-176l-76 -214h-27q6 20 42 119q10 26 19 51t13 34l3 10h-88l3 25h93l67 184h-96l3 25h101q28 74 66 180h27l-65 -180h174zM400 423h-175l-67 -184h175q17 43 67 184z" />
    <glyph glyph-name="dollar" unicode="$" 
d="M474 626q-2 -13 -5 -40q-65 44 -152 44q-68 0 -116 -33q-47 -32 -47 -102q0 -61 104 -112q43 -20 67.5 -33.5t58.5 -39t50 -57t16 -70.5q0 -81 -59 -131q-58 -49 -146 -54l-15 -105h-31q2 20 14 104q-107 1 -174 51q1 5 5 38q80 -59 179 -59q85 0 137 42t52 113
q0 85 -104 138q-10 5 -36.5 18t-39 19.5t-34.5 19.5t-33 24t-24 26.5t-18.5 32.5t-5.5 37q0 80 53 119q53 38 137 46q1 6 3.5 23t3.5 26q1 8 2.5 19.5t3 18.5t1.5 12h31q-4 -34 -14 -98q77 -4 136 -37z" />
    <glyph glyph-name="percent" unicode="%" horiz-adv-x="694" 
d="M627 685h31l-572 -702h-31zM246 673q57 0 93.5 -37t36.5 -94q0 -74 -52 -126q-51 -53 -122 -53q-61 0 -97 35.5t-36 93.5q0 74 53 127q54 54 124 54zM241 644q-57 0 -98 -45q-41 -44 -41 -103q0 -46 28.5 -75t75.5 -29q56 0 96 43q41 44 41 102q0 46 -28.5 76.5
t-73.5 30.5zM518 304q59 0 95 -36.5t36 -93.5q0 -74 -52 -127q-51 -53 -122 -53q-62 0 -97.5 35t-35.5 93q0 73 53 128q53 54 123 54zM513 274q-55 0 -97 -44q-41 -44 -41 -102q0 -47 28 -76.5t75 -29.5q56 0 97 44q40 44 40 103q0 45 -28.5 75t-73.5 30z" />
    <glyph glyph-name="ampersand" unicode="&#x26;" horiz-adv-x="658" 
d="M571 347q4 -2 14.5 -11.5t13.5 -11.5q-54 -146 -138 -232q65 -62 151 -109l-34 -23q-72 41 -145 106q-95 -78 -217 -78q-78 0 -123 38.5t-45 106.5t46 132t131 96q-16 47 -16 95q0 90 57 146q58 55 149 55q64 0 126 -25v-38q-61 30 -130 30q-78 0 -121 -46t-43 -118
q0 -78 53 -172q53 -92 139 -175q79 78 132 234zM410 87q-124 121 -174 244q-70 -24 -110 -79t-40 -114q0 -55 38.5 -86.5t100.5 -31.5q103 0 185 67z" />
    <glyph glyph-name="quotesingle" unicode="'" horiz-adv-x="181" 
d="M167 679l-30 -206h-32l28 206h34z" />
    <glyph glyph-name="parenleft" unicode="(" horiz-adv-x="279" 
d="M304 732l21 -8q-213 -244 -213 -510q0 -170 90 -331l-24 -9q-101 161 -101 347q0 266 227 511z" />
    <glyph glyph-name="parenright" unicode=")" horiz-adv-x="278" 
d="M91 724l24 8q107 -166 107 -342q0 -132 -60 -269q-60 -136 -162 -247l-22 9q209 248 209 511q0 171 -96 330z" />
    <glyph glyph-name="asterisk" unicode="*" horiz-adv-x="412" 
d="M266 526l51 -27l52 -26q-4 -5 -14.5 -20t-11.5 -16l-92 68l-8 -126h-39l26 126l-110 -68l-15 36l115 52q-90 46 -101 52q1 1 11 16t14 19l90 -66q8 102 10 125h40l-28 -125l111 67q5 -8 15 -35q-18 -9 -116 -52z" />
    <glyph glyph-name="plus" unicode="+" 
d="M448 283h-167l-23 -170h-31l24 170h-168l5 30h167l24 173h31l-24 -173h167z" />
    <glyph glyph-name="comma" unicode="," horiz-adv-x="148" 
d="M80 27q-5 -37 -87 -167l-24 1l62 138q-23 6 -18 30q2 26 28 32q27 7 37 -12q5 -9 2 -22z" />
    <glyph glyph-name="hyphen" unicode="-" horiz-adv-x="366" 
d="M303 225h-246l4 37h247z" />
    <glyph glyph-name="period" unicode="." horiz-adv-x="138" 
d="M4 23q0 15 11 26.5t26 11.5q13 0 21 -8.5t8 -21.5q0 -15 -11.5 -25.5t-26.5 -10.5q-13 0 -20.5 8t-7.5 20z" />
    <glyph glyph-name="slash" unicode="/" horiz-adv-x="247" 
d="M-48 -88h-30q37 68 195 383q151 303 201 394h31q-50 -92 -197 -385q-165 -329 -200 -392z" />
    <glyph glyph-name="zero" unicode="0" 
d="M319 670q191 0 191 -243q0 -95 -27 -194q-16 -65 -45 -118q-30 -54 -85 -89.5t-124 -35.5q-187 0 -187 237q0 17 2 59q8 89 30 161q28 97 88.5 160t156.5 63zM318 638q-73 1 -122.5 -48.5t-77.5 -126.5q-18 -47 -25 -94q-13 -97 -13 -140q0 -207 152 -207q76 -3 126.5 48
t77.5 128q17 43 25 95q13 79 13 137q0 208 -156 208z" />
    <glyph glyph-name="one" unicode="1" 
d="M124 524l232 140h10l-93 -664h-36l85 605l-204 -122z" />
    <glyph glyph-name="two" unicode="2" horiz-adv-x="512" 
d="M92 567q6 37 6 40q92 62 183 62q75 0 121 -41t46 -110q0 -119 -115 -252q-117 -133 -275 -234h335l-4 -32h-411q1 2 1 10q184 119 308 252q125 134 125 248q0 61 -36.5 93.5t-97.5 32.5q-92 0 -186 -69z" />
    <glyph glyph-name="three" unicode="3" 
d="M422 629h-331l4 31h396q0 -2 -0.5 -5t-0.5 -5l-261 -249q95 0 150 -44t55 -119q0 -112 -78 -180q-76 -66 -185 -66q-118 0 -190 66q0 2 2.5 19.5t3.5 23.5q74 -77 189 -77q92 0 156 58t64 148q0 67 -46.5 104t-127.5 37q-28 0 -56 -5l-5 9l261 251v3z" />
    <glyph glyph-name="four" unicode="4" 
d="M400 415l35 44h7l-36 -255h92l-4 -31h-92l-24 -173h-36l24 173h-360l1 10l420 478h45l-403 -457h302z" />
    <glyph glyph-name="five" unicode="5" 
d="M182 660h333l-4 -30h-301l-61 -249q57 23 131 23q84 0 140 -44t56 -124q0 -113 -79 -179q-80 -65 -185 -65q-120 0 -188 66q0 8 6 44q29 -35 78 -57t109 -22q93 0 157 58q65 59 65 151q0 67 -46 103.5t-123 36.5q-86 0 -159 -40l-10 4z" />
    <glyph glyph-name="six" unicode="6" 
d="M124 381l203 279h41l-224 -307q1 0 2 -1h1q53 54 150 54q82 0 132 -48t50 -126q0 -104 -73 -173q-73 -68 -176 -68q-90 0 -142 47t-52 126q0 96 88 217zM288 374q-87 0 -151 -54q-64 -52 -64 -150q0 -68 43 -108.5t119 -40.5q90 0 149 59q59 61 59 147q0 67 -42 107
t-113 40z" />
    <glyph glyph-name="seven" unicode="7" 
d="M447 629h-348l4 31h394l-2 -11l-382 -649h-37z" />
    <glyph glyph-name="eight" unicode="8" 
d="M494 515q-3 -56 -40.5 -101t-94.5 -60l-1 -1v-1q56 -16 86.5 -54t30.5 -91q0 -94 -70 -155t-174 -61q-92 0 -143.5 41.5t-51.5 113.5q0 70 45 126q47 56 120 75q0 2 1 3q-93 32 -93 126q0 82 63 138q65 56 154 56q72 0 121 -41q48 -41 48 -105q0 -7 -1 -9zM279 333
q-89 0 -148 -51t-59 -127q0 -61 42.5 -97.5t121.5 -36.5q88 0 146 53q57 52 57 129q0 58 -43.5 94t-116.5 36zM322 637q-77 0 -126 -46q-50 -45 -50 -111q0 -52 37.5 -84t100.5 -32q72 0 122 44q51 45 51 110q0 53 -37 86t-98 33z" />
    <glyph glyph-name="nine" unicode="9" 
d="M428 288l-205 -288h-41l221 309l-2 1q-53 -52 -146 -52q-81 0 -130.5 47.5t-49.5 124.5q0 104 72 171q74 68 175 68q87 0 137.5 -46.5t50.5 -124.5q0 -55 -19.5 -102t-62.5 -108zM265 290q84 0 146 53t62 150q0 66 -42 105.5t-114 39.5q-87 0 -146 -59t-59 -144
q0 -66 41 -105.5t112 -39.5z" />
    <glyph glyph-name="colon" unicode=":" horiz-adv-x="165" 
d="M63 344q0 15 11 26.5t26 11.5q13 0 21 -8.5t8 -21.5q0 -15 -12 -25.5t-27 -10.5q-12 0 -19.5 8t-7.5 20zM17 24q1 15 12 25.5t25 10.5q13 0 21 -8t8 -20q0 -15 -11.5 -26t-26.5 -11q-12 0 -20 8t-8 21z" />
    <glyph glyph-name="semicolon" unicode=";" horiz-adv-x="174" 
d="M74 344q1 15 12 26.5t26 11.5q12 0 20 -8t8 -20q0 -16 -11.5 -27t-26.5 -11q-13 0 -20.5 8t-7.5 20zM91 27q-5 -37 -87 -167l-24 1l62 138q-22 6 -18 30q2 26 28 32q27 7 37 -12q5 -9 2 -22z" />
    <glyph glyph-name="less" unicode="&#x3c;" 
d="M140 298l290 -165l-5 -36l-344 197l1 8l399 196l-4 -36z" />
    <glyph glyph-name="equal" unicode="=" 
d="M469 384l-4 -30h-377l4 30h377zM449 241l-4 -30h-377l4 30h377z" />
    <glyph glyph-name="greater" unicode="&#x3e;" 
d="M453 294l-400 -197l5 36l337 165l-290 164l4 36l345 -196z" />
    <glyph glyph-name="question" unicode="?" horiz-adv-x="476" 
d="M185 134q-26 -7 -37 -11q-11 33 -11 53q0 66 95 139q91 67 122 101q54 58 53 117q0 54 -37.5 86t-103.5 32q-72 0 -151 -35l6 38q75 32 153 32q76 0 123.5 -38.5t47.5 -106.5q0 -96 -96 -176q-16 -13 -46.5 -37t-48.5 -39t-38.5 -35.5t-30.5 -39.5t-10 -37q0 -23 10 -43z
M126 20q0 15 10 25.5t25 10.5q12 0 19.5 -7.5t7.5 -19.5q0 -14 -11.5 -24.5t-24.5 -10.5q-26 0 -26 26z" />
    <glyph glyph-name="at" unicode="@" horiz-adv-x="863" 
d="M592 504h23l-39 -281q-1 -2 -1 -15q0 -58 61 -58q57 0 99 68q42 69 42 175q0 113 -78 176t-194 63q-157 0 -273 -113q-114 -113 -114 -276q0 -127 75 -200q76 -73 204 -73q102 0 188 37l-6 -33q-81 -34 -182 -34q-144 0 -229 80q-84 81 -84 220q0 179 125 301
q125 121 299 121q130 0 215 -72q86 -72 86 -197q0 -115 -50 -192t-129 -77q-39 0 -61 19.5t-22 55.5q0 14 3 26h-2q-26 -51 -69.5 -77t-92.5 -26q-72 0 -109 43t-37 115q0 101 56 166q57 66 144 66q49 0 84.5 -28t49.5 -77zM439 483q-74 0 -120 -58q-45 -58 -45 -139
q0 -63 30 -99t88 -36q74 0 120 57q47 58 47 141q0 61 -31.5 97.5t-88.5 36.5z" />
    <glyph glyph-name="A" unicode="A" horiz-adv-x="591" 
d="M541 0h-38l-44 165h-348l-90 -165h-41l369 664h9zM343 586l-213 -388h319q-72 274 -106 388z" />
    <glyph glyph-name="B" unicode="B" horiz-adv-x="591" 
d="M297 0h-249l93 660h222q81 0 125.5 -35.5t44.5 -103.5q0 -53 -31.5 -98t-89.5 -66q116 -32 116 -146q0 -95 -68 -154q-68 -57 -163 -57zM334 337h-201l-43 -302h203q93 0 144 51q52 52 52 124q0 56 -41 91.5t-114 35.5zM362 626h-189l-36 -255h196q60 0 110 37
q51 38 51 111q0 49 -34.5 78t-97.5 29z" />
    <glyph glyph-name="C" unicode="C" horiz-adv-x="599" 
d="M546 75l-5 -38q-84 -46 -195 -46q-140 0 -213 76t-73 201q0 178 112 290q113 113 270 113q101 0 159 -31l-2 -38q-64 35 -158 35q-139 0 -241 -102q-101 -103 -101 -263q0 -115 67 -180.5t189 -65.5q100 0 191 49z" />
    <glyph glyph-name="D" unicode="D" horiz-adv-x="661" 
d="M254 0h-206l93 660h197q137 0 210 -71t73 -201q0 -172 -102 -280q-100 -108 -265 -108zM329 626h-156l-83 -591h162q152 0 240 100q89 101 89 256q0 111 -64.5 173t-187.5 62z" />
    <glyph glyph-name="E" unicode="E" horiz-adv-x="541" 
d="M538 660l-5 -34h-359l-36 -258h337l-4 -34h-338l-42 -299h392l-5 -35h-430l93 660h397z" />
    <glyph glyph-name="F" unicode="F" horiz-adv-x="504" 
d="M130 311l-44 -311h-37l92 661h406l-5 -35h-368l-40 -280h337l-5 -35h-336z" />
    <glyph glyph-name="G" unicode="G" horiz-adv-x="650" 
d="M446 672q104 0 171 -37l-3 -39q-80 41 -172 41q-139 0 -241 -103q-101 -104 -101 -262q0 -113 66 -179.5t187 -66.5q91 0 168 31l37 266h37l-41 -292q-90 -39 -215 -39q-135 0 -207 78t-72 201q0 170 113 286q112 115 273 115z" />
    <glyph glyph-name="H" unicode="H" horiz-adv-x="648" 
d="M620 661l-92 -661h-37l46 334h-404l-47 -334h-37l92 661h38l-41 -292h404l41 292h37z" />
    <glyph glyph-name="I" unicode="I" horiz-adv-x="225" 
d="M189 661l-93 -661h-37l92 661h38z" />
    <glyph glyph-name="J" unicode="J" horiz-adv-x="428" 
d="M-22 23l6 40q24 -16 60.5 -26.5t65.5 -10.5q94 0 136 51q41 50 55 138l4 26l59 419h38q-17 -111 -58 -413q-16 -111 -57 -177q-50 -79 -176 -79q-83 0 -133 32z" />
    <glyph glyph-name="K" unicode="K" horiz-adv-x="548" 
d="M134 347l386 313h47l-387 -316l323 -344h-54l-316 339l-47 -339h-38l93 660h38z" />
    <glyph glyph-name="L" unicode="L" horiz-adv-x="498" 
d="M90 35h367l-5 -35h-404l93 660h38z" />
    <glyph glyph-name="M" unicode="M" horiz-adv-x="790" 
d="M763 665l-93 -665h-35l79 562q-1 0 -2 1l-323 -387h-9l-216 394h-1l-79 -570h-36l93 665h10l238 -438l365 438h9z" />
    <glyph glyph-name="N" unicode="N" horiz-adv-x="695" 
d="M550 81l82 579h36l-94 -665h-9l-397 588h-2l-81 -583h-37l94 667h10l395 -586h3z" />
    <glyph glyph-name="O" unicode="O" horiz-adv-x="744" 
d="M428 670q128 0 202 -80q73 -79 73 -208q0 -165 -107 -278q-106 -112 -258 -112q-128 0 -202 78q-74 80 -74 205q0 164 106 279q107 116 260 116zM426 635q-136 0 -230 -106q-94 -104 -94 -252q0 -110 62 -181q63 -70 173 -70q138 0 232 103q95 104 95 252q0 112 -64 182
q-64 72 -174 72z" />
    <glyph glyph-name="P" unicode="P" horiz-adv-x="548" 
d="M119 237l-33 -237h-38l92 660h207q94 0 146 -51t52 -132q0 -111 -78 -176q-77 -64 -180 -64h-168zM329 628h-155l-51 -359h162q98 0 158 60q61 61 61 149q0 68 -44 109t-131 41z" />
    <glyph glyph-name="Q" unicode="Q" horiz-adv-x="744" 
d="M428 670q128 0 202 -80q73 -79 73 -208q0 -149 -88 -255q-87 -107 -219 -128l260 -63l-18 -41l-335 99q-113 10 -177 87q-64 76 -64 194q0 164 106 279q107 116 260 116zM426 635q-135 0 -229 -106q-94 -104 -94 -252q0 -110 62 -181q61 -70 172 -70q136 0 230 103
q95 104 95 252q0 111 -63 182q-63 72 -173 72z" />
    <glyph glyph-name="R" unicode="R" horiz-adv-x="559" 
d="M299 258l209 -258h-48l-216 274q0 7 1 9q128 2 197 63q69 62 69 142q0 63 -44 100.5t-119 37.5h-175l-87 -626h-38l92 660h217q86 0 139 -46t53 -123q0 -89 -70 -156q-68 -66 -180 -77z" />
    <glyph glyph-name="S" unicode="S" horiz-adv-x="478" 
d="M294 673q104 0 165 -39l-6 -40q-65 44 -153 44q-67 0 -119 -33q-53 -33 -53 -101q0 -65 106 -117q35 -16 54 -25.5t50.5 -30t48 -39t30 -46.5t12.5 -59q0 -95 -69 -147q-68 -51 -173 -51q-111 0 -185 51l5 42q76 -58 181 -58q86 0 144 41q57 42 57 115q0 87 -106 143
q-9 5 -43 22t-47 24t-38.5 24.5t-36.5 31t-20.5 34t-9.5 42.5q0 77 60 124q62 48 146 48z" />
    <glyph glyph-name="T" unicode="T" horiz-adv-x="524" 
d="M334 626l-88 -626h-38l87 626h-228l5 34h494l-6 -34h-226z" />
    <glyph glyph-name="U" unicode="U" horiz-adv-x="663" 
d="M558 248l58 412h37l-59 -416q-18 -120 -89 -186.5t-194 -66.5q-116 0 -171.5 69t-38.5 190l57 410h37l-58 -410q-15 -102 31 -163t148 -61q106 0 166.5 58t75.5 164z" />
    <glyph glyph-name="V" unicode="V" horiz-adv-x="557" 
d="M257 79l308 580h38l-354 -664h-9l-173 664h36l151 -580h3z" />
    <glyph glyph-name="W" unicode="W" horiz-adv-x="873" 
d="M600 87l281 572h38l-330 -664h-7l-101 571h-3l-262 -571h-9l-141 664h37l119 -571h3l263 575h8l101 -576h3z" />
    <glyph glyph-name="X" unicode="X" horiz-adv-x="578" 
d="M533 0h-47l-186 334l-276 -334h-49l290 344l-180 316h40l176 -308l261 308h45l-270 -319z" />
    <glyph glyph-name="Y" unicode="Y" horiz-adv-x="531" 
d="M295 283l-40 -283h-37l39 283l-190 377h40l171 -340h2l256 340h42z" />
    <glyph glyph-name="Z" unicode="Z" horiz-adv-x="494" 
d="M49 34h394l-5 -34h-453q0 1 1 4v2l476 620h-352l5 34h410q-1 -1 -1 -8z" />
    <glyph glyph-name="bracketleft" unicode="[" horiz-adv-x="241" 
d="M160 -117h-138l119 846h138l-5 -28h-104l-110 -789h104z" />
    <glyph glyph-name="backslash" unicode="\" horiz-adv-x="247" 
d="M240 -88h-31q-18 68 -91 391q-62 285 -88 386h31q21 -78 90 -391q66 -293 89 -386z" />
    <glyph glyph-name="bracketright" unicode="]" horiz-adv-x="241" 
d="M97 729h137l-119 -846h-137l4 29h104l111 789h-104z" />
    <glyph glyph-name="asciicircum" unicode="^" horiz-adv-x="454" 
d="M292 659l151 -309h-36l-129 264l-205 -264h-35l240 309h14z" />
    <glyph glyph-name="underscore" unicode="_" horiz-adv-x="504" 
d="M448 -107h-492l3 25h493z" />
    <glyph glyph-name="grave" unicode="`" horiz-adv-x="453" 
d="M214 683l98 -145l-28 -1l-107 135z" />
    <glyph glyph-name="a" unicode="a" 
d="M431 340l3 -3l26 106h25l-62 -443h-28l7 101l-2 1q-68 -111 -188 -111q-84 0 -128 51t-44 135q0 121 66 197q68 77 171 77q117 0 154 -111zM275 421q-90 0 -144 -70q-53 -71 -53 -167q0 -77 35.5 -120t105.5 -43q87 0 144 68q57 69 57 170q0 73 -38.5 117.5t-106.5 44.5z
" />
    <glyph glyph-name="b" unicode="b" horiz-adv-x="535" 
d="M245 -8q-64 0 -107 29t-59 83h-5l-21 -104h-25l100 710h35l-50 -356l4 -2q74 101 187 101q87 0 135 -52t48 -136q0 -121 -69 -197q-67 -76 -173 -76zM301 422q-91 0 -149 -69q-58 -67 -58 -167q0 -75 38.5 -119t109.5 -44q94 0 149 67q57 68 57 167q0 75 -38.5 120
t-108.5 45z" />
    <glyph glyph-name="c" unicode="c" horiz-adv-x="421" 
d="M370 56l-5 -36q-55 -29 -134 -29q-93 0 -142 55q-48 56 -48 142q0 118 73 192q74 75 182 75q63 0 108 -20l-6 -36q-38 24 -102 24q-92 0 -157 -66q-63 -65 -63 -171q0 -74 44 -118t121 -44q76 0 129 32z" />
    <glyph glyph-name="d" unicode="d" horiz-adv-x="542" 
d="M532 710l-99 -710h-28l5 90l-1 1l-1 1q-67 -100 -190 -100q-85 0 -132 53q-46 53 -46 133q0 118 68 197q69 78 170 78q59 0 102 -26.5t62 -72.5h1q1 1 2 1l51 355h36zM283 421q-93 0 -149 -68t-56 -168q0 -74 38.5 -118.5t109.5 -44.5q88 0 147 68q58 68 58 170
q0 73 -39 117t-109 44z" />
    <glyph glyph-name="e" unicode="e" horiz-adv-x="456" 
d="M397 81q-5 -35 -7 -40q-79 -50 -168 -50q-88 0 -135 49.5t-47 137.5q0 114 68 194q69 80 174 80q66 0 104 -33.5t38 -85.5q0 -60 -65 -99t-188 -39q-46 0 -91 5l-2 -24q0 -71 38 -112.5t108 -41.5q99 0 173 59zM281 418q-75 0 -128.5 -51.5t-68.5 -134.5q43 -7 92 -7
q101 0 154.5 30t53.5 77q0 38 -27 62t-76 24z" />
    <glyph glyph-name="f" unicode="f" horiz-adv-x="292" 
d="M384 714l-1 -34q-45 14 -77 14q-116 0 -135 -147l-14 -103h147l-5 -32h-147l-84 -613h-37l85 613h-89l4 24l89 8l14 100q25 181 179 181q36 0 71 -11z" />
    <glyph glyph-name="g" unicode="g" horiz-adv-x="484" 
d="M129 143l-67 -68l219 -24q60 -8 85.5 -26.5t25.5 -54.5q0 -63 -68 -125t-176 -62q-83 0 -124 31t-41 81q0 41 26.5 81t70.5 65l-19 2q-38 3 -38 26q0 6 2 10l85 78q-40 34 -40 99q0 80 58 137q58 58 141 58q27 0 59 -9h143q-1 -7 -4 -24l-101 -6q54 -38 54 -107
q0 -76 -59 -132q-58 -55 -138 -55q-60 0 -94 25zM227 149q67 0 112 45q46 46 46 109q0 51 -34 84t-86 33q-66 0 -113 -47t-47 -112q0 -51 32.5 -81.5t89.5 -30.5zM293 18l-189 21q-37 -24 -60.5 -62t-23.5 -74q0 -88 132 -88q89 0 145 49q58 48 58 100q0 46 -62 54z" />
    <glyph glyph-name="h" unicode="h" horiz-adv-x="504" 
d="M164 710l-53 -365h4q34 52 82.5 80t98.5 28q76 0 112.5 -48.5t25.5 -128.5l-38 -276h-37l37 269q9 67 -17.5 108.5t-89.5 41.5q-68 0 -123 -55q-54 -54 -68 -144l-32 -220h-37l99 710h36z" />
    <glyph glyph-name="i" unicode="i" horiz-adv-x="203" 
d="M153 610q23 0 23 -24q0 -13 -9 -22.5t-22 -9.5q-25 0 -25 23q0 13 10 23t23 10zM146 444l-62 -444h-37l62 444h37z" />
    <glyph glyph-name="j" unicode="j" horiz-adv-x="186" 
d="M144 610q10 0 17 -7t7 -17q0 -13 -9.5 -23t-22.5 -10q-10 0 -17 6.5t-7 17.5q0 13 9.5 23t22.5 10zM33 -39l68 482h37l-69 -483q-13 -87 -51.5 -128.5t-113.5 -49.5l-16 35q67 2 101 37t44 107z" />
    <glyph glyph-name="k" unicode="k" horiz-adv-x="434" 
d="M96 228l-31 -228h-36l99 710h36l-66 -472l282 205h53l-295 -211l256 -232h-51z" />
    <glyph glyph-name="l" unicode="l" horiz-adv-x="183" 
d="M175 711l-99 -711h-37l99 711h37z" />
    <glyph glyph-name="m" unicode="m" horiz-adv-x="803" 
d="M126 443l-7 -98q1 -1 3 -1q32 55 78 82t94 27q58 0 92 -29t37 -83q27 52 76.5 82t99.5 30q67 0 102.5 -34.5t35.5 -99.5q0 -19 -2 -37l-40 -282h-36l39 280q2 32 2 33q0 107 -106 107q-64 0 -113.5 -48t-61.5 -134l-11 -75q-4 -39 -12 -88l-10 -75h-37q10 73 16 117
l23 163q2 30 2 32q0 53 -27 80.5t-75 27.5q-61 0 -116 -53q-53 -53 -65 -141l-32 -226h-37l62 443h26z" />
    <glyph glyph-name="n" unicode="n" horiz-adv-x="512" 
d="M121 345h3q34 52 82.5 80t98.5 28q67 0 104.5 -35.5t37.5 -103.5q0 -18 -3 -38l-39 -276h-37l38 269q2 16 2 35q0 115 -110 115q-67 0 -122 -55q-56 -56 -69 -144l-32 -220h-37l62 443h29q-7 -70 -8 -98z" />
    <glyph glyph-name="o" unicode="o" horiz-adv-x="518" 
d="M287 453q86 0 134.5 -53t48.5 -141q0 -111 -68 -191q-68 -78 -175 -78q-88 0 -137 52t-49 140q0 113 68 192q67 79 178 79zM286 420q-90 0 -149 -69q-57 -67 -57 -167q0 -74 38.5 -118t109.5 -44q90 0 148 69q58 68 58 166q0 72 -40 117.5t-108 45.5z" />
    <glyph glyph-name="p" unicode="p" horiz-adv-x="529" 
d="M80 94h-3l-45 -304h-34l90 653h28l-5 -93l2 -2q69 103 190 103q85 0 132 -54q46 -52 46 -132q0 -119 -69 -197q-68 -77 -169 -77q-59 0 -101.5 27t-61.5 76zM238 22q93 0 149 68t56 167q0 76 -39 120t-110 44q-88 0 -146 -69q-58 -67 -58 -169q0 -73 39 -117t109 -44z
" />
    <glyph glyph-name="q" unicode="q" horiz-adv-x="538" 
d="M446 345l4 -3l24 101h25l-92 -653h-36l43 297l-4 2q-80 -98 -187 -98q-89 0 -136 53t-47 133q0 121 68 198q69 77 174 77q57 0 100.5 -28t63.5 -79zM225 21q90 0 149 68q59 70 59 168q0 75 -38.5 119t-109.5 44q-89 0 -148 -68q-58 -67 -58 -166q0 -76 38 -120.5
t108 -44.5z" />
    <glyph glyph-name="r" unicode="r" horiz-adv-x="308" 
d="M75 0h-37l62 443h25l-10 -131q0 -1 2 -1q24 72 69.5 107t102.5 35q26 0 41 -4q0 -31 -1 -40q-22 5 -47 5q-71 0 -117 -58.5t-64 -166.5q-5 -41 -26 -189z" />
    <glyph glyph-name="s" unicode="s" horiz-adv-x="365" 
d="M-4 31l2 38q58 -47 142 -47q58 0 95.5 24.5t37.5 73.5q0 52 -76 87q-80 37 -103 57q-37 30 -37 69q0 63 45 91q47 29 107 29q67 0 124 -30l-5 -37q-58 36 -119 36q-50 0 -82 -21t-32 -64q0 -30 33.5 -54.5t74.5 -40.5t74.5 -46.5t33.5 -70.5q0 -66 -50 -101
q-49 -33 -122 -33q-87 0 -143 40z" />
    <glyph glyph-name="t" unicode="t" horiz-adv-x="327" 
d="M169 443h150l-4 -31h-151l-40 -283q0 -4 -1 -16t-1 -15q0 -71 72 -71q46 0 93 32l-6 -37q-43 -29 -96 -29q-101 0 -101 95q0 18 3 41l40 283h-81l4 25q1 0 5 0.5t12.5 1t17.5 0.5l47 4l39 133h17z" />
    <glyph glyph-name="u" unicode="u" horiz-adv-x="503" 
d="M373 99h-3q-62 -108 -172 -108q-67 0 -103.5 35.5t-36.5 101.5q0 18 3 39l39 276h37l-38 -269q-3 -21 -3 -38q0 -112 109 -112q66 0 117 55q50 55 64 145l33 219h37l-62 -443h-29q7 68 8 99z" />
    <glyph glyph-name="v" unicode="v" horiz-adv-x="424" 
d="M168 -4l-134 447h40l107 -374h3l213 375h39l-261 -448h-7z" />
    <glyph glyph-name="w" unicode="w" horiz-adv-x="682" 
d="M144 -4l-110 447h38l88 -372h2l199 374h7l96 -373h2l192 371h36l-237 -447h-7l-96 372h-2l-200 -372h-8z" />
    <glyph glyph-name="x" unicode="x" horiz-adv-x="424" 
d="M377 0h-42l-131 220l-189 -220h-46l201 228l-129 216h40l125 -208l179 208h45l-191 -216z" />
    <glyph glyph-name="y" unicode="y" horiz-adv-x="411" 
d="M62 -215h-38l124 224l-118 434h39l101 -391h3l215 391h39z" />
    <glyph glyph-name="z" unicode="z" horiz-adv-x="387" 
d="M35 30h293q-4 -26 -4 -30h-350q0 1 0.5 3.5t0.5 3.5l350 406h-263l5 30h318l-1 -3v-5z" />
    <glyph glyph-name="braceleft" unicode="{" horiz-adv-x="266" 
d="M64 331v3q1 4 1 6q61 14 74 114l23 154q5 33 14 65q17 52 77 57h46l-4 -29h-36q-25 0 -40 -18q-13 -16 -17 -33t-8 -53l-18 -130q-6 -36 -12 -57q-18 -59 -56 -74v-1q-1 -1 -1 -2q35 -23 35 -77q0 -16 -8 -82l-27 -190q-1 -5 -1 -20q0 -51 41 -51h36q0 -4 -4 -30h-36
q-71 0 -71 69q0 17 4 44l29 215q4 25 4 45q0 64 -45 75z" />
    <glyph glyph-name="bar" unicode="|" horiz-adv-x="237" 
d="M165 -138h-34v897h34v-897z" />
    <glyph glyph-name="braceright" unicode="}" horiz-adv-x="266" 
d="M224 340q0 -3 -2 -11q-61 -14 -74 -120l-30 -213q-5 -37 -11 -53q-8 -24 -30 -42t-53 -18h-41q0 4 4 30h36q49 0 60 71l5 34q3 20 20 142q14 95 28 125q16 34 46 48v1l1 2q-37 15 -37 72q0 18 4 46l23 163q0 3 1 17t1 18q0 49 -42 49h-36l4 29h46q62 0 62 -72
q0 -5 -2 -29l-24 -176q-3 -18 -3 -36q0 -65 44 -77z" />
    <glyph glyph-name="asciitilde" unicode="~" horiz-adv-x="503" 
d="M461 370l19 -21q-51 -80 -130 -80q-35 0 -102 32q-66 33 -92 33q-48 0 -95 -62l-18 21q54 76 120 76q35 0 101 -33t93 -33q55 0 104 67z" />
    <glyph glyph-name="uni00A0" unicode="&#xa0;" horiz-adv-x="237" 
 />
    <glyph glyph-name="exclamdown" unicode="&#xa1;" horiz-adv-x="244" 
d="M115 418q-1 15 10 25.5t26 10.5q12 0 19 -8t7 -20q0 -15 -10 -25.5t-25 -10.5q-12 0 -19.5 8t-7.5 20zM34 -236l85 551h27l-71 -551h-41z" />
    <glyph glyph-name="cent" unicode="&#xa2;" 
d="M286 -21h-32q5 33 14 100q-82 6 -126.5 58.5t-44.5 135.5q0 109 68 183q67 75 169 84l15 104h31l-14 -103q53 -1 93 -19q-1 -4 -3 -18t-3 -18q-38 23 -96 23q-93 0 -159 -67q-66 -66 -66 -171q0 -73 44.5 -116t122.5 -43q72 0 125 32q-2 -8 -5 -36q-52 -28 -119 -29z" />
    <glyph glyph-name="sterling" unicode="&#xa3;" 
d="M507 651l-4 -33q-49 17 -86 17q-74 0 -122.5 -45.5t-62.5 -136.5l-15 -100h200l-4 -27h-200q-36 -222 -112 -295h329l-3 -31h-385l1 9q58 51 87 125q27 70 47 192h-78l4 27h78l15 101q9 60 33 103.5t57 66t66.5 33t67.5 10.5q48 0 87 -16z" />
    <glyph glyph-name="currency" unicode="&#xa4;" horiz-adv-x="540" 
d="M435 174l56 -54l-27 -27l-55 53q-49 -40 -112 -40q-59 0 -111 39l-51 -52l-27 27l52 51q-39 45 -39 110q0 60 38 110l-52 54l27 26l52 -54q50 41 111 41q65 0 113 -42l54 53l26 -26l-55 -55q37 -46 37 -107q0 -60 -37 -107zM155 280q0 -57 41 -98q43 -41 100 -41
q58 0 99 41t41 98q0 60 -41 101q-41 42 -99 42t-100 -42q-41 -43 -41 -101z" />
    <glyph glyph-name="yen" unicode="&#xa5;" 
d="M485 283h-410q1 9 4 25h170l-145 353h41q98 -257 134 -343l237 342h39l-246 -352h180q-1 -9 -4 -25zM282 193l-27 -193h-37l26 193h-182l4 25h410l-4 -25h-190z" />
    <glyph glyph-name="brokenbar" unicode="&#xa6;" horiz-adv-x="236" 
d="M164 759v-357h-33v357h33zM131 -138v419h33v-419h-33z" />
    <glyph glyph-name="section" unicode="&#xa7;" horiz-adv-x="545" 
d="M483 683q-1 -8 -5 -36q-61 34 -131 34q-60 0 -101 -28q-42 -27 -42 -79q0 -59 94 -101q34 -14 49 -20.5t45 -22.5t44 -30t26 -36.5t11 -47.5q0 -48 -28.5 -88.5t-76.5 -61.5q49 -40 49 -92q0 -72 -59 -114q-58 -43 -142 -43q-48 0 -95.5 13.5t-75.5 33.5l6 38
q29 -22 74 -36t87 -14q65 0 114 29q49 28 49 87q0 68 -96 111q-5 3 -29 14t-32 15t-28.5 15t-28.5 17.5t-22 19t-20 23.5t-11 26t-5 31q0 46 27.5 84.5t75.5 60.5q-42 37 -42 84q0 66 53 105q53 40 133 40q77 0 133 -31zM434 308q0 42 -31 67q-31 28 -93 53q-62 27 -81 39
q-86 -35 -86 -118q0 -41 28 -66q26 -24 88 -52q61 -28 85 -45q42 20 66 52t24 70z" />
    <glyph glyph-name="dieresis" unicode="&#xa8;" horiz-adv-x="440" 
d="M186 611q22 0 22 -23q0 -13 -8.5 -22t-20.5 -9q-11 0 -18 6.5t-6 16.5q0 12 9.5 21.5t21.5 9.5zM340 611q23 0 23 -23q0 -13 -8.5 -22t-21.5 -9q-11 0 -17.5 6t-5.5 16q0 13 9.5 22.5t20.5 9.5z" />
    <glyph glyph-name="copyright" unicode="&#xa9;" horiz-adv-x="833" 
d="M443 -10q-153 0 -257 104q-102 104 -102 258t105 257q106 104 257 104q148 0 251 -105q104 -106 104 -256q0 -152 -105 -257q-104 -105 -253 -105zM443 16q137 0 233 97q97 97 97 239q0 140 -97 237q-96 97 -231 97q-139 0 -236 -96t-97 -238q0 -143 94 -240
q94 -96 237 -96zM587 163v-28q-56 -29 -126 -29q-113 0 -176 63t-63 172q0 103 65 173q65 69 173 69q60 0 109 -21v-30q-48 23 -106 23q-94 0 -151 -60q-56 -59 -56 -154q0 -92 56 -150q57 -57 152 -57q70 0 123 29z" />
    <glyph glyph-name="ordfeminine" unicode="&#xaa;" horiz-adv-x="348" 
d="M300 299h-20l5 73q-40 -79 -128 -79q-58 0 -88.5 34t-30.5 90q0 77 44 127q44 51 115 51q43 0 72 -20t39 -57l14 71h23l-12 -82l-20 -126q-13 -81 -13 -82zM200 570q-60 0 -96 -44q-35 -44 -35 -105q0 -101 92 -101q59 0 96 43q38 44 38 106q0 45 -25.5 73t-69.5 28z" />
    <glyph glyph-name="guillemotleft" unicode="&#xab;" horiz-adv-x="379" 
d="M75 198l116 -178h-42l-113 173v4l1 3l162 173h39zM194 198l116 -178h-41l-115 173v4l1 3l163 173h39z" />
    <glyph glyph-name="logicalnot" unicode="&#xac;" 
d="M93 313h365l-28 -200h-32l24 170h-334z" />
    <glyph glyph-name="sfthyphen" unicode="&#xad;" horiz-adv-x="366" 
d="M303 225h-246l4 37h247z" />
    <glyph glyph-name="registered" unicode="&#xae;" horiz-adv-x="609" 
d="M444 524q0 -32 -24 -55t-66 -29l107 -119h-34l-111 129v7q103 2 103 64q0 65 -79 65h-65v-264h-25v286h94q43 0 71.5 -23t28.5 -61zM334 222q-108 0 -174 68q-65 70 -65 171q0 98 70 168q71 71 169 71q103 0 170 -70q69 -71 69 -169q0 -100 -70 -170q-71 -69 -169 -69z
M120 461q0 -90 59 -154q60 -62 155 -62q89 0 152 63q63 64 63 153t-63 152q-62 63 -152 63t-152 -63q-62 -64 -62 -152z" />
    <glyph glyph-name="overscore" unicode="&#xaf;" horiz-adv-x="462" 
d="M399 562h-260l5 32h259z" />
    <glyph glyph-name="degree" unicode="&#xb0;" horiz-adv-x="404" 
d="M258 647q45 0 73 -27.5t28 -70.5q0 -54 -39 -93q-40 -38 -94 -38q-46 0 -72 26t-26 69q0 55 39 94q40 40 91 40zM254 620q-39 0 -69 -31q-29 -31 -29 -71q0 -31 20.5 -52.5t52.5 -21.5q42 0 72.5 30.5t30.5 70.5q0 33 -21.5 54t-56.5 21z" />
    <glyph glyph-name="plusminus" unicode="&#xb1;" 
d="M49 0l3 31h366l-4 -31h-365zM451 269h-167l-23 -165h-31l24 165h-168l4 30h168l23 167h31l-23 -167h166z" />
    <glyph glyph-name="twosuperior" unicode="&#xb2;" horiz-adv-x="336" 
d="M87 706l7 36q67 38 125 38q51 0 80.5 -24t29.5 -68q0 -64 -66 -136q-64 -70 -170 -136h203l-3 -27h-274v8q123 73 200 146q81 77 81 140q0 34 -22.5 51.5t-59.5 17.5q-64 0 -131 -46z" />
    <glyph glyph-name="threesuperior" unicode="&#xb3;" horiz-adv-x="343" 
d="M288 748h-195l3 28h253q0 -2 -1 -4v-3l-160 -143q59 0 93.5 -27.5t34.5 -73.5q0 -66 -49 -103q-49 -38 -111 -38q-82 0 -127 42l4 35q51 -51 122 -51q55 0 92 32t37 81q0 39 -29.5 60.5t-80.5 21.5q-22 0 -38 -2l-3 7z" />
    <glyph glyph-name="acute" unicode="&#xb4;" horiz-adv-x="457" 
d="M407 662l-143 -128l-30 2l137 139z" />
    <glyph glyph-name="mu" unicode="&#xb5;" horiz-adv-x="498" 
d="M77 52l-37 -262h-36l92 653h36l-40 -289q-2 -14 -2 -29q0 -49 28 -75t77 -26q67 0 120 47t65 134l33 238h37l-62 -443h-29q6 88 6 92q0 1 -1 1q-68 -102 -174 -102q-91 0 -113 61z" />
    <glyph glyph-name="mu" unicode="&#x3bc;" horiz-adv-x="498" 
d="M77 52l-37 -262h-36l92 653h36l-40 -289q-2 -14 -2 -29q0 -49 28 -75t77 -26q67 0 120 47t65 134l33 238h37l-62 -443h-29q6 88 6 92q0 1 -1 1q-68 -102 -174 -102q-91 0 -113 61z" />
    <glyph glyph-name="paragraph" unicode="&#xb6;" horiz-adv-x="482" 
d="M376 684l-50 -355h-65q-71 0 -114 41.5t-43 108.5q0 83 60 144q61 61 147 61h65zM179 -173q-4 9 -11 34q71 3 109.5 46t50.5 127l91 651h39l-92 -656q-14 -96 -65 -150q-52 -56 -122 -52z" />
    <glyph glyph-name="middot" unicode="&#xb7;" horiz-adv-x="164" 
d="M48 245q1 16 12 27t26 11q12 0 20 -7.5t8 -19.5q0 -16 -11.5 -27.5t-26.5 -11.5q-13 0 -20.5 8t-7.5 20z" />
    <glyph glyph-name="cedilla" unicode="&#xb8;" horiz-adv-x="407" 
d="M130 -85l-9 7l52 89q6 -1 27 -1l-43 -65q2 0 9 0.5t9 0.5q40 0 62 -17.5t22 -45.5q0 -38 -34 -65t-83 -27q-38 0 -75 15q0 2 4 29q56 -26 106 -11t46 53q0 20 -16.5 31.5t-41.5 11.5q-20 0 -35 -5z" />
    <glyph glyph-name="onesuperior" unicode="&#xb9;" horiz-adv-x="281" 
d="M74 664q0 2 1 7t2 11.5t2 13.5l149 82h7l-55 -389h-31l48 340q-5 -3 -13.5 -7.5t-22 -11.5t-24.5 -13q-42 -21 -63 -33z" />
    <glyph glyph-name="ordmasculine" unicode="&#xba;" horiz-adv-x="357" 
d="M215 599q60 0 94.5 -35t34.5 -93q0 -73 -48 -126q-46 -51 -122 -51q-63 0 -97.5 34t-34.5 93q0 73 48 126q48 52 125 52zM214 570q-61 0 -98 -43q-38 -43 -38 -104q0 -47 25 -74.5t71 -27.5q59 0 98 43q39 44 39 105q0 45 -26.5 73t-70.5 28z" />
    <glyph glyph-name="guillemotright" unicode="&#xbb;" horiz-adv-x="379" 
d="M334 193l-163 -173h-41l167 178l-115 175h39l114 -173l-1 -3v-4zM215 193l-162 -173h-42l166 178l-114 175h40l113 -173v-3q-1 -3 -1 -4z" />
    <glyph glyph-name="onequarter" unicode="&#xbc;" horiz-adv-x="741" 
d="M334 105l256 278h35l-243 -263h174l15 111l26 31h9l-20 -142h59l-3 -26h-59l-14 -96h-30l13 96h-219zM97 574q0 2 1 7t2 11.5t2 13.5l149 82h7l-55 -389h-31l48 340q-5 -3 -13.5 -7.5t-22 -11.5t-24.5 -13q-42 -21 -63 -33zM662 681h32l-611 -700h-32z" />
    <glyph glyph-name="onehalf" unicode="&#xbd;" horiz-adv-x="741" 
d="M80 574q0 2 1 7t2 11.5t2 13.5l149 82h7l-55 -389h-31l48 340q-5 -3 -13.5 -7.5t-22 -11.5t-24.5 -13q-42 -21 -63 -33zM441 316l7 35q66 39 126 39q50 0 79.5 -24.5t29.5 -67.5q0 -64 -66 -136q-64 -70 -170 -136h203l-3 -26h-273v7q123 73 199 145q81 76 81 140
q0 34 -22.5 52t-59.5 18q-64 0 -131 -46zM628 681h32l-611 -700h-32z" />
    <glyph glyph-name="threequarters" unicode="&#xbe;" horiz-adv-x="741" 
d="M365 105l256 278h35l-243 -263h174l15 111l26 31h9l-20 -142h59l-3 -26h-59l-14 -96h-30l13 96h-219zM307 657h-195l3 28h253v-5l-1 -2l-160 -143q59 0 93.5 -27.5t34.5 -73.5q0 -66 -49 -103q-49 -38 -111 -38q-82 0 -127 42l4 35q51 -51 122 -51q55 0 92 32t37 81
q0 39 -29.5 60.5t-80.5 21.5q-22 0 -38 -2l-3 7zM703 681h32l-611 -700h-32z" />
    <glyph glyph-name="questiondown" unicode="&#xbf;" horiz-adv-x="481" 
d="M299 311l38 10q10 -24 10 -50q0 -69 -96 -141q-90 -67 -119 -99q-56 -59 -55 -119q0 -54 37.5 -85.5t103.5 -31.5q72 0 151 35l-5 -39q-57 -25 -116 -30t-105.5 8.5t-75.5 49t-28 86.5q0 95 95 174q16 13 47 37t49 39t38.5 35.5t30.5 39t10 36.5q0 24 -10 45zM358 424
q0 -14 -10 -24.5t-24 -10.5q-13 0 -20.5 7.5t-7.5 19.5q0 14 11.5 24.5t24.5 10.5q26 0 26 -27z" />
    <glyph glyph-name="Agrave" unicode="&#xc0;" horiz-adv-x="591" 
d="M541 0h-38l-44 165h-348l-90 -165h-41l369 664h9zM343 586l-213 -388h319q-72 274 -106 388zM252 859l118 -123l-30 -2l-131 111z" />
    <glyph glyph-name="Aacute" unicode="&#xc1;" horiz-adv-x="591" 
d="M541 0h-38l-44 165h-348l-90 -165h-41l369 664h9zM343 586l-213 -388h319q-72 274 -106 388zM511 840l-157 -107l-33 2l149 119z" />
    <glyph glyph-name="Acircumflex" unicode="&#xc2;" horiz-adv-x="591" 
d="M541 0h-38l-44 165h-348l-90 -165h-41l369 664h9zM343 586l-213 -388h319q-72 274 -106 388zM498 726h-45l-81 82l-113 -82h-45l155 120h13z" />
    <glyph glyph-name="Atilde" unicode="&#xc3;" horiz-adv-x="591" 
d="M541 0h-38l-44 165h-348l-90 -165h-41l369 664h9zM343 586l-213 -388h319q-72 274 -106 388zM241 752l-17 21q36 62 87 62q23 0 61 -23q40 -23 54 -23q18 0 32 11.5t32 37.5q9 -15 15 -21q-35 -60 -82 -60q-22 0 -60 23t-55 23q-36 0 -67 -51z" />
    <glyph glyph-name="Adieresis" unicode="&#xc4;" horiz-adv-x="591" 
d="M541 0h-38l-44 165h-348l-90 -165h-41l369 664h9zM343 586l-213 -388h319q-72 274 -106 388zM293 813q24 0 22 -23q0 -13 -8.5 -21.5t-20.5 -8.5q-25 0 -25 23q1 12 10.5 21t21.5 9zM448 813q24 0 22 -23q0 -13 -8.5 -21.5t-21.5 -8.5q-24 0 -24 23q1 12 10.5 21t21.5 9z
" />
    <glyph glyph-name="Aring" unicode="&#xc5;" horiz-adv-x="591" 
d="M541 0h-38l-44 165h-348l-90 -165h-41l369 664h9zM343 586l-213 -388h319q-72 274 -106 388zM375 851q32 0 51 -19.5t19 -49.5q0 -37 -27 -64t-65 -27q-32 0 -50 17.5t-18 47.5q0 39 26.5 67t63.5 28zM372 828q-26 0 -44.5 -20t-18.5 -47q0 -21 12.5 -34t34.5 -13
q27 0 45.5 19.5t18.5 45.5q0 21 -13.5 35t-34.5 14z" />
    <glyph glyph-name="AE" unicode="&#xc6;" horiz-adv-x="919" 
d="M861 0h-415l21 165h-321l-150 -165h-46l604 660h355q0 -1 -2.5 -15t-2.5 -19h-342l-33 -258h323l-3 -34h-324q-20 -166 -38 -299h378q-3 -23 -4 -35zM518 572h-2l-340 -374h294z" />
    <glyph glyph-name="Ccedilla" unicode="&#xc7;" horiz-adv-x="599" 
d="M272 -88l-9 7l43 74q-118 11 -182 84.5t-64 190.5q0 178 112 290q113 113 270 113q101 0 159 -31l-2 -38q-64 35 -158 35q-139 0 -241 -102q-101 -103 -101 -263q0 -115 67 -180.5t189 -65.5q100 0 191 49l-5 -38q-84 -46 -195 -46h-15l-32 -49q2 0 9 0.5t9 0.5
q40 0 62 -17.5t22 -45.5q0 -38 -34 -65t-83 -27q-38 0 -75 15q0 2 4 29q56 -26 106 -11t46 53q0 20 -16.5 31.5t-41.5 11.5q-20 0 -35 -5z" />
    <glyph glyph-name="Egrave" unicode="&#xc8;" horiz-adv-x="541" 
d="M538 660l-5 -34h-359l-36 -258h337l-4 -34h-338l-42 -299h392l-5 -35h-430l93 660h397zM288 859l118 -123l-30 -2l-131 111z" />
    <glyph glyph-name="Eacute" unicode="&#xc9;" horiz-adv-x="541" 
d="M538 660l-5 -34h-359l-36 -258h337l-4 -34h-338l-42 -299h392l-5 -35h-430l93 660h397zM475 840l-157 -107l-33 2l149 119z" />
    <glyph glyph-name="Ecircumflex" unicode="&#xca;" horiz-adv-x="541" 
d="M538 660l-5 -34h-359l-36 -258h337l-4 -34h-338l-42 -299h392l-5 -35h-430l93 660h397zM483 729h-45l-81 82l-113 -82h-45l155 120h13z" />
    <glyph glyph-name="Edieresis" unicode="&#xcb;" horiz-adv-x="541" 
d="M538 660l-5 -34h-359l-36 -258h337l-4 -34h-338l-42 -299h392l-5 -35h-430l93 660h397zM274 813q24 0 22 -23q0 -13 -8.5 -21.5t-20.5 -8.5q-25 0 -25 23q1 12 10.5 21t21.5 9zM429 813q24 0 22 -23q0 -13 -8.5 -21.5t-21.5 -8.5q-24 0 -24 23q1 12 10.5 21t21.5 9z" />
    <glyph glyph-name="Igrave" unicode="&#xcc;" horiz-adv-x="225" 
d="M189 661l-93 -661h-37l92 661h38zM86 859l118 -123l-30 -2l-131 111z" />
    <glyph glyph-name="Iacute" unicode="&#xcd;" horiz-adv-x="225" 
d="M189 661l-93 -661h-37l92 661h38zM333 840l-157 -107l-33 2l149 119z" />
    <glyph glyph-name="Icircumflex" unicode="&#xce;" horiz-adv-x="225" 
d="M321 729h-45l-81 82l-113 -82h-45l155 120h13zM189 661l-93 -661h-37l92 661h38z" />
    <glyph glyph-name="Idieresis" unicode="&#xcf;" horiz-adv-x="225" 
d="M189 661l-93 -661h-37l92 661h38zM112 813q24 0 22 -23q0 -13 -8.5 -21.5t-20.5 -8.5q-25 0 -25 23q1 12 10.5 21t21.5 9zM267 813q24 0 22 -23q0 -13 -8.5 -21.5t-21.5 -8.5q-24 0 -24 23q1 12 10.5 21t21.5 9z" />
    <glyph glyph-name="Eth" unicode="&#xd0;" horiz-adv-x="673" 
d="M265 0h-205l45 328h-73q0 4 1 10.5t2.5 14t1.5 9.5h73l42 298h197q137 0 210 -71t73 -201q0 -172 -102 -280q-101 -108 -265 -108zM344 626h-159q-9 -57 -37 -264h216q-3 -12 -5 -34h-216l-41 -293h165q152 0 240 100q89 101 89 256q0 111 -64.5 173t-187.5 62z" />
    <glyph glyph-name="Ntilde" unicode="&#xd1;" horiz-adv-x="695" 
d="M550 81l82 579h36l-94 -665h-9l-397 588h-2l-81 -583h-37l94 667h10l395 -586h3zM296 746l-17 21q36 62 87 62q23 0 61 -23q40 -23 54 -23q18 0 32 11.5t32 37.5q9 -15 15 -21q-34 -60 -82 -60q-22 0 -60 23t-55 23q-35 0 -67 -51z" />
    <glyph glyph-name="Ograve" unicode="&#xd2;" horiz-adv-x="744" 
d="M428 670q128 0 202 -80q73 -79 73 -208q0 -165 -107 -278q-106 -112 -258 -112q-128 0 -202 78q-74 80 -74 205q0 164 106 279q107 116 260 116zM426 635q-136 0 -230 -106q-94 -104 -94 -252q0 -110 62 -181q63 -70 173 -70q138 0 232 103q95 104 95 252q0 112 -64 182
q-64 72 -174 72zM375 859l118 -123l-30 -2l-131 111z" />
    <glyph glyph-name="Oacute" unicode="&#xd3;" horiz-adv-x="744" 
d="M428 670q128 0 202 -80q73 -79 73 -208q0 -165 -107 -278q-106 -112 -258 -112q-128 0 -202 78q-74 80 -74 205q0 164 106 279q107 116 260 116zM426 635q-136 0 -230 -106q-94 -104 -94 -252q0 -110 62 -181q63 -70 173 -70q138 0 232 103q95 104 95 252q0 112 -64 182
q-64 72 -174 72zM602 840l-157 -107l-33 2l149 119z" />
    <glyph glyph-name="Ocircumflex" unicode="&#xd4;" horiz-adv-x="744" 
d="M595 729h-45l-81 82l-113 -82h-45l155 120h13zM428 670q128 0 202 -80q73 -79 73 -208q0 -165 -107 -278q-106 -112 -258 -112q-128 0 -202 78q-74 80 -74 205q0 164 106 279q107 116 260 116zM426 635q-136 0 -230 -106q-94 -104 -94 -252q0 -110 62 -181
q63 -70 173 -70q138 0 232 103q95 104 95 252q0 112 -64 182q-64 72 -174 72z" />
    <glyph glyph-name="Otilde" unicode="&#xd5;" horiz-adv-x="744" 
d="M428 670q128 0 202 -80q73 -79 73 -208q0 -165 -107 -278q-106 -112 -258 -112q-128 0 -202 78q-74 80 -74 205q0 164 106 279q107 116 260 116zM426 635q-136 0 -230 -106q-94 -104 -94 -252q0 -110 62 -181q63 -70 173 -70q138 0 232 103q95 104 95 252q0 112 -64 182
q-64 72 -174 72zM336 755l-17 21q36 62 87 62q23 0 61 -23q40 -23 54 -23q18 0 32 11.5t32 37.5q9 -15 15 -21q-34 -60 -82 -60q-22 0 -60 23t-55 23q-35 0 -67 -51z" />
    <glyph glyph-name="Odieresis" unicode="&#xd6;" horiz-adv-x="744" 
d="M428 670q128 0 202 -80q73 -79 73 -208q0 -165 -107 -278q-106 -112 -258 -112q-128 0 -202 78q-74 80 -74 205q0 164 106 279q107 116 260 116zM426 635q-136 0 -230 -106q-94 -104 -94 -252q0 -110 62 -181q63 -70 173 -70q138 0 232 103q95 104 95 252q0 112 -64 182
q-64 72 -174 72zM382 813q24 0 22 -23q0 -13 -8.5 -21.5t-20.5 -8.5q-25 0 -25 23q1 12 10.5 21t21.5 9zM537 813q24 0 22 -23q0 -13 -8.5 -21.5t-21.5 -8.5q-24 0 -24 23q1 12 10.5 21t21.5 9z" />
    <glyph glyph-name="multiply" unicode="&#xd7;" 
d="M369 144l-100 119l-137 -121l-18 22l136 121l-101 120l24 22l102 -120l133 119l19 -23l-134 -118l101 -119z" />
    <glyph glyph-name="Oslash" unicode="&#xd8;" horiz-adv-x="761" 
d="M134 0h-36l52 60q-88 79 -88 217q0 160 110 276t264 116q116 0 189 -64l48 55h37l-65 -73q75 -80 75 -206q0 -163 -110 -276t-264 -113q-104 0 -174 51q-4 -5 -38 -43zM435 635q-137 0 -234 -106q-98 -106 -98 -250q0 -119 73 -189l423 485q-65 60 -164 60zM346 25
q136 0 234 104q99 105 99 251q0 105 -61 175l-421 -484q61 -46 149 -46z" />
    <glyph glyph-name="Ugrave" unicode="&#xd9;" horiz-adv-x="663" 
d="M558 248l58 412h37l-59 -416q-18 -120 -89 -186.5t-194 -66.5q-116 0 -171.5 69t-38.5 190l57 410h37l-58 -410q-15 -102 31 -163t148 -61q106 0 166.5 58t75.5 164zM346 859l118 -123l-30 -2l-131 111z" />
    <glyph glyph-name="Uacute" unicode="&#xda;" horiz-adv-x="663" 
d="M558 248l58 412h37l-59 -416q-18 -120 -89 -186.5t-194 -66.5q-116 0 -171.5 69t-38.5 190l57 410h37l-58 -410q-15 -102 31 -163t148 -61q106 0 166.5 58t75.5 164zM545 840l-157 -107l-33 2l149 119z" />
    <glyph glyph-name="Ucircumflex" unicode="&#xdb;" horiz-adv-x="663" 
d="M558 248l58 412h37l-59 -416q-18 -120 -89 -186.5t-194 -66.5q-116 0 -171.5 69t-38.5 190l57 410h37l-58 -410q-15 -102 31 -163t148 -61q106 0 166.5 58t75.5 164zM551 729h-45l-81 82l-113 -82h-45l155 120h13z" />
    <glyph glyph-name="Udieresis" unicode="&#xdc;" horiz-adv-x="663" 
d="M558 248l58 412h37l-59 -416q-18 -120 -89 -186.5t-194 -66.5q-116 0 -171.5 69t-38.5 190l57 410h37l-58 -410q-15 -102 31 -163t148 -61q106 0 166.5 58t75.5 164zM344 812q10 0 16 -6.5t5 -16.5q0 -12 -8.5 -20.5t-19.5 -8.5q-24 0 -24 23q1 11 10 20t21 9zM494 812
q10 0 16 -6.5t5 -16.5q0 -12 -8.5 -20.5t-20.5 -8.5q-23 0 -23 23q1 11 10 20t21 9z" />
    <glyph glyph-name="Yacute" unicode="&#xdd;" horiz-adv-x="531" 
d="M295 283l-40 -283h-37l39 283l-190 377h40l171 -340h2l256 340h42zM469 836l-157 -107l-33 2l149 119z" />
    <glyph glyph-name="Thorn" unicode="&#xde;" horiz-adv-x="546" 
d="M107 152l-21 -152h-38l93 660h38l-16 -108h183q87 0 136.5 -47.5t49.5 -125.5q0 -54 -26 -106q-26 -53 -85 -87t-135 -34h-179zM334 518h-176l-46 -332h177q86 0 145 52q60 52 60 140q0 62 -41 101t-119 39z" />
    <glyph glyph-name="germandbls" unicode="&#xdf;" horiz-adv-x="545" 
d="M164 -1l-2 33q32 -9 75 -9q92 0 157 62q66 61 66 165q0 65 -40 104t-108 44l4 33q39 3 67.5 20.5t42.5 41.5t20 45t6 38q0 54 -35 86t-92 32q-60 0 -103 -31q-71 -52 -85 -156l-71 -507h-37l71 507q14 95 73 156q62 62 155 62q74 0 118 -39.5t44 -105.5
q0 -50 -28.5 -95.5t-80.5 -65.5v-4q54 -14 84.5 -58.5t30.5 -107.5q0 -113 -73 -185t-187 -72q-45 0 -72 7z" />
    <glyph glyph-name="agrave" unicode="&#xe0;" 
d="M431 340l3 -3l26 106h25l-62 -443h-28l7 101l-2 1q-68 -111 -188 -111q-84 0 -128 51t-44 135q0 121 66 197q68 77 171 77q117 0 154 -111zM275 421q-90 0 -144 -70q-53 -71 -53 -167q0 -77 35.5 -120t105.5 -43q87 0 144 68q57 69 57 170q0 73 -38.5 117.5t-106.5 44.5z
M228 683l98 -145l-28 -1l-107 135z" />
    <glyph glyph-name="aacute" unicode="&#xe1;" 
d="M431 340l3 -3l26 106h25l-62 -443h-28l7 101l-2 1q-68 -111 -188 -111q-84 0 -128 51t-44 135q0 121 66 197q68 77 171 77q117 0 154 -111zM275 421q-90 0 -144 -70q-53 -71 -53 -167q0 -77 35.5 -120t105.5 -43q87 0 144 68q57 69 57 170q0 73 -38.5 117.5t-106.5 44.5z
M414 662l-143 -128l-30 2l137 139z" />
    <glyph glyph-name="acircumflex" unicode="&#xe2;" 
d="M431 340l3 -3l26 106h25l-62 -443h-28l7 101l-2 1q-68 -111 -188 -111q-84 0 -128 51t-44 135q0 121 66 197q68 77 171 77q117 0 154 -111zM275 421q-90 0 -144 -70q-53 -71 -53 -167q0 -77 35.5 -120t105.5 -43q87 0 144 68q57 69 57 170q0 73 -38.5 117.5t-106.5 44.5z
M433 533h-40l-84 95l-116 -95h-42l156 135h12z" />
    <glyph glyph-name="atilde" unicode="&#xe3;" 
d="M431 340l3 -3l26 106h25l-62 -443h-28l7 101l-2 1q-68 -111 -188 -111q-84 0 -128 51t-44 135q0 121 66 197q68 77 171 77q117 0 154 -111zM275 421q-90 0 -144 -70q-53 -71 -53 -167q0 -77 35.5 -120t105.5 -43q87 0 144 68q57 69 57 170q0 73 -38.5 117.5t-106.5 44.5z
M173 548l-17 21q36 62 87 62q23 0 61 -23q40 -23 54 -23q18 0 32 11.5t32 37.5q9 -15 15 -21q-35 -60 -82 -60q-22 0 -60 23t-55 23q-36 0 -67 -51z" />
    <glyph glyph-name="adieresis" unicode="&#xe4;" 
d="M431 340l3 -3l26 106h25l-62 -443h-28l7 101l-2 1q-68 -111 -188 -111q-84 0 -128 51t-44 135q0 121 66 197q68 77 171 77q117 0 154 -111zM275 421q-90 0 -144 -70q-53 -71 -53 -167q0 -77 35.5 -120t105.5 -43q87 0 144 68q57 69 57 170q0 73 -38.5 117.5t-106.5 44.5z
M225 611q22 0 22 -23q0 -13 -8.5 -22t-20.5 -9q-11 0 -18 6.5t-6 16.5q0 12 9.5 21.5t21.5 9.5zM379 611q23 0 23 -23q0 -13 -8.5 -22t-21.5 -9q-11 0 -17.5 6t-5.5 16q0 13 9.5 22.5t20.5 9.5z" />
    <glyph glyph-name="aring" unicode="&#xe5;" 
d="M431 340l3 -3l26 106h25l-62 -443h-28l7 101l-2 1q-68 -111 -188 -111q-84 0 -128 51t-44 135q0 121 66 197q68 77 171 77q117 0 154 -111zM275 421q-90 0 -144 -70q-53 -71 -53 -167q0 -77 35.5 -120t105.5 -43q87 0 144 68q57 69 57 170q0 73 -38.5 117.5t-106.5 44.5z
M315 689q32 0 51 -19.5t19 -49.5q0 -37 -27 -64t-65 -27q-32 0 -50 17.5t-18 47.5q0 39 26.5 67t63.5 28zM312 666q-26 0 -44.5 -20t-18.5 -47q0 -21 12.5 -34t34.5 -13q27 0 45.5 19.5t18.5 45.5q0 21 -13.5 35t-34.5 14z" />
    <glyph glyph-name="ae" unicode="&#xe6;" horiz-adv-x="774" 
d="M715 81l-7 -40q-79 -50 -168 -50q-74 0 -119 36.5t-56 104.5q-61 -141 -221 -141q-66 0 -101 29.5t-35 76.5q0 78 56 114q23 16 61 25q57 14 138 14h98l6 41q1 3 1 27q0 49 -31 76t-91 27q-73 0 -150 -43q3 11 5 35q71 40 151 40q72 0 111 -34t39 -88q33 57 84.5 89
t113.5 32q65 0 103 -33.5t38 -85.5q0 -60 -64.5 -99t-187.5 -39q-48 0 -91 5q0 -4 -0.5 -10t-1 -9t-0.5 -5q0 -71 38 -112.5t108 -41.5q97 0 173 59zM156 22q73 0 132 53q58 54 69 146h-113q-198 0 -198 -119q0 -38 30 -59t80 -21zM599 418q-75 0 -129 -51.5t-69 -134.5
q45 -7 92 -7q102 0 155.5 30t53.5 77q0 38 -27 62t-76 24z" />
    <glyph glyph-name="ccedilla" unicode="&#xe7;" horiz-adv-x="421" 
d="M163 -85l-9 7l41 72q-74 10 -114 62t-40 132q0 118 73 192q74 75 182 75q63 0 108 -20l-6 -36q-38 24 -102 24q-92 0 -157 -66q-63 -65 -63 -171q0 -74 44 -118t121 -44q76 0 129 32l-5 -36q-55 -29 -134 -29h-11l-30 -46q2 0 9 0.5t9 0.5q40 0 62 -17.5t22 -45.5
q0 -38 -34 -65t-83 -27q-37 0 -75 15q0 2 4 29q56 -26 106 -11t46 53q0 20 -16.5 31.5t-41.5 11.5q-20 0 -35 -5z" />
    <glyph glyph-name="egrave" unicode="&#xe8;" horiz-adv-x="456" 
d="M397 81q-5 -35 -7 -40q-79 -50 -168 -50q-88 0 -135 49.5t-47 137.5q0 114 68 194q69 80 174 80q66 0 104 -33.5t38 -85.5q0 -60 -65 -99t-188 -39q-46 0 -91 5l-2 -24q0 -71 38 -112.5t108 -41.5q99 0 173 59zM281 418q-75 0 -128.5 -51.5t-68.5 -134.5q43 -7 92 -7
q101 0 154.5 30t53.5 77q0 38 -27 62t-76 24zM243 683l98 -145l-28 -1l-107 135z" />
    <glyph glyph-name="eacute" unicode="&#xe9;" horiz-adv-x="456" 
d="M397 81q-5 -35 -7 -40q-79 -50 -168 -50q-88 0 -135 49.5t-47 137.5q0 114 68 194q69 80 174 80q66 0 104 -33.5t38 -85.5q0 -60 -65 -99t-188 -39q-46 0 -91 5l-2 -24q0 -71 38 -112.5t108 -41.5q99 0 173 59zM281 418q-75 0 -128.5 -51.5t-68.5 -134.5q43 -7 92 -7
q101 0 154.5 30t53.5 77q0 38 -27 62t-76 24zM432 662l-143 -128l-30 2l137 139z" />
    <glyph glyph-name="ecircumflex" unicode="&#xea;" horiz-adv-x="456" 
d="M397 81q-5 -35 -7 -40q-79 -50 -168 -50q-88 0 -135 49.5t-47 137.5q0 114 68 194q69 80 174 80q66 0 104 -33.5t38 -85.5q0 -60 -65 -99t-188 -39q-46 0 -91 5l-2 -24q0 -71 38 -112.5t108 -41.5q99 0 173 59zM281 418q-75 0 -128.5 -51.5t-68.5 -134.5q43 -7 92 -7
q101 0 154.5 30t53.5 77q0 38 -27 62t-76 24zM445 533h-40l-84 95l-116 -95h-42l156 135h12z" />
    <glyph glyph-name="edieresis" unicode="&#xeb;" horiz-adv-x="456" 
d="M397 81q-5 -35 -7 -40q-79 -50 -168 -50q-88 0 -135 49.5t-47 137.5q0 114 68 194q69 80 174 80q66 0 104 -33.5t38 -85.5q0 -60 -65 -99t-188 -39q-46 0 -91 5l-2 -24q0 -71 38 -112.5t108 -41.5q99 0 173 59zM281 418q-75 0 -128.5 -51.5t-68.5 -134.5q43 -7 92 -7
q101 0 154.5 30t53.5 77q0 38 -27 62t-76 24zM233 611q22 0 22 -23q0 -13 -8.5 -22t-20.5 -9q-11 0 -18 6.5t-6 16.5q0 12 9.5 21.5t21.5 9.5zM387 611q23 0 23 -23q0 -13 -8.5 -22t-21.5 -9q-11 0 -17.5 6t-5.5 16q0 13 9.5 22.5t20.5 9.5z" />
    <glyph glyph-name="igrave" unicode="&#xec;" horiz-adv-x="204" 
d="M147 444l-62 -444h-37l62 444h37zM62 683l98 -145l-28 -1l-107 135z" />
    <glyph glyph-name="iacute" unicode="&#xed;" horiz-adv-x="204" 
d="M147 444l-62 -444h-37l62 444h37zM292 662l-143 -128l-30 2l137 139z" />
    <glyph glyph-name="icircumflex" unicode="&#xee;" horiz-adv-x="204" 
d="M279 533h-40l-84 95l-116 -95h-42l156 135h12zM147 444l-62 -444h-37l62 444h37z" />
    <glyph glyph-name="idieresis" unicode="&#xef;" horiz-adv-x="204" 
d="M71 611q22 0 22 -23q0 -13 -8.5 -22t-20.5 -9q-11 0 -18 6.5t-6 16.5q0 12 9.5 21.5t21.5 9.5zM225 611q23 0 23 -23q0 -13 -8.5 -22t-21.5 -9q-11 0 -17.5 6t-5.5 16q0 13 9.5 22.5t20.5 9.5zM148 444l-62 -444h-37l62 444h37z" />
    <glyph glyph-name="eth" unicode="&#xf0;" horiz-adv-x="531" 
d="M286 411q-92 0 -150 -67q-59 -68 -59 -162q0 -73 41 -116.5t114 -43.5q90 0 149 68q58 68 58 159q0 72 -41.5 117t-111.5 45zM454 323h4q7 137 -86 256l-100 -64l4 33q9 5 23.5 14.5t31.5 21t23 15.5q-51 58 -118 97l32 19q69 -42 116 -97l100 64l-6 -35l-76 -50
q89 -119 89 -268q0 -125 -61 -226q-31 -52 -83.5 -82t-119.5 -30q-89 0 -138.5 50t-49.5 135q0 112 73 189q74 78 178 78q64 0 107.5 -31.5t56.5 -88.5z" />
    <glyph glyph-name="ntilde" unicode="&#xf1;" horiz-adv-x="512" 
d="M121 345h3q34 52 82.5 80t98.5 28q67 0 104.5 -35.5t37.5 -103.5q0 -18 -3 -38l-39 -276h-37l38 269q2 16 2 35q0 115 -110 115q-67 0 -122 -55q-56 -56 -69 -144l-32 -220h-37l62 443h29q-7 -70 -8 -98zM170 547l-17 21q36 62 87 62q23 0 61 -23q40 -23 54 -23
q18 0 32 11.5t32 37.5q9 -15 15 -21q-34 -60 -82 -60q-22 0 -60 23t-55 23q-35 0 -67 -51z" />
    <glyph glyph-name="ograve" unicode="&#xf2;" horiz-adv-x="518" 
d="M287 453q86 0 134.5 -53t48.5 -141q0 -111 -68 -191q-68 -78 -175 -78q-88 0 -137 52t-49 140q0 113 68 192q67 79 178 79zM286 420q-90 0 -149 -69q-57 -67 -57 -167q0 -74 38.5 -118t109.5 -44q90 0 148 69q58 68 58 166q0 72 -40 117.5t-108 45.5zM249 683l98 -145
l-28 -1l-107 135z" />
    <glyph glyph-name="oacute" unicode="&#xf3;" horiz-adv-x="518" 
d="M287 453q86 0 134.5 -53t48.5 -141q0 -111 -68 -191q-68 -78 -175 -78q-88 0 -137 52t-49 140q0 113 68 192q67 79 178 79zM286 420q-90 0 -149 -69q-57 -67 -57 -167q0 -74 38.5 -118t109.5 -44q90 0 148 69q58 68 58 166q0 72 -40 117.5t-108 45.5zM448 662l-143 -128
l-30 2l137 139z" />
    <glyph glyph-name="ocircumflex" unicode="&#xf4;" horiz-adv-x="518" 
d="M459 533h-40l-84 95l-116 -95h-42l156 135h12zM287 453q86 0 134.5 -53t48.5 -141q0 -111 -68 -191q-68 -78 -175 -78q-88 0 -137 52t-49 140q0 113 68 192q67 79 178 79zM286 420q-90 0 -149 -69q-57 -67 -57 -167q0 -74 38.5 -118t109.5 -44q90 0 148 69q58 68 58 166
q0 72 -40 117.5t-108 45.5z" />
    <glyph glyph-name="otilde" unicode="&#xf5;" horiz-adv-x="518" 
d="M287 453q86 0 134.5 -53t48.5 -141q0 -111 -68 -191q-68 -78 -175 -78q-88 0 -137 52t-49 140q0 113 68 192q67 79 178 79zM286 420q-90 0 -149 -69q-57 -67 -57 -167q0 -74 38.5 -118t109.5 -44q90 0 148 69q58 68 58 166q0 72 -40 117.5t-108 45.5zM191 547l-17 21
q36 62 87 62q23 0 61 -23q40 -23 54 -23q18 0 32 11.5t32 37.5q9 -15 15 -21q-35 -60 -82 -60q-22 0 -60 23t-55 23q-36 0 -67 -51z" />
    <glyph glyph-name="odieresis" unicode="&#xf6;" horiz-adv-x="518" 
d="M287 453q86 0 134.5 -53t48.5 -141q0 -111 -68 -191q-68 -78 -175 -78q-88 0 -137 52t-49 140q0 113 68 192q67 79 178 79zM286 420q-90 0 -149 -69q-57 -67 -57 -167q0 -74 38.5 -118t109.5 -44q90 0 148 69q58 68 58 166q0 72 -40 117.5t-108 45.5zM243 611
q22 0 22 -23q0 -13 -8.5 -22t-20.5 -9q-11 0 -18 6.5t-6 16.5q0 12 9.5 21.5t21.5 9.5zM397 611q23 0 23 -23q0 -13 -8.5 -22t-21.5 -9q-11 0 -17.5 6t-5.5 16q0 13 9.5 22.5t20.5 9.5z" />
    <glyph glyph-name="divide" unicode="&#xf7;" 
d="M456 306l-4 -32h-366q1 7 2 13.5t2 11.5t1 7h365zM260 419q0 14 10.5 24t24.5 10q12 0 19 -7.5t7 -18.5q0 -14 -10.5 -25t-23.5 -11q-27 0 -27 28zM222 151q0 14 10.5 24t24.5 10q12 0 19.5 -7.5t7.5 -19.5q0 -13 -11 -23.5t-24 -10.5q-12 0 -19.5 7.5t-7.5 19.5z" />
    <glyph glyph-name="oslash" unicode="&#xf8;" horiz-adv-x="518" 
d="M287 453q79 0 129 -48l36 38h35l-54 -57q37 -49 37 -127q0 -111 -68 -191q-68 -78 -175 -78q-79 0 -128 42l-30 -32h-36l49 52q-41 49 -41 130q0 113 68 192q67 79 178 79zM286 420q-90 0 -149 -69q-57 -67 -57 -167q0 -61 29 -105l281 300q-39 41 -104 41zM434 257
q0 60 -28 101l-281 -299q37 -37 103 -37q90 0 148 69q58 68 58 166z" />
    <glyph glyph-name="ugrave" unicode="&#xf9;" horiz-adv-x="503" 
d="M373 99h-3q-62 -108 -172 -108q-67 0 -103.5 35.5t-36.5 101.5q0 18 3 39l39 276h37l-38 -269q-3 -21 -3 -38q0 -112 109 -112q66 0 117 55q50 55 64 145l33 219h37l-62 -443h-29q7 68 8 99zM223 683l98 -145l-28 -1l-107 135z" />
    <glyph glyph-name="uacute" unicode="&#xfa;" horiz-adv-x="503" 
d="M373 99h-3q-62 -108 -172 -108q-67 0 -103.5 35.5t-36.5 101.5q0 18 3 39l39 276h37l-38 -269q-3 -21 -3 -38q0 -112 109 -112q66 0 117 55q50 55 64 145l33 219h37l-62 -443h-29q7 68 8 99zM412 662l-143 -128l-30 2l137 139z" />
    <glyph glyph-name="ucircumflex" unicode="&#xfb;" horiz-adv-x="503" 
d="M373 99h-3q-62 -108 -172 -108q-67 0 -103.5 35.5t-36.5 101.5q0 18 3 39l39 276h37l-38 -269q-3 -21 -3 -38q0 -112 109 -112q66 0 117 55q50 55 64 145l33 219h37l-62 -443h-29q7 68 8 99zM426 533h-40l-84 95l-116 -95h-42l156 135h12z" />
    <glyph glyph-name="udieresis" unicode="&#xfc;" horiz-adv-x="503" 
d="M373 99h-3q-62 -108 -172 -108q-67 0 -103.5 35.5t-36.5 101.5q0 18 3 39l39 276h37l-38 -269q-3 -21 -3 -38q0 -112 109 -112q66 0 117 55q50 55 64 145l33 219h37l-62 -443h-29q7 68 8 99zM224 611q22 0 22 -23q0 -13 -8.5 -22t-20.5 -9q-11 0 -18 6.5t-6 16.5
q0 12 9.5 21.5t21.5 9.5zM378 611q23 0 23 -23q0 -13 -8.5 -22t-21.5 -9q-11 0 -17.5 6t-5.5 16q0 13 9.5 22.5t20.5 9.5z" />
    <glyph glyph-name="yacute" unicode="&#xfd;" horiz-adv-x="411" 
d="M62 -215h-38l124 224l-118 434h39l101 -391h3l215 391h39zM369 661l-143 -128l-30 2l137 139z" />
    <glyph glyph-name="thorn" unicode="&#xfe;" horiz-adv-x="529" 
d="M77 101l-3 -2l-42 -309h-34l127 920h35l-53 -370l2 -2q29 53 80 83t114 30q85 0 132 -54q46 -52 46 -132q0 -119 -69 -197q-68 -77 -169 -77q-61 0 -105.5 29.5t-60.5 80.5zM238 22q93 0 149 68t56 167q0 76 -39 120t-110 44q-88 0 -146 -69q-58 -67 -58 -169
q0 -73 39 -117t109 -44z" />
    <glyph glyph-name="ydieresis" unicode="&#xff;" horiz-adv-x="411" 
d="M62 -215h-38l124 224l-118 434h39l101 -391h3l215 391h39zM183 604q22 0 22 -23q0 -13 -8.5 -22t-20.5 -9q-11 0 -18 6.5t-6 16.5q0 12 9.5 21.5t21.5 9.5zM337 604q23 0 23 -23q0 -13 -8.5 -22t-21.5 -9q-11 0 -17.5 6t-5.5 16q0 13 9.5 22.5t20.5 9.5z" />
    <glyph glyph-name="Amacron" unicode="&#x100;" horiz-adv-x="591" 
d="M541 0h-38l-44 165h-348l-90 -165h-41l369 664h9zM343 586l-213 -388h319q-72 274 -106 388zM503 771h-268l5 35h268z" />
    <glyph glyph-name="amacron" unicode="&#x101;" 
d="M431 340l3 -3l26 106h25l-62 -443h-28l7 101l-2 1q-68 -111 -188 -111q-84 0 -128 51t-44 135q0 121 66 197q68 77 171 77q117 0 154 -111zM275 421q-90 0 -144 -70q-53 -71 -53 -167q0 -77 35.5 -120t105.5 -43q87 0 144 68q57 69 57 170q0 73 -38.5 117.5t-106.5 44.5z
M441 562h-260l5 32h259z" />
    <glyph glyph-name="Abreve" unicode="&#x102;" horiz-adv-x="591" 
d="M541 0h-38l-44 165h-348l-90 -165h-41l369 664h9zM343 586l-213 -388h319q-72 274 -106 388zM476 850h30q-10 -51 -49 -86.5t-94 -35.5q-54 0 -82.5 35.5t-23.5 86.5h31q-4 -40 16.5 -67t61.5 -27q85 0 110 94z" />
    <glyph glyph-name="abreve" unicode="&#x103;" 
d="M431 340l3 -3l26 106h25l-62 -443h-28l7 101l-2 1q-68 -111 -188 -111q-84 0 -128 51t-44 135q0 121 66 197q68 77 171 77q117 0 154 -111zM275 421q-90 0 -144 -70q-53 -71 -53 -167q0 -77 35.5 -120t105.5 -43q87 0 144 68q57 69 57 170q0 73 -38.5 117.5t-106.5 44.5z
M419 670l31 -1q-11 -50 -48 -89q-38 -39 -95 -39q-54 0 -81 37t-23 91l31 1q-4 -42 16 -72t60 -30q43 0 70.5 28.5t38.5 73.5z" />
    <glyph glyph-name="Aogonek" unicode="&#x104;" horiz-adv-x="591" 
d="M551 -156l-7 -31q-47 -26 -102 -26q-77 0 -77 58q0 43 37 87t98 77l-41 156h-348l-90 -165h-41l369 664h9l183 -664h-26q-53 -31 -83.5 -72t-30.5 -73q0 -41 52 -41q48 0 98 30zM343 586l-213 -388h319q-72 274 -106 388z" />
    <glyph glyph-name="aogonek" unicode="&#x105;" 
d="M440 -156l-7 -31q-47 -26 -102 -26q-77 0 -77 58q0 44 39 89t103 79l6 88l-2 1q-68 -111 -188 -111q-84 0 -128 51t-44 135q0 121 66 197q68 77 171 77q117 0 154 -111l3 -3l26 106h25l-62 -443h-19q-53 -31 -83.5 -72t-30.5 -73q0 -41 52 -41q49 0 98 30zM275 421
q-90 0 -144 -70q-53 -71 -53 -167q0 -77 35.5 -120t105.5 -43q87 0 144 68q57 69 57 170q0 73 -38.5 117.5t-106.5 44.5z" />
    <glyph glyph-name="Cacute" unicode="&#x106;" horiz-adv-x="599" 
d="M546 75l-5 -38q-84 -46 -195 -46q-140 0 -213 76t-73 201q0 178 112 290q113 113 270 113q101 0 159 -31l-2 -38q-64 35 -158 35q-139 0 -241 -102q-101 -103 -101 -263q0 -115 67 -180.5t189 -65.5q100 0 191 49zM553 840l-157 -107l-33 2l149 119z" />
    <glyph glyph-name="cacute" unicode="&#x107;" horiz-adv-x="421" 
d="M370 56l-5 -36q-55 -29 -134 -29q-93 0 -142 55q-48 56 -48 142q0 118 73 192q74 75 182 75q63 0 108 -20l-6 -36q-38 24 -102 24q-92 0 -157 -66q-63 -65 -63 -171q0 -74 44 -118t121 -44q76 0 129 32zM401 662l-143 -128l-30 2l137 139z" />
    <glyph glyph-name="Ccircumflex" unicode="&#x108;" horiz-adv-x="599" 
d="M573 729h-45l-81 82l-113 -82h-45l155 120h13zM546 75l-5 -38q-84 -46 -195 -46q-140 0 -213 76t-73 201q0 178 112 290q113 113 270 113q101 0 159 -31l-2 -38q-64 35 -158 35q-139 0 -241 -102q-101 -103 -101 -263q0 -115 67 -180.5t189 -65.5q100 0 191 49z" />
    <glyph glyph-name="ccircumflex" unicode="&#x109;" horiz-adv-x="421" 
d="M425 533h-40l-84 95l-116 -95h-42l156 135h12zM370 56l-5 -36q-55 -29 -134 -29q-93 0 -142 55q-48 56 -48 142q0 118 73 192q74 75 182 75q63 0 108 -20l-6 -36q-38 24 -102 24q-92 0 -157 -66q-63 -65 -63 -171q0 -74 44 -118t121 -44q76 0 129 32z" />
    <glyph glyph-name="Cdotaccent" unicode="&#x10a;" horiz-adv-x="599" 
d="M546 75l-5 -38q-84 -46 -195 -46q-140 0 -213 76t-73 201q0 178 112 290q113 113 270 113q101 0 159 -31l-2 -38q-64 35 -158 35q-139 0 -241 -102q-101 -103 -101 -263q0 -115 67 -180.5t189 -65.5q100 0 191 49zM424 788q0 12 10 22t23 10q10 0 16 -6.5t6 -15.5
q0 -15 -8.5 -24.5t-21.5 -9.5q-25 0 -25 24z" />
    <glyph glyph-name="cdotaccent" unicode="&#x10b;" horiz-adv-x="421" 
d="M370 56l-5 -36q-55 -29 -134 -29q-93 0 -142 55q-48 56 -48 142q0 118 73 192q74 75 182 75q63 0 108 -20l-6 -36q-38 24 -102 24q-92 0 -157 -66q-63 -65 -63 -171q0 -74 44 -118t121 -44q76 0 129 32zM268 582q0 12 10 22t23 10q10 0 16 -6.5t6 -15.5q0 -15 -8.5 -24.5
t-21.5 -9.5q-25 0 -25 24z" />
    <glyph glyph-name="Ccaron" unicode="&#x10c;" horiz-adv-x="599" 
d="M345 848l89 -84l112 84h41l-150 -120h-13l-120 120h41zM546 75l-5 -38q-84 -46 -195 -46q-140 0 -213 76t-73 201q0 178 112 290q113 113 270 113q101 0 159 -31l-2 -38q-64 35 -158 35q-139 0 -241 -102q-101 -103 -101 -263q0 -115 67 -180.5t189 -65.5q100 0 191 49z
" />
    <glyph glyph-name="ccaron" unicode="&#x10d;" horiz-adv-x="421" 
d="M204 668l86 -96l110 96h43l-151 -135h-12l-118 135h42zM370 56l-5 -36q-55 -29 -134 -29q-93 0 -142 55q-48 56 -48 142q0 118 73 192q74 75 182 75q63 0 108 -20l-6 -36q-38 24 -102 24q-92 0 -157 -66q-63 -65 -63 -171q0 -74 44 -118t121 -44q76 0 129 32z" />
    <glyph glyph-name="Dcaron" unicode="&#x10e;" horiz-adv-x="661" 
d="M254 0h-206l93 660h197q137 0 210 -71t73 -201q0 -172 -102 -280q-100 -108 -265 -108zM329 626h-156l-83 -591h162q152 0 240 100q89 101 89 256q0 111 -64.5 173t-187.5 62zM287 849l89 -84l112 84h41l-150 -120h-13l-120 120h41z" />
    <glyph glyph-name="dcaron" unicode="&#x10f;" horiz-adv-x="578" 
d="M532 710l-99 -710h-28l5 90l-1 1l-1 1q-67 -100 -190 -100q-85 0 -132 53q-46 53 -46 133q0 118 68 197q69 78 170 78q59 0 102 -26.5t62 -72.5h1q1 1 2 1l51 355h36zM283 421q-93 0 -149 -68t-56 -168q0 -74 38.5 -118.5t109.5 -44.5q88 0 147 68q58 68 58 170
q0 73 -39 117t-109 44zM587 542l-21 3l53 125q-16 3 -16 24q1 13 11.5 23t22.5 10q11 0 18.5 -7t7.5 -18q-1 -34 -76 -160z" />
    <glyph glyph-name="Dcroat" unicode="&#x110;" horiz-adv-x="673" 
d="M265 0h-205l45 328h-73q0 4 1 10.5t2.5 14t1.5 9.5h73l42 298h197q137 0 210 -71t73 -201q0 -172 -102 -280q-101 -108 -265 -108zM344 626h-159q-9 -57 -37 -264h216q-3 -12 -5 -34h-216l-41 -293h165q152 0 240 100q89 101 89 256q0 111 -64.5 173t-187.5 62z" />
    <glyph glyph-name="dslash" unicode="&#x111;" horiz-adv-x="542" 
d="M511 563l-78 -563h-28l5 90l-1 1l-1 1q-67 -100 -190 -100q-85 0 -132 53q-46 53 -46 133q0 118 68 197q69 78 170 78q59 0 102 -26.5t62 -72.5h1q1 1 2 1q7 55 30 208h-177l4 29h177l9 64l8 54h36l-17 -118h94l-4 -29h-94zM283 421q-93 0 -149 -68t-56 -168
q0 -74 38.5 -118.5t109.5 -44.5q88 0 147 68q58 68 58 170q0 73 -39 117t-109 44z" />
    <glyph glyph-name="Emacron" unicode="&#x112;" horiz-adv-x="541" 
d="M538 660l-5 -34h-359l-36 -258h337l-4 -34h-338l-42 -299h392l-5 -35h-430l93 660h397zM501 774h-268l5 35h268z" />
    <glyph glyph-name="emacron" unicode="&#x113;" horiz-adv-x="456" 
d="M397 81q-5 -35 -7 -40q-79 -50 -168 -50q-88 0 -135 49.5t-47 137.5q0 114 68 194q69 80 174 80q66 0 104 -33.5t38 -85.5q0 -60 -65 -99t-188 -39q-46 0 -91 5l-2 -24q0 -71 38 -112.5t108 -41.5q99 0 173 59zM281 418q-75 0 -128.5 -51.5t-68.5 -134.5q43 -7 92 -7
q101 0 154.5 30t53.5 77q0 38 -27 62t-76 24zM437 562h-260l5 32h259z" />
    <glyph glyph-name="Ebreve" unicode="&#x114;" horiz-adv-x="541" 
d="M538 660l-5 -34h-359l-36 -258h337l-4 -34h-338l-42 -299h392l-5 -35h-430l93 660h397zM462 850h30q-10 -51 -49 -86.5t-94 -35.5q-54 0 -82.5 35.5t-23.5 86.5h31q-4 -40 16.5 -67t61.5 -27q85 0 110 94z" />
    <glyph glyph-name="ebreve" unicode="&#x115;" horiz-adv-x="456" 
d="M397 81q-5 -35 -7 -40q-79 -50 -168 -50q-88 0 -135 49.5t-47 137.5q0 114 68 194q69 80 174 80q66 0 104 -33.5t38 -85.5q0 -60 -65 -99t-188 -39q-46 0 -91 5l-2 -24q0 -71 38 -112.5t108 -41.5q99 0 173 59zM281 418q-75 0 -128.5 -51.5t-68.5 -134.5q43 -7 92 -7
q101 0 154.5 30t53.5 77q0 38 -27 62t-76 24zM412 670l31 -1q-11 -50 -48 -89t-95 -39q-54 0 -81 37t-23 91l31 1q-4 -42 16 -72t60 -30q43 0 70.5 28.5t38.5 73.5z" />
    <glyph glyph-name="Edotaccent" unicode="&#x116;" horiz-adv-x="541" 
d="M538 660l-5 -34h-359l-36 -258h337l-4 -34h-338l-42 -299h392l-5 -35h-430l93 660h397zM335 782q0 12 10 22t23 10q10 0 16 -6.5t6 -15.5q0 -15 -8.5 -24.5t-21.5 -9.5q-25 0 -25 24z" />
    <glyph glyph-name="edotaccent" unicode="&#x117;" horiz-adv-x="456" 
d="M397 81q-5 -35 -7 -40q-79 -50 -168 -50q-88 0 -135 49.5t-47 137.5q0 114 68 194q69 80 174 80q66 0 104 -33.5t38 -85.5q0 -60 -65 -99t-188 -39q-46 0 -91 5l-2 -24q0 -71 38 -112.5t108 -41.5q99 0 173 59zM281 418q-75 0 -128.5 -51.5t-68.5 -134.5q43 -7 92 -7
q101 0 154.5 30t53.5 77q0 38 -27 62t-76 24zM278 582q0 12 10 22t23 10q10 0 16 -6.5t6 -15.5q0 -15 -8.5 -24.5t-21.5 -9.5q-25 0 -25 24z" />
    <glyph glyph-name="Eogonek" unicode="&#x118;" horiz-adv-x="541" 
d="M425 -153l-7 -31q-47 -26 -102 -26q-77 0 -77 58q0 39 30.5 79t83.5 73h-305l93 660h397l-5 -34h-359l-36 -258h337l-4 -34h-338l-42 -299h392l-5 -35h-93q-52 -31 -81 -71t-29 -71q0 -41 52 -41q49 0 98 30z" />
    <glyph glyph-name="eogonek" unicode="&#x119;" horiz-adv-x="456" 
d="M384 -139l-7 -31q-47 -26 -102 -26q-77 0 -77 58q0 71 89 136q-32 -7 -65 -7q-88 0 -135 49.5t-47 137.5q0 114 68 194q69 80 174 80q66 0 104 -33.5t38 -85.5q0 -60 -65 -99t-188 -39q-46 0 -91 5l-2 -24q0 -71 38 -112.5t108 -41.5q99 0 173 59q-5 -35 -7 -40l-34 -20
q-57 -32 -89.5 -74t-32.5 -75q0 -41 52 -41q48 0 98 30zM281 418q-75 0 -128.5 -51.5t-68.5 -134.5q43 -7 92 -7q101 0 154.5 30t53.5 77q0 38 -27 62t-76 24z" />
    <glyph glyph-name="Ecaron" unicode="&#x11a;" horiz-adv-x="541" 
d="M538 660l-5 -34h-359l-36 -258h337l-4 -34h-338l-42 -299h392l-5 -35h-430l93 660h397zM266 847l89 -84l112 84h41l-150 -120h-13l-120 120h41z" />
    <glyph glyph-name="ecaron" unicode="&#x11b;" horiz-adv-x="456" 
d="M397 81q-5 -35 -7 -40q-79 -50 -168 -50q-88 0 -135 49.5t-47 137.5q0 114 68 194q69 80 174 80q66 0 104 -33.5t38 -85.5q0 -60 -65 -99t-188 -39q-46 0 -91 5l-2 -24q0 -71 38 -112.5t108 -41.5q99 0 173 59zM281 418q-75 0 -128.5 -51.5t-68.5 -134.5q43 -7 92 -7
q101 0 154.5 30t53.5 77q0 38 -27 62t-76 24zM220 668l86 -96l110 96h43l-151 -135h-12l-118 135h42z" />
    <glyph glyph-name="Gcircumflex" unicode="&#x11c;" horiz-adv-x="650" 
d="M446 672q104 0 171 -37l-3 -39q-80 41 -172 41q-139 0 -241 -103q-101 -104 -101 -262q0 -113 66 -179.5t187 -66.5q91 0 168 31l37 266h37l-41 -292q-90 -39 -215 -39q-135 0 -207 78t-72 201q0 170 113 286q112 115 273 115zM587 732h-45l-81 82l-113 -82h-45l155 120
h13z" />
    <glyph glyph-name="gcircumflex" unicode="&#x11d;" horiz-adv-x="484" 
d="M129 143l-67 -68l219 -24q60 -8 85.5 -26.5t25.5 -54.5q0 -63 -68 -125t-176 -62q-83 0 -124 31t-41 81q0 41 26.5 81t70.5 65l-19 2q-38 3 -38 26q0 6 2 10l85 78q-40 34 -40 99q0 80 58 137q58 58 141 58q27 0 59 -9h143q-1 -7 -4 -24l-101 -6q54 -38 54 -107
q0 -76 -59 -132q-58 -55 -138 -55q-60 0 -94 25zM227 149q67 0 112 45q46 46 46 109q0 51 -34 84t-86 33q-66 0 -113 -47t-47 -112q0 -51 32.5 -81.5t89.5 -30.5zM293 18l-189 21q-37 -24 -60.5 -62t-23.5 -74q0 -88 132 -88q89 0 145 49q58 48 58 100q0 46 -62 54zM433 533
h-40l-84 95l-116 -95h-42l156 135h12z" />
    <glyph glyph-name="Gbreve" unicode="&#x11e;" horiz-adv-x="650" 
d="M446 672q104 0 171 -37l-3 -39q-80 41 -172 41q-139 0 -241 -103q-101 -104 -101 -262q0 -113 66 -179.5t187 -66.5q91 0 168 31l37 266h37l-41 -292q-90 -39 -215 -39q-135 0 -207 78t-72 201q0 170 113 286q112 115 273 115zM560 850h30q-10 -51 -49 -86.5t-94 -35.5
q-54 0 -82.5 35.5t-23.5 86.5h31q-4 -40 16.5 -67t61.5 -27q85 0 110 94z" />
    <glyph glyph-name="gbreve" unicode="&#x11f;" horiz-adv-x="484" 
d="M129 143l-67 -68l219 -24q60 -8 85.5 -26.5t25.5 -54.5q0 -63 -68 -125t-176 -62q-83 0 -124 31t-41 81q0 41 26.5 81t70.5 65l-19 2q-38 3 -38 26q0 6 2 10l85 78q-40 34 -40 99q0 80 58 137q58 58 141 58q27 0 59 -9h143q-1 -7 -4 -24l-101 -6q54 -38 54 -107
q0 -76 -59 -132q-58 -55 -138 -55q-60 0 -94 25zM227 149q67 0 112 45q46 46 46 109q0 51 -34 84t-86 33q-66 0 -113 -47t-47 -112q0 -51 32.5 -81.5t89.5 -30.5zM293 18l-189 21q-37 -24 -60.5 -62t-23.5 -74q0 -88 132 -88q89 0 145 49q58 48 58 100q0 46 -62 54zM397 670
l31 -1q-11 -50 -48 -89q-38 -39 -95 -39q-54 0 -81 37t-23 91l31 1q-4 -42 16 -72t60 -30q43 0 70.5 28.5t38.5 73.5z" />
    <glyph glyph-name="Gdotaccent" unicode="&#x120;" horiz-adv-x="650" 
d="M446 672q104 0 171 -37l-3 -39q-80 41 -172 41q-139 0 -241 -103q-101 -104 -101 -262q0 -113 66 -179.5t187 -66.5q91 0 168 31l37 266h37l-41 -292q-90 -39 -215 -39q-135 0 -207 78t-72 201q0 170 113 286q112 115 273 115zM427 785q0 12 10 22t23 10q10 0 16 -6.5
t6 -15.5q0 -15 -8.5 -24.5t-21.5 -9.5q-25 0 -25 24z" />
    <glyph glyph-name="gdotaccent" unicode="&#x121;" horiz-adv-x="484" 
d="M129 143l-67 -68l219 -24q60 -8 85.5 -26.5t25.5 -54.5q0 -63 -68 -125t-176 -62q-83 0 -124 31t-41 81q0 41 26.5 81t70.5 65l-19 2q-38 3 -38 26q0 6 2 10l85 78q-40 34 -40 99q0 80 58 137q58 58 141 58q27 0 59 -9h143q-1 -7 -4 -24l-101 -6q54 -38 54 -107
q0 -76 -59 -132q-58 -55 -138 -55q-60 0 -94 25zM227 149q67 0 112 45q46 46 46 109q0 51 -34 84t-86 33q-66 0 -113 -47t-47 -112q0 -51 32.5 -81.5t89.5 -30.5zM293 18l-189 21q-37 -24 -60.5 -62t-23.5 -74q0 -88 132 -88q89 0 145 49q58 48 58 100q0 46 -62 54zM261 582
q0 12 10 22t23 10q10 0 16 -6.5t6 -15.5q0 -15 -8.5 -24.5t-21.5 -9.5q-25 0 -25 24z" />
    <glyph glyph-name="Gcommaaccent" unicode="&#x122;" horiz-adv-x="650" 
d="M446 672q104 0 171 -37l-3 -39q-80 41 -172 41q-139 0 -241 -103q-101 -104 -101 -262q0 -113 66 -179.5t187 -66.5q91 0 168 31l37 266h37l-41 -292q-90 -39 -215 -39q-135 0 -207 78t-72 201q0 170 113 286q112 115 273 115zM278 -234l-21 3l53 125q-16 3 -16 24
q1 13 11.5 23t22.5 10q11 0 18.5 -7t7.5 -18q-1 -34 -76 -160z" />
    <glyph glyph-name="gcommaaccent" unicode="&#x123;" horiz-adv-x="484" 
d="M129 143l-67 -68l219 -24q60 -8 85.5 -26.5t25.5 -54.5q0 -63 -68 -125t-176 -62q-83 0 -124 31t-41 81q0 41 26.5 81t70.5 65l-19 2q-38 3 -38 26q0 6 2 10l85 78q-40 34 -40 99q0 80 58 137q58 58 141 58q27 0 59 -9h143q-1 -7 -4 -24l-101 -6q54 -38 54 -107
q0 -76 -59 -132q-58 -55 -138 -55q-60 0 -94 25zM227 149q67 0 112 45q46 46 46 109q0 51 -34 84t-86 33q-66 0 -113 -47t-47 -112q0 -51 32.5 -81.5t89.5 -30.5zM293 18l-189 21q-37 -24 -60.5 -62t-23.5 -74q0 -88 132 -88q89 0 145 49q58 48 58 100q0 46 -62 54zM362 716
l21 -3l-53 -125q16 -3 16 -24q-1 -13 -11.5 -23t-22.5 -10q-11 0 -18.5 7t-7.5 18q1 34 76 160z" />
    <glyph glyph-name="Hcircumflex" unicode="&#x124;" horiz-adv-x="648" 
d="M620 661l-92 -661h-37l46 334h-404l-47 -334h-37l92 661h38l-41 -292h404l41 292h37zM527 729h-45l-81 82l-113 -82h-45l155 120h13z" />
    <glyph glyph-name="hcircumflex" unicode="&#x125;" horiz-adv-x="504" 
d="M164 710l-53 -365h4q34 52 82.5 80t98.5 28q76 0 112.5 -48.5t25.5 -128.5l-38 -276h-37l37 269q9 67 -17.5 108.5t-89.5 41.5q-68 0 -123 -55q-54 -54 -68 -144l-32 -220h-37l99 710h36zM295 745h-45l-81 82l-113 -82h-45l155 120h13z" />
    <glyph glyph-name="Hbar" unicode="&#x126;" horiz-adv-x="647" 
d="M599 517l-72 -517h-37l47 334h-405l-46 -334h-38l73 517h-51l4 32h51l16 111h38l-17 -111h404l17 111h37l-17 -111h48l-4 -32h-48zM158 517l-21 -149h404l21 149h-404z" />
    <glyph glyph-name="hbar" unicode="&#x127;" horiz-adv-x="504" 
d="M144 574l-33 -229h4q34 52 82.5 80t98.5 28q67 0 104 -36t37 -103q0 -18 -3 -38l-38 -276h-37q5 31 19 136l18 133q3 19 3 37q0 113 -110 113q-75 0 -127 -58t-67 -160l-29 -201h-37l80 574h-53q0 4 4 30h53l15 106h36l-15 -106h203l-4 -30h-204z" />
    <glyph glyph-name="Itilde" unicode="&#x128;" horiz-adv-x="225" 
d="M189 661l-93 -661h-37l92 661h38zM61 749l-17 21q36 62 87 62q23 0 61 -23q40 -23 54 -23q18 0 32 11.5t32 37.5q9 -15 15 -21q-35 -60 -82 -60q-22 0 -60 23t-55 23q-36 0 -67 -51z" />
    <glyph glyph-name="itilde" unicode="&#x129;" horiz-adv-x="204" 
d="M22 548l-17 21q36 62 87 62q23 0 61 -23q40 -23 54 -23q18 0 32 11.5t32 37.5q9 -15 15 -21q-34 -60 -82 -60q-22 0 -60 23t-55 23q-35 0 -67 -51zM147 444l-62 -444h-37l62 444h37z" />
    <glyph glyph-name="Imacron" unicode="&#x12a;" horiz-adv-x="225" 
d="M189 661l-93 -661h-37l92 661h38zM316 769h-268l5 35h268z" />
    <glyph glyph-name="imacron" unicode="&#x12b;" horiz-adv-x="204" 
d="M147 444l-62 -444h-37l62 444h37zM270 562h-260l5 32h259z" />
    <glyph glyph-name="Ibreve" unicode="&#x12c;" horiz-adv-x="225" 
d="M293 851h30q-10 -51 -49 -86.5t-94 -35.5q-54 0 -82.5 35.5t-23.5 86.5h31q-4 -40 16.5 -67t61.5 -27q85 0 110 94zM189 661l-93 -661h-37l92 661h38z" />
    <glyph glyph-name="ibreve" unicode="&#x12d;" horiz-adv-x="204" 
d="M151 444l-62 -444h-37l62 444h37zM259 672l31 -1q-11 -50 -48 -89q-38 -39 -95 -39q-54 0 -81 37t-23 91l31 1q-4 -42 16 -72t60 -30q43 0 70.5 28.5t38.5 73.5z" />
    <glyph glyph-name="Iogonek" unicode="&#x12e;" horiz-adv-x="225" 
d="M122 -149l-7 -31q-47 -26 -102 -26q-77 0 -77 58q0 41 33.5 82.5t90.5 75.5l91 651h38l-93 -661h-20q-49 -32 -76.5 -70.5t-27.5 -67.5q0 -41 52 -41q49 0 98 30z" />
    <glyph glyph-name="iogonek" unicode="&#x12f;" horiz-adv-x="203" 
d="M109 -149l-7 -31q-47 -26 -102 -26q-77 0 -77 58q0 41 34 83t91 76l61 433h37l-62 -444h-21q-49 -32 -76.5 -70.5t-27.5 -67.5q0 -41 52 -41q49 0 98 30zM153 610q23 0 23 -24q0 -13 -9 -22.5t-22 -9.5q-25 0 -25 23q0 13 10 23t23 10z" />
    <glyph glyph-name="Idot" unicode="&#x130;" horiz-adv-x="225" 
d="M189 661l-93 -661h-37l92 661h38zM160 785q0 12 10 22t23 10q10 0 16 -6.5t6 -15.5q0 -15 -8.5 -24.5t-21.5 -9.5q-25 0 -25 24z" />
    <glyph glyph-name="dotlessi" unicode="&#x131;" horiz-adv-x="204" 
d="M147 444l-62 -444h-37l62 444h37z" />
    <glyph glyph-name="IJ" unicode="&#x132;" horiz-adv-x="622" 
d="M170 23l6 40q24 -16 60.5 -26.5t65.5 -10.5q94 0 136 51q41 50 55 138l4 26l59 419h38q-17 -111 -58 -413q-16 -111 -57 -177q-50 -79 -176 -79q-83 0 -133 32zM183 661l-93 -661h-37l92 661h38z" />
    <glyph glyph-name="ij" unicode="&#x133;" horiz-adv-x="373" 
d="M330 610q10 0 17 -7t7 -17q0 -13 -9.5 -23t-22.5 -10q-10 0 -17 6.5t-7 17.5q0 13 9.5 23t22.5 10zM219 -39l68 482h37l-69 -483q-13 -87 -51.5 -128.5t-113.5 -49.5l-16 35q67 2 101 37t44 107zM153 610q23 0 23 -24q0 -13 -9 -22.5t-22 -9.5q-25 0 -25 23q0 13 10 23
t23 10zM146 444l-62 -444h-37l62 444h37z" />
    <glyph glyph-name="Jcircumflex" unicode="&#x134;" horiz-adv-x="428" 
d="M-22 24l6 40q24 -16 60.5 -26.5t65.5 -10.5q94 0 136 51q41 50 55 138l4 26l59 419h38q-17 -111 -58 -413q-16 -111 -57 -177q-50 -79 -176 -79q-83 0 -133 32zM534 730h-45l-81 82l-113 -82h-45l155 120h13z" />
    <glyph glyph-name="jcircumflex" unicode="&#x135;" horiz-adv-x="186" 
d="M33 -39l68 482h36l-69 -483q-23 -170 -164 -178l-12 32q120 4 141 147zM271 533h-40l-84 95l-116 -95h-42l156 135h12z" />
    <glyph glyph-name="Kcommaaccent" unicode="&#x136;" horiz-adv-x="548" 
d="M134 347l386 313h47l-387 -316l323 -344h-54l-316 339l-47 -339h-38l93 660h38zM195 -215l-21 3l53 125q-16 3 -16 24q1 13 11.5 23t22.5 10q11 0 18.5 -7t7.5 -18q-1 -34 -76 -160z" />
    <glyph glyph-name="kcommaaccent" unicode="&#x137;" horiz-adv-x="434" 
d="M96 228l-31 -228h-36l99 710h36l-66 -472l282 205h53l-295 -211l256 -232h-51zM135 -226l-21 3l53 125q-16 3 -16 24q1 13 11.5 23t22.5 10q11 0 18.5 -7t7.5 -18q-1 -34 -76 -160z" />
    <glyph glyph-name="kgreenlandic" unicode="&#x138;" horiz-adv-x="440" 
d="M102 228l-31 -228h-36l62 443h36l-29 -205l287 205h49l-292 -209l253 -234h-56z" />
    <glyph glyph-name="Lacute" unicode="&#x139;" horiz-adv-x="498" 
d="M90 35h367l-5 -35h-404l93 660h38zM325 840l-157 -107l-33 2l149 119z" />
    <glyph glyph-name="lacute" unicode="&#x13a;" horiz-adv-x="183" 
d="M175 711l-99 -711h-37l99 711h37zM315 868l-157 -107l-33 2l149 119z" />
    <glyph glyph-name="Lcommaaccent" unicode="&#x13b;" horiz-adv-x="498" 
d="M90 35h367l-5 -35h-404l93 660h38zM202 -229l-21 3l53 125q-16 3 -16 24q1 13 11.5 23t22.5 10q11 0 18.5 -7t7.5 -18q-1 -34 -76 -160z" />
    <glyph glyph-name="lcommaaccent" unicode="&#x13c;" horiz-adv-x="183" 
d="M175 711l-99 -711h-37l99 711h37zM2 -229l-21 3l53 125q-16 3 -16 24q1 13 11.5 23t22.5 10q11 0 18.5 -7t7.5 -18q-1 -34 -76 -160z" />
    <glyph glyph-name="Lcaron" unicode="&#x13d;" horiz-adv-x="498" 
d="M90 35h367l-5 -35h-404l93 660h38zM361 485l-21 3l53 125q-16 3 -16 24q1 13 11.5 23t22.5 10q11 0 18.5 -7t7.5 -18q-1 -34 -76 -160z" />
    <glyph glyph-name="lcaron" unicode="&#x13e;" horiz-adv-x="211" 
d="M175 711l-99 -711h-37l99 711h37zM220 529l-21 3l53 125q-16 3 -16 24q1 13 11.5 23t22.5 10q11 0 18.5 -7t7.5 -18q-1 -34 -76 -160z" />
    <glyph glyph-name="Ldot" unicode="&#x13f;" horiz-adv-x="498" 
d="M90 35h367l-5 -35h-404l93 660h38zM315 311q0 12 10 22t23 10q10 0 16 -6.5t6 -15.5q0 -15 -8.5 -24.5t-21.5 -9.5q-25 0 -25 24z" />
    <glyph glyph-name="ldot" unicode="&#x140;" horiz-adv-x="214" 
d="M175 711l-99 -711h-37l99 711h37zM183 333q0 12 10 22t23 10q10 0 16 -6.5t6 -15.5q0 -15 -8.5 -24.5t-21.5 -9.5q-25 0 -25 24z" />
    <glyph glyph-name="Lslash" unicode="&#x141;" horiz-adv-x="498" 
d="M90 35h367l-4 -35h-404l35 249l-89 -46l4 31q63 35 89 48l54 378h37l-51 -355l184 97l-5 -34l-183 -96z" />
    <glyph glyph-name="lslash" unicode="&#x142;" horiz-adv-x="185" 
d="M118 303l-42 -303h-37l39 281l-96 -50l4 34l97 50l55 396h37l-52 -374l103 54l-4 -34z" />
    <glyph glyph-name="Nacute" unicode="&#x143;" horiz-adv-x="695" 
d="M550 81l82 579h36l-94 -665h-9l-397 588h-2l-81 -583h-37l94 667h10l395 -586h3zM560 837l-157 -107l-33 2l149 119z" />
    <glyph glyph-name="nacute" unicode="&#x144;" horiz-adv-x="512" 
d="M121 345h3q34 52 82.5 80t98.5 28q67 0 104.5 -35.5t37.5 -103.5q0 -18 -3 -38l-39 -276h-37l38 269q2 16 2 35q0 115 -110 115q-67 0 -122 -55q-56 -56 -69 -144l-32 -220h-37l62 443h29q-7 -70 -8 -98zM401 662l-143 -128l-30 2l137 139z" />
    <glyph glyph-name="Ncommaaccent" unicode="&#x145;" horiz-adv-x="695" 
d="M550 81l82 579h36l-94 -665h-9l-397 588h-2l-81 -583h-37l94 667h10l395 -586h3zM252 -216l-21 3l53 125q-16 3 -16 24q1 13 11.5 23t22.5 10q11 0 18.5 -7t7.5 -18q-1 -34 -76 -160z" />
    <glyph glyph-name="ncommaaccent" unicode="&#x146;" horiz-adv-x="512" 
d="M121 345h3q34 52 82.5 80t98.5 28q67 0 104.5 -35.5t37.5 -103.5q0 -18 -3 -38l-39 -276h-37l38 269q2 16 2 35q0 115 -110 115q-67 0 -122 -55q-56 -56 -69 -144l-32 -220h-37l62 443h29q-7 -70 -8 -98zM166 -224l-21 3l53 125q-16 3 -16 24q1 13 11.5 23t22.5 10
q11 0 18.5 -7t7.5 -18q-1 -34 -76 -160z" />
    <glyph glyph-name="Ncaron" unicode="&#x147;" horiz-adv-x="695" 
d="M550 81l82 579h36l-94 -665h-9l-397 588h-2l-81 -583h-37l94 667h10l395 -586h3zM345 848l89 -84l112 84h41l-150 -120h-13l-120 120h41z" />
    <glyph glyph-name="ncaron" unicode="&#x148;" horiz-adv-x="512" 
d="M121 345h3q34 52 82.5 80t98.5 28q67 0 104.5 -35.5t37.5 -103.5q0 -18 -3 -38l-39 -276h-37l38 269q2 16 2 35q0 115 -110 115q-67 0 -122 -55q-56 -56 -69 -144l-32 -220h-37l62 443h29q-7 -70 -8 -98zM201 668l86 -96l110 96h43l-151 -135h-12l-118 135h42z" />
    <glyph glyph-name="napostrophe" unicode="&#x149;" horiz-adv-x="512" 
d="M121 345h3q34 52 82.5 80t98.5 28q67 0 104.5 -35.5t37.5 -103.5q0 -18 -3 -38l-39 -276h-37l38 269q2 16 2 35q0 115 -110 115q-67 0 -122 -55q-56 -56 -69 -144l-32 -220h-37l62 443h29q-7 -70 -8 -98zM49 479l-21 3l53 125q-16 3 -16 24q1 13 11.5 23t22.5 10
q11 0 18.5 -7t7.5 -18q-1 -34 -76 -160z" />
    <glyph glyph-name="Eng" unicode="&#x14a;" horiz-adv-x="695" 
d="M550 79l82 581h36l-100 -703q-10 -74 -52 -122t-110 -54l-11 31q121 4 140 146l8 60l-375 566h-2l-81 -584h-37l94 669h14l391 -590h3z" />
    <glyph glyph-name="eng" unicode="&#x14b;" horiz-adv-x="515" 
d="M130 443l-7 -90q1 0 1 -0.5t1 -0.5q69 101 180 101q67 0 104.5 -35.5t37.5 -103.5q0 -18 -3 -38l-45 -319q-24 -169 -162 -176q-5 10 -12 31q63 2 95 38t42 108l44 311q2 30 2 32q0 57 -29 87.5t-81 30.5q-67 0 -123 -47q-55 -46 -67 -133q-11 -72 -17 -120l-16 -119h-37
l62 443h30z" />
    <glyph glyph-name="Omacron" unicode="&#x14c;" horiz-adv-x="744" 
d="M428 670q128 0 202 -80q73 -79 73 -208q0 -165 -107 -278q-106 -112 -258 -112q-128 0 -202 78q-74 80 -74 205q0 164 106 279q107 116 260 116zM426 635q-136 0 -230 -106q-94 -104 -94 -252q0 -110 62 -181q63 -70 173 -70q138 0 232 103q95 104 95 252q0 112 -64 182
q-64 72 -174 72zM587 775h-268l5 35h268z" />
    <glyph glyph-name="omacron" unicode="&#x14d;" horiz-adv-x="518" 
d="M287 453q86 0 134.5 -53t48.5 -141q0 -111 -68 -191q-68 -78 -175 -78q-88 0 -137 52t-49 140q0 113 68 192q67 79 178 79zM286 420q-90 0 -149 -69q-57 -67 -57 -167q0 -74 38.5 -118t109.5 -44q90 0 148 69q58 68 58 166q0 72 -40 117.5t-108 45.5zM443 562h-260l5 32
h259z" />
    <glyph glyph-name="Obreve" unicode="&#x14e;" horiz-adv-x="744" 
d="M428 670q128 0 202 -80q73 -79 73 -208q0 -165 -107 -278q-106 -112 -258 -112q-128 0 -202 78q-74 80 -74 205q0 164 106 279q107 116 260 116zM426 635q-136 0 -230 -106q-94 -104 -94 -252q0 -110 62 -181q63 -70 173 -70q138 0 232 103q95 104 95 252q0 112 -64 182
q-64 72 -174 72zM563 850h30q-10 -51 -49 -86.5t-94 -35.5q-54 0 -82.5 35.5t-23.5 86.5h31q-4 -40 16.5 -67t61.5 -27q85 0 110 94z" />
    <glyph glyph-name="obreve" unicode="&#x14f;" horiz-adv-x="518" 
d="M287 453q86 0 134.5 -53t48.5 -141q0 -111 -68 -191q-68 -78 -175 -78q-88 0 -137 52t-49 140q0 113 68 192q67 79 178 79zM286 420q-90 0 -149 -69q-57 -67 -57 -167q0 -74 38.5 -118t109.5 -44q90 0 148 69q58 68 58 166q0 72 -40 117.5t-108 45.5zM424 670l31 -1
q-11 -50 -48 -89q-38 -39 -95 -39q-54 0 -81 37t-23 91l31 1q-4 -42 16 -72t60 -30q43 0 70.5 28.5t38.5 73.5z" />
    <glyph glyph-name="Ohungarumlaut" unicode="&#x150;" horiz-adv-x="744" 
d="M428 670q128 0 202 -80q73 -79 73 -208q0 -165 -107 -278q-106 -112 -258 -112q-128 0 -202 78q-74 80 -74 205q0 164 106 279q107 116 260 116zM426 635q-136 0 -230 -106q-94 -104 -94 -252q0 -110 62 -181q63 -70 173 -70q138 0 232 103q95 104 95 252q0 112 -64 182
q-64 72 -174 72zM555 845l-161 -112l-32 2l153 124zM678 845l-161 -112l-32 2l152 124z" />
    <glyph glyph-name="ohungarumlaut" unicode="&#x151;" horiz-adv-x="518" 
d="M287 453q86 0 134.5 -53t48.5 -141q0 -111 -68 -191q-68 -78 -175 -78q-88 0 -137 52t-49 140q0 113 68 192q67 79 178 79zM286 420q-90 0 -149 -69q-57 -67 -57 -167q0 -74 38.5 -118t109.5 -44q90 0 148 69q58 68 58 166q0 72 -40 117.5t-108 45.5zM397 663l-148 -129
l-29 2l138 141zM499 663l-148 -129l-29 2l139 141z" />
    <glyph glyph-name="OE" unicode="&#x152;" horiz-adv-x="903" 
d="M467 35h376l-4 -35h-405q-40 -9 -86 -9q-137 0 -212 75t-75 206q0 172 111 287t272 115q52 0 95 -13h364l-5 -35h-348l-36 -257h324l-5 -35h-324zM353 25q33 0 77 9l83 595q-33 9 -74 9q-145 0 -242 -105q-97 -104 -97 -258q0 -115 67 -182q68 -68 186 -68z" />
    <glyph glyph-name="oe" unicode="&#x153;" horiz-adv-x="846" 
d="M787 81l-7 -40q-79 -50 -168 -50q-141 0 -174 138q-30 -64 -85.5 -101t-126.5 -37q-88 0 -137 51.5t-49 139.5q0 113 68 192q69 79 179 79q73 0 117.5 -38.5t56.5 -106.5q28 66 84.5 105t126.5 39q64 0 102.5 -34.5t38.5 -84.5q0 -60 -64.5 -99t-187.5 -39q-46 0 -91 5
q-2 -12 -2 -24q0 -72 38.5 -112.5t110.5 -40.5q97 0 170 58zM286 420q-90 0 -149 -69q-57 -67 -57 -167q0 -75 38.5 -119t108.5 -44q89 0 148 69q58 70 58 166q0 73 -39.5 118.5t-107.5 45.5zM671 418q-78 0 -130 -52q-53 -53 -68 -134q45 -7 92 -7q102 0 155.5 30t53.5 77
q0 38 -27 62t-76 24z" />
    <glyph glyph-name="Racute" unicode="&#x154;" horiz-adv-x="559" 
d="M299 258l209 -258h-48l-216 274q0 7 1 9q128 2 197 63q69 62 69 142q0 63 -44 100.5t-119 37.5h-175l-87 -626h-38l92 660h217q86 0 139 -46t53 -123q0 -89 -70 -156q-68 -66 -180 -77zM457 840l-157 -107l-33 2l149 119z" />
    <glyph glyph-name="racute" unicode="&#x155;" horiz-adv-x="308" 
d="M75 0h-37l62 443h25l-10 -131q0 -1 2 -1q24 72 69.5 107t102.5 35q26 0 41 -4q0 -31 -1 -40q-22 5 -47 5q-71 0 -117 -58.5t-64 -166.5q-5 -41 -26 -189zM298 662l-143 -128l-30 2l137 139z" />
    <glyph glyph-name="Rcommaaccent" unicode="&#x156;" horiz-adv-x="559" 
d="M299 258l209 -258h-48l-216 274q0 7 1 9q128 2 197 63q69 62 69 142q0 63 -44 100.5t-119 37.5h-175l-87 -626h-38l92 660h217q86 0 139 -46t53 -123q0 -89 -70 -156q-68 -66 -180 -77zM188 -213l-21 3l53 125q-16 3 -16 24q1 13 11.5 23t22.5 10q11 0 18.5 -7t7.5 -18
q-1 -34 -76 -160z" />
    <glyph glyph-name="rcommaaccent" unicode="&#x157;" horiz-adv-x="308" 
d="M75 0h-37l62 443h25l-10 -131q0 -1 2 -1q24 72 69.5 107t102.5 35q26 0 41 -4q0 -31 -1 -40q-22 5 -47 5q-71 0 -117 -58.5t-64 -166.5q-5 -41 -26 -189zM-4 -228l-21 3l53 125q-16 3 -16 24q1 13 11.5 23t22.5 10q11 0 18.5 -7t7.5 -18q-1 -34 -76 -160z" />
    <glyph glyph-name="Rcaron" unicode="&#x158;" horiz-adv-x="559" 
d="M299 258l209 -258h-48l-216 274q0 7 1 9q128 2 197 63q69 62 69 142q0 63 -44 100.5t-119 37.5h-175l-87 -626h-38l92 660h217q86 0 139 -46t53 -123q0 -89 -70 -156q-68 -66 -180 -77zM251 848l89 -84l112 84h41l-150 -120h-13l-120 120h41z" />
    <glyph glyph-name="rcaron" unicode="&#x159;" horiz-adv-x="308" 
d="M75 0h-37l62 443h25l-10 -131q0 -1 2 -1q24 72 69.5 107t102.5 35q26 0 41 -4q0 -31 -1 -40q-22 5 -47 5q-71 0 -117 -58.5t-64 -166.5q-5 -41 -26 -189zM96 668l86 -96l110 96h43l-151 -135h-12l-118 135h42z" />
    <glyph glyph-name="Sacute" unicode="&#x15a;" horiz-adv-x="478" 
d="M294 673q104 0 165 -39l-6 -40q-65 44 -153 44q-67 0 -119 -33q-53 -33 -53 -101q0 -65 106 -117q35 -16 54 -25.5t50.5 -30t48 -39t30 -46.5t12.5 -59q0 -95 -69 -147q-68 -51 -173 -51q-111 0 -185 51l5 42q76 -58 181 -58q86 0 144 41q57 42 57 115q0 87 -106 143
q-9 5 -43 22t-47 24t-38.5 24.5t-36.5 31t-20.5 34t-9.5 42.5q0 77 60 124q62 48 146 48zM432 840l-157 -107l-33 2l149 119z" />
    <glyph glyph-name="sacute" unicode="&#x15b;" horiz-adv-x="365" 
d="M-4 31l2 38q58 -47 142 -47q58 0 95.5 24.5t37.5 73.5q0 52 -76 87q-80 37 -103 57q-37 30 -37 69q0 63 45 91q47 29 107 29q67 0 124 -30l-5 -37q-58 36 -119 36q-50 0 -82 -21t-32 -64q0 -30 33.5 -54.5t74.5 -40.5t74.5 -46.5t33.5 -70.5q0 -66 -50 -101
q-49 -33 -122 -33q-87 0 -143 40zM337 662l-143 -128l-30 2l137 139z" />
    <glyph glyph-name="Scircumflex" unicode="&#x15c;" horiz-adv-x="478" 
d="M294 673q104 0 165 -39l-6 -40q-65 44 -153 44q-67 0 -119 -33q-53 -33 -53 -101q0 -65 106 -117q35 -16 54 -25.5t50.5 -30t48 -39t30 -46.5t12.5 -59q0 -95 -69 -147q-68 -51 -173 -51q-111 0 -185 51l5 42q76 -58 181 -58q86 0 144 41q57 42 57 115q0 87 -106 143
q-9 5 -43 22t-47 24t-38.5 24.5t-36.5 31t-20.5 34t-9.5 42.5q0 77 60 124q62 48 146 48zM446 729h-45l-81 82l-113 -82h-45l155 120h13z" />
    <glyph glyph-name="scircumflex" unicode="&#x15d;" horiz-adv-x="365" 
d="M-4 31l2 38q58 -47 142 -47q58 0 95.5 24.5t37.5 73.5q0 52 -76 87q-80 37 -103 57q-37 30 -37 69q0 63 45 91q47 29 107 29q67 0 124 -30l-5 -37q-58 36 -119 36q-50 0 -82 -21t-32 -64q0 -30 33.5 -54.5t74.5 -40.5t74.5 -46.5t33.5 -70.5q0 -66 -50 -101
q-49 -33 -122 -33q-87 0 -143 40zM366 533h-40l-84 95l-116 -95h-42l156 135h12z" />
    <glyph glyph-name="Scedilla" unicode="&#x15e;" horiz-adv-x="475" 
d="M147 -90l-9 7l42 72q-111 2 -178 51l5 42q76 -58 181 -58q86 0 144 41q57 42 57 115q0 87 -106 143q-9 5 -43 22t-47 24t-38.5 24.5t-36.5 31t-20.5 34t-9.5 42.5q0 77 60 124q62 48 146 48q104 0 165 -39l-6 -40q-65 44 -153 44q-67 0 -119 -33q-53 -33 -53 -101
q0 -65 106 -117q35 -16 54 -25.5t50.5 -30t48 -39t30 -46.5t12.5 -59q0 -90 -63 -141q-62 -51 -160 -56l-32 -50q2 0 9 0.5t9 0.5q40 0 62 -17.5t22 -45.5q0 -38 -34 -65t-83 -27q-37 0 -75 15q0 2 4 29q56 -26 106 -11t46 53q0 20 -16.5 31.5t-41.5 11.5q-20 0 -35 -5z" />
    <glyph glyph-name="scedilla" unicode="&#x15f;" horiz-adv-x="362" 
d="M76 -85l-9 7l41 71q-71 8 -112 38l2 38q58 -47 142 -47q58 0 95.5 24.5t37.5 73.5q0 52 -76 87q-80 37 -103 57q-37 30 -37 69q0 63 45 91q47 29 107 29q67 0 124 -30l-5 -37q-58 36 -119 36q-50 0 -82 -21t-32 -64q0 -30 33.5 -54.5t74.5 -40.5t74.5 -46.5t33.5 -70.5
q0 -66 -50 -101q-49 -33 -122 -33h-6l-30 -46q2 0 9 0.5t9 0.5q40 0 62 -17.5t22 -45.5q0 -38 -34 -65t-83 -27q-38 0 -75 15q0 2 4 29q56 -26 106 -11t46 53q0 20 -16.5 31.5t-41.5 11.5q-20 0 -35 -5z" />
    <glyph glyph-name="Scaron" unicode="&#x160;" horiz-adv-x="478" 
d="M294 673q104 0 165 -39l-6 -40q-65 44 -153 44q-67 0 -119 -33q-53 -33 -53 -101q0 -65 106 -117q35 -16 54 -25.5t50.5 -30t48 -39t30 -46.5t12.5 -59q0 -95 -69 -147q-68 -51 -173 -51q-111 0 -185 51l5 42q76 -58 181 -58q86 0 144 41q57 42 57 115q0 87 -106 143
q-9 5 -43 22t-47 24t-38.5 24.5t-36.5 31t-20.5 34t-9.5 42.5q0 77 60 124q62 48 146 48zM223 848l89 -84l112 84h41l-150 -120h-13l-120 120h41z" />
    <glyph glyph-name="scaron" unicode="&#x161;" horiz-adv-x="365" 
d="M-4 31l2 38q58 -47 142 -47q58 0 95.5 24.5t37.5 73.5q0 52 -76 87q-80 37 -103 57q-37 30 -37 69q0 63 45 91q47 29 107 29q67 0 124 -30l-5 -37q-58 36 -119 36q-50 0 -82 -21t-32 -64q0 -30 33.5 -54.5t74.5 -40.5t74.5 -46.5t33.5 -70.5q0 -66 -50 -101
q-49 -33 -122 -33q-87 0 -143 40zM141 668l86 -96l110 96h43l-151 -135h-12l-118 135h42z" />
    <glyph glyph-name="Tcommaaccent" unicode="&#x162;" horiz-adv-x="513" 
d="M174 -85l-9 7l45 78h-2l87 626h-228l5 34h494l-6 -34h-226l-88 -626h-9l-36 -55q2 0 9 0.5t9 0.5q40 0 62 -17.5t22 -45.5q0 -38 -34 -65t-83 -27q-38 0 -75 15q0 2 4 29q56 -26 106 -11t46 53q0 20 -16.5 31.5t-41.5 11.5q-20 0 -35 -5z" />
    <glyph glyph-name="tcommaaccent" unicode="&#x163;" horiz-adv-x="314" 
d="M67 -73l-9 7l48 83q-22 22 -22 71q0 18 3 41l40 283h-81l4 25q1 0 5 0.5t12.5 1t17.5 0.5l47 4l39 133h17l-19 -133h150l-4 -31h-151l-40 -283q0 -4 -1 -16t-1 -15q0 -71 72 -71q46 0 93 32l-6 -37q-43 -29 -96 -29q-35 0 -60 11l-31 -47q2 0 9 0.5t9 0.5q40 0 62 -17.5
t22 -45.5q0 -38 -34 -65t-83 -27q-37 0 -75 15q0 2 4 29q56 -26 106 -11t46 53q0 20 -16.5 31.5t-41.5 11.5q-20 0 -35 -5z" />
    <glyph glyph-name="Tcaron" unicode="&#x164;" horiz-adv-x="524" 
d="M247 848l89 -84l112 84h41l-150 -120h-13l-120 120h41zM334 626l-88 -626h-38l87 626h-228l5 34h494l-6 -34h-226z" />
    <glyph glyph-name="tcaron" unicode="&#x165;" horiz-adv-x="317" 
d="M169 443h150l-4 -31h-151l-40 -283q0 -4 -1 -16t-1 -15q0 -71 72 -71q46 0 93 32l-6 -37q-43 -29 -96 -29q-101 0 -101 95q0 18 3 41l40 283h-81l4 25q1 0 5 0.5t12.5 1t17.5 0.5l47 4l39 133h17zM293 521l-21 3l53 125q-16 3 -16 24q1 13 11.5 23t22.5 10q11 0 18.5 -7
t7.5 -18q-1 -34 -76 -160z" />
    <glyph glyph-name="Tbar" unicode="&#x166;" horiz-adv-x="524" 
d="M295 348l-49 -348h-38l49 348h-170l4 33h170l34 245h-228l6 34h493l-6 -34h-226q-22 -150 -34 -245h168q0 -4 -2.5 -17.5t-2.5 -15.5h-168z" />
    <glyph glyph-name="tbar" unicode="&#x167;" horiz-adv-x="330" 
d="M169 443h150q-1 -6 -5 -31h-150l-16 -116h136l-4 -30h-136l-21 -154q-8 -36 12 -60.5t59 -24.5q46 0 91 30l-4 -35q-44 -29 -96 -29q-63 0 -86 32.5t-13 98.5l21 142h-75l4 30h75l16 116h-81l6 25l79 6l41 132h16z" />
    <glyph glyph-name="Utilde" unicode="&#x168;" horiz-adv-x="663" 
d="M558 248l58 412h37l-59 -416q-18 -120 -89 -186.5t-194 -66.5q-116 0 -171.5 69t-38.5 190l57 410h37l-58 -410q-15 -102 31 -163t148 -61q106 0 166.5 58t75.5 164zM296 746l-17 21q36 62 87 62q23 0 61 -23q40 -23 54 -23q18 0 32 11.5t32 37.5q9 -15 15 -21
q-34 -60 -82 -60q-22 0 -60 23t-55 23q-35 0 -67 -51z" />
    <glyph glyph-name="utilde" unicode="&#x169;" horiz-adv-x="503" 
d="M373 99h-3q-62 -108 -172 -108q-67 0 -103.5 35.5t-36.5 101.5q0 18 3 39l39 276h37l-38 -269q-3 -21 -3 -38q0 -112 109 -112q66 0 117 55q50 55 64 145l33 219h37l-62 -443h-29q7 68 8 99zM183 547l-17 21q36 62 87 62q23 0 61 -23q40 -23 54 -23q18 0 32 11.5t32 37.5
q9 -15 15 -21q-35 -60 -82 -60q-22 0 -60 23t-55 23q-36 0 -67 -51z" />
    <glyph glyph-name="Umacron" unicode="&#x16a;" horiz-adv-x="663" 
d="M558 248l58 412h37l-59 -416q-18 -120 -89 -186.5t-194 -66.5q-116 0 -171.5 69t-38.5 190l57 410h37l-58 -410q-15 -102 31 -163t148 -61q106 0 166.5 58t75.5 164zM554 770h-268l5 35h268z" />
    <glyph glyph-name="umacron" unicode="&#x16b;" horiz-adv-x="503" 
d="M373 99h-3q-62 -108 -172 -108q-67 0 -103.5 35.5t-36.5 101.5q0 18 3 39l39 276h37l-38 -269q-3 -21 -3 -38q0 -112 109 -112q66 0 117 55q50 55 64 145l33 219h37l-62 -443h-29q7 68 8 99zM424 562h-260l5 32h259z" />
    <glyph glyph-name="Ubreve" unicode="&#x16c;" horiz-adv-x="663" 
d="M558 248l58 412h37l-59 -416q-18 -120 -89 -186.5t-194 -66.5q-116 0 -171.5 69t-38.5 190l57 410h37l-58 -410q-15 -102 31 -163t148 -61q106 0 166.5 58t75.5 164zM520 842h30q-10 -51 -49 -86.5t-94 -35.5q-54 0 -82.5 35.5t-23.5 86.5h31q-4 -40 16.5 -67t61.5 -27
q85 0 110 94z" />
    <glyph glyph-name="ubreve" unicode="&#x16d;" horiz-adv-x="503" 
d="M373 99h-3q-62 -108 -172 -108q-67 0 -103.5 35.5t-36.5 101.5q0 18 3 39l39 276h37l-38 -269q-3 -21 -3 -38q0 -112 109 -112q66 0 117 55q50 55 64 145l33 219h37l-62 -443h-29q7 68 8 99zM399 664l31 -1q-11 -50 -48 -89q-38 -39 -95 -39q-54 0 -81 37t-23 91l31 1
q-4 -42 16 -72t60 -30q43 0 70.5 28.5t38.5 73.5z" />
    <glyph glyph-name="Uring" unicode="&#x16e;" horiz-adv-x="663" 
d="M558 248l58 412h37l-59 -416q-18 -120 -89 -186.5t-194 -66.5q-116 0 -171.5 69t-38.5 190l57 410h37l-58 -410q-15 -102 31 -163t148 -61q106 0 166.5 58t75.5 164zM430 879q32 0 51 -19.5t19 -49.5q0 -37 -27 -64t-65 -27q-32 0 -50 17.5t-18 47.5q0 39 26.5 67
t63.5 28zM427 856q-26 0 -44.5 -20t-18.5 -47q0 -21 12.5 -34t34.5 -13q27 0 45.5 19.5t18.5 45.5q0 21 -13.5 35t-34.5 14z" />
    <glyph glyph-name="uring" unicode="&#x16f;" horiz-adv-x="503" 
d="M373 99h-3q-62 -108 -172 -108q-67 0 -103.5 35.5t-36.5 101.5q0 18 3 39l39 276h37l-38 -269q-3 -21 -3 -38q0 -112 109 -112q66 0 117 55q50 55 64 145l33 219h37l-62 -443h-29q7 68 8 99zM307 682q32 0 51 -19.5t19 -49.5q0 -37 -27 -64t-65 -27q-32 0 -50 17.5
t-18 47.5q0 39 26.5 67t63.5 28zM304 659q-26 0 -44.5 -20t-18.5 -47q0 -21 12.5 -34t34.5 -13q27 0 45.5 19.5t18.5 45.5q0 21 -13.5 35t-34.5 14z" />
    <glyph glyph-name="Uhungarumlaut" unicode="&#x170;" horiz-adv-x="663" 
d="M558 248l58 412h37l-59 -416q-18 -120 -89 -186.5t-194 -66.5q-116 0 -171.5 69t-38.5 190l57 410h37l-58 -410q-15 -102 31 -163t148 -61q106 0 166.5 58t75.5 164zM496 845l-161 -112l-32 2l153 124zM619 845l-161 -112l-32 2l152 124z" />
    <glyph glyph-name="uhungarumlaut" unicode="&#x171;" horiz-adv-x="503" 
d="M373 99h-3q-62 -108 -172 -108q-67 0 -103.5 35.5t-36.5 101.5q0 18 3 39l39 276h37l-38 -269q-3 -21 -3 -38q0 -112 109 -112q66 0 117 55q50 55 64 145l33 219h37l-62 -443h-29q7 68 8 99zM374 663l-148 -129l-29 2l138 141zM476 663l-148 -129l-29 2l139 141z" />
    <glyph glyph-name="Uogonek" unicode="&#x172;" horiz-adv-x="663" 
d="M381 -158l-7 -31q-47 -26 -102 -26q-77 0 -77 58q0 77 107 148q-111 3 -164.5 72.5t-36.5 186.5l57 410h37l-58 -410q-15 -102 31 -163t148 -61q106 0 166.5 58t75.5 164l58 412h37l-59 -416q-16 -114 -81.5 -180t-176.5 -72q-49 -31 -77 -70t-28 -69q0 -41 52 -41
q49 0 98 30z" />
    <glyph glyph-name="uogonek" unicode="&#x173;" horiz-adv-x="503" 
d="M417 -149l-7 -31q-47 -26 -102 -26q-77 0 -77 58q0 43 37 87t98 77l7 83h-3q-62 -108 -172 -108q-67 0 -103.5 35.5t-36.5 101.5q0 18 3 39l39 276h37l-38 -269q-3 -21 -3 -38q0 -112 109 -112q66 0 117 55q50 55 64 145l33 219h37l-62 -443h-23q-49 -32 -76.5 -70.5
t-27.5 -67.5q0 -41 52 -41q49 0 98 30z" />
    <glyph glyph-name="Wcircumflex" unicode="&#x174;" horiz-adv-x="873" 
d="M600 87l281 572h38l-330 -664h-7l-101 571h-3l-262 -571h-9l-141 664h37l119 -571h3l263 575h8l101 -576h3zM639 729h-45l-81 82l-113 -82h-45l155 120h13z" />
    <glyph glyph-name="wcircumflex" unicode="&#x175;" horiz-adv-x="682" 
d="M144 -4l-110 447h38l88 -372h2l199 374h7l96 -373h2l192 371h36l-237 -447h-7l-96 372h-2l-200 -372h-8zM515 533h-40l-84 95l-116 -95h-42l156 135h12z" />
    <glyph glyph-name="Ycircumflex" unicode="&#x176;" horiz-adv-x="531" 
d="M295 283l-40 -283h-37l39 283l-190 377h40l171 -340h2l256 340h42zM465 729h-45l-81 82l-113 -82h-45l155 120h13z" />
    <glyph glyph-name="ycircumflex" unicode="&#x177;" horiz-adv-x="411" 
d="M62 -215h-38l124 224l-118 434h39l101 -391h3l215 391h39zM386 533h-40l-84 95l-116 -95h-42l156 135h12z" />
    <glyph glyph-name="Ydieresis" unicode="&#x178;" horiz-adv-x="531" 
d="M295 283l-40 -283h-37l39 283l-190 377h40l171 -340h2l256 340h42zM420 800q24 0 22 -23q0 -13 -8.5 -21.5t-21.5 -8.5q-24 0 -24 23q1 12 10.5 21t21.5 9zM265 800q24 0 22 -23q0 -13 -8.5 -21.5t-20.5 -8.5q-25 0 -25 23q1 12 10.5 21t21.5 9z" />
    <glyph glyph-name="Zacute" unicode="&#x179;" horiz-adv-x="494" 
d="M49 34h394l-5 -34h-453q0 1 1 4v2l476 620h-352l5 34h410q-1 -1 -1 -8zM455 840l-157 -107l-33 2l149 119z" />
    <glyph glyph-name="zacute" unicode="&#x17a;" horiz-adv-x="387" 
d="M35 30h293q-4 -26 -4 -30h-350q0 1 0.5 3.5t0.5 3.5l350 406h-263l5 30h318l-1 -3v-5zM354 662l-143 -128l-30 2l137 139z" />
    <glyph glyph-name="Zdotaccent" unicode="&#x17b;" horiz-adv-x="494" 
d="M49 34h394l-5 -34h-453q0 1 1 4v2l476 620h-352l5 34h410q-1 -1 -1 -8zM309 785q0 12 10 22t23 10q10 0 16 -6.5t6 -15.5q0 -15 -8.5 -24.5t-21.5 -9.5q-25 0 -25 24z" />
    <glyph glyph-name="zdotaccent" unicode="&#x17c;" horiz-adv-x="387" 
d="M35 30h293q-4 -26 -4 -30h-350q0 1 0.5 3.5t0.5 3.5l350 406h-263l5 30h318l-1 -3v-5zM216 582q0 12 10 22t23 10q10 0 16 -6.5t6 -15.5q0 -15 -8.5 -24.5t-21.5 -9.5q-25 0 -25 24z" />
    <glyph glyph-name="Zcaron" unicode="&#x17d;" horiz-adv-x="494" 
d="M246 848l89 -84l112 84h41l-150 -120h-13l-120 120h41zM49 34h394l-5 -34h-453q0 1 1 4v2l476 620h-352l5 34h410q-1 -1 -1 -8z" />
    <glyph glyph-name="zcaron" unicode="&#x17e;" horiz-adv-x="387" 
d="M156 668l86 -96l110 96h43l-151 -135h-12l-118 135h42zM35 30h293q-4 -26 -4 -30h-350q0 1 0.5 3.5t0.5 3.5l350 406h-263l5 30h318l-1 -3v-5z" />
    <glyph glyph-name="longs" unicode="&#x17f;" horiz-adv-x="220" 
d="M382 714v-34q-45 14 -78 14q-61 0 -92 -37.5t-41 -109.5l-102 -748h-37l84 613h-89l4 24l89 8l14 100q25 181 177 181q36 0 71 -11z" />
    <glyph glyph-name="florin" unicode="&#x192;" 
d="M220 128l45 228h-88q2 24 2 29h93l18 97q32 186 163 186q35 0 66 -11v-33q-37 12 -65 12q-54 0 -86 -41q-14 -19 -26 -53q-10 -34 -18 -69q-6 -27 -16 -88h113q-2 -26 -2 -29h-117l-38 -196q-28 -140 -63 -195q-35 -56 -108 -56q-33 0 -72 14v37q41 -16 72 -16
q52 0 79 40.5t48 143.5z" />
    <glyph glyph-name="AEacute" unicode="&#x1fc;" horiz-adv-x="919" 
d="M861 0h-415l21 165h-321l-150 -165h-46l604 660h355q0 -1 -2.5 -15t-2.5 -19h-342l-33 -258h323l-3 -34h-324q-20 -166 -38 -299h378q-3 -23 -4 -35zM518 572h-2l-340 -374h294zM772 840l-157 -107l-33 2l149 119z" />
    <glyph glyph-name="aeacute" unicode="&#x1fd;" horiz-adv-x="774" 
d="M715 81l-7 -40q-79 -50 -168 -50q-74 0 -119 36.5t-56 104.5q-61 -141 -221 -141q-66 0 -101 29.5t-35 76.5q0 78 56 114q23 16 61 25q57 14 138 14h98l6 41q1 3 1 27q0 49 -31 76t-91 27q-73 0 -150 -43q3 11 5 35q71 40 151 40q72 0 111 -34t39 -88q33 57 84.5 89
t113.5 32q65 0 103 -33.5t38 -85.5q0 -60 -64.5 -99t-187.5 -39q-48 0 -91 5q0 -4 -0.5 -10t-1 -9t-0.5 -5q0 -71 38 -112.5t108 -41.5q97 0 173 59zM156 22q73 0 132 53q58 54 69 146h-113q-198 0 -198 -119q0 -38 30 -59t80 -21zM599 418q-75 0 -129 -51.5t-69 -134.5
q45 -7 92 -7q102 0 155.5 30t53.5 77q0 38 -27 62t-76 24zM583 662l-143 -128l-30 2l137 139z" />
    <glyph glyph-name="Oslashacute" unicode="&#x1fe;" horiz-adv-x="761" 
d="M134 0h-36l52 60q-88 79 -88 217q0 160 110 276t264 116q116 0 189 -64l48 55h37l-65 -73q75 -80 75 -206q0 -163 -110 -276t-264 -113q-104 0 -174 51q-4 -5 -38 -43zM435 635q-137 0 -234 -106q-98 -106 -98 -250q0 -119 73 -189l423 485q-65 60 -164 60zM346 25
q136 0 234 104q99 105 99 251q0 105 -61 175l-421 -484q61 -46 149 -46zM604 840l-157 -107l-33 2l149 119z" />
    <glyph glyph-name="oslashacute" unicode="&#x1ff;" horiz-adv-x="518" 
d="M287 453q79 0 129 -48l36 38h35l-54 -57q37 -49 37 -127q0 -111 -68 -191q-68 -78 -175 -78q-79 0 -128 42l-30 -32h-36l49 52q-41 49 -41 130q0 113 68 192q67 79 178 79zM286 420q-90 0 -149 -69q-57 -67 -57 -167q0 -61 29 -105l281 300q-39 41 -104 41zM434 257
q0 60 -28 101l-281 -299q37 -37 103 -37q90 0 148 69q58 68 58 166zM449 662l-143 -128l-30 2l137 139z" />
    <glyph glyph-name="Scommaaccent" unicode="&#x218;" horiz-adv-x="478" 
d="M294 673q104 0 165 -39l-6 -40q-65 44 -153 44q-67 0 -119 -33q-53 -33 -53 -101q0 -65 106 -117q35 -16 54 -25.5t50.5 -30t48 -39t30 -46.5t12.5 -59q0 -95 -69 -147q-68 -51 -173 -51q-111 0 -185 51l5 42q76 -58 181 -58q86 0 144 41q57 42 57 115q0 87 -106 143
q-9 5 -43 22t-47 24t-38.5 24.5t-36.5 31t-20.5 34t-9.5 42.5q0 77 60 124q62 48 146 48zM143 -229l-21 3l53 125q-16 3 -16 24q1 13 11.5 23t22.5 10q11 0 18.5 -7t7.5 -18q-1 -34 -76 -160z" />
    <glyph glyph-name="scommaaccent" unicode="&#x219;" horiz-adv-x="365" 
d="M-4 31l2 38q58 -47 142 -47q58 0 95.5 24.5t37.5 73.5q0 52 -76 87q-80 37 -103 57q-37 30 -37 69q0 63 45 91q47 29 107 29q67 0 124 -30l-5 -37q-58 36 -119 36q-50 0 -82 -21t-32 -64q0 -30 33.5 -54.5t74.5 -40.5t74.5 -46.5t33.5 -70.5q0 -66 -50 -101
q-49 -33 -122 -33q-87 0 -143 40zM88 -229l-21 3l53 125q-16 3 -16 24q1 13 11.5 23t22.5 10q11 0 18.5 -7t7.5 -18q-1 -34 -76 -160z" />
    <glyph glyph-name="uni021A" unicode="&#x21a;" horiz-adv-x="524" 
d="M334 626l-88 -626h-38l87 626h-228l5 34h494l-6 -34h-226zM167 -229l-21 3l53 125q-16 3 -16 24q1 13 11.5 23t22.5 10q11 0 18.5 -7t7.5 -18q-1 -34 -76 -160z" />
    <glyph glyph-name="uni021B" unicode="&#x21b;" horiz-adv-x="327" 
d="M169 443h150l-4 -31h-151l-40 -283q0 -4 -1 -16t-1 -15q0 -71 72 -71q46 0 93 32l-6 -37q-43 -29 -96 -29q-101 0 -101 95q0 18 3 41l40 283h-81l4 25q1 0 5 0.5t12.5 1t17.5 0.5l47 4l39 133h17zM47 -229l-21 3l53 125q-16 3 -16 24q1 13 11.5 23t22.5 10q11 0 18.5 -7
t7.5 -18q-1 -34 -76 -160z" />
    <glyph glyph-name="schwa" unicode="&#x259;" horiz-adv-x="458" 
d="M53 361l7 40q80 51 168 51t135 -50t47 -138q0 -114 -69 -194q-67 -79 -173 -79q-66 0 -104 33t-38 85q0 60 65 99t188 39q51 0 91 -6q0 5 0.5 11t1 9.5t0.5 4.5q0 71 -38 112.5t-108 41.5q-97 0 -173 -59zM169 24q75 0 128.5 51.5t68.5 134.5q-40 6 -92 6
q-101 0 -154.5 -29.5t-53.5 -76.5q0 -38 27 -62t76 -24z" />
    <glyph glyph-name="primemod" unicode="&#x2b9;" horiz-adv-x="194" 
d="M229 623l-157 -241h-28l148 254z" />
    <glyph glyph-name="circumflex" unicode="&#x2c6;" horiz-adv-x="463" 
d="M409 533h-40l-84 95l-116 -95h-42l156 135h12z" />
    <glyph glyph-name="caron" unicode="&#x2c7;" horiz-adv-x="463" 
d="M182 668l86 -96l110 96h43l-151 -135h-12l-118 135h42z" />
    <glyph glyph-name="breve" unicode="&#x2d8;" horiz-adv-x="458" 
d="M377 670l31 -1q-11 -50 -48 -89q-38 -39 -95 -39q-54 0 -81 37t-23 91l31 1q-4 -42 16 -72t60 -30q43 0 70.5 28.5t38.5 73.5z" />
    <glyph glyph-name="dotaccent" unicode="&#x2d9;" horiz-adv-x="400" 
d="M260 582q0 12 10 22t23 10q10 0 16 -6.5t6 -15.5q0 -15 -8.5 -24.5t-21.5 -9.5q-25 0 -25 24z" />
    <glyph glyph-name="ring" unicode="&#x2da;" horiz-adv-x="448" 
d="M283 692q32 0 51 -19.5t19 -49.5q0 -37 -27 -64t-65 -27q-32 0 -50 17.5t-18 47.5q0 39 26.5 67t63.5 28zM280 669q-26 0 -44.5 -20t-18.5 -47q0 -21 12.5 -34t34.5 -13q27 0 45.5 19.5t18.5 45.5q0 21 -13.5 35t-34.5 14z" />
    <glyph glyph-name="ogonek" unicode="&#x2db;" horiz-adv-x="508" 
d="M336 -144l-7 -31q-47 -26 -102 -26q-77 0 -77 58q0 47 42.5 93.5t111.5 80.5l4 -15q-57 -32 -89.5 -74t-32.5 -75q0 -41 52 -41q48 0 98 30z" />
    <glyph glyph-name="tilde" unicode="&#x2dc;" horiz-adv-x="454" 
d="M142 547l-17 21q36 62 87 62q23 0 61 -23q40 -23 54 -23q18 0 32 11.5t32 37.5l15 -21q-34 -60 -82 -60q-22 0 -60 23t-55 23q-35 0 -67 -51z" />
    <glyph glyph-name="hungarumlaut" unicode="&#x2dd;" horiz-adv-x="460" 
d="M346 663l-148 -129l-29 2l138 141zM448 663l-148 -129l-29 2l139 141z" />
    <glyph glyph-name="tonos" unicode="&#x384;" horiz-adv-x="450" 
d="M399 667l-141 -138l-30 2l131 149z" />
    <glyph glyph-name="dieresistonos" unicode="&#x385;" horiz-adv-x="430" 
d="M186 611q22 0 22 -23q0 -13 -8.5 -22t-20.5 -9q-11 0 -18 6.5t-6 16.5q0 12 9.5 21.5t21.5 9.5zM340 611q23 0 23 -23q0 -13 -8.5 -22t-21.5 -9q-11 0 -17.5 6t-5.5 16q0 13 9.5 22.5t20.5 9.5zM362 667l-141 -138l-30 2l131 149z" />
    <glyph glyph-name="Alphatonos" unicode="&#x386;" horiz-adv-x="591" 
d="M541 0h-38l-44 165h-348l-90 -165h-41l369 664h9zM343 586l-213 -388h319q-72 274 -106 388zM214 664l-141 -138l-30 2l131 149z" />
    <glyph glyph-name="anoteleia" unicode="&#x387;" horiz-adv-x="163" 
d="M62 344q1 16 11.5 27t25.5 11q13 0 20.5 -7.5t7.5 -19.5q0 -16 -11 -27.5t-26 -11.5q-13 0 -20.5 8t-7.5 20z" />
    <glyph glyph-name="Epsilontonos" unicode="&#x388;" horiz-adv-x="541" 
d="M538 660l-5 -34h-359l-36 -258h337l-4 -34h-338l-42 -299h392l-5 -35h-430l93 660h397zM81 665l-141 -138l-30 2l131 149z" />
    <glyph glyph-name="Etatonos" unicode="&#x389;" horiz-adv-x="648" 
d="M620 661l-92 -661h-37l46 334h-404l-47 -334h-37l92 661h38l-41 -292h404l41 292h37zM79 664l-141 -138l-30 2l131 149z" />
    <glyph glyph-name="Iotatonos" unicode="&#x38a;" horiz-adv-x="225" 
d="M189 661l-93 -661h-37l92 661h38zM100 664l-141 -138l-30 2l131 149z" />
    <glyph glyph-name="Omicrontonos" unicode="&#x38c;" horiz-adv-x="744" 
d="M428 670q128 0 202 -80q73 -79 73 -208q0 -165 -107 -278q-106 -112 -258 -112q-128 0 -202 78q-74 80 -74 205q0 164 106 279q107 116 260 116zM426 635q-136 0 -230 -106q-94 -104 -94 -252q0 -110 62 -181q63 -70 173 -70q138 0 232 103q95 104 95 252q0 112 -64 182
q-64 72 -174 72zM130 664l-141 -138l-30 2l131 149z" />
    <glyph glyph-name="Upsilontonos" unicode="&#x38e;" horiz-adv-x="531" 
d="M295 283l-40 -283h-37l39 283l-190 377h40l171 -340h2l256 340h42zM50 665l-141 -138l-30 2l131 149z" />
    <glyph glyph-name="Omegatonos" unicode="&#x38f;" horiz-adv-x="780" 
d="M558 34h143q-2 -22 -5 -34h-230v9q74 29 130 91q110 122 110 273q0 113 -70 189t-190 76q-146 0 -249 -108q-102 -106 -102 -257q0 -84 38 -158q37 -72 112 -106v-9h-230l4 34h138v3q-49 38 -75 99t-26 129q0 169 118 288q118 120 277 120q131 0 211 -84q81 -84 81 -211
q0 -99 -50 -193q-50 -93 -135 -148v-3zM122 663l-141 -138l-30 2l131 149z" />
    <glyph glyph-name="iotadieresistonos" unicode="&#x390;" horiz-adv-x="195" 
d="M144 444l-62 -444h-37l62 444h37zM67 611q22 0 22 -23q0 -13 -8.5 -22t-20.5 -9q-11 0 -18 6.5t-6 16.5q0 12 9.5 21.5t21.5 9.5zM221 611q23 0 23 -23q0 -13 -8.5 -22t-21.5 -9q-11 0 -17.5 6t-5.5 16q0 13 9.5 22.5t20.5 9.5zM243 667l-141 -138l-30 2l131 149z" />
    <glyph glyph-name="Alpha" unicode="&#x391;" horiz-adv-x="591" 
d="M541 0h-38l-44 165h-348l-90 -165h-41l369 664h9zM343 586l-213 -388h319q-72 274 -106 388z" />
    <glyph glyph-name="Beta" unicode="&#x392;" horiz-adv-x="591" 
d="M297 0h-249l93 660h222q81 0 125.5 -35.5t44.5 -103.5q0 -53 -31.5 -98t-89.5 -66q116 -32 116 -146q0 -95 -68 -154q-68 -57 -163 -57zM334 337h-201l-43 -302h203q93 0 144 51q52 52 52 124q0 56 -41 91.5t-114 35.5zM362 626h-189l-36 -255h196q60 0 110 37
q51 38 51 111q0 49 -34.5 78t-97.5 29z" />
    <glyph glyph-name="Gamma" unicode="&#x393;" horiz-adv-x="504" 
d="M173 626l-87 -626h-38l93 660h406l-6 -34h-368z" />
    <glyph glyph-name="increment" unicode="&#x394;" horiz-adv-x="615" 
d="M370 667l196 -667h-584l380 667h8zM39 33h477l-161 558h-1z" />
    <glyph glyph-name="increment" unicode="&#x2206;" horiz-adv-x="615" 
d="M370 667l196 -667h-584l380 667h8zM39 33h477l-161 558h-1z" />
    <glyph glyph-name="Epsilon" unicode="&#x395;" horiz-adv-x="541" 
d="M538 660l-5 -34h-359l-36 -258h337l-4 -34h-338l-42 -299h392l-5 -35h-430l93 660h397z" />
    <glyph glyph-name="Zeta" unicode="&#x396;" horiz-adv-x="494" 
d="M49 34h394l-5 -34h-453q0 1 1 4v2l476 620h-352l5 34h410q-1 -1 -1 -8z" />
    <glyph glyph-name="Eta" unicode="&#x397;" horiz-adv-x="648" 
d="M620 661l-92 -661h-37l46 334h-404l-47 -334h-37l92 661h38l-41 -292h404l41 292h37z" />
    <glyph glyph-name="Theta" unicode="&#x398;" horiz-adv-x="772" 
d="M231 364h334q-2 -11 -5 -35h-334q0 1 2.5 16t2.5 19zM351 -8q-133 0 -211 78q-78 80 -78 206q0 164 111 279q111 116 269 116q135 0 212 -80t77 -209q0 -163 -111 -277q-111 -113 -269 -113zM351 25q140 0 239 104q99 103 99 252q0 113 -67 184q-66 72 -182 72
q-139 0 -238 -107q-99 -106 -99 -252q0 -112 66 -183q67 -70 182 -70z" />
    <glyph glyph-name="Iota" unicode="&#x399;" horiz-adv-x="225" 
d="M189 661l-93 -661h-37l92 661h38z" />
    <glyph glyph-name="Kappa" unicode="&#x39a;" horiz-adv-x="548" 
d="M134 347l386 313h47l-387 -316l323 -344h-54l-316 339l-47 -339h-38l93 660h38z" />
    <glyph glyph-name="Lambda" unicode="&#x39b;" horiz-adv-x="591" 
d="M541 0h-39l-159 585h-3l-322 -585h-38l370 666h8z" />
    <glyph glyph-name="Mu" unicode="&#x39c;" horiz-adv-x="790" 
d="M763 665l-93 -665h-35l79 562q-1 0 -2 1l-323 -387h-9l-216 394h-1l-79 -570h-36l93 665h10l238 -438l365 438h9z" />
    <glyph glyph-name="Nu" unicode="&#x39d;" horiz-adv-x="695" 
d="M550 81l82 579h36l-94 -665h-9l-397 588h-2l-81 -583h-37l94 667h10l395 -586h3z" />
    <glyph glyph-name="Xi" unicode="&#x39e;" horiz-adv-x="565" 
d="M3 37h496l-5 -37h-494q0 5 1.5 20.5t1.5 16.5zM570 625h-472l6 35h471zM109 371h383l-5 -36h-383q3 28 5 36z" />
    <glyph glyph-name="Omicron" unicode="&#x39f;" horiz-adv-x="744" 
d="M428 670q128 0 202 -80q73 -79 73 -208q0 -165 -107 -278q-106 -112 -258 -112q-128 0 -202 78q-74 80 -74 205q0 164 106 279q107 116 260 116zM426 635q-136 0 -230 -106q-94 -104 -94 -252q0 -110 62 -181q63 -70 173 -70q138 0 232 103q95 104 95 252q0 112 -64 182
q-64 72 -174 72z" />
    <glyph glyph-name="Pi" unicode="&#x3a0;" horiz-adv-x="659" 
d="M633 661l-93 -661h-38l88 626h-416l-88 -626h-37l92 661h492z" />
    <glyph glyph-name="Rho" unicode="&#x3a1;" horiz-adv-x="548" 
d="M119 237l-33 -237h-38l92 660h207q94 0 146 -51t52 -132q0 -111 -78 -176q-77 -64 -180 -64h-168zM329 628h-155l-51 -359h162q98 0 158 60q61 61 61 149q0 68 -44 109t-131 41z" />
    <glyph glyph-name="Sigma" unicode="&#x3a3;" horiz-adv-x="531" 
d="M52 34h433q-2 -22 -5 -34h-490v7l261 345l-161 299q1 2 1 9h461l-5 -34h-399l147 -272z" />
    <glyph glyph-name="Tau" unicode="&#x3a4;" horiz-adv-x="524" 
d="M334 626l-88 -626h-38l87 626h-228l5 34h494l-6 -34h-226z" />
    <glyph glyph-name="Upsilon" unicode="&#x3a5;" horiz-adv-x="531" 
d="M295 283l-40 -283h-37l39 283l-190 377h40l171 -340h2l256 340h42z" />
    <glyph glyph-name="Phi" unicode="&#x3a6;" horiz-adv-x="815" 
d="M446 660h37l-7 -46q138 -4 218 -71q80 -65 80 -169q0 -129 -105 -217q-104 -87 -270 -95q-7 -52 -8 -62h-38q7 52 8 62q-138 5 -218 67q-80 65 -80 170q0 129 108 221q109 91 268 94zM367 97l67 483q-146 -5 -239 -84q-92 -80 -92 -193q0 -92 68.5 -146t195.5 -60z
M472 581l-68 -484q145 4 239 82q95 80 95 191q0 90 -72 148t-194 63z" />
    <glyph glyph-name="Chi" unicode="&#x3a7;" horiz-adv-x="578" 
d="M533 0h-47l-186 334l-276 -334h-49l290 344l-180 316h40l176 -308l261 308h45l-270 -319z" />
    <glyph glyph-name="Psi" unicode="&#x3a8;" horiz-adv-x="730" 
d="M655 509l21 151h38q-16 -107 -22 -155q-16 -135 -96 -219q-79 -83 -222 -88l-27 -198h-38l28 198q-112 6 -175 66t-63 158q0 17 4 45l14 95l14 98h37l-27 -191q-3 -21 -3 -40q0 -85 53 -138t150 -57l61 426h37l-60 -426q126 5 193 80q68 77 83 195z" />
    <glyph glyph-name="Omega" unicode="&#x3a9;" horiz-adv-x="780" 
d="M558 34h143q-2 -22 -5 -34h-230v9q74 29 130 91q110 122 110 273q0 113 -70 189t-190 76q-146 0 -249 -108q-102 -106 -102 -257q0 -84 38 -158q37 -72 112 -106v-9h-230l4 34h138v3q-49 38 -75 99t-26 129q0 169 118 288q118 120 277 120q131 0 211 -84q81 -84 81 -211
q0 -99 -50 -193q-50 -93 -135 -148v-3z" />
    <glyph glyph-name="Iotadieresis" unicode="&#x3aa;" horiz-adv-x="225" 
d="M189 661l-93 -661h-37l92 661h38zM112 813q24 0 22 -23q0 -13 -8.5 -21.5t-20.5 -8.5q-25 0 -25 23q1 12 10.5 21t21.5 9zM267 813q24 0 22 -23q0 -13 -8.5 -21.5t-21.5 -8.5q-24 0 -24 23q1 12 10.5 21t21.5 9z" />
    <glyph glyph-name="Upsilondieresis" unicode="&#x3ab;" horiz-adv-x="531" 
d="M295 283l-40 -283h-37l39 283l-190 377h40l171 -340h2l256 340h42zM420 795q24 0 22 -23q0 -13 -8.5 -21.5t-21.5 -8.5q-24 0 -24 23q1 12 10.5 21t21.5 9zM265 795q24 0 22 -23q0 -13 -8.5 -21.5t-20.5 -8.5q-25 0 -25 23q1 12 10.5 21t21.5 9z" />
    <glyph glyph-name="alphatonos" unicode="&#x3ac;" 
d="M485 443l-62 -443h-28l7 101l-2 1q-68 -111 -188 -111q-84 0 -128 51t-44 135q0 121 66 197q68 77 171 77q60 0 100 -31.5t56 -87.5q3 0 27 111h25zM275 421q-90 0 -144 -70q-53 -71 -53 -167q0 -77 35.5 -120t105.5 -43q87 0 144 68q57 69 57 170q0 73 -38.5 117.5
t-106.5 44.5zM441 667l-141 -138l-30 2l131 149z" />
    <glyph glyph-name="epsilontonos" unicode="&#x3ad;" horiz-adv-x="404" 
d="M124 234q0 2 -1 3q-56 20 -56 76q0 58 53 99q55 41 135 41q69 0 124 -29q-2 -10 -5 -37q-55 34 -126 34q-62 0 -103 -29t-41 -76q0 -62 92 -62h74q-1 -7 -2 -13.5t-2 -11.5t-1 -7h-66q-64 0 -100.5 -30t-36.5 -80q0 -42 35 -66t100 -24q81 0 151 45q-1 -5 -5 -38
q-68 -38 -152 -38q-79 0 -122.5 30t-43.5 83q0 40 26.5 77.5t72.5 52.5zM380 667l-141 -138l-30 2l131 149z" />
    <glyph glyph-name="etatonos" unicode="&#x3ae;" horiz-adv-x="514" 
d="M121 345h3q34 52 82.5 80t98.5 28q67 0 104.5 -35.5t37.5 -103.5q0 -18 -3 -38l-69 -487h-37l68 480q1 7 1 29q0 62 -26.5 91.5t-82.5 29.5q-74 0 -128 -60q-53 -60 -66 -163l-29 -196h-37l62 443h29q-7 -70 -8 -98zM403 667l-141 -138l-30 2l131 149z" />
    <glyph glyph-name="iotatonos" unicode="&#x3af;" horiz-adv-x="195" 
d="M143 444l-62 -444h-37l62 444h37zM272 667l-141 -138l-30 2l131 149z" />
    <glyph glyph-name="upsilondieresistonos" unicode="&#x3b0;" horiz-adv-x="510" 
d="M394 191l36 252h37l-36 -252q-15 -102 -76 -151q-59 -49 -140 -49q-77 0 -118 39.5t-41 112.5q0 19 3 40l37 260h35l-37 -264q-3 -18 -3 -33q0 -58 33.5 -90.5t95.5 -32.5q66 0 114 42.5t60 125.5zM222 611q22 0 22 -23q0 -13 -8.5 -22t-20.5 -9q-11 0 -18 6.5t-6 16.5
q0 12 9.5 21.5t21.5 9.5zM376 611q23 0 23 -23q0 -13 -8.5 -22t-21.5 -9q-11 0 -17.5 6t-5.5 16q0 13 9.5 22.5t20.5 9.5zM398 667l-141 -138l-30 2l131 149z" />
    <glyph glyph-name="alpha" unicode="&#x3b1;" 
d="M485 443l-62 -443h-28l7 101l-2 1q-68 -111 -188 -111q-84 0 -128 51t-44 135q0 121 66 197q68 77 171 77q60 0 100 -31.5t56 -87.5q3 0 27 111h25zM275 421q-90 0 -144 -70q-53 -71 -53 -167q0 -77 35.5 -120t105.5 -43q87 0 144 68q57 69 57 170q0 73 -38.5 117.5
t-106.5 44.5z" />
    <glyph glyph-name="beta" unicode="&#x3b2;" 
d="M239 -9q-65 0 -109.5 32t-54.5 84q-19 -114 -45 -311h-36l100 711q14 95 72 156q60 62 153 62q74 0 117 -39.5t43 -106.5q0 -50 -29.5 -96t-78.5 -64v-3q52 -13 83.5 -59.5t31.5 -109.5q0 -101 -72 -179q-71 -77 -175 -77zM130 507l-41 -292q-2 -14 -2 -36
q0 -72 41 -114.5t112 -42.5q85 0 146 64q62 65 62 164q0 148 -175 148h-42q1 7 2 13.5t2 11.5t1 7h66q40 0 70 16.5t43 42.5q26 48 26 87q0 54 -34 85.5t-91 31.5q-86 0 -131 -56q-44 -55 -55 -130z" />
    <glyph glyph-name="gamma" unicode="&#x3b3;" horiz-adv-x="412" 
d="M181 76l210 368h38l-237 -415q-27 -193 -34 -239h-37q8 51 17 118q5 39 17 119l-120 417h40l103 -368h3z" />
    <glyph glyph-name="delta" unicode="&#x3b4;" horiz-adv-x="542" 
d="M260 452v4q-101 42 -101 123q0 59 51 103q52 43 139 43q85 0 143 -36l-6 -36q-62 41 -135 41q-69 0 -111 -31.5t-42 -82.5q0 -14 4 -26t13.5 -23t17 -18.5t25 -16.5t26.5 -13.5t31.5 -14.5t30.5 -14q45 -23 71 -40q35 -21 56 -61t21 -91q0 -112 -77 -192
q-76 -79 -183 -79q-91 0 -143.5 52.5t-52.5 138.5q0 52 22 105q23 55 74 102q52 48 126 63zM303 435q-74 -8 -128 -51q-99 -81 -99 -198q0 -74 43.5 -119t119.5 -45q91 0 154 69q64 70 64 165q0 128 -154 179z" />
    <glyph glyph-name="epsilon" unicode="&#x3b5;" horiz-adv-x="404" 
d="M124 234q0 2 -1 3q-56 20 -56 76q0 58 53 99q55 41 135 41q69 0 124 -29q-2 -10 -5 -37q-55 34 -126 34q-62 0 -103 -29t-41 -76q0 -62 92 -62h74q-1 -7 -2 -13.5t-2 -11.5t-1 -7h-66q-64 0 -100.5 -30t-36.5 -80q0 -42 35 -66t100 -24q81 0 151 45q-1 -5 -5 -38
q-68 -38 -152 -38q-79 0 -122.5 30t-43.5 83q0 40 26.5 77.5t72.5 52.5z" />
    <glyph glyph-name="zeta" unicode="&#x3b6;" horiz-adv-x="378" 
d="M432 679h-304l4 31h378v-9q-190 -148 -312 -286q-122 -140 -122 -222q0 -41 29.5 -71t72.5 -47t86 -31.5t73 -32t30 -40.5q0 -20 -32 -61q-31 -40 -72 -75l-27 11q89 87 89 119q0 12 -25 26q-17 8 -41 15q-35 13 -56 20q-87 31 -125.5 66t-38.5 92q0 85 113 222
q112 137 281 270l-1 1v2z" />
    <glyph glyph-name="eta" unicode="&#x3b7;" horiz-adv-x="514" 
d="M121 345h3q34 52 82.5 80t98.5 28q67 0 104.5 -35.5t37.5 -103.5q0 -18 -3 -38l-69 -487h-37l68 480q1 7 1 29q0 62 -26.5 91.5t-82.5 29.5q-74 0 -128 -60q-53 -60 -66 -163l-29 -196h-37l62 443h29q-7 -70 -8 -98z" />
    <glyph glyph-name="theta" unicode="&#x3b8;" horiz-adv-x="541" 
d="M506 353q-24 -168 -95 -266q-70 -97 -181 -97q-88 0 -132 64.5t-44 183.5q0 204 78 344q78 141 203 141q88 0 133.5 -67.5t45.5 -191.5q0 -42 -8 -111zM331 691q-83 0 -143 -85q-59 -85 -83 -222h368q5 50 5 77q0 109 -38 169.5t-109 60.5zM469 352h-369q-6 -57 -6 -106
q0 -224 142 -224q91 0 151 90q59 89 82 240z" />
    <glyph glyph-name="iota" unicode="&#x3b9;" horiz-adv-x="195" 
d="M143 444l-62 -444h-37l62 444h37z" />
    <glyph glyph-name="kappa" unicode="&#x3ba;" horiz-adv-x="440" 
d="M102 228l-31 -228h-36l62 443h36l-29 -205l287 205h49l-292 -209l253 -234h-56z" />
    <glyph glyph-name="lambda" unicode="&#x3bb;" horiz-adv-x="429" 
d="M383 0h-39l-102 393h-3l-221 -393h-43l254 441l-71 276h38z" />
    <glyph glyph-name="nu" unicode="&#x3bd;" horiz-adv-x="424" 
d="M168 -4l-134 447h40l107 -374h3l213 375h39l-261 -448h-7z" />
    <glyph glyph-name="xi" unicode="&#x3be;" horiz-adv-x="405" 
d="M325 725q76 0 138 -38l-6 -39q-61 45 -135 45q-84 0 -131 -50q-46 -49 -46 -110q0 -111 153 -111h80l-4 -32h-84q-88 0 -146 -54q-59 -54 -59 -132q0 -53 45 -87t148 -70q54 -19 77.5 -36t23.5 -38q0 -41 -91 -132q-4 1 -15.5 4.5t-14.5 5.5q78 89 78 113q0 15 -19.5 27
t-66.5 27q-105 35 -154.5 75.5t-49.5 101.5q0 65 42 126q43 60 112 83v2l1 2q-46 14 -70.5 46.5t-24.5 76.5q0 73 56 134q57 60 163 60z" />
    <glyph glyph-name="omicron" unicode="&#x3bf;" horiz-adv-x="518" 
d="M287 453q86 0 134.5 -53t48.5 -141q0 -111 -68 -191q-68 -78 -175 -78q-88 0 -137 52t-49 140q0 113 68 192q67 79 178 79zM286 420q-90 0 -149 -69q-57 -67 -57 -167q0 -74 38.5 -118t109.5 -44q90 0 148 69q58 68 58 166q0 72 -40 117.5t-108 45.5z" />
    <glyph glyph-name="pi" unicode="&#x3c0;" horiz-adv-x="515" 
d="M468 444l-62 -444h-38l58 409h-293l-57 -409h-37l62 444h367z" />
    <glyph glyph-name="rho" unicode="&#x3c1;" horiz-adv-x="529" 
d="M77 100h-3l-42 -310h-34q7 59 58 420q14 100 75 170q62 71 165 71q88 0 136.5 -51.5t48.5 -134.5q0 -119 -69 -197q-68 -77 -169 -77q-60 0 -105 29.5t-61 79.5zM238 22q93 0 149 68t56 167q0 76 -39 120t-110 44q-88 0 -147 -69q-57 -69 -57 -169q0 -73 39 -117t109 -44
z" />
    <glyph glyph-name="sigma1" unicode="&#x3c2;" horiz-adv-x="395" 
d="M242 -139l-30 9q69 67 70 89q0 15 -23 27l-23 11q-7 4 -32 14.5t-32 14.5q-68 31 -101 72.5t-33 99.5q0 117 73 186q73 70 180 70q59 0 104 -20q-3 -29 -5 -39q-42 27 -102 27q-89 0 -151 -59t-62 -161q0 -92 122 -146q8 -3 26.5 -12t20.5 -10q22 -8 38 -18
q43 -18 43 -45q0 -16 -21.5 -46t-61.5 -64z" />
    <glyph glyph-name="sigma" unicode="&#x3c3;" horiz-adv-x="542" 
d="M528 412h-137q-1 -1 -1 -3q39 -22 60 -64t21 -94q0 -109 -70 -185q-71 -75 -173 -75q-88 0 -137 50.5t-49 135.5q0 112 70 188q70 78 175 78h245zM281 411q-90 0 -145 -67q-56 -68 -56 -163q0 -72 40 -115.5t112 -43.5q86 0 144 67t58 160q0 73 -40.5 117.5t-112.5 44.5z
" />
    <glyph glyph-name="tau" unicode="&#x3c4;" horiz-adv-x="372" 
d="M42 443h326l-4 -30h-166l-40 -284q-3 -18 -3 -32q0 -70 73 -70q47 0 92 30l-6 -35q-43 -29 -95 -29q-101 0 -101 94q0 19 3 42l40 284h-124z" />
    <glyph glyph-name="upsilon" unicode="&#x3c5;" horiz-adv-x="510" 
d="M394 191l36 252h37l-36 -252q-15 -102 -76 -151q-59 -49 -140 -49q-77 0 -118 39.5t-41 112.5q0 19 3 40l37 260h35l-37 -264q-3 -18 -3 -33q0 -58 33.5 -90.5t95.5 -32.5q66 0 114 42.5t60 125.5z" />
    <glyph glyph-name="phi" unicode="&#x3c6;" horiz-adv-x="659" 
d="M309 -9l-28 -203h-36q27 184 29 203q-110 2 -170 56q-61 55 -61 142q0 93 59 164q60 71 151 93l20 -28q-89 -20 -142 -83q-53 -64 -53 -142q0 -76 54 -123.5t146 -48.5l61 432h40q105 0 167 -51.5t62 -140.5q0 -111 -83 -188q-82 -76 -216 -82zM370 422l-57 -401
q115 5 186 70q73 67 73 163q0 74 -54 118.5t-148 49.5z" />
    <glyph glyph-name="chi" unicode="&#x3c7;" horiz-adv-x="424" 
d="M377 0h-42l-131 220l-189 -220h-46l201 228l-129 216h40l125 -208l179 208h45l-191 -216z" />
    <glyph glyph-name="psi" unicode="&#x3c8;" horiz-adv-x="616" 
d="M519 216l32 227h37l-33 -231q-14 -95 -80 -157q-66 -61 -174 -66q-21 -158 -28 -201h-35q7 43 28 201q-98 3 -151 62q-52 58 -38 159l33 233h35l-33 -231q-24 -173 159 -190l59 421h35l-59 -421q90 2 145.5 55t67.5 139z" />
    <glyph glyph-name="omega" unicode="&#x3c9;" horiz-adv-x="734" 
d="M343 76h-4q-22 -38 -63 -61.5t-87 -23.5q-72 0 -111 45.5t-39 127.5q0 111 60 195q61 85 165 94l9 -32q-91 -8 -143 -81t-52 -171q0 -69 31 -107.5t88 -38.5q53 0 90 36t45 86l23 159h37l-19 -137q-3 -19 -3 -39q0 -105 99 -105q72 0 124 67q53 68 53 166q0 70 -36 115
t-100 50l16 32q77 -6 117 -58.5t40 -136.5q0 -108 -62 -188q-61 -79 -158 -79q-46 0 -79 23t-41 62z" />
    <glyph glyph-name="iotadieresis" unicode="&#x3ca;" horiz-adv-x="195" 
d="M71 611q22 0 22 -23q0 -13 -8.5 -22t-20.5 -9q-11 0 -18 6.5t-6 16.5q0 12 9.5 21.5t21.5 9.5zM225 611q23 0 23 -23q0 -13 -8.5 -22t-21.5 -9q-11 0 -17.5 6t-5.5 16q0 13 9.5 22.5t20.5 9.5zM144 444l-62 -444h-37l62 444h37z" />
    <glyph glyph-name="upsilondieresis" unicode="&#x3cb;" horiz-adv-x="510" 
d="M394 191l36 252h37l-36 -252q-15 -102 -76 -151q-59 -49 -140 -49q-77 0 -118 39.5t-41 112.5q0 19 3 40l37 260h35l-37 -264q-3 -18 -3 -33q0 -58 33.5 -90.5t95.5 -32.5q66 0 114 42.5t60 125.5zM225 611q22 0 22 -23q0 -13 -8.5 -22t-20.5 -9q-11 0 -18 6.5t-6 16.5
q0 12 9.5 21.5t21.5 9.5zM379 611q23 0 23 -23q0 -13 -8.5 -22t-21.5 -9q-11 0 -17.5 6t-5.5 16q0 13 9.5 22.5t20.5 9.5z" />
    <glyph glyph-name="omicrontonos" unicode="&#x3cc;" horiz-adv-x="518" 
d="M287 453q86 0 134.5 -53t48.5 -141q0 -111 -68 -191q-68 -78 -175 -78q-88 0 -137 52t-49 140q0 113 68 192q67 79 178 79zM286 420q-90 0 -149 -69q-57 -67 -57 -167q0 -74 38.5 -118t109.5 -44q90 0 148 69q58 68 58 166q0 72 -40 117.5t-108 45.5zM456 667l-141 -138
l-30 2l131 149z" />
    <glyph glyph-name="upsilontonos" unicode="&#x3cd;" horiz-adv-x="510" 
d="M394 191l36 252h37l-36 -252q-15 -102 -76 -151q-59 -49 -140 -49q-77 0 -118 39.5t-41 112.5q0 19 3 40l37 260h35l-37 -264q-3 -18 -3 -33q0 -58 33.5 -90.5t95.5 -32.5q66 0 114 42.5t60 125.5zM420 667l-141 -138l-30 2l131 149z" />
    <glyph glyph-name="omegatonos" unicode="&#x3ce;" horiz-adv-x="734" 
d="M343 76h-4q-22 -38 -63 -61.5t-87 -23.5q-72 0 -111 45.5t-39 127.5q0 111 60 195q61 85 165 94l9 -32q-91 -8 -143 -81t-52 -171q0 -69 31 -107.5t88 -38.5q53 0 90 36t45 86l23 159h37l-19 -137q-3 -19 -3 -39q0 -105 99 -105q72 0 124 67q53 68 53 166q0 70 -36 115
t-100 50l16 32q77 -6 117 -58.5t40 -136.5q0 -108 -62 -188q-61 -79 -158 -79q-46 0 -79 23t-41 62zM534 667l-141 -138l-30 2l131 149z" />
    <glyph glyph-name="afii10023" unicode="&#x401;" horiz-adv-x="541" 
d="M538 660l-5 -34h-359l-36 -258h337l-4 -34h-338l-42 -299h392l-5 -35h-430l93 660h397zM283 813q24 0 22 -23q0 -13 -8.5 -21.5t-20.5 -8.5q-25 0 -25 23q1 12 10.5 21t21.5 9zM438 813q24 0 22 -23q0 -13 -8.5 -21.5t-21.5 -8.5q-24 0 -24 23q1 12 10.5 21t21.5 9z" />
    <glyph glyph-name="afii10051" unicode="&#x402;" horiz-adv-x="769" 
d="M297 626h-230l5 34h510l-5 -34h-242q-9 -58 -17 -124q-7 -59 -17 -123q99 38 187 38q106 0 164 -56t58 -149q0 -108 -63 -200q-61 -89 -159 -130q-6 6 -27 23q102 43 156 125t54 176q0 80 -50 129t-142 49q-87 0 -183 -37l-48 -347h-38z" />
    <glyph glyph-name="afii10052" unicode="&#x403;" horiz-adv-x="504" 
d="M173 626l-87 -626h-38l93 660h406l-6 -34h-368zM467 840l-157 -107l-33 2l149 119z" />
    <glyph glyph-name="afii10053" unicode="&#x404;" horiz-adv-x="599" 
d="M546 75l-5 -38q-84 -46 -195 -46q-139 0 -213 77q-73 76 -73 201q0 87 31 164t84 129q114 109 267 109q104 0 159 -30l-3 -37q-62 33 -157 33q-118 0 -211 -75q-91 -73 -120 -199h353l-4 -35h-355q-5 -35 -5 -57q0 -113 67 -179t189 -66q100 0 191 49z" />
    <glyph glyph-name="afii10054" unicode="&#x405;" horiz-adv-x="478" 
d="M294 673q104 0 165 -39l-6 -40q-65 44 -153 44q-67 0 -119 -33q-53 -33 -53 -101q0 -65 106 -117q35 -16 54 -25.5t50.5 -30t48 -39t30 -46.5t12.5 -59q0 -95 -69 -147q-68 -51 -173 -51q-111 0 -185 51l5 42q76 -58 181 -58q86 0 144 41q57 42 57 115q0 87 -106 143
q-9 5 -43 22t-47 24t-38.5 24.5t-36.5 31t-20.5 34t-9.5 42.5q0 77 60 124q62 48 146 48z" />
    <glyph glyph-name="afii10055" unicode="&#x406;" horiz-adv-x="225" 
d="M189 661l-93 -661h-37l92 661h38z" />
    <glyph glyph-name="afii10056" unicode="&#x407;" horiz-adv-x="225" 
d="M109 813q24 0 22 -23q0 -13 -8.5 -21.5t-20.5 -8.5q-25 0 -25 23q1 12 10.5 21t21.5 9zM264 813q24 0 22 -23q0 -13 -8.5 -21.5t-21.5 -8.5q-24 0 -24 23q1 12 10.5 21t21.5 9zM189 661l-93 -661h-37l92 661h38z" />
    <glyph glyph-name="afii10057" unicode="&#x408;" horiz-adv-x="428" 
d="M-22 23l6 40q24 -16 60.5 -26.5t65.5 -10.5q94 0 136 51q41 50 55 138l4 26l59 419h38q-17 -111 -58 -413q-16 -111 -57 -177q-50 -79 -176 -79q-83 0 -133 32z" />
    <glyph glyph-name="afii10058" unicode="&#x409;" horiz-adv-x="1004" 
d="M531 628h-267l-97 -404q-28 -116 -65 -171q-37 -54 -114 -67l-17 30q66 15 100 56q32 39 55 131l109 457h339l-36 -260h207q97 0 150 -47t53 -127q0 -110 -70 -168t-170 -58h-265zM746 365h-213l-47 -330h228q81 0 138 48q58 49 58 142q0 65 -44.5 102.5t-119.5 37.5z
" />
    <glyph glyph-name="afii10059" unicode="&#x40a;" horiz-adv-x="1039" 
d="M134 346l-48 -346h-38l93 660h38l-40 -279h388l12 88l27 191h39l-13 -88l-14 -103l-12 -88h213q97 0 149.5 -43t52.5 -120q0 -107 -69 -163q-67 -55 -168 -55h-271q16 107 16 109l17 127l15 110h-387zM780 346h-220q-41 -288 -44 -311h234q82 0 138 44t56 137
q0 62 -43.5 96t-120.5 34z" />
    <glyph glyph-name="afii10060" unicode="&#x40b;" horiz-adv-x="767" 
d="M293 333l-47 -333h-38l87 626h-228l5 34h514l-6 -34h-246l-12 -82l-13 -95l-11 -82q106 36 200 36t140 -41t46 -115q0 -17 -3 -37l-29 -210h-38l28 201q3 20 3 38q0 130 -162 130q-94 0 -190 -36z" />
    <glyph glyph-name="afii10061" unicode="&#x40c;" horiz-adv-x="548" 
d="M134 347l386 313h47l-387 -316l323 -344h-54l-316 339l-47 -339h-38l93 660h38zM469 841l-157 -107l-33 2l149 119z" />
    <glyph glyph-name="afii10062" unicode="&#x40e;" horiz-adv-x="552" 
d="M269 209l269 451h39l-339 -567q-33 -56 -67.5 -79.5t-81.5 -23.5q-57 0 -104 24l6 38q49 -28 100 -28q71 0 122 88l34 59l-201 489h40zM443 848h30q-10 -51 -49 -86.5t-94 -35.5q-54 0 -82.5 35.5t-23.5 86.5h31q-4 -40 16.5 -67t61.5 -27q85 0 110 94z" />
    <glyph glyph-name="afii10145" unicode="&#x40f;" horiz-adv-x="661" 
d="M509 35l88 626h38l-93 -661h-223l-23 -161h-40l23 161h-230l92 661h38l-88 -626h418z" />
    <glyph glyph-name="afii10017" unicode="&#x410;" horiz-adv-x="591" 
d="M541 0h-38l-44 165h-348l-90 -165h-41l369 664h9zM343 586l-213 -388h319q-72 274 -106 388z" />
    <glyph glyph-name="afii10018" unicode="&#x411;" horiz-adv-x="611" 
d="M141 660h405q-2 -10 -5 -34h-367l-31 -227h212q97 0 148.5 -47.5t51.5 -130.5q0 -105 -70 -163q-68 -58 -169 -58h-268zM354 364h-216l-47 -329h230q81 0 139 48t58 141q0 65 -44.5 102.5t-119.5 37.5z" />
    <glyph glyph-name="afii10019" unicode="&#x412;" horiz-adv-x="591" 
d="M297 0h-249l93 660h222q81 0 125.5 -35.5t44.5 -103.5q0 -53 -31.5 -98t-89.5 -66q116 -32 116 -146q0 -95 -68 -154q-68 -57 -163 -57zM334 337h-201l-43 -302h203q93 0 144 51q52 52 52 124q0 56 -41 91.5t-114 35.5zM362 626h-189l-36 -255h196q60 0 110 37
q51 38 51 111q0 49 -34.5 78t-97.5 29z" />
    <glyph glyph-name="afii10020" unicode="&#x413;" horiz-adv-x="504" 
d="M173 626l-87 -626h-38l93 660h406l-6 -34h-368z" />
    <glyph glyph-name="afii10021" unicode="&#x414;" horiz-adv-x="765" 
d="M307 660h389l-87 -625h86l-27 -191h-40l23 156h-637l-22 -156h-39l26 191h77q74 65 114 159q39 92 88 279zM653 627h-319l-45 -176q-42 -168 -82 -259q-41 -94 -107 -157h470z" />
    <glyph glyph-name="afii10022" unicode="&#x415;" horiz-adv-x="541" 
d="M538 660l-5 -34h-359l-36 -258h337l-4 -34h-338l-42 -299h392l-5 -35h-430l93 660h397z" />
    <glyph glyph-name="afii10024" unicode="&#x416;" horiz-adv-x="875" 
d="M387 346l-293 314h47l290 -313l44 313h38l-45 -313l380 313h47l-385 -319l321 -341h-53l-311 339l-47 -339h-37l47 339l-404 -339h-53z" />
    <glyph glyph-name="afii10025" unicode="&#x417;" horiz-adv-x="557" 
d="M-5 37l5 38q83 -50 188 -50q123 0 197 53q73 54 73 140q0 60 -49.5 92t-137.5 32h-86q2 10 5 34h85q97 0 149.5 40.5t52.5 104.5q0 54 -48 85t-131 31q-106 0 -197 -39q4 33 5 38q91 36 199 36q101 0 157 -37.5t56 -104.5q0 -49 -35 -101q-35 -51 -105 -66v-2l-1 -1
q56 -10 87.5 -48t31.5 -92q0 -100 -83 -165q-82 -64 -223 -64q-53 0 -108 12.5t-87 33.5z" />
    <glyph glyph-name="afii10026" unicode="&#x418;" horiz-adv-x="695" 
d="M47 -3l94 663h36l-81 -578l564 583h8l-93 -665h-36l82 581l-564 -584h-10z" />
    <glyph glyph-name="afii10027" unicode="&#x419;" horiz-adv-x="695" 
d="M47 -3l94 663h36l-81 -578l564 583h8l-93 -665h-36l82 581l-564 -584h-10zM525 860l31 -1q-11 -50 -48 -89t-95 -39q-54 0 -81 37t-23 91l31 1q-4 -42 16 -72t60 -30q43 0 70.5 28.5t38.5 73.5z" />
    <glyph glyph-name="afii10028" unicode="&#x41a;" horiz-adv-x="548" 
d="M134 347l386 313h47l-387 -316l323 -344h-54l-316 339l-47 -339h-38l93 660h38z" />
    <glyph glyph-name="afii10029" unicode="&#x41b;" horiz-adv-x="618" 
d="M126 203l108 457h357l-92 -660h-39l88 628h-284l-98 -405q-29 -119 -65 -170q-36 -52 -113 -66l-16 28q67 15 99 56t55 132z" />
    <glyph glyph-name="afii10030" unicode="&#x41c;" horiz-adv-x="790" 
d="M763 665l-93 -665h-35l79 562q-1 0 -2 1l-323 -387h-9l-216 394h-1l-79 -570h-36l93 665h10l238 -438l365 438h9z" />
    <glyph glyph-name="afii10031" unicode="&#x41d;" horiz-adv-x="648" 
d="M620 661l-92 -661h-37l46 334h-404l-47 -334h-37l92 661h38l-41 -292h404l41 292h37z" />
    <glyph glyph-name="afii10032" unicode="&#x41e;" horiz-adv-x="744" 
d="M428 670q128 0 202 -80q73 -79 73 -208q0 -165 -107 -278q-106 -112 -258 -112q-128 0 -202 78q-74 80 -74 205q0 164 106 279q107 116 260 116zM426 635q-136 0 -230 -106q-94 -104 -94 -252q0 -110 62 -181q63 -70 173 -70q138 0 232 103q95 104 95 252q0 112 -64 182
q-64 72 -174 72z" />
    <glyph glyph-name="afii10033" unicode="&#x41f;" horiz-adv-x="659" 
d="M620 661l-93 -661h-38l88 626h-416l-88 -626h-37l92 661h492z" />
    <glyph glyph-name="afii10034" unicode="&#x420;" horiz-adv-x="548" 
d="M119 237l-33 -237h-38l92 660h207q94 0 146 -51t52 -132q0 -111 -78 -176q-77 -64 -180 -64h-168zM329 628h-155l-51 -359h162q98 0 158 60q61 61 61 149q0 68 -44 109t-131 41z" />
    <glyph glyph-name="afii10035" unicode="&#x421;" horiz-adv-x="599" 
d="M546 75l-5 -38q-84 -46 -195 -46q-140 0 -213 76t-73 201q0 178 112 290q113 113 270 113q101 0 159 -31l-2 -38q-64 35 -158 35q-139 0 -241 -102q-101 -103 -101 -263q0 -115 67 -180.5t189 -65.5q100 0 191 49z" />
    <glyph glyph-name="afii10036" unicode="&#x422;" horiz-adv-x="524" 
d="M334 626l-88 -626h-38l87 626h-228l5 34h494l-6 -34h-226z" />
    <glyph glyph-name="afii10037" unicode="&#x423;" horiz-adv-x="552" 
d="M290 209l269 451h39l-339 -567q-33 -56 -67.5 -79.5t-81.5 -23.5q-57 0 -104 24l6 38q49 -28 100 -28q71 0 122 88l34 59l-201 489h40z" />
    <glyph glyph-name="afii10038" unicode="&#x424;" horiz-adv-x="815" 
d="M446 660h37l-7 -46q138 -4 218 -71q80 -65 80 -169q0 -129 -105 -217q-104 -87 -270 -95q-7 -52 -8 -62h-38q7 52 8 62q-138 5 -218 67q-80 65 -80 170q0 129 108 221q109 91 268 94zM367 97l67 483q-146 -5 -239 -84q-92 -80 -92 -193q0 -92 68.5 -146t195.5 -60z
M472 581l-68 -484q145 4 239 82q95 80 95 191q0 90 -72 148t-194 63z" />
    <glyph glyph-name="afii10039" unicode="&#x425;" horiz-adv-x="578" 
d="M533 0h-47l-186 334l-276 -334h-49l290 344l-180 316h40l176 -308l261 308h45l-270 -319z" />
    <glyph glyph-name="afii10040" unicode="&#x426;" horiz-adv-x="676" 
d="M508 34l88 626h38l-88 -626h89l-27 -190h-40l23 156h-543l93 660h38l-89 -626h418z" />
    <glyph glyph-name="afii10041" unicode="&#x427;" horiz-adv-x="613" 
d="M587 660l-93 -660h-39l44 318q-93 -34 -205 -34q-98 0 -147.5 40.5t-49.5 114.5q0 26 5 68q1 9 13 83q9 44 12 70h37l-25 -178q-3 -18 -3 -34q0 -131 174 -131q104 0 194 34l44 309h39z" />
    <glyph glyph-name="afii10042" unicode="&#x428;" horiz-adv-x="904" 
d="M752 34l88 626h38l-93 -660h-737l93 660h38l-89 -626h309l88 626h39l-88 -626h314z" />
    <glyph glyph-name="afii10043" unicode="&#x429;" horiz-adv-x="920" 
d="M752 34l88 626h38l-88 -626h89l-27 -190h-40l23 156h-787l93 660h38l-89 -626h309l88 626h39l-88 -626h314z" />
    <glyph glyph-name="afii10044" unicode="&#x42a;" horiz-adv-x="826" 
d="M349 626h-287l5 34h327l-37 -261h213q97 0 148.5 -47t51.5 -129q0 -105 -71 -164t-168 -59h-269zM569 364h-217l-47 -329h232q81 0 138 48t57 142q0 64 -44 101.5t-119 37.5z" />
    <glyph glyph-name="afii10045" unicode="&#x42b;" horiz-adv-x="801" 
d="M48 0l93 660h39l-37 -261h220q97 0 148 -46t51 -128q0 -108 -70 -166q-71 -59 -168 -59h-276zM361 364h-223l-47 -329h238q81 0 138 48q58 48 58 141q0 65 -44.5 102.5t-119.5 37.5zM774 660l-93 -660h-37l92 660h38z" />
    <glyph glyph-name="afii10046" unicode="&#x42c;" horiz-adv-x="619" 
d="M48 0l93 660h39l-37 -261h220q95 0 147 -46t52 -126q0 -110 -70 -168q-70 -59 -168 -59h-276zM361 364h-223l-47 -329h238q81 0 138 48q58 48 58 141q0 65 -44.5 102.5t-119.5 37.5z" />
    <glyph glyph-name="afii10047" unicode="&#x42d;" horiz-adv-x="599" 
d="M-5 36l5 38q77 -49 177 -49q143 0 229 86t110 220h-355q0 4 2.5 19t2.5 16h354q0 4 0.5 15.5t0.5 13.5q0 115 -65 178.5t-184 63.5q-99 0 -171 -32q1 8 2 15.5t2 14t1 8.5q63 29 174 29q135 0 207 -75.5t72 -208.5q0 -157 -98 -274q-48 -57 -122.5 -90t-162.5 -33
q-114 0 -181 45z" />
    <glyph glyph-name="afii10048" unicode="&#x42e;" horiz-adv-x="1004" 
d="M133 329l-46 -329h-39l92 660h39l-42 -299h182q28 132 130 220q101 88 235 88q129 0 204 -80q76 -79 76 -207q0 -164 -110 -277t-266 -113q-126 0 -202 78q-77 79 -77 200q0 37 5 59h-181zM680 635q-138 0 -235 -106t-97 -250q0 -111 66 -183q68 -72 179 -72
q141 0 235 106q95 107 95 252q0 111 -65 182t-178 71z" />
    <glyph glyph-name="afii10049" unicode="&#x42f;" horiz-adv-x="576" 
d="M337 280l-295 -280h-52l286 266q-89 8 -140 57t-51 117q0 102 73 160q74 60 173 60h218l-92 -660h-38l87 626h-174q-91 0 -150 -52q-59 -51 -59 -134q0 -62 55 -105t161 -45z" />
    <glyph glyph-name="afii10065" unicode="&#x430;" 
d="M431 340l3 -3l26 106h25l-62 -443h-28l7 101l-2 1q-68 -111 -188 -111q-84 0 -128 51t-44 135q0 121 66 197q68 77 171 77q117 0 154 -111zM275 421q-90 0 -144 -70q-53 -71 -53 -167q0 -77 35.5 -120t105.5 -43q87 0 144 68q57 69 57 170q0 73 -38.5 117.5t-106.5 44.5z
" />
    <glyph glyph-name="afii10066" unicode="&#x431;" horiz-adv-x="518" 
d="M296 451q83 0 129 -51t46 -136q0 -110 -67 -192q-66 -81 -180 -81q-90 0 -136.5 50.5t-46.5 137.5q0 199 58 340q48 119 146 163q88 39 215 45l14 -30q-41 -2 -85 -8q-86 -9 -144 -45q-136 -79 -161 -337h2q24 66 82 105t128 39zM80 183q0 -76 37 -118.5t110 -42.5
q90 0 149 71t59 166q0 71 -39.5 115.5t-107.5 44.5q-92 0 -150 -69q-58 -67 -58 -167z" />
    <glyph glyph-name="afii10067" unicode="&#x432;" horiz-adv-x="487" 
d="M425 341q0 -31 -17.5 -56.5t-48.5 -34.5q0 -1 -1 -2v-1q38 -8 60 -33t22 -56q0 -69 -55 -118t-164 -49q-181 0 -181 160q0 30 4 53l13 74q13 74 69 123q58 50 144 50q76 0 115.5 -32t39.5 -78zM306 232h-91l2 12t2 11t1 7h82q39 0 62 21.5t23 49.5q0 37 -30 62t-90 25
q-72 0 -117 -41t-57 -107q-18 -100 -18 -120q0 -64 38 -97.5t111 -33.5q89 0 135 40t46 93q0 33 -25 55.5t-74 22.5z" />
    <glyph glyph-name="afii10068" unicode="&#x433;" horiz-adv-x="367" 
d="M312 69l-6 -38q-67 -40 -153 -40q-64 0 -101.5 26t-37.5 76q0 83 102 129q15 7 50.5 22t53.5 24t41 23.5t33.5 31t10.5 36.5q0 63 -96 63q-73 0 -144 -36l6 37q65 30 147 30q55 0 89 -23t34 -66q0 -78 -103 -123q-12 -5 -41 -17.5t-44 -19.5t-38 -20.5t-34.5 -25
t-20.5 -29t-9 -36.5q0 -71 109 -71q82 0 152 47z" />
    <glyph glyph-name="afii10069" unicode="&#x434;" horiz-adv-x="532" 
d="M449 308l3 3q6 42 6 86q0 141 -64.5 221.5t-188.5 80.5q-25 0 -53 -3l22 31q5 0 18.5 0.5t16.5 0.5q147 0 214 -90q69 -88 69 -242q0 -165 -59 -279q-64 -126 -209 -126q-88 0 -135.5 52t-47.5 138q0 113 68 192q69 79 175 79q67 0 113 -38.5t52 -105.5zM286 420
q-90 0 -148 -69q-57 -67 -57 -167q0 -74 38 -118t109 -44q92 0 149 68q57 69 57 167q0 72 -40 117.5t-108 45.5z" />
    <glyph glyph-name="afii10070" unicode="&#x435;" horiz-adv-x="456" 
d="M397 81q-5 -35 -7 -40q-79 -50 -168 -50q-88 0 -135 49.5t-47 137.5q0 114 68 194q69 80 174 80q66 0 104 -33.5t38 -85.5q0 -60 -65 -99t-188 -39q-46 0 -91 5l-2 -24q0 -71 38 -112.5t108 -41.5q99 0 173 59zM281 418q-75 0 -128.5 -51.5t-68.5 -134.5q43 -7 92 -7
q101 0 154.5 30t53.5 77q0 38 -27 62t-76 24z" />
    <glyph glyph-name="afii10072" unicode="&#x436;" horiz-adv-x="698" 
d="M363 227l-32 -227h-36l31 227l-303 -227h-53l315 234l-232 209h50l225 -204l29 204h36l-29 -204l284 204h49l-290 -212l250 -231h-54z" />
    <glyph glyph-name="afii10073" unicode="&#x437;" horiz-adv-x="400" 
d="M-8 20l3 36q47 -33 136 -33q82 0 128 35.5t46 88.5q0 78 -125 78h-69l5 30h65q66 0 103.5 25t37.5 65q0 34 -31.5 54t-91.5 20q-79 0 -140 -31q2 24 5 35q65 30 143 30q75 0 113.5 -26t38.5 -74q0 -35 -25 -66.5t-73 -45.5q36 -6 58 -33.5t22 -62.5q0 -67 -60 -111
q-58 -43 -154 -43q-82 0 -135 29z" />
    <glyph glyph-name="afii10074" unicode="&#x438;" horiz-adv-x="503" 
d="M373 99h-3q-62 -108 -172 -108q-67 0 -103.5 35t-36.5 101q0 19 3 40l39 276h37l-38 -269q-3 -21 -3 -38q0 -112 109 -112q66 0 117 55q50 55 64 145l33 219h37l-62 -443h-29q7 68 8 99z" />
    <glyph glyph-name="afii10075" unicode="&#x439;" horiz-adv-x="503" 
d="M373 99h-3q-62 -108 -172 -108q-67 0 -103.5 35t-36.5 101q0 19 3 40l39 276h37l-38 -269q-3 -21 -3 -38q0 -112 109 -112q66 0 117 55q50 55 64 145l33 219h37l-62 -443h-29q7 68 8 99zM397 657l31 -1q-11 -50 -48 -89q-38 -39 -95 -39q-54 0 -81 37t-23 91l31 1
q-4 -42 16 -72t60 -30q43 0 70.5 28.5t38.5 73.5z" />
    <glyph glyph-name="afii10076" unicode="&#x43a;" horiz-adv-x="444" 
d="M105 228l-31 -228h-36l62 443h36l-29 -205l287 205h49l-293 -213l254 -230h-54z" />
    <glyph glyph-name="afii10077" unicode="&#x43b;" horiz-adv-x="471" 
d="M-13 -12l-14 29q53 10 78 49q24 35 47 129l58 248h268l-62 -443h-37l58 413h-199l-48 -200q-13 -54 -19 -73q-7 -27 -19 -56q-12 -33 -25 -48q-33 -38 -86 -48z" />
    <glyph glyph-name="afii10078" unicode="&#x43c;" horiz-adv-x="650" 
d="M598 448l-49 -448h-36q3 21 8 64.5t6 51.5l17 137l14 117l-245 -258h-10l-178 260l-58 -372h-37l75 448h8l198 -292l278 292h9z" />
    <glyph glyph-name="afii10079" unicode="&#x43d;" horiz-adv-x="515" 
d="M468 444l-62 -444h-36l30 220h-294l-31 -220h-36l62 444h36l-27 -195h294l28 195h36z" />
    <glyph glyph-name="afii10080" unicode="&#x43e;" horiz-adv-x="518" 
d="M287 453q86 0 134.5 -53t48.5 -141q0 -111 -68 -191q-68 -78 -175 -78q-88 0 -137 52t-49 140q0 113 68 192q67 79 178 79zM286 420q-90 0 -149 -69q-57 -67 -57 -167q0 -74 38.5 -118t109.5 -44q90 0 148 69q58 68 58 166q0 72 -40 117.5t-108 45.5z" />
    <glyph glyph-name="afii10081" unicode="&#x43f;" horiz-adv-x="512" 
d="M121 345h3q34 52 82.5 80t98.5 28q67 0 104.5 -35.5t37.5 -103.5q0 -18 -3 -38l-39 -276h-37l38 269q2 16 2 35q0 115 -110 115q-67 0 -122 -55q-56 -56 -69 -144l-32 -220h-37l62 443h29q-7 -70 -8 -98z" />
    <glyph glyph-name="afii10082" unicode="&#x440;" horiz-adv-x="529" 
d="M80 94h-3l-45 -304h-34l90 653h28l-5 -93l2 -2q69 103 190 103q85 0 132 -54q46 -52 46 -132q0 -119 -69 -197q-68 -77 -169 -77q-59 0 -101.5 27t-61.5 76zM238 22q93 0 149 68t56 167q0 76 -39 120t-110 44q-88 0 -146 -69q-58 -67 -58 -169q0 -73 39 -117t109 -44z
" />
    <glyph glyph-name="afii10083" unicode="&#x441;" horiz-adv-x="421" 
d="M370 56l-5 -36q-55 -29 -134 -29q-93 0 -142 55q-48 56 -48 142q0 118 73 192q74 75 182 75q63 0 108 -20l-6 -36q-38 24 -102 24q-92 0 -157 -66q-63 -65 -63 -171q0 -74 44 -118t121 -44q76 0 129 32z" />
    <glyph glyph-name="afii10084" unicode="&#x442;" horiz-adv-x="803" 
d="M126 443l-7 -98q1 -1 3 -1q32 55 78 82t94 27q58 0 92 -29t37 -83q27 52 76.5 82t99.5 30q67 0 102.5 -34.5t35.5 -99.5q0 -19 -2 -37l-40 -282h-36l39 280q2 32 2 33q0 107 -106 107q-64 0 -113.5 -48t-61.5 -134l-11 -75q-4 -39 -12 -88l-10 -75h-37q10 73 16 117
l23 163q2 30 2 32q0 53 -27 80.5t-75 27.5q-61 0 -116 -53q-53 -53 -65 -141l-32 -226h-37l62 443h26z" />
    <glyph glyph-name="afii10085" unicode="&#x443;" horiz-adv-x="411" 
d="M62 -215h-38l124 224l-118 434h39l101 -391h3l215 391h39z" />
    <glyph glyph-name="afii10086" unicode="&#x444;" horiz-adv-x="653" 
d="M305 -13l-28 -197h-36l28 197q-106 1 -170 55q-63 54 -63 142q0 33 5 51q20 97 98 154q79 59 195 64l36 257h36l-36 -256q111 -4 173.5 -56.5t62.5 -139.5q0 -116 -87 -193q-85 -76 -214 -78zM367 422l-58 -405q111 1 186 70q74 68 74 166q0 77 -54 122.5t-148 46.5z
M273 17l57 405q-110 -2 -183 -67q-73 -66 -73 -165q0 -75 53 -123q55 -49 146 -50z" />
    <glyph glyph-name="afii10087" unicode="&#x445;" horiz-adv-x="424" 
d="M377 0h-42l-131 220l-189 -220h-46l201 228l-129 216h40l125 -208l179 208h45l-191 -216z" />
    <glyph glyph-name="afii10088" unicode="&#x446;" horiz-adv-x="516" 
d="M63 187l36 256h37l-37 -269q-3 -21 -3 -39q0 -111 107 -111q69 0 118 63q50 65 65 159l30 197h37l-57 -413l90 18q3 -3 5 -7l-54 -186h-36l46 155l-85 -16q-4 2 -7 5q1 12 8 60l9 63h-1l-1 1q-32 -66 -80 -99t-98 -33q-63 0 -98 34t-35 100q0 37 4 62z" />
    <glyph glyph-name="afii10089" unicode="&#x447;" horiz-adv-x="484" 
d="M436 443l-62 -443h-37l36 251q-1 1 -2 1q-29 -50 -80.5 -80t-102.5 -30q-62 0 -95 32t-33 95q0 19 3 40l18 134h37q-8 -53 -11 -73q-9 -62 -9 -90q0 -52 26 -78.5t72 -26.5q60 0 118.5 46t72.5 141l12 81h37z" />
    <glyph glyph-name="afii10090" unicode="&#x448;" horiz-adv-x="804" 
d="M669 0l7 97q-1 1 -3 1q-65 -107 -172 -107q-58 0 -92 28.5t-38 81.5q-27 -51 -76 -80.5t-99 -29.5q-139 0 -139 132q0 17 3 37l12 89l15 104l12 90h37l-39 -281q-3 -19 -3 -35q0 -51 27.5 -78t78.5 -27q61 0 111 46q51 45 65 136l33 239h37l-39 -281q-2 -16 -2 -33
q0 -53 26.5 -80t75.5 -27q62 0 115 53q54 53 66 141l31 227h37l-62 -443h-25z" />
    <glyph glyph-name="afii10091" unicode="&#x449;" horiz-adv-x="819" 
d="M507 22q69 0 118 64q51 66 64 160l29 197h37l-56 -413l90 18l5 -7l-54 -186h-36l20 69q22 74 25 86l-85 -16l-6 5l17 123q-1 0 -1 0.5t-1 0.5q-31 -65 -78 -98.5t-93 -33.5q-58 0 -92.5 28.5t-38.5 81.5q-27 -51 -76 -80.5t-99 -29.5q-139 0 -139 132q0 17 3 37l12 89
l15 104l12 90h37l-39 -281q-3 -19 -3 -35q0 -51 27.5 -78t78.5 -27q61 0 111 46q51 46 65 136l33 239h37l-39 -281q-2 -16 -2 -33q0 -53 26.5 -80t75.5 -27z" />
    <glyph glyph-name="afii10092" unicode="&#x44a;" horiz-adv-x="631" 
d="M26 443h249l-21 -147h174q78 0 119 -34.5t41 -86.5q0 -74 -59 -130q-59 -54 -165 -54q-167 0 -167 153q0 16 4 41l31 228h-210zM421 266h-171q-16 -106 -16 -124q0 -62 32.5 -92t105.5 -30q86 0 132 45t46 103q0 46 -32.5 72t-96.5 26z" />
    <glyph glyph-name="afii10093" unicode="&#x44b;" horiz-adv-x="642" 
d="M49 185l36 258h39l-22 -147h174q79 0 119.5 -34.5t40.5 -86.5q0 -74 -59 -130q-59 -54 -164 -54q-81 0 -124 37t-43 108q0 31 3 49zM270 266h-172l-12 -79q-4 -19 -4 -45q0 -61 33 -91.5t106 -30.5q85 0 131 45q47 47 47 103q0 44 -33 71t-96 27zM594 443l-62 -443h-37
l62 443h37z" />
    <glyph glyph-name="afii10094" unicode="&#x44c;" horiz-adv-x="480" 
d="M49 185l36 258h39l-22 -147h174q79 0 119.5 -34.5t40.5 -86.5q0 -74 -59 -130q-59 -54 -164 -54q-81 0 -124 37t-43 108q0 31 3 49zM270 266h-172l-12 -79q-4 -19 -4 -45q0 -61 33 -91.5t106 -30.5q85 0 131 45q47 47 47 103q0 44 -33 71t-96 27z" />
    <glyph glyph-name="afii10095" unicode="&#x44d;" horiz-adv-x="421" 
d="M-8 19l5 36q44 -32 120 -32q87 0 145 54q59 54 68 134h-223l4 30h223q1 7 1 28q0 69 -41 109.5t-110 40.5q-72 0 -122 -26q3 24 5 35q56 25 125 25q82 0 131 -50.5t49 -137.5q0 -116 -71 -196q-71 -78 -187 -78q-76 0 -122 28z" />
    <glyph glyph-name="afii10096" unicode="&#x44e;" horiz-adv-x="728" 
d="M105 220l-30 -220h-37l62 443h37l-14 -97l-14 -97h139q19 88 87 145q67 58 158 58q87 0 137.5 -53.5t50.5 -141.5q0 -110 -71 -189q-70 -78 -177 -78q-89 0 -140.5 53t-51.5 140q0 17 2 37h-138zM492 420q-88 0 -150 -69q-61 -68 -61 -166q0 -74 40.5 -119t112.5 -45
q88 0 150 69q61 70 61 165q0 73 -42 119t-111 46z" />
    <glyph glyph-name="afii10097" unicode="&#x44f;" horiz-adv-x="446" 
d="M237 192l-202 -192h-50l192 178q-58 7 -91.5 38.5t-33.5 76.5q0 69 51 109q52 41 125 41h171l-62 -443h-36l58 413h-132q-61 0 -99 -32.5t-38 -85.5q0 -41 39 -66.5t110 -26.5z" />
    <glyph glyph-name="afii10071" unicode="&#x451;" horiz-adv-x="456" 
d="M397 81q-5 -35 -7 -40q-79 -50 -168 -50q-88 0 -135 49.5t-47 137.5q0 114 68 194q69 80 174 80q66 0 104 -33.5t38 -85.5q0 -60 -65 -99t-188 -39q-46 0 -91 5l-2 -24q0 -71 38 -112.5t108 -41.5q99 0 173 59zM281 418q-75 0 -128.5 -51.5t-68.5 -134.5q43 -7 92 -7
q101 0 154.5 30t53.5 77q0 38 -27 62t-76 24zM234 618q22 0 22 -23q0 -13 -8.5 -22t-20.5 -9q-11 0 -18 6.5t-6 16.5q0 12 9.5 21.5t21.5 9.5zM388 618q23 0 23 -23q0 -13 -8.5 -22t-21.5 -9q-11 0 -17.5 6t-5.5 16q0 13 9.5 22.5t20.5 9.5z" />
    <glyph glyph-name="afii10099" unicode="&#x452;" horiz-adv-x="538" 
d="M106 231l-34 -231h-37l80 574h-59q0 4 4 30h59l7 46q7 45 8 60h37l-15 -106h191l-5 -30h-190l-34 -234h2q30 54 81.5 83t108.5 29q80 0 128 -48.5t48 -138.5q0 -109 -61 -206q-62 -97 -170 -150l-28 21q60 27 106 70t70 91q46 91 46 170t-39.5 118.5t-107.5 39.5
q-67 0 -126 -53q-58 -52 -70 -135z" />
    <glyph glyph-name="afii10100" unicode="&#x453;" horiz-adv-x="367" 
d="M312 69l-6 -38q-67 -40 -153 -40q-64 0 -101.5 26t-37.5 76q0 83 102 129q15 7 50.5 22t53.5 24t41 23.5t33.5 31t10.5 36.5q0 63 -96 63q-73 0 -144 -36l6 37q65 30 147 30q55 0 89 -23t34 -66q0 -78 -103 -123q-12 -5 -41 -17.5t-44 -19.5t-38 -20.5t-34.5 -25
t-20.5 -29t-9 -36.5q0 -71 109 -71q82 0 152 47zM355 662l-143 -128l-30 2l137 139z" />
    <glyph glyph-name="afii10101" unicode="&#x454;" horiz-adv-x="421" 
d="M370 56l-5 -36q-55 -29 -134 -29q-93 0 -142 55q-48 56 -48 142q0 118 73 192q74 75 182 75q63 0 108 -20l-6 -36q-38 24 -102 24q-79 0 -140 -50q-59 -50 -74 -134h225l-4 -30h-226q0 -1 -0.5 -11t-0.5 -12q0 -74 44 -118t121 -44q76 0 129 32z" />
    <glyph glyph-name="afii10102" unicode="&#x455;" horiz-adv-x="365" 
d="M-4 31l2 38q58 -47 142 -47q58 0 95.5 24.5t37.5 73.5q0 52 -76 87q-80 37 -103 57q-37 30 -37 69q0 63 45 91q47 29 107 29q67 0 124 -30l-5 -37q-58 36 -119 36q-50 0 -82 -21t-32 -64q0 -30 33.5 -54.5t74.5 -40.5t74.5 -46.5t33.5 -70.5q0 -66 -50 -101
q-49 -33 -122 -33q-87 0 -143 40z" />
    <glyph glyph-name="afii10103" unicode="&#x456;" horiz-adv-x="203" 
d="M153 610q23 0 23 -24q0 -13 -9 -22.5t-22 -9.5q-25 0 -25 23q0 13 10 23t23 10zM146 444l-62 -444h-37l62 444h37z" />
    <glyph glyph-name="afii10104" unicode="&#x457;" horiz-adv-x="204" 
d="M75 611q22 0 22 -23q0 -13 -8.5 -22t-20.5 -9q-11 0 -18 6.5t-6 16.5q0 12 9.5 21.5t21.5 9.5zM229 611q23 0 23 -23q0 -13 -8.5 -22t-21.5 -9q-11 0 -17.5 6t-5.5 16q0 13 9.5 22.5t20.5 9.5zM148 444l-62 -444h-37l62 444h37z" />
    <glyph glyph-name="afii10105" unicode="&#x458;" horiz-adv-x="186" 
d="M144 610q10 0 17 -7t7 -17q0 -13 -9.5 -23t-22.5 -10q-10 0 -17 6.5t-7 17.5q0 13 9.5 23t22.5 10zM33 -39l68 482h37l-69 -483q-13 -87 -51.5 -128.5t-113.5 -49.5l-16 35q67 2 101 37t44 107z" />
    <glyph glyph-name="afii10106" unicode="&#x459;" horiz-adv-x="775" 
d="M98 195l58 248h261l-21 -147h175q79 0 119.5 -34.5t40.5 -86.5q0 -74 -59 -130q-58 -54 -164 -54q-168 0 -168 147q0 16 4 47l32 228h-192l-48 -200q-13 -54 -19 -73q-7 -27 -19 -56q-12 -33 -25 -48q-33 -38 -86 -48l-14 29q53 10 78 49q24 35 47 129zM564 266h-171
l-12 -79q-4 -19 -4 -45q0 -61 33 -91.5t106 -30.5q84 0 131 45q47 47 47 103q0 44 -33.5 71t-96.5 27z" />
    <glyph glyph-name="afii10107" unicode="&#x45a;" horiz-adv-x="796" 
d="M402 443h38l-12 -79l-11 -79h190q72 0 109 -30.5t37 -82.5q0 -75 -59 -128t-165 -53q-163 0 -167 141q-1 15 4 53l9 66h-265q-29 -203 -35 -251h-37l63 443h36q-6 -36 -23 -162h265l11 81q9 54 12 81zM590 253h-177l-10 -66q-5 -33 -4 -45q0 -62 32.5 -92t105.5 -30
q85 0 132 44q46 43 46 100q0 89 -125 89z" />
    <glyph glyph-name="afii10108" unicode="&#x45b;" horiz-adv-x="504" 
d="M144 574l-33 -229h4q34 52 82.5 80t98.5 28q67 0 104 -36t37 -103q0 -18 -3 -38l-38 -276h-37q5 31 19 136l18 133q3 19 3 37q0 113 -110 113q-75 0 -127 -58t-67 -160l-29 -201h-37l80 574h-53q0 4 4 30h53l15 106h36l-15 -106h203l-4 -30h-204z" />
    <glyph glyph-name="afii10109" unicode="&#x45c;" horiz-adv-x="444" 
d="M105 228l-31 -228h-36l62 443h36l-29 -205l287 205h49l-293 -213l254 -230h-54zM386 662l-143 -128l-30 2l137 139z" />
    <glyph glyph-name="afii10110" unicode="&#x45e;" horiz-adv-x="411" 
d="M62 -215h-38l124 224l-118 434h39l101 -391h3l215 391h39zM353 670l31 -1q-11 -50 -48 -89q-38 -39 -95 -39q-54 0 -81 37t-23 91l31 1q-4 -42 16 -72t60 -30q43 0 70.5 28.5t38.5 73.5z" />
    <glyph glyph-name="afii10193" unicode="&#x45f;" horiz-adv-x="503" 
d="M278 -183l22 148h35l-22 -148h-35zM373 99h-3q-62 -108 -172 -108q-67 0 -103.5 35.5t-36.5 101.5q0 18 3 39l39 276h37l-38 -269q-3 -21 -3 -38q0 -112 109 -112q66 0 117 55q50 55 64 145l33 219h37l-62 -443h-29q7 68 8 99z" />
    <glyph glyph-name="afii10050" unicode="&#x490;" horiz-adv-x="512" 
d="M173 626l-87 -626h-38l93 660h380l15 109h33l-20 -143h-376z" />
    <glyph glyph-name="afii10098" unicode="&#x491;" horiz-adv-x="412" 
d="M133 413l-58 -413h-37l62 443h293q12 89 14 105h31l-18 -135h-287z" />
    <glyph glyph-name="schwacyrillic" unicode="&#x4d9;" horiz-adv-x="458" 
d="M53 361l7 40q80 51 168 51t135 -50t47 -138q0 -114 -69 -194q-67 -79 -173 -79q-66 0 -104 33t-38 85q0 60 65 99t188 39q51 0 91 -6q0 5 0.5 11t1 9.5t0.5 4.5q0 71 -38 112.5t-108 41.5q-97 0 -173 -59zM169 24q75 0 128.5 51.5t68.5 134.5q-40 6 -92 6
q-101 0 -154.5 -29.5t-53.5 -76.5q0 -38 27 -62t76 -24z" />
    <glyph glyph-name="Wgrave" unicode="&#x1e80;" horiz-adv-x="873" 
d="M600 87l281 572h38l-330 -664h-7l-101 571h-3l-262 -571h-9l-141 664h37l119 -571h3l263 575h8l101 -576h3zM411 859l118 -123l-30 -2l-131 111z" />
    <glyph glyph-name="wgrave" unicode="&#x1e81;" horiz-adv-x="682" 
d="M144 -4l-110 447h38l88 -372h2l199 374h7l96 -373h2l192 371h36l-237 -447h-7l-96 372h-2l-200 -372h-8zM317 683l98 -145l-28 -1l-107 135z" />
    <glyph glyph-name="Wacute" unicode="&#x1e82;" horiz-adv-x="873" 
d="M600 87l281 572h38l-330 -664h-7l-101 571h-3l-262 -571h-9l-141 664h37l119 -571h3l263 575h8l101 -576h3zM656 840l-157 -107l-33 2l149 119z" />
    <glyph glyph-name="wacute" unicode="&#x1e83;" horiz-adv-x="682" 
d="M144 -4l-110 447h38l88 -372h2l199 374h7l96 -373h2l192 371h36l-237 -447h-7l-96 372h-2l-200 -372h-8zM528 662l-143 -128l-30 2l137 139z" />
    <glyph glyph-name="Wdieresis" unicode="&#x1e84;" horiz-adv-x="873" 
d="M600 87l281 572h38l-330 -664h-7l-101 571h-3l-262 -571h-9l-141 664h37l119 -571h3l263 575h8l101 -576h3zM432 813q24 0 22 -23q0 -13 -8.5 -21.5t-20.5 -8.5q-25 0 -25 23q1 12 10.5 21t21.5 9zM587 813q24 0 22 -23q0 -13 -8.5 -21.5t-21.5 -8.5q-24 0 -24 23
q1 12 10.5 21t21.5 9z" />
    <glyph glyph-name="wdieresis" unicode="&#x1e85;" horiz-adv-x="682" 
d="M144 -4l-110 447h38l88 -372h2l199 374h7l96 -373h2l192 371h36l-237 -447h-7l-96 372h-2l-200 -372h-8zM306 594q22 0 22 -23q0 -13 -8.5 -22t-20.5 -9q-11 0 -18 6.5t-6 16.5q0 12 9.5 21.5t21.5 9.5zM460 594q23 0 23 -23q0 -13 -8.5 -22t-21.5 -9q-11 0 -17.5 6
t-5.5 16q0 13 9.5 22.5t20.5 9.5z" />
    <glyph glyph-name="Ygrave" unicode="&#x1ef2;" horiz-adv-x="531" 
d="M295 283l-40 -283h-37l39 283l-190 377h40l171 -340h2l256 340h42zM258 859l118 -123l-30 -2l-131 111z" />
    <glyph glyph-name="ygrave" unicode="&#x1ef3;" horiz-adv-x="411" 
d="M62 -215h-38l124 224l-118 434h39l101 -391h3l215 391h39zM185 683l98 -145l-28 -1l-107 135z" />
    <glyph glyph-name="endash" unicode="&#x2013;" horiz-adv-x="528" 
d="M493 228h-465l4 33h465z" />
    <glyph glyph-name="emdash" unicode="&#x2014;" horiz-adv-x="816" 
d="M778 228h-747l4 33h748z" />
    <glyph glyph-name="afii00208" unicode="&#x2015;" horiz-adv-x="816" 
d="M778 228h-747l4 33h748z" />
    <glyph glyph-name="quoteleft" unicode="&#x2018;" horiz-adv-x="179" 
d="M196 679l-60 -130q18 -3 18 -26q0 -16 -11.5 -27.5t-27.5 -11.5q-11 0 -19 8.5t-8 18.5q0 23 21 62l19 35l25 41l20 33q21 -3 23 -3z" />
    <glyph glyph-name="quoteright" unicode="&#x2019;" horiz-adv-x="179" 
d="M81 487l60 130q-18 3 -18 26q0 16 11.5 27.5t27.5 11.5q11 0 19 -8.5t8 -18.5q0 -23 -22 -63q-4 -8 -19 -35l-24 -41l-20 -32q-21 3 -23 3z" />
    <glyph glyph-name="quotesinglbase" unicode="&#x201a;" horiz-adv-x="197" 
d="M80 62q15 0 22.5 -10.5t5.5 -25.5q-5 -35 -85 -164l-24 1l61 135q-22 6 -18 30q2 14 13 24t25 10z" />
    <glyph glyph-name="quotedblleft" unicode="&#x201c;" horiz-adv-x="281" 
d="M177 683l22 -3l-61 -130q19 -3 19 -24q0 -17 -11 -29t-27 -12q-14 0 -21.5 9t-7.5 22q14 52 87 167zM273 683l23 -3l-61 -130q19 -3 19 -24q0 -17 -11 -29t-27 -12q-29 0 -29 30q10 44 86 168z" />
    <glyph glyph-name="quotedblright" unicode="&#x201d;" horiz-adv-x="281" 
d="M200 485l-23 4l61 129q-19 4 -19 25q0 17 11.5 28.5t27.5 11.5q12 0 19.5 -8.5t7.5 -18.5q0 -23 -22 -63q-4 -8 -19 -35l-24 -41zM103 485l-23 4l61 129q-19 4 -19 26q0 16 11.5 27.5t27.5 11.5q12 0 19.5 -8.5t7.5 -18.5q0 -23 -22 -63q-4 -8 -19 -35l-24 -41z" />
    <glyph glyph-name="quotedblbase" unicode="&#x201e;" horiz-adv-x="288" 
d="M74 62q15 0 22.5 -10.5t5.5 -25.5q-5 -35 -85 -164l-24 1l61 135q-22 6 -18 30q2 14 13 24t25 10zM174 62q15 0 22.5 -10.5t5.5 -25.5q-5 -35 -85 -164l-24 1l61 135q-22 6 -18 30q2 14 13 24t25 10z" />
    <glyph glyph-name="dagger" unicode="&#x2020;" horiz-adv-x="493" 
d="M254 457h-166l5 34h166l27 196h39l-28 -196h170l-5 -34h-169l-79 -565h-39z" />
    <glyph glyph-name="daggerdbl" unicode="&#x2021;" horiz-adv-x="492" 
d="M253 457h-166l5 34h166l28 196h38l-28 -196h170l-4 -34h-170l-36 -266h169l-6 -34h-169l-37 -265h-39l37 265h-166l5 34h167z" />
    <glyph glyph-name="bullet" unicode="&#x2022;" horiz-adv-x="429" 
d="M236 331q38 0 64.5 -26.5t26.5 -64.5q2 -28 -15 -50.5t-41.5 -32.5t-52.5 -6t-46 25q-21 18 -25 46t6 52.5t32.5 41.5t50.5 15z" />
    <glyph glyph-name="trianglebullet" unicode="&#x2023;" horiz-adv-x="506" 
d="M123 68v408l390 -199z" />
    <glyph glyph-name="ellipsis" unicode="&#x2026;" horiz-adv-x="506" 
d="M24 21q0 16 10.5 27t26.5 11q12 0 20 -8t8 -21q0 -15 -11.5 -25.5t-26.5 -10.5q-27 0 -27 27zM190 21q1 16 11 27t25 11q13 0 21 -7.5t8 -19.5q0 -16 -11 -27t-26 -11q-13 0 -20.5 7.5t-7.5 19.5zM356 21q1 16 11.5 27t24.5 11q13 0 21 -7.5t8 -19.5q0 -16 -11 -27
t-26 -11q-13 0 -20.5 7.5t-7.5 19.5z" />
    <glyph glyph-name="perthousand" unicode="&#x2030;" horiz-adv-x="1041" 
d="M246 673q57 0 93.5 -37t36.5 -94q0 -74 -52 -126q-51 -53 -122 -53q-61 0 -97 35.5t-36 93.5q0 74 53 127q52 54 124 54zM241 644q-57 0 -98 -44t-41 -104q0 -46 28.5 -75t75.5 -29q56 0 96 43q41 44 41 102q0 46 -28.5 76.5t-73.5 30.5zM518 304q57 0 93.5 -36.5
t36.5 -93.5q0 -73 -51 -127q-51 -53 -122 -53q-62 0 -97.5 35t-35.5 93q0 73 53 128q53 54 123 54zM513 274q-55 0 -97 -44q-41 -44 -41 -102q0 -47 28 -76.5t75 -29.5q56 0 97 44q40 43 40 103q0 45 -28.5 75t-73.5 30zM866 304q59 0 95 -36.5t36 -93.5q0 -75 -52 -127
q-51 -53 -122 -53q-61 0 -96.5 35t-35.5 93q0 75 52 128q53 54 123 54zM862 274q-56 0 -98 -44q-41 -44 -41 -102q0 -47 28.5 -76.5t75.5 -29.5q56 0 97 44q40 43 40 103q0 45 -28.5 75t-73.5 30zM627 685h31l-572 -702h-31z" />
    <glyph glyph-name="guilsinglleft" unicode="&#x2039;" horiz-adv-x="263" 
d="M75 198l116 -178h-42l-113 173v4l1 3l162 173h39z" />
    <glyph glyph-name="guilsinglright" unicode="&#x203a;" horiz-adv-x="263" 
d="M215 193l-162 -173h-42l166 178l-114 175h40l113 -173v-3q-1 -3 -1 -4z" />
    <glyph glyph-name="fraction" unicode="&#x2044;" horiz-adv-x="106" 
d="M349 681h32l-611 -700h-32z" />
    <glyph glyph-name="fraction" unicode="&#x2215;" horiz-adv-x="106" 
d="M349 681h32l-611 -700h-32z" />
    <glyph glyph-name="zerosuperior" unicode="&#x2070;" horiz-adv-x="341" 
d="M239 780q115 0 115 -143q0 -78 -31 -155q-18 -45 -54.5 -71.5t-85.5 -26.5q-116 0 -116 140q0 70 30 154q18 46 55 74t87 28zM235 752q-43 0 -73.5 -28.5t-42.5 -75.5q-19 -75 -19 -122q0 -115 87 -115q34 0 59.5 18t39.5 46q15 29 22 60q12 51 12 101q0 116 -85 116z
" />
    <glyph glyph-name="foursuperior" unicode="&#x2074;" horiz-adv-x="338" 
d="M43 496l255 279h36l-243 -264h174l15 107l27 35h8l-20 -142h59l-3 -26h-60l-13 -95h-30l13 95h-220z" />
    <glyph glyph-name="fivesuperior" unicode="&#x2075;" horiz-adv-x="344" 
d="M149 774h210q-3 -21 -4 -27h-183l-32 -130q33 11 75 11q55 0 89 -27.5t34 -77.5q0 -65 -49 -102q-50 -38 -114 -38q-77 0 -121 42l5 36q44 -50 119 -50q54 0 91 31q38 32 38 80q0 37 -28 57.5t-72 20.5q-53 0 -99 -23q-1 0 -7 2z" />
    <glyph glyph-name="sixsuperior" unicode="&#x2076;" horiz-adv-x="336" 
d="M108 610l127 165h34l-56 -72q-51 -64 -70 -92q29 20 77 20q53 0 85.5 -30t32.5 -76q0 -61 -47 -102q-46 -40 -112 -40q-58 0 -91 28t-33 74q0 24 8 50q12 32 45 75zM212 603q-49 0 -86 -31t-37 -80q0 -37 25 -59t69 -22q52 0 87.5 31.5t35.5 78.5q0 36 -26 59t-68 23z
" />
    <glyph glyph-name="sevensuperior" unicode="&#x2077;" horiz-adv-x="312" 
d="M301 747h-216l3 28h257q0 -2 -1 -5v-2l-237 -380h-32z" />
    <glyph glyph-name="eightsuperior" unicode="&#x2078;" horiz-adv-x="342" 
d="M213 579q-49 0 -83 -27.5t-34 -68.5q0 -33 24.5 -52.5t68.5 -19.5q49 0 81.5 28t32.5 68q0 32 -25 52t-65 20zM241 780q45 0 74 -24.5t29 -64.5q0 -31 -19.5 -57.5t-52.5 -40.5q64 -22 64 -82q0 -53 -44 -91q-44 -36 -106 -36q-57 0 -90 26t-33 69q0 36 25 66.5t66 46.5
q-49 24 -49 73t40 82q41 33 96 33zM236 752q-42 0 -70.5 -24.5t-28.5 -58.5q0 -27 22 -45t57 -18q41 0 68.5 23.5t27.5 57.5q0 28 -21.5 46.5t-54.5 18.5z" />
    <glyph glyph-name="ninesuperior" unicode="&#x2079;" horiz-adv-x="333" 
d="M304 555l-124 -167h-36q63 90 121 163q-28 -17 -70 -17q-53 0 -85.5 28.5t-32.5 75.5q0 61 46 101q47 41 114 41q55 0 87 -28.5t32 -73.5q0 -52 -52 -123zM204 562q49 0 84 31t35 80q0 36 -24.5 57.5t-66.5 21.5q-50 0 -87 -32q-36 -32 -36 -77q0 -37 25.5 -59t69.5 -22z
" />
    <glyph glyph-name="plussuperior" unicode="&#x207a;" horiz-adv-x="343" 
d="M208 525h-111l3 23h110l14 99h24l-14 -99h108l-3 -23h-108l-14 -102h-24z" />
    <glyph glyph-name="hyphensuperior" unicode="&#x207b;" horiz-adv-x="273" 
d="M282 515h-205l4 25h204z" />
    <glyph glyph-name="equalsuperior" unicode="&#x207c;" horiz-adv-x="338" 
d="M337 552h-247l3 22h247zM325 470h-247l3 22h247z" />
    <glyph glyph-name="parenleftsuperior" unicode="&#x207d;" horiz-adv-x="183" 
d="M221 830l18 -6q-30 -32 -52 -64q-25 -35 -51 -107t-26 -145q0 -111 56 -202l-20 -7q-68 94 -68 212q0 76 28 145q25 65 51.5 101.5t63.5 72.5z" />
    <glyph glyph-name="parenrightsuperior" unicode="&#x207e;" horiz-adv-x="181" 
d="M88 823l21 6q69 -91 69 -208q0 -119 -59 -213q-46 -73 -85 -110l-18 7q130 143 130 320q0 116 -58 198z" />
    <glyph glyph-name="nsuperior" unicode="&#x207f;" horiz-adv-x="344" 
d="M306 299h-31l25 180q1 5 1 20q0 70 -73 70q-42 0 -80 -32q-39 -32 -46 -90l-20 -148h-31l41 293h23l-5 -68q43 73 127 73q97 0 97 -90q0 -1 -2 -25q-21 -141 -26 -183z" />
    <glyph glyph-name="zeroinferior" unicode="&#x2080;" horiz-adv-x="341" 
d="M173 300q115 0 115 -143q0 -78 -31 -155q-18 -45 -54.5 -71.5t-85.5 -26.5q-116 0 -116 140q0 70 30 154q18 46 55 74t87 28zM169 272q-43 0 -73.5 -28.5t-42.5 -75.5q-19 -75 -19 -122q0 -115 87 -115q34 0 59.5 18t39.5 46q15 29 22 60q12 51 12 101q0 116 -85 116z
" />
    <glyph glyph-name="oneinferior" unicode="&#x2081;" horiz-adv-x="281" 
d="M31 184q0 2 1 7t2 11.5t2 13.5l149 82h7l-55 -388h-31l48 339q-5 -3 -13.5 -7.5t-22 -11.5t-24.5 -13q-42 -21 -63 -33z" />
    <glyph glyph-name="twoinferior" unicode="&#x2082;" horiz-adv-x="336" 
d="M45 226l7 35q66 39 126 39q50 0 79.5 -24.5t29.5 -67.5q0 -64 -66 -136q-64 -70 -170 -136h203l-3 -26h-273v7q123 73 199 145q81 76 81 140q0 34 -22.5 52t-59.5 18q-64 0 -131 -46z" />
    <glyph glyph-name="threeinferior" unicode="&#x2083;" horiz-adv-x="343" 
d="M242 267h-192l3 28h253v-5l-1 -2l-163 -143q60 0 95.5 -28t35.5 -74q0 -64 -49 -101q-49 -38 -111 -38q-83 0 -127 41l4 35q51 -51 122 -51q55 0 92 32t37 81q0 39 -29.5 60.5t-80.5 21.5q-22 0 -38 -2l-3 7z" />
    <glyph glyph-name="fourinferior" unicode="&#x2084;" horiz-adv-x="338" 
d="M-22 15l256 278h35l-243 -263h174l15 111l26 31h9l-20 -142h59l-3 -26h-59l-14 -96h-30l13 96h-219z" />
    <glyph glyph-name="fiveinferior" unicode="&#x2085;" horiz-adv-x="344" 
d="M83 294h210q-3 -21 -4 -27h-183l-32 -130q33 11 74 11q56 0 90 -27.5t34 -77.5q0 -64 -49 -101q-50 -38 -114 -38q-77 0 -121 41l5 36q44 -50 119 -50q55 0 92 31.5t37 79.5q0 37 -28 57.5t-72 20.5q-53 0 -99 -23q-1 0 -7 2z" />
    <glyph glyph-name="sixinferior" unicode="&#x2086;" horiz-adv-x="336" 
d="M45 130l127 165h34l-56 -72q-51 -64 -70 -92q29 20 77 20q53 0 85.5 -30t32.5 -76q0 -60 -47 -101q-46 -40 -112 -40q-58 0 -91 27.5t-33 73.5q0 34 12 60.5t41 64.5zM148 123q-50 0 -86 -31.5t-36 -79.5q0 -37 25 -59t69 -22q52 0 87.5 31.5t35.5 78.5q0 36 -26.5 59
t-68.5 23z" />
    <glyph glyph-name="seveninferior" unicode="&#x2087;" horiz-adv-x="312" 
d="M238 267h-216q3 15 4 28h257q0 -2 -1 -5v-2l-237 -379h-32z" />
    <glyph glyph-name="eightinferior" unicode="&#x2088;" horiz-adv-x="342" 
d="M150 99q-50 0 -84 -27.5t-34 -68.5q0 -33 25 -52.5t69 -19.5q49 0 81.5 28t32.5 68q0 32 -25 52t-65 20zM178 300q45 0 74 -24.5t29 -64.5q0 -31 -20 -57.5t-53 -40.5q64 -21 64 -82q0 -54 -43 -90q-43 -37 -106 -37q-59 0 -91 25t-32 70q0 36 24.5 66.5t65.5 46.5
q-48 24 -48 73t40 82t96 33zM173 272q-42 0 -71 -24.5t-29 -58.5q0 -27 22 -45t58 -18q41 0 68 23.5t27 57.5q0 28 -21 46.5t-54 18.5z" />
    <glyph glyph-name="nineinferior" unicode="&#x2089;" horiz-adv-x="333" 
d="M240 75l-124 -166h-36q75 105 121 162q-28 -17 -70 -17q-53 0 -85.5 28.5t-32.5 75.5q0 61 46 101q47 41 114 41q55 0 87 -28.5t32 -73.5q0 -55 -52 -123zM140 82q50 0 84.5 30.5t34.5 79.5q0 36 -24.5 58t-66.5 22q-50 0 -87 -32q-36 -31 -36 -77q0 -37 25.5 -59
t69.5 -22z" />
    <glyph glyph-name="plusinferior" unicode="&#x208a;" horiz-adv-x="343" 
d="M141 60h-110l4 22h110l14 99h24l-14 -99h107l-3 -22h-108l-14 -102h-24z" />
    <glyph glyph-name="hypheninferior" unicode="&#x208b;" horiz-adv-x="273" 
d="M217 49h-205l3 26h205z" />
    <glyph glyph-name="equalinferior" unicode="&#x208c;" horiz-adv-x="338" 
d="M275 102h-247l3 22h247zM263 20h-247l3 22h247z" />
    <glyph glyph-name="parenleftinferior" unicode="&#x208d;" horiz-adv-x="183" 
d="M158 370l18 -7q-44 -43 -87 -126q-42 -83 -42 -188q0 -112 56 -204l-20 -6q-68 94 -68 214q0 115 55 203q41 69 88 114z" />
    <glyph glyph-name="parenrightinferior" unicode="&#x208e;" horiz-adv-x="181" 
d="M26 362l20 7q69 -89 69 -207q0 -122 -58 -213q-47 -74 -86 -111l-18 6q130 146 130 322q0 115 -57 196z" />
    <glyph glyph-name="Euro" unicode="&#x20ac;" 
d="M472 59l-7 -35q-66 -30 -142 -30q-110 0 -175.5 61.5t-65.5 170.5q0 4 2 52h-43q1 9 4 25h396l-3 -25h-317q-2 -46 -2 -50q0 -99 56.5 -151t152.5 -52q75 0 144 34zM535 644q0 -4 0.5 -17t0.5 -17q-54 25 -124 25q-100 0 -173 -66q-72 -66 -97 -175h312l-3 -25h-397l3 25
h47q30 126 111 199q81 75 195 75q72 0 125 -24z" />
    <glyph glyph-name="centigrade" unicode="&#x2103;" horiz-adv-x="807" 
d="M173 677q45 0 73 -27.5t28 -70.5q0 -54 -39 -93q-40 -38 -94 -38q-46 0 -72 26t-26 69q0 55 39 94q40 40 91 40zM169 650q-39 0 -69 -31q-29 -31 -29 -71q0 -31 20.5 -52.5t52.5 -21.5q42 0 72.5 30.5t30.5 70.5q0 33 -21.5 54t-56.5 21zM753 75l-5 -38q-84 -46 -195 -46
q-140 0 -213 76t-73 201q0 178 112 290q113 113 270 113q101 0 159 -31l-2 -38q-64 35 -158 35q-139 0 -241 -102q-101 -103 -101 -263q0 -115 67 -180.5t189 -65.5q100 0 191 49z" />
    <glyph glyph-name="fahrenheit" unicode="&#x2109;" horiz-adv-x="762" 
d="M373 311l-44 -311h-37l92 661h406l-5 -35h-368l-40 -280h337l-5 -35h-336zM173 677q45 0 73 -27.5t28 -70.5q0 -54 -39 -93q-40 -38 -94 -38q-46 0 -72 26t-26 69q0 55 39 94q40 40 91 40zM169 650q-39 0 -69 -31q-29 -31 -29 -71q0 -31 20.5 -52.5t52.5 -21.5
q42 0 72.5 30.5t30.5 70.5q0 33 -21.5 54t-56.5 21z" />
    <glyph glyph-name="afii61289" unicode="&#x2113;" horiz-adv-x="472" 
d="M110 198l-23 -18l-13 25l67 53l13 236q6 98 45.5 149t99.5 51q39 0 69 -27t30 -74q0 -146 -224 -349l-6 -90q-4 -62 19 -96.5t71 -34.5q88 0 143 105l25 -14q-60 -121 -171 -121q-63 0 -93.5 43.5t-25.5 120.5l4 65zM188 487q0 -5 -5 -78t-8 -125q192 183 192 307
q0 33 -18.5 54t-49.5 21q-44 0 -75 -46t-36 -133z" />
    <glyph glyph-name="afii61352" unicode="&#x2116;" horiz-adv-x="1027" 
d="M873 670q60 0 94.5 -35.5t34.5 -93.5q0 -73 -48 -125q-46 -52 -122 -52q-62 0 -96.5 34.5t-34.5 93.5q0 73 47 126q48 52 125 52zM524 84l82 576h36l-93 -662h-13l-369 580h-2l-80 -578h-37l93 664h13l368 -580h2zM872 641q-61 0 -98 -43q-38 -44 -38 -105
q0 -46 25.5 -73.5t71.5 -27.5q60 0 97 43q39 43 39 104q0 46 -26.5 74t-70.5 28zM981 309l-4 -30h-305l4 30h305z" />
    <glyph glyph-name="published" unicode="&#x2117;" horiz-adv-x="821" 
d="M442 -13q-162 0 -260 102q-97 103 -97 265q0 156 104 260t253 104q147 0 251 -104q103 -103 103 -260q0 -156 -104 -262q-104 -105 -250 -105zM115 354q0 -148 87 -243q89 -95 233 -95q136 0 233 97q98 98 98 241q0 144 -94 238q-94 96 -230 96t-232 -96
q-95 -95 -95 -238zM482 273h-124v-161h-35v463h158q77 0 121 -44q43 -43 43 -105q0 -72 -48 -112q-47 -41 -115 -41zM611 426q0 52 -36.5 87t-100.5 35h-116v-247h121q59 0 95.5 35t36.5 90z" />
    <glyph glyph-name="trademark" unicode="&#x2122;" horiz-adv-x="750" 
d="M719 672v-362h-29v286h-3l-130 -181h-7l-129 179l-1 -1v-283h-32v362h9l155 -214h3l156 214h8zM231 646v-336h-30v336h-117v26h263v-26h-116z" />
    <glyph glyph-name="Ohm" unicode="&#x2126;" horiz-adv-x="780" 
d="M558 34h143q-2 -22 -5 -34h-230v9q74 29 130 91q110 122 110 273q0 113 -70 189t-190 76q-146 0 -249 -108q-102 -106 -102 -257q0 -84 38 -158q37 -72 112 -106v-9h-230l4 34h138v3q-49 38 -75 99t-26 129q0 169 118 288q118 120 277 120q131 0 211 -84q81 -84 81 -211
q0 -99 -50 -193q-50 -93 -135 -148v-3z" />
    <glyph glyph-name="angstrom" unicode="&#x212b;" horiz-adv-x="591" 
d="M541 0h-38l-44 165h-348l-90 -165h-41l369 664h9zM343 586l-213 -388h319q-72 274 -106 388zM377 839q32 0 51 -19.5t19 -49.5q0 -37 -27 -64t-65 -27q-32 0 -50 17.5t-18 47.5q0 39 26.5 67t63.5 28zM374 816q-26 0 -44.5 -20t-18.5 -47q0 -21 12.5 -34t34.5 -13
q27 0 45.5 19.5t18.5 45.5q0 21 -13.5 35t-34.5 14z" />
    <glyph glyph-name="estimated" unicode="&#x212e;" horiz-adv-x="817" 
d="M789 320h-570v-205q34 -48 94 -80q61 -30 126 -30t129 33q65 33 107 84h42q-54 -63 -126.5 -98t-152.5 -35q-145 0 -248 100t-103 240q0 137 103 234t248 97q148 0 248 -97q101 -97 103 -243zM219 334h436v204q-30 50 -91 78q-63 29 -125 29q-57 0 -116 -29t-104 -80
v-202z" />
    <glyph glyph-name="onethird" unicode="&#x2153;" horiz-adv-x="741" 
d="M84 574q0 2 1 7t2 11.5t2 13.5l149 82h7l-55 -389h-31l48 340q-5 -3 -13.5 -7.5t-22 -11.5t-24.5 -13q-42 -21 -63 -33zM624 357h-192l3 28h253v-5l-1 -2l-163 -143q60 0 95.5 -28t35.5 -74q0 -65 -49 -102q-47 -37 -111 -37q-83 0 -127 41l4 35q51 -51 122 -51
q55 0 92 32t37 81q0 39 -29.5 60.5t-80.5 21.5q-22 0 -38 -2l-3 7zM600 681h32l-611 -700h-32z" />
    <glyph glyph-name="twothirds" unicode="&#x2154;" horiz-adv-x="741" 
d="M659 681h32l-611 -700h-32zM84 615l7 36q68 38 125 38q51 0 80.5 -24t29.5 -68q0 -64 -66 -136q-64 -70 -170 -136h203l-3 -27h-274v8q123 73 200 146q81 76 81 140q0 34 -22.5 51.5t-59.5 17.5q-64 0 -131 -46zM658 357h-192l3 28h253v-5l-1 -2l-163 -143q60 0 95.5 -28
t35.5 -74q0 -65 -49 -102q-47 -37 -111 -37q-83 0 -127 41l4 35q51 -51 122 -51q55 0 92 32t37 81q0 39 -29.5 60.5t-80.5 21.5q-22 0 -38 -2l-3 7z" />
    <glyph glyph-name="onefifth" unicode="&#x2155;" horiz-adv-x="741" 
d="M620 681h32l-611 -700h-32zM89 574q0 2 1 7t2 11.5t2 13.5l149 82h7l-55 -389h-31l48 340q-5 -3 -13.5 -7.5t-22 -11.5t-24.5 -13q-42 -21 -63 -33zM477 384h210q-3 -21 -4 -27h-183l-32 -130q33 11 74 11q56 0 90 -27.5t34 -77.5q0 -64 -49 -101q-50 -38 -114 -38
q-77 0 -121 41l5 36q44 -50 119 -50q55 0 92 31.5t37 79.5q0 37 -28 57.5t-72 20.5q-53 0 -99 -23q-1 0 -7 2z" />
    <glyph glyph-name="twofifths" unicode="&#x2156;" horiz-adv-x="741" 
d="M682 681h32l-611 -700h-32zM102 615l7 36q68 38 125 38q51 0 80.5 -24t29.5 -68q0 -64 -66 -136q-64 -70 -170 -136h203l-3 -27h-274v8q123 73 200 146q81 76 81 140q0 34 -22.5 51.5t-59.5 17.5q-64 0 -131 -46zM501 384h210q-3 -21 -4 -27h-183l-32 -130q33 11 74 11
q56 0 90 -27.5t34 -77.5q0 -64 -49 -101q-50 -38 -114 -38q-77 0 -121 41l5 36q44 -50 119 -50q55 0 92 31.5t37 79.5q0 37 -28 57.5t-72 20.5q-53 0 -99 -23q-1 0 -7 2z" />
    <glyph glyph-name="threefifths" unicode="&#x2157;" horiz-adv-x="741" 
d="M299 657h-195l3 28h253v-5l-1 -2l-160 -143q59 0 93.5 -27.5t34.5 -73.5q0 -66 -49 -103q-49 -38 -111 -38q-82 0 -127 42l4 35q51 -51 122 -51q55 0 92 32t37 81q0 39 -29.5 60.5t-80.5 21.5q-22 0 -38 -2l-3 7zM493 384h210q-3 -21 -4 -27h-183l-32 -130q33 11 74 11
q56 0 90 -27.5t34 -77.5q0 -64 -49 -101q-50 -38 -114 -38q-77 0 -121 41l5 36q44 -50 119 -50q55 0 92 31.5t37 79.5q0 37 -28 57.5t-72 20.5q-53 0 -99 -23q-1 0 -7 2zM658 681h32l-611 -700h-32z" />
    <glyph glyph-name="fourfifths" unicode="&#x2158;" horiz-adv-x="741" 
d="M26 406l255 279h36l-243 -264h174l15 107l27 35h8l-20 -142h59l-3 -26h-60l-13 -95h-30l13 95h-220zM507 384h210q-3 -21 -4 -27h-183l-32 -130q33 11 74 11q56 0 90 -27.5t34 -77.5q0 -64 -49 -101q-50 -38 -114 -38q-77 0 -121 41l5 36q44 -50 119 -50q55 0 92 31.5
t37 79.5q0 37 -28 57.5t-72 20.5q-53 0 -99 -23q-1 0 -7 2zM662 681h32l-611 -700h-32z" />
    <glyph glyph-name="onesixth" unicode="&#x2159;" horiz-adv-x="741" 
d="M415 220l127 165h34l-56 -72q-51 -64 -70 -92q29 20 77 20q53 0 85.5 -30t32.5 -76q0 -60 -47 -101q-46 -40 -112 -40q-58 0 -91 27.5t-33 73.5q0 34 12 60.5t41 64.5zM518 213q-50 0 -86 -31.5t-36 -79.5q0 -37 25 -59t69 -22q52 0 87.5 31.5t35.5 78.5q0 36 -26.5 59
t-68.5 23zM98 574q0 2 1 7t2 11.5t2 13.5l149 82h7l-55 -389h-31l48 340q-5 -3 -13.5 -7.5t-22 -11.5t-24.5 -13q-42 -21 -63 -33zM639 681h32l-611 -700h-32z" />
    <glyph glyph-name="fivesixths" unicode="&#x215a;" horiz-adv-x="741" 
d="M452 220l127 165h34l-56 -72q-51 -64 -70 -92q29 20 77 20q53 0 85.5 -30t32.5 -76q0 -60 -47 -101q-46 -40 -112 -40q-58 0 -91 27.5t-33 73.5q0 34 12 60.5t41 64.5zM555 213q-50 0 -86 -31.5t-36 -79.5q0 -37 25 -59t69 -22q52 0 87.5 31.5t35.5 78.5q0 36 -26.5 59
t-68.5 23zM136 684h210q-4 -21 -4 -27h-183l-32 -130q33 11 75 11q55 0 89 -27.5t34 -77.5q0 -65 -49 -102q-50 -38 -114 -38q-78 0 -121 42l5 36q44 -50 119 -50q54 0 91 31q38 32 38 80q0 37 -28 57.5t-72 20.5q-53 0 -99 -23q-1 0 -7 2zM671 681h32l-611 -700h-32z" />
    <glyph glyph-name="oneeighth" unicode="&#x215b;" horiz-adv-x="741" 
d="M529 189q-50 0 -84 -27.5t-34 -68.5q0 -33 25 -52.5t69 -19.5q49 0 81.5 28t32.5 68q0 32 -25 52t-65 20zM557 390q45 0 74 -24.5t29 -64.5q0 -31 -20 -57.5t-53 -40.5q64 -21 64 -82q0 -54 -43 -91q-44 -36 -106 -36q-59 0 -91 25t-32 70q0 36 24.5 66.5t65.5 46.5
q-48 24 -48 73t40 82q41 33 96 33zM552 362q-42 0 -71 -24.5t-29 -58.5q0 -27 22 -45t58 -18q41 0 68 23.5t27 57.5q0 28 -21 46.5t-54 18.5zM96 574q0 2 1 7t2 11.5t2 13.5l149 82h7l-55 -389h-31l48 340q-5 -3 -13.5 -7.5t-22 -11.5t-24.5 -13q-42 -21 -63 -33zM619 681
h32l-611 -700h-32z" />
    <glyph glyph-name="threeeighths" unicode="&#x215c;" horiz-adv-x="741" 
d="M546 189q-50 0 -84 -27.5t-34 -68.5q0 -33 25 -52.5t69 -19.5q49 0 81.5 28t32.5 68q0 32 -25 52t-65 20zM574 390q45 0 74 -24.5t29 -64.5q0 -31 -20 -57.5t-53 -40.5q64 -21 64 -82q0 -54 -43 -91q-43 -36 -106 -36q-59 0 -91 25t-32 70q0 36 24.5 66.5t65.5 46.5
q-48 24 -48 73t40 82t96 33zM569 362q-42 0 -71 -24.5t-29 -58.5q0 -27 22 -45t58 -18q41 0 68 23.5t27 57.5q0 28 -21 46.5t-54 18.5zM303 657h-195l3 28h253v-5l-1 -2l-160 -143q59 0 93.5 -27.5t34.5 -73.5q0 -66 -49 -103q-49 -38 -111 -38q-82 0 -127 42l4 35
q51 -51 122 -51q55 0 92 32t37 81q0 39 -29.5 60.5t-80.5 21.5q-22 0 -38 -2l-3 7zM658 681h32l-611 -700h-32z" />
    <glyph glyph-name="fiveeighths" unicode="&#x215d;" horiz-adv-x="741" 
d="M554 189q-50 0 -84 -27.5t-34 -68.5q0 -33 25 -52.5t69 -19.5q49 0 81.5 28t32.5 68q0 32 -25 52t-65 20zM582 390q45 0 74 -24.5t29 -64.5q0 -31 -20 -57.5t-53 -40.5q64 -21 64 -82q0 -54 -43 -91q-43 -36 -106 -36q-59 0 -91 25t-32 70q0 36 24.5 66.5t65.5 46.5
q-48 24 -48 73t40 82t96 33zM577 362q-42 0 -71 -24.5t-29 -58.5q0 -27 22 -45t58 -18q41 0 68 23.5t27 57.5q0 28 -21 46.5t-54 18.5zM135 684h210q-3 -21 -4 -27h-183l-32 -130q33 11 75 11q55 0 89 -27.5t34 -77.5q0 -65 -49 -102q-50 -38 -114 -38q-77 0 -121 42l5 36
q44 -50 119 -50q54 0 91 31q38 32 38 80q0 37 -28 57.5t-72 20.5q-53 0 -99 -23q-1 0 -7 2zM657 681h32l-611 -700h-32z" />
    <glyph glyph-name="seveneighths" unicode="&#x215e;" horiz-adv-x="741" 
d="M536 189q-50 0 -84 -27.5t-34 -68.5q0 -33 25 -52.5t69 -19.5q49 0 81.5 28t32.5 68q0 32 -25 52t-65 20zM564 390q45 0 74 -24.5t29 -64.5q0 -31 -20 -57.5t-53 -40.5q64 -21 64 -82q0 -54 -43 -91q-43 -36 -106 -36q-59 0 -91 25t-32 70q0 36 24.5 66.5t65.5 46.5
q-48 24 -48 73t40 82t96 33zM559 362q-42 0 -71 -24.5t-29 -58.5q0 -27 22 -45t58 -18q41 0 68 23.5t27 57.5q0 28 -21 46.5t-54 18.5zM312 657h-216l3 28h257v-5l-1 -2l-237 -380h-32zM611 681h32l-611 -700h-32z" />
    <glyph glyph-name="uni215F" unicode="&#x215f;" horiz-adv-x="433" 
d="M115 574q0 2 1 7t2 11.5t2 13.5l149 82h7l-55 -389h-31l48 340q-5 -3 -13.5 -7.5t-22 -11.5t-24.5 -13q-42 -21 -63 -33zM646 681h32l-611 -700h-32z" />
    <glyph glyph-name="partialdiff" unicode="&#x2202;" horiz-adv-x="515" 
d="M197 679l14 30q17 4 47 4q112 0 164 -78q54 -78 54 -204q0 -200 -78 -319q-76 -118 -192 -118q-76 0 -118.5 43t-42.5 124q0 113 64 186t159 73q43 0 88 -19t77 -56q6 44 6 85q0 118 -49 185t-141 67q-29 0 -52 -3zM212 26q83 0 140 79q56 79 76 199q-63 85 -163 85
q-82 0 -133 -66t-51 -158q0 -68 34.5 -103.5t96.5 -35.5z" />
    <glyph glyph-name="gradient" unicode="&#x2207;" horiz-adv-x="616" 
d="M266 -3l-192 663h585l-381 -663h-12zM281 70h1l317 556h-477z" />
    <glyph glyph-name="product" unicode="&#x220f;" horiz-adv-x="610" 
d="M593 661l-109 -770h-36l103 735h-387l-104 -735h-37l108 770h462z" />
    <glyph glyph-name="summation" unicode="&#x2211;" horiz-adv-x="574" 
d="M57 -73h437l-6 -36h-494v5l1 3l274 398l-159 353v6l1 4h467l-5 -35h-407l147 -327z" />
    <glyph glyph-name="minus" unicode="&#x2212;" 
d="M453 313l-5 -30h-365l5 30h365z" />
    <glyph glyph-name="radical" unicode="&#x221a;" horiz-adv-x="509" 
d="M555 752l-357 -790h-13l-77 362l-61 -26l-6 27q59 28 94 43l66 -332l321 716h33z" />
    <glyph glyph-name="infinity" unicode="&#x221e;" horiz-adv-x="744" 
d="M226 422q89 0 161 -119q58 61 104.5 90t94.5 29q54 0 88 -32t34 -85q0 -74 -51 -122q-50 -47 -116 -47q-85 0 -162 116q-109 -115 -197 -115q-53 0 -87 33t-34 86q0 72 49 118q50 48 116 48zM579 390q-74 0 -174 -112q38 -59 69.5 -84.5t72.5 -25.5q50 0 88 38t38 93
q0 42 -26.5 66.5t-67.5 24.5zM190 169q75 0 174 107q-68 114 -145 114q-49 0 -87 -38q-37 -37 -37 -91q0 -42 26.5 -67t68.5 -25z" />
    <glyph glyph-name="logicaland" unicode="&#x2227;" 
d="M298 472l143 -472h-37l-122 404l-225 -404h-36l265 472h12z" />
    <glyph glyph-name="logicalor" unicode="&#x2228;" 
d="M235 67l235 404h37l-276 -472h-12q-12 47 -66 234l-66 238h36l53 -192q56 -202 59 -212z" />
    <glyph glyph-name="intersection" unicode="&#x2229;" 
d="M115 272l-38 -272h-35l38 274q13 90 72 143t144 53q86 0 130 -56q46 -56 32 -148l-37 -266h-36l37 267q11 76 -24.5 122.5t-106.5 46.5q-70 0 -118 -44.5t-58 -119.5z" />
    <glyph glyph-name="union" unicode="&#x222a;" 
d="M81 194l38 272h36l-39 -272q-10 -75 25.5 -119t105.5 -44q71 0 119.5 46.5t59.5 122.5l36 266h37l-37 -265q-14 -92 -74 -148q-59 -55 -145 -55q-85 0 -130 53.5t-32 142.5z" />
    <glyph glyph-name="integral" unicode="&#x222b;" horiz-adv-x="318" 
d="M381 718v-28q-29 7 -61 7q-101 0 -117 -130q-14 -107 -21 -280q-8 -184 -20 -269q-8 -76 -43 -119.5t-93 -43.5q-37 0 -67 10l2 30q27 -10 65 -10q83 0 99 115q16 105 23 282q7 170 22 285q10 77 47.5 119.5t97.5 42.5q33 0 66 -11z" />
    <glyph glyph-name="approxequal" unicode="&#x2248;" 
d="M113 318l-14 22q40 64 104 64q30 0 89 -27q60 -26 78 -26q46 0 78 53q3 -6 17 -21q-35 -62 -98 -62q-27 0 -87 26q-58 27 -80 27q-48 0 -87 -56zM94 182q-1 1 -7 9t-9 13q43 67 107 67q29 0 88 -27q60 -26 79 -26q48 0 78 56q3 -6 17 -21q-37 -64 -98 -64q-27 0 -87 26
t-79 26q-53 0 -89 -59z" />
    <glyph glyph-name="notequal" unicode="&#x2260;" 
d="M209 204l-97 -107q-7 1 -32 1l96 106h-104q4 27 4 29h131l116 128h-229q3 22 5 30h256l81 92q26 0 33 -1l-82 -91h84q-2 -8 -5 -30h-110l-116 -128h208q0 -2 -4 -29h-235z" />
    <glyph glyph-name="lessequal" unicode="&#x2264;" 
d="M25 15l4 32h416l-5 -32h-415zM140 290l315 -147q-3 -28 -5 -36l-385 177l1 4v6l435 176q0 -1 -2.5 -15.5t-2.5 -19.5z" />
    <glyph glyph-name="greaterequal" unicode="&#x2265;" 
d="M475 284l-435 -177l6 36l356 147l-316 145l5 35l386 -176zM25 15l4 32h416l-5 -32h-415z" />
    <glyph glyph-name="lozenge" unicode="&#x25ca;" horiz-adv-x="540" 
d="M457 340l-158 286l-162 -286l162 -290zM498 340l-191 -340h-17l-193 340l192 336h19z" />
    <glyph glyph-name="zero.text" unicode="&#xe000;" 
d="M316 670q191 0 191 -243q0 -95 -27 -194q-16 -65 -45 -118q-30 -54 -85 -89.5t-124 -35.5q-187 0 -187 237q0 17 2 59q8 89 30 161q28 97 88.5 160t156.5 63zM315 638q-73 1 -122.5 -48.5t-77.5 -126.5q-18 -47 -25 -94q-13 -97 -13 -140q0 -207 152 -207q76 -3 126.5 48
t77.5 128q17 43 25 95q13 79 13 137q0 208 -156 208z" />
    <glyph glyph-name="one.text" unicode="&#xe001;" horiz-adv-x="404" 
d="M72 524l232 140h10l-93 -664h-36l85 605l-204 -122z" />
    <glyph glyph-name="two.text" unicode="&#xe002;" horiz-adv-x="525" 
d="M90 567q6 37 6 40q92 62 183 62q75 0 121 -41t46 -110q0 -119 -115 -252q-117 -133 -275 -234h335l-4 -32h-411q1 2 1 10q184 119 308 252q125 134 125 248q0 61 -36.5 93.5t-97.5 32.5q-92 0 -186 -69z" />
    <glyph glyph-name="three.text" unicode="&#xe003;" horiz-adv-x="521" 
d="M412 629h-331l4 31h396q0 -2 -0.5 -5t-0.5 -5l-261 -249q95 0 150 -44t55 -119q0 -112 -78 -180q-76 -66 -185 -66q-118 0 -190 66q0 2 2.5 19.5t3.5 23.5q74 -77 189 -77q92 0 156 58t64 148q0 67 -46.5 104t-127.5 37q-28 0 -56 -5l-5 9l261 251v3z" />
    <glyph glyph-name="four.text" unicode="&#xe004;" 
d="M390 415l35 44h7l-36 -255h92l-4 -31h-92l-24 -173h-36l24 173h-360l1 10l420 478h45l-403 -457h302z" />
    <glyph glyph-name="five.text" unicode="&#xe005;" 
d="M171 660h333l-4 -30h-301l-61 -249q57 23 131 23q84 0 140 -44t56 -124q0 -113 -79 -179q-80 -65 -185 -65q-121 0 -188 66q0 8 6 44q29 -35 78 -57t109 -22q93 0 157 58q65 59 65 151q0 67 -46 103.5t-123 36.5q-86 0 -159 -40l-10 4z" />
    <glyph glyph-name="six.text" unicode="&#xe006;" 
d="M116 381l203 279h41l-224 -307q1 0 2 -1h1q53 54 150 54q82 0 132 -48t50 -126q0 -104 -73 -173q-73 -68 -176 -68q-90 0 -142 47t-52 126q0 96 88 217zM280 374q-86 0 -151 -54q-64 -52 -64 -150q0 -68 43 -108.5t119 -40.5q90 0 149 59q59 61 59 147q0 67 -42 107
t-113 40z" />
    <glyph glyph-name="seven.text" unicode="&#xe007;" horiz-adv-x="442" 
d="M407 629h-348l4 31h394l-2 -11l-382 -649h-37z" />
    <glyph glyph-name="eight.text" unicode="&#xe008;" 
d="M489 515q-3 -56 -40.5 -101t-94.5 -60v-1l-1 -1q56 -16 86.5 -54t30.5 -91q0 -94 -70 -155t-174 -61q-92 0 -143.5 41.5t-51.5 113.5q0 70 45 126q46 56 120 75v1l1 2q-93 32 -93 126q0 82 63 138q65 56 154 56q72 0 121 -41q48 -41 48 -105q0 -7 -1 -9zM274 333
q-90 0 -148 -51q-59 -51 -59 -127q0 -61 42.5 -97.5t121.5 -36.5q88 0 146 53q57 52 57 129q0 58 -43.5 94t-116.5 36zM317 637q-77 0 -126 -46q-50 -45 -50 -111q0 -52 37.5 -84t100.5 -32q72 0 122 44q51 45 51 110q0 53 -37 86t-98 33z" />
    <glyph glyph-name="nine.text" unicode="&#xe009;" 
d="M421 288l-205 -288h-41l221 309l-2 1q-53 -52 -146 -52q-81 0 -130.5 47.5t-49.5 124.5q0 104 72 171q74 68 175 68q87 0 137.5 -46.5t50.5 -124.5q0 -55 -19.5 -102t-62.5 -108zM258 290q84 0 146 53t62 150q0 66 -42 105.5t-114 39.5q-87 0 -146 -59t-59 -144
q0 -66 41 -105.5t112 -39.5z" />
    <glyph glyph-name="numbersign.text" unicode="&#xe00a;" horiz-adv-x="515" 
d="M400 448l66 180h27l-65 -180h84l-4 -25h-89l-67 -184h90l-4 -25h-95l-75 -214h-28l77 214h-176l-76 -214h-27q6 20 42 119q10 26 19 51t13 34l3 10h-88l3 25h93l67 184h-96l3 25h101q28 74 66 180h27l-65 -180h174zM392 423h-175l-67 -184h175q17 43 67 184z" />
    <glyph glyph-name="dollar.text" unicode="&#xe00b;" horiz-adv-x="520" 
d="M463 626q-2 -13 -5 -40q-65 44 -152 44q-68 0 -116 -33q-47 -32 -47 -102q0 -61 104 -112q43 -20 67.5 -33.5t58.5 -39t50 -57t16 -70.5q0 -81 -59 -131q-58 -49 -146 -54l-15 -105h-31q2 20 14 104q-106 1 -174 51q1 5 5 38q80 -59 179 -59q85 0 137 42t52 113
q0 85 -104 138q-10 5 -36.5 18t-39 19.5t-34.5 19.5t-33 24t-24 26.5t-18.5 32.5t-5.5 37q0 80 53 119q53 38 137 46q1 6 3.5 23t3.5 26q1 8 2.5 19.5t3 18.5t1.5 12h31q-4 -34 -14 -98q77 -4 136 -37z" />
    <glyph glyph-name="euro.text" unicode="&#xe00c;" 
d="M474 59l-7 -35q-66 -30 -142 -30q-110 0 -175.5 61.5t-65.5 170.5q0 4 2 52h-43q1 9 4 25h396l-3 -25h-317q-2 -46 -2 -50q0 -99 56.5 -151t152.5 -52q75 0 144 34zM537 644q0 -4 0.5 -17t0.5 -17q-54 25 -124 25q-100 0 -173 -66q-72 -66 -97 -175h312l-3 -25h-397l3 25
h47q30 126 111 199q81 75 195 75q72 0 125 -24z" />
    <glyph glyph-name="florin.text" unicode="&#xe00d;" horiz-adv-x="434" 
d="M145 128l45 228h-88q2 24 2 29h93l18 97q32 186 163 186q35 0 66 -11v-33q-37 12 -65 12q-54 0 -86 -41q-14 -19 -26 -53q-11 -34 -18 -69q-6 -27 -16 -88h113q-2 -26 -2 -29h-117l-38 -196q-29 -140 -63 -195q-35 -56 -108 -56q-33 0 -72 14v37q41 -16 72 -16
q52 0 79 40.5t48 143.5z" />
    <glyph glyph-name="sterling.text" unicode="&#xe00e;" horiz-adv-x="515" 
d="M509 651l-4 -33q-49 17 -86 17q-74 0 -122.5 -45.5t-62.5 -136.5l-15 -100h200l-4 -27h-200q-36 -222 -112 -295h329l-3 -31h-385l1 9q58 51 87 125q27 70 47 192h-78l4 27h78l15 101q9 60 33 103.5t57 66t66.5 33t67.5 10.5q48 0 87 -16z" />
    <glyph glyph-name="cent.text" unicode="&#xe00f;" horiz-adv-x="515" 
d="M288 14h-32q5 33 14 100q-82 6 -126.5 58.5t-44.5 135.5q0 109 68 183q67 75 169 84l15 104h31l-14 -103q53 -1 93 -19l-6 -36q-38 23 -96 23q-93 0 -159 -67q-66 -66 -66 -171q0 -73 44.5 -116t122.5 -43q72 0 125 32q-1 -8 -5 -36q-52 -28 -119 -29z" />
    <glyph glyph-name="yen.text" unicode="&#xe010;" 
d="M474 283h-410q1 9 4 25h170l-145 353h41q98 -257 134 -343l237 342h39l-246 -352h180q-1 -9 -4 -25zM271 193l-27 -193h-37l26 193h-182l4 25h410l-4 -25h-190z" />
    <glyph glyph-name="zero.taboldstyle" unicode="&#xe024;" horiz-adv-x="515" 
d="M287 453q88 0 140 -55q54 -55 54 -140q0 -108 -78 -188q-76 -79 -181 -79q-92 0 -145 53q-52 53 -52 139q0 111 78 190q80 80 184 80zM282 421q-91 0 -155 -70q-64 -68 -64 -164q0 -73 44 -118.5t119 -45.5q91 0 154 68q64 68 64 163q0 72 -44 119q-44 48 -118 48z" />
    <glyph glyph-name="one.taboldstyle" unicode="&#xe025;" horiz-adv-x="515" 
d="M294 396l-193 -102l5 37l221 117h9l-59 -418h160l-3 -30h-375q0 4 4 30h179z" />
    <glyph glyph-name="two.taboldstyle" unicode="&#xe026;" horiz-adv-x="515" 
d="M85 373l6 36q103 47 188 47q79 0 123.5 -32t44.5 -85q0 -88 -101 -172q-102 -83 -237 -134q0 -2 -1 -3h315l-4 -30h-420v10q92 31 182 80q90 48 159 114q70 67 70 127q0 43 -36.5 68t-99.5 25q-87 0 -189 -51z" />
    <glyph glyph-name="three.taboldstyle" unicode="&#xe027;" horiz-adv-x="515" 
d="M-25 -110l4 41q71 -71 173 -71q85 0 143 52q59 53 59 134q0 62 -45.5 97.5t-119.5 35.5q-26 0 -56 -6q-1 1 -2 5t-2 4l244 229h-302q3 24 5 32h365q0 -2 -1 -6v-4l-244 -227q89 0 141 -42.5t52 -116.5q0 -102 -73 -160q-73 -59 -170 -59q-106 0 -171 62z" />
    <glyph glyph-name="four.taboldstyle" unicode="&#xe028;" horiz-adv-x="515" 
d="M351 234l29 37h10l-34 -241h97l-3 -30h-97l-25 -167h-35l25 167h-331l1 4v6l385 433h40l-369 -413h277z" />
    <glyph glyph-name="five.taboldstyle" unicode="&#xe029;" horiz-adv-x="515" 
d="M242 211q81 0 132 -41.5t51 -116.5q0 -106 -73 -166q-74 -60 -171 -60q-111 0 -173 61l5 42q25 -33 71 -52t102 -19q82 0 143 53q60 52 60 136q0 61 -43.5 96t-112.5 35q-76 0 -143 -36l-11 3l75 297h305l-5 -32h-276l-55 -222q54 22 119 22z" />
    <glyph glyph-name="six.taboldstyle" unicode="&#xe02a;" horiz-adv-x="515" 
d="M355 606l-187 -256l2 -3q46 33 119 33q77 0 124 -45.5t47 -117.5q0 -97 -70 -161q-68 -64 -168 -64q-83 0 -129 42.5t-46 115.5q0 51 19 93.5t62 104.5l187 258h40zM275 347q-76 0 -134 -53q-56 -53 -56 -137q0 -61 38 -97.5t104 -36.5q80 0 138 53q58 52 58 134
q0 61 -41 99t-107 38z" />
    <glyph glyph-name="seven.taboldstyle" unicode="&#xe02b;" horiz-adv-x="515" 
d="M400 411h-331q3 12 5 32h378l-2 -13l-357 -596h-39z" />
    <glyph glyph-name="eight.taboldstyle" unicode="&#xe02c;" horiz-adv-x="515" 
d="M266 305q-76 0 -129 -47t-53 -118q0 -53 37.5 -85.5t104.5 -32.5q80 0 129 48q51 50 51 115q0 54 -38.5 87t-101.5 33zM310 617q67 0 108 -38t41 -98q0 -51 -33.5 -95.5t-85.5 -64.5q50 -15 77 -49t27 -82q0 -84 -65 -143q-65 -57 -157 -57q-83 0 -129.5 39t-46.5 106
q0 61 41 114q42 53 107 71q-37 14 -58.5 46t-21.5 72q0 76 57 127q56 52 139 52zM304 583q-64 0 -111 -41q-45 -41 -45 -100q0 -46 33.5 -76t87.5 -30q65 0 109 41q45 41 45 98q0 48 -33 78t-86 30z" />
    <glyph glyph-name="nine.taboldstyle" unicode="&#xe02d;" horiz-adv-x="515" 
d="M151 -166l193 262l-2 3q-46 -33 -119 -33q-77 0 -124 45t-47 118q0 97 69 161q70 65 168 65q82 0 128.5 -43t46.5 -116q0 -52 -19 -97.5t-60 -100.5l-194 -264h-40zM237 98q78 0 133 52q57 52 57 139q0 62 -38 98t-105 36q-80 0 -138 -53q-57 -52 -57 -135
q0 -63 39.5 -100t108.5 -37z" />
    <glyph glyph-name="numbersign.taboldstyle" unicode="&#xe02e;" horiz-adv-x="515" 
d="M273 0h-27l59 160h-141l-59 -160h-27l58 160h-73l3 26h79l55 149h-80l4 28h86l51 140h29l-53 -140h140l53 140h27l-52 -140h73l-4 -28h-79l-55 -149h79l-3 -26h-85zM368 335h-141l-55 -149h140z" />
    <glyph glyph-name="dollar.taboldstyle" unicode="&#xe02f;" horiz-adv-x="515" 
d="M433 522l-4 -38q-56 38 -132 38q-57 0 -101 -26q-42 -26 -42 -83q0 -51 92 -94q41 -18 60.5 -28t50.5 -31t45 -46t14 -57q0 -76 -52 -116q-53 -41 -127 -45q-2 -20 -13 -90h-31l12 89q-89 1 -154 44l3 38q70 -52 161 -52q73 0 119 31.5t46 92.5q0 70 -93 113q-5 3 -32 15
t-35.5 16.5t-30 16t-30 20.5t-21 22t-17 28t-4.5 32q0 69 49 103q49 35 118 40l12 84h31l-12 -84q64 -4 118 -33z" />
    <glyph glyph-name="euro.taboldstyle" unicode="&#xe030;" horiz-adv-x="515" 
d="M441 56q-1 -8 -2 -14.5t-2 -12.5t-1 -8q-66 -29 -132 -29q-99 0 -154.5 52t-55.5 152q0 20 1 26h-39l4 28h345l-4 -28h-270q-1 -5 -1 -23q0 -85 48 -130t133 -45q63 0 130 32zM493 528v-35q-46 25 -114 25q-84 0 -143.5 -48.5t-85.5 -136.5h267l-4 -28h-345l4 28h40
q26 101 97 159.5t168 58.5q68 0 116 -23z" />
    <glyph glyph-name="florin.taboldstyle" unicode="&#xe031;" horiz-adv-x="515" 
d="M216 154l27 135h-84l3 30h88q19 128 56 191q36 62 115 62q28 0 64 -11v-30q-35 9 -63 9q-56 0 -84 -40.5t-47 -138.5l-8 -42h110q0 -3 -1 -15t-1 -15h-114q-37 -200 -51 -248q-33 -111 -94 -135q-21 -8 -46 -8q-32 0 -69 14v34q36 -14 67 -14q58 0 82 46q25 49 50 176z
" />
    <glyph glyph-name="sterling.taboldstyle" unicode="&#xe032;" horiz-adv-x="515" 
d="M472 541l-1 -33q-37 15 -91 15q-62 0 -104 -39t-54 -115l-11 -75h172l-4 -29h-172q-31 -186 -89 -234h298l-4 -31h-353l1 10q78 40 112 255h-67l4 29h68l11 76q8 51 29 89t50 57.5t57.5 28.5t58.5 9q53 0 89 -13z" />
    <glyph glyph-name="cent.taboldstyle" unicode="&#xe033;" horiz-adv-x="515" 
d="M305 447l13 91h29l-12 -91q50 -2 80 -18q-1 -14 -4 -36q-39 24 -90 24q-72 0 -126 -55q-53 -55 -53 -137q0 -60 35 -95t97 -35q61 0 113 37l-4 -37q-44 -26 -103 -31l-13 -91h-30l14 91q-70 4 -107.5 46t-37.5 112q0 92 57 156q57 65 142 69z" />
    <glyph glyph-name="yen.taboldstyle" unicode="&#xe034;" horiz-adv-x="515" 
d="M221 277l-119 266h39l119 -274l187 274h39l-185 -266h140l-4 -28h-361l4 28h141zM265 164l-23 -164h-35l22 164h-164l3 28h361l-3 -28h-161z" />
    <glyph glyph-name="zero.textoldstyle" unicode="&#xe048;" horiz-adv-x="515" 
d="M287 453q88 0 140 -55q54 -55 54 -140q0 -108 -78 -188q-76 -79 -181 -79q-92 0 -145 53q-52 53 -52 139q0 111 78 190q80 80 184 80zM282 421q-91 0 -155 -70q-64 -68 -64 -164q0 -73 44 -118.5t119 -45.5q91 0 154 68q64 68 64 163q0 72 -44 119q-44 48 -118 48z" />
    <glyph glyph-name="one.textoldstyle" unicode="&#xe049;" horiz-adv-x="433" 
d="M252 396l-193 -102q2 10 5 37l222 117h8l-59 -418h161q-4 -26 -4 -30h-375l4 30h179z" />
    <glyph glyph-name="two.textoldstyle" unicode="&#xe04a;" horiz-adv-x="506" 
d="M62 373q6 27 6 36q103 47 188 47q80 0 124.5 -32t44.5 -85q0 -88 -102 -172q-102 -83 -237 -134v-1l-1 -2h315q0 -4 -4 -30h-420v10q92 31 182 80q90 48 159 114q70 67 70 127q0 43 -36.5 68t-99.5 25q-87 0 -189 -51z" />
    <glyph glyph-name="three.textoldstyle" unicode="&#xe04b;" horiz-adv-x="454" 
d="M-55 -110q4 39 4 41q71 -71 173 -71q85 0 143 52q59 53 59 134q0 62 -45.5 97.5t-119.5 35.5q-25 0 -56 -6q-1 1 -2 5t-2 4l244 229h-302q0 4 2.5 17t2.5 15h366l-2 -10l-243 -227q88 0 140 -42.5t52 -116.5q0 -102 -73 -160q-73 -59 -170 -59q-103 0 -171 62z" />
    <glyph glyph-name="four.textoldstyle" unicode="&#xe04c;" horiz-adv-x="515" 
d="M351 234l29 37h10l-34 -241h97l-3 -30h-97l-25 -167h-35l25 167h-331l1 4v6l385 433h40l-369 -413h277z" />
    <glyph glyph-name="five.textoldstyle" unicode="&#xe04d;" horiz-adv-x="507" 
d="M448 411h-277l-54 -223q55 23 119 23q81 0 131.5 -41.5t50.5 -116.5q0 -106 -73 -166t-171 -60q-109 0 -173 61q2 12 5 42q61 -71 173 -71q82 0 143 53q60 52 60 136q0 61 -43.5 96t-111.5 35q-74 0 -144 -37l-11 3l75 298h305z" />
    <glyph glyph-name="six.textoldstyle" unicode="&#xe04e;" horiz-adv-x="515" 
d="M162 350h7q43 30 114 30q77 0 124 -45.5t47 -117.5q0 -97 -70 -161q-68 -64 -168 -64q-82 0 -128 42.5t-46 115.5q0 51 19 95.5t61 102.5l187 258h40q-144 -194 -187 -256zM270 347q-77 0 -135 -53q-56 -53 -56 -137q0 -61 38.5 -97.5t104.5 -36.5q79 0 137 53
q58 52 58 134q0 61 -40.5 99t-106.5 38z" />
    <glyph glyph-name="seven.textoldstyle" unicode="&#xe04f;" horiz-adv-x="428" 
d="M358 411h-329l4 32h377l-2 -13l-358 -596h-39z" />
    <glyph glyph-name="eight.textoldstyle" unicode="&#xe050;" horiz-adv-x="515" 
d="M266 305q-76 0 -129 -47t-53 -118q0 -53 37.5 -85.5t104.5 -32.5q80 0 129 48q51 50 51 115q0 54 -38.5 87t-101.5 33zM310 617q67 0 108 -38t41 -98q0 -51 -33.5 -95.5t-85.5 -64.5q50 -15 77 -49t27 -82q0 -84 -65 -143q-65 -57 -157 -57q-83 0 -129.5 39t-46.5 106
q0 61 41 114q42 53 107 71q-37 14 -58.5 46t-21.5 72q0 76 57 127q56 52 139 52zM304 583q-64 0 -111 -41q-45 -41 -45 -100q0 -46 33.5 -76t87.5 -30q65 0 109 41q45 41 45 98q0 48 -33 78t-86 30z" />
    <glyph glyph-name="nine.textoldstyle" unicode="&#xe051;" horiz-adv-x="515" 
d="M151 -166l193 262l-2 3q-45 -33 -119 -33q-77 0 -124 45t-47 118q0 97 69 161q70 65 168 65q82 0 128.5 -43t46.5 -116q0 -52 -19 -97.5t-60 -100.5l-194 -264h-40zM237 98q78 0 133 52q57 52 57 139q0 62 -38 98t-105 36q-80 0 -138 -53q-57 -52 -57 -135
q0 -63 39.5 -100t108.5 -37z" />
    <glyph glyph-name="numbersign.textoldstyle" unicode="&#xe052;" horiz-adv-x="482" 
d="M243 0h-27l58 160h-141l-59 -160h-27l58 160h-73l3 26h80l54 149h-79l4 28h85l51 140h29l-53 -140h141l52 140h27l-51 -140h73l-4 -28h-80l-54 -149h78l-3 -26h-84zM337 335h-141l-54 -149h140z" />
    <glyph glyph-name="dollar.textoldstyle" unicode="&#xe053;" horiz-adv-x="463" 
d="M401 522q-1 -16 -4 -38q-56 38 -132 38q-56 0 -100 -26q-43 -25 -43 -83q0 -51 92 -94q41 -18 60.5 -28t50.5 -31t45 -46t14 -57q0 -76 -52 -116q-53 -41 -127 -45q-3 -20 -13 -90h-31q10 73 13 89q-90 1 -155 44l3 38q73 -52 161 -52q73 0 119 31.5t46 92.5
q0 70 -93 113q-5 3 -32 15t-35.5 16.5t-30 16t-30 20.5t-21 22t-17 28t-4.5 32q0 69 49 103q49 35 119 40l11 84h31l-12 -84q64 -4 118 -33z" />
    <glyph glyph-name="euro.textoldstyle" unicode="&#xe054;" horiz-adv-x="503" 
d="M427 56q-1 -8 -2 -14.5t-2 -12.5t-1 -8q-64 -29 -131 -29q-100 0 -155.5 52.5t-55.5 153.5q0 19 1 24h-39l4 28h345q0 -5 -1 -10.5t-2 -10.5t-1 -7h-270q-1 -5 -1 -23q0 -85 48 -130t133 -45q63 0 130 32zM480 528l-3 -35q-46 25 -112 25q-85 0 -143.5 -47.5
t-84.5 -137.5h266l-4 -28h-345l4 28h40q26 101 97 159.5t169 58.5q65 0 116 -23z" />
    <glyph glyph-name="florin.textoldstyle" unicode="&#xe055;" horiz-adv-x="385" 
d="M149 154l27 135h-84l3 30h88q19 128 56 191q36 62 115 62q28 0 64 -11v-30q-34 9 -63 9q-56 0 -84 -40.5t-47 -138.5l-8 -42h110q0 -3 -1 -15t-1 -15h-114q-37 -200 -53 -251q-33 -110 -95 -133q-18 -7 -42 -7q-32 0 -69 14v34q36 -14 67 -14q56 0 83 52q18 34 48 170z
" />
    <glyph glyph-name="sterling.textoldstyle" unicode="&#xe056;" horiz-adv-x="450" 
d="M434 541v-33q-38 15 -92 15q-62 0 -103.5 -39t-53.5 -115l-11 -75h172l-5 -29h-172q-17 -97 -37 -152.5t-52 -81.5h298l-3 -31h-354l1 10q78 40 112 255h-67l5 29h67l12 76q8 51 29 89t50 57.5t57.5 28.5t58.5 9q52 0 88 -13z" />
    <glyph glyph-name="cent.textoldstyle" unicode="&#xe057;" horiz-adv-x="443" 
d="M284 447l13 91h29l-12 -91q50 -2 80 -18l-4 -36q-39 24 -90 24q-72 0 -126 -55q-53 -55 -53 -137q0 -60 34.5 -95t96.5 -35q64 0 114 37l-4 -37q-44 -26 -103 -31l-13 -91h-30l14 91q-70 4 -107.5 46t-37.5 112q0 91 56 156q57 64 143 69z" />
    <glyph glyph-name="yen.textoldstyle" unicode="&#xe058;" horiz-adv-x="482" 
d="M208 277l-119 266h39l119 -274l187 274h39l-185 -266h140l-4 -28h-361l4 28h141zM252 164l-23 -164h-35l23 164h-165l3 28h361l-3 -28h-161z" />
    <glyph glyph-name="percent.text" unicode="&#xe059;" horiz-adv-x="659" 
d="M221 560q50 0 81.5 -32t31.5 -81q0 -61 -44 -108q-44 -45 -105 -45q-53 0 -84 30.5t-31 79.5q0 64 45 110t106 46zM217 529q-47 0 -81 -36q-34 -34 -34 -84q0 -38 23 -62t63 -24q48 0 80 35q33 36 33 84q0 38 -23 62.5t-61 24.5zM541 584h35l-448 -599h-34zM484 260
q51 0 81.5 -31t30.5 -82q0 -62 -44 -108q-44 -44 -105 -44q-53 0 -84 30.5t-31 79.5q0 64 46 109q46 46 106 46zM480 229q-48 0 -82 -36q-34 -35 -34 -86q0 -36 24 -59.5t63 -23.5q47 0 80 35q33 36 33 83q0 39 -23 63t-61 24z" />
    <glyph glyph-name="perthousand.text" unicode="&#xe05a;" horiz-adv-x="958" 
d="M221 560q50 0 81.5 -32t31.5 -81q0 -61 -44 -108q-44 -45 -105 -45q-53 0 -84 30.5t-31 79.5q0 64 45 110t106 46zM217 529q-47 0 -81 -36q-34 -34 -34 -84q0 -38 23 -62t63 -24q48 0 80 35q33 36 33 84q0 38 -23 62.5t-61 24.5zM484 260q51 0 81.5 -31t30.5 -82
q0 -62 -44 -108q-44 -44 -105 -44q-53 0 -84 30.5t-31 79.5q0 64 46 109q46 46 106 46zM480 229q-48 0 -82 -36q-34 -35 -34 -86q0 -36 24 -59.5t63 -23.5q47 0 80 35q33 36 33 83q0 39 -23 63t-61 24zM786 260q51 0 81.5 -31t30.5 -82q0 -62 -44 -108q-44 -44 -105 -44
q-53 0 -84 30.5t-31 79.5q0 64 45 109q46 46 107 46zM782 229q-48 0 -82 -36q-34 -35 -34 -86q0 -36 24 -59.5t63 -23.5q47 0 80 35q33 36 33 82q0 39 -23 63.5t-61 24.5zM542 584h34l-447 -599h-34z" />
    <glyph glyph-name="asuperior" unicode="&#xe06c;" horiz-adv-x="348" 
d="M300 299h-20l5 73q-40 -79 -128 -79q-58 0 -88.5 34t-30.5 90q0 77 44 127q44 51 115 51q43 0 72 -20t39 -57l14 71h23l-12 -82l-20 -126q-13 -81 -13 -82zM200 570q-60 0 -96 -44q-35 -44 -35 -105q0 -101 92 -101q59 0 96 43q38 44 38 106q0 45 -25.5 73t-69.5 28z" />
    <glyph glyph-name="bsuperior" unicode="&#xe06d;" horiz-adv-x="374" 
d="M192 294q-88 0 -114 71l-14 -65h-25l69 464h33l-37 -235q45 70 129 70q61 0 94.5 -34.5t33.5 -90.5q0 -79 -48 -130q-48 -50 -121 -50zM231 571q-60 0 -99 -43q-39 -44 -39 -104q0 -47 25.5 -74.5t71.5 -27.5q60 0 98 42q38 44 38 104q0 47 -25 75t-70 28z" />
    <glyph glyph-name="dsuperior" unicode="&#xe06f;" horiz-adv-x="371" 
d="M386 764l-69 -464h-26l6 60q-44 -65 -130 -65q-58 0 -91.5 34.5t-33.5 88.5q0 79 48 130t118 51q83 0 110 -70l21 136l15 99h32zM212 570q-62 0 -99 -43t-37 -104q0 -46 25.5 -73.5t71.5 -27.5q60 0 97 43q39 43 39 106q0 45 -26 72t-71 27z" />
    <glyph glyph-name="esuperior" unicode="&#xe070;" horiz-adv-x="319" 
d="M295 366l-6 -38q-62 -35 -118 -35q-62 0 -95.5 33t-33.5 92q0 74 48 127t121 53q46 0 73 -23t27 -57q0 -41 -45 -67t-131 -26q-37 0 -58 3l-1 -2v-9q0 -44 25 -69.5t71 -25.5q65 0 123 44zM211 569q-48 0 -83.5 -31.5t-47.5 -81.5q32 -3 58 -3q68 0 103.5 18t35.5 46
q0 22 -17.5 37t-48.5 15z" />
    <glyph glyph-name="egravesuperior" unicode="&#xe071;" horiz-adv-x="319" 
d="M161 749l88 -113q-22 0 -28 -1l-91 92q4 2 15.5 11t15.5 11zM295 366l-6 -38q-62 -35 -118 -35q-62 0 -95.5 33t-33.5 92q0 74 48 127t121 53q46 0 73 -23t27 -57q0 -41 -45 -67t-131 -26q-37 0 -58 3l-1 -2v-9q0 -44 25 -69.5t71 -25.5q65 0 123 44zM211 569
q-48 0 -83.5 -31.5t-47.5 -81.5q32 -3 58 -3q68 0 103.5 18t35.5 46q0 22 -17.5 37t-48.5 15z" />
    <glyph glyph-name="hsuperior" unicode="&#xe073;" horiz-adv-x="344" 
d="M325 486l-25 -186h-32l26 181q1 4 1 17q0 35 -20 52.5t-54 17.5q-41 0 -80 -33q-39 -32 -47 -92l-20 -143h-30l65 462h30l-18 -119q-5 -39 -17 -119q21 35 55.5 53.5t70.5 18.5q97 0 97 -87q0 -1 -2 -23z" />
    <glyph glyph-name="isuperior" unicode="&#xe074;" horiz-adv-x="125" 
d="M85 590h33l-42 -290h-31zM118 705q8 0 14 -6t6 -14q0 -9 -8 -17t-19 -8q-8 0 -14 6t-6 15q0 11 8.5 17.5t18.5 6.5z" />
    <glyph glyph-name="lsuperior" unicode="&#xe077;" horiz-adv-x="119" 
d="M137 762l-65 -462h-30l65 462h30z" />
    <glyph glyph-name="msuperior" unicode="&#xe078;" horiz-adv-x="552" 
d="M505 300h-32l26 183q1 5 1 20q0 66 -70 66q-42 0 -76 -28.5t-42 -79.5l-23 -161h-30q10 75 25 179q1 5 1 20q0 70 -71 70q-40 0 -75 -31q-37 -32 -44 -85q-2 -8 -4.5 -25t-3.5 -24l-13 -104h-31l40 290h22q-3 -66 -3 -67q20 35 53.5 54t66.5 19q84 0 91 -72q19 34 55 53
t71 19q44 0 68.5 -23.5t24.5 -67.5q0 -18 -1 -23q-10 -60 -26 -182z" />
    <glyph glyph-name="osuperior" unicode="&#xe079;" horiz-adv-x="357" 
d="M215 599q60 0 94.5 -35t34.5 -93q0 -73 -48 -126q-46 -51 -122 -51q-63 0 -97.5 34t-34.5 93q0 73 48 126q48 52 125 52zM214 570q-61 0 -98 -43q-38 -43 -38 -104q0 -47 25 -74.5t71 -27.5q59 0 98 43q39 44 39 105q0 45 -26.5 73t-70.5 28z" />
    <glyph glyph-name="rsuperior" unicode="&#xe07c;" horiz-adv-x="225" 
d="M102 502q17 49 52 72t76 23q10 0 34 -2v-31q-25 5 -43 5q-105 0 -129 -170l-14 -99h-31l41 290h21q-2 -15 -7 -88z" />
    <glyph glyph-name="ssuperior" unicode="&#xe07d;" horiz-adv-x="252" 
d="M13 322l5 33q45 -33 98 -33q38 0 62 14.5t24 43.5q0 22 -23 38.5t-51 25.5t-51 28t-23 45q0 40 30.5 61t76.5 21q49 0 89 -21l-5 -33q-44 26 -84 26q-73 0 -73 -50q0 -30 74 -56q30 -11 52 -32.5t22 -47.5q0 -43 -34 -67t-87 -24q-59 0 -102 28z" />
    <glyph glyph-name="tsuperior" unicode="&#xe07e;" horiz-adv-x="224" 
d="M141 593h103l-3 -27h-103l-26 -181q-1 -4 -1 -18q0 -44 46 -44q31 0 68 24l-5 -31q-30 -21 -70 -21q-73 0 -73 63q0 14 3 29l25 179h-55q0 3 1 11t1 10l57 5l26 86h18z" />
    <glyph glyph-name="i.dot" unicode="&#xe096;" horiz-adv-x="203" 
d="M153 610q23 0 23 -24q0 -13 -9 -22.5t-22 -9.5q-25 0 -25 23q0 13 10 23t23 10zM146 444l-62 -444h-37l62 444h37z" />
    <glyph glyph-name="a.alt" unicode="&#xe0a8;" horiz-adv-x="485" 
d="M169 22q70 0 128 45q57 44 71 136l4 26h-126q-85 0 -134.5 -31.5t-49.5 -95.5q0 -38 29.5 -59t77.5 -21zM354 95l-1 1h-2q-28 -52 -80 -78.5t-114 -26.5q-66 0 -99.5 29t-33.5 77q0 80 60.5 120.5t168.5 40.5h123q5 52 5 54q0 109 -122 109q-72 0 -151 -43l2 14t2 13t1 8
q70 40 152 40q153 0 153 -138q0 -1 -2 -31l-40 -284h-30q7 68 8 95z" />
    <glyph glyph-name="g.alt" unicode="&#xe0a9;" horiz-adv-x="537" 
d="M445 339l4 1l25 103h25l-60 -420q-17 -121 -89 -187t-192 -66q-42 0 -91 12q-46 10 -83 34q4 33 4 38q74 -52 170 -52q102 0 166 58t80 164q2 18 13 81l-4 2q-66 -116 -190 -116q-89 0 -136 53t-47 133q0 121 68 198q69 77 174 77q128 0 163 -113zM225 21q90 0 149 68
q59 70 59 168q0 75 -38.5 119t-109.5 44q-89 0 -148 -68q-58 -67 -58 -166q0 -76 38 -120.5t108 -44.5z" />
    <glyph glyph-name="A2.alt" unicode="&#xe0b6;" horiz-adv-x="591" 
d="M541 0h-38l-159 586h-2l-323 -586h-39l370 666h8z" />
    <glyph glyph-name="F.alt" unicode="&#xe0b7;" horiz-adv-x="504" 
d="M130 311l-74 -521h-37l122 871h406l-5 -35h-368l-40 -280h337l-5 -35h-336z" />
    <glyph glyph-name="I.alt" unicode="&#xe0b8;" horiz-adv-x="225" 
d="M207 793l-111 -793h-37l111 793h37z" />
    <glyph glyph-name="L.alt" unicode="&#xe0b9;" horiz-adv-x="498" 
d="M90 35h367l-5 -35h-404l111 793h38z" />
    <glyph glyph-name="P2.alt" unicode="&#xe0ba;" horiz-adv-x="546" 
d="M119 237l-63 -447h-39l123 870h207q94 0 146 -51t52 -132q0 -111 -78 -176q-77 -64 -180 -64h-168zM329 628h-155l-51 -359h162q98 0 158 60q61 61 61 149q0 68 -44 109t-131 41z" />
    <glyph glyph-name="T.alt" unicode="&#xe0bb;" horiz-adv-x="524" 
d="M352 758l-106 -758h-38l106 758h-228l4 35h494q0 -2 -1 -8t-2 -12.5t-2 -14.5h-227z" />
    <glyph glyph-name="Y.alt" unicode="&#xe0bc;" horiz-adv-x="561" 
d="M254 43l322 616h37l-458 -874h-37l110 209l-166 665h39l151 -616h2z" />
    <glyph glyph-name="Q.alt" unicode="&#xe0bd;" horiz-adv-x="761" 
d="M274 -73l385 -72l-15 -36l-386 72zM437 670q131 0 207 -81q76 -79 76 -208q0 -161 -110 -276q-110 -113 -263 -113q-129 0 -207 79q-77 80 -77 206q0 162 109 277q110 116 265 116zM435 635q-137 0 -234 -106q-98 -106 -98 -250q0 -110 66 -182q66 -71 177 -71
q140 0 237 103q98 104 98 251q0 112 -67 183q-68 72 -179 72z" />
    <glyph glyph-name="Q2.alt" unicode="&#xe0be;" horiz-adv-x="761" 
d="M366 -6l-28 -203h-36l14 101l14 101q-122 6 -195 84q-73 79 -73 200q0 160 110 276t264 116q131 0 208 -80q76 -79 76 -208q0 -156 -104 -269q-103 -111 -250 -118zM435 635q-136 0 -235 -106q-98 -106 -98 -250q0 -107 62 -174t171 -80q9 68 19 135l19 133h36l-38 -266
q131 11 219 111q90 102 90 242q0 112 -67 183q-66 72 -178 72z" />
    <glyph glyph-name="uniE0C0" unicode="&#xe0c0;" horiz-adv-x="504" 
d="M192 758l-106 -758h-38l111 792h406q0 -1 -2.5 -15t-2.5 -19h-368z" />
    <glyph glyph-name="uniE0C4" unicode="&#xe0c4;" horiz-adv-x="761" 
d="M337 -209h-36l29 202q-122 4 -196 83q-72 80 -72 201q0 160 110 276t264 116q131 0 208 -80q76 -79 76 -208q0 -157 -104 -269q-103 -111 -251 -118q-20 -151 -28 -203zM334 25l86 609q-130 -8 -225 -111q-93 -103 -93 -244q0 -109 63 -179q63 -71 169 -75zM456 634
l-86 -607q130 9 220 111q91 101 91 242q0 106 -61 176q-62 71 -164 78z" />
    <glyph glyph-name="uniE0C5" unicode="&#xe0c5;" horiz-adv-x="730" 
d="M621 265l55 395h38l-57 -400q-16 -113 -99 -187q-81 -72 -212 -77q-11 -69 -29 -206h-38l29 206q-112 6 -173.5 66t-61.5 159q0 22 3 46l55 393h37l-56 -394q-3 -21 -3 -40q0 -86 52.5 -138.5t152.5 -55.5l88 628h37l-88 -628q115 5 184 68q73 65 86 165z" />
    <glyph glyph-name="Parenleft" unicode="&#xe0d8;" horiz-adv-x="279" 
d="M304 762l21 -8q-213 -244 -213 -510q0 -171 90 -331l-24 -9q-101 161 -101 347q0 266 227 511z" />
    <glyph glyph-name="Parenright" unicode="&#xe0d9;" horiz-adv-x="278" 
d="M91 754l24 8q107 -166 107 -342q0 -132 -60 -269q-60 -136 -162 -247l-22 9q209 248 209 511q0 171 -96 330z" />
    <glyph glyph-name="Hyphen" unicode="&#xe0da;" horiz-adv-x="366" 
d="M303 255h-246l4 37h247z" />
    <glyph glyph-name="Bracketleft" unicode="&#xe0db;" horiz-adv-x="241" 
d="M160 -87h-138l119 846h138l-5 -28h-104l-110 -789h104z" />
    <glyph glyph-name="Bracketright" unicode="&#xe0dc;" horiz-adv-x="241" 
d="M97 759h137l-119 -846h-137l4 29h104l111 789h-104z" />
    <glyph glyph-name="Braceleft" unicode="&#xe0dd;" horiz-adv-x="266" 
d="M64 361v3q1 4 1 6q61 14 74 114l23 154q5 33 14 65q17 52 77 57h46l-4 -29h-36q-25 0 -40 -18q-13 -16 -17 -33t-8 -53l-18 -130q-6 -36 -12 -57q-18 -59 -56 -74v-1q-1 -1 -1 -2q35 -23 35 -77q0 -16 -8 -82l-27 -190q-1 -5 -1 -20q0 -51 41 -51h36q0 -4 -4 -30h-36
q-71 0 -71 69q0 17 4 44l29 215q4 25 4 45q0 64 -45 75z" />
    <glyph glyph-name="Braceright" unicode="&#xe0de;" horiz-adv-x="266" 
d="M224 370q0 -3 -2 -11q-61 -14 -74 -120l-30 -213q-5 -37 -11 -53q-8 -24 -30 -42t-53 -18h-41q0 4 4 30h36q49 0 60 71l5 34q3 20 20 142q14 95 28 125q16 34 46 48v1l1 2q-37 15 -37 72q0 18 4 46l23 163q0 3 1 17t1 18q0 49 -42 49h-36l4 29h46q62 0 62 -72
q0 -5 -2 -29l-24 -176q-3 -18 -3 -36q0 -65 44 -77z" />
    <glyph glyph-name="Endash" unicode="&#xe0df;" horiz-adv-x="528" 
d="M493 258h-465l4 33h465z" />
    <glyph glyph-name="Emdash" unicode="&#xe0e0;" horiz-adv-x="816" 
d="M778 258h-747l4 33h748z" />
    <glyph glyph-name="Exclamdown" unicode="&#xe0e1;" horiz-adv-x="244" 
d="M115 448q-1 15 10 25.5t26 10.5q12 0 19 -8t7 -20q0 -15 -10 -25.5t-25 -10.5q-12 0 -19.5 8t-7.5 20zM34 -206l85 551h27l-71 -551h-41z" />
    <glyph glyph-name="Questiondown" unicode="&#xe0e2;" horiz-adv-x="481" 
d="M299 341l38 10q10 -24 10 -50q0 -69 -96 -141q-90 -67 -119 -99q-56 -59 -55 -119q0 -54 37.5 -85.5t103.5 -31.5q72 0 151 35l-5 -39q-57 -25 -116 -30t-105.5 8.5t-75.5 49t-28 86.5q0 95 95 174q16 13 47 37t49 39t38.5 35.5t30.5 39t10 36.5q0 24 -10 45zM358 454
q0 -14 -10 -24.5t-24 -10.5q-13 0 -20.5 7.5t-7.5 19.5q0 14 11.5 24.5t24.5 10.5q26 0 26 -27z" />
    <glyph glyph-name="Guillemotleft" unicode="&#xe0e3;" horiz-adv-x="379" 
d="M75 228l116 -178h-42l-113 173v4l1 3l162 173h39zM194 228l116 -178h-41l-115 173v4l1 3l163 173h39z" />
    <glyph glyph-name="Guillemotright" unicode="&#xe0e4;" horiz-adv-x="379" 
d="M334 223l-163 -173h-41l167 178l-115 175h39l114 -173l-1 -3v-4zM215 223l-162 -173h-42l166 178l-114 175h40l113 -173v-3q-1 -3 -1 -4z" />
    <glyph glyph-name="uniE12C" unicode="&#xe12c;" horiz-adv-x="1724" 
d="M1422 0h-38l-22 76q-18 64 -24 89h-348l-91 -165h-337l-395 579h-2l-80 -579h-37l93 664h11l395 -580h2l82 576h400q-3 -12 -5 -34h-362l-36 -258h337q-2 -22 -5 -34h-337l-42 -299h299l347 625h307q85 0 138 -46q55 -45 55 -123q0 -92 -70 -159q-71 -68 -189 -78
l82 -254h-40l-86 274q2 2 2 9q127 1 195 62q68 62 68 143q0 63 -44 100.5t-120 37.5h-274zM1224 585h-3l-213 -387h321z" />
    </font>
</defs>
</svg>
