<?xml version="1.0" standalone="no"?>
<!DOCTYPE svg PUBLIC "-//W3C//DTD SVG 1.1//EN" "http://www.w3.org/Graphics/SVG/1.1/DTD/svg11.dtd" >
<svg>
<metadata>
Created by FontForge 20120731 at Tue Dec 15 21:05:30 2015
 By ,,,
Copyright (c) 2013 Parachute, www.parachute.gr.  All rights reserved.
</metadata>
<defs>
<font id="PFBagueSansPro-UltraBlackItalic" horiz-adv-x="587" >
  <font-face 
    font-family="PF Bague Sans Pro"
    font-weight="1000"
    font-style="italic"
    font-stretch="normal"
    units-per-em="1000"
    panose-1="2 0 5 6 0 0 0 9 0 3"
    ascent="800"
    descent="-200"
    x-height="447"
    cap-height="659"
    bbox="-510 -353 1713 975"
    underline-thickness="100"
    underline-position="-25"
    slope="-12"
    unicode-range="U+0020-FB06"
  />
<missing-glyph horiz-adv-x="465" 
d="M490 0h-455v700h455v-700zM262 265l-99 -179h198zM162 614l100 -179l99 179h-199zM212 350l-92 163v-327zM403 512l-89 -162l89 -164v326z" />
    <glyph glyph-name="fj" unicode="fj" horiz-adv-x="602" 
d="M304 447h286l-51 -394q-20 -148 -98 -217t-212 -73l-67 157q84 6 121 40q36 32 47 111l27 218h-75l-40 -289h-208l40 289h-64l20 143l66 16l10 70q33 236 294 236q92 0 168 -25l-7 -171q-67 29 -140 29q-52 0 -77 -20t-32 -68z" />
    <glyph glyph-name="ffj" unicode="ffj" horiz-adv-x="902" 
d="M311 496l-7 -48h87l10 70q5 29 11 51q-16 4 -28 4q-28 0 -47.5 -20t-25.5 -57zM652 290h-75l-40 -290h-209l40 289h-86l-52 -375h-208l52 375h-64l20 143l66 16l7 49q17 118 88.5 179t183.5 61q72 0 138 -26q71 43 182 43q90 0 166 -25l-7 -171q-69 29 -138 29
q-52 0 -77 -20t-32 -68l-8 -51h286l-51 -394q-20 -148 -98 -217t-212 -73l-67 157q84 6 121 40q36 32 47 111z" />
    <glyph glyph-name="f_t" unicode="ft" horiz-adv-x="702" 
d="M491 714l-8 -166q-45 18 -83 18q-77 0 -90 -82l-6 -36h78l217 156h24l-22 -157h108l-22 -156h-108l-11 -78q-9 -62 40 -62q24 0 69 20l-22 -150q-59 -36 -146 -36q-180 0 -155 184l17 120h-89l-71 -508h-208l71 508h-64l20 143l66 16l7 47q33 237 254 237q65 0 134 -18z
" />
    <glyph glyph-name="ff" unicode="ff" horiz-adv-x="688" 
d="M788 714l-6 -168q-54 20 -86 20q-77 0 -90 -82l-6 -36h119l-22 -159h-119l-62 -449h-208l62 449h-88l-74 -508h-208l74 508h-64l20 143l66 16l7 49q17 118 89 179t185 61q86 0 158 -35q57 28 136 28q57 0 117 -16zM311 496l-7 -48h88l7 47q9 50 17 73q-18 5 -30 5
q-29 0 -49 -20t-26 -57z" />
    <glyph glyph-name="fi" unicode="fi" horiz-adv-x="602" 
d="M591 447l-62 -447h-213l40 289h-74l-67 -489h-208l67 489h-64l20 143l66 16l10 70q33 236 294 236q88 0 164 -25l-6 -170q-63 28 -137 28q-52 0 -77 -20t-32 -68l-8 -52h287z" />
    <glyph glyph-name="fl" unicode="fl" horiz-adv-x="622" 
d="M548 0h-211l81 580h-7q-46 0 -69.5 -19.5t-30.5 -66.5l-7 -47h68l-22 -158h-68l-68 -488h-208l68 488h-64l20 143l66 16l10 65q36 236 281 236q131 0 261 -27z" />
    <glyph glyph-name="ffi" unicode="ffi" horiz-adv-x="902" 
d="M890 447l-58 -447h-213l37 289h-79l-59 -449h-209l59 449h-86l-70 -508h-208l70 508h-64l20 143l66 16l7 49q17 118 88.5 179t183.5 61q72 0 138 -26q71 43 182 43q89 0 165 -25l-9 -170q-65 28 -135 28q-52 0 -77 -20t-32 -68l-8 -52h291zM311 496l-7 -48h87l10 70
q5 29 11 51q-16 4 -28 4q-28 0 -47.5 -20t-25.5 -57z" />
    <glyph glyph-name="ffl" unicode="ffl" horiz-adv-x="916" 
d="M842 0h-212l81 580h-6q-46 0 -69 -19.5t-30 -66.5l-7 -47h67l-22 -158h-67l-62 -449h-209l62 449h-86l-72 -508h-208l72 508h-64l20 143l66 16l7 49q17 118 88.5 179t183.5 61q65 0 139 -27q66 39 167 39q35 0 118 -8q75 -7 142 -23zM311 496l-7 -48h86l10 65q2 24 11 56
q-15 4 -25 4q-29 0 -49 -20t-26 -57z" />
    <glyph glyph-name="longs_t" unicode="&#x17f;t" horiz-adv-x="718" 
d="M491 711l-7 -166q-52 21 -84 21q-78 0 -90 -82l-96 -703h-208l68 508h-64l20 143l66 16l7 47q33 238 246 238q64 0 142 -22zM692 171l-22 -150q-58 -36 -145 -36q-181 0 -156 184l17 122h-61l17 116l273 197h24l-22 -157h107l-22 -156h-107l-11 -78q-9 -62 39 -62
q24 0 69 20z" />
    <glyph glyph-name=".notdef" horiz-adv-x="465" 
d="M490 0h-455v700h455v-700zM262 265l-99 -179h198zM162 614l100 -179l99 179h-199zM212 350l-92 163v-327zM403 512l-89 -162l89 -164v326z" />
    <glyph glyph-name=".null" horiz-adv-x="0" 
 />
    <glyph glyph-name="nonmarkingreturn" horiz-adv-x="333" 
 />
    <glyph glyph-name="space" unicode=" " horiz-adv-x="234" 
 />
    <glyph glyph-name="exclam" unicode="!" horiz-adv-x="351" 
d="M84 226l48 470h211l-84 -470h-175zM169 186q34 0 57 -24.5t23 -61.5q0 -44 -33 -78t-75 -34q-37 0 -62 24.5t-25 60.5q0 44 35 79q35 34 80 34z" />
    <glyph glyph-name="quotedbl" unicode="&#x22;" horiz-adv-x="415" 
d="M247 685l-38 -266h-145l38 266h145zM436 685l-38 -266h-145l38 266h145z" />
    <glyph glyph-name="numbersign" unicode="#" 
d="M150 -1h-115l70 200h-70l15 100h92l23 68h-78l14 97h99l58 163h113l-58 -163h59l58 163h111l-57 -163h89l-14 -97h-108l-25 -68h92l-15 -100h-111l-71 -200h-113l70 200h-60zM338 367h-60l-23 -68h60z" />
    <glyph glyph-name="dollar" unicode="$" 
d="M305 -116h-108l17 116q-106 11 -175 52l26 188q31 -29 104 -56t120 -27q51 0 51 39q0 29 -84 72q-157 77 -155 190q0 76 52 130.5t153 69.5l18 125h108l-18 -124q79 -9 148 -39l-24 -166q-38 26 -90.5 42t-95.5 16q-25 0 -40 -11t-15 -28q0 -16 22.5 -34t67.5 -45
q167 -87 166 -204q0 -73 -56.5 -129t-174.5 -60z" />
    <glyph glyph-name="percent" unicode="%" horiz-adv-x="858" 
d="M640 687h119l-535 -722h-119zM276 695q74 0 116.5 -40.5t42.5 -104.5q0 -80 -59 -139t-148 -59q-74 0 -116 38.5t-42 104.5q0 83 57 141q59 59 149 59zM259 569q-19 0 -31.5 -17t-12.5 -40q0 -36 31 -36q21 0 34.5 15t13.5 41q0 17 -9.5 27t-25.5 10zM646 328
q74 0 116.5 -40.5t42.5 -104.5q0 -81 -60 -139q-59 -59 -148 -59q-74 0 -115.5 38.5t-41.5 104.5q0 82 57 141q59 59 149 59zM629 202q-19 0 -32 -17.5t-13 -40.5q0 -35 32 -35q19 0 33 15.5t14 39.5q0 17 -9 27.5t-25 10.5z" />
    <glyph glyph-name="ampersand" unicode="&#x26;" horiz-adv-x="725" 
d="M414 677q105 0 176 -49l-25 -151q-70 41 -144 41q-32 0 -52 -17t-20 -51q0 -87 109 -217q69 85 110 191l113 -112q-47 -105 -120 -184q72 -60 135 -96l-150 -111q-66 43 -127 92q-89 -48 -180 -48q-104 0 -159.5 43.5t-55.5 121.5q0 34 10 67q10 35 45 82q34 46 91 77
q-14 47 -14 86q0 115 76 175t182 60zM287 115q10 0 22 3q-39 44 -75 99q-16 -20 -16 -44q0 -26 18 -42t51 -16z" />
    <glyph glyph-name="quotesingle" unicode="'" horiz-adv-x="232" 
d="M250 685l-38 -266h-145l38 266h145z" />
    <glyph glyph-name="parenleft" unicode="(" horiz-adv-x="329" 
d="M280 735l116 -41q-181 -244 -181 -495q0 -174 74 -302l-133 -43q-112 145 -112 351q0 131 61 275q62 146 175 255z" />
    <glyph glyph-name="parenright" unicode=")" horiz-adv-x="329" 
d="M70 695l128 40q54 -72 83 -166.5t29 -192.5q0 -131 -61 -272q-61 -142 -175 -250l-117 52q182 226 182 486q0 162 -69 303z" />
    <glyph glyph-name="asterisk" unicode="*" horiz-adv-x="453" 
d="M224 674h115l-27 -94l76 62l43 -105l-90 -28l82 -30l-73 -105l-58 63l1 -95h-115l26 94l-76 -63l-43 106l93 28l-85 30l73 107l58 -65v95z" />
    <glyph glyph-name="plus" unicode="+" 
d="M519 346l-16 -118h-154l-23 -163h-118l23 163h-154l16 118h154l23 162h118l-23 -162h154z" />
    <glyph glyph-name="comma" unicode="," horiz-adv-x="298" 
d="M131 182q39 0 62 -23t23 -62q0 -61 -53 -141q-51 -77 -117 -140l-69 11l80 169q-38 20 -38 67q0 49 33 84t79 35z" />
    <glyph glyph-name="hyphen" unicode="-" horiz-adv-x="361" 
d="M325 313l-17 -127h-271l17 127h271z" />
    <glyph glyph-name="period" unicode="." horiz-adv-x="314" 
d="M145 186q34 0 57 -24.5t23 -61.5q0 -44 -33 -78t-75 -34q-37 0 -61.5 25t-24.5 60q0 44 35 79q35 34 79 34z" />
    <glyph glyph-name="slash" unicode="/" horiz-adv-x="379" 
d="M294 677h148l-345 -771h-146z" />
    <glyph glyph-name="zero" unicode="0" 
d="M354 673q124 0 179 -73q57 -72 57 -188q0 -62 -12.5 -122t-39.5 -115t-65.5 -96.5t-94.5 -66t-122 -24.5q-119 0 -177.5 67.5t-58.5 189.5q0 165 78 290q40 64 106.5 101t149.5 37zM282 162q40 0 67 75q28 74 28 175q0 88 -47 88q-46 0 -72 -80q-25 -78 -25 -169
q0 -89 49 -89z" />
    <glyph glyph-name="one" unicode="1" 
d="M417 0h-220l55 397l-157 -58l27 191l367 144h22z" />
    <glyph glyph-name="two" unicode="2" horiz-adv-x="569" 
d="M302 675q108 0 163.5 -47t55.5 -128q0 -54 -31 -131q-39 -97 -159 -211h177l-22 -158h-530l2 21q340 247 340 413q0 63 -69 63q-65 0 -182 -56l24 167q98 67 231 67z" />
    <glyph glyph-name="three" unicode="3" 
d="M173 339l129 162l-1 3h-209l22 155h497l-3 -23l-182 -227q54 -20 82.5 -61.5t28.5 -96.5q0 -109 -88 -185q-86 -76 -222 -76q-120 0 -209 46l25 179q26 -27 71.5 -43.5t92.5 -16.5q60 0 96 27.5t36 72.5q0 35 -26.5 53t-70.5 18q-26 0 -55 -7z" />
    <glyph glyph-name="four" unicode="4" 
d="M-23 142l294 517h221l-229 -381h55l4 31l67 117h158l-20 -148h47l-22 -155h-47l-17 -123h-208l17 123h-322z" />
    <glyph glyph-name="five" unicode="5" 
d="M166 660h390l-22 -155h-245l-18 -62q21 4 54 4q91 0 149 -48q60 -47 60 -135q0 -113 -87 -194q-88 -80 -225 -80q-120 0 -209 46l25 179q27 -27 72.5 -43.5t92.5 -16.5q60 0 96 27.5t36 72.5q0 69 -103 69q-69 0 -141 -25l-18 15z" />
    <glyph glyph-name="six" unicode="6" 
d="M139 451l156 208h228l-177 -224v-6q2 0 11 0.5t12 0.5q92 0 142 -46.5t50 -126.5q0 -118 -85 -193q-85 -74 -217 -74q-110 0 -174.5 51t-64.5 143q0 66 29 126q30 60 90 141zM302 292q-30 0 -51.5 -24t-21.5 -53q0 -25 14 -39.5t40 -14.5q31 0 52 21.5t21 54.5
q0 24 -15 39.5t-39 15.5z" />
    <glyph glyph-name="seven" unicode="7" 
d="M320 503h-230l22 156h508l-3 -21l-365 -638h-218z" />
    <glyph glyph-name="eight" unicode="8" 
d="M335 506q-24 0 -42 -18t-18 -44q0 -20 12.5 -31.5t33.5 -11.5q25 0 41.5 18t16.5 44q0 20 -12 31.5t-32 11.5zM304 294q-31 0 -52 -23.5t-21 -56.5q0 -24 15 -39.5t39 -15.5q31 0 51.5 23.5t20.5 55.5q0 25 -13.5 40.5t-39.5 15.5zM357 673q98 0 156 -46t58 -122
q0 -43 -20.5 -85t-57.5 -67l-2 -5q66 -39 66 -122q0 -104 -82 -170q-83 -66 -214 -66q-116 0 -180 47.5t-64 129.5q0 55 28 104t77 75l2 4q-44 35 -44 98q0 98 82 161q82 64 195 64z" />
    <glyph glyph-name="nine" unicode="9" 
d="M355 673q107 0 173 -51q66 -50 66 -143q0 -68 -30 -128q-29 -59 -89 -139l-158 -212h-228l180 228l-1 6q-5 -1 -23 -1q-92 0 -142 46.5t-50 126.5q0 117 84 192q86 75 218 75zM331 502q-31 0 -52 -21.5t-21 -54.5q0 -24 15.5 -39.5t39.5 -15.5q30 0 51 24t21 53
q0 25 -14 39.5t-40 14.5z" />
    <glyph glyph-name="colon" unicode=":" horiz-adv-x="314" 
d="M143 183q34 0 57 -24t23 -60q0 -43 -32 -78q-31 -33 -75 -33q-36 0 -60 24.5t-24 59.5q0 44 34 77q34 34 77 34zM179 436q35 0 57.5 -24.5t22.5 -60.5q0 -43 -33 -77q-33 -33 -75 -33q-36 0 -59.5 24t-23.5 60q0 43 34 77t77 34z" />
    <glyph glyph-name="semicolon" unicode=";" horiz-adv-x="314" 
d="M179 436q35 0 57.5 -24.5t22.5 -60.5q0 -43 -33 -77q-33 -33 -75 -33q-36 0 -59.5 24t-23.5 60q0 43 34 77t77 34zM141 182q39 0 62 -23t23 -62q0 -61 -53 -141q-51 -77 -117 -140l-69 11l80 169q-38 20 -38 67q0 49 33 84t79 35z" />
    <glyph glyph-name="less" unicode="&#x3c;" 
d="M304 281l188 -120l-21 -150l-388 258l4 23l460 261l-21 -153z" />
    <glyph glyph-name="equal" unicode="=" 
d="M525 436l-16 -115h-412l16 115h412zM499 254l-16 -113h-412l16 113h412z" />
    <glyph glyph-name="greater" unicode="&#x3e;" 
d="M507 269l-460 -258l21 150l223 122l-189 117l21 153l388 -261z" />
    <glyph glyph-name="question" unicode="?" horiz-adv-x="536" 
d="M314 692q112 0 168.5 -45t56.5 -119q0 -3 -2 -27q-6 -42 -43 -85q-38 -43 -77 -70q-43 -30 -73 -59q-33 -30 -33 -52q0 -6 3 -12l-163 -25q-10 26 -10 52q0 38 25 74.5t55.5 59.5t55.5 49.5t25 48.5q0 35 -52 35q-39 0 -93 -17q-51 -16 -85 -36l26 185q107 43 216 43z
M243 178q36 0 58.5 -23.5t22.5 -59.5q0 -45 -33 -78t-76 -33q-40 0 -62.5 21.5t-22.5 57.5q0 48 32.5 81.5t80.5 33.5z" />
    <glyph glyph-name="at" unicode="@" horiz-adv-x="937" 
d="M513 178h-4q-23 -34 -59.5 -53t-74.5 -19q-64 0 -97 38.5t-33 108.5q0 98 58 165t154 67q74 0 110 -47l22 35h101l-27 -196q-4 -26 2 -38t27 -12q28 0 48 41q20 42 20 94q0 95 -58.5 146.5t-171.5 51.5q-156 0 -249 -94q-93 -93 -93 -237q0 -104 62 -161.5t181 -57.5
q100 0 196 40l-17 -121q-93 -44 -199 -44q-173 0 -264 90q-90 89 -90 237q0 198 141 334q143 137 349 137q161 0 254 -81t93 -217q0 -54 -15 -104t-44 -92.5t-79 -68t-114 -25.5q-50 0 -85 21.5t-44 61.5zM467 351q-24 0 -38 -20t-14 -48q0 -40 38 -40q22 0 37.5 18.5
t15.5 47.5q0 42 -39 42z" />
    <glyph glyph-name="A" unicode="A" horiz-adv-x="694" 
d="M654 0h-232l-15 62h-179l-34 -62h-224l429 679h24zM353 287h-4l-57 -101h88z" />
    <glyph glyph-name="B" unicode="B" horiz-adv-x="655" 
d="M533 362v-4q81 -46 81 -143q0 -87 -67 -151t-166 -64h-368l92 659h335q82 0 129 -42.5t47 -107.5q0 -85 -83 -147zM350 260h-71l-11 -80h74q25 0 38 13.5t13 32.5q0 15 -11.5 24.5t-31.5 9.5zM354 485h-44l-11 -78h45q17 0 31.5 13t14.5 33q0 32 -36 32z" />
    <glyph glyph-name="C" unicode="C" horiz-adv-x="614" 
d="M568 213l-27 -199q-85 -29 -187 -29q-150 0 -231 77.5t-81 212.5q0 109 48 198q49 92 146 146t221 54q91 0 160 -24l-28 -195q-58 26 -124 26q-76 0 -131 -46t-55 -138q0 -59 35 -89t96 -30q72 0 158 36z" />
    <glyph glyph-name="D" unicode="D" horiz-adv-x="694" 
d="M287 0h-274l92 659h247q161 0 241 -80t80 -205q0 -145 -98 -257q-48 -54 -123.5 -85.5t-164.5 -31.5zM342 479h-27l-42 -298h27q64 0 103.5 52t39.5 139q0 107 -101 107z" />
    <glyph glyph-name="E" unicode="E" horiz-adv-x="565" 
d="M498 0h-485l92 659h464l-25 -180h-228l-8 -55h195l-24 -172h-195l-10 -71h249z" />
    <glyph glyph-name="F" unicode="F" horiz-adv-x="538" 
d="M249 0h-236l92 659h476l-25 -180h-240l-11 -80h195l-25 -172h-195z" />
    <glyph glyph-name="G" unicode="G" horiz-adv-x="674" 
d="M462 675q112 0 190 -37l-28 -202q-68 44 -166 44q-81 0 -130 -53.5t-49 -143.5q0 -108 108 -108q22 0 28 1l26 180h203l-47 -333q-111 -38 -247 -38q-151 0 -231 75t-80 209q0 164 107 282q53 58 135 91t181 33z" />
    <glyph glyph-name="H" unicode="H" horiz-adv-x="700" 
d="M617 0h-237l34 247h-131l-34 -247h-236l92 659h236l-32 -230h131l32 230h237z" />
    <glyph glyph-name="I" unicode="I" horiz-adv-x="334" 
d="M105 659h237l-92 -659h-237z" />
    <glyph glyph-name="J" unicode="J" horiz-adv-x="535" 
d="M304 659h240l-52 -370q-42 -304 -332 -304q-102 0 -173 42l24 197q71 -41 124 -41q52 0 81 28t38 90z" />
    <glyph glyph-name="K" unicode="K" horiz-adv-x="691" 
d="M105 659h237l-41 -293l180 293h258l-232 -323l144 -336h-251l-106 314l-44 -314h-237z" />
    <glyph glyph-name="L" unicode="L" horiz-adv-x="535" 
d="M342 659l-67 -478h241l-25 -181h-477l92 659h236z" />
    <glyph glyph-name="M" unicode="M" horiz-adv-x="792" 
d="M131 678l284 -308l367 308h21l-95 -678h-229l32 230h-4l-116 -112h-25l-91 108h-4l-31 -226h-227l95 678h23z" />
    <glyph glyph-name="N" unicode="N" horiz-adv-x="700" 
d="M249 0h-236l95 679h24l301 -268h4l35 248h237l-95 -679h-22l-303 283h-4z" />
    <glyph glyph-name="O" unicode="O" horiz-adv-x="787" 
d="M453 674q145 0 230 -85t85 -214q0 -165 -120 -277q-118 -112 -293 -112q-144 0 -228 84t-84 213q0 166 115 278q116 113 295 113zM386 178q63 0 105 52q43 52 43 130q0 54 -27.5 86t-78.5 32q-65 0 -108 -52q-42 -52 -42 -125q0 -55 29 -89t79 -34z" />
    <glyph glyph-name="P" unicode="P" horiz-adv-x="599" 
d="M105 659h282q119 0 174 -57q55 -56 55 -146q0 -100 -75 -175q-76 -74 -201 -74h-62l-29 -207h-236zM335 485h-20l-16 -109h20q31 0 48.5 19t17.5 44q0 46 -50 46z" />
    <glyph glyph-name="Q" unicode="Q" horiz-adv-x="796" 
d="M571 42v-1l141 -48l-97 -179l-364 186q-95 29 -150 103.5t-55 175.5q0 162 119 278q119 117 293 117q145 0 230 -82t85 -210q0 -107 -55 -196q-56 -90 -147 -144zM391 178q63 0 105 52q43 52 43 130q0 54 -27.5 86t-78.5 32q-65 0 -108 -52q-42 -52 -42 -125
q0 -55 29 -89t79 -34z" />
    <glyph glyph-name="R" unicode="R" horiz-adv-x="660" 
d="M13 0l92 659h285q113 0 179 -47.5t66 -131.5q0 -126 -117 -210l104 -270h-245l-68 289l3 17q42 18 64 50t22 65q0 58 -58 58h-25l-67 -479h-235z" />
    <glyph glyph-name="S" unicode="S" horiz-adv-x="576" 
d="M559 634l-26 -185q-25 18 -80 37q-53 18 -94 18q-60 0 -60 -31q0 -12 18 -24.5t45.5 -23t59 -29t59 -40t45.5 -58t18 -80.5q0 -25 -7.5 -53t-28 -61t-52.5 -59t-86.5 -43.5t-124.5 -17.5q-154 0 -246 55l29 203q30 -30 97 -55q67 -24 115 -24q63 0 63 35q0 30 -85 73
q-157 75 -156 187q0 79 62 146q72 75 221 75q112 0 214 -45z" />
    <glyph glyph-name="T" unicode="T" horiz-adv-x="579" 
d="M626 659l-25 -180h-163l-67 -479h-236l67 479h-160l25 180h559z" />
    <glyph glyph-name="U" unicode="U" horiz-adv-x="706" 
d="M487 659h237l-52 -373q-20 -137 -107 -218q-88 -82 -240 -82q-80 0 -137 23t-86 65t-39 94.5t-1 116.5l52 374h238l-54 -387q-14 -89 55 -89q31 0 53 25t26 57z" />
    <glyph glyph-name="V" unicode="V" horiz-adv-x="694" 
d="M306 659l57 -239h4l121 239h256l-419 -681h-26l-239 681h246z" />
    <glyph glyph-name="W" unicode="W" horiz-adv-x="1006" 
d="M656 -22h-25l-120 336l-214 -336h-26l-209 681h248l72 -245h4l162 259h25l98 -259h4l137 245h246z" />
    <glyph glyph-name="X" unicode="X" horiz-adv-x="716" 
d="M676 0h-253l-61 282l-139 -282h-253l184 341l-84 318h253l55 -259l129 259h253l-176 -318z" />
    <glyph glyph-name="Y" unicode="Y" horiz-adv-x="664" 
d="M176 0l32 228l-146 431h254l28 -142q8 -35 15 -90h4q12 40 35 88l65 144h254l-273 -431l-32 -228h-236z" />
    <glyph glyph-name="Z" unicode="Z" horiz-adv-x="636" 
d="M303 479h-215l25 180h566l-3 -19l-319 -459h233l-25 -181h-585l4 22z" />
    <glyph glyph-name="bracketleft" unicode="[" horiz-adv-x="313" 
d="M242 -20l-17 -118h-231l121 860h231l-18 -127h-55l-86 -615h55z" />
    <glyph glyph-name="backslash" unicode="\" horiz-adv-x="379" 
d="M333 -94h-147l-127 771h148z" />
    <glyph glyph-name="bracketright" unicode="]" horiz-adv-x="313" 
d="M338 722l-121 -860h-230l17 118h54l86 615h-54l18 127h230z" />
    <glyph glyph-name="asciicircum" unicode="^" horiz-adv-x="521" 
d="M321 640l179 -351h-149l-69 153l-114 -153h-147l275 351h25z" />
    <glyph glyph-name="underscore" unicode="_" horiz-adv-x="467" 
d="M424 -57l-14 -104h-467l14 104h467z" />
    <glyph glyph-name="grave" unicode="`" horiz-adv-x="531" 
d="M400 502h-107l-137 142l125 65z" />
    <glyph glyph-name="a" unicode="a" horiz-adv-x="594" 
d="M276 463q93 0 140 -59l27 43h140l-64 -447h-158l-7 44l-5 1q-67 -55 -159 -55q-86 0 -132.5 48t-46.5 133q0 124 72 208q73 84 193 84zM290 294q-30 0 -47.5 -25t-17.5 -60q0 -50 46 -50q28 0 47.5 23.5t19.5 59.5q0 52 -48 52z" />
    <glyph glyph-name="b" unicode="b" horiz-adv-x="588" 
d="M306 711l-38 -274l4 -2q43 28 106 28q89 0 139 -51.5t50 -139.5q0 -118 -73 -200q-72 -82 -192 -82q-84 0 -127 46h-4l-19 -36h-148l99 711h203zM318 294q-32 0 -50 -25.5t-18 -58.5q0 -52 48 -52q28 0 47.5 22.5t19.5 57.5q0 24 -13 40t-34 16z" />
    <glyph glyph-name="c" unicode="c" horiz-adv-x="436" 
d="M304 464q64 0 116 -21l-19 -167q-40 20 -86 20q-40 0 -65 -22.5t-25 -62.5q0 -58 67 -58q47 0 104 28l-23 -161q-62 -32 -157 -32q-94 0 -150 54q-55 55 -55 141q0 133 84 207q85 74 209 74z" />
    <glyph glyph-name="d" unicode="d" horiz-adv-x="590" 
d="M366 440l7 4l38 267h203l-98 -711h-162l-10 36h-4q-58 -46 -146 -46q-90 0 -137 51.5t-47 138.5q0 130 76 206q77 77 186 77q57 0 94 -23zM286 296q-27 0 -46 -24.5t-19 -61.5q0 -52 46 -52q27 0 47.5 24.5t20.5 59.5q0 24 -13 39t-36 15z" />
    <glyph glyph-name="e" unicode="e" horiz-adv-x="509" 
d="M292 466q86 0 138.5 -38.5t52.5 -102.5q0 -41 -21.5 -72.5t-58.5 -46.5q-67 -28 -144 -28q-7 0 -33 2q3 -47 70 -47q36 0 79.5 14t76.5 35l-18 -147q-75 -45 -202 -45q-116 0 -168 57q-52 58 -52 141q0 112 75 194q75 84 205 84zM271 319q-38 0 -44 -60l4 -1h6
q25 0 40.5 10t15.5 28q0 23 -22 23z" />
    <glyph glyph-name="f" unicode="f" horiz-adv-x="396" 
d="M491 711l-6 -166q-53 19 -90 19q-71 0 -85 -80l-6 -36h119l-22 -159h-119l-69 -508h-208l69 508h-64l20 143l66 16l7 47q35 237 245 237q60 0 143 -21z" />
    <glyph glyph-name="g" unicode="g" horiz-adv-x="524" 
d="M-16 88l91 89q-27 29 -27 78q0 93 69 151q70 59 168 59q47 0 95 -17h166l-12 -89l-51 -12q4 -17 4 -39q0 -72 -59 -128q-58 -54 -166 -54q-38 0 -85 9l-19 -26l148 -18q161 -20 161 -115q0 -47 -35 -97q-69 -110 -264 -113q-111 0 -158 37q-48 36 -48 84q0 36 22.5 70
t60.5 55l-12 2q-23 4 -38 18.5t-15 34.5q0 13 4 21zM230 -18l-75 13q-15 -24 -15 -44q0 -18 14.5 -28.5t37.5 -10.5q26 0 45 13.5t19 35.5q0 16 -26 21zM280 338q-18 0 -29.5 -16t-11.5 -37q0 -32 29 -32q18 0 30.5 15t12.5 38q0 14 -8.5 23t-22.5 9z" />
    <glyph glyph-name="h" unicode="h" horiz-adv-x="566" 
d="M306 711l-42 -303l3 -1q59 57 136 57q75 0 109 -42t23 -120l-42 -302h-211l34 247q8 47 -23 47q-39 0 -47 -65l-32 -229h-210l99 711h203z" />
    <glyph glyph-name="i" unicode="i" horiz-adv-x="294" 
d="M280 447l-62 -447h-212l62 447h212zM215 722q42 0 68.5 -27t26.5 -67q0 -50 -37 -90q-38 -39 -89 -39q-43 0 -68 27t-25 68q0 55 39 91q38 37 85 37z" />
    <glyph glyph-name="j" unicode="j" horiz-adv-x="294" 
d="M214 722q42 0 68.5 -27t26.5 -67q0 -50 -37 -90q-37 -39 -89 -39q-43 0 -68 27t-25 68q0 55 39 91q38 37 85 37zM70 447h210l-55 -394q-37 -275 -316 -289l-56 174q86 5 121 32q33 25 44 102z" />
    <glyph glyph-name="k" unicode="k" horiz-adv-x="573" 
d="M448 232l85 -232h-219l-61 209l-29 -209h-220l99 711h220l-64 -459l110 195h224z" />
    <glyph glyph-name="l" unicode="l" horiz-adv-x="290" 
d="M315 711l-99 -711h-212l99 711h212z" />
    <glyph glyph-name="m" unicode="m" horiz-adv-x="827" 
d="M239 447l11 -50l6 -1q62 68 145 68q93 0 118 -84q59 84 150 84q72 0 105 -41.5t22 -119.5l-42 -303h-212l35 253q8 41 -18 41q-35 0 -43 -63l-32 -231h-210l34 245q6 20 0 34.5t-23 14.5q-31 0 -38 -57l-33 -237h-210l62 447h173z" />
    <glyph glyph-name="n" unicode="n" horiz-adv-x="567" 
d="M240 447l10 -55l3 -1q31 35 74 54t79 19q75 0 108 -41.5t22 -120.5l-42 -302h-212l34 247q8 47 -22 47q-40 0 -48 -65l-32 -229h-210l62 447h174z" />
    <glyph glyph-name="o" unicode="o" horiz-adv-x="560" 
d="M310 464q109 0 169 -54t60 -145q0 -120 -83 -198q-83 -77 -213 -77q-108 0 -169.5 53.5t-61.5 144.5q0 118 84 197q83 79 214 79zM289 294q-30 0 -47.5 -25t-17.5 -60q0 -50 46 -50q28 0 47.5 23.5t19.5 59.5q0 52 -48 52z" />
    <glyph glyph-name="p" unicode="p" horiz-adv-x="601" 
d="M182 -219h-209l93 666h177l9 -46h5q51 61 143 61q88 0 134 -52.5t46 -141.5q0 -129 -74 -205q-74 -74 -183 -74q-70 0 -102 31l-6 -4zM307 153q27 0 46 24.5t19 60.5q0 53 -46 53q-27 0 -47 -24t-20 -59q0 -55 48 -55z" />
    <glyph glyph-name="q" unicode="q" horiz-adv-x="595" 
d="M490 -219h-208l34 243l-3 1q-45 -36 -114 -36q-89 0 -138.5 51.5t-49.5 139.5q0 117 73 199q74 83 193 83q81 0 130 -50h4l19 36h153zM261 155q31 0 50 25t19 57q0 54 -49 54q-28 0 -46.5 -23t-18.5 -60q0 -24 12 -38.5t33 -14.5z" />
    <glyph glyph-name="r" unicode="r" horiz-adv-x="436" 
d="M221 448l6 -88l5 -1q39 103 139 103q43 0 82 -19l-28 -194q-41 26 -88 26q-85 0 -99 -98l-24 -177h-210l62 448h155z" />
    <glyph glyph-name="s" unicode="s" horiz-adv-x="417" 
d="M398 430l-20 -141q-50 34 -108 34q-27 0 -30 -14q0 -9 72 -49q30 -16 51.5 -49t21.5 -73q0 -24 -10 -48.5t-32.5 -48.5t-67.5 -39t-107 -15q-104 0 -181 41l22 155q25 -24 69 -42q29 -12 54 -16t40 -0.5t15 13.5q0 11 -78 53q-32 17 -55 50t-23 71q0 58 51 105
q50 46 149 46q87 0 167 -33z" />
    <glyph glyph-name="t" unicode="t" horiz-adv-x="407" 
d="M382 171l-22 -150q-58 -36 -146 -36q-180 0 -155 184l17 122h-61l17 116l272 197h24l-22 -157h108l-22 -156h-108l-11 -78q-9 -62 40 -62q24 0 69 20z" />
    <glyph glyph-name="u" unicode="u" horiz-adv-x="563" 
d="M317 0l-6 63h-5q-58 -73 -152 -73q-68 0 -99 42t-20 117l42 298h210l-35 -252q-6 -39 24 -39q34 0 41 58l32 233h213l-62 -447h-183z" />
    <glyph glyph-name="v" unicode="v" horiz-adv-x="574" 
d="M269 379l21 -71h4l42 79l34 60h225l-330 -461h-29l-205 461h214z" />
    <glyph glyph-name="w" unicode="w" horiz-adv-x="778" 
d="M430 465l82 -162h4l80 144h214l-297 -461h-29l-102 202l-157 -202h-29l-174 461h216l44 -144h4l117 162h27z" />
    <glyph glyph-name="x" unicode="x" horiz-adv-x="563" 
d="M523 0h-211l-40 185l-92 -185h-210l130 231l-63 216h210l37 -170l84 170h211l-123 -216z" />
    <glyph glyph-name="y" unicode="y" horiz-adv-x="532" 
d="M20 -220l113 232l-111 435h213l14 -237h6l87 237h214l-334 -667h-202z" />
    <glyph glyph-name="z" unicode="z" horiz-adv-x="462" 
d="M401 0h-426l3 15l193 274h-128l22 158h414l-2 -13l-195 -276h141z" />
    <glyph glyph-name="braceleft" unicode="{" horiz-adv-x="400" 
d="M325 -17l-17 -121h-86q-164 0 -141 158l23 162q15 101 -46 114l3 22q63 16 77 102l19 135q11 83 56 124t130 41h86l-18 -124h-10q-35 0 -50 -16t-21 -51l-18 -126q-11 -77 -94 -90v-4q39 -5 56 -31.5t11 -67.5l-23 -163q-5 -35 4.5 -49.5t42.5 -14.5h16z" />
    <glyph glyph-name="bar" unicode="|" horiz-adv-x="410" 
d="M312 731v-883h-151v883h151z" />
    <glyph glyph-name="braceright" unicode="}" horiz-adv-x="400" 
d="M78 -138h-85l17 121h15q33 0 46.5 14.5t18.5 49.5l23 163q6 41 30.5 67.5t64.5 31.5v4q-36 6 -54.5 29.5t-13.5 60.5l18 126q6 34 -6 50.5t-47 16.5h-9l18 124h85q90 0 119.5 -41t17.5 -131l-17 -129q-11 -83 48 -99l-2 -21q-64 -13 -79 -117l-23 -162
q-21 -158 -185 -158z" />
    <glyph glyph-name="asciitilde" unicode="~" 
d="M400 196q-44 0 -111 24q-66 25 -93 25q-24 0 -39.5 -13.5t-35.5 -51.5l-93 80q36 71 76 97.5t94 26.5q31 0 95 -26q63 -25 94 -25q61 0 99 81l85 -83q-60 -135 -171 -135z" />
    <glyph glyph-name="uni00A0" unicode="&#xa0;" horiz-adv-x="234" 
 />
    <glyph glyph-name="exclamdown" unicode="&#xa1;" horiz-adv-x="351" 
d="M208 464q34 0 57.5 -25t23.5 -60q0 -45 -34 -79t-75 -34q-37 0 -61.5 24.5t-24.5 61.5q0 44 34 78t80 34zM259 226l-48 -470h-211l84 470h175z" />
    <glyph glyph-name="cent" unicode="&#xa2;" 
d="M336 -32h-108l16 116q-72 14 -112.5 66t-40.5 128q0 108 60 178q63 72 158 91l17 115h108l-16 -109q45 -5 82 -19l-24 -167q-40 20 -90 20q-41 0 -66 -22.5t-25 -62.5q0 -58 67 -58q57 0 114 28l-23 -161q-44 -21 -101 -28z" />
    <glyph glyph-name="sterling" unicode="&#xa3;" 
d="M581 633l-24 -177q-78 38 -129 38q-69 0 -79 -64l-5 -31h115l-18 -123h-122q-17 -84 -39 -118h251l-22 -158h-514l2 18q83 108 111 258h-48l18 123h53l8 40q24 111 95 172.5t173 61.5q95 0 174 -40z" />
    <glyph glyph-name="currency" unicode="&#xa4;" horiz-adv-x="588" 
d="M118 291q0 51 26 101l-60 62l76 76l59 -61q47 27 103 27q58 0 104 -28l59 61l77 -76l-61 -61q26 -47 26 -101q0 -51 -27 -101l62 -59l-77 -77l-60 60q-48 -28 -103 -28t-103 28l-59 -60l-75 77l59 59q-26 44 -26 101zM321 194q41 0 70 28.5t29 68.5q0 41 -28.5 69.5
t-70.5 28.5q-40 0 -68.5 -29t-28.5 -69t28.5 -68.5t68.5 -28.5z" />
    <glyph glyph-name="yen" unicode="&#xa5;" 
d="M32 139l9 67h498l-9 -67h-136l-19 -139h-235l19 139h-127zM554 308l-10 -69h-498l10 69h105l-97 351h240l13 -248h4l72 248h248l-200 -351h113z" />
    <glyph glyph-name="brokenbar" unicode="&#xa6;" horiz-adv-x="410" 
d="M312 731v-376h-151v376h151zM161 -152v399h151v-399h-151z" />
    <glyph glyph-name="section" unicode="&#xa7;" horiz-adv-x="585" 
d="M355 314q0 17 -22.5 32t-56.5 22q-21 -14 -24 -31q0 -41 81 -56q22 16 22 33zM371 718q31 0 80 -10q51 -10 92 -27l-21 -151q-85 36 -167 36q-61 0 -61 -30q0 -22 48 -32q92 -19 144.5 -61t52.5 -106q0 -33 -19 -70.5t-53 -57.5q49 -37 49 -101t-45 -107
q-80 -79 -228 -79q-115 0 -198 42l24 170q27 -27 84 -48q58 -20 100 -20q56 0 56 34q0 27 -85 57q-31 12 -53.5 23t-48.5 29t-39.5 43.5t-13.5 57.5q0 82 69 126q-34 37 -34 83q0 63 54 126q29 33 84.5 53t128.5 20z" />
    <glyph glyph-name="dieresis" unicode="&#xa8;" horiz-adv-x="580" 
d="M259 702q33 0 54 -21.5t21 -54.5q0 -40 -30 -72q-30 -31 -70 -31q-34 0 -54 21t-20 54q0 46 30 75q32 29 69 29zM467 702q33 0 54 -21.5t21 -54.5q0 -40 -30 -71q-29 -32 -70 -32q-34 0 -54 21t-20 54q0 46 30 75q32 29 69 29z" />
    <glyph glyph-name="copyright" unicode="&#xa9;" horiz-adv-x="888" 
d="M475 -48q-175 0 -280 110q-105 111 -105 285q0 171 112 280q112 111 273 111q160 0 271 -111q112 -109 112 -280t-112 -283q-111 -112 -271 -112zM475 641q-120 0 -200 -86t-80 -208q0 -127 77 -213q76 -85 203 -85q123 0 200 86q76 85 76 212q0 122 -77 208t-199 86z
M619 272l1 -128q-54 -20 -122 -20q-111 0 -175 62q-63 62 -63 159q0 93 64 158q64 66 177 66q65 0 110 -16v-126q-45 17 -86 17q-48 0 -78 -25.5t-30 -74.5q0 -47 27.5 -71.5t73.5 -24.5q52 0 101 24z" />
    <glyph glyph-name="ordfeminine" unicode="&#xaa;" horiz-adv-x="366" 
d="M187 607q29 0 57 -11.5t40 -29.5l16 32h103l-46 -298h-110l-9 31q-43 -38 -109 -38q-60 0 -93 32.5t-33 89.5q0 80 50 136q51 56 134 56zM197 488q-17 0 -27.5 -14.5t-10.5 -34.5q0 -26 25 -26q17 0 28.5 13.5t11.5 33.5q0 28 -27 28z" />
    <glyph glyph-name="guillemotleft" unicode="&#xab;" horiz-adv-x="552" 
d="M343 418l-157 -201l100 -207h-182l-91 199l1 10l147 199h182zM565 418l-157 -201l100 -207h-182l-90 199l1 10l146 199h182z" />
    <glyph glyph-name="logicalnot" unicode="&#xac;" 
d="M93 346h426l-39 -281h-119l23 163h-307z" />
    <glyph glyph-name="sfthyphen" unicode="&#xad;" horiz-adv-x="361" 
d="M325 313l-17 -127h-271l17 127h271z" />
    <glyph glyph-name="registered" unicode="&#xae;" horiz-adv-x="590" 
d="M215 310v265h132q49 0 79 -25.5t30 -69.5q0 -42 -36 -70l44 -100h-101l-39 114v9q31 10 31 43q0 26 -27 26h-14v-192h-99zM329 174q-116 0 -186 73t-70 190q0 112 74 186q76 74 182 74t180 -74t74 -186t-74 -188q-73 -75 -180 -75zM138 437q0 -86 52 -144t139 -58
q84 0 136 58t52 144q0 82 -53 141t-135 59q-81 0 -137 -59q-54 -58 -54 -141z" />
    <glyph glyph-name="overscore" unicode="&#xaf;" horiz-adv-x="569" 
d="M498 535h-346l17 122h346z" />
    <glyph glyph-name="degree" unicode="&#xb0;" horiz-adv-x="335" 
d="M228 668q45 0 75 -30t30 -76q0 -56 -43 -99q-42 -43 -96 -43q-52 0 -81 29t-29 76q0 61 42 101q44 42 102 42zM216 595q-24 0 -42.5 -17.5t-18.5 -41.5q0 -20 12.5 -32.5t34.5 -12.5q23 0 40.5 18t17.5 42q0 19 -12.5 31.5t-31.5 12.5z" />
    <glyph glyph-name="plusminus" unicode="&#xb1;" 
d="M527 403l-17 -119h-154l-19 -139h-118l19 139h-154l17 119h154l19 137h118l-19 -137h154zM45 0l16 118h426l-16 -118h-426z" />
    <glyph glyph-name="twosuperior" unicode="&#xb2;" horiz-adv-x="381" 
d="M245 798q75 0 112 -29t37 -80q0 -38 -27.5 -90t-85.5 -105h106l-18 -106h-358l1 21q223 145 223 240q0 32 -40 32q-41 0 -126 -38l17 112q70 43 159 43z" />
    <glyph glyph-name="threesuperior" unicode="&#xb3;" horiz-adv-x="381" 
d="M156 571l-12 15l75 92h-139l15 108h331l-3 -21l-106 -129q64 -25 64 -93q0 -67 -56 -114t-145 -47q-82 0 -143 29l17 125q21 -19 55 -31t62 -12q32 0 51 13.5t19 32.5q0 16 -13 26.5t-34 10.5q-16 0 -38 -5z" />
    <glyph glyph-name="acute" unicode="&#xb4;" horiz-adv-x="531" 
d="M379 714l119 -70l-161 -142h-115z" />
    <glyph glyph-name="mu" unicode="&#xb5;" horiz-adv-x="563" 
d="M306 0l-6 63h-5q-32 -42 -81 -62l-31 -220h-210l93 666h210l-35 -252q-6 -39 24 -39q34 0 41 58l32 233h213l-62 -447h-183z" />
    <glyph glyph-name="mu" unicode="&#x3bc;" horiz-adv-x="563" 
d="M306 0l-6 63h-5q-32 -42 -81 -62l-31 -220h-210l93 666h210l-35 -252q-6 -39 24 -39q34 0 41 58l32 233h213l-62 -447h-183z" />
    <glyph glyph-name="paragraph" unicode="&#xb6;" horiz-adv-x="601" 
d="M393 670l-65 -460h-76q-90 0 -145 55t-55 140q0 107 79 186t186 79h76zM431 671h196l-86 -609q-38 -263 -299 -276l-57 157q84 8 118 36q35 29 45 101z" />
    <glyph glyph-name="middot" unicode="&#xb7;" horiz-adv-x="314" 
d="M167 350q35 0 57.5 -23.5t22.5 -59.5q0 -43 -33 -78q-32 -33 -75 -33q-36 0 -59.5 24t-23.5 59q0 45 34 78t77 33z" />
    <glyph glyph-name="cedilla" unicode="&#xb8;" horiz-adv-x="436" 
d="M213 56l52 -26l-65 -86q48 -4 75 -28.5t27 -61.5q0 -17 -8 -37t-25 -41.5t-52 -35.5t-81 -14q-40 0 -87 16l-6 84q35 -18 89 -18q26 0 42.5 11.5t16.5 32.5q0 12 -10.5 19.5t-25.5 7.5q-21 0 -38 -10l-18 17z" />
    <glyph glyph-name="onesuperior" unicode="&#xb9;" horiz-adv-x="381" 
d="M297 388h-151l32 226l-89 -32l18 127l224 82h22z" />
    <glyph glyph-name="ordmasculine" unicode="&#xba;" horiz-adv-x="386" 
d="M240 607q76 0 118 -36.5t42 -97.5q0 -79 -57 -130q-56 -50 -147 -50q-76 0 -119 35.5t-43 96.5q0 77 57 129q59 53 149 53zM224 488q-16 0 -26.5 -14.5t-10.5 -33.5q0 -29 26 -29q17 0 28.5 13.5t11.5 34.5q0 29 -29 29z" />
    <glyph glyph-name="guillemotright" unicode="&#xbb;" horiz-adv-x="552" 
d="M158 10h-182l158 207l-101 201h182l90 -199l-1 -10zM380 10h-182l158 207l-101 201h182l91 -199l-1 -10z" />
    <glyph glyph-name="onequarter" unicode="&#xbc;" horiz-adv-x="873" 
d="M395 89l180 305h134l-134 -220h31l2 12l43 73h109l-12 -85h32l-15 -104h-32l-9 -70h-141l9 70h-200zM603 687h119l-534 -722h-118zM265 301h-151l32 226l-89 -32l18 127l224 82h22z" />
    <glyph glyph-name="onehalf" unicode="&#xbd;" horiz-adv-x="873" 
d="M674 410q75 0 112 -29t37 -80q0 -38 -27.5 -90t-85.5 -105h106l-18 -106h-358l1 21q223 145 223 240q0 32 -40 32q-41 0 -126 -38l17 112q70 43 159 43zM593 687h119l-534 -722h-118zM267 301h-151l32 226l-89 -32l18 127l224 82h22z" />
    <glyph glyph-name="threequarters" unicode="&#xbe;" horiz-adv-x="873" 
d="M166 481l-12 15l75 92h-139l15 108h331l-3 -21l-106 -129q64 -25 64 -93q0 -67 -56 -114t-145 -47q-82 0 -143 29l17 125q21 -19 55 -31t62 -12q32 0 51 13.5t19 32.5q0 16 -13 26.5t-34 10.5q-16 0 -38 -5zM425 89l180 305h134l-134 -220h31l2 12l43 73h109l-12 -85h32
l-15 -104h-32l-9 -70h-141l9 70h-200zM642 687h119l-534 -722h-118z" />
    <glyph glyph-name="questiondown" unicode="&#xbf;" horiz-adv-x="536" 
d="M213 -245q-117 0 -172 47q-53 47 -53 117q0 3 2 27q6 42 41 83q34 41 74 69q37 25 73 57q34 31 37 53q0 10 -2 16l162 25q12 -30 12 -54q0 -31 -16.5 -60.5t-40.5 -51t-47.5 -41t-40 -39.5t-16.5 -38q0 -35 51 -35q39 0 93 17t86 36l-26 -185q-110 -43 -217 -43zM312 463
q40 0 62.5 -21.5t22.5 -57.5q0 -46 -33 -81q-33 -34 -80 -34q-36 0 -58.5 23t-22.5 59q0 45 33 78q34 34 76 34z" />
    <glyph glyph-name="Agrave" unicode="&#xc0;" horiz-adv-x="694" 
d="M654 0h-232l-15 62h-179l-34 -62h-224l429 679h24zM353 287h-4l-57 -101h88zM483 704h-107l-145 142l125 65z" />
    <glyph glyph-name="Aacute" unicode="&#xc1;" horiz-adv-x="694" 
d="M654 0h-232l-15 62h-179l-34 -62h-224l429 679h24zM353 287h-4l-57 -101h88zM500 914l119 -70l-161 -142h-115z" />
    <glyph glyph-name="Acircumflex" unicode="&#xc2;" horiz-adv-x="694" 
d="M654 0h-232l-15 62h-179l-34 -62h-224l429 679h24zM353 287h-4l-57 -101h88zM462 905l150 -198h-146l-39 65l-62 -65h-141l213 198h25z" />
    <glyph glyph-name="Atilde" unicode="&#xc3;" horiz-adv-x="694" 
d="M562 891l34 -79q-46 -97 -114 -97q-25 0 -69 26q-43 26 -61 26q-32 0 -65 -56l-38 80q22 44 53 71t65 27q23 0 64 -28t65 -28q29 0 66 58zM654 0h-232l-15 62h-179l-34 -62h-224l429 679h24zM353 287h-4l-57 -101h88z" />
    <glyph glyph-name="Adieresis" unicode="&#xc4;" horiz-adv-x="694" 
d="M331 880q33 0 54 -22t21 -55q0 -39 -30 -71t-70 -32q-34 0 -54.5 21.5t-20.5 54.5q0 47 31 75q32 29 69 29zM540 880q33 0 53.5 -21.5t20.5 -54.5q0 -39 -30 -72q-29 -32 -69 -32q-34 0 -54.5 21.5t-20.5 54.5q0 47 31 75q32 29 69 29zM654 0h-232l-15 62h-179l-34 -62
h-224l429 679h24zM353 287h-4l-57 -101h88z" />
    <glyph glyph-name="Aring" unicode="&#xc5;" horiz-adv-x="694" 
d="M435 913q56 0 91 -35t35 -89t-35 -98q-34 -43 -88 -57l216 -634h-232l-15 62h-179l-34 -62h-224l399 631q-44 8 -70.5 40t-26.5 77q0 66 49 115q50 50 114 50zM421 815q-18 0 -32.5 -16t-14.5 -38q0 -15 10 -25.5t25 -10.5q21 0 34.5 15t13.5 36q0 17 -10 28t-26 11z
M353 287h-4l-57 -101h88z" />
    <glyph glyph-name="AE" unicode="&#xc6;" horiz-adv-x="907" 
d="M861 181l-25 -181h-457l9 65h-127l-48 -65h-244l546 659h396l-25 -180h-227l-8 -55h195l-24 -172h-195l-10 -71h244zM412 193l13 98h-4l-69 -98h60z" />
    <glyph glyph-name="Ccedilla" unicode="&#xc7;" horiz-adv-x="614" 
d="M568 213l-27 -199q-79 -28 -179 -29l-44 -58q48 -4 75 -28.5t27 -61.5q0 -17 -8 -37t-25 -41.5t-52 -35.5t-81 -14q-40 0 -87 16l-6 84q35 -18 89 -18q26 0 42.5 11.5t16.5 32.5q0 12 -10.5 19.5t-25.5 7.5q-21 0 -38 -10l-18 17l80 119q-124 15 -189.5 90.5t-65.5 196.5
q0 109 48 198q49 92 146 146t221 54q91 0 160 -24l-28 -195q-58 26 -124 26q-76 0 -131 -46t-55 -138q0 -59 35 -89t96 -30q72 0 158 36z" />
    <glyph glyph-name="Egrave" unicode="&#xc8;" horiz-adv-x="565" 
d="M498 0h-485l92 659h464l-25 -180h-228l-8 -55h195l-24 -172h-195l-10 -71h249zM435 704h-107l-145 142l125 65z" />
    <glyph glyph-name="Eacute" unicode="&#xc9;" horiz-adv-x="565" 
d="M498 0h-485l92 659h464l-25 -180h-228l-8 -55h195l-24 -172h-195l-10 -71h249zM409 914l119 -70l-161 -142h-115z" />
    <glyph glyph-name="Ecircumflex" unicode="&#xca;" horiz-adv-x="565" 
d="M498 0h-485l92 659h464l-25 -180h-228l-8 -55h195l-24 -172h-195l-10 -71h249zM397 905l150 -198h-146l-39 65l-62 -65h-141l213 198h25z" />
    <glyph glyph-name="Edieresis" unicode="&#xcb;" horiz-adv-x="565" 
d="M267 880q33 0 54 -22t21 -55q0 -39 -30 -71t-70 -32q-34 0 -54.5 21.5t-20.5 54.5q0 47 31 75q32 29 69 29zM476 880q33 0 53.5 -21.5t20.5 -54.5q0 -39 -30 -72q-29 -32 -69 -32q-34 0 -54.5 21.5t-20.5 54.5q0 47 31 75q32 29 69 29zM498 0h-485l92 659h464l-25 -180
h-228l-8 -55h195l-24 -172h-195l-10 -71h249z" />
    <glyph glyph-name="Igrave" unicode="&#xcc;" horiz-adv-x="334" 
d="M105 659h237l-92 -659h-237zM309 704h-107l-145 142l125 65z" />
    <glyph glyph-name="Iacute" unicode="&#xcd;" horiz-adv-x="334" 
d="M105 659h237l-92 -659h-237zM317 914l119 -70l-161 -142h-115z" />
    <glyph glyph-name="Icircumflex" unicode="&#xce;" horiz-adv-x="334" 
d="M105 659h237l-92 -659h-237zM276 905l150 -198h-146l-39 65l-62 -65h-141l213 198h25z" />
    <glyph glyph-name="Idieresis" unicode="&#xcf;" horiz-adv-x="334" 
d="M105 659h237l-92 -659h-237zM152 880q33 0 54 -22t21 -55q0 -39 -30 -71t-70 -32q-34 0 -54.5 21.5t-20.5 54.5q0 47 31 75q32 29 69 29zM361 880q33 0 53.5 -21.5t20.5 -54.5q0 -39 -30 -72q-29 -32 -69 -32q-34 0 -54.5 21.5t-20.5 54.5q0 47 31 75q32 29 69 29z" />
    <glyph glyph-name="Eth" unicode="&#xd0;" horiz-adv-x="694" 
d="M287 0h-274l39 281h-43l14 101h43l39 277h247q161 0 241 -80t80 -205q0 -145 -98 -257q-48 -54 -123.5 -85.5t-164.5 -31.5zM342 479h-27l-14 -97h69l-14 -101h-69l-14 -100h27q64 0 103.5 52t39.5 139q0 107 -101 107z" />
    <glyph glyph-name="Ntilde" unicode="&#xd1;" horiz-adv-x="700" 
d="M249 0h-236l95 679h24l301 -268h4l35 248h237l-95 -679h-22l-303 283h-4zM546 893l34 -79q-46 -97 -114 -97q-25 0 -69 26q-43 26 -61 26q-32 0 -65 -56l-38 80q22 44 53 71t65 27q24 0 65 -28t64 -28q29 0 66 58z" />
    <glyph glyph-name="Ograve" unicode="&#xd2;" horiz-adv-x="787" 
d="M453 674q145 0 230 -85t85 -214q0 -165 -120 -277q-118 -112 -293 -112q-144 0 -228 84t-84 213q0 166 115 278q116 113 295 113zM386 178q63 0 105 52q43 52 43 130q0 54 -27.5 86t-78.5 32q-65 0 -108 -52q-42 -52 -42 -125q0 -55 29 -89t79 -34zM534 704h-107
l-145 142l125 65z" />
    <glyph glyph-name="Oacute" unicode="&#xd3;" horiz-adv-x="787" 
d="M453 674q145 0 230 -85t85 -214q0 -165 -120 -277q-118 -112 -293 -112q-144 0 -228 84t-84 213q0 166 115 278q116 113 295 113zM386 178q63 0 105 52q43 52 43 130q0 54 -27.5 86t-78.5 32q-65 0 -108 -52q-42 -52 -42 -125q0 -55 29 -89t79 -34zM549 914l119 -70
l-161 -142h-115z" />
    <glyph glyph-name="Ocircumflex" unicode="&#xd4;" horiz-adv-x="787" 
d="M453 674q145 0 230 -85t85 -214q0 -165 -120 -277q-118 -112 -293 -112q-144 0 -228 84t-84 213q0 166 115 278q116 113 295 113zM386 178q63 0 105 52q43 52 43 130q0 54 -27.5 86t-78.5 32q-65 0 -108 -52q-42 -52 -42 -125q0 -55 29 -89t79 -34zM521 905l150 -198
h-146l-39 65l-62 -65h-141l213 198h25z" />
    <glyph glyph-name="Otilde" unicode="&#xd5;" horiz-adv-x="787" 
d="M453 674q145 0 230 -85t85 -214q0 -165 -120 -277q-118 -112 -293 -112q-144 0 -228 84t-84 213q0 166 115 278q116 113 295 113zM386 178q63 0 105 52q43 52 43 130q0 54 -27.5 86t-78.5 32q-65 0 -108 -52q-42 -52 -42 -125q0 -55 29 -89t79 -34zM612 891l34 -79
q-46 -97 -114 -97q-25 0 -69 26q-43 26 -61 26q-32 0 -65 -56l-38 80q22 44 53 71t65 27q24 0 65 -28t64 -28q29 0 66 58z" />
    <glyph glyph-name="Odieresis" unicode="&#xd6;" horiz-adv-x="787" 
d="M453 674q145 0 230 -85t85 -214q0 -165 -120 -277q-118 -112 -293 -112q-144 0 -228 84t-84 213q0 166 115 278q116 113 295 113zM386 178q63 0 105 52q43 52 43 130q0 54 -27.5 86t-78.5 32q-65 0 -108 -52q-42 -52 -42 -125q0 -55 29 -89t79 -34zM381 880q33 0 54 -22
t21 -55q0 -39 -30 -71t-70 -32q-34 0 -54.5 21.5t-20.5 54.5q0 47 31 75q32 29 69 29zM590 880q33 0 53.5 -21.5t20.5 -54.5q0 -39 -30 -72q-29 -32 -69 -32q-34 0 -54.5 21.5t-20.5 54.5q0 47 31 75q32 29 69 29z" />
    <glyph glyph-name="multiply" unicode="&#xd7;" 
d="M474 173l-93 -84l-93 113l-128 -115l-71 86l127 115l-93 113l93 83l93 -112l128 114l71 -86l-127 -115z" />
    <glyph glyph-name="Oslash" unicode="&#xd8;" horiz-adv-x="787" 
d="M453 674q111 0 193 -55l37 40h64l-65 -70q86 -83 86 -214q0 -165 -120 -277q-118 -112 -293 -112q-107 0 -183 48l-31 -34h-68l59 64q-89 83 -89 219q0 166 115 278q116 113 295 113zM278 301q0 -39 13 -65l204 220q-26 22 -67 22q-65 0 -108 -52q-42 -52 -42 -125z
M386 178q63 0 105 52q43 52 43 130q0 30 -10 56l-201 -219q26 -19 63 -19z" />
    <glyph glyph-name="Ugrave" unicode="&#xd9;" horiz-adv-x="706" 
d="M487 659h237l-52 -373q-20 -137 -107 -218q-88 -82 -240 -82q-80 0 -137 23t-86 65t-39 94.5t-1 116.5l52 374h238l-54 -387q-14 -89 55 -89q31 0 53 25t26 57zM515 704h-107l-145 142l125 65z" />
    <glyph glyph-name="Uacute" unicode="&#xda;" horiz-adv-x="706" 
d="M487 659h237l-52 -373q-20 -137 -107 -218q-88 -82 -240 -82q-80 0 -137 23t-86 65t-39 94.5t-1 116.5l52 374h238l-54 -387q-14 -89 55 -89q31 0 53 25t26 57zM508 914l119 -70l-161 -142h-115z" />
    <glyph glyph-name="Ucircumflex" unicode="&#xdb;" horiz-adv-x="706" 
d="M487 659h237l-52 -373q-20 -137 -107 -218q-88 -82 -240 -82q-80 0 -137 23t-86 65t-39 94.5t-1 116.5l52 374h238l-54 -387q-14 -89 55 -89q31 0 53 25t26 57zM477 902l155 -194h-151l-41 64l-64 -64h-146l221 194h26z" />
    <glyph glyph-name="Udieresis" unicode="&#xdc;" horiz-adv-x="706" 
d="M487 659h237l-52 -373q-20 -137 -107 -218q-88 -82 -240 -82q-80 0 -137 23t-86 65t-39 94.5t-1 116.5l52 374h238l-54 -387q-14 -89 55 -89q31 0 53 25t26 57zM345 880q33 0 54 -22t21 -55q0 -39 -30 -71t-70 -32q-34 0 -54.5 21.5t-20.5 54.5q0 47 31 75q32 29 69 29z
M554 880q33 0 53.5 -21.5t20.5 -54.5q0 -39 -30 -72q-29 -32 -69 -32q-34 0 -54.5 21.5t-20.5 54.5q0 47 31 75q32 29 69 29z" />
    <glyph glyph-name="Yacute" unicode="&#xdd;" horiz-adv-x="664" 
d="M176 0l32 228l-146 431h254l28 -142q8 -35 15 -90h4q12 40 35 88l65 144h254l-273 -431l-32 -228h-236zM476 913l119 -70l-161 -142h-115z" />
    <glyph glyph-name="Thorn" unicode="&#xde;" horiz-adv-x="599" 
d="M328 580h48q117 0 173 -55q57 -54 57 -137q0 -102 -76 -181q-75 -79 -202 -79h-62l-17 -128h-236l92 659h234zM324 406h-20l-16 -109h20q31 0 48.5 19t17.5 44q0 21 -13 33.5t-37 12.5z" />
    <glyph glyph-name="germandbls" unicode="&#xdf;" horiz-adv-x="616" 
d="M375 731q98 0 154.5 -45t56.5 -121q0 -44 -21 -83.5t-56 -61.5l-1 -5q82 -33 82 -154q0 -112 -61 -191q-60 -80 -169 -80q-38 0 -81 12l1 166q12 -4 28 -4q36 0 57 27.5t21 69.5q0 41 -17 55.5t-59 14.5l19 136q26 1 43 20t17 47q0 18 -11 28.5t-26 10.5q-23 0 -37 -16
t-17 -41l-72 -516h-210l66 473q17 114 92 185q76 73 201 73z" />
    <glyph glyph-name="agrave" unicode="&#xe0;" horiz-adv-x="594" 
d="M276 463q93 0 140 -59l27 43h140l-64 -447h-158l-7 44l-5 1q-67 -55 -159 -55q-86 0 -132.5 48t-46.5 133q0 124 72 208q73 84 193 84zM290 294q-30 0 -47.5 -25t-17.5 -60q0 -50 46 -50q28 0 47.5 23.5t19.5 59.5q0 52 -48 52zM418 502h-107l-137 142l125 65z" />
    <glyph glyph-name="aacute" unicode="&#xe1;" horiz-adv-x="594" 
d="M276 463q93 0 140 -59l27 43h140l-64 -447h-158l-7 44l-5 1q-67 -55 -159 -55q-86 0 -132.5 48t-46.5 133q0 124 72 208q73 84 193 84zM290 294q-30 0 -47.5 -25t-17.5 -60q0 -50 46 -50q28 0 47.5 23.5t19.5 59.5q0 52 -48 52zM374 714l119 -70l-161 -142h-115z" />
    <glyph glyph-name="acircumflex" unicode="&#xe2;" horiz-adv-x="594" 
d="M276 463q93 0 140 -59l27 43h140l-64 -447h-158l-7 44l-5 1q-67 -55 -159 -55q-86 0 -132.5 48t-46.5 133q0 124 72 208q73 84 193 84zM290 294q-30 0 -47.5 -25t-17.5 -60q0 -50 46 -50q28 0 47.5 23.5t19.5 59.5q0 52 -48 52zM363 709l140 -207h-138l-34 65l-59 -65
h-138l204 207h25z" />
    <glyph glyph-name="atilde" unicode="&#xe3;" horiz-adv-x="594" 
d="M276 463q93 0 140 -59l27 43h140l-64 -447h-158l-7 44l-5 1q-67 -55 -159 -55q-86 0 -132.5 48t-46.5 133q0 124 72 208q73 84 193 84zM290 294q-30 0 -47.5 -25t-17.5 -60q0 -50 46 -50q28 0 47.5 23.5t19.5 59.5q0 52 -48 52zM460 686l34 -79q-46 -97 -114 -97
q-25 0 -69 26q-43 26 -61 26q-32 0 -65 -56l-38 80q22 44 53 71t65 27q24 0 65 -28t64 -28q29 0 66 58z" />
    <glyph glyph-name="adieresis" unicode="&#xe4;" horiz-adv-x="594" 
d="M276 463q93 0 140 -59l27 43h140l-64 -447h-158l-7 44l-5 1q-67 -55 -159 -55q-86 0 -132.5 48t-46.5 133q0 124 72 208q73 84 193 84zM290 294q-30 0 -47.5 -25t-17.5 -60q0 -50 46 -50q28 0 47.5 23.5t19.5 59.5q0 52 -48 52zM241 702q33 0 54 -21.5t21 -54.5
q0 -40 -30 -72q-30 -31 -70 -31q-34 0 -54 21t-20 54q0 46 30 75q32 29 69 29zM449 702q33 0 54 -21.5t21 -54.5q0 -40 -30 -71q-29 -32 -70 -32q-34 0 -54 21t-20 54q0 46 30 75q32 29 69 29z" />
    <glyph glyph-name="aring" unicode="&#xe5;" horiz-adv-x="594" 
d="M276 463q93 0 140 -59l27 43h140l-64 -447h-158l-7 44l-5 1q-67 -55 -159 -55q-86 0 -132.5 48t-46.5 133q0 124 72 208q73 84 193 84zM290 294q-30 0 -47.5 -25t-17.5 -60q0 -50 46 -50q28 0 47.5 23.5t19.5 59.5q0 52 -48 52zM352 777q56 0 91 -35t35 -89
q0 -68 -49 -114t-117 -46q-54 0 -88.5 33.5t-34.5 85.5q0 66 49 115q50 50 114 50zM338 679q-18 0 -32.5 -16t-14.5 -38q0 -15 10 -25.5t25 -10.5q21 0 34.5 15t13.5 36q0 17 -10 28t-26 11z" />
    <glyph glyph-name="ae" unicode="&#xe6;" horiz-adv-x="788" 
d="M574 466q86 0 138.5 -38.5t52.5 -102.5q0 -41 -21.5 -72.5t-58.5 -46.5q-67 -28 -144 -28q-7 0 -33 2q3 -47 70 -47q36 0 79.5 14t76.5 35l-18 -147q-75 -45 -202 -45q-107 0 -163 53q-83 -58 -199 -58q-69 0 -111.5 28.5t-42.5 80.5q0 67 58 119t170 52h57l2 11
q4 20 -12.5 29t-53.5 9q-22 0 -65 -9q-41 -7 -71 -23l21 152q93 29 193 29q87 0 127 -36q68 39 150 39zM273 176l3 17h-20q-23 0 -36.5 -15t-13.5 -37q0 -23 19 -23q38 0 48 58zM553 319q-38 0 -44 -60q2 0 6 -1h4q25 0 40.5 10t15.5 28q0 23 -22 23z" />
    <glyph glyph-name="ccedilla" unicode="&#xe7;" horiz-adv-x="436" 
d="M304 464q64 0 116 -21l-19 -167q-40 20 -86 20q-40 0 -65 -22.5t-25 -62.5q0 -58 67 -58q47 0 104 28l-23 -161q-58 -31 -153 -32l-33 -44q48 -4 75 -28.5t27 -61.5q0 -17 -8 -37t-25 -41.5t-52 -35.5t-81 -14q-40 0 -87 16l-6 84q35 -18 89 -18q26 0 42.5 11.5
t16.5 32.5q0 12 -10.5 19.5t-25.5 7.5q-21 0 -38 -10l-18 17l72 108q-69 16 -108 66.5t-39 122.5q0 133 84 207q85 74 209 74z" />
    <glyph glyph-name="egrave" unicode="&#xe8;" horiz-adv-x="509" 
d="M292 466q86 0 138.5 -38.5t52.5 -102.5q0 -41 -21.5 -72.5t-58.5 -46.5q-67 -28 -144 -28q-7 0 -33 2q3 -47 70 -47q36 0 79.5 14t76.5 35l-18 -147q-75 -45 -202 -45q-116 0 -168 57q-52 58 -52 141q0 112 75 194q75 84 205 84zM271 319q-38 0 -44 -60l4 -1h6
q25 0 40.5 10t15.5 28q0 23 -22 23zM389 502h-107l-137 142l125 65z" />
    <glyph glyph-name="eacute" unicode="&#xe9;" horiz-adv-x="509" 
d="M292 466q86 0 138.5 -38.5t52.5 -102.5q0 -41 -21.5 -72.5t-58.5 -46.5q-67 -28 -144 -28q-7 0 -33 2q3 -47 70 -47q36 0 79.5 14t76.5 35l-18 -147q-75 -45 -202 -45q-116 0 -168 57q-52 58 -52 141q0 112 75 194q75 84 205 84zM271 319q-38 0 -44 -60l4 -1h6
q25 0 40.5 10t15.5 28q0 23 -22 23zM362 714l119 -70l-161 -142h-115z" />
    <glyph glyph-name="ecircumflex" unicode="&#xea;" horiz-adv-x="509" 
d="M292 466q86 0 138.5 -38.5t52.5 -102.5q0 -41 -21.5 -72.5t-58.5 -46.5q-67 -28 -144 -28q-7 0 -33 2q3 -47 70 -47q36 0 79.5 14t76.5 35l-18 -147q-75 -45 -202 -45q-116 0 -168 57q-52 58 -52 141q0 112 75 194q75 84 205 84zM271 319q-38 0 -44 -60l4 -1h6
q25 0 40.5 10t15.5 28q0 23 -22 23zM344 709l140 -207h-138l-34 65l-59 -65h-138l204 207h25z" />
    <glyph glyph-name="edieresis" unicode="&#xeb;" horiz-adv-x="509" 
d="M292 466q86 0 138.5 -38.5t52.5 -102.5q0 -41 -21.5 -72.5t-58.5 -46.5q-67 -28 -144 -28q-7 0 -33 2q3 -47 70 -47q36 0 79.5 14t76.5 35l-18 -147q-75 -45 -202 -45q-116 0 -168 57q-52 58 -52 141q0 112 75 194q75 84 205 84zM271 319q-38 0 -44 -60l4 -1h6
q25 0 40.5 10t15.5 28q0 23 -22 23zM225 702q33 0 54 -21.5t21 -54.5q0 -40 -30 -72q-30 -31 -70 -31q-34 0 -54 21t-20 54q0 46 30 75q32 29 69 29zM433 702q33 0 54 -21.5t21 -54.5q0 -40 -30 -71q-29 -32 -70 -32q-34 0 -54 21t-20 54q0 46 30 75q32 29 69 29z" />
    <glyph glyph-name="igrave" unicode="&#xec;" horiz-adv-x="294" 
d="M280 447l-62 -447h-212l62 447h212zM264 502h-107l-137 142l125 65z" />
    <glyph glyph-name="iacute" unicode="&#xed;" horiz-adv-x="294" 
d="M280 447l-62 -447h-212l62 447h212zM254 714l119 -70l-161 -142h-115z" />
    <glyph glyph-name="icircumflex" unicode="&#xee;" horiz-adv-x="294" 
d="M280 447l-62 -447h-212l62 447h212zM232 709l140 -207h-138l-34 65l-59 -65h-138l204 207h25z" />
    <glyph glyph-name="idieresis" unicode="&#xef;" horiz-adv-x="294" 
d="M111 702q33 0 54 -21.5t21 -54.5q0 -40 -30 -72q-30 -31 -70 -31q-34 0 -54 21t-20 54q0 46 30 75q32 29 69 29zM319 702q33 0 54 -21.5t21 -54.5q0 -40 -30 -71q-29 -32 -70 -32q-34 0 -54 21t-20 54q0 46 30 75q32 29 69 29zM280 447l-62 -447h-212l62 447h212z" />
    <glyph glyph-name="eth" unicode="&#xf0;" horiz-adv-x="569" 
d="M251 -10q-111 0 -172.5 53t-61.5 144q0 116 76 196q76 81 196 81q26 0 36 -2l2 4q-17 45 -44 68l-88 -54l12 83l27 19q-60 50 -105 79l154 80q47 -28 97 -67l91 57l-12 -88l-28 -16q124 -130 124 -305q0 -118 -67 -219q-35 -52 -96.5 -82.5t-140.5 -30.5zM294 294
q-30 0 -47.5 -25t-17.5 -60q0 -50 46 -50q28 0 47.5 23.5t19.5 59.5q0 52 -48 52z" />
    <glyph glyph-name="ntilde" unicode="&#xf1;" horiz-adv-x="567" 
d="M240 447l10 -55l3 -1q31 35 74 54t79 19q75 0 108 -41.5t22 -120.5l-42 -302h-212l34 247q8 47 -22 47q-40 0 -48 -65l-32 -229h-210l62 447h174zM459 692l34 -79q-46 -97 -114 -97q-25 0 -69 26q-43 26 -61 26q-32 0 -65 -56l-38 80q22 44 53 71t65 27q23 0 64 -28
t65 -28q29 0 66 58z" />
    <glyph glyph-name="ograve" unicode="&#xf2;" horiz-adv-x="560" 
d="M310 464q109 0 169 -54t60 -145q0 -120 -83 -198q-83 -77 -213 -77q-108 0 -169.5 53.5t-61.5 144.5q0 118 84 197q83 79 214 79zM289 294q-30 0 -47.5 -25t-17.5 -60q0 -50 46 -50q28 0 47.5 23.5t19.5 59.5q0 52 -48 52zM394 502h-107l-137 142l125 65z" />
    <glyph glyph-name="oacute" unicode="&#xf3;" horiz-adv-x="560" 
d="M310 464q109 0 169 -54t60 -145q0 -120 -83 -198q-83 -77 -213 -77q-108 0 -169.5 53.5t-61.5 144.5q0 118 84 197q83 79 214 79zM289 294q-30 0 -47.5 -25t-17.5 -60q0 -50 46 -50q28 0 47.5 23.5t19.5 59.5q0 52 -48 52zM389 714l119 -70l-161 -142h-115z" />
    <glyph glyph-name="ocircumflex" unicode="&#xf4;" horiz-adv-x="560" 
d="M310 464q109 0 169 -54t60 -145q0 -120 -83 -198q-83 -77 -213 -77q-108 0 -169.5 53.5t-61.5 144.5q0 118 84 197q83 79 214 79zM289 294q-30 0 -47.5 -25t-17.5 -60q0 -50 46 -50q28 0 47.5 23.5t19.5 59.5q0 52 -48 52zM362 709l140 -207h-138l-34 65l-59 -65h-138
l204 207h25z" />
    <glyph glyph-name="otilde" unicode="&#xf5;" horiz-adv-x="560" 
d="M310 464q109 0 169 -54t60 -145q0 -120 -83 -198q-83 -77 -213 -77q-108 0 -169.5 53.5t-61.5 144.5q0 118 84 197q83 79 214 79zM289 294q-30 0 -47.5 -25t-17.5 -60q0 -50 46 -50q28 0 47.5 23.5t19.5 59.5q0 52 -48 52zM468 685l34 -79q-46 -97 -114 -97q-25 0 -69 26
q-43 26 -61 26q-32 0 -65 -56l-38 80q22 44 53 71t65 27q24 0 65 -28t64 -28q29 0 66 58z" />
    <glyph glyph-name="odieresis" unicode="&#xf6;" horiz-adv-x="560" 
d="M310 464q109 0 169 -54t60 -145q0 -120 -83 -198q-83 -77 -213 -77q-108 0 -169.5 53.5t-61.5 144.5q0 118 84 197q83 79 214 79zM289 294q-30 0 -47.5 -25t-17.5 -60q0 -50 46 -50q28 0 47.5 23.5t19.5 59.5q0 52 -48 52zM241 702q33 0 54 -21.5t21 -54.5q0 -40 -30 -72
q-30 -31 -70 -31q-34 0 -54 21t-20 54q0 46 30 75q32 29 69 29zM449 702q33 0 54 -21.5t21 -54.5q0 -40 -30 -71q-29 -32 -70 -32q-34 0 -54 21t-20 54q0 46 30 75q32 29 69 29z" />
    <glyph glyph-name="divide" unicode="&#xf7;" 
d="M523 352l-17 -120h-432l17 120h432zM339 567q34 0 56.5 -23t22.5 -58q0 -43 -32 -75t-73 -32q-35 0 -57 23t-22 57q0 43 32 75q32 33 73 33zM289 209q34 0 56.5 -23t22.5 -58q0 -44 -33 -75q-32 -32 -73 -32q-34 0 -56 22.5t-22 56.5q0 45 31 76q31 33 74 33z" />
    <glyph glyph-name="oslash" unicode="&#xf8;" horiz-adv-x="560" 
d="M310 464q84 0 142 -35l18 18h53l-40 -41q56 -53 56 -141q0 -120 -83 -198q-83 -77 -213 -77q-81 0 -134 29l-19 -19h-53l39 41q-64 52 -64 147q0 118 84 197q83 79 214 79zM289 294q-30 0 -47.5 -25t-17.5 -60q0 -12 1 -15l90 93q-10 7 -26 7zM337 242q0 2 -0.5 6t-0.5 6
l-88 -91q7 -4 22 -4q28 0 47.5 23.5t19.5 59.5z" />
    <glyph glyph-name="ugrave" unicode="&#xf9;" horiz-adv-x="563" 
d="M317 0l-6 63h-5q-58 -73 -152 -73q-68 0 -99 42t-20 117l42 298h210l-35 -252q-6 -39 24 -39q34 0 41 58l32 233h213l-62 -447h-183zM406 502h-107l-137 142l125 65z" />
    <glyph glyph-name="uacute" unicode="&#xfa;" horiz-adv-x="563" 
d="M317 0l-6 63h-5q-58 -73 -152 -73q-68 0 -99 42t-20 117l42 298h210l-35 -252q-6 -39 24 -39q34 0 41 58l32 233h213l-62 -447h-183zM400 714l119 -70l-161 -142h-115z" />
    <glyph glyph-name="ucircumflex" unicode="&#xfb;" horiz-adv-x="563" 
d="M317 0l-6 63h-5q-58 -73 -152 -73q-68 0 -99 42t-20 117l42 298h210l-35 -252q-6 -39 24 -39q34 0 41 58l32 233h213l-62 -447h-183zM370 709l140 -207h-138l-34 65l-59 -65h-138l204 207h25z" />
    <glyph glyph-name="udieresis" unicode="&#xfc;" horiz-adv-x="563" 
d="M317 0l-6 63h-5q-58 -73 -152 -73q-68 0 -99 42t-20 117l42 298h210l-35 -252q-6 -39 24 -39q34 0 41 58l32 233h213l-62 -447h-183zM250 702q33 0 54 -21.5t21 -54.5q0 -40 -30 -72q-30 -31 -70 -31q-34 0 -54 21t-20 54q0 46 30 75q32 29 69 29zM458 702q33 0 54 -21.5
t21 -54.5q0 -40 -30 -71q-29 -32 -70 -32q-34 0 -54 21t-20 54q0 46 30 75q32 29 69 29z" />
    <glyph glyph-name="yacute" unicode="&#xfd;" horiz-adv-x="532" 
d="M20 -220l113 232l-111 435h213l14 -237h6l87 237h214l-334 -667h-202zM385 714l119 -70l-161 -142h-115z" />
    <glyph glyph-name="thorn" unicode="&#xfe;" horiz-adv-x="601" 
d="M312 711l-40 -288l4 -3q50 42 124 42q88 0 134.5 -51t46.5 -137q0 -130 -76 -207q-75 -78 -182 -78q-70 0 -102 31l-6 -4l-33 -235h-209l130 930h209zM326 291q-27 0 -47 -24t-20 -59q0 -55 48 -55q27 0 46 24.5t19 60.5q0 53 -46 53z" />
    <glyph glyph-name="ydieresis" unicode="&#xff;" horiz-adv-x="532" 
d="M218 702q33 0 54 -21.5t21 -54.5q0 -40 -30 -72q-30 -31 -70 -31q-34 0 -54 21t-20 54q0 46 30 75q32 29 69 29zM426 702q33 0 54 -21.5t21 -54.5q0 -40 -30 -71q-29 -32 -70 -32q-34 0 -54 21t-20 54q0 46 30 75q32 29 69 29zM20 -220l113 232l-111 435h213l14 -237h6
l87 237h214l-334 -667h-202z" />
    <glyph glyph-name="Amacron" unicode="&#x100;" horiz-adv-x="694" 
d="M654 0h-232l-15 62h-179l-34 -62h-224l429 679h24zM353 287h-4l-57 -101h88zM584 725h-347l18 122h347z" />
    <glyph glyph-name="amacron" unicode="&#x101;" horiz-adv-x="594" 
d="M276 463q93 0 140 -59l27 43h140l-64 -447h-158l-7 44l-5 1q-67 -55 -159 -55q-86 0 -132.5 48t-46.5 133q0 124 72 208q73 84 193 84zM290 294q-30 0 -47.5 -25t-17.5 -60q0 -50 46 -50q28 0 47.5 23.5t19.5 59.5q0 52 -48 52zM500 535h-346l17 122h346z" />
    <glyph glyph-name="Abreve" unicode="&#x102;" horiz-adv-x="694" 
d="M412 701q-86 0 -122 53q-35 53 -27 131h89q-4 -81 78 -81q30 0 57 22.5t38 58.5h87q-16 -73 -66 -129q-49 -55 -134 -55zM654 0h-232l-15 62h-179l-34 -62h-224l429 679h24zM353 287h-4l-57 -101h88z" />
    <glyph glyph-name="abreve" unicode="&#x103;" horiz-adv-x="594" 
d="M276 463q93 0 140 -59l27 43h140l-64 -447h-158l-7 44l-5 1q-67 -55 -159 -55q-86 0 -132.5 48t-46.5 133q0 124 72 208q73 84 193 84zM290 294q-30 0 -47.5 -25t-17.5 -60q0 -50 46 -50q28 0 47.5 23.5t19.5 59.5q0 52 -48 52zM308 493q-85 0 -121 55q-35 56 -27 135h89
q-3 -82 79 -82q30 0 56.5 23t36.5 59h88q-17 -77 -67 -133q-50 -57 -134 -57z" />
    <glyph glyph-name="Aogonek" unicode="&#x104;" horiz-adv-x="694" 
d="M423 679l231 -679h-151q-70 -66 -70 -116q0 -44 62 -44q47 0 100 27l-11 -79q-73 -40 -161 -40q-114 0 -114 81q0 40 29.5 87.5t82.5 87.5l-14 58h-179l-34 -62h-224l429 679h24zM353 287h-4l-57 -101h88z" />
    <glyph glyph-name="aogonek" unicode="&#x105;" horiz-adv-x="594" 
d="M276 463q93 0 140 -59l27 43h140l-64 -447h-90l1 -1q-42 -35 -69.5 -72.5t-27.5 -66.5q0 -44 62 -44q47 0 100 27l-11 -79q-73 -40 -161 -40q-114 0 -114 81q0 45 39 102t112 99l-6 38l-5 1q-67 -55 -159 -55q-86 0 -132.5 48t-46.5 133q0 124 72 208q73 84 193 84z
M290 294q-30 0 -47.5 -25t-17.5 -60q0 -50 46 -50q28 0 47.5 23.5t19.5 59.5q0 52 -48 52z" />
    <glyph glyph-name="Cacute" unicode="&#x106;" horiz-adv-x="614" 
d="M568 213l-27 -199q-85 -29 -187 -29q-150 0 -231 77.5t-81 212.5q0 109 48 198q49 92 146 146t221 54q91 0 160 -24l-28 -195q-58 26 -124 26q-76 0 -131 -46t-55 -138q0 -59 35 -89t96 -30q72 0 158 36zM493 914l119 -70l-161 -142h-115z" />
    <glyph glyph-name="cacute" unicode="&#x107;" horiz-adv-x="436" 
d="M304 464q64 0 116 -21l-19 -167q-40 20 -86 20q-40 0 -65 -22.5t-25 -62.5q0 -58 67 -58q47 0 104 28l-23 -161q-62 -32 -157 -32q-94 0 -150 54q-55 55 -55 141q0 133 84 207q85 74 209 74zM345 714l119 -70l-161 -142h-115z" />
    <glyph glyph-name="Ccircumflex" unicode="&#x108;" horiz-adv-x="614" 
d="M568 213l-27 -199q-85 -29 -187 -29q-150 0 -231 77.5t-81 212.5q0 109 48 198q49 92 146 146t221 54q91 0 160 -24l-28 -195q-58 26 -124 26q-76 0 -131 -46t-55 -138q0 -59 35 -89t96 -30q72 0 158 36zM477 915l150 -198h-146l-39 65l-62 -65h-141l213 198h25z" />
    <glyph glyph-name="ccircumflex" unicode="&#x109;" horiz-adv-x="436" 
d="M304 464q64 0 116 -21l-19 -167q-40 20 -86 20q-40 0 -65 -22.5t-25 -62.5q0 -58 67 -58q47 0 104 28l-23 -161q-62 -32 -157 -32q-94 0 -150 54q-55 55 -55 141q0 133 84 207q85 74 209 74zM320 709l140 -207h-138l-34 65l-59 -65h-138l204 207h25z" />
    <glyph glyph-name="Cdotaccent" unicode="&#x10a;" horiz-adv-x="614" 
d="M568 213l-27 -199q-85 -29 -187 -29q-150 0 -231 77.5t-81 212.5q0 109 48 198q49 92 146 146t221 54q91 0 160 -24l-28 -195q-58 26 -124 26q-76 0 -131 -46t-55 -138q0 -59 35 -89t96 -30q72 0 158 36zM478 925q42 0 68.5 -27t26.5 -67q0 -52 -37 -90q-37 -39 -89 -39
q-43 0 -68 27t-25 68q0 56 38 92q39 36 86 36z" />
    <glyph glyph-name="cdotaccent" unicode="&#x10b;" horiz-adv-x="436" 
d="M304 464q64 0 116 -21l-19 -167q-40 20 -86 20q-40 0 -65 -22.5t-25 -62.5q0 -58 67 -58q47 0 104 28l-23 -161q-62 -32 -157 -32q-94 0 -150 54q-55 55 -55 141q0 133 84 207q85 74 209 74zM329 719q42 0 68.5 -27t26.5 -67q0 -52 -37 -90q-37 -39 -89 -39q-43 0 -68 27
t-25 68q0 56 38 92q39 36 86 36z" />
    <glyph glyph-name="Ccaron" unicode="&#x10c;" horiz-adv-x="614" 
d="M568 213l-27 -199q-85 -29 -187 -29q-150 0 -231 77.5t-81 212.5q0 109 48 198q49 92 146 146t221 54q91 0 160 -24l-28 -195q-58 26 -124 26q-76 0 -131 -46t-55 -138q0 -59 35 -89t96 -30q72 0 158 36zM454 842l57 65h150l-207 -198h-25l-156 198h137z" />
    <glyph glyph-name="ccaron" unicode="&#x10d;" horiz-adv-x="436" 
d="M304 464q64 0 116 -21l-19 -167q-40 20 -86 20q-40 0 -65 -22.5t-25 -62.5q0 -58 67 -58q47 0 104 28l-23 -161q-62 -32 -157 -32q-94 0 -150 54q-55 55 -55 141q0 133 84 207q85 74 209 74zM305 635l54 65h141l-198 -207h-25l-146 207h135z" />
    <glyph glyph-name="Dcaron" unicode="&#x10e;" horiz-adv-x="694" 
d="M287 0h-274l92 659h247q161 0 241 -80t80 -205q0 -145 -98 -257q-48 -54 -123.5 -85.5t-164.5 -31.5zM342 479h-27l-42 -298h27q64 0 103.5 52t39.5 139q0 107 -101 107zM384 832l57 65h150l-207 -198h-25l-156 198h137z" />
    <glyph glyph-name="dcaron" unicode="&#x10f;" horiz-adv-x="771" 
d="M366 440l7 4l38 267h203l-98 -711h-162l-10 36h-4q-58 -46 -146 -46q-90 0 -137 51.5t-47 138.5q0 130 76 206q77 77 186 77q57 0 94 -23zM286 296q-27 0 -46 -24.5t-19 -61.5q0 -52 46 -52q27 0 47.5 24.5t20.5 59.5q0 24 -13 39t-36 15zM754 718q35 0 54.5 -20
t19.5 -53q0 -51 -41 -113t-93 -111l-59 10l58 131q-33 14 -33 57q0 42 28 70q29 29 66 29z" />
    <glyph glyph-name="Dcroat" unicode="&#x110;" horiz-adv-x="694" 
d="M287 0h-274l39 281h-43l14 101h43l39 277h247q161 0 241 -80t80 -205q0 -145 -98 -257q-48 -54 -123.5 -85.5t-164.5 -31.5zM342 479h-27l-14 -97h69l-14 -101h-69l-14 -100h27q64 0 103.5 52t39.5 139q0 107 -101 107z" />
    <glyph glyph-name="dslash" unicode="&#x111;" horiz-adv-x="590" 
d="M366 440l7 4l12 88h-119l12 85h119l14 94h203l-13 -94h47l-12 -85h-47l-73 -532h-162l-10 36h-4q-58 -46 -146 -46q-90 0 -137 51.5t-47 138.5q0 130 76 206q77 77 186 77q57 0 94 -23zM286 296q-27 0 -46 -24.5t-19 -61.5q0 -52 46 -52q27 0 47.5 24.5t20.5 59.5
q0 24 -13 39t-36 15z" />
    <glyph glyph-name="Emacron" unicode="&#x112;" horiz-adv-x="565" 
d="M498 0h-485l92 659h464l-25 -180h-228l-8 -55h195l-24 -172h-195l-10 -71h249zM525 725h-347l18 122h347z" />
    <glyph glyph-name="emacron" unicode="&#x113;" horiz-adv-x="509" 
d="M292 466q86 0 138.5 -38.5t52.5 -102.5q0 -41 -21.5 -72.5t-58.5 -46.5q-67 -28 -144 -28q-7 0 -33 2q3 -47 70 -47q36 0 79.5 14t76.5 35l-18 -147q-75 -45 -202 -45q-116 0 -168 57q-52 58 -52 141q0 112 75 194q75 84 205 84zM271 319q-38 0 -44 -60l4 -1h6
q25 0 40.5 10t15.5 28q0 23 -22 23zM476 535h-346l17 122h346z" />
    <glyph glyph-name="Ebreve" unicode="&#x114;" horiz-adv-x="565" 
d="M348 701q-86 0 -122 53q-35 53 -27 131h89q-4 -81 78 -81q30 0 57 22.5t38 58.5h87q-16 -73 -66 -129q-49 -55 -134 -55zM498 0h-485l92 659h464l-25 -180h-228l-8 -55h195l-24 -172h-195l-10 -71h249z" />
    <glyph glyph-name="ebreve" unicode="&#x115;" horiz-adv-x="509" 
d="M292 466q86 0 138.5 -38.5t52.5 -102.5q0 -41 -21.5 -72.5t-58.5 -46.5q-67 -28 -144 -28q-7 0 -33 2q3 -47 70 -47q36 0 79.5 14t76.5 35l-18 -147q-75 -45 -202 -45q-116 0 -168 57q-52 58 -52 141q0 112 75 194q75 84 205 84zM271 319q-38 0 -44 -60l4 -1h6
q25 0 40.5 10t15.5 28q0 23 -22 23zM301 493q-85 0 -121 55q-34 56 -27 135h89q-3 -82 79 -82q30 0 56.5 23t36.5 59h88q-17 -77 -67 -133q-49 -57 -134 -57z" />
    <glyph glyph-name="Edotaccent" unicode="&#x116;" horiz-adv-x="565" 
d="M498 0h-485l92 659h464l-25 -180h-228l-8 -55h195l-24 -172h-195l-10 -71h249zM380 915q42 0 68.5 -27t26.5 -67q0 -52 -37 -90q-38 -39 -89 -39q-43 0 -68 27t-25 68q0 56 38 92q39 36 86 36z" />
    <glyph glyph-name="edotaccent" unicode="&#x117;" horiz-adv-x="509" 
d="M292 466q86 0 138.5 -38.5t52.5 -102.5q0 -41 -21.5 -72.5t-58.5 -46.5q-67 -28 -144 -28q-7 0 -33 2q3 -47 70 -47q36 0 79.5 14t76.5 35l-18 -147q-75 -45 -202 -45q-116 0 -168 57q-52 58 -52 141q0 112 75 194q75 84 205 84zM271 319q-38 0 -44 -60l4 -1h6
q25 0 40.5 10t15.5 28q0 23 -22 23zM331 718q42 0 68.5 -27t26.5 -67q0 -52 -37 -90q-37 -39 -89 -39q-43 0 -68 27t-25 68q0 56 38 92q39 36 86 36z" />
    <glyph glyph-name="Eogonek" unicode="&#x118;" horiz-adv-x="565" 
d="M339 0h-326l92 659h464l-25 -180h-228l-8 -55h195l-24 -172h-195l-10 -71h249l-25 -181h-73q-79 -69 -79 -124q0 -44 62 -44q48 0 100 27l-11 -79q-73 -40 -161 -40q-114 0 -114 81q0 41 31 89.5t86 89.5z" />
    <glyph glyph-name="eogonek" unicode="&#x119;" horiz-adv-x="509" 
d="M292 466q86 0 138.5 -38.5t52.5 -102.5q0 -41 -21.5 -72.5t-58.5 -46.5q-67 -28 -144 -28q-7 0 -33 2q3 -47 70 -47q36 0 79.5 14t76.5 35l-18 -147q-37 -21 -77 -32q-69 -63 -69 -114q0 -44 62 -44q48 0 100 27l-11 -79q-73 -40 -161 -40q-114 0 -114 81q0 34 23.5 76.5
t65.5 79.5h-21q-116 0 -168 57q-52 58 -52 141q0 112 75 194q75 84 205 84zM271 319q-38 0 -44 -60l4 -1h6q25 0 40.5 10t15.5 28q0 23 -22 23z" />
    <glyph glyph-name="Ecaron" unicode="&#x11a;" horiz-adv-x="565" 
d="M498 0h-485l92 659h464l-25 -180h-228l-8 -55h195l-24 -172h-195l-10 -71h249zM366 832l57 65h150l-207 -198h-25l-156 198h137z" />
    <glyph glyph-name="ecaron" unicode="&#x11b;" horiz-adv-x="509" 
d="M292 466q86 0 138.5 -38.5t52.5 -102.5q0 -41 -21.5 -72.5t-58.5 -46.5q-67 -28 -144 -28q-7 0 -33 2q3 -47 70 -47q36 0 79.5 14t76.5 35l-18 -147q-75 -45 -202 -45q-116 0 -168 57q-52 58 -52 141q0 112 75 194q75 84 205 84zM271 319q-38 0 -44 -60l4 -1h6
q25 0 40.5 10t15.5 28q0 23 -22 23zM308 630l54 65h141l-198 -207h-25l-146 207h135z" />
    <glyph glyph-name="Gcircumflex" unicode="&#x11c;" horiz-adv-x="674" 
d="M462 675q112 0 190 -37l-28 -202q-68 44 -166 44q-81 0 -130 -53.5t-49 -143.5q0 -108 108 -108q22 0 28 1l26 180h203l-47 -333q-111 -38 -247 -38q-151 0 -231 75t-80 209q0 164 107 282q53 58 135 91t181 33zM503 905l150 -198h-146l-39 65l-62 -65h-141l213 198h25z
" />
    <glyph glyph-name="gcircumflex" unicode="&#x11d;" horiz-adv-x="524" 
d="M-16 88l91 89q-27 29 -27 78q0 93 69 151q70 59 168 59q47 0 95 -17h166l-12 -89l-51 -12q4 -17 4 -39q0 -72 -59 -128q-58 -54 -166 -54q-38 0 -85 9l-19 -26l148 -18q161 -20 161 -115q0 -47 -35 -97q-69 -110 -264 -113q-111 0 -158 37q-48 36 -48 84q0 36 22.5 70
t60.5 55l-12 2q-23 4 -38 18.5t-15 34.5q0 13 4 21zM230 -18l-75 13q-15 -24 -15 -44q0 -18 14.5 -28.5t37.5 -10.5q26 0 45 13.5t19 35.5q0 16 -26 21zM280 338q-18 0 -29.5 -16t-11.5 -37q0 -32 29 -32q18 0 30.5 15t12.5 38q0 14 -8.5 23t-22.5 9zM346 709l140 -207h-138
l-34 65l-59 -65h-138l204 207h25z" />
    <glyph glyph-name="Gbreve" unicode="&#x11e;" horiz-adv-x="674" 
d="M462 675q112 0 190 -37l-28 -202q-68 44 -166 44q-81 0 -130 -53.5t-49 -143.5q0 -108 108 -108q22 0 28 1l26 180h203l-47 -333q-111 -38 -247 -38q-151 0 -231 75t-80 209q0 164 107 282q53 58 135 91t181 33zM460 701q-86 0 -122 53q-35 53 -27 131h89q-4 -81 78 -81
q30 0 57 22.5t38 58.5h87q-16 -73 -66 -129q-49 -55 -134 -55z" />
    <glyph glyph-name="gbreve" unicode="&#x11f;" horiz-adv-x="524" 
d="M-16 88l91 89q-27 29 -27 78q0 93 69 151q70 59 168 59q47 0 95 -17h166l-12 -89l-51 -12q4 -17 4 -39q0 -72 -59 -128q-58 -54 -166 -54q-38 0 -85 9l-19 -26l148 -18q161 -20 161 -115q0 -47 -35 -97q-69 -110 -264 -113q-111 0 -158 37q-48 36 -48 84q0 36 22.5 70
t60.5 55l-12 2q-23 4 -38 18.5t-15 34.5q0 13 4 21zM230 -18l-75 13q-15 -24 -15 -44q0 -18 14.5 -28.5t37.5 -10.5q26 0 45 13.5t19 35.5q0 16 -26 21zM280 338q-18 0 -29.5 -16t-11.5 -37q0 -32 29 -32q18 0 30.5 15t12.5 38q0 14 -8.5 23t-22.5 9zM299 493q-85 0 -121 55
q-34 56 -27 135h89q-3 -82 79 -82q30 0 56.5 23t36.5 59h88q-17 -77 -67 -133q-49 -57 -134 -57z" />
    <glyph glyph-name="Gdotaccent" unicode="&#x120;" horiz-adv-x="674" 
d="M462 675q112 0 190 -37l-28 -202q-68 44 -166 44q-81 0 -130 -53.5t-49 -143.5q0 -108 108 -108q22 0 28 1l26 180h203l-47 -333q-111 -38 -247 -38q-151 0 -231 75t-80 209q0 164 107 282q53 58 135 91t181 33zM492 924q42 0 68.5 -27t26.5 -67q0 -52 -37 -90
q-37 -39 -89 -39q-43 0 -68 27t-25 68q0 56 38 92q39 36 86 36z" />
    <glyph glyph-name="gdotaccent" unicode="&#x121;" horiz-adv-x="524" 
d="M-16 88l91 89q-27 29 -27 78q0 93 69 151q70 59 168 59q47 0 95 -17h166l-12 -89l-51 -12q4 -17 4 -39q0 -72 -59 -128q-58 -54 -166 -54q-38 0 -85 9l-19 -26l148 -18q161 -20 161 -115q0 -47 -35 -97q-69 -110 -264 -113q-111 0 -158 37q-48 36 -48 84q0 36 22.5 70
t60.5 55l-12 2q-23 4 -38 18.5t-15 34.5q0 13 4 21zM230 -18l-75 13q-15 -24 -15 -44q0 -18 14.5 -28.5t37.5 -10.5q26 0 45 13.5t19 35.5q0 16 -26 21zM280 338q-18 0 -29.5 -16t-11.5 -37q0 -32 29 -32q18 0 30.5 15t12.5 38q0 14 -8.5 23t-22.5 9zM332 716q42 0 68.5 -27
t26.5 -67q0 -52 -37 -90q-38 -39 -89 -39q-43 0 -68 27t-25 68q0 56 38 92q39 36 86 36z" />
    <glyph glyph-name="Gcommaaccent" unicode="&#x122;" horiz-adv-x="674" 
d="M462 675q112 0 190 -37l-28 -202q-68 44 -166 44q-81 0 -130 -53.5t-49 -143.5q0 -108 108 -108q22 0 28 1l26 180h203l-47 -333q-111 -38 -247 -38q-151 0 -231 75t-80 209q0 164 107 282q53 58 135 91t181 33zM361 -56q35 0 54.5 -20t19.5 -53q0 -51 -41 -113
q-40 -62 -93 -111l-59 10l58 131q-33 14 -33 57q0 42 28 70q29 29 66 29z" />
    <glyph glyph-name="gcommaaccent" unicode="&#x123;" horiz-adv-x="524" 
d="M-16 88l91 89q-27 29 -27 78q0 93 69 151q70 59 168 59q47 0 95 -17h166l-12 -89l-51 -12q4 -17 4 -39q0 -72 -59 -128q-58 -54 -166 -54q-38 0 -85 9l-19 -26l148 -18q161 -20 161 -115q0 -47 -35 -97q-69 -110 -264 -113q-111 0 -158 37q-48 36 -48 84q0 36 22.5 70
t60.5 55l-12 2q-23 4 -38 18.5t-15 34.5q0 13 4 21zM230 -18l-75 13q-15 -24 -15 -44q0 -18 14.5 -28.5t37.5 -10.5q26 0 45 13.5t19 35.5q0 16 -26 21zM280 338q-18 0 -29.5 -16t-11.5 -37q0 -32 29 -32q18 0 30.5 15t12.5 38q0 14 -8.5 23t-22.5 9zM316 498
q-35 0 -54.5 20t-19.5 53q0 52 40 113q39 59 94 111l59 -10l-58 -131q33 -14 33 -57q0 -41 -29 -70t-65 -29z" />
    <glyph glyph-name="Hcircumflex" unicode="&#x124;" horiz-adv-x="700" 
d="M617 0h-237l34 247h-131l-34 -247h-236l92 659h236l-32 -230h131l32 230h237zM459 905l150 -198h-146l-39 65l-62 -65h-141l213 198h25z" />
    <glyph glyph-name="hcircumflex" unicode="&#x125;" horiz-adv-x="566" 
d="M306 711l-42 -303l3 -1q59 57 136 57q75 0 109 -42t23 -120l-42 -302h-211l34 247q8 47 -23 47q-39 0 -47 -65l-32 -229h-210l99 711h203zM252 956l150 -198h-146l-39 65l-62 -65h-141l213 198h25z" />
    <glyph glyph-name="Hbar" unicode="&#x126;" horiz-adv-x="700" 
d="M617 0h-237l34 247h-131l-34 -247h-236l69 494h-38l12 85h38l11 80h236l-11 -80h131l11 80h237l-11 -80h39l-12 -85h-39zM318 494l-9 -65h131l9 65h-131z" />
    <glyph glyph-name="hbar" unicode="&#x127;" horiz-adv-x="566" 
d="M281 532l-17 -124l3 -1q59 57 136 57q75 0 109 -42t23 -120l-42 -302h-211l34 247q8 47 -23 47q-39 0 -47 -65l-32 -229h-210l74 532h-39l12 85h39l13 94h203l-13 -94h141l-12 -85h-141z" />
    <glyph glyph-name="Itilde" unicode="&#x128;" horiz-adv-x="334" 
d="M105 659h237l-92 -659h-237zM386 877l34 -79q-46 -97 -114 -97q-25 0 -69 26q-43 26 -61 26q-32 0 -65 -56l-38 80q22 44 53 71t65 27q23 0 64 -28q43 -28 65 -28q29 0 66 58z" />
    <glyph glyph-name="itilde" unicode="&#x129;" horiz-adv-x="294" 
d="M337 689l34 -79q-46 -97 -114 -97q-25 0 -69 26q-43 26 -61 26q-32 0 -65 -56l-38 80q22 44 53 71t65 27q23 0 64 -28t65 -28q29 0 66 58zM280 447l-62 -447h-212l62 447h212z" />
    <glyph glyph-name="Imacron" unicode="&#x12a;" horiz-adv-x="334" 
d="M105 659h237l-92 -659h-237zM410 725h-347l18 122h347z" />
    <glyph glyph-name="imacron" unicode="&#x12b;" horiz-adv-x="294" 
d="M280 447l-62 -447h-212l62 447h212zM360 535h-346l17 122h346z" />
    <glyph glyph-name="Ibreve" unicode="&#x12c;" horiz-adv-x="334" 
d="M233 704q-86 0 -122 53q-35 53 -27 131h89q-5 -81 78 -81q30 0 57 22.5t38 58.5h87q-17 -74 -66 -129t-134 -55zM105 659h237l-92 -659h-237z" />
    <glyph glyph-name="ibreve" unicode="&#x12d;" horiz-adv-x="294" 
d="M183 493q-85 0 -121 55q-34 56 -27 135h89q-3 -82 79 -82q30 0 56.5 23t36.5 59h88q-17 -77 -67 -133q-49 -57 -134 -57zM280 447l-62 -447h-212l62 447h212z" />
    <glyph glyph-name="Iogonek" unicode="&#x12e;" horiz-adv-x="334" 
d="M105 659h237l-92 -659h-74q-83 -74 -83 -128q0 -44 62 -44q48 0 100 27l-11 -79q-73 -40 -161 -40q-114 0 -114 81q0 42 32 92.5t90 90.5h-78z" />
    <glyph glyph-name="iogonek" unicode="&#x12f;" horiz-adv-x="294" 
d="M280 447l-62 -447h-67q-84 -74 -84 -129q0 -44 62 -44q48 0 100 27l-11 -79q-73 -40 -161 -40q-114 0 -114 81q0 42 33 92.5t91 91.5h-61l62 447h212zM215 722q42 0 68.5 -27t26.5 -67q0 -50 -37 -90q-38 -39 -89 -39q-43 0 -68 27t-25 68q0 55 39 91q38 37 85 37z" />
    <glyph glyph-name="Idot" unicode="&#x130;" horiz-adv-x="334" 
d="M105 659h237l-92 -659h-237zM264 913q42 0 68.5 -27t26.5 -67q0 -52 -37 -90q-38 -39 -89 -39q-43 0 -68 27t-25 68q0 56 38 92q39 36 86 36z" />
    <glyph glyph-name="dotlessi" unicode="&#x131;" horiz-adv-x="294" 
d="M280 447l-62 -447h-212l62 447h212z" />
    <glyph glyph-name="IJ" unicode="&#x132;" horiz-adv-x="847" 
d="M617 659h240l-52 -370q-42 -304 -332 -304q-103 0 -173 42l24 197q71 -41 124 -41q52 0 81 28t38 90zM105 659h237l-92 -659h-237z" />
    <glyph glyph-name="ij" unicode="&#x133;" 
d="M508 722q42 0 68.5 -27t26.5 -67q0 -50 -37 -90q-38 -39 -89 -39q-43 0 -68 27t-25 68q0 55 39 91q38 37 85 37zM364 447h210l-55 -394q-37 -275 -316 -289l-56 174q85 4 120 32q35 26 45 102zM280 447l-62 -447h-212l62 447h212zM215 722q42 0 68.5 -27t26.5 -67
q0 -50 -37 -90q-38 -39 -89 -39q-43 0 -68 27t-25 68q0 55 39 91q38 37 85 37z" />
    <glyph glyph-name="Jcircumflex" unicode="&#x134;" horiz-adv-x="535" 
d="M304 660h240l-52 -370q-42 -304 -332 -304q-102 0 -173 42l24 197q71 -41 124 -41q52 0 81 28t38 90zM476 905l150 -198h-146l-39 65l-62 -65h-141l213 198h25z" />
    <glyph glyph-name="jcircumflex" unicode="&#x135;" horiz-adv-x="294" 
d="M70 447h210l-55 -394q-37 -275 -316 -289l-56 174q86 5 121 32q33 25 44 102zM230 709l140 -207h-138l-34 65l-59 -65h-138l204 207h25z" />
    <glyph glyph-name="Kcommaaccent" unicode="&#x136;" horiz-adv-x="691" 
d="M105 659h237l-41 -293l180 293h258l-232 -323l144 -336h-251l-106 314l-44 -314h-237zM309 -42q35 0 54.5 -20t19.5 -53q0 -51 -41 -113q-40 -62 -93 -111l-59 10l58 131q-33 14 -33 57q0 42 28 70q29 29 66 29z" />
    <glyph glyph-name="kcommaaccent" unicode="&#x137;" horiz-adv-x="573" 
d="M448 232l85 -232h-219l-61 209l-29 -209h-220l99 711h220l-64 -459l110 195h224zM246 -42q35 0 54.5 -20t19.5 -53q0 -51 -41 -113t-93 -111l-59 10l58 131q-33 14 -33 57q0 42 28 70q29 29 66 29z" />
    <glyph glyph-name="kgreenlandic" unicode="&#x138;" horiz-adv-x="573" 
d="M448 232l85 -232h-219l-61 209l-29 -209h-220l62 447h220l-27 -195l110 195h224z" />
    <glyph glyph-name="Lacute" unicode="&#x139;" horiz-adv-x="535" 
d="M342 659l-67 -478h241l-25 -181h-477l92 659h236zM307 914l119 -70l-161 -142h-115z" />
    <glyph glyph-name="lacute" unicode="&#x13a;" horiz-adv-x="290" 
d="M315 711l-99 -711h-212l99 711h212zM304 959l119 -70l-161 -142h-115z" />
    <glyph glyph-name="Lcommaaccent" unicode="&#x13b;" horiz-adv-x="535" 
d="M342 659l-67 -478h241l-25 -181h-477l92 659h236zM254 -42q35 0 54.5 -20t19.5 -53q0 -51 -41 -113t-93 -111l-59 10l58 131q-33 14 -33 57q0 42 28 70q29 29 66 29z" />
    <glyph glyph-name="lcommaaccent" unicode="&#x13c;" horiz-adv-x="290" 
d="M315 711l-99 -711h-212l99 711h212zM116 -42q35 0 54.5 -20t19.5 -53q0 -51 -41 -113t-93 -111l-59 10l58 131q-33 14 -33 57q0 42 28 70q29 29 66 29z" />
    <glyph glyph-name="Lcaron" unicode="&#x13d;" horiz-adv-x="535" 
d="M342 659l-67 -478h241l-25 -181h-477l92 659h236zM531 672q35 0 54.5 -20t19.5 -53q0 -51 -41 -113q-40 -62 -93 -111l-59 10l58 131q-33 14 -33 57q0 42 28 70q29 29 66 29z" />
    <glyph glyph-name="lcaron" unicode="&#x13e;" horiz-adv-x="467" 
d="M315 711l-99 -711h-212l99 711h212zM447 721q35 0 54.5 -20t19.5 -53q0 -51 -41 -113q-40 -61 -93 -111l-59 10l58 131q-33 13 -33 57q0 42 28 70q29 29 66 29z" />
    <glyph glyph-name="Ldot" unicode="&#x13f;" horiz-adv-x="572" 
d="M342 659l-67 -478h241l-25 -181h-477l92 659h236zM491 489q42 0 68.5 -27t26.5 -67q0 -52 -37 -90q-38 -39 -89 -39q-43 0 -68 27t-25 68q0 56 38 92q39 36 86 36z" />
    <glyph glyph-name="ldot" unicode="&#x140;" horiz-adv-x="487" 
d="M315 711l-99 -711h-212l99 711h212zM419 480q42 0 68.5 -27t26.5 -67q0 -52 -37 -90q-37 -39 -89 -39q-43 0 -68 27t-25 68q0 56 38 92q39 36 86 36z" />
    <glyph glyph-name="Lslash" unicode="&#x141;" horiz-adv-x="535" 
d="M295 326l-20 -145h241l-25 -181h-477l35 250l-57 -17l12 86l57 18l45 322h236l-34 -244l98 31l-12 -90z" />
    <glyph glyph-name="lslash" unicode="&#x142;" horiz-adv-x="290" 
d="M262 334l-46 -334h-212l37 267l-55 -16l12 86l55 17l50 357h212l-40 -287l61 19l-13 -90z" />
    <glyph glyph-name="Nacute" unicode="&#x143;" horiz-adv-x="700" 
d="M249 0h-236l95 679h24l301 -268h4l35 248h237l-95 -679h-22l-303 283h-4zM463 914l119 -70l-161 -142h-115z" />
    <glyph glyph-name="nacute" unicode="&#x144;" horiz-adv-x="567" 
d="M240 447l10 -55l3 -1q31 35 74 54t79 19q75 0 108 -41.5t22 -120.5l-42 -302h-212l34 247q8 47 -22 47q-40 0 -48 -65l-32 -229h-210l62 447h174zM371 714l119 -70l-161 -142h-115z" />
    <glyph glyph-name="Ncommaaccent" unicode="&#x145;" horiz-adv-x="700" 
d="M249 0h-236l95 679h24l301 -268h4l35 248h237l-95 -679h-22l-303 283h-4zM341 -42q35 0 54.5 -20t19.5 -53q0 -51 -41 -113q-40 -62 -93 -111l-59 10l58 131q-33 14 -33 57q0 42 28 70q29 29 66 29z" />
    <glyph glyph-name="ncommaaccent" unicode="&#x146;" horiz-adv-x="567" 
d="M240 447l10 -55l3 -1q31 35 74 54t79 19q75 0 108 -41.5t22 -120.5l-42 -302h-212l34 247q8 47 -22 47q-40 0 -48 -65l-32 -229h-210l62 447h174zM245 -42q35 0 54.5 -20t19.5 -53q0 -51 -41 -113q-40 -62 -93 -111l-59 10l58 131q-33 14 -33 57q0 42 28 70q29 29 66 29z
" />
    <glyph glyph-name="Ncaron" unicode="&#x147;" horiz-adv-x="700" 
d="M249 0h-236l95 679h24l301 -268h4l35 248h237l-95 -679h-22l-303 283h-4zM418 832l57 65h150l-207 -198h-25l-156 198h137z" />
    <glyph glyph-name="ncaron" unicode="&#x148;" horiz-adv-x="567" 
d="M240 447l10 -55l3 -1q31 35 74 54t79 19q75 0 108 -41.5t22 -120.5l-42 -302h-212l34 247q8 47 -22 47q-40 0 -48 -65l-32 -229h-210l62 447h174zM313 630l54 65h141l-198 -207h-25l-146 207h135z" />
    <glyph glyph-name="napostrophe" unicode="&#x149;" horiz-adv-x="643" 
d="M316 447l10 -55l3 -1q31 35 74 54t79 19q75 0 108 -41.5t22 -120.5l-42 -302h-212l34 247q8 47 -22 47q-40 0 -48 -65l-32 -229h-210l62 447h174zM145 765q35 0 54.5 -20t19.5 -53q0 -51 -41 -113q-40 -61 -93 -111l-59 10l58 131q-33 13 -33 57q0 42 28 70q29 29 66 29z
" />
    <glyph glyph-name="Eng" unicode="&#x14a;" horiz-adv-x="700" 
d="M249 0h-236l95 679h24l301 -268h4l35 248h237l-86 -611q-39 -285 -328 -289l-72 161q95 9 129 44q34 34 46 117l10 72l-119 110h-4z" />
    <glyph glyph-name="eng" unicode="&#x14b;" horiz-adv-x="567" 
d="M240 447l10 -55l3 -1q31 35 74 54t79 19q75 0 108 -41.5t22 -120.5l-35 -249q-40 -284 -320 -292l-60 155q87 0 121 37q36 36 48 118l26 176q8 47 -22 47q-40 0 -48 -65l-32 -229h-210l62 447h174z" />
    <glyph glyph-name="Omacron" unicode="&#x14c;" horiz-adv-x="787" 
d="M453 674q145 0 230 -85t85 -214q0 -165 -120 -277q-118 -112 -293 -112q-144 0 -228 84t-84 213q0 166 115 278q116 113 295 113zM386 178q63 0 105 52q43 52 43 130q0 54 -27.5 86t-78.5 32q-65 0 -108 -52q-42 -52 -42 -125q0 -55 29 -89t79 -34zM635 725h-347l18 122
h347z" />
    <glyph glyph-name="omacron" unicode="&#x14d;" horiz-adv-x="560" 
d="M310 464q109 0 169 -54t60 -145q0 -120 -83 -198q-83 -77 -213 -77q-108 0 -169.5 53.5t-61.5 144.5q0 118 84 197q83 79 214 79zM289 294q-30 0 -47.5 -25t-17.5 -60q0 -50 46 -50q28 0 47.5 23.5t19.5 59.5q0 52 -48 52zM497 535h-346l17 122h346z" />
    <glyph glyph-name="Obreve" unicode="&#x14e;" horiz-adv-x="787" 
d="M453 674q145 0 230 -85t85 -214q0 -165 -120 -277q-118 -112 -293 -112q-144 0 -228 84t-84 213q0 166 115 278q116 113 295 113zM386 178q63 0 105 52q43 52 43 130q0 54 -27.5 86t-78.5 32q-65 0 -108 -52q-42 -52 -42 -125q0 -55 29 -89t79 -34zM459 701
q-86 0 -122 53q-35 53 -27 131h89q-5 -81 78 -81q30 0 57 22.5t38 58.5h87q-17 -73 -66 -129q-49 -55 -134 -55z" />
    <glyph glyph-name="obreve" unicode="&#x14f;" horiz-adv-x="560" 
d="M310 464q109 0 169 -54t60 -145q0 -120 -83 -198q-83 -77 -213 -77q-108 0 -169.5 53.5t-61.5 144.5q0 118 84 197q83 79 214 79zM289 294q-30 0 -47.5 -25t-17.5 -60q0 -50 46 -50q28 0 47.5 23.5t19.5 59.5q0 52 -48 52zM317 493q-85 0 -121 55q-34 56 -27 135h89
q-3 -82 79 -82q30 0 56.5 23t36.5 59h88q-17 -77 -67 -133q-49 -57 -134 -57z" />
    <glyph glyph-name="Ohungarumlaut" unicode="&#x150;" horiz-adv-x="787" 
d="M453 674q145 0 230 -85t85 -214q0 -165 -120 -277q-118 -112 -293 -112q-144 0 -228 84t-84 213q0 166 115 278q116 113 295 113zM386 178q63 0 105 52q43 52 43 130q0 54 -27.5 86t-78.5 32q-65 0 -108 -52q-42 -52 -42 -125q0 -55 29 -89t79 -34zM436 914l119 -70
l-161 -142h-115zM630 914l119 -70l-161 -142h-115z" />
    <glyph glyph-name="ohungarumlaut" unicode="&#x151;" horiz-adv-x="560" 
d="M310 464q109 0 169 -54t60 -145q0 -120 -83 -198q-83 -77 -213 -77q-108 0 -169.5 53.5t-61.5 144.5q0 118 84 197q83 79 214 79zM289 294q-30 0 -47.5 -25t-17.5 -60q0 -50 46 -50q28 0 47.5 23.5t19.5 59.5q0 52 -48 52zM304 731l119 -70l-167 -142h-109zM491 731
l119 -70l-167 -142h-109z" />
    <glyph glyph-name="OE" unicode="&#x152;" horiz-adv-x="973" 
d="M453 674q61 0 110 -15h413l-25 -180h-226l-8 -55h195l-24 -172h-195l-10 -71h245l-25 -181h-438q-56 -14 -110 -14q-143 0 -229 84q-84 84 -84 214q0 164 114 277q116 113 297 113zM386 178q32 0 63 16l38 269q-29 15 -59 15q-65 0 -108 -52q-42 -52 -42 -125
q0 -55 29 -89t79 -34z" />
    <glyph glyph-name="oe" unicode="&#x153;" horiz-adv-x="832" 
d="M619 466q86 0 138.5 -38.5t52.5 -102.5q0 -41 -21.5 -72.5t-58.5 -46.5q-67 -28 -144 -28q-7 0 -33 2q3 -47 70 -47q36 0 79.5 14t76.5 35l-18 -147q-75 -45 -202 -45q-100 0 -156 47q-62 -47 -167 -47q-106 0 -164.5 53.5t-58.5 145.5q0 122 82 198q83 77 215 77
q94 0 144 -47q70 49 165 49zM289 294q-30 0 -47.5 -25t-17.5 -60q0 -50 46 -50q28 0 47.5 23.5t19.5 59.5q0 52 -48 52zM598 319q-38 0 -44 -60q2 0 5 -0.5t5 -0.5q25 0 40.5 10t15.5 28q0 23 -22 23z" />
    <glyph glyph-name="Racute" unicode="&#x154;" horiz-adv-x="660" 
d="M13 0l92 659h285q113 0 179 -47.5t66 -131.5q0 -126 -117 -210l104 -270h-245l-68 289l3 17q42 18 64 50t22 65q0 58 -58 58h-25l-67 -479h-235zM432 914l119 -70l-161 -142h-115z" />
    <glyph glyph-name="racute" unicode="&#x155;" horiz-adv-x="436" 
d="M221 448l6 -88l5 -1q39 103 139 103q43 0 82 -19l-28 -194q-41 26 -88 26q-85 0 -99 -98l-24 -177h-210l62 448h155zM291 714l119 -70l-161 -142h-115z" />
    <glyph glyph-name="Rcommaaccent" unicode="&#x156;" horiz-adv-x="660" 
d="M13 0l92 659h285q113 0 179 -47.5t66 -131.5q0 -126 -117 -210l104 -270h-245l-68 289l3 17q42 18 64 50t22 65q0 58 -58 58h-25l-67 -479h-235zM284 -42q35 0 54.5 -20t19.5 -53q0 -51 -41 -113t-93 -111l-59 10l58 131q-33 14 -33 57q0 42 28 70q29 29 66 29z" />
    <glyph glyph-name="rcommaaccent" unicode="&#x157;" horiz-adv-x="436" 
d="M221 448l6 -88l5 -1q39 103 139 103q43 0 82 -19l-28 -194q-41 26 -88 26q-85 0 -99 -98l-24 -177h-210l62 448h155zM111 -42q35 0 54.5 -20t19.5 -53q0 -51 -41 -113q-40 -62 -93 -111l-59 10l58 131q-33 14 -33 57q0 42 28 70q29 29 66 29z" />
    <glyph glyph-name="Rcaron" unicode="&#x158;" horiz-adv-x="660" 
d="M13 0l92 659h285q113 0 179 -47.5t66 -131.5q0 -126 -117 -210l104 -270h-245l-68 289l3 17q42 18 64 50t22 65q0 58 -58 58h-25l-67 -479h-235zM379 832l57 65h150l-207 -198h-25l-156 198h137z" />
    <glyph glyph-name="rcaron" unicode="&#x159;" horiz-adv-x="436" 
d="M221 448l6 -88l5 -1q39 103 139 103q43 0 82 -19l-28 -194q-41 26 -88 26q-85 0 -99 -98l-24 -177h-210l62 448h155zM257 630l54 65h141l-198 -207h-25l-146 207h135z" />
    <glyph glyph-name="Sacute" unicode="&#x15a;" horiz-adv-x="576" 
d="M559 634l-26 -185q-25 18 -80 37q-53 18 -94 18q-60 0 -60 -31q0 -12 18 -24.5t45.5 -23t59 -29t59 -40t45.5 -58t18 -80.5q0 -25 -7.5 -53t-28 -61t-52.5 -59t-86.5 -43.5t-124.5 -17.5q-154 0 -246 55l29 203q30 -30 97 -55q67 -24 115 -24q63 0 63 35q0 30 -85 73
q-157 75 -156 187q0 79 62 146q72 75 221 75q112 0 214 -45zM406 912l119 -70l-161 -142h-115z" />
    <glyph glyph-name="sacute" unicode="&#x15b;" horiz-adv-x="417" 
d="M398 430l-20 -141q-50 34 -108 34q-27 0 -30 -14q0 -9 72 -49q30 -16 51.5 -49t21.5 -73q0 -24 -10 -48.5t-32.5 -48.5t-67.5 -39t-107 -15q-104 0 -181 41l22 155q25 -24 69 -42q29 -12 54 -16t40 -0.5t15 13.5q0 11 -78 53q-32 17 -55 50t-23 71q0 58 51 105
q50 46 149 46q87 0 167 -33zM299 714l119 -70l-161 -142h-115z" />
    <glyph glyph-name="Scircumflex" unicode="&#x15c;" horiz-adv-x="576" 
d="M559 634l-26 -185q-25 18 -80 37q-53 18 -94 18q-60 0 -60 -31q0 -12 18 -24.5t45.5 -23t59 -29t59 -40t45.5 -58t18 -80.5q0 -25 -7.5 -53t-28 -61t-52.5 -59t-86.5 -43.5t-124.5 -17.5q-154 0 -246 55l29 203q30 -30 97 -55q67 -24 115 -24q63 0 63 35q0 30 -85 73
q-157 75 -156 187q0 79 62 146q72 75 221 75q112 0 214 -45zM401 908l150 -198h-146l-39 65l-62 -65h-141l213 198h25z" />
    <glyph glyph-name="scircumflex" unicode="&#x15d;" horiz-adv-x="417" 
d="M398 430l-20 -141q-50 34 -108 34q-27 0 -30 -14q0 -9 72 -49q30 -16 51.5 -49t21.5 -73q0 -24 -10 -48.5t-32.5 -48.5t-67.5 -39t-107 -15q-104 0 -181 41l22 155q25 -24 69 -42q29 -12 54 -16t40 -0.5t15 13.5q0 11 -78 53q-32 17 -55 50t-23 71q0 58 51 105
q50 46 149 46q87 0 167 -33zM290 709l140 -207h-138l-34 65l-59 -65h-138l204 207h25z" />
    <glyph glyph-name="Scedilla" unicode="&#x15e;" horiz-adv-x="576" 
d="M559 634l-26 -185q-25 18 -80 37q-53 18 -94 18q-60 0 -60 -31q0 -12 18 -24.5t45.5 -23t59 -29t59 -40t45.5 -58t18 -80.5q0 -57 -34 -112q-75 -118 -254 -121l-30 -41q48 -4 75 -28.5t27 -61.5q0 -17 -8 -37t-25 -41.5t-52 -35.5t-81 -14q-40 0 -87 16l-6 84
q35 -18 89 -18q26 0 42.5 11.5t16.5 32.5q0 12 -10.5 19.5t-25.5 7.5q-21 0 -38 -10l-18 17l67 100q-122 11 -193 53l29 203q30 -30 97 -55q67 -24 115 -24q63 0 63 35q0 30 -85 73q-157 75 -156 187q0 79 62 146q72 75 221 75q112 0 214 -45z" />
    <glyph glyph-name="scedilla" unicode="&#x15f;" horiz-adv-x="417" 
d="M398 430l-20 -141q-50 34 -108 34q-27 0 -30 -14q0 -9 72 -49q30 -16 51.5 -49t21.5 -73q0 -24 -9.5 -47.5t-31 -47t-64 -39t-100.5 -17.5l-32 -43q48 -4 75 -28.5t27 -61.5q0 -17 -8 -37t-25 -41.5t-52 -35.5t-81 -14q-40 0 -87 16l-6 84q35 -18 89 -18q26 0 42.5 11.5
t16.5 32.5q0 12 -10.5 19.5t-25.5 7.5q-21 0 -38 -10l-18 17l70 104q-81 11 -130 38l22 155q25 -24 69 -42q29 -12 54 -16t40 -0.5t15 13.5q0 11 -78 53q-32 17 -55 50t-23 71q0 58 51 105q50 46 149 46q87 0 167 -33z" />
    <glyph glyph-name="Scaron" unicode="&#x160;" horiz-adv-x="576" 
d="M559 634l-26 -185q-25 18 -80 37q-53 18 -94 18q-60 0 -60 -31q0 -12 18 -24.5t45.5 -23t59 -29t59 -40t45.5 -58t18 -80.5q0 -25 -7.5 -53t-28 -61t-52.5 -59t-86.5 -43.5t-124.5 -17.5q-154 0 -246 55l29 203q30 -30 97 -55q67 -24 115 -24q63 0 63 35q0 30 -85 73
q-157 75 -156 187q0 79 62 146q72 75 221 75q112 0 214 -45zM348 832l57 65h150l-207 -198h-25l-156 198h137z" />
    <glyph glyph-name="scaron" unicode="&#x161;" horiz-adv-x="417" 
d="M398 430l-20 -141q-50 34 -108 34q-27 0 -30 -14q0 -9 72 -49q30 -16 51.5 -49t21.5 -73q0 -24 -10 -48.5t-32.5 -48.5t-67.5 -39t-107 -15q-104 0 -181 41l22 155q25 -24 69 -42q29 -12 54 -16t40 -0.5t15 13.5q0 11 -78 53q-32 17 -55 50t-23 71q0 58 51 105
q50 46 149 46q87 0 167 -33zM257 630l54 65h141l-198 -207h-25l-146 207h135z" />
    <glyph glyph-name="Tcommaaccent" unicode="&#x162;" horiz-adv-x="579" 
d="M626 659l-25 -180h-163l-67 -479h-80l-42 -56q48 -4 75 -28.5t27 -61.5q0 -17 -8 -37t-25 -41.5t-52 -35.5t-81 -14q-40 0 -87 16l-6 84q34 -18 89 -18q26 0 42.5 11.5t16.5 32.5q0 12 -10.5 19.5t-25.5 7.5q-21 0 -38 -10l-18 17l76 114h-89l67 479h-160l25 180h559z
" />
    <glyph glyph-name="tcommaaccent" unicode="&#x163;" horiz-adv-x="407" 
d="M382 171l-22 -150q-58 -36 -146 -36q-4 0 -14 0.5t-12 0.5l-32 -42q48 -4 75 -28.5t27 -61.5q0 -17 -8 -37t-25 -41.5t-52 -35.5t-81 -14q-40 0 -87 16l-6 84q34 -18 89 -18q26 0 42.5 11.5t16.5 32.5q0 12 -10.5 19.5t-25.5 7.5q-21 0 -38 -10l-18 17l76 113
q-91 37 -72 170l17 122h-61l17 116l272 197h24l-22 -157h108l-22 -156h-108l-11 -78q-9 -62 40 -62q24 0 69 20z" />
    <glyph glyph-name="Tcaron" unicode="&#x164;" horiz-adv-x="579" 
d="M626 659l-25 -180h-163l-67 -479h-236l67 479h-160l25 180h559zM367 832l57 65h150l-207 -198h-25l-156 198h137z" />
    <glyph glyph-name="tcaron" unicode="&#x165;" horiz-adv-x="511" 
d="M382 171l-22 -150q-58 -36 -146 -36q-180 0 -155 184l17 122h-61l17 116l272 197h24l-22 -157h108l-22 -156h-108l-11 -78q-9 -62 40 -62q24 0 69 20zM517 792q35 0 54.5 -20t19.5 -53q0 -51 -41 -113q-40 -62 -93 -111l-59 10l58 131q-33 14 -33 57q0 42 28 70
q29 29 66 29z" />
    <glyph glyph-name="Tbar" unicode="&#x166;" horiz-adv-x="579" 
d="M626 659l-25 -180h-163l-17 -121h118l-12 -85h-118l-38 -273h-236l38 273h-115l12 85h115l17 121h-160l25 180h559z" />
    <glyph glyph-name="tbar" unicode="&#x167;" horiz-adv-x="407" 
d="M382 171l-22 -150q-58 -36 -146 -36q-180 0 -155 184l4 30h-48l11 72h48l2 20h-61l17 116l272 197h24l-22 -157h108l-22 -156h-108l-2 -20h81l-11 -72h-81q0 -48 42 -48q24 0 69 20z" />
    <glyph glyph-name="Utilde" unicode="&#x168;" horiz-adv-x="706" 
d="M487 659h237l-52 -373q-20 -137 -107 -218q-88 -82 -240 -82q-80 0 -137 23t-86 65t-39 94.5t-1 116.5l52 374h238l-54 -387q-14 -89 55 -89q31 0 53 25t26 57zM576 883l34 -79q-46 -97 -114 -97q-25 0 -69 26q-43 26 -61 26q-32 0 -65 -56l-38 80q22 44 53 71t65 27
q23 0 64 -28t65 -28q29 0 66 58z" />
    <glyph glyph-name="utilde" unicode="&#x169;" horiz-adv-x="563" 
d="M317 0l-6 63h-5q-58 -73 -152 -73q-68 0 -99 42t-20 117l42 298h210l-35 -252q-6 -39 24 -39q34 0 41 58l32 233h213l-62 -447h-183zM480 685l34 -79q-46 -97 -114 -97q-25 0 -69 26q-43 26 -61 26q-32 0 -65 -56l-38 80q22 44 53 71t65 27q23 0 64 -28t65 -28
q29 0 66 58z" />
    <glyph glyph-name="Umacron" unicode="&#x16a;" horiz-adv-x="706" 
d="M487 659h237l-52 -373q-20 -137 -107 -218q-88 -82 -240 -82q-80 0 -137 23t-86 65t-39 94.5t-1 116.5l52 374h238l-54 -387q-14 -89 55 -89q31 0 53 25t26 57zM604 725h-347l18 122h347z" />
    <glyph glyph-name="umacron" unicode="&#x16b;" horiz-adv-x="563" 
d="M317 0l-6 63h-5q-58 -73 -152 -73q-68 0 -99 42t-20 117l42 298h210l-35 -252q-6 -39 24 -39q34 0 41 58l32 233h213l-62 -447h-183zM506 535h-346l17 122h346z" />
    <glyph glyph-name="Ubreve" unicode="&#x16c;" horiz-adv-x="706" 
d="M487 659h237l-52 -373q-20 -137 -107 -218q-88 -82 -240 -82q-80 0 -137 23t-86 65t-39 94.5t-1 116.5l52 374h238l-54 -387q-14 -89 55 -89q31 0 53 25t26 57zM424 690q-85 0 -121 55q-35 56 -27 135h89q-3 -82 79 -82q30 0 56.5 23t36.5 59h88q-17 -77 -67 -133
q-50 -57 -134 -57z" />
    <glyph glyph-name="ubreve" unicode="&#x16d;" horiz-adv-x="563" 
d="M317 0l-6 63h-5q-58 -73 -152 -73q-68 0 -99 42t-20 117l42 298h210l-35 -252q-6 -39 24 -39q34 0 41 58l32 233h213l-62 -447h-183zM327 493q-85 0 -121 55q-34 56 -27 135h89q-3 -82 79 -82q30 0 56.5 23t36.5 59h88q-17 -77 -67 -133q-50 -57 -134 -57z" />
    <glyph glyph-name="Uring" unicode="&#x16e;" horiz-adv-x="706" 
d="M487 659h237l-52 -373q-20 -137 -107 -218q-88 -82 -240 -82q-80 0 -137 23t-86 65t-39 94.5t-1 116.5l52 374h238l-54 -387q-14 -89 55 -89q31 0 53 25t26 57zM463 975q56 0 91 -35t35 -89q0 -68 -49 -114t-117 -46q-54 0 -88.5 33.5t-34.5 85.5q0 66 49 115
q50 50 114 50zM449 877q-18 0 -32.5 -16t-14.5 -38q0 -15 10 -25.5t25 -10.5q21 0 34.5 15t13.5 36q0 17 -10 28t-26 11z" />
    <glyph glyph-name="uring" unicode="&#x16f;" horiz-adv-x="563" 
d="M317 0l-6 63h-5q-58 -73 -152 -73q-68 0 -99 42t-20 117l42 298h210l-35 -252q-6 -39 24 -39q34 0 41 58l32 233h213l-62 -447h-183zM362 772q56 0 91 -35t35 -89q0 -68 -49 -114t-117 -46q-54 0 -88.5 33.5t-34.5 85.5q0 66 49 115q50 50 114 50zM348 674
q-18 0 -32.5 -16t-14.5 -38q0 -15 10 -25.5t25 -10.5q21 0 34.5 15t13.5 36q0 17 -10 28t-26 11z" />
    <glyph glyph-name="Uhungarumlaut" unicode="&#x170;" horiz-adv-x="706" 
d="M487 659h237l-52 -373q-20 -137 -107 -218q-88 -82 -240 -82q-80 0 -137 23t-86 65t-39 94.5t-1 116.5l52 374h238l-54 -387q-14 -89 55 -89q31 0 53 25t26 57zM413 914l119 -70l-161 -142h-115zM607 914l119 -70l-161 -142h-115z" />
    <glyph glyph-name="uhungarumlaut" unicode="&#x171;" horiz-adv-x="563" 
d="M317 0l-6 63h-5q-58 -73 -152 -73q-68 0 -99 42t-20 117l42 298h210l-35 -252q-6 -39 24 -39q34 0 41 58l32 233h213l-62 -447h-183zM297 731l119 -70l-167 -142h-109zM484 731l119 -70l-167 -142h-109z" />
    <glyph glyph-name="Uogonek" unicode="&#x172;" horiz-adv-x="706" 
d="M496 659h237l-52 -373q-18 -126 -94.5 -205.5t-202.5 -91.5q-76 -70 -76 -122q0 -44 62 -44q48 0 100 27l-11 -79q-73 -40 -161 -40q-114 0 -114 81q0 40 29.5 87.5t82.5 88.5q-135 11 -189 91q-54 81 -36 206l52 374h238l-54 -387q-14 -89 55 -89q31 0 53 25t26 57z" />
    <glyph glyph-name="uogonek" unicode="&#x173;" horiz-adv-x="563" 
d="M313 7l-4 56h-5q-58 -73 -142 -73q-78 0 -107.5 44t-19.5 127l40 286h210l-35 -252q-4 -16 2.5 -27.5t21.5 -11.5q34 0 41 58l32 233h213l-62 -447h-106q-71 -68 -71 -117q0 -44 62 -44q47 0 100 27l-11 -79q-73 -40 -162 -40q-114 0 -114 81q0 41 31 89.5t86 89.5z" />
    <glyph glyph-name="Wcircumflex" unicode="&#x174;" horiz-adv-x="1006" 
d="M656 -22h-25l-120 336l-214 -336h-26l-209 681h248l72 -245h4l162 259h25l98 -259h4l137 245h246zM609 905l150 -198h-146l-39 65l-62 -65h-141l213 198h25z" />
    <glyph glyph-name="wcircumflex" unicode="&#x175;" horiz-adv-x="778" 
d="M430 465l82 -162h4l80 144h214l-297 -461h-29l-102 202l-157 -202h-29l-174 461h216l44 -144h4l117 162h27zM467 709l140 -207h-138l-34 65l-59 -65h-138l204 207h25z" />
    <glyph glyph-name="Ycircumflex" unicode="&#x176;" horiz-adv-x="664" 
d="M176 0l32 228l-146 431h254l28 -142q8 -35 15 -90h4q12 40 35 88l65 144h254l-273 -431l-32 -228h-236zM442 905l150 -198h-146l-39 65l-62 -65h-141l213 198h25z" />
    <glyph glyph-name="ycircumflex" unicode="&#x177;" horiz-adv-x="532" 
d="M20 -220l113 232l-111 435h213l14 -237h6l87 237h214l-334 -667h-202zM343 709l140 -207h-138l-34 65l-59 -65h-138l204 207h25z" />
    <glyph glyph-name="Ydieresis" unicode="&#x178;" horiz-adv-x="664" 
d="M321 880q33 0 54 -22t21 -55q0 -39 -30 -71t-70 -32q-34 0 -54.5 21.5t-20.5 54.5q0 47 31 75q32 29 69 29zM530 880q33 0 53.5 -21.5t20.5 -54.5q0 -39 -30 -72q-29 -32 -69 -32q-34 0 -54.5 21.5t-20.5 54.5q0 47 31 75q32 29 69 29zM176 0l32 228l-146 431h254
l28 -142q8 -35 15 -90h4q12 40 35 88l65 144h254l-273 -431l-32 -228h-236z" />
    <glyph glyph-name="Zacute" unicode="&#x179;" horiz-adv-x="636" 
d="M303 479h-215l25 180h566l-3 -19l-319 -459h233l-25 -181h-585l4 22zM470 914l119 -70l-161 -142h-115z" />
    <glyph glyph-name="zacute" unicode="&#x17a;" horiz-adv-x="462" 
d="M401 0h-426l3 15l193 274h-128l22 158h414l-2 -13l-195 -276h141zM354 714l119 -70l-161 -142h-115z" />
    <glyph glyph-name="Zdotaccent" unicode="&#x17b;" horiz-adv-x="636" 
d="M303 479h-215l25 180h566l-3 -19l-319 -459h233l-25 -181h-585l4 22zM444 916q42 0 68.5 -27t26.5 -67q0 -52 -37 -90q-37 -39 -89 -39q-43 0 -68 27t-25 68q0 56 38 92q39 36 86 36z" />
    <glyph glyph-name="zdotaccent" unicode="&#x17c;" horiz-adv-x="462" 
d="M401 0h-426l3 15l193 274h-128l22 158h414l-2 -13l-195 -276h141zM311 711q42 0 68.5 -27t26.5 -67q0 -52 -37 -90q-37 -39 -89 -39q-43 0 -68 27t-25 68q0 56 38 92q39 36 86 36z" />
    <glyph glyph-name="Zcaron" unicode="&#x17d;" horiz-adv-x="636" 
d="M303 479h-215l25 180h566l-3 -19l-319 -459h233l-25 -181h-585l4 22zM424 832l57 65h150l-207 -198h-25l-156 198h137z" />
    <glyph glyph-name="zcaron" unicode="&#x17e;" horiz-adv-x="462" 
d="M401 0h-426l3 15l193 274h-128l22 158h414l-2 -13l-195 -276h141zM299 630l54 65h141l-198 -207h-25l-146 207h135z" />
    <glyph glyph-name="longs" unicode="&#x17f;" horiz-adv-x="331" 
d="M491 714l-12 -163q-38 15 -79 15q-78 0 -90 -82l-99 -703h-208l74 525h-64l17 126l66 16l7 47q17 117 88 176t184 59q56 0 116 -16z" />
    <glyph glyph-name="florin" unicode="&#x192;" 
d="M189 267h-76l10 139h89l7 51q15 112 72 166.5t147 54.5q66 0 132 -20l-12 -175q-30 12 -60 12q-61 0 -67 -54l-4 -35h109l-10 -139h-120l-20 -130q-20 -128 -79 -188.5t-162 -60.5q-56 0 -128 25l13 176q39 -13 67 -13q33 0 50 24.5t27 82.5z" />
    <glyph glyph-name="AEacute" unicode="&#x1fc;" horiz-adv-x="907" 
d="M861 181l-25 -181h-457l9 65h-127l-48 -65h-244l546 659h396l-25 -180h-227l-8 -55h195l-24 -172h-195l-10 -71h244zM412 193l13 98h-4l-69 -98h60zM712 914l119 -70l-161 -142h-115z" />
    <glyph glyph-name="aeacute" unicode="&#x1fd;" horiz-adv-x="788" 
d="M574 466q86 0 138.5 -38.5t52.5 -102.5q0 -41 -21.5 -72.5t-58.5 -46.5q-67 -28 -144 -28q-7 0 -33 2q3 -47 70 -47q36 0 79.5 14t76.5 35l-18 -147q-75 -45 -202 -45q-107 0 -163 53q-83 -58 -199 -58q-69 0 -111.5 28.5t-42.5 80.5q0 67 58 119t170 52h57l2 11
q4 20 -12.5 29t-53.5 9q-22 0 -65 -9q-41 -7 -71 -23l21 152q93 29 193 29q87 0 127 -36q68 39 150 39zM273 176l3 17h-20q-23 0 -36.5 -15t-13.5 -37q0 -23 19 -23q38 0 48 58zM553 319q-38 0 -44 -60q2 0 6 -1h4q25 0 40.5 10t15.5 28q0 23 -22 23zM511 714l119 -70
l-161 -142h-115z" />
    <glyph glyph-name="Oslashacute" unicode="&#x1fe;" horiz-adv-x="787" 
d="M453 674q111 0 193 -55l37 40h64l-65 -70q86 -83 86 -214q0 -165 -120 -277q-118 -112 -293 -112q-107 0 -183 48l-31 -34h-68l59 64q-89 83 -89 219q0 166 115 278q116 113 295 113zM278 301q0 -39 13 -65l204 220q-26 22 -67 22q-65 0 -108 -52q-42 -52 -42 -125z
M386 178q63 0 105 52q43 52 43 130q0 30 -10 56l-201 -219q26 -19 63 -19zM548 920l119 -70l-161 -142h-115z" />
    <glyph glyph-name="oslashacute" unicode="&#x1ff;" horiz-adv-x="560" 
d="M310 464q84 0 142 -35l18 18h53l-40 -41q56 -53 56 -141q0 -120 -83 -198q-83 -77 -213 -77q-81 0 -134 29l-19 -19h-53l39 41q-64 52 -64 147q0 118 84 197q83 79 214 79zM289 294q-30 0 -47.5 -25t-17.5 -60q0 -12 1 -15l90 93q-10 7 -26 7zM337 242q0 2 -0.5 6t-0.5 6
l-88 -91q7 -4 22 -4q28 0 47.5 23.5t19.5 59.5zM411 714l119 -70l-161 -142h-115z" />
    <glyph glyph-name="Scommaaccent" unicode="&#x218;" horiz-adv-x="576" 
d="M559 634l-26 -185q-25 18 -80 37q-53 18 -94 18q-60 0 -60 -31q0 -12 18 -24.5t45.5 -23t59 -29t59 -40t45.5 -58t18 -80.5q0 -25 -7.5 -53t-28 -61t-52.5 -59t-86.5 -43.5t-124.5 -17.5q-154 0 -246 55l29 203q30 -30 97 -55q67 -24 115 -24q63 0 63 35q0 30 -85 73
q-157 75 -156 187q0 79 62 146q72 75 221 75q112 0 214 -45zM219 -42q35 0 54.5 -20t19.5 -53q0 -51 -41 -113q-40 -62 -93 -111l-59 10l58 131q-33 14 -33 57q0 42 28 70q29 29 66 29z" />
    <glyph glyph-name="scommaaccent" unicode="&#x219;" horiz-adv-x="417" 
d="M398 430l-20 -141q-50 34 -108 34q-27 0 -30 -14q0 -9 72 -49q30 -16 51.5 -49t21.5 -73q0 -24 -10 -48.5t-32.5 -48.5t-67.5 -39t-107 -15q-104 0 -181 41l22 155q25 -24 69 -42q29 -12 54 -16t40 -0.5t15 13.5q0 11 -78 53q-32 17 -55 50t-23 71q0 58 51 105
q50 46 149 46q87 0 167 -33zM162 -42q35 0 54.5 -20t19.5 -53q0 -51 -41 -113t-93 -111l-59 10l58 131q-33 14 -33 57q0 42 28 70q29 29 66 29z" />
    <glyph glyph-name="uni021A" unicode="&#x21a;" horiz-adv-x="579" 
d="M626 659l-25 -180h-163l-67 -479h-236l67 479h-160l25 180h559zM248 -36q35 0 54.5 -20t19.5 -53q0 -51 -41 -113t-93 -111l-59 10l58 131q-33 14 -33 57q0 42 28 70q29 29 66 29z" />
    <glyph glyph-name="uni021B" unicode="&#x21b;" horiz-adv-x="407" 
d="M382 171l-22 -150q-58 -36 -146 -36q-180 0 -155 184l17 122h-61l17 116l272 197h24l-22 -157h108l-22 -156h-108l-11 -78q-9 -62 40 -62q24 0 69 20zM158 -42q35 0 54.5 -20t19.5 -53q0 -51 -41 -113t-93 -111l-59 10l58 131q-33 14 -33 57q0 42 28 70q29 29 66 29z" />
    <glyph glyph-name="schwa" unicode="&#x259;" horiz-adv-x="522" 
d="M218 -10q-86 0 -138.5 38.5t-52.5 102.5q0 41 21.5 72.5t58.5 46.5q67 28 144 28q7 0 33 -2q-3 47 -70 47q-36 0 -79.5 -14t-76.5 -35l18 147q75 45 202 45q115 0 167 -58q53 -58 53 -140q0 -111 -75 -195q-75 -83 -205 -83zM239 137q38 0 44 60q-1 0 -5 0.5t-5 0.5
q-25 0 -40.5 -10t-15.5 -28q0 -23 22 -23z" />
    <glyph glyph-name="primemod" unicode="&#x2b9;" horiz-adv-x="297" 
d="M204 610l118 -70l-205 -291h-104z" />
    <glyph glyph-name="circumflex" unicode="&#x2c6;" horiz-adv-x="531" 
d="M353 709l140 -207h-138l-34 65l-59 -65h-138l204 207h25z" />
    <glyph glyph-name="caron" unicode="&#x2c7;" horiz-adv-x="531" 
d="M326 630l54 65h141l-198 -207h-25l-146 207h135z" />
    <glyph glyph-name="breve" unicode="&#x2d8;" horiz-adv-x="569" 
d="M328 493q-85 0 -121 55q-35 56 -27 135h89q-3 -82 79 -82q30 0 56.5 23t36.5 59h88q-17 -77 -67 -133q-50 -57 -134 -57z" />
    <glyph glyph-name="dotaccent" unicode="&#x2d9;" horiz-adv-x="569" 
d="M351 711q42 0 68.5 -27t26.5 -67q0 -52 -37 -90q-37 -39 -89 -39q-43 0 -68 27t-25 68q0 56 38 92q39 36 86 36z" />
    <glyph glyph-name="ring" unicode="&#x2da;" horiz-adv-x="539" 
d="M352 772q56 0 91 -35t35 -89q0 -68 -49 -114t-117 -46q-54 0 -88.5 33.5t-34.5 85.5q0 66 49 115q50 50 114 50zM338 674q-18 0 -32.5 -16t-14.5 -38q0 -15 10 -25.5t25 -10.5q21 0 34.5 15t13.5 36q0 17 -10 28t-26 11z" />
    <glyph glyph-name="ogonek" unicode="&#x2db;" horiz-adv-x="522" 
d="M367 51l29 -29q-42 -35 -69.5 -72.5t-27.5 -66.5q0 -44 62 -44q47 0 100 27l-11 -79q-73 -40 -161 -40q-114 0 -114 81q0 52 49 116q48 63 143 107z" />
    <glyph glyph-name="tilde" unicode="&#x2dc;" horiz-adv-x="531" 
d="M463 685l34 -79q-46 -97 -114 -97q-25 0 -69 26q-43 26 -61 26q-32 0 -65 -56l-38 80q22 44 53 71t65 27q23 0 64 -28t65 -28q29 0 66 58z" />
    <glyph glyph-name="hungarumlaut" unicode="&#x2dd;" horiz-adv-x="531" 
d="M279 731l119 -70l-167 -142h-109zM466 731l119 -70l-167 -142h-109z" />
    <glyph glyph-name="tonos" unicode="&#x384;" horiz-adv-x="531" 
d="M386 731l119 -70l-167 -142h-109z" />
    <glyph glyph-name="dieresistonos" unicode="&#x385;" horiz-adv-x="580" 
d="M541 703q33 0 55 -21.5t22 -54.5q0 -40 -31 -71q-30 -31 -71 -31q-33 0 -53.5 21.5t-20.5 53.5q0 45 31 73q31 30 68 30zM176 703q33 0 55 -22.5t22 -53.5q0 -40 -31 -71q-30 -31 -71 -31q-33 0 -53.5 21.5t-20.5 52.5q0 46 31 74q31 30 68 30zM365 778l118 -70
l-154 -187h-105z" />
    <glyph glyph-name="Alphatonos" unicode="&#x386;" horiz-adv-x="694" 
d="M654 0h-232l-15 62h-179l-34 -62h-224l429 679h24zM353 287h-4l-57 -101h88zM152 700l119 -70l-167 -142h-109z" />
    <glyph glyph-name="anoteleia" unicode="&#x387;" horiz-adv-x="314" 
d="M177 426q35 0 58 -24.5t23 -60.5q0 -44 -34 -77q-33 -33 -74 -33q-35 0 -59 24t-24 59q0 44 33 78q34 34 77 34z" />
    <glyph glyph-name="Epsilontonos" unicode="&#x388;" horiz-adv-x="565" 
d="M498 0h-485l92 659h464l-25 -180h-228l-8 -55h195l-24 -172h-195l-10 -71h249zM-46 700l119 -70l-167 -142h-109z" />
    <glyph glyph-name="Etatonos" unicode="&#x389;" horiz-adv-x="700" 
d="M617 0h-237l34 247h-131l-34 -247h-236l92 659h236l-32 -230h131l32 230h237zM-45 700l119 -70l-167 -142h-109z" />
    <glyph glyph-name="Iotatonos" unicode="&#x38a;" horiz-adv-x="334" 
d="M105 659h237l-92 -659h-237zM-45 700l119 -70l-167 -142h-109z" />
    <glyph glyph-name="Omicrontonos" unicode="&#x38c;" horiz-adv-x="787" 
d="M453 674q145 0 230 -85t85 -214q0 -165 -120 -277q-118 -112 -293 -112q-144 0 -228 84t-84 213q0 166 115 278q116 113 295 113zM386 178q63 0 105 52q43 52 43 130q0 54 -27.5 86t-78.5 32q-65 0 -108 -52q-42 -52 -42 -125q0 -55 29 -89t79 -34zM19 700l119 -70
l-167 -142h-109z" />
    <glyph glyph-name="Upsilontonos" unicode="&#x38e;" horiz-adv-x="664" 
d="M176 0l32 228l-146 431h254l28 -142q8 -35 15 -90h4q12 40 35 88l65 144h254l-273 -431l-32 -228h-236zM-71 700l119 -70l-167 -142h-109z" />
    <glyph glyph-name="Omegatonos" unicode="&#x38f;" horiz-adv-x="788" 
d="M757 180l-25 -180h-334l3 27q48 48 86 145q38 99 38 178q0 127 -99 127q-75 0 -113 -74q-36 -73 -36 -178q0 -128 41 -198l-3 -27h-334l25 180h73l3 4q-23 64 -23 130q0 154 109 257q110 104 286 104q148 0 228 -75q80 -74 80 -196q0 -57 -18 -106t-59 -114l2 -4h70z
M10 700l119 -70l-167 -142h-109z" />
    <glyph glyph-name="iotadieresistonos" unicode="&#x390;" horiz-adv-x="294" 
d="M387 703q33 0 55 -21.5t22 -54.5q0 -40 -31 -71q-30 -31 -71 -31q-33 0 -53.5 21.5t-20.5 53.5q0 45 31 73q32 30 68 30zM22 703q33 0 55 -22.5t22 -53.5q0 -40 -31 -71q-30 -31 -71 -31q-33 0 -53.5 21.5t-20.5 52.5q0 46 31 74q32 30 68 30zM211 778l118 -70l-154 -187
h-105zM280 447l-62 -447h-212l62 447h212z" />
    <glyph glyph-name="Alpha" unicode="&#x391;" horiz-adv-x="694" 
d="M654 0h-232l-15 62h-179l-34 -62h-224l429 679h24zM353 287h-4l-57 -101h88z" />
    <glyph glyph-name="Beta" unicode="&#x392;" horiz-adv-x="655" 
d="M533 362v-4q81 -46 81 -143q0 -87 -67 -151t-166 -64h-368l92 659h335q82 0 129 -42.5t47 -107.5q0 -85 -83 -147zM350 260h-71l-11 -80h74q25 0 38 13.5t13 32.5q0 15 -11.5 24.5t-31.5 9.5zM354 485h-44l-11 -78h45q17 0 31.5 13t14.5 33q0 32 -36 32z" />
    <glyph glyph-name="Gamma" unicode="&#x393;" horiz-adv-x="538" 
d="M249 0h-236l92 659h476l-25 -180h-240z" />
    <glyph glyph-name="increment" unicode="&#x394;" horiz-adv-x="694" 
d="M423 679l231 -679h-684l429 679h24zM353 299h-3l-77 -128h117z" />
    <glyph glyph-name="increment" unicode="&#x2206;" horiz-adv-x="694" 
d="M423 679l231 -679h-684l429 679h24zM353 299h-3l-77 -128h117z" />
    <glyph glyph-name="Epsilon" unicode="&#x395;" horiz-adv-x="565" 
d="M498 0h-485l92 659h464l-25 -180h-228l-8 -55h195l-24 -172h-195l-10 -71h249z" />
    <glyph glyph-name="Zeta" unicode="&#x396;" horiz-adv-x="636" 
d="M303 479h-215l25 180h566l-3 -19l-319 -459h233l-25 -181h-585l4 22z" />
    <glyph glyph-name="Eta" unicode="&#x397;" horiz-adv-x="700" 
d="M617 0h-237l34 247h-131l-34 -247h-236l92 659h236l-32 -230h131l32 230h237z" />
    <glyph glyph-name="Theta" unicode="&#x398;" horiz-adv-x="787" 
d="M328 396h170l-20 -140h-170zM453 674q145 0 230 -82t85 -210q0 -164 -120 -280q-121 -116 -293 -116q-143 0 -229 81q-85 82 -85 210q0 163 119 280q118 117 293 117zM428 478q-65 0 -108 -52q-42 -52 -42 -125q0 -55 29 -89t79 -34q63 0 105 52q43 52 43 130
q0 54 -27.5 86t-78.5 32z" />
    <glyph glyph-name="Iota" unicode="&#x399;" horiz-adv-x="334" 
d="M105 659h237l-92 -659h-237z" />
    <glyph glyph-name="Kappa" unicode="&#x39a;" horiz-adv-x="691" 
d="M105 659h237l-41 -293l180 293h258l-232 -323l144 -336h-251l-106 314l-44 -314h-237z" />
    <glyph glyph-name="Lambda" unicode="&#x39b;" horiz-adv-x="694" 
d="M654 0h-242l-67 236h-3l-139 -236h-233l429 679h24z" />
    <glyph glyph-name="Mu" unicode="&#x39c;" horiz-adv-x="792" 
d="M131 678l284 -308l367 308h21l-95 -678h-229l32 230h-4l-116 -112h-25l-91 108h-4l-31 -226h-227l95 678h23z" />
    <glyph glyph-name="Nu" unicode="&#x39d;" horiz-adv-x="700" 
d="M249 0h-236l95 679h24l301 -268h4l35 248h237l-95 -679h-22l-303 283h-4z" />
    <glyph glyph-name="Xi" unicode="&#x39e;" horiz-adv-x="635" 
d="M652 659l-25 -180h-554l25 180h554zM-1 0l25 181h567l-25 -181h-567zM104 252l24 173h437l-24 -173h-437z" />
    <glyph glyph-name="Omicron" unicode="&#x39f;" horiz-adv-x="787" 
d="M453 674q145 0 230 -85t85 -214q0 -165 -120 -277q-118 -112 -293 -112q-144 0 -228 84t-84 213q0 166 115 278q116 113 295 113zM386 178q63 0 105 52q43 52 43 130q0 54 -27.5 86t-78.5 32q-65 0 -108 -52q-42 -52 -42 -125q0 -55 29 -89t79 -34z" />
    <glyph glyph-name="Pi" unicode="&#x3a0;" horiz-adv-x="700" 
d="M617 0h-237l67 479h-131l-67 -479h-236l92 659h604z" />
    <glyph glyph-name="Rho" unicode="&#x3a1;" horiz-adv-x="599" 
d="M105 659h282q119 0 174 -57q55 -56 55 -146q0 -100 -75 -175q-76 -74 -201 -74h-62l-29 -207h-236zM335 485h-20l-16 -109h20q31 0 48.5 19t17.5 44q0 46 -50 46z" />
    <glyph glyph-name="Sigma" unicode="&#x3a3;" horiz-adv-x="616" 
d="M74 659h572l-25 -180h-220l59 -142l-108 -156h244l-25 -181h-596l4 22l218 315l-126 303z" />
    <glyph glyph-name="Tau" unicode="&#x3a4;" horiz-adv-x="579" 
d="M626 659l-25 -180h-163l-67 -479h-236l67 479h-160l25 180h559z" />
    <glyph glyph-name="Upsilon" unicode="&#x3a5;" horiz-adv-x="664" 
d="M176 0l32 228l-146 431h254l28 -142q8 -35 15 -90h4q12 40 35 88l65 144h254l-273 -431l-32 -228h-236z" />
    <glyph glyph-name="Phi" unicode="&#x3a6;" horiz-adv-x="924" 
d="M343 219l34 240q-51 -6 -83 -50t-32 -89q0 -40 20.5 -67.5t60.5 -33.5zM607 458l-34 -240q45 8 78 49q33 42 33 91q0 40 -20 68t-57 32zM405 659h232l-6 -40q131 -11 204 -79q74 -68 74 -164q0 -123 -97 -213q-96 -90 -260 -105l-8 -58h-231l8 58q-142 9 -213.5 70
t-71.5 166q0 128 100 222q99 93 264 104z" />
    <glyph glyph-name="Chi" unicode="&#x3a7;" horiz-adv-x="716" 
d="M676 0h-253l-61 282l-139 -282h-253l184 341l-84 318h253l55 -259l129 259h253l-176 -318z" />
    <glyph glyph-name="Psi" unicode="&#x3a8;" horiz-adv-x="896" 
d="M406 659h236l-42 -303q27 3 46.5 27.5t23.5 53.5l31 223h236l-27 -192q-18 -135 -105 -217.5t-233 -92.5l-22 -158h-236l22 158q-148 9 -211 88t-44 213l28 201h238l-30 -216q-11 -83 46 -89z" />
    <glyph glyph-name="Omega" unicode="&#x3a9;" horiz-adv-x="788" 
d="M757 180l-25 -180h-334l3 27q48 48 86 145q38 99 38 178q0 127 -99 127q-75 0 -113 -74q-36 -73 -36 -178q0 -128 41 -198l-3 -27h-334l25 180h73l3 4q-23 64 -23 130q0 154 109 257q110 104 286 104q148 0 228 -75q80 -74 80 -196q0 -57 -18 -106t-59 -114l2 -4h70z" />
    <glyph glyph-name="Iotadieresis" unicode="&#x3aa;" horiz-adv-x="334" 
d="M105 659h237l-92 -659h-237zM152 880q33 0 54 -22t21 -55q0 -39 -30 -71t-70 -32q-34 0 -54.5 21.5t-20.5 54.5q0 47 31 75q32 29 69 29zM361 880q33 0 53.5 -21.5t20.5 -54.5q0 -39 -30 -72q-29 -32 -69 -32q-34 0 -54.5 21.5t-20.5 54.5q0 47 31 75q32 29 69 29z" />
    <glyph glyph-name="Upsilondieresis" unicode="&#x3ab;" horiz-adv-x="664" 
d="M319 878q33 0 54 -22t21 -55q0 -39 -30 -71t-70 -32q-34 0 -54.5 21.5t-20.5 54.5q0 47 31 75q32 29 69 29zM528 878q33 0 53.5 -21.5t20.5 -54.5q0 -39 -30 -72q-29 -32 -69 -32q-34 0 -54.5 21.5t-20.5 54.5q0 47 31 75q32 29 69 29zM176 0l32 228l-146 431h254
l28 -142q8 -35 15 -90h4q12 40 35 88l65 144h254l-273 -431l-32 -228h-236z" />
    <glyph glyph-name="alphatonos" unicode="&#x3ac;" horiz-adv-x="594" 
d="M276 463q93 0 140 -59l27 43h140l-64 -447h-158l-7 44l-5 1q-67 -55 -159 -55q-86 0 -132.5 48t-46.5 133q0 124 72 208q73 84 193 84zM290 294q-30 0 -47.5 -25t-17.5 -60q0 -50 46 -50q28 0 47.5 23.5t19.5 59.5q0 52 -48 52zM377 731l119 -70l-167 -142h-109z" />
    <glyph glyph-name="epsilontonos" unicode="&#x3ad;" horiz-adv-x="421" 
d="M66 219l25 13l1 5q-60 23 -60 78q0 63 58 106q58 45 159 45q84 0 159 -26l-21 -150q-9 9 -44 18q-33 10 -65 10q-52 0 -52 -30q0 -18 32 -18h50l-12 -90h-42q-39 0 -39 -27q0 -19 38 -19q27 0 68.5 12.5t69.5 28.5l-20 -144q-83 -42 -203 -42q-87 0 -130 28.5t-43 79.5
q0 78 71 122zM313 731l119 -70l-167 -142h-109z" />
    <glyph glyph-name="etatonos" unicode="&#x3ae;" horiz-adv-x="567" 
d="M240 447l10 -55l3 -1q31 35 74 54t79 19q75 0 108 -41.5t22 -120.5l-71 -521h-212l63 466q6 47 -22 47q-40 0 -48 -65l-32 -229h-210l62 447h174zM370 731l119 -70l-167 -142h-109z" />
    <glyph glyph-name="iotatonos" unicode="&#x3af;" horiz-adv-x="294" 
d="M280 447l-62 -447h-212l62 447h212zM270 731l119 -70l-167 -142h-109z" />
    <glyph glyph-name="upsilondieresistonos" unicode="&#x3b0;" horiz-adv-x="563" 
d="M322 214l32 233h212l-28 -199q-11 -76 -42 -131t-75 -82q-76 -45 -155 -45q-112 0 -173 59q-60 59 -45 164l33 234h210l-35 -252q-6 -39 24 -39q35 0 42 58zM540 703q34 0 55.5 -21.5t21.5 -54.5q0 -40 -31 -71q-30 -31 -71 -31q-33 0 -53.5 21.5t-20.5 53.5q0 45 31 73
q32 30 68 30zM175 703q33 0 55 -22.5t22 -53.5q0 -40 -31 -71q-30 -31 -71 -31q-33 0 -53.5 21.5t-20.5 52.5q0 46 31 74q32 30 68 30zM364 778l118 -70l-154 -187h-105z" />
    <glyph glyph-name="alpha" unicode="&#x3b1;" horiz-adv-x="594" 
d="M276 463q93 0 140 -59l27 43h140l-64 -447h-158l-7 44l-5 1q-67 -55 -159 -55q-86 0 -132.5 48t-46.5 133q0 124 72 208q73 84 193 84zM290 294q-30 0 -47.5 -25t-17.5 -60q0 -50 46 -50q28 0 47.5 23.5t19.5 59.5q0 52 -48 52z" />
    <glyph glyph-name="beta" unicode="&#x3b2;" horiz-adv-x="593" 
d="M361 727q96 0 150.5 -44.5t54.5 -115.5q0 -45 -25 -91q-25 -45 -74 -64v-5q99 -39 99 -150q0 -121 -76 -194t-171 -73q-57 0 -104 26q-4 0 -7 -3l-31 -220h-213l89 634q19 132 96 216q78 84 212 84zM283 322l18 130q26 0 41.5 18t15.5 43q0 40 -35 40q-43 0 -52 -65
l-36 -256q-11 -78 47 -78q32 0 52.5 27.5t20.5 64.5q0 76 -72 76z" />
    <glyph glyph-name="gamma" unicode="&#x3b3;" horiz-adv-x="570" 
d="M377 447h216l-231 -467l-27 -200h-213l30 204l-120 463h223l17 -120l12 -112h4l43 116z" />
    <glyph glyph-name="delta" unicode="&#x3b4;" horiz-adv-x="569" 
d="M112 541q0 87 68 137q70 50 171 50q100 0 191 -46l-16 -144q-25 14 -71 26q-47 12 -81 12q-57 0 -57 -32q0 -13 17 -26.5t42.5 -25.5t55.5 -31t55.5 -41.5t42.5 -60.5t17 -84q0 -121 -82 -203t-217 -82q-110 0 -170 53.5t-60 147.5q0 75 36 139q36 65 103 96l1 7
q-46 34 -46 108zM275 160q32 0 50 32t18 68q0 59 -50 74q-28 -8 -46 -42.5t-18 -74.5q0 -57 46 -57z" />
    <glyph glyph-name="epsilon" unicode="&#x3b5;" horiz-adv-x="421" 
d="M66 219l25 13l1 5q-60 23 -60 78q0 63 58 106q58 45 159 45q84 0 159 -26l-21 -150q-9 9 -44 18q-33 10 -65 10q-52 0 -52 -30q0 -18 32 -18h50l-12 -90h-42q-39 0 -39 -27q0 -19 38 -19q27 0 68.5 12.5t69.5 28.5l-20 -144q-83 -42 -203 -42q-87 0 -130 28.5t-43 79.5
q0 78 71 122z" />
    <glyph glyph-name="zeta" unicode="&#x3b6;" horiz-adv-x="457" 
d="M267 551l1 7h-163l22 157h482l-2 -16q-141 -138 -263 -284t-122 -190q0 -23 33 -52q31 -26 73 -50q42 -23 73 -53q33 -31 33 -62q0 -45 -55 -107q-56 -64 -128 -115l-120 70l39 36l7 7l9.5 9.5l8.5 8.5q23 23 23 37q0 11 -11 21t-40 26q-83 48 -120 88t-37 91
q0 70 74 171q71 97 183 200z" />
    <glyph glyph-name="eta" unicode="&#x3b7;" horiz-adv-x="567" 
d="M240 447l10 -55l3 -1q31 35 74 54t79 19q75 0 108 -41.5t22 -120.5l-71 -521h-212l63 466q6 47 -22 47q-40 0 -48 -65l-32 -229h-210l62 447h174z" />
    <glyph glyph-name="theta" unicode="&#x3b8;" horiz-adv-x="588" 
d="M360 727q128 0 177 -89q44 -76 44 -187q0 -27 -3 -58q-8 -86 -35 -167q-33 -98 -98 -163q-73 -73 -189 -73q-62 0 -106.5 21.5t-69 59.5t-36 84t-11.5 102q0 161 74 306q38 75 104.5 119.5t148.5 44.5zM281 163q62 0 83 137h-124q-6 -38 -6 -67q0 -70 47 -70zM335 552
q-26 0 -46.5 -32t-27.5 -78h119q2 26 2 30q0 36 -12 58t-35 22z" />
    <glyph glyph-name="iota" unicode="&#x3b9;" horiz-adv-x="294" 
d="M280 447l-62 -447h-212l62 447h212z" />
    <glyph glyph-name="kappa" unicode="&#x3ba;" horiz-adv-x="573" 
d="M448 232l85 -232h-219l-61 209l-29 -209h-220l62 447h220l-27 -195l110 195h224z" />
    <glyph glyph-name="lambda" unicode="&#x3bb;" horiz-adv-x="547" 
d="M366 727l141 -727h-210l-20 213h-4l-90 -213h-213l240 447l-51 280h207z" />
    <glyph glyph-name="nu" unicode="&#x3bd;" horiz-adv-x="574" 
d="M269 379l21 -71h4l42 79l34 60h225l-330 -461h-29l-205 461h214z" />
    <glyph glyph-name="xi" unicode="&#x3be;" horiz-adv-x="471" 
d="M342 725q34 0 90 -8q52 -7 84 -21l-10 -154q-62 27 -138 27q-40 0 -65 -18t-25 -51q0 -46 77 -46h82l-20 -144h-110q-86 0 -86 -64q0 -30 35 -60q32 -28 77 -52q45 -23 78 -55q35 -33 35 -69q0 -94 -186 -209l-112 71q44 36 60.5 53.5t16.5 29.5q0 21 -51 52l-42 25
q-25 18 -36 25q-24 17 -35 29q-53 58 -48 109q0 66 40 121.5t109 78.5l1 5q-89 26 -89 112q0 84 74 149q74 64 194 64z" />
    <glyph glyph-name="omicron" unicode="&#x3bf;" horiz-adv-x="560" 
d="M310 464q109 0 169 -54t60 -145q0 -120 -83 -198q-83 -77 -213 -77q-108 0 -169.5 53.5t-61.5 144.5q0 118 84 197q83 79 214 79zM289 294q-30 0 -47.5 -25t-17.5 -60q0 -50 46 -50q28 0 47.5 23.5t19.5 59.5q0 52 -48 52z" />
    <glyph glyph-name="pi" unicode="&#x3c0;" horiz-adv-x="569" 
d="M66 448h492l-62 -448h-211l40 289h-72l-40 -289h-209z" />
    <glyph glyph-name="rho" unicode="&#x3c1;" horiz-adv-x="584" 
d="M171 -209h-211l52 373q20 143 104 221t211 78q108 0 170 -55t62 -148q0 -118 -74 -195q-73 -75 -181 -75q-57 0 -99 20l-3 -2zM302 296q-30 0 -50.5 -25t-20.5 -62q0 -54 49 -54q30 0 50 25t20 63q0 53 -48 53z" />
    <glyph glyph-name="sigma1" unicode="&#x3c2;" horiz-adv-x="481" 
d="M313 462q89 0 151 -36l-8 -157q-17 13 -60 20q-42 9 -75 9q-42 0 -66 -18.5t-24 -46.5q0 -21 21.5 -42t76.5 -54q92 -56 92 -109q0 -97 -193 -209l-113 72q34 28 53 46q21 20 21 30q0 16 -62 50q-109 61 -109 179q0 50 16.5 95.5t49.5 85t92 62.5t137 23z" />
    <glyph glyph-name="sigma" unicode="&#x3c3;" horiz-adv-x="593" 
d="M584 289l-63 4l-2 -4q25 -25 25 -80q0 -89 -80 -155q-80 -65 -212 -65q-120 0 -178 55t-58 138q0 110 83 187q84 76 215 78l292 1zM308 295q-34 -1 -55 -26.5t-21 -59.5q0 -52 48 -52q30 0 48.5 23t18.5 61q0 42 -39 54z" />
    <glyph glyph-name="tau" unicode="&#x3c4;" horiz-adv-x="419" 
d="M389 171l-22 -150q-59 -36 -146 -36q-180 0 -155 184l17 121h-77l22 156l396 4l-23 -160h-110l-11 -77q-9 -62 40 -62q23 0 69 20z" />
    <glyph glyph-name="upsilon" unicode="&#x3c5;" horiz-adv-x="563" 
d="M322 214l32 233h212l-28 -199q-11 -76 -42 -131t-75 -82q-76 -45 -155 -45q-112 0 -173 59q-60 59 -45 164l33 234h210l-35 -252q-6 -39 24 -39q35 0 42 58z" />
    <glyph glyph-name="phi" unicode="&#x3c6;" horiz-adv-x="786" 
d="M220 -218l34 205q-125 7 -182 64q-56 56 -56 134q0 53 22 101q23 52 77 93.5t129 58.5l44 -102q-64 -45 -64 -116q0 -29 14 -51t39 -24l45 306h203q108 0 171.5 -53t63.5 -142q0 -107 -86 -187q-84 -78 -216 -83l-29 -204h-209zM499 301l-23 -159q35 1 60.5 30t25.5 66
q0 58 -63 63z" />
    <glyph glyph-name="chi" unicode="&#x3c7;" horiz-adv-x="563" 
d="M523 0h-211l-40 185l-92 -185h-210l130 231l-63 216h210l37 -170l84 170h211l-123 -216z" />
    <glyph glyph-name="psi" unicode="&#x3c8;" horiz-adv-x="808" 
d="M478 -16l-27 -202h-211l28 202q-67 5 -115 30.5t-72.5 65t-32.5 85.5t-1 96l26 186h206l-29 -212q-11 -85 41 -86l42 298h210l-42 -298q22 2 41 25t25 61l29 212h207l-26 -186q-14 -97 -86 -177q-78 -88 -213 -100z" />
    <glyph glyph-name="omega" unicode="&#x3c9;" horiz-adv-x="768" 
d="M353 49h-5q-59 -59 -147 -59t-137 51t-49 137q0 118 72 196q72 79 185 87l44 -124q-42 -8 -64 -47.5t-22 -94.5q0 -45 29 -45q13 0 23.5 11t13.5 31l15 104h160l-15 -104q-4 -16 3.5 -29t21.5 -13q10 0 19.5 6t19 30t9.5 62q0 73 -49 85l64 129q96 -10 147.5 -61
t51.5 -136q0 -115 -68 -195t-180 -80q-106 0 -142 59z" />
    <glyph glyph-name="iotadieresis" unicode="&#x3ca;" horiz-adv-x="294" 
d="M109 702q33 0 54 -21.5t21 -54.5q0 -40 -30 -72q-30 -31 -70 -31q-34 0 -54 21t-20 54q0 46 30 75q32 29 69 29zM317 702q33 0 54 -21.5t21 -54.5q0 -40 -30 -71q-29 -32 -70 -32q-34 0 -54 21t-20 54q0 46 30 75q32 29 69 29zM280 447l-62 -447h-212l62 447h212z" />
    <glyph glyph-name="upsilondieresis" unicode="&#x3cb;" horiz-adv-x="563" 
d="M322 214l32 233h212l-28 -199q-11 -76 -42 -131t-75 -82q-76 -45 -155 -45q-112 0 -173 59q-60 59 -45 164l33 234h210l-35 -252q-6 -39 24 -39q35 0 42 58zM255 702q33 0 54 -21.5t21 -54.5q0 -40 -30 -72q-30 -31 -70 -31q-34 0 -54 21t-20 54q0 46 30 75q32 29 69 29z
M463 702q33 0 54 -21.5t21 -54.5q0 -40 -30 -71q-29 -32 -70 -32q-34 0 -54 21t-20 54q0 46 30 75q32 29 69 29z" />
    <glyph glyph-name="omicrontonos" unicode="&#x3cc;" horiz-adv-x="560" 
d="M310 464q109 0 169 -54t60 -145q0 -120 -83 -198q-83 -77 -213 -77q-108 0 -169.5 53.5t-61.5 144.5q0 118 84 197q83 79 214 79zM289 294q-30 0 -47.5 -25t-17.5 -60q0 -50 46 -50q28 0 47.5 23.5t19.5 59.5q0 52 -48 52zM405 731l119 -70l-167 -142h-109z" />
    <glyph glyph-name="upsilontonos" unicode="&#x3cd;" horiz-adv-x="563" 
d="M322 214l32 233h212l-28 -199q-11 -76 -42 -131t-75 -82q-76 -45 -155 -45q-112 0 -173 59q-60 59 -45 164l33 234h210l-35 -252q-6 -39 24 -39q35 0 42 58zM407 731l119 -70l-167 -142h-109z" />
    <glyph glyph-name="omegatonos" unicode="&#x3ce;" horiz-adv-x="768" 
d="M353 49h-5q-59 -59 -147 -59t-137 51t-49 137q0 118 72 196q72 79 185 87l44 -124q-42 -8 -64 -47.5t-22 -94.5q0 -45 29 -45q13 0 23.5 11t13.5 31l15 104h160l-15 -104q-4 -16 3.5 -29t21.5 -13q10 0 19.5 6t19 30t9.5 62q0 73 -49 85l64 129q96 -10 147.5 -61
t51.5 -136q0 -115 -68 -195t-180 -80q-106 0 -142 59zM499 721l119 -70l-167 -142h-109z" />
    <glyph glyph-name="afii10023" unicode="&#x401;" horiz-adv-x="565" 
d="M268 880q33 0 54 -22t21 -55q0 -39 -30 -71t-70 -32q-34 0 -54.5 21.5t-20.5 54.5q0 47 31 75q32 29 69 29zM477 880q33 0 53.5 -21.5t20.5 -54.5q0 -39 -30 -72q-29 -32 -69 -32q-34 0 -54.5 21.5t-20.5 54.5q0 47 31 75q32 29 69 29zM498 0h-485l92 659h464l-25 -180
h-228l-8 -55h195l-24 -172h-195l-10 -71h249z" />
    <glyph glyph-name="afii10051" unicode="&#x402;" horiz-adv-x="844" 
d="M646 659l-25 -180h-183l-14 -98q74 25 153 25q99 0 164 -47t65 -147q0 -125 -79 -220q-78 -96 -183 -146l-119 96q59 35 95 96q36 62 36 111q0 91 -82 91q-28 0 -72 -14l-31 -226h-236l67 479h-160l25 180h579z" />
    <glyph glyph-name="afii10052" unicode="&#x403;" horiz-adv-x="538" 
d="M249 0h-236l92 659h476l-25 -180h-240zM407 915l119 -70l-161 -142h-115z" />
    <glyph glyph-name="afii10053" unicode="&#x404;" horiz-adv-x="614" 
d="M568 213l-27 -199q-85 -29 -187 -29q-150 0 -232 82q-81 83 -81 212q0 102 47 191t143 146q97 57 226 57q91 0 160 -24l-28 -195q-58 26 -124 26q-107 0 -147 -64h171l-22 -156h-185q9 -83 128 -83q72 0 158 36z" />
    <glyph glyph-name="afii10054" unicode="&#x405;" horiz-adv-x="576" 
d="M559 634l-26 -185q-25 18 -80 37q-53 18 -94 18q-60 0 -60 -31q0 -12 18 -24.5t45.5 -23t59 -29t59 -40t45.5 -58t18 -80.5q0 -25 -7.5 -53t-28 -61t-52.5 -59t-86.5 -43.5t-124.5 -17.5q-154 0 -246 55l29 203q30 -30 97 -55q67 -24 115 -24q63 0 63 35q0 30 -85 73
q-157 75 -156 187q0 79 62 146q72 75 221 75q112 0 214 -45z" />
    <glyph glyph-name="afii10055" unicode="&#x406;" horiz-adv-x="334" 
d="M105 659h237l-92 -659h-237z" />
    <glyph glyph-name="afii10056" unicode="&#x407;" horiz-adv-x="334" 
d="M149 880q33 0 54 -22t21 -55q0 -39 -30 -71t-70 -32q-34 0 -54.5 21.5t-20.5 54.5q0 47 31 75q32 29 69 29zM358 880q33 0 53.5 -21.5t20.5 -54.5q0 -39 -30 -72q-29 -32 -69 -32q-34 0 -54.5 21.5t-20.5 54.5q0 47 31 75q32 29 69 29zM105 659h237l-92 -659h-237z" />
    <glyph glyph-name="afii10057" unicode="&#x408;" horiz-adv-x="535" 
d="M304 659h240l-52 -370q-42 -304 -332 -304q-102 0 -173 42l24 197q71 -41 124 -41q52 0 81 28t38 90z" />
    <glyph glyph-name="afii10058" unicode="&#x409;" horiz-adv-x="1017" 
d="M461 489h-70l-44 -200q-10 -48 -11 -50l-13 -49q-9 -35 -19 -51l-25 -45q-14 -24 -31.5 -40t-50.5 -38q-48 -32 -138 -43l-80 168q70 10 98 34q29 25 42 87l85 397h516l-34 -241h71q113 0 170 -44q63 -52 61 -136q0 -109 -70 -173q-71 -65 -175 -65h-350zM706 261h-42
l-13 -92h44q24 0 40.5 16t16.5 38q0 17 -12.5 27.5t-33.5 10.5z" />
    <glyph glyph-name="afii10059" unicode="&#x40a;" horiz-adv-x="1007" 
d="M732 0h-351l35 256h-131l-35 -256h-237l92 659h237l-34 -243h131l34 243h237l-34 -241h71q114 0 170 -44q64 -51 62 -134q0 -106 -73 -173q-71 -67 -174 -67zM696 261h-42l-12 -90h43q24 0 40 15.5t16 36.5q0 17 -12 27.5t-33 10.5z" />
    <glyph glyph-name="afii10060" unicode="&#x40b;" horiz-adv-x="819" 
d="M636 659l-25 -180h-173l-14 -98q99 26 171 26q200 0 176 -186l-31 -221h-238l21 154q6 39 -7 56t-47 17q-22 0 -69 -14l-29 -213h-236l67 479h-160l25 180h569z" />
    <glyph glyph-name="afii10061" unicode="&#x40c;" horiz-adv-x="691" 
d="M105 659h237l-41 -293l190 293h248l-226 -318l138 -341h-251l-106 314l-44 -314h-237zM489 917l119 -70l-161 -142h-115z" />
    <glyph glyph-name="afii10062" unicode="&#x40e;" horiz-adv-x="653" 
d="M397 701q-86 0 -122 53q-35 53 -27 131h89q-5 -81 78 -81q30 0 57 22.5t38 58.5h87q-17 -73 -66 -129q-49 -55 -134 -55zM223 164l7 16l-174 479h247l48 -252h3l109 252h247l-296 -544q-43 -80 -94 -111q-50 -30 -130 -30q-76 0 -139 30l17 153q16 -9 45 -17t52 -8
q43 0 58 32z" />
    <glyph glyph-name="afii10145" unicode="&#x40f;" horiz-adv-x="708" 
d="M480 659h237l-92 -659h-210l-24 -169h-199l24 169h-203l92 659h238l-67 -479h137z" />
    <glyph glyph-name="afii10017" unicode="&#x410;" horiz-adv-x="694" 
d="M654 0h-232l-15 62h-179l-34 -62h-224l429 679h24zM353 287h-4l-57 -101h88z" />
    <glyph glyph-name="afii10018" unicode="&#x411;" horiz-adv-x="638" 
d="M611 659l-24 -170h-268l-10 -71h70q114 0 170 -44q64 -51 62 -134q0 -106 -73 -173q-71 -67 -173 -67h-352l93 659h505zM328 261h-41l-12 -90h43q24 0 39.5 15t15.5 37q0 17 -12 27.5t-33 10.5z" />
    <glyph glyph-name="afii10019" unicode="&#x412;" horiz-adv-x="655" 
d="M533 362v-4q81 -46 81 -143q0 -87 -67 -151t-166 -64h-368l92 659h335q82 0 129 -42.5t47 -107.5q0 -85 -83 -147zM350 260h-71l-11 -80h74q25 0 38 13.5t13 32.5q0 15 -11.5 24.5t-31.5 9.5zM354 485h-44l-11 -78h45q17 0 31.5 13t14.5 33q0 32 -36 32z" />
    <glyph glyph-name="afii10020" unicode="&#x413;" horiz-adv-x="538" 
d="M249 0h-236l92 659h476l-25 -180h-240z" />
    <glyph glyph-name="afii10021" unicode="&#x414;" horiz-adv-x="821" 
d="M520 489h-96l-24 -92q-24 -95 -41 -135q-20 -47 -50 -81h168zM-51 -156l46 337h82q46 37 69 89q24 52 48 145l62 244h527l-67 -478h90l-47 -337h-188l22 156h-435l-22 -156h-187z" />
    <glyph glyph-name="afii10022" unicode="&#x415;" horiz-adv-x="565" 
d="M498 0h-485l92 659h464l-25 -180h-228l-8 -55h195l-24 -172h-195l-10 -71h249z" />
    <glyph glyph-name="afii10024" unicode="&#x416;" horiz-adv-x="1038" 
d="M458 659h236l-41 -293l185 293h248l-221 -318l133 -341h-251l-101 314l-44 -314h-236l44 314l-189 -314h-251l227 341l-131 318h248l103 -293z" />
    <glyph glyph-name="afii10025" unicode="&#x417;" horiz-adv-x="580" 
d="M1 16l27 197q35 -18 88 -29q57 -11 97 -11q48 0 74 15t26 41q0 19 -16 30t-41 11h-83l20 139h76q62 0 62 41q0 34 -75 34q-43 0 -99 -10q-58 -9 -77 -18l26 191q95 29 219 29q84 0 157 -30q39 -16 61 -49t22 -78q0 -43 -30 -91q-29 -49 -84 -74v-2q43 -14 66 -50.5
t23 -81.5q0 -104 -95 -170q-95 -65 -234 -65q-123 0 -210 31z" />
    <glyph glyph-name="afii10026" unicode="&#x418;" horiz-adv-x="712" 
d="M700 679h23l-95 -679h-235l38 275h-4l-395 -295h-22l95 679h237l-38 -270h4z" />
    <glyph glyph-name="afii10027" unicode="&#x419;" horiz-adv-x="712" 
d="M700 679h23l-95 -679h-235l38 275h-4l-395 -295h-22l95 679h237l-38 -270h4zM451 693q-85 0 -121 55q-34 56 -27 135h89q-3 -82 79 -82q30 0 56.5 23t36.5 59h88q-17 -77 -67 -133q-49 -57 -134 -57z" />
    <glyph glyph-name="afii10028" unicode="&#x41a;" horiz-adv-x="691" 
d="M105 659h237l-41 -293l190 293h248l-226 -318l138 -341h-251l-106 314l-44 -314h-237z" />
    <glyph glyph-name="afii10029" unicode="&#x41b;" horiz-adv-x="713" 
d="M119 262l85 397h517l-92 -659h-235l67 489h-70l-44 -200l-13 -57q-18 -69 -44 -113q-37 -62 -88 -95q-62 -40 -155 -52l-64 163q70 13 97 39q27 25 39 88z" />
    <glyph glyph-name="afii10030" unicode="&#x41c;" horiz-adv-x="792" 
d="M131 678l284 -308l367 308h21l-95 -678h-229l32 230h-4l-116 -112h-25l-91 108h-4l-31 -226h-227l95 678h23z" />
    <glyph glyph-name="afii10031" unicode="&#x41d;" horiz-adv-x="700" 
d="M617 0h-237l34 247h-131l-34 -247h-236l92 659h236l-32 -230h131l32 230h237z" />
    <glyph glyph-name="afii10032" unicode="&#x41e;" horiz-adv-x="787" 
d="M453 674q145 0 230 -85t85 -214q0 -165 -120 -277q-118 -112 -293 -112q-144 0 -228 84t-84 213q0 166 115 278q116 113 295 113zM386 178q63 0 105 52q43 52 43 130q0 54 -27.5 86t-78.5 32q-65 0 -108 -52q-42 -52 -42 -125q0 -55 29 -89t79 -34z" />
    <glyph glyph-name="afii10033" unicode="&#x41f;" horiz-adv-x="700" 
d="M617 0h-237l67 479h-131l-67 -479h-236l92 659h604z" />
    <glyph glyph-name="afii10034" unicode="&#x420;" horiz-adv-x="599" 
d="M105 659h282q119 0 174 -57q55 -56 55 -146q0 -100 -75 -175q-76 -74 -201 -74h-62l-29 -207h-236zM335 485h-20l-16 -109h20q31 0 48.5 19t17.5 44q0 46 -50 46z" />
    <glyph glyph-name="afii10035" unicode="&#x421;" horiz-adv-x="614" 
d="M568 213l-27 -199q-85 -29 -187 -29q-150 0 -231 77.5t-81 212.5q0 109 48 198q49 92 146 146t221 54q91 0 160 -24l-28 -195q-58 26 -124 26q-76 0 -131 -46t-55 -138q0 -59 35 -89t96 -30q72 0 158 36z" />
    <glyph glyph-name="afii10036" unicode="&#x422;" horiz-adv-x="579" 
d="M626 659l-25 -180h-163l-67 -479h-236l67 479h-160l25 180h559z" />
    <glyph glyph-name="afii10037" unicode="&#x423;" horiz-adv-x="653" 
d="M223 164l7 16l-174 479h247l48 -252h3l109 252h247l-296 -544q-43 -80 -94 -111q-50 -30 -130 -30q-76 0 -139 30l17 153q16 -9 45 -17t52 -8q43 0 58 32z" />
    <glyph glyph-name="afii10038" unicode="&#x424;" horiz-adv-x="924" 
d="M343 219l34 240q-51 -6 -83 -50t-32 -89q0 -40 20.5 -67.5t60.5 -33.5zM607 458l-34 -240q45 8 78 49q33 42 33 91q0 40 -20 68t-57 32zM405 659h232l-6 -40q131 -11 204 -79q74 -68 74 -164q0 -123 -97 -213q-96 -90 -260 -105l-8 -58h-231l8 58q-142 9 -213.5 70
t-71.5 166q0 128 100 222q99 93 264 104z" />
    <glyph glyph-name="afii10039" unicode="&#x425;" horiz-adv-x="716" 
d="M676 0h-253l-61 282l-139 -282h-253l184 341l-84 318h253l55 -259l129 259h253l-176 -318z" />
    <glyph glyph-name="afii10040" unicode="&#x426;" horiz-adv-x="761" 
d="M480 659h237l-67 -479h92l-47 -336h-187l22 156h-517l92 659h238l-67 -479h137z" />
    <glyph glyph-name="afii10041" unicode="&#x427;" horiz-adv-x="697" 
d="M483 659h237l-92 -659h-237l38 276q-85 -17 -143 -17q-107 0 -160.5 47.5t-39.5 146.5l29 206h237l-24 -175q-5 -32 5.5 -47t43.5 -15q37 0 75 13z" />
    <glyph glyph-name="afii10042" unicode="&#x428;" horiz-adv-x="1059" 
d="M832 659h236l-92 -659h-963l92 659h238l-67 -479h126l66 479h238l-67 -479h125z" />
    <glyph glyph-name="afii10043" unicode="&#x429;" horiz-adv-x="1113" 
d="M881 0h-868l92 659h238l-67 -479h126l66 479h238l-67 -479h125l67 479h237l-67 -479h92l-47 -336h-187z" />
    <glyph glyph-name="afii10044" unicode="&#x42a;" horiz-adv-x="829" 
d="M206 0l66 479h-235l25 180h469l-34 -241h72q114 0 170 -44q64 -51 62 -134q0 -106 -73 -173q-71 -67 -173 -67h-349zM518 261h-43l-13 -92h45q24 0 40 16t16 38q0 17 -12 27.5t-33 10.5z" />
    <glyph glyph-name="afii10045" unicode="&#x42b;" horiz-adv-x="941" 
d="M365 0h-352l93 659h235l-34 -241h72q114 0 170 -44q64 -51 62 -134q0 -106 -73 -173q-71 -67 -173 -67zM328 261h-43l-13 -92h45q24 0 40 16t16 38q0 17 -12 27.5t-33 10.5zM713 659h236l-92 -659h-236z" />
    <glyph glyph-name="afii10046" unicode="&#x42c;" horiz-adv-x="638" 
d="M365 0h-352l93 659h235l-34 -241h72q114 0 170 -44q64 -51 62 -134q0 -106 -73 -173q-71 -67 -173 -67zM328 261h-43l-13 -92h45q24 0 40 16t16 38q0 17 -12 27.5t-33 10.5z" />
    <glyph glyph-name="afii10047" unicode="&#x42d;" horiz-adv-x="614" 
d="M5 14l29 199q75 -36 148 -36q120 0 152 83h-185l22 156h171q-13 64 -115 64q-75 0 -144 -26l27 191q87 28 194 28q150 0 220 -79q72 -78 72 -201q0 -173 -113 -291q-113 -117 -299 -117q-98 0 -179 29z" />
    <glyph glyph-name="afii10048" unicode="&#x42e;" horiz-adv-x="1096" 
d="M286 257l-36 -257h-237l92 659h237l-34 -242h87q41 115 142 185q103 72 235 72q143 0 224 -81q81 -79 81 -207q0 -168 -115 -284q-114 -116 -288 -116q-136 0 -219 75t-84 196h-85zM704 184q61 0 100 50q39 51 39 124q0 51 -25.5 80.5t-73.5 29.5q-60 0 -101 -50
q-40 -49 -40 -119q0 -52 27 -83.5t74 -31.5z" />
    <glyph glyph-name="afii10049" unicode="&#x42f;" horiz-adv-x="660" 
d="M368 659h300l-92 -659h-235l67 479h-25q-36 0 -57 -24.5t-21 -61.5q0 -61 59 -87l-3 -17l-157 -289h-236l175 271q-67 55 -67 135q0 118 84 185q86 68 208 68z" />
    <glyph glyph-name="afii10065" unicode="&#x430;" horiz-adv-x="594" 
d="M276 463q93 0 140 -59l27 43h140l-64 -447h-158l-7 44l-5 1q-67 -55 -159 -55q-86 0 -132.5 48t-46.5 133q0 124 72 208q73 84 193 84zM290 294q-30 0 -47.5 -25t-17.5 -60q0 -50 46 -50q28 0 47.5 23.5t19.5 59.5q0 52 -48 52z" />
    <glyph glyph-name="afii10066" unicode="&#x431;" horiz-adv-x="569" 
d="M228 409l2 -2q41 44 125 44t134 -49.5t50 -134.5q0 -119 -80 -199q-79 -78 -208 -78q-119 0 -178 58t-59 160q0 418 285 498q78 20 195 32l44 -156l-77 -7q-18 -2 -66 -11q-41 -8 -63 -18q-95 -45 -104 -137zM290 294q-30 0 -47.5 -25t-17.5 -60q0 -50 46 -50
q28 0 47.5 23.5t19.5 59.5q0 52 -48 52z" />
    <glyph glyph-name="afii10067" unicode="&#x432;" horiz-adv-x="537" 
d="M288 199h-11l12 80h8q21 0 33 10.5t12 26.5q0 27 -31 27q-43 0 -53 -69l-11 -77q-11 -59 43 -59q18 0 30 10t12 24q0 27 -44 27zM439 259l-1 -5q47 -11 70.5 -38.5t23.5 -64.5q0 -63 -68 -114q-68 -50 -186 -50q-117 0 -187 55t-51 170l11 64q15 84 86 137q73 53 182 53
q103 0 146 -36q43 -34 43 -80q0 -67 -69 -91z" />
    <glyph glyph-name="afii10068" unicode="&#x433;" horiz-adv-x="435" 
d="M58 289l20 141q90 33 177 33q80 0 121 -32.5t41 -85.5q0 -49 -33 -89q-32 -40 -72 -61l-72 -37q-33 -16 -33 -24t5 -9.5t24 -1.5q32 0 81 18q48 18 82 42l-22 -155q-90 -41 -193 -41q-93 0 -136.5 32t-43.5 85q0 47 31 85q32 41 68 61q44 27 68 39q31 16 31 22
q0 12 -26 12q-57 0 -118 -34z" />
    <glyph glyph-name="afii10069" unicode="&#x434;" horiz-adv-x="574" 
d="M360 437h7q0 28 -4 43q-14 72 -89 92q-63 20 -140 21q-4 0 -17 0.5t-16 0.5l77 133q9 1 34 1q345 -1 345 -337q0 -110 -37 -206q-31 -87 -99.5 -141t-176.5 -55q-119 0 -174 58q-56 59 -56 142q0 113 70 190q70 78 173 78q66 0 103 -20zM284 294q-28 -1 -44 -24t-16 -55
q0 -56 47 -56q28 0 46 20.5t18 55.5q0 59 -51 59z" />
    <glyph glyph-name="afii10070" unicode="&#x435;" horiz-adv-x="509" 
d="M292 466q86 0 138.5 -38.5t52.5 -102.5q0 -41 -21.5 -72.5t-58.5 -46.5q-67 -28 -144 -28q-7 0 -33 2q3 -47 70 -47q36 0 79.5 14t76.5 35l-18 -147q-75 -45 -202 -45q-116 0 -168 57q-52 58 -52 141q0 112 75 194q75 84 205 84zM271 319q-38 0 -44 -60l4 -1h6
q25 0 40.5 10t15.5 28q0 23 -22 23z" />
    <glyph glyph-name="afii10072" unicode="&#x436;" horiz-adv-x="838" 
d="M303 209l-114 -209h-219l144 232l-80 215h216l59 -195l27 195h221l-27 -195l112 195h216l-139 -215l79 -232h-219l-55 209l-29 -209h-221z" />
    <glyph glyph-name="afii10073" unicode="&#x437;" horiz-adv-x="469" 
d="M249 462q72 0 127 -22q68 -25 68 -91q0 -33 -20 -63t-59 -47v-1q31 -12 48 -36t17 -50q0 -80 -75 -123q-76 -44 -184 -44q-103 0 -165 33l20 145q57 -36 131 -36q72 0 72 37q0 16 -33 16h-49l12 90h36q19 0 31.5 7.5t12.5 19.5q0 21 -54 21q-58 0 -128 -30l21 150
q70 24 171 24z" />
    <glyph glyph-name="afii10074" unicode="&#x438;" horiz-adv-x="563" 
d="M317 0l-6 63h-5q-58 -73 -152 -73q-68 0 -99 42t-20 117l42 298h210l-35 -252q-6 -39 24 -39q34 0 41 58l32 233h213l-62 -447h-183z" />
    <glyph glyph-name="afii10075" unicode="&#x439;" horiz-adv-x="563" 
d="M317 0l-6 63h-5q-58 -73 -152 -73q-68 0 -99 42t-20 117l42 298h210l-35 -252q-6 -39 24 -39q34 0 41 58l32 233h213l-62 -447h-183zM318 491q-85 0 -121 55q-35 56 -27 135h89q-3 -82 79 -82q30 0 56.5 23t36.5 59h88q-17 -77 -67 -133q-49 -57 -134 -57z" />
    <glyph glyph-name="afii10076" unicode="&#x43a;" horiz-adv-x="573" 
d="M448 232l85 -232h-219l-61 209l-29 -209h-220l62 447h220l-27 -195l118 195h216z" />
    <glyph glyph-name="afii10077" unicode="&#x43b;" horiz-adv-x="572" 
d="M87 216l54 233h420l-63 -449h-208l40 291h-39l-21 -93l-11 -47q-19 -64 -44 -93q-64 -78 -182 -82l-57 152q92 8 111 88z" />
    <glyph glyph-name="afii10078" unicode="&#x43c;" horiz-adv-x="664" 
d="M98 456l237 -197l291 197h29l-64 -456h-210l17 125h-4l-76 -65h-24l-62 62h-4l-17 -122h-207l64 456h30z" />
    <glyph glyph-name="afii10079" unicode="&#x43d;" horiz-adv-x="573" 
d="M499 0h-210l21 163h-73l-22 -163h-211l62 447h210l-21 -154h74l21 154h211z" />
    <glyph glyph-name="afii10080" unicode="&#x43e;" horiz-adv-x="560" 
d="M310 464q109 0 169 -54t60 -145q0 -120 -83 -198q-83 -77 -213 -77q-108 0 -169.5 53.5t-61.5 144.5q0 118 84 197q83 79 214 79zM289 294q-30 0 -47.5 -25t-17.5 -60q0 -50 46 -50q28 0 47.5 23.5t19.5 59.5q0 52 -48 52z" />
    <glyph glyph-name="afii10081" unicode="&#x43f;" horiz-adv-x="567" 
d="M240 447l10 -55l3 -1q31 35 74 54t79 19q75 0 108 -41.5t22 -120.5l-42 -302h-212l34 247q8 47 -22 47q-40 0 -48 -65l-32 -229h-210l62 447h174z" />
    <glyph glyph-name="afii10082" unicode="&#x440;" horiz-adv-x="601" 
d="M182 -219h-209l93 666h177l9 -46h5q51 61 143 61q88 0 134 -52.5t46 -141.5q0 -129 -74 -205q-74 -74 -183 -74q-70 0 -102 31l-6 -4zM307 153q27 0 46 24.5t19 60.5q0 53 -46 53q-27 0 -47 -24t-20 -59q0 -55 48 -55z" />
    <glyph glyph-name="afii10083" unicode="&#x441;" horiz-adv-x="436" 
d="M304 464q64 0 116 -21l-19 -167q-40 20 -86 20q-40 0 -65 -22.5t-25 -62.5q0 -58 67 -58q47 0 104 28l-23 -161q-62 -32 -157 -32q-94 0 -150 54q-55 55 -55 141q0 133 84 207q85 74 209 74z" />
    <glyph glyph-name="afii10084" unicode="&#x442;" horiz-adv-x="827" 
d="M239 447l11 -50l6 -1q62 68 145 68q93 0 118 -84q59 84 150 84q72 0 105 -41.5t22 -119.5l-42 -303h-212l35 253q8 41 -18 41q-35 0 -43 -63l-32 -231h-210l34 245q6 20 0 34.5t-23 14.5q-31 0 -38 -57l-33 -237h-210l62 447h173z" />
    <glyph glyph-name="afii10085" unicode="&#x443;" horiz-adv-x="532" 
d="M20 -220l113 232l-111 435h213l14 -237h6l87 237h214l-334 -667h-202z" />
    <glyph glyph-name="afii10086" unicode="&#x444;" horiz-adv-x="782" 
d="M433 -219h-205l29 210q-149 11 -202 86q-46 68 -34 148q13 91 95 152q83 62 206 74l36 260h205l-36 -260q129 -8 189 -71q62 -63 48 -158q-13 -90 -93 -158q-80 -67 -209 -74zM506 300l-22 -153q28 3 52 26t28 52q8 60 -58 75zM281 147l21 151q-28 -4 -50.5 -25.5
t-26.5 -47.5q-5 -34 11 -54.5t45 -23.5z" />
    <glyph glyph-name="afii10087" unicode="&#x445;" horiz-adv-x="563" 
d="M523 0h-211l-40 185l-92 -185h-210l130 231l-63 216h210l37 -170l84 170h211l-123 -216z" />
    <glyph glyph-name="afii10088" unicode="&#x446;" horiz-adv-x="677" 
d="M475 7l-166 -18l-8 9l11 65l-6 2q-63 -75 -149 -75q-145 0 -124 160l43 297h211l-37 -252q-6 -39 24 -39q35 0 42 58l32 233h212l-40 -287l142 11l10 -11l-35 -307h-184z" />
    <glyph glyph-name="afii10089" unicode="&#x447;" horiz-adv-x="556" 
d="M287 0l25 178l-3 1q-49 -57 -133 -57q-146 0 -124 160l24 165h211l-17 -116q-7 -43 23 -43q35 0 44 70l12 89h218l-61 -447h-219z" />
    <glyph glyph-name="afii10090" unicode="&#x448;" horiz-adv-x="828" 
d="M592 0l-11 50l-6 1q-62 -68 -145 -68q-92 0 -118 84q-58 -84 -150 -84q-72 0 -105 41.5t-22 119.5l42 303h212l-35 -253q-8 -41 18 -41q36 0 43 63l32 231h210l-34 -245q-6 -20 0 -34.5t23 -14.5q30 0 38 57l33 237h210l-62 -447h-173z" />
    <glyph glyph-name="afii10091" unicode="&#x449;" horiz-adv-x="943" 
d="M430 -17q-92 0 -118 84q-58 -84 -150 -84q-72 0 -105 41.5t-22 119.5l42 303h212l-35 -253q-8 -41 18 -41q36 0 43 63l32 231h210l-34 -245q-6 -20 0 -34.5t23 -14.5q30 0 38 57l33 237h210l-40 -287l142 11l10 -11l-35 -307h-184l22 154l-160 -18l-8 9l11 65l-6 2
q-57 -82 -149 -82z" />
    <glyph glyph-name="afii10092" unicode="&#x44a;" horiz-adv-x="686" 
d="M42 447h366l-15 -113l4 -4h115q69 0 111.5 -34.5t42.5 -100.5q0 -84 -74 -146q-73 -61 -198 -61q-102 0 -166 48q-64 49 -64 155q0 19 3 40l7 59h-154zM428 206h-46l-4 -27q-2 -18 10 -28t33 -10q20 0 34 10.5t14 27.5q0 27 -41 27z" />
    <glyph glyph-name="afii10093" unicode="&#x44b;" horiz-adv-x="811" 
d="M279 206h-46l-4 -27q-2 -18 10 -28t33 -10q20 0 34 10.5t14 27.5q0 27 -41 27zM259 447l-15 -113l4 -4h115q69 0 111.5 -34.5t42.5 -100.5q0 -84 -74 -146q-73 -61 -198 -61q-101 0 -166 48q-64 49 -64 155q0 19 3 40l28 216h213zM806 447l-62 -447h-212l62 447h212z" />
    <glyph glyph-name="afii10094" unicode="&#x44c;" horiz-adv-x="537" 
d="M279 206h-46l-4 -27q-2 -18 10 -28t33 -10q20 0 34 10.5t14 27.5q0 27 -41 27zM259 447l-15 -113l4 -4h115q69 0 111.5 -34.5t42.5 -100.5q0 -84 -74 -146q-73 -61 -198 -61q-101 0 -166 48q-64 49 -64 155q0 19 3 40l28 216h213z" />
    <glyph glyph-name="afii10095" unicode="&#x44d;" horiz-adv-x="436" 
d="M188 185h-77l11 81h76q-9 30 -66 30q-41 0 -86 -20l23 164q72 24 139 24q97 0 151.5 -55t54.5 -148q0 -115 -74 -195q-74 -78 -195 -78q-91 0 -149 32l23 161q49 -28 97 -28q49 0 72 32z" />
    <glyph glyph-name="afii10096" unicode="&#x44e;" horiz-adv-x="828" 
d="M238 171l-24 -171h-210l62 447h210l-23 -167h57q28 84 101 134t172 50q104 0 162 -53.5t58 -144.5q0 -120 -81 -198q-80 -78 -206 -78q-89 0 -145.5 39t-71.5 109q-3 24 -4 33h-57zM562 294q-29 0 -46.5 -25.5t-17.5 -60.5q0 -49 45 -49q28 0 46.5 23.5t18.5 60.5
q0 23 -12 37t-34 14z" />
    <glyph glyph-name="afii10097" unicode="&#x44f;" horiz-adv-x="566" 
d="M262 447h292l-62 -447h-211l43 307h-11q-25 0 -39.5 -15t-14.5 -35q0 -29 33 -42l-4 -28l-109 -187h-214l139 188q-50 29 -50 93q0 78 56.5 122t151.5 44z" />
    <glyph glyph-name="afii10071" unicode="&#x451;" horiz-adv-x="509" 
d="M292 466q86 0 138.5 -38.5t52.5 -102.5q0 -41 -21.5 -72.5t-58.5 -46.5q-67 -28 -144 -28q-7 0 -33 2q3 -47 70 -47q36 0 79.5 14t76.5 35l-18 -147q-75 -45 -202 -45q-116 0 -168 57q-52 58 -52 141q0 112 75 194q75 84 205 84zM271 319q-38 0 -44 -60l4 -1h6
q25 0 40.5 10t15.5 28q0 23 -22 23zM227 709q33 0 54 -21.5t21 -54.5q0 -40 -30 -72q-30 -31 -70 -31q-34 0 -54 21t-20 54q0 46 30 75q32 29 69 29zM435 709q33 0 54 -21.5t21 -54.5q0 -40 -30 -71q-29 -32 -70 -32q-34 0 -54 21t-20 54q0 46 30 75q32 29 69 29z" />
    <glyph glyph-name="afii10099" unicode="&#x452;" horiz-adv-x="591" 
d="M293 617h141l-12 -85h-141l-15 -108l6 -3q59 35 130 35q78 0 121.5 -50t43.5 -150q0 -136 -84 -240q-72 -86 -147 -133l-122 75q144 103 144 247q0 39 -14.5 59.5t-34.5 20.5q-57 0 -66 -69l-30 -216h-209l74 532h-39l12 85h39l13 94h203z" />
    <glyph glyph-name="afii10100" unicode="&#x453;" horiz-adv-x="435" 
d="M58 289l20 141q90 33 177 33q80 0 121 -32.5t41 -85.5q0 -49 -33 -89q-32 -40 -72 -61l-72 -37q-33 -16 -33 -24t5 -9.5t24 -1.5q32 0 81 18q48 18 82 42l-22 -155q-90 -41 -193 -41q-93 0 -136.5 32t-43.5 85q0 47 31 85q32 41 68 61q44 27 68 39q31 16 31 22
q0 12 -26 12q-57 0 -118 -34zM340 714l119 -70l-161 -142h-115z" />
    <glyph glyph-name="afii10101" unicode="&#x454;" horiz-adv-x="436" 
d="M304 464q64 0 116 -21l-24 -167q-40 20 -81 20q-48 0 -72 -30h74l-11 -81h-76q12 -32 62 -32q47 0 104 28l-23 -161q-62 -32 -157 -32t-150 53.5t-55 141.5q0 129 84 205q85 76 209 76z" />
    <glyph glyph-name="afii10102" unicode="&#x455;" horiz-adv-x="417" 
d="M398 430l-20 -141q-50 34 -108 34q-27 0 -30 -14q0 -9 72 -49q30 -16 51.5 -49t21.5 -73q0 -24 -10 -48.5t-32.5 -48.5t-67.5 -39t-107 -15q-104 0 -181 41l22 155q25 -24 69 -42q29 -12 54 -16t40 -0.5t15 13.5q0 11 -78 53q-32 17 -55 50t-23 71q0 58 51 105
q50 46 149 46q87 0 167 -33z" />
    <glyph glyph-name="afii10103" unicode="&#x456;" horiz-adv-x="294" 
d="M280 447l-62 -447h-212l62 447h212zM215 722q42 0 68.5 -27t26.5 -67q0 -50 -37 -90q-38 -39 -89 -39q-43 0 -68 27t-25 68q0 55 39 91q38 37 85 37z" />
    <glyph glyph-name="afii10104" unicode="&#x457;" horiz-adv-x="294" 
d="M110 702q33 0 54 -21.5t21 -54.5q0 -40 -30 -72q-30 -31 -70 -31q-34 0 -54 21t-20 54q0 46 30 75q32 29 69 29zM318 702q33 0 54 -21.5t21 -54.5q0 -40 -30 -71q-29 -32 -70 -32q-34 0 -54 21t-20 54q0 46 30 75q32 29 69 29zM280 447l-62 -447h-212l62 447h212z" />
    <glyph glyph-name="afii10105" unicode="&#x458;" horiz-adv-x="294" 
d="M214 722q42 0 68.5 -27t26.5 -67q0 -50 -37 -90q-37 -39 -89 -39q-43 0 -68 27t-25 68q0 55 39 91q38 37 85 37zM70 447h210l-55 -394q-37 -275 -316 -289l-56 174q86 5 121 32q33 25 44 102z" />
    <glyph glyph-name="afii10106" unicode="&#x459;" horiz-adv-x="840" 
d="M87 216l53 231h422l-17 -114l4 -3h117q69 0 111.5 -34.5t42.5 -100.5q0 -84 -74 -146q-73 -61 -198 -61q-101 0 -166 48q-64 49 -64 155q0 19 3 40l8 60h-38l-21 -93q-6 -30 -12 -47q-19 -66 -45 -94q-68 -76 -191 -81l-47 145q58 1 84 34q17 21 28 61zM582 206h-46
l-4 -27q-2 -18 10 -28t33 -10q20 0 34 10.5t14 27.5q0 27 -41 27z" />
    <glyph glyph-name="afii10107" unicode="&#x45a;" horiz-adv-x="839" 
d="M562 447l-17 -130l4 -4h115q155 0 155 -126q0 -84 -74 -146q-73 -61 -198 -61q-48 0 -90 10.5t-77 33t-52.5 62.5t-11.5 94l3 14h-75l-29 -194h-211l62 447h210l-17 -131h73l17 131h213zM581 198h-46l-4 -27q-2 -18 8.5 -28t34.5 -10q20 0 34 10.5t14 27.5q0 27 -41 27z
" />
    <glyph glyph-name="afii10108" unicode="&#x45b;" horiz-adv-x="566" 
d="M281 532l-17 -124l3 -1q59 57 136 57q75 0 109 -42t23 -120l-42 -302h-211l34 247q8 47 -23 47q-39 0 -47 -65l-32 -229h-210l74 532h-39l12 85h39l13 94h203l-13 -94h141l-12 -85h-141z" />
    <glyph glyph-name="afii10109" unicode="&#x45c;" horiz-adv-x="573" 
d="M448 232l85 -232h-219l-61 209l-29 -209h-220l62 447h220l-27 -195l118 195h216zM392 714l119 -70l-161 -142h-115z" />
    <glyph glyph-name="afii10110" unicode="&#x45e;" horiz-adv-x="532" 
d="M305 493q-85 0 -121 55q-34 56 -27 135h89q-3 -82 79 -82q30 0 56.5 23t36.5 59h88q-17 -77 -67 -133q-49 -57 -134 -57zM20 -220l113 232l-111 435h213l14 -237h6l87 237h214l-334 -667h-202z" />
    <glyph glyph-name="afii10193" unicode="&#x45f;" horiz-adv-x="563" 
d="M185 -245l37 206h141l-23 -206h-155zM317 0l-6 63h-5q-58 -73 -152 -73q-68 0 -99 42t-20 117l42 298h210l-35 -252q-6 -39 24 -39q34 0 41 58l32 233h213l-62 -447h-183z" />
    <glyph glyph-name="afii10050" unicode="&#x490;" horiz-adv-x="566" 
d="M593 489h-275l-68 -489h-237l92 659h326l17 122h186z" />
    <glyph glyph-name="afii10098" unicode="&#x491;" horiz-adv-x="452" 
d="M454 303h-197l-42 -303h-210l61 448h248l16 107h160z" />
    <glyph glyph-name="schwacyrillic" unicode="&#x4d9;" horiz-adv-x="522" 
d="M218 -10q-86 0 -138.5 38.5t-52.5 102.5q0 41 21.5 72.5t58.5 46.5q67 28 144 28q7 0 33 -2q-3 47 -70 47q-36 0 -79.5 -14t-76.5 -35l18 147q75 45 202 45q115 0 167 -58q53 -58 53 -140q0 -111 -75 -195q-75 -83 -205 -83zM239 137q38 0 44 60q-1 0 -5 0.5t-5 0.5
q-25 0 -40.5 -10t-15.5 -28q0 -23 22 -23z" />
    <glyph glyph-name="Wgrave" unicode="&#x1e80;" horiz-adv-x="1006" 
d="M656 -22h-25l-120 336l-214 -336h-26l-209 681h248l72 -245h4l162 259h25l98 -259h4l137 245h246zM636 704h-107l-145 142l125 65z" />
    <glyph glyph-name="wgrave" unicode="&#x1e81;" horiz-adv-x="778" 
d="M430 465l82 -162h4l80 144h214l-297 -461h-29l-102 202l-157 -202h-29l-174 461h216l44 -144h4l117 162h27zM508 502h-107l-137 142l125 65z" />
    <glyph glyph-name="Wacute" unicode="&#x1e82;" horiz-adv-x="1006" 
d="M656 -22h-25l-120 336l-214 -336h-26l-209 681h248l72 -245h4l162 259h25l98 -259h4l137 245h246zM650 915l119 -70l-161 -142h-115z" />
    <glyph glyph-name="wacute" unicode="&#x1e83;" horiz-adv-x="778" 
d="M430 465l82 -162h4l80 144h214l-297 -461h-29l-102 202l-157 -202h-29l-174 461h216l44 -144h4l117 162h27zM499 714l119 -70l-161 -142h-115z" />
    <glyph glyph-name="Wdieresis" unicode="&#x1e84;" horiz-adv-x="1006" 
d="M656 -22h-25l-120 336l-214 -336h-26l-209 681h248l72 -245h4l162 259h25l98 -259h4l137 245h246zM491 880q33 0 54 -22t21 -55q0 -39 -30 -71t-70 -32q-34 0 -54.5 21.5t-20.5 54.5q0 47 31 75q32 29 69 29zM700 880q33 0 53.5 -21.5t20.5 -54.5q0 -39 -30 -72
q-29 -32 -69 -32q-34 0 -54.5 21.5t-20.5 54.5q0 47 31 75q32 29 69 29z" />
    <glyph glyph-name="wdieresis" unicode="&#x1e85;" horiz-adv-x="778" 
d="M344 685q33 0 54 -21.5t21 -54.5q0 -41 -30 -72t-70 -31q-34 0 -54 21t-20 54q0 47 30 75q32 29 69 29zM552 685q33 0 54 -21.5t21 -54.5q0 -39 -30 -71q-29 -32 -70 -32q-34 0 -54 21t-20 54q0 47 30 75q32 29 69 29zM430 465l82 -162h4l80 144h214l-297 -461h-29
l-102 202l-157 -202h-29l-174 461h216l44 -144h4l117 162h27z" />
    <glyph glyph-name="Ygrave" unicode="&#x1ef2;" horiz-adv-x="664" 
d="M176 0l32 228l-146 431h254l28 -142q8 -35 15 -90h4q12 40 35 88l65 144h254l-273 -431l-32 -228h-236zM468 704h-107l-145 142l125 65z" />
    <glyph glyph-name="ygrave" unicode="&#x1ef3;" horiz-adv-x="532" 
d="M20 -220l113 232l-111 435h213l14 -237h6l87 237h214l-334 -667h-202zM383 502h-107l-137 142l125 65z" />
    <glyph glyph-name="endash" unicode="&#x2013;" horiz-adv-x="619" 
d="M588 185h-574l20 145h574z" />
    <glyph glyph-name="emdash" unicode="&#x2014;" horiz-adv-x="840" 
d="M806 185h-790l20 145h790z" />
    <glyph glyph-name="afii00208" unicode="&#x2015;" horiz-adv-x="840" 
d="M806 185h-790l20 145h790z" />
    <glyph glyph-name="quoteleft" unicode="&#x2018;" horiz-adv-x="261" 
d="M255 417q-6 -41 -37 -69t-69 -28q-43 0 -64.5 27.5t-16.5 71.5q7 58 57 130q48 71 106 126l67 -11l-79 -167q44 -21 36 -80z" />
    <glyph glyph-name="quoteright" unicode="&#x2019;" horiz-adv-x="261" 
d="M84 570q6 41 37 69t69 28q43 0 64.5 -27.5t16.5 -71.5q-7 -55 -58 -131q-50 -73 -105 -125l-67 11l79 167q-44 21 -36 80z" />
    <glyph glyph-name="quotesinglbase" unicode="&#x201a;" horiz-adv-x="261" 
d="M16 81q6 41 37 69t69 28q43 0 64.5 -27.5t16.5 -71.5q-7 -56 -58 -130q-49 -73 -105 -126l-67 11l79 167q-44 21 -36 80z" />
    <glyph glyph-name="quotedblleft" unicode="&#x201c;" horiz-adv-x="485" 
d="M255 417q-6 -41 -37 -69t-69 -28q-43 0 -64.5 27.5t-16.5 71.5q7 58 57 130q48 71 106 126l67 -11l-79 -167q44 -21 36 -80zM465 417q-6 -41 -37 -69t-69 -28q-43 0 -64.5 27.5t-16.5 71.5q7 58 57 130q48 71 106 126l67 -11l-79 -167q44 -21 36 -80z" />
    <glyph glyph-name="quotedblright" unicode="&#x201d;" horiz-adv-x="485" 
d="M299 571q6 41 37 69t69 28q43 0 64.5 -27.5t16.5 -71.5q-7 -55 -58 -131q-50 -73 -105 -125l-67 11l79 167q-44 21 -36 80zM89 571q6 41 37 69t69 28q43 0 64.5 -27.5t16.5 -71.5q-7 -55 -58 -131q-50 -73 -105 -125l-67 11l79 167q-44 21 -36 80z" />
    <glyph glyph-name="quotedblbase" unicode="&#x201e;" horiz-adv-x="486" 
d="M16 81q6 41 37 69t69 28q43 0 64.5 -27.5t16.5 -71.5q-7 -56 -58 -130q-49 -73 -105 -126l-67 11l79 167q-44 21 -36 80zM236 81q6 41 37 69t69 28q43 0 64.5 -27.5t16.5 -71.5q-7 -56 -58 -130q-49 -73 -105 -126l-67 11l79 167q-44 21 -36 80z" />
    <glyph glyph-name="dagger" unicode="&#x2020;" horiz-adv-x="607" 
d="M560 320h-149l-62 -444h-207l62 444h-139l25 172h138l24 173h207l-24 -173h150z" />
    <glyph glyph-name="daggerdbl" unicode="&#x2021;" horiz-adv-x="607" 
d="M47 191h139l21 145h-139l23 168h138l23 161h207l-23 -161h150l-23 -168h-149l-21 -145h149l-24 -170h-149l-20 -145h-207l20 145h-139z" />
    <glyph glyph-name="bullet" unicode="&#x2022;" horiz-adv-x="498" 
d="M113 247q0 70 49 119t118 49q70 0 119 -49t49 -119q0 -69 -49 -118q-49 -48 -119 -48q-68 0 -118 48q-49 49 -49 118z" />
    <glyph glyph-name="trianglebullet" unicode="&#x2023;" horiz-adv-x="506" 
d="M121 68v408l390 -199z" />
    <glyph glyph-name="ellipsis" unicode="&#x2026;" horiz-adv-x="807" 
d="M145 186q34 0 57 -24.5t23 -61.5q0 -44 -33 -78t-75 -34q-37 0 -61.5 25t-24.5 60q0 44 35 79q35 34 79 34zM397 186q35 0 58 -24.5t23 -61.5q0 -44 -33 -78t-76 -34q-37 0 -61.5 25t-24.5 60q0 44 35 79q35 34 79 34zM650 186q34 0 57 -24.5t23 -61.5q0 -44 -33 -78
t-75 -34q-36 0 -61 25t-25 60q0 44 35 79q35 34 79 34z" />
    <glyph glyph-name="perthousand" unicode="&#x2030;" horiz-adv-x="1244" 
d="M640 687h119l-535 -722h-119zM276 695q74 0 116.5 -40.5t42.5 -104.5q0 -80 -59 -139t-148 -59q-74 0 -116 38.5t-42 104.5q0 83 57 141q59 59 149 59zM259 569q-19 0 -31.5 -17t-12.5 -40q0 -36 31 -36q21 0 34.5 15t13.5 41q0 17 -9.5 27t-25.5 10zM646 328
q74 0 116.5 -40.5t42.5 -104.5q0 -81 -60 -139q-59 -59 -148 -59q-74 0 -115.5 38.5t-41.5 104.5q0 82 57 141q59 59 149 59zM629 202q-19 0 -32 -17.5t-13 -40.5q0 -35 32 -35q19 0 33 15.5t14 39.5q0 17 -9 27.5t-25 10.5zM1044 328q74 0 116 -40t42 -104q0 -79 -59 -140
q-59 -59 -148 -59q-74 0 -115.5 38.5t-41.5 104.5q0 82 57 141q59 59 149 59zM1027 202q-20 0 -32.5 -17.5t-12.5 -40.5q0 -35 32 -35q19 0 33 15.5t14 39.5q0 17 -9 27.5t-25 10.5z" />
    <glyph glyph-name="guilsinglleft" unicode="&#x2039;" horiz-adv-x="330" 
d="M343 418l-157 -201l100 -207h-182l-91 199l1 10l147 199h182z" />
    <glyph glyph-name="guilsinglright" unicode="&#x203a;" horiz-adv-x="330" 
d="M158 10h-182l158 207l-101 201h182l90 -199l-1 -10z" />
    <glyph glyph-name="fraction" unicode="&#x2044;" horiz-adv-x="104" 
d="M281 687h119l-534 -722h-118z" />
    <glyph glyph-name="fraction" unicode="&#x2215;" horiz-adv-x="104" 
d="M281 687h119l-534 -722h-118z" />
    <glyph glyph-name="zerosuperior" unicode="&#x2070;" horiz-adv-x="381" 
d="M269 792q79 0 118.5 -43t39.5 -118q0 -99 -56 -175q-55 -75 -162 -75q-156 0 -156 159q0 64 21 119q22 58 73.5 95.5t121.5 37.5zM253 676q-23 0 -37 -42q-13 -40 -13 -90q0 -46 25 -46q20 0 34 39q15 39 15 92q0 47 -24 47z" />
    <glyph glyph-name="foursuperior" unicode="&#x2074;" horiz-adv-x="381" 
d="M32 477l180 305h133l-133 -220h31l2 12l43 73h109l-12 -85h31l-15 -104h-31l-10 -70h-141l10 70h-200z" />
    <glyph glyph-name="fivesuperior" unicode="&#x2075;" horiz-adv-x="381" 
d="M145 787h263l-14 -105h-158l-5 -18q5 1 24 1q62 0 101 -31t39 -84q0 -66 -57 -116q-55 -49 -146 -49q-81 0 -142 29l18 125q49 -43 113 -43q33 0 53 12.5t20 32.5q0 32 -66 32q-45 0 -84 -11l-15 10z" />
    <glyph glyph-name="sixsuperior" unicode="&#x2076;" horiz-adv-x="381" 
d="M123 663l100 124h168l-113 -131q63 0 96.5 -29t33.5 -81q0 -70 -56 -117q-56 -45 -143 -45q-74 0 -117 32t-43 90q0 38 17.5 73.5t56.5 83.5zM233 558q-14 0 -24.5 -10t-10.5 -22q0 -25 27 -25q16 0 26 8.5t10 23.5q0 10 -8 17.5t-20 7.5z" />
    <glyph glyph-name="sevensuperior" unicode="&#x2077;" horiz-adv-x="381" 
d="M231 678h-144l15 108h338l-3 -23l-231 -375h-155z" />
    <glyph glyph-name="eightsuperior" unicode="&#x2078;" horiz-adv-x="381" 
d="M250 681q-11 0 -19 -8t-8 -20q0 -18 22 -18q12 0 19 7.5t7 18.5q0 20 -21 20zM233 561q-15 0 -26 -10t-11 -25q0 -26 28 -26q15 0 25 10.5t10 25.5q0 25 -26 25zM266 795q66 0 105 -29t39 -78q0 -61 -52 -88q45 -22 45 -74q0 -62 -54 -102q-53 -40 -141 -40
q-77 0 -120 29.5t-43 80.5q0 31 17 61.5t47 45.5q-28 18 -28 57q0 59 56 98q55 39 129 39z" />
    <glyph glyph-name="ninesuperior" unicode="&#x2079;" horiz-adv-x="381" 
d="M265 795q73 0 116.5 -32.5t43.5 -88.5q0 -68 -74 -159l-101 -125h-169l113 133q-62 0 -95 28.5t-33 79.5q0 72 55 118t144 46zM248 678q-15 0 -25.5 -8.5t-10.5 -22.5q0 -11 8 -18.5t20 -7.5q15 0 25.5 10.5t10.5 23.5q0 23 -28 23z" />
    <glyph glyph-name="plussuperior" unicode="&#x207a;" horiz-adv-x="381" 
d="M378 585l-12 -83h-97l-13 -95h-90l13 95h-99l12 83h99l13 94h90l-13 -94h97z" />
    <glyph glyph-name="hyphensuperior" unicode="&#x207b;" horiz-adv-x="235" 
d="M255 576l-12 -89h-187l12 89h187z" />
    <glyph glyph-name="equalsuperior" unicode="&#x207c;" horiz-adv-x="381" 
d="M378 622l-12 -82h-277l12 82h277zM362 507l-12 -81h-277l12 81h277z" />
    <glyph glyph-name="parenleftsuperior" unicode="&#x207d;" horiz-adv-x="213" 
d="M205 827l82 -37q-49 -58 -76 -131t-27 -143q0 -94 38 -168l-90 -41q-71 86 -71 204q0 81 38 166t106 150z" />
    <glyph glyph-name="parenrightsuperior" unicode="&#x207e;" horiz-adv-x="213" 
d="M77 789l92 37q71 -92 71 -216q0 -79 -37 -160t-107 -144l-78 41q46 60 72.5 133.5t26.5 141.5q0 94 -40 167z" />
    <glyph glyph-name="nsuperior" unicode="&#x207f;" horiz-adv-x="392" 
d="M30 300l41 297h123l10 -36q43 46 104 46q52 0 76 -28t16 -81l-27 -198h-154l23 164q2 24 -12 24q-20 0 -26 -36l-21 -152h-153z" />
    <glyph glyph-name="zeroinferior" unicode="&#x2080;" horiz-adv-x="381" 
d="M203 312q79 0 118.5 -43t39.5 -118q0 -99 -56 -175q-55 -75 -162 -75q-79 0 -118 41.5t-39 115.5q0 102 55 178t162 76zM137 67q0 -49 25 -49q21 0 34.5 38.5t13.5 94.5q0 45 -23 45t-37 -41q-13 -39 -13 -88z" />
    <glyph glyph-name="oneinferior" unicode="&#x2081;" horiz-adv-x="381" 
d="M246 -90h-151l31 226l-88 -32l18 127l224 82h22z" />
    <glyph glyph-name="twoinferior" unicode="&#x2082;" horiz-adv-x="381" 
d="M190 320q75 0 112 -29t37 -80q0 -38 -27.5 -90t-85.5 -105h106l-18 -106h-358l1 21q223 145 223 240q0 32 -40 32q-41 0 -126 -38l17 112q70 43 159 43z" />
    <glyph glyph-name="threeinferior" unicode="&#x2083;" horiz-adv-x="381" 
d="M102 91l-12 15l75 92h-139l15 108h331l-3 -21l-106 -129q64 -25 64 -93q0 -67 -56 -114t-146 -47q-80 0 -143 29l18 125q21 -19 55 -31t62 -12q32 0 51 13.5t19 32.5q0 16 -13 26.5t-34 10.5q-18 0 -38 -5z" />
    <glyph glyph-name="fourinferior" unicode="&#x2084;" horiz-adv-x="381" 
d="M-36 -1l180 305h134l-134 -220h31l2 12l43 73h109l-12 -85h32l-15 -104h-32l-9 -70h-141l9 70h-200z" />
    <glyph glyph-name="fiveinferior" unicode="&#x2085;" horiz-adv-x="381" 
d="M81 307h263l-14 -105h-158l-5 -18q5 1 24 1q62 0 101 -31t39 -84q0 -66 -57 -116q-55 -49 -146 -49q-82 0 -142 29l17 125q50 -43 113 -43q33 0 53.5 12.5t20.5 32.5q0 32 -66 32q-48 0 -84 -11l-15 10z" />
    <glyph glyph-name="sixinferior" unicode="&#x2086;" horiz-adv-x="381" 
d="M60 183l100 124h168l-113 -131q63 0 96.5 -28.5t33.5 -79.5q0 -72 -55 -118t-144 -46q-74 0 -117 32t-43 90q0 38 17.5 73.5t56.5 83.5zM170 78q-14 0 -24.5 -10t-10.5 -22q0 -25 27 -25q16 0 26 8.5t10 23.5q0 10 -8 17.5t-20 7.5z" />
    <glyph glyph-name="seveninferior" unicode="&#x2087;" horiz-adv-x="381" 
d="M171 198h-144l15 108h338l-3 -23l-231 -375h-155z" />
    <glyph glyph-name="eightinferior" unicode="&#x2088;" horiz-adv-x="381" 
d="M189 201q-11 0 -18.5 -8t-7.5 -20q0 -18 22 -18q11 0 18.5 7.5t7.5 18.5q0 20 -22 20zM173 81q-15 0 -26 -10t-11 -25q0 -26 28 -26q15 0 25 10.5t10 25.5q0 25 -26 25zM205 315q66 0 105.5 -29.5t39.5 -77.5q0 -60 -52 -88q45 -22 45 -75q0 -61 -55 -101
q-53 -40 -140 -40q-77 0 -120 29.5t-43 80.5q0 31 17 61.5t47 45.5q-28 18 -28 57q0 59 55 98q56 39 129 39z" />
    <glyph glyph-name="nineinferior" unicode="&#x2089;" horiz-adv-x="381" 
d="M200 315q73 0 116.5 -32.5t43.5 -88.5q0 -40 -17 -75.5t-56 -83.5l-101 -125h-169l113 133q-62 0 -95 28.5t-33 79.5q0 71 54 118q55 46 144 46zM184 198q-15 0 -25.5 -8.5t-10.5 -22.5q0 -11 8 -18.5t20 -7.5q15 0 25.5 10t10.5 23q0 24 -28 24z" />
    <glyph glyph-name="plusinferior" unicode="&#x208a;" horiz-adv-x="381" 
d="M312 115l-12 -83h-97l-13 -95h-90l13 95h-99l12 83h99l13 94h90l-13 -94h97z" />
    <glyph glyph-name="hypheninferior" unicode="&#x208b;" horiz-adv-x="235" 
d="M189 106l-12 -89h-187l12 89h187z" />
    <glyph glyph-name="equalinferior" unicode="&#x208c;" horiz-adv-x="381" 
d="M312 152l-12 -82h-277l12 82h277zM296 37l-12 -81h-277l12 81h277z" />
    <glyph glyph-name="parenleftinferior" unicode="&#x208d;" horiz-adv-x="213" 
d="M136 362l81 -37q-49 -58 -75 -132t-26 -146q0 -94 37 -164l-90 -41q-72 86 -72 206q0 79 37 163q38 87 108 151z" />
    <glyph glyph-name="parenrightinferior" unicode="&#x208e;" horiz-adv-x="213" 
d="M5 324l93 37q70 -92 70 -214q0 -81 -36.5 -162t-106.5 -144l-79 41q47 59 73.5 131.5t26.5 141.5q0 95 -41 169z" />
    <glyph glyph-name="Euro" unicode="&#x20ac;" 
d="M480 418l-9 -69h-432l9 69h45q39 124 130 189t226 65q81 0 143 -24l-23 -194q-53 27 -116 27q-95 0 -137 -63h164zM25 250l9 69h432l-9 -69h-170q17 -69 114 -69q63 0 142 36l-27 -197q-78 -29 -169 -29q-130 0 -201 68.5t-74 190.5h-47z" />
    <glyph glyph-name="centigrade" unicode="&#x2103;" horiz-adv-x="825" 
d="M179 678q45 0 75 -30t30 -76q0 -56 -43 -99q-42 -43 -96 -43q-52 0 -81 29t-29 76q0 61 42 101q43 42 102 42zM167 605q-24 0 -42.5 -17.5t-18.5 -41.5q0 -20 12.5 -32.5t34.5 -12.5q23 0 40.5 18t17.5 42q0 19 -12.5 31.5t-31.5 12.5zM779 213l-27 -199
q-85 -29 -187 -29q-150 0 -231 77.5t-81 212.5q0 109 48 198q49 92 146 146t221 54q91 0 160 -24l-28 -195q-58 26 -124 26q-76 0 -131 -46t-55 -138q0 -59 35 -89t96 -30q73 0 158 36z" />
    <glyph glyph-name="fahrenheit" unicode="&#x2109;" horiz-adv-x="813" 
d="M179 678q45 0 75 -30t30 -76q0 -56 -43 -99q-42 -43 -96 -43q-52 0 -81 29t-29 76q0 61 42 101q43 42 102 42zM167 605q-24 0 -42.5 -17.5t-18.5 -41.5q0 -20 12.5 -32.5t34.5 -12.5q23 0 40.5 18t17.5 42q0 19 -12.5 31.5t-31.5 12.5zM489 0h-236l92 659h476l-25 -180
h-240l-11 -80h195l-25 -172h-195z" />
    <glyph glyph-name="afii61289" unicode="&#x2113;" horiz-adv-x="504" 
d="M95 142l-60 92l88 61v184q0 116 46 173t128 57q64 0 103.5 -36t39.5 -105q0 -145 -187 -323v-43q0 -83 53 -83q20 0 47.5 26t56.5 76l100 -64q-88 -166 -206 -166q-76 0 -124.5 46.5t-54.5 122.5q-14 -10 -30 -18zM314 566q0 25 -21 25q-39 0 -40 -165q61 85 61 140z" />
    <glyph glyph-name="afii61352" unicode="&#x2116;" horiz-adv-x="1050" 
d="M1007 329l-17 -119h-333l17 119h333zM249 0h-236l95 679h24l262 -268h4l35 248h237l-95 -679h-21l-265 283h-4zM893 678q76 0 118 -36.5t42 -97.5q0 -79 -57 -130q-56 -50 -147 -50q-76 0 -119 35.5t-43 96.5q0 76 57 129q59 53 149 53zM877 559q-16 0 -26.5 -14.5
t-10.5 -33.5q0 -29 26 -29q17 0 28.5 13.5t11.5 34.5q0 29 -29 29z" />
    <glyph glyph-name="published" unicode="&#x2117;" horiz-adv-x="888" 
d="M692 402q0 -58 -44 -102q-43 -43 -121 -43h-40v-134h-156l2 426h185q82 0 128 -42t46 -105zM538 398q0 18 -10.5 30t-27.5 12h-13v-83h12q18 0 28.5 12t10.5 29zM475 -48q-175 0 -280 110q-105 111 -105 285q0 171 112 280q112 111 273 111q160 0 271 -111
q112 -109 112 -280t-112 -283q-111 -112 -271 -112zM475 641q-120 0 -200 -86t-80 -208q0 -127 77 -213q76 -85 203 -85q123 0 200 86q76 85 76 212q0 122 -77 208t-199 86z" />
    <glyph glyph-name="trademark" unicode="&#x2122;" horiz-adv-x="863" 
d="M436 685l191 -175l190 175h12v-384h-134v130h-2l-58 -64h-15l-62 62h-2v-128h-133v384h13zM389 682v-92h-96v-288h-129v288h-94v92h319z" />
    <glyph glyph-name="Ohm" unicode="&#x2126;" horiz-adv-x="788" 
d="M757 180l-25 -180h-334l3 27q48 48 86 145q38 99 38 178q0 127 -99 127q-75 0 -113 -74q-36 -73 -36 -178q0 -128 41 -198l-3 -27h-334l25 180h73l3 4q-23 64 -23 130q0 154 109 257q110 104 286 104q148 0 228 -75q80 -74 80 -196q0 -57 -18 -106t-59 -114l2 -4h70z" />
    <glyph glyph-name="angstrom" unicode="&#x212b;" horiz-adv-x="694" 
d="M440 913q56 0 91 -35t35 -89q0 -56 -36.5 -99.5t-91.5 -56.5l216 -633h-232l-15 62h-179l-34 -62h-224l399 632q-42 9 -67 40.5t-25 75.5q0 66 49 115q50 50 114 50zM426 815q-18 0 -32.5 -16t-14.5 -38q0 -15 10 -25.5t25 -10.5q21 0 34.5 15t13.5 36q0 17 -10 28
t-26 11zM353 287h-4l-57 -101h88z" />
    <glyph glyph-name="estimated" unicode="&#x212e;" horiz-adv-x="817" 
d="M778 309h-553v-164q32 -50 89 -81q59 -32 120 -32q60 0 117 28.5t97 77.5h73q-61 -70 -136 -109.5t-152 -39.5q-141 0 -244 101q-102 101 -102 239q0 136 101 234q101 97 245 97t245 -101q100 -100 100 -250zM225 349h414v165q-29 46 -87 75q-60 29 -118 29
q-51 0 -107 -29.5t-102 -80.5v-159z" />
    <glyph glyph-name="onethird" unicode="&#x2153;" horiz-adv-x="873" 
d="M575 181l-12 15l75 92h-139l15 108h331l-3 -21l-106 -129q64 -25 64 -93q0 -67 -56 -114t-146 -47q-80 0 -143 29l18 125q21 -19 55 -31t62 -12q32 0 51 13.5t19 32.5q0 16 -13 26.5t-34 10.5q-18 0 -38 -5zM581 687h119l-534 -722h-118zM259 301h-151l32 226l-89 -32
l18 127l224 82h22z" />
    <glyph glyph-name="twothirds" unicode="&#x2154;" horiz-adv-x="873" 
d="M630 181l-12 15l75 92h-139l15 108h331l-3 -21l-106 -129q64 -25 64 -93q0 -67 -56 -114t-146 -47q-80 0 -143 29l18 125q21 -19 55 -31t62 -12q32 0 51 13.5t19 32.5q0 16 -13 26.5t-34 10.5q-18 0 -38 -5zM199 708q75 0 112 -29t37 -80q0 -38 -27.5 -90t-85.5 -105h106
l-18 -106h-358l1 21q223 145 223 240q0 32 -40 32q-41 0 -126 -38l17 112q70 43 159 43zM634 687h119l-534 -722h-118z" />
    <glyph glyph-name="onefifth" unicode="&#x2155;" horiz-adv-x="873" 
d="M535 397h263l-14 -105h-158l-5 -18q5 1 24 1q62 0 101 -31t39 -84q0 -66 -57 -116q-55 -49 -146 -49q-82 0 -142 29l17 125q50 -43 113 -43q33 0 53.5 12.5t20.5 32.5q0 32 -66 32q-48 0 -84 -11l-15 10zM572 687h119l-534 -722h-118zM245 301h-151l32 226l-89 -32
l18 127l224 82h22z" />
    <glyph glyph-name="twofifths" unicode="&#x2156;" horiz-adv-x="873" 
d="M595 397h263l-14 -105h-158l-5 -18q5 1 24 1q62 0 101 -31t39 -84q0 -66 -57 -116q-55 -49 -146 -49q-82 0 -142 29l17 125q50 -43 113 -43q33 0 53.5 12.5t20.5 32.5q0 32 -66 32q-48 0 -84 -11l-15 10zM214 708q75 0 112 -29t37 -80q0 -38 -27.5 -90t-85.5 -105h106
l-18 -106h-358l1 21q223 145 223 240q0 32 -40 32q-41 0 -126 -38l17 112q70 43 159 43zM659 687h119l-534 -722h-118z" />
    <glyph glyph-name="threefifths" unicode="&#x2157;" horiz-adv-x="873" 
d="M569 397h263l-14 -105h-158l-5 -18q5 1 24 1q62 0 101 -31t39 -84q0 -66 -57 -116q-55 -49 -146 -49q-82 0 -142 29l17 125q50 -43 113 -43q33 0 53.5 12.5t20.5 32.5q0 32 -66 32q-48 0 -84 -11l-15 10zM136 481l-12 15l75 92h-139l15 108h331l-3 -21l-106 -129
q64 -25 64 -93q0 -67 -56 -114t-145 -47q-82 0 -143 29l17 125q21 -19 55 -31t62 -12q32 0 51 13.5t19 32.5q0 16 -13 26.5t-34 10.5q-16 0 -38 -5zM623 687h119l-534 -722h-118z" />
    <glyph glyph-name="fourfifths" unicode="&#x2158;" horiz-adv-x="873" 
d="M577 397h263l-14 -105h-158l-5 -18q5 1 24 1q62 0 101 -31t39 -84q0 -66 -57 -116q-55 -49 -146 -49q-82 0 -142 29l17 125q50 -43 113 -43q33 0 53.5 12.5t20.5 32.5q0 32 -66 32q-48 0 -84 -11l-15 10zM-8 387l180 305h133l-133 -220h31l2 12l43 73h109l-12 -85h31
l-15 -104h-31l-10 -70h-141l10 70h-200zM642 687h119l-534 -722h-118z" />
    <glyph glyph-name="onesixth" unicode="&#x2159;" horiz-adv-x="873" 
d="M510 273l100 124h168l-113 -131q63 0 96.5 -28.5t33.5 -79.5q0 -72 -55 -118t-144 -46q-74 0 -117 32t-43 90q0 38 17.5 73.5t56.5 83.5zM620 168q-14 0 -24.5 -10t-10.5 -22q0 -25 27 -25q16 0 26 8.5t10 23.5q0 10 -8 17.5t-20 7.5zM614 687h119l-534 -722h-118z
M289 301h-151l32 226l-89 -32l18 127l224 82h22z" />
    <glyph glyph-name="fivesixths" unicode="&#x215a;" horiz-adv-x="873" 
d="M124 697h263l-14 -105h-158l-5 -18q5 1 24 1q62 0 101 -31t39 -84q0 -66 -57 -116q-55 -49 -146 -49q-81 0 -142 29l18 125q49 -43 113 -43q33 0 53 12.5t20 32.5q0 32 -66 32q-45 0 -84 -11l-15 10zM498 273l100 124h168l-113 -131q63 0 96.5 -28.5t33.5 -79.5
q0 -72 -55 -118t-144 -46q-74 0 -117 32t-43 90q0 38 17.5 73.5t56.5 83.5zM608 168q-14 0 -24.5 -10t-10.5 -22q0 -25 27 -25q16 0 26 8.5t10 23.5q0 10 -8 17.5t-20 7.5zM623 687h119l-534 -722h-118z" />
    <glyph glyph-name="oneeighth" unicode="&#x215b;" horiz-adv-x="873" 
d="M621 291q-11 0 -18.5 -8t-7.5 -20q0 -18 22 -18q11 0 18.5 7.5t7.5 18.5q0 20 -22 20zM605 171q-15 0 -26 -10t-11 -25q0 -26 28 -26q15 0 25 10.5t10 25.5q0 25 -26 25zM637 405q66 0 105.5 -29.5t39.5 -77.5q0 -60 -52 -88q45 -22 45 -75q0 -61 -55 -101
q-53 -40 -140 -40q-77 0 -120 29.5t-43 80.5q0 31 17 61.5t47 45.5q-28 18 -28 57q0 59 55 98q56 39 129 39zM573 687h119l-534 -722h-118zM247 301h-151l32 226l-89 -32l18 127l224 82h22z" />
    <glyph glyph-name="threeeighths" unicode="&#x215c;" horiz-adv-x="873" 
d="M638 291q-11 0 -18.5 -8t-7.5 -20q0 -18 22 -18q11 0 18.5 7.5t7.5 18.5q0 20 -22 20zM622 171q-15 0 -26 -10t-11 -25q0 -26 28 -26q15 0 25 10.5t10 25.5q0 25 -26 25zM654 405q66 0 105.5 -29.5t39.5 -77.5q0 -60 -52 -88q45 -22 45 -75q0 -61 -55 -101
q-53 -40 -140 -40q-77 0 -120 29.5t-43 80.5q0 31 17 61.5t47 45.5q-28 18 -28 57q0 59 55 98t129 39zM132 481l-12 15l75 92h-139l15 108h331l-3 -21l-106 -129q64 -25 64 -93q0 -67 -56 -114t-145 -47q-82 0 -143 29l17 125q21 -19 55 -31t62 -12q32 0 51 13.5t19 32.5
q0 16 -13 26.5t-34 10.5q-16 0 -38 -5zM602 687h119l-534 -722h-118z" />
    <glyph glyph-name="fiveeighths" unicode="&#x215d;" horiz-adv-x="873" 
d="M648 291q-11 0 -18.5 -8t-7.5 -20q0 -18 22 -18q11 0 18.5 7.5t7.5 18.5q0 20 -22 20zM632 171q-15 0 -26 -10t-11 -25q0 -26 28 -26q15 0 25 10.5t10 25.5q0 25 -26 25zM664 405q66 0 105.5 -29.5t39.5 -77.5q0 -60 -52 -88q45 -22 45 -75q0 -61 -55 -101
q-53 -40 -140 -40q-77 0 -120 29.5t-43 80.5q0 31 17 61.5t47 45.5q-28 18 -28 57q0 59 55 98t129 39zM110 697h263l-14 -105h-158l-5 -18q5 1 24 1q62 0 101 -31t39 -84q0 -66 -57 -116q-55 -49 -146 -49q-81 0 -142 29l18 125q49 -43 113 -43q33 0 53 12.5t20 32.5
q0 32 -66 32q-45 0 -84 -11l-15 10zM610 687h119l-534 -722h-118z" />
    <glyph glyph-name="seveneighths" unicode="&#x215e;" horiz-adv-x="873" 
d="M620 291q-11 0 -18.5 -8t-7.5 -20q0 -18 22 -18q11 0 18.5 7.5t7.5 18.5q0 20 -22 20zM604 171q-15 0 -26 -10t-11 -25q0 -26 28 -26q15 0 25 10.5t10 25.5q0 25 -26 25zM636 405q66 0 105.5 -29.5t39.5 -77.5q0 -60 -52 -88q45 -22 45 -75q0 -61 -55 -101
q-53 -40 -140 -40q-77 0 -120 29.5t-43 80.5q0 31 17 61.5t47 45.5q-28 18 -28 57q0 59 55 98t129 39zM220 588h-144l15 108h338l-3 -23l-231 -375h-155zM570 687h119l-534 -722h-118z" />
    <glyph glyph-name="uni215F" unicode="&#x215f;" horiz-adv-x="459" 
d="M576 687h119l-534 -722h-118zM258 301h-151l32 226l-89 -32l18 127l224 82h22z" />
    <glyph glyph-name="partialdiff" unicode="&#x2202;" horiz-adv-x="698" 
d="M299 -12q-90 0 -144 52t-54 144q0 125 77 205q78 81 182 81q55 0 86 -16v14q0 57 -35 89.5t-92 32.5q-35 0 -72 -12l35 136q46 8 92 8q119 0 178.5 -71.5t59.5 -203.5q0 -214 -94 -336q-94 -123 -219 -123zM318 127q43 0 75 50t43 117q-38 44 -89 44q-39 0 -64 -43
q-24 -43 -24 -91q0 -77 59 -77z" />
    <glyph glyph-name="gradient" unicode="&#x2207;" horiz-adv-x="707" 
d="M306 -20l-239 679h684l-421 -679h-24zM437 479h-116l39 -148h3z" />
    <glyph glyph-name="product" unicode="&#x220f;" horiz-adv-x="700" 
d="M599 -126h-237l85 605h-131l-85 -605h-236l110 785h604z" />
    <glyph glyph-name="summation" unicode="&#x2211;" horiz-adv-x="616" 
d="M74 659h572l-25 -180h-220l50 -206l-116 -216h244l-26 -181h-595l4 22l226 375l-117 367z" />
    <glyph glyph-name="minus" unicode="&#x2212;" 
d="M519 346l-16 -118h-426l16 118h426z" />
    <glyph glyph-name="radical" unicode="&#x221a;" 
d="M230 414l48 -140h5l200 458h147l-372 -789h-25l-107 294l-67 -24l-25 121z" />
    <glyph glyph-name="infinity" unicode="&#x221e;" horiz-adv-x="761" 
d="M240 433q79 0 156 -74q82 74 179 74q74 0 119.5 -42.5t45.5 -111.5q0 -83 -64 -147q-64 -63 -159 -63q-75 0 -150 79q-45 -41 -86.5 -60t-94.5 -19q-73 0 -118 42.5t-45 111.5q0 83 62 147q62 63 155 63zM226 305q-20 0 -35 -19.5t-15 -44.5q0 -19 9 -32t24 -13
q33 0 85 54q-36 55 -68 55zM553 305q-29 0 -84 -54q24 -29 37.5 -40.5t30.5 -14.5q19 0 34.5 20t15.5 45q0 19 -10 31.5t-24 12.5z" />
    <glyph glyph-name="logicaland" unicode="&#x2227;" 
d="M284 200l-129 -200h-178l330 474h31l201 -474h-180z" />
    <glyph glyph-name="logicalor" unicode="&#x2228;" 
d="M241 0l-198 474h178l73 -200l131 200h180l-333 -474h-31z" />
    <glyph glyph-name="intersection" unicode="&#x2229;" 
d="M301 327q-51 0 -81 -32q-30 -33 -34 -66l-32 -229h-163l32 232q15 106 100 176q85 72 200 72q126 0 187.5 -73.5t43.5 -200.5l-28 -206h-164l32 229q6 41 -17 69.5t-76 28.5z" />
    <glyph glyph-name="union" unicode="&#x222a;" 
d="M290 146q53 0 83 28.5t37 69.5l32 229h164l-29 -206q-17 -127 -99 -200q-83 -74 -209 -74q-115 0 -180 71q-65 72 -51 177l33 232h163l-32 -229q-6 -35 15 -67q22 -31 73 -31z" />
    <glyph glyph-name="integral" unicode="&#x222b;" horiz-adv-x="402" 
d="M111 26q10 97 18 256q7 150 20 264q11 91 64 143.5t138 52.5q51 0 107 -14l-4 -136q-53 11 -82 11q-35 0 -50 -16t-18 -59l-13 -161l-6 -133q-1 -70 -16 -217q-10 -89 -62 -142.5t-134 -53.5q-54 0 -114 18l2 147q59 -22 89 -22q53 0 61 62z" />
    <glyph glyph-name="approxequal" unicode="&#x2248;" 
d="M383 308q-34 0 -88 20t-74 20q-18 0 -30.5 -11t-28.5 -41l-74 72q28 56 60 77.5t75 21.5q24 0 75 -20q52 -20 74 -20q49 0 79 65l67 -75q-46 -109 -135 -109zM383 118q-34 0 -88 20t-74 20q-18 0 -30.5 -11t-28.5 -41l-74 72q28 56 60 77.5t75 21.5q24 0 75 -20
q52 -20 74 -20q49 0 79 65l67 -75q-46 -109 -135 -109z" />
    <glyph glyph-name="notequal" unicode="&#x2260;" 
d="M503 259l-17 -118h-268l-66 -76h-95l69 76h-59l17 118h148l52 60h-192l17 118h283l66 75h92l-70 -75h48l-17 -118h-135l-53 -60h180z" />
    <glyph glyph-name="lessequal" unicode="&#x2264;" 
d="M521 393l-167 -59v-5l148 -68l-18 -132l-387 192l3 21l439 183zM481 109l-15 -109h-416l15 109h416z" />
    <glyph glyph-name="greaterequal" unicode="&#x2265;" 
d="M86 261l167 68v5l-148 59l18 132l389 -183l-3 -21l-441 -192zM481 109l-15 -109h-416l15 109h416z" />
    <glyph glyph-name="lozenge" unicode="&#x25ca;" horiz-adv-x="550" 
d="M288 -1l-231 331l231 332h32l232 -332l-232 -331h-32zM414 330l-110 164l-111 -164l111 -172z" />
    <glyph glyph-name="zero.text" unicode="&#xe000;" 
d="M354 673q124 0 179 -73q57 -72 57 -188q0 -62 -12.5 -122t-39.5 -115t-65.5 -96.5t-94.5 -66t-122 -24.5q-119 0 -177.5 67.5t-58.5 189.5q0 165 78 290q40 64 106.5 101t149.5 37zM282 162q40 0 67 75q28 74 28 175q0 88 -47 88q-46 0 -72 -80q-25 -78 -25 -169
q0 -89 49 -89z" />
    <glyph glyph-name="one.text" unicode="&#xe001;" horiz-adv-x="482" 
d="M363 0h-220l55 397l-157 -58l27 191l367 144h22z" />
    <glyph glyph-name="two.text" unicode="&#xe002;" 
d="M308 675q108 0 163.5 -47t55.5 -128q0 -54 -31 -131q-39 -97 -159 -211h177l-22 -158h-530l2 21q340 247 340 413q0 63 -69 63q-65 0 -182 -56l24 167q98 67 231 67z" />
    <glyph glyph-name="three.text" unicode="&#xe003;" horiz-adv-x="571" 
d="M151 339l129 162l-1 3h-209l22 155h497l-3 -23l-182 -227q54 -20 82.5 -61.5t28.5 -96.5q0 -109 -88 -185q-86 -76 -222 -76q-120 0 -209 46l25 179q26 -27 71.5 -43.5t92.5 -16.5q60 0 96 27.5t36 72.5q0 35 -26.5 53t-70.5 18q-26 0 -55 -7z" />
    <glyph glyph-name="four.text" unicode="&#xe004;" 
d="M-37 142l294 517h221l-229 -381h55l4 31l67 117h158l-20 -148h47l-22 -155h-47l-17 -123h-208l17 123h-322z" />
    <glyph glyph-name="five.text" unicode="&#xe005;" 
d="M162 660h390l-22 -155h-245l-18 -62q21 4 54 4q91 0 149 -48q60 -47 60 -135q0 -113 -87 -194q-88 -80 -225 -80q-120 0 -209 46l25 179q27 -27 72.5 -43.5t92.5 -16.5q60 0 96 27.5t36 72.5q0 69 -103 69q-69 0 -141 -25l-18 15z" />
    <glyph glyph-name="six.text" unicode="&#xe006;" 
d="M138 451l156 208h228l-177 -224v-6q3 0 12 0.5t11 0.5q92 0 142 -46.5t50 -126.5q0 -118 -85 -193q-85 -74 -217 -74q-110 0 -174.5 51t-64.5 143q0 66 29 126q30 60 90 141zM301 292q-30 0 -51.5 -24t-21.5 -53q0 -25 14 -39.5t40 -14.5q31 0 52 21.5t21 54.5
q0 24 -15 39.5t-39 15.5z" />
    <glyph glyph-name="seven.text" unicode="&#xe007;" horiz-adv-x="518" 
d="M286 503h-230l22 156h508l-3 -21l-365 -638h-218z" />
    <glyph glyph-name="eight.text" unicode="&#xe008;" 
d="M334 506q-24 0 -42 -18t-18 -44q0 -20 12.5 -31.5t33.5 -11.5q25 0 41.5 18t16.5 44q0 20 -12 31.5t-32 11.5zM303 294q-31 0 -52 -23.5t-21 -56.5q0 -24 15 -39.5t39 -15.5q31 0 51.5 23.5t20.5 55.5q0 25 -13.5 40.5t-39.5 15.5zM356 673q98 0 156 -46t58 -122
q0 -43 -20.5 -85t-57.5 -67l-2 -5q66 -39 66 -122q0 -104 -82 -170t-214 -66q-116 0 -180 47.5t-64 129.5q0 55 28 104t77 75l2 4q-44 35 -44 98q0 98 82 161q82 64 195 64z" />
    <glyph glyph-name="nine.text" unicode="&#xe009;" 
d="M347 673q107 0 173 -51q66 -50 66 -143q0 -68 -30 -128q-29 -59 -89 -139l-158 -212h-228l180 228l-1 6q-5 -1 -23 -1q-92 0 -142 46.5t-50 126.5q0 117 84 192q85 75 218 75zM323 502q-31 0 -52 -21.5t-21 -54.5q0 -24 15.5 -39.5t39.5 -15.5q30 0 51 24t21 53
q0 25 -14 39.5t-40 14.5z" />
    <glyph glyph-name="numbersign.text" unicode="&#xe00a;" 
d="M155 -1h-115l70 200h-70l15 100h92l23 68h-78l14 97h99l58 163h113l-58 -163h59l58 163h111l-57 -163h89l-14 -97h-108l-25 -68h92l-15 -100h-111l-71 -200h-113l70 200h-60zM343 367h-60l-23 -68h60z" />
    <glyph glyph-name="dollar.text" unicode="&#xe00b;" 
d="M290 -116h-108l17 116q-106 11 -175 52l26 188q31 -29 104 -56q74 -27 120 -27q51 0 51 39q0 29 -84 72q-157 77 -155 190q0 76 52 130.5t153 69.5l18 125h108l-18 -124q79 -9 148 -39l-24 -166q-38 26 -90.5 42t-95.5 16q-25 0 -40 -11t-15 -28q0 -16 22.5 -34t67.5 -45
q167 -87 166 -204q0 -73 -56.5 -129t-174.5 -60z" />
    <glyph glyph-name="euro.text" unicode="&#xe00c;" 
d="M477 418l-9 -69h-432l9 69h45q39 124 130 189t226 65q82 0 143 -24l-23 -194q-53 27 -116 27q-95 0 -137 -63h164zM22 250l9 69h432l-9 -69h-170q16 -69 114 -69q62 0 142 36l-27 -197q-78 -29 -169 -29q-130 0 -201 68.5t-74 190.5h-47z" />
    <glyph glyph-name="florin.text" unicode="&#xe00d;" horiz-adv-x="545" 
d="M145 267h-76l10 139h89l7 51q15 112 72 166.5t147 54.5q66 0 132 -20l-12 -175q-30 12 -60 12q-61 0 -67 -54l-4 -35h109l-10 -139h-120l-20 -130q-20 -128 -79 -188.5t-162 -60.5q-56 0 -128 25l13 176q39 -13 67 -13q33 0 50 24.5t27 82.5z" />
    <glyph glyph-name="sterling.text" unicode="&#xe00e;" 
d="M576 633l-24 -177q-78 38 -129 38q-69 0 -79 -64l-5 -31h115l-18 -123h-122q-17 -84 -39 -118h251l-22 -158h-514l2 18q82 108 111 258h-48l18 123h53l8 40q24 111 95 172.5t173 61.5q95 0 174 -40z" />
    <glyph glyph-name="cent.text" unicode="&#xe00f;" horiz-adv-x="501" 
d="M300 2h-108l16 116q-72 14 -112.5 66t-40.5 128q0 107 60 178q63 72 158 91l17 115h108l-16 -109q45 -5 82 -19l-24 -167q-40 20 -90 20q-41 0 -66 -22.5t-25 -62.5q0 -58 67 -58q57 0 114 28l-23 -161q-44 -21 -101 -28z" />
    <glyph glyph-name="yen.text" unicode="&#xe010;" 
d="M37 139l9 67h498l-9 -67h-136l-19 -139h-235l19 139h-127zM559 308l-10 -69h-498l10 69h105l-97 351h240l13 -248h4l72 248h248l-200 -351h113z" />
    <glyph glyph-name="zero.taboldstyle" unicode="&#xe024;" 
d="M324 466q115 0 178.5 -54.5t63.5 -146.5q0 -119 -87 -197q-85 -78 -222 -78q-113 0 -178 54.5t-65 145.5q0 116 87 196q88 80 223 80zM302 297q-32 0 -51 -24t-19 -58q0 -56 51 -56q33 0 54.5 23.5t21.5 60.5q0 25 -15 39.5t-42 14.5z" />
    <glyph glyph-name="one.taboldstyle" unicode="&#xe025;" 
d="M502 0h-438l22 158h110l13 94l-111 -19l23 165l316 74h23l-44 -314h108z" />
    <glyph glyph-name="two.taboldstyle" unicode="&#xe026;" 
d="M410 159l1 -2h110l-22 -157h-529l3 23q78 35 141 69q60 33 114 82q52 48 52 89q0 30 -55 30q-41 0 -92 -13q-56 -14 -82 -28l22 157q108 63 226 63q204 0 204 -139q0 -95 -93 -174z" />
    <glyph glyph-name="three.taboldstyle" unicode="&#xe027;" 
d="M248 289h-185l22 159h463l-3 -22l-164 -209q99 -41 99 -147q0 -103 -82 -173q-82 -71 -207 -71q-111 0 -196 43l24 173q26 -27 68.5 -43t85.5 -16q47 0 78 27.5t31 64.5q0 27 -20.5 43.5t-56.5 16.5q-29 0 -50 -6l-16 21z" />
    <glyph glyph-name="four.taboldstyle" unicode="&#xe028;" 
d="M283 175l69 93h146l-17 -119h46l-21 -150h-46l-23 -167h-201l23 167h-311l3 18l282 430h207l-214 -298h53z" />
    <glyph glyph-name="five.taboldstyle" unicode="&#xe029;" 
d="M143 448h374l-22 -159h-233l-11 -36q23 3 46 3q87 0 142 -45q57 -45 57 -128q0 -105 -83 -182q-82 -76 -212 -76q-113 0 -202 43l25 180q29 -29 73 -45.5t87 -16.5q50 0 81 24t31 58q0 28 -23 46.5t-64 18.5q-58 0 -132 -25l-18 13z" />
    <glyph glyph-name="six.taboldstyle" unicode="&#xe02a;" 
d="M136 413l148 191h224l-170 -206l1 -5q2 0 10 0.5t11 0.5q89 0 138 -43.5t49 -117.5q0 -106 -83 -175q-83 -68 -211 -68q-105 0 -168 47.5t-63 132.5q0 63 28 115q32 58 86 128zM295 268q-28 0 -47.5 -22.5t-19.5 -48.5q0 -23 13 -36.5t37 -13.5q30 0 50.5 19t20.5 49
q0 22 -15 37.5t-39 15.5z" />
    <glyph glyph-name="seven.taboldstyle" unicode="&#xe02b;" 
d="M568 425l-333 -593h-218l255 457h-224l22 157h501z" />
    <glyph glyph-name="eight.taboldstyle" unicode="&#xe02c;" 
d="M327 462q-21 0 -37.5 -16t-16.5 -38q0 -17 12 -27.5t31 -10.5q22 0 37 15.5t15 37.5q0 17 -11.5 28t-29.5 11zM299 268q-28 0 -48 -21t-20 -49q0 -22 14 -36.5t37 -14.5q28 0 47 21.5t19 48.5q0 22 -13 36.5t-36 14.5zM348 618q96 0 152 -42.5t56 -114.5q0 -38 -19.5 -76
t-56.5 -61l-2 -5q64 -34 64 -114q0 -95 -78 -155t-204 -60q-113 0 -174 43.5t-61 119.5q0 52 26 96.5t73 67.5l2 4q-42 31 -42 94q0 88 79 145q79 58 185 58z" />
    <glyph glyph-name="nine.taboldstyle" unicode="&#xe02d;" 
d="M441 40l-157 -208h-224l178 223v5q-5 -1 -21 -1q-89 0 -138 43.5t-49 117.5q0 108 82 175q83 68 212 68q105 0 167 -47t62 -133q0 -43 -17 -89t-36 -73q-27 -40 -59 -81zM282 185q28 0 47.5 22t19.5 49q0 22 -13.5 36t-36.5 14q-30 0 -51 -19.5t-21 -49.5q0 -22 15.5 -37
t39.5 -15z" />
    <glyph glyph-name="numbersign.taboldstyle" unicode="&#xe02e;" 
d="M126 156h-58l15 101h79l19 54h-66l14 101h87l44 124h109l-44 -124h46l44 124h106l-44 -124h74l-14 -101h-94l-19 -54h78l-14 -101h-99l-53 -156h-109l54 156h-46l-53 -156h-110zM336 311h-46l-18 -54h45z" />
    <glyph glyph-name="dollar.taboldstyle" unicode="&#xe02f;" 
d="M297 -119h-104l15 115q-99 9 -159 42l23 168q25 -25 86 -45q62 -20 103 -20q56 0 56 28q0 16 -22.5 30t-54.5 28t-63.5 31.5t-54 48.5t-22.5 71q0 58 47 113q47 54 141 69l16 115h104l-16 -113q84 -8 147 -34l-22 -152q-22 16 -70 30q-47 15 -84 15q-48 0 -53 -23
q0 -15 34 -31q26 -12 74 -32q39 -14 74 -54q34 -37 34 -92q0 -19 -5 -40t-20 -47t-38 -47.5t-62 -38t-89 -21.5z" />
    <glyph glyph-name="euro.taboldstyle" unicode="&#xe030;" 
d="M457 345l-8 -58h-409l8 58h42q35 103 118 158t205 55q76 0 147 -20l-23 -162q-51 22 -107 22q-83 0 -124 -53h151zM28 203l8 58h409l-8 -58h-158q19 -58 108 -58q63 0 133 30l-23 -166q-78 -24 -161 -24q-122 0 -192 58t-76 160h-40z" />
    <glyph glyph-name="florin.taboldstyle" unicode="&#xe031;" 
d="M186 217h-75l10 120h87l7 44q30 192 215 192q67 0 130 -17l-12 -152q-29 10 -59 10q-61 0 -65 -46l-4 -31h107l-10 -120h-118l-20 -113q-19 -111 -76.5 -163.5t-159.5 -52.5q-56 0 -126 22l13 152q44 -11 66 -11q32 0 48.5 21t26.5 72z" />
    <glyph glyph-name="sterling.taboldstyle" unicode="&#xe032;" 
d="M548 526l-20 -147q-75 32 -125 32q-65 0 -75 -54l-5 -25h112l-14 -103h-117q-12 -47 -22 -71h231l-22 -158h-496l2 15q41 48 64.5 96.5t37.5 117.5h-46l14 103h51l8 33q48 195 254 195q90 0 168 -34z" />
    <glyph glyph-name="cent.taboldstyle" unicode="&#xe033;" 
d="M324 -41h-106l14 105q-72 12 -111.5 57t-39.5 112q0 94 59 161q58 65 151 85l15 109h106l-14 -104q46 -5 77 -17l-21 -149q-36 18 -87 18q-40 0 -64 -20t-24 -55q0 -53 66 -53q57 0 111 25l-20 -144q-39 -19 -98 -26z" />
    <glyph glyph-name="yen.taboldstyle" unicode="&#xe034;" 
d="M34 116l8 56h480l-8 -56h-130l-16 -116h-227l16 116h-123zM534 257l-9 -58h-480l9 58h102l-99 292h234l17 -207h4l66 207h233l-186 -292h109z" />
    <glyph glyph-name="zero.textoldstyle" unicode="&#xe048;" 
d="M324 464q113 0 177 -55t64 -146q0 -119 -86 -196t-222 -77q-113 0 -178 54.5t-65 145.5q0 117 87 195q86 79 223 79zM302 295q-32 0 -51.5 -25t-19.5 -59q0 -52 52 -52q33 0 54.5 23t21.5 59q0 25 -15 39.5t-42 14.5z" />
    <glyph glyph-name="one.textoldstyle" unicode="&#xe049;" horiz-adv-x="528" 
d="M454 0h-439l22 158h110l13 93l-112 -24l24 171l318 84h22l-45 -324h109z" />
    <glyph glyph-name="two.textoldstyle" unicode="&#xe04a;" 
d="M400 159l1 -2h110l-22 -157h-529l3 23q78 35 141 69q60 33 114 82q52 48 52 89q0 30 -55 30q-41 0 -92 -13q-56 -14 -82 -28l22 157q108 63 226 63q204 0 204 -139q0 -95 -93 -174z" />
    <glyph glyph-name="three.textoldstyle" unicode="&#xe04b;" horiz-adv-x="533" 
d="M233 289h-185l22 159h462l-3 -22l-163 -209q48 -20 73.5 -59t25.5 -89q0 -102 -82 -172q-82 -71 -207 -71q-111 0 -196 43l24 173q26 -27 68.5 -43t85.5 -16q47 0 78 27.5t31 64.5q0 27 -20.5 43.5t-56.5 16.5q-28 0 -51 -6l-15 21z" />
    <glyph glyph-name="four.textoldstyle" unicode="&#xe04c;" 
d="M283 175l68 93h147l-17 -119h45l-21 -150h-45l-23 -167h-201l23 167h-311l3 18l282 430h206l-213 -298h53z" />
    <glyph glyph-name="five.textoldstyle" unicode="&#xe04d;" horiz-adv-x="545" 
d="M124 448h373l-22 -159h-232l-11 -36q22 3 46 3q86 0 142 -45q57 -45 57 -128q0 -105 -83 -182q-82 -76 -212 -76q-115 0 -202 43l25 180q29 -29 72.5 -45.5t87.5 -16.5q50 0 81 24t31 58q0 28 -23 46.5t-64 18.5q-58 0 -132 -25l-18 13z" />
    <glyph glyph-name="six.textoldstyle" unicode="&#xe04e;" 
d="M136 413l148 191h224l-170 -206l1 -5q2 0 10 0.5t11 0.5q89 0 138 -43.5t49 -117.5q0 -106 -83 -175q-83 -68 -211 -68q-105 0 -168 47.5t-63 132.5q0 63 28 115q32 58 86 128zM295 268q-28 0 -47.5 -22.5t-19.5 -48.5q0 -23 13 -36.5t37 -13.5q30 0 50.5 19t20.5 49
q0 22 -15 37.5t-39 15.5z" />
    <glyph glyph-name="seven.textoldstyle" unicode="&#xe04f;" horiz-adv-x="522" 
d="M538 425l-330 -593h-219l253 458h-221l22 156h498z" />
    <glyph glyph-name="eight.textoldstyle" unicode="&#xe050;" 
d="M327 462q-21 0 -37.5 -16t-16.5 -38q0 -17 12 -27.5t31 -10.5q22 0 37 15.5t15 37.5q0 17 -11.5 28t-29.5 11zM299 268q-28 0 -48 -21t-20 -49q0 -22 14 -36.5t37 -14.5q29 0 47.5 21t18.5 49q0 22 -13 36.5t-36 14.5zM348 618q96 0 152 -42.5t56 -114.5q0 -38 -19.5 -76
t-56.5 -61l-2 -5q64 -34 64 -114q0 -95 -78 -155t-204 -60q-113 0 -174 43.5t-61 119.5q0 52 26 96.5t73 67.5l2 4q-42 31 -42 94q0 88 79 145q79 58 185 58z" />
    <glyph glyph-name="nine.textoldstyle" unicode="&#xe051;" 
d="M441 40l-157 -208h-224l178 223v5q-5 -1 -21 -1q-89 0 -138 43.5t-49 117.5q0 108 82 175q83 68 212 68q105 0 167 -47t62 -133q0 -43 -17 -89t-36 -73q-27 -40 -59 -81zM282 185q28 0 47.5 22t19.5 49q0 22 -13.5 36t-36.5 14q-30 0 -51 -19.5t-21 -49.5q0 -22 15.5 -37
t39.5 -15z" />
    <glyph glyph-name="numbersign.textoldstyle" unicode="&#xe052;" horiz-adv-x="538" 
d="M97 156h-58l15 101h79l19 54h-66l14 101h87l44 124h109l-44 -124h46l44 124h106l-44 -124h74l-14 -101h-95l-18 -54h78l-14 -101h-100l-53 -156h-108l54 156h-46l-53 -156h-110zM307 311h-46l-18 -54h45z" />
    <glyph glyph-name="dollar.textoldstyle" unicode="&#xe053;" horiz-adv-x="556" 
d="M259 -119h-103l15 115q-102 9 -160 42l23 168q25 -25 86 -45q63 -20 104 -20q55 0 55 28q0 16 -22 30t-54 27.5t-64 31t-54 48.5t-22 71q0 36 17 73q19 39 64 70t107 40l16 115h103l-16 -113q84 -8 147 -34l-22 -152q-22 16 -70 30q-46 15 -83 15q-49 0 -54 -23
q0 -17 76 -49q28 -11 49 -23t44 -30.5t35.5 -46t12.5 -60.5q0 -50 -41 -111q-23 -32 -68.5 -54.5t-105.5 -28.5z" />
    <glyph glyph-name="euro.textoldstyle" unicode="&#xe054;" 
d="M463 345l-8 -58h-409l8 58h41q79 213 324 213q82 0 147 -20l-23 -162q-51 22 -107 22q-83 0 -124 -53h151zM34 203l8 58h409l-8 -58h-158q18 -58 107 -58q66 0 133 30l-23 -166q-76 -24 -160 -24q-122 0 -192 58t-76 160h-40z" />
    <glyph glyph-name="florin.textoldstyle" unicode="&#xe055;" horiz-adv-x="538" 
d="M146 217h-75l10 120h87l7 44q30 192 215 192q67 0 130 -17l-12 -152q-29 10 -59 10q-61 0 -65 -46l-4 -31h107l-10 -120h-118l-20 -113q-19 -111 -76.5 -163.5t-159.5 -52.5q-56 0 -126 22l13 152q44 -11 66 -11q32 0 48.5 21t26.5 72z" />
    <glyph glyph-name="sterling.textoldstyle" unicode="&#xe056;" horiz-adv-x="556" 
d="M553 526l-20 -147q-75 32 -125 32q-60 0 -74 -54l-6 -25h112l-14 -103h-118q-14 -55 -21 -71h231l-22 -158h-496l2 15q41 48 64.5 96.5t37.5 117.5h-46l14 103h51l7 33q21 92 89 143.5t165 51.5q91 0 169 -34z" />
    <glyph glyph-name="cent.textoldstyle" unicode="&#xe057;" horiz-adv-x="482" 
d="M285 -41h-106l14 105q-71 12 -110.5 57t-39.5 112q0 96 58 161t151 85l15 109h106l-14 -104q46 -5 77 -17l-21 -149q-36 18 -87 18q-39 0 -63 -20t-24 -56q0 -52 65 -52q57 0 111 25l-20 -144q-39 -19 -98 -26z" />
    <glyph glyph-name="yen.textoldstyle" unicode="&#xe058;" 
d="M34 116l8 56h480l-8 -56h-130l-16 -116h-227l16 116h-123zM534 257l-9 -58h-480l9 58h102l-99 292h234l17 -207h4l66 207h233l-186 -292h109z" />
    <glyph glyph-name="percent.text" unicode="&#xe059;" horiz-adv-x="741" 
d="M241 609q64 0 101 -35t37 -91q0 -71 -51 -123t-129 -52q-65 0 -102.5 34.5t-37.5 91.5q0 72 51 123q51 52 131 52zM225 495q-14 0 -24.5 -14t-10.5 -30q0 -30 25 -30q16 0 26.5 12.5t10.5 32.5q0 29 -27 29zM559 293q65 0 101.5 -34.5t36.5 -91.5q0 -71 -52 -123
q-51 -52 -129 -52q-65 0 -101.5 33.5t-36.5 91.5q0 72 50 124q49 52 131 52zM544 179q-17 0 -26.5 -13.5t-9.5 -32.5q0 -28 25 -28q15 0 26 12.5t11 32.5q0 13 -7.5 21t-18.5 8zM551 602h104l-465 -627h-103z" />
    <glyph glyph-name="perthousand.text" unicode="&#xe05a;" horiz-adv-x="1085" 
d="M241 609q64 0 101 -35t37 -91q0 -71 -51 -123t-129 -52q-65 0 -102.5 34.5t-37.5 91.5q0 72 51 123q51 52 131 52zM225 495q-14 0 -24.5 -14t-10.5 -30q0 -30 25 -30q16 0 26.5 12.5t10.5 32.5q0 29 -27 29zM559 293q65 0 101.5 -34.5t36.5 -91.5q0 -71 -52 -123
q-51 -52 -129 -52q-65 0 -101.5 33.5t-36.5 91.5q0 72 50 124q49 52 131 52zM544 179q-17 0 -26.5 -13.5t-9.5 -32.5q0 -28 25 -28q15 0 26 12.5t11 32.5q0 13 -7.5 21t-18.5 8zM551 602h104l-465 -627h-103zM902 293q65 0 101.5 -34.5t36.5 -91.5q0 -71 -52 -123
q-51 -52 -129 -52q-65 0 -101.5 33.5t-36.5 91.5q0 72 50 124q49 52 131 52zM887 179q-15 0 -25.5 -13.5t-10.5 -31.5q0 -29 25 -29q16 0 26.5 12.5t10.5 32.5q0 29 -26 29z" />
    <glyph glyph-name="asuperior" unicode="&#xe06c;" horiz-adv-x="393" 
d="M214 607q29 0 57 -11.5t40 -29.5l16 32h103l-46 -298h-110l-9 31q-43 -38 -109 -38q-60 0 -93 32.5t-33 89.5q0 80 50 136q51 56 134 56zM224 488q-17 0 -27.5 -14.5t-10.5 -34.5q0 -26 25 -26q17 0 28.5 13.5t11.5 33.5q0 28 -27 28z" />
    <glyph glyph-name="bsuperior" unicode="&#xe06d;" horiz-adv-x="405" 
d="M95 765h148l-25 -175q32 16 71 16q62 0 98 -35t36 -93q0 -78 -51 -132q-51 -53 -134 -53q-56 0 -86 34l-16 -27h-106zM246 488q-19 0 -29.5 -14t-10.5 -33q0 -30 28 -30q18 0 29 12t11 33q0 32 -28 32z" />
    <glyph glyph-name="dsuperior" unicode="&#xe06f;" horiz-adv-x="407" 
d="M280 593l27 172h145l-64 -465h-114l-13 28q-40 -35 -97 -35q-63 0 -96 32.5t-33 89.5q0 84 53 137q52 54 128 54q38 0 64 -13zM225 489q-16 0 -27 -14t-11 -34q0 -30 27 -30q16 0 27.5 13.5t11.5 34.5q0 30 -28 30z" />
    <glyph glyph-name="esuperior" unicode="&#xe070;" horiz-adv-x="351" 
d="M233 609q61 0 98 -26t37 -70q0 -29 -15 -49.5t-40 -30.5t-49 -14.5t-49 -4.5q-3 0 -19 2q8 -20 40 -20q56 0 114 37l-15 -107q-55 -33 -142 -33q-78 0 -117 36.5t-39 96.5q0 73 52 128t144 55zM221 503q-25 0 -31 -38q45 0 45 25q0 13 -14 13z" />
    <glyph glyph-name="egravesuperior" unicode="&#xe071;" horiz-adv-x="360" 
d="M233 609q61 0 98 -26t37 -70q0 -29 -15 -49.5t-40 -30.5t-49 -14.5t-49 -4.5q-3 0 -19 2q8 -20 40 -20q56 0 114 37l-15 -107q-55 -33 -142 -33q-78 0 -117 36.5t-39 96.5q0 73 52 128t144 55zM221 503q-25 0 -31 -38q45 0 45 25q0 13 -14 13zM201 792l107 -152h-86
l-109 87z" />
    <glyph glyph-name="hsuperior" unicode="&#xe073;" horiz-adv-x="391" 
d="M95 765h148l-27 -190q41 32 90 32q52 0 76.5 -28t16.5 -81l-27 -198h-153l23 164q2 24 -13 24q-19 0 -25 -36l-21 -152h-153z" />
    <glyph glyph-name="isuperior" unicode="&#xe074;" horiz-adv-x="203" 
d="M226 597l-41 -297h-155l41 297h155zM243 697q-4 -32 -30 -55t-60 -23t-52.5 22.5t-14.5 54.5q5 32 31.5 54t57.5 22q34 0 53.5 -22t14.5 -53z" />
    <glyph glyph-name="lsuperior" unicode="&#xe077;" horiz-adv-x="200" 
d="M249 765l-65 -465h-155l65 465h155z" />
    <glyph glyph-name="msuperior" unicode="&#xe078;" horiz-adv-x="571" 
d="M31 300l41 297h122l10 -38q18 22 46 35t54 13q61 0 82 -49q42 49 100 49q51 0 75 -28t17 -80l-28 -199h-153l23 166q1 22 -10 22q-17 0 -22 -35l-21 -153h-152l22 162q5 26 -12 26q-16 0 -20 -31l-22 -157h-152z" />
    <glyph glyph-name="osuperior" unicode="&#xe079;" horiz-adv-x="386" 
d="M242 607q76 0 118 -36.5t42 -97.5q0 -79 -57 -130q-56 -50 -147 -50q-76 0 -119 35.5t-43 96.5q0 77 57 129q59 53 149 53zM226 488q-16 0 -26.5 -14.5t-10.5 -33.5q0 -29 26 -29q17 0 28.5 13.5t11.5 34.5q0 29 -29 29z" />
    <glyph glyph-name="rsuperior" unicode="&#xe07c;" horiz-adv-x="301" 
d="M30 300l41 297h112l10 -46q31 54 92 54q31 0 59 -12l-19 -136q-35 19 -66 19q-53 0 -60 -58l-16 -118h-153z" />
    <glyph glyph-name="ssuperior" unicode="&#xe07d;" horiz-adv-x="288" 
d="M307 584l-15 -102q-41 26 -88 26q-15 0 -16 -4q0 -2 17 -8.5t37.5 -15.5t37.5 -29t17 -47q0 -16 -6.5 -33.5t-22 -36t-47 -30.5t-74.5 -12q-79 0 -128 27l16 114q20 -18 52 -32q34 -14 55 -14q15 0 17 5q0 2 -27.5 12.5t-55.5 35t-28 59.5q0 39 37 73t110 34
q56 0 112 -22z" />
    <glyph glyph-name="tsuperior" unicode="&#xe07e;" horiz-adv-x="281" 
d="M297 422l-15 -106q-43 -26 -105 -26q-127 0 -110 123l10 73h-41l11 83l187 128h24l-14 -100h73l-15 -111h-73l-7 -45q-6 -35 24 -35q15 0 51 16z" />
    <glyph glyph-name="i.dot" unicode="&#xe096;" horiz-adv-x="294" 
d="M280 447l-62 -447h-212l62 447h212zM215 722q42 0 68.5 -27t26.5 -67q0 -50 -37 -90q-38 -39 -89 -39q-43 0 -68 27t-25 68q0 55 39 91q38 37 85 37z" />
    <glyph glyph-name="a.alt" unicode="&#xe0a8;" horiz-adv-x="531" 
d="M269 0l-5 42l-4 1q-61 -55 -150 -55q-51 0 -81.5 27t-30.5 75q0 70 57 122q58 53 171 53h57l1 7q4 25 -11.5 33.5t-53.5 8.5q-21 0 -64 -9q-42 -7 -72 -23l25 152q95 29 194 29q193 0 193 -167q0 -22 -3 -44l-35 -252h-188zM275 188h-21q-24 0 -38.5 -14t-14.5 -38
q0 -21 22 -21q18 0 32 15.5t18 42.5z" />
    <glyph glyph-name="g.alt" unicode="&#xe0a9;" horiz-adv-x="595" 
d="M263 165q31 0 49 22.5t18 54.5q0 49 -49 49q-27 0 -46 -21t-19 -53q0 -23 12.5 -37.5t34.5 -14.5zM314 10l3 24l-3 1q-45 -36 -114 -36q-90 0 -140 48.5t-50 132.5q0 122 73 201q74 81 194 81q81 0 130 -50h4l19 36h153l-49 -354q-16 -121 -59 -197q-76 -134 -282 -134
q-52 0 -110 15q-60 16 -92 37l25 175q94 -66 178 -66q49 0 82 24t38 62z" />
    <glyph glyph-name="A2.alt" unicode="&#xe0b6;" horiz-adv-x="694" 
d="M654 0h-232l-67 276h-3l-149 -276h-233l429 679h24z" />
    <glyph glyph-name="F.alt" unicode="&#xe0b7;" horiz-adv-x="538" 
d="M218 -219h-236l123 878h476l-25 -180h-240l-11 -80h195l-25 -172h-195z" />
    <glyph glyph-name="I.alt" unicode="&#xe0b8;" horiz-adv-x="334" 
d="M139 897h237l-126 -897h-237z" />
    <glyph glyph-name="L.alt" unicode="&#xe0b9;" horiz-adv-x="535" 
d="M376 897l-101 -716h241l-25 -181h-477l126 897h236z" />
    <glyph glyph-name="P2.alt" unicode="&#xe0ba;" horiz-adv-x="599" 
d="M105 659h282q115 0 173 -57t58 -141q0 -101 -75 -178q-75 -76 -203 -76h-62l-60 -426h-236zM335 485h-20l-16 -109h20q31 0 48.5 19t17.5 44q0 46 -50 46z" />
    <glyph glyph-name="T.alt" unicode="&#xe0bb;" horiz-adv-x="579" 
d="M660 897l-26 -180h-163l-100 -717h-236l100 717h-160l26 180h559z" />
    <glyph glyph-name="Y.alt" unicode="&#xe0bc;" horiz-adv-x="733" 
d="M77 -219l125 245l-141 633h249l33 -208q20 -135 20 -172h4q39 101 74 178l94 202h249l-477 -878h-230z" />
    <glyph glyph-name="Q.alt" unicode="&#xe0bd;" horiz-adv-x="787" 
d="M307 -36l379 -72l-80 -192l-379 71zM453 674q145 0 230 -85t85 -214q0 -165 -120 -277q-118 -112 -293 -112q-144 0 -228 84t-84 213q0 166 115 278q116 113 295 113zM386 178q63 0 105 52q43 52 43 130q0 54 -27.5 86t-78.5 32q-65 0 -108 -52q-42 -52 -42 -125
q0 -55 29 -89t79 -34z" />
    <glyph glyph-name="Q2.alt" unicode="&#xe0be;" horiz-adv-x="787" 
d="M461 -1l-30 -218h-213l31 219q-97 26 -151.5 100t-54.5 178q0 166 113 281q114 115 297 115q145 0 231 -84q86 -83 86 -211q0 -139 -87 -245t-222 -135zM296 226l29 115h155l-3 -126q57 55 57 145q0 54 -27.5 86t-78.5 32q-64 0 -108 -53q-42 -53 -42 -126q0 -45 18 -73z
" />
    <glyph glyph-name="uniE0C0" unicode="&#xe0c0;" horiz-adv-x="538" 
d="M249 0h-236l125 896h476l-25 -180h-240z" />
    <glyph glyph-name="uniE0C4" unicode="&#xe0c4;" horiz-adv-x="924" 
d="M523 668q163 0 273 -81q111 -81 111 -224q0 -94 -49 -182q-38 -74 -117 -128t-196 -73l-28 -199h-237l27 196q-140 23 -204 100q-63 79 -63 186q0 94 41 173.5t111 129.5q146 102 331 102zM334 166l43 308q-39 -11 -65 -47q-46 -63 -46 -144q0 -103 68 -117zM614 473
l-43 -308q44 7 76 70q31 61 31 121q0 48 -16 80.5t-48 36.5z" />
    <glyph glyph-name="uniE0C5" unicode="&#xe0c5;" horiz-adv-x="896" 
d="M407 659h236l-66 -474q27 3 46.5 27.5t23.5 53.5l55 394h236l-50 -355q-18 -132 -105 -221q-85 -86 -234 -97l-29 -205h-236l29 205q-150 9 -212 93q-61 86 -42 216l51 364h238l-54 -387q-11 -83 46 -89z" />
    <glyph glyph-name="Parenleft" unicode="&#xe0d8;" horiz-adv-x="329" 
d="M280 765l116 -41q-181 -244 -181 -495q0 -174 74 -302l-133 -43q-112 145 -112 351q0 131 61 275q62 146 175 255z" />
    <glyph glyph-name="Parenright" unicode="&#xe0d9;" horiz-adv-x="329" 
d="M70 725l128 40q54 -72 83 -166.5t29 -192.5q0 -131 -61 -272q-61 -142 -175 -250l-117 52q182 226 182 486q0 162 -69 303z" />
    <glyph glyph-name="Hyphen" unicode="&#xe0da;" horiz-adv-x="361" 
d="M325 343l-17 -127h-271l17 127h271z" />
    <glyph glyph-name="Bracketleft" unicode="&#xe0db;" horiz-adv-x="313" 
d="M242 10l-17 -118h-231l121 860h231l-18 -127h-55l-86 -615h55z" />
    <glyph glyph-name="Bracketright" unicode="&#xe0dc;" horiz-adv-x="313" 
d="M338 752l-121 -860h-230l17 118h54l86 615h-54l18 127h230z" />
    <glyph glyph-name="Braceleft" unicode="&#xe0dd;" horiz-adv-x="400" 
d="M325 13l-17 -121h-86q-164 0 -141 158l23 162q15 101 -46 114l3 22q63 16 77 102l19 135q11 83 56 124t130 41h86l-18 -124h-10q-35 0 -50 -16t-21 -51l-18 -126q-11 -77 -94 -90v-4q39 -5 56 -31.5t11 -67.5l-23 -163q-5 -35 4.5 -49.5t42.5 -14.5h16z" />
    <glyph glyph-name="Braceright" unicode="&#xe0de;" horiz-adv-x="400" 
d="M78 -108h-85l17 121h15q33 0 46.5 14.5t18.5 49.5l23 163q6 41 30.5 67.5t64.5 31.5v4q-36 6 -54.5 29.5t-13.5 60.5l18 126q6 34 -6 50.5t-47 16.5h-9l18 124h85q90 0 119.5 -41t17.5 -131l-17 -129q-11 -83 48 -99l-2 -21q-64 -13 -79 -117l-23 -162
q-21 -158 -185 -158z" />
    <glyph glyph-name="Endash" unicode="&#xe0df;" horiz-adv-x="619" 
d="M588 215h-574l20 145h574z" />
    <glyph glyph-name="Emdash" unicode="&#xe0e0;" horiz-adv-x="840" 
d="M806 215h-790l20 145h790z" />
    <glyph glyph-name="Exclamdown" unicode="&#xe0e1;" horiz-adv-x="351" 
d="M208 494q34 0 57.5 -25t23.5 -60q0 -45 -34 -79t-75 -34q-37 0 -61.5 24.5t-24.5 61.5q0 44 34 78t80 34zM259 256l-48 -470h-211l84 470h175z" />
    <glyph glyph-name="Questiondown" unicode="&#xe0e2;" horiz-adv-x="536" 
d="M213 -215q-117 0 -172 47q-53 47 -53 117q0 3 2 27q6 42 41 83q34 41 74 69q37 25 73 57q34 31 37 53q0 10 -2 16l162 25q12 -30 12 -54q0 -31 -16.5 -60.5t-40.5 -51t-47.5 -41t-40 -39.5t-16.5 -38q0 -35 51 -35q39 0 93 17t86 36l-26 -185q-110 -43 -217 -43zM312 493
q40 0 62.5 -21.5t22.5 -57.5q0 -46 -33 -81q-33 -34 -80 -34q-36 0 -58.5 23t-22.5 59q0 45 33 78q34 34 76 34z" />
    <glyph glyph-name="Guillemotleft" unicode="&#xe0e3;" horiz-adv-x="552" 
d="M343 448l-157 -201l100 -207h-182l-91 199l1 10l147 199h182zM565 448l-157 -201l100 -207h-182l-90 199l1 10l146 199h182z" />
    <glyph glyph-name="Guillemotright" unicode="&#xe0e4;" horiz-adv-x="552" 
d="M158 40h-182l158 207l-101 201h182l90 -199l-1 -10zM380 40h-182l158 207l-101 201h182l91 -199l-1 -10z" />
    <glyph glyph-name="uniE12C" unicode="&#xe12c;" horiz-adv-x="1751" 
d="M1416 0h-227l-14 65h-180l-34 -65h-390l-282 263h-4l-36 -263h-236l95 679h24l301 -268h4l35 248h468l-25 -180h-231l-8 -55h194l-24 -172h-194l-10 -71h205l302 478h323q102 0 166 -51q66 -51 66 -138q0 -55 -23 -100t-80 -91l112 -279h-226l-104 289l3 17q77 32 77 95
q0 35 -21.5 56.5t-62.5 21.5h-125zM1124 307h-4l-61 -114h89z" />
    <glyph glyph-name="uniE16E" unicode="&#xe16e;" horiz-adv-x="1090" 
d="M1078 679h24l-95 -679h-236l38 275h-4l-395 -295h-21l41 295h-3l-395 -295h-22l95 679h237l-38 -270h4l392 290h23l-41 -290h4zM740 883h89q-4 -82 78 -82q31 0 57.5 22.5t37.5 59.5h87q-17 -77 -67 -133q-50 -57 -135 -57q-86 0 -120 55q-35 56 -27 135z" />
    <glyph glyph-name="uniE16F" unicode="&#xe16f;" horiz-adv-x="1079" 
d="M792 247h-130l-34 -247h-236l38 275h-3l-395 -295h-22l95 679h237l-38 -270h4l392 290h23l-35 -250h130l32 230h237l-92 -659h-237z" />
    <glyph glyph-name="uniE170" unicode="&#xe170;" horiz-adv-x="1079" 
d="M1067 679h23l-95 -679h-236l38 275h-3l-396 -295h-21l37 267h-131l-34 -247h-236l92 659h236l-32 -230h131l32 230h237l-38 -270h4z" />
    <glyph glyph-name="uniE171" unicode="&#xe171;" horiz-adv-x="1079" 
d="M1067 679h23l-95 -679h-236l38 275h-3l-396 -295h-21l70 497h-131l-67 -477h-236l92 659h604l-38 -270h4z" />
    <glyph glyph-name="uniE172" unicode="&#xe172;" horiz-adv-x="833" 
d="M821 679h24l-95 -679h-236l38 275h-4l-395 -295h-21l103 737h-160l26 180h559l-26 -180h-163l-46 -328h4z" />
    <glyph glyph-name="uniE173" unicode="&#xe173;" horiz-adv-x="1213" 
d="M1130 0h-237l34 247h-131l-34 -247h-235l28 206q-49 -104 -145.5 -162.5t-225.5 -58.5q-98 0 -179 29l29 199q75 -36 148 -36q120 0 152 83h-185l22 156h171q-13 64 -115 64q-75 0 -144 -26l27 191q87 28 194 28q125 0 197 -57t90 -159l28 202h235l-32 -230h131l32 230
h237z" />
    <glyph glyph-name="uniE174" unicode="&#xe174;" horiz-adv-x="1114" 
d="M620 659h281q115 0 173 -57q59 -57 59 -141q0 -102 -76 -178q-75 -76 -203 -76h-62l-29 -207h-235l29 209q-49 -105 -146 -164.5t-227 -59.5q-98 0 -179 29l29 199q75 -36 148 -36q120 0 152 83h-185l22 156h171q-13 64 -115 64q-75 0 -144 -26l27 191q87 28 194 28
q126 0 198.5 -58.5t88.5 -161.5zM849 485h-20l-16 -109h20q31 0 48.5 19t17.5 44q0 46 -50 46z" />
    <glyph glyph-name="uniE175" unicode="&#xe175;" horiz-adv-x="927" 
d="M368 659h347q118 0 173 -58q57 -59 57 -145q0 -100 -75 -175q-76 -74 -202 -74h-62l-29 -207h-236l67 479h-25q-36 0 -57 -24.5t-21 -61.5q0 -61 59 -87l-3 -17l-157 -289h-236l175 271q-67 55 -67 135q0 118 84 185q86 68 208 68zM663 485h-19l-16 -109h19q31 0 48.5 19
t17.5 44q0 46 -50 46z" />
    <glyph glyph-name="uniE176" unicode="&#xe176;" horiz-adv-x="1172" 
d="M1144 659l-24 -170h-267l-10 -71h69q146 0 193 -65q39 -52 39 -113q0 -106 -73 -173q-71 -67 -173 -67h-351l35 252h-298l-10 -71h242l-25 -181h-478l92 659h468l-25 -180h-232l-8 -55h298l33 235h505zM861 261h-40l-12 -90h42q24 0 40 15.5t16 36.5q0 17 -12.5 27.5
t-33.5 10.5z" />
    <glyph glyph-name="A.alt" unicode="&#xe188;" horiz-adv-x="694" 
d="M401 90l-424 -130l-11 19l433 700h24l231 -679h-230zM354 298h-4l-61 -109l86 27z" />
    <glyph glyph-name="P.alt" unicode="&#xe189;" horiz-adv-x="599" 
d="M329 485h-14l-20 -141l27 9q28 10 45 31t17 46t-14 40t-41 15zM105 659h282q116 0 173 -57q57 -56 57 -141q0 -100 -64 -172t-184 -104l-98 -26l-22 -159h-236z" />
    <glyph glyph-name="R.alt" unicode="&#xe18a;" horiz-adv-x="649" 
d="M105 659h282q116 0 173 -57q57 -56 57 -141q0 -132 -107 -209l87 -252h-239l-50 177l-36 -8l-23 -169h-236zM336 485h-21l-19 -131l27 8q63 18 63 80q0 43 -50 43z" />
    <glyph glyph-name="K.alt" unicode="&#xe18b;" horiz-adv-x="702" 
d="M297 253l-13 -4l-34 -249h-237l92 659h237l-33 -239l14 4q22 6 33.5 18t46.5 68l86 149h254l-135 -189q-62 -87 -108 -120l-1 -3q18 -8 35 -33q19 -25 25 -42l23 -57l80 -215h-258l-51 208q-9 34 -21.5 43t-34.5 2z" />
    <glyph glyph-name="B.alt" unicode="&#xe18c;" horiz-adv-x="655" 
d="M538 358v-4q77 -44 77 -141q0 -84 -67 -148q-68 -65 -167 -65h-368l92 659h348q75 0 119 -42t44 -106q0 -91 -78 -153zM277 246l-9 -66h67q27 0 43.5 15t16.5 37q0 15 -10 24.5t-27 9.5q-10 0 -22 -3zM354 485h-44l-13 -92l47 14q14 4 21 7.5t15.5 13.5t9.5 25
q0 32 -36 32z" />
    <glyph glyph-name="A_P.3" unicode="&#xe196;" horiz-adv-x="971" 
d="M621 0h-238l9 65h-119l-48 -65h-256l546 659h243q116 0 171 -58q57 -57 57 -142q0 -104 -73 -178q-72 -74 -201 -74h-62zM706 485h-19l-16 -109h19q32 0 49 18.5t17 44.5q0 46 -50 46zM422 193l13 98h-4l-69 -98h60z" />
    <glyph glyph-name="A_R.4" unicode="&#xe197;" horiz-adv-x="1032" 
d="M224 0h-255l546 659h263q102 0 166 -52q66 -53 66 -139q0 -58 -25.5 -104.5t-93.5 -93.5l103 -270h-238l-75 289l3 17q42 17 64.5 49t22.5 65q0 27 -15 43t-43 16h-25l-67 -479h-239l9 65h-119zM421 193l13 98h-4l-69 -98h60z" />
    <glyph glyph-name="A_B" unicode="&#xe198;" horiz-adv-x="1002" 
d="M702 485h-44l-9 -78h43q18 0 32 13t14 33q0 32 -36 32zM885 358v-4q37 -21 57.5 -58.5t20.5 -81.5q0 -83 -67 -149q-68 -65 -168 -65h-349l9 65h-127l-48 -65h-244l546 659h278q79 0 125 -43q47 -42 47 -103q0 -41 -21 -83t-59 -72zM700 260h-73l-11 -80h76q25 0 38 13.5
t13 32.5q0 15 -11.5 24.5t-31.5 9.5zM412 193l13 98h-4l-69 -98h60z" />
    <glyph glyph-name="A_B.2" unicode="&#xe199;" horiz-adv-x="938" 
d="M664 0h-242l-14 65h-181l-33 -65h-224l417 659h340q78 0 125 -44t47 -106q0 -82 -82 -148v-4q38 -23 59 -61.5t21 -81.5q0 -83 -67 -149q-67 -65 -166 -65zM637 485h-149l27 -78h112q17 0 31.5 13t14.5 33q0 32 -36 32zM633 260h-68l26 -80h34q25 0 38 13.5t13 32.5
q0 15 -11.5 24.5t-31.5 9.5zM356 307h-4l-60 -114h89z" />
    <glyph glyph-name="A_D" unicode="&#xe19a;" horiz-adv-x="1041" 
d="M-30 0l416 659h313q158 0 238 -80q81 -79 81 -203q0 -94 -43 -179t-129 -141t-192 -56h-232l-14 65h-181l-33 -65h-224zM683 479h-192l100 -298h43q70 0 112 51.5t42 138.5q0 108 -105 108zM356 307h-4l-60 -114h89z" />
    <glyph glyph-name="A_D.2" unicode="&#xe19b;" horiz-adv-x="1037" 
d="M686 479h-27l-42 -298h27q64 0 104 52t40 138q0 108 -102 108zM515 659h190q156 0 234 -81q79 -80 79 -204q0 -146 -97 -257q-47 -54 -123.5 -85.5t-167.5 -31.5h-251l9 65h-127l-48 -65h-244zM412 193l13 98h-4l-69 -98h60z" />
    <glyph glyph-name="A_E.2" unicode="&#xe19c;" horiz-adv-x="855" 
d="M-30 0l416 659h467l-25 -180h-337l18 -55h284l-24 -172h-202l24 -71h219l-25 -181h-363l-14 65h-181l-33 -65h-224zM356 307h-4l-60 -114h89z" />
    <glyph glyph-name="A_F" unicode="&#xe19d;" horiz-adv-x="880" 
d="M591 0h-212l9 65h-127l-48 -65h-244l546 659h407l-25 -180h-239l-11 -80h195l-25 -172h-195zM412 193l13 98h-4l-69 -98h60z" />
    <glyph glyph-name="A_H" unicode="&#xe19e;" horiz-adv-x="1012" 
d="M654 0h-232l-14 65h-181l-33 -65h-224l429 679h24l86 -252h243l32 232h236l-92 -659h-236l35 252h-159zM356 307h-4l-60 -114h89z" />
    <glyph glyph-name="A_K" unicode="&#xe1a0;" horiz-adv-x="1051" 
d="M515 659h187l-41 -293l189 293h249l-227 -318l139 -341h-252l-105 314l-44 -314h-226l9 65h-127l-48 -65h-249zM417 193l13 98h-4l-69 -98h60z" />
    <glyph glyph-name="A_M" unicode="&#xe1a1;" horiz-adv-x="1164" 
d="M503 678l284 -308l367 308h21l-95 -678h-228l32 230h-4l-116 -112h-25l-91 108h-4l-31 -226h-227l9 65h-153l-47 -65h-254l540 678h22zM431 321h-4l-93 -128h79z" />
    <glyph glyph-name="A_N" unicode="&#xe1a2;" horiz-adv-x="1073" 
d="M622 0h-236l9 65h-153l-47 -65h-254l540 678v1h23l302 -268h4l35 248h236l-95 -679h-21l-303 283h-4zM431 321h-4l-93 -128h79z" />
    <glyph glyph-name="A_P.2" unicode="&#xe1a3;" horiz-adv-x="859" 
d="M-30 0l417 659h260q114 0 173 -56t59 -139q0 -103 -76 -180q-75 -77 -203 -77h-17l71 -207h-232l-14 65h-181l-33 -65h-224zM595 485h-106l36 -109h54q31 0 48.5 19t17.5 44q0 46 -50 46zM356 307h-4l-60 -114h89z" />
    <glyph glyph-name="A_R" unicode="&#xe1a4;" horiz-adv-x="980" 
d="M654 0h-232l-14 65h-181l-33 -65h-224l417 659h313q101 0 166 -48q65 -47 65 -132q0 -119 -103 -200l110 -279h-224l-103 289l3 17q39 16 58.5 46.5t19.5 63.5q0 29 -20.5 46t-57.5 17h-122zM356 307h-4l-60 -114h89z" />
    <glyph glyph-name="A_R.2" unicode="&#xe1a5;" horiz-adv-x="980" 
d="M-30 0l416 659h314q101 0 166 -48q65 -47 65 -132q0 -119 -103 -200l110 -279h-224l-103 289l3 17q39 16 58.5 46.5t19.5 63.5q0 29 -20.5 46t-57.5 17h-123l163 -479h-237l-65 286h-3l-151 -286h-228z" />
    <glyph glyph-name="A_R.3" unicode="&#xe1a6;" horiz-adv-x="980" 
d="M-30 0l416 659h314q101 0 166 -48q65 -47 65 -132q0 -119 -103 -200l110 -279h-224l-103 289l3 17q39 16 58.5 46.5t19.5 63.5q0 29 -20.5 46t-57.5 17h-123l163 -479h-223l-78 296h-3l-165 -296h-215zM329 150q28 0 46.5 -18.5t18.5 -47.5q0 -36 -27 -61
q-26 -26 -60 -26q-28 0 -45.5 18t-17.5 46q0 36 25.5 62.5t59.5 26.5z" />
    <glyph glyph-name="A_V" unicode="&#xe1a7;" horiz-adv-x="871" 
d="M494 -22h-25l-26 80h-214l-35 -58h-224l439 679h23l95 -293h4l148 273h244zM370 287h-1l-62 -101h95z" />
    <glyph glyph-name="A_W" unicode="&#xe1a8;" horiz-adv-x="1200" 
d="M850 -22h-25l-120 336l-214 -336h-26l-24 80h-212l-35 -58h-224l439 679h23v-1l1 2l114 -287h4l191 280h25l98 -259h4l137 245h246zM370 287h-1l-62 -101h94z" />
    <glyph glyph-name="A_W_A" unicode="&#xe1a9;" horiz-adv-x="1369" 
d="M1329 0h-232l-14 65h-180l-46 -87h-25l-127 336l-214 -336h-26l-24 80h-212l-35 -58h-224l439 679l28 -1l110 -285h4l191 280h25l115 -285h4l189 291h23zM1056 193l-25 114h-1l-59 -114h85zM370 287h-1l-62 -101h94z" />
    <glyph glyph-name="uniE1AB" unicode="&#xe1ab;" horiz-adv-x="1101" 
d="M983 0h-236l67 479h-131l-67 -479h-232l9 65h-127l-48 -65h-249l546 659h560zM417 193l13 98h-4l-69 -98h60z" />
    <glyph glyph-name="uniE1AC" unicode="&#xe1ac;" horiz-adv-x="1012" 
d="M567 252l87 -252h-684l429 679h24l86 -252h243l32 232h236l-92 -659h-236l35 252h-160zM358 328h-3l-81 -148h117z" />
    <glyph glyph-name="uniE1AD" unicode="&#xe1ad;" horiz-adv-x="1114" 
d="M1073 0h-1060l92 659h468l-25 -180h-232l-8 -55h195l-24 -172h-195l-10 -71h229l316 498h23zM777 328h-3l-81 -148h117z" />
    <glyph glyph-name="uniE1AE" unicode="&#xe1ae;" horiz-adv-x="965" 
d="M471 659h281q116 0 172 -59t56 -146q0 -107 -73 -177t-201 -70h-60l-29 -207h-238l34 247h-130l-34 -247h-236l92 659h236l-32 -230h130zM700 485h-15l-16 -109h15q32 0 49.5 19t17.5 44q0 21 -13.5 33.5t-37.5 12.5z" />
    <glyph glyph-name="uniE1AF" unicode="&#xe1af;" horiz-adv-x="951" 
d="M249 0h-236l92 659h413l33 237h475l-25 -180h-240l-100 -716h-235l67 479h-177z" />
    <glyph glyph-name="C_A" unicode="&#xe1ba;" horiz-adv-x="1089" 
d="M1049 0h-227l-12 56h-188l-28 -56h-104q-72 -15 -136 -15q-150 0 -231 77.5t-81 212.5q0 109 48 198q49 92 146 146t221 54q91 0 160 -24l-28 -195q-58 26 -124 26q-76 0 -131 -46t-55 -138q0 -59 35 -89t96 -30q29 0 72 8l312 494h24zM756 307h-4l-60 -114h89z" />
    <glyph glyph-name="C_K" unicode="&#xe1bb;" horiz-adv-x="976" 
d="M685 0l-118 325l4 25l205 309h248l-232 -318l144 -341h-251zM568 213l-27 -199q-85 -29 -187 -29q-150 0 -231 77.5t-81 212.5q0 109 48 198q49 92 146 146t221 54q91 0 160 -24l-28 -195q-58 26 -124 26q-76 0 -131 -46t-55 -138q0 -59 35 -89t96 -30q72 0 158 36z" />
    <glyph glyph-name="D_E" unicode="&#xe1cb;" horiz-adv-x="1161" 
d="M1094 0h-485l30 214q-46 -99 -137 -156.5t-215 -57.5h-274l92 659h247q138 0 218.5 -61.5t98.5 -169.5l32 231h464l-25 -180h-228l-8 -55h195l-24 -172h-195l-10 -71h249zM342 479h-27l-42 -298h27q64 0 103.5 52t39.5 139q0 107 -101 107z" />
    <glyph glyph-name="D_H" unicode="&#xe1cc;" horiz-adv-x="1293" 
d="M1210 0h-237l34 247h-131l-34 -247h-236l28 205q-46 -95 -136 -150t-211 -55h-274l92 659h247q136 0 216 -58.5t99 -162.5l31 221h236l-32 -230h131l32 230h237zM342 479h-27l-42 -298h27q64 0 103.5 52t39.5 139q0 107 -101 107z" />
    <glyph glyph-name="D_L" unicode="&#xe1cd;" horiz-adv-x="1128" 
d="M935 659l-67 -478h241l-25 -181h-477l29 208q-46 -96 -136.5 -152t-212.5 -56h-274l92 659h247q135 0 215.5 -60t99.5 -164l32 224h236zM342 479h-27l-42 -298h27q64 0 103.5 52t39.5 139q0 107 -101 107z" />
    </font>
</defs>
</svg>
