<?xml version="1.0" standalone="no"?>
<!DOCTYPE svg PUBLIC "-//W3C//DTD SVG 1.1//EN" "http://www.w3.org/Graphics/SVG/1.1/DTD/svg11.dtd" >
<svg>
<metadata>
Created by FontForge 20120731 at Tue Dec 15 21:07:55 2015
 By ,,,
(c)2013 Optimo. wf-rip
</metadata>
<defs>
<font id="Plain-RegularIta" horiz-adv-x="575" >
  <font-face 
    font-family="Plain"
    font-weight="400"
    font-style="italic"
    font-stretch="normal"
    units-per-em="1000"
    panose-1="2 11 0 4 2 2 2 2 2 4"
    ascent="803"
    descent="-197"
    x-height="525"
    cap-height="715"
    bbox="-117 -275 1326 1072"
    underline-thickness="50"
    underline-position="-50"
    slope="-10"
    unicode-range="U+000D-FB02"
  />
<missing-glyph horiz-adv-x="644" 
d="M50 240v49l309 309q14 -8 26 -23zM50 142v49l347 347v-15q0 -20 -13.5 -37.5t-41.5 -39.5t-37 -31q-23 -23 -36 -54zM104 0h-49l261 261h49l-93 -93h-23v-23zM321 168l273 273v-49l-224 -224h-49zM50 338v49l148 148l39 -2q0 29 20 52t55 23h8zM398 0h-49l33 33h2v2
l210 210v-49zM384 133l210 210v-49l-210 -210v49zM50 44v49l206 206v-38h11zM50 583l196 196h49l-44 -44q-54 -14 -93 -53.5t-54 -93.5l-54 -54v49zM537 482l57 57v-49l-216 -216v7q0 12 2.5 21t11 18.5t12.5 13.5t21 16t23 16q1 1 10 7.5t14 10.5t14.5 12.5t15.5 16.5
t13.5 18.5t13 23.5t8.5 27zM50 681l98 98h49l-147 -147v49zM496 0h-49l147 147v-49zM459 698l81 81h49l-104 -104q-25 22 -26 23zM50 436v49l56 56l46 -3zM506 647l88 88v-49l-70 -70q-6 13 -18 31zM202 0h-49l96 96v-49zM395 732l47 47h49l-62 -62q-15 8 -34 15zM536 579
l58 58v-49l-52 -52q0 13 -6 43zM307 742l37 37h49l-38 -38q-18 2 -28 2q-2 0 -6.5 -0.5t-6.5 -0.5h-7zM300 0h-49l33 33h49zM594 49v-49h-49zM50 779h49l-49 -49v49z" />
    <glyph glyph-name="fi" unicode="fi" horiz-adv-x="548" 
d="M325 526l-14 -79h-89l-80 -447h-100l78 447h-71l14 79h71l11 59q24 138 178 138q11 0 25 -2q4 -1 13 -1l-16 -82h-15q-43 0 -61.5 -14.5t-25.5 -53.5q-2 -4 -3 -14t-2 -14l-3 -16h90zM320 0l93 526h102q-9 -51 -42.5 -236.5t-51.5 -289.5h-101zM425 601l20 114h105
l-20 -114h-105z" />
    <glyph glyph-name="fl" unicode="fl" horiz-adv-x="549" 
d="M325 526l-14 -79h-89l-80 -447h-100l78 447h-71l14 79h71l11 59q24 138 178 138q11 0 25 -2q4 -1 13 -1l-16 -82h-15q-43 0 -61.5 -14.5t-25.5 -53.5q-2 -4 -3 -14t-2 -14l-3 -16h90zM319 0l124 715h103l-127 -715h-100z" />
    <glyph glyph-name=".notdef" horiz-adv-x="644" 
d="M50 240v49l309 309q14 -8 26 -23zM50 142v49l347 347v-15q0 -20 -13.5 -37.5t-41.5 -39.5t-37 -31q-23 -23 -36 -54zM104 0h-49l261 261h49l-93 -93h-23v-23zM321 168l273 273v-49l-224 -224h-49zM50 338v49l148 148l39 -2q0 29 20 52t55 23h8zM398 0h-49l33 33h2v2
l210 210v-49zM384 133l210 210v-49l-210 -210v49zM50 44v49l206 206v-38h11zM50 583l196 196h49l-44 -44q-54 -14 -93 -53.5t-54 -93.5l-54 -54v49zM537 482l57 57v-49l-216 -216v7q0 12 2.5 21t11 18.5t12.5 13.5t21 16t23 16q1 1 10 7.5t14 10.5t14.5 12.5t15.5 16.5
t13.5 18.5t13 23.5t8.5 27zM50 681l98 98h49l-147 -147v49zM496 0h-49l147 147v-49zM459 698l81 81h49l-104 -104q-25 22 -26 23zM50 436v49l56 56l46 -3zM506 647l88 88v-49l-70 -70q-6 13 -18 31zM202 0h-49l96 96v-49zM395 732l47 47h49l-62 -62q-15 8 -34 15zM536 579
l58 58v-49l-52 -52q0 13 -6 43zM307 742l37 37h49l-38 -38q-18 2 -28 2q-2 0 -6.5 -0.5t-6.5 -0.5h-7zM300 0h-49l33 33h49zM594 49v-49h-49zM50 779h49l-49 -49v49z" />
    <glyph glyph-name=".null" horiz-adv-x="0" 
 />
    <glyph glyph-name="nonmarkingreturn" horiz-adv-x="333" 
 />
    <glyph glyph-name="NULL" horiz-adv-x="0" 
 />
    <glyph glyph-name="NULL" horiz-adv-x="0" 
 />
    <glyph glyph-name="CR" unicode="&#xd;" horiz-adv-x="0" 
 />
    <glyph glyph-name="space" unicode=" " horiz-adv-x="251" 
 />
    <glyph glyph-name="exclam" unicode="!" horiz-adv-x="284" 
d="M158 186h-74q46 340 60 421l20 108h102l-20 -108q-12 -72 -26.5 -141.5t-35 -161t-26.5 -118.5zM36 0l22 120h103l-22 -120h-103z" />
    <glyph glyph-name="quotedbl" unicode="&#x22;" horiz-adv-x="379" 
d="M172 451h-74q0 12 14 123t20 141h100q-17 -94 -60 -264zM329 451h-74q0 12 14 123t20 141h100q-17 -94 -60 -264z" />
    <glyph glyph-name="numbersign" unicode="#" 
d="M255 0l74 238h-142l-74 -238h-57l74 238h-101l16 50h101l48 154h-103l16 50h103l70 223h57l-70 -223h142l70 223h57l-70 -223h101l-16 -50h-101l-48 -154h103l-16 -50h-103l-74 -238h-57zM251 442l-48 -154h142l48 154h-142z" />
    <glyph glyph-name="dollar" unicode="$" 
d="M526 218q0 -103 -68.5 -161t-184.5 -62l-21 -115h-96l22 121q-83 17 -126 68.5t-43 130.5v4h101q2 -57 40 -91.5t111 -34.5q74 0 115.5 33.5t41.5 87.5q0 42 -28.5 65t-90.5 49l-42 17q-86 34 -126 73.5t-40 112.5q0 82 58.5 138t154.5 66l21 111h96l-22 -115
q83 -16 124.5 -67t41.5 -120h-102q-2 51 -38 79t-96 28q-63 0 -96 -30t-33 -77q0 -44 26.5 -68t80.5 -45l40 -16q30 -12 36.5 -14.5t33.5 -15t35.5 -19.5t27.5 -22.5t26 -30t13.5 -35.5t6.5 -45z" />
    <glyph glyph-name="percent" unicode="%" horiz-adv-x="867" 
d="M201 0l426 715h74l-425 -715h-75zM201 389q42 0 61.5 34.5t34.5 102.5q8 54 8 72q0 70 -59 70q-43 0 -64.5 -36t-32.5 -102q-7 -35 -7 -71q0 -70 59 -70zM252 725q127 0 127 -127q0 -25 -7 -67q-18 -98 -56 -148t-123 -50q-125 0 -125 123q0 36 7 74q7 42 17.5 73
t30 60.5t52 45.5t77.5 16zM640 41q42 0 61.5 34.5t34.5 102.5q8 54 8 72q0 70 -59 70q-43 0 -64.5 -36t-32.5 -102q-7 -35 -7 -71q0 -70 59 -70zM691 377q127 0 127 -127q0 -25 -7 -67q-18 -98 -56 -148t-123 -50q-125 0 -125 123q0 36 7 74q7 42 17.5 73t30 60.5t52 45.5
t77.5 16z" />
    <glyph glyph-name="ampersand" unicode="&#x26;" horiz-adv-x="662" 
d="M599 37l-77 -48l-74 104q-52 -52 -105.5 -79.5t-123.5 -27.5q-88 0 -139 50t-51 128q0 80 52.5 136.5t153.5 106.5q-56 81 -56 153q0 70 50.5 120t139.5 50q80 0 124 -39t44 -103q0 -67 -45.5 -116.5t-133.5 -89.5l102 -155q32 42 99 161l93 -7q-76 -145 -140 -220
q15 -22 87 -124zM319 446q62 28 93 56t31 73q0 32 -20 53.5t-60 21.5q-43 0 -65.5 -27t-22.5 -64q0 -50 44 -113zM402 157q-51 69 -125 185q-147 -68 -147 -158q0 -51 31 -82t81 -31q90 0 160 86z" />
    <glyph glyph-name="quotesingle" unicode="'" horiz-adv-x="222" 
d="M172 451h-74q0 12 14 123t20 141h100q-17 -94 -60 -264z" />
    <glyph glyph-name="parenleft" unicode="(" horiz-adv-x="315" 
d="M216 -60l-18 -97q-72 57 -118 157t-46 234q0 168 93 315.5t233 208.5l-17 -97q-99 -71 -156 -188t-57 -248q0 -169 86 -285z" />
    <glyph glyph-name="parenright" unicode=")" horiz-adv-x="316" 
d="M98 661l18 97q72 -57 118 -157t46 -234q0 -168 -93 -315.5t-233 -208.5l17 97q99 73 156 189.5t57 246.5q0 169 -86 285z" />
    <glyph glyph-name="asterisk" unicode="*" horiz-adv-x="449" 
d="M338 705l-35 -133l132 33l12 -84l-137 -8l72 -115l-76 -38l-50 128l-88 -103l-59 60l106 86l-126 52l40 76l114 -75l12 136z" />
    <glyph glyph-name="plus" unicode="+" 
d="M69 278v87h177v185h87v-185h178v-87h-178v-186h-87v186h-177z" />
    <glyph glyph-name="comma" unicode="," horiz-adv-x="261" 
d="M165 120l-128 -241h-90l110 241h108z" />
    <glyph glyph-name="hyphen" unicode="-" horiz-adv-x="389" 
d="M53 251l15 85h262l-15 -85h-262z" />
    <glyph glyph-name="period" unicode="." horiz-adv-x="235" 
d="M11 0l21 120h107l-21 -120h-107z" />
    <glyph glyph-name="slash" unicode="/" horiz-adv-x="389" 
d="M-41 -105l376 820h94l-375 -820h-95z" />
    <glyph glyph-name="zero" unicode="0" 
d="M356 730q204 0 204 -231q0 -67 -13 -141q-12 -63 -26.5 -112t-39.5 -100t-56.5 -84.5t-78.5 -54.5t-106 -21q-205 0 -205 230q0 69 13 140q10 62 24.5 112t39 100.5t56.5 84.5t80.5 55.5t107.5 21.5zM344 641q-55 0 -93 -41q-47 -49 -75.5 -170.5t-28.5 -220.5
q0 -137 103 -137q76 0 122 85q34 61 54 164.5t20 184.5q0 135 -102 135z" />
    <glyph glyph-name="one" unicode="1" 
d="M333 0h-101l93 526h-174q3 13 7.5 38.5t6.5 36.5q92 3 140.5 29t68.5 85h86z" />
    <glyph glyph-name="two" unicode="2" 
d="M482 91l-16 -91h-460l14 91q120 91 300 239q41 35 63 57t45.5 63t23.5 82q0 49 -31.5 79t-87.5 30q-64 0 -101 -40.5t-45 -114.5h-103q6 106 78 174.5t185 68.5q96 0 154 -49t58 -133q0 -40 -11.5 -77t-36 -72t-50.5 -64t-68 -63.5t-73.5 -58.5t-82 -61t-80.5 -60h325z
" />
    <glyph glyph-name="three" unicode="3" 
d="M20 206h104v-11q0 -51 32 -85t99 -34q69 0 109 43.5t40 106.5q0 120 -156 120l15 84q165 0 165 122q0 41 -26.5 64t-74.5 23q-54 0 -80.5 -26t-35.5 -77h-102q12 91 73.5 142t160.5 51q85 0 138 -41t53 -112q0 -70 -41 -118t-105 -65q57 -19 90 -61t33 -99
q0 -108 -72.5 -177.5t-190.5 -69.5q-106 0 -167.5 57t-61.5 144q0 3 0.5 9t0.5 10z" />
    <glyph glyph-name="four" unicode="4" 
d="M417 715h105q-11 -57 -22 -120.5t-24.5 -140.5t-21.5 -121l-17 -93q2 0 23 0.5t34 0.5h44l-15 -83h-100q-18 -106 -29 -158h-99l29 158h-334l14 77l274 317q103 119 139 163zM339 241l36 202q7 40 17.5 88t11.5 54h-2q-2 -3 -20.5 -28t-41.5 -54.5t-42 -52.5l-180 -210
q18 0 54.5 0.5t56.5 0.5h110z" />
    <glyph glyph-name="five" unicode="5" 
d="M245 623l-59 -201q59 44 136 44q81 0 139 -50.5t58 -147.5q0 -124 -71.5 -203.5t-199.5 -79.5q-110 0 -167.5 59t-61.5 151h102q16 -122 134 -122q70 0 115 52.5t45 126.5q0 61 -37 95.5t-94 34.5q-81 0 -119 -62l-92 16q17 58 106 379h369l-17 -92h-286z" />
    <glyph glyph-name="six" unicode="6" 
d="M567 531h-100q-5 111 -113 111q-139 0 -201 -257q20 27 64.5 50.5t101.5 23.5q91 0 148.5 -56.5t57.5 -151.5q0 -115 -72 -190t-185 -75q-231 0 -231 248q0 64 10.5 130t35.5 132.5t61 118t93 83.5t126 32q100 0 152 -55.5t52 -143.5zM292 377q-71 0 -111.5 -49.5
t-40.5 -117.5q0 -65 35.5 -103.5t93.5 -38.5q67 0 109.5 52t42.5 123q0 61 -35 97.5t-94 36.5z" />
    <glyph glyph-name="seven" unicode="7" 
d="M589 715l-15 -84q0 -1 -1 -2l-63 -98q-138 -210 -295 -487l-25 -44h-121l29 49q46 79 187 301q116 181 179 270v2q-7 -1 -55 -1h-285q13 81 16 94h449z" />
    <glyph glyph-name="eight" unicode="8" 
d="M186 387q-74 55 -74 143t62.5 143.5t170.5 55.5q91 0 145 -46t54 -116q0 -67 -35.5 -115t-96.5 -69q52 -26 78.5 -65t26.5 -101q0 -108 -73.5 -169.5t-196.5 -61.5q-102 0 -166 49t-64 139q0 75 44 131t125 82zM335 638q-56 0 -91 -30t-35 -85q0 -45 28.5 -71t79.5 -26
q55 0 90.5 32.5t35.5 85.5q0 42 -30 68t-78 26zM280 338q-65 0 -110 -40t-45 -105q0 -56 35.5 -88.5t95.5 -32.5q71 0 112.5 41t41.5 110q0 53 -35 84t-95 31z" />
    <glyph glyph-name="nine" unicode="9" 
d="M26 185h100q2 -53 31 -83t82 -30q138 0 199 262q-20 -28 -63 -51t-102 -23q-90 0 -148 58t-58 152q0 112 72.5 186t185.5 74q109 0 170 -62t61 -191q0 -81 -17.5 -162t-53.5 -157t-102.5 -124t-152.5 -48q-101 0 -152.5 54.5t-51.5 144.5zM324 645q-68 0 -110.5 -48.5
t-42.5 -122.5q0 -60 35.5 -95t93.5 -35q72 0 112.5 48t40.5 118q0 65 -36 100t-93 35z" />
    <glyph glyph-name="colon" unicode=":" horiz-adv-x="235" 
d="M74 367l21 120h108l-21 -120h-108zM9 0l21 120h108l-21 -120h-108z" />
    <glyph glyph-name="semicolon" unicode=";" horiz-adv-x="284" 
d="M99 367l21 120h107l-21 -120h-107zM51 -122h-88q6 13 19 39.5t19 40.5l24 55h-2h-1q8 18 24 53.5t23 53.5h109l-55 -108q-14 -25 -39 -72t-33 -62z" />
    <glyph glyph-name="less" unicode="&#x3c;" 
d="M466 573v-102q-39 -18 -109.5 -52.5t-123 -60t-66.5 -31.5v-3l71 -35q37 -19 120.5 -59t109.5 -53v-105q-67 36 -199 103.5t-199 103.5v84z" />
    <glyph glyph-name="equal" unicode="=" 
d="M66 449h445q0 -14 0.5 -42.5t0.5 -42.5h-445q-1 28 -1 85zM67 287h445v-85h-445v85z" />
    <glyph glyph-name="greater" unicode="&#x3e;" 
d="M109 471v102q86 -46 398 -210v-84q-60 -32 -192.5 -100t-203.5 -107q0 18 -0.5 53t-0.5 52q22 11 106 52t123 60l70 35v3q-5 2 -14.5 7t-26.5 13t-29 14z" />
    <glyph glyph-name="question" unicode="?" horiz-adv-x="514" 
d="M275 195h-94q12 73 40.5 118t94.5 93q97 67 97 140q0 43 -28 69t-81 26q-60 0 -93 -36.5t-40 -99.5h-100q6 104 71 164t170 60q96 0 150.5 -47t54.5 -119q0 -67 -30 -112.5t-92 -92.5q-63 -46 -87.5 -77t-32.5 -86zM142 0l22 120h103l-22 -120h-103z" />
    <glyph glyph-name="at" unicode="@" horiz-adv-x="826" 
d="M565 539h81q-2 -12 -20.5 -116t-27.5 -159q-4 -17 -4 -31q0 -24 30 -24q49 0 80.5 67.5t31.5 143.5q0 111 -76.5 183t-205.5 72q-142 0 -237 -96t-95 -243q0 -137 89 -221t230 -84q127 0 227 79l53 -27q-126 -108 -291 -108q-167 0 -271 99t-104 261q0 166 114.5 281
t287.5 115q148 0 244.5 -84t96.5 -214q0 -71 -21.5 -133t-69.5 -105t-114 -43q-36 0 -55.5 13.5t-24.5 31.5q-14 -17 -46 -32.5t-76 -15.5q-73 0 -115.5 45t-42.5 125q0 93 54.5 160.5t145.5 67.5q88 0 123 -61l1 6q1 5 2 11t1 8zM442 478q-59 0 -91.5 -47.5t-32.5 -112.5
q0 -48 24.5 -77t70.5 -29q61 0 93.5 47t32.5 111q0 108 -97 108z" />
    <glyph glyph-name="A" unicode="A" horiz-adv-x="695" 
d="M56 0h-110q70 120 208.5 357.5t207.5 357.5h124l158 -715h-106l-46 216h-313zM353 527l-128 -224h248l-38 191q-2 8 -11.5 57t-13.5 73h-2q-8 -14 -26.5 -46t-28.5 -51z" />
    <glyph glyph-name="B" unicode="B" horiz-adv-x="641" 
d="M33 0l127 715h212q39 0 70 -3t63.5 -12.5t54 -25t35.5 -42.5t14 -63q0 -78 -38 -126t-100 -65q110 -33 110 -148q0 -117 -86.5 -173.5t-227.5 -56.5h-234zM194 325l-42 -238h149q80 0 124.5 36t44.5 106q0 52 -36.5 74t-111.5 22h-128zM248 627l-38 -221h116q80 0 123 34
t43 98q0 51 -36.5 70t-116.5 19h-91z" />
    <glyph glyph-name="C" unicode="C" horiz-adv-x="748" 
d="M594 206h116q-106 -220 -340 -220q-141 0 -231 83.5t-90 232.5q0 114 44.5 210t134.5 156.5t208 60.5q123 0 201 -62t101 -170h-111q-17 63 -67.5 103t-131.5 40q-84 0 -146.5 -47.5t-91.5 -119t-29 -154.5q0 -114 56 -180t159 -66q145 0 218 133z" />
    <glyph glyph-name="D" unicode="D" horiz-adv-x="724" 
d="M33 0l127 715h134q73 0 129 -7t108.5 -27t86.5 -52.5t54 -85.5t20 -125q0 -166 -89 -277q-69 -88 -160 -114.5t-235 -26.5h-175zM249 625l-95 -536h92q88 0 154.5 25.5t104.5 70.5t56.5 101t18.5 122q0 106 -62.5 161.5t-182.5 55.5h-86z" />
    <glyph glyph-name="E" unicode="E" horiz-adv-x="585" 
d="M607 715l-17 -92h-341l-38 -212l318 1l-16 -92h-317l-41 -229h349l-17 -91h-454l127 715h447z" />
    <glyph glyph-name="F" unicode="F" horiz-adv-x="567" 
d="M593 715l-17 -92h-328l-37 -211h305l-16 -92h-305l-57 -320h-105l126 715h434z" />
    <glyph glyph-name="G" unicode="G" horiz-adv-x="775" 
d="M735 378l-67 -378h-97q-1 0 1.5 13.5t6.5 35.5t9 41q-89 -103 -243 -103q-131 0 -213 86t-82 245q0 168 108 289.5t279 121.5q124 0 201 -60t101 -169h-110q-42 140 -201 140q-122 0 -194 -93.5t-72 -221.5q0 -117 55 -184.5t161 -67.5q100 0 163.5 62.5t85.5 153.5
q-23 -1 -64 -1h-191l16 90h347z" />
    <glyph glyph-name="H" unicode="H" horiz-adv-x="716" 
d="M702 715l-128 -715h-105l58 322h-332l-57 -322h-105l127 715h105l-54 -304h332l54 304h105z" />
    <glyph glyph-name="I" unicode="I" horiz-adv-x="279" 
d="M33 0l127 715h105l-127 -715h-105z" />
    <glyph glyph-name="J" unicode="J" horiz-adv-x="495" 
d="M380 715h106l-90 -510q-19 -110 -69.5 -164.5t-154.5 -54.5q-81 0 -127.5 44.5t-46.5 119.5q0 9 2 31h95q-1 -7 -1 -18q0 -41 21.5 -66.5t62.5 -25.5q25 0 43 9t28.5 20t20 38t13 44t11.5 57z" />
    <glyph glyph-name="K" unicode="K" horiz-adv-x="595" 
d="M33 0l126 715h106q-6 -34 -18 -98.5t-17 -94.5l-23 -131q101 103 208 206.5t121 117.5h134q-46 -43 -167 -157t-189 -177q37 -62 115.5 -188.5t117.5 -192.5h-124q-151 249 -219 371l-22 -123l-43 -248h-106z" />
    <glyph glyph-name="L" unicode="L" horiz-adv-x="529" 
d="M33 0l126 715h106l-109 -624h313l-16 -91h-420z" />
    <glyph glyph-name="M" unicode="M" horiz-adv-x="888" 
d="M33 0l127 715h164l59 -391q6 -39 13.5 -112.5t10.5 -94.5h1q2 4 41.5 87t61.5 127l192 384h171l-127 -715h-102l66 369l49 260h-1q-36 -82 -123 -252l-192 -377h-111l-58 376q-20 127 -33 255h-1q-32 -210 -40 -252l-67 -379h-101z" />
    <glyph glyph-name="N" unicode="N" horiz-adv-x="740" 
d="M33 0l127 715h129l169 -418q13 -30 34.5 -90.5t27.5 -73.5l1 1q4 18 9 49.5t12.5 79.5t12.5 75l67 377h104l-127 -715h-129l-162 399l-70 183h-1q-4 -17 -10 -56t-16.5 -103t-17.5 -106l-56 -317h-104z" />
    <glyph glyph-name="O" unicode="O" horiz-adv-x="801" 
d="M443 729q147 0 236.5 -83.5t89.5 -230.5q0 -186 -107.5 -307.5t-289.5 -121.5q-145 0 -234 83t-89 235q0 175 108.5 300t285.5 125zM436 641q-130 0 -202.5 -95t-72.5 -226q0 -115 56.5 -181t162.5 -66q90 0 154 49t93 123t29 163q0 106 -59.5 169.5t-160.5 63.5z" />
    <glyph glyph-name="P" unicode="P" horiz-adv-x="610" 
d="M33 0l127 715h194q130 0 195.5 -39.5t65.5 -134.5q0 -64 -28.5 -119t-81.5 -90q-63 -41 -203 -41h-112l-52 -291h-105zM249 624l-43 -243h121q180 0 180 143q0 56 -39 78t-109 22h-110z" />
    <glyph glyph-name="Q" unicode="Q" horiz-adv-x="797" 
d="M620 -50l-66 76q-81 -40 -182 -40q-145 0 -234 83t-89 234q0 115 46 211t137 155.5t209 59.5q149 0 238.5 -83.5t89.5 -230.5q0 -103 -35 -190.5t-101 -144.5q46 -57 110 -130h-123zM493 97l-93 109h126q29 -32 44 -52q86 97 86 254q0 108 -58 170t-162 62
q-88 0 -152 -47.5t-93.5 -119t-29.5 -155.5q0 -114 56.5 -179.5t163.5 -65.5q63 0 112 24z" />
    <glyph glyph-name="R" unicode="R" horiz-adv-x="624" 
d="M33 0l127 715h216q133 0 186 -41q62 -47 62 -132q0 -99 -57 -162.5t-160 -81.5l126 -298h-116l-114 287h-113l-51 -287h-106zM249 625l-43 -251h124q92 0 137 37q49 39 49 110q0 104 -155 104h-112z" />
    <glyph glyph-name="S" unicode="S" horiz-adv-x="599" 
d="M13 203h102q0 -59 40.5 -95.5t115.5 -36.5q76 0 118.5 34.5t42.5 89.5q0 43 -29.5 68t-93.5 50l-41 16q-91 36 -131.5 75.5t-40.5 114.5q0 93 69 151.5t182 58.5q117 0 176 -56.5t59 -143.5h-104q-3 54 -40 83.5t-98 29.5q-65 0 -99.5 -29.5t-34.5 -78.5
q0 -40 21.5 -65.5t70.5 -43.5l58 -21q41 -15 66.5 -27.5t57 -35t47 -54t15.5 -72.5q0 -109 -75 -168.5t-203 -59.5q-121 0 -186 56.5t-65 153.5v6z" />
    <glyph glyph-name="T" unicode="T" horiz-adv-x="541" 
d="M163 0l110 623h-193l16 92h493l-17 -92h-194l-110 -623h-105z" />
    <glyph glyph-name="U" unicode="U" horiz-adv-x="677" 
d="M669 715l-79 -454q-25 -140 -92.5 -208t-198.5 -68q-117 0 -175 54.5t-58 155.5q0 43 23 168l62 352h105l-75 -424q-8 -35 -8 -85q0 -135 137 -135q84 0 121.5 50t54.5 153l79 441h104z" />
    <glyph glyph-name="V" unicode="V" horiz-adv-x="664" 
d="M288 102h2q22 45 110 214l211 399h115l-170 -310q-51 -94 -130.5 -240t-90.5 -165h-123q-19 100 -70 380t-62 335h108l68 -405q21 -129 32 -208z" />
    <glyph glyph-name="W" unicode="W" horiz-adv-x="924" 
d="M970 715l-284 -715h-148l-13 343l-9 276h-2q-85 -231 -115 -305l-127 -314h-151l-27 715h108l9 -411q1 -28 1 -208h3q38 104 81 207l166 412h143l19 -405q4 -109 4 -211h2q14 43 42.5 117t36.5 95l151 404h110z" />
    <glyph glyph-name="X" unicode="X" horiz-adv-x="625" 
d="M561 715h128q-47 -54 -156 -175.5t-155 -175.5l191 -364h-116q-96 183 -141 288q-26 -33 -238 -288h-126q47 54 156.5 178.5t159.5 183.5q-19 38 -181 353h115q16 -36 67 -139.5t68 -138.5q46 57 122 148.5t106 129.5z" />
    <glyph glyph-name="Y" unicode="Y" horiz-adv-x="593" 
d="M544 715h115q-63 -87 -179.5 -246t-140.5 -192l-49 -277h-105l49 277l-160 438h109l120 -347z" />
    <glyph glyph-name="Z" unicode="Z" horiz-adv-x="573" 
d="M602 715l-16 -86l-12 -15q-12 -15 -34.5 -43t-45.5 -54l-300 -340q-15 -17 -29.5 -33.5t-28.5 -32t-19 -20.5h1h382l-17 -91h-503l15 84q10 11 50 59t62 73l285 326q55 60 72 81h-362l17 92h483z" />
    <glyph glyph-name="bracketleft" unicode="[" horiz-adv-x="335" 
d="M249 650l-112 -633l-12 -67h113l-11 -67h-210q17 95 46.5 263.5t54 307.5t45.5 263h211l-11 -67h-114z" />
    <glyph glyph-name="backslash" unicode="\" horiz-adv-x="481" 
d="M93 717h96q33 -132 99 -404t101 -412h-98z" />
    <glyph glyph-name="bracketright" unicode="]" horiz-adv-x="334" 
d="M104 717h210q-24 -140 -73 -417t-73 -417h-208q5 38 10 67h112l124 700h-113z" />
    <glyph glyph-name="asciicircum" unicode="^" 
d="M547 292h-104q-20 42 -53.5 110t-64 128t-35.5 71h-3q-5 -14 -33 -69.5t-64 -127.5t-55 -112h-103q2 3 205 395h102q34 -63 102 -194.5t106 -200.5z" />
    <glyph glyph-name="underscore" unicode="_" horiz-adv-x="604" 
d="M-3 -77h476l-13 -72h-476z" />
    <glyph glyph-name="grave" unicode="`" horiz-adv-x="408" 
d="M211 596l-119 119h120l90 -119h-91z" />
    <glyph glyph-name="a" unicode="a" horiz-adv-x="560" 
d="M165 360h-101q15 83 78.5 132t164.5 49q94 0 144 -42.5t50 -123.5q0 -51 -10 -95l-23 -118q-19 -98 -19 -162h-91q0 17 9 70q-68 -80 -187 -80q-74 0 -122 34.5t-48 100.5q0 33 12.5 60t31.5 46t49 34t58.5 23.5t66.5 15.5t66.5 10t64.5 6l39 3q0 3 2.5 20.5t2.5 24.5
q0 44 -28 68.5t-80 24.5q-110 0 -130 -101zM381 224l6 30q-25 -5 -64.5 -10.5t-64 -9t-54.5 -11t-46.5 -17.5t-28 -27.5t-11.5 -41.5q0 -35 26.5 -54t72.5 -19q71 0 109.5 40.5t54.5 119.5z" />
    <glyph glyph-name="b" unicode="b" horiz-adv-x="639" 
d="M19 0l126 715h102l-23 -126q-2 -11 -10.5 -57t-12.5 -71q60 78 175 78q93 0 155 -63t62 -180q0 -131 -79 -222t-204 -91q-121 0 -177 91q-2 -9 -14 -74h-100zM345 455q-90 0 -139 -68.5t-49 -162.5q0 -73 36.5 -115t105.5 -42q88 0 137.5 66t49.5 158q0 75 -36 119.5
t-105 44.5z" />
    <glyph glyph-name="c" unicode="c" horiz-adv-x="585" 
d="M427 167h104q-62 -185 -263 -185q-107 0 -173 63t-66 178q0 135 82 226t216 91q102 0 163.5 -54t65.5 -137h-104q-4 44 -37 74.5t-96 30.5q-85 0 -134 -66.5t-49 -154.5q0 -79 35.5 -123t105.5 -44q99 0 150 101z" />
    <glyph glyph-name="d" unicode="d" horiz-adv-x="636" 
d="M636 715l-127 -715h-95l15 68q-59 -84 -185 -84q-93 0 -154 63t-61 180q0 123 79.5 218t202.5 95q69 0 112.5 -27.5t63.5 -63.5l19 108l28 158h102zM321 453q-88 0 -137.5 -67.5t-49.5 -159.5q0 -74 36.5 -117.5t104.5 -43.5q90 0 139 68.5t49 162.5q0 73 -37 115
t-105 42z" />
    <glyph glyph-name="e" unicode="e" horiz-adv-x="594" 
d="M425 148h105q-33 -73 -98.5 -119.5t-162.5 -46.5q-108 0 -174 61t-66 179q0 133 81 225.5t212 92.5q106 0 169.5 -62.5t63.5 -171.5q0 -32 -6 -70h-417v-5q0 -165 146 -165q97 0 147 82zM143 309l312 1q0 69 -37 108.5t-103 39.5t-110 -38.5t-62 -110.5z" />
    <glyph glyph-name="f" unicode="f" horiz-adv-x="303" 
d="M325 526l-14 -79h-89l-80 -447h-100l78 447h-71l14 79h71l11 59q24 138 178 138q11 0 25 -2q4 -1 13 -1l-16 -82h-15q-43 0 -61.5 -14.5t-25.5 -53.5q-2 -4 -3 -14t-2 -14l-3 -16h90z" />
    <glyph glyph-name="g" unicode="g" horiz-adv-x="638" 
d="M605 526l-78 -440q-27 -153 -97.5 -219.5t-197.5 -66.5q-108 0 -169.5 50.5t-71.5 131.5h102q26 -95 147 -95q152 0 184 183l5 29q-67 -76 -176 -76q-96 0 -157.5 59t-61.5 164q0 119 76.5 206.5t195.5 87.5q132 0 182 -94q9 48 16 80h101zM322 453q-86 0 -133 -60.5
t-47 -142.5q0 -148 141 -148q88 0 136.5 62.5t48.5 150.5q0 61 -38 99.5t-108 38.5z" />
    <glyph glyph-name="h" unicode="h" horiz-adv-x="603" 
d="M119 0h-100q21 120 62.5 357.5t62.5 357.5h103l-24 -133q-16 -96 -24 -136q17 33 65.5 62t112.5 29q79 0 122.5 -43.5t43.5 -113.5q0 -31 -5 -64l-56 -316h-101l48 283q6 40 6 65q0 105 -106 105q-67 0 -106 -45.5t-52 -119.5z" />
    <glyph glyph-name="i" unicode="i" horiz-adv-x="247" 
d="M19 0l93 526h102q-9 -51 -42.5 -236.5t-51.5 -289.5h-101zM124 601l20 114h105l-20 -114h-105z" />
    <glyph glyph-name="j" unicode="j" horiz-adv-x="247" 
d="M214 526l-100 -555q-16 -93 -52.5 -131t-111.5 -38q-29 0 -67 6l15 80q20 -3 35 -3q39 0 55 17.5t23 56.5l14 80q14 82 43.5 244t43.5 243h102zM123 601l20 114h105l-20 -114h-105z" />
    <glyph glyph-name="k" unicode="k" horiz-adv-x="530" 
d="M120 0h-101q21 120 62.5 357.5t62.5 357.5h103l-76 -423l100 91q85 77 150 142h134l-278 -243q119 -170 196 -282h-121l-119 177q-39 56 -65 98q-6 -32 -24 -137z" />
    <glyph glyph-name="l" unicode="l" horiz-adv-x="253" 
d="M23 0l124 715h103l-127 -715h-100z" />
    <glyph glyph-name="m" unicode="m" horiz-adv-x="943" 
d="M19 0l93 525h99l-14 -84q22 38 66.5 67.5t111.5 29.5q119 0 150 -101h1q25 38 74 69.5t122 31.5q79 0 120 -43.5t41 -114.5q0 -30 -5 -62l-56 -318h-101l48 285q6 38 6 63q0 106 -102 106q-58 0 -94.5 -39t-51.5 -103l-55 -312h-101l48 285q6 38 6 63q0 106 -102 106
q-62 0 -100 -45t-51 -118l-51 -291h-102z" />
    <glyph glyph-name="n" unicode="n" horiz-adv-x="604" 
d="M19 0l93 525h99l-14 -84q21 37 66.5 66.5t116.5 29.5q80 0 122 -43t42 -114q0 -30 -5 -62l-56 -318h-101l48 285q6 38 6 63q0 106 -108 106q-65 0 -104 -44.5t-52 -117.5l-51 -292h-102z" />
    <glyph glyph-name="o" unicode="o" horiz-adv-x="613" 
d="M327 539q113 0 176.5 -61t63.5 -176q0 -140 -77.5 -230t-217.5 -90q-111 0 -177 60.5t-66 174.5q0 135 79.5 228.5t218.5 93.5zM321 453q-91 0 -138.5 -67.5t-47.5 -158.5q0 -77 37 -119t108 -42q89 0 135 67.5t46 158.5q0 77 -35 119t-105 42z" />
    <glyph glyph-name="p" unicode="p" horiz-adv-x="638" 
d="M-13 -180l125 706h96l-7 -36l-9 -39q66 88 183 88q95 0 156 -62.5t61 -179.5q0 -131 -78.5 -222.5t-202.5 -91.5q-72 0 -116.5 28t-61.5 63q-10 -54 -46 -254h-100zM344 455q-89 0 -138 -67.5t-49 -159.5q0 -77 35.5 -119t106.5 -42q89 0 138 67t49 160q0 74 -37 117.5
t-105 43.5z" />
    <glyph glyph-name="q" unicode="q" horiz-adv-x="636" 
d="M603 526l-126 -706h-101q7 36 18.5 95.5t19.5 99.5t11 53q-57 -84 -181 -84q-93 0 -154 64t-61 179q0 124 80 218t205 94q118 0 175 -90l13 77h101zM321 452q-89 0 -138 -66t-49 -160q0 -74 36.5 -117t104.5 -43q90 0 139 67.5t49 159.5q0 76 -35.5 117.5t-106.5 41.5z
" />
    <glyph glyph-name="r" unicode="r" horiz-adv-x="336" 
d="M361 532l-16 -91q-28 4 -37 4q-65 0 -95 -42t-45 -130l-48 -273h-101l92 526h96l-17 -86q0 -1 1 -1q18 42 54.5 69t82.5 27q12 0 33 -3z" />
    <glyph glyph-name="s" unicode="s" horiz-adv-x="497" 
d="M462 377h-89q-12 81 -113 81q-46 0 -72 -19t-26 -51q0 -28 17.5 -42t70.5 -33l32 -12q80 -28 115 -56t35 -85q0 -83 -59 -130.5t-161 -47.5q-96 0 -149 46.5t-58 136.5h91q3 -41 34.5 -71t88.5 -30q55 0 84.5 22t29.5 56q0 17 -5 28t-21.5 20.5t-26 13.5t-41.5 15l-44 15
q-71 25 -102.5 52.5t-31.5 85.5q0 75 57.5 121.5t151.5 46.5q86 0 139 -39.5t53 -112.5v-11z" />
    <glyph glyph-name="t" unicode="t" horiz-adv-x="320" 
d="M38 447l14 79h82l25 141h103l-26 -141h101l-14 -79h-101l-51 -289q-4 -21 -4 -42q0 -29 14.5 -41t50.5 -12h15l-13 -72q-13 -3 -39 -3q-136 0 -136 91q0 14 6 54l55 314h-82z" />
    <glyph glyph-name="u" unicode="u" horiz-adv-x="597" 
d="M563 525l-93 -525h-97l14 79q-20 -36 -66.5 -65t-115.5 -29q-81 0 -121 41t-40 112q0 33 5 65l57 322h103l-52 -288q-6 -38 -6 -63q0 -106 106 -106q63 0 101 44.5t51 117.5l52 295h102z" />
    <glyph glyph-name="v" unicode="v" horiz-adv-x="528" 
d="M553 526l-295 -526h-102q-18 87 -53 264.5t-53 261.5h106l45 -273q21 -126 23 -151h2q25 54 53 109l163 315h111z" />
    <glyph glyph-name="w" unicode="w" horiz-adv-x="804" 
d="M242 0h-111q-12 76 -25 165t-27.5 195.5t-23.5 165.5h100q30 -262 31 -269l15 -164l1 -1h2l102 251q31 76 77 183h103q4 -61 16 -200t19 -233q1 0 3 -1q11 25 30.5 70.5t38 87t37.5 83.5l89 193h104l-260 -526h-115q-33 279 -33 410h-3q-67 -190 -170 -410z" />
    <glyph glyph-name="x" unicode="x" horiz-adv-x="507" 
d="M405 526h118q-31 -36 -112 -129t-111 -129q14 -25 69.5 -124.5t78.5 -143.5h-111q-84 163 -101 200q-25 -32 -85.5 -105t-77.5 -95h-116q33 36 236 269l-138 257h108l92 -188q46 54 150 188z" />
    <glyph glyph-name="y" unicode="y" horiz-adv-x="528" 
d="M151 -180h-104l109 189q-38 187 -107 516h108q12 -71 36.5 -212.5t33.5 -198.5q77 140 216 411h110q-49 -85 -153 -272t-162 -287q-48 -84 -87 -146z" />
    <glyph glyph-name="z" unicode="z" horiz-adv-x="491" 
d="M484 526l-14 -79q-235 -251 -357 -368q78 2 142 2h162l-14 -81h-415l12 77l264 277q38 40 93 92q-18 0 -70.5 -0.5t-72.5 -0.5h-152q3 13 16 81h406z" />
    <glyph glyph-name="braceleft" unicode="{" horiz-adv-x="302" 
d="M128 311q0 -1 -0.5 -1t-0.5 -1q28 -13 39.5 -29t12.5 -45q0 -16 -5 -48l-31 -170q-4 -17 -4 -36q0 -29 25 -37l28 -3l-9 -62h-29q-64 0 -89 16t-25 60q0 17 5 49l32 180q3 17 5 46q0 29 -11.5 41.5t-39.5 21.5l7 39q39 6 56.5 28.5t27.5 81.5q26 157 32 177q18 69 60 88
q29 14 82 14h10t9.5 -0.5t8 -0.5h5.5h2l-11 -63h-24q-24 -3 -35.5 -19t-18.5 -57l-19 -112q-15 -84 -31.5 -113t-63.5 -45z" />
    <glyph glyph-name="bar" unicode="|" horiz-adv-x="276" 
d="M167 732h92l-141 -802h-92z" />
    <glyph glyph-name="braceright" unicode="}" horiz-adv-x="302" 
d="M172 290v1l1 1q-28 13 -40 29t-12 44q0 35 10 79l25 137q4 17 4 37q0 23 -11.5 30t-41.5 10l9 62h2h4t6 0.5t8 0.5h9q63 0 88.5 -17t25.5 -60q0 -18 -5 -50l-31 -177q-5 -32 -5 -46q0 -29 11.5 -41.5t39.5 -21.5l-7 -39q-33 -5 -49 -21t-27 -54q-22 -81 -36 -190
q-12 -71 -42.5 -98.5t-103.5 -27.5h-10h-9.5t-8 0.5t-5.5 0.5h-2l11 63q40 0 56.5 17t24.5 80q25 152 37 184q17 43 58 61q7 3 16 6z" />
    <glyph glyph-name="asciitilde" unicode="~" 
d="M91 233l-60 43q59 108 143 108q36 0 114 -37t107 -37q54 0 88 70l63 -41q-62 -112 -146 -112q-37 0 -95 26l-57 24q-52 24 -75 23q-53 0 -82 -67z" />
    <glyph glyph-name="uni00A0" unicode="&#xa0;" horiz-adv-x="251" 
 />
    <glyph glyph-name="exclamdown" unicode="&#xa1;" horiz-adv-x="263" 
d="M100 337h74q-48 -353 -60 -424l-20 -109h-103l20 109q12 72 27 143.5t35 161t27 119.5zM223 525l-22 -121h-104l22 121h104z" />
    <glyph glyph-name="cent" unicode="&#xa2;" 
d="M422 167h104q-57 -173 -243 -184l-11 -67h-85l12 73q-81 18 -128 77.5t-47 156.5q0 127 74.5 216.5t197.5 99.5l14 80h85l-15 -85q78 -15 122.5 -65t48.5 -120h-104q-10 77 -82 98l-67 -379q82 14 124 99zM131 233q0 -125 84 -157l65 374q-70 -13 -109.5 -76.5
t-39.5 -140.5z" />
    <glyph glyph-name="sterling" unicode="&#xa3;" 
d="M481 85l-14 -85h-449q2 17 6 42t6 36q74 13 112 56.5t38 113.5q0 35 -12 80h-121l14 81h86q-9 37 -9 82q0 105 63.5 171.5t172.5 66.5q95 0 149 -51t53 -146h-99q-2 52 -30 80.5t-79 28.5q-62 0 -93.5 -40t-31.5 -102q0 -35 11 -86h165l-16 -85h-137q11 -52 11 -86
q0 -96 -84 -155l-1 -3q35 1 116 1h173z" />
    <glyph glyph-name="currency" unicode="&#xa4;" 
d="M485 108l-49 49q-64 -43 -138 -43q-75 0 -139 43l-50 -50l-65 65l50 50q-41 59 -41 137q0 74 43 138l-52 52l65 65l52 -52q61 42 137 42q75 0 136 -42l51 51l65 -65l-51 -51q44 -64 44 -138q0 -76 -42 -137l49 -49zM137 359q0 -66 47.5 -113.5t113.5 -47.5t113.5 47.5
t47.5 113.5t-47.5 113.5t-113.5 47.5t-113.5 -47.5t-47.5 -113.5z" />
    <glyph glyph-name="yen" unicode="&#xa5;" 
d="M650 715l-183 -250h99l-12 -71h-139q-29 -39 -85 -117h203l-12 -71h-204l-36 -206h-105l36 206h-194l11 71h196l-43 117h-132l12 71h94l-91 250h109l120 -347l241 347h115z" />
    <glyph glyph-name="brokenbar" unicode="&#xa6;" horiz-adv-x="228" 
d="M91 428l53 303h89l-53 -303h-89zM5 -62l53 303h89l-53 -303h-89z" />
    <glyph glyph-name="section" unicode="&#xa7;" 
d="M247 577q0 -27 15.5 -42t49.5 -33l79 -40q38 -20 59.5 -34t39.5 -40.5t18 -59.5q0 -55 -31.5 -96.5t-84.5 -59.5q59 -41 59 -101q0 -84 -59.5 -131.5t-161.5 -47.5q-92 0 -146.5 47t-59.5 136h91q3 -41 34.5 -71t88.5 -30q55 0 84.5 22t29.5 56q0 20 -13.5 37t-28.5 25.5
t-45 23.5l-84 41q-60 29 -86 61.5t-26 85.5q0 49 32 85.5t88 55.5q-43 33 -43 96q0 73 58 119t151 46q84 0 138 -40t54 -112v-11h-89q-12 81 -113 81q-46 0 -72 -18.5t-26 -50.5zM229 263l100 -49q32 9 57.5 34t25.5 57q0 29 -24 49t-77 44l-58 27q-89 -17 -89 -80
q0 -28 15.5 -47t49.5 -35z" />
    <glyph glyph-name="dieresis" unicode="&#xa8;" horiz-adv-x="491" 
d="M132 603l17 96h98l-17 -96h-98zM301 603l17 96h97l-17 -96h-97z" />
    <glyph glyph-name="copyright" unicode="&#xa9;" horiz-adv-x="851" 
d="M559 272h75q-25 -65 -76 -101.5t-125 -36.5q-94 0 -154.5 62t-60.5 161t60.5 161.5t156.5 62.5q76 0 127 -37t72 -106h-74q-36 83 -125 83q-66 0 -104 -45t-38 -118t38 -118.5t104 -45.5q86 0 124 78zM811 360q0 -158 -110 -267.5t-268 -109.5q-156 0 -265.5 110
t-109.5 267t109.5 266.5t267.5 109.5q156 0 266 -110t110 -266zM754 360q0 135 -93.5 228.5t-225.5 93.5q-135 0 -227 -93.5t-92 -228.5t92 -229.5t226 -94.5q132 0 226 94.5t94 229.5z" />
    <glyph glyph-name="ordfeminine" unicode="&#xaa;" horiz-adv-x="456" 
d="M183 448h-78q10 62 58 99.5t124 37.5q70 0 108.5 -32t38.5 -92q0 -35 -8 -72q-3 -15 -8.5 -44t-8.5 -44q-14 -75 -14 -122h-71q0 9 6 49q-56 -56 -137 -56q-57 0 -93 25.5t-36 75.5q0 42 24.5 71.5t69 44.5t81 21t87.5 10q2 0 5.5 0.5t4.5 0.5l18 2q0 1 2 11q2 14 2 21
q0 32 -20.5 50t-59.5 18q-81 0 -95 -75zM221 229q95 0 121 118l3 21q-11 -2 -30.5 -4.5t-25.5 -3.5q-28 -4 -38 -5.5t-32 -6t-30.5 -9.5t-20.5 -13t-16.5 -19t-4.5 -25q0 -26 20 -39.5t54 -13.5zM347 369l-1 1l-1 -2q1 0 1 0.5t1 0.5z" />
    <glyph glyph-name="guillemotleft" unicode="&#xab;" horiz-adv-x="502" 
d="M282 473l-134 -187l58 -188h-88l-73 190l137 185h100zM481 473l-134 -187l58 -188h-88l-73 190l137 185h100z" />
    <glyph glyph-name="logicalnot" unicode="&#xac;" 
d="M30 380v87h504v-330h-89v243h-415z" />
    <glyph glyph-name="uni00AD" unicode="&#xad;" horiz-adv-x="389" 
d="M53 251l15 85h262l-15 -85h-262z" />
    <glyph glyph-name="registered" unicode="&#xae;" horiz-adv-x="556" 
d="M225 367v263h91q45 0 69 -15q31 -19 31 -61q0 -62 -62 -78l66 -109h-54l-62 103h-31v-103h-48zM273 590v-80h39q57 0 57 41q0 39 -57 39h-39zM544 500q0 -98 -68 -166t-166 -68q-96 0 -164.5 68.5t-68.5 165.5t68 165t166 68q96 0 164.5 -68.5t68.5 -164.5zM499 500
q0 79 -55.5 134.5t-132.5 55.5q-79 0 -133.5 -55.5t-54.5 -134.5q0 -80 54 -135.5t133 -55.5q78 0 133.5 56t55.5 135z" />
    <glyph glyph-name="macron" unicode="&#xaf;" horiz-adv-x="428" 
d="M82 618l11 67h262l-11 -67h-262z" />
    <glyph glyph-name="degree" unicode="&#xb0;" horiz-adv-x="421" 
d="M254 400q-70 0 -118.5 47.5t-48.5 116.5q0 70 48.5 117.5t118.5 47.5t118 -47.5t48 -117.5t-47.5 -117t-118.5 -47zM158 564q0 -40 28 -67.5t68 -27.5t67.5 27t27.5 68q0 40 -28 68t-67 28q-40 0 -68 -27.5t-28 -68.5z" />
    <glyph glyph-name="plusminus" unicode="&#xb1;" 
d="M53 319v87h177v145h87v-145h178v-87h-178v-145h-87v145h-177zM54 0v87h442v-87h-442z" />
    <glyph glyph-name="twosuperior" unicode="&#xb2;" horiz-adv-x="420" 
d="M59 274l12 64q39 31 78.5 61t60.5 46.5t41 34.5q75 63 75 113q0 27 -17 43t-47 16q-35 0 -55 -21.5t-23 -57.5h-77q2 62 48 106.5t120 44.5q62 0 97.5 -32t35.5 -84q0 -94 -146 -204q-18 -13 -86 -59h190l-15 -71h-292z" />
    <glyph glyph-name="threesuperior" unicode="&#xb3;" horiz-adv-x="396" 
d="M198 483l10 59q101 -2 101 70q0 24 -15.5 37.5t-41.5 13.5q-60 0 -68 -63h-70q8 59 46 91.5t99 32.5q54 0 87 -26t33 -71q0 -43 -22.5 -71.5t-58.5 -40.5q69 -30 69 -100q0 -67 -45.5 -110.5t-119.5 -43.5q-71 0 -109 40.5t-34 100.5h72q-3 -34 15 -56t60 -22
q41 0 64.5 26t23.5 64q0 69 -96 69z" />
    <glyph glyph-name="acute" unicode="&#xb4;" horiz-adv-x="427" 
d="M358 715l-160 -119h-103l133 119h130z" />
    <glyph glyph-name="mu" unicode="&#xb5;" horiz-adv-x="603" 
d="M569 525l-93 -525h-97l14 79q-26 -44 -72.5 -67t-101.5 -23q-51 0 -98 21l-35 -190h-100l126 705h103l-52 -288q-6 -38 -6 -63q0 -106 106 -106q63 0 101 44.5t51 117.5l52 295h102z" />
    <glyph glyph-name="paragraph" unicode="&#xb6;" horiz-adv-x="635" 
d="M388 638l-132 -750h-85l82 466q-89 0 -135.5 45t-46.5 114q0 129 111 179q50 23 151 23h305l-13 -77h-43l-131 -750h-85l131 750h-109z" />
    <glyph glyph-name="periodcentered" unicode="&#xb7;" horiz-adv-x="235" 
d="M55 258l21 120h107l-21 -120h-107z" />
    <glyph glyph-name="cedilla" unicode="&#xb8;" horiz-adv-x="369" 
d="M104 -163l112 114h105l-97 -114h-120z" />
    <glyph glyph-name="onesuperior" unicode="&#xb9;" horiz-adv-x="280" 
d="M186 591h-107l10 57q58 2 86.5 17t41.5 50h65l-79 -437h-74z" />
    <glyph glyph-name="ordmasculine" unicode="&#xba;" horiz-adv-x="489" 
d="M298 582q85 0 133 -45.5t48 -131.5q0 -106 -58 -173t-164 -67q-84 0 -133.5 45t-49.5 131q0 102 59.5 171.5t164.5 69.5zM293 516q-67 0 -102 -49.5t-35 -118.5q0 -118 106 -118q67 0 101 49t34 118q0 56 -26 87.5t-78 31.5z" />
    <glyph glyph-name="guillemotright" unicode="&#xbb;" horiz-adv-x="502" 
d="M213 98l134 186l-58 189h86l75 -190l-139 -185h-98zM14 98l134 186l-58 189h86l75 -190l-139 -185h-98z" />
    <glyph glyph-name="onequarter" unicode="&#xbc;" horiz-adv-x="804" 
d="M592 0l18 97h-210l8 48l260 295h67l-54 -289h61l-9 -54h-61l-17 -97h-63zM618 151l22 115q16 75 20 92h-1q-72 -91 -176 -207h135zM142 0l426 715h74l-425 -715h-75zM189 591h-107l10 57q58 2 86.5 17t41.5 50h65l-79 -437h-74z" />
    <glyph glyph-name="onehalf" unicode="&#xbd;" horiz-adv-x="808" 
d="M418 0l12 64q153 120 180 144q75 63 75 113q0 27 -17 43t-47 16q-35 0 -55 -21.5t-23 -57.5h-77q2 62 48 106.5t120 44.5q62 0 97.5 -32t35.5 -84q0 -94 -146 -204q-39 -29 -86 -61h190l-15 -71h-292zM119 0l426 715h74l-425 -715h-75zM189 591h-107l10 57q58 2 86.5 17
t41.5 50h65l-79 -437h-74z" />
    <glyph glyph-name="threequarters" unicode="&#xbe;" horiz-adv-x="892" 
d="M680 0l18 97h-210l8 48l260 295h68l-54 -289h60l-9 -54h-60l-17 -97h-64zM706 151l22 115q16 75 20 92h-1q-72 -91 -176 -207h135zM230 0l426 715h74l-425 -715h-75zM193 483l10 59q101 -2 101 70q0 24 -15.5 37.5t-41.5 13.5q-60 0 -68 -63h-70q8 59 46 91.5t99 32.5
q54 0 87 -26t33 -71q0 -43 -22.5 -71.5t-58.5 -40.5q69 -30 69 -100q0 -67 -45.5 -110.5t-119.5 -43.5q-71 0 -109 40.5t-34 100.5h72q-3 -34 15 -56t60 -22q41 0 64.5 26t23.5 64q0 69 -96 69z" />
    <glyph glyph-name="questiondown" unicode="&#xbf;" horiz-adv-x="506" 
d="M218 330h94q-12 -73 -40.5 -118t-94.5 -93q-97 -67 -97 -140q0 -43 28 -69t81 -26q60 0 93 36.5t40 99.5h100q-6 -104 -71 -164t-170 -60q-96 0 -150.5 47t-54.5 119q0 67 30 112.5t92 92.5q63 46 87.5 77t32.5 86zM351 525l-22 -120h-103l22 120h103z" />
    <glyph glyph-name="Agrave" unicode="&#xc0;" horiz-adv-x="695" 
d="M56 0h-110q70 120 208.5 357.5t207.5 357.5h124l158 -715h-106l-46 216h-313zM353 527l-128 -224h248l-38 191q-2 8 -11.5 57t-13.5 73h-2q-8 -14 -26.5 -46t-28.5 -51zM388 761l-123 114h123l92 -114h-92z" />
    <glyph glyph-name="Aacute" unicode="&#xc1;" horiz-adv-x="695" 
d="M56 0h-110q70 120 208.5 357.5t207.5 357.5h124l158 -715h-106l-46 216h-313zM353 527l-128 -224h248l-38 191q-2 8 -11.5 57t-13.5 73h-2q-8 -14 -26.5 -46t-28.5 -51zM624 875l-153 -114h-106l129 114h130z" />
    <glyph glyph-name="Acircumflex" unicode="&#xc2;" horiz-adv-x="695" 
d="M56 0h-110q70 120 208.5 357.5t207.5 357.5h124l158 -715h-106l-46 216h-313zM353 527l-128 -224h248l-38 191q-2 8 -11.5 57t-13.5 73h-2q-8 -14 -26.5 -46t-28.5 -51zM395 876h101q67 -97 80 -115h-85l-51 64l-72 -64h-95q73 68 122 115z" />
    <glyph glyph-name="Atilde" unicode="&#xc3;" horiz-adv-x="695" 
d="M56 0h-110q70 120 208.5 357.5t207.5 357.5h124l158 -715h-106l-46 216h-313zM353 527l-128 -224h248l-38 191q-2 8 -11.5 57t-13.5 73h-2q-8 -14 -26.5 -46t-28.5 -51zM346 763h-62q2 49 24.5 78.5t61.5 29.5q29 0 74 -23q38 -18 52 -18q25 0 32 40h60q-2 -49 -24.5 -79
t-59.5 -30q-27 0 -67 19q-43 22 -58 22q-25 0 -33 -39z" />
    <glyph glyph-name="Adieresis" unicode="&#xc4;" horiz-adv-x="695" 
d="M56 0h-110q70 120 208.5 357.5t207.5 357.5h124l158 -715h-106l-46 216h-313zM353 527l-128 -224h248l-38 191q-2 8 -11.5 57t-13.5 73h-2q-8 -14 -26.5 -46t-28.5 -51zM295 766l17 96h98l-17 -96h-98zM464 766l17 96h97l-17 -96h-97z" />
    <glyph glyph-name="Aring" unicode="&#xc5;" horiz-adv-x="695" 
d="M56 0h-110q70 120 208.5 357.5t207.5 357.5h124l158 -715h-106l-46 216h-313zM353 527l-128 -224h248l-38 191q-2 8 -11.5 57t-13.5 73h-2q-8 -14 -26.5 -46t-28.5 -51zM434 748q-37 0 -62 25.5t-25 63.5q0 36 25.5 61.5t62.5 25.5t62.5 -25.5t25.5 -61.5
q0 -38 -25.5 -63.5t-63.5 -25.5zM391 837q0 -19 12.5 -32t30.5 -13q19 0 31.5 12.5t12.5 32.5q0 17 -13 30t-31 13t-30.5 -13t-12.5 -30z" />
    <glyph glyph-name="AE" unicode="&#xc6;" horiz-adv-x="899" 
d="M921 715l-17 -92h-322l-31 -211h292l-16 -92h-289l-34 -228h314l-17 -92h-414l29 184h-238l-132 -184h-112l526 715h461zM428 274l22 142q12 76 32 193h-5q-30 -49 -104 -154l-129 -181h184z" />
    <glyph glyph-name="Ccedilla" unicode="&#xc7;" horiz-adv-x="748" 
d="M594 206h116q-106 -220 -340 -220q-141 0 -231 83.5t-90 232.5q0 114 44.5 210t134.5 156.5t208 60.5q123 0 201 -62t101 -170h-111q-17 63 -67.5 103t-131.5 40q-84 0 -146.5 -47.5t-91.5 -119t-29 -154.5q0 -114 56 -180t159 -66q145 0 218 133zM211 -163l112 114h101
l-97 -114h-116z" />
    <glyph glyph-name="Egrave" unicode="&#xc8;" horiz-adv-x="585" 
d="M607 715l-17 -92h-341l-38 -212l318 1l-16 -92h-317l-41 -229h349l-17 -91h-454l127 715h447zM370 761l-123 114h123l92 -114h-92z" />
    <glyph glyph-name="Eacute" unicode="&#xc9;" horiz-adv-x="585" 
d="M607 715l-17 -92h-341l-38 -212l318 1l-16 -92h-317l-41 -229h349l-17 -91h-454l127 715h447zM562 875l-153 -114h-106l129 114h130z" />
    <glyph glyph-name="Ecircumflex" unicode="&#xca;" horiz-adv-x="585" 
d="M607 715l-17 -92h-341l-38 -212l318 1l-16 -92h-317l-41 -229h349l-17 -91h-454l127 715h447zM355 876h101q67 -97 80 -115h-85l-51 64l-72 -64h-95q73 68 122 115z" />
    <glyph glyph-name="Edieresis" unicode="&#xcb;" horiz-adv-x="585" 
d="M607 715l-17 -92h-341l-38 -212l318 1l-16 -92h-317l-41 -229h349l-17 -91h-454l127 715h447zM255 766l17 96h98l-17 -96h-98zM424 766l17 96h97l-17 -96h-97z" />
    <glyph glyph-name="Igrave" unicode="&#xcc;" horiz-adv-x="279" 
d="M33 0l127 715h105l-127 -715h-105zM190 761l-123 114h123l92 -114h-92z" />
    <glyph glyph-name="Iacute" unicode="&#xcd;" horiz-adv-x="279" 
d="M33 0l127 715h105l-127 -715h-105zM421 875l-153 -114h-106l129 114h130z" />
    <glyph glyph-name="Icircumflex" unicode="&#xce;" horiz-adv-x="279" 
d="M33 0l127 715h105l-127 -715h-105zM192 876h101q67 -97 80 -115h-85l-51 64l-72 -64h-95q73 68 122 115z" />
    <glyph glyph-name="Idieresis" unicode="&#xcf;" horiz-adv-x="279" 
d="M33 0l127 715h105l-127 -715h-105zM91 766l17 96h98l-17 -96h-98zM260 766l17 96h97l-17 -96h-97z" />
    <glyph glyph-name="Eth" unicode="&#xd0;" horiz-adv-x="729" 
d="M28 322l15 81h67l56 312h133q104 0 169 -11t119 -46q111 -72 111 -240q0 -101 -40.5 -194t-119.5 -149q-64 -46 -138 -60.5t-188 -14.5h-173l57 322h-68zM469 146q57 40 86.5 112.5t29.5 148.5q0 106 -61.5 162t-181.5 56h-87l-39 -222h133l-15 -81h-132l-41 -232h92
q134 0 216 56z" />
    <glyph glyph-name="Ntilde" unicode="&#xd1;" horiz-adv-x="740" 
d="M33 0l127 715h129l169 -418q13 -30 34.5 -90.5t27.5 -73.5l1 1q4 18 9 49.5t12.5 79.5t12.5 75l67 377h104l-127 -715h-129l-162 399l-70 183h-1q-4 -17 -10 -56t-16.5 -103t-17.5 -106l-56 -317h-104zM367 763h-62q2 49 24.5 78.5t61.5 29.5q29 0 74 -23q38 -18 52 -18
q25 0 32 40h60q-2 -49 -24.5 -79t-59.5 -30q-27 0 -67 19q-43 22 -58 22q-26 0 -33 -39z" />
    <glyph glyph-name="Ograve" unicode="&#xd2;" horiz-adv-x="801" 
d="M443 729q147 0 236.5 -83.5t89.5 -230.5q0 -186 -107.5 -307.5t-289.5 -121.5q-145 0 -234 83t-89 235q0 175 108.5 300t285.5 125zM436 641q-130 0 -202.5 -95t-72.5 -226q0 -115 56.5 -181t162.5 -66q90 0 154 49t93 123t29 163q0 106 -59.5 169.5t-160.5 63.5z
M436 761l-123 114h123l92 -114h-92z" />
    <glyph glyph-name="Oacute" unicode="&#xd3;" horiz-adv-x="801" 
d="M443 729q147 0 236.5 -83.5t89.5 -230.5q0 -186 -107.5 -307.5t-289.5 -121.5q-145 0 -234 83t-89 235q0 175 108.5 300t285.5 125zM436 641q-130 0 -202.5 -95t-72.5 -226q0 -115 56.5 -181t162.5 -66q90 0 154 49t93 123t29 163q0 106 -59.5 169.5t-160.5 63.5z
M651 875l-153 -114h-106l129 114h130z" />
    <glyph glyph-name="Ocircumflex" unicode="&#xd4;" horiz-adv-x="801" 
d="M443 729q147 0 236.5 -83.5t89.5 -230.5q0 -186 -107.5 -307.5t-289.5 -121.5q-145 0 -234 83t-89 235q0 175 108.5 300t285.5 125zM436 641q-130 0 -202.5 -95t-72.5 -226q0 -115 56.5 -181t162.5 -66q90 0 154 49t93 123t29 163q0 106 -59.5 169.5t-160.5 63.5z
M431 876h101q67 -97 80 -115h-85l-51 64l-72 -64h-95q73 68 122 115z" />
    <glyph glyph-name="Otilde" unicode="&#xd5;" horiz-adv-x="801" 
d="M443 729q147 0 236.5 -83.5t89.5 -230.5q0 -186 -107.5 -307.5t-289.5 -121.5q-145 0 -234 83t-89 235q0 175 108.5 300t285.5 125zM436 641q-130 0 -202.5 -95t-72.5 -226q0 -115 56.5 -181t162.5 -66q90 0 154 49t93 123t29 163q0 106 -59.5 169.5t-160.5 63.5z
M389 763h-62q2 49 24.5 78.5t61.5 29.5q29 0 74 -23q38 -18 52 -18q25 0 32 40h60q-2 -49 -24.5 -79t-59.5 -30q-27 0 -67 19q-43 22 -58 22q-26 0 -33 -39z" />
    <glyph glyph-name="Odieresis" unicode="&#xd6;" horiz-adv-x="801" 
d="M443 729q147 0 236.5 -83.5t89.5 -230.5q0 -186 -107.5 -307.5t-289.5 -121.5q-145 0 -234 83t-89 235q0 175 108.5 300t285.5 125zM436 641q-130 0 -202.5 -95t-72.5 -226q0 -115 56.5 -181t162.5 -66q90 0 154 49t93 123t29 163q0 106 -59.5 169.5t-160.5 63.5z
M324 766l17 96h98l-17 -96h-98zM493 766l17 96h97l-17 -96h-97z" />
    <glyph glyph-name="multiply" unicode="&#xd7;" 
d="M131 104l-59 59l159 158l-159 158l59 59l158 -158l159 159l59 -59l-159 -159l159 -159l-59 -59l-159 159z" />
    <glyph glyph-name="Oslash" unicode="&#xd8;" horiz-adv-x="801" 
d="M442 729q97 0 173 -39l52 67l72 -55l-51 -66q81 -84 81 -221q0 -186 -107.5 -307.5t-289.5 -121.5q-87 0 -159 32l-51 -67l-72 55l48 62q-89 87 -89 236q0 175 108 300t285 125zM436 641q-130 0 -202.5 -95t-72.5 -226q0 -104 43 -165l351 456q-49 30 -119 30zM656 408
q0 81 -36 139l-347 -452q45 -22 107 -22q90 0 154 49t93 123t29 163z" />
    <glyph glyph-name="Ugrave" unicode="&#xd9;" horiz-adv-x="677" 
d="M669 715l-79 -454q-25 -140 -92.5 -208t-198.5 -68q-117 0 -175 54.5t-58 155.5q0 43 23 168l62 352h105l-75 -424q-8 -35 -8 -85q0 -135 137 -135q84 0 121.5 50t54.5 153l79 441h104zM395 761l-123 114h123l92 -114h-92z" />
    <glyph glyph-name="Uacute" unicode="&#xda;" horiz-adv-x="677" 
d="M669 715l-79 -454q-25 -140 -92.5 -208t-198.5 -68q-117 0 -175 54.5t-58 155.5q0 43 23 168l62 352h105l-75 -424q-8 -35 -8 -85q0 -135 137 -135q84 0 121.5 50t54.5 153l79 441h104zM597 875l-153 -114h-106l129 114h130z" />
    <glyph glyph-name="Ucircumflex" unicode="&#xdb;" horiz-adv-x="677" 
d="M669 715l-79 -454q-25 -140 -92.5 -208t-198.5 -68q-117 0 -175 54.5t-58 155.5q0 43 23 168l62 352h105l-75 -424q-8 -35 -8 -85q0 -135 137 -135q84 0 121.5 50t54.5 153l79 441h104zM383 876h101q67 -97 80 -115h-85l-51 64l-72 -64h-95q73 68 122 115z" />
    <glyph glyph-name="Udieresis" unicode="&#xdc;" horiz-adv-x="677" 
d="M669 715l-79 -454q-25 -140 -92.5 -208t-198.5 -68q-117 0 -175 54.5t-58 155.5q0 43 23 168l62 352h105l-75 -424q-8 -35 -8 -85q0 -135 137 -135q84 0 121.5 50t54.5 153l79 441h104zM279 766l17 96h98l-17 -96h-98zM448 766l17 96h97l-17 -96h-97z" />
    <glyph glyph-name="Yacute" unicode="&#xdd;" horiz-adv-x="593" 
d="M544 715h115q-63 -87 -179.5 -246t-140.5 -192l-49 -277h-105l49 277l-160 438h109l120 -347zM534 875l-153 -114h-106l129 114h130z" />
    <glyph glyph-name="Thorn" unicode="&#xde;" horiz-adv-x="596" 
d="M160 714h107l-23 -123h87q73 0 112.5 -6t75.5 -27q72 -43 72 -139q0 -64 -29 -121t-82 -91q-63 -40 -203 -40h-108l-31 -167h-106zM185 257h119q73 0 115 23q64 38 64 121q0 56 -38.5 77.5t-107.5 21.5h-110z" />
    <glyph glyph-name="germandbls" unicode="&#xdf;" horiz-adv-x="580" 
d="M529 262q0 -121 -82 -192.5t-204 -71.5q-23 0 -45 3l14 76q9 -1 27 -1q80 0 132 44.5t52 132.5q0 123 -157 123l11 71q72 0 117 30t45 85q0 39 -26 59.5t-72 20.5q-62 0 -94 -38q-24 -26 -37 -97l-91 -507h-100l87 495q20 119 81 175q63 53 167 53q90 0 141 -38t51 -104
q0 -61 -36.5 -103t-84.5 -56q104 -45 104 -160z" />
    <glyph glyph-name="agrave" unicode="&#xe0;" horiz-adv-x="560" 
d="M165 360h-101q15 83 78.5 132t164.5 49q94 0 144 -42.5t50 -123.5q0 -51 -10 -95l-23 -118q-19 -98 -19 -162h-91q0 17 9 70q-68 -80 -187 -80q-74 0 -122 34.5t-48 100.5q0 33 12.5 60t31.5 46t49 34t58.5 23.5t66.5 15.5t66.5 10t64.5 6l39 3q0 3 2.5 20.5t2.5 24.5
q0 44 -28 68.5t-80 24.5q-110 0 -130 -101zM381 224l6 30q-25 -5 -64.5 -10.5t-64 -9t-54.5 -11t-46.5 -17.5t-28 -27.5t-11.5 -41.5q0 -35 26.5 -54t72.5 -19q71 0 109.5 40.5t54.5 119.5zM301 596l-119 119h120l90 -119h-91z" />
    <glyph glyph-name="aacute" unicode="&#xe1;" horiz-adv-x="560" 
d="M165 360h-101q15 83 78.5 132t164.5 49q94 0 144 -42.5t50 -123.5q0 -51 -10 -95l-23 -118q-19 -98 -19 -162h-91q0 17 9 70q-68 -80 -187 -80q-74 0 -122 34.5t-48 100.5q0 33 12.5 60t31.5 46t49 34t58.5 23.5t66.5 15.5t66.5 10t64.5 6l39 3q0 3 2.5 20.5t2.5 24.5
q0 44 -28 68.5t-80 24.5q-110 0 -130 -101zM381 224l6 30q-25 -5 -64.5 -10.5t-64 -9t-54.5 -11t-46.5 -17.5t-28 -27.5t-11.5 -41.5q0 -35 26.5 -54t72.5 -19q71 0 109.5 40.5t54.5 119.5zM509 715l-160 -119h-103l133 119h130z" />
    <glyph glyph-name="acircumflex" unicode="&#xe2;" horiz-adv-x="560" 
d="M165 360h-101q15 83 78.5 132t164.5 49q94 0 144 -42.5t50 -123.5q0 -51 -10 -95l-23 -118q-19 -98 -19 -162h-91q0 17 9 70q-68 -80 -187 -80q-74 0 -122 34.5t-48 100.5q0 33 12.5 60t31.5 46t49 34t58.5 23.5t66.5 15.5t66.5 10t64.5 6l39 3q0 3 2.5 20.5t2.5 24.5
q0 44 -28 68.5t-80 24.5q-110 0 -130 -101zM381 224l6 30q-25 -5 -64.5 -10.5t-64 -9t-54.5 -11t-46.5 -17.5t-28 -27.5t-11.5 -41.5q0 -35 26.5 -54t72.5 -19q71 0 109.5 40.5t54.5 119.5zM291 715h101q6 -9 35 -53.5t45 -65.5h-85l-51 66l-72 -66h-95q23 21 71 68.5
t51 50.5z" />
    <glyph glyph-name="atilde" unicode="&#xe3;" horiz-adv-x="560" 
d="M165 360h-101q15 83 78.5 132t164.5 49q94 0 144 -42.5t50 -123.5q0 -51 -10 -95l-23 -118q-19 -98 -19 -162h-91q0 17 9 70q-68 -80 -187 -80q-74 0 -122 34.5t-48 100.5q0 33 12.5 60t31.5 46t49 34t58.5 23.5t66.5 15.5t66.5 10t64.5 6l39 3q0 3 2.5 20.5t2.5 24.5
q0 44 -28 68.5t-80 24.5q-110 0 -130 -101zM381 224l6 30q-25 -5 -64.5 -10.5t-64 -9t-54.5 -11t-46.5 -17.5t-28 -27.5t-11.5 -41.5q0 -35 26.5 -54t72.5 -19q71 0 109.5 40.5t54.5 119.5zM243 608h-62q2 49 24.5 78.5t61.5 29.5q29 0 74 -23q38 -18 52 -18q25 0 32 40h60
q-2 -49 -24.5 -79t-59.5 -30q-27 0 -67 19q-43 22 -58 22q-26 0 -33 -39z" />
    <glyph glyph-name="adieresis" unicode="&#xe4;" horiz-adv-x="560" 
d="M165 360h-101q15 83 78.5 132t164.5 49q94 0 144 -42.5t50 -123.5q0 -51 -10 -95l-23 -118q-19 -98 -19 -162h-91q0 17 9 70q-68 -80 -187 -80q-74 0 -122 34.5t-48 100.5q0 33 12.5 60t31.5 46t49 34t58.5 23.5t66.5 15.5t66.5 10t64.5 6l39 3q0 3 2.5 20.5t2.5 24.5
q0 44 -28 68.5t-80 24.5q-110 0 -130 -101zM381 224l6 30q-25 -5 -64.5 -10.5t-64 -9t-54.5 -11t-46.5 -17.5t-28 -27.5t-11.5 -41.5q0 -35 26.5 -54t72.5 -19q71 0 109.5 40.5t54.5 119.5zM187 603l17 96h98l-17 -96h-98zM356 603l17 96h97l-17 -96h-97z" />
    <glyph glyph-name="aring" unicode="&#xe5;" horiz-adv-x="560" 
d="M165 360h-101q15 83 78.5 132t164.5 49q94 0 144 -42.5t50 -123.5q0 -51 -10 -95l-23 -118q-19 -98 -19 -162h-91q0 17 9 70q-68 -80 -187 -80q-74 0 -122 34.5t-48 100.5q0 33 12.5 60t31.5 46t49 34t58.5 23.5t66.5 15.5t66.5 10t64.5 6l39 3q0 3 2.5 20.5t2.5 24.5
q0 44 -28 68.5t-80 24.5q-110 0 -130 -101zM381 224l6 30q-25 -5 -64.5 -10.5t-64 -9t-54.5 -11t-46.5 -17.5t-28 -27.5t-11.5 -41.5q0 -35 26.5 -54t72.5 -19q71 0 109.5 40.5t54.5 119.5zM326 588q-37 0 -62 25.5t-25 63.5q0 36 25.5 61.5t62.5 25.5t62.5 -25.5
t25.5 -61.5q0 -38 -25.5 -63.5t-63.5 -25.5zM283 677q0 -19 12.5 -32t30.5 -13q19 0 31.5 12.5t12.5 32.5q0 17 -13 30t-31 13t-30.5 -13t-12.5 -30z" />
    <glyph glyph-name="ae" unicode="&#xe6;" horiz-adv-x="942" 
d="M773 148h105q-33 -73 -98.5 -119.5t-162.5 -46.5q-152 0 -211 110q-79 -102 -221 -102q-79 0 -127 34t-48 101q0 38 15 68t44.5 49.5t61 33.5t76 22.5t77 12.5t75.5 7l39 3q0 3 2.5 21.5t2.5 25.5q0 44 -28 68.5t-80 24.5q-110 0 -130 -101h-101q15 83 78.5 132t164.5 49
q124 0 168 -78q84 77 195 77q106 0 169.5 -62.5t63.5 -171.5q0 -32 -6 -70h-417v-5q0 -165 146 -165q97 0 147 82zM491 309l312 1q0 69 -37 108.5t-103 39.5t-110 -38.5t-62 -110.5zM381 224l6 28q-23 -4 -64.5 -9t-49.5 -6q-77 -12 -116 -32.5t-39 -67.5q0 -35 26.5 -54
t72.5 -19q71 0 109.5 40.5t54.5 119.5z" />
    <glyph glyph-name="ccedilla" unicode="&#xe7;" horiz-adv-x="585" 
d="M427 167h104q-62 -185 -263 -185q-107 0 -173 63t-66 178q0 135 82 226t216 91q102 0 163.5 -54t65.5 -137h-104q-4 44 -37 74.5t-96 30.5q-85 0 -134 -66.5t-49 -154.5q0 -79 35.5 -123t105.5 -44q99 0 150 101zM100 -163l112 114h105l-97 -114h-120z" />
    <glyph glyph-name="egrave" unicode="&#xe8;" horiz-adv-x="594" 
d="M425 148h105q-33 -73 -98.5 -119.5t-162.5 -46.5q-108 0 -174 61t-66 179q0 133 81 225.5t212 92.5q106 0 169.5 -62.5t63.5 -171.5q0 -32 -6 -70h-417v-5q0 -165 146 -165q97 0 147 82zM143 309l312 1q0 69 -37 108.5t-103 39.5t-110 -38.5t-62 -110.5zM309 596
l-119 119h120l90 -119h-91z" />
    <glyph glyph-name="eacute" unicode="&#xe9;" horiz-adv-x="594" 
d="M425 148h105q-33 -73 -98.5 -119.5t-162.5 -46.5q-108 0 -174 61t-66 179q0 133 81 225.5t212 92.5q106 0 169.5 -62.5t63.5 -171.5q0 -32 -6 -70h-417v-5q0 -165 146 -165q97 0 147 82zM143 309l312 1q0 69 -37 108.5t-103 39.5t-110 -38.5t-62 -110.5zM524 715
l-160 -119h-103l133 119h130z" />
    <glyph glyph-name="ecircumflex" unicode="&#xea;" horiz-adv-x="594" 
d="M425 148h105q-33 -73 -98.5 -119.5t-162.5 -46.5q-108 0 -174 61t-66 179q0 133 81 225.5t212 92.5q106 0 169.5 -62.5t63.5 -171.5q0 -32 -6 -70h-417v-5q0 -165 146 -165q97 0 147 82zM143 309l312 1q0 69 -37 108.5t-103 39.5t-110 -38.5t-62 -110.5zM312 715h101
q6 -9 35 -53.5t45 -65.5h-85l-51 66l-72 -66h-95q23 21 71 68.5t51 50.5z" />
    <glyph glyph-name="edieresis" unicode="&#xeb;" horiz-adv-x="594" 
d="M425 148h105q-33 -73 -98.5 -119.5t-162.5 -46.5q-108 0 -174 61t-66 179q0 133 81 225.5t212 92.5q106 0 169.5 -62.5t63.5 -171.5q0 -32 -6 -70h-417v-5q0 -165 146 -165q97 0 147 82zM143 309l312 1q0 69 -37 108.5t-103 39.5t-110 -38.5t-62 -110.5zM212 603l17 96
h98l-17 -96h-98zM381 603l17 96h97l-17 -96h-97z" />
    <glyph glyph-name="igrave" unicode="&#xec;" horiz-adv-x="247" 
d="M19 0l92 525h103q-10 -57 -43 -239.5t-51 -285.5h-101zM133 596l-119 119h120l90 -119h-91z" />
    <glyph glyph-name="iacute" unicode="&#xed;" horiz-adv-x="247" 
d="M19 0l92 525h103q-10 -57 -43 -239.5t-51 -285.5h-101zM360 715l-160 -119h-103l133 119h130z" />
    <glyph glyph-name="icircumflex" unicode="&#xee;" horiz-adv-x="247" 
d="M19 0l92 525h103q-10 -57 -43 -239.5t-51 -285.5h-101zM141 715h101q6 -9 35 -53.5t45 -65.5h-85l-51 66l-72 -66h-95q23 21 71 68.5t51 50.5z" />
    <glyph glyph-name="idieresis" unicode="&#xef;" horiz-adv-x="247" 
d="M19 0l92 525h103q-10 -57 -43 -239.5t-51 -285.5h-101z" />
    <glyph glyph-name="eth" unicode="&#xf0;" horiz-adv-x="623" 
d="M327 539q85 0 138 -46l2 2q-29 62 -77 118l-131 -54l-34 46l124 50q-33 32 -74 60h137l25 -24l76 31l36 -43l-74 -31q102 -129 102 -312q0 -102 -30.5 -179.5t-100 -126.5t-171.5 -49q-112 0 -179 61.5t-67 176.5q0 134 81 227t217 93zM284 67q88 0 135.5 68t47.5 159
q0 76 -36 117.5t-107 41.5q-92 0 -140.5 -67.5t-48.5 -158.5q0 -76 39 -118t110 -42z" />
    <glyph glyph-name="ntilde" unicode="&#xf1;" horiz-adv-x="604" 
d="M19 0l93 525h99l-14 -84q21 37 66.5 66.5t116.5 29.5q80 0 122 -43t42 -114q0 -30 -5 -62l-56 -318h-101l48 285q6 38 6 63q0 106 -108 106q-65 0 -104 -44.5t-52 -117.5l-51 -292h-102zM280 608h-62q2 49 24.5 78.5t61.5 29.5q29 0 74 -23q38 -18 52 -18q25 0 32 40h60
q-2 -49 -24.5 -79t-59.5 -30q-27 0 -67 19q-43 22 -58 22q-25 0 -33 -39z" />
    <glyph glyph-name="ograve" unicode="&#xf2;" horiz-adv-x="613" 
d="M327 539q113 0 176.5 -61t63.5 -176q0 -140 -77.5 -230t-217.5 -90q-111 0 -177 60.5t-66 174.5q0 135 79.5 228.5t218.5 93.5zM321 453q-91 0 -138.5 -67.5t-47.5 -158.5q0 -77 37 -119t108 -42q89 0 135 67.5t46 158.5q0 77 -35 119t-105 42zM316 596l-119 119h120
l90 -119h-91z" />
    <glyph glyph-name="oacute" unicode="&#xf3;" horiz-adv-x="613" 
d="M327 539q113 0 176.5 -61t63.5 -176q0 -140 -77.5 -230t-217.5 -90q-111 0 -177 60.5t-66 174.5q0 135 79.5 228.5t218.5 93.5zM321 453q-91 0 -138.5 -67.5t-47.5 -158.5q0 -77 37 -119t108 -42q89 0 135 67.5t46 158.5q0 77 -35 119t-105 42zM508 715l-160 -119h-103
l133 119h130z" />
    <glyph glyph-name="ocircumflex" unicode="&#xf4;" horiz-adv-x="613" 
d="M327 539q113 0 176.5 -61t63.5 -176q0 -140 -77.5 -230t-217.5 -90q-111 0 -177 60.5t-66 174.5q0 135 79.5 228.5t218.5 93.5zM321 453q-91 0 -138.5 -67.5t-47.5 -158.5q0 -77 37 -119t108 -42q89 0 135 67.5t46 158.5q0 77 -35 119t-105 42zM320 715h101
q6 -9 35 -53.5t45 -65.5h-85l-51 66l-72 -66h-95q23 21 71 68.5t51 50.5z" />
    <glyph glyph-name="otilde" unicode="&#xf5;" horiz-adv-x="613" 
d="M327 539q113 0 176.5 -61t63.5 -176q0 -140 -77.5 -230t-217.5 -90q-111 0 -177 60.5t-66 174.5q0 135 79.5 228.5t218.5 93.5zM321 453q-91 0 -138.5 -67.5t-47.5 -158.5q0 -77 37 -119t108 -42q89 0 135 67.5t46 158.5q0 77 -35 119t-105 42zM262 608h-62
q2 49 24.5 78.5t61.5 29.5q29 0 74 -23q38 -18 52 -18q25 0 32 40h60q-2 -49 -24.5 -79t-59.5 -30q-27 0 -67 19q-43 22 -58 22q-25 0 -33 -39z" />
    <glyph glyph-name="odieresis" unicode="&#xf6;" horiz-adv-x="613" 
d="M327 539q113 0 176.5 -61t63.5 -176q0 -140 -77.5 -230t-217.5 -90q-111 0 -177 60.5t-66 174.5q0 135 79.5 228.5t218.5 93.5zM321 453q-91 0 -138.5 -67.5t-47.5 -158.5q0 -77 37 -119t108 -42q89 0 135 67.5t46 158.5q0 77 -35 119t-105 42zM210 603l17 96h98l-17 -96
h-98zM379 603l17 96h97l-17 -96h-97z" />
    <glyph glyph-name="divide" unicode="&#xf7;" 
d="M69 278v87h442v-87h-442zM235 92v114h107v-114h-107zM235 436v114h107v-114h-107z" />
    <glyph glyph-name="oslash" unicode="&#xf8;" horiz-adv-x="613" 
d="M327 539q65 0 114 -21l60 76l65 -47l-59 -75q60 -62 60 -170q0 -140 -77.5 -230t-217.5 -90q-70 0 -127 26l-59 -75l-63 49l58 74q-52 61 -52 161q0 135 79.5 228.5t218.5 93.5zM461 292q0 53 -20 95l-238 -304q31 -17 77 -17q89 0 135 67.5t46 158.5zM321 453
q-91 0 -138.5 -67.5t-47.5 -158.5q0 -46 14 -83l233 298q-28 11 -61 11z" />
    <glyph glyph-name="ugrave" unicode="&#xf9;" horiz-adv-x="597" 
d="M563 525l-93 -525h-97l14 79q-20 -36 -66.5 -65t-115.5 -29q-81 0 -121 41t-40 112q0 33 5 65l57 322h103l-52 -288q-6 -38 -6 -63q0 -106 106 -106q63 0 101 44.5t51 117.5l52 295h102zM312 596l-119 119h120l90 -119h-91z" />
    <glyph glyph-name="uacute" unicode="&#xfa;" horiz-adv-x="597" 
d="M563 525l-93 -525h-97l14 79q-20 -36 -66.5 -65t-115.5 -29q-81 0 -121 41t-40 112q0 33 5 65l57 322h103l-52 -288q-6 -38 -6 -63q0 -106 106 -106q63 0 101 44.5t51 117.5l52 295h102zM511 715l-160 -119h-103l133 119h130z" />
    <glyph glyph-name="ucircumflex" unicode="&#xfb;" horiz-adv-x="597" 
d="M563 525l-93 -525h-97l14 79q-20 -36 -66.5 -65t-115.5 -29q-81 0 -121 41t-40 112q0 33 5 65l57 322h103l-52 -288q-6 -38 -6 -63q0 -106 106 -106q63 0 101 44.5t51 117.5l52 295h102zM309 715h101q6 -9 35 -53.5t45 -65.5h-85l-51 66l-72 -66h-95q23 21 71 68.5
t51 50.5z" />
    <glyph glyph-name="udieresis" unicode="&#xfc;" horiz-adv-x="597" 
d="M563 525l-93 -525h-97l14 79q-20 -36 -66.5 -65t-115.5 -29q-81 0 -121 41t-40 112q0 33 5 65l57 322h103l-52 -288q-6 -38 -6 -63q0 -106 106 -106q63 0 101 44.5t51 117.5l52 295h102zM211 603l17 96h98l-17 -96h-98zM380 603l17 96h97l-17 -96h-97z" />
    <glyph glyph-name="yacute" unicode="&#xfd;" horiz-adv-x="528" 
d="M151 -180h-104l109 189q-38 187 -107 516h108q12 -71 36.5 -212.5t33.5 -198.5q77 140 216 411h110q-49 -85 -153 -272t-162 -287q-48 -84 -87 -146zM488 715l-160 -119h-103l133 119h130z" />
    <glyph glyph-name="thorn" unicode="&#xfe;" horiz-adv-x="643" 
d="M248 715l-23 -132q-16 -88 -25 -124q64 79 178 79q95 0 157 -62.5t62 -180.5q0 -130 -79.5 -221.5t-203.5 -91.5q-73 0 -117 28.5t-62 62.5l-46 -253h-102l158 895h103zM302 67q89 0 138.5 66t49.5 159q0 76 -36.5 119t-106.5 43q-91 0 -140 -68t-49 -160
q0 -74 36.5 -116.5t107.5 -42.5z" />
    <glyph glyph-name="ydieresis" unicode="&#xff;" horiz-adv-x="528" 
d="M151 -180h-104l109 189q-38 187 -107 516h108q12 -71 36.5 -212.5t33.5 -198.5q77 140 216 411h110q-49 -85 -153 -272t-162 -287q-48 -84 -87 -146zM189 603l17 96h98l-17 -96h-98zM358 603l17 96h97l-17 -96h-97z" />
    <glyph glyph-name="Amacron" unicode="&#x100;" horiz-adv-x="695" 
d="M56 0h-110q70 120 208.5 357.5t207.5 357.5h124l158 -715h-106l-46 216h-313zM353 527l-128 -224h248l-38 191q-2 8 -11.5 57t-13.5 73h-2q-8 -14 -26.5 -46t-28.5 -51zM297 781l11 67h262l-11 -67h-262z" />
    <glyph glyph-name="amacron" unicode="&#x101;" horiz-adv-x="560" 
d="M165 360h-101q15 83 78.5 132t164.5 49q94 0 144 -42.5t50 -123.5q0 -51 -10 -95l-23 -118q-19 -98 -19 -162h-91q0 17 9 70q-68 -80 -187 -80q-74 0 -122 34.5t-48 100.5q0 33 12.5 60t31.5 46t49 34t58.5 23.5t66.5 15.5t66.5 10t64.5 6l39 3q0 3 2.5 20.5t2.5 24.5
q0 44 -28 68.5t-80 24.5q-110 0 -130 -101zM381 224l6 30q-25 -5 -64.5 -10.5t-64 -9t-54.5 -11t-46.5 -17.5t-28 -27.5t-11.5 -41.5q0 -35 26.5 -54t72.5 -19q71 0 109.5 40.5t54.5 119.5zM201 618l11 67h262l-11 -67h-262z" />
    <glyph glyph-name="Abreve" unicode="&#x102;" horiz-adv-x="695" 
d="M56 0h-110q70 120 208.5 357.5t207.5 357.5h124l158 -715h-106l-46 216h-313zM353 527l-128 -224h248l-38 191q-2 8 -11.5 57t-13.5 73h-2q-8 -14 -26.5 -46t-28.5 -51zM423 762q-58 0 -92.5 31t-34.5 86h67q7 -54 69 -54q59 0 83 54h72q-22 -55 -63.5 -86t-100.5 -31z
" />
    <glyph glyph-name="abreve" unicode="&#x103;" horiz-adv-x="560" 
d="M165 360h-101q15 83 78.5 132t164.5 49q94 0 144 -42.5t50 -123.5q0 -51 -10 -95l-23 -118q-19 -98 -19 -162h-91q0 17 9 70q-68 -80 -187 -80q-74 0 -122 34.5t-48 100.5q0 33 12.5 60t31.5 46t49 34t58.5 23.5t66.5 15.5t66.5 10t64.5 6l39 3q0 3 2.5 20.5t2.5 24.5
q0 44 -28 68.5t-80 24.5q-110 0 -130 -101zM381 224l6 30q-25 -5 -64.5 -10.5t-64 -9t-54.5 -11t-46.5 -17.5t-28 -27.5t-11.5 -41.5q0 -35 26.5 -54t72.5 -19q71 0 109.5 40.5t54.5 119.5zM335 598q-58 0 -92.5 31t-34.5 86h67q7 -54 69 -54q59 0 83 54h72
q-22 -55 -63.5 -86t-100.5 -31z" />
    <glyph glyph-name="Aogonek" unicode="&#x104;" horiz-adv-x="695" 
d="M56 0h-110q70 120 208.5 357.5t207.5 357.5h124l158 -715h-106l-46 216h-313zM353 527l-128 -224h248l-38 191q-2 8 -11.5 57t-13.5 73h-2q-8 -14 -26.5 -46t-28.5 -51zM631 -49l76 -114h-108l-55 114h87z" />
    <glyph glyph-name="aogonek" unicode="&#x105;" horiz-adv-x="560" 
d="M165 360h-101q15 83 78.5 132t164.5 49q94 0 144 -42.5t50 -123.5q0 -51 -10 -95l-23 -118q-19 -98 -19 -162h-91q0 17 9 70q-68 -80 -187 -80q-74 0 -122 34.5t-48 100.5q0 33 12.5 60t31.5 46t49 34t58.5 23.5t66.5 15.5t66.5 10t64.5 6l39 3q0 3 2.5 20.5t2.5 24.5
q0 44 -28 68.5t-80 24.5q-110 0 -130 -101zM381 224l6 30q-25 -5 -64.5 -10.5t-64 -9t-54.5 -11t-46.5 -17.5t-28 -27.5t-11.5 -41.5q0 -35 26.5 -54t72.5 -19q71 0 109.5 40.5t54.5 119.5zM421 -49l76 -114h-108l-55 114h87z" />
    <glyph glyph-name="Cacute" unicode="&#x106;" horiz-adv-x="748" 
d="M594 206h116q-106 -220 -340 -220q-141 0 -231 83.5t-90 232.5q0 114 44.5 210t134.5 156.5t208 60.5q123 0 201 -62t101 -170h-111q-17 63 -67.5 103t-131.5 40q-84 0 -146.5 -47.5t-91.5 -119t-29 -154.5q0 -114 56 -180t159 -66q145 0 218 133zM656 875l-153 -114
h-106l129 114h130z" />
    <glyph glyph-name="cacute" unicode="&#x107;" horiz-adv-x="585" 
d="M427 167h104q-62 -185 -263 -185q-107 0 -173 63t-66 178q0 135 82 226t216 91q102 0 163.5 -54t65.5 -137h-104q-4 44 -37 74.5t-96 30.5q-85 0 -134 -66.5t-49 -154.5q0 -79 35.5 -123t105.5 -44q99 0 150 101zM534 715l-160 -119h-103l133 119h130z" />
    <glyph glyph-name="Ccircumflex" unicode="&#x108;" horiz-adv-x="748" 
d="M594 206h116q-106 -220 -340 -220q-141 0 -231 83.5t-90 232.5q0 114 44.5 210t134.5 156.5t208 60.5q123 0 201 -62t101 -170h-111q-17 63 -67.5 103t-131.5 40q-84 0 -146.5 -47.5t-91.5 -119t-29 -154.5q0 -114 56 -180t159 -66q145 0 218 133zM419 876h101
q67 -97 80 -115h-85l-51 64l-72 -64h-95q73 68 122 115z" />
    <glyph glyph-name="ccircumflex" unicode="&#x109;" horiz-adv-x="585" 
d="M427 167h104q-62 -185 -263 -185q-107 0 -173 63t-66 178q0 135 82 226t216 91q102 0 163.5 -54t65.5 -137h-104q-4 44 -37 74.5t-96 30.5q-85 0 -134 -66.5t-49 -154.5q0 -79 35.5 -123t105.5 -44q99 0 150 101zM317 715h101q6 -9 35 -53.5t45 -65.5h-85l-51 66l-72 -66
h-95q23 21 71 68.5t51 50.5z" />
    <glyph glyph-name="Cdotaccent" unicode="&#x10a;" horiz-adv-x="748" 
d="M594 206h116q-106 -220 -340 -220q-141 0 -231 83.5t-90 232.5q0 114 44.5 210t134.5 156.5t208 60.5q123 0 201 -62t101 -170h-111q-17 63 -67.5 103t-131.5 40q-84 0 -146.5 -47.5t-91.5 -119t-29 -154.5q0 -114 56 -180t159 -66q145 0 218 133zM399 767l17 96h98
l-17 -96h-98z" />
    <glyph glyph-name="cdotaccent" unicode="&#x10b;" horiz-adv-x="585" 
d="M427 167h104q-62 -185 -263 -185q-107 0 -173 63t-66 178q0 135 82 226t216 91q102 0 163.5 -54t65.5 -137h-104q-4 44 -37 74.5t-96 30.5q-85 0 -134 -66.5t-49 -154.5q0 -79 35.5 -123t105.5 -44q99 0 150 101zM294 611l17 96h98l-17 -96h-98z" />
    <glyph glyph-name="Ccaron" unicode="&#x10c;" horiz-adv-x="748" 
d="M594 206h116q-106 -220 -340 -220q-141 0 -231 83.5t-90 232.5q0 114 44.5 210t134.5 156.5t208 60.5q123 0 201 -62t101 -170h-111q-17 63 -67.5 103t-131.5 40q-84 0 -146.5 -47.5t-91.5 -119t-29 -154.5q0 -114 56 -180t159 -66q145 0 218 133zM501 761h-101
q-67 97 -80 115h85l51 -64l72 64h95q-73 -68 -122 -115z" />
    <glyph glyph-name="ccaron" unicode="&#x10d;" horiz-adv-x="585" 
d="M427 167h104q-62 -185 -263 -185q-107 0 -173 63t-66 178q0 135 82 226t216 91q102 0 163.5 -54t65.5 -137h-104q-4 44 -37 74.5t-96 30.5q-85 0 -134 -66.5t-49 -154.5q0 -79 35.5 -123t105.5 -44q99 0 150 101zM398 596h-101q-6 9 -35 53.5t-45 65.5h85l51 -66l72 66
h95q-23 -21 -71 -68.5t-51 -50.5z" />
    <glyph glyph-name="Dcaron" unicode="&#x10e;" horiz-adv-x="724" 
d="M33 0l127 715h134q73 0 129 -7t108.5 -27t86.5 -52.5t54 -85.5t20 -125q0 -166 -89 -277q-69 -88 -160 -114.5t-235 -26.5h-175zM249 625l-95 -536h92q88 0 154.5 25.5t104.5 70.5t56.5 101t18.5 122q0 106 -62.5 161.5t-182.5 55.5h-86zM451 761h-101q-67 97 -80 115h85
l51 -64l72 64h95q-73 -68 -122 -115z" />
    <glyph glyph-name="dcaron" unicode="&#x10f;" horiz-adv-x="720" 
d="M636 715l-127 -715h-95l15 68q-59 -84 -185 -84q-93 0 -154 63t-61 180q0 123 79.5 218t202.5 95q69 0 112.5 -27.5t63.5 -63.5l19 108l28 158h102zM321 453q-88 0 -137.5 -67.5t-49.5 -159.5q0 -74 36.5 -117.5t104.5 -43.5q90 0 139 68.5t49 162.5q0 73 -37 115
t-105 42zM868 715l-130 -241h-86l111 241h105z" />
    <glyph glyph-name="Dcroat" unicode="&#x110;" horiz-adv-x="729" 
d="M28 322l15 81h67l56 312h133q104 0 169 -11t119 -46q111 -72 111 -240q0 -101 -40.5 -194t-119.5 -149q-64 -46 -138 -60.5t-188 -14.5h-173l57 322h-68zM469 146q57 40 86.5 112.5t29.5 148.5q0 106 -61.5 162t-181.5 56h-87l-39 -222h133l-15 -81h-132l-41 -232h92
q134 0 216 56z" />
    <glyph glyph-name="dcroat" unicode="&#x111;" horiz-adv-x="636" 
d="M432 574l13 77h77l12 64h102l-12 -64h54l-13 -77h-54l-102 -574h-95l15 68q-59 -84 -185 -84q-93 0 -154 63t-61 180q0 123 79.5 218t202.5 95q69 0 112.5 -27.5t63.5 -63.5l19 108l3 17h-77zM321 453q-88 0 -137.5 -67.5t-49.5 -159.5q0 -74 36.5 -117.5t104.5 -43.5
q90 0 139 68.5t49 162.5q0 73 -37 115t-105 42z" />
    <glyph glyph-name="Emacron" unicode="&#x112;" horiz-adv-x="585" 
d="M607 715l-17 -92h-341l-38 -212l318 1l-16 -92h-317l-41 -229h349l-17 -91h-454l127 715h447zM258 781l11 67h262l-11 -67h-262z" />
    <glyph glyph-name="emacron" unicode="&#x113;" horiz-adv-x="594" 
d="M425 148h105q-33 -73 -98.5 -119.5t-162.5 -46.5q-108 0 -174 61t-66 179q0 133 81 225.5t212 92.5q106 0 169.5 -62.5t63.5 -171.5q0 -32 -6 -70h-417v-5q0 -165 146 -165q97 0 147 82zM143 309l312 1q0 69 -37 108.5t-103 39.5t-110 -38.5t-62 -110.5zM205 618l11 67
h262l-11 -67h-262z" />
    <glyph glyph-name="Ebreve" unicode="&#x114;" horiz-adv-x="585" 
d="M607 715l-17 -92h-341l-38 -212l318 1l-16 -92h-317l-41 -229h349l-17 -91h-454l127 715h447zM385 762q-58 0 -92.5 31t-34.5 86h67q7 -54 69 -54q59 0 83 54h72q-22 -55 -63.5 -86t-100.5 -31z" />
    <glyph glyph-name="ebreve" unicode="&#x115;" horiz-adv-x="594" 
d="M425 148h105q-33 -73 -98.5 -119.5t-162.5 -46.5q-108 0 -174 61t-66 179q0 133 81 225.5t212 92.5q106 0 169.5 -62.5t63.5 -171.5q0 -32 -6 -70h-417v-5q0 -165 146 -165q97 0 147 82zM143 309l312 1q0 69 -37 108.5t-103 39.5t-110 -38.5t-62 -110.5zM349 598
q-58 0 -92.5 31t-34.5 86h67q7 -54 69 -54q59 0 83 54h72q-22 -55 -63.5 -86t-100.5 -31z" />
    <glyph glyph-name="Edotaccent" unicode="&#x116;" horiz-adv-x="585" 
d="M607 715l-17 -92h-341l-38 -212l318 1l-16 -92h-317l-41 -229h349l-17 -91h-454l127 715h447zM332 767l17 96h98l-17 -96h-98z" />
    <glyph glyph-name="edotaccent" unicode="&#x117;" horiz-adv-x="594" 
d="M425 148h105q-33 -73 -98.5 -119.5t-162.5 -46.5q-108 0 -174 61t-66 179q0 133 81 225.5t212 92.5q106 0 169.5 -62.5t63.5 -171.5q0 -32 -6 -70h-417v-5q0 -165 146 -165q97 0 147 82zM143 309l312 1q0 69 -37 108.5t-103 39.5t-110 -38.5t-62 -110.5zM286 611l17 96
h98l-17 -96h-98z" />
    <glyph glyph-name="Eogonek" unicode="&#x118;" horiz-adv-x="585" 
d="M607 715l-17 -92h-341l-38 -212l318 1l-16 -92h-317l-41 -229h349l-17 -91h-454l127 715h447zM312 -49l76 -114h-108l-55 114h87z" />
    <glyph glyph-name="eogonek" unicode="&#x119;" horiz-adv-x="594" 
d="M425 148h105q-33 -73 -98.5 -119.5t-162.5 -46.5q-108 0 -174 61t-66 179q0 133 81 225.5t212 92.5q106 0 169.5 -62.5t63.5 -171.5q0 -32 -6 -70h-417v-5q0 -165 146 -165q97 0 147 82zM143 309l312 1q0 69 -37 108.5t-103 39.5t-110 -38.5t-62 -110.5zM317 -49l76 -114
h-108l-55 114h87z" />
    <glyph glyph-name="Ecaron" unicode="&#x11a;" horiz-adv-x="585" 
d="M607 715l-17 -92h-341l-38 -212l318 1l-16 -92h-317l-41 -229h349l-17 -91h-454l127 715h447zM437 761h-101q-67 97 -80 115h85l51 -64l72 64h95q-73 -68 -122 -115z" />
    <glyph glyph-name="ecaron" unicode="&#x11b;" horiz-adv-x="594" 
d="M425 148h105q-33 -73 -98.5 -119.5t-162.5 -46.5q-108 0 -174 61t-66 179q0 133 81 225.5t212 92.5q106 0 169.5 -62.5t63.5 -171.5q0 -32 -6 -70h-417v-5q0 -165 146 -165q97 0 147 82zM143 309l312 1q0 69 -37 108.5t-103 39.5t-110 -38.5t-62 -110.5zM387 596h-101
q-6 9 -35 53.5t-45 65.5h85l51 -66l72 66h95q-23 -21 -71 -68.5t-51 -50.5z" />
    <glyph glyph-name="Gcircumflex" unicode="&#x11c;" horiz-adv-x="775" 
d="M735 378l-67 -378h-97q-1 0 1.5 13.5t6.5 35.5t9 41q-89 -103 -243 -103q-131 0 -213 86t-82 245q0 168 108 289.5t279 121.5q124 0 201 -60t101 -169h-110q-42 140 -201 140q-122 0 -194 -93.5t-72 -221.5q0 -117 55 -184.5t161 -67.5q100 0 163.5 62.5t85.5 153.5
q-23 -1 -64 -1h-191l16 90h347zM433 876h101q67 -97 80 -115h-85l-51 64l-72 -64h-95q73 68 122 115z" />
    <glyph glyph-name="gcircumflex" unicode="&#x11d;" horiz-adv-x="638" 
d="M605 526l-78 -440q-27 -153 -97.5 -219.5t-197.5 -66.5q-108 0 -169.5 50.5t-71.5 131.5h102q26 -95 147 -95q152 0 184 183l5 29q-67 -76 -176 -76q-96 0 -157.5 59t-61.5 164q0 119 76.5 206.5t195.5 87.5q132 0 182 -94q9 48 16 80h101zM322 453q-86 0 -133 -60.5
t-47 -142.5q0 -148 141 -148q88 0 136.5 62.5t48.5 150.5q0 61 -38 99.5t-108 38.5zM318 715h101q6 -9 35 -53.5t45 -65.5h-85l-51 66l-72 -66h-95q23 21 71 68.5t51 50.5z" />
    <glyph glyph-name="Gbreve" unicode="&#x11e;" horiz-adv-x="775" 
d="M735 378l-67 -378h-97q-1 0 1.5 13.5t6.5 35.5t9 41q-89 -103 -243 -103q-131 0 -213 86t-82 245q0 168 108 289.5t279 121.5q124 0 201 -60t101 -169h-110q-42 140 -201 140q-122 0 -194 -93.5t-72 -221.5q0 -117 55 -184.5t161 -67.5q100 0 163.5 62.5t85.5 153.5
q-23 -1 -64 -1h-191l16 90h347zM462 762q-58 0 -92.5 31t-34.5 86h67q7 -54 69 -54q59 0 83 54h72q-46 -117 -164 -117z" />
    <glyph glyph-name="gbreve" unicode="&#x11f;" horiz-adv-x="638" 
d="M605 526l-78 -440q-27 -153 -97.5 -219.5t-197.5 -66.5q-108 0 -169.5 50.5t-71.5 131.5h102q26 -95 147 -95q152 0 184 183l5 29q-67 -76 -176 -76q-96 0 -157.5 59t-61.5 164q0 119 76.5 206.5t195.5 87.5q132 0 182 -94q9 48 16 80h101zM322 453q-86 0 -133 -60.5
t-47 -142.5q0 -148 141 -148q88 0 136.5 62.5t48.5 150.5q0 61 -38 99.5t-108 38.5zM355 598q-58 0 -92.5 31t-34.5 86h67q7 -54 69 -54q59 0 83 54h72q-22 -55 -63.5 -86t-100.5 -31z" />
    <glyph glyph-name="Gdotaccent" unicode="&#x120;" horiz-adv-x="775" 
d="M735 378l-67 -378h-97q-1 0 1.5 13.5t6.5 35.5t9 41q-89 -103 -243 -103q-131 0 -213 86t-82 245q0 168 108 289.5t279 121.5q124 0 201 -60t101 -169h-110q-42 140 -201 140q-122 0 -194 -93.5t-72 -221.5q0 -117 55 -184.5t161 -67.5q100 0 163.5 62.5t85.5 153.5
q-23 -1 -64 -1h-191l16 90h347zM407 767l17 96h98l-17 -96h-98z" />
    <glyph glyph-name="gdotaccent" unicode="&#x121;" horiz-adv-x="638" 
d="M605 526l-78 -440q-27 -153 -97.5 -219.5t-197.5 -66.5q-108 0 -169.5 50.5t-71.5 131.5h102q26 -95 147 -95q152 0 184 183l5 29q-67 -76 -176 -76q-96 0 -157.5 59t-61.5 164q0 119 76.5 206.5t195.5 87.5q132 0 182 -94q9 48 16 80h101zM322 453q-86 0 -133 -60.5
t-47 -142.5q0 -148 141 -148q88 0 136.5 62.5t48.5 150.5q0 61 -38 99.5t-108 38.5zM311 611l17 96h98l-17 -96h-98z" />
    <glyph glyph-name="Gcommaaccent" unicode="&#x122;" horiz-adv-x="775" 
d="M735 378l-67 -378h-97q-1 0 1.5 13.5t6.5 35.5t9 41q-89 -103 -243 -103q-131 0 -213 86t-82 245q0 168 108 289.5t279 121.5q124 0 201 -60t101 -169h-110q-42 140 -201 140q-122 0 -194 -93.5t-72 -221.5q0 -117 55 -184.5t161 -67.5q100 0 163.5 62.5t85.5 153.5
q-23 -1 -64 -1h-191l16 90h347zM197 -163l112 114h101l-97 -114h-116z" />
    <glyph glyph-name="gcommaaccent" unicode="&#x123;" horiz-adv-x="638" 
d="M605 526l-78 -440q-27 -153 -97.5 -219.5t-197.5 -66.5q-108 0 -169.5 50.5t-71.5 131.5h102q26 -95 147 -95q152 0 184 183l5 29q-67 -76 -176 -76q-96 0 -157.5 59t-61.5 164q0 119 76.5 206.5t195.5 87.5q132 0 182 -94q9 48 16 80h101zM322 453q-86 0 -133 -60.5
t-47 -142.5q0 -148 141 -148q88 0 136.5 62.5t48.5 150.5q0 61 -38 99.5t-108 38.5zM512 715l-112 -114h-101l97 114h116z" />
    <glyph glyph-name="Hcircumflex" unicode="&#x124;" horiz-adv-x="716" 
d="M702 715l-128 -715h-105l58 322h-332l-57 -322h-105l127 715h105l-54 -304h332l54 304h105zM403 876h101q67 -97 80 -115h-85l-51 64l-72 -64h-95q73 68 122 115z" />
    <glyph glyph-name="hcircumflex" unicode="&#x125;" horiz-adv-x="603" 
d="M119 0h-100q21 120 62.5 357.5t62.5 357.5h103l-24 -133q-16 -96 -24 -136q17 33 65.5 62t112.5 29q79 0 122.5 -43.5t43.5 -113.5q0 -31 -5 -64l-56 -316h-101l48 283q6 40 6 65q0 105 -106 105q-67 0 -106 -45.5t-52 -119.5zM174 876h101q67 -97 80 -115h-85l-51 64
l-72 -64h-95q73 68 122 115z" />
    <glyph glyph-name="Hbar" unicode="&#x126;" horiz-adv-x="715" 
d="M702 715l-128 -715h-105l58 322h-332l-57 -322h-105l127 715h105l-17 -92h332l17 92h105zM211 411h332l22 123h-332z" />
    <glyph glyph-name="hbar" unicode="&#x127;" horiz-adv-x="603" 
d="M309 651l-13 -77h-75q-13 -78 -22 -128q17 33 65.5 62t112.5 29q79 0 122.5 -43.5t43.5 -113.5q0 -31 -5 -64l-56 -316h-101l48 283q6 40 6 65q0 105 -106 105q-67 0 -106 -45.5t-52 -119.5l-52 -288h-100l100 574h-56l13 77h57l11 64h103l-12 -64h74z" />
    <glyph glyph-name="Itilde" unicode="&#x128;" horiz-adv-x="279" 
d="M33 0l127 715h105l-127 -715h-105zM136 763h-62q2 49 24.5 78.5t61.5 29.5q29 0 74 -23q38 -18 52 -18q25 0 32 40h60q-2 -49 -24.5 -79t-59.5 -30q-27 0 -67 19q-43 22 -58 22q-25 0 -33 -39z" />
    <glyph glyph-name="itilde" unicode="&#x129;" horiz-adv-x="247" 
d="M19 0l92 525h103q-10 -57 -43 -239.5t-51 -285.5h-101zM97 608h-62q2 49 24.5 78.5t61.5 29.5q29 0 74 -23q38 -18 52 -18q25 0 32 40h60q-2 -49 -24.5 -79t-59.5 -30q-27 0 -67 19q-43 22 -58 22q-26 0 -33 -39z" />
    <glyph glyph-name="Imacron" unicode="&#x12a;" horiz-adv-x="279" 
d="M33 0l127 715h105l-127 -715h-105zM90 781l11 67h262l-11 -67h-262z" />
    <glyph glyph-name="imacron" unicode="&#x12b;" horiz-adv-x="247" 
d="M19 0l92 525h103q-10 -57 -43 -239.5t-51 -285.5h-101zM42 618l11 67h262l-11 -67h-262z" />
    <glyph glyph-name="Ibreve" unicode="&#x12c;" horiz-adv-x="279" 
d="M33 0l127 715h105l-127 -715h-105zM225 762q-58 0 -92.5 31t-34.5 86h67q7 -54 69 -54q59 0 83 54h72q-22 -55 -63.5 -86t-100.5 -31z" />
    <glyph glyph-name="ibreve" unicode="&#x12d;" horiz-adv-x="247" 
d="M19 0l92 525h103q-10 -57 -43 -239.5t-51 -285.5h-101zM179 598q-58 0 -92.5 31t-34.5 86h67q7 -54 69 -54q59 0 83 54h72q-22 -55 -63.5 -86t-100.5 -31z" />
    <glyph glyph-name="Iogonek" unicode="&#x12e;" horiz-adv-x="279" 
d="M33 0l127 715h105l-127 -715h-105zM124 -49l76 -114h-106l-55 114h85z" />
    <glyph glyph-name="iogonek" unicode="&#x12f;" horiz-adv-x="247" 
d="M19 0l93 526h102q-9 -51 -42.5 -236.5t-51.5 -289.5h-101zM124 601l20 114h105l-20 -114h-105zM104 -49l76 -114h-108l-55 114h87z" />
    <glyph glyph-name="Idotaccent" unicode="&#x130;" horiz-adv-x="279" 
d="M33 0l127 715h105l-127 -715h-105zM172 767l17 96h98l-17 -96h-98z" />
    <glyph glyph-name="dotlessi" unicode="&#x131;" horiz-adv-x="247" 
d="M19 0l92 525h103q-10 -57 -43 -239.5t-51 -285.5h-101z" />
    <glyph glyph-name="IJ" unicode="&#x132;" horiz-adv-x="774" 
d="M33 0l127 715h105l-127 -715h-105zM659 715h106l-90 -510q-19 -110 -69.5 -164.5t-154.5 -54.5q-81 0 -127.5 44.5t-46.5 119.5q0 9 2 31h95q-1 -7 -1 -18q0 -41 21.5 -66.5t62.5 -25.5q25 0 43 9t28.5 20t20 38t13 44t11.5 57z" />
    <glyph glyph-name="ij" unicode="&#x133;" horiz-adv-x="494" 
d="M19 0l93 526h102q-9 -51 -42.5 -236.5t-51.5 -289.5h-101zM124 601l20 114h105l-20 -114h-105zM461 526l-100 -555q-16 -93 -52.5 -131t-111.5 -38q-29 0 -67 6l15 80q19 -3 35 -3q39 0 55 17.5t23 56.5l14 80q14 81 43.5 243t43.5 244h102zM370 601l20 114h105l-20 -114
h-105z" />
    <glyph glyph-name="Jcircumflex" unicode="&#x134;" horiz-adv-x="495" 
d="M380 715h106l-90 -510q-19 -110 -69.5 -164.5t-154.5 -54.5q-81 0 -127.5 44.5t-46.5 119.5q0 9 2 31h95q-1 -7 -1 -18q0 -41 21.5 -66.5t62.5 -25.5q25 0 43 9t28.5 20t20 38t13 44t11.5 57zM408 876h101q67 -97 80 -115h-85l-51 64l-72 -64h-95q73 68 122 115z" />
    <glyph glyph-name="jcircumflex" unicode="&#x135;" horiz-adv-x="247" 
d="M214 526l-100 -555q-16 -93 -52.5 -131t-111.5 -38q-29 0 -67 6l15 80q20 -3 35 -3q39 0 55 17.5t23 56.5l14 80q14 82 43.5 244t43.5 243h102zM142 715h101q6 -9 35 -53.5t45 -65.5h-85l-51 66l-72 -66h-95q23 21 71 68.5t51 50.5z" />
    <glyph glyph-name="Kcommaaccent" unicode="&#x136;" horiz-adv-x="595" 
d="M33 0l126 715h106q-6 -34 -18 -98.5t-17 -94.5l-23 -131q101 103 208 206.5t121 117.5h134q-46 -43 -167 -157t-189 -177q37 -62 115.5 -188.5t117.5 -192.5h-124q-151 249 -219 371l-22 -123l-43 -248h-106zM340 -48l-112 -114h-101l97 114h116z" />
    <glyph glyph-name="kcommaaccent" unicode="&#x137;" horiz-adv-x="530" 
d="M120 0h-101q21 120 62.5 357.5t62.5 357.5h103l-76 -423l100 91q85 77 150 142h134l-278 -243q119 -170 196 -282h-121l-119 177q-39 56 -65 98q-6 -32 -24 -137zM314 -48l-112 -114h-101l97 114h116z" />
    <glyph glyph-name="kgreenlandic" unicode="&#x138;" horiz-adv-x="530" 
d="M111 525h102l-42 -233l100 91q85 77 150 142h134l-278 -243q119 -170 196 -282h-121l-119 177q-39 56 -65 98q-6 -32 -24 -137l-24 -138h-101z" />
    <glyph glyph-name="Lacute" unicode="&#x139;" horiz-adv-x="529" 
d="M33 0l126 715h106l-109 -624h313l-16 -91h-420zM426 875l-153 -114h-106l129 114h130z" />
    <glyph glyph-name="lacute" unicode="&#x13a;" horiz-adv-x="253" 
d="M23 0l124 715h103l-127 -715h-100zM402 875l-153 -114h-106l129 114h130z" />
    <glyph glyph-name="Lcommaaccent" unicode="&#x13b;" horiz-adv-x="529" 
d="M33 0l126 715h106l-109 -624h313l-16 -91h-420zM325 -48l-112 -114h-101l97 114h116z" />
    <glyph glyph-name="lcommaaccent" unicode="&#x13c;" horiz-adv-x="253" 
d="M23 0l124 715h103l-127 -715h-100zM148 -48l-112 -114h-101l97 114h116z" />
    <glyph glyph-name="Lcaron" unicode="&#x13d;" horiz-adv-x="529" 
d="M33 0l126 715h106l-109 -624h313l-16 -91h-420zM521 715l-130 -241h-86l111 241h105z" />
    <glyph glyph-name="lcaron" unicode="&#x13e;" horiz-adv-x="334" 
d="M23 0l124 715h103l-127 -715h-100zM482 715l-130 -241h-86l111 241h105z" />
    <glyph glyph-name="Ldot" unicode="&#x13f;" horiz-adv-x="529" 
d="M33 0l126 715h106l-109 -624h313l-16 -91h-420zM279 258l21 120h107l-21 -120h-107z" />
    <glyph glyph-name="ldot" unicode="&#x140;" horiz-adv-x="374" 
d="M23 0l124 715h103l-127 -715h-100zM259 258l21 120h107l-21 -120h-107z" />
    <glyph glyph-name="Lslash" unicode="&#x141;" horiz-adv-x="536" 
d="M168 715h106l-49 -278l156 91l-20 -91l-152 -87l-45 -258h310l-17 -92h-416l50 282l-90 -52l17 88l88 51z" />
    <glyph glyph-name="lslash" unicode="&#x142;" horiz-adv-x="273" 
d="M25 363l78 44l54 308h103l-44 -244l83 46l-16 -86l-82 -46l-68 -385h-101l56 322l-81 -45z" />
    <glyph glyph-name="Nacute" unicode="&#x143;" horiz-adv-x="740" 
d="M33 0l127 715h129l169 -418q13 -30 34.5 -90.5t27.5 -73.5l1 1q4 18 9 49.5t12.5 79.5t12.5 75l67 377h104l-127 -715h-129l-162 399l-70 183h-1q-4 -17 -10 -56t-16.5 -103t-17.5 -106l-56 -317h-104zM616 875l-153 -114h-106l129 114h130z" />
    <glyph glyph-name="nacute" unicode="&#x144;" horiz-adv-x="604" 
d="M19 0l93 525h99l-14 -84q21 37 66.5 66.5t116.5 29.5q80 0 122 -43t42 -114q0 -30 -5 -62l-56 -318h-101l48 285q6 38 6 63q0 106 -108 106q-65 0 -104 -44.5t-52 -117.5l-51 -292h-102zM528 715l-160 -119h-103l133 119h130z" />
    <glyph glyph-name="Ncommaaccent" unicode="&#x145;" horiz-adv-x="740" 
d="M33 0l127 715h129l169 -418q13 -30 34.5 -90.5t27.5 -73.5l1 1q4 18 9 49.5t12.5 79.5t12.5 75l67 377h104l-127 -715h-129l-162 399l-70 183h-1q-4 -17 -10 -56t-16.5 -103t-17.5 -106l-56 -317h-104zM406 -48l-112 -114h-101l97 114h116z" />
    <glyph glyph-name="ncommaaccent" unicode="&#x146;" horiz-adv-x="604" 
d="M19 0l93 525h99l-14 -84q21 37 66.5 66.5t116.5 29.5q80 0 122 -43t42 -114q0 -30 -5 -62l-56 -318h-101l48 285q6 38 6 63q0 106 -108 106q-65 0 -104 -44.5t-52 -117.5l-51 -292h-102zM344 -48l-112 -114h-101l97 114h116z" />
    <glyph glyph-name="Ncaron" unicode="&#x147;" horiz-adv-x="740" 
d="M33 0l127 715h129l169 -418q13 -30 34.5 -90.5t27.5 -73.5l1 1q4 18 9 49.5t12.5 79.5t12.5 75l67 377h104l-127 -715h-129l-162 399l-70 183h-1q-4 -17 -10 -56t-16.5 -103t-17.5 -106l-56 -317h-104zM493 761h-101q-67 97 -80 115h85l51 -64l72 64h95
q-73 -68 -122 -115z" />
    <glyph glyph-name="ncaron" unicode="&#x148;" horiz-adv-x="604" 
d="M19 0l93 525h99l-14 -84q21 37 66.5 66.5t116.5 29.5q80 0 122 -43t42 -114q0 -30 -5 -62l-56 -318h-101l48 285q6 38 6 63q0 106 -108 106q-65 0 -104 -44.5t-52 -117.5l-51 -292h-102zM404 596h-101q-6 9 -35 53.5t-45 65.5h85l51 -66l72 66h95q-23 -21 -71 -68.5
t-51 -50.5z" />
    <glyph glyph-name="napostrophe" unicode="&#x149;" horiz-adv-x="691" 
d="M106 0l93 525h99l-14 -84q21 37 66.5 66.5t116.5 29.5q80 0 122 -43t42 -114q0 -30 -5 -62l-56 -318h-101l48 285q6 38 6 63q0 106 -108 106q-65 0 -104 -44.5t-52 -117.5l-51 -292h-102zM234 715l-130 -241h-86l111 241h105z" />
    <glyph glyph-name="Eng" unicode="&#x14a;" horiz-adv-x="741" 
d="M33 0l127 715h129l169 -418q13 -30 34.5 -90.5t27.5 -73.5l1 1q4 18 9 49.5t12.5 79.5t12.5 75l67 377h104l-123 -695q-19 -110 -69 -164.5t-154 -54.5q-81 0 -126.5 44t-45.5 120q0 9 2 31h94q-1 -7 -1 -19q0 -41 21.5 -67.5t62.5 -26.5q48 0 72 29.5t34 87.5h-23
l-162 399l-70 183h-1q-4 -17 -10 -56t-16.5 -103t-17.5 -106l-56 -317h-104z" />
    <glyph glyph-name="eng" unicode="&#x14b;" horiz-adv-x="604" 
d="M19 0l93 525h99l-14 -84q21 37 66.5 66.5t116.5 29.5q80 0 122 -43t42 -114q0 -30 -5 -62l-61 -347q-16 -93 -52.5 -131t-111.5 -38q-29 0 -67 6l15 80q20 -3 35 -3q39 0 55 17.5t23 56.5l55 326q6 38 6 63q0 106 -108 106q-65 0 -104 -44.5t-52 -117.5l-51 -292h-102z
" />
    <glyph glyph-name="Omacron" unicode="&#x14c;" horiz-adv-x="801" 
d="M443 729q147 0 236.5 -83.5t89.5 -230.5q0 -186 -107.5 -307.5t-289.5 -121.5q-145 0 -234 83t-89 235q0 175 108.5 300t285.5 125zM436 641q-130 0 -202.5 -95t-72.5 -226q0 -115 56.5 -181t162.5 -66q90 0 154 49t93 123t29 163q0 106 -59.5 169.5t-160.5 63.5z
M347 781l11 67h262l-11 -67h-262z" />
    <glyph glyph-name="omacron" unicode="&#x14d;" horiz-adv-x="613" 
d="M327 539q113 0 176.5 -61t63.5 -176q0 -140 -77.5 -230t-217.5 -90q-111 0 -177 60.5t-66 174.5q0 135 79.5 228.5t218.5 93.5zM321 453q-91 0 -138.5 -67.5t-47.5 -158.5q0 -77 37 -119t108 -42q89 0 135 67.5t46 158.5q0 77 -35 119t-105 42zM229 618l11 67h262
l-11 -67h-262z" />
    <glyph glyph-name="Obreve" unicode="&#x14e;" horiz-adv-x="801" 
d="M443 729q147 0 236.5 -83.5t89.5 -230.5q0 -186 -107.5 -307.5t-289.5 -121.5q-145 0 -234 83t-89 235q0 175 108.5 300t285.5 125zM436 641q-130 0 -202.5 -95t-72.5 -226q0 -115 56.5 -181t162.5 -66q90 0 154 49t93 123t29 163q0 106 -59.5 169.5t-160.5 63.5z
M469 762q-58 0 -92.5 31t-34.5 86h67q7 -54 69 -54q59 0 83 54h72q-22 -55 -63.5 -86t-100.5 -31z" />
    <glyph glyph-name="obreve" unicode="&#x14f;" horiz-adv-x="613" 
d="M327 539q113 0 176.5 -61t63.5 -176q0 -140 -77.5 -230t-217.5 -90q-111 0 -177 60.5t-66 174.5q0 135 79.5 228.5t218.5 93.5zM321 453q-91 0 -138.5 -67.5t-47.5 -158.5q0 -77 37 -119t108 -42q89 0 135 67.5t46 158.5q0 77 -35 119t-105 42zM350 598q-58 0 -92.5 31
t-34.5 86h67q7 -54 69 -54q59 0 83 54h72q-46 -117 -164 -117z" />
    <glyph glyph-name="Ohungarumlaut" unicode="&#x150;" horiz-adv-x="801" 
d="M443 729q147 0 236.5 -83.5t89.5 -230.5q0 -186 -107.5 -307.5t-289.5 -121.5q-145 0 -234 83t-89 235q0 175 108.5 300t285.5 125zM436 641q-130 0 -202.5 -95t-72.5 -226q0 -115 56.5 -181t162.5 -66q90 0 154 49t93 123t29 163q0 106 -59.5 169.5t-160.5 63.5z
M565 876l-160 -115h-98l133 115h125zM761 876l-160 -115h-98l133 115h125z" />
    <glyph glyph-name="ohungarumlaut" unicode="&#x151;" horiz-adv-x="613" 
d="M327 539q113 0 176.5 -61t63.5 -176q0 -140 -77.5 -230t-217.5 -90q-111 0 -177 60.5t-66 174.5q0 135 79.5 228.5t218.5 93.5zM321 453q-91 0 -138.5 -67.5t-47.5 -158.5q0 -77 37 -119t108 -42q89 0 135 67.5t46 158.5q0 77 -35 119t-105 42zM438 715l-162 -119h-98
l135 119h125zM637 715l-162 -119h-98l135 119h125z" />
    <glyph glyph-name="OE" unicode="&#x152;" horiz-adv-x="1134" 
d="M1156 715l-17 -92h-341l-38 -212l318 1l-16 -92h-317l-41 -229h349l-17 -91h-453l11 63q-97 -76 -230 -76q-140 0 -227.5 84t-87.5 236q0 112 47 207.5t138 154t207 58.5q159 0 252 -106l17 94h446zM436 641q-130 0 -202.5 -95t-72.5 -226q0 -115 56.5 -181t162.5 -66
q90 0 154 49t93 123t29 163q0 106 -59.5 169.5t-160.5 63.5z" />
    <glyph glyph-name="oe" unicode="&#x153;" horiz-adv-x="1015" 
d="M846 148h105q-33 -73 -98.5 -119.5t-162.5 -46.5q-137 0 -201 95q-78 -95 -218 -95q-111 0 -176.5 60.5t-65.5 174.5q0 136 78.5 229t218.5 93q142 0 202 -98q84 99 215 99q106 0 169.5 -62.5t63.5 -171.5q0 -32 -6 -70h-417v-5q0 -165 146 -165q97 0 147 82zM320 453
q-91 0 -138 -67t-47 -159q0 -77 36.5 -119t107.5 -42q89 0 134.5 67.5t45.5 158.5q0 77 -34.5 119t-104.5 42zM564 309l312 1q0 69 -37 108.5t-103 39.5t-110 -38.5t-62 -110.5z" />
    <glyph glyph-name="Racute" unicode="&#x154;" horiz-adv-x="624" 
d="M33 0l127 715h216q133 0 186 -41q62 -47 62 -132q0 -99 -57 -162.5t-160 -81.5l126 -298h-116l-114 287h-113l-51 -287h-106zM249 625l-43 -251h124q92 0 137 37q49 39 49 110q0 104 -155 104h-112zM569 875l-153 -114h-106l129 114h130z" />
    <glyph glyph-name="racute" unicode="&#x155;" horiz-adv-x="336" 
d="M361 532l-16 -91q-28 4 -37 4q-65 0 -95 -42t-45 -130l-48 -273h-101l92 526h96l-17 -86q0 -1 1 -1q18 42 54.5 69t82.5 27q12 0 33 -3zM389 715l-160 -119h-103l133 119h130z" />
    <glyph glyph-name="Rcommaaccent" unicode="&#x156;" horiz-adv-x="624" 
d="M33 0l127 715h216q133 0 186 -41q62 -47 62 -132q0 -99 -57 -162.5t-160 -81.5l126 -298h-116l-114 287h-113l-51 -287h-106zM249 625l-43 -251h124q92 0 137 37q49 39 49 110q0 104 -155 104h-112zM122 -163l112 114h101l-97 -114h-116z" />
    <glyph glyph-name="rcommaaccent" unicode="&#x157;" horiz-adv-x="336" 
d="M361 532l-16 -91q-28 4 -37 4q-65 0 -95 -42t-45 -130l-48 -273h-101l92 526h96l-17 -86q0 -1 1 -1q18 42 54.5 69t82.5 27q12 0 33 -3zM-53 -163l112 114h101l-97 -114h-116z" />
    <glyph glyph-name="Rcaron" unicode="&#x158;" horiz-adv-x="624" 
d="M33 0l127 715h216q133 0 186 -41q62 -47 62 -132q0 -99 -57 -162.5t-160 -81.5l126 -298h-116l-114 287h-113l-51 -287h-106zM249 625l-43 -251h124q92 0 137 37q49 39 49 110q0 104 -155 104h-112zM428 761h-101q-67 97 -80 115h85l51 -64l72 64h95q-73 -68 -122 -115z
" />
    <glyph glyph-name="rcaron" unicode="&#x159;" horiz-adv-x="336" 
d="M361 532l-16 -91q-28 4 -37 4q-65 0 -95 -42t-45 -130l-48 -273h-101l92 526h96l-17 -86q0 -1 1 -1q18 42 54.5 69t82.5 27q12 0 33 -3zM286 596h-101q-6 9 -35 53.5t-45 65.5h85l51 -66l72 66h95q-23 -21 -71 -68.5t-51 -50.5z" />
    <glyph glyph-name="Sacute" unicode="&#x15a;" horiz-adv-x="599" 
d="M13 203h102q0 -59 40.5 -95.5t115.5 -36.5q76 0 118.5 34.5t42.5 89.5q0 43 -29.5 68t-93.5 50l-41 16q-91 36 -131.5 75.5t-40.5 114.5q0 93 69 151.5t182 58.5q117 0 176 -56.5t59 -143.5h-104q-3 54 -40 83.5t-98 29.5q-65 0 -99.5 -29.5t-34.5 -78.5
q0 -40 21.5 -65.5t70.5 -43.5l58 -21q41 -15 66.5 -27.5t57 -35t47 -54t15.5 -72.5q0 -109 -75 -168.5t-203 -59.5q-121 0 -186 56.5t-65 153.5v6zM556 875l-153 -114h-106l129 114h130z" />
    <glyph glyph-name="sacute" unicode="&#x15b;" horiz-adv-x="497" 
d="M462 377h-89q-12 81 -113 81q-46 0 -72 -19t-26 -51q0 -28 17.5 -42t70.5 -33l32 -12q80 -28 115 -56t35 -85q0 -83 -59 -130.5t-161 -47.5q-96 0 -149 46.5t-58 136.5h91q3 -41 34.5 -71t88.5 -30q55 0 84.5 22t29.5 56q0 17 -5 28t-21.5 20.5t-26 13.5t-41.5 15l-44 15
q-71 25 -102.5 52.5t-31.5 85.5q0 75 57.5 121.5t151.5 46.5q86 0 139 -39.5t53 -112.5v-11zM481 715l-160 -119h-103l133 119h130z" />
    <glyph glyph-name="Scircumflex" unicode="&#x15c;" horiz-adv-x="599" 
d="M13 203h102q0 -59 40.5 -95.5t115.5 -36.5q76 0 118.5 34.5t42.5 89.5q0 43 -29.5 68t-93.5 50l-41 16q-91 36 -131.5 75.5t-40.5 114.5q0 93 69 151.5t182 58.5q117 0 176 -56.5t59 -143.5h-104q-3 54 -40 83.5t-98 29.5q-65 0 -99.5 -29.5t-34.5 -78.5
q0 -40 21.5 -65.5t70.5 -43.5l58 -21q41 -15 66.5 -27.5t57 -35t47 -54t15.5 -72.5q0 -109 -75 -168.5t-203 -59.5q-121 0 -186 56.5t-65 153.5v6zM347 876h101q67 -97 80 -115h-85l-51 64l-72 -64h-95q73 68 122 115z" />
    <glyph glyph-name="scircumflex" unicode="&#x15d;" horiz-adv-x="497" 
d="M462 377h-89q-12 81 -113 81q-46 0 -72 -19t-26 -51q0 -28 17.5 -42t70.5 -33l32 -12q80 -28 115 -56t35 -85q0 -83 -59 -130.5t-161 -47.5q-96 0 -149 46.5t-58 136.5h91q3 -41 34.5 -71t88.5 -30q55 0 84.5 22t29.5 56q0 17 -5 28t-21.5 20.5t-26 13.5t-41.5 15l-44 15
q-71 25 -102.5 52.5t-31.5 85.5q0 75 57.5 121.5t151.5 46.5q86 0 139 -39.5t53 -112.5v-11zM268 715h101q6 -9 35 -53.5t45 -65.5h-85l-51 66l-72 -66h-95q23 21 71 68.5t51 50.5z" />
    <glyph glyph-name="Scedilla" unicode="&#x15e;" horiz-adv-x="599" 
d="M13 203h102q0 -59 40.5 -95.5t115.5 -36.5q76 0 118.5 34.5t42.5 89.5q0 43 -29.5 68t-93.5 50l-41 16q-91 36 -131.5 75.5t-40.5 114.5q0 93 69 151.5t182 58.5q117 0 176 -56.5t59 -143.5h-104q-3 54 -40 83.5t-98 29.5q-65 0 -99.5 -29.5t-34.5 -78.5
q0 -40 21.5 -65.5t70.5 -43.5l58 -21q41 -15 66.5 -27.5t57 -35t47 -54t15.5 -72.5q0 -109 -75 -168.5t-203 -59.5q-121 0 -186 56.5t-65 153.5v6zM122 -163l112 114h105l-97 -114h-120z" />
    <glyph glyph-name="scedilla" unicode="&#x15f;" horiz-adv-x="497" 
d="M462 377h-89q-12 81 -113 81q-46 0 -72 -19t-26 -51q0 -28 17.5 -42t70.5 -33l32 -12q80 -28 115 -56t35 -85q0 -83 -59 -130.5t-161 -47.5q-96 0 -149 46.5t-58 136.5h91q3 -41 34.5 -71t88.5 -30q55 0 84.5 22t29.5 56q0 17 -5 28t-21.5 20.5t-26 13.5t-41.5 15l-44 15
q-71 25 -102.5 52.5t-31.5 85.5q0 75 57.5 121.5t151.5 46.5q86 0 139 -39.5t53 -112.5v-11zM70 -163l112 114h105l-97 -114h-120z" />
    <glyph glyph-name="Scaron" unicode="&#x160;" horiz-adv-x="599" 
d="M13 203h102q0 -59 40.5 -95.5t115.5 -36.5q76 0 118.5 34.5t42.5 89.5q0 43 -29.5 68t-93.5 50l-41 16q-91 36 -131.5 75.5t-40.5 114.5q0 93 69 151.5t182 58.5q117 0 176 -56.5t59 -143.5h-104q-3 54 -40 83.5t-98 29.5q-65 0 -99.5 -29.5t-34.5 -78.5
q0 -40 21.5 -65.5t70.5 -43.5l58 -21q41 -15 66.5 -27.5t57 -35t47 -54t15.5 -72.5q0 -109 -75 -168.5t-203 -59.5q-121 0 -186 56.5t-65 153.5v6zM404 761h-101q-67 97 -80 115h85l51 -64l72 64h95q-73 -68 -122 -115z" />
    <glyph glyph-name="scaron" unicode="&#x161;" horiz-adv-x="497" 
d="M462 377h-89q-12 81 -113 81q-46 0 -72 -19t-26 -51q0 -28 17.5 -42t70.5 -33l32 -12q80 -28 115 -56t35 -85q0 -83 -59 -130.5t-161 -47.5q-96 0 -149 46.5t-58 136.5h91q3 -41 34.5 -71t88.5 -30q55 0 84.5 22t29.5 56q0 17 -5 28t-21.5 20.5t-26 13.5t-41.5 15l-44 15
q-71 25 -102.5 52.5t-31.5 85.5q0 75 57.5 121.5t151.5 46.5q86 0 139 -39.5t53 -112.5v-11zM347 596h-101q-6 9 -35 53.5t-45 65.5h85l51 -66l72 66h95q-23 -21 -71 -68.5t-51 -50.5z" />
    <glyph glyph-name="uni0162" unicode="&#x162;" horiz-adv-x="541" 
d="M72 -163l112 114h101l-97 -114h-116zM163 0l110 623h-193l16 92h493l-17 -92h-194l-110 -623h-105z" />
    <glyph glyph-name="uni0163" unicode="&#x163;" horiz-adv-x="320" 
d="M1 -163l112 114h101l-97 -114h-116zM38 447l14 79h82l25 141h103l-26 -141h101l-14 -79h-101l-51 -289q-4 -21 -4 -42q0 -29 14.5 -41t50.5 -12h15l-13 -72q-13 -3 -39 -3q-136 0 -136 91q0 14 6 54l55 314h-82z" />
    <glyph glyph-name="Tcaron" unicode="&#x164;" horiz-adv-x="541" 
d="M163 0l110 623h-193l16 92h493l-17 -92h-194l-110 -623h-105zM403 761h-101q-67 97 -80 115h85l51 -64l72 64h95q-73 -68 -122 -115z" />
    <glyph glyph-name="tcaron" unicode="&#x165;" horiz-adv-x="399" 
d="M38 447l14 79h82l25 141h103l-26 -141h101l-14 -79h-101l-51 -289q-4 -21 -4 -42q0 -29 14.5 -41t50.5 -12h15l-13 -72q-13 -3 -39 -3q-136 0 -136 91q0 14 6 54l55 314h-82zM567 715l-130 -241h-86l111 241h105z" />
    <glyph glyph-name="Tbar" unicode="&#x166;" horiz-adv-x="553" 
d="M102 320l15 84h122l39 219h-193l16 92h493l-17 -92h-194l-39 -219h130l-15 -84h-130l-56 -320h-105l56 320h-122z" />
    <glyph glyph-name="tbar" unicode="&#x167;" horiz-adv-x="327" 
d="M43 447l14 79h82l25 141h103l-26 -141h101l-14 -79h-101l-17 -95h97l-13 -77h-98l-20 -117q-4 -21 -4 -42q0 -29 14.5 -41t50.5 -12h15l-13 -72q-13 -3 -39 -3q-136 0 -136 91q0 14 6 54l25 142h-85l13 77h85l17 95h-82z" />
    <glyph glyph-name="Utilde" unicode="&#x168;" horiz-adv-x="677" 
d="M669 715l-79 -454q-25 -140 -92.5 -208t-198.5 -68q-117 0 -175 54.5t-58 155.5q0 43 23 168l62 352h105l-75 -424q-8 -35 -8 -85q0 -135 137 -135q84 0 121.5 50t54.5 153l79 441h104zM335 763h-62q2 49 24.5 78.5t61.5 29.5q29 0 74 -23q38 -18 52 -18q25 0 32 40h60
q-2 -49 -24.5 -79t-59.5 -30q-27 0 -67 19q-43 22 -58 22q-26 0 -33 -39z" />
    <glyph glyph-name="utilde" unicode="&#x169;" horiz-adv-x="597" 
d="M563 525l-93 -525h-97l14 79q-20 -36 -66.5 -65t-115.5 -29q-81 0 -121 41t-40 112q0 33 5 65l57 322h103l-52 -288q-6 -38 -6 -63q0 -106 106 -106q63 0 101 44.5t51 117.5l52 295h102zM266 608h-62q2 49 24.5 78.5t61.5 29.5q29 0 74 -23q38 -18 52 -18q25 0 32 40h60
q-2 -49 -24.5 -79t-59.5 -30q-27 0 -67 19q-43 22 -58 22q-25 0 -33 -39z" />
    <glyph glyph-name="Umacron" unicode="&#x16a;" horiz-adv-x="677" 
d="M669 715l-79 -454q-25 -140 -92.5 -208t-198.5 -68q-117 0 -175 54.5t-58 155.5q0 43 23 168l62 352h105l-75 -424q-8 -35 -8 -85q0 -135 137 -135q84 0 121.5 50t54.5 153l79 441h104zM291 781l11 67h262l-11 -67h-262z" />
    <glyph glyph-name="umacron" unicode="&#x16b;" horiz-adv-x="597" 
d="M563 525l-93 -525h-97l14 79q-20 -36 -66.5 -65t-115.5 -29q-81 0 -121 41t-40 112q0 33 5 65l57 322h103l-52 -288q-6 -38 -6 -63q0 -106 106 -106q63 0 101 44.5t51 117.5l52 295h102zM217 618l11 67h262l-11 -67h-262z" />
    <glyph glyph-name="Ubreve" unicode="&#x16c;" horiz-adv-x="677" 
d="M669 715l-79 -454q-25 -140 -92.5 -208t-198.5 -68q-117 0 -175 54.5t-58 155.5q0 43 23 168l62 352h105l-75 -424q-8 -35 -8 -85q0 -135 137 -135q84 0 121.5 50t54.5 153l79 441h104zM423 762q-58 0 -92.5 31t-34.5 86h67q7 -54 69 -54q59 0 83 54h72
q-22 -55 -63.5 -86t-100.5 -31z" />
    <glyph glyph-name="ubreve" unicode="&#x16d;" horiz-adv-x="597" 
d="M563 525l-93 -525h-97l14 79q-20 -36 -66.5 -65t-115.5 -29q-81 0 -121 41t-40 112q0 33 5 65l57 322h103l-52 -288q-6 -38 -6 -63q0 -106 106 -106q63 0 101 44.5t51 117.5l52 295h102zM353 598q-58 0 -92.5 31t-34.5 86h67q7 -54 69 -54q59 0 83 54h72
q-22 -55 -63.5 -86t-100.5 -31z" />
    <glyph glyph-name="Uring" unicode="&#x16e;" horiz-adv-x="677" 
d="M669 715l-79 -454q-25 -140 -92.5 -208t-198.5 -68q-117 0 -175 54.5t-58 155.5q0 43 23 168l62 352h105l-75 -424q-8 -35 -8 -85q0 -135 137 -135q84 0 121.5 50t54.5 153l79 441h104zM417 748q-37 0 -62 25.5t-25 63.5q0 36 25.5 61.5t62.5 25.5t62.5 -25.5t25.5 -61.5
q0 -38 -25.5 -63.5t-63.5 -25.5zM374 837q0 -19 12.5 -32t30.5 -13q19 0 31.5 12.5t12.5 32.5q0 17 -12.5 30t-31.5 13q-18 0 -30.5 -13t-12.5 -30z" />
    <glyph glyph-name="uring" unicode="&#x16f;" horiz-adv-x="597" 
d="M563 525l-93 -525h-97l14 79q-20 -36 -66.5 -65t-115.5 -29q-81 0 -121 41t-40 112q0 33 5 65l57 322h103l-52 -288q-6 -38 -6 -63q0 -106 106 -106q63 0 101 44.5t51 117.5l52 295h102zM344 588q-37 0 -62 25.5t-25 63.5q0 36 25.5 61.5t62.5 25.5t62.5 -25.5
t25.5 -61.5q0 -38 -25.5 -63.5t-63.5 -25.5zM301 677q0 -19 12.5 -32t30.5 -13q19 0 31.5 12.5t12.5 32.5q0 17 -13 30t-31 13t-30.5 -13t-12.5 -30z" />
    <glyph glyph-name="Uhungarumlaut" unicode="&#x170;" horiz-adv-x="677" 
d="M669 715l-79 -454q-25 -140 -92.5 -208t-198.5 -68q-117 0 -175 54.5t-58 155.5q0 43 23 168l62 352h105l-75 -424q-8 -35 -8 -85q0 -135 137 -135q84 0 121.5 50t54.5 153l79 441h104zM500 876l-160 -115h-98l133 115h125zM696 876l-160 -115h-98l133 115h125z" />
    <glyph glyph-name="uhungarumlaut" unicode="&#x171;" horiz-adv-x="597" 
d="M563 525l-93 -525h-97l14 79q-20 -36 -66.5 -65t-115.5 -29q-81 0 -121 41t-40 112q0 33 5 65l57 322h103l-52 -288q-6 -38 -6 -63q0 -106 106 -106q63 0 101 44.5t51 117.5l52 295h102zM433 715l-162 -119h-98l135 119h125zM632 715l-162 -119h-98l135 119h125z" />
    <glyph glyph-name="Uogonek" unicode="&#x172;" horiz-adv-x="677" 
d="M669 715l-79 -454q-25 -140 -92.5 -208t-198.5 -68q-117 0 -175 54.5t-58 155.5q0 43 23 168l62 352h105l-75 -424q-8 -35 -8 -85q0 -135 137 -135q84 0 121.5 50t54.5 153l79 441h104zM324 -49l76 -114h-108l-55 114h87z" />
    <glyph glyph-name="uogonek" unicode="&#x173;" horiz-adv-x="597" 
d="M563 525l-93 -525h-97l14 79q-20 -36 -66.5 -65t-115.5 -29q-81 0 -121 41t-40 112q0 33 5 65l57 322h103l-52 -288q-6 -38 -6 -63q0 -106 106 -106q63 0 101 44.5t51 117.5l52 295h102zM271 -49l76 -114h-108l-55 114h87z" />
    <glyph glyph-name="Wcircumflex" unicode="&#x174;" horiz-adv-x="924" 
d="M970 715l-284 -715h-148l-13 343l-9 276h-2q-85 -231 -115 -305l-127 -314h-151l-27 715h108l9 -411q1 -28 1 -208h3q38 104 81 207l166 412h143l19 -405q4 -109 4 -211h2q14 43 42.5 117t36.5 95l151 404h110zM508 876h101q67 -97 80 -115h-85l-51 64l-72 -64h-95
q73 68 122 115z" />
    <glyph glyph-name="wcircumflex" unicode="&#x175;" horiz-adv-x="804" 
d="M242 0h-111q-12 76 -25 165t-27.5 195.5t-23.5 165.5h100q30 -262 31 -269l15 -164l1 -1h2l102 251q31 76 77 183h103q4 -61 16 -200t19 -233q1 0 3 -1q11 25 30.5 70.5t38 87t37.5 83.5l89 193h104l-260 -526h-115q-33 279 -33 410h-3q-67 -190 -170 -410zM413 715h101
q6 -9 35 -53.5t45 -65.5h-85l-51 66l-72 -66h-95q23 21 71 68.5t51 50.5z" />
    <glyph glyph-name="Ycircumflex" unicode="&#x176;" horiz-adv-x="593" 
d="M544 715h115q-63 -87 -179.5 -246t-140.5 -192l-49 -277h-105l49 277l-160 438h109l120 -347zM336 876h101q67 -97 80 -115h-85l-51 64l-72 -64h-95q73 68 122 115z" />
    <glyph glyph-name="ycircumflex" unicode="&#x177;" horiz-adv-x="528" 
d="M151 -180h-104l109 189q-38 187 -107 516h108q12 -71 36.5 -212.5t33.5 -198.5q77 140 216 411h110q-49 -85 -153 -272t-162 -287q-48 -84 -87 -146zM271 715h101q6 -9 35 -53.5t45 -65.5h-85l-51 66l-72 -66h-95q23 21 71 68.5t51 50.5z" />
    <glyph glyph-name="Ydieresis" unicode="&#x178;" horiz-adv-x="593" 
d="M544 715h115q-63 -87 -179.5 -246t-140.5 -192l-49 -277h-105l49 277l-160 438h109l120 -347zM237 766l17 96h98l-17 -96h-98zM406 766l17 96h97l-17 -96h-97z" />
    <glyph glyph-name="Zacute" unicode="&#x179;" horiz-adv-x="573" 
d="M602 715l-16 -86l-12 -15q-12 -15 -34.5 -43t-45.5 -54l-300 -340q-15 -17 -29.5 -33.5t-28.5 -32t-19 -20.5h1h382l-17 -91h-503l15 84q10 11 50 59t62 73l285 326q55 60 72 81h-362l17 92h483zM532 875l-153 -114h-106l129 114h130z" />
    <glyph glyph-name="zacute" unicode="&#x17a;" horiz-adv-x="491" 
d="M484 526l-14 -79q-235 -251 -357 -368q78 2 142 2h162l-14 -81h-415l12 77l264 277q38 40 93 92q-18 0 -70.5 -0.5t-72.5 -0.5h-152q3 13 16 81h406zM464 715l-160 -119h-103l133 119h130z" />
    <glyph glyph-name="Zdotaccent" unicode="&#x17b;" horiz-adv-x="573" 
d="M602 715l-16 -86l-12 -15q-12 -15 -34.5 -43t-45.5 -54l-300 -340q-15 -17 -29.5 -33.5t-28.5 -32t-19 -20.5h1h382l-17 -91h-503l15 84q10 11 50 59t62 73l285 326q55 60 72 81h-362l17 92h483zM303 767l17 96h98l-17 -96h-98z" />
    <glyph glyph-name="zdotaccent" unicode="&#x17c;" horiz-adv-x="491" 
d="M484 526l-14 -79q-235 -251 -357 -368q78 2 142 2h162l-14 -81h-415l12 77l264 277q38 40 93 92q-18 0 -70.5 -0.5t-72.5 -0.5h-152q3 13 16 81h406zM230 611l17 96h98l-17 -96h-98z" />
    <glyph glyph-name="Zcaron" unicode="&#x17d;" horiz-adv-x="573" 
d="M602 715l-16 -86l-12 -15q-12 -15 -34.5 -43t-45.5 -54l-300 -340q-15 -17 -29.5 -33.5t-28.5 -32t-19 -20.5h1h382l-17 -91h-503l15 84q10 11 50 59t62 73l285 326q55 60 72 81h-362l17 92h483zM407 761h-101q-67 97 -80 115h85l51 -64l72 64h95q-73 -68 -122 -115z" />
    <glyph glyph-name="zcaron" unicode="&#x17e;" horiz-adv-x="491" 
d="M484 526l-14 -79q-235 -251 -357 -368q78 2 142 2h162l-14 -81h-415l12 77l264 277q38 40 93 92q-18 0 -70.5 -0.5t-72.5 -0.5h-152q3 13 16 81h406zM332 596h-101q-6 9 -35 53.5t-45 65.5h85l51 -66l72 66h95q-23 -21 -71 -68.5t-51 -50.5z" />
    <glyph glyph-name="uni0186" unicode="&#x186;" horiz-adv-x="749" 
d="M172 508h-116q106 220 340 220q141 0 231 -83.5t90 -232.5q0 -114 -44.5 -210t-134.5 -156.5t-208 -60.5q-123 0 -201 62t-101 170h111q17 -63 67.5 -103t131.5 -40q84 0 146.5 47.5t91.5 119t29 154.5q0 114 -56 180t-159 66q-145 0 -218 -133z" />
    <glyph glyph-name="uni018F" unicode="&#x18f;" horiz-adv-x="780" 
d="M47 391h591q2 117 -58 184t-165 67q-152 0 -218 -121h-117q51 96 137 151.5t205 55.5q150 0 238.5 -83.5t88.5 -231.5q0 -184 -109.5 -305t-291.5 -121q-144 0 -226.5 82.5t-82.5 236.5q0 40 8 85zM361 72q104 0 173 66t94 172h-483q0 -108 54 -173t162 -65z" />
    <glyph glyph-name="uni0190" unicode="&#x190;" horiz-adv-x="554" 
d="M567 509h-104v11q0 51 -32 85t-99 34q-69 0 -109 -43.5t-40 -106.5q0 -120 156 -120l-15 -84q-165 0 -165 -122q0 -41 26.5 -64t74.5 -23q54 0 80.5 26t35.5 77h102q-12 -91 -73.5 -142t-160.5 -51q-85 0 -138 41t-53 112q0 70 41 118t105 65q-57 19 -90 61t-33 99
q0 108 72.5 177.5t190.5 69.5q106 0 167.5 -57t61.5 -144q0 -4 -0.5 -10t-0.5 -9z" />
    <glyph glyph-name="florin" unicode="&#x192;" horiz-adv-x="379" 
d="M43 405l11 78h109q16 122 64.5 180.5t145.5 58.5q5 0 38 -3l-11 -81q-2 1 -20 1q-56 0 -81.5 -38.5t-34.5 -117.5h110l-11 -78h-110l-47 -326q-22 -148 -65 -205t-143 -57q-32 0 -55 6l11 78q5 -2 27 -2q63 0 86 40t37 135l47 331h-108z" />
    <glyph glyph-name="uni019D" unicode="&#x19d;" horiz-adv-x="739" 
d="M25 -41l134 756h129l169 -418q13 -30 34.5 -90.5t27.5 -73.5l1 1q4 18 9 49.5t12.5 79.5t12.5 75l67 377h104l-127 -715h-129l-162 399l-70 183h-1q-4 -17 -10 -56t-16.5 -103t-17.5 -106l-62 -346q-16 -93 -52.5 -131t-111.5 -38q-29 0 -67 6l15 80q20 -3 33 -3
q39 0 55 17.5t23 56.5z" />
    <glyph glyph-name="uni019F" unicode="&#x19f;" horiz-adv-x="801" 
d="M443 729q148 0 237 -83.5t89 -230.5q0 -186 -107.5 -307.5t-289.5 -121.5q-145 0 -234 83t-89 235q0 175 108.5 300t285.5 125zM380 73q111 0 178.5 68.5t89.5 178.5h-487q0 -115 56.5 -181t162.5 -66zM436 641q-108 0 -176.5 -66.5t-90.5 -169.5h487v3
q0 106 -59.5 169.5t-160.5 63.5z" />
    <glyph glyph-name="Ohorn" unicode="&#x1a0;" horiz-adv-x="801" 
d="M443 729q147 0 236.5 -83.5t89.5 -230.5q0 -186 -107.5 -307.5t-289.5 -121.5q-145 0 -234 83t-89 235q0 175 108.5 300t285.5 125zM436 641q-130 0 -202.5 -95t-72.5 -226q0 -115 56.5 -181t162.5 -66q90 0 154 49t93 123t29 163q0 106 -59.5 169.5t-160.5 63.5z
M782 906l-121 -187h-78l99 187h100z" />
    <glyph glyph-name="ohorn" unicode="&#x1a1;" horiz-adv-x="613" 
d="M327 539q113 0 176.5 -61t63.5 -176q0 -140 -77.5 -230t-217.5 -90q-111 0 -177 60.5t-66 174.5q0 135 79.5 228.5t218.5 93.5zM321 453q-91 0 -138.5 -67.5t-47.5 -158.5q0 -77 37 -119t108 -42q89 0 135 67.5t46 158.5q0 77 -35 119t-105 42zM642 715l-121 -187h-78
l99 187h100z" />
    <glyph glyph-name="Uhorn" unicode="&#x1af;" horiz-adv-x="677" 
d="M738 902l-121 -187h52l-79 -454q-25 -140 -92.5 -208t-198.5 -68q-117 0 -175 54.5t-58 155.5q0 43 23 168l62 352h105l-75 -424q-8 -35 -8 -85q0 -135 137 -135q84 0 121.5 50t54.5 153l79 441h-26l99 187h100z" />
    <glyph glyph-name="uhorn" unicode="&#x1b0;" horiz-adv-x="597" 
d="M636 715l-122 -190h49l-93 -525h-97l14 79q-20 -36 -66.5 -65t-115.5 -29q-81 0 -121 41t-40 112q0 33 5 65l57 322h103l-52 -288q-6 -38 -6 -63q0 -106 106 -106q63 0 101 44.5t51 117.5l52 295h-25l100 190h100z" />
    <glyph glyph-name="uni01C4" unicode="&#x1c4;" horiz-adv-x="1297" 
d="M33 0l127 715h134q73 0 129 -7t108.5 -27t86.5 -52.5t54 -85.5t20 -125q0 -166 -89 -277q-69 -88 -160 -114.5t-235 -26.5h-175zM249 625l-95 -536h92q88 0 154.5 25.5t104.5 70.5t56.5 101t18.5 122q0 106 -62.5 161.5t-182.5 55.5h-86zM1326 715l-16 -86l-12 -15
q-12 -15 -34.5 -43t-45.5 -54l-300 -340q-15 -17 -29.5 -33.5t-28.5 -32t-19 -20.5h1h382l-17 -91h-503l15 84q10 11 50 59t62 73l285 326q55 60 72 81h-362l17 92h483zM1131 761h-101q-67 97 -80 115h85l51 -64l72 64h95q-73 -68 -122 -115z" />
    <glyph glyph-name="uni01C5" unicode="&#x1c5;" horiz-adv-x="1215" 
d="M33 0l127 715h134q73 0 129 -7t108.5 -27t86.5 -52.5t54 -85.5t20 -125q0 -166 -89 -277q-69 -88 -160 -114.5t-235 -26.5h-175zM249 625l-95 -536h92q88 0 154.5 25.5t104.5 70.5t56.5 101t18.5 122q0 106 -62.5 161.5t-182.5 55.5h-86zM1208 526l-14 -79
q-235 -251 -357 -368q78 2 142 2h162l-14 -81h-415l12 77l264 277q38 40 93 92q-18 0 -70.5 -0.5t-72.5 -0.5h-152q4 13 16 81h406zM1056 596h-101q-6 9 -35 53.5t-45 65.5h85l51 -66l72 66h95q-23 -21 -71 -68.5t-51 -50.5z" />
    <glyph glyph-name="uni01C6" unicode="&#x1c6;" horiz-adv-x="1127" 
d="M636 715l-127 -715h-95l15 68q-59 -84 -185 -84q-93 0 -154 63t-61 180q0 123 79.5 218t202.5 95q69 0 112.5 -27.5t63.5 -63.5l19 108l28 158h102zM321 453q-88 0 -137.5 -67.5t-49.5 -159.5q0 -74 36.5 -117.5t104.5 -43.5q90 0 139 68.5t49 162.5q0 73 -37 115
t-105 42zM1120 526l-14 -79q-235 -251 -357 -368q78 2 142 2h162l-14 -81h-415l12 77l264 277q38 40 93 92q-18 0 -70.5 -0.5t-72.5 -0.5h-152q4 13 16 81h406zM968 596h-101q-6 9 -35 53.5t-45 65.5h85l51 -66l72 66h95q-23 -21 -71 -68.5t-51 -50.5z" />
    <glyph glyph-name="uni01C7" unicode="&#x1c7;" horiz-adv-x="1024" 
d="M33 0l126 715h106l-109 -624h313l-16 -91h-420zM909 715h106l-90 -510q-19 -110 -69.5 -164.5t-154.5 -54.5q-81 0 -127.5 44.5t-46.5 119.5q0 9 2 31h95q-1 -7 -1 -18q0 -41 21.5 -66.5t62.5 -25.5q25 0 43 9t28.5 20t20 38t13 44t11.5 57z" />
    <glyph glyph-name="uni01C8" unicode="&#x1c8;" horiz-adv-x="776" 
d="M33 0l126 715h106l-109 -624h313l-16 -91h-420zM743 526l-100 -555q-16 -93 -52.5 -131t-111.5 -38q-29 0 -67 6l15 80q19 -3 35 -3q39 0 55 17.5t23 56.5l14 80q14 81 43.5 243t43.5 244h102zM652 601l20 114h105l-20 -114h-105z" />
    <glyph glyph-name="uni01C9" unicode="&#x1c9;" horiz-adv-x="500" 
d="M23 0l124 715h103l-127 -715h-100zM467 526l-100 -555q-16 -93 -52.5 -131t-111.5 -38q-29 0 -67 6l15 80q20 -3 35 -3q39 0 55 17.5t23 56.5l14 80q14 81 43.5 243t43.5 244h102zM376 601l20 114h105l-20 -114h-105z" />
    <glyph glyph-name="uni01CA" unicode="&#x1ca;" horiz-adv-x="1235" 
d="M33 0l127 715h129l169 -418q13 -30 34.5 -90.5t27.5 -73.5l1 1q4 18 9 49.5t12.5 79.5t12.5 75l67 377h104l-127 -715h-129l-162 399l-70 183h-1q-4 -17 -10 -56t-16.5 -103t-17.5 -106l-56 -317h-104zM1120 715h106l-90 -510q-19 -110 -69.5 -164.5t-154.5 -54.5
q-81 0 -127.5 44.5t-46.5 119.5q0 9 2 31h95q-1 -7 -1 -18q0 -41 21.5 -66.5t62.5 -25.5q25 0 43 9t28.5 20t20 38t13 44t11.5 57z" />
    <glyph glyph-name="uni01CB" unicode="&#x1cb;" horiz-adv-x="987" 
d="M33 0l127 715h129l169 -418q13 -30 34.5 -90.5t27.5 -73.5l1 1q4 18 9 49.5t12.5 79.5t12.5 75l67 377h104l-127 -715h-129l-162 399l-70 183h-1q-4 -17 -10 -56t-16.5 -103t-17.5 -106l-56 -317h-104zM954 526l-100 -555q-16 -93 -52.5 -131t-111.5 -38q-29 0 -67 6
l15 80q20 -3 35 -3q39 0 55 17.5t23 56.5l14 80q14 81 43.5 243t43.5 244h102zM863 601l20 114h105l-20 -114h-105z" />
    <glyph glyph-name="uni01CC" unicode="&#x1cc;" horiz-adv-x="851" 
d="M19 0l93 525h99l-14 -84q21 37 66.5 66.5t116.5 29.5q80 0 122 -43t42 -114q0 -30 -5 -62l-56 -318h-101l48 285q6 38 6 63q0 106 -108 106q-65 0 -104 -44.5t-52 -117.5l-51 -292h-102zM818 526l-100 -555q-16 -93 -52.5 -131t-111.5 -38q-29 0 -67 6l15 80q20 -3 35 -3
q39 0 55 17.5t23 56.5l14 80q14 81 43.5 243t43.5 244h102zM727 601l20 114h105l-20 -114h-105z" />
    <glyph glyph-name="uni01F1" unicode="&#x1f1;" horiz-adv-x="1285" 
d="M33 0l127 715h134q73 0 129 -7t108.5 -27t86.5 -52.5t54 -85.5t20 -125q0 -166 -89 -277q-69 -88 -160 -114.5t-235 -26.5h-175zM249 625l-95 -536h92q88 0 154.5 25.5t104.5 70.5t56.5 101t18.5 122q0 106 -62.5 161.5t-182.5 55.5h-86zM1314 715l-16 -86l-12 -15
q-12 -15 -34.5 -43t-45.5 -54l-300 -340q-15 -17 -29.5 -33.5t-28.5 -32t-19 -20.5h1h382l-17 -91h-503l15 84q10 11 50 59t62 73l285 326q55 60 72 81h-362l17 92h483z" />
    <glyph glyph-name="uni01F2" unicode="&#x1f2;" horiz-adv-x="1215" 
d="M33 0l127 715h134q73 0 129 -7t108.5 -27t86.5 -52.5t54 -85.5t20 -125q0 -166 -89 -277q-69 -88 -160 -114.5t-235 -26.5h-175zM249 625l-95 -536h92q88 0 154.5 25.5t104.5 70.5t56.5 101t18.5 122q0 106 -62.5 161.5t-182.5 55.5h-86zM1208 526l-14 -79
q-235 -251 -357 -368q78 2 142 2h162l-14 -81h-415l12 77l264 277q38 40 93 92q-18 0 -70.5 -0.5t-72.5 -0.5h-152q4 13 16 81h406z" />
    <glyph glyph-name="uni01F3" unicode="&#x1f3;" horiz-adv-x="1127" 
d="M636 715l-127 -715h-95l15 68q-59 -84 -185 -84q-93 0 -154 63t-61 180q0 123 79.5 218t202.5 95q69 0 112.5 -27.5t63.5 -63.5l19 108l28 158h102zM321 453q-88 0 -137.5 -67.5t-49.5 -159.5q0 -74 36.5 -117.5t104.5 -43.5q90 0 139 68.5t49 162.5q0 73 -37 115
t-105 42zM1120 526l-14 -79q-235 -251 -357 -368q78 2 142 2h162l-14 -81h-415l12 77l264 277q38 40 93 92q-18 0 -70.5 -0.5t-72.5 -0.5h-152q4 13 16 81h406z" />
    <glyph glyph-name="Aringacute" unicode="&#x1fa;" horiz-adv-x="695" 
d="M56 0h-110q70 120 208.5 357.5t207.5 357.5h124l158 -715h-106l-46 216h-313zM353 527l-128 -224h248l-38 191q-2 8 -11.5 57t-13.5 73h-2q-8 -14 -26.5 -46t-28.5 -51zM442 748q-37 0 -62 25.5t-25 63.5q0 36 25.5 61.5t62.5 25.5t62.5 -25.5t25.5 -61.5
q0 -38 -25.5 -63.5t-63.5 -25.5zM399 837q0 -19 12.5 -32t30.5 -13q19 0 31.5 12.5t12.5 32.5q0 17 -13 30t-31 13t-30.5 -13t-12.5 -30zM655 1072l-153 -114h-106l129 114h130z" />
    <glyph glyph-name="aringacute" unicode="&#x1fb;" horiz-adv-x="560" 
d="M165 360h-101q15 83 78.5 132t164.5 49q94 0 144 -42.5t50 -123.5q0 -51 -10 -95l-23 -118q-19 -98 -19 -162h-91q0 17 9 70q-68 -80 -187 -80q-74 0 -122 34.5t-48 100.5q0 33 12.5 60t31.5 46t49 34t58.5 23.5t66.5 15.5t66.5 10t64.5 6l39 3q0 3 2.5 20.5t2.5 24.5
q0 44 -28 68.5t-80 24.5q-110 0 -130 -101zM381 224l6 30q-25 -5 -64.5 -10.5t-64 -9t-54.5 -11t-46.5 -17.5t-28 -27.5t-11.5 -41.5q0 -35 26.5 -54t72.5 -19q71 0 109.5 40.5t54.5 119.5zM338 574q-37 0 -62 25.5t-25 63.5q0 36 25.5 61.5t62.5 25.5t62.5 -25.5
t25.5 -61.5q0 -38 -25.5 -63.5t-63.5 -25.5zM295 663q0 -19 12.5 -32t30.5 -13q19 0 31.5 12.5t12.5 32.5q0 17 -13 30t-31 13t-30.5 -13t-12.5 -30zM551 902l-160 -119h-103l133 119h130z" />
    <glyph glyph-name="AEacute" unicode="&#x1fc;" horiz-adv-x="899" 
d="M921 715l-17 -92h-322l-31 -211h292l-16 -92h-289l-34 -228h314l-17 -92h-414l29 184h-238l-132 -184h-112l526 715h461zM428 274l22 142q12 76 32 193h-5q-30 -49 -104 -154l-129 -181h184zM843 875l-153 -114h-106l129 114h130z" />
    <glyph glyph-name="aeacute" unicode="&#x1fd;" horiz-adv-x="942" 
d="M773 148h105q-33 -73 -98.5 -119.5t-162.5 -46.5q-152 0 -211 110q-79 -102 -221 -102q-79 0 -127 34t-48 101q0 38 15 68t44.5 49.5t61 33.5t76 22.5t77 12.5t75.5 7l39 3q0 3 2.5 21.5t2.5 25.5q0 44 -28 68.5t-80 24.5q-110 0 -130 -101h-101q15 83 78.5 132t164.5 49
q124 0 168 -78q84 77 195 77q106 0 169.5 -62.5t63.5 -171.5q0 -32 -6 -70h-417v-5q0 -165 146 -165q97 0 147 82zM491 309l312 1q0 69 -37 108.5t-103 39.5t-110 -38.5t-62 -110.5zM381 224l6 28q-23 -4 -64.5 -9t-49.5 -6q-77 -12 -116 -32.5t-39 -67.5q0 -35 26.5 -54
t72.5 -19q71 0 109.5 40.5t54.5 119.5zM703 715l-160 -119h-103l133 119h130z" />
    <glyph glyph-name="Oslashacute" unicode="&#x1fe;" horiz-adv-x="801" 
d="M442 729q97 0 173 -39l52 67l72 -55l-51 -66q81 -84 81 -221q0 -186 -107.5 -307.5t-289.5 -121.5q-87 0 -159 32l-51 -67l-72 55l48 62q-89 87 -89 236q0 175 108 300t285 125zM436 641q-130 0 -202.5 -95t-72.5 -226q0 -104 43 -165l351 456q-49 30 -119 30zM656 408
q0 81 -36 139l-347 -452q45 -22 107 -22q90 0 154 49t93 123t29 163zM660 875l-153 -114h-106l129 114h130z" />
    <glyph glyph-name="oslashacute" unicode="&#x1ff;" horiz-adv-x="613" 
d="M542 715l-160 -119h-103l133 119h130zM327 539q65 0 114 -21l60 76l65 -47l-59 -75q60 -62 60 -170q0 -140 -77.5 -230t-217.5 -90q-70 0 -127 26l-59 -75l-63 49l58 74q-52 61 -52 161q0 135 79.5 228.5t218.5 93.5zM461 292q0 53 -20 95l-238 -304q31 -17 77 -17
q89 0 135 67.5t46 158.5zM321 453q-91 0 -138.5 -67.5t-47.5 -158.5q0 -46 14 -83l233 298q-28 11 -61 11z" />
    <glyph glyph-name="uni0218" unicode="&#x218;" horiz-adv-x="599" 
d="M13 203h102q0 -59 40.5 -95.5t115.5 -36.5q76 0 118.5 34.5t42.5 89.5q0 43 -29.5 68t-93.5 50l-41 16q-91 36 -131.5 75.5t-40.5 114.5q0 93 69 151.5t182 58.5q117 0 176 -56.5t59 -143.5h-104q-3 54 -40 83.5t-98 29.5q-65 0 -99.5 -29.5t-34.5 -78.5
q0 -40 21.5 -65.5t70.5 -43.5l58 -21q41 -15 66.5 -27.5t57 -35t47 -54t15.5 -72.5q0 -109 -75 -168.5t-203 -59.5q-121 0 -186 56.5t-65 153.5v6zM122 -163l112 114h105l-97 -114h-120z" />
    <glyph glyph-name="uni0219" unicode="&#x219;" horiz-adv-x="497" 
d="M462 377h-89q-12 81 -113 81q-46 0 -72 -19t-26 -51q0 -28 17.5 -42t70.5 -33l32 -12q80 -28 115 -56t35 -85q0 -83 -59 -130.5t-161 -47.5q-96 0 -149 46.5t-58 136.5h91q3 -41 34.5 -71t88.5 -30q55 0 84.5 22t29.5 56q0 17 -5 28t-21.5 20.5t-26 13.5t-41.5 15l-44 15
q-71 25 -102.5 52.5t-31.5 85.5q0 75 57.5 121.5t151.5 46.5q86 0 139 -39.5t53 -112.5v-11zM70 -163l112 114h105l-97 -114h-120z" />
    <glyph glyph-name="uni021A" unicode="&#x21a;" horiz-adv-x="541" 
d="M72 -163l112 114h101l-97 -114h-116zM163 0l110 623h-193l16 92h493l-17 -92h-194l-110 -623h-105z" />
    <glyph glyph-name="uni021B" unicode="&#x21b;" horiz-adv-x="320" 
d="M1 -163l112 114h101l-97 -114h-116zM38 447l14 79h82l25 141h103l-26 -141h101l-14 -79h-101l-51 -289q-4 -21 -4 -42q0 -29 14.5 -41t50.5 -12h15l-13 -72q-13 -3 -39 -3q-136 0 -136 91q0 14 6 54l55 314h-82z" />
    <glyph glyph-name="uni021D" unicode="&#x21d;" horiz-adv-x="534" 
d="M-27 18h104v-11q0 -51 32 -85t99 -34q69 0 109 43.5t40 106.5q0 120 -156 120l15 84q165 0 165 122q0 41 -26.5 64t-74.5 23q-54 0 -80.5 -26t-35.5 -77h-102q12 91 73.5 142t160.5 51q85 0 138 -41t53 -112q0 -70 -41 -118t-105 -65q57 -19 90 -61t33 -99
q0 -108 -72.5 -177.5t-190.5 -69.5q-106 0 -167.5 57t-61.5 144q0 4 0.5 9.5t0.5 9.5z" />
    <glyph glyph-name="uni0226" unicode="&#x226;" horiz-adv-x="695" 
d="M56 0h-110q70 120 208.5 357.5t207.5 357.5h124l158 -715h-106l-46 216h-313zM353 527l-128 -224h248l-38 191q-2 8 -11.5 57t-13.5 73h-2q-8 -14 -26.5 -46t-28.5 -51zM379 767l17 96h98l-17 -96h-98z" />
    <glyph glyph-name="uni0227" unicode="&#x227;" horiz-adv-x="560" 
d="M165 360h-101q15 83 78.5 132t164.5 49q94 0 144 -42.5t50 -123.5q0 -51 -10 -95l-23 -118q-19 -98 -19 -162h-91q0 17 9 70q-68 -80 -187 -80q-74 0 -122 34.5t-48 100.5q0 33 12.5 60t31.5 46t49 34t58.5 23.5t66.5 15.5t66.5 10t64.5 6l39 3q0 3 2.5 20.5t2.5 24.5
q0 44 -28 68.5t-80 24.5q-110 0 -130 -101zM381 224l6 30q-25 -5 -64.5 -10.5t-64 -9t-54.5 -11t-46.5 -17.5t-28 -27.5t-11.5 -41.5q0 -35 26.5 -54t72.5 -19q71 0 109.5 40.5t54.5 119.5zM271 611l17 96h98l-17 -96h-98z" />
    <glyph glyph-name="uni0232" unicode="&#x232;" horiz-adv-x="593" 
d="M544 715h115q-63 -87 -179.5 -246t-140.5 -192l-49 -277h-105l49 277l-160 438h109l120 -347zM243 781l11 67h262l-11 -67h-262z" />
    <glyph glyph-name="uni0233" unicode="&#x233;" horiz-adv-x="528" 
d="M151 -180h-104l109 189q-38 187 -107 516h108q12 -71 36.5 -212.5t33.5 -198.5q77 140 216 411h110q-49 -85 -153 -272t-162 -287q-48 -84 -87 -146zM181 618l11 67h262l-11 -67h-262z" />
    <glyph glyph-name="dotlessj" unicode="&#x237;" horiz-adv-x="247" 
d="M214 526l-100 -555q-16 -93 -52.5 -131t-111.5 -38q-29 0 -67 6l15 80q20 -3 35 -3q39 0 55 17.5t23 56.5l14 80q14 82 43.5 244t43.5 243h102z" />
    <glyph glyph-name="uni0254" unicode="&#x254;" horiz-adv-x="585" 
d="M143 359h-104q62 185 263 185q107 0 173 -63t66 -178q0 -135 -82 -226t-216 -91q-102 0 -163.5 54t-65.5 137h104q4 -44 37 -74.5t96 -30.5q85 0 134 66.5t49 154.5q0 79 -35.5 123t-105.5 44q-99 0 -150 -101z" />
    <glyph glyph-name="uni0259" unicode="&#x259;" horiz-adv-x="594" 
d="M153 377h-105q33 73 98.5 119.5t162.5 46.5q108 0 174 -61t66 -179q0 -133 -81 -225.5t-212 -92.5q-106 0 -169.5 62.5t-63.5 171.5q0 32 6 70h417v5q0 165 -146 165q-97 0 -147 -82zM435 216l-312 -1q0 -69 37 -108.5t103 -39.5t110 38.5t62 110.5z" />
    <glyph glyph-name="uni025B" unicode="&#x25b;" horiz-adv-x="548" 
d="M529 320h-104v11q0 51 -32 85t-99 34q-69 0 -109 -43.5t-40 -106.5q0 -120 156 -120l-15 -84q-165 0 -165 -122q0 -41 26.5 -64t74.5 -23q54 0 80.5 26t35.5 77h102q-12 -91 -73.5 -142t-160.5 -51q-85 0 -138 41t-53 112q0 70 41 118t105 65q-57 19 -90 61t-33 99
q0 108 72.5 177.5t190.5 69.5q106 0 167.5 -57t61.5 -144q0 -3 -0.5 -9t-0.5 -10z" />
    <glyph glyph-name="uni0272" unicode="&#x272;" horiz-adv-x="603" 
d="M11 -41l100 566h99l-14 -84q21 37 66.5 66.5t116.5 29.5q80 0 122 -43t42 -114q0 -30 -5 -62l-56 -318h-101l48 285q6 38 6 63q0 106 -108 106q-65 0 -104 -44.5t-52 -117.5l-56 -321q-16 -93 -53 -131t-112 -38q-29 0 -67 6l15 80q20 -3 35 -3q39 0 55 17.5t23 56.5z
" />
    <glyph glyph-name="uni0275" unicode="&#x275;" horiz-adv-x="613" 
d="M327 539q113 0 176.5 -61t63.5 -176q0 -140 -77.5 -230t-217.5 -90q-111 0 -177 60.5t-66 174.5q0 135 79.5 228.5t218.5 93.5zM280 66q72 0 115 45t59 116h-319q0 -77 37 -119t108 -42zM321 453q-70 0 -114.5 -40.5t-61.5 -104.5h315q-4 69 -39 107t-100 38z" />
    <glyph glyph-name="apostrophemod" unicode="&#x2bc;" horiz-adv-x="204" 
d="M251 715l-130 -241h-86l111 241h105z" />
    <glyph glyph-name="circumflex" unicode="&#x2c6;" horiz-adv-x="503" 
d="M211 715h101q6 -9 35 -53.5t45 -65.5h-85l-51 66l-72 -66h-95q23 21 71 68.5t51 50.5z" />
    <glyph glyph-name="caron" unicode="&#x2c7;" horiz-adv-x="502" 
d="M290 596h-101q-6 9 -35 53.5t-45 65.5h85l51 -66l72 66h95q-23 -21 -71 -68.5t-51 -50.5z" />
    <glyph glyph-name="breve" unicode="&#x2d8;" horiz-adv-x="465" 
d="M226 598q-58 0 -92.5 31t-34.5 86h67q7 -54 69 -54q59 0 83 54h72q-46 -117 -164 -117z" />
    <glyph glyph-name="dotaccent" unicode="&#x2d9;" horiz-adv-x="328" 
d="M108 611l17 96h98l-17 -96h-98z" />
    <glyph glyph-name="ring" unicode="&#x2da;" horiz-adv-x="405" 
d="M239 588q-37 0 -62 25.5t-25 63.5q0 36 25.5 61.5t62.5 25.5t62.5 -25.5t25.5 -61.5q0 -38 -25.5 -63.5t-63.5 -25.5zM196 677q0 -19 12.5 -32t30.5 -13q19 0 31.5 12.5t12.5 32.5q0 17 -12.5 30t-31.5 13q-18 0 -30.5 -13t-12.5 -30z" />
    <glyph glyph-name="ogonek" unicode="&#x2db;" horiz-adv-x="331" 
d="M162 -49l76 -114h-108l-55 114h87z" />
    <glyph glyph-name="tilde" unicode="&#x2dc;" horiz-adv-x="470" 
d="M222 608h-62q2 49 24.5 78.5t61.5 29.5q29 0 74 -23q38 -18 52 -18q25 0 32 40h60q-2 -49 -24.5 -79t-59.5 -30q-27 0 -67 19q-43 22 -58 22q-25 0 -33 -39z" />
    <glyph glyph-name="hungarumlaut" unicode="&#x2dd;" horiz-adv-x="612" 
d="M374 715l-162 -119h-98l135 119h125zM573 715l-162 -119h-98l135 119h125z" />
    <glyph glyph-name="uni032C" unicode="&#x32c;" horiz-adv-x="503" 
d="M147 -48h101q6 -9 35 -53.5t45 -65.5h-85l-51 66l-72 -66h-95q23 21 71 68.5t51 50.5z" />
    <glyph glyph-name="uni0394" unicode="&#x394;" horiz-adv-x="672" 
d="M234 715h153l260 -715h-673zM311 651l-193 -567h386z" />
    <glyph glyph-name="uni03A9" unicode="&#x3a9;" horiz-adv-x="835" 
d="M410 640q-113 0 -174.5 -72t-61.5 -180q0 -195 174 -300l2 -88h-288v92h153q-153 107 -153 300q0 139 93 238t255 99q165 0 258.5 -99t93.5 -238q0 -193 -153 -300h153v-92h-288l2 88q174 105 174 300q0 108 -62 180t-178 72z" />
    <glyph glyph-name="uni03BC" unicode="&#x3bc;" horiz-adv-x="603" 
d="M569 525l-93 -525h-97l14 79q-26 -44 -72.5 -67t-101.5 -23q-51 0 -98 21l-35 -190h-100l126 705h103l-52 -288q-6 -38 -6 -63q0 -106 106 -106q63 0 101 44.5t51 117.5l52 295h102z" />
    <glyph glyph-name="pi" unicode="&#x3c0;" horiz-adv-x="638" 
d="M160 0h-102l79 447h-101l14 78h591l-14 -78h-95l-51 -289q-4 -21 -4 -42q0 -29 14.5 -41t50.5 -12h15l-13 -72q-13 -3 -39 -3q-136 0 -136 91q0 14 6 54l55 314h-191z" />
    <glyph glyph-name="Wgrave" unicode="&#x1e80;" horiz-adv-x="924" 
d="M970 715l-284 -715h-148l-13 343l-9 276h-2q-85 -231 -115 -305l-127 -314h-151l-27 715h108l9 -411q1 -28 1 -208h3q38 104 81 207l166 412h143l19 -405q4 -109 4 -211h2q14 43 42.5 117t36.5 95l151 404h110zM508 761l-123 114h123l92 -114h-92z" />
    <glyph glyph-name="wgrave" unicode="&#x1e81;" horiz-adv-x="804" 
d="M242 0h-111q-12 76 -25 165t-27.5 195.5t-23.5 165.5h100q30 -262 31 -269l15 -164l1 -1h2l102 251q31 76 77 183h103q4 -61 16 -200t19 -233q1 0 3 -1q11 25 30.5 70.5t38 87t37.5 83.5l89 193h104l-260 -526h-115q-33 279 -33 410h-3q-67 -190 -170 -410zM405 596
l-119 119h120l90 -119h-91z" />
    <glyph glyph-name="Wacute" unicode="&#x1e82;" horiz-adv-x="924" 
d="M970 715l-284 -715h-148l-13 343l-9 276h-2q-85 -231 -115 -305l-127 -314h-151l-27 715h108l9 -411q1 -28 1 -208h3q38 104 81 207l166 412h143l19 -405q4 -109 4 -211h2q14 43 42.5 117t36.5 95l151 404h110zM729 875l-153 -114h-106l129 114h130z" />
    <glyph glyph-name="wacute" unicode="&#x1e83;" horiz-adv-x="804" 
d="M242 0h-111q-12 76 -25 165t-27.5 195.5t-23.5 165.5h100q30 -262 31 -269l15 -164l1 -1h2l102 251q31 76 77 183h103q4 -61 16 -200t19 -233q1 0 3 -1q11 25 30.5 70.5t38 87t37.5 83.5l89 193h104l-260 -526h-115q-33 279 -33 410h-3q-67 -190 -170 -410zM637 715
l-160 -119h-103l133 119h130z" />
    <glyph glyph-name="Wdieresis" unicode="&#x1e84;" horiz-adv-x="924" 
d="M970 715l-284 -715h-148l-13 343l-9 276h-2q-85 -231 -115 -305l-127 -314h-151l-27 715h108l9 -411q1 -28 1 -208h3q38 104 81 207l166 412h143l19 -405q4 -109 4 -211h2q14 43 42.5 117t36.5 95l151 404h110zM410 766l17 96h98l-17 -96h-98zM579 766l17 96h97l-17 -96
h-97z" />
    <glyph glyph-name="wdieresis" unicode="&#x1e85;" horiz-adv-x="804" 
d="M242 0h-111q-12 76 -25 165t-27.5 195.5t-23.5 165.5h100q30 -262 31 -269l15 -164l1 -1h2l102 251q31 76 77 183h103q4 -61 16 -200t19 -233q1 0 3 -1q11 25 30.5 70.5t38 87t37.5 83.5l89 193h104l-260 -526h-115q-33 279 -33 410h-3q-67 -190 -170 -410zM318 603
l17 96h98l-17 -96h-98zM487 603l17 96h97l-17 -96h-97z" />
    <glyph glyph-name="uni1EA0" unicode="&#x1ea0;" horiz-adv-x="695" 
d="M56 0h-110q70 120 208.5 357.5t207.5 357.5h124l158 -715h-106l-46 216h-313zM353 527l-128 -224h248l-38 191q-2 8 -11.5 57t-13.5 73h-2q-8 -14 -26.5 -46t-28.5 -51zM226 -150l17 96h98l-17 -96h-98z" />
    <glyph glyph-name="uni1EA1" unicode="&#x1ea1;" horiz-adv-x="560" 
d="M165 360h-101q15 83 78.5 132t164.5 49q94 0 144 -42.5t50 -123.5q0 -51 -10 -95l-23 -118q-19 -98 -19 -162h-91q0 17 9 70q-68 -80 -187 -80q-74 0 -122 34.5t-48 100.5q0 33 12.5 60t31.5 46t49 34t58.5 23.5t66.5 15.5t66.5 10t64.5 6l39 3q0 3 2.5 20.5t2.5 24.5
q0 44 -28 68.5t-80 24.5q-110 0 -130 -101zM381 224l6 30q-25 -5 -64.5 -10.5t-64 -9t-54.5 -11t-46.5 -17.5t-28 -27.5t-11.5 -41.5q0 -35 26.5 -54t72.5 -19q71 0 109.5 40.5t54.5 119.5zM156 -150l17 96h98l-17 -96h-98z" />
    <glyph glyph-name="uni1EB8" unicode="&#x1eb8;" horiz-adv-x="585" 
d="M607 715l-17 -92h-341l-38 -212l318 1l-16 -92h-317l-41 -229h349l-17 -91h-454l127 715h447zM213 -150l17 96h98l-17 -96h-98z" />
    <glyph glyph-name="uni1EB9" unicode="&#x1eb9;" horiz-adv-x="594" 
d="M425 148h105q-33 -73 -98.5 -119.5t-162.5 -46.5q-108 0 -174 61t-66 179q0 133 81 225.5t212 92.5q106 0 169.5 -62.5t63.5 -171.5q0 -32 -6 -70h-417v-5q0 -165 146 -165q97 0 147 82zM143 309l312 1q0 69 -37 108.5t-103 39.5t-110 -38.5t-62 -110.5zM187 -150l17 96
h98l-17 -96h-98z" />
    <glyph glyph-name="uni1ECA" unicode="&#x1eca;" horiz-adv-x="279" 
d="M33 0l127 715h105l-127 -715h-105zM13 -150l17 96h98l-17 -96h-98z" />
    <glyph glyph-name="uni1ECB" unicode="&#x1ecb;" horiz-adv-x="247" 
d="M19 0l93 526h102q-9 -51 -42.5 -236.5t-51.5 -289.5h-101zM124 601l20 114h105l-20 -114h-105zM-5 -150l17 96h98l-17 -96h-98z" />
    <glyph glyph-name="uni1ECC" unicode="&#x1ecc;" horiz-adv-x="801" 
d="M443 729q147 0 236.5 -83.5t89.5 -230.5q0 -186 -107.5 -307.5t-289.5 -121.5q-145 0 -234 83t-89 235q0 175 108.5 300t285.5 125zM436 641q-130 0 -202.5 -95t-72.5 -226q0 -115 56.5 -181t162.5 -66q90 0 154 49t93 123t29 163q0 106 -59.5 169.5t-160.5 63.5z
M288 -150l17 96h98l-17 -96h-98z" />
    <glyph glyph-name="uni1ECD" unicode="&#x1ecd;" horiz-adv-x="613" 
d="M327 539q113 0 176.5 -61t63.5 -176q0 -140 -77.5 -230t-217.5 -90q-111 0 -177 60.5t-66 174.5q0 135 79.5 228.5t218.5 93.5zM321 453q-91 0 -138.5 -67.5t-47.5 -158.5q0 -77 37 -119t108 -42q89 0 135 67.5t46 158.5q0 77 -35 119t-105 42zM194 -150l17 96h98
l-17 -96h-98z" />
    <glyph glyph-name="uni1EE4" unicode="&#x1ee4;" horiz-adv-x="677" 
d="M669 715l-79 -454q-25 -140 -92.5 -208t-198.5 -68q-117 0 -175 54.5t-58 155.5q0 43 23 168l62 352h105l-75 -424q-8 -35 -8 -85q0 -135 137 -135q84 0 121.5 50t54.5 153l79 441h104zM212 -150l17 96h98l-17 -96h-98z" />
    <glyph glyph-name="uni1EE5" unicode="&#x1ee5;" horiz-adv-x="597" 
d="M563 525l-93 -525h-97l14 79q-20 -36 -66.5 -65t-115.5 -29q-81 0 -121 41t-40 112q0 33 5 65l57 322h103l-52 -288q-6 -38 -6 -63q0 -106 106 -106q63 0 101 44.5t51 117.5l52 295h102zM166 -150l17 96h98l-17 -96h-98z" />
    <glyph glyph-name="Ygrave" unicode="&#x1ef2;" horiz-adv-x="593" 
d="M544 715h115q-63 -87 -179.5 -246t-140.5 -192l-49 -277h-105l49 277l-160 438h109l120 -347zM330 761l-123 114h123l92 -114h-92z" />
    <glyph glyph-name="ygrave" unicode="&#x1ef3;" horiz-adv-x="528" 
d="M151 -180h-104l109 189q-38 187 -107 516h108q12 -71 36.5 -212.5t33.5 -198.5q77 140 216 411h110q-49 -85 -153 -272t-162 -287q-48 -84 -87 -146zM278 596l-119 119h120l90 -119h-91z" />
    <glyph glyph-name="enspace" unicode="&#x2002;" horiz-adv-x="500" 
 />
    <glyph glyph-name="emspace" unicode="&#x2003;" horiz-adv-x="1000" 
 />
    <glyph glyph-name="threeperemspace" unicode="&#x2004;" horiz-adv-x="0" 
 />
    <glyph glyph-name="fourperemspace" unicode="&#x2005;" horiz-adv-x="250" 
 />
    <glyph glyph-name="thinspace" unicode="&#x2009;" horiz-adv-x="133" 
 />
    <glyph glyph-name="hairspace" unicode="&#x200a;" horiz-adv-x="75" 
 />
    <glyph glyph-name="endash" unicode="&#x2013;" horiz-adv-x="613" 
d="M59 261l15 83h476l-15 -83h-476z" />
    <glyph glyph-name="emdash" unicode="&#x2014;" horiz-adv-x="978" 
d="M59 261l15 83h841l-15 -83h-841z" />
    <glyph glyph-name="quoteleft" unicode="&#x2018;" horiz-adv-x="258" 
d="M76 474l130 241h86l-111 -241h-105z" />
    <glyph glyph-name="quoteright" unicode="&#x2019;" horiz-adv-x="256" 
d="M295 715l-130 -241h-86l111 241h105z" />
    <glyph glyph-name="quotesinglbase" unicode="&#x201a;" horiz-adv-x="261" 
d="M165 120l-128 -241h-90l110 241h108z" />
    <glyph glyph-name="quotedblleft" unicode="&#x201c;" horiz-adv-x="444" 
d="M262 474l130 241h86l-111 -241h-105zM76 474l130 241h86l-111 -241h-105z" />
    <glyph glyph-name="quotedblright" unicode="&#x201d;" horiz-adv-x="442" 
d="M295 715l-130 -241h-86l111 241h105zM481 715l-130 -241h-86l111 241h105z" />
    <glyph glyph-name="quotedblbase" unicode="&#x201e;" horiz-adv-x="444" 
d="M162 120l-130 -241h-86l111 241h105zM348 120l-130 -241h-86l111 241h105z" />
    <glyph glyph-name="dagger" unicode="&#x2020;" horiz-adv-x="515" 
d="M381 715l-33 -185h171l-17 -96h-171l-89 -502h-101l89 502h-174l17 96h174l33 185h101z" />
    <glyph glyph-name="daggerdbl" unicode="&#x2021;" horiz-adv-x="542" 
d="M345 434l-27 -151h171l-17 -96h-171l-45 -255h-101l45 255h-174l17 96h174l27 151h-174l17 96h174l33 185h101l-33 -185h171l-17 -96h-171z" />
    <glyph glyph-name="bullet" unicode="&#x2022;" horiz-adv-x="442" 
d="M225 183q-63 0 -107.5 44t-44.5 107t44.5 106.5t107.5 43.5t107 -43.5t44 -106.5t-44.5 -107t-106.5 -44z" />
    <glyph glyph-name="ellipsis" unicode="&#x2026;" horiz-adv-x="925" 
d="M11 0l21 120h107l-21 -120h-107zM355 0l21 120h107l-21 -120h-107zM701 0l21 120h107l-21 -120h-107z" />
    <glyph glyph-name="perthousand" unicode="&#x2030;" horiz-adv-x="1230" 
d="M201 0l426 715h74l-425 -715h-75zM201 389q42 0 61.5 34.5t34.5 102.5q8 54 8 72q0 70 -59 70q-43 0 -64.5 -36t-32.5 -102q-7 -35 -7 -71q0 -70 59 -70zM252 725q127 0 127 -127q0 -25 -7 -67q-18 -98 -56 -148t-123 -50q-125 0 -125 123q0 36 7 74q7 42 17.5 73
t30 60.5t52 45.5t77.5 16zM640 41q42 0 61.5 34.5t34.5 102.5q8 54 8 72q0 70 -59 70q-43 0 -64.5 -36t-32.5 -102q-7 -35 -7 -71q0 -70 59 -70zM691 377q127 0 127 -127q0 -25 -7 -67q-18 -98 -56 -148t-123 -50q-125 0 -125 123q0 36 7 74q7 42 17.5 73t30 60.5t52 45.5
t77.5 16zM1002 41q42 0 61.5 34.5t34.5 102.5q8 54 8 72q0 70 -59 70q-43 0 -64.5 -36t-32.5 -102q-7 -35 -7 -71q0 -70 59 -70zM1053 377q127 0 127 -127q0 -25 -7 -67q-18 -98 -56 -148t-123 -50q-125 0 -125 123q0 36 7 74q7 42 17.5 73t30 60.5t52 45.5t77.5 16z" />
    <glyph glyph-name="guilsinglleft" unicode="&#x2039;" horiz-adv-x="303" 
d="M282 473l-134 -187l58 -188h-88l-73 190l137 185h100z" />
    <glyph glyph-name="guilsinglright" unicode="&#x203a;" horiz-adv-x="303" 
d="M14 98l134 186l-58 189h86l75 -190l-139 -185h-98z" />
    <glyph glyph-name="fraction" unicode="&#x2044;" horiz-adv-x="340" 
d="M-65 -105l374 820h96l-374 -820h-96z" />
    <glyph glyph-name="Euro" unicode="&#x20ac;" 
d="M19 385l39 88h52q77 257 282 257q204 0 199 -230h-109q0 141 -102 141q-55 0 -93 -41q-35 -36 -64 -127h226l-40 -88h-207q-6 -26 -11 -67h190l-40 -89h-158v-20q0 -137 103 -137q96 0 146 141h113q-80 -227 -269 -227q-205 0 -205 230v13h-79l40 89h46l11 67h-70z" />
    <glyph glyph-name="trademark" unicode="&#x2122;" horiz-adv-x="923" 
d="M660 297h-68q-10 56 -24.5 174.5t-23.5 173.5h-3q-6 -42 -35 -207l-25 -141h-71l73 418h114q40 -283 46 -332l155 332h120l-73 -418h-72l35 202q5 27 14.5 77t12.5 70h-3q-25 -50 -83 -169.5t-89 -179.5zM412 715l-11 -62h-105l-62 -356h-75l62 356h-105l11 62h285z" />
    <glyph glyph-name="Omega" unicode="&#x2126;" horiz-adv-x="835" 
d="M410 640q-113 0 -174.5 -72t-61.5 -180q0 -195 174 -300l2 -88h-288v92h153q-153 107 -153 300q0 139 93 238t255 99q165 0 258.5 -99t93.5 -238q0 -193 -153 -300h153v-92h-288l2 88q174 105 174 300q0 108 -62 180t-178 72z" />
    <glyph glyph-name="onethird" unicode="&#x2153;" horiz-adv-x="809" 
d="M120 0l426 715h74l-425 -715h-75zM190 591h-107l10 57q58 2 86.5 17t41.5 50h65l-79 -437h-74zM574 212l10 59q101 -2 101 70q0 24 -15.5 37.5t-41.5 13.5q-60 0 -68 -63h-70q8 59 46 91.5t99 32.5q54 0 87 -26t33 -71q0 -43 -22.5 -71.5t-58.5 -40.5q69 -30 69 -100
q0 -67 -45.5 -110.5t-119.5 -43.5q-71 0 -109 40.5t-34 100.5h72q-3 -34 15 -56t60 -22q41 0 64.5 26t23.5 64q0 69 -96 69z" />
    <glyph glyph-name="twothirds" unicode="&#x2154;" horiz-adv-x="912" 
d="M680 212l10 59q101 -2 101 70q0 24 -15.5 37.5t-41.5 13.5q-60 0 -68 -63h-70q8 59 46 91.5t99 32.5q54 0 87 -26t33 -71q0 -43 -22.5 -71.5t-58.5 -40.5q69 -30 69 -100q0 -67 -45.5 -110.5t-119.5 -43.5q-71 0 -109 40.5t-34 100.5h72q-3 -34 15 -56t60 -22
q41 0 64.5 26t23.5 64q0 69 -96 69zM231 0l426 715h74l-425 -715h-75zM47 276l12 62q39 31 78.5 61t60.5 46.5t41 34.5q75 63 75 113q0 27 -17 43.5t-47 16.5q-35 0 -55 -22t-23 -58h-77q2 63 47.5 106t120.5 43q62 0 97.5 -30t35.5 -82q0 -95 -148 -206q-18 -13 -86 -59
h192l-15 -69h-292z" />
    <glyph glyph-name="oneeighth" unicode="&#x215b;" horiz-adv-x="823" 
d="M646 454q56 0 90 -28t34 -73q0 -82 -76 -114q59 -35 59 -102q0 -68 -46 -106.5t-123 -38.5q-64 0 -104.5 31.5t-40.5 87.5q0 46 26 80.5t74 51.5q-40 31 -40 87t38.5 90t108.5 34zM639 394q-33 0 -54 -18t-21 -50q0 -26 17.5 -41t46.5 -15q32 0 52.5 18.5t20.5 50.5
q0 24 -17.5 39.5t-44.5 15.5zM605 209q-39 0 -65.5 -23.5t-26.5 -62.5q0 -35 20 -54t56 -19q43 0 67.5 25t24.5 67q0 30 -20.5 48.5t-55.5 18.5zM119 0l426 715h74l-425 -715h-75zM189 591h-107l10 57q58 2 86.5 17t41.5 50h65l-79 -437h-74z" />
    <glyph glyph-name="threeeighths" unicode="&#x215c;" horiz-adv-x="917" 
d="M743 454q56 0 90 -28t34 -73q0 -82 -76 -114q59 -35 59 -102q0 -68 -46 -106.5t-123 -38.5q-64 0 -104.5 31.5t-40.5 87.5q0 46 26 80.5t74 51.5q-40 31 -40 87t38.5 90t108.5 34zM736 394q-33 0 -54 -18t-21 -50q0 -26 17.5 -41t46.5 -15q32 0 52.5 18.5t20.5 50.5
q0 24 -17.5 39.5t-44.5 15.5zM702 209q-39 0 -65.5 -23.5t-26.5 -62.5q0 -35 20 -54t56 -19q43 0 67.5 25t24.5 67q0 30 -20.5 48.5t-55.5 18.5zM216 0l426 715h74l-425 -715h-75zM191 483l10 59q101 -2 101 70q0 24 -15.5 37.5t-41.5 13.5q-60 0 -68 -63h-70q8 59 46 91.5
t99 32.5q54 0 87 -26t33 -71q0 -43 -22.5 -71.5t-58.5 -40.5q69 -30 69 -100q0 -67 -45.5 -110.5t-119.5 -43.5q-71 0 -109 40.5t-34 100.5h72q-3 -34 15 -56t60 -22q41 0 64.5 26t23.5 64q0 69 -96 69z" />
    <glyph glyph-name="fiveeighths" unicode="&#x215d;" horiz-adv-x="931" 
d="M193 261q-70 0 -105.5 38t-37.5 98h69q6 -76 79 -76q42 0 68 31t26 75q0 37 -21.5 57.5t-55.5 20.5q-47 0 -71 -37l-61 11q32 110 67 236h230l-12 -62h-174q-6 -20 -16 -57t-16 -57q38 22 79 22q50 0 86 -31.5t36 -92.5q0 -77 -45 -126.5t-125 -49.5zM755 454
q56 0 90 -28t34 -73q0 -82 -76 -114q59 -35 59 -102q0 -68 -46 -106.5t-123 -38.5q-64 0 -104.5 31.5t-40.5 87.5q0 46 26 80.5t74 51.5q-40 31 -40 87t38.5 90t108.5 34zM748 394q-33 0 -54 -18t-21 -50q0 -26 17.5 -41t46.5 -15q32 0 52.5 18.5t20.5 50.5q0 24 -17.5 39.5
t-44.5 15.5zM714 209q-39 0 -65.5 -23.5t-26.5 -62.5q0 -35 20 -54t56 -19q43 0 67.5 25t24.5 67q0 30 -20.5 48.5t-55.5 18.5zM228 0l426 715h74l-425 -715h-75z" />
    <glyph glyph-name="seveneighths" unicode="&#x215e;" horiz-adv-x="828" 
d="M653 454q56 0 90 -28t34 -73q0 -82 -76 -114q59 -35 59 -102q0 -68 -46 -106.5t-123 -38.5q-64 0 -104.5 31.5t-40.5 87.5q0 46 26 80.5t74 51.5q-40 31 -40 87t38.5 90t108.5 34zM646 394q-33 0 -54 -18t-21 -50q0 -26 17.5 -41t46.5 -15q32 0 52.5 18.5t20.5 50.5
q0 24 -17.5 39.5t-44.5 15.5zM612 209q-39 0 -65.5 -23.5t-26.5 -62.5q0 -35 20 -54t56 -19q43 0 67.5 25t24.5 67q0 30 -20.5 48.5t-55.5 18.5zM126 0l426 715h74l-425 -715h-75zM140 272h-81q7 12 135 217q62 100 108 164h-35h-171l11 62h280l-9 -52q0 -1 -1 -1l-20 -31
q-138 -218 -217 -359z" />
    <glyph glyph-name="arrowleft" unicode="&#x2190;" horiz-adv-x="820" 
d="M783 280h-595q129 -129 160 -161q76 -76 117 -119h-133q-26 27 -144 152.5t-165 173.5q49 49 174.5 182t134.5 142h133q-41 -43 -117 -119q-114 -120 -160 -161h595v-90z" />
    <glyph glyph-name="arrowup" unicode="&#x2191;" horiz-adv-x="720" 
d="M326 0v584l-160 -160l-118 -116v133q14 14 145 137t180 172q49 -51 184.5 -177.5t140.5 -131.5v-133l-118 116q-98 93 -160 160v-584h-94z" />
    <glyph glyph-name="arrowright" unicode="&#x2192;" horiz-adv-x="820" 
d="M639 280h-595v90h595q-46 41 -160 161q-76 76 -117 119h133q26 -27 144 -152t165 -172q-50 -50 -171 -179t-138 -147h-133q41 43 117 119q31 32 160 161z" />
    <glyph glyph-name="arrowdown" unicode="&#x2193;" horiz-adv-x="720" 
d="M318 131v584h94v-584q62 67 160 160l118 116v-133q-304 -288 -325 -309q-46 45 -169.5 161.5t-155.5 147.5v133l118 -116z" />
    <glyph glyph-name="uni2196" unicode="&#x2196;" horiz-adv-x="750" 
d="M609 -4l-413 413v-226q0 -107 -1 -166l-90 88q0 51 3 222t3 232q61 0 232 3t221 3l90 -89q-59 -1 -166 -1h-226l413 -413z" />
    <glyph glyph-name="uni2197" unicode="&#x2197;" horiz-adv-x="750" 
d="M543 409l-413 -413l-66 66l413 413h-226q-107 0 -166 1l90 89q50 0 221 -3t232 -3q0 -61 3 -232t3 -222l-90 -88q-1 59 -1 166v226z" />
    <glyph glyph-name="uni2198" unicode="&#x2198;" horiz-adv-x="750" 
d="M131 565l413 -413v226q0 107 1 166l90 -88q0 -51 -3 -222t-3 -232q-61 0 -232 -2t-221 -2l-90 89h166q49 0 130.5 -0.5t95.5 -0.5l-413 413z" />
    <glyph glyph-name="uni2199" unicode="&#x2199;" horiz-adv-x="750" 
d="M199 152l413 413l66 -66l-413 -413q15 0 95 0.5t131 0.5h166l-90 -89q-50 0 -221 2t-232 2q0 61 -3 232t-3 222l90 88q1 -59 1 -166v-226z" />
    <glyph glyph-name="partialdiff" unicode="&#x2202;" horiz-adv-x="623" 
d="M327 539q85 0 138 -46l2 2q-59 130 -192 220h137q165 -142 165 -379q0 -102 -30.5 -179.5t-100 -126.5t-171.5 -49q-112 0 -179 61.5t-67 176.5q0 134 81 227t217 93zM284 67q88 0 135.5 68t47.5 159q0 76 -36 117.5t-107 41.5q-92 0 -140.5 -67.5t-48.5 -158.5
q0 -76 39 -118t110 -42z" />
    <glyph glyph-name="Delta" unicode="&#x2206;" horiz-adv-x="764" 
d="M273 715h153l260 -715h-673zM350 651l-193 -567h386z" />
    <glyph glyph-name="product" unicode="&#x220f;" horiz-adv-x="875" 
d="M732 623v-736h-105v736h-308v-736h-105v736h-116v92h750v-92h-116z" />
    <glyph glyph-name="summation" unicode="&#x2211;" horiz-adv-x="748" 
d="M96 -29l266 328l-262 327v89h533v-92h-394l252 -316l-261 -325h414v-95h-548v84z" />
    <glyph glyph-name="minus" unicode="&#x2212;" 
d="M68 278v87h442v-87h-442z" />
    <glyph glyph-name="uni2219" unicode="&#x2219;" horiz-adv-x="235" 
d="M55 258l21 120h107l-21 -120h-107z" />
    <glyph glyph-name="radical" unicode="&#x221a;" 
d="M35 447v78h159l80 -243q10 -32 28 -83.5t30 -87.5h2q10 39 25.5 94t24.5 89l121 421h102l-224 -715h-109q-25 71 -83 226t-81 221h-75z" />
    <glyph glyph-name="infinity" unicode="&#x221e;" horiz-adv-x="839" 
d="M223 507q12 0 23.5 -1.5t24 -6t21.5 -7.5t22.5 -11.5t20.5 -12.5t22.5 -16t21 -16t23.5 -19t23 -19q80 69 113 86q42 23 85 23q78 0 124 -48t46 -126q0 -70 -43 -120t-123 -50q-38 0 -78 19t-65 39.5t-62 56.5l-15 -14q-34 -33 -57 -51t-58.5 -34t-72.5 -16
q-80 0 -123 50t-43 120q0 78 46 126t124 48zM620 254q38 0 60 22t22 61q0 35 -22 58t-58 23q-54 0 -149 -85l16 -13q29 -23 42.5 -33t39 -21.5t49.5 -11.5zM226 254q34 0 63 16t67 49l17 14q-95 85 -149 85q-36 0 -58 -23t-22 -58q0 -39 22 -61t60 -22z" />
    <glyph glyph-name="integral" unicode="&#x222b;" 
d="M365 482l-58 -403q-21 -147 -64.5 -204.5t-143.5 -57.5q-33 0 -55 6l11 78q5 -2 27 -2q63 0 86 40t37 135l59 409q16 122 64.5 180.5t145.5 58.5q5 0 38 -3l-11 -81q-2 1 -20 1q-56 0 -80.5 -38t-35.5 -119z" />
    <glyph glyph-name="approxequal" unicode="&#x2248;" 
d="M91 355l-60 43q59 108 143 108q36 0 114 -37t107 -37q54 0 88 70l63 -41q-62 -112 -146 -112q-37 0 -95 26l-57 24q-52 24 -75 23q-53 0 -82 -67zM88 105l-60 43q59 108 143 108q35 0 113 -37t108 -37q54 0 88 70l63 -41q-62 -112 -146 -112q-37 0 -95 26l-57 24
q-52 24 -75 23q-53 0 -82 -67z" />
    <glyph glyph-name="notequal" unicode="&#x2260;" 
d="M66 362v85h233l55 113h94l-55 -113h115v-85h-156l-37 -76h193v-85h-234l-58 -121h-94l58 121h-114v85h155l37 76h-192z" />
    <glyph glyph-name="lessequal" unicode="&#x2264;" 
d="M74 310v91l396 179v-95q-55 -22 -173.5 -72.5t-121.5 -51.5v-3q14 -6 129 -56t166 -71v-97q-66 30 -198 88t-198 88zM470 0h-396v87h396v-87z" />
    <glyph glyph-name="greaterequal" unicode="&#x2265;" 
d="M482 401v-91q-66 -30 -197.5 -88t-198.5 -88v97q51 21 166 71t129 56v3q-3 1 -121.5 51.5t-173.5 72.5v95zM482 0h-396v87h396v-87z" />
    <glyph glyph-name="dotmath" unicode="&#x22c5;" horiz-adv-x="235" 
d="M55 258l21 120h107l-21 -120h-107z" />
    <glyph glyph-name="lozenge" unicode="&#x25ca;" 
d="M349 0h-104l-220 356l220 359h104l219 -359zM297 93l154 263l-154 267l-155 -267z" />
    <glyph glyph-name="commaaccent" unicode="&#xf6c3;" horiz-adv-x="369" 
d="M104 -163l112 114h101l-97 -114h-116z" />
    <glyph glyph-name="uniF8FF" unicode="&#xf8ff;" horiz-adv-x="403" 
d="M202 183q-63 0 -107.5 44t-44.5 107t44.5 106.5t107.5 43.5t107 -43.5t44 -106.5t-44.5 -107t-106.5 -44z" />
    <glyph glyph-name="horn" horiz-adv-x="264" 
d="M245 715l-121 -187h-78l99 187h100z" />
    <glyph glyph-name="circumflex.caps" horiz-adv-x="503" 
d="M212 876h101q67 -97 80 -115h-85l-51 64l-72 -64h-95q73 68 122 115z" />
    <glyph glyph-name="tilde.caps" horiz-adv-x="470" 
d="M156 763h-62q2 49 24.5 78.5t61.5 29.5q29 0 74 -23q38 -18 52 -18q25 0 32 40h60q-2 -49 -24.5 -79t-59.5 -30q-27 0 -67 19q-43 22 -58 22q-25 0 -33 -39z" />
    <glyph glyph-name="macron.caps" horiz-adv-x="428" 
d="M109 781l11 67h262l-11 -67h-262z" />
    <glyph glyph-name="breve.caps" horiz-adv-x="465" 
d="M236 762q-58 0 -92.5 31t-34.5 86h67q7 -54 69 -54q59 0 83 54h72q-46 -117 -164 -117z" />
    <glyph glyph-name="dotaccent.caps" horiz-adv-x="328" 
d="M103 767l17 96h98l-17 -96h-98z" />
    <glyph glyph-name="ring.caps" horiz-adv-x="405" 
d="M246 748q-37 0 -62 25.5t-25 63.5q0 36 25.5 61.5t62.5 25.5t62.5 -25.5t25.5 -61.5q0 -38 -25.5 -63.5t-63.5 -25.5zM203 837q0 -19 12.5 -32t30.5 -13q19 0 31.5 12.5t12.5 32.5q0 17 -13 30t-31 13t-30.5 -13t-12.5 -30z" />
    <glyph glyph-name="cedilla.caps" horiz-adv-x="369" 
d="M108 -163l112 114h101l-97 -114h-116z" />
    <glyph glyph-name="hungarumlaut.caps" horiz-adv-x="612" 
d="M390 876l-160 -115h-98l133 115h125zM586 876l-160 -115h-98l133 115h125z" />
    <glyph glyph-name="ogonek.caps" horiz-adv-x="331" 
d="M160 -49l76 -114h-106l-55 114h85z" />
    <glyph glyph-name="caron.caps" horiz-adv-x="502" 
d="M293 761h-101q-67 97 -80 115h85l51 -64l72 64h95q-73 -68 -122 -115z" />
    <glyph glyph-name="grave.caps" horiz-adv-x="512" 
d="M282 761l-123 114h123l92 -114h-92z" />
    <glyph glyph-name="acute.caps" horiz-adv-x="427" 
d="M391 875l-153 -114h-106l129 114h130z" />
    <glyph glyph-name="dieresis.caps" horiz-adv-x="491" 
d="M122 766l17 96h98l-17 -96h-98zM291 766l17 96h97l-17 -96h-97z" />
    <glyph glyph-name="Gtilde" horiz-adv-x="775" 
d="M735 378l-67 -378h-97q-1 0 1.5 13.5t6.5 35.5t9 41q-89 -103 -243 -103q-131 0 -213 86t-82 245q0 168 108 289.5t279 121.5q124 0 201 -60t101 -169h-110q-42 140 -201 140q-122 0 -194 -93.5t-72 -221.5q0 -117 55 -184.5t161 -67.5q100 0 163.5 62.5t85.5 153.5
q-23 -1 -64 -1h-191l16 90h347zM387 763h-62q2 49 24.5 78.5t61.5 29.5q29 0 74 -23q38 -18 52 -18q25 0 32 40h60q-2 -49 -24.5 -79t-59.5 -30q-27 0 -67 19q-43 22 -58 22q-26 0 -33 -39z" />
    <glyph glyph-name="gtilde" horiz-adv-x="638" 
d="M605 526l-78 -440q-27 -153 -97.5 -219.5t-197.5 -66.5q-108 0 -169.5 50.5t-71.5 131.5h102q26 -95 147 -95q152 0 184 183l5 29q-67 -76 -176 -76q-96 0 -157.5 59t-61.5 164q0 119 76.5 206.5t195.5 87.5q132 0 182 -94q9 48 16 80h101zM322 453q-86 0 -133 -60.5
t-47 -142.5q0 -148 141 -148q88 0 136.5 62.5t48.5 150.5q0 61 -38 99.5t-108 38.5zM285 608h-62q2 49 24.5 78.5t61.5 29.5q29 0 74 -23q38 -18 52 -18q25 0 32 40h60q-2 -49 -24.5 -79t-59.5 -30q-27 0 -67 19q-43 22 -58 22q-26 0 -33 -39z" />
    <glyph glyph-name="Mcircumflex" horiz-adv-x="888" 
d="M33 0l127 715h164l59 -391q6 -39 13.5 -112.5t10.5 -94.5h1q2 4 41.5 87t61.5 127l192 384h171l-127 -715h-102l66 369l49 260h-1q-36 -82 -123 -252l-192 -377h-111l-58 376q-20 127 -33 255h-1q-32 -210 -40 -252l-67 -379h-101zM469 876h101q67 -97 80 -115h-85
l-51 64l-72 -64h-95q73 68 122 115z" />
    <glyph glyph-name="mcircumflex" horiz-adv-x="943" 
d="M19 0l93 525h99l-14 -84q22 38 66.5 67.5t111.5 29.5q119 0 150 -101h1q25 38 74 69.5t122 31.5q79 0 120 -43.5t41 -114.5q0 -30 -5 -62l-56 -318h-101l48 285q6 38 6 63q0 106 -102 106q-58 0 -94.5 -39t-51.5 -103l-55 -312h-101l48 285q6 38 6 63q0 106 -102 106
q-62 0 -100 -45t-51 -118l-51 -291h-102zM500 715h101q6 -9 35 -53.5t45 -65.5h-85l-51 66l-72 -66h-95q23 21 71 68.5t51 50.5z" />
    <glyph glyph-name="Mmacron" horiz-adv-x="888" 
d="M33 0l127 715h164l59 -391q6 -39 13.5 -112.5t10.5 -94.5h1q2 4 41.5 87t61.5 127l192 384h171l-127 -715h-102l66 369l49 260h-1q-36 -82 -123 -252l-192 -377h-111l-58 376q-20 127 -33 255h-1q-32 -210 -40 -252l-67 -379h-101zM379 781l11 67h262l-11 -67h-262z" />
    <glyph glyph-name="mmacron" horiz-adv-x="943" 
d="M19 0l93 525h99l-14 -84q22 38 66.5 67.5t111.5 29.5q119 0 150 -101h1q25 38 74 69.5t122 31.5q79 0 120 -43.5t41 -114.5q0 -30 -5 -62l-56 -318h-101l48 285q6 38 6 63q0 106 -102 106q-58 0 -94.5 -39t-51.5 -103l-55 -312h-101l48 285q6 38 6 63q0 106 -102 106
q-62 0 -100 -45t-51 -118l-51 -291h-102zM397 618l11 67h262l-11 -67h-262z" />
    <glyph glyph-name="Ncircumflex" horiz-adv-x="740" 
d="M33 0l127 715h129l169 -418q13 -30 34.5 -90.5t27.5 -73.5l1 1q4 18 9 49.5t12.5 79.5t12.5 75l67 377h104l-127 -715h-129l-162 399l-70 183h-1q-4 -17 -10 -56t-16.5 -103t-17.5 -106l-56 -317h-104zM407 876h101q67 -97 80 -115h-85l-51 64l-72 -64h-95q73 68 122 115
z" />
    <glyph glyph-name="ncircumflex" horiz-adv-x="604" 
d="M19 0l93 525h99l-14 -84q21 37 66.5 66.5t116.5 29.5q80 0 122 -43t42 -114q0 -30 -5 -62l-56 -318h-101l48 285q6 38 6 63q0 106 -108 106q-65 0 -104 -44.5t-52 -117.5l-51 -292h-102zM318 715h101q6 -9 35 -53.5t45 -65.5h-85l-51 66l-72 -66h-95q23 21 71 68.5
t51 50.5z" />
    <glyph glyph-name="Ndieresis" horiz-adv-x="740" 
d="M33 0l127 715h129l169 -418q13 -30 34.5 -90.5t27.5 -73.5l1 1q4 18 9 49.5t12.5 79.5t12.5 75l67 377h104l-127 -715h-129l-162 399l-70 183h-1q-4 -17 -10 -56t-16.5 -103t-17.5 -106l-56 -317h-104zM316 766l17 96h98l-17 -96h-98zM485 766l17 96h97l-17 -96h-97z" />
    <glyph glyph-name="ndieresis" horiz-adv-x="604" 
d="M19 0l93 525h99l-14 -84q21 37 66.5 66.5t116.5 29.5q80 0 122 -43t42 -114q0 -30 -5 -62l-56 -318h-101l48 285q6 38 6 63q0 106 -108 106q-65 0 -104 -44.5t-52 -117.5l-51 -292h-102zM224 603l17 96h98l-17 -96h-98zM393 603l17 96h97l-17 -96h-97z" />
    <glyph glyph-name="Nmacron" horiz-adv-x="740" 
d="M33 0l127 715h129l169 -418q13 -30 34.5 -90.5t27.5 -73.5l1 1q4 18 9 49.5t12.5 79.5t12.5 75l67 377h104l-127 -715h-129l-162 399l-70 183h-1q-4 -17 -10 -56t-16.5 -103t-17.5 -106l-56 -317h-104zM321 781l11 67h262l-11 -67h-262z" />
    <glyph glyph-name="nmacron" horiz-adv-x="604" 
d="M19 0l93 525h99l-14 -84q21 37 66.5 66.5t116.5 29.5q80 0 122 -43t42 -114q0 -30 -5 -62l-56 -318h-101l48 285q6 38 6 63q0 106 -108 106q-65 0 -104 -44.5t-52 -117.5l-51 -292h-102zM227 618l11 67h262l-11 -67h-262z" />
    <glyph glyph-name="Pmacron" horiz-adv-x="610" 
d="M33 0l127 715h194q130 0 195.5 -39.5t65.5 -134.5q0 -64 -28.5 -119t-81.5 -90q-63 -41 -203 -41h-112l-52 -291h-105zM249 624l-43 -243h121q180 0 180 143q0 56 -39 78t-109 22h-110zM252 781l11 67h262l-11 -67h-262z" />
    <glyph glyph-name="pmacron" horiz-adv-x="638" 
d="M-13 -180l125 706h96l-7 -36l-9 -39q66 88 183 88q95 0 156 -62.5t61 -179.5q0 -131 -78.5 -222.5t-202.5 -91.5q-72 0 -116.5 28t-61.5 63q-10 -54 -46 -254h-100zM344 455q-89 0 -138 -67.5t-49 -159.5q0 -77 35.5 -119t106.5 -42q89 0 138 67t49 160q0 74 -37 117.5
t-105 43.5zM252 618l11 67h262l-11 -67h-262z" />
    <glyph glyph-name="zero.plf" horiz-adv-x="605" 
d="M264 72q33 0 59.5 16t45 40.5t33.5 63t24 75.5t18 86q16 92 16 151q0 137 -102 137q-33 0 -59.5 -16t-45 -40.5t-33.5 -63t-24 -75.5t-18 -86q-16 -92 -16 -151q0 -137 102 -137zM371 730q203 0 203 -230q0 -68 -13 -139q-12 -62 -26 -111.5t-39 -100.5t-56.5 -85.5
t-79.5 -56t-107 -21.5q-203 0 -203 230q0 68 13 139q13 78 33 138.5t54.5 117.5t90.5 88t130 31z" />
    <glyph glyph-name="one.plf" horiz-adv-x="401" 
d="M146 0l93 526h-175l14 76q94 2 141.5 27.5t67.5 85.5h87l-127 -715h-101z" />
    <glyph glyph-name="two.plf" horiz-adv-x="570" 
d="M3 0l15 90q140 102 302 239q38 32 60.5 55t46 64.5t23.5 82.5q0 50 -31.5 80t-87.5 30q-64 0 -101 -41t-44 -114h-103q6 107 77 175t186 68q96 0 153.5 -49t57.5 -133q0 -66 -36 -130t-80.5 -107t-109.5 -92q-28 -22 -174 -126h321l-16 -92h-459z" />
    <glyph glyph-name="three.plf" horiz-adv-x="571" 
d="M246 347l15 85q164 0 164 120q0 41 -26 64t-74 23q-99 0 -113 -101h-102q11 90 72 140.5t160 50.5q85 0 137 -40.5t52 -111.5q0 -70 -41 -117.5t-103 -64.5q57 -19 89.5 -61.5t32.5 -99.5q0 -108 -72.5 -178t-190.5 -70q-112 0 -172.5 63t-54.5 156h104q-4 -53 28 -90.5
t102 -37.5t109.5 43.5t39.5 109.5q0 61 -41.5 89t-109.5 28h-5z" />
    <glyph glyph-name="four.plf" horiz-adv-x="596" 
d="M548 240l-15 -83h-99l-28 -157h-99l28 157h-335l14 77l276 318q123 142 140 163h103l-84 -475h99zM416 582h-2q-74 -96 -128 -161l-59 -69q-38 -41 -65 -74q-30 -36 -32 -38h220l20 114q9 50 18.5 97.5t17.5 85t10 45.5z" />
    <glyph glyph-name="five.plf" horiz-adv-x="564" 
d="M242 -15q-109 0 -167.5 60t-60.5 151h102q17 -122 134 -122q71 0 115 51.5t44 125.5q0 62 -36 96.5t-95 34.5q-77 0 -117 -60l-91 16q27 92 106 377h367l-17 -92h-285l-58 -200q54 43 135 43q79 0 137.5 -50.5t58.5 -147.5q0 -124 -72.5 -203.5t-199.5 -79.5z" />
    <glyph glyph-name="six.plf" horiz-adv-x="598" 
d="M579 531h-100q-2 52 -30.5 81.5t-82.5 29.5q-139 0 -200 -256q18 27 62 50t104 23q91 0 148 -56.5t57 -151.5q0 -115 -72 -190t-185 -75q-231 0 -231 249q0 64 10.5 130t35.5 132.5t61 117.5t93 83t126 32q101 0 152.5 -55t51.5 -144zM281 69q68 0 110 52t42 124
q0 60 -35 96t-94 36q-72 0 -112 -49t-40 -117q0 -66 35.5 -104t93.5 -38z" />
    <glyph glyph-name="seven.plf" horiz-adv-x="492" 
d="M148 0h-122q31 54 66.5 111.5t82 130t69.5 109.5q124 192 178 270v1q-19 -1 -55 -1h-283l17 94h446l-15 -84q0 -1 -1 -2l-32 -50q-245 -386 -351 -579z" />
    <glyph glyph-name="eight.plf" horiz-adv-x="590" 
d="M355 729q90 0 143.5 -45.5t53.5 -115.5q0 -67 -35.5 -114.5t-95.5 -69.5q52 -26 78 -65t26 -102q0 -108 -73.5 -169.5t-196.5 -61.5q-102 0 -166 49t-64 139q0 75 44 131.5t125 82.5q-72 51 -72 143q0 87 63 142.5t170 55.5zM344 638q-56 0 -90.5 -31t-34.5 -86
q0 -44 28.5 -69t78.5 -25q55 0 90 32.5t35 85.5q0 40 -29.5 66.5t-77.5 26.5zM289 339q-65 0 -110 -40t-45 -105q0 -57 35 -89t95 -32q71 0 112.5 40.5t41.5 110.5q0 53 -35 84t-94 31z" />
    <glyph glyph-name="nine.plf" horiz-adv-x="598" 
d="M37 185h100q2 -52 31 -82t82 -30q136 0 198 260q-21 -27 -63 -50t-101 -23q-90 0 -147.5 58t-57.5 153q0 111 73 185t185 74q230 0 230 -253q0 -63 -10.5 -128t-35.5 -131t-61 -117t-93 -83t-126 -32q-101 0 -152.5 55t-51.5 144zM335 645q-69 0 -110.5 -48t-41.5 -122
q0 -62 34.5 -96.5t94.5 -34.5q72 0 112 48t40 117q0 66 -35 101t-94 35z" />
    <glyph glyph-name="zero.posf" horiz-adv-x="603" 
d="M262 71q33 0 59.5 15.5t45 39.5t33.5 62t24 74t18 84q16 91 16 148q0 134 -102 134q-33 0 -59.5 -15.5t-45 -39.5t-33.5 -62t-24 -74t-18 -84q-16 -91 -16 -148q0 -134 102 -134zM369 716q203 0 203 -226q0 -67 -13 -136q-14 -77 -34.5 -136t-55 -115t-90 -86.5
t-128.5 -30.5q-203 0 -203 226q0 67 13 136q13 77 33 136t54.5 115t90.5 86.5t130 30.5z" />
    <glyph glyph-name="one.posf" horiz-adv-x="400" 
d="M144 0l93 516h-175l14 74q93 2 141 27.5t68 83.5h87l-127 -701h-101z" />
    <glyph glyph-name="two.posf" horiz-adv-x="571" 
d="M3 0l15 88q148 106 302 235q30 26 45.5 40.5t39 42t34.5 56t11 59.5q0 49 -31.5 78t-87.5 29q-64 0 -101 -40t-44 -111h-103q6 104 77 171t186 67q96 0 153.5 -48t57.5 -131q0 -49 -18.5 -95.5t-55 -88t-70 -71.5t-82.5 -67q-21 -17 -52.5 -39t-68.5 -48t-53 -37h321
l-16 -90h-459z" />
    <glyph glyph-name="three.posf" horiz-adv-x="571" 
d="M245 340l15 84q164 0 164 117q0 40 -26 62.5t-74 22.5q-98 0 -113 -99h-102q11 88 72 138t160 50q85 0 137 -40t52 -109q0 -68 -41 -115t-103 -64q57 -18 89.5 -60t32.5 -98q0 -106 -72.5 -174.5t-190.5 -68.5q-112 0 -172.5 62t-54.5 153h104q-4 -51 28 -88t102 -37
q69 0 109 43t40 107q0 59 -41.5 86.5t-109.5 27.5h-5z" />
    <glyph glyph-name="four.posf" horiz-adv-x="596" 
d="M547 235l-15 -81h-99l-28 -154h-99l28 154h-335l14 75l276 312q134 152 140 160h103l-84 -466h99zM414 570h-2q-82 -106 -127 -157l-59 -68q-13 -14 -36.5 -41t-28.5 -32l-32 -37h220l20 112q9 50 18.5 96t17 82.5t9.5 44.5z" />
    <glyph glyph-name="five.posf" horiz-adv-x="565" 
d="M241 -15q-109 0 -167.5 58.5t-60.5 148.5h102q16 -119 134 -119q71 0 115 50.5t44 122.5q0 61 -36 94.5t-95 33.5q-77 0 -117 -58l-91 15q30 99 106 370h367l-17 -90h-285l-58 -196q58 42 135 42q80 0 138 -49t58 -145q0 -121 -72.5 -199.5t-199.5 -78.5z" />
    <glyph glyph-name="six.posf" horiz-adv-x="597" 
d="M577 521h-100q-2 51 -30.5 79.5t-82.5 28.5q-138 0 -200 -251q18 26 62 49t104 23q91 0 148 -55.5t57 -148.5q0 -112 -72 -186t-185 -74q-231 0 -231 244q0 63 10.5 127t35.5 129.5t61 116t93 82t126 31.5q101 0 152.5 -54t51.5 -141zM279 68q68 0 110 50.5t42 121.5
q0 59 -35 94.5t-94 35.5q-72 0 -112 -48.5t-40 -114.5q0 -65 35.5 -102t93.5 -37z" />
    <glyph glyph-name="seven.posf" horiz-adv-x="496" 
d="M148 0h-122q41 70 123 197t95 147q118 182 178 265v1q-19 -1 -55 -1h-283l17 92h446l-15 -82q0 -1 -1 -2l-32 -49q-251 -389 -351 -568z" />
    <glyph glyph-name="eight.posf" horiz-adv-x="591" 
d="M355 715q90 0 143.5 -44.5t53.5 -113.5q0 -66 -35.5 -112.5t-95.5 -68.5q52 -25 78 -63.5t26 -99.5q0 -105 -73.5 -166t-196.5 -61q-102 0 -166 48.5t-64 136.5q0 75 44 129.5t125 79.5q-72 51 -72 141q0 84 63.5 139t169.5 55zM344 625q-55 0 -90 -30.5t-35 -83.5
q0 -43 28.5 -67.5t78.5 -24.5q55 0 90 31.5t35 83.5q0 40 -29.5 65.5t-77.5 25.5zM289 332q-65 0 -110 -39t-45 -103q0 -56 34.5 -87t95.5 -31q71 0 112.5 39.5t41.5 108.5q0 51 -35 81.5t-94 30.5z" />
    <glyph glyph-name="nine.posf" horiz-adv-x="598" 
d="M36 181h100q2 -51 30.5 -80t82.5 -29q136 0 198 254q-21 -27 -63 -49t-101 -22q-90 0 -147.5 57t-57.5 150q0 109 73 181.5t185 72.5q230 0 230 -248q0 -62 -10.5 -126t-35.5 -128.5t-61 -114.5t-93 -81.5t-126 -31.5q-101 0 -152.5 54t-51.5 141zM334 632
q-69 0 -110.5 -47t-41.5 -119q0 -60 34.5 -94.5t94.5 -34.5q72 0 112 47.5t40 114.5q0 64 -35 98.5t-94 34.5z" />
    <glyph glyph-name="uni00AD.case" horiz-adv-x="395" 
d="M68 321l15 85h262l-15 -85h-262z" />
    <glyph glyph-name="endash.case" horiz-adv-x="610" 
d="M68 321l15 83h476l-15 -83h-476z" />
    <glyph glyph-name="emdash.case" horiz-adv-x="975" 
d="M68 321l15 83h841l-15 -83h-841z" />
    <glyph glyph-name="hyphen.case" horiz-adv-x="395" 
d="M68 321l15 85h262l-15 -85h-262z" />
    <glyph glyph-name="guillemotleft.case" horiz-adv-x="514" 
d="M299 533l-134 -187l58 -188h-88l-73 190l137 185h100zM498 533l-134 -187l58 -188h-88l-73 190l137 185h100z" />
    <glyph glyph-name="guillemotright.case" horiz-adv-x="513" 
d="M229 158l134 186l-58 189h86l75 -190l-139 -185h-98zM30 158l134 186l-58 189h86l75 -190l-139 -185h-98z" />
    <glyph glyph-name="guilsinglleft.case" horiz-adv-x="315" 
d="M299 533l-134 -187l58 -188h-88l-73 190l137 185h100z" />
    <glyph glyph-name="guilsinglright.case" horiz-adv-x="314" 
d="M30 158l134 186l-58 189h86l75 -190l-139 -185h-98z" />
    <glyph glyph-name="parenleft.case" horiz-adv-x="325" 
d="M227 -10l-18 -97q-72 57 -118 157t-46 234q0 168 93 315.5t233 208.5l-17 -97q-99 -71 -156 -188t-57 -248q0 -169 86 -285z" />
    <glyph glyph-name="parenright.case" horiz-adv-x="325" 
d="M114 711l18 97q72 -57 118 -157t46 -234q0 -168 -93 -315.5t-233 -208.5l17 97q99 73 156 189.5t57 246.5q0 169 -86 285z" />
    <glyph glyph-name="bracketleft.case" horiz-adv-x="347" 
d="M264 700l-112 -633l-12 -67h113l-11 -67h-210q17 95 46.5 263.5t54 307.5t45.5 263h211l-11 -67h-114z" />
    <glyph glyph-name="bracketright.case" horiz-adv-x="346" 
d="M119 767h210q-24 -140 -73 -417t-73 -417h-208q5 38 10 67h112l124 700h-113z" />
    <glyph glyph-name="braceleft.case" horiz-adv-x="312" 
d="M141 361q0 -1 -0.5 -1t-0.5 -1q28 -13 39.5 -29t12.5 -45q0 -16 -5 -48l-31 -170q-4 -17 -4 -36q0 -29 25 -37l28 -3l-9 -62h-29q-64 0 -89 16t-25 60q0 17 5 49l32 180q3 18 5 46q0 29 -11.5 41.5t-39.5 21.5l7 39q39 6 56.5 28.5t27.5 81.5q26 157 32 177q18 69 60 88
q29 14 82 14h10t9.5 -0.5t8 -0.5h5.5h2l-11 -63h-24q-24 -3 -35.5 -19t-18.5 -57l-19 -112q-15 -84 -31.5 -113t-63.5 -45z" />
    <glyph glyph-name="braceright.case" horiz-adv-x="313" 
d="M186 340v1l1 1q-28 13 -40 29t-12 44q0 35 10 79l25 137q4 17 4 37q0 23 -11.5 30t-41.5 10l9 62h2h4t6 0.5t8 0.5h9q63 0 88.5 -17t25.5 -60q0 -18 -5 -50l-31 -177q-5 -32 -5 -46q0 -29 11.5 -41.5t39.5 -21.5l-7 -39q-33 -5 -49 -21t-27 -54q-22 -81 -36 -190
q-12 -71 -42.5 -98.5t-103.5 -27.5h-10h-9.5t-8 0.5t-5.5 0.5h-2l11 63q40 0 56.5 17t24.5 80q25 152 37 184q17 43 58 61q7 3 16 6z" />
    <glyph glyph-name="bar.case" horiz-adv-x="289" 
d="M177 752h92l-141 -802h-92z" />
    <glyph glyph-name="minus.case" 
d="M76 328v87h442v-87h-442z" />
    <glyph glyph-name="multiply.case" 
d="M139 154l-59 59l159 158l-159 158l59 59l158 -158l159 159l59 -59l-159 -159l159 -159l-59 -59l-159 159z" />
    <glyph glyph-name="plus.case" 
d="M77 328v87h177v185h87v-185h178v-87h-178v-186h-87v186h-177z" />
    <glyph glyph-name="less.case" 
d="M471 613v-102q-39 -18 -109.5 -52.5t-123 -60t-66.5 -31.5v-3l71 -35q37 -19 120.5 -59t109.5 -53v-105q-67 36 -199 103.5t-199 103.5v84z" />
    <glyph glyph-name="equal.case" 
d="M72 499h445q0 -14 0.5 -42.5t0.5 -42.5h-445q-1 28 -1 85zM73 337h445v-85h-445v85z" />
    <glyph glyph-name="greater.case" 
d="M121 511v102q86 -46 398 -210v-84q-60 -32 -192.5 -100t-203.5 -107q0 18 -0.5 52.5t-0.5 52.5q22 11 106 52t123 60l70 35v3q-5 2 -14.5 7t-26.5 13t-29 14z" />
    <glyph glyph-name="at.case" horiz-adv-x="826" 
d="M565 539h81q-2 -12 -20.5 -116t-27.5 -159q-4 -17 -4 -31q0 -24 30 -24q49 0 80.5 67.5t31.5 143.5q0 111 -76.5 183t-205.5 72q-142 0 -237 -96t-95 -243q0 -137 89 -221t230 -84q127 0 227 79l53 -27q-126 -108 -291 -108q-167 0 -271 99t-104 261q0 166 114.5 281
t287.5 115q148 0 244.5 -84t96.5 -214q0 -71 -21.5 -133t-69.5 -105t-114 -43q-36 0 -55.5 13.5t-24.5 31.5q-14 -17 -46 -32.5t-76 -15.5q-73 0 -115.5 45t-42.5 125q0 93 54.5 160.5t145.5 67.5q88 0 123 -61l1 6q1 5 2 11t1 8zM442 478q-59 0 -91.5 -47.5t-32.5 -112.5
q0 -48 24.5 -77t70.5 -29q61 0 93.5 47t32.5 111q0 108 -97 108z" />
    <glyph glyph-name="notequal.case" 
d="M72 412v85h233l55 113h94l-55 -113h115v-85h-156l-37 -76h193v-85h-234l-58 -121h-94l58 121h-114v85h155l37 76h-192z" />
    <glyph glyph-name="plusminus.case" 
d="M60 369v87h177v145h87v-145h178v-87h-178v-145h-87v145h-177zM61 50v87h442v-87h-442z" />
    <glyph glyph-name="lessequal.case" 
d="M74 310v91l396 179v-95q-55 -22 -173.5 -72.5t-121.5 -51.5v-3q14 -6 129 -56t166 -71v-97q-66 30 -198 88t-198 88zM470 0h-396v87h396v-87z" />
    <glyph glyph-name="greaterequal.case" 
d="M482 401v-91q-66 -30 -197.5 -88t-198.5 -88v97q51 21 166 71t129 56v3q-3 1 -121.5 51.5t-173.5 72.5v95zM482 0h-396v87h396v-87z" />
    <glyph glyph-name="logicalnot.case" 
d="M33 430v87h504v-330h-89v243h-415z" />
    <glyph glyph-name="approxequal.case" 
d="M92 365l-60 43q59 108 143 108q36 0 113.5 -37t107.5 -37q54 0 88 70l63 -41q-62 -112 -146 -112q-37 0 -95 26l-57 24q-52 24 -75 23q-53 0 -82 -67zM90 115l-60 43q59 108 143 108q35 0 113 -37t108 -37q54 0 88 70l63 -41q-62 -112 -146 -112q-37 0 -95 26l-57 24
q-52 24 -75 23q-53 0 -82 -67z" />
    <glyph glyph-name="divide.case" 
d="M77 328v87h442v-87h-442zM243 142v114h107v-114h-107zM243 486v114h107v-114h-107z" />
    <glyph glyph-name="infinity.case" horiz-adv-x="837" 
d="M227 537q12 0 23.5 -1.5t24 -6t21.5 -7.5t22.5 -11.5t20.5 -12.5t22.5 -16t21 -16t23.5 -19t23 -19q80 69 113 86q42 23 85 23q78 0 124 -48t46 -126q0 -70 -43 -120t-123 -50q-38 0 -78 19t-65 39.5t-62 56.5l-15 -14q-34 -33 -57 -51t-58.5 -34t-72.5 -16
q-80 0 -123 50t-43 120q0 78 46 126t124 48zM624 284q38 0 60 22t22 61q0 35 -22 58t-58 23q-54 0 -149 -85l16 -13q29 -23 42.5 -33t39 -21.5t49.5 -11.5zM230 284q34 0 63 16t67 49l17 14q-95 85 -149 85q-36 0 -58 -23t-22 -58q0 -39 22 -61t60 -22z" />
    <glyph glyph-name="registered.alt" horiz-adv-x="846" 
d="M809 360q0 -158 -110 -267.5t-268 -109.5q-156 0 -265.5 110t-109.5 267t109.5 266.5t267.5 109.5q156 0 266 -110t110 -266zM752 360q0 135 -93.5 228.5t-225.5 93.5q-135 0 -227 -93.5t-92 -228.5t92 -229.5t226 -94.5q132 0 226 94.5t94 229.5zM301 143v429h130
q75 0 114 -25q52 -36 52 -103q0 -52 -28.5 -83t-71.5 -40l108 -178h-83l-98 168h-53v-168h-70zM371 510v-138h61q90 0 90 70q0 68 -90 68h-61z" />
    <glyph glyph-name="brokenbar.case" horiz-adv-x="230" 
d="M92 428l53 303h89l-53 -303h-89zM6 -62l53 303h89l-53 -303h-89z" />
    <glyph glyph-name="a.sub" horiz-adv-x="414" 
d="M111 146h-78q10 62 58 99.5t124 37.5q70 0 108.5 -32t38.5 -92q0 -35 -8 -72q-3 -14 -8.5 -43.5t-8.5 -44.5q-14 -75 -14 -122h-71q0 9 6 49q-56 -56 -137 -56q-57 0 -93 25.5t-36 75.5q0 42 24.5 71.5t69 44.5t81 21t87.5 10q2 0 5.5 0.5t4.5 0.5l18 2q0 1 2 11
q2 14 2 21q0 32 -20.5 50t-59.5 18q-81 0 -95 -75zM149 -73q95 0 121 118l3 21q-11 -2 -30.5 -4.5t-25.5 -3.5q-28 -4 -38 -5.5t-32 -6t-30.5 -9.5t-20.5 -13t-16.5 -19t-4.5 -25q0 -26 20 -39.5t54 -13.5zM275 67l-1 1l-1 -2q1 0 1 0.5t1 0.5z" />
    <glyph glyph-name="b.sub" horiz-adv-x="472" 
d="M-7 -123l94 536h79l-24 -129q-2 -11 -5.5 -29t-5.5 -29q48 55 129 55q71 0 117.5 -47t46.5 -135q0 -99 -59.5 -167t-153.5 -68q-88 0 -132 66l-9 -53h-77zM237 216q-66 0 -102.5 -50.5t-36.5 -120.5q0 -55 27.5 -86t77.5 -31q65 0 102 49.5t37 117.5q0 56 -26.5 88.5
t-78.5 32.5z" />
    <glyph glyph-name="c.sub" horiz-adv-x="440" 
d="M306 2h80q-50 -139 -197 -139q-80 0 -130 47.5t-50 132.5q0 102 61 170t162 68q78 0 123.5 -41t49.5 -103h-80q-4 33 -28 55.5t-71 22.5q-62 0 -98.5 -49.5t-36.5 -114.5q0 -58 26.5 -90.5t77.5 -32.5q76 0 111 74z" />
    <glyph glyph-name="d.sub" horiz-adv-x="471" 
d="M465 414l-95 -537h-73l10 46q-49 -58 -136 -58q-70 0 -116 47.5t-46 135.5q0 92 59.5 163t151.5 71q91 0 131 -66l4 17l11 61l21 120h78zM228 215q-65 0 -101.5 -50t-36.5 -118q0 -55 27 -87.5t77 -32.5q66 0 102.5 51.5t36.5 120.5q0 55 -27.5 85.5t-77.5 30.5z" />
    <glyph glyph-name="e.sub" horiz-adv-x="448" 
d="M306 -12h80q-24 -55 -73 -90t-122 -35q-82 0 -131.5 45.5t-49.5 134.5q0 101 60 169.5t159 68.5q81 0 128.5 -47t47.5 -128q0 -29 -4 -54h-312v-3q0 -121 107 -121q71 0 110 60zM97 109q29 0 115 0.5t116 0.5q-1 51 -28.5 79.5t-75.5 28.5q-97 0 -127 -109zM328 109l1 1
h-1v-1z" />
    <glyph glyph-name="f.sub" horiz-adv-x="232" 
d="M233 272l-10 -61h-66l-60 -334h-77l58 334h-53l11 61h53l8 43q19 105 134 105q5 0 19 -2q3 -1 10 -1l-12 -63h-12q-32 0 -44 -10t-19 -40q-2 -4 -4 -20l-2 -12h66z" />
    <glyph glyph-name="g.sub" horiz-adv-x="473" 
d="M442 270l-58 -329q-22 -117 -74.5 -166.5t-147.5 -49.5q-81 0 -128 38.5t-53 100.5h78q20 -71 109 -71q110 0 136 136l3 17q-53 -53 -129 -53q-73 0 -119 44t-46 123q0 90 57 155t147 65q99 0 136 -68q6 39 11 58h78zM229 214q-62 0 -97.5 -45t-35.5 -106
q0 -109 104 -109q65 0 101 46.5t36 111.5q0 45 -28 73.5t-80 28.5z" />
    <glyph glyph-name="h.sub" horiz-adv-x="440" 
d="M-7 -123l95 537h79l-18 -101q-4 -16 -9 -48.5t-8 -48.5q18 25 52 44.5t79 19.5q61 0 93 -32.5t32 -85.5q0 -33 -3 -48l-42 -237h-78l36 213q4 20 4 48q0 77 -78 77q-49 0 -78.5 -33.5t-38.5 -88.5l-39 -216h-78z" />
    <glyph glyph-name="i.sub" horiz-adv-x="172" 
d="M-6 -123l68 393h79l-70 -393h-77zM72 326l15 88h80l-15 -88h-80z" />
    <glyph glyph-name="j.sub" horiz-adv-x="172" 
d="M141 270l-74 -415q-12 -70 -39.5 -99t-84.5 -29q-26 0 -51 5l11 62q15 -3 27 -3q28 0 40 13t18 42q10 52 21 120q31 179 54 304h78zM72 324l15 88h79l-15 -88h-79z" />
    <glyph glyph-name="k.sub" horiz-adv-x="385" 
d="M71 -123h-78l94 537h79l-57 -315q123 112 184 173h105l-210 -183l147 -212h-93q-129 191 -136 205q-2 -6 -19 -110z" />
    <glyph glyph-name="l.sub" horiz-adv-x="172" 
d="M-6 -123l93 537h79l-95 -537h-77z" />
    <glyph glyph-name="m.sub" horiz-adv-x="692" 
d="M-7 -123l70 394h76l-11 -59q49 69 132 69q89 0 113 -74q19 28 56.5 51t89.5 23q61 0 91.5 -32.5t30.5 -86.5q0 -26 -4 -46l-42 -239h-78l36 214q5 25 5 47q0 78 -75 78q-80 0 -108 -105l-41 -234h-78l36 214q4 20 4 47q0 78 -74 78q-47 0 -75 -33.5t-37 -87.5l-39 -218
h-78z" />
    <glyph glyph-name="n.sub" horiz-adv-x="438" 
d="M-7 -123l69 394h77l-11 -59q48 68 135 68q61 0 92.5 -32.5t31.5 -85.5q0 -31 -3 -46l-42 -239h-78l36 214q4 20 4 47q0 78 -80 78q-45 0 -74.5 -34.5t-40.5 -85.5q0 -1 -23 -135l-15 -84h-78z" />
    <glyph glyph-name="o.sub" horiz-adv-x="463" 
d="M233 280q85 0 133 -45.5t48 -131.5q0 -106 -58 -173t-164 -67q-84 0 -133.5 45t-49.5 131q0 102 59.5 171.5t164.5 69.5zM228 214q-67 0 -102 -49.5t-35 -118.5q0 -118 106 -118q67 0 101 49t34 118q0 56 -26 87.5t-78 31.5z" />
    <glyph glyph-name="p.sub" horiz-adv-x="472" 
d="M-31 -259l93 529h74q-2 -10 -6 -28t-5 -23q53 61 135 61q71 0 117 -46.5t46 -134.5q0 -99 -59 -167.5t-152 -68.5q-94 0 -133 66q-7 -36 -18 -101t-15 -87h-77zM236 216q-65 0 -101.5 -50.5t-36.5 -118.5q0 -56 26.5 -87.5t78.5 -31.5q65 0 102 50t37 118q0 55 -28 87.5
t-78 32.5z" />
    <glyph glyph-name="q.sub" horiz-adv-x="471" 
d="M440 270l-94 -529h-78l16 82q18 95 19 98q-43 -57 -132 -57q-71 0 -116.5 47.5t-45.5 134.5q0 94 59.5 164t153.5 70q88 0 132 -64l10 54h76zM228 214q-65 0 -102 -50t-37 -119q0 -55 27.5 -86.5t77.5 -31.5q66 0 102.5 50t36.5 119q0 55 -26.5 86.5t-78.5 31.5z" />
    <glyph glyph-name="r.sub" horiz-adv-x="243" 
d="M250 276l-12 -70q-5 0 -8 1q-14 2 -21 2q-46 0 -67.5 -31t-35.5 -96l-36 -205h-77l69 394h73l-9 -56q34 63 98 63q16 0 26 -2z" />
    <glyph glyph-name="s.sub" horiz-adv-x="375" 
d="M335 159h-69q-10 60 -83 60q-33 0 -52.5 -13.5t-19.5 -36.5q0 -22 13 -32t52 -24l26 -10q36 -15 47 -20t31 -18t26 -28.5t6 -38.5q0 -63 -44.5 -98.5t-120.5 -35.5q-72 0 -112 35.5t-44 102.5h70q3 -31 26 -53t66 -22q40 0 61.5 16t21.5 41q0 12 -3.5 20t-16 15t-19.5 10
t-29 11l-33 12q-52 18 -77 40.5t-25 63.5q0 57 43 91.5t115 34.5q64 0 104 -30t40 -84v-9z" />
    <glyph glyph-name="t.sub" horiz-adv-x="252" 
d="M16 209l11 61h61l19 106h78l-18 -106h75l-11 -61h-75q-5 -29 -18.5 -104t-19.5 -111q-3 -18 -3 -31q0 -21 11 -29.5t37 -8.5h11l-9 -56q-18 -2 -30 -2q-103 0 -103 68q0 19 5 41l41 233h-62z" />
    <glyph glyph-name="u.sub" horiz-adv-x="432" 
d="M401 270l-70 -393h-74l10 56q-15 -26 -50 -47t-84 -21q-61 0 -91.5 31t-30.5 84q0 29 4 49l42 241h80l-39 -216q-5 -25 -5 -47q0 -77 79 -77q46 0 74 32.5t38 86.5l39 221h78z" />
    <glyph glyph-name="v.sub" horiz-adv-x="390" 
d="M401 271l-222 -394h-78q-15 71 -41 203.5t-38 190.5h81q12 -78 24.5 -150t19.5 -110t9 -54l15 30t48.5 96t96.5 188h85z" />
    <glyph glyph-name="w.sub" horiz-adv-x="595" 
d="M83 -123l-1 1q-14 84 -57 393h77q5 -52 18 -158t19 -162l131 320h79q9 -110 28 -322q21 52 144 322h80l-194 -394h-88q-23 201 -27 301q-75 -200 -125 -301h-84z" />
    <glyph glyph-name="x.sub" horiz-adv-x="369" 
d="M372 271l1 -2q-28 -33 -84 -97t-83 -95l112 -200h-86q-22 47 -74 147q-8 -9 -25.5 -31t-41.5 -51.5t-54 -64.5h-91q38 40 179 202q-17 32 -52.5 96t-52.5 96h83l69 -139q31 38 111 139h89z" />
    <glyph glyph-name="y.sub" horiz-adv-x="391" 
d="M98 -259h-80l83 143q-20 93 -37.5 180t-26.5 131.5t-16 74.5h83q21 -118 36 -208t16 -97q127 244 160 305h85q-215 -386 -303 -529z" />
    <glyph glyph-name="z.sub" horiz-adv-x="368" 
d="M349 271l-10 -61q-31 -32 -81 -85t-73 -77t-54 -55.5t-56 -54.5h33.5t73.5 0.5t118 0.5l-11 -62h-311l9 59l197 207l66 66l-66 -1h-152l12 63h305z" />
    <glyph glyph-name="a.sup" horiz-adv-x="413" 
d="M164 571h-78q10 62 58 99.5t124 37.5q70 0 108.5 -32t38.5 -92q0 -35 -8 -72q-3 -15 -9 -44.5t-8 -43.5q-14 -75 -14 -122h-71q0 8 6 49q-56 -56 -137 -56q-57 0 -93 25.5t-36 75.5q0 42 24.5 71.5t69 44.5t81 21t87.5 10q2 0 5.5 0.5t4.5 0.5l18 2q0 1 2 11q2 14 2 21
q0 32 -20.5 50t-59.5 18q-81 0 -95 -75zM202 352q95 0 121 118l3 21q-11 -2 -30.5 -4.5t-25.5 -3.5q-28 -4 -38 -5.5t-32 -6t-30.5 -9.5t-20.5 -13t-16.5 -19t-4.5 -25q0 -26 20 -39.5t54 -13.5zM328 492l-1 1l-1 -2l1 1h1z" />
    <glyph glyph-name="b.sup" horiz-adv-x="472" 
d="M46 302l94 536h79l-24 -129q-2 -11 -5.5 -29t-5.5 -29q48 55 129 55q71 0 117.5 -47t46.5 -135q0 -99 -59.5 -167t-153.5 -68q-88 0 -132 66l-9 -53h-77zM290 641q-66 0 -102.5 -50.5t-36.5 -120.5q0 -55 27.5 -86t77.5 -31q65 0 102 49.5t37 117.5q0 56 -26.5 88.5
t-78.5 32.5z" />
    <glyph glyph-name="c.sup" horiz-adv-x="439" 
d="M359 427h80q-50 -139 -197 -139q-80 0 -130 47.5t-50 132.5q0 102 61 170t162 68q78 0 123.5 -41t49.5 -103h-80q-4 33 -28 55.5t-71 22.5q-62 0 -98.5 -49.5t-36.5 -114.5q0 -58 26.5 -90.5t77.5 -32.5q76 0 111 74z" />
    <glyph glyph-name="d.sup" horiz-adv-x="472" 
d="M519 839l-95 -537h-73l10 46q-49 -58 -136 -58q-70 0 -116 47.5t-46 135.5q0 92 59.5 163t151.5 71q91 0 131 -66l4 17l11 61l21 120h78zM282 640q-65 0 -101.5 -50t-36.5 -118q0 -55 27 -87.5t77 -32.5q66 0 102.5 51.5t36.5 120.5q0 55 -27.5 85.5t-77.5 30.5z" />
    <glyph glyph-name="e.sup" horiz-adv-x="448" 
d="M359 413h80q-24 -55 -73 -90t-122 -35q-82 0 -131.5 45.5t-49.5 134.5q0 101 60 169.5t159 68.5q81 0 128.5 -47t47.5 -128q0 -29 -4 -54h-312v-3q0 -121 107 -121q71 0 110 60zM150 534q29 0 115 0.5t116 0.5q-1 51 -28.5 79.5t-75.5 28.5q-97 0 -127 -109zM381 534l1 1
h-1v-1z" />
    <glyph glyph-name="f.sup" horiz-adv-x="234" 
d="M288 697l-10 -61h-66l-60 -334h-77l58 334h-53l11 61h53l8 43q19 105 134 105q5 0 19 -2q3 -1 10 -1l-12 -63h-12q-32 0 -44 -10t-19 -40q-2 -4 -4 -20l-2 -12h66z" />
    <glyph glyph-name="g.sup" horiz-adv-x="473" 
d="M495 695l-58 -329q-22 -117 -74.5 -166.5t-147.5 -49.5q-81 0 -128 38.5t-53 100.5h78q20 -71 109 -71q111 0 136 136l3 17q-53 -53 -129 -53q-73 0 -119 44t-46 123q0 90 57 155t147 65q99 0 136 -68q6 39 11 58h78zM282 639q-62 0 -97.5 -45t-35.5 -106
q0 -109 104 -109q65 0 101 46.5t36 111.5q0 45 -28 73.5t-80 28.5z" />
    <glyph glyph-name="h.sup" horiz-adv-x="439" 
d="M46 302l95 537h79l-18 -101q-4 -16 -9 -48.5t-8 -48.5q18 25 52 44.5t79 19.5q61 0 93 -32.5t32 -85.5q0 -33 -3 -48l-42 -237h-78l36 213q4 20 4 48q0 77 -78 77q-49 0 -78.5 -33.5t-38.5 -88.5l-39 -216h-78z" />
    <glyph glyph-name="i.sup" horiz-adv-x="172" 
d="M47 302l68 393h79l-70 -393h-77zM125 751l15 88h80l-15 -88h-80z" />
    <glyph glyph-name="j.sup" horiz-adv-x="172" 
d="M194 695l-74 -415q-12 -70 -39.5 -99t-84.5 -29q-26 0 -51 5l11 62q15 -3 27 -3q28 0 40 13t18 42q11 53 21 120q31 179 54 304h78zM125 749l15 88h79l-15 -88h-79z" />
    <glyph glyph-name="k.sup" horiz-adv-x="386" 
d="M125 302h-78l94 537h79l-57 -315q123 112 184 173h105l-210 -183l147 -212h-93q-129 191 -136 205q-2 -6 -19 -110z" />
    <glyph glyph-name="l.sup" horiz-adv-x="172" 
d="M47 302l93 537h79l-95 -537h-77z" />
    <glyph glyph-name="m.sup" horiz-adv-x="691" 
d="M46 302l70 394h76l-11 -59q49 69 132 69q89 0 113 -74q19 28 56.5 51t89.5 23q60 0 91 -32.5t31 -86.5q0 -26 -4 -46l-42 -239h-78l36 214q5 25 5 47q0 78 -75 78q-80 0 -108 -105l-41 -234h-78l36 214q4 20 4 47q0 78 -74 78q-47 0 -75 -33.5t-37 -87.5l-39 -218h-78z
" />
    <glyph glyph-name="n.sup" horiz-adv-x="439" 
d="M47 302l69 394h77l-11 -59q48 68 135 68q61 0 92.5 -32.5t31.5 -85.5q0 -31 -3 -46l-42 -239h-78l36 214q4 20 4 47q0 78 -80 78q-45 0 -74.5 -34.5t-40.5 -85.5q0 -1 -23 -135l-15 -84h-78z" />
    <glyph glyph-name="o.sup" horiz-adv-x="463" 
d="M286 705q85 0 133 -45.5t48 -131.5q0 -106 -58 -173t-164 -67q-84 0 -133.5 45t-49.5 131q0 102 59.5 171.5t164.5 69.5zM281 639q-67 0 -102 -49.5t-35 -118.5q0 -118 106 -118q67 0 101 49t34 118q0 56 -26 87.5t-78 31.5z" />
    <glyph glyph-name="p.sup" horiz-adv-x="471" 
d="M22 166l93 529h74q-2 -10 -6 -28t-5 -23q53 61 135 61q71 0 117 -46.5t46 -134.5q0 -99 -59 -167.5t-152 -68.5q-94 0 -133 66q-7 -36 -18 -101t-15 -87h-77zM289 641q-65 0 -101.5 -50.5t-36.5 -118.5q0 -56 26.5 -87.5t78.5 -31.5q65 0 102 50t37 118q0 55 -28 87.5
t-78 32.5z" />
    <glyph glyph-name="q.sup" horiz-adv-x="472" 
d="M494 695l-94 -529h-78l16 82q18 95 19 98q-43 -57 -132 -57q-71 0 -116.5 47.5t-45.5 134.5q0 94 59.5 164t153.5 70q88 0 132 -64l10 54h76zM282 639q-65 0 -102 -50t-37 -119q0 -55 27.5 -86.5t77.5 -31.5q66 0 102.5 50t36.5 119q0 55 -26.5 86.5t-78.5 31.5z" />
    <glyph glyph-name="r.sup" horiz-adv-x="244" 
d="M304 701l-12 -70q-5 0 -8 1q-14 2 -21 2q-46 0 -67.5 -31t-35.5 -96l-36 -205h-77l69 394h73l-9 -56q34 63 98 63q16 0 26 -2z" />
    <glyph glyph-name="s.sup" horiz-adv-x="375" 
d="M388 584h-69q-10 60 -83 60q-33 0 -52.5 -13.5t-19.5 -36.5q0 -22 13 -32t52 -24l26 -10q36 -15 47 -20t31 -18t26 -28.5t6 -38.5q0 -63 -44.5 -98.5t-120.5 -35.5q-72 0 -112 35.5t-44 102.5h70q3 -31 26 -53t66 -22q40 0 61.5 16t21.5 41q0 12 -3.5 20t-16 15t-19.5 10
t-29 11l-33 12q-52 18 -77 40.5t-25 63.5q0 57 43 91.5t115 34.5q64 0 104 -30t40 -84v-9z" />
    <glyph glyph-name="t.sup" horiz-adv-x="252" 
d="M69 634l11 61h61l19 106h78l-18 -106h75l-11 -61h-75q-5 -29 -18.5 -104t-19.5 -111q-3 -18 -3 -31q0 -21 11 -29.5t37 -8.5h11l-9 -56q-18 -2 -30 -2q-103 0 -103 68q0 19 5 41l41 233h-62z" />
    <glyph glyph-name="u.sup" horiz-adv-x="433" 
d="M455 695l-70 -393h-74l10 56q-15 -26 -50 -47t-84 -21q-61 0 -91.5 31t-30.5 84q0 29 4 49l42 241h80l-39 -216q-5 -25 -5 -47q0 -77 79 -77q46 0 74 32.5t38 86.5l39 221h78z" />
    <glyph glyph-name="v.sup" horiz-adv-x="391" 
d="M455 696l-222 -394h-78q-15 71 -41 203.5t-38 190.5h81q12 -78 24.5 -150t19.5 -110t9 -54l15 30t48.5 96t96.5 188h85z" />
    <glyph glyph-name="w.sup" horiz-adv-x="597" 
d="M137 302l-1 1q-14 84 -57 393h77q5 -52 18 -158t19 -162l131 320h79q9 -110 28 -322q21 52 144 322h80l-194 -394h-88q-23 201 -27 301q-75 -200 -125 -301h-84z" />
    <glyph glyph-name="x.sup" horiz-adv-x="368" 
d="M425 696l1 -2q-28 -33 -84 -97t-83 -95l112 -200h-86q-22 47 -74 147q-8 -9 -25.5 -31t-41.5 -51.5t-54 -64.5h-91q38 40 179 202q-16 32 -52 96t-53 96h83l69 -139q32 39 111 139h89z" />
    <glyph glyph-name="y.sup" horiz-adv-x="390" 
d="M151 166h-80l83 143q-20 93 -37.5 180t-26.5 131.5t-16 74.5h83q21 -118 36 -207.5t16 -97.5q127 244 160 305h85q-215 -386 -303 -529z" />
    <glyph glyph-name="z.sup" horiz-adv-x="368" 
d="M402 696l-10 -61q-31 -32 -81 -85t-73 -77t-54 -55.5t-56 -54.5q9 0 33.5 0.5t73.5 0.5h118l-11 -62h-311l9 59l197 207q12 12 23.5 24t24 24t18.5 18h-65q-66 -1 -153 -1l12 63h305z" />
    <glyph glyph-name="zero.sub" horiz-adv-x="453" 
d="M184 -69q29 0 51.5 17.5t37.5 50.5t25 65t19 76q12 67 12 113q0 101 -75 101q-97 0 -134 -209q-12 -67 -12 -113q0 -101 76 -101zM263 423q153 0 153 -173q0 -56 -9 -104q-48 -281 -231 -281q-154 0 -154 172q0 52 10 105q49 281 231 281z" />
    <glyph glyph-name="one.sub" horiz-adv-x="304" 
d="M97 -123l70 394h-131l10 58q70 2 106 21.5t51 63.5h66l-94 -537h-78z" />
    <glyph glyph-name="two.sub" horiz-adv-x="429" 
d="M-11 -123l11 70q106 75 227 178q96 82 96 150q0 36 -23 58.5t-64 22.5q-47 0 -75 -30t-33 -85h-79q4 80 58 131.5t140 51.5q72 0 115.5 -37t43.5 -100q0 -68 -46.5 -127.5t-122.5 -119.5q-16 -13 -101 -75l-25 -17h235l-12 -71h-345z" />
    <glyph glyph-name="three.sub" horiz-adv-x="429" 
d="M169 134l12 65q122 0 122 89q0 29 -19.5 46.5t-53.5 17.5q-72 0 -84 -75h-79q9 67 55 105.5t120 38.5q64 0 103 -30.5t39 -83.5t-29 -88t-76 -48q39 -16 64 -49.5t25 -71.5q0 -81 -54.5 -133.5t-143.5 -52.5q-84 0 -129.5 48t-41.5 117h80q-4 -39 20.5 -67t76.5 -28
q51 0 80 32.5t29 80.5q0 45 -30.5 66t-80.5 21h-5z" />
    <glyph glyph-name="four.sub" horiz-adv-x="451" 
d="M400 58l-11 -64h-74l-21 -117h-75l21 117h-252l11 60q296 338 311 360h79l-63 -356h74zM293 283q4 15 6 28q-71 -91 -210 -253h161l15 85q14 74 28 140zM300 313h-1v-2z" />
    <glyph glyph-name="five.sub" horiz-adv-x="424" 
d="M168 -136q-82 0 -126 45.5t-46 113.5h79q10 -90 99 -90q55 0 86 37.5t31 93.5q0 46 -26.5 71.5t-69.5 25.5q-55 0 -87 -45l-70 12q8 25 80 284h276l-13 -71h-213l-42 -145q42 30 99 30q59 0 103 -38t44 -112q0 -93 -54 -152.5t-150 -59.5z" />
    <glyph glyph-name="six.sub" horiz-adv-x="450" 
d="M422 272h-77q-5 82 -84 82q-99 0 -147 -184q45 50 122 50q68 0 111 -42.5t43 -114.5q0 -87 -53.5 -143t-139.5 -56q-174 0 -174 187q0 61 13.5 122.5t41 119t77 93.5t113.5 36q76 0 115 -41.5t39 -108.5zM198 -72q50 0 81 38t31 92q0 44 -26 71t-69 27q-53 0 -83 -36.5
t-30 -86.5q0 -49 26.5 -77t69.5 -28z" />
    <glyph glyph-name="seven.sub" horiz-adv-x="376" 
d="M102 -123h-94q29 51 115 186q31 49 73.5 116.5t65 101.5t41.5 61q-7 0 -45 -0.5t-45 -0.5h-160l12 73h336l-12 -67l-24 -36q-147 -228 -263 -434z" />
    <glyph glyph-name="eight.sub" horiz-adv-x="445" 
d="M253 422q68 0 108.5 -34t40.5 -87q0 -49 -26 -84.5t-71 -53.5q77 -39 77 -125q0 -81 -55 -127t-148 -46q-77 0 -125 37t-48 104q0 56 32.5 98t92.5 62q-52 39 -52 108q0 64 47.5 106t126.5 42zM246 352q-41 0 -67 -22.5t-26 -63.5q0 -32 21.5 -50.5t58.5 -18.5
q40 0 65.5 24t25.5 63q0 30 -21.5 49t-56.5 19zM205 129q-48 0 -81.5 -29.5t-33.5 -78.5q0 -42 25.5 -65.5t70.5 -23.5q52 0 83 30t31 81q0 39 -26.5 62.5t-68.5 23.5z" />
    <glyph glyph-name="nine.sub" horiz-adv-x="450" 
d="M14 15h77q5 -83 84 -83q97 0 145 187q-45 -50 -120 -50q-68 0 -111 44t-43 116q0 83 54.5 138.5t139.5 55.5q173 0 173 -190q0 -60 -13.5 -121t-41 -118t-77 -93t-113.5 -36q-77 0 -115.5 41.5t-38.5 108.5zM239 357q-51 0 -82 -35t-31 -90q0 -45 26 -71.5t69 -26.5
q53 0 82.5 36t29.5 87q0 49 -25.5 74.5t-68.5 25.5z" />
    <glyph glyph-name="zero.sup" horiz-adv-x="452" 
d="M237 356q29 0 51.5 17.5t37.5 50.5t25 65t19 76q12 67 12 113q0 101 -75 101q-97 0 -134 -209q-12 -67 -12 -113q0 -101 76 -101zM316 848q153 0 153 -173q0 -56 -9 -104q-48 -281 -231 -281q-154 0 -154 172q0 52 10 105q49 281 231 281z" />
    <glyph glyph-name="one.sup" horiz-adv-x="305" 
d="M151 302l70 394h-131l10 58q70 2 106 21.5t51 63.5h66l-94 -537h-78z" />
    <glyph glyph-name="two.sup" horiz-adv-x="429" 
d="M42 302l11 70q106 75 227 178q96 82 96 150q0 36 -23 58.5t-64 22.5q-47 0 -75 -30t-33 -85h-79q4 80 58 131.5t140 51.5q72 0 115.5 -37t43.5 -100q0 -68 -46.5 -127.5t-122.5 -119.5q-16 -13 -101 -75l-25 -17h235l-12 -71h-345z" />
    <glyph glyph-name="three.sup" horiz-adv-x="430" 
d="M223 559l12 65q122 0 122 89q0 29 -19.5 46.5t-53.5 17.5q-72 0 -84 -75h-79q9 67 55 105.5t120 38.5q64 0 103 -30.5t39 -83.5t-29 -88t-76 -48q39 -16 64 -49.5t25 -71.5q0 -81 -54.5 -133.5t-143.5 -52.5q-84 0 -129.5 48t-41.5 117h80q-4 -39 20.5 -67t76.5 -28
q51 0 80 32.5t29 80.5q0 45 -30.5 66t-80.5 21h-5z" />
    <glyph glyph-name="four.sup" horiz-adv-x="450" 
d="M453 483l-11 -64h-74l-21 -117h-75l21 117h-252l11 60q296 338 311 360h79l-63 -356h74zM346 708q4 15 6 28q-71 -91 -210 -253h161l15 85q14 74 28 140zM353 738h-1v-2z" />
    <glyph glyph-name="five.sup" horiz-adv-x="423" 
d="M221 289q-82 0 -126 45.5t-46 113.5h79q10 -90 99 -90q55 0 86 37.5t31 93.5q0 46 -26.5 71.5t-69.5 25.5q-55 0 -87 -45l-70 12q8 25 80 284h276l-13 -71h-213l-42 -145q42 30 99 30q59 0 103 -38t44 -112q0 -93 -54 -152.5t-150 -59.5z" />
    <glyph glyph-name="six.sup" horiz-adv-x="450" 
d="M475 697h-77q-5 82 -84 82q-99 0 -147 -184q45 50 122 50q68 0 111 -42.5t43 -114.5q0 -87 -53.5 -143t-139.5 -56q-174 0 -174 187q0 61 13.5 122.5t41 119t77 93.5t113.5 36q76 0 115 -41.5t39 -108.5zM251 353q50 0 81 38t31 92q0 44 -26 71t-69 27q-53 0 -83 -36.5
t-30 -86.5q0 -49 26.5 -77t69.5 -28z" />
    <glyph glyph-name="seven.sup" horiz-adv-x="374" 
d="M154 302h-94q29 51 115 186q31 49 73.5 116.5t65 101.5t41.5 61q-7 0 -45 -0.5t-45 -0.5h-160l12 73h336l-12 -67l-24 -36q-147 -228 -263 -434z" />
    <glyph glyph-name="eight.sup" horiz-adv-x="445" 
d="M306 847q68 0 108.5 -34t40.5 -87q0 -49 -26 -84.5t-71 -53.5q77 -39 77 -125q0 -81 -55 -127t-148 -46q-77 0 -125 37t-48 104q0 56 32.5 98t92.5 62q-52 39 -52 108q0 64 47.5 106t126.5 42zM299 777q-41 0 -67 -22.5t-26 -63.5q0 -32 21.5 -50.5t58.5 -18.5
q40 0 65.5 24t25.5 63q0 30 -21.5 49t-56.5 19zM258 554q-48 0 -81.5 -29.5t-33.5 -78.5q0 -42 25.5 -65.5t70.5 -23.5q52 0 83 30t31 81q0 39 -26.5 62.5t-68.5 23.5z" />
    <glyph glyph-name="nine.sup" horiz-adv-x="450" 
d="M67 440h77q5 -83 84 -83q97 0 145 187q-45 -50 -120 -50q-68 0 -111 44t-43 116q0 83 54.5 138.5t139.5 55.5q173 0 173 -190q0 -60 -13.5 -121t-41 -118t-77 -93t-113.5 -36q-77 0 -115.5 41.5t-38.5 108.5zM292 782q-51 0 -82 -35t-31 -90q0 -45 26 -71.5t69 -26.5
q53 0 82.5 36t29.5 87q0 49 -25.5 74.5t-68.5 25.5z" />
    <glyph glyph-name="zero.tosf" 
d="M248 71q33 0 59.5 15.5t45 39.5t33.5 62t24 74t18 84q16 91 16 148q0 134 -102 134q-33 0 -59.5 -15.5t-45 -39.5t-33.5 -62t-24 -74t-18 -84q-16 -91 -16 -148q0 -134 102 -134zM355 716q203 0 203 -226q0 -67 -13 -136q-14 -77 -34.5 -136t-55 -115t-90 -86.5
t-128.5 -30.5q-203 0 -203 226q0 67 13 136q13 77 33 136t54.5 115t90.5 86.5t130 30.5z" />
    <glyph glyph-name="one.tosf" 
d="M231 0l93 516h-175l14 74q93 2 141 27.5t68 83.5h87l-127 -701h-101z" />
    <glyph glyph-name="two.tosf" 
d="M5 0l15 88q148 106 302 235q30 26 45.5 40.5t39 42t34.5 56t11 59.5q0 49 -31.5 78t-87.5 29q-64 0 -101 -40t-44 -111h-103q6 104 77 171t186 67q96 0 153.5 -48t57.5 -131q0 -49 -18.5 -95.5t-55 -88t-70 -71.5t-82.5 -67q-21 -17 -52.5 -39t-68.5 -48t-53 -37h321
l-16 -90h-459z" />
    <glyph glyph-name="three.tosf" 
d="M247 340l15 84q164 0 164 117q0 40 -26 62.5t-74 22.5q-98 0 -113 -99h-102q11 88 72 138t160 50q85 0 137 -40t52 -109q0 -68 -41 -115t-103 -64q57 -18 89.5 -60t32.5 -98q0 -106 -72.5 -174.5t-190.5 -68.5q-112 0 -172.5 62t-54.5 153h104q-4 -51 28 -88t102 -37
q69 0 109 43t40 107q0 59 -41.5 86.5t-109.5 27.5h-5z" />
    <glyph glyph-name="four.tosf" 
d="M536 235l-15 -81h-99l-28 -154h-99l28 154h-335l14 75l276 312q134 152 140 160h103l-84 -466h99zM405 573h-2q-2 -3 -27 -34.5t-54.5 -68.5t-47.5 -57l-59 -68q-13 -14 -36.5 -41t-28.5 -32l-32 -37h220l20 112q9 49 19 96.5t18 83.5t10 46z" />
    <glyph glyph-name="five.tosf" 
d="M246 -15q-109 0 -167.5 58.5t-60.5 148.5h102q16 -119 134 -119q71 0 115 50.5t44 122.5q0 61 -36 94.5t-95 33.5q-77 0 -117 -58l-91 15q30 99 106 370h367l-17 -90h-285l-58 -196q58 42 135 42q80 0 138 -49t58 -145q0 -121 -72.5 -199.5t-199.5 -78.5z" />
    <glyph glyph-name="six.tosf" 
d="M566 521h-100q-2 51 -30.5 79.5t-82.5 28.5q-138 0 -200 -251q18 26 62 49t104 23q91 0 148 -55.5t57 -148.5q0 -112 -72 -186t-185 -74q-231 0 -231 244q0 63 10.5 127t35.5 129.5t61 116t93 82t126 31.5q101 0 152.5 -54t51.5 -141zM268 68q68 0 110 50.5t42 121.5
q0 59 -35 94.5t-94 35.5q-72 0 -112 -48.5t-40 -114.5q0 -65 35.5 -102t93.5 -37z" />
    <glyph glyph-name="seven.tosf" 
d="M187 0h-122q41 70 123 197t95 147q118 182 178 265v1q-19 -1 -55 -1h-283l17 92h446l-15 -82q0 -1 -1 -2l-32 -49q-251 -389 -351 -568z" />
    <glyph glyph-name="eight.tosf" 
d="M347 715q90 0 143.5 -44.5t53.5 -113.5q0 -66 -35.5 -112.5t-95.5 -68.5q52 -25 78 -63.5t26 -99.5q0 -105 -73.5 -166t-196.5 -61q-102 0 -166 48.5t-64 136.5q0 75 44 129.5t125 79.5q-72 51 -72 141q0 84 63.5 139t169.5 55zM336 625q-55 0 -90 -30.5t-35 -83.5
q0 -43 28.5 -67.5t78.5 -24.5q55 0 90 31.5t35 83.5q0 40 -29.5 65.5t-77.5 25.5zM281 332q-65 0 -110 -39t-45 -103q0 -56 34.5 -87t95.5 -31q71 0 112.5 39.5t41.5 108.5q0 51 -35 81.5t-94 30.5z" />
    <glyph glyph-name="nine.tosf" 
d="M24 181h100q2 -51 30.5 -80t82.5 -29q136 0 198 254q-21 -27 -63 -49t-101 -22q-90 0 -147.5 57t-57.5 150q0 109 73 181.5t185 72.5q230 0 230 -248q0 -62 -10.5 -126t-35.5 -128.5t-61 -114.5t-93 -81.5t-126 -31.5q-101 0 -152.5 54t-51.5 141zM322 632
q-69 0 -110.5 -47t-41.5 -119q0 -60 34.5 -94.5t94.5 -34.5q72 0 112 47.5t40 114.5q0 64 -35 98.5t-94 34.5z" />
    <glyph glyph-name="zero.slashplf" horiz-adv-x="606" 
d="M371 730q204 0 204 -231q0 -67 -13 -141q-12 -63 -26.5 -112t-39.5 -100t-56.5 -84.5t-78.5 -54.5t-106 -21q-205 0 -205 230q0 69 13 140q10 62 24.5 112t39 100.5t56.5 84.5t80.5 55.5t107.5 21.5zM461 506q0 22 -3 42l-246 -464q21 -12 53 -12q76 0 122 85
q34 61 54 164.5t20 184.5zM359 641q-55 0 -93 -41q-47 -49 -75.5 -170.5t-28.5 -220.5q0 -14 2 -40l246 460q-21 12 -51 12z" />
    <glyph glyph-name="zero.slash" 
d="M356 730q204 0 204 -231q0 -67 -13 -141q-12 -63 -26.5 -112t-39.5 -100t-56.5 -84.5t-78.5 -54.5t-106 -21q-205 0 -205 230q0 69 13 140q10 62 24.5 112t39 100.5t56.5 84.5t80.5 55.5t107.5 21.5zM446 506q0 22 -3 42l-246 -464q21 -12 53 -12q76 0 122 85
q34 61 54 164.5t20 184.5zM344 641q-55 0 -93 -41q-47 -49 -75.5 -170.5t-28.5 -220.5q0 -14 2 -40l246 460q-21 12 -51 12z" />
    <glyph glyph-name="idotaccent" horiz-adv-x="247" 
d="M19 0l93 526h102q-9 -51 -42.5 -236.5t-51.5 -289.5h-101zM124 601l20 114h105l-20 -114h-105z" />
    </font>
</defs>
</svg>
