<?xml version="1.0" standalone="no"?>
<!DOCTYPE svg PUBLIC "-//W3C//DTD SVG 1.1//EN" "http://www.w3.org/Graphics/SVG/1.1/DTD/svg11.dtd" >
<svg>
<metadata>
Created by FontForge 20120731 at Tue Dec 15 21:07:56 2015
 By ,,,
(c)2013 Optimo. wf-rip
</metadata>
<defs>
<font id="Plain-ExtraboldIta" horiz-adv-x="634" >
  <font-face 
    font-family="Plain Extrabold"
    font-weight="800"
    font-style="italic"
    font-stretch="normal"
    units-per-em="1000"
    panose-1="2 11 0 4 2 2 2 2 2 4"
    ascent="803"
    descent="-197"
    x-height="525"
    cap-height="715"
    bbox="-131 -267 1432 1080"
    underline-thickness="50"
    underline-position="-50"
    slope="-10"
    unicode-range="U+000D-FB02"
  />
<missing-glyph horiz-adv-x="644" 
d="M50 240v49l309 309q14 -8 26 -23zM50 142v49l347 347v-15q0 -20 -13.5 -37.5t-41.5 -39.5t-37 -31q-23 -23 -36 -54zM104 0h-49l261 261h49l-93 -93h-23v-23zM321 168l273 273v-49l-224 -224h-49zM50 338v49l148 148l39 -2q0 29 20 52t55 23h8zM398 0h-49l33 33h2v2
l210 210v-49zM384 133l210 210v-49l-210 -210v49zM50 44v49l206 206v-38h11zM50 583l196 196h49l-44 -44q-54 -14 -93 -53.5t-54 -93.5l-54 -54v49zM537 482l57 57v-49l-216 -216v7q0 12 2.5 21t11 18.5t12.5 13.5t21 16t23 16q1 1 10 7.5t14 10.5t14.5 12.5t15.5 16.5
t13.5 18.5t13 23.5t8.5 27zM50 681l98 98h49l-147 -147v49zM496 0h-49l147 147v-49zM459 698l81 81h49l-104 -104q-25 22 -26 23zM50 436v49l56 56l46 -3zM506 647l88 88v-49l-70 -70q-6 13 -18 31zM202 0h-49l96 96v-49zM395 732l47 47h49l-62 -62q-15 8 -34 15zM536 579
l58 58v-49l-52 -52q0 13 -6 43zM307 742l37 37h49l-38 -38q-18 2 -28 2q-2 0 -6.5 -0.5t-6.5 -0.5h-7zM300 0h-49l33 33h49zM594 49v-49h-49zM50 779h49l-49 -49v49z" />
    <glyph glyph-name="fi" unicode="fi" horiz-adv-x="661" 
d="M126 525l3 18q15 95 66.5 138t163.5 43q46 0 76 -7l-24 -129q-10 2 -24 2q-33 0 -50 -13t-22 -46l-1 -6h86l-24 -139h-86l-68 -386h-187l67 386h-63l23 139h64zM468 579l24 136h192l-24 -136h-192zM557 0h-191l92 525h192z" />
    <glyph glyph-name="fl" unicode="fl" horiz-adv-x="665" 
d="M126 525l3 18q15 95 66.5 138t163.5 43q46 0 76 -7l-24 -129q-10 2 -24 2q-33 0 -50 -13t-22 -46l-1 -6h86l-24 -139h-86l-68 -386h-187l67 386h-63l23 139h64zM559 0h-191l126 715h192z" />
    <glyph glyph-name=".notdef" horiz-adv-x="644" 
d="M50 240v49l309 309q14 -8 26 -23zM50 142v49l347 347v-15q0 -20 -13.5 -37.5t-41.5 -39.5t-37 -31q-23 -23 -36 -54zM104 0h-49l261 261h49l-93 -93h-23v-23zM321 168l273 273v-49l-224 -224h-49zM50 338v49l148 148l39 -2q0 29 20 52t55 23h8zM398 0h-49l33 33h2v2
l210 210v-49zM384 133l210 210v-49l-210 -210v49zM50 44v49l206 206v-38h11zM50 583l196 196h49l-44 -44q-54 -14 -93 -53.5t-54 -93.5l-54 -54v49zM537 482l57 57v-49l-216 -216v7q0 12 2.5 21t11 18.5t12.5 13.5t21 16t23 16q1 1 10 7.5t14 10.5t14.5 12.5t15.5 16.5
t13.5 18.5t13 23.5t8.5 27zM50 681l98 98h49l-147 -147v49zM496 0h-49l147 147v-49zM459 698l81 81h49l-104 -104q-25 22 -26 23zM50 436v49l56 56l46 -3zM506 647l88 88v-49l-70 -70q-6 13 -18 31zM202 0h-49l96 96v-49zM395 732l47 47h49l-62 -62q-15 8 -34 15zM536 579
l58 58v-49l-52 -52q0 13 -6 43zM307 742l37 37h49l-38 -38q-18 2 -28 2q-2 0 -6.5 -0.5t-6.5 -0.5h-7zM300 0h-49l33 33h49zM594 49v-49h-49zM50 779h49l-49 -49v49z" />
    <glyph glyph-name=".null" horiz-adv-x="0" 
 />
    <glyph glyph-name="nonmarkingreturn" horiz-adv-x="333" 
 />
    <glyph glyph-name="NULL" horiz-adv-x="0" 
 />
    <glyph glyph-name="NULL" horiz-adv-x="0" 
 />
    <glyph glyph-name="CR" unicode="&#xd;" horiz-adv-x="0" 
 />
    <glyph glyph-name="space" unicode=" " horiz-adv-x="214" 
 />
    <glyph glyph-name="exclam" unicode="!" horiz-adv-x="341" 
d="M236 208h-165q4 30 13.5 112.5t18.5 146t21 134.5l21 114h197l-21 -114q-12 -70 -26.5 -137t-32 -141t-26.5 -115zM237 158l-28 -158h-184l27 158h185z" />
    <glyph glyph-name="quotedbl" unicode="&#x22;" horiz-adv-x="491" 
d="M234 451h-152q0 12 14 123t20 141h178q-17 -94 -60 -264zM458 451h-152q0 12 14 123t20 141h178q-17 -94 -60 -264z" />
    <glyph glyph-name="numbersign" unicode="#" 
d="M175 0h-136l62 202h-86l39 123h86l23 74h-88l40 123h86l60 193h136l-60 -193h78l60 193h135l-60 -193h88l-40 -123h-86l-23 -74h88l-40 -123h-87l-62 -202h-135l62 202h-78zM299 399l-23 -74h78l23 74h-78z" />
    <glyph glyph-name="dollar" unicode="$" 
d="M1 228h206q1 -89 98 -89q47 0 71 18t24 49q0 26 -22 39.5t-77 29.5l-42 12q-108 31 -157.5 79.5t-49.5 126.5q0 91 60 148.5t163 73.5l22 122h185l-23 -128q166 -41 165 -209h-200q-4 78 -87 78q-37 0 -57.5 -15.5t-20.5 -40.5q0 -29 23 -44t86 -36l34 -11
q47 -15 76.5 -27.5t63 -35t50 -56t16.5 -77.5q0 -102 -67 -161.5t-183 -74.5l-22 -128h-185l24 136q-80 21 -127 76t-47 145z" />
    <glyph glyph-name="percent" unicode="%" horiz-adv-x="917" 
d="M228 419q23 0 40 18.5t24 46t10 49t3 38.5q0 59 -45 59q-23 0 -40 -18.5t-24 -46t-10 -49t-3 -38.5q0 -59 45 -59zM212 0l402 715h112l-402 -715h-112zM218 323q-75 0 -115 40t-40 111q0 29 4.5 59t18.5 66t36 63t61 45.5t89 18.5q75 0 115 -40t40 -111q0 -29 -4.5 -59
t-18.5 -66t-36 -63t-61 -45.5t-89 -18.5zM673 83q23 0 40 18.5t24 46t10 49t3 38.5q0 59 -45 59q-23 0 -40 -18.5t-24 -46t-10 -49t-3 -38.5q0 -59 45 -59zM663 -13q-75 0 -115 40t-40 111q0 29 4.5 59t18.5 66t36 63t61 45.5t89 18.5q75 0 115 -40t40 -111q0 -29 -4.5 -59
t-18.5 -66t-36 -63t-61 -45.5t-89 -18.5z" />
    <glyph glyph-name="ampersand" unicode="&#x26;" horiz-adv-x="719" 
d="M692 81l-135 -102q-3 3 -16 18t-29 34.5t-23 27.5q-96 -74 -227 -74q-116 0 -178.5 50t-62.5 144q0 135 179 227l1 1q-60 66 -60 141q0 83 61.5 132t171.5 49q98 0 152 -40.5t54 -108.5q0 -115 -154 -198q61 -70 82 -97q31 51 45 108l166 -8q-14 -59 -43.5 -118.5
t-64.5 -96.5q18 -20 81 -89zM392 164l-111 135q-74 -47 -74 -103q0 -34 24 -53.5t63 -19.5q57 0 98 41zM343 468l13 9q63 41 63 86q0 22 -15.5 34.5t-39.5 12.5q-29 0 -45 -15.5t-16 -40.5q0 -39 40 -86z" />
    <glyph glyph-name="quotesingle" unicode="'" horiz-adv-x="267" 
d="M234 451h-152q0 12 14 123t20 141h178q-17 -94 -60 -264z" />
    <glyph glyph-name="parenleft" unicode="(" horiz-adv-x="347" 
d="M20 234q0 173 100 313t269 205l-32 -184q-79 -50 -125.5 -134.5t-46.5 -187.5q0 -142 75 -223l-32 -180q-95 45 -151.5 153t-56.5 238z" />
    <glyph glyph-name="parenright" unicode=")" horiz-adv-x="346" 
d="M323 361q0 -173 -100 -313.5t-269 -204.5l32 184q79 50 125.5 134.5t46.5 187.5q0 142 -75 223l32 180q95 -45 151.5 -153t56.5 -238z" />
    <glyph glyph-name="asterisk" unicode="*" horiz-adv-x="429" 
d="M214 694v31l142 -25q-7 -16 -11 -29q-4 -10 -12.5 -33t-10.5 -28l61 21l30 10l19 -143q-19 0 -30 1q-56 3 -64 4q2 -3 38 -52q12 -16 18 -25l-130 -62l-8 29q-10 33 -16 62q-2 -3 -38 -52q-12 -16 -18 -25l-99 104l25 17q9 6 54 35q-37 8 -61 18l-29 10l68 127
q16 -12 24 -19q27 -22 49 -41q-1 23 -1 65z" />
    <glyph glyph-name="plus" unicode="+" 
d="M67 255v160h173v174h162v-174h174v-160h-174v-176h-162v176h-173z" />
    <glyph glyph-name="comma" unicode="," horiz-adv-x="301" 
d="M241 166l-141 -255h-164l118 255h187z" />
    <glyph glyph-name="hyphen" unicode="-" horiz-adv-x="401" 
d="M34 219l27 157h303l-27 -157h-303z" />
    <glyph glyph-name="period" unicode="." horiz-adv-x="284" 
d="M-4 0l31 176h185l-31 -176h-185z" />
    <glyph glyph-name="slash" unicode="/" horiz-adv-x="436" 
d="M-54 -105l376 820h166l-375 -820h-167z" />
    <glyph glyph-name="zero" unicode="0" 
d="M291 148q49 0 73.5 47t44.5 155q14 79 14 126q0 93 -66 93q-47 0 -70 -48.5t-45 -170.5q-13 -76 -13 -117q0 -85 62 -85zM379 732q124 0 184 -62.5t60 -172.5q0 -55 -13 -131q-13 -72 -28.5 -125.5t-42.5 -103.5t-62.5 -82t-88 -51t-119.5 -19q-240 0 -240 235
q0 55 13 131q15 90 37 155t60 118.5t98 80.5t142 27z" />
    <glyph glyph-name="one" unicode="1" 
d="M305 453h-190l25 138h27q149 0 203 124h181l-127 -715h-199z" />
    <glyph glyph-name="two" unicode="2" 
d="M543 0h-546l25 156q128 80 266 179q26 18 44.5 33t40 37t33 47.5t11.5 52.5q0 30 -18.5 48t-53.5 18q-81 0 -90 -111h-191q12 130 89 201.5t214 71.5q116 0 182.5 -51.5t66.5 -138.5q0 -172 -195 -301q-96 -63 -144 -87q25 1 112 1h181z" />
    <glyph glyph-name="three" unicode="3" 
d="M21 239h183q0 -3 -0.5 -7t-0.5 -7q0 -42 22.5 -63.5t64.5 -21.5q44 0 71 23.5t27 67.5q0 75 -112 75h-31l24 143h13q132 0 132 80q0 25 -17 38.5t-47 13.5q-72 0 -83 -83h-181q13 110 87.5 172.5t200.5 62.5q111 0 172.5 -46t61.5 -121q0 -64 -32 -109.5t-88 -69.5
q38 -22 64 -59.5t26 -88.5q0 -119 -84.5 -187t-219.5 -68q-119 0 -188 54.5t-69 152.5q0 28 4 48z" />
    <glyph glyph-name="four" unicode="4" 
d="M602 281l-27 -152h-74l-23 -129h-180l23 129h-337l26 152l369 434h226l-77 -434h74zM207 301l-20 -21q24 1 72 1h83l25 143l21 108h-1q-70 -97 -85 -116l-57 -70q-16 -21 -38 -45z" />
    <glyph glyph-name="five" unicode="5" 
d="M232 275l-175 28l112 412h447l-27 -152h-294l-31 -108q47 30 116 30q91 0 148.5 -54.5t57.5 -150.5q0 -134 -82.5 -214t-222.5 -80q-121 0 -189.5 64t-69.5 177h196q0 -39 21.5 -62t60.5 -23q45 0 70.5 29.5t25.5 75.5q0 38 -22 58.5t-59 20.5q-57 0 -83 -51z" />
    <glyph glyph-name="six" unicode="6" 
d="M625 523h-188q-6 59 -69 59q-48 0 -75 -41t-40 -114h2q51 40 132 40q92 0 148 -52.5t56 -149.5q0 -123 -82 -201.5t-216 -78.5q-125 0 -194 60.5t-69 178.5q0 106 35 222q41 142 120 214.5t205 72.5q115 0 175 -60t60 -150zM317 322q-45 0 -71.5 -28t-26.5 -71
q0 -41 24 -61.5t65 -20.5q43 0 69 28t26 72q0 38 -23.5 59.5t-62.5 21.5z" />
    <glyph glyph-name="seven" unicode="7" 
d="M281 0h-217q123 255 353 553q-1 0 -1 1q-29 -2 -121 -2h-195l30 163h528l-27 -152q-159 -185 -350 -563z" />
    <glyph glyph-name="eight" unicode="8" 
d="M274 -15q-122 0 -189 52t-67 141q0 73 42 125.5t106 78.5q-30 22 -49.5 57.5t-19.5 78.5q0 93 72.5 153.5t198.5 60.5q116 0 178 -48t62 -123q0 -122 -120 -178q93 -47 93 -151q0 -118 -84.5 -182.5t-222.5 -64.5zM311 310q-44 0 -73.5 -24.5t-29.5 -67.5q0 -38 24 -59
t63 -21q48 0 75.5 26t27.5 71q0 34 -24.5 54.5t-62.5 20.5zM358 584q-37 0 -62 -20.5t-25 -55.5q0 -29 19.5 -45.5t52.5 -16.5q39 0 62.5 21.5t23.5 57.5q0 27 -20 43t-51 16z" />
    <glyph glyph-name="nine" unicode="9" 
d="M28 196h187q11 -59 71 -59q49 0 75 40t39 115h-2q-51 -40 -132 -40q-93 0 -148.5 53t-55.5 152q0 119 82.5 197.5t216.5 78.5q127 0 194.5 -61t67.5 -180q0 -104 -35 -220q-41 -142 -120 -214.5t-205 -72.5q-115 0 -175 60.5t-60 150.5zM336 398q45 0 71.5 28t26.5 71
q0 40 -24 60.5t-65 20.5q-43 0 -69 -27.5t-26 -71.5q0 -38 23.5 -59.5t62.5 -21.5z" />
    <glyph glyph-name="colon" unicode=":" horiz-adv-x="284" 
d="M-5 0l31 176h185l-31 -176h-185zM51 314l31 176h185l-31 -176h-185z" />
    <glyph glyph-name="semicolon" unicode=";" horiz-adv-x="315" 
d="M67 314l31 176h185l-31 -176h-185zM249 166l-141 -255h-164l118 255h187z" />
    <glyph glyph-name="less" unicode="&#x3c;" 
d="M516 625v-180l-250 -107v-3l250 -108v-182l-435 230v118z" />
    <glyph glyph-name="equal" unicode="=" 
d="M69 164v151h498v-151h-498zM69 357v150h498v-150h-498z" />
    <glyph glyph-name="greater" unicode="&#x3e;" 
d="M128 445v180l435 -232v-118l-435 -230v182l250 108v3z" />
    <glyph glyph-name="question" unicode="?" horiz-adv-x="582" 
d="M244 488h-182q9 109 86 177t208 68q115 0 177.5 -46t62.5 -123q0 -66 -33 -117t-99 -99l-14 -10q-41 -30 -52 -39.5t-25 -32t-19 -55.5h-176q14 72 40 111t85 85l32 24q34 25 50.5 45.5t16.5 47.5q0 25 -17 40t-51 15q-82 0 -90 -91zM351 158l-28 -158h-185l28 158h185z
" />
    <glyph glyph-name="at" unicode="@" horiz-adv-x="809" 
d="M545 536h105l-60 -238q-9 -32 -9 -42q-1 -7 2.5 -10t11.5 -3q40 0 71.5 54t31.5 127q0 98 -65.5 157t-176.5 59q-129 0 -219.5 -88t-90.5 -223q0 -117 76.5 -190.5t199.5 -73.5q114 0 218 64l53 -63q-127 -92 -283 -92q-170 0 -269 96.5t-99 250.5q0 174 120.5 292
t298.5 118q147 0 240.5 -82.5t93.5 -209.5q0 -120 -67.5 -204.5t-161.5 -84.5q-58 0 -79 38q-49 -42 -115 -42q-70 0 -113.5 44.5t-43.5 118.5q0 95 60.5 169.5t152.5 74.5q76 0 109 -47zM429 451q-48 0 -74 -38.5t-26 -87.5q0 -39 20.5 -59t53.5 -20q45 0 72 41t27 94
q0 33 -20 51.5t-53 18.5z" />
    <glyph glyph-name="A" unicode="A" horiz-adv-x="736" 
d="M143 0h-211q167 318 390 715h244q8 -46 134 -715h-204q-11 52 -27 151h-246zM300 305h146q-19 132 -29 256h-3q-75 -180 -114 -256z" />
    <glyph glyph-name="B" unicode="B" horiz-adv-x="686" 
d="M6 0l126 715h262q103 0 152 -10q131 -30 131 -140q0 -72 -45 -122t-117 -62q55 -14 92.5 -50t37.5 -98q0 -51 -23.5 -99.5t-66.5 -78.5q-78 -55 -232 -55h-317zM235 154h58q83 0 110 21q29 23 29 62q0 59 -93 59h-78zM284 433h58q72 0 97 19t25 58q0 31 -21.5 40.5
t-68.5 9.5h-67z" />
    <glyph glyph-name="C" unicode="C" horiz-adv-x="782" 
d="M792 477h-212q-31 99 -140 99q-50 0 -88.5 -23t-60.5 -61.5t-33 -83.5t-11 -93q0 -81 37 -126.5t110 -45.5q94 0 147 82h220q-46 -110 -143 -174t-242 -64q-156 0 -250 84t-94 232q0 119 48 214.5t144 153t225 57.5q148 0 236 -65.5t107 -185.5z" />
    <glyph glyph-name="D" unicode="D" horiz-adv-x="775" 
d="M761 416q0 -100 -41 -192t-121 -149q-65 -46 -137.5 -60.5t-186.5 -14.5h-269l126 715h229q96 0 165.5 -10.5t121.5 -46.5q113 -75 113 -242zM462 202q81 56 81 197q0 156 -175 156h-57l-69 -394h58q105 0 162 41z" />
    <glyph glyph-name="E" unicode="E" horiz-adv-x="608" 
d="M261 280l-21 -118h305l-29 -162h-510l126 715h507l-29 -162h-301l-20 -111h276l-28 -162h-276z" />
    <glyph glyph-name="F" unicode="F" horiz-adv-x="589" 
d="M211 0h-205l126 715h501l-29 -162h-295l-20 -111h272l-28 -162h-272z" />
    <glyph glyph-name="G" unicode="G" horiz-adv-x="806" 
d="M793 477h-212q-31 99 -140 99q-50 0 -88.5 -23t-60.5 -61.5t-33 -83.5t-11 -93q0 -80 39.5 -127t112.5 -47q120 0 165 109q-24 -2 -88 -2h-112l27 154h394l-71 -402h-173l12 59q-88 -71 -209 -71q-139 0 -225.5 86.5t-86.5 236.5q0 178 112.5 297.5t304.5 119.5
q148 0 236 -65.5t107 -185.5z" />
    <glyph glyph-name="H" unicode="H" horiz-adv-x="758" 
d="M214 0h-208l126 715h209l-47 -264h221l47 264h208l-127 -715h-208l50 282h-221z" />
    <glyph glyph-name="I" unicode="I" horiz-adv-x="329" 
d="M341 715l-127 -715h-208l126 715h209z" />
    <glyph glyph-name="J" unicode="J" horiz-adv-x="556" 
d="M201 -15q-108 0 -163.5 44.5t-55.5 129.5q0 11 2 33h181v-6q0 -48 46 -48q29 0 44 25t27 87l82 465h209l-84 -475q-24 -134 -94 -194.5t-194 -60.5z" />
    <glyph glyph-name="K" unicode="K" horiz-adv-x="732" 
d="M214 0h-208l126 715h209l-54 -307h2q12 13 276 307h256q-62 -64 -181 -181t-159 -158q23 -38 100.5 -178t112.5 -198h-242q-137 274 -173 352h-2z" />
    <glyph glyph-name="L" unicode="L" horiz-adv-x="579" 
d="M132 715h209l-98 -553h298l-29 -162h-506z" />
    <glyph glyph-name="M" unicode="M" horiz-adv-x="970" 
d="M6 0l126 715h319l7 -201q8 -243 8 -303h3q78 220 113 308l79 196h321l-127 -715h-195l50 283q24 144 50 253h-4q-67 -175 -92 -235l-128 -301h-209l-24 300q-7 81 -9 236h-4q-19 -130 -39 -250l-51 -286h-194z" />
    <glyph glyph-name="N" unicode="N" horiz-adv-x="772" 
d="M784 715l-127 -715h-260l-78 282q-26 94 -39 196h-3q-10 -88 -33 -207l-48 -271h-190l126 715h269l57 -223q29 -107 54 -243l2 1h2q10 87 32 210l45 255h191z" />
    <glyph glyph-name="O" unicode="O" horiz-adv-x="821" 
d="M458 728q163 0 255.5 -82.5t92.5 -228.5q0 -123 -46.5 -218.5t-144.5 -153.5t-236 -58q-158 0 -252 83.5t-94 232.5q0 119 47.5 214t145.5 153t232 58zM397 143q66 0 112 41.5t64.5 99.5t18.5 125q0 76 -38 121.5t-111 45.5q-66 0 -111.5 -40.5t-64.5 -97.5t-19 -123
q0 -81 37 -126.5t112 -45.5z" />
    <glyph glyph-name="P" unicode="P" horiz-adv-x="657" 
d="M672 520q0 -110 -59 -181q-82 -102 -252 -102h-104l-42 -237h-209l126 715h272q120 0 179 -33q89 -52 89 -162zM285 397h61q51 0 82 16q42 23 42 79q0 65 -99 65h-58z" />
    <glyph glyph-name="Q" unicode="Q" horiz-adv-x="821" 
d="M458 728q163 0 255.5 -82.5t92.5 -228.5q0 -227 -150 -345l92 -122h-213l-38 50q-59 -13 -118 -13q-158 0 -252 83.5t-94 232.5q0 119 47.5 214t145.5 153t232 58zM298 258l218 3l27 -39q49 71 49 187q0 76 -38 121.5t-111 45.5q-66 0 -111.5 -40.5t-64.5 -97.5t-19 -123
q0 -79 35 -125t105 -49z" />
    <glyph glyph-name="R" unicode="R" horiz-adv-x="677" 
d="M6 0l127 715h283q75 0 121 -8.5t80 -34.5q66 -48 66 -140q0 -93 -50 -159t-134 -93l127 -280h-230l-99 252h-43l-44 -252h-204zM308 559l-27 -153h70q119 0 119 88q0 37 -23 51t-74 14h-65z" />
    <glyph glyph-name="S" unicode="S" horiz-adv-x="651" 
d="M12 225h206q1 -90 98 -90q47 0 71 18.5t24 49.5q0 27 -21.5 40.5t-77.5 29.5l-42 13q-108 31 -157.5 80.5t-49.5 129.5q0 109 82 170.5t214 61.5q135 0 205 -57t71 -168h-200q-4 80 -87 80q-37 0 -57.5 -16t-20.5 -42q0 -29 23.5 -45t85.5 -36l34 -11q36 -11 61 -21
t54.5 -27t48 -37t30.5 -49.5t12 -65.5q0 -120 -87.5 -183t-234.5 -63q-124 0 -204.5 58.5t-80.5 179.5z" />
    <glyph glyph-name="T" unicode="T" horiz-adv-x="601" 
d="M350 0h-208l97 550h-182l30 165h572l-30 -165h-182z" />
    <glyph glyph-name="U" unicode="U" horiz-adv-x="735" 
d="M754 715l-76 -430q-27 -155 -111 -227.5t-256 -72.5q-269 0 -269 229q0 38 11 99l71 402h208l-74 -416q-6 -30 -6 -56q0 -95 93 -95q56 0 85 33.5t42 109.5l75 424h207z" />
    <glyph glyph-name="V" unicode="V" horiz-adv-x="709" 
d="M423 0h-254q-50 293 -108 715h203l28 -235q28 -223 32 -311h3q85 198 146 323l108 223h211q-28 -57 -76 -150t-96.5 -187t-93 -179t-73.5 -141t-30 -58z" />
    <glyph glyph-name="W" unicode="W" horiz-adv-x="1053" 
d="M1119 715l-273 -715h-289l6 331q0 91 7 185h-5q-21 -86 -58 -185l-116 -331h-293l-18 715h213l-7 -346q-1 -76 -8 -189h5q15 52 74 224l111 311h273l-3 -297q0 -159 -8 -234h5q28 105 58 187l122 344h204z" />
    <glyph glyph-name="X" unicode="X" horiz-adv-x="685" 
d="M761 715l-285 -346l172 -369h-240l-43 109q-34 91 -36 97h-2q-35 -53 -75 -107l-74 -99h-251l310 373l-162 342h236l27 -74q7 -19 14.5 -38.5t16.5 -42.5t14 -36h3q46 71 67 97l68 94h240z" />
    <glyph glyph-name="Y" unicode="Y" horiz-adv-x="641" 
d="M507 715h216q-18 -28 -84 -122t-100 -144l-126 -181l-48 -268h-208l48 268q-9 30 -27 85.5t-25 77.5q-17 54 -53 161.5t-41 122.5h208q52 -197 71 -280h2q75 133 167 280z" />
    <glyph glyph-name="Z" unicode="Z" horiz-adv-x="628" 
d="M-21 0l28 157l293 303l91 92q-1 1 -1 2q-45 -3 -121 -3h-188l29 164h547l-28 -159l-240 -253q-105 -110 -137 -142v-2q48 3 121 3h201l-29 -162h-566z" />
    <glyph glyph-name="bracketleft" unicode="[" horiz-adv-x="363" 
d="M281 -5l-19 -108h-260l144 828h261l-18 -107h-98l-108 -613h98z" />
    <glyph glyph-name="backslash" unicode="\" horiz-adv-x="550" 
d="M256 715l203 -820h-168l-201 820h166z" />
    <glyph glyph-name="bracketright" unicode="]" horiz-adv-x="363" 
d="M-46 -113l19 108h97l108 613h-98l18 107h261l-145 -828h-260z" />
    <glyph glyph-name="asciicircum" unicode="^" 
d="M260 684h113q26 -50 93.5 -185.5t107.5 -210.5h-168q-45 97 -87 191h-3q-56 -126 -89 -191h-167q40 74 106.5 209t93.5 187z" />
    <glyph glyph-name="underscore" unicode="_" horiz-adv-x="566" 
d="M-38 -166l22 127h476l-23 -127h-475z" />
    <glyph glyph-name="grave" unicode="`" horiz-adv-x="257" 
d="M364 587h-191l-150 128h233z" />
    <glyph glyph-name="a" unicode="a" horiz-adv-x="578" 
d="M493 0h-168q2 26 6 53h-2q-74 -63 -170 -63q-76 0 -122 35t-46 101q0 134 198 178q81 17 173 24q3 12 3 26q0 62 -64 62q-61 0 -76 -62h-176q21 89 91 137.5t183 48.5q98 0 158 -40.5t60 -126.5q0 -38 -7 -79l-25 -138q-20 -102 -16 -156zM345 225l-35 -4
q-76 -9 -108 -25t-32 -49q0 -51 62 -51q90 0 110 114z" />
    <glyph glyph-name="b" unicode="b" horiz-adv-x="646" 
d="M181 0h-185l125 715h193l-24 -133q-3 -13 -10 -51t-11 -57h1q54 65 150 65q89 0 143 -61.5t54 -161.5q0 -61 -17.5 -119t-50 -105.5t-85.5 -76t-118 -28.5q-58 0 -98.5 22.5t-56.5 55.5q-1 -7 -5 -32t-5 -33zM304 124q54 0 84.5 51t30.5 121q0 50 -21.5 79.5t-64.5 29.5
q-54 0 -85.5 -50t-31.5 -116q0 -115 88 -115z" />
    <glyph glyph-name="c" unicode="c" horiz-adv-x="617" 
d="M389 192h198q-63 -208 -300 -208q-120 0 -196 63.5t-76 184.5q0 133 82.5 220.5t234.5 87.5q114 0 184.5 -54.5t82.5 -152.5h-192q-12 72 -81 72q-56 0 -86 -49.5t-30 -116.5q0 -115 87 -115q60 0 92 68z" />
    <glyph glyph-name="d" unicode="d" horiz-adv-x="646" 
d="M542 0h-190l10 52h-1q-54 -65 -150 -65q-89 0 -143 61.5t-54 161.5q0 83 29 156.5t92 123t148 49.5q54 0 92.5 -19t57.5 -48l6 34q7 44 12 71l25 138h193zM327 402q-54 0 -84.5 -51t-30.5 -121q0 -50 21.5 -79.5t64.5 -29.5q54 0 85.5 50t31.5 116q0 115 -88 115z" />
    <glyph glyph-name="e" unicode="e" horiz-adv-x="620" 
d="M382 170h198q-31 -87 -105.5 -136t-191.5 -49q-122 0 -195 64.5t-73 184.5q0 130 81 218t228 88q126 0 199.5 -69t73.5 -186q0 -28 -8 -65h-388q0 -50 24.5 -75.5t67.5 -25.5q66 0 89 51zM315 412q-44 0 -71.5 -24t-34.5 -63h200q-2 40 -27.5 63.5t-66.5 23.5z" />
    <glyph glyph-name="f" unicode="f" horiz-adv-x="372" 
d="M126 525l3 18q15 95 66.5 138t163.5 43q46 0 76 -7l-24 -129q-10 2 -24 2q-33 0 -50 -13t-22 -46l-1 -6h86l-24 -139h-86l-68 -386h-187l67 386h-63l23 139h64z" />
    <glyph glyph-name="g" unicode="g" horiz-adv-x="643" 
d="M-12 -6h185q2 -32 22.5 -48t54.5 -16q55 0 81 34.5t36 113.5h-2q-61 -56 -143 -56q-92 0 -147.5 61t-55.5 167q0 51 16.5 101.5t47 93t80 69t110.5 26.5q56 0 98.5 -22t61.5 -53q7 50 9 60h190l-85 -475q-23 -131 -99.5 -188t-209.5 -57q-119 0 -183.5 50.5t-66.5 138.5z
M327 403q-50 0 -79.5 -47t-29.5 -109q0 -99 83 -99q51 0 80.5 45.5t29.5 104.5q0 105 -84 105z" />
    <glyph glyph-name="h" unicode="h" horiz-adv-x="633" 
d="M188 0h-192l127 715h192l-23 -127q-2 -11 -15 -83q-3 -13 -7 -37q66 69 165 69q79 0 120.5 -42.5t41.5 -113.5q0 -32 -14 -110l-48 -271h-192l45 253q7 47 7 67q0 69 -61 69q-43 0 -66 -32t-35 -103z" />
    <glyph glyph-name="i" unicode="i" horiz-adv-x="291" 
d="M98 579l24 136h192l-24 -136h-192zM187 0h-191l92 525h192z" />
    <glyph glyph-name="j" unicode="j" horiz-adv-x="292" 
d="M281 525l-93 -527q-20 -109 -71.5 -149.5t-159.5 -40.5q-64 0 -88 6l22 128q8 -1 17 -1q44 0 63.5 17.5t27.5 61.5l90 505h192zM98 579l24 136h192l-24 -136h-192z" />
    <glyph glyph-name="k" unicode="k" horiz-adv-x="628" 
d="M187 0h-191l126 715h192l-74 -413h1q25 25 98 111t93 112h235q-54 -54 -143.5 -147t-97.5 -101q52 -95 162 -277h-237q-105 218 -118 251h-1z" />
    <glyph glyph-name="l" unicode="l" horiz-adv-x="294" 
d="M188 0h-191l126 715h192z" />
    <glyph glyph-name="m" unicode="m" horiz-adv-x="974" 
d="M532 0h-192l45 253q7 47 7 67q0 69 -60 69q-41 0 -64 -32.5t-35 -102.5l-45 -254h-192l93 525h184l-13 -67h1q66 79 172 79q110 0 147 -82h1q75 82 192 82q82 0 123.5 -42.5t41.5 -113.5q0 -32 -14 -110l-48 -271h-192l45 253q7 47 7 67q0 69 -60 69q-41 0 -64 -32.5
t-35 -102.5z" />
    <glyph glyph-name="n" unicode="n" horiz-adv-x="633" 
d="M188 0h-192l93 525h184l-6 -33q-5 -25 -7 -34h1q66 79 174 79q79 0 120.5 -42.5t41.5 -113.5q0 -32 -14 -110l-48 -271h-192l45 253q7 47 7 67q0 69 -61 69q-43 0 -66 -32t-35 -103z" />
    <glyph glyph-name="o" unicode="o" horiz-adv-x="641" 
d="M298 124q54 0 84.5 51t30.5 121q0 50 -21.5 79.5t-64.5 29.5q-54 0 -85.5 -50t-31.5 -116q0 -115 88 -115zM338 540q125 0 199 -64t74 -179q0 -138 -83.5 -225.5t-239.5 -87.5q-123 0 -198 63t-75 184q0 133 84 221t239 88z" />
    <glyph glyph-name="p" unicode="p" horiz-adv-x="646" 
d="M88 525h187l-12 -58h1q54 72 156 72q89 0 143 -61.5t54 -161.5q0 -61 -17.5 -119t-50 -105.5t-85.5 -76t-118 -28.5q-53 0 -91.5 19t-57.5 48l-7 -41q-13 -83 -15 -91l-19 -102h-191zM304 124q54 0 84.5 51t30.5 121q0 50 -21.5 79.5t-64.5 29.5q-54 0 -85.5 -50
t-31.5 -116q0 -115 88 -115z" />
    <glyph glyph-name="q" unicode="q" horiz-adv-x="646" 
d="M509 -180h-193l20 112q4 24 15 76l9 43q-54 -64 -149 -64q-89 0 -143 61.5t-54 161.5q0 83 29 156.5t92 123t148 49.5q54 0 93.5 -20t58.5 -50l3 17q2 6 3.5 19t2.5 20h191zM327 402q-54 0 -84.5 -51t-30.5 -121q0 -50 21.5 -79.5t64.5 -29.5q54 0 85.5 50t31.5 116
q0 115 -88 115z" />
    <glyph glyph-name="r" unicode="r" horiz-adv-x="423" 
d="M-4 0l76 430q5 24 16 95h178q-4 -18 -8.5 -43t-5.5 -31h2q24 39 68.5 63t98.5 24q15 0 29 -2l-30 -168q-15 4 -40 4q-81 0 -112 -48t-53 -178l-26 -146h-193z" />
    <glyph glyph-name="s" unicode="s" horiz-adv-x="562" 
d="M-1 175h183q0 -70 79 -70q36 0 54 13t18 32q0 17 -17.5 26.5t-65.5 21.5l-56 14q-81 21 -119.5 56.5t-38.5 99.5q0 83 70.5 129.5t191.5 46.5q113 0 173 -44.5t61 -131.5h-172q-6 54 -75 54q-65 0 -65 -38q0 -16 15 -25t62 -21l45 -12q92 -24 135.5 -60.5t43.5 -93.5
q0 -91 -73 -139.5t-202 -48.5q-243 0 -247 191z" />
    <glyph glyph-name="t" unicode="t" horiz-adv-x="389" 
d="M98 386h-75l24 139h75l25 142h192l-25 -142h88l-24 -139h-88l-23 -131q-11 -58 -11 -84q0 -24 10 -33.5t36 -9.5q10 0 25 3l-24 -136q-35 -7 -88 -7q-88 0 -127 20t-39 84q0 24 8 70z" />
    <glyph glyph-name="u" unicode="u" horiz-adv-x="628" 
d="M425 525h192l-93 -525h-184l6 33q5 25 7 34h-1q-65 -78 -171 -78q-78 0 -119 42.5t-41 113.5q0 32 14 110l48 270h192l-45 -252q-7 -47 -7 -67q0 -70 60 -70q41 0 63 32t34 103z" />
    <glyph glyph-name="v" unicode="v" horiz-adv-x="576" 
d="M338 0h-212q-14 83 -45.5 258.5t-46.5 266.5h199q23 -257 29 -346h3q79 192 152 346h201q-48 -92 -142 -266.5t-138 -258.5z" />
    <glyph glyph-name="w" unicode="w" horiz-adv-x="880" 
d="M313 0h-217q-10 92 -28.5 269t-27.5 256h187l8 -172q3 -67 3 -179h3q22 65 72 190l64 161h194l8 -163q4 -82 6 -188h2q30 81 71 187l64 164h193q-42 -92 -123.5 -266.5t-119.5 -258.5h-218l-10 141q-5 71 -5 166h-3q-35 -99 -63 -165z" />
    <glyph glyph-name="x" unicode="x" horiz-adv-x="570" 
d="M-56 0l226 268l-136 257h203l63 -139q13 17 47.5 62.5t56.5 76.5h201q-33 -42 -113.5 -136.5t-106.5 -126.5q18 -32 140 -262h-204q-59 129 -63 138q-15 -19 -47 -64.5t-55 -73.5h-212z" />
    <glyph glyph-name="y" unicode="y" horiz-adv-x="576" 
d="M413 525h204q-178 -333 -379 -705h-192q7 13 47 82t52 95q-17 79 -58 261t-60 267h201q26 -182 41 -312h5q83 197 139 312z" />
    <glyph glyph-name="z" unicode="z" horiz-adv-x="548" 
d="M-22 0l23 134q138 119 291 253v1q-29 -2 -125 -2h-118l25 139h471l-24 -134q-93 -88 -287 -252v-1q90 2 133 2h125l-25 -140h-489z" />
    <glyph glyph-name="braceleft" unicode="{" horiz-adv-x="350" 
d="M19 269l16 92q37 4 55.5 25t27.5 78l23 129q12 72 46 99t116 27q50 0 85 -1l-18 -102q-37 -2 -52.5 -18t-23.5 -63l-18 -103q-7 -40 -15 -63.5t-22.5 -36t-25 -17t-35.5 -10.5l-1 -2q34 -16 46 -30t12 -46q0 -20 -8 -70l-16 -94q-4 -17 -4 -37q0 -23 11.5 -31t40.5 -10
l-18 -102q-10 -1 -85 -1q-69 0 -96 17t-27 61q0 16 5 48l27 152q5 32 5 46q0 29 -11.5 41.5t-39.5 21.5z" />
    <glyph glyph-name="bar" unicode="|" horiz-adv-x="312" 
d="M11 -62l139 793h161l-139 -793h-161z" />
    <glyph glyph-name="braceright" unicode="}" horiz-adv-x="349" 
d="M329 335l-16 -92q-37 -4 -55.5 -25t-27.5 -78l-24 -133q-12 -72 -46 -99t-116 -27q-50 0 -85 1l18 102q37 2 52.5 18t23.5 63l18 103q7 40 15 63.5t22.5 36t25 17t35.5 10.5l1 2q-34 16 -46 30t-12 46q0 20 8 70l16 94q4 17 4 37q0 23 -11.5 31t-40.5 10l18 102
q10 1 85 1q68 0 95.5 -17.5t27.5 -60.5q0 -16 -5 -48l-26 -148q-5 -32 -5 -46q0 -29 11.5 -41.5t39.5 -21.5z" />
    <glyph glyph-name="asciitilde" unicode="~" 
d="M417 372q41 0 74 61l100 -74q-29 -60 -75.5 -99t-96.5 -39q-45 0 -113 33l-20 10q-44 21 -63 21q-41 0 -74 -61l-100 74q29 60 75.5 99t96.5 39q45 0 113 -33l20 -10q44 -21 63 -21z" />
    <glyph glyph-name="uni00A0" unicode="&#xa0;" horiz-adv-x="214" 
 />
    <glyph glyph-name="exclamdown" unicode="&#xa1;" horiz-adv-x="324" 
d="M81 315h166q-39 -309 -54 -396l-21 -115h-198l21 115q9 56 21 113.5t20.5 95t23 97t21.5 90.5zM80 366l28 159h185l-27 -159h-186z" />
    <glyph glyph-name="cent" unicode="&#xa2;" 
d="M395 192h198q-24 -87 -88.5 -142t-167.5 -64l-12 -68h-145l14 79q-80 22 -126.5 81.5t-46.5 153.5q0 120 69.5 205t198.5 100l16 85h145l-17 -94q154 -42 172 -195h-192q-4 22 -16 41l-42 -235q22 16 40 53zM216 239q0 -51 17 -79l40 228q-57 -45 -57 -149z" />
    <glyph glyph-name="sterling" unicode="&#xa3;" 
d="M623 515l-180 -1q-4 64 -67 64q-36 0 -52.5 -24t-16.5 -57q0 -32 8 -58h164l-16 -135h-118q12 -39 12 -68q0 -60 -41 -101h249l-17 -135h-519l16 125q66 10 98 38t32 82q0 22 -8 59h-126l16 132h72q-5 32 -5 60q0 107 72.5 172t191.5 65q107 0 171 -49t64 -152v-17z" />
    <glyph glyph-name="currency" unicode="&#xa4;" 
d="M493 72l-54 54q-51 -25 -111 -25t-111 25l-55 -55l-124 124l56 56q-23 51 -23 107q0 60 25 111l-58 58l124 124l58 -59q53 24 108 24q56 0 107 -24l58 58l124 -124l-57 -57q26 -54 26 -111q0 -55 -24 -108l55 -54zM215 358q0 -47 33 -80t80 -33t80.5 33t33.5 80
t-33.5 80.5t-80.5 33.5t-80 -33.5t-33 -80.5z" />
    <glyph glyph-name="yen" unicode="&#xa5;" 
d="M504 715h216l-158 -229h54l-23 -133h-124l-44 -64h156l-23 -133h-168l-28 -156h-208l28 156h-161l23 133h151q-2 8 -9 29.5t-11 34.5h-119l23 133h53l-76 229h208q52 -197 71 -280h2q75 133 167 280z" />
    <glyph glyph-name="brokenbar" unicode="&#xa6;" horiz-adv-x="271" 
d="M76 428l53 303h162l-53 -303h-162zM-10 -62l53 303h162l-53 -303h-162z" />
    <glyph glyph-name="section" unicode="&#xa7;" 
d="M16 87h182q2 -70 79 -70q35 0 54 12t19 31q0 18 -17 27.5t-73 29.5l-71 25q-73 25 -108 63t-35 97q0 57 32 91.5t78 48.5v2q-49 41 -49 111q0 80 68.5 127t190.5 47q118 0 177.5 -45.5t59.5 -130.5h-172q-6 54 -75 54q-65 0 -65 -37q0 -5 1 -9.5t3.5 -8t5 -6t8 -5.5t9 -5
t12.5 -4.5t13.5 -4t16 -5t17.5 -5.5l35 -11q42 -13 69.5 -24.5t55.5 -30.5t41.5 -47t13.5 -64q0 -58 -30.5 -98.5t-74.5 -56.5q51 -41 51 -104q0 -90 -72.5 -137.5t-205.5 -47.5q-234 0 -244 191zM295 279l81 -32q16 4 28.5 18t12.5 33q0 18 -16 30t-57 28l-86 32
q-16 -2 -28 -15t-12 -32q0 -20 15 -31.5t62 -30.5z" />
    <glyph glyph-name="dieresis" unicode="&#xa8;" horiz-adv-x="491" 
d="M101 587l23 128h144l-23 -128h-144zM299 587l23 128h143l-23 -128h-143z" />
    <glyph glyph-name="copyright" unicode="&#xa9;" horiz-adv-x="830" 
d="M801 360q0 -158 -110 -267.5t-268 -109.5q-156 0 -265.5 110t-109.5 267t109.5 266.5t267.5 109.5q156 0 266 -110t110 -266zM726 360q0 125 -89 214.5t-212 89.5q-126 0 -213.5 -89t-87.5 -215t87.5 -216t212.5 -90q124 0 213 90t89 216zM511 277h132
q-20 -69 -77 -106.5t-143 -37.5q-102 0 -164.5 60.5t-62.5 163.5q0 102 63.5 163.5t166.5 61.5q174 0 217 -152h-128q-24 60 -89 60q-50 0 -75.5 -35t-25.5 -97q0 -61 25.5 -95.5t75.5 -34.5q60 0 85 49z" />
    <glyph glyph-name="ordfeminine" unicode="&#xaa;" horiz-adv-x="468" 
d="M425 179h-128l3 38q-54 -45 -125 -45q-59 0 -93 26t-34 76q0 100 149 134q59 13 128 18q2 14 2 19q0 45 -47 45q-43 0 -55 -46h-134q15 67 68 103.5t138 36.5q74 0 119 -30t45 -95q0 -27 -5 -59l-19 -104q-15 -89 -12 -117zM312 347l-25 -3q-56 -7 -79.5 -19t-23.5 -36
q0 -37 45 -37q30 0 51.5 21t29.5 64q0 1 1 5t1 5z" />
    <glyph glyph-name="guillemotleft" unicode="&#xab;" horiz-adv-x="584" 
d="M338 473l-135 -187l67 -188h-166l-80 188l139 187h175zM579 473l-135 -187l67 -188h-166l-80 188l139 187h175z" />
    <glyph glyph-name="logicalnot" unicode="&#xac;" 
d="M61 320v160h505v-342h-165v182h-340z" />
    <glyph glyph-name="uni00AD" unicode="&#xad;" horiz-adv-x="401" 
d="M34 219l27 157h303l-27 -157h-303z" />
    <glyph glyph-name="registered" unicode="&#xae;" horiz-adv-x="536" 
d="M535 501q0 -97 -68.5 -165.5t-165.5 -68.5q-96 0 -164.5 68.5t-68.5 165.5t68 165.5t166 68.5q96 0 164.5 -68.5t68.5 -165.5zM485 501q0 77 -53.5 131.5t-129.5 54.5t-130 -54.5t-54 -131.5q0 -76 54 -131.5t129 -55.5q76 0 130 54.5t54 132.5zM272 459v-90h-81v265h116
q52 0 73 -16q31 -21 31 -65q0 -58 -51 -79l68 -105h-94l-52 90h-10zM272 571v-47h21q35 0 35 24q0 23 -37 23h-19z" />
    <glyph glyph-name="macron" unicode="&#xaf;" horiz-adv-x="428" 
d="M70 597l19 110h273l-19 -110h-273z" />
    <glyph glyph-name="degree" unicode="&#xb0;" horiz-adv-x="389" 
d="M239 400q-70 0 -118.5 47.5t-48.5 116.5q0 70 48.5 117.5t118.5 47.5t118 -47.5t48 -117.5t-47.5 -117t-118.5 -47zM178 564q0 -26 17.5 -43t43.5 -17t43 17t17 43q0 27 -17 44t-43 17t-43.5 -17t-17.5 -44z" />
    <glyph glyph-name="plusminus" unicode="&#xb1;" 
d="M60 0v157h498v-157h-498zM55 314v160h173v126h162v-126h174v-160h-174v-124h-162v124h-173z" />
    <glyph glyph-name="twosuperior" unicode="&#xb2;" horiz-adv-x="426" 
d="M376 277h-330l15 99q130 86 163 110q78 53 78 100q0 36 -40 36q-48 0 -53 -65h-122q8 82 55.5 127t130.5 45q74 0 115 -33.5t41 -88.5q0 -104 -119 -182q-50 -34 -82 -49h61h103z" />
    <glyph glyph-name="threesuperior" unicode="&#xb3;" horiz-adv-x="412" 
d="M50 424h119q-3 -31 11 -47t39 -16t41.5 15.5t16.5 41.5q0 45 -67 45h-23l15 89h12q77 0 77 49q0 33 -36 33q-41 0 -47 -51h-119q8 67 55.5 106t126.5 39q70 0 108.5 -28.5t38.5 -74.5q0 -38 -21 -67t-55 -44q23 -13 39.5 -36.5t16.5 -53.5q0 -74 -52.5 -116.5
t-136.5 -42.5q-75 0 -118.5 33.5t-43.5 94.5q0 13 3 31z" />
    <glyph glyph-name="acute" unicode="&#xb4;" horiz-adv-x="427" 
d="M271 587h-191l108 128h233z" />
    <glyph glyph-name="mu" unicode="&#xb5;" horiz-adv-x="633" 
d="M430 525h192l-93 -525h-189l12 68q-52 -77 -137 -77q-22 0 -28 2l-31 -173h-192l124 705h192l-45 -252q-7 -47 -7 -67q0 -70 60 -70q41 0 63 32t34 103z" />
    <glyph glyph-name="paragraph" unicode="&#xb6;" horiz-adv-x="683" 
d="M324 -113h-117l66 372q-91 9 -154 68.5t-63 150.5q0 121 99 190q42 28 88.5 37.5t118.5 9.5h332l-22 -121h-43l-124 -707h-117l125 707h-65z" />
    <glyph glyph-name="periodcentered" unicode="&#xb7;" horiz-adv-x="284" 
d="M36 231l31 176h185l-31 -176h-185z" />
    <glyph glyph-name="cedilla" unicode="&#xb8;" horiz-adv-x="369" 
d="M56 -163l95 114h192l-76 -114h-211z" />
    <glyph glyph-name="onesuperior" unicode="&#xb9;" horiz-adv-x="308" 
d="M174 554h-113l15 85h10q93 0 129 76h110l-78 -439h-122z" />
    <glyph glyph-name="ordmasculine" unicode="&#xba;" horiz-adv-x="501" 
d="M273 275q39 0 62 38.5t23 89.5q0 37 -16 59t-48 22q-39 0 -62 -37t-23 -86q0 -86 64 -86zM303 586q94 0 149.5 -48t55.5 -134q0 -104 -62.5 -169.5t-180.5 -65.5q-92 0 -148.5 48t-56.5 138q0 101 63 166t180 65z" />
    <glyph glyph-name="guillemotright" unicode="&#xbb;" horiz-adv-x="584" 
d="M238 98l135 187l-67 188h166l80 -188l-139 -187h-175zM-3 98l135 187l-67 188h166l80 -188l-139 -187h-175z" />
    <glyph glyph-name="onequarter" unicode="&#xbc;" horiz-adv-x="832" 
d="M591 79h-210l15 84l157 176l56 64q16 17 31 37h129l-48 -272h58l-16 -89h-58l-14 -79h-114zM604 168l14 76q3 12 7 36t6 32l-43 -53q-11 -12 -36 -42.5t-42 -48.5h94zM137 0l402 715h112l-402 -715h-112zM185 554h-113l15 85h10q93 0 129 76h110l-78 -439h-122z" />
    <glyph glyph-name="onehalf" unicode="&#xbd;" horiz-adv-x="875" 
d="M787 0h-343l15 100q84 53 165 111q23 16 37 27.5t28 32t14 41.5q0 36 -41 36q-48 0 -53 -65h-124q8 82 56 127.5t132 45.5q75 0 116.5 -33.5t41.5 -89.5q0 -104 -120 -184q-47 -32 -83 -49h62h114zM136 0l402 715h112l-402 -715h-112zM184 554h-113l15 85h10q93 0 129 76
h110l-78 -439h-122z" />
    <glyph glyph-name="threequarters" unicode="&#xbe;" horiz-adv-x="920" 
d="M52 425h117q-3 -31 11 -46t39 -15t41 15t16 41q0 45 -66 45h-22l15 88h11q77 0 77 48q0 32 -36 32q-41 0 -47 -50h-117q8 67 54 105t125 38q70 0 108 -28t38 -74q0 -37 -20.5 -65.5t-54.5 -43.5q23 -13 39.5 -36.5t16.5 -53.5q0 -73 -52 -114.5t-136 -41.5q-74 0 -117 33
t-43 93q0 13 3 30zM682 79h-210l15 84l157 176l56 64q16 17 31 37h129l-48 -272h58l-16 -89h-58l-14 -79h-114zM695 168l14 76q3 12 7 36t6 32l-43 -53q-11 -12 -36 -42.5t-42 -48.5h94zM228 0l402 715h112l-402 -715h-112z" />
    <glyph glyph-name="questiondown" unicode="&#xbf;" horiz-adv-x="576" 
d="M320 37h182q-9 -109 -86 -177t-208 -68q-115 0 -177.5 46t-62.5 123q0 66 33 117t99 99l14 10q41 30 52 39.5t25 32t19 55.5h176q-14 -72 -40 -111t-85 -85l-32 -24q-34 -25 -50.5 -45.5t-16.5 -47.5q0 -25 17 -40t51 -15q82 0 90 91zM213 367l28 158h185l-28 -158h-185z
" />
    <glyph glyph-name="Agrave" unicode="&#xc0;" horiz-adv-x="736" 
d="M143 0h-211q167 318 390 715h244q8 -46 134 -715h-204q-11 52 -27 151h-246zM300 305h146q-19 132 -29 256h-3q-75 -180 -114 -256zM547 758h-191l-141 119h233z" />
    <glyph glyph-name="Aacute" unicode="&#xc1;" horiz-adv-x="736" 
d="M143 0h-211q167 318 390 715h244q8 -46 134 -715h-204q-11 52 -27 151h-246zM300 305h146q-19 132 -29 256h-3q-75 -180 -114 -256zM531 758h-191l99 119h233z" />
    <glyph glyph-name="Acircumflex" unicode="&#xc2;" horiz-adv-x="736" 
d="M143 0h-211q167 318 390 715h244q8 -46 134 -715h-204q-11 52 -27 151h-246zM300 305h146q-19 132 -29 256h-3q-75 -180 -114 -256zM364 877h193l88 -122h-157l-35 48l-54 -48h-159z" />
    <glyph glyph-name="Atilde" unicode="&#xc3;" horiz-adv-x="736" 
d="M143 0h-211q167 318 390 715h244q8 -46 134 -715h-204q-11 52 -27 151h-246zM300 305h146q-19 132 -29 256h-3q-75 -180 -114 -256zM386 757h-96q0 55 28.5 90.5t78.5 35.5q34 0 72 -20q31 -16 42 -16q21 0 22 30h96q0 -55 -28.5 -90.5t-78.5 -35.5q-30 0 -62 15l-10 5
q-31 16 -42 16q-21 0 -22 -30z" />
    <glyph glyph-name="Adieresis" unicode="&#xc4;" horiz-adv-x="736" 
d="M143 0h-211q167 318 390 715h244q8 -46 134 -715h-204q-11 52 -27 151h-246zM300 305h146q-19 132 -29 256h-3q-75 -180 -114 -256zM286 757l21 120h139l-21 -120h-139zM478 757l21 120h139l-21 -120h-139z" />
    <glyph glyph-name="Aring" unicode="&#xc5;" horiz-adv-x="736" 
d="M143 0h-211q167 318 390 715h244q8 -46 134 -715h-204q-11 52 -27 151h-246zM300 305h146q-19 132 -29 256h-3q-75 -180 -114 -256zM456 738q-45 0 -76 32t-31 77q0 44 32 75.5t76 31.5q45 0 76.5 -31.5t31.5 -75.5q0 -45 -31.5 -77t-77.5 -32zM420 847q0 -16 10.5 -26.5
t25.5 -10.5q16 0 26 10t10 27q0 15 -10 25t-26 10q-15 0 -25.5 -10.5t-10.5 -24.5z" />
    <glyph glyph-name="AE" unicode="&#xc6;" horiz-adv-x="1041" 
d="M1072 715l-29 -162h-295l-17 -111h267l-28 -162h-264l-18 -118h290l-29 -162h-494l22 151h-220l-107 -151h-229l545 715h606zM367 304h136q30 184 39 245h-2q-85 -127 -173 -245z" />
    <glyph glyph-name="Ccedilla" unicode="&#xc7;" horiz-adv-x="782" 
d="M792 477h-212q-31 99 -140 99q-50 0 -88.5 -23t-60.5 -61.5t-33 -83.5t-11 -93q0 -81 37 -126.5t110 -45.5q94 0 147 82h220q-46 -110 -143 -174t-242 -64q-156 0 -250 84t-94 232q0 119 48 214.5t144 153t225 57.5q148 0 236 -65.5t107 -185.5zM193 -163l95 114h192
l-76 -114h-211z" />
    <glyph glyph-name="Egrave" unicode="&#xc8;" horiz-adv-x="608" 
d="M261 280l-21 -118h305l-29 -162h-510l126 715h507l-29 -162h-301l-20 -111h276l-28 -162h-276zM504 758h-191l-141 119h233z" />
    <glyph glyph-name="Eacute" unicode="&#xc9;" horiz-adv-x="608" 
d="M261 280l-21 -118h305l-29 -162h-510l126 715h507l-29 -162h-301l-20 -111h276l-28 -162h-276zM459 758h-191l99 119h233z" />
    <glyph glyph-name="Ecircumflex" unicode="&#xca;" horiz-adv-x="608" 
d="M261 280l-21 -118h305l-29 -162h-510l126 715h507l-29 -162h-301l-20 -111h276l-28 -162h-276zM305 877h193l88 -122h-157l-35 48l-54 -48h-159z" />
    <glyph glyph-name="Edieresis" unicode="&#xcb;" horiz-adv-x="608" 
d="M261 280l-21 -118h305l-29 -162h-510l126 715h507l-29 -162h-301l-20 -111h276l-28 -162h-276zM219 757l21 120h139l-21 -120h-139zM411 757l21 120h139l-21 -120h-139z" />
    <glyph glyph-name="Igrave" unicode="&#xcc;" horiz-adv-x="329" 
d="M341 715l-127 -715h-208l126 715h209zM341 758h-191l-141 119h233z" />
    <glyph glyph-name="Iacute" unicode="&#xcd;" horiz-adv-x="329" 
d="M341 715l-127 -715h-208l126 715h209zM332 758h-191l99 119h233z" />
    <glyph glyph-name="Icircumflex" unicode="&#xce;" horiz-adv-x="329" 
d="M341 715l-127 -715h-208l126 715h209zM160 877h193l88 -122h-157l-35 48l-54 -48h-159z" />
    <glyph glyph-name="Idieresis" unicode="&#xcf;" horiz-adv-x="329" 
d="M341 715l-127 -715h-208l126 715h209zM72 757l21 120h139l-21 -120h-139zM264 757l21 120h139l-21 -120h-139z" />
    <glyph glyph-name="Eth" unicode="&#xd0;" horiz-adv-x="784" 
d="M6 280l28 163h58l48 272h229q96 0 165.5 -10.5t121.5 -46.5q113 -75 113 -242q0 -100 -41 -192t-121 -149q-65 -46 -137.5 -60.5t-186.5 -14.5h-269l49 280h-57zM470 202q81 56 81 197q0 156 -175 156h-57l-20 -112h105l-29 -163h-104l-21 -119h58q105 0 162 41z" />
    <glyph glyph-name="Ntilde" unicode="&#xd1;" horiz-adv-x="772" 
d="M784 715l-127 -715h-260l-78 282q-26 94 -39 196h-3q-10 -88 -33 -207l-48 -271h-190l126 715h269l57 -223q29 -107 54 -243l2 1h2q10 87 32 210l45 255h191zM389 757h-96q0 55 28.5 90.5t78.5 35.5q34 0 72 -20q31 -16 42 -16q21 0 22 30h96q0 -55 -28.5 -90.5
t-78.5 -35.5q-30 0 -62 15l-10 5q-31 16 -42 16q-21 0 -22 -30z" />
    <glyph glyph-name="Ograve" unicode="&#xd2;" horiz-adv-x="821" 
d="M458 728q163 0 255.5 -82.5t92.5 -228.5q0 -123 -46.5 -218.5t-144.5 -153.5t-236 -58q-158 0 -252 83.5t-94 232.5q0 119 47.5 214t145.5 153t232 58zM397 143q66 0 112 41.5t64.5 99.5t18.5 125q0 76 -38 121.5t-111 45.5q-66 0 -111.5 -40.5t-64.5 -97.5t-19 -123
q0 -81 37 -126.5t112 -45.5zM586 758h-191l-141 119h233z" />
    <glyph glyph-name="Oacute" unicode="&#xd3;" horiz-adv-x="821" 
d="M458 728q163 0 255.5 -82.5t92.5 -228.5q0 -123 -46.5 -218.5t-144.5 -153.5t-236 -58q-158 0 -252 83.5t-94 232.5q0 119 47.5 214t145.5 153t232 58zM397 143q66 0 112 41.5t64.5 99.5t18.5 125q0 76 -38 121.5t-111 45.5q-66 0 -111.5 -40.5t-64.5 -97.5t-19 -123
q0 -81 37 -126.5t112 -45.5zM570 758h-191l99 119h233z" />
    <glyph glyph-name="Ocircumflex" unicode="&#xd4;" horiz-adv-x="821" 
d="M458 728q163 0 255.5 -82.5t92.5 -228.5q0 -123 -46.5 -218.5t-144.5 -153.5t-236 -58q-158 0 -252 83.5t-94 232.5q0 119 47.5 214t145.5 153t232 58zM397 143q66 0 112 41.5t64.5 99.5t18.5 125q0 76 -38 121.5t-111 45.5q-66 0 -111.5 -40.5t-64.5 -97.5t-19 -123
q0 -81 37 -126.5t112 -45.5zM394 877h193l88 -122h-157l-35 48l-54 -48h-159z" />
    <glyph glyph-name="Otilde" unicode="&#xd5;" horiz-adv-x="821" 
d="M458 728q163 0 255.5 -82.5t92.5 -228.5q0 -123 -46.5 -218.5t-144.5 -153.5t-236 -58q-158 0 -252 83.5t-94 232.5q0 119 47.5 214t145.5 153t232 58zM397 143q66 0 112 41.5t64.5 99.5t18.5 125q0 76 -38 121.5t-111 45.5q-66 0 -111.5 -40.5t-64.5 -97.5t-19 -123
q0 -81 37 -126.5t112 -45.5zM418 757h-96q0 55 28.5 90.5t78.5 35.5q34 0 72 -20q31 -16 42 -16q21 0 22 30h96q0 -55 -28.5 -90.5t-78.5 -35.5q-30 0 -62 15l-10 5q-31 16 -42 16q-21 0 -22 -30z" />
    <glyph glyph-name="Odieresis" unicode="&#xd6;" horiz-adv-x="821" 
d="M458 728q163 0 255.5 -82.5t92.5 -228.5q0 -123 -46.5 -218.5t-144.5 -153.5t-236 -58q-158 0 -252 83.5t-94 232.5q0 119 47.5 214t145.5 153t232 58zM397 143q66 0 112 41.5t64.5 99.5t18.5 125q0 76 -38 121.5t-111 45.5q-66 0 -111.5 -40.5t-64.5 -97.5t-19 -123
q0 -81 37 -126.5t112 -45.5zM312 757l21 120h139l-21 -120h-139zM504 757l21 120h139l-21 -120h-139z" />
    <glyph glyph-name="multiply" unicode="&#xd7;" 
d="M185 75l-111 111l134 134l-134 134l111 111l134 -134l134 134l111 -111l-134 -134l134 -134l-111 -111l-134 134z" />
    <glyph glyph-name="Oslash" unicode="&#xd8;" horiz-adv-x="821" 
d="M458 728q74 0 129 -16l62 75l145 -114l-50 -61q62 -79 62 -195q0 -123 -46.5 -218.5t-144.5 -153.5t-236 -58q-73 0 -136 19l-69 -83l-145 114l61 74q-57 77 -57 192q0 119 47.5 214t145.5 153t232 58zM397 143q66 0 112 41.5t64.5 99.5t18.5 125q0 10 -2 26l-238 -287
q19 -5 45 -5zM248 315q0 -13 1 -20l229 278q-16 3 -35 3q-66 0 -111.5 -40.5t-64.5 -97.5t-19 -123z" />
    <glyph glyph-name="Ugrave" unicode="&#xd9;" horiz-adv-x="735" 
d="M754 715l-76 -430q-27 -155 -111 -227.5t-256 -72.5q-269 0 -269 229q0 38 11 99l71 402h208l-74 -416q-6 -30 -6 -56q0 -95 93 -95q56 0 85 33.5t42 109.5l75 424h207zM564 758h-191l-141 119h233z" />
    <glyph glyph-name="Uacute" unicode="&#xda;" horiz-adv-x="735" 
d="M754 715l-76 -430q-27 -155 -111 -227.5t-256 -72.5q-269 0 -269 229q0 38 11 99l71 402h208l-74 -416q-6 -30 -6 -56q0 -95 93 -95q56 0 85 33.5t42 109.5l75 424h207zM524 758h-191l99 119h233z" />
    <glyph glyph-name="Ucircumflex" unicode="&#xdb;" horiz-adv-x="735" 
d="M754 715l-76 -430q-27 -155 -111 -227.5t-256 -72.5q-269 0 -269 229q0 38 11 99l71 402h208l-74 -416q-6 -30 -6 -56q0 -95 93 -95q56 0 85 33.5t42 109.5l75 424h207zM363 877h193l88 -122h-157l-35 48l-54 -48h-159z" />
    <glyph glyph-name="Udieresis" unicode="&#xdc;" horiz-adv-x="735" 
d="M754 715l-76 -430q-27 -155 -111 -227.5t-256 -72.5q-269 0 -269 229q0 38 11 99l71 402h208l-74 -416q-6 -30 -6 -56q0 -95 93 -95q56 0 85 33.5t42 109.5l75 424h207zM284 757l21 120h139l-21 -120h-139zM476 757l21 120h139l-21 -120h-139z" />
    <glyph glyph-name="Yacute" unicode="&#xdd;" horiz-adv-x="641" 
d="M507 715h216q-18 -28 -84 -122t-100 -144l-126 -181l-48 -268h-208l48 268q-9 30 -27 85.5t-25 77.5q-17 54 -53 161.5t-41 122.5h208q52 -197 71 -280h2q75 133 167 280zM466 758h-191l99 119h233z" />
    <glyph glyph-name="Thorn" unicode="&#xde;" horiz-adv-x="646" 
d="M132 715h209l-19 -107h63q120 0 179 -33q89 -52 89 -162t-59 -181q-82 -102 -252 -102h-104l-23 -130h-209zM266 290h61q51 0 82 16q42 23 42 79q0 65 -99 65h-58z" />
    <glyph glyph-name="germandbls" unicode="&#xdf;" horiz-adv-x="614" 
d="M-4 0l83 471q12 75 35 120.5t60 76.5q66 56 195 56q117 0 175.5 -42.5t58.5 -110.5q0 -114 -119 -170q41 -19 67 -56.5t26 -91.5q0 -117 -84 -188t-211 -71q-29 0 -61 5l23 132q14 -2 24 -2q53 0 89 33t36 91q0 83 -97 83h-4l22 121h7q38 0 65 20.5t27 60.5q0 52 -58 52
q-34 0 -52 -20q-19 -19 -29 -76l-87 -494h-191z" />
    <glyph glyph-name="agrave" unicode="&#xe0;" horiz-adv-x="578" 
d="M493 0h-168q2 26 6 53h-2q-74 -63 -170 -63q-76 0 -122 35t-46 101q0 134 198 178q81 17 173 24q3 12 3 26q0 62 -64 62q-61 0 -76 -62h-176q21 89 91 137.5t183 48.5q98 0 158 -40.5t60 -126.5q0 -38 -7 -79l-25 -138q-20 -102 -16 -156zM345 225l-35 -4
q-76 -9 -108 -25t-32 -49q0 -51 62 -51q90 0 110 114zM464 587h-191l-150 128h233z" />
    <glyph glyph-name="aacute" unicode="&#xe1;" horiz-adv-x="578" 
d="M493 0h-168q2 26 6 53h-2q-74 -63 -170 -63q-76 0 -122 35t-46 101q0 134 198 178q81 17 173 24q3 12 3 26q0 62 -64 62q-61 0 -76 -62h-176q21 89 91 137.5t183 48.5q98 0 158 -40.5t60 -126.5q0 -38 -7 -79l-25 -138q-20 -102 -16 -156zM345 225l-35 -4
q-76 -9 -108 -25t-32 -49q0 -51 62 -51q90 0 110 114zM405 587h-191l108 128h233z" />
    <glyph glyph-name="acircumflex" unicode="&#xe2;" horiz-adv-x="578" 
d="M493 0h-168q2 26 6 53h-2q-74 -63 -170 -63q-76 0 -122 35t-46 101q0 134 198 178q81 17 173 24q3 12 3 26q0 62 -64 62q-61 0 -76 -62h-176q21 89 91 137.5t183 48.5q98 0 158 -40.5t60 -126.5q0 -38 -7 -79l-25 -138q-20 -102 -16 -156zM345 225l-35 -4
q-76 -9 -108 -25t-32 -49q0 -51 62 -51q90 0 110 114zM261 715h193l88 -128h-156l-35 48l-54 -48h-160z" />
    <glyph glyph-name="atilde" unicode="&#xe3;" horiz-adv-x="578" 
d="M493 0h-168q2 26 6 53h-2q-74 -63 -170 -63q-76 0 -122 35t-46 101q0 134 198 178q81 17 173 24q3 12 3 26q0 62 -64 62q-61 0 -76 -62h-176q21 89 91 137.5t183 48.5q98 0 158 -40.5t60 -126.5q0 -38 -7 -79l-25 -138q-20 -102 -16 -156zM345 225l-35 -4
q-76 -9 -108 -25t-32 -49q0 -51 62 -51q90 0 110 114zM267 587h-96q0 59 28.5 96.5t78.5 37.5q34 0 72 -20q31 -16 42 -16q21 0 22 30h96q0 -59 -28.5 -96.5t-78.5 -37.5q-30 0 -62 15l-10 5q-31 16 -42 16q-21 0 -22 -30z" />
    <glyph glyph-name="adieresis" unicode="&#xe4;" horiz-adv-x="578" 
d="M493 0h-168q2 26 6 53h-2q-74 -63 -170 -63q-76 0 -122 35t-46 101q0 134 198 178q81 17 173 24q3 12 3 26q0 62 -64 62q-61 0 -76 -62h-176q21 89 91 137.5t183 48.5q98 0 158 -40.5t60 -126.5q0 -38 -7 -79l-25 -138q-20 -102 -16 -156zM345 225l-35 -4
q-76 -9 -108 -25t-32 -49q0 -51 62 -51q90 0 110 114zM168 587l23 128h144l-23 -128h-144zM366 587l23 128h143l-23 -128h-143z" />
    <glyph glyph-name="aring" unicode="&#xe5;" horiz-adv-x="578" 
d="M493 0h-168q2 26 6 53h-2q-74 -63 -170 -63q-76 0 -122 35t-46 101q0 134 198 178q81 17 173 24q3 12 3 26q0 62 -64 62q-61 0 -76 -62h-176q21 89 91 137.5t183 48.5q98 0 158 -40.5t60 -126.5q0 -38 -7 -79l-25 -138q-20 -102 -16 -156zM345 225l-35 -4
q-76 -9 -108 -25t-32 -49q0 -51 62 -51q90 0 110 114zM348 568q-45 0 -76 32t-31 77q0 44 32 75.5t76 31.5q45 0 76.5 -31.5t31.5 -75.5q0 -45 -31.5 -77t-77.5 -32zM312 677q0 -16 10.5 -26.5t25.5 -10.5q16 0 26 10t10 27q0 15 -10 25t-26 10q-15 0 -25.5 -10.5
t-10.5 -24.5z" />
    <glyph glyph-name="ae" unicode="&#xe6;" horiz-adv-x="948" 
d="M710 170h198q-31 -87 -105.5 -136t-191.5 -49q-143 0 -213 82q-41 -36 -89.5 -57.5t-128.5 -21.5q-189 0 -189 138q0 134 198 178q89 19 173 24q3 12 3 26q0 62 -64 62q-61 0 -76 -62h-176q20 89 90 137.5t181 48.5q105 0 163 -49q70 49 169 49q126 0 199.5 -69
t73.5 -186q0 -28 -8 -65h-388q0 -50 24.5 -75.5t67.5 -25.5q66 0 89 51zM345 225l-35 -4q-76 -9 -108 -25t-32 -50q0 -50 62 -50q90 0 110 114zM643 412q-44 0 -71.5 -24t-34.5 -63h200q-2 40 -27.5 63.5t-66.5 23.5z" />
    <glyph glyph-name="ccedilla" unicode="&#xe7;" horiz-adv-x="617" 
d="M389 192h198q-63 -208 -300 -208q-120 0 -196 63.5t-76 184.5q0 133 82.5 220.5t234.5 87.5q114 0 184.5 -54.5t82.5 -152.5h-192q-12 72 -81 72q-56 0 -86 -49.5t-30 -116.5q0 -115 87 -115q60 0 92 68zM101 -163l95 114h192l-76 -114h-211z" />
    <glyph glyph-name="egrave" unicode="&#xe8;" horiz-adv-x="620" 
d="M382 170h198q-31 -87 -105.5 -136t-191.5 -49q-122 0 -195 64.5t-73 184.5q0 130 81 218t228 88q126 0 199.5 -69t73.5 -186q0 -28 -8 -65h-388q0 -50 24.5 -75.5t67.5 -25.5q66 0 89 51zM315 412q-44 0 -71.5 -24t-34.5 -63h200q-2 40 -27.5 63.5t-66.5 23.5zM448 587
h-191l-150 128h233z" />
    <glyph glyph-name="eacute" unicode="&#xe9;" horiz-adv-x="620" 
d="M382 170h198q-31 -87 -105.5 -136t-191.5 -49q-122 0 -195 64.5t-73 184.5q0 130 81 218t228 88q126 0 199.5 -69t73.5 -186q0 -28 -8 -65h-388q0 -50 24.5 -75.5t67.5 -25.5q66 0 89 51zM315 412q-44 0 -71.5 -24t-34.5 -63h200q-2 40 -27.5 63.5t-66.5 23.5zM415 587
h-191l108 128h233z" />
    <glyph glyph-name="ecircumflex" unicode="&#xea;" horiz-adv-x="620" 
d="M382 170h198q-31 -87 -105.5 -136t-191.5 -49q-122 0 -195 64.5t-73 184.5q0 130 81 218t228 88q126 0 199.5 -69t73.5 -186q0 -28 -8 -65h-388q0 -50 24.5 -75.5t67.5 -25.5q66 0 89 51zM315 412q-44 0 -71.5 -24t-34.5 -63h200q-2 40 -27.5 63.5t-66.5 23.5zM257 715
h193l88 -128h-156l-35 48l-54 -48h-160z" />
    <glyph glyph-name="edieresis" unicode="&#xeb;" horiz-adv-x="620" 
d="M382 170h198q-31 -87 -105.5 -136t-191.5 -49q-122 0 -195 64.5t-73 184.5q0 130 81 218t228 88q126 0 199.5 -69t73.5 -186q0 -28 -8 -65h-388q0 -50 24.5 -75.5t67.5 -25.5q66 0 89 51zM315 412q-44 0 -71.5 -24t-34.5 -63h200q-2 40 -27.5 63.5t-66.5 23.5zM165 587
l23 128h144l-23 -128h-144zM363 587l23 128h143l-23 -128h-143z" />
    <glyph glyph-name="igrave" unicode="&#xec;" horiz-adv-x="291" 
d="M187 0h-191l92 525h192zM289 587h-191l-150 128h233z" />
    <glyph glyph-name="iacute" unicode="&#xed;" horiz-adv-x="291" 
d="M187 0h-191l92 525h192zM282 587h-191l108 128h233z" />
    <glyph glyph-name="icircumflex" unicode="&#xee;" horiz-adv-x="291" 
d="M187 0h-191l92 525h192zM110 715h193l88 -128h-156l-35 48l-54 -48h-160z" />
    <glyph glyph-name="idieresis" unicode="&#xef;" horiz-adv-x="291" 
d="M187 0h-191l92 525h192zM20 587l23 128h144l-23 -128h-144zM218 587l23 128h143l-23 -128h-143z" />
    <glyph glyph-name="eth" unicode="&#xf0;" horiz-adv-x="652" 
d="M15 231q0 134 84 219t209 85q65 0 109 -21l1 1q-20 28 -51 59l-114 -36l-68 84l86 27q-32 22 -115 66h278l13 -10l76 24l68 -83l-62 -20q95 -121 95 -275q0 -168 -83.5 -267.5t-252.5 -99.5q-123 0 -198 63t-75 184zM298 124q54 0 84.5 51t30.5 121q0 50 -21.5 79.5
t-64.5 29.5q-54 0 -85.5 -50t-31.5 -116q0 -115 88 -115z" />
    <glyph glyph-name="ntilde" unicode="&#xf1;" horiz-adv-x="633" 
d="M188 0h-192l93 525h184l-6 -33q-5 -25 -7 -34h1q66 79 174 79q79 0 120.5 -42.5t41.5 -113.5q0 -32 -14 -110l-48 -271h-192l45 253q7 47 7 67q0 69 -61 69q-43 0 -66 -32t-35 -103zM297 587h-96q0 59 28.5 96.5t78.5 37.5q34 0 72 -20q31 -16 42 -16q21 0 22 30h96
q0 -59 -28.5 -96.5t-78.5 -37.5q-30 0 -62 15l-10 5q-31 16 -42 16q-21 0 -22 -30z" />
    <glyph glyph-name="ograve" unicode="&#xf2;" horiz-adv-x="641" 
d="M298 124q54 0 84.5 51t30.5 121q0 50 -21.5 79.5t-64.5 29.5q-54 0 -85.5 -50t-31.5 -116q0 -115 88 -115zM338 540q125 0 199 -64t74 -179q0 -138 -83.5 -225.5t-239.5 -87.5q-123 0 -198 63t-75 184q0 133 84 221t239 88zM464 587h-191l-150 128h233z" />
    <glyph glyph-name="oacute" unicode="&#xf3;" horiz-adv-x="641" 
d="M298 124q54 0 84.5 51t30.5 121q0 50 -21.5 79.5t-64.5 29.5q-54 0 -85.5 -50t-31.5 -116q0 -115 88 -115zM338 540q125 0 199 -64t74 -179q0 -138 -83.5 -225.5t-239.5 -87.5q-123 0 -198 63t-75 184q0 133 84 221t239 88zM432 587h-191l108 128h233z" />
    <glyph glyph-name="ocircumflex" unicode="&#xf4;" horiz-adv-x="641" 
d="M298 124q54 0 84.5 51t30.5 121q0 50 -21.5 79.5t-64.5 29.5q-54 0 -85.5 -50t-31.5 -116q0 -115 88 -115zM338 540q125 0 199 -64t74 -179q0 -138 -83.5 -225.5t-239.5 -87.5q-123 0 -198 63t-75 184q0 133 84 221t239 88zM278 715h193l88 -128h-156l-35 48l-54 -48
h-160z" />
    <glyph glyph-name="otilde" unicode="&#xf5;" horiz-adv-x="641" 
d="M298 124q54 0 84.5 51t30.5 121q0 50 -21.5 79.5t-64.5 29.5q-54 0 -85.5 -50t-31.5 -116q0 -115 88 -115zM338 540q125 0 199 -64t74 -179q0 -138 -83.5 -225.5t-239.5 -87.5q-123 0 -198 63t-75 184q0 133 84 221t239 88zM288 587h-96q0 59 28.5 96.5t78.5 37.5
q34 0 72 -20q31 -16 42 -16q21 0 22 30h96q0 -59 -28.5 -96.5t-78.5 -37.5q-30 0 -62 15l-10 5q-31 16 -42 16q-21 0 -22 -30z" />
    <glyph glyph-name="odieresis" unicode="&#xf6;" horiz-adv-x="641" 
d="M298 124q54 0 84.5 51t30.5 121q0 50 -21.5 79.5t-64.5 29.5q-54 0 -85.5 -50t-31.5 -116q0 -115 88 -115zM338 540q125 0 199 -64t74 -179q0 -138 -83.5 -225.5t-239.5 -87.5q-123 0 -198 63t-75 184q0 133 84 221t239 88zM189 587l23 128h144l-23 -128h-144zM387 587
l23 128h143l-23 -128h-143z" />
    <glyph glyph-name="divide" unicode="&#xf7;" 
d="M69 235v160h498v-160h-498zM225 43v157h185v-157h-185zM225 429v157h185v-157h-185z" />
    <glyph glyph-name="oslash" unicode="&#xf8;" horiz-adv-x="641" 
d="M338 540q50 0 94 -12l52 64l123 -91l-44 -54q48 -60 48 -150q0 -138 -83.5 -225.5t-239.5 -87.5q-54 0 -99 12l-44 -52l-122 92l36 43q-44 61 -44 152q0 133 84 221t239 88zM327 405q-53 0 -85 -49.5t-32 -114.5l134 163q-7 1 -17 1zM298 124q51 0 82 47t33 114
l-133 -160q3 -1 18 -1z" />
    <glyph glyph-name="ugrave" unicode="&#xf9;" horiz-adv-x="628" 
d="M425 525h192l-93 -525h-184l6 33q5 25 7 34h-1q-65 -78 -171 -78q-78 0 -119 42.5t-41 113.5q0 32 14 110l48 270h192l-45 -252q-7 -47 -7 -67q0 -70 60 -70q41 0 63 32t34 103zM490 587h-191l-150 128h233z" />
    <glyph glyph-name="uacute" unicode="&#xfa;" horiz-adv-x="628" 
d="M425 525h192l-93 -525h-184l6 33q5 25 7 34h-1q-65 -78 -171 -78q-78 0 -119 42.5t-41 113.5q0 32 14 110l48 270h192l-45 -252q-7 -47 -7 -67q0 -70 60 -70q41 0 63 32t34 103zM428 587h-191l108 128h233z" />
    <glyph glyph-name="ucircumflex" unicode="&#xfb;" horiz-adv-x="628" 
d="M425 525h192l-93 -525h-184l6 33q5 25 7 34h-1q-65 -78 -171 -78q-78 0 -119 42.5t-41 113.5q0 32 14 110l48 270h192l-45 -252q-7 -47 -7 -67q0 -70 60 -70q41 0 63 32t34 103zM281 715h193l88 -128h-156l-35 48l-54 -48h-160z" />
    <glyph glyph-name="udieresis" unicode="&#xfc;" horiz-adv-x="628" 
d="M425 525h192l-93 -525h-184l6 33q5 25 7 34h-1q-65 -78 -171 -78q-78 0 -119 42.5t-41 113.5q0 32 14 110l48 270h192l-45 -252q-7 -47 -7 -67q0 -70 60 -70q41 0 63 32t34 103zM190 587l23 128h144l-23 -128h-144zM388 587l23 128h143l-23 -128h-143z" />
    <glyph glyph-name="yacute" unicode="&#xfd;" horiz-adv-x="576" 
d="M413 525h204q-178 -333 -379 -705h-192q7 13 47 82t52 95q-17 79 -58 261t-60 267h201q26 -182 41 -312h5q83 197 139 312zM396 587h-191l108 128h233z" />
    <glyph glyph-name="thorn" unicode="&#xfe;" horiz-adv-x="647" 
d="M121 715h192l-17 -105l-18 -96l-8 -40q55 65 151 65q89 0 143 -61.5t54 -161.5q0 -61 -17.5 -119t-50 -105.5t-85.5 -76t-118 -28.5q-53 0 -91.5 19t-57.5 48l-7 -41q-13 -83 -15 -91l-19 -102h-191zM305 124q54 0 84.5 51t30.5 121q0 50 -21.5 79.5t-64.5 29.5
q-54 0 -85.5 -50t-31.5 -116q0 -115 88 -115z" />
    <glyph glyph-name="ydieresis" unicode="&#xff;" horiz-adv-x="576" 
d="M413 525h204q-178 -333 -379 -705h-192q7 13 47 82t52 95q-17 79 -58 261t-60 267h201q26 -182 41 -312h5q83 197 139 312zM157 587l23 128h144l-23 -128h-144zM355 587l23 128h143l-23 -128h-143z" />
    <glyph glyph-name="Amacron" unicode="&#x100;" horiz-adv-x="736" 
d="M143 0h-211q167 318 390 715h244q8 -46 134 -715h-204q-11 52 -27 151h-246zM300 305h146q-19 132 -29 256h-3q-75 -180 -114 -256zM305 761l19 110h273l-19 -110h-273z" />
    <glyph glyph-name="amacron" unicode="&#x101;" horiz-adv-x="578" 
d="M493 0h-168q2 26 6 53h-2q-74 -63 -170 -63q-76 0 -122 35t-46 101q0 134 198 178q81 17 173 24q3 12 3 26q0 62 -64 62q-61 0 -76 -62h-176q21 89 91 137.5t183 48.5q98 0 158 -40.5t60 -126.5q0 -38 -7 -79l-25 -138q-20 -102 -16 -156zM345 225l-35 -4
q-76 -9 -108 -25t-32 -49q0 -51 62 -51q90 0 110 114zM206 597l19 110h273l-19 -110h-273z" />
    <glyph glyph-name="Abreve" unicode="&#x102;" horiz-adv-x="736" 
d="M143 0h-211q167 318 390 715h244q8 -46 134 -715h-204q-11 52 -27 151h-246zM300 305h146q-19 132 -29 256h-3q-75 -180 -114 -256zM449 745q-65 0 -100 34t-31 97h101q5 -37 42 -37q38 0 54 37h100q-14 -63 -58 -97t-108 -34z" />
    <glyph glyph-name="abreve" unicode="&#x103;" horiz-adv-x="578" 
d="M493 0h-168q2 26 6 53h-2q-74 -63 -170 -63q-76 0 -122 35t-46 101q0 134 198 178q81 17 173 24q3 12 3 26q0 62 -64 62q-61 0 -76 -62h-176q21 89 91 137.5t183 48.5q98 0 158 -40.5t60 -126.5q0 -38 -7 -79l-25 -138q-20 -102 -16 -156zM345 225l-35 -4
q-76 -9 -108 -25t-32 -49q0 -51 62 -51q90 0 110 114zM340 580q-67 0 -102.5 35t-31.5 100h103q5 -37 43 -37q37 0 55 37h102q-14 -65 -58.5 -100t-110.5 -35z" />
    <glyph glyph-name="Aogonek" unicode="&#x104;" horiz-adv-x="736" 
d="M143 0h-211q167 318 390 715h244q8 -46 134 -715h-204q-11 52 -27 151h-246zM300 305h146q-19 132 -29 256h-3q-75 -180 -114 -256zM703 -49l95 -114h-211l-76 114h192z" />
    <glyph glyph-name="aogonek" unicode="&#x105;" horiz-adv-x="578" 
d="M493 0h-168q2 26 6 53h-2q-74 -63 -170 -63q-76 0 -122 35t-46 101q0 134 198 178q81 17 173 24q3 12 3 26q0 62 -64 62q-61 0 -76 -62h-176q21 89 91 137.5t183 48.5q98 0 158 -40.5t60 -126.5q0 -38 -7 -79l-25 -138q-20 -102 -16 -156zM345 225l-35 -4
q-76 -9 -108 -25t-32 -49q0 -51 62 -51q90 0 110 114zM491 -49l95 -114h-211l-76 114h192z" />
    <glyph glyph-name="Cacute" unicode="&#x106;" horiz-adv-x="782" 
d="M792 477h-212q-31 99 -140 99q-50 0 -88.5 -23t-60.5 -61.5t-33 -83.5t-11 -93q0 -81 37 -126.5t110 -45.5q94 0 147 82h220q-46 -110 -143 -174t-242 -64q-156 0 -250 84t-94 232q0 119 48 214.5t144 153t225 57.5q148 0 236 -65.5t107 -185.5zM549 758h-191l99 119h233
z" />
    <glyph glyph-name="cacute" unicode="&#x107;" horiz-adv-x="617" 
d="M389 192h198q-63 -208 -300 -208q-120 0 -196 63.5t-76 184.5q0 133 82.5 220.5t234.5 87.5q114 0 184.5 -54.5t82.5 -152.5h-192q-12 72 -81 72q-56 0 -86 -49.5t-30 -116.5q0 -115 87 -115q60 0 92 68zM435 587h-191l108 128h233z" />
    <glyph glyph-name="Ccircumflex" unicode="&#x108;" horiz-adv-x="782" 
d="M792 477h-212q-31 99 -140 99q-50 0 -88.5 -23t-60.5 -61.5t-33 -83.5t-11 -93q0 -81 37 -126.5t110 -45.5q94 0 147 82h220q-46 -110 -143 -174t-242 -64q-156 0 -250 84t-94 232q0 119 48 214.5t144 153t225 57.5q148 0 236 -65.5t107 -185.5zM387 877h193l88 -122
h-157l-35 48l-54 -48h-159z" />
    <glyph glyph-name="ccircumflex" unicode="&#x109;" horiz-adv-x="617" 
d="M389 192h198q-63 -208 -300 -208q-120 0 -196 63.5t-76 184.5q0 133 82.5 220.5t234.5 87.5q114 0 184.5 -54.5t82.5 -152.5h-192q-12 72 -81 72q-56 0 -86 -49.5t-30 -116.5q0 -115 87 -115q60 0 92 68zM272 715h193l88 -128h-156l-35 48l-54 -48h-160z" />
    <glyph glyph-name="Cdotaccent" unicode="&#x10a;" horiz-adv-x="782" 
d="M792 477h-212q-31 99 -140 99q-50 0 -88.5 -23t-60.5 -61.5t-33 -83.5t-11 -93q0 -81 37 -126.5t110 -45.5q94 0 147 82h220q-46 -110 -143 -174t-242 -64q-156 0 -250 84t-94 232q0 119 48 214.5t144 153t225 57.5q148 0 236 -65.5t107 -185.5zM394 757l21 120h139
l-21 -120h-139z" />
    <glyph glyph-name="cdotaccent" unicode="&#x10b;" horiz-adv-x="617" 
d="M389 192h198q-63 -208 -300 -208q-120 0 -196 63.5t-76 184.5q0 133 82.5 220.5t234.5 87.5q114 0 184.5 -54.5t82.5 -152.5h-192q-12 72 -81 72q-56 0 -86 -49.5t-30 -116.5q0 -115 87 -115q60 0 92 68zM271 587l23 128h144l-23 -128h-144z" />
    <glyph glyph-name="Ccaron" unicode="&#x10c;" horiz-adv-x="782" 
d="M792 477h-212q-31 99 -140 99q-50 0 -88.5 -23t-60.5 -61.5t-33 -83.5t-11 -93q0 -81 37 -126.5t110 -45.5q94 0 147 82h220q-46 -110 -143 -174t-242 -64q-156 0 -250 84t-94 232q0 119 48 214.5t144 153t225 57.5q148 0 236 -65.5t107 -185.5zM569 755h-193l-88 122
h157l35 -48l54 48h159z" />
    <glyph glyph-name="ccaron" unicode="&#x10d;" horiz-adv-x="617" 
d="M389 192h198q-63 -208 -300 -208q-120 0 -196 63.5t-76 184.5q0 133 82.5 220.5t234.5 87.5q114 0 184.5 -54.5t82.5 -152.5h-192q-12 72 -81 72q-56 0 -86 -49.5t-30 -116.5q0 -115 87 -115q60 0 92 68zM460 587h-193l-88 128h156l35 -48l54 48h160z" />
    <glyph glyph-name="Dcaron" unicode="&#x10e;" horiz-adv-x="775" 
d="M761 416q0 -100 -41 -192t-121 -149q-65 -46 -137.5 -60.5t-186.5 -14.5h-269l126 715h229q96 0 165.5 -10.5t121.5 -46.5q113 -75 113 -242zM462 202q81 56 81 197q0 156 -175 156h-57l-69 -394h58q105 0 162 41zM497 755h-193l-88 122h157l35 -48l54 48h159z" />
    <glyph glyph-name="dcaron" unicode="&#x10f;" horiz-adv-x="800" 
d="M542 0h-190l10 52h-1q-54 -65 -150 -65q-89 0 -143 61.5t-54 161.5q0 83 29 156.5t92 123t148 49.5q54 0 92.5 -19t57.5 -48l6 34q7 44 12 71l25 138h193zM327 402q-54 0 -84.5 -51t-30.5 -121q0 -50 21.5 -79.5t64.5 -29.5q54 0 85.5 50t31.5 116q0 115 -88 115z
M967 715l-139 -255h-157l114 255h182z" />
    <glyph glyph-name="Dcroat" unicode="&#x110;" horiz-adv-x="784" 
d="M6 280l28 163h58l48 272h229q96 0 165.5 -10.5t121.5 -46.5q113 -75 113 -242q0 -100 -41 -192t-121 -149q-65 -46 -137.5 -60.5t-186.5 -14.5h-269l49 280h-57zM470 202q81 56 81 197q0 156 -175 156h-57l-20 -112h105l-29 -163h-104l-21 -119h58q105 0 162 41z" />
    <glyph glyph-name="dcroat" unicode="&#x111;" horiz-adv-x="646" 
d="M408 546l22 125h38l8 44h193l-8 -44h33l-22 -125h-33l-97 -546h-190l10 52h-1q-54 -65 -150 -65q-89 0 -143 61.5t-54 161.5q0 83 29 156.5t92 123t148 49.5q54 0 92.5 -19t57.5 -48l3 22q1 7 4 24t5 28h-37zM327 402q-54 0 -84.5 -51t-30.5 -121q0 -50 21.5 -79.5
t64.5 -29.5q54 0 85.5 50t31.5 116q0 115 -88 115z" />
    <glyph glyph-name="Emacron" unicode="&#x112;" horiz-adv-x="608" 
d="M261 280l-21 -118h305l-29 -162h-510l126 715h507l-29 -162h-301l-20 -111h276l-28 -162h-276zM249 761l19 110h273l-19 -110h-273z" />
    <glyph glyph-name="emacron" unicode="&#x113;" horiz-adv-x="620" 
d="M382 170h198q-31 -87 -105.5 -136t-191.5 -49q-122 0 -195 64.5t-73 184.5q0 130 81 218t228 88q126 0 199.5 -69t73.5 -186q0 -28 -8 -65h-388q0 -50 24.5 -75.5t67.5 -25.5q66 0 89 51zM315 412q-44 0 -71.5 -24t-34.5 -63h200q-2 40 -27.5 63.5t-66.5 23.5zM208 597
l19 110h273l-19 -110h-273z" />
    <glyph glyph-name="Ebreve" unicode="&#x114;" horiz-adv-x="608" 
d="M261 280l-21 -118h305l-29 -162h-510l126 715h507l-29 -162h-301l-20 -111h276l-28 -162h-276zM386 745q-65 0 -100 34t-31 97h101q5 -37 42 -37q38 0 54 37h100q-14 -63 -58 -97t-108 -34z" />
    <glyph glyph-name="ebreve" unicode="&#x115;" horiz-adv-x="620" 
d="M382 170h198q-31 -87 -105.5 -136t-191.5 -49q-122 0 -195 64.5t-73 184.5q0 130 81 218t228 88q126 0 199.5 -69t73.5 -186q0 -28 -8 -65h-388q0 -50 24.5 -75.5t67.5 -25.5q66 0 89 51zM315 412q-44 0 -71.5 -24t-34.5 -63h200q-2 40 -27.5 63.5t-66.5 23.5zM347 580
q-67 0 -102.5 35t-31.5 100h103q5 -37 43 -37q37 0 55 37h102q-14 -65 -58.5 -100t-110.5 -35z" />
    <glyph glyph-name="Edotaccent" unicode="&#x116;" horiz-adv-x="608" 
d="M261 280l-21 -118h305l-29 -162h-510l126 715h507l-29 -162h-301l-20 -111h276l-28 -162h-276zM319 757l21 120h139l-21 -120h-139z" />
    <glyph glyph-name="edotaccent" unicode="&#x117;" horiz-adv-x="620" 
d="M382 170h198q-31 -87 -105.5 -136t-191.5 -49q-122 0 -195 64.5t-73 184.5q0 130 81 218t228 88q126 0 199.5 -69t73.5 -186q0 -28 -8 -65h-388q0 -50 24.5 -75.5t67.5 -25.5q66 0 89 51zM315 412q-44 0 -71.5 -24t-34.5 -63h200q-2 40 -27.5 63.5t-66.5 23.5zM276 587
l23 128h144l-23 -128h-144z" />
    <glyph glyph-name="Eogonek" unicode="&#x118;" horiz-adv-x="608" 
d="M261 280l-21 -118h305l-29 -162h-510l126 715h507l-29 -162h-301l-20 -111h276l-28 -162h-276zM348 -49l95 -114h-211l-76 114h192z" />
    <glyph glyph-name="eogonek" unicode="&#x119;" horiz-adv-x="620" 
d="M382 170h198q-31 -87 -105.5 -136t-191.5 -49q-122 0 -195 64.5t-73 184.5q0 130 81 218t228 88q126 0 199.5 -69t73.5 -186q0 -28 -8 -65h-388q0 -50 24.5 -75.5t67.5 -25.5q66 0 89 51zM315 412q-44 0 -71.5 -24t-34.5 -63h200q-2 40 -27.5 63.5t-66.5 23.5zM373 -49
l95 -114h-211l-76 114h192z" />
    <glyph glyph-name="Ecaron" unicode="&#x11a;" horiz-adv-x="608" 
d="M261 280l-21 -118h305l-29 -162h-510l126 715h507l-29 -162h-301l-20 -111h276l-28 -162h-276zM482 755h-193l-88 122h157l35 -48l54 48h159z" />
    <glyph glyph-name="ecaron" unicode="&#x11b;" horiz-adv-x="620" 
d="M382 170h198q-31 -87 -105.5 -136t-191.5 -49q-122 0 -195 64.5t-73 184.5q0 130 81 218t228 88q126 0 199.5 -69t73.5 -186q0 -28 -8 -65h-388q0 -50 24.5 -75.5t67.5 -25.5q66 0 89 51zM315 412q-44 0 -71.5 -24t-34.5 -63h200q-2 40 -27.5 63.5t-66.5 23.5zM444 587
h-193l-88 128h156l35 -48l54 48h160z" />
    <glyph glyph-name="Gcircumflex" unicode="&#x11c;" horiz-adv-x="806" 
d="M793 477h-212q-31 99 -140 99q-50 0 -88.5 -23t-60.5 -61.5t-33 -83.5t-11 -93q0 -80 39.5 -127t112.5 -47q120 0 165 109q-24 -2 -88 -2h-112l27 154h394l-71 -402h-173l12 59q-88 -71 -209 -71q-139 0 -225.5 86.5t-86.5 236.5q0 178 112.5 297.5t304.5 119.5
q148 0 236 -65.5t107 -185.5zM396 877h193l88 -122h-157l-35 48l-54 -48h-159z" />
    <glyph glyph-name="gcircumflex" unicode="&#x11d;" horiz-adv-x="643" 
d="M-12 -6h185q2 -32 22.5 -48t54.5 -16q55 0 81 34.5t36 113.5h-2q-61 -56 -143 -56q-92 0 -147.5 61t-55.5 167q0 51 16.5 101.5t47 93t80 69t110.5 26.5q56 0 98.5 -22t61.5 -53q7 50 9 60h190l-85 -475q-23 -131 -99.5 -188t-209.5 -57q-119 0 -183.5 50.5t-66.5 138.5z
M327 403q-50 0 -79.5 -47t-29.5 -109q0 -99 83 -99q51 0 80.5 45.5t29.5 104.5q0 105 -84 105zM292 715h193l88 -128h-156l-35 48l-54 -48h-160z" />
    <glyph glyph-name="Gbreve" unicode="&#x11e;" horiz-adv-x="806" 
d="M793 477h-212q-31 99 -140 99q-50 0 -88.5 -23t-60.5 -61.5t-33 -83.5t-11 -93q0 -80 39.5 -127t112.5 -47q120 0 165 109q-24 -2 -88 -2h-112l27 154h394l-71 -402h-173l12 59q-88 -71 -209 -71q-139 0 -225.5 86.5t-86.5 236.5q0 178 112.5 297.5t304.5 119.5
q148 0 236 -65.5t107 -185.5zM463 745q-65 0 -100 34t-31 97h101q5 -37 42 -37q38 0 54 37h100q-14 -63 -58 -97t-108 -34z" />
    <glyph glyph-name="gbreve" unicode="&#x11f;" horiz-adv-x="643" 
d="M-12 -6h185q2 -32 22.5 -48t54.5 -16q55 0 81 34.5t36 113.5h-2q-61 -56 -143 -56q-92 0 -147.5 61t-55.5 167q0 51 16.5 101.5t47 93t80 69t110.5 26.5q56 0 98.5 -22t61.5 -53q7 50 9 60h190l-85 -475q-23 -131 -99.5 -188t-209.5 -57q-119 0 -183.5 50.5t-66.5 138.5z
M327 403q-50 0 -79.5 -47t-29.5 -109q0 -99 83 -99q51 0 80.5 45.5t29.5 104.5q0 105 -84 105zM343 580q-67 0 -102.5 35t-31.5 100h103q5 -37 43 -37q37 0 55 37h102q-14 -65 -58.5 -100t-110.5 -35z" />
    <glyph glyph-name="Gdotaccent" unicode="&#x120;" horiz-adv-x="806" 
d="M793 477h-212q-31 99 -140 99q-50 0 -88.5 -23t-60.5 -61.5t-33 -83.5t-11 -93q0 -80 39.5 -127t112.5 -47q120 0 165 109q-24 -2 -88 -2h-112l27 154h394l-71 -402h-173l12 59q-88 -71 -209 -71q-139 0 -225.5 86.5t-86.5 236.5q0 178 112.5 297.5t304.5 119.5
q148 0 236 -65.5t107 -185.5zM386 757l21 120h139l-21 -120h-139z" />
    <glyph glyph-name="gdotaccent" unicode="&#x121;" horiz-adv-x="643" 
d="M-12 -6h185q2 -32 22.5 -48t54.5 -16q55 0 81 34.5t36 113.5h-2q-61 -56 -143 -56q-92 0 -147.5 61t-55.5 167q0 51 16.5 101.5t47 93t80 69t110.5 26.5q56 0 98.5 -22t61.5 -53q7 50 9 60h190l-85 -475q-23 -131 -99.5 -188t-209.5 -57q-119 0 -183.5 50.5t-66.5 138.5z
M327 403q-50 0 -79.5 -47t-29.5 -109q0 -99 83 -99q51 0 80.5 45.5t29.5 104.5q0 105 -84 105zM231 587l23 128h144l-23 -128h-144z" />
    <glyph glyph-name="Gcommaaccent" unicode="&#x122;" horiz-adv-x="806" 
d="M793 477h-212q-31 99 -140 99q-50 0 -88.5 -23t-60.5 -61.5t-33 -83.5t-11 -93q0 -80 39.5 -127t112.5 -47q120 0 165 109q-24 -2 -88 -2h-112l27 154h394l-71 -402h-173l12 59q-88 -71 -209 -71q-139 0 -225.5 86.5t-86.5 236.5q0 178 112.5 297.5t304.5 119.5
q148 0 236 -65.5t107 -185.5zM178 -163l95 114h192l-76 -114h-211z" />
    <glyph glyph-name="gcommaaccent" unicode="&#x123;" horiz-adv-x="643" 
d="M-12 -6h185q2 -32 22.5 -48t54.5 -16q55 0 81 34.5t36 113.5h-2q-61 -56 -143 -56q-92 0 -147.5 61t-55.5 167q0 51 16.5 101.5t47 93t80 69t110.5 26.5q56 0 98.5 -22t61.5 -53q7 50 9 60h190l-85 -475q-23 -131 -99.5 -188t-209.5 -57q-119 0 -183.5 50.5t-66.5 138.5z
M327 403q-50 0 -79.5 -47t-29.5 -109q0 -99 83 -99q51 0 80.5 45.5t29.5 104.5q0 105 -84 105zM511 715l-95 -114h-192l76 114h211z" />
    <glyph glyph-name="Hcircumflex" unicode="&#x124;" horiz-adv-x="758" 
d="M214 0h-208l126 715h209l-47 -264h221l47 264h208l-127 -715h-208l50 282h-221zM371 877h193l88 -122h-157l-35 48l-54 -48h-159z" />
    <glyph glyph-name="hcircumflex" unicode="&#x125;" horiz-adv-x="633" 
d="M188 0h-192l127 715h192l-23 -127q-2 -11 -15 -83q-3 -13 -7 -37q66 69 165 69q79 0 120.5 -42.5t41.5 -113.5q0 -32 -14 -110l-48 -271h-192l45 253q7 47 7 67q0 69 -61 69q-43 0 -66 -32t-35 -103zM144 877h193l88 -122h-157l-35 48l-54 -48h-159z" />
    <glyph glyph-name="Hbar" unicode="&#x126;" horiz-adv-x="758" 
d="M214 0h-208l126 715h209l-12 -64h221l12 64h208l-127 -715h-208l50 282h-221zM294 451h221l10 55h-221z" />
    <glyph glyph-name="hbar" unicode="&#x127;" horiz-adv-x="633" 
d="M63 546l22 125h30l8 44h192l-8 -44h42l-22 -125h-43l-10 -56q-2 -8 -4 -22q66 69 165 69q79 0 120.5 -42.5t41.5 -113.5q0 -32 -14 -110l-48 -271h-192l45 253q7 47 7 67q0 69 -61 69q-43 0 -66 -32t-35 -103l-45 -254h-192l97 546h-30z" />
    <glyph glyph-name="Itilde" unicode="&#x128;" horiz-adv-x="329" 
d="M341 715l-127 -715h-208l126 715h209zM173 757h-96q0 55 28.5 90.5t78.5 35.5q34 0 72 -20q31 -16 42 -16q21 0 22 30h96q0 -55 -28.5 -90.5t-78.5 -35.5q-30 0 -62 15l-10 5q-31 16 -42 16q-21 0 -22 -30z" />
    <glyph glyph-name="itilde" unicode="&#x129;" horiz-adv-x="291" 
d="M187 0h-191l92 525h192zM123 587h-96q0 59 28.5 96.5t78.5 37.5q34 0 72 -20q31 -16 42 -16q21 0 22 30h96q0 -59 -28.5 -96.5t-78.5 -37.5q-30 0 -62 15l-10 5q-31 16 -42 16q-21 0 -22 -30z" />
    <glyph glyph-name="Imacron" unicode="&#x12a;" horiz-adv-x="329" 
d="M341 715l-127 -715h-208l126 715h209zM105 761l19 110h273l-19 -110h-273z" />
    <glyph glyph-name="imacron" unicode="&#x12b;" horiz-adv-x="291" 
d="M187 0h-191l92 525h192zM57 597l19 110h273l-19 -110h-273z" />
    <glyph glyph-name="Ibreve" unicode="&#x12c;" horiz-adv-x="329" 
d="M341 715l-127 -715h-208l126 715h209zM242 745q-65 0 -100 34t-31 97h101q5 -37 42 -37q38 0 54 37h100q-14 -63 -58 -97t-108 -34z" />
    <glyph glyph-name="ibreve" unicode="&#x12d;" horiz-adv-x="291" 
d="M187 0h-191l92 525h192zM195 580q-67 0 -102.5 35t-31.5 100h103q5 -37 43 -37q37 0 55 37h102q-14 -65 -58.5 -100t-110.5 -35z" />
    <glyph glyph-name="Iogonek" unicode="&#x12e;" horiz-adv-x="329" 
d="M341 715l-127 -715h-208l126 715h209zM189 -49l95 -114h-211l-76 114h192z" />
    <glyph glyph-name="iogonek" unicode="&#x12f;" horiz-adv-x="291" 
d="M98 579l24 136h192l-24 -136h-192zM187 0h-191l92 525h192zM181 -49l95 -114h-211l-76 114h192z" />
    <glyph glyph-name="Idotaccent" unicode="&#x130;" horiz-adv-x="329" 
d="M341 715l-127 -715h-208l126 715h209zM172 757l21 120h139l-21 -120h-139z" />
    <glyph glyph-name="dotlessi" unicode="&#x131;" horiz-adv-x="291" 
d="M187 0h-191l92 525h192z" />
    <glyph glyph-name="IJ" unicode="&#x132;" horiz-adv-x="885" 
d="M341 715l-127 -715h-208l126 715h209zM530 -15q-108 0 -163.5 44.5t-55.5 129.5q0 11 2 33h181v-6q0 -48 46 -48q29 0 44 25t27 87l82 465h209l-84 -475q-24 -134 -94 -194.5t-194 -60.5z" />
    <glyph glyph-name="ij" unicode="&#x133;" horiz-adv-x="583" 
d="M98 579l24 136h192l-24 -136h-192zM187 0h-191l92 525h192zM572 525l-93 -527q-20 -109 -71.5 -149.5t-159.5 -40.5q-64 0 -88 6l22 128q8 -1 17 -1q44 0 63.5 17.5t27.5 61.5l90 505h192zM389 579l24 136h192l-24 -136h-192z" />
    <glyph glyph-name="Jcircumflex" unicode="&#x134;" horiz-adv-x="556" 
d="M201 -15q-108 0 -163.5 44.5t-55.5 129.5q0 11 2 33h181v-6q0 -48 46 -48q29 0 44 25t27 87l82 465h209l-84 -475q-24 -134 -94 -194.5t-194 -60.5zM391 877h193l88 -122h-157l-35 48l-54 -48h-159z" />
    <glyph glyph-name="jcircumflex" unicode="&#x135;" horiz-adv-x="292" 
d="M281 525l-93 -527q-20 -109 -71.5 -149.5t-159.5 -40.5q-64 0 -88 6l22 128q8 -1 17 -1q44 0 63.5 17.5t27.5 61.5l90 505h192zM107 715h193l88 -128h-156l-35 48l-54 -48h-160z" />
    <glyph glyph-name="Kcommaaccent" unicode="&#x136;" horiz-adv-x="732" 
d="M214 0h-208l126 715h209l-54 -307h2q12 13 276 307h256q-62 -64 -181 -181t-159 -158q23 -38 100.5 -178t112.5 -198h-242q-137 274 -173 352h-2zM150 -163l95 114h192l-76 -114h-211z" />
    <glyph glyph-name="kcommaaccent" unicode="&#x137;" horiz-adv-x="628" 
d="M187 0h-191l126 715h192l-74 -413h1q25 25 98 111t93 112h235q-54 -54 -143.5 -147t-97.5 -101q52 -95 162 -277h-237q-105 218 -118 251h-1zM97 -163l95 114h192l-76 -114h-211z" />
    <glyph glyph-name="kgreenlandic" unicode="&#x138;" horiz-adv-x="628" 
d="M89 525h191l-40 -223h1q25 25 98 111t93 112h235q-54 -54 -143.5 -147t-97.5 -101q52 -95 162 -277h-237q-105 218 -118 251h-1l-45 -251h-191z" />
    <glyph glyph-name="Lacute" unicode="&#x139;" horiz-adv-x="579" 
d="M132 715h209l-98 -553h298l-29 -162h-506zM329 758h-191l99 119h233z" />
    <glyph glyph-name="lacute" unicode="&#x13a;" horiz-adv-x="294" 
d="M188 0h-191l126 715h192zM306 758h-191l99 119h233z" />
    <glyph glyph-name="Lcommaaccent" unicode="&#x13b;" horiz-adv-x="579" 
d="M132 715h209l-98 -553h298l-29 -162h-506zM82 -163l95 114h192l-76 -114h-211z" />
    <glyph glyph-name="lcommaaccent" unicode="&#x13c;" horiz-adv-x="294" 
d="M188 0h-191l126 715h192zM-85 -163l95 114h192l-76 -114h-211z" />
    <glyph glyph-name="Lcaron" unicode="&#x13d;" horiz-adv-x="582" 
d="M132 715h209l-98 -553h298l-29 -162h-506zM644 715l-139 -255h-157l114 255h182z" />
    <glyph glyph-name="lcaron" unicode="&#x13e;" horiz-adv-x="442" 
d="M188 0h-191l126 715h192zM609 715l-139 -255h-157l114 255h182z" />
    <glyph glyph-name="Ldot" unicode="&#x13f;" horiz-adv-x="579" 
d="M132 715h209l-98 -553h298l-29 -162h-506zM335 264l31 176h185l-31 -176h-185z" />
    <glyph glyph-name="ldot" unicode="&#x140;" horiz-adv-x="512" 
d="M188 0h-191l126 715h192zM303 264l31 176h185l-31 -176h-185z" />
    <glyph glyph-name="Lslash" unicode="&#x141;" horiz-adv-x="590" 
d="M144 715h209l-33 -184l78 46l-29 -164l-78 -46l-36 -205h298l-29 -162h-506l41 231l-73 -42l29 164l73 42z" />
    <glyph glyph-name="lslash" unicode="&#x142;" horiz-adv-x="318" 
d="M198 0h-191l44 249l-53 -31l30 174l53 31l52 292h192l-30 -167l62 36l-30 -174l-63 -37z" />
    <glyph glyph-name="Nacute" unicode="&#x143;" horiz-adv-x="772" 
d="M784 715l-127 -715h-260l-78 282q-26 94 -39 196h-3q-10 -88 -33 -207l-48 -271h-190l126 715h269l57 -223q29 -107 54 -243l2 1h2q10 87 32 210l45 255h191zM533 758h-191l99 119h233z" />
    <glyph glyph-name="nacute" unicode="&#x144;" horiz-adv-x="633" 
d="M188 0h-192l93 525h184l-6 -33q-5 -25 -7 -34h1q66 79 174 79q79 0 120.5 -42.5t41.5 -113.5q0 -32 -14 -110l-48 -271h-192l45 253q7 47 7 67q0 69 -61 69q-43 0 -66 -32t-35 -103zM427 587h-191l108 128h233z" />
    <glyph glyph-name="Ncommaaccent" unicode="&#x145;" horiz-adv-x="772" 
d="M784 715l-127 -715h-260l-78 282q-26 94 -39 196h-3q-10 -88 -33 -207l-48 -271h-190l126 715h269l57 -223q29 -107 54 -243l2 1h2q10 87 32 210l45 255h191zM158 -163l95 114h192l-76 -114h-211z" />
    <glyph glyph-name="ncommaaccent" unicode="&#x146;" horiz-adv-x="633" 
d="M188 0h-192l93 525h184l-6 -33q-5 -25 -7 -34h1q66 79 174 79q79 0 120.5 -42.5t41.5 -113.5q0 -32 -14 -110l-48 -271h-192l45 253q7 47 7 67q0 69 -61 69q-43 0 -66 -32t-35 -103zM93 -163l95 114h192l-76 -114h-211z" />
    <glyph glyph-name="Ncaron" unicode="&#x147;" horiz-adv-x="772" 
d="M784 715l-127 -715h-260l-78 282q-26 94 -39 196h-3q-10 -88 -33 -207l-48 -271h-190l126 715h269l57 -223q29 -107 54 -243l2 1h2q10 87 32 210l45 255h191zM557 755h-193l-88 122h157l35 -48l54 48h159z" />
    <glyph glyph-name="ncaron" unicode="&#x148;" horiz-adv-x="633" 
d="M188 0h-192l93 525h184l-6 -33q-5 -25 -7 -34h1q66 79 174 79q79 0 120.5 -42.5t41.5 -113.5q0 -32 -14 -110l-48 -271h-192l45 253q7 47 7 67q0 69 -61 69q-43 0 -66 -32t-35 -103zM456 587h-193l-88 128h156l35 -48l54 48h160z" />
    <glyph glyph-name="napostrophe" unicode="&#x149;" horiz-adv-x="786" 
d="M341 0h-192l93 525h184l-6 -33q-5 -25 -7 -34h1q66 79 174 79q79 0 120.5 -42.5t41.5 -113.5q0 -32 -14 -110l-48 -271h-192l45 253q7 47 7 67q0 69 -61 69q-43 0 -66 -32t-35 -103zM301 715l-139 -255h-157l114 255h182z" />
    <glyph glyph-name="Eng" unicode="&#x14a;" horiz-adv-x="772" 
d="M784 715l-119 -672q-23 -126 -78.5 -179.5t-169.5 -53.5q-197 0 -197 177v13h164v-5q0 -45 44 -45q40 0 51 50h-82l-78 282q-26 94 -39 196h-3q-10 -88 -33 -207l-48 -271h-190l126 715h269l57 -223q29 -107 54 -243l2 1h2q10 87 32 210l45 255h191z" />
    <glyph glyph-name="eng" unicode="&#x14b;" horiz-adv-x="633" 
d="M583 271l-48 -273q-20 -109 -71.5 -149.5t-159.5 -40.5q-64 0 -88 6l22 128q8 -1 17 -1q44 0 64 17.5t28 61.5l41 233q7 38 7 67q0 69 -61 69q-43 0 -66 -32t-35 -103l-45 -254h-192l93 525h184l-6 -33l-7 -34h1q66 79 174 79q79 0 120.5 -42.5t41.5 -113.5
q0 -30 -14 -110z" />
    <glyph glyph-name="Omacron" unicode="&#x14c;" horiz-adv-x="821" 
d="M458 728q163 0 255.5 -82.5t92.5 -228.5q0 -123 -46.5 -218.5t-144.5 -153.5t-236 -58q-158 0 -252 83.5t-94 232.5q0 119 47.5 214t145.5 153t232 58zM397 143q66 0 112 41.5t64.5 99.5t18.5 125q0 76 -38 121.5t-111 45.5q-66 0 -111.5 -40.5t-64.5 -97.5t-19 -123
q0 -81 37 -126.5t112 -45.5zM345 761l19 110h273l-19 -110h-273z" />
    <glyph glyph-name="omacron" unicode="&#x14d;" horiz-adv-x="641" 
d="M298 124q54 0 84.5 51t30.5 121q0 50 -21.5 79.5t-64.5 29.5q-54 0 -85.5 -50t-31.5 -116q0 -115 88 -115zM338 540q125 0 199 -64t74 -179q0 -138 -83.5 -225.5t-239.5 -87.5q-123 0 -198 63t-75 184q0 133 84 221t239 88zM224 597l19 110h273l-19 -110h-273z" />
    <glyph glyph-name="Obreve" unicode="&#x14e;" horiz-adv-x="821" 
d="M458 728q163 0 255.5 -82.5t92.5 -228.5q0 -123 -46.5 -218.5t-144.5 -153.5t-236 -58q-158 0 -252 83.5t-94 232.5q0 119 47.5 214t145.5 153t232 58zM397 143q66 0 112 41.5t64.5 99.5t18.5 125q0 76 -38 121.5t-111 45.5q-66 0 -111.5 -40.5t-64.5 -97.5t-19 -123
q0 -81 37 -126.5t112 -45.5zM480 745q-65 0 -100 34t-31 97h101q5 -37 42 -37q38 0 54 37h100q-14 -63 -58 -97t-108 -34z" />
    <glyph glyph-name="obreve" unicode="&#x14f;" horiz-adv-x="641" 
d="M298 124q54 0 84.5 51t30.5 121q0 50 -21.5 79.5t-64.5 29.5q-54 0 -85.5 -50t-31.5 -116q0 -115 88 -115zM338 540q125 0 199 -64t74 -179q0 -138 -83.5 -225.5t-239.5 -87.5q-123 0 -198 63t-75 184q0 133 84 221t239 88zM367 580q-67 0 -102.5 35t-31.5 100h103
q5 -37 43 -37q37 0 55 37h102q-14 -65 -58.5 -100t-110.5 -35z" />
    <glyph glyph-name="Ohungarumlaut" unicode="&#x150;" horiz-adv-x="821" 
d="M458 728q163 0 255.5 -82.5t92.5 -228.5q0 -123 -46.5 -218.5t-144.5 -153.5t-236 -58q-158 0 -252 83.5t-94 232.5q0 119 47.5 214t145.5 153t232 58zM397 143q66 0 112 41.5t64.5 99.5t18.5 125q0 76 -38 121.5t-111 45.5q-66 0 -111.5 -40.5t-64.5 -97.5t-19 -123
q0 -81 37 -126.5t112 -45.5zM439 758h-186l99 119h228zM710 758h-186l99 119h228z" />
    <glyph glyph-name="ohungarumlaut" unicode="&#x151;" horiz-adv-x="641" 
d="M298 124q54 0 84.5 51t30.5 121q0 50 -21.5 79.5t-64.5 29.5q-54 0 -85.5 -50t-31.5 -116q0 -115 88 -115zM338 540q125 0 199 -64t74 -179q0 -138 -83.5 -225.5t-239.5 -87.5q-123 0 -198 63t-75 184q0 133 84 221t239 88zM292 587h-181l108 128h223zM552 587h-181
l108 128h223z" />
    <glyph glyph-name="OE" unicode="&#x152;" horiz-adv-x="1108" 
d="M761 280l-21 -118h305l-29 -162h-490l4 27q-80 -39 -179 -39q-142 0 -230 86.5t-88 235.5q0 178 111 298t304 120q111 0 194 -44l6 31h491l-29 -162h-301l-20 -111h276l-28 -162h-276zM395 143q66 0 111.5 41.5t63.5 99.5t18 125q0 77 -36.5 122t-110.5 45
q-50 0 -88.5 -23t-60.5 -61.5t-33 -83.5t-11 -93q0 -172 147 -172z" />
    <glyph glyph-name="oe" unicode="&#x153;" horiz-adv-x="1013" 
d="M775 170h198q-31 -87 -105.5 -136t-191.5 -49q-113 0 -185 60q-86 -61 -203 -61q-123 0 -198 63t-75 184q0 133 83.5 221t235.5 88q116 0 191 -61q81 61 195 61q124 0 197 -69.5t73 -185.5q0 -28 -8 -65h-388q0 -50 24.5 -75.5t67.5 -25.5q66 0 89 51zM298 124
q54 0 84.5 51t30.5 121q0 50 -21.5 79.5t-64.5 29.5q-54 0 -85.5 -50t-31.5 -116q0 -115 88 -115zM708 412q-44 0 -71.5 -24t-34.5 -63h200q-2 40 -27.5 63.5t-66.5 23.5z" />
    <glyph glyph-name="Racute" unicode="&#x154;" horiz-adv-x="677" 
d="M6 0l127 715h283q75 0 121 -8.5t80 -34.5q66 -48 66 -140q0 -93 -50 -159t-134 -93l127 -280h-230l-99 252h-43l-44 -252h-204zM308 559l-27 -153h70q119 0 119 88q0 37 -23 51t-74 14h-65zM483 758h-191l99 119h233z" />
    <glyph glyph-name="racute" unicode="&#x155;" horiz-adv-x="423" 
d="M-4 0l76 430q5 24 16 95h178q-4 -18 -8.5 -43t-5.5 -31h2q24 39 68.5 63t98.5 24q15 0 29 -2l-30 -168q-15 4 -40 4q-81 0 -112 -48t-53 -178l-26 -146h-193zM296 587h-191l108 128h233z" />
    <glyph glyph-name="Rcommaaccent" unicode="&#x156;" horiz-adv-x="677" 
d="M6 0l127 715h283q75 0 121 -8.5t80 -34.5q66 -48 66 -140q0 -93 -50 -159t-134 -93l127 -280h-230l-99 252h-43l-44 -252h-204zM308 559l-27 -153h70q119 0 119 88q0 37 -23 51t-74 14h-65zM126 -163l95 114h192l-76 -114h-211z" />
    <glyph glyph-name="rcommaaccent" unicode="&#x157;" horiz-adv-x="423" 
d="M-4 0l76 430q5 24 16 95h178q-4 -18 -8.5 -43t-5.5 -31h2q24 39 68.5 63t98.5 24q15 0 29 -2l-30 -168q-15 4 -40 4q-81 0 -112 -48t-53 -178l-26 -146h-193zM-82 -163l95 114h192l-76 -114h-211z" />
    <glyph glyph-name="Rcaron" unicode="&#x158;" horiz-adv-x="677" 
d="M6 0l127 715h283q75 0 121 -8.5t80 -34.5q66 -48 66 -140q0 -93 -50 -159t-134 -93l127 -280h-230l-99 252h-43l-44 -252h-204zM308 559l-27 -153h70q119 0 119 88q0 37 -23 51t-74 14h-65zM495 755h-193l-88 122h157l35 -48l54 48h159z" />
    <glyph glyph-name="rcaron" unicode="&#x159;" horiz-adv-x="423" 
d="M-4 0l76 430q5 24 16 95h178q-4 -18 -8.5 -43t-5.5 -31h2q24 39 68.5 63t98.5 24q15 0 29 -2l-30 -168q-15 4 -40 4q-81 0 -112 -48t-53 -178l-26 -146h-193zM310 587h-193l-88 128h156l35 -48l54 48h160z" />
    <glyph glyph-name="Sacute" unicode="&#x15a;" horiz-adv-x="651" 
d="M12 225h206q1 -90 98 -90q47 0 71 18.5t24 49.5q0 27 -21.5 40.5t-77.5 29.5l-42 13q-108 31 -157.5 80.5t-49.5 129.5q0 109 82 170.5t214 61.5q135 0 205 -57t71 -168h-200q-4 80 -87 80q-37 0 -57.5 -16t-20.5 -42q0 -29 23.5 -45t85.5 -36l34 -11q36 -11 61 -21
t54.5 -27t48 -37t30.5 -49.5t12 -65.5q0 -120 -87.5 -183t-234.5 -63q-124 0 -204.5 58.5t-80.5 179.5zM449 758h-191l99 119h233z" />
    <glyph glyph-name="sacute" unicode="&#x15b;" horiz-adv-x="562" 
d="M-1 175h183q0 -70 79 -70q36 0 54 13t18 32q0 17 -17.5 26.5t-65.5 21.5l-56 14q-81 21 -119.5 56.5t-38.5 99.5q0 83 70.5 129.5t191.5 46.5q113 0 173 -44.5t61 -131.5h-172q-6 54 -75 54q-65 0 -65 -38q0 -16 15 -25t62 -21l45 -12q92 -24 135.5 -60.5t43.5 -93.5
q0 -91 -73 -139.5t-202 -48.5q-243 0 -247 191zM375 587h-191l108 128h233z" />
    <glyph glyph-name="Scircumflex" unicode="&#x15c;" horiz-adv-x="651" 
d="M12 225h206q1 -90 98 -90q47 0 71 18.5t24 49.5q0 27 -21.5 40.5t-77.5 29.5l-42 13q-108 31 -157.5 80.5t-49.5 129.5q0 109 82 170.5t214 61.5q135 0 205 -57t71 -168h-200q-4 80 -87 80q-37 0 -57.5 -16t-20.5 -42q0 -29 23.5 -45t85.5 -36l34 -11q36 -11 61 -21
t54.5 -27t48 -37t30.5 -49.5t12 -65.5q0 -120 -87.5 -183t-234.5 -63q-124 0 -204.5 58.5t-80.5 179.5zM293 877h193l88 -122h-157l-35 48l-54 -48h-159z" />
    <glyph glyph-name="scircumflex" unicode="&#x15d;" horiz-adv-x="562" 
d="M-1 175h183q0 -70 79 -70q36 0 54 13t18 32q0 17 -17.5 26.5t-65.5 21.5l-56 14q-81 21 -119.5 56.5t-38.5 99.5q0 83 70.5 129.5t191.5 46.5q113 0 173 -44.5t61 -131.5h-172q-6 54 -75 54q-65 0 -65 -38q0 -16 15 -25t62 -21l45 -12q92 -24 135.5 -60.5t43.5 -93.5
q0 -91 -73 -139.5t-202 -48.5q-243 0 -247 191zM233 715h193l88 -128h-156l-35 48l-54 -48h-160z" />
    <glyph glyph-name="Scedilla" unicode="&#x15e;" horiz-adv-x="651" 
d="M12 225h206q1 -90 98 -90q47 0 71 18.5t24 49.5q0 27 -21.5 40.5t-77.5 29.5l-42 13q-108 31 -157.5 80.5t-49.5 129.5q0 109 82 170.5t214 61.5q135 0 205 -57t71 -168h-200q-4 80 -87 80q-37 0 -57.5 -16t-20.5 -42q0 -29 23.5 -45t85.5 -36l34 -11q36 -11 61 -21
t54.5 -27t48 -37t30.5 -49.5t12 -65.5q0 -120 -87.5 -183t-234.5 -63q-124 0 -204.5 58.5t-80.5 179.5zM119 -163l95 114h192l-76 -114h-211z" />
    <glyph glyph-name="scedilla" unicode="&#x15f;" horiz-adv-x="562" 
d="M-1 175h183q0 -70 79 -70q36 0 54 13t18 32q0 17 -17.5 26.5t-65.5 21.5l-56 14q-81 21 -119.5 56.5t-38.5 99.5q0 83 70.5 129.5t191.5 46.5q113 0 173 -44.5t61 -131.5h-172q-6 54 -75 54q-65 0 -65 -38q0 -16 15 -25t62 -21l45 -12q92 -24 135.5 -60.5t43.5 -93.5
q0 -91 -73 -139.5t-202 -48.5q-243 0 -247 191zM76 -163l95 114h192l-76 -114h-211z" />
    <glyph glyph-name="Scaron" unicode="&#x160;" horiz-adv-x="651" 
d="M12 225h206q1 -90 98 -90q47 0 71 18.5t24 49.5q0 27 -21.5 40.5t-77.5 29.5l-42 13q-108 31 -157.5 80.5t-49.5 129.5q0 109 82 170.5t214 61.5q135 0 205 -57t71 -168h-200q-4 80 -87 80q-37 0 -57.5 -16t-20.5 -42q0 -29 23.5 -45t85.5 -36l34 -11q36 -11 61 -21
t54.5 -27t48 -37t30.5 -49.5t12 -65.5q0 -120 -87.5 -183t-234.5 -63q-124 0 -204.5 58.5t-80.5 179.5zM477 755h-193l-88 122h157l35 -48l54 48h159z" />
    <glyph glyph-name="scaron" unicode="&#x161;" horiz-adv-x="562" 
d="M-1 175h183q0 -70 79 -70q36 0 54 13t18 32q0 17 -17.5 26.5t-65.5 21.5l-56 14q-81 21 -119.5 56.5t-38.5 99.5q0 83 70.5 129.5t191.5 46.5q113 0 173 -44.5t61 -131.5h-172q-6 54 -75 54q-65 0 -65 -38q0 -16 15 -25t62 -21l45 -12q92 -24 135.5 -60.5t43.5 -93.5
q0 -91 -73 -139.5t-202 -48.5q-243 0 -247 191zM404 587h-193l-88 128h156l35 -48l54 48h160z" />
    <glyph glyph-name="uni0162" unicode="&#x162;" horiz-adv-x="601" 
d="M350 0h-208l97 550h-182l30 165h572l-30 -165h-182zM61 -163l95 114h192l-76 -114h-211z" />
    <glyph glyph-name="uni0163" unicode="&#x163;" horiz-adv-x="389" 
d="M98 386h-75l24 139h75l25 142h192l-25 -142h88l-24 -139h-88l-23 -131q-11 -58 -11 -84q0 -24 10 -33.5t36 -9.5q10 0 25 3l-24 -136q-35 -7 -88 -7q-88 0 -127 20t-39 84q0 24 8 70zM0 -163l95 114h192l-76 -114h-211z" />
    <glyph glyph-name="Tcaron" unicode="&#x164;" horiz-adv-x="601" 
d="M350 0h-208l97 550h-182l30 165h572l-30 -165h-182zM466 755h-193l-88 122h157l35 -48l54 48h159z" />
    <glyph glyph-name="tcaron" unicode="&#x165;" horiz-adv-x="526" 
d="M98 386h-75l24 139h75l25 142h192l-25 -142h88l-24 -139h-88l-23 -131q-11 -58 -11 -84q0 -24 10 -33.5t36 -9.5q10 0 25 3l-24 -136q-35 -7 -88 -7q-88 0 -127 20t-39 84q0 24 8 70zM712 715l-139 -255h-157l114 255h182z" />
    <glyph glyph-name="Tbar" unicode="&#x166;" horiz-adv-x="610" 
d="M82 273l29 165h113l19 112h-182l30 165h572l-30 -165h-182l-19 -112h119l-29 -165h-119l-49 -273h-208l49 273h-113z" />
    <glyph glyph-name="tbar" unicode="&#x167;" horiz-adv-x="391" 
d="M-4 220l22 125h74l8 41h-75l24 139h75l25 142h192l-25 -142h88l-24 -139h-88l-7 -41h84l-22 -125h-84q-5 -33 -5 -49q0 -24 10 -33.5t36 -9.5q10 0 25 3l-24 -136q-35 -7 -88 -7q-88 0 -127 20t-39 84q0 24 8 70l10 58h-73z" />
    <glyph glyph-name="Utilde" unicode="&#x168;" horiz-adv-x="735" 
d="M754 715l-76 -430q-27 -155 -111 -227.5t-256 -72.5q-269 0 -269 229q0 38 11 99l71 402h208l-74 -416q-6 -30 -6 -56q0 -95 93 -95q56 0 85 33.5t42 109.5l75 424h207zM395 757h-96q0 55 28.5 90.5t78.5 35.5q34 0 72 -20q31 -16 42 -16q21 0 22 30h96
q0 -55 -28.5 -90.5t-78.5 -35.5q-30 0 -62 15l-10 5q-31 16 -42 16q-21 0 -22 -30z" />
    <glyph glyph-name="utilde" unicode="&#x169;" horiz-adv-x="628" 
d="M425 525h192l-93 -525h-184l6 33q5 25 7 34h-1q-65 -78 -171 -78q-78 0 -119 42.5t-41 113.5q0 32 14 110l48 270h192l-45 -252q-7 -47 -7 -67q0 -70 60 -70q41 0 63 32t34 103zM306 587h-96q0 59 28.5 96.5t78.5 37.5q34 0 72 -20q31 -16 42 -16q21 0 22 30h96
q0 -59 -28.5 -96.5t-78.5 -37.5q-30 0 -62 15l-10 5q-31 16 -42 16q-21 0 -22 -30z" />
    <glyph glyph-name="Umacron" unicode="&#x16a;" horiz-adv-x="735" 
d="M754 715l-76 -430q-27 -155 -111 -227.5t-256 -72.5q-269 0 -269 229q0 38 11 99l71 402h208l-74 -416q-6 -30 -6 -56q0 -95 93 -95q56 0 85 33.5t42 109.5l75 424h207zM309 761l19 110h273l-19 -110h-273z" />
    <glyph glyph-name="umacron" unicode="&#x16b;" horiz-adv-x="628" 
d="M425 525h192l-93 -525h-184l6 33q5 25 7 34h-1q-65 -78 -171 -78q-78 0 -119 42.5t-41 113.5q0 32 14 110l48 270h192l-45 -252q-7 -47 -7 -67q0 -70 60 -70q41 0 63 32t34 103zM228 597l19 110h273l-19 -110h-273z" />
    <glyph glyph-name="Ubreve" unicode="&#x16c;" horiz-adv-x="735" 
d="M754 715l-76 -430q-27 -155 -111 -227.5t-256 -72.5q-269 0 -269 229q0 38 11 99l71 402h208l-74 -416q-6 -30 -6 -56q0 -95 93 -95q56 0 85 33.5t42 109.5l75 424h207zM452 745q-65 0 -100 34t-31 97h101q5 -37 42 -37q38 0 54 37h100q-14 -63 -58 -97t-108 -34z" />
    <glyph glyph-name="ubreve" unicode="&#x16d;" horiz-adv-x="628" 
d="M425 525h192l-93 -525h-184l6 33q5 25 7 34h-1q-65 -78 -171 -78q-78 0 -119 42.5t-41 113.5q0 32 14 110l48 270h192l-45 -252q-7 -47 -7 -67q0 -70 60 -70q41 0 63 32t34 103zM369 580q-67 0 -102.5 35t-31.5 100h103q5 -37 43 -37q37 0 55 37h102q-14 -65 -58.5 -100
t-110.5 -35z" />
    <glyph glyph-name="Uring" unicode="&#x16e;" horiz-adv-x="735" 
d="M754 715l-76 -430q-27 -155 -111 -227.5t-256 -72.5q-269 0 -269 229q0 38 11 99l71 402h208l-74 -416q-6 -30 -6 -56q0 -95 93 -95q56 0 85 33.5t42 109.5l75 424h207zM446 738q-45 0 -76 32t-31 77q0 44 32 75.5t76 31.5q45 0 76.5 -31.5t31.5 -75.5q0 -45 -31.5 -77
t-77.5 -32zM410 847q0 -16 10.5 -26.5t25.5 -10.5q16 0 26 10t10 27q0 15 -10 25t-26 10q-15 0 -25.5 -10.5t-10.5 -24.5z" />
    <glyph glyph-name="uring" unicode="&#x16f;" horiz-adv-x="628" 
d="M425 525h192l-93 -525h-184l6 33q5 25 7 34h-1q-65 -78 -171 -78q-78 0 -119 42.5t-41 113.5q0 32 14 110l48 270h192l-45 -252q-7 -47 -7 -67q0 -70 60 -70q41 0 63 32t34 103zM367 568q-45 0 -76 32t-31 77q0 44 32 75.5t76 31.5q45 0 76.5 -31.5t31.5 -75.5
q0 -45 -31.5 -77t-77.5 -32zM331 677q0 -16 10.5 -26.5t25.5 -10.5q16 0 26 10t10 27q0 15 -10.5 25t-25.5 10t-25.5 -10.5t-10.5 -24.5z" />
    <glyph glyph-name="Uhungarumlaut" unicode="&#x170;" horiz-adv-x="735" 
d="M754 715l-76 -430q-27 -155 -111 -227.5t-256 -72.5q-269 0 -269 229q0 38 11 99l71 402h208l-74 -416q-6 -30 -6 -56q0 -95 93 -95q56 0 85 33.5t42 109.5l75 424h207zM381 758h-186l99 119h228zM652 758h-186l99 119h228z" />
    <glyph glyph-name="uhungarumlaut" unicode="&#x171;" horiz-adv-x="628" 
d="M425 525h192l-93 -525h-184l6 33q5 25 7 34h-1q-65 -78 -171 -78q-78 0 -119 42.5t-41 113.5q0 32 14 110l48 270h192l-45 -252q-7 -47 -7 -67q0 -70 60 -70q41 0 63 32t34 103zM305 587h-181l108 128h223zM565 587h-181l108 128h223z" />
    <glyph glyph-name="Uogonek" unicode="&#x172;" horiz-adv-x="735" 
d="M754 715l-76 -430q-27 -155 -111 -227.5t-256 -72.5q-269 0 -269 229q0 38 11 99l71 402h208l-74 -416q-6 -30 -6 -56q0 -95 93 -95q56 0 85 33.5t42 109.5l75 424h207zM407 -49l95 -114h-211l-76 114h192z" />
    <glyph glyph-name="uogonek" unicode="&#x173;" horiz-adv-x="628" 
d="M425 525h192l-93 -525h-184l6 33q5 25 7 34h-1q-65 -78 -171 -78q-78 0 -119 42.5t-41 113.5q0 32 14 110l48 270h192l-45 -252q-7 -47 -7 -67q0 -70 60 -70q41 0 63 32t34 103zM345 -49l95 -114h-211l-76 114h192z" />
    <glyph glyph-name="Wcircumflex" unicode="&#x174;" horiz-adv-x="1053" 
d="M1119 715l-273 -715h-289l6 331q0 91 7 185h-5q-21 -86 -58 -185l-116 -331h-293l-18 715h213l-7 -346q-1 -76 -8 -189h5q15 52 74 224l111 311h273l-3 -297q0 -159 -8 -234h5q28 105 58 187l122 344h204zM530 877h193l88 -122h-157l-35 48l-54 -48h-159z" />
    <glyph glyph-name="wcircumflex" unicode="&#x175;" horiz-adv-x="880" 
d="M313 0h-217q-10 92 -28.5 269t-27.5 256h187l8 -172q3 -67 3 -179h3q22 65 72 190l64 161h194l8 -163q4 -82 6 -188h2q30 81 71 187l64 164h193q-42 -92 -123.5 -266.5t-119.5 -258.5h-218l-10 141q-5 71 -5 166h-3q-35 -99 -63 -165zM400 715h193l88 -128h-156l-35 48
l-54 -48h-160z" />
    <glyph glyph-name="Ycircumflex" unicode="&#x176;" horiz-adv-x="641" 
d="M507 715h216q-18 -28 -84 -122t-100 -144l-126 -181l-48 -268h-208l48 268q-9 30 -27 85.5t-25 77.5q-17 54 -53 161.5t-41 122.5h208q52 -197 71 -280h2q75 133 167 280zM304 877h193l88 -122h-157l-35 48l-54 -48h-159z" />
    <glyph glyph-name="ycircumflex" unicode="&#x177;" horiz-adv-x="576" 
d="M413 525h204q-178 -333 -379 -705h-192q7 13 47 82t52 95q-17 79 -58 261t-60 267h201q26 -182 41 -312h5q83 197 139 312zM245 715h193l88 -128h-156l-35 48l-54 -48h-160z" />
    <glyph glyph-name="Ydieresis" unicode="&#x178;" horiz-adv-x="641" 
d="M507 715h216q-18 -28 -84 -122t-100 -144l-126 -181l-48 -268h-208l48 268q-9 30 -27 85.5t-25 77.5q-17 54 -53 161.5t-41 122.5h208q52 -197 71 -280h2q75 133 167 280zM221 757l21 120h139l-21 -120h-139zM413 757l21 120h139l-21 -120h-139z" />
    <glyph glyph-name="Zacute" unicode="&#x179;" horiz-adv-x="628" 
d="M-21 0l28 157l293 303l91 92q-1 1 -1 2q-45 -3 -121 -3h-188l29 164h547l-28 -159l-240 -253q-105 -110 -137 -142v-2q48 3 121 3h201l-29 -162h-566zM458 758h-191l99 119h233z" />
    <glyph glyph-name="zacute" unicode="&#x17a;" horiz-adv-x="548" 
d="M-22 0l23 134q138 119 291 253v1q-29 -2 -125 -2h-118l25 139h471l-24 -134q-93 -88 -287 -252v-1q90 2 133 2h125l-25 -140h-489zM376 587h-191l108 128h233z" />
    <glyph glyph-name="Zdotaccent" unicode="&#x17b;" horiz-adv-x="628" 
d="M-21 0l28 157l293 303l91 92q-1 1 -1 2q-45 -3 -121 -3h-188l29 164h547l-28 -159l-240 -253q-105 -110 -137 -142v-2q48 3 121 3h201l-29 -162h-566zM309 757l21 120h139l-21 -120h-139z" />
    <glyph glyph-name="zdotaccent" unicode="&#x17c;" horiz-adv-x="548" 
d="M-22 0l23 134q138 119 291 253v1q-29 -2 -125 -2h-118l25 139h471l-24 -134q-93 -88 -287 -252v-1q90 2 133 2h125l-25 -140h-489zM237 587l23 128h144l-23 -128h-144z" />
    <glyph glyph-name="Zcaron" unicode="&#x17d;" horiz-adv-x="628" 
d="M-21 0l28 157l293 303l91 92q-1 1 -1 2q-45 -3 -121 -3h-188l29 164h547l-28 -159l-240 -253q-105 -110 -137 -142v-2q48 3 121 3h201l-29 -162h-566zM472 755h-193l-88 122h157l35 -48l54 48h159z" />
    <glyph glyph-name="zcaron" unicode="&#x17e;" horiz-adv-x="548" 
d="M-22 0l23 134q138 119 291 253v1q-29 -2 -125 -2h-118l25 139h471l-24 -134q-93 -88 -287 -252v-1q90 2 133 2h125l-25 -140h-489zM411 587h-193l-88 128h156l35 -48l54 48h160z" />
    <glyph glyph-name="uni0186" unicode="&#x186;" horiz-adv-x="781" 
d="M7 238h212q31 -99 140 -99q50 0 88.5 23t60.5 61.5t33 83.5t11 93q0 81 -37 126.5t-110 45.5q-94 0 -147 -82h-220q46 110 143 174t242 64q156 0 250 -84t94 -232q0 -119 -48 -214.5t-144 -153t-225 -57.5q-148 0 -236 65.5t-107 185.5z" />
    <glyph glyph-name="uni018F" unicode="&#x18f;" horiz-adv-x="802" 
d="M33 414h545q-2 73 -42 117t-114 44q-93 0 -149 -87h-223q44 104 140 172t242 68q168 0 262 -83.5t94 -233.5q0 -182 -118.5 -303t-315.5 -121q-161 0 -245 87.5t-84 239.5q0 60 8 100zM373 134q69 0 115.5 40t62.5 105h-321q5 -145 143 -145z" />
    <glyph glyph-name="uni0190" unicode="&#x190;" horiz-adv-x="599" 
d="M617 478h-183q0 2 0.5 7t0.5 7q0 42 -22.5 63.5t-64.5 21.5q-44 0 -71 -23.5t-27 -67.5q0 -75 112 -75h31l-24 -143h-13q-132 0 -132 -80q0 -25 17 -38.5t47 -13.5q72 0 83 83h181q-13 -110 -87.5 -172.5t-200.5 -62.5q-111 0 -172.5 46t-61.5 121q0 64 32 109.5t88 69.5
q-38 22 -64 59.5t-26 88.5q0 119 84.5 187t219.5 68q119 0 188 -54.5t69 -152.5q0 -28 -4 -48z" />
    <glyph glyph-name="florin" unicode="&#x192;" horiz-adv-x="417" 
d="M27 343l21 140h82l1 4q16 120 68.5 180t153.5 60q47 0 106 -14l-18 -144q-21 7 -38 7q-34 0 -50.5 -21.5t-25.5 -71.5h89l-21 -140h-88l-36 -266q-21 -147 -67.5 -205.5t-151.5 -58.5q-63 0 -123 20l16 135q23 -8 48 -8q41 0 58.5 33.5t26.5 103.5l33 246h-84z" />
    <glyph glyph-name="uni019D" unicode="&#x19d;" horiz-adv-x="773" 
d="M245 271l-47 -273q-17 -109 -69.5 -149.5t-160.5 -40.5q-64 0 -88 6l22 128q8 -1 17 -1q44 0 63.5 17.5t27.5 61.5l123 695h269l57 -223q29 -107 54 -243q1 0 2 0.5t2 0.5q10 87 32 210l45 255h191l-127 -715h-260l-78 282q-26 94 -39 196h-3q-10 -88 -33 -207z" />
    <glyph glyph-name="uni019F" unicode="&#x19f;" horiz-adv-x="821" 
d="M458 728q163 0 255.5 -82.5t92.5 -228.5q0 -123 -46.5 -218.5t-144.5 -153.5t-236 -58q-158 0 -252 83.5t-94 232.5q0 119 47.5 214t145.5 153t232 58zM397 143q66 0 111.5 39t66.5 102h-329q14 -141 151 -141zM443 576q-66 0 -110.5 -37.5t-66.5 -98.5h327
q-9 63 -46 99.5t-104 36.5z" />
    <glyph glyph-name="Ohorn" unicode="&#x1a0;" horiz-adv-x="821" 
d="M458 728q163 0 255.5 -82.5t92.5 -228.5q0 -123 -46.5 -218.5t-144.5 -153.5t-236 -58q-158 0 -252 83.5t-94 232.5q0 119 47.5 214t145.5 153t232 58zM397 143q66 0 112 41.5t64.5 99.5t18.5 125q0 76 -38 121.5t-111 45.5q-66 0 -111.5 -40.5t-64.5 -97.5t-19 -123
q0 -81 37 -126.5t112 -45.5zM894 906l-124 -198h-168l91 198h201z" />
    <glyph glyph-name="ohorn" unicode="&#x1a1;" horiz-adv-x="644" 
d="M298 124q54 0 84.5 51t30.5 121q0 50 -21.5 79.5t-64.5 29.5q-54 0 -85.5 -50t-31.5 -116q0 -115 88 -115zM338 540q125 0 199 -64t74 -179q0 -138 -83.5 -225.5t-239.5 -87.5q-123 0 -198 63t-75 184q0 133 84 221t239 88zM767 715l-124 -198h-168l91 198h201z" />
    <glyph glyph-name="Uhorn" unicode="&#x1af;" horiz-adv-x="735" 
d="M782 913l-124 -198h96l-76 -430q-27 -155 -111 -227.5t-256 -72.5q-269 0 -269 229q0 38 11 99l71 402h208l-74 -416q-6 -30 -6 -56q0 -95 93 -95q56 0 85 33.5t42 109.5l75 424h-57l91 198h201z" />
    <glyph glyph-name="uhorn" unicode="&#x1b0;" horiz-adv-x="628" 
d="M651 715l-121 -190h87l-93 -525h-184l6 33l7 34h-1q-65 -78 -171 -78q-78 0 -119 42.5t-41 113.5q0 32 14 110l48 270h192l-45 -252q-7 -47 -7 -67q0 -70 60 -70q41 0 63 32t34 103l45 254h-63l88 190h201z" />
    <glyph glyph-name="uni01C4" unicode="&#x1c4;" horiz-adv-x="1403" 
d="M761 416q0 -100 -41 -192t-121 -149q-65 -46 -137.5 -60.5t-186.5 -14.5h-269l126 715h229q96 0 165.5 -10.5t121.5 -46.5q113 -75 113 -242zM462 202q81 56 81 197q0 156 -175 156h-57l-69 -394h58q105 0 162 41zM754 0l28 157l293 303l91 92q-1 1 -1 2q-45 -3 -121 -3
h-188l29 164h547l-28 -159l-240 -253q-105 -110 -137 -142v-2q48 3 121 3h201l-29 -162h-566zM1247 755h-193l-88 122h157l35 -48l54 48h159z" />
    <glyph glyph-name="uni01C5" unicode="&#x1c5;" horiz-adv-x="1323" 
d="M761 416q0 -100 -41 -192t-121 -149q-65 -46 -137.5 -60.5t-186.5 -14.5h-269l126 715h229q96 0 165.5 -10.5t121.5 -46.5q113 -75 113 -242zM462 202q81 56 81 197q0 156 -175 156h-57l-69 -394h58q105 0 162 41zM753 0l23 134q138 119 291 253v1q-29 -2 -125 -2h-118
l25 139h471l-24 -134q-93 -88 -287 -252v-1q90 2 133 2h125l-25 -140h-489zM1186 587h-193l-88 128h156l35 -48l54 48h160z" />
    <glyph glyph-name="uni01C6" unicode="&#x1c6;" horiz-adv-x="1194" 
d="M542 0h-190l10 52h-1q-54 -65 -150 -65q-89 0 -143 61.5t-54 161.5q0 83 29 156.5t92 123t148 49.5q54 0 92.5 -19t57.5 -48l6 34q7 44 12 71l25 138h193zM327 402q-54 0 -84.5 -51t-30.5 -121q0 -50 21.5 -79.5t64.5 -29.5q54 0 85.5 50t31.5 116q0 115 -88 115zM624 0
l23 134q138 119 291 253v1q-29 -2 -125 -2h-118l25 139h471l-24 -134q-93 -88 -287 -252v-1q90 2 133 2h125l-25 -140h-489zM1057 587h-193l-88 128h156l35 -48l54 48h160z" />
    <glyph glyph-name="uni01C7" unicode="&#x1c7;" horiz-adv-x="1135" 
d="M132 715h209l-98 -553h298l-29 -162h-506zM780 -15q-108 0 -163.5 44.5t-55.5 129.5q0 11 2 33h181v-6q0 -48 46 -48q29 0 44 25t27 87l82 465h209l-84 -475q-24 -134 -94 -194.5t-194 -60.5z" />
    <glyph glyph-name="uni01C8" unicode="&#x1c8;" horiz-adv-x="871" 
d="M132 715h209l-98 -553h298l-29 -162h-506zM860 525l-93 -527q-20 -109 -71.5 -149.5t-159.5 -40.5q-64 0 -88 6l22 128q8 -1 17 -1q44 0 63.5 17.5t27.5 61.5l90 505h192zM677 579l24 136h192l-24 -136h-192z" />
    <glyph glyph-name="uni01C9" unicode="&#x1c9;" horiz-adv-x="586" 
d="M188 0h-191l126 715h192zM575 525l-93 -527q-20 -109 -71.5 -149.5t-159.5 -40.5q-64 0 -88 6l22 128q8 -1 17 -1q44 0 63.5 17.5t27.5 61.5l90 505h192zM392 579l24 136h192l-24 -136h-192z" />
    <glyph glyph-name="uni01CA" unicode="&#x1ca;" horiz-adv-x="1328" 
d="M784 715l-127 -715h-260l-78 282q-26 94 -39 196h-3q-10 -88 -33 -207l-48 -271h-190l126 715h269l57 -223q29 -107 54 -243l2 1h2q10 87 32 210l45 255h191zM973 -15q-108 0 -163.5 44.5t-55.5 129.5q0 11 2 33h181v-6q0 -48 46 -48q29 0 44 25t27 87l82 465h209
l-84 -475q-24 -134 -94 -194.5t-194 -60.5z" />
    <glyph glyph-name="uni01CB" unicode="&#x1cb;" horiz-adv-x="1064" 
d="M784 715l-127 -715h-260l-78 282q-26 94 -39 196h-3q-10 -88 -33 -207l-48 -271h-190l126 715h269l57 -223q29 -107 54 -243l2 1h2q10 87 32 210l45 255h191zM1053 525l-93 -527q-20 -109 -71.5 -149.5t-159.5 -40.5q-64 0 -88 6l22 128q8 -1 17 -1q44 0 63.5 17.5
t27.5 61.5l90 505h192zM870 579l24 136h192l-24 -136h-192z" />
    <glyph glyph-name="uni01CC" unicode="&#x1cc;" horiz-adv-x="925" 
d="M188 0h-192l93 525h184l-6 -33q-5 -25 -7 -34h1q66 79 174 79q79 0 120.5 -42.5t41.5 -113.5q0 -32 -14 -110l-48 -271h-192l45 253q7 47 7 67q0 69 -61 69q-43 0 -66 -32t-35 -103zM914 525l-93 -527q-20 -109 -71.5 -149.5t-159.5 -40.5q-64 0 -88 6l22 128q8 -1 17 -1
q44 0 63.5 17.5t27.5 61.5l90 505h192zM731 579l24 136h192l-24 -136h-192z" />
    <glyph glyph-name="uni01F1" unicode="&#x1f1;" horiz-adv-x="1393" 
d="M761 416q0 -100 -41 -192t-121 -149q-65 -46 -137.5 -60.5t-186.5 -14.5h-269l126 715h229q96 0 165.5 -10.5t121.5 -46.5q113 -75 113 -242zM462 202q81 56 81 197q0 156 -175 156h-57l-69 -394h58q105 0 162 41zM744 0l28 157l293 303l91 92q-1 1 -1 2q-45 -3 -121 -3
h-188l29 164h547l-28 -159l-240 -253q-105 -110 -137 -142v-2q48 3 121 3h201l-29 -162h-566z" />
    <glyph glyph-name="uni01F2" unicode="&#x1f2;" horiz-adv-x="1323" 
d="M761 416q0 -100 -41 -192t-121 -149q-65 -46 -137.5 -60.5t-186.5 -14.5h-269l126 715h229q96 0 165.5 -10.5t121.5 -46.5q113 -75 113 -242zM462 202q81 56 81 197q0 156 -175 156h-57l-69 -394h58q105 0 162 41zM753 0l23 134q138 119 291 253v1q-29 -2 -125 -2h-118
l25 139h471l-24 -134q-93 -88 -287 -252v-1q90 2 133 2h125l-25 -140h-489z" />
    <glyph glyph-name="uni01F3" unicode="&#x1f3;" horiz-adv-x="1194" 
d="M542 0h-190l10 52h-1q-54 -65 -150 -65q-89 0 -143 61.5t-54 161.5q0 83 29 156.5t92 123t148 49.5q54 0 92.5 -19t57.5 -48l6 34q7 44 12 71l25 138h193zM327 402q-54 0 -84.5 -51t-30.5 -121q0 -50 21.5 -79.5t64.5 -29.5q54 0 85.5 50t31.5 116q0 115 -88 115zM624 0
l23 134q138 119 291 253v1q-29 -2 -125 -2h-118l25 139h471l-24 -134q-93 -88 -287 -252v-1q90 2 133 2h125l-25 -140h-489z" />
    <glyph glyph-name="Aringacute" unicode="&#x1fa;" horiz-adv-x="736" 
d="M143 0h-211q167 318 390 715h244q8 -46 134 -715h-204q-11 52 -27 151h-246zM300 305h146q-19 132 -29 256h-3q-75 -180 -114 -256zM443 730q-45 0 -76 32t-31 77q0 44 32 75.5t76 31.5q45 0 76.5 -31.5t31.5 -75.5q0 -45 -31.5 -77t-77.5 -32zM407 839q0 -16 10.5 -26.5
t25.5 -10.5q16 0 26 10t10 27q0 15 -10.5 25t-25.5 10t-25.5 -10.5t-10.5 -24.5zM545 961h-191l99 119h233z" />
    <glyph glyph-name="aringacute" unicode="&#x1fb;" horiz-adv-x="578" 
d="M493 0h-168q2 26 6 53h-2q-74 -63 -170 -63q-76 0 -122 35t-46 101q0 134 198 178q81 17 173 24q3 12 3 26q0 62 -64 62q-61 0 -76 -62h-176q21 89 91 137.5t183 48.5q98 0 158 -40.5t60 -126.5q0 -38 -7 -79l-25 -138q-20 -102 -16 -156zM345 225l-35 -4
q-76 -9 -108 -25t-32 -49q0 -51 62 -51q90 0 110 114zM349 556q-45 0 -76 32t-31 77q0 44 32 75.5t76 31.5q45 0 76.5 -31.5t31.5 -75.5q0 -45 -31.5 -77t-77.5 -32zM313 665q0 -16 10.5 -26.5t25.5 -10.5q16 0 26 10t10 27q0 15 -10.5 25t-25.5 10t-25.5 -10.5t-10.5 -24.5
zM464 792h-191l108 128h233z" />
    <glyph glyph-name="AEacute" unicode="&#x1fc;" horiz-adv-x="1041" 
d="M1072 715l-29 -162h-295l-17 -111h267l-28 -162h-264l-18 -118h290l-29 -162h-494l22 151h-220l-107 -151h-229l545 715h606zM367 304h136q30 184 39 245h-2q-85 -127 -173 -245zM817 758h-191l99 119h233z" />
    <glyph glyph-name="aeacute" unicode="&#x1fd;" horiz-adv-x="948" 
d="M710 170h198q-31 -87 -105.5 -136t-191.5 -49q-143 0 -213 82q-41 -36 -89.5 -57.5t-128.5 -21.5q-189 0 -189 138q0 134 198 178q89 19 173 24q3 12 3 26q0 62 -64 62q-61 0 -76 -62h-176q20 89 90 137.5t181 48.5q105 0 163 -49q70 49 169 49q126 0 199.5 -69
t73.5 -186q0 -28 -8 -65h-388q0 -50 24.5 -75.5t67.5 -25.5q66 0 89 51zM345 225l-35 -4q-76 -9 -108 -25t-32 -50q0 -50 62 -50q90 0 110 114zM643 412q-44 0 -71.5 -24t-34.5 -63h200q-2 40 -27.5 63.5t-66.5 23.5zM577 587h-191l108 128h233z" />
    <glyph glyph-name="Oslashacute" unicode="&#x1fe;" horiz-adv-x="821" 
d="M458 728q74 0 129 -16l62 75l145 -114l-50 -61q62 -79 62 -195q0 -123 -46.5 -218.5t-144.5 -153.5t-236 -58q-73 0 -136 19l-69 -83l-145 114l61 74q-57 77 -57 192q0 119 47.5 214t145.5 153t232 58zM397 143q66 0 112 41.5t64.5 99.5t18.5 125q0 10 -2 26l-238 -287
q19 -5 45 -5zM248 315q0 -13 1 -20l229 278q-16 3 -35 3q-66 0 -111.5 -40.5t-64.5 -97.5t-19 -123zM544 758h-191l99 119h233z" />
    <glyph glyph-name="oslashacute" unicode="&#x1ff;" horiz-adv-x="641" 
d="M423 587h-191l108 128h233zM338 540q50 0 94 -12l52 64l123 -91l-44 -54q48 -60 48 -150q0 -138 -83.5 -225.5t-239.5 -87.5q-54 0 -99 12l-44 -52l-122 92l36 43q-44 61 -44 152q0 133 84 221t239 88zM327 405q-53 0 -85 -49.5t-32 -114.5l134 163q-7 1 -17 1zM298 124
q51 0 82 47t33 114l-133 -160q3 -1 18 -1z" />
    <glyph glyph-name="uni0218" unicode="&#x218;" horiz-adv-x="651" 
d="M12 225h206q1 -90 98 -90q47 0 71 18.5t24 49.5q0 27 -21.5 40.5t-77.5 29.5l-42 13q-108 31 -157.5 80.5t-49.5 129.5q0 109 82 170.5t214 61.5q135 0 205 -57t71 -168h-200q-4 80 -87 80q-37 0 -57.5 -16t-20.5 -42q0 -29 23.5 -45t85.5 -36l34 -11q36 -11 61 -21
t54.5 -27t48 -37t30.5 -49.5t12 -65.5q0 -120 -87.5 -183t-234.5 -63q-124 0 -204.5 58.5t-80.5 179.5zM119 -163l95 114h192l-76 -114h-211z" />
    <glyph glyph-name="uni0219" unicode="&#x219;" horiz-adv-x="562" 
d="M-1 175h183q0 -70 79 -70q36 0 54 13t18 32q0 17 -17.5 26.5t-65.5 21.5l-56 14q-81 21 -119.5 56.5t-38.5 99.5q0 83 70.5 129.5t191.5 46.5q113 0 173 -44.5t61 -131.5h-172q-6 54 -75 54q-65 0 -65 -38q0 -16 15 -25t62 -21l45 -12q92 -24 135.5 -60.5t43.5 -93.5
q0 -91 -73 -139.5t-202 -48.5q-243 0 -247 191zM76 -163l95 114h192l-76 -114h-211z" />
    <glyph glyph-name="uni021A" unicode="&#x21a;" horiz-adv-x="601" 
d="M350 0h-208l97 550h-182l30 165h572l-30 -165h-182zM61 -163l95 114h192l-76 -114h-211z" />
    <glyph glyph-name="uni021B" unicode="&#x21b;" horiz-adv-x="389" 
d="M98 386h-75l24 139h75l25 142h192l-25 -142h88l-24 -139h-88l-23 -131q-11 -58 -11 -84q0 -24 10 -33.5t36 -9.5q10 0 25 3l-24 -136q-35 -7 -88 -7q-88 0 -127 20t-39 84q0 24 8 70zM0 -163l95 114h192l-76 -114h-211z" />
    <glyph glyph-name="uni021D" unicode="&#x21d;" horiz-adv-x="585" 
d="M-30 51h183q0 -3 -0.5 -7t-0.5 -7q0 -42 22.5 -63.5t64.5 -21.5q44 0 71 23.5t27 67.5q0 75 -112 75h-31l24 143h13q132 0 132 80q0 25 -17 38.5t-47 13.5q-72 0 -83 -83h-181q13 110 87.5 172.5t200.5 62.5q111 0 172.5 -46t61.5 -121q0 -64 -32 -109.5t-88 -69.5
q38 -22 64 -59.5t26 -88.5q0 -119 -84.5 -187t-219.5 -68q-119 0 -188 54.5t-69 152.5q0 28 4 48z" />
    <glyph glyph-name="uni0226" unicode="&#x226;" horiz-adv-x="736" 
d="M143 0h-211q167 318 390 715h244q8 -46 134 -715h-204q-11 52 -27 151h-246zM300 305h146q-19 132 -29 256h-3q-75 -180 -114 -256zM377 757l21 120h139l-21 -120h-139z" />
    <glyph glyph-name="uni0227" unicode="&#x227;" horiz-adv-x="578" 
d="M493 0h-168q2 26 6 53h-2q-74 -63 -170 -63q-76 0 -122 35t-46 101q0 134 198 178q81 17 173 24q3 12 3 26q0 62 -64 62q-61 0 -76 -62h-176q21 89 91 137.5t183 48.5q98 0 158 -40.5t60 -126.5q0 -38 -7 -79l-25 -138q-20 -102 -16 -156zM345 225l-35 -4
q-76 -9 -108 -25t-32 -49q0 -51 62 -51q90 0 110 114zM264 587l23 128h144l-23 -128h-144z" />
    <glyph glyph-name="uni0232" unicode="&#x232;" horiz-adv-x="641" 
d="M507 715h216q-18 -28 -84 -122t-100 -144l-126 -181l-48 -268h-208l48 268q-9 30 -27 85.5t-25 77.5q-17 54 -53 161.5t-41 122.5h208q52 -197 71 -280h2q75 133 167 280zM254 761l19 110h273l-19 -110h-273z" />
    <glyph glyph-name="uni0233" unicode="&#x233;" horiz-adv-x="576" 
d="M413 525h204q-178 -333 -379 -705h-192q7 13 47 82t52 95q-17 79 -58 261t-60 267h201q26 -182 41 -312h5q83 197 139 312zM188 597l19 110h273l-19 -110h-273z" />
    <glyph glyph-name="dotlessj" unicode="&#x237;" horiz-adv-x="292" 
d="M281 525l-93 -527q-20 -109 -71.5 -149.5t-159.5 -40.5q-64 0 -88 6l22 128q8 -1 17 -1q44 0 63.5 17.5t27.5 61.5l90 505h192z" />
    <glyph glyph-name="uni0254" unicode="&#x254;" horiz-adv-x="617" 
d="M213 334h-198q63 208 300 208q120 0 196 -63.5t76 -184.5q0 -133 -82.5 -220.5t-234.5 -87.5q-114 0 -184.5 54.5t-82.5 152.5h192q12 -72 81 -72q56 0 86 49.5t30 116.5q0 115 -87 115q-60 0 -92 -68z" />
    <glyph glyph-name="uni0259" unicode="&#x259;" horiz-adv-x="620" 
d="M223 355h-198q31 87 105.5 136t191.5 49q122 0 195 -64.5t73 -184.5q0 -130 -81 -218t-228 -88q-126 0 -199.5 69t-73.5 186q0 28 8 65h388q0 50 -24.5 75.5t-67.5 25.5q-66 0 -89 -51zM290 113q44 0 71.5 24t34.5 63h-200q2 -40 27.5 -63.5t66.5 -23.5z" />
    <glyph glyph-name="uni025B" unicode="&#x25b;" horiz-adv-x="596" 
d="M582 289h-183q0 3 0.5 7t0.5 7q0 42 -22.5 63.5t-64.5 21.5q-44 0 -71 -23.5t-27 -67.5q0 -75 112 -75h31l-24 -143h-13q-132 0 -132 -80q0 -25 17 -38.5t47 -13.5q72 0 83 83h181q-13 -110 -87.5 -172.5t-200.5 -62.5q-111 0 -172.5 46t-61.5 121q0 64 32 109.5t88 69.5
q-38 22 -64 59.5t-26 88.5q0 119 84.5 187t219.5 68q119 0 188 -54.5t69 -152.5q0 -28 -4 -48z" />
    <glyph glyph-name="uni0272" unicode="&#x272;" horiz-adv-x="633" 
d="M-1 20l90 505h184l-6 -33l-7 -34h1q66 79 174 79q79 0 120.5 -42.5t41.5 -113.5q0 -32 -14 -110l-48 -271h-192l45 253q7 47 7 67q0 69 -61 69q-43 0 -66 -32t-35 -103l-45 -256q-20 -109 -71.5 -149.5t-159.5 -40.5q-64 0 -88 6l22 128q8 -1 17 -1q44 0 63.5 17.5
t27.5 61.5z" />
    <glyph glyph-name="uni0275" unicode="&#x275;" horiz-adv-x="641" 
d="M338 540q125 0 199 -64t74 -179q0 -138 -83.5 -225.5t-239.5 -87.5q-123 0 -198 63t-75 184q0 133 84 221t239 88zM298 124q68 0 100 79h-187q14 -79 87 -79zM327 405q-66 0 -100 -73h185q-15 73 -85 73z" />
    <glyph glyph-name="apostrophemod" unicode="&#x2bc;" horiz-adv-x="276" 
d="M317 715l-139 -255h-157l114 255h182z" />
    <glyph glyph-name="circumflex" unicode="&#x2c6;" horiz-adv-x="503" 
d="M169 715h193l88 -128h-156l-35 48l-54 -48h-160z" />
    <glyph glyph-name="caron" unicode="&#x2c7;" horiz-adv-x="503" 
d="M338 587h-193l-88 128h156l35 -48l54 48h160z" />
    <glyph glyph-name="breve" unicode="&#x2d8;" horiz-adv-x="465" 
d="M226 580q-67 0 -102.5 35t-31.5 100h103q5 -37 43 -37q37 0 55 37h102q-14 -65 -58.5 -100t-110.5 -35z" />
    <glyph glyph-name="dotaccent" unicode="&#x2d9;" horiz-adv-x="328" 
d="M98 587l23 128h144l-23 -128h-144z" />
    <glyph glyph-name="ring" unicode="&#x2da;" horiz-adv-x="405" 
d="M239 568q-45 0 -76 32t-31 77q0 44 32 75.5t76 31.5q45 0 76.5 -31.5t31.5 -75.5q0 -45 -31.5 -77t-77.5 -32zM203 677q0 -16 10.5 -26.5t25.5 -10.5q16 0 26 10t10 27q0 15 -10.5 25t-25.5 10t-25.5 -10.5t-10.5 -24.5z" />
    <glyph glyph-name="ogonek" unicode="&#x2db;" horiz-adv-x="331" 
d="M226 -49l95 -114h-211l-76 114h192z" />
    <glyph glyph-name="tilde" unicode="&#x2dc;" horiz-adv-x="532" 
d="M233 587h-96q0 59 28.5 96.5t78.5 37.5q34 0 72 -20q31 -16 42 -16q21 0 22 30h96q0 -59 -28.5 -96.5t-78.5 -37.5q-30 0 -62 15l-10 5q-31 16 -42 16q-21 0 -22 -30z" />
    <glyph glyph-name="hungarumlaut" unicode="&#x2dd;" horiz-adv-x="612" 
d="M221 587h-181l108 128h223zM481 587h-181l108 128h223z" />
    <glyph glyph-name="uni032C" unicode="&#x32c;" horiz-adv-x="503" 
d="M94 -48h193l88 -128h-156l-35 48l-54 -48h-160z" />
    <glyph glyph-name="uni0394" unicode="&#x394;" horiz-adv-x="649" 
d="M206 715h186l243 -715h-673zM301 523h-3q-39 -134 -46 -157l-69 -220h232l-69 219q-14 46 -45 158z" />
    <glyph glyph-name="uni03A9" unicode="&#x3a9;" horiz-adv-x="863" 
d="M428 728q179 0 279.5 -89t100.5 -229q0 -169 -124 -252h127v-158h-344v148q61 34 95 94.5t34 140.5q0 85 -43.5 139t-124.5 54t-124.5 -54t-43.5 -139q0 -80 34 -140.5t95 -94.5v-148h-344v158h127q-124 83 -124 252q0 140 100.5 229t279.5 89z" />
    <glyph glyph-name="uni03BC" unicode="&#x3bc;" horiz-adv-x="633" 
d="M430 525h192l-93 -525h-189l12 68q-52 -77 -137 -77q-22 0 -28 2l-31 -173h-192l124 705h192l-45 -252q-7 -47 -7 -67q0 -70 60 -70q41 0 63 32t34 103z" />
    <glyph glyph-name="pi" unicode="&#x3c0;" horiz-adv-x="712" 
d="M606 384l-22 -129q-11 -58 -11 -84q0 -24 10 -33.5t36 -9.5q10 0 25 3l-24 -136q-35 -7 -88 -7q-88 0 -127 20t-39 84q0 24 8 70l40 222h-118l-68 -384h-192l68 384h-76l25 141h667l-25 -141h-89z" />
    <glyph glyph-name="Wgrave" unicode="&#x1e80;" horiz-adv-x="1053" 
d="M1119 715l-273 -715h-289l6 331q0 91 7 185h-5q-21 -86 -58 -185l-116 -331h-293l-18 715h213l-7 -346q-1 -76 -8 -189h5q15 52 74 224l111 311h273l-3 -297q0 -159 -8 -234h5q28 105 58 187l122 344h204zM696 758h-191l-141 119h233z" />
    <glyph glyph-name="wgrave" unicode="&#x1e81;" horiz-adv-x="880" 
d="M313 0h-217q-10 92 -28.5 269t-27.5 256h187l8 -172q3 -67 3 -179h3q22 65 72 190l64 161h194l8 -163q4 -82 6 -188h2q30 81 71 187l64 164h193q-42 -92 -123.5 -266.5t-119.5 -258.5h-218l-10 141q-5 71 -5 166h-3q-35 -99 -63 -165zM580 587h-191l-150 128h233z" />
    <glyph glyph-name="Wacute" unicode="&#x1e82;" horiz-adv-x="1053" 
d="M1119 715l-273 -715h-289l6 331q0 91 7 185h-5q-21 -86 -58 -185l-116 -331h-293l-18 715h213l-7 -346q-1 -76 -8 -189h5q15 52 74 224l111 311h273l-3 -297q0 -159 -8 -234h5q28 105 58 187l122 344h204zM690 758h-191l99 119h233z" />
    <glyph glyph-name="wacute" unicode="&#x1e83;" horiz-adv-x="880" 
d="M313 0h-217q-10 92 -28.5 269t-27.5 256h187l8 -172q3 -67 3 -179h3q22 65 72 190l64 161h194l8 -163q4 -82 6 -188h2q30 81 71 187l64 164h193q-42 -92 -123.5 -266.5t-119.5 -258.5h-218l-10 141q-5 71 -5 166h-3q-35 -99 -63 -165zM556 587h-191l108 128h233z" />
    <glyph glyph-name="Wdieresis" unicode="&#x1e84;" horiz-adv-x="1053" 
d="M1119 715l-273 -715h-289l6 331q0 91 7 185h-5q-21 -86 -58 -185l-116 -331h-293l-18 715h213l-7 -346q-1 -76 -8 -189h5q15 52 74 224l111 311h273l-3 -297q0 -159 -8 -234h5q28 105 58 187l122 344h204zM438 757l21 120h139l-21 -120h-139zM630 757l21 120h139
l-21 -120h-139z" />
    <glyph glyph-name="wdieresis" unicode="&#x1e85;" horiz-adv-x="880" 
d="M313 0h-217q-10 92 -28.5 269t-27.5 256h187l8 -172q3 -67 3 -179h3q22 65 72 190l64 161h194l8 -163q4 -82 6 -188h2q30 81 71 187l64 164h193q-42 -92 -123.5 -266.5t-119.5 -258.5h-218l-10 141q-5 71 -5 166h-3q-35 -99 -63 -165zM308 587l23 128h144l-23 -128h-144z
M506 587l23 128h143l-23 -128h-143z" />
    <glyph glyph-name="uni1EA0" unicode="&#x1ea0;" horiz-adv-x="736" 
d="M143 0h-211q167 318 390 715h244q8 -46 134 -715h-204q-11 52 -27 151h-246zM300 305h146q-19 132 -29 256h-3q-75 -180 -114 -256zM228 -174l23 128h144l-23 -128h-144z" />
    <glyph glyph-name="uni1EA1" unicode="&#x1ea1;" horiz-adv-x="578" 
d="M493 0h-168q2 26 6 53h-2q-74 -63 -170 -63q-76 0 -122 35t-46 101q0 134 198 178q81 17 173 24q3 12 3 26q0 62 -64 62q-61 0 -76 -62h-176q21 89 91 137.5t183 48.5q98 0 158 -40.5t60 -126.5q0 -38 -7 -79l-25 -138q-20 -102 -16 -156zM345 225l-35 -4
q-76 -9 -108 -25t-32 -49q0 -51 62 -51q90 0 110 114zM138 -174l23 128h144l-23 -128h-144z" />
    <glyph glyph-name="uni1EB8" unicode="&#x1eb8;" horiz-adv-x="608" 
d="M261 280l-21 -118h305l-29 -162h-510l126 715h507l-29 -162h-301l-20 -111h276l-28 -162h-276zM164 -174l23 128h144l-23 -128h-144z" />
    <glyph glyph-name="uni1EB9" unicode="&#x1eb9;" horiz-adv-x="620" 
d="M382 170h198q-31 -87 -105.5 -136t-191.5 -49q-122 0 -195 64.5t-73 184.5q0 130 81 218t228 88q126 0 199.5 -69t73.5 -186q0 -28 -8 -65h-388q0 -50 24.5 -75.5t67.5 -25.5q66 0 89 51zM315 412q-44 0 -71.5 -24t-34.5 -63h200q-2 40 -27.5 63.5t-66.5 23.5zM173 -174
l23 128h144l-23 -128h-144z" />
    <glyph glyph-name="uni1ECA" unicode="&#x1eca;" horiz-adv-x="329" 
d="M341 715l-127 -715h-208l126 715h209zM10 -174l23 128h144l-23 -128h-144z" />
    <glyph glyph-name="uni1ECB" unicode="&#x1ecb;" horiz-adv-x="291" 
d="M98 579l24 136h192l-24 -136h-192zM187 0h-191l92 525h192zM-8 -174l23 128h144l-23 -128h-144z" />
    <glyph glyph-name="uni1ECC" unicode="&#x1ecc;" horiz-adv-x="821" 
d="M458 728q163 0 255.5 -82.5t92.5 -228.5q0 -123 -46.5 -218.5t-144.5 -153.5t-236 -58q-158 0 -252 83.5t-94 232.5q0 119 47.5 214t145.5 153t232 58zM397 143q66 0 112 41.5t64.5 99.5t18.5 125q0 76 -38 121.5t-111 45.5q-66 0 -111.5 -40.5t-64.5 -97.5t-19 -123
q0 -81 37 -126.5t112 -45.5zM274 -174l23 128h144l-23 -128h-144z" />
    <glyph glyph-name="uni1ECD" unicode="&#x1ecd;" horiz-adv-x="641" 
d="M298 124q54 0 84.5 51t30.5 121q0 50 -21.5 79.5t-64.5 29.5q-54 0 -85.5 -50t-31.5 -116q0 -115 88 -115zM338 540q125 0 199 -64t74 -179q0 -138 -83.5 -225.5t-239.5 -87.5q-123 0 -198 63t-75 184q0 133 84 221t239 88zM173 -174l23 128h144l-23 -128h-144z" />
    <glyph glyph-name="uni1EE4" unicode="&#x1ee4;" horiz-adv-x="735" 
d="M754 715l-76 -430q-27 -155 -111 -227.5t-256 -72.5q-269 0 -269 229q0 38 11 99l71 402h208l-74 -416q-6 -30 -6 -56q0 -95 93 -95q56 0 85 33.5t42 109.5l75 424h207zM207 -174l23 128h144l-23 -128h-144z" />
    <glyph glyph-name="uni1EE5" unicode="&#x1ee5;" horiz-adv-x="628" 
d="M425 525h192l-93 -525h-184l6 33q5 25 7 34h-1q-65 -78 -171 -78q-78 0 -119 42.5t-41 113.5q0 32 14 110l48 270h192l-45 -252q-7 -47 -7 -67q0 -70 60 -70q41 0 63 32t34 103zM162 -174l23 128h144l-23 -128h-144z" />
    <glyph glyph-name="Ygrave" unicode="&#x1ef2;" horiz-adv-x="641" 
d="M507 715h216q-18 -28 -84 -122t-100 -144l-126 -181l-48 -268h-208l48 268q-9 30 -27 85.5t-25 77.5q-17 54 -53 161.5t-41 122.5h208q52 -197 71 -280h2q75 133 167 280zM510 758h-191l-141 119h233z" />
    <glyph glyph-name="ygrave" unicode="&#x1ef3;" horiz-adv-x="576" 
d="M413 525h204q-178 -333 -379 -705h-192q7 13 47 82t52 95q-17 79 -58 261t-60 267h201q26 -182 41 -312h5q83 197 139 312zM432 587h-191l-150 128h233z" />
    <glyph glyph-name="enspace" unicode="&#x2002;" horiz-adv-x="500" 
 />
    <glyph glyph-name="emspace" unicode="&#x2003;" horiz-adv-x="1000" 
 />
    <glyph glyph-name="threeperemspace" unicode="&#x2004;" horiz-adv-x="0" 
 />
    <glyph glyph-name="fourperemspace" unicode="&#x2005;" horiz-adv-x="250" 
 />
    <glyph glyph-name="thinspace" unicode="&#x2009;" horiz-adv-x="133" 
 />
    <glyph glyph-name="hairspace" unicode="&#x200a;" horiz-adv-x="75" 
 />
    <glyph glyph-name="endash" unicode="&#x2013;" horiz-adv-x="577" 
d="M36 223l27 157h476l-27 -157h-476z" />
    <glyph glyph-name="emdash" unicode="&#x2014;" horiz-adv-x="942" 
d="M36 223l27 157h841l-27 -157h-841z" />
    <glyph glyph-name="quoteleft" unicode="&#x2018;" horiz-adv-x="301" 
d="M55 460l139 255h157l-114 -255h-182z" />
    <glyph glyph-name="quoteright" unicode="&#x2019;" horiz-adv-x="298" 
d="M355 715l-139 -255h-157l114 255h182z" />
    <glyph glyph-name="quotesinglbase" unicode="&#x201a;" horiz-adv-x="301" 
d="M241 166l-141 -255h-164l118 255h187z" />
    <glyph glyph-name="quotedblleft" unicode="&#x201c;" horiz-adv-x="535" 
d="M289 460l139 255h157l-114 -255h-182zM55 460l139 255h157l-114 -255h-182z" />
    <glyph glyph-name="quotedblright" unicode="&#x201d;" horiz-adv-x="532" 
d="M355 715l-139 -255h-157l114 255h182zM589 715l-139 -255h-157l114 255h182z" />
    <glyph glyph-name="quotedblbase" unicode="&#x201e;" horiz-adv-x="528" 
d="M234 166l-139 -255h-157l114 255h182zM468 166l-139 -255h-157l114 255h182z" />
    <glyph glyph-name="dagger" unicode="&#x2020;" horiz-adv-x="504" 
d="M421 715l-27 -153h126l-29 -162h-126l-83 -468h-193l83 468h-127l29 162h127l27 153h193z" />
    <glyph glyph-name="daggerdbl" unicode="&#x2021;" horiz-adv-x="521" 
d="M374 400l-27 -153h126l-29 -162h-126l-27 -153h-193l27 153h-126l28 162h127l27 153h-127l29 162h127l27 153h193l-27 -153h126l-29 -162h-126z" />
    <glyph glyph-name="bullet" unicode="&#x2022;" horiz-adv-x="545" 
d="M278 118q-91 0 -154 63t-63 153t63 152.5t154 62.5q90 0 153 -62.5t63 -152.5t-63.5 -153t-152.5 -63z" />
    <glyph glyph-name="ellipsis" unicode="&#x2026;" horiz-adv-x="945" 
d="M-4 0l31 176h185l-31 -176h-185zM327 0l31 176h185l-31 -176h-185zM657 0l31 176h185l-31 -176h-185z" />
    <glyph glyph-name="perthousand" unicode="&#x2030;" horiz-adv-x="1325" 
d="M228 419q23 0 40 18.5t24 46t10 49t3 38.5q0 59 -45 59q-23 0 -40 -18.5t-24 -46t-10 -49t-3 -38.5q0 -59 45 -59zM212 0l402 715h112l-402 -715h-112zM218 323q-75 0 -115 40t-40 111q0 29 4.5 59t18.5 66t36 63t61 45.5t89 18.5q75 0 115 -40t40 -111q0 -29 -4.5 -59
t-18.5 -66t-36 -63t-61 -45.5t-89 -18.5zM673 83q23 0 40 18.5t24 46t10 49t3 38.5q0 59 -45 59q-23 0 -40 -18.5t-24 -46t-10 -49t-3 -38.5q0 -59 45 -59zM663 -13q-75 0 -115 40t-40 111q0 29 4.5 59t18.5 66t36 63t61 45.5t89 18.5q75 0 115 -40t40 -111q0 -29 -4.5 -59
t-18.5 -66t-36 -63t-61 -45.5t-89 -18.5zM1081 83q23 0 40 18.5t24 46t10 49t3 38.5q0 59 -45 59q-23 0 -40 -18.5t-24 -46t-10 -49t-3 -38.5q0 -59 45 -59zM1071 -13q-75 0 -115 40t-40 111q0 29 4.5 59t18.5 66t36 63t61 45.5t89 18.5q75 0 115 -40t40 -111
q0 -29 -4.5 -59t-18.5 -66t-36 -63t-61 -45.5t-89 -18.5z" />
    <glyph glyph-name="guilsinglleft" unicode="&#x2039;" horiz-adv-x="343" 
d="M338 473l-135 -187l67 -188h-166l-80 188l139 187h175z" />
    <glyph glyph-name="guilsinglright" unicode="&#x203a;" horiz-adv-x="343" 
d="M-3 98l135 187l-67 188h166l80 -188l-139 -187h-175z" />
    <glyph glyph-name="fraction" unicode="&#x2044;" horiz-adv-x="398" 
d="M-79 -105l390 820h166l-389 -820h-167z" />
    <glyph glyph-name="Euro" unicode="&#x20ac;" 
d="M15 358l56 122h42q36 122 108.5 187t197.5 65q120 0 178 -63.5t58 -171.5h-191q-7 72 -67 72q-32 0 -52 -21.5t-35 -67.5h198l-57 -122h-168q0 -2 -0.5 -4t-0.5 -4l-4 -19h165l-56 -121h-117q6 -62 61 -62q59 0 87 70h191q-22 -55 -45.5 -94t-58 -72.5t-83.5 -50
t-113 -16.5q-233 0 -238 225h-80l55 121h34l4 20q0 1 0.5 3t0.5 4h-70z" />
    <glyph glyph-name="trademark" unicode="&#x2122;" horiz-adv-x="967" 
d="M707 297h-102q-7 46 -18 139t-21 156h-3q-6 -31 -14.5 -91.5t-14.5 -93.5l-19 -110h-108l73 418h174q27 -176 28 -267q92 217 116 267h181l-73 -418h-109l29 164q5 27 14 69.5t12 62.5h-3q-29 -58 -72 -150t-70 -146zM445 715l-16 -91h-99l-57 -327h-119l57 327h-105
l16 91h323z" />
    <glyph glyph-name="Omega" unicode="&#x2126;" horiz-adv-x="863" 
d="M428 728q179 0 279.5 -89t100.5 -229q0 -169 -124 -252h127v-158h-344v148q61 34 95 94.5t34 140.5q0 85 -43.5 139t-124.5 54t-124.5 -54t-43.5 -139q0 -80 34 -140.5t95 -94.5v-148h-344v158h127q-124 83 -124 252q0 140 100.5 229t279.5 89z" />
    <glyph glyph-name="onethird" unicode="&#x2153;" horiz-adv-x="868" 
d="M136 0l402 715h112l-402 -715h-112zM184 554h-113l15 85h10q93 0 129 76h110l-78 -439h-122zM453 148h120q-3 -31 11.5 -47t39.5 -16t41.5 15.5t16.5 41.5q0 46 -67 46h-23l15 90h12q78 0 78 49q0 15 -9.5 24t-27.5 9q-41 0 -47 -51h-120q8 67 56 106.5t127 39.5
q71 0 110 -29t39 -75q0 -38 -21.5 -67.5t-55.5 -44.5q23 -13 40 -37t17 -54q0 -75 -52.5 -117.5t-138.5 -42.5q-76 0 -120 33.5t-44 95.5q0 13 3 31z" />
    <glyph glyph-name="twothirds" unicode="&#x2154;" horiz-adv-x="977" 
d="M248 0l402 715h112l-402 -715h-112zM565 148h120q-3 -31 11.5 -47t39.5 -16t41.5 15.5t16.5 41.5q0 46 -67 46h-23l15 90h12q78 0 78 49q0 15 -9.5 24t-27.5 9q-41 0 -47 -51h-120q8 67 56 106.5t127 39.5q71 0 110 -29t39 -75q0 -38 -21.5 -67.5t-55.5 -44.5
q23 -13 40 -37t17 -54q0 -75 -52.5 -117.5t-138.5 -42.5q-76 0 -120 33.5t-44 95.5q0 13 3 31zM369 277h-330l15 99q130 86 163 110q78 53 78 100q0 36 -40 36q-48 0 -53 -65h-122q8 82 55.5 127t130.5 45q74 0 115 -33.5t41 -88.5q0 -104 -119 -182q-50 -34 -82 -49h61h103
z" />
    <glyph glyph-name="oneeighth" unicode="&#x215b;" horiz-adv-x="874" 
d="M619 -11q-79 0 -122.5 32.5t-43.5 88.5q0 46 26 78.5t68 48.5h-1q-44 31 -44 85q0 58 46 96t126 38q74 0 114 -30t40 -77q0 -71 -77 -111q60 -32 60 -95q0 -73 -52.5 -113.5t-139.5 -40.5zM639 192q-26 0 -44 -15t-18 -42q0 -24 14 -37t38 -13q28 0 44.5 16t16.5 44
q0 22 -14.5 34.5t-36.5 12.5zM668 363q-21 0 -36 -12.5t-15 -34.5q0 -18 11.5 -28.5t30.5 -10.5q23 0 36.5 13.5t13.5 36.5q0 17 -11.5 26.5t-29.5 9.5zM136 0l402 715h112l-402 -715h-112zM184 554h-113l15 85h10q93 0 129 76h110l-78 -439h-122z" />
    <glyph glyph-name="threeeighths" unicode="&#x215c;" horiz-adv-x="984" 
d="M732 -11q-79 0 -122.5 32.5t-43.5 88.5q0 46 26 78.5t68 48.5h-1q-44 31 -44 85q0 58 46 96t126 38q74 0 114 -30t40 -77q0 -71 -77 -111q60 -32 60 -95q0 -73 -52.5 -113.5t-139.5 -40.5zM752 192q-26 0 -44 -15t-18 -42q0 -24 14 -37t38 -13q28 0 44.5 16t16.5 44
q0 22 -14.5 34.5t-36.5 12.5zM781 363q-21 0 -36 -12.5t-15 -34.5q0 -18 11.5 -28.5t30.5 -10.5q23 0 36.5 13.5t13.5 36.5q0 17 -11.5 26.5t-29.5 9.5zM249 0l402 715h112l-402 -715h-112zM370 277h-330l15 99q130 86 163 110q78 53 78 100q0 36 -40 36q-48 0 -53 -65h-122
q8 82 55.5 127t130.5 45q74 0 115 -33.5t41 -88.5q0 -104 -119 -182q-50 -34 -82 -49h15.5h22h23.5h103z" />
    <glyph glyph-name="fiveeighths" unicode="&#x215d;" horiz-adv-x="973" 
d="M183 443l-114 17l69 255h283l-17 -94h-182l-18 -63q26 15 66 15q59 0 96 -34t37 -95q0 -79 -53 -129.5t-140 -50.5q-76 0 -119.5 39.5t-43.5 109.5h127q0 -24 12.5 -38.5t35.5 -14.5q26 0 41.5 18.5t15.5 46.5q0 23 -13 36t-34 13q-34 0 -49 -31zM719 -11
q-79 0 -122.5 32.5t-43.5 88.5q0 46 26 78.5t68 48.5h-1q-44 31 -44 85q0 58 46 96t126 38q74 0 114 -30t40 -77q0 -71 -77 -111q60 -32 60 -95q0 -73 -52.5 -113.5t-139.5 -40.5zM739 192q-26 0 -44 -15t-18 -42q0 -24 14 -37t38 -13q28 0 44.5 16t16.5 44q0 22 -14.5 34.5
t-36.5 12.5zM768 363q-21 0 -36 -12.5t-15 -34.5q0 -18 11.5 -28.5t30.5 -10.5q23 0 36.5 13.5t13.5 36.5q0 17 -11.5 26.5t-29.5 9.5zM236 0l402 715h112l-402 -715h-112z" />
    <glyph glyph-name="seveneighths" unicode="&#x215e;" horiz-adv-x="906" 
d="M201 272h-138q77 159 219 343q-27 -1 -73 -1h-126l19 101h333l-17 -93q-98 -116 -217 -350zM654 -11q-79 0 -122.5 32.5t-43.5 88.5q0 46 26 78.5t68 48.5h-1q-44 31 -44 85q0 58 46 96t126 38q74 0 114 -30t40 -77q0 -71 -77 -111q60 -32 60 -95q0 -73 -52.5 -113.5
t-139.5 -40.5zM674 192q-26 0 -44 -15t-18 -42q0 -24 14 -37t38 -13q28 0 44.5 16t16.5 44q0 22 -14.5 34.5t-36.5 12.5zM703 363q-21 0 -36 -12.5t-15 -34.5q0 -18 11.5 -28.5t30.5 -10.5q23 0 36.5 13.5t13.5 36.5q0 17 -11.5 26.5t-29.5 9.5zM171 0l402 715h112
l-402 -715h-112z" />
    <glyph glyph-name="arrowleft" unicode="&#x2190;" horiz-adv-x="820" 
d="M780 241h-472q12 -11 63.5 -61.5t80.5 -80.5l101 -99h-224q-26 27 -144 152.5t-165 173.5q49 49 174.5 182t134.5 142h224l-101 -100q-115 -115 -144 -141h472v-168z" />
    <glyph glyph-name="arrowup" unicode="&#x2191;" horiz-adv-x="720" 
d="M283 0v478l-142 -142l-100 -99v204q14 14 145 137t180 172q49 -51 184.5 -177.5t140.5 -131.5v-204l-101 99l-142 142v-478h-165z" />
    <glyph glyph-name="arrowright" unicode="&#x2192;" horiz-adv-x="820" 
d="M519 241h-472v168h472q-29 26 -144 141l-101 100h224q26 -27 144 -152t165 -172q-50 -50 -171 -179t-138 -147h-224l101 99q30 30 81.5 80.5t62.5 61.5z" />
    <glyph glyph-name="arrowdown" unicode="&#x2193;" horiz-adv-x="720" 
d="M289 236v478h165v-478l142 142l101 99v-204q-304 -288 -325 -309q-46 45 -169.5 161.5t-155.5 147.5v204l100 -99z" />
    <glyph glyph-name="uni2196" unicode="&#x2196;" horiz-adv-x="750" 
d="M338 430l344 -344l-115 -114l-341 341v-203q0 -92 -1 -142l-137 138q0 51 2 220.5t2 231.5q62 0 230 3t219 3l130 -134q-49 -1 -137 -1q-40 0 -110.5 0.5t-85.5 0.5z" />
    <glyph glyph-name="uni2197" unicode="&#x2197;" horiz-adv-x="750" 
d="M59 86l344 344q-16 0 -86 -0.5t-111 -0.5q-88 0 -136 1l130 134q51 0 219 -3t230 -3q0 -62 2 -231.5t2 -220.5l-137 -138q-1 50 -1 142v203l-341 -341z" />
    <glyph glyph-name="uni2198" unicode="&#x2198;" horiz-adv-x="750" 
d="M399 131l-344 344l115 114l341 -341v202q0 92 1 143l137 -138q0 -51 -2 -221t-2 -231q-62 0 -230 -3t-219 -3l-130 134q48 1 136 1q41 0 111 -0.5t86 -0.5z" />
    <glyph glyph-name="uni2199" unicode="&#x2199;" horiz-adv-x="750" 
d="M685 475l-344 -344q15 0 85.5 0.5t110.5 0.5q88 0 137 -1l-130 -134q-51 0 -219 3t-230 3q0 61 -2 231t-2 221l137 138q1 -51 1 -143v-202l341 341z" />
    <glyph glyph-name="partialdiff" unicode="&#x2202;" horiz-adv-x="652" 
d="M15 231q0 134 84 219t209 85q65 0 109 -21l1 1q-72 105 -262 200h278q90 -63 140 -160.5t50 -203.5q0 -168 -83.5 -267.5t-252.5 -99.5q-123 0 -198 63t-75 184zM298 124q54 0 84.5 51t30.5 121q0 50 -21.5 79.5t-64.5 29.5q-54 0 -85.5 -50t-31.5 -116q0 -115 88 -115z
" />
    <glyph glyph-name="Delta" unicode="&#x2206;" horiz-adv-x="749" 
d="M247 715h186l243 -715h-673zM342 523h-3q-39 -134 -46 -157l-69 -220h232l-69 219q-14 46 -45 158z" />
    <glyph glyph-name="product" unicode="&#x220f;" horiz-adv-x="909" 
d="M780 -113h-208v666h-188v-666h-208v666h-83v162h770v-162h-83v-666z" />
    <glyph glyph-name="summation" unicode="&#x2211;" horiz-adv-x="741" 
d="M92 35l233 262l-229 261v157h536v-162h-290l219 -248l-230 -256h312v-162h-551v148z" />
    <glyph glyph-name="minus" unicode="&#x2212;" 
d="M69 240v160h498v-160h-498z" />
    <glyph glyph-name="uni2219" unicode="&#x2219;" horiz-adv-x="284" 
d="M36 231l31 176h185l-31 -176h-185z" />
    <glyph glyph-name="radical" unicode="&#x221a;" 
d="M27 386v139h232l30 -117l58 -228h2l23 92t25 96l91 347h189l-217 -715h-220q-128 363 -136 386h-77z" />
    <glyph glyph-name="infinity" unicode="&#x221e;" horiz-adv-x="894" 
d="M241 533q32 0 57.5 -6.5t57 -26.5t44 -29.5t53.5 -43.5q39 33 53 44t43.5 30t56 25.5t58.5 6.5q89 0 142 -56.5t53 -148.5q0 -81 -50.5 -141.5t-140.5 -60.5q-35 0 -65.5 8.5t-59 28t-46 34t-46.5 42.5q-57 -55 -105 -84t-110 -29q-95 0 -144 59.5t-49 142.5
q0 92 53.5 148.5t144.5 56.5zM649 280q23 0 36.5 13.5t13.5 37.5q0 22 -13.5 36t-35.5 14q-37 0 -96 -52q24 -19 32.5 -25.5t27.5 -15t35 -8.5zM254 280q16 0 34.5 8.5t28 15.5t31.5 25q-59 52 -95 52q-23 0 -36 -14t-13 -36q0 -24 13.5 -37.5t36.5 -13.5z" />
    <glyph glyph-name="integral" unicode="&#x222b;" 
d="M436 456l-52 -379q-21 -147 -67.5 -205.5t-151.5 -58.5q-63 0 -123 20l16 135q23 -8 48 -8q41 0 58.5 33.5t26.5 103.5l53 390q16 120 68.5 180t153.5 60q46 0 106 -14l-18 -144q-21 7 -38 7q-37 0 -54 -28t-26 -92z" />
    <glyph glyph-name="approxequal" unicode="&#x2248;" 
d="M417 484q41 0 74 61l100 -74q-29 -60 -75.5 -99t-96.5 -39q-45 0 -113 33l-20 10q-44 21 -63 21q-41 0 -74 -61l-100 74q29 60 75.5 99t96.5 39q45 0 113 -33l20 -10q44 -21 63 -21zM415 234q41 0 74 61l100 -74q-29 -60 -75.5 -99t-96.5 -39q-45 0 -113 33l-20 10
q-44 21 -63 21q-41 0 -74 -61l-100 74q29 60 75.5 99t96.5 39q45 0 113 -33l20 -10q44 -21 63 -21z" />
    <glyph glyph-name="notequal" unicode="&#x2260;" 
d="M73 360v147h234l31 63h159l-31 -63h105v-147h-176l-23 -48h199v-148h-271l-36 -74h-159l36 74h-68v148h140l23 48h-163z" />
    <glyph glyph-name="lessequal" unicode="&#x2264;" 
d="M520 641v-160l-230 -70v-3l230 -74v-162l-435 175v118zM85 0v160h435v-160h-435z" />
    <glyph glyph-name="greaterequal" unicode="&#x2265;" 
d="M106 481v160l435 -176v-118l-435 -175v162l230 74v3zM541 160v-160h-435v160h435z" />
    <glyph glyph-name="dotmath" unicode="&#x22c5;" horiz-adv-x="284" 
d="M36 231l31 176h185l-31 -176h-185z" />
    <glyph glyph-name="lozenge" unicode="&#x25ca;" 
d="M411 0h-170l-227 356l226 359h171l226 -359zM326 155l115 201l-115 195l-116 -195z" />
    <glyph glyph-name="commaaccent" unicode="&#xf6c3;" horiz-adv-x="369" 
d="M56 -163l95 114h192l-76 -114h-211z" />
    <glyph glyph-name="uniF8FF" unicode="&#xf8ff;" horiz-adv-x="493" 
d="M243 118q-91 0 -154 63t-63 153t63 152.5t154 62.5q90 0 153 -62.5t63 -152.5t-63.5 -153t-152.5 -63z" />
    <glyph glyph-name="acute.caps" horiz-adv-x="427" 
d="M288 758h-191l99 119h233z" />
    <glyph glyph-name="grave.caps" horiz-adv-x="512" 
d="M417 758h-191l-141 119h233z" />
    <glyph glyph-name="circumflex.caps" horiz-adv-x="503" 
d="M153 877h193l88 -122h-157l-35 48l-54 -48h-159z" />
    <glyph glyph-name="caron.caps" horiz-adv-x="502" 
d="M340 755h-193l-88 122h157l35 -48l54 48h159z" />
    <glyph glyph-name="tilde.caps" horiz-adv-x="470" 
d="M173 757h-96q0 55 28.5 90.5t78.5 35.5q34 0 72 -20q31 -16 42 -16q21 0 22 30h96q0 -55 -28.5 -90.5t-78.5 -35.5q-30 0 -62 15l-10 5q-31 16 -42 16q-21 0 -22 -30z" />
    <glyph glyph-name="macron.caps" horiz-adv-x="428" 
d="M100 761l19 110h273l-19 -110h-273z" />
    <glyph glyph-name="breve.caps" horiz-adv-x="465" 
d="M236 745q-65 0 -100 34t-31 97h101q5 -37 42 -37q38 0 54 37h100q-14 -63 -58 -97t-108 -34z" />
    <glyph glyph-name="dotaccent.caps" horiz-adv-x="328" 
d="M106 757l21 120h139l-21 -120h-139z" />
    <glyph glyph-name="ring.caps" horiz-adv-x="405" 
d="M247 738q-45 0 -76 32t-31 77q0 44 32 75.5t76 31.5q45 0 76.5 -31.5t31.5 -75.5q0 -45 -31.5 -77t-77.5 -32zM211 847q0 -16 10.5 -26.5t25.5 -10.5q16 0 26 10t10 27q0 15 -10.5 25t-25.5 10t-25.5 -10.5t-10.5 -24.5z" />
    <glyph glyph-name="cedilla.caps" horiz-adv-x="369" 
d="M56 -163l95 114h192l-76 -114h-211z" />
    <glyph glyph-name="ogonek.caps" horiz-adv-x="331" 
d="M226 -49l95 -114h-211l-76 114h192z" />
    <glyph glyph-name="hungarumlaut.caps" horiz-adv-x="612" 
d="M230 758h-186l99 119h228zM501 758h-186l99 119h228z" />
    <glyph glyph-name="dieresis.caps" horiz-adv-x="491" 
d="M97 757l21 120h139l-21 -120h-139zM289 757l21 120h139l-21 -120h-139z" />
    <glyph glyph-name="horn" horiz-adv-x="290" 
d="M299 715l-124 -198h-168l91 198h201z" />
    <glyph glyph-name="zero.plf" horiz-adv-x="635" 
d="M292 148q49 0 73.5 47t44.5 155q14 79 14 126q0 93 -66 93q-47 0 -70 -48.5t-45 -170.5q-13 -76 -13 -117q0 -85 62 -85zM380 732q124 0 184 -62.5t60 -172.5q0 -55 -13 -131q-13 -72 -28.5 -125.5t-42.5 -103.5t-62.5 -82t-88 -51t-119.5 -19q-240 0 -240 235
q0 55 13 131q15 90 37 155t60 118.5t98 80.5t142 27z" />
    <glyph glyph-name="one.plf" horiz-adv-x="486" 
d="M231 453h-190l25 138h27q149 0 203 124h181l-127 -715h-199z" />
    <glyph glyph-name="two.plf" horiz-adv-x="626" 
d="M539 0h-546l25 156q128 80 266 179q26 18 44.5 33t40 37t33 47.5t11.5 52.5q0 30 -18.5 48t-53.5 18q-81 0 -90 -111h-191q12 129 89.5 201t215.5 72q116 0 181.5 -51.5t65.5 -138.5q0 -172 -195 -301q-96 -63 -144 -87q25 1 112 1h181z" />
    <glyph glyph-name="three.plf" horiz-adv-x="614" 
d="M11 239h183q0 -3 -0.5 -7t-0.5 -7q0 -42 22.5 -63.5t64.5 -21.5q44 0 71 23.5t27 67.5q0 75 -112 75h-31l24 143h13q132 0 132 80q0 25 -17 38.5t-47 13.5q-72 0 -83 -83h-181q13 110 87.5 172.5t200.5 62.5q111 0 172.5 -46t61.5 -121q0 -64 -32 -109.5t-88 -69.5
q38 -22 64 -59.5t26 -88.5q0 -119 -84.5 -187t-219.5 -68q-119 0 -188 54.5t-69 152.5q0 28 4 48z" />
    <glyph glyph-name="four.plf" horiz-adv-x="641" 
d="M606 281l-27 -152h-74l-23 -129h-180l23 129h-337l26 152l369 434h226l-77 -434h74zM211 301l-20 -21q24 1 72 1h83l25 143l21 108h-1q-70 -97 -85 -116l-57 -70q-16 -21 -38 -45z" />
    <glyph glyph-name="five.plf" horiz-adv-x="613" 
d="M222 275l-175 28l112 412h447l-27 -152h-294l-31 -108q48 30 116 30q91 0 148.5 -54.5t57.5 -150.5q0 -134 -82.5 -214t-222.5 -80q-121 0 -189.5 64t-69.5 177h196q0 -39 21.5 -62t60.5 -23q45 0 70.5 29.5t25.5 75.5q0 38 -22 58.5t-59 20.5q-57 0 -83 -51z" />
    <glyph glyph-name="six.plf" horiz-adv-x="632" 
d="M624 523h-188q-6 59 -69 59q-48 0 -75 -41t-40 -114h2q51 40 132 40q92 0 148 -52.5t56 -149.5q0 -123 -82 -201.5t-216 -78.5q-125 0 -194 60.5t-69 178.5q0 106 35 222q41 142 120 214.5t205 72.5q115 0 175 -60t60 -150zM316 322q-45 0 -71.5 -28t-26.5 -71
q0 -41 24 -61.5t65 -20.5q43 0 69 28t26 72q0 38 -23.5 59.5t-62.5 21.5z" />
    <glyph glyph-name="seven.plf" horiz-adv-x="558" 
d="M243 0h-217q123 255 353 553q-1 0 -1 1q-29 -2 -121 -2h-195l30 163h528l-27 -152q-159 -185 -350 -563z" />
    <glyph glyph-name="eight.plf" horiz-adv-x="620" 
d="M267 -15q-122 0 -189 52t-67 141q0 73 42 125.5t106 78.5q-30 22 -49.5 57.5t-19.5 78.5q0 93 72.5 153.5t198.5 60.5q116 0 178 -48t62 -123q0 -122 -120 -178q93 -47 93 -151q0 -118 -84.5 -182.5t-222.5 -64.5zM304 310q-44 0 -73.5 -24.5t-29.5 -67.5q0 -38 24 -59
t63 -21q48 0 75.5 26t27.5 71q0 34 -24.5 54.5t-62.5 20.5zM351 584q-37 0 -62 -20.5t-25 -55.5q0 -29 19.5 -45.5t52.5 -16.5q39 0 62.5 21.5t23.5 57.5q0 27 -20 43t-51 16z" />
    <glyph glyph-name="nine.plf" horiz-adv-x="632" 
d="M27 196h187q11 -59 71 -59q49 0 75 40t39 115h-2q-51 -40 -132 -40q-93 0 -148.5 53t-55.5 152q0 119 82.5 197.5t216.5 78.5q127 0 194.5 -61t67.5 -180q0 -104 -35 -220q-41 -142 -120 -214.5t-205 -72.5q-115 0 -175 60.5t-60 150.5zM335 398q45 0 71.5 28t26.5 71
q0 40 -24 60.5t-65 20.5q-43 0 -69 -27.5t-26 -71.5q0 -38 23.5 -59.5t62.5 -21.5z" />
    <glyph glyph-name="Gtilde" horiz-adv-x="806" 
d="M793 477h-212q-31 99 -140 99q-50 0 -88.5 -23t-60.5 -61.5t-33 -83.5t-11 -93q0 -80 39.5 -127t112.5 -47q120 0 165 109q-24 -2 -88 -2h-112l27 154h394l-71 -402h-173l12 59q-88 -71 -209 -71q-139 0 -225.5 86.5t-86.5 236.5q0 178 112.5 297.5t304.5 119.5
q148 0 236 -65.5t107 -185.5zM391 757h-96q0 55 28.5 90.5t78.5 35.5q34 0 72 -20q31 -16 42 -16q21 0 22 30h96q0 -55 -28.5 -90.5t-78.5 -35.5q-30 0 -62 15l-10 5q-31 16 -42 16q-21 0 -22 -30z" />
    <glyph glyph-name="gtilde" horiz-adv-x="643" 
d="M-12 -6h185q2 -32 22.5 -48t54.5 -16q55 0 81 34.5t36 113.5h-2q-61 -56 -143 -56q-92 0 -147.5 61t-55.5 167q0 51 16.5 101.5t47 93t80 69t110.5 26.5q56 0 98.5 -22t61.5 -53q7 50 9 60h190l-85 -475q-23 -131 -99.5 -188t-209.5 -57q-119 0 -183.5 50.5t-66.5 138.5z
M327 403q-50 0 -79.5 -47t-29.5 -109q0 -99 83 -99q51 0 80.5 45.5t29.5 104.5q0 105 -84 105zM288 587h-96q0 59 28.5 96.5t78.5 37.5q34 0 72 -20q31 -16 42 -16q21 0 22 30h96q0 -59 -28.5 -96.5t-78.5 -37.5q-30 0 -62 15l-10 5q-31 16 -42 16q-21 0 -22 -30z" />
    <glyph glyph-name="Mcircumflex" horiz-adv-x="970" 
d="M6 0l126 715h319l7 -201q8 -243 8 -303h3q78 220 113 308l79 196h321l-127 -715h-195l50 283q24 144 50 253h-4q-67 -175 -92 -235l-128 -301h-209l-24 300q-7 81 -9 236h-4q-19 -130 -39 -250l-51 -286h-194zM475 877h193l88 -122h-157l-35 48l-54 -48h-159z" />
    <glyph glyph-name="mcircumflex" horiz-adv-x="974" 
d="M532 0h-192l45 253q7 47 7 67q0 69 -60 69q-41 0 -64 -32.5t-35 -102.5l-45 -254h-192l93 525h184l-13 -67h1q66 79 172 79q110 0 147 -82h1q75 82 192 82q82 0 123.5 -42.5t41.5 -113.5q0 -32 -14 -110l-48 -271h-192l45 253q7 47 7 67q0 69 -60 69q-41 0 -64 -32.5
t-35 -102.5zM447 715h193l88 -128h-156l-35 48l-54 -48h-160z" />
    <glyph glyph-name="Mmacron" horiz-adv-x="970" 
d="M6 0l126 715h319l7 -201q8 -243 8 -303h3q78 220 113 308l79 196h321l-127 -715h-195l50 283q24 144 50 253h-4q-67 -175 -92 -235l-128 -301h-209l-24 300q-7 81 -9 236h-4q-19 -130 -39 -250l-51 -286h-194zM425 761l19 110h273l-19 -110h-273z" />
    <glyph glyph-name="mmacron" horiz-adv-x="974" 
d="M532 0h-192l45 253q7 47 7 67q0 69 -60 69q-41 0 -64 -32.5t-35 -102.5l-45 -254h-192l93 525h184l-13 -67h1q66 79 172 79q110 0 147 -82h1q75 82 192 82q82 0 123.5 -42.5t41.5 -113.5q0 -32 -14 -110l-48 -271h-192l45 253q7 47 7 67q0 69 -60 69q-41 0 -64 -32.5
t-35 -102.5zM388 597l19 110h273l-19 -110h-273z" />
    <glyph glyph-name="Ncircumflex" horiz-adv-x="772" 
d="M784 715l-127 -715h-260l-78 282q-26 94 -39 196h-3q-10 -88 -33 -207l-48 -271h-190l126 715h269l57 -223q29 -107 54 -243l2 1h2q10 87 32 210l45 255h191zM381 877h193l88 -122h-157l-35 48l-54 -48h-159z" />
    <glyph glyph-name="ncircumflex" horiz-adv-x="633" 
d="M188 0h-192l93 525h184l-6 -33q-5 -25 -7 -34h1q66 79 174 79q79 0 120.5 -42.5t41.5 -113.5q0 -32 -14 -110l-48 -271h-192l45 253q7 47 7 67q0 69 -61 69q-43 0 -66 -32t-35 -103zM290 715h193l88 -128h-156l-35 48l-54 -48h-160z" />
    <glyph glyph-name="Ndieresis" horiz-adv-x="772" 
d="M784 715l-127 -715h-260l-78 282q-26 94 -39 196h-3q-10 -88 -33 -207l-48 -271h-190l126 715h269l57 -223q29 -107 54 -243l2 1h2q10 87 32 210l45 255h191zM296 757l21 120h139l-21 -120h-139zM488 757l21 120h139l-21 -120h-139z" />
    <glyph glyph-name="ndieresis" horiz-adv-x="633" 
d="M188 0h-192l93 525h184l-6 -33q-5 -25 -7 -34h1q66 79 174 79q79 0 120.5 -42.5t41.5 -113.5q0 -32 -14 -110l-48 -271h-192l45 253q7 47 7 67q0 69 -61 69q-43 0 -66 -32t-35 -103zM194 587l23 128h144l-23 -128h-144zM392 587l23 128h143l-23 -128h-143z" />
    <glyph glyph-name="Nmacron" horiz-adv-x="772" 
d="M784 715l-127 -715h-260l-78 282q-26 94 -39 196h-3q-10 -88 -33 -207l-48 -271h-190l126 715h269l57 -223q29 -107 54 -243l2 1h2q10 87 32 210l45 255h191zM328 761l19 110h273l-19 -110h-273z" />
    <glyph glyph-name="nmacron" horiz-adv-x="633" 
d="M188 0h-192l93 525h184l-6 -33q-5 -25 -7 -34h1q66 79 174 79q79 0 120.5 -42.5t41.5 -113.5q0 -32 -14 -110l-48 -271h-192l45 253q7 47 7 67q0 69 -61 69q-43 0 -66 -32t-35 -103zM222 597l19 110h273l-19 -110h-273z" />
    <glyph glyph-name="Pmacron" horiz-adv-x="657" 
d="M672 520q0 -110 -59 -181q-82 -102 -252 -102h-104l-42 -237h-209l126 715h272q120 0 179 -33q89 -52 89 -162zM285 397h61q51 0 82 16q42 23 42 79q0 65 -99 65h-58zM261 761l19 110h273l-19 -110h-273z" />
    <glyph glyph-name="pmacron" horiz-adv-x="646" 
d="M88 525h187l-12 -58h1q54 72 156 72q89 0 143 -61.5t54 -161.5q0 -61 -17.5 -119t-50 -105.5t-85.5 -76t-118 -28.5q-53 0 -91.5 19t-57.5 48l-7 -41q-13 -83 -15 -91l-19 -102h-191zM304 124q54 0 84.5 51t30.5 121q0 50 -21.5 79.5t-64.5 29.5q-54 0 -85.5 -50
t-31.5 -116q0 -115 88 -115zM229 597l19 110h273l-19 -110h-273z" />
    <glyph glyph-name="registered.alt" horiz-adv-x="819" 
d="M795 360q0 -158 -110 -267.5t-268 -109.5q-156 0 -265.5 110t-109.5 267t109.5 266.5t267.5 109.5q156 0 266 -110t110 -266zM720 360q0 125 -89 214.5t-212 89.5q-126 0 -213.5 -89t-87.5 -215t87.5 -216t212.5 -90q124 0 213 90t89 216zM366 293v-152h-123v433h188
q79 0 117 -26q50 -37 50 -102q0 -102 -87 -133l110 -172h-142l-86 152h-27zM366 479v-92h42q63 0 63 47q0 25 -16.5 35t-50.5 10h-38z" />
    <glyph glyph-name="uni00AD.case" horiz-adv-x="401" 
d="M44 279l27 157h303l-27 -157h-303z" />
    <glyph glyph-name="endash.case" horiz-adv-x="577" 
d="M46 283l27 157h476l-27 -157h-476z" />
    <glyph glyph-name="emdash.case" horiz-adv-x="942" 
d="M46 283l27 157h841l-27 -157h-841z" />
    <glyph glyph-name="hyphen.case" horiz-adv-x="401" 
d="M44 279l27 157h303l-27 -157h-303z" />
    <glyph glyph-name="guillemotleft.case" horiz-adv-x="588" 
d="M351 533l-135 -187l67 -188h-166l-80 188l139 187h175zM592 533l-135 -187l67 -188h-166l-80 188l139 187h175z" />
    <glyph glyph-name="guillemotright.case" horiz-adv-x="589" 
d="M251 158l135 187l-67 188h166l80 -188l-139 -187h-175zM10 158l135 187l-67 188h166l80 -188l-139 -187h-175z" />
    <glyph glyph-name="guilsinglleft.case" horiz-adv-x="347" 
d="M351 533l-135 -187l67 -188h-166l-80 188l139 187h175z" />
    <glyph glyph-name="guilsinglright.case" horiz-adv-x="348" 
d="M10 158l135 187l-67 188h166l80 -188l-139 -187h-175z" />
    <glyph glyph-name="parenleft.case" horiz-adv-x="355" 
d="M29 284q0 173 100 313t269 205l-32 -184q-79 -50 -125.5 -134.5t-46.5 -187.5q0 -142 75 -223l-32 -180q-95 45 -151.5 153t-56.5 238z" />
    <glyph glyph-name="parenright.case" horiz-adv-x="355" 
d="M340 411q0 -173 -100 -313.5t-269 -204.5l32 184q79 50 125.5 134.5t46.5 187.5q0 142 -75 223l32 180q95 -45 151.5 -153t56.5 -238z" />
    <glyph glyph-name="bracketleft.case" horiz-adv-x="373" 
d="M295 45l-19 -108h-260l144 828h261l-18 -107h-98l-108 -613h98z" />
    <glyph glyph-name="bracketright.case" horiz-adv-x="371" 
d="M-33 -63l19 108h97l108 613h-98l18 107h261l-145 -828h-260z" />
    <glyph glyph-name="braceleft.case" horiz-adv-x="362" 
d="M33 319l16 92q37 4 55.5 25t27.5 78l23 129q12 72 46 99t116 27q50 0 85 -1l-18 -102q-37 -2 -52.5 -18t-23.5 -63l-18 -103q-7 -40 -15 -63.5t-22.5 -36t-25 -17t-35.5 -10.5l-1 -2q34 -16 46 -30t12 -46q0 -20 -8 -70l-16 -94q-4 -17 -4 -37q0 -23 11.5 -31t40.5 -10
l-18 -102q-10 -1 -85 -1q-69 0 -96 17t-27 61q0 16 5 48l27 152q5 32 5 46q0 29 -11.5 41.5t-39.5 21.5z" />
    <glyph glyph-name="braceright.case" horiz-adv-x="362" 
d="M346 385l-16 -92q-37 -4 -55.5 -25t-27.5 -78l-24 -133q-12 -72 -46 -99t-116 -27q-50 0 -85 1l18 102q37 2 52.5 18t23.5 63l18 103q7 40 15 63.5t22.5 36t25 17t35.5 10.5l1 2q-34 16 -46 30t-12 46q0 20 8 70l16 94q4 17 4 37q0 23 -11.5 31t-40.5 10l18 102
q10 1 85 1q68 0 95.5 -17.5t27.5 -60.5q0 -16 -5 -48l-26 -148q-5 -32 -5 -46q0 -29 11.5 -41.5t39.5 -21.5z" />
    <glyph glyph-name="bar.case" horiz-adv-x="322" 
d="M25 -12l139 793h161l-139 -793h-161z" />
    <glyph glyph-name="minus.case" 
d="M75 280v160h498v-160h-498z" />
    <glyph glyph-name="multiply.case" 
d="M192 115l-111 111l134 134l-134 134l111 111l134 -134l134 134l111 -111l-134 -134l134 -134l-111 -111l-134 134z" />
    <glyph glyph-name="plus.case" 
d="M74 295v160h173v174h162v-174h174v-160h-174v-176h-162v176h-173z" />
    <glyph glyph-name="less.case" 
d="M523 665v-180l-250 -107v-3l250 -108v-182l-435 230v118z" />
    <glyph glyph-name="equal.case" 
d="M75 204v151h498v-151h-498zM75 397v150h498v-150h-498z" />
    <glyph glyph-name="greater.case" 
d="M134 485v180l435 -232v-118l-435 -230v182l250 108v3z" />
    <glyph glyph-name="at.case" horiz-adv-x="809" 
d="M545 536h105l-60 -238q-9 -32 -9 -42q-1 -7 2.5 -10t11.5 -3q40 0 71.5 54t31.5 127q0 98 -65.5 157t-176.5 59q-129 0 -219.5 -88t-90.5 -223q0 -117 76.5 -190.5t199.5 -73.5q114 0 218 64l53 -63q-127 -92 -283 -92q-170 0 -269 96.5t-99 250.5q0 174 120.5 292
t298.5 118q147 0 240.5 -82.5t93.5 -209.5q0 -120 -67.5 -204.5t-161.5 -84.5q-58 0 -79 38q-49 -42 -115 -42q-70 0 -113.5 44.5t-43.5 118.5q0 95 60.5 169.5t152.5 74.5q76 0 109 -47zM429 451q-48 0 -74 -38.5t-26 -87.5q0 -39 20.5 -59t53.5 -20q45 0 72 41t27 94
q0 33 -20 51.5t-53 18.5z" />
    <glyph glyph-name="notequal.case" 
d="M80 400v147h234l31 63h159l-31 -63h105v-147h-176l-23 -48h199v-148h-271l-36 -74h-159l36 74h-68v148h140l23 48h-163z" />
    <glyph glyph-name="plusminus.case" 
d="M66 40v157h498v-157h-498zM61 354v160h173v126h162v-126h174v-160h-174v-124h-162v124h-173z" />
    <glyph glyph-name="lessequal.case" 
d="M528 681v-160l-230 -70v-3l230 -74v-162l-435 175v118zM93 40v160h435v-160h-435z" />
    <glyph glyph-name="greaterequal.case" 
d="M111 521v160l435 -176v-118l-435 -175v162l230 74v3zM546 200v-160h-435v160h435z" />
    <glyph glyph-name="logicalnot.case" 
d="M66 360v160h505v-342h-165v182h-340z" />
    <glyph glyph-name="approxequal.case" 
d="M418 494q41 0 74 61l100 -74q-29 -60 -75.5 -99t-96.5 -39q-45 0 -113 33l-20 10q-44 21 -63 21q-41 0 -74 -61l-100 74q29 60 75.5 99t96.5 39q45 0 113 -33l20 -10q44 -21 63 -21zM416 244q41 0 74 61l100 -74q-29 -60 -75.5 -99t-96.5 -39q-45 0 -113 33l-20 10
q-44 21 -63 21q-41 0 -74 -61l-100 74q29 60 75.5 99t96.5 39q45 0 113 -33l20 -10q44 -21 63 -21z" />
    <glyph glyph-name="divide.case" 
d="M76 275v160h498v-160h-498zM232 83v157h185v-157h-185zM232 469v157h185v-157h-185z" />
    <glyph glyph-name="infinity.case" horiz-adv-x="895" 
d="M247 563q32 0 57.5 -6.5t57 -26.5t44 -29.5t53.5 -43.5q39 33 53 44t43.5 30t56 25.5t58.5 6.5q89 0 142 -56.5t53 -148.5q0 -81 -50.5 -141.5t-140.5 -60.5q-35 0 -65.5 8.5t-59 28t-46 34t-46.5 42.5q-57 -55 -105 -84t-110 -29q-95 0 -144 59.5t-49 142.5
q0 92 53.5 148.5t144.5 56.5zM655 310q23 0 36.5 13.5t13.5 37.5q0 22 -13.5 36t-35.5 14q-37 0 -96 -52q24 -19 32.5 -25.5t27.5 -15t35 -8.5zM260 310q16 0 34.5 8.5t28 15.5t31.5 25q-59 52 -95 52q-23 0 -36 -14t-13 -36q0 -24 13.5 -37.5t36.5 -13.5z" />
    <glyph glyph-name="zero.posf" 
d="M290 145q49 0 73.5 46t44.5 152q14 76 14 124q0 91 -66 91q-47 0 -70 -47.5t-45 -167.5q-13 -76 -13 -114q0 -84 62 -84zM378 718q124 0 184 -62t60 -169q0 -52 -13 -128q-16 -89 -38.5 -151.5t-60.5 -116t-98 -80t-144 -26.5q-240 0 -240 231q0 52 13 128
q15 89 37 152.5t60 116t98 79t142 26.5z" />
    <glyph glyph-name="one.posf" horiz-adv-x="487" 
d="M230 444h-190l25 135h27q150 0 203 122h181l-127 -701h-199z" />
    <glyph glyph-name="two.posf" horiz-adv-x="628" 
d="M539 0h-546l25 153q123 77 266 176q22 16 34.5 25t33.5 27.5t32 34t20 37t9 42.5q0 29 -18.5 47t-53.5 18q-81 0 -90 -109h-191q12 127 89.5 197.5t215.5 70.5q116 0 181.5 -51t65.5 -136q0 -166 -195 -295q-83 -55 -144 -85q25 1 112 1h181z" />
    <glyph glyph-name="three.posf" horiz-adv-x="615" 
d="M11 234h183q0 -2 -0.5 -6t-0.5 -7q0 -84 87 -84q44 0 71 23.5t27 66.5q0 73 -112 73h-31l24 140h13q132 0 132 79q0 24 -17.5 37.5t-46.5 13.5q-73 0 -83 -82h-181q13 108 87 169.5t201 61.5q111 0 172.5 -45.5t61.5 -118.5q0 -62 -32.5 -107t-87.5 -69q90 -51 90 -145
q0 -117 -84.5 -183.5t-219.5 -66.5q-119 0 -188 53.5t-69 149.5q0 26 4 47z" />
    <glyph glyph-name="four.posf" horiz-adv-x="641" 
d="M605 276l-27 -149h-74l-23 -127h-180l23 127h-337l26 149l369 425h226l-77 -425h74zM190 275q24 1 72 1h83l25 140l21 106h-1q-55 -76 -85 -114l-57 -69q-18 -22 -38 -44q-2 -2 -6 -6.5t-7.5 -7.5t-6.5 -6z" />
    <glyph glyph-name="five.posf" horiz-adv-x="619" 
d="M227 270l-175 27l112 404h447l-27 -149h-294l-31 -106q46 29 116 29q92 0 149 -53t57 -148q0 -132 -82.5 -210t-222.5 -78q-121 0 -189.5 62.5t-69.5 173.5h196q0 -38 21.5 -60.5t60.5 -22.5q45 0 70.5 29t25.5 74q0 36 -22 56.5t-59 20.5q-57 0 -83 -49z" />
    <glyph glyph-name="six.posf" horiz-adv-x="632" 
d="M623 513h-188q-6 58 -69 58q-86 0 -115 -152h2q52 39 132 39q93 0 148.5 -51t55.5 -147q0 -121 -82 -198t-216 -77q-126 0 -194.5 59.5t-68.5 175.5q0 103 35 217q41 139 120 210.5t205 71.5q115 0 175 -59.5t60 -146.5zM315 316q-45 0 -71.5 -27t-26.5 -70
q0 -40 24 -60.5t65 -20.5q42 0 68.5 28t26.5 70q0 37 -23.5 58.5t-62.5 21.5z" />
    <glyph glyph-name="seven.posf" horiz-adv-x="560" 
d="M242 0h-217q124 252 353 542q-1 0 -1 1q-29 -2 -121 -2h-195l30 160h528l-27 -149q-158 -179 -350 -552z" />
    <glyph glyph-name="eight.posf" horiz-adv-x="621" 
d="M267 -15q-123 0 -189.5 51t-66.5 139q0 72 42 123t106 77q-30 20 -49.5 55t-19.5 78q0 90 73 150t198 60q116 0 178 -47t62 -121q0 -62 -33.5 -106.5t-86.5 -67.5q93 -47 93 -148q0 -116 -84.5 -179.5t-222.5 -63.5zM304 304q-44 0 -73.5 -23.5t-29.5 -66.5q0 -37 24 -58
t63 -21q48 0 75.5 26t27.5 69q0 34 -24.5 54t-62.5 20zM351 572q-37 0 -62 -19.5t-25 -54.5q0 -28 20 -44.5t52 -16.5q40 0 63 21.5t23 56.5q0 26 -20 41.5t-51 15.5z" />
    <glyph glyph-name="nine.posf" horiz-adv-x="633" 
d="M26 192h187q11 -58 71 -58q49 0 75 39.5t39 112.5h-2q-52 -39 -132 -39q-93 0 -148.5 52t-55.5 149q0 116 82.5 193.5t216.5 77.5q127 0 194.5 -59.5t67.5 -177.5q0 -101 -35 -215q-41 -139 -120 -210.5t-205 -71.5q-115 0 -175 59.5t-60 147.5zM334 390q45 0 71.5 27
t26.5 70q0 40 -24 60t-65 20q-42 0 -68.5 -27.5t-26.5 -69.5q0 -37 23.5 -58.5t62.5 -21.5z" />
    <glyph glyph-name="brokenbar.case" horiz-adv-x="269" 
d="M75 428l53 303h162l-53 -303h-162zM-11 -62l53 303h162l-53 -303h-162z" />
    <glyph glyph-name="idotaccent" horiz-adv-x="291" 
d="M98 579l24 136h192l-24 -136h-192zM187 0h-191l92 525h192z" />
    <glyph glyph-name="zero.slashplf" horiz-adv-x="635" 
d="M380 732q124 0 184 -62.5t60 -172.5q0 -55 -13 -131q-13 -72 -28.5 -125.5t-42.5 -103.5t-62.5 -82t-88 -51t-119.5 -19q-240 0 -240 235q0 55 13 131q15 90 37 155t60 118.5t98 80.5t142 27zM291 144q50 0 76.5 48.5t45.5 157.5q7 32 13 86l-154 -290q14 -2 19 -2z
M240 350l-8 -46l143 267q-14 2 -16 2q-48 0 -72.5 -50.5t-46.5 -172.5z" />
    <glyph glyph-name="zero.slash" 
d="M379 732q124 0 184 -62.5t60 -172.5q0 -55 -13 -131q-13 -72 -28.5 -125.5t-42.5 -103.5t-62.5 -82t-88 -51t-119.5 -19q-240 0 -240 235q0 55 13 131q15 90 37 155t60 118.5t98 80.5t142 27zM290 144q50 0 76.5 48.5t45.5 157.5q7 32 13 86l-154 -290q14 -2 19 -2z
M239 350l-8 -46l143 267q-14 2 -16 2q-48 0 -72.5 -50.5t-46.5 -172.5z" />
    <glyph glyph-name="zero.tosf" 
d="M290 145q49 0 73.5 46t44.5 152q14 76 14 124q0 91 -66 91q-47 0 -70 -47.5t-45 -167.5q-13 -76 -13 -114q0 -84 62 -84zM378 718q124 0 184 -62t60 -169q0 -52 -13 -128q-16 -89 -38.5 -151.5t-60.5 -116t-98 -80t-144 -26.5q-240 0 -240 231q0 52 13 128
q15 89 37 152.5t60 116t98 79t142 26.5z" />
    <glyph glyph-name="one.tosf" 
d="M303 444h-190l25 135h27q150 0 203 122h181l-127 -701h-199z" />
    <glyph glyph-name="two.tosf" 
d="M542 0h-546l25 153q123 77 266 176q22 16 34.5 25t33.5 27.5t32 34t20 37t9 42.5q0 29 -18.5 47t-53.5 18q-81 0 -90 -109h-191q12 127 89.5 197.5t215.5 70.5q116 0 181.5 -51t65.5 -136q0 -166 -195 -295q-83 -55 -144 -85q25 1 112 1h181z" />
    <glyph glyph-name="three.tosf" 
d="M20 234h183q0 -2 -0.5 -6t-0.5 -7q0 -84 87 -84q44 0 71 23.5t27 66.5q0 73 -112 73h-31l24 140h13q132 0 132 79q0 24 -17.5 37.5t-46.5 13.5q-73 0 -83 -82h-181q13 108 87 169.5t201 61.5q111 0 172.5 -45.5t61.5 -118.5q0 -62 -32.5 -107t-87.5 -69q90 -51 90 -145
q0 -117 -84.5 -183.5t-219.5 -66.5q-119 0 -188 53.5t-69 149.5q0 26 4 47z" />
    <glyph glyph-name="four.tosf" 
d="M601 276l-27 -149h-74l-23 -127h-180l23 127h-337l26 149l369 425h226l-77 -425h74zM186 275q24 1 72 1h83l25 140l21 106h-1q-55 -76 -85 -114l-57 -69q-18 -22 -38 -44q-2 -2 -6 -6.5t-7.5 -7.5t-6.5 -6z" />
    <glyph glyph-name="five.tosf" 
d="M234 270l-175 27l112 404h447l-27 -149h-294l-31 -106q46 29 116 29q92 0 149 -53t57 -148q0 -132 -82.5 -210t-222.5 -78q-121 0 -189.5 62.5t-69.5 173.5h196q0 -38 21.5 -60.5t60.5 -22.5q45 0 70.5 29t25.5 74q0 36 -22 56.5t-59 20.5q-57 0 -83 -49z" />
    <glyph glyph-name="six.tosf" 
d="M624 513h-188q-6 58 -69 58q-86 0 -115 -152h2q52 39 132 39q93 0 148.5 -51t55.5 -147q0 -121 -82 -198t-216 -77q-126 0 -194.5 59.5t-68.5 175.5q0 103 35 217q41 139 120 210.5t205 71.5q115 0 175 -59.5t60 -146.5zM316 316q-45 0 -71.5 -27t-26.5 -70
q0 -40 24 -60.5t65 -20.5q42 0 68.5 28t26.5 70q0 37 -23.5 58.5t-62.5 21.5z" />
    <glyph glyph-name="seven.tosf" 
d="M279 0h-217q124 252 353 542q-1 0 -1 1q-29 -2 -121 -2h-195l30 160h528l-27 -149q-158 -179 -350 -552z" />
    <glyph glyph-name="eight.tosf" 
d="M273 -15q-123 0 -189.5 51t-66.5 139q0 72 42 123t106 77q-30 20 -49.5 55t-19.5 78q0 90 73 150t198 60q116 0 178 -47t62 -121q0 -62 -33.5 -106.5t-86.5 -67.5q93 -47 93 -148q0 -116 -84.5 -179.5t-222.5 -63.5zM310 304q-44 0 -73.5 -23.5t-29.5 -66.5q0 -37 24 -58
t63 -21q48 0 75.5 26t27.5 69q0 34 -24.5 54t-62.5 20zM357 572q-37 0 -62 -19.5t-25 -54.5q0 -28 20 -44.5t52 -16.5q40 0 63 21.5t23 56.5q0 26 -20 41.5t-51 15.5z" />
    <glyph glyph-name="nine.tosf" 
d="M26 192h187q11 -58 71 -58q49 0 75 39.5t39 112.5h-2q-52 -39 -132 -39q-93 0 -148.5 52t-55.5 149q0 116 82.5 193.5t216.5 77.5q127 0 194.5 -59.5t67.5 -177.5q0 -101 -35 -215q-41 -139 -120 -210.5t-205 -71.5q-115 0 -175 59.5t-60 147.5zM334 390q45 0 71.5 27
t26.5 70q0 40 -24 60t-65 20q-42 0 -68.5 -27.5t-26.5 -69.5q0 -37 23.5 -58.5t62.5 -21.5z" />
    <glyph glyph-name="zero.sub" horiz-adv-x="480" 
d="M208 -9q35 0 53.5 35.5t32.5 114.5q11 61 11 95q0 68 -49 68q-34 0 -51.5 -36.5t-32.5 -126.5q-10 -50 -10 -88q0 -62 46 -62zM273 428q93 0 138.5 -47.5t45.5 -129.5q0 -48 -10 -98q-12 -68 -28.5 -116.5t-45.5 -89t-74 -60.5t-108 -20q-181 0 -181 177q0 51 10 98
q22 137 79.5 211.5t173.5 74.5z" />
    <glyph glyph-name="one.sub" horiz-adv-x="370" 
d="M161 216h-143l19 106h21q111 0 152 92h136l-95 -537h-150z" />
    <glyph glyph-name="two.sub" horiz-adv-x="474" 
d="M393 -123h-411l19 118q39 24 200 134q95 64 95 126q0 22 -13.5 35.5t-38.5 13.5q-59 0 -66 -83h-145q9 97 67 151t161 54q89 0 138 -38.5t49 -103.5q0 -124 -147 -227q-51 -35 -102 -63q19 1 77 1h137z" />
    <glyph glyph-name="three.sub" horiz-adv-x="465" 
d="M-3 58h139q0 -2 -0.5 -4t-0.5 -3v-5q0 -30 17 -46t48 -16q32 0 51.5 18t19.5 49q0 55 -82 55h-24l18 109h11q97 0 97 59q0 18 -12.5 28t-33.5 10q-53 0 -62 -62h-137q9 83 65 130t151 47q85 0 130.5 -34.5t45.5 -90.5q0 -47 -23.5 -81.5t-64.5 -52.5q66 -36 66 -111
q0 -90 -63 -140.5t-165 -50.5q-90 0 -142 40.5t-52 114.5q0 18 3 37z" />
    <glyph glyph-name="four.sub" horiz-adv-x="487" 
d="M443 89l-20 -116h-56q-2 -15 -8 -47t-9 -49h-136l17 96h-252l19 116l276 325h171l-57 -325h55zM219 188l-43 -52q-21 -28 -41 -48q16 1 51 1h61l18 106q4 24 7.5 41t5.5 24.5t2 11.5q-14 -19 -27 -38t-20 -28.5t-14 -17.5z" />
    <glyph glyph-name="five.sub" horiz-adv-x="467" 
d="M158 83l-133 21l84 310h337l-21 -115h-219l-22 -77q33 20 84 20q69 0 112 -40.5t43 -113.5q0 -101 -61.5 -161t-167.5 -60q-91 0 -142.5 48.5t-52.5 133.5h149q0 -30 16 -47t45 -17q32 0 51 22.5t19 55.5q0 27 -16 42.5t-43 15.5q-44 0 -62 -38z" />
    <glyph glyph-name="six.sub" horiz-adv-x="477" 
d="M457 270h-143q-5 44 -51 44q-62 0 -82 -112q35 28 96 28q71 0 112.5 -39.5t41.5 -113.5q0 -91 -61.5 -150.5t-161.5 -59.5q-95 0 -147 45.5t-52 134.5q0 77 27 166q31 101 92 158t151 57q87 0 132.5 -45t45.5 -113zM226 119q-33 0 -53 -21t-20 -52q0 -29 18 -45t48 -16
q31 0 50 21t19 53q0 28 -17 44t-45 16z" />
    <glyph glyph-name="seven.sub" horiz-adv-x="422" 
d="M171 -123h-164q92 191 261 415q-21 -2 -87 -2h-147l23 124h397l-21 -115q-122 -146 -262 -422z" />
    <glyph glyph-name="eight.sub" horiz-adv-x="470" 
d="M190 -133q-92 0 -142.5 39t-50.5 106q0 55 31 94t79 59q-51 38 -51 102q0 70 54.5 115.5t148.5 45.5q87 0 134 -36t47 -93q0 -93 -89 -133q69 -35 69 -113q0 -89 -63 -137.5t-167 -48.5zM217 110q-32 0 -54 -18t-22 -50q0 -28 17.5 -43.5t46.5 -15.5q35 0 55.5 19.5
t20.5 52.5q0 26 -18 40.5t-46 14.5zM253 316q-27 0 -46 -15.5t-19 -40.5q0 -21 15 -33.5t38 -12.5q29 0 46 16t17 42q0 20 -14.5 32t-36.5 12z" />
    <glyph glyph-name="nine.sub" horiz-adv-x="477" 
d="M8 28h143q8 -45 52 -45q36 0 54.5 29t27.5 84q-35 -28 -97 -28q-71 0 -112.5 39t-41.5 115q0 89 62 148t163 59q95 0 146 -45t51 -135q0 -76 -27 -165q-31 -101 -92 -158.5t-151 -57.5q-87 0 -132.5 46t-45.5 114zM240 179q32 0 52 21t20 52q0 30 -18 45t-47 15
q-32 0 -51 -20t-19 -53q0 -28 17 -44t46 -16z" />
    <glyph glyph-name="a.sub" horiz-adv-x="433" 
d="M355 -123h-128l3 38q-54 -45 -125 -45q-59 0 -93 26t-34 76q0 100 149 134q59 13 128 18q2 14 2 19q0 45 -47 45q-43 0 -55 -46h-134q15 67 68 103.5t138 36.5q74 0 119 -30t45 -95q0 -27 -5 -59l-19 -104q-15 -89 -12 -117zM242 45l-25 -3q-56 -7 -79.5 -19t-23.5 -36
q0 -37 45 -37q30 0 51.5 21t29.5 64q0 1 1 5t1 5z" />
    <glyph glyph-name="b.sub" horiz-adv-x="484" 
d="M122 -123h-140l93 536h146l-18 -101l-10 -57q-1 -4 -2 -10t-2 -10q40 46 111 46q68 0 108 -45.5t40 -121.5q0 -99 -53.5 -173t-150.5 -74q-42 0 -72 15.5t-42 38.5zM213 -29q39 0 62 38.5t23 89.5q0 37 -16 58.5t-48 21.5q-39 0 -62 -37t-23 -86q0 -85 64 -85z" />
    <glyph glyph-name="c.sub" horiz-adv-x="465" 
d="M278 24h151q-21 -73 -77.5 -115t-148.5 -42q-90 0 -147 48t-57 138q0 101 62.5 166t175.5 65q87 0 140 -41t61 -115h-146q-4 25 -19.5 39.5t-41.5 14.5q-39 0 -61.5 -37t-22.5 -86q0 -40 16.5 -63t46.5 -23q47 0 68 51z" />
    <glyph glyph-name="d.sub" horiz-adv-x="484" 
d="M395 -123h-145l7 36q-40 -46 -110 -46q-68 0 -108.5 46t-40.5 121q0 99 53.5 173t149.5 74q79 0 111 -51l4 25q1 6 4 24.5t5 28.5l18 105h146zM233 177q-39 0 -62 -38.5t-23 -89.5q0 -37 16 -59t47 -22q40 0 63.5 37.5t23.5 86.5q0 85 -65 85z" />
    <glyph glyph-name="e.sub" horiz-adv-x="468" 
d="M274 7h150q-52 -140 -223 -140q-92 0 -146.5 48.5t-54.5 138.5q0 98 60.5 164t170.5 66q96 0 151 -52t55 -140q0 -25 -6 -49h-290q2 -35 20.5 -54.5t46.5 -19.5q49 0 66 38zM225 187q-31 0 -51.5 -18t-26.5 -46h147q-2 28 -21 46t-48 18z" />
    <glyph glyph-name="f.sub" horiz-adv-x="280" 
d="M80 271l2 13q13 72 50.5 104t122.5 32q40 0 58 -5l-18 -99q-8 2 -19 2q-48 0 -53 -43q0 -1 -0.5 -2t-0.5 -2h65l-18 -105h-65l-50 -289h-142l50 289h-47l17 105h48z" />
    <glyph glyph-name="g.sub" horiz-adv-x="482" 
d="M-21 -123h141q4 -48 57 -48q39 0 58 24.5t26 82.5q-42 -40 -105 -40q-70 0 -111.5 45.5t-41.5 125.5q0 53 20 101t65 82t106 34q39 0 70.5 -16t47.5 -38l6 36q0 2 0.5 4t0.5 3h144l-63 -355q-39 -185 -232 -185q-90 0 -138.5 38t-50.5 106zM234 180q-37 0 -58.5 -34.5
t-21.5 -81.5q0 -34 15 -53.5t45 -19.5q37 0 59.5 34.5t22.5 77.5q0 77 -62 77z" />
    <glyph glyph-name="h.sub" horiz-adv-x="471" 
d="M127 -123h-146l95 537h145l-17 -97l-10 -60q-1 -5 -4 -25q43 48 120 48q61 0 92 -32t31 -85q0 -20 -11 -82l-36 -204h-146l34 190q5 25 5 50q0 51 -44 51q-31 0 -48 -23.5t-26 -76.5z" />
    <glyph glyph-name="i.sub" horiz-adv-x="216" 
d="M58 310l18 104h145l-18 -104h-145zM127 -123h-145l69 394h145z" />
    <glyph glyph-name="j.sub" horiz-adv-x="217" 
d="M197 271l-69 -394q-15 -83 -54 -113.5t-120 -30.5q-52 0 -67 5l16 98q7 -1 14 -1q32 0 47 13.5t20 44.5l68 378h145zM58 310l18 104h145l-18 -104h-145z" />
    <glyph glyph-name="k.sub" horiz-adv-x="466" 
d="M127 -123h-145l94 537h145l-52 -306l139 163h179q-36 -36 -99.5 -101.5t-75.5 -77.5l-7 -8q15 -24 17 -28v1q59 -104 106 -180h-181q-72 142 -87 185z" />
    <glyph glyph-name="l.sub" horiz-adv-x="216" 
d="M127 -123h-145l94 537h145z" />
    <glyph glyph-name="m.sub" horiz-adv-x="727" 
d="M385 -123h-146l33 190q0 1 0.5 3t0.5 3q5 27 5 44q0 51 -43 51q-30 0 -47.5 -24t-26.5 -76l-33 -191h-146l69 394h140l-8 -46q52 55 126 55q84 0 111 -61q65 61 143 61q63 0 94 -32t31 -85q0 -25 -10 -83l-36 -203h-145l32 190q0 1 0.5 3t0.5 3q5 27 5 44q0 51 -43 51
q-30 0 -47.5 -24t-26.5 -76z" />
    <glyph glyph-name="n.sub" horiz-adv-x="472" 
d="M127 -123h-146l70 394h140l-5 -26l-4 -20v-1q49 56 128 56q61 0 92 -32t31 -85q0 -37 -11 -83l-36 -203h-146l34 190q5 32 5 50q0 51 -44 51q-31 0 -48 -23.5t-26 -76.5z" />
    <glyph glyph-name="o.sub" horiz-adv-x="484" 
d="M212 -27q39 0 62 38.5t23 89.5q0 37 -16 59t-48 22q-39 0 -62 -37t-23 -86q0 -86 64 -86zM242 284q94 0 149.5 -48t55.5 -134q0 -104 -62.5 -169.5t-180.5 -65.5q-92 0 -148.5 48t-56.5 138q0 101 63 166t180 65z" />
    <glyph glyph-name="p.sub" horiz-adv-x="484" 
d="M51 271h142l-8 -41q38 51 115 51q68 0 108 -45.5t40 -121.5q0 -99 -53.5 -173t-150.5 -74q-76 0 -111 50q-2 -21 -4 -30l-11 -68q-2 -13 -7 -39t-7 -38h-146zM213 -29q39 0 62 38.5t23 89.5q0 37 -16 59t-48 22q-39 0 -62 -37.5t-23 -86.5q0 -85 64 -85z" />
    <glyph glyph-name="q.sub" horiz-adv-x="484" 
d="M370 -259h-147l15 85l10 54l6 29q-39 -43 -108 -43q-68 0 -108 45.5t-40 121.5q0 99 53.5 173t148.5 74q75 0 112 -49l7 39h145zM232 176q-38 0 -61 -38.5t-23 -89.5q0 -37 16 -58.5t47 -21.5q40 0 63 37t23 86q0 85 -65 85z" />
    <glyph glyph-name="r.sub" horiz-adv-x="312" 
d="M-18 -123l57 323q0 4 2 13t3 14l7 44h134l-3 -19l-5 -32q19 27 52 44t71 17q13 0 23 -2l-22 -127q-15 3 -31 3q-58 0 -82 -38t-40 -130l-20 -110h-146z" />
    <glyph glyph-name="s.sub" horiz-adv-x="423" 
d="M-13 11h139q0 -52 58 -52q26 0 39 9.5t13 22.5q0 19 -60 35q-8 2 -21.5 6t-20.5 5q-61 15 -90.5 42.5t-29.5 75.5q0 62 52.5 97t144.5 35q85 0 130.5 -33.5t45.5 -99.5h-131q-4 40 -55 40q-47 0 -47 -27q0 -12 11 -18.5t45 -15.5l34 -9q135 -35 135 -116
q0 -69 -54.5 -105t-151.5 -36q-182 0 -186 144z" />
    <glyph glyph-name="t.sub" horiz-adv-x="300" 
d="M62 165h-57l18 106h57l18 106h145l-18 -106h66l-18 -106h-66l-18 -97q-7 -47 -7 -63q0 -17 7 -24t26 -7q11 0 14 1q1 0 3 0.5l2 0.5l-18 -103q-18 -5 -66 -5q-66 0 -95.5 15t-29.5 63q0 22 6 52z" />
    <glyph glyph-name="u.sub" horiz-adv-x="468" 
d="M302 271h146l-69 -394h-140l4 26l3 13q0 4 1 7q-51 -54 -126 -54q-60 0 -90.5 32t-30.5 85q0 17 9 71q0 1 1 5t1 6l36 203h146l-34 -189q-5 -33 -5 -50q0 -52 44 -52q30 0 46 23.5t25 76.5z" />
    <glyph glyph-name="v.sub" horiz-adv-x="431" 
d="M81 -123l-35 196l-34 197h151l23 -255q57 140 112 255h154q-54 -103 -113 -211l-99 -182h-159z" />
    <glyph glyph-name="w.sub" horiz-adv-x="658" 
d="M58 -123l-21 196l-21 197h143l6 -129q0 -3 3 -129q22 64 53 138l47 120h148l6 -122q1 -20 4 -131l1 -6q2 5 21.5 56.5t30.5 79.5l47 123h147l-97 -209l-85 -184h-165l-8 105q-1 20 -2 61t-3 59q-21 -60 -46 -119l-44 -106h-165z" />
    <glyph glyph-name="x.sub" horiz-adv-x="423" 
d="M-59 -123l171 202l-103 191h155l30 -65l16 -37l47 63l30 39h154q-15 -19 -100 -119l-67 -79q75 -135 106 -195h-156l-15 35l-30 66q-1 -1 -2 -3.5t-3 -4.5q-22 -31 -70 -93h-163z" />
    <glyph glyph-name="y.sub" horiz-adv-x="432" 
d="M294 271h156l-110 -203q-151 -281 -175 -326h-146l22 39v-1q42 73 53 96q-21 99 -55 250l-33 145h152l4 -28q6 -40 26 -206l3 1q40 103 103 233z" />
    <glyph glyph-name="z.sub" horiz-adv-x="415" 
d="M-28 -123l17 101l168 146l47 43q-19 -2 -89 -2h-90l19 105h354l-18 -101q-91 -87 -211 -188h9q54 2 86 2h94l-18 -106h-368z" />
    <glyph glyph-name="zero.sup" horiz-adv-x="479" 
d="M261 416q35 0 53.5 35.5t32.5 114.5q11 61 11 95q0 68 -49 68q-34 0 -51.5 -36.5t-32.5 -126.5q-10 -50 -10 -88q0 -62 46 -62zM326 853q93 0 138.5 -47.5t45.5 -129.5q0 -48 -10 -98q-12 -68 -28.5 -116.5t-45.5 -89t-74 -60.5t-108 -20q-181 0 -181 177q0 51 10 98
q22 137 79.5 211.5t173.5 74.5z" />
    <glyph glyph-name="one.sup" horiz-adv-x="369" 
d="M214 641h-143l19 106h21q111 0 152 92h136l-95 -537h-150z" />
    <glyph glyph-name="two.sup" horiz-adv-x="474" 
d="M446 302h-411l19 118q39 24 200 134q95 64 95 126q0 22 -13.5 35.5t-38.5 13.5q-59 0 -66 -83h-145q9 97 67 151t161 54q89 0 138 -38.5t49 -103.5q0 -124 -147 -227q-51 -35 -102 -63q19 1 77 1h137z" />
    <glyph glyph-name="three.sup" horiz-adv-x="464" 
d="M49 483h139q0 -1 -0.5 -3t-0.5 -4v-5q0 -30 17 -46t48 -16q32 0 51.5 18t19.5 49q0 55 -82 55h-24l18 109h11q97 0 97 59q0 18 -12.5 28t-33.5 10q-53 0 -62 -62h-137q9 83 65 130t151 47q85 0 130.5 -34t45.5 -91q0 -47 -23.5 -81.5t-64.5 -52.5q66 -36 66 -111
q0 -90 -63 -140.5t-165 -50.5q-90 0 -142 40.5t-52 114.5q0 18 3 37z" />
    <glyph glyph-name="four.sup" horiz-adv-x="486" 
d="M496 514l-20 -116h-56q-2 -15 -8 -47t-9 -49h-136l17 96h-252l19 116l276 325h171l-57 -325h55zM272 613l-43 -52q-21 -28 -41 -48q16 1 51 1h61l18 106q4 24 7.5 41t5.5 24.5t2 11.5q-14 -19 -27 -38t-20 -28.5t-14 -17.5z" />
    <glyph glyph-name="five.sup" horiz-adv-x="466" 
d="M211 508l-133 21l84 310h337l-21 -115h-219l-22 -77q33 20 84 20q69 0 112 -40.5t43 -113.5q0 -101 -61.5 -161t-167.5 -60q-91 0 -142.5 48.5t-52.5 133.5h149q0 -30 16 -47t45 -17q32 0 51 22.5t19 55.5q0 27 -16 42.5t-43 15.5q-44 0 -62 -38z" />
    <glyph glyph-name="six.sup" horiz-adv-x="477" 
d="M510 695h-143q-5 44 -51 44q-62 0 -82 -112q35 28 96 28q71 0 112.5 -39.5t41.5 -113.5q0 -91 -61.5 -150.5t-161.5 -59.5q-95 0 -147 45.5t-52 134.5q0 77 27 166q31 101 92 158t151 57q87 0 132.5 -45t45.5 -113zM279 544q-33 0 -53 -21t-20 -52q0 -29 18 -45t48 -16
q31 0 50 21t19 53q0 28 -17 44t-45 16z" />
    <glyph glyph-name="seven.sup" horiz-adv-x="421" 
d="M224 302h-164q92 191 261 415q-21 -2 -87 -2h-147l23 124h397l-21 -115q-122 -146 -262 -422z" />
    <glyph glyph-name="eight.sup" horiz-adv-x="469" 
d="M243 292q-92 0 -142.5 39t-50.5 106q0 55 31 94t79 59q-51 38 -51 102q0 70 54.5 115.5t148.5 45.5q87 0 134 -36t47 -93q0 -93 -89 -133q69 -35 69 -113q0 -89 -63 -137.5t-167 -48.5zM270 535q-32 0 -54 -18t-22 -50q0 -28 17.5 -43.5t46.5 -15.5q35 0 55.5 19.5
t20.5 52.5q0 26 -18 40.5t-46 14.5zM306 741q-27 0 -46 -15.5t-19 -40.5q0 -21 15 -33.5t38 -12.5q29 0 46 16t17 42q0 20 -14.5 32t-36.5 12z" />
    <glyph glyph-name="nine.sup" horiz-adv-x="477" 
d="M61 453h143q8 -45 52 -45q36 0 54.5 29t27.5 84q-35 -28 -97 -28q-71 0 -112.5 39t-41.5 115q0 89 62 148t163 59q95 0 146 -45t51 -135q0 -76 -27 -165q-31 -101 -92 -158.5t-151 -57.5q-87 0 -132.5 46t-45.5 114zM293 604q32 0 52 21t20 52q0 30 -18 45t-47 15
q-32 0 -51 -20t-19 -53q0 -28 17 -44t46 -16z" />
    <glyph glyph-name="a.sup" horiz-adv-x="433" 
d="M409 302h-128l3 38q-54 -45 -125 -45q-59 0 -93 26t-34 76q0 100 149 134q59 13 128 18q2 14 2 19q0 45 -47 45q-43 0 -55 -46h-134q15 67 68 103.5t138 36.5q74 0 119 -30t45 -95q0 -27 -5 -59l-19 -104q-15 -89 -12 -117zM296 470l-25 -3q-56 -7 -79.5 -19t-23.5 -36
q0 -37 45 -37q30 0 51.5 21t29.5 64q0 2 1 5t1 5z" />
    <glyph glyph-name="b.sup" horiz-adv-x="484" 
d="M175 302h-140l93 536h146l-18 -101l-10 -57q0 -4 -2 -10t-2 -10q40 46 111 46q68 0 108 -45.5t40 -121.5q0 -99 -53.5 -173t-150.5 -74q-42 0 -72 15.5t-42 38.5zM266 396q39 0 62 38.5t23 89.5q0 37 -16 58.5t-48 21.5q-39 0 -62 -37t-23 -86q0 -85 64 -85z" />
    <glyph glyph-name="c.sup" horiz-adv-x="464" 
d="M331 449h151q-21 -73 -77.5 -115t-148.5 -42q-90 0 -147 48t-57 138q0 101 62.5 166t175.5 65q87 0 140 -41t61 -115h-146q-4 25 -19.5 39.5t-41.5 14.5q-39 0 -61.5 -37t-22.5 -86q0 -40 16.5 -63t46.5 -23q47 0 68 51z" />
    <glyph glyph-name="d.sup" horiz-adv-x="484" 
d="M448 302h-145l7 36q-40 -46 -110 -46q-68 0 -108.5 46t-40.5 121q0 99 53.5 173t149.5 74q79 0 111 -51l4 25q1 6 4 24.5t5 28.5l18 105h146zM286 602q-39 0 -62 -38.5t-23 -89.5q0 -37 16 -59t47 -22q40 0 63.5 37.5t23.5 86.5q0 85 -65 85z" />
    <glyph glyph-name="e.sup" horiz-adv-x="467" 
d="M326 432h150q-52 -140 -223 -140q-92 0 -146.5 48.5t-54.5 138.5q0 98 60.5 164t170.5 66q96 0 151 -52t55 -140q0 -25 -6 -49h-290q2 -35 20.5 -54.5t46.5 -19.5q49 0 66 38zM277 612q-31 0 -51.5 -18t-26.5 -46h147q-2 28 -21 46t-48 18z" />
    <glyph glyph-name="f.sup" horiz-adv-x="283" 
d="M135 696l2 13q13 72 50.5 104t122.5 32q40 0 58 -5l-18 -99q-8 2 -19 2q-48 0 -53 -43v-2l-1 -2h65l-18 -105h-65l-50 -289h-142l50 289h-47l17 105h48z" />
    <glyph glyph-name="g.sup" horiz-adv-x="482" 
d="M32 302h141q4 -48 57 -48q39 0 58 24.5t26 82.5q-42 -40 -105 -40q-70 0 -111.5 45.5t-41.5 125.5q0 53 20 101t65 82t106 34q39 0 70.5 -16t47.5 -38l6 36q0 1 0.5 3t0.5 4h144l-63 -355q-39 -185 -232 -185q-90 0 -138.5 38t-50.5 106zM287 605q-37 0 -58.5 -34.5
t-21.5 -81.5q0 -34 15 -53.5t45 -19.5q37 0 59.5 34.5t22.5 77.5q0 77 -62 77z" />
    <glyph glyph-name="h.sup" horiz-adv-x="472" 
d="M181 302h-146l95 537h145l-17 -97l-10 -60q-1 -5 -4 -25q43 48 120 48q61 0 92 -32t31 -85q0 -20 -11 -82l-36 -204h-146l34 190q5 25 5 50q0 51 -44 51q-31 0 -48 -23.5t-26 -76.5z" />
    <glyph glyph-name="i.sup" horiz-adv-x="216" 
d="M111 735l18 104h145l-18 -104h-145zM180 302h-145l69 394h145z" />
    <glyph glyph-name="j.sup" horiz-adv-x="217" 
d="M250 696l-69 -394q-15 -83 -54 -113.5t-120 -30.5q-52 0 -67 5l16 98q7 -1 14 -1q32 0 47 13.5t20 44.5l68 378h145zM111 735l18 104h145l-18 -104h-145z" />
    <glyph glyph-name="k.sup" horiz-adv-x="465" 
d="M180 302h-145l94 537h145l-52 -306l139 163h179q-36 -36 -99.5 -101.5t-75.5 -77.5l-7 -8q15 -24 17 -28v1q59 -104 106 -180h-181q-72 142 -87 185z" />
    <glyph glyph-name="l.sup" horiz-adv-x="216" 
d="M180 302h-145l94 537h145z" />
    <glyph glyph-name="m.sup" horiz-adv-x="727" 
d="M438 302h-146l33 190q0 2 0.5 3t0.5 3q5 27 5 44q0 51 -43 51q-30 0 -47.5 -24t-26.5 -76l-33 -191h-146l69 394h140l-8 -46q52 55 126 55q84 0 111 -61q65 61 143 61q63 0 94 -32t31 -85q0 -25 -10 -83l-36 -203h-145l32 190q0 2 0.5 3t0.5 3q5 27 5 44q0 51 -43 51
q-30 0 -47.5 -24t-26.5 -76z" />
    <glyph glyph-name="n.sup" horiz-adv-x="472" 
d="M181 302h-146l70 394h140l-5 -26l-4 -20v-1q49 56 128 56q61 0 92 -32t31 -85q0 -37 -11 -83l-36 -203h-146l34 190q5 32 5 50q0 51 -44 51q-31 0 -48 -23.5t-26 -76.5z" />
    <glyph glyph-name="o.sup" horiz-adv-x="484" 
d="M265 398q39 0 62 38.5t23 89.5q0 37 -16 59t-48 22q-39 0 -62 -37t-23 -86q0 -86 64 -86zM295 709q94 0 149.5 -48t55.5 -134q0 -104 -62.5 -169.5t-180.5 -65.5q-92 0 -148.5 48t-56.5 138q0 101 63 166t180 65z" />
    <glyph glyph-name="p.sup" horiz-adv-x="484" 
d="M104 696h142l-8 -41q38 51 115 51q68 0 108 -45.5t40 -121.5q0 -99 -53.5 -173t-150.5 -74q-76 0 -111 50q-2 -21 -4 -30l-11 -68q-2 -13 -7 -39t-7 -38h-146zM266 396q39 0 62 38.5t23 89.5q0 37 -16 59t-48 22q-39 0 -62 -37.5t-23 -86.5q0 -85 64 -85z" />
    <glyph glyph-name="q.sup" horiz-adv-x="484" 
d="M423 166h-147l15 85l10 54l6 29q-39 -43 -108 -43q-68 0 -108 45.5t-40 121.5q0 99 53.5 173t148.5 74q75 0 112 -49l7 39h145zM285 601q-39 0 -61.5 -38.5t-22.5 -89.5q0 -37 16 -58.5t47 -21.5q40 0 63 37t23 86q0 85 -65 85z" />
    <glyph glyph-name="r.sup" horiz-adv-x="312" 
d="M35 302l57 323q0 4 2 13t3 14l7 44h134l-3 -19l-5 -32q19 27 52 44t71 17q13 0 23 -2l-22 -127q-15 3 -31 3q-58 0 -82 -38t-40 -130l-20 -110h-146z" />
    <glyph glyph-name="s.sup" horiz-adv-x="424" 
d="M41 436h139q0 -52 58 -52q26 0 39 9.5t13 22.5q0 11 -13.5 18.5t-46.5 16.5q-8 1 -21.5 5t-20.5 6q-61 15 -90.5 42.5t-29.5 75.5q0 62 52.5 97t144.5 35q85 0 130.5 -33.5t45.5 -99.5h-131q-4 40 -55 40q-47 0 -47 -27q0 -12 11 -18.5t45 -15.5l34 -9q135 -35 135 -116
q0 -69 -54.5 -105t-151.5 -36q-182 0 -186 144z" />
    <glyph glyph-name="t.sup" horiz-adv-x="300" 
d="M115 590h-57l18 106h57l18 106h145l-18 -106h66l-18 -106h-66l-18 -97q-7 -47 -7 -63q0 -17 7 -24t26 -7q11 0 14 1h2q2 1 3 1l-18 -103q-18 -5 -66 -5q-66 0 -95.5 15t-29.5 63q0 22 6 52z" />
    <glyph glyph-name="u.sup" horiz-adv-x="468" 
d="M355 696h146l-69 -394h-140l4 26l3 13q0 4 1 7q-51 -54 -126 -54q-60 0 -90.5 32t-30.5 85q0 17 9 71q0 2 1 6t1 5l36 203h146l-34 -189q-5 -33 -5 -50q0 -52 44 -52q30 0 46 23.5t25 76.5z" />
    <glyph glyph-name="v.sup" horiz-adv-x="431" 
d="M134 302l-35 196l-34 197h151l23 -255q57 140 112 255h154q-54 -103 -113 -211l-99 -182h-159z" />
    <glyph glyph-name="w.sup" horiz-adv-x="659" 
d="M112 302l-21 196l-21 197h143l6 -129q0 -3 3 -129q22 65 53 138l47 120h148l6 -122q1 -20 4 -131l1 -6q2 5 21.5 56.5t30.5 79.5l47 123h147l-97 -209l-85 -184h-165l-8 105q-1 20 -2 61t-3 59q-21 -60 -46 -119l-44 -106h-165z" />
    <glyph glyph-name="x.sup" horiz-adv-x="421" 
d="M-7 302l171 202l-103 191h155l30 -65l16 -37l47 63l30 39h154q-15 -19 -100 -119l-67 -79q75 -135 106 -195h-156l-15 35l-30 66q-1 -2 -2 -4.5t-3 -3.5q-22 -30 -70 -93h-163z" />
    <glyph glyph-name="y.sup" horiz-adv-x="432" 
d="M347 696h156l-110 -203q-151 -281 -175 -326h-146l22 39v-1q42 73 53 96q-21 99 -55 250l-33 145h152l4 -28q6 -40 26 -206l3 1q40 103 103 233z" />
    <glyph glyph-name="z.sup" horiz-adv-x="415" 
d="M25 302l17 101l168 146l47 43q-19 -2 -89 -2h-90l19 105h354l-18 -101q-91 -87 -211 -188h9q54 2 86 2h94l-18 -106h-368z" />
    </font>
</defs>
</svg>
