<?xml version="1.0" standalone="no"?>
<!DOCTYPE svg PUBLIC "-//W3C//DTD SVG 1.1//EN" "http://www.w3.org/Graphics/SVG/1.1/DTD/svg11.dtd" >
<svg>
<metadata>
Created by FontForge 20120731 at Tue Dec 15 21:07:55 2015
 By ,,,
(c)2013 Optimo. wf-rip
</metadata>
<defs>
<font id="Plain-UltrathinIta" horiz-adv-x="560" >
  <font-face 
    font-family="Plain Ultrathin"
    font-weight="150"
    font-style="italic"
    font-stretch="normal"
    units-per-em="1000"
    panose-1="2 11 0 4 2 2 2 2 2 4"
    ascent="803"
    descent="-197"
    x-height="525"
    cap-height="715"
    bbox="-95 -270 1327 1076"
    underline-thickness="50"
    underline-position="-50"
    slope="-10"
    unicode-range="U+000D-FB02"
  />
<missing-glyph horiz-adv-x="644" 
d="M50 240v49l309 309q14 -8 26 -23zM50 142v49l347 347v-15q0 -20 -13.5 -37.5t-41.5 -39.5t-37 -31q-23 -23 -36 -54zM104 0h-49l261 261h49l-93 -93h-23v-23zM321 168l273 273v-49l-224 -224h-49zM50 338v49l148 148l39 -2q0 29 20 52t55 23h8zM398 0h-49l33 33h2v2
l210 210v-49zM384 133l210 210v-49l-210 -210v49zM50 44v49l206 206v-38h11zM50 583l196 196h49l-44 -44q-54 -14 -93 -53.5t-54 -93.5l-54 -54v49zM537 482l57 57v-49l-216 -216v7q0 12 2.5 21t11 18.5t12.5 13.5t21 16t23 16q1 1 10 7.5t14 10.5t14.5 12.5t15.5 16.5
t13.5 18.5t13 23.5t8.5 27zM50 681l98 98h49l-147 -147v49zM496 0h-49l147 147v-49zM459 698l81 81h49l-104 -104q-25 22 -26 23zM50 436v49l56 56l46 -3zM506 647l88 88v-49l-70 -70q-6 13 -18 31zM202 0h-49l96 96v-49zM395 732l47 47h49l-62 -62q-15 8 -34 15zM536 579
l58 58v-49l-52 -52q0 13 -6 43zM307 742l37 37h49l-38 -38q-18 2 -28 2q-2 0 -6.5 -0.5t-6.5 -0.5h-7zM300 0h-49l33 33h49zM594 49v-49h-49zM50 779h49l-49 -49v49z" />
    <glyph glyph-name="fi" unicode="fi" horiz-adv-x="440" 
d="M302 715l-5 -31q-14 2 -25 2q-38 0 -56.5 -22.5t-27.5 -71.5l-12 -67h93l-5 -30h-93l-88 -495h-36l88 495h-69l5 30h69l11 63q12 64 41 96.5t84 32.5q12 0 26 -2zM357 525h36l-93 -525h-36zM407 604h-36l20 111h36z" />
    <glyph glyph-name="fl" unicode="fl" horiz-adv-x="444" 
d="M302 715l-5 -31q-14 2 -25 2q-38 0 -56.5 -22.5t-27.5 -71.5l-12 -67h93l-5 -30h-93l-88 -495h-36l88 495h-69l5 30h69l11 63q12 64 41 96.5t84 32.5q12 0 26 -2zM390 715h36l-127 -715h-36z" />
    <glyph glyph-name=".notdef" horiz-adv-x="644" 
d="M50 240v49l309 309q14 -8 26 -23zM50 142v49l347 347v-15q0 -20 -13.5 -37.5t-41.5 -39.5t-37 -31q-23 -23 -36 -54zM104 0h-49l261 261h49l-93 -93h-23v-23zM321 168l273 273v-49l-224 -224h-49zM50 338v49l148 148l39 -2q0 29 20 52t55 23h8zM398 0h-49l33 33h2v2
l210 210v-49zM384 133l210 210v-49l-210 -210v49zM50 44v49l206 206v-38h11zM50 583l196 196h49l-44 -44q-54 -14 -93 -53.5t-54 -93.5l-54 -54v49zM537 482l57 57v-49l-216 -216v7q0 12 2.5 21t11 18.5t12.5 13.5t21 16t23 16q1 1 10 7.5t14 10.5t14.5 12.5t15.5 16.5
t13.5 18.5t13 23.5t8.5 27zM50 681l98 98h49l-147 -147v49zM496 0h-49l147 147v-49zM459 698l81 81h49l-104 -104q-25 22 -26 23zM50 436v49l56 56l46 -3zM506 647l88 88v-49l-70 -70q-6 13 -18 31zM202 0h-49l96 96v-49zM395 732l47 47h49l-62 -62q-15 8 -34 15zM536 579
l58 58v-49l-52 -52q0 13 -6 43zM307 742l37 37h49l-38 -38q-18 2 -28 2q-2 0 -6.5 -0.5t-6.5 -0.5h-7zM300 0h-49l33 33h49zM594 49v-49h-49zM50 779h49l-49 -49v49z" />
    <glyph glyph-name=".null" horiz-adv-x="0" 
 />
    <glyph glyph-name="nonmarkingreturn" horiz-adv-x="333" 
 />
    <glyph glyph-name="NULL" horiz-adv-x="0" 
 />
    <glyph glyph-name="NULL" horiz-adv-x="0" 
 />
    <glyph glyph-name="CR" unicode="&#xd;" horiz-adv-x="0" 
 />
    <glyph glyph-name="space" unicode=" " horiz-adv-x="280" 
 />
    <glyph glyph-name="exclam" unicode="!" horiz-adv-x="243" 
d="M112 186h-24q43 280 76 461l12 68h36l-12 -68q-11 -61 -88 -461zM49 0l20 111h36l-20 -111h-36z" />
    <glyph glyph-name="quotedbl" unicode="&#x22;" horiz-adv-x="313" 
d="M134 451h-26q1 4 40 264h40q-47 -229 -54 -264zM252 451h-26q1 4 40 264h40q-47 -229 -54 -264z" />
    <glyph glyph-name="numbersign" unicode="#" 
d="M282 0l75 243h-203l-75 -243h-27l75 243h-111l8 25h111l62 200h-113l8 25h113l69 222h27l-69 -222h203l69 222h27l-69 -222h104l-8 -25h-104l-62 -200h106l-8 -25h-106l-75 -243h-27zM224 468l-62 -200h203l62 200h-203z" />
    <glyph glyph-name="dollar" unicode="$" 
d="M12 206h38q2 -89 62 -135.5t150 -46.5q93 0 149 39.5t56 120.5q0 30 -12.5 55t-37.5 44.5t-49.5 32.5t-60.5 28l-40 18q-90 38 -132 78.5t-42 108.5q0 78 56.5 125.5t160.5 47.5h8l19 106h36l-20 -108q92 -10 143.5 -60t51.5 -133h-36q-4 84 -61 124t-143 40
q-80 0 -129 -33t-49 -102q0 -54 36 -91t113 -71l48 -21q87 -38 132 -78.5t45 -105.5q0 -92 -63.5 -144t-178.5 -52h-13l-20 -110h-36l20 113q-89 10 -144 63t-57 147z" />
    <glyph glyph-name="percent" unicode="%" horiz-adv-x="875" 
d="M231 0l402 715h27l-402 -715h-27zM218 355q54 0 90 38.5t48.5 86.5t12.5 101q0 56 -29 89t-84 33q-42 0 -73 -22t-47.5 -57.5t-24.5 -72.5t-8 -75q0 -55 29.5 -88t85.5 -33zM214 332q-66 0 -102.5 37.5t-36.5 105.5q0 42 9 82.5t28.5 80t57.5 63.5t88 24
q66 0 102.5 -37.5t36.5 -105.5q0 -42 -9 -82.5t-28.5 -80t-57.5 -63.5t-88 -24zM638 6q54 0 90 38.5t48.5 86.5t12.5 101q0 56 -29 89t-84 33q-42 0 -73 -22t-47.5 -57.5t-24.5 -72.5t-8 -75q0 -55 29.5 -88t85.5 -33zM634 -17q-66 0 -102.5 37.5t-36.5 105.5q0 42 9 82.5
t28.5 80t57.5 63.5t88 24q66 0 102.5 -37.5t36.5 -105.5q0 -42 -9 -82.5t-28.5 -80t-57.5 -63.5t-88 -24z" />
    <glyph glyph-name="ampersand" unicode="&#x26;" horiz-adv-x="652" 
d="M601 375l33 -3q-65 -135 -147 -232q46 -65 89 -120l-26 -20l-87 112q-118 -125 -251 -125q-82 0 -127.5 44t-45.5 117q0 45 17 82.5t51.5 67.5t69.5 51.5t87 47.5q-69 93 -69 173q0 67 45 110t119 43q68 0 108.5 -33.5t40.5 -92.5q0 -39 -15.5 -71t-47.5 -57.5
t-60.5 -42.5t-73.5 -39q25 -41 157 -226q66 81 133 214zM296 410q19 7 51 25q128 64 128 159q0 46 -32 73.5t-84 27.5q-56 0 -93.5 -32.5t-37.5 -88.5q0 -70 68 -164zM444 135q-32 47 -93.5 134.5t-72.5 102.5q-41 -19 -71.5 -37t-63.5 -44.5t-50.5 -61.5t-17.5 -75
q0 -64 40.5 -100.5t104.5 -36.5q113 0 224 118z" />
    <glyph glyph-name="quotesingle" unicode="'" horiz-adv-x="195" 
d="M134 451h-26q1 4 40 264h40q-47 -229 -54 -264z" />
    <glyph glyph-name="parenleft" unicode="(" horiz-adv-x="275" 
d="M39 198q0 159 75 306.5t207 249.5l-6 -39q-114 -104 -178 -236.5t-64 -279.5q0 -190 96 -316l-7 -36q-55 55 -89 150.5t-34 200.5z" />
    <glyph glyph-name="parenright" unicode=")" horiz-adv-x="275" 
d="M234 405q0 -162 -74.5 -308.5t-207.5 -249.5l6 39q113 101 177.5 235t64.5 281q0 190 -96 316l7 36q55 -55 89 -149.5t34 -199.5z" />
    <glyph glyph-name="asterisk" unicode="*" horiz-adv-x="454" 
d="M315 710l-30 -145l148 23l5 -35l-148 -18l69 -132l-33 -15l-62 135l-104 -106l-25 26l109 100l-132 67l17 32l129 -73l23 147z" />
    <glyph glyph-name="plus" unicode="+" 
d="M62 305v32h205v213h32v-213h205v-32h-205v-212h-32v212h-205z" />
    <glyph glyph-name="comma" unicode="," horiz-adv-x="223" 
d="M111 111l-119 -232h-33l112 232h40z" />
    <glyph glyph-name="hyphen" unicode="-" horiz-adv-x="421" 
d="M69 278l5 32h272l-5 -32h-272z" />
    <glyph glyph-name="period" unicode="." horiz-adv-x="185" 
d="M22 0l19 111h36l-19 -111h-36z" />
    <glyph glyph-name="slash" unicode="/" horiz-adv-x="356" 
d="M-28 -105l375 820h36l-375 -820h-36z" />
    <glyph glyph-name="zero" unicode="0" 
d="M235 17q81 0 135 49q68 62 105 191t37 254q0 88 -42 137.5t-127 49.5q-80 0 -138 -51q-65 -60 -101 -195.5t-36 -251.5q0 -86 40.5 -134.5t126.5 -48.5zM532 357q-62 -371 -298 -371q-198 0 -200 210q0 81 14 157q13 79 33 140.5t54 117.5t87.5 87t124.5 31
q199 0 199 -217q0 -79 -14 -155z" />
    <glyph glyph-name="one" unicode="1" 
d="M264 0l100 565h-193l5 26h46q92 0 127.5 23t53.5 97l1 4h23l-127 -715h-36z" />
    <glyph glyph-name="two" unicode="2" 
d="M458 0h-461l5 28q128 92 255 193q11 8 40 31t43 34t40 34t40 39t33 40.5t28.5 46t16.5 48t7 54.5q0 74 -46.5 112t-126.5 38q-87 0 -137 -50.5t-63 -136.5h-34q13 98 74 158t164 60q93 0 149 -46t56 -131q0 -36 -8 -69t-28.5 -64.5t-38 -55t-54.5 -56t-59 -50.5t-69 -55
q-114 -90 -233 -170h413z" />
    <glyph glyph-name="three" unicode="3" 
d="M26 196h34q2 -89 51.5 -134.5t138.5 -45.5q90 0 145 53t55 145q0 72 -54.5 115.5t-134.5 43.5h-18l5 27q62 0 111.5 14.5t85.5 54.5t36 102q0 57 -40.5 92t-113.5 35q-144 0 -182 -149h-34q13 79 70 129.5t149 50.5q86 0 136 -42.5t50 -109.5q0 -77 -45.5 -126.5
t-127.5 -63.5v-2q65 -15 105 -59.5t40 -111.5q0 -102 -66.5 -165t-173.5 -63q-106 0 -163 53t-59 157z" />
    <glyph glyph-name="four" unicode="4" 
d="M519 213l-6 -32h-116l-32 -181h-35l32 181h-360l5 28l299 336q123 135 153 170h33l-89 -502h116zM449 662h-2q-36 -47 -200 -229l-60 -65q-8 -8 -85 -96l-52 -59h318l28 157q40 239 53 292z" />
    <glyph glyph-name="five" unicode="5" 
d="M78 341l106 374h352l-6 -34h-324l-91 -316q22 36 68.5 60t109.5 24q87 0 144.5 -55t57.5 -151q0 -111 -66.5 -184t-179.5 -73q-98 0 -158 54t-64 145h33q2 -71 54 -120t137 -49q92 0 151 60t59 162q0 83 -48 132.5t-128 49.5q-101 0 -169 -85z" />
    <glyph glyph-name="six" unicode="6" 
d="M548 531h-31q-11 169 -168 169q-209 0 -266 -370l-2 -14h3q21 57 77.5 95.5t130.5 38.5q95 0 154.5 -52.5t59.5 -153.5q0 -107 -67 -182.5t-180 -75.5q-101 0 -159.5 57t-58.5 173q0 54 14 140q35 199 109.5 286t190.5 87q98 0 145.5 -57t47.5 -141zM286 421
q-90 0 -150 -64t-60 -158q0 -88 51.5 -136t134.5 -48q96 0 153 66t57 165q0 83 -49.5 129t-136.5 46z" />
    <glyph glyph-name="seven" unicode="7" 
d="M139 0h-41q76 128 221 351q154 234 221 330v1q-19 -1 -55 -1h-359l6 34h448l-6 -32l-33 -52q-44 -69 -134 -206t-152.5 -235.5t-115.5 -189.5z" />
    <glyph glyph-name="eight" unicode="8" 
d="M220 391q-110 42 -110 155q0 75 58 129t161 54q90 0 144 -46t54 -119q0 -71 -47 -121t-111 -60q135 -46 135 -172q0 -102 -71.5 -163.5t-187.5 -61.5q-101 0 -165 50t-64 139q0 84 53.5 140.5t150.5 75.5zM327 698q-80 0 -130.5 -39.5t-50.5 -109.5q0 -69 41.5 -110.5
t116.5 -41.5q80 0 133 45.5t53 119.5q0 62 -45.5 99t-117.5 37zM275 372q-94 0 -158 -52.5t-64 -140.5q0 -78 54.5 -120.5t141.5 -42.5q101 0 159 52.5t58 146.5q0 73 -52.5 115t-138.5 42z" />
    <glyph glyph-name="nine" unicode="9" 
d="M29 184h31q11 -169 168 -169q209 0 266 370l2 14h-3q-21 -57 -77.5 -95.5t-130.5 -38.5q-95 0 -154.5 52.5t-59.5 153.5q0 107 67 182.5t180 75.5q101 0 159.5 -57t58.5 -173q0 -54 -14 -140q-35 -199 -109 -286t-191 -87q-98 0 -145.5 57t-47.5 141zM291 294
q90 0 150 64t60 158q0 88 -51.5 136t-134.5 48q-96 0 -153 -66t-57 -165q0 -83 49.5 -129t136.5 -46z" />
    <glyph glyph-name="colon" unicode=":" horiz-adv-x="183" 
d="M19 0l20 111h36l-20 -111h-36zM86 379l20 111h36l-20 -111h-36z" />
    <glyph glyph-name="semicolon" unicode=";" horiz-adv-x="243" 
d="M119 379l20 111h36l-20 -111h-36zM124 111l-119 -232h-33l112 232h40z" />
    <glyph glyph-name="less" unicode="&#x3c;" 
d="M61 299v49q78 41 224.5 119.5t171.5 92.5v-38q-54 -28 -209 -110t-163 -86v-3q8 -4 162.5 -87.5t209.5 -110.5v-38q-25 14 -171.5 92.5t-224.5 119.5z" />
    <glyph glyph-name="equal" unicode="=" 
d="M58 215v32h442v-32h-442zM58 399v32h442v-32h-442z" />
    <glyph glyph-name="greater" unicode="&#x3e;" 
d="M498 348v-49q-78 -41 -224.5 -119.5t-171.5 -92.5v38q52 27 206.5 109.5t165.5 88.5v3q-8 4 -163 86t-209 110v38q25 -14 171.5 -92.5t224.5 -119.5z" />
    <glyph glyph-name="question" unicode="?" horiz-adv-x="483" 
d="M235 201h-34q10 56 32.5 92.5t75.5 79.5l29 24q41 33 59.5 50t39 52.5t20.5 74.5q0 59 -42 91.5t-115 32.5q-84 0 -133.5 -52.5t-55.5 -134.5h-33q2 90 63.5 154t161.5 64q90 0 139.5 -40t49.5 -110q0 -62 -31 -104.5t-94 -93.5l-17 -13q-63 -51 -83.5 -79.5t-31.5 -87.5
zM162 0l20 111h36l-20 -111h-36z" />
    <glyph glyph-name="at" unicode="@" horiz-adv-x="840" 
d="M599 527h28q-5 -28 -21 -118.5t-25 -136.5q-6 -34 -6 -45q0 -43 58 -43q54 0 98.5 61.5t44.5 171.5q0 134 -84.5 211t-231.5 77q-161 0 -260.5 -101t-99.5 -252q0 -158 97.5 -254.5t265.5 -96.5q85 0 143 24t111 68l17 -16q-112 -102 -276 -102q-178 0 -284 103t-106 274
q0 161 110 270t283 109q156 0 249.5 -84t93.5 -223q0 -117 -53 -191t-131 -74q-39 0 -58 17.5t-17 48.5q-18 -26 -53.5 -47t-84.5 -21q-70 0 -108.5 42t-38.5 119q0 88 49.5 153.5t137.5 65.5q54 0 88.5 -26.5t46.5 -69.5h2q2 28 15 86zM447 510q-73 0 -113.5 -56.5
t-40.5 -130.5q0 -139 123 -139q80 0 116.5 57.5t36.5 137.5q0 60 -29.5 95.5t-92.5 35.5z" />
    <glyph glyph-name="A" unicode="A" horiz-adv-x="659" 
d="M-25 0l412 715h36l160 -715h-36l-59 264h-324l-152 -264h-37zM399 673h-2q-29 -54 -94 -166.5t-83 -144.5l-40 -68h301l-16 77q-6 28 -31.5 137.5t-34.5 164.5z" />
    <glyph glyph-name="B" unicode="B" horiz-adv-x="638" 
d="M51 0l127 715h176q75 0 120 -10q120 -28 120 -143q0 -77 -50 -130t-121 -62q143 -25 143 -151q0 -142 -123 -194q-61 -25 -182 -25h-210zM150 354l-58 -324h204q97 0 150 30q84 47 84 161q0 70 -51 101.5t-151 31.5h-178zM208 685l-53 -302h177q108 0 166.5 47t58.5 132
q0 69 -50.5 96t-155.5 27h-143z" />
    <glyph glyph-name="C" unicode="C" horiz-adv-x="770" 
d="M683 207h35q-43 -103 -129 -162t-207 -59q-141 0 -231 86.5t-90 239.5q0 111 43 205t130 153t201 59q124 0 204.5 -60.5t107.5 -167.5h-34q-24 93 -96.5 145t-183.5 52q-82 0 -147.5 -32.5t-106 -86.5t-62 -121t-21.5 -141q0 -140 77 -220t209 -80q109 0 185 51t116 139z
" />
    <glyph glyph-name="D" unicode="D" horiz-adv-x="717" 
d="M51 0l127 715h101q96 0 145 -8q250 -41 250 -288q0 -170 -88 -280q-68 -85 -162.5 -112t-242.5 -27h-130zM208 685l-116 -655h140q86 0 145 14.5t110 47.5q151 100 151 328q0 265 -309 265h-121z" />
    <glyph glyph-name="E" unicode="E" horiz-adv-x="598" 
d="M51 0l127 715h431l-6 -30h-395l-53 -302h371l-5 -30h-371l-57 -323h402l-6 -30h-438z" />
    <glyph glyph-name="F" unicode="F" horiz-adv-x="585" 
d="M87 0h-36l127 715h420l-6 -30h-384l-53 -302h360l-5 -30h-360z" />
    <glyph glyph-name="G" unicode="G" horiz-adv-x="792" 
d="M668 142l6 31q-41 -81 -120 -134t-182 -53q-135 0 -223 84.5t-88 240.5q0 173 102.5 295.5t272.5 122.5q124 0 204 -60.5t107 -167.5h-34q-24 93 -96 145t-183 52q-82 0 -148 -32.5t-106.5 -86.5t-62 -120.5t-21.5 -138.5q0 -141 74.5 -221.5t202.5 -80.5
q131 0 216.5 83.5t105.5 193.5l4 19h-309l5 30h342l-61 -344h-35l17 91z" />
    <glyph glyph-name="H" unicode="H" horiz-adv-x="704" 
d="M635 715h36l-127 -715h-36l63 353h-421l-63 -353h-36l127 715h36l-59 -332h421z" />
    <glyph glyph-name="I" unicode="I" horiz-adv-x="247" 
d="M178 715h36l-127 -715h-36z" />
    <glyph glyph-name="J" unicode="J" horiz-adv-x="445" 
d="M383 715h36l-91 -512q-10 -56 -21 -90.5t-31 -66t-52 -46t-79 -14.5q-144 0 -144 152q0 13 2 35h33q-2 -22 -2 -31q0 -58 27 -92.5t86 -34.5q66 0 96 43t49 146z" />
    <glyph glyph-name="K" unicode="K" horiz-adv-x="573" 
d="M51 0l127 715h37l-59 -334q310 242 423 334h53l-434 -340q44 -55 156.5 -189.5t153.5 -185.5h-48q-208 245 -305 375l-67 -375h-37z" />
    <glyph glyph-name="L" unicode="L" horiz-adv-x="531" 
d="M178 715h36l-121 -685h374l-6 -30h-410z" />
    <glyph glyph-name="M" unicode="M" horiz-adv-x="797" 
d="M51 0l127 715h54l74 -425q19 -103 38 -252h1q18 37 70 133.5t68 125.5l225 418h56l-127 -715h-34l64 362q4 24 17.5 100.5t25 139.5t17.5 89h-1q-30 -70 -168 -321l-203 -370h-37l-78 470q-28 159 -34 216h-1q-16 -117 -49 -285l-71 -401h-34z" />
    <glyph glyph-name="N" unicode="N" horiz-adv-x="707" 
d="M178 715h44l194 -439q95 -218 102 -239h2q4 20 20 118t23 134l76 426h35l-127 -715h-47l-190 429q-86 194 -104 248h-2q-8 -79 -53 -316l-64 -361h-36z" />
    <glyph glyph-name="O" unicode="O" horiz-adv-x="810" 
d="M439 729q151 0 239.5 -86t88.5 -233q0 -183 -103.5 -303.5t-279.5 -120.5q-142 0 -232 86.5t-90 239.5q0 114 43 207.5t130 151.5t204 58zM437 698q-82 0 -148 -32t-107 -85.5t-63 -121t-22 -140.5q0 -140 77 -221t210 -81q114 0 194.5 57t117 144t36.5 193
q0 132 -79.5 209.5t-215.5 77.5z" />
    <glyph glyph-name="P" unicode="P" horiz-adv-x="578" 
d="M51 0l127 715h134q121 0 180 -31q83 -44 83 -141q0 -161 -143 -215q-59 -22 -146 -22h-144l-55 -306h-36zM208 685l-61 -349h134q88 0 135 18q123 44 123 187q0 80 -55.5 112t-157.5 32h-118z" />
    <glyph glyph-name="Q" unicode="Q" horiz-adv-x="809" 
d="M440 729q150 0 238.5 -86t88.5 -233q0 -117 -46.5 -214t-129.5 -151l80 -95h-42l-66 78q-79 -42 -178 -42q-143 0 -233 85t-90 238q0 177 101.5 298.5t276.5 121.5zM403 220h42l126 -152q79 50 120 142t41 201q0 132 -79.5 209.5t-215.5 77.5q-108 0 -187.5 -56.5
t-116 -141.5t-36.5 -184q0 -140 76.5 -219.5t210.5 -79.5q91 0 159 35z" />
    <glyph glyph-name="R" unicode="R" horiz-adv-x="592" 
d="M51 0l127 715h175q99 0 157 -34q71 -44 71 -135q0 -96 -60 -156.5t-163 -72.5l130 -317h-39l-127 314h-179l-56 -314h-36zM208 685l-60 -341h143q125 0 188 50q31 23 49 64t18 86q0 77 -53 109t-156 32h-129z" />
    <glyph glyph-name="S" unicode="S" horiz-adv-x="601" 
d="M27 203h38q2 -91 63 -138.5t154 -47.5q94 0 151.5 40t57.5 123q0 59 -43 95t-120 69l-41 18q-93 40 -135.5 81.5t-42.5 111.5q0 80 58 127t164 47q112 0 177 -52t65 -147h-36q-4 86 -62 127t-146 41q-82 0 -132 -33.5t-50 -104.5q0 -56 36.5 -93.5t115.5 -71.5l49 -22
q90 -40 135.5 -80.5t45.5 -106.5q0 -94 -65 -147t-182 -53q-112 0 -181.5 54t-73.5 163z" />
    <glyph glyph-name="T" unicode="T" horiz-adv-x="522" 
d="M187 0l121 685h-225l6 30h485l-6 -30h-224l-121 -685h-36z" />
    <glyph glyph-name="U" unicode="U" horiz-adv-x="687" 
d="M297 -14q-109 0 -162.5 53t-53.5 143q0 39 8 84l80 449h36l-77 -430q-11 -50 -11 -95q0 -173 186 -173q63 0 107 17t71 54t42.5 82.5t27.5 113.5l76 431h36l-81 -455q-23 -138 -87 -206t-198 -68z" />
    <glyph glyph-name="V" unicode="V" horiz-adv-x="638" 
d="M265 32h2q19 37 68 126t64 116l239 441h39l-393 -715h-48q-19 99 -72 379t-64 336h37l82 -447q4 -24 22 -108.5t24 -127.5z" />
    <glyph glyph-name="W" unicode="W" horiz-adv-x="808" 
d="M834 715l-286 -715h-51l-18 397q-3 64 -6 167t-4 119h-2q-84 -218 -124 -315l-150 -368h-52l-28 715h37l16 -447q8 -224 8 -238h2q50 134 90 236l182 449h52l20 -441q8 -168 8 -238h2q14 39 46 119t47 120l173 440h38z" />
    <glyph glyph-name="X" unicode="X" horiz-adv-x="593" 
d="M482 0l-181 336q-62 -71 -159 -181t-136 -155h-44q48 54 157.5 177t165.5 186q-111 203 -184 352h40q48 -98 169 -327q11 13 126.5 143.5t159.5 183.5h44q-20 -22 -136 -153t-178 -199l197 -363h-41z" />
    <glyph glyph-name="Y" unicode="Y" horiz-adv-x="599" 
d="M221 0l48 272l-174 443h39q52 -146 159 -408q49 65 158.5 208t151.5 200h41l-339 -443l-48 -272h-36z" />
    <glyph glyph-name="Z" unicode="Z" horiz-adv-x="569" 
d="M-23 0l6 29q12 12 128 145l339 385q20 22 59.5 66.5t52.5 59.5h-461l6 30h503l-6 -29q-8 -10 -26.5 -31t-48 -54t-51.5 -58l-322 -366q-123 -134 -134 -147h464l-6 -30h-503z" />
    <glyph glyph-name="bracketleft" unicode="[" horiz-adv-x="278" 
d="M173 -83l-5 -30h-139l145 828h139l-5 -30h-103l-135 -768h103z" />
    <glyph glyph-name="backslash" unicode="\" horiz-adv-x="444" 
d="M137 715l202 -820h-34l-202 820h34z" />
    <glyph glyph-name="bracketright" unicode="]" horiz-adv-x="277" 
d="M-37 -113l5 30h102l135 768h-103l5 30h139l-145 -828h-138z" />
    <glyph glyph-name="asciicircum" unicode="^" 
d="M264 683h37q10 -18 211 -395h-40q-27 54 -104.5 202t-83.5 160h-3q-51 -102 -188 -362h-39q17 31 92 174t118 221z" />
    <glyph glyph-name="underscore" unicode="_" horiz-adv-x="624" 
d="M-3 -130l5 32h476l-5 -32h-476z" />
    <glyph glyph-name="grave" unicode="`" horiz-adv-x="429" 
d="M251 596l-130 119h56l114 -119h-40z" />
    <glyph glyph-name="a" unicode="a" horiz-adv-x="542" 
d="M113 368h-35q13 74 68.5 122.5t145.5 48.5q80 0 129.5 -39.5t49.5 -119.5q0 -32 -6 -66q-4 -26 -14.5 -80t-22.5 -125t-10 -109h-35q0 38 16 120h-1q-29 -58 -90.5 -94.5t-138.5 -36.5q-72 0 -111.5 34t-39.5 94q0 37 16.5 65.5t40 45.5t61.5 30t68 19t72 12q19 3 78 8.5
t76 7.5q8 40 8 72q0 69 -43 100t-109 31q-142 0 -173 -140zM417 234q5 29 9 42q-159 -18 -169 -20q-30 -5 -43.5 -7.5t-43.5 -10t-45.5 -16.5t-35 -23t-28 -34.5t-8.5 -45.5q0 -46 32.5 -72.5t92.5 -26.5q87 0 154.5 56t84.5 158z" />
    <glyph glyph-name="b" unicode="b" horiz-adv-x="600" 
d="M286 17q99 0 159.5 82t60.5 202q0 94 -46.5 150t-136.5 56q-72 0 -122.5 -44t-72 -108t-21.5 -139q0 -90 45.5 -144.5t133.5 -54.5zM194 715l-33 -184q-2 -13 -7.5 -37t-6.5 -30q-3 -12 -7 -34q68 108 193 108q93 0 151.5 -62.5t58.5 -175.5q0 -135 -75 -224.5
t-186 -89.5q-86 0 -133.5 47.5t-57.5 109.5q-6 -49 -24 -143h-35l126 715h36z" />
    <glyph glyph-name="c" unicode="c" horiz-adv-x="588" 
d="M492 167h34q-32 -82 -95.5 -131t-155.5 -49q-110 0 -172 63.5t-62 176.5q0 131 76 221.5t202 90.5q96 0 153 -50.5t72 -135.5h-33q-33 155 -193 155q-114 0 -177.5 -81.5t-63.5 -200.5q0 -100 53 -154t152 -54q147 0 210 149z" />
    <glyph glyph-name="d" unicode="d" horiz-adv-x="599" 
d="M459 0h-33l21 98q-70 -111 -196 -111q-93 0 -151.5 62.5t-58.5 175.5q0 134 75 224t186 90q86 0 133.5 -47.5t57.5 -109.5q7 47 28 171l29 162h36zM298 508q-100 0 -160 -82t-60 -202q0 -94 46.5 -150t136.5 -56q72 0 122.5 44t72 108t21.5 139q0 90 -45.5 144.5
t-133.5 54.5z" />
    <glyph glyph-name="e" unicode="e" horiz-adv-x="596" 
d="M546 265h-468q-2 -24 -2 -38q0 -99 54.5 -154t151.5 -55q143 0 207 132h36q-34 -76 -97 -119.5t-152 -43.5q-108 0 -171.5 64t-63.5 176q0 131 76 221.5t201 90.5q109 0 169 -67t60 -178q0 -18 -1 -29zM314 508q-95 0 -154.5 -59t-77.5 -153h430v2q0 96 -51 153t-147 57z
" />
    <glyph glyph-name="f" unicode="f" horiz-adv-x="249" 
d="M302 715l-5 -31q-14 2 -25 2q-38 0 -56.5 -22.5t-27.5 -71.5l-12 -67h93l-5 -30h-93l-88 -495h-36l88 495h-69l5 30h69l11 63q12 64 41 96.5t84 32.5q12 0 26 -2z" />
    <glyph glyph-name="g" unicode="g" horiz-adv-x="607" 
d="M231 -158q97 0 145.5 59.5t69.5 172.5l15 73h-2q-26 -54 -77.5 -87t-120.5 -33q-101 0 -157.5 62t-56.5 171q0 113 70 195.5t184 82.5q47 0 84.5 -14.5t60.5 -38t36.5 -48.5t18.5 -51l24 139h35l-77 -434q-12 -66 -29 -113.5t-46 -87t-74 -59.5t-106 -20q-96 0 -152.5 49
t-58.5 123h35q4 -57 49.5 -99t129.5 -42zM266 58q98 0 159 74.5t61 185.5q0 87 -49 138t-135 51q-101 0 -159.5 -71.5t-58.5 -175.5q0 -97 49 -149.5t133 -52.5z" />
    <glyph glyph-name="h" unicode="h" horiz-adv-x="568" 
d="M195 715l-52 -289q26 45 74 79t118 34q74 0 118 -39t44 -112q0 -25 -7 -69l-56 -319h-36l55 311q7 42 7 72q0 63 -37.5 94t-97.5 31q-74 0 -130.5 -54.5t-68.5 -128.5l-58 -325h-36l127 715h36z" />
    <glyph glyph-name="i" unicode="i" horiz-adv-x="208" 
d="M125 525h36l-93 -525h-36zM175 604h-36l20 111h36z" />
    <glyph glyph-name="j" unicode="j" horiz-adv-x="208" 
d="M124 525h36l-105 -601q-12 -63 -40.5 -92t-86.5 -29q-9 0 -23 2l6 31q14 -2 23 -2q38 0 57.5 22.5t27.5 71.5zM174 604h-36l20 111h36z" />
    <glyph glyph-name="k" unicode="k" horiz-adv-x="455" 
d="M388 0h-46q-34 40 -136 170l-88 113l-50 -283h-36l127 715h36l-76 -426q52 40 117 92l181 144h51q-47 -37 -120.5 -94.5t-119.5 -93.5t-67 -54q79 -104 227 -283z" />
    <glyph glyph-name="l" unicode="l" horiz-adv-x="218" 
d="M164 715h36l-127 -715h-36z" />
    <glyph glyph-name="m" unicode="m" horiz-adv-x="926" 
d="M32 0l78 445q11 58 14 80h37l-18 -99q66 113 190 113q66 0 108 -31.5t50 -91.5h1q28 47 79.5 85t125.5 38q72 0 115 -39t43 -112q0 -25 -7 -69l-56 -319h-36l55 311q7 42 7 72q0 63 -36.5 94t-96.5 31q-74 0 -130 -54t-68 -129l-57 -325h-36l55 311q7 42 7 72
q0 63 -36.5 94t-96.5 31q-74 0 -130 -54t-68 -129l-57 -325h-36z" />
    <glyph glyph-name="n" unicode="n" horiz-adv-x="568" 
d="M32 0l78 445q11 58 14 80h37l-18 -99q26 45 74 79t118 34q74 0 118 -39t44 -112q0 -25 -7 -69l-56 -319h-36l55 311q7 42 7 72q0 63 -37.5 94t-97.5 31q-74 0 -131 -54t-69 -129l-57 -325h-36z" />
    <glyph glyph-name="o" unicode="o" horiz-adv-x="620" 
d="M284 18q111 0 177.5 79.5t66.5 199.5q0 95 -55.5 153t-152.5 58q-114 0 -178.5 -82t-64.5 -200q0 -99 54 -153.5t153 -54.5zM279 -13q-111 0 -174.5 63.5t-63.5 173.5q0 134 76 224.5t207 90.5q111 0 175.5 -65t64.5 -174q0 -134 -78 -223.5t-207 -89.5z" />
    <glyph glyph-name="p" unicode="p" horiz-adv-x="600" 
d="M36 -180h-36l125 705h33l-21 -98q70 111 196 111q93 0 151.5 -62.5t58.5 -175.5q0 -135 -75 -224.5t-186 -89.5q-86 0 -133.5 47.5t-57.5 109.5q-7 -47 -28 -171zM286 17q99 0 159.5 82t60.5 202q0 94 -46.5 150t-136.5 56q-72 0 -122.5 -44t-72 -108t-21.5 -139
q0 -90 45.5 -144.5t133.5 -54.5z" />
    <glyph glyph-name="q" unicode="q" horiz-adv-x="599" 
d="M298 508q-100 0 -160 -82t-60 -202q0 -94 46.5 -150t136.5 -56q72 0 122.5 44t72 108t21.5 139q0 90 -45.5 144.5t-133.5 54.5zM391 -180l25 139q3 16 27 137q-61 -109 -192 -109q-93 0 -151.5 62.5t-58.5 175.5q0 134 75 224t186 90q86 0 133.5 -47.5t57.5 -109.5
q7 61 23 143h36l-125 -705h-36z" />
    <glyph glyph-name="r" unicode="r" horiz-adv-x="282" 
d="M157 525l-18 -99q17 50 59.5 80.5t91.5 30.5q10 0 17 -1l-7 -35q-7 1 -18 1q-62 0 -102 -47.5t-55 -129.5l-57 -325h-36l79 446q12 74 13 79h33z" />
    <glyph glyph-name="s" unicode="s" horiz-adv-x="494" 
d="M15 159h35q4 -69 47.5 -105t121.5 -36t119 30.5t41 87.5q0 19 -8.5 35.5t-17.5 26.5t-29 21t-29.5 14.5t-31.5 12.5l-43 16q-74 29 -108 57.5t-34 83.5q0 63 48.5 99.5t129.5 36.5q91 0 142.5 -40.5t51.5 -111.5h-35q-3 60 -45 90.5t-115 30.5q-66 0 -103.5 -25.5
t-37.5 -72.5q0 -43 27.5 -67.5t97.5 -49.5l39 -15q32 -12 50 -20.5t42 -25t35.5 -40t11.5 -53.5q0 -70 -53 -111t-148 -41q-93 0 -144.5 44t-56.5 128z" />
    <glyph glyph-name="t" unicode="t" horiz-adv-x="255" 
d="M180 26l-6 -31q-14 -2 -23 -2q-89 0 -89 79q0 14 5 46l67 377h-69l5 30h69l25 142h36l-25 -142h93l-5 -30h-93l-66 -369q-5 -32 -5 -44q0 -58 58 -58q9 0 23 2z" />
    <glyph glyph-name="u" unicode="u" horiz-adv-x="565" 
d="M517 525l-78 -445q-11 -58 -14 -80h-37l18 99q-66 -113 -190 -113q-74 0 -117.5 39t-43.5 112q0 25 7 69l56 319h36l-55 -311q-7 -42 -7 -71q0 -65 36.5 -95.5t97.5 -30.5q74 0 130 54t68 129l57 325h36z" />
    <glyph glyph-name="v" unicode="v" horiz-adv-x="501" 
d="M212 0h-39q-24 122 -107 525h40l56 -287q5 -24 17.5 -89t20.5 -106h2q20 39 60.5 113t52.5 95l152 274h41q-110 -189 -296 -525z" />
    <glyph glyph-name="w" unicode="w" horiz-adv-x="779" 
d="M193 0h-47q-5 39 -15 108t-13 91q-37 259 -46 326h38l36 -270q2 -14 13.5 -94t15.5 -125h2q15 32 31.5 67.5t39 85t40.5 88.5l116 248h48l22 -236q16 -163 24 -253h2l132 268l110 221h39q-108 -216 -164 -326l-101 -199h-49l-19 201q-26 241 -26 286h-3
q-51 -117 -132 -289z" />
    <glyph glyph-name="x" unicode="x" horiz-adv-x="483" 
d="M19 0h-48q138 150 240 267l-145 258h42q94 -171 130 -232q35 37 112.5 124.5t96.5 107.5h47q-34 -36 -119.5 -130.5t-118.5 -130.5q23 -39 77 -135.5t72 -128.5h-42q-3 5 -57.5 101.5t-75.5 137.5q-156 -173 -211 -239z" />
    <glyph glyph-name="y" unicode="y" horiz-adv-x="501" 
d="M107 -180h-37l105 181q-35 178 -109 524h38q12 -60 34 -168.5t38 -189.5t23 -126h1q19 40 69.5 130.5t113 200.5t85.5 153h40q-68 -124 -401 -705z" />
    <glyph glyph-name="z" unicode="z" horiz-adv-x="494" 
d="M-20 0l5 28l312 319q131 133 144 147q-18 0 -90 -0.5t-93 -0.5h-183l6 32h415l-5 -28l-304 -309l-157 -157q19 0 77 0.5t81 0.5h219l-6 -32h-421z" />
    <glyph glyph-name="braceleft" unicode="{" horiz-adv-x="262" 
d="M76 302l-1 -2q28 -9 39.5 -23.5t11.5 -45.5q0 -27 -9 -75l-31 -176q-3 -18 -3 -31q0 -23 13.5 -29.5t50.5 -6.5l-4 -26q-2 -1 -7 -1h-16q-39 0 -56.5 13t-17.5 47q0 15 4 35l35 197q5 33 5 48q0 28 -11 40.5t-38 21.5l5 28q38 11 55.5 31.5t26.5 76.5l36 202
q9 54 31.5 72t70.5 18q4 0 8.5 -0.5t6.5 -0.5h7l-4 -28q-46 0 -61.5 -11t-23.5 -54l-32 -181q-14 -76 -30.5 -101.5t-60.5 -37.5z" />
    <glyph glyph-name="bar" unicode="|" horiz-adv-x="243" 
d="M179 731h36l-141 -794h-36z" />
    <glyph glyph-name="braceright" unicode="}" horiz-adv-x="261" 
d="M183 300l1 2q-28 9 -39.5 23.5t-11.5 45.5q0 27 9 75l31 176q3 18 3 31q0 23 -13.5 29.5t-50.5 6.5l4 26h7q2 0 7 0.5t9 0.5q39 0 56.5 -13t17.5 -47q0 -15 -4 -35l-35 -197q-5 -33 -5 -48q0 -28 11 -40.5t38 -21.5l-5 -28q-38 -11 -55.5 -31.5t-26.5 -76.5l-36 -202
q-9 -54 -31.5 -72t-70.5 -18h-16q-5 0 -6 1l4 27q46 0 61.5 11t23.5 55l32 181q14 76 30.5 101.5t60.5 37.5z" />
    <glyph glyph-name="asciitilde" unicode="~" 
d="M296 270l-63 30q-52 24 -79 24q-53 0 -98 -74l-23 18q51 87 124 87q35 0 99 -30l68 -32q44 -23 75 -23q56 0 99 73l24 -15q-50 -88 -126 -88q-36 0 -100 30z" />
    <glyph glyph-name="uni00A0" unicode="&#xa0;" horiz-adv-x="280" 
 />
    <glyph glyph-name="exclamdown" unicode="&#xa1;" horiz-adv-x="224" 
d="M105 337h24q-45 -297 -76 -464l-12 -69h-36l12 69q24 129 88 464zM169 525l-20 -112h-37l20 112h37z" />
    <glyph glyph-name="cent" unicode="&#xa2;" 
d="M476 167h34q-32 -82 -95.5 -131t-155.5 -49q-13 0 -20 1l-12 -70h-31l13 73q-88 14 -136 75.5t-48 160.5q0 131 76 221.5t202 90.5h3l15 83h31l-15 -85q81 -9 129.5 -57.5t61.5 -126.5h-33q-31 137 -164 153l-86 -488h21q147 0 210 149zM61 226q0 -85 39 -137.5
t114 -66.5l86 486q-113 0 -176 -82t-63 -200z" />
    <glyph glyph-name="sterling" unicode="&#xa3;" 
d="M442 32l-6 -32h-423l5 28q167 37 167 208q0 53 -17 119h-105l5 29h93q-15 70 -15 125q0 90 56.5 155t161.5 65q88 0 137.5 -48.5t49.5 -139.5h-32q-6 84 -46 120.5t-115 36.5q-81 0 -129.5 -52t-48.5 -134q0 -65 16 -125h184l-5 -32h-171q15 -67 15 -116
q0 -151 -133 -208q17 1 108 1h248z" />
    <glyph glyph-name="currency" unicode="&#xa4;" 
d="M496 129l-46 46q-70 -60 -162 -60t-162 61l-47 -47l-23 23l48 48q-61 68 -60.5 160t60.5 160l-48 49l23 23l49 -48q68 60 160 60t161 -59l47 47l23 -23l-47 -47q62 -69 62 -162t-61 -162l46 -46zM135 206q64 -64 154 -63.5t153 63.5q64 63 63.5 153.5t-63.5 153.5
q-65 62 -153.5 62.5t-153.5 -62.5q-63 -63 -63 -153.5t63 -153.5z" />
    <glyph glyph-name="yen" unicode="&#xa5;" 
d="M14 246l5 29h233l-60 151h-146l5 29h130l-103 260h39q47 -132 159 -410q235 308 310 410h41l-200 -260h128l-5 -29h-145l-115 -151h233l-5 -29h-235l-43 -246h-36l43 246h-233z" />
    <glyph glyph-name="brokenbar" unicode="&#xa6;" horiz-adv-x="192" 
d="M100 428l53 303h35l-53 -303h-35zM14 -62l53 303h35l-53 -303h-35z" />
    <glyph glyph-name="section" unicode="&#xa7;" 
d="M315 474l43 -20q36 -17 55.5 -28t40.5 -28t30 -38t9 -49q0 -64 -44 -104t-106 -54q24 -15 38 -26.5t27 -35t13 -51.5q0 -73 -56.5 -113t-145.5 -40q-85 0 -140.5 42.5t-57.5 129.5h34q5 -69 47.5 -105t118.5 -36q81 0 121.5 32t40.5 83q0 42 -26 66t-87 54l-64 32
q-65 32 -95 62.5t-30 82.5q0 53 42 92t105 54q-42 22 -60 47t-18 67q0 62 50 98.5t129 36.5q88 0 140.5 -40t52.5 -112h-35q-2 57 -44.5 89t-114.5 32q-67 0 -104.5 -25.5t-37.5 -72.5q0 -23 6 -38.5t26 -30.5t37 -24t60 -29zM220 217l93 -48q57 12 99 44.5t42 86.5
q0 46 -27.5 72t-95.5 57l-65 30q-56 -4 -101.5 -38t-45.5 -86q0 -44 25.5 -69t75.5 -49z" />
    <glyph glyph-name="dieresis" unicode="&#xa8;" horiz-adv-x="491" 
d="M193 616l15 80h36l-15 -80h-36zM312 616l15 80h36l-15 -80h-36z" />
    <glyph glyph-name="copyright" unicode="&#xa9;" horiz-adv-x="871" 
d="M616 275h28q-25 -65 -75.5 -102t-123.5 -37q-92 0 -149.5 62t-57.5 160t59 160t151 62q158 0 193 -144h-28q-28 119 -165 119q-83 0 -132.5 -54.5t-49.5 -141.5q0 -88 49 -143t132 -55q119 0 169 114zM821 360q0 -158 -110 -267.5t-268 -109.5q-156 0 -265.5 110
t-109.5 267t109.5 266.5t267.5 109.5q156 0 266 -110t110 -266zM793 360q0 147 -102 249t-246 102q-147 0 -248 -101.5t-101 -249.5q0 -147 100.5 -249.5t247.5 -102.5q145 0 247 102t102 250z" />
    <glyph glyph-name="ordfeminine" unicode="&#xaa;" horiz-adv-x="450" 
d="M149 454h-28q9 55 51 92t109 37q61 0 98 -29.5t37 -89.5q0 -27 -4 -50l-7 -35l-21 -118q-9 -50 -7 -82h-29q0 38 11 84q-24 -41 -69 -66.5t-100 -25.5q-54 0 -84 25.5t-30 70.5q0 28 12.5 50t29.5 34.5t46.5 22.5t50.5 14t54 9l115 12q6 34 6 53q0 51 -32 73.5t-81 22.5
q-107 0 -128 -104zM374 354q1 5 2.5 16t3.5 15q-8 -1 -22 -3t-21 -2l-82 -10q-151 -21 -151 -102q0 -33 24.5 -52.5t68.5 -19.5q63 0 113 41t64 117z" />
    <glyph glyph-name="guillemotleft" unicode="&#xab;" horiz-adv-x="451" 
d="M239 473l-140 -185l70 -190h-34l-76 190l143 185h37zM413 473l-135 -185l65 -190h-32l-76 190l143 185h35z" />
    <glyph glyph-name="logicalnot" unicode="&#xac;" 
d="M32 415v32h503v-310h-33v278h-470z" />
    <glyph glyph-name="uni00AD" unicode="&#xad;" horiz-adv-x="415" 
d="M90 348l5 32h272l-5 -32h-272z" />
    <glyph glyph-name="registered" unicode="&#xae;" horiz-adv-x="579" 
d="M247 366v264h79q43 0 67.5 -18t24.5 -53q0 -66 -72 -77l70 -116h-26l-67 113h-54v-113h-22zM269 610v-112h50q75 0 75 59q0 53 -75 53h-50zM555 500q0 -98 -68.5 -166t-165.5 -68q-96 0 -164.5 68.5t-68.5 165.5t68 165t166 68q96 0 164.5 -68.5t68.5 -164.5zM531 500
q0 88 -61.5 150t-147.5 62q-89 0 -149.5 -61.5t-60.5 -150.5t60.5 -151t148.5 -62q87 0 148.5 62t61.5 151z" />
    <glyph glyph-name="macron" unicode="&#xaf;" horiz-adv-x="428" 
d="M94 639l5 30h244l-5 -30h-244z" />
    <glyph glyph-name="degree" unicode="&#xb0;" horiz-adv-x="444" 
d="M265 400q-70 0 -118.5 47.5t-48.5 116.5q0 70 48.5 117.5t118.5 47.5t118 -47.5t48 -117.5t-47.5 -117t-118.5 -47zM129 564q0 -56 40 -95.5t96 -39.5q57 0 96 38.5t39 96.5q0 56 -40 96t-95 40q-56 0 -96 -39.5t-40 -96.5z" />
    <glyph glyph-name="plusminus" unicode="&#xb1;" 
d="M44 0v32h442v-32h-442zM44 316v32h205v203h32v-203h205v-32h-205v-202h-32v202h-205z" />
    <glyph glyph-name="twosuperior" unicode="&#xb2;" horiz-adv-x="425" 
d="M347 279h-279l3 22q72 50 153 115q43 35 59 48.5t42 41t35.5 51.5t9.5 52q0 44 -26.5 66t-73.5 22q-98 0 -117 -113h-25q9 62 45 99t99 37q58 0 91 -28t33 -81q0 -58 -39 -105t-115 -106q-54 -42 -138 -97h247z" />
    <glyph glyph-name="threesuperior" unicode="&#xb3;" horiz-adv-x="398" 
d="M75 409h24q4 -107 111 -107q54 0 86 30.5t32 84.5q0 43 -31.5 68.5t-79.5 25.5h-12l3 20q58 0 98.5 24t40.5 76q0 33 -23.5 53.5t-66.5 20.5q-45 0 -70 -23t-37 -67h-24q9 50 43 81t89 31q53 0 83.5 -26t30.5 -67q0 -94 -97 -114q80 -22 80 -103q0 -62 -39.5 -99.5
t-105.5 -37.5q-64 0 -99 33t-36 96z" />
    <glyph glyph-name="acute" unicode="&#xb4;" horiz-adv-x="427" 
d="M343 715l-130 -119h-40l114 119h56z" />
    <glyph glyph-name="mu" unicode="&#xb5;" horiz-adv-x="571" 
d="M36 -180h-36l125 705h36l-55 -309q-7 -44 -7 -65q0 -134 132 -134q77 0 131.5 54t67.5 129l58 325h36l-79 -445q-6 -31 -13 -80h-37l19 101q-62 -115 -188 -115q-115 0 -145 87z" />
    <glyph glyph-name="paragraph" unicode="&#xb6;" horiz-adv-x="523" 
d="M528 715l-4 -30h-55l-125 -716h-37l125 716h-154l-125 -716h-37l88 497q-58 2 -88 32.5t-30 80.5q0 82 76 119q39 17 104 17h262z" />
    <glyph glyph-name="periodcentered" unicode="&#xb7;" horiz-adv-x="185" 
d="M66 261l19 111h36l-19 -111h-36z" />
    <glyph glyph-name="cedilla" unicode="&#xb8;" horiz-adv-x="369" 
d="M163 -163l88 115h35l-75 -115h-48z" />
    <glyph glyph-name="onesuperior" unicode="&#xb9;" horiz-adv-x="246" 
d="M196 628h-105l3 16q57 2 86.5 18.5t40.5 52.5h16l-75 -424h-25z" />
    <glyph glyph-name="ordmasculine" unicode="&#xba;" horiz-adv-x="502" 
d="M270 195q82 0 132 59t50 148q0 71 -41.5 114t-113.5 43q-85 0 -133 -60.5t-48 -149.5q0 -73 40.5 -113.5t113.5 -40.5zM266 170q-84 0 -131.5 47t-47.5 131q0 102 57.5 169t155.5 67q84 0 132.5 -48.5t48.5 -130.5q0 -101 -58.5 -168t-156.5 -67z" />
    <glyph glyph-name="guillemotright" unicode="&#xbb;" horiz-adv-x="450" 
d="M204 98l140 185l-70 190h34l76 -190l-143 -185h-37zM30 98l135 185l-65 190h32l76 -190l-143 -185h-35z" />
    <glyph glyph-name="onequarter" unicode="&#xbc;" horiz-adv-x="735" 
d="M550 106h-210l3 17q103 118 267 313h23l-54 -310h86l-4 -20h-86l-19 -106h-25zM554 126l19 111q2 8 9 46.5t14 73.5t9 44h-1l-97 -118l-54 -64q-32 -35 -53 -62l-26 -31h180zM126 0l402 715h27l-402 -715h-27zM198 628h-105l3 16q57 2 86.5 18.5t40.5 52.5h16l-75 -424
h-25z" />
    <glyph glyph-name="onehalf" unicode="&#xbd;" horiz-adv-x="794" 
d="M693 0h-279l3 22q72 50 153 115q43 35 59 48.5t42 41t35.5 51.5t9.5 52q0 44 -26.5 66t-73.5 22q-98 0 -117 -113h-25q9 62 45 99t99 37q58 0 91 -28t33 -81q0 -58 -39 -105t-115 -106q-54 -42 -138 -97h247zM125 0l402 715h27l-402 -715h-27zM197 628h-105l3 16
q57 2 86.5 18.5t40.5 52.5h16l-75 -424h-25z" />
    <glyph glyph-name="threequarters" unicode="&#xbe;" horiz-adv-x="846" 
d="M662 106h-210l3 17q103 118 267 313h23l-54 -310h86l-4 -20h-86l-19 -106h-25zM666 126l19 111q2 8 9 46.5t14 73.5t9 44h-1l-97 -118l-54 -64q-32 -35 -53 -62l-26 -31h180zM238 0l402 715h27l-402 -715h-27zM65 409h24q4 -107 111 -107q54 0 86 30.5t32 84.5
q0 43 -31.5 68.5t-79.5 25.5h-12l3 20q58 0 98.5 24t40.5 76q0 33 -23.5 53.5t-66.5 20.5q-45 0 -70 -23t-37 -67h-24q9 50 43 81t89 31q53 0 83.5 -26t30.5 -67q0 -94 -97 -114q80 -22 80 -103q0 -62 -39.5 -99.5t-105.5 -37.5q-64 0 -99 33t-36 96z" />
    <glyph glyph-name="questiondown" unicode="&#xbf;" horiz-adv-x="477" 
d="M230 324h34q-10 -56 -32.5 -92.5t-75.5 -79.5l-29 -24q-41 -33 -59.5 -50t-39 -52.5t-20.5 -74.5q0 -59 42 -91.5t115 -32.5q84 0 133.5 52.5t55.5 134.5h33q-2 -90 -63.5 -154t-161.5 -64q-90 0 -139.5 40t-49.5 110q0 62 31 104.5t94 93.5l17 13q63 51 83.5 79.5
t31.5 87.5zM303 525l-20 -111h-36l20 111h36z" />
    <glyph glyph-name="Agrave" unicode="&#xc0;" horiz-adv-x="659" 
d="M-25 0l412 715h36l160 -715h-36l-59 264h-324l-152 -264h-37zM399 673h-2q-29 -54 -94 -166.5t-83 -144.5l-40 -68h301l-16 77q-6 28 -31.5 137.5t-34.5 164.5zM398 761l-128 115h56l112 -115h-40z" />
    <glyph glyph-name="Aacute" unicode="&#xc1;" horiz-adv-x="659" 
d="M-25 0l412 715h36l160 -715h-36l-59 264h-324l-152 -264h-37zM399 673h-2q-29 -54 -94 -166.5t-83 -144.5l-40 -68h301l-16 77q-6 28 -31.5 137.5t-34.5 164.5zM529 876l-128 -115h-40l112 115h56z" />
    <glyph glyph-name="Acircumflex" unicode="&#xc2;" horiz-adv-x="659" 
d="M-25 0l412 715h36l160 -715h-36l-59 264h-324l-152 -264h-37zM399 673h-2q-29 -54 -94 -166.5t-83 -144.5l-40 -68h301l-16 77q-6 28 -31.5 137.5t-34.5 164.5zM409 875h34q15 -23 79 -115h-32l-67 84l-98 -84h-35q18 18 60 58t59 57z" />
    <glyph glyph-name="Atilde" unicode="&#xc3;" horiz-adv-x="659" 
d="M-25 0l412 715h36l160 -715h-36l-59 264h-324l-152 -264h-37zM399 673h-2q-29 -54 -94 -166.5t-83 -144.5l-40 -68h301l-16 77q-6 28 -31.5 137.5t-34.5 164.5zM420 797q-10 4 -26.5 11.5t-26.5 11t-19 3.5q-35 0 -41 -51h-29q6 82 66 82q12 0 24.5 -4t31.5 -12.5
t27 -11.5q9 -3 20 -8t16 -7t12.5 -4t14.5 -2q35 0 44 52h28q-5 -39 -23.5 -60.5t-47.5 -21.5q-14 0 -71 22z" />
    <glyph glyph-name="Adieresis" unicode="&#xc4;" horiz-adv-x="659" 
d="M-25 0l412 715h36l160 -715h-36l-59 264h-324l-152 -264h-37zM399 673h-2q-29 -54 -94 -166.5t-83 -144.5l-40 -68h301l-16 77q-6 28 -31.5 137.5t-34.5 164.5zM337 766l15 80h36l-15 -80h-36zM456 766l15 80h36l-15 -80h-36z" />
    <glyph glyph-name="Aring" unicode="&#xc5;" horiz-adv-x="659" 
d="M-25 0l412 715h36l160 -715h-36l-59 264h-324l-152 -264h-37zM399 673h-2q-29 -54 -94 -166.5t-83 -144.5l-40 -68h301l-16 77q-6 28 -31.5 137.5t-34.5 164.5zM421 751q-36 0 -60 24.5t-24 61.5q0 35 24.5 59.5t60.5 24.5t60.5 -24.5t24.5 -59.5q0 -37 -24.5 -61.5
t-61.5 -24.5zM361 837q0 -27 17 -45t43 -18q27 0 44 17.5t17 45.5q0 26 -17 43.5t-44 17.5q-26 0 -43 -17.5t-17 -43.5z" />
    <glyph glyph-name="AE" unicode="&#xc6;" horiz-adv-x="874" 
d="M886 715l-6 -30h-379l-46 -302h348l-5 -30h-348l-50 -324h372l-6 -29h-406l39 240h-243l-172 -240h-40l517 715h425zM404 270l29 185q7 41 18 113.5t17 106.5h-4q-46 -75 -126 -182l-160 -223h226z" />
    <glyph glyph-name="Ccedilla" unicode="&#xc7;" horiz-adv-x="770" 
d="M683 207h35q-43 -103 -129 -162t-207 -59q-141 0 -231 86.5t-90 239.5q0 111 43 205t130 153t201 59q124 0 204.5 -60.5t107.5 -167.5h-34q-24 93 -96.5 145t-183.5 52q-82 0 -147.5 -32.5t-106 -86.5t-62 -121t-21.5 -141q0 -140 77 -220t209 -80q109 0 185 51t116 139z
M258 -163l88 115h35l-75 -115h-48z" />
    <glyph glyph-name="Egrave" unicode="&#xc8;" horiz-adv-x="598" 
d="M51 0l127 715h431l-6 -30h-395l-53 -302h371l-5 -30h-371l-57 -323h402l-6 -30h-438zM395 761l-128 115h56l112 -115h-40z" />
    <glyph glyph-name="Eacute" unicode="&#xc9;" horiz-adv-x="598" 
d="M51 0l127 715h431l-6 -30h-395l-53 -302h371l-5 -30h-371l-57 -323h402l-6 -30h-438zM503 876l-128 -115h-40l112 115h56z" />
    <glyph glyph-name="Ecircumflex" unicode="&#xca;" horiz-adv-x="598" 
d="M51 0l127 715h431l-6 -30h-395l-53 -302h371l-5 -30h-371l-57 -323h402l-6 -30h-438zM402 875h34q15 -23 79 -115h-32l-67 84l-98 -84h-35q18 18 60 58t59 57z" />
    <glyph glyph-name="Edieresis" unicode="&#xcb;" horiz-adv-x="598" 
d="M51 0l127 715h431l-6 -30h-395l-53 -302h371l-5 -30h-371l-57 -323h402l-6 -30h-438zM315 766l15 80h36l-15 -80h-36zM434 766l15 80h36l-15 -80h-36z" />
    <glyph glyph-name="Igrave" unicode="&#xcc;" horiz-adv-x="247" 
d="M178 715h36l-127 -715h-36zM188 761l-128 115h56l112 -115h-40z" />
    <glyph glyph-name="Iacute" unicode="&#xcd;" horiz-adv-x="247" 
d="M178 715h36l-127 -715h-36zM336 876l-128 -115h-40l112 115h56z" />
    <glyph glyph-name="Icircumflex" unicode="&#xce;" horiz-adv-x="247" 
d="M178 715h36l-127 -715h-36zM204 875h34q15 -23 79 -115h-32l-67 84l-98 -84h-35q18 18 60 58t59 57z" />
    <glyph glyph-name="Idieresis" unicode="&#xcf;" horiz-adv-x="247" 
d="M178 715h36l-127 -715h-36zM127 766l15 80h36l-15 -80h-36zM246 766l15 80h36l-15 -80h-36z" />
    <glyph glyph-name="Eth" unicode="&#xd0;" horiz-adv-x="718" 
d="M28 345l5 30h86l60 340h101q96 0 145 -8q250 -41 250 -288q0 -170 -88 -280q-68 -85 -162.5 -112t-242.5 -27h-130l61 345h-85zM209 685l-55 -310h164l-5 -30h-165l-55 -315h140q86 0 145 14.5t110 47.5q151 100 151 328q0 265 -309 265h-121z" />
    <glyph glyph-name="Ntilde" unicode="&#xd1;" horiz-adv-x="707" 
d="M178 715h44l194 -439q95 -218 102 -239h2q4 20 20 118t23 134l76 426h35l-127 -715h-47l-190 429q-86 194 -104 248h-2q-8 -79 -53 -316l-64 -361h-36zM439 797q-10 4 -26.5 11.5t-26.5 11t-19 3.5q-35 0 -41 -51h-29q6 82 66 82q12 0 24.5 -4t31.5 -12.5t27 -11.5
q9 -3 20 -8t16 -7t12.5 -4t14.5 -2q35 0 44 52h28q-5 -39 -23.5 -60.5t-47.5 -21.5q-14 0 -71 22z" />
    <glyph glyph-name="Ograve" unicode="&#xd2;" horiz-adv-x="810" 
d="M439 729q151 0 239.5 -86t88.5 -233q0 -183 -103.5 -303.5t-279.5 -120.5q-142 0 -232 86.5t-90 239.5q0 114 43 207.5t130 151.5t204 58zM437 698q-82 0 -148 -32t-107 -85.5t-63 -121t-22 -140.5q0 -140 77 -221t210 -81q114 0 194.5 57t117 144t36.5 193
q0 132 -79.5 209.5t-215.5 77.5zM463 761l-128 115h56l112 -115h-40z" />
    <glyph glyph-name="Oacute" unicode="&#xd3;" horiz-adv-x="810" 
d="M439 729q151 0 239.5 -86t88.5 -233q0 -183 -103.5 -303.5t-279.5 -120.5q-142 0 -232 86.5t-90 239.5q0 114 43 207.5t130 151.5t204 58zM437 698q-82 0 -148 -32t-107 -85.5t-63 -121t-22 -140.5q0 -140 77 -221t210 -81q114 0 194.5 57t117 144t36.5 193
q0 132 -79.5 209.5t-215.5 77.5zM586 876l-128 -115h-40l112 115h56z" />
    <glyph glyph-name="Ocircumflex" unicode="&#xd4;" horiz-adv-x="810" 
d="M439 729q151 0 239.5 -86t88.5 -233q0 -183 -103.5 -303.5t-279.5 -120.5q-142 0 -232 86.5t-90 239.5q0 114 43 207.5t130 151.5t204 58zM437 698q-82 0 -148 -32t-107 -85.5t-63 -121t-22 -140.5q0 -140 77 -221t210 -81q114 0 194.5 57t117 144t36.5 193
q0 132 -79.5 209.5t-215.5 77.5zM471 875h34q15 -23 79 -115h-32l-67 84l-98 -84h-35q18 18 60 58t59 57z" />
    <glyph glyph-name="Otilde" unicode="&#xd5;" horiz-adv-x="810" 
d="M439 729q151 0 239.5 -86t88.5 -233q0 -183 -103.5 -303.5t-279.5 -120.5q-142 0 -232 86.5t-90 239.5q0 114 43 207.5t130 151.5t204 58zM437 698q-82 0 -148 -32t-107 -85.5t-63 -121t-22 -140.5q0 -140 77 -221t210 -81q114 0 194.5 57t117 144t36.5 193
q0 132 -79.5 209.5t-215.5 77.5zM477 797q-10 4 -26.5 11.5t-26.5 11t-19 3.5q-35 0 -41 -51h-29q6 82 66 82q12 0 24.5 -4t31.5 -12.5t27 -11.5q9 -3 20 -8t16 -7t12.5 -4t14.5 -2q35 0 44 52h28q-5 -39 -23.5 -60.5t-47.5 -21.5q-14 0 -71 22z" />
    <glyph glyph-name="Odieresis" unicode="&#xd6;" horiz-adv-x="810" 
d="M439 729q151 0 239.5 -86t88.5 -233q0 -183 -103.5 -303.5t-279.5 -120.5q-142 0 -232 86.5t-90 239.5q0 114 43 207.5t130 151.5t204 58zM437 698q-82 0 -148 -32t-107 -85.5t-63 -121t-22 -140.5q0 -140 77 -221t210 -81q114 0 194.5 57t117 144t36.5 193
q0 132 -79.5 209.5t-215.5 77.5zM383 766l15 80h36l-15 -80h-36zM502 766l15 80h36l-15 -80h-36z" />
    <glyph glyph-name="multiply" unicode="&#xd7;" 
d="M100 122l-23 22l176 176l-176 177l23 22l176 -176l177 177l22 -23l-177 -177l177 -176l-22 -23l-177 177z" />
    <glyph glyph-name="Oslash" unicode="&#xd8;" horiz-adv-x="810" 
d="M439 729q126 0 213 -64l75 90l23 -19l-75 -90q92 -86 92 -236q0 -183 -103.5 -303.5t-279.5 -120.5q-124 0 -206 63l-76 -92l-23 18l77 93q-94 88 -94 244q0 114 43 207.5t130 151.5t204 58zM437 698q-82 0 -148 -32t-107 -85.5t-63 -121t-22 -140.5q0 -144 81 -225
l452 545q-74 59 -193 59zM732 411q0 129 -79 208l-454 -545q73 -57 185 -57q114 0 194.5 57t117 144t36.5 193z" />
    <glyph glyph-name="Ugrave" unicode="&#xd9;" horiz-adv-x="687" 
d="M297 -14q-109 0 -162.5 53t-53.5 143q0 39 8 84l80 449h36l-77 -430q-11 -50 -11 -95q0 -173 186 -173q63 0 107 17t71 54t42.5 82.5t27.5 113.5l76 431h36l-81 -455q-23 -138 -87 -206t-198 -68zM427 761l-128 115h56l112 -115h-40z" />
    <glyph glyph-name="Uacute" unicode="&#xda;" horiz-adv-x="687" 
d="M297 -14q-109 0 -162.5 53t-53.5 143q0 39 8 84l80 449h36l-77 -430q-11 -50 -11 -95q0 -173 186 -173q63 0 107 17t71 54t42.5 82.5t27.5 113.5l76 431h36l-81 -455q-23 -138 -87 -206t-198 -68zM532 876l-128 -115h-40l112 115h56z" />
    <glyph glyph-name="Ucircumflex" unicode="&#xdb;" horiz-adv-x="687" 
d="M297 -14q-109 0 -162.5 53t-53.5 143q0 39 8 84l80 449h36l-77 -430q-11 -50 -11 -95q0 -173 186 -173q63 0 107 17t71 54t42.5 82.5t27.5 113.5l76 431h36l-81 -455q-23 -138 -87 -206t-198 -68zM428 875h34q15 -23 79 -115h-32l-67 84l-98 -84h-35q18 18 60 58t59 57z
" />
    <glyph glyph-name="Udieresis" unicode="&#xdc;" horiz-adv-x="687" 
d="M297 -14q-109 0 -162.5 53t-53.5 143q0 39 8 84l80 449h36l-77 -430q-11 -50 -11 -95q0 -173 186 -173q63 0 107 17t71 54t42.5 82.5t27.5 113.5l76 431h36l-81 -455q-23 -138 -87 -206t-198 -68zM343 766l15 80h36l-15 -80h-36zM462 766l15 80h36l-15 -80h-36z" />
    <glyph glyph-name="Yacute" unicode="&#xdd;" horiz-adv-x="599" 
d="M221 0l48 272l-174 443h39q52 -146 159 -408q49 65 158.5 208t151.5 200h41l-339 -443l-48 -272h-36zM482 876l-128 -115h-40l112 115h56z" />
    <glyph glyph-name="Thorn" unicode="&#xde;" horiz-adv-x="568" 
d="M178 715h37l-22 -121h98q121 0 180 -31q83 -44 83 -141q0 -161 -143 -215q-59 -22 -146 -22h-144l-33 -185h-37zM187 564l-61 -349h134q88 0 135 18q123 44 123 187q0 80 -55.5 112t-157.5 32h-118z" />
    <glyph glyph-name="germandbls" unicode="&#xdf;" horiz-adv-x="556" 
d="M32 0l90 511q17 97 63 148q58 64 157 64q78 0 123.5 -40t45.5 -102q0 -71 -41.5 -118.5t-116.5 -63.5v-2q142 -37 142 -164q0 -108 -69 -171.5t-200 -63.5h-19l5 28h8q110 0 174 49t64 157q0 144 -187 152l4 25q87 4 143 44.5t56 124.5q0 52 -36 83t-99 31
q-79 0 -124 -48q-40 -43 -58 -140l-89 -504h-36z" />
    <glyph glyph-name="agrave" unicode="&#xe0;" horiz-adv-x="542" 
d="M113 368h-35q13 74 68.5 122.5t145.5 48.5q80 0 129.5 -39.5t49.5 -119.5q0 -32 -6 -66q-4 -26 -14.5 -80t-22.5 -125t-10 -109h-35q0 38 16 120h-1q-29 -58 -90.5 -94.5t-138.5 -36.5q-72 0 -111.5 34t-39.5 94q0 37 16.5 65.5t40 45.5t61.5 30t68 19t72 12q19 3 78 8.5
t76 7.5q8 40 8 72q0 69 -43 100t-109 31q-142 0 -173 -140zM417 234q5 29 9 42q-159 -18 -169 -20q-30 -5 -43.5 -7.5t-43.5 -10t-45.5 -16.5t-35 -23t-28 -34.5t-8.5 -45.5q0 -46 32.5 -72.5t92.5 -26.5q87 0 154.5 56t84.5 158zM327 596l-130 119h56l114 -119h-40z" />
    <glyph glyph-name="aacute" unicode="&#xe1;" horiz-adv-x="542" 
d="M113 368h-35q13 74 68.5 122.5t145.5 48.5q80 0 129.5 -39.5t49.5 -119.5q0 -32 -6 -66q-4 -26 -14.5 -80t-22.5 -125t-10 -109h-35q0 38 16 120h-1q-29 -58 -90.5 -94.5t-138.5 -36.5q-72 0 -111.5 34t-39.5 94q0 37 16.5 65.5t40 45.5t61.5 30t68 19t72 12q19 3 78 8.5
t76 7.5q8 40 8 72q0 69 -43 100t-109 31q-142 0 -173 -140zM417 234q5 29 9 42q-159 -18 -169 -20q-30 -5 -43.5 -7.5t-43.5 -10t-45.5 -16.5t-35 -23t-28 -34.5t-8.5 -45.5q0 -46 32.5 -72.5t92.5 -26.5q87 0 154.5 56t84.5 158zM436 715l-130 -119h-40l114 119h56z" />
    <glyph glyph-name="acircumflex" unicode="&#xe2;" horiz-adv-x="542" 
d="M113 368h-35q13 74 68.5 122.5t145.5 48.5q80 0 129.5 -39.5t49.5 -119.5q0 -32 -6 -66q-4 -26 -14.5 -80t-22.5 -125t-10 -109h-35q0 38 16 120h-1q-29 -58 -90.5 -94.5t-138.5 -36.5q-72 0 -111.5 34t-39.5 94q0 37 16.5 65.5t40 45.5t61.5 30t68 19t72 12q19 3 78 8.5
t76 7.5q8 40 8 72q0 69 -43 100t-109 31q-142 0 -173 -140zM417 234q5 29 9 42q-159 -18 -169 -20q-30 -5 -43.5 -7.5t-43.5 -10t-45.5 -16.5t-35 -23t-28 -34.5t-8.5 -45.5q0 -46 32.5 -72.5t92.5 -26.5q87 0 154.5 56t84.5 158zM313 715h35l78 -119h-30l-69 88l-100 -88
h-35z" />
    <glyph glyph-name="atilde" unicode="&#xe3;" horiz-adv-x="542" 
d="M113 368h-35q13 74 68.5 122.5t145.5 48.5q80 0 129.5 -39.5t49.5 -119.5q0 -32 -6 -66q-4 -26 -14.5 -80t-22.5 -125t-10 -109h-35q0 38 16 120h-1q-29 -58 -90.5 -94.5t-138.5 -36.5q-72 0 -111.5 34t-39.5 94q0 37 16.5 65.5t40 45.5t61.5 30t68 19t72 12q19 3 78 8.5
t76 7.5q8 40 8 72q0 69 -43 100t-109 31q-142 0 -173 -140zM417 234q5 29 9 42q-159 -18 -169 -20q-30 -5 -43.5 -7.5t-43.5 -10t-45.5 -16.5t-35 -23t-28 -34.5t-8.5 -45.5q0 -46 32.5 -72.5t92.5 -26.5q87 0 154.5 56t84.5 158zM329 643q-10 4 -26.5 11.5t-26.5 11
t-19 3.5q-35 0 -41 -51h-29q6 82 66 82q12 0 24.5 -4t31.5 -12.5t27 -11.5q9 -3 20 -8t16 -7t12.5 -4t14.5 -2q35 0 44 52h28q-5 -39 -23.5 -60.5t-47.5 -21.5q-14 0 -71 22z" />
    <glyph glyph-name="adieresis" unicode="&#xe4;" horiz-adv-x="542" 
d="M113 368h-35q13 74 68.5 122.5t145.5 48.5q80 0 129.5 -39.5t49.5 -119.5q0 -32 -6 -66q-4 -26 -14.5 -80t-22.5 -125t-10 -109h-35q0 38 16 120h-1q-29 -58 -90.5 -94.5t-138.5 -36.5q-72 0 -111.5 34t-39.5 94q0 37 16.5 65.5t40 45.5t61.5 30t68 19t72 12q19 3 78 8.5
t76 7.5q8 40 8 72q0 69 -43 100t-109 31q-142 0 -173 -140zM417 234q5 29 9 42q-159 -18 -169 -20q-30 -5 -43.5 -7.5t-43.5 -10t-45.5 -16.5t-35 -23t-28 -34.5t-8.5 -45.5q0 -46 32.5 -72.5t92.5 -26.5q87 0 154.5 56t84.5 158zM243 616l15 80h36l-15 -80h-36zM362 616
l15 80h36l-15 -80h-36z" />
    <glyph glyph-name="aring" unicode="&#xe5;" horiz-adv-x="542" 
d="M113 368h-35q13 74 68.5 122.5t145.5 48.5q80 0 129.5 -39.5t49.5 -119.5q0 -32 -6 -66q-4 -26 -14.5 -80t-22.5 -125t-10 -109h-35q0 38 16 120h-1q-29 -58 -90.5 -94.5t-138.5 -36.5q-72 0 -111.5 34t-39.5 94q0 37 16.5 65.5t40 45.5t61.5 30t68 19t72 12q19 3 78 8.5
t76 7.5q8 40 8 72q0 69 -43 100t-109 31q-142 0 -173 -140zM417 234q5 29 9 42q-159 -18 -169 -20q-30 -5 -43.5 -7.5t-43.5 -10t-45.5 -16.5t-35 -23t-28 -34.5t-8.5 -45.5q0 -46 32.5 -72.5t92.5 -26.5q87 0 154.5 56t84.5 158zM319 591q-36 0 -60 24.5t-24 61.5
q0 35 24.5 59.5t60.5 24.5t60.5 -24.5t24.5 -59.5q0 -37 -24.5 -61.5t-61.5 -24.5zM259 677q0 -27 17 -45t43 -18q27 0 44 17.5t17 45.5q0 26 -17 43.5t-44 17.5q-26 0 -43 -17.5t-17 -43.5z" />
    <glyph glyph-name="ae" unicode="&#xe6;" horiz-adv-x="969" 
d="M919 265h-463q-2 -24 -2 -38q0 -99 53 -154t150 -55q141 0 205 132h36q-73 -163 -247 -163q-92 0 -149.5 46t-74.5 131h-1q-26 -74 -94 -124.5t-163 -50.5q-72 0 -111.5 34t-39.5 94q0 97 106 138q19 7 39.5 13t45 10t42.5 6.5t48 5t43.5 3t46 2.5t40.5 2q9 51 9 80
q0 69 -43.5 100.5t-108.5 31.5q-142 0 -173 -141h-35q13 74 68.5 122.5t145.5 48.5q73 0 120 -33t55 -99q74 132 226 132q109 0 168 -67t59 -178q0 -18 -1 -29zM689 508q-95 0 -153 -59t-76 -153h425v2q0 97 -50 153.5t-146 56.5zM417 234q3 15 8 34q-11 -1 -58.5 -3.5
t-75.5 -4.5t-69.5 -9.5t-71.5 -18.5q-97 -36 -97 -113q0 -46 32.5 -72.5t92.5 -26.5q87 0 154.5 56t84.5 158z" />
    <glyph glyph-name="ccedilla" unicode="&#xe7;" horiz-adv-x="588" 
d="M492 167h34q-32 -82 -95.5 -131t-155.5 -49q-110 0 -172 63.5t-62 176.5q0 131 76 221.5t202 90.5q96 0 153 -50.5t72 -135.5h-33q-33 155 -193 155q-114 0 -177.5 -81.5t-63.5 -200.5q0 -100 53 -154t152 -54q147 0 210 149zM155 -163l88 115h35l-75 -115h-48z" />
    <glyph glyph-name="egrave" unicode="&#xe8;" horiz-adv-x="596" 
d="M546 265h-468q-2 -24 -2 -38q0 -99 54.5 -154t151.5 -55q143 0 207 132h36q-34 -76 -97 -119.5t-152 -43.5q-108 0 -171.5 64t-63.5 176q0 131 76 221.5t201 90.5q109 0 169 -67t60 -178q0 -18 -1 -29zM314 508q-95 0 -154.5 -59t-77.5 -153h430v2q0 96 -51 153t-147 57z
M342 596l-130 119h56l114 -119h-40z" />
    <glyph glyph-name="eacute" unicode="&#xe9;" horiz-adv-x="596" 
d="M546 265h-468q-2 -24 -2 -38q0 -99 54.5 -154t151.5 -55q143 0 207 132h36q-34 -76 -97 -119.5t-152 -43.5q-108 0 -171.5 64t-63.5 176q0 131 76 221.5t201 90.5q109 0 169 -67t60 -178q0 -18 -1 -29zM314 508q-95 0 -154.5 -59t-77.5 -153h430v2q0 96 -51 153t-147 57z
M460 715l-130 -119h-40l114 119h56z" />
    <glyph glyph-name="ecircumflex" unicode="&#xea;" horiz-adv-x="596" 
d="M546 265h-468q-2 -24 -2 -38q0 -99 54.5 -154t151.5 -55q143 0 207 132h36q-34 -76 -97 -119.5t-152 -43.5q-108 0 -171.5 64t-63.5 176q0 131 76 221.5t201 90.5q109 0 169 -67t60 -178q0 -18 -1 -29zM314 508q-95 0 -154.5 -59t-77.5 -153h430v2q0 96 -51 153t-147 57z
M336 715h35l78 -119h-30l-69 88l-100 -88h-35z" />
    <glyph glyph-name="edieresis" unicode="&#xeb;" horiz-adv-x="596" 
d="M546 265h-468q-2 -24 -2 -38q0 -99 54.5 -154t151.5 -55q143 0 207 132h36q-34 -76 -97 -119.5t-152 -43.5q-108 0 -171.5 64t-63.5 176q0 131 76 221.5t201 90.5q109 0 169 -67t60 -178q0 -18 -1 -29zM314 508q-95 0 -154.5 -59t-77.5 -153h430v2q0 96 -51 153t-147 57z
M250 616l15 80h36l-15 -80h-36zM369 616l15 80h36l-15 -80h-36z" />
    <glyph glyph-name="igrave" unicode="&#xec;" horiz-adv-x="208" 
d="M125 525h36l-93 -525h-36zM148 596l-130 119h56l114 -119h-40z" />
    <glyph glyph-name="iacute" unicode="&#xed;" horiz-adv-x="208" 
d="M125 525h36l-93 -525h-36zM293 715l-130 -119h-40l114 119h56z" />
    <glyph glyph-name="icircumflex" unicode="&#xee;" horiz-adv-x="208" 
d="M125 525h36l-93 -525h-36zM153 715h35l78 -119h-30l-69 88l-100 -88h-35z" />
    <glyph glyph-name="idieresis" unicode="&#xef;" horiz-adv-x="208" 
d="M125 525h36l-93 -525h-36zM78 616l15 80h36l-15 -80h-36zM197 616l15 80h36l-15 -80h-36z" />
    <glyph glyph-name="eth" unicode="&#xf0;" horiz-adv-x="623" 
d="M280 715h58q34 -22 50 -35l93 41l19 -18l-91 -41q72 -64 115 -152.5t43 -181.5q0 -68 -17 -128t-51 -108.5t-90.5 -76.5t-130.5 -28q-103 0 -170 60t-67 177q0 146 82 230.5t195 84.5q83 0 136 -37.5t78 -93.5l3 2q-51 149 -157 238l-149 -66l-17 19l145 65
q-32 24 -77 49zM284 18q111 0 179 79.5t68 199.5q0 95 -57 153t-154 58q-114 0 -178.5 -82t-64.5 -200q0 -99 54 -153.5t153 -54.5z" />
    <glyph glyph-name="ntilde" unicode="&#xf1;" horiz-adv-x="568" 
d="M32 0l78 445q11 58 14 80h37l-18 -99q26 45 74 79t118 34q74 0 118 -39t44 -112q0 -25 -7 -69l-56 -319h-36l55 311q7 42 7 72q0 63 -37.5 94t-97.5 31q-74 0 -131 -54t-69 -129l-57 -325h-36zM341 642q-10 4 -26.5 11.5t-26.5 11t-19 3.5q-35 0 -41 -51h-29q6 82 66 82
q12 0 24.5 -4t31.5 -12.5t27 -11.5q9 -3 20 -8t16 -7t12.5 -4t14.5 -2q35 0 44 52h28q-5 -39 -23.5 -60.5t-47.5 -21.5q-14 0 -71 22z" />
    <glyph glyph-name="ograve" unicode="&#xf2;" horiz-adv-x="620" 
d="M284 18q111 0 177.5 79.5t66.5 199.5q0 95 -55.5 153t-152.5 58q-114 0 -178.5 -82t-64.5 -200q0 -99 54 -153.5t153 -54.5zM279 -13q-111 0 -174.5 63.5t-63.5 173.5q0 134 76 224.5t207 90.5q111 0 175.5 -65t64.5 -174q0 -134 -78 -223.5t-207 -89.5zM361 596
l-130 119h56l114 -119h-40z" />
    <glyph glyph-name="oacute" unicode="&#xf3;" horiz-adv-x="620" 
d="M284 18q111 0 177.5 79.5t66.5 199.5q0 95 -55.5 153t-152.5 58q-114 0 -178.5 -82t-64.5 -200q0 -99 54 -153.5t153 -54.5zM279 -13q-111 0 -174.5 63.5t-63.5 173.5q0 134 76 224.5t207 90.5q111 0 175.5 -65t64.5 -174q0 -134 -78 -223.5t-207 -89.5zM465 715
l-130 -119h-40l114 119h56z" />
    <glyph glyph-name="ocircumflex" unicode="&#xf4;" horiz-adv-x="620" 
d="M284 18q111 0 177.5 79.5t66.5 199.5q0 95 -55.5 153t-152.5 58q-114 0 -178.5 -82t-64.5 -200q0 -99 54 -153.5t153 -54.5zM279 -13q-111 0 -174.5 63.5t-63.5 173.5q0 134 76 224.5t207 90.5q111 0 175.5 -65t64.5 -174q0 -134 -78 -223.5t-207 -89.5zM353 715h35
l78 -119h-30l-69 88l-100 -88h-35z" />
    <glyph glyph-name="otilde" unicode="&#xf5;" horiz-adv-x="620" 
d="M284 18q111 0 177.5 79.5t66.5 199.5q0 95 -55.5 153t-152.5 58q-114 0 -178.5 -82t-64.5 -200q0 -99 54 -153.5t153 -54.5zM279 -13q-111 0 -174.5 63.5t-63.5 173.5q0 134 76 224.5t207 90.5q111 0 175.5 -65t64.5 -174q0 -134 -78 -223.5t-207 -89.5zM359 642
q-10 4 -26.5 11.5t-26.5 11t-19 3.5q-35 0 -41 -51h-29q6 82 66 82q12 0 24.5 -4t31.5 -12.5t27 -11.5q9 -3 20 -8t16 -7t12.5 -4t14.5 -2q35 0 44 52h28q-5 -39 -23.5 -60.5t-47.5 -21.5q-14 0 -71 22z" />
    <glyph glyph-name="odieresis" unicode="&#xf6;" horiz-adv-x="620" 
d="M284 18q111 0 177.5 79.5t66.5 199.5q0 95 -55.5 153t-152.5 58q-114 0 -178.5 -82t-64.5 -200q0 -99 54 -153.5t153 -54.5zM279 -13q-111 0 -174.5 63.5t-63.5 173.5q0 134 76 224.5t207 90.5q111 0 175.5 -65t64.5 -174q0 -134 -78 -223.5t-207 -89.5zM274 616l15 80
h36l-15 -80h-36zM393 616l15 80h36l-15 -80h-36z" />
    <glyph glyph-name="divide" unicode="&#xf7;" 
d="M61 305v32h442v-32h-442zM260 95v111h36v-111h-36zM260 438v111h36v-111h-36z" />
    <glyph glyph-name="oslash" unicode="&#xf8;" horiz-adv-x="620" 
d="M279 -13q-83 0 -141 36l-60 -73l-24 20l59 72q-72 63 -72 182q0 134 76 224.5t207 90.5q96 0 158 -50l66 80l24 -20l-67 -82q59 -62 59 -167q0 -134 -78 -223.5t-207 -89.5zM77 226q0 -103 58 -158l324 394q-56 46 -139 46q-114 0 -178.5 -82t-64.5 -200zM284 18
q111 0 177.5 79.5t66.5 199.5q0 87 -46 143l-322 -391q49 -31 124 -31z" />
    <glyph glyph-name="ugrave" unicode="&#xf9;" horiz-adv-x="565" 
d="M517 525l-78 -445q-11 -58 -14 -80h-37l18 99q-66 -113 -190 -113q-74 0 -117.5 39t-43.5 112q0 25 7 69l56 319h36l-55 -311q-7 -42 -7 -71q0 -65 36.5 -95.5t97.5 -30.5q74 0 130 54t68 129l57 325h36zM322 596l-130 119h56l114 -119h-40z" />
    <glyph glyph-name="uacute" unicode="&#xfa;" horiz-adv-x="565" 
d="M517 525l-78 -445q-11 -58 -14 -80h-37l18 99q-66 -113 -190 -113q-74 0 -117.5 39t-43.5 112q0 25 7 69l56 319h36l-55 -311q-7 -42 -7 -71q0 -65 36.5 -95.5t97.5 -30.5q74 0 130 54t68 129l57 325h36zM440 715l-130 -119h-40l114 119h56z" />
    <glyph glyph-name="ucircumflex" unicode="&#xfb;" horiz-adv-x="565" 
d="M517 525l-78 -445q-11 -58 -14 -80h-37l18 99q-66 -113 -190 -113q-74 0 -117.5 39t-43.5 112q0 25 7 69l56 319h36l-55 -311q-7 -42 -7 -71q0 -65 36.5 -95.5t97.5 -30.5q74 0 130 54t68 129l57 325h36zM340 715h35l78 -119h-30l-69 88l-100 -88h-35z" />
    <glyph glyph-name="udieresis" unicode="&#xfc;" horiz-adv-x="565" 
d="M517 525l-78 -445q-11 -58 -14 -80h-37l18 99q-66 -113 -190 -113q-74 0 -117.5 39t-43.5 112q0 25 7 69l56 319h36l-55 -311q-7 -42 -7 -71q0 -65 36.5 -95.5t97.5 -30.5q74 0 130 54t68 129l57 325h36zM246 616l15 80h36l-15 -80h-36zM365 616l15 80h36l-15 -80h-36z
" />
    <glyph glyph-name="yacute" unicode="&#xfd;" horiz-adv-x="501" 
d="M107 -180h-37l105 181q-35 178 -109 524h38q12 -60 34 -168.5t38 -189.5t23 -126h1q19 40 69.5 130.5t113 200.5t85.5 153h40q-68 -124 -401 -705zM412 715l-130 -119h-40l114 119h56z" />
    <glyph glyph-name="thorn" unicode="&#xfe;" horiz-adv-x="600" 
d="M68 0l-32 -180h-36l159 895h36l-28 -152q-10 -55 -25 -128q69 103 191 103q93 0 151.5 -62.5t58.5 -175.5q0 -135 -75 -224.5t-186 -89.5q-86 0 -133.5 47.5t-57.5 109.5q-7 -61 -23 -143zM286 17q99 0 159.5 82t60.5 202q0 94 -46.5 150t-136.5 56q-72 0 -122.5 -44
t-72 -108t-21.5 -139q0 -90 45.5 -144.5t133.5 -54.5z" />
    <glyph glyph-name="ydieresis" unicode="&#xff;" horiz-adv-x="501" 
d="M107 -180h-37l105 181q-35 178 -109 524h38q12 -60 34 -168.5t38 -189.5t23 -126h1q19 40 69.5 130.5t113 200.5t85.5 153h40q-68 -124 -401 -705zM211 616l15 80h36l-15 -80h-36zM330 616l15 80h36l-15 -80h-36z" />
    <glyph glyph-name="Amacron" unicode="&#x100;" horiz-adv-x="659" 
d="M-25 0l412 715h36l160 -715h-36l-59 264h-324l-152 -264h-37zM399 673h-2q-29 -54 -94 -166.5t-83 -144.5l-40 -68h301l-16 77q-6 28 -31.5 137.5t-34.5 164.5zM279 793l5 30h244l-5 -30h-244z" />
    <glyph glyph-name="amacron" unicode="&#x101;" horiz-adv-x="542" 
d="M113 368h-35q13 74 68.5 122.5t145.5 48.5q80 0 129.5 -39.5t49.5 -119.5q0 -32 -6 -66q-4 -26 -14.5 -80t-22.5 -125t-10 -109h-35q0 38 16 120h-1q-29 -58 -90.5 -94.5t-138.5 -36.5q-72 0 -111.5 34t-39.5 94q0 37 16.5 65.5t40 45.5t61.5 30t68 19t72 12q19 3 78 8.5
t76 7.5q8 40 8 72q0 69 -43 100t-109 31q-142 0 -173 -140zM417 234q5 29 9 42q-159 -18 -169 -20q-30 -5 -43.5 -7.5t-43.5 -10t-45.5 -16.5t-35 -23t-28 -34.5t-8.5 -45.5q0 -46 32.5 -72.5t92.5 -26.5q87 0 154.5 56t84.5 158zM196 639l5 30h244l-5 -30h-244z" />
    <glyph glyph-name="Abreve" unicode="&#x102;" horiz-adv-x="659" 
d="M-25 0l412 715h36l160 -715h-36l-59 264h-324l-152 -264h-37zM399 673h-2q-29 -54 -94 -166.5t-83 -144.5l-40 -68h301l-16 77q-6 28 -31.5 137.5t-34.5 164.5zM410 777q-51 0 -79.5 26.5t-30.5 75.5h28q9 -73 87 -73q43 0 66 19.5t37 53.5h28q-39 -102 -136 -102z" />
    <glyph glyph-name="abreve" unicode="&#x103;" horiz-adv-x="542" 
d="M113 368h-35q13 74 68.5 122.5t145.5 48.5q80 0 129.5 -39.5t49.5 -119.5q0 -32 -6 -66q-4 -26 -14.5 -80t-22.5 -125t-10 -109h-35q0 38 16 120h-1q-29 -58 -90.5 -94.5t-138.5 -36.5q-72 0 -111.5 34t-39.5 94q0 37 16.5 65.5t40 45.5t61.5 30t68 19t72 12q19 3 78 8.5
t76 7.5q8 40 8 72q0 69 -43 100t-109 31q-142 0 -173 -140zM417 234q5 29 9 42q-159 -18 -169 -20q-30 -5 -43.5 -7.5t-43.5 -10t-45.5 -16.5t-35 -23t-28 -34.5t-8.5 -45.5q0 -46 32.5 -72.5t92.5 -26.5q87 0 154.5 56t84.5 158zM326 613q-51 0 -79 26.5t-30 75.5h28
q4 -34 23 -53.5t63 -19.5q43 0 66 19t38 54h28q-39 -102 -137 -102z" />
    <glyph glyph-name="Aogonek" unicode="&#x104;" horiz-adv-x="659" 
d="M-25 0l412 715h36l160 -715h-36l-59 264h-324l-152 -264h-37zM399 673h-2q-29 -54 -94 -166.5t-83 -144.5l-40 -68h301l-16 77q-6 28 -31.5 137.5t-34.5 164.5zM573 -48l88 -115h-48l-75 115h35z" />
    <glyph glyph-name="aogonek" unicode="&#x105;" horiz-adv-x="542" 
d="M113 368h-35q13 74 68.5 122.5t145.5 48.5q80 0 129.5 -39.5t49.5 -119.5q0 -32 -6 -66q-4 -26 -14.5 -80t-22.5 -125t-10 -109h-35q0 38 16 120h-1q-29 -58 -90.5 -94.5t-138.5 -36.5q-72 0 -111.5 34t-39.5 94q0 37 16.5 65.5t40 45.5t61.5 30t68 19t72 12q19 3 78 8.5
t76 7.5q8 40 8 72q0 69 -43 100t-109 31q-142 0 -173 -140zM417 234q5 29 9 42q-159 -18 -169 -20q-30 -5 -43.5 -7.5t-43.5 -10t-45.5 -16.5t-35 -23t-28 -34.5t-8.5 -45.5q0 -46 32.5 -72.5t92.5 -26.5q87 0 154.5 56t84.5 158zM400 -48l88 -115h-48l-75 115h35z" />
    <glyph glyph-name="Cacute" unicode="&#x106;" horiz-adv-x="770" 
d="M683 207h35q-43 -103 -129 -162t-207 -59q-141 0 -231 86.5t-90 239.5q0 111 43 205t130 153t201 59q124 0 204.5 -60.5t107.5 -167.5h-34q-24 93 -96.5 145t-183.5 52q-82 0 -147.5 -32.5t-106 -86.5t-62 -121t-21.5 -141q0 -140 77 -220t209 -80q109 0 185 51t116 139z
M594 876l-128 -115h-40l112 115h56z" />
    <glyph glyph-name="cacute" unicode="&#x107;" horiz-adv-x="588" 
d="M492 167h34q-32 -82 -95.5 -131t-155.5 -49q-110 0 -172 63.5t-62 176.5q0 131 76 221.5t202 90.5q96 0 153 -50.5t72 -135.5h-33q-33 155 -193 155q-114 0 -177.5 -81.5t-63.5 -200.5q0 -100 53 -154t152 -54q147 0 210 149zM458 715l-130 -119h-40l114 119h56z" />
    <glyph glyph-name="Ccircumflex" unicode="&#x108;" horiz-adv-x="770" 
d="M683 207h35q-43 -103 -129 -162t-207 -59q-141 0 -231 86.5t-90 239.5q0 111 43 205t130 153t201 59q124 0 204.5 -60.5t107.5 -167.5h-34q-24 93 -96.5 145t-183.5 52q-82 0 -147.5 -32.5t-106 -86.5t-62 -121t-21.5 -141q0 -140 77 -220t209 -80q109 0 185 51t116 139z
M461 875h34q15 -23 79 -115h-32l-67 84l-98 -84h-35q18 18 60 58t59 57z" />
    <glyph glyph-name="ccircumflex" unicode="&#x109;" horiz-adv-x="588" 
d="M492 167h34q-32 -82 -95.5 -131t-155.5 -49q-110 0 -172 63.5t-62 176.5q0 131 76 221.5t202 90.5q96 0 153 -50.5t72 -135.5h-33q-33 155 -193 155q-114 0 -177.5 -81.5t-63.5 -200.5q0 -100 53 -154t152 -54q147 0 210 149zM346 715h35l78 -119h-30l-69 88l-100 -88
h-35z" />
    <glyph glyph-name="Cdotaccent" unicode="&#x10a;" horiz-adv-x="770" 
d="M683 207h35q-43 -103 -129 -162t-207 -59q-141 0 -231 86.5t-90 239.5q0 111 43 205t130 153t201 59q124 0 204.5 -60.5t107.5 -167.5h-34q-24 93 -96.5 145t-183.5 52q-82 0 -147.5 -32.5t-106 -86.5t-62 -121t-21.5 -141q0 -140 77 -220t209 -80q109 0 185 51t116 139z
M441 769l15 80h36l-15 -80h-36z" />
    <glyph glyph-name="cdotaccent" unicode="&#x10b;" horiz-adv-x="588" 
d="M492 167h34q-32 -82 -95.5 -131t-155.5 -49q-110 0 -172 63.5t-62 176.5q0 131 76 221.5t202 90.5q96 0 153 -50.5t72 -135.5h-33q-33 155 -193 155q-114 0 -177.5 -81.5t-63.5 -200.5q0 -100 53 -154t152 -54q147 0 210 149zM322 616l15 80h36l-15 -80h-36z" />
    <glyph glyph-name="Ccaron" unicode="&#x10c;" horiz-adv-x="770" 
d="M683 207h35q-43 -103 -129 -162t-207 -59q-141 0 -231 86.5t-90 239.5q0 111 43 205t130 153t201 59q124 0 204.5 -60.5t107.5 -167.5h-34q-24 93 -96.5 145t-183.5 52q-82 0 -147.5 -32.5t-106 -86.5t-62 -121t-21.5 -141q0 -140 77 -220t209 -80q109 0 185 51t116 139z
M473 760h-34q-15 23 -79 115h32l67 -84l98 84h35q-18 -18 -60 -58t-59 -57z" />
    <glyph glyph-name="ccaron" unicode="&#x10d;" horiz-adv-x="588" 
d="M492 167h34q-32 -82 -95.5 -131t-155.5 -49q-110 0 -172 63.5t-62 176.5q0 131 76 221.5t202 90.5q96 0 153 -50.5t72 -135.5h-33q-33 155 -193 155q-114 0 -177.5 -81.5t-63.5 -200.5q0 -100 53 -154t152 -54q147 0 210 149zM359 596h-35l-78 119h30l69 -88l100 88h35z
" />
    <glyph glyph-name="Dcaron" unicode="&#x10e;" horiz-adv-x="717" 
d="M51 0l127 715h101q96 0 145 -8q250 -41 250 -288q0 -170 -88 -280q-68 -85 -162.5 -112t-242.5 -27h-130zM208 685l-116 -655h140q86 0 145 14.5t110 47.5q151 100 151 328q0 265 -309 265h-121zM419 760h-34q-15 23 -79 115h32l67 -84l98 84h35q-18 -18 -60 -58t-59 -57
z" />
    <glyph glyph-name="dcaron" unicode="&#x10f;" horiz-adv-x="641" 
d="M459 0h-33l21 98q-70 -111 -196 -111q-93 0 -151.5 62.5t-58.5 175.5q0 134 75 224t186 90q86 0 133.5 -47.5t57.5 -109.5q7 47 28 171l29 162h36zM298 508q-100 0 -160 -82t-60 -202q0 -94 46.5 -150t136.5 -56q72 0 122.5 44t72 108t21.5 139q0 90 -45.5 144.5
t-133.5 54.5zM769 715l-119 -232h-33l112 232h40z" />
    <glyph glyph-name="Dcroat" unicode="&#x110;" horiz-adv-x="718" 
d="M28 345l5 30h86l60 340h101q96 0 145 -8q250 -41 250 -288q0 -170 -88 -280q-68 -85 -162.5 -112t-242.5 -27h-130l61 345h-85zM209 685l-55 -310h164l-5 -30h-165l-55 -315h140q86 0 145 14.5t110 47.5q151 100 151 328q0 265 -309 265h-121z" />
    <glyph glyph-name="dcroat" unicode="&#x111;" horiz-adv-x="599" 
d="M428 614l5 28h104l13 73h36l-13 -73h83l-5 -28h-83l-109 -614h-33l21 98q-70 -111 -196 -111q-93 0 -151.5 62.5t-58.5 175.5q0 134 75 224t186 90q86 0 133.5 -47.5t57.5 -109.5q7 47 28 171l11 61h-104zM298 508q-100 0 -160 -82t-60 -202q0 -94 46.5 -150t136.5 -56
q72 0 122.5 44t72 108t21.5 139q0 90 -45.5 144.5t-133.5 54.5z" />
    <glyph glyph-name="Emacron" unicode="&#x112;" horiz-adv-x="598" 
d="M51 0l127 715h431l-6 -30h-395l-53 -302h371l-5 -30h-371l-57 -323h402l-6 -30h-438zM275 793l5 30h244l-5 -30h-244z" />
    <glyph glyph-name="emacron" unicode="&#x113;" horiz-adv-x="596" 
d="M546 265h-468q-2 -24 -2 -38q0 -99 54.5 -154t151.5 -55q143 0 207 132h36q-34 -76 -97 -119.5t-152 -43.5q-108 0 -171.5 64t-63.5 176q0 131 76 221.5t201 90.5q109 0 169 -67t60 -178q0 -18 -1 -29zM314 508q-95 0 -154.5 -59t-77.5 -153h430v2q0 96 -51 153t-147 57z
M213 639l5 30h244l-5 -30h-244z" />
    <glyph glyph-name="Ebreve" unicode="&#x114;" horiz-adv-x="598" 
d="M51 0l127 715h431l-6 -30h-395l-53 -302h371l-5 -30h-371l-57 -323h402l-6 -30h-438zM403 777q-51 0 -79.5 26.5t-30.5 75.5h28q9 -73 87 -73q43 0 66 19.5t37 53.5h28q-39 -102 -136 -102z" />
    <glyph glyph-name="ebreve" unicode="&#x115;" horiz-adv-x="596" 
d="M546 265h-468q-2 -24 -2 -38q0 -99 54.5 -154t151.5 -55q143 0 207 132h36q-34 -76 -97 -119.5t-152 -43.5q-108 0 -171.5 64t-63.5 176q0 131 76 221.5t201 90.5q109 0 169 -67t60 -178q0 -18 -1 -29zM314 508q-95 0 -154.5 -59t-77.5 -153h430v2q0 96 -51 153t-147 57z
M341 613q-51 0 -79 26.5t-30 75.5h28q4 -34 23 -53.5t63 -19.5q43 0 66 19t38 54h28q-39 -102 -137 -102z" />
    <glyph glyph-name="Edotaccent" unicode="&#x116;" horiz-adv-x="598" 
d="M51 0l127 715h431l-6 -30h-395l-53 -302h371l-5 -30h-371l-57 -323h402l-6 -30h-438zM375 769l15 80h36l-15 -80h-36z" />
    <glyph glyph-name="edotaccent" unicode="&#x117;" horiz-adv-x="596" 
d="M546 265h-468q-2 -24 -2 -38q0 -99 54.5 -154t151.5 -55q143 0 207 132h36q-34 -76 -97 -119.5t-152 -43.5q-108 0 -171.5 64t-63.5 176q0 131 76 221.5t201 90.5q109 0 169 -67t60 -178q0 -18 -1 -29zM314 508q-95 0 -154.5 -59t-77.5 -153h430v2q0 96 -51 153t-147 57z
M317 616l15 80h36l-15 -80h-36z" />
    <glyph glyph-name="Eogonek" unicode="&#x118;" horiz-adv-x="598" 
d="M51 0l127 715h431l-6 -30h-395l-53 -302h371l-5 -30h-371l-57 -323h402l-6 -30h-438zM268 -48l88 -115h-48l-75 115h35z" />
    <glyph glyph-name="eogonek" unicode="&#x119;" horiz-adv-x="596" 
d="M546 265h-468q-2 -24 -2 -38q0 -99 54.5 -154t151.5 -55q143 0 207 132h36q-34 -76 -97 -119.5t-152 -43.5q-108 0 -171.5 64t-63.5 176q0 131 76 221.5t201 90.5q109 0 169 -67t60 -178q0 -18 -1 -29zM314 508q-95 0 -154.5 -59t-77.5 -153h430v2q0 96 -51 153t-147 57z
M281 -48l88 -115h-48l-75 115h35z" />
    <glyph glyph-name="Ecaron" unicode="&#x11a;" horiz-adv-x="598" 
d="M51 0l127 715h431l-6 -30h-395l-53 -302h371l-5 -30h-371l-57 -323h402l-6 -30h-438zM410 760h-34q-15 23 -79 115h32l67 -84l98 84h35q-18 -18 -60 -58t-59 -57z" />
    <glyph glyph-name="ecaron" unicode="&#x11b;" horiz-adv-x="596" 
d="M546 265h-468q-2 -24 -2 -38q0 -99 54.5 -154t151.5 -55q143 0 207 132h36q-34 -76 -97 -119.5t-152 -43.5q-108 0 -171.5 64t-63.5 176q0 131 76 221.5t201 90.5q109 0 169 -67t60 -178q0 -18 -1 -29zM314 508q-95 0 -154.5 -59t-77.5 -153h430v2q0 96 -51 153t-147 57z
M360 596h-35l-78 119h30l69 -88l100 88h35z" />
    <glyph glyph-name="Gcircumflex" unicode="&#x11c;" horiz-adv-x="792" 
d="M668 142l6 31q-41 -81 -120 -134t-182 -53q-135 0 -223 84.5t-88 240.5q0 173 102.5 295.5t272.5 122.5q124 0 204 -60.5t107 -167.5h-34q-24 93 -96 145t-183 52q-82 0 -148 -32.5t-106.5 -86.5t-62 -120.5t-21.5 -138.5q0 -141 74.5 -221.5t202.5 -80.5
q131 0 216.5 83.5t105.5 193.5l4 19h-309l5 30h342l-61 -344h-35l17 91zM460 875h34q15 -23 79 -115h-32l-67 84l-98 -84h-35q18 18 60 58t59 57z" />
    <glyph glyph-name="gcircumflex" unicode="&#x11d;" horiz-adv-x="607" 
d="M231 -158q97 0 145.5 59.5t69.5 172.5l15 73h-2q-26 -54 -77.5 -87t-120.5 -33q-101 0 -157.5 62t-56.5 171q0 113 70 195.5t184 82.5q47 0 84.5 -14.5t60.5 -38t36.5 -48.5t18.5 -51l24 139h35l-77 -434q-12 -66 -29 -113.5t-46 -87t-74 -59.5t-106 -20q-96 0 -152.5 49
t-58.5 123h35q4 -57 49.5 -99t129.5 -42zM266 58q98 0 159 74.5t61 185.5q0 87 -49 138t-135 51q-101 0 -159.5 -71.5t-58.5 -175.5q0 -97 49 -149.5t133 -52.5zM319 715h35l78 -119h-30l-69 88l-100 -88h-35z" />
    <glyph glyph-name="Gbreve" unicode="&#x11e;" horiz-adv-x="792" 
d="M668 142l6 31q-41 -81 -120 -134t-182 -53q-135 0 -223 84.5t-88 240.5q0 173 102.5 295.5t272.5 122.5q124 0 204 -60.5t107 -167.5h-34q-24 93 -96 145t-183 52q-82 0 -148 -32.5t-106.5 -86.5t-62 -120.5t-21.5 -138.5q0 -141 74.5 -221.5t202.5 -80.5
q131 0 216.5 83.5t105.5 193.5l4 19h-309l5 30h342l-61 -344h-35l17 91zM462 777q-51 0 -79.5 26.5t-30.5 75.5h28q9 -73 87 -73q43 0 66 19.5t37 53.5h28q-39 -102 -136 -102z" />
    <glyph glyph-name="gbreve" unicode="&#x11f;" horiz-adv-x="607" 
d="M231 -158q97 0 145.5 59.5t69.5 172.5l15 73h-2q-26 -54 -77.5 -87t-120.5 -33q-101 0 -157.5 62t-56.5 171q0 113 70 195.5t184 82.5q47 0 84.5 -14.5t60.5 -38t36.5 -48.5t18.5 -51l24 139h35l-77 -434q-12 -66 -29 -113.5t-46 -87t-74 -59.5t-106 -20q-96 0 -152.5 49
t-58.5 123h35q4 -57 49.5 -99t129.5 -42zM266 58q98 0 159 74.5t61 185.5q0 87 -49 138t-135 51q-101 0 -159.5 -71.5t-58.5 -175.5q0 -97 49 -149.5t133 -52.5zM340 613q-51 0 -79 26.5t-30 75.5h28q4 -34 23 -53.5t63 -19.5q43 0 66 19t38 54h28q-39 -102 -137 -102z" />
    <glyph glyph-name="Gdotaccent" unicode="&#x120;" horiz-adv-x="792" 
d="M668 142l6 31q-41 -81 -120 -134t-182 -53q-135 0 -223 84.5t-88 240.5q0 173 102.5 295.5t272.5 122.5q124 0 204 -60.5t107 -167.5h-34q-24 93 -96 145t-183 52q-82 0 -148 -32.5t-106.5 -86.5t-62 -120.5t-21.5 -138.5q0 -141 74.5 -221.5t202.5 -80.5
q131 0 216.5 83.5t105.5 193.5l4 19h-309l5 30h342l-61 -344h-35l17 91zM440 769l15 80h36l-15 -80h-36z" />
    <glyph glyph-name="gdotaccent" unicode="&#x121;" horiz-adv-x="607" 
d="M231 -158q97 0 145.5 59.5t69.5 172.5l15 73h-2q-26 -54 -77.5 -87t-120.5 -33q-101 0 -157.5 62t-56.5 171q0 113 70 195.5t184 82.5q47 0 84.5 -14.5t60.5 -38t36.5 -48.5t18.5 -51l24 139h35l-77 -434q-12 -66 -29 -113.5t-46 -87t-74 -59.5t-106 -20q-96 0 -152.5 49
t-58.5 123h35q4 -57 49.5 -99t129.5 -42zM266 58q98 0 159 74.5t61 185.5q0 87 -49 138t-135 51q-101 0 -159.5 -71.5t-58.5 -175.5q0 -97 49 -149.5t133 -52.5zM312 616l15 80h36l-15 -80h-36z" />
    <glyph glyph-name="Gcommaaccent" unicode="&#x122;" horiz-adv-x="792" 
d="M668 142l6 31q-41 -81 -120 -134t-182 -53q-135 0 -223 84.5t-88 240.5q0 173 102.5 295.5t272.5 122.5q124 0 204 -60.5t107 -167.5h-34q-24 93 -96 145t-183 52q-82 0 -148 -32.5t-106.5 -86.5t-62 -120.5t-21.5 -138.5q0 -141 74.5 -221.5t202.5 -80.5
q131 0 216.5 83.5t105.5 193.5l4 19h-309l5 30h342l-61 -344h-35l17 91zM279 -163l109 115h35l-96 -115h-48z" />
    <glyph glyph-name="gcommaaccent" unicode="&#x123;" horiz-adv-x="607" 
d="M231 -158q97 0 145.5 59.5t69.5 172.5l15 73h-2q-26 -54 -77.5 -87t-120.5 -33q-101 0 -157.5 62t-56.5 171q0 113 70 195.5t184 82.5q47 0 84.5 -14.5t60.5 -38t36.5 -48.5t18.5 -51l24 139h35l-77 -434q-12 -66 -29 -113.5t-46 -87t-74 -59.5t-106 -20q-96 0 -152.5 49
t-58.5 123h35q4 -57 49.5 -99t129.5 -42zM266 58q98 0 159 74.5t61 185.5q0 87 -49 138t-135 51q-101 0 -159.5 -71.5t-58.5 -175.5q0 -97 49 -149.5t133 -52.5zM431 715l-109 -115h-35l96 115h48z" />
    <glyph glyph-name="Hcircumflex" unicode="&#x124;" horiz-adv-x="704" 
d="M635 715h36l-127 -715h-36l63 353h-421l-63 -353h-36l127 715h36l-59 -332h421zM426 875h34q15 -23 79 -115h-32l-67 84l-98 -84h-35q18 18 60 58t59 57z" />
    <glyph glyph-name="hcircumflex" unicode="&#x125;" horiz-adv-x="568" 
d="M195 715l-52 -289q26 45 74 79t118 34q74 0 118 -39t44 -112q0 -25 -7 -69l-56 -319h-36l55 311q7 42 7 72q0 63 -37.5 94t-97.5 31q-74 0 -130.5 -54.5t-68.5 -128.5l-58 -325h-36l127 715h36zM184 875h34q15 -23 79 -115h-32l-67 84l-98 -84h-35q18 18 60 58t59 57z
" />
    <glyph glyph-name="Hbar" unicode="&#x126;" horiz-adv-x="704" 
d="M635 715h36l-127 -715h-36l63 353h-421l-63 -353h-36l127 715h36l-21 -118h421zM155 383h421l32 184h-421z" />
    <glyph glyph-name="hbar" unicode="&#x127;" horiz-adv-x="568" 
d="M195 715l-13 -73h103l-5 -28h-103l-34 -188q26 45 74 79t118 34q74 0 118 -39t44 -112q0 -25 -7 -69l-56 -319h-36l55 311q7 42 7 72q0 63 -37.5 94t-97.5 31q-74 0 -130.5 -54.5t-68.5 -128.5l-58 -325h-36l109 614h-84l5 28h84l13 73h36z" />
    <glyph glyph-name="Itilde" unicode="&#x128;" horiz-adv-x="247" 
d="M178 715h36l-127 -715h-36zM211 797q-10 4 -26.5 11.5t-26.5 11t-19 3.5q-35 0 -41 -51h-29q6 82 66 82q12 0 24.5 -4t31.5 -12.5t27 -11.5q9 -3 20 -8t16 -7t12.5 -4t14.5 -2q35 0 44 52h28q-5 -39 -23.5 -60.5t-47.5 -21.5q-14 0 -71 22z" />
    <glyph glyph-name="itilde" unicode="&#x129;" horiz-adv-x="208" 
d="M125 525h36l-93 -525h-36zM160 642q-10 4 -26.5 11.5t-26.5 11t-19 3.5q-35 0 -41 -51h-29q6 82 66 82q12 0 24.5 -4t31.5 -12.5t27 -11.5q9 -3 20 -8t16 -7t12.5 -4t14.5 -2q35 0 44 52h28q-5 -39 -23.5 -60.5t-47.5 -21.5q-14 0 -71 22z" />
    <glyph glyph-name="Imacron" unicode="&#x12a;" horiz-adv-x="247" 
d="M178 715h36l-127 -715h-36zM81 793l5 30h244l-5 -30h-244z" />
    <glyph glyph-name="imacron" unicode="&#x12b;" horiz-adv-x="208" 
d="M125 525h36l-93 -525h-36zM36 639l5 30h244l-5 -30h-244z" />
    <glyph glyph-name="Ibreve" unicode="&#x12c;" horiz-adv-x="247" 
d="M178 715h36l-127 -715h-36zM212 777q-51 0 -79.5 26.5t-30.5 75.5h28q9 -73 87 -73q43 0 66 19.5t37 53.5h28q-39 -102 -136 -102z" />
    <glyph glyph-name="ibreve" unicode="&#x12d;" horiz-adv-x="208" 
d="M125 525h36l-93 -525h-36zM162 613q-51 0 -79 26.5t-30 75.5h28q4 -34 23 -53.5t63 -19.5q43 0 66 19t38 54h28q-39 -102 -137 -102z" />
    <glyph glyph-name="Iogonek" unicode="&#x12e;" horiz-adv-x="247" 
d="M178 715h36l-127 -715h-36zM76 -48l88 -115h-48l-75 115h35z" />
    <glyph glyph-name="iogonek" unicode="&#x12f;" horiz-adv-x="208" 
d="M125 525h36l-93 -525h-36zM175 604h-36l20 111h36zM58 -48l88 -115h-48l-75 115h35z" />
    <glyph glyph-name="Idotaccent" unicode="&#x130;" horiz-adv-x="247" 
d="M178 715h36l-127 -715h-36zM187 769l15 80h36l-15 -80h-36z" />
    <glyph glyph-name="dotlessi" unicode="&#x131;" horiz-adv-x="208" 
d="M125 525h36l-93 -525h-36z" />
    <glyph glyph-name="IJ" unicode="&#x132;" horiz-adv-x="692" 
d="M178 715h36l-127 -715h-36zM630 715h36l-91 -512q-10 -56 -21 -90.5t-31 -66t-52 -46t-79 -14.5q-144 0 -144 152q0 13 2 35h33q-2 -22 -2 -31q0 -58 27 -92.5t86 -34.5q66 0 96 43t49 146z" />
    <glyph glyph-name="ij" unicode="&#x133;" horiz-adv-x="416" 
d="M125 525h36l-93 -525h-36zM175 604h-36l20 111h36zM332 525h36l-105 -601q-12 -63 -40.5 -92t-86.5 -29q-9 0 -23 2l6 31q14 -2 23 -2q38 0 57.5 22.5t27.5 71.5zM382 604h-36l20 111h36z" />
    <glyph glyph-name="Jcircumflex" unicode="&#x134;" horiz-adv-x="445" 
d="M383 715h36l-91 -512q-10 -56 -21 -90.5t-31 -66t-52 -46t-79 -14.5q-144 0 -144 152q0 13 2 35h33q-2 -22 -2 -31q0 -58 27 -92.5t86 -34.5q66 0 96 43t49 146zM407 875h34q15 -23 79 -115h-32l-67 84l-98 -84h-35q18 18 60 58t59 57z" />
    <glyph glyph-name="jcircumflex" unicode="&#x135;" horiz-adv-x="208" 
d="M124 525h36l-105 -601q-12 -63 -40.5 -92t-86.5 -29q-9 0 -23 2l6 31q14 -2 23 -2q38 0 57.5 22.5t27.5 71.5zM156 715h35l78 -119h-30l-69 88l-100 -88h-35z" />
    <glyph glyph-name="Kcommaaccent" unicode="&#x136;" horiz-adv-x="573" 
d="M51 0l127 715h37l-59 -334q310 242 423 334h53l-434 -340q44 -55 156.5 -189.5t153.5 -185.5h-48q-208 245 -305 375l-67 -375h-37zM140 -163l109 115h35l-96 -115h-48z" />
    <glyph glyph-name="kcommaaccent" unicode="&#x137;" horiz-adv-x="455" 
d="M388 0h-46q-34 40 -136 170l-88 113l-50 -283h-36l127 715h36l-76 -426q52 40 117 92l181 144h51q-47 -37 -120.5 -94.5t-119.5 -93.5t-67 -54q79 -104 227 -283zM64 -163l109 115h35l-96 -115h-48z" />
    <glyph glyph-name="kgreenlandic" unicode="&#x138;" horiz-adv-x="455" 
d="M125 525h36l-42 -236q52 40 117 92l181 144h51q-47 -37 -120.5 -94.5t-119.5 -93.5t-67 -54q79 -104 227 -283h-46q-34 40 -136 170l-88 113l-50 -283h-36z" />
    <glyph glyph-name="Lacute" unicode="&#x139;" horiz-adv-x="531" 
d="M178 715h36l-121 -685h374l-6 -30h-410zM343 876l-128 -115h-40l112 115h56z" />
    <glyph glyph-name="lacute" unicode="&#x13a;" horiz-adv-x="218" 
d="M164 715h36l-127 -715h-36zM325 876l-128 -115h-40l112 115h56z" />
    <glyph glyph-name="Lcommaaccent" unicode="&#x13b;" horiz-adv-x="531" 
d="M178 715h36l-121 -685h374l-6 -30h-410zM146 -163l109 115h35l-96 -115h-48z" />
    <glyph glyph-name="lcommaaccent" unicode="&#x13c;" horiz-adv-x="218" 
d="M164 715h36l-127 -715h-36zM-63 -163l109 115h35l-96 -115h-48z" />
    <glyph glyph-name="Lcaron" unicode="&#x13d;" horiz-adv-x="531" 
d="M178 715h36l-121 -685h374l-6 -30h-410zM470 715l-119 -232h-33l112 232h40z" />
    <glyph glyph-name="lcaron" unicode="&#x13e;" horiz-adv-x="254" 
d="M164 715h36l-127 -715h-36zM382 715l-119 -232h-33l112 232h40z" />
    <glyph glyph-name="Ldot" unicode="&#x13f;" horiz-adv-x="531" 
d="M178 715h36l-121 -685h374l-6 -30h-410zM312 261l19 111h36l-19 -111h-36z" />
    <glyph glyph-name="ldot" unicode="&#x140;" horiz-adv-x="298" 
d="M164 715h36l-127 -715h-36zM236 261l19 111h36l-19 -111h-36z" />
    <glyph glyph-name="Lslash" unicode="&#x141;" horiz-adv-x="541" 
d="M188 715h36l-61 -344l195 113l-6 -35l-195 -114l-54 -305h374l-6 -30h-410l55 311l-89 -54l6 36l89 53z" />
    <glyph glyph-name="lslash" unicode="&#x142;" horiz-adv-x="227" 
d="M167 715h36l-55 -310l100 59l-6 -36l-101 -59l-65 -369h-36l61 345l-92 -54l6 36l93 55z" />
    <glyph glyph-name="Nacute" unicode="&#x143;" horiz-adv-x="707" 
d="M178 715h44l194 -439q95 -218 102 -239h2q4 20 20 118t23 134l76 426h35l-127 -715h-47l-190 429q-86 194 -104 248h-2q-8 -79 -53 -316l-64 -361h-36zM536 876l-128 -115h-40l112 115h56z" />
    <glyph glyph-name="nacute" unicode="&#x144;" horiz-adv-x="568" 
d="M32 0l78 445q11 58 14 80h37l-18 -99q26 45 74 79t118 34q74 0 118 -39t44 -112q0 -25 -7 -69l-56 -319h-36l55 311q7 42 7 72q0 63 -37.5 94t-97.5 31q-74 0 -131 -54t-69 -129l-57 -325h-36zM468 715l-130 -119h-40l114 119h56z" />
    <glyph glyph-name="Ncommaaccent" unicode="&#x145;" horiz-adv-x="707" 
d="M178 715h44l194 -439q95 -218 102 -239h2q4 20 20 118t23 134l76 426h35l-127 -715h-47l-190 429q-86 194 -104 248h-2q-8 -79 -53 -316l-64 -361h-36zM345 -47l-109 -115h-35l96 115h48z" />
    <glyph glyph-name="ncommaaccent" unicode="&#x146;" horiz-adv-x="568" 
d="M32 0l78 445q11 58 14 80h37l-18 -99q26 45 74 79t118 34q74 0 118 -39t44 -112q0 -25 -7 -69l-56 -319h-36l55 311q7 42 7 72q0 63 -37.5 94t-97.5 31q-74 0 -131 -54t-69 -129l-57 -325h-36zM267 -47l-109 -115h-35l96 115h48z" />
    <glyph glyph-name="Ncaron" unicode="&#x147;" horiz-adv-x="707" 
d="M178 715h44l194 -439q95 -218 102 -239h2q4 20 20 118t23 134l76 426h35l-127 -715h-47l-190 429q-86 194 -104 248h-2q-8 -79 -53 -316l-64 -361h-36zM445 760h-34q-15 23 -79 115h32l67 -84l98 84h35q-18 -18 -60 -58t-59 -57z" />
    <glyph glyph-name="ncaron" unicode="&#x148;" horiz-adv-x="568" 
d="M32 0l78 445q11 58 14 80h37l-18 -99q26 45 74 79t118 34q74 0 118 -39t44 -112q0 -25 -7 -69l-56 -319h-36l55 311q7 42 7 72q0 63 -37.5 94t-97.5 31q-74 0 -131 -54t-69 -129l-57 -325h-36zM350 596h-35l-78 119h30l69 -88l100 88h35z" />
    <glyph glyph-name="napostrophe" unicode="&#x149;" horiz-adv-x="609" 
d="M73 0l78 445q11 58 14 80h37l-18 -99q26 45 74 79t118 34q74 0 118 -39t44 -112q0 -25 -7 -69l-56 -319h-36l55 311q7 42 7 72q0 63 -37.5 94t-97.5 31q-74 0 -131 -54t-69 -129l-57 -325h-36zM182 715l-119 -232h-33l112 232h40z" />
    <glyph glyph-name="Eng" unicode="&#x14a;" horiz-adv-x="707" 
d="M178 715h44l194 -439q92 -212 101 -237h2q7 43 44 250l76 426h35l-123 -691q-10 -56 -21 -90.5t-31 -66t-52.5 -46t-80.5 -14.5q-75 0 -108.5 41.5t-33.5 110.5q0 13 2 35h33q-2 -22 -2 -31q0 -58 27 -92.5t86 -34.5q63 0 94.5 38.5t47.5 125.5h-12l-190 429
q-86 194 -104 248h-2q-8 -79 -53 -316l-64 -361h-36z" />
    <glyph glyph-name="eng" unicode="&#x14b;" horiz-adv-x="568" 
d="M125 325l-70 -401q-12 -63 -40.5 -92t-86.5 -29q-9 0 -23 2l6 31q14 -2 23 -2q38 0 57.5 22.5t27.5 71.5l91 517q11 58 14 80h37l-18 -99q26 45 74 79t118 34q74 0 118 -39t44 -112q0 -25 -7 -69l-56 -319h-36l55 311q7 42 7 72q0 63 -37.5 94t-97.5 31q-74 0 -131 -54
t-69 -129z" />
    <glyph glyph-name="Omacron" unicode="&#x14c;" horiz-adv-x="810" 
d="M439 729q151 0 239.5 -86t88.5 -233q0 -183 -103.5 -303.5t-279.5 -120.5q-142 0 -232 86.5t-90 239.5q0 114 43 207.5t130 151.5t204 58zM437 698q-82 0 -148 -32t-107 -85.5t-63 -121t-22 -140.5q0 -140 77 -221t210 -81q114 0 194.5 57t117 144t36.5 193
q0 132 -79.5 209.5t-215.5 77.5zM350 793l5 30h244l-5 -30h-244z" />
    <glyph glyph-name="omacron" unicode="&#x14d;" horiz-adv-x="620" 
d="M284 18q111 0 177.5 79.5t66.5 199.5q0 95 -55.5 153t-152.5 58q-114 0 -178.5 -82t-64.5 -200q0 -99 54 -153.5t153 -54.5zM279 -13q-111 0 -174.5 63.5t-63.5 173.5q0 134 76 224.5t207 90.5q111 0 175.5 -65t64.5 -174q0 -134 -78 -223.5t-207 -89.5zM229 639l5 30
h244l-5 -30h-244z" />
    <glyph glyph-name="Obreve" unicode="&#x14e;" horiz-adv-x="810" 
d="M439 729q151 0 239.5 -86t88.5 -233q0 -183 -103.5 -303.5t-279.5 -120.5q-142 0 -232 86.5t-90 239.5q0 114 43 207.5t130 151.5t204 58zM437 698q-82 0 -148 -32t-107 -85.5t-63 -121t-22 -140.5q0 -140 77 -221t210 -81q114 0 194.5 57t117 144t36.5 193
q0 132 -79.5 209.5t-215.5 77.5zM472 777q-51 0 -79.5 26.5t-30.5 75.5h28q9 -73 87 -73q43 0 66 19.5t37 53.5h28q-39 -102 -136 -102z" />
    <glyph glyph-name="obreve" unicode="&#x14f;" horiz-adv-x="620" 
d="M284 18q111 0 177.5 79.5t66.5 199.5q0 95 -55.5 153t-152.5 58q-114 0 -178.5 -82t-64.5 -200q0 -99 54 -153.5t153 -54.5zM279 -13q-111 0 -174.5 63.5t-63.5 173.5q0 134 76 224.5t207 90.5q111 0 175.5 -65t64.5 -174q0 -134 -78 -223.5t-207 -89.5zM353 613
q-51 0 -79 26.5t-30 75.5h28q4 -34 23 -53.5t63 -19.5q43 0 66 19t38 54h28q-39 -102 -137 -102z" />
    <glyph glyph-name="Ohungarumlaut" unicode="&#x150;" horiz-adv-x="810" 
d="M439 729q151 0 239.5 -86t88.5 -233q0 -183 -103.5 -303.5t-279.5 -120.5q-142 0 -232 86.5t-90 239.5q0 114 43 207.5t130 151.5t204 58zM437 698q-82 0 -148 -32t-107 -85.5t-63 -121t-22 -140.5q0 -140 77 -221t210 -81q114 0 194.5 57t117 144t36.5 193
q0 132 -79.5 209.5t-215.5 77.5zM503 876l-134 -115h-39l119 115h54zM683 876l-134 -115h-39l119 115h54z" />
    <glyph glyph-name="ohungarumlaut" unicode="&#x151;" horiz-adv-x="620" 
d="M284 18q111 0 177.5 79.5t66.5 199.5q0 95 -55.5 153t-152.5 58q-114 0 -178.5 -82t-64.5 -200q0 -99 54 -153.5t153 -54.5zM279 -13q-111 0 -174.5 63.5t-63.5 173.5q0 134 76 224.5t207 90.5q111 0 175.5 -65t64.5 -174q0 -134 -78 -223.5t-207 -89.5zM401 715
l-135 -119h-39l120 119h54zM559 715l-135 -119h-39l120 119h54z" />
    <glyph glyph-name="OE" unicode="&#x152;" horiz-adv-x="1210" 
d="M663 0l29 156q-49 -80 -129 -125t-182 -45q-140 0 -229.5 86.5t-89.5 239.5q0 176 101.5 296.5t273.5 120.5q124 0 207 -62.5t107 -169.5l39 218h431l-6 -30h-395l-53 -302h371l-5 -30h-371l-57 -323h402l-6 -30h-438zM437 698q-82 0 -148 -32t-107 -85.5t-63 -121
t-22 -140.5q0 -140 77 -221t210 -81q114 0 194.5 57t117 144t36.5 193q0 132 -79.5 209.5t-215.5 77.5z" />
    <glyph glyph-name="oe" unicode="&#x153;" horiz-adv-x="1065" 
d="M277 -13q-111 0 -173.5 63t-62.5 174q0 134 75.5 224.5t205.5 90.5q89 0 147 -44.5t77 -122.5l6 13q34 72 94 113t143 41q109 0 168 -67t59 -178q0 -18 -1 -29h-463q-2 -24 -2 -38q0 -99 53 -154t150 -55q141 0 205 132h36q-73 -163 -247 -163q-89 0 -146 43t-75 123
q-34 -78 -97.5 -122t-151.5 -44zM282 18q111 0 176.5 79.5t65.5 199.5q0 95 -54.5 153t-151.5 58q-114 0 -177.5 -81.5t-63.5 -200.5q0 -100 53 -154t152 -54zM785 508q-95 0 -153 -59t-76 -153h425v2q0 97 -50 153.5t-146 56.5z" />
    <glyph glyph-name="Racute" unicode="&#x154;" horiz-adv-x="592" 
d="M51 0l127 715h175q99 0 157 -34q71 -44 71 -135q0 -96 -60 -156.5t-163 -72.5l130 -317h-39l-127 314h-179l-56 -314h-36zM208 685l-60 -341h143q125 0 188 50q31 23 49 64t18 86q0 77 -53 109t-156 32h-129zM494 876l-128 -115h-40l112 115h56z" />
    <glyph glyph-name="racute" unicode="&#x155;" horiz-adv-x="282" 
d="M157 525l-18 -99q17 50 59.5 80.5t91.5 30.5q10 0 17 -1l-7 -35q-7 1 -18 1q-62 0 -102 -47.5t-55 -129.5l-57 -325h-36l79 446q12 74 13 79h33zM300 715l-130 -119h-40l114 119h56z" />
    <glyph glyph-name="Rcommaaccent" unicode="&#x156;" horiz-adv-x="592" 
d="M51 0l127 715h175q99 0 157 -34q71 -44 71 -135q0 -96 -60 -156.5t-163 -72.5l130 -317h-39l-127 314h-179l-56 -314h-36zM208 685l-60 -341h143q125 0 188 50q31 23 49 64t18 86q0 77 -53 109t-156 32h-129zM137 -163l109 115h35l-96 -115h-48z" />
    <glyph glyph-name="rcommaaccent" unicode="&#x157;" horiz-adv-x="282" 
d="M157 525l-18 -99q17 50 59.5 80.5t91.5 30.5q10 0 17 -1l-7 -35q-7 1 -18 1q-62 0 -102 -47.5t-55 -129.5l-57 -325h-36l79 446q12 74 13 79h33zM-41 -163l109 115h35l-96 -115h-48z" />
    <glyph glyph-name="Rcaron" unicode="&#x158;" horiz-adv-x="592" 
d="M51 0l127 715h175q99 0 157 -34q71 -44 71 -135q0 -96 -60 -156.5t-163 -72.5l130 -317h-39l-127 314h-179l-56 -314h-36zM208 685l-60 -341h143q125 0 188 50q31 23 49 64t18 86q0 77 -53 109t-156 32h-129zM382 760h-34q-15 23 -79 115h32l67 -84l98 84h35
q-18 -18 -60 -58t-59 -57z" />
    <glyph glyph-name="rcaron" unicode="&#x159;" horiz-adv-x="282" 
d="M157 525l-18 -99q17 50 59.5 80.5t91.5 30.5q10 0 17 -1l-7 -35q-7 1 -18 1q-62 0 -102 -47.5t-55 -129.5l-57 -325h-36l79 446q12 74 13 79h33zM186 596h-35l-78 119h30l69 -88l100 88h35z" />
    <glyph glyph-name="Sacute" unicode="&#x15a;" horiz-adv-x="601" 
d="M27 203h38q2 -91 63 -138.5t154 -47.5q94 0 151.5 40t57.5 123q0 59 -43 95t-120 69l-41 18q-93 40 -135.5 81.5t-42.5 111.5q0 80 58 127t164 47q112 0 177 -52t65 -147h-36q-4 86 -62 127t-146 41q-82 0 -132 -33.5t-50 -104.5q0 -56 36.5 -93.5t115.5 -71.5l49 -22
q90 -40 135.5 -80.5t45.5 -106.5q0 -94 -65 -147t-182 -53q-112 0 -181.5 54t-73.5 163zM509 876l-128 -115h-40l112 115h56z" />
    <glyph glyph-name="sacute" unicode="&#x15b;" horiz-adv-x="494" 
d="M15 159h35q4 -69 47.5 -105t121.5 -36t119 30.5t41 87.5q0 19 -8.5 35.5t-17.5 26.5t-29 21t-29.5 14.5t-31.5 12.5l-43 16q-74 29 -108 57.5t-34 83.5q0 63 48.5 99.5t129.5 36.5q91 0 142.5 -40.5t51.5 -111.5h-35q-3 60 -45 90.5t-115 30.5q-66 0 -103.5 -25.5
t-37.5 -72.5q0 -43 27.5 -67.5t97.5 -49.5l39 -15q32 -12 50 -20.5t42 -25t35.5 -40t11.5 -53.5q0 -70 -53 -111t-148 -41q-93 0 -144.5 44t-56.5 128zM444 715l-130 -119h-40l114 119h56z" />
    <glyph glyph-name="Scircumflex" unicode="&#x15c;" horiz-adv-x="601" 
d="M27 203h38q2 -91 63 -138.5t154 -47.5q94 0 151.5 40t57.5 123q0 59 -43 95t-120 69l-41 18q-93 40 -135.5 81.5t-42.5 111.5q0 80 58 127t164 47q112 0 177 -52t65 -147h-36q-4 86 -62 127t-146 41q-82 0 -132 -33.5t-50 -104.5q0 -56 36.5 -93.5t115.5 -71.5l49 -22
q90 -40 135.5 -80.5t45.5 -106.5q0 -94 -65 -147t-182 -53q-112 0 -181.5 54t-73.5 163zM367 875h34q15 -23 79 -115h-32l-67 84l-98 -84h-35q18 18 60 58t59 57z" />
    <glyph glyph-name="scircumflex" unicode="&#x15d;" horiz-adv-x="494" 
d="M15 159h35q4 -69 47.5 -105t121.5 -36t119 30.5t41 87.5q0 19 -8.5 35.5t-17.5 26.5t-29 21t-29.5 14.5t-31.5 12.5l-43 16q-74 29 -108 57.5t-34 83.5q0 63 48.5 99.5t129.5 36.5q91 0 142.5 -40.5t51.5 -111.5h-35q-3 60 -45 90.5t-115 30.5q-66 0 -103.5 -25.5
t-37.5 -72.5q0 -43 27.5 -67.5t97.5 -49.5l39 -15q32 -12 50 -20.5t42 -25t35.5 -40t11.5 -53.5q0 -70 -53 -111t-148 -41q-93 0 -144.5 44t-56.5 128zM302 715h35l78 -119h-30l-69 88l-100 -88h-35z" />
    <glyph glyph-name="Scedilla" unicode="&#x15e;" horiz-adv-x="601" 
d="M27 203h38q2 -91 63 -138.5t154 -47.5q94 0 151.5 40t57.5 123q0 59 -43 95t-120 69l-41 18q-93 40 -135.5 81.5t-42.5 111.5q0 80 58 127t164 47q112 0 177 -52t65 -147h-36q-4 86 -62 127t-146 41q-82 0 -132 -33.5t-50 -104.5q0 -56 36.5 -93.5t115.5 -71.5l49 -22
q90 -40 135.5 -80.5t45.5 -106.5q0 -94 -65 -147t-182 -53q-112 0 -181.5 54t-73.5 163zM159 -163l88 115h35l-75 -115h-48z" />
    <glyph glyph-name="scedilla" unicode="&#x15f;" horiz-adv-x="494" 
d="M15 159h35q4 -69 47.5 -105t121.5 -36t119 30.5t41 87.5q0 19 -8.5 35.5t-17.5 26.5t-29 21t-29.5 14.5t-31.5 12.5l-43 16q-74 29 -108 57.5t-34 83.5q0 63 48.5 99.5t129.5 36.5q91 0 142.5 -40.5t51.5 -111.5h-35q-3 60 -45 90.5t-115 30.5q-66 0 -103.5 -25.5
t-37.5 -72.5q0 -43 27.5 -67.5t97.5 -49.5l39 -15q32 -12 50 -20.5t42 -25t35.5 -40t11.5 -53.5q0 -70 -53 -111t-148 -41q-93 0 -144.5 44t-56.5 128zM106 -163l88 115h35l-75 -115h-48z" />
    <glyph glyph-name="Scaron" unicode="&#x160;" horiz-adv-x="601" 
d="M27 203h38q2 -91 63 -138.5t154 -47.5q94 0 151.5 40t57.5 123q0 59 -43 95t-120 69l-41 18q-93 40 -135.5 81.5t-42.5 111.5q0 80 58 127t164 47q112 0 177 -52t65 -147h-36q-4 86 -62 127t-146 41q-82 0 -132 -33.5t-50 -104.5q0 -56 36.5 -93.5t115.5 -71.5l49 -22
q90 -40 135.5 -80.5t45.5 -106.5q0 -94 -65 -147t-182 -53q-112 0 -181.5 54t-73.5 163zM389 760h-34q-15 23 -79 115h32l67 -84l98 84h35q-18 -18 -60 -58t-59 -57z" />
    <glyph glyph-name="scaron" unicode="&#x161;" horiz-adv-x="494" 
d="M15 159h35q4 -69 47.5 -105t121.5 -36t119 30.5t41 87.5q0 19 -8.5 35.5t-17.5 26.5t-29 21t-29.5 14.5t-31.5 12.5l-43 16q-74 29 -108 57.5t-34 83.5q0 63 48.5 99.5t129.5 36.5q91 0 142.5 -40.5t51.5 -111.5h-35q-3 60 -45 90.5t-115 30.5q-66 0 -103.5 -25.5
t-37.5 -72.5q0 -43 27.5 -67.5t97.5 -49.5l39 -15q32 -12 50 -20.5t42 -25t35.5 -40t11.5 -53.5q0 -70 -53 -111t-148 -41q-93 0 -144.5 44t-56.5 128zM315 596h-35l-78 119h30l69 -88l100 88h35z" />
    <glyph glyph-name="uni0162" unicode="&#x162;" horiz-adv-x="522" 
d="M187 0l121 685h-225l6 30h485l-6 -30h-224l-121 -685h-36zM94 -163l109 115h35l-96 -115h-48z" />
    <glyph glyph-name="uni0163" unicode="&#x163;" horiz-adv-x="255" 
d="M180 26l-6 -31q-14 -2 -23 -2q-89 0 -89 79q0 14 5 46l67 377h-69l5 30h69l25 142h36l-25 -142h93l-5 -30h-93l-66 -369q-5 -32 -5 -44q0 -58 58 -58q9 0 23 2zM7 -163l109 115h35l-96 -115h-48z" />
    <glyph glyph-name="Tcaron" unicode="&#x164;" horiz-adv-x="522" 
d="M187 0l121 685h-225l6 30h485l-6 -30h-224l-121 -685h-36zM358 760h-34q-15 23 -79 115h32l67 -84l98 84h35q-18 -18 -60 -58t-59 -57z" />
    <glyph glyph-name="tcaron" unicode="&#x165;" horiz-adv-x="293" 
d="M180 26l-6 -31q-14 -2 -23 -2q-89 0 -89 79q0 14 5 46l67 377h-69l5 30h69l25 142h36l-25 -142h93l-5 -30h-93l-66 -369q-5 -32 -5 -44q0 -58 58 -58q9 0 23 2zM436 715l-119 -232h-33l112 232h40z" />
    <glyph glyph-name="Tbar" unicode="&#x166;" horiz-adv-x="545" 
d="M112 352l5 30h148l53 303h-225l6 30h485l-6 -30h-224l-53 -303h160l-5 -30h-160l-63 -352h-36l63 352h-148z" />
    <glyph glyph-name="tbar" unicode="&#x167;" horiz-adv-x="258" 
d="M34 310l5 28h68l28 157h-69l5 30h69l25 142h36l-25 -142h93l-5 -30h-93l-28 -157h89l-5 -28h-89l-33 -184q-5 -32 -5 -44q0 -58 58 -58q9 0 23 2l-6 -31q-14 -2 -23 -2q-89 0 -89 79q0 14 5 46l34 192h-68z" />
    <glyph glyph-name="Utilde" unicode="&#x168;" horiz-adv-x="687" 
d="M297 -14q-109 0 -162.5 53t-53.5 143q0 39 8 84l80 449h36l-77 -430q-11 -50 -11 -95q0 -173 186 -173q63 0 107 17t71 54t42.5 82.5t27.5 113.5l76 431h36l-81 -455q-23 -138 -87 -206t-198 -68zM427 797q-10 4 -26.5 11.5t-26.5 11t-19 3.5q-35 0 -41 -51h-29
q6 82 66 82q12 0 24.5 -4t31.5 -12.5t27 -11.5q9 -3 20 -8t16 -7t12.5 -4t14.5 -2q35 0 44 52h28q-5 -39 -23.5 -60.5t-47.5 -21.5q-14 0 -71 22z" />
    <glyph glyph-name="utilde" unicode="&#x169;" horiz-adv-x="565" 
d="M517 525l-78 -445q-11 -58 -14 -80h-37l18 99q-66 -113 -190 -113q-74 0 -117.5 39t-43.5 112q0 25 7 69l56 319h36l-55 -311q-7 -42 -7 -71q0 -65 36.5 -95.5t97.5 -30.5q74 0 130 54t68 129l57 325h36zM335 642q-10 4 -26.5 11.5t-26.5 11t-19 3.5q-35 0 -41 -51h-29
q6 82 66 82q12 0 24.5 -4t31.5 -12.5t27 -11.5q9 -3 20 -8t16 -7t12.5 -4t14.5 -2q35 0 44 52h28q-5 -39 -23.5 -60.5t-47.5 -21.5q-14 0 -71 22z" />
    <glyph glyph-name="Umacron" unicode="&#x16a;" horiz-adv-x="687" 
d="M297 -14q-109 0 -162.5 53t-53.5 143q0 39 8 84l80 449h36l-77 -430q-11 -50 -11 -95q0 -173 186 -173q63 0 107 17t71 54t42.5 82.5t27.5 113.5l76 431h36l-81 -455q-23 -138 -87 -206t-198 -68zM297 793l5 30h244l-5 -30h-244z" />
    <glyph glyph-name="umacron" unicode="&#x16b;" horiz-adv-x="565" 
d="M517 525l-78 -445q-11 -58 -14 -80h-37l18 99q-66 -113 -190 -113q-74 0 -117.5 39t-43.5 112q0 25 7 69l56 319h36l-55 -311q-7 -42 -7 -71q0 -65 36.5 -95.5t97.5 -30.5q74 0 130 54t68 129l57 325h36zM210 639l5 30h244l-5 -30h-244z" />
    <glyph glyph-name="Ubreve" unicode="&#x16c;" horiz-adv-x="687" 
d="M297 -14q-109 0 -162.5 53t-53.5 143q0 39 8 84l80 449h36l-77 -430q-11 -50 -11 -95q0 -173 186 -173q63 0 107 17t71 54t42.5 82.5t27.5 113.5l76 431h36l-81 -455q-23 -138 -87 -206t-198 -68zM433 777q-51 0 -79.5 26.5t-30.5 75.5h28q9 -73 87 -73q43 0 66 19.5
t37 53.5h28q-39 -102 -136 -102z" />
    <glyph glyph-name="ubreve" unicode="&#x16d;" horiz-adv-x="565" 
d="M517 525l-78 -445q-11 -58 -14 -80h-37l18 99q-66 -113 -190 -113q-74 0 -117.5 39t-43.5 112q0 25 7 69l56 319h36l-55 -311q-7 -42 -7 -71q0 -65 36.5 -95.5t97.5 -30.5q74 0 130 54t68 129l57 325h36zM334 613q-51 0 -79 26.5t-30 75.5h28q4 -34 23 -53.5t63 -19.5
q43 0 66 19t38 54h28q-39 -102 -137 -102z" />
    <glyph glyph-name="Uring" unicode="&#x16e;" horiz-adv-x="687" 
d="M297 -14q-109 0 -162.5 53t-53.5 143q0 39 8 84l80 449h36l-77 -430q-11 -50 -11 -95q0 -173 186 -173q63 0 107 17t71 54t42.5 82.5t27.5 113.5l76 431h36l-81 -455q-23 -138 -87 -206t-198 -68zM424 751q-36 0 -60 24.5t-24 61.5q0 35 24.5 59.5t60.5 24.5t60.5 -24.5
t24.5 -59.5q0 -37 -24.5 -61.5t-61.5 -24.5zM364 837q0 -27 17 -45t43 -18q27 0 44 17.5t17 45.5q0 26 -17 43.5t-44 17.5q-26 0 -43 -17.5t-17 -43.5z" />
    <glyph glyph-name="uring" unicode="&#x16f;" horiz-adv-x="565" 
d="M517 525l-78 -445q-11 -58 -14 -80h-37l18 99q-66 -113 -190 -113q-74 0 -117.5 39t-43.5 112q0 25 7 69l56 319h36l-55 -311q-7 -42 -7 -71q0 -65 36.5 -95.5t97.5 -30.5q74 0 130 54t68 129l57 325h36zM331 591q-36 0 -60 24.5t-24 61.5q0 35 24.5 59.5t60.5 24.5
t60.5 -24.5t24.5 -59.5q0 -37 -24.5 -61.5t-61.5 -24.5zM271 677q0 -27 17 -45t43 -18q27 0 44 17.5t17 45.5q0 26 -17 43.5t-44 17.5q-26 0 -43 -17.5t-17 -43.5z" />
    <glyph glyph-name="Uhungarumlaut" unicode="&#x170;" horiz-adv-x="687" 
d="M297 -14q-109 0 -162.5 53t-53.5 143q0 39 8 84l80 449h36l-77 -430q-11 -50 -11 -95q0 -173 186 -173q63 0 107 17t71 54t42.5 82.5t27.5 113.5l76 431h36l-81 -455q-23 -138 -87 -206t-198 -68zM458 876l-134 -115h-39l119 115h54zM638 876l-134 -115h-39l119 115h54z
" />
    <glyph glyph-name="uhungarumlaut" unicode="&#x171;" horiz-adv-x="565" 
d="M517 525l-78 -445q-11 -58 -14 -80h-37l18 99q-66 -113 -190 -113q-74 0 -117.5 39t-43.5 112q0 25 7 69l56 319h36l-55 -311q-7 -42 -7 -71q0 -65 36.5 -95.5t97.5 -30.5q74 0 130 54t68 129l57 325h36zM385 715l-135 -119h-39l120 119h54zM543 715l-135 -119h-39
l120 119h54z" />
    <glyph glyph-name="Uogonek" unicode="&#x172;" horiz-adv-x="687" 
d="M297 -14q-109 0 -162.5 53t-53.5 143q0 39 8 84l80 449h36l-77 -430q-11 -50 -11 -95q0 -173 186 -173q63 0 107 17t71 54t42.5 82.5t27.5 113.5l76 431h36l-81 -455q-23 -138 -87 -206t-198 -68zM299 -48l88 -115h-48l-75 115h35z" />
    <glyph glyph-name="uogonek" unicode="&#x173;" horiz-adv-x="565" 
d="M517 525l-78 -445q-11 -58 -14 -80h-37l18 99q-66 -113 -190 -113q-74 0 -117.5 39t-43.5 112q0 25 7 69l56 319h36l-55 -311q-7 -42 -7 -71q0 -65 36.5 -95.5t97.5 -30.5q74 0 130 54t68 129l57 325h36zM247 -48l88 -115h-48l-75 115h35z" />
    <glyph glyph-name="Wcircumflex" unicode="&#x174;" horiz-adv-x="808" 
d="M834 715l-286 -715h-51l-18 397q-3 64 -6 167t-4 119h-2q-84 -218 -124 -315l-150 -368h-52l-28 715h37l16 -447q8 -224 8 -238h2q50 134 90 236l182 449h52l20 -441q8 -168 8 -238h2q14 39 46 119t47 120l173 440h38zM480 875h34q15 -23 79 -115h-32l-67 84l-98 -84h-35
q18 18 60 58t59 57z" />
    <glyph glyph-name="wcircumflex" unicode="&#x175;" horiz-adv-x="779" 
d="M193 0h-47q-5 39 -15 108t-13 91q-37 259 -46 326h38l36 -270q2 -14 13.5 -94t15.5 -125h2q15 32 31.5 67.5t39 85t40.5 88.5l116 248h48l22 -236q16 -163 24 -253h2l132 268l110 221h39q-108 -216 -164 -326l-101 -199h-49l-19 201q-26 241 -26 286h-3
q-51 -117 -132 -289zM434 715h35l78 -119h-30l-69 88l-100 -88h-35z" />
    <glyph glyph-name="Ycircumflex" unicode="&#x176;" horiz-adv-x="599" 
d="M221 0l48 272l-174 443h39q52 -146 159 -408q49 65 158.5 208t151.5 200h41l-339 -443l-48 -272h-36zM365 875h34q15 -23 79 -115h-32l-67 84l-98 -84h-35q18 18 60 58t59 57z" />
    <glyph glyph-name="ycircumflex" unicode="&#x177;" horiz-adv-x="501" 
d="M107 -180h-37l105 181q-35 178 -109 524h38q12 -60 34 -168.5t38 -189.5t23 -126h1q19 40 69.5 130.5t113 200.5t85.5 153h40q-68 -124 -401 -705zM291 715h35l78 -119h-30l-69 88l-100 -88h-35z" />
    <glyph glyph-name="Ydieresis" unicode="&#x178;" horiz-adv-x="599" 
d="M221 0l48 272l-174 443h39q52 -146 159 -408q49 65 158.5 208t151.5 200h41l-339 -443l-48 -272h-36zM289 766l15 80h36l-15 -80h-36zM408 766l15 80h36l-15 -80h-36z" />
    <glyph glyph-name="Zacute" unicode="&#x179;" horiz-adv-x="569" 
d="M-23 0l6 29q12 12 128 145l339 385q20 22 59.5 66.5t52.5 59.5h-461l6 30h503l-6 -29q-8 -10 -26.5 -31t-48 -54t-51.5 -58l-322 -366q-123 -134 -134 -147h464l-6 -30h-503zM467 876l-128 -115h-40l112 115h56z" />
    <glyph glyph-name="zacute" unicode="&#x17a;" horiz-adv-x="494" 
d="M-20 0l5 28l312 319q131 133 144 147q-18 0 -90 -0.5t-93 -0.5h-183l6 32h415l-5 -28l-304 -309l-157 -157q19 0 77 0.5t81 0.5h219l-6 -32h-421zM408 715l-130 -119h-40l114 119h56z" />
    <glyph glyph-name="Zdotaccent" unicode="&#x17b;" horiz-adv-x="569" 
d="M-23 0l6 29q12 12 128 145l339 385q20 22 59.5 66.5t52.5 59.5h-461l6 30h503l-6 -29q-8 -10 -26.5 -31t-48 -54t-51.5 -58l-322 -366q-123 -134 -134 -147h464l-6 -30h-503zM330 769l15 80h36l-15 -80h-36z" />
    <glyph glyph-name="zdotaccent" unicode="&#x17c;" horiz-adv-x="494" 
d="M-20 0l5 28l312 319q131 133 144 147q-18 0 -90 -0.5t-93 -0.5h-183l6 32h415l-5 -28l-304 -309l-157 -157q19 0 77 0.5t81 0.5h219l-6 -32h-421zM271 616l15 80h36l-15 -80h-36z" />
    <glyph glyph-name="Zcaron" unicode="&#x17d;" horiz-adv-x="569" 
d="M-23 0l6 29q12 12 128 145l339 385q20 22 59.5 66.5t52.5 59.5h-461l6 30h503l-6 -29q-8 -10 -26.5 -31t-48 -54t-51.5 -58l-322 -366q-123 -134 -134 -147h464l-6 -30h-503zM370 760h-34q-15 23 -79 115h32l67 -84l98 84h35q-18 -18 -60 -58t-59 -57z" />
    <glyph glyph-name="zcaron" unicode="&#x17e;" horiz-adv-x="494" 
d="M-20 0l5 28l312 319q131 133 144 147q-18 0 -90 -0.5t-93 -0.5h-183l6 32h415l-5 -28l-304 -309l-157 -157q19 0 77 0.5t81 0.5h219l-6 -32h-421zM312 596h-35l-78 119h30l69 -88l100 88h35z" />
    <glyph glyph-name="uni0186" unicode="&#x186;" horiz-adv-x="770" 
d="M105 508h-35q43 103 129 162t207 59q141 0 231 -86.5t90 -239.5q0 -111 -43 -205t-130 -153t-201 -59q-124 0 -204.5 60.5t-107.5 167.5h34q24 -93 96.5 -145t183.5 -52q82 0 147.5 32.5t106 86.5t62 121t21.5 141q0 140 -77 220t-209 80q-109 0 -185 -51t-116 -139z" />
    <glyph glyph-name="uni018F" unicode="&#x18f;" horiz-adv-x="787" 
d="M52 365h657q1 12 1 34q0 138 -78 218.5t-216 80.5q-204 0 -296 -190h-36q17 39 42.5 73.5t65 70t99 56.5t130.5 21q150 0 236.5 -90t86.5 -232q0 -81 -25 -155.5t-71.5 -134t-120 -95.5t-162.5 -36q-151 0 -233 93t-82 242q0 14 2 44zM704 335h-621q0 -4 -0.5 -11.5
t-0.5 -11.5q0 -135 78 -215.5t207 -80.5q147 0 232 91t105 228z" />
    <glyph glyph-name="uni0190" unicode="&#x190;" horiz-adv-x="552" 
d="M550 519h-34q-2 89 -51.5 134.5t-138.5 45.5q-90 0 -145 -53t-55 -145q0 -72 54.5 -115.5t134.5 -43.5h18l-5 -27q-62 0 -111.5 -14.5t-85.5 -54.5t-36 -102q0 -57 40.5 -92t113.5 -35q144 0 182 149h34q-13 -79 -70 -129.5t-149 -50.5q-86 0 -136 42.5t-50 109.5
q0 77 45.5 126.5t127.5 63.5v2q-65 15 -105 59.5t-40 111.5q0 102 66.5 165t173.5 63q106 0 163 -53t59 -157z" />
    <glyph glyph-name="florin" unicode="&#x192;" horiz-adv-x="367" 
d="M224 512l-5 -31h139l-5 -30h-138l-58 -396q-20 -136 -62.5 -191.5t-127.5 -55.5q-11 0 -25 2l3 31q5 -1 23 -1q72 0 103.5 49.5t48.5 163.5l59 398h-125l5 30h125l2 15q19 126 55.5 176t121.5 50q14 0 25 -1l-6 -33q-9 1 -26 1q-64 0 -90.5 -39t-41.5 -138z" />
    <glyph glyph-name="uni019D" unicode="&#x19d;" horiz-adv-x="707" 
d="M38 -72l140 787h44l194 -439q95 -218 102 -239h2l43 252l76 426h35l-127 -715h-47l-190 429q-86 194 -104 248h-2q-8 -79 -53 -316l-77 -437q-12 -63 -40.5 -92t-86.5 -29q-9 0 -23 2l6 31q14 -2 23 -2q38 0 57.5 22.5t27.5 71.5z" />
    <glyph glyph-name="uni019F" unicode="&#x19f;" horiz-adv-x="810" 
d="M439 729q151 0 239.5 -86t88.5 -233q0 -183 -103.5 -303.5t-279.5 -120.5q-142 0 -232 86.5t-90 239.5q0 114 43 207.5t130 151.5t204 58zM384 17q151 0 239.5 93.5t105.5 236.5h-632q-1 -11 -1 -28q0 -140 77 -221t211 -81zM437 698q-98 0 -172.5 -45.5t-114.5 -116.5
t-51 -159h633q0 5 0.5 16.5t0.5 17.5q0 132 -80.5 209.5t-215.5 77.5z" />
    <glyph glyph-name="Ohorn" unicode="&#x1a0;" horiz-adv-x="810" 
d="M439 729q151 0 239.5 -86t88.5 -233q0 -183 -103.5 -303.5t-279.5 -120.5q-142 0 -232 86.5t-90 239.5q0 114 43 207.5t130 151.5t204 58zM437 698q-82 0 -148 -32t-107 -85.5t-63 -121t-22 -140.5q0 -140 77 -221t210 -81q114 0 194.5 57t117 144t36.5 193
q0 132 -79.5 209.5t-215.5 77.5zM711 906l-107 -191h-28l94 191h41z" />
    <glyph glyph-name="ohorn" unicode="&#x1a1;" horiz-adv-x="620" 
d="M284 18q111 0 177.5 79.5t66.5 199.5q0 95 -55.5 153t-152.5 58q-114 0 -178.5 -82t-64.5 -200q0 -99 54 -153.5t153 -54.5zM279 -13q-111 0 -174.5 63.5t-63.5 173.5q0 134 76 224.5t207 90.5q111 0 175.5 -65t64.5 -174q0 -134 -78 -223.5t-207 -89.5zM560 715
l-107 -191h-28l94 191h41z" />
    <glyph glyph-name="Uhorn" unicode="&#x1af;" horiz-adv-x="687" 
d="M750 906l-107 -191h20l-81 -455q-23 -138 -87 -206t-198 -68q-109 0 -162.5 53t-53.5 143q0 39 8 84l80 449h36l-77 -430q-11 -50 -11 -95q0 -173 186 -173q63 0 107 17t71 54t42.5 82.5t27.5 113.5l76 431h-12l94 191h41z" />
    <glyph glyph-name="uhorn" unicode="&#x1b0;" horiz-adv-x="565" 
d="M604 715l-107 -190h20l-78 -445q-11 -58 -14 -80h-37l18 99q-66 -113 -190 -113q-74 0 -117.5 39t-43.5 112q0 25 7 69l56 319h36l-55 -311q-7 -42 -7 -71q0 -65 36.5 -95.5t97.5 -30.5q74 0 130 54t68 129l57 324h-12l94 191h41z" />
    <glyph glyph-name="uni01C4" unicode="&#x1c4;" horiz-adv-x="1286" 
d="M51 0l127 715h101q96 0 145 -8q250 -41 250 -288q0 -170 -88 -280q-68 -85 -162.5 -112t-242.5 -27h-130zM208 685l-116 -655h140q86 0 145 14.5t110 47.5q151 100 151 328q0 265 -309 265h-121zM694 0l6 29q12 12 128 145l339 385q20 22 59.5 66.5t52.5 59.5h-461l6 30
h503l-6 -29q-8 -10 -26.5 -31t-48 -54t-51.5 -58l-322 -366q-123 -134 -134 -147h464l-6 -30h-503zM1087 760h-34q-15 23 -79 115h32l67 -84l98 84h35q-18 -18 -60 -58t-59 -57z" />
    <glyph glyph-name="uni01C5" unicode="&#x1c5;" horiz-adv-x="1211" 
d="M51 0l127 715h101q96 0 145 -8q250 -41 250 -288q0 -170 -88 -280q-68 -85 -162.5 -112t-242.5 -27h-130zM208 685l-116 -655h140q86 0 145 14.5t110 47.5q151 100 151 328q0 265 -309 265h-121zM697 0l5 28l312 319q131 133 144 147q-18 0 -90 -0.5t-93 -0.5h-183l6 32
h415l-5 -28l-304 -309l-157 -157q19 0 77 0.5t81 0.5h219l-6 -32h-421zM1029 596h-35l-78 119h30l69 -88l100 88h35z" />
    <glyph glyph-name="uni01C6" unicode="&#x1c6;" horiz-adv-x="1093" 
d="M459 0h-33l21 98q-70 -111 -196 -111q-93 0 -151.5 62.5t-58.5 175.5q0 134 75 224t186 90q86 0 133.5 -47.5t57.5 -109.5q7 47 28 171l29 162h36zM298 508q-100 0 -160 -82t-60 -202q0 -94 46.5 -150t136.5 -56q72 0 122.5 44t72 108t21.5 139q0 90 -45.5 144.5
t-133.5 54.5zM579 0l5 28l312 319q131 133 144 147q-18 0 -90 -0.5t-93 -0.5h-183l6 32h415l-5 -28l-304 -309l-157 -157q19 0 77 0.5t81 0.5h219l-6 -32h-421zM911 596h-35l-78 119h30l69 -88l100 88h35z" />
    <glyph glyph-name="uni01C7" unicode="&#x1c7;" horiz-adv-x="976" 
d="M178 715h36l-121 -685h374l-6 -30h-410zM914 715h36l-91 -512q-10 -56 -21 -90.5t-31 -66t-52 -46t-79 -14.5q-144 0 -144 152q0 13 2 35h33q-2 -22 -2 -31q0 -58 27 -92.5t86 -34.5q66 0 96 43t49 146z" />
    <glyph glyph-name="uni01C8" unicode="&#x1c8;" horiz-adv-x="739" 
d="M178 715h36l-121 -685h374l-6 -30h-410zM655 525h36l-105 -601q-12 -63 -40.5 -92t-86.5 -29q-9 0 -23 2l6 31q14 -2 23 -2q38 0 57.5 22.5t27.5 71.5zM705 604h-36l20 111h36z" />
    <glyph glyph-name="uni01C9" unicode="&#x1c9;" horiz-adv-x="426" 
d="M164 715h36l-127 -715h-36zM342 525h36l-105 -601q-12 -63 -40.5 -92t-86.5 -29q-9 0 -23 2l6 31q14 -2 23 -2q38 0 57.5 22.5t27.5 71.5zM392 604h-36l20 111h36z" />
    <glyph glyph-name="uni01CA" unicode="&#x1ca;" horiz-adv-x="1152" 
d="M178 715h44l194 -439q95 -218 102 -239h2q4 20 20 118t23 134l76 426h35l-127 -715h-47l-190 429q-86 194 -104 248h-2q-8 -79 -53 -316l-64 -361h-36zM1090 715h36l-91 -512q-10 -56 -21 -90.5t-31 -66t-52 -46t-79 -14.5q-144 0 -144 152q0 13 2 35h33q-2 -22 -2 -31
q0 -58 27 -92.5t86 -34.5q66 0 96 43t49 146z" />
    <glyph glyph-name="uni01CB" unicode="&#x1cb;" horiz-adv-x="915" 
d="M178 715h44l194 -439q95 -218 102 -239h2q4 20 20 118t23 134l76 426h35l-127 -715h-47l-190 429q-86 194 -104 248h-2q-8 -79 -53 -316l-64 -361h-36zM831 525h36l-105 -601q-12 -63 -40.5 -92t-86.5 -29q-9 0 -23 2l6 31q14 -2 23 -2q38 0 57.5 22.5t27.5 71.5z
M881 604h-36l20 111h36z" />
    <glyph glyph-name="uni01CC" unicode="&#x1cc;" horiz-adv-x="776" 
d="M32 0l78 445q11 58 14 80h37l-18 -99q26 45 74 79t118 34q74 0 118 -39t44 -112q0 -25 -7 -69l-56 -319h-36l55 311q7 42 7 72q0 63 -37.5 94t-97.5 31q-74 0 -131 -54t-69 -129l-57 -325h-36zM692 525h36l-105 -601q-12 -63 -40.5 -92t-86.5 -29q-9 0 -23 2l6 31
q14 -2 23 -2q38 0 57.5 22.5t27.5 71.5zM742 604h-36l20 111h36z" />
    <glyph glyph-name="uni01F1" unicode="&#x1f1;" horiz-adv-x="1273" 
d="M51 0l127 715h101q96 0 145 -8q250 -41 250 -288q0 -170 -88 -280q-68 -85 -162.5 -112t-242.5 -27h-130zM208 685l-116 -655h140q86 0 145 14.5t110 47.5q151 100 151 328q0 265 -309 265h-121zM681 0l6 29q12 12 128 145l339 385q20 22 59.5 66.5t52.5 59.5h-461l6 30
h503l-6 -29q-8 -10 -26.5 -31t-48 -54t-51.5 -58l-322 -366q-123 -134 -134 -147h464l-6 -30h-503z" />
    <glyph glyph-name="uni01F2" unicode="&#x1f2;" horiz-adv-x="1211" 
d="M51 0l127 715h101q96 0 145 -8q250 -41 250 -288q0 -170 -88 -280q-68 -85 -162.5 -112t-242.5 -27h-130zM208 685l-116 -655h140q86 0 145 14.5t110 47.5q151 100 151 328q0 265 -309 265h-121zM697 0l5 28l312 319q131 133 144 147q-18 0 -90 -0.5t-93 -0.5h-183l6 32
h415l-5 -28l-304 -309l-157 -157q19 0 77 0.5t81 0.5h219l-6 -32h-421z" />
    <glyph glyph-name="uni01F3" unicode="&#x1f3;" horiz-adv-x="1093" 
d="M459 0h-33l21 98q-70 -111 -196 -111q-93 0 -151.5 62.5t-58.5 175.5q0 134 75 224t186 90q86 0 133.5 -47.5t57.5 -109.5q7 47 28 171l29 162h36zM298 508q-100 0 -160 -82t-60 -202q0 -94 46.5 -150t136.5 -56q72 0 122.5 44t72 108t21.5 139q0 90 -45.5 144.5
t-133.5 54.5zM579 0l5 28l312 319q131 133 144 147q-18 0 -90 -0.5t-93 -0.5h-183l6 32h415l-5 -28l-304 -309l-157 -157q19 0 77 0.5t81 0.5h219l-6 -32h-421z" />
    <glyph glyph-name="Aringacute" unicode="&#x1fa;" horiz-adv-x="659" 
d="M-25 0l412 715h36l160 -715h-36l-59 264h-324l-152 -264h-37zM399 673h-2q-29 -54 -94 -166.5t-83 -144.5l-40 -68h301l-16 77q-6 28 -31.5 137.5t-34.5 164.5zM426 757q-36 0 -60 24.5t-24 61.5q0 35 24.5 59.5t60.5 24.5t60.5 -24.5t24.5 -59.5q0 -37 -24.5 -61.5
t-61.5 -24.5zM366 843q0 -27 17 -45t43 -18q27 0 44 17.5t17 45.5q0 26 -17 43.5t-44 17.5q-26 0 -43 -17.5t-17 -43.5zM577 1076l-130 -119h-40l114 119h56z" />
    <glyph glyph-name="aringacute" unicode="&#x1fb;" horiz-adv-x="542" 
d="M113 368h-35q13 74 68.5 122.5t145.5 48.5q80 0 129.5 -39.5t49.5 -119.5q0 -32 -6 -66q-4 -26 -14.5 -80t-22.5 -125t-10 -109h-35q0 38 16 120h-1q-29 -58 -90.5 -94.5t-138.5 -36.5q-72 0 -111.5 34t-39.5 94q0 37 16.5 65.5t40 45.5t61.5 30t68 19t72 12q19 3 78 8.5
t76 7.5q8 40 8 72q0 69 -43 100t-109 31q-142 0 -173 -140zM417 234q5 29 9 42q-159 -18 -169 -20q-30 -5 -43.5 -7.5t-43.5 -10t-45.5 -16.5t-35 -23t-28 -34.5t-8.5 -45.5q0 -46 32.5 -72.5t92.5 -26.5q87 0 154.5 56t84.5 158zM333 577q-36 0 -60 24.5t-24 61.5
q0 35 24.5 59.5t60.5 24.5t60.5 -24.5t24.5 -59.5q0 -37 -24.5 -61.5t-61.5 -24.5zM273 663q0 -27 17 -45t43 -18q27 0 44 17.5t17 45.5q0 26 -17 43.5t-44 17.5q-26 0 -43 -17.5t-17 -43.5zM478 902l-130 -119h-40l114 119h56z" />
    <glyph glyph-name="AEacute" unicode="&#x1fc;" horiz-adv-x="874" 
d="M886 715l-6 -30h-379l-46 -302h348l-5 -30h-348l-50 -324h372l-6 -29h-406l39 240h-243l-172 -240h-40l517 715h425zM404 270l29 185q7 41 18 113.5t17 106.5h-4q-46 -75 -126 -182l-160 -223h226zM768 876l-128 -115h-40l112 115h56z" />
    <glyph glyph-name="aeacute" unicode="&#x1fd;" horiz-adv-x="969" 
d="M919 265h-463q-2 -24 -2 -38q0 -99 53 -154t150 -55q141 0 205 132h36q-73 -163 -247 -163q-92 0 -149.5 46t-74.5 131h-1q-26 -74 -94 -124.5t-163 -50.5q-72 0 -111.5 34t-39.5 94q0 97 106 138q19 7 39.5 13t45 10t42.5 6.5t48 5t43.5 3t46 2.5t40.5 2q9 51 9 80
q0 69 -43.5 100.5t-108.5 31.5q-142 0 -173 -141h-35q13 74 68.5 122.5t145.5 48.5q73 0 120 -33t55 -99q74 132 226 132q109 0 168 -67t59 -178q0 -18 -1 -29zM689 508q-95 0 -153 -59t-76 -153h425v2q0 97 -50 153.5t-146 56.5zM417 234q3 15 8 34q-11 -1 -58.5 -3.5
t-75.5 -4.5t-69.5 -9.5t-71.5 -18.5q-97 -36 -97 -113q0 -46 32.5 -72.5t92.5 -26.5q87 0 154.5 56t84.5 158zM643 715l-130 -119h-40l114 119h56z" />
    <glyph glyph-name="Oslashacute" unicode="&#x1fe;" horiz-adv-x="810" 
d="M439 729q126 0 213 -64l75 90l23 -19l-75 -90q92 -86 92 -236q0 -183 -103.5 -303.5t-279.5 -120.5q-124 0 -206 63l-76 -92l-23 18l77 93q-94 88 -94 244q0 114 43 207.5t130 151.5t204 58zM437 698q-82 0 -148 -32t-107 -85.5t-63 -121t-22 -140.5q0 -144 81 -225
l452 545q-74 59 -193 59zM732 411q0 129 -79 208l-454 -545q73 -57 185 -57q114 0 194.5 57t117 144t36.5 193zM596 876l-128 -115h-40l112 115h56z" />
    <glyph glyph-name="oslashacute" unicode="&#x1ff;" horiz-adv-x="620" 
d="M478 715l-130 -119h-40l114 119h56zM279 -13q-83 0 -141 36l-60 -73l-24 20l59 72q-72 63 -72 182q0 134 76 224.5t207 90.5q96 0 158 -50l66 80l24 -20l-67 -82q59 -62 59 -167q0 -134 -78 -223.5t-207 -89.5zM77 226q0 -103 58 -158l324 394q-56 46 -139 46
q-114 0 -178.5 -82t-64.5 -200zM284 18q111 0 177.5 79.5t66.5 199.5q0 87 -46 143l-322 -391q49 -31 124 -31z" />
    <glyph glyph-name="uni0218" unicode="&#x218;" horiz-adv-x="601" 
d="M27 203h38q2 -91 63 -138.5t154 -47.5q94 0 151.5 40t57.5 123q0 59 -43 95t-120 69l-41 18q-93 40 -135.5 81.5t-42.5 111.5q0 80 58 127t164 47q112 0 177 -52t65 -147h-36q-4 86 -62 127t-146 41q-82 0 -132 -33.5t-50 -104.5q0 -56 36.5 -93.5t115.5 -71.5l49 -22
q90 -40 135.5 -80.5t45.5 -106.5q0 -94 -65 -147t-182 -53q-112 0 -181.5 54t-73.5 163zM149 -163l109 115h35l-96 -115h-48z" />
    <glyph glyph-name="uni0219" unicode="&#x219;" horiz-adv-x="494" 
d="M15 159h35q4 -69 47.5 -105t121.5 -36t119 30.5t41 87.5q0 19 -8.5 35.5t-17.5 26.5t-29 21t-29.5 14.5t-31.5 12.5l-43 16q-74 29 -108 57.5t-34 83.5q0 63 48.5 99.5t129.5 36.5q91 0 142.5 -40.5t51.5 -111.5h-35q-3 60 -45 90.5t-115 30.5q-66 0 -103.5 -25.5
t-37.5 -72.5q0 -43 27.5 -67.5t97.5 -49.5l39 -15q32 -12 50 -20.5t42 -25t35.5 -40t11.5 -53.5q0 -70 -53 -111t-148 -41q-93 0 -144.5 44t-56.5 128zM91 -163l109 115h35l-96 -115h-48z" />
    <glyph glyph-name="uni021A" unicode="&#x21a;" horiz-adv-x="522" 
d="M187 0l121 685h-225l6 30h485l-6 -30h-224l-121 -685h-36zM94 -163l109 115h35l-96 -115h-48z" />
    <glyph glyph-name="uni021B" unicode="&#x21b;" horiz-adv-x="255" 
d="M180 26l-6 -31q-14 -2 -23 -2q-89 0 -89 79q0 14 5 46l67 377h-69l5 30h69l25 142h36l-25 -142h93l-5 -30h-93l-66 -369q-5 -32 -5 -44q0 -58 58 -58q9 0 23 2zM7 -163l109 115h35l-96 -115h-48z" />
    <glyph glyph-name="uni021D" unicode="&#x21d;" horiz-adv-x="529" 
d="M-14 8h34q2 -89 51.5 -134.5t138.5 -45.5q90 0 145 53t55 145q0 72 -54.5 115.5t-134.5 43.5h-18l5 27q62 0 111.5 14.5t85.5 54.5t36 102q0 57 -40.5 92t-113.5 35q-144 0 -182 -149h-34q13 79 70 129.5t149 50.5q86 0 136 -42.5t50 -109.5q0 -77 -45.5 -126.5
t-127.5 -63.5v-2q65 -15 105 -59.5t40 -111.5q0 -102 -66.5 -165t-173.5 -63q-106 0 -163 53t-59 157z" />
    <glyph glyph-name="uni0226" unicode="&#x226;" horiz-adv-x="659" 
d="M-25 0l412 715h36l160 -715h-36l-59 264h-324l-152 -264h-37zM399 673h-2q-29 -54 -94 -166.5t-83 -144.5l-40 -68h301l-16 77q-6 28 -31.5 137.5t-34.5 164.5zM395 769l15 80h36l-15 -80h-36z" />
    <glyph glyph-name="uni0227" unicode="&#x227;" horiz-adv-x="542" 
d="M113 368h-35q13 74 68.5 122.5t145.5 48.5q80 0 129.5 -39.5t49.5 -119.5q0 -32 -6 -66q-4 -26 -14.5 -80t-22.5 -125t-10 -109h-35q0 38 16 120h-1q-29 -58 -90.5 -94.5t-138.5 -36.5q-72 0 -111.5 34t-39.5 94q0 37 16.5 65.5t40 45.5t61.5 30t68 19t72 12q19 3 78 8.5
t76 7.5q8 40 8 72q0 69 -43 100t-109 31q-142 0 -173 -140zM417 234q5 29 9 42q-159 -18 -169 -20q-30 -5 -43.5 -7.5t-43.5 -10t-45.5 -16.5t-35 -23t-28 -34.5t-8.5 -45.5q0 -46 32.5 -72.5t92.5 -26.5q87 0 154.5 56t84.5 158zM292 616l15 80h36l-15 -80h-36z" />
    <glyph glyph-name="uni0232" unicode="&#x232;" horiz-adv-x="599" 
d="M221 0l48 272l-174 443h39q52 -146 159 -408q49 65 158.5 208t151.5 200h41l-339 -443l-48 -272h-36zM254 793l5 30h244l-5 -30h-244z" />
    <glyph glyph-name="uni0233" unicode="&#x233;" horiz-adv-x="501" 
d="M107 -180h-37l105 181q-35 178 -109 524h38q12 -60 34 -168.5t38 -189.5t23 -126h1q19 40 69.5 130.5t113 200.5t85.5 153h40q-68 -124 -401 -705zM176 639l5 30h244l-5 -30h-244z" />
    <glyph glyph-name="dotlessj" unicode="&#x237;" horiz-adv-x="208" 
d="M124 525h36l-105 -601q-12 -63 -40.5 -92t-86.5 -29q-9 0 -23 2l6 31q14 -2 23 -2q38 0 57.5 22.5t27.5 71.5z" />
    <glyph glyph-name="uni0254" unicode="&#x254;" horiz-adv-x="588" 
d="M81 359h-34q32 82 95.5 131t155.5 49q110 0 172 -63.5t62 -176.5q0 -131 -76 -221.5t-202 -90.5q-96 0 -153 50.5t-72 135.5h33q33 -155 193 -155q114 0 177.5 81.5t63.5 200.5q0 100 -53 154t-152 54q-147 0 -210 -149z" />
    <glyph glyph-name="uni0259" unicode="&#x259;" horiz-adv-x="595" 
d="M34 260h468q2 24 2 38q0 99 -54.5 154t-151.5 55q-143 0 -207 -132h-36q34 76 97 119.5t152 43.5q108 0 171.5 -64t63.5 -176q0 -131 -76 -221.5t-201 -90.5q-109 0 -169 67t-60 178q0 18 1 29zM266 17q95 0 154.5 59t77.5 153h-430v-2q0 -96 51 -153t147 -57z" />
    <glyph glyph-name="uni025B" unicode="&#x25b;" horiz-adv-x="542" 
d="M510 330h-34q-2 89 -51.5 134.5t-138.5 45.5q-90 0 -145 -53t-55 -145q0 -72 54.5 -115.5t134.5 -43.5h18l-5 -27q-62 0 -111.5 -14.5t-85.5 -54.5t-36 -102q0 -57 40.5 -92t113.5 -35q144 0 182 149h34q-13 -79 -70 -129.5t-149 -50.5q-86 0 -136 42.5t-50 109.5
q0 77 45.5 126.5t127.5 63.5v2q-65 15 -105 59.5t-40 111.5q0 102 66.5 165t173.5 63q106 0 163 -53t59 -157z" />
    <glyph glyph-name="uni0272" unicode="&#x272;" horiz-adv-x="568" 
d="M19 -72l91 517q11 58 14 80h37l-18 -99q26 45 74 79t118 34q74 0 118 -39t44 -112q0 -25 -7 -69l-56 -319h-36l55 311q7 42 7 72q0 63 -37.5 94t-97.5 31q-74 0 -131 -54t-69 -129l-70 -401q-12 -64 -40.5 -92.5t-86.5 -28.5q-9 0 -23 2l6 31q14 -2 23 -2q38 0 57.5 22.5
t27.5 71.5z" />
    <glyph glyph-name="uni0275" unicode="&#x275;" horiz-adv-x="620" 
d="M279 -13q-111 0 -174.5 63.5t-63.5 173.5q0 134 76 224.5t207 90.5q111 0 175.5 -65t64.5 -174q0 -134 -78 -223.5t-207 -89.5zM284 18q100 0 165 65.5t77 168.5h-449q-1 -9 -1 -26q0 -99 54 -153.5t154 -54.5zM320 508q-100 0 -162.5 -63.5t-77.5 -162.5h449v15
q0 95 -55.5 153t-153.5 58z" />
    <glyph glyph-name="apostrophemod" unicode="&#x2bc;" horiz-adv-x="134" 
d="M178 715l-119 -232h-33l112 232h40z" />
    <glyph glyph-name="circumflex" unicode="&#x2c6;" horiz-adv-x="503" 
d="M250 715h35l78 -119h-30l-69 88l-100 -88h-35z" />
    <glyph glyph-name="caron" unicode="&#x2c7;" horiz-adv-x="502" 
d="M262 596h-35l-78 119h30l69 -88l100 88h35z" />
    <glyph glyph-name="breve" unicode="&#x2d8;" horiz-adv-x="465" 
d="M233 613q-51 0 -79 26.5t-30 75.5h28q4 -34 23 -53.5t63 -19.5q43 0 66 19t38 54h28q-39 -102 -137 -102z" />
    <glyph glyph-name="dotaccent" unicode="&#x2d9;" horiz-adv-x="328" 
d="M138 616l15 80h36l-15 -80h-36z" />
    <glyph glyph-name="ring" unicode="&#x2da;" horiz-adv-x="405" 
d="M240 591q-36 0 -60 24.5t-24 61.5q0 35 24.5 59.5t60.5 24.5t60.5 -24.5t24.5 -59.5q0 -37 -24.5 -61.5t-61.5 -24.5zM180 677q0 -27 17 -45t43 -18q27 0 44 17.5t17 45.5q0 26 -17 43.5t-44 17.5q-26 0 -43 -17.5t-17 -43.5z" />
    <glyph glyph-name="ogonek" unicode="&#x2db;" horiz-adv-x="331" 
d="M138 -48l88 -115h-48l-75 115h35z" />
    <glyph glyph-name="tilde" unicode="&#x2dc;" horiz-adv-x="317" 
d="M158 642q-10 4 -26.5 11.5t-26.5 11t-19 3.5q-35 0 -41 -51h-29q6 82 66 82q12 0 24.5 -4t31.5 -12.5t27 -11.5q9 -3 20 -8t16 -7t12.5 -4t14.5 -2q35 0 44 52h28q-5 -39 -23.5 -60.5t-47.5 -21.5q-14 0 -71 22z" />
    <glyph glyph-name="hungarumlaut" unicode="&#x2dd;" horiz-adv-x="612" 
d="M346 715l-135 -119h-39l120 119h54zM504 715l-135 -119h-39l120 119h54z" />
    <glyph glyph-name="uni032C" unicode="&#x32c;" horiz-adv-x="503" 
d="M185 -48h35l78 -119h-30l-69 88l-100 -88h-35z" />
    <glyph glyph-name="uni0394" unicode="&#x394;" horiz-adv-x="665" 
d="M290 715h39l300 -715h-641zM308 680l-273 -650h547z" />
    <glyph glyph-name="uni03A9" unicode="&#x3a9;" horiz-adv-x="829" 
d="M410 729q159 0 251.5 -100.5t92.5 -242.5q0 -119 -57.5 -209t-153.5 -149q21 0 32 1q9 0 31.5 0.5t34.5 0.5h115v-30h-255v28q99 63 158 154t59 204q0 131 -81 221t-227 90t-227 -90t-81 -221q0 -113 59 -204t158 -154v-28h-255v30h115q12 0 34.5 -0.5t31.5 -0.5
q11 -1 32 -1q-96 59 -153.5 149t-57.5 209q0 142 92.5 242.5t251.5 100.5z" />
    <glyph glyph-name="uni03BC" unicode="&#x3bc;" horiz-adv-x="571" 
d="M36 -180h-36l125 705h36l-55 -309q-7 -44 -7 -65q0 -134 132 -134q77 0 131.5 54t67.5 129l58 325h36l-79 -445q-6 -31 -13 -80h-37l19 101q-62 -115 -188 -115q-115 0 -145 87z" />
    <glyph glyph-name="pi" unicode="&#x3c0;" horiz-adv-x="586" 
d="M588 495h-103l-66 -369q-5 -32 -5 -44q0 -58 58 -58q9 0 23 2l-6 -31q-14 -2 -23 -2q-89 0 -89 79q0 14 5 46l67 377h-264l-87 -495h-36l87 495h-108l5 30h547z" />
    <glyph glyph-name="Wgrave" unicode="&#x1e80;" horiz-adv-x="808" 
d="M834 715l-286 -715h-51l-18 397q-3 64 -6 167t-4 119h-2q-84 -218 -124 -315l-150 -368h-52l-28 715h37l16 -447q8 -224 8 -238h2q50 134 90 236l182 449h52l20 -441q8 -168 8 -238h2q14 39 46 119t47 120l173 440h38zM464 761l-128 115h56l112 -115h-40z" />
    <glyph glyph-name="wgrave" unicode="&#x1e81;" horiz-adv-x="779" 
d="M193 0h-47q-5 39 -15 108t-13 91q-37 259 -46 326h38l36 -270q2 -14 13.5 -94t15.5 -125h2q15 32 31.5 67.5t39 85t40.5 88.5l116 248h48l22 -236q16 -163 24 -253h2l132 268l110 221h39q-108 -216 -164 -326l-101 -199h-49l-19 201q-26 241 -26 286h-3
q-51 -117 -132 -289zM426 596l-130 119h56l114 -119h-40z" />
    <glyph glyph-name="Wacute" unicode="&#x1e82;" horiz-adv-x="808" 
d="M834 715l-286 -715h-51l-18 397q-3 64 -6 167t-4 119h-2q-84 -218 -124 -315l-150 -368h-52l-28 715h37l16 -447q8 -224 8 -238h2q50 134 90 236l182 449h52l20 -441q8 -168 8 -238h2q14 39 46 119t47 120l173 440h38zM608 876l-128 -115h-40l112 115h56z" />
    <glyph glyph-name="wacute" unicode="&#x1e83;" horiz-adv-x="779" 
d="M193 0h-47q-5 39 -15 108t-13 91q-37 259 -46 326h38l36 -270q2 -14 13.5 -94t15.5 -125h2q15 32 31.5 67.5t39 85t40.5 88.5l116 248h48l22 -236q16 -163 24 -253h2l132 268l110 221h39q-108 -216 -164 -326l-101 -199h-49l-19 201q-26 241 -26 286h-3
q-51 -117 -132 -289zM557 715l-130 -119h-40l114 119h56z" />
    <glyph glyph-name="Wdieresis" unicode="&#x1e84;" horiz-adv-x="808" 
d="M834 715l-286 -715h-51l-18 397q-3 64 -6 167t-4 119h-2q-84 -218 -124 -315l-150 -368h-52l-28 715h37l16 -447q8 -224 8 -238h2q50 134 90 236l182 449h52l20 -441q8 -168 8 -238h2q14 39 46 119t47 120l173 440h38zM404 766l15 80h36l-15 -80h-36zM523 766l15 80h36
l-15 -80h-36z" />
    <glyph glyph-name="wdieresis" unicode="&#x1e85;" horiz-adv-x="779" 
d="M193 0h-47q-5 39 -15 108t-13 91q-37 259 -46 326h38l36 -270q2 -14 13.5 -94t15.5 -125h2q15 32 31.5 67.5t39 85t40.5 88.5l116 248h48l22 -236q16 -163 24 -253h2l132 268l110 221h39q-108 -216 -164 -326l-101 -199h-49l-19 201q-26 241 -26 286h-3
q-51 -117 -132 -289zM362 616l15 80h36l-15 -80h-36zM481 616l15 80h36l-15 -80h-36z" />
    <glyph glyph-name="uni1EA0" unicode="&#x1ea0;" horiz-adv-x="659" 
d="M-25 0l412 715h36l160 -715h-36l-59 264h-324l-152 -264h-37zM399 673h-2q-29 -54 -94 -166.5t-83 -144.5l-40 -68h301l-16 77q-6 28 -31.5 137.5t-34.5 164.5zM247 -145l15 80h36l-15 -80h-36z" />
    <glyph glyph-name="uni1EA1" unicode="&#x1ea1;" horiz-adv-x="542" 
d="M113 368h-35q13 74 68.5 122.5t145.5 48.5q80 0 129.5 -39.5t49.5 -119.5q0 -32 -6 -66q-4 -26 -14.5 -80t-22.5 -125t-10 -109h-35q0 38 16 120h-1q-29 -58 -90.5 -94.5t-138.5 -36.5q-72 0 -111.5 34t-39.5 94q0 37 16.5 65.5t40 45.5t61.5 30t68 19t72 12q19 3 78 8.5
t76 7.5q8 40 8 72q0 69 -43 100t-109 31q-142 0 -173 -140zM417 234q5 29 9 42q-159 -18 -169 -20q-30 -5 -43.5 -7.5t-43.5 -10t-45.5 -16.5t-35 -23t-28 -34.5t-8.5 -45.5q0 -46 32.5 -72.5t92.5 -26.5q87 0 154.5 56t84.5 158zM173 -145l15 80h36l-15 -80h-36z" />
    <glyph glyph-name="uni1EB8" unicode="&#x1eb8;" horiz-adv-x="598" 
d="M51 0l127 715h431l-6 -30h-395l-53 -302h371l-5 -30h-371l-57 -323h402l-6 -30h-438zM241 -145l15 80h36l-15 -80h-36z" />
    <glyph glyph-name="uni1EB9" unicode="&#x1eb9;" horiz-adv-x="596" 
d="M546 265h-468q-2 -24 -2 -38q0 -99 54.5 -154t151.5 -55q143 0 207 132h36q-34 -76 -97 -119.5t-152 -43.5q-108 0 -171.5 64t-63.5 176q0 131 76 221.5t201 90.5q109 0 169 -67t60 -178q0 -18 -1 -29zM314 508q-95 0 -154.5 -59t-77.5 -153h430v2q0 96 -51 153t-147 57z
M227 -145l15 80h36l-15 -80h-36z" />
    <glyph glyph-name="uni1ECA" unicode="&#x1eca;" horiz-adv-x="247" 
d="M178 715h36l-127 -715h-36zM25 -145l15 80h36l-15 -80h-36z" />
    <glyph glyph-name="uni1ECB" unicode="&#x1ecb;" horiz-adv-x="208" 
d="M125 525h36l-93 -525h-36zM175 604h-36l20 111h36zM10 -145l15 80h36l-15 -80h-36z" />
    <glyph glyph-name="uni1ECC" unicode="&#x1ecc;" horiz-adv-x="810" 
d="M439 729q151 0 239.5 -86t88.5 -233q0 -183 -103.5 -303.5t-279.5 -120.5q-142 0 -232 86.5t-90 239.5q0 114 43 207.5t130 151.5t204 58zM437 698q-82 0 -148 -32t-107 -85.5t-63 -121t-22 -140.5q0 -140 77 -221t210 -81q114 0 194.5 57t117 144t36.5 193
q0 132 -79.5 209.5t-215.5 77.5zM326 -145l15 80h36l-15 -80h-36z" />
    <glyph glyph-name="uni1ECD" unicode="&#x1ecd;" horiz-adv-x="620" 
d="M284 18q111 0 177.5 79.5t66.5 199.5q0 95 -55.5 153t-152.5 58q-114 0 -178.5 -82t-64.5 -200q0 -99 54 -153.5t153 -54.5zM279 -13q-111 0 -174.5 63.5t-63.5 173.5q0 134 76 224.5t207 90.5q111 0 175.5 -65t64.5 -174q0 -134 -78 -223.5t-207 -89.5zM223 -145l15 80
h36l-15 -80h-36z" />
    <glyph glyph-name="uni1EE4" unicode="&#x1ee4;" horiz-adv-x="687" 
d="M297 -14q-109 0 -162.5 53t-53.5 143q0 39 8 84l80 449h36l-77 -430q-11 -50 -11 -95q0 -173 186 -173q63 0 107 17t71 54t42.5 82.5t27.5 113.5l76 431h36l-81 -455q-23 -138 -87 -206t-198 -68zM248 -145l15 80h36l-15 -80h-36z" />
    <glyph glyph-name="uni1EE5" unicode="&#x1ee5;" horiz-adv-x="565" 
d="M517 525l-78 -445q-11 -58 -14 -80h-37l18 99q-66 -113 -190 -113q-74 0 -117.5 39t-43.5 112q0 25 7 69l56 319h36l-55 -311q-7 -42 -7 -71q0 -65 36.5 -95.5t97.5 -30.5q74 0 130 54t68 129l57 325h36zM187 -145l15 80h36l-15 -80h-36z" />
    <glyph glyph-name="Ygrave" unicode="&#x1ef2;" horiz-adv-x="599" 
d="M221 0l48 272l-174 443h39q52 -146 159 -408q49 65 158.5 208t151.5 200h41l-339 -443l-48 -272h-36zM368 761l-128 115h56l112 -115h-40z" />
    <glyph glyph-name="ygrave" unicode="&#x1ef3;" horiz-adv-x="501" 
d="M107 -180h-37l105 181q-35 178 -109 524h38q12 -60 34 -168.5t38 -189.5t23 -126h1q19 40 69.5 130.5t113 200.5t85.5 153h40q-68 -124 -401 -705zM293 596l-130 119h56l114 -119h-40z" />
    <glyph glyph-name="enspace" unicode="&#x2002;" horiz-adv-x="500" 
 />
    <glyph glyph-name="emspace" unicode="&#x2003;" horiz-adv-x="1000" 
 />
    <glyph glyph-name="threeperemspace" unicode="&#x2004;" horiz-adv-x="0" 
 />
    <glyph glyph-name="fourperemspace" unicode="&#x2005;" horiz-adv-x="250" 
 />
    <glyph glyph-name="thinspace" unicode="&#x2009;" horiz-adv-x="133" 
 />
    <glyph glyph-name="hairspace" unicode="&#x200a;" horiz-adv-x="75" 
 />
    <glyph glyph-name="endash" unicode="&#x2013;" horiz-adv-x="613" 
d="M65 288l5 32h476l-5 -32h-476z" />
    <glyph glyph-name="emdash" unicode="&#x2014;" horiz-adv-x="978" 
d="M65 288l5 32h841l-5 -32h-841z" />
    <glyph glyph-name="quoteleft" unicode="&#x2018;" horiz-adv-x="226" 
d="M95 483l119 232h33l-112 -232h-40z" />
    <glyph glyph-name="quoteright" unicode="&#x2019;" horiz-adv-x="225" 
d="M248 715l-119 -232h-33l112 232h40z" />
    <glyph glyph-name="quotesinglbase" unicode="&#x201a;" horiz-adv-x="223" 
d="M111 111l-119 -232h-33l112 232h40z" />
    <glyph glyph-name="quotedblleft" unicode="&#x201c;" horiz-adv-x="378" 
d="M247 483l119 232h33l-112 -232h-40zM95 483l119 232h33l-112 -232h-40z" />
    <glyph glyph-name="quotedblright" unicode="&#x201d;" horiz-adv-x="377" 
d="M248 715l-119 -232h-33l112 232h40zM400 715l-119 -232h-33l112 232h40z" />
    <glyph glyph-name="quotedblbase" unicode="&#x201e;" horiz-adv-x="375" 
d="M111 111l-119 -232h-33l112 232h40zM263 111l-119 -232h-33l112 232h40z" />
    <glyph glyph-name="dagger" unicode="&#x2020;" horiz-adv-x="509" 
d="M69 484l6 34h196l35 197h36l-35 -197h200l-6 -34h-200l-98 -553h-36l98 553h-196z" />
    <glyph glyph-name="daggerdbl" unicode="&#x2021;" horiz-adv-x="551" 
d="M45 228l6 34h196l39 222h-196l6 34h196l35 197h36l-35 -197h200l-6 -34h-200l-39 -222h200l-6 -34h-200l-53 -297h-36l53 297h-196z" />
    <glyph glyph-name="bullet" unicode="&#x2022;" horiz-adv-x="372" 
d="M190 246q-38 0 -63.5 25t-25.5 63q0 37 25.5 62t63.5 25q37 0 62.5 -25t25.5 -62q0 -38 -25.5 -63t-62.5 -25z" />
    <glyph glyph-name="ellipsis" unicode="&#x2026;" horiz-adv-x="854" 
d="M354 0l19 111h36l-19 -111h-36zM22 0l19 111h36l-19 -111h-36zM691 0l19 111h36l-19 -111h-36z" />
    <glyph glyph-name="perthousand" unicode="&#x2030;" horiz-adv-x="1295" 
d="M231 0l402 715h27l-402 -715h-27zM218 355q54 0 90 38.5t48.5 86.5t12.5 101q0 56 -29 89t-84 33q-42 0 -73 -22t-47.5 -57.5t-24.5 -72.5t-8 -75q0 -55 29.5 -88t85.5 -33zM214 332q-66 0 -102.5 37.5t-36.5 105.5q0 42 9 82.5t28.5 80t57.5 63.5t88 24
q66 0 102.5 -37.5t36.5 -105.5q0 -42 -9 -82.5t-28.5 -80t-57.5 -63.5t-88 -24zM638 6q54 0 90 38.5t48.5 86.5t12.5 101q0 56 -29 89t-84 33q-42 0 -73 -22t-47.5 -57.5t-24.5 -72.5t-8 -75q0 -55 29.5 -88t85.5 -33zM634 -17q-66 0 -102.5 37.5t-36.5 105.5q0 42 9 82.5
t28.5 80t57.5 63.5t88 24q66 0 102.5 -37.5t36.5 -105.5q0 -42 -9 -82.5t-28.5 -80t-57.5 -63.5t-88 -24zM1058 6q54 0 90 38.5t48.5 86.5t12.5 101q0 56 -29 89t-84 33q-42 0 -73 -22t-47.5 -57.5t-24.5 -72.5t-8 -75q0 -55 29.5 -88t85.5 -33zM1054 -17q-66 0 -102.5 37.5
t-36.5 105.5q0 42 9 82.5t28.5 80t57.5 63.5t88 24q66 0 102.5 -37.5t36.5 -105.5q0 -42 -9 -82.5t-28.5 -80t-57.5 -63.5t-88 -24z" />
    <glyph glyph-name="guilsinglleft" unicode="&#x2039;" horiz-adv-x="277" 
d="M239 473l-140 -185l70 -190h-34l-76 190l143 185h37z" />
    <glyph glyph-name="guilsinglright" unicode="&#x203a;" horiz-adv-x="276" 
d="M30 98l140 185l-70 190h34l76 -190l-143 -185h-37z" />
    <glyph glyph-name="fraction" unicode="&#x2044;" horiz-adv-x="299" 
d="M-56 -105l375 820h36l-376 -820h-35z" />
    <glyph glyph-name="Euro" unicode="&#x20ac;" 
d="M33 421l13 29h56q68 279 274 279q191 0 191 -218v-12h-33v12q0 187 -162 187q-76 0 -134 -51q-60 -55 -101 -197h306l-13 -29h-301q-16 -61 -22 -123h273l-13 -29h-263q-3 -37 -3 -69q0 -183 163 -183q85 0 136 52.5t83 142.5h34q-76 -226 -254 -226q-100 0 -147 52.5
t-48 157.5q0 32 3 73h-69l12 29h60q1 8 3.5 27t4.5 28q7 41 13 68h-62z" />
    <glyph glyph-name="trademark" unicode="&#x2122;" horiz-adv-x="865" 
d="M628 300h-38q-5 41 -23.5 181.5t-25.5 204.5h-3q-5 -33 -21.5 -127.5t-20.5 -120.5l-24 -138h-28l73 415h47q38 -266 49 -387q7 16 85 174t103 213h46l-73 -415h-28l37 210q11 73 33 178h-3q-8 -18 -185 -388zM399 715l-4 -25h-120l-69 -390h-29l69 390h-121l4 25h270z
" />
    <glyph glyph-name="Omega" unicode="&#x2126;" horiz-adv-x="829" 
d="M410 729q159 0 251.5 -100.5t92.5 -242.5q0 -119 -57.5 -209t-153.5 -149q21 0 32 1q9 0 31.5 0.5t34.5 0.5h115v-30h-255v28q99 63 158 154t59 204q0 131 -81 221t-227 90t-227 -90t-81 -221q0 -113 59 -204t158 -154v-28h-255v30h115q12 0 34.5 -0.5t31.5 -0.5
q11 -1 32 -1q-96 59 -153.5 149t-57.5 209q0 142 92.5 242.5t251.5 100.5z" />
    <glyph glyph-name="onethird" unicode="&#x2153;" horiz-adv-x="776" 
d="M417 122h24q4 -107 111 -107q54 0 86 30.5t32 84.5q0 43 -31.5 68.5t-79.5 25.5h-12l3 20q58 0 98.5 24t40.5 76q0 33 -23.5 53.5t-66.5 20.5q-45 0 -70 -23t-37 -67h-24q9 50 43 81t89 31q53 0 83.5 -26t30.5 -67q0 -94 -97 -114q80 -22 80 -103q0 -62 -39.5 -99.5
t-105.5 -37.5q-64 0 -99 33t-36 96zM126 0l402 715h27l-402 -715h-27zM198 628h-105l3 16q57 2 86.5 18.5t40.5 52.5h16l-75 -424h-25z" />
    <glyph glyph-name="twothirds" unicode="&#x2154;" horiz-adv-x="887" 
d="M533 122h24q4 -107 111 -107q54 0 86 30.5t32 84.5q0 43 -31.5 68.5t-79.5 25.5h-12l3 20q58 0 98.5 24t40.5 76q0 33 -23.5 53.5t-66.5 20.5q-45 0 -70 -23t-37 -67h-24q9 50 43 81t89 31q53 0 83.5 -26t30.5 -67q0 -94 -97 -114q80 -22 80 -103q0 -62 -39.5 -99.5
t-105.5 -37.5q-64 0 -99 33t-36 96zM242 0l402 715h27l-402 -715h-27zM330 289h-279l3 22q72 50 153 115q43 35 59 48.5t42 41t35.5 51.5t9.5 52q0 44 -26.5 66t-73.5 22q-98 0 -117 -113h-25q9 62 45 99t99 37q58 0 91 -28t33 -81q0 -58 -39 -105t-115 -106
q-54 -42 -138 -97h247z" />
    <glyph glyph-name="oneeighth" unicode="&#x215b;" horiz-adv-x="786" 
d="M414 109q0 50 30.5 83.5t85.5 45.5q-59 25 -59 92q0 45 35 78t97 33q56 0 88 -27.5t32 -73.5q0 -41 -25 -70t-62 -38q73 -28 73 -102q0 -61 -43 -98.5t-113 -37.5q-61 0 -100 30t-39 85zM602 419q-47 0 -76.5 -23t-29.5 -65q0 -40 24 -64t68 -24q47 0 78.5 26.5
t31.5 69.5q0 36 -27 58t-69 22zM571 224q-55 0 -93 -30.5t-38 -82.5q0 -46 32 -70.5t83 -24.5q60 0 94 31t34 85q0 44 -30.5 68t-81.5 24zM126 0l402 715h27l-402 -715h-27zM198 628h-105l3 16q57 2 86.5 18.5t40.5 52.5h16l-75 -424h-25z" />
    <glyph glyph-name="threeeighths" unicode="&#x215c;" horiz-adv-x="889" 
d="M61 409h24q4 -107 111 -107q54 0 86 30.5t32 84.5q0 43 -31.5 68.5t-79.5 25.5h-12l3 20q58 0 98.5 24t40.5 76q0 33 -23.5 53.5t-66.5 20.5q-45 0 -70 -23t-37 -67h-24q9 50 43 81t89 31q53 0 83.5 -26t30.5 -67q0 -94 -97 -114q80 -22 80 -103q0 -62 -39.5 -99.5
t-105.5 -37.5q-64 0 -99 33t-36 96zM521 109q0 50 30.5 83.5t85.5 45.5q-59 25 -59 92q0 45 35 78t97 33q56 0 88 -27.5t32 -73.5q0 -41 -25 -70t-62 -38q73 -28 73 -102q0 -61 -43 -98.5t-113 -37.5q-61 0 -100 30t-39 85zM709 419q-47 0 -76.5 -23t-29.5 -65q0 -40 24 -64
t68 -24q47 0 78.5 26.5t31.5 69.5q0 36 -27 58t-69 22zM678 224q-55 0 -93 -30.5t-38 -82.5q0 -46 32 -70.5t83 -24.5q60 0 94 31t34 85q0 44 -30.5 68t-81.5 24zM233 0l402 715h27l-402 -715h-27z" />
    <glyph glyph-name="fiveeighths" unicode="&#x215d;" horiz-adv-x="883" 
d="M515 109q0 50 30.5 83.5t85.5 45.5q-59 25 -59 92q0 45 35 78t97 33q56 0 88 -27.5t32 -73.5q0 -41 -25 -70t-62 -38q73 -28 73 -102q0 -61 -43 -98.5t-113 -37.5q-61 0 -100 30t-39 85zM703 419q-47 0 -76.5 -23t-29.5 -65q0 -40 24 -64t68 -24q47 0 78.5 26.5
t31.5 69.5q0 36 -27 58t-69 22zM672 224q-55 0 -93 -30.5t-38 -82.5q0 -46 32 -70.5t83 -24.5q60 0 94 31t34 85q0 44 -30.5 68t-81.5 24zM227 0l402 715h27l-402 -715h-27zM85 486l65 227h213l-3 -24h-194q-29 -112 -49 -175q37 41 99 41q54 0 89 -34t35 -92
q0 -66 -41.5 -110.5t-108.5 -44.5q-60 0 -96 33.5t-38 89.5h24q2 -43 31.5 -72t79.5 -29q55 0 89.5 35t34.5 95q0 49 -28 78t-75 29q-60 0 -100 -51z" />
    <glyph glyph-name="seveneighths" unicode="&#x215e;" horiz-adv-x="862" 
d="M489 109q0 50 30.5 83.5t85.5 45.5q-59 25 -59 92q0 45 35 78t97 33q56 0 88 -27.5t32 -73.5q0 -41 -25 -70t-62 -38q73 -28 73 -102q0 -61 -43 -98.5t-113 -37.5q-61 0 -100 30t-39 85zM677 419q-47 0 -76.5 -23t-29.5 -65q0 -40 24 -64t68 -24q47 0 78.5 26.5
t31.5 69.5q0 36 -27 58t-69 22zM646 224q-55 0 -93 -30.5t-38 -82.5q0 -46 32 -70.5t83 -24.5q60 0 94 31t34 85q0 44 -30.5 68t-81.5 24zM201 0l402 715h27l-402 -715h-27zM114 268h-30q48 82 138 219q35 54 137 204h-36h-219l6 24h280l-4 -20l-21 -33q-31 -48 -84.5 -130
t-93.5 -144t-73 -120z" />
    <glyph glyph-name="arrowleft" unicode="&#x2190;" horiz-adv-x="820" 
d="M783 309h-708q9 -9 70.5 -72.5t101.5 -103.5l129 -133h-44q-31 32 -147.5 155t-161.5 170q49 49 172 180t137 145h44q-69 -74 -129 -135q-161 -166 -172 -176h708v-30z" />
    <glyph glyph-name="arrowup" unicode="&#x2191;" horiz-adv-x="720" 
d="M705 440v-42l-132 125q-151 145 -176 172v-695h-36v695q-83 -83 -176 -172q-80 -76 -130 -125v42q28 27 152.5 144t172.5 165q50 -51 185 -177.5t140 -131.5z" />
    <glyph glyph-name="arrowright" unicode="&#x2192;" horiz-adv-x="820" 
d="M751 309h-708v30h708q-50 45 -172 176q-60 61 -129 135h44q5 -5 131.5 -140t177.5 -185q-48 -48 -165 -172.5t-144 -152.5h-44l129 133q89 93 172 176z" />
    <glyph glyph-name="arrowdown" unicode="&#x2193;" horiz-adv-x="720" 
d="M683 317v-42q-14 -14 -145 -137t-180 -172q-47 45 -170 161.5t-155 147.5v42q50 -49 130 -125q93 -89 176 -172v695h36v-695q24 27 176 172z" />
    <glyph glyph-name="uni2196" unicode="&#x2196;" horiz-adv-x="750" 
d="M630 3l-499 500q0 -13 -1 -101.5t-1 -144.5l-2 -185l-31 31q2 54 4.5 223t3.5 226q58 1 226.5 3t222.5 4l31 -31l-186 -2q-56 0 -145 -0.5t-102 -0.5l501 -501z" />
    <glyph glyph-name="uni2197" unicode="&#x2197;" horiz-adv-x="750" 
d="M585 503l-499 -500l-22 21l501 501q-13 0 -101.5 0.5t-145.5 0.5l-186 2l31 31q54 -2 222.5 -4t226.5 -3q1 -57 3.5 -226t4.5 -223l-31 -31l-2 185q0 56 -1 144.5t-1 101.5z" />
    <glyph glyph-name="uni2198" unicode="&#x2198;" horiz-adv-x="750" 
d="M89 551l499 -500q0 13 1 101t1 145l2 185l31 -31q-2 -54 -4.5 -223t-3.5 -226q-59 -1 -227.5 -2t-221.5 -3l-31 31h186q57 0 145.5 0.5t101.5 0.5l-501 501z" />
    <glyph glyph-name="uni2199" unicode="&#x2199;" horiz-adv-x="750" 
d="M170 51l499 500l22 -21l-501 -501q13 0 102 -0.5t145 -0.5h186l-31 -31q-53 2 -221.5 3t-227.5 2q-1 57 -3.5 226t-4.5 223l31 31l2 -185q0 -57 1 -145t1 -101z" />
    <glyph glyph-name="partialdiff" unicode="&#x2202;" horiz-adv-x="623" 
d="M280 715h58q100 -59 164.5 -165t64.5 -222q0 -68 -17 -128t-51 -108.5t-90.5 -76.5t-130.5 -28q-103 0 -170 60t-67 177q0 146 82 230.5t195 84.5q83 0 136 -37.5t78 -93.5l3 2q-34 104 -95.5 178t-159.5 127zM284 18q111 0 179 79.5t68 199.5q0 95 -57 153t-154 58
q-114 0 -178.5 -82t-64.5 -200q0 -99 54 -153.5t153 -54.5z" />
    <glyph glyph-name="Delta" unicode="&#x2206;" horiz-adv-x="733" 
d="M314 715h39l300 -715h-641zM332 680l-273 -650h547z" />
    <glyph glyph-name="product" unicode="&#x220f;" horiz-adv-x="860" 
d="M850 715v-30h-139v-798h-36v798h-400v-798h-36v798h-139v30h750z" />
    <glyph glyph-name="summation" unicode="&#x2211;" horiz-adv-x="758" 
d="M97 -87l317 394l-313 380v28h533v-30h-490l311 -377l-318 -391h508v-30h-548v26z" />
    <glyph glyph-name="minus" unicode="&#x2212;" 
d="M60 305v32h442v-32h-442z" />
    <glyph glyph-name="uni2219" unicode="&#x2219;" horiz-adv-x="185" 
d="M66 261l19 111h36l-19 -111h-36z" />
    <glyph glyph-name="radical" unicode="&#x221a;" 
d="M44 496v29h131l90 -256q59 -162 79 -225h2q9 32 34 113t37 124l131 434h38l-221 -715h-37q-46 118 -181 496h-103z" />
    <glyph glyph-name="infinity" unicode="&#x221e;" horiz-adv-x="867" 
d="M220 501q18 0 35 -4t35.5 -14.5t30.5 -17.5t32.5 -25.5t28.5 -26t31 -31t28 -28.5q5 5 26.5 28.5t29.5 31t27.5 26t31.5 25.5l30 17.5t35.5 14.5t35.5 4q69 0 110 -44.5t41 -121.5q0 -70 -40 -119t-112 -49q-49 0 -92.5 30.5t-102.5 94.5l-21 22q-84 -84 -112 -105
q-56 -42 -111 -42q-71 0 -111 47.5t-40 120.5q0 75 43.5 120.5t110.5 45.5zM219 196q18 0 35.5 5.5t29.5 11t33 22.5t29.5 25.5t36.5 35.5t38 37l-20 20q-45 45 -68 65.5t-54.5 37.5t-61.5 17q-54 0 -86 -39.5t-32 -97.5q0 -63 31 -101.5t89 -38.5zM657 196q56 0 87 39
t31 101q0 58 -32 97.5t-86 39.5q-20 0 -38 -5.5t-38 -20.5t-31 -24t-34.5 -32t-29.5 -29l-27 -26q15 -15 44 -44.5t41.5 -41t33.5 -27.5t39.5 -21.5t39.5 -5.5z" />
    <glyph glyph-name="integral" unicode="&#x222b;" 
d="M331 512l-67 -457q-20 -136 -62.5 -191.5t-127.5 -55.5q-11 0 -25 2l3 31q5 -1 23 -1q72 0 103.5 49.5t48.5 163.5l66 443q19 126 55.5 176t121.5 50q14 0 25 -1l-6 -33q-9 1 -26 1q-64 0 -90.5 -39t-41.5 -138z" />
    <glyph glyph-name="approxequal" unicode="&#x2248;" 
d="M297 392l-63 30q-52 24 -79 24q-53 0 -98 -74l-23 18q51 87 124 87q35 0 99 -30l68 -32q44 -23 75 -23q56 0 99 73l24 -15q-50 -88 -126 -88q-36 0 -100 30zM295 142l-63 30q-52 24 -79 24q-53 0 -98 -74l-23 18q51 87 124 87q35 0 99 -30l68 -32q44 -23 75 -23
q56 0 99 73l24 -15q-50 -88 -126 -88q-36 0 -100 30z" />
    <glyph glyph-name="notequal" unicode="&#x2260;" 
d="M57 399v32h259l63 129h35l-63 -129h148v-32h-163l-74 -152h237v-32h-252l-65 -135h-35l65 135h-155v32h170l74 152h-244z" />
    <glyph glyph-name="lessequal" unicode="&#x2264;" 
d="M65 0v32h396v-32h-396zM65 319v49q78 41 224.5 119.5t171.5 92.5v-38q-55 -27 -209.5 -109.5t-162.5 -86.5v-3q8 -4 162.5 -87.5t209.5 -110.5v-38q-25 14 -171.5 92.5t-224.5 119.5z" />
    <glyph glyph-name="greaterequal" unicode="&#x2265;" 
d="M474 32v-32h-396v32h396zM474 368v-49q-78 -41 -224.5 -119.5t-171.5 -92.5v38q52 27 206.5 109.5t165.5 88.5v3q-8 4 -163 86t-209 110v38q25 -14 171.5 -92.5t224.5 -119.5z" />
    <glyph glyph-name="dotmath" unicode="&#x22c5;" horiz-adv-x="185" 
d="M66 261l19 111h36l-19 -111h-36z" />
    <glyph glyph-name="lozenge" unicode="&#x25ca;" 
d="M302 0h-30l-233 356l233 359h30l236 -359zM497 356l-208 324l-209 -324l209 -320z" />
    <glyph glyph-name="commaaccent" unicode="&#xf6c3;" horiz-adv-x="369" 
d="M152 -163l109 115h35l-96 -115h-48z" />
    <glyph glyph-name="uniF8FF" unicode="&#xf8ff;" horiz-adv-x="275" 
d="M129 276q-38 0 -63.5 25t-25.5 63q0 37 25.5 62t63.5 25q37 0 62.5 -25t25.5 -62q0 -38 -25.5 -63t-62.5 -25z" />
    <glyph glyph-name="acute.caps" horiz-adv-x="427" 
d="M334 876l-128 -115h-40l112 115h56z" />
    <glyph glyph-name="grave.caps" horiz-adv-x="512" 
d="M299 761l-128 115h56l112 -115h-40z" />
    <glyph glyph-name="circumflex.caps" horiz-adv-x="503" 
d="M245 875h34q15 -23 79 -115h-32l-67 84l-98 -84h-35q18 18 60 58t59 57z" />
    <glyph glyph-name="caron.caps" horiz-adv-x="502" 
d="M260 760h-34q-15 23 -79 115h32l67 -84l98 84h35q-18 -18 -60 -58t-59 -57z" />
    <glyph glyph-name="tilde.caps" horiz-adv-x="470" 
d="M249 797q-10 4 -26.5 11.5t-26.5 11t-19 3.5q-35 0 -41 -51h-29q6 82 66 82q12 0 24.5 -4t31.5 -12.5t27 -11.5q9 -3 20 -8t16 -7t12.5 -4t14.5 -2q35 0 44 52h28q-5 -39 -23.5 -60.5t-47.5 -21.5q-14 0 -71 22z" />
    <glyph glyph-name="macron.caps" horiz-adv-x="428" 
d="M120 793l5 30h244l-5 -30h-244z" />
    <glyph glyph-name="breve.caps" horiz-adv-x="465" 
d="M245 777q-51 0 -79.5 26.5t-30.5 75.5h28q9 -73 87 -73q43 0 66 19.5t37 53.5h28q-39 -102 -136 -102z" />
    <glyph glyph-name="dotaccent.caps" horiz-adv-x="328" 
d="M137 769l15 80h36l-15 -80h-36z" />
    <glyph glyph-name="ring.caps" horiz-adv-x="405" 
d="M246 751q-36 0 -60 24.5t-24 61.5q0 35 24.5 59.5t60.5 24.5t60.5 -24.5t24.5 -59.5q0 -37 -24.5 -61.5t-61.5 -24.5zM186 837q0 -27 17 -45t43 -18q27 0 44 17.5t17 45.5q0 26 -17 43.5t-44 17.5q-26 0 -43 -17.5t-17 -43.5z" />
    <glyph glyph-name="cedilla.caps" horiz-adv-x="369" 
d="M163 -163l88 115h35l-75 -115h-48z" />
    <glyph glyph-name="ogonek.caps" horiz-adv-x="331" 
d="M138 -48l88 -115h-48l-75 115h35z" />
    <glyph glyph-name="hungarumlaut.caps" horiz-adv-x="612" 
d="M344 876l-134 -115h-39l119 115h54zM524 876l-134 -115h-39l119 115h54z" />
    <glyph glyph-name="dieresis.caps" horiz-adv-x="491" 
d="M176 766l15 80h36l-15 -80h-36zM295 766l15 80h36l-15 -80h-36z" />
    <glyph glyph-name="horn" horiz-adv-x="264" 
d="M193 715l-107 -191h-28l94 191h41z" />
    <glyph glyph-name="zero.plf" horiz-adv-x="603" 
d="M256 17q79 0 129 47q65 58 101.5 183.5t36.5 243.5q0 179 -163 179q-81 0 -132 -49q-63 -57 -98 -187.5t-35 -241.5q0 -175 161 -175zM541 343q-13 -75 -33 -133.5t-52.5 -112t-83.5 -82.5t-117 -29q-190 0 -192 202q0 67 14 151q11 60 24 108t36 97t53 82t74.5 54
t99.5 21q92 0 141.5 -52.5t49.5 -156.5q0 -76 -14 -149z" />
    <glyph glyph-name="one.plf" horiz-adv-x="366" 
d="M166 0l96 543h-186l4 24h45q88 0 122 22t52 94l1 4h21l-121 -687h-34z" />
    <glyph glyph-name="two.plf" horiz-adv-x="552" 
d="M445 0h-443l5 28q105 72 245 185q8 7 38 29.5t42 32.5t38 33t38.5 37.5t31.5 38.5t27.5 44t15.5 46t7 52q0 71 -44 107.5t-121 36.5q-85 0 -132 -48t-60 -131h-34q12 96 71 153t159 57q88 0 142.5 -44.5t54.5 -126.5q0 -49 -15.5 -91.5t-57 -88t-68 -69t-94.5 -77.5
q-8 -7 -12 -10q-119 -93 -225 -162h397z" />
    <glyph glyph-name="three.plf" horiz-adv-x="555" 
d="M32 188h32q2 -85 50 -128.5t132 -43.5q88 0 140 50t52 140q0 69 -51.5 111t-129.5 42h-16l3 25q94 0 159.5 39t65.5 126q0 54 -39 87.5t-109 33.5q-140 0 -175 -143h-33q13 77 67.5 125.5t143.5 48.5q83 0 130.5 -40.5t47.5 -105.5q0 -73 -44 -121.5t-121 -62.5v-2
q61 -13 100 -56t39 -107q0 -99 -63.5 -159.5t-168.5 -60.5q-102 0 -156 51.5t-56 150.5z" />
    <glyph glyph-name="four.plf" horiz-adv-x="559" 
d="M506 205l-6 -31h-112l-30 -174h-33l30 174h-346l5 27l287 322q22 26 76.5 85t70.5 79h31l-85 -482h112zM438 636h-2q-7 -11 -75 -90.5t-117 -129.5l-58 -62q-19 -21 -81 -92l-50 -57h306l26 151q47 264 51 280z" />
    <glyph glyph-name="five.plf" horiz-adv-x="544" 
d="M75 327l102 360h338l-6 -33h-311l-88 -303q24 34 68 57t104 23q84 0 139 -52.5t55 -145.5q0 -105 -64 -176t-172 -71q-95 0 -152.5 51.5t-61.5 139.5h31q2 -68 52.5 -114.5t132.5 -46.5q88 0 144 57.5t56 154.5q0 80 -45.5 128t-122.5 48q-97 0 -163 -83z" />
    <glyph glyph-name="six.plf" horiz-adv-x="581" 
d="M547 511h-29q-11 161 -162 161q-202 0 -256 -354l-2 -14h3q20 54 74.5 91t125.5 37q92 0 149 -50.5t57 -147.5q0 -102 -64 -175t-173 -73q-97 0 -153.5 55t-56.5 167q0 53 14 134q33 191 104.5 275t183.5 84q94 0 139.5 -54.5t45.5 -135.5zM295 405q-86 0 -144 -61.5
t-58 -152.5q0 -84 49.5 -130t130.5 -46q91 0 146 63t55 158q0 80 -47.5 124.5t-131.5 44.5z" />
    <glyph glyph-name="seven.plf" horiz-adv-x="490" 
d="M110 0h-39q39 67 211 337q186 279 213 318v1q-19 -1 -53 -1h-345l6 32h430l-6 -31l-31 -49q-46 -72 -129.5 -200t-144.5 -224t-112 -183z" />
    <glyph glyph-name="eight.plf" horiz-adv-x="582" 
d="M232 375q-106 40 -106 149q0 72 56 124.5t155 52.5q86 0 138 -44.5t52 -114.5q0 -69 -45 -116.5t-107 -57.5q55 -16 92 -56t37 -109q0 -96 -68.5 -156.5t-178.5 -60.5q-99 0 -160 48.5t-61 134.5q0 81 51.5 135t144.5 71zM335 670q-77 0 -125.5 -38t-48.5 -105
t39.5 -106.5t111.5 -39.5q77 0 128.5 44t51.5 115q0 58 -44 94t-113 36zM285 358q-90 0 -152 -50.5t-62 -135.5q0 -73 53 -114.5t135 -41.5q99 0 154 50t55 141q0 70 -50 110.5t-133 40.5z" />
    <glyph glyph-name="nine.plf" horiz-adv-x="582" 
d="M48 176h29q11 -161 162 -161q202 0 256 354l2 14h-3q-20 -54 -74.5 -91t-125.5 -37q-92 0 -149 50.5t-57 147.5q0 102 64 175t173 73q97 0 153.5 -55t56.5 -167q0 -53 -14 -134q-33 -191 -104.5 -275t-183.5 -84q-94 0 -139.5 54.5t-45.5 135.5zM300 282q86 0 144 61.5
t58 152.5q0 84 -49.5 130t-130.5 46q-91 0 -146 -63t-55 -158q0 -80 47.5 -124.5t131.5 -44.5z" />
    <glyph glyph-name="Gtilde" horiz-adv-x="792" 
d="M668 142l6 31q-41 -81 -120 -134t-182 -53q-135 0 -223 84.5t-88 240.5q0 173 102.5 295.5t272.5 122.5q124 0 204 -60.5t107 -167.5h-34q-24 93 -96 145t-183 52q-82 0 -148 -32.5t-106.5 -86.5t-62 -120.5t-21.5 -138.5q0 -141 74.5 -221.5t202.5 -80.5
q131 0 216.5 83.5t105.5 193.5l4 19h-309l5 30h342l-61 -344h-35l17 91zM471 797q-10 4 -26.5 11.5t-26.5 11t-19 3.5q-35 0 -41 -51h-29q6 82 66 82q12 0 24.5 -4t31.5 -12.5t27 -11.5q9 -3 20 -8t16 -7t12.5 -4t14.5 -2q35 0 44 52h28q-5 -39 -23.5 -60.5t-47.5 -21.5
q-14 0 -71 22z" />
    <glyph glyph-name="gtilde" horiz-adv-x="607" 
d="M231 -158q97 0 145.5 59.5t69.5 172.5l15 73h-2q-26 -54 -77.5 -87t-120.5 -33q-101 0 -157.5 62t-56.5 171q0 113 70 195.5t184 82.5q47 0 84.5 -14.5t60.5 -38t36.5 -48.5t18.5 -51l24 139h35l-77 -434q-12 -66 -29 -113.5t-46 -87t-74 -59.5t-106 -20q-96 0 -152.5 49
t-58.5 123h35q4 -57 49.5 -99t129.5 -42zM266 58q98 0 159 74.5t61 185.5q0 87 -49 138t-135 51q-101 0 -159.5 -71.5t-58.5 -175.5q0 -97 49 -149.5t133 -52.5zM339 642q-10 4 -26.5 11.5t-26.5 11t-19 3.5q-35 0 -41 -51h-29q6 82 66 82q12 0 24.5 -4t31.5 -12.5t27 -11.5
q9 -3 20 -8t16 -7t12.5 -4t14.5 -2q35 0 44 52h28q-5 -39 -23.5 -60.5t-47.5 -21.5q-14 0 -71 22z" />
    <glyph glyph-name="Mcircumflex" horiz-adv-x="797" 
d="M51 0l127 715h54l74 -425q19 -103 38 -252h1q18 37 70 133.5t68 125.5l225 418h56l-127 -715h-34l64 362q4 24 17.5 100.5t25 139.5t17.5 89h-1q-30 -70 -168 -321l-203 -370h-37l-78 470q-28 159 -34 216h-1q-16 -117 -49 -285l-71 -401h-34zM465 875h34q15 -23 79 -115
h-32l-67 84l-98 -84h-35q18 18 60 58t59 57z" />
    <glyph glyph-name="mcircumflex" horiz-adv-x="926" 
d="M32 0l78 445q11 58 14 80h37l-18 -99q66 113 190 113q66 0 108 -31.5t50 -91.5h1q28 47 79.5 85t125.5 38q72 0 115 -39t43 -112q0 -25 -7 -69l-56 -319h-36l55 311q7 42 7 72q0 63 -36.5 94t-96.5 31q-74 0 -130 -54t-68 -129l-57 -325h-36l55 311q7 42 7 72
q0 63 -36.5 94t-96.5 31q-74 0 -130 -54t-68 -129l-57 -325h-36zM512 715h35l78 -119h-30l-69 88l-100 -88h-35z" />
    <glyph glyph-name="Mmacron" horiz-adv-x="797" 
d="M51 0l127 715h54l74 -425q19 -103 38 -252h1q18 37 70 133.5t68 125.5l225 418h56l-127 -715h-34l64 362q4 24 17.5 100.5t25 139.5t17.5 89h-1q-30 -70 -168 -321l-203 -370h-37l-78 470q-28 159 -34 216h-1q-16 -117 -49 -285l-71 -401h-34zM349 793l5 30h244l-5 -30
h-244z" />
    <glyph glyph-name="mmacron" horiz-adv-x="926" 
d="M32 0l78 445q11 58 14 80h37l-18 -99q66 113 190 113q66 0 108 -31.5t50 -91.5h1q28 47 79.5 85t125.5 38q72 0 115 -39t43 -112q0 -25 -7 -69l-56 -319h-36l55 311q7 42 7 72q0 63 -36.5 94t-96.5 31q-74 0 -130 -54t-68 -129l-57 -325h-36l55 311q7 42 7 72
q0 63 -36.5 94t-96.5 31q-74 0 -130 -54t-68 -129l-57 -325h-36zM395 639l5 30h244l-5 -30h-244z" />
    <glyph glyph-name="Ncircumflex" horiz-adv-x="707" 
d="M178 715h44l194 -439q95 -218 102 -239h2q4 20 20 118t23 134l76 426h35l-127 -715h-47l-190 429q-86 194 -104 248h-2q-8 -79 -53 -316l-64 -361h-36zM425 875h34q15 -23 79 -115h-32l-67 84l-98 -84h-35q18 18 60 58t59 57z" />
    <glyph glyph-name="ncircumflex" horiz-adv-x="568" 
d="M32 0l78 445q11 58 14 80h37l-18 -99q26 45 74 79t118 34q74 0 118 -39t44 -112q0 -25 -7 -69l-56 -319h-36l55 311q7 42 7 72q0 63 -37.5 94t-97.5 31q-74 0 -131 -54t-69 -129l-57 -325h-36zM340 715h35l78 -119h-30l-69 88l-100 -88h-35z" />
    <glyph glyph-name="Ndieresis" horiz-adv-x="707" 
d="M178 715h44l194 -439q95 -218 102 -239h2q4 20 20 118t23 134l76 426h35l-127 -715h-47l-190 429q-86 194 -104 248h-2q-8 -79 -53 -316l-64 -361h-36zM347 766l15 80h36l-15 -80h-36zM466 766l15 80h36l-15 -80h-36z" />
    <glyph glyph-name="ndieresis" horiz-adv-x="568" 
d="M32 0l78 445q11 58 14 80h37l-18 -99q26 45 74 79t118 34q74 0 118 -39t44 -112q0 -25 -7 -69l-56 -319h-36l55 311q7 42 7 72q0 63 -37.5 94t-97.5 31q-74 0 -131 -54t-69 -129l-57 -325h-36zM264 616l15 80h36l-15 -80h-36zM383 616l15 80h36l-15 -80h-36z" />
    <glyph glyph-name="Nmacron" horiz-adv-x="707" 
d="M178 715h44l194 -439q95 -218 102 -239h2q4 20 20 118t23 134l76 426h35l-127 -715h-47l-190 429q-86 194 -104 248h-2q-8 -79 -53 -316l-64 -361h-36zM309 793l5 30h244l-5 -30h-244z" />
    <glyph glyph-name="nmacron" horiz-adv-x="568" 
d="M32 0l78 445q11 58 14 80h37l-18 -99q26 45 74 79t118 34q74 0 118 -39t44 -112q0 -25 -7 -69l-56 -319h-36l55 311q7 42 7 72q0 63 -37.5 94t-97.5 31q-74 0 -131 -54t-69 -129l-57 -325h-36zM228 639l5 30h244l-5 -30h-244z" />
    <glyph glyph-name="Pmacron" horiz-adv-x="578" 
d="M51 0l127 715h134q121 0 180 -31q83 -44 83 -141q0 -161 -143 -215q-59 -22 -146 -22h-144l-55 -306h-36zM208 685l-61 -349h134q88 0 135 18q123 44 123 187q0 80 -55.5 112t-157.5 32h-118zM250 793l5 30h244l-5 -30h-244z" />
    <glyph glyph-name="pmacron" horiz-adv-x="600" 
d="M36 -180h-36l125 705h33l-21 -98q70 111 196 111q93 0 151.5 -62.5t58.5 -175.5q0 -135 -75 -224.5t-186 -89.5q-86 0 -133.5 47.5t-57.5 109.5q-7 -47 -28 -171zM286 17q99 0 159.5 82t60.5 202q0 94 -46.5 150t-136.5 56q-72 0 -122.5 -44t-72 -108t-21.5 -139
q0 -90 45.5 -144.5t133.5 -54.5zM231 639l5 30h244l-5 -30h-244z" />
    <glyph glyph-name="at.case" horiz-adv-x="840" 
d="M599 527h28q-5 -28 -21 -118.5t-25 -136.5q-6 -34 -6 -45q0 -43 58 -43q54 0 98.5 61.5t44.5 171.5q0 134 -84.5 211t-231.5 77q-161 0 -260.5 -101t-99.5 -252q0 -158 97.5 -254.5t265.5 -96.5q85 0 143 24t111 68l17 -16q-112 -102 -276 -102q-178 0 -284 103t-106 274
q0 161 110 270t283 109q156 0 249.5 -84t93.5 -223q0 -117 -53 -191t-131 -74q-39 0 -58 17.5t-17 48.5q-18 -26 -53.5 -47t-84.5 -21q-70 0 -108.5 42t-38.5 119q0 88 49.5 153.5t137.5 65.5q54 0 88.5 -26.5t46.5 -69.5h2q2 28 15 86zM447 510q-73 0 -113.5 -56.5
t-40.5 -130.5q0 -139 123 -139q80 0 116.5 57.5t36.5 137.5q0 60 -29.5 95.5t-92.5 35.5z" />
    <glyph glyph-name="bar.case" horiz-adv-x="254" 
d="M188 751h36l-141 -794h-36z" />
    <glyph glyph-name="plus.case" 
d="M70 355v32h205v213h32v-213h205v-32h-205v-212h-32v212h-205z" />
    <glyph glyph-name="minus.case" 
d="M67 355v32h442v-32h-442z" />
    <glyph glyph-name="plusminus.case" 
d="M49 50v32h442v-32h-442zM49 366v32h205v203h32v-203h205v-32h-205v-202h-32v202h-205z" />
    <glyph glyph-name="multiply.case" 
d="M109 172l-23 22l176 176l-176 177l23 22l176 -176l177 177l22 -23l-177 -177l177 -176l-22 -23l-177 177z" />
    <glyph glyph-name="divide.case" 
d="M70 355v32h442v-32h-442zM269 145v111h36v-111h-36zM269 488v111h36v-111h-36z" />
    <glyph glyph-name="equal.case" 
d="M65 265v32h442v-32h-442zM65 449v32h442v-32h-442z" />
    <glyph glyph-name="notequal.case" 
d="M62 449v32h259l63 129h35l-63 -129h148v-32h-163l-74 -152h237v-32h-252l-65 -135h-35l65 135h-155v32h170l74 152h-244z" />
    <glyph glyph-name="approxequal.case" 
d="M299 402l-63 30q-52 24 -79 24q-53 0 -98 -74l-23 18q51 87 124 87q35 0 99 -30l68 -32q44 -23 75 -23q56 0 99 73l24 -15q-50 -88 -126 -88q-36 0 -100 30zM296 152l-63 30q-52 24 -79 24q-53 0 -98 -74l-23 18q51 87 124 87q35 0 99 -30l68 -32q44 -23 75 -23
q56 0 99 73l24 -15q-50 -88 -126 -88q-36 0 -100 30z" />
    <glyph glyph-name="logicalnot.case" 
d="M34 465v32h503v-310h-33v278h-470z" />
    <glyph glyph-name="parenleft.case" horiz-adv-x="283" 
d="M50 248q0 159 75 306.5t207 249.5l-6 -39q-114 -104 -178 -236.5t-64 -279.5q0 -190 96 -316l-7 -36q-55 55 -89 150.5t-34 200.5z" />
    <glyph glyph-name="parenright.case" horiz-adv-x="284" 
d="M249 455q0 -162 -74.5 -308.5t-207.5 -249.5l6 39q113 101 177.5 235t64.5 281q0 190 -96 316l7 36q55 -55 89 -149.5t34 -199.5z" />
    <glyph glyph-name="hyphen.case" horiz-adv-x="429" 
d="M84 348l5 32h272l-5 -32h-272z" />
    <glyph glyph-name="bracketleft.case" horiz-adv-x="291" 
d="M188 -33l-5 -30h-139l145 828h139l-5 -30h-103l-135 -768h103z" />
    <glyph glyph-name="bracketright.case" horiz-adv-x="291" 
d="M-20 -63l5 30h102l135 768h-103l5 30h139l-145 -828h-138z" />
    <glyph glyph-name="braceleft.case" horiz-adv-x="269" 
d="M88 352l-1 -2q28 -9 39.5 -23.5t11.5 -45.5q0 -27 -9 -75l-31 -176q-3 -18 -3 -31q0 -23 13.5 -29.5t50.5 -6.5l-4 -26q-2 -1 -7 -1h-16q-39 0 -56.5 13t-17.5 47q0 15 4 35l35 197q5 33 5 48q0 28 -11 40.5t-38 21.5l5 28q38 11 55.5 31.5t26.5 76.5l36 202
q9 54 31.5 72t70.5 18q4 0 8.5 -0.5t6.5 -0.5h7l-4 -28q-46 0 -61.5 -11t-23.5 -54l-32 -181q-14 -76 -30.5 -101.5t-60.5 -37.5z" />
    <glyph glyph-name="braceright.case" horiz-adv-x="268" 
d="M196 350l1 2q-28 9 -39.5 23.5t-11.5 45.5q0 27 9 75l31 176q3 18 3 31q0 23 -13.5 29.5t-50.5 6.5l4 26h7q2 0 7 0.5t9 0.5q39 0 56.5 -13t17.5 -47q0 -15 -4 -35l-35 -197q-5 -33 -5 -48q0 -28 11 -40.5t38 -21.5l-5 -28q-38 -11 -55.5 -31.5t-26.5 -76.5l-36 -202
q-9 -54 -31.5 -72t-70.5 -18h-16q-5 0 -6 1l4 27q46 0 61.5 11t23.5 55l32 181q14 76 30.5 101.5t60.5 37.5z" />
    <glyph glyph-name="guillemotleft.case" horiz-adv-x="464" 
d="M256 533l-140 -185l70 -190h-34l-76 190l143 185h37zM430 533l-135 -185l65 -190h-32l-76 190l143 185h35z" />
    <glyph glyph-name="guillemotright.case" horiz-adv-x="463" 
d="M221 158l140 185l-70 190h34l76 -190l-143 -185h-37zM47 158l135 185l-65 190h32l76 -190l-143 -185h-35z" />
    <glyph glyph-name="endash.case" horiz-adv-x="633" 
d="M84 348l5 32h476l-5 -32h-476z" />
    <glyph glyph-name="emdash.case" horiz-adv-x="998" 
d="M84 348l5 32h841l-5 -32h-841z" />
    <glyph glyph-name="guilsinglleft.case" horiz-adv-x="290" 
d="M256 533l-140 -185l70 -190h-34l-76 190l143 185h37z" />
    <glyph glyph-name="guilsinglright.case" horiz-adv-x="289" 
d="M47 158l140 185l-70 190h34l76 -190l-143 -185h-37z" />
    <glyph glyph-name="brokenbar.case" horiz-adv-x="199" 
d="M107 448l53 303h35l-53 -303h-35zM21 -42l53 303h35l-53 -303h-35z" />
    <glyph glyph-name="registered.alt" horiz-adv-x="865" 
d="M318 143v427h129q149 0 149 -113q0 -107 -115 -123q49 -83 115 -191h-36l-109 188h-105v-188h-28zM346 545v-190h98q124 0 124 98q0 92 -124 92h-98zM818 360q0 -158 -110 -267.5t-268 -109.5q-156 0 -265.5 110t-109.5 267t109.5 266.5t267.5 109.5q156 0 266 -110
t110 -266zM790 360q0 147 -102 249t-246 102q-147 0 -248 -101.5t-101 -249.5q0 -147 100.5 -249.5t247.5 -102.5q145 0 247 102t102 250z" />
    <glyph glyph-name="less.case" 
d="M65 339v49q78 41 224.5 119.5t171.5 92.5v-38q-54 -28 -209 -110t-163 -86v-3q8 -4 162.5 -87.5t209.5 -110.5v-38q-25 14 -171.5 92.5t-224.5 119.5z" />
    <glyph glyph-name="greater.case" 
d="M514 388v-49q-78 -41 -224.5 -119.5t-171.5 -92.5v38q52 27 206.5 109.5t165.5 88.5v3q-8 4 -163 86t-209 110v38q25 -14 171.5 -92.5t224.5 -119.5z" />
    <glyph glyph-name="lessequal.case" 
d="M65 0v32h396v-32h-396zM65 319v49q78 41 224.5 119.5t171.5 92.5v-38q-55 -27 -209.5 -109.5t-162.5 -86.5v-3q8 -4 162.5 -87.5t209.5 -110.5v-38q-25 14 -171.5 92.5t-224.5 119.5z" />
    <glyph glyph-name="greaterequal.case" 
d="M474 32v-32h-396v32h396zM474 368v-49q-78 -41 -224.5 -119.5t-171.5 -92.5v38q52 27 206.5 109.5t165.5 88.5v3q-8 4 -163 86t-209 110v38q25 -14 171.5 -92.5t224.5 -119.5z" />
    <glyph glyph-name="infinity.case" horiz-adv-x="866" 
d="M224 531q18 0 35 -4t35.5 -14.5t30.5 -17.5t32.5 -25.5t28.5 -26t31 -31t28 -28.5q5 5 26.5 28.5t29.5 31t27.5 26t31.5 25.5l30 17.5t35.5 14.5t35.5 4q69 0 110 -44.5t41 -121.5q0 -70 -40 -119t-112 -49q-49 0 -92.5 30.5t-102.5 94.5l-21 22q-84 -84 -112 -105
q-56 -42 -111 -42q-71 0 -111 47.5t-40 120.5q0 75 43.5 120.5t110.5 45.5zM223 226q18 0 35.5 5.5t29.5 11t33 22.5t29.5 25.5t36.5 35.5t38 37l-20 20q-45 45 -68 65.5t-54.5 37.5t-61.5 17q-54 0 -86 -39.5t-32 -97.5q0 -63 31 -101.5t89 -38.5zM661 226q56 0 87 39
t31 101q0 58 -32 97.5t-86 39.5q-20 0 -38 -5.5t-38 -20.5t-31 -24t-34.5 -32t-29.5 -29l-27 -26q15 -15 44 -44.5t41.5 -41t33.5 -27.5t39.5 -21.5t39.5 -5.5z" />
    <glyph glyph-name="uni00AD.case" horiz-adv-x="429" 
d="M84 348l5 32h272l-5 -32h-272z" />
    <glyph glyph-name="zero.posf" horiz-adv-x="621" 
d="M265 17q81 0 135 49q68 62 105 191t37 254q0 88 -42 137.5t-127 49.5q-80 0 -138 -51q-65 -60 -101 -195.5t-36 -251.5q0 -86 40.5 -134.5t126.5 -48.5zM562 357q-62 -371 -298 -371q-198 0 -200 210q0 81 14 157q13 79 33 140.5t54 117.5t87.5 87t124.5 31
q199 0 199 -217q0 -79 -14 -155z" />
    <glyph glyph-name="one.posf" horiz-adv-x="377" 
d="M175 0l100 565h-197l5 26h50q92 0 127.5 23t53.5 97l1 4h23l-127 -715h-36z" />
    <glyph glyph-name="two.posf" horiz-adv-x="567" 
d="M462 0h-461l5 28q128 92 255 193q11 8 40 31t43 34t40 34t40 39t33 40.5t28.5 46t16.5 48t7 54.5q0 74 -46.5 112t-126.5 38q-87 0 -137 -50.5t-63 -136.5h-34q13 98 74 158t164 60q93 0 149 -46t56 -131q0 -36 -8 -69t-28.5 -64.5t-38 -55t-54.5 -56t-59 -50.5t-69 -55
q-114 -90 -233 -170h413z" />
    <glyph glyph-name="three.posf" horiz-adv-x="571" 
d="M32 196h34q2 -89 51.5 -134.5t138.5 -45.5q90 0 145 53t55 145q0 72 -54.5 115.5t-134.5 43.5h-18l5 27q62 0 111.5 14.5t85.5 54.5t36 102q0 57 -40.5 92t-113.5 35q-144 0 -182 -149h-34q13 79 70 129.5t149 50.5q86 0 136 -42.5t50 -109.5q0 -77 -45.5 -126.5
t-127.5 -63.5v-2q65 -15 105 -59.5t40 -111.5q0 -102 -66.5 -165t-173.5 -63q-106 0 -163 53t-59 157z" />
    <glyph glyph-name="four.posf" horiz-adv-x="576" 
d="M527 213l-6 -32h-116l-32 -181h-35l32 181h-360l5 28l299 336q123 135 153 170h33l-89 -502h116zM457 662h-2q-36 -47 -200 -229l-60 -65q-8 -8 -85 -96l-52 -59h318l28 157q40 239 53 292z" />
    <glyph glyph-name="five.posf" horiz-adv-x="557" 
d="M77 341l106 374h352l-6 -34h-324l-91 -316q22 36 68.5 60t109.5 24q87 0 144.5 -55t57.5 -151q0 -111 -66.5 -184t-179.5 -73q-98 0 -158 54t-64 145h33q2 -71 54 -120t137 -49q92 0 151 60t59 162q0 83 -48 132.5t-128 49.5q-101 0 -169 -85z" />
    <glyph glyph-name="six.posf" horiz-adv-x="597" 
d="M567 531h-31q-11 169 -168 169q-209 0 -266 -370l-2 -14h3q21 57 77.5 95.5t130.5 38.5q95 0 154.5 -52.5t59.5 -153.5q0 -107 -67 -182.5t-180 -75.5q-101 0 -159.5 57t-58.5 173q0 54 14 140q35 199 109.5 286t190.5 87q98 0 145.5 -57t47.5 -141zM305 421
q-90 0 -150 -64t-60 -158q0 -88 51.5 -136t134.5 -48q96 0 153 66t57 165q0 83 -49.5 129t-136.5 46z" />
    <glyph glyph-name="seven.posf" horiz-adv-x="492" 
d="M105 0h-41q76 128 221 351q154 234 221 330v1q-19 -1 -55 -1h-359l6 34h448l-6 -32l-33 -52q-44 -69 -134 -206t-152.5 -235.5t-115.5 -189.5z" />
    <glyph glyph-name="eight.posf" horiz-adv-x="599" 
d="M240 391q-110 42 -110 155q0 75 58 129t161 54q90 0 144 -46t54 -119q0 -71 -47 -121t-111 -60q135 -46 135 -172q0 -102 -71.5 -163.5t-187.5 -61.5q-101 0 -165 50t-64 139q0 84 53.5 140.5t150.5 75.5zM347 698q-80 0 -130.5 -39.5t-50.5 -109.5q0 -69 41.5 -110.5
t116.5 -41.5q80 0 133 45.5t53 119.5q0 62 -45.5 99t-117.5 37zM295 372q-94 0 -158 -52.5t-64 -140.5q0 -78 54.5 -120.5t141.5 -42.5q101 0 159 52.5t58 146.5q0 73 -52.5 115t-138.5 42z" />
    <glyph glyph-name="nine.posf" horiz-adv-x="596" 
d="M47 184h31q11 -169 168 -169q209 0 266 370l2 14h-3q-21 -57 -77.5 -95.5t-130.5 -38.5q-95 0 -154.5 52.5t-59.5 153.5q0 107 67 182.5t180 75.5q101 0 159.5 -57t58.5 -173q0 -54 -14 -140q-35 -199 -109 -286t-191 -87q-98 0 -145.5 57t-47.5 141zM309 294
q90 0 150 64t60 158q0 88 -51.5 136t-134.5 48q-96 0 -153 -66t-57 -165q0 -83 49.5 -129t136.5 -46z" />
    <glyph glyph-name="idotaccent" horiz-adv-x="208" 
d="M125 525h36l-93 -525h-36zM175 604h-36l20 111h36z" />
    <glyph glyph-name="zero.slashplf" horiz-adv-x="622" 
d="M563 357q-62 -371 -298 -371q-198 0 -200 210q0 81 14 157q13 79 33 140.5t54 117.5t87.5 87t124.5 31q199 0 199 -217q0 -79 -14 -155zM99 200q0 -94 42 -139l346 601q-42 36 -113 36q-80 0 -138 -51q-65 -60 -101 -195.5t-36 -251.5zM266 17q81 0 135 49q68 62 105 191
t37 254q0 82 -33 128l-346 -596q38 -26 102 -26z" />
    <glyph glyph-name="zero.slash" 
d="M532 357q-62 -371 -298 -371q-198 0 -200 210q0 81 14 157q13 79 33 140.5t54 117.5t87.5 87t124.5 31q199 0 199 -217q0 -79 -14 -155zM68 200q0 -94 42 -139l346 601q-42 36 -113 36q-80 0 -138 -51q-65 -60 -101 -195.5t-36 -251.5zM235 17q81 0 135 49q68 62 105 191
t37 254q0 82 -33 128l-346 -596q38 -26 102 -26z" />
    <glyph glyph-name="zero.tosf" 
d="M234 17q79 0 129 47q65 58 101.5 183.5t36.5 243.5q0 179 -163 179q-81 0 -132 -49q-63 -57 -98 -187.5t-35 -241.5q0 -175 161 -175zM519 343q-13 -75 -33 -133.5t-52.5 -112t-83.5 -82.5t-117 -29q-190 0 -192 202q0 67 14 151q11 60 24 108t36 97t53 82t74.5 54
t99.5 21q92 0 141.5 -52.5t49.5 -156.5q0 -76 -14 -149z" />
    <glyph glyph-name="one.tosf" 
d="M263 0l96 543h-186l4 24h45q88 0 122 22t52 94l1 4h21l-121 -687h-34z" />
    <glyph glyph-name="two.tosf" 
d="M449 0h-443l5 28q105 72 245 185q8 7 38 29.5t42 32.5t38 33t38.5 37.5t31.5 38.5t27.5 44t15.5 46t7 52q0 71 -44 107.5t-121 36.5q-85 0 -132 -48t-60 -131h-34q12 96 71 153t159 57q88 0 142.5 -44.5t54.5 -126.5q0 -49 -15.5 -91.5t-57 -88t-68 -69t-94.5 -77.5
q-8 -7 -12 -10q-119 -93 -225 -162h397z" />
    <glyph glyph-name="three.tosf" 
d="M34 188h32q2 -85 50 -128.5t132 -43.5q88 0 140 50t52 140q0 69 -51.5 111t-129.5 42h-16l3 25q94 0 159.5 39t65.5 126q0 54 -39 87.5t-109 33.5q-140 0 -175 -143h-33q13 77 67.5 125.5t143.5 48.5q83 0 130.5 -40.5t47.5 -105.5q0 -73 -44 -121.5t-121 -62.5v-2
q61 -13 100 -56t39 -107q0 -99 -63.5 -159.5t-168.5 -60.5q-102 0 -156 51.5t-56 150.5z" />
    <glyph glyph-name="four.tosf" 
d="M506 205l-6 -31h-112l-30 -174h-33l30 174h-346l5 27l287 322q22 26 76.5 85t70.5 79h31l-85 -482h112zM438 636h-2q-7 -11 -75 -90.5t-117 -129.5l-58 -62q-19 -21 -81 -92l-50 -57h306l26 151q47 264 51 280z" />
    <glyph glyph-name="five.tosf" 
d="M83 327l102 360h338l-6 -33h-311l-88 -303q24 34 68 57t104 23q84 0 139 -52.5t55 -145.5q0 -105 -64 -176t-172 -71q-95 0 -152.5 51.5t-61.5 139.5h31q2 -68 52.5 -114.5t132.5 -46.5q88 0 144 57.5t56 154.5q0 80 -45.5 128t-122.5 48q-97 0 -163 -83z" />
    <glyph glyph-name="six.tosf" 
d="M536 511h-29q-11 161 -162 161q-202 0 -256 -354l-2 -14h3q20 54 74.5 91t125.5 37q92 0 149 -50.5t57 -147.5q0 -102 -64 -175t-173 -73q-97 0 -153.5 55t-56.5 167q0 53 14 134q33 191 104.5 275t183.5 84q94 0 139.5 -54.5t45.5 -135.5zM284 405q-86 0 -144 -61.5
t-58 -152.5q0 -84 49.5 -130t130.5 -46q91 0 146 63t55 158q0 80 -47.5 124.5t-131.5 44.5z" />
    <glyph glyph-name="seven.tosf" 
d="M145 0h-39q39 67 211 337q186 279 213 318v1q-19 -1 -53 -1h-345l6 32h430l-6 -31l-31 -49q-46 -72 -129.5 -200t-144.5 -224t-112 -183z" />
    <glyph glyph-name="eight.tosf" 
d="M221 375q-106 40 -106 149q0 72 56 124.5t155 52.5q86 0 138 -44.5t52 -114.5q0 -69 -45 -116.5t-107 -57.5q55 -16 92 -56t37 -109q0 -96 -68.5 -156.5t-178.5 -60.5q-99 0 -160 48.5t-61 134.5q0 81 51.5 135t144.5 71zM324 670q-77 0 -125.5 -38t-48.5 -105t40 -106.5
t111 -39.5q77 0 128.5 44t51.5 115q0 58 -44 94t-113 36zM274 358q-90 0 -152 -50.5t-62 -135.5q0 -73 53 -114.5t135 -41.5q99 0 154 50t55 141q0 70 -50 110.5t-133 40.5z" />
    <glyph glyph-name="nine.tosf" 
d="M37 176h29q11 -161 162 -161q202 0 256 354l2 14h-3q-20 -54 -74.5 -91t-125.5 -37q-92 0 -149 50.5t-57 147.5q0 102 64 175t173 73q97 0 153.5 -55t56.5 -167q0 -53 -14 -134q-33 -191 -104.5 -275t-183.5 -84q-94 0 -139.5 54.5t-45.5 135.5zM289 282q86 0 144 61.5
t58 152.5q0 84 -49.5 130t-130.5 46q-91 0 -146 -63t-55 -158q0 -80 47.5 -124.5t131.5 -44.5z" />
    <glyph glyph-name="zero.sub" horiz-adv-x="460" 
d="M183 -108q62 0 99 37q50 45 78 142t28 190q0 138 -125 138q-57 0 -102 -38q-49 -44 -76 -145t-27 -189q0 -63 30.5 -99t94.5 -36zM405 145q-47 -278 -223 -278q-149 0 -151 157q0 65 10 118q10 59 25 105.5t40.5 88.5t66 65t93.5 23q150 0 150 -163q0 -58 -11 -116z" />
    <glyph glyph-name="one.sub" horiz-adv-x="287" 
d="M121 -123l76 427h-148l4 22h39q67 0 93.5 17t40.5 71v2l1 2h18l-95 -541h-29z" />
    <glyph glyph-name="two.sub" horiz-adv-x="425" 
d="M332 -123h-347l4 23q66 46 191 144l25 19q36 28 57 46.5t48.5 48.5t41 62.5t13.5 67.5q0 55 -34.5 83t-93.5 28q-65 0 -102 -37.5t-47 -102.5h-27q9 74 55 119.5t124 45.5q70 0 112 -34.5t42 -98.5q0 -39 -14 -74.5t-45.5 -70t-58.5 -58t-74 -60.5q-103 -80 -171 -125
h305z" />
    <glyph glyph-name="three.sub" horiz-adv-x="426" 
d="M7 23h28q2 -66 39 -100t102 -34q67 0 107.5 39.5t40.5 107.5q0 53 -40.5 85.5t-99.5 32.5h-14l4 22q72 0 122.5 30.5t50.5 97.5q0 40 -30.5 66.5t-82.5 26.5q-108 0 -136 -111h-27q9 60 52.5 98t112.5 38q65 0 102.5 -32t37.5 -82q0 -57 -33 -94.5t-93 -49.5
q45 -12 75 -45.5t30 -82.5q0 -78 -49.5 -124.5t-130.5 -46.5q-163 0 -168 158z" />
    <glyph glyph-name="four.sub" horiz-adv-x="436" 
d="M383 38l-4 -26h-87l-24 -135h-27l23 135h-269l3 23l225 252l58 65q13 14 55 62h27l-67 -376h87zM289 155l40 217q-78 -97 -149 -171l-45 -49l-63 -71l-38 -43h234z" />
    <glyph glyph-name="five.sub" horiz-adv-x="416" 
d="M42 134l79 282h265l-4 -28h-242q-10 -36 -32.5 -112t-33.5 -116q45 57 130 57q66 0 109 -41t43 -114q0 -83 -50 -138t-135 -55q-75 0 -120 40.5t-47 109.5h26q2 -53 40.5 -89t102.5 -36q67 0 111 45t44 119q0 62 -35.5 99t-94.5 37q-73 0 -126 -64z" />
    <glyph glyph-name="six.sub" horiz-adv-x="444" 
d="M410 275h-26q-8 125 -125 125q-155 0 -197 -275q-1 -1 -1 -6q0 -3 1 -3q16 44 57.5 72t98.5 28q71 0 115.5 -40t44.5 -116q0 -80 -50.5 -136.5t-134.5 -56.5q-76 0 -120.5 42.5t-44.5 129.5q0 41 11 105q53 280 225 280q75 0 110.5 -42.5t35.5 -106.5zM213 192
q-68 0 -112 -47.5t-44 -117.5q0 -65 38 -100.5t100 -35.5q70 0 113 49t43 122q0 60 -37.5 95t-100.5 35z" />
    <glyph glyph-name="seven.sub" horiz-adv-x="382" 
d="M72 -123h-33q31 51 167 265q71 113 163 245q-13 -1 -39 -1h-269l5 28h337l-5 -26l-25 -39l-100 -153q-163 -253 -201 -319z" />
    <glyph glyph-name="eight.sub" horiz-adv-x="452" 
d="M14 8q0 63 39 105t111 57q-80 28 -80 116q0 56 44 96.5t122 40.5q68 0 108 -34.5t40 -89.5q0 -54 -33.5 -90t-81.5 -45q98 -33 98 -129q0 -76 -53.5 -122.5t-140.5 -46.5q-77 0 -125 37t-48 105zM248 398q-59 0 -97 -29t-38 -81q0 -51 31 -82t87 -31q58 0 97.5 34
t39.5 89q0 45 -34 72.5t-86 27.5zM209 154q-69 0 -117 -38.5t-48 -104.5q0 -56 40.5 -88.5t105.5 -32.5q74 0 117 39.5t43 108.5q0 53 -38.5 84.5t-102.5 31.5z" />
    <glyph glyph-name="nine.sub" horiz-adv-x="445" 
d="M21 15h26q8 -125 125 -125q152 0 197 275l1 1v4t-1 3q-16 -43 -58 -71t-97 -28q-72 0 -116.5 40t-44.5 116q0 80 50 136.5t136 56.5q76 0 120 -42.5t44 -129.5q0 -41 -11 -105q-53 -280 -225 -280q-75 0 -110.5 42.5t-35.5 106.5zM219 98q66 0 110.5 47.5t44.5 117.5
q0 65 -38 100.5t-99 35.5q-71 0 -114 -49t-43 -122q0 -60 37.5 -95t101.5 -35z" />
    <glyph glyph-name="a.sub" horiz-adv-x="395" 
d="M70 152h-28q9 55 51 92t109 37q61 0 98 -29.5t37 -89.5q0 -27 -4 -50l-7 -35l-21 -118q-9 -50 -7 -82h-29q0 38 11 84q-24 -41 -69 -66.5t-100 -25.5q-54 0 -84 25.5t-30 70.5q0 28 12.5 50t29.5 34.5t46.5 22.5t50.5 14t54 9l115 12q6 35 6 53q0 51 -32 73.5t-81 22.5
q-107 0 -128 -104zM295 52q1 5 2.5 16t3.5 15l-21 -3t-22 -2l-82 -10q-151 -21 -151 -102q0 -33 24.5 -52.5t68.5 -19.5q63 0 113 41t64 117z" />
    <glyph glyph-name="b.sub" horiz-adv-x="440" 
d="M190 -109q74 0 119 61.5t45 149.5q0 69 -34.5 111t-101.5 42q-78 0 -119 -63.5t-41 -152.5q0 -67 34 -107.5t98 -40.5zM123 413l-24 -139q-6 -34 -9 -47q-4 -14 -5 -21q49 74 141 74q70 0 114 -46.5t44 -131.5q0 -102 -56 -169t-141 -67q-60 0 -96.5 32.5t-45.5 76.5
q-2 -12 -17 -98h-28l94 536h29z" />
    <glyph glyph-name="c.sub" horiz-adv-x="438" 
d="M354 4h28q-25 -62 -72.5 -99t-116.5 -37q-83 0 -129.5 47.5t-46.5 132.5q0 99 57 166.5t151 67.5q73 0 116.5 -38t53.5 -103h-27q-25 116 -143 116q-84 0 -131.5 -60.5t-47.5 -149.5q0 -73 39.5 -113.5t112.5 -40.5q107 0 156 111z" />
    <glyph glyph-name="d.sub" horiz-adv-x="440" 
d="M332 -123h-27l15 67q-51 -77 -144 -77q-71 0 -115 46.5t-44 131.5q0 101 56 168.5t140 67.5q64 0 100 -33t43 -77l18 110q0 1 1 4t1 5l22 123h29zM210 256q-73 0 -118 -61.5t-45 -149.5q0 -69 34.5 -111t101.5 -42q78 0 119 63.5t41 152.5q0 66 -34 107t-99 41z" />
    <glyph glyph-name="e.sub" horiz-adv-x="448" 
d="M397 75h-350q-2 -16 -2 -27q0 -73 41 -114t112 -41q108 0 154 98h29q-25 -57 -73 -90t-115 -33q-81 0 -128.5 48t-47.5 132q0 99 57 166.5t151 67.5q83 0 128 -50.5t45 -133.5q0 -14 -1 -23zM222 257q-70 0 -114.5 -44t-57.5 -112q41 0 159.5 0.5t159.5 0.5
q-2 70 -40 112.5t-107 42.5z" />
    <glyph glyph-name="f.sub" horiz-adv-x="188" 
d="M215 413l-4 -25h-9q-2 0 -5 0.5t-5 0.5q-27 0 -41 -17t-20 -52l-9 -50h68l-3 -24h-69l-66 -369h-29l66 369h-52l4 24h52l8 47q9 48 30.5 72.5t63.5 24.5q17 0 20 -1z" />
    <glyph glyph-name="g.sub" horiz-adv-x="445" 
d="M161 -238q71 0 106.5 44t53.5 129l3 15l5 32q-19 -38 -57 -60.5t-88 -22.5q-77 0 -119.5 46.5t-42.5 128.5q0 85 52.5 146.5t137.5 61.5q61 0 100 -34t51 -76l17 100h28l-58 -324q-17 -100 -61.5 -155.5t-129.5 -55.5q-72 0 -114.5 37.5t-44.5 93.5h28q2 -44 36.5 -75
t96.5 -31zM188 -76q73 0 118 55.5t45 137.5q0 64 -37 102t-100 38q-74 0 -118 -52.5t-44 -130.5q0 -73 37 -111.5t99 -38.5z" />
    <glyph glyph-name="h.sub" horiz-adv-x="407" 
d="M124 414l-38 -212q60 80 141 80q56 0 89.5 -29t33.5 -85q0 -19 -5 -51l-42 -240h-29l41 234q5 32 5 54q0 46 -28 68.5t-72 22.5q-54 0 -96 -40.5t-51 -94.5l-44 -244h-29l95 537h29z" />
    <glyph glyph-name="i.sub" horiz-adv-x="137" 
d="M70 271h29l-70 -394h-29zM110 328h-29l15 86h29z" />
    <glyph glyph-name="j.sub" horiz-adv-x="137" 
d="M69 271h29l-78 -449q-9 -48 -31 -70t-66 -22q-2 0 -5.5 0.5t-4.5 0.5h-8l5 26q10 -2 18 -2q49 0 63 70zM109 329h-29l15 85h28z" />
    <glyph glyph-name="k.sub" horiz-adv-x="325" 
d="M270 -123h-38q-34 39 -99 121t-67 88l-37 -209h-29l96 537h29l-57 -317q6 4 91 71t129 103h42q-56 -45 -122 -95q-24 -20 -61 -49t-47 -37q43 -61 170 -213z" />
    <glyph glyph-name="l.sub" horiz-adv-x="138" 
d="M96 414h29l-96 -537h-29z" />
    <glyph glyph-name="m.sub" horiz-adv-x="674" 
d="M0 -123l58 333q7 37 11 61h30l-13 -69q52 80 140 80q50 0 81 -23.5t38 -67.5q17 33 58 62t95 29q55 0 87 -29t32 -85q0 -19 -5 -51l-42 -240h-29l41 234q5 32 5 54q0 46 -27 68.5t-71 22.5q-53 0 -93.5 -40t-53.5 -95l-43 -244h-29l42 234q5 32 5 54q0 46 -27 68.5
t-71 22.5q-55 0 -97 -40t-50 -95l-43 -244h-29z" />
    <glyph glyph-name="n.sub" horiz-adv-x="407" 
d="M0 -123l59 334l5 30q0 5 2 15t3 16h30l-13 -70q50 81 141 81q56 0 89.5 -29.5t33.5 -85.5q0 -19 -5 -51l-42 -240h-29l41 234q5 32 5 54q0 46 -28 69t-71 23q-54 0 -95 -40.5t-54 -95.5l-43 -244h-29z" />
    <glyph glyph-name="o.sub" horiz-adv-x="466" 
d="M200 -107q82 0 132 59t50 148q0 71 -41.5 114t-113.5 43q-85 0 -133 -60.5t-48 -149.5q0 -73 40.5 -113.5t113.5 -40.5zM196 -132q-84 0 -131.5 47t-47.5 131q0 102 57.5 169t155.5 67q84 0 132.5 -48.5t48.5 -130.5q0 -101 -58.5 -168t-156.5 -67z" />
    <glyph glyph-name="p.sub" horiz-adv-x="440" 
d="M5 -256h-29l94 528h26l-14 -66q17 29 54 52.5t90 23.5q70 0 114 -46.5t44 -131.5q0 -102 -56 -169t-141 -67q-59 0 -95.5 33t-46.5 76q-2 -14 -7.5 -44.5t-6.5 -39.5l-6 -34zM190 -107q74 0 119 61.5t45 149.5q0 69 -34.5 111t-101.5 42q-78 0 -119 -63.5t-41 -152.5
q0 -66 34 -107t98 -41z" />
    <glyph glyph-name="q.sub" horiz-adv-x="440" 
d="M211 257q-73 0 -118 -61.5t-45 -149.5q0 -69 34.5 -111t101.5 -42q78 0 119 64t41 153q0 66 -34 106.5t-99 40.5zM279 -257l19 105q1 9 15 77q1 4 2 10.5t2 10.5q-51 -78 -141 -78q-70 0 -114 47t-44 132q0 102 56 168.5t140 66.5q61 0 96 -32t47 -77q2 12 6 36.5t6 36.5
l4 26h29l-94 -529h-29z" />
    <glyph glyph-name="r.sub" horiz-adv-x="198" 
d="M96 271l-12 -67q14 34 45 55t65 21q11 0 14 -1l-6 -28q-4 1 -14 1q-44 0 -74 -36t-42 -95l-43 -244h-29l60 334l9 60h27z" />
    <glyph glyph-name="s.sub" horiz-adv-x="370" 
d="M-3 -3h29q2 -51 34.5 -78t90.5 -27q57 0 87.5 22.5t30.5 64.5q0 17 -7.5 30.5t-23 23.5t-25.5 14.5t-29 12.5l-32 12q-52 18 -79.5 42t-27.5 65q0 48 36 75t98 27q68 0 107 -31t39 -84h-29q-2 44 -33.5 67t-84.5 23q-49 0 -76.5 -19t-27.5 -53q0 -31 21 -50t71 -37
l29 -11q24 -9 37 -15.5t32 -19t27.5 -30t8.5 -40.5q0 -52 -39.5 -83t-111.5 -31q-69 0 -108.5 33.5t-43.5 96.5z" />
    <glyph glyph-name="t.sub" horiz-adv-x="198" 
d="M122 -100l-4 -25q-10 -2 -19 -2q-67 0 -67 59q0 16 3 35l51 281h-52l4 24h51l19 107h29l-19 -107h69l-4 -24h-68l-50 -275q0 -1 -0.5 -3t-0.5 -3q-3 -15 -3 -27q0 -42 43 -42q8 0 18 2z" />
    <glyph glyph-name="u.sub" horiz-adv-x="404" 
d="M365 272l-58 -333q-7 -37 -11 -61h-30l13 68q-53 -79 -140 -79q-56 0 -88.5 29t-32.5 85q0 19 5 51l42 240h29l-41 -234q-6 -34 -6 -53q0 -47 27.5 -69.5t72.5 -22.5q54 0 95 39.5t51 95.5l43 244h29z" />
    <glyph glyph-name="v.sub" horiz-adv-x="358" 
d="M109 -123l-1 1q-35 179 -60 296l-20 96h32l42 -215q9 -41 11 -56q8 -48 18 -87q9 16 35 65t48 88q55 100 115 205h33q-15 -27 -104.5 -184.5t-118.5 -208.5h-30z" />
    <glyph glyph-name="w.sub" horiz-adv-x="562" 
d="M88 -122l-1 1l-21 149q-17 106 -34 243h30l27 -202l8 -54l15 -105q4 9 11.5 24.5t26.5 55.5t44 95l86 186h38l16 -177q2 -17 8.5 -84t10.5 -101q27 57 98 197l81 165h31q-102 -203 -123 -244q-50 -98 -75 -149h-38l-14 150l-3 26q-10 90 -19 183q-44 -99 -96 -211
l-71 -148h-36z" />
    <glyph glyph-name="x.sub" horiz-adv-x="345" 
d="M-7 -123h-40q30 30 182 201l-109 192h33q49 -94 98 -172q2 3 94 106l60 66h40l-73 -79l-106 -116q7 -13 41 -75.5t53 -92.5l17 -30h-34l-50 89l-48 88q-65 -69 -158 -177z" />
    <glyph glyph-name="y.sub" horiz-adv-x="358" 
d="M60 -258h-30l80 138q-7 32 -22 101t-21 101l-39 189h31q15 -79 31 -154q32 -159 40 -205q7 14 127 230l73 129h32q-130 -232 -198 -349z" />
    <glyph glyph-name="z.sub" horiz-adv-x="370" 
d="M-30 -123l4 23l233 238l51 52q12 12 25 24.5t20 19t11 11.5q-14 0 -66.5 -0.5t-67.5 -0.5h-138l4 26h312l-3 -23l-227 -230q-78 -77 -92 -91l-24 -24q44 0 79 0.5t36 0.5h165l-5 -26h-317z" />
    <glyph glyph-name="zero.sup" horiz-adv-x="460" 
d="M236 317q62 0 99 37q50 45 78 142t28 190q0 138 -125 138q-57 0 -102 -38q-49 -44 -76 -145t-27 -189q0 -63 30.5 -99t94.5 -36zM458 570q-47 -278 -223 -278q-149 0 -151 157q0 65 10 118q10 59 25 105.5t40.5 88.5t66 65t93.5 23q150 0 150 -163q0 -58 -11 -116z" />
    <glyph glyph-name="one.sup" horiz-adv-x="287" 
d="M174 302l76 427h-148l4 22h39q67 0 93.5 17t40.5 71q0 1 0.5 2t0.5 2h18l-95 -541h-29z" />
    <glyph glyph-name="two.sup" horiz-adv-x="424" 
d="M385 302h-347l4 23q66 46 191 144l25 19q36 28 57 46.5t48.5 48.5t41 62.5t13.5 67.5q0 55 -34.5 83t-93.5 28q-65 0 -102 -37.5t-47 -102.5h-27q9 74 55 119.5t124 45.5q70 0 112 -34.5t42 -98.5q0 -39 -14 -74.5t-45.5 -70t-58.5 -58t-74 -60.5q-103 -80 -171 -125h305
z" />
    <glyph glyph-name="three.sup" horiz-adv-x="427" 
d="M61 448h28q2 -66 39 -100t102 -34q67 0 107.5 39.5t40.5 107.5q0 53 -40.5 85.5t-99.5 32.5h-14l4 22q72 0 122.5 30.5t50.5 97.5q0 40 -30.5 66.5t-82.5 26.5q-108 0 -136 -111h-27q9 60 52.5 98t112.5 38q65 0 102.5 -32t37.5 -82q0 -57 -33 -94.5t-93 -49.5
q45 -12 75 -45.5t30 -82.5q0 -78 -49.5 -124.5t-130.5 -46.5q-163 0 -168 158z" />
    <glyph glyph-name="four.sup" horiz-adv-x="436" 
d="M437 463l-4 -26h-87l-24 -135h-27l23 135h-269l3 23l225 252l58 65q13 14 55 62h27l-67 -376h87zM343 580l40 217q-78 -97 -149 -171l-45 -49l-63 -71l-38 -43h234z" />
    <glyph glyph-name="five.sup" horiz-adv-x="416" 
d="M96 559l79 282h265l-4 -28h-242q-10 -36 -32.5 -112t-33.5 -116q45 57 130 57q66 0 109 -41t43 -114q0 -83 -50 -138t-135 -55q-75 0 -120 40.5t-47 109.5h26q2 -53 40.5 -89t102.5 -36q67 0 111 45t44 119q0 62 -35.5 99t-94.5 37q-73 0 -126 -64z" />
    <glyph glyph-name="six.sup" horiz-adv-x="444" 
d="M463 700h-26q-8 125 -125 125q-155 0 -197 -275q-1 -1 -1 -6q0 -3 1 -3q16 44 57.5 72t98.5 28q71 0 115.5 -40t44.5 -116q0 -80 -50.5 -136.5t-134.5 -56.5q-76 0 -120.5 42.5t-44.5 129.5q0 41 11 105q53 280 225 280q75 0 110.5 -42.5t35.5 -106.5zM266 617
q-68 0 -112 -47.5t-44 -117.5q0 -65 38 -100.5t100 -35.5q70 0 113 49t43 122q0 60 -37.5 95t-100.5 35z" />
    <glyph glyph-name="seven.sup" horiz-adv-x="380" 
d="M125 302h-33q31 51 167 265q71 113 163 245q-13 -1 -39 -1h-269l5 28h337l-5 -26l-25 -39l-100 -153q-163 -253 -201 -319z" />
    <glyph glyph-name="eight.sup" horiz-adv-x="451" 
d="M67 433q0 63 39 105t111 57q-80 28 -80 116q0 56 44 96.5t122 40.5q68 0 108 -34.5t40 -89.5q0 -54 -33.5 -90t-81.5 -45q98 -33 98 -129q0 -76 -53.5 -122.5t-140.5 -46.5q-77 0 -125 37t-48 105zM301 823q-59 0 -97 -29t-38 -81q0 -51 31 -82t87 -31q58 0 97.5 34
t39.5 89q0 45 -34 72.5t-86 27.5zM262 579q-69 0 -117 -38.5t-48 -104.5q0 -56 40.5 -88.5t105.5 -32.5q74 0 117 39.5t43 108.5q0 53 -38.5 84.5t-102.5 31.5z" />
    <glyph glyph-name="nine.sup" horiz-adv-x="444" 
d="M74 440h26q8 -125 125 -125q152 0 197 275v2q1 1 1 3t-1 3q-16 -43 -58 -71t-97 -28q-72 0 -116.5 40t-44.5 116q0 80 50 136.5t136 56.5q76 0 120 -42.5t44 -129.5q0 -41 -11 -105q-53 -280 -225 -280q-75 0 -110.5 42.5t-35.5 106.5zM272 523q66 0 110.5 47.5
t44.5 117.5q0 65 -38 100.5t-99 35.5q-71 0 -114 -49t-43 -122q0 -60 37.5 -95t101.5 -35z" />
    <glyph glyph-name="a.sup" horiz-adv-x="395" 
d="M123 577h-28q9 55 51 92t109 37q61 0 98 -29.5t37 -89.5q0 -27 -4 -50l-7 -35l-21 -118q-9 -50 -7 -82h-29q0 38 11 84q-24 -41 -69 -66.5t-100 -25.5q-54 0 -84 25.5t-30 70.5q0 28 12.5 50t29.5 34.5t46.5 22.5t50.5 14t54 9l115 12q6 34 6 53q0 51 -32 73.5t-81 22.5
q-107 0 -128 -104zM348 477q1 5 2.5 16t3.5 15q-8 0 -22 -2l-21 -3l-82 -10q-151 -21 -151 -102q0 -33 24.5 -52.5t68.5 -19.5q63 0 113 41t64 117z" />
    <glyph glyph-name="b.sup" horiz-adv-x="440" 
d="M243 316q74 0 119 61.5t45 149.5q0 69 -34.5 111t-101.5 42q-78 0 -119 -63.5t-41 -152.5q0 -67 34 -107.5t98 -40.5zM176 838l-24 -139q-6 -34 -9 -47q-4 -14 -5 -21q49 74 141 74q70 0 114 -46.5t44 -131.5q0 -102 -56 -169t-141 -67q-60 0 -96.5 32.5t-45.5 76.5
q-2 -12 -17 -98h-28l94 536h29z" />
    <glyph glyph-name="c.sup" horiz-adv-x="439" 
d="M408 429h28q-25 -62 -72.5 -99t-116.5 -37q-83 0 -129.5 47.5t-46.5 132.5q0 99 57 166.5t151 67.5q73 0 116.5 -38t53.5 -103h-27q-25 116 -143 116q-84 0 -131.5 -60.5t-47.5 -149.5q0 -73 39.5 -113.5t112.5 -40.5q107 0 156 111z" />
    <glyph glyph-name="d.sup" horiz-adv-x="442" 
d="M386 302h-27l15 67q-51 -77 -144 -77q-71 0 -115 46.5t-44 131.5q0 101 56 168.5t140 67.5q64 0 100 -33t43 -77l18 110q0 2 1 5t1 4l22 123h29zM264 681q-73 0 -118 -61.5t-45 -149.5q0 -69 34.5 -111t101.5 -42q78 0 119 63.5t41 152.5q0 66 -34 107t-99 41z" />
    <glyph glyph-name="e.sup" horiz-adv-x="448" 
d="M451 500h-350q-2 -16 -2 -27q0 -73 41 -114t112 -41q108 0 154 98h29q-25 -57 -73 -90t-115 -33q-81 0 -128.5 48t-47.5 132q0 99 57 166.5t151 67.5q83 0 128 -50.5t45 -133.5q0 -14 -1 -23zM276 682q-70 0 -114.5 -44t-57.5 -112q41 0 159.5 0.5t159.5 0.5
q-2 70 -40 112.5t-107 42.5z" />
    <glyph glyph-name="f.sup" horiz-adv-x="190" 
d="M268 838l-4 -25h-9q-1 0 -5 0.5t-5 0.5q-27 0 -41 -17t-20 -52l-9 -50h68l-3 -24h-69l-66 -369h-29l66 369h-52l4 24h52l8 47q9 48 30.5 72.5t63.5 24.5q17 0 20 -1z" />
    <glyph glyph-name="g.sup" horiz-adv-x="446" 
d="M214 187q71 0 106.5 44t53.5 129l3 15l5 32q-19 -38 -57 -60.5t-88 -22.5q-77 0 -119.5 46.5t-42.5 128.5q0 85 52.5 146.5t137.5 61.5q61 0 100 -34t51 -76l17 100h28l-58 -324q-17 -100 -61.5 -155.5t-129.5 -55.5q-72 0 -114.5 37.5t-44.5 93.5h28q2 -44 36.5 -75
t96.5 -31zM241 349q73 0 118 55.5t45 137.5q0 64 -37 102t-100 38q-74 0 -118 -52.5t-44 -130.5q0 -73 37 -111.5t99 -38.5z" />
    <glyph glyph-name="h.sup" horiz-adv-x="407" 
d="M177 839l-38 -212q60 80 141 80q56 0 89.5 -29t33.5 -85q0 -19 -5 -51l-42 -240h-29l41 234q5 32 5 54q0 46 -28 68.5t-72 22.5q-54 0 -96 -40.5t-51 -94.5l-44 -244h-29l95 537h29z" />
    <glyph glyph-name="i.sup" horiz-adv-x="138" 
d="M123 696h29l-70 -394h-29zM163 753h-29l15 86h29z" />
    <glyph glyph-name="j.sup" horiz-adv-x="137" 
d="M122 696h29l-78 -449q-9 -48 -31 -70t-66 -22q-2 0 -5.5 0.5t-4.5 0.5h-8l5 26q10 -2 18 -2q49 0 63 70zM162 754h-29l15 85h28z" />
    <glyph glyph-name="k.sup" horiz-adv-x="325" 
d="M323 302h-38q-34 39 -99 121t-67 88l-37 -209h-29l96 537h29l-57 -317q6 4 91 71t129 103h42q-56 -45 -122 -95q-24 -20 -61 -49t-47 -37q43 -61 170 -213z" />
    <glyph glyph-name="l.sup" horiz-adv-x="138" 
d="M149 839h29l-96 -537h-29z" />
    <glyph glyph-name="m.sup" horiz-adv-x="675" 
d="M54 302l58 333q7 37 11 61h30l-13 -69q52 80 140 80q50 0 81 -23.5t38 -67.5q17 33 58 62t95 29q55 0 87 -29t32 -85q0 -19 -5 -51l-42 -240h-29l41 234q5 32 5 54q0 46 -27 68.5t-71 22.5q-53 0 -93.5 -40t-53.5 -95l-43 -244h-29l42 234q5 32 5 54q0 46 -27 68.5
t-71 22.5q-55 0 -97 -40t-50 -95l-43 -244h-29z" />
    <glyph glyph-name="n.sup" horiz-adv-x="407" 
d="M53 302l59 334l5 30q1 6 3 16t2 15h30l-13 -70q50 81 141 81q56 0 89.5 -29.5t33.5 -85.5q0 -19 -5 -51l-42 -240h-29l41 234q5 32 5 54q0 46 -28 69t-71 23q-54 0 -95 -40.5t-54 -95.5l-43 -244h-29z" />
    <glyph glyph-name="o.sup" horiz-adv-x="467" 
d="M254 318q82 0 132 59t50 148q0 71 -41.5 114t-113.5 43q-85 0 -133 -60.5t-48 -149.5q0 -73 40.5 -113.5t113.5 -40.5zM250 293q-84 0 -131.5 47.5t-47.5 130.5q0 102 57.5 169t155.5 67q84 0 132.5 -48.5t48.5 -130.5q0 -101 -58.5 -168t-156.5 -67z" />
    <glyph glyph-name="p.sup" horiz-adv-x="440" 
d="M58 169h-29l94 528h26l-14 -66q17 29 54 52.5t90 23.5q70 0 114 -46.5t44 -131.5q0 -102 -56 -169t-141 -67q-59 0 -95.5 33t-46.5 76q-2 -14 -7.5 -44.5t-6.5 -39.5l-6 -34zM243 318q74 0 119 61.5t45 149.5q0 69 -34.5 111t-101.5 42q-78 0 -119 -63.5t-41 -152.5
q0 -66 34 -107t98 -41z" />
    <glyph glyph-name="q.sup" horiz-adv-x="440" 
d="M264 682q-73 0 -118 -61.5t-45 -149.5q0 -69 34.5 -111t101.5 -42q78 0 119 64t41 153q0 66 -34 106.5t-99 40.5zM332 168l19 105q1 9 15 77q0 4 2 10.5t2 10.5q-51 -78 -141 -78q-70 0 -114 47t-44 132q0 102 56 168.5t140 66.5q61 0 96 -32t47 -77q2 12 6 36.5t6 36.5
l4 26h29l-94 -529h-29z" />
    <glyph glyph-name="r.sup" horiz-adv-x="197" 
d="M149 696l-12 -67q14 34 45 55t65 21q11 0 14 -1l-6 -28q-4 1 -14 1q-44 0 -74 -36t-42 -95l-43 -244h-29l60 334l9 60h27z" />
    <glyph glyph-name="s.sup" horiz-adv-x="369" 
d="M49 422h29q2 -51 34.5 -78t90.5 -27q57 0 87.5 22.5t30.5 64.5q0 17 -7.5 30.5t-23 23.5t-25.5 14.5t-29 12.5l-32 12q-52 18 -79.5 42t-27.5 65q0 48 36 75t98 27q68 0 107 -31t39 -84h-29q-2 44 -33.5 67t-84.5 23q-49 0 -76.5 -19t-27.5 -53q0 -31 21 -50t71 -37
l29 -11q24 -9 37 -15.5t32 -19t27.5 -30t8.5 -40.5q0 -52 -39.5 -83t-111.5 -31q-69 0 -108.5 33.5t-43.5 96.5z" />
    <glyph glyph-name="t.sup" horiz-adv-x="198" 
d="M175 325l-4 -25q-10 -2 -19 -2q-67 0 -67 59q0 15 3 35l51 281h-52l4 24h51l19 107h29l-19 -107h69l-4 -24h-68l-50 -275q0 -2 -0.5 -3t-0.5 -3q-3 -15 -3 -27q0 -42 43 -42q8 0 18 2z" />
    <glyph glyph-name="u.sup" horiz-adv-x="404" 
d="M418 697l-58 -333q-7 -37 -11 -61h-30l13 68q-53 -79 -140 -79q-56 0 -88.5 29t-32.5 85q0 19 5 51l42 240h29l-41 -234q-6 -34 -6 -53q0 -47 27.5 -69.5t72.5 -22.5q54 0 95 39.5t51 95.5l43 244h29z" />
    <glyph glyph-name="v.sup" horiz-adv-x="357" 
d="M162 302l-1 1q-35 179 -60 296l-20 96h32l42 -215q9 -41 11 -56q8 -48 18 -87q9 16 35 65t48 88q55 100 115 205h33q-15 -27 -104.5 -184.5t-118.5 -208.5h-30z" />
    <glyph glyph-name="w.sup" horiz-adv-x="565" 
d="M143 303l-1 1l-21 149q-17 106 -34 243h30l27 -202l8 -54q2 -12 5 -33l5.5 -38.5t4.5 -33.5q4 9 11.5 24.5t26.5 55.5t44 95l86 186h38l16 -177q2 -17 8.5 -84t10.5 -101q27 57 98 197l81 165h31q-102 -203 -123 -244q-50 -98 -75 -149h-38l-14 150l-3 26q-10 90 -19 183
q-44 -99 -96 -211l-71 -148h-36z" />
    <glyph glyph-name="x.sup" horiz-adv-x="343" 
d="M45 302h-40q30 30 182 201l-109 192h33q49 -94 98 -172q2 3 94 106l60 66h40l-73 -79l-106 -116q7 -13 41 -75.5t53 -92.5l17 -30h-34l-50 89l-48 88q-65 -69 -158 -177z" />
    <glyph glyph-name="y.sup" horiz-adv-x="360" 
d="M114 167h-30l80 138q-7 32 -21.5 101t-21.5 101l-39 189h31q15 -79 31 -154q32 -159 40 -205q7 14 127 230l73 129h32q-130 -232 -198 -349z" />
    <glyph glyph-name="z.sup" horiz-adv-x="370" 
d="M23 302l4 23l233 238l51 52q12 12 25 24.5t20 19t11 11.5q-14 0 -66.5 -0.5t-67.5 -0.5h-138l4 26h312l-3 -23l-227 -230q-77 -78 -92 -91l-24 -24q44 0 79 0.5t36 0.5h165l-5 -26h-317z" />
    </font>
</defs>
</svg>
