<?xml version="1.0" standalone="no"?>
<!DOCTYPE svg PUBLIC "-//W3C//DTD SVG 1.1//EN" "http://www.w3.org/Graphics/SVG/1.1/DTD/svg11.dtd" >
<svg>
<metadata>
Created by FontForge 20120731 at Tue Dec 15 21:07:56 2015
 By ,,,
(c)2013 Optimo. wf-rip
</metadata>
<defs>
<font id="Plain-UltralightIta" horiz-adv-x="560" >
  <font-face 
    font-family="Plain Ultralight"
    font-weight="200"
    font-style="italic"
    font-stretch="normal"
    units-per-em="1000"
    panose-1="2 11 0 4 2 2 2 2 2 4"
    ascent="803"
    descent="-197"
    x-height="525"
    cap-height="715"
    bbox="-101 -270 1329 1076"
    underline-thickness="50"
    underline-position="-50"
    slope="-10"
    unicode-range="U+000D-FB02"
  />
<missing-glyph horiz-adv-x="644" 
d="M50 240v49l309 309q14 -8 26 -23zM50 142v49l347 347v-15q0 -20 -13.5 -37.5t-41.5 -39.5t-37 -31q-23 -23 -36 -54zM104 0h-49l261 261h49l-93 -93h-23v-23zM321 168l273 273v-49l-224 -224h-49zM50 338v49l148 148l39 -2q0 29 20 52t55 23h8zM398 0h-49l33 33h2v2
l210 210v-49zM384 133l210 210v-49l-210 -210v49zM50 44v49l206 206v-38h11zM50 583l196 196h49l-44 -44q-54 -14 -93 -53.5t-54 -93.5l-54 -54v49zM537 482l57 57v-49l-216 -216v7q0 12 2.5 21t11 18.5t12.5 13.5t21 16t23 16q1 1 10 7.5t14 10.5t14.5 12.5t15.5 16.5
t13.5 18.5t13 23.5t8.5 27zM50 681l98 98h49l-147 -147v49zM496 0h-49l147 147v-49zM459 698l81 81h49l-104 -104q-25 22 -26 23zM50 436v49l56 56l46 -3zM506 647l88 88v-49l-70 -70q-6 13 -18 31zM202 0h-49l96 96v-49zM395 732l47 47h49l-62 -62q-15 8 -34 15zM536 579
l58 58v-49l-52 -52q0 13 -6 43zM307 742l37 37h49l-38 -38q-18 2 -28 2q-2 0 -6.5 -0.5t-6.5 -0.5h-7zM300 0h-49l33 33h49zM594 49v-49h-49zM50 779h49l-49 -49v49z" />
    <glyph glyph-name="fi" unicode="fi" horiz-adv-x="477" 
d="M321 716l-7 -43q-14 2 -27 2q-34 0 -53 -18t-27 -63l-12 -69h93l-8 -41h-93l-85 -484h-55l85 484h-69l8 41h69l12 69q21 125 134 125q27 0 35 -3zM378 525h55l-93 -525h-55zM448 604h-57l20 111h57z" />
    <glyph glyph-name="fl" unicode="fl" horiz-adv-x="482" 
d="M321 716l-7 -43q-14 2 -27 2q-34 0 -53 -18t-27 -63l-12 -69h93l-8 -41h-93l-85 -484h-55l85 484h-69l8 41h69l12 69q21 125 134 125q27 0 35 -3zM412 715h55l-127 -715h-55z" />
    <glyph glyph-name=".notdef" horiz-adv-x="644" 
d="M50 240v49l309 309q14 -8 26 -23zM50 142v49l347 347v-15q0 -20 -13.5 -37.5t-41.5 -39.5t-37 -31q-23 -23 -36 -54zM104 0h-49l261 261h49l-93 -93h-23v-23zM321 168l273 273v-49l-224 -224h-49zM50 338v49l148 148l39 -2q0 29 20 52t55 23h8zM398 0h-49l33 33h2v2
l210 210v-49zM384 133l210 210v-49l-210 -210v49zM50 44v49l206 206v-38h11zM50 583l196 196h49l-44 -44q-54 -14 -93 -53.5t-54 -93.5l-54 -54v49zM537 482l57 57v-49l-216 -216v7q0 12 2.5 21t11 18.5t12.5 13.5t21 16t23 16q1 1 10 7.5t14 10.5t14.5 12.5t15.5 16.5
t13.5 18.5t13 23.5t8.5 27zM50 681l98 98h49l-147 -147v49zM496 0h-49l147 147v-49zM459 698l81 81h49l-104 -104q-25 22 -26 23zM50 436v49l56 56l46 -3zM506 647l88 88v-49l-70 -70q-6 13 -18 31zM202 0h-49l96 96v-49zM395 732l47 47h49l-62 -62q-15 8 -34 15zM536 579
l58 58v-49l-52 -52q0 13 -6 43zM307 742l37 37h49l-38 -38q-18 2 -28 2q-2 0 -6.5 -0.5t-6.5 -0.5h-7zM300 0h-49l33 33h49zM594 49v-49h-49zM50 779h49l-49 -49v49z" />
    <glyph glyph-name=".null" horiz-adv-x="0" 
 />
    <glyph glyph-name="nonmarkingreturn" horiz-adv-x="333" 
 />
    <glyph glyph-name="NULL" horiz-adv-x="0" 
 />
    <glyph glyph-name="NULL" horiz-adv-x="0" 
 />
    <glyph glyph-name="CR" unicode="&#xd;" horiz-adv-x="0" 
 />
    <glyph glyph-name="space" unicode=" " horiz-adv-x="274" 
 />
    <glyph glyph-name="exclam" unicode="!" horiz-adv-x="256" 
d="M121 186h-30q36 285 69 461l12 68h56l-12 -68q-26 -141 -95 -461zM45 0l19 104h56l-19 -104h-56z" />
    <glyph glyph-name="quotedbl" unicode="&#x22;" horiz-adv-x="324" 
d="M142 451h-34q1 7 15.5 121.5t18.5 142.5h60zM264 451h-34q1 7 15.5 121.5t18.5 142.5h60z" />
    <glyph glyph-name="numbersign" unicode="#" 
d="M275 0l74 240h-191l-74 -240h-33l74 240h-110l10 32h111l59 191h-112l9 32h112l69 220h33l-68 -220h190l69 220h33l-68 -220h104l-9 -32h-105l-59 -191h106l-10 -32h-107l-74 -240h-33zM228 463l-59 -191h191l59 191h-191z" />
    <glyph glyph-name="dollar" unicode="$" 
d="M10 206h55q2 -79 57.5 -123t144.5 -44q90 0 137 40.5t47 106.5q0 51 -42.5 85.5t-114.5 65.5l-40 18q-88 39 -126.5 79t-38.5 108q0 83 60.5 130.5t162.5 49.5l19 106h52l-19 -109q88 -11 136.5 -60t49.5 -132h-56q-3 73 -51.5 111t-128.5 38q-74 0 -120 -33t-46 -93
q0 -52 32.5 -84t105.5 -65l47 -21q88 -40 132 -80.5t44 -106.5q0 -92 -69 -146t-177 -54h-9l-19 -111h-52l20 115q-88 13 -139.5 66t-53.5 143z" />
    <glyph glyph-name="percent" unicode="%" horiz-adv-x="879" 
d="M645 16q38 0 66 20.5t42.5 53.5t21.5 68t7 71q0 53 -26 84t-75 31q-38 0 -66.5 -20.5t-43.5 -54t-22 -68.5t-7 -71q0 -52 26.5 -83t76.5 -31zM229 0l399 715h45l-403 -715h-41zM640 -17q-66 0 -102 37.5t-36 105.5q0 42 9 82.5t28.5 80t57 63.5t87.5 24q66 0 102 -37.5
t36 -105.5q0 -42 -9 -82.5t-28.5 -80t-57 -63.5t-87.5 -24zM217 365q38 0 66 20.5t42.5 53.5t21.5 68t7 71q0 53 -26 84t-75 31q-38 0 -66.5 -20.5t-43.5 -54t-22 -68.5t-7 -71q0 -52 26.5 -83t76.5 -31zM212 332q-66 0 -102 37.5t-36 105.5q0 42 9 82.5t28.5 80t57 63.5
t87.5 24q66 0 102 -37.5t36 -105.5q0 -42 -9 -82.5t-28.5 -80t-57 -63.5t-87.5 -24z" />
    <glyph glyph-name="ampersand" unicode="&#x26;" horiz-adv-x="659" 
d="M593 376l50 -5q-54 -112 -145 -222q44 -61 90 -119l-43 -30l-81 108q-107 -122 -245 -122q-86 0 -133 49t-47 125q0 42 17 79t49.5 66t67 51t81.5 44q-67 89 -67 169q0 65 46.5 109.5t125.5 44.5q74 0 115 -33t41 -91q0 -71 -51 -120.5t-140 -91.5q80 -119 146 -205
q74 92 123 194zM302 421q77 35 119.5 75t42.5 98q0 42 -29.5 66t-78.5 24q-55 0 -86 -31.5t-31 -82.5q0 -42 16.5 -75.5t46.5 -73.5zM436 142q-118 162 -161 226q-40 -20 -65 -35.5t-55.5 -40.5t-45.5 -56.5t-15 -69.5q0 -63 37 -99.5t101 -36.5q112 0 204 112z" />
    <glyph glyph-name="quotesingle" unicode="'" horiz-adv-x="202" 
d="M142 451h-34q1 7 15.5 121.5t18.5 142.5h60z" />
    <glyph glyph-name="parenleft" unicode="(" horiz-adv-x="287" 
d="M37 199q0 162 78 312.5t217 244.5l-10 -57q-231 -216 -231 -492q0 -184 90 -306l-10 -57q-60 50 -97 148.5t-37 206.5z" />
    <glyph glyph-name="parenright" unicode=")" horiz-adv-x="287" 
d="M248 401q0 -163 -78 -312.5t-217 -244.5l10 57q231 215 231 498q0 178 -90 300l10 57q58 -54 96 -152.5t38 -202.5z" />
    <glyph glyph-name="asterisk" unicode="*" horiz-adv-x="452" 
d="M319 709l-32 -145l146 27l6 -44l-148 -14l71 -130l-39 -20l-60 136l-102 -107l-30 31l110 99l-134 63l21 40l128 -75l19 146z" />
    <glyph glyph-name="plus" unicode="+" 
d="M62 298v46h197v206h48v-206h197v-46h-197v-205h-48v205h-197z" />
    <glyph glyph-name="comma" unicode="," horiz-adv-x="236" 
d="M128 111l-120 -232h-49l108 232h61z" />
    <glyph glyph-name="hyphen" unicode="-" horiz-adv-x="416" 
d="M65 270l9 48h272l-9 -48h-272z" />
    <glyph glyph-name="period" unicode="." horiz-adv-x="204" 
d="M20 0l19 111h59l-19 -111h-59z" />
    <glyph glyph-name="slash" unicode="/" horiz-adv-x="368" 
d="M-30 -105l375 820h54l-375 -820h-54z" />
    <glyph glyph-name="zero" unicode="0" 
d="M236 30q73 0 123 47q62 56 97 188.5t35 246.5q0 78 -37 124.5t-115 46.5q-73 0 -123 -47q-61 -59 -94.5 -189.5t-33.5 -245.5q0 -83 34.5 -127t113.5 -44zM532 357q-11 -62 -25.5 -112t-39 -100t-55 -83.5t-76.5 -54.5t-103 -21q-105 0 -152 53.5t-48 159.5q0 78 14 154
q12 64 25 113t37 101t54 85.5t76.5 55t104.5 21.5q200 0 202 -218q0 -78 -14 -154z" />
    <glyph glyph-name="one" unicode="1" 
d="M250 0l99 558h-185l7 41h37q91 0 128.5 24t58.5 92h38l-127 -715h-56z" />
    <glyph glyph-name="two" unicode="2" 
d="M458 0h-456l9 47q184 138 239 182q7 6 42.5 34.5t48 39.5t41.5 37.5t41.5 45.5t29.5 46t23.5 55.5t6.5 58.5q0 67 -38.5 102t-112.5 35q-157 0 -187 -182h-54q10 101 75.5 164.5t171.5 63.5q96 0 149.5 -46t53.5 -127q0 -55 -20 -105.5t-60 -96t-76.5 -77.5t-92.5 -74
q-167 -124 -212 -155h387z" />
    <glyph glyph-name="three" unicode="3" 
d="M22 196h54q1 -80 46.5 -123t124.5 -43q86 0 137 48.5t51 135.5q0 68 -49.5 109.5t-125.5 41.5h-17l7 43q57 0 102 13t77.5 49.5t32.5 93.5q0 56 -36.5 88.5t-97.5 32.5q-135 0 -166 -136h-52q15 81 72.5 130.5t150.5 49.5q87 0 136 -42.5t49 -111.5q0 -70 -42 -120
t-116 -67v-3q58 -18 94 -64t36 -108q0 -102 -66.5 -164.5t-179.5 -62.5q-105 0 -163.5 54.5t-58.5 155.5z" />
    <glyph glyph-name="four" unicode="4" 
d="M518 220l-8 -45h-111l-31 -175h-52l31 175h-348l6 34l298 343l142 163h50l-88 -495h111zM431 640h-2l-170 -203l-60 -69q-12 -14 -41.5 -47.5t-39.5 -44.5q-8 -8 -16 -17.5t-18 -20.5t-16 -18h287l27 150q36 216 49 270z" />
    <glyph glyph-name="five" unicode="5" 
d="M74 343l107 372h360l-9 -48h-316l-80 -282q58 64 161 64q89 0 145.5 -54.5t56.5 -150.5q0 -113 -68.5 -185.5t-180.5 -72.5q-103 0 -162.5 54t-64.5 155h56q0 -72 46 -118.5t127 -46.5q87 0 139 59.5t52 146.5q0 77 -45.5 122.5t-118.5 45.5q-92 0 -150 -70z" />
    <glyph glyph-name="six" unicode="6" 
d="M548 531h-55q0 65 -36.5 109.5t-111.5 44.5q-93 0 -149 -77t-85 -244l-3 -14h2q22 42 74 71.5t121 29.5q92 0 148 -53.5t56 -149.5q0 -112 -68.5 -187t-185.5 -75q-98 0 -156 57t-58 172q0 55 14 141q35 199 107.5 286t188.5 87q100 0 148.5 -56t48.5 -142zM290 407
q-87 0 -142 -59t-55 -148q0 -82 46 -126t123 -44q87 0 139 61t52 153q0 78 -42.5 120.5t-120.5 42.5z" />
    <glyph glyph-name="seven" unicode="7" 
d="M159 0h-63q112 191 216 351q6 9 90 138.5t117 177.5v1q-19 -1 -55 -1h-339l9 48h446l-8 -45l-34 -53q-27 -43 -81.5 -129t-83 -132t-70.5 -113.5t-76.5 -126t-67.5 -116.5z" />
    <glyph glyph-name="eight" unicode="8" 
d="M189 389q-86 50 -86 144q0 87 60.5 141.5t167.5 54.5q95 0 149.5 -44.5t54.5 -117.5q0 -67 -40.5 -116t-103.5 -70q116 -51 116 -168q0 -101 -71.5 -164t-190.5 -63q-104 0 -168.5 50t-64.5 139q0 79 47 134.5t130 79.5zM326 684q-74 0 -120 -37t-46 -106
q0 -65 38 -101.5t108 -36.5q72 0 120 44t48 113q0 57 -40.5 90.5t-107.5 33.5zM275 361q-87 0 -146.5 -49t-59.5 -132q0 -71 49.5 -111t128.5 -40q94 0 149.5 50.5t55.5 136.5q0 66 -49 105.5t-128 39.5z" />
    <glyph glyph-name="nine" unicode="9" 
d="M30 184h55q0 -65 36.5 -109.5t111.5 -44.5q93 0 149 77t85 244l3 14h-2q-24 -43 -75 -72t-120 -29q-92 0 -148 53.5t-56 149.5q0 112 68.5 187t185.5 75q98 0 156 -57t58 -172q0 -55 -14 -141q-35 -200 -107.5 -286.5t-188.5 -86.5q-100 0 -148.5 56t-48.5 142zM288 308
q88 0 142.5 58.5t54.5 148.5q0 82 -46 126t-123 44q-87 0 -139 -61t-52 -153q0 -78 42.5 -120.5t120.5 -42.5z" />
    <glyph glyph-name="colon" unicode=":" horiz-adv-x="202" 
d="M17 0l20 111h59l-20 -111h-59zM84 379l20 111h59l-20 -111h-59z" />
    <glyph glyph-name="semicolon" unicode=";" horiz-adv-x="255" 
d="M119 379l19 111h59l-19 -111h-59zM139 111l-119 -232h-50l108 232h61z" />
    <glyph glyph-name="less" unicode="&#x3c;" 
d="M62 297v53q93 48 396 210v-51l-352 -183v-3q8 -4 152.5 -81t199.5 -104v-51q-303 162 -396 210z" />
    <glyph glyph-name="equal" unicode="=" 
d="M59 210v46h442v-46h-442zM59 391v46h442v-46h-442z" />
    <glyph glyph-name="greater" unicode="&#x3e;" 
d="M498 350v-53q-93 -48 -396 -210v51q49 25 193 101.5t159 83.5v3l-352 183v51q303 -162 396 -210z" />
    <glyph glyph-name="question" unicode="?" horiz-adv-x="496" 
d="M248 201h-49q10 61 34.5 100t75.5 78l18 14q27 22 43 37t36.5 38t30 49t9.5 55q0 49 -36 80.5t-104 31.5q-76 0 -121.5 -45t-56.5 -128h-52q8 98 71.5 158t161.5 60q88 0 139.5 -42t51.5 -109q0 -62 -31.5 -107.5t-93.5 -95.5l-14 -11q-58 -46 -81 -76t-32 -87zM160 0
l16 92h55l-16 -92h-55z" />
    <glyph glyph-name="at" unicode="@" horiz-adv-x="839" 
d="M590 531h46l-44 -250q-7 -37 -7 -48q0 -42 44 -42q57 0 96.5 66t39.5 160q0 128 -82.5 203.5t-224.5 75.5q-147 0 -248 -98.5t-101 -251.5q0 -149 99 -242.5t249 -93.5q62 0 110 14t72.5 29t63.5 46l31 -20q-110 -104 -285 -104q-170 0 -277.5 102t-107.5 267
q0 164 112.5 275.5t282.5 111.5q152 0 248.5 -84t96.5 -219q0 -128 -57.5 -199.5t-137.5 -71.5q-63 0 -74 52q-16 -19 -51 -36.5t-80 -17.5q-70 0 -112.5 43t-42.5 120q0 88 53 154.5t142 66.5q102 0 133 -77q3 19 13 69zM447 502q-68 0 -105.5 -54.5t-37.5 -127.5
q0 -130 114 -130q72 0 107.5 54.5t35.5 130.5q0 127 -114 127z" />
    <glyph glyph-name="A" unicode="A" horiz-adv-x="671" 
d="M-36 0l415 715h65l161 -715h-56l-54 247h-332l-140 -247h-59zM403 667h-2q-152 -268 -172 -305l-40 -68h295l-16 77q-7 33 -31 137.5t-34 158.5z" />
    <glyph glyph-name="B" unicode="B" horiz-adv-x="636" 
d="M47 0l127 715h184q72 0 117 -10q120 -28 120 -140q0 -77 -44 -129t-106 -68q122 -30 122 -143q0 -142 -131 -197q-68 -28 -184 -28h-205zM162 344l-52 -296h185q86 0 136 29q78 45 78 145q0 65 -46.5 93.5t-137.5 28.5h-163zM219 667l-49 -278h157q101 0 155 43t54 122
q0 64 -46 88.5t-146 24.5h-125z" />
    <glyph glyph-name="C" unicode="C" horiz-adv-x="777" 
d="M668 207l59 1q-46 -104 -131.5 -163t-207.5 -59q-144 0 -236.5 85t-92.5 238q0 113 43.5 207.5t131.5 153.5t206 59q125 0 208 -60t109 -169h-58q-24 87 -92 135t-171 48q-77 0 -139.5 -31.5t-101 -83.5t-58.5 -116.5t-20 -133.5q0 -135 72 -210.5t199 -75.5
q192 0 280 175z" />
    <glyph glyph-name="D" unicode="D" horiz-adv-x="716" 
d="M47 0l127 715h106q96 0 145 -8q119 -19 184.5 -87t65.5 -201q0 -168 -89 -279q-35 -45 -79 -74t-98 -43t-103.5 -18.5t-117.5 -4.5h-141zM221 668l-110 -621h125q129 0 212 43q170 88 170 328q0 168 -141 227q-55 23 -151 23h-105z" />
    <glyph glyph-name="E" unicode="E" horiz-adv-x="593" 
d="M47 0l127 715h434l-9 -48h-379l-49 -277h355l-8 -48h-356l-52 -294h387l-9 -48h-441z" />
    <glyph glyph-name="F" unicode="F" horiz-adv-x="580" 
d="M101 0h-54l127 715h422l-9 -48h-368l-49 -277h347l-8 -48h-347z" />
    <glyph glyph-name="G" unicode="G" horiz-adv-x="790" 
d="M371 -13q-134 0 -223 86t-89 238q0 112 43.5 206t132 153t205.5 59q126 0 208.5 -60t108.5 -169h-58q-24 87 -92 135t-171 48q-77 0 -139.5 -31t-101 -82.5t-58.5 -115t-20 -132.5q0 -132 71 -211t189 -79q67 0 122 24t90 64.5t56.5 86.5t31.5 98h-291l9 48h342l-63 -353
h-54l12 63l10 48l6 27q-43 -71 -115.5 -111t-161.5 -40z" />
    <glyph glyph-name="H" unicode="H" horiz-adv-x="703" 
d="M618 715h56l-127 -715h-56l61 342h-388l-61 -342h-56l127 715h56l-58 -325h388z" />
    <glyph glyph-name="I" unicode="I" horiz-adv-x="259" 
d="M174 715h56l-127 -715h-56z" />
    <glyph glyph-name="J" unicode="J" horiz-adv-x="462" 
d="M383 715h56l-91 -515q-18 -106 -58 -160t-134 -54q-157 0 -157 156q0 9 2 31h53q-1 -9 -1 -26q0 -118 106 -118q28 0 49 9t34.5 23.5t24 41.5t16.5 53t13 69z" />
    <glyph glyph-name="K" unicode="K" horiz-adv-x="583" 
d="M47 0l127 715h55l-59 -330q88 71 231 189.5t169 140.5h76l-156 -127q-29 -23 -85.5 -69t-99.5 -81t-73 -60q44 -60 147.5 -192t143.5 -186h-70q-13 18 -115.5 151t-169.5 225l-66 -376h-55z" />
    <glyph glyph-name="L" unicode="L" horiz-adv-x="525" 
d="M174 715h54l-118 -667h353l-9 -48h-407z" />
    <glyph glyph-name="M" unicode="M" horiz-adv-x="823" 
d="M47 0l127 715h85l69 -427q5 -27 35 -232h1q61 121 124 239l225 420h81l-127 -715h-54l64 362q28 160 59 302h-1q-91 -182 -152 -294l-203 -370h-57l-77 470q-23 128 -28 193h-1q-13 -98 -45 -262l-71 -401h-54z" />
    <glyph glyph-name="N" unicode="N" horiz-adv-x="721" 
d="M565 0h-72l-184 433q-75 176 -90 225h-2q-2 -17 -51 -301l-63 -357h-56l128 715h75l185 -439q70 -166 87 -215h2q4 18 18 112t21 130l73 412h56z" />
    <glyph glyph-name="O" unicode="O" horiz-adv-x="819" 
d="M444 729q149 0 242 -85.5t93 -227.5q0 -187 -105.5 -308.5t-283.5 -121.5q-147 0 -239 85t-92 238q0 84 26 159.5t73.5 134t121.5 92.5t164 34zM440 683q-79 0 -142 -31.5t-102 -83.5t-59.5 -116.5t-20.5 -133.5q0 -137 72.5 -211.5t202.5 -74.5q82 0 146.5 32t104 86.5
t60 122t20.5 142.5q0 123 -76.5 195.5t-205.5 72.5z" />
    <glyph glyph-name="P" unicode="P" horiz-adv-x="579" 
d="M47 0l127 715h141q121 0 180 -31q83 -44 83 -142q0 -133 -105 -198q-63 -41 -205 -41h-113l-55 -303h-53zM219 667l-56 -316h125q232 0 232 186q0 130 -191 130h-110z" />
    <glyph glyph-name="Q" unicode="Q" horiz-adv-x="819" 
d="M444 729q149 0 242 -85.5t93 -227.5q0 -120 -48 -216.5t-134 -153.5l81 -96h-63l-62 71q-73 -35 -163 -35q-147 0 -239 85t-92 238q0 84 26 159.5t73.5 134t121.5 92.5t164 34zM383 220h69l116 -139q75 49 114.5 138.5t39.5 195.5q0 123 -76.5 195.5t-205.5 72.5
q-79 0 -142 -31.5t-102 -83.5t-59.5 -116.5t-20.5 -133.5q0 -137 72.5 -211.5t202.5 -74.5q75 0 132 24z" />
    <glyph glyph-name="R" unicode="R" horiz-adv-x="596" 
d="M47 0l127 715h183q99 0 157 -34q71 -44 71 -135q0 -97 -60 -156.5t-165 -71.5l142 -318h-62l-137 313h-145l-56 -313h-55zM221 667l-54 -307h131q114 0 170 45q28 21 44 57.5t16 77.5q0 69 -47.5 98t-140.5 29h-119z" />
    <glyph glyph-name="S" unicode="S" horiz-adv-x="603" 
d="M25 203h57q2 -80 58.5 -125.5t147.5 -45.5q90 0 138.5 41.5t48.5 108.5q0 89 -160 155l-41 18q-89 38 -128.5 80t-39.5 113q0 85 63.5 133t169.5 48q111 0 174 -51t64 -148h-58q-3 76 -52 114.5t-131 38.5q-76 0 -123 -34t-47 -95q0 -53 33 -85t108 -67l48 -22
q90 -40 135 -81t45 -109q0 -94 -70.5 -149t-180.5 -55q-115 0 -186 55.5t-73 161.5z" />
    <glyph glyph-name="T" unicode="T" horiz-adv-x="523" 
d="M178 0l118 667h-215l9 48h485l-9 -48h-214l-118 -667h-56z" />
    <glyph glyph-name="U" unicode="U" horiz-adv-x="681" 
d="M295 -14q-104 0 -160.5 50t-56.5 145q0 43 9 89l78 445h56l-79 -446q-7 -43 -7 -78q0 -160 170 -160q103 0 151.5 60.5t71.5 190.5l77 433h56l-80 -451q-20 -106 -48 -154q-35 -62 -91.5 -93t-146.5 -31z" />
    <glyph glyph-name="V" unicode="V" horiz-adv-x="647" 
d="M270 46h2q4 8 120 224l239 445h61l-391 -715h-73q-19 100 -70.5 380t-62.5 335h58l79 -451q4 -23 18 -98.5t20 -119.5z" />
    <glyph glyph-name="W" unicode="W" horiz-adv-x="839" 
d="M871 715l-281 -715h-80l-17 391q-3 55 -6 148t-5 133h-2q-62 -160 -123 -310l-148 -362h-81l-21 715h57l8 -454q1 -19 3.5 -74.5t2.5 -67.5t-1 -75h3q17 49 47 123t37 93l185 455h81l19 -447q7 -194 7 -225h2l85 226l172 446h56z" />
    <glyph glyph-name="X" unicode="X" horiz-adv-x="607" 
d="M26 0h-68q280 316 325 368q-94 177 -186 347h62q36 -74 70 -138.5t59 -109t32 -58.5q180 208 261 306h70q-27 -30 -134 -152.5t-170 -191.5l200 -371h-65l-174 327q-44 -51 -102.5 -119.5t-100 -116.5t-79.5 -91z" />
    <glyph glyph-name="Y" unicode="Y" horiz-adv-x="598" 
d="M211 0l48 272l-170 443h61q21 -58 74.5 -198.5t71.5 -189.5q135 180 287 388h66l-335 -443l-48 -272h-55z" />
    <glyph glyph-name="Z" unicode="Z" horiz-adv-x="576" 
d="M-21 0l8 41q9 10 50.5 58t65.5 75l338 385q19 22 93 108h-431l9 48h501l-8 -42q-30 -36 -112 -130l-319 -366q-76 -84 -114 -129h432l-9 -48h-504z" />
    <glyph glyph-name="bracketleft" unicode="[" horiz-adv-x="293" 
d="M190 -71l-7 -42h-156l145 828h156l-7 -42h-103l-131 -744h103z" />
    <glyph glyph-name="backslash" unicode="\" horiz-adv-x="458" 
d="M154 715l202 -820h-54l-202 820h54z" />
    <glyph glyph-name="bracketright" unicode="]" horiz-adv-x="292" 
d="M-37 -113l7 42h102l131 744h-103l7 42h156l-145 -828h-155z" />
    <glyph glyph-name="asciicircum" unicode="^" 
d="M256 683h51q10 -18 211 -395h-57q-27 54 -100 192.5t-78 149.5h-3q-6 -13 -178 -342h-56q17 31 92 174t118 221z" />
    <glyph glyph-name="underscore" unicode="_" horiz-adv-x="618" 
d="M-7 -135l7 44h476l-7 -44h-476z" />
    <glyph glyph-name="grave" unicode="`" horiz-adv-x="429" 
d="M242 596l-138 119h80l118 -119h-60z" />
    <glyph glyph-name="a" unicode="a" horiz-adv-x="543" 
d="M134 368h-55q15 77 70 124t145 47q83 0 131.5 -39.5t48.5 -115.5q0 -37 -7 -77q-4 -26 -14 -78t-22 -120q-13 -78 -9 -109h-51q-2 45 9 97q-30 -48 -82 -77.5t-122 -29.5q-75 0 -118.5 35.5t-43.5 93.5q0 38 16.5 67t40 46t62 30.5t68.5 19t73 11.5q59 9 140 15
q7 37 7 62q0 124 -132 124q-127 0 -155 -126zM401 233q6 31 7 34q-87 -8 -161 -21q-92 -18 -125 -38q-49 -29 -49 -81q0 -45 31.5 -69.5t87.5 -24.5q77 0 134.5 51.5t74.5 148.5z" />
    <glyph glyph-name="b" unicode="b" horiz-adv-x="613" 
d="M82 0h-53l126 715h55l-27 -149q-1 -4 -10 -51.5t-13 -67.5q67 92 187 92q94 0 153.5 -63t59.5 -172q0 -134 -77 -225.5t-191 -91.5q-77 0 -125.5 34.5t-65.5 88.5l-6 -34q-2 -11 -6.5 -38t-6.5 -38zM292 32q96 0 153 77t57 192q0 89 -43.5 141t-128.5 52q-69 0 -118 -41
t-70.5 -101.5t-21.5 -131.5q0 -86 44 -137t128 -51z" />
    <glyph glyph-name="c" unicode="c" horiz-adv-x="584" 
d="M544 353h-55q-30 141 -177 141q-101 0 -160 -77.5t-59 -188.5q0 -93 47.5 -144.5t131.5 -51.5q140 0 198 135h54q-31 -83 -97 -131.5t-157 -48.5q-107 0 -169.5 63.5t-62.5 175.5q0 130 78 221.5t199 91.5q98 0 156.5 -49t72.5 -137z" />
    <glyph glyph-name="d" unicode="d" horiz-adv-x="613" 
d="M476 0h-50l17 86q-67 -99 -193 -99q-93 0 -152.5 63t-59.5 172q0 135 77 226t191 91q74 0 123.5 -34.5t66.5 -87.5q2 21 6 43q7 50 16 93l29 162h56zM306 494q-96 0 -153 -77t-57 -192q0 -87 44 -140t128 -53q101 0 155.5 81.5t54.5 192.5q0 86 -44 137t-128 51z" />
    <glyph glyph-name="e" unicode="e" horiz-adv-x="592" 
d="M543 258h-451q0 -4 -0.5 -12t-0.5 -12q0 -95 46 -148.5t136 -53.5q131 0 195 118h56q-80 -163 -254 -163q-108 0 -170 64t-62 175q0 130 77 221.5t204 91.5q108 0 167 -67t59 -177q0 -13 -2 -37zM314 494q-85 0 -140.5 -53t-74.5 -138h392q-2 88 -47.5 139.5t-129.5 51.5
z" />
    <glyph glyph-name="f" unicode="f" horiz-adv-x="266" 
d="M321 716l-7 -43q-14 2 -27 2q-34 0 -53 -18t-27 -63l-12 -69h93l-8 -41h-93l-85 -484h-55l85 484h-69l8 41h69l12 69q21 125 134 125q27 0 35 -3z" />
    <glyph glyph-name="g" unicode="g" horiz-adv-x="615" 
d="M231 -145q89 0 139.5 59.5t67.5 158.5q4 27 11 55h-2q-26 -43 -76 -72t-117 -29q-96 0 -153 59.5t-57 166.5q0 117 68.5 201t185.5 84q78 0 129.5 -34t70.5 -91l20 112h54l-77 -430q-18 -105 -51 -162q-69 -122 -219 -122q-96 0 -151 49t-57 123h57q2 -22 9.5 -41.5
t24 -40.5t48 -33.5t75.5 -12.5zM269 70q95 0 153.5 76.5t58.5 173.5q0 78 -50.5 126.5t-129.5 48.5q-89 0 -144.5 -69.5t-55.5 -166.5q0 -92 44.5 -140.5t123.5 -48.5z" />
    <glyph glyph-name="h" unicode="h" horiz-adv-x="570" 
d="M210 715l-30 -169l-13 -75q-5 -17 -6 -30q60 98 180 98q75 0 118 -39.5t43 -111.5q0 -28 -6 -66l-57 -322h-55l55 310q7 40 7 67q0 116 -126 116q-68 0 -117 -47t-61 -116l-58 -330h-55l126 715h55z" />
    <glyph glyph-name="i" unicode="i" horiz-adv-x="221" 
d="M122 525h55l-93 -525h-55zM192 604h-57l20 111h57z" />
    <glyph glyph-name="j" unicode="j" horiz-adv-x="221" 
d="M121 525h55l-102 -581q-14 -80 -45.5 -110.5t-97.5 -30.5q-17 0 -32 3l7 43q14 -2 24 -2q38 0 58.5 19.5t28.5 66.5zM191 604h-57l20 111h57z" />
    <glyph glyph-name="k" unicode="k" horiz-adv-x="470" 
d="M405 0h-69q-60 81 -122 170l-80 111l-50 -281h-55l127 715h55l-75 -424l108 91l166 143h74q-60 -51 -288 -241q104 -137 209 -284z" />
    <glyph glyph-name="l" unicode="l" horiz-adv-x="231" 
d="M161 715h55l-127 -715h-55z" />
    <glyph glyph-name="m" unicode="m" horiz-adv-x="919" 
d="M788 0h-55l55 310q7 40 7 67q0 116 -125 116q-67 0 -115 -47t-61 -116l-58 -330h-55l55 310q7 40 7 67q0 116 -125 116q-67 0 -115 -47t-61 -116l-58 -330h-55l78 445q11 58 14 80h55l-15 -84q62 98 178 98q64 0 104.5 -28.5t51.5 -82.5h1q22 40 75.5 75.5t121.5 35.5
q75 0 116.5 -39.5t41.5 -111.5q0 -28 -6 -66z" />
    <glyph glyph-name="n" unicode="n" horiz-adv-x="570" 
d="M29 0l78 445q11 58 14 80h55l-15 -84q60 98 180 98q75 0 118 -39.5t43 -111.5q0 -28 -6 -66l-57 -322h-55l55 310q7 40 7 67q0 116 -126 116q-68 0 -117 -47t-61 -116l-58 -330h-55z" />
    <glyph glyph-name="o" unicode="o" horiz-adv-x="614" 
d="M277 32q101 0 163.5 75t62.5 188q0 89 -50 144t-137 55q-104 0 -163.5 -77.5t-59.5 -188.5q0 -94 47.5 -145t136.5 -51zM275 -13q-111 0 -174 63t-63 174q0 134 76.5 224.5t207.5 90.5q110 0 174.5 -65t64.5 -174q0 -133 -78.5 -223t-207.5 -90z" />
    <glyph glyph-name="p" unicode="p" horiz-adv-x="613" 
d="M101 110q-2 -8 -4.5 -23.5t-3.5 -21.5q-2 -11 -7 -44t-9 -53l-26 -149h-55l126 706h54q-3 -14 -8.5 -40.5t-7.5 -37.5q67 92 187 92q94 0 153.5 -63t59.5 -172q0 -134 -77 -225.5t-191 -91.5q-77 0 -125.5 34.5t-65.5 88.5zM292 32q96 0 153 77t57 192q0 89 -43.5 141
t-128.5 52q-69 0 -118 -41t-70.5 -101.5t-21.5 -131.5q0 -86 44 -137t128 -51z" />
    <glyph glyph-name="q" unicode="q" horiz-adv-x="614" 
d="M390 -180l27 153l22 110q-65 -96 -189 -96q-93 0 -152.5 63t-59.5 172q0 135 77 226t191 91q74 0 123.5 -34.5t66.5 -87.5q1 7 5 33q8 56 13 75h55l-124 -705h-55zM306 494q-96 0 -153 -77t-57 -192q0 -87 44 -140t128 -53q101 0 155.5 81.5t54.5 192.5q0 86 -44 137
t-128 51z" />
    <glyph glyph-name="r" unicode="r" horiz-adv-x="299" 
d="M173 525l-15 -86q17 43 58.5 70.5t89.5 27.5q10 0 17 -1l-9 -51q-14 2 -25 2q-118 0 -150 -177l-55 -310h-55l79 446q12 74 13 79h52z" />
    <glyph glyph-name="s" unicode="s" horiz-adv-x="499" 
d="M13 159h58q2 -62 42.5 -94.5t111.5 -32.5q69 0 106 29.5t37 76.5q0 39 -25 58t-89 43l-48 18q-70 27 -101 56t-31 83q0 64 49.5 103.5t137.5 39.5t141 -41.5t54 -110.5h-54q-1 47 -39 77.5t-105 30.5q-64 0 -96 -26t-32 -65q0 -37 26 -59.5t88 -44.5l40 -15
q36 -14 56 -23.5t42.5 -25.5t32.5 -38t10 -51q0 -77 -59 -118.5t-147 -41.5q-92 0 -148 44.5t-58 127.5z" />
    <glyph glyph-name="t" unicode="t" horiz-adv-x="270" 
d="M126 484h-81l7 41h81l25 142h55l-25 -142h100l-7 -41h-100l-65 -368q-4 -16 -4 -35q0 -47 63 -47q7 0 16 1l-8 -41q-14 -2 -30 -2q-51 0 -74 18t-23 60q0 18 5 46z" />
    <glyph glyph-name="u" unicode="u" horiz-adv-x="567" 
d="M522 525l-78 -445q-11 -58 -14 -80h-55l15 84q-62 -98 -178 -98q-75 0 -117 39.5t-42 111.5q0 28 6 66l57 322h55l-55 -310q-7 -40 -7 -67q0 -116 124 -116q67 0 115 47t61 116l58 330h55z" />
    <glyph glyph-name="v" unicode="v" horiz-adv-x="511" 
d="M228 0h-61q-65 335 -104 525h59l51 -273q22 -120 33 -194h2q20 38 58.5 108t53.5 99l142 260h60q-24 -44 -141 -251.5t-153 -273.5z" />
    <glyph glyph-name="w" unicode="w" horiz-adv-x="792" 
d="M205 0h-66q-3 22 -12 92t-14 107q-19 131 -44 326h58l32 -270q2 -18 11 -89t13 -115h2q10 25 102 226l116 248h65l22 -236q2 -22 10.5 -106t11.5 -131h2q18 39 59.5 125t59.5 124l107 224h58q-18 -36 -74.5 -151t-87.5 -175l-99 -199h-70l-17 202q-20 203 -24 270h-3
q-12 -31 -60.5 -135.5t-63.5 -138.5z" />
    <glyph glyph-name="x" unicode="x" horiz-adv-x="489" 
d="M28 0h-62l240 266l-140 259h61q25 -56 115 -223q107 116 195 223h64q-31 -35 -116 -128.5t-117 -129.5q7 -12 66 -117t83 -150h-65q-17 34 -64.5 122.5t-56.5 106.5q-29 -34 -108 -122t-95 -107z" />
    <glyph glyph-name="y" unicode="y" horiz-adv-x="511" 
d="M122 -180h-55l102 177q-5 25 -46 227.5t-60 300.5h60q60 -312 88 -463h1q12 22 112 207t139 256h59q-192 -349 -400 -705z" />
    <glyph glyph-name="z" unicode="z" horiz-adv-x="489" 
d="M-21 0l7 39l301 312q83 83 126 131q-17 0 -83 -0.5t-86 -0.5h-169l8 44h408l-7 -39l-290 -302l-142 -141q18 0 75.5 0.5t80.5 0.5h195l-8 -44h-416z" />
    <glyph glyph-name="braceleft" unicode="{" horiz-adv-x="267" 
d="M37 295l5 29q38 4 55 26t27 81l30 172q12 70 33 91.5t73 21.5q4 0 11 -0.5t9 -0.5h8l-7 -42h-10q-32 0 -44 -12.5t-20 -55.5l-26 -151q-14 -80 -31.5 -106.5t-60.5 -38.5l-1 -2q29 -13 40 -28t11 -43q0 -30 -10 -81l-28 -153q-4 -25 -4 -38q0 -23 11 -28.5t42 -8.5
l-7 -40q-1 -1 -4 -1h-17q-42 0 -61 14t-19 49q0 17 7 59l32 178q5 33 5 48q0 28 -11 40t-38 21z" />
    <glyph glyph-name="bar" unicode="|" horiz-adv-x="256" 
d="M175 731h55l-139 -793h-55z" />
    <glyph glyph-name="braceright" unicode="}" horiz-adv-x="268" 
d="M229 311l-5 -29q-38 -4 -55 -26t-27 -81l-31 -176q-12 -70 -33 -91.5t-73 -21.5h-20q-5 0 -8 1l7 42h10q32 0 44.5 12t19.5 56l27 155q14 80 31.5 107.5t60.5 39.5l1 2q-29 13 -40 28t-11 43q0 23 10 79l27 149q4 25 4 38q0 23 -11 28.5t-42 8.5l7 40h4q1 0 6.5 0.5
t10.5 0.5q40 0 59.5 -14t19.5 -49q0 -23 -6 -59l-31 -174q-5 -33 -5 -48q0 -28 11 -40t38 -21z" />
    <glyph glyph-name="asciitilde" unicode="~" 
d="M295 266l-54 25q-59 27 -82 27q-55 0 -94 -71l-32 25q54 89 132 89q41 0 97 -29l54 -26q2 -1 17.5 -8.5t21.5 -10t18.5 -5.5t23.5 -3q55 0 94 71l34 -20q-51 -94 -131 -94q-34 0 -99 30z" />
    <glyph glyph-name="uni00A0" unicode="&#xa0;" horiz-adv-x="274" 
 />
    <glyph glyph-name="exclamdown" unicode="&#xa1;" horiz-adv-x="234" 
d="M108 337h30q-35 -273 -70 -464l-12 -69h-56l12 69q24 130 96 464zM185 525l-20 -105h-56l19 105h57z" />
    <glyph glyph-name="cent" unicode="&#xa2;" 
d="M530 353h-55q-25 119 -138 138l-82 -459h3q140 0 198 135h54q-31 -83 -97 -131.5t-157 -48.5h-9l-12 -69h-50l13 75q-82 16 -128 76.5t-46 156.5q0 129 75.5 219t195.5 94l15 83h50l-15 -86q78 -11 125.5 -58.5t59.5 -124.5zM79 228q0 -77 33.5 -126.5t93.5 -63.5l81 456
q-96 -6 -152 -82.5t-56 -183.5z" />
    <glyph glyph-name="sterling" unicode="&#xa3;" 
d="M448 48l-9 -48h-431l8 42q78 13 121.5 64t43.5 131q0 36 -15 111h-108l7 43h90q-15 69 -15 116q0 96 59 159t160 63q90 0 144 -48.5t54 -139.5h-51q-4 71 -44 106.5t-110 35.5q-75 0 -116 -47t-41 -122q0 -57 16 -120h176l-8 -46h-159q12 -60 12 -102q0 -138 -117 -197
v-2q8 0 39.5 0.5t42.5 0.5h251z" />
    <glyph glyph-name="currency" unicode="&#xa4;" 
d="M492 122l-47 47q-68 -55 -154 -55q-87 0 -155 55l-48 -48l-38 38l49 48q-53 69 -53 152q0 86 55 154l-50 50l38 37l49 -50q66 54 153 54q83 0 152 -53l48 49l38 -38l-49 -48q56 -69 56 -155q0 -87 -54 -153l47 -46zM90 359q0 -82 59.5 -141.5t141.5 -59.5t141.5 59.5
t59.5 141.5t-59.5 141.5t-141.5 59.5t-141.5 -59.5t-59.5 -141.5z" />
    <glyph glyph-name="yen" unicode="&#xa5;" 
d="M12 229l8 46h220l-56 144h-139l8 46h114l-96 250h61q21 -58 74.5 -198.5t71.5 -189.5q135 180 287 388h66l-189 -250h115l-8 -46h-142l-109 -144h226l-8 -46h-228l-40 -229h-55l40 229h-221z" />
    <glyph glyph-name="brokenbar" unicode="&#xa6;" horiz-adv-x="208" 
d="M98 428l53 303h55l-53 -303h-55zM12 -62l53 303h55l-53 -303h-55z" />
    <glyph glyph-name="section" unicode="&#xa7;" 
d="M296 488l86 -38q57 -25 85.5 -56.5t28.5 -77.5q0 -57 -39 -99.5t-100 -55.5q37 -25 55 -49.5t18 -62.5q0 -72 -56.5 -116t-152.5 -44q-86 0 -142.5 43t-60.5 129h58q2 -64 44 -95.5t106 -31.5q70 0 108.5 27.5t38.5 80.5q0 21 -6.5 36.5t-24.5 29.5t-30 20.5t-42 21.5
l-77 39q-62 30 -90 61t-28 81q0 55 37.5 92t97.5 49q-62 37 -62 104q0 68 52 109t135 41t138.5 -39.5t57.5 -112.5h-53q-5 53 -43 80.5t-102 27.5q-63 0 -96.5 -25t-33.5 -70q0 -35 22.5 -57t70.5 -42zM219 235l99 -50q53 11 88.5 41.5t35.5 77.5q0 38 -28.5 63t-88.5 51
l-68 29q-50 -4 -88 -31t-38 -74q0 -37 21.5 -61t66.5 -46z" />
    <glyph glyph-name="dieresis" unicode="&#xa8;" horiz-adv-x="491" 
d="M169 616l15 80h61l-15 -80h-61zM308 616l15 80h61l-15 -80h-61z" />
    <glyph glyph-name="copyright" unicode="&#xa9;" horiz-adv-x="866" 
d="M597 275h45q-53 -139 -202 -139q-94 0 -152.5 61.5t-58.5 160.5t59.5 160.5t154.5 61.5q78 0 129.5 -38t67.5 -107h-44q-33 110 -153 110q-79 0 -124 -51t-45 -135q0 -85 45 -136.5t124 -51.5q64 0 98.5 27.5t55.5 76.5zM819 360q0 -158 -110 -267.5t-268 -109.5
q-156 0 -265.5 110t-109.5 267t109.5 266.5t267.5 109.5q156 0 266 -110t110 -266zM784 360q0 144 -100 244.5t-241 100.5q-144 0 -243 -100.5t-99 -244.5q0 -145 99 -246t242 -101q142 0 242 101t100 246z" />
    <glyph glyph-name="ordfeminine" unicode="&#xaa;" horiz-adv-x="448" 
d="M163 454h-43q12 58 53 93.5t108 35.5q64 0 100 -29.5t36 -86.5q0 -26 -5 -58l-6 -35l-21 -113q-9 -50 -7 -82h-40q-2 38 5 67q-52 -74 -149 -74q-57 0 -90 26.5t-33 69.5q0 28 13 50.5t30.5 35t47 23t50.5 14.5t54 9q5 1 104 11q6 30 6 46q0 46 -26.5 68.5t-71.5 22.5
q-92 0 -115 -94zM361 354q0 2 1 4v3q2 16 3 17q-59 -4 -118 -15q-129 -20 -129 -89q0 -32 23 -50t65 -18q57 0 99 38t56 110z" />
    <glyph glyph-name="guillemotleft" unicode="&#xab;" horiz-adv-x="475" 
d="M255 473l-141 -184l70 -191h-51l-78 192l145 183h55zM442 473l-136 -184l65 -191h-49l-78 192l145 183h53z" />
    <glyph glyph-name="logicalnot" unicode="&#xac;" 
d="M28 409v46h503v-318h-48v272h-455z" />
    <glyph glyph-name="uni00AD" unicode="&#xad;" horiz-adv-x="394" 
d="M76 340l9 48h272l-9 -48h-272z" />
    <glyph glyph-name="registered" unicode="&#xae;" horiz-adv-x="574" 
d="M243 365v265h81q44 0 68.5 -18.5t24.5 -53.5q0 -66 -70 -77l69 -116h-32l-66 113h-48v-113h-27zM270 607v-107h47q72 0 72 56q0 51 -72 51h-47zM553 500q0 -98 -68.5 -166t-165.5 -68q-96 0 -164.5 68.5t-68.5 165.5t68 165t166 68q96 0 164.5 -68.5t68.5 -164.5z
M525 500q0 87 -60 147.5t-145 60.5q-87 0 -146.5 -60.5t-59.5 -147.5t59 -148t146 -61q86 0 146 60.5t60 148.5z" />
    <glyph glyph-name="macron" unicode="&#xaf;" horiz-adv-x="428" 
d="M93 635l7 39h244l-7 -39h-244z" />
    <glyph glyph-name="degree" unicode="&#xb0;" horiz-adv-x="438" 
d="M262 400q-70 0 -118.5 47.5t-48.5 116.5q0 70 48.5 117.5t118.5 47.5t118 -47.5t48 -117.5t-47.5 -117t-118.5 -47zM136 564q0 -51 37 -88t89 -37t88.5 36t36.5 89q0 52 -37 89t-88 37q-52 0 -89 -37t-37 -89z" />
    <glyph glyph-name="plusminus" unicode="&#xb1;" 
d="M44 0v46h442v-46h-442zM44 309v46h197v196h48v-196h197v-46h-197v-195h-48v195h-197z" />
    <glyph glyph-name="twosuperior" unicode="&#xb2;" horiz-adv-x="424" 
d="M350 283h-282l6 36q101 68 161 116q28 21 44.5 35t37.5 37t31 47.5t10 52.5q0 82 -89 82q-90 0 -108 -113h-40q6 65 46.5 106t105.5 41q60 0 93.5 -29.5t33.5 -80.5q0 -62 -40.5 -111t-113.5 -103q-11 -8 -117 -79h227z" />
    <glyph glyph-name="threesuperior" unicode="&#xb3;" horiz-adv-x="394" 
d="M71 409h36q0 -48 26.5 -73.5t72.5 -25.5q52 0 81.5 28t29.5 79q0 40 -29 64t-74 24h-11l3 29q53 0 90 22t37 70q0 32 -21 50.5t-57 18.5q-80 0 -97 -80h-35q9 50 43.5 80.5t91.5 30.5q55 0 84 -25.5t29 -68.5q0 -40 -25.5 -71t-69.5 -42q78 -23 78 -102q0 -63 -40 -100.5
t-109 -37.5q-64 0 -99.5 34t-34.5 96z" />
    <glyph glyph-name="acute" unicode="&#xb4;" horiz-adv-x="427" 
d="M356 715l-138 -119h-60l118 119h80z" />
    <glyph glyph-name="mu" unicode="&#xb5;" horiz-adv-x="573" 
d="M528 525l-78 -445q-11 -58 -14 -80h-55l15 84q-62 -98 -178 -98q-87 0 -128 50l-38 -216h-55l125 705h55l-55 -310q-7 -40 -7 -67q0 -116 124 -116q67 0 115 47t61 116l58 330h55z" />
    <glyph glyph-name="paragraph" unicode="&#xb6;" horiz-adv-x="566" 
d="M574 715l-7 -43h-65l-138 -785h-51l138 785h-137l-138 -785h-51l96 552q-69 0 -104 34t-35 91q0 93 85 133q34 18 116 18h291z" />
    <glyph glyph-name="periodcentered" unicode="&#xb7;" horiz-adv-x="203" 
d="M64 261l19 111h59l-19 -111h-59z" />
    <glyph glyph-name="cedilla" unicode="&#xb8;" horiz-adv-x="369" 
d="M139 -163l92 115h55l-75 -115h-72z" />
    <glyph glyph-name="onesuperior" unicode="&#xb9;" horiz-adv-x="256" 
d="M189 614h-102l5 30q58 2 86.5 18t38.5 53h32l-76 -431h-41z" />
    <glyph glyph-name="ordmasculine" unicode="&#xba;" horiz-adv-x="495" 
d="M263 205q75 0 121.5 56t46.5 139q0 67 -37 107t-102 40q-76 0 -120.5 -57.5t-44.5 -139.5q0 -69 35 -107t101 -38zM262 169q-84 0 -131.5 47.5t-47.5 130.5q0 102 57.5 169t155.5 67q84 0 132.5 -48.5t48.5 -130.5q0 -101 -58.5 -168t-156.5 -67z" />
    <glyph glyph-name="guillemotright" unicode="&#xbb;" horiz-adv-x="476" 
d="M214 98l141 186l-70 189h50l79 -192l-145 -183h-55zM27 98l136 186l-65 189h48l79 -192l-145 -183h-53z" />
    <glyph glyph-name="onequarter" unicode="&#xbc;" horiz-adv-x="753" 
d="M569 102h-218l6 31q143 164 260 303h49l-53 -302h72l-6 -32h-72l-18 -102h-38zM575 134l18 103q2 8 15 79.5t16 82.5h-1l-96 -116l-54 -64q-21 -26 -47 -56q-1 -1 -11 -12.5t-15 -16.5h175zM125 0l399 715h40l-402 -715h-37zM193 617h-103l5 27q59 2 87.5 18t38.5 53h28
l-76 -429h-38z" />
    <glyph glyph-name="onehalf" unicode="&#xbd;" horiz-adv-x="783" 
d="M684 0h-282l6 36q97 67 161 118q28 21 44.5 35t37.5 37t31 47.5t10 52.5q0 82 -89 82q-90 0 -108 -113h-40q6 65 46.5 106t105.5 41q60 0 93.5 -29.5t33.5 -80.5q0 -62 -40.5 -111t-113.5 -103q-14 -11 -117 -81h227zM122 0l399 715h45l-403 -715h-41zM191 614h-102l5 30
q58 2 86.5 18t38.5 53h32l-76 -431h-41z" />
    <glyph glyph-name="threequarters" unicode="&#xbe;" horiz-adv-x="847" 
d="M62 409h36q0 -48 26.5 -73.5t72.5 -25.5q52 0 81.5 28t29.5 79q0 40 -29 64t-74 24h-11l3 29q53 0 90 22t37 70q0 32 -21 50.5t-57 18.5q-80 0 -97 -80h-35q9 50 43.5 80.5t91.5 30.5q55 0 84 -25.5t29 -68.5q0 -40 -25.5 -71t-69.5 -42q78 -23 78 -102q0 -63 -40 -100.5
t-109 -37.5q-64 0 -99.5 34t-34.5 96zM665 102h-218l6 31q143 164 260 303h49l-53 -302h72l-6 -32h-72l-18 -102h-38zM671 134l18 103q2 8 15 79.5t16 82.5h-1l-96 -116l-54 -64q-20 -26 -47 -56q-1 -1 -11 -12.5t-15 -16.5h175zM221 0l399 715h40l-402 -715h-37z" />
    <glyph glyph-name="questiondown" unicode="&#xbf;" horiz-adv-x="486" 
d="M226 324h49q-10 -61 -34.5 -100t-75.5 -78l-18 -14q-27 -22 -43 -37t-36.5 -38t-30 -49t-9.5 -55q0 -49 36 -80.5t104 -31.5q76 0 121.5 45t56.5 128h52q-8 -98 -71.5 -158t-161.5 -60q-88 0 -139.5 42t-51.5 109q0 62 31.5 107.5t93.5 95.5l14 11q58 46 81 76t32 87z
M314 525l-16 -92h-55l16 92h55z" />
    <glyph glyph-name="Agrave" unicode="&#xc0;" horiz-adv-x="671" 
d="M-36 0l415 715h65l161 -715h-56l-54 247h-332l-140 -247h-59zM403 667h-2q-152 -268 -172 -305l-40 -68h295l-16 77q-7 33 -31 137.5t-34 158.5zM390 761l-136 115h80l116 -115h-60z" />
    <glyph glyph-name="Aacute" unicode="&#xc1;" horiz-adv-x="671" 
d="M-36 0l415 715h65l161 -715h-56l-54 247h-332l-140 -247h-59zM403 667h-2q-152 -268 -172 -305l-40 -68h295l-16 77q-7 33 -31 137.5t-34 158.5zM568 876l-136 -115h-60l116 115h80z" />
    <glyph glyph-name="Acircumflex" unicode="&#xc2;" horiz-adv-x="671" 
d="M-36 0l415 715h65l161 -715h-56l-54 247h-332l-140 -247h-59zM403 667h-2q-152 -268 -172 -305l-40 -68h295l-16 77q-7 33 -31 137.5t-34 158.5zM400 875h56q33 -50 78 -115h-48l-62 79l-88 -79h-55q14 13 119 115z" />
    <glyph glyph-name="Atilde" unicode="&#xc3;" horiz-adv-x="671" 
d="M-36 0l415 715h65l161 -715h-56l-54 247h-332l-140 -247h-59zM403 667h-2q-152 -268 -172 -305l-40 -68h295l-16 77q-7 33 -31 137.5t-34 158.5zM315 765h-42q6 89 73 89q27 0 76 -20q50 -21 63 -21q33 0 40 54h41q-8 -95 -79 -95q-27 0 -67 17q-51 23 -69 23
q-31 0 -36 -47z" />
    <glyph glyph-name="Adieresis" unicode="&#xc4;" horiz-adv-x="671" 
d="M-36 0l415 715h65l161 -715h-56l-54 247h-332l-140 -247h-59zM403 667h-2q-152 -268 -172 -305l-40 -68h295l-16 77q-7 33 -31 137.5t-34 158.5zM311 766l15 80h61l-15 -80h-61zM450 766l15 80h61l-15 -80h-61z" />
    <glyph glyph-name="Aring" unicode="&#xc5;" horiz-adv-x="671" 
d="M-36 0l415 715h65l161 -715h-56l-54 247h-332l-140 -247h-59zM403 667h-2q-152 -268 -172 -305l-40 -68h295l-16 77q-7 33 -31 137.5t-34 158.5zM428 751q-36 0 -60 24.5t-24 61.5q0 35 24.5 59.5t60.5 24.5t60.5 -24.5t24.5 -59.5q0 -37 -24.5 -61.5t-61.5 -24.5z
M374 837q0 -24 15.5 -40.5t38.5 -16.5q24 0 39.5 16t15.5 41q0 23 -15.5 39t-39.5 16q-23 0 -38.5 -16t-15.5 -39z" />
    <glyph glyph-name="AE" unicode="&#xc6;" horiz-adv-x="890" 
d="M905 715l-9 -48h-359l-44 -277h330l-8 -48h-328l-46 -294h353l-9 -48h-406l35 223h-251l-160 -223h-61l517 715h446zM421 270l30 185q9 50 19.5 118.5t15.5 96.5h-4l-125 -177l-160 -223h224z" />
    <glyph glyph-name="Ccedilla" unicode="&#xc7;" horiz-adv-x="777" 
d="M668 207l59 1q-46 -104 -131.5 -163t-207.5 -59q-144 0 -236.5 85t-92.5 238q0 113 43.5 207.5t131.5 153.5t206 59q125 0 208 -60t109 -169h-58q-24 87 -92 135t-171 48q-77 0 -139.5 -31.5t-101 -83.5t-58.5 -116.5t-20 -133.5q0 -135 72 -210.5t199 -75.5
q192 0 280 175zM255 -163l92 115h55l-75 -115h-72z" />
    <glyph glyph-name="Egrave" unicode="&#xc8;" horiz-adv-x="593" 
d="M47 0l127 715h434l-9 -48h-379l-49 -277h355l-8 -48h-356l-52 -294h387l-9 -48h-441zM390 761l-136 115h80l116 -115h-60z" />
    <glyph glyph-name="Eacute" unicode="&#xc9;" horiz-adv-x="593" 
d="M47 0l127 715h434l-9 -48h-379l-49 -277h355l-8 -48h-356l-52 -294h387l-9 -48h-441zM531 876l-136 -115h-60l116 115h80z" />
    <glyph glyph-name="Ecircumflex" unicode="&#xca;" horiz-adv-x="593" 
d="M47 0l127 715h434l-9 -48h-379l-49 -277h355l-8 -48h-356l-52 -294h387l-9 -48h-441zM386 875h56q33 -50 78 -115h-48l-62 79l-88 -79h-55q14 13 119 115z" />
    <glyph glyph-name="Edieresis" unicode="&#xcb;" horiz-adv-x="593" 
d="M47 0l127 715h434l-9 -48h-379l-49 -277h355l-8 -48h-356l-52 -294h387l-9 -48h-441zM295 766l15 80h61l-15 -80h-61zM434 766l15 80h61l-15 -80h-61z" />
    <glyph glyph-name="Igrave" unicode="&#xcc;" horiz-adv-x="259" 
d="M174 715h56l-127 -715h-56zM191 761l-136 115h80l116 -115h-60z" />
    <glyph glyph-name="Iacute" unicode="&#xcd;" horiz-adv-x="259" 
d="M174 715h56l-127 -715h-56zM363 876l-136 -115h-60l116 115h80z" />
    <glyph glyph-name="Icircumflex" unicode="&#xce;" horiz-adv-x="259" 
d="M174 715h56l-127 -715h-56zM199 875h56q33 -50 78 -115h-48l-62 79l-88 -79h-55q14 13 119 115z" />
    <glyph glyph-name="Idieresis" unicode="&#xcf;" horiz-adv-x="259" 
d="M174 715h56l-127 -715h-56zM110 766l15 80h61l-15 -80h-61zM249 766l15 80h61l-15 -80h-61z" />
    <glyph glyph-name="Eth" unicode="&#xd0;" horiz-adv-x="725" 
d="M37 338l8 47h79l59 330h106q96 0 145 -8q119 -19 184.5 -87t65.5 -201q0 -168 -89 -279q-35 -45 -79 -74t-98 -43t-103.5 -18.5t-117.5 -4.5h-141l60 338h-79zM230 668l-50 -283h164l-8 -47h-165l-51 -291h125q129 0 212 43q170 88 170 328q0 168 -141 227
q-55 23 -151 23h-105z" />
    <glyph glyph-name="Ntilde" unicode="&#xd1;" horiz-adv-x="721" 
d="M565 0h-72l-184 433q-75 176 -90 225h-2q-2 -17 -51 -301l-63 -357h-56l128 715h75l185 -439q70 -166 87 -215h2q4 18 18 112t21 130l73 412h56zM355 765h-42q6 89 73 89q27 0 76 -20q50 -21 63 -21q33 0 40 54h41q-8 -95 -79 -95q-27 0 -67 17q-51 23 -69 23
q-31 0 -36 -47z" />
    <glyph glyph-name="Ograve" unicode="&#xd2;" horiz-adv-x="819" 
d="M444 729q149 0 242 -85.5t93 -227.5q0 -187 -105.5 -308.5t-283.5 -121.5q-147 0 -239 85t-92 238q0 84 26 159.5t73.5 134t121.5 92.5t164 34zM440 683q-79 0 -142 -31.5t-102 -83.5t-59.5 -116.5t-20.5 -133.5q0 -137 72.5 -211.5t202.5 -74.5q82 0 146.5 32t104 86.5
t60 122t20.5 142.5q0 123 -76.5 195.5t-205.5 72.5zM460 761l-136 115h80l116 -115h-60z" />
    <glyph glyph-name="Oacute" unicode="&#xd3;" horiz-adv-x="819" 
d="M444 729q149 0 242 -85.5t93 -227.5q0 -187 -105.5 -308.5t-283.5 -121.5q-147 0 -239 85t-92 238q0 84 26 159.5t73.5 134t121.5 92.5t164 34zM440 683q-79 0 -142 -31.5t-102 -83.5t-59.5 -116.5t-20.5 -133.5q0 -137 72.5 -211.5t202.5 -74.5q82 0 146.5 32t104 86.5
t60 122t20.5 142.5q0 123 -76.5 195.5t-205.5 72.5zM625 876l-136 -115h-60l116 115h80z" />
    <glyph glyph-name="Ocircumflex" unicode="&#xd4;" horiz-adv-x="819" 
d="M444 729q149 0 242 -85.5t93 -227.5q0 -187 -105.5 -308.5t-283.5 -121.5q-147 0 -239 85t-92 238q0 84 26 159.5t73.5 134t121.5 92.5t164 34zM440 683q-79 0 -142 -31.5t-102 -83.5t-59.5 -116.5t-20.5 -133.5q0 -137 72.5 -211.5t202.5 -74.5q82 0 146.5 32t104 86.5
t60 122t20.5 142.5q0 123 -76.5 195.5t-205.5 72.5zM463 875h56q33 -50 78 -115h-48l-62 79l-88 -79h-55q14 13 119 115z" />
    <glyph glyph-name="Otilde" unicode="&#xd5;" horiz-adv-x="819" 
d="M444 729q149 0 242 -85.5t93 -227.5q0 -187 -105.5 -308.5t-283.5 -121.5q-147 0 -239 85t-92 238q0 84 26 159.5t73.5 134t121.5 92.5t164 34zM440 683q-79 0 -142 -31.5t-102 -83.5t-59.5 -116.5t-20.5 -133.5q0 -137 72.5 -211.5t202.5 -74.5q82 0 146.5 32t104 86.5
t60 122t20.5 142.5q0 123 -76.5 195.5t-205.5 72.5zM378 765h-42q6 89 73 89q27 0 76 -20q50 -21 63 -21q33 0 40 54h41q-8 -95 -79 -95q-27 0 -67 17q-51 23 -69 23q-31 0 -36 -47z" />
    <glyph glyph-name="Odieresis" unicode="&#xd6;" horiz-adv-x="819" 
d="M444 729q149 0 242 -85.5t93 -227.5q0 -187 -105.5 -308.5t-283.5 -121.5q-147 0 -239 85t-92 238q0 84 26 159.5t73.5 134t121.5 92.5t164 34zM440 683q-79 0 -142 -31.5t-102 -83.5t-59.5 -116.5t-20.5 -133.5q0 -137 72.5 -211.5t202.5 -74.5q82 0 146.5 32t104 86.5
t60 122t20.5 142.5q0 123 -76.5 195.5t-205.5 72.5zM367 766l15 80h61l-15 -80h-61zM506 766l15 80h61l-15 -80h-61z" />
    <glyph glyph-name="multiply" unicode="&#xd7;" 
d="M105 117l-32 32l171 172l-171 172l32 32l172 -171l172 171l32 -32l-171 -172l171 -172l-32 -32l-172 171z" />
    <glyph glyph-name="Oslash" unicode="&#xd8;" horiz-adv-x="819" 
d="M444 729q102 0 181 -42l65 88l40 -30l-64 -85q113 -86 113 -244q0 -187 -105.5 -308.5t-283.5 -121.5q-111 0 -191 49l-80 -107l-40 26l81 109q-101 87 -101 246q0 84 26 159.5t73.5 134t121.5 92.5t164 34zM722 415q0 131 -87 204l-406 -544q65 -43 162 -43
q82 0 146.5 32t104 86.5t60 122t20.5 142.5zM440 683q-79 0 -142 -31.5t-102 -83.5t-59.5 -116.5t-20.5 -133.5q0 -136 75 -213l404 542q-67 36 -155 36z" />
    <glyph glyph-name="Ugrave" unicode="&#xd9;" horiz-adv-x="681" 
d="M295 -14q-104 0 -160.5 50t-56.5 145q0 43 9 89l78 445h56l-79 -446q-7 -43 -7 -78q0 -160 170 -160q103 0 151.5 60.5t71.5 190.5l77 433h56l-80 -451q-20 -106 -48 -154q-35 -62 -91.5 -93t-146.5 -31zM410 761l-136 115h80l116 -115h-60z" />
    <glyph glyph-name="Uacute" unicode="&#xda;" horiz-adv-x="681" 
d="M295 -14q-104 0 -160.5 50t-56.5 145q0 43 9 89l78 445h56l-79 -446q-7 -43 -7 -78q0 -160 170 -160q103 0 151.5 60.5t71.5 190.5l77 433h56l-80 -451q-20 -106 -48 -154q-35 -62 -91.5 -93t-146.5 -31zM548 876l-136 -115h-60l116 115h80z" />
    <glyph glyph-name="Ucircumflex" unicode="&#xdb;" horiz-adv-x="681" 
d="M295 -14q-104 0 -160.5 50t-56.5 145q0 43 9 89l78 445h56l-79 -446q-7 -43 -7 -78q0 -160 170 -160q103 0 151.5 60.5t71.5 190.5l77 433h56l-80 -451q-20 -106 -48 -154q-35 -62 -91.5 -93t-146.5 -31zM407 875h56q33 -50 78 -115h-48l-62 79l-88 -79h-55
q14 13 119 115z" />
    <glyph glyph-name="Udieresis" unicode="&#xdc;" horiz-adv-x="681" 
d="M295 -14q-104 0 -160.5 50t-56.5 145q0 43 9 89l78 445h56l-79 -446q-7 -43 -7 -78q0 -160 170 -160q103 0 151.5 60.5t71.5 190.5l77 433h56l-80 -451q-20 -106 -48 -154q-35 -62 -91.5 -93t-146.5 -31zM310 766l15 80h61l-15 -80h-61zM449 766l15 80h61l-15 -80h-61z
" />
    <glyph glyph-name="Yacute" unicode="&#xdd;" horiz-adv-x="598" 
d="M211 0l48 272l-170 443h61q21 -58 74.5 -198.5t71.5 -189.5q135 180 287 388h66l-335 -443l-48 -272h-55zM508 876l-136 -115h-60l116 115h80z" />
    <glyph glyph-name="Thorn" unicode="&#xde;" horiz-adv-x="568" 
d="M175 715h53l-22 -121h88q121 0 180 -31q83 -44 83 -142q0 -133 -105 -198q-63 -41 -207 -41h-111l-33 -182h-54zM198 546l-56 -316h125q232 0 232 186q0 130 -191 130h-110z" />
    <glyph glyph-name="germandbls" unicode="&#xdf;" horiz-adv-x="563" 
d="M29 0l89 506q20 116 77 168q55 49 145 49q81 0 131 -40.5t50 -104.5q0 -63 -40 -111t-106 -62v-1q55 -15 92 -59.5t37 -108.5q0 -106 -74.5 -172.5t-201.5 -66.5q-14 0 -25 1l7 42h17q102 0 161.5 51t59.5 148q0 67 -46.5 103.5t-124.5 38.5l6 38q82 4 132 40.5t50 111.5
q0 51 -35 79.5t-97 28.5q-72 0 -107.5 -42t-50.5 -125l-91 -512h-55z" />
    <glyph glyph-name="agrave" unicode="&#xe0;" horiz-adv-x="543" 
d="M134 368h-55q15 77 70 124t145 47q83 0 131.5 -39.5t48.5 -115.5q0 -37 -7 -77q-4 -26 -14 -78t-22 -120q-13 -78 -9 -109h-51q-2 45 9 97q-30 -48 -82 -77.5t-122 -29.5q-75 0 -118.5 35.5t-43.5 93.5q0 38 16.5 67t40 46t62 30.5t68.5 19t73 11.5q59 9 140 15
q7 37 7 62q0 124 -132 124q-127 0 -155 -126zM401 233q6 31 7 34q-87 -8 -161 -21q-92 -18 -125 -38q-49 -29 -49 -81q0 -45 31.5 -69.5t87.5 -24.5q77 0 134.5 51.5t74.5 148.5zM314 596l-138 119h80l118 -119h-60z" />
    <glyph glyph-name="aacute" unicode="&#xe1;" horiz-adv-x="543" 
d="M134 368h-55q15 77 70 124t145 47q83 0 131.5 -39.5t48.5 -115.5q0 -37 -7 -77q-4 -26 -14 -78t-22 -120q-13 -78 -9 -109h-51q-2 45 9 97q-30 -48 -82 -77.5t-122 -29.5q-75 0 -118.5 35.5t-43.5 93.5q0 38 16.5 67t40 46t62 30.5t68.5 19t73 11.5q59 9 140 15
q7 37 7 62q0 124 -132 124q-127 0 -155 -126zM401 233q6 31 7 34q-87 -8 -161 -21q-92 -18 -125 -38q-49 -29 -49 -81q0 -45 31.5 -69.5t87.5 -24.5q77 0 134.5 51.5t74.5 148.5zM465 715l-138 -119h-60l118 119h80z" />
    <glyph glyph-name="acircumflex" unicode="&#xe2;" horiz-adv-x="543" 
d="M134 368h-55q15 77 70 124t145 47q83 0 131.5 -39.5t48.5 -115.5q0 -37 -7 -77q-4 -26 -14 -78t-22 -120q-13 -78 -9 -109h-51q-2 45 9 97q-30 -48 -82 -77.5t-122 -29.5q-75 0 -118.5 35.5t-43.5 93.5q0 38 16.5 67t40 46t62 30.5t68.5 19t73 11.5q59 9 140 15
q7 37 7 62q0 124 -132 124q-127 0 -155 -126zM401 233q6 31 7 34q-87 -8 -161 -21q-92 -18 -125 -38q-49 -29 -49 -81q0 -45 31.5 -69.5t87.5 -24.5q77 0 134.5 51.5t74.5 148.5zM305 715h56q13 -20 41 -62.5t37 -56.5h-48l-62 81l-88 -81h-55q22 20 64 63t55 56z" />
    <glyph glyph-name="atilde" unicode="&#xe3;" horiz-adv-x="543" 
d="M134 368h-55q15 77 70 124t145 47q83 0 131.5 -39.5t48.5 -115.5q0 -37 -7 -77q-4 -26 -14 -78t-22 -120q-13 -78 -9 -109h-51q-2 45 9 97q-30 -48 -82 -77.5t-122 -29.5q-75 0 -118.5 35.5t-43.5 93.5q0 38 16.5 67t40 46t62 30.5t68.5 19t73 11.5q59 9 140 15
q7 37 7 62q0 124 -132 124q-127 0 -155 -126zM401 233q6 31 7 34q-87 -8 -161 -21q-92 -18 -125 -38q-49 -29 -49 -81q0 -45 31.5 -69.5t87.5 -24.5q77 0 134.5 51.5t74.5 148.5zM218 613h-42q6 89 73 89q27 0 76 -20q50 -21 63 -21q33 0 40 54h41q-8 -95 -79 -95
q-27 0 -67 17q-51 23 -69 23q-31 0 -36 -47z" />
    <glyph glyph-name="adieresis" unicode="&#xe4;" horiz-adv-x="543" 
d="M134 368h-55q15 77 70 124t145 47q83 0 131.5 -39.5t48.5 -115.5q0 -37 -7 -77q-4 -26 -14 -78t-22 -120q-13 -78 -9 -109h-51q-2 45 9 97q-30 -48 -82 -77.5t-122 -29.5q-75 0 -118.5 35.5t-43.5 93.5q0 38 16.5 67t40 46t62 30.5t68.5 19t73 11.5q59 9 140 15
q7 37 7 62q0 124 -132 124q-127 0 -155 -126zM401 233q6 31 7 34q-87 -8 -161 -21q-92 -18 -125 -38q-49 -29 -49 -81q0 -45 31.5 -69.5t87.5 -24.5q77 0 134.5 51.5t74.5 148.5zM214 616l15 80h61l-15 -80h-61zM353 616l15 80h61l-15 -80h-61z" />
    <glyph glyph-name="aring" unicode="&#xe5;" horiz-adv-x="543" 
d="M134 368h-55q15 77 70 124t145 47q83 0 131.5 -39.5t48.5 -115.5q0 -37 -7 -77q-4 -26 -14 -78t-22 -120q-13 -78 -9 -109h-51q-2 45 9 97q-30 -48 -82 -77.5t-122 -29.5q-75 0 -118.5 35.5t-43.5 93.5q0 38 16.5 67t40 46t62 30.5t68.5 19t73 11.5q59 9 140 15
q7 37 7 62q0 124 -132 124q-127 0 -155 -126zM401 233q6 31 7 34q-87 -8 -161 -21q-92 -18 -125 -38q-49 -29 -49 -81q0 -45 31.5 -69.5t87.5 -24.5q77 0 134.5 51.5t74.5 148.5zM326 591q-36 0 -60 24.5t-24 61.5q0 35 24.5 59.5t60.5 24.5t60.5 -24.5t24.5 -59.5
q0 -37 -24.5 -61.5t-61.5 -24.5zM272 677q0 -24 15.5 -40.5t38.5 -16.5q24 0 39.5 16t15.5 41q0 23 -15.5 39t-39.5 16q-23 0 -38.5 -16t-15.5 -39z" />
    <glyph glyph-name="ae" unicode="&#xe6;" horiz-adv-x="954" 
d="M905 258h-448q0 -4 -0.5 -12t-0.5 -12q0 -96 45 -149t135 -53q130 0 194 118h56q-80 -163 -253 -163q-84 0 -140.5 39.5t-77.5 111.5q-31 -64 -91.5 -106t-148.5 -42q-74 0 -117.5 35.5t-43.5 93.5q0 36 14 63.5t40 45t58 30.5t74 20.5t82.5 12.5t87.5 9q30 3 44 4
q7 37 7 66q0 124 -132 124q-127 0 -155 -126h-55q15 77 70 124t145 47q68 0 112 -29.5t58 -84.5q79 114 218 114q107 0 166 -67t59 -177q0 -13 -2 -37zM677 494q-85 0 -139.5 -53t-73.5 -138h389q-2 88 -47 139.5t-129 51.5zM401 233l7 30q-19 -2 -52.5 -5.5t-53.5 -6
t-50 -7t-48.5 -9t-41.5 -11.5t-37 -16t-27 -20.5t-19 -27t-6 -33.5q0 -45 31.5 -69.5t87.5 -24.5q77 0 134.5 51.5t74.5 148.5z" />
    <glyph glyph-name="ccedilla" unicode="&#xe7;" horiz-adv-x="584" 
d="M544 353h-55q-30 141 -177 141q-101 0 -160 -77.5t-59 -188.5q0 -93 47.5 -144.5t131.5 -51.5q140 0 198 135h54q-31 -83 -97 -131.5t-157 -48.5q-107 0 -169.5 63.5t-62.5 175.5q0 130 78 221.5t199 91.5q98 0 156.5 -49t72.5 -137zM140 -163l92 115h55l-75 -115h-72z
" />
    <glyph glyph-name="egrave" unicode="&#xe8;" horiz-adv-x="592" 
d="M543 258h-451q0 -4 -0.5 -12t-0.5 -12q0 -95 46 -148.5t136 -53.5q131 0 195 118h56q-80 -163 -254 -163q-108 0 -170 64t-62 175q0 130 77 221.5t204 91.5q108 0 167 -67t59 -177q0 -13 -2 -37zM314 494q-85 0 -140.5 -53t-74.5 -138h392q-2 88 -47.5 139.5t-129.5 51.5
zM309 596l-138 119h80l118 -119h-60z" />
    <glyph glyph-name="eacute" unicode="&#xe9;" horiz-adv-x="592" 
d="M543 258h-451q0 -4 -0.5 -12t-0.5 -12q0 -95 46 -148.5t136 -53.5q131 0 195 118h56q-80 -163 -254 -163q-108 0 -170 64t-62 175q0 130 77 221.5t204 91.5q108 0 167 -67t59 -177q0 -13 -2 -37zM314 494q-85 0 -140.5 -53t-74.5 -138h392q-2 88 -47.5 139.5t-129.5 51.5
zM467 715l-138 -119h-60l118 119h80z" />
    <glyph glyph-name="ecircumflex" unicode="&#xea;" horiz-adv-x="592" 
d="M543 258h-451q0 -4 -0.5 -12t-0.5 -12q0 -95 46 -148.5t136 -53.5q131 0 195 118h56q-80 -163 -254 -163q-108 0 -170 64t-62 175q0 130 77 221.5t204 91.5q108 0 167 -67t59 -177q0 -13 -2 -37zM314 494q-85 0 -140.5 -53t-74.5 -138h392q-2 88 -47.5 139.5t-129.5 51.5
zM333 715h56q13 -20 41 -62.5t37 -56.5h-48l-62 81l-88 -81h-55q22 20 64 63t55 56z" />
    <glyph glyph-name="edieresis" unicode="&#xeb;" horiz-adv-x="592" 
d="M543 258h-451q0 -4 -0.5 -12t-0.5 -12q0 -95 46 -148.5t136 -53.5q131 0 195 118h56q-80 -163 -254 -163q-108 0 -170 64t-62 175q0 130 77 221.5t204 91.5q108 0 167 -67t59 -177q0 -13 -2 -37zM314 494q-85 0 -140.5 -53t-74.5 -138h392q-2 88 -47.5 139.5t-129.5 51.5
zM213 616l15 80h61l-15 -80h-61zM352 616l15 80h61l-15 -80h-61z" />
    <glyph glyph-name="igrave" unicode="&#xec;" horiz-adv-x="221" 
d="M122 525h55l-93 -525h-55zM146 596l-138 119h80l118 -119h-60z" />
    <glyph glyph-name="iacute" unicode="&#xed;" horiz-adv-x="221" 
d="M122 525h55l-93 -525h-55zM315 715l-138 -119h-60l118 119h80z" />
    <glyph glyph-name="icircumflex" unicode="&#xee;" horiz-adv-x="221" 
d="M122 525h55l-93 -525h-55zM152 715h56q13 -20 41 -62.5t37 -56.5h-48l-62 81l-88 -81h-55q22 20 64 63t55 56z" />
    <glyph glyph-name="idieresis" unicode="&#xef;" horiz-adv-x="221" 
d="M122 525h55l-93 -525h-55zM63 616l15 80h61l-15 -80h-61zM202 616l15 80h61l-15 -80h-61z" />
    <glyph glyph-name="eth" unicode="&#xf0;" horiz-adv-x="617" 
d="M265 715h80q18 -11 42 -31l88 39l27 -27l-85 -38q68 -67 107 -155.5t39 -186.5q0 -143 -77 -236t-212 -93q-115 0 -175.5 65.5t-60.5 178.5q0 125 76.5 216.5t198.5 91.5q111 0 176 -77l3 2q-53 108 -120 173l-141 -63l-30 28l140 62q-30 25 -76 51zM277 32
q101 0 163.5 75t62.5 188q0 89 -50 144t-137 55q-104 0 -163.5 -77.5t-59.5 -188.5q0 -94 47.5 -145t136.5 -51z" />
    <glyph glyph-name="ntilde" unicode="&#xf1;" horiz-adv-x="570" 
d="M29 0l78 445q11 58 14 80h55l-15 -84q60 98 180 98q75 0 118 -39.5t43 -111.5q0 -28 -6 -66l-57 -322h-55l55 310q7 40 7 67q0 116 -126 116q-68 0 -117 -47t-61 -116l-58 -330h-55zM241 613h-42q6 89 73 89q27 0 76 -20q50 -21 63 -21q33 0 40 54h41q-8 -95 -79 -95
q-27 0 -67 17q-51 23 -69 23q-31 0 -36 -47z" />
    <glyph glyph-name="ograve" unicode="&#xf2;" horiz-adv-x="614" 
d="M277 32q101 0 163.5 75t62.5 188q0 89 -50 144t-137 55q-104 0 -163.5 -77.5t-59.5 -188.5q0 -94 47.5 -145t136.5 -51zM275 -13q-111 0 -174 63t-63 174q0 134 76.5 224.5t207.5 90.5q110 0 174.5 -65t64.5 -174q0 -133 -78.5 -223t-207.5 -90zM347 596l-138 119h80
l118 -119h-60z" />
    <glyph glyph-name="oacute" unicode="&#xf3;" horiz-adv-x="614" 
d="M277 32q101 0 163.5 75t62.5 188q0 89 -50 144t-137 55q-104 0 -163.5 -77.5t-59.5 -188.5q0 -94 47.5 -145t136.5 -51zM275 -13q-111 0 -174 63t-63 174q0 134 76.5 224.5t207.5 90.5q110 0 174.5 -65t64.5 -174q0 -133 -78.5 -223t-207.5 -90zM501 715l-138 -119h-60
l118 119h80z" />
    <glyph glyph-name="ocircumflex" unicode="&#xf4;" horiz-adv-x="614" 
d="M277 32q101 0 163.5 75t62.5 188q0 89 -50 144t-137 55q-104 0 -163.5 -77.5t-59.5 -188.5q0 -94 47.5 -145t136.5 -51zM275 -13q-111 0 -174 63t-63 174q0 134 76.5 224.5t207.5 90.5q110 0 174.5 -65t64.5 -174q0 -133 -78.5 -223t-207.5 -90zM333 715h56
q13 -20 41 -62.5t37 -56.5h-48l-62 81l-88 -81h-55q22 20 64 63t55 56z" />
    <glyph glyph-name="otilde" unicode="&#xf5;" horiz-adv-x="614" 
d="M277 32q101 0 163.5 75t62.5 188q0 89 -50 144t-137 55q-104 0 -163.5 -77.5t-59.5 -188.5q0 -94 47.5 -145t136.5 -51zM275 -13q-111 0 -174 63t-63 174q0 134 76.5 224.5t207.5 90.5q110 0 174.5 -65t64.5 -174q0 -133 -78.5 -223t-207.5 -90zM239 613h-42q6 89 73 89
q27 0 76 -20q50 -21 63 -21q33 0 40 54h41q-8 -95 -79 -95q-27 0 -67 17q-51 23 -69 23q-31 0 -36 -47z" />
    <glyph glyph-name="odieresis" unicode="&#xf6;" horiz-adv-x="614" 
d="M277 32q101 0 163.5 75t62.5 188q0 89 -50 144t-137 55q-104 0 -163.5 -77.5t-59.5 -188.5q0 -94 47.5 -145t136.5 -51zM275 -13q-111 0 -174 63t-63 174q0 134 76.5 224.5t207.5 90.5q110 0 174.5 -65t64.5 -174q0 -133 -78.5 -223t-207.5 -90zM247 616l15 80h61
l-15 -80h-61zM386 616l15 80h61l-15 -80h-61z" />
    <glyph glyph-name="divide" unicode="&#xf7;" 
d="M61 298v46h442v-46h-442zM249 95v111h59v-111h-59zM249 438v111h59v-111h-59z" />
    <glyph glyph-name="oslash" unicode="&#xf8;" horiz-adv-x="614" 
d="M275 -13q-63 0 -119 24l-43 -58l-39 28l41 55q-77 63 -77 188q0 134 76.5 224.5t207.5 90.5q82 0 138 -37l44 59l39 -28l-46 -61q64 -67 64 -172q0 -133 -78.5 -223t-207.5 -90zM93 228q0 -101 53 -151l283 384q-45 33 -113 33q-104 0 -163.5 -77.5t-59.5 -188.5zM277 32
q101 0 163.5 75t62.5 188q0 79 -39 132l-279 -378q39 -17 92 -17z" />
    <glyph glyph-name="ugrave" unicode="&#xf9;" horiz-adv-x="567" 
d="M522 525l-78 -445q-11 -58 -14 -80h-55l15 84q-62 -98 -178 -98q-75 0 -117 39.5t-42 111.5q0 28 6 66l57 322h55l-55 -310q-7 -40 -7 -67q0 -116 124 -116q67 0 115 47t61 116l58 330h55zM323 596l-138 119h80l118 -119h-60z" />
    <glyph glyph-name="uacute" unicode="&#xfa;" horiz-adv-x="567" 
d="M522 525l-78 -445q-11 -58 -14 -80h-55l15 84q-62 -98 -178 -98q-75 0 -117 39.5t-42 111.5q0 28 6 66l57 322h55l-55 -310q-7 -40 -7 -67q0 -116 124 -116q67 0 115 47t61 116l58 330h55zM466 715l-138 -119h-60l118 119h80z" />
    <glyph glyph-name="ucircumflex" unicode="&#xfb;" horiz-adv-x="567" 
d="M522 525l-78 -445q-11 -58 -14 -80h-55l15 84q-62 -98 -178 -98q-75 0 -117 39.5t-42 111.5q0 28 6 66l57 322h55l-55 -310q-7 -40 -7 -67q0 -116 124 -116q67 0 115 47t61 116l58 330h55zM326 715h56q13 -20 41 -62.5t37 -56.5h-48l-62 81l-88 -81h-55q22 20 64 63
t55 56z" />
    <glyph glyph-name="udieresis" unicode="&#xfc;" horiz-adv-x="567" 
d="M522 525l-78 -445q-11 -58 -14 -80h-55l15 84q-62 -98 -178 -98q-75 0 -117 39.5t-42 111.5q0 28 6 66l57 322h55l-55 -310q-7 -40 -7 -67q0 -116 124 -116q67 0 115 47t61 116l58 330h55zM227 616l15 80h61l-15 -80h-61zM366 616l15 80h61l-15 -80h-61z" />
    <glyph glyph-name="yacute" unicode="&#xfd;" horiz-adv-x="511" 
d="M122 -180h-55l102 177q-5 25 -46 227.5t-60 300.5h60q60 -312 88 -463h1q12 22 112 207t139 256h59q-192 -349 -400 -705zM435 715l-138 -119h-60l118 119h80z" />
    <glyph glyph-name="thorn" unicode="&#xfe;" horiz-adv-x="613" 
d="M101 110q-2 -8 -4.5 -23.5t-3.5 -21.5q-2 -11 -7 -44t-9 -53l-26 -149h-55l161 896h54l-28 -153q-19 -102 -23 -115q67 92 187 92q94 0 153.5 -63t59.5 -172q0 -134 -77 -225.5t-191 -91.5q-77 0 -125.5 34.5t-65.5 88.5zM292 32q96 0 153 77t57 192q0 89 -43.5 141
t-128.5 52q-69 0 -118 -41t-70.5 -101.5t-21.5 -131.5q0 -86 44 -137t128 -51z" />
    <glyph glyph-name="ydieresis" unicode="&#xff;" horiz-adv-x="511" 
d="M122 -180h-55l102 177q-5 25 -46 227.5t-60 300.5h60q60 -312 88 -463h1q12 22 112 207t139 256h59q-192 -349 -400 -705zM207 616l15 80h61l-15 -80h-61zM346 616l15 80h61l-15 -80h-61z" />
    <glyph glyph-name="Amacron" unicode="&#x100;" horiz-adv-x="671" 
d="M-36 0l415 715h65l161 -715h-56l-54 247h-332l-140 -247h-59zM403 667h-2q-152 -268 -172 -305l-40 -68h295l-16 77q-7 33 -31 137.5t-34 158.5zM295 791l7 39h244l-7 -39h-244z" />
    <glyph glyph-name="amacron" unicode="&#x101;" horiz-adv-x="543" 
d="M134 368h-55q15 77 70 124t145 47q83 0 131.5 -39.5t48.5 -115.5q0 -37 -7 -77q-4 -26 -14 -78t-22 -120q-13 -78 -9 -109h-51q-2 45 9 97q-30 -48 -82 -77.5t-122 -29.5q-75 0 -118.5 35.5t-43.5 93.5q0 38 16.5 67t40 46t62 30.5t68.5 19t73 11.5q59 9 140 15
q7 37 7 62q0 124 -132 124q-127 0 -155 -126zM401 233q6 31 7 34q-87 -8 -161 -21q-92 -18 -125 -38q-49 -29 -49 -81q0 -45 31.5 -69.5t87.5 -24.5q77 0 134.5 51.5t74.5 148.5zM201 635l7 39h244l-7 -39h-244z" />
    <glyph glyph-name="Abreve" unicode="&#x102;" horiz-adv-x="671" 
d="M-36 0l415 715h65l161 -715h-56l-54 247h-332l-140 -247h-59zM403 667h-2q-152 -268 -172 -305l-40 -68h295l-16 77q-7 33 -31 137.5t-34 158.5zM424 809q72 0 95 70h46q-37 -110 -144 -110q-57 0 -88 28.5t-32 81.5h45q1 -30 19.5 -50t58.5 -20z" />
    <glyph glyph-name="abreve" unicode="&#x103;" horiz-adv-x="543" 
d="M134 368h-55q15 77 70 124t145 47q83 0 131.5 -39.5t48.5 -115.5q0 -37 -7 -77q-4 -26 -14 -78t-22 -120q-13 -78 -9 -109h-51q-2 45 9 97q-30 -48 -82 -77.5t-122 -29.5q-75 0 -118.5 35.5t-43.5 93.5q0 38 16.5 67t40 46t62 30.5t68.5 19t73 11.5q59 9 140 15
q7 37 7 62q0 124 -132 124q-127 0 -155 -126zM401 233q6 31 7 34q-87 -8 -161 -21q-92 -18 -125 -38q-49 -29 -49 -81q0 -45 31.5 -69.5t87.5 -24.5q77 0 134.5 51.5t74.5 148.5zM327 645q72 0 95 70h46q-37 -110 -144 -110q-57 0 -88 28.5t-32 81.5h45q1 -30 19.5 -50
t58.5 -20z" />
    <glyph glyph-name="Aogonek" unicode="&#x104;" horiz-adv-x="671" 
d="M-36 0l415 715h65l161 -715h-56l-54 247h-332l-140 -247h-59zM403 667h-2q-152 -268 -172 -305l-40 -68h295l-16 77q-7 33 -31 137.5t-34 158.5zM601 -48l92 -115h-74l-75 115h57z" />
    <glyph glyph-name="aogonek" unicode="&#x105;" horiz-adv-x="543" 
d="M134 368h-55q15 77 70 124t145 47q83 0 131.5 -39.5t48.5 -115.5q0 -37 -7 -77q-4 -26 -14 -78t-22 -120q-13 -78 -9 -109h-51q-2 45 9 97q-30 -48 -82 -77.5t-122 -29.5q-75 0 -118.5 35.5t-43.5 93.5q0 38 16.5 67t40 46t62 30.5t68.5 19t73 11.5q59 9 140 15
q7 37 7 62q0 124 -132 124q-127 0 -155 -126zM401 233q6 31 7 34q-87 -8 -161 -21q-92 -18 -125 -38q-49 -29 -49 -81q0 -45 31.5 -69.5t87.5 -24.5q77 0 134.5 51.5t74.5 148.5zM411 -48l92 -115h-74l-75 115h57z" />
    <glyph glyph-name="Cacute" unicode="&#x106;" horiz-adv-x="777" 
d="M668 207l59 1q-46 -104 -131.5 -163t-207.5 -59q-144 0 -236.5 85t-92.5 238q0 113 43.5 207.5t131.5 153.5t206 59q125 0 208 -60t109 -169h-58q-24 87 -92 135t-171 48q-77 0 -139.5 -31.5t-101 -83.5t-58.5 -116.5t-20 -133.5q0 -135 72 -210.5t199 -75.5
q192 0 280 175zM601 876l-136 -115h-60l116 115h80z" />
    <glyph glyph-name="cacute" unicode="&#x107;" horiz-adv-x="584" 
d="M544 353h-55q-30 141 -177 141q-101 0 -160 -77.5t-59 -188.5q0 -93 47.5 -144.5t131.5 -51.5q140 0 198 135h54q-31 -83 -97 -131.5t-157 -48.5q-107 0 -169.5 63.5t-62.5 175.5q0 130 78 221.5t199 91.5q98 0 156.5 -49t72.5 -137zM476 715l-138 -119h-60l118 119h80z
" />
    <glyph glyph-name="Ccircumflex" unicode="&#x108;" horiz-adv-x="777" 
d="M668 207l59 1q-46 -104 -131.5 -163t-207.5 -59q-144 0 -236.5 85t-92.5 238q0 113 43.5 207.5t131.5 153.5t206 59q125 0 208 -60t109 -169h-58q-24 87 -92 135t-171 48q-77 0 -139.5 -31.5t-101 -83.5t-58.5 -116.5t-20 -133.5q0 -135 72 -210.5t199 -75.5
q192 0 280 175zM461 877h56q33 -50 78 -115h-48l-62 79l-88 -79h-55q14 13 119 115z" />
    <glyph glyph-name="ccircumflex" unicode="&#x109;" horiz-adv-x="584" 
d="M544 353h-55q-30 141 -177 141q-101 0 -160 -77.5t-59 -188.5q0 -93 47.5 -144.5t131.5 -51.5q140 0 198 135h54q-31 -83 -97 -131.5t-157 -48.5q-107 0 -169.5 63.5t-62.5 175.5q0 130 78 221.5t199 91.5q98 0 156.5 -49t72.5 -137zM334 715h56q13 -20 41 -62.5
t37 -56.5h-48l-62 81l-88 -81h-55q22 20 64 63t55 56z" />
    <glyph glyph-name="Cdotaccent" unicode="&#x10a;" horiz-adv-x="777" 
d="M668 207l59 1q-46 -104 -131.5 -163t-207.5 -59q-144 0 -236.5 85t-92.5 238q0 113 43.5 207.5t131.5 153.5t206 59q125 0 208 -60t109 -169h-58q-24 87 -92 135t-171 48q-77 0 -139.5 -31.5t-101 -83.5t-58.5 -116.5t-20 -133.5q0 -135 72 -210.5t199 -75.5
q192 0 280 175zM423 769l15 80h61l-15 -80h-61z" />
    <glyph glyph-name="cdotaccent" unicode="&#x10b;" horiz-adv-x="584" 
d="M544 353h-55q-30 141 -177 141q-101 0 -160 -77.5t-59 -188.5q0 -93 47.5 -144.5t131.5 -51.5q140 0 198 135h54q-31 -83 -97 -131.5t-157 -48.5q-107 0 -169.5 63.5t-62.5 175.5q0 130 78 221.5t199 91.5q98 0 156.5 -49t72.5 -137zM311 612l15 80h61l-15 -80h-61z" />
    <glyph glyph-name="Ccaron" unicode="&#x10c;" horiz-adv-x="777" 
d="M668 207l59 1q-46 -104 -131.5 -163t-207.5 -59q-144 0 -236.5 85t-92.5 238q0 113 43.5 207.5t131.5 153.5t206 59q125 0 208 -60t109 -169h-58q-24 87 -92 135t-171 48q-77 0 -139.5 -31.5t-101 -83.5t-58.5 -116.5t-20 -133.5q0 -135 72 -210.5t199 -75.5
q192 0 280 175zM483 760h-56q-33 50 -78 115h49l62 -79l88 79h54q-14 -13 -119 -115z" />
    <glyph glyph-name="ccaron" unicode="&#x10d;" horiz-adv-x="584" 
d="M544 353h-55q-30 141 -177 141q-101 0 -160 -77.5t-59 -188.5q0 -93 47.5 -144.5t131.5 -51.5q140 0 198 135h54q-31 -83 -97 -131.5t-157 -48.5q-107 0 -169.5 63.5t-62.5 175.5q0 130 78 221.5t199 91.5q98 0 156.5 -49t72.5 -137zM354 596h-56q-13 20 -41 62.5
t-37 56.5h49l62 -81l88 81h54q-22 -20 -64 -63t-55 -56z" />
    <glyph glyph-name="Dcaron" unicode="&#x10e;" horiz-adv-x="716" 
d="M47 0l127 715h106q96 0 145 -8q119 -19 184.5 -87t65.5 -201q0 -168 -89 -279q-35 -45 -79 -74t-98 -43t-103.5 -18.5t-117.5 -4.5h-141zM221 668l-110 -621h125q129 0 212 43q170 88 170 328q0 168 -141 227q-55 23 -151 23h-105zM417 760h-56q-33 50 -78 115h49l62 -79
l88 79h54q-14 -13 -119 -115z" />
    <glyph glyph-name="dcaron" unicode="&#x10f;" horiz-adv-x="668" 
d="M476 0h-50l17 86q-67 -99 -193 -99q-93 0 -152.5 63t-59.5 172q0 135 77 226t191 91q74 0 123.5 -34.5t66.5 -87.5q2 21 6 43q7 50 16 93l29 162h56zM306 494q-96 0 -153 -77t-57 -192q0 -87 44 -140t128 -53q101 0 155.5 81.5t54.5 192.5q0 86 -44 137t-128 51zM802 715
l-119 -229h-49l107 229h61z" />
    <glyph glyph-name="Dcroat" unicode="&#x110;" horiz-adv-x="725" 
d="M37 338l8 47h79l59 330h106q96 0 145 -8q119 -19 184.5 -87t65.5 -201q0 -168 -89 -279q-35 -45 -79 -74t-98 -43t-103.5 -18.5t-117.5 -4.5h-141l60 338h-79zM230 668l-50 -283h164l-8 -47h-165l-51 -291h125q129 0 212 43q170 88 170 328q0 168 -141 227
q-55 23 -151 23h-105z" />
    <glyph glyph-name="dcroat" unicode="&#x111;" horiz-adv-x="613" 
d="M476 0h-50l17 86q-67 -99 -193 -99q-93 0 -152.5 63t-59.5 172q0 135 77 226t191 91q74 0 123.5 -34.5t66.5 -87.5q2 21 6 43q7 50 16 93l9 50h-86l7 39h86l13 73h56l-13 -73h81l-7 -39h-81zM306 494q-96 0 -153 -77t-57 -192q0 -87 44 -140t128 -53q101 0 155.5 81.5
t54.5 192.5q0 86 -44 137t-128 51z" />
    <glyph glyph-name="Emacron" unicode="&#x112;" horiz-adv-x="593" 
d="M47 0l127 715h434l-9 -48h-379l-49 -277h355l-8 -48h-356l-52 -294h387l-9 -48h-441zM276 791l7 39h244l-7 -39h-244z" />
    <glyph glyph-name="emacron" unicode="&#x113;" horiz-adv-x="592" 
d="M543 258h-451q0 -4 -0.5 -12t-0.5 -12q0 -95 46 -148.5t136 -53.5q131 0 195 118h56q-80 -163 -254 -163q-108 0 -170 64t-62 175q0 130 77 221.5t204 91.5q108 0 167 -67t59 -177q0 -13 -2 -37zM314 494q-85 0 -140.5 -53t-74.5 -138h392q-2 88 -47.5 139.5t-129.5 51.5
zM198 635l7 39h244l-7 -39h-244z" />
    <glyph glyph-name="Ebreve" unicode="&#x114;" horiz-adv-x="593" 
d="M47 0l127 715h434l-9 -48h-379l-49 -277h355l-8 -48h-356l-52 -294h387l-9 -48h-441zM410 809q72 0 95 70h46q-37 -110 -144 -110q-57 0 -88 28.5t-32 81.5h45q1 -30 19.5 -50t58.5 -20z" />
    <glyph glyph-name="ebreve" unicode="&#x115;" horiz-adv-x="592" 
d="M543 258h-451q0 -4 -0.5 -12t-0.5 -12q0 -95 46 -148.5t136 -53.5q131 0 195 118h56q-80 -163 -254 -163q-108 0 -170 64t-62 175q0 130 77 221.5t204 91.5q108 0 167 -67t59 -177q0 -13 -2 -37zM314 494q-85 0 -140.5 -53t-74.5 -138h392q-2 88 -47.5 139.5t-129.5 51.5
zM335 645q72 0 95 70h46q-37 -110 -144 -110q-57 0 -88 28.5t-32 81.5h45q1 -30 19.5 -50t58.5 -20z" />
    <glyph glyph-name="Edotaccent" unicode="&#x116;" horiz-adv-x="593" 
d="M47 0l127 715h434l-9 -48h-379l-49 -277h355l-8 -48h-356l-52 -294h387l-9 -48h-441zM354 769l15 80h61l-15 -80h-61z" />
    <glyph glyph-name="edotaccent" unicode="&#x117;" horiz-adv-x="592" 
d="M543 258h-451q0 -4 -0.5 -12t-0.5 -12q0 -95 46 -148.5t136 -53.5q131 0 195 118h56q-80 -163 -254 -163q-108 0 -170 64t-62 175q0 130 77 221.5t204 91.5q108 0 167 -67t59 -177q0 -13 -2 -37zM314 494q-85 0 -140.5 -53t-74.5 -138h392q-2 88 -47.5 139.5t-129.5 51.5
zM286 612l15 80h61l-15 -80h-61z" />
    <glyph glyph-name="Eogonek" unicode="&#x118;" horiz-adv-x="593" 
d="M47 0l127 715h434l-9 -48h-379l-49 -277h355l-8 -48h-356l-52 -294h387l-9 -48h-441zM302 -48l92 -115h-74l-75 115h57z" />
    <glyph glyph-name="eogonek" unicode="&#x119;" horiz-adv-x="592" 
d="M543 258h-451q0 -4 -0.5 -12t-0.5 -12q0 -95 46 -148.5t136 -53.5q131 0 195 118h56q-80 -163 -254 -163q-108 0 -170 64t-62 175q0 130 77 221.5t204 91.5q108 0 167 -67t59 -177q0 -13 -2 -37zM314 494q-85 0 -140.5 -53t-74.5 -138h392q-2 88 -47.5 139.5t-129.5 51.5
zM273 -48l92 -115h-74l-75 115h57z" />
    <glyph glyph-name="Ecaron" unicode="&#x11a;" horiz-adv-x="593" 
d="M47 0l127 715h434l-9 -48h-379l-49 -277h355l-8 -48h-356l-52 -294h387l-9 -48h-441zM417 760h-56q-33 50 -78 115h49l62 -79l88 79h54q-14 -13 -119 -115z" />
    <glyph glyph-name="ecaron" unicode="&#x11b;" horiz-adv-x="592" 
d="M543 258h-451q0 -4 -0.5 -12t-0.5 -12q0 -95 46 -148.5t136 -53.5q131 0 195 118h56q-80 -163 -254 -163q-108 0 -170 64t-62 175q0 130 77 221.5t204 91.5q108 0 167 -67t59 -177q0 -13 -2 -37zM314 494q-85 0 -140.5 -53t-74.5 -138h392q-2 88 -47.5 139.5t-129.5 51.5
zM354 596h-56q-13 20 -41 62.5t-37 56.5h49l62 -81l88 81h54q-22 -20 -64 -63t-55 -56z" />
    <glyph glyph-name="Gcircumflex" unicode="&#x11c;" horiz-adv-x="790" 
d="M371 -13q-134 0 -223 86t-89 238q0 112 43.5 206t132 153t205.5 59q126 0 208.5 -60t108.5 -169h-58q-24 87 -92 135t-171 48q-77 0 -139.5 -31t-101 -82.5t-58.5 -115t-20 -132.5q0 -132 71 -211t189 -79q67 0 122 24t90 64.5t56.5 86.5t31.5 98h-291l9 48h342l-63 -353
h-54l12 63l10 48l6 27q-43 -71 -115.5 -111t-161.5 -40zM463 875h56q33 -50 78 -115h-48l-62 79l-88 -79h-55q14 13 119 115z" />
    <glyph glyph-name="gcircumflex" unicode="&#x11d;" horiz-adv-x="615" 
d="M231 -145q89 0 139.5 59.5t67.5 158.5q4 27 11 55h-2q-26 -43 -76 -72t-117 -29q-96 0 -153 59.5t-57 166.5q0 117 68.5 201t185.5 84q78 0 129.5 -34t70.5 -91l20 112h54l-77 -430q-18 -105 -51 -162q-69 -122 -219 -122q-96 0 -151 49t-57 123h57q2 -22 9.5 -41.5
t24 -40.5t48 -33.5t75.5 -12.5zM269 70q95 0 153.5 76.5t58.5 173.5q0 78 -50.5 126.5t-129.5 48.5q-89 0 -144.5 -69.5t-55.5 -166.5q0 -92 44.5 -140.5t123.5 -48.5zM335 717h56q13 -20 41 -62.5t37 -56.5h-48l-62 81l-88 -81h-55q22 20 64 63t55 56z" />
    <glyph glyph-name="Gbreve" unicode="&#x11e;" horiz-adv-x="790" 
d="M371 -13q-134 0 -223 86t-89 238q0 112 43.5 206t132 153t205.5 59q126 0 208.5 -60t108.5 -169h-58q-24 87 -92 135t-171 48q-77 0 -139.5 -31t-101 -82.5t-58.5 -115t-20 -132.5q0 -132 71 -211t189 -79q67 0 122 24t90 64.5t56.5 86.5t31.5 98h-291l9 48h342l-63 -353
h-54l12 63l10 48l6 27q-43 -71 -115.5 -111t-161.5 -40zM483 809q72 0 95 70h46q-37 -110 -144 -110q-57 0 -88 28.5t-32 81.5h45q1 -30 19.5 -50t58.5 -20z" />
    <glyph glyph-name="gbreve" unicode="&#x11f;" horiz-adv-x="615" 
d="M231 -145q89 0 139.5 59.5t67.5 158.5q4 27 11 55h-2q-26 -43 -76 -72t-117 -29q-96 0 -153 59.5t-57 166.5q0 117 68.5 201t185.5 84q78 0 129.5 -34t70.5 -91l20 112h54l-77 -430q-18 -105 -51 -162q-69 -122 -219 -122q-96 0 -151 49t-57 123h57q2 -22 9.5 -41.5
t24 -40.5t48 -33.5t75.5 -12.5zM269 70q95 0 153.5 76.5t58.5 173.5q0 78 -50.5 126.5t-129.5 48.5q-89 0 -144.5 -69.5t-55.5 -166.5q0 -92 44.5 -140.5t123.5 -48.5zM348 645q72 0 95 70h46q-37 -110 -144 -110q-57 0 -88 28.5t-32 81.5h45q1 -30 19.5 -50t58.5 -20z" />
    <glyph glyph-name="Gdotaccent" unicode="&#x120;" horiz-adv-x="790" 
d="M371 -13q-134 0 -223 86t-89 238q0 112 43.5 206t132 153t205.5 59q126 0 208.5 -60t108.5 -169h-58q-24 87 -92 135t-171 48q-77 0 -139.5 -31t-101 -82.5t-58.5 -115t-20 -132.5q0 -132 71 -211t189 -79q67 0 122 24t90 64.5t56.5 86.5t31.5 98h-291l9 48h342l-63 -353
h-54l12 63l10 48l6 27q-43 -71 -115.5 -111t-161.5 -40zM423 769l15 80h61l-15 -80h-61z" />
    <glyph glyph-name="gdotaccent" unicode="&#x121;" horiz-adv-x="615" 
d="M231 -145q89 0 139.5 59.5t67.5 158.5q4 27 11 55h-2q-26 -43 -76 -72t-117 -29q-96 0 -153 59.5t-57 166.5q0 117 68.5 201t185.5 84q78 0 129.5 -34t70.5 -91l20 112h54l-77 -430q-18 -105 -51 -162q-69 -122 -219 -122q-96 0 -151 49t-57 123h57q2 -22 9.5 -41.5
t24 -40.5t48 -33.5t75.5 -12.5zM269 70q95 0 153.5 76.5t58.5 173.5q0 78 -50.5 126.5t-129.5 48.5q-89 0 -144.5 -69.5t-55.5 -166.5q0 -92 44.5 -140.5t123.5 -48.5zM291 612l15 80h61l-15 -80h-61z" />
    <glyph glyph-name="Gcommaaccent" unicode="&#x122;" horiz-adv-x="790" 
d="M371 -13q-134 0 -223 86t-89 238q0 112 43.5 206t132 153t205.5 59q126 0 208.5 -60t108.5 -169h-58q-24 87 -92 135t-171 48q-77 0 -139.5 -31t-101 -82.5t-58.5 -115t-20 -132.5q0 -132 71 -211t189 -79q67 0 122 24t90 64.5t56.5 86.5t31.5 98h-291l9 48h342l-63 -353
h-54l12 63l10 48l6 27q-43 -71 -115.5 -111t-161.5 -40zM257 -163l92 115h55l-75 -115h-72z" />
    <glyph glyph-name="gcommaaccent" unicode="&#x123;" horiz-adv-x="615" 
d="M231 -145q89 0 139.5 59.5t67.5 158.5q4 27 11 55h-2q-26 -43 -76 -72t-117 -29q-96 0 -153 59.5t-57 166.5q0 117 68.5 201t185.5 84q78 0 129.5 -34t70.5 -91l20 112h54l-77 -430q-18 -105 -51 -162q-69 -122 -219 -122q-96 0 -151 49t-57 123h57q2 -22 9.5 -41.5
t24 -40.5t48 -33.5t75.5 -12.5zM269 70q95 0 153.5 76.5t58.5 173.5q0 78 -50.5 126.5t-129.5 48.5q-89 0 -144.5 -69.5t-55.5 -166.5q0 -92 44.5 -140.5t123.5 -48.5zM449 715l-92 -115h-55l75 115h72z" />
    <glyph glyph-name="Hcircumflex" unicode="&#x124;" horiz-adv-x="703" 
d="M618 715h56l-127 -715h-56l61 342h-388l-61 -342h-56l127 715h56l-58 -325h388zM422 875h56q33 -50 78 -115h-48l-62 79l-88 -79h-55q14 13 119 115z" />
    <glyph glyph-name="hcircumflex" unicode="&#x125;" horiz-adv-x="570" 
d="M210 715l-30 -169l-13 -75q-5 -17 -6 -30q60 98 180 98q75 0 118 -39.5t43 -111.5q0 -28 -6 -66l-57 -322h-55l55 310q7 40 7 67q0 116 -126 116q-68 0 -117 -47t-61 -116l-58 -330h-55l126 715h55zM184 875h56q33 -50 78 -115h-48l-62 79l-88 -79h-55q14 13 119 115z
" />
    <glyph glyph-name="Hbar" unicode="&#x126;" horiz-adv-x="715" 
d="M563 715h56v-715h-56v342h-388v-342h-56v715h56v-110h388v110zM175 390h388v167h-388v-167z" />
    <glyph glyph-name="hbar" unicode="&#x127;" horiz-adv-x="570" 
d="M210 715l-13 -73h90l-7 -39h-90l-10 -57l-13 -75q-5 -17 -6 -30q60 98 180 98q75 0 118 -39.5t43 -111.5q0 -28 -6 -66l-57 -322h-55l55 310q7 40 7 67q0 116 -126 116q-68 0 -117 -47t-61 -116l-58 -330h-55l106 603h-78l7 39h78l13 73h55z" />
    <glyph glyph-name="Itilde" unicode="&#x128;" horiz-adv-x="259" 
d="M174 715h56l-127 -715h-56zM116 765h-42q6 89 73 89q27 0 76 -20q50 -21 63 -21q33 0 40 54h41q-8 -95 -79 -95q-27 0 -67 17q-51 23 -69 23q-31 0 -36 -47z" />
    <glyph glyph-name="itilde" unicode="&#x129;" horiz-adv-x="221" 
d="M122 525h55l-93 -525h-55zM70 613h-42q6 89 73 89q27 0 76 -20q50 -21 63 -21q33 0 40 54h41q-8 -95 -79 -95q-27 0 -67 17q-51 23 -69 23q-31 0 -36 -47z" />
    <glyph glyph-name="Imacron" unicode="&#x12a;" horiz-adv-x="259" 
d="M174 715h56l-127 -715h-56zM95 791l7 39h244l-7 -39h-244z" />
    <glyph glyph-name="imacron" unicode="&#x12b;" horiz-adv-x="221" 
d="M122 525h55l-93 -525h-55zM49 635l7 39h244l-7 -39h-244z" />
    <glyph glyph-name="Ibreve" unicode="&#x12c;" horiz-adv-x="259" 
d="M174 715h56l-127 -715h-56zM214 809q72 0 95 70h46q-37 -110 -144 -110q-57 0 -88 28.5t-32 81.5h45q1 -30 19.5 -50t58.5 -20z" />
    <glyph glyph-name="ibreve" unicode="&#x12d;" horiz-adv-x="221" 
d="M122 525h55l-93 -525h-55zM165 645q72 0 95 70h46q-37 -110 -144 -110q-57 0 -88 28.5t-32 81.5h45q1 -30 19.5 -50t58.5 -20z" />
    <glyph glyph-name="Iogonek" unicode="&#x12e;" horiz-adv-x="259" 
d="M174 715h56l-127 -715h-56zM96 -48l92 -115h-72l-75 115h55z" />
    <glyph glyph-name="iogonek" unicode="&#x12f;" horiz-adv-x="221" 
d="M122 525h55l-93 -525h-55zM192 604h-57l20 111h57zM82 -48l92 -115h-74l-75 115h57z" />
    <glyph glyph-name="Idotaccent" unicode="&#x130;" horiz-adv-x="259" 
d="M174 715h56l-127 -715h-56zM179 769l15 80h61l-15 -80h-61z" />
    <glyph glyph-name="dotlessi" unicode="&#x131;" horiz-adv-x="221" 
d="M122 525h55l-93 -525h-55z" />
    <glyph glyph-name="IJ" unicode="&#x132;" horiz-adv-x="721" 
d="M174 715h56l-127 -715h-56zM642 715h56l-91 -515q-18 -106 -58 -160t-134 -54q-157 0 -157 156q0 9 2 31h53q-1 -9 -1 -26q0 -118 106 -118q28 0 49 9t34.5 23.5t24 41.5t16.5 53t13 69z" />
    <glyph glyph-name="ij" unicode="&#x133;" horiz-adv-x="442" 
d="M122 525h55l-93 -525h-55zM192 604h-57l20 111h57zM342 525h55l-102 -581q-14 -80 -45.5 -110.5t-97.5 -30.5q-17 0 -32 3l7 43q14 -2 24 -2q38 0 58.5 19.5t28.5 66.5zM412 604h-57l20 111h57z" />
    <glyph glyph-name="Jcircumflex" unicode="&#x134;" horiz-adv-x="462" 
d="M383 715h56l-91 -515q-18 -106 -58 -160t-134 -54q-157 0 -157 156q0 9 2 31h53q-1 -9 -1 -26q0 -118 106 -118q28 0 49 9t34.5 23.5t24 41.5t16.5 53t13 69zM413 875h56q33 -50 78 -115h-48l-62 79l-88 -79h-55q14 13 119 115z" />
    <glyph glyph-name="jcircumflex" unicode="&#x135;" horiz-adv-x="221" 
d="M121 525h55l-102 -581q-14 -80 -45.5 -110.5t-97.5 -30.5q-17 0 -32 3l7 43q14 -2 24 -2q38 0 58.5 19.5t28.5 66.5zM150 715h56q13 -20 41 -62.5t37 -56.5h-48l-62 81l-88 -81h-55q22 20 64 63t55 56z" />
    <glyph glyph-name="Kcommaaccent" unicode="&#x136;" horiz-adv-x="583" 
d="M47 0l127 715h55l-59 -330q88 71 231 189.5t169 140.5h76l-156 -127q-29 -23 -85.5 -69t-99.5 -81t-73 -60q44 -60 147.5 -192t143.5 -186h-70q-13 18 -115.5 151t-169.5 225l-66 -376h-55zM163 -163l92 115h55l-75 -115h-72z" />
    <glyph glyph-name="kcommaaccent" unicode="&#x137;" horiz-adv-x="470" 
d="M405 0h-69q-60 81 -122 170l-80 111l-50 -281h-55l127 715h55l-75 -424l108 91l166 143h74q-60 -51 -288 -241q104 -137 209 -284zM99 -160l92 115h55l-75 -115h-72z" />
    <glyph glyph-name="kgreenlandic" unicode="&#x138;" horiz-adv-x="470" 
d="M405 0h-69q-60 81 -122 170l-80 111l-50 -281h-55l93 525h55l-41 -234l108 91l166 143h74q-60 -51 -288 -241q104 -137 209 -284z" />
    <glyph glyph-name="Lacute" unicode="&#x139;" horiz-adv-x="525" 
d="M174 715h54l-118 -667h353l-9 -48h-407zM376 876l-136 -115h-60l116 115h80z" />
    <glyph glyph-name="lacute" unicode="&#x13a;" horiz-adv-x="231" 
d="M161 715h55l-127 -715h-55zM364 876l-136 -115h-60l116 115h80z" />
    <glyph glyph-name="Lcommaaccent" unicode="&#x13b;" horiz-adv-x="525" 
d="M174 715h54l-118 -667h353l-9 -48h-407zM137 -163l92 115h55l-75 -115h-72z" />
    <glyph glyph-name="lcommaaccent" unicode="&#x13c;" horiz-adv-x="231" 
d="M161 715h55l-127 -715h-55zM-65 -163l92 115h55l-75 -115h-72z" />
    <glyph glyph-name="Lcaron" unicode="&#x13d;" horiz-adv-x="525" 
d="M174 715h54l-118 -667h353l-9 -48h-407zM491 715l-119 -229h-49l107 229h61z" />
    <glyph glyph-name="lcaron" unicode="&#x13e;" horiz-adv-x="281" 
d="M161 715h55l-127 -715h-55zM415 715l-119 -229h-49l107 229h61z" />
    <glyph glyph-name="Ldot" unicode="&#x13f;" horiz-adv-x="525" 
d="M174 715h54l-118 -667h353l-9 -48h-407zM308 261l19 111h59l-19 -111h-59z" />
    <glyph glyph-name="ldot" unicode="&#x140;" horiz-adv-x="361" 
d="M161 715h55l-127 -715h-55zM263 261l19 111h59l-19 -111h-59z" />
    <glyph glyph-name="Lslash" unicode="&#x141;" horiz-adv-x="532" 
d="M182 715h54l-58 -326l175 103l-9 -52l-175 -102l-51 -290h353l-9 -48h-407l54 302l-90 -54l9 52l90 54z" />
    <glyph glyph-name="lslash" unicode="&#x142;" horiz-adv-x="236" 
d="M162 715h55l-53 -296l91 54l-9 -53l-91 -53l-65 -367h-55l59 331l-83 -48l10 53l82 48z" />
    <glyph glyph-name="Nacute" unicode="&#x143;" horiz-adv-x="721" 
d="M565 0h-72l-184 433q-75 176 -90 225h-2q-2 -17 -51 -301l-63 -357h-56l128 715h75l185 -439q70 -166 87 -215h2q4 18 18 112t21 130l73 412h56zM589 876l-136 -115h-60l116 115h80z" />
    <glyph glyph-name="nacute" unicode="&#x144;" horiz-adv-x="570" 
d="M29 0l78 445q11 58 14 80h55l-15 -84q60 98 180 98q75 0 118 -39.5t43 -111.5q0 -28 -6 -66l-57 -322h-55l55 310q7 40 7 67q0 116 -126 116q-68 0 -117 -47t-61 -116l-58 -330h-55zM487 715l-138 -119h-60l118 119h80z" />
    <glyph glyph-name="Ncommaaccent" unicode="&#x145;" horiz-adv-x="721" 
d="M565 0h-72l-184 433q-75 176 -90 225h-2q-2 -17 -51 -301l-63 -357h-56l128 715h75l185 -439q70 -166 87 -215h2q4 18 18 112t21 130l73 412h56zM339 -47l-92 -115h-55l75 115h72z" />
    <glyph glyph-name="ncommaaccent" unicode="&#x146;" horiz-adv-x="570" 
d="M29 0l78 445q11 58 14 80h55l-15 -84q60 98 180 98q75 0 118 -39.5t43 -111.5q0 -28 -6 -66l-57 -322h-55l55 310q7 40 7 67q0 116 -126 116q-68 0 -117 -47t-61 -116l-58 -330h-55zM275 -47l-92 -115h-55l75 115h72z" />
    <glyph glyph-name="Ncaron" unicode="&#x147;" horiz-adv-x="721" 
d="M565 0h-72l-184 433q-75 176 -90 225h-2q-2 -17 -51 -301l-63 -357h-56l128 715h75l185 -439q70 -166 87 -215h2q4 18 18 112t21 130l73 412h56zM459 760h-56q-33 50 -78 115h49l62 -79l88 79h54q-14 -13 -119 -115z" />
    <glyph glyph-name="ncaron" unicode="&#x148;" horiz-adv-x="570" 
d="M29 0l78 445q11 58 14 80h55l-15 -84q60 98 180 98q75 0 118 -39.5t43 -111.5q0 -28 -6 -66l-57 -322h-55l55 310q7 40 7 67q0 116 -126 116q-68 0 -117 -47t-61 -116l-58 -330h-55zM365 596h-56q-13 20 -41 62.5t-37 56.5h49l62 -81l88 81h54q-22 -20 -64 -63t-55 -56z
" />
    <glyph glyph-name="napostrophe" unicode="&#x149;" horiz-adv-x="637" 
d="M96 0l78 445q11 58 14 80h55l-15 -84q60 98 180 98q75 0 118 -39.5t43 -111.5q0 -28 -6 -66l-57 -322h-55l55 310q7 40 7 67q0 116 -126 116q-68 0 -117 -47t-61 -116l-58 -330h-55zM195 715l-119 -229h-49l107 229h61z" />
    <glyph glyph-name="Eng" unicode="&#x14a;" horiz-adv-x="721" 
d="M692 715l-127 -715q-18 -96 -57.5 -145t-130.5 -49q-157 0 -157 156q0 9 2 31h53q-1 -9 -1 -26q0 -118 106 -118q59 0 84.5 35t43.5 116h-15l-184 433q-75 176 -90 225h-2q-2 -17 -51 -301l-63 -357h-56l128 715h75l185 -439q70 -166 87 -215h2q4 18 18 112t21 130
l73 412h56z" />
    <glyph glyph-name="eng" unicode="&#x14b;" horiz-adv-x="570" 
d="M372 -67l67 377q7 40 7 67q0 116 -126 116q-68 0 -117 -47t-61 -116l-58 -330h-55l78 445q11 58 14 80h55l-15 -84q60 98 180 98q75 0 118 -39.5t43 -111.5q0 -28 -6 -66l-67 -378q-14 -80 -45.5 -110.5t-97.5 -30.5q-17 0 -32 3l7 43q14 -2 24 -2q38 0 58.5 19.5
t28.5 66.5z" />
    <glyph glyph-name="Omacron" unicode="&#x14c;" horiz-adv-x="819" 
d="M444 729q149 0 242 -85.5t93 -227.5q0 -187 -105.5 -308.5t-283.5 -121.5q-147 0 -239 85t-92 238q0 84 26 159.5t73.5 134t121.5 92.5t164 34zM440 683q-79 0 -142 -31.5t-102 -83.5t-59.5 -116.5t-20.5 -133.5q0 -137 72.5 -211.5t202.5 -74.5q82 0 146.5 32t104 86.5
t60 122t20.5 142.5q0 123 -76.5 195.5t-205.5 72.5zM350 791l7 39h244l-7 -39h-244z" />
    <glyph glyph-name="omacron" unicode="&#x14d;" horiz-adv-x="614" 
d="M277 32q101 0 163.5 75t62.5 188q0 89 -50 144t-137 55q-104 0 -163.5 -77.5t-59.5 -188.5q0 -94 47.5 -145t136.5 -51zM275 -13q-111 0 -174 63t-63 174q0 134 76.5 224.5t207.5 90.5q110 0 174.5 -65t64.5 -174q0 -133 -78.5 -223t-207.5 -90zM221 635l7 39h244l-7 -39
h-244z" />
    <glyph glyph-name="Obreve" unicode="&#x14e;" horiz-adv-x="819" 
d="M444 729q149 0 242 -85.5t93 -227.5q0 -187 -105.5 -308.5t-283.5 -121.5q-147 0 -239 85t-92 238q0 84 26 159.5t73.5 134t121.5 92.5t164 34zM440 683q-79 0 -142 -31.5t-102 -83.5t-59.5 -116.5t-20.5 -133.5q0 -137 72.5 -211.5t202.5 -74.5q82 0 146.5 32t104 86.5
t60 122t20.5 142.5q0 123 -76.5 195.5t-205.5 72.5zM474 809q72 0 95 70h46q-37 -110 -144 -110q-57 0 -88 28.5t-32 81.5h45q1 -30 19.5 -50t58.5 -20z" />
    <glyph glyph-name="obreve" unicode="&#x14f;" horiz-adv-x="614" 
d="M277 32q101 0 163.5 75t62.5 188q0 89 -50 144t-137 55q-104 0 -163.5 -77.5t-59.5 -188.5q0 -94 47.5 -145t136.5 -51zM275 -13q-111 0 -174 63t-63 174q0 134 76.5 224.5t207.5 90.5q110 0 174.5 -65t64.5 -174q0 -133 -78.5 -223t-207.5 -90zM359 645q72 0 95 70h46
q-37 -110 -144 -110q-57 0 -88 28.5t-32 81.5h45q1 -30 19.5 -50t58.5 -20z" />
    <glyph glyph-name="Ohungarumlaut" unicode="&#x150;" horiz-adv-x="819" 
d="M444 729q149 0 242 -85.5t93 -227.5q0 -187 -105.5 -308.5t-283.5 -121.5q-147 0 -239 85t-92 238q0 84 26 159.5t73.5 134t121.5 92.5t164 34zM440 683q-79 0 -142 -31.5t-102 -83.5t-59.5 -116.5t-20.5 -133.5q0 -137 72.5 -211.5t202.5 -74.5q82 0 146.5 32t104 86.5
t60 122t20.5 142.5q0 123 -76.5 195.5t-205.5 72.5zM525 876l-136 -115h-58l116 115h78zM710 876l-136 -115h-58l116 115h78z" />
    <glyph glyph-name="ohungarumlaut" unicode="&#x151;" horiz-adv-x="614" 
d="M277 32q101 0 163.5 75t62.5 188q0 89 -50 144t-137 55q-104 0 -163.5 -77.5t-59.5 -188.5q0 -94 47.5 -145t136.5 -51zM275 -13q-111 0 -174 63t-63 174q0 134 76.5 224.5t207.5 90.5q110 0 174.5 -65t64.5 -174q0 -133 -78.5 -223t-207.5 -90zM393 715l-138 -119h-58
l118 119h78zM563 715l-138 -119h-58l118 119h78z" />
    <glyph glyph-name="OE" unicode="&#x152;" horiz-adv-x="1197" 
d="M442 729q110 0 192.5 -50.5t112.5 -134.5l31 171h434l-9 -48h-380l-49 -277h356l-8 -48h-356l-52 -294h387l-9 -48h-439l21 124q-46 -64 -119.5 -101t-164.5 -37q-147 0 -239 85t-92 238q0 113 44 207.5t132.5 153.5t206.5 59zM440 683q-79 0 -142 -31.5t-102 -83.5
t-59.5 -116.5t-20.5 -133.5q0 -137 72.5 -211.5t202.5 -74.5q82 0 146.5 32t104 86.5t60 122t20.5 142.5q0 123 -76.5 195.5t-205.5 72.5z" />
    <glyph glyph-name="oe" unicode="&#x153;" horiz-adv-x="1039" 
d="M990 258h-448q0 -4 -0.5 -12t-0.5 -12q0 -96 45 -149t135 -53q130 0 194 118h56q-80 -163 -253 -163q-80 0 -135 35t-80 99q-76 -134 -230 -134q-111 0 -173 63t-62 174q0 134 76 224.5t204 90.5q79 0 133.5 -36.5t79.5 -100.5q37 64 97 100.5t139 36.5q107 0 166 -67
t59 -177q0 -13 -2 -37zM275 32q101 0 161.5 75t60.5 188q0 90 -48.5 144.5t-134.5 54.5q-103 0 -162 -77t-59 -189q0 -94 46.5 -145t135.5 -51zM762 494q-85 0 -139.5 -53t-73.5 -138h389q-2 88 -47 139.5t-129 51.5z" />
    <glyph glyph-name="Racute" unicode="&#x154;" horiz-adv-x="596" 
d="M47 0l127 715h183q99 0 157 -34q71 -44 71 -135q0 -97 -60 -156.5t-165 -71.5l142 -318h-62l-137 313h-145l-56 -313h-55zM221 667l-54 -307h131q114 0 170 45q28 21 44 57.5t16 77.5q0 69 -47.5 98t-140.5 29h-119zM509 876l-136 -115h-60l116 115h80z" />
    <glyph glyph-name="racute" unicode="&#x155;" horiz-adv-x="299" 
d="M173 525l-15 -86q17 43 58.5 70.5t89.5 27.5q10 0 17 -1l-9 -51q-14 2 -25 2q-118 0 -150 -177l-55 -310h-55l79 446q12 74 13 79h52zM332 715l-138 -119h-60l118 119h80z" />
    <glyph glyph-name="Rcommaaccent" unicode="&#x156;" horiz-adv-x="596" 
d="M47 0l127 715h183q99 0 157 -34q71 -44 71 -135q0 -97 -60 -156.5t-165 -71.5l142 -318h-62l-137 313h-145l-56 -313h-55zM221 667l-54 -307h131q114 0 170 45q28 21 44 57.5t16 77.5q0 69 -47.5 98t-140.5 29h-119zM157 -163l92 115h55l-75 -115h-72z" />
    <glyph glyph-name="rcommaaccent" unicode="&#x157;" horiz-adv-x="299" 
d="M173 525l-15 -86q17 43 58.5 70.5t89.5 27.5q10 0 17 -1l-9 -51q-14 2 -25 2q-118 0 -150 -177l-55 -310h-55l79 446q12 74 13 79h52zM-62 -163l92 115h55l-75 -115h-72z" />
    <glyph glyph-name="Rcaron" unicode="&#x158;" horiz-adv-x="596" 
d="M47 0l127 715h183q99 0 157 -34q71 -44 71 -135q0 -97 -60 -156.5t-165 -71.5l142 -318h-62l-137 313h-145l-56 -313h-55zM221 667l-54 -307h131q114 0 170 45q28 21 44 57.5t16 77.5q0 69 -47.5 98t-140.5 29h-119zM377 760h-56q-33 50 -78 115h49l62 -79l88 79h54
q-14 -13 -119 -115z" />
    <glyph glyph-name="rcaron" unicode="&#x159;" horiz-adv-x="299" 
d="M173 525l-15 -86q17 43 58.5 70.5t89.5 27.5q10 0 17 -1l-9 -51q-14 2 -25 2q-118 0 -150 -177l-55 -310h-55l79 446q12 74 13 79h52zM190 596h-56q-13 20 -41 62.5t-37 56.5h49l62 -81l88 81h54q-22 -20 -64 -63t-55 -56z" />
    <glyph glyph-name="Sacute" unicode="&#x15a;" horiz-adv-x="603" 
d="M25 203h57q2 -80 58.5 -125.5t147.5 -45.5q90 0 138.5 41.5t48.5 108.5q0 89 -160 155l-41 18q-89 38 -128.5 80t-39.5 113q0 85 63.5 133t169.5 48q111 0 174 -51t64 -148h-58q-3 76 -52 114.5t-131 38.5q-76 0 -123 -34t-47 -95q0 -53 33 -85t108 -67l48 -22
q90 -40 135 -81t45 -109q0 -94 -70.5 -149t-180.5 -55q-115 0 -186 55.5t-73 161.5zM510 876l-136 -115h-60l116 115h80z" />
    <glyph glyph-name="sacute" unicode="&#x15b;" horiz-adv-x="499" 
d="M13 159h58q2 -62 42.5 -94.5t111.5 -32.5q69 0 106 29.5t37 76.5q0 39 -25 58t-89 43l-48 18q-70 27 -101 56t-31 83q0 64 49.5 103.5t137.5 39.5t141 -41.5t54 -110.5h-54q-1 47 -39 77.5t-105 30.5q-64 0 -96 -26t-32 -65q0 -37 26 -59.5t88 -44.5l40 -15
q36 -14 56 -23.5t42.5 -25.5t32.5 -38t10 -51q0 -77 -59 -118.5t-147 -41.5q-92 0 -148 44.5t-58 127.5zM435 715l-138 -119h-60l118 119h80z" />
    <glyph glyph-name="Scircumflex" unicode="&#x15c;" horiz-adv-x="603" 
d="M25 203h57q2 -80 58.5 -125.5t147.5 -45.5q90 0 138.5 41.5t48.5 108.5q0 89 -160 155l-41 18q-89 38 -128.5 80t-39.5 113q0 85 63.5 133t169.5 48q111 0 174 -51t64 -148h-58q-3 76 -52 114.5t-131 38.5q-76 0 -123 -34t-47 -95q0 -53 33 -85t108 -67l48 -22
q90 -40 135 -81t45 -109q0 -94 -70.5 -149t-180.5 -55q-115 0 -186 55.5t-73 161.5zM358 875h56q33 -50 78 -115h-48l-62 79l-88 -79h-55q14 13 119 115z" />
    <glyph glyph-name="scircumflex" unicode="&#x15d;" horiz-adv-x="499" 
d="M13 159h58q2 -62 42.5 -94.5t111.5 -32.5q69 0 106 29.5t37 76.5q0 39 -25 58t-89 43l-48 18q-70 27 -101 56t-31 83q0 64 49.5 103.5t137.5 39.5t141 -41.5t54 -110.5h-54q-1 47 -39 77.5t-105 30.5q-64 0 -96 -26t-32 -65q0 -37 26 -59.5t88 -44.5l40 -15
q36 -14 56 -23.5t42.5 -25.5t32.5 -38t10 -51q0 -77 -59 -118.5t-147 -41.5q-92 0 -148 44.5t-58 127.5zM280 715h56q13 -20 41 -62.5t37 -56.5h-48l-62 81l-88 -81h-55q22 20 64 63t55 56z" />
    <glyph glyph-name="Scedilla" unicode="&#x15e;" horiz-adv-x="603" 
d="M25 203h57q2 -80 58.5 -125.5t147.5 -45.5q90 0 138.5 41.5t48.5 108.5q0 89 -160 155l-41 18q-89 38 -128.5 80t-39.5 113q0 85 63.5 133t169.5 48q111 0 174 -51t64 -148h-58q-3 76 -52 114.5t-131 38.5q-76 0 -123 -34t-47 -95q0 -53 33 -85t108 -67l48 -22
q90 -40 135 -81t45 -109q0 -94 -70.5 -149t-180.5 -55q-115 0 -186 55.5t-73 161.5zM160 -163l92 115h55l-75 -115h-72z" />
    <glyph glyph-name="scedilla" unicode="&#x15f;" horiz-adv-x="499" 
d="M13 159h58q2 -62 42.5 -94.5t111.5 -32.5q69 0 106 29.5t37 76.5q0 39 -25 58t-89 43l-48 18q-70 27 -101 56t-31 83q0 64 49.5 103.5t137.5 39.5t141 -41.5t54 -110.5h-54q-1 47 -39 77.5t-105 30.5q-64 0 -96 -26t-32 -65q0 -37 26 -59.5t88 -44.5l40 -15
q36 -14 56 -23.5t42.5 -25.5t32.5 -38t10 -51q0 -77 -59 -118.5t-147 -41.5q-92 0 -148 44.5t-58 127.5zM96 -163l92 115h55l-75 -115h-72z" />
    <glyph glyph-name="Scaron" unicode="&#x160;" horiz-adv-x="603" 
d="M25 203h57q2 -80 58.5 -125.5t147.5 -45.5q90 0 138.5 41.5t48.5 108.5q0 89 -160 155l-41 18q-89 38 -128.5 80t-39.5 113q0 85 63.5 133t169.5 48q111 0 174 -51t64 -148h-58q-3 76 -52 114.5t-131 38.5q-76 0 -123 -34t-47 -95q0 -53 33 -85t108 -67l48 -22
q90 -40 135 -81t45 -109q0 -94 -70.5 -149t-180.5 -55q-115 0 -186 55.5t-73 161.5zM403 760h-56q-33 50 -78 115h49l62 -79l88 79h54q-14 -13 -119 -115z" />
    <glyph glyph-name="scaron" unicode="&#x161;" horiz-adv-x="499" 
d="M13 159h58q2 -62 42.5 -94.5t111.5 -32.5q69 0 106 29.5t37 76.5q0 39 -25 58t-89 43l-48 18q-70 27 -101 56t-31 83q0 64 49.5 103.5t137.5 39.5t141 -41.5t54 -110.5h-54q-1 47 -39 77.5t-105 30.5q-64 0 -96 -26t-32 -65q0 -37 26 -59.5t88 -44.5l40 -15
q36 -14 56 -23.5t42.5 -25.5t32.5 -38t10 -51q0 -77 -59 -118.5t-147 -41.5q-92 0 -148 44.5t-58 127.5zM316 596h-56q-13 20 -41 62.5t-37 56.5h49l62 -81l88 81h54q-22 -20 -64 -63t-55 -56z" />
    <glyph glyph-name="uni0162" unicode="&#x162;" horiz-adv-x="523" 
d="M178 0l118 667h-215l9 48h485l-9 -48h-214l-118 -667h-56zM87 -163l92 115h55l-75 -115h-72z" />
    <glyph glyph-name="uni0163" unicode="&#x163;" horiz-adv-x="270" 
d="M126 484h-81l7 41h81l25 142h55l-25 -142h100l-7 -41h-100l-65 -368q-4 -16 -4 -35q0 -47 63 -47q7 0 16 1l-8 -41q-14 -2 -30 -2q-51 0 -74 18t-23 60q0 18 5 46zM22 -163l92 115h55l-75 -115h-72z" />
    <glyph glyph-name="Tcaron" unicode="&#x164;" horiz-adv-x="523" 
d="M178 0l118 667h-215l9 48h485l-9 -48h-214l-118 -667h-56zM367 760h-56q-33 50 -78 115h49l62 -79l88 79h54q-14 -13 -119 -115z" />
    <glyph glyph-name="tcaron" unicode="&#x165;" horiz-adv-x="311" 
d="M126 484h-81l7 41h81l25 142h55l-25 -142h100l-7 -41h-100l-65 -368q-4 -16 -4 -35q0 -47 63 -47q7 0 16 1l-8 -41q-14 -2 -30 -2q-51 0 -74 18t-23 60q0 18 5 46zM465 715l-119 -229h-49l107 229h61z" />
    <glyph glyph-name="Tbar" unicode="&#x166;" horiz-adv-x="546" 
d="M304 340l-60 -340h-56l60 340h-148l9 48h147l50 279h-215l9 48h485l-9 -48h-214l-50 -279h159l-9 -48h-158z" />
    <glyph glyph-name="tbar" unicode="&#x167;" horiz-adv-x="279" 
d="M26 344h81l25 140h-81l7 41h81l25 142h55l-25 -142h100l-7 -41h-100l-25 -140h100l-7 -41h-100l-33 -187q-4 -16 -4 -35q0 -47 63 -47q7 0 16 1l-8 -41q-14 -2 -30 -2q-51 0 -74 18t-23 60q0 18 5 46l33 187h-81z" />
    <glyph glyph-name="Utilde" unicode="&#x168;" horiz-adv-x="681" 
d="M295 -14q-104 0 -160.5 50t-56.5 145q0 43 9 89l78 445h56l-79 -446q-7 -43 -7 -78q0 -160 170 -160q103 0 151.5 60.5t71.5 190.5l77 433h56l-80 -451q-20 -106 -48 -154q-35 -62 -91.5 -93t-146.5 -31zM330 765h-42q6 89 73 89q27 0 76 -20q50 -21 63 -21q33 0 40 54
h41q-8 -95 -79 -95q-27 0 -67 17q-51 23 -69 23q-31 0 -36 -47z" />
    <glyph glyph-name="utilde" unicode="&#x169;" horiz-adv-x="567" 
d="M522 525l-78 -445q-11 -58 -14 -80h-55l15 84q-62 -98 -178 -98q-75 0 -117 39.5t-42 111.5q0 28 6 66l57 322h55l-55 -310q-7 -40 -7 -67q0 -116 124 -116q67 0 115 47t61 116l58 330h55zM234 613h-42q6 89 73 89q27 0 76 -20q50 -21 63 -21q33 0 40 54h41
q-8 -95 -79 -95q-27 0 -67 17q-51 23 -69 23q-31 0 -36 -47z" />
    <glyph glyph-name="Umacron" unicode="&#x16a;" horiz-adv-x="681" 
d="M295 -14q-104 0 -160.5 50t-56.5 145q0 43 9 89l78 445h56l-79 -446q-7 -43 -7 -78q0 -160 170 -160q103 0 151.5 60.5t71.5 190.5l77 433h56l-80 -451q-20 -106 -48 -154q-35 -62 -91.5 -93t-146.5 -31zM299 791l7 39h244l-7 -39h-244z" />
    <glyph glyph-name="umacron" unicode="&#x16b;" horiz-adv-x="567" 
d="M522 525l-78 -445q-11 -58 -14 -80h-55l15 84q-62 -98 -178 -98q-75 0 -117 39.5t-42 111.5q0 28 6 66l57 322h55l-55 -310q-7 -40 -7 -67q0 -116 124 -116q67 0 115 47t61 116l58 330h55zM216 635l7 39h244l-7 -39h-244z" />
    <glyph glyph-name="Ubreve" unicode="&#x16c;" horiz-adv-x="681" 
d="M295 -14q-104 0 -160.5 50t-56.5 145q0 43 9 89l78 445h56l-79 -446q-7 -43 -7 -78q0 -160 170 -160q103 0 151.5 60.5t71.5 190.5l77 433h56l-80 -451q-20 -106 -48 -154q-35 -62 -91.5 -93t-146.5 -31zM421 809q72 0 95 70h46q-37 -110 -144 -110q-57 0 -88 28.5
t-32 81.5h45q1 -30 19.5 -50t58.5 -20z" />
    <glyph glyph-name="ubreve" unicode="&#x16d;" horiz-adv-x="567" 
d="M522 525l-78 -445q-11 -58 -14 -80h-55l15 84q-62 -98 -178 -98q-75 0 -117 39.5t-42 111.5q0 28 6 66l57 322h55l-55 -310q-7 -40 -7 -67q0 -116 124 -116q67 0 115 47t61 116l58 330h55zM335 645q72 0 95 70h46q-37 -110 -144 -110q-57 0 -88 28.5t-32 81.5h45
q1 -30 19.5 -50t58.5 -20z" />
    <glyph glyph-name="Uring" unicode="&#x16e;" horiz-adv-x="681" 
d="M295 -14q-104 0 -160.5 50t-56.5 145q0 43 9 89l78 445h56l-79 -446q-7 -43 -7 -78q0 -160 170 -160q103 0 151.5 60.5t71.5 190.5l77 433h56l-80 -451q-20 -106 -48 -154q-35 -62 -91.5 -93t-146.5 -31zM423 751q-36 0 -60 24.5t-24 61.5q0 35 24.5 59.5t60.5 24.5
t60.5 -24.5t24.5 -59.5q0 -37 -24.5 -61.5t-61.5 -24.5zM369 837q0 -24 15.5 -40.5t38.5 -16.5q24 0 39.5 16t15.5 41q0 23 -15.5 39t-39.5 16q-23 0 -38.5 -16t-15.5 -39z" />
    <glyph glyph-name="uring" unicode="&#x16f;" horiz-adv-x="567" 
d="M522 525l-78 -445q-11 -58 -14 -80h-55l15 84q-62 -98 -178 -98q-75 0 -117 39.5t-42 111.5q0 28 6 66l57 322h55l-55 -310q-7 -40 -7 -67q0 -116 124 -116q67 0 115 47t61 116l58 330h55zM326 591q-36 0 -60 24.5t-24 61.5q0 35 24.5 59.5t60.5 24.5t60.5 -24.5
t24.5 -59.5q0 -37 -24.5 -61.5t-61.5 -24.5zM272 677q0 -24 15.5 -40.5t38.5 -16.5q24 0 39.5 16t15.5 41q0 23 -15.5 39t-39.5 16q-23 0 -38.5 -16t-15.5 -39z" />
    <glyph glyph-name="Uhungarumlaut" unicode="&#x170;" horiz-adv-x="681" 
d="M295 -14q-104 0 -160.5 50t-56.5 145q0 43 9 89l78 445h56l-79 -446q-7 -43 -7 -78q0 -160 170 -160q103 0 151.5 60.5t71.5 190.5l77 433h56l-80 -451q-20 -106 -48 -154q-35 -62 -91.5 -93t-146.5 -31zM483 876l-136 -115h-58l116 115h78zM668 876l-136 -115h-58
l116 115h78z" />
    <glyph glyph-name="uhungarumlaut" unicode="&#x171;" horiz-adv-x="567" 
d="M522 525l-78 -445q-11 -58 -14 -80h-55l15 84q-62 -98 -178 -98q-75 0 -117 39.5t-42 111.5q0 28 6 66l57 322h55l-55 -310q-7 -40 -7 -67q0 -116 124 -116q67 0 115 47t61 116l58 330h55zM397 715l-138 -119h-58l118 119h78zM567 715l-138 -119h-58l118 119h78z" />
    <glyph glyph-name="Uogonek" unicode="&#x172;" horiz-adv-x="681" 
d="M295 -14q-104 0 -160.5 50t-56.5 145q0 43 9 89l78 445h56l-79 -446q-7 -43 -7 -78q0 -160 170 -160q103 0 151.5 60.5t71.5 190.5l77 433h56l-80 -451q-20 -106 -48 -154q-35 -62 -91.5 -93t-146.5 -31zM308 -48l92 -115h-74l-75 115h57z" />
    <glyph glyph-name="uogonek" unicode="&#x173;" horiz-adv-x="567" 
d="M522 525l-78 -445q-11 -58 -14 -80h-55l15 84q-62 -98 -178 -98q-75 0 -117 39.5t-42 111.5q0 28 6 66l57 322h55l-55 -310q-7 -40 -7 -67q0 -116 124 -116q67 0 115 47t61 116l58 330h55zM232 -48l92 -115h-74l-75 115h57z" />
    <glyph glyph-name="Wcircumflex" unicode="&#x174;" horiz-adv-x="839" 
d="M871 715l-281 -715h-80l-17 391q-3 55 -6 148t-5 133h-2q-62 -160 -123 -310l-148 -362h-81l-21 715h57l8 -454q1 -19 3.5 -74.5t2.5 -67.5t-1 -75h3q17 49 47 123t37 93l185 455h81l19 -447q7 -194 7 -225h2l85 226l172 446h56zM484 875h56q33 -50 78 -115h-48l-62 79
l-88 -79h-55q14 13 119 115z" />
    <glyph glyph-name="wcircumflex" unicode="&#x175;" horiz-adv-x="792" 
d="M205 0h-66q-3 22 -12 92t-14 107q-19 131 -44 326h58l32 -270q2 -18 11 -89t13 -115h2q10 25 102 226l116 248h65l22 -236q2 -22 10.5 -106t11.5 -131h2q18 39 59.5 125t59.5 124l107 224h58q-18 -36 -74.5 -151t-87.5 -175l-99 -199h-70l-17 202q-20 203 -24 270h-3
q-12 -31 -60.5 -135.5t-63.5 -138.5zM437 715h56q13 -20 41 -62.5t37 -56.5h-48l-62 81l-88 -81h-55q22 20 64 63t55 56z" />
    <glyph glyph-name="Ycircumflex" unicode="&#x176;" horiz-adv-x="598" 
d="M211 0l48 272l-170 443h61q21 -58 74.5 -198.5t71.5 -189.5q135 180 287 388h66l-335 -443l-48 -272h-55zM365 875h56q33 -50 78 -115h-48l-62 79l-88 -79h-55q14 13 119 115z" />
    <glyph glyph-name="ycircumflex" unicode="&#x177;" horiz-adv-x="511" 
d="M122 -180h-55l102 177q-5 25 -46 227.5t-60 300.5h60q60 -312 88 -463h1q12 22 112 207t139 256h59q-192 -349 -400 -705zM298 715h56q13 -20 41 -62.5t37 -56.5h-48l-62 81l-88 -81h-55q22 20 64 63t55 56z" />
    <glyph glyph-name="Ydieresis" unicode="&#x178;" horiz-adv-x="598" 
d="M211 0l48 272l-170 443h61q21 -58 74.5 -198.5t71.5 -189.5q135 180 287 388h66l-335 -443l-48 -272h-55zM275 766l15 80h61l-15 -80h-61zM414 766l15 80h61l-15 -80h-61z" />
    <glyph glyph-name="Zacute" unicode="&#x179;" horiz-adv-x="576" 
d="M-21 0l8 41q9 10 50.5 58t65.5 75l338 385q19 22 93 108h-431l9 48h501l-8 -42q-30 -36 -112 -130l-319 -366q-76 -84 -114 -129h432l-9 -48h-504zM502 876l-136 -115h-60l116 115h80z" />
    <glyph glyph-name="zacute" unicode="&#x17a;" horiz-adv-x="489" 
d="M-21 0l7 39l301 312q83 83 126 131q-17 0 -83 -0.5t-86 -0.5h-169l8 44h408l-7 -39l-290 -302l-142 -141q18 0 75.5 0.5t80.5 0.5h195l-8 -44h-416zM438 715l-138 -119h-60l118 119h80z" />
    <glyph glyph-name="Zdotaccent" unicode="&#x17b;" horiz-adv-x="576" 
d="M-21 0l8 41q9 10 50.5 58t65.5 75l338 385q19 22 93 108h-431l9 48h501l-8 -42q-30 -36 -112 -130l-319 -366q-76 -84 -114 -129h432l-9 -48h-504zM320 769l15 80h61l-15 -80h-61z" />
    <glyph glyph-name="zdotaccent" unicode="&#x17c;" horiz-adv-x="489" 
d="M-21 0l7 39l301 312q83 83 126 131q-17 0 -83 -0.5t-86 -0.5h-169l8 44h408l-7 -39l-290 -302l-142 -141q18 0 75.5 0.5t80.5 0.5h195l-8 -44h-416zM255 612l15 80h61l-15 -80h-61z" />
    <glyph glyph-name="Zcaron" unicode="&#x17d;" horiz-adv-x="576" 
d="M-21 0l8 41q9 10 50.5 58t65.5 75l338 385q19 22 93 108h-431l9 48h501l-8 -42q-30 -36 -112 -130l-319 -366q-76 -84 -114 -129h432l-9 -48h-504zM385 760h-56q-33 50 -78 115h49l62 -79l88 79h54q-14 -13 -119 -115z" />
    <glyph glyph-name="zcaron" unicode="&#x17e;" horiz-adv-x="489" 
d="M-21 0l7 39l301 312q83 83 126 131q-17 0 -83 -0.5t-86 -0.5h-169l8 44h408l-7 -39l-290 -302l-142 -141q18 0 75.5 0.5t80.5 0.5h195l-8 -44h-416zM297 596h-56q-13 20 -41 62.5t-37 56.5h49l62 -81l88 81h54q-22 -20 -64 -63t-55 -56z" />
    <glyph glyph-name="uni0186" unicode="&#x186;" horiz-adv-x="776" 
d="M126 508l-59 -1q46 104 131.5 163t207.5 59q144 0 236.5 -85t92.5 -238q0 -113 -43.5 -207.5t-131.5 -153.5t-206 -59q-125 0 -208 60t-109 169h58q24 -87 92 -135t171 -48q77 0 139.5 31.5t101 83.5t58.5 116.5t20 133.5q0 135 -72 210.5t-199 75.5q-192 0 -280 -175z
" />
    <glyph glyph-name="uni018F" unicode="&#x18f;" horiz-adv-x="787" 
d="M48 370h643q1 11 1 31q0 128 -76.5 204.5t-203.5 76.5q-188 0 -267 -176l-55 2q10 31 32 65t60 71t100 61t135 24q154 0 242 -91t88 -236q0 -108 -42.5 -201t-131.5 -154t-208 -61q-157 0 -238.5 89.5t-81.5 239.5q0 27 3 55zM686 326h-590v-15q0 -129 73 -204t201 -75
q68 0 126 25.5t96.5 68t62.5 93.5t31 107z" />
    <glyph glyph-name="uni0190" unicode="&#x190;" horiz-adv-x="551" 
d="M555 519h-54q-1 80 -46.5 123t-124.5 43q-86 0 -137 -48.5t-51 -135.5q0 -68 49.5 -109.5t125.5 -41.5h17l-7 -43q-57 0 -102 -13t-77.5 -49.5t-32.5 -93.5q0 -56 36.5 -88.5t97.5 -32.5q135 0 166 136h52q-15 -81 -72.5 -130.5t-150.5 -49.5q-87 0 -136 42.5t-49 111.5
q0 70 42 120t116 67v3q-58 18 -94 64t-36 108q0 102 66.5 164.5t179.5 62.5q105 0 163.5 -54.5t58.5 -155.5z" />
    <glyph glyph-name="florin" unicode="&#x192;" horiz-adv-x="377" 
d="M241 506l-4 -25h132l-6 -39h-131l-55 -379q-18 -131 -64 -191.5t-135 -60.5q-16 0 -30 2l5 43q2 0 9 -0.5t11 -0.5q70 0 101 46t47 147l58 394h-129l6 39h129l2 14q17 120 56.5 173.5t127.5 53.5q14 0 30 -2l-7 -45q-7 1 -23 1q-62 0 -89.5 -41.5t-40.5 -128.5z" />
    <glyph glyph-name="uni019D" unicode="&#x19d;" horiz-adv-x="722" 
d="M35 -64q25 137 71 397t68 382h81l179 -439q13 -33 45.5 -114t41.5 -107h2l41 241l75 419h54l-127 -715h-78q-32 76 -90 220t-86 211q-82 201 -93 237h-2q-4 -19 -25 -147.5t-27 -161.5l-74 -419q-13 -72 -44 -104.5t-98 -32.5q-6 0 -30 3l8 45q8 -2 23 -2q39 0 58 19.5
t27 67.5z" />
    <glyph glyph-name="uni019F" unicode="&#x19f;" horiz-adv-x="812" 
d="M442 729q148 0 239 -85.5t91 -231.5q0 -184 -105 -305t-283 -121q-145 0 -235 85t-90 238q0 85 25.5 160.5t73 133.5t121 92t163.5 34zM386 31q140 0 223 86.5t102 221.5h-595q-1 -5 -1 -22q0 -134 72 -210t199 -76zM439 683q-135 0 -217.5 -84.5t-101.5 -213.5h595
q0 2 0.5 12.5t0.5 14.5q0 124 -75.5 197.5t-201.5 73.5z" />
    <glyph glyph-name="Ohorn" unicode="&#x1a0;" horiz-adv-x="819" 
d="M444 729q149 0 242 -85.5t93 -227.5q0 -187 -105.5 -308.5t-283.5 -121.5q-147 0 -239 85t-92 238q0 84 26 159.5t73.5 134t121.5 92.5t164 34zM440 683q-79 0 -142 -31.5t-102 -83.5t-59.5 -116.5t-20.5 -133.5q0 -137 72.5 -211.5t202.5 -74.5q82 0 146.5 32t104 86.5
t60 122t20.5 142.5q0 123 -76.5 195.5t-205.5 72.5zM723 906l-104 -191h-46l87 191h63z" />
    <glyph glyph-name="ohorn" unicode="&#x1a1;" horiz-adv-x="614" 
d="M277 32q101 0 163.5 75t62.5 188q0 89 -50 144t-137 55q-104 0 -163.5 -77.5t-59.5 -188.5q0 -94 47.5 -145t136.5 -51zM275 -13q-111 0 -174 63t-63 174q0 134 76.5 224.5t207.5 90.5q110 0 174.5 -65t64.5 -174q0 -133 -78.5 -223t-207.5 -90zM559 715l-104 -191h-46
l87 191h63z" />
    <glyph glyph-name="Uhorn" unicode="&#x1af;" horiz-adv-x="681" 
d="M781 906l-104 -191h-16l-80 -451q-20 -106 -48 -154q-35 -62 -91.5 -93t-146.5 -31q-104 0 -160.5 50t-56.5 145q0 43 9 89l78 445h56l-79 -446q-7 -43 -7 -78q0 -160 170 -160q103 0 151.5 60.5t71.5 190.5l77 433h26l87 191h63z" />
    <glyph glyph-name="uhorn" unicode="&#x1b0;" horiz-adv-x="567" 
d="M522 525l-78 -445q-11 -58 -14 -80h-55l15 84q-62 -98 -178 -98q-75 0 -117 39.5t-42 111.5q0 28 6 66l57 322h55l-55 -310q-7 -40 -7 -67q0 -116 124 -116q67 0 115 47t61 116l58 330h55zM645 716l-104 -191h-46l87 191h63z" />
    <glyph glyph-name="uni01C4" unicode="&#x1c4;" horiz-adv-x="1292" 
d="M47 0l127 715h106q96 0 145 -8q119 -19 184.5 -87t65.5 -201q0 -168 -89 -279q-35 -45 -79 -74t-98 -43t-103.5 -18.5t-117.5 -4.5h-141zM221 668l-110 -621h125q129 0 212 43q170 88 170 328q0 168 -141 227q-55 23 -151 23h-105zM695 0l8 41q9 10 50.5 58t65.5 75
l338 385q19 22 93 108h-431l9 48h501l-8 -42q-30 -36 -112 -130l-319 -366q-76 -84 -114 -129h432l-9 -48h-504zM1101 760h-56q-33 50 -78 115h49l62 -79l88 79h54q-14 -13 -119 -115z" />
    <glyph glyph-name="uni01C5" unicode="&#x1c5;" horiz-adv-x="1205" 
d="M47 0l127 715h106q96 0 145 -8q119 -19 184.5 -87t65.5 -201q0 -168 -89 -279q-35 -45 -79 -74t-98 -43t-103.5 -18.5t-117.5 -4.5h-141zM221 668l-110 -621h125q129 0 212 43q170 88 170 328q0 168 -141 227q-55 23 -151 23h-105zM695 0l7 39l301 312q83 83 126 131
q-17 0 -83 -0.5t-86 -0.5h-169l8 44h408l-7 -39l-290 -302l-142 -141q18 0 75.5 0.5t80.5 0.5h195l-8 -44h-416zM1013 596h-56q-13 20 -41 62.5t-37 56.5h49l62 -81l88 81h54q-22 -20 -64 -63t-55 -56z" />
    <glyph glyph-name="uni01C6" unicode="&#x1c6;" horiz-adv-x="1102" 
d="M476 0h-50l17 86q-67 -99 -193 -99q-93 0 -152.5 63t-59.5 172q0 135 77 226t191 91q74 0 123.5 -34.5t66.5 -87.5q2 21 6 43q7 50 16 93l29 162h56zM306 494q-96 0 -153 -77t-57 -192q0 -87 44 -140t128 -53q101 0 155.5 81.5t54.5 192.5q0 86 -44 137t-128 51zM592 0
l7 39l301 312q84 83 126 131q-18 0 -83 -0.5t-86 -0.5h-169l8 44h408l-7 -39l-290 -302l-142 -141q18 0 75.5 0.5t80.5 0.5h195l-8 -44h-416zM910 596h-56q-13 20 -41 62.5t-37 56.5h49l62 -81l88 81h54q-22 -20 -64 -63t-55 -56z" />
    <glyph glyph-name="uni01C7" unicode="&#x1c7;" horiz-adv-x="987" 
d="M174 715h54l-118 -667h353l-9 -48h-407zM908 715h56l-91 -515q-18 -106 -58 -160t-134 -54q-157 0 -157 156q0 9 2 31h53q-1 -9 -1 -26q0 -118 106 -118q28 0 49 9t34.5 23.5t24 41.5t16.5 53t13 69z" />
    <glyph glyph-name="uni01C8" unicode="&#x1c8;" horiz-adv-x="746" 
d="M174 715h54l-118 -667h353l-9 -48h-407zM646 525h55l-102 -581q-14 -80 -45.5 -110.5t-97.5 -30.5q-17 0 -32 3l7 43q14 -2 24 -2q38 0 58.5 19.5t28.5 66.5zM716 604h-57l20 111h57z" />
    <glyph glyph-name="uni01C9" unicode="&#x1c9;" horiz-adv-x="452" 
d="M161 715h55l-127 -715h-55zM352 525h55l-102 -581q-14 -80 -45.5 -110.5t-97.5 -30.5q-17 0 -32 3l7 43q14 -2 24 -2q38 0 58.5 19.5t28.5 66.5zM422 604h-57l20 111h57z" />
    <glyph glyph-name="uni01CA" unicode="&#x1ca;" horiz-adv-x="1183" 
d="M565 0h-72l-184 433q-75 176 -90 225h-2q-2 -17 -51 -301l-63 -357h-56l128 715h75l185 -439q70 -166 87 -215h2q4 18 18 112t21 130l73 412h56zM1104 715h56l-91 -515q-18 -106 -58 -160t-134 -54q-157 0 -157 156q0 9 2 31h53q-1 -9 -1 -26q0 -118 106 -118q28 0 49 9
t34.5 23.5t24 41.5t16.5 53t13 69z" />
    <glyph glyph-name="uni01CB" unicode="&#x1cb;" horiz-adv-x="942" 
d="M565 0h-72l-184 433q-75 176 -90 225h-2q-2 -17 -51 -301l-63 -357h-56l128 715h75l185 -439q70 -166 87 -215h2q4 18 18 112t21 130l73 412h56zM842 525h55l-102 -581q-14 -80 -45.5 -110.5t-97.5 -30.5q-17 0 -32 3l7 43q14 -2 24 -2q38 0 58.5 19.5t28.5 66.5z
M912 604h-57l20 111h57z" />
    <glyph glyph-name="uni01CC" unicode="&#x1cc;" horiz-adv-x="791" 
d="M29 0l78 445q11 58 14 80h55l-15 -84q60 98 180 98q75 0 118 -39.5t43 -111.5q0 -28 -6 -66l-57 -322h-55l55 310q7 40 7 67q0 116 -126 116q-68 0 -117 -47t-61 -116l-58 -330h-55zM691 525h55l-102 -581q-14 -80 -45.5 -110.5t-97.5 -30.5q-17 0 -32 3l7 43
q14 -2 24 -2q38 0 58.5 19.5t28.5 66.5zM761 604h-57l20 111h57z" />
    <glyph glyph-name="uni01F1" unicode="&#x1f1;" horiz-adv-x="1279" 
d="M47 0l127 715h106q96 0 145 -8q119 -19 184.5 -87t65.5 -201q0 -168 -89 -279q-35 -45 -79 -74t-98 -43t-103.5 -18.5t-117.5 -4.5h-141zM221 668l-110 -621h125q129 0 212 43q170 88 170 328q0 168 -141 227q-55 23 -151 23h-105zM682 0l8 41q9 10 50.5 58t65.5 75
l338 385q19 22 93 108h-431l9 48h501l-8 -42q-30 -36 -112 -130l-319 -366q-76 -84 -114 -129h432l-9 -48h-504z" />
    <glyph glyph-name="uni01F2" unicode="&#x1f2;" horiz-adv-x="1205" 
d="M47 0l127 715h106q96 0 145 -8q119 -19 184.5 -87t65.5 -201q0 -168 -89 -279q-35 -45 -79 -74t-98 -43t-103.5 -18.5t-117.5 -4.5h-141zM221 668l-110 -621h125q129 0 212 43q170 88 170 328q0 168 -141 227q-55 23 -151 23h-105zM695 0l7 39l301 312q83 83 126 131
q-17 0 -83 -0.5t-86 -0.5h-169l8 44h408l-7 -39l-290 -302l-142 -141q18 0 75.5 0.5t80.5 0.5h195l-8 -44h-416z" />
    <glyph glyph-name="uni01F3" unicode="&#x1f3;" horiz-adv-x="1102" 
d="M476 0h-50l17 86q-67 -99 -193 -99q-93 0 -152.5 63t-59.5 172q0 135 77 226t191 91q74 0 123.5 -34.5t66.5 -87.5q2 21 6 43q7 50 16 93l29 162h56zM306 494q-96 0 -153 -77t-57 -192q0 -87 44 -140t128 -53q101 0 155.5 81.5t54.5 192.5q0 86 -44 137t-128 51zM592 0
l7 39l301 312q84 83 126 131q-18 0 -83 -0.5t-86 -0.5h-169l8 44h408l-7 -39l-290 -302l-142 -141q18 0 75.5 0.5t80.5 0.5h195l-8 -44h-416z" />
    <glyph glyph-name="Aringacute" unicode="&#x1fa;" horiz-adv-x="671" 
d="M-36 0l415 715h65l161 -715h-56l-54 247h-332l-140 -247h-59zM403 667h-2q-152 -268 -172 -305l-40 -68h295l-16 77q-7 33 -31 137.5t-34 158.5zM436 757q-36 0 -60 24.5t-24 61.5q0 35 24.5 59.5t60.5 24.5t60.5 -24.5t24.5 -59.5q0 -37 -24.5 -61.5t-61.5 -24.5z
M382 843q0 -24 15.5 -40.5t38.5 -16.5q24 0 39.5 16t15.5 41q0 23 -15.5 39t-39.5 16q-23 0 -38.5 -16t-15.5 -39zM595 1076l-138 -119h-60l118 119h80z" />
    <glyph glyph-name="aringacute" unicode="&#x1fb;" horiz-adv-x="543" 
d="M134 368h-55q15 77 70 124t145 47q83 0 131.5 -39.5t48.5 -115.5q0 -37 -7 -77q-4 -26 -14 -78t-22 -120q-13 -78 -9 -109h-51q-2 45 9 97q-30 -48 -82 -77.5t-122 -29.5q-75 0 -118.5 35.5t-43.5 93.5q0 38 16.5 67t40 46t62 30.5t68.5 19t73 11.5q59 9 140 15
q7 37 7 62q0 124 -132 124q-127 0 -155 -126zM401 233q6 31 7 34q-87 -8 -161 -21q-92 -18 -125 -38q-49 -29 -49 -81q0 -45 31.5 -69.5t87.5 -24.5q77 0 134.5 51.5t74.5 148.5zM336 575q-36 0 -60 24.5t-24 61.5q0 35 24.5 59.5t60.5 24.5t60.5 -24.5t24.5 -59.5
q0 -37 -24.5 -61.5t-61.5 -24.5zM282 661q0 -24 15.5 -40.5t38.5 -16.5q24 0 39.5 16t15.5 41q0 23 -15.5 39t-39.5 16q-23 0 -38.5 -16t-15.5 -39zM516 902l-138 -119h-60l118 119h80z" />
    <glyph glyph-name="AEacute" unicode="&#x1fc;" horiz-adv-x="890" 
d="M905 715l-9 -48h-359l-44 -277h330l-8 -48h-328l-46 -294h353l-9 -48h-406l35 223h-251l-160 -223h-61l517 715h446zM421 270l30 185q9 50 19.5 118.5t15.5 96.5h-4l-125 -177l-160 -223h224zM797 876l-136 -115h-60l116 115h80z" />
    <glyph glyph-name="aeacute" unicode="&#x1fd;" horiz-adv-x="954" 
d="M905 258h-448q0 -4 -0.5 -12t-0.5 -12q0 -96 45 -149t135 -53q130 0 194 118h56q-80 -163 -253 -163q-84 0 -140.5 39.5t-77.5 111.5q-31 -64 -91.5 -106t-148.5 -42q-74 0 -117.5 35.5t-43.5 93.5q0 36 14 63.5t40 45t58 30.5t74 20.5t82.5 12.5t87.5 9q30 3 44 4
q7 37 7 66q0 124 -132 124q-127 0 -155 -126h-55q15 77 70 124t145 47q68 0 112 -29.5t58 -84.5q79 114 218 114q107 0 166 -67t59 -177q0 -13 -2 -37zM677 494q-85 0 -139.5 -53t-73.5 -138h389q-2 88 -47 139.5t-129 51.5zM401 233l7 30q-19 -2 -52.5 -5.5t-53.5 -6
t-50 -7t-48.5 -9t-41.5 -11.5t-37 -16t-27 -20.5t-19 -27t-6 -33.5q0 -45 31.5 -69.5t87.5 -24.5q77 0 134.5 51.5t74.5 148.5zM646 715l-138 -119h-60l118 119h80z" />
    <glyph glyph-name="Oslashacute" unicode="&#x1fe;" horiz-adv-x="819" 
d="M444 729q102 0 181 -42l65 88l40 -30l-64 -85q113 -86 113 -244q0 -187 -105.5 -308.5t-283.5 -121.5q-111 0 -191 49l-80 -107l-40 26l81 109q-101 87 -101 246q0 84 26 159.5t73.5 134t121.5 92.5t164 34zM722 415q0 131 -87 204l-406 -544q65 -43 162 -43
q82 0 146.5 32t104 86.5t60 122t20.5 142.5zM440 683q-79 0 -142 -31.5t-102 -83.5t-59.5 -116.5t-20.5 -133.5q0 -136 75 -213l404 542q-67 36 -155 36zM584 876l-136 -115h-60l116 115h80z" />
    <glyph glyph-name="oslashacute" unicode="&#x1ff;" horiz-adv-x="614" 
d="M467 715l-138 -119h-60l118 119h80zM275 -13q-63 0 -119 24l-43 -58l-39 28l41 55q-77 63 -77 188q0 134 76.5 224.5t207.5 90.5q82 0 138 -37l44 59l39 -28l-46 -61q64 -67 64 -172q0 -133 -78.5 -223t-207.5 -90zM93 228q0 -101 53 -151l283 384q-45 33 -113 33
q-104 0 -163.5 -77.5t-59.5 -188.5zM277 32q101 0 163.5 75t62.5 188q0 79 -39 132l-279 -378q39 -17 92 -17z" />
    <glyph glyph-name="uni0218" unicode="&#x218;" horiz-adv-x="603" 
d="M25 203h57q2 -80 58.5 -125.5t147.5 -45.5q90 0 138.5 41.5t48.5 108.5q0 89 -160 155l-41 18q-89 38 -128.5 80t-39.5 113q0 85 63.5 133t169.5 48q111 0 174 -51t64 -148h-58q-3 76 -52 114.5t-131 38.5q-76 0 -123 -34t-47 -95q0 -53 33 -85t108 -67l48 -22
q90 -40 135 -81t45 -109q0 -94 -70.5 -149t-180.5 -55q-115 0 -186 55.5t-73 161.5zM160 -163l92 115h55l-75 -115h-72z" />
    <glyph glyph-name="uni0219" unicode="&#x219;" horiz-adv-x="499" 
d="M13 159h58q2 -62 42.5 -94.5t111.5 -32.5q69 0 106 29.5t37 76.5q0 39 -25 58t-89 43l-48 18q-70 27 -101 56t-31 83q0 64 49.5 103.5t137.5 39.5t141 -41.5t54 -110.5h-54q-1 47 -39 77.5t-105 30.5q-64 0 -96 -26t-32 -65q0 -37 26 -59.5t88 -44.5l40 -15
q36 -14 56 -23.5t42.5 -25.5t32.5 -38t10 -51q0 -77 -59 -118.5t-147 -41.5q-92 0 -148 44.5t-58 127.5zM96 -163l92 115h55l-75 -115h-72z" />
    <glyph glyph-name="uni021A" unicode="&#x21a;" horiz-adv-x="523" 
d="M178 0l118 667h-215l9 48h485l-9 -48h-214l-118 -667h-56zM87 -163l92 115h55l-75 -115h-72z" />
    <glyph glyph-name="uni021B" unicode="&#x21b;" horiz-adv-x="270" 
d="M126 484h-81l7 41h81l25 142h55l-25 -142h100l-7 -41h-100l-65 -368q-4 -16 -4 -35q0 -47 63 -47q7 0 16 1l-8 -41q-14 -2 -30 -2q-51 0 -74 18t-23 60q0 18 5 46zM22 -161l92 115h55l-75 -115h-72z" />
    <glyph glyph-name="uni021D" unicode="&#x21d;" horiz-adv-x="530" 
d="M-17 8h54q1 -80 46.5 -123t124.5 -43q86 0 137 48.5t51 135.5q0 68 -49.5 109.5t-125.5 41.5h-17l7 43q57 0 102 13t77.5 49.5t32.5 93.5q0 56 -36.5 88.5t-97.5 32.5q-135 0 -166 -136h-52q15 81 72.5 130.5t150.5 49.5q87 0 136 -42.5t49 -111.5q0 -70 -42 -120
t-116 -67v-3q58 -18 94 -64t36 -108q0 -102 -66.5 -164.5t-179.5 -62.5q-105 0 -163.5 54.5t-58.5 155.5z" />
    <glyph glyph-name="uni0226" unicode="&#x226;" horiz-adv-x="671" 
d="M-36 0l415 715h65l161 -715h-56l-54 247h-332l-140 -247h-59zM403 667h-2q-152 -268 -172 -305l-40 -68h295l-16 77q-7 33 -31 137.5t-34 158.5zM392 769l15 80h61l-15 -80h-61z" />
    <glyph glyph-name="uni0227" unicode="&#x227;" horiz-adv-x="543" 
d="M134 368h-55q15 77 70 124t145 47q83 0 131.5 -39.5t48.5 -115.5q0 -37 -7 -77q-4 -26 -14 -78t-22 -120q-13 -78 -9 -109h-51q-2 45 9 97q-30 -48 -82 -77.5t-122 -29.5q-75 0 -118.5 35.5t-43.5 93.5q0 38 16.5 67t40 46t62 30.5t68.5 19t73 11.5q59 9 140 15
q7 37 7 62q0 124 -132 124q-127 0 -155 -126zM401 233q6 31 7 34q-87 -8 -161 -21q-92 -18 -125 -38q-49 -29 -49 -81q0 -45 31.5 -69.5t87.5 -24.5q77 0 134.5 51.5t74.5 148.5zM290 612l15 80h61l-15 -80h-61z" />
    <glyph glyph-name="uni0232" unicode="&#x232;" horiz-adv-x="598" 
d="M211 0l48 272l-170 443h61q21 -58 74.5 -198.5t71.5 -189.5q135 180 287 388h66l-335 -443l-48 -272h-55zM263 791l7 39h244l-7 -39h-244z" />
    <glyph glyph-name="uni0233" unicode="&#x233;" horiz-adv-x="511" 
d="M122 -180h-55l102 177q-5 25 -46 227.5t-60 300.5h60q60 -312 88 -463h1q12 22 112 207t139 256h59q-192 -349 -400 -705zM193 635l7 39h244l-7 -39h-244z" />
    <glyph glyph-name="dotlessj" unicode="&#x237;" horiz-adv-x="221" 
d="M121 525h55l-102 -581q-14 -80 -45.5 -110.5t-97.5 -30.5q-17 0 -32 3l7 43q14 -2 24 -2q38 0 58.5 19.5t28.5 66.5z" />
    <glyph glyph-name="uni0254" unicode="&#x254;" horiz-adv-x="584" 
d="M25 173h55q30 -141 177 -141q101 0 160 77.5t59 188.5q0 93 -47.5 144.5t-131.5 51.5q-140 0 -198 -135h-54q31 83 97 131.5t157 48.5q107 0 169.5 -63.5t62.5 -175.5q0 -130 -78 -221.5t-199 -91.5q-98 0 -156.5 49t-72.5 137z" />
    <glyph glyph-name="uni0259" unicode="&#x259;" horiz-adv-x="592" 
d="M33 267h451q0 4 0.5 12t0.5 12q0 95 -46 148.5t-136 53.5q-131 0 -195 -118h-56q80 163 254 163q108 0 170 -64t62 -175q0 -130 -77 -221.5t-204 -91.5q-108 0 -167 67t-59 177q0 13 2 37zM262 31q85 0 140.5 53t74.5 138h-392q2 -88 47.5 -139.5t129.5 -51.5z" />
    <glyph glyph-name="uni025B" unicode="&#x25b;" horiz-adv-x="543" 
d="M515 330h-54q-1 80 -46.5 123t-124.5 43q-86 0 -137 -48.5t-51 -135.5q0 -68 49.5 -109.5t125.5 -41.5h17l-7 -43q-57 0 -102 -13t-77.5 -49.5t-32.5 -93.5q0 -56 36.5 -88.5t97.5 -32.5q135 0 166 136h52q-15 -81 -72.5 -130.5t-150.5 -49.5q-87 0 -136 42.5t-49 111.5
q0 70 42 120t116 67v3q-58 18 -94 64t-36 108q0 102 66.5 164.5t179.5 62.5q105 0 163.5 -54.5t58.5 -155.5z" />
    <glyph glyph-name="uni0272" unicode="&#x272;" horiz-adv-x="575" 
d="M139 322l-67 -382q-12 -71 -44.5 -104t-97.5 -33q-6 0 -30 3l8 45q8 -2 23 -2q39 0 58 19.5t28 67.5q9 52 33 181.5t40.5 224t29.5 183.5h55q-6 -25 -16 -89q63 103 184 103q76 0 119.5 -40.5t43.5 -114.5q0 -29 -7 -71l-55 -313h-54l54 306q7 40 7 66q0 61 -34 92
t-91 31q-72 0 -123 -50.5t-64 -122.5z" />
    <glyph glyph-name="uni0275" unicode="&#x275;" horiz-adv-x="614" 
d="M275 -13q-111 0 -174 63t-63 174q0 134 76.5 224.5t207.5 90.5q110 0 174.5 -65t64.5 -174q0 -133 -78.5 -223t-207.5 -90zM277 32q90 0 150 59.5t72 153.5h-406v-17q0 -94 47.5 -145t136.5 -51zM316 494q-88 0 -145.5 -57.5t-72.5 -146.5h405v5q0 89 -50 144t-137 55z
" />
    <glyph glyph-name="apostrophemod" unicode="&#x2bc;" horiz-adv-x="154" 
d="M200 715l-119 -229h-49l107 229h61z" />
    <glyph glyph-name="circumflex" unicode="&#x2c6;" horiz-adv-x="503" 
d="M239 715h56q13 -20 41 -62.5t37 -56.5h-48l-62 81l-88 -81h-55q22 20 64 63t55 56z" />
    <glyph glyph-name="caron" unicode="&#x2c7;" horiz-adv-x="502" 
d="M264 596h-56q-13 20 -41 62.5t-37 56.5h49l62 -81l88 81h54q-22 -20 -64 -63t-55 -56z" />
    <glyph glyph-name="breve" unicode="&#x2d8;" horiz-adv-x="465" 
d="M237 645q72 0 95 70h46q-37 -110 -144 -110q-57 0 -88 28.5t-32 81.5h45q1 -30 19.5 -50t58.5 -20z" />
    <glyph glyph-name="dotaccent" unicode="&#x2d9;" horiz-adv-x="285" 
d="M83 612l15 80h61l-15 -80h-61z" />
    <glyph glyph-name="ring" unicode="&#x2da;" horiz-adv-x="405" 
d="M240 591q-36 0 -60 24.5t-24 61.5q0 35 24.5 59.5t60.5 24.5t60.5 -24.5t24.5 -59.5q0 -37 -24.5 -61.5t-61.5 -24.5zM186 677q0 -24 15.5 -40.5t38.5 -16.5q24 0 39.5 16t15.5 41q0 23 -15.5 39t-39.5 16q-23 0 -38.5 -16t-15.5 -39z" />
    <glyph glyph-name="ogonek" unicode="&#x2db;" horiz-adv-x="331" 
d="M146 -48l92 -115h-74l-75 115h57z" />
    <glyph glyph-name="tilde" unicode="&#x2dc;" horiz-adv-x="470" 
d="M206 613h-42q6 89 73 89q27 0 76 -20q50 -21 63 -21q33 0 40 54h41q-8 -95 -79 -95q-27 0 -67 17q-51 23 -69 23q-31 0 -36 -47z" />
    <glyph glyph-name="hungarumlaut" unicode="&#x2dd;" horiz-adv-x="612" 
d="M346 715l-138 -119h-58l118 119h78zM516 715l-138 -119h-58l118 119h78z" />
    <glyph glyph-name="uni032C" unicode="&#x32c;" horiz-adv-x="503" 
d="M234 -48h56q13 -20 41 -62.5t37 -56.5h-48l-62 81l-88 -81h-55q22 20 64 63t55 56z" />
    <glyph glyph-name="uni0394" unicode="&#x394;" horiz-adv-x="675" 
d="M285 715h56l301 -715h-659zM312 664l-257 -620h509z" />
    <glyph glyph-name="uni03A9" unicode="&#x3a9;" horiz-adv-x="831" 
d="M411 729q108 0 188 -49t118 -125t38 -166q0 -218 -201 -343q25 0 37 1q10 0 34.5 0.5t36.5 0.5h95v-48h-266v46q208 133 208 340q0 129 -75.5 213t-212.5 84t-212.5 -84t-75.5 -213q0 -207 208 -340v-46h-266v48h95q12 0 36.5 -0.5t34.5 -0.5q12 -1 37 -1
q-201 125 -201 343q0 90 38 166t118 125t188 49z" />
    <glyph glyph-name="uni03BC" unicode="&#x3bc;" horiz-adv-x="573" 
d="M528 525l-78 -445q-11 -58 -14 -80h-55l15 84q-62 -98 -178 -98q-87 0 -128 50l-38 -216h-55l125 705h55l-55 -310q-7 -40 -7 -67q0 -116 124 -116q67 0 115 47t61 116l58 330h55z" />
    <glyph glyph-name="pi" unicode="&#x3c0;" horiz-adv-x="604" 
d="M604 481h-104l-64 -365q-4 -16 -4 -35q0 -47 63 -47q7 0 16 1l-8 -41q-14 -2 -30 -2q-51 0 -74 18t-23 60q0 18 5 46l64 365h-248l-85 -481h-55l85 481h-101l7 44h563z" />
    <glyph glyph-name="Wgrave" unicode="&#x1e80;" horiz-adv-x="839" 
d="M871 715l-281 -715h-80l-17 391q-3 55 -6 148t-5 133h-2q-62 -160 -123 -310l-148 -362h-81l-21 715h57l8 -454q1 -19 3.5 -74.5t2.5 -67.5t-1 -75h3q17 49 47 123t37 93l185 455h81l19 -447q7 -194 7 -225h2l85 226l172 446h56zM458 761l-136 115h80l116 -115h-60z" />
    <glyph glyph-name="wgrave" unicode="&#x1e81;" horiz-adv-x="792" 
d="M205 0h-66q-3 22 -12 92t-14 107q-19 131 -44 326h58l32 -270q2 -18 11 -89t13 -115h2q10 25 102 226l116 248h65l22 -236q2 -22 10.5 -106t11.5 -131h2q18 39 59.5 125t59.5 124l107 224h58q-18 -36 -74.5 -151t-87.5 -175l-99 -199h-70l-17 202q-20 203 -24 270h-3
q-12 -31 -60.5 -135.5t-63.5 -138.5zM394 596l-138 119h80l118 -119h-60z" />
    <glyph glyph-name="Wacute" unicode="&#x1e82;" horiz-adv-x="839" 
d="M871 715l-281 -715h-80l-17 391q-3 55 -6 148t-5 133h-2q-62 -160 -123 -310l-148 -362h-81l-21 715h57l8 -454q1 -19 3.5 -74.5t2.5 -67.5t-1 -75h3q17 49 47 123t37 93l185 455h81l19 -447q7 -194 7 -225h2l85 226l172 446h56zM662 876l-136 -115h-60l116 115h80z" />
    <glyph glyph-name="wacute" unicode="&#x1e83;" horiz-adv-x="792" 
d="M205 0h-66q-3 22 -12 92t-14 107q-19 131 -44 326h58l32 -270q2 -18 11 -89t13 -115h2q10 25 102 226l116 248h65l22 -236q2 -22 10.5 -106t11.5 -131h2q18 39 59.5 125t59.5 124l107 224h58q-18 -36 -74.5 -151t-87.5 -175l-99 -199h-70l-17 202q-20 203 -24 270h-3
q-12 -31 -60.5 -135.5t-63.5 -138.5zM617 715l-138 -119h-60l118 119h80z" />
    <glyph glyph-name="Wdieresis" unicode="&#x1e84;" horiz-adv-x="839" 
d="M871 715l-281 -715h-80l-17 391q-3 55 -6 148t-5 133h-2q-62 -160 -123 -310l-148 -362h-81l-21 715h57l8 -454q1 -19 3.5 -74.5t2.5 -67.5t-1 -75h3q17 49 47 123t37 93l185 455h81l19 -447q7 -194 7 -225h2l85 226l172 446h56zM396 766l15 80h61l-15 -80h-61zM535 766
l15 80h61l-15 -80h-61z" />
    <glyph glyph-name="wdieresis" unicode="&#x1e85;" horiz-adv-x="792" 
d="M205 0h-66q-3 22 -12 92t-14 107q-19 131 -44 326h58l32 -270q2 -18 11 -89t13 -115h2q10 25 102 226l116 248h65l22 -236q2 -22 10.5 -106t11.5 -131h2q18 39 59.5 125t59.5 124l107 224h58q-18 -36 -74.5 -151t-87.5 -175l-99 -199h-70l-17 202q-20 203 -24 270h-3
q-12 -31 -60.5 -135.5t-63.5 -138.5zM346 616l15 80h61l-15 -80h-61zM485 616l15 80h61l-15 -80h-61z" />
    <glyph glyph-name="uni1EA0" unicode="&#x1ea0;" horiz-adv-x="671" 
d="M-36 0l415 715h65l161 -715h-56l-54 247h-332l-140 -247h-59zM403 667h-2q-152 -268 -172 -305l-40 -68h295l-16 77q-7 33 -31 137.5t-34 158.5zM235 -149l15 80h61l-15 -80h-61z" />
    <glyph glyph-name="uni1EA1" unicode="&#x1ea1;" horiz-adv-x="543" 
d="M134 368h-55q15 77 70 124t145 47q83 0 131.5 -39.5t48.5 -115.5q0 -37 -7 -77q-4 -26 -14 -78t-22 -120q-13 -78 -9 -109h-51q-2 45 9 97q-30 -48 -82 -77.5t-122 -29.5q-75 0 -118.5 35.5t-43.5 93.5q0 38 16.5 67t40 46t62 30.5t68.5 19t73 11.5q59 9 140 15
q7 37 7 62q0 124 -132 124q-127 0 -155 -126zM401 233q6 31 7 34q-87 -8 -161 -21q-92 -18 -125 -38q-49 -29 -49 -81q0 -45 31.5 -69.5t87.5 -24.5q77 0 134.5 51.5t74.5 148.5zM150 -149l15 80h61l-15 -80h-61z" />
    <glyph glyph-name="uni1EB8" unicode="&#x1eb8;" horiz-adv-x="593" 
d="M47 0l127 715h434l-9 -48h-379l-49 -277h355l-8 -48h-356l-52 -294h387l-9 -48h-441zM225 -149l15 80h61l-15 -80h-61z" />
    <glyph glyph-name="uni1EB9" unicode="&#x1eb9;" horiz-adv-x="592" 
d="M543 258h-451q0 -4 -0.5 -12t-0.5 -12q0 -95 46 -148.5t136 -53.5q131 0 195 118h56q-80 -163 -254 -163q-108 0 -170 64t-62 175q0 130 77 221.5t204 91.5q108 0 167 -67t59 -177q0 -13 -2 -37zM314 494q-85 0 -140.5 -53t-74.5 -138h392q-2 88 -47.5 139.5t-129.5 51.5
zM190 -149l15 80h61l-15 -80h-61z" />
    <glyph glyph-name="uni1ECA" unicode="&#x1eca;" horiz-adv-x="259" 
d="M174 715h56l-127 -715h-56zM18 -149l15 80h61l-15 -80h-61z" />
    <glyph glyph-name="uni1ECB" unicode="&#x1ecb;" horiz-adv-x="221" 
d="M122 525h55l-93 -525h-55zM192 604h-57l20 111h57zM0 -149l15 80h61l-15 -80h-61z" />
    <glyph glyph-name="uni1ECC" unicode="&#x1ecc;" horiz-adv-x="819" 
d="M444 729q149 0 242 -85.5t93 -227.5q0 -187 -105.5 -308.5t-283.5 -121.5q-147 0 -239 85t-92 238q0 84 26 159.5t73.5 134t121.5 92.5t164 34zM440 683q-79 0 -142 -31.5t-102 -83.5t-59.5 -116.5t-20.5 -133.5q0 -137 72.5 -211.5t202.5 -74.5q82 0 146.5 32t104 86.5
t60 122t20.5 142.5q0 123 -76.5 195.5t-205.5 72.5zM318 -149l15 80h61l-15 -80h-61z" />
    <glyph glyph-name="uni1ECD" unicode="&#x1ecd;" horiz-adv-x="614" 
d="M277 32q101 0 163.5 75t62.5 188q0 89 -50 144t-137 55q-104 0 -163.5 -77.5t-59.5 -188.5q0 -94 47.5 -145t136.5 -51zM275 -13q-111 0 -174 63t-63 174q0 134 76.5 224.5t207.5 90.5q110 0 174.5 -65t64.5 -174q0 -133 -78.5 -223t-207.5 -90zM211 -149l15 80h61
l-15 -80h-61z" />
    <glyph glyph-name="uni1EE4" unicode="&#x1ee4;" horiz-adv-x="681" 
d="M295 -14q-104 0 -160.5 50t-56.5 145q0 43 9 89l78 445h56l-79 -446q-7 -43 -7 -78q0 -160 170 -160q103 0 151.5 60.5t71.5 190.5l77 433h56l-80 -451q-20 -106 -48 -154q-35 -62 -91.5 -93t-146.5 -31zM236 -149l15 80h61l-15 -80h-61z" />
    <glyph glyph-name="uni1EE5" unicode="&#x1ee5;" horiz-adv-x="567" 
d="M522 525l-78 -445q-11 -58 -14 -80h-55l15 84q-62 -98 -178 -98q-75 0 -117 39.5t-42 111.5q0 28 6 66l57 322h55l-55 -310q-7 -40 -7 -67q0 -116 124 -116q67 0 115 47t61 116l58 330h55zM160 -149l15 80h61l-15 -80h-61z" />
    <glyph glyph-name="Ygrave" unicode="&#x1ef2;" horiz-adv-x="598" 
d="M211 0l48 272l-170 443h61q21 -58 74.5 -198.5t71.5 -189.5q135 180 287 388h66l-335 -443l-48 -272h-55zM383 761l-136 115h80l116 -115h-60z" />
    <glyph glyph-name="ygrave" unicode="&#x1ef3;" horiz-adv-x="511" 
d="M122 -180h-55l102 177q-5 25 -46 227.5t-60 300.5h60q60 -312 88 -463h1q12 22 112 207t139 256h59q-192 -349 -400 -705zM289 596l-138 119h80l118 -119h-60z" />
    <glyph glyph-name="enspace" unicode="&#x2002;" horiz-adv-x="500" 
 />
    <glyph glyph-name="emspace" unicode="&#x2003;" horiz-adv-x="1000" 
 />
    <glyph glyph-name="threeperemspace" unicode="&#x2004;" horiz-adv-x="0" 
 />
    <glyph glyph-name="fourperemspace" unicode="&#x2005;" horiz-adv-x="250" 
 />
    <glyph glyph-name="thinspace" unicode="&#x2009;" horiz-adv-x="133" 
 />
    <glyph glyph-name="hairspace" unicode="&#x200a;" horiz-adv-x="75" 
 />
    <glyph glyph-name="endash" unicode="&#x2013;" horiz-adv-x="610" 
d="M62 282l7 44h476l-7 -44h-476z" />
    <glyph glyph-name="emdash" unicode="&#x2014;" horiz-adv-x="975" 
d="M62 282l7 44h841l-7 -44h-841z" />
    <glyph glyph-name="quoteleft" unicode="&#x2018;" horiz-adv-x="238" 
d="M92 486l118 229h50l-108 -229h-60z" />
    <glyph glyph-name="quoteright" unicode="&#x2019;" horiz-adv-x="235" 
d="M261 715l-119 -229h-49l107 229h61z" />
    <glyph glyph-name="quotesinglbase" unicode="&#x201a;" horiz-adv-x="236" 
d="M128 111l-120 -232h-49l108 232h61z" />
    <glyph glyph-name="quotedblleft" unicode="&#x201c;" horiz-adv-x="399" 
d="M252 486l119 229h50l-108 -229h-61zM92 486l118 229h50l-108 -229h-60z" />
    <glyph glyph-name="quotedblright" unicode="&#x201d;" horiz-adv-x="396" 
d="M261 715l-119 -229h-49l107 229h61zM422 715l-119 -229h-50l108 229h61z" />
    <glyph glyph-name="quotedblbase" unicode="&#x201e;" horiz-adv-x="397" 
d="M128 111l-120 -232h-49l108 232h61zM289 111l-120 -232h-50l109 232h61z" />
    <glyph glyph-name="dagger" unicode="&#x2020;" horiz-adv-x="507" 
d="M65 470l9 48h187l35 197h55l-35 -197h190l-9 -48h-190l-95 -539h-55l95 539h-187z" />
    <glyph glyph-name="daggerdbl" unicode="&#x2021;" horiz-adv-x="543" 
d="M83 470l9 48h187l35 197h55l-35 -197h190l-9 -48h-190l-35 -199h190l-8 -48h-190l-52 -292h-55l52 292h-187l8 48h187l35 199h-187z" />
    <glyph glyph-name="bullet" unicode="&#x2022;" horiz-adv-x="381" 
d="M194 236q-42 0 -70.5 28.5t-28.5 69.5t28.5 69t70.5 28t70 -27.5t28 -69.5t-28.5 -70t-69.5 -28z" />
    <glyph glyph-name="ellipsis" unicode="&#x2026;" horiz-adv-x="873" 
d="M352 0l19 111h59l-19 -111h-59zM20 0l19 111h59l-19 -111h-59zM689 0l19 111h59l-19 -111h-59z" />
    <glyph glyph-name="perthousand" unicode="&#x2030;" horiz-adv-x="1290" 
d="M645 16q38 0 66 20.5t42.5 53.5t21.5 68t7 71q0 53 -26 84t-75 31q-38 0 -66.5 -20.5t-43.5 -54t-22 -68.5t-7 -71q0 -52 26.5 -83t76.5 -31zM229 0l399 715h45l-403 -715h-41zM640 -17q-66 0 -102 37.5t-36 105.5q0 42 9 82.5t28.5 80t57 63.5t87.5 24q66 0 102 -37.5
t36 -105.5q0 -42 -9 -82.5t-28.5 -80t-57 -63.5t-87.5 -24zM217 365q38 0 66 20.5t42.5 53.5t21.5 68t7 71q0 53 -26 84t-75 31q-38 0 -66.5 -20.5t-43.5 -54t-22 -68.5t-7 -71q0 -52 26.5 -83t76.5 -31zM212 332q-66 0 -102 37.5t-36 105.5q0 42 9 82.5t28.5 80t57 63.5
t87.5 24q66 0 102 -37.5t36 -105.5q0 -42 -9 -82.5t-28.5 -80t-57 -63.5t-87.5 -24zM1056 16q38 0 66 20.5t42.5 53.5t21.5 68t7 71q0 53 -26 84t-75 31q-38 0 -66.5 -20.5t-43.5 -54t-22 -68.5t-7 -71q0 -52 26.5 -83t76.5 -31zM1051 -17q-66 0 -102 37.5t-36 105.5
q0 42 9 82.5t28.5 80t57 63.5t87.5 24q66 0 102 -37.5t36 -105.5q0 -42 -9 -82.5t-28.5 -80t-57 -63.5t-87.5 -24z" />
    <glyph glyph-name="guilsinglleft" unicode="&#x2039;" horiz-adv-x="288" 
d="M255 473l-141 -184l70 -191h-51l-78 192l145 183h55z" />
    <glyph glyph-name="guilsinglright" unicode="&#x203a;" horiz-adv-x="288" 
d="M26 98l141 186l-70 189h50l79 -192l-145 -183h-55z" />
    <glyph glyph-name="fraction" unicode="&#x2044;" horiz-adv-x="312" 
d="M-58 -105l375 820h54l-376 -820h-53z" />
    <glyph glyph-name="Euro" unicode="&#x20ac;" 
d="M30 414l21 45h51q73 270 274 270q198 0 198 -222v-7h-54v10q0 79 -36 126t-113 47q-73 0 -123 -47q-58 -55 -93 -177h293l-21 -45h-283q-14 -63 -19 -107h261l-22 -45h-243q-2 -46 -2 -61q0 -83 34.5 -127t114.5 -44q76 0 123.5 47t77.5 135h54q-35 -106 -96 -166
t-162 -60q-105 0 -152 53.5t-48 159.5q0 48 2 63h-68l21 45h52q1 8 3 23t4 23q1 4 12 61h-61z" />
    <glyph glyph-name="trademark" unicode="&#x2122;" horiz-adv-x="866" 
d="M632 300h-47l-36 373h-3q-18 -94 -40 -235l-24 -138h-42l73 415h69q7 -50 14.5 -130.5t13 -159.5t6.5 -85q10 22 76.5 172.5t90.5 202.5h69l-73 -415h-43l33 190q6 30 19 100.5t16 84.5h-3q-81 -189 -169 -375zM399 715l-6 -35h-113l-67 -380h-43l67 380h-114l6 35h270z
" />
    <glyph glyph-name="Omega" unicode="&#x2126;" horiz-adv-x="831" 
d="M411 729q108 0 188 -49t118 -125t38 -166q0 -218 -201 -343q25 0 37 1q10 0 34.5 0.5t36.5 0.5h95v-48h-266v46q208 133 208 340q0 129 -75.5 213t-212.5 84t-212.5 -84t-75.5 -213q0 -207 208 -340v-46h-266v48h95q12 0 36.5 -0.5t34.5 -0.5q12 -1 37 -1
q-201 125 -201 343q0 90 38 166t118 125t188 49z" />
    <glyph glyph-name="onethird" unicode="&#x2153;" horiz-adv-x="782" 
d="M125 0l399 715h40l-402 -715h-37zM193 617h-103l5 27q59 2 87.5 18t38.5 53h28l-76 -429h-38zM422 123h36q0 -48 26.5 -73.5t72.5 -25.5q52 0 81.5 28t29.5 79q0 40 -29 64t-74 24h-11l3 29q53 0 90 22t37 70q0 32 -21 50.5t-57 18.5q-80 0 -97 -80h-35q9 50 43.5 80.5
t91.5 30.5q55 0 84 -25.5t29 -68.5q0 -40 -25.5 -71t-69.5 -42q78 -23 78 -102q0 -63 -40 -100.5t-109 -37.5q-64 0 -99.5 34t-34.5 96z" />
    <glyph glyph-name="twothirds" unicode="&#x2154;" horiz-adv-x="896" 
d="M243 0l399 715h40l-402 -715h-37zM540 123h36q0 -48 26.5 -73.5t72.5 -25.5q52 0 81.5 28t29.5 79q0 40 -29 64t-74 24h-11l3 29q53 0 90 22t37 70q0 32 -21 50.5t-57 18.5q-80 0 -97 -80h-35q9 50 43.5 80.5t91.5 30.5q55 0 84 -25.5t29 -68.5q0 -40 -25.5 -71
t-69.5 -42q78 -23 78 -102q0 -63 -40 -100.5t-109 -37.5q-64 0 -99.5 34t-34.5 96zM334 286h-282l6 36q101 68 161 116q28 21 44.5 35t37.5 37t31 47.5t10 52.5q0 82 -89 82q-90 0 -108 -113h-40q6 65 46.5 106t105.5 41q60 0 93.5 -29.5t33.5 -80.5q0 -62 -40.5 -111
t-113.5 -103q-11 -8 -117 -79h227z" />
    <glyph glyph-name="oneeighth" unicode="&#x215b;" horiz-adv-x="795" 
d="M419 108q0 48 27.5 82t75.5 48q-50 30 -50 88q0 50 37 83.5t102 33.5q59 0 91.5 -26.5t32.5 -72.5q0 -40 -23.5 -69t-60.5 -41q68 -33 68 -102q0 -63 -43 -101t-117 -38q-63 0 -101.5 30t-38.5 85zM608 413q-44 0 -71.5 -21.5t-27.5 -62.5q0 -39 22.5 -60.5t64.5 -21.5
q43 0 71.5 26t28.5 67q0 33 -24.5 53t-63.5 20zM577 220q-50 0 -85.5 -29.5t-35.5 -78.5q0 -42 29 -66t76 -24q56 0 89 29.5t33 82.5q0 38 -29.5 62t-76.5 24zM125 0l399 715h40l-402 -715h-37zM193 617h-103l5 27q59 2 87.5 18t38.5 53h28l-76 -429h-38z" />
    <glyph glyph-name="threeeighths" unicode="&#x215c;" horiz-adv-x="878" 
d="M507 108q0 48 27.5 82t75.5 48q-50 30 -50 88q0 50 37 83.5t102 33.5q59 0 91.5 -26.5t32.5 -72.5q0 -40 -23.5 -69t-60.5 -41q68 -33 68 -102q0 -63 -43 -101t-117 -38q-63 0 -101.5 30t-38.5 85zM696 413q-44 0 -71.5 -21.5t-27.5 -62.5q0 -39 22.5 -60.5t64.5 -21.5
q43 0 71.5 26t28.5 67q0 33 -24.5 53t-63.5 20zM665 220q-50 0 -85.5 -29.5t-35.5 -78.5q0 -42 29 -66t76 -24q56 0 89 29.5t33 82.5q0 38 -29.5 62t-76.5 24zM59 409h36q0 -48 26.5 -73.5t72.5 -25.5q52 0 81.5 28t29.5 79q0 40 -29 64t-74 24h-11l3 29q53 0 90 22t37 70
q0 32 -21 50.5t-57 18.5q-80 0 -97 -80h-35q9 50 43.5 80.5t91.5 30.5q55 0 84 -25.5t29 -68.5q0 -40 -25.5 -71t-69.5 -42q78 -23 78 -102q0 -63 -40 -100.5t-109 -37.5q-64 0 -99.5 34t-34.5 96zM218 0l399 715h40l-402 -715h-37z" />
    <glyph glyph-name="fiveeighths" unicode="&#x215d;" horiz-adv-x="883" 
d="M86 491l64 224h219l-5 -31h-189l-46 -161q39 33 93 33q53 0 87.5 -32.5t34.5 -90.5q0 -69 -41.5 -112.5t-108.5 -43.5q-64 0 -100 32.5t-38 94.5h37q1 -44 27 -71.5t75 -27.5q52 0 82 35.5t30 87.5q0 45 -26.5 72.5t-69.5 27.5q-50 0 -88 -42zM511 108q0 48 27.5 82
t75.5 48q-50 30 -50 88q0 50 37 83.5t102 33.5q59 0 91.5 -26.5t32.5 -72.5q0 -40 -23.5 -69t-60.5 -41q68 -33 68 -102q0 -63 -43 -101t-117 -38q-63 0 -101.5 30t-38.5 85zM700 413q-44 0 -71.5 -21.5t-27.5 -62.5q0 -39 22.5 -60.5t64.5 -21.5q43 0 71.5 26t28.5 67
q0 33 -24.5 53t-63.5 20zM669 220q-50 0 -85.5 -29.5t-35.5 -78.5q0 -42 29 -66t76 -24q56 0 89 29.5t33 82.5q0 38 -29.5 62t-76.5 24zM222 0l399 715h40l-402 -715h-37z" />
    <glyph glyph-name="seveneighths" unicode="&#x215e;" horiz-adv-x="813" 
d="M126 285h-42q82 137 130 213q86 135 122 186h-10h-10.5h-8.5h-205l6 31h270l-5 -29q-186 -292 -247 -401zM437 108q0 48 27.5 82t75.5 48q-50 30 -50 88q0 50 37 83.5t102 33.5q59 0 91.5 -26.5t32.5 -72.5q0 -40 -23.5 -69t-60.5 -41q68 -33 68 -102q0 -63 -43 -101
t-117 -38q-63 0 -101.5 30t-38.5 85zM626 413q-44 0 -71.5 -21.5t-27.5 -62.5q0 -39 22.5 -60.5t64.5 -21.5q43 0 71.5 26t28.5 67q0 33 -24.5 53t-63.5 20zM595 220q-50 0 -85.5 -29.5t-35.5 -78.5q0 -42 29 -66t76 -24q56 0 89 29.5t33 82.5q0 38 -29.5 62t-76.5 24z
M148 0l399 715h40l-402 -715h-37z" />
    <glyph glyph-name="arrowleft" unicode="&#x2190;" horiz-adv-x="820" 
d="M784 301h-673q10 -10 69.5 -72t97.5 -100q74 -78 124 -129h-69q-31 32 -147.5 155t-161.5 170q49 49 172 180t137 145h69l-124 -130q-135 -141 -167 -171h673v-48z" />
    <glyph glyph-name="arrowup" unicode="&#x2191;" horiz-adv-x="720" 
d="M353 0v665q-59 -59 -172 -167l-129 -123v65q28 27 152.5 144t172.5 165q50 -51 185 -177.5t140 -131.5v-65q-71 66 -130 124q-113 105 -171 167v-666h-48z" />
    <glyph glyph-name="arrowright" unicode="&#x2192;" horiz-adv-x="820" 
d="M716 301h-673v48h673q-62 58 -167 171q-58 59 -124 130h69q5 -5 131.5 -140t177.5 -185q-48 -48 -165 -172.5t-144 -152.5h-69l124 129q108 113 167 172z" />
    <glyph glyph-name="arrowdown" unicode="&#x2193;" horiz-adv-x="720" 
d="M336 50v665h48v-666q30 32 171 167l130 124v-65q-14 -14 -145 -137t-180 -172q-47 45 -170 161.5t-155 147.5v65l129 -123q113 -108 172 -167z" />
    <glyph glyph-name="uni2196" unicode="&#x2196;" horiz-adv-x="750" 
d="M638 -3l-478 478q0 -13 -0.5 -99.5t-0.5 -140.5l-2 -180l-47 48q0 49 3.5 218t3.5 231q62 0 230 3t219 3l48 -48q-124 0 -179 -1q-55 0 -140 -0.5t-99 -0.5l477 -476z" />
    <glyph glyph-name="uni2197" unicode="&#x2197;" horiz-adv-x="750" 
d="M562 475l-478 -478l-35 35l477 476q-13 0 -99.5 0.5t-139.5 0.5q-56 1 -179 1l48 48q51 0 219 -3t230 -3q0 -62 3.5 -231t3.5 -218l-47 -48l-2 180q0 54 -0.5 140.5t-0.5 99.5z" />
    <glyph glyph-name="uni2198" unicode="&#x2198;" horiz-adv-x="750" 
d="M100 556l478 -478q0 13 0.5 99.5t0.5 140.5l2 180l47 -48q0 -50 -3.5 -218.5t-3.5 -230.5q-62 0 -230 -1.5t-219 -1.5l-48 48h179q53 0 139.5 -0.5t99.5 -0.5l-477 476z" />
    <glyph glyph-name="uni2199" unicode="&#x2199;" horiz-adv-x="750" 
d="M179 78l478 478l35 -35l-477 -476q14 0 99 0.5t140 0.5h179l-48 -48q-51 0 -219 1.5t-230 1.5q0 62 -3.5 230.5t-3.5 218.5l47 48l2 -180q0 -54 0.5 -140.5t0.5 -99.5z" />
    <glyph glyph-name="partialdiff" unicode="&#x2202;" horiz-adv-x="617" 
d="M265 715h80q98 -61 158 -169t60 -230q0 -143 -77 -236t-212 -93q-115 0 -175.5 65.5t-60.5 178.5q0 125 76.5 216.5t198.5 91.5q111 0 176 -77l3 2q-45 91 -95 148t-132 103zM277 32q101 0 163.5 75t62.5 188q0 89 -50 144t-137 55q-104 0 -163.5 -77.5t-59.5 -188.5
q0 -94 47.5 -145t136.5 -51z" />
    <glyph glyph-name="Delta" unicode="&#x2206;" horiz-adv-x="750" 
d="M314 715h56l301 -715h-659zM341 664l-257 -620h509z" />
    <glyph glyph-name="product" unicode="&#x220f;" horiz-adv-x="867" 
d="M850 715v-48h-131v-780h-54v780h-380v-780h-54v780h-131v48h750z" />
    <glyph glyph-name="summation" unicode="&#x2211;" horiz-adv-x="754" 
d="M97 -77l304 380l-300 369v43h533v-48h-459l291 -359l-302 -373h481v-48h-548v36z" />
    <glyph glyph-name="minus" unicode="&#x2212;" 
d="M60 298v46h442v-46h-442z" />
    <glyph glyph-name="uni2219" unicode="&#x2219;" horiz-adv-x="203" 
d="M64 261l19 111h59l-19 -111h-59z" />
    <glyph glyph-name="radical" unicode="&#x221a;" 
d="M40 480v45h131l90 -256q11 -32 35 -100t38 -110h2q10 33 33 106.5t35 115.5l131 434h54l-224 -715h-59q-84 214 -179 480h-87z" />
    <glyph glyph-name="infinity" unicode="&#x221e;" horiz-adv-x="862" 
d="M220 501q38 0 80 -22.5t67 -45t69 -66.5q31 32 50 50.5t48 40.5t57.5 32.5t58.5 10.5q70 0 112.5 -45.5t42.5 -120.5q0 -73 -40 -120.5t-116 -47.5q-52 0 -100.5 31.5t-115.5 99.5q-68 -69 -115 -100t-99 -31q-76 0 -116 47.5t-40 120.5q0 75 42.5 120.5t114.5 45.5z
M220 210q42 0 77.5 24.5t94.5 81.5l17 17l-31 31q-3 2 -16 14.5t-16.5 16t-15.5 14t-17.5 14.5t-16.5 11.5t-19 10.5t-18.5 7.5t-20.5 6t-20 1.5q-49 0 -78 -36t-29 -88q0 -58 28 -92t81 -34zM648 210q53 0 81 34t28 92q0 52 -29 88t-78 36q-10 0 -20 -1.5t-20.5 -6
t-18.5 -7.5t-19 -10.5t-16.5 -11.5t-17.5 -14.5t-15.5 -14t-16.5 -16t-16 -14.5l-31 -31q80 -76 105 -94q42 -29 84 -29z" />
    <glyph glyph-name="integral" unicode="&#x222b;" 
d="M340 508l-65 -445q-18 -131 -64 -191.5t-135 -60.5q-16 0 -30 2l5 43q2 0 9 -0.5t11 -0.5q70 0 101 46t47 147l66 447q17 120 56.5 173.5t127.5 53.5q14 0 30 -2l-7 -45q-7 1 -23 1q-63 0 -89.5 -40t-39.5 -128z" />
    <glyph glyph-name="approxequal" unicode="&#x2248;" 
d="M295 388l-54 25q-59 27 -82 27q-55 0 -94 -71l-32 25q54 89 132 89q41 0 97 -29l54 -26q2 -1 17.5 -8.5t21.5 -10t18.5 -5.5t23.5 -3q55 0 94 71l34 -20q-51 -94 -131 -94q-34 0 -99 30zM293 138l-54 25q-59 27 -82 27q-55 0 -94 -71l-32 25q54 89 132 89q41 0 97 -29
l54 -26q2 -1 17.5 -8.5t21.5 -10t18.5 -5.5t23.5 -3q55 0 94 71l34 -20q-51 -94 -131 -94q-34 0 -99 30z" />
    <glyph glyph-name="notequal" unicode="&#x2260;" 
d="M57 391v46h248l60 123h49l-60 -123h145v-46h-167l-65 -135h232v-46h-254l-63 -130h-49l63 130h-139v46h161l65 135h-226z" />
    <glyph glyph-name="lessequal" unicode="&#x2264;" 
d="M65 324v53q40 21 179.5 92t216.5 112v-51l-352 -177v-3q8 -4 152.5 -78t199.5 -101v-51q-77 41 -216.5 112t-179.5 92zM65 0v46h397v-46h-397z" />
    <glyph glyph-name="greaterequal" unicode="&#x2265;" 
d="M474 377v-53q-40 -21 -179.5 -92t-216.5 -112v51q186 96 352 179v3q-4 2 -150.5 75.5t-201.5 101.5v51q77 -41 216.5 -112t179.5 -92zM474 46v-46h-397v46h397z" />
    <glyph glyph-name="dotmath" unicode="&#x22c5;" horiz-adv-x="203" 
d="M64 261l19 111h59l-19 -111h-59z" />
    <glyph glyph-name="lozenge" unicode="&#x25ca;" 
d="M307 0h-40l-228 356l228 359h40l231 -359zM481 356l-192 307l-193 -307l193 -303z" />
    <glyph glyph-name="commaaccent" unicode="&#xf6c3;" horiz-adv-x="369" 
d="M139 -163l92 115h55l-75 -115h-72z" />
    <glyph glyph-name="uniF8FF" unicode="&#xf8ff;" horiz-adv-x="297" 
d="M149 236q-42 0 -70.5 28.5t-28.5 69.5t28.5 69t70.5 28t70 -27.5t28 -69.5t-28.5 -70t-69.5 -28z" />
    <glyph glyph-name="acute.caps" horiz-adv-x="427" 
d="M354 876l-136 -115h-60l116 115h80z" />
    <glyph glyph-name="grave.caps" horiz-adv-x="512" 
d="M307 761l-136 115h80l116 -115h-60z" />
    <glyph glyph-name="circumflex.caps" horiz-adv-x="503" 
d="M244 875h56q33 -50 78 -115h-48l-62 79l-88 -79h-55q14 13 119 115z" />
    <glyph glyph-name="caron.caps" horiz-adv-x="502" 
d="M267 760h-56q-33 50 -78 115h49l62 -79l88 79h54q-14 -13 -119 -115z" />
    <glyph glyph-name="tilde.caps" horiz-adv-x="470" 
d="M143 765h-42q6 89 73 89q27 0 76 -20q50 -21 63 -21q33 0 40 54h41q-8 -95 -79 -95q-27 0 -67 17q-51 23 -69 23q-31 0 -36 -47z" />
    <glyph glyph-name="macron.caps" horiz-adv-x="428" 
d="M119 791l7 39h244l-7 -39h-244z" />
    <glyph glyph-name="breve.caps" horiz-adv-x="465" 
d="M244 809q72 0 95 70h46q-37 -110 -144 -110q-57 0 -88 28.5t-32 81.5h45q1 -30 19.5 -50t58.5 -20z" />
    <glyph glyph-name="dotaccent.caps" horiz-adv-x="328" 
d="M126 769l15 80h61l-15 -80h-61z" />
    <glyph glyph-name="ring.caps" horiz-adv-x="405" 
d="M246 751q-36 0 -60 24.5t-24 61.5q0 35 24.5 59.5t60.5 24.5t60.5 -24.5t24.5 -59.5q0 -37 -24.5 -61.5t-61.5 -24.5zM192 837q0 -24 15.5 -40.5t38.5 -16.5q24 0 39.5 16t15.5 41q0 23 -15.5 39t-39.5 16q-23 0 -38.5 -16t-15.5 -39z" />
    <glyph glyph-name="cedilla.caps" horiz-adv-x="369" 
d="M139 -163l92 115h55l-75 -115h-72z" />
    <glyph glyph-name="ogonek.caps" horiz-adv-x="331" 
d="M144 -48l92 -115h-72l-75 115h55z" />
    <glyph glyph-name="hungarumlaut.caps" horiz-adv-x="612" 
d="M359 876l-136 -115h-58l116 115h78zM544 876l-136 -115h-58l116 115h78z" />
    <glyph glyph-name="dieresis.caps" horiz-adv-x="491" 
d="M154 766l15 80h61l-15 -80h-61zM293 766l15 80h61l-15 -80h-61z" />
    <glyph glyph-name="horn" horiz-adv-x="264" 
d="M192 715l-104 -191h-46l87 191h63z" />
    <glyph glyph-name="zero.plf" horiz-adv-x="619" 
d="M266 30q73 0 123 47q62 56 97 188.5t35 246.5q0 78 -37 124.5t-115 46.5q-73 0 -123 -47q-61 -59 -94.5 -189.5t-33.5 -245.5q0 -83 34.5 -127t113.5 -44zM562 357q-11 -62 -25.5 -112t-39 -100t-55 -83.5t-76.5 -54.5t-103 -21q-105 0 -152 53.5t-48 159.5q0 78 14 154
q12 64 25 113t37 101t54 85.5t76.5 55t104.5 21.5q200 0 202 -218q0 -78 -14 -154z" />
    <glyph glyph-name="one.plf" horiz-adv-x="381" 
d="M161 0l99 558h-185l7 41h37q91 0 128.5 24t58.5 92h38l-127 -715h-56z" />
    <glyph glyph-name="two.plf" horiz-adv-x="566" 
d="M461 0h-456l9 47q184 138 239 182q7 6 42.5 34.5t48 39.5t41.5 37.5t41.5 45.5t29.5 46t23.5 55.5t6.5 58.5q0 67 -38.5 102t-112.5 35q-157 0 -187 -182h-54q10 101 75.5 164.5t171.5 63.5q96 0 149.5 -46t53.5 -127q0 -55 -20 -105.5t-60 -96t-76.5 -77.5t-92.5 -74
q-167 -124 -212 -155h387z" />
    <glyph glyph-name="three.plf" horiz-adv-x="571" 
d="M28 196h54q1 -80 46.5 -123t124.5 -43q86 0 137 48.5t51 135.5q0 68 -49.5 109.5t-125.5 41.5h-17l7 43q57 0 102 13t77.5 49.5t32.5 93.5q0 56 -36.5 88.5t-97.5 32.5q-135 0 -166 -136h-52q15 81 72.5 130.5t150.5 49.5q87 0 136 -42.5t49 -111.5q0 -70 -42 -120
t-116 -67v-3q58 -18 94 -64t36 -108q0 -102 -66.5 -164.5t-179.5 -62.5q-105 0 -163.5 54.5t-58.5 155.5z" />
    <glyph glyph-name="four.plf" horiz-adv-x="576" 
d="M526 220l-8 -45h-111l-31 -175h-52l31 175h-348l6 34l298 343l142 163h50l-88 -495h111zM439 640h-2l-170 -203l-60 -69q-12 -14 -41.5 -47.5t-39.5 -44.5q-8 -8 -16 -17.5t-18 -20.5t-16 -18h287l27 150q36 216 49 270z" />
    <glyph glyph-name="five.plf" 
d="M74 343l107 372h360l-9 -48h-316l-80 -282q58 64 161 64q89 0 145.5 -54.5t56.5 -150.5q0 -113 -68.5 -185.5t-180.5 -72.5q-103 0 -162.5 54t-64.5 155h56q0 -72 46 -118.5t127 -46.5q87 0 139 59.5t52 146.5q0 77 -45.5 122.5t-118.5 45.5q-92 0 -150 -70z" />
    <glyph glyph-name="six.plf" horiz-adv-x="594" 
d="M565 531h-55q0 65 -36.5 109.5t-111.5 44.5q-93 0 -149 -77t-85 -244l-3 -14h2q22 42 74 71.5t121 29.5q92 0 148 -53.5t56 -149.5q0 -112 -68.5 -187t-185.5 -75q-98 0 -156 57t-58 172q0 55 14 141q35 199 107.5 286t188.5 87q100 0 148.5 -56t48.5 -142zM307 407
q-87 0 -142 -59t-55 -148q0 -82 46 -126t123 -44q87 0 139 61t52 153q0 78 -42.5 120.5t-120.5 42.5z" />
    <glyph glyph-name="seven.plf" horiz-adv-x="490" 
d="M124 0h-63q112 191 216 351q6 9 90 138.5t117 177.5v1q-19 -1 -55 -1h-339l9 48h446l-8 -45l-34 -53q-27 -43 -81.5 -129t-83 -132t-70.5 -113.5t-76.5 -126t-67.5 -116.5z" />
    <glyph glyph-name="eight.plf" horiz-adv-x="602" 
d="M211 389q-86 50 -86 144q0 87 60.5 141.5t167.5 54.5q95 0 149.5 -44.5t54.5 -117.5q0 -67 -40.5 -116t-103.5 -70q116 -51 116 -168q0 -101 -71.5 -164t-190.5 -63q-104 0 -168.5 50t-64.5 139q0 79 47 134.5t130 79.5zM348 684q-74 0 -120 -37t-46 -106
q0 -65 38 -101.5t108 -36.5q72 0 120 44t48 113q0 57 -40.5 90.5t-107.5 33.5zM297 361q-87 0 -146.5 -49t-59.5 -132q0 -71 49.5 -111t128.5 -40q94 0 149.5 50.5t55.5 136.5q0 66 -49 105.5t-128 39.5z" />
    <glyph glyph-name="nine.plf" horiz-adv-x="595" 
d="M48 184h55q0 -65 36.5 -109.5t111.5 -44.5q93 0 149 77t85 244l3 14h-2q-24 -43 -75 -72t-120 -29q-92 0 -148 53.5t-56 149.5q0 112 68.5 187t185.5 75q98 0 156 -57t58 -172q0 -55 -14 -141q-35 -200 -107.5 -286.5t-188.5 -86.5q-100 0 -148.5 56t-48.5 142zM306 308
q88 0 142.5 58.5t54.5 148.5q0 82 -46 126t-123 44q-87 0 -139 -61t-52 -153q0 -78 42.5 -120.5t120.5 -42.5z" />
    <glyph glyph-name="Gtilde" horiz-adv-x="790" 
d="M371 -13q-134 0 -223 86t-89 238q0 112 43.5 206t132 153t205.5 59q126 0 208.5 -60t108.5 -169h-58q-24 87 -92 135t-171 48q-77 0 -139.5 -31t-101 -82.5t-58.5 -115t-20 -132.5q0 -132 71 -211t189 -79q67 0 122 24t90 64.5t56.5 86.5t31.5 98h-291l9 48h342l-63 -353
h-54l12 63l10 48l6 27q-43 -71 -115.5 -111t-161.5 -40zM372 765h-42q6 89 73 89q27 0 76 -20q50 -21 63 -21q33 0 40 54h41q-8 -95 -79 -95q-27 0 -67 17q-51 23 -69 23q-31 0 -36 -47z" />
    <glyph glyph-name="gtilde" horiz-adv-x="615" 
d="M231 -145q89 0 139.5 59.5t67.5 158.5q4 27 11 55h-2q-26 -43 -76 -72t-117 -29q-96 0 -153 59.5t-57 166.5q0 117 68.5 201t185.5 84q78 0 129.5 -34t70.5 -91l20 112h54l-77 -430q-18 -105 -51 -162q-69 -122 -219 -122q-96 0 -151 49t-57 123h57q2 -22 9.5 -41.5
t24 -40.5t48 -33.5t75.5 -12.5zM269 70q95 0 153.5 76.5t58.5 173.5q0 78 -50.5 126.5t-129.5 48.5q-89 0 -144.5 -69.5t-55.5 -166.5q0 -92 44.5 -140.5t123.5 -48.5zM251 613h-42q6 89 73 89q27 0 76 -20q50 -21 63 -21q33 0 40 54h41q-8 -95 -79 -95q-27 0 -67 17
q-51 23 -69 23q-31 0 -36 -47z" />
    <glyph glyph-name="Mcircumflex" horiz-adv-x="823" 
d="M47 0l127 715h85l69 -427q5 -27 35 -232h1q61 121 124 239l225 420h81l-127 -715h-54l64 362q28 160 59 302h-1q-91 -182 -152 -294l-203 -370h-57l-77 470q-23 128 -28 193h-1q-13 -98 -45 -262l-71 -401h-54zM481 875h56q33 -50 78 -115h-48l-62 79l-88 -79h-55
q14 13 119 115z" />
    <glyph glyph-name="mcircumflex" horiz-adv-x="919" 
d="M788 0h-55l55 310q7 40 7 67q0 116 -125 116q-67 0 -115 -47t-61 -116l-58 -330h-55l55 310q7 40 7 67q0 116 -125 116q-67 0 -115 -47t-61 -116l-58 -330h-55l78 445q11 58 14 80h55l-15 -84q62 98 178 98q64 0 104.5 -28.5t51.5 -82.5h1q22 40 75.5 75.5t121.5 35.5
q75 0 116.5 -39.5t41.5 -111.5q0 -28 -6 -66zM515 715h56q13 -20 41 -62.5t37 -56.5h-48l-62 81l-88 -81h-55q22 20 64 63t55 56z" />
    <glyph glyph-name="Mmacron" horiz-adv-x="823" 
d="M47 0l127 715h85l69 -427q5 -27 35 -232h1q61 121 124 239l225 420h81l-127 -715h-54l64 362q28 160 59 302h-1q-91 -182 -152 -294l-203 -370h-57l-77 470q-23 128 -28 193h-1q-13 -98 -45 -262l-71 -401h-54zM374 791l7 39h244l-7 -39h-244z" />
    <glyph glyph-name="mmacron" horiz-adv-x="919" 
d="M788 0h-55l55 310q7 40 7 67q0 116 -125 116q-67 0 -115 -47t-61 -116l-58 -330h-55l55 310q7 40 7 67q0 116 -125 116q-67 0 -115 -47t-61 -116l-58 -330h-55l78 445q11 58 14 80h55l-15 -84q62 98 178 98q64 0 104.5 -28.5t51.5 -82.5h1q22 40 75.5 75.5t121.5 35.5
q75 0 116.5 -39.5t41.5 -111.5q0 -28 -6 -66zM409 635l7 39h244l-7 -39h-244z" />
    <glyph glyph-name="Ncircumflex" horiz-adv-x="721" 
d="M565 0h-72l-184 433q-75 176 -90 225h-2q-2 -17 -51 -301l-63 -357h-56l128 715h75l185 -439q70 -166 87 -215h2q4 18 18 112t21 130l73 412h56zM436 875h56q33 -50 78 -115h-48l-62 79l-88 -79h-55q14 13 119 115z" />
    <glyph glyph-name="ncircumflex" horiz-adv-x="570" 
d="M29 0l78 445q11 58 14 80h55l-15 -84q60 98 180 98q75 0 118 -39.5t43 -111.5q0 -28 -6 -66l-57 -322h-55l55 310q7 40 7 67q0 116 -126 116q-68 0 -117 -47t-61 -116l-58 -330h-55zM329 715h56q13 -20 41 -62.5t37 -56.5h-48l-62 81l-88 -81h-55q22 20 64 63t55 56z" />
    <glyph glyph-name="Ndieresis" horiz-adv-x="721" 
d="M565 0h-72l-184 433q-75 176 -90 225h-2q-2 -17 -51 -301l-63 -357h-56l128 715h75l185 -439q70 -166 87 -215h2q4 18 18 112t21 130l73 412h56zM344 766l15 80h61l-15 -80h-61zM483 766l15 80h61l-15 -80h-61z" />
    <glyph glyph-name="ndieresis" horiz-adv-x="570" 
d="M29 0l78 445q11 58 14 80h55l-15 -84q60 98 180 98q75 0 118 -39.5t43 -111.5q0 -28 -6 -66l-57 -322h-55l55 310q7 40 7 67q0 116 -126 116q-68 0 -117 -47t-61 -116l-58 -330h-55zM244 616l15 80h61l-15 -80h-61zM383 616l15 80h61l-15 -80h-61z" />
    <glyph glyph-name="Nmacron" horiz-adv-x="721" 
d="M565 0h-72l-184 433q-75 176 -90 225h-2q-2 -17 -51 -301l-63 -357h-56l128 715h75l185 -439q70 -166 87 -215h2q4 18 18 112t21 130l73 412h56zM328 791l7 39h244l-7 -39h-244z" />
    <glyph glyph-name="nmacron" horiz-adv-x="570" 
d="M29 0l78 445q11 58 14 80h55l-15 -84q60 98 180 98q75 0 118 -39.5t43 -111.5q0 -28 -6 -66l-57 -322h-55l55 310q7 40 7 67q0 116 -126 116q-68 0 -117 -47t-61 -116l-58 -330h-55zM220 635l7 39h244l-7 -39h-244z" />
    <glyph glyph-name="Pmacron" horiz-adv-x="579" 
d="M47 0l127 715h141q121 0 180 -31q83 -44 83 -142q0 -133 -105 -198q-63 -41 -205 -41h-113l-55 -303h-53zM219 667l-56 -316h125q232 0 232 186q0 130 -191 130h-110zM247 791l7 39h244l-7 -39h-244z" />
    <glyph glyph-name="pmacron" horiz-adv-x="613" 
d="M101 110q-2 -8 -4.5 -23.5t-3.5 -21.5q-2 -11 -7 -44t-9 -53l-26 -149h-55l126 706h54q-3 -14 -8.5 -40.5t-7.5 -37.5q67 92 187 92q94 0 153.5 -63t59.5 -172q0 -134 -77 -225.5t-191 -91.5q-77 0 -125.5 34.5t-65.5 88.5zM292 32q96 0 153 77t57 192q0 89 -43.5 141
t-128.5 52q-69 0 -118 -41t-70.5 -101.5t-21.5 -131.5q0 -86 44 -137t128 -51zM245 635l7 39h244l-7 -39h-244z" />
    <glyph glyph-name="at.case" horiz-adv-x="839" 
d="M590 531h46l-44 -250q-7 -37 -7 -48q0 -42 44 -42q57 0 96.5 66t39.5 160q0 128 -82.5 203.5t-224.5 75.5q-147 0 -248 -98.5t-101 -251.5q0 -149 99 -242.5t249 -93.5q62 0 110 14t72.5 29t63.5 46l31 -20q-110 -104 -285 -104q-170 0 -277.5 102t-107.5 267
q0 164 112.5 275.5t282.5 111.5q152 0 248.5 -84t96.5 -219q0 -128 -57.5 -199.5t-137.5 -71.5q-63 0 -74 52q-16 -19 -51 -36.5t-80 -17.5q-70 0 -112.5 43t-42.5 120q0 88 53 154.5t142 66.5q102 0 133 -77q3 19 13 69zM447 502q-68 0 -105.5 -54.5t-37.5 -127.5
q0 -130 114 -130q72 0 107.5 54.5t35.5 130.5q0 127 -114 127z" />
    <glyph glyph-name="bar.case" horiz-adv-x="269" 
d="M185 751h55l-139 -793h-55z" />
    <glyph glyph-name="plus.case" 
d="M70 348v46h197v206h48v-206h197v-46h-197v-205h-48v205h-197z" />
    <glyph glyph-name="minus.case" 
d="M67 348v46h442v-46h-442z" />
    <glyph glyph-name="plusminus.case" 
d="M49 50v46h442v-46h-442zM49 359v46h197v196h48v-196h197v-46h-197v-195h-48v195h-197z" />
    <glyph glyph-name="multiply.case" 
d="M114 167l-32 32l171 172l-171 172l32 32l172 -171l172 171l32 -32l-171 -172l171 -172l-32 -32l-172 171z" />
    <glyph glyph-name="divide.case" 
d="M69 348v46h442v-46h-442zM257 145v111h59v-111h-59zM257 488v111h59v-111h-59z" />
    <glyph glyph-name="equal.case" 
d="M66 260v46h442v-46h-442zM66 441v46h442v-46h-442z" />
    <glyph glyph-name="notequal.case" 
d="M62 441v46h248l60 123h49l-60 -123h145v-46h-167l-65 -135h232v-46h-254l-63 -130h-49l63 130h-139v46h161l65 135h-226z" />
    <glyph glyph-name="approxequal.case" 
d="M296 398l-54 25q-59 27 -82 27q-55 0 -94 -71l-32 25q54 89 132 89q41 0 97 -29l54 -26q2 -1 17.5 -8.5t21.5 -10t18.5 -5.5t23.5 -3q55 0 94 71l34 -20q-51 -94 -131 -94q-34 0 -99 30zM294 148l-54 25q-59 27 -82 27q-55 0 -94 -71l-32 25q54 89 132 89q41 0 97 -29
l54 -26q2 -1 17.5 -8.5t21.5 -10t18.5 -5.5t23.5 -3q55 0 94 71l34 -20q-51 -94 -131 -94q-34 0 -99 30z" />
    <glyph glyph-name="logicalnot.case" 
d="M29 459v46h503v-318h-48v272h-455z" />
    <glyph glyph-name="parenleft.case" horiz-adv-x="297" 
d="M49 249q0 162 78 312.5t217 244.5l-10 -57q-231 -216 -231 -492q0 -184 90 -306l-10 -57q-60 50 -97 148.5t-37 206.5z" />
    <glyph glyph-name="parenright.case" horiz-adv-x="296" 
d="M263 451q0 -163 -78 -312.5t-217 -244.5l10 57q231 215 231 498q0 178 -90 300l10 57q58 -54 96 -152.5t38 -202.5z" />
    <glyph glyph-name="hyphen.case" horiz-adv-x="424" 
d="M80 340l9 48h272l-9 -48h-272z" />
    <glyph glyph-name="bracketleft.case" horiz-adv-x="306" 
d="M205 -21l-7 -42h-156l145 828h156l-7 -42h-103l-131 -744h103z" />
    <glyph glyph-name="bracketright.case" horiz-adv-x="306" 
d="M-20 -63l7 42h102l131 744h-103l7 42h156l-145 -828h-155z" />
    <glyph glyph-name="braceleft.case" horiz-adv-x="278" 
d="M52 345l5 29q38 4 55 26t27 81l30 172q12 70 33 91.5t73 21.5q4 0 11 -0.5t9 -0.5h8l-7 -42h-10q-32 0 -44 -12.5t-20 -55.5l-26 -151q-14 -80 -31.5 -106.5t-60.5 -38.5l-1 -2q29 -13 40 -28t11 -43q0 -30 -10 -81l-28 -153q-4 -25 -4 -38q0 -23 11 -28.5t42 -8.5
l-7 -40q-1 -1 -4 -1h-17q-42 0 -61 14t-19 49q0 17 7 59l32 178q5 33 5 48q0 28 -11 40t-38 21z" />
    <glyph glyph-name="braceright.case" horiz-adv-x="276" 
d="M242 361l-5 -29q-38 -4 -55 -26t-27 -81l-31 -176q-12 -70 -33 -91.5t-73 -21.5h-20q-5 0 -8 1l7 42h10q32 0 44.5 12t19.5 56l27 155q14 80 31.5 107.5t60.5 39.5l1 2q-29 13 -40 28t-11 43q0 23 10 79l27 149q4 25 4 38q0 23 -11 28.5t-42 8.5l7 40h4q1 0 6.5 0.5
t10.5 0.5q40 0 59.5 -14t19.5 -49q0 -23 -6 -59l-31 -174q-5 -33 -5 -48q0 -28 11 -40t38 -21z" />
    <glyph glyph-name="guillemotleft.case" horiz-adv-x="489" 
d="M273 533l-141 -184l70 -191h-51l-78 192l145 183h55zM460 533l-136 -184l65 -191h-49l-78 192l145 183h53z" />
    <glyph glyph-name="guillemotright.case" horiz-adv-x="489" 
d="M230 158l141 186l-70 189h50l79 -192l-145 -183h-55zM43 158l136 186l-65 189h48l79 -192l-145 -183h-53z" />
    <glyph glyph-name="endash.case" horiz-adv-x="621" 
d="M77 342l7 44h476l-7 -44h-476z" />
    <glyph glyph-name="emdash.case" horiz-adv-x="986" 
d="M77 342l7 44h841l-7 -44h-841z" />
    <glyph glyph-name="guilsinglleft.case" horiz-adv-x="302" 
d="M273 533l-141 -184l70 -191h-51l-78 192l145 183h55z" />
    <glyph glyph-name="guilsinglright.case" horiz-adv-x="302" 
d="M43 158l141 186l-70 189h50l79 -192l-145 -183h-55z" />
    <glyph glyph-name="brokenbar.case" horiz-adv-x="213" 
d="M104 448l53 303h55l-53 -303h-55zM18 -42l53 303h55l-53 -303h-55z" />
    <glyph glyph-name="registered.alt" horiz-adv-x="860" 
d="M316 143v427h130q71 0 110.5 -29t39.5 -87q0 -104 -114 -123l113 -188h-52l-106 183h-78v-183h-43zM359 536v-177h77q116 0 116 91q0 86 -116 86h-77zM816 360q0 -158 -110 -267.5t-268 -109.5q-156 0 -265.5 110t-109.5 267t109.5 266.5t267.5 109.5q156 0 266 -110
t110 -266zM781 360q0 144 -100 244.5t-241 100.5q-144 0 -243 -100.5t-99 -244.5q0 -145 99 -246t242 -101q142 0 242 101t100 246z" />
    <glyph glyph-name="less.case" 
d="M66 337v53q93 48 396 210v-51l-352 -183v-3q8 -4 152.5 -81t199.5 -104v-51q-303 162 -396 210z" />
    <glyph glyph-name="greater.case" 
d="M514 390v-53q-93 -48 -396 -210v51q49 25 193 101.5t159 83.5v3l-352 183v51q303 -162 396 -210z" />
    <glyph glyph-name="lessequal.case" 
d="M65 324v53q40 21 179.5 92t216.5 112v-51l-352 -177v-3q8 -4 152.5 -78t199.5 -101v-51q-77 41 -216.5 112t-179.5 92zM65 0v46h397v-46h-397z" />
    <glyph glyph-name="greaterequal.case" 
d="M474 377v-53q-40 -21 -179.5 -92t-216.5 -112v51q186 96 352 179v3q-4 2 -150.5 75.5t-201.5 101.5v51q77 -41 216.5 -112t179.5 -92zM474 46v-46h-397v46h397z" />
    <glyph glyph-name="infinity.case" horiz-adv-x="862" 
d="M225 531q38 0 80 -22.5t67 -45t69 -66.5q31 32 50 50.5t48 40.5t57.5 32.5t58.5 10.5q70 0 112.5 -45.5t42.5 -120.5q0 -73 -40 -120.5t-116 -47.5q-52 0 -100.5 31.5t-115.5 99.5q-68 -69 -115 -100t-99 -31q-76 0 -116 47.5t-40 120.5q0 75 42.5 120.5t114.5 45.5z
M225 240q42 0 77.5 24.5t94.5 81.5l17 17l-31 31q-3 2 -16 14.5t-16.5 16t-15.5 14t-17.5 14.5t-16.5 11.5t-19 10.5t-18.5 7.5t-20.5 6t-20 1.5q-49 0 -78 -36t-29 -88q0 -58 28 -92t81 -34zM653 240q53 0 81 34t28 92q0 52 -29 88t-78 36q-10 0 -20 -1.5t-20.5 -6
t-18.5 -7.5t-19 -10.5t-16.5 -11.5t-17.5 -14.5t-15.5 -14t-16.5 -16t-16 -14.5l-31 -31q80 -76 105 -94q42 -29 84 -29z" />
    <glyph glyph-name="uni00AD.case" horiz-adv-x="424" 
d="M80 340l9 48h272l-9 -48h-272z" />
    <glyph glyph-name="zero.posf" horiz-adv-x="619" 
d="M265 30q74 0 123 46q62 57 97 185.5t35 240.5q0 77 -37 122t-115 45q-74 0 -123 -46q-61 -57 -94.5 -185t-33.5 -241q0 -81 34.5 -124t113.5 -43zM561 350q-11 -61 -25.5 -110t-39 -98.5t-55 -82t-76.5 -53t-103 -20.5q-105 0 -152 52t-48 157q0 76 14 151
q11 62 24.5 110.5t37 99t54 84t77 54.5t104.5 21q200 0 202 -214q0 -76 -14 -151z" />
    <glyph glyph-name="one.posf" horiz-adv-x="381" 
d="M160 0l99 547h-185l7 40h37q91 0 128.5 24t58.5 90h38l-127 -701h-56z" />
    <glyph glyph-name="two.posf" horiz-adv-x="567" 
d="M461 0h-456l9 46q184 136 239 179q7 6 33.5 26t36.5 28.5t34 28t35 32t29.5 32.5t27 36.5t19 37.5t14.5 43.5t4 45.5q0 135 -151 135q-157 0 -187 -179h-54q10 99 75.5 161.5t171.5 62.5q97 0 150 -45t53 -125q0 -54 -20 -104t-59 -94t-77 -76t-93 -72
q-165 -121 -212 -152h387z" />
    <glyph glyph-name="three.posf" horiz-adv-x="571" 
d="M27 192h54q1 -79 46.5 -120.5t124.5 -41.5q86 0 137 47t51 133q0 66 -49.5 107t-125.5 41h-17l7 42q57 0 102 13t77.5 49t32.5 91q0 54 -36.5 86t-97.5 32q-136 0 -166 -133h-52q15 79 72.5 128t150.5 49q86 0 135.5 -42t49.5 -109q0 -69 -41.5 -118t-116.5 -66v-3
q59 -18 94.5 -62.5t35.5 -105.5q0 -100 -66.5 -161.5t-179.5 -61.5q-105 0 -163.5 54t-58.5 152z" />
    <glyph glyph-name="four.posf" horiz-adv-x="576" 
d="M525 216l-8 -44h-111l-31 -172h-52l31 172h-348l6 33l298 336q28 33 78 88.5t64 71.5h50l-88 -485h111zM438 627h-2q-4 -4 -38 -44t-74 -88t-58 -67l-60 -67l-81 -91q-16 -16 -50 -54h287l27 147q38 220 49 264z" />
    <glyph glyph-name="five.posf" horiz-adv-x="561" 
d="M73 336l107 365h360l-9 -47h-316l-80 -277q57 63 161 63q89 0 145.5 -53.5t56.5 -147.5q0 -110 -68.5 -181.5t-180.5 -71.5q-103 0 -162.5 53t-64.5 152h56q0 -71 46 -116.5t127 -45.5q87 0 139 58t52 144q0 75 -45.5 120t-118.5 45q-93 0 -150 -69z" />
    <glyph glyph-name="six.posf" horiz-adv-x="594" 
d="M564 521h-55q0 63 -36.5 106.5t-111.5 43.5q-93 0 -149 -75.5t-85 -238.5l-3 -14h2q22 41 74 70t121 29q92 0 148 -52.5t56 -146.5q0 -110 -68.5 -183.5t-185.5 -73.5q-98 0 -156 56t-58 169q0 52 14 138q35 195 107.5 280.5t188.5 85.5q99 0 148 -55.5t49 -138.5z
M306 399q-88 0 -142.5 -57.5t-54.5 -145.5q0 -80 46.5 -123t122.5 -43q87 0 139 59.5t52 149.5q0 76 -42.5 118t-120.5 42z" />
    <glyph glyph-name="seven.posf" horiz-adv-x="498" 
d="M126 0h-63q105 177 216 344q10 14 92 139.5t115 170.5v1q-19 -1 -55 -1h-339l9 47h446l-8 -44l-34 -52q-25 -39 -81 -126t-83.5 -130t-70 -110.5t-77 -124.5t-67.5 -114z" />
    <glyph glyph-name="eight.posf" horiz-adv-x="603" 
d="M211 381q-86 50 -86 141q0 85 60.5 139t167.5 54q95 0 149.5 -43.5t54.5 -115.5q0 -64 -41 -113.5t-103 -68.5q116 -51 116 -165q0 -99 -71.5 -161t-190.5 -62q-104 0 -168.5 49t-64.5 137q0 77 47 131t130 78zM348 670q-73 0 -119.5 -36.5t-46.5 -103.5q0 -64 38 -99.5
t108 -35.5q72 0 120 43t48 111q0 56 -40.5 88.5t-107.5 32.5zM297 354q-87 0 -146.5 -48t-59.5 -129q0 -70 49 -109t129 -39q94 0 149.5 49t55.5 134q0 65 -49 103.5t-128 38.5z" />
    <glyph glyph-name="nine.posf" horiz-adv-x="597" 
d="M47 180h55q0 -63 36.5 -106.5t111.5 -43.5q93 0 149 75.5t85 238.5l3 14h-2q-24 -42 -74.5 -70.5t-120.5 -28.5q-92 0 -148 52.5t-56 146.5q0 110 68.5 183.5t185.5 73.5q98 0 156 -56t58 -169q0 -52 -14 -138q-35 -195 -107.5 -280.5t-188.5 -85.5q-99 0 -148 55.5
t-49 138.5zM305 302q88 0 142.5 57.5t54.5 145.5q0 80 -46.5 123t-122.5 43q-87 0 -139 -59.5t-52 -149.5q0 -76 42.5 -118t120.5 -42z" />
    <glyph glyph-name="idotaccent" horiz-adv-x="221" 
d="M122 525h55l-93 -525h-55zM192 604h-57l20 111h57z" />
    <glyph glyph-name="zero.slashplf" horiz-adv-x="619" 
d="M562 357q-11 -62 -25.5 -112t-39 -100t-55 -83.5t-76.5 -54.5t-103 -21q-105 0 -152 53.5t-48 159.5q0 78 14 154q12 64 25 113t37 101t54 85.5t76.5 55t104.5 21.5q200 0 202 -218q0 -78 -14 -154zM118 201q0 -85 33 -128l309 585q-35 25 -91 25q-73 0 -123 -47
q-61 -59 -94.5 -189.5t-33.5 -245.5zM266 30q73 0 123 47q62 56 97 188.5t35 246.5q0 68 -28 114l-306 -580q31 -16 79 -16z" />
    <glyph glyph-name="zero.slash" 
d="M532 357q-11 -62 -25.5 -112t-39 -100t-55 -83.5t-76.5 -54.5t-103 -21q-105 0 -152 53.5t-48 159.5q0 78 14 154q12 64 25 113t37 101t54 85.5t76.5 55t104.5 21.5q200 0 202 -218q0 -78 -14 -154zM88 201q0 -85 33 -128l309 585q-35 25 -91 25q-73 0 -123 -47
q-61 -59 -94.5 -189.5t-33.5 -245.5zM236 30q73 0 123 47q62 56 97 188.5t35 246.5q0 68 -28 114l-306 -580q31 -16 79 -16z" />
    <glyph glyph-name="zero.tosf" 
d="M235 30q74 0 123 46q62 57 97 185.5t35 240.5q0 77 -37 122t-115 45q-74 0 -123 -46q-61 -57 -94.5 -185t-33.5 -241q0 -81 34.5 -124t113.5 -43zM531 350q-11 -61 -25.5 -110t-39 -98.5t-55 -82t-76.5 -53t-103 -20.5q-105 0 -152 52t-48 157q0 76 14 151
q11 62 24.5 110.5t37 99t54 84t77 54.5t104.5 21q200 0 202 -214q0 -76 -14 -151z" />
    <glyph glyph-name="one.tosf" 
d="M249 0l99 547h-185l7 40h37q91 0 128.5 24t58.5 90h38l-127 -701h-56z" />
    <glyph glyph-name="two.tosf" 
d="M457 0h-456l9 46q184 136 239 179q7 6 33.5 26t36.5 28.5t34 28t35 32t29.5 32.5t27 36.5t19 37.5t14.5 43.5t4 45.5q0 135 -151 135q-157 0 -187 -179h-54q10 99 75.5 161.5t171.5 62.5q97 0 150 -45t53 -125q0 -54 -20 -104t-59 -94t-77 -76t-93 -72
q-165 -121 -212 -152h387z" />
    <glyph glyph-name="three.tosf" 
d="M21 192h54q1 -79 46.5 -120.5t124.5 -41.5q86 0 137 47t51 133q0 66 -49.5 107t-125.5 41h-17l7 42q57 0 102 13t77.5 49t32.5 91q0 54 -36.5 86t-97.5 32q-136 0 -166 -133h-52q15 79 72.5 128t150.5 49q86 0 135.5 -42t49.5 -109q0 -69 -41.5 -118t-116.5 -66v-3
q59 -18 94.5 -62.5t35.5 -105.5q0 -100 -66.5 -161.5t-179.5 -61.5q-105 0 -163.5 54t-58.5 152z" />
    <glyph glyph-name="four.tosf" 
d="M517 216l-8 -44h-111l-31 -172h-52l31 172h-348l6 33l298 336q28 33 78 88.5t64 71.5h50l-88 -485h111zM430 627h-2q-4 -4 -38 -44t-74 -88t-58 -67l-60 -67l-81 -91q-16 -16 -50 -54h287l27 147q38 220 49 264z" />
    <glyph glyph-name="five.tosf" 
d="M72 336l107 365h360l-9 -47h-316l-80 -277q57 63 161 63q89 0 145.5 -53.5t56.5 -147.5q0 -110 -68.5 -181.5t-180.5 -71.5q-103 0 -162.5 53t-64.5 152h56q0 -71 46 -116.5t127 -45.5q87 0 139 58t52 144q0 75 -45.5 120t-118.5 45q-93 0 -150 -69z" />
    <glyph glyph-name="six.tosf" 
d="M548 521h-55q0 63 -36.5 106.5t-111.5 43.5q-93 0 -149 -75.5t-85 -238.5l-3 -14h2q22 41 74 70t121 29q92 0 148 -52.5t56 -146.5q0 -110 -68.5 -183.5t-185.5 -73.5q-98 0 -156 56t-58 169q0 52 14 138q35 195 107.5 280.5t188.5 85.5q99 0 148 -55.5t49 -138.5z
M290 399q-88 0 -142.5 -57.5t-54.5 -145.5q0 -80 46.5 -123t122.5 -43q87 0 139 59.5t52 149.5q0 76 -42.5 118t-120.5 42z" />
    <glyph glyph-name="seven.tosf" 
d="M157 0h-63q105 177 216 344q10 14 92 139.5t115 170.5v1q-19 -1 -55 -1h-339l9 47h446l-8 -44l-34 -52q-25 -39 -81 -126t-83.5 -130t-70 -110.5t-77 -124.5t-67.5 -114z" />
    <glyph glyph-name="eight.tosf" 
d="M189 381q-86 50 -86 141q0 85 60.5 139t167.5 54q95 0 149.5 -43.5t54.5 -115.5q0 -64 -41 -113.5t-103 -68.5q116 -51 116 -165q0 -99 -71.5 -161t-190.5 -62q-104 0 -168.5 49t-64.5 137q0 77 47 131t130 78zM326 670q-73 0 -119.5 -36.5t-46.5 -103.5q0 -64 38 -99.5
t108 -35.5q72 0 120 43t48 111q0 56 -40.5 88.5t-107.5 32.5zM275 354q-87 0 -146.5 -48t-59.5 -129q0 -70 49 -109t129 -39q94 0 149.5 49t55.5 134q0 65 -49 103.5t-128 38.5z" />
    <glyph glyph-name="nine.tosf" 
d="M28 180h55q0 -63 36.5 -106.5t111.5 -43.5q93 0 149 75.5t85 238.5l3 14h-2q-24 -42 -74.5 -70.5t-120.5 -28.5q-92 0 -148 52.5t-56 146.5q0 110 68.5 183.5t185.5 73.5q98 0 156 -56t58 -169q0 -52 -14 -138q-35 -195 -107.5 -280.5t-188.5 -85.5q-99 0 -148 55.5
t-49 138.5zM286 302q88 0 142.5 57.5t54.5 145.5q0 80 -46.5 123t-122.5 43q-87 0 -139 -59.5t-52 -149.5q0 -76 42.5 -118t120.5 -42z" />
    <glyph glyph-name="zero.sub" horiz-adv-x="457" 
d="M182 -98q56 0 91 35q46 42 72.5 141t26.5 183q0 57 -28 92t-85 35q-53 0 -91 -36q-45 -42 -70.5 -140t-25.5 -184q0 -126 110 -126zM404 145q-47 -278 -224 -278q-80 0 -115 40t-36 120q0 57 11 115q9 47 19.5 83.5t28.5 75.5t41 64.5t57 42t76 16.5q151 0 153 -163
q0 -58 -11 -116z" />
    <glyph glyph-name="one.sub" horiz-adv-x="290" 
d="M111 -123l74 418h-138l5 32h29q67 0 95 18t44 69h29l-94 -537h-44z" />
    <glyph glyph-name="two.sub" horiz-adv-x="426" 
d="M332 -123h-343l7 37q127 95 179 136q1 1 8 6t9 7q36 28 56 45.5t47.5 47.5t40.5 62.5t13 68.5q0 48 -28.5 74t-82.5 26q-118 0 -139 -135h-43q9 76 58 124t128 48q72 0 112.5 -34.5t40.5 -95.5q0 -42 -15 -80t-44 -71.5t-57.5 -59t-69.5 -55.5l-46 -34q-15 -12 -32.5 -24
t-39.5 -28t-38 -27h286z" />
    <glyph glyph-name="three.sub" horiz-adv-x="428" 
d="M6 24h42q1 -59 35 -91t93 -32q63 0 101 36t38 100q0 50 -37.5 81t-92.5 31h-13l5 34q66 0 112 27.5t46 88.5q0 41 -27 65t-72 24q-102 0 -123 -101h-41q10 62 53 99t115 37q65 0 102 -32t37 -83q0 -53 -30 -90.5t-85 -52.5q41 -15 67.5 -50t26.5 -79q0 -77 -50 -123.5
t-135 -46.5q-78 0 -122.5 41.5t-44.5 116.5z" />
    <glyph glyph-name="four.sub" horiz-adv-x="435" 
d="M384 43l-6 -35h-83l-23 -131h-40l22 131h-260l4 27l224 257q4 4 14 15t14 17q39 44 77 90h40l-66 -371h83zM317 355q-3 -3 -28 -33t-55.5 -67t-42.5 -51l-45 -52q-8 -10 -30 -33.5t-31 -34.5l-36 -41h211l20 112q7 35 15.5 81t14 77.5t7.5 41.5z" />
    <glyph glyph-name="five.sub" horiz-adv-x="421" 
d="M42 133l80 280h271l-7 -38h-236l-58 -205q40 44 118 44q67 0 109.5 -40.5t42.5 -113.5q0 -85 -52 -139.5t-135 -54.5q-78 0 -123 41t-48 117h44q0 -53 33.5 -88t94.5 -35q65 0 103.5 44t38.5 109q0 57 -33.5 91t-87.5 34q-63 0 -112 -53z" />
    <glyph glyph-name="six.sub" horiz-adv-x="444" 
d="M409 275h-44q0 47 -27 80.5t-82 33.5q-68 0 -110 -58.5t-64 -180.5q-2 -5 -1 -6q19 31 57 52t88 21q70 0 111.5 -40t41.5 -114q0 -84 -51.5 -140t-138.5 -56q-75 0 -118.5 42.5t-43.5 129.5q0 41 11 105q53 280 222 280q76 0 112.5 -42.5t36.5 -106.5zM215 182
q-65 0 -106 -44t-41 -111q0 -60 34.5 -92.5t91.5 -32.5q64 0 102.5 45t38.5 113q0 58 -31.5 90t-88.5 32z" />
    <glyph glyph-name="seven.sub" horiz-adv-x="380" 
d="M86 -123h-50q61 104 163 265l57 88q65 102 97 146h-294l7 38h335l-6 -36l-25 -40l-71 -111q-162 -260 -213 -350z" />
    <glyph glyph-name="eight.sub" horiz-adv-x="455" 
d="M13 9q0 59 35 100.5t96 59.5q-62 37 -62 108q0 65 45.5 106t126.5 41q71 0 112 -33t41 -88q0 -50 -29.5 -86.5t-76.5 -53.5q85 -39 85 -126q0 -76 -54 -123t-143 -47q-78 0 -127 37t-49 105zM250 388q-55 0 -89.5 -27.5t-34.5 -77.5q0 -48 28 -75t81 -27t88.5 32.5
t35.5 83.5q0 42 -30 66.5t-79 24.5zM212 147q-65 0 -109.5 -36.5t-44.5 -98.5q0 -52 37 -81.5t96 -29.5q69 0 110 37t41 101q0 50 -36 79t-94 29z" />
    <glyph glyph-name="nine.sub" horiz-adv-x="444" 
d="M21 16h44q0 -47 27 -80.5t83 -33.5q68 0 109.5 58.5t63.5 180.5q1 4 1 6q-19 -31 -56.5 -52t-87.5 -21q-70 0 -112 40t-42 114q0 84 52 140t139 56q73 0 117 -43t44 -129q0 -41 -11 -105q-53 -280 -222 -280q-76 0 -112.5 42.5t-36.5 106.5zM216 109q64 0 105 44t41 111
q0 60 -34.5 92.5t-90.5 32.5q-65 0 -103.5 -45t-38.5 -113q0 -58 32 -90t89 -32z" />
    <glyph glyph-name="a.sub" horiz-adv-x="398" 
d="M87 152h-43q12 58 53 93.5t108 35.5q64 0 100 -29.5t36 -86.5q0 -26 -5 -58l-6 -35l-21 -113q-9 -50 -7 -82h-40q-2 38 5 67q-52 -74 -149 -74q-57 0 -90 26.5t-33 69.5q0 28 13 50.5t30.5 35t47 23t50.5 14.5t54 9q5 1 104 11q6 30 6 46q0 46 -26.5 68.5t-71.5 22.5
q-92 0 -115 -94zM285 52q0 2 1 4v3q2 16 3 17q-59 -4 -118 -15q-129 -20 -129 -89q0 -32 23 -50t65 -18q57 0 99 38t56 110z" />
    <glyph glyph-name="b.sub" horiz-adv-x="453" 
d="M41 -123h-42l95 536h43l-20 -113l-7 -34l-10 -50q48 65 138 65q71 0 116 -47.5t45 -128.5q0 -102 -58 -170t-144 -68q-54 0 -90.5 24.5t-51.5 62.5zM197 -97q71 0 113.5 57t42.5 142q0 65 -32.5 104t-95.5 39q-76 0 -115.5 -59.5t-39.5 -143.5q0 -65 32.5 -102t94.5 -37z
" />
    <glyph glyph-name="c.sub" horiz-adv-x="439" 
d="M397 140h-44q-21 105 -131 105q-74 0 -118.5 -57.5t-44.5 -139.5q0 -69 35.5 -107t98.5 -38q102 0 146 100h43q-24 -63 -73 -99.5t-118 -36.5q-81 0 -128 47.5t-47 131.5q0 99 58 167t150 68q74 0 118 -37t55 -104z" />
    <glyph glyph-name="d.sub" horiz-adv-x="452" 
d="M345 -123h-39l11 58q-49 -68 -141 -68q-71 0 -115.5 46.5t-44.5 129.5q0 102 57 170t144 68q55 0 92 -26t50 -67q1 10 5 32q1 6 3 20t4 26.5t4 23.5l21 123h44zM217 245q-71 0 -113.5 -57.5t-42.5 -142.5q0 -65 32.5 -103.5t95.5 -38.5q75 0 115.5 60t40.5 143
q0 63 -33 101t-95 38z" />
    <glyph glyph-name="e.sub" horiz-adv-x="447" 
d="M396 70h-337q0 -2 -0.5 -4t-0.5 -4v-9q0 -71 34 -110t101 -39q97 0 146 87h43q-60 -123 -191 -123q-81 0 -128 47.5t-47 131.5q0 98 57.5 166.5t153.5 68.5q81 0 126 -50.5t45 -132.5q0 -7 -2 -29zM223 246q-61 0 -102.5 -39.5t-56.5 -100.5h291q-2 64 -36 102t-96 38z
" />
    <glyph glyph-name="f.sub" horiz-adv-x="203" 
d="M230 414l-6 -34h-9q-2 0 -6 0.5t-6 0.5q-25 0 -38.5 -13t-19.5 -47l-9 -50h69l-6 -33h-69q-48 -268 -64 -361h-43l64 361h-52l6 33h52l9 50q19 95 100 95q14 0 28 -2z" />
    <glyph glyph-name="g.sub" horiz-adv-x="454" 
d="M162 -229q65 0 102.5 45t50.5 117q1 4 3 17t4 19q-20 -30 -57.5 -50.5t-85.5 -20.5q-73 0 -115.5 44.5t-42.5 124.5q0 89 51 151.5t139 62.5q54 0 93.5 -25.5t56.5 -64.5l14 80h43l-58 -321q-14 -77 -38 -122q-51 -92 -165 -92q-73 0 -114 37t-43 94h45q3 -38 29.5 -67
t87.5 -29zM190 -68q71 0 114 56.5t43 129.5q0 58 -37.5 93.5t-96.5 35.5q-65 0 -106.5 -51.5t-41.5 -123.5q0 -68 33.5 -104t91.5 -36z" />
    <glyph glyph-name="h.sub" horiz-adv-x="411" 
d="M137 414l-23 -128q-7 -47 -8 -51l-4 -21q49 68 131 68q57 0 89.5 -30t32.5 -84q0 -24 -5 -49l-42 -242h-44l42 233q5 27 5 50q0 85 -94 85q-47 0 -84 -36t-47 -84q-7 -42 -22.5 -127.5t-21.5 -120.5h-43l95 537h43z" />
    <glyph glyph-name="i.sub" horiz-adv-x="149" 
d="M69 271h43l-70 -394h-43zM123 328h-45l15 86h45z" />
    <glyph glyph-name="j.sub" horiz-adv-x="149" 
d="M68 271h44l-77 -434q-10 -61 -33.5 -84t-74.5 -23q-11 0 -25 2l5 34h8q1 0 5 -0.5t6 -0.5q28 0 43.5 14.5t20.5 48.5zM123 329h-45l15 85h44z" />
    <glyph glyph-name="k.sub" horiz-adv-x="338" 
d="M283 -123h-55q-14 17 -91 126l-58 82l-37 -208h-43l95 537h43l-56 -315q7 5 86 71t117 101h59l-216 -181l1 -2q1 -2 2 -2q73 -97 153 -209z" />
    <glyph glyph-name="l.sub" horiz-adv-x="149" 
d="M94 414h43l-95 -537h-43z" />
    <glyph glyph-name="m.sub" horiz-adv-x="671" 
d="M568 -123h-43l41 233q5 27 5 50q0 85 -92 85q-47 0 -83.5 -35.5t-47.5 -84.5l-43 -248h-43l41 233q5 27 5 50q0 85 -92 85q-47 0 -83.5 -35.5t-47.5 -84.5l-43 -248h-43l58 333q7 37 11 61h43l-11 -59q45 70 131 70q99 0 118 -81q20 30 59.5 55.5t87.5 25.5
q56 0 87.5 -30t31.5 -84q0 -29 -4 -49z" />
    <glyph glyph-name="n.sub" horiz-adv-x="410" 
d="M-1 -123l59 333l5 30q1 6 3 16t2 15h43l-11 -59q45 70 133 70q57 0 89.5 -30t32.5 -84q0 -24 -5 -49l-42 -242h-44l42 233q5 27 5 50q0 85 -94 85q-47 0 -83.5 -35.5t-47.5 -84.5q-7 -42 -22.5 -127.5t-21.5 -120.5h-43z" />
    <glyph glyph-name="o.sub" horiz-adv-x="465" 
d="M196 -97q75 0 121.5 56t46.5 139q0 67 -37 107t-102 40q-76 0 -120.5 -57.5t-44.5 -139.5q0 -69 35 -107t101 -38zM195 -133q-85 0 -132 47.5t-47 130.5q0 102 57.5 169t155.5 67q84 0 132.5 -48.5t48.5 -130.5q0 -101 -58.5 -168t-156.5 -67z" />
    <glyph glyph-name="p.sub" horiz-adv-x="452" 
d="M196 -132q-55 0 -91.5 25t-50.5 64q-1 -5 -3.5 -20.5t-6.5 -39.5l-7 -42l-19 -113h-44l95 529h42q-7 -36 -8 -39l-4 -15q54 65 139 65q71 0 115.5 -47t44.5 -129q0 -102 -58 -170t-144 -68zM196 -96q72 0 114.5 57t42.5 142q0 66 -32.5 104.5t-95.5 38.5
q-75 0 -115.5 -60t-40.5 -143q0 -64 32.5 -101.5t94.5 -37.5z" />
    <glyph glyph-name="q.sub" horiz-adv-x="454" 
d="M279 -258l21 116q3 18 13 69l2 7q-49 -67 -139 -67q-71 0 -115.5 47t-44.5 129q0 102 57.5 170t143.5 68q53 0 89.5 -24.5t52.5 -61.5q2 17 13 76h44l-93 -529h-44zM217 245q-70 0 -112.5 -57t-42.5 -142q0 -65 32.5 -104t95.5 -39q75 0 115 60t40 143q0 65 -32 102
t-96 37z" />
    <glyph glyph-name="r.sub" horiz-adv-x="211" 
d="M109 271l-10 -57q15 29 44.5 47.5t62.5 18.5q9 0 14 -1l-7 -40q-3 1 -19 1q-86 0 -111 -130l-41 -233h-43l59 334l10 60h41z" />
    <glyph glyph-name="s.sub" horiz-adv-x="374" 
d="M-5 -4h46q1 -45 31.5 -69.5t82.5 -24.5q50 0 78 21.5t28 55.5q0 28 -19 43t-65 32l-36 13q-53 20 -76.5 42.5t-23.5 63.5q0 48 37 77.5t104 29.5q66 0 106 -32t41 -83h-43q-1 35 -29 57.5t-77 22.5q-48 0 -71.5 -18.5t-23.5 -47.5q0 -27 19.5 -44t65.5 -33l29 -12
q36 -14 54.5 -23.5t35 -30.5t16.5 -50q0 -57 -44 -88.5t-110 -31.5q-70 0 -112 33.5t-44 96.5z" />
    <glyph glyph-name="t.sub" horiz-adv-x="215" 
d="M83 238h-61l6 33h60l19 107h43l-18 -107h74l-6 -33h-74l-48 -274q-3 -14 -3 -26q0 -33 46 -33q6 0 13 1l-6 -33q-14 -2 -24 -2q-73 0 -73 59q0 16 3 34z" />
    <glyph glyph-name="u.sub" horiz-adv-x="407" 
d="M369 271l-58 -333q-7 -37 -11 -61h-43l11 59q-45 -70 -131 -70q-57 0 -88.5 30t-31.5 84q0 29 4 49l43 242h43l-41 -233q-5 -27 -5 -50q0 -85 92 -85q47 0 83 35.5t47 84.5l43 248h43z" />
    <glyph glyph-name="v.sub" horiz-adv-x="370" 
d="M107 -123l-1 1q-47 247 -78 392h47l38 -204l2 -10q18 -95 24 -132l58 107l23 44l108 195h47q-11 -19 -61 -106t-95 -166.5t-66 -120.5h-46z" />
    <glyph glyph-name="w.sub" horiz-adv-x="579" 
d="M86 -123l-1 1q-2 18 -9 70t-11 79q-5 36 -17 122.5t-16 120.5h46l24 -202l8 -70l11 -77q44 101 75 163l86 186h50l17 -177l18 -171q25 52 36 72l51 108q13 27 39.5 83.5t39.5 84.5h47l-122 -244l-74 -149h-54l-13 151l-8 87q-2 21 -5.5 60.5t-5.5 50.5l-44 -94
q-7 -15 -23.5 -52.5t-23.5 -54.5l-71 -148h-50z" />
    <glyph glyph-name="x.sub" horiz-adv-x="352" 
d="M1 -123h-50q4 5 77 84t105 116l-106 193h49q6 -14 40.5 -80t44.5 -85q33 39 36 42q56 62 108 123h52l-90 -98l-86 -96l53 -95l59 -104h-52q-8 18 -52 99q-8 16 -36 70z" />
    <glyph glyph-name="y.sub" horiz-adv-x="369" 
d="M74 -258h-45l78 134l-80 395h47q2 -11 11 -55l56 -288q22 38 95 174t91 169h47q-120 -218 -300 -529z" />
    <glyph glyph-name="z.sub" horiz-adv-x="368" 
d="M-29 -123l5 31l225 233q80 80 92 95q-15 0 -62 -0.5t-60 -0.5h-128l6 35h307l-5 -31l-217 -225q-27 -29 -55 -55l-49 -48h50q12 0 33.5 0.5t30.5 0.5h146l-6 -35h-313z" />
    <glyph glyph-name="zero.sup" horiz-adv-x="456" 
d="M235 327q56 0 91 35q46 42 72.5 141t26.5 183q0 57 -28 92t-85 35q-53 0 -91 -36q-45 -42 -70.5 -140t-25.5 -184q0 -126 110 -126zM457 570q-47 -278 -224 -278q-80 0 -115 40t-36 120q0 57 11 115q9 47 19.5 83.5t28.5 75.5t41 64.5t57 42t76 16.5q151 0 153 -163
q0 -58 -11 -116z" />
    <glyph glyph-name="one.sup" horiz-adv-x="291" 
d="M164 302l74 418h-138l5 32h29q67 0 95 18t44 69h29l-94 -537h-44z" />
    <glyph glyph-name="two.sup" horiz-adv-x="425" 
d="M385 302h-343l7 37q127 95 179 136q1 1 8 6t9 7q36 28 56 45.5t47.5 47.5t40.5 62.5t13 68.5q0 48 -28.5 74t-82.5 26q-118 0 -139 -135h-43q9 76 58 124t128 48q72 0 112.5 -34.5t40.5 -95.5q0 -42 -15 -80t-44 -71.5t-57.5 -59t-69.5 -55.5l-46 -34q-15 -12 -32.5 -24
t-39.5 -28t-38 -27h286z" />
    <glyph glyph-name="three.sup" horiz-adv-x="428" 
d="M59 449h42q1 -59 35 -91t93 -32q63 0 101 36t38 100q0 50 -37.5 81t-92.5 31h-13l5 34q66 0 112 27.5t46 88.5q0 41 -27 65t-72 24q-102 0 -123 -101h-41q10 62 53 99t115 37q65 0 102 -32t37 -83q0 -53 -30 -90.5t-85 -52.5q41 -15 67.5 -50t26.5 -79q0 -77 -50 -123.5
t-135 -46.5q-78 0 -122.5 41.5t-44.5 116.5z" />
    <glyph glyph-name="four.sup" horiz-adv-x="434" 
d="M437 468l-6 -35h-83l-23 -131h-40l22 131h-260l4 27l224 257q4 4 14 15t14 17q39 44 77 90h40l-66 -371h83zM370 780q-3 -3 -28 -33t-55.5 -67t-42.5 -51l-45 -52q-8 -10 -30 -33.5t-31 -34.5l-36 -41h211l20 112q7 35 15.5 81t14 77.5t7.5 41.5z" />
    <glyph glyph-name="five.sup" horiz-adv-x="421" 
d="M95 558l80 280h271l-7 -38h-236l-58 -205q40 44 118 44q67 0 109.5 -40.5t42.5 -113.5q0 -85 -52 -139.5t-135 -54.5q-78 0 -123 41t-48 117h44q0 -53 33.5 -88t94.5 -35q65 0 103.5 44t38.5 109q0 57 -33.5 91t-87.5 34q-63 0 -112 -53z" />
    <glyph glyph-name="six.sup" horiz-adv-x="443" 
d="M462 700h-44q0 47 -27 80.5t-82 33.5q-68 0 -110 -58.5t-64 -180.5q-2 -5 -1 -6q19 31 57 52t88 21q70 0 111.5 -40t41.5 -114q0 -84 -51.5 -140t-138.5 -56q-75 0 -118.5 42.5t-43.5 129.5q0 41 11 105q53 280 222 280q76 0 112.5 -42.5t36.5 -106.5zM268 607
q-65 0 -106 -44t-41 -111q0 -60 34.5 -92.5t91.5 -32.5q64 0 102.5 45t38.5 113q0 58 -31.5 90t-88.5 32z" />
    <glyph glyph-name="seven.sup" horiz-adv-x="378" 
d="M138 302h-50q61 104 163 265l57 88q65 102 97 146h-294l7 38h335l-6 -36l-25 -40l-71 -111q-162 -260 -213 -350z" />
    <glyph glyph-name="eight.sup" horiz-adv-x="455" 
d="M66 434q0 59 35 100.5t96 59.5q-62 37 -62 108q0 65 45.5 106t126.5 41q71 0 112 -33t41 -88q0 -50 -29.5 -86.5t-76.5 -53.5q85 -39 85 -126q0 -76 -54 -123t-143 -47q-78 0 -127 37t-49 105zM303 813q-55 0 -89.5 -27.5t-34.5 -77.5q0 -48 28 -75t81 -27t88.5 32.5
t35.5 83.5q0 42 -30 66.5t-79 24.5zM265 572q-65 0 -109.5 -36.5t-44.5 -98.5q0 -52 37 -81.5t96 -29.5q69 0 110 37t41 101q0 50 -36 79t-94 29z" />
    <glyph glyph-name="nine.sup" horiz-adv-x="443" 
d="M74 441h44q0 -47 27 -80.5t83 -33.5q68 0 109.5 58.5t63.5 180.5q1 4 1 6q-19 -31 -56.5 -52t-87.5 -21q-70 0 -112 40t-42 114q0 84 52 140t139 56q73 0 117 -43t44 -129q0 -41 -11 -105q-53 -280 -222 -280q-76 0 -112.5 42.5t-36.5 106.5zM269 534q64 0 105 44t41 111
q0 60 -34.5 92.5t-90.5 32.5q-65 0 -103.5 -45t-38.5 -113q0 -58 32 -90t89 -32z" />
    <glyph glyph-name="a.sup" horiz-adv-x="398" 
d="M140 577h-43q12 58 53 93.5t108 35.5q64 0 100 -29.5t36 -86.5q0 -26 -5 -58l-6 -35l-21 -113q-9 -50 -7 -82h-40q-2 38 5 67q-52 -74 -149 -74q-57 0 -90 26.5t-33 69.5q0 28 13 50.5t30.5 35t47 23t50.5 14.5t54 9q5 1 104 11q6 30 6 46q0 46 -26.5 68.5t-71.5 22.5
q-92 0 -115 -94zM338 477q0 1 0.5 3t0.5 4q2 16 3 17q-59 -4 -118 -15q-129 -20 -129 -89q0 -32 23 -50t65 -18q57 0 99 38t56 110z" />
    <glyph glyph-name="b.sup" horiz-adv-x="453" 
d="M94 302h-42l95 536h43l-20 -113l-7 -34q-2 -8 -3.5 -16.5t-3.5 -18.5l-3 -15q48 65 138 65q71 0 116 -47.5t45 -128.5q0 -102 -58 -170t-144 -68q-54 0 -90.5 24.5t-51.5 62.5zM250 328q71 0 113.5 57t42.5 142q0 65 -32.5 104t-95.5 39q-76 0 -115.5 -59.5t-39.5 -143.5
q0 -65 32.5 -102t94.5 -37z" />
    <glyph glyph-name="c.sup" horiz-adv-x="439" 
d="M450 565h-44q-21 105 -131 105q-74 0 -118.5 -57.5t-44.5 -139.5q0 -69 35.5 -107t98.5 -38q102 0 146 100h43q-24 -63 -73 -99.5t-118 -36.5q-81 0 -128 47.5t-47 131.5q0 99 58 167t150 68q74 0 118 -37t55 -104z" />
    <glyph glyph-name="d.sup" horiz-adv-x="453" 
d="M398 302h-39l11 58q-49 -68 -141 -68q-71 0 -115.5 46.5t-44.5 129.5q0 102 57 170t144 68q55 0 92 -26t50 -67q1 10 5 32q1 6 3 20t4 26.5t4 23.5l21 123h44zM270 670q-71 0 -113.5 -57.5t-42.5 -142.5q0 -65 32.5 -103.5t95.5 -38.5q75 0 115.5 60t40.5 143
q0 63 -33 101t-95 38z" />
    <glyph glyph-name="e.sup" horiz-adv-x="447" 
d="M449 495h-337q0 -1 -0.5 -3.5t-0.5 -4.5v-9q0 -71 34 -110t101 -39q97 0 146 87h43q-60 -123 -191 -123q-81 0 -128 47.5t-47 131.5q0 98 57.5 166.5t153.5 68.5q81 0 126 -50.5t45 -132.5q0 -7 -2 -29zM276 671q-61 0 -102.5 -39.5t-56.5 -100.5h291q-2 64 -36 102
t-96 38z" />
    <glyph glyph-name="f.sup" horiz-adv-x="205" 
d="M284 839l-6 -34h-9q-2 0 -6 0.5t-6 0.5q-25 0 -38.5 -13t-19.5 -47l-9 -50h69l-6 -33h-69q-48 -268 -64 -361h-43l64 361h-52l6 33h52l9 50q19 95 100 95q14 0 28 -2z" />
    <glyph glyph-name="g.sup" horiz-adv-x="455" 
d="M215 196q65 0 102.5 45t50.5 117q1 4 3 17t4 19q-20 -30 -57.5 -50.5t-85.5 -20.5q-73 0 -115.5 44.5t-42.5 124.5q0 89 51 151.5t139 62.5q54 0 93.5 -25.5t56.5 -64.5l14 80h43l-58 -321q-14 -77 -38 -122q-51 -92 -165 -92q-73 0 -114 37t-43 94h45q3 -38 29.5 -67
t87.5 -29zM243 357q71 0 114 56.5t43 129.5q0 58 -37.5 93.5t-96.5 35.5q-65 0 -106.5 -51.5t-41.5 -123.5q0 -68 33.5 -104t91.5 -36z" />
    <glyph glyph-name="h.sup" horiz-adv-x="411" 
d="M190 839l-23 -128q-7 -47 -8 -51l-4 -21q49 68 131 68q57 0 89.5 -30t32.5 -84q0 -24 -5 -49l-42 -242h-44l42 233q5 27 5 50q0 85 -94 85q-47 0 -84 -36t-47 -84q-7 -42 -22.5 -127.5t-21.5 -120.5h-43l95 537h43z" />
    <glyph glyph-name="i.sup" horiz-adv-x="150" 
d="M122 696h43l-70 -394h-43zM176 753h-45l15 86h45z" />
    <glyph glyph-name="j.sup" horiz-adv-x="151" 
d="M122 696h44l-77 -434q-10 -61 -33.5 -84t-74.5 -23q-11 0 -25 2l5 34h8q1 0 5 -0.5t6 -0.5q28 0 43.5 14.5t20.5 48.5zM177 754h-45l15 85h44z" />
    <glyph glyph-name="k.sup" horiz-adv-x="337" 
d="M336 302h-55q-14 17 -91 126l-58 82l-37 -208h-43l95 537h43l-56 -315q7 5 86 71t117 101h59l-216 -181l1 -2q1 -2 2 -2q73 -97 153 -209z" />
    <glyph glyph-name="l.sup" horiz-adv-x="149" 
d="M147 839h43l-95 -537h-43z" />
    <glyph glyph-name="m.sup" horiz-adv-x="672" 
d="M622 302h-43l41 233q5 27 5 50q0 85 -92 85q-47 0 -83.5 -35.5t-47.5 -84.5l-43 -248h-43l41 233q5 27 5 50q0 85 -92 85q-47 0 -83.5 -35.5t-47.5 -84.5l-43 -248h-43l58 333q7 37 11 61h43l-11 -59q45 70 131 70q99 0 118 -81q20 30 59.5 55.5t87.5 25.5q56 0 87.5 -30
t31.5 -84q0 -29 -4 -49z" />
    <glyph glyph-name="n.sup" horiz-adv-x="411" 
d="M52 302l59 333l5 30q0 6 2 16l3 15h43l-11 -59q45 70 133 70q57 0 89.5 -30t32.5 -84q0 -24 -5 -49l-42 -242h-44l42 233q5 27 5 50q0 85 -94 85q-47 0 -83.5 -35.5t-47.5 -84.5q-7 -42 -22.5 -127.5t-21.5 -120.5h-43z" />
    <glyph glyph-name="o.sup" horiz-adv-x="465" 
d="M249 328q75 0 121.5 56t46.5 139q0 67 -37 107t-102 40q-76 0 -120.5 -57.5t-44.5 -139.5q0 -69 35 -107t101 -38zM248 292q-84 0 -131.5 47t-47.5 131q0 102 57.5 169t155.5 67q84 0 132.5 -48.5t48.5 -130.5q0 -101 -58.5 -168t-156.5 -67z" />
    <glyph glyph-name="p.sup" horiz-adv-x="452" 
d="M249 293q-55 0 -91.5 25t-50.5 64q-1 -5 -3.5 -20.5t-6.5 -39.5l-7 -42l-19 -113h-44l95 529h42q-7 -36 -8 -39l-4 -15q54 65 139 65q71 0 115.5 -47t44.5 -129q0 -102 -58 -170t-144 -68zM249 329q72 0 114.5 57t42.5 142q0 66 -32.5 104.5t-95.5 38.5q-75 0 -115.5 -60
t-40.5 -143q0 -64 32.5 -101.5t94.5 -37.5z" />
    <glyph glyph-name="q.sup" horiz-adv-x="454" 
d="M332 167l21 116q3 18 13 69l2 7q-49 -67 -139 -67q-71 0 -115.5 47t-44.5 129q0 102 57.5 170t143.5 68q53 0 89.5 -24.5t52.5 -61.5q2 17 13 76h44l-93 -529h-44zM270 670q-70 0 -112.5 -57t-42.5 -142q0 -65 32.5 -104t95.5 -39q75 0 115 60t40 143q0 65 -32 102
t-96 37z" />
    <glyph glyph-name="r.sup" horiz-adv-x="213" 
d="M162 696l-10 -57q15 29 44.5 47.5t62.5 18.5q9 0 14 -1l-7 -40q-3 1 -19 1q-86 0 -111 -130l-41 -233h-43l59 334l10 60h41z" />
    <glyph glyph-name="s.sup" horiz-adv-x="374" 
d="M49 421h46q1 -45 31.5 -69.5t82.5 -24.5q50 0 78 21.5t28 55.5q0 28 -19 43t-65 32l-36 13q-53 20 -76.5 42.5t-23.5 63.5q0 48 37 77.5t104 29.5q66 0 106 -32t41 -83h-43q-1 35 -29 57.5t-77 22.5q-48 0 -71.5 -18.5t-23.5 -47.5q0 -27 19.5 -44t65.5 -33l29 -12
q36 -14 54.5 -23.5t35 -30.5t16.5 -50q0 -57 -44 -88.5t-110 -31.5q-70 0 -112 33.5t-44 96.5z" />
    <glyph glyph-name="t.sup" horiz-adv-x="217" 
d="M138 663h-61l6 33h60l19 107h43l-18 -107h74l-6 -33h-74l-48 -274q-3 -13 -3 -26q0 -33 46 -33q6 0 13 1l-6 -33q-14 -2 -24 -2q-73 0 -73 59q0 16 3 34z" />
    <glyph glyph-name="u.sup" horiz-adv-x="407" 
d="M422 696l-58 -333q-7 -37 -11 -61h-43l11 59q-45 -70 -131 -70q-57 0 -88.5 30t-31.5 84q0 29 4 49l43 242h43l-41 -233q-5 -27 -5 -50q0 -85 92 -85q47 0 83 35.5t47 84.5l43 248h43z" />
    <glyph glyph-name="v.sup" horiz-adv-x="369" 
d="M160 302l-1 1q-47 247 -78 392h47l38 -204l2 -10q18 -95 24 -132l58 107l23 44l108 195h47q-11 -19 -61 -106t-95 -166.5t-66 -120.5h-46z" />
    <glyph glyph-name="w.sup" horiz-adv-x="579" 
d="M139 302l-1 1q-2 18 -9 70t-11 79q-5 36 -17 122.5t-16 120.5h46l24 -202l8 -70l11 -77q44 101 75 163l86 186h50l17 -177l18 -171q25 52 36 72l51 108q12 27 39.5 84t39.5 84h47l-122 -244l-74 -149h-54l-13 151l-8 87q-2 21 -5.5 60.5t-5.5 50.5l-44 -94
q-7 -15 -23.5 -52.5t-23.5 -54.5l-71 -148h-50z" />
    <glyph glyph-name="x.sup" horiz-adv-x="350" 
d="M53 302h-50q4 5 77 84t105 116l-106 193h49q6 -14 40.5 -80t44.5 -85q33 39 36 42q56 62 108 123h52l-90 -98l-86 -96l53 -95l59 -104h-52q-8 18 -52 99q-8 16 -36 70z" />
    <glyph glyph-name="y.sup" horiz-adv-x="371" 
d="M128 167h-45l78 134l-80 395h47q2 -11 11 -55l56 -288q22 38 95 174t91 169h47q-120 -218 -300 -529z" />
    <glyph glyph-name="z.sup" horiz-adv-x="369" 
d="M24 302l5 31l225 233q80 80 92 95q-15 0 -62 -0.5t-60 -0.5h-128l6 35h307l-5 -31l-217 -225q-27 -29 -55 -55l-49 -48h50q12 0 33.5 0.5t30.5 0.5h146l-6 -35h-313z" />
    </font>
</defs>
</svg>
