<?xml version="1.0" standalone="no"?>
<!DOCTYPE svg PUBLIC "-//W3C//DTD SVG 1.1//EN" "http://www.w3.org/Graphics/SVG/1.1/DTD/svg11.dtd" >
<svg>
<metadata>
Created by FontForge 20120731 at Tue Dec 15 21:07:55 2015
 By ,,,
(c)2013 Optimo. wf-rip
</metadata>
<defs>
<font id="Plain-SkeletonIta" horiz-adv-x="560" >
  <font-face 
    font-family="Plain Skeleton"
    font-weight="50"
    font-style="italic"
    font-stretch="normal"
    units-per-em="1000"
    panose-1="2 11 0 4 2 2 2 2 2 4"
    ascent="803"
    descent="-197"
    x-height="525"
    cap-height="715"
    bbox="-97 -269 1332 1076"
    underline-thickness="50"
    underline-position="-50"
    slope="-10"
    unicode-range="U+000D-FB02"
  />
<missing-glyph horiz-adv-x="644" 
d="M50 240v49l309 309q14 -8 26 -23zM50 142v49l347 347v-15q0 -20 -13.5 -37.5t-41.5 -39.5t-37 -31q-23 -23 -36 -54zM104 0h-49l261 261h49l-93 -93h-23v-23zM321 168l273 273v-49l-224 -224h-49zM50 338v49l148 148l39 -2q0 29 20 52t55 23h8zM398 0h-49l33 33h2v2
l210 210v-49zM384 133l210 210v-49l-210 -210v49zM50 44v49l206 206v-38h11zM50 583l196 196h49l-44 -44q-54 -14 -93 -53.5t-54 -93.5l-54 -54v49zM537 482l57 57v-49l-216 -216v7q0 12 2.5 21t11 18.5t12.5 13.5t21 16t23 16q1 1 10 7.5t14 10.5t14.5 12.5t15.5 16.5
t13.5 18.5t13 23.5t8.5 27zM50 681l98 98h49l-147 -147v49zM496 0h-49l147 147v-49zM459 698l81 81h49l-104 -104q-25 22 -26 23zM50 436v49l56 56l46 -3zM506 647l88 88v-49l-70 -70q-6 13 -18 31zM202 0h-49l96 96v-49zM395 732l47 47h49l-62 -62q-15 8 -34 15zM536 579
l58 58v-49l-52 -52q0 13 -6 43zM307 742l37 37h49l-38 -38q-18 2 -28 2q-2 0 -6.5 -0.5t-6.5 -0.5h-7zM300 0h-49l33 33h49zM594 49v-49h-49zM50 779h49l-49 -49v49z" />
    <glyph glyph-name="fi" unicode="fi" horiz-adv-x="424" 
d="M280 715l-1 -10q-14 2 -24 2q-42 0 -62.5 -21.5t-32.5 -82.5l-14 -78h101l-2 -10h-101l-91 -515h-10l91 515h-69l2 10h69l12 67q11 66 33 95.5t74 29.5q11 0 25 -2zM363 525h10l-93 -525h-10zM387 604h-10l20 111h10z" />
    <glyph glyph-name="fl" unicode="fl" horiz-adv-x="412" 
d="M280 715l-1 -10q-14 2 -24 2q-42 0 -62.5 -21.5t-32.5 -82.5l-14 -78h101l-2 -10h-101l-91 -515h-10l91 515h-69l2 10h69l12 67q11 66 33 95.5t74 29.5q11 0 25 -2zM380 715h10l-127 -715h-10z" />
    <glyph glyph-name=".notdef" horiz-adv-x="644" 
d="M50 240v49l309 309q14 -8 26 -23zM50 142v49l347 347v-15q0 -20 -13.5 -37.5t-41.5 -39.5t-37 -31q-23 -23 -36 -54zM104 0h-49l261 261h49l-93 -93h-23v-23zM321 168l273 273v-49l-224 -224h-49zM50 338v49l148 148l39 -2q0 29 20 52t55 23h8zM398 0h-49l33 33h2v2
l210 210v-49zM384 133l210 210v-49l-210 -210v49zM50 44v49l206 206v-38h11zM50 583l196 196h49l-44 -44q-54 -14 -93 -53.5t-54 -93.5l-54 -54v49zM537 482l57 57v-49l-216 -216v7q0 12 2.5 21t11 18.5t12.5 13.5t21 16t23 16q1 1 10 7.5t14 10.5t14.5 12.5t15.5 16.5
t13.5 18.5t13 23.5t8.5 27zM50 681l98 98h49l-147 -147v49zM496 0h-49l147 147v-49zM459 698l81 81h49l-104 -104q-25 22 -26 23zM50 436v49l56 56l46 -3zM506 647l88 88v-49l-70 -70q-6 13 -18 31zM202 0h-49l96 96v-49zM395 732l47 47h49l-62 -62q-15 8 -34 15zM536 579
l58 58v-49l-52 -52q0 13 -6 43zM307 742l37 37h49l-38 -38q-18 2 -28 2q-2 0 -6.5 -0.5t-6.5 -0.5h-7zM300 0h-49l33 33h49zM594 49v-49h-49zM50 779h49l-49 -49v49z" />
    <glyph glyph-name=".null" horiz-adv-x="0" 
 />
    <glyph glyph-name="nonmarkingreturn" horiz-adv-x="333" 
 />
    <glyph glyph-name="NULL" horiz-adv-x="0" 
 />
    <glyph glyph-name="NULL" horiz-adv-x="0" 
 />
    <glyph glyph-name="CR" unicode="&#xd;" horiz-adv-x="0" 
 />
    <glyph glyph-name="space" unicode=" " horiz-adv-x="288" 
 />
    <glyph glyph-name="exclam" unicode="!" horiz-adv-x="229" 
d="M97 186h-8q19 127 81 461l12 68h10l-12 -68q-12 -63 -41 -227.5t-42 -233.5zM55 0l20 111h10l-20 -111h-10z" />
    <glyph glyph-name="quotedbl" unicode="&#x22;" horiz-adv-x="303" 
d="M117 451h-8q5 35 17 101q6 32 16 90t13 73h10q-1 -6 -12 -68t-18 -95zM244 451h-8q5 35 17 101q6 32 16 90t13 73h10q-1 -6 -12 -68t-18 -95z" />
    <glyph glyph-name="numbersign" unicode="#" 
d="M292 0l77 250h-224l-77 -250h-10l77 250h-117l3 10h117l69 221h-120l4 10h120l69 224h10l-69 -224h224l69 224h10l-69 -224h110l-4 -10h-110l-69 -221h113l-3 -10h-113l-77 -250h-10zM217 481l-69 -221h224l69 221h-224z" />
    <glyph glyph-name="dollar" unicode="$" 
d="M14 206h10q5 -98 66 -150.5t173 -52.5q103 0 167 47.5t64 134.5q0 28 -12.5 52t-26.5 39t-45 32.5t-47 25t-52 22.5l-41 19q-96 43 -135 78.5t-39 101.5q0 76 55.5 121.5t158.5 45.5q18 0 26 -1l21 107h10l-21 -108q94 -8 147 -58.5t54 -134.5h-10q-2 85 -59.5 135
t-167.5 50q-95 0 -149.5 -40.5t-54.5 -116.5q0 -33 10.5 -58.5t36 -45.5t50.5 -33.5t70 -34.5l54 -23q91 -40 133.5 -77t42.5 -98q0 -90 -66.5 -141t-173.5 -51q-12 0 -19 1l-20 -111h-10l20 111q-99 7 -157.5 60.5t-62.5 151.5z" />
    <glyph glyph-name="percent" unicode="%" horiz-adv-x="881" 
d="M217 342q60 0 101 37t56.5 87t15.5 108q0 67 -34 104t-96 37q-45 0 -79.5 -21.5t-54 -56.5t-29.5 -74.5t-10 -80.5q0 -64 35 -102t95 -38zM260 725q65 0 102.5 -39t37.5 -112q0 -39 -9 -78t-28.5 -77.5t-57.5 -62.5t-88 -24q-65 0 -102.5 38.5t-37.5 111.5q0 39 9 78
t28.5 77.5t57.5 63t88 24.5zM239 0l402 715h11l-402 -715h-11zM638 -6q60 0 101 37t56.5 87t15.5 108q0 67 -34 104t-96 37q-45 0 -79.5 -21.5t-54 -56.5t-29.5 -74.5t-10 -80.5q0 -64 35 -102t95 -38zM681 377q65 0 102.5 -39t37.5 -112q0 -39 -9 -78t-28.5 -77.5
t-57.5 -62.5t-88 -24q-65 0 -102.5 38.5t-37.5 111.5q0 39 9 78t28.5 77.5t57.5 63t88 24.5z" />
    <glyph glyph-name="ampersand" unicode="&#x26;" horiz-adv-x="648" 
d="M621 373l11 -1q-28 -58 -73.5 -130.5t-85.5 -120.5q5 -6 17 -23t29.5 -40t39.5 -51l-8 -6l-84 113q-117 -127 -253 -127q-83 0 -128.5 44.5t-45.5 118.5q0 36 14 67t32 52.5t53.5 45.5t61 37.5t71.5 36.5q-79 102 -79 187q0 64 45 105.5t119 41.5q69 0 107 -32.5
t38 -90.5q0 -39 -17 -71.5t-52 -59t-65.5 -43.5t-81.5 -41q3 -5 63.5 -91.5t117.5 -165.5q38 45 85.5 121t68.5 124zM281 392q3 1 67 33q64 33 104 74t40 101q0 54 -35 83.5t-100 29.5q-71 0 -112.5 -39t-41.5 -98q0 -76 78 -184zM462 121q-68 91 -185 261
q-54 -26 -88.5 -46t-69.5 -48t-52 -62.5t-17 -75.5q0 -71 43.5 -112t121.5 -41q128 0 247 124z" />
    <glyph glyph-name="quotesingle" unicode="'" horiz-adv-x="176" 
d="M117 451h-8q5 35 17 101q6 32 16 90t13 73h10q-1 -6 -12 -68t-18 -95z" />
    <glyph glyph-name="parenleft" unicode="(" horiz-adv-x="272" 
d="M42 178q0 170 72 320.5t210 249.5l-2 -11q-132 -100 -201 -246t-69 -313q0 -203 114 -319l-2 -10q-122 114 -122 329z" />
    <glyph glyph-name="parenright" unicode=")" horiz-adv-x="273" 
d="M228 419q0 -170 -72 -320.5t-210 -249.5l2 11q132 100 201 246t69 313q0 203 -114 319l2 10q122 -114 122 -329z" />
    <glyph glyph-name="asterisk" unicode="*" horiz-adv-x="450" 
d="M301 712l-28 -153l154 24l1 -9l-154 -22l70 -139l-9 -4l-68 139l-110 -108l-7 7l112 107l-137 72l4 9l137 -74l26 153z" />
    <glyph glyph-name="plus" unicode="+" 
d="M505 317h-217v-222h-10v222h-218v10h218v223h10v-223h217v-10z" />
    <glyph glyph-name="comma" unicode="," horiz-adv-x="204" 
d="M88 111l-118 -232h-10l117 232h11z" />
    <glyph glyph-name="hyphen" unicode="-" horiz-adv-x="427" 
d="M74 290l2 10h272l-2 -10h-272z" />
    <glyph glyph-name="period" unicode="." horiz-adv-x="167" 
d="M26 0l19 111h10l-19 -111h-10z" />
    <glyph glyph-name="slash" unicode="/" horiz-adv-x="337" 
d="M-24 -105l375 820h11l-375 -820h-11z" />
    <glyph glyph-name="zero" unicode="0" 
d="M230 -4q89 0 151 53q76 65 114.5 202t38.5 259q0 209 -188 209q-90 0 -154 -54q-73 -62 -111.5 -201.5t-38.5 -266.5q0 -201 188 -201zM530 357q-62 -371 -300 -371q-100 0 -148.5 51.5t-49.5 159.5q0 80 14 156q13 79 33 140.5t54 117.5t87.5 87t124.5 31
q199 0 199 -219q0 -77 -14 -153z" />
    <glyph glyph-name="one" unicode="1" 
d="M280 0l103 582h-196l2 9h117q57 0 69 6.5t18 41.5l15 76h9l-127 -715h-10z" />
    <glyph glyph-name="two" unicode="2" 
d="M460 0h-464l2 8q152 107 281 207q11 9 40.5 32t44 34.5t41.5 35t41 40t33.5 41.5t29.5 47t17 50t7 56q0 77 -50.5 122.5t-144.5 45.5q-104 0 -159.5 -58.5t-68.5 -149.5h-10q13 98 74 158t164 60q94 0 149.5 -45.5t55.5 -132.5q0 -36 -9 -69.5t-30 -65.5t-40 -55.5
t-57 -56t-61 -51t-70 -53.5q-185 -142 -261 -190h447z" />
    <glyph glyph-name="three" unicode="3" 
d="M26 196h10q2 -94 55 -147t157 -53t167 61t63 155q0 83 -62.5 126.5t-153.5 43.5h-8l2 9q45 0 87 9.5t80 30t60.5 57t22.5 85.5q0 65 -43.5 105.5t-132.5 40.5q-92 0 -143 -47.5t-66 -122.5h-10q13 79 70 129.5t149 50.5q88 0 137 -41.5t49 -114.5q0 -80 -55.5 -128.5
t-154.5 -57.5v-1q77 -7 129.5 -51.5t52.5 -122.5q0 -102 -66 -164t-174 -62q-107 0 -164 53.5t-58 156.5z" />
    <glyph glyph-name="four" unicode="4" 
d="M515 198l-1 -10h-141l-34 -188h-10l34 188h-361l1 6l458 522h6l-92 -518h140zM454 693h-2q-4 -5 -40 -45.5t-87.5 -99.5t-87.5 -101l-62 -71l-100 -113l-57 -65h347l31 172q47 274 58 323z" />
    <glyph glyph-name="five" unicode="5" 
d="M87 342l104 373h343l-2 -10h-335l-96 -347q19 32 66.5 61.5t114.5 29.5q94 0 152.5 -53t58.5 -152q0 -109 -67 -183.5t-179 -74.5q-98 0 -158 54t-64 145h10q3 -78 56.5 -133.5t155.5 -55.5q107 0 171.5 71t64.5 177q0 92 -54.5 143.5t-146.5 51.5q-110 0 -188 -99z" />
    <glyph glyph-name="six" unicode="6" 
d="M549 539h-10q-2 84 -47.5 132t-134.5 48q-74 0 -129 -36q-140 -92 -175 -426h1q11 75 74.5 132t159.5 57t156 -52t60 -154q0 -107 -66.5 -180.5t-179.5 -73.5q-99 0 -156 55.5t-57 168.5q0 64 14 150q35 195 109 282t189 87q98 0 145 -54t47 -136zM288 437
q-103 0 -168 -67t-65 -167q0 -93 50.5 -150t152.5 -57q108 0 172 70.5t64 173.5q0 89 -53.5 143t-152.5 54z" />
    <glyph glyph-name="seven" unicode="7" 
d="M133 0h-12q76 128 221 351q25 38 106.5 163.5t124.5 190.5h-449l2 10h460l-2 -8l-39 -62q-52 -82 -138.5 -213t-153.5 -236t-120 -196z" />
    <glyph glyph-name="eight" unicode="8" 
d="M258 387q-69 5 -110.5 48.5t-41.5 111.5q0 77 59.5 129.5t159.5 52.5q94 0 146.5 -45t52.5 -120q0 -77 -55.5 -127t-141.5 -52q80 -11 129 -55t49 -123q0 -101 -71 -161t-187 -60q-101 0 -165.5 50t-64.5 139q0 87 62 148.5t179 63.5zM325 719q-90 0 -149.5 -47
t-59.5 -125q0 -73 50 -115t129 -42q97 0 158 47t61 127q0 69 -49 112t-140 43zM278 381q-114 0 -182.5 -55.5t-68.5 -150.5q0 -83 62 -131t158 -48q110 0 179 57t69 154q0 80 -56 127t-161 47z" />
    <glyph glyph-name="nine" unicode="9" 
d="M29 176h10q2 -84 47.5 -132t134.5 -48q74 0 129 36q136 89 175 426h-1q-11 -75 -74.5 -132t-159.5 -57t-156 52t-60 154q0 107 66.5 180.5t179.5 73.5q99 0 156 -55.5t57 -168.5q0 -64 -14 -150q-35 -195 -109 -282t-189 -87q-98 0 -145 54t-47 136zM290 278
q102 0 167.5 67t65.5 167q0 93 -51 150t-152 57q-108 0 -172 -70.5t-64 -173.5q0 -89 53.5 -143t152.5 -54z" />
    <glyph glyph-name="colon" unicode=":" horiz-adv-x="165" 
d="M23 0l20 111h10l-20 -111h-10zM90 379l20 111h10l-20 -111h-10z" />
    <glyph glyph-name="semicolon" unicode=";" horiz-adv-x="225" 
d="M121 379l20 111h10l-20 -111h-10zM102 111l-118 -232h-10l117 232h11z" />
    <glyph glyph-name="less" unicode="&#x3c;" 
d="M58 320v8l396 218v-11l-384 -210v-1l384 -216v-11z" />
    <glyph glyph-name="equal" unicode="=" 
d="M57 410v10h442v-10h-442zM57 225v10h442v-10h-442z" />
    <glyph glyph-name="greater" unicode="&#x3e;" 
d="M498 328v-8l-396 -223v11l384 216v1l-384 210v11z" />
    <glyph glyph-name="question" unicode="?" horiz-adv-x="486" 
d="M229 201h-10q9 60 30.5 91t82.5 79l30 24q32 26 45 38t35.5 36.5t31.5 51t9 57.5q0 60 -43 100.5t-135 40.5q-102 0 -157 -61t-59 -147h-10q2 91 63.5 154.5t162.5 63.5q88 0 138 -39.5t50 -111.5q0 -33 -9 -60t-33 -54t-38 -39t-52 -43l-17 -13q-62 -47 -84.5 -79.5
t-30.5 -88.5zM186 0l20 111h10l-20 -111h-10z" />
    <glyph glyph-name="at" unicode="@" horiz-adv-x="846" 
d="M604 527h10q-24 -147 -49 -271q-4 -17 -4 -36q0 -27 13 -39.5t47 -12.5q70 0 123.5 70.5t53.5 184.5q0 134 -89.5 216t-243.5 82q-114 0 -203.5 -52t-135.5 -137t-46 -185q0 -160 100 -261t276 -101q158 0 273 99l7 -7q-112 -102 -280 -102q-173 0 -279.5 101t-106.5 271
q0 160 111 272t284 112q156 0 249.5 -85t93.5 -222q0 -115 -55.5 -190t-131.5 -75q-36 0 -52.5 13.5t-16.5 45.5q0 17 6 41h-1q-15 -43 -53 -72.5t-90 -29.5q-70 0 -109 42t-39 121q0 87 49 152t134 65q64 0 98 -39t34 -99h1zM449 527q-78 0 -125.5 -60t-47.5 -147
q0 -73 36 -113.5t102 -40.5q43 0 75 20t50 53t26.5 70t8.5 77q0 62 -31 101.5t-94 39.5z" />
    <glyph glyph-name="A" unicode="A" horiz-adv-x="636" 
d="M391 715h9l150 -715h-10l-58 281h-329l-159 -281h-11zM394 700h-1q-23 -39 -67 -117q-48 -83 -122 -214l-45 -78h321l-17 79q-53 248 -69 330z" />
    <glyph glyph-name="B" unicode="B" horiz-adv-x="647" 
d="M55 0l127 715h166q103 0 157 -19q94 -32 94 -131q0 -88 -54 -138t-154 -57q87 -6 133.5 -46t46.5 -108q0 -135 -108 -185q-65 -31 -184 -31h-224zM130 365l-63 -355h212q116 0 180 30q100 48 100 176q0 149 -225 149h-204zM191 705l-59 -330h203q124 0 188.5 48.5
t64.5 141.5q0 91 -88 122q-54 18 -153 18h-156z" />
    <glyph glyph-name="C" unicode="C" horiz-adv-x="770" 
d="M705 207h10q-43 -104 -127.5 -162.5t-204.5 -58.5q-142 0 -229.5 87t-87.5 245q0 172 99 291.5t269 119.5q122 0 201 -60.5t106 -167.5h-10q-25 102 -101 160t-196 58q-113 0 -196 -58.5t-122.5 -148t-39.5 -194.5q0 -149 84 -235.5t223 -86.5q118 0 198.5 56.5
t123.5 154.5z" />
    <glyph glyph-name="D" unicode="D" horiz-adv-x="724" 
d="M55 0l127 715h122q181 0 266 -59q106 -72 106 -237q0 -221 -135 -330q-108 -89 -317 -89h-169zM190 705l-123 -695h157q200 0 310 86q132 107 132 323q0 161 -102 228q-87 58 -260 58h-114z" />
    <glyph glyph-name="E" unicode="E" horiz-adv-x="605" 
d="M55 0l127 715h431l-2 -10h-421l-59 -332h397l-2 -10h-397l-62 -353h428l-2 -10h-438z" />
    <glyph glyph-name="F" unicode="F" horiz-adv-x="596" 
d="M65 0h-10l127 715h420l-2 -10h-410l-59 -332h386l-2 -10h-386z" />
    <glyph glyph-name="G" unicode="G" horiz-adv-x="786" 
d="M380 -14q-140 0 -227 87.5t-87 243.5q0 111 42 203.5t127 150.5t199 58q122 0 201.5 -60.5t106.5 -167.5h-10q-25 99 -101 158.5t-197 59.5q-87 0 -157.5 -34.5t-113 -92t-65 -128.5t-22.5 -147q0 -146 82.5 -233.5t221.5 -87.5q187 0 281 161q41 74 55 172h-314l2 10
h324l-59 -339h-10l16 87q5 26 13.5 73.5t12.5 64.5h-1q-34 -106 -116 -172.5t-204 -66.5z" />
    <glyph glyph-name="H" unicode="H" horiz-adv-x="708" 
d="M661 715h10l-127 -715h-10l65 364h-470l-64 -364h-10l127 715h10l-61 -341h470z" />
    <glyph glyph-name="I" unicode="I" horiz-adv-x="229" 
d="M182 715h10l-127 -715h-10z" />
    <glyph glyph-name="J" unicode="J" horiz-adv-x="446" 
d="M406 715h10l-91 -515q-20 -110 -57 -162t-119 -52q-76 0 -110.5 42t-34.5 111q0 16 2 34h10q-2 -16 -2 -34q0 -64 32 -103.5t103 -39.5q76 0 111.5 48.5t54.5 156.5z" />
    <glyph glyph-name="K" unicode="K" horiz-adv-x="556" 
d="M55 0l127 715h10l-59 -333l459 333h16l-465 -337l347 -378h-13l-345 375l-67 -375h-10z" />
    <glyph glyph-name="L" unicode="L" horiz-adv-x="538" 
d="M182 715h10l-125 -705h400l-2 -10h-410z" />
    <glyph glyph-name="M" unicode="M" horiz-adv-x="759" 
d="M324 0h-12l-84 480q-8 45 -17 95t-14 79t-8 50h-1q-16 -114 -52 -303l-71 -401h-10l127 715h14l76 -428q13 -68 48 -276h1q23 45 159 293l228 411h14l-127 -715h-10l66 372q22 140 60 331h-1q-9 -19 -179 -326z" />
    <glyph glyph-name="N" unicode="N" horiz-adv-x="700" 
d="M182 715h13l209 -438q17 -36 66 -138.5t59 -125.5h1q7 58 47 273l76 429h10l-127 -715h-10l-206 431q-30 63 -74 154.5t-56 118.5h-1q-8 -72 -60 -343l-64 -361h-10z" />
    <glyph glyph-name="O" unicode="O" horiz-adv-x="808" 
d="M435 729q148 0 236.5 -88t88.5 -235q0 -182 -101.5 -301t-274.5 -119q-142 0 -230 87t-88 245q0 172 99.5 291.5t269.5 119.5zM435 719q-85 0 -154.5 -34t-113.5 -90.5t-67.5 -127.5t-23.5 -149q0 -148 84.5 -235t223.5 -87q117 0 202 58.5t124.5 149.5t39.5 202
q0 141 -84 227t-231 86z" />
    <glyph glyph-name="P" unicode="P" horiz-adv-x="586" 
d="M55 0l127 715h131q42 0 75.5 -3t70.5 -14t62 -28.5t41.5 -49.5t16.5 -75q0 -238 -298 -238h-162l-54 -307h-10zM190 705l-69 -388h160q288 0 288 228q0 50 -22 84t-62 49.5t-79.5 21t-92.5 5.5h-123z" />
    <glyph glyph-name="Q" unicode="Q" horiz-adv-x="808" 
d="M435 729q148 0 236.5 -88t88.5 -235q0 -121 -46.5 -217t-132.5 -150l74 -89h-13l-70 83q-80 -47 -188 -47q-142 0 -230 87t-88 245q0 172 99.5 291.5t269.5 119.5zM416 220h13l145 -174q85 53 130.5 149t45.5 211q0 141 -84 227t-231 86q-85 0 -154.5 -34t-113.5 -90.5
t-67.5 -127.5t-23.5 -149q0 -148 84.5 -235t223.5 -87q102 0 181 45z" />
    <glyph glyph-name="R" unicode="R" horiz-adv-x="598" 
d="M55 0l127 715h176q46 0 84.5 -8.5t72 -26.5t52.5 -52.5t19 -81.5q0 -102 -67 -160t-172 -64l137 -322h-11l-136 321h-215l-57 -321h-10zM191 705l-67 -374h192q47 0 90 10.5t82.5 34t63 67.5t23.5 103q0 83 -58.5 121t-158.5 38h-167z" />
    <glyph glyph-name="S" unicode="S" horiz-adv-x="604" 
d="M30 203h10q5 -100 67.5 -153.5t176.5 -53.5q104 0 169.5 48.5t65.5 136.5q0 33 -12.5 59t-45 48.5t-48.5 30.5t-63 29q-11 5 -17 8l-42 19q-97 44 -137.5 80.5t-40.5 103.5q0 78 56.5 124t162.5 46q113 0 176.5 -52t64.5 -147h-10q-2 87 -61 138t-170 51
q-97 0 -153 -41.5t-56 -118.5q0 -64 40.5 -100t130.5 -75l55 -24q47 -21 74 -36t54.5 -36.5t39.5 -47.5t12 -59q0 -91 -67.5 -143t-177.5 -52q-112 0 -181 55t-73 162z" />
    <glyph glyph-name="T" unicode="T" horiz-adv-x="528" 
d="M202 0l125 705h-238l2 10h485l-2 -10h-237l-125 -705h-10z" />
    <glyph glyph-name="U" unicode="U" horiz-adv-x="669" 
d="M285 -4q123 0 181 62t82 191l82 466h10l-82 -466q-24 -140 -88.5 -201.5t-184.5 -61.5q-104 0 -153.5 42t-49.5 134q0 39 9 87l82 466h10l-82 -466q-9 -47 -9 -86q0 -84 45.5 -125.5t147.5 -41.5z" />
    <glyph glyph-name="V" unicode="V" horiz-adv-x="633" 
d="M448 343l211 372h10l-404 -715h-8l-156 715h10l80 -369q38 -179 48 -223l24 -109h1q7 13 77 138t107 191z" />
    <glyph glyph-name="W" unicode="W" horiz-adv-x="749" 
d="M770 715l-286 -715h-9l-17 383q-11 245 -14 314h-2q-68 -170 -130 -320l-156 -377h-10l-29 715h10l17 -449q1 -28 3.5 -78.5t4 -92.5t1.5 -79h1q29 73 102 249l185 450h11l20 -443q9 -193 10 -253h1l102 258l175 438h10z" />
    <glyph glyph-name="X" unicode="X" horiz-adv-x="578" 
d="M618 715l-313 -349l202 -366h-11l-197 359l-321 -359h-12l329 367l-192 348h11l187 -341l305 341h12z" />
    <glyph glyph-name="Y" unicode="Y" horiz-adv-x="596" 
d="M232 0l48 272l-181 443h10l177 -433q70 88 189.5 242t148.5 191h12l-346 -443l-48 -272h-10z" />
    <glyph glyph-name="Z" unicode="Z" horiz-adv-x="561" 
d="M-26 0l2 7q12 12 39 42.5t60.5 69t48.5 55.5l340 385l128 146h-492l2 10h506l-2 -7q-4 -4 -144 -165l-323 -366q-101 -110 -149 -167h483l-2 -10h-497z" />
    <glyph glyph-name="bracketleft" unicode="[" horiz-adv-x="263" 
d="M157 -103l-1 -10h-124l146 828h123l-2 -10h-113l-142 -808h113z" />
    <glyph glyph-name="backslash" unicode="\" horiz-adv-x="426" 
d="M116 715l202 -820h-10l-202 820h10z" />
    <glyph glyph-name="bracketright" unicode="]" horiz-adv-x="263" 
d="M104 705l1 10h124l-146 -828h-123l2 10h113l142 808h-113z" />
    <glyph glyph-name="asciicircum" unicode="^" 
d="M280 684h8l218 -396h-11l-210 384h-1l-216 -384h-11z" />
    <glyph glyph-name="underscore" unicode="_" horiz-adv-x="627" 
d="M-1 -125l1 10h476l-1 -10h-476z" />
    <glyph glyph-name="grave" unicode="`" horiz-adv-x="429" 
d="M267 596l-133 119h15l131 -119h-13z" />
    <glyph glyph-name="a" unicode="a" horiz-adv-x="538" 
d="M91 368h-10q13 75 65.5 123t142.5 48q83 0 128.5 -39.5t45.5 -118.5q0 -33 -7 -73q-4 -25 -14 -76t-22 -123q-11 -66 -9 -109h-10q0 83 21 165h-1q-23 -76 -85.5 -126t-152.5 -50q-161 0 -161 131q0 35 15.5 62t36.5 42.5t59.5 27t66 16.5t73.5 11q77 11 171 17
q9 46 9 85q0 148 -164 148q-85 0 -134 -44t-64 -117zM434 243q7 37 8 43q-113 -8 -180 -18q-35 -5 -47 -7t-43.5 -9t-45 -12.5t-36 -17.5t-32.5 -25t-18 -33t-8 -44q0 -56 38 -88.5t113 -32.5q94 0 162 60.5t89 183.5z" />
    <glyph glyph-name="b" unicode="b" horiz-adv-x="601" 
d="M283 -4q110 0 179 87t69 218q0 101 -52 164.5t-148 63.5q-61 0 -109 -27.5t-75.5 -74t-41.5 -100.5t-14 -112q0 -100 47.5 -159.5t144.5 -59.5zM46 0h-10l126 715h10l-37 -206q-21 -117 -25 -138q25 74 80 121t141 47q95 0 152.5 -62t57.5 -175q0 -136 -72.5 -226
t-185.5 -90q-106 0 -155.5 66t-45.5 162q-12 -87 -30 -183z" />
    <glyph glyph-name="c" unicode="c" horiz-adv-x="588" 
d="M512 167h10q-32 -83 -93 -131.5t-151 -48.5q-106 0 -169.5 63.5t-63.5 177.5q0 130 73.5 220.5t195.5 90.5q96 0 153.5 -51t70.5 -135h-10q-15 80 -68.5 128t-144.5 48q-119 0 -189 -86.5t-70 -214.5q0 -108 59 -169.5t163 -61.5q163 0 234 170z" />
    <glyph glyph-name="d" unicode="d" horiz-adv-x="602" 
d="M302 529q-109 0 -178 -87t-69 -218q0 -101 52 -164.5t148 -63.5q61 0 109 27.5t75.5 74t41.5 100.5t14 112q0 99 -48 159t-145 60zM458 0h-10l3 16q21 117 25 138q-25 -74 -80 -121t-141 -47q-95 0 -152.5 62t-57.5 175q0 136 71.5 226t185.5 90q106 0 155.5 -66
t46.5 -162q14 94 30 183l40 221h10z" />
    <glyph glyph-name="e" unicode="e" horiz-adv-x="591" 
d="M539 280l-481 1q-3 -13 -3 -51q0 -109 58 -171t163 -62q160 0 231 153h10q-71 -163 -241 -163q-109 0 -170 62.5t-61 180.5q0 126 74 217.5t197 91.5q109 0 166 -65t57 -178v-16zM316 529q-106 0 -171 -67.5t-85 -170.5h468v9q0 106 -53 167.5t-159 61.5z" />
    <glyph glyph-name="f" unicode="f" horiz-adv-x="223" 
d="M280 715l-1 -10q-14 2 -24 2q-42 0 -62.5 -21.5t-32.5 -82.5l-14 -78h101l-2 -10h-101l-91 -515h-10l91 515h-69l2 10h69l12 67q11 66 33 95.5t74 29.5q11 0 25 -2z" />
    <glyph glyph-name="g" unicode="g" horiz-adv-x="590" 
d="M228 -179q100 0 149.5 58t73.5 197l17 94h-1q-24 -58 -76.5 -100.5t-129.5 -42.5q-99 0 -154.5 61.5t-55.5 169.5q0 116 66 198.5t180 82.5q98 0 150.5 -65.5t49.5 -144.5l9 55q14 84 15 91l9 50h10l-77 -434q-10 -56 -19.5 -93t-27 -75.5t-41.5 -61t-61 -36.5t-86 -14
q-95 0 -150.5 49.5t-59.5 122.5h10q4 -69 55.5 -115.5t144.5 -46.5zM261 37q104 0 166 81.5t62 202.5q0 93 -53 150.5t-139 57.5q-110 0 -173 -78.5t-63 -193.5q0 -106 54 -163t146 -57z" />
    <glyph glyph-name="h" unicode="h" horiz-adv-x="568" 
d="M35 0l128 715h10l-38 -213q-8 -47 -17 -86q-1 -6 -4.5 -24.5t-5.5 -29.5q10 32 26.5 60.5t42 56t64 44t84.5 16.5q79 0 123.5 -38.5t44.5 -112.5q0 -38 -11 -101l-51 -287h-10l51 289q11 63 11 100q0 65 -40 102.5t-118 37.5q-52 0 -94.5 -22t-68.5 -59t-42 -77t-24 -85
l-51 -286h-10z" />
    <glyph glyph-name="i" unicode="i" horiz-adv-x="189" 
d="M128 525h10l-93 -525h-10zM152 604h-10l20 111h10z" />
    <glyph glyph-name="j" unicode="j" horiz-adv-x="189" 
d="M-95 -196l2 10q3 -1 17 -1q43 0 65 24.5t33 85.5l106 602h10l-106 -602q-10 -64 -34 -92t-74 -28q-16 0 -19 1zM152 604h-10l20 111h10z" />
    <glyph glyph-name="k" unicode="k" horiz-adv-x="435" 
d="M365 0h-14l-256 283l-50 -283h-10l127 715h10l-76 -427l329 237h18l-337 -240z" />
    <glyph glyph-name="l" unicode="l" horiz-adv-x="199" 
d="M167 715h10l-127 -715h-10z" />
    <glyph glyph-name="m" unicode="m" horiz-adv-x="933" 
d="M36 0l78 445l15 80h11l-31 -163q23 72 74.5 124.5t137.5 52.5q81 0 121 -39.5t40 -110.5q0 -24 -4 -41h1q21 80 75 135.5t142 55.5q78 0 120 -38.5t42 -112.5q0 -38 -11 -101l-51 -287h-10l51 289q11 63 11 100q0 66 -37.5 103t-114.5 37q-52 0 -93.5 -22t-67 -59.5
t-40.5 -77t-23 -84.5l-51 -286h-10l51 289q11 63 11 100q0 66 -37.5 103t-114.5 37q-52 0 -93.5 -22t-67 -59.5t-40.5 -77t-23 -84.5l-51 -286h-10z" />
    <glyph glyph-name="n" unicode="n" horiz-adv-x="569" 
d="M36 0l78 445l15 80h11l-31 -163q10 32 26.5 60.5t42 56t64 44t84.5 16.5q79 0 123.5 -38.5t44.5 -112.5q0 -38 -11 -101l-51 -287h-10l51 289q11 63 11 100q0 65 -40 102.5t-118 37.5q-52 0 -94.5 -22t-68.5 -59t-42 -77t-24 -85l-51 -286h-10z" />
    <glyph glyph-name="o" unicode="o" horiz-adv-x="619" 
d="M279 -3q126 0 197.5 85.5t71.5 217.5q0 103 -59 166t-166 63q-127 0 -198 -88.5t-71 -216.5q0 -107 60 -167t165 -60zM279 -13q-112 0 -173.5 62.5t-61.5 174.5q0 133 74.5 224t204.5 91q111 0 173.5 -65t62.5 -174q0 -136 -75.5 -224.5t-204.5 -88.5z" />
    <glyph glyph-name="p" unicode="p" horiz-adv-x="601" 
d="M283 -4q110 0 179 87t69 218q0 101 -52 164.5t-148 63.5q-61 0 -109 -27.5t-75.5 -74t-41.5 -100.5t-14 -112q0 -100 47.5 -159.5t144.5 -59.5zM128 525h10l-3 -16q-21 -117 -25 -138q25 74 80 121t141 47q95 0 152.5 -62t57.5 -175q0 -136 -72.5 -226t-185.5 -90
q-106 0 -155.5 66t-45.5 162q-12 -87 -30 -183l-38 -211h-10z" />
    <glyph glyph-name="q" unicode="q" horiz-adv-x="601" 
d="M302 529q-109 0 -178 -87t-69 -218q0 -101 52 -164.5t148 -63.5q61 0 109 27.5t75.5 74t41.5 100.5t14 112q0 99 -48 159t-145 60zM540 525h10l-124 -705h-10l35 196q21 117 25 138q-25 -74 -80 -121t-141 -47q-95 0 -152.5 62t-57.5 175q0 136 71.5 226t185.5 90
q106 0 155.5 -66t46.5 -162q14 94 30 183z" />
    <glyph glyph-name="r" unicode="r" horiz-adv-x="261" 
d="M105 347h1q16 79 59 134t104 55q11 0 18 -1l-2 -10q-7 1 -16 1q-128 0 -177 -260l-47 -266h-10l79 446l14 79h10l-12 -70q-10 -43 -21 -108z" />
    <glyph glyph-name="s" unicode="s" horiz-adv-x="500" 
d="M18 159h10q11 -162 192 -162q89 0 138.5 37t49.5 101q0 25 -9.5 43.5t-31 33t-39 23t-50.5 21.5l-52 20q-78 29 -110 56t-32 78q0 58 48 93.5t129 35.5q89 0 140 -40t52 -112h-10q-2 67 -48.5 104.5t-133.5 37.5q-80 0 -123.5 -33t-43.5 -86q0 -45 27.5 -70t107.5 -56
l53 -20q37 -14 54 -22.5t40 -24t32.5 -35.5t9.5 -47q0 -69 -53.5 -108.5t-144.5 -39.5q-95 0 -146 44.5t-56 127.5z" />
    <glyph glyph-name="t" unicode="t" horiz-adv-x="229" 
d="M158 5l-2 -10q-6 -2 -20 -2q-75 0 -75 74q0 17 6 51l71 397h-70l1 10h71l25 142h10l-25 -142h92l-1 -10h-93l-72 -398q-5 -32 -5 -50q0 -64 65 -64q14 0 22 2z" />
    <glyph glyph-name="u" unicode="u" horiz-adv-x="562" 
d="M511 525l-78 -445l-15 -80h-11l31 163q-10 -32 -25.5 -60.5t-40.5 -56t-63 -44t-84 -16.5q-78 0 -122 38.5t-44 111.5q0 39 11 102l51 287h10l-51 -289q-11 -63 -11 -100q0 -65 39 -102.5t117 -37.5q52 0 93.5 22t67 59.5t41 77t23.5 84.5l51 286h10z" />
    <glyph glyph-name="v" unicode="v" horiz-adv-x="475" 
d="M186 0h-12l-103 525h10l59 -300q5 -28 19.5 -100.5t21.5 -112.5h2q30 58 122 223l160 290h11z" />
    <glyph glyph-name="w" unicode="w" horiz-adv-x="748" 
d="M407 525h14l28 -284q11 -100 21 -228h2q32 62 38 74q31 64 68 134l159 304h11q-27 -50 -169 -322l-105 -203h-11l-50 515h-2l-243 -515h-11l-82 525h10l48 -302q4 -21 10 -68t9 -68q3 -25 11 -75h2q47 105 107 233z" />
    <glyph glyph-name="x" unicode="x" horiz-adv-x="468" 
d="M466 525h13l-247 -265l151 -260h-11l-147 253l-236 -253h-13l244 261l-153 264h12l148 -257z" />
    <glyph glyph-name="y" unicode="y" horiz-adv-x="486" 
d="M91 -180h-11l102 180l-113 525h11l63 -299q5 -26 21.5 -99t23.5 -113h2q21 40 69 124t55 97l162 290h11q-86 -160 -396 -705z" />
    <glyph glyph-name="z" unicode="z" horiz-adv-x="479" 
d="M-20 0l2 8l324 339q124 126 161 168h-396l2 10h412l-2 -8l-314 -328q-16 -16 -88.5 -91.5t-84.5 -87.5h395l-2 -10h-409z" />
    <glyph glyph-name="braceleft" unicode="{" horiz-adv-x="253" 
d="M41 300l2 9q44 9 63 30.5t31 80.5l38 219q8 47 28 62t61 15q4 0 8.5 -0.5t6.5 -0.5h7l-1 -9q-8 1 -21 1q-41 0 -57 -13.5t-22 -54.5l-38 -219q-10 -57 -27.5 -81.5t-62.5 -34.5v-1q30 -9 42 -25t12 -43q0 -16 -7 -56l-37 -211q-4 -25 -4 -34q0 -21 13 -30t45 -9
q13 0 21 1l-1 -9q-2 -1 -6 -1h-14q-36 0 -52 10t-16 38q0 14 4 34l37 211q7 40 7 56q0 27 -13.5 41t-46.5 24z" />
    <glyph glyph-name="bar" unicode="|" horiz-adv-x="223" 
d="M182 731h10l-141 -794h-10z" />
    <glyph glyph-name="braceright" unicode="}" horiz-adv-x="252" 
d="M210 302l-2 -9q-45 -10 -64 -30.5t-30 -80.5l-38 -219q-9 -47 -28.5 -62t-60.5 -15h-16q-5 0 -6 1l1 9q8 -1 21 -1q41 0 57 13.5t22 54.5l38 219q9 56 27.5 81.5t62.5 34.5v1q-30 9 -42 25t-12 43q0 16 7 56l37 211q3 20 3 32q0 23 -12.5 32t-44.5 9q-13 0 -21 -1l1 9h5
q1 0 6 0.5t9 0.5q36 0 51.5 -10.5t15.5 -39.5q0 -12 -3 -32l-37 -211q-7 -40 -7 -56q0 -27 13.5 -41t46.5 -24z" />
    <glyph glyph-name="asciitilde" unicode="~" 
d="M295 275l-64 30q-52 24 -80 24q-25 0 -46 -13t-30.5 -24.5t-26.5 -35.5l-8 4q46 79 111 79q38 0 96 -30l67 -32q46 -24 84 -24q36 0 61 20t49 57l8 -4q-50 -83 -118 -83q-35 0 -103 32z" />
    <glyph glyph-name="uni00A0" unicode="&#xa0;" horiz-adv-x="288" 
 />
    <glyph glyph-name="exclamdown" unicode="&#xa1;" horiz-adv-x="208" 
d="M105 337h8q-20 -132 -81 -464l-12 -69h-10l12 69q12 67 41 231.5t42 232.5zM148 525l-20 -112h-11l21 112h10z" />
    <glyph glyph-name="cent" unicode="&#xa2;" 
d="M497 167h10q-32 -83 -93 -131.5t-151 -48.5q-8 0 -30 2l-12 -71h-10l12 72q-90 12 -141.5 73t-51.5 165q0 130 73.5 220.5t195.5 90.5q3 0 11 -0.5t11 -0.5l15 84h10l-16 -85q82 -9 131.5 -58t61.5 -126h-10q-13 73 -59.5 120t-124.5 55l-94 -530q18 -2 28 -2
q163 0 234 171zM41 228q0 -98 48.5 -158t135.5 -71l94 530q-7 1 -19 1q-119 0 -189 -87t-70 -215z" />
    <glyph glyph-name="sterling" unicode="&#xa3;" 
d="M434 10l-1 -10h-415l2 7q71 12 116.5 78t45.5 149q0 26 -4 55.5t-9.5 53.5t-5.5 26h-101l2 10h96q-17 79 -17 129q0 94 55 157.5t160 63.5q90 0 140 -49t50 -139h-10q-2 83 -46.5 130.5t-133.5 47.5q-101 0 -153 -60.5t-52 -150.5q0 -66 17 -129h206l-2 -10h-201
q19 -101 19 -135q0 -70 -35.5 -135.5t-102.5 -89.5q17 1 108 1h272z" />
    <glyph glyph-name="currency" unicode="&#xa4;" 
d="M506 137l-46 46q-71 -69 -170 -69q-100 0 -171 69l-47 -47l-7 7l47 47q-67 72 -67 169q0 99 69 170l-49 49l7 7l49 -49q70 68 169 68q96 0 168 -67l48 47l7 -7l-48 -47q70 -72 70 -171t-68 -169l46 -46zM55 359q0 -97 68.5 -166t166.5 -69t166.5 69t68.5 166t-68.5 166
t-166.5 69t-166.5 -69t-68.5 -166z" />
    <glyph glyph-name="yen" unicode="&#xa5;" 
d="M21 262l1 10h237l-67 163h-141l2 10h135l-110 270h10l177 -433q70 88 189.5 242t148.5 191h12l-211 -270h153l-2 -10h-159l-127 -163h257l-1 -10h-258l-46 -262h-10l46 262h-236z" />
    <glyph glyph-name="brokenbar" unicode="&#xa6;" horiz-adv-x="175" 
d="M104 428l53 303h10l-53 -303h-10zM18 -62l53 303h10l-53 -303h-10z" />
    <glyph glyph-name="section" unicode="&#xa7;" 
d="M305 460l46 -21q70 -31 102.5 -60.5t32.5 -77.5q0 -65 -49.5 -103.5t-111.5 -48.5q1 -1 16 -9.5t19.5 -12t17 -12.5t17.5 -16l12.5 -17.5t10.5 -22.5t3 -26q0 -70 -55.5 -108t-143.5 -38q-85 0 -139 42t-60 130h10q4 -72 49.5 -117t139.5 -45q91 0 140 37t49 99
q0 30 -20 55t-43.5 39t-69.5 37l-55 28q-77 40 -106 68.5t-29 80.5q0 57 44 93t120 41q-50 25 -75 51t-25 71q0 60 47.5 94t131.5 34q91 0 142 -40t51 -112h-10q-2 64 -45.5 103t-137.5 39q-84 0 -126.5 -32.5t-42.5 -85.5q0 -47 33 -75.5t110 -61.5zM225 201l90 -46
q64 10 112.5 47t48.5 98q0 26 -10 46.5t-32 36.5t-37.5 24.5t-45.5 21.5l-85 39q-79 -5 -123.5 -38t-44.5 -89q0 -48 27.5 -75.5t99.5 -64.5z" />
    <glyph glyph-name="dieresis" unicode="&#xa8;" horiz-adv-x="491" 
d="M209 616l15 80h10l-15 -80h-10zM322 616l15 80h10l-15 -80h-10z" />
    <glyph glyph-name="copyright" unicode="&#xa9;" horiz-adv-x="878" 
d="M638 275h10q-54 -139 -197 -139q-93 0 -151 61.5t-58 160.5q0 98 59 160t151 62q158 0 193 -144h-10q-13 58 -59 96t-124 38q-91 0 -145.5 -60.5t-54.5 -150.5t54 -151.5t145 -61.5q130 0 187 129zM825 360q0 -158 -110 -267.5t-268 -109.5q-156 0 -265.5 110t-109.5 267
t109.5 266.5t267.5 109.5q156 0 266 -110t110 -266zM815 360q0 151 -107 258.5t-259 107.5q-155 0 -261 -107t-106 -259t105 -259.5t261 -107.5q153 0 260 107.5t107 259.5z" />
    <glyph glyph-name="ordfeminine" unicode="&#xaa;" horiz-adv-x="450" 
d="M134 455h-10q11 57 49.5 93t106.5 36q132 0 132 -118q0 -27 -5 -55l-7 -38q-7 -33 -20 -111q-9 -49 -7 -82h-10q0 48 12 110q-20 -53 -65 -85.5t-108 -32.5q-122 0 -122 98q0 22 7 39.5t23 29.5t30.5 20.5t40.5 14.5t42 9t45 7q60 7 116 12q3 0 6.5 0.5t5.5 0.5
q6 37 6 63q0 109 -122 109q-63 0 -99.5 -33t-46.5 -87zM388 362l3 17l3 14q-96 -6 -135 -13q-92 -16 -122 -32q-47 -26 -47 -78q0 -41 27.5 -65t84.5 -24q68 0 119.5 45.5t66.5 135.5z" />
    <glyph glyph-name="guillemotleft" unicode="&#xab;" horiz-adv-x="434" 
d="M391 473l-142 -187l75 -188h-10l-76 188l143 187h10zM215 473l-142 -187l75 -188h-10l-76 188l143 187h10z" />
    <glyph glyph-name="logicalnot" unicode="&#xac;" 
d="M37 437v10h503v-310h-10v300h-493z" />
    <glyph glyph-name="uni00AD" unicode="&#xad;" horiz-adv-x="413" 
d="M88 361l2 10h272l-2 -10h-272z" />
    <glyph glyph-name="registered" unicode="&#xae;" horiz-adv-x="586" 
d="M261 366v264h68q93 0 93 -70q0 -33 -19.5 -53.5t-52.5 -23.5l70 -117h-9l-69 116h-74v-116h-7zM268 622v-132h63q83 0 83 69q0 63 -85 63h-61zM559 500q0 -98 -68.5 -166t-165.5 -68q-96 0 -164.5 68.5t-68.5 165.5t68 165t166 68q96 0 164.5 -68.5t68.5 -164.5zM550 500
q0 92 -65.5 158.5t-158.5 66.5q-97 0 -161.5 -66t-64.5 -159t64.5 -159t160.5 -66q95 0 160 66t65 159z" />
    <glyph glyph-name="macron" unicode="&#xaf;" horiz-adv-x="428" 
d="M96 652l1 10h244l-1 -10h-244z" />
    <glyph glyph-name="degree" unicode="&#xb0;" horiz-adv-x="452" 
d="M269 400q-70 0 -118.5 47.5t-48.5 116.5q0 70 48.5 117.5t118.5 47.5t118 -47.5t48 -117.5t-47.5 -117t-118.5 -47zM112 564q0 -64 45.5 -109.5t111.5 -45.5q68 0 112 44.5t44 110.5q0 64 -45.5 110t-110.5 46q-67 0 -112 -45.5t-45 -110.5z" />
    <glyph glyph-name="plusminus" unicode="&#xb1;" 
d="M46 0v10h442v-10h-442zM488 326h-217v-213h-10v213h-218v10h218v214h10v-214h217v-10z" />
    <glyph glyph-name="twosuperior" unicode="&#xb2;" horiz-adv-x="432" 
d="M350 279h-278v6q46 32 170 131q83 67 106 94q41 48 41 102q0 98 -114 98q-115 0 -134 -126h-10q9 62 45 99t99 37q59 0 91.5 -27.5t32.5 -80.5q0 -26 -10.5 -51.5t-21.5 -42.5t-39.5 -43t-41 -36t-50.5 -39q-130 -101 -146 -111h261z" />
    <glyph glyph-name="threesuperior" unicode="&#xb3;" horiz-adv-x="406" 
d="M79 409h10q5 -119 126 -119q67 0 100.5 34.5t33.5 88.5q0 47 -34.5 75t-83.5 28h-21l2 9q66 3 110 29.5t44 80.5q0 37 -27 59.5t-77 22.5q-53 0 -84.5 -27.5t-37.5 -74.5h-10q9 51 42 81.5t90 30.5q55 0 84.5 -24.5t29.5 -67.5q0 -49 -35.5 -77.5t-88.5 -35.5
q45 -7 76 -34.5t31 -74.5q0 -62 -39.5 -97.5t-104.5 -35.5q-64 0 -99.5 33t-36.5 96z" />
    <glyph glyph-name="acute" unicode="&#xb4;" horiz-adv-x="427" 
d="M334 715l-133 -119h-13l131 119h15z" />
    <glyph glyph-name="mu" unicode="&#xb5;" horiz-adv-x="569" 
d="M13 -180h-10l125 705h10l-59 -335q-5 -32 -5 -50q0 -66 36 -105t109 -39q94 0 156.5 68.5t79.5 163.5l53 297h10l-79 -445q-6 -31 -13 -80h-11l7 37q5 21 14.5 77.5t10.5 61.5q-17 -70 -76 -130t-153 -60q-75 0 -114 41t-37 117l-4 -31q-1 -8 -3.5 -26.5t-4.5 -26.5z" />
    <glyph glyph-name="paragraph" unicode="&#xb6;" horiz-adv-x="405" 
d="M79 -113h-10l119 679q-72 5 -72 72q0 77 96 77h212l-1 -10h-69l-144 -818h-10l144 818h-121zM126 638q0 -27 16.5 -44t46.5 -19l23 130h-3q-83 0 -83 -67z" />
    <glyph glyph-name="periodcentered" unicode="&#xb7;" horiz-adv-x="167" 
d="M70 261l19 111h10l-19 -111h-10z" />
    <glyph glyph-name="cedilla" unicode="&#xb8;" horiz-adv-x="369" 
d="M177 -163l78 115h11l-77 -115h-12z" />
    <glyph glyph-name="onesuperior" unicode="&#xb9;" horiz-adv-x="245" 
d="M207 631h-113l2 9h57q12 0 20 0.5t14.5 1t10.5 4.5t7 5.5t5 10t3.5 12.5t4.5 18.5t5 22.5h9l-75 -424h-10z" />
    <glyph glyph-name="ordmasculine" unicode="&#xba;" horiz-adv-x="503" 
d="M268 179q93 0 146 64t53 162q0 76 -44 122.5t-123 46.5q-94 0 -147 -65.5t-53 -160.5q0 -79 45 -124t123 -45zM268 170q-85 0 -131.5 47t-46.5 131q0 100 56.5 168t153.5 68q84 0 131 -48.5t47 -130.5q0 -102 -57 -168.5t-153 -66.5z" />
    <glyph glyph-name="guillemotright" unicode="&#xbb;" horiz-adv-x="435" 
d="M36 98l142 187l-75 188h10l76 -188l-143 -187h-10zM212 98l142 187l-75 188h10l76 -188l-143 -187h-10z" />
    <glyph glyph-name="onequarter" unicode="&#xbc;" horiz-adv-x="737" 
d="M557 110h-208l1 8q44 50 145.5 173.5t117.5 142.5h11l-56 -314h98l-1 -10h-98l-20 -110h-10zM558 120l23 127q2 18 15 87t17 86h-1l-99 -120l-53 -64q-27 -30 -62 -74q-12 -14 -34 -42h194zM134 0l402 715h11l-402 -715h-11zM207 631h-113l2 9h57q12 0 20 0.5t14.5 1
t10.5 4.5t7 5.5t5 10t3.5 12.5t4.5 18.5t5 22.5h9l-75 -424h-10z" />
    <glyph glyph-name="onehalf" unicode="&#xbd;" horiz-adv-x="787" 
d="M687 0h-278v6q46 32 170 131q83 67 106 94q41 48 41 102q0 98 -114 98q-115 0 -134 -126h-10q9 62 45 99t99 37q59 0 91.5 -27.5t32.5 -80.5q0 -26 -10.5 -51.5t-21.5 -42.5t-39.5 -43t-41 -36t-50.5 -39q-130 -101 -146 -111h261zM133 0l402 715h11l-402 -715h-11z
M206 631h-113l2 9h57q12 0 20 0.5t14.5 1t10.5 4.5t7 5.5t5 10t3.5 12.5t4.5 18.5t5 22.5h9l-75 -424h-10z" />
    <glyph glyph-name="threequarters" unicode="&#xbe;" horiz-adv-x="853" 
d="M68 409h10q5 -119 126 -119q67 0 100.5 34.5t33.5 88.5q0 47 -34.5 75t-83.5 28h-21l2 9q66 3 110 29.5t44 80.5q0 37 -27 59.5t-77 22.5q-53 0 -84.5 -27.5t-37.5 -74.5h-10q9 51 42 81.5t90 30.5q55 0 84.5 -24.5t29.5 -67.5q0 -49 -35.5 -77.5t-88.5 -35.5
q45 -7 76 -34.5t31 -74.5q0 -62 -39.5 -97.5t-104.5 -35.5q-64 0 -99.5 33t-36.5 96zM673 110h-208l1 8q44 50 145.5 173.5t117.5 142.5h11l-56 -314h98l-1 -10h-98l-20 -110h-10zM674 120l23 127q2 18 15 87t17 86h-1l-99 -120l-53 -64q-27 -30 -62 -74q-12 -14 -34 -42
h194zM250 0l402 715h11l-402 -715h-11z" />
    <glyph glyph-name="questiondown" unicode="&#xbf;" horiz-adv-x="479" 
d="M238 324h10q-9 -60 -30.5 -91t-82.5 -79l-30 -24q-32 -26 -45 -38t-35.5 -36.5t-31.5 -51t-9 -57.5q0 -60 43 -100.5t135 -40.5q102 0 157 61t59 147h10q-2 -91 -63.5 -154.5t-162.5 -63.5q-88 0 -138 39.5t-50 111.5q0 33 9 60t33 54t38 39t52 43l17 13q62 47 84.5 79.5
t30.5 88.5zM281 525l-20 -111h-10l20 111h10z" />
    <glyph glyph-name="Agrave" unicode="&#xc0;" horiz-adv-x="636" 
d="M391 715h9l150 -715h-10l-58 281h-329l-159 -281h-11zM394 700h-1q-23 -39 -67 -117q-48 -83 -122 -214l-45 -78h321l-17 79q-53 248 -69 330zM437 761l-128 116h15l126 -116h-13z" />
    <glyph glyph-name="Aacute" unicode="&#xc1;" horiz-adv-x="636" 
d="M391 715h9l150 -715h-10l-58 281h-329l-159 -281h-11zM394 700h-1q-23 -39 -67 -117q-48 -83 -122 -214l-45 -78h321l-17 79q-53 248 -69 330zM504 877l-128 -116h-13l126 116h15z" />
    <glyph glyph-name="Acircumflex" unicode="&#xc2;" horiz-adv-x="636" 
d="M391 715h9l150 -715h-10l-58 281h-329l-159 -281h-11zM394 700h-1q-23 -39 -67 -117q-48 -83 -122 -214l-45 -78h321l-17 79q-53 248 -69 330zM412 875h10q12 -18 40 -58t39 -57h-11l-74 106l-112 -106h-13q54 50 121 115z" />
    <glyph glyph-name="Atilde" unicode="&#xc3;" horiz-adv-x="636" 
d="M391 715h9l150 -715h-10l-58 281h-329l-159 -281h-11zM394 700h-1q-23 -39 -67 -117q-48 -83 -122 -214l-45 -78h321l-17 79q-53 248 -69 330zM418 798l-51 25q-28 13 -44 13q-37 0 -50 -59h-10q14 69 60 69q22 0 53 -17l47 -23q32 -15 47 -15q40 0 52 61h10
q-13 -71 -62 -71q-16 0 -52 17z" />
    <glyph glyph-name="Adieresis" unicode="&#xc4;" horiz-adv-x="636" 
d="M391 715h9l150 -715h-10l-58 281h-329l-159 -281h-11zM394 700h-1q-23 -39 -67 -117q-48 -83 -122 -214l-45 -78h321l-17 79q-53 248 -69 330zM337 766l15 80h10l-15 -80h-10zM450 766l15 80h10l-15 -80h-10z" />
    <glyph glyph-name="Aring" unicode="&#xc5;" horiz-adv-x="636" 
d="M391 715h9l150 -715h-10l-58 281h-329l-159 -281h-11zM394 700h-1q-23 -39 -67 -117q-48 -83 -122 -214l-45 -78h321l-17 79q-53 248 -69 330zM406 759q-32 0 -54 22.5t-22 55.5q0 32 22 54t54 22t55 -22t23 -54q0 -33 -22.5 -55.5t-55.5 -22.5zM339 837q0 -29 19 -49
t48 -20t49 19.5t20 49.5q0 28 -20 47.5t-49 19.5t-48 -19.5t-19 -47.5z" />
    <glyph glyph-name="AE" unicode="&#xc6;" horiz-adv-x="866" 
d="M874 715l-2 -10h-400l-53 -332h370l-2 -10h-370l-57 -353h396l-2 -10h-405l42 260h-246l-185 -260h-12l512 715h414zM392 270l30 184q21 137 41 251h-1q-4 -5 -29 -42t-53.5 -77.5t-52.5 -72.5l-175 -243h240z" />
    <glyph glyph-name="Ccedilla" unicode="&#xc7;" horiz-adv-x="770" 
d="M705 207h10q-43 -104 -127.5 -162.5t-204.5 -58.5q-142 0 -229.5 87t-87.5 245q0 172 99 291.5t269 119.5q122 0 201 -60.5t106 -167.5h-10q-25 102 -101 160t-196 58q-113 0 -196 -58.5t-122.5 -148t-39.5 -194.5q0 -149 84 -235.5t223 -86.5q118 0 198.5 56.5
t123.5 154.5zM293 -163l78 115h11l-77 -115h-12z" />
    <glyph glyph-name="Egrave" unicode="&#xc8;" horiz-adv-x="605" 
d="M55 0l127 715h431l-2 -10h-421l-59 -332h397l-2 -10h-397l-62 -353h428l-2 -10h-438zM423 761l-128 116h15l126 -116h-13z" />
    <glyph glyph-name="Eacute" unicode="&#xc9;" horiz-adv-x="605" 
d="M55 0l127 715h431l-2 -10h-421l-59 -332h397l-2 -10h-397l-62 -353h428l-2 -10h-438zM497 877l-128 -116h-13l126 116h15z" />
    <glyph glyph-name="Ecircumflex" unicode="&#xca;" horiz-adv-x="605" 
d="M55 0l127 715h431l-2 -10h-421l-59 -332h397l-2 -10h-397l-62 -353h428l-2 -10h-438zM411 875h10q12 -18 40 -58t39 -57h-11l-74 106l-112 -106h-13q54 50 121 115z" />
    <glyph glyph-name="Edieresis" unicode="&#xcb;" horiz-adv-x="605" 
d="M55 0l127 715h431l-2 -10h-421l-59 -332h397l-2 -10h-397l-62 -353h428l-2 -10h-438zM333 766l15 80h10l-15 -80h-10zM446 766l15 80h10l-15 -80h-10z" />
    <glyph glyph-name="Igrave" unicode="&#xcc;" horiz-adv-x="229" 
d="M182 715h10l-127 -715h-10zM218 761l-128 116h15l126 -116h-13z" />
    <glyph glyph-name="Iacute" unicode="&#xcd;" horiz-adv-x="229" 
d="M182 715h10l-127 -715h-10zM310 877l-128 -116h-13l126 116h15z" />
    <glyph glyph-name="Icircumflex" unicode="&#xce;" horiz-adv-x="229" 
d="M182 715h10l-127 -715h-10zM210 875h10q12 -18 40 -58t39 -57h-11l-74 106l-112 -106h-13q54 50 121 115z" />
    <glyph glyph-name="Idieresis" unicode="&#xcf;" horiz-adv-x="229" 
d="M182 715h10l-127 -715h-10zM135 766l15 80h10l-15 -80h-10zM248 766l15 80h10l-15 -80h-10z" />
    <glyph glyph-name="Eth" unicode="&#xd0;" horiz-adv-x="724" 
d="M28 359l2 10h91l61 346h122q181 0 266 -59q106 -72 106 -237q0 -221 -135 -330q-108 -89 -317 -89h-169l64 359h-91zM190 705l-60 -336h171l-2 -10h-171l-61 -349h157q200 0 310 86q132 107 132 323q0 161 -102 228q-87 58 -260 58h-114z" />
    <glyph glyph-name="Ntilde" unicode="&#xd1;" horiz-adv-x="700" 
d="M182 715h13l209 -438q17 -36 66 -138.5t59 -125.5h1q7 58 47 273l76 429h10l-127 -715h-10l-206 431q-30 63 -74 154.5t-56 118.5h-1q-8 -72 -60 -343l-64 -361h-10zM450 798l-51 25q-28 13 -44 13q-37 0 -50 -59h-10q14 69 60 69q22 0 53 -17l47 -23q32 -15 47 -15
q40 0 52 61h10q-13 -71 -62 -71q-16 0 -52 17z" />
    <glyph glyph-name="Ograve" unicode="&#xd2;" horiz-adv-x="808" 
d="M435 729q148 0 236.5 -88t88.5 -235q0 -182 -101.5 -301t-274.5 -119q-142 0 -230 87t-88 245q0 172 99.5 291.5t269.5 119.5zM435 719q-85 0 -154.5 -34t-113.5 -90.5t-67.5 -127.5t-23.5 -149q0 -148 84.5 -235t223.5 -87q117 0 202 58.5t124.5 149.5t39.5 202
q0 141 -84 227t-231 86zM502 761l-128 116h15l126 -116h-13z" />
    <glyph glyph-name="Oacute" unicode="&#xd3;" horiz-adv-x="808" 
d="M435 729q148 0 236.5 -88t88.5 -235q0 -182 -101.5 -301t-274.5 -119q-142 0 -230 87t-88 245q0 172 99.5 291.5t269.5 119.5zM435 719q-85 0 -154.5 -34t-113.5 -90.5t-67.5 -127.5t-23.5 -149q0 -148 84.5 -235t223.5 -87q117 0 202 58.5t124.5 149.5t39.5 202
q0 141 -84 227t-231 86zM559 877l-128 -116h-13l126 116h15z" />
    <glyph glyph-name="Ocircumflex" unicode="&#xd4;" horiz-adv-x="808" 
d="M435 729q148 0 236.5 -88t88.5 -235q0 -182 -101.5 -301t-274.5 -119q-142 0 -230 87t-88 245q0 172 99.5 291.5t269.5 119.5zM435 719q-85 0 -154.5 -34t-113.5 -90.5t-67.5 -127.5t-23.5 -149q0 -148 84.5 -235t223.5 -87q117 0 202 58.5t124.5 149.5t39.5 202
q0 141 -84 227t-231 86zM468 875h10q12 -18 40 -58t39 -57h-11l-74 106l-112 -106h-13q54 50 121 115z" />
    <glyph glyph-name="Otilde" unicode="&#xd5;" horiz-adv-x="808" 
d="M435 729q148 0 236.5 -88t88.5 -235q0 -182 -101.5 -301t-274.5 -119q-142 0 -230 87t-88 245q0 172 99.5 291.5t269.5 119.5zM435 719q-85 0 -154.5 -34t-113.5 -90.5t-67.5 -127.5t-23.5 -149q0 -148 84.5 -235t223.5 -87q117 0 202 58.5t124.5 149.5t39.5 202
q0 141 -84 227t-231 86zM493 798l-51 25q-28 13 -44 13q-37 0 -50 -59h-10q14 69 60 69q22 0 53 -17l47 -23q32 -15 47 -15q40 0 52 61h10q-13 -71 -62 -71q-16 0 -52 17z" />
    <glyph glyph-name="Odieresis" unicode="&#xd6;" horiz-adv-x="808" 
d="M435 729q148 0 236.5 -88t88.5 -235q0 -182 -101.5 -301t-274.5 -119q-142 0 -230 87t-88 245q0 172 99.5 291.5t269.5 119.5zM435 719q-85 0 -154.5 -34t-113.5 -90.5t-67.5 -127.5t-23.5 -149q0 -148 84.5 -235t223.5 -87q117 0 202 58.5t124.5 149.5t39.5 202
q0 141 -84 227t-231 86zM394 766l15 80h10l-15 -80h-10zM507 766l15 80h10l-15 -80h-10z" />
    <glyph glyph-name="multiply" unicode="&#xd7;" 
d="M91 129l-7 7l183 183l-183 184l7 7l183 -184l185 185l7 -7l-185 -185l185 -184l-7 -7l-185 184z" />
    <glyph glyph-name="Oslash" unicode="&#xd8;" horiz-adv-x="808" 
d="M435 729q139 0 225 -78l78 94l7 -6l-78 -94q93 -87 93 -239q0 -182 -101.5 -301t-274.5 -119q-124 0 -209 68l-78 -94l-7 6l78 94q-102 89 -102 258q0 172 99.5 291.5t269.5 119.5zM435 719q-85 0 -154.5 -34t-113.5 -90.5t-67.5 -127.5t-23.5 -149q0 -163 99 -250
l479 576q-85 75 -219 75zM750 406q0 148 -89 232l-479 -576q81 -66 202 -66q117 0 202 58.5t124.5 149.5t39.5 202z" />
    <glyph glyph-name="Ugrave" unicode="&#xd9;" horiz-adv-x="669" 
d="M285 -4q123 0 181 62t82 191l82 466h10l-82 -466q-24 -140 -88.5 -201.5t-184.5 -61.5q-104 0 -153.5 42t-49.5 134q0 39 9 87l82 466h10l-82 -466q-9 -47 -9 -86q0 -84 45.5 -125.5t147.5 -41.5zM430 761l-128 116h15l126 -116h-13z" />
    <glyph glyph-name="Uacute" unicode="&#xda;" horiz-adv-x="669" 
d="M285 -4q123 0 181 62t82 191l82 466h10l-82 -466q-24 -140 -88.5 -201.5t-184.5 -61.5q-104 0 -153.5 42t-49.5 134q0 39 9 87l82 466h10l-82 -466q-9 -47 -9 -86q0 -84 45.5 -125.5t147.5 -41.5zM505 877l-128 -116h-13l126 116h15z" />
    <glyph glyph-name="Ucircumflex" unicode="&#xdb;" horiz-adv-x="669" 
d="M285 -4q123 0 181 62t82 191l82 466h10l-82 -466q-24 -140 -88.5 -201.5t-184.5 -61.5q-104 0 -153.5 42t-49.5 134q0 39 9 87l82 466h10l-82 -466q-9 -47 -9 -86q0 -84 45.5 -125.5t147.5 -41.5zM417 875h10q12 -18 40 -58t39 -57h-11l-74 106l-112 -106h-13
q54 50 121 115z" />
    <glyph glyph-name="Udieresis" unicode="&#xdc;" horiz-adv-x="669" 
d="M285 -4q123 0 181 62t82 191l82 466h10l-82 -466q-24 -140 -88.5 -201.5t-184.5 -61.5q-104 0 -153.5 42t-49.5 134q0 39 9 87l82 466h10l-82 -466q-9 -47 -9 -86q0 -84 45.5 -125.5t147.5 -41.5zM344 766l15 80h10l-15 -80h-10zM457 766l15 80h10l-15 -80h-10z" />
    <glyph glyph-name="Yacute" unicode="&#xdd;" horiz-adv-x="596" 
d="M232 0l48 272l-181 443h10l177 -433q70 88 189.5 242t148.5 191h12l-346 -443l-48 -272h-10zM469 877l-128 -116h-13l126 116h15z" />
    <glyph glyph-name="Thorn" unicode="&#xde;" horiz-adv-x="576" 
d="M182 716h10l-22 -121h122q42 0 75.5 -3t71 -13t62.5 -27.5t41.5 -49.5t16.5 -75q0 -238 -298 -238h-162l-34 -189h-10zM169 585l-68 -386h160q288 0 288 228q0 40 -15.5 70t-39.5 46.5t-60 26t-68.5 12.5t-73.5 3h-123z" />
    <glyph glyph-name="germandbls" unicode="&#xdf;" horiz-adv-x="552" 
d="M36 0l88 506q18 93 50 139q54 83 165 83q78 0 122 -40.5t44 -104.5q0 -78 -49.5 -126.5t-130.5 -54.5v-1q66 -12 114.5 -56t48.5 -118q0 -108 -68.5 -168.5t-197.5 -60.5h-19l3 9h16q117 0 186.5 55t69.5 165q0 74 -55 120.5t-143 50.5l1 8q95 0 154.5 45t59.5 132
q0 57 -39 96t-117 39q-105 0 -157 -77q-32 -49 -48 -135l-88 -506h-10z" />
    <glyph glyph-name="agrave" unicode="&#xe0;" horiz-adv-x="538" 
d="M91 368h-10q13 75 65.5 123t142.5 48q83 0 128.5 -39.5t45.5 -118.5q0 -33 -7 -73q-4 -25 -14 -76t-22 -123q-11 -66 -9 -109h-10q0 83 21 165h-1q-23 -76 -85.5 -126t-152.5 -50q-161 0 -161 131q0 35 15.5 62t36.5 42.5t59.5 27t66 16.5t73.5 11q77 11 171 17
q9 46 9 85q0 148 -164 148q-85 0 -134 -44t-64 -117zM434 243q7 37 8 43q-113 -8 -180 -18q-35 -5 -47 -7t-43.5 -9t-45 -12.5t-36 -17.5t-32.5 -25t-18 -33t-8 -44q0 -56 38 -88.5t113 -32.5q94 0 162 60.5t89 183.5zM347 596l-133 119h15l131 -119h-13z" />
    <glyph glyph-name="aacute" unicode="&#xe1;" horiz-adv-x="538" 
d="M91 368h-10q13 75 65.5 123t142.5 48q83 0 128.5 -39.5t45.5 -118.5q0 -33 -7 -73q-4 -25 -14 -76t-22 -123q-11 -66 -9 -109h-10q0 83 21 165h-1q-23 -76 -85.5 -126t-152.5 -50q-161 0 -161 131q0 35 15.5 62t36.5 42.5t59.5 27t66 16.5t73.5 11q77 11 171 17
q9 46 9 85q0 148 -164 148q-85 0 -134 -44t-64 -117zM434 243q7 37 8 43q-113 -8 -180 -18q-35 -5 -47 -7t-43.5 -9t-45 -12.5t-36 -17.5t-32.5 -25t-18 -33t-8 -44q0 -56 38 -88.5t113 -32.5q94 0 162 60.5t89 183.5zM412 715l-133 -119h-13l131 119h15z" />
    <glyph glyph-name="acircumflex" unicode="&#xe2;" horiz-adv-x="538" 
d="M91 368h-10q13 75 65.5 123t142.5 48q83 0 128.5 -39.5t45.5 -118.5q0 -33 -7 -73q-4 -25 -14 -76t-22 -123q-11 -66 -9 -109h-10q0 83 21 165h-1q-23 -76 -85.5 -126t-152.5 -50q-161 0 -161 131q0 35 15.5 62t36.5 42.5t59.5 27t66 16.5t73.5 11q77 11 171 17
q9 46 9 85q0 148 -164 148q-85 0 -134 -44t-64 -117zM434 243q7 37 8 43q-113 -8 -180 -18q-35 -5 -47 -7t-43.5 -9t-45 -12.5t-36 -17.5t-32.5 -25t-18 -33t-8 -44q0 -56 38 -88.5t113 -32.5q94 0 162 60.5t89 183.5zM320 715h10q29 -44 81 -119h-11l-76 110l-114 -110h-13
q74 70 123 119z" />
    <glyph glyph-name="atilde" unicode="&#xe3;" horiz-adv-x="538" 
d="M91 368h-10q13 75 65.5 123t142.5 48q83 0 128.5 -39.5t45.5 -118.5q0 -33 -7 -73q-4 -25 -14 -76t-22 -123q-11 -66 -9 -109h-10q0 83 21 165h-1q-23 -76 -85.5 -126t-152.5 -50q-161 0 -161 131q0 35 15.5 62t36.5 42.5t59.5 27t66 16.5t73.5 11q77 11 171 17
q9 46 9 85q0 148 -164 148q-85 0 -134 -44t-64 -117zM434 243q7 37 8 43q-113 -8 -180 -18q-35 -5 -47 -7t-43.5 -9t-45 -12.5t-36 -17.5t-32.5 -25t-18 -33t-8 -44q0 -56 38 -88.5t113 -32.5q94 0 162 60.5t89 183.5zM335 649l-51 25q-28 13 -44 13q-37 0 -50 -59h-10
q14 69 60 69q22 0 53 -17l47 -23q32 -15 47 -15q40 0 52 61h10q-13 -71 -62 -71q-16 0 -52 17z" />
    <glyph glyph-name="adieresis" unicode="&#xe4;" horiz-adv-x="538" 
d="M91 368h-10q13 75 65.5 123t142.5 48q83 0 128.5 -39.5t45.5 -118.5q0 -33 -7 -73q-4 -25 -14 -76t-22 -123q-11 -66 -9 -109h-10q0 83 21 165h-1q-23 -76 -85.5 -126t-152.5 -50q-161 0 -161 131q0 35 15.5 62t36.5 42.5t59.5 27t66 16.5t73.5 11q77 11 171 17
q9 46 9 85q0 148 -164 148q-85 0 -134 -44t-64 -117zM434 243q7 37 8 43q-113 -8 -180 -18q-35 -5 -47 -7t-43.5 -9t-45 -12.5t-36 -17.5t-32.5 -25t-18 -33t-8 -44q0 -56 38 -88.5t113 -32.5q94 0 162 60.5t89 183.5zM240 616l15 80h10l-15 -80h-10zM353 616l15 80h10
l-15 -80h-10z" />
    <glyph glyph-name="aring" unicode="&#xe5;" horiz-adv-x="538" 
d="M91 368h-10q13 75 65.5 123t142.5 48q83 0 128.5 -39.5t45.5 -118.5q0 -33 -7 -73q-4 -25 -14 -76t-22 -123q-11 -66 -9 -109h-10q0 83 21 165h-1q-23 -76 -85.5 -126t-152.5 -50q-161 0 -161 131q0 35 15.5 62t36.5 42.5t59.5 27t66 16.5t73.5 11q77 11 171 17
q9 46 9 85q0 148 -164 148q-85 0 -134 -44t-64 -117zM434 243q7 37 8 43q-113 -8 -180 -18q-35 -5 -47 -7t-43.5 -9t-45 -12.5t-36 -17.5t-32.5 -25t-18 -33t-8 -44q0 -56 38 -88.5t113 -32.5q94 0 162 60.5t89 183.5zM310 599q-32 0 -54 22.5t-22 55.5q0 32 22 54t54 22
t55 -22t23 -54q0 -33 -22.5 -55.5t-55.5 -22.5zM243 677q0 -29 19 -49t48 -20t49 19.5t20 49.5q0 28 -20 47.5t-49 19.5t-48 -19.5t-19 -47.5z" />
    <glyph glyph-name="ae" unicode="&#xe6;" horiz-adv-x="979" 
d="M926 280l-476 1q-3 -13 -3 -51q0 -110 56.5 -171.5t161.5 -61.5q157 0 229 153h10q-71 -163 -239 -163q-105 0 -165 59.5t-62 176.5q-19 -104 -86 -169t-169 -65q-161 0 -161 131q0 36 13.5 63t42 44t61 28.5t83 18t94 9.5t106.5 7q14 1 21 1q10 72 10 90q0 148 -164 148
q-85 0 -134 -44t-64 -117h-10q13 75 65.5 123t142.5 48q83 0 128 -38.5t45 -114.5q0 -9 -2 -31q29 84 93.5 134t151.5 50q109 0 165 -65t56 -178v-16zM705 529q-106 0 -169.5 -67t-83.5 -171h463v9q0 106 -52 167.5t-158 61.5zM434 243l7 38q-71 -3 -118.5 -6.5t-98.5 -10.5
t-82.5 -18.5t-58.5 -28t-39 -41t-12 -56.5q0 -56 37.5 -88.5t113.5 -32.5q93 0 161.5 60.5t89.5 183.5z" />
    <glyph glyph-name="ccedilla" unicode="&#xe7;" horiz-adv-x="588" 
d="M512 167h10q-32 -83 -93 -131.5t-151 -48.5q-106 0 -169.5 63.5t-63.5 177.5q0 130 73.5 220.5t195.5 90.5q96 0 153.5 -51t70.5 -135h-10q-15 80 -68.5 128t-144.5 48q-119 0 -189 -86.5t-70 -214.5q0 -108 59 -169.5t163 -61.5q163 0 234 170zM189 -163l78 115h11
l-77 -115h-12z" />
    <glyph glyph-name="egrave" unicode="&#xe8;" horiz-adv-x="591" 
d="M539 280l-481 1q-3 -13 -3 -51q0 -109 58 -171t163 -62q160 0 231 153h10q-71 -163 -241 -163q-109 0 -170 62.5t-61 180.5q0 126 74 217.5t197 91.5q109 0 166 -65t57 -178v-16zM316 529q-106 0 -171 -67.5t-85 -170.5h468v9q0 106 -53 167.5t-159 61.5zM353 596
l-133 119h15l131 -119h-13z" />
    <glyph glyph-name="eacute" unicode="&#xe9;" horiz-adv-x="591" 
d="M539 280l-481 1q-3 -13 -3 -51q0 -109 58 -171t163 -62q160 0 231 153h10q-71 -163 -241 -163q-109 0 -170 62.5t-61 180.5q0 126 74 217.5t197 91.5q109 0 166 -65t57 -178v-16zM316 529q-106 0 -171 -67.5t-85 -170.5h468v9q0 106 -53 167.5t-159 61.5zM435 715
l-133 -119h-13l131 119h15z" />
    <glyph glyph-name="ecircumflex" unicode="&#xea;" horiz-adv-x="591" 
d="M539 280l-481 1q-3 -13 -3 -51q0 -109 58 -171t163 -62q160 0 231 153h10q-71 -163 -241 -163q-109 0 -170 62.5t-61 180.5q0 126 74 217.5t197 91.5q109 0 166 -65t57 -178v-16zM316 529q-106 0 -171 -67.5t-85 -170.5h468v9q0 106 -53 167.5t-159 61.5zM338 715h10
q29 -44 81 -119h-11l-76 110l-114 -110h-13q74 70 123 119z" />
    <glyph glyph-name="edieresis" unicode="&#xeb;" horiz-adv-x="591" 
d="M539 280l-481 1q-3 -13 -3 -51q0 -109 58 -171t163 -62q160 0 231 153h10q-71 -163 -241 -163q-109 0 -170 62.5t-61 180.5q0 126 74 217.5t197 91.5q109 0 166 -65t57 -178v-16zM316 529q-106 0 -171 -67.5t-85 -170.5h468v9q0 106 -53 167.5t-159 61.5zM272 616l15 80
h10l-15 -80h-10zM385 616l15 80h10l-15 -80h-10z" />
    <glyph glyph-name="igrave" unicode="&#xec;" horiz-adv-x="189" 
d="M128 525h10l-93 -525h-10zM172 596l-133 119h15l131 -119h-13z" />
    <glyph glyph-name="iacute" unicode="&#xed;" horiz-adv-x="189" 
d="M128 525h10l-93 -525h-10zM264 715l-133 -119h-13l131 119h15z" />
    <glyph glyph-name="icircumflex" unicode="&#xee;" horiz-adv-x="189" 
d="M128 525h10l-93 -525h-10zM160 715h10q29 -44 81 -119h-11l-76 110l-114 -110h-13q74 70 123 119z" />
    <glyph glyph-name="idieresis" unicode="&#xef;" horiz-adv-x="189" 
d="M128 525h10l-93 -525h-10zM87 616l15 80h10l-15 -80h-10zM200 616l15 80h10l-15 -80h-10z" />
    <glyph glyph-name="eth" unicode="&#xf0;" horiz-adv-x="621" 
d="M317 715h15q36 -23 59 -44l99 44l8 -6l-100 -45q73 -67 117 -163.5t44 -200.5q0 -142 -75 -227.5t-205 -85.5q-101 0 -168 60t-67 177q0 143 80.5 229t198.5 86q86 0 141.5 -42t76.5 -100h2q-44 164 -154 263l-162 -72l-6 7l161 71q-28 26 -65 49zM279 -3
q131 0 200.5 86.5t69.5 216.5q0 100 -59.5 164.5t-166.5 64.5q-123 0 -196 -89t-73 -216q0 -103 60.5 -165t164.5 -62z" />
    <glyph glyph-name="ntilde" unicode="&#xf1;" horiz-adv-x="569" 
d="M36 0l78 445l15 80h11l-31 -163q10 32 26.5 60.5t42 56t64 44t84.5 16.5q79 0 123.5 -38.5t44.5 -112.5q0 -38 -11 -101l-51 -287h-10l51 289q11 63 11 100q0 65 -40 102.5t-118 37.5q-52 0 -94.5 -22t-68.5 -59t-42 -77t-24 -85l-51 -286h-10zM359 648l-51 25
q-28 13 -44 13q-37 0 -50 -59h-10q14 69 60 69q22 0 53 -17l47 -23q32 -15 47 -15q40 0 52 61h10q-13 -71 -62 -71q-16 0 -52 17z" />
    <glyph glyph-name="ograve" unicode="&#xf2;" horiz-adv-x="619" 
d="M279 -3q126 0 197.5 85.5t71.5 217.5q0 103 -59 166t-166 63q-127 0 -198 -88.5t-71 -216.5q0 -107 60 -167t165 -60zM279 -13q-112 0 -173.5 62.5t-61.5 174.5q0 133 74.5 224t204.5 91q111 0 173.5 -65t62.5 -174q0 -136 -75.5 -224.5t-204.5 -88.5zM380 596l-133 119
h15l131 -119h-13z" />
    <glyph glyph-name="oacute" unicode="&#xf3;" horiz-adv-x="619" 
d="M279 -3q126 0 197.5 85.5t71.5 217.5q0 103 -59 166t-166 63q-127 0 -198 -88.5t-71 -216.5q0 -107 60 -167t165 -60zM279 -13q-112 0 -173.5 62.5t-61.5 174.5q0 133 74.5 224t204.5 91q111 0 173.5 -65t62.5 -174q0 -136 -75.5 -224.5t-204.5 -88.5zM450 715l-133 -119
h-13l131 119h15z" />
    <glyph glyph-name="ocircumflex" unicode="&#xf4;" horiz-adv-x="619" 
d="M279 -3q126 0 197.5 85.5t71.5 217.5q0 103 -59 166t-166 63q-127 0 -198 -88.5t-71 -216.5q0 -107 60 -167t165 -60zM279 -13q-112 0 -173.5 62.5t-61.5 174.5q0 133 74.5 224t204.5 91q111 0 173.5 -65t62.5 -174q0 -136 -75.5 -224.5t-204.5 -88.5zM355 715h10
q29 -44 81 -119h-11l-76 110l-114 -110h-13q74 70 123 119z" />
    <glyph glyph-name="otilde" unicode="&#xf5;" horiz-adv-x="619" 
d="M279 -3q126 0 197.5 85.5t71.5 217.5q0 103 -59 166t-166 63q-127 0 -198 -88.5t-71 -216.5q0 -107 60 -167t165 -60zM279 -13q-112 0 -173.5 62.5t-61.5 174.5q0 133 74.5 224t204.5 91q111 0 173.5 -65t62.5 -174q0 -136 -75.5 -224.5t-204.5 -88.5zM366 648l-51 25
q-28 13 -44 13q-37 0 -50 -59h-10q14 69 60 69q22 0 53 -17l47 -23q32 -15 47 -15q40 0 52 61h10q-13 -71 -62 -71q-16 0 -52 17z" />
    <glyph glyph-name="odieresis" unicode="&#xf6;" horiz-adv-x="619" 
d="M279 -3q126 0 197.5 85.5t71.5 217.5q0 103 -59 166t-166 63q-127 0 -198 -88.5t-71 -216.5q0 -107 60 -167t165 -60zM279 -13q-112 0 -173.5 62.5t-61.5 174.5q0 133 74.5 224t204.5 91q111 0 173.5 -65t62.5 -174q0 -136 -75.5 -224.5t-204.5 -88.5zM272 616l15 80h10
l-15 -80h-10zM385 616l15 80h10l-15 -80h-10z" />
    <glyph glyph-name="divide" unicode="&#xf7;" 
d="M61 317v10h442v-10h-442zM277 95v111h10v-111h-10zM277 438v111h10v-111h-10z" />
    <glyph glyph-name="oslash" unicode="&#xf8;" horiz-adv-x="619" 
d="M279 -13q-88 0 -147 41l-59 -72l-8 6l59 71q-80 63 -80 191q0 133 74.5 224t204.5 91q106 0 168 -60l68 82l8 -6l-69 -83q61 -64 61 -172q0 -136 -75.5 -224.5t-204.5 -88.5zM54 224q0 -121 77 -182l353 429q-60 58 -161 58q-127 0 -198 -88.5t-71 -216.5zM279 -3
q126 0 197.5 85.5t71.5 217.5q0 105 -57 163l-352 -427q54 -39 140 -39z" />
    <glyph glyph-name="ugrave" unicode="&#xf9;" horiz-adv-x="562" 
d="M511 525l-78 -445l-15 -80h-11l31 163q-10 -32 -25.5 -60.5t-40.5 -56t-63 -44t-84 -16.5q-78 0 -122 38.5t-44 111.5q0 39 11 102l51 287h10l-51 -289q-11 -63 -11 -100q0 -65 39 -102.5t117 -37.5q52 0 93.5 22t67 59.5t41 77t23.5 84.5l51 286h10zM359 596l-133 119
h15l131 -119h-13z" />
    <glyph glyph-name="uacute" unicode="&#xfa;" horiz-adv-x="562" 
d="M511 525l-78 -445l-15 -80h-11l31 163q-10 -32 -25.5 -60.5t-40.5 -56t-63 -44t-84 -16.5q-78 0 -122 38.5t-44 111.5q0 39 11 102l51 287h10l-51 -289q-11 -63 -11 -100q0 -65 39 -102.5t117 -37.5q52 0 93.5 22t67 59.5t41 77t23.5 84.5l51 286h10zM425 715l-133 -119
h-13l131 119h15z" />
    <glyph glyph-name="ucircumflex" unicode="&#xfb;" horiz-adv-x="562" 
d="M511 525l-78 -445l-15 -80h-11l31 163q-10 -32 -25.5 -60.5t-40.5 -56t-63 -44t-84 -16.5q-78 0 -122 38.5t-44 111.5q0 39 11 102l51 287h10l-51 -289q-11 -63 -11 -100q0 -65 39 -102.5t117 -37.5q52 0 93.5 22t67 59.5t41 77t23.5 84.5l51 286h10zM340 715h10
q29 -44 81 -119h-11l-76 110l-114 -110h-13q74 70 123 119z" />
    <glyph glyph-name="udieresis" unicode="&#xfc;" horiz-adv-x="562" 
d="M511 525l-78 -445l-15 -80h-11l31 163q-10 -32 -25.5 -60.5t-40.5 -56t-63 -44t-84 -16.5q-78 0 -122 38.5t-44 111.5q0 39 11 102l51 287h10l-51 -289q-11 -63 -11 -100q0 -65 39 -102.5t117 -37.5q52 0 93.5 22t67 59.5t41 77t23.5 84.5l51 286h10zM259 616l15 80h10
l-15 -80h-10zM372 616l15 80h10l-15 -80h-10z" />
    <glyph glyph-name="yacute" unicode="&#xfd;" horiz-adv-x="486" 
d="M91 -180h-11l102 180l-113 525h11l63 -299q5 -26 21.5 -99t23.5 -113h2q21 40 69 124t55 97l162 290h11q-86 -160 -396 -705zM388 715l-133 -119h-13l131 119h15z" />
    <glyph glyph-name="thorn" unicode="&#xfe;" horiz-adv-x="602" 
d="M284 -4q110 0 179 87t69 218q0 101 -52 164.5t-148 63.5q-61 0 -109 -27.5t-75.5 -74t-41.5 -100.5t-14 -112q0 -100 47.5 -159.5t144.5 -59.5zM161 714h10l-35 -205q-21 -117 -25 -138q25 74 80 121t141 47q95 0 152.5 -62t57.5 -175q0 -136 -72.5 -226t-185.5 -90
q-106 0 -155.5 66t-45.5 162q-12 -87 -30 -183l-38 -211h-10z" />
    <glyph glyph-name="ydieresis" unicode="&#xff;" horiz-adv-x="486" 
d="M91 -180h-11l102 180l-113 525h11l63 -299q5 -26 21.5 -99t23.5 -113h2q21 40 69 124t55 97l162 290h11q-86 -160 -396 -705zM220 616l15 80h10l-15 -80h-10zM333 616l15 80h10l-15 -80h-10z" />
    <glyph glyph-name="Amacron" unicode="&#x100;" horiz-adv-x="636" 
d="M391 715h9l150 -715h-10l-58 281h-329l-159 -281h-11zM394 700h-1q-23 -39 -67 -117q-48 -83 -122 -214l-45 -78h321l-17 79q-53 248 -69 330zM283 802l1 10h244l-1 -10h-244z" />
    <glyph glyph-name="amacron" unicode="&#x101;" horiz-adv-x="538" 
d="M91 368h-10q13 75 65.5 123t142.5 48q83 0 128.5 -39.5t45.5 -118.5q0 -33 -7 -73q-4 -25 -14 -76t-22 -123q-11 -66 -9 -109h-10q0 83 21 165h-1q-23 -76 -85.5 -126t-152.5 -50q-161 0 -161 131q0 35 15.5 62t36.5 42.5t59.5 27t66 16.5t73.5 11q77 11 171 17
q9 46 9 85q0 148 -164 148q-85 0 -134 -44t-64 -117zM434 243q7 37 8 43q-113 -8 -180 -18q-35 -5 -47 -7t-43.5 -9t-45 -12.5t-36 -17.5t-32.5 -25t-18 -33t-8 -44q0 -56 38 -88.5t113 -32.5q94 0 162 60.5t89 183.5zM193 652l1 10h244l-1 -10h-244z" />
    <glyph glyph-name="Abreve" unicode="&#x102;" horiz-adv-x="636" 
d="M391 715h9l150 -715h-10l-58 281h-329l-159 -281h-11zM394 700h-1q-23 -39 -67 -117q-48 -83 -122 -214l-45 -78h321l-17 79q-53 248 -69 330zM400 792q85 0 119 87h10q-30 -96 -129 -96q-97 0 -97 96h10q0 -87 87 -87z" />
    <glyph glyph-name="abreve" unicode="&#x103;" horiz-adv-x="538" 
d="M91 368h-10q13 75 65.5 123t142.5 48q83 0 128.5 -39.5t45.5 -118.5q0 -33 -7 -73q-4 -25 -14 -76t-22 -123q-11 -66 -9 -109h-10q0 83 21 165h-1q-23 -76 -85.5 -126t-152.5 -50q-161 0 -161 131q0 35 15.5 62t36.5 42.5t59.5 27t66 16.5t73.5 11q77 11 171 17
q9 46 9 85q0 148 -164 148q-85 0 -134 -44t-64 -117zM434 243q7 37 8 43q-113 -8 -180 -18q-35 -5 -47 -7t-43.5 -9t-45 -12.5t-36 -17.5t-32.5 -25t-18 -33t-8 -44q0 -56 38 -88.5t113 -32.5q94 0 162 60.5t89 183.5zM308 628q85 0 119 87h10q-30 -96 -129 -96
q-97 0 -97 96h10q0 -87 87 -87z" />
    <glyph glyph-name="Aogonek" unicode="&#x104;" horiz-adv-x="636" 
d="M391 715h9l150 -715h-10l-58 281h-329l-159 -281h-11zM394 700h-1q-23 -39 -67 -117q-48 -83 -122 -214l-45 -78h321l-17 79q-53 248 -69 330zM553 -48l78 -115h-12l-77 115h11z" />
    <glyph glyph-name="aogonek" unicode="&#x105;" horiz-adv-x="538" 
d="M91 368h-10q13 75 65.5 123t142.5 48q83 0 128.5 -39.5t45.5 -118.5q0 -33 -7 -73q-4 -25 -14 -76t-22 -123q-11 -66 -9 -109h-10q0 83 21 165h-1q-23 -76 -85.5 -126t-152.5 -50q-161 0 -161 131q0 35 15.5 62t36.5 42.5t59.5 27t66 16.5t73.5 11q77 11 171 17
q9 46 9 85q0 148 -164 148q-85 0 -134 -44t-64 -117zM434 243q7 37 8 43q-113 -8 -180 -18q-35 -5 -47 -7t-43.5 -9t-45 -12.5t-36 -17.5t-32.5 -25t-18 -33t-8 -44q0 -56 38 -88.5t113 -32.5q94 0 162 60.5t89 183.5zM390 -48l78 -115h-12l-77 115h11z" />
    <glyph glyph-name="Cacute" unicode="&#x106;" horiz-adv-x="770" 
d="M705 207h10q-43 -104 -127.5 -162.5t-204.5 -58.5q-142 0 -229.5 87t-87.5 245q0 172 99 291.5t269 119.5q122 0 201 -60.5t106 -167.5h-10q-25 102 -101 160t-196 58q-113 0 -196 -58.5t-122.5 -148t-39.5 -194.5q0 -149 84 -235.5t223 -86.5q118 0 198.5 56.5
t123.5 154.5zM558 877l-128 -116h-13l126 116h15z" />
    <glyph glyph-name="cacute" unicode="&#x107;" horiz-adv-x="588" 
d="M512 167h10q-32 -83 -93 -131.5t-151 -48.5q-106 0 -169.5 63.5t-63.5 177.5q0 130 73.5 220.5t195.5 90.5q96 0 153.5 -51t70.5 -135h-10q-15 80 -68.5 128t-144.5 48q-119 0 -189 -86.5t-70 -214.5q0 -108 59 -169.5t163 -61.5q163 0 234 170zM447 715l-133 -119h-13
l131 119h15z" />
    <glyph glyph-name="Ccircumflex" unicode="&#x108;" horiz-adv-x="770" 
d="M705 207h10q-43 -104 -127.5 -162.5t-204.5 -58.5q-142 0 -229.5 87t-87.5 245q0 172 99 291.5t269 119.5q122 0 201 -60.5t106 -167.5h-10q-25 102 -101 160t-196 58q-113 0 -196 -58.5t-122.5 -148t-39.5 -194.5q0 -149 84 -235.5t223 -86.5q118 0 198.5 56.5
t123.5 154.5zM466 875h10q12 -18 40 -58t39 -57h-11l-74 106l-112 -106h-13q54 50 121 115z" />
    <glyph glyph-name="ccircumflex" unicode="&#x109;" horiz-adv-x="588" 
d="M512 167h10q-32 -83 -93 -131.5t-151 -48.5q-106 0 -169.5 63.5t-63.5 177.5q0 130 73.5 220.5t195.5 90.5q96 0 153.5 -51t70.5 -135h-10q-15 80 -68.5 128t-144.5 48q-119 0 -189 -86.5t-70 -214.5q0 -108 59 -169.5t163 -61.5q163 0 234 170zM349 715h10
q29 -44 81 -119h-11l-76 110l-114 -110h-13q74 70 123 119z" />
    <glyph glyph-name="Cdotaccent" unicode="&#x10a;" horiz-adv-x="770" 
d="M705 207h10q-43 -104 -127.5 -162.5t-204.5 -58.5q-142 0 -229.5 87t-87.5 245q0 172 99 291.5t269 119.5q122 0 201 -60.5t106 -167.5h-10q-25 102 -101 160t-196 58q-113 0 -196 -58.5t-122.5 -148t-39.5 -194.5q0 -149 84 -235.5t223 -86.5q118 0 198.5 56.5
t123.5 154.5zM448 766l15 80h10l-15 -80h-10z" />
    <glyph glyph-name="cdotaccent" unicode="&#x10b;" horiz-adv-x="588" 
d="M512 167h10q-32 -83 -93 -131.5t-151 -48.5q-106 0 -169.5 63.5t-63.5 177.5q0 130 73.5 220.5t195.5 90.5q96 0 153.5 -51t70.5 -135h-10q-15 80 -68.5 128t-144.5 48q-119 0 -189 -86.5t-70 -214.5q0 -108 59 -169.5t163 -61.5q163 0 234 170zM331 616l15 80h10
l-15 -80h-10z" />
    <glyph glyph-name="Ccaron" unicode="&#x10c;" horiz-adv-x="770" 
d="M705 207h10q-43 -104 -127.5 -162.5t-204.5 -58.5q-142 0 -229.5 87t-87.5 245q0 172 99 291.5t269 119.5q122 0 201 -60.5t106 -167.5h-10q-25 102 -101 160t-196 58q-113 0 -196 -58.5t-122.5 -148t-39.5 -194.5q0 -149 84 -235.5t223 -86.5q118 0 198.5 56.5
t123.5 154.5zM451 760h-10q-12 18 -40 58t-39 57h11l74 -106l112 106h13q-54 -50 -121 -115z" />
    <glyph glyph-name="ccaron" unicode="&#x10d;" horiz-adv-x="588" 
d="M512 167h10q-32 -83 -93 -131.5t-151 -48.5q-106 0 -169.5 63.5t-63.5 177.5q0 130 73.5 220.5t195.5 90.5q96 0 153.5 -51t70.5 -135h-10q-15 80 -68.5 128t-144.5 48q-119 0 -189 -86.5t-70 -214.5q0 -108 59 -169.5t163 -61.5q163 0 234 170zM328 596h-10
q-29 44 -81 119h11l76 -110l114 110h13q-19 -19 -62.5 -60.5t-60.5 -58.5z" />
    <glyph glyph-name="Dcaron" unicode="&#x10e;" horiz-adv-x="724" 
d="M55 0l127 715h122q181 0 266 -59q106 -72 106 -237q0 -221 -135 -330q-108 -89 -317 -89h-169zM190 705l-123 -695h157q200 0 310 86q132 107 132 323q0 161 -102 228q-87 58 -260 58h-114zM415 760h-10q-12 18 -40 58t-39 57h11l74 -106l112 106h13q-54 -50 -121 -115z
" />
    <glyph glyph-name="dcaron" unicode="&#x10f;" horiz-adv-x="647" 
d="M302 529q-109 0 -178 -87t-69 -218q0 -101 52 -164.5t148 -63.5q61 0 109 27.5t75.5 74t41.5 100.5t14 112q0 99 -48 159t-145 60zM458 0h-10l3 16q21 117 25 138q-25 -74 -80 -121t-141 -47q-95 0 -152.5 62t-57.5 175q0 136 71.5 226t185.5 90q106 0 155.5 -66
t46.5 -162q14 94 30 183l40 221h10zM770 715l-118 -232h-10l117 232h11z" />
    <glyph glyph-name="Dcroat" unicode="&#x110;" horiz-adv-x="724" 
d="M28 359l2 10h91l61 346h122q181 0 266 -59q106 -72 106 -237q0 -221 -135 -330q-108 -89 -317 -89h-169l64 359h-91zM190 705l-60 -336h171l-2 -10h-171l-61 -349h157q200 0 310 86q132 107 132 323q0 161 -102 228q-87 58 -260 58h-114z" />
    <glyph glyph-name="dcroat" unicode="&#x111;" horiz-adv-x="601" 
d="M431 622l2 10h126l15 83h10l-15 -83h87l-2 -10h-87l-109 -622h-10l3 16q21 117 25 138q-25 -74 -80 -121t-141 -47q-95 0 -152.5 62t-57.5 175q0 136 71.5 226t185.5 90q106 0 155.5 -66t46.5 -162q14 94 30 183l23 128h-126zM302 529q-109 0 -178 -87t-69 -218
q0 -101 52 -164.5t148 -63.5q61 0 109 27.5t75.5 74t41.5 100.5t14 112q0 99 -48 159t-145 60z" />
    <glyph glyph-name="Emacron" unicode="&#x112;" horiz-adv-x="605" 
d="M55 0l127 715h431l-2 -10h-421l-59 -332h397l-2 -10h-397l-62 -353h428l-2 -10h-438zM284 802l1 10h244l-1 -10h-244z" />
    <glyph glyph-name="emacron" unicode="&#x113;" horiz-adv-x="591" 
d="M539 280l-481 1q-3 -13 -3 -51q0 -109 58 -171t163 -62q160 0 231 153h10q-71 -163 -241 -163q-109 0 -170 62.5t-61 180.5q0 126 74 217.5t197 91.5q109 0 166 -65t57 -178v-16zM316 529q-106 0 -171 -67.5t-85 -170.5h468v9q0 106 -53 167.5t-159 61.5zM214 652l1 10
h244l-1 -10h-244z" />
    <glyph glyph-name="Ebreve" unicode="&#x114;" horiz-adv-x="605" 
d="M55 0l127 715h431l-2 -10h-421l-59 -332h397l-2 -10h-397l-62 -353h428l-2 -10h-438zM393 792q85 0 119 87h10q-30 -96 -129 -96q-97 0 -97 96h10q0 -87 87 -87z" />
    <glyph glyph-name="ebreve" unicode="&#x115;" horiz-adv-x="591" 
d="M539 280l-481 1q-3 -13 -3 -51q0 -109 58 -171t163 -62q160 0 231 153h10q-71 -163 -241 -163q-109 0 -170 62.5t-61 180.5q0 126 74 217.5t197 91.5q109 0 166 -65t57 -178v-16zM316 529q-106 0 -171 -67.5t-85 -170.5h468v9q0 106 -53 167.5t-159 61.5zM335 628
q85 0 119 87h10q-30 -96 -129 -96q-97 0 -97 96h10q0 -87 87 -87z" />
    <glyph glyph-name="Edotaccent" unicode="&#x116;" horiz-adv-x="605" 
d="M55 0l127 715h431l-2 -10h-421l-59 -332h397l-2 -10h-397l-62 -353h428l-2 -10h-438zM393 766l15 80h10l-15 -80h-10z" />
    <glyph glyph-name="edotaccent" unicode="&#x117;" horiz-adv-x="591" 
d="M539 280l-481 1q-3 -13 -3 -51q0 -109 58 -171t163 -62q160 0 231 153h10q-71 -163 -241 -163q-109 0 -170 62.5t-61 180.5q0 126 74 217.5t197 91.5q109 0 166 -65t57 -178v-16zM316 529q-106 0 -171 -67.5t-85 -170.5h468v9q0 106 -53 167.5t-159 61.5zM327 616l15 80
h10l-15 -80h-10z" />
    <glyph glyph-name="Eogonek" unicode="&#x118;" horiz-adv-x="605" 
d="M55 0l127 715h431l-2 -10h-421l-59 -332h397l-2 -10h-397l-62 -353h428l-2 -10h-438zM263 -48l78 -115h-12l-77 115h11z" />
    <glyph glyph-name="eogonek" unicode="&#x119;" horiz-adv-x="591" 
d="M539 280l-481 1q-3 -13 -3 -51q0 -109 58 -171t163 -62q160 0 231 153h10q-71 -163 -241 -163q-109 0 -170 62.5t-61 180.5q0 126 74 217.5t197 91.5q109 0 166 -65t57 -178v-16zM316 529q-106 0 -171 -67.5t-85 -170.5h468v9q0 106 -53 167.5t-159 61.5zM255 -48
l78 -115h-12l-77 115h11z" />
    <glyph glyph-name="Ecaron" unicode="&#x11a;" horiz-adv-x="605" 
d="M55 0l127 715h431l-2 -10h-421l-59 -332h397l-2 -10h-397l-62 -353h428l-2 -10h-438zM386 760h-10q-12 18 -40 58t-39 57h11l74 -106l112 106h13q-54 -50 -121 -115z" />
    <glyph glyph-name="ecaron" unicode="&#x11b;" horiz-adv-x="591" 
d="M539 280l-481 1q-3 -13 -3 -51q0 -109 58 -171t163 -62q160 0 231 153h10q-71 -163 -241 -163q-109 0 -170 62.5t-61 180.5q0 126 74 217.5t197 91.5q109 0 166 -65t57 -178v-16zM316 529q-106 0 -171 -67.5t-85 -170.5h468v9q0 106 -53 167.5t-159 61.5zM334 596h-10
q-29 44 -81 119h11l76 -110l114 110h13q-19 -19 -62.5 -60.5t-60.5 -58.5z" />
    <glyph glyph-name="Gcircumflex" unicode="&#x11c;" horiz-adv-x="786" 
d="M380 -14q-140 0 -227 87.5t-87 243.5q0 111 42 203.5t127 150.5t199 58q122 0 201.5 -60.5t106.5 -167.5h-10q-25 99 -101 158.5t-197 59.5q-87 0 -157.5 -34.5t-113 -92t-65 -128.5t-22.5 -147q0 -146 82.5 -233.5t221.5 -87.5q187 0 281 161q41 74 55 172h-314l2 10
h324l-59 -339h-10l16 87q5 26 13.5 73.5t12.5 64.5h-1q-34 -106 -116 -172.5t-204 -66.5zM473 875h10q12 -18 40 -58t39 -57h-11l-74 106l-112 -106h-13q54 50 121 115z" />
    <glyph glyph-name="gcircumflex" unicode="&#x11d;" horiz-adv-x="590" 
d="M228 -179q100 0 149.5 58t73.5 197l17 94h-1q-24 -58 -76.5 -100.5t-129.5 -42.5q-99 0 -154.5 61.5t-55.5 169.5q0 116 66 198.5t180 82.5q98 0 150.5 -65.5t49.5 -144.5l9 55q14 84 15 91l9 50h10l-77 -434q-10 -56 -19.5 -93t-27 -75.5t-41.5 -61t-61 -36.5t-86 -14
q-95 0 -150.5 49.5t-59.5 122.5h10q4 -69 55.5 -115.5t144.5 -46.5zM261 37q104 0 166 81.5t62 202.5q0 93 -53 150.5t-139 57.5q-110 0 -173 -78.5t-63 -193.5q0 -106 54 -163t146 -57zM335 715h10q29 -44 81 -119h-11l-76 110l-114 -110h-13q74 70 123 119z" />
    <glyph glyph-name="Gbreve" unicode="&#x11e;" horiz-adv-x="786" 
d="M380 -14q-140 0 -227 87.5t-87 243.5q0 111 42 203.5t127 150.5t199 58q122 0 201.5 -60.5t106.5 -167.5h-10q-25 99 -101 158.5t-197 59.5q-87 0 -157.5 -34.5t-113 -92t-65 -128.5t-22.5 -147q0 -146 82.5 -233.5t221.5 -87.5q187 0 281 161q41 74 55 172h-314l2 10
h324l-59 -339h-10l16 87q5 26 13.5 73.5t12.5 64.5h-1q-34 -106 -116 -172.5t-204 -66.5zM452 792q85 0 119 87h10q-30 -96 -129 -96q-97 0 -97 96h10q0 -87 87 -87z" />
    <glyph glyph-name="gbreve" unicode="&#x11f;" horiz-adv-x="590" 
d="M228 -179q100 0 149.5 58t73.5 197l17 94h-1q-24 -58 -76.5 -100.5t-129.5 -42.5q-99 0 -154.5 61.5t-55.5 169.5q0 116 66 198.5t180 82.5q98 0 150.5 -65.5t49.5 -144.5l9 55q14 84 15 91l9 50h10l-77 -434q-10 -56 -19.5 -93t-27 -75.5t-41.5 -61t-61 -36.5t-86 -14
q-95 0 -150.5 49.5t-59.5 122.5h10q4 -69 55.5 -115.5t144.5 -46.5zM261 37q104 0 166 81.5t62 202.5q0 93 -53 150.5t-139 57.5q-110 0 -173 -78.5t-63 -193.5q0 -106 54 -163t146 -57zM330 628q85 0 119 87h10q-30 -96 -129 -96q-97 0 -97 96h10q0 -87 87 -87z" />
    <glyph glyph-name="Gdotaccent" unicode="&#x120;" horiz-adv-x="786" 
d="M380 -14q-140 0 -227 87.5t-87 243.5q0 111 42 203.5t127 150.5t199 58q122 0 201.5 -60.5t106.5 -167.5h-10q-25 99 -101 158.5t-197 59.5q-87 0 -157.5 -34.5t-113 -92t-65 -128.5t-22.5 -147q0 -146 82.5 -233.5t221.5 -87.5q187 0 281 161q41 74 55 172h-314l2 10
h324l-59 -339h-10l16 87q5 26 13.5 73.5t12.5 64.5h-1q-34 -106 -116 -172.5t-204 -66.5zM445 766l15 80h10l-15 -80h-10z" />
    <glyph glyph-name="gdotaccent" unicode="&#x121;" horiz-adv-x="590" 
d="M228 -179q100 0 149.5 58t73.5 197l17 94h-1q-24 -58 -76.5 -100.5t-129.5 -42.5q-99 0 -154.5 61.5t-55.5 169.5q0 116 66 198.5t180 82.5q98 0 150.5 -65.5t49.5 -144.5l9 55q14 84 15 91l9 50h10l-77 -434q-10 -56 -19.5 -93t-27 -75.5t-41.5 -61t-61 -36.5t-86 -14
q-95 0 -150.5 49.5t-59.5 122.5h10q4 -69 55.5 -115.5t144.5 -46.5zM261 37q104 0 166 81.5t62 202.5q0 93 -53 150.5t-139 57.5q-110 0 -173 -78.5t-63 -193.5q0 -106 54 -163t146 -57zM317 616l15 80h10l-15 -80h-10z" />
    <glyph glyph-name="Gcommaaccent" unicode="&#x122;" horiz-adv-x="786" 
d="M380 -14q-140 0 -227 87.5t-87 243.5q0 111 42 203.5t127 150.5t199 58q122 0 201.5 -60.5t106.5 -167.5h-10q-25 99 -101 158.5t-197 59.5q-87 0 -157.5 -34.5t-113 -92t-65 -128.5t-22.5 -147q0 -146 82.5 -233.5t221.5 -87.5q187 0 281 161q41 74 55 172h-314l2 10
h324l-59 -339h-10l16 87q5 26 13.5 73.5t12.5 64.5h-1q-34 -106 -116 -172.5t-204 -66.5zM296 -163l78 115h11l-77 -115h-12z" />
    <glyph glyph-name="gcommaaccent" unicode="&#x123;" horiz-adv-x="590" 
d="M228 -179q100 0 149.5 58t73.5 197l17 94h-1q-24 -58 -76.5 -100.5t-129.5 -42.5q-99 0 -154.5 61.5t-55.5 169.5q0 116 66 198.5t180 82.5q98 0 150.5 -65.5t49.5 -144.5l9 55q14 84 15 91l9 50h10l-77 -434q-10 -56 -19.5 -93t-27 -75.5t-41.5 -61t-61 -36.5t-86 -14
q-95 0 -150.5 49.5t-59.5 122.5h10q4 -69 55.5 -115.5t144.5 -46.5zM261 37q104 0 166 81.5t62 202.5q0 93 -53 150.5t-139 57.5q-110 0 -173 -78.5t-63 -193.5q0 -106 54 -163t146 -57zM391 715l-78 -115h-11l77 115h12z" />
    <glyph glyph-name="Hcircumflex" unicode="&#x124;" horiz-adv-x="708" 
d="M661 715h10l-127 -715h-10l65 364h-470l-64 -364h-10l127 715h10l-61 -341h470zM439 875h10q12 -18 40 -58t39 -57h-11l-74 106l-112 -106h-13q54 50 121 115z" />
    <glyph glyph-name="hcircumflex" unicode="&#x125;" horiz-adv-x="568" 
d="M35 0l128 715h10l-38 -213q-8 -47 -17 -86q-1 -6 -4.5 -24.5t-5.5 -29.5q10 32 26.5 60.5t42 56t64 44t84.5 16.5q79 0 123.5 -38.5t44.5 -112.5q0 -38 -11 -101l-51 -287h-10l51 289q11 63 11 100q0 65 -40 102.5t-118 37.5q-52 0 -94.5 -22t-68.5 -59t-42 -77t-24 -85
l-51 -286h-10zM191 875h10q12 -18 40 -58t39 -57h-11l-74 106l-112 -106h-13q54 50 121 115z" />
    <glyph glyph-name="Hbar" unicode="&#x126;" horiz-adv-x="710" 
d="M601 367h-471l-65 -367h-10l127 715h10l-23 -128h471l23 128h10l-127 -715h-10zM132 377h471l35 200h-471z" />
    <glyph glyph-name="hbar" unicode="&#x127;" horiz-adv-x="568" 
d="M63 622l2 10h83l15 83h10l-15 -83h130l-2 -10h-130l-21 -120l-27 -139q14 44 38 80.5t71.5 66t107.5 29.5q79 0 123.5 -38.5t44.5 -112.5q0 -38 -11 -101l-51 -287h-10l51 289q11 63 11 100q0 65 -40 102.5t-118 37.5q-52 0 -94.5 -22t-68.5 -59t-42 -77t-24 -85
l-51 -286h-10l111 622h-83z" />
    <glyph glyph-name="Itilde" unicode="&#x128;" horiz-adv-x="229" 
d="M182 715h10l-127 -715h-10zM220 798l-51 25q-28 13 -44 13q-37 0 -50 -59h-10q14 69 60 69q22 0 53 -17l47 -23q32 -15 47 -15q40 0 52 61h10q-13 -71 -62 -71q-16 0 -52 17z" />
    <glyph glyph-name="itilde" unicode="&#x129;" horiz-adv-x="189" 
d="M128 525h10l-93 -525h-10zM176 648l-51 25q-28 13 -44 13q-37 0 -50 -59h-10q14 69 60 69q22 0 53 -17l47 -23q32 -15 47 -15q40 0 52 61h10q-13 -71 -62 -71q-16 0 -52 17z" />
    <glyph glyph-name="Imacron" unicode="&#x12a;" horiz-adv-x="229" 
d="M182 715h10l-127 -715h-10zM74 802l1 10h244l-1 -10h-244z" />
    <glyph glyph-name="imacron" unicode="&#x12b;" horiz-adv-x="189" 
d="M128 525h10l-93 -525h-10zM34 652l1 10h244l-1 -10h-244z" />
    <glyph glyph-name="Ibreve" unicode="&#x12c;" horiz-adv-x="229" 
d="M182 715h10l-127 -715h-10zM196 792q85 0 119 87h10q-30 -96 -129 -96q-97 0 -97 96h10q0 -87 87 -87z" />
    <glyph glyph-name="ibreve" unicode="&#x12d;" horiz-adv-x="189" 
d="M128 525h10l-93 -525h-10zM150 628q85 0 119 87h10q-30 -96 -129 -96q-97 0 -97 96h10q0 -87 87 -87z" />
    <glyph glyph-name="Iogonek" unicode="&#x12e;" horiz-adv-x="229" 
d="M182 715h10l-127 -715h-10zM53 -48l78 -115h-12l-77 115h11z" />
    <glyph glyph-name="iogonek" unicode="&#x12f;" horiz-adv-x="189" 
d="M128 525h10l-93 -525h-10zM152 604h-10l20 111h10zM34 -48l78 -115h-12l-77 115h11z" />
    <glyph glyph-name="Idotaccent" unicode="&#x130;" horiz-adv-x="229" 
d="M182 715h10l-127 -715h-10zM190 766l15 80h10l-15 -80h-10z" />
    <glyph glyph-name="dotlessi" unicode="&#x131;" horiz-adv-x="189" 
d="M128 525h10l-93 -525h-10z" />
    <glyph glyph-name="IJ" unicode="&#x132;" horiz-adv-x="675" 
d="M182 715h10l-127 -715h-10zM635 715h10l-91 -515q-20 -110 -57 -162t-119 -52q-76 0 -110.5 42t-34.5 111q0 16 2 34h10q-2 -16 -2 -34q0 -64 32 -103.5t103 -39.5q76 0 111.5 48.5t54.5 156.5z" />
    <glyph glyph-name="ij" unicode="&#x133;" horiz-adv-x="378" 
d="M128 525h10l-93 -525h-10zM152 604h-10l20 111h10zM94 -196l2 10q3 -1 17 -1q43 0 65 24.5t33 85.5l106 602h10l-106 -602q-10 -64 -34 -92t-74 -28q-16 0 -19 1zM341 604h-10l20 111h10z" />
    <glyph glyph-name="Jcircumflex" unicode="&#x134;" horiz-adv-x="446" 
d="M406 715h10l-91 -515q-20 -110 -57 -162t-119 -52q-76 0 -110.5 42t-34.5 111q0 16 2 34h10q-2 -16 -2 -34q0 -64 32 -103.5t103 -39.5q76 0 111.5 48.5t54.5 156.5zM426 875h10q12 -18 40 -58t39 -57h-11l-74 106l-112 -106h-13q54 50 121 115z" />
    <glyph glyph-name="jcircumflex" unicode="&#x135;" horiz-adv-x="189" 
d="M-95 -196l2 10q3 -1 17 -1q43 0 65 24.5t33 85.5l106 602h10l-106 -602q-10 -64 -34 -92t-74 -28q-16 0 -19 1zM159 715h10q29 -44 81 -119h-11l-76 110l-114 -110h-13q74 70 123 119z" />
    <glyph glyph-name="Kcommaaccent" unicode="&#x136;" horiz-adv-x="556" 
d="M55 0l127 715h10l-59 -333l459 333h16l-465 -337l347 -378h-13l-345 375l-67 -375h-10zM179 -163l78 115h11l-77 -115h-12z" />
    <glyph glyph-name="kcommaaccent" unicode="&#x137;" horiz-adv-x="435" 
d="M365 0h-14l-256 283l-50 -283h-10l127 715h10l-76 -427l329 237h18l-337 -240zM112 -163l78 115h11l-77 -115h-12z" />
    <glyph glyph-name="kgreenlandic" unicode="&#x138;" horiz-adv-x="435" 
d="M128 525h10l-42 -237l329 237h18l-337 -240l259 -285h-14l-256 283l-50 -283h-10z" />
    <glyph glyph-name="Lacute" unicode="&#x139;" horiz-adv-x="538" 
d="M182 715h10l-125 -705h400l-2 -10h-410zM319 877l-128 -116h-13l126 116h15z" />
    <glyph glyph-name="lacute" unicode="&#x13a;" horiz-adv-x="199" 
d="M167 715h10l-127 -715h-10zM301 877l-128 -116h-13l126 116h15z" />
    <glyph glyph-name="Lcommaaccent" unicode="&#x13b;" horiz-adv-x="538" 
d="M182 715h10l-125 -705h400l-2 -10h-410zM190 -163l78 115h11l-77 -115h-12z" />
    <glyph glyph-name="lcommaaccent" unicode="&#x13c;" horiz-adv-x="199" 
d="M167 715h10l-127 -715h-10zM-31 -163l78 115h11l-77 -115h-12z" />
    <glyph glyph-name="Lcaron" unicode="&#x13d;" horiz-adv-x="538" 
d="M182 715h10l-125 -705h400l-2 -10h-410zM473 715l-118 -232h-10l117 232h11z" />
    <glyph glyph-name="lcaron" unicode="&#x13e;" horiz-adv-x="240" 
d="M167 715h10l-127 -715h-10zM363 715l-118 -232h-10l117 232h11z" />
    <glyph glyph-name="Ldot" unicode="&#x13f;" horiz-adv-x="538" 
d="M182 715h10l-125 -705h400l-2 -10h-410zM324 261l19 111h10l-19 -111h-10z" />
    <glyph glyph-name="ldot" unicode="&#x140;" horiz-adv-x="278" 
d="M167 715h10l-127 -715h-10zM226 261l19 111h10l-19 -111h-10z" />
    <glyph glyph-name="Lslash" unicode="&#x141;" horiz-adv-x="539" 
d="M183 715h10l-64 -363l191 113l-3 -13l-190 -111l-59 -331h400l-2 -10h-410l59 334l-91 -53l3 12l90 53z" />
    <glyph glyph-name="lslash" unicode="&#x142;" horiz-adv-x="209" 
d="M171 715h10l-59 -328l106 62l-3 -13l-105 -61l-66 -375h-10l65 368l-99 -58l3 12l98 58z" />
    <glyph glyph-name="Nacute" unicode="&#x143;" horiz-adv-x="700" 
d="M182 715h13l209 -438q17 -36 66 -138.5t59 -125.5h1q7 58 47 273l76 429h10l-127 -715h-10l-206 431q-30 63 -74 154.5t-56 118.5h-1q-8 -72 -60 -343l-64 -361h-10zM526 877l-128 -116h-13l126 116h15z" />
    <glyph glyph-name="nacute" unicode="&#x144;" horiz-adv-x="569" 
d="M36 0l78 445l15 80h11l-31 -163q10 32 26.5 60.5t42 56t64 44t84.5 16.5q79 0 123.5 -38.5t44.5 -112.5q0 -38 -11 -101l-51 -287h-10l51 289q11 63 11 100q0 65 -40 102.5t-118 37.5q-52 0 -94.5 -22t-68.5 -59t-42 -77t-24 -85l-51 -286h-10zM437 715l-133 -119h-13
l131 119h15z" />
    <glyph glyph-name="Ncommaaccent" unicode="&#x145;" horiz-adv-x="700" 
d="M182 715h13l209 -438q17 -36 66 -138.5t59 -125.5h1q7 58 47 273l76 429h10l-127 -715h-10l-206 431q-30 63 -74 154.5t-56 118.5h-1q-8 -72 -60 -343l-64 -361h-10zM311 -47l-78 -115h-11l77 115h12z" />
    <glyph glyph-name="ncommaaccent" unicode="&#x146;" horiz-adv-x="569" 
d="M36 0l78 445l15 80h11l-31 -163q10 32 26.5 60.5t42 56t64 44t84.5 16.5q79 0 123.5 -38.5t44.5 -112.5q0 -38 -11 -101l-51 -287h-10l51 289q11 63 11 100q0 65 -40 102.5t-118 37.5q-52 0 -94.5 -22t-68.5 -59t-42 -77t-24 -85l-51 -286h-10zM253 -47l-78 -115h-11
l77 115h12z" />
    <glyph glyph-name="Ncaron" unicode="&#x147;" horiz-adv-x="700" 
d="M182 715h13l209 -438q17 -36 66 -138.5t59 -125.5h1q7 58 47 273l76 429h10l-127 -715h-10l-206 431q-30 63 -74 154.5t-56 118.5h-1q-8 -72 -60 -343l-64 -361h-10zM417 760h-10q-12 18 -40 58t-39 57h11l74 -106l112 106h13q-54 -50 -121 -115z" />
    <glyph glyph-name="ncaron" unicode="&#x148;" horiz-adv-x="569" 
d="M36 0l78 445l15 80h11l-31 -163q10 32 26.5 60.5t42 56t64 44t84.5 16.5q79 0 123.5 -38.5t44.5 -112.5q0 -38 -11 -101l-51 -287h-10l51 289q11 63 11 100q0 65 -40 102.5t-118 37.5q-52 0 -94.5 -22t-68.5 -59t-42 -77t-24 -85l-51 -286h-10zM328 596h-10
q-29 44 -81 119h11l76 -110l114 110h13q-19 -19 -62.5 -60.5t-60.5 -58.5z" />
    <glyph glyph-name="napostrophe" unicode="&#x149;" horiz-adv-x="596" 
d="M63 0l78 445l15 80h11l-31 -163q10 32 26.5 60.5t42 56t64 44t84.5 16.5q79 0 123.5 -38.5t44.5 -112.5q0 -38 -11 -101l-51 -287h-10l51 289q11 63 11 100q0 65 -40 102.5t-118 37.5q-52 0 -94.5 -22t-68.5 -59t-42 -77t-24 -85l-51 -286h-10zM165 715l-118 -232h-10
l117 232h11z" />
    <glyph glyph-name="Eng" unicode="&#x14a;" horiz-adv-x="700" 
d="M182 715h13l209 -438q17 -36 66 -138.5t59 -125.5h1q7 58 47 273l76 429h10l-123 -695q-20 -110 -57 -162t-119 -52q-76 0 -110.5 42t-34.5 111q0 16 2 34h10q-2 -16 -2 -34q0 -64 32 -103.5t103 -39.5q72 0 107.5 44t54.5 138l-206 433q-30 63 -74 154.5t-56 118.5h-1
q-8 -72 -60 -343l-64 -361h-10z" />
    <glyph glyph-name="eng" unicode="&#x14b;" horiz-adv-x="569" 
d="M97 286l-65 -363q-12 -65 -35.5 -92.5t-72.5 -27.5q-16 0 -19 1l2 10q3 -1 17 -1q43 0 65 24.5t33 85.5l92 522l15 80h11l-31 -163q10 32 26.5 60.5t42 56t64 44t84.5 16.5q79 0 123.5 -38.5t44.5 -112.5q0 -38 -11 -101l-51 -287h-10l51 289q11 63 11 100
q0 65 -40 102.5t-118 37.5q-52 0 -94.5 -22t-68.5 -59t-42 -77t-24 -85z" />
    <glyph glyph-name="Omacron" unicode="&#x14c;" horiz-adv-x="808" 
d="M435 729q148 0 236.5 -88t88.5 -235q0 -182 -101.5 -301t-274.5 -119q-142 0 -230 87t-88 245q0 172 99.5 291.5t269.5 119.5zM435 719q-85 0 -154.5 -34t-113.5 -90.5t-67.5 -127.5t-23.5 -149q0 -148 84.5 -235t223.5 -87q117 0 202 58.5t124.5 149.5t39.5 202
q0 141 -84 227t-231 86zM337 802l1 10h244l-1 -10h-244z" />
    <glyph glyph-name="omacron" unicode="&#x14d;" horiz-adv-x="619" 
d="M279 -3q126 0 197.5 85.5t71.5 217.5q0 103 -59 166t-166 63q-127 0 -198 -88.5t-71 -216.5q0 -107 60 -167t165 -60zM279 -13q-112 0 -173.5 62.5t-61.5 174.5q0 133 74.5 224t204.5 91q111 0 173.5 -65t62.5 -174q0 -136 -75.5 -224.5t-204.5 -88.5zM225 652l1 10h244
l-1 -10h-244z" />
    <glyph glyph-name="Obreve" unicode="&#x14e;" horiz-adv-x="808" 
d="M435 729q148 0 236.5 -88t88.5 -235q0 -182 -101.5 -301t-274.5 -119q-142 0 -230 87t-88 245q0 172 99.5 291.5t269.5 119.5zM435 719q-85 0 -154.5 -34t-113.5 -90.5t-67.5 -127.5t-23.5 -149q0 -148 84.5 -235t223.5 -87q117 0 202 58.5t124.5 149.5t39.5 202
q0 141 -84 227t-231 86zM461 792q85 0 119 87h10q-30 -96 -129 -96q-97 0 -97 96h10q0 -87 87 -87z" />
    <glyph glyph-name="obreve" unicode="&#x14f;" horiz-adv-x="619" 
d="M279 -3q126 0 197.5 85.5t71.5 217.5q0 103 -59 166t-166 63q-127 0 -198 -88.5t-71 -216.5q0 -107 60 -167t165 -60zM279 -13q-112 0 -173.5 62.5t-61.5 174.5q0 133 74.5 224t204.5 91q111 0 173.5 -65t62.5 -174q0 -136 -75.5 -224.5t-204.5 -88.5zM348 628
q85 0 119 87h10q-30 -96 -129 -96q-97 0 -97 96h10q0 -87 87 -87z" />
    <glyph glyph-name="Ohungarumlaut" unicode="&#x150;" horiz-adv-x="808" 
d="M435 729q148 0 236.5 -88t88.5 -235q0 -182 -101.5 -301t-274.5 -119q-142 0 -230 87t-88 245q0 172 99.5 291.5t269.5 119.5zM435 719q-85 0 -154.5 -34t-113.5 -90.5t-67.5 -127.5t-23.5 -149q0 -148 84.5 -235t223.5 -87q117 0 202 58.5t124.5 149.5t39.5 202
q0 141 -84 227t-231 86zM488 877l-126 -116h-14l126 116h14zM658 877l-126 -116h-14l126 116h14z" />
    <glyph glyph-name="ohungarumlaut" unicode="&#x151;" horiz-adv-x="619" 
d="M279 -3q126 0 197.5 85.5t71.5 217.5q0 103 -59 166t-166 63q-127 0 -198 -88.5t-71 -216.5q0 -107 60 -167t165 -60zM279 -13q-112 0 -173.5 62.5t-61.5 174.5q0 133 74.5 224t204.5 91q111 0 173.5 -65t62.5 -174q0 -136 -75.5 -224.5t-204.5 -88.5zM374 715l-131 -119
h-14l131 119h14zM529 715l-131 -119h-14l131 119h14z" />
    <glyph glyph-name="OE" unicode="&#x152;" horiz-adv-x="1236" 
d="M686 0l24 134l12 65q3 11 7 33q-39 -115 -127 -180.5t-217 -65.5q-142 0 -230.5 87t-88.5 245q0 172 99.5 291.5t269.5 119.5q146 0 236 -87.5t88 -234.5q5 30 7 41l14 83l33 184h431l-2 -10h-421l-59 -332h397l-2 -10h-397l-62 -353h428l-2 -10h-438zM435 719
q-85 0 -154.5 -34t-113.5 -90.5t-67.5 -127.5t-23.5 -149q0 -148 85 -235t224 -87q88 0 158.5 33.5t115 90.5t68 130.5t23.5 155.5q0 141 -84 227t-231 86z" />
    <glyph glyph-name="oe" unicode="&#x153;" horiz-adv-x="1092" 
d="M1040 280l-481 1q-3 -13 -3 -51q0 -109 58 -171t163 -62q160 0 231 153h10q-71 -163 -241 -163q-104 0 -165.5 58.5t-63.5 168.5q-22 -106 -93 -166.5t-176 -60.5q-112 0 -173.5 62.5t-61.5 174.5q0 133 74.5 224t204.5 91q107 0 169.5 -61.5t64.5 -167.5q19 101 88 165
t172 64q109 0 166 -65t57 -178v-16zM279 -3q126 0 197.5 85.5t71.5 217.5q0 104 -58.5 166.5t-166.5 62.5q-127 0 -198 -88.5t-71 -216.5q0 -107 60 -167t165 -60zM817 529q-106 0 -171 -67.5t-85 -170.5h468v9q0 106 -53 167.5t-159 61.5z" />
    <glyph glyph-name="Racute" unicode="&#x154;" horiz-adv-x="598" 
d="M55 0l127 715h176q46 0 84.5 -8.5t72 -26.5t52.5 -52.5t19 -81.5q0 -102 -67 -160t-172 -64l137 -322h-11l-136 321h-215l-57 -321h-10zM191 705l-67 -374h192q47 0 90 10.5t82.5 34t63 67.5t23.5 103q0 83 -58.5 121t-158.5 38h-167zM473 877l-128 -116h-13l126 116h15z
" />
    <glyph glyph-name="racute" unicode="&#x155;" horiz-adv-x="261" 
d="M105 347h1q16 79 59 134t104 55q11 0 18 -1l-2 -10q-7 1 -16 1q-128 0 -177 -260l-47 -266h-10l79 446l14 79h10l-12 -70q-10 -43 -21 -108zM275 715l-133 -119h-13l131 119h15z" />
    <glyph glyph-name="Rcommaaccent" unicode="&#x156;" horiz-adv-x="598" 
d="M55 0l127 715h176q46 0 84.5 -8.5t72 -26.5t52.5 -52.5t19 -81.5q0 -102 -67 -160t-172 -64l137 -322h-11l-136 321h-215l-57 -321h-10zM191 705l-67 -374h192q47 0 90 10.5t82.5 34t63 67.5t23.5 103q0 83 -58.5 121t-158.5 38h-167zM174 -163l78 115h11l-77 -115h-12z
" />
    <glyph glyph-name="rcommaaccent" unicode="&#x157;" horiz-adv-x="261" 
d="M105 347h1q16 79 59 134t104 55q11 0 18 -1l-2 -10q-7 1 -16 1q-128 0 -177 -260l-47 -266h-10l79 446l14 79h10l-12 -70q-10 -43 -21 -108zM-27 -163l78 115h11l-77 -115h-12z" />
    <glyph glyph-name="Rcaron" unicode="&#x158;" horiz-adv-x="598" 
d="M55 0l127 715h176q46 0 84.5 -8.5t72 -26.5t52.5 -52.5t19 -81.5q0 -102 -67 -160t-172 -64l137 -322h-11l-136 321h-215l-57 -321h-10zM191 705l-67 -374h192q47 0 90 10.5t82.5 34t63 67.5t23.5 103q0 83 -58.5 121t-158.5 38h-167zM366 760h-10q-12 18 -40 58t-39 57
h11l74 -106l112 106h13q-54 -50 -121 -115z" />
    <glyph glyph-name="rcaron" unicode="&#x159;" horiz-adv-x="261" 
d="M105 347h1q16 79 59 134t104 55q11 0 18 -1l-2 -10q-7 1 -16 1q-128 0 -177 -260l-47 -266h-10l79 446l14 79h10l-12 -70q-10 -43 -21 -108zM154 596h-10q-29 44 -81 119h11l76 -110l114 110h13q-19 -19 -62.5 -60.5t-60.5 -58.5z" />
    <glyph glyph-name="Sacute" unicode="&#x15a;" horiz-adv-x="604" 
d="M30 203h10q5 -100 67.5 -153.5t176.5 -53.5q104 0 169.5 48.5t65.5 136.5q0 33 -12.5 59t-45 48.5t-48.5 30.5t-63 29q-11 5 -17 8l-42 19q-97 44 -137.5 80.5t-40.5 103.5q0 78 56.5 124t162.5 46q113 0 176.5 -52t64.5 -147h-10q-2 87 -61 138t-170 51
q-97 0 -153 -41.5t-56 -118.5q0 -64 40.5 -100t130.5 -75l55 -24q47 -21 74 -36t54.5 -36.5t39.5 -47.5t12 -59q0 -91 -67.5 -143t-177.5 -52q-112 0 -181 55t-73 162zM477 877l-128 -116h-13l126 116h15z" />
    <glyph glyph-name="sacute" unicode="&#x15b;" horiz-adv-x="500" 
d="M18 159h10q11 -162 192 -162q89 0 138.5 37t49.5 101q0 25 -9.5 43.5t-31 33t-39 23t-50.5 21.5l-52 20q-78 29 -110 56t-32 78q0 58 48 93.5t129 35.5q89 0 140 -40t52 -112h-10q-2 67 -48.5 104.5t-133.5 37.5q-80 0 -123.5 -33t-43.5 -86q0 -45 27.5 -70t107.5 -56
l53 -20q37 -14 54 -22.5t40 -24t32.5 -35.5t9.5 -47q0 -69 -53.5 -108.5t-144.5 -39.5q-95 0 -146 44.5t-56 127.5zM396 715l-133 -119h-13l131 119h15z" />
    <glyph glyph-name="Scircumflex" unicode="&#x15c;" horiz-adv-x="604" 
d="M30 203h10q5 -100 67.5 -153.5t176.5 -53.5q104 0 169.5 48.5t65.5 136.5q0 33 -12.5 59t-45 48.5t-48.5 30.5t-63 29q-11 5 -17 8l-42 19q-97 44 -137.5 80.5t-40.5 103.5q0 78 56.5 124t162.5 46q113 0 176.5 -52t64.5 -147h-10q-2 87 -61 138t-170 51
q-97 0 -153 -41.5t-56 -118.5q0 -64 40.5 -100t130.5 -75l55 -24q47 -21 74 -36t54.5 -36.5t39.5 -47.5t12 -59q0 -91 -67.5 -143t-177.5 -52q-112 0 -181 55t-73 162zM375 875h10q12 -18 40 -58t39 -57h-11l-74 106l-112 -106h-13q54 50 121 115z" />
    <glyph glyph-name="scircumflex" unicode="&#x15d;" horiz-adv-x="500" 
d="M18 159h10q11 -162 192 -162q89 0 138.5 37t49.5 101q0 25 -9.5 43.5t-31 33t-39 23t-50.5 21.5l-52 20q-78 29 -110 56t-32 78q0 58 48 93.5t129 35.5q89 0 140 -40t52 -112h-10q-2 67 -48.5 104.5t-133.5 37.5q-80 0 -123.5 -33t-43.5 -86q0 -45 27.5 -70t107.5 -56
l53 -20q37 -14 54 -22.5t40 -24t32.5 -35.5t9.5 -47q0 -69 -53.5 -108.5t-144.5 -39.5q-95 0 -146 44.5t-56 127.5zM310 715h10q29 -44 81 -119h-11l-76 110l-114 -110h-13q74 70 123 119z" />
    <glyph glyph-name="Scedilla" unicode="&#x15e;" horiz-adv-x="604" 
d="M30 203h10q5 -100 67.5 -153.5t176.5 -53.5q104 0 169.5 48.5t65.5 136.5q0 33 -12.5 59t-45 48.5t-48.5 30.5t-63 29q-11 5 -17 8l-42 19q-97 44 -137.5 80.5t-40.5 103.5q0 78 56.5 124t162.5 46q113 0 176.5 -52t64.5 -147h-10q-2 87 -61 138t-170 51
q-97 0 -153 -41.5t-56 -118.5q0 -64 40.5 -100t130.5 -75l55 -24q47 -21 74 -36t54.5 -36.5t39.5 -47.5t12 -59q0 -91 -67.5 -143t-177.5 -52q-112 0 -181 55t-73 162zM185 -163l78 115h11l-77 -115h-12z" />
    <glyph glyph-name="scedilla" unicode="&#x15f;" horiz-adv-x="500" 
d="M18 159h10q11 -162 192 -162q89 0 138.5 37t49.5 101q0 25 -9.5 43.5t-31 33t-39 23t-50.5 21.5l-52 20q-78 29 -110 56t-32 78q0 58 48 93.5t129 35.5q89 0 140 -40t52 -112h-10q-2 67 -48.5 104.5t-133.5 37.5q-80 0 -123.5 -33t-43.5 -86q0 -45 27.5 -70t107.5 -56
l53 -20q37 -14 54 -22.5t40 -24t32.5 -35.5t9.5 -47q0 -69 -53.5 -108.5t-144.5 -39.5q-95 0 -146 44.5t-56 127.5zM130 -163l78 115h11l-77 -115h-12z" />
    <glyph glyph-name="Scaron" unicode="&#x160;" horiz-adv-x="604" 
d="M30 203h10q5 -100 67.5 -153.5t176.5 -53.5q104 0 169.5 48.5t65.5 136.5q0 33 -12.5 59t-45 48.5t-48.5 30.5t-63 29q-11 5 -17 8l-42 19q-97 44 -137.5 80.5t-40.5 103.5q0 78 56.5 124t162.5 46q113 0 176.5 -52t64.5 -147h-10q-2 87 -61 138t-170 51
q-97 0 -153 -41.5t-56 -118.5q0 -64 40.5 -100t130.5 -75l55 -24q47 -21 74 -36t54.5 -36.5t39.5 -47.5t12 -59q0 -91 -67.5 -143t-177.5 -52q-112 0 -181 55t-73 162zM365 760h-10q-12 18 -40 58t-39 57h11l74 -106l112 106h13q-54 -50 -121 -115z" />
    <glyph glyph-name="scaron" unicode="&#x161;" horiz-adv-x="500" 
d="M18 159h10q11 -162 192 -162q89 0 138.5 37t49.5 101q0 25 -9.5 43.5t-31 33t-39 23t-50.5 21.5l-52 20q-78 29 -110 56t-32 78q0 58 48 93.5t129 35.5q89 0 140 -40t52 -112h-10q-2 67 -48.5 104.5t-133.5 37.5q-80 0 -123.5 -33t-43.5 -86q0 -45 27.5 -70t107.5 -56
l53 -20q37 -14 54 -22.5t40 -24t32.5 -35.5t9.5 -47q0 -69 -53.5 -108.5t-144.5 -39.5q-95 0 -146 44.5t-56 127.5zM289 596h-10q-29 44 -81 119h11l76 -110l114 110h13q-19 -19 -62.5 -60.5t-60.5 -58.5z" />
    <glyph glyph-name="uni0162" unicode="&#x162;" horiz-adv-x="528" 
d="M202 0l125 705h-238l2 10h485l-2 -10h-237l-125 -705h-10zM131 -163l78 115h11l-77 -115h-12z" />
    <glyph glyph-name="uni0163" unicode="&#x163;" horiz-adv-x="229" 
d="M158 5l-2 -10q-6 -2 -20 -2q-75 0 -75 74q0 17 6 51l71 397h-70l1 10h71l25 142h10l-25 -142h92l-1 -10h-93l-72 -398q-5 -32 -5 -50q0 -64 65 -64q14 0 22 2zM35 -163l78 115h11l-77 -115h-12z" />
    <glyph glyph-name="Tcaron" unicode="&#x164;" horiz-adv-x="528" 
d="M202 0l125 705h-238l2 10h485l-2 -10h-237l-125 -705h-10zM348 760h-10q-12 18 -40 58t-39 57h11l74 -106l112 106h13q-54 -50 -121 -115z" />
    <glyph glyph-name="tcaron" unicode="&#x165;" horiz-adv-x="275" 
d="M158 5l-2 -10q-6 -2 -20 -2q-75 0 -75 74q0 17 6 51l71 397h-70l1 10h71l25 142h10l-25 -142h92l-1 -10h-93l-72 -398q-5 -32 -5 -50q0 -64 65 -64q14 0 22 2zM415 715l-118 -232h-10l117 232h11z" />
    <glyph glyph-name="Tbar" unicode="&#x166;" horiz-adv-x="552" 
d="M116 362l2 10h161l59 333h-238l2 10h485l-2 -10h-237l-59 -333h173l-2 -10h-173l-64 -362h-10l64 362h-161z" />
    <glyph glyph-name="tbar" unicode="&#x167;" horiz-adv-x="233" 
d="M38 322l2 10h66l33 183h-70l1 10h71l25 142h10l-25 -142h92l-1 -10h-93l-33 -183h99l-2 -10h-99l-37 -205q-5 -32 -5 -50q0 -64 65 -64q14 0 22 2l-2 -10q-6 -2 -20 -2q-75 0 -75 74q0 17 6 51l36 204h-66z" />
    <glyph glyph-name="Utilde" unicode="&#x168;" horiz-adv-x="669" 
d="M285 -4q123 0 181 62t82 191l82 466h10l-82 -466q-24 -140 -88.5 -201.5t-184.5 -61.5q-104 0 -153.5 42t-49.5 134q0 39 9 87l82 466h10l-82 -466q-9 -47 -9 -86q0 -84 45.5 -125.5t147.5 -41.5zM441 798l-51 25q-28 13 -44 13q-37 0 -50 -59h-10q14 69 60 69
q22 0 53 -17l47 -23q32 -15 47 -15q40 0 52 61h10q-13 -71 -62 -71q-16 0 -52 17z" />
    <glyph glyph-name="utilde" unicode="&#x169;" horiz-adv-x="562" 
d="M511 525l-78 -445l-15 -80h-11l31 163q-10 -32 -25.5 -60.5t-40.5 -56t-63 -44t-84 -16.5q-78 0 -122 38.5t-44 111.5q0 39 11 102l51 287h10l-51 -289q-11 -63 -11 -100q0 -65 39 -102.5t117 -37.5q52 0 93.5 22t67 59.5t41 77t23.5 84.5l51 286h10zM361 648l-51 25
q-28 13 -44 13q-37 0 -50 -59h-10q14 69 60 69q22 0 53 -17l47 -23q32 -15 47 -15q40 0 52 61h10q-13 -71 -62 -71q-16 0 -52 17z" />
    <glyph glyph-name="Umacron" unicode="&#x16a;" horiz-adv-x="669" 
d="M285 -4q123 0 181 62t82 191l82 466h10l-82 -466q-24 -140 -88.5 -201.5t-184.5 -61.5q-104 0 -153.5 42t-49.5 134q0 39 9 87l82 466h10l-82 -466q-9 -47 -9 -86q0 -84 45.5 -125.5t147.5 -41.5zM299 802l1 10h244l-1 -10h-244z" />
    <glyph glyph-name="umacron" unicode="&#x16b;" horiz-adv-x="562" 
d="M511 525l-78 -445l-15 -80h-11l31 163q-10 -32 -25.5 -60.5t-40.5 -56t-63 -44t-84 -16.5q-78 0 -122 38.5t-44 111.5q0 39 11 102l51 287h10l-51 -289q-11 -63 -11 -100q0 -65 39 -102.5t117 -37.5q52 0 93.5 22t67 59.5t41 77t23.5 84.5l51 286h10zM210 652l1 10h244
l-1 -10h-244z" />
    <glyph glyph-name="Ubreve" unicode="&#x16c;" horiz-adv-x="669" 
d="M285 -4q123 0 181 62t82 191l82 466h10l-82 -466q-24 -140 -88.5 -201.5t-184.5 -61.5q-104 0 -153.5 42t-49.5 134q0 39 9 87l82 466h10l-82 -466q-9 -47 -9 -86q0 -84 45.5 -125.5t147.5 -41.5zM414 792q85 0 119 87h10q-30 -96 -129 -96q-97 0 -97 96h10q0 -87 87 -87
z" />
    <glyph glyph-name="ubreve" unicode="&#x16d;" horiz-adv-x="562" 
d="M511 525l-78 -445l-15 -80h-11l31 163q-10 -32 -25.5 -60.5t-40.5 -56t-63 -44t-84 -16.5q-78 0 -122 38.5t-44 111.5q0 39 11 102l51 287h10l-51 -289q-11 -63 -11 -100q0 -65 39 -102.5t117 -37.5q52 0 93.5 22t67 59.5t41 77t23.5 84.5l51 286h10zM334 628
q85 0 119 87h10q-30 -96 -129 -96q-97 0 -97 96h10q0 -87 87 -87z" />
    <glyph glyph-name="Uring" unicode="&#x16e;" horiz-adv-x="669" 
d="M285 -4q123 0 181 62t82 191l82 466h10l-82 -466q-24 -140 -88.5 -201.5t-184.5 -61.5q-104 0 -153.5 42t-49.5 134q0 39 9 87l82 466h10l-82 -466q-9 -47 -9 -86q0 -84 45.5 -125.5t147.5 -41.5zM422 759q-32 0 -54 22.5t-22 55.5q0 32 22 54t54 22t55 -22t23 -54
q0 -33 -22.5 -55.5t-55.5 -22.5zM355 837q0 -29 19 -49t48 -20t49 19.5t20 49.5q0 28 -20 47.5t-49 19.5t-48 -19.5t-19 -47.5z" />
    <glyph glyph-name="uring" unicode="&#x16f;" horiz-adv-x="562" 
d="M511 525l-78 -445l-15 -80h-11l31 163q-10 -32 -25.5 -60.5t-40.5 -56t-63 -44t-84 -16.5q-78 0 -122 38.5t-44 111.5q0 39 11 102l51 287h10l-51 -289q-11 -63 -11 -100q0 -65 39 -102.5t117 -37.5q52 0 93.5 22t67 59.5t41 77t23.5 84.5l51 286h10zM338 599
q-32 0 -54 22.5t-22 55.5q0 32 22 54t54 22t55 -22t23 -54q0 -33 -22.5 -55.5t-55.5 -22.5zM271 677q0 -29 19 -49t48 -20t49 19.5t20 49.5q0 28 -20 47.5t-49 19.5t-48 -19.5t-19 -47.5z" />
    <glyph glyph-name="Uhungarumlaut" unicode="&#x170;" horiz-adv-x="669" 
d="M285 -4q123 0 181 62t82 191l82 466h10l-82 -466q-24 -140 -88.5 -201.5t-184.5 -61.5q-104 0 -153.5 42t-49.5 134q0 39 9 87l82 466h10l-82 -466q-9 -47 -9 -86q0 -84 45.5 -125.5t147.5 -41.5zM435 877l-126 -116h-14l126 116h14zM605 877l-126 -116h-14l126 116h14z
" />
    <glyph glyph-name="uhungarumlaut" unicode="&#x171;" horiz-adv-x="562" 
d="M511 525l-78 -445l-15 -80h-11l31 163q-10 -32 -25.5 -60.5t-40.5 -56t-63 -44t-84 -16.5q-78 0 -122 38.5t-44 111.5q0 39 11 102l51 287h10l-51 -289q-11 -63 -11 -100q0 -65 39 -102.5t117 -37.5q52 0 93.5 22t67 59.5t41 77t23.5 84.5l51 286h10zM359 715l-131 -119
h-14l131 119h14zM514 715l-131 -119h-14l131 119h14z" />
    <glyph glyph-name="Uogonek" unicode="&#x172;" horiz-adv-x="669" 
d="M285 -4q123 0 181 62t82 191l82 466h10l-82 -466q-24 -140 -88.5 -201.5t-184.5 -61.5q-104 0 -153.5 42t-49.5 134q0 39 9 87l82 466h10l-82 -466q-9 -47 -9 -86q0 -84 45.5 -125.5t147.5 -41.5zM262 -48l78 -115h-12l-77 115h11z" />
    <glyph glyph-name="uogonek" unicode="&#x173;" horiz-adv-x="562" 
d="M511 525l-78 -445l-15 -80h-11l31 163q-10 -32 -25.5 -60.5t-40.5 -56t-63 -44t-84 -16.5q-78 0 -122 38.5t-44 111.5q0 39 11 102l51 287h10l-51 -289q-11 -63 -11 -100q0 -65 39 -102.5t117 -37.5q52 0 93.5 22t67 59.5t41 77t23.5 84.5l51 286h10zM212 -48l78 -115
h-12l-77 115h11z" />
    <glyph glyph-name="Wcircumflex" unicode="&#x174;" horiz-adv-x="749" 
d="M770 715l-286 -715h-9l-17 383q-11 245 -14 314h-2q-68 -170 -130 -320l-156 -377h-10l-29 715h10l17 -449q1 -28 3.5 -78.5t4 -92.5t1.5 -79h1q29 73 102 249l185 450h11l20 -443q9 -193 10 -253h1l102 258l175 438h10zM467 875h10q12 -18 40 -58t39 -57h-11l-74 106
l-112 -106h-13q54 50 121 115z" />
    <glyph glyph-name="wcircumflex" unicode="&#x175;" horiz-adv-x="748" 
d="M407 525h14l28 -284q11 -100 21 -228h2q32 62 38 74q31 64 68 134l159 304h11q-27 -50 -169 -322l-105 -203h-11l-50 515h-2l-243 -515h-11l-82 525h10l48 -302q4 -21 10 -68t9 -68q3 -25 11 -75h2q47 105 107 233zM439 715h10q29 -44 81 -119h-11l-76 110l-114 -110h-13
q74 70 123 119z" />
    <glyph glyph-name="Ycircumflex" unicode="&#x176;" horiz-adv-x="596" 
d="M232 0l48 272l-181 443h10l177 -433q70 88 189.5 242t148.5 191h12l-346 -443l-48 -272h-10zM378 875h10q12 -18 40 -58t39 -57h-11l-74 106l-112 -106h-13q54 50 121 115z" />
    <glyph glyph-name="ycircumflex" unicode="&#x177;" horiz-adv-x="486" 
d="M91 -180h-11l102 180l-113 525h11l63 -299q5 -26 21.5 -99t23.5 -113h2q21 40 69 124t55 97l162 290h11q-86 -160 -396 -705zM293 715h10q29 -44 81 -119h-11l-76 110l-114 -110h-13q74 70 123 119z" />
    <glyph glyph-name="Ydieresis" unicode="&#x178;" horiz-adv-x="596" 
d="M232 0l48 272l-181 443h10l177 -433q70 88 189.5 242t148.5 191h12l-346 -443l-48 -272h-10zM297 766l15 80h10l-15 -80h-10zM410 766l15 80h10l-15 -80h-10z" />
    <glyph glyph-name="Zacute" unicode="&#x179;" horiz-adv-x="561" 
d="M-26 0l2 7q12 12 39 42.5t60.5 69t48.5 55.5l340 385l128 146h-492l2 10h506l-2 -7q-4 -4 -144 -165l-323 -366q-101 -110 -149 -167h483l-2 -10h-497zM450 877l-128 -116h-13l126 116h15z" />
    <glyph glyph-name="zacute" unicode="&#x17a;" horiz-adv-x="479" 
d="M-20 0l2 8l324 339q124 126 161 168h-396l2 10h412l-2 -8l-314 -328q-16 -16 -88.5 -91.5t-84.5 -87.5h395l-2 -10h-409zM381 715l-133 -119h-13l131 119h15z" />
    <glyph glyph-name="Zdotaccent" unicode="&#x17b;" horiz-adv-x="561" 
d="M-26 0l2 7q12 12 39 42.5t60.5 69t48.5 55.5l340 385l128 146h-492l2 10h506l-2 -7q-4 -4 -144 -165l-323 -366q-101 -110 -149 -167h483l-2 -10h-497zM341 766l15 80h10l-15 -80h-10z" />
    <glyph glyph-name="zdotaccent" unicode="&#x17c;" horiz-adv-x="479" 
d="M-20 0l2 8l324 339q124 126 161 168h-396l2 10h412l-2 -8l-314 -328q-16 -16 -88.5 -91.5t-84.5 -87.5h395l-2 -10h-409zM268 616l15 80h10l-15 -80h-10z" />
    <glyph glyph-name="Zcaron" unicode="&#x17d;" horiz-adv-x="561" 
d="M-26 0l2 7q12 12 39 42.5t60.5 69t48.5 55.5l340 385l128 146h-492l2 10h506l-2 -7q-4 -4 -144 -165l-323 -366q-101 -110 -149 -167h483l-2 -10h-497zM348 760h-10q-12 18 -40 58t-39 57h11l74 -106l112 106h13q-54 -50 -121 -115z" />
    <glyph glyph-name="zcaron" unicode="&#x17e;" horiz-adv-x="479" 
d="M-20 0l2 8l324 339q124 126 161 168h-396l2 10h412l-2 -8l-314 -328q-16 -16 -88.5 -91.5t-84.5 -87.5h395l-2 -10h-409zM265 596h-10q-29 44 -81 119h11l76 -110l114 110h13q-19 -19 -62.5 -60.5t-60.5 -58.5z" />
    <glyph glyph-name="uni0186" unicode="&#x186;" horiz-adv-x="771" 
d="M84 508h-10q43 104 127.5 162.5t204.5 58.5q142 0 229.5 -87t87.5 -245q0 -172 -99 -291.5t-269 -119.5q-122 0 -201 60.5t-106 167.5h10q25 -102 101 -160t196 -58q113 0 196 58.5t122.5 148t39.5 194.5q0 149 -84 235.5t-223 86.5q-118 0 -198.5 -56.5t-123.5 -154.5z
" />
    <glyph glyph-name="uni018F" unicode="&#x18f;" horiz-adv-x="793" 
d="M51 318v36h681q3 25 3 52q0 141 -84 227t-231 86q-114 0 -196.5 -58t-125.5 -154h-10q44 102 129 162t203 60q148 0 236.5 -88t88.5 -235q0 -182 -101.5 -301t-274.5 -119q-142 0 -230 87t-88 245zM369 -4q156 0 250.5 98.5t111.5 249.5h-670v-26q0 -148 84.5 -235
t223.5 -87z" />
    <glyph glyph-name="uni0190" unicode="&#x190;" horiz-adv-x="558" 
d="M553 519h-10q-2 94 -55 147t-157 53t-167 -61t-63 -155q0 -83 62.5 -126.5t153.5 -43.5h8l-2 -9q-45 0 -87 -9.5t-80 -30t-60.5 -57t-22.5 -85.5q0 -65 43.5 -105.5t132.5 -40.5q92 0 143 47.5t66 122.5h10q-13 -79 -70 -129.5t-149 -50.5q-88 0 -137 41.5t-49 114.5
q0 80 55.5 128.5t154.5 57.5v1q-77 7 -129.5 51.5t-52.5 122.5q0 102 66 164t174 62q107 0 164 -53.5t58 -156.5z" />
    <glyph glyph-name="florin" unicode="&#x192;" horiz-adv-x="359" 
d="M59 471l2 10h131l3 18q19 122 53.5 172.5t117.5 50.5q14 0 25 -1l-1 -10q-9 1 -25 1q-68 0 -103.5 -41t-52.5 -159l-5 -31h144l-2 -10h-143l-62 -416q-21 -142 -55 -194.5t-116 -52.5q-11 0 -25 2l2 10q14 -2 23 -2q77 0 107 50.5t52 187.5l62 415h-132z" />
    <glyph glyph-name="uni019D" unicode="&#x19d;" horiz-adv-x="700" 
d="M41 -77l141 792h13l209 -438q17 -36 66 -138.5t59 -125.5h1q7 58 47 273l76 429h10l-127 -715h-10l-206 431q-30 63 -74 154.5t-56 118.5h-1q-8 -72 -60 -343l-78 -438q-12 -65 -35 -92.5t-73 -27.5q-16 0 -19 1l2 10q3 -1 17 -1q44 0 65 24.5t33 85.5z" />
    <glyph glyph-name="uni019F" unicode="&#x19f;" horiz-adv-x="808" 
d="M435 729q148 0 236.5 -88t88.5 -235q0 -182 -101.5 -301t-274.5 -119q-142 0 -230 87t-88 245q0 172 99.5 291.5t269.5 119.5zM384 -4q160 0 254.5 102.5t109.5 258.5h-671q-1 -13 -1 -39q0 -148 84.5 -235t223.5 -87zM435 719q-104 0 -183.5 -50t-121.5 -128t-52 -174
h670q2 26 2 39q0 141 -84 227t-231 86z" />
    <glyph glyph-name="Ohorn" unicode="&#x1a0;" horiz-adv-x="808" 
d="M435 729q148 0 236.5 -88t88.5 -235q0 -182 -101.5 -301t-274.5 -119q-142 0 -230 87t-88 245q0 172 99.5 291.5t269.5 119.5zM435 719q-85 0 -154.5 -34t-113.5 -90.5t-67.5 -127.5t-23.5 -149q0 -148 84.5 -235t223.5 -87q117 0 202 58.5t124.5 149.5t39.5 202
q0 141 -84 227t-231 86zM695 906l-103 -191h-11l103 191h11z" />
    <glyph glyph-name="ohorn" unicode="&#x1a1;" horiz-adv-x="619" 
d="M279 -3q126 0 197.5 85.5t71.5 217.5q0 103 -59 166t-166 63q-127 0 -198 -88.5t-71 -216.5q0 -107 60 -167t165 -60zM279 -13q-112 0 -173.5 62.5t-61.5 174.5q0 133 74.5 224t204.5 91q111 0 173.5 -65t62.5 -174q0 -136 -75.5 -224.5t-204.5 -88.5zM552 715l-103 -191
h-11l103 191h11z" />
    <glyph glyph-name="Uhorn" unicode="&#x1af;" horiz-adv-x="669" 
d="M736 905l-103 -190h7l-82 -466q-24 -140 -88.5 -201.5t-184.5 -61.5q-104 0 -153.5 42t-49.5 134q0 39 9 87l82 466h10l-82 -466q-9 -47 -9 -86q0 -84 45.5 -125.5t147.5 -41.5q123 0 181 62t82 191l82 465h-8l103 191h11z" />
    <glyph glyph-name="uhorn" unicode="&#x1b0;" horiz-adv-x="562" 
d="M608 715l-103 -190h6l-78 -445l-15 -80h-11l31 163q-10 -32 -25.5 -60.5t-40.5 -56t-63 -44t-84 -16.5q-78 0 -122 38.5t-44 111.5q0 39 11 102l51 287h10l-51 -289q-11 -63 -11 -100q0 -65 39 -102.5t117 -37.5q52 0 93.5 22t67 59.5t41 77t23.5 84.5l51 285h-7l103 191
h11z" />
    <glyph glyph-name="uni01C4" unicode="&#x1c4;" horiz-adv-x="1285" 
d="M55 0l127 715h122q181 0 266 -59q106 -72 106 -237q0 -221 -135 -330q-108 -89 -317 -89h-169zM190 705l-123 -695h157q200 0 310 86q132 107 132 323q0 161 -102 228q-87 58 -260 58h-114zM698 0l2 7q12 12 39 42.5t60.5 69t48.5 55.5l340 385l128 146h-492l2 10h506
l-2 -7q-4 -4 -144 -165l-323 -366q-101 -110 -149 -167h483l-2 -10h-497zM1072 760h-10q-12 18 -40 58t-39 57h11l74 -106l112 106h13q-54 -50 -121 -115z" />
    <glyph glyph-name="uni01C5" unicode="&#x1c5;" horiz-adv-x="1203" 
d="M55 0l127 715h122q181 0 266 -59q106 -72 106 -237q0 -221 -135 -330q-108 -89 -317 -89h-169zM190 705l-123 -695h157q200 0 310 86q132 107 132 323q0 161 -102 228q-87 58 -260 58h-114zM704 0l2 8l324 339q124 126 161 168h-396l2 10h412l-2 -8l-314 -328
q-15 -16 -87.5 -91.5t-85.5 -87.5h395l-2 -10h-409zM989 596h-10q-29 44 -81 119h11l76 -110l114 110h13q-19 -19 -62.5 -60.5t-60.5 -58.5z" />
    <glyph glyph-name="uni01C6" unicode="&#x1c6;" horiz-adv-x="1081" 
d="M302 529q-109 0 -178 -87t-69 -218q0 -101 52 -164.5t148 -63.5q61 0 109 27.5t75.5 74t41.5 100.5t14 112q0 99 -48 159t-145 60zM458 0h-10l3 16q21 117 25 138q-25 -74 -80 -121t-141 -47q-95 0 -152.5 62t-57.5 175q0 136 71.5 226t185.5 90q106 0 155.5 -66
t46.5 -162q14 94 30 183l40 221h10zM582 0l2 8l324 339q124 126 161 168h-396l2 10h412l-2 -8l-314 -328q-15 -16 -87.5 -91.5t-85.5 -87.5h395l-2 -10h-409zM867 596h-10q-29 44 -81 119h11l76 -110l114 110h13q-19 -19 -62.5 -60.5t-60.5 -58.5z" />
    <glyph glyph-name="uni01C7" unicode="&#x1c7;" horiz-adv-x="984" 
d="M182 715h10l-125 -705h400l-2 -10h-410zM944 715h10l-91 -515q-20 -110 -57 -162t-119 -52q-76 0 -110.5 42t-34.5 111q0 16 2 34h10q-2 -16 -2 -34q0 -64 32 -103.5t103 -39.5q76 0 111.5 48.5t54.5 156.5z" />
    <glyph glyph-name="uni01C8" unicode="&#x1c8;" horiz-adv-x="727" 
d="M182 715h10l-125 -705h400l-2 -10h-410zM443 -196l2 10q3 -1 17 -1q43 0 65 24.5t33 85.5l106 602h10l-106 -602q-10 -64 -34 -92t-74 -28q-16 0 -19 1zM690 604h-10l20 111h10z" />
    <glyph glyph-name="uni01C9" unicode="&#x1c9;" horiz-adv-x="388" 
d="M167 715h10l-127 -715h-10zM104 -196l2 10q3 -1 17 -1q43 0 65 24.5t33 85.5l106 602h10l-106 -602q-10 -64 -34 -92t-74 -28q-16 0 -19 1zM351 604h-10l20 111h10z" />
    <glyph glyph-name="uni01CA" unicode="&#x1ca;" horiz-adv-x="1146" 
d="M182 715h13l209 -438q17 -36 66 -138.5t59 -125.5h1q7 58 47 273l76 429h10l-127 -715h-10l-206 431q-30 63 -74 154.5t-56 118.5h-1q-8 -72 -60 -343l-64 -361h-10zM1106 715h10l-91 -515q-20 -110 -57 -162t-119 -52q-76 0 -110.5 42t-34.5 111q0 16 2 34h10
q-2 -16 -2 -34q0 -64 32 -103.5t103 -39.5q76 0 111.5 48.5t54.5 156.5z" />
    <glyph glyph-name="uni01CB" unicode="&#x1cb;" horiz-adv-x="889" 
d="M182 715h13l209 -438q17 -36 66 -138.5t59 -125.5h1q7 58 47 273l76 429h10l-127 -715h-10l-206 431q-30 63 -74 154.5t-56 118.5h-1q-8 -72 -60 -343l-64 -361h-10zM605 -196l2 10q3 -1 17 -1q43 0 65 24.5t33 85.5l106 602h10l-106 -602q-10 -64 -34 -92t-74 -28
q-16 0 -19 1zM852 604h-10l20 111h10z" />
    <glyph glyph-name="uni01CC" unicode="&#x1cc;" horiz-adv-x="758" 
d="M36 0l78 445l15 80h11l-31 -163q10 32 26.5 60.5t42 56t64 44t84.5 16.5q79 0 123.5 -38.5t44.5 -112.5q0 -38 -11 -101l-51 -287h-10l51 289q11 63 11 100q0 65 -40 102.5t-118 37.5q-52 0 -94.5 -22t-68.5 -59t-42 -77t-24 -85l-51 -286h-10zM474 -196l2 10q3 -1 17 -1
q43 0 65 24.5t33 85.5l106 602h10l-106 -602q-10 -64 -34 -92t-74 -28q-16 0 -19 1zM721 604h-10l20 111h10z" />
    <glyph glyph-name="uni01F1" unicode="&#x1f1;" horiz-adv-x="1267" 
d="M55 0l127 715h122q181 0 266 -59q106 -72 106 -237q0 -221 -135 -330q-108 -89 -317 -89h-169zM190 705l-123 -695h157q200 0 310 86q132 107 132 323q0 161 -102 228q-87 58 -260 58h-114zM680 0l2 7q12 12 39 42.5t60.5 69t48.5 55.5l340 385l128 146h-492l2 10h506
l-2 -7q-4 -4 -144 -165l-323 -366q-101 -110 -149 -167h483l-2 -10h-497z" />
    <glyph glyph-name="uni01F2" unicode="&#x1f2;" horiz-adv-x="1203" 
d="M55 0l127 715h122q181 0 266 -59q106 -72 106 -237q0 -221 -135 -330q-108 -89 -317 -89h-169zM190 705l-123 -695h157q200 0 310 86q132 107 132 323q0 161 -102 228q-87 58 -260 58h-114zM704 0l2 8l324 339q124 126 161 168h-396l2 10h412l-2 -8l-314 -328
q-15 -16 -87.5 -91.5t-85.5 -87.5h395l-2 -10h-409z" />
    <glyph glyph-name="uni01F3" unicode="&#x1f3;" horiz-adv-x="1081" 
d="M302 529q-109 0 -178 -87t-69 -218q0 -101 52 -164.5t148 -63.5q61 0 109 27.5t75.5 74t41.5 100.5t14 112q0 99 -48 159t-145 60zM458 0h-10l3 16q21 117 25 138q-25 -74 -80 -121t-141 -47q-95 0 -152.5 62t-57.5 175q0 136 71.5 226t185.5 90q106 0 155.5 -66
t46.5 -162q14 94 30 183l40 221h10zM582 0l2 8l324 339q124 126 161 168h-396l2 10h412l-2 -8l-314 -328q-15 -16 -87.5 -91.5t-85.5 -87.5h395l-2 -10h-409z" />
    <glyph glyph-name="Aringacute" unicode="&#x1fa;" horiz-adv-x="636" 
d="M391 715h9l150 -715h-10l-58 281h-329l-159 -281h-11zM394 700h-1q-23 -39 -67 -117q-48 -83 -122 -214l-45 -78h321l-17 79q-53 248 -69 330zM405 765q-32 0 -54 22.5t-22 55.5q0 32 22 54t54 22t55 -22t23 -54q0 -33 -22.5 -55.5t-55.5 -22.5zM338 843q0 -29 19 -49
t48 -20t49 19.5t20 49.5q0 28 -20 47.5t-49 19.5t-48 -19.5t-19 -47.5zM532 1076l-133 -119h-13l131 119h15z" />
    <glyph glyph-name="aringacute" unicode="&#x1fb;" horiz-adv-x="538" 
d="M91 368h-10q13 75 65.5 123t142.5 48q83 0 128.5 -39.5t45.5 -118.5q0 -33 -7 -73q-4 -25 -14 -76t-22 -123q-11 -66 -9 -109h-10q0 83 21 165h-1q-23 -76 -85.5 -126t-152.5 -50q-161 0 -161 131q0 35 15.5 62t36.5 42.5t59.5 27t66 16.5t73.5 11q77 11 171 17
q9 46 9 85q0 148 -164 148q-85 0 -134 -44t-64 -117zM434 243q7 37 8 43q-113 -8 -180 -18q-35 -5 -47 -7t-43.5 -9t-45 -12.5t-36 -17.5t-32.5 -25t-18 -33t-8 -44q0 -56 38 -88.5t113 -32.5q94 0 162 60.5t89 183.5zM305 585q-32 0 -54 22.5t-22 55.5q0 32 22 54t54 22
t55 -22t23 -54q0 -33 -22.5 -55.5t-55.5 -22.5zM238 663q0 -29 19 -49t48 -20t49 19.5t20 49.5q0 28 -20 47.5t-49 19.5t-48 -19.5t-19 -47.5zM435 902l-133 -119h-13l131 119h15z" />
    <glyph glyph-name="AEacute" unicode="&#x1fc;" horiz-adv-x="866" 
d="M874 715l-2 -10h-400l-53 -332h370l-2 -10h-370l-57 -353h396l-2 -10h-405l42 260h-246l-185 -260h-12l512 715h414zM392 270l30 184q21 137 41 251h-1q-4 -5 -29 -42t-53.5 -77.5t-52.5 -72.5l-175 -243h240zM746 877l-128 -116h-13l126 116h15z" />
    <glyph glyph-name="aeacute" unicode="&#x1fd;" horiz-adv-x="979" 
d="M926 280l-476 1q-3 -13 -3 -51q0 -110 56.5 -171.5t161.5 -61.5q157 0 229 153h10q-71 -163 -239 -163q-105 0 -165 59.5t-62 176.5q-19 -104 -86 -169t-169 -65q-161 0 -161 131q0 36 13.5 63t42 44t61 28.5t83 18t94 9.5t106.5 7q14 1 21 1q10 72 10 90q0 148 -164 148
q-85 0 -134 -44t-64 -117h-10q13 75 65.5 123t142.5 48q83 0 128 -38.5t45 -114.5q0 -9 -2 -31q29 84 93.5 134t151.5 50q109 0 165 -65t56 -178v-16zM705 529q-106 0 -169.5 -67t-83.5 -171h463v9q0 106 -52 167.5t-158 61.5zM434 243l7 38q-71 -3 -118.5 -6.5t-98.5 -10.5
t-82.5 -18.5t-58.5 -28t-39 -41t-12 -56.5q0 -56 37.5 -88.5t113.5 -32.5q93 0 161.5 60.5t89.5 183.5zM621 715l-133 -119h-13l131 119h15z" />
    <glyph glyph-name="Oslashacute" unicode="&#x1fe;" horiz-adv-x="808" 
d="M436 729q139 0 225 -78l78 94l7 -6l-78 -94q93 -87 93 -239q0 -182 -101.5 -301t-274.5 -119q-124 0 -209 68l-78 -94l-7 6l78 94q-102 89 -102 258q0 172 99.5 291.5t269.5 119.5zM436 719q-85 0 -154.5 -34t-113.5 -90.5t-67.5 -127.5t-23.5 -149q0 -163 99 -250
l479 576q-85 75 -219 75zM751 406q0 148 -89 232l-479 -576q81 -66 202 -66q117 0 202 58.5t124.5 149.5t39.5 202zM569 877l-128 -116h-13l126 116h15z" />
    <glyph glyph-name="oslashacute" unicode="&#x1ff;" horiz-adv-x="619" 
d="M452 715l-133 -119h-13l131 119h15zM279 -13q-88 0 -147 41l-59 -72l-8 6l59 71q-80 63 -80 191q0 133 74.5 224t204.5 91q106 0 168 -60l68 82l8 -6l-69 -83q61 -64 61 -172q0 -136 -75.5 -224.5t-204.5 -88.5zM54 224q0 -121 77 -182l353 429q-60 58 -161 58
q-127 0 -198 -88.5t-71 -216.5zM279 -3q126 0 197.5 85.5t71.5 217.5q0 105 -57 163l-352 -427q54 -39 140 -39z" />
    <glyph glyph-name="uni0218" unicode="&#x218;" horiz-adv-x="604" 
d="M30 203h10q5 -100 67.5 -153.5t176.5 -53.5q104 0 169.5 48.5t65.5 136.5q0 33 -12.5 59t-45 48.5t-48.5 30.5t-63 29q-11 5 -17 8l-42 19q-97 44 -137.5 80.5t-40.5 103.5q0 78 56.5 124t162.5 46q113 0 176.5 -52t64.5 -147h-10q-2 87 -61 138t-170 51
q-97 0 -153 -41.5t-56 -118.5q0 -64 40.5 -100t130.5 -75l55 -24q47 -21 74 -36t54.5 -36.5t39.5 -47.5t12 -59q0 -91 -67.5 -143t-177.5 -52q-112 0 -181 55t-73 162zM180 -163l78 115h11l-77 -115h-12z" />
    <glyph glyph-name="uni0219" unicode="&#x219;" horiz-adv-x="500" 
d="M18 159h10q11 -162 192 -162q89 0 138.5 37t49.5 101q0 25 -9.5 43.5t-31 33t-39 23t-50.5 21.5l-52 20q-78 29 -110 56t-32 78q0 58 48 93.5t129 35.5q89 0 140 -40t52 -112h-10q-2 67 -48.5 104.5t-133.5 37.5q-80 0 -123.5 -33t-43.5 -86q0 -45 27.5 -70t107.5 -56
l53 -20q37 -14 54 -22.5t40 -24t32.5 -35.5t9.5 -47q0 -69 -53.5 -108.5t-144.5 -39.5q-95 0 -146 44.5t-56 127.5zM123 -163l78 115h11l-77 -115h-12z" />
    <glyph glyph-name="uni021A" unicode="&#x21a;" horiz-adv-x="528" 
d="M202 0l125 705h-238l2 10h485l-2 -10h-237l-125 -705h-10zM131 -163l78 115h11l-77 -115h-12z" />
    <glyph glyph-name="uni021B" unicode="&#x21b;" horiz-adv-x="229" 
d="M158 5l-2 -10q-6 -2 -20 -2q-75 0 -75 74q0 17 6 51l71 397h-70l1 10h71l25 142h10l-25 -142h92l-1 -10h-93l-72 -398q-5 -32 -5 -50q0 -64 65 -64q14 0 22 2zM35 -163l78 115h11l-77 -115h-12z" />
    <glyph glyph-name="uni021D" unicode="&#x21d;" horiz-adv-x="537" 
d="M-10 8h10q2 -94 55 -147t157 -53t167 61t63 155q0 83 -62.5 126.5t-153.5 43.5h-8l2 9q45 0 87 9.5t80 30t60.5 57t22.5 85.5q0 65 -43.5 105.5t-132.5 40.5q-92 0 -143 -47.5t-66 -122.5h-10q13 79 70 129.5t149 50.5q88 0 137 -41.5t49 -114.5q0 -80 -55.5 -128.5
t-154.5 -57.5v-1q77 -7 129.5 -51.5t52.5 -122.5q0 -102 -66 -164t-174 -62q-107 0 -164 53.5t-58 156.5z" />
    <glyph glyph-name="uni0226" unicode="&#x226;" horiz-adv-x="636" 
d="M391 715h9l150 -715h-10l-58 281h-329l-159 -281h-11zM394 700h-1q-23 -39 -67 -117q-48 -83 -122 -214l-45 -78h321l-17 79q-53 248 -69 330zM398 766l15 80h10l-15 -80h-10z" />
    <glyph glyph-name="uni0227" unicode="&#x227;" horiz-adv-x="538" 
d="M91 368h-10q13 75 65.5 123t142.5 48q83 0 128.5 -39.5t45.5 -118.5q0 -33 -7 -73q-4 -25 -14 -76t-22 -123q-11 -66 -9 -109h-10q0 83 21 165h-1q-23 -76 -85.5 -126t-152.5 -50q-161 0 -161 131q0 35 15.5 62t36.5 42.5t59.5 27t66 16.5t73.5 11q77 11 171 17
q9 46 9 85q0 148 -164 148q-85 0 -134 -44t-64 -117zM434 243q7 37 8 43q-113 -8 -180 -18q-35 -5 -47 -7t-43.5 -9t-45 -12.5t-36 -17.5t-32.5 -25t-18 -33t-8 -44q0 -56 38 -88.5t113 -32.5q94 0 162 60.5t89 183.5zM309 616l15 80h10l-15 -80h-10z" />
    <glyph glyph-name="uni0232" unicode="&#x232;" horiz-adv-x="596" 
d="M232 0l48 272l-181 443h10l177 -433q70 88 189.5 242t148.5 191h12l-346 -443l-48 -272h-10zM247 802l1 10h244l-1 -10h-244z" />
    <glyph glyph-name="uni0233" unicode="&#x233;" horiz-adv-x="486" 
d="M91 -180h-11l102 180l-113 525h11l63 -299q5 -26 21.5 -99t23.5 -113h2q21 40 69 124t55 97l162 290h11q-86 -160 -396 -705zM168 652l1 10h244l-1 -10h-244z" />
    <glyph glyph-name="dotlessj" unicode="&#x237;" horiz-adv-x="189" 
d="M-95 -196l2 10q3 -1 17 -1q43 0 65 24.5t33 85.5l106 602h10l-106 -602q-10 -64 -34 -92t-74 -28q-16 0 -19 1z" />
    <glyph glyph-name="uni0254" unicode="&#x254;" horiz-adv-x="587" 
d="M60 359h-10q32 83 93 131.5t151 48.5q106 0 169.5 -63.5t63.5 -177.5q0 -130 -73.5 -220.5t-195.5 -90.5q-96 0 -153.5 51t-70.5 135h10q15 -80 68.5 -128t144.5 -48q119 0 189 86.5t70 214.5q0 108 -59 169.5t-163 61.5q-163 0 -234 -170z" />
    <glyph glyph-name="uni0259" unicode="&#x259;" horiz-adv-x="591" 
d="M37 245l481 -1q3 13 3 51q0 109 -58 171t-163 62q-160 0 -231 -153h-10q71 163 241 163q109 0 170 -62.5t61 -180.5q0 -126 -74 -217.5t-197 -91.5q-109 0 -166 65t-57 178v16zM260 -4q106 0 171 67.5t85 170.5h-468v-9q0 -106 53 -167.5t159 -61.5z" />
    <glyph glyph-name="uni025B" unicode="&#x25b;" horiz-adv-x="551" 
d="M515 330h-10q-2 94 -55 147t-157 53t-167 -61t-63 -155q0 -83 62.5 -126.5t153.5 -43.5h8l-2 -9q-45 0 -87 -9.5t-80 -30t-60.5 -57t-22.5 -85.5q0 -65 43.5 -105.5t132.5 -40.5q92 0 143 47.5t66 122.5h10q-13 -79 -70 -129.5t-149 -50.5q-88 0 -137 41.5t-49 114.5
q0 80 55.5 128.5t154.5 57.5v1q-77 7 -129.5 51.5t-52.5 122.5q0 102 66 164t174 62q107 0 164 -53.5t58 -156.5z" />
    <glyph glyph-name="uni0272" unicode="&#x272;" horiz-adv-x="569" 
d="M97 286l-65 -363q-12 -65 -35.5 -92.5t-72.5 -27.5q-16 0 -19 1l2 10q3 -1 17 -1q43 0 65 24.5t33 85.5l92 522l15 80h11l-31 -163q10 32 26.5 60.5t42 56t64 44t84.5 16.5q79 0 123.5 -38.5t44.5 -112.5q0 -38 -11 -101l-51 -287h-10l51 289q11 63 11 100
q0 65 -40 102.5t-118 37.5q-52 0 -94.5 -22t-68.5 -59t-42 -77t-24 -85z" />
    <glyph glyph-name="uni0275" unicode="&#x275;" horiz-adv-x="619" 
d="M279 -13q-112 0 -173.5 62.5t-61.5 174.5q0 133 74.5 224t204.5 91q111 0 173.5 -65t62.5 -174q0 -136 -75.5 -224.5t-204.5 -88.5zM279 -3q116 0 186.5 74t80.5 192h-490q-2 -26 -2 -39q0 -107 60 -167t165 -60zM323 529q-114 0 -183.5 -72.5t-82.5 -183.5h490q1 9 1 27
q0 103 -59 166t-166 63z" />
    <glyph glyph-name="apostrophemod" unicode="&#x2bc;" horiz-adv-x="109" 
d="M152 715l-118 -232h-10l117 232h11z" />
    <glyph glyph-name="circumflex" unicode="&#x2c6;" horiz-adv-x="503" 
d="M262 715h10q29 -44 81 -119h-11l-76 110l-114 -110h-13q74 70 123 119z" />
    <glyph glyph-name="caron" unicode="&#x2c7;" horiz-adv-x="502" 
d="M252 596h-10q-29 44 -81 119h11l76 -110l114 110h13q-19 -19 -62.5 -60.5t-60.5 -58.5z" />
    <glyph glyph-name="breve" unicode="&#x2d8;" horiz-adv-x="465" 
d="M233 628q85 0 119 87h10q-30 -96 -129 -96q-97 0 -97 96h10q0 -87 87 -87z" />
    <glyph glyph-name="dotaccent" unicode="&#x2d9;" horiz-adv-x="328" 
d="M149 616l15 80h10l-15 -80h-10z" />
    <glyph glyph-name="ring" unicode="&#x2da;" horiz-adv-x="405" 
d="M240 599q-32 0 -54 22.5t-22 55.5q0 32 22 54t54 22t55 -22t23 -54q0 -33 -22.5 -55.5t-55.5 -22.5zM173 677q0 -29 19 -49t48 -20t49 19.5t20 49.5q0 28 -20 47.5t-49 19.5t-48 -19.5t-19 -47.5z" />
    <glyph glyph-name="ogonek" unicode="&#x2db;" horiz-adv-x="331" 
d="M127 -48l78 -115h-12l-77 115h11z" />
    <glyph glyph-name="tilde" unicode="&#x2dc;" horiz-adv-x="317" 
d="M173 648l-51 25q-28 13 -44 13q-37 0 -50 -59h-10q14 69 60 69q22 0 53 -17l47 -23q32 -15 47 -15q40 0 52 61h10q-13 -71 -62 -71q-16 0 -52 17z" />
    <glyph glyph-name="hungarumlaut" unicode="&#x2dd;" horiz-adv-x="612" 
d="M333 715l-131 -119h-14l131 119h14zM488 715l-131 -119h-14l131 119h14z" />
    <glyph glyph-name="uni032C" unicode="&#x32c;" horiz-adv-x="503" 
d="M197 -48h10q29 -44 81 -119h-11l-76 110l-114 -110h-13q74 70 123 119z" />
    <glyph glyph-name="uni0394" unicode="&#x394;" horiz-adv-x="670" 
d="M306 715h12l314 -715h-641zM312 707l-307 -697h612z" />
    <glyph glyph-name="uni03A9" unicode="&#x3a9;" horiz-adv-x="831" 
d="M412 719q-159 0 -246.5 -94.5t-87.5 -236.5q0 -68 19 -126.5t54.5 -104.5t75.5 -81t94 -69v-7h-255v10h126q12 0 38 -0.5t37 -0.5q13 -1 41 -1q-46 27 -85.5 61.5t-77 82t-58.5 109t-19 129.5q2 148 92.5 243.5t251.5 95.5q162 0 251 -95t93 -244q1 -55 -13.5 -106.5
t-37.5 -91t-55.5 -76t-65 -61.5t-68.5 -47q28 0 41 1q11 0 37 0.5t38 0.5h126v-10h-255v7q53 34 93 69t76 81t55 104.5t19 126.5q0 142 -88 236.5t-246 94.5z" />
    <glyph glyph-name="uni03BC" unicode="&#x3bc;" horiz-adv-x="569" 
d="M13 -180h-10l125 705h10l-59 -335q-5 -32 -5 -50q0 -66 36 -105t109 -39q94 0 156.5 68.5t79.5 163.5l53 297h10l-79 -445q-6 -31 -13 -80h-11l7 37q5 21 14.5 77.5t10.5 61.5q-17 -70 -76 -130t-153 -60q-75 0 -114 41t-37 117l-4 -31q-1 -8 -3.5 -26.5t-4.5 -26.5z" />
    <glyph glyph-name="pi" unicode="&#x3c0;" horiz-adv-x="573" 
d="M583 515h-119l-72 -398q-5 -32 -5 -50q0 -64 65 -64q14 0 22 2l-2 -10q-6 -2 -20 -2q-75 0 -75 74q0 17 6 51l71 397h-283l-89 -515h-10l89 515h-125l3 10h547z" />
    <glyph glyph-name="Wgrave" unicode="&#x1e80;" horiz-adv-x="749" 
d="M770 715l-286 -715h-9l-17 383q-11 245 -14 314h-2q-68 -170 -130 -320l-156 -377h-10l-29 715h10l17 -449q1 -28 3.5 -78.5t4 -92.5t1.5 -79h1q29 73 102 249l185 450h11l20 -443q9 -193 10 -253h1l102 258l175 438h10zM483 761l-128 116h15l126 -116h-13z" />
    <glyph glyph-name="wgrave" unicode="&#x1e81;" horiz-adv-x="748" 
d="M407 525h14l28 -284q11 -100 21 -228h2q32 62 38 74q31 64 68 134l159 304h11q-27 -50 -169 -322l-105 -203h-11l-50 515h-2l-243 -515h-11l-82 525h10l48 -302q4 -21 10 -68t9 -68q3 -25 11 -75h2q47 105 107 233zM447 596l-133 119h15l131 -119h-13z" />
    <glyph glyph-name="Wacute" unicode="&#x1e82;" horiz-adv-x="749" 
d="M770 715l-286 -715h-9l-17 383q-11 245 -14 314h-2q-68 -170 -130 -320l-156 -377h-10l-29 715h10l17 -449q1 -28 3.5 -78.5t4 -92.5t1.5 -79h1q29 73 102 249l185 450h11l20 -443q9 -193 10 -253h1l102 258l175 438h10zM557 877l-128 -116h-13l126 116h15z" />
    <glyph glyph-name="wacute" unicode="&#x1e83;" horiz-adv-x="748" 
d="M407 525h14l28 -284q11 -100 21 -228h2q32 62 38 74q31 64 68 134l159 304h11q-27 -50 -169 -322l-105 -203h-11l-50 515h-2l-243 -515h-11l-82 525h10l48 -302q4 -21 10 -68t9 -68q3 -25 11 -75h2q47 105 107 233zM539 715l-133 -119h-13l131 119h15z" />
    <glyph glyph-name="Wdieresis" unicode="&#x1e84;" horiz-adv-x="749" 
d="M770 715l-286 -715h-9l-17 383q-11 245 -14 314h-2q-68 -170 -130 -320l-156 -377h-10l-29 715h10l17 -449q1 -28 3.5 -78.5t4 -92.5t1.5 -79h1q29 73 102 249l185 450h11l20 -443q9 -193 10 -253h1l102 258l175 438h10zM392 766l15 80h10l-15 -80h-10zM505 766l15 80h10
l-15 -80h-10z" />
    <glyph glyph-name="wdieresis" unicode="&#x1e85;" horiz-adv-x="748" 
d="M407 525h14l28 -284q11 -100 21 -228h2q32 62 38 74q31 64 68 134l159 304h11q-27 -50 -169 -322l-105 -203h-11l-50 515h-2l-243 -515h-11l-82 525h10l48 -302q4 -21 10 -68t9 -68q3 -25 11 -75h2q47 105 107 233zM364 616l15 80h10l-15 -80h-10zM477 616l15 80h10
l-15 -80h-10z" />
    <glyph glyph-name="uni1EA0" unicode="&#x1ea0;" horiz-adv-x="636" 
d="M391 715h9l150 -715h-10l-58 281h-329l-159 -281h-11zM394 700h-1q-23 -39 -67 -117q-48 -83 -122 -214l-45 -78h321l-17 79q-53 248 -69 330zM231 -145l15 80h10l-15 -80h-10z" />
    <glyph glyph-name="uni1EA1" unicode="&#x1ea1;" horiz-adv-x="538" 
d="M91 368h-10q13 75 65.5 123t142.5 48q83 0 128.5 -39.5t45.5 -118.5q0 -33 -7 -73q-4 -25 -14 -76t-22 -123q-11 -66 -9 -109h-10q0 83 21 165h-1q-23 -76 -85.5 -126t-152.5 -50q-161 0 -161 131q0 35 15.5 62t36.5 42.5t59.5 27t66 16.5t73.5 11q77 11 171 17
q9 46 9 85q0 148 -164 148q-85 0 -134 -44t-64 -117zM434 243q7 37 8 43q-113 -8 -180 -18q-35 -5 -47 -7t-43.5 -9t-45 -12.5t-36 -17.5t-32.5 -25t-18 -33t-8 -44q0 -56 38 -88.5t113 -32.5q94 0 162 60.5t89 183.5zM174 -145l15 80h10l-15 -80h-10z" />
    <glyph glyph-name="uni1EB8" unicode="&#x1eb8;" horiz-adv-x="605" 
d="M55 0l127 715h431l-2 -10h-421l-59 -332h397l-2 -10h-397l-62 -353h428l-2 -10h-438zM258 -145l15 80h10l-15 -80h-10z" />
    <glyph glyph-name="uni1EB9" unicode="&#x1eb9;" horiz-adv-x="591" 
d="M539 280l-481 1q-3 -13 -3 -51q0 -109 58 -171t163 -62q160 0 231 153h10q-71 -163 -241 -163q-109 0 -170 62.5t-61 180.5q0 126 74 217.5t197 91.5q109 0 166 -65t57 -178v-16zM316 529q-106 0 -171 -67.5t-85 -170.5h468v9q0 106 -53 167.5t-159 61.5zM235 -145l15 80
h10l-15 -80h-10z" />
    <glyph glyph-name="uni1ECA" unicode="&#x1eca;" horiz-adv-x="229" 
d="M182 715h10l-127 -715h-10zM30 -145l15 80h10l-15 -80h-10z" />
    <glyph glyph-name="uni1ECB" unicode="&#x1ecb;" horiz-adv-x="189" 
d="M128 525h10l-93 -525h-10zM152 604h-10l20 111h10zM10 -145l15 80h10l-15 -80h-10z" />
    <glyph glyph-name="uni1ECC" unicode="&#x1ecc;" horiz-adv-x="808" 
d="M435 729q148 0 236.5 -88t88.5 -235q0 -182 -101.5 -301t-274.5 -119q-142 0 -230 87t-88 245q0 172 99.5 291.5t269.5 119.5zM435 719q-85 0 -154.5 -34t-113.5 -90.5t-67.5 -127.5t-23.5 -149q0 -148 84.5 -235t223.5 -87q117 0 202 58.5t124.5 149.5t39.5 202
q0 141 -84 227t-231 86zM323 -145l15 80h10l-15 -80h-10z" />
    <glyph glyph-name="uni1ECD" unicode="&#x1ecd;" horiz-adv-x="619" 
d="M279 -3q126 0 197.5 85.5t71.5 217.5q0 103 -59 166t-166 63q-127 0 -198 -88.5t-71 -216.5q0 -107 60 -167t165 -60zM279 -13q-112 0 -173.5 62.5t-61.5 174.5q0 133 74.5 224t204.5 91q111 0 173.5 -65t62.5 -174q0 -136 -75.5 -224.5t-204.5 -88.5zM233 -145l15 80h10
l-15 -80h-10z" />
    <glyph glyph-name="uni1EE4" unicode="&#x1ee4;" horiz-adv-x="669" 
d="M285 -4q123 0 181 62t82 191l82 466h10l-82 -466q-24 -140 -88.5 -201.5t-184.5 -61.5q-104 0 -153.5 42t-49.5 134q0 39 9 87l82 466h10l-82 -466q-9 -47 -9 -86q0 -84 45.5 -125.5t147.5 -41.5zM236 -145l15 80h10l-15 -80h-10z" />
    <glyph glyph-name="uni1EE5" unicode="&#x1ee5;" horiz-adv-x="562" 
d="M511 525l-78 -445l-15 -80h-11l31 163q-10 -32 -25.5 -60.5t-40.5 -56t-63 -44t-84 -16.5q-78 0 -122 38.5t-44 111.5q0 39 11 102l51 287h10l-51 -289q-11 -63 -11 -100q0 -65 39 -102.5t117 -37.5q52 0 93.5 22t67 59.5t41 77t23.5 84.5l51 286h10zM183 -145l15 80h10
l-15 -80h-10z" />
    <glyph glyph-name="Ygrave" unicode="&#x1ef2;" horiz-adv-x="596" 
d="M232 0l48 272l-181 443h10l177 -433q70 88 189.5 242t148.5 191h12l-346 -443l-48 -272h-10zM388 761l-128 116h15l126 -116h-13z" />
    <glyph glyph-name="ygrave" unicode="&#x1ef3;" horiz-adv-x="486" 
d="M91 -180h-11l102 180l-113 525h11l63 -299q5 -26 21.5 -99t23.5 -113h2q21 40 69 124t55 97l162 290h11q-86 -160 -396 -705zM306 596l-133 119h15l131 -119h-13z" />
    <glyph glyph-name="enspace" unicode="&#x2002;" horiz-adv-x="500" 
 />
    <glyph glyph-name="emspace" unicode="&#x2003;" horiz-adv-x="1000" 
 />
    <glyph glyph-name="threeperemspace" unicode="&#x2004;" horiz-adv-x="0" 
 />
    <glyph glyph-name="fourperemspace" unicode="&#x2005;" horiz-adv-x="250" 
 />
    <glyph glyph-name="thinspace" unicode="&#x2009;" horiz-adv-x="133" 
 />
    <glyph glyph-name="hairspace" unicode="&#x200a;" horiz-adv-x="75" 
 />
    <glyph glyph-name="endash" unicode="&#x2013;" horiz-adv-x="630" 
d="M75 298l1 10h476l-1 -10h-476z" />
    <glyph glyph-name="emdash" unicode="&#x2014;" horiz-adv-x="995" 
d="M75 298l1 10h841l-1 -10h-841z" />
    <glyph glyph-name="quoteleft" unicode="&#x2018;" horiz-adv-x="208" 
d="M99 483l118 232h10l-117 -232h-11z" />
    <glyph glyph-name="quoteright" unicode="&#x2019;" horiz-adv-x="208" 
d="M227 715l-118 -232h-10l117 232h11z" />
    <glyph glyph-name="quotesinglbase" unicode="&#x201a;" horiz-adv-x="204" 
d="M88 111l-118 -232h-10l117 232h11z" />
    <glyph glyph-name="quotedblleft" unicode="&#x201c;" horiz-adv-x="357" 
d="M248 483l118 232h10l-117 -232h-11zM99 483l118 232h10l-117 -232h-11z" />
    <glyph glyph-name="quotedblright" unicode="&#x201d;" horiz-adv-x="357" 
d="M227 715l-118 -232h-10l117 232h11zM376 715l-118 -232h-10l117 232h11z" />
    <glyph glyph-name="quotedblbase" unicode="&#x201e;" horiz-adv-x="353" 
d="M88 111l-118 -232h-10l117 232h11zM237 111l-118 -232h-10l117 232h11z" />
    <glyph glyph-name="dagger" unicode="&#x2020;" horiz-adv-x="513" 
d="M73 501l2 10h208l36 204h10l-36 -204h214l-2 -10h-214l-101 -570h-10l101 570h-208z" />
    <glyph glyph-name="daggerdbl" unicode="&#x2021;" horiz-adv-x="565" 
d="M317 501l-43 -243h214l-2 -10h-214l-56 -318h-10l56 318h-208l2 10h208l43 243h-208l2 10h208l36 204h10l-36 -204h214l-2 -10h-214z" />
    <glyph glyph-name="bullet" unicode="&#x2022;" horiz-adv-x="251" 
d="M130 316q-18 0 -18 18q0 17 18 17q7 0 12 -5t5 -12q0 -18 -17 -18z" />
    <glyph glyph-name="ellipsis" unicode="&#x2026;" horiz-adv-x="836" 
d="M358 0l19 111h10l-19 -111h-10zM26 0l19 111h10l-19 -111h-10zM695 0l19 111h10l-19 -111h-10z" />
    <glyph glyph-name="perthousand" unicode="&#x2030;" horiz-adv-x="1301" 
d="M217 342q60 0 101 37t56.5 87t15.5 108q0 67 -34 104t-96 37q-45 0 -79.5 -21.5t-54 -56.5t-29.5 -74.5t-10 -80.5q0 -64 35 -102t95 -38zM260 725q65 0 102.5 -39t37.5 -112q0 -39 -9 -78t-28.5 -77.5t-57.5 -62.5t-88 -24q-65 0 -102.5 38.5t-37.5 111.5q0 39 9 78
t28.5 77.5t57.5 63t88 24.5zM239 0l402 715h11l-402 -715h-11zM638 -6q60 0 101 37t56.5 87t15.5 108q0 67 -34 104t-96 37q-45 0 -79.5 -21.5t-54 -56.5t-29.5 -74.5t-10 -80.5q0 -64 35 -102t95 -38zM681 377q65 0 102.5 -39t37.5 -112q0 -39 -9 -78t-28.5 -77.5
t-57.5 -62.5t-88 -24q-65 0 -102.5 38.5t-37.5 111.5q0 39 9 78t28.5 77.5t57.5 63t88 24.5zM1058 -6q60 0 101 37t56.5 87t15.5 108q0 67 -34 104t-96 37q-45 0 -79.5 -21.5t-54 -56.5t-29.5 -74.5t-10 -80.5q0 -64 35 -102t95 -38zM1101 377q65 0 102.5 -39t37.5 -112
q0 -39 -9 -78t-28.5 -77.5t-57.5 -62.5t-88 -24q-65 0 -102.5 38.5t-37.5 111.5q0 39 9 78t28.5 77.5t57.5 63t88 24.5z" />
    <glyph glyph-name="guilsinglleft" unicode="&#x2039;" horiz-adv-x="258" 
d="M215 473l-142 -187l75 -188h-10l-76 188l143 187h10z" />
    <glyph glyph-name="guilsinglright" unicode="&#x203a;" horiz-adv-x="259" 
d="M36 98l142 187l-75 188h10l76 -188l-143 -187h-10z" />
    <glyph glyph-name="fraction" unicode="&#x2044;" horiz-adv-x="280" 
d="M-52 -105l375 820h10l-376 -820h-9z" />
    <glyph glyph-name="Euro" unicode="&#x20ac;" 
d="M33 435l6 10h55q16 62 38 110.5t54.5 89t80 62.5t107.5 22q196 0 196 -219v-10h-10v10q0 104 -44.5 156.5t-140.5 52.5q-90 0 -154 -54q-76 -64 -117 -220h332l-6 -10h-328q-19 -76 -26 -142h297l-6 -10h-292q-4 -41 -4 -86q0 -201 188 -201q86 0 148 53q65 57 103 164
h10q-82 -227 -261 -227q-100 0 -148.5 51.5t-49.5 159.5q0 43 4 86h-63l5 10h59q3 31 9 60q11 58 17 82h-59z" />
    <glyph glyph-name="trademark" unicode="&#x2122;" horiz-adv-x="851" 
d="M615 300h-10q-25 142 -62 405h-1q-5 -33 -22.5 -134.5t-21.5 -126.5l-25 -144h-9l73 415h11q8 -56 34.5 -220.5t28.5 -187.5q179 358 203 408h14l-73 -415h-9l38 216q14 88 34 189h-1q-76 -167 -202 -405zM399 715l-1 -9h-130l-72 -406h-9l72 406h-131l1 9h270z" />
    <glyph glyph-name="Omega" unicode="&#x2126;" horiz-adv-x="831" 
d="M412 719q-159 0 -246.5 -94.5t-87.5 -236.5q0 -68 19 -126.5t54.5 -104.5t75.5 -81t94 -69v-7h-255v10h126q12 0 38 -0.5t37 -0.5q13 -1 41 -1q-46 27 -85.5 61.5t-77 82t-58.5 109t-19 129.5q2 148 92.5 243.5t251.5 95.5q162 0 251 -95t93 -244q1 -55 -13.5 -106.5
t-37.5 -91t-55.5 -76t-65 -61.5t-68.5 -47q28 0 41 1q11 0 37 0.5t38 0.5h126v-10h-255v7q53 34 93 69t76 81t55 104.5t19 126.5q0 142 -88 236.5t-246 94.5z" />
    <glyph glyph-name="onethird" unicode="&#x2153;" horiz-adv-x="769" 
d="M134 0l402 715h11l-402 -715h-11zM207 631h-113l2 9h57q12 0 20 0.5t14.5 1t10.5 4.5t7 5.5t5 10t3.5 12.5t4.5 18.5t5 22.5h9l-75 -424h-10zM410 123h10q5 -119 126 -119q67 0 100.5 34.5t33.5 88.5q0 47 -34.5 75t-83.5 28h-21l2 9q66 3 110 29.5t44 80.5
q0 37 -27 59.5t-77 22.5q-53 0 -84.5 -27.5t-37.5 -74.5h-10q9 51 42 81.5t90 30.5q55 0 84.5 -24.5t29.5 -67.5q0 -49 -35.5 -77.5t-88.5 -35.5q45 -7 76 -34.5t31 -74.5q0 -62 -39.5 -97.5t-104.5 -35.5q-64 0 -99.5 33t-36.5 96z" />
    <glyph glyph-name="twothirds" unicode="&#x2154;" horiz-adv-x="863" 
d="M230 0l402 715h11l-402 -715h-11zM506 123h10q5 -119 126 -119q67 0 100.5 34.5t33.5 88.5q0 47 -34.5 75t-83.5 28h-21l2 9q66 3 110 29.5t44 80.5q0 37 -27 59.5t-77 22.5q-53 0 -84.5 -27.5t-37.5 -74.5h-10q9 51 42 81.5t90 30.5q55 0 84.5 -24.5t29.5 -67.5
q0 -49 -35.5 -77.5t-88.5 -35.5q45 -7 76 -34.5t31 -74.5q0 -62 -39.5 -97.5t-104.5 -35.5q-64 0 -99.5 33t-36.5 96zM333 290h-278v6q46 32 170 131q83 67 106 94q41 48 41 102q0 98 -114 98q-115 0 -134 -126h-10q9 62 45 99t99 37q59 0 91.5 -27.5t32.5 -80.5
q0 -26 -10.5 -51.5t-21.5 -42.5t-39.5 -43t-41 -36t-50.5 -39q-130 -101 -146 -111h261z" />
    <glyph glyph-name="oneeighth" unicode="&#x215b;" horiz-adv-x="786" 
d="M413 111q0 50 35.5 84.5t95.5 40.5q-34 9 -54.5 34t-20.5 63q0 43 34.5 75.5t96.5 32.5q56 0 88.5 -27.5t32.5 -73.5q0 -44 -30.5 -74.5t-78.5 -32.5q40 -7 68 -34.5t28 -71.5q0 -59 -42 -96t-113 -37q-64 0 -102 31t-38 86zM600 431q-57 0 -89 -28.5t-32 -69.5
q0 -43 27.5 -69t79.5 -26q56 0 90.5 28t34.5 73q0 44 -30.5 68t-80.5 24zM569 229q-66 0 -106 -33t-40 -85q0 -49 33 -78t97 -29q69 0 107 34t38 89q0 46 -34.5 74t-94.5 28zM134 0l402 715h11l-402 -715h-11zM207 631h-113l2 9h57q12 0 20 0.5t14.5 1t10.5 4.5t7 5.5t5 10
t3.5 12.5t4.5 18.5t5 22.5h9l-75 -424h-10z" />
    <glyph glyph-name="threeeighths" unicode="&#x215c;" horiz-adv-x="894" 
d="M525 111q0 50 35.5 84.5t95.5 40.5q-34 9 -54.5 34t-20.5 63q0 43 34.5 75.5t96.5 32.5q56 0 88.5 -27.5t32.5 -73.5q0 -44 -30.5 -74.5t-78.5 -32.5q40 -7 68 -34.5t28 -71.5q0 -59 -42 -96t-113 -37q-64 0 -102 31t-38 86zM712 431q-57 0 -89 -28.5t-32 -69.5
q0 -43 27.5 -69t79.5 -26q56 0 90.5 28t34.5 73q0 44 -30.5 68t-80.5 24zM681 229q-66 0 -106 -33t-40 -85q0 -49 33 -78t97 -29q69 0 107 34t38 89q0 46 -34.5 74t-94.5 28zM64 409h10q5 -119 126 -119q67 0 100.5 34.5t33.5 88.5q0 47 -34.5 75t-83.5 28h-21l2 9
q66 3 110 29.5t44 80.5q0 37 -27 59.5t-77 22.5q-53 0 -84.5 -27.5t-37.5 -74.5h-10q9 51 42 81.5t90 30.5q55 0 84.5 -24.5t29.5 -67.5q0 -49 -35.5 -77.5t-88.5 -35.5q45 -7 76 -34.5t31 -74.5q0 -62 -39.5 -97.5t-104.5 -35.5q-64 0 -99.5 33t-36.5 96zM246 0l402 715h11
l-402 -715h-11z" />
    <glyph glyph-name="fiveeighths" unicode="&#x215d;" horiz-adv-x="880" 
d="M94 493l63 222h207l-2 -10h-198l-57 -200q11 19 38 35.5t69 16.5q56 0 92 -33.5t36 -92.5q0 -67 -41 -111t-109 -44q-60 0 -96.5 33.5t-38.5 89.5h10q3 -47 33.5 -80t91.5 -33q66 0 103 41t37 104q0 55 -33 85.5t-85 30.5q-29 0 -54 -12t-32 -19t-24 -26zM510 111
q0 50 35.5 84.5t95.5 40.5q-34 9 -54.5 34t-20.5 63q0 43 34.5 75.5t96.5 32.5q56 0 88.5 -27.5t32.5 -73.5q0 -44 -30.5 -74.5t-78.5 -32.5q40 -7 68 -34.5t28 -71.5q0 -59 -42 -96t-113 -37q-64 0 -102 31t-38 86zM697 431q-57 0 -89 -28.5t-32 -69.5q0 -43 27.5 -69
t79.5 -26q56 0 90.5 28t34.5 73q0 44 -30.5 68t-80.5 24zM666 229q-66 0 -106 -33t-40 -85q0 -49 33 -78t97 -29q69 0 107 34t38 89q0 46 -34.5 74t-94.5 28zM231 0l402 715h11l-402 -715h-11z" />
    <glyph glyph-name="seveneighths" unicode="&#x215e;" horiz-adv-x="830" 
d="M459 111q0 50 35.5 84.5t95.5 40.5q-34 9 -54.5 34t-20.5 63q0 43 34.5 75.5t96.5 32.5q56 0 88.5 -27.5t32.5 -73.5q0 -44 -30.5 -74.5t-78.5 -32.5q40 -7 68 -34.5t28 -71.5q0 -59 -42 -96t-113 -37q-64 0 -102 31t-38 86zM646 431q-57 0 -89 -28.5t-32 -69.5
q0 -43 27.5 -69t79.5 -26q56 0 90.5 28t34.5 73q0 44 -30.5 68t-80.5 24zM615 229q-66 0 -106 -33t-40 -85q0 -49 33 -78t97 -29q69 0 107 34t38 89q0 46 -34.5 74t-94.5 28zM180 0l402 715h11l-402 -715h-11zM110 285h-12q10 16 52 84t81 128q19 31 68 108t63 100h-64h-193
l1 10h268l-1 -8l-47 -78q-12 -19 -95 -149.5t-121 -194.5z" />
    <glyph glyph-name="arrowleft" unicode="&#x2190;" horiz-adv-x="820" 
d="M782 320h-743q11 -11 174 -181l131 -139h-13q-31 32 -147.5 155t-161.5 170q49 49 172 180t137 145h13l-131 -139q-24 -25 -66 -70t-68.5 -72t-39.5 -39h743v-10z" />
    <glyph glyph-name="arrowup" unicode="&#x2191;" horiz-adv-x="720" 
d="M377 0v730q-11 -11 -181 -174l-139 -131v13q28 27 152.5 144t172.5 165q50 -51 185 -177.5t140 -131.5v-13l-139 131q-25 24 -70 66t-72 68.5t-39 39.5v-730h-10z" />
    <glyph glyph-name="arrowright" unicode="&#x2192;" horiz-adv-x="820" 
d="M788 320h-743v10h743q-13 12 -39.5 39t-68.5 72t-66 70l-131 139h13q5 -5 131.5 -140t177.5 -185q-48 -48 -165 -172.5t-144 -152.5h-13l131 139q163 170 174 181z" />
    <glyph glyph-name="arrowdown" unicode="&#x2193;" horiz-adv-x="720" 
d="M351 -15v730h10v-730q12 13 39 39.5t72 68.5t70 66l139 131v-13q-14 -14 -145 -137t-180 -172q-47 45 -170 161.5t-155 147.5v13l139 -131q170 -163 181 -174z" />
    <glyph glyph-name="uni2196" unicode="&#x2196;" horiz-adv-x="750" 
d="M637 20l-517 516q0 -13 -1 -103.5t-1 -147.5l-3 -191l-9 9q6 206 6 449q309 0 448 4l9 -9l-191 -2q-58 0 -148 -1t-103 -1l517 -516z" />
    <glyph glyph-name="uni2197" unicode="&#x2197;" horiz-adv-x="750" 
d="M595 536l-517 -516l-7 7l517 516q-13 0 -103.5 1t-147.5 1l-191 2l9 9q139 -4 448 -4q0 -243 6 -449l-9 -9l-3 191q-2 67 -2 251z" />
    <glyph glyph-name="uni2198" unicode="&#x2198;" horiz-adv-x="750" 
d="M100 532l517 -516q0 184 2 251l3 191l9 -9q-6 -206 -6 -449q-309 0 -448 -4l-9 9l191 2q57 0 147.5 1t103.5 1l-517 516z" />
    <glyph glyph-name="uni2199" unicode="&#x2199;" horiz-adv-x="750" 
d="M143 16l517 516l7 -7l-517 -516q12 0 103 -1t148 -1l191 -2l-9 -9q-139 4 -448 4q0 243 -6 449l9 9l3 -191q0 -58 1 -148t1 -103z" />
    <glyph glyph-name="partialdiff" unicode="&#x2202;" horiz-adv-x="621" 
d="M317 715h15q98 -60 162.5 -173.5t64.5 -241.5q0 -142 -75 -227.5t-205 -85.5q-101 0 -168 60t-67 177q0 143 80.5 229t198.5 86q86 0 141.5 -42t76.5 -100h2q-57 210 -226 318zM279 -3q131 0 200.5 86.5t69.5 216.5q0 100 -59.5 164.5t-166.5 64.5q-123 0 -196 -89
t-73 -216q0 -103 60.5 -165t164.5 -62z" />
    <glyph glyph-name="Delta" unicode="&#x2206;" horiz-adv-x="726" 
d="M322 715h12l314 -715h-641zM328 707l-307 -697h612z" />
    <glyph glyph-name="product" unicode="&#x220f;" horiz-adv-x="847" 
d="M690 -113v818h-433v-818h-10v818h-149v10h750v-10h-148v-818h-10z" />
    <glyph glyph-name="summation" unicode="&#x2211;" horiz-adv-x="770" 
d="M97 -106l324 413l-320 399v9h540v-10h-526l319 -398l-322 -410h540v-10h-555v7z" />
    <glyph glyph-name="minus" unicode="&#x2212;" 
d="M60 317v10h442v-10h-442z" />
    <glyph glyph-name="uni2219" unicode="&#x2219;" horiz-adv-x="167" 
d="M70 261l19 111h10l-19 -111h-10z" />
    <glyph glyph-name="radical" unicode="&#x221a;" 
d="M358 0h-13q-27 71 -182 515h-107v10h114l101 -291l80 -225h1q10 32 72 235l144 471h10z" />
    <glyph glyph-name="infinity" unicode="&#x221e;" horiz-adv-x="884" 
d="M445 340q7 8 30 33.5t34 37.5t34 32.5t40 30.5t40.5 18.5t46.5 8.5q66 0 108 -46t42 -121q0 -73 -39 -120t-111 -47q-21 0 -42.5 7.5t-36 14.5t-38.5 28t-33.5 30.5t-38 39.5t-36.5 39q-8 -9 -36.5 -39t-38 -39.5t-33.5 -30.5t-38.5 -28t-36 -14.5t-42.5 -7.5
q-72 0 -111 47t-39 120q0 75 42 121t108 46q27 0 53 -9.5t51.5 -30t41.5 -36.5t42.5 -45.5t36.5 -39.5zM220 177q28 0 54.5 10.5t57.5 38t48.5 45.5t57.5 62q-10 11 -33.5 37t-35 38t-33 31.5t-37 28t-37 16t-42.5 7.5q-65 0 -102.5 -43t-37.5 -113q0 -72 35 -115t105 -43z
M670 177q70 0 105 43t35 115q0 70 -37.5 113t-102.5 43q-14 0 -28 -2.5t-28 -9t-24.5 -12t-25 -18t-22.5 -19t-23.5 -23.5t-21.5 -23t-23 -26t-22 -25q35 -38 46 -50.5t39.5 -40t44.5 -37t40.5 -19t47.5 -9.5z" />
    <glyph glyph-name="integral" unicode="&#x222b;" 
d="M313 512l-68 -457q-21 -142 -55 -194.5t-116 -52.5q-11 0 -25 2l2 10q14 -2 23 -2q77 0 107 50.5t52 187.5l66 440q10 62 20.5 100t29.5 69t48 44t73 13q14 0 25 -1l-1 -10q-9 1 -25 1q-68 0 -103.5 -41t-52.5 -159z" />
    <glyph glyph-name="approxequal" unicode="&#x2248;" 
d="M296 387l-64 30q-52 24 -80 24q-25 0 -46 -13t-30.5 -24.5t-26.5 -35.5l-8 4q46 79 111 79q38 0 96 -30l67 -32q46 -24 84 -24q36 0 61 20t49 57l8 -4q-50 -83 -118 -83q-35 0 -103 32zM294 157l-64 30q-52 24 -80 24q-25 0 -46 -13t-30.5 -24.5t-26.5 -35.5l-8 4
q46 79 111 79q38 0 96 -30l67 -32q46 -24 84 -24q36 0 61 20t49 57l8 -4q-50 -83 -118 -83q-35 0 -103 32z" />
    <glyph glyph-name="notequal" unicode="&#x2260;" 
d="M57 410v10h271l74 140h12l-75 -140h160v-10h-165l-93 -175h258v-10h-263l-77 -145h-12l77 145h-167v10h172l93 175h-265z" />
    <glyph glyph-name="lessequal" unicode="&#x2264;" 
d="M63 0v10h396v-10h-396zM63 340v8l396 218v-11l-384 -210v-1l384 -216v-11z" />
    <glyph glyph-name="greaterequal" unicode="&#x2265;" 
d="M470 10v-10h-396v10h396zM470 348v-8l-396 -223v11l384 216v1l-384 210v11z" />
    <glyph glyph-name="dotmath" unicode="&#x22c5;" horiz-adv-x="167" 
d="M70 261l19 111h10l-19 -111h-10z" />
    <glyph glyph-name="lozenge" unicode="&#x25ca;" 
d="M293 0h-11l-238 356l239 359h10l242 -359zM524 356l-236 350l-233 -350l233 -348z" />
    <glyph glyph-name="commaaccent" unicode="&#xf6c3;" horiz-adv-x="369" 
d="M180 -163l78 115h11l-77 -115h-12z" />
    <glyph glyph-name="uniF8FF" unicode="&#xf8ff;" horiz-adv-x="164" 
d="M86 316q-18 0 -18 18q0 17 18 17q7 0 12 -5t5 -12q0 -18 -17 -18z" />
    <glyph glyph-name="acute.caps" horiz-adv-x="427" 
d="M317 877l-128 -116h-13l126 116h15z" />
    <glyph glyph-name="grave.caps" horiz-adv-x="512" 
d="M314 761l-128 116h15l126 -116h-13z" />
    <glyph glyph-name="circumflex.caps" horiz-adv-x="503" 
d="M257 875h10q12 -18 40 -58t39 -57h-11l-74 106l-112 -106h-13q54 50 121 115z" />
    <glyph glyph-name="caron.caps" horiz-adv-x="502" 
d="M245 760h-10q-12 18 -40 58t-39 57h11l74 -106l112 106h13q-54 -50 -121 -115z" />
    <glyph glyph-name="tilde.caps" horiz-adv-x="470" 
d="M271 798l-51 25q-28 13 -44 13q-37 0 -50 -59h-10q14 69 60 69q22 0 53 -17l47 -23q32 -15 47 -15q40 0 52 61h10q-13 -71 -62 -71q-16 0 -52 17z" />
    <glyph glyph-name="macron.caps" horiz-adv-x="428" 
d="M122 802l1 10h244l-1 -10h-244z" />
    <glyph glyph-name="breve.caps" horiz-adv-x="465" 
d="M247 792q85 0 119 87h10q-30 -96 -129 -96q-97 0 -97 96h10q0 -87 87 -87z" />
    <glyph glyph-name="dotaccent.caps" horiz-adv-x="328" 
d="M148 766l15 80h10l-15 -80h-10z" />
    <glyph glyph-name="ring.caps" horiz-adv-x="405" 
d="M246 759q-32 0 -54 22.5t-22 55.5q0 32 22 54t54 22t55 -22t23 -54q0 -33 -22.5 -55.5t-55.5 -22.5zM179 837q0 -29 19 -49t48 -20t49 19.5t20 49.5q0 28 -20 47.5t-49 19.5t-48 -19.5t-19 -47.5z" />
    <glyph glyph-name="cedilla.caps" horiz-adv-x="369" 
d="M177 -163l78 115h11l-77 -115h-12z" />
    <glyph glyph-name="ogonek.caps" horiz-adv-x="331" 
d="M127 -48l78 -115h-12l-77 115h11z" />
    <glyph glyph-name="hungarumlaut.caps" horiz-adv-x="612" 
d="M327 877l-126 -116h-14l126 116h14zM497 877l-126 -116h-14l126 116h14z" />
    <glyph glyph-name="dieresis.caps" horiz-adv-x="491" 
d="M192 766l15 80h10l-15 -80h-10zM305 766l15 80h10l-15 -80h-10z" />
    <glyph glyph-name="horn" horiz-adv-x="264" 
d="M182 715l-103 -191h-11l103 191h11z" />
    <glyph glyph-name="Gtilde" horiz-adv-x="786" 
d="M380 -14q-140 0 -227 87.5t-87 243.5q0 111 42 203.5t127 150.5t199 58q122 0 201.5 -60.5t106.5 -167.5h-10q-25 99 -101 158.5t-197 59.5q-87 0 -157.5 -34.5t-113 -92t-65 -128.5t-22.5 -147q0 -146 82.5 -233.5t221.5 -87.5q187 0 281 161q41 74 55 172h-314l2 10
h324l-59 -339h-10l16 87q5 26 13.5 73.5t12.5 64.5h-1q-34 -106 -116 -172.5t-204 -66.5zM488 798l-51 25q-28 13 -44 13q-37 0 -50 -59h-10q14 69 60 69q22 0 53 -17l47 -23q32 -15 47 -15q40 0 52 61h10q-13 -71 -62 -71q-16 0 -52 17z" />
    <glyph glyph-name="gtilde" horiz-adv-x="590" 
d="M228 -179q100 0 149.5 58t73.5 197l17 94h-1q-24 -58 -76.5 -100.5t-129.5 -42.5q-99 0 -154.5 61.5t-55.5 169.5q0 116 66 198.5t180 82.5q98 0 150.5 -65.5t49.5 -144.5l9 55q14 84 15 91l9 50h10l-77 -434q-10 -56 -19.5 -93t-27 -75.5t-41.5 -61t-61 -36.5t-86 -14
q-95 0 -150.5 49.5t-59.5 122.5h10q4 -69 55.5 -115.5t144.5 -46.5zM261 37q104 0 166 81.5t62 202.5q0 93 -53 150.5t-139 57.5q-110 0 -173 -78.5t-63 -193.5q0 -106 54 -163t146 -57zM356 648l-51 25q-28 13 -44 13q-37 0 -50 -59h-10q14 69 60 69q22 0 53 -17l47 -23
q32 -15 47 -15q40 0 52 61h10q-13 -71 -62 -71q-16 0 -52 17z" />
    <glyph glyph-name="Mcircumflex" horiz-adv-x="759" 
d="M324 0h-12l-84 480q-8 45 -17 95t-14 79t-8 50h-1q-16 -114 -52 -303l-71 -401h-10l127 715h14l76 -428q13 -68 48 -276h1q23 45 159 293l228 411h14l-127 -715h-10l66 372q22 140 60 331h-1q-9 -19 -179 -326zM457 875h10q12 -18 40 -58t39 -57h-11l-74 106l-112 -106
h-13q54 50 121 115z" />
    <glyph glyph-name="mcircumflex" horiz-adv-x="933" 
d="M36 0l78 445l15 80h11l-31 -163q23 72 74.5 124.5t137.5 52.5q81 0 121 -39.5t40 -110.5q0 -24 -4 -41h1q21 80 75 135.5t142 55.5q78 0 120 -38.5t42 -112.5q0 -38 -11 -101l-51 -287h-10l51 289q11 63 11 100q0 66 -37.5 103t-114.5 37q-52 0 -93.5 -22t-67 -59.5
t-40.5 -77t-23 -84.5l-51 -286h-10l51 289q11 63 11 100q0 66 -37.5 103t-114.5 37q-52 0 -93.5 -22t-67 -59.5t-40.5 -77t-23 -84.5l-51 -286h-10zM537 715h10q29 -44 81 -119h-11l-76 110l-114 -110h-13q74 70 123 119z" />
    <glyph glyph-name="Mmacron" horiz-adv-x="759" 
d="M324 0h-12l-84 480q-8 45 -17 95t-14 79t-8 50h-1q-16 -114 -52 -303l-71 -401h-10l127 715h14l76 -428q13 -68 48 -276h1q23 45 159 293l228 411h14l-127 -715h-10l66 372q22 140 60 331h-1q-9 -19 -179 -326zM335 802l1 10h244l-1 -10h-244z" />
    <glyph glyph-name="mmacron" horiz-adv-x="933" 
d="M36 0l78 445l15 80h11l-31 -163q23 72 74.5 124.5t137.5 52.5q81 0 121 -39.5t40 -110.5q0 -24 -4 -41h1q21 80 75 135.5t142 55.5q78 0 120 -38.5t42 -112.5q0 -38 -11 -101l-51 -287h-10l51 289q11 63 11 100q0 66 -37.5 103t-114.5 37q-52 0 -93.5 -22t-67 -59.5
t-40.5 -77t-23 -84.5l-51 -286h-10l51 289q11 63 11 100q0 66 -37.5 103t-114.5 37q-52 0 -93.5 -22t-67 -59.5t-40.5 -77t-23 -84.5l-51 -286h-10zM401 652l1 10h244l-1 -10h-244z" />
    <glyph glyph-name="Ncircumflex" horiz-adv-x="700" 
d="M182 715h13l209 -438q17 -36 66 -138.5t59 -125.5h1q7 58 47 273l76 429h10l-127 -715h-10l-206 431q-30 63 -74 154.5t-56 118.5h-1q-8 -72 -60 -343l-64 -361h-10zM428 875h10q12 -18 40 -58t39 -57h-11l-74 106l-112 -106h-13q54 50 121 115z" />
    <glyph glyph-name="ncircumflex" horiz-adv-x="569" 
d="M36 0l78 445l15 80h11l-31 -163q10 32 26.5 60.5t42 56t64 44t84.5 16.5q79 0 123.5 -38.5t44.5 -112.5q0 -38 -11 -101l-51 -287h-10l51 289q11 63 11 100q0 65 -40 102.5t-118 37.5q-52 0 -94.5 -22t-68.5 -59t-42 -77t-24 -85l-51 -286h-10zM344 715h10
q29 -44 81 -119h-11l-76 110l-114 -110h-13q74 70 123 119z" />
    <glyph glyph-name="Ndieresis" horiz-adv-x="700" 
d="M182 715h13l209 -438q17 -36 66 -138.5t59 -125.5h1q7 58 47 273l76 429h10l-127 -715h-10l-206 431q-30 63 -74 154.5t-56 118.5h-1q-8 -72 -60 -343l-64 -361h-10zM363 766l15 80h10l-15 -80h-10zM476 766l15 80h10l-15 -80h-10z" />
    <glyph glyph-name="ndieresis" horiz-adv-x="569" 
d="M36 0l78 445l15 80h11l-31 -163q10 32 26.5 60.5t42 56t64 44t84.5 16.5q79 0 123.5 -38.5t44.5 -112.5q0 -38 -11 -101l-51 -287h-10l51 289q11 63 11 100q0 65 -40 102.5t-118 37.5q-52 0 -94.5 -22t-68.5 -59t-42 -77t-24 -85l-51 -286h-10zM267 616l15 80h10l-15 -80
h-10zM380 616l15 80h10l-15 -80h-10z" />
    <glyph glyph-name="Nmacron" horiz-adv-x="700" 
d="M182 715h13l209 -438q17 -36 66 -138.5t59 -125.5h1q7 58 47 273l76 429h10l-127 -715h-10l-206 431q-30 63 -74 154.5t-56 118.5h-1q-8 -72 -60 -343l-64 -361h-10zM302 802l1 10h244l-1 -10h-244z" />
    <glyph glyph-name="nmacron" horiz-adv-x="569" 
d="M36 0l78 445l15 80h11l-31 -163q10 32 26.5 60.5t42 56t64 44t84.5 16.5q79 0 123.5 -38.5t44.5 -112.5q0 -38 -11 -101l-51 -287h-10l51 289q11 63 11 100q0 65 -40 102.5t-118 37.5q-52 0 -94.5 -22t-68.5 -59t-42 -77t-24 -85l-51 -286h-10zM224 652l1 10h244l-1 -10
h-244z" />
    <glyph glyph-name="Pmacron" horiz-adv-x="586" 
d="M55 0l127 715h131q42 0 75.5 -3t70.5 -14t62 -28.5t41.5 -49.5t16.5 -75q0 -238 -298 -238h-162l-54 -307h-10zM190 705l-69 -388h160q288 0 288 228q0 50 -22 84t-62 49.5t-79.5 21t-92.5 5.5h-123zM262 802l1 10h244l-1 -10h-244z" />
    <glyph glyph-name="pmacron" horiz-adv-x="601" 
d="M283 -4q110 0 179 87t69 218q0 101 -52 164.5t-148 63.5q-61 0 -109 -27.5t-75.5 -74t-41.5 -100.5t-14 -112q0 -100 47.5 -159.5t144.5 -59.5zM128 525h10l-3 -16q-21 -117 -25 -138q25 74 80 121t141 47q95 0 152.5 -62t57.5 -175q0 -136 -72.5 -226t-185.5 -90
q-106 0 -155.5 66t-45.5 162q-12 -87 -30 -183l-38 -211h-10zM234 652l1 10h244l-1 -10h-244z" />
    <glyph glyph-name="at.case" horiz-adv-x="846" 
d="M604 527h10q-24 -147 -49 -271q-4 -17 -4 -36q0 -27 13 -39.5t47 -12.5q70 0 123.5 70.5t53.5 184.5q0 134 -89.5 216t-243.5 82q-114 0 -203.5 -52t-135.5 -137t-46 -185q0 -160 100 -261t276 -101q158 0 273 99l7 -7q-112 -102 -280 -102q-173 0 -279.5 101t-106.5 271
q0 160 111 272t284 112q156 0 249.5 -85t93.5 -222q0 -115 -55.5 -190t-131.5 -75q-36 0 -52.5 13.5t-16.5 45.5q0 17 6 41h-1q-15 -43 -53 -72.5t-90 -29.5q-70 0 -109 42t-39 121q0 87 49 152t134 65q64 0 98 -39t34 -99h1zM449 527q-78 0 -125.5 -60t-47.5 -147
q0 -73 36 -113.5t102 -40.5q43 0 75 20t50 53t26.5 70t8.5 77q0 62 -31 101.5t-94 39.5z" />
    <glyph glyph-name="bar.case" horiz-adv-x="236" 
d="M192 751h10l-141 -794h-10z" />
    <glyph glyph-name="plus.case" 
d="M514 367h-217v-222h-10v222h-218v10h218v223h10v-223h217v-10z" />
    <glyph glyph-name="minus.case" 
d="M68 367v10h442v-10h-442z" />
    <glyph glyph-name="plusminus.case" 
d="M49 50v10h442v-10h-442zM491 376h-217v-213h-10v213h-218v10h218v214h10v-214h217v-10z" />
    <glyph glyph-name="multiply.case" 
d="M97 179l-7 7l183 183l-183 184l7 7l183 -184l185 185l7 -7l-185 -185l185 -184l-7 -7l-185 184z" />
    <glyph glyph-name="divide.case" 
d="M70 367v10h442v-10h-442zM286 145v111h10v-111h-10zM286 488v111h10v-111h-10z" />
    <glyph glyph-name="equal.case" 
d="M65 460v10h442v-10h-442zM65 275v10h442v-10h-442z" />
    <glyph glyph-name="notequal.case" 
d="M61 460v10h271l74 140h12l-75 -140h160v-10h-165l-93 -175h258v-10h-263l-77 -145h-12l77 145h-167v10h172l93 175h-265z" />
    <glyph glyph-name="approxequal.case" 
d="M297 407l-64 30q-52 24 -80 24q-25 0 -46 -13t-30.5 -24.5t-26.5 -35.5l-8 4q46 79 111 79q38 0 96 -30l67 -32q46 -24 84 -24q36 0 61 20t49 57l8 -4q-50 -83 -118 -83q-35 0 -103 32zM295 157l-64 30q-52 24 -80 24q-25 0 -46 -13t-30.5 -24.5t-26.5 -35.5l-8 4
q46 79 111 79q38 0 96 -30l67 -32q46 -24 84 -24q36 0 61 20t49 57l8 -4q-50 -83 -118 -83q-35 0 -103 32z" />
    <glyph glyph-name="logicalnot.case" 
d="M41 487v10h503v-310h-10v300h-493z" />
    <glyph glyph-name="parenleft.case" horiz-adv-x="282" 
d="M53 228q0 170 72 320.5t210 249.5l-2 -11q-132 -100 -201 -246t-69 -313q0 -203 114 -319l-2 -10q-122 114 -122 329z" />
    <glyph glyph-name="parenright.case" horiz-adv-x="282" 
d="M243 469q0 -170 -72 -320.5t-210 -249.5l2 11q132 100 201 246t69 313q0 203 -114 319l2 10q122 -114 122 -329z" />
    <glyph glyph-name="hyphen.case" horiz-adv-x="438" 
d="M90 361l2 10h272l-2 -10h-272z" />
    <glyph glyph-name="bracketleft.case" horiz-adv-x="276" 
d="M172 -53l-1 -10h-124l146 828h123l-2 -10h-113l-142 -808h113z" />
    <glyph glyph-name="bracketright.case" horiz-adv-x="277" 
d="M121 755l1 10h124l-146 -828h-123l2 10h113l142 808h-113z" />
    <glyph glyph-name="braceleft.case" horiz-adv-x="264" 
d="M57 357l2 9q44 9 63 30.5t31 80.5l38 219q8 47 28 62t61 15q4 0 8.5 -0.5t6.5 -0.5h7l-1 -9q-8 1 -21 1q-41 0 -57 -13.5t-22 -54.5l-38 -219q-10 -57 -27.5 -81.5t-62.5 -34.5v-1q30 -9 42 -25t12 -43q0 -16 -7 -56l-37 -211q-4 -25 -4 -34q0 -21 13 -30t45 -9
q13 0 21 1l-1 -9q-2 -1 -6 -1h-14q-36 0 -52 10t-16 38q0 14 4 34l37 211q7 40 7 56q0 27 -13.5 41t-46.5 24z" />
    <glyph glyph-name="braceright.case" horiz-adv-x="263" 
d="M225 359l-2 -9q-45 -10 -64 -30.5t-30 -80.5l-38 -219q-9 -47 -28.5 -62t-60.5 -15h-16q-5 0 -6 1l1 9q8 -1 21 -1q41 0 57 13.5t22 54.5l38 219q9 56 27.5 81.5t62.5 34.5v1q-30 9 -42 25t-12 43q0 16 7 56l37 211q3 19 3 32q0 23 -12.5 32t-44.5 9q-13 0 -21 -1l1 9h5
q1 0 6 0.5t9 0.5q36 0 51.5 -10.5t15.5 -39.5q0 -13 -3 -32l-37 -211q-7 -40 -7 -56q0 -27 13.5 -41t46.5 -24z" />
    <glyph glyph-name="guillemotleft.case" horiz-adv-x="448" 
d="M409 533l-142 -187l75 -188h-10l-76 188l143 187h10zM233 533l-142 -187l75 -188h-10l-76 188l143 187h10z" />
    <glyph glyph-name="guillemotright.case" horiz-adv-x="448" 
d="M52 158l142 187l-75 188h10l76 -188l-143 -187h-10zM228 158l142 187l-75 188h10l76 -188l-143 -187h-10z" />
    <glyph glyph-name="endash.case" horiz-adv-x="655" 
d="M97 358l1 10h476l-1 -10h-476z" />
    <glyph glyph-name="emdash.case" horiz-adv-x="1020" 
d="M97 358l1 10h841l-1 -10h-841z" />
    <glyph glyph-name="guilsinglleft.case" horiz-adv-x="272" 
d="M233 533l-142 -187l75 -188h-10l-76 188l143 187h10z" />
    <glyph glyph-name="guilsinglright.case" horiz-adv-x="272" 
d="M52 158l142 187l-75 188h10l76 -188l-143 -187h-10z" />
    <glyph glyph-name="brokenbar.case" horiz-adv-x="180" 
d="M110 448l53 303h10l-53 -303h-10zM24 -42l53 303h10l-53 -303h-10z" />
    <glyph glyph-name="registered.alt" horiz-adv-x="872" 
d="M332 143v427h116q147 0 147 -115q0 -108 -118 -122l115 -190h-12l-113 188h-125v-188h-10zM342 560v-219h106q137 0 137 114q0 105 -137 105h-106zM822 360q0 -158 -110 -267.5t-268 -109.5q-156 0 -265.5 110t-109.5 267t109.5 266.5t267.5 109.5q156 0 266 -110
t110 -266zM812 360q0 151 -107 258.5t-259 107.5q-155 0 -261 -107t-106 -259t105 -259.5t261 -107.5q153 0 260 107.5t107 259.5z" />
    <glyph glyph-name="less.case" 
d="M63 360v8l396 218v-11l-384 -210v-1l384 -216v-11z" />
    <glyph glyph-name="greater.case" 
d="M505 368v-8l-396 -223v11l384 216v1l-384 210v11z" />
    <glyph glyph-name="lessequal.case" 
d="M63 0v10h396v-10h-396zM63 340v8l396 218v-11l-384 -210v-1l384 -216v-11z" />
    <glyph glyph-name="greaterequal.case" 
d="M470 10v-10h-396v10h396zM470 348v-8l-396 -223v11l384 216v1l-384 210v11z" />
    <glyph glyph-name="infinity.case" horiz-adv-x="883" 
d="M449 370q7 8 30 33.5t34 37.5t34 32.5t40 30.5t40.5 18.5t46.5 8.5q66 0 108 -46t42 -121q0 -73 -39 -120t-111 -47q-21 0 -42.5 7.5t-36 14.5t-38.5 28t-33.5 30.5t-38 39.5t-36.5 39q-8 -9 -36.5 -39t-38 -39.5t-33.5 -30.5t-38.5 -28t-36 -14.5t-42.5 -7.5
q-72 0 -111 47t-39 120q0 75 42 121t108 46q27 0 53 -9.5t51.5 -30t41.5 -36.5t42.5 -45.5t36.5 -39.5zM224 207q28 0 54.5 10.5t57.5 38t48.5 45.5t57.5 62q-10 11 -33.5 37t-35 38t-33 31.5t-37 28t-37 16t-42.5 7.5q-65 0 -102.5 -43t-37.5 -113q0 -72 35 -115t105 -43z
M674 207q70 0 105 43t35 115q0 70 -37.5 113t-102.5 43q-14 0 -28 -2.5t-28 -9t-24.5 -12t-25 -18t-22.5 -19t-23.5 -23.5t-21.5 -23t-23 -26t-22 -25q35 -38 46 -50.5t39.5 -40t44.5 -37t40.5 -19t47.5 -9.5z" />
    <glyph glyph-name="uni00AD.case" horiz-adv-x="438" 
d="M90 361l2 10h272l-2 -10h-272z" />
    <glyph glyph-name="zero.slashplf" horiz-adv-x="625" 
d="M564 357q-62 -371 -300 -371q-100 0 -148.5 51.5t-49.5 159.5q0 80 14 156q13 79 33 140.5t54 117.5t87.5 87t124.5 31q199 0 199 -219q0 -77 -14 -153zM76 197q0 -124 69 -171l372 645q-46 48 -137 48q-90 0 -154 -54q-73 -62 -111.5 -201.5t-38.5 -266.5zM264 -4
q89 0 151 53q76 65 114.5 202t38.5 259q0 101 -44 154l-371 -643q40 -25 111 -25z" />
    <glyph glyph-name="zero.slash" 
d="M530 357q-62 -371 -300 -371q-100 0 -148.5 51.5t-49.5 159.5q0 80 14 156q13 79 33 140.5t54 117.5t87.5 87t124.5 31q199 0 199 -219q0 -77 -14 -153zM42 197q0 -124 69 -171l372 645q-47 48 -137 48t-154 -54q-73 -62 -111.5 -201.5t-38.5 -266.5zM230 -4q89 0 151 53
q76 65 114.5 202t38.5 259q0 101 -44 154l-371 -643q40 -25 111 -25z" />
    <glyph glyph-name="zero.tosf" 
d="M231 -4q89 0 148 52q74 65 112 199t38 253q0 205 -184 205q-90 0 -151 -53q-72 -61 -109.5 -198t-37.5 -261q0 -197 184 -197zM525 350q-62 -364 -294 -364q-193 0 -194 207q0 78 14 153q10 61 24 110.5t37.5 99.5t54 83.5t76 54.5t101.5 21q195 0 195 -215
q0 -75 -14 -150z" />
    <glyph glyph-name="one.tosf" 
d="M278 0l101 571h-192l2 8h115q54 0 66.5 6.5t18.5 40.5l15 75h9l-125 -701h-10z" />
    <glyph glyph-name="two.tosf" 
d="M455 0h-455l2 8q163 116 276 203q4 3 31.5 24t34.5 26.5t32.5 26.5t34.5 30t29.5 30t29 34.5t22.5 34.5t19.5 39t10.5 40t5 44q0 76 -49.5 120.5t-141.5 44.5q-102 0 -156.5 -57t-67.5 -147h-10q13 97 72.5 155.5t161.5 58.5q91 0 146 -45t55 -130q0 -51 -18.5 -96.5
t-56.5 -86.5t-76 -73t-96 -77q-10 -7 -15 -11q-189 -144 -256 -186h438z" />
    <glyph glyph-name="three.tosf" 
d="M30 192h10q1 -92 53 -144t154 -52q103 0 164.5 59.5t61.5 152.5q0 81 -61.5 124t-150.5 43h-8l2 8q45 0 86 9.5t78 29t59 56t22 84.5q0 64 -42 103.5t-130 39.5q-169 0 -205 -167h-10q13 78 69 127.5t146 49.5q86 0 134 -40.5t48 -112.5q0 -79 -54 -126.5t-152 -56.5v-1
q76 -7 127.5 -50t51.5 -120q0 -100 -65 -161t-171 -61q-104 0 -160 52.5t-57 153.5z" />
    <glyph glyph-name="four.tosf" 
d="M509 194l-1 -10h-138l-34 -184h-9l33 184h-354l1 6l449 512h6l-90 -508h137zM449 679h-2q-75 -88 -211 -241l-60 -69l-98 -112l-56 -63h340l30 169q51 293 57 316z" />
    <glyph glyph-name="five.tosf" 
d="M91 335l102 366h336l-2 -10h-328l-94 -340q19 32 65.5 60.5t111.5 28.5q91 0 149 -52.5t58 -148.5q0 -108 -65.5 -180.5t-175.5 -72.5q-96 0 -155 53.5t-63 141.5h10q2 -76 55 -130.5t153 -54.5q105 0 168 69.5t63 173.5q0 91 -54 141t-143 50q-30 0 -57.5 -7.5
t-43.5 -15.5t-36 -25.5t-25.5 -24t-21.5 -24.5z" />
    <glyph glyph-name="six.tosf" 
d="M544 528h-10q-2 82 -47 129.5t-131 47.5q-72 0 -127 -36q-136 -91 -171 -417h1q11 74 73 129.5t156 55.5t153 -51t59 -151q0 -104 -65.5 -176.5t-175.5 -72.5q-97 0 -153 55t-56 165q0 65 14 147q33 190 106.5 276t185.5 86q95 0 141.5 -53t46.5 -134zM288 428
q-101 0 -164.5 -65.5t-63.5 -163.5q0 -91 49.5 -147t149.5 -56q106 0 168.5 68.5t62.5 170.5q0 87 -53 140t-149 53z" />
    <glyph glyph-name="seven.tosf" 
d="M137 0h-11q37 62 216 344q44 66 125.5 191t101.5 156h-440l2 10h450l-2 -8l-38 -61q-48 -76 -135 -207.5t-152 -233.5t-117 -191z" />
    <glyph glyph-name="eight.tosf" 
d="M257 379q-68 5 -108.5 47.5t-40.5 109.5q0 75 58.5 127t156.5 52q91 0 143 -44.5t52 -117.5q0 -76 -54.5 -125t-138.5 -51q78 -9 126 -53t48 -121q0 -99 -69.5 -158t-183.5 -59q-99 0 -162 49t-63 137q0 86 60.5 145.5t175.5 61.5zM323 705q-88 0 -146.5 -46.5
t-58.5 -122.5q0 -73 49 -113.5t127 -40.5q95 0 154.5 46t59.5 125q0 67 -48.5 109.5t-136.5 42.5zM277 374q-112 0 -179 -54.5t-67 -147.5q0 -82 60.5 -129t154.5 -47q108 0 176 55.5t68 151.5q0 79 -55 125t-158 46z" />
    <glyph glyph-name="nine.tosf" 
d="M32 173h10q2 -82 47 -129.5t131 -47.5q72 0 127 36q136 91 171 417h-1q-11 -74 -73 -129.5t-156 -55.5t-153 51t-59 151q0 104 65.5 176.5t175.5 72.5q97 0 153 -55t56 -165q0 -65 -14 -147q-33 -190 -106.5 -276t-185.5 -86q-95 0 -141.5 53t-46.5 134zM288 273
q101 0 164.5 65.5t63.5 163.5q0 91 -49.5 147t-149.5 56q-106 0 -168.5 -68.5t-62.5 -170.5q0 -87 53 -140t149 -53z" />
    <glyph glyph-name="idotaccent" horiz-adv-x="189" 
d="M128 525h10l-93 -525h-10zM152 604h-10l20 111h10z" />
    <glyph glyph-name="zero.sub" horiz-adv-x="460" 
d="M180 -125q65 0 112 40q57 50 85.5 151t28.5 193q0 155 -140 155q-67 0 -113 -41q-55 -46 -84 -150t-29 -199q0 -149 140 -149zM405 144q-47 -278 -225 -278q-75 0 -111.5 38.5t-37.5 119.5q0 64 10 117q10 59 25 105.5t40.5 88.5t66 65t93.5 23q150 0 150 -164
q0 -57 -11 -115z" />
    <glyph glyph-name="one.sub" horiz-adv-x="269" 
d="M122 -123l78 436h-147l1 9h89q40 0 49 5t15 29q1 9 5.5 29t5.5 29h8l-94 -537h-10z" />
    <glyph glyph-name="two.sub" horiz-adv-x="425" 
d="M333 -123h-349l2 8q65 45 211 154q3 3 12.5 10t13.5 11q38 30 59 48.5t49 49.5t41.5 63.5t13.5 68.5q0 56 -37.5 90t-106.5 34q-78 0 -118.5 -43.5t-51.5 -111.5h-10q9 74 55.5 119.5t124.5 45.5q71 0 112.5 -34t41.5 -100q0 -71 -52.5 -131.5t-147.5 -132.5
q-161 -120 -191 -139h330z" />
    <glyph glyph-name="three.sub" horiz-adv-x="428" 
d="M8 24h10q1 -69 40.5 -109t117.5 -40q77 0 123.5 45.5t46.5 114.5q0 62 -46.5 94.5t-113.5 32.5h-7l2 9q46 0 85.5 11.5t70 43.5t30.5 80t-32.5 78t-97.5 30q-69 0 -107 -35.5t-49 -91.5h-9q9 59 52.5 97.5t112.5 38.5q66 0 103 -31.5t37 -85.5q0 -59 -39.5 -95
t-109.5 -45q54 -6 91 -40t37 -91q0 -76 -49.5 -122.5t-130.5 -46.5t-124 40t-44 118z" />
    <glyph glyph-name="four.sub" horiz-adv-x="434" 
d="M380 27l-1 -10h-106l-25 -140h-9l25 140h-270l1 7l342 390h7l-69 -387h105zM289 155l12 68q16 108 30 170l-35 -40l-124 -141l-46 -54q-5 -5 -75 -84l-42 -47h256zM331 393l2 2l-1 1v-1q-1 -1 -1 -2z" />
    <glyph glyph-name="five.sub" horiz-adv-x="416" 
d="M49 133l78 281h258l-1 -10h-250q-13 -45 -35.5 -127.5t-33.5 -121.5q47 60 131 60q71 0 115 -39.5t44 -114.5q0 -82 -50.5 -138t-134.5 -56q-75 0 -120 40.5t-47 109.5h9q3 -58 42.5 -99t115.5 -41q79 0 127 53t48 131q0 68 -41 106.5t-108 38.5q-35 0 -64.5 -13.5
t-40.5 -23.5t-30 -32q-4 -3 -5 -5z" />
    <glyph glyph-name="six.sub" horiz-adv-x="441" 
d="M409 280h-10q-2 63 -35.5 98.5t-99.5 35.5q-54 0 -95 -27q-99 -66 -128 -299q15 52 60.5 88t111.5 36q72 0 117 -39.5t45 -116.5q0 -79 -50 -134.5t-134 -55.5q-76 0 -118.5 41.5t-42.5 126.5q0 55 10 112q48 277 224 277q73 0 109 -40.5t36 -102.5zM213 203
q-75 0 -124.5 -50.5t-49.5 -123.5q0 -68 38 -111t114 -43q79 0 127 52.5t48 128.5q0 67 -40 107t-113 40z" />
    <glyph glyph-name="seven.sub" horiz-adv-x="388" 
d="M71 -123h-11q31 51 167 265l107 165q44 64 64 97h-335l2 10h346l-2 -8l-29 -47q-25 -40 -119 -184q-150 -229 -190 -298z" />
    <glyph glyph-name="eight.sub" horiz-adv-x="453" 
d="M15 8q0 64 43 108.5t126 50.5q-49 8 -75.5 39t-26.5 81q0 57 45 96.5t120 39.5q71 0 110.5 -33.5t39.5 -90.5t-38.5 -93.5t-101.5 -41.5q56 -9 90.5 -42t34.5 -90q0 -76 -53 -121t-140 -45q-77 0 -125.5 37t-48.5 105zM247 414q-66 0 -110.5 -35t-44.5 -92q0 -55 37 -86
t96 -31q72 0 117 35t45 94q0 50 -36.5 82.5t-103.5 32.5zM212 161q-85 0 -136 -41t-51 -112q0 -62 46 -97.5t118 -35.5q81 0 132.5 42t51.5 115q0 59 -42 94t-119 35z" />
    <glyph glyph-name="nine.sub" horiz-adv-x="441" 
d="M18 9h9q2 -62 36 -98t100 -36q52 0 95 27q100 66 128 299q-15 -52 -60.5 -88t-110.5 -36q-73 0 -118 39t-45 117q0 79 50 134.5t135 55.5q74 0 117 -41.5t43 -126.5q0 -49 -11 -112q-51 -277 -223 -277q-74 0 -109.5 40.5t-35.5 102.5zM215 86q75 0 123.5 50t48.5 124
q0 68 -37.5 111t-112.5 43q-80 0 -128 -52.5t-48 -128.5q0 -67 40 -107t114 -40z" />
    <glyph glyph-name="a.sub" horiz-adv-x="387" 
d="M51 153h-10q11 57 49.5 93t106.5 36q132 0 132 -118q0 -27 -5 -55l-7 -38q-7 -33 -20 -111q-9 -49 -7 -82h-10q0 48 12 110q-20 -53 -65 -85.5t-108 -32.5q-122 0 -122 98q0 22 7 39.5t23 29.5t30.5 20.5t40.5 14.5t42 9t45 7q60 7 116 12q3 0 6.5 0.5t5.5 0.5q6 37 6 63
q0 109 -122 109q-63 0 -99.5 -33t-46.5 -87zM305 60l3 17l3 14q-96 -6 -135 -13q-92 -16 -122 -32q-47 -26 -47 -78q0 -41 27.5 -65t84.5 -24q68 0 119.5 45.5t66.5 135.5z" />
    <glyph glyph-name="b.sub" horiz-adv-x="437" 
d="M185 -124q81 0 133 64.5t52 161.5q0 74 -39 121.5t-110 47.5q-87 0 -132.5 -69.5t-45.5 -163.5q0 -74 35 -118t107 -44zM10 -123h-10l95 536h9l-28 -156l-6 -38q-4 -25 -9 -49q23 47 63.5 79t96.5 32q73 0 116 -46t43 -132q0 -103 -54.5 -170t-140.5 -67q-75 0 -111.5 44
t-38.5 112q-15 -95 -21 -121z" />
    <glyph glyph-name="c.sub" horiz-adv-x="434" 
d="M368 4h9q-55 -136 -184 -136q-80 0 -127 47.5t-47 133.5q0 98 54.5 165.5t146.5 67.5q72 0 116 -39t53 -102h-9q-10 59 -50.5 95t-108.5 36q-88 0 -140 -64t-52 -159q0 -80 44 -126t120 -46q123 0 175 127z" />
    <glyph glyph-name="d.sub" horiz-adv-x="439" 
d="M212 271q-80 0 -131.5 -64.5t-51.5 -161.5q0 -75 38.5 -122t110.5 -47q87 0 132.5 69.5t45.5 163.5q0 73 -36 117.5t-108 44.5zM330 -123h-9l2 13l5 30q1 4 4 23.5t7 36.5q-20 -50 -61 -82t-100 -32q-73 0 -116 46t-43 132q0 103 53.5 170t139.5 67q75 0 113 -44t40 -110
l20 119l30 167h10z" />
    <glyph glyph-name="e.sub" horiz-adv-x="438" 
d="M389 87h-360q-2 -18 -2 -37q0 -81 43.5 -127t121.5 -46q115 0 171 114h10q-59 -123 -181 -123q-82 0 -128 47t-46 135q0 95 55.5 163.5t147.5 68.5q83 0 125.5 -49t42.5 -133v-13zM221 272q-78 0 -126.5 -50t-63.5 -125h348v6q0 79 -39.5 124t-118.5 45z" />
    <glyph glyph-name="f.sub" horiz-adv-x="169" 
d="M200 413v-10q-14 2 -19 2q-29 0 -45 -17.5t-25 -59.5l-10 -58h75l-2 -9h-75q-40 -218 -68 -384h-9l68 384h-52l2 9h51l9 50q9 50 25.5 72t55.5 22q15 0 19 -1z" />
    <glyph glyph-name="g.sub" horiz-adv-x="429" 
d="M157 -255q73 0 110 44t55 147l10 59q-18 -40 -57 -68.5t-94 -28.5q-75 0 -116.5 46t-41.5 127q0 87 49.5 149t134.5 62q70 0 109 -44t42 -101l16 96l7 38h10l-58 -324q-9 -52 -19.5 -86t-29.5 -65t-50.5 -45.5t-76.5 -14.5q-71 0 -114 38t-45 93h10q2 -52 41 -87t108 -35
zM181 -93q77 0 123 60.5t46 150.5q0 69 -39.5 111.5t-103.5 42.5q-81 0 -128 -58t-47 -144q0 -79 40.5 -121t108.5 -42z" />
    <glyph glyph-name="h.sub" horiz-adv-x="402" 
d="M0 -123l96 537h10l-29 -161l-10 -56l-6 -31q20 49 58.5 82.5t98.5 33.5q59 0 93 -29t34 -85q0 -38 -9 -75q-6 -36 -19.5 -112t-18.5 -104h-9l38 217q8 50 8 75q0 47 -30 75t-87 28q-37 0 -68 -16.5t-51 -44t-32 -57t-19 -62.5l-38 -215h-10z" />
    <glyph glyph-name="i.sub" horiz-adv-x="118" 
d="M70 271h9l-69 -394h-10zM90 328h-10l15 86h10z" />
    <glyph glyph-name="j.sub" horiz-adv-x="119" 
d="M-97 -268l2 9q3 -1 14 -1q32 0 48 18.5t24 63.5l80 450h9l-79 -450q-9 -50 -26.5 -70.5t-55.5 -20.5q-13 0 -16 1zM91 330h-10l15 85h10z" />
    <glyph glyph-name="k.sub" horiz-adv-x="305" 
d="M250 -123h-14l-189 210q-6 -38 -19.5 -108.5t-18.5 -101.5h-9l95 537h10l-57 -318l245 175h17l-254 -180z" />
    <glyph glyph-name="l.sub" horiz-adv-x="119" 
d="M95 414h10l-95 -537h-10z" />
    <glyph glyph-name="m.sub" horiz-adv-x="675" 
d="M1 -123l58 333q1 10 5 30.5t6 30.5h11l-20 -104q54 115 154 115q121 0 121 -113q0 -4 0.5 -8t-0.5 -9q16 55 56 92.5t103 37.5q59 0 90.5 -29t31.5 -85q0 -25 -8 -75l-38 -216h-10l38 217q9 45 9 75q0 47 -28 75t-85 28q-74 0 -114 -53t-52 -127l-39 -215h-9l38 217
q8 50 8 75q0 47 -27.5 75t-84.5 28q-71 0 -111.5 -53t-55.5 -127l-38 -215h-9z" />
    <glyph glyph-name="n.sub" horiz-adv-x="402" 
d="M0 -123l59 333l9 53l2 8h10l-21 -108q19 48 59 83.5t100 35.5q59 0 93 -29t34 -85q0 -38 -9 -75q-6 -36 -19.5 -112t-18.5 -104h-9l38 217q8 50 8 75q0 47 -30 75t-87 28q-37 0 -68 -16.5t-51 -44t-32 -57t-19 -62.5l-38 -215h-10z" />
    <glyph glyph-name="o.sub" horiz-adv-x="462" 
d="M196 -123q93 0 146 64t53 162q0 76 -44 122.5t-123 46.5q-94 0 -147 -65.5t-53 -160.5q0 -79 45 -124t123 -45zM196 -132q-85 0 -131.5 47t-46.5 131q0 100 56.5 168t153.5 68q84 0 131 -48.5t47 -130.5q0 -102 -57 -168.5t-153 -66.5z" />
    <glyph glyph-name="p.sub" horiz-adv-x="438" 
d="M186 -123q81 0 133 65t52 162q0 74 -39 121.5t-110 47.5q-87 0 -132.5 -69.5t-45.5 -164.5q0 -73 35 -117.5t107 -44.5zM70 272h10l-3 -13l-6 -35q-1 -5 -4 -23l-5 -30q23 47 63.5 79t96.5 32q73 0 116 -46t43 -132q0 -103 -54.5 -170t-140.5 -67q-75 0 -111 44t-39 112
q-10 -66 -21 -121l-28 -159h-10z" />
    <glyph glyph-name="q.sub" horiz-adv-x="438" 
d="M212 273q-80 0 -131.5 -65t-51.5 -162q0 -74 38.5 -121.5t110.5 -47.5q87 0 132.5 69.5t45.5 163.5q0 74 -36 118.5t-108 44.5zM389 272h10l-93 -529h-10l27 148l6 35q0 3 3.5 22t5.5 30q-20 -48 -61.5 -79.5t-98.5 -31.5q-73 0 -116 46.5t-43 131.5q0 103 53.5 170
t139.5 67q76 0 113 -44t39 -112q15 95 21 121z" />
    <glyph glyph-name="r.sub" horiz-adv-x="176" 
d="M65 187l-8 -34q13 52 45 89t74 37q11 0 14 -1l-1 -9h-13q-51 0 -84 -56.5t-47 -136.5l-35 -199h-10l60 333l10 61h10l-9 -54z" />
    <glyph glyph-name="s.sub" horiz-adv-x="368" 
d="M-4 -2h10q8 -121 143 -121q65 0 102 28t37 74q0 19 -6.5 32.5t-24.5 25t-27.5 16t-38.5 16.5l-38 15q-60 23 -83.5 42.5t-23.5 58.5q0 43 36 70t98 27q66 0 104.5 -30.5t39.5 -84.5h-10q-1 49 -35.5 77t-98.5 28q-60 0 -92.5 -24.5t-32.5 -62.5q0 -33 21 -52t80 -41
l38 -15q25 -10 40 -17t31.5 -18.5t24 -27t7.5 -35.5q0 -53 -39.5 -82t-108.5 -29q-145 0 -153 130z" />
    <glyph glyph-name="t.sub" horiz-adv-x="175" 
d="M104 -117l-1 -9q-6 -2 -16 -2q-57 0 -57 56q0 21 4 38l53 296h-52l1 9h53l19 107h9l-19 -107h69v-9h-70l-54 -297q-4 -17 -4 -37q0 -46 48 -46q14 0 17 1z" />
    <glyph glyph-name="u.sub" horiz-adv-x="398" 
d="M358 270l-58 -333l-3 -15l-8 -46h-11l20 104q-53 -115 -154 -115q-59 0 -92.5 29t-33.5 84q0 39 9 76q6 36 19.5 112t18.5 104h9l-38 -217q-8 -50 -8 -75q0 -47 29 -75t87 -28q71 0 111.5 53.5t55.5 126.5l38 215h9z" />
    <glyph glyph-name="v.sub" horiz-adv-x="333" 
d="M117 -123h-10l-77 393h9l44 -225q1 -5 5.5 -28.5t7.5 -35.5l19 -92q23 45 73 132q13 27 16 33v-1l121 217h10z" />
    <glyph glyph-name="w.sub" horiz-adv-x="539" 
d="M281 269h13l21 -213l17 -165l30 59q31 59 47 91l120 228h10q-65 -119 -127 -241l-80 -152h-9l-39 382l-179 -382h-10l-62 393h10l36 -226q20 -155 23 -155l17 36q5 12 16.5 37t22.5 49t23 49z" />
    <glyph glyph-name="x.sub" horiz-adv-x="329" 
d="M323 270h14l-186 -199q19 -35 58 -100.5t55 -93.5h-10l-109 187l-176 -187h-14l185 196q-18 32 -58 98.5t-58 98.5h12l110 -190q33 37 95.5 103t81.5 87z" />
    <glyph glyph-name="y.sub" horiz-adv-x="342" 
d="M45 -263h-11l78 136l-85 393h10l48 -224q2 -14 8 -40.5t7 -30.5q4 -15 10 -43l9 -42q32 61 57 102v-1l34 61l122 218h11z" />
    <glyph glyph-name="z.sub" horiz-adv-x="353" 
d="M-32 -123l2 8l242 253l48 50l70 73h-294l2 9h310l-2 -8l-234 -245l-83 -84l-45 -47h293l-1 -9h-308z" />
    <glyph glyph-name="zero.sup" horiz-adv-x="461" 
d="M233 300q65 0 112 40q57 50 85.5 151t28.5 193q0 155 -140 155q-67 0 -113 -41q-55 -46 -84 -150t-29 -199q0 -149 140 -149zM458 569q-47 -278 -225 -278q-75 0 -111.5 38.5t-37.5 119.5q0 64 10 117q10 59 25 105.5t40.5 88.5t66 65t93.5 23q150 0 150 -164
q0 -57 -11 -115z" />
    <glyph glyph-name="one.sup" horiz-adv-x="269" 
d="M175 302l78 436h-147l1 9h89q40 0 49 5t15 29q2 9 6 29t5 29h8l-94 -537h-10z" />
    <glyph glyph-name="two.sup" horiz-adv-x="424" 
d="M385 302h-349l2 8q65 45 211 154q3 3 12.5 10t13.5 11q38 30 59 48.5t49 49.5t41.5 63.5t13.5 68.5q0 56 -37.5 90t-106.5 34q-78 0 -118.5 -43.5t-51.5 -111.5h-10q9 74 55.5 119.5t124.5 45.5q71 0 112.5 -34t41.5 -100q0 -71 -52.5 -131.5t-147.5 -132.5
q-161 -120 -191 -139h330z" />
    <glyph glyph-name="three.sup" horiz-adv-x="427" 
d="M61 449h10q1 -69 40.5 -109t117.5 -40q77 0 123.5 45.5t46.5 114.5q0 62 -46.5 94.5t-113.5 32.5h-7l2 9q46 0 85.5 11.5t70 43.5t30.5 80t-32.5 78t-97.5 30q-69 0 -107 -35.5t-49 -91.5h-9q9 59 52.5 97.5t112.5 38.5q66 0 103 -31.5t37 -85.5q0 -59 -39.5 -95
t-109.5 -45q54 -6 91 -40t37 -91q0 -76 -49.5 -122.5t-130.5 -46.5t-124 40t-44 118z" />
    <glyph glyph-name="four.sup" horiz-adv-x="434" 
d="M434 452l-1 -10h-106l-25 -140h-9l25 140h-270l1 7l342 390h7l-69 -387h105zM343 580l12 68q16 108 30 170l-35 -40l-124 -141l-46 -54q-5 -5 -75 -84l-42 -47h256zM385 818l2 2l-1 1v-1z" />
    <glyph glyph-name="five.sup" horiz-adv-x="416" 
d="M102 558l78 281h258l-1 -10h-250q-13 -45 -35.5 -127.5t-33.5 -121.5q47 60 131 60q71 0 115 -39.5t44 -114.5q0 -82 -50.5 -138t-134.5 -56q-75 0 -120 40.5t-47 109.5h9q3 -58 42.5 -99t115.5 -41q79 0 127 53t48 131q0 68 -41 106.5t-108 38.5q-35 0 -64.5 -13.5
t-40.5 -23.5t-30 -32q-4 -3 -5 -5z" />
    <glyph glyph-name="six.sup" horiz-adv-x="441" 
d="M462 705h-10q-2 63 -35.5 98.5t-99.5 35.5q-55 0 -95 -27q-99 -66 -128 -299q15 52 60.5 88t111.5 36q72 0 117 -39.5t45 -116.5q0 -79 -50 -134.5t-134 -55.5q-76 0 -118.5 41.5t-42.5 126.5q0 55 10 112q48 277 224 277q73 0 109 -40.5t36 -102.5zM266 628
q-75 0 -124.5 -50.5t-49.5 -123.5q0 -68 38 -111t114 -43q79 0 127 52.5t48 128.5q0 67 -40 107t-113 40z" />
    <glyph glyph-name="seven.sup" horiz-adv-x="387" 
d="M125 302h-11q31 51 167 265l107 165q44 64 64 97h-335l2 10h346l-2 -8l-29 -47q-25 -40 -119 -184q-150 -229 -190 -298z" />
    <glyph glyph-name="eight.sup" horiz-adv-x="453" 
d="M68 433q0 64 43 108.5t126 50.5q-49 8 -75.5 39t-26.5 81q0 57 45 96.5t120 39.5q71 0 110.5 -33.5t39.5 -90.5t-38.5 -93.5t-101.5 -41.5q56 -9 90.5 -42t34.5 -90q0 -76 -53 -121t-140 -45q-77 0 -125.5 37t-48.5 105zM300 839q-66 0 -110.5 -35t-44.5 -92
q0 -55 37 -86t96 -31q72 0 117 35t45 94q0 50 -36.5 82.5t-103.5 32.5zM265 586q-85 0 -136 -41t-51 -112q0 -62 46 -97.5t118 -35.5q81 0 132.5 42t51.5 115q0 59 -42 94t-119 35z" />
    <glyph glyph-name="nine.sup" horiz-adv-x="439" 
d="M71 434h9q2 -62 36 -98t100 -36q52 0 95 27q100 66 128 299q-15 -52 -60.5 -88t-110.5 -36q-73 0 -118 39t-45 117q0 79 50 134.5t135 55.5q74 0 117 -41.5t43 -126.5q0 -49 -11 -112q-51 -277 -223 -277q-74 0 -109.5 40.5t-35.5 102.5zM268 511q75 0 123.5 50t48.5 124
q0 68 -37.5 111t-112.5 43q-80 0 -128 -52.5t-48 -128.5q0 -67 40 -107t114 -40z" />
    <glyph glyph-name="a.sup" horiz-adv-x="388" 
d="M104 578h-10q11 57 49.5 93t106.5 36q132 0 132 -118q0 -27 -5 -55l-7 -38q-7 -33 -20 -111q-9 -49 -7 -82h-10q0 48 12 110q-20 -53 -65 -85.5t-108 -32.5q-122 0 -122 98q0 22 7 39.5t23 29.5t30.5 20.5t40.5 14.5t42 9t45 7q60 7 116 12q3 0 6.5 0.5t5.5 0.5
q6 38 6 63q0 109 -122 109q-63 0 -99.5 -33t-46.5 -87zM358 485l3 17l3 14q-96 -6 -135 -13q-92 -16 -122 -32q-47 -26 -47 -78q0 -41 27.5 -65t84.5 -24q68 0 119.5 45.5t66.5 135.5z" />
    <glyph glyph-name="b.sup" horiz-adv-x="438" 
d="M239 301q81 0 133 64.5t52 161.5q0 74 -39 121.5t-110 47.5q-87 0 -132.5 -69.5t-45.5 -163.5q0 -74 35 -118t107 -44zM64 302h-10l95 536h9l-28 -156l-6 -38q-4 -25 -9 -49q23 47 63.5 79t96.5 32q73 0 116 -46t43 -132q0 -103 -54.5 -170t-140.5 -67q-75 0 -111.5 44
t-38.5 112q-15 -95 -21 -121z" />
    <glyph glyph-name="c.sup" horiz-adv-x="434" 
d="M421 429h9q-55 -136 -184 -136q-80 0 -127 47.5t-47 133.5q0 98 54.5 165.5t146.5 67.5q72 0 116 -39t53 -102h-9q-10 59 -50.5 95t-108.5 36q-88 0 -140 -64t-52 -159q0 -80 44 -126t120 -46q123 0 175 127z" />
    <glyph glyph-name="d.sup" horiz-adv-x="439" 
d="M265 696q-80 0 -131.5 -64.5t-51.5 -161.5q0 -75 38.5 -122t110.5 -47q87 0 132.5 69.5t45.5 163.5q0 73 -36 117.5t-108 44.5zM383 302h-9l2 13l5 30q1 4 4 23.5t7 36.5q-20 -50 -61 -82t-100 -32q-73 0 -116 46t-43 132q0 103 53.5 170t139.5 67q75 0 113 -44t40 -110
l20 119l30 167h10z" />
    <glyph glyph-name="e.sup" horiz-adv-x="440" 
d="M443 512h-360q-2 -18 -2 -37q0 -81 43.5 -127t121.5 -46q115 0 171 114h10q-59 -123 -181 -123q-82 0 -128 47t-46 135q0 95 55.5 163.5t147.5 68.5q83 0 125.5 -49t42.5 -133v-13zM275 697q-78 0 -126.5 -50t-63.5 -125h348v6q0 79 -39.5 124t-118.5 45z" />
    <glyph glyph-name="f.sup" horiz-adv-x="168" 
d="M251 838v-10q-14 2 -19 2q-29 0 -45 -17.5t-25 -59.5l-10 -58h75l-2 -9h-75q-40 -218 -68 -384h-9l68 384h-52l2 9h51l9 50q9 50 25.5 72t55.5 22q15 0 19 -1z" />
    <glyph glyph-name="g.sup" horiz-adv-x="429" 
d="M210 170q73 0 110 44t55 147l10 59q-18 -40 -57 -68.5t-94 -28.5q-75 0 -116.5 46t-41.5 127q0 87 49.5 149t134.5 62q70 0 109 -44t42 -101l16 96l7 38h10l-58 -324q-9 -52 -19.5 -86t-29.5 -65t-50.5 -45.5t-76.5 -14.5q-71 0 -114 38t-45 93h10q2 -52 41 -87t108 -35z
M234 332q77 0 123 60.5t46 150.5q0 69 -39.5 111.5t-103.5 42.5q-81 0 -128 -58t-47 -144q0 -79 40.5 -121t108.5 -42z" />
    <glyph glyph-name="h.sup" horiz-adv-x="403" 
d="M53 302l96 537h10l-29 -161l-10 -56l-6 -31q20 49 58.5 82.5t98.5 33.5q59 0 93 -29t34 -85q0 -38 -9 -75q-6 -36 -19.5 -112t-18.5 -104h-9l38 217q8 50 8 75q0 47 -30 75t-87 28q-37 0 -68 -16.5t-51 -44t-32 -57t-19 -62.5l-38 -215h-10z" />
    <glyph glyph-name="i.sup" horiz-adv-x="120" 
d="M124 696h9l-69 -394h-10zM144 753h-10l15 86h10z" />
    <glyph glyph-name="j.sup" horiz-adv-x="119" 
d="M-44 157l2 9q3 -1 14 -1q32 0 48 18.5t24 63.5l80 450h9l-79 -450q-9 -50 -26.5 -70.5t-55.5 -20.5q-13 0 -16 1zM144 755h-10l15 85h10z" />
    <glyph glyph-name="k.sup" horiz-adv-x="305" 
d="M304 302h-14l-189 210q-6 -38 -19.5 -108.5t-18.5 -101.5h-9l95 537h10l-57 -318l245 175h17l-254 -180z" />
    <glyph glyph-name="l.sup" horiz-adv-x="120" 
d="M149 839h10l-95 -537h-10z" />
    <glyph glyph-name="m.sup" horiz-adv-x="675" 
d="M54 302l58 333q1 10 5.5 30.5t5.5 30.5h11l-20 -104q54 115 154 115q121 0 121 -113v-17q16 55 56 92.5t103 37.5q59 0 90.5 -29t31.5 -85q0 -25 -8 -75l-38 -216h-10l38 217q9 45 9 75q0 47 -28 75t-85 28q-74 0 -114 -53t-52 -127l-39 -215h-9l38 217q8 50 8 75
q0 47 -27.5 75t-84.5 28q-71 0 -111.5 -53t-55.5 -127l-38 -215h-9z" />
    <glyph glyph-name="n.sup" horiz-adv-x="404" 
d="M54 302l59 333l9 53l2 8h10l-21 -108q19 48 59 83.5t100 35.5q59 0 93 -29t34 -85q0 -38 -9 -75q-6 -36 -19.5 -112t-18.5 -104h-9l38 217q8 50 8 75q0 47 -30 75t-87 28q-37 0 -68 -16.5t-51 -44t-32 -57t-19 -62.5l-38 -215h-10z" />
    <glyph glyph-name="o.sup" horiz-adv-x="462" 
d="M249 302q93 0 146 64t53 162q0 76 -44 122.5t-123 46.5q-94 0 -147 -65.5t-53 -160.5q0 -79 45 -124t123 -45zM249 293q-85 0 -131.5 47t-46.5 131q0 100 56.5 168t153.5 68q84 0 131 -48.5t47 -130.5q0 -102 -57 -168.5t-153 -66.5z" />
    <glyph glyph-name="p.sup" horiz-adv-x="438" 
d="M239 302q81 0 133 65t52 162q0 74 -39 121.5t-110 47.5q-87 0 -132.5 -69.5t-45.5 -164.5q0 -73 35 -117.5t107 -44.5zM123 697h10l-3 -13l-6 -35q-1 -5 -4 -23l-5 -30q23 47 63.5 79t96.5 32q73 0 116 -46t43 -132q0 -103 -54.5 -170t-140.5 -67q-75 0 -111 44t-39 112
q-10 -66 -21 -121l-28 -159h-10z" />
    <glyph glyph-name="q.sup" horiz-adv-x="438" 
d="M265 698q-80 0 -131.5 -65t-51.5 -162q0 -74 38.5 -121.5t110.5 -47.5q87 0 132.5 69.5t45.5 163.5q0 74 -36 118.5t-108 44.5zM442 697h10l-93 -529h-10l27 148l6 35q0 3 3.5 22t5.5 30q-20 -48 -61.5 -79.5t-98.5 -31.5q-73 0 -116 46.5t-43 131.5q0 103 53.5 170
t139.5 67q76 0 113 -44t39 -112q15 95 21 121z" />
    <glyph glyph-name="r.sup" horiz-adv-x="175" 
d="M118 612l-8 -34q13 52 45 89t74 37q11 0 14 -1l-1 -9h-13q-51 0 -84 -56.5t-47 -136.5l-35 -199h-10l60 333l10 61h10l-9 -54z" />
    <glyph glyph-name="s.sup" horiz-adv-x="367" 
d="M48 423h10q8 -121 143 -121q65 0 102 28t37 74q0 19 -6.5 32.5t-24.5 25t-27.5 16t-38.5 16.5l-38 15q-60 23 -83.5 42.5t-23.5 58.5q0 43 36 70t98 27q66 0 104.5 -30.5t39.5 -84.5h-10q-1 49 -35.5 77t-98.5 28q-60 0 -92.5 -24.5t-32.5 -62.5q0 -33 21 -52t80 -41
l38 -15q25 -10 40 -17t31.5 -18.5t24 -27t7.5 -35.5q0 -53 -39.5 -82t-108.5 -29q-145 0 -153 130z" />
    <glyph glyph-name="t.sup" horiz-adv-x="176" 
d="M158 308l-1 -9q-6 -2 -16 -2q-57 0 -57 56q0 21 4 38l53 296h-52l1 9h53l19 107h9l-19 -107h69v-9h-70l-54 -297q-4 -17 -4 -37q0 -46 48 -46q14 0 17 1z" />
    <glyph glyph-name="u.sup" horiz-adv-x="399" 
d="M412 695l-58 -333l-3 -15l-8 -46h-11l20 104q-53 -115 -154 -115q-59 0 -92.5 29t-33.5 84q0 39 9 76q6 36 19.5 112t18.5 104h9l-38 -217q-8 -50 -8 -75q0 -47 29 -75t87 -28q71 0 111.5 53.5t55.5 126.5l38 215h9z" />
    <glyph glyph-name="v.sup" horiz-adv-x="331" 
d="M169 302h-10l-77 393h9l44 -225q1 -5 5.5 -28.5t7.5 -35.5l19 -92q23 45 73 132q12 28 16 33v-1l121 217h10z" />
    <glyph glyph-name="w.sup" horiz-adv-x="536" 
d="M333 694h13l21 -213l17 -165l30 59q31 59 47 91l120 228h10q-65 -119 -127 -241l-80 -152h-9l-39 382l-179 -382h-10l-62 393h10l36 -226q20 -155 23 -155l17 36q5 12 16.5 37t22.5 49t23 49z" />
    <glyph glyph-name="x.sup" horiz-adv-x="326" 
d="M375 695h14l-186 -199q19 -35 58 -100.5t55 -93.5h-10l-109 187l-176 -187h-14l185 196q-18 32 -58 98.5t-58 98.5h12l110 -190q33 37 95.5 103t81.5 87z" />
    <glyph glyph-name="y.sup" horiz-adv-x="343" 
d="M99 162h-11l78 136l-85 393h10l48 -224q2 -14 8 -40.5t7 -30.5q4 -15 10 -43l9 -42q32 61 57 102v-1l34 61l122 218h11z" />
    <glyph glyph-name="z.sup" horiz-adv-x="353" 
d="M22 302l2 8l242 253l48 50l70 73h-294l2 9h310l-2 -8l-234 -245l-83 -84l-45 -47h293l-1 -9h-308z" />
    <glyph glyph-name="zero.plf" horiz-adv-x="625" 
d="M264 -4q89 0 151 53q76 65 114.5 202t38.5 259q0 209 -188 209q-90 0 -154 -54q-73 -62 -111.5 -201.5t-38.5 -266.5q0 -201 188 -201zM564 357q-62 -371 -300 -371q-100 0 -148.5 51.5t-49.5 159.5q0 80 14 156q13 79 33 140.5t54 117.5t87.5 87t124.5 31
q199 0 199 -219q0 -77 -14 -153z" />
    <glyph glyph-name="one.plf" horiz-adv-x="358" 
d="M179 0l103 582h-196l2 9h117q57 0 69 6.5t18 41.5l15 76h9l-127 -715h-10z" />
    <glyph glyph-name="two.plf" horiz-adv-x="572" 
d="M466 0h-464l2 8q152 107 281 207q11 9 40.5 32t44 34.5t41.5 35t41 40t33.5 41.5t29.5 47t17 50t7 56q0 77 -50.5 122.5t-144.5 45.5q-104 0 -159.5 -58.5t-68.5 -149.5h-10q13 98 74 158t164 60q94 0 149.5 -45.5t55.5 -132.5q0 -36 -9 -69.5t-30 -65.5t-40 -55.5
t-57 -56t-61 -51t-70 -53.5q-185 -142 -261 -190h447z" />
    <glyph glyph-name="three.plf" horiz-adv-x="579" 
d="M36 196h10q2 -94 55 -147t157 -53t167 61t63 155q0 83 -62.5 126.5t-153.5 43.5h-8l2 9q45 0 87 9.5t80 30t60.5 57t22.5 85.5q0 65 -43.5 105.5t-132.5 40.5q-92 0 -143 -47.5t-66 -122.5h-10q13 79 70 129.5t149 50.5q88 0 137 -41.5t49 -114.5q0 -80 -55.5 -128.5
t-154.5 -57.5v-1q77 -7 129.5 -51.5t52.5 -122.5q0 -102 -66 -164t-174 -62q-107 0 -164 53.5t-58 156.5z" />
    <glyph glyph-name="four.plf" horiz-adv-x="579" 
d="M525 198l-1 -10h-141l-34 -188h-10l34 188h-361l1 6l458 522h6l-92 -518h140zM464 693h-2q-4 -5 -40 -45.5t-87.5 -99.5t-87.5 -101l-62 -71l-100 -113l-57 -65h347l31 172q47 274 58 323z" />
    <glyph glyph-name="five.plf" horiz-adv-x="561" 
d="M88 342l104 373h343l-2 -10h-335l-96 -347q19 32 66.5 61.5t114.5 29.5q94 0 152.5 -53t58.5 -152q0 -109 -67 -183.5t-179 -74.5q-98 0 -158 54t-64 145h10q3 -78 56.5 -133.5t155.5 -55.5q107 0 171.5 71t64.5 177q0 92 -54.5 143.5t-146.5 51.5q-110 0 -188 -99z" />
    <glyph glyph-name="six.plf" horiz-adv-x="598" 
d="M568 539h-10q-2 84 -47.5 132t-134.5 48q-74 0 -129 -36q-140 -92 -175 -426h1q11 75 74.5 132t159.5 57t156 -52t60 -154q0 -107 -66.5 -180.5t-179.5 -73.5q-99 0 -156 55.5t-57 168.5q0 64 14 150q35 195 109 282t189 87q98 0 145 -54t47 -136zM307 437
q-103 0 -168 -67t-65 -167q0 -93 50.5 -150t152.5 -57q108 0 172 70.5t64 173.5q0 89 -53.5 143t-152.5 54z" />
    <glyph glyph-name="seven.plf" horiz-adv-x="505" 
d="M106 0h-12q76 128 221 351q25 38 106.5 163.5t124.5 190.5h-449l2 10h460l-2 -8l-39 -62q-52 -82 -138.5 -213t-153.5 -236t-120 -196z" />
    <glyph glyph-name="eight.plf" horiz-adv-x="609" 
d="M282 387q-69 5 -110.5 48.5t-41.5 111.5q0 77 59.5 129.5t159.5 52.5q94 0 146.5 -45t52.5 -120q0 -77 -55.5 -127t-141.5 -52q80 -11 129 -55t49 -123q0 -101 -70.5 -161t-187.5 -60q-101 0 -165.5 50t-64.5 139q0 87 62 148.5t179 63.5zM349 719q-90 0 -149.5 -47
t-59.5 -125q0 -73 50 -115t129 -42q97 0 158 47t61 127q0 69 -49 112t-140 43zM302 381q-114 0 -182.5 -55.5t-68.5 -150.5q0 -83 62 -131t158 -48q110 0 179 57t69 154q0 80 -56 127t-161 47z" />
    <glyph glyph-name="nine.plf" horiz-adv-x="598" 
d="M48 176h10q2 -84 47.5 -132t134.5 -48q74 0 129 36q136 89 175 426h-1q-11 -75 -74.5 -132t-159.5 -57t-156 52t-60 154q0 107 66.5 180.5t179.5 73.5q99 0 156 -55.5t57 -168.5q0 -64 -14 -150q-35 -195 -109 -282t-189 -87q-98 0 -145 54t-47 136zM309 278
q102 0 167.5 67t65.5 167q0 93 -51 150t-152 57q-108 0 -172 -70.5t-64 -173.5q0 -89 53.5 -143t152.5 -54z" />
    <glyph glyph-name="zero.posf" horiz-adv-x="620" 
d="M262 -4q89 0 148 52q74 65 112 199t38 253q0 205 -184 205q-90 0 -151 -53q-72 -61 -109.5 -198t-37.5 -261q0 -197 184 -197zM556 350q-62 -364 -294 -364q-193 0 -194 207q0 78 14 153q10 61 24 110.5t37.5 99.5t54 83.5t76 54.5t101.5 21q195 0 195 -215
q0 -75 -14 -150z" />
    <glyph glyph-name="one.posf" horiz-adv-x="356" 
d="M176 0l101 571h-192l2 8h115q54 0 66.5 6.5t18.5 40.5l15 75h9l-125 -701h-10z" />
    <glyph glyph-name="two.posf" horiz-adv-x="565" 
d="M458 0h-455l2 8q163 116 276 203q4 3 31.5 24t34.5 26.5t32.5 26.5t34.5 30t29.5 30t29 34.5t22.5 34.5t19.5 39t10.5 40t5 44q0 76 -49.5 120.5t-141.5 44.5q-102 0 -156.5 -57t-67.5 -147h-10q13 97 72.5 155.5t161.5 58.5q91 0 146 -45t55 -130q0 -51 -18.5 -96.5
t-56.5 -86.5t-76 -73t-96 -77q-10 -7 -15 -11q-189 -144 -256 -186h438z" />
    <glyph glyph-name="three.posf" horiz-adv-x="571" 
d="M36 192h10q1 -92 53 -144t154 -52q103 0 164.5 59.5t61.5 152.5q0 81 -61.5 124t-150.5 43h-8l2 8q45 0 86 9.5t78 29t59 56t22 84.5q0 64 -42 103.5t-130 39.5q-169 0 -205 -167h-10q13 78 69 127.5t146 49.5q86 0 134 -40.5t48 -112.5q0 -79 -54 -126.5t-152 -56.5v-1
q76 -7 127.5 -50t51.5 -120q0 -100 -65 -161t-171 -61q-104 0 -160 52.5t-57 153.5z" />
    <glyph glyph-name="four.posf" horiz-adv-x="571" 
d="M515 194l-1 -10h-138l-34 -184h-9l33 184h-354l1 6l449 512h6l-90 -508h137zM455 679h-2q-75 -88 -211 -241l-60 -69l-98 -112l-56 -63h340l30 169q51 293 57 316z" />
    <glyph glyph-name="five.posf" horiz-adv-x="556" 
d="M89 335l102 366h336l-2 -10h-328l-94 -340q19 32 65.5 60.5t111.5 28.5q91 0 149 -52.5t58 -148.5q0 -108 -65.5 -180.5t-175.5 -72.5q-96 0 -155 53.5t-63 141.5h10q2 -76 55 -130.5t153 -54.5q105 0 168 69.5t63 173.5q0 91 -54 141t-143 50q-30 0 -57.5 -7.5
t-43.5 -15.5t-36 -25.5t-25.5 -24t-21.5 -24.5z" />
    <glyph glyph-name="six.posf" horiz-adv-x="592" 
d="M560 528h-10q-2 82 -47 129.5t-131 47.5q-72 0 -127 -36q-136 -91 -171 -417h1q11 74 73 129.5t156 55.5t153 -51t59 -151q0 -104 -65.5 -176.5t-175.5 -72.5q-97 0 -153 55t-56 165q0 65 14 147q33 190 106.5 276t185.5 86q95 0 141.5 -53t46.5 -134zM304 428
q-101 0 -164.5 -65.5t-63.5 -163.5q0 -91 49.5 -147t149.5 -56q106 0 168.5 68.5t62.5 170.5q0 87 -53 140t-149 53z" />
    <glyph glyph-name="seven.posf" horiz-adv-x="505" 
d="M110 0h-11q37 62 216 344q44 66 125.5 191t101.5 156h-440l2 10h450l-2 -8l-38 -61q-48 -76 -135 -207.5t-152 -233.5t-117 -191z" />
    <glyph glyph-name="eight.posf" horiz-adv-x="600" 
d="M277 379q-68 5 -108.5 47.5t-40.5 109.5q0 75 58.5 127t156.5 52q92 0 143.5 -44.5t51.5 -117.5q0 -76 -54.5 -125t-138.5 -51q77 -9 125.5 -53t48.5 -121q0 -99 -69.5 -158t-183.5 -59q-99 0 -162 49t-63 137q0 86 60.5 145.5t175.5 61.5zM343 705q-88 0 -146.5 -46.5
t-58.5 -122.5q0 -73 49 -113.5t127 -40.5q95 0 154.5 46t59.5 125q0 67 -48.5 109.5t-136.5 42.5zM297 374q-112 0 -179 -54.5t-67 -147.5q0 -82 60.5 -129t154.5 -47q108 0 176 55.5t68 151.5q0 79 -55 125t-158 46z" />
    <glyph glyph-name="nine.posf" horiz-adv-x="592" 
d="M48 173h10q2 -82 47 -129.5t131 -47.5q72 0 127 36q136 91 171 417h-1q-11 -74 -73 -129.5t-156 -55.5t-153 51t-59 151q0 104 65.5 176.5t175.5 72.5q97 0 153 -55t56 -165q0 -65 -14 -147q-33 -190 -106.5 -276t-185.5 -86q-95 0 -141.5 53t-46.5 134zM304 273
q101 0 164.5 65.5t63.5 163.5q0 91 -49.5 147t-149.5 56q-106 0 -168.5 -68.5t-62.5 -170.5q0 -87 53 -140t149 -53z" />
    </font>
</defs>
</svg>
