<?xml version="1.0" standalone="no"?>
<!DOCTYPE svg PUBLIC "-//W3C//DTD SVG 1.1//EN" "http://www.w3.org/Graphics/SVG/1.1/DTD/svg11.dtd" >
<svg>
<metadata>
Created by FontForge 20120731 at Tue Dec 15 21:07:57 2015
 By ,,,
(c)2013 Optimo.
</metadata>
<defs>
<font id="Plain-Hairline" horiz-adv-x="560" >
  <font-face 
    font-family="Plain Hairline"
    font-weight="100"
    font-stretch="normal"
    units-per-em="1000"
    panose-1="2 11 0 4 2 2 2 2 2 4"
    ascent="803"
    descent="-197"
    x-height="525"
    cap-height="715"
    bbox="-53 -271 1247 1076"
    underline-thickness="50"
    underline-position="-50"
    unicode-range="U+000D-FB02"
  />
<missing-glyph horiz-adv-x="644" 
d="M50 240v49l309 309q14 -8 26 -23zM50 142v49l347 347v-15q0 -20 -13.5 -37.5t-41.5 -39.5t-37 -31q-23 -23 -36 -54zM104 0h-49l261 261h49l-93 -93h-23v-23zM321 168l273 273v-49l-224 -224h-49zM50 338v49l148 148l39 -2q0 29 20 52t55 23h8zM398 0h-49l33 33h2v2
l210 210v-49zM384 133l210 210v-49l-210 -210v49zM50 44v49l206 206v-38h11zM50 583l196 196h49l-44 -44q-54 -14 -93 -53.5t-54 -93.5l-54 -54v49zM537 482l57 57v-49l-216 -216v7q0 12 2.5 21t11 18.5t12.5 13.5t21 16t23 16q1 1 10 7.5t14 10.5t14.5 12.5t15.5 16.5
t13.5 18.5t13 23.5t8.5 27zM50 681l98 98h49l-147 -147v49zM496 0h-49l147 147v-49zM459 698l81 81h49l-104 -104q-25 22 -26 23zM50 436v49l56 56l46 -3zM506 647l88 88v-49l-70 -70q-6 13 -18 31zM202 0h-49l96 96v-49zM395 732l47 47h49l-62 -62q-15 8 -34 15zM536 579
l58 58v-49l-52 -52q0 13 -6 43zM307 742l37 37h49l-38 -38q-18 2 -28 2q-2 0 -6.5 -0.5t-6.5 -0.5h-7zM300 0h-49l33 33h49zM594 49v-49h-49zM50 779h49l-49 -49v49z" />
    <glyph glyph-name="fi" unicode="fi" horiz-adv-x="414" 
d="M217 715v-20q-14 2 -24 2q-44 0 -57 -25.5t-13 -80.5v-66h94v-20h-94v-505h-20v505h-75v20h75v69q0 57 18 90t72 33q10 0 24 -2zM305 525h20v-525h-20v525zM325 604h-20v111h20v-111z" />
    <glyph glyph-name="fl" unicode="fl" horiz-adv-x="418" 
d="M217 715v-20q-14 2 -24 2q-44 0 -57 -25.5t-13 -80.5v-66h94v-20h-94v-505h-20v505h-75v20h75v69q0 57 18 90t72 33q10 0 24 -2zM304 715h20v-715h-20v715z" />
    <glyph glyph-name=".notdef" horiz-adv-x="644" 
d="M50 240v49l309 309q14 -8 26 -23zM50 142v49l347 347v-15q0 -20 -13.5 -37.5t-41.5 -39.5t-37 -31q-23 -23 -36 -54zM104 0h-49l261 261h49l-93 -93h-23v-23zM321 168l273 273v-49l-224 -224h-49zM50 338v49l148 148l39 -2q0 29 20 52t55 23h8zM398 0h-49l33 33h2v2
l210 210v-49zM384 133l210 210v-49l-210 -210v49zM50 44v49l206 206v-38h11zM50 583l196 196h49l-44 -44q-54 -14 -93 -53.5t-54 -93.5l-54 -54v49zM537 482l57 57v-49l-216 -216v7q0 12 2.5 21t11 18.5t12.5 13.5t21 16t23 16q1 1 10 7.5t14 10.5t14.5 12.5t15.5 16.5
t13.5 18.5t13 23.5t8.5 27zM50 681l98 98h49l-147 -147v49zM496 0h-49l147 147v-49zM459 698l81 81h49l-104 -104q-25 22 -26 23zM50 436v49l56 56l46 -3zM506 647l88 88v-49l-70 -70q-6 13 -18 31zM202 0h-49l96 96v-49zM395 732l47 47h49l-62 -62q-15 8 -34 15zM536 579
l58 58v-49l-52 -52q0 13 -6 43zM307 742l37 37h49l-38 -38q-18 2 -28 2q-2 0 -6.5 -0.5t-6.5 -0.5h-7zM300 0h-49l33 33h49zM594 49v-49h-49zM50 779h49l-49 -49v49z" />
    <glyph glyph-name=".null" horiz-adv-x="0" 
 />
    <glyph glyph-name="nonmarkingreturn" horiz-adv-x="333" 
 />
    <glyph glyph-name="NULL" horiz-adv-x="0" 
 />
    <glyph glyph-name="NULL" horiz-adv-x="0" 
 />
    <glyph glyph-name="CR" unicode="&#xd;" horiz-adv-x="0" 
 />
    <glyph glyph-name="space" unicode=" " horiz-adv-x="284" 
 />
    <glyph glyph-name="exclam" unicode="!" horiz-adv-x="234" 
d="M123 186h-12q-4 167 -4 461v68h20v-68q0 -294 -4 -461zM107 0v111h20v-111h-20z" />
    <glyph glyph-name="quotedbl" unicode="&#x22;" horiz-adv-x="304" 
d="M99 451h-16q-1 35 -1 101q-1 56 -1 163h20q0 -20 -0.5 -76.5t-0.5 -86.5q-1 -33 -1 -101zM221 451h-16q-1 35 -1 101q-1 56 -1 163h20q0 -20 -0.5 -76.5t-0.5 -86.5q-1 -33 -1 -101z" />
    <glyph glyph-name="numbersign" unicode="#" 
d="M313 0l51 250h-210l-51 -250h-20l51 250h-114l4 19h114l42 203h-117l4 19h117l46 224h20l-46 -224h210l46 224h20l-46 -224h107l-4 -19h-107l-42 -203h110l-4 -19h-110l-51 -250h-20zM200 472l-42 -203h210l42 203h-210z" />
    <glyph glyph-name="dollar" unicode="$" 
d="M31 206h20q36 -193 230 -193q103 0 163 47.5t60 121.5q0 35 -12.5 61t-44.5 46t-52 29t-68 26q-11 4 -16 6l-60 21q-109 36 -152.5 73.5t-43.5 109.5q0 73 56 119t156 49v106h20v-106q99 -2 157 -53t67 -142h-19q-25 175 -214 175q-96 0 -150 -40t-54 -108q0 -62 41 -97
t142 -69l65 -21q53 -17 84 -30.5t61 -35t43.5 -50.5t13.5 -69q0 -83 -65 -135t-172 -54v-110h-20v110q-206 8 -236 213z" />
    <glyph glyph-name="percent" unicode="%" horiz-adv-x="865" 
d="M196 332q-75 0 -115.5 53.5t-40.5 143.5q0 94 39 145t116 51t116.5 -50.5t39.5 -145.5q0 -89 -39.5 -143t-115.5 -54zM58 529q0 -79 35.5 -130t101.5 -51q67 0 102.5 50.5t35.5 130.5q0 84 -34 132t-104 48q-71 0 -104 -48.5t-33 -131.5zM286 0l275 715h19l-275 -715h-19
zM670 -17q-75 0 -115.5 53.5t-40.5 143.5q0 94 39 145t116 51t116.5 -50.5t39.5 -145.5q0 -89 -39.5 -143t-115.5 -54zM532 180q0 -79 35.5 -130t101.5 -51q67 0 102.5 50.5t35.5 130.5q0 84 -34 132t-104 48q-71 0 -104 -48.5t-33 -131.5z" />
    <glyph glyph-name="ampersand" unicode="&#x26;" horiz-adv-x="655" 
d="M599 379l18 -3q-45 -136 -110 -231q70 -80 108 -121l-14 -13l-105 117q-109 -138 -243 -138q-91 0 -143 50.5t-52 133.5q0 74 49 123t152 104q-33 39 -48.5 58.5t-34 58.5t-18.5 73q0 59 40.5 98t113.5 39q71 0 110.5 -35t39.5 -94q0 -61 -42 -109t-131 -94
q80 -100 205 -240q29 44 60 110.5t45 112.5zM277 409q18 8 53 29q112 71 112 161q0 49 -34.5 79.5t-96.5 30.5q-64 0 -98.5 -34.5t-34.5 -83.5q0 -78 99 -182zM483 141q-22 25 -213 247q-92 -49 -142 -97t-50 -116q0 -76 46 -120.5t129 -44.5q128 0 230 131z" />
    <glyph glyph-name="quotesingle" unicode="'" horiz-adv-x="182" 
d="M99 451h-16q-1 35 -1 101q-1 56 -1 163h20q0 -20 -0.5 -76.5t-0.5 -86.5q-1 -33 -1 -101z" />
    <glyph glyph-name="parenleft" unicode="(" horiz-adv-x="274" 
d="M52 300q0 145 51.5 263.5t141.5 190.5v-20q-173 -167 -173 -434t173 -434v-20q-89 69 -141 189.5t-52 264.5z" />
    <glyph glyph-name="parenright" unicode=")" horiz-adv-x="276" 
d="M223 300q0 -144 -52 -264.5t-141 -189.5v20q173 167 173 434t-173 434v20q90 -72 141.5 -190.5t51.5 -263.5z" />
    <glyph glyph-name="asterisk" unicode="*" horiz-adv-x="446" 
d="M233 715l-1 -154l144 50l7 -19l-146 -47l91 -122l-16 -12l-88 124l-89 -124l-17 11l92 123l-147 46l6 19l145 -49l-1 154h20z" />
    <glyph glyph-name="plus" unicode="+" 
d="M59 312v20h211v218h20v-218h211v-20h-211v-217h-20v217h-211z" />
    <glyph glyph-name="comma" unicode="," horiz-adv-x="211" 
d="M128 111l-79 -232h-20l77 232h22z" />
    <glyph glyph-name="hyphen" unicode="-" horiz-adv-x="424" 
d="M76 284v20h272v-20h-272z" />
    <glyph glyph-name="period" unicode="." horiz-adv-x="172" 
d="M76 0v111h20v-111h-20z" />
    <glyph glyph-name="slash" unicode="/" horiz-adv-x="386" 
d="M39 -105l289 820h20l-289 -820h-20z" />
    <glyph glyph-name="zero" unicode="0" 
d="M280 6q116 0 167.5 89.5t51.5 260.5q0 352 -219 352q-218 0 -218 -352q0 -172 51 -261t167 -89zM280 -14q-69 0 -116.5 27.5t-73.5 79.5t-37 115.5t-11 147.5q0 78 10 139t35 116.5t74 86t119 30.5q239 0 239 -372q0 -84 -11 -147.5t-37 -115.5t-74 -79.5t-117 -27.5z
" />
    <glyph glyph-name="one" unicode="1" 
d="M331 0v572h-196v19h74q35 0 52 1t33.5 4.5t22 10.5t11 20.5t6.5 33t2 48.5v6h15v-715h-20z" />
    <glyph glyph-name="two" unicode="2" 
d="M504 0h-452v17q145 121 225 195q110 102 152.5 170t42.5 144q0 79 -50.5 131t-140.5 52q-190 0 -200 -198h-20q4 103 58.5 160.5t161.5 57.5q102 0 156.5 -58t54.5 -145q0 -50 -15.5 -94.5t-50 -88t-61 -70t-75.5 -71.5q-120 -113 -210 -182h424v-20z" />
    <glyph glyph-name="three" unicode="3" 
d="M50 196h20q12 -94 62 -142t147 -48q95 0 151.5 56.5t56.5 137.5q0 89 -67 133.5t-168 44.5h-16v20q99 0 159 41.5t60 119.5q0 68 -45 109t-128 41q-84 0 -132.5 -42t-53.5 -118h-20q5 84 59 132t147 48q91 0 142 -45.5t51 -122.5q0 -70 -44.5 -114t-118.5 -56v-2
q83 -9 139 -56t56 -133q0 -95 -65.5 -154.5t-162.5 -59.5q-103 0 -162 53t-67 157z" />
    <glyph glyph-name="four" unicode="4" 
d="M533 208v-20h-130v-188h-20v188h-361v16l244 341q110 150 122 170h15v-507h130zM385 678h-2q-10 -18 -167 -236l-48 -66l-79 -108q-15 -20 -43 -60h337v162q0 66 1 183.5t1 124.5z" />
    <glyph glyph-name="five" unicode="5" 
d="M85 341l37 374h349v-20h-332l-35 -337q68 88 183 88q96 0 155 -61t59 -165q0 -105 -62 -169.5t-164 -64.5q-96 0 -153.5 52t-68.5 147h20q7 -74 57.5 -126.5t144.5 -52.5q98 0 152 61t54 153q0 90 -51.5 148.5t-142.5 58.5q-49 0 -88.5 -16.5t-56.5 -32.5t-36 -41z" />
    <glyph glyph-name="six" unicode="6" 
d="M503 531h-20q-17 80 -60 129t-129 49q-221 0 -221 -362q0 -11 1 -46.5t1 -49.5h3q2 78 61 137t157 59q102 0 160.5 -61.5t58.5 -166.5t-63 -169t-165 -64q-115 0 -174.5 84.5t-59.5 270.5q0 201 61.5 294.5t181.5 93.5q170 0 207 -198zM296 427q-90 0 -148.5 -56.5
t-58.5 -147.5q0 -96 54 -156.5t144 -60.5q98 0 153.5 58t55.5 155q0 95 -52.5 151.5t-147.5 56.5z" />
    <glyph glyph-name="seven" unicode="7" 
d="M196 0h-23q66 157 159 351q143 302 164 344h-429v20h449v-18l-24 -52q-32 -70 -99 -210.5t-113 -241.5t-84 -193z" />
    <glyph glyph-name="eight" unicode="8" 
d="M280 6q96 0 156.5 48.5t60.5 133.5q0 83 -60 134t-157 51t-157 -51t-60 -134q0 -85 60.5 -133.5t156.5 -48.5zM280 388q83 0 135.5 47.5t52.5 117.5t-52 113t-136 43t-136 -43t-52 -113q0 -71 52 -118t136 -47zM280 729q94 0 151 -49.5t57 -126.5q0 -67 -39 -112.5
t-102 -58.5q79 -16 124.5 -67t45.5 -127q0 -93 -63 -147.5t-174 -54.5t-174 54.5t-63 147.5q0 76 45.5 127t124.5 67q-63 13 -102 58.5t-39 112.5q0 77 57 126.5t151 49.5z" />
    <glyph glyph-name="nine" unicode="9" 
d="M56 184h20q17 -80 60 -129t129 -49q221 0 221 362q0 11 -1 48t-1 50h-3q-4 -79 -61.5 -137.5t-156.5 -58.5q-102 0 -160.5 61t-58.5 166t63 168.5t165 63.5q114 0 174 -85t60 -270q0 -201 -61.5 -294.5t-181.5 -93.5q-173 0 -207 198zM263 290q89 0 148 56.5t59 147.5
q0 97 -53.5 156t-144.5 59q-98 0 -153.5 -57.5t-55.5 -154.5q0 -95 52.5 -151t147.5 -56z" />
    <glyph glyph-name="colon" unicode=":" horiz-adv-x="172" 
d="M76 0v111h20v-111h-20zM76 379v111h20v-111h-20z" />
    <glyph glyph-name="semicolon" unicode=";" horiz-adv-x="227" 
d="M110 379v111h20v-111h-20zM141 111l-79 -232h-20l77 232h22z" />
    <glyph glyph-name="less" unicode="&#x3c;" 
d="M67 312v24l396 210v-20l-380 -200v-3l380 -206v-20z" />
    <glyph glyph-name="equal" unicode="=" 
d="M59 405v20h442v-20h-442zM59 221v20h442v-20h-442z" />
    <glyph glyph-name="greater" unicode="&#x3e;" 
d="M493 336v-24l-396 -215v20l380 206v3l-380 200v20z" />
    <glyph glyph-name="question" unicode="?" horiz-adv-x="475" 
d="M243 201h-20q0 58 17.5 91t68.5 81l25 24q40 38 62 73.5t22 87.5q0 68 -41 109.5t-127 41.5q-93 0 -140 -52t-50 -146h-20q0 101 55 159.5t155 58.5q92 0 140 -46t48 -123q0 -96 -92 -178l-14 -13q-40 -38 -54.5 -55t-24.5 -44.5t-10 -68.5zM223 0v111h20v-111h-20z" />
    <glyph glyph-name="at" unicode="@" horiz-adv-x="840" 
d="M590 527h20l-47 -261q-5 -28 -5 -40q0 -49 55 -49q62 0 111 65.5t49 178.5q0 132 -90 211t-238 79q-162 0 -265 -104.5t-103 -256.5q0 -157 102.5 -256t269.5 -99q155 0 266 96l12 -14q-111 -102 -278 -102q-173 0 -282.5 102.5t-109.5 272.5q0 160 108 270.5t280 110.5
q156 0 252 -86.5t96 -223.5q0 -115 -53.5 -188.5t-129.5 -73.5q-70 0 -70 62q0 12 1 19h-1q-13 -33 -51 -58t-91 -25q-70 0 -108.5 42t-38.5 121q0 86 49 151.5t135 65.5q60 0 95 -32.5t41 -83.5h1zM433 518q-76 0 -119 -59.5t-43 -135.5q0 -70 33 -108.5t98 -38.5
q82 0 119.5 61.5t37.5 148.5q0 60 -31.5 96t-94.5 36z" />
    <glyph glyph-name="A" unicode="A" horiz-adv-x="646" 
d="M28 0l285 715h23l280 -715h-21l-106 271h-333l-108 -271h-20zM325 694h-2q-11 -28 -61.5 -157t-69.5 -175l-28 -71h316l-31 81q-18 50 -61.5 161.5t-62.5 160.5z" />
    <glyph glyph-name="B" unicode="B" horiz-adv-x="632" 
d="M106 0v715h172q59 0 102 -6.5t82.5 -24.5t60.5 -54t21 -89q0 -72 -40 -116t-115 -54v-1q84 -9 135.5 -51.5t51.5 -123.5q0 -107 -70.5 -151t-197.5 -44h-202zM126 359v-339h182q115 0 181.5 39t66.5 136q0 164 -251 164h-179zM126 695v-316h179q219 0 219 162
q0 41 -15.5 70t-38 45t-58 25t-65 11.5t-69.5 2.5h-152z" />
    <glyph glyph-name="C" unicode="C" horiz-adv-x="772" 
d="M702 206h20q-37 -101 -120 -160.5t-197 -59.5q-158 0 -254 102.5t-96 268.5q0 165 97 268.5t253 103.5q120 0 203.5 -61t116.5 -168h-20q-35 97 -111 153t-189 56q-148 0 -239 -99t-91 -253q0 -153 91 -252t239 -99q108 0 183.5 54t113.5 146z" />
    <glyph glyph-name="D" unicode="D" horiz-adv-x="709" 
d="M106 0v715h146q142 0 229 -42q170 -83 170 -312q0 -187 -109 -279q-51 -43 -116.5 -62.5t-175.5 -19.5h-144zM126 695v-675h124q151 0 232 44q71 39 110 115t39 182q0 220 -168 298q-77 36 -211 36h-126z" />
    <glyph glyph-name="E" unicode="E" horiz-adv-x="600" 
d="M106 0v715h431v-20h-411v-317h387v-20h-387v-338h418v-20h-438z" />
    <glyph glyph-name="F" unicode="F" horiz-adv-x="582" 
d="M126 0h-20v715h420v-20h-400v-317h376v-20h-376v-358z" />
    <glyph glyph-name="G" unicode="G" horiz-adv-x="790" 
d="M701 207q-24 -93 -101 -157t-195 -64q-158 0 -254 102.5t-96 268.5q0 165 96.5 268.5t252.5 103.5q121 0 202 -60.5t117 -168.5h-20q-35 97 -111 153t-188 56q-146 0 -237.5 -98.5t-91.5 -252.5q0 -157 92.5 -254.5t237.5 -97.5q69 0 126.5 26t93 67.5t55 91t19.5 100.5
v29h-309v20h329v-340h-20v91q0 41 1 68q0 31 1 48z" />
    <glyph glyph-name="H" unicode="H" horiz-adv-x="703" 
d="M577 362h-451v-362h-20v715h20v-333h451v333h20v-715h-20v362z" />
    <glyph glyph-name="I" unicode="I" horiz-adv-x="232" 
d="M106 715h20v-715h-20v715z" />
    <glyph glyph-name="J" unicode="J" horiz-adv-x="448" 
d="M329 715h20v-508q0 -103 -29 -152q-39 -69 -136 -69q-152 0 -152 187h20q0 -167 132 -167q79 0 112 49t33 151v509z" />
    <glyph glyph-name="K" unicode="K" horiz-adv-x="555" 
d="M106 0v715h20v-335l380 335h29l-383 -336l390 -379h-29l-387 377v-377h-20z" />
    <glyph glyph-name="L" unicode="L" horiz-adv-x="544" 
d="M106 715h20v-695h390v-20h-410v715z" />
    <glyph glyph-name="M" unicode="M" horiz-adv-x="792" 
d="M106 0v715h35l153 -427q10 -28 46.5 -131.5t48.5 -140.5h1q37 113 104 282l161 417h31v-715h-20v372q0 289 2 328h-1q-3 -10 -122 -320l-143 -380h-26l-172 480q-27 72 -78 222h-1q0 -24 0.5 -135t0.5 -166v-401h-20z" />
    <glyph glyph-name="N" unicode="N" horiz-adv-x="713" 
d="M106 715h32l283 -438q129 -196 166 -262h1q0 16 -0.5 126.5t-0.5 147.5v426h20v-715h-32l-276 430q-104 160 -174 270h-1q0 -17 1 -160.5t1 -178.5v-361h-20v715z" />
    <glyph glyph-name="O" unicode="O" horiz-adv-x="804" 
d="M402 729q154 0 250.5 -103t96.5 -268q0 -166 -95.5 -269t-251.5 -103t-251.5 103t-95.5 269t96 268.5t251 102.5zM402 6q145 0 236 97t91 255q0 159 -90.5 255t-236.5 96t-236.5 -96t-90.5 -255q0 -158 91 -255t236 -97z" />
    <glyph glyph-name="P" unicode="P" horiz-adv-x="577" 
d="M106 0v715h172q122 0 188.5 -45t66.5 -154q0 -122 -91 -173q-63 -36 -169 -36h-147v-307h-20zM126 695v-368h147q103 0 159 32q81 45 81 157q0 93 -58 136t-177 43h-152z" />
    <glyph glyph-name="Q" unicode="Q" horiz-adv-x="804" 
d="M402 729q154 0 250.5 -103t96.5 -268q0 -104 -38.5 -185t-109.5 -130l96 -93h-27l-86 83q-77 -47 -182 -47q-156 0 -251.5 103t-95.5 269t96 268.5t251 102.5zM393 220h27l168 -164q141 95 141 302q0 159 -90.5 255t-236.5 96t-236.5 -96t-90.5 -255q0 -158 91 -255
t236 -97q96 0 169 40z" />
    <glyph glyph-name="R" unicode="R" horiz-adv-x="591" 
d="M106 0v715h172q80 0 126 -14q132 -38 132 -179q0 -90 -54 -140.5t-141 -60.5l195 -321h-24l-193 319h-193v-319h-20zM126 695v-356h165q60 0 108 15t82.5 58t34.5 110q1 124 -119 160q-41 13 -119 13h-152z" />
    <glyph glyph-name="S" unicode="S" horiz-adv-x="604" 
d="M47 203h20q18 -98 75 -147.5t160 -49.5q105 0 166.5 48t61.5 124q0 31 -12 56t-28 41t-46 31.5t-51.5 23.5t-59.5 20l-62 21q-113 39 -156.5 76t-43.5 111q0 77 61 124t167 47q107 0 168 -51.5t70 -147.5h-20q-25 179 -218 179q-98 0 -153 -40.5t-55 -110.5q0 -63 42 -98
t145 -71l66 -22q45 -16 70 -26t55 -26.5t45 -34t25.5 -43.5t10.5 -59q0 -85 -69 -138.5t-179 -53.5q-222 0 -255 217z" />
    <glyph glyph-name="T" unicode="T" horiz-adv-x="529" 
d="M255 0v695h-233v20h485v-20h-232v-695h-20z" />
    <glyph glyph-name="U" unicode="U" horiz-adv-x="682" 
d="M341 6q151 0 199 103q24 53 24 140v466h20v-466q0 -95 -26 -150q-53 -113 -217 -113t-217 113q-26 55 -26 150v466h20v-466q0 -88 24 -140q48 -103 199 -103z" />
    <glyph glyph-name="V" unicode="V" horiz-adv-x="630" 
d="M444 356l137 358h20l-276 -715h-24l-269 715h20l139 -369q24 -57 69.5 -182.5t51.5 -141.5h2q18 46 65.5 169.5t64.5 165.5z" />
    <glyph glyph-name="W" unicode="W" horiz-adv-x="783" 
d="M736 715l-159 -715h-27l-90 406q-10 45 -32.5 146t-31.5 146h-2q-7 -34 -74 -321l-89 -377h-27l-155 715h20l97 -446q7 -36 25 -121.5t26 -131.5h2q12 64 55 251l106 448h30l100 -440q36 -159 52 -254h2q18 87 55 257l97 437h20z" />
    <glyph glyph-name="X" unicode="X" horiz-adv-x="586" 
d="M554 715l-249 -346l266 -369h-23l-256 354l-253 -354h-24l267 368l-250 347h24l238 -331l237 331h23z" />
    <glyph glyph-name="Y" unicode="Y" horiz-adv-x="598" 
d="M288 0v272l-260 443h23q61 -103 248 -422q120 193 254 422h22l-267 -443v-272h-20z" />
    <glyph glyph-name="Z" unicode="Z" horiz-adv-x="572" 
d="M32 0v17q10 12 29.5 40t44.5 64t38 53l273 385q37 50 96 136h-474v20h499v-17q-18 -27 -108 -155l-259 -366l-116 -157h480v-20h-503z" />
    <glyph glyph-name="bracketleft" unicode="[" horiz-adv-x="281" 
d="M244 -93v-20h-139v828h139v-20h-119v-788h119z" />
    <glyph glyph-name="backslash" unicode="\" horiz-adv-x="386" 
d="M58 715l289 -820h-20l-289 820h20z" />
    <glyph glyph-name="bracketright" unicode="]" horiz-adv-x="281" 
d="M37 -113v20h119v788h-119v20h139v-828h-139z" />
    <glyph glyph-name="asciicircum" unicode="^" 
d="M271 683h17l221 -395h-20l-208 372h-3l-207 -372h-20z" />
    <glyph glyph-name="underscore" unicode="_" horiz-adv-x="624" 
d="M74 -130v20h476v-20h-476z" />
    <glyph glyph-name="grave" unicode="`" horiz-adv-x="429" 
d="M262 596l-131 119h29l126 -119h-24z" />
    <glyph glyph-name="a" unicode="a" horiz-adv-x="537" 
d="M92 367h-20q0 73 54.5 122.5t141.5 49.5q92 0 140 -52.5t48 -168.5q0 -32 -0.5 -58t-0.5 -27v-105q0 -85 9 -128h-21q-4 15 -6 61t0 78h-1q-19 -65 -76 -108t-139 -43q-79 0 -125.5 38t-46.5 106q0 70 58.5 103.5t172.5 51.5q56 10 156 17v23q0 192 -169 192
q-79 0 -126 -42.5t-49 -109.5zM436 229q0 45 1 57q-130 -13 -184 -23q-91 -16 -137.5 -45t-46.5 -86q0 -55 40.5 -89.5t111.5 -34.5q90 0 152.5 58t62.5 163z" />
    <glyph glyph-name="b" unicode="b" horiz-adv-x="607" 
d="M89 0v715h20v-149q0 -17 -0.5 -100.5t-0.5 -102.5q10 65 66 120.5t145 55.5q107 0 170.5 -74t63.5 -203q0 -126 -66 -200.5t-168 -74.5q-91 0 -143 46.5t-68 114.5v-39q0 -13 0.5 -34t0.5 -28v-47h-20zM319 7q95 0 154.5 69t59.5 186q0 119 -58 188t-157 69
q-96 0 -153 -71t-57 -185q1 -123 55.5 -189.5t155.5 -66.5z" />
    <glyph glyph-name="c" unicode="c" horiz-adv-x="581" 
d="M533 354h-21q-45 165 -213 165q-108 0 -167 -71t-59 -186q0 -116 60 -185.5t166 -69.5q84 0 138.5 41.5t75.5 118.5h20q-22 -84 -81 -132t-153 -48q-119 0 -182.5 75.5t-63.5 199.5q0 123 66.5 200t179.5 77q188 0 234 -185z" />
    <glyph glyph-name="d" unicode="d" horiz-adv-x="607" 
d="M518 715v-715h-20v47v62q0 26 1 40q-18 -70 -69 -116t-142 -46q-102 0 -168 74t-66 201q0 128 63.5 202.5t170.5 74.5q89 0 145 -55.5t66 -119.5q0 19 -0.5 102t-0.5 100v149h20zM288 7q101 0 155.5 66.5t55.5 189.5q0 114 -57 185t-153 71q-99 0 -157 -69t-58 -188
q0 -117 59.5 -186t154.5 -69z" />
    <glyph glyph-name="e" unicode="e" horiz-adv-x="580" 
d="M533 276h-460v-14q0 -116 59 -185.5t163 -69.5q77 0 130.5 37.5t77.5 104.5l21 -1q-25 -73 -83.5 -117t-145.5 -44q-115 0 -178.5 76t-63.5 199t67.5 200t178.5 77q109 0 169.5 -71.5t64.5 -191.5zM299 519q-97 0 -157 -61.5t-68 -161.5h438q-9 104 -62 163.5t-151 59.5z
" />
    <glyph glyph-name="f" unicode="f" horiz-adv-x="232" 
d="M217 715v-20q-14 2 -24 2q-44 0 -57 -25.5t-13 -80.5v-66h94v-20h-94v-505h-20v505h-75v20h75v69q0 57 18 90t72 33q10 0 24 -2z" />
    <glyph glyph-name="g" unicode="g" horiz-adv-x="596" 
d="M284 -170q103 0 153 59.5t50 184.5q0 8 1 58t1 67q-11 -68 -66 -121t-142 -53q-104 0 -165 70.5t-61 183.5q0 116 62.5 188t163.5 72q87 0 139 -47.5t68 -117.5q-1 11 -1 32v46v73h20v-451q0 -264 -223 -264q-94 0 -146 48.5t-65 124.5h21q32 -153 190 -153zM281 45
q91 0 149.5 67t58.5 173q0 100 -56.5 167t-152.5 67q-94 0 -149.5 -69t-55.5 -171q0 -100 55 -167t151 -67z" />
    <glyph glyph-name="h" unicode="h" horiz-adv-x="567" 
d="M89 715h20v-191q0 -25 -0.5 -66.5t-0.5 -74.5q9 55 60 105.5t130 50.5q90 0 138 -53t48 -158v-328h-20v328q0 101 -46.5 146t-119.5 45q-88 0 -138.5 -66.5t-50.5 -151.5v-301h-20v715z" />
    <glyph glyph-name="i" unicode="i" horiz-adv-x="198" 
d="M89 525h20v-525h-20v525zM109 604h-20v111h20v-111z" />
    <glyph glyph-name="j" unicode="j" horiz-adv-x="198" 
d="M89 525h20v-598q0 -66 -21.5 -95t-70.5 -29q-7 0 -21 2v20q14 -2 21 -2q41 0 56.5 25.5t15.5 77.5v599zM109 604h-20v111h20v-111z" />
    <glyph glyph-name="k" unicode="k" horiz-adv-x="437" 
d="M418 0h-28q-40 37 -170 167l-111 109v-276h-20v715h20v-432l106 95q128 117 160 147h29q-56 -52 -153.5 -138t-117.5 -106q13 -15 124.5 -123t160.5 -158z" />
    <glyph glyph-name="l" unicode="l" horiz-adv-x="208" 
d="M94 715h20v-715h-20v715z" />
    <glyph glyph-name="m" unicode="m" horiz-adv-x="930" 
d="M89 0v445q0 53 -1 80h21v-140q10 55 59 104.5t127 49.5q156 0 179 -157h1q10 56 60.5 106.5t128.5 50.5q183 0 183 -211v-328h-20v328q0 101 -45 146t-118 45q-85 0 -135.5 -64.5t-50.5 -146.5v-308h-20v328q0 101 -45 146t-118 45q-87 0 -136.5 -66.5t-49.5 -151.5v-301
h-20z" />
    <glyph glyph-name="n" unicode="n" horiz-adv-x="567" 
d="M89 0v445q0 53 -1 80h21v-140q10 55 60 104.5t129 49.5q90 0 138 -53t48 -158v-328h-20v328q0 101 -46.5 146t-119.5 45q-88 0 -138.5 -66.5t-50.5 -151.5v-301h-20z" />
    <glyph glyph-name="o" unicode="o" horiz-adv-x="602" 
d="M301 7q106 0 167 70t61 185q0 114 -60.5 185.5t-167.5 71.5t-167.5 -71.5t-60.5 -185.5q0 -115 61 -185t167 -70zM301 539q113 0 180.5 -77t67.5 -200t-65 -199t-183 -76t-183 76t-65 199t67.5 200t180.5 77z" />
    <glyph glyph-name="p" unicode="p" horiz-adv-x="607" 
d="M89 -180v705h20v-69q0 -56 -1 -93q10 65 66 120.5t145 55.5q107 0 170.5 -74t63.5 -203q0 -126 -66 -200.5t-168 -74.5q-91 0 -143 46.5t-68 114.5v-39q0 -13 0.5 -34t0.5 -28v-227h-20zM319 7q95 0 154.5 69t59.5 186q0 119 -58 188t-157 69q-96 0 -153 -71t-57 -185
q1 -123 55.5 -189.5t155.5 -66.5z" />
    <glyph glyph-name="q" unicode="q" horiz-adv-x="607" 
d="M518 525v-705h-20v227v62q0 26 1 40q-18 -70 -69 -116t-142 -46q-102 0 -168 74t-66 201q0 128 63.5 202.5t170.5 74.5q89 0 145 -55.5t66 -119.5q-1 37 -1 112v49h20zM288 7q101 0 155.5 66.5t55.5 189.5q0 114 -57 185t-153 71q-99 0 -157 -69t-58 -188
q0 -117 59.5 -186t154.5 -69z" />
    <glyph glyph-name="r" unicode="r" horiz-adv-x="266" 
d="M109 525v-130q6 62 40 101.5t91 39.5q6 0 13 -1v-20q-7 1 -14 1q-130 0 -130 -232v-284h-20v446q0 55 -1 79h21z" />
    <glyph glyph-name="s" unicode="s" horiz-adv-x="494" 
d="M44 141h20q32 -134 182 -134q86 0 131.5 34.5t45.5 93.5q0 46 -37 72.5t-115 47.5l-49 14q-85 24 -120 52.5t-35 87.5t49 94.5t130 35.5q79 0 128.5 -35.5t60.5 -98.5h-20q-13 52 -56 83t-113 31q-76 0 -117 -29.5t-42 -80.5q0 -48 32 -72.5t116 -50.5l49 -14
q82 -22 120.5 -50.5t38.5 -86.5q0 -68 -54 -108t-143 -40q-172 0 -202 154z" />
    <glyph glyph-name="t" unicode="t" horiz-adv-x="239" 
d="M212 15v-20q-14 -2 -22 -2q-55 0 -73 30t-18 96v386h-69v20h69v142h20v-142h93v-20h-93v-386q0 -61 16 -83.5t55 -22.5q8 0 22 2z" />
    <glyph glyph-name="u" unicode="u" horiz-adv-x="562" 
d="M473 525v-445q0 -53 1 -80h-21v142q-9 -56 -58 -106t-128 -50q-90 0 -137 53t-47 158v328h20v-328q0 -101 45 -146t119 -45q88 0 137 66.5t49 151.5v301h20z" />
    <glyph glyph-name="v" unicode="v" horiz-adv-x="491" 
d="M258 0h-26q-38 101 -199 525h23l114 -301q10 -28 35.5 -95.5t39.5 -107.5h2q21 61 79 216l111 288h22q-160 -409 -201 -525z" />
    <glyph glyph-name="w" unicode="w" horiz-adv-x="783" 
d="M566 0h-29q-21 69 -79.5 282.5t-60.5 220.5h-2q-16 -51 -75 -246.5t-78 -256.5h-29q-44 126 -175 525h22l101 -301q18 -60 66 -204h2l62 216l89 289h32l82 -289q11 -42 30 -111t28 -105h2l24 72q7 19 22 65t23 67l104 301h22q-152 -441 -183 -525z" />
    <glyph glyph-name="x" unicode="x" horiz-adv-x="481" 
d="M423 525h25l-195 -257l203 -268h-26l-190 250l-190 -250h-25l202 267l-195 258h26l182 -241z" />
    <glyph glyph-name="y" unicode="y" horiz-adv-x="492" 
d="M188 -180h-21l68 179q-35 95 -110.5 289t-92.5 237h23l117 -298q56 -149 74 -202h2q28 83 80 212l109 288h22q-15 -40 -54 -142t-103.5 -268.5t-113.5 -294.5z" />
    <glyph glyph-name="z" unicode="z" horiz-adv-x="494" 
d="M35 0v18l266 329q36 44 126 158h-383v20h412v-18l-256 -319l-140 -168h393v-20h-418z" />
    <glyph glyph-name="braceleft" unicode="{" horiz-adv-x="259" 
d="M114 -24v202q0 56 -16 79t-53 34v20q37 11 53 34t16 79v202q0 53 20 71.5t64 18.5q4 0 8.5 -0.5t5.5 -0.5h5v-18q-49 0 -66 -10.5t-17 -52.5v-180q0 -77 -14 -108t-55 -44v-2q41 -13 55 -44t14 -107v-181q0 -42 17 -52.5t66 -10.5v-18q-1 -1 -5 -1h-14q-44 0 -64 18.5
t-20 71.5z" />
    <glyph glyph-name="bar" unicode="|" horiz-adv-x="230" 
d="M105 731h20v-794h-20v794z" />
    <glyph glyph-name="braceright" unicode="}" horiz-adv-x="259" 
d="M145 178v-202q0 -53 -20 -71.5t-64 -18.5h-14q-4 0 -5 1v18q49 0 66 10.5t17 52.5v181q0 76 14 107t55 44v2q-41 13 -55 44t-14 108v180q0 42 -17 52.5t-66 10.5v18h5q1 0 5.5 0.5t8.5 0.5q44 0 64 -18.5t20 -71.5v-202q0 -56 16 -79t53 -34v-20q-37 -11 -53 -34t-16 -79
z" />
    <glyph glyph-name="asciitilde" unicode="~" 
d="M295 271l-63 30q-50 23 -79 23q-53 0 -98 -74l-15 11q51 83 114 83q35 0 99 -30l66 -32q44 -23 79 -23q38 0 61 20t46 58l16 -9q-50 -88 -123 -88q-37 0 -103 31z" />
    <glyph glyph-name="uni00A0" unicode="&#xa0;" horiz-adv-x="284" 
 />
    <glyph glyph-name="exclamdown" unicode="&#xa1;" horiz-adv-x="214" 
d="M102 337h12q4 -167 4 -464v-69h-20v69q0 297 4 464zM98 413v112h20v-112h-20z" />
    <glyph glyph-name="cent" unicode="&#xa2;" 
d="M522 354h-21q-44 159 -203 165v-512q80 2 131.5 43.5t72.5 116.5h20q-22 -82 -78.5 -129.5t-145.5 -50.5v-69h-20v69q-114 4 -175 79t-61 196q0 120 64 196.5t172 80.5v83h20v-83q179 -6 224 -185zM62 262q0 -113 57 -182t159 -73v512q-103 -4 -159.5 -75t-56.5 -182z
" />
    <glyph glyph-name="sterling" unicode="&#xa3;" 
d="M486 20v-20h-423v16q135 28 135 174q0 70 -45 170h-103v20h95q-40 95 -40 164q0 80 54.5 132.5t147.5 52.5q91 0 141.5 -48t54.5 -140h-20q-5 82 -50 125t-126 43q-82 0 -132 -45.5t-50 -119.5q0 -73 40 -164h197v-20h-188q1 -3 8 -22t9 -25t8 -23t8 -26t5.5 -23.5
t4.5 -26t1 -23.5q0 -53 -23.5 -100.5t-81.5 -71.5q17 1 110 1h263z" />
    <glyph glyph-name="currency" unicode="&#xa4;" 
d="M492 134l-46 45q-70 -65 -166 -65t-167 66l-47 -47l-14 14l47 47q-64 69 -64 165t65 166l-48 49l14 14l48 -49q71 65 166 65q93 0 165 -64l47 47l14 -14l-47 -47q66 -71 66 -167q0 -95 -65 -166l46 -45zM55 359q0 -93 66 -159t159 -66t159 66t66 159t-66 159t-159 66
t-159 -66t-66 -159z" />
    <glyph glyph-name="yen" unicode="&#xa5;" 
d="M28 253v20h237l-90 153h-147v20h136l-158 269h22l249 -423q128 206 255 423h21l-163 -269h142v-20h-154l-92 -153h246v-20h-246v-253h-20v253h-238z" />
    <glyph glyph-name="brokenbar" unicode="&#xa6;" horiz-adv-x="182" 
d="M81 428v303h20v-303h-20zM81 -62v303h20v-303h-20z" />
    <glyph glyph-name="section" unicode="&#xa7;" 
d="M477 592h-19q-14 55 -57.5 84.5t-111.5 29.5q-78 0 -118.5 -30t-40.5 -77q0 -20 7 -36t14.5 -26t29.5 -22.5t36 -18.5l49 -21l83 -35q70 -29 103 -59.5t33 -80.5q0 -54 -39 -95.5t-86 -57.5q57 -26 83.5 -51.5t26.5 -67.5q0 -64 -55 -102.5t-142 -38.5q-81 0 -134 38
t-67 116h20q29 -134 182 -134q77 0 126.5 32t49.5 87q0 14 -3.5 26.5t-13 23t-16.5 17.5t-24 16t-24.5 13t-28.5 13t-27 12l-108 49q-40 18 -64.5 33t-46 46t-21.5 71q0 53 38 87.5t97 47.5q-53 24 -75.5 47t-22.5 71q0 59 49 93t130 34q76 0 126 -34t62 -100zM205 217
l135 -62q50 17 87.5 56.5t37.5 88.5q0 46 -36 74.5t-120 62.5l-78 33q-54 -7 -96 -39.5t-42 -84.5q0 -43 28.5 -73.5t83.5 -55.5z" />
    <glyph glyph-name="dieresis" unicode="&#xa8;" horiz-adv-x="491" 
d="M217 616v80h20v-80h-20zM320 616v80h20v-80h-20z" />
    <glyph glyph-name="copyright" unicode="&#xa9;" horiz-adv-x="865" 
d="M612 275h20q-54 -139 -197 -139q-93 0 -151 61.5t-58 160.5q0 98 59 160t151 62q158 0 193 -144h-20q-13 57 -57 90.5t-116 33.5q-84 0 -137 -56.5t-53 -144.5t53 -145.5t136 -57.5q124 0 177 119zM809 360q0 -158 -110 -267.5t-268 -109.5q-156 0 -265.5 110t-109.5 267
t109.5 266.5t267.5 109.5q156 0 266 -110t110 -266zM789 360q0 148 -105.5 252t-250.5 104q-148 0 -252.5 -103.5t-104.5 -252.5t104 -253t252 -104q146 0 251.5 103.5t105.5 253.5z" />
    <glyph glyph-name="ordfeminine" unicode="&#xaa;" horiz-adv-x="452" 
d="M97 453h-17q0 54 41 92t106 38q71 0 106.5 -39t35.5 -127q0 -15 -0.5 -32t-0.5 -20v-90q0 -63 7 -96h-18q-5 22 -5 96q-15 -46 -57.5 -75.5t-101.5 -29.5q-60 0 -95 28.5t-35 79.5q0 52 44.5 77.5t128.5 39.5l116 13v16q0 142 -125 142q-58 0 -93 -31.5t-37 -81.5z
M352 351q0 30 1 41q-104 -10 -136 -17q-65 -11 -101 -33.5t-36 -63.5q0 -40 30.5 -65.5t82.5 -25.5q67 0 113 43.5t46 120.5z" />
    <glyph glyph-name="guillemotleft" unicode="&#xab;" horiz-adv-x="441" 
d="M371 473l-106 -187l106 -188h-20l-110 188l110 187h20zM195 473l-106 -187l106 -188h-20l-110 188l110 187h20z" />
    <glyph glyph-name="logicalnot" unicode="&#xac;" 
d="M30 427v20h503v-310h-20v290h-483z" />
    <glyph glyph-name="uni00AD" unicode="&#xad;" horiz-adv-x="422" 
d="M85 359v20h272v-20h-272z" />
    <glyph glyph-name="registered" unicode="&#xae;" horiz-adv-x="579" 
d="M215 366v264h76q95 0 95 -71q0 -66 -72 -77l70 -116h-22l-67 114h-63v-114h-17zM232 612v-114h59q77 0 77 60q0 54 -77 54h-59zM523 500q0 -98 -68.5 -166t-165.5 -68q-96 0 -164.5 68.5t-68.5 165.5t68 165t166 68q96 0 164.5 -68.5t68.5 -164.5zM504 500
q0 91 -62.5 153t-151.5 62q-92 0 -154 -61.5t-62 -153.5t62 -153.5t153 -61.5q90 0 152.5 61.5t62.5 153.5z" />
    <glyph glyph-name="macron" unicode="&#xaf;" horiz-adv-x="428" 
d="M97 652v17h244v-17h-244z" />
    <glyph glyph-name="degree" unicode="&#xb0;" horiz-adv-x="449" 
d="M225 400q-70 0 -118.5 47.5t-48.5 116.5q0 70 48.5 117.5t118.5 47.5t118 -47.5t48 -117.5t-47.5 -117t-118.5 -47zM78 564q0 -60 43.5 -102.5t103.5 -42.5q61 0 103.5 41.5t42.5 103.5q0 61 -43 103.5t-103 42.5t-103.5 -42.5t-43.5 -103.5z" />
    <glyph glyph-name="plusminus" unicode="&#xb1;" 
d="M59 0v20h442v-20h-442zM59 322v20h211v209h20v-209h211v-20h-211v-208h-20v208h-211z" />
    <glyph glyph-name="twosuperior" unicode="&#xb2;" horiz-adv-x="425" 
d="M343 281h-268v17l48 42l88 77q60 53 87.5 96.5t27.5 87.5q0 50 -30 76.5t-80 26.5q-105 0 -117 -115h-18q4 59 39.5 96t95.5 37t94 -32.5t34 -87.5q0 -58 -35 -105t-106 -108q-7 -6 -25.5 -22.5t-38.5 -33.5t-43 -34h247v-18z" />
    <glyph glyph-name="threesuperior" unicode="&#xb3;" horiz-adv-x="397" 
d="M96 619h-18q6 48 37 77.5t85 29.5q53 0 83.5 -28t30.5 -73q0 -38 -22 -65.5t-65 -36.5v-2q51 -7 79.5 -37t28.5 -77q0 -57 -37 -92t-99 -35q-119 0 -137 120h18q17 -103 119 -103q55 0 86.5 31t31.5 78q0 51 -37 78.5t-91 27.5h-20v15q59 0 93.5 25.5t34.5 72.5
q0 40 -28 62t-71 22q-90 0 -102 -90z" />
    <glyph glyph-name="acute" unicode="&#xb4;" horiz-adv-x="427" 
d="M333 715l-131 -119h-24l126 119h29z" />
    <glyph glyph-name="mu" unicode="&#xb5;" horiz-adv-x="545" 
d="M109 -180h-20v705h20v-331q0 -188 155 -188q73 0 122.5 56t49.5 130v333h20v-445q0 -53 1 -80h-21v116q-17 -56 -64.5 -93t-107.5 -37q-126 0 -155 97v-263z" />
    <glyph glyph-name="paragraph" unicode="&#xb6;" horiz-adv-x="423" 
d="M158 695v-808h-20v679q-34 0 -58.5 20.5t-24.5 54.5q0 38 29 59q19 15 65 15h227v-20h-77v-808h-20v808h-121z" />
    <glyph glyph-name="periodcentered" unicode="&#xb7;" horiz-adv-x="172" 
d="M76 261v111h20v-111h-20z" />
    <glyph glyph-name="cedilla" unicode="&#xb8;" horiz-adv-x="369" 
d="M174 -163l80 115h22l-75 -115h-27z" />
    <glyph glyph-name="onesuperior" unicode="&#xb9;" horiz-adv-x="247" 
d="M146 631h-105v13h21q53 0 71 15t20 56h11v-424h-18v340z" />
    <glyph glyph-name="ordmasculine" unicode="&#xba;" horiz-adv-x="491" 
d="M245 186q79 0 124.5 51.5t45.5 137.5q0 84 -45 137.5t-125 53.5q-79 0 -124 -53.5t-45 -137.5q0 -86 45.5 -137.5t123.5 -51.5zM245 583q86 0 136.5 -57t50.5 -151q0 -93 -48.5 -149.5t-138.5 -56.5q-89 0 -137.5 56.5t-48.5 149.5q0 94 50 151t136 57z" />
    <glyph glyph-name="guillemotright" unicode="&#xbb;" horiz-adv-x="441" 
d="M176 286l-106 187h20l110 -187l-110 -188h-20zM352 286l-106 187h20l110 -187l-110 -188h-20z" />
    <glyph glyph-name="onequarter" unicode="&#xbc;" horiz-adv-x="733" 
d="M588 106h-210v15q157 229 212 315h16v-313h90v-17h-90v-106h-18v106zM588 123v114q0 13 1.5 88t1.5 85h-1q-8 -12 -33.5 -52t-44.5 -68l-43 -64q-6 -9 -22 -32.5t-24 -34.5q-16 -24 -25 -36h190zM184 0l275 715h19l-275 -715h-19zM142 631h-105v13h21q53 0 71 15t20 56
h11v-424h-18v340z" />
    <glyph glyph-name="onehalf" unicode="&#xbd;" horiz-adv-x="784" 
d="M729 0h-268v17l48 42l88 77q60 53 87.5 96.5t27.5 87.5q0 50 -30 76.5t-80 26.5q-105 0 -117 -115h-18q4 59 39.5 96t95.5 37t94 -32.5t34 -87.5q0 -58 -35 -105t-106 -108q-7 -6 -25.5 -22.5t-38.5 -33.5t-43 -34h247v-18zM184 0l275 715h19l-275 -715h-19zM142 631
h-105v13h21q53 0 71 15t20 56h11v-424h-18v340z" />
    <glyph glyph-name="threequarters" unicode="&#xbe;" horiz-adv-x="844" 
d="M84 619h-18q6 48 37 77.5t85 29.5q53 0 83.5 -28t30.5 -73q0 -38 -22 -65.5t-65 -36.5v-2q51 -7 79.5 -37t28.5 -77q0 -57 -37 -92t-99 -35q-119 0 -137 120h18q17 -103 119 -103q55 0 86.5 31t31.5 78q0 51 -37 78.5t-91 27.5h-20v15q59 0 93.5 25.5t34.5 72.5
q0 40 -28 62t-71 22q-90 0 -102 -90zM699 106h-210v15q157 229 212 315h16v-313h90v-17h-90v-106h-18v106zM699 123v114q0 13 1.5 88t1.5 85h-1q-8 -12 -33.5 -52t-44.5 -68l-43 -64q-6 -9 -22 -32.5t-24 -34.5q-16 -24 -25 -36h190zM295 0l275 715h19l-275 -715h-19z" />
    <glyph glyph-name="questiondown" unicode="&#xbf;" horiz-adv-x="466" 
d="M228 324h20q0 -58 -17.5 -91t-68.5 -81l-25 -24q-40 -38 -62 -73.5t-22 -87.5q0 -68 41 -109.5t127 -41.5q93 0 140 52t50 146h20q0 -101 -55 -159.5t-155 -58.5q-92 0 -140 46t-48 123q0 96 92 178l14 13q40 38 54.5 55t24.5 44.5t10 68.5zM248 525v-111h-20v111h20z
" />
    <glyph glyph-name="Agrave" unicode="&#xc0;" horiz-adv-x="646" 
d="M28 0l285 715h23l280 -715h-21l-106 271h-333l-108 -271h-20zM325 694h-2q-11 -28 -61.5 -157t-69.5 -175l-28 -71h316l-31 81q-18 50 -61.5 161.5t-62.5 160.5zM329 761l-128 116h29l123 -116h-24z" />
    <glyph glyph-name="Aacute" unicode="&#xc1;" horiz-adv-x="646" 
d="M28 0l285 715h23l280 -715h-21l-106 271h-333l-108 -271h-20zM325 694h-2q-11 -28 -61.5 -157t-69.5 -175l-28 -71h316l-31 81q-18 50 -61.5 161.5t-62.5 160.5zM438 877l-128 -116h-24l123 116h29z" />
    <glyph glyph-name="Acircumflex" unicode="&#xc2;" horiz-adv-x="646" 
d="M28 0l285 715h23l280 -715h-21l-106 271h-333l-108 -271h-20zM325 694h-2q-11 -28 -61.5 -157t-69.5 -175l-28 -71h316l-31 81q-18 50 -61.5 161.5t-62.5 160.5zM317 875h16q1 -1 99 -115h-22l-85 97l-85 -97h-22q98 114 99 115z" />
    <glyph glyph-name="Atilde" unicode="&#xc3;" horiz-adv-x="646" 
d="M28 0l285 715h23l280 -715h-21l-106 271h-333l-108 -271h-20zM325 694h-2q-11 -28 -61.5 -157t-69.5 -175l-28 -71h316l-31 81q-18 50 -61.5 161.5t-62.5 160.5zM332 800l-28 14q-44 19 -57 19q-33 0 -46 -58h-17q13 75 64 75q18 0 64 -22l27 -13q36 -19 55 -19
q35 0 48 59h17q-13 -76 -66 -76q-21 0 -61 21z" />
    <glyph glyph-name="Adieresis" unicode="&#xc4;" horiz-adv-x="646" 
d="M28 0l285 715h23l280 -715h-21l-106 271h-333l-108 -271h-20zM325 694h-2q-11 -28 -61.5 -157t-69.5 -175l-28 -71h316l-31 81q-18 50 -61.5 161.5t-62.5 160.5zM263 766v80h20v-80h-20zM366 766v80h20v-80h-20z" />
    <glyph glyph-name="Aring" unicode="&#xc5;" horiz-adv-x="646" 
d="M28 0l285 715h23l280 -715h-21l-106 271h-333l-108 -271h-20zM325 694h-2q-11 -28 -61.5 -157t-69.5 -175l-28 -71h316l-31 81q-18 50 -61.5 161.5t-62.5 160.5zM323 754q-35 0 -58 24t-23 59q0 34 23.5 57.5t58.5 23.5t58.5 -23.5t23.5 -57.5q0 -35 -24 -59t-59 -24z
M258 837q0 -30 18 -49t47 -19t47.5 19t18.5 49q0 28 -18.5 47t-47.5 19t-47 -19t-18 -47z" />
    <glyph glyph-name="AE" unicode="&#xc6;" horiz-adv-x="869" 
d="M806 715v-20h-392l7 -317h361v-20h-361l6 -338h386v-20h-405l-4 250h-252l-134 -250h-22l389 715h421zM404 270l-3 185q-4 127 -4 242h-3q-20 -42 -98 -184l-134 -243h242z" />
    <glyph glyph-name="Ccedilla" unicode="&#xc7;" horiz-adv-x="772" 
d="M702 206h20q-37 -101 -120 -160.5t-197 -59.5q-158 0 -254 102.5t-96 268.5q0 165 97 268.5t253 103.5q120 0 203.5 -61t116.5 -168h-20q-35 97 -111 153t-189 56q-148 0 -239 -99t-91 -253q0 -153 91 -252t239 -99q108 0 183.5 54t113.5 146zM306 -163l80 115h22
l-77 -115h-25z" />
    <glyph glyph-name="Egrave" unicode="&#xc8;" horiz-adv-x="600" 
d="M106 0v715h431v-20h-411v-317h387v-20h-387v-338h418v-20h-438zM329 761l-128 116h29l123 -116h-24z" />
    <glyph glyph-name="Eacute" unicode="&#xc9;" horiz-adv-x="600" 
d="M106 0v715h431v-20h-411v-317h387v-20h-387v-338h418v-20h-438zM426 877l-128 -116h-24l123 116h29z" />
    <glyph glyph-name="Ecircumflex" unicode="&#xca;" horiz-adv-x="600" 
d="M106 0v715h431v-20h-411v-317h387v-20h-387v-338h418v-20h-438zM317 875h16q1 -1 99 -115h-22l-85 97l-85 -97h-22q98 114 99 115z" />
    <glyph glyph-name="Edieresis" unicode="&#xcb;" horiz-adv-x="600" 
d="M106 0v715h431v-20h-411v-317h387v-20h-387v-338h418v-20h-438zM265 766v80h20v-80h-20zM368 766v80h20v-80h-20z" />
    <glyph glyph-name="Igrave" unicode="&#xcc;" horiz-adv-x="232" 
d="M106 715h20v-715h-20v715zM127 761l-128 116h29l123 -116h-24z" />
    <glyph glyph-name="Iacute" unicode="&#xcd;" horiz-adv-x="232" 
d="M106 715h20v-715h-20v715zM239 877l-128 -116h-24l123 116h29z" />
    <glyph glyph-name="Icircumflex" unicode="&#xce;" horiz-adv-x="232" 
d="M106 715h20v-715h-20v715zM110 875h16q1 -1 99 -115h-22l-85 97l-85 -97h-22q98 114 99 115z" />
    <glyph glyph-name="Idieresis" unicode="&#xcf;" horiz-adv-x="232" 
d="M106 715h20v-715h-20v715zM56 766v80h20v-80h-20zM159 766v80h20v-80h-20z" />
    <glyph glyph-name="Eth" unicode="&#xd0;" horiz-adv-x="718" 
d="M36 350v20h79v345h146q142 0 229 -42q170 -83 170 -312q0 -187 -109 -279q-51 -43 -116.5 -62.5t-175.5 -19.5h-144v350h-79zM135 695v-325h186v-20h-186v-330h124q151 0 232 44q71 39 110 115t39 182q0 220 -168 298q-76 36 -211 36h-126z" />
    <glyph glyph-name="Ntilde" unicode="&#xd1;" horiz-adv-x="713" 
d="M106 715h32l283 -438q129 -196 166 -262h1q0 16 -0.5 126.5t-0.5 147.5v426h20v-715h-32l-276 430q-104 160 -174 270h-1q0 -17 1 -160.5t1 -178.5v-361h-20v715zM374 800l-28 14q-44 19 -57 19q-33 0 -46 -58h-17q13 75 64 75q18 0 64 -22l27 -13q36 -19 55 -19
q35 0 48 59h17q-13 -76 -66 -76q-21 0 -61 21z" />
    <glyph glyph-name="Ograve" unicode="&#xd2;" horiz-adv-x="804" 
d="M402 729q154 0 250.5 -103t96.5 -268q0 -166 -95.5 -269t-251.5 -103t-251.5 103t-95.5 269t96 268.5t251 102.5zM402 6q145 0 236 97t91 255q0 159 -90.5 255t-236.5 96t-236.5 -96t-90.5 -255q0 -158 91 -255t236 -97zM430 761l-128 116h29l123 -116h-24z" />
    <glyph glyph-name="Oacute" unicode="&#xd3;" horiz-adv-x="804" 
d="M402 729q154 0 250.5 -103t96.5 -268q0 -166 -95.5 -269t-251.5 -103t-251.5 103t-95.5 269t96 268.5t251 102.5zM402 6q145 0 236 97t91 255q0 159 -90.5 255t-236.5 96t-236.5 -96t-90.5 -255q0 -158 91 -255t236 -97zM495 877l-128 -116h-24l123 116h29z" />
    <glyph glyph-name="Ocircumflex" unicode="&#xd4;" horiz-adv-x="804" 
d="M402 729q154 0 250.5 -103t96.5 -268q0 -166 -95.5 -269t-251.5 -103t-251.5 103t-95.5 269t96 268.5t251 102.5zM402 6q145 0 236 97t91 255q0 159 -90.5 255t-236.5 96t-236.5 -96t-90.5 -255q0 -158 91 -255t236 -97zM394 875h16q1 -1 99 -115h-22l-85 97l-85 -97h-22
q98 114 99 115z" />
    <glyph glyph-name="Otilde" unicode="&#xd5;" horiz-adv-x="804" 
d="M402 729q154 0 250.5 -103t96.5 -268q0 -166 -95.5 -269t-251.5 -103t-251.5 103t-95.5 269t96 268.5t251 102.5zM402 6q145 0 236 97t91 255q0 159 -90.5 255t-236.5 96t-236.5 -96t-90.5 -255q0 -158 91 -255t236 -97zM415 800l-28 14q-44 19 -57 19q-33 0 -46 -58h-17
q13 75 64 75q18 0 64 -22l27 -13q36 -19 55 -19q35 0 48 59h17q-13 -76 -66 -76q-21 0 -61 21z" />
    <glyph glyph-name="Odieresis" unicode="&#xd6;" horiz-adv-x="804" 
d="M402 729q154 0 250.5 -103t96.5 -268q0 -166 -95.5 -269t-251.5 -103t-251.5 103t-95.5 269t96 268.5t251 102.5zM402 6q145 0 236 97t91 255q0 159 -90.5 255t-236.5 96t-236.5 -96t-90.5 -255q0 -158 91 -255t236 -97zM339 766v80h20v-80h-20zM442 766v80h20v-80h-20z
" />
    <glyph glyph-name="multiply" unicode="&#xd7;" 
d="M99 125l-14 14l181 180l-181 181l14 14l181 -180l181 181l14 -14l-181 -182l181 -181l-14 -14l-181 181z" />
    <glyph glyph-name="Oslash" unicode="&#xd8;" horiz-adv-x="804" 
d="M402 729q104 0 181 -47l49 85l15 -10l-48 -85q71 -49 110.5 -129.5t39.5 -184.5q0 -166 -95.5 -269t-251.5 -103q-98 0 -172 41l-55 -97l-15 8l55 97q-76 48 -118 131t-42 192q0 166 96 268.5t251 102.5zM75 358q0 -103 39.5 -181.5t110.5 -123.5l348 611q-73 45 -171 45
q-146 0 -236.5 -96t-90.5 -255zM402 6q145 0 236 97t91 255q0 202 -140 297l-348 -610q73 -39 161 -39z" />
    <glyph glyph-name="Ugrave" unicode="&#xd9;" horiz-adv-x="682" 
d="M341 6q151 0 199 103q24 53 24 140v466h20v-466q0 -95 -26 -150q-53 -113 -217 -113t-217 113q-26 55 -26 150v466h20v-466q0 -88 24 -140q48 -103 199 -103zM371 761l-128 116h29l123 -116h-24z" />
    <glyph glyph-name="Uacute" unicode="&#xda;" horiz-adv-x="682" 
d="M341 6q151 0 199 103q24 53 24 140v466h20v-466q0 -95 -26 -150q-53 -113 -217 -113t-217 113q-26 55 -26 150v466h20v-466q0 -88 24 -140q48 -103 199 -103zM433 877l-128 -116h-24l123 116h29z" />
    <glyph glyph-name="Ucircumflex" unicode="&#xdb;" horiz-adv-x="682" 
d="M341 6q151 0 199 103q24 53 24 140v466h20v-466q0 -95 -26 -150q-53 -113 -217 -113t-217 113q-26 55 -26 150v466h20v-466q0 -88 24 -140q48 -103 199 -103zM330 875h16q1 -1 99 -115h-22l-85 97l-85 -97h-22q98 114 99 115z" />
    <glyph glyph-name="Udieresis" unicode="&#xdc;" horiz-adv-x="682" 
d="M341 6q151 0 199 103q24 53 24 140v466h20v-466q0 -95 -26 -150q-53 -113 -217 -113t-217 113q-26 55 -26 150v466h20v-466q0 -88 24 -140q48 -103 199 -103zM280 766v80h20v-80h-20zM383 766v80h20v-80h-20z" />
    <glyph glyph-name="Yacute" unicode="&#xdd;" horiz-adv-x="598" 
d="M288 0v272l-260 443h23q61 -103 248 -422q120 193 254 422h22l-267 -443v-272h-20zM402 877l-128 -116h-24l123 116h29z" />
    <glyph glyph-name="Thorn" unicode="&#xde;" horiz-adv-x="569" 
d="M106 715h20v-121h152q122 0 188.5 -45t66.5 -154q0 -122 -91 -173q-63 -36 -169 -36h-147v-186h-20v715zM126 574v-368h147q103 0 159 32q81 45 81 157q0 93 -58 136t-177 43h-152z" />
    <glyph glyph-name="germandbls" unicode="&#xdf;" horiz-adv-x="557" 
d="M89 0v515q0 103 42 156q46 58 149 58q91 0 137 -43t46 -116q0 -70 -38.5 -112t-105.5 -50v-1q85 -6 136.5 -55t51.5 -143q0 -211 -240 -211h-8v18h8q220 0 220 193q0 183 -222 188v18q178 7 178 155q0 139 -163 139q-96 0 -136 -52q-35 -45 -35 -142v-515h-20z" />
    <glyph glyph-name="agrave" unicode="&#xe0;" horiz-adv-x="537" 
d="M92 367h-20q0 73 54.5 122.5t141.5 49.5q92 0 140 -52.5t48 -168.5q0 -32 -0.5 -58t-0.5 -27v-105q0 -85 9 -128h-21q-4 15 -6 61t0 78h-1q-19 -65 -76 -108t-139 -43q-79 0 -125.5 38t-46.5 106q0 70 58.5 103.5t172.5 51.5q56 10 156 17v23q0 192 -169 192
q-79 0 -126 -42.5t-49 -109.5zM436 229q0 45 1 57q-130 -13 -184 -23q-91 -16 -137.5 -45t-46.5 -86q0 -55 40.5 -89.5t111.5 -34.5q90 0 152.5 58t62.5 163zM301 596l-131 119h29l126 -119h-24z" />
    <glyph glyph-name="aacute" unicode="&#xe1;" horiz-adv-x="537" 
d="M92 367h-20q0 73 54.5 122.5t141.5 49.5q92 0 140 -52.5t48 -168.5q0 -32 -0.5 -58t-0.5 -27v-105q0 -85 9 -128h-21q-4 15 -6 61t0 78h-1q-19 -65 -76 -108t-139 -43q-79 0 -125.5 38t-46.5 106q0 70 58.5 103.5t172.5 51.5q56 10 156 17v23q0 192 -169 192
q-79 0 -126 -42.5t-49 -109.5zM436 229q0 45 1 57q-130 -13 -184 -23q-91 -16 -137.5 -45t-46.5 -86q0 -55 40.5 -89.5t111.5 -34.5q90 0 152.5 58t62.5 163zM375 715l-131 -119h-24l126 119h29z" />
    <glyph glyph-name="acircumflex" unicode="&#xe2;" horiz-adv-x="537" 
d="M92 367h-20q0 73 54.5 122.5t141.5 49.5q92 0 140 -52.5t48 -168.5q0 -32 -0.5 -58t-0.5 -27v-105q0 -85 9 -128h-21q-4 15 -6 61t0 78h-1q-19 -65 -76 -108t-139 -43q-79 0 -125.5 38t-46.5 106q0 70 58.5 103.5t172.5 51.5q56 10 156 17v23q0 192 -169 192
q-79 0 -126 -42.5t-49 -109.5zM436 229q0 45 1 57q-130 -13 -184 -23q-91 -16 -137.5 -45t-46.5 -86q0 -55 40.5 -89.5t111.5 -34.5q90 0 152.5 58t62.5 163zM260 715h16q88 -107 99 -119h-22l-85 101l-85 -101h-22q11 12 99 119z" />
    <glyph glyph-name="atilde" unicode="&#xe3;" horiz-adv-x="537" 
d="M92 367h-20q0 73 54.5 122.5t141.5 49.5q92 0 140 -52.5t48 -168.5q0 -32 -0.5 -58t-0.5 -27v-105q0 -85 9 -128h-21q-4 15 -6 61t0 78h-1q-19 -65 -76 -108t-139 -43q-79 0 -125.5 38t-46.5 106q0 70 58.5 103.5t172.5 51.5q56 10 156 17v23q0 192 -169 192
q-79 0 -126 -42.5t-49 -109.5zM436 229q0 45 1 57q-130 -13 -184 -23q-91 -16 -137.5 -45t-46.5 -86q0 -55 40.5 -89.5t111.5 -34.5q90 0 152.5 58t62.5 163zM279 648l-28 14q-44 19 -57 19q-33 0 -46 -58h-17q13 75 64 75q18 0 64 -22l27 -13q36 -19 55 -19q35 0 48 59h17
q-13 -76 -66 -76q-21 0 -61 21z" />
    <glyph glyph-name="adieresis" unicode="&#xe4;" horiz-adv-x="537" 
d="M92 367h-20q0 73 54.5 122.5t141.5 49.5q92 0 140 -52.5t48 -168.5q0 -32 -0.5 -58t-0.5 -27v-105q0 -85 9 -128h-21q-4 15 -6 61t0 78h-1q-19 -65 -76 -108t-139 -43q-79 0 -125.5 38t-46.5 106q0 70 58.5 103.5t172.5 51.5q56 10 156 17v23q0 192 -169 192
q-79 0 -126 -42.5t-49 -109.5zM436 229q0 45 1 57q-130 -13 -184 -23q-91 -16 -137.5 -45t-46.5 -86q0 -55 40.5 -89.5t111.5 -34.5q90 0 152.5 58t62.5 163zM209 616v80h20v-80h-20zM312 616v80h20v-80h-20z" />
    <glyph glyph-name="aring" unicode="&#xe5;" horiz-adv-x="537" 
d="M92 367h-20q0 73 54.5 122.5t141.5 49.5q92 0 140 -52.5t48 -168.5q0 -32 -0.5 -58t-0.5 -27v-105q0 -85 9 -128h-21q-4 15 -6 61t0 78h-1q-19 -65 -76 -108t-139 -43q-79 0 -125.5 38t-46.5 106q0 70 58.5 103.5t172.5 51.5q56 10 156 17v23q0 192 -169 192
q-79 0 -126 -42.5t-49 -109.5zM436 229q0 45 1 57q-130 -13 -184 -23q-91 -16 -137.5 -45t-46.5 -86q0 -55 40.5 -89.5t111.5 -34.5q90 0 152.5 58t62.5 163zM269 594q-35 0 -58 24t-23 59q0 34 23.5 57.5t58.5 23.5t58.5 -23.5t23.5 -57.5q0 -35 -24 -59t-59 -24zM204 677
q0 -30 18 -49t47 -19t47.5 19t18.5 49q0 28 -18.5 47t-47.5 19t-47 -19t-18 -47z" />
    <glyph glyph-name="ae" unicode="&#xe6;" horiz-adv-x="954" 
d="M906 276h-450v-14q0 -115 58.5 -185t159.5 -70q150 0 202 142l21 -1q-25 -74 -81 -117.5t-142 -43.5t-146 48t-79 135q-20 -88 -82 -135t-146 -47q-79 0 -125.5 38t-46.5 106q0 28 10 51t32 39t43.5 28t58 19.5t60.5 12.5t66.5 7.5t61 3.5t57.5 2v32q0 192 -169 192
q-80 0 -127.5 -43t-49.5 -109h-20q0 73 55.5 122.5t142.5 49.5q83 0 131 -45.5t53 -138.5q17 82 76.5 133t147.5 51q108 0 166 -71.5t62 -191.5zM678 519q-94 0 -153.5 -61.5t-67.5 -161.5h428q-9 104 -60 163.5t-147 59.5zM438 229q0 34 1 46q-145 -5 -196 -14
q-174 -28 -174 -129q0 -55 40.5 -89.5t111.5 -34.5q91 0 154 58t63 163z" />
    <glyph glyph-name="ccedilla" unicode="&#xe7;" horiz-adv-x="581" 
d="M533 354h-21q-45 165 -213 165q-108 0 -167 -71t-59 -186q0 -116 60 -185.5t166 -69.5q84 0 138.5 41.5t75.5 118.5h20q-22 -84 -81 -132t-153 -48q-119 0 -182.5 75.5t-63.5 199.5q0 123 66.5 200t179.5 77q188 0 234 -185zM212 -163l80 115h22l-75 -115h-27z" />
    <glyph glyph-name="egrave" unicode="&#xe8;" horiz-adv-x="580" 
d="M533 276h-460v-14q0 -116 59 -185.5t163 -69.5q77 0 130.5 37.5t77.5 104.5l21 -1q-25 -73 -83.5 -117t-145.5 -44q-115 0 -178.5 76t-63.5 199t67.5 200t178.5 77q109 0 169.5 -71.5t64.5 -191.5zM299 519q-97 0 -157 -61.5t-68 -161.5h438q-9 104 -62 163.5t-151 59.5z
M326 596l-131 119h29l126 -119h-24z" />
    <glyph glyph-name="eacute" unicode="&#xe9;" horiz-adv-x="580" 
d="M533 276h-460v-14q0 -116 59 -185.5t163 -69.5q77 0 130.5 37.5t77.5 104.5l21 -1q-25 -73 -83.5 -117t-145.5 -44q-115 0 -178.5 76t-63.5 199t67.5 200t178.5 77q109 0 169.5 -71.5t64.5 -191.5zM299 519q-97 0 -157 -61.5t-68 -161.5h438q-9 104 -62 163.5t-151 59.5z
M409 715l-131 -119h-24l126 119h29z" />
    <glyph glyph-name="ecircumflex" unicode="&#xea;" horiz-adv-x="580" 
d="M533 276h-460v-14q0 -116 59 -185.5t163 -69.5q77 0 130.5 37.5t77.5 104.5l21 -1q-25 -73 -83.5 -117t-145.5 -44q-115 0 -178.5 76t-63.5 199t67.5 200t178.5 77q109 0 169.5 -71.5t64.5 -191.5zM299 519q-97 0 -157 -61.5t-68 -161.5h438q-9 104 -62 163.5t-151 59.5z
M290 715h16q88 -107 99 -119h-22l-85 101l-85 -101h-22q11 12 99 119z" />
    <glyph glyph-name="edieresis" unicode="&#xeb;" horiz-adv-x="580" 
d="M533 276h-460v-14q0 -116 59 -185.5t163 -69.5q77 0 130.5 37.5t77.5 104.5l21 -1q-25 -73 -83.5 -117t-145.5 -44q-115 0 -178.5 76t-63.5 199t67.5 200t178.5 77q109 0 169.5 -71.5t64.5 -191.5zM299 519q-97 0 -157 -61.5t-68 -161.5h438q-9 104 -62 163.5t-151 59.5z
M235 616v80h20v-80h-20zM338 616v80h20v-80h-20z" />
    <glyph glyph-name="igrave" unicode="&#xec;" horiz-adv-x="198" 
d="M89 525h20v-525h-20v525zM110 596l-131 119h29l126 -119h-24z" />
    <glyph glyph-name="iacute" unicode="&#xed;" horiz-adv-x="198" 
d="M89 525h20v-525h-20v525zM227 715l-131 -119h-24l126 119h29z" />
    <glyph glyph-name="icircumflex" unicode="&#xee;" horiz-adv-x="198" 
d="M89 525h20v-525h-20v525zM92 715h16q88 -107 99 -119h-22l-85 101l-85 -101h-22q11 12 99 119z" />
    <glyph glyph-name="idieresis" unicode="&#xef;" horiz-adv-x="198" 
d="M89 525h20v-525h-20v525zM39 616v80h20v-80h-20zM142 616v80h20v-80h-20z" />
    <glyph glyph-name="eth" unicode="&#xf0;" horiz-adv-x="604" 
d="M219 715h38q39 -22 67 -42l107 48l14 -13l-105 -47q99 -73 154 -172t55 -210q0 -144 -69 -218t-180 -74t-179 74.5t-68 200.5q0 128 68 202.5t180 74.5q82 0 128.5 -33.5t79.5 -89.5l2 1q-68 150 -189 236l-148 -66l-12 14l144 64q-22 15 -87 50zM301 7q106 0 167 70
t61 185q0 114 -60.5 185.5t-167.5 71.5t-167.5 -71.5t-60.5 -185.5q0 -115 61 -185t167 -70z" />
    <glyph glyph-name="ntilde" unicode="&#xf1;" horiz-adv-x="567" 
d="M89 0v445q0 53 -1 80h21v-140q10 55 60 104.5t129 49.5q90 0 138 -53t48 -158v-328h-20v328q0 101 -46.5 146t-119.5 45q-88 0 -138.5 -66.5t-50.5 -151.5v-301h-20zM299 647l-28 14q-44 19 -57 19q-33 0 -46 -58h-17q13 75 64 75q18 0 64 -22l27 -13q36 -19 55 -19
q35 0 48 59h17q-13 -76 -66 -76q-21 0 -61 21z" />
    <glyph glyph-name="ograve" unicode="&#xf2;" horiz-adv-x="602" 
d="M301 7q106 0 167 70t61 185q0 114 -60.5 185.5t-167.5 71.5t-167.5 -71.5t-60.5 -185.5q0 -115 61 -185t167 -70zM301 539q113 0 180.5 -77t67.5 -200t-65 -199t-183 -76t-183 76t-65 199t67.5 200t180.5 77zM337 596l-131 119h29l126 -119h-24z" />
    <glyph glyph-name="oacute" unicode="&#xf3;" horiz-adv-x="602" 
d="M301 7q106 0 167 70t61 185q0 114 -60.5 185.5t-167.5 71.5t-167.5 -71.5t-60.5 -185.5q0 -115 61 -185t167 -70zM301 539q113 0 180.5 -77t67.5 -200t-65 -199t-183 -76t-183 76t-65 199t67.5 200t180.5 77zM406 715l-131 -119h-24l126 119h29z" />
    <glyph glyph-name="ocircumflex" unicode="&#xf4;" horiz-adv-x="602" 
d="M301 7q106 0 167 70t61 185q0 114 -60.5 185.5t-167.5 71.5t-167.5 -71.5t-60.5 -185.5q0 -115 61 -185t167 -70zM301 539q113 0 180.5 -77t67.5 -200t-65 -199t-183 -76t-183 76t-65 199t67.5 200t180.5 77zM294 715h16q88 -107 99 -119h-22l-85 101l-85 -101h-22
q11 12 99 119z" />
    <glyph glyph-name="otilde" unicode="&#xf5;" horiz-adv-x="602" 
d="M301 7q106 0 167 70t61 185q0 114 -60.5 185.5t-167.5 71.5t-167.5 -71.5t-60.5 -185.5q0 -115 61 -185t167 -70zM301 539q113 0 180.5 -77t67.5 -200t-65 -199t-183 -76t-183 76t-65 199t67.5 200t180.5 77zM315 647l-28 14q-44 19 -57 19q-33 0 -46 -58h-17
q13 75 64 75q18 0 64 -22l27 -13q36 -19 55 -19q35 0 48 59h17q-13 -76 -66 -76q-21 0 -61 21z" />
    <glyph glyph-name="odieresis" unicode="&#xf6;" horiz-adv-x="602" 
d="M301 7q106 0 167 70t61 185q0 114 -60.5 185.5t-167.5 71.5t-167.5 -71.5t-60.5 -185.5q0 -115 61 -185t167 -70zM301 539q113 0 180.5 -77t67.5 -200t-65 -199t-183 -76t-183 76t-65 199t67.5 200t180.5 77zM242 616v80h20v-80h-20zM345 616v80h20v-80h-20z" />
    <glyph glyph-name="divide" unicode="&#xf7;" 
d="M59 312v20h442v-20h-442zM270 95v111h20v-111h-20zM270 438v111h20v-111h-20z" />
    <glyph glyph-name="oslash" unicode="&#xf8;" horiz-adv-x="602" 
d="M301 539q81 0 140 -41l43 76l16 -9l-45 -78q94 -77 94 -225q0 -123 -65 -199t-183 -76q-64 0 -116 25l-42 -75l-15 9l42 74q-57 33 -87 96t-30 146q0 123 67.5 200t180.5 77zM73 262q0 -157 107 -224l251 443q-55 38 -130 38q-107 0 -167.5 -71.5t-60.5 -185.5zM301 7
q106 0 167 70t61 185q0 137 -83 208l-251 -441q43 -22 106 -22z" />
    <glyph glyph-name="ugrave" unicode="&#xf9;" horiz-adv-x="562" 
d="M473 525v-445q0 -53 1 -80h-21v142q-9 -56 -58 -106t-128 -50q-90 0 -137 53t-47 158v328h20v-328q0 -101 45 -146t119 -45q88 0 137 66.5t49 151.5v301h20zM305 596l-131 119h29l126 -119h-24z" />
    <glyph glyph-name="uacute" unicode="&#xfa;" horiz-adv-x="562" 
d="M473 525v-445q0 -53 1 -80h-21v142q-9 -56 -58 -106t-128 -50q-90 0 -137 53t-47 158v328h20v-328q0 -101 45 -146t119 -45q88 0 137 66.5t49 151.5v301h20zM375 715l-131 -119h-24l126 119h29z" />
    <glyph glyph-name="ucircumflex" unicode="&#xfb;" horiz-adv-x="562" 
d="M473 525v-445q0 -53 1 -80h-21v142q-9 -56 -58 -106t-128 -50q-90 0 -137 53t-47 158v328h20v-328q0 -101 45 -146t119 -45q88 0 137 66.5t49 151.5v301h20zM270 715h16q88 -107 99 -119h-22l-85 101l-85 -101h-22q11 12 99 119z" />
    <glyph glyph-name="udieresis" unicode="&#xfc;" horiz-adv-x="562" 
d="M473 525v-445q0 -53 1 -80h-21v142q-9 -56 -58 -106t-128 -50q-90 0 -137 53t-47 158v328h20v-328q0 -101 45 -146t119 -45q88 0 137 66.5t49 151.5v301h20zM213 616v80h20v-80h-20zM316 616v80h20v-80h-20z" />
    <glyph glyph-name="yacute" unicode="&#xfd;" horiz-adv-x="492" 
d="M188 -180h-21l68 179q-35 95 -110.5 289t-92.5 237h23l117 -298q56 -149 74 -202h2q28 83 80 212l109 288h22q-15 -40 -54 -142t-103.5 -268.5t-113.5 -294.5zM348 715l-131 -119h-24l126 119h29z" />
    <glyph glyph-name="thorn" unicode="&#xfe;" horiz-adv-x="607" 
d="M89 -180v895h20v-259q0 -56 -1 -93q10 65 66 120.5t145 55.5q107 0 170.5 -74t63.5 -203q0 -126 -66 -200.5t-168 -74.5q-91 0 -143 46.5t-68 114.5v-39q0 -13 0.5 -34t0.5 -28v-227h-20zM319 7q95 0 154.5 69t59.5 186q0 119 -58 188t-157 69q-96 0 -153 -71t-57 -185
q1 -123 55.5 -189.5t155.5 -66.5z" />
    <glyph glyph-name="ydieresis" unicode="&#xff;" horiz-adv-x="492" 
d="M188 -180h-21l68 179q-35 95 -110.5 289t-92.5 237h23l117 -298q56 -149 74 -202h2q28 83 80 212l109 288h22q-15 -40 -54 -142t-103.5 -268.5t-113.5 -294.5zM190 616v80h20v-80h-20zM293 616v80h20v-80h-20z" />
    <glyph glyph-name="Amacron" unicode="&#x100;" horiz-adv-x="646" 
d="M28 0l285 715h23l280 -715h-21l-106 271h-333l-108 -271h-20zM325 694h-2q-11 -28 -61.5 -157t-69.5 -175l-28 -71h316l-31 81q-18 50 -61.5 161.5t-62.5 160.5zM202 798v17h244v-17h-244z" />
    <glyph glyph-name="amacron" unicode="&#x101;" horiz-adv-x="537" 
d="M92 367h-20q0 73 54.5 122.5t141.5 49.5q92 0 140 -52.5t48 -168.5q0 -32 -0.5 -58t-0.5 -27v-105q0 -85 9 -128h-21q-4 15 -6 61t0 78h-1q-19 -65 -76 -108t-139 -43q-79 0 -125.5 38t-46.5 106q0 70 58.5 103.5t172.5 51.5q56 10 156 17v23q0 192 -169 192
q-79 0 -126 -42.5t-49 -109.5zM436 229q0 45 1 57q-130 -13 -184 -23q-91 -16 -137.5 -45t-46.5 -86q0 -55 40.5 -89.5t111.5 -34.5q90 0 152.5 58t62.5 163zM148 652v17h244v-17h-244z" />
    <glyph glyph-name="Abreve" unicode="&#x102;" horiz-adv-x="646" 
d="M28 0l285 715h23l280 -715h-21l-106 271h-333l-108 -271h-20zM325 694h-2q-11 -28 -61.5 -157t-69.5 -175l-28 -71h316l-31 81q-18 50 -61.5 161.5t-62.5 160.5zM325 799q81 0 101 80h17q-18 -96 -118 -96t-118 96h17q20 -80 101 -80z" />
    <glyph glyph-name="abreve" unicode="&#x103;" horiz-adv-x="537" 
d="M92 367h-20q0 73 54.5 122.5t141.5 49.5q92 0 140 -52.5t48 -168.5q0 -32 -0.5 -58t-0.5 -27v-105q0 -85 9 -128h-21q-4 15 -6 61t0 78h-1q-19 -65 -76 -108t-139 -43q-79 0 -125.5 38t-46.5 106q0 70 58.5 103.5t172.5 51.5q56 10 156 17v23q0 192 -169 192
q-79 0 -126 -42.5t-49 -109.5zM436 229q0 45 1 57q-130 -13 -184 -23q-91 -16 -137.5 -45t-46.5 -86q0 -55 40.5 -89.5t111.5 -34.5q90 0 152.5 58t62.5 163zM270 635q81 0 101 80h17q-18 -96 -118 -96t-118 96h17q20 -80 101 -80z" />
    <glyph glyph-name="Aogonek" unicode="&#x104;" horiz-adv-x="646" 
d="M28 0l285 715h23l280 -715h-21l-106 271h-333l-108 -271h-20zM325 694h-2q-11 -28 -61.5 -157t-69.5 -175l-28 -71h316l-31 81q-18 50 -61.5 161.5t-62.5 160.5zM612 -48l80 -115h-25l-77 115h22z" />
    <glyph glyph-name="aogonek" unicode="&#x105;" horiz-adv-x="537" 
d="M92 367h-20q0 73 54.5 122.5t141.5 49.5q92 0 140 -52.5t48 -168.5q0 -32 -0.5 -58t-0.5 -27v-105q0 -85 9 -128h-21q-4 15 -6 61t0 78h-1q-19 -65 -76 -108t-139 -43q-79 0 -125.5 38t-46.5 106q0 70 58.5 103.5t172.5 51.5q56 10 156 17v23q0 192 -169 192
q-79 0 -126 -42.5t-49 -109.5zM436 229q0 45 1 57q-130 -13 -184 -23q-91 -16 -137.5 -45t-46.5 -86q0 -55 40.5 -89.5t111.5 -34.5q90 0 152.5 58t62.5 163zM458 -48l80 -115h-25l-77 115h22z" />
    <glyph glyph-name="Cacute" unicode="&#x106;" horiz-adv-x="772" 
d="M702 206h20q-37 -101 -120 -160.5t-197 -59.5q-158 0 -254 102.5t-96 268.5q0 165 97 268.5t253 103.5q120 0 203.5 -61t116.5 -168h-20q-35 97 -111 153t-189 56q-148 0 -239 -99t-91 -253q0 -153 91 -252t239 -99q108 0 183.5 54t113.5 146zM528 877l-128 -116h-24
l123 116h29z" />
    <glyph glyph-name="cacute" unicode="&#x107;" horiz-adv-x="581" 
d="M533 354h-21q-45 165 -213 165q-108 0 -167 -71t-59 -186q0 -116 60 -185.5t166 -69.5q84 0 138.5 41.5t75.5 118.5h20q-22 -84 -81 -132t-153 -48q-119 0 -182.5 75.5t-63.5 199.5q0 123 66.5 200t179.5 77q188 0 234 -185zM412 715l-131 -119h-24l126 119h29z" />
    <glyph glyph-name="Ccircumflex" unicode="&#x108;" horiz-adv-x="772" 
d="M702 206h20q-37 -101 -120 -160.5t-197 -59.5q-158 0 -254 102.5t-96 268.5q0 165 97 268.5t253 103.5q120 0 203.5 -61t116.5 -168h-20q-35 97 -111 153t-189 56q-148 0 -239 -99t-91 -253q0 -153 91 -252t239 -99q108 0 183.5 54t113.5 146zM396 875h16q1 -1 99 -115
h-22l-85 97l-85 -97h-22q98 114 99 115z" />
    <glyph glyph-name="ccircumflex" unicode="&#x109;" horiz-adv-x="581" 
d="M533 354h-21q-45 165 -213 165q-108 0 -167 -71t-59 -186q0 -116 60 -185.5t166 -69.5q84 0 138.5 41.5t75.5 118.5h20q-22 -84 -81 -132t-153 -48q-119 0 -182.5 75.5t-63.5 199.5q0 123 66.5 200t179.5 77q188 0 234 -185zM294 715h16q88 -107 99 -119h-22l-85 101
l-85 -101h-22q11 12 99 119z" />
    <glyph glyph-name="Cdotaccent" unicode="&#x10a;" horiz-adv-x="772" 
d="M702 206h20q-37 -101 -120 -160.5t-197 -59.5q-158 0 -254 102.5t-96 268.5q0 165 97 268.5t253 103.5q120 0 203.5 -61t116.5 -168h-20q-35 97 -111 153t-189 56q-148 0 -239 -99t-91 -253q0 -153 91 -252t239 -99q108 0 183.5 54t113.5 146zM393 769v80h20v-80h-20z
" />
    <glyph glyph-name="cdotaccent" unicode="&#x10b;" horiz-adv-x="581" 
d="M533 354h-21q-45 165 -213 165q-108 0 -167 -71t-59 -186q0 -116 60 -185.5t166 -69.5q84 0 138.5 41.5t75.5 118.5h20q-22 -84 -81 -132t-153 -48q-119 0 -182.5 75.5t-63.5 199.5q0 123 66.5 200t179.5 77q188 0 234 -185zM294 616v80h20v-80h-20z" />
    <glyph glyph-name="Ccaron" unicode="&#x10c;" horiz-adv-x="772" 
d="M702 206h20q-37 -101 -120 -160.5t-197 -59.5q-158 0 -254 102.5t-96 268.5q0 165 97 268.5t253 103.5q120 0 203.5 -61t116.5 -168h-20q-35 97 -111 153t-189 56q-148 0 -239 -99t-91 -253q0 -153 91 -252t239 -99q108 0 183.5 54t113.5 146zM414 760h-16q-1 1 -99 115
h22l85 -97l85 97h22q-98 -114 -99 -115z" />
    <glyph glyph-name="ccaron" unicode="&#x10d;" horiz-adv-x="581" 
d="M533 354h-21q-45 165 -213 165q-108 0 -167 -71t-59 -186q0 -116 60 -185.5t166 -69.5q84 0 138.5 41.5t75.5 118.5h20q-22 -84 -81 -132t-153 -48q-119 0 -182.5 75.5t-63.5 199.5q0 123 66.5 200t179.5 77q188 0 234 -185zM308 596h-16q-88 107 -99 119h22l85 -101
l85 101h22q-11 -12 -99 -119z" />
    <glyph glyph-name="Dcaron" unicode="&#x10e;" horiz-adv-x="709" 
d="M106 0v715h146q142 0 229 -42q170 -83 170 -312q0 -187 -109 -279q-51 -43 -116.5 -62.5t-175.5 -19.5h-144zM126 695v-675h124q151 0 232 44q71 39 110 115t39 182q0 220 -168 298q-77 36 -211 36h-126zM340 760h-16q-1 1 -99 115h22l85 -97l85 97h22q-98 -114 -99 -115
z" />
    <glyph glyph-name="dcaron" unicode="&#x10f;" horiz-adv-x="640" 
d="M518 715v-715h-20v47v62q0 26 1 40q-18 -70 -69 -116t-142 -46q-102 0 -168 74t-66 201q0 128 63.5 202.5t170.5 74.5q89 0 145 -55.5t66 -119.5q0 19 -0.5 102t-0.5 100v149h20zM288 7q101 0 155.5 66.5t55.5 189.5q0 114 -57 185t-153 71q-99 0 -157 -69t-58 -188
q0 -117 59.5 -186t154.5 -69zM695 715l-79 -232h-20l77 232h22z" />
    <glyph glyph-name="Dcroat" unicode="&#x110;" horiz-adv-x="718" 
d="M36 350v20h79v345h146q142 0 229 -42q170 -83 170 -312q0 -187 -109 -279q-51 -43 -116.5 -62.5t-175.5 -19.5h-144v350h-79zM135 695v-325h186v-20h-186v-330h124q151 0 232 44q71 39 110 115t39 182q0 220 -168 298q-76 36 -211 36h-126z" />
    <glyph glyph-name="dcroat" unicode="&#x111;" horiz-adv-x="607" 
d="M381 617v20h117v78h20v-78h82v-20h-82v-617h-20v47v62q0 26 1 40q-18 -70 -69 -116t-142 -46q-102 0 -168 74t-66 201q0 128 63.5 202.5t170.5 74.5q89 0 145 -55.5t66 -119.5q0 19 -0.5 102t-0.5 100v51h-117zM288 7q101 0 155.5 66.5t55.5 189.5q0 114 -57 185t-153 71
q-99 0 -157 -69t-58 -188q0 -117 59.5 -186t154.5 -69z" />
    <glyph glyph-name="Emacron" unicode="&#x112;" horiz-adv-x="600" 
d="M106 0v715h431v-20h-411v-317h387v-20h-387v-338h418v-20h-438zM198 798v17h244v-17h-244z" />
    <glyph glyph-name="emacron" unicode="&#x113;" horiz-adv-x="580" 
d="M533 276h-460v-14q0 -116 59 -185.5t163 -69.5q77 0 130.5 37.5t77.5 104.5l21 -1q-25 -73 -83.5 -117t-145.5 -44q-115 0 -178.5 76t-63.5 199t67.5 200t178.5 77q109 0 169.5 -71.5t64.5 -191.5zM299 519q-97 0 -157 -61.5t-68 -161.5h438q-9 104 -62 163.5t-151 59.5z
M178 652v17h244v-17h-244z" />
    <glyph glyph-name="Ebreve" unicode="&#x114;" horiz-adv-x="600" 
d="M106 0v715h431v-20h-411v-317h387v-20h-387v-338h418v-20h-438zM320 799q81 0 101 80h17q-18 -96 -118 -96t-118 96h17q20 -80 101 -80z" />
    <glyph glyph-name="ebreve" unicode="&#x115;" horiz-adv-x="580" 
d="M533 276h-460v-14q0 -116 59 -185.5t163 -69.5q77 0 130.5 37.5t77.5 104.5l21 -1q-25 -73 -83.5 -117t-145.5 -44q-115 0 -178.5 76t-63.5 199t67.5 200t178.5 77q109 0 169.5 -71.5t64.5 -191.5zM299 519q-97 0 -157 -61.5t-68 -161.5h438q-9 104 -62 163.5t-151 59.5z
M299 635q81 0 101 80h17q-18 -96 -118 -96t-118 96h17q20 -80 101 -80z" />
    <glyph glyph-name="Edotaccent" unicode="&#x116;" horiz-adv-x="600" 
d="M106 0v715h431v-20h-411v-317h387v-20h-387v-338h418v-20h-438zM308 769v80h20v-80h-20z" />
    <glyph glyph-name="edotaccent" unicode="&#x117;" horiz-adv-x="580" 
d="M533 276h-460v-14q0 -116 59 -185.5t163 -69.5q77 0 130.5 37.5t77.5 104.5l21 -1q-25 -73 -83.5 -117t-145.5 -44q-115 0 -178.5 76t-63.5 199t67.5 200t178.5 77q109 0 169.5 -71.5t64.5 -191.5zM299 519q-97 0 -157 -61.5t-68 -161.5h438q-9 104 -62 163.5t-151 59.5z
M291 616v80h20v-80h-20z" />
    <glyph glyph-name="Eogonek" unicode="&#x118;" horiz-adv-x="600" 
d="M106 0v715h431v-20h-411v-317h387v-20h-387v-338h418v-20h-438zM314 -48l80 -115h-25l-77 115h22z" />
    <glyph glyph-name="eogonek" unicode="&#x119;" horiz-adv-x="580" 
d="M533 276h-460v-14q0 -116 59 -185.5t163 -69.5q77 0 130.5 37.5t77.5 104.5l21 -1q-25 -73 -83.5 -117t-145.5 -44q-115 0 -178.5 76t-63.5 199t67.5 200t178.5 77q109 0 169.5 -71.5t64.5 -191.5zM299 519q-97 0 -157 -61.5t-68 -161.5h438q-9 104 -62 163.5t-151 59.5z
M298 -48l80 -115h-25l-77 115h22z" />
    <glyph glyph-name="Ecaron" unicode="&#x11a;" horiz-adv-x="600" 
d="M106 0v715h431v-20h-411v-317h387v-20h-387v-338h418v-20h-438zM328 760h-16q-1 1 -99 115h22l85 -97l85 97h22q-98 -114 -99 -115z" />
    <glyph glyph-name="ecaron" unicode="&#x11b;" horiz-adv-x="580" 
d="M533 276h-460v-14q0 -116 59 -185.5t163 -69.5q77 0 130.5 37.5t77.5 104.5l21 -1q-25 -73 -83.5 -117t-145.5 -44q-115 0 -178.5 76t-63.5 199t67.5 200t178.5 77q109 0 169.5 -71.5t64.5 -191.5zM299 519q-97 0 -157 -61.5t-68 -161.5h438q-9 104 -62 163.5t-151 59.5z
M307 596h-16q-88 107 -99 119h22l85 -101l85 101h22q-11 -12 -99 -119z" />
    <glyph glyph-name="Gcircumflex" unicode="&#x11c;" horiz-adv-x="790" 
d="M701 207q-24 -93 -101 -157t-195 -64q-158 0 -254 102.5t-96 268.5q0 165 96.5 268.5t252.5 103.5q121 0 202 -60.5t117 -168.5h-20q-35 97 -111 153t-188 56q-146 0 -237.5 -98.5t-91.5 -252.5q0 -157 92.5 -254.5t237.5 -97.5q69 0 126.5 26t93 67.5t55 91t19.5 100.5
v29h-309v20h329v-340h-20v91q0 41 1 68q0 31 1 48zM399 875h16q1 -1 99 -115h-22l-85 97l-85 -97h-22q98 114 99 115z" />
    <glyph glyph-name="gcircumflex" unicode="&#x11d;" horiz-adv-x="596" 
d="M284 -170q103 0 153 59.5t50 184.5q0 8 1 58t1 67q-11 -68 -66 -121t-142 -53q-104 0 -165 70.5t-61 183.5q0 116 62.5 188t163.5 72q87 0 139 -47.5t68 -117.5q-1 11 -1 32v46v73h20v-451q0 -264 -223 -264q-94 0 -146 48.5t-65 124.5h21q32 -153 190 -153zM281 45
q91 0 149.5 67t58.5 173q0 100 -56.5 167t-152.5 67q-94 0 -149.5 -69t-55.5 -171q0 -100 55 -167t151 -67zM284 715h16q88 -107 99 -119h-22l-85 101l-85 -101h-22q11 12 99 119z" />
    <glyph glyph-name="Gbreve" unicode="&#x11e;" horiz-adv-x="790" 
d="M701 207q-24 -93 -101 -157t-195 -64q-158 0 -254 102.5t-96 268.5q0 165 96.5 268.5t252.5 103.5q121 0 202 -60.5t117 -168.5h-20q-35 97 -111 153t-188 56q-146 0 -237.5 -98.5t-91.5 -252.5q0 -157 92.5 -254.5t237.5 -97.5q69 0 126.5 26t93 67.5t55 91t19.5 100.5
v29h-309v20h329v-340h-20v91q0 41 1 68q0 31 1 48zM408 799q81 0 101 80h17q-18 -96 -118 -96t-118 96h17q20 -80 101 -80z" />
    <glyph glyph-name="gbreve" unicode="&#x11f;" horiz-adv-x="596" 
d="M284 -170q103 0 153 59.5t50 184.5q0 8 1 58t1 67q-11 -68 -66 -121t-142 -53q-104 0 -165 70.5t-61 183.5q0 116 62.5 188t163.5 72q87 0 139 -47.5t68 -117.5q-1 11 -1 32v46v73h20v-451q0 -264 -223 -264q-94 0 -146 48.5t-65 124.5h21q32 -153 190 -153zM281 45
q91 0 149.5 67t58.5 173q0 100 -56.5 167t-152.5 67q-94 0 -149.5 -69t-55.5 -171q0 -100 55 -167t151 -67zM290 635q81 0 101 80h17q-18 -96 -118 -96t-118 96h17q20 -80 101 -80z" />
    <glyph glyph-name="Gdotaccent" unicode="&#x120;" horiz-adv-x="790" 
d="M701 207q-24 -93 -101 -157t-195 -64q-158 0 -254 102.5t-96 268.5q0 165 96.5 268.5t252.5 103.5q121 0 202 -60.5t117 -168.5h-20q-35 97 -111 153t-188 56q-146 0 -237.5 -98.5t-91.5 -252.5q0 -157 92.5 -254.5t237.5 -97.5q69 0 126.5 26t93 67.5t55 91t19.5 100.5
v29h-309v20h329v-340h-20v91q0 41 1 68q0 31 1 48zM399 769v80h20v-80h-20z" />
    <glyph glyph-name="gdotaccent" unicode="&#x121;" horiz-adv-x="596" 
d="M284 -170q103 0 153 59.5t50 184.5q0 8 1 58t1 67q-11 -68 -66 -121t-142 -53q-104 0 -165 70.5t-61 183.5q0 116 62.5 188t163.5 72q87 0 139 -47.5t68 -117.5q-1 11 -1 32v46v73h20v-451q0 -264 -223 -264q-94 0 -146 48.5t-65 124.5h21q32 -153 190 -153zM281 45
q91 0 149.5 67t58.5 173q0 100 -56.5 167t-152.5 67q-94 0 -149.5 -69t-55.5 -171q0 -100 55 -167t151 -67zM278 616v80h20v-80h-20z" />
    <glyph glyph-name="Gcommaaccent" unicode="&#x122;" horiz-adv-x="790" 
d="M701 207q-24 -93 -101 -157t-195 -64q-158 0 -254 102.5t-96 268.5q0 165 96.5 268.5t252.5 103.5q121 0 202 -60.5t117 -168.5h-20q-35 97 -111 153t-188 56q-146 0 -237.5 -98.5t-91.5 -252.5q0 -157 92.5 -254.5t237.5 -97.5q69 0 126.5 26t93 67.5t55 91t19.5 100.5
v29h-309v20h329v-340h-20v91q0 41 1 68q0 31 1 48zM323 -163l80 115h22l-77 -115h-25z" />
    <glyph glyph-name="gcommaaccent" unicode="&#x123;" horiz-adv-x="596" 
d="M284 -170q103 0 153 59.5t50 184.5q0 8 1 58t1 67q-11 -68 -66 -121t-142 -53q-104 0 -165 70.5t-61 183.5q0 116 62.5 188t163.5 72q87 0 139 -47.5t68 -117.5q-1 11 -1 32v46v73h20v-451q0 -264 -223 -264q-94 0 -146 48.5t-65 124.5h21q32 -153 190 -153zM281 45
q91 0 149.5 67t58.5 173q0 100 -56.5 167t-152.5 67q-94 0 -149.5 -69t-55.5 -171q0 -100 55 -167t151 -67zM376 715l-80 -115h-22l77 115h25z" />
    <glyph glyph-name="Hcircumflex" unicode="&#x124;" horiz-adv-x="703" 
d="M577 362h-451v-362h-20v715h20v-333h451v333h20v-715h-20v362zM344 875h16q1 -1 99 -115h-22l-85 97l-85 -97h-22q98 114 99 115z" />
    <glyph glyph-name="hcircumflex" unicode="&#x125;" horiz-adv-x="567" 
d="M89 715h20v-191q0 -25 -0.5 -66.5t-0.5 -74.5q9 55 60 105.5t130 50.5q90 0 138 -53t48 -158v-328h-20v328q0 101 -46.5 146t-119.5 45q-88 0 -138.5 -66.5t-50.5 -151.5v-301h-20v715zM94 875h16q1 -1 99 -115h-22l-85 97l-85 -97h-22q98 114 99 115z" />
    <glyph glyph-name="Hbar" unicode="&#x126;" horiz-adv-x="703" 
d="M577 362h-451v-362h-20v715h20v-123h451v123h20v-715h-20v362zM126 382h451v190h-451v-190z" />
    <glyph glyph-name="hbar" unicode="&#x127;" horiz-adv-x="567" 
d="M89 715h20v-78h117v-20h-117v-93q0 -25 -0.5 -66.5t-0.5 -74.5q9 55 60 105.5t130 50.5q90 0 138 -53t48 -158v-328h-20v328q0 101 -46.5 146t-119.5 45q-88 0 -138.5 -66.5t-50.5 -151.5v-301h-20v617h-82v20h82v78z" />
    <glyph glyph-name="Itilde" unicode="&#x128;" horiz-adv-x="232" 
d="M106 715h20v-715h-20v715zM129 800l-28 14q-44 19 -57 19q-33 0 -46 -58h-17q13 75 64 75q18 0 64 -22l27 -13q36 -19 55 -19q35 0 48 59h17q-13 -76 -66 -76q-21 0 -61 21z" />
    <glyph glyph-name="itilde" unicode="&#x129;" horiz-adv-x="198" 
d="M89 525h20v-525h-20v525zM112 647l-28 14q-44 19 -57 19q-33 0 -46 -58h-17q13 75 64 75q18 0 64 -22l27 -13q36 -19 55 -19q35 0 48 59h17q-13 -76 -66 -76q-21 0 -61 21z" />
    <glyph glyph-name="Imacron" unicode="&#x12a;" horiz-adv-x="232" 
d="M106 715h20v-715h-20v715zM-4 798v17h244v-17h-244z" />
    <glyph glyph-name="imacron" unicode="&#x12b;" horiz-adv-x="198" 
d="M89 525h20v-525h-20v525zM-22 652v17h244v-17h-244z" />
    <glyph glyph-name="Ibreve" unicode="&#x12c;" horiz-adv-x="232" 
d="M106 715h20v-715h-20v715zM118 799q81 0 101 80h17q-18 -96 -118 -96t-118 96h17q20 -80 101 -80z" />
    <glyph glyph-name="ibreve" unicode="&#x12d;" horiz-adv-x="198" 
d="M89 525h20v-525h-20v525zM100 635q81 0 101 80h17q-18 -96 -118 -96t-118 96h17q20 -80 101 -80z" />
    <glyph glyph-name="Iogonek" unicode="&#x12e;" horiz-adv-x="232" 
d="M106 715h20v-715h-20v715zM127 -48l80 -115h-25l-77 115h22z" />
    <glyph glyph-name="iogonek" unicode="&#x12f;" horiz-adv-x="198" 
d="M89 525h20v-525h-20v525zM109 604h-20v111h20v-111zM107 -48l80 -115h-25l-77 115h22z" />
    <glyph glyph-name="Idotaccent" unicode="&#x130;" horiz-adv-x="232" 
d="M106 715h20v-715h-20v715zM108 769v80h20v-80h-20z" />
    <glyph glyph-name="dotlessi" unicode="&#x131;" horiz-adv-x="198" 
d="M89 525h20v-525h-20v525z" />
    <glyph glyph-name="IJ" unicode="&#x132;" horiz-adv-x="680" 
d="M106 715h20v-715h-20v715zM561 715h20v-508q0 -103 -29 -152q-39 -69 -136 -69q-152 0 -152 187h20q0 -167 132 -167q79 0 112 49t33 151v509z" />
    <glyph glyph-name="ij" unicode="&#x133;" horiz-adv-x="396" 
d="M89 525h20v-525h-20v525zM109 604h-20v111h20v-111zM287 525h20v-598q0 -66 -21.5 -95t-70.5 -29q-7 0 -21 2v20q14 -2 21 -2q41 0 56.5 25.5t15.5 77.5v599zM307 604h-20v111h20v-111z" />
    <glyph glyph-name="Jcircumflex" unicode="&#x134;" horiz-adv-x="448" 
d="M329 715h20v-508q0 -103 -29 -152q-39 -69 -136 -69q-152 0 -152 187h20q0 -167 132 -167q79 0 112 49t33 151v509zM329 875h16q1 -1 99 -115h-22l-85 97l-85 -97h-22q98 114 99 115z" />
    <glyph glyph-name="jcircumflex" unicode="&#x135;" horiz-adv-x="198" 
d="M89 525h20v-598q0 -66 -21.5 -95t-70.5 -29q-7 0 -21 2v20q14 -2 21 -2q41 0 56.5 25.5t15.5 77.5v599zM93 715h16q88 -107 99 -119h-22l-85 101l-85 -101h-22q11 12 99 119z" />
    <glyph glyph-name="Kcommaaccent" unicode="&#x136;" horiz-adv-x="555" 
d="M106 0v715h20v-335l380 335h29l-383 -336l390 -379h-29l-387 377v-377h-20zM217 -163l80 115h22l-77 -115h-25z" />
    <glyph glyph-name="kcommaaccent" unicode="&#x137;" horiz-adv-x="437" 
d="M418 0h-28q-40 37 -170 167l-111 109v-276h-20v715h20v-432l106 95q128 117 160 147h29q-56 -52 -153.5 -138t-117.5 -106q13 -15 124.5 -123t160.5 -158zM159 -163l80 115h22l-77 -115h-25z" />
    <glyph glyph-name="kgreenlandic" unicode="&#x138;" horiz-adv-x="437" 
d="M418 0h-28q-40 37 -170 167l-111 109v-276h-20v525h20v-242l106 95q128 117 160 147h29q-56 -52 -153.5 -138t-117.5 -106q13 -15 124.5 -123t160.5 -158z" />
    <glyph glyph-name="Lacute" unicode="&#x139;" horiz-adv-x="544" 
d="M106 715h20v-695h390v-20h-410v715zM254 877l-128 -116h-24l123 116h29z" />
    <glyph glyph-name="lacute" unicode="&#x13a;" horiz-adv-x="208" 
d="M94 715h20v-715h-20v715zM227 877l-128 -116h-24l123 116h29z" />
    <glyph glyph-name="Lcommaaccent" unicode="&#x13b;" horiz-adv-x="544" 
d="M106 715h20v-695h390v-20h-410v715zM231 -163l80 115h22l-77 -115h-25z" />
    <glyph glyph-name="lcommaaccent" unicode="&#x13c;" horiz-adv-x="208" 
d="M94 715h20v-715h-20v715zM33 -163l80 115h22l-77 -115h-25z" />
    <glyph glyph-name="Lcaron" unicode="&#x13d;" horiz-adv-x="544" 
d="M106 715h20v-695h390v-20h-410v715zM428 715l-79 -232h-20l77 232h22z" />
    <glyph glyph-name="lcaron" unicode="&#x13e;" horiz-adv-x="245" 
d="M94 715h20v-715h-20v715zM302 715l-79 -232h-20l77 232h22z" />
    <glyph glyph-name="Ldot" unicode="&#x13f;" horiz-adv-x="544" 
d="M106 715h20v-695h390v-20h-410v715zM313 261v111h20v-111h-20z" />
    <glyph glyph-name="ldot" unicode="&#x140;" horiz-adv-x="291" 
d="M94 715h20v-715h-20v715zM239 261v111h20v-111h-20z" />
    <glyph glyph-name="Lslash" unicode="&#x141;" horiz-adv-x="544" 
d="M106 715h20v-356l191 125v-20l-191 -125v-319h390v-20h-410v326l-81 -52v19l81 53v369z" />
    <glyph glyph-name="lslash" unicode="&#x142;" horiz-adv-x="214" 
d="M201 444v-20l-84 -54v-370h-20v357l-84 -54v19l84 54v339h20v-326z" />
    <glyph glyph-name="Nacute" unicode="&#x143;" horiz-adv-x="713" 
d="M106 715h32l283 -438q129 -196 166 -262h1q0 16 -0.5 126.5t-0.5 147.5v426h20v-715h-32l-276 430q-104 160 -174 270h-1q0 -17 1 -160.5t1 -178.5v-361h-20v715zM469 877l-128 -116h-24l123 116h29z" />
    <glyph glyph-name="nacute" unicode="&#x144;" horiz-adv-x="567" 
d="M89 0v445q0 53 -1 80h21v-140q10 55 60 104.5t129 49.5q90 0 138 -53t48 -158v-328h-20v328q0 101 -46.5 146t-119.5 45q-88 0 -138.5 -66.5t-50.5 -151.5v-301h-20zM389 715l-131 -119h-24l126 119h29z" />
    <glyph glyph-name="Ncommaaccent" unicode="&#x145;" horiz-adv-x="713" 
d="M106 715h32l283 -438q129 -196 166 -262h1q0 16 -0.5 126.5t-0.5 147.5v426h20v-715h-32l-276 430q-104 160 -174 270h-1q0 -17 1 -160.5t1 -178.5v-361h-20v715zM383 -47l-80 -115h-22l77 115h25z" />
    <glyph glyph-name="ncommaaccent" unicode="&#x146;" horiz-adv-x="567" 
d="M89 0v445q0 53 -1 80h21v-140q10 55 60 104.5t129 49.5q90 0 138 -53t48 -158v-328h-20v328q0 101 -46.5 146t-119.5 45q-88 0 -138.5 -66.5t-50.5 -151.5v-301h-20zM299 -47l-80 -115h-22l77 115h25z" />
    <glyph glyph-name="Ncaron" unicode="&#x147;" horiz-adv-x="713" 
d="M106 715h32l283 -438q129 -196 166 -262h1q0 16 -0.5 126.5t-0.5 147.5v426h20v-715h-32l-276 430q-104 160 -174 270h-1q0 -17 1 -160.5t1 -178.5v-361h-20v715zM371 760h-16q-1 1 -99 115h22l85 -97l85 97h22q-98 -114 -99 -115z" />
    <glyph glyph-name="ncaron" unicode="&#x148;" horiz-adv-x="567" 
d="M89 0v445q0 53 -1 80h21v-140q10 55 60 104.5t129 49.5q90 0 138 -53t48 -158v-328h-20v328q0 101 -46.5 146t-119.5 45q-88 0 -138.5 -66.5t-50.5 -151.5v-301h-20zM305 596h-16q-88 107 -99 119h22l85 -101l85 101h22q-11 -12 -99 -119z" />
    <glyph glyph-name="napostrophe" unicode="&#x149;" horiz-adv-x="622" 
d="M144 0v445q0 53 -1 80h21v-140q10 55 60 104.5t129 49.5q90 0 138 -53t48 -158v-328h-20v328q0 101 -46.5 146t-119.5 45q-88 0 -138.5 -66.5t-50.5 -151.5v-301h-20zM104 715l-79 -232h-20l77 232h22z" />
    <glyph glyph-name="Eng" unicode="&#x14a;" horiz-adv-x="713" 
d="M106 715h32l283 -438q129 -196 166 -262h1q0 16 -0.5 126.5t-0.5 147.5v426h20v-688q0 -103 -29 -152q-39 -69 -136 -69q-152 0 -152 187h20q0 -167 132 -167q75 0 108.5 43.5t36.5 130.5h-12l-276 430l-174 270h-1q0 -17 1 -160.5t1 -178.5v-361h-20v715z" />
    <glyph glyph-name="eng" unicode="&#x14b;" horiz-adv-x="567" 
d="M464 -74v402q0 101 -46.5 146t-119.5 45q-88 0 -138.5 -66.5t-50.5 -151.5v-301h-20v445q0 53 -1 80h21v-140q10 55 60 104.5t129 49.5q90 0 138 -53t48 -158v-401q0 -66 -21.5 -95t-70.5 -29q-7 0 -21 2v20q14 -2 21 -2q41 0 56.5 25.5t15.5 77.5z" />
    <glyph glyph-name="Omacron" unicode="&#x14c;" horiz-adv-x="804" 
d="M402 729q154 0 250.5 -103t96.5 -268q0 -166 -95.5 -269t-251.5 -103t-251.5 103t-95.5 269t96 268.5t251 102.5zM402 6q145 0 236 97t91 255q0 159 -90.5 255t-236.5 96t-236.5 -96t-90.5 -255q0 -158 91 -255t236 -97zM286 798v17h244v-17h-244z" />
    <glyph glyph-name="omacron" unicode="&#x14d;" horiz-adv-x="602" 
d="M301 7q106 0 167 70t61 185q0 114 -60.5 185.5t-167.5 71.5t-167.5 -71.5t-60.5 -185.5q0 -115 61 -185t167 -70zM301 539q113 0 180.5 -77t67.5 -200t-65 -199t-183 -76t-183 76t-65 199t67.5 200t180.5 77zM180 652v17h244v-17h-244z" />
    <glyph glyph-name="Obreve" unicode="&#x14e;" horiz-adv-x="804" 
d="M402 729q154 0 250.5 -103t96.5 -268q0 -166 -95.5 -269t-251.5 -103t-251.5 103t-95.5 269t96 268.5t251 102.5zM402 6q145 0 236 97t91 255q0 159 -90.5 255t-236.5 96t-236.5 -96t-90.5 -255q0 -158 91 -255t236 -97zM401 799q81 0 101 80h17q-18 -96 -118 -96
t-118 96h17q20 -80 101 -80z" />
    <glyph glyph-name="obreve" unicode="&#x14f;" horiz-adv-x="602" 
d="M301 7q106 0 167 70t61 185q0 114 -60.5 185.5t-167.5 71.5t-167.5 -71.5t-60.5 -185.5q0 -115 61 -185t167 -70zM301 539q113 0 180.5 -77t67.5 -200t-65 -199t-183 -76t-183 76t-65 199t67.5 200t180.5 77zM299 635q81 0 101 80h17q-18 -96 -118 -96t-118 96h17
q20 -80 101 -80z" />
    <glyph glyph-name="Ohungarumlaut" unicode="&#x150;" horiz-adv-x="804" 
d="M402 729q154 0 250.5 -103t96.5 -268q0 -166 -95.5 -269t-251.5 -103t-251.5 103t-95.5 269t96 268.5t251 102.5zM402 6q145 0 236 97t91 255q0 159 -90.5 255t-236.5 96t-236.5 -96t-90.5 -255q0 -158 91 -255t236 -97zM450 877l-128 -116h-24l123 116h29zM619 877
l-128 -116h-24l123 116h29z" />
    <glyph glyph-name="ohungarumlaut" unicode="&#x151;" horiz-adv-x="602" 
d="M301 7q106 0 167 70t61 185q0 114 -60.5 185.5t-167.5 71.5t-167.5 -71.5t-60.5 -185.5q0 -115 61 -185t167 -70zM301 539q113 0 180.5 -77t67.5 -200t-65 -199t-183 -76t-183 76t-65 199t67.5 200t180.5 77zM360 715l-131 -119h-23l126 119h28zM519 715l-131 -119h-23
l126 119h28z" />
    <glyph glyph-name="OE" unicode="&#x152;" horiz-adv-x="1221" 
d="M727 0v111q0 55 1 79q0 28 1 42q-29 -110 -114 -178t-213 -68q-156 0 -251.5 103t-95.5 269t96 268.5t251 102.5q129 0 213 -67.5t114 -181.5q-1 13 -1 39q-1 23 -1 78v118h431v-20h-411v-317h387v-20h-387v-338h418v-20h-438zM402 6q145 0 236 97t91 255
q0 159 -90.5 255t-236.5 96t-236.5 -96t-90.5 -255q0 -158 91 -255t236 -97z" />
    <glyph glyph-name="oe" unicode="&#x153;" horiz-adv-x="1039" 
d="M301 539q90 0 151.5 -49.5t82.5 -137.5q16 80 78.5 133.5t149.5 53.5q108 0 166 -71.5t62 -191.5h-448v-14q0 -116 57.5 -185.5t158.5 -69.5q150 0 202 142l21 -1q-25 -74 -81 -117.5t-142 -43.5q-85 0 -146 48t-81 134q-22 -85 -80 -133.5t-151 -48.5q-118 0 -183 76
t-65 199t67.5 200t180.5 77zM301 7q106 0 164.5 69.5t58.5 185.5q0 115 -57.5 186t-165.5 71q-107 0 -167.5 -71.5t-60.5 -185.5q0 -115 61 -185t167 -70zM763 519q-94 0 -152.5 -61.5t-66.5 -161.5h426q-9 104 -60 163.5t-147 59.5z" />
    <glyph glyph-name="Racute" unicode="&#x154;" horiz-adv-x="591" 
d="M106 0v715h172q80 0 126 -14q132 -38 132 -179q0 -90 -54 -140.5t-141 -60.5l195 -321h-24l-193 319h-193v-319h-20zM126 695v-356h165q60 0 108 15t82.5 58t34.5 110q1 124 -119 160q-41 13 -119 13h-152zM397 877l-128 -116h-24l123 116h29z" />
    <glyph glyph-name="racute" unicode="&#x155;" horiz-adv-x="266" 
d="M109 525v-130q6 62 40 101.5t91 39.5q6 0 13 -1v-20q-7 1 -14 1q-130 0 -130 -232v-284h-20v446q0 55 -1 79h21zM232 715l-131 -119h-24l126 119h29z" />
    <glyph glyph-name="Rcommaaccent" unicode="&#x156;" horiz-adv-x="591" 
d="M106 0v715h172q80 0 126 -14q132 -38 132 -179q0 -90 -54 -140.5t-141 -60.5l195 -321h-24l-193 319h-193v-319h-20zM126 695v-356h165q60 0 108 15t82.5 58t34.5 110q1 124 -119 160q-41 13 -119 13h-152zM221 -163l80 115h22l-77 -115h-25z" />
    <glyph glyph-name="rcommaaccent" unicode="&#x157;" horiz-adv-x="266" 
d="M109 525v-130q6 62 40 101.5t91 39.5q6 0 13 -1v-20q-7 1 -14 1q-130 0 -130 -232v-284h-20v446q0 55 -1 79h21zM45 -163l80 115h22l-77 -115h-25z" />
    <glyph glyph-name="Rcaron" unicode="&#x158;" horiz-adv-x="591" 
d="M106 0v715h172q80 0 126 -14q132 -38 132 -179q0 -90 -54 -140.5t-141 -60.5l195 -321h-24l-193 319h-193v-319h-20zM126 695v-356h165q60 0 108 15t82.5 58t34.5 110q1 124 -119 160q-41 13 -119 13h-152zM288 760h-16q-1 1 -99 115h22l85 -97l85 97h22
q-98 -114 -99 -115z" />
    <glyph glyph-name="rcaron" unicode="&#x159;" horiz-adv-x="266" 
d="M109 525v-130q6 62 40 101.5t91 39.5q6 0 13 -1v-20q-7 1 -14 1q-130 0 -130 -232v-284h-20v446q0 55 -1 79h21zM125 596h-16q-88 107 -99 119h22l85 -101l85 101h22q-11 -12 -99 -119z" />
    <glyph glyph-name="Sacute" unicode="&#x15a;" horiz-adv-x="604" 
d="M47 203h20q18 -98 75 -147.5t160 -49.5q105 0 166.5 48t61.5 124q0 31 -12 56t-28 41t-46 31.5t-51.5 23.5t-59.5 20l-62 21q-113 39 -156.5 76t-43.5 111q0 77 61 124t167 47q107 0 168 -51.5t70 -147.5h-20q-25 179 -218 179q-98 0 -153 -40.5t-55 -110.5q0 -63 42 -98
t145 -71l66 -22q45 -16 70 -26t55 -26.5t45 -34t25.5 -43.5t10.5 -59q0 -85 -69 -138.5t-179 -53.5q-222 0 -255 217zM413 877l-128 -116h-24l123 116h29z" />
    <glyph glyph-name="sacute" unicode="&#x15b;" horiz-adv-x="494" 
d="M44 141h20q32 -134 182 -134q86 0 131.5 34.5t45.5 93.5q0 46 -37 72.5t-115 47.5l-49 14q-85 24 -120 52.5t-35 87.5t49 94.5t130 35.5q79 0 128.5 -35.5t60.5 -98.5h-20q-13 52 -56 83t-113 31q-76 0 -117 -29.5t-42 -80.5q0 -48 32 -72.5t116 -50.5l49 -14
q82 -22 120.5 -50.5t38.5 -86.5q0 -68 -54 -108t-143 -40q-172 0 -202 154zM368 715l-131 -119h-24l126 119h29z" />
    <glyph glyph-name="Scircumflex" unicode="&#x15c;" horiz-adv-x="604" 
d="M47 203h20q18 -98 75 -147.5t160 -49.5q105 0 166.5 48t61.5 124q0 31 -12 56t-28 41t-46 31.5t-51.5 23.5t-59.5 20l-62 21q-113 39 -156.5 76t-43.5 111q0 77 61 124t167 47q107 0 168 -51.5t70 -147.5h-20q-25 179 -218 179q-98 0 -153 -40.5t-55 -110.5q0 -63 42 -98
t145 -71l66 -22q45 -16 70 -26t55 -26.5t45 -34t25.5 -43.5t10.5 -59q0 -85 -69 -138.5t-179 -53.5q-222 0 -255 217zM294 875h16q1 -1 99 -115h-22l-85 97l-85 -97h-22q98 114 99 115z" />
    <glyph glyph-name="scircumflex" unicode="&#x15d;" horiz-adv-x="494" 
d="M44 141h20q32 -134 182 -134q86 0 131.5 34.5t45.5 93.5q0 46 -37 72.5t-115 47.5l-49 14q-85 24 -120 52.5t-35 87.5t49 94.5t130 35.5q79 0 128.5 -35.5t60.5 -98.5h-20q-13 52 -56 83t-113 31q-76 0 -117 -29.5t-42 -80.5q0 -48 32 -72.5t116 -50.5l49 -14
q82 -22 120.5 -50.5t38.5 -86.5q0 -68 -54 -108t-143 -40q-172 0 -202 154zM242 715h16q88 -107 99 -119h-22l-85 101l-85 -101h-22q11 12 99 119z" />
    <glyph glyph-name="Scedilla" unicode="&#x15e;" horiz-adv-x="604" 
d="M47 203h20q18 -98 75 -147.5t160 -49.5q105 0 166.5 48t61.5 124q0 31 -12 56t-28 41t-46 31.5t-51.5 23.5t-59.5 20l-62 21q-113 39 -156.5 76t-43.5 111q0 77 61 124t167 47q107 0 168 -51.5t70 -147.5h-20q-25 179 -218 179q-98 0 -153 -40.5t-55 -110.5q0 -63 42 -98
t145 -71l66 -22q45 -16 70 -26t55 -26.5t45 -34t25.5 -43.5t10.5 -59q0 -85 -69 -138.5t-179 -53.5q-222 0 -255 217zM219 -163l80 115h22l-75 -115h-27z" />
    <glyph glyph-name="scedilla" unicode="&#x15f;" horiz-adv-x="494" 
d="M44 141h20q32 -134 182 -134q86 0 131.5 34.5t45.5 93.5q0 46 -37 72.5t-115 47.5l-49 14q-85 24 -120 52.5t-35 87.5t49 94.5t130 35.5q79 0 128.5 -35.5t60.5 -98.5h-20q-13 52 -56 83t-113 31q-76 0 -117 -29.5t-42 -80.5q0 -48 32 -72.5t116 -50.5l49 -14
q82 -22 120.5 -50.5t38.5 -86.5q0 -68 -54 -108t-143 -40q-172 0 -202 154zM174 -163l80 115h22l-75 -115h-27z" />
    <glyph glyph-name="Scaron" unicode="&#x160;" horiz-adv-x="604" 
d="M47 203h20q18 -98 75 -147.5t160 -49.5q105 0 166.5 48t61.5 124q0 31 -12 56t-28 41t-46 31.5t-51.5 23.5t-59.5 20l-62 21q-113 39 -156.5 76t-43.5 111q0 77 61 124t167 47q107 0 168 -51.5t70 -147.5h-20q-25 179 -218 179q-98 0 -153 -40.5t-55 -110.5q0 -63 42 -98
t145 -71l66 -22q45 -16 70 -26t55 -26.5t45 -34t25.5 -43.5t10.5 -59q0 -85 -69 -138.5t-179 -53.5q-222 0 -255 217zM318 760h-16q-1 1 -99 115h22l85 -97l85 97h22q-98 -114 -99 -115z" />
    <glyph glyph-name="scaron" unicode="&#x161;" horiz-adv-x="494" 
d="M44 141h20q32 -134 182 -134q86 0 131.5 34.5t45.5 93.5q0 46 -37 72.5t-115 47.5l-49 14q-85 24 -120 52.5t-35 87.5t49 94.5t130 35.5q79 0 128.5 -35.5t60.5 -98.5h-20q-13 52 -56 83t-113 31q-76 0 -117 -29.5t-42 -80.5q0 -48 32 -72.5t116 -50.5l49 -14
q82 -22 120.5 -50.5t38.5 -86.5q0 -68 -54 -108t-143 -40q-172 0 -202 154zM267 596h-16q-88 107 -99 119h22l85 -101l85 101h22q-11 -12 -99 -119z" />
    <glyph glyph-name="uni0162" unicode="&#x162;" horiz-adv-x="529" 
d="M255 0v695h-233v20h485v-20h-232v-695h-20zM192 -163l80 115h22l-77 -115h-25z" />
    <glyph glyph-name="uni0163" unicode="&#x163;" horiz-adv-x="239" 
d="M212 15v-20q-14 -2 -22 -2q-55 0 -73 30t-18 96v386h-69v20h69v142h20v-142h93v-20h-93v-386q0 -61 16 -83.5t55 -22.5q8 0 22 2zM96 -163l80 115h22l-77 -115h-25z" />
    <glyph glyph-name="Tcaron" unicode="&#x164;" horiz-adv-x="529" 
d="M255 0v695h-233v20h485v-20h-232v-695h-20zM273 760h-16q-1 1 -99 115h22l85 -97l85 97h22q-98 -114 -99 -115z" />
    <glyph glyph-name="tcaron" unicode="&#x165;" horiz-adv-x="275" 
d="M212 15v-20q-14 -2 -22 -2q-55 0 -73 30t-18 96v386h-69v20h69v142h20v-142h93v-20h-93v-386q0 -61 16 -83.5t55 -22.5q8 0 22 2zM341 715l-79 -232h-20l77 232h22z" />
    <glyph glyph-name="Tbar" unicode="&#x166;" horiz-adv-x="552" 
d="M109 357v20h156v318h-233v20h485v-20h-232v-318h168v-20h-168v-357h-20v357h-156z" />
    <glyph glyph-name="tbar" unicode="&#x167;" horiz-adv-x="243" 
d="M31 314v20h69v171h-69v20h69v142h20v-142h93v-20h-93v-171h93v-20h-93v-195q0 -61 16 -83.5t55 -22.5q8 0 22 2v-20q-14 -2 -22 -2q-55 0 -73 30t-18 96v195h-69z" />
    <glyph glyph-name="Utilde" unicode="&#x168;" horiz-adv-x="682" 
d="M341 6q151 0 199 103q24 53 24 140v466h20v-466q0 -95 -26 -150q-53 -113 -217 -113t-217 113q-26 55 -26 150v466h20v-466q0 -88 24 -140q48 -103 199 -103zM357 800l-28 14q-44 19 -57 19q-33 0 -46 -58h-17q13 75 64 75q18 0 64 -22l27 -13q36 -19 55 -19q35 0 48 59
h17q-13 -76 -66 -76q-21 0 -61 21z" />
    <glyph glyph-name="utilde" unicode="&#x169;" horiz-adv-x="562" 
d="M473 525v-445q0 -53 1 -80h-21v142q-9 -56 -58 -106t-128 -50q-90 0 -137 53t-47 158v328h20v-328q0 -101 45 -146t119 -45q88 0 137 66.5t49 151.5v301h20zM298 647l-28 14q-44 19 -57 19q-33 0 -46 -58h-17q13 75 64 75q18 0 64 -22l27 -13q36 -19 55 -19q35 0 48 59
h17q-13 -76 -66 -76q-21 0 -61 21z" />
    <glyph glyph-name="Umacron" unicode="&#x16a;" horiz-adv-x="682" 
d="M341 6q151 0 199 103q24 53 24 140v466h20v-466q0 -95 -26 -150q-53 -113 -217 -113t-217 113q-26 55 -26 150v466h20v-466q0 -88 24 -140q48 -103 199 -103zM222 798v17h244v-17h-244z" />
    <glyph glyph-name="umacron" unicode="&#x16b;" horiz-adv-x="562" 
d="M473 525v-445q0 -53 1 -80h-21v142q-9 -56 -58 -106t-128 -50q-90 0 -137 53t-47 158v328h20v-328q0 -101 45 -146t119 -45q88 0 137 66.5t49 151.5v301h20zM160 652v17h244v-17h-244z" />
    <glyph glyph-name="Ubreve" unicode="&#x16c;" horiz-adv-x="682" 
d="M341 6q151 0 199 103q24 53 24 140v466h20v-466q0 -95 -26 -150q-53 -113 -217 -113t-217 113q-26 55 -26 150v466h20v-466q0 -88 24 -140q48 -103 199 -103zM338 799q81 0 101 80h17q-18 -96 -118 -96t-118 96h17q20 -80 101 -80z" />
    <glyph glyph-name="ubreve" unicode="&#x16d;" horiz-adv-x="562" 
d="M473 525v-445q0 -53 1 -80h-21v142q-9 -56 -58 -106t-128 -50q-90 0 -137 53t-47 158v328h20v-328q0 -101 45 -146t119 -45q88 0 137 66.5t49 151.5v301h20zM276 635q81 0 101 80h17q-18 -96 -118 -96t-118 96h17q20 -80 101 -80z" />
    <glyph glyph-name="Uring" unicode="&#x16e;" horiz-adv-x="682" 
d="M341 6q151 0 199 103q24 53 24 140v466h20v-466q0 -95 -26 -150q-53 -113 -217 -113t-217 113q-26 55 -26 150v466h20v-466q0 -88 24 -140q48 -103 199 -103zM343 754q-35 0 -58 24t-23 59q0 34 23.5 57.5t58.5 23.5t58.5 -23.5t23.5 -57.5q0 -35 -24 -59t-59 -24z
M278 837q0 -30 18 -49t47 -19t47.5 19t18.5 49q0 28 -18.5 47t-47.5 19t-47 -19t-18 -47z" />
    <glyph glyph-name="uring" unicode="&#x16f;" horiz-adv-x="562" 
d="M473 525v-445q0 -53 1 -80h-21v142q-9 -56 -58 -106t-128 -50q-90 0 -137 53t-47 158v328h20v-328q0 -101 45 -146t119 -45q88 0 137 66.5t49 151.5v301h20zM286 594q-35 0 -58 24t-23 59q0 34 23.5 57.5t58.5 23.5t58.5 -23.5t23.5 -57.5q0 -35 -24 -59t-59 -24z
M221 677q0 -30 18 -49t47 -19t47.5 19t18.5 49q0 28 -18.5 47t-47.5 19t-47 -19t-18 -47z" />
    <glyph glyph-name="Uhungarumlaut" unicode="&#x170;" horiz-adv-x="682" 
d="M341 6q151 0 199 103q24 53 24 140v466h20v-466q0 -95 -26 -150q-53 -113 -217 -113t-217 113q-26 55 -26 150v466h20v-466q0 -88 24 -140q48 -103 199 -103zM356 877l-128 -116h-24l123 116h29zM525 877l-128 -116h-24l123 116h29z" />
    <glyph glyph-name="uhungarumlaut" unicode="&#x171;" horiz-adv-x="562" 
d="M473 525v-445q0 -53 1 -80h-21v142q-9 -56 -58 -106t-128 -50q-90 0 -137 53t-47 158v328h20v-328q0 -101 45 -146t119 -45q88 0 137 66.5t49 151.5v301h20zM315 715l-131 -119h-23l126 119h28zM474 715l-131 -119h-23l126 119h28z" />
    <glyph glyph-name="Uogonek" unicode="&#x172;" horiz-adv-x="682" 
d="M341 6q151 0 199 103q24 53 24 140v466h20v-466q0 -95 -26 -150q-53 -113 -217 -113t-217 113q-26 55 -26 150v466h20v-466q0 -88 24 -140q48 -103 199 -103zM334 -48l80 -115h-25l-77 115h22z" />
    <glyph glyph-name="uogonek" unicode="&#x173;" horiz-adv-x="562" 
d="M473 525v-445q0 -53 1 -80h-21v142q-9 -56 -58 -106t-128 -50q-90 0 -137 53t-47 158v328h20v-328q0 -101 45 -146t119 -45q88 0 137 66.5t49 151.5v301h20zM284 -48l80 -115h-25l-77 115h22z" />
    <glyph glyph-name="Wcircumflex" unicode="&#x174;" horiz-adv-x="783" 
d="M736 715l-159 -715h-27l-90 406q-10 45 -32.5 146t-31.5 146h-2q-7 -34 -74 -321l-89 -377h-27l-155 715h20l97 -446q7 -36 25 -121.5t26 -131.5h2q12 64 55 251l106 448h30l100 -440q36 -159 52 -254h2q18 87 55 257l97 437h20zM387 875h16q1 -1 99 -115h-22l-85 97
l-85 -97h-22q98 114 99 115z" />
    <glyph glyph-name="wcircumflex" unicode="&#x175;" horiz-adv-x="783" 
d="M566 0h-29q-21 69 -79.5 282.5t-60.5 220.5h-2q-16 -51 -75 -246.5t-78 -256.5h-29q-44 126 -175 525h22l101 -301q18 -60 66 -204h2l62 216l89 289h32l82 -289q11 -42 30 -111t28 -105h2l24 72q7 19 22 65t23 67l104 301h22q-152 -441 -183 -525zM389 715h16
q88 -107 99 -119h-22l-85 101l-85 -101h-22q11 12 99 119z" />
    <glyph glyph-name="Ycircumflex" unicode="&#x176;" horiz-adv-x="598" 
d="M288 0v272l-260 443h23q61 -103 248 -422q120 193 254 422h22l-267 -443v-272h-20zM290 875h16q1 -1 99 -115h-22l-85 97l-85 -97h-22q98 114 99 115z" />
    <glyph glyph-name="ycircumflex" unicode="&#x177;" horiz-adv-x="492" 
d="M188 -180h-21l68 179q-35 95 -110.5 289t-92.5 237h23l117 -298q56 -149 74 -202h2q28 83 80 212l109 288h22q-15 -40 -54 -142t-103.5 -268.5t-113.5 -294.5zM245 715h16q88 -107 99 -119h-22l-85 101l-85 -101h-22q11 12 99 119z" />
    <glyph glyph-name="Ydieresis" unicode="&#x178;" horiz-adv-x="598" 
d="M288 0v272l-260 443h23q61 -103 248 -422q120 193 254 422h22l-267 -443v-272h-20zM238 766v80h20v-80h-20zM341 766v80h20v-80h-20z" />
    <glyph glyph-name="Zacute" unicode="&#x179;" horiz-adv-x="572" 
d="M32 0v17q10 12 29.5 40t44.5 64t38 53l273 385q37 50 96 136h-474v20h499v-17q-18 -27 -108 -155l-259 -366l-116 -157h480v-20h-503zM377 877l-128 -116h-24l123 116h29z" />
    <glyph glyph-name="zacute" unicode="&#x17a;" horiz-adv-x="494" 
d="M35 0v18l266 329q36 44 126 158h-383v20h412v-18l-256 -319l-140 -168h393v-20h-418zM344 715l-131 -119h-24l126 119h29z" />
    <glyph glyph-name="Zdotaccent" unicode="&#x17b;" horiz-adv-x="572" 
d="M32 0v17q10 12 29.5 40t44.5 64t38 53l273 385q37 50 96 136h-474v20h499v-17q-18 -27 -108 -155l-259 -366l-116 -157h480v-20h-503zM268 769v80h20v-80h-20z" />
    <glyph glyph-name="zdotaccent" unicode="&#x17c;" horiz-adv-x="494" 
d="M35 0v18l266 329q36 44 126 158h-383v20h412v-18l-256 -319l-140 -168h393v-20h-418zM232 616v80h20v-80h-20z" />
    <glyph glyph-name="Zcaron" unicode="&#x17d;" horiz-adv-x="572" 
d="M32 0v17q10 12 29.5 40t44.5 64t38 53l273 385q37 50 96 136h-474v20h499v-17q-18 -27 -108 -155l-259 -366l-116 -157h480v-20h-503zM286 760h-16q-1 1 -99 115h22l85 -97l85 97h22q-98 -114 -99 -115z" />
    <glyph glyph-name="zcaron" unicode="&#x17e;" horiz-adv-x="494" 
d="M35 0v18l266 329q36 44 126 158h-383v20h412v-18l-256 -319l-140 -168h393v-20h-418zM252 596h-16q-88 107 -99 119h22l85 -101l85 101h22q-11 -12 -99 -119z" />
    <glyph glyph-name="uni0186" unicode="&#x186;" horiz-adv-x="772" 
d="M50 206h20q38 -92 113.5 -146t183.5 -54q148 0 239 99t91 252q0 154 -91 253t-239 99q-113 0 -189 -56t-111 -153h-20q33 107 116.5 168t203.5 61q156 0 253 -103.5t97 -268.5q0 -166 -96 -268.5t-254 -102.5q-114 0 -197 59.5t-120 160.5z" />
    <glyph glyph-name="uni018F" unicode="&#x18f;" horiz-adv-x="789" 
d="M45 362h670q0 156 -87.5 251.5t-243.5 95.5q-56 0 -103.5 -14.5t-78 -35.5t-55 -50.5t-37 -52.5t-22.5 -48h-20q12 37 35 72.5t60 70.5t95 56.5t127 21.5q163 0 256 -103.5t93 -264.5q0 -165 -96 -270t-257 -105t-248.5 104.5t-87.5 264.5v7zM715 342h-650
q6 -158 90.5 -248t225.5 -90q155 0 241.5 94t92.5 244z" />
    <glyph glyph-name="uni0190" unicode="&#x190;" horiz-adv-x="553" 
d="M491 196h20q-8 -104 -67 -157t-162 -53q-97 0 -162.5 59.5t-65.5 154.5q0 86 56 133t139 56v2q-74 12 -118.5 56t-44.5 114q0 77 51 122.5t142 45.5q93 0 147 -48t59 -132h-20q-5 76 -53.5 118t-132.5 42q-83 0 -128 -41t-45 -109q0 -78 60 -119.5t159 -41.5v-20h-16
q-101 0 -168 -44.5t-67 -133.5q0 -81 56.5 -137.5t151.5 -56.5q97 0 147 48t62 142z" />
    <glyph glyph-name="florin" unicode="&#x192;" horiz-adv-x="420" 
d="M63 461l4 20h128l2 15q19 129 53 177.5t118 48.5q14 0 25 -1l-2 -19q-9 1 -26 1q-65 0 -96.5 -41t-45.5 -141l-6 -40h137l-4 -20h-136l-61 -406q-21 -139 -59 -193t-122 -54q-11 0 -25 2l2 18q5 -1 23 -1q77 0 108.5 49.5t50.5 176.5l61 408h-129z" />
    <glyph glyph-name="uni019D" unicode="&#x19d;" horiz-adv-x="713" 
d="M106 715h32l283 -438q129 -196 166 -262h1q0 16 -0.5 126.5t-0.5 147.5v426h20v-715h-32l-276 430l-174 270h-1q0 -17 1 -160.5t1 -178.5v-434q0 -66 -21.5 -95t-70.5 -29q-7 0 -21 2v20q14 -2 21 -2q41 0 56.5 25.5t15.5 77.5v789z" />
    <glyph glyph-name="uni019F" unicode="&#x19f;" horiz-adv-x="804" 
d="M402 729q154 0 250.5 -103t96.5 -268q0 -166 -95.5 -269t-251.5 -103t-251.5 103t-95.5 269t96 268.5t251 102.5zM402 6q144 0 234.5 95t92.5 251h-654q2 -156 92.5 -251t234.5 -95zM402 709q-142 0 -232.5 -92.5t-94.5 -244.5h653q-4 152 -94 244.5t-232 92.5z" />
    <glyph glyph-name="Ohorn" unicode="&#x1a0;" horiz-adv-x="804" 
d="M402 729q154 0 250.5 -103t96.5 -268q0 -166 -95.5 -269t-251.5 -103t-251.5 103t-95.5 269t96 268.5t251 102.5zM402 6q145 0 236 97t91 255q0 159 -90.5 255t-236.5 96t-236.5 -96t-90.5 -255q0 -158 91 -255t236 -97zM673 906l-68 -191h-20l66 191h22z" />
    <glyph glyph-name="ohorn" unicode="&#x1a1;" horiz-adv-x="602" 
d="M301 7q106 0 167 70t61 185q0 114 -60.5 185.5t-167.5 71.5t-167.5 -71.5t-60.5 -185.5q0 -115 61 -185t167 -70zM301 539q113 0 180.5 -77t67.5 -200t-65 -199t-183 -76t-183 76t-65 199t67.5 200t180.5 77zM525 715l-68 -191h-20l66 191h22z" />
    <glyph glyph-name="Uhorn" unicode="&#x1af;" horiz-adv-x="682" 
d="M641 906l-68 -191h11v-466q0 -95 -26 -150q-53 -113 -217 -113t-217 113q-26 55 -26 150v466h20v-466q0 -88 24 -140q48 -103 199 -103t199 103q24 53 24 140v466h-11l66 191h22z" />
    <glyph glyph-name="uhorn" unicode="&#x1b0;" horiz-adv-x="562" 
d="M531 715l-68 -190h10v-445q0 -53 1 -80h-21v142q-9 -56 -58 -106t-128 -50q-90 0 -137 53t-47 158v328h20v-328q0 -101 45 -146t119 -45q88 0 137 66.5t49 151.5v300h-10l66 191h22z" />
    <glyph glyph-name="uni01C4" unicode="&#x1c4;" horiz-adv-x="1281" 
d="M106 0v715h146q142 0 229 -42q170 -83 170 -312q0 -187 -109 -279q-51 -43 -116.5 -62.5t-175.5 -19.5h-144zM126 695v-675h124q151 0 232 44q71 39 110 115t39 182q0 220 -168 298q-77 36 -211 36h-126zM741 0v17q10 12 29.5 40t44.5 64t38 53l273 385q37 50 96 136
h-474v20h499v-17q-18 -27 -108 -155l-259 -366l-116 -157h480v-20h-503zM995 760h-16q-1 1 -99 115h22l85 -97l85 97h22q-98 -114 -99 -115z" />
    <glyph glyph-name="uni01C5" unicode="&#x1c5;" horiz-adv-x="1203" 
d="M106 0v715h146q142 0 229 -42q170 -83 170 -312q0 -187 -109 -279q-51 -43 -116.5 -62.5t-175.5 -19.5h-144zM126 695v-675h124q151 0 232 44q71 39 110 115t39 182q0 220 -168 298q-77 36 -211 36h-126zM744 0v18l266 329q36 44 126 158h-383v20h412v-18l-256 -319
l-140 -168h393v-20h-418zM960 596h-16q-88 107 -99 119h22l85 -101l85 101h22q-11 -12 -99 -119z" />
    <glyph glyph-name="uni01C6" unicode="&#x1c6;" horiz-adv-x="1101" 
d="M518 715v-715h-20v47v62q0 26 1 40q-18 -70 -69 -116t-142 -46q-102 0 -168 74t-66 201q0 128 63.5 202.5t170.5 74.5q89 0 145 -55.5t66 -119.5q0 19 -0.5 102t-0.5 100v149h20zM288 7q101 0 155.5 66.5t55.5 189.5q0 114 -57 185t-153 71q-99 0 -157 -69t-58 -188
q0 -117 59.5 -186t154.5 -69zM642 0v18l266 329q36 44 126 158h-383v20h412v-18l-256 -319q-6 -7 -39.5 -47.5t-61.5 -74.5t-39 -46h393v-20h-418zM858 596h-16q-88 107 -99 119h22l85 -101l85 101h22q-11 -12 -99 -119z" />
    <glyph glyph-name="uni01C7" unicode="&#x1c7;" horiz-adv-x="992" 
d="M106 715h20v-695h390v-20h-410v715zM873 715h20v-508q0 -103 -29 -152q-39 -69 -136 -69q-152 0 -152 187h20q0 -167 132 -167q79 0 112 49t33 151v509z" />
    <glyph glyph-name="uni01C8" unicode="&#x1c8;" horiz-adv-x="742" 
d="M106 715h20v-695h390v-20h-410v715zM633 525h20v-598q0 -66 -21.5 -95t-70.5 -29q-7 0 -21 2v20q14 -2 21 -2q41 0 56.5 25.5t15.5 77.5v599zM653 604h-20v111h20v-111z" />
    <glyph glyph-name="uni01C9" unicode="&#x1c9;" horiz-adv-x="406" 
d="M94 715h20v-715h-20v715zM297 525h20v-598q0 -66 -21.5 -95t-70.5 -29q-7 0 -21 2v20q14 -2 21 -2q41 0 56.5 25.5t15.5 77.5v599zM317 604h-20v111h20v-111z" />
    <glyph glyph-name="uni01CA" unicode="&#x1ca;" horiz-adv-x="1161" 
d="M106 715h32l283 -438q129 -196 166 -262h1q0 16 -0.5 126.5t-0.5 147.5v426h20v-715h-32l-276 430q-104 160 -174 270h-1q0 -17 1 -160.5t1 -178.5v-361h-20v715zM1042 715h20v-508q0 -103 -29 -152q-39 -69 -136 -69q-152 0 -152 187h20q0 -167 132 -167q79 0 112 49
t33 151v509z" />
    <glyph glyph-name="uni01CB" unicode="&#x1cb;" horiz-adv-x="911" 
d="M106 715h32l283 -438q129 -196 166 -262h1q0 16 -0.5 126.5t-0.5 147.5v426h20v-715h-32l-276 430q-104 160 -174 270h-1q0 -17 1 -160.5t1 -178.5v-361h-20v715zM802 525h20v-598q0 -66 -21.5 -95t-70.5 -29q-7 0 -21 2v20q14 -2 21 -2q41 0 56.5 25.5t15.5 77.5v599z
M822 604h-20v111h20v-111z" />
    <glyph glyph-name="uni01CC" unicode="&#x1cc;" horiz-adv-x="765" 
d="M89 0v445q0 53 -1 80h21v-140q10 55 60 104.5t129 49.5q90 0 138 -53t48 -158v-328h-20v328q0 101 -46.5 146t-119.5 45q-88 0 -138.5 -66.5t-50.5 -151.5v-301h-20zM656 525h20v-598q0 -66 -21.5 -95t-70.5 -29q-7 0 -21 2v20q14 -2 21 -2q41 0 56.5 25.5t15.5 77.5v599
zM676 604h-20v111h20v-111z" />
    <glyph glyph-name="uni01F1" unicode="&#x1f1;" horiz-adv-x="1264" 
d="M106 0v715h146q142 0 229 -42q170 -83 170 -312q0 -187 -109 -279q-51 -43 -116.5 -62.5t-175.5 -19.5h-144zM126 695v-675h124q151 0 232 44q71 39 110 115t39 182q0 220 -168 298q-77 36 -211 36h-126zM724 0v17q10 12 29.5 40t44.5 64t38 53l273 385q37 50 96 136
h-474v20h499v-17q-18 -27 -108 -155l-259 -366l-116 -157h480v-20h-503z" />
    <glyph glyph-name="uni01F2" unicode="&#x1f2;" horiz-adv-x="1203" 
d="M106 0v715h146q142 0 229 -42q170 -83 170 -312q0 -187 -109 -279q-51 -43 -116.5 -62.5t-175.5 -19.5h-144zM126 695v-675h124q151 0 232 44q71 39 110 115t39 182q0 220 -168 298q-77 36 -211 36h-126zM744 0v18l266 329q36 44 126 158h-383v20h412v-18l-256 -319
l-140 -168h393v-20h-418z" />
    <glyph glyph-name="uni01F3" unicode="&#x1f3;" horiz-adv-x="1101" 
d="M518 715v-715h-20v47v62q0 26 1 40q-18 -70 -69 -116t-142 -46q-102 0 -168 74t-66 201q0 128 63.5 202.5t170.5 74.5q89 0 145 -55.5t66 -119.5q0 19 -0.5 102t-0.5 100v149h20zM288 7q101 0 155.5 66.5t55.5 189.5q0 114 -57 185t-153 71q-99 0 -157 -69t-58 -188
q0 -117 59.5 -186t154.5 -69zM642 0v18l266 329q36 44 126 158h-383v20h412v-18l-256 -319q-6 -7 -39.5 -47.5t-61.5 -74.5t-39 -46h393v-20h-418z" />
    <glyph glyph-name="Aringacute" unicode="&#x1fa;" horiz-adv-x="646" 
d="M28 0l285 715h23l280 -715h-21l-106 271h-333l-108 -271h-20zM325 694h-2q-11 -28 -61.5 -157t-69.5 -175l-28 -71h316l-31 81q-18 50 -61.5 161.5t-62.5 160.5zM324 760q-35 0 -58 24t-23 59q0 34 23.5 57.5t58.5 23.5t58.5 -23.5t23.5 -57.5q0 -35 -24 -59t-59 -24z
M259 843q0 -30 18 -49t47 -19t47.5 19t18.5 49q0 28 -18.5 47t-47.5 19t-47 -19t-18 -47zM434 1076l-131 -119h-24l126 119h29z" />
    <glyph glyph-name="aringacute" unicode="&#x1fb;" horiz-adv-x="537" 
d="M92 367h-20q0 73 54.5 122.5t141.5 49.5q92 0 140 -52.5t48 -168.5q0 -32 -0.5 -58t-0.5 -27v-105q0 -85 9 -128h-21q-4 15 -6 61t0 78h-1q-19 -65 -76 -108t-139 -43q-79 0 -125.5 38t-46.5 106q0 70 58.5 103.5t172.5 51.5q56 10 156 17v23q0 192 -169 192
q-79 0 -126 -42.5t-49 -109.5zM436 229q0 45 1 57q-130 -13 -184 -23q-91 -16 -137.5 -45t-46.5 -86q0 -55 40.5 -89.5t111.5 -34.5q90 0 152.5 58t62.5 163zM270 580q-35 0 -58 24t-23 59q0 34 23.5 57.5t58.5 23.5t58.5 -23.5t23.5 -57.5q0 -35 -24 -59t-59 -24zM205 663
q0 -30 18 -49t47 -19t47.5 19t18.5 49q0 28 -18.5 47t-47.5 19t-47 -19t-18 -47zM371 902l-131 -119h-24l126 119h29z" />
    <glyph glyph-name="AEacute" unicode="&#x1fc;" horiz-adv-x="869" 
d="M806 715v-20h-392l7 -317h361v-20h-361l6 -338h386v-20h-405l-4 250h-252l-134 -250h-22l389 715h421zM404 270l-3 185q-4 127 -4 242h-3q-20 -42 -98 -184l-134 -243h242zM680 877l-128 -116h-24l123 116h29z" />
    <glyph glyph-name="aeacute" unicode="&#x1fd;" horiz-adv-x="954" 
d="M906 276h-450v-14q0 -115 58.5 -185t159.5 -70q150 0 202 142l21 -1q-25 -74 -81 -117.5t-142 -43.5t-146 48t-79 135q-20 -88 -82 -135t-146 -47q-79 0 -125.5 38t-46.5 106q0 28 10 51t32 39t43.5 28t58 19.5t60.5 12.5t66.5 7.5t61 3.5t57.5 2v32q0 192 -169 192
q-80 0 -127.5 -43t-49.5 -109h-20q0 73 55.5 122.5t142.5 49.5q83 0 131 -45.5t53 -138.5q17 82 76.5 133t147.5 51q108 0 166 -71.5t62 -191.5zM678 519q-94 0 -153.5 -61.5t-67.5 -161.5h428q-9 104 -60 163.5t-147 59.5zM438 229q0 34 1 46q-145 -5 -196 -14
q-174 -28 -174 -129q0 -55 40.5 -89.5t111.5 -34.5q91 0 154 58t63 163zM581 715l-131 -119h-24l126 119h29z" />
    <glyph glyph-name="Oslashacute" unicode="&#x1fe;" horiz-adv-x="804" 
d="M402 729q104 0 181 -47l49 85l15 -10l-48 -85q71 -49 110.5 -129.5t39.5 -184.5q0 -166 -95.5 -269t-251.5 -103q-98 0 -172 41l-55 -97l-15 8l55 97q-76 48 -118 131t-42 192q0 166 96 268.5t251 102.5zM75 358q0 -103 39.5 -181.5t110.5 -123.5l348 611q-73 45 -171 45
q-146 0 -236.5 -96t-90.5 -255zM402 6q145 0 236 97t91 255q0 202 -140 297l-348 -610q73 -39 161 -39zM530 877l-128 -116h-24l123 116h29z" />
    <glyph glyph-name="oslashacute" unicode="&#x1ff;" horiz-adv-x="602" 
d="M421 715l-131 -119h-24l126 119h29zM301 539q81 0 140 -41l43 76l16 -9l-45 -78q94 -77 94 -225q0 -123 -65 -199t-183 -76q-64 0 -116 25l-42 -75l-15 9l42 74q-57 33 -87 96t-30 146q0 123 67.5 200t180.5 77zM73 262q0 -157 107 -224l251 443q-55 38 -130 38
q-107 0 -167.5 -71.5t-60.5 -185.5zM301 7q106 0 167 70t61 185q0 137 -83 208l-251 -441q43 -22 106 -22z" />
    <glyph glyph-name="uni0218" unicode="&#x218;" horiz-adv-x="604" 
d="M47 203h20q18 -98 75 -147.5t160 -49.5q105 0 166.5 48t61.5 124q0 31 -12 56t-28 41t-46 31.5t-51.5 23.5t-59.5 20l-62 21q-113 39 -156.5 76t-43.5 111q0 77 61 124t167 47q107 0 168 -51.5t70 -147.5h-20q-25 179 -218 179q-98 0 -153 -40.5t-55 -110.5q0 -63 42 -98
t145 -71l66 -22q45 -16 70 -26t55 -26.5t45 -34t25.5 -43.5t10.5 -59q0 -85 -69 -138.5t-179 -53.5q-222 0 -255 217zM216 -163l80 115h22l-77 -115h-25z" />
    <glyph glyph-name="uni0219" unicode="&#x219;" horiz-adv-x="494" 
d="M44 141h20q32 -134 182 -134q86 0 131.5 34.5t45.5 93.5q0 46 -37 72.5t-115 47.5l-49 14q-85 24 -120 52.5t-35 87.5t49 94.5t130 35.5q79 0 128.5 -35.5t60.5 -98.5h-20q-13 52 -56 83t-113 31q-76 0 -117 -29.5t-42 -80.5q0 -48 32 -72.5t116 -50.5l49 -14
q82 -22 120.5 -50.5t38.5 -86.5q0 -68 -54 -108t-143 -40q-172 0 -202 154zM175 -163l80 115h22l-77 -115h-25z" />
    <glyph glyph-name="uni021A" unicode="&#x21a;" horiz-adv-x="529" 
d="M255 0v695h-233v20h485v-20h-232v-695h-20zM192 -163l80 115h22l-77 -115h-25z" />
    <glyph glyph-name="uni021B" unicode="&#x21b;" horiz-adv-x="239" 
d="M212 15v-20q-14 -2 -22 -2q-55 0 -73 30t-18 96v386h-69v20h69v142h20v-142h93v-20h-93v-386q0 -61 16 -83.5t55 -22.5q8 0 22 2zM96 -163l80 115h22l-77 -115h-25z" />
    <glyph glyph-name="uni021D" unicode="&#x21d;" horiz-adv-x="533" 
d="M36 8h20q12 -94 62 -142t147 -48q95 0 151.5 56.5t56.5 137.5q0 89 -67 133.5t-168 44.5h-16v20q99 0 159 41.5t60 119.5q0 68 -45 109t-128 41q-84 0 -132.5 -42t-53.5 -118h-20q5 84 59 132t147 48q91 0 142 -45.5t51 -122.5q0 -70 -44.5 -114t-118.5 -56v-2
q83 -9 139 -56t56 -133q0 -95 -65.5 -154.5t-162.5 -59.5q-103 0 -162 53t-67 157z" />
    <glyph glyph-name="uni0226" unicode="&#x226;" horiz-adv-x="646" 
d="M28 0l285 715h23l280 -715h-21l-106 271h-333l-108 -271h-20zM325 694h-2q-11 -28 -61.5 -157t-69.5 -175l-28 -71h316l-31 81q-18 50 -61.5 161.5t-62.5 160.5zM314 769v80h20v-80h-20z" />
    <glyph glyph-name="uni0227" unicode="&#x227;" horiz-adv-x="537" 
d="M92 367h-20q0 73 54.5 122.5t141.5 49.5q92 0 140 -52.5t48 -168.5q0 -32 -0.5 -58t-0.5 -27v-105q0 -85 9 -128h-21q-4 15 -6 61t0 78h-1q-19 -65 -76 -108t-139 -43q-79 0 -125.5 38t-46.5 106q0 70 58.5 103.5t172.5 51.5q56 10 156 17v23q0 192 -169 192
q-79 0 -126 -42.5t-49 -109.5zM436 229q0 45 1 57q-130 -13 -184 -23q-91 -16 -137.5 -45t-46.5 -86q0 -55 40.5 -89.5t111.5 -34.5q90 0 152.5 58t62.5 163zM262 616v80h20v-80h-20z" />
    <glyph glyph-name="uni0232" unicode="&#x232;" horiz-adv-x="598" 
d="M288 0v272l-260 443h23q61 -103 248 -422q120 193 254 422h22l-267 -443v-272h-20zM176 798v17h244v-17h-244z" />
    <glyph glyph-name="uni0233" unicode="&#x233;" horiz-adv-x="492" 
d="M188 -180h-21l68 179q-35 95 -110.5 289t-92.5 237h23l117 -298q56 -149 74 -202h2q28 83 80 212l109 288h22q-15 -40 -54 -142t-103.5 -268.5t-113.5 -294.5zM132 652v17h244v-17h-244z" />
    <glyph glyph-name="dotlessj" unicode="&#x237;" horiz-adv-x="198" 
d="M89 525h20v-598q0 -66 -21.5 -95t-70.5 -29q-7 0 -21 2v20q14 -2 21 -2q41 0 56.5 25.5t15.5 77.5v599z" />
    <glyph glyph-name="uni0254" unicode="&#x254;" horiz-adv-x="581" 
d="M48 172h21q45 -165 213 -165q108 0 167 71t59 186q0 116 -60 185.5t-166 69.5q-84 0 -138.5 -41.5t-75.5 -118.5h-20q22 84 81 132t153 48q119 0 182.5 -75.5t63.5 -199.5q0 -123 -66.5 -200t-179.5 -77q-188 0 -234 185z" />
    <glyph glyph-name="uni0259" unicode="&#x259;" horiz-adv-x="580" 
d="M47 249h460v14q0 116 -59 185.5t-163 69.5q-77 0 -130.5 -37.5t-77.5 -104.5l-21 1q25 73 83.5 117t145.5 44q115 0 178.5 -76t63.5 -199t-67.5 -200t-178.5 -77q-109 0 -169.5 71.5t-64.5 191.5zM281 6q97 0 157 61.5t68 161.5h-438q9 -104 62 -163.5t151 -59.5z" />
    <glyph glyph-name="uni025B" unicode="&#x25b;" horiz-adv-x="533" 
d="M478 8h20q-8 -104 -67 -157t-162 -53q-97 0 -162.5 59.5t-65.5 154.5q0 86 56 133t139 56v2q-74 12 -118.5 56t-44.5 114q0 77 51 122.5t142 45.5q93 0 147 -48t59 -132h-20q-5 76 -53.5 118t-132.5 42q-83 0 -128 -41t-45 -109q0 -78 60 -119.5t159 -41.5v-20h-16
q-101 0 -168 -44.5t-67 -133.5q0 -81 56.5 -137.5t151.5 -56.5q97 0 147 48t62 142z" />
    <glyph glyph-name="uni0272" unicode="&#x272;" horiz-adv-x="567" 
d="M89 -74v519q0 53 -1 80h21v-140q10 55 60 104.5t129 49.5q90 0 138 -53t48 -158v-328h-20v328q0 101 -46.5 146t-119.5 45q-88 0 -138.5 -66.5t-50.5 -151.5v-374q0 -66 -21.5 -95t-70.5 -29q-7 0 -21 2v20q14 -2 21 -2q41 0 56.5 25.5t15.5 77.5z" />
    <glyph glyph-name="uni0275" unicode="&#x275;" horiz-adv-x="602" 
d="M301 539q113 0 180.5 -77t67.5 -200t-65 -199t-183 -76t-183 76t-65 199t67.5 200t180.5 77zM301 7q105 0 165.5 68.5t62.5 182.5h-456q0 -114 61.5 -182.5t166.5 -68.5zM301 519q-103 0 -163.5 -66.5t-64.5 -174.5h456q-4 108 -64.5 174.5t-163.5 66.5z" />
    <glyph glyph-name="apostrophemod" unicode="&#x2bc;" horiz-adv-x="135" 
d="M115 715l-79 -232h-20l77 232h22z" />
    <glyph glyph-name="circumflex" unicode="&#x2c6;" horiz-adv-x="503" 
d="M249 715h16q88 -107 99 -119h-22l-85 101l-85 -101h-22q11 12 99 119z" />
    <glyph glyph-name="caron" unicode="&#x2c7;" horiz-adv-x="502" 
d="M265 596h-16q-88 107 -99 119h22l85 -101l85 101h22q-11 -12 -99 -119z" />
    <glyph glyph-name="breve" unicode="&#x2d8;" horiz-adv-x="465" 
d="M241 635q81 0 101 80h17q-18 -96 -118 -96t-118 96h17q20 -80 101 -80z" />
    <glyph glyph-name="dotaccent" unicode="&#x2d9;" horiz-adv-x="328" 
d="M153 616v80h20v-80h-20z" />
    <glyph glyph-name="ring" unicode="&#x2da;" horiz-adv-x="405" 
d="M240 594q-35 0 -58 24t-23 59q0 34 23.5 57.5t58.5 23.5t58.5 -23.5t23.5 -57.5q0 -35 -24 -59t-59 -24zM175 677q0 -30 18 -49t47 -19t47.5 19t18.5 49q0 28 -18.5 47t-47.5 19t-47 -19t-18 -47z" />
    <glyph glyph-name="ogonek" unicode="&#x2db;" horiz-adv-x="331" 
d="M133 -48l80 -115h-25l-77 115h22z" />
    <glyph glyph-name="tilde" unicode="&#x2dc;" horiz-adv-x="317" 
d="M162 647l-28 14q-44 19 -57 19q-33 0 -46 -58h-17q13 75 64 75q18 0 64 -22l27 -13q36 -19 55 -19q35 0 48 59h17q-13 -76 -66 -76q-21 0 -61 21z" />
    <glyph glyph-name="hungarumlaut" unicode="&#x2dd;" horiz-adv-x="612" 
d="M333 715l-131 -119h-23l126 119h28zM492 715l-131 -119h-23l126 119h28z" />
    <glyph glyph-name="uni032C" unicode="&#x32c;" horiz-adv-x="503" 
d="M244 -48h16q88 -107 99 -119h-22l-85 101l-85 -101h-22q11 12 99 119z" />
    <glyph glyph-name="uni0394" unicode="&#x394;" horiz-adv-x="678" 
d="M330 715h21l309 -715h-641zM340 693l-292 -673h582z" />
    <glyph glyph-name="uni03A9" unicode="&#x3a9;" horiz-adv-x="804" 
d="M402 709q-152 0 -238 -93t-86 -230q0 -224 229 -369v-17h-251v20h126q12 0 34 -0.5t31 -0.5q11 -1 31 -1q-98 56 -159 150.5t-61 217.5q0 143 92 243t252 100t252 -100t92 -243q0 -123 -61 -217.5t-159 -150.5q20 0 31 1q9 0 31 0.5t34 0.5h126v-20h-251v17
q229 144 229 369q0 137 -86 230t-238 93z" />
    <glyph glyph-name="uni03BC" unicode="&#x3bc;" horiz-adv-x="545" 
d="M109 -180h-20v705h20v-331q0 -188 155 -188q73 0 122.5 56t49.5 130v333h20v-445q0 -53 1 -80h-21v116q-17 -56 -64.5 -93t-107.5 -37q-126 0 -155 97v-263z" />
    <glyph glyph-name="pi" unicode="&#x3c0;" horiz-adv-x="590" 
d="M558 505h-103v-386q0 -61 16 -83.5t55 -22.5q8 0 22 2v-20q-14 -2 -22 -2q-55 0 -73 30t-18 96v386h-296v-505h-20v505h-108v20h547v-20z" />
    <glyph glyph-name="Wgrave" unicode="&#x1e80;" horiz-adv-x="783" 
d="M736 715l-159 -715h-27l-90 406q-10 45 -32.5 146t-31.5 146h-2q-7 -34 -74 -321l-89 -377h-27l-155 715h20l97 -446q7 -36 25 -121.5t26 -131.5h2q12 64 55 251l106 448h30l100 -440q36 -159 52 -254h2q18 87 55 257l97 437h20zM408 761l-128 116h29l123 -116h-24z" />
    <glyph glyph-name="wgrave" unicode="&#x1e81;" horiz-adv-x="783" 
d="M566 0h-29q-21 69 -79.5 282.5t-60.5 220.5h-2q-16 -51 -75 -246.5t-78 -256.5h-29q-44 126 -175 525h22l101 -301q18 -60 66 -204h2l62 216l89 289h32l82 -289q11 -42 30 -111t28 -105h2l24 72q7 19 22 65t23 67l104 301h22q-152 -441 -183 -525zM429 596l-131 119h29
l126 -119h-24z" />
    <glyph glyph-name="Wacute" unicode="&#x1e82;" horiz-adv-x="783" 
d="M736 715l-159 -715h-27l-90 406q-10 45 -32.5 146t-31.5 146h-2q-7 -34 -74 -321l-89 -377h-27l-155 715h20l97 -446q7 -36 25 -121.5t26 -131.5h2q12 64 55 251l106 448h30l100 -440q36 -159 52 -254h2q18 87 55 257l97 437h20zM494 877l-128 -116h-24l123 116h29z" />
    <glyph glyph-name="wacute" unicode="&#x1e83;" horiz-adv-x="783" 
d="M566 0h-29q-21 69 -79.5 282.5t-60.5 220.5h-2q-16 -51 -75 -246.5t-78 -256.5h-29q-44 126 -175 525h22l101 -301q18 -60 66 -204h2l62 216l89 289h32l82 -289q11 -42 30 -111t28 -105h2l24 72q7 19 22 65t23 67l104 301h22q-152 -441 -183 -525zM510 715l-131 -119h-24
l126 119h29z" />
    <glyph glyph-name="Wdieresis" unicode="&#x1e84;" horiz-adv-x="783" 
d="M736 715l-159 -715h-27l-90 406q-10 45 -32.5 146t-31.5 146h-2q-7 -34 -74 -321l-89 -377h-27l-155 715h20l97 -446q7 -36 25 -121.5t26 -131.5h2q12 64 55 251l106 448h30l100 -440q36 -159 52 -254h2q18 87 55 257l97 437h20zM335 766v80h20v-80h-20zM438 766v80h20
v-80h-20z" />
    <glyph glyph-name="wdieresis" unicode="&#x1e85;" horiz-adv-x="783" 
d="M566 0h-29q-21 69 -79.5 282.5t-60.5 220.5h-2q-16 -51 -75 -246.5t-78 -256.5h-29q-44 126 -175 525h22l101 -301q18 -60 66 -204h2l62 216l89 289h32l82 -289q11 -42 30 -111t28 -105h2l24 72q7 19 22 65t23 67l104 301h22q-152 -441 -183 -525zM335 616v80h20v-80h-20
zM438 616v80h20v-80h-20z" />
    <glyph glyph-name="uni1EA0" unicode="&#x1ea0;" horiz-adv-x="646" 
d="M28 0l285 715h23l280 -715h-21l-106 271h-333l-108 -271h-20zM325 694h-2q-11 -28 -61.5 -157t-69.5 -175l-28 -71h316l-31 81q-18 50 -61.5 161.5t-62.5 160.5zM315 -145v80h20v-80h-20z" />
    <glyph glyph-name="uni1EA1" unicode="&#x1ea1;" horiz-adv-x="537" 
d="M92 367h-20q0 73 54.5 122.5t141.5 49.5q92 0 140 -52.5t48 -168.5q0 -32 -0.5 -58t-0.5 -27v-105q0 -85 9 -128h-21q-4 15 -6 61t0 78h-1q-19 -65 -76 -108t-139 -43q-79 0 -125.5 38t-46.5 106q0 70 58.5 103.5t172.5 51.5q56 10 156 17v23q0 192 -169 192
q-79 0 -126 -42.5t-49 -109.5zM436 229q0 45 1 57q-130 -13 -184 -23q-91 -16 -137.5 -45t-46.5 -86q0 -55 40.5 -89.5t111.5 -34.5q90 0 152.5 58t62.5 163zM262 -145v80h20v-80h-20z" />
    <glyph glyph-name="uni1EB8" unicode="&#x1eb8;" horiz-adv-x="600" 
d="M106 0v715h431v-20h-411v-317h387v-20h-387v-338h418v-20h-438zM317 -145v80h20v-80h-20z" />
    <glyph glyph-name="uni1EB9" unicode="&#x1eb9;" horiz-adv-x="580" 
d="M533 276h-460v-14q0 -116 59 -185.5t163 -69.5q77 0 130.5 37.5t77.5 104.5l21 -1q-25 -73 -83.5 -117t-145.5 -44q-115 0 -178.5 76t-63.5 199t67.5 200t178.5 77q109 0 169.5 -71.5t64.5 -191.5zM299 519q-97 0 -157 -61.5t-68 -161.5h438q-9 104 -62 163.5t-151 59.5z
M284 -145v80h20v-80h-20z" />
    <glyph glyph-name="uni1ECA" unicode="&#x1eca;" horiz-adv-x="232" 
d="M106 715h20v-715h-20v715zM107 -145v80h20v-80h-20z" />
    <glyph glyph-name="uni1ECB" unicode="&#x1ecb;" horiz-adv-x="198" 
d="M89 525h20v-525h-20v525zM109 604h-20v111h20v-111zM90 -145v80h20v-80h-20z" />
    <glyph glyph-name="uni1ECC" unicode="&#x1ecc;" horiz-adv-x="804" 
d="M402 729q154 0 250.5 -103t96.5 -268q0 -166 -95.5 -269t-251.5 -103t-251.5 103t-95.5 269t96 268.5t251 102.5zM402 6q145 0 236 97t91 255q0 159 -90.5 255t-236.5 96t-236.5 -96t-90.5 -255q0 -158 91 -255t236 -97zM389 -145v80h20v-80h-20z" />
    <glyph glyph-name="uni1ECD" unicode="&#x1ecd;" horiz-adv-x="602" 
d="M301 7q106 0 167 70t61 185q0 114 -60.5 185.5t-167.5 71.5t-167.5 -71.5t-60.5 -185.5q0 -115 61 -185t167 -70zM301 539q113 0 180.5 -77t67.5 -200t-65 -199t-183 -76t-183 76t-65 199t67.5 200t180.5 77zM288 -145v80h20v-80h-20z" />
    <glyph glyph-name="uni1EE4" unicode="&#x1ee4;" horiz-adv-x="682" 
d="M341 6q151 0 199 103q24 53 24 140v466h20v-466q0 -95 -26 -150q-53 -113 -217 -113t-217 113q-26 55 -26 150v466h20v-466q0 -88 24 -140q48 -103 199 -103zM329 -145v80h20v-80h-20z" />
    <glyph glyph-name="uni1EE5" unicode="&#x1ee5;" horiz-adv-x="562" 
d="M473 525v-445q0 -53 1 -80h-21v142q-9 -56 -58 -106t-128 -50q-90 0 -137 53t-47 158v328h20v-328q0 -101 45 -146t119 -45q88 0 137 66.5t49 151.5v301h20zM274 -145v80h20v-80h-20z" />
    <glyph glyph-name="Ygrave" unicode="&#x1ef2;" horiz-adv-x="598" 
d="M288 0v272l-260 443h23q61 -103 248 -422q120 193 254 422h22l-267 -443v-272h-20zM328 761l-128 116h29l123 -116h-24z" />
    <glyph glyph-name="ygrave" unicode="&#x1ef3;" horiz-adv-x="492" 
d="M188 -180h-21l68 179q-35 95 -110.5 289t-92.5 237h23l117 -298q56 -149 74 -202h2q28 83 80 212l109 288h22q-15 -40 -54 -142t-103.5 -268.5t-113.5 -294.5zM275 596l-131 119h29l126 -119h-24z" />
    <glyph glyph-name="enspace" unicode="&#x2002;" horiz-adv-x="500" 
 />
    <glyph glyph-name="emspace" unicode="&#x2003;" horiz-adv-x="1000" 
 />
    <glyph glyph-name="threeperemspace" unicode="&#x2004;" horiz-adv-x="0" 
 />
    <glyph glyph-name="fourperemspace" unicode="&#x2005;" horiz-adv-x="250" 
 />
    <glyph glyph-name="thinspace" unicode="&#x2009;" horiz-adv-x="133" 
 />
    <glyph glyph-name="hairspace" unicode="&#x200a;" horiz-adv-x="75" 
 />
    <glyph glyph-name="endash" unicode="&#x2013;" horiz-adv-x="618" 
d="M71 293v20h476v-20h-476z" />
    <glyph glyph-name="emdash" unicode="&#x2014;" horiz-adv-x="983" 
d="M71 293v20h841v-20h-841z" />
    <glyph glyph-name="quoteleft" unicode="&#x2018;" horiz-adv-x="213" 
d="M66 483l79 232h20l-77 -232h-22z" />
    <glyph glyph-name="quoteright" unicode="&#x2019;" horiz-adv-x="213" 
d="M166 715l-79 -232h-20l77 232h22z" />
    <glyph glyph-name="quotesinglbase" unicode="&#x201a;" horiz-adv-x="211" 
d="M128 111l-79 -232h-20l77 232h22z" />
    <glyph glyph-name="quotedblleft" unicode="&#x201c;" horiz-adv-x="358" 
d="M211 483l79 232h20l-77 -232h-22zM66 483l79 232h20l-77 -232h-22z" />
    <glyph glyph-name="quotedblright" unicode="&#x201d;" horiz-adv-x="358" 
d="M166 715l-79 -232h-20l77 232h22zM311 715l-79 -232h-20l77 232h22z" />
    <glyph glyph-name="quotedblbase" unicode="&#x201e;" horiz-adv-x="356" 
d="M128 111l-79 -232h-20l77 232h22zM273 111l-79 -232h-20l77 232h22z" />
    <glyph glyph-name="dagger" unicode="&#x2020;" horiz-adv-x="508" 
d="M38 491v20h203v204h20v-204h209v-20h-209v-560h-20v560h-203z" />
    <glyph glyph-name="daggerdbl" unicode="&#x2021;" horiz-adv-x="561" 
d="M64 491v20h203v204h20v-204h209v-20h-209v-233h209v-20h-209v-307h-20v307h-203v20h203v233h-203z" />
    <glyph glyph-name="bullet" unicode="&#x2022;" horiz-adv-x="305" 
d="M153 281q-23 0 -38.5 15t-15.5 38q0 22 15.5 37t38.5 15q22 0 37.5 -15t15.5 -37q0 -23 -15.5 -38t-37.5 -15z" />
    <glyph glyph-name="ellipsis" unicode="&#x2026;" horiz-adv-x="841" 
d="M408 0v111h20v-111h-20zM76 0v111h20v-111h-20zM745 0v111h20v-111h-20z" />
    <glyph glyph-name="perthousand" unicode="&#x2030;" horiz-adv-x="1284" 
d="M196 332q-75 0 -115.5 53.5t-40.5 143.5q0 94 39 145t116 51t116.5 -50.5t39.5 -145.5q0 -89 -39.5 -143t-115.5 -54zM58 529q0 -79 35.5 -130t101.5 -51q67 0 102.5 50.5t35.5 130.5q0 84 -34 132t-104 48q-71 0 -104 -48.5t-33 -131.5zM286 0l275 715h19l-275 -715h-19
zM670 -17q-75 0 -115.5 53.5t-40.5 143.5q0 94 39 145t116 51t116.5 -50.5t39.5 -145.5q0 -89 -39.5 -143t-115.5 -54zM532 180q0 -79 35.5 -130t101.5 -51q67 0 102.5 50.5t35.5 130.5q0 84 -34 132t-104 48q-71 0 -104 -48.5t-33 -131.5zM1089 -17q-75 0 -115.5 53.5
t-40.5 143.5q0 94 39 145t116 51t116.5 -50.5t39.5 -145.5q0 -89 -39.5 -143t-115.5 -54zM951 180q0 -79 35.5 -130t101.5 -51q67 0 102.5 50.5t35.5 130.5q0 84 -34 132t-104 48q-71 0 -104 -48.5t-33 -131.5z" />
    <glyph glyph-name="guilsinglleft" unicode="&#x2039;" horiz-adv-x="265" 
d="M195 473l-106 -187l106 -188h-20l-110 188l110 187h20z" />
    <glyph glyph-name="guilsinglright" unicode="&#x203a;" horiz-adv-x="265" 
d="M176 286l-106 187h20l110 -187l-110 -188h-20z" />
    <glyph glyph-name="fraction" unicode="&#x2044;" horiz-adv-x="324" 
d="M8 -105l289 820h20l-289 -820h-20z" />
    <glyph glyph-name="Euro" unicode="&#x20ac;" 
d="M17 425l5 20h56q5 62 19 110t40 88.5t70 62.5t104 22q182 0 220 -227l-20 -1q-19 101 -65.5 154.5t-134.5 53.5q-191 0 -213 -263h321l-5 -20h-317q-2 -15 -2 -69q0 -43 1 -63h287l-5 -20h-280q10 -131 61 -199t152 -68q88 0 135 51t65 156h21q-35 -227 -221 -227
q-116 0 -170 75.5t-63 211.5h-66l5 20h59q-1 20 -1 63q0 54 2 69h-60z" />
    <glyph glyph-name="trademark" unicode="&#x2122;" horiz-adv-x="863" 
d="M622 300h-22q-77 209 -134 395h-3q0 -29 1 -125t1 -132v-138h-19v415h30q17 -51 73.5 -214.5t62.5 -186.5q3 9 59.5 176.5t73.5 224.5h31v-415h-19v210q0 27 0.5 97.5t0.5 89.5h-3q-35 -123 -133 -397zM328 715v-19h-125v-396h-19v396h-126v19h270z" />
    <glyph glyph-name="Omega" unicode="&#x2126;" horiz-adv-x="804" 
d="M402 709q-152 0 -238 -93t-86 -230q0 -224 229 -369v-17h-251v20h126q12 0 34 -0.5t31 -0.5q11 -1 31 -1q-98 56 -159 150.5t-61 217.5q0 143 92 243t252 100t252 -100t92 -243q0 -123 -61 -217.5t-159 -150.5q20 0 31 1q9 0 31 0.5t34 0.5h126v-20h-251v17
q229 144 229 369q0 137 -86 230t-238 93z" />
    <glyph glyph-name="onethird" unicode="&#x2153;" horiz-adv-x="768" 
d="M184 0l275 715h19l-275 -715h-19zM142 631h-105v13h21q53 0 71 15t20 56h11v-424h-18v340zM482 333h-18q6 48 37 77.5t85 29.5q53 0 83.5 -28t30.5 -73q0 -38 -22 -65.5t-65 -36.5v-2q51 -7 79.5 -37t28.5 -77q0 -57 -37 -92t-99 -35q-119 0 -137 120h18
q17 -103 119 -103q55 0 86.5 31t31.5 78q0 51 -37 78.5t-91 27.5h-20v15q59 0 93.5 25.5t34.5 72.5q0 40 -28 62t-71 22q-90 0 -102 -90z" />
    <glyph glyph-name="twothirds" unicode="&#x2154;" horiz-adv-x="873" 
d="M291 0l275 715h19l-275 -715h-19zM589 333h-18q6 48 37 77.5t85 29.5q53 0 83.5 -28t30.5 -73q0 -38 -22 -65.5t-65 -36.5v-2q51 -7 79.5 -37t28.5 -77q0 -57 -37 -92t-99 -35q-119 0 -137 120h18q17 -103 119 -103q55 0 86.5 31t31.5 78q0 51 -37 78.5t-91 27.5h-20v15
q59 0 93.5 25.5t34.5 72.5q0 40 -28 62t-71 22q-90 0 -102 -90zM326 284h-268v17l48 42l88 77q60 53 87.5 96.5t27.5 87.5q0 50 -30 76.5t-80 26.5q-105 0 -117 -115h-18q4 59 39.5 96t95.5 37t94 -32.5t34 -87.5q0 -58 -35 -105t-106 -108q-7 -6 -25.5 -22.5t-38.5 -33.5
t-43 -34h247v-18z" />
    <glyph glyph-name="oneeighth" unicode="&#x215b;" horiz-adv-x="780" 
d="M589 10q59 0 92.5 29.5t33.5 76.5q0 48 -35 78t-91 30t-91 -30t-35 -78q0 -47 33.5 -76.5t92.5 -29.5zM589 239q45 0 77 27.5t32 68.5q0 40 -29 65t-80 25t-80 -25t-29 -65q0 -41 32 -68.5t77 -27.5zM589 441q58 0 92 -30.5t34 -75.5q0 -80 -85 -103q45 -9 73.5 -40
t28.5 -77q0 -54 -37.5 -87.5t-105.5 -33.5t-105.5 33.5t-37.5 87.5q0 46 28.5 77t73.5 40q-85 23 -85 103q0 45 34 75.5t92 30.5zM184 0l275 715h19l-275 -715h-19zM142 631h-105v13h21q53 0 71 15t20 56h11v-424h-18v340z" />
    <glyph glyph-name="threeeighths" unicode="&#x215c;" horiz-adv-x="887" 
d="M698 10q59 0 92.5 29.5t33.5 76.5q0 48 -35 78t-91 30t-91 -30t-35 -78q0 -47 33.5 -76.5t92.5 -29.5zM698 239q45 0 77 27.5t32 68.5q0 40 -29 65t-80 25t-80 -25t-29 -65q0 -41 32 -68.5t77 -27.5zM698 441q58 0 92 -30.5t34 -75.5q0 -80 -85 -103q45 -9 73.5 -40
t28.5 -77q0 -54 -37.5 -87.5t-105.5 -33.5t-105.5 33.5t-37.5 87.5q0 46 28.5 77t73.5 40q-85 23 -85 103q0 45 34 75.5t92 30.5zM293 0l275 715h19l-275 -715h-19zM82 619h-18q6 48 37 77.5t85 29.5q53 0 83.5 -28t30.5 -73q0 -38 -22 -65.5t-65 -36.5v-2q51 -7 79.5 -37
t28.5 -77q0 -57 -37 -92t-99 -35q-119 0 -137 120h18q17 -103 119 -103q55 0 86.5 31t31.5 78q0 51 -37 78.5t-91 27.5h-20v15q59 0 93.5 25.5t34.5 72.5q0 40 -28 62t-71 22q-90 0 -102 -90z" />
    <glyph glyph-name="fiveeighths" unicode="&#x215d;" horiz-adv-x="868" 
d="M64 495l21 220h205v-18h-191l-18 -185q41 45 105 45q59 0 93.5 -35.5t34.5 -95.5q0 -64 -37.5 -103.5t-100.5 -39.5q-115 0 -134 115h18q7 -43 35 -71t81 -28q60 0 90.5 35t30.5 92q0 51 -30 82.5t-81 31.5q-37 0 -64 -14t-39 -35zM679 10q59 0 92.5 29.5t33.5 76.5
q0 48 -35 78t-91 30t-91 -30t-35 -78q0 -47 33.5 -76.5t92.5 -29.5zM679 239q45 0 77 27.5t32 68.5q0 40 -29 65t-80 25t-80 -25t-29 -65q0 -41 32 -68.5t77 -27.5zM679 441q58 0 92 -30.5t34 -75.5q0 -80 -85 -103q45 -9 73.5 -40t28.5 -77q0 -54 -37.5 -87.5t-105.5 -33.5
t-105.5 33.5t-37.5 87.5q0 46 28.5 77t73.5 40q-85 23 -85 103q0 45 34 75.5t92 30.5zM274 0l275 715h19l-275 -715h-19z" />
    <glyph glyph-name="seveneighths" unicode="&#x215e;" horiz-adv-x="793" 
d="M119 286h-21q6 17 95 211q9 19 44.5 97.5t47.5 103.5q-5 -1 -17 -1h-38h-193v18h264v-16l-29 -70q-128 -284 -153 -343zM602 10q59 0 92.5 29.5t33.5 76.5q0 48 -35 78t-91 30t-91 -30t-35 -78q0 -47 33.5 -76.5t92.5 -29.5zM602 239q45 0 77 27.5t32 68.5q0 40 -29 65
t-80 25t-80 -25t-29 -65q0 -41 32 -68.5t77 -27.5zM602 441q58 0 92 -30.5t34 -75.5q0 -80 -85 -103q45 -9 73.5 -40t28.5 -77q0 -54 -37.5 -87.5t-105.5 -33.5t-105.5 33.5t-37.5 87.5q0 46 28.5 77t73.5 40q-85 23 -85 103q0 45 34 75.5t92 30.5zM197 0l275 715h19
l-275 -715h-19z" />
    <glyph glyph-name="arrowleft" unicode="&#x2190;" horiz-adv-x="820" 
d="M777 315h-725q11 -11 172 -179q87 -91 128 -136h-26q-31 32 -147.5 155t-161.5 170q49 49 172 180t137 145h26q-67 -73 -128 -137q-26 -27 -66 -69t-66.5 -69.5t-39.5 -39.5h725v-20z" />
    <glyph glyph-name="arrowup" unicode="&#x2191;" horiz-adv-x="720" 
d="M350 0v712q-78 -78 -179 -172q-91 -87 -136 -128v26q28 27 152.5 144t172.5 165q50 -51 185 -177.5t140 -131.5v-26q-73 67 -137 128q-144 134 -178 172v-712h-20z" />
    <glyph glyph-name="arrowright" unicode="&#x2192;" horiz-adv-x="820" 
d="M767 315h-725v20h725q-38 34 -172 178q-61 64 -128 137h26q5 -5 131.5 -140t177.5 -185q-48 -48 -165 -172.5t-144 -152.5h-26q41 45 128 136q94 101 172 179z" />
    <glyph glyph-name="arrowdown" unicode="&#x2193;" horiz-adv-x="720" 
d="M350 3v712h20v-712q12 13 39.5 39.5t69.5 66.5t69 66q64 61 137 128v-26q-14 -14 -145 -137t-180 -172q-47 45 -170 161.5t-155 147.5v26q45 -41 136 -128q168 -161 179 -172z" />
    <glyph glyph-name="uni2196" unicode="&#x2196;" horiz-adv-x="750" 
d="M650 16l-503 504q0 -150 -3 -248l-4 -187l-18 18q0 49 3.5 218t3.5 231q275 0 448 5l19 -18l-188 -3q-56 0 -145 -1t-102 -1l503 -504z" />
    <glyph glyph-name="uni2197" unicode="&#x2197;" horiz-adv-x="750" 
d="M603 520l-503 -504l-14 14l503 504q-12 0 -101.5 1t-146.5 1l-187 3l19 18q173 -5 448 -5q0 -62 3.5 -231t3.5 -218l-18 -18l-4 187q-3 98 -3 248z" />
    <glyph glyph-name="uni2198" unicode="&#x2198;" horiz-adv-x="750" 
d="M76 547l512 -515q0 149 3 248l4 187l18 -18q0 -49 -3.5 -218.5t-3.5 -230.5q-344 0 -448 -3l-19 18l187 2q57 0 146.5 0.5t101.5 0.5l-512 515z" />
    <glyph glyph-name="uni2199" unicode="&#x2199;" horiz-adv-x="750" 
d="M161 32l512 515l14 -14l-512 -515q13 0 102 -0.5t145 -0.5l188 -2l-19 -18q-104 3 -448 3q0 61 -3.5 230.5t-3.5 218.5l18 18l4 -187q3 -99 3 -248z" />
    <glyph glyph-name="partialdiff" unicode="&#x2202;" horiz-adv-x="604" 
d="M217 715h40q135 -74 213.5 -188.5t78.5 -247.5q0 -144 -69 -218t-180 -74t-179 74.5t-68 200.5q0 128 68 202.5t180 74.5q82 0 128.5 -33.5t79.5 -89.5l2 1q-53 115 -125.5 181.5t-168.5 116.5zM301 7q106 0 167 70t61 185q0 114 -60.5 185.5t-167.5 71.5t-167.5 -71.5
t-60.5 -185.5q0 -115 61 -185t167 -70z" />
    <glyph glyph-name="Delta" unicode="&#x2206;" horiz-adv-x="699" 
d="M340 715h21l309 -715h-641zM350 693l-292 -673h582z" />
    <glyph glyph-name="product" unicode="&#x220f;" horiz-adv-x="818" 
d="M621 -113v808h-423v-808h-20v808h-144v20h750v-20h-143v-808h-20z" />
    <glyph glyph-name="summation" unicode="&#x2211;" horiz-adv-x="642" 
d="M38 -97l317 404l-313 390v18h533v-20h-505l311 -387l-316 -401h521v-20h-548v16z" />
    <glyph glyph-name="minus" unicode="&#x2212;" 
d="M59 312v20h442v-20h-442z" />
    <glyph glyph-name="uni2219" unicode="&#x2219;" horiz-adv-x="172" 
d="M76 261v111h20v-111h-20z" />
    <glyph glyph-name="radical" unicode="&#x221a;" 
d="M27 505v20h114l101 -280l80 -224h2q19 65 71 236l142 458h22l-223 -715h-26q-77 204 -184 505h-99z" />
    <glyph glyph-name="infinity" unicode="&#x221e;" horiz-adv-x="871" 
d="M438 345q12 11 47 47.5t55 54.5t52.5 36t62.5 18q67 0 109.5 -45.5t42.5 -120.5q0 -73 -39 -120.5t-110 -47.5q-15 0 -30.5 4t-27.5 8t-28.5 15.5t-25.5 18.5t-27.5 24.5t-25.5 24.5t-28 29.5t-28 29.5q-8 -8 -28 -29t-28 -29t-26 -25t-27.5 -24.5t-26 -18.5t-28.5 -15.5
t-28 -8.5t-31 -4q-71 0 -110 47t-39 120q0 75 42.5 121t109.5 46q21 0 43.5 -8.5t37.5 -16.5t40 -30t33.5 -30.5t36 -38t30.5 -32.5zM214 184q20 0 38.5 6t32 12.5t34.5 24.5t31.5 28.5t37 37.5t39.5 40l-18 19l-23 23l-23 23t-20.5 19.5t-22 19.5t-19.5 15.5t-21 14
t-19.5 9t-22 7t-21.5 1.5q-61 0 -96.5 -40.5t-35.5 -108.5q0 -70 33 -110.5t96 -40.5zM658 184q63 0 96 40.5t33 110.5q0 68 -35.5 108.5t-96.5 40.5q-15 0 -28 -2.5t-26.5 -10t-23.5 -13.5t-25.5 -21t-24 -23.5l-29 -29l-30.5 -30.5l-21 -21q9 -9 32.5 -34t32 -33.5
t27.5 -26.5t29.5 -24t27 -15.5t31 -12.5t31.5 -3z" />
    <glyph glyph-name="integral" unicode="&#x222b;" 
d="M333 521l-70 -466q-21 -139 -59 -193t-122 -54q-11 0 -25 2l2 18q5 -1 23 -1q77 0 108.5 49.5t50.5 176.5l66 443q19 129 53 177.5t118 48.5q14 0 25 -1l-2 -19q-9 1 -26 1q-66 0 -97 -40.5t-45 -141.5z" />
    <glyph glyph-name="approxequal" unicode="&#x2248;" 
d="M296 383l-63 30q-50 23 -79 23q-53 0 -98 -74l-15 11q51 83 114 83q35 0 99 -30l66 -32q44 -23 79 -23q38 0 61 20t46 58l16 -9q-50 -88 -123 -88q-37 0 -103 31zM294 153l-63 30q-50 23 -79 23q-53 0 -98 -74l-15 11q51 83 114 83q35 0 99 -30l66 -32q44 -23 79 -23
q38 0 61 20t46 58l16 -9q-50 -88 -123 -88q-37 0 -103 31z" />
    <glyph glyph-name="notequal" unicode="&#x2260;" 
d="M59 405v20h266l69 135h22l-69 -135h154v-20h-164l-84 -164h248v-20h-258l-72 -141h-22l72 141h-162v20h172l84 164h-256z" />
    <glyph glyph-name="lessequal" unicode="&#x2264;" 
d="M79 0v20h396v-20h-396zM79 332v24l396 210v-20l-380 -200v-3l380 -206v-20z" />
    <glyph glyph-name="greaterequal" unicode="&#x2265;" 
d="M480 20v-20h-396v20h396zM480 356v-24l-396 -215v20l380 206v3l-380 200v20z" />
    <glyph glyph-name="dotmath" unicode="&#x22c5;" horiz-adv-x="172" 
d="M76 261v111h20v-111h-20z" />
    <glyph glyph-name="lozenge" unicode="&#x25ca;" 
d="M288 0h-18l-235 356l235 359h18l238 -359zM504 356l-225 341l-222 -341l222 -339z" />
    <glyph glyph-name="commaaccent" unicode="&#xf6c3;" horiz-adv-x="369" 
d="M175 -163l80 115h22l-77 -115h-25z" />
    <glyph glyph-name="uniF8FF" unicode="&#xf8ff;" horiz-adv-x="207" 
d="M105 281q-23 0 -38.5 15t-15.5 38q0 22 15.5 37t38.5 15q22 0 37.5 -15t15.5 -37q0 -23 -15.5 -38t-37.5 -15z" />
    <glyph glyph-name="acute.caps" horiz-adv-x="427" 
d="M323 877l-128 -116h-24l123 116h29z" />
    <glyph glyph-name="grave.caps" horiz-adv-x="512" 
d="M308 761l-128 116h29l123 -116h-24z" />
    <glyph glyph-name="circumflex.caps" horiz-adv-x="503" 
d="M244 875h16q1 -1 99 -115h-22l-85 97l-85 -97h-22q98 114 99 115z" />
    <glyph glyph-name="caron.caps" horiz-adv-x="502" 
d="M260 760h-16q-1 1 -99 115h22l85 -97l85 97h22q-98 -114 -99 -115z" />
    <glyph glyph-name="tilde.caps" horiz-adv-x="470" 
d="M258 800l-28 14q-44 19 -57 19q-33 0 -46 -58h-17q13 75 64 75q18 0 64 -22l27 -13q36 -19 55 -19q35 0 48 59h17q-13 -76 -66 -76q-21 0 -61 21z" />
    <glyph glyph-name="macron.caps" horiz-adv-x="428" 
d="M123 798v17h244v-17h-244z" />
    <glyph glyph-name="breve.caps" horiz-adv-x="465" 
d="M249 799q81 0 101 80h17q-18 -96 -118 -96t-118 96h17q20 -80 101 -80z" />
    <glyph glyph-name="dotaccent.caps" horiz-adv-x="328" 
d="M152 769v80h20v-80h-20z" />
    <glyph glyph-name="ring.caps" horiz-adv-x="405" 
d="M246 754q-35 0 -58 24t-23 59q0 34 23.5 57.5t58.5 23.5t58.5 -23.5t23.5 -57.5q0 -35 -24 -59t-59 -24zM181 837q0 -30 18 -49t47 -19t47.5 19t18.5 49q0 28 -18.5 47t-47.5 19t-47 -19t-18 -47z" />
    <glyph glyph-name="cedilla.caps" horiz-adv-x="369" 
d="M174 -163l80 115h22l-77 -115h-25z" />
    <glyph glyph-name="ogonek.caps" horiz-adv-x="331" 
d="M133 -48l80 -115h-25l-77 115h22z" />
    <glyph glyph-name="hungarumlaut.caps" horiz-adv-x="612" 
d="M335 877l-128 -116h-24l123 116h29zM504 877l-128 -116h-24l123 116h29z" />
    <glyph glyph-name="dieresis.caps" horiz-adv-x="491" 
d="M200 766v80h20v-80h-20zM303 766v80h20v-80h-20z" />
    <glyph glyph-name="horn" horiz-adv-x="264" 
d="M169 715l-68 -191h-20l66 191h22z" />
    <glyph glyph-name="Gtilde" horiz-adv-x="790" 
d="M701 207q-24 -93 -101 -157t-195 -64q-158 0 -254 102.5t-96 268.5q0 165 96.5 268.5t252.5 103.5q121 0 202 -60.5t117 -168.5h-20q-35 97 -111 153t-188 56q-146 0 -237.5 -98.5t-91.5 -252.5q0 -157 92.5 -254.5t237.5 -97.5q69 0 126.5 26t93 67.5t55 91t19.5 100.5
v29h-309v20h329v-340h-20v91q0 41 1 68q0 31 1 48zM422 800l-28 14q-44 19 -57 19q-33 0 -46 -58h-17q13 75 64 75q18 0 64 -22l27 -13q36 -19 55 -19q35 0 48 59h17q-13 -76 -66 -76q-21 0 -61 21z" />
    <glyph glyph-name="gtilde" horiz-adv-x="596" 
d="M284 -170q103 0 153 59.5t50 184.5q0 8 1 58t1 67q-11 -68 -66 -121t-142 -53q-104 0 -165 70.5t-61 183.5q0 116 62.5 188t163.5 72q87 0 139 -47.5t68 -117.5q-1 11 -1 32v46v73h20v-451q0 -264 -223 -264q-94 0 -146 48.5t-65 124.5h21q32 -153 190 -153zM281 45
q91 0 149.5 67t58.5 173q0 100 -56.5 167t-152.5 67q-94 0 -149.5 -69t-55.5 -171q0 -100 55 -167t151 -67zM305 647l-28 14q-44 19 -57 19q-33 0 -46 -58h-17q13 75 64 75q18 0 64 -22l27 -13q36 -19 55 -19q35 0 48 59h17q-13 -76 -66 -76q-21 0 -61 21z" />
    <glyph glyph-name="Mcircumflex" horiz-adv-x="792" 
d="M106 0v715h35l153 -427q10 -28 46.5 -131.5t48.5 -140.5h1q37 113 104 282l161 417h31v-715h-20v372q0 289 2 328h-1q-3 -10 -122 -320l-143 -380h-26l-172 480q-27 72 -78 222h-1q0 -24 0.5 -135t0.5 -166v-401h-20zM380 875h16q1 -1 99 -115h-22l-85 97l-85 -97h-22
q98 114 99 115z" />
    <glyph glyph-name="mcircumflex" horiz-adv-x="930" 
d="M89 0v445q0 53 -1 80h21v-140q10 55 59 104.5t127 49.5q156 0 179 -157h1q10 56 60.5 106.5t128.5 50.5q183 0 183 -211v-328h-20v328q0 101 -45 146t-118 45q-85 0 -135.5 -64.5t-50.5 -146.5v-308h-20v328q0 101 -45 146t-118 45q-87 0 -136.5 -66.5t-49.5 -151.5v-301
h-20zM460 715h16q88 -107 99 -119h-22l-85 101l-85 -101h-22q11 12 99 119z" />
    <glyph glyph-name="Mmacron" horiz-adv-x="792" 
d="M106 0v715h35l153 -427q10 -28 46.5 -131.5t48.5 -140.5h1q37 113 104 282l161 417h31v-715h-20v372q0 289 2 328h-1q-3 -10 -122 -320l-143 -380h-26l-172 480q-27 72 -78 222h-1q0 -24 0.5 -135t0.5 -166v-401h-20zM267 798v17h244v-17h-244z" />
    <glyph glyph-name="mmacron" horiz-adv-x="930" 
d="M89 0v445q0 53 -1 80h21v-140q10 55 59 104.5t127 49.5q156 0 179 -157h1q10 56 60.5 106.5t128.5 50.5q183 0 183 -211v-328h-20v328q0 101 -45 146t-118 45q-85 0 -135.5 -64.5t-50.5 -146.5v-308h-20v328q0 101 -45 146t-118 45q-87 0 -136.5 -66.5t-49.5 -151.5v-301
h-20zM347 652v17h244v-17h-244z" />
    <glyph glyph-name="Ncircumflex" horiz-adv-x="713" 
d="M106 715h32l283 -438q129 -196 166 -262h1q0 16 -0.5 126.5t-0.5 147.5v426h20v-715h-32l-276 430q-104 160 -174 270h-1q0 -17 1 -160.5t1 -178.5v-361h-20v715zM359 875h16q1 -1 99 -115h-22l-85 97l-85 -97h-22q98 114 99 115z" />
    <glyph glyph-name="ncircumflex" horiz-adv-x="567" 
d="M89 0v445q0 53 -1 80h21v-140q10 55 60 104.5t129 49.5q90 0 138 -53t48 -158v-328h-20v328q0 101 -46.5 146t-119.5 45q-88 0 -138.5 -66.5t-50.5 -151.5v-301h-20zM290 715h16q88 -107 99 -119h-22l-85 101l-85 -101h-22q11 12 99 119z" />
    <glyph glyph-name="Ndieresis" horiz-adv-x="713" 
d="M106 715h32l283 -438q129 -196 166 -262h1q0 16 -0.5 126.5t-0.5 147.5v426h20v-715h-32l-276 430q-104 160 -174 270h-1q0 -17 1 -160.5t1 -178.5v-361h-20v715zM296 766v80h20v-80h-20zM399 766v80h20v-80h-20z" />
    <glyph glyph-name="ndieresis" horiz-adv-x="567" 
d="M89 0v445q0 53 -1 80h21v-140q10 55 60 104.5t129 49.5q90 0 138 -53t48 -158v-328h-20v328q0 101 -46.5 146t-119.5 45q-88 0 -138.5 -66.5t-50.5 -151.5v-301h-20zM229 616v80h20v-80h-20zM332 616v80h20v-80h-20z" />
    <glyph glyph-name="Nmacron" horiz-adv-x="713" 
d="M106 715h32l283 -438q129 -196 166 -262h1q0 16 -0.5 126.5t-0.5 147.5v426h20v-715h-32l-276 430q-104 160 -174 270h-1q0 -17 1 -160.5t1 -178.5v-361h-20v715zM237 798v17h244v-17h-244z" />
    <glyph glyph-name="nmacron" horiz-adv-x="567" 
d="M89 0v445q0 53 -1 80h21v-140q10 55 60 104.5t129 49.5q90 0 138 -53t48 -158v-328h-20v328q0 101 -46.5 146t-119.5 45q-88 0 -138.5 -66.5t-50.5 -151.5v-301h-20zM169 652v17h244v-17h-244z" />
    <glyph glyph-name="Pmacron" horiz-adv-x="577" 
d="M106 0v715h172q122 0 188.5 -45t66.5 -154q0 -122 -91 -173q-63 -36 -169 -36h-147v-307h-20zM126 695v-368h147q103 0 159 32q81 45 81 157q0 93 -58 136t-177 43h-152zM174 798v17h244v-17h-244z" />
    <glyph glyph-name="pmacron" horiz-adv-x="607" 
d="M89 -180v705h20v-69q0 -56 -1 -93q10 65 66 120.5t145 55.5q107 0 170.5 -74t63.5 -203q0 -126 -66 -200.5t-168 -74.5q-91 0 -143 46.5t-68 114.5v-39q0 -13 0.5 -34t0.5 -28v-227h-20zM319 7q95 0 154.5 69t59.5 186q0 119 -58 188t-157 69q-96 0 -153 -71t-57 -185
q1 -123 55.5 -189.5t155.5 -66.5zM198 652v17h244v-17h-244z" />
    <glyph glyph-name="at.case" horiz-adv-x="840" 
d="M590 527h20l-47 -261q-5 -28 -5 -40q0 -49 55 -49q62 0 111 65.5t49 178.5q0 132 -90 211t-238 79q-162 0 -265 -104.5t-103 -256.5q0 -157 102.5 -256t269.5 -99q155 0 266 96l12 -14q-111 -102 -278 -102q-173 0 -282.5 102.5t-109.5 272.5q0 160 108 270.5t280 110.5
q156 0 252 -86.5t96 -223.5q0 -115 -53.5 -188.5t-129.5 -73.5q-70 0 -70 62q0 12 1 19h-1q-13 -33 -51 -58t-91 -25q-70 0 -108.5 42t-38.5 121q0 86 49 151.5t135 65.5q60 0 95 -32.5t41 -83.5h1zM433 518q-76 0 -119 -59.5t-43 -135.5q0 -70 33 -108.5t98 -38.5
q82 0 119.5 61.5t37.5 148.5q0 60 -31.5 96t-94.5 36z" />
    <glyph glyph-name="bar.case" horiz-adv-x="242" 
d="M111 751h20v-794h-20v794z" />
    <glyph glyph-name="plus.case" 
d="M59 362v20h211v218h20v-218h211v-20h-211v-217h-20v217h-211z" />
    <glyph glyph-name="minus.case" 
d="M59 362v20h442v-20h-442z" />
    <glyph glyph-name="plusminus.case" 
d="M59 50v20h442v-20h-442zM59 372v20h211v209h20v-209h211v-20h-211v-208h-20v208h-211z" />
    <glyph glyph-name="multiply.case" 
d="M99 175l-14 14l181 180l-181 181l14 14l181 -180l181 181l14 -14l-181 -182l181 -181l-14 -14l-181 181z" />
    <glyph glyph-name="divide.case" 
d="M59 362v20h442v-20h-442zM270 145v111h20v-111h-20zM270 488v111h20v-111h-20z" />
    <glyph glyph-name="equal.case" 
d="M59 455v20h442v-20h-442zM59 271v20h442v-20h-442z" />
    <glyph glyph-name="notequal.case" 
d="M59 455v20h266l69 135h22l-69 -135h154v-20h-164l-84 -164h248v-20h-258l-72 -141h-22l72 141h-162v20h172l84 164h-256z" />
    <glyph glyph-name="approxequal.case" 
d="M297 393l-63 30q-50 23 -79 23q-53 0 -98 -74l-15 11q51 83 114 83q35 0 99 -30l66 -32q44 -23 79 -23q38 0 61 20t46 58l16 -9q-50 -88 -123 -88q-37 0 -103 31zM295 163l-63 30q-50 23 -79 23q-53 0 -98 -74l-15 11q51 83 114 83q35 0 99 -30l66 -32q44 -23 79 -23
q38 0 61 20t46 58l16 -9q-50 -88 -123 -88q-37 0 -103 31z" />
    <glyph glyph-name="logicalnot.case" 
d="M30 477v20h503v-310h-20v290h-483z" />
    <glyph glyph-name="parenleft.case" horiz-adv-x="283" 
d="M54 350q0 145 51.5 263.5t141.5 190.5v-20q-173 -167 -173 -434t173 -434v-20q-89 69 -141 189.5t-52 264.5z" />
    <glyph glyph-name="parenright.case" horiz-adv-x="284" 
d="M229 350q0 -144 -52 -264.5t-141 -189.5v20q173 167 173 434t-173 434v20q90 -72 141.5 -190.5t51.5 -263.5z" />
    <glyph glyph-name="hyphen.case" horiz-adv-x="428" 
d="M78 359v20h272v-20h-272z" />
    <glyph glyph-name="bracketleft.case" horiz-adv-x="292" 
d="M248 -43v-20h-139v828h139v-20h-119v-788h119z" />
    <glyph glyph-name="bracketright.case" horiz-adv-x="292" 
d="M44 -63v20h119v788h-119v20h139v-828h-139z" />
    <glyph glyph-name="braceleft.case" horiz-adv-x="267" 
d="M118 30v202q0 56 -16 79t-53 34v20q37 11 53 34t16 79v202q0 53 20 71.5t64 18.5q4 0 8.5 -0.5t5.5 -0.5h5v-18q-49 0 -66 -10.5t-17 -52.5v-180q0 -77 -14 -108t-55 -44v-2q41 -13 55 -44t14 -107v-181q0 -42 17 -52.5t66 -10.5v-18q-1 -1 -5 -1h-14q-44 0 -64 18.5
t-20 71.5z" />
    <glyph glyph-name="braceright.case" horiz-adv-x="267" 
d="M149 232v-202q0 -53 -20 -71.5t-64 -18.5h-14q-4 0 -5 1v18q49 0 66 10.5t17 52.5v181q0 76 14 107t55 44v2q-41 13 -55 44t-14 108v180q0 42 -17 52.5t-66 10.5v18h5q1 0 5.5 0.5t8.5 0.5q44 0 64 -18.5t20 -71.5v-202q0 -56 16 -79t53 -34v-20q-37 -11 -53 -34t-16 -79
z" />
    <glyph glyph-name="guillemotleft.case" horiz-adv-x="452" 
d="M376 533l-106 -187l106 -188h-20l-110 188l110 187h20zM200 533l-106 -187l106 -188h-20l-110 188l110 187h20z" />
    <glyph glyph-name="guillemotright.case" horiz-adv-x="452" 
d="M182 346l-106 187h20l110 -187l-110 -188h-20zM358 346l-106 187h20l110 -187l-110 -188h-20z" />
    <glyph glyph-name="endash.case" horiz-adv-x="622" 
d="M73 361v20h476v-20h-476z" />
    <glyph glyph-name="emdash.case" horiz-adv-x="997" 
d="M78 360v20h841v-20h-841z" />
    <glyph glyph-name="guilsinglleft.case" horiz-adv-x="276" 
d="M200 533l-106 -187l106 -188h-20l-110 188l110 187h20z" />
    <glyph glyph-name="guilsinglright.case" horiz-adv-x="276" 
d="M182 346l-106 187h20l110 -187l-110 -188h-20z" />
    <glyph glyph-name="brokenbar.case" horiz-adv-x="186" 
d="M83 448v303h20v-303h-20zM83 -42v303h20v-303h-20z" />
    <glyph glyph-name="registered.alt" horiz-adv-x="860" 
d="M306 143v427h126q147 0 147 -115q0 -105 -118 -122l115 -190h-22l-114 188h-114v-188h-20zM326 550v-199h106q127 0 127 104q0 95 -127 95h-106zM806 360q0 -158 -110 -267.5t-268 -109.5q-156 0 -265.5 110t-109.5 267t109.5 266.5t267.5 109.5q156 0 266 -110t110 -266
zM786 360q0 148 -105.5 252t-250.5 104q-148 0 -252.5 -103.5t-104.5 -252.5t104 -253t252 -104q146 0 251.5 103.5t105.5 253.5z" />
    <glyph glyph-name="less.case" 
d="M66 352v24l396 210v-20l-380 -200v-3l380 -206v-20z" />
    <glyph glyph-name="greater.case" 
d="M494 376v-24l-396 -215v20l380 206v3l-380 200v20z" />
    <glyph glyph-name="lessequal.case" 
d="M79 0v20h396v-20h-396zM79 332v24l396 210v-20l-380 -200v-3l380 -206v-20z" />
    <glyph glyph-name="greaterequal.case" 
d="M480 20v-20h-396v20h396zM480 356v-24l-396 -215v20l380 206v3l-380 200v20z" />
    <glyph glyph-name="infinity.case" horiz-adv-x="870" 
d="M438 375q12 11 47 47.5t55 54.5t52.5 36t62.5 18q67 0 109.5 -45.5t42.5 -120.5q0 -73 -39 -120.5t-110 -47.5q-15 0 -30.5 4t-27.5 8t-28.5 15.5t-25.5 18.5t-27.5 24.5t-25.5 24.5t-28 29.5t-28 29.5q-8 -8 -28 -29t-28 -29t-26 -25t-27.5 -24.5t-26 -18.5t-28.5 -15.5
t-28 -8.5t-31 -4q-71 0 -110 47t-39 120q0 75 42.5 121t109.5 46q21 0 43.5 -8.5t37.5 -16.5t40 -30t33.5 -30.5t36 -38t30.5 -32.5zM214 214q20 0 38.5 6t32 12.5t34.5 24.5t31.5 28.5t37 37.5t39.5 40l-18 19l-23 23l-23 23t-20.5 19.5t-22 19.5t-19.5 15.5t-21 14
t-19.5 9t-22 7t-21.5 1.5q-61 0 -96.5 -40.5t-35.5 -108.5q0 -70 33 -110.5t96 -40.5zM658 214q63 0 96 40.5t33 110.5q0 68 -35.5 108.5t-96.5 40.5q-15 0 -28 -2.5t-26.5 -10t-23.5 -13.5t-25.5 -21t-24 -23.5l-29 -29l-30.5 -30.5l-21 -21q9 -9 32.5 -34t32 -33.5
t27.5 -26.5t29.5 -24t27 -15.5t31 -12.5t31.5 -3z" />
    <glyph glyph-name="uni00AD.case" horiz-adv-x="428" 
d="M78 359v20h272v-20h-272z" />
    <glyph glyph-name="idotaccent" horiz-adv-x="198" 
d="M89 525h20v-525h-20v525zM109 604h-20v111h20v-111z" />
    <glyph glyph-name="zero.slashplf" horiz-adv-x="614" 
d="M307 -14q-69 0 -116.5 27.5t-73.5 79.5t-37 115.5t-11 147.5q0 78 10 139t35 116.5t74 86t119 30.5q239 0 239 -372q0 -84 -11 -147.5t-37 -115.5t-74 -79.5t-117 -27.5zM89 356q0 -236 95 -313l232 636q-44 29 -109 29q-218 0 -218 -352zM307 6q116 0 167.5 89.5
t51.5 260.5q0 231 -94 311l-232 -635q43 -26 107 -26z" />
    <glyph glyph-name="zero.slash" 
d="M280 -14q-69 0 -116.5 27.5t-73.5 79.5t-37 115.5t-11 147.5q0 78 10 139t35 116.5t74 86t119 30.5q239 0 239 -372q0 -84 -11 -147.5t-37 -115.5t-74 -79.5t-117 -27.5zM62 356q0 -236 95 -313l232 636q-44 29 -109 29q-218 0 -218 -352zM280 6q116 0 167.5 89.5
t51.5 260.5q0 231 -94 311l-232 -635q43 -26 107 -26z" />
    <glyph glyph-name="zero.tosf" 
d="M279 6q116 0 167.5 87.5t51.5 255.5q0 345 -219 345q-218 0 -218 -345q0 -168 51 -255.5t167 -87.5zM279 -14q-69 0 -116.5 27t-73.5 78t-37 113.5t-11 144.5q0 76 10 136.5t35 114.5t74 84t119 30q239 0 239 -365q0 -82 -11 -144.5t-37 -113.5t-74 -78t-117 -27z" />
    <glyph glyph-name="one.tosf" 
d="M332 0v557h-196v19h59q93 0 115.5 20t26.5 104h15v-700h-20z" />
    <glyph glyph-name="two.tosf" 
d="M505 0h-452v17q154 126 225 191q110 100 152.5 167t42.5 141q0 77 -50.5 128t-140.5 51q-190 0 -200 -194h-20q4 102 58.5 158t161.5 56q102 0 156.5 -56.5t54.5 -142.5q0 -49 -15.5 -92.5t-49.5 -86t-61 -69.5t-76 -70q-121 -110 -210 -178h424v-20z" />
    <glyph glyph-name="three.tosf" 
d="M49 192h20q13 -91 62.5 -138.5t146.5 -47.5q95 0 151.5 55.5t56.5 134.5q0 59 -34 100t-85 58t-116 17h-16v19q99 0 159 40.5t60 117.5q0 67 -45 107t-128 40q-84 0 -132.5 -41t-53.5 -116h-20q5 82 59 129.5t147 47.5q91 0 142 -44.5t51 -120.5q0 -69 -44 -112t-119 -55
v-2q82 -7 138.5 -53.5t56.5 -131.5q0 -93 -65.5 -151.5t-162.5 -58.5q-103 0 -162 52.5t-67 153.5z" />
    <glyph glyph-name="four.tosf" 
d="M533 204v-20h-130v-184h-20v184h-361v16l244 334q15 21 43 58t48 65t31 44h15v-497h130zM385 665h-2q-32 -52 -167 -232l-48 -64l-79 -106q-15 -19 -43 -59h337v159q0 64 1 179.5t1 122.5z" />
    <glyph glyph-name="five.tosf" 
d="M85 334l37 367h349v-20h-332l-35 -330q64 86 183 86q96 0 155 -60t59 -161q0 -103 -62 -166.5t-164 -63.5q-96 0 -153.5 51t-68.5 144h20q7 -73 57.5 -124t144.5 -51q98 0 152 59.5t54 150.5q0 87 -51.5 144.5t-142.5 57.5q-115 0 -181 -88z" />
    <glyph glyph-name="six.tosf" 
d="M503 521h-20q-17 78 -60 126t-129 48q-221 0 -221 -355q0 -40 2 -94h3q2 77 61 134.5t157 57.5q102 0 160.5 -60.5t58.5 -162.5q0 -104 -62.5 -166.5t-165.5 -62.5q-116 0 -175 82.5t-59 265.5q0 197 61.5 289t181.5 92q170 0 207 -194zM296 419q-90 0 -148.5 -55.5
t-58.5 -144.5q0 -95 54 -154t144 -59q98 0 153.5 57t55.5 152q0 93 -53 148.5t-147 55.5z" />
    <glyph glyph-name="seven.tosf" 
d="M198 0h-23q62 146 159 344q18 38 51.5 107t60.5 125t52 105h-429v20h449v-18l-24 -51q-27 -57 -98 -203t-115.5 -242t-82.5 -187z" />
    <glyph glyph-name="eight.tosf" 
d="M280 6q96 0 156.5 47.5t60.5 130.5q0 81 -60.5 131.5t-156.5 50.5t-156.5 -50.5t-60.5 -131.5q0 -83 60.5 -130.5t156.5 -47.5zM280 380q83 0 135.5 46.5t52.5 115.5t-52 111t-136 42t-136 -42t-52 -111q0 -70 52 -116t136 -46zM280 715q94 0 151 -48.5t57 -124.5
q0 -65 -39.5 -110t-101.5 -57q79 -16 124.5 -66.5t45.5 -124.5q0 -91 -63 -144.5t-174 -53.5t-174 53.5t-63 144.5q0 74 45.5 124.5t124.5 66.5q-62 12 -101.5 57t-39.5 110q0 76 57 124.5t151 48.5z" />
    <glyph glyph-name="nine.tosf" 
d="M57 180h20q17 -78 60 -126t129 -48q221 0 221 355q0 42 -2 96h-3q-4 -78 -61.5 -135t-156.5 -57q-102 0 -160.5 59.5t-58.5 162.5q0 104 62.5 166t165.5 62q115 0 174.5 -83t59.5 -265q0 -197 -61.5 -289t-181.5 -92q-91 0 -141.5 52.5t-65.5 141.5zM264 284
q89 0 148 55.5t59 144.5q0 95 -53.5 153t-144.5 58q-98 0 -153.5 -56.5t-55.5 -151.5q0 -94 52.5 -148.5t147.5 -54.5z" />
    <glyph glyph-name="zero.sub" horiz-adv-x="456" 
d="M228 -111q162 0 162 260q0 262 -162 262t-162 -262q0 -127 38 -193.5t124 -66.5zM228 -128q-69 0 -110 38t-55 95.5t-14 143.5q0 59 7.5 105t26 87.5t55.5 64t90 22.5t89.5 -22.5t55.5 -64t26.5 -87.5t7.5 -105q0 -86 -14 -143.5t-55 -95.5t-110 -38z" />
    <glyph glyph-name="one.sub" horiz-adv-x="280" 
d="M179 -123v428h-147v17h45q69 0 86.5 15t19.5 77h13v-537h-17z" />
    <glyph glyph-name="two.sub" horiz-adv-x="421" 
d="M378 -123h-340v15q75 60 169 145q77 74 111 128t34 107q0 57 -37.5 96t-103.5 39q-142 0 -149 -148h-17q3 78 44 121.5t122 43.5q77 0 117.5 -43t40.5 -109q0 -37 -11.5 -71t-38 -67t-45 -52.5t-55.5 -53.5q-94 -88 -155 -134h314v-17z" />
    <glyph glyph-name="three.sub" horiz-adv-x="425" 
d="M38 29h17q9 -69 46 -105t110 -36q69 0 111.5 42t42.5 101q0 66 -50.5 99.5t-123.5 33.5h-13v17q74 0 118.5 31t44.5 89q0 49 -33.5 79.5t-94.5 30.5q-63 0 -98.5 -31t-39.5 -88h-17q3 64 43.5 100t111.5 36q68 0 106.5 -34t38.5 -92q0 -52 -31 -84.5t-84 -44.5
q58 -7 98.5 -43t40.5 -99q0 -71 -49 -115.5t-122 -44.5q-78 0 -122.5 40t-50.5 118z" />
    <glyph glyph-name="four.sub" horiz-adv-x="437" 
d="M409 34v-17h-97v-140h-17v140h-270v14l183 256l34 46q33 44 56 81h14v-380h97zM295 34v121q0 48 0.5 133t0.5 94q-79 -115 -124 -174l-36 -50q-10 -13 -30 -41t-28 -39l-32 -44h249zM297 384l-1 1v-3q1 1 1 2z" />
    <glyph glyph-name="five.sub" horiz-adv-x="412" 
d="M60 133l28 282h262v-17h-248q-4 -38 -13 -120.5t-13 -126.5q53 63 136 63q73 0 117 -45.5t44 -124.5q0 -78 -46.5 -127t-123.5 -49q-72 0 -115.5 39.5t-51.5 110.5h17q7 -56 43.5 -94.5t106.5 -38.5q72 0 112.5 45.5t40.5 113.5q0 66 -38.5 110t-105.5 44q-37 0 -66 -13
t-41 -24.5t-27 -30.5z" />
    <glyph glyph-name="six.sub" horiz-adv-x="438" 
d="M386 277h-17q-26 132 -140 132q-164 0 -164 -269q0 -51 2 -64q7 57 50 98.5t114 41.5q77 0 120.5 -46.5t43.5 -125.5q0 -81 -46.5 -128t-124.5 -47q-87 0 -131.5 63t-44.5 203q0 291 183 291q127 0 155 -149zM231 199q-67 0 -110.5 -42t-43.5 -110q0 -71 40 -116t107 -45
q72 0 113.5 43t41.5 115q0 70 -39 112.5t-109 42.5z" />
    <glyph glyph-name="seven.sub" horiz-adv-x="385" 
d="M129 -123h-19q27 67 119 264q71 158 121 256h-320v17h338v-15l-18 -39q-8 -16 -32 -67t-37 -78q-96 -201 -152 -338z" />
    <glyph glyph-name="eight.sub" horiz-adv-x="445" 
d="M223 -116q71 0 116 36t45 98q0 63 -44.5 100.5t-116.5 37.5t-117 -38t-45 -100t45 -98t117 -36zM223 169q61 0 100 35.5t39 87.5t-38.5 83.5t-100.5 31.5q-63 0 -101.5 -31.5t-38.5 -83.5q0 -53 39 -88t101 -35zM223 424q71 0 113.5 -37t42.5 -95q0 -48 -28.5 -82
t-73.5 -46q58 -13 91 -51t33 -95q0 -70 -47 -110.5t-131 -40.5t-131.5 40.5t-47.5 110.5q0 57 33 95t91 51q-45 12 -73.5 46t-28.5 82q0 58 42.5 95t114.5 37z" />
    <glyph glyph-name="nine.sub" horiz-adv-x="438" 
d="M51 16h17q26 -132 140 -132q164 0 164 269v35q0 25 -2 32q-4 -57 -47.5 -99t-115.5 -42q-78 0 -121.5 46t-43.5 125q0 81 46.5 127.5t125.5 46.5q87 0 131 -63t44 -203q0 -291 -182 -291q-128 0 -156 149zM207 96q65 0 109 42.5t44 109.5q0 70 -40 114.5t-106 44.5
q-73 0 -114.5 -43t-41.5 -114t39 -112.5t110 -41.5z" />
    <glyph glyph-name="zero.sup" horiz-adv-x="454" 
d="M227 314q162 0 162 260q0 262 -162 262t-162 -262q0 -127 38 -193.5t124 -66.5zM227 297q-69 0 -110 38t-55 95.5t-14 143.5q0 59 7.5 105t26 87.5t55.5 64t90 22.5t89.5 -22.5t55.5 -64t26.5 -87.5t7.5 -105q0 -86 -14 -143.5t-55 -95.5t-110 -38z" />
    <glyph glyph-name="one.sup" horiz-adv-x="280" 
d="M179 302v428h-147v17h45q69 0 86.5 15t19.5 77h13v-537h-17z" />
    <glyph glyph-name="two.sup" horiz-adv-x="420" 
d="M378 302h-340v15q75 60 169 145q77 74 111 128t34 107q0 57 -37.5 96t-103.5 39q-142 0 -149 -148h-17q3 78 44 121.5t122 43.5q77 0 117.5 -43t40.5 -109q0 -37 -11.5 -71t-38 -67t-45 -52.5t-55.5 -53.5q-94 -88 -155 -134h314v-17z" />
    <glyph glyph-name="three.sup" horiz-adv-x="425" 
d="M38 454h17q9 -69 46 -105t110 -36q69 0 111.5 42t42.5 101q0 66 -50.5 99.5t-123.5 33.5h-13v17q74 0 118.5 31t44.5 89q0 49 -33.5 79.5t-94.5 30.5q-63 0 -98.5 -31t-39.5 -88h-17q3 64 43.5 100t111.5 36q68 0 106.5 -34t38.5 -92q0 -52 -31 -84.5t-84 -44.5
q58 -7 98.5 -43t40.5 -99q0 -71 -49 -115.5t-122 -44.5q-78 0 -122.5 40t-50.5 118z" />
    <glyph glyph-name="four.sup" horiz-adv-x="437" 
d="M409 459v-17h-97v-140h-17v140h-270v14l183 256l34 46q33 44 56 81h14v-380h97zM295 459v121q0 48 0.5 133t0.5 94q-79 -115 -124 -174l-36 -50q-10 -13 -30 -41t-28 -39l-32 -44h249zM297 809l-1 1v-3q1 1 1 2z" />
    <glyph glyph-name="five.sup" horiz-adv-x="412" 
d="M60 558l28 282h262v-17h-248q-4 -38 -13 -120.5t-13 -126.5q53 63 136 63q73 0 117 -45.5t44 -124.5q0 -78 -46.5 -127t-123.5 -49q-72 0 -115.5 39.5t-51.5 110.5h17q7 -56 43.5 -94.5t106.5 -38.5q72 0 112.5 45.5t40.5 113.5q0 66 -38.5 110t-105.5 44q-37 0 -66 -13
t-41 -24.5t-27 -30.5z" />
    <glyph glyph-name="six.sup" horiz-adv-x="437" 
d="M385 702h-17q-26 132 -140 132q-164 0 -164 -269q0 -51 2 -64q7 57 50 98.5t114 41.5q77 0 120.5 -46.5t43.5 -125.5q0 -81 -46.5 -128t-124.5 -47q-87 0 -131.5 63t-44.5 203q0 291 183 291q127 0 155 -149zM230 624q-67 0 -110.5 -42t-43.5 -110q0 -71 40 -116t107 -45
q72 0 113.5 43t41.5 115q0 70 -39 112.5t-109 42.5z" />
    <glyph glyph-name="seven.sup" horiz-adv-x="386" 
d="M130 302h-19q27 67 119 264q71 158 121 256h-320v17h338v-15l-18 -39q-8 -16 -32 -67t-37 -78q-96 -201 -152 -338z" />
    <glyph glyph-name="eight.sup" horiz-adv-x="443" 
d="M222 309q71 0 116 36t45 98q0 63 -44.5 100.5t-116.5 37.5t-117 -38t-45 -100t45 -98t117 -36zM222 594q61 0 100 35.5t39 87.5t-38.5 83.5t-100.5 31.5q-63 0 -101.5 -31.5t-38.5 -83.5q0 -53 39 -88t101 -35zM222 849q71 0 113.5 -37t42.5 -95q0 -48 -28.5 -82
t-73.5 -46q58 -13 91 -51t33 -95q0 -70 -47 -110.5t-131 -40.5t-131.5 40.5t-47.5 110.5q0 57 33 95t91 51q-45 12 -73.5 46t-28.5 82q0 58 42.5 95t114.5 37z" />
    <glyph glyph-name="nine.sup" horiz-adv-x="437" 
d="M52 441h17q26 -132 140 -132q164 0 164 269v35q0 25 -2 32q-4 -57 -47.5 -99t-115.5 -42q-78 0 -121.5 46t-43.5 125q0 81 46.5 127.5t125.5 46.5q87 0 131 -63t44 -203q0 -291 -182 -291q-128 0 -156 149zM208 521q65 0 109 42.5t44 109.5q0 70 -40 114.5t-106 44.5
q-73 0 -114.5 -43t-41.5 -114t39 -112.5t110 -41.5z" />
    <glyph glyph-name="a.sub" horiz-adv-x="391" 
d="M67 151h-17q0 54 41 92t106 38q71 0 106.5 -39t35.5 -127q0 -15 -0.5 -32t-0.5 -20v-90q0 -63 7 -96h-18q-5 22 -5 96q-15 -46 -57.5 -75.5t-101.5 -29.5q-60 0 -95 28.5t-35 79.5q0 52 44.5 77.5t128.5 39.5l116 13v16q0 142 -125 142q-58 0 -93 -31.5t-37 -81.5z
M322 49q0 30 1 41q-104 -10 -136 -17q-65 -11 -101 -33.5t-36 -63.5q0 -40 30.5 -65.5t82.5 -25.5q67 0 113 43.5t46 120.5z" />
    <glyph glyph-name="b.sub" horiz-adv-x="443" 
d="M55 -123v536h17v-113q0 -14 -0.5 -71t-0.5 -70q11 46 52.5 84t103.5 38q82 0 129.5 -55t47.5 -153q0 -95 -50 -150.5t-127 -55.5q-118 0 -156 111q0 -8 0.5 -32.5t0.5 -32.5v-36h-17zM227 -116q70 0 115 51.5t45 137.5q0 88 -43 139.5t-117 51.5q-71 0 -113.5 -53
t-42.5 -137q1 -91 41.5 -140.5t114.5 -49.5z" />
    <glyph glyph-name="c.sub" horiz-adv-x="431" 
d="M400 138h-18q-33 123 -159 123q-79 0 -123 -53.5t-44 -137.5q0 -86 44.5 -137.5t122.5 -51.5q127 0 160 119h17q-18 -63 -62.5 -99.5t-114.5 -36.5q-88 0 -136 56.5t-48 149.5q0 94 49.5 151t134.5 57q143 0 177 -140z" />
    <glyph glyph-name="d.sub" horiz-adv-x="443" 
d="M388 413v-536h-17v36v40q0 16 1 25q-16 -48 -55 -79.5t-103 -31.5q-77 0 -126 55t-49 151t48 152t127 56q62 0 104 -37.5t54 -83.5q0 18 -0.5 73.5t-0.5 66.5v113h17zM214 -116q75 0 116 49.5t42 140.5q0 84 -43 137t-114 53q-73 0 -116 -51.5t-43 -139.5
q0 -86 44.5 -137.5t113.5 -51.5z" />
    <glyph glyph-name="e.sub" horiz-adv-x="433" 
d="M400 80h-344v-10q0 -86 43.5 -137.5t120.5 -51.5q116 0 155 105h18q-43 -122 -173 -122q-86 0 -133.5 56.5t-47.5 149.5t50 150.5t134 57.5q83 0 129 -54t48 -144zM223 261q-66 0 -111 -47t-55 -117h325q-6 73 -47 118.5t-112 45.5z" />
    <glyph glyph-name="f.sub" horiz-adv-x="177" 
d="M164 413v-17q-3 1 -19 1q-32 0 -41.5 -19t-9.5 -59v-49h70v-17h-70v-376h-17v376h-56v17h56v51q0 44 13.5 68.5t54.5 24.5q16 0 19 -1z" />
    <glyph glyph-name="g.sub" horiz-adv-x="435" 
d="M212 -250q151 0 151 182q0 7 0.5 36t0.5 43q-11 -47 -51 -82t-103 -35q-79 0 -124.5 52.5t-45.5 138.5q0 87 47.5 141t122.5 54q61 0 101 -33.5t53 -80.5q0 7 -0.5 25.5t-0.5 23.5v54h17v-337q0 -199 -168 -199q-70 0 -109.5 37t-48.5 95h18q22 -115 140 -115zM210 -89
q67 0 111 49.5t44 128.5q0 74 -42.5 124t-113.5 50q-69 0 -110.5 -51.5t-41.5 -126.5q0 -73 41.5 -123.5t111.5 -50.5z" />
    <glyph glyph-name="h.sub" horiz-adv-x="404" 
d="M55 414h17v-238q15 40 51 73t89 33q69 0 105 -40.5t36 -118.5v-246h-17v246q0 74 -35 108t-89 34q-65 0 -102.5 -49.5t-37.5 -112.5v-226h-17v537z" />
    <glyph glyph-name="i.sub" horiz-adv-x="127" 
d="M55 271h17v-394h-17v394zM72 328h-17v86h17v-86z" />
    <glyph glyph-name="j.sub" horiz-adv-x="127" 
d="M55 270h17v-447q0 -51 -16 -72.5t-54 -21.5q-2 0 -5 0.5t-5 0.5h-7v17h8q1 0 4 -0.5t5 -0.5q31 0 42 18.5t11 57.5v448zM72 328h-17v85h17v-85z" />
    <glyph glyph-name="k.sub" horiz-adv-x="308" 
d="M305 -123h-25q-3 2 -126 123l-82 81v-204h-17v537h17v-321q4 4 40 36.5t88.5 79.5t68.5 62h25l-129 -116q-17 -16 -42.5 -38.5t-32.5 -29.5q11 -12 76 -75q18 -18 68.5 -65.5t70.5 -69.5z" />
    <glyph glyph-name="l.sub" horiz-adv-x="127" 
d="M55 414h17v-537h-17v537z" />
    <glyph glyph-name="m.sub" horiz-adv-x="674" 
d="M55 -123v333q0 41 -1 61h18v-94q12 39 48.5 72t89.5 33q111 0 134 -112q10 42 47 77t95 35q66 0 101.5 -40.5t35.5 -118.5v-246h-17v246q0 74 -33.5 108t-86.5 34q-64 0 -101.5 -47.5t-37.5 -109.5v-231h-17v246q0 74 -33.5 108t-86.5 34q-65 0 -101.5 -49t-36.5 -113
v-226h-17z" />
    <glyph glyph-name="n.sub" horiz-adv-x="403" 
d="M55 -123v333q0 41 -1 61h18v-94q15 40 51 72.5t89 32.5q67 0 103.5 -40.5t36.5 -118.5v-246h-17v246q0 74 -34.5 108t-88.5 34q-65 0 -102.5 -49.5t-37.5 -112.5v-226h-17z" />
    <glyph glyph-name="o.sub" horiz-adv-x="451" 
d="M225 -116q79 0 124.5 51.5t45.5 137.5q0 84 -45 137.5t-125 53.5q-79 0 -124 -53.5t-45 -137.5q0 -86 45.5 -137.5t123.5 -51.5zM225 281q86 0 136.5 -57t50.5 -151q0 -93 -48.5 -149.5t-138.5 -56.5q-89 0 -137.5 56.5t-48.5 149.5q0 94 50 151t136 57z" />
    <glyph glyph-name="p.sub" horiz-adv-x="443" 
d="M55 -258v529h17v-52v-58q9 46 50.5 83t104.5 37q82 0 129.5 -55t47.5 -153q0 -95 -50 -150.5t-127 -55.5q-62 0 -101.5 32t-54.5 79q0 -7 0.5 -31t0.5 -34v-171h-17zM227 -116q70 0 115 51.5t45 137.5q0 90 -42.5 140.5t-117.5 50.5q-71 0 -113.5 -52.5t-42.5 -137.5
q1 -91 41.5 -140.5t114.5 -49.5z" />
    <glyph glyph-name="q.sub" horiz-adv-x="443" 
d="M388 271v-499h-17v141v42q0 16 1 24q-15 -47 -55 -79.5t-103 -32.5q-76 0 -125.5 55.5t-49.5 150.5q0 97 47.5 152.5t127.5 55.5q63 0 104 -36.5t53 -83.5v72v38h17zM214 -116q75 0 116 49.5t42 140.5q0 85 -43 137.5t-114 52.5q-73 0 -116 -51t-43 -140
q0 -86 44.5 -137.5t113.5 -51.5z" />
    <glyph glyph-name="r.sub" horiz-adv-x="184" 
d="M72 271v-85q7 41 32 67t65 26q6 0 10 -1v-17q-3 1 -11 1q-51 0 -73.5 -48.5t-22.5 -123.5v-213h-17v394h17z" />
    <glyph glyph-name="s.sub" horiz-adv-x="367" 
d="M31 -18h17q25 -99 135 -99q62 0 96.5 26t34.5 68q0 35 -26 53.5t-87 35.5l-36 10q-63 17 -90 39.5t-27 66.5q0 45 37 71.5t98 26.5q59 0 96.5 -27t45.5 -75h-17q-10 39 -42 62t-83 23q-56 0 -86.5 -22t-31.5 -59q-1 -34 24 -53.5t86 -37.5l34 -10q32 -9 50 -16t37 -19
t27 -28.5t8 -40.5q0 -51 -40.5 -81t-107.5 -30q-129 0 -152 116z" />
    <glyph glyph-name="t.sub" horiz-adv-x="187" 
d="M162 -109v-17q-8 -2 -17 -2q-42 0 -56 22.5t-14 72.5v287h-51v17h51v107h17v-107h70v-17h-70v-287q0 -44 12 -61t41 -17q7 0 17 2z" />
    <glyph glyph-name="u.sub" horiz-adv-x="399" 
d="M344 270v-333q0 -41 1 -61h-18v95q-12 -40 -47.5 -73t-89.5 -33q-139 0 -139 159v246h17v-246q0 -74 34 -108t88 -34q65 0 101 49t36 113v226h17z" />
    <glyph glyph-name="v.sub" horiz-adv-x="348" 
d="M185 -123h-22q-97 263 -149 393h19l86 -225l23 -64l34 -85q43 124 57 158l83 216h19q-6 -14 -40 -102t-64 -167t-46 -124z" />
    <glyph glyph-name="w.sub" horiz-adv-x="567" 
d="M415 -123h-24l-43 155q-8 27 -30.5 108.5t-31.5 109.5q-5 -16 -19.5 -61.5t-28 -91t-24.5 -84.5l-41 -136h-24q-38 102 -117 349l-14 44h18l76 -225q19 -60 50 -149q36 126 46 158l65 216h26l62 -216l44 -161l18 53q5 16 16.5 50t16.5 49l77 225h18q-34 -95 -63 -185
q-11 -35 -38.5 -111.5t-34.5 -96.5z" />
    <glyph glyph-name="x.sub" horiz-adv-x="343" 
d="M307 270h23l-146 -192q21 -29 47 -63.5t57 -75t47 -62.5h-22l-141 185l-141 -185h-23l152 200q-25 35 -75.5 100t-71.5 93h24l135 -177q24 33 70 92.5t65 84.5z" />
    <glyph glyph-name="y.sub" horiz-adv-x="347" 
d="M131 -257h-17l51 135q-22 57 -92 237l-61 157h20l87 -224l56 -146q32 91 57 154l83 216h19q-40 -107 -116 -300z" />
    <glyph glyph-name="z.sub" horiz-adv-x="365" 
d="M24 -123v15l198 246l63 77q8 10 17.5 22.5t12.5 15.5h-286v17h310v-15l-193 -238q-66 -88 -101 -123h292v-17h-313z" />
    <glyph glyph-name="a.sup" horiz-adv-x="392" 
d="M68 576h-17q0 54 41 92t106 38q71 0 106.5 -39t35.5 -127q0 -16 -0.5 -32t-0.5 -20v-90q0 -63 7 -96h-18q-5 22 -5 96q-15 -46 -57.5 -75.5t-101.5 -29.5q-60 0 -95 28.5t-35 79.5q0 52 44.5 77.5t128.5 39.5l116 13v16q0 142 -125 142q-58 0 -93 -31.5t-37 -81.5z
M323 474q0 30 1 41q-104 -10 -136 -17q-65 -11 -101 -33.5t-36 -63.5q0 -40 30.5 -65.5t82.5 -25.5q67 0 113 43.5t46 120.5z" />
    <glyph glyph-name="b.sup" horiz-adv-x="443" 
d="M55 302v536h17v-113q0 -13 -0.5 -70t-0.5 -71q11 46 52.5 84t103.5 38q82 0 129.5 -55t47.5 -153q0 -95 -50 -150.5t-127 -55.5q-118 0 -156 111q0 -8 0.5 -32.5t0.5 -32.5v-36h-17zM227 309q70 0 115 51.5t45 137.5q0 88 -43 139.5t-117 51.5q-71 0 -113.5 -53
t-42.5 -137q1 -91 41.5 -140.5t114.5 -49.5z" />
    <glyph glyph-name="c.sup" horiz-adv-x="432" 
d="M400 563h-18q-33 123 -159 123q-79 0 -123 -53.5t-44 -137.5q0 -86 44.5 -137.5t122.5 -51.5q127 0 160 119h17q-18 -63 -62.5 -99.5t-114.5 -36.5q-88 0 -136 56.5t-48 149.5q0 94 49.5 151t134.5 57q143 0 177 -140z" />
    <glyph glyph-name="d.sup" horiz-adv-x="443" 
d="M388 838v-536h-17v36v40q0 16 1 25q-16 -48 -55 -79.5t-103 -31.5q-77 0 -126 55t-49 151t48 152t127 56q62 0 104 -37.5t54 -83.5q0 18 -0.5 73.5t-0.5 66.5v113h17zM214 309q75 0 116 49.5t42 140.5q0 84 -43 137t-114 53q-73 0 -116 -51.5t-43 -139.5
q0 -86 44.5 -137.5t113.5 -51.5z" />
    <glyph glyph-name="e.sup" horiz-adv-x="433" 
d="M400 505h-344v-10q0 -86 43.5 -137.5t120.5 -51.5q116 0 155 105h18q-43 -122 -173 -122q-86 0 -133.5 56.5t-47.5 149.5t50 150.5t134 57.5q83 0 129 -54t48 -144zM223 686q-66 0 -111 -47t-55 -117h325q-6 73 -47 118.5t-112 45.5z" />
    <glyph glyph-name="f.sup" horiz-adv-x="175" 
d="M163 838v-17q-3 1 -19 1q-32 0 -41.5 -19t-9.5 -59v-49h70v-17h-70v-376h-17v376h-56v17h56v51q0 44 13.5 68.5t54.5 24.5q16 0 19 -1z" />
    <glyph glyph-name="g.sup" horiz-adv-x="435" 
d="M212 175q151 0 151 182q0 7 0.5 36t0.5 43q-11 -47 -51 -82t-103 -35q-79 0 -124.5 52.5t-45.5 138.5q0 87 47.5 141t122.5 54q61 0 101 -33.5t53 -80.5q0 7 -0.5 25.5t-0.5 23.5v54h17v-337q0 -199 -168 -199q-70 0 -109.5 37t-48.5 95h18q22 -115 140 -115zM210 336
q67 0 111 49.5t44 128.5q0 74 -42.5 124t-113.5 50q-69 0 -110.5 -51.5t-41.5 -126.5q0 -73 41.5 -123.5t111.5 -50.5z" />
    <glyph glyph-name="h.sup" horiz-adv-x="404" 
d="M55 839h17v-238q15 40 51 73t89 33q69 0 105 -40.5t36 -118.5v-246h-17v246q0 74 -35 108t-89 34q-65 0 -102.5 -49.5t-37.5 -112.5v-226h-17v537z" />
    <glyph glyph-name="i.sup" horiz-adv-x="127" 
d="M55 696h17v-394h-17v394zM72 753h-17v86h17v-86z" />
    <glyph glyph-name="j.sup" horiz-adv-x="127" 
d="M55 695h17v-447q0 -51 -16 -72.5t-54 -21.5q-2 0 -5 0.5t-5 0.5h-7v17h8q1 0 4 -0.5t5 -0.5q31 0 42 18.5t11 57.5v448zM72 753h-17v85h17v-85z" />
    <glyph glyph-name="k.sup" horiz-adv-x="307" 
d="M305 302h-25q-3 2 -126 123l-82 81v-204h-17v537h17v-321q4 4 40 36.5t88.5 79.5t68.5 62h25l-129 -116q-17 -16 -42.5 -38.5t-32.5 -29.5q11 -12 76 -75q18 -18 68.5 -65.5t70.5 -69.5z" />
    <glyph glyph-name="l.sup" horiz-adv-x="127" 
d="M55 839h17v-537h-17v537z" />
    <glyph glyph-name="m.sup" horiz-adv-x="675" 
d="M55 302v333q0 41 -1 61h18v-94q12 39 48.5 72t89.5 33q111 0 134 -112q10 42 47 77t95 35q66 0 101.5 -40.5t35.5 -118.5v-246h-17v246q0 74 -33.5 108t-86.5 34q-64 0 -101.5 -47.5t-37.5 -109.5v-231h-17v246q0 74 -33.5 108t-86.5 34q-65 0 -101.5 -49t-36.5 -113
v-226h-17z" />
    <glyph glyph-name="n.sup" horiz-adv-x="404" 
d="M55 302v333q0 41 -1 61h18v-94q15 40 51 72.5t89 32.5q67 0 103.5 -40.5t36.5 -118.5v-246h-17v246q0 74 -34.5 108t-88.5 34q-65 0 -102.5 -49.5t-37.5 -112.5v-226h-17z" />
    <glyph glyph-name="o.sup" horiz-adv-x="451" 
d="M225 309q79 0 124.5 51.5t45.5 137.5q0 84 -45 137.5t-125 53.5q-79 0 -124 -53.5t-45 -137.5q0 -86 45.5 -137.5t123.5 -51.5zM225 706q86 0 136.5 -57t50.5 -151q0 -93 -48.5 -149.5t-138.5 -56.5q-89 0 -137.5 56.5t-48.5 149.5q0 94 50 151t136 57z" />
    <glyph glyph-name="p.sup" horiz-adv-x="443" 
d="M55 167v529h17v-52v-58q9 46 50.5 83t104.5 37q82 0 129.5 -55t47.5 -153q0 -95 -50 -150.5t-127 -55.5q-62 0 -101.5 32t-54.5 79q0 -7 0.5 -31t0.5 -34v-171h-17zM227 309q70 0 115 51.5t45 137.5q0 90 -42.5 140.5t-117.5 50.5q-71 0 -113.5 -52.5t-42.5 -137.5
q1 -91 41.5 -140.5t114.5 -49.5z" />
    <glyph glyph-name="q.sup" horiz-adv-x="443" 
d="M388 696v-499h-17v141v42q0 16 1 24q-15 -47 -55 -79.5t-103 -32.5q-76 0 -125.5 55.5t-49.5 150.5q0 97 47.5 152.5t127.5 55.5q63 0 104 -36.5t53 -83.5v72v38h17zM214 309q75 0 116 49.5t42 140.5q0 85 -43 137.5t-114 52.5q-73 0 -116 -51t-43 -140
q0 -86 44.5 -137.5t113.5 -51.5z" />
    <glyph glyph-name="r.sup" horiz-adv-x="184" 
d="M72 696v-85q7 41 32 67t65 26q6 0 10 -1v-17q-3 1 -11 1q-51 0 -73.5 -48.5t-22.5 -123.5v-213h-17v394h17z" />
    <glyph glyph-name="s.sup" horiz-adv-x="366" 
d="M30 407h17q25 -99 135 -99q62 0 96.5 26t34.5 68q0 35 -26 53.5t-87 35.5l-36 10q-63 17 -90 39.5t-27 66.5q0 45 37 71.5t98 26.5q59 0 96.5 -27t45.5 -75h-17q-10 39 -42 62t-83 23q-56 0 -86.5 -22t-31.5 -59q-1 -34 24 -53.5t86 -37.5l34 -10q32 -9 50 -16t37 -19
t27 -28.5t8 -40.5q0 -51 -40.5 -81t-107.5 -30q-129 0 -152 116z" />
    <glyph glyph-name="t.sup" horiz-adv-x="188" 
d="M163 316v-17q-8 -2 -17 -2q-42 0 -56 22.5t-14 72.5v287h-51v17h51v107h17v-107h70v-17h-70v-287q0 -44 12 -61t41 -17q7 0 17 2z" />
    <glyph glyph-name="u.sup" horiz-adv-x="399" 
d="M344 695v-333q0 -41 1 -61h-18v95q-12 -40 -47.5 -73t-89.5 -33q-139 0 -139 159v246h17v-246q0 -74 34 -108t88 -34q65 0 101 49t36 113v226h17z" />
    <glyph glyph-name="v.sup" horiz-adv-x="346" 
d="M184 302h-22q-97 263 -149 393h19l86 -225l23 -64l34 -85q43 124 57 158l83 216h19q-6 -14 -40 -102t-64 -167t-46 -124z" />
    <glyph glyph-name="w.sup" horiz-adv-x="567" 
d="M415 302h-24l-43 155q-8 27 -30.5 108.5t-31.5 109.5q-5 -16 -19.5 -61.5t-28 -91t-24.5 -84.5l-41 -136h-24q-38 102 -117 349l-14 44h18l76 -225q19 -60 50 -149q36 126 46 158l65 216h26l62 -216l44 -161l18 53q5 15 16.5 49t16.5 50l77 225h18q-34 -95 -63 -185
q-11 -35 -38.5 -111.5t-34.5 -96.5z" />
    <glyph glyph-name="x.sup" horiz-adv-x="341" 
d="M306 695h23l-146 -192q21 -29 47 -63.5t57 -75t47 -62.5h-22l-141 185l-141 -185h-23l152 200q-25 35 -75.5 100t-71.5 93h24l135 -177q24 33 70 92.5t65 84.5z" />
    <glyph glyph-name="y.sup" horiz-adv-x="349" 
d="M132 168h-17l51 135q-22 57 -92 237l-61 157h20l87 -224l56 -146q32 91 57 154l83 216h19q-40 -107 -116 -300z" />
    <glyph glyph-name="z.sup" horiz-adv-x="365" 
d="M25 302v15l198 246l63 77q8 10 17.5 22.5t12.5 15.5h-286v17h310v-15l-193 -238q-66 -88 -101 -123h292v-17h-313z" />
    <glyph glyph-name="zero.plf" horiz-adv-x="614" 
d="M307 6q116 0 167.5 89.5t51.5 260.5q0 352 -219 352q-218 0 -218 -352q0 -172 51 -261t167 -89zM307 -14q-69 0 -116.5 27.5t-73.5 79.5t-37 115.5t-11 147.5q0 78 10 139t35 116.5t74 86t119 30.5q239 0 239 -372q0 -84 -11 -147.5t-37 -115.5t-74 -79.5t-117 -27.5z
" />
    <glyph glyph-name="one.plf" horiz-adv-x="369" 
d="M236 0v572h-196v19h59q93 0 115.5 20t26.5 104h15v-715h-20z" />
    <glyph glyph-name="two.plf" horiz-adv-x="563" 
d="M506 0h-452v17q145 121 225 195q110 102 152.5 170t42.5 144q0 79 -50.5 131t-140.5 52q-190 0 -200 -198h-20q4 103 58.5 160.5t161.5 57.5q102 0 156.5 -58t54.5 -145q0 -50 -15.5 -94.5t-50 -88t-61 -70t-75.5 -71.5q-120 -113 -210 -182h424v-20z" />
    <glyph glyph-name="three.plf" horiz-adv-x="570" 
d="M55 196h20q12 -94 62 -142t147 -48q95 0 151.5 56.5t56.5 137.5q0 89 -67 133.5t-168 44.5h-16v20q99 0 159 41.5t60 119.5q0 68 -45 109t-128 41q-84 0 -132.5 -42t-53.5 -118h-20q5 84 59 132t147 48q91 0 142 -45.5t51 -122.5q0 -70 -44.5 -114t-118.5 -56v-2
q83 -9 139 -56t56 -133q0 -95 -65.5 -154.5t-162.5 -59.5q-103 0 -162 53t-67 157z" />
    <glyph glyph-name="four.plf" horiz-adv-x="580" 
d="M543 208v-20h-130v-188h-20v188h-361v16l244 341q110 150 122 170h15v-507h130zM395 678h-2q-10 -18 -167 -236l-48 -66l-79 -108q-15 -20 -43 -60h337v162q0 66 1 183.5t1 124.5z" />
    <glyph glyph-name="five.plf" horiz-adv-x="550" 
d="M80 341l37 374h349v-20h-332l-35 -337q68 88 183 88q96 0 155 -61t59 -165q0 -105 -62 -169.5t-164 -64.5q-96 0 -153.5 52t-68.5 147h20q7 -74 57.5 -126.5t144.5 -52.5q98 0 152 61t54 153q0 90 -51.5 148.5t-142.5 58.5q-49 0 -88.5 -16.5t-56.5 -32.5t-36 -41z" />
    <glyph glyph-name="six.plf" horiz-adv-x="589" 
d="M518 531h-20q-17 80 -60 129t-129 49q-221 0 -221 -362q0 -11 1 -46.5t1 -49.5h3q2 78 61 137t157 59q102 0 160.5 -61.5t58.5 -166.5t-63 -169t-165 -64q-115 0 -174.5 84.5t-59.5 270.5q0 201 61.5 294.5t181.5 93.5q170 0 207 -198zM311 427q-90 0 -148.5 -56.5
t-58.5 -147.5q0 -96 54 -156.5t144 -60.5q98 0 153.5 58t55.5 155q0 95 -52.5 151.5t-147.5 56.5z" />
    <glyph glyph-name="seven.plf" horiz-adv-x="499" 
d="M166 0h-23q66 157 159 351q143 302 164 344h-429v20h449v-18l-24 -52q-32 -70 -99 -210.5t-113 -241.5t-84 -193z" />
    <glyph glyph-name="eight.plf" horiz-adv-x="592" 
d="M296 6q96 0 156.5 48.5t60.5 133.5q0 83 -60 134t-157 51t-157 -51t-60 -134q0 -85 60.5 -133.5t156.5 -48.5zM296 388q83 0 135.5 47.5t52.5 117.5t-52 113t-136 43t-136 -43t-52 -113q0 -71 52 -118t136 -47zM296 729q94 0 151 -49.5t57 -126.5q0 -67 -39 -112.5
t-102 -58.5q79 -16 124.5 -67t45.5 -127q0 -93 -63 -147.5t-174 -54.5t-174 54.5t-63 147.5q0 76 45.5 127t124.5 67q-63 13 -102 58.5t-39 112.5q0 77 57 126.5t151 49.5z" />
    <glyph glyph-name="nine.plf" horiz-adv-x="589" 
d="M71 184h20q17 -80 60 -129t129 -49q221 0 221 362q0 11 -1 48t-1 50h-3q-4 -79 -61.5 -137.5t-156.5 -58.5q-102 0 -160.5 61t-58.5 166t63 168.5t165 63.5q114 0 174 -85t60 -270q0 -201 -61.5 -294.5t-181.5 -93.5q-173 0 -207 198zM278 290q89 0 148 56.5t59 147.5
q0 97 -53.5 156t-144.5 59q-98 0 -153.5 -57.5t-55.5 -154.5q0 -95 52.5 -151t147.5 -56z" />
    <glyph glyph-name="zero.posf" horiz-adv-x="615" 
d="M307 6q116 0 167.5 87.5t51.5 255.5q0 345 -219 345q-218 0 -218 -345q0 -168 51 -255.5t167 -87.5zM307 -14q-69 0 -116.5 27t-73.5 78t-37 113.5t-11 144.5q0 76 10 136.5t35 114.5t74 84t119 30q239 0 239 -365q0 -82 -11 -144.5t-37 -113.5t-74 -78t-117 -27z" />
    <glyph glyph-name="one.posf" horiz-adv-x="369" 
d="M237 0v557h-196v19h59q93 0 115.5 20t26.5 104h15v-700h-20z" />
    <glyph glyph-name="two.posf" horiz-adv-x="564" 
d="M507 0h-452v17q154 126 225 191q110 100 152.5 167t42.5 141q0 77 -50.5 128t-140.5 51q-190 0 -200 -194h-20q4 102 58.5 158t161.5 56q102 0 156.5 -56.5t54.5 -142.5q0 -49 -15.5 -92.5t-49.5 -86t-61 -69.5t-76 -70q-121 -110 -210 -178h424v-20z" />
    <glyph glyph-name="three.posf" horiz-adv-x="571" 
d="M55 192h20q13 -91 62.5 -138.5t146.5 -47.5q95 0 151.5 55.5t56.5 134.5q0 59 -34 100t-85 58t-116 17h-16v19q99 0 159 40.5t60 117.5q0 67 -45 107t-128 40q-84 0 -132.5 -41t-53.5 -116h-20q5 82 59 129.5t147 47.5q91 0 142 -44.5t51 -120.5q0 -69 -44 -112t-119 -55
v-2q82 -7 138.5 -53.5t56.5 -131.5q0 -93 -65.5 -151.5t-162.5 -58.5q-103 0 -162 52.5t-67 153.5z" />
    <glyph glyph-name="four.posf" horiz-adv-x="581" 
d="M544 204v-20h-130v-184h-20v184h-361v16l244 334q15 21 43 58t48 65t31 44h15v-497h130zM396 665h-2q-32 -52 -167 -232l-48 -64l-79 -106q-15 -19 -43 -59h337v159q0 64 1 179.5t1 122.5z" />
    <glyph glyph-name="five.posf" horiz-adv-x="553" 
d="M82 334l37 367h349v-20h-332l-35 -330q65 86 183 86q96 0 155 -60t59 -161q0 -103 -62 -166.5t-164 -63.5q-96 0 -153.5 51t-68.5 144h20q7 -73 57.5 -124t144.5 -51q98 0 152 59.5t54 150.5q0 87 -51.5 144.5t-142.5 57.5q-115 0 -181 -88z" />
    <glyph glyph-name="six.posf" horiz-adv-x="589" 
d="M518 521h-20q-17 78 -60 126t-129 48q-221 0 -221 -355q0 -40 2 -94h3q2 77 61 134.5t157 57.5q102 0 160.5 -60.5t58.5 -162.5q0 -104 -62.5 -166.5t-165.5 -62.5q-116 0 -175 82.5t-59 265.5q0 197 61.5 289t181.5 92q170 0 207 -194zM311 419q-90 0 -148.5 -55.5
t-58.5 -144.5q0 -95 54 -154t144 -59q98 0 153.5 57t55.5 152q0 93 -53 148.5t-147 55.5z" />
    <glyph glyph-name="seven.posf" horiz-adv-x="508" 
d="M172 0h-23q62 146 159 344q18 38 51.5 107t60.5 125t52 105h-429v20h449v-18l-24 -51q-27 -57 -98 -203t-115.5 -242t-82.5 -187z" />
    <glyph glyph-name="eight.posf" horiz-adv-x="594" 
d="M297 6q96 0 156.5 47.5t60.5 130.5q0 81 -60.5 131.5t-156.5 50.5t-156.5 -50.5t-60.5 -131.5q0 -83 60.5 -130.5t156.5 -47.5zM297 380q83 0 135.5 46.5t52.5 115.5t-52 111t-136 42t-136 -42t-52 -111q0 -70 52 -116t136 -46zM297 715q94 0 151 -48.5t57 -124.5
q0 -65 -39.5 -110t-101.5 -57q79 -16 124.5 -66.5t45.5 -124.5q0 -91 -63 -144.5t-174 -53.5t-174 53.5t-63 144.5q0 74 45.5 124.5t124.5 66.5q-62 12 -101.5 57t-39.5 110q0 76 57 124.5t151 48.5z" />
    <glyph glyph-name="nine.posf" horiz-adv-x="590" 
d="M72 180h20q17 -78 60 -126t129 -48q221 0 221 355q0 42 -2 96h-3q-4 -78 -61.5 -135t-156.5 -57q-102 0 -160.5 59.5t-58.5 162.5q0 104 62.5 166t165.5 62q115 0 174.5 -83t59.5 -265q0 -197 -61.5 -289t-181.5 -92q-91 0 -141.5 52.5t-65.5 141.5zM279 284
q89 0 148 55.5t59 144.5q0 95 -53.5 153t-144.5 58q-98 0 -153.5 -56.5t-55.5 -151.5q0 -94 52.5 -148.5t147.5 -54.5z" />
    </font>
</defs>
</svg>
