<?xml version="1.0" standalone="no"?>
<!DOCTYPE svg PUBLIC "-//W3C//DTD SVG 1.1//EN" "http://www.w3.org/Graphics/SVG/1.1/DTD/svg11.dtd" >
<svg>
<metadata>
Created by FontForge 20120731 at Tue Dec 15 21:08:28 2015
 By ,,,
Copyright 2014 Dalton Maag Ltd. Modification of this file requires prior written permission from Dalton Maag Ltd.
</metadata>
<defs>
<font id="Prometo-BlackItalic" horiz-adv-x="404" >
  <font-face 
    font-family="Prometo"
    font-weight="900"
    font-style="italic"
    font-stretch="normal"
    units-per-em="1000"
    panose-1="2 11 9 4 3 2 3 13 2 3"
    ascent="800"
    descent="-200"
    x-height="530"
    cap-height="712"
    bbox="-258 -291 1387 994"
    underline-thickness="93"
    underline-position="-54"
    slope="-11"
    unicode-range="U+0008-FB04"
  />
<missing-glyph horiz-adv-x="500" 
d="M450 0h-400v750h400v-750zM100 50h300v650h-300v-650z" />
    <glyph glyph-name="uniF603" unicode="ft" horiz-adv-x="837" 
d="M394 360h-118l-70 -360h-220l96 495q27 141 97.5 195.5t197.5 54.5q90 0 148 -5l-60 -154q-54 2 -75 2q-41 0 -59 -16t-25 -56h148zM806 372h-122l-28 -145q-2 -5 -2 -22q0 -42 54 -42q42 0 96 2l-64 -165q-48 -2 -126 -2q-92 0 -138.5 43t-46.5 122q0 24 7 64l82 422
l225 28l-29 -147h153z" />
    <glyph glyph-name="uniFB00" unicode="ff" horiz-adv-x="772" 
d="M767 360h-113l-70 -360h-220l96 495q27 141 97.5 195.5t197.5 54.5q86 0 144 -5l-60 -154q-50 2 -71 2q-41 0 -59 -16t-25 -56h143zM366 360h-90l-70 -360h-220l96 495q27 141 97.5 195.5t197.5 54.5q73 0 126 -5l-60 -154q-46 2 -53 2q-41 0 -59 -16t-25 -56h120z" />
    <glyph glyph-name="uniFB01" unicode="fi" horiz-adv-x="672" 
d="M369 360h-93l-70 -360h-220l96 495q27 140 102.5 195t209.5 55q144 0 237 -5l-60 -154q-32 0 -91.5 1t-72.5 1q-50 0 -71 -15.5t-30 -56.5h123zM364 0l103 530h220l-103 -530h-220z" />
    <glyph glyph-name="uniFB02" unicode="fl" horiz-adv-x="673" 
d="M355 360h-79l-70 -360h-220l96 495q27 141 96.5 195.5t196.5 54.5q71 0 103 -4l-60 -154q-6 0 -17 0.5t-13 0.5q-41 0 -58 -15.5t-24 -56.5h109zM365 0l144 743h220l-144 -743h-220z" />
    <glyph glyph-name="uniFB03" unicode="ffi" horiz-adv-x="1050" 
d="M747 360h-93l-70 -360h-220l96 495q27 140 102.5 195t209.5 55q144 0 237 -5l-60 -154q-32 0 -91.5 1t-72.5 1q-50 0 -71 -15.5t-30 -56.5h123zM366 360h-90l-70 -360h-220l96 495q27 141 97.5 195.5t197.5 54.5q73 0 126 -5l-60 -154q-46 2 -53 2q-41 0 -59 -16t-25 -56
h120zM742 0l103 530h220l-103 -530h-220z" />
    <glyph glyph-name="uniFB04" unicode="ffl" horiz-adv-x="1051" 
d="M366 360h-90l-70 -360h-220l96 495q27 141 97.5 195.5t197.5 54.5q73 0 126 -5l-60 -154q-46 2 -53 2q-41 0 -59 -16t-25 -56h120zM733 360h-79l-70 -360h-220l96 495q27 141 96.5 195.5t196.5 54.5q71 0 103 -4l-60 -154q-6 0 -17 0.5t-13 0.5q-41 0 -58 -15.5
t-24 -56.5h109zM743 0l144 743h220l-144 -743h-220z" />
    <glyph glyph-name="f_f_t.liga" unicode="fft" horiz-adv-x="1215" 
d="M772 360h-118l-70 -360h-220l96 495q27 141 97.5 195.5t197.5 54.5q90 0 148 -5l-60 -154q-54 2 -75 2q-41 0 -59 -16t-25 -56h148zM366 360h-90l-70 -360h-220l96 495q27 141 97.5 195.5t197.5 54.5q73 0 126 -5l-60 -154q-46 2 -53 2q-41 0 -59 -16t-25 -56h120z
M1184 372h-122l-28 -145q-2 -5 -2 -22q0 -42 54 -42q42 0 96 2l-64 -165q-48 -2 -126 -2q-92 0 -138.5 43t-46.5 122q0 24 7 64l82 422l225 28l-29 -147h153z" />
    <glyph glyph-name=".notdef" horiz-adv-x="500" 
d="M450 0h-400v750h400v-750zM100 50h300v650h-300v-650z" />
    <glyph glyph-name=".null" horiz-adv-x="0" 
 />
    <glyph glyph-name="nonmarkingreturn" horiz-adv-x="333" 
 />
    <glyph glyph-name="uni0008" horiz-adv-x="0" 
 />
    <glyph glyph-name="uni0008" horiz-adv-x="0" 
 />
    <glyph glyph-name="uni0008" horiz-adv-x="0" 
 />
    <glyph glyph-name="uni0009" unicode="&#x9;" horiz-adv-x="210" 
 />
    <glyph glyph-name="uni0009" unicode="&#xd;" horiz-adv-x="210" 
 />
    <glyph glyph-name="space" unicode=" " horiz-adv-x="210" 
 />
    <glyph glyph-name="exclam" unicode="!" horiz-adv-x="304" 
d="M241 232h-190l8 96q9 99 28 193l37 191h230l-37 -191q-16 -82 -48 -193zM5 66q0 63 29.5 91.5t95.5 28.5q99 0 99 -79q0 -63 -29.5 -91.5t-95.5 -28.5q-99 0 -99 79z" />
    <glyph glyph-name="quotedbl" unicode="&#x22;" horiz-adv-x="488" 
d="M103 743h200l-20 -111q-12 -60 -30 -120l-33 -113h-167l11 113q6 60 17 120zM371 743h200l-20 -111q-12 -60 -30 -120l-33 -113h-167l11 113q6 60 17 120z" />
    <glyph glyph-name="numbersign" unicode="#" horiz-adv-x="706" 
d="M607 129h-83l-42 -129h-186l42 129h-82l-42 -129h-187l42 129h-87l62 162h79l32 98h-90l62 162h81l43 129h188l-43 -129h81l43 129h187l-43 -129h89l-62 -162h-81l-32 -98h91zM342 389l-32 -98h82l32 98h-82z" />
    <glyph glyph-name="dollar" unicode="$" horiz-adv-x="595" 
d="M467 682l166 -2l-69 -172q-107 1 -223 1q-44 0 -51 -24q-2 -5 -2 -10q0 -11 8 -17t28 -13l86 -28q80 -25 114.5 -66t34.5 -99q0 -21 -7 -61q-18 -88 -68 -132t-151 -56l-20 -114h-152l19 109l-198 3l66 172q67 -2 223 -2q35 0 48.5 5.5t19.5 21.5q3 8 3 13q0 20 -36 32
l-83 25q-84 24 -118 64t-34 100q0 23 5 56q17 94 76.5 136.5t161.5 53.5l23 118h152z" />
    <glyph glyph-name="percent" unicode="%" horiz-adv-x="998" 
d="M343 0h-189l529 680h189zM812 184l5 25q6 33 6 48t-5 19.5t-16 4.5q-17 0 -24.5 -12.5t-16.5 -60.5l-5 -25q-7 -40 -7 -48q0 -15 5 -19.5t17 -4.5q17 0 24.5 12.5t16.5 60.5zM976 217l-9 -47q-17 -94 -65 -136.5t-137 -42.5q-85 0 -129 35.5t-44 102.5q0 19 5 46l9 47
q17 94 65 136.5t137 42.5q85 0 129 -35.5t44 -102.5q0 -19 -5 -46zM267 475l5 25q6 33 6 48t-5 19.5t-16 4.5q-17 0 -24.5 -12.5t-16.5 -60.5l-5 -25q-7 -40 -7 -48q0 -15 5 -19.5t17 -4.5q17 0 24.5 12.5t16.5 60.5zM431 508l-9 -47q-17 -94 -65 -136.5t-137 -42.5
q-85 0 -129 35.5t-44 102.5q0 19 5 46l9 47q17 94 65 136.5t137 42.5q85 0 129 -35.5t44 -102.5q0 -19 -5 -46z" />
    <glyph glyph-name="ampersand" unicode="&#x26;" horiz-adv-x="648" 
d="M12 225q20 110 127 152q-59 38 -59 117q0 24 4 44q31 176 260 176q140 0 228 -2l-62 -158q-78 2 -121 2t-62 -9t-24 -34q-2 -5 -2 -20q0 -22 15 -31t47 -9h322l-60 -158h-38l-34 -173q-13 -65 -43 -90.5t-83 -32.5q-62 -9 -138 -9q-283 0 -283 180q0 26 6 55zM312 148
q21 0 36 3l29 144h-44q-40 0 -62.5 -12.5t-30.5 -44.5q-6 -24 -6 -40q0 -28 18 -39t60 -11z" />
    <glyph glyph-name="quotesingle" unicode="'" horiz-adv-x="220" 
d="M103 743h200l-20 -111q-12 -60 -30 -120l-33 -113h-167l11 113q6 60 17 120z" />
    <glyph glyph-name="parenleft" unicode="(" horiz-adv-x="405" 
d="M345 -18l-61 -157h-37q-140 0 -197.5 53.5t-57.5 155.5q0 53 15 133l39 202q38 195 112 269t229 74h100l-61 -157h-17q-72 0 -100.5 -34t-52.5 -153l-39 -201q-14 -73 -14 -108q0 -46 21.5 -61.5t74.5 -15.5h46z" />
    <glyph glyph-name="parenright" unicode=")" horiz-adv-x="405" 
d="M61 555l61 157h37q140 0 197.5 -53.5t57.5 -155.5q0 -53 -15 -133l-39 -202q-38 -195 -112 -269t-229 -74h-100l61 157h17q72 0 100.5 34t52.5 153l39 201q14 73 14 108q0 46 -21.5 61.5t-74.5 15.5h-46z" />
    <glyph glyph-name="asterisk" unicode="*" horiz-adv-x="469" 
d="M180 289l-116 98l93 93l-109 33l75 147l100 -47l17 116h166l-29 -115l107 41l32 -146l-121 -33l64 -105l-146 -78l-46 98z" />
    <glyph glyph-name="plus" unicode="+" horiz-adv-x="595" 
d="M456 586l-30 -155h155l-35 -179h-155l-30 -155h-193l30 155h-155l35 179h155l30 155h193z" />
    <glyph glyph-name="comma" unicode="," horiz-adv-x="238" 
d="M-27 78q0 116 125 116q99 0 99 -81q0 -24 -8.5 -47.5t-16.5 -36.5t-30 -46l-102 -146h-147l100 190q-20 18 -20 51z" />
    <glyph glyph-name="hyphen" unicode="-" horiz-adv-x="422" 
d="M369 203h-375l72 189h375z" />
    <glyph glyph-name="period" unicode="." horiz-adv-x="238" 
d="M-27 69q0 66 29.5 95t95.5 29q99 0 99 -82q0 -66 -29.5 -95t-95.5 -29q-99 0 -99 82z" />
    <glyph glyph-name="slash" unicode="/" horiz-adv-x="474" 
d="M328 712h231l-377 -712h-231z" />
    <glyph glyph-name="zero" unicode="0" horiz-adv-x="612" 
d="M366 310l11 57q17 88 17 119q0 23 -8.5 32t-29.5 9q-34 0 -47.5 -27.5t-34.5 -131.5l-11 -56q-18 -93 -18 -119q0 -23 9 -31.5t30 -8.5q34 0 49 29t33 128zM39 300l17 88q31 163 102 235.5t214 72.5q242 0 242 -209q0 -49 -12 -107l-17 -88q-31 -163 -102 -235.5
t-214 -72.5q-126 0 -184 52.5t-58 156.5q0 49 12 107z" />
    <glyph glyph-name="one" unicode="1" horiz-adv-x="474" 
d="M64 513l64 167h306l-100 -513h116l-64 -167h-427l64 167h89l67 346h-115z" />
    <glyph glyph-name="two" unicode="2" horiz-adv-x="546" 
d="M71 509l65 171q59 2 227 2q100 0 148 -41.5t48 -116.5q0 -28 -6 -58q-14 -68 -49.5 -108t-110.5 -72l-128 -53q-20 -8 -29 -19t-14 -34l-2 -8h296l-64 -172h-476l33 167q17 87 54 137.5t122 84.5l103 42q45 20 52 33q5 8 5 21q0 26 -37 26q-48 0 -122.5 -1t-114.5 -1z
" />
    <glyph glyph-name="three" unicode="3" horiz-adv-x="539" 
d="M541 470q-17 -87 -95 -124q60 -39 60 -122q0 -16 -3 -36q-17 -99 -87.5 -144.5t-200.5 -45.5q-193 0 -250 2l64 167q43 -2 195 -2q57 0 62 47q1 3 1 13q0 20 -11 27.5t-35 7.5h-180l62 160h142q56 0 61 48q1 3 1 13q0 33 -45 33q-16 0 -92 -0.5t-125 -0.5l64 167
q17 0 89 1t107 1q118 0 170 -44.5t52 -115.5q0 -26 -6 -52z" />
    <glyph glyph-name="four" unicode="4" horiz-adv-x="596" 
d="M563 456l-35 -177h66l-63 -164h-35l-22 -115h-201l22 115h-297l17 136l266 429h209l-250 -401h87l29 146z" />
    <glyph glyph-name="five" unicode="5" horiz-adv-x="548" 
d="M209 165q77 0 87 55q1 5 1 15q0 22 -12.5 30.5t-40.5 8.5h-206l80 406h456l-63 -167h-227l-15 -77h25q222 0 222 -173q0 -36 -7 -70q-22 -101 -97.5 -148t-225.5 -47q-169 0 -212 2l60 167q39 -2 175 -2z" />
    <glyph glyph-name="six" unicode="6" horiz-adv-x="577" 
d="M342 213q3 18 3 32q0 52 -47 52q-27 0 -42 -15t-23 -53q-3 -18 -3 -32q0 -52 47 -52q27 0 42 15t23 53zM592 680l-64 -168q-10 0 -34 1t-71 1q-73 0 -102 -14.5t-46 -65.5q31 19 77 19q198 0 198 -183q0 -30 -6 -64q-38 -221 -271 -221q-127 0 -186 52t-59 156
q0 51 11 105l13 66q22 114 60.5 181t111.5 102.5t189 35.5q128 0 179 -3z" />
    <glyph glyph-name="seven" unicode="7" horiz-adv-x="529" 
d="M289 0h-238l277 502h-272l69 178h458l-17 -144z" />
    <glyph glyph-name="eight" unicode="8" horiz-adv-x="588" 
d="M547 184q-18 -101 -86 -150.5t-202 -49.5q-132 0 -191.5 47.5t-59.5 124.5q0 20 3 39q21 123 131 167q-58 37 -58 113q0 9 2 27q22 194 271 194q113 0 175.5 -40.5t62.5 -122.5q0 -17 -5 -49q-18 -92 -109 -130q70 -39 70 -126q0 -23 -4 -44zM221 212q-3 -15 -3 -26
q0 -47 58 -47q32 0 47 14.5t21 46.5q3 14 3 25q0 24 -13 36t-44 12q-57 0 -69 -61zM278 489q-2 -5 -2 -22q0 -43 55 -43q28 0 43 12.5t20 41.5q2 5 2 22q0 43 -55 43q-52 0 -63 -54z" />
    <glyph glyph-name="nine" unicode="9" horiz-adv-x="573" 
d="M371 452q3 18 3 32q0 52 -47 52q-27 0 -42 -15t-23 -53q-3 -18 -3 -32q0 -52 47 -52q27 0 42 15t23 53zM12 1l64 168q10 0 34 -1t71 -1q72 0 101.5 14.5t46.5 65.5q-31 -19 -77 -19q-198 0 -198 183q0 29 6 64q38 221 271 221q127 0 186 -52t59 -156q0 -51 -11 -105
l-13 -66q-22 -114 -60.5 -181t-111.5 -102.5t-189 -35.5q-128 0 -179 3z" />
    <glyph glyph-name="colon" unicode=":" horiz-adv-x="238" 
d="M-27 69q0 66 29.5 95t95.5 29q99 0 99 -82q0 -66 -29.5 -95t-95.5 -29q-99 0 -99 82zM40 411q0 66 29.5 95t95.5 29q99 0 99 -82q0 -66 -29.5 -95t-95.5 -29q-99 0 -99 82z" />
    <glyph glyph-name="semicolon" unicode=";" horiz-adv-x="238" 
d="M-27 78q0 116 125 116q99 0 99 -81q0 -24 -8.5 -47.5t-16.5 -36.5t-30 -46l-102 -146h-147l100 190q-20 18 -20 51zM40 411q0 66 29.5 95t95.5 29q99 0 99 -82q0 -66 -29.5 -95t-95.5 -29q-99 0 -99 82z" />
    <glyph glyph-name="less" unicode="&#x3c;" horiz-adv-x="595" 
d="M541 417l-258 -81l227 -82l-35 -179l-396 167l38 197l461 169z" />
    <glyph glyph-name="equal" unicode="=" horiz-adv-x="595" 
d="M76 307h459l-33 -170h-459zM122 546h459l-33 -170h-459z" />
    <glyph glyph-name="greater" unicode="&#x3e;" horiz-adv-x="595" 
d="M46 75l37 191l257 80l-226 83l35 179l396 -167l-38 -197z" />
    <glyph glyph-name="question" unicode="?" horiz-adv-x="508" 
d="M48 66q0 63 29.5 91.5t95.5 28.5q99 0 99 -79q0 -63 -29.5 -91.5t-95.5 -28.5q-99 0 -99 79zM63 540l67 175q32 2 201 2q107 0 159.5 -40t52.5 -126q0 -19 -3 -40q-9 -78 -51 -119.5t-123 -75.5q-40 -18 -55 -31.5t-21 -44.5l-2 -12h-204l2 13q15 96 45 129.5t122 74.5
q39 17 50.5 26t15.5 28l2 14q0 29 -43 29q-162 0 -215 -2z" />
    <glyph glyph-name="at" unicode="@" horiz-adv-x="846" 
d="M687 -60l-61 -164q-65 -4 -180 -4q-227 0 -333.5 66t-106.5 229q0 70 14 135q20 108 55 177.5t93 110.5t133 57t186 16q333 0 333 -213q0 -33 -7 -65l-31 -161q-14 -69 -46 -95.5t-101 -32.5q-72 -5 -125 -5q-122 0 -175.5 33t-53.5 106q0 26 6 58q27 144 206 144
q85 0 119 -25l3 13q2 14 2 20q0 32 -31.5 44.5t-107.5 12.5q-121 0 -177 -39.5t-76 -145.5q-15 -85 -15 -125q0 -87 62.5 -118.5t232.5 -31.5q118 0 182 3zM529 127q25 0 45 3l7 34q2 14 2 16q0 32 -46 32q-24 0 -35 -8.5t-15 -29.5q-2 -14 -2 -19q0 -17 10 -22.5t34 -5.5z
" />
    <glyph glyph-name="A" unicode="A" horiz-adv-x="750" 
d="M464 0l-10 136h-205l-62 -136h-233l374 712h268l98 -712h-230zM425 519l-97 -210h113z" />
    <glyph glyph-name="B" unicode="B" horiz-adv-x="661" 
d="M353 0h-363l139 712h319q102 0 161 -39.5t59 -122.5q0 -24 -6 -54q-9 -46 -37.5 -79.5t-67.5 -49.5q78 -32 78 -133q0 -26 -2 -34q-15 -109 -85 -154.5t-195 -45.5zM353 289h-97l-23 -121h99q43 0 61.5 11.5t23.5 41.5q2 16 2 23q0 25 -15.5 35t-50.5 10zM395 544h-89
l-20 -101h93q34 0 49.5 10.5t19.5 34.5q2 14 2 18q0 38 -55 38z" />
    <glyph glyph-name="C" unicode="C" horiz-adv-x="586" 
d="M563 192l-73 -190q-47 -4 -155 -4q-297 0 -297 261q0 52 10 108q35 193 137 270t287 77q75 0 176 -5l-73 -189q-62 3 -127 3q-67 0 -105 -38.5t-58 -126.5q-9 -44 -9 -74q0 -55 26 -75t71 -20q122 0 190 3z" />
    <glyph glyph-name="D" unicode="D" horiz-adv-x="718" 
d="M-10 0l139 712h262q162 0 243 -64.5t81 -202.5q0 -45 -9 -98q-16 -104 -54.5 -174t-98 -107t-127 -51.5t-158.5 -14.5h-278zM358 520h-38l-64 -328h42q57 0 87 11t51.5 46t34.5 107q8 50 8 75q0 53 -27.5 71t-93.5 18z" />
    <glyph glyph-name="E" unicode="E" horiz-adv-x="606" 
d="M514 0h-524l139 712h548l-69 -179h-292l-17 -85h286l-68 -177h-252l-18 -92h335z" />
    <glyph glyph-name="F" unicode="F" horiz-adv-x="577" 
d="M485 248h-224l-49 -248h-222l139 712h529l-70 -181h-272l-22 -109h258z" />
    <glyph glyph-name="G" unicode="G" horiz-adv-x="686" 
d="M278 358q-9 -45 -9 -77q0 -49 22 -72t72 -23h57l17 77h-85l63 164h267l-60 -309q-11 -56 -37 -81t-78 -33q-44 -6 -172 -6q-298 0 -298 261q0 47 11 108q21 107 58 176.5t96 106.5t126 50.5t164 13.5q78 0 215 -5l-72 -186q-68 3 -192 3q-71 0 -109 -37.5t-56 -130.5z
" />
    <glyph glyph-name="H" unicode="H" horiz-adv-x="731" 
d="M405 0l50 259h-183l-50 -259h-232l139 712h232l-49 -250h183l49 250h232l-139 -712h-232z" />
    <glyph glyph-name="I" unicode="I" horiz-adv-x="316" 
d="M361 712l-139 -712h-232l139 712h232z" />
    <glyph glyph-name="J" unicode="J" horiz-adv-x="483" 
d="M211 275l85 437h232l-85 -437q-30 -150 -102 -213.5t-213 -63.5q-143 0 -174 3l71 187q27 -1 74 -1q52 0 77.5 20t34.5 68z" />
    <glyph glyph-name="K" unicode="K" horiz-adv-x="706" 
d="M347 712l-53 -268l221 268h255l-302 -352l195 -360h-270l-132 275l-53 -275h-218l139 712h218z" />
    <glyph glyph-name="L" unicode="L" horiz-adv-x="576" 
d="M361 712l-102 -523h297l-72 -189h-494l139 712h232z" />
    <glyph glyph-name="M" unicode="M" horiz-adv-x="831" 
d="M737 0h-211l73 375l-111 -181h-174l-40 179l-73 -373h-211l139 712h236l75 -313l198 313h238z" />
    <glyph glyph-name="N" unicode="N" horiz-adv-x="724" 
d="M449 0l-176 350l-68 -350h-215l139 712h175l182 -360l70 360h213l-139 -712h-181z" />
    <glyph glyph-name="O" unicode="O" horiz-adv-x="740" 
d="M353 174q64 0 89.5 32t45.5 144q12 66 12 105q0 48 -18 66.5t-58 18.5q-62 0 -89.5 -34t-47.5 -143q-12 -65 -12 -104q0 -49 18.5 -67t59.5 -18zM726 345q-37 -199 -129.5 -281t-261.5 -82q-150 0 -224 65t-74 200q0 55 12 121q37 200 129 282t262 82q150 0 224 -65.5
t74 -201.5q0 -54 -12 -120z" />
    <glyph glyph-name="P" unicode="P" horiz-adv-x="661" 
d="M328 197h-74l-38 -197h-226l139 712h261q143 0 215 -50.5t72 -156.5q0 -30 -6 -66q-23 -134 -110.5 -188t-232.5 -54zM320 533l-31 -158h54q53 0 74.5 15t29.5 55q3 17 3 30q0 32 -18.5 45t-58.5 13h-53z" />
    <glyph glyph-name="Q" unicode="Q" horiz-adv-x="740" 
d="M726 345q-27 -147 -84 -229t-149 -112l141 -135h-245l-122 117q-116 14 -173 78.5t-57 182.5q0 55 12 121q37 200 129 282t262 82q150 0 224 -65.5t74 -201.5q0 -54 -12 -120zM351 165q65 0 91.5 34.5t45.5 150.5q12 66 12 105q0 48 -18 66.5t-58 18.5q-62 0 -89.5 -34
t-47.5 -143q-12 -69 -12 -109q0 -50 18 -69.5t58 -19.5z" />
    <glyph glyph-name="R" unicode="R" horiz-adv-x="670" 
d="M386 0l-70 220h-67l-43 -220h-216l139 712h278q273 0 273 -201q0 -34 -5 -60q-26 -148 -154 -202l88 -249h-223zM311 536l-29 -146h70q52 0 73.5 13.5t29.5 51.5q3 15 3 27q0 29 -19 41.5t-59 12.5h-69z" />
    <glyph glyph-name="S" unicode="S" horiz-adv-x="611" 
d="M658 711l-70 -178q-226 2 -236 2q-46 0 -54 -23q-2 -8 -2 -15q0 -18 37 -30l92 -29q85 -27 121 -70t36 -105q0 -23 -7 -63q-23 -110 -97 -156t-237 -46q-133 0 -271 3l68 178q70 -2 237 -2q39 0 53.5 6.5t18.5 26.5q1 3 1 10q0 21 -36 32l-88 27q-89 27 -125.5 68.5
t-36.5 102.5q0 28 6 59q11 60 40 101.5t74.5 63.5t97.5 31t121 9q108 0 257 -3z" />
    <glyph glyph-name="T" unicode="T" horiz-adv-x="688" 
d="M691 523h-184l-102 -523h-232l102 523h-220l72 189h636z" />
    <glyph glyph-name="U" unicode="U" horiz-adv-x="722" 
d="M535 712h232l-85 -434q-30 -157 -110.5 -226.5t-238.5 -69.5q-295 0 -295 224q0 41 9 86l82 420h232l-85 -434q-4 -17 -4 -39q0 -32 16.5 -48.5t58.5 -16.5q49 0 70 22.5t33 81.5z" />
    <glyph glyph-name="V" unicode="V" horiz-adv-x="716" 
d="M89 712h242l24 -458l202 458h244l-360 -712h-270z" />
    <glyph glyph-name="W" unicode="W" horiz-adv-x="991" 
d="M769 0h-245l1 398l-153 -398h-254l-26 712h232l-14 -445l170 445h206l-2 -446l160 446h229z" />
    <glyph glyph-name="X" unicode="X" horiz-adv-x="742" 
d="M434 0l-76 198l-161 -198h-254l328 379l-145 333h246l60 -171l125 171h254l-290 -350l170 -362h-257z" />
    <glyph glyph-name="Y" unicode="Y" horiz-adv-x="707" 
d="M86 712h251l50 -253l153 253h254l-324 -434l-54 -278h-228l54 278z" />
    <glyph glyph-name="Z" unicode="Z" horiz-adv-x="641" 
d="M660 553l-356 -372h306l-70 -181h-569l30 154l359 377h-286l69 181h548z" />
    <glyph glyph-name="bracketleft" unicode="[" horiz-adv-x="416" 
d="M355 -16l-61 -159h-338l173 888h367l-61 -159h-130l-111 -570h161z" />
    <glyph glyph-name="backslash" unicode="\" horiz-adv-x="474" 
d="M89 712h207l125 -712h-207z" />
    <glyph glyph-name="bracketright" unicode="]" horiz-adv-x="416" 
d="M62 554l61 159h338l-173 -888h-367l61 159h130l111 570h-161z" />
    <glyph glyph-name="asciicircum" unicode="^" horiz-adv-x="595" 
d="M404 389l-44 165l-106 -165h-210l225 323h231l100 -323h-196z" />
    <glyph glyph-name="underscore" unicode="_" horiz-adv-x="500" 
d="M-88 -190l35 179h500l-35 -179h-500z" />
    <glyph glyph-name="grave" unicode="`" horiz-adv-x="500" 
d="M404 746l76 -149h-195l-109 149h228z" />
    <glyph glyph-name="a" unicode="a" horiz-adv-x="581" 
d="M212 -9q-207 0 -207 141q0 29 7 56q16 73 67 108.5t154 35.5q81 0 114 -25l3 15q2 14 2 19q0 43 -59 43q-167 0 -216 -2l55 148q66 2 181 2q120 0 181.5 -40t61.5 -134q0 -30 -8 -73l-31 -161q-14 -69 -43 -95.5t-95 -32.5q-58 -5 -167 -5zM271 212q-27 0 -40 -8t-18 -31
q-3 -15 -3 -25q0 -17 11 -23.5t41 -6.5q28 0 48 4l9 42q2 14 2 15q0 33 -50 33z" />
    <glyph glyph-name="b" unicode="b" horiz-adv-x="605" 
d="M130 743h220l-42 -217q33 18 85 18q192 0 192 -200q0 -42 -9 -92q-24 -139 -96.5 -203.5t-205.5 -64.5q-121 0 -183 46.5t-62 149.5q0 40 9 88zM287 153q28 0 42 20t26 80q11 50 11 80q0 27 -9 35.5t-29 8.5q-28 0 -42 -19.5t-26 -79.5q-11 -50 -11 -80q0 -27 9 -36
t29 -9z" />
    <glyph glyph-name="c" unicode="c" horiz-adv-x="487" 
d="M268 -2q-136 0 -192 51t-56 144q0 34 8 84q13 77 43.5 129t76 78.5t94 37t110.5 10.5q99 0 162 -3l-64 -168q-16 0 -48 1t-58 1q-39 0 -61.5 -18.5t-32.5 -70.5q-7 -40 -7 -55q0 -31 16.5 -41.5t60.5 -10.5q42 0 136 2l-64 -169q-86 -2 -124 -2z" />
    <glyph glyph-name="d" unicode="d" horiz-adv-x="602" 
d="M300 544q58 0 96 -18l42 217h220l-120 -619q-13 -71 -46.5 -96t-103.5 -32q-27 -5 -100 -5q-131 0 -198.5 46.5t-67.5 157.5q0 44 10 95q28 142 96 198t172 56zM287 160q17 0 38 3l27 137q4 17 4 36q0 22 -10 30.5t-31 8.5q-26 0 -39 -19t-25 -76q-10 -41 -10 -73
q0 -26 10.5 -36.5t35.5 -10.5z" />
    <glyph glyph-name="e" unicode="e" horiz-adv-x="565" 
d="M303 203h-76v-6q0 -28 16 -39.5t56 -11.5q136 0 192 4l-57 -147q-62 -5 -188 -5q-124 0 -175 51t-51 141q0 29 7 76q11 67 33 117.5t50.5 81t67.5 49t78 25.5t88 7q216 0 216 -153q0 -30 -7 -57q-17 -77 -77 -105t-173 -28zM325 398q-33 0 -48.5 -15t-26.5 -57h55
q27 0 39.5 5.5t17.5 21.5q2 10 2 16q0 29 -39 29z" />
    <glyph glyph-name="f" unicode="f" horiz-adv-x="394" 
d="M389 360h-113l-70 -360h-220l96 495q27 141 97.5 195.5t197.5 54.5q86 0 144 -5l-60 -154q-50 2 -71 2q-41 0 -59 -16t-25 -56h143z" />
    <glyph glyph-name="g" unicode="g" horiz-adv-x="604" 
d="M304 41l1 5q-35 -18 -86 -18q-95 0 -144.5 49.5t-49.5 143.5q0 40 7 75q42 250 297 250q249 0 249 -191q0 -31 -8 -76l-44 -228q-24 -120 -97.5 -174t-202.5 -54q-143 0 -239 4l62 158q96 -2 165 -2q43 0 63 12.5t27 45.5zM316 382q-24 0 -38 -16.5t-25 -67.5
q-9 -42 -9 -64q0 -27 9.5 -35.5t30.5 -8.5q24 0 38 16.5t25 67.5q9 42 9 64q0 27 -9.5 35.5t-30.5 8.5z" />
    <glyph glyph-name="h" unicode="h" horiz-adv-x="599" 
d="M267 315l-61 -315h-220l144 743h220l-43 -219q40 22 94 22q178 0 178 -162q0 -30 -8 -75l-60 -309h-220l61 315q3 13 3 23q0 32 -36 32q-24 0 -35 -12.5t-17 -42.5z" />
    <glyph glyph-name="i" unicode="i" horiz-adv-x="294" 
d="M-14 0l103 530h220l-103 -530h-220zM234 755q107 0 107 -69q0 -61 -34.5 -85t-100.5 -24q-107 0 -107 69q0 61 34.5 85t100.5 24z" />
    <glyph glyph-name="j" unicode="j" horiz-adv-x="294" 
d="M-6 44l95 486h220l-97 -499q-21 -110 -79.5 -159t-166.5 -49q-73 0 -145 4l57 151q15 -1 46 -1q29 0 45.5 15.5t24.5 51.5zM234 755q107 0 107 -69q0 -61 -34.5 -85t-100.5 -24q-107 0 -107 69q0 61 34.5 85t100.5 24z" />
    <glyph glyph-name="k" unicode="k" horiz-adv-x="618" 
d="M330 0l-94 206l-40 -206h-210l144 743h210l-76 -389l161 176h236l-239 -251l150 -279h-242z" />
    <glyph glyph-name="l" unicode="l" horiz-adv-x="294" 
d="M-14 0l144 743h220l-144 -743h-220z" />
    <glyph glyph-name="m" unicode="m" horiz-adv-x="884" 
d="M564 322l-63 -322h-220l61 322q2 14 2 20q0 28 -31 28q-21 0 -30.5 -10.5t-14.5 -37.5l-62 -322h-219l60 315q24 122 87 176.5t180 54.5q112 0 159 -54q54 54 168 54q220 0 220 -176q0 -36 -7 -71l-58 -299h-220l62 322q2 14 2 20q0 28 -31 28q-21 0 -30.5 -10.5
t-14.5 -37.5z" />
    <glyph glyph-name="n" unicode="n" horiz-adv-x="599" 
d="M267 315l-61 -315h-220l61 315q24 128 89.5 179.5t203.5 51.5q123 0 180 -43t57 -132q0 -29 -8 -72l-58 -299h-220l61 315q3 13 3 23q0 32 -36 32q-24 0 -35 -12.5t-17 -42.5z" />
    <glyph glyph-name="o" unicode="o" horiz-adv-x="597" 
d="M278 153q28 0 42 20t26 80q11 50 11 80q0 27 -9 35.5t-29 8.5q-28 0 -42 -19.5t-26 -79.5q-11 -50 -11 -80q0 -27 9 -36t29 -9zM338 546q122 0 180.5 -47.5t58.5 -151.5q0 -45 -10 -95q-26 -144 -99 -206t-209 -62q-122 0 -180.5 47.5t-58.5 151.5q0 45 10 95
q26 144 99 206t209 62z" />
    <glyph glyph-name="p" unicode="p" horiz-adv-x="605" 
d="M172 -175h-220l88 456q27 141 96 203t206 62q124 0 183.5 -46.5t59.5 -151.5q0 -46 -10 -97q-26 -139 -92.5 -203.5t-176.5 -64.5q-55 0 -100 20zM287 153q28 0 42 20t26 80q11 50 11 80q0 27 -9 35.5t-29 8.5q-28 0 -42 -19.5t-26 -79.5q-11 -50 -11 -80q0 -27 9 -36
t29 -9z" />
    <glyph glyph-name="q" unicode="q" horiz-adv-x="604" 
d="M482 -175h-220l35 178q-36 -17 -85 -17q-192 0 -192 200q0 42 9 92q24 139 96 203.5t206 64.5q123 0 184.5 -46t61.5 -148q0 -43 -10 -90zM277 153q28 0 42 20t26 80q11 50 11 80q0 27 -9 35.5t-29 8.5q-28 0 -42 -19.5t-26 -79.5q-11 -50 -11 -80q0 -27 9 -36t29 -9z
" />
    <glyph glyph-name="r" unicode="r" horiz-adv-x="396" 
d="M318 533q113 0 138 -2l-67 -177q-40 2 -52 2q-37 0 -51.5 -14.5t-23.5 -52.5l-56 -289h-220l58 300q25 132 89.5 182.5t184.5 50.5z" />
    <glyph glyph-name="s" unicode="s" horiz-adv-x="506" 
d="M266 351l85 -21q118 -28 118 -130q0 -29 -7 -58q-17 -77 -84.5 -110.5t-185.5 -33.5q-147 0 -224 3l50 145q28 0 100 -1t105 -1q19 0 26 3q9 5 9 16t-24 17l-89 22q-111 29 -111 132q0 17 5 44q18 83 82 118.5t184 35.5q29 0 218 -4l-54 -146q-168 4 -192 4q-15 0 -25 -3
q-10 -4 -10 -15t24 -17z" />
    <glyph glyph-name="t" unicode="t" horiz-adv-x="426" 
d="M400 372h-122l-28 -145q-2 -5 -2 -22q0 -42 54 -42q42 0 96 2l-64 -165q-48 -2 -126 -2q-92 0 -138.5 43t-46.5 122q0 24 7 64l82 422l225 28l-29 -147h153z" />
    <glyph glyph-name="u" unicode="u" horiz-adv-x="599" 
d="M332 215l61 315h220l-61 -315q-24 -128 -89.5 -179.5t-203.5 -51.5q-122 0 -179.5 43t-57.5 132q0 29 8 72l58 299h220l-61 -315q-3 -14 -3 -23q0 -32 36 -32q24 0 35 12.5t17 42.5z" />
    <glyph glyph-name="v" unicode="v" horiz-adv-x="587" 
d="M283 530v-319l124 319h229l-261 -530h-265l-57 530h230z" />
    <glyph glyph-name="w" unicode="w" horiz-adv-x="811" 
d="M404 0l-1 261l-102 -261h-210l-38 530h213l-17 -301l118 301h179l1 -301l99 301h214l-254 -530h-202z" />
    <glyph glyph-name="x" unicode="x" horiz-adv-x="609" 
d="M643 530l-226 -266l136 -264h-235l-47 117l-86 -117h-231l239 284l-123 246h230l41 -108l73 108h229z" />
    <glyph glyph-name="y" unicode="y" horiz-adv-x="599" 
d="M300 45l1 5q-40 -22 -94 -22q-178 0 -178 161q0 44 8 76l52 265h220l-53 -271q-3 -13 -3 -23q0 -32 36 -32q24 0 35 12.5t17 42.5l53 271h220l-93 -479q-23 -120 -96.5 -174t-203.5 -54q-143 0 -239 4l62 158q96 -2 165 -2q44 0 64 13t27 49z" />
    <glyph glyph-name="z" unicode="z" horiz-adv-x="542" 
d="M535 400l-241 -239h205l-61 -161h-456l25 130l236 239h-195l61 161h451z" />
    <glyph glyph-name="braceleft" unicode="{" horiz-adv-x="425" 
d="M333 485l-18 -93q-10 -53 -32.5 -81t-71.5 -42q59 -17 59 -91q0 -16 -3 -34l-18 -93q-3 -16 -3 -29q0 -23 13 -32.5t45 -9.5h64l-60 -155h-65q-208 0 -208 151q0 24 4 45l20 103q3 14 3 24q0 37 -40 37h-29l32 168h30q28 0 41 14.5t19 45.5l20 104q22 106 86.5 151
t182.5 45h106l-60 -155h-33q-41 0 -58.5 -15.5t-25.5 -57.5z" />
    <glyph glyph-name="bar" unicode="|" horiz-adv-x="308" 
d="M-44 -175l179 918h224l-179 -918h-224z" />
    <glyph glyph-name="braceright" unicode="}" horiz-adv-x="425" 
d="M94 53l18 93q10 53 32.5 81t71.5 42q-59 17 -59 91q0 16 3 34l18 93q3 17 3 29q0 23 -13 32.5t-45 9.5h-64l60 155h65q208 0 208 -151q0 -24 -4 -45l-20 -103q-3 -14 -3 -24q0 -37 40 -37h29l-32 -168h-30q-28 0 -41 -14.5t-19 -45.5l-20 -104q-22 -106 -86.5 -151
t-182.5 -45h-106l60 155h33q41 0 58.5 15.5t25.5 57.5z" />
    <glyph glyph-name="asciitilde" unicode="~" horiz-adv-x="595" 
d="M441 466h161l-6 -31q-23 -119 -66 -172.5t-113 -53.5q-7 0 -14 0.5t-12.5 1.5t-12.5 3t-11 3t-11.5 4t-10 4.5t-11 6t-10.5 5.5t-12 6.5t-12 6.5l-13 7q-44 24 -61 24q-31 0 -40 -45l-4 -20h-161l6 31q23 119 66 172.5t113 53.5q8 0 15 -0.5t14.5 -2t12 -2.5t13 -4.5
t11.5 -4.5t12.5 -6t11.5 -6t13.5 -7.5t13.5 -7.5l13 -7q44 -24 61 -24q31 0 40 45z" />
    <glyph glyph-name="uni00A0" unicode="&#xa0;" horiz-adv-x="210" 
 />
    <glyph glyph-name="exclamdown" unicode="&#xa1;" horiz-adv-x="304" 
d="M62 290h190l-8 -96q-9 -99 -28 -193l-37 -191h-230l37 191q16 82 48 193zM74 415q0 63 29.5 91.5t95.5 28.5q99 0 99 -79q0 -63 -29.5 -91.5t-95.5 -28.5q-99 0 -99 79z" />
    <glyph glyph-name="cent" unicode="&#xa2;" horiz-adv-x="595" 
d="M328 -98h-143l20 106q-138 32 -138 180q0 33 9 89q20 120 79 176.5t152 72.5l20 102h143l-19 -97q34 0 106 -2l-63 -164q-82 2 -131 2q-39 0 -61.5 -20.5t-33.5 -72.5q-7 -40 -7 -56q0 -32 17 -43.5t60 -11.5q50 0 160 2l-63 -165q-30 0 -88 -2z" />
    <glyph glyph-name="sterling" unicode="&#xa3;" horiz-adv-x="595" 
d="M639 679l-59 -156q-38 2 -114 2q-45 0 -70 -18t-33 -60l-4 -24h169l-59 -155h-140l-21 -106h250l-61 -162h-519l63 162h50l21 106h-81l59 155h52l8 42q20 112 97.5 164.5t229.5 52.5q128 0 162 -3z" />
    <glyph glyph-name="currency" unicode="&#xa4;" horiz-adv-x="595" 
d="M61 354q0 61 25 110l-69 70l114 115l78 -77q47 18 105 18q57 0 105 -18l78 77l114 -115l-70 -70q26 -50 26 -110q0 -61 -26 -111l70 -69l-116 -115l-78 77q-46 -18 -103 -18q-58 0 -104 18l-77 -77l-116 115l70 69q-26 50 -26 111zM314 267q89 0 89 89t-89 89t-89 -89
t89 -89z" />
    <glyph glyph-name="yen" unicode="&#xa5;" horiz-adv-x="595" 
d="M514 116h-142l-23 -116h-211l23 116h-141l20 105h141l10 51h-141l21 105h87l-85 303h241l20 -212l113 212h241l-208 -303h85l-21 -105h-142l-10 -51h142z" />
    <glyph glyph-name="brokenbar" unicode="&#xa6;" horiz-adv-x="308" 
d="M290 388h-224l69 355h224zM25 180h224l-69 -355h-224z" />
    <glyph glyph-name="section" unicode="&#xa7;" horiz-adv-x="590" 
d="M564 271q-26 -94 -107 -115q62 -37 62 -119q0 -26 -8 -63q-13 -48 -41.5 -80.5t-69.5 -48.5t-82.5 -22.5t-93.5 -6.5q-215 0 -282 2l62 166q79 -2 257 -2q23 0 35 12q8 8 8 21q0 17 -30 25l-104 26q-160 38 -160 146q0 24 9 54q27 91 113 114q-63 38 -63 119q0 26 8 60
q12 47 39.5 79t66.5 47.5t79.5 22t91.5 6.5q206 0 273 -2l-62 -166q-79 2 -238 2q-20 0 -30 -7q-13 -8 -13 -26q0 -17 30 -25l104 -26q78 -20 115.5 -54.5t37.5 -87.5q0 -27 -7 -51zM328 320l-26 6q-11 3 -20 3q-51 0 -63 -65q-1 -3 -1 -11q0 -31 38 -40l25 -6q11 -3 21 -3
q51 0 63 65q1 3 1 11q0 31 -38 40z" />
    <glyph glyph-name="dieresis" unicode="&#xa8;" horiz-adv-x="500" 
d="M108 645q0 56 25.5 78.5t85.5 22.5q43 0 66.5 -17t23.5 -50q0 -56 -25.5 -79t-85.5 -23q-42 0 -66 17.5t-24 50.5zM345 645q0 56 25.5 78.5t85.5 22.5q43 0 66.5 -17t23.5 -50q0 -56 -25.5 -79t-85.5 -23q-42 0 -66 17.5t-24 50.5z" />
    <glyph glyph-name="copyright" unicode="&#xa9;" horiz-adv-x="888" 
d="M611 275l-25 -136q-52 -1 -84 -1q-132 0 -180.5 39.5t-48.5 155.5v47q0 112 48 154t181 42q28 0 110 -2l-25 -136q-40 1 -85 1q-27 0 -37 -11.5t-10 -47.5v-47q0 -37 10 -48t37 -11q72 0 109 1zM59 356q0 219 91.5 308.5t311.5 89.5t311.5 -89.5t91.5 -308.5
t-91.5 -308.5t-311.5 -89.5t-311.5 89.5t-91.5 308.5zM735 356q0 90 -11 142.5t-43.5 85.5t-83 44t-136.5 11q-114 0 -170 -23t-79 -82t-23 -178t23 -178t79 -82t170 -23q86 0 136.5 11t83 44t43.5 85.5t11 142.5z" />
    <glyph glyph-name="ordfeminine" unicode="&#xaa;" horiz-adv-x="456" 
d="M232 565q67 0 92 -18l1 7q2 14 2 16q0 34 -50 34q-136 0 -177 -2l45 121q54 2 149 2q100 0 149.5 -33.5t49.5 -107.5q0 -26 -6 -57l-26 -133q-11 -53 -39 -74t-82 -24q-51 -3 -101 -3q-102 0 -147.5 26.5t-45.5 86.5q0 17 5 44q23 115 181 115zM254 399q29 0 37 2l7 32
q1 3 1 9q0 14 -9 19t-30 5q-20 0 -29 -7t-12 -24q-1 -3 -1 -12q0 -23 36 -24z" />
    <glyph glyph-name="guillemotleft" unicode="&#xab;" horiz-adv-x="577" 
d="M4 155l42 216l265 148l-38 -196l-132 -62l107 -68l-36 -186zM284 155l42 216l265 148l-38 -196l-132 -62l107 -68l-36 -186z" />
    <glyph glyph-name="logicalnot" unicode="&#xac;" horiz-adv-x="595" 
d="M349 306h-301l35 179h494l-62 -318h-193z" />
    <glyph glyph-name="uni00AD" unicode="&#xad;" horiz-adv-x="422" 
d="M369 203h-375l72 189h375z" />
    <glyph glyph-name="registered" unicode="&#xae;" horiz-adv-x="625" 
d="M483 519v-7q0 -50 -37 -72l44 -88h-108l-31 69h-16v-69h-98v269h121q70 0 97.5 -22.5t27.5 -79.5zM387 514v5q0 14 -6.5 18.5t-22.5 4.5h-23v-50h23q16 0 22.5 4t6.5 18zM642 484q0 -149 -66.5 -213t-220.5 -64t-220.5 64t-66.5 213t66.5 213t220.5 64t220.5 -64
t66.5 -213zM546 484q0 116 -37.5 153t-153.5 37t-153.5 -37t-37.5 -153t37.5 -153t153.5 -37t153.5 37t37.5 153z" />
    <glyph glyph-name="overscore" unicode="&#xaf;" horiz-adv-x="500" 
d="M137 597l27 137h354l-27 -137h-354z" />
    <glyph glyph-name="degree" unicode="&#xb0;" horiz-adv-x="394" 
d="M259 640q-29 0 -41 -12.5t-12 -42.5t12 -42.5t41 -12.5t40.5 12.5t11.5 42.5t-11.5 42.5t-40.5 12.5zM259 418q-182 0 -182 167t182 167t182 -167t-182 -167z" />
    <glyph glyph-name="plusminus" unicode="&#xb1;" horiz-adv-x="595" 
d="M478 0h-463l34 174h463zM191 212l28 145h-155l35 179h155l28 145h193l-28 -145h155l-35 -179h-155l-28 -145h-193z" />
    <glyph glyph-name="uni00B2" unicode="&#xb2;" 
d="M225 402l-1 -4h169l-37 -110h-304l15 77q22 117 107 147l63 21q13 5 18 10t5 15q0 15 -22 15q-99 0 -138 -2l40 107q39 3 126 3q145 0 145 -98q0 -13 -3 -30q-8 -43 -31 -68.5t-68 -40.5l-53 -18q-28 -10 -31 -24z" />
    <glyph glyph-name="uni00B3" unicode="&#xb3;" 
d="M214 437h-113l38 98h95q13 0 20 5q8 6 8 18q0 16 -24 16q-92 0 -135 -1l43 107q41 1 146 1q61 0 92 -24t31 -66q0 -14 -3 -29q-11 -50 -60 -73q42 -20 42 -74q0 -6 -2 -20q-17 -108 -174 -108h-177l41 108q35 -1 127 -1q15 0 22 5q9 7 9 21q0 17 -26 17z" />
    <glyph glyph-name="acute" unicode="&#xb4;" horiz-adv-x="500" 
d="M147 597l134 149h228l-167 -149h-195z" />
    <glyph glyph-name="uni00B5" unicode="&#xb5;" horiz-adv-x="610" 
d="M329 162l71 368h224l-79 -406q-13 -70 -46 -94.5t-104 -33.5q-20 -5 -69 -5q-78 0 -123 16l-35 -182h-216l136 705h220l-61 -314q-2 -14 -2 -19q0 -37 49 -37q11 0 35 2z" />
    <glyph glyph-name="paragraph" unicode="&#xb6;" horiz-adv-x="673" 
d="M149 -175l87 449h-4q-187 0 -187 167q0 24 7 66q39 206 272 206h394l-172 -888h-164l143 740h-69l-143 -740h-164z" />
    <glyph glyph-name="middot" unicode="&#xb7;" horiz-adv-x="241" 
d="M23 320q0 66 29.5 95t95.5 29q99 0 99 -82q0 -66 -29.5 -95t-95.5 -29q-99 0 -99 82z" />
    <glyph glyph-name="cedilla" unicode="&#xb8;" horiz-adv-x="500" 
d="M20 -251l33 89q33 -1 76 -1q22 0 29 7q9 6 9 25q0 17 -29 17q-30 0 -59 -1l30 79q32 2 66 2q127 0 127 -87q0 -6 -2 -24q-10 -59 -53.5 -84t-129.5 -25q-58 0 -97 3z" />
    <glyph glyph-name="uni00B9" unicode="&#xb9;" 
d="M100 557l49 123h216l-52 -269h80l-45 -123h-304l45 123h61l28 146h-78z" />
    <glyph glyph-name="ordmasculine" unicode="&#xba;" horiz-adv-x="464" 
d="M318 503q7 38 7 59t-7 28t-24 7q-23 0 -32.5 -14t-20.5 -62q-8 -43 -8 -59q0 -21 7.5 -28t24.5 -7q22 0 33 14.5t20 61.5zM259 294q-204 0 -204 164q0 33 7 67q19 105 75 155t163 50q204 0 204 -164q0 -33 -7 -67q-19 -105 -75 -155t-163 -50z" />
    <glyph glyph-name="guillemotright" unicode="&#xbb;" horiz-adv-x="577" 
d="M573 371l-42 -216l-265 -148l38 196l132 62l-107 68l36 186zM293 371l-42 -216l-265 -148l38 196l132 62l-107 68l36 186z" />
    <glyph glyph-name="onequarter" unicode="&#xbc;" horiz-adv-x="975" 
d="M349 0h-189l529 680h189zM941 176l-45 -111h-20l-13 -65h-126l13 65h-194l12 96l150 231h143l-144 -216h55l13 70l129 19l-17 -89h44zM100 557l49 123h216l-52 -269h80l-45 -123h-304l45 123h61l28 146h-78z" />
    <glyph glyph-name="onehalf" unicode="&#xbd;" horiz-adv-x="975" 
d="M334 0h-189l529 680h189zM740 114l-1 -4h169l-37 -110h-304l15 77q22 117 107 147l63 21q13 5 18 10t5 15q0 15 -22 15q-99 0 -138 -2l40 107q39 3 126 3q145 0 145 -98q0 -13 -3 -30q-8 -43 -31 -68.5t-68 -40.5l-53 -18q-28 -10 -31 -24zM100 557l49 123h216l-52 -269
h80l-45 -123h-304l45 123h61l28 146h-78z" />
    <glyph glyph-name="threequarters" unicode="&#xbe;" horiz-adv-x="975" 
d="M343 0h-189l529 680h189zM941 176l-45 -111h-20l-13 -65h-126l13 65h-194l12 96l150 231h143l-144 -216h55l13 70l129 19l-17 -89h44zM214 437h-113l38 98h95q13 0 20 5q8 6 8 18q0 16 -24 16q-92 0 -135 -1l43 107q41 1 146 1q61 0 92 -24t31 -66q0 -14 -3 -29
q-11 -50 -60 -73q42 -20 42 -74q0 -6 -2 -20q-17 -108 -174 -108h-177l41 108q35 -1 127 -1q15 0 22 5q9 7 9 21q0 17 -26 17z" />
    <glyph glyph-name="questiondown" unicode="&#xbf;" horiz-adv-x="508" 
d="M234 415q0 63 29.5 91.5t95.5 28.5q99 0 99 -79q0 -63 -29.5 -91.5t-95.5 -28.5q-99 0 -99 79zM443 -18l-67 -175q-32 -2 -201 -2q-107 0 -159.5 40t-52.5 126q0 19 3 40q9 78 51 119.5t123 75.5q40 18 55 31.5t21 44.5l2 12h204l-2 -13q-15 -96 -45 -129.5t-122 -74.5
q-39 -17 -50.5 -26t-15.5 -28l-2 -14q0 -29 43 -29q162 0 215 2z" />
    <glyph glyph-name="Agrave" unicode="&#xc0;" horiz-adv-x="750" 
d="M464 0l-10 136h-205l-62 -136h-233l374 712h268l98 -712h-230zM425 519l-97 -210h113zM487 921l79 -149h-190l-112 149h223z" />
    <glyph glyph-name="Aacute" unicode="&#xc1;" horiz-adv-x="750" 
d="M464 0l-10 136h-205l-62 -136h-233l374 712h268l98 -712h-230zM425 519l-97 -210h113zM354 772l137 149h223l-170 -149h-190z" />
    <glyph glyph-name="Acircumflex" unicode="&#xc2;" horiz-adv-x="750" 
d="M464 0l-10 136h-205l-62 -136h-233l374 712h268l98 -712h-230zM425 519l-97 -210h113zM516 772l-37 62l-61 -62h-188l154 148h217l95 -148h-180z" />
    <glyph glyph-name="Atilde" unicode="&#xc3;" horiz-adv-x="750" 
d="M464 0l-10 136h-205l-62 -136h-233l374 712h268l98 -712h-230zM425 519l-97 -210h113zM379 763h-121l1 6q15 94 49 130t93 36q45 0 95 -26l6 -3q31 -17 54 -17q11 0 16.5 6.5t10.5 28.5l1 5h121l-1 -6q-15 -94 -49 -129.5t-93 -35.5q-48 0 -95 25l-6 3q-31 17 -54 17
q-11 0 -16.5 -6.5t-10.5 -28.5z" />
    <glyph glyph-name="Adieresis" unicode="&#xc4;" horiz-adv-x="750" 
d="M464 0l-10 136h-205l-62 -136h-233l374 712h268l98 -712h-230zM425 519l-97 -210h113zM251 826q0 57 25.5 80t86.5 23q91 0 91 -69q0 -57 -26 -80.5t-86 -23.5q-45 0 -68 18.5t-23 51.5zM492 826q0 57 25.5 80t86.5 23q91 0 91 -69q0 -57 -26 -80.5t-86 -23.5
q-45 0 -68 18.5t-23 51.5z" />
    <glyph glyph-name="Aring" unicode="&#xc5;" horiz-adv-x="750" 
d="M324 759q8 64 50 99.5t113 35.5q62 0 97 -28t35 -83q0 -8 -2 -24q-4 -33 -19 -61l96 -698h-230l-10 136h-205l-62 -136h-233l371 707q-2 18 -2 29v11q0 9 1 12zM425 519l-97 -210h113zM518 759q0 3 0.5 6t1 5t0.5 3q0 33 -41 33q-26 0 -37.5 -11t-17.5 -36l-2 -14
q0 -33 42 -33q26 0 37 10.5t17 36.5z" />
    <glyph glyph-name="AE" unicode="&#xc6;" horiz-adv-x="1061" 
d="M969 0h-524l28 147h-181l-93 -147h-245l496 712h682l-69 -179h-292l-17 -85h286l-68 -177h-252l-18 -92h335zM535 532l-134 -212h106l42 212h-14z" />
    <glyph glyph-name="Ccedilla" unicode="&#xc7;" horiz-adv-x="586" 
d="M563 192l-73 -190q-47 -4 -155 -4q-297 0 -297 261q0 52 10 108q35 193 137 270t287 77q75 0 176 -5l-73 -189q-62 3 -127 3q-67 0 -105 -38.5t-58 -126.5q-9 -44 -9 -74q0 -55 26 -75t71 -20q122 0 190 3zM118 -251l33 91q17 0 41 -0.5t40 -0.5q22 0 29 7q9 9 9 23
q0 15 -29 15q-33 0 -64 -1l30 81q38 2 75 2q127 0 127 -87q0 -6 -2 -24q-10 -59 -53.5 -84t-129.5 -25q-62 0 -106 3z" />
    <glyph glyph-name="Egrave" unicode="&#xc8;" horiz-adv-x="606" 
d="M514 0h-524l139 712h548l-69 -179h-292l-17 -85h286l-68 -177h-252l-18 -92h335zM458 921l79 -149h-190l-112 149h223z" />
    <glyph glyph-name="Eacute" unicode="&#xc9;" horiz-adv-x="606" 
d="M514 0h-524l139 712h548l-69 -179h-292l-17 -85h286l-68 -177h-252l-18 -92h335zM280 772l137 149h223l-170 -149h-190z" />
    <glyph glyph-name="Ecircumflex" unicode="&#xca;" horiz-adv-x="606" 
d="M514 0h-524l139 712h548l-69 -179h-292l-17 -85h286l-68 -177h-252l-18 -92h335zM458 772l-37 62l-61 -62h-188l154 148h217l95 -148h-180z" />
    <glyph glyph-name="Edieresis" unicode="&#xcb;" horiz-adv-x="606" 
d="M514 0h-524l139 712h548l-69 -179h-292l-17 -85h286l-68 -177h-252l-18 -92h335zM187 826q0 57 25.5 80t86.5 23q91 0 91 -69q0 -57 -26 -80.5t-86 -23.5q-45 0 -68 18.5t-23 51.5zM428 826q0 57 25.5 80t86.5 23q91 0 91 -69q0 -57 -26 -80.5t-86 -23.5q-45 0 -68 18.5
t-23 51.5z" />
    <glyph glyph-name="Igrave" unicode="&#xcc;" horiz-adv-x="316" 
d="M361 712l-139 -712h-232l139 712h232zM283 921l79 -149h-190l-112 149h223z" />
    <glyph glyph-name="Iacute" unicode="&#xcd;" horiz-adv-x="316" 
d="M361 712l-139 -712h-232l139 712h232zM141 772l137 149h223l-170 -149h-190z" />
    <glyph glyph-name="Icircumflex" unicode="&#xce;" horiz-adv-x="316" 
d="M361 712l-139 -712h-232l139 712h232zM301 772l-37 62l-61 -62h-188l154 148h217l95 -148h-180z" />
    <glyph glyph-name="Idieresis" unicode="&#xcf;" horiz-adv-x="316" 
d="M361 712l-139 -712h-232l139 712h232zM39 826q0 57 25.5 80t86.5 23q91 0 91 -69q0 -57 -26 -80.5t-86 -23.5q-45 0 -68 18.5t-23 51.5zM280 826q0 57 25.5 80t86.5 23q91 0 91 -69q0 -57 -26 -80.5t-86 -23.5q-45 0 -68 18.5t-23 51.5z" />
    <glyph glyph-name="Eth" unicode="&#xd0;" horiz-adv-x="749" 
d="M21 0l56 287h-68l28 148h69l54 277h262q162 0 243 -64.5t81 -202.5q0 -45 -9 -98q-16 -104 -54.5 -174t-98 -107t-127 -51.5t-158.5 -14.5h-278zM389 520h-38l-17 -85h102l-29 -148h-102l-18 -95h42q57 0 87 11t51.5 46t34.5 107q8 50 8 75q0 53 -27.5 71t-93.5 18z" />
    <glyph glyph-name="Ntilde" unicode="&#xd1;" horiz-adv-x="724" 
d="M449 0l-176 350l-68 -350h-215l139 712h175l182 -360l70 360h213l-139 -712h-181zM357 763h-121l1 6q15 94 49 130t93 36q45 0 95 -26l6 -3q31 -17 54 -17q11 0 16.5 6.5t10.5 28.5l1 5h121l-1 -6q-15 -94 -49 -129.5t-93 -35.5q-48 0 -95 25l-6 3q-31 17 -54 17
q-11 0 -16.5 -6.5t-10.5 -28.5z" />
    <glyph glyph-name="Ograve" unicode="&#xd2;" horiz-adv-x="740" 
d="M353 174q64 0 89.5 32t45.5 144q12 66 12 105q0 48 -18 66.5t-58 18.5q-62 0 -89.5 -34t-47.5 -143q-12 -65 -12 -104q0 -49 18.5 -67t59.5 -18zM726 345q-37 -199 -129.5 -281t-261.5 -82q-150 0 -224 65t-74 200q0 55 12 121q37 200 129 282t262 82q150 0 224 -65.5
t74 -201.5q0 -54 -12 -120zM515 921l79 -149h-190l-112 149h223z" />
    <glyph glyph-name="Oacute" unicode="&#xd3;" horiz-adv-x="740" 
d="M353 174q64 0 89.5 32t45.5 144q12 66 12 105q0 48 -18 66.5t-58 18.5q-62 0 -89.5 -34t-47.5 -143q-12 -65 -12 -104q0 -49 18.5 -67t59.5 -18zM726 345q-37 -199 -129.5 -281t-261.5 -82q-150 0 -224 65t-74 200q0 55 12 121q37 200 129 282t262 82q150 0 224 -65.5
t74 -201.5q0 -54 -12 -120zM318 772l137 149h223l-170 -149h-190z" />
    <glyph glyph-name="Ocircumflex" unicode="&#xd4;" horiz-adv-x="740" 
d="M353 174q64 0 89.5 32t45.5 144q12 66 12 105q0 48 -18 66.5t-58 18.5q-62 0 -89.5 -34t-47.5 -143q-12 -65 -12 -104q0 -49 18.5 -67t59.5 -18zM726 345q-37 -199 -129.5 -281t-261.5 -82q-150 0 -224 65t-74 200q0 55 12 121q37 200 129 282t262 82q150 0 224 -65.5
t74 -201.5q0 -54 -12 -120zM505 772l-37 62l-61 -62h-188l154 148h217l95 -148h-180z" />
    <glyph glyph-name="Otilde" unicode="&#xd5;" horiz-adv-x="740" 
d="M353 174q64 0 89.5 32t45.5 144q12 66 12 105q0 48 -18 66.5t-58 18.5q-62 0 -89.5 -34t-47.5 -143q-12 -65 -12 -104q0 -49 18.5 -67t59.5 -18zM726 345q-37 -199 -129.5 -281t-261.5 -82q-150 0 -224 65t-74 200q0 55 12 121q37 200 129 282t262 82q150 0 224 -65.5
t74 -201.5q0 -54 -12 -120zM364 763h-121l1 6q15 94 49 130t93 36q45 0 95 -26l6 -3q31 -17 54 -17q11 0 16.5 6.5t10.5 28.5l1 5h121l-1 -6q-15 -94 -49 -129.5t-93 -35.5q-48 0 -95 25l-6 3q-31 17 -54 17q-11 0 -16.5 -6.5t-10.5 -28.5z" />
    <glyph glyph-name="Odieresis" unicode="&#xd6;" horiz-adv-x="740" 
d="M353 174q64 0 89.5 32t45.5 144q12 66 12 105q0 48 -18 66.5t-58 18.5q-62 0 -89.5 -34t-47.5 -143q-12 -65 -12 -104q0 -49 18.5 -67t59.5 -18zM726 345q-37 -199 -129.5 -281t-261.5 -82q-150 0 -224 65t-74 200q0 55 12 121q37 200 129 282t262 82q150 0 224 -65.5
t74 -201.5q0 -54 -12 -120zM239 826q0 57 25.5 80t86.5 23q91 0 91 -69q0 -57 -26 -80.5t-86 -23.5q-45 0 -68 18.5t-23 51.5zM480 826q0 57 25.5 80t86.5 23q91 0 91 -69q0 -57 -26 -80.5t-86 -23.5q-45 0 -68 18.5t-23 51.5z" />
    <glyph glyph-name="multiply" unicode="&#xd7;" horiz-adv-x="595" 
d="M592 469l-153 -130l104 -130l-149 -123l-102 128l-150 -128l-111 131l154 131l-103 131l149 122l101 -128l150 128z" />
    <glyph glyph-name="Oslash" unicode="&#xd8;" horiz-adv-x="740" 
d="M726 345q-37 -199 -129.5 -281t-261.5 -82q-79 0 -136 18l-64 -90h-121l97 137q-74 66 -74 200q0 55 12 121q37 200 129 282t262 82q83 0 143 -21l65 92h121l-101 -141q70 -66 70 -197q0 -54 -12 -120zM270 363q-12 -69 -12 -109l213 300q-18 6 -42 6q-72 0 -105 -38.5
t-54 -158.5zM350 154q74 0 104 36.5t51 159.5q11 59 12 98l-206 -290q13 -4 39 -4z" />
    <glyph glyph-name="Ugrave" unicode="&#xd9;" horiz-adv-x="722" 
d="M535 712h232l-85 -434q-30 -157 -110.5 -226.5t-238.5 -69.5q-295 0 -295 224q0 41 9 86l82 420h232l-85 -434q-4 -17 -4 -39q0 -32 16.5 -48.5t58.5 -16.5q49 0 70 22.5t33 81.5zM498 921l79 -149h-190l-112 149h223z" />
    <glyph glyph-name="Uacute" unicode="&#xda;" horiz-adv-x="722" 
d="M535 712h232l-85 -434q-30 -157 -110.5 -226.5t-238.5 -69.5q-295 0 -295 224q0 41 9 86l82 420h232l-85 -434q-4 -17 -4 -39q0 -32 16.5 -48.5t58.5 -16.5q49 0 70 22.5t33 81.5zM317 772l137 149h223l-170 -149h-190z" />
    <glyph glyph-name="Ucircumflex" unicode="&#xdb;" horiz-adv-x="722" 
d="M535 712h232l-85 -434q-30 -157 -110.5 -226.5t-238.5 -69.5q-295 0 -295 224q0 41 9 86l82 420h232l-85 -434q-4 -17 -4 -39q0 -32 16.5 -48.5t58.5 -16.5q49 0 70 22.5t33 81.5zM504 772l-37 62l-61 -62h-188l154 148h217l95 -148h-180z" />
    <glyph glyph-name="Udieresis" unicode="&#xdc;" horiz-adv-x="722" 
d="M535 712h232l-85 -434q-30 -157 -110.5 -226.5t-238.5 -69.5q-295 0 -295 224q0 41 9 86l82 420h232l-85 -434q-4 -17 -4 -39q0 -32 16.5 -48.5t58.5 -16.5q49 0 70 22.5t33 81.5zM242 826q0 57 25.5 80t86.5 23q91 0 91 -69q0 -57 -26 -80.5t-86 -23.5q-45 0 -68 18.5
t-23 51.5zM483 826q0 57 25.5 80t86.5 23q91 0 91 -69q0 -57 -26 -80.5t-86 -23.5q-45 0 -68 18.5t-23 51.5z" />
    <glyph glyph-name="Yacute" unicode="&#xdd;" horiz-adv-x="707" 
d="M86 712h251l50 -253l153 253h254l-324 -434l-54 -278h-228l54 278zM306 772l137 149h223l-170 -149h-190z" />
    <glyph glyph-name="Thorn" unicode="&#xde;" horiz-adv-x="659" 
d="M309 102h-73l-20 -102h-226l139 712h226l-19 -95h35q143 0 215 -50.5t72 -156.5q0 -30 -6 -66q-23 -134 -110.5 -188t-232.5 -54zM301 438l-31 -158h54q53 0 74.5 15t29.5 55q3 16 3 30q0 32 -18.5 45t-58.5 13h-53z" />
    <glyph glyph-name="germandbls" unicode="&#xdf;" horiz-adv-x="629" 
d="M628 512q-11 -42 -33 -69.5t-61 -49.5q67 -38 67 -138q0 -27 -4 -52q-16 -102 -84.5 -152.5t-200.5 -50.5q-45 0 -79 5l56 152h14q38 0 58.5 14.5t26.5 53.5q2 18 2 23q0 27 -14.5 39t-49.5 12h-35l50 161h7q30 0 47 13t24 44q3 13 3 24q0 45 -52 45q-31 0 -47 -19
t-25 -68l-97 -499h-215l99 507q25 123 94.5 183t204.5 60q122 0 188 -45.5t66 -127.5q0 -32 -10 -65z" />
    <glyph glyph-name="agrave" unicode="&#xe0;" horiz-adv-x="581" 
d="M212 -9q-207 0 -207 141q0 29 7 56q16 73 67 108.5t154 35.5q81 0 114 -25l3 15q2 14 2 19q0 43 -59 43q-167 0 -216 -2l55 148q66 2 181 2q120 0 181.5 -40t61.5 -134q0 -30 -8 -73l-31 -161q-14 -69 -43 -95.5t-95 -32.5q-58 -5 -167 -5zM271 212q-27 0 -40 -8t-18 -31
q-3 -15 -3 -25q0 -17 11 -23.5t41 -6.5q28 0 48 4l9 42q2 14 2 15q0 33 -50 33zM402 746l76 -149h-195l-109 149h228z" />
    <glyph glyph-name="aacute" unicode="&#xe1;" horiz-adv-x="581" 
d="M212 -9q-207 0 -207 141q0 29 7 56q16 73 67 108.5t154 35.5q81 0 114 -25l3 15q2 14 2 19q0 43 -59 43q-167 0 -216 -2l55 148q66 2 181 2q120 0 181.5 -40t61.5 -134q0 -30 -8 -73l-31 -161q-14 -69 -43 -95.5t-95 -32.5q-58 -5 -167 -5zM271 212q-27 0 -40 -8t-18 -31
q-3 -15 -3 -25q0 -17 11 -23.5t41 -6.5q28 0 48 4l9 42q2 14 2 15q0 33 -50 33zM223 597l134 149h228l-167 -149h-195z" />
    <glyph glyph-name="acircumflex" unicode="&#xe2;" horiz-adv-x="581" 
d="M212 -9q-207 0 -207 141q0 29 7 56q16 73 67 108.5t154 35.5q81 0 114 -25l3 15q2 14 2 19q0 43 -59 43q-167 0 -216 -2l55 148q66 2 181 2q120 0 181.5 -40t61.5 -134q0 -30 -8 -73l-31 -161q-14 -69 -43 -95.5t-95 -32.5q-58 -5 -167 -5zM271 212q-27 0 -40 -8t-18 -31
q-3 -15 -3 -25q0 -17 11 -23.5t41 -6.5q28 0 48 4l9 42q2 14 2 15q0 33 -50 33zM401 597l-34 63l-57 -63h-180l149 153h206l89 -153h-173z" />
    <glyph glyph-name="atilde" unicode="&#xe3;" horiz-adv-x="581" 
d="M212 -9q-207 0 -207 141q0 29 7 56q16 73 67 108.5t154 35.5q81 0 114 -25l3 15q2 14 2 19q0 43 -59 43q-167 0 -216 -2l55 148q66 2 181 2q120 0 181.5 -40t61.5 -134q0 -30 -8 -73l-31 -161q-14 -69 -43 -95.5t-95 -32.5q-58 -5 -167 -5zM271 212q-27 0 -40 -8t-18 -31
q-3 -15 -3 -25q0 -17 11 -23.5t41 -6.5q28 0 48 4l9 42q2 14 2 15q0 33 -50 33zM456 749h119l-1 -7q-12 -87 -46 -124t-93 -37q-45 0 -95 26l-6 3q-39 17 -53 17q-12 0 -17.5 -7t-10.5 -28l-1 -5h-118l1 7q12 87 45 124t94 37q45 0 95 -26l6 -3q39 -17 53 -17q12 0 17 6.5
t10 28.5z" />
    <glyph glyph-name="adieresis" unicode="&#xe4;" horiz-adv-x="581" 
d="M212 -9q-207 0 -207 141q0 29 7 56q16 73 67 108.5t154 35.5q81 0 114 -25l3 15q2 14 2 19q0 43 -59 43q-167 0 -216 -2l55 148q66 2 181 2q120 0 181.5 -40t61.5 -134q0 -30 -8 -73l-31 -161q-14 -69 -43 -95.5t-95 -32.5q-58 -5 -167 -5zM271 212q-27 0 -40 -8t-18 -31
q-3 -15 -3 -25q0 -17 11 -23.5t41 -6.5q28 0 48 4l9 42q2 14 2 15q0 33 -50 33zM137 645q0 56 25.5 78.5t85.5 22.5q43 0 66.5 -17t23.5 -50q0 -56 -25.5 -79t-85.5 -23q-42 0 -66 17.5t-24 50.5zM374 645q0 56 25.5 78.5t85.5 22.5q43 0 66.5 -17t23.5 -50q0 -56 -25.5 -79
t-85.5 -23q-42 0 -66 17.5t-24 50.5z" />
    <glyph glyph-name="aring" unicode="&#xe5;" horiz-adv-x="581" 
d="M212 -9q-207 0 -207 141q0 29 7 56q16 73 67 108.5t154 35.5q81 0 114 -25l3 15q2 14 2 19q0 43 -59 43q-167 0 -216 -2l55 148q66 2 181 2q120 0 181.5 -40t61.5 -134q0 -30 -8 -73l-31 -161q-14 -69 -43 -95.5t-95 -32.5q-58 -5 -167 -5zM271 212q-27 0 -40 -8t-18 -31
q-3 -15 -3 -25q0 -17 11 -23.5t41 -6.5q28 0 48 4l9 42q2 14 2 15q0 33 -50 33zM403 693q1 3 1 13q0 31 -38 31q-24 0 -35 -10t-16 -34q-1 -3 -1 -13q0 -31 38 -31q25 0 35 9.5t16 34.5zM222 693q8 60 47 93t105 33q122 0 122 -104q0 -14 -1 -22q-8 -60 -47 -93t-105 -33
q-122 0 -122 104q0 14 1 22z" />
    <glyph glyph-name="ae" unicode="&#xe6;" horiz-adv-x="861" 
d="M220 -9q-214 0 -214 148q0 17 5 49q15 75 64.5 109.5t156.5 34.5h119v8q0 44 -59 44q-167 0 -216 -2l55 148q66 2 181 2q95 0 147 -37q64 43 175 43q97 0 159 -35.5t62 -111.5q0 -28 -7 -55q-19 -77 -77 -105t-173 -28h-76v-5q0 -28 15.5 -40t56.5 -12q136 0 192 4
l-57 -147q-62 -5 -164 -5q-113 0 -172 46q-58 -53 -173 -53zM617 390q-28 0 -44 -14t-28 -50h55q27 0 40 5.5t18 24.5q2 10 2 11q0 23 -43 23zM321 176l6 36h-50q-35 0 -47 -8t-18 -30q-2 -14 -2 -20q0 -22 12 -29t38 -7q27 0 41.5 13t19.5 45z" />
    <glyph glyph-name="ccedilla" unicode="&#xe7;" horiz-adv-x="487" 
d="M268 -2q-136 0 -192 51t-56 144q0 34 8 84q13 77 43.5 129t76 78.5t94 37t110.5 10.5q99 0 162 -3l-64 -168q-16 0 -48 1t-58 1q-39 0 -61.5 -18.5t-32.5 -70.5q-7 -40 -7 -55q0 -31 16.5 -41.5t60.5 -10.5q42 0 136 2l-64 -169q-86 -2 -124 -2zM62 -251l33 89
q33 -1 76 -1q22 0 29 7q9 6 9 25q0 17 -29 17q-30 0 -59 -1l30 79q32 2 66 2q127 0 127 -87q0 -6 -2 -24q-10 -59 -53.5 -84t-129.5 -25q-58 0 -97 3z" />
    <glyph glyph-name="egrave" unicode="&#xe8;" horiz-adv-x="565" 
d="M303 203h-76v-6q0 -28 16 -39.5t56 -11.5q136 0 192 4l-57 -147q-62 -5 -188 -5q-124 0 -175 51t-51 141q0 29 7 76q11 67 33 117.5t50.5 81t67.5 49t78 25.5t88 7q216 0 216 -153q0 -30 -7 -57q-17 -77 -77 -105t-173 -28zM325 398q-33 0 -48.5 -15t-26.5 -57h55
q27 0 39.5 5.5t17.5 21.5q2 10 2 16q0 29 -39 29zM402 746l76 -149h-195l-109 149h228z" />
    <glyph glyph-name="eacute" unicode="&#xe9;" horiz-adv-x="565" 
d="M303 203h-76v-6q0 -28 16 -39.5t56 -11.5q136 0 192 4l-57 -147q-62 -5 -188 -5q-124 0 -175 51t-51 141q0 29 7 76q11 67 33 117.5t50.5 81t67.5 49t78 25.5t88 7q216 0 216 -153q0 -30 -7 -57q-17 -77 -77 -105t-173 -28zM325 398q-33 0 -48.5 -15t-26.5 -57h55
q27 0 39.5 5.5t17.5 21.5q2 10 2 16q0 29 -39 29zM234 597l134 149h228l-167 -149h-195z" />
    <glyph glyph-name="ecircumflex" unicode="&#xea;" horiz-adv-x="565" 
d="M303 203h-76v-6q0 -28 16 -39.5t56 -11.5q136 0 192 4l-57 -147q-62 -5 -188 -5q-124 0 -175 51t-51 141q0 29 7 76q11 67 33 117.5t50.5 81t67.5 49t78 25.5t88 7q216 0 216 -153q0 -30 -7 -57q-17 -77 -77 -105t-173 -28zM325 398q-33 0 -48.5 -15t-26.5 -57h55
q27 0 39.5 5.5t17.5 21.5q2 10 2 16q0 29 -39 29zM389 597l-34 63l-57 -63h-180l149 153h206l89 -153h-173z" />
    <glyph glyph-name="edieresis" unicode="&#xeb;" horiz-adv-x="565" 
d="M303 203h-76v-6q0 -28 16 -39.5t56 -11.5q136 0 192 4l-57 -147q-62 -5 -188 -5q-124 0 -175 51t-51 141q0 29 7 76q11 67 33 117.5t50.5 81t67.5 49t78 25.5t88 7q216 0 216 -153q0 -30 -7 -57q-17 -77 -77 -105t-173 -28zM325 398q-33 0 -48.5 -15t-26.5 -57h55
q27 0 39.5 5.5t17.5 21.5q2 10 2 16q0 29 -39 29zM131 645q0 56 25.5 78.5t85.5 22.5q43 0 66.5 -17t23.5 -50q0 -56 -25.5 -79t-85.5 -23q-42 0 -66 17.5t-24 50.5zM368 645q0 56 25.5 78.5t85.5 22.5q43 0 66.5 -17t23.5 -50q0 -56 -25.5 -79t-85.5 -23q-42 0 -66 17.5
t-24 50.5z" />
    <glyph glyph-name="igrave" unicode="&#xec;" horiz-adv-x="294" 
d="M-14 0l103 530h220l-103 -530h-220zM247 746l76 -149h-195l-109 149h228z" />
    <glyph glyph-name="iacute" unicode="&#xed;" horiz-adv-x="294" 
d="M-14 0l103 530h220l-103 -530h-220zM92 597l134 149h228l-167 -149h-195z" />
    <glyph glyph-name="icircumflex" unicode="&#xee;" horiz-adv-x="294" 
d="M-14 0l103 530h220l-103 -530h-220zM252 597l-34 63l-57 -63h-180l149 153h206l89 -153h-173z" />
    <glyph glyph-name="idieresis" unicode="&#xef;" horiz-adv-x="294" 
d="M-14 0l103 530h220l-103 -530h-220zM-2 645q0 56 25.5 78.5t85.5 22.5q43 0 66.5 -17t23.5 -50q0 -56 -25.5 -79t-85.5 -23q-42 0 -66 17.5t-24 50.5zM235 645q0 56 25.5 78.5t85.5 22.5q43 0 66.5 -17t23.5 -50q0 -56 -25.5 -79t-85.5 -23q-42 0 -66 17.5t-24 50.5z" />
    <glyph glyph-name="eth" unicode="&#xf0;" horiz-adv-x="609" 
d="M294 512l-30 68l62 27q-24 30 -56 59l174 111q44 -41 73 -86l73 32l31 -69l-69 -30q38 -90 38 -203q0 -94 -27 -200q-32 -129 -100.5 -183t-203.5 -54q-121 0 -181.5 50.5t-60.5 145.5q0 43 10 84q49 224 261 224q58 0 98 -19q-5 42 -20 74zM277 153q28 0 41 15t23 60
q7 29 7 53t-10 32.5t-30 8.5q-28 0 -41 -15t-23 -60q-7 -29 -7 -52q0 -25 10 -33.5t30 -8.5z" />
    <glyph glyph-name="ntilde" unicode="&#xf1;" horiz-adv-x="599" 
d="M267 315l-61 -315h-220l61 315q24 128 89.5 179.5t203.5 51.5q123 0 180 -43t57 -132q0 -29 -8 -72l-58 -299h-220l61 315q3 13 3 23q0 32 -36 32q-24 0 -35 -12.5t-17 -42.5zM464 749h119l-1 -7q-12 -87 -46 -124t-93 -37q-45 0 -95 26l-6 3q-39 17 -53 17
q-12 0 -17.5 -7t-10.5 -28l-1 -5h-118l1 7q12 87 45 124t94 37q45 0 95 -26l6 -3q39 -17 53 -17q12 0 17 6.5t10 28.5z" />
    <glyph glyph-name="ograve" unicode="&#xf2;" horiz-adv-x="597" 
d="M278 153q28 0 42 20t26 80q11 50 11 80q0 27 -9 35.5t-29 8.5q-28 0 -42 -19.5t-26 -79.5q-11 -50 -11 -80q0 -27 9 -36t29 -9zM338 546q122 0 180.5 -47.5t58.5 -151.5q0 -45 -10 -95q-26 -144 -99 -206t-209 -62q-122 0 -180.5 47.5t-58.5 151.5q0 45 10 95
q26 144 99 206t209 62zM397 746l76 -149h-195l-109 149h228z" />
    <glyph glyph-name="oacute" unicode="&#xf3;" horiz-adv-x="597" 
d="M278 153q28 0 42 20t26 80q11 50 11 80q0 27 -9 35.5t-29 8.5q-28 0 -42 -19.5t-26 -79.5q-11 -50 -11 -80q0 -27 9 -36t29 -9zM338 546q122 0 180.5 -47.5t58.5 -151.5q0 -45 -10 -95q-26 -144 -99 -206t-209 -62q-122 0 -180.5 47.5t-58.5 151.5q0 45 10 95
q26 144 99 206t209 62zM226 597l134 149h228l-167 -149h-195z" />
    <glyph glyph-name="ocircumflex" unicode="&#xf4;" horiz-adv-x="597" 
d="M278 153q28 0 42 20t26 80q11 50 11 80q0 27 -9 35.5t-29 8.5q-28 0 -42 -19.5t-26 -79.5q-11 -50 -11 -80q0 -27 9 -36t29 -9zM338 546q122 0 180.5 -47.5t58.5 -151.5q0 -45 -10 -95q-26 -144 -99 -206t-209 -62q-122 0 -180.5 47.5t-58.5 151.5q0 45 10 95
q26 144 99 206t209 62zM404 597l-34 63l-57 -63h-180l149 153h206l89 -153h-173z" />
    <glyph glyph-name="otilde" unicode="&#xf5;" horiz-adv-x="597" 
d="M278 153q28 0 42 20t26 80q11 50 11 80q0 27 -9 35.5t-29 8.5q-28 0 -42 -19.5t-26 -79.5q-11 -50 -11 -80q0 -27 9 -36t29 -9zM338 546q122 0 180.5 -47.5t58.5 -151.5q0 -45 -10 -95q-26 -144 -99 -206t-209 -62q-122 0 -180.5 47.5t-58.5 151.5q0 45 10 95
q26 144 99 206t209 62zM464 749h119l-1 -7q-12 -87 -46 -124t-93 -37q-45 0 -95 26l-6 3q-39 17 -53 17q-12 0 -17.5 -7t-10.5 -28l-1 -5h-118l1 7q12 87 45 124t94 37q45 0 95 -26l6 -3q39 -17 53 -17q12 0 17 6.5t10 28.5z" />
    <glyph glyph-name="odieresis" unicode="&#xf6;" horiz-adv-x="597" 
d="M278 153q28 0 42 20t26 80q11 50 11 80q0 27 -9 35.5t-29 8.5q-28 0 -42 -19.5t-26 -79.5q-11 -50 -11 -80q0 -27 9 -36t29 -9zM338 546q122 0 180.5 -47.5t58.5 -151.5q0 -45 -10 -95q-26 -144 -99 -206t-209 -62q-122 0 -180.5 47.5t-58.5 151.5q0 45 10 95
q26 144 99 206t209 62zM147 645q0 56 25.5 78.5t85.5 22.5q43 0 66.5 -17t23.5 -50q0 -56 -25.5 -79t-85.5 -23q-42 0 -66 17.5t-24 50.5zM384 645q0 56 25.5 78.5t85.5 22.5q43 0 66.5 -17t23.5 -50q0 -56 -25.5 -79t-85.5 -23q-42 0 -66 17.5t-24 50.5z" />
    <glyph glyph-name="divide" unicode="&#xf7;" horiz-adv-x="595" 
d="M252 527q0 53 26 76.5t85 23.5q89 0 89 -67q0 -53 -26 -76t-86 -23q-88 0 -88 66zM173 122q0 53 26 76.5t85 23.5q89 0 89 -67q0 -53 -26 -76t-86 -23q-88 0 -88 66zM546 252h-503l35 179h503z" />
    <glyph glyph-name="oslash" unicode="&#xf8;" horiz-adv-x="597" 
d="M338 546q73 0 120 -16l51 64h109l-87 -108q45 -48 45 -139q0 -43 -9 -95q-26 -144 -99 -206t-209 -62q-74 0 -121 16l-50 -63h-108l86 106q-46 46 -46 139q0 45 10 96q26 144 99 206t209 62zM312 387q-15 0 -23.5 -2.5t-20 -12t-20.5 -33t-17 -61.5q-7 -32 -7 -38
l117 145q-18 2 -29 2zM366 253l7 37l-118 -146q5 -1 19 -1q40 0 59 22t33 88z" />
    <glyph glyph-name="ugrave" unicode="&#xf9;" horiz-adv-x="599" 
d="M332 215l61 315h220l-61 -315q-24 -128 -89.5 -179.5t-203.5 -51.5q-122 0 -179.5 43t-57.5 132q0 29 8 72l58 299h220l-61 -315q-3 -14 -3 -23q0 -32 36 -32q24 0 35 12.5t17 42.5zM410 746l76 -149h-195l-109 149h228z" />
    <glyph glyph-name="uacute" unicode="&#xfa;" horiz-adv-x="599" 
d="M332 215l61 315h220l-61 -315q-24 -128 -89.5 -179.5t-203.5 -51.5q-122 0 -179.5 43t-57.5 132q0 29 8 72l58 299h220l-61 -315q-3 -14 -3 -23q0 -32 36 -32q24 0 35 12.5t17 42.5zM223 597l134 149h228l-167 -149h-195z" />
    <glyph glyph-name="ucircumflex" unicode="&#xfb;" horiz-adv-x="599" 
d="M332 215l61 315h220l-61 -315q-24 -128 -89.5 -179.5t-203.5 -51.5q-122 0 -179.5 43t-57.5 132q0 29 8 72l58 299h220l-61 -315q-3 -14 -3 -23q0 -32 36 -32q24 0 35 12.5t17 42.5zM407 597l-34 63l-57 -63h-180l149 153h206l89 -153h-173z" />
    <glyph glyph-name="udieresis" unicode="&#xfc;" horiz-adv-x="599" 
d="M332 215l61 315h220l-61 -315q-24 -128 -89.5 -179.5t-203.5 -51.5q-122 0 -179.5 43t-57.5 132q0 29 8 72l58 299h220l-61 -315q-3 -14 -3 -23q0 -32 36 -32q24 0 35 12.5t17 42.5zM151 645q0 56 25.5 78.5t85.5 22.5q43 0 66.5 -17t23.5 -50q0 -56 -25.5 -79t-85.5 -23
q-42 0 -66 17.5t-24 50.5zM388 645q0 56 25.5 78.5t85.5 22.5q43 0 66.5 -17t23.5 -50q0 -56 -25.5 -79t-85.5 -23q-42 0 -66 17.5t-24 50.5z" />
    <glyph glyph-name="yacute" unicode="&#xfd;" horiz-adv-x="599" 
d="M300 45l1 5q-40 -22 -94 -22q-178 0 -178 161q0 44 8 76l52 265h220l-53 -271q-3 -13 -3 -23q0 -32 36 -32q24 0 35 12.5t17 42.5l53 271h220l-93 -479q-23 -120 -96.5 -174t-203.5 -54q-143 0 -239 4l62 158q96 -2 165 -2q44 0 64 13t27 49zM224 597l134 149h228
l-167 -149h-195z" />
    <glyph glyph-name="thorn" unicode="&#xfe;" horiz-adv-x="605" 
d="M575 251q-26 -139 -92.5 -203.5t-176.5 -64.5q-55 0 -100 20l-34 -178h-220l178 918h220l-42 -217q33 18 85 18q191 0 191 -197q0 -43 -9 -96zM325 377q-25 0 -38.5 -17.5t-26.5 -81.5q-11 -50 -11 -80q0 -27 9 -36t29 -9q28 0 42 20t26 80q11 55 11 79q0 28 -10 36.5
t-31 8.5z" />
    <glyph glyph-name="ydieresis" unicode="&#xff;" horiz-adv-x="599" 
d="M300 45l1 5q-40 -22 -94 -22q-178 0 -178 161q0 44 8 76l52 265h220l-53 -271q-3 -13 -3 -23q0 -32 36 -32q24 0 35 12.5t17 42.5l53 271h220l-93 -479q-23 -120 -96.5 -174t-203.5 -54q-143 0 -239 4l62 158q96 -2 165 -2q44 0 64 13t27 49zM152 645q0 56 25.5 78.5
t85.5 22.5q43 0 66.5 -17t23.5 -50q0 -56 -25.5 -79t-85.5 -23q-42 0 -66 17.5t-24 50.5zM389 645q0 56 25.5 78.5t85.5 22.5q43 0 66.5 -17t23.5 -50q0 -56 -25.5 -79t-85.5 -23q-42 0 -66 17.5t-24 50.5z" />
    <glyph glyph-name="Amacron" unicode="&#x100;" horiz-adv-x="750" 
d="M464 0l-10 136h-205l-62 -136h-233l374 712h268l98 -712h-230zM425 519l-97 -210h113zM292 772l27 137h348l-27 -137h-348z" />
    <glyph glyph-name="amacron" unicode="&#x101;" horiz-adv-x="581" 
d="M212 -9q-207 0 -207 141q0 29 7 56q16 73 67 108.5t154 35.5q81 0 114 -25l3 15q2 14 2 19q0 43 -59 43q-167 0 -216 -2l55 148q66 2 181 2q120 0 181.5 -40t61.5 -134q0 -30 -8 -73l-31 -161q-14 -69 -43 -95.5t-95 -32.5q-58 -5 -167 -5zM271 212q-27 0 -40 -8t-18 -31
q-3 -15 -3 -25q0 -17 11 -23.5t41 -6.5q28 0 48 4l9 42q2 14 2 15q0 33 -50 33zM167 597l27 137h354l-27 -137h-354z" />
    <glyph glyph-name="Abreve" unicode="&#x102;" horiz-adv-x="750" 
d="M464 0l-10 136h-205l-62 -136h-233l374 712h268l98 -712h-230zM425 519l-97 -210h113zM481 865q25 0 38 13.5t18 48.5h144q-15 -84 -64 -124.5t-145 -40.5q-90 0 -132 35t-42 95q0 17 3 35h142q-1 -7 -1 -19q0 -43 39 -43z" />
    <glyph glyph-name="abreve" unicode="&#x103;" horiz-adv-x="581" 
d="M212 -9q-207 0 -207 141q0 29 7 56q16 73 67 108.5t154 35.5q81 0 114 -25l3 15q2 14 2 19q0 43 -59 43q-167 0 -216 -2l55 148q66 2 181 2q120 0 181.5 -40t61.5 -134q0 -30 -8 -73l-31 -161q-14 -69 -43 -95.5t-95 -32.5q-58 -5 -167 -5zM271 212q-27 0 -40 -8t-18 -31
q-3 -15 -3 -25q0 -17 11 -23.5t41 -6.5q28 0 48 4l9 42q2 14 2 15q0 33 -50 33zM358 680q22 0 33 11.5t16 40.5h149q-15 -80 -63.5 -117.5t-143.5 -37.5q-90 0 -133 33t-43 90q0 16 3 32h148q-1 -7 -1 -16q0 -36 35 -36z" />
    <glyph glyph-name="Aogonek" unicode="&#x104;" horiz-adv-x="750" 
d="M464 0l-10 136h-205l-62 -136h-233l374 712h268l98 -712q-42 -29 -62.5 -47t-20.5 -32q0 -17 38 -17h27l-58 -139h-36q-25 0 -41 0.5t-39.5 5t-37.5 12.5t-24.5 24t-10.5 38q0 43 25 75t97 80h-87zM425 519l-97 -210h113z" />
    <glyph glyph-name="aogonek" unicode="&#x105;" horiz-adv-x="581" 
d="M198 -155q0 42 20.5 76t66.5 71q-23 -1 -73 -1q-207 0 -207 141q0 29 7 56q16 73 67 108.5t154 35.5q81 0 114 -25l3 15q2 14 2 19q0 43 -59 43q-167 0 -216 -2l55 148q66 2 181 2q120 0 181.5 -40t61.5 -134q0 -30 -8 -73l-31 -161q-9 -43 -21 -66t-40 -45
q-3 -2 -16.5 -13.5t-21 -18.5t-18 -18.5t-15.5 -21.5t-5 -20q0 -17 38 -17h27l-58 -139h-36q-25 0 -41 0.5t-39.5 5t-37.5 12.5t-24.5 24t-10.5 38zM271 212q-27 0 -40 -8t-18 -31q-3 -15 -3 -25q0 -17 11 -23.5t41 -6.5q28 0 48 4l9 42q2 14 2 15q0 33 -50 33z" />
    <glyph glyph-name="Cacute" unicode="&#x106;" horiz-adv-x="586" 
d="M563 192l-73 -190q-47 -4 -155 -4q-297 0 -297 261q0 52 10 108q35 193 137 270t287 77q75 0 176 -5l-73 -189q-62 3 -127 3q-67 0 -105 -38.5t-58 -126.5q-9 -44 -9 -74q0 -55 26 -75t71 -20q122 0 190 3zM310 772l137 149h223l-170 -149h-190z" />
    <glyph glyph-name="cacute" unicode="&#x107;" horiz-adv-x="487" 
d="M268 -2q-136 0 -192 51t-56 144q0 34 8 84q13 77 43.5 129t76 78.5t94 37t110.5 10.5q99 0 162 -3l-64 -168q-16 0 -48 1t-58 1q-39 0 -61.5 -18.5t-32.5 -70.5q-7 -40 -7 -55q0 -31 16.5 -41.5t60.5 -10.5q42 0 136 2l-64 -169q-86 -2 -124 -2zM209 597l134 149h228
l-167 -149h-195z" />
    <glyph glyph-name="Ccircumflex" unicode="&#x108;" horiz-adv-x="586" 
d="M563 192l-73 -190q-47 -4 -155 -4q-297 0 -297 261q0 52 10 108q35 193 137 270t287 77q75 0 176 -5l-73 -189q-62 3 -127 3q-67 0 -105 -38.5t-58 -126.5q-9 -44 -9 -74q0 -55 26 -75t71 -20q122 0 190 3zM494 772l-37 62l-61 -62h-188l154 148h217l95 -148h-180z" />
    <glyph glyph-name="ccircumflex" unicode="&#x109;" horiz-adv-x="487" 
d="M268 -2q-136 0 -192 51t-56 144q0 34 8 84q13 77 43.5 129t76 78.5t94 37t110.5 10.5q99 0 162 -3l-64 -168q-16 0 -48 1t-58 1q-39 0 -61.5 -18.5t-32.5 -70.5q-7 -40 -7 -55q0 -31 16.5 -41.5t60.5 -10.5q42 0 136 2l-64 -169q-86 -2 -124 -2zM363 597l-34 63l-57 -63
h-180l149 153h206l89 -153h-173z" />
    <glyph glyph-name="Cdotaccent" unicode="&#x10a;" horiz-adv-x="586" 
d="M563 192l-73 -190q-47 -4 -155 -4q-297 0 -297 261q0 52 10 108q35 193 137 270t287 77q75 0 176 -5l-73 -189q-62 3 -127 3q-67 0 -105 -38.5t-58 -126.5q-9 -44 -9 -74q0 -55 26 -75t71 -20q122 0 190 3zM465 934q107 0 107 -69q0 -61 -34.5 -85t-100.5 -24
q-107 0 -107 69q0 61 34.5 85t100.5 24z" />
    <glyph glyph-name="cdotaccent" unicode="&#x10b;" horiz-adv-x="487" 
d="M268 -2q-136 0 -192 51t-56 144q0 34 8 84q13 77 43.5 129t76 78.5t94 37t110.5 10.5q99 0 162 -3l-64 -168q-16 0 -48 1t-58 1q-39 0 -61.5 -18.5t-32.5 -70.5q-7 -40 -7 -55q0 -31 16.5 -41.5t60.5 -10.5q42 0 136 2l-64 -169q-86 -2 -124 -2zM350 755q107 0 107 -69
q0 -61 -34.5 -85t-100.5 -24q-107 0 -107 69q0 61 34.5 85t100.5 24z" />
    <glyph glyph-name="Ccaron" unicode="&#x10c;" horiz-adv-x="586" 
d="M563 192l-73 -190q-47 -4 -155 -4q-297 0 -297 261q0 52 10 108q35 193 137 270t287 77q75 0 176 -5l-73 -189q-62 3 -127 3q-67 0 -105 -38.5t-58 -126.5q-9 -44 -9 -74q0 -55 26 -75t71 -20q122 0 190 3zM423 920l37 -62l61 62h188l-154 -148h-217l-95 148h180z" />
    <glyph glyph-name="ccaron" unicode="&#x10d;" horiz-adv-x="487" 
d="M268 -2q-136 0 -192 51t-56 144q0 34 8 84q13 77 43.5 129t76 78.5t94 37t110.5 10.5q99 0 162 -3l-64 -168q-16 0 -48 1t-58 1q-39 0 -61.5 -18.5t-32.5 -70.5q-7 -40 -7 -55q0 -31 16.5 -41.5t60.5 -10.5q42 0 136 2l-64 -169q-86 -2 -124 -2zM312 750l34 -63l57 63
h180l-149 -153h-206l-89 153h173z" />
    <glyph glyph-name="Dcaron" unicode="&#x10e;" horiz-adv-x="718" 
d="M-10 0l139 712h262q162 0 243 -64.5t81 -202.5q0 -45 -9 -98q-16 -104 -54.5 -174t-98 -107t-127 -51.5t-158.5 -14.5h-278zM358 520h-38l-64 -328h42q57 0 87 11t51.5 46t34.5 107q8 50 8 75q0 53 -27.5 71t-93.5 18zM407 920l37 -62l61 62h188l-154 -148h-217l-95 148
h180z" />
    <glyph glyph-name="dcaron" unicode="&#x10f;" horiz-adv-x="761" 
d="M300 544q58 0 96 -18l42 217h220l-120 -619q-13 -71 -46.5 -96t-103.5 -32q-27 -5 -100 -5q-131 0 -198.5 46.5t-67.5 157.5q0 44 10 95q28 142 96 198t172 56zM287 160q17 0 38 3l27 137q4 17 4 36q0 22 -10 30.5t-31 8.5q-26 0 -39 -19t-25 -76q-10 -41 -10 -73
q0 -26 10.5 -36.5t35.5 -10.5zM695 743h174l-79 -196h-137z" />
    <glyph glyph-name="Dcroat" unicode="&#x110;" horiz-adv-x="749" 
d="M21 0l56 287h-68l28 148h69l54 277h262q162 0 243 -64.5t81 -202.5q0 -45 -9 -98q-16 -104 -54.5 -174t-98 -107t-127 -51.5t-158.5 -14.5h-278zM389 520h-38l-17 -85h102l-29 -148h-102l-18 -95h42q57 0 87 11t51.5 46t34.5 107q8 50 8 75q0 53 -27.5 71t-93.5 18z" />
    <glyph glyph-name="dslash" unicode="&#x111;" horiz-adv-x="602" 
d="M293 687h134l11 56h220l-11 -56h46l-22 -114h-46l-87 -449q-13 -71 -46.5 -96t-103.5 -32q-32 -5 -110 -5q-124 0 -191 44t-67 154q0 44 12 101q28 132 94.5 184t169.5 52q62 0 96 -18l13 65h-135zM287 160q17 0 38 3l25 127q3 18 3 31q0 20 -9.5 28t-32.5 8
q-26 0 -38 -17t-24 -70q-8 -31 -8 -62q0 -27 11 -37.5t35 -10.5z" />
    <glyph glyph-name="Emacron" unicode="&#x112;" horiz-adv-x="606" 
d="M514 0h-524l139 712h548l-69 -179h-292l-17 -85h286l-68 -177h-252l-18 -92h335zM229 772l27 137h348l-27 -137h-348z" />
    <glyph glyph-name="emacron" unicode="&#x113;" horiz-adv-x="565" 
d="M303 203h-76v-6q0 -28 16 -39.5t56 -11.5q136 0 192 4l-57 -147q-62 -5 -188 -5q-124 0 -175 51t-51 141q0 29 7 76q11 67 33 117.5t50.5 81t67.5 49t78 25.5t88 7q216 0 216 -153q0 -30 -7 -57q-17 -77 -77 -105t-173 -28zM325 398q-33 0 -48.5 -15t-26.5 -57h55
q27 0 39.5 5.5t17.5 21.5q2 10 2 16q0 29 -39 29zM154 597l27 137h354l-27 -137h-354z" />
    <glyph glyph-name="Ebreve" unicode="&#x114;" horiz-adv-x="606" 
d="M514 0h-524l139 712h548l-69 -179h-292l-17 -85h286l-68 -177h-252l-18 -92h335zM413 865q25 0 38 13.5t18 48.5h144q-15 -84 -64 -124.5t-145 -40.5q-90 0 -132 35t-42 95q0 17 3 35h142q-1 -7 -1 -19q0 -43 39 -43z" />
    <glyph glyph-name="ebreve" unicode="&#x115;" horiz-adv-x="565" 
d="M303 203h-76v-6q0 -28 16 -39.5t56 -11.5q136 0 192 4l-57 -147q-62 -5 -188 -5q-124 0 -175 51t-51 141q0 29 7 76q11 67 33 117.5t50.5 81t67.5 49t78 25.5t88 7q216 0 216 -153q0 -30 -7 -57q-17 -77 -77 -105t-173 -28zM325 398q-33 0 -48.5 -15t-26.5 -57h55
q27 0 39.5 5.5t17.5 21.5q2 10 2 16q0 29 -39 29zM360 680q22 0 33 11.5t16 40.5h149q-15 -80 -63.5 -117.5t-143.5 -37.5q-90 0 -133 33t-43 90q0 16 3 32h148q-1 -7 -1 -16q0 -36 35 -36z" />
    <glyph glyph-name="Edotaccent" unicode="&#x116;" horiz-adv-x="606" 
d="M514 0h-524l139 712h548l-69 -179h-292l-17 -85h286l-68 -177h-252l-18 -92h335zM434 934q107 0 107 -69q0 -61 -34.5 -85t-100.5 -24q-107 0 -107 69q0 61 34.5 85t100.5 24z" />
    <glyph glyph-name="edotaccent" unicode="&#x117;" horiz-adv-x="565" 
d="M303 203h-76v-6q0 -28 16 -39.5t56 -11.5q136 0 192 4l-57 -147q-62 -5 -188 -5q-124 0 -175 51t-51 141q0 29 7 76q11 67 33 117.5t50.5 81t67.5 49t78 25.5t88 7q216 0 216 -153q0 -30 -7 -57q-17 -77 -77 -105t-173 -28zM325 398q-33 0 -48.5 -15t-26.5 -57h55
q27 0 39.5 5.5t17.5 21.5q2 10 2 16q0 29 -39 29zM375 755q107 0 107 -69q0 -61 -34.5 -85t-100.5 -24q-107 0 -107 69q0 61 34.5 85t100.5 24z" />
    <glyph glyph-name="Eogonek" unicode="&#x118;" horiz-adv-x="606" 
d="M247 179h335l-68 -179q-42 -29 -62.5 -47t-20.5 -32q0 -17 38 -17h27l-58 -139h-36q-25 0 -41 0.5t-39.5 5t-37.5 12.5t-24.5 24t-10.5 38q0 43 25 75t97 80h-381l139 712h548l-69 -179h-292l-17 -85h286l-68 -177h-252z" />
    <glyph glyph-name="eogonek" unicode="&#x119;" horiz-adv-x="565" 
d="M303 203h-76v-6q0 -28 16 -39.5t56 -11.5q136 0 192 4l-57 -147q-83 -57 -83 -82q0 -17 38 -17h27l-58 -139h-36q-25 0 -41 0.5t-39.5 5t-37.5 12.5t-24.5 24t-10.5 38q0 42 24 75.5t91 77.5h-38q-226 0 -226 193q0 28 7 75q13 84 42.5 141t73.5 86.5t91.5 41t109.5 11.5
q216 0 216 -153q0 -32 -7 -57q-18 -77 -78 -105t-172 -28zM325 398q-33 0 -48.5 -15t-26.5 -57h55q27 0 39.5 5.5t17.5 21.5q2 10 2 16q0 29 -39 29z" />
    <glyph glyph-name="Ecaron" unicode="&#x11a;" horiz-adv-x="606" 
d="M514 0h-524l139 712h548l-69 -179h-292l-17 -85h286l-68 -177h-252l-18 -92h335zM382 920l37 -62l61 62h188l-154 -148h-217l-95 148h180z" />
    <glyph glyph-name="ecaron" unicode="&#x11b;" horiz-adv-x="565" 
d="M303 203h-76v-6q0 -28 16 -39.5t56 -11.5q136 0 192 4l-57 -147q-62 -5 -188 -5q-124 0 -175 51t-51 141q0 29 7 76q11 67 33 117.5t50.5 81t67.5 49t78 25.5t88 7q216 0 216 -153q0 -30 -7 -57q-17 -77 -77 -105t-173 -28zM325 398q-33 0 -48.5 -15t-26.5 -57h55
q27 0 39.5 5.5t17.5 21.5q2 10 2 16q0 29 -39 29zM323 750l34 -63l57 63h180l-149 -153h-206l-89 153h173z" />
    <glyph glyph-name="Gcircumflex" unicode="&#x11c;" horiz-adv-x="686" 
d="M278 358q-9 -45 -9 -77q0 -49 22 -72t72 -23h57l17 77h-85l63 164h267l-60 -309q-11 -56 -37 -81t-78 -33q-44 -6 -172 -6q-298 0 -298 261q0 47 11 108q21 107 58 176.5t96 106.5t126 50.5t164 13.5q78 0 215 -5l-72 -186q-68 3 -192 3q-71 0 -109 -37.5t-56 -130.5z
M507 772l-37 62l-61 -62h-188l154 148h217l95 -148h-180z" />
    <glyph glyph-name="gcircumflex" unicode="&#x11d;" horiz-adv-x="604" 
d="M304 41l1 5q-35 -18 -86 -18q-95 0 -144.5 49.5t-49.5 143.5q0 40 7 75q42 250 297 250q249 0 249 -191q0 -31 -8 -76l-44 -228q-24 -120 -97.5 -174t-202.5 -54q-143 0 -239 4l62 158q96 -2 165 -2q43 0 63 12.5t27 45.5zM316 382q-24 0 -38 -16.5t-25 -67.5
q-9 -42 -9 -64q0 -27 9.5 -35.5t30.5 -8.5q24 0 38 16.5t25 67.5q9 42 9 64q0 27 -9.5 35.5t-30.5 8.5zM404 597l-34 63l-57 -63h-180l149 153h206l89 -153h-173z" />
    <glyph glyph-name="Gbreve" unicode="&#x11e;" horiz-adv-x="686" 
d="M278 358q-9 -45 -9 -77q0 -49 22 -72t72 -23h57l17 77h-85l63 164h267l-60 -309q-11 -56 -37 -81t-78 -33q-44 -6 -172 -6q-298 0 -298 261q0 47 11 108q21 107 58 176.5t96 106.5t126 50.5t164 13.5q78 0 215 -5l-72 -186q-68 3 -192 3q-71 0 -109 -37.5t-56 -130.5z
M464 865q25 0 38 13.5t18 48.5h144q-15 -84 -64 -124.5t-145 -40.5q-90 0 -132 35t-42 95q0 17 3 35h142q-1 -7 -1 -19q0 -43 39 -43z" />
    <glyph glyph-name="gbreve" unicode="&#x11f;" horiz-adv-x="604" 
d="M304 41l1 5q-35 -18 -86 -18q-95 0 -144.5 49.5t-49.5 143.5q0 40 7 75q42 250 297 250q249 0 249 -191q0 -31 -8 -76l-44 -228q-24 -120 -97.5 -174t-202.5 -54q-143 0 -239 4l62 158q96 -2 165 -2q43 0 63 12.5t27 45.5zM316 382q-24 0 -38 -16.5t-25 -67.5
q-9 -42 -9 -64q0 -27 9.5 -35.5t30.5 -8.5q24 0 38 16.5t25 67.5q9 42 9 64q0 27 -9.5 35.5t-30.5 8.5zM368 680q22 0 33 11.5t16 40.5h149q-15 -80 -63.5 -117.5t-143.5 -37.5q-90 0 -133 33t-43 90q0 16 3 32h148q-1 -7 -1 -16q0 -36 35 -36z" />
    <glyph glyph-name="Gdotaccent" unicode="&#x120;" horiz-adv-x="686" 
d="M278 358q-9 -45 -9 -77q0 -49 22 -72t72 -23h57l17 77h-85l63 164h267l-60 -309q-11 -56 -37 -81t-78 -33q-44 -6 -172 -6q-298 0 -298 261q0 47 11 108q21 107 58 176.5t96 106.5t126 50.5t164 13.5q78 0 215 -5l-72 -186q-68 3 -192 3q-71 0 -109 -37.5t-56 -130.5z
M484 934q107 0 107 -69q0 -61 -34.5 -85t-100.5 -24q-107 0 -107 69q0 61 34.5 85t100.5 24z" />
    <glyph glyph-name="gdotaccent" unicode="&#x121;" horiz-adv-x="604" 
d="M304 41l1 5q-35 -18 -86 -18q-95 0 -144.5 49.5t-49.5 143.5q0 40 7 75q42 250 297 250q249 0 249 -191q0 -31 -8 -76l-44 -228q-24 -120 -97.5 -174t-202.5 -54q-143 0 -239 4l62 158q96 -2 165 -2q43 0 63 12.5t27 45.5zM316 382q-24 0 -38 -16.5t-25 -67.5
q-9 -42 -9 -64q0 -27 9.5 -35.5t30.5 -8.5q24 0 38 16.5t25 67.5q9 42 9 64q0 27 -9.5 35.5t-30.5 8.5zM378 755q107 0 107 -69q0 -61 -34.5 -85t-100.5 -24q-107 0 -107 69q0 61 34.5 85t100.5 24z" />
    <glyph glyph-name="Gcommaaccent" unicode="&#x122;" horiz-adv-x="686" 
d="M278 358q-9 -45 -9 -77q0 -49 22 -72t72 -23h57l17 77h-85l63 164h267l-60 -309q-11 -56 -37 -81t-78 -33q-44 -6 -172 -6q-298 0 -298 261q0 47 11 108q21 107 58 176.5t96 106.5t126 50.5t164 13.5q78 0 215 -5l-72 -186q-68 3 -192 3q-71 0 -109 -37.5t-56 -130.5z
M312 -291h-136l58 100q-26 18 -26 51q0 88 114 88q89 0 89 -67q0 -40 -39 -92z" />
    <glyph glyph-name="gcommaaccent" unicode="&#x123;" horiz-adv-x="604" 
d="M304 41l1 5q-35 -18 -86 -18q-95 0 -144.5 49.5t-49.5 143.5q0 40 7 75q42 250 297 250q249 0 249 -191q0 -31 -8 -76l-44 -228q-24 -120 -97.5 -174t-202.5 -54q-143 0 -239 4l62 158q96 -2 165 -2q43 0 63 12.5t27 45.5zM316 382q-24 0 -38 -16.5t-25 -67.5
q-9 -42 -9 -64q0 -27 9.5 -35.5t30.5 -8.5q24 0 38 16.5t25 67.5q9 42 9 64q0 27 -9.5 35.5t-30.5 8.5zM353 816h136l-58 -100q26 -18 26 -51q0 -88 -114 -88q-89 0 -89 67q0 40 39 92z" />
    <glyph glyph-name="Hcircumflex" unicode="&#x124;" horiz-adv-x="731" 
d="M405 0l50 259h-183l-50 -259h-232l139 712h232l-49 -250h183l49 250h232l-139 -712h-232zM505 772l-37 62l-61 -62h-188l154 148h217l95 -148h-180z" />
    <glyph glyph-name="hcircumflex" unicode="&#x125;" horiz-adv-x="599" 
d="M267 315l-61 -315h-220l144 743h220l-43 -219q40 22 94 22q178 0 178 -162q0 -30 -8 -75l-60 -309h-220l61 315q3 13 3 23q0 32 -36 32q-24 0 -35 -12.5t-17 -42.5zM313 772h-178l161 129h188l109 -129h-168l-46 52z" />
    <glyph glyph-name="Hbar" unicode="&#x126;" horiz-adv-x="796" 
d="M437 0l52 268h-183l-52 -268h-232l98 504h-69l29 147h69l12 61h232l-12 -61h183l12 61h232l-12 -61h70l-29 -147h-70l-98 -504h-232zM352 504l-11 -60h183l11 60h-183z" />
    <glyph glyph-name="hbar" unicode="&#x127;" horiz-adv-x="599" 
d="M350 743l-11 -56h134l-22 -114h-134l-14 -69q40 22 94 22q83 0 130 -41.5t47 -125.5q0 -32 -7 -70l-56 -289h-220l57 295q3 13 3 23q0 32 -36 32q-24 0 -35 -12.5t-17 -42.5l-57 -295h-220l111 573h-46l22 114h46l11 56h220z" />
    <glyph glyph-name="Itilde" unicode="&#x128;" horiz-adv-x="316" 
d="M361 712l-139 -712h-232l139 712h232zM163 763h-121l1 6q15 94 49 130t93 36q45 0 95 -26l6 -3q31 -17 54 -17q11 0 16.5 6.5t10.5 28.5l1 5h121l-1 -6q-15 -94 -49 -129.5t-93 -35.5q-48 0 -95 25l-6 3q-31 17 -54 17q-11 0 -16.5 -6.5t-10.5 -28.5z" />
    <glyph glyph-name="itilde" unicode="&#x129;" horiz-adv-x="294" 
d="M-14 0l103 530h220l-103 -530h-220zM318 749h119l-1 -7q-12 -87 -46 -124t-93 -37q-45 0 -95 26l-6 3q-39 17 -53 17q-12 0 -17.5 -7t-10.5 -28l-1 -5h-118l1 7q12 87 45 124t94 37q45 0 95 -26l6 -3q39 -17 53 -17q12 0 17 6.5t10 28.5z" />
    <glyph glyph-name="Imacron" unicode="&#x12a;" horiz-adv-x="316" 
d="M361 712l-139 -712h-232l139 712h232zM77 772l27 137h348l-27 -137h-348z" />
    <glyph glyph-name="imacron" unicode="&#x12b;" horiz-adv-x="294" 
d="M-14 0l103 530h220l-103 -530h-220zM29 597l27 137h354l-27 -137h-354z" />
    <glyph glyph-name="Ibreve" unicode="&#x12c;" horiz-adv-x="316" 
d="M361 712l-139 -712h-232l139 712h232zM271 865q25 0 38 13.5t18 48.5h144q-15 -84 -64 -124.5t-145 -40.5q-90 0 -132 35t-42 95q0 17 3 35h142q-1 -7 -1 -19q0 -43 39 -43z" />
    <glyph glyph-name="ibreve" unicode="&#x12d;" horiz-adv-x="294" 
d="M-14 0l103 530h220l-103 -530h-220zM222 680q22 0 33 11.5t16 40.5h149q-15 -80 -63.5 -117.5t-143.5 -37.5q-90 0 -133 33t-43 90q0 16 3 32h148q-1 -7 -1 -16q0 -36 35 -36z" />
    <glyph glyph-name="Iogonek" unicode="&#x12e;" horiz-adv-x="316" 
d="M129 712h232l-139 -712q-42 -29 -62.5 -47t-20.5 -32q0 -17 38 -17h27l-58 -139h-36q-25 0 -41 0.5t-39.5 5t-37.5 12.5t-24.5 24t-10.5 38q0 43 25 75t97 80h-89z" />
    <glyph glyph-name="iogonek" unicode="&#x12f;" horiz-adv-x="294" 
d="M-14 0l103 530h220l-103 -530q-42 -29 -62.5 -47t-20.5 -32q0 -17 38 -17h27l-58 -139h-36q-25 0 -41 0.5t-39.5 5t-37.5 12.5t-24.5 24t-10.5 38q0 43 25 75t97 80h-77zM234 755q107 0 107 -69q0 -61 -34.5 -85t-100.5 -24q-107 0 -107 69q0 61 34.5 85t100.5 24z" />
    <glyph glyph-name="Idot" unicode="&#x130;" horiz-adv-x="316" 
d="M361 712l-139 -712h-232l139 712h232zM280 934q107 0 107 -69q0 -61 -34.5 -85t-100.5 -24q-107 0 -107 69q0 61 34.5 85t100.5 24z" />
    <glyph glyph-name="dotlessi" unicode="&#x131;" horiz-adv-x="294" 
d="M-14 0l103 530h220l-103 -530h-220z" />
    <glyph glyph-name="IJ" unicode="&#x132;" horiz-adv-x="799" 
d="M361 712l-139 -712h-232l139 712h232zM527 275l85 437h232l-85 -437q-30 -150 -102 -213.5t-213 -63.5q-143 0 -174 3l71 187q27 -1 74 -1q52 0 77.5 20t34.5 68z" />
    <glyph glyph-name="ij" unicode="&#x133;" horiz-adv-x="588" 
d="M-14 0l103 530h220l-103 -530h-220zM234 755q107 0 107 -69q0 -61 -34.5 -85t-100.5 -24q-107 0 -107 69q0 61 34.5 85t100.5 24zM288 44l95 486h220l-97 -499q-21 -110 -79.5 -159t-166.5 -49q-73 0 -145 4l57 151q15 -1 46 -1q29 0 45.5 15.5t24.5 51.5zM528 755
q107 0 107 -69q0 -61 -34.5 -85t-100.5 -24q-107 0 -107 69q0 61 34.5 85t100.5 24z" />
    <glyph glyph-name="Jcircumflex" unicode="&#x134;" horiz-adv-x="483" 
d="M211 275l85 437h232l-85 -437q-30 -150 -102 -213.5t-213 -63.5q-143 0 -174 3l71 187q27 -1 74 -1q52 0 77.5 20t34.5 68zM467 772l-37 62l-61 -62h-188l154 148h217l95 -148h-180z" />
    <glyph glyph-name="jcircumflex" unicode="&#x135;" horiz-adv-x="294" 
d="M-6 44l95 486h220l-97 -499q-21 -110 -79.5 -159t-166.5 -49q-73 0 -145 4l57 151q15 -1 46 -1q29 0 45.5 15.5t24.5 51.5zM252 597l-34 63l-57 -63h-180l149 153h206l89 -153h-173z" />
    <glyph glyph-name="Kcommaaccent" unicode="&#x136;" horiz-adv-x="706" 
d="M347 712l-53 -268l221 268h255l-302 -352l195 -360h-270l-132 275l-53 -275h-218l139 712h218zM285 -291h-136l58 100q-26 18 -26 51q0 88 114 88q89 0 89 -67q0 -40 -39 -92z" />
    <glyph glyph-name="kcommaaccent" unicode="&#x137;" horiz-adv-x="618" 
d="M330 0l-94 206l-40 -206h-210l144 743h210l-76 -389l161 176h236l-239 -251l150 -279h-242zM247 -291h-136l58 100q-26 18 -26 51q0 88 114 88q89 0 89 -67q0 -40 -39 -92z" />
    <glyph glyph-name="kgreenlandic" unicode="&#x138;" horiz-adv-x="618" 
d="M330 0l-95 203l-39 -203h-210l103 530h210l-35 -181l161 181h236l-239 -256l150 -274h-242z" />
    <glyph glyph-name="Lacute" unicode="&#x139;" horiz-adv-x="576" 
d="M361 712l-102 -523h297l-72 -189h-494l139 712h232zM108 772l137 149h223l-170 -149h-190z" />
    <glyph glyph-name="lacute" unicode="&#x13a;" horiz-adv-x="294" 
d="M-14 0l144 743h220l-144 -743h-220zM325 772h-199l133 131h228z" />
    <glyph glyph-name="Lcommaaccent" unicode="&#x13b;" horiz-adv-x="576" 
d="M361 712l-102 -523h297l-72 -189h-494l139 712h232zM236 -291h-136l58 100q-26 18 -26 51q0 88 114 88q89 0 89 -67q0 -40 -39 -92z" />
    <glyph glyph-name="lcommaaccent" unicode="&#x13c;" horiz-adv-x="294" 
d="M-14 0l144 743h220l-144 -743h-220zM78 -291h-136l58 100q-26 18 -26 51q0 88 114 88q89 0 89 -67q0 -40 -39 -92z" />
    <glyph glyph-name="Lcaron" unicode="&#x13d;" horiz-adv-x="576" 
d="M361 712l-102 -523h297l-72 -189h-494l139 712h232zM425 763h174l-79 -196h-137z" />
    <glyph glyph-name="lcaron" unicode="&#x13e;" horiz-adv-x="453" 
d="M-14 0l144 743h220l-144 -743h-220zM387 743h174l-79 -196h-137z" />
    <glyph glyph-name="Ldot" unicode="&#x13f;" horiz-adv-x="576" 
d="M361 712l-102 -523h297l-72 -189h-494l139 712h232zM357 399q0 66 29.5 95t95.5 29q99 0 99 -82q0 -66 -29.5 -95t-95.5 -29q-99 0 -99 82z" />
    <glyph glyph-name="ldot" unicode="&#x140;" horiz-adv-x="534" 
d="M-14 0l144 743h220l-144 -743h-220zM325 351q0 66 29.5 95t95.5 29q99 0 99 -82q0 -66 -29.5 -95t-95.5 -29q-99 0 -99 82z" />
    <glyph glyph-name="Lslash" unicode="&#x141;" horiz-adv-x="608" 
d="M393 712l-40 -207l169 81l-35 -181l-170 -82l-26 -134h297l-72 -189h-494l39 201l-72 -34l36 182l72 34l64 329h232z" />
    <glyph glyph-name="lslash" unicode="&#x142;" horiz-adv-x="354" 
d="M15 0l47 244l-67 -32l32 167l68 33l64 331h220l-42 -214l70 34l-32 -167l-70 -34l-70 -362h-220z" />
    <glyph glyph-name="Nacute" unicode="&#x143;" horiz-adv-x="724" 
d="M449 0l-176 350l-68 -350h-215l139 712h175l182 -360l70 360h213l-139 -712h-181zM320 772l137 149h223l-170 -149h-190z" />
    <glyph glyph-name="nacute" unicode="&#x144;" horiz-adv-x="599" 
d="M267 315l-61 -315h-220l61 315q24 128 89.5 179.5t203.5 51.5q123 0 180 -43t57 -132q0 -29 -8 -72l-58 -299h-220l61 315q3 13 3 23q0 32 -36 32q-24 0 -35 -12.5t-17 -42.5zM222 597l134 149h228l-167 -149h-195z" />
    <glyph glyph-name="Ncommaaccent" unicode="&#x145;" horiz-adv-x="724" 
d="M449 0l-176 350l-68 -350h-215l139 712h175l182 -360l70 360h213l-139 -712h-181zM312 -291h-136l58 100q-26 18 -26 51q0 88 114 88q89 0 89 -67q0 -40 -39 -92z" />
    <glyph glyph-name="ncommaaccent" unicode="&#x146;" horiz-adv-x="599" 
d="M267 315l-61 -315h-220l61 315q24 128 89.5 179.5t203.5 51.5q123 0 180 -43t57 -132q0 -29 -8 -72l-58 -299h-220l61 315q3 13 3 23q0 32 -36 32q-24 0 -35 -12.5t-17 -42.5zM238 -291h-136l58 100q-26 18 -26 51q0 88 114 88q89 0 89 -67q0 -40 -39 -92z" />
    <glyph glyph-name="Ncaron" unicode="&#x147;" horiz-adv-x="724" 
d="M449 0l-176 350l-68 -350h-215l139 712h175l182 -360l70 360h213l-139 -712h-181zM431 920l37 -62l61 62h188l-154 -148h-217l-95 148h180z" />
    <glyph glyph-name="ncaron" unicode="&#x148;" horiz-adv-x="599" 
d="M267 315l-61 -315h-220l61 315q24 128 89.5 179.5t203.5 51.5q123 0 180 -43t57 -132q0 -29 -8 -72l-58 -299h-220l61 315q3 13 3 23q0 32 -36 32q-24 0 -35 -12.5t-17 -42.5zM334 750l34 -63l57 63h180l-149 -153h-206l-89 153h173z" />
    <glyph glyph-name="napostrophe" unicode="&#x149;" horiz-adv-x="761" 
d="M429 315l-61 -315h-220l61 315q24 128 89.5 179.5t203.5 51.5q123 0 180 -43t57 -132q0 -29 -8 -72l-58 -299h-220l61 315q3 13 3 23q0 32 -36 32q-24 0 -35 -12.5t-17 -42.5zM301 685q0 -7 -0.5 -13.5t-3 -14t-4 -12.5t-6.5 -14t-8 -14.5t-10 -17t-11 -18t-14.5 -22
t-15.5 -23.5l-57 -89h-125l78 149q-22 16 -22 56q0 103 109 103q46 0 68 -19t22 -51z" />
    <glyph glyph-name="Eng" unicode="&#x14a;" horiz-adv-x="724" 
d="M556 712h213l-121 -620q-30 -157 -100.5 -218t-218.5 -61q-108 0 -131 3l66 169q24 -1 69 -1q41 0 60 11t32 53l-152 302l-68 -350h-215l139 712h175l182 -360z" />
    <glyph glyph-name="eng" unicode="&#x14b;" horiz-adv-x="599" 
d="M267 315l-61 -315h-220l61 315q24 128 89.5 179.5t203.5 51.5q122 0 179.5 -43t57.5 -132q0 -29 -8 -72l-51 -268q-21 -110 -79.5 -159t-166.5 -49q-65 0 -137 4l55 145q15 -1 38 -1q58 0 70 67l54 277q3 13 3 23q0 32 -36 32q-24 0 -35 -12.5t-17 -42.5z" />
    <glyph glyph-name="Omacron" unicode="&#x14c;" horiz-adv-x="740" 
d="M353 174q64 0 89.5 32t45.5 144q12 66 12 105q0 48 -18 66.5t-58 18.5q-62 0 -89.5 -34t-47.5 -143q-12 -65 -12 -104q0 -49 18.5 -67t59.5 -18zM726 345q-37 -199 -129.5 -281t-261.5 -82q-150 0 -224 65t-74 200q0 55 12 121q37 200 129 282t262 82q150 0 224 -65.5
t74 -201.5q0 -54 -12 -120zM274 772l27 137h348l-27 -137h-348z" />
    <glyph glyph-name="omacron" unicode="&#x14d;" horiz-adv-x="597" 
d="M278 153q28 0 42 20t26 80q11 50 11 80q0 27 -9 35.5t-29 8.5q-28 0 -42 -19.5t-26 -79.5q-11 -50 -11 -80q0 -27 9 -36t29 -9zM338 546q122 0 180.5 -47.5t58.5 -151.5q0 -45 -10 -95q-26 -144 -99 -206t-209 -62q-122 0 -180.5 47.5t-58.5 151.5q0 45 10 95
q26 144 99 206t209 62zM179 597l27 137h354l-27 -137h-354z" />
    <glyph glyph-name="Obreve" unicode="&#x14e;" horiz-adv-x="740" 
d="M353 174q64 0 89.5 32t45.5 144q12 66 12 105q0 48 -18 66.5t-58 18.5q-62 0 -89.5 -34t-47.5 -143q-12 -65 -12 -104q0 -49 18.5 -67t59.5 -18zM726 345q-37 -199 -129.5 -281t-261.5 -82q-150 0 -224 65t-74 200q0 55 12 121q37 200 129 282t262 82q150 0 224 -65.5
t74 -201.5q0 -54 -12 -120zM472 865q25 0 38 13.5t18 48.5h144q-15 -84 -64 -124.5t-145 -40.5q-90 0 -132 35t-42 95q0 17 3 35h142q-1 -7 -1 -19q0 -43 39 -43z" />
    <glyph glyph-name="obreve" unicode="&#x14f;" horiz-adv-x="597" 
d="M278 153q28 0 42 20t26 80q11 50 11 80q0 27 -9 35.5t-29 8.5q-28 0 -42 -19.5t-26 -79.5q-11 -50 -11 -80q0 -27 9 -36t29 -9zM338 546q122 0 180.5 -47.5t58.5 -151.5q0 -45 -10 -95q-26 -144 -99 -206t-209 -62q-122 0 -180.5 47.5t-58.5 151.5q0 45 10 95
q26 144 99 206t209 62zM368 680q22 0 33 11.5t16 40.5h149q-15 -80 -63.5 -117.5t-143.5 -37.5q-90 0 -133 33t-43 90q0 16 3 32h148q-1 -7 -1 -16q0 -36 35 -36z" />
    <glyph glyph-name="Ohungarumlaut" unicode="&#x150;" horiz-adv-x="740" 
d="M353 174q64 0 89.5 32t45.5 144q12 66 12 105q0 48 -18 66.5t-58 18.5q-62 0 -89.5 -34t-47.5 -143q-12 -65 -12 -104q0 -49 18.5 -67t59.5 -18zM726 345q-37 -199 -129.5 -281t-261.5 -82q-150 0 -224 65t-74 200q0 55 12 121q37 200 129 282t262 82q150 0 224 -65.5
t74 -201.5q0 -54 -12 -120zM234 772l125 149h193l-155 -149h-163zM467 772l125 149h193l-155 -149h-163z" />
    <glyph glyph-name="ohungarumlaut" unicode="&#x151;" horiz-adv-x="597" 
d="M278 153q28 0 42 20t26 80q11 50 11 80q0 27 -9 35.5t-29 8.5q-28 0 -42 -19.5t-26 -79.5q-11 -50 -11 -80q0 -27 9 -36t29 -9zM338 546q122 0 180.5 -47.5t58.5 -151.5q0 -45 -10 -95q-26 -144 -99 -206t-209 -62q-122 0 -180.5 47.5t-58.5 151.5q0 45 10 95
q26 144 99 206t209 62zM139 597l125 149h193l-155 -149h-163zM372 597l125 149h193l-155 -149h-163z" />
    <glyph glyph-name="OE" unicode="&#x152;" horiz-adv-x="1007" 
d="M983 179l-68 -179h-581q-150 0 -224 62.5t-74 190.5q0 52 12 115q37 190 129 267t262 77h639l-69 -179h-292l-17 -85h286l-68 -177h-252l-18 -92h335zM352 192h77l64 328h-70q-62 0 -89.5 -30t-47.5 -127q-12 -59 -12 -93q0 -44 18.5 -61t59.5 -17z" />
    <glyph glyph-name="oe" unicode="&#x153;" horiz-adv-x="895" 
d="M585 -2q-102 0 -155 41q-61 -47 -171 -47q-128 0 -183 47.5t-55 144.5q0 43 9 94q26 144 98.5 206t209.5 62q102 0 152 -50q65 50 184 50q216 0 216 -153q0 -30 -7 -57q-17 -77 -77 -105t-173 -28h-76v-6q0 -28 16 -39.5t56 -11.5q136 0 192 4l-57 -147q-62 -5 -179 -5z
M655 398q-33 0 -48.5 -15t-26.5 -57h55q29 0 41.5 6.5t16.5 23.5q2 10 2 13q0 29 -40 29zM278 153q28 0 42 20t26 80q11 50 11 80q0 27 -9 35.5t-29 8.5q-28 0 -42 -19.5t-26 -79.5q-11 -50 -11 -80q0 -27 9 -36t29 -9z" />
    <glyph glyph-name="Racute" unicode="&#x154;" horiz-adv-x="670" 
d="M386 0l-70 220h-67l-43 -220h-216l139 712h278q273 0 273 -201q0 -34 -5 -60q-26 -148 -154 -202l88 -249h-223zM311 536l-29 -146h70q52 0 73.5 13.5t29.5 51.5q3 15 3 27q0 29 -19 41.5t-59 12.5h-69zM281 772l137 149h223l-170 -149h-190z" />
    <glyph glyph-name="racute" unicode="&#x155;" horiz-adv-x="396" 
d="M318 533q113 0 138 -2l-67 -177q-40 2 -52 2q-37 0 -51.5 -14.5t-23.5 -52.5l-56 -289h-220l58 300q25 132 89.5 182.5t184.5 50.5zM180 597l134 149h228l-167 -149h-195z" />
    <glyph glyph-name="Rcommaaccent" unicode="&#x156;" horiz-adv-x="670" 
d="M386 0l-70 220h-67l-43 -220h-216l139 712h278q273 0 273 -201q0 -34 -5 -60q-26 -148 -154 -202l88 -249h-223zM311 536l-29 -146h70q52 0 73.5 13.5t29.5 51.5q3 15 3 27q0 29 -19 41.5t-59 12.5h-69zM271 -291h-136l58 100q-26 18 -26 51q0 88 114 88q89 0 89 -67
q0 -40 -39 -92z" />
    <glyph glyph-name="rcommaaccent" unicode="&#x157;" horiz-adv-x="396" 
d="M318 533q113 0 138 -2l-67 -177q-40 2 -52 2q-37 0 -51.5 -14.5t-23.5 -52.5l-56 -289h-220l58 300q25 132 89.5 182.5t184.5 50.5zM77 -291h-136l58 100q-26 18 -26 51q0 88 114 88q89 0 89 -67q0 -40 -39 -92z" />
    <glyph glyph-name="Rcaron" unicode="&#x158;" horiz-adv-x="670" 
d="M386 0l-70 220h-67l-43 -220h-216l139 712h278q273 0 273 -201q0 -34 -5 -60q-26 -148 -154 -202l88 -249h-223zM311 536l-29 -146h70q52 0 73.5 13.5t29.5 51.5q3 15 3 27q0 29 -19 41.5t-59 12.5h-69zM371 920l37 -62l61 62h188l-154 -148h-217l-95 148h180z" />
    <glyph glyph-name="rcaron" unicode="&#x159;" horiz-adv-x="396" 
d="M318 533q113 0 138 -2l-67 -177q-40 2 -52 2q-37 0 -51.5 -14.5t-23.5 -52.5l-56 -289h-220l58 300q25 132 89.5 182.5t184.5 50.5zM281 750l34 -63l57 63h180l-149 -153h-206l-89 153h173z" />
    <glyph glyph-name="Sacute" unicode="&#x15a;" horiz-adv-x="611" 
d="M658 711l-70 -178q-226 2 -236 2q-46 0 -54 -23q-2 -8 -2 -15q0 -18 37 -30l92 -29q85 -27 121 -70t36 -105q0 -23 -7 -63q-23 -110 -97 -156t-237 -46q-133 0 -271 3l68 178q70 -2 237 -2q39 0 53.5 6.5t18.5 26.5q1 3 1 10q0 21 -36 32l-88 27q-89 27 -125.5 68.5
t-36.5 102.5q0 28 6 59q11 60 40 101.5t74.5 63.5t97.5 31t121 9q108 0 257 -3zM285 772l137 149h223l-170 -149h-190z" />
    <glyph glyph-name="sacute" unicode="&#x15b;" horiz-adv-x="506" 
d="M266 351l85 -21q118 -28 118 -130q0 -29 -7 -58q-17 -77 -84.5 -110.5t-185.5 -33.5q-147 0 -224 3l50 145q28 0 100 -1t105 -1q19 0 26 3q9 5 9 16t-24 17l-89 22q-111 29 -111 132q0 17 5 44q18 83 82 118.5t184 35.5q29 0 218 -4l-54 -146q-168 4 -192 4q-15 0 -25 -3
q-10 -4 -10 -15t24 -17zM183 597l134 149h228l-167 -149h-195z" />
    <glyph glyph-name="Scircumflex" unicode="&#x15c;" horiz-adv-x="611" 
d="M658 711l-70 -178q-226 2 -236 2q-46 0 -54 -23q-2 -8 -2 -15q0 -18 37 -30l92 -29q85 -27 121 -70t36 -105q0 -23 -7 -63q-23 -110 -97 -156t-237 -46q-133 0 -271 3l68 178q70 -2 237 -2q39 0 53.5 6.5t18.5 26.5q1 3 1 10q0 21 -36 32l-88 27q-89 27 -125.5 68.5
t-36.5 102.5q0 28 6 59q11 60 40 101.5t74.5 63.5t97.5 31t121 9q108 0 257 -3zM455 772l-37 62l-61 -62h-188l154 148h217l95 -148h-180z" />
    <glyph glyph-name="scircumflex" unicode="&#x15d;" horiz-adv-x="506" 
d="M266 351l85 -21q118 -28 118 -130q0 -29 -7 -58q-17 -77 -84.5 -110.5t-185.5 -33.5q-147 0 -224 3l50 145q28 0 100 -1t105 -1q19 0 26 3q9 5 9 16t-24 17l-89 22q-111 29 -111 132q0 17 5 44q18 83 82 118.5t184 35.5q29 0 218 -4l-54 -146q-168 4 -192 4q-15 0 -25 -3
q-10 -4 -10 -15t24 -17zM356 597l-34 63l-57 -63h-180l149 153h206l89 -153h-173z" />
    <glyph glyph-name="Scedilla" unicode="&#x15e;" horiz-adv-x="611" 
d="M658 711l-70 -178q-226 2 -236 2q-46 0 -54 -23q-2 -8 -2 -15q0 -18 37 -30l92 -29q85 -27 121 -70t36 -105q0 -23 -7 -63q-23 -110 -97 -156t-237 -46q-133 0 -271 3l68 178q70 -2 237 -2q39 0 53.5 6.5t18.5 26.5q1 3 1 10q0 21 -36 32l-88 27q-89 27 -125.5 68.5
t-36.5 102.5q0 28 6 59q11 60 40 101.5t74.5 63.5t97.5 31t121 9q108 0 257 -3zM82 -251l33 91q17 0 41 -0.5t40 -0.5q22 0 29 7q9 9 9 23q0 15 -29 15q-33 0 -64 -1l30 81q38 2 75 2q127 0 127 -87q0 -6 -2 -24q-10 -59 -53.5 -84t-129.5 -25q-62 0 -106 3z" />
    <glyph glyph-name="scedilla" unicode="&#x15f;" horiz-adv-x="506" 
d="M266 351l85 -21q118 -28 118 -130q0 -29 -7 -58q-17 -77 -84.5 -110.5t-185.5 -33.5q-147 0 -224 3l50 145q28 0 100 -1t105 -1q19 0 26 3q9 5 9 16t-24 17l-89 22q-111 29 -111 132q0 17 5 44q18 83 82 118.5t184 35.5q29 0 218 -4l-54 -146q-168 4 -192 4q-15 0 -25 -3
q-10 -4 -10 -15t24 -17zM24 -251l33 89q33 -1 76 -1q22 0 29 7q9 6 9 25q0 17 -29 17q-30 0 -59 -1l30 79q32 2 66 2q127 0 127 -87q0 -6 -2 -24q-10 -59 -53.5 -84t-129.5 -25q-58 0 -97 3z" />
    <glyph glyph-name="Scaron" unicode="&#x160;" horiz-adv-x="611" 
d="M658 711l-70 -178q-226 2 -236 2q-46 0 -54 -23q-2 -8 -2 -15q0 -18 37 -30l92 -29q85 -27 121 -70t36 -105q0 -23 -7 -63q-23 -110 -97 -156t-237 -46q-133 0 -271 3l68 178q70 -2 237 -2q39 0 53.5 6.5t18.5 26.5q1 3 1 10q0 21 -36 32l-88 27q-89 27 -125.5 68.5
t-36.5 102.5q0 28 6 59q11 60 40 101.5t74.5 63.5t97.5 31t121 9q108 0 257 -3zM378 920l37 -62l61 62h188l-154 -148h-217l-95 148h180z" />
    <glyph glyph-name="scaron" unicode="&#x161;" horiz-adv-x="506" 
d="M266 351l85 -21q118 -28 118 -130q0 -29 -7 -58q-17 -77 -84.5 -110.5t-185.5 -33.5q-147 0 -224 3l50 145q28 0 100 -1t105 -1q19 0 26 3q9 5 9 16t-24 17l-89 22q-111 29 -111 132q0 17 5 44q18 83 82 118.5t184 35.5q29 0 218 -4l-54 -146q-168 4 -192 4q-15 0 -25 -3
q-10 -4 -10 -15t24 -17zM284 750l34 -63l57 63h180l-149 -153h-206l-89 153h173z" />
    <glyph glyph-name="Tcommaaccent" unicode="&#x162;" horiz-adv-x="688" 
d="M691 523h-184l-102 -523h-232l102 523h-220l72 189h636zM100 -251l33 91q17 0 41 -0.5t40 -0.5q22 0 29 7q9 9 9 23q0 15 -29 15q-33 0 -64 -1l30 81q38 2 75 2q127 0 127 -87q0 -6 -2 -24q-10 -59 -53.5 -84t-129.5 -25q-62 0 -106 3z" />
    <glyph glyph-name="tcommaaccent" unicode="&#x163;" horiz-adv-x="426" 
d="M400 372h-122l-28 -145q-2 -5 -2 -22q0 -42 54 -42q42 0 96 2l-64 -165q-48 -2 -126 -2q-92 0 -138.5 43t-46.5 122q0 24 7 64l82 422l225 28l-29 -147h153zM7 -251l33 89q33 -1 76 -1q22 0 29 7q9 6 9 25q0 17 -29 17q-30 0 -59 -1l30 79q32 2 66 2q127 0 127 -87
q0 -6 -2 -24q-10 -59 -53.5 -84t-129.5 -25q-58 0 -97 3z" />
    <glyph glyph-name="Tcaron" unicode="&#x164;" horiz-adv-x="688" 
d="M691 523h-184l-102 -523h-232l102 523h-220l72 189h636zM404 920l37 -62l61 62h188l-154 -148h-217l-95 148h180z" />
    <glyph glyph-name="tcaron" unicode="&#x165;" horiz-adv-x="426" 
d="M400 372h-122l-28 -145q-2 -5 -2 -22q0 -42 54 -42q42 0 96 2l-64 -165q-48 -2 -126 -2q-92 0 -138.5 43t-46.5 122q0 24 7 64l82 422l225 28l-29 -147h153zM390 743h173l-68 -170h-140z" />
    <glyph glyph-name="Tbar" unicode="&#x166;" horiz-adv-x="688" 
d="M691 523h-184l-23 -119h114l-32 -160h-114l-47 -244h-232l47 244h-119l32 160h119l23 119h-220l72 189h636z" />
    <glyph glyph-name="tbar" unicode="&#x167;" horiz-adv-x="441" 
d="M430 387h-136l-11 -58h142l-23 -115h-140q-1 -3 -1 -10q0 -41 55 -41q42 0 96 2l-64 -165q-46 -2 -122 -2q-89 0 -134 43t-45 122q0 26 4 51h-56l23 115h56l62 320l215 28l-29 -147h163z" />
    <glyph glyph-name="Utilde" unicode="&#x168;" horiz-adv-x="722" 
d="M535 712h232l-85 -434q-30 -157 -110.5 -226.5t-238.5 -69.5q-295 0 -295 224q0 41 9 86l82 420h232l-85 -434q-4 -17 -4 -39q0 -32 16.5 -48.5t58.5 -16.5q49 0 70 22.5t33 81.5zM355 763h-121l1 6q15 94 49 130t93 36q45 0 95 -26l6 -3q31 -17 54 -17q11 0 16.5 6.5
t10.5 28.5l1 5h121l-1 -6q-15 -94 -49 -129.5t-93 -35.5q-48 0 -95 25l-6 3q-31 17 -54 17q-11 0 -16.5 -6.5t-10.5 -28.5z" />
    <glyph glyph-name="utilde" unicode="&#x169;" horiz-adv-x="599" 
d="M332 215l61 315h220l-61 -315q-24 -128 -89.5 -179.5t-203.5 -51.5q-122 0 -179.5 43t-57.5 132q0 29 8 72l58 299h220l-61 -315q-3 -14 -3 -23q0 -32 36 -32q24 0 35 12.5t17 42.5zM464 749h119l-1 -7q-12 -87 -46 -124t-93 -37q-45 0 -95 26l-6 3q-39 17 -53 17
q-12 0 -17.5 -7t-10.5 -28l-1 -5h-118l1 7q12 87 45 124t94 37q45 0 95 -26l6 -3q39 -17 53 -17q12 0 17 6.5t10 28.5z" />
    <glyph glyph-name="Umacron" unicode="&#x16a;" horiz-adv-x="722" 
d="M535 712h232l-85 -434q-30 -157 -110.5 -226.5t-238.5 -69.5q-295 0 -295 224q0 41 9 86l82 420h232l-85 -434q-4 -17 -4 -39q0 -32 16.5 -48.5t58.5 -16.5q49 0 70 22.5t33 81.5zM278 772l27 137h348l-27 -137h-348z" />
    <glyph glyph-name="umacron" unicode="&#x16b;" horiz-adv-x="599" 
d="M332 215l61 315h220l-61 -315q-24 -128 -89.5 -179.5t-203.5 -51.5q-122 0 -179.5 43t-57.5 132q0 29 8 72l58 299h220l-61 -315q-3 -14 -3 -23q0 -32 36 -32q24 0 35 12.5t17 42.5zM178 597l27 137h354l-27 -137h-354z" />
    <glyph glyph-name="Ubreve" unicode="&#x16c;" horiz-adv-x="722" 
d="M535 712h232l-85 -434q-30 -157 -110.5 -226.5t-238.5 -69.5q-295 0 -295 224q0 41 9 86l82 420h232l-85 -434q-4 -17 -4 -39q0 -32 16.5 -48.5t58.5 -16.5q49 0 70 22.5t33 81.5zM466 865q25 0 38 13.5t18 48.5h144q-15 -84 -64 -124.5t-145 -40.5q-90 0 -132 35t-42 95
q0 17 3 35h142q-1 -7 -1 -19q0 -43 39 -43z" />
    <glyph glyph-name="ubreve" unicode="&#x16d;" horiz-adv-x="599" 
d="M332 215l61 315h220l-61 -315q-24 -128 -89.5 -179.5t-203.5 -51.5q-122 0 -179.5 43t-57.5 132q0 29 8 72l58 299h220l-61 -315q-3 -14 -3 -23q0 -32 36 -32q24 0 35 12.5t17 42.5zM367 680q22 0 33 11.5t16 40.5h149q-15 -80 -63.5 -117.5t-143.5 -37.5q-90 0 -133 33
t-43 90q0 16 3 32h148q-1 -7 -1 -16q0 -36 35 -36z" />
    <glyph glyph-name="Uring" unicode="&#x16e;" horiz-adv-x="722" 
d="M535 712h232l-85 -434q-30 -157 -110.5 -226.5t-238.5 -69.5q-295 0 -295 224q0 41 9 86l82 420h232l-85 -434q-4 -17 -4 -39q0 -32 16.5 -48.5t58.5 -16.5q49 0 70 22.5t33 81.5zM514 859l2 14q0 33 -41 33q-26 0 -37.5 -11t-17.5 -36l-2 -14q0 -33 42 -33q26 0 37 10.5
t17 36.5zM320 859q8 64 50 99.5t113 35.5q62 0 97 -28t35 -83q0 -8 -2 -24q-8 -64 -50 -99.5t-113 -35.5q-62 0 -96.5 28t-34.5 84q0 15 1 23z" />
    <glyph glyph-name="uring" unicode="&#x16f;" horiz-adv-x="599" 
d="M332 215l61 315h220l-61 -315q-24 -128 -89.5 -179.5t-203.5 -51.5q-122 0 -179.5 43t-57.5 132q0 29 8 72l58 299h220l-61 -315q-3 -14 -3 -23q0 -32 36 -32q24 0 35 12.5t17 42.5zM413 693q1 3 1 13q0 31 -38 31q-24 0 -35 -10t-16 -34q-1 -3 -1 -13q0 -31 38 -31
q25 0 35 9.5t16 34.5zM232 693q8 60 47 93t105 33q122 0 122 -104q0 -14 -1 -22q-8 -60 -47 -93t-105 -33q-122 0 -122 104q0 14 1 22z" />
    <glyph glyph-name="Uhungarumlaut" unicode="&#x170;" horiz-adv-x="722" 
d="M535 712h232l-85 -434q-30 -157 -110.5 -226.5t-238.5 -69.5q-295 0 -295 224q0 41 9 86l82 420h232l-85 -434q-4 -17 -4 -39q0 -32 16.5 -48.5t58.5 -16.5q49 0 70 22.5t33 81.5zM226 772l125 149h193l-155 -149h-163zM459 772l125 149h193l-155 -149h-163z" />
    <glyph glyph-name="uhungarumlaut" unicode="&#x171;" horiz-adv-x="599" 
d="M332 215l61 315h220l-61 -315q-24 -128 -89.5 -179.5t-203.5 -51.5q-122 0 -179.5 43t-57.5 132q0 29 8 72l58 299h220l-61 -315q-3 -14 -3 -23q0 -32 36 -32q24 0 35 12.5t17 42.5zM128 597l125 149h193l-155 -149h-163zM361 597l125 149h193l-155 -149h-163z" />
    <glyph glyph-name="Uogonek" unicode="&#x172;" horiz-adv-x="722" 
d="M535 712h232l-85 -434q-24 -118 -72.5 -185t-134.5 -93q-42 -29 -62.5 -47t-20.5 -32q0 -17 38 -17h27l-58 -139h-36q-25 0 -41 0.5t-39.5 5t-37.5 12.5t-24.5 24t-10.5 38q0 39 20.5 69t75.5 69q-268 11 -268 223q0 41 9 86l82 420h232l-85 -434q-4 -15 -4 -39
q0 -32 16.5 -48.5t58.5 -16.5q49 0 70 22.5t33 81.5z" />
    <glyph glyph-name="uogonek" unicode="&#x173;" horiz-adv-x="599" 
d="M332 215l61 315h220l-61 -315q-18 -94 -55.5 -144.5t-105.5 -70.5q-23 -16 -33 -23.5t-24 -19.5t-19.5 -20t-5.5 -16q0 -17 38 -17h27l-58 -139h-36q-25 0 -41 0.5t-39.5 5t-37.5 12.5t-24.5 24t-10.5 38q0 40 21 70.5t79 69.5q-105 6 -155 49t-50 125q0 29 8 72l58 299
h220l-61 -315q-3 -14 -3 -23q0 -32 36 -32q24 0 35 12.5t17 42.5z" />
    <glyph glyph-name="Wcircumflex" unicode="&#x174;" horiz-adv-x="991" 
d="M769 0h-245l1 398l-153 -398h-254l-26 712h232l-14 -445l170 445h206l-2 -446l160 446h229zM637 772l-37 62l-61 -62h-188l154 148h217l95 -148h-180z" />
    <glyph glyph-name="wcircumflex" unicode="&#x175;" horiz-adv-x="811" 
d="M404 0l-1 261l-102 -261h-210l-38 530h213l-17 -301l118 301h179l1 -301l99 301h214l-254 -530h-202zM514 597l-34 63l-57 -63h-180l149 153h206l89 -153h-173z" />
    <glyph glyph-name="Ycircumflex" unicode="&#x176;" horiz-adv-x="707" 
d="M86 712h251l50 -253l153 253h254l-324 -434l-54 -278h-228l54 278zM495 772l-37 62l-61 -62h-188l154 148h217l95 -148h-180z" />
    <glyph glyph-name="ycircumflex" unicode="&#x177;" horiz-adv-x="599" 
d="M300 45l1 5q-40 -22 -94 -22q-178 0 -178 161q0 44 8 76l52 265h220l-53 -271q-3 -13 -3 -23q0 -32 36 -32q24 0 35 12.5t17 42.5l53 271h220l-93 -479q-23 -120 -96.5 -174t-203.5 -54q-143 0 -239 4l62 158q96 -2 165 -2q44 0 64 13t27 49zM408 597l-34 63l-57 -63
h-180l149 153h206l89 -153h-173z" />
    <glyph glyph-name="Ydieresis" unicode="&#x178;" horiz-adv-x="707" 
d="M86 712h251l50 -253l153 253h254l-324 -434l-54 -278h-228l54 278zM229 826q0 57 25.5 80t86.5 23q91 0 91 -69q0 -57 -26 -80.5t-86 -23.5q-45 0 -68 18.5t-23 51.5zM470 826q0 57 25.5 80t86.5 23q91 0 91 -69q0 -57 -26 -80.5t-86 -23.5q-45 0 -68 18.5t-23 51.5z" />
    <glyph glyph-name="Zacute" unicode="&#x179;" horiz-adv-x="641" 
d="M660 553l-356 -372h306l-70 -181h-569l30 154l359 377h-286l69 181h548zM289 772l137 149h223l-170 -149h-190z" />
    <glyph glyph-name="zacute" unicode="&#x17a;" horiz-adv-x="542" 
d="M535 400l-241 -239h205l-61 -161h-456l25 130l236 239h-195l61 161h451zM211 597l134 149h228l-167 -149h-195z" />
    <glyph glyph-name="Zdotaccent" unicode="&#x17b;" horiz-adv-x="641" 
d="M660 553l-356 -372h306l-70 -181h-569l30 154l359 377h-286l69 181h548zM443 934q107 0 107 -69q0 -61 -34.5 -85t-100.5 -24q-107 0 -107 69q0 61 34.5 85t100.5 24z" />
    <glyph glyph-name="zdotaccent" unicode="&#x17c;" horiz-adv-x="542" 
d="M535 400l-241 -239h205l-61 -161h-456l25 130l236 239h-195l61 161h451zM360 755q107 0 107 -69q0 -61 -34.5 -85t-100.5 -24q-107 0 -107 69q0 61 34.5 85t100.5 24z" />
    <glyph glyph-name="Zcaron" unicode="&#x17d;" horiz-adv-x="641" 
d="M660 553l-356 -372h306l-70 -181h-569l30 154l359 377h-286l69 181h548zM391 920l37 -62l61 62h188l-154 -148h-217l-95 148h180z" />
    <glyph glyph-name="zcaron" unicode="&#x17e;" horiz-adv-x="542" 
d="M535 400l-241 -239h205l-61 -161h-456l25 130l236 239h-195l61 161h451zM315 750l34 -63l57 63h180l-149 -153h-206l-89 153h173z" />
    <glyph glyph-name="longs" unicode="&#x17f;" horiz-adv-x="297" 
d="M306 516l-100 -516h-220l96 495q27 141 97.5 195.5t197.5 54.5q84 0 139 -5l-60 -154q-46 2 -66 2q-41 0 -59 -16t-25 -56z" />
    <glyph glyph-name="florin" unicode="&#x192;" horiz-adv-x="389" 
d="M276 360l-64 -329q-21 -110 -79.5 -159t-166.5 -49q-73 0 -145 4l57 151q15 -1 46 -1q29 0 45.5 15.5t24.5 51.5l88 451q27 141 97.5 195.5t197.5 54.5q86 0 144 -5l-60 -154q-50 2 -71 2q-41 0 -59 -16t-25 -56h143l-60 -156h-113z" />
    <glyph glyph-name="Scommaaccent" unicode="&#x218;" horiz-adv-x="611" 
d="M658 711l-70 -178q-226 2 -236 2q-46 0 -54 -23q-2 -8 -2 -15q0 -18 37 -30l92 -29q85 -27 121 -70t36 -105q0 -23 -7 -63q-23 -110 -97 -156t-237 -46q-133 0 -271 3l68 178q70 -2 237 -2q39 0 53.5 6.5t18.5 26.5q1 3 1 10q0 21 -36 32l-88 27q-89 27 -125.5 68.5
t-36.5 102.5q0 28 6 59q11 60 40 101.5t74.5 63.5t97.5 31t121 9q108 0 257 -3zM246 -291h-136l58 100q-26 18 -26 51q0 88 114 88q89 0 89 -67q0 -40 -39 -92z" />
    <glyph glyph-name="scommaaccent" unicode="&#x219;" horiz-adv-x="506" 
d="M266 351l85 -21q118 -28 118 -130q0 -29 -7 -58q-17 -77 -84.5 -110.5t-185.5 -33.5q-147 0 -224 3l50 145q28 0 100 -1t105 -1q19 0 26 3q9 5 9 16t-24 17l-89 22q-111 29 -111 132q0 17 5 44q18 83 82 118.5t184 35.5q29 0 218 -4l-54 -146q-168 4 -192 4q-15 0 -25 -3
q-10 -4 -10 -15t24 -17zM187 -291h-136l58 100q-26 18 -26 51q0 88 114 88q89 0 89 -67q0 -40 -39 -92z" />
    <glyph glyph-name="uni021A" unicode="&#x21a;" horiz-adv-x="688" 
d="M691 523h-184l-102 -523h-232l102 523h-220l72 189h636zM270 -291h-136l58 100q-26 18 -26 51q0 88 114 88q89 0 89 -67q0 -40 -39 -92z" />
    <glyph glyph-name="uni021B" unicode="&#x21b;" horiz-adv-x="426" 
d="M400 372h-122l-28 -145q-2 -5 -2 -22q0 -42 54 -42q42 0 96 2l-64 -165q-48 -2 -126 -2q-92 0 -138.5 43t-46.5 122q0 24 7 64l82 422l225 28l-29 -147h153zM172 -291h-136l58 100q-26 18 -26 51q0 88 114 88q89 0 89 -67q0 -40 -39 -92z" />
    <glyph glyph-name="uni0237" unicode="&#x237;" horiz-adv-x="294" 
d="M-6 44l95 486h220l-97 -499q-21 -110 -79.5 -159t-166.5 -49q-73 0 -145 4l57 151q15 -1 46 -1q29 0 45.5 15.5t24.5 51.5z" />
    <glyph glyph-name="afii57929" unicode="&#x2bc;" horiz-adv-x="500" 
d="M434 685q0 -7 -0.5 -13.5t-3 -14t-4 -12.5t-6.5 -14t-8 -14.5t-10 -17t-11 -18t-14.5 -22t-15.5 -23.5l-57 -89h-125l78 149q-22 16 -22 56q0 103 109 103q46 0 68 -19t22 -51z" />
    <glyph glyph-name="circumflex" unicode="&#x2c6;" horiz-adv-x="500" 
d="M363 597l-34 63l-57 -63h-180l149 153h206l89 -153h-173z" />
    <glyph glyph-name="caron" unicode="&#x2c7;" horiz-adv-x="500" 
d="M296 750l34 -63l57 63h180l-149 -153h-206l-89 153h173z" />
    <glyph glyph-name="uni02C9" unicode="&#x2c9;" horiz-adv-x="500" 
d="M137 597l27 137h354l-27 -137h-354z" />
    <glyph glyph-name="breve" unicode="&#x2d8;" horiz-adv-x="500" 
d="M333 680q22 0 33 11.5t16 40.5h149q-15 -80 -63.5 -117.5t-143.5 -37.5q-90 0 -133 33t-43 90q0 16 3 32h148q-1 -7 -1 -16q0 -36 35 -36z" />
    <glyph glyph-name="dotaccent" unicode="&#x2d9;" horiz-adv-x="500" 
d="M341 755q107 0 107 -69q0 -61 -34.5 -85t-100.5 -24q-107 0 -107 69q0 61 34.5 85t100.5 24z" />
    <glyph glyph-name="ring" unicode="&#x2da;" horiz-adv-x="500" 
d="M377 693q1 3 1 13q0 31 -38 31q-24 0 -35 -10t-16 -34q-1 -3 -1 -13q0 -31 38 -31q25 0 35 9.5t16 34.5zM196 693q8 60 47 93t105 33q122 0 122 -104q0 -14 -1 -22q-8 -60 -47 -93t-105 -33q-122 0 -122 104q0 14 1 22z" />
    <glyph glyph-name="ogonek" unicode="&#x2db;" horiz-adv-x="500" 
d="M209 22l108 -22q-42 -29 -62.5 -47t-20.5 -32q0 -17 38 -17h27l-58 -139h-36q-25 0 -41 0.5t-39.5 5t-37.5 12.5t-24.5 24t-10.5 38q0 46 32 83t125 94z" />
    <glyph glyph-name="tilde" unicode="&#x2dc;" horiz-adv-x="500" 
d="M429 749h119l-1 -7q-12 -87 -46 -124t-93 -37q-45 0 -95 26l-6 3q-39 17 -53 17q-12 0 -17.5 -7t-10.5 -28l-1 -5h-118l1 7q12 87 45 124t94 37q45 0 95 -26l6 -3q39 -17 53 -17q12 0 17 6.5t10 28.5z" />
    <glyph glyph-name="hungarumlaut" unicode="&#x2dd;" horiz-adv-x="500" 
d="M53 597l125 149h193l-155 -149h-163zM286 597l125 149h193l-155 -149h-163z" />
    <glyph glyph-name="increment" unicode="&#x394;" horiz-adv-x="750" 
d="M-46 0l374 712h268l98 -712h-740zM425 519l-158 -344h184z" />
    <glyph glyph-name="Omega" unicode="&#x3a9;" horiz-adv-x="750" 
d="M726 174l-70 -174h-297l32 160q40 36 59.5 71t34.5 117q12 66 12 105q0 49 -19 68t-63 19q-58 0 -86 -37t-46 -146q-11 -69 -11 -103q0 -58 33 -94l-32 -160h-321l68 174h56q-32 51 -32 129q0 52 10 105q28 160 116.5 242t260.5 82q309 0 309 -258q0 -50 -12 -109
q-12 -62 -32.5 -106.5t-59.5 -84.5h90z" />
    <glyph glyph-name="mu" unicode="&#x3bc;" horiz-adv-x="610" 
d="M329 162l71 368h224l-79 -406q-13 -70 -46 -94.5t-104 -33.5q-20 -5 -69 -5q-78 0 -123 16l-35 -182h-216l136 705h220l-61 -314q-2 -14 -2 -19q0 -37 49 -37q11 0 35 2z" />
    <glyph glyph-name="pi" unicode="&#x3c0;" horiz-adv-x="736" 
d="M766 524l-61 -159h-64l-71 -365h-213l71 365h-84l-71 -365h-213l71 365h-92l60 159h667z" />
    <glyph glyph-name="Wgrave" unicode="&#x1e80;" horiz-adv-x="991" 
d="M769 0h-245l1 398l-153 -398h-254l-26 712h232l-14 -445l170 445h206l-2 -446l160 446h229zM633 921l79 -149h-190l-112 149h223z" />
    <glyph glyph-name="wgrave" unicode="&#x1e81;" horiz-adv-x="811" 
d="M404 0l-1 261l-102 -261h-210l-38 530h213l-17 -301l118 301h179l1 -301l99 301h214l-254 -530h-202zM512 746l76 -149h-195l-109 149h228z" />
    <glyph glyph-name="Wacute" unicode="&#x1e82;" horiz-adv-x="991" 
d="M769 0h-245l1 398l-153 -398h-254l-26 712h232l-14 -445l170 445h206l-2 -446l160 446h229zM480 772l137 149h223l-170 -149h-190z" />
    <glyph glyph-name="wacute" unicode="&#x1e83;" horiz-adv-x="811" 
d="M404 0l-1 261l-102 -261h-210l-38 530h213l-17 -301l118 301h179l1 -301l99 301h214l-254 -530h-202zM359 597l134 149h228l-167 -149h-195z" />
    <glyph glyph-name="Wdieresis" unicode="&#x1e84;" horiz-adv-x="991" 
d="M769 0h-245l1 398l-153 -398h-254l-26 712h232l-14 -445l170 445h206l-2 -446l160 446h229zM378 826q0 57 25.5 80t86.5 23q91 0 91 -69q0 -57 -26 -80.5t-86 -23.5q-45 0 -68 18.5t-23 51.5zM619 826q0 57 25.5 80t86.5 23q91 0 91 -69q0 -57 -26 -80.5t-86 -23.5
q-45 0 -68 18.5t-23 51.5z" />
    <glyph glyph-name="wdieresis" unicode="&#x1e85;" horiz-adv-x="811" 
d="M404 0l-1 261l-102 -261h-210l-38 530h213l-17 -301l118 301h179l1 -301l99 301h214l-254 -530h-202zM261 645q0 56 25.5 78.5t85.5 22.5q43 0 66.5 -17t23.5 -50q0 -56 -25.5 -79t-85.5 -23q-42 0 -66 17.5t-24 50.5zM498 645q0 56 25.5 78.5t85.5 22.5q43 0 66.5 -17
t23.5 -50q0 -56 -25.5 -79t-85.5 -23q-42 0 -66 17.5t-24 50.5z" />
    <glyph glyph-name="Ygrave" unicode="&#x1ef2;" horiz-adv-x="707" 
d="M86 712h251l50 -253l153 253h254l-324 -434l-54 -278h-228l54 278zM485 921l79 -149h-190l-112 149h223z" />
    <glyph glyph-name="ygrave" unicode="&#x1ef3;" horiz-adv-x="599" 
d="M300 45l1 5q-40 -22 -94 -22q-178 0 -178 161q0 44 8 76l52 265h220l-53 -271q-3 -13 -3 -23q0 -32 36 -32q24 0 35 12.5t17 42.5l53 271h220l-93 -479q-23 -120 -96.5 -174t-203.5 -54q-143 0 -239 4l62 158q96 -2 165 -2q44 0 64 13t27 49zM411 746l76 -149h-195
l-109 149h228z" />
    <glyph glyph-name="endash" unicode="&#x2013;" horiz-adv-x="500" 
d="M-15 189l37 189h500l-37 -189h-500z" />
    <glyph glyph-name="emdash" unicode="&#x2014;" horiz-adv-x="1000" 
d="M-15 189l37 189h1000l-37 -189h-1000z" />
    <glyph glyph-name="quoteleft" unicode="&#x2018;" horiz-adv-x="260" 
d="M204 743h139l-99 -188q21 -19 21 -52q0 -61 -30 -88.5t-89 -27.5q-95 0 -95 81q0 25 13 56t27.5 54.5t41.5 61.5z" />
    <glyph glyph-name="quoteright" unicode="&#x2019;" horiz-adv-x="260" 
d="M174 396h-139l98 187q-20 18 -20 53q0 61 30 88.5t89 27.5q95 0 95 -81q0 -25 -13 -56t-27.5 -54.5t-41.5 -61.5z" />
    <glyph glyph-name="quotesinglbase" unicode="&#x201a;" horiz-adv-x="227" 
d="M33 -165h-139l98 187q-20 18 -20 53q0 61 30 88.5t89 27.5q95 0 95 -81q0 -25 -13 -56t-27.5 -54.5t-41.5 -61.5z" />
    <glyph glyph-name="quotedblleft" unicode="&#x201c;" horiz-adv-x="522" 
d="M204 743h139l-99 -188q21 -19 21 -52q0 -61 -30 -88.5t-89 -27.5q-95 0 -95 81q0 25 13 56t27.5 54.5t41.5 61.5zM466 743h139l-99 -188q21 -19 21 -52q0 -61 -30 -88.5t-89 -27.5q-95 0 -95 81q0 25 13 56t27.5 54.5t41.5 61.5z" />
    <glyph glyph-name="quotedblright" unicode="&#x201d;" horiz-adv-x="522" 
d="M174 396h-139l98 187q-20 18 -20 53q0 61 30 88.5t89 27.5q95 0 95 -81q0 -25 -13 -56t-27.5 -54.5t-41.5 -61.5zM436 396h-139l98 187q-20 18 -20 53q0 61 30 88.5t89 27.5q95 0 95 -81q0 -25 -13 -56t-27.5 -54.5t-41.5 -61.5z" />
    <glyph glyph-name="quotedblbase" unicode="&#x201e;" horiz-adv-x="484" 
d="M34 -164h-139l98 187q-20 18 -20 53q0 61 30 88.5t89 27.5q95 0 95 -81q0 -25 -13 -56t-27.5 -54.5t-41.5 -61.5zM290 -164h-139l98 187q-20 18 -20 53q0 61 30 88.5t89 27.5q95 0 95 -81q0 -25 -13 -56t-27.5 -54.5t-41.5 -61.5z" />
    <glyph glyph-name="dagger" unicode="&#x2020;" horiz-adv-x="555" 
d="M529 311h-129l-97 -498h-229l97 498h-161l69 182h127l43 220h229l-43 -220h163z" />
    <glyph glyph-name="daggerdbl" unicode="&#x2021;" horiz-adv-x="563" 
d="M477 23h-130l-41 -210h-229l41 210h-160l67 182h128l24 123h-160l69 182h126l39 203h229l-39 -203h164l-69 -182h-130l-24 -123h164z" />
    <glyph glyph-name="bullet" unicode="&#x2022;" horiz-adv-x="440" 
d="M403 280q0 -92 -42.5 -136t-137.5 -44t-137.5 44t-42.5 136t42.5 136t137.5 44t137.5 -44t42.5 -136z" />
    <glyph glyph-name="ellipsis" unicode="&#x2026;" horiz-adv-x="1000" 
d="M19 69q0 66 29.5 95t95.5 29q99 0 99 -82q0 -66 -29.5 -95t-95.5 -29q-99 0 -99 82zM355 69q0 66 29.5 95t95.5 29q99 0 99 -82q0 -66 -29.5 -95t-95.5 -29q-99 0 -99 82zM687 69q0 66 29.5 95t95.5 29q99 0 99 -82q0 -66 -29.5 -95t-95.5 -29q-99 0 -99 82z" />
    <glyph glyph-name="perthousand" unicode="&#x2030;" horiz-adv-x="1404" 
d="M343 0h-189l529 680h189zM812 184l5 25q6 33 6 48t-5 19.5t-16 4.5q-17 0 -24.5 -12.5t-16.5 -60.5l-5 -25q-7 -40 -7 -48q0 -15 5 -19.5t17 -4.5q17 0 24.5 12.5t16.5 60.5zM976 217l-9 -47q-17 -94 -65 -136.5t-137 -42.5q-85 0 -129 35.5t-44 102.5q0 19 5 46l9 47
q17 94 65 136.5t137 42.5q85 0 129 -35.5t44 -102.5q0 -19 -5 -46zM1218 184l5 25q6 33 6 48t-5 19.5t-16 4.5q-17 0 -24.5 -12.5t-16.5 -60.5l-5 -25q-7 -40 -7 -48q0 -15 5 -19.5t17 -4.5q17 0 24.5 12.5t16.5 60.5zM1382 217l-9 -47q-17 -94 -65 -136.5t-137 -42.5
q-85 0 -129 35.5t-44 102.5q0 19 5 46l9 47q17 94 65 136.5t137 42.5q85 0 129 -35.5t44 -102.5q0 -19 -5 -46zM267 475l5 25q6 33 6 48t-5 19.5t-16 4.5q-17 0 -24.5 -12.5t-16.5 -60.5l-5 -25q-7 -40 -7 -48q0 -15 5 -19.5t17 -4.5q17 0 24.5 12.5t16.5 60.5zM431 508
l-9 -47q-17 -94 -65 -136.5t-137 -42.5q-85 0 -129 35.5t-44 102.5q0 19 5 46l9 47q17 94 65 136.5t137 42.5q85 0 129 -35.5t44 -102.5q0 -19 -5 -46z" />
    <glyph glyph-name="guilsinglleft" unicode="&#x2039;" horiz-adv-x="356" 
d="M332 321l-160 -60l135 -68l-36 -186l-267 148l42 216l324 147z" />
    <glyph glyph-name="guilsinglright" unicode="&#x203a;" horiz-adv-x="356" 
d="M23 204l160 60l-135 68l36 186l267 -148l-42 -216l-324 -147z" />
    <glyph glyph-name="fraction" unicode="&#x2044;" horiz-adv-x="173" 
d="M-69 0h-189l529 680h189z" />
    <glyph glyph-name="uni2070" unicode="&#x2070;" 
d="M269 472l5 25q6 33 6 48t-5 19.5t-16 4.5q-17 0 -24.5 -12.5t-16.5 -60.5l-5 -25q-7 -40 -7 -48q0 -15 5 -19.5t17 -4.5q17 0 24.5 12.5t16.5 60.5zM433 505l-9 -47q-17 -94 -65 -136.5t-137 -42.5q-85 0 -129 35.5t-44 102.5q0 19 5 46l9 47q17 94 65 136.5t137 42.5
q85 0 129 -35.5t44 -102.5q0 -19 -5 -46z" />
    <glyph glyph-name="uni2074" unicode="&#x2074;" 
d="M426 464l-45 -111h-20l-13 -65h-126l13 65h-194l12 96l150 231h143l-144 -216h55l13 70l129 19l-17 -89h44z" />
    <glyph glyph-name="uni2075" unicode="&#x2075;" 
d="M221 397q12 0 20 5q10 7 10 20q0 16 -26 16h-135l47 242h293l-35 -105h-150l-6 -33h39q130 0 130 -103q0 -21 -4 -38q-21 -114 -171 -114q-142 0 -175 2l35 109q48 -1 128 -1z" />
    <glyph glyph-name="uni2076" unicode="&#x2076;" 
d="M300 576q-37 0 -55 -10.5t-26 -39.5q19 16 66 16q125 0 125 -105q0 -16 -3 -34q-11 -67 -61 -95.5t-119 -28.5q-169 0 -169 132q0 21 5 53l8 43q17 92 72.5 133t163.5 41q71 0 121 -2l-39 -105q-37 2 -89 2zM200 417q-1 -3 -1 -12q0 -26 32 -26q31 0 38 31q1 4 1 12
q0 26 -32 26q-33 0 -38 -31z" />
    <glyph glyph-name="uni2077" unicode="&#x2077;" 
d="M257 288h-171l168 269h-165l47 123h316l-20 -98z" />
    <glyph glyph-name="uni2078" unicode="&#x2078;" 
d="M430 567q-6 -29 -19.5 -46t-40.5 -30q42 -23 42 -76q0 -19 -2 -25q-11 -58 -57.5 -84.5t-131.5 -26.5q-177 0 -177 106q0 13 3 28q12 65 71 88q-27 23 -27 61q0 19 2 25q18 102 174 102q165 0 165 -100q0 -6 -2 -22zM196 418l-2 -14q0 -27 33 -27q16 0 24.5 7t13.5 26
q2 10 2 13q0 27 -34 27q-29 0 -37 -32zM226 565q-1 -3 -1 -11q0 -24 31 -24q17 0 24.5 7t10.5 23q1 3 1 11q0 24 -31 24q-29 0 -35 -30z" />
    <glyph glyph-name="uni2079" unicode="&#x2079;" 
d="M189 392q37 0 55 10.5t26 39.5q-19 -16 -66 -16q-125 0 -125 105q0 16 3 34q11 67 61 95.5t119 28.5q169 0 169 -132q0 -21 -5 -53l-8 -43q-17 -92 -72.5 -133t-163.5 -41q-71 0 -121 2l39 105q37 -2 89 -2zM289 551q1 3 1 12q0 26 -32 26q-31 0 -38 -31q-1 -4 -1 -12
q0 -26 32 -26q33 0 38 31z" />
    <glyph glyph-name="uni2080" unicode="&#x2080;" 
d="M213 184l5 25q6 33 6 48t-5 19.5t-16 4.5q-17 0 -24.5 -12.5t-16.5 -60.5l-5 -25q-7 -40 -7 -48q0 -15 5 -19.5t17 -4.5q17 0 24.5 12.5t16.5 60.5zM377 217l-9 -47q-17 -94 -65 -136.5t-137 -42.5q-85 0 -129 35.5t-44 102.5q0 19 5 46l9 47q17 94 65 136.5t137 42.5
q85 0 129 -35.5t44 -102.5q0 -19 -5 -46z" />
    <glyph glyph-name="uni2081" unicode="&#x2081;" 
d="M44 269l49 123h216l-52 -269h80l-45 -123h-304l45 123h61l28 146h-78z" />
    <glyph glyph-name="uni2082" unicode="&#x2082;" 
d="M169 114l-1 -4h169l-37 -110h-304l15 77q22 117 107 147l63 21q13 5 18 10t5 15q0 15 -22 15q-99 0 -138 -2l40 107q39 3 126 3q145 0 145 -98q0 -13 -3 -30q-8 -43 -31 -68.5t-68 -40.5l-53 -18q-28 -10 -31 -24z" />
    <glyph glyph-name="uni2083" unicode="&#x2083;" 
d="M158 149h-113l38 98h95q13 0 20 5q8 6 8 18q0 16 -24 16q-92 0 -135 -1l43 107q41 1 146 1q61 0 92 -24t31 -66q0 -14 -3 -29q-11 -50 -60 -73q42 -20 42 -74q0 -6 -2 -20q-17 -108 -174 -108h-177l41 108q35 -1 127 -1q15 0 22 5q9 7 9 21q0 17 -26 17z" />
    <glyph glyph-name="uni2084" unicode="&#x2084;" 
d="M370 176l-45 -111h-20l-13 -65h-126l13 65h-194l12 96l150 231h143l-144 -216h55l13 70l129 19l-17 -89h44z" />
    <glyph glyph-name="uni2085" unicode="&#x2085;" 
d="M165 109q12 0 20 5q10 7 10 20q0 16 -26 16h-135l47 242h293l-35 -105h-150l-6 -33h39q130 0 130 -103q0 -21 -4 -38q-21 -114 -171 -114q-142 0 -175 2l35 109q48 -1 128 -1z" />
    <glyph glyph-name="uni2086" unicode="&#x2086;" 
d="M244 288q-37 0 -55 -10.5t-26 -39.5q19 16 66 16q125 0 125 -105q0 -16 -3 -34q-11 -67 -61 -95.5t-119 -28.5q-169 0 -169 132q0 21 5 53l8 43q17 92 72.5 133t163.5 41q71 0 121 -2l-39 -105q-37 2 -89 2zM144 129q-1 -3 -1 -12q0 -26 32 -26q31 0 38 31q1 4 1 12
q0 26 -32 26q-33 0 -38 -31z" />
    <glyph glyph-name="uni2087" unicode="&#x2087;" 
d="M201 0h-171l168 269h-165l47 123h316l-20 -98z" />
    <glyph glyph-name="uni2088" unicode="&#x2088;" 
d="M374 279q-6 -29 -19.5 -46t-40.5 -30q42 -23 42 -76q0 -19 -2 -25q-11 -58 -57.5 -84.5t-131.5 -26.5q-177 0 -177 106q0 13 3 28q12 65 71 88q-27 23 -27 61q0 19 2 25q18 102 174 102q165 0 165 -100q0 -6 -2 -22zM140 130q0 -3 -0.5 -6t-1 -5t-0.5 -3q0 -27 33 -27
q16 0 24.5 7t13.5 26q2 10 2 13q0 27 -34 27q-29 0 -37 -32zM170 277q-1 -3 -1 -11q0 -24 31 -24q17 0 24.5 7t10.5 23q1 3 1 11q0 24 -31 24q-29 0 -35 -30z" />
    <glyph glyph-name="uni2089" unicode="&#x2089;" 
d="M133 104q37 0 55 10.5t26 39.5q-19 -16 -66 -16q-125 0 -125 105q0 16 3 34q11 67 61 95.5t119 28.5q169 0 169 -132q0 -21 -5 -53l-8 -43q-17 -92 -72.5 -133t-163.5 -41q-71 0 -121 2l39 105q37 -2 89 -2zM233 263q1 3 1 12q0 26 -32 26q-31 0 -38 -31q-1 -4 -1 -12
q0 -26 32 -26q33 0 38 31z" />
    <glyph glyph-name="Euro" unicode="&#x20ac;" horiz-adv-x="595" 
d="M45 367l36 95h60q46 123 135 171.5t242 48.5q72 0 135 -4l-63 -168q-47 4 -114 4q-78 0 -116 -52h184l-36 -95h-185q-3 -8 -5 -24q-3 -12 -5 -28h202l-36 -95h-168q8 -27 31 -39.5t67 -12.5q40 0 142 2l-62 -168q-26 -2 -128 -2q-255 0 -263 220h-83l36 95h54q2 6 4 19
t3 19l3 14h-70z" />
    <glyph glyph-name="uni20B9" unicode="&#x20b9;" horiz-adv-x="595" 
d="M288 376h-208l23 119h202q-9 55 -88 55h-103l25 130h492l-41 -109h-106q23 -27 29 -76h78l-44 -119h-45q-37 -148 -188 -173l-10 -2l177 -201h-255l-179 204l22 113h102q49 0 76 13t41 46z" />
    <glyph glyph-name="uni20BA" unicode="&#x20ba;" horiz-adv-x="595" 
d="M422 354l-126 -54l-24 -124h19q38 0 61.5 18t34.5 67l3 13l191 34l-8 -40q-25 -137 -92.5 -202.5t-208.5 -65.5h-239l40 205l-70 -29l19 100l70 30l12 60l-70 -30l19 100l70 30l42 214h205l-24 -119l126 53l-19 -100l-126 -54l-12 -60l126 54z" />
    <glyph glyph-name="afii61289" unicode="&#x2113;" horiz-adv-x="597" 
d="M294 217v-9q2 -57 94 -57q48 0 120 22l41 -135q-90 -50 -211 -50q-149 0 -204 93q-8 13 -15 31l-47 -28l-82 131l110 65v224q0 99 57.5 159.5t173.5 60.5q101 0 161 -50.5t60 -143.5q0 -81 -57 -154t-201 -159zM294 504v-106q71 53 71 118q0 52 -36 52q-18 0 -26.5 -14.5
t-8.5 -49.5z" />
    <glyph glyph-name="trademark" unicode="&#x2122;" horiz-adv-x="941" 
d="M640 520l-35 -180h-150l72 372h182l24 -127l73 127h182l-72 -372h-150l35 180l-57 -106h-87zM491 712l-55 -136h-94l-46 -236h-161l46 236h-122l55 136h377z" />
    <glyph glyph-name="uni2126" unicode="&#x2126;" horiz-adv-x="750" 
d="M726 174l-70 -174h-297l32 160q40 36 59.5 71t34.5 117q12 66 12 105q0 49 -19 68t-63 19q-58 0 -86 -37t-46 -146q-11 -69 -11 -103q0 -58 33 -94l-32 -160h-321l68 174h56q-32 51 -32 129q0 52 10 105q28 160 116.5 242t260.5 82q309 0 309 -258q0 -50 -12 -109
q-12 -62 -32.5 -106.5t-59.5 -84.5h90z" />
    <glyph glyph-name="estimated" unicode="&#x212e;" horiz-adv-x="746" 
d="M388 656q-143 0 -212 -69v-211h431v211q-82 69 -219 69zM668 164l22 -15q-56 -87 -126 -123t-172 -36q-161 0 -255 99.5t-94 250.5t92.5 248t252.5 97q162 0 256 -94.5t96 -250.5h-564v-245q78 -78 217 -78q95 0 160.5 34t114.5 113z" />
    <glyph glyph-name="uni2150" unicode="&#x2150;" horiz-adv-x="975" 
d="M331 0h-189l529 680h189zM772 0h-171l168 269h-165l47 123h316l-20 -98zM100 557l49 123h216l-52 -269h80l-45 -123h-304l45 123h61l28 146h-78z" />
    <glyph glyph-name="uni2151" unicode="&#x2151;" horiz-adv-x="975" 
d="M332 0h-189l529 680h189zM704 104q37 0 55 10.5t26 39.5q-19 -16 -66 -16q-125 0 -125 105q0 16 3 34q11 67 61 95.5t119 28.5q169 0 169 -132q0 -21 -5 -53l-8 -43q-17 -92 -72.5 -133t-163.5 -41q-71 0 -121 2l39 105q37 -2 89 -2zM804 263q1 3 1 12q0 26 -32 26
q-31 0 -38 -31q-1 -4 -1 -12q0 -26 32 -26q33 0 38 31zM100 557l49 123h216l-52 -269h80l-45 -123h-304l45 123h61l28 146h-78z" />
    <glyph glyph-name="onethird" unicode="&#x2153;" horiz-adv-x="975" 
d="M334 0h-189l529 680h189zM729 149h-113l38 98h95q13 0 20 5q8 6 8 18q0 16 -24 16q-92 0 -135 -1l43 107q41 1 146 1q61 0 92 -24t31 -66q0 -14 -3 -29q-11 -50 -60 -73q42 -20 42 -74q0 -6 -2 -20q-17 -108 -174 -108h-177l41 108q35 -1 127 -1q15 0 22 5q9 7 9 21
q0 17 -26 17zM100 557l49 123h216l-52 -269h80l-45 -123h-304l45 123h61l28 146h-78z" />
    <glyph glyph-name="twothirds" unicode="&#x2154;" horiz-adv-x="975" 
d="M342 0h-189l529 680h189zM729 149h-113l38 98h95q13 0 20 5q8 6 8 18q0 16 -24 16q-92 0 -135 -1l43 107q41 1 146 1q61 0 92 -24t31 -66q0 -14 -3 -29q-11 -50 -60 -73q42 -20 42 -74q0 -6 -2 -20q-17 -108 -174 -108h-177l41 108q35 -1 127 -1q15 0 22 5q9 7 9 21
q0 17 -26 17zM225 402l-1 -4h169l-37 -110h-304l15 77q22 117 107 147l63 21q13 5 18 10t5 15q0 15 -22 15q-99 0 -138 -2l40 107q39 3 126 3q145 0 145 -98q0 -13 -3 -30q-8 -43 -31 -68.5t-68 -40.5l-53 -18q-28 -10 -31 -24z" />
    <glyph glyph-name="uni2155" unicode="&#x2155;" horiz-adv-x="975" 
d="M329 0h-189l529 680h189zM736 109q12 0 20 5q10 7 10 20q0 16 -26 16h-135l47 242h293l-35 -105h-150l-6 -33h39q130 0 130 -103q0 -21 -4 -38q-21 -114 -171 -114q-142 0 -175 2l35 109q48 -1 128 -1zM100 557l49 123h216l-52 -269h80l-45 -123h-304l45 123h61l28 146
h-78z" />
    <glyph glyph-name="uni2156" unicode="&#x2156;" horiz-adv-x="975" 
d="M338 0h-189l529 680h189zM736 109q12 0 20 5q10 7 10 20q0 16 -26 16h-135l47 242h293l-35 -105h-150l-6 -33h39q130 0 130 -103q0 -21 -4 -38q-21 -114 -171 -114q-142 0 -175 2l35 109q48 -1 128 -1zM225 402l-1 -4h169l-37 -110h-304l15 77q22 117 107 147l63 21
q13 5 18 10t5 15q0 15 -22 15q-99 0 -138 -2l40 107q39 3 126 3q145 0 145 -98q0 -13 -3 -30q-8 -43 -31 -68.5t-68 -40.5l-53 -18q-28 -10 -31 -24z" />
    <glyph glyph-name="uni2157" unicode="&#x2157;" horiz-adv-x="975" 
d="M325 0h-189l529 680h189zM736 109q12 0 20 5q10 7 10 20q0 16 -26 16h-135l47 242h293l-35 -105h-150l-6 -33h39q130 0 130 -103q0 -21 -4 -38q-21 -114 -171 -114q-142 0 -175 2l35 109q48 -1 128 -1zM214 437h-113l38 98h95q13 0 20 5q8 6 8 18q0 16 -24 16
q-92 0 -135 -1l43 107q41 1 146 1q61 0 92 -24t31 -66q0 -14 -3 -29q-11 -50 -60 -73q42 -20 42 -74q0 -6 -2 -20q-17 -108 -174 -108h-177l41 108q35 -1 127 -1q15 0 22 5q9 7 9 21q0 17 -26 17z" />
    <glyph glyph-name="uni2158" unicode="&#x2158;" horiz-adv-x="975" 
d="M330 0h-189l529 680h189zM736 109q12 0 20 5q10 7 10 20q0 16 -26 16h-135l47 242h293l-35 -105h-150l-6 -33h39q130 0 130 -103q0 -21 -4 -38q-21 -114 -171 -114q-142 0 -175 2l35 109q48 -1 128 -1zM426 464l-45 -111h-20l-13 -65h-126l13 65h-194l12 96l150 231h143
l-144 -216h55l13 70l129 19l-17 -89h44z" />
    <glyph glyph-name="uni2159" unicode="&#x2159;" horiz-adv-x="975" 
d="M341 0h-189l529 680h189zM815 288q-37 0 -55 -10.5t-26 -39.5q19 16 66 16q125 0 125 -105q0 -16 -3 -34q-11 -67 -61 -95.5t-119 -28.5q-169 0 -169 132q0 21 5 53l8 43q17 92 72.5 133t163.5 41q71 0 121 -2l-39 -105q-37 2 -89 2zM715 129q-1 -3 -1 -12q0 -26 32 -26
q31 0 38 31q1 4 1 12q0 26 -32 26q-33 0 -38 -31zM100 557l49 123h216l-52 -269h80l-45 -123h-304l45 123h61l28 146h-78z" />
    <glyph glyph-name="uni215A" unicode="&#x215a;" horiz-adv-x="975" 
d="M339 0h-189l529 680h189zM815 288q-37 0 -55 -10.5t-26 -39.5q19 16 66 16q125 0 125 -105q0 -16 -3 -34q-11 -67 -61 -95.5t-119 -28.5q-169 0 -169 132q0 21 5 53l8 43q17 92 72.5 133t163.5 41q71 0 121 -2l-39 -105q-37 2 -89 2zM715 129q-1 -3 -1 -12q0 -26 32 -26
q31 0 38 31q1 4 1 12q0 26 -32 26q-33 0 -38 -31zM221 397q12 0 20 5q10 7 10 20q0 16 -26 16h-135l47 242h293l-35 -105h-150l-6 -33h39q130 0 130 -103q0 -21 -4 -38q-21 -114 -171 -114q-142 0 -175 2l35 109q48 -1 128 -1z" />
    <glyph glyph-name="oneeighth" unicode="&#x215b;" horiz-adv-x="975" 
d="M334 0h-189l529 680h189zM945 279q-6 -29 -19.5 -46t-40.5 -30q42 -23 42 -76q0 -19 -2 -25q-11 -58 -57.5 -84.5t-131.5 -26.5q-177 0 -177 106q0 13 3 28q12 65 71 88q-27 22 -27 61q0 19 2 25q18 102 174 102q165 0 165 -100q0 -6 -2 -22zM711 130q0 -3 -0.5 -6t-1 -5
t-0.5 -3q0 -27 33 -27q16 0 24.5 7t13.5 26q2 10 2 13q0 27 -34 27q-29 0 -37 -32zM741 277q-1 -3 -1 -11q0 -24 31 -24q17 0 24.5 7t10.5 23q1 3 1 11q0 24 -31 24q-29 0 -35 -30zM100 557l49 123h216l-52 -269h80l-45 -123h-304l45 123h61l28 146h-78z" />
    <glyph glyph-name="threeeighths" unicode="&#x215c;" horiz-adv-x="975" 
d="M328 0h-189l529 680h189zM945 279q-6 -29 -19.5 -46t-40.5 -30q42 -23 42 -76q0 -19 -2 -25q-11 -58 -57.5 -84.5t-131.5 -26.5q-177 0 -177 106q0 13 3 28q12 65 71 88q-27 22 -27 61q0 19 2 25q18 102 174 102q165 0 165 -100q0 -6 -2 -22zM711 130q0 -3 -0.5 -6t-1 -5
t-0.5 -3q0 -27 33 -27q16 0 24.5 7t13.5 26q2 10 2 13q0 27 -34 27q-29 0 -37 -32zM741 277q-1 -3 -1 -11q0 -24 31 -24q17 0 24.5 7t10.5 23q1 3 1 11q0 24 -31 24q-29 0 -35 -30zM214 437h-113l38 98h95q13 0 20 5q8 6 8 18q0 16 -24 16q-92 0 -135 -1l43 107q41 1 146 1
q61 0 92 -24t31 -66q0 -14 -3 -29q-11 -50 -60 -73q42 -20 42 -74q0 -6 -2 -20q-17 -108 -174 -108h-177l41 108q35 -1 127 -1q15 0 22 5q9 7 9 21q0 17 -26 17z" />
    <glyph glyph-name="fiveeighths" unicode="&#x215d;" horiz-adv-x="975" 
d="M330 0h-189l529 680h189zM945 279q-6 -29 -19.5 -46t-40.5 -30q42 -23 42 -76q0 -19 -2 -25q-11 -58 -57.5 -84.5t-131.5 -26.5q-177 0 -177 106q0 13 3 28q12 65 71 88q-27 22 -27 61q0 19 2 25q18 102 174 102q165 0 165 -100q0 -6 -2 -22zM711 130q0 -3 -0.5 -6t-1 -5
t-0.5 -3q0 -27 33 -27q16 0 24.5 7t13.5 26q2 10 2 13q0 27 -34 27q-29 0 -37 -32zM741 277q-1 -3 -1 -11q0 -24 31 -24q17 0 24.5 7t10.5 23q1 3 1 11q0 24 -31 24q-29 0 -35 -30zM221 397q12 0 20 5q10 7 10 20q0 16 -26 16h-135l47 242h293l-35 -105h-150l-6 -33h39
q130 0 130 -103q0 -21 -4 -38q-21 -114 -171 -114q-142 0 -175 2l35 109q48 -1 128 -1z" />
    <glyph glyph-name="seveneighths" unicode="&#x215e;" horiz-adv-x="975" 
d="M298 0h-189l529 680h189zM945 279q-6 -29 -19.5 -46t-40.5 -30q42 -23 42 -76q0 -19 -2 -25q-11 -58 -57.5 -84.5t-131.5 -26.5q-177 0 -177 106q0 13 3 28q12 65 71 88q-27 22 -27 61q0 19 2 25q18 102 174 102q165 0 165 -100q0 -6 -2 -22zM711 130q0 -3 -0.5 -6t-1 -5
t-0.5 -3q0 -27 33 -27q16 0 24.5 7t13.5 26q2 10 2 13q0 27 -34 27q-29 0 -37 -32zM741 277q-1 -3 -1 -11q0 -24 31 -24q17 0 24.5 7t10.5 23q1 3 1 11q0 24 -31 24q-29 0 -35 -30zM257 288h-171l168 269h-165l47 123h316l-20 -98z" />
    <glyph glyph-name="partialdiff" unicode="&#x2202;" horiz-adv-x="642" 
d="M279 470q97 0 146 -46q16 39 16 69q0 41 -35.5 61t-114.5 20q-80 0 -140 -3l92 164q16 0 53.5 1t48.5 1q163 0 234.5 -53.5t71.5 -161.5q0 -72 -33 -184q-27 -89 -57.5 -152.5t-62 -102.5t-71.5 -61t-78.5 -30t-89.5 -8q-131 0 -191 51t-60 137q0 41 12 86
q57 212 259 212zM277 151q29 0 49 18.5t35 68.5q6 18 6 33q0 42 -52 42q-32 0 -52.5 -19.5t-32.5 -67.5q-5 -18 -5 -32q0 -43 52 -43z" />
    <glyph glyph-name="uni2206" unicode="&#x2206;" horiz-adv-x="750" 
d="M-46 0l374 712h268l98 -712h-740zM425 519l-158 -344h184z" />
    <glyph glyph-name="product" unicode="&#x220f;" horiz-adv-x="766" 
d="M851 712l-60 -159h-61l-124 -640h-213l124 640h-158l-124 -640h-213l124 640h-88l60 159h733z" />
    <glyph glyph-name="summation" unicode="&#x2211;" horiz-adv-x="602" 
d="M469 330l-228 -266h308l-66 -172h-535l26 134l265 308l-150 246l25 132h560l-66 -172h-267z" />
    <glyph glyph-name="minus" unicode="&#x2212;" horiz-adv-x="595" 
d="M526 252h-463l35 179h463z" />
    <glyph glyph-name="uni2215" unicode="&#x2215;" horiz-adv-x="173" 
d="M-69 0h-189l529 680h189z" />
    <glyph glyph-name="uni2219" unicode="&#x2219;" horiz-adv-x="245" 
d="M31 364q0 66 29.5 95t95.5 29q99 0 99 -82q0 -66 -29.5 -95t-95.5 -29q-99 0 -99 82z" />
    <glyph glyph-name="radical" unicode="&#x221a;" horiz-adv-x="686" 
d="M49 438l250 120l38 -328l319 649h214l-465 -884h-210l-57 326l-123 -58z" />
    <glyph glyph-name="infinity" unicode="&#x221e;" horiz-adv-x="780" 
d="M280 569q99 0 151 -72q68 72 160 72q88 0 136.5 -48.5t48.5 -131.5q0 -29 -6 -60q-21 -102 -82.5 -155t-156.5 -53q-100 0 -152 72q-68 -72 -159 -72q-88 0 -136.5 48.5t-48.5 131.5q0 29 6 60q21 102 82.5 155t156.5 53zM213 349q-3 -12 -3 -22q0 -38 36 -38
q22 0 39 12.5t41 43.5q-13 30 -25 43t-34 13q-43 0 -54 -52zM598 341q3 12 3 22q0 38 -36 38q-22 0 -39 -12.5t-41 -43.5q13 -30 25 -43t34 -13q44 0 54 52z" />
    <glyph glyph-name="integral" unicode="&#x222b;" horiz-adv-x="433" 
d="M48 -32q41 0 54 28.5t13 93.5l7 484q2 149 67.5 228t218.5 79q83 0 139 -4l-58 -164q-70 2 -79 2q-41 0 -54 -28.5t-13 -94.5l-7 -483q-1 -54 -9 -98t-28 -84t-51.5 -66.5t-81.5 -42.5t-116 -16q-81 0 -134 4l58 164q66 -2 74 -2z" />
    <glyph glyph-name="approxequal" unicode="&#x2248;" horiz-adv-x="595" 
d="M406 306h153l-5 -26q-21 -112 -65 -159t-121 -47q-56 0 -111 37l-8 5q-28 19 -46 19q-17 0 -25 -10t-13 -35l-2 -9h-153l5 26q21 113 65 159.5t121 46.5q56 0 112 -37l8 -5q28 -19 45 -19t24.5 10t13.5 35zM460 585h153l-5 -26q-21 -112 -65 -159t-121 -47q-56 0 -111 37
l-8 5q-28 19 -46 19q-17 0 -25 -10t-13 -35l-2 -9h-153l5 26q21 113 65 159.5t121 46.5q56 0 112 -37l8 -5q28 -19 45 -19t24.5 10t13.5 35z" />
    <glyph glyph-name="notequal" unicode="&#x2260;" horiz-adv-x="595" 
d="M126 558h258l69 105h130l-69 -105h69l-33 -170h-148l-44 -67h179l-33 -170h-258l-69 -105h-130l69 105h-69l33 170h148l44 67h-179z" />
    <glyph glyph-name="lessequal" unicode="&#x2264;" horiz-adv-x="595" 
d="M578 500l-274 -57l252 -56l-35 -181l-440 150l36 186l498 149zM44 164h469l-32 -164h-469z" />
    <glyph glyph-name="greaterequal" unicode="&#x2265;" horiz-adv-x="595" 
d="M52 206l37 191l273 57l-251 56l35 181l440 -150l-36 -186zM44 164h469l-32 -164h-469z" />
    <glyph glyph-name="lozenge" unicode="&#x25ca;" horiz-adv-x="682" 
d="M195 0l-173 356l312 356h188l174 -356l-313 -356h-188zM253 347l69 -152l143 171l-70 150z" />
    <glyph glyph-name="uniF001" unicode="&#xf001;" horiz-adv-x="672" 
d="M369 360h-93l-70 -360h-220l96 495q27 140 102.5 195t209.5 55q144 0 237 -5l-60 -154q-32 0 -91.5 1t-72.5 1q-50 0 -71 -15.5t-30 -56.5h123zM364 0l103 530h220l-103 -530h-220z" />
    <glyph glyph-name="uniF002" unicode="&#xf002;" horiz-adv-x="673" 
d="M355 360h-79l-70 -360h-220l96 495q27 141 96.5 195.5t196.5 54.5q71 0 103 -4l-60 -154q-6 0 -17 0.5t-13 0.5q-41 0 -58 -15.5t-24 -56.5h109zM365 0l144 743h220l-144 -743h-220z" />
    <glyph glyph-name="uniF507" unicode="&#xf507;" horiz-adv-x="975" 
d="M334 0h-189l529 680h189zM772 0h-171l168 269h-165l47 123h316l-20 -98zM225 402l-1 -4h169l-37 -110h-304l15 77q22 117 107 147l63 21q13 5 18 10t5 15q0 15 -22 15q-99 0 -138 -2l40 107q39 3 126 3q145 0 145 -98q0 -13 -3 -30q-8 -43 -31 -68.5t-68 -40.5l-53 -18
q-28 -10 -31 -24z" />
    <glyph glyph-name="uniF508" unicode="&#xf508;" horiz-adv-x="975" 
d="M327 0h-189l529 680h189zM772 0h-171l168 269h-165l47 123h316l-20 -98zM214 437h-113l38 98h95q13 0 20 5q8 6 8 18q0 16 -24 16q-92 0 -135 -1l43 107q41 1 146 1q61 0 92 -24t31 -66q0 -14 -3 -29q-11 -50 -60 -73q42 -20 42 -74q0 -6 -2 -20q-17 -108 -174 -108h-177
l41 108q35 -1 127 -1q15 0 22 5q9 7 9 21q0 17 -26 17z" />
    <glyph glyph-name="uniF509" unicode="&#xf509;" horiz-adv-x="975" 
d="M328 0h-189l529 680h189zM772 0h-171l168 269h-165l47 123h316l-20 -98zM426 464l-45 -111h-20l-13 -65h-126l13 65h-194l12 96l150 231h143l-144 -216h55l13 70l129 19l-17 -89h44z" />
    <glyph glyph-name="uniF50A" unicode="&#xf50a;" horiz-adv-x="975" 
d="M330 0h-189l529 680h189zM772 0h-171l168 269h-165l47 123h316l-20 -98zM221 397q12 0 20 5q10 7 10 20q0 16 -26 16h-135l47 242h293l-35 -105h-150l-6 -33h39q130 0 130 -103q0 -21 -4 -38q-21 -114 -171 -114q-142 0 -175 2l35 109q48 -1 128 -1z" />
    <glyph glyph-name="uniF50B" unicode="&#xf50b;" horiz-adv-x="975" 
d="M330 0h-189l529 680h189zM772 0h-171l168 269h-165l47 123h316l-20 -98zM300 576q-37 0 -55 -10.5t-26 -39.5q19 16 66 16q125 0 125 -105q0 -16 -3 -34q-11 -67 -61 -95.5t-119 -28.5q-169 0 -169 132q0 21 5 53l8 43q17 92 72.5 133t163.5 41q71 0 121 -2l-39 -105
q-37 2 -89 2zM200 417q-1 -3 -1 -12q0 -26 32 -26q31 0 38 31q1 4 1 12q0 26 -32 26q-33 0 -38 -31z" />
    <glyph glyph-name="uniF50D" unicode="&#xf50d;" horiz-adv-x="975" 
d="M336 0h-189l529 680h189zM704 104q37 0 55 10.5t26 39.5q-19 -16 -66 -16q-125 0 -125 105q0 16 3 34q11 67 61 95.5t119 28.5q169 0 169 -132q0 -21 -5 -53l-8 -43q-17 -92 -72.5 -133t-163.5 -41q-71 0 -121 2l39 105q37 -2 89 -2zM804 263q1 3 1 12q0 26 -32 26
q-31 0 -38 -31q-1 -4 -1 -12q0 -26 32 -26q33 0 38 31zM225 402l-1 -4h169l-37 -110h-304l15 77q22 117 107 147l63 21q13 5 18 10t5 15q0 15 -22 15q-99 0 -138 -2l40 107q39 3 126 3q145 0 145 -98q0 -13 -3 -30q-8 -43 -31 -68.5t-68 -40.5l-53 -18q-28 -10 -31 -24z" />
    <glyph glyph-name="uniF50E" unicode="&#xf50e;" horiz-adv-x="975" 
d="M331 0h-189l529 680h189zM704 104q37 0 55 10.5t26 39.5q-19 -16 -66 -16q-125 0 -125 105q0 16 3 34q11 67 61 95.5t119 28.5q169 0 169 -132q0 -21 -5 -53l-8 -43q-17 -92 -72.5 -133t-163.5 -41q-71 0 -121 2l39 105q37 -2 89 -2zM804 263q1 3 1 12q0 26 -32 26
q-31 0 -38 -31q-1 -4 -1 -12q0 -26 32 -26q33 0 38 31zM426 464l-45 -111h-20l-13 -65h-126l13 65h-194l12 96l150 231h143l-144 -216h55l13 70l129 19l-17 -89h44z" />
    <glyph glyph-name="uniF50F" unicode="&#xf50f;" horiz-adv-x="975" 
d="M331 0h-189l529 680h189zM704 104q37 0 55 10.5t26 39.5q-19 -16 -66 -16q-125 0 -125 105q0 16 3 34q11 67 61 95.5t119 28.5q169 0 169 -132q0 -21 -5 -53l-8 -43q-17 -92 -72.5 -133t-163.5 -41q-71 0 -121 2l39 105q37 -2 89 -2zM804 263q1 3 1 12q0 26 -32 26
q-31 0 -38 -31q-1 -4 -1 -12q0 -26 32 -26q33 0 38 31zM221 397q12 0 20 5q10 7 10 20q0 16 -26 16h-135l47 242h293l-35 -105h-150l-6 -33h39q130 0 130 -103q0 -21 -4 -38q-21 -114 -171 -114q-142 0 -175 2l35 109q48 -1 128 -1z" />
    <glyph glyph-name="uniF510" unicode="&#xf510;" horiz-adv-x="975" 
d="M308 0h-189l529 680h189zM704 104q37 0 55 10.5t26 39.5q-19 -16 -66 -16q-125 0 -125 105q0 16 3 34q11 67 61 95.5t119 28.5q169 0 169 -132q0 -21 -5 -53l-8 -43q-17 -92 -72.5 -133t-163.5 -41q-71 0 -121 2l39 105q37 -2 89 -2zM804 263q1 3 1 12q0 26 -32 26
q-31 0 -38 -31q-1 -4 -1 -12q0 -26 32 -26q33 0 38 31zM257 288h-171l168 269h-165l47 123h316l-20 -98z" />
    <glyph glyph-name="uniF511" unicode="&#xf511;" horiz-adv-x="975" 
d="M338 0h-189l529 680h189zM704 104q37 0 55 10.5t26 39.5q-19 -16 -66 -16q-125 0 -125 105q0 16 3 34q11 67 61 95.5t119 28.5q169 0 169 -132q0 -21 -5 -53l-8 -43q-17 -92 -72.5 -133t-163.5 -41q-71 0 -121 2l39 105q37 -2 89 -2zM804 263q1 3 1 12q0 26 -32 26
q-31 0 -38 -31q-1 -4 -1 -12q0 -26 32 -26q33 0 38 31zM430 567q-6 -29 -19.5 -46t-40.5 -30q42 -23 42 -76q0 -19 -2 -25q-11 -58 -57.5 -84.5t-131.5 -26.5q-177 0 -177 106q0 13 3 28q12 65 71 88q-27 23 -27 61q0 19 2 25q18 102 174 102q165 0 165 -100q0 -6 -2 -22z
M196 418l-2 -14q0 -27 33 -27q16 0 24.5 7t13.5 26q2 10 2 13q0 27 -34 27q-29 0 -37 -32zM226 565q-1 -3 -1 -11q0 -24 31 -24q17 0 24.5 7t10.5 23q1 3 1 11q0 24 -31 24q-29 0 -35 -30z" />
    <glyph glyph-name="uniF6C3" unicode="&#xf6c3;" horiz-adv-x="500" 
d="M177 -291h-136l58 100q-26 18 -26 51q0 88 114 88q89 0 89 -67q0 -40 -39 -92z" />
    <glyph glyph-name="uniF800" unicode="&#xf800;" horiz-adv-x="595" 
d="M359 310l11 57q17 88 17 119q0 23 -8.5 32t-29.5 9q-34 0 -47.5 -27.5t-34.5 -131.5l-11 -56q-18 -93 -18 -119q0 -23 9 -31.5t30 -8.5q34 0 49 29t33 128zM32 300l17 88q31 163 102 235.5t214 72.5q242 0 242 -209q0 -49 -12 -107l-17 -88q-31 -163 -102 -235.5
t-214 -72.5q-126 0 -184 52.5t-58 156.5q0 49 12 107z" />
    <glyph glyph-name="uniF801" unicode="&#xf801;" horiz-adv-x="595" 
d="M133 513l64 167h306l-100 -513h116l-64 -167h-427l64 167h89l67 346h-115z" />
    <glyph glyph-name="uniF802" unicode="&#xf802;" horiz-adv-x="595" 
d="M97 509l65 171q59 2 227 2q100 0 148 -41.5t48 -116.5q0 -28 -6 -58q-14 -68 -49.5 -108t-110.5 -72l-128 -53q-20 -8 -29 -19t-14 -34l-2 -8h296l-64 -172h-476l33 167q17 87 54 137.5t122 84.5l103 42q45 20 52 33q5 8 5 21q0 26 -37 26q-48 0 -122.5 -1t-114.5 -1z
" />
    <glyph glyph-name="uniF803" unicode="&#xf803;" horiz-adv-x="595" 
d="M568 470q-17 -87 -95 -124q60 -39 60 -122q0 -16 -3 -36q-17 -99 -87.5 -144.5t-200.5 -45.5q-193 0 -250 2l64 167q43 -2 195 -2q57 0 62 47q1 3 1 13q0 20 -11 27.5t-35 7.5h-180l62 160h142q56 0 61 48q1 3 1 13q0 33 -45 33q-17 0 -92 -0.5t-125 -0.5l64 167
q17 0 89 1t107 1q118 0 170 -44.5t52 -115.5q0 -26 -6 -52z" />
    <glyph glyph-name="uniF804" unicode="&#xf804;" horiz-adv-x="595" 
d="M564 456l-35 -177h66l-63 -164h-35l-22 -115h-201l22 115h-297l17 136l266 429h209l-250 -401h87l29 146z" />
    <glyph glyph-name="uniF805" unicode="&#xf805;" horiz-adv-x="595" 
d="M236 165q77 0 87 55q1 5 1 15q0 22 -12.5 30.5t-40.5 8.5h-206l80 406h456l-63 -167h-227l-15 -77h25q222 0 222 -173q0 -36 -7 -70q-22 -101 -97.5 -148t-225.5 -47q-169 0 -212 2l60 167q39 -2 175 -2z" />
    <glyph glyph-name="uniF806" unicode="&#xf806;" horiz-adv-x="595" 
d="M348 213q3 18 3 32q0 52 -47 52q-27 0 -42 -15t-23 -53q-3 -18 -3 -32q0 -52 47 -52q27 0 42 15t23 53zM598 680l-64 -168q-10 0 -34 1t-71 1q-73 0 -102 -14.5t-46 -65.5q31 19 77 19q198 0 198 -183q0 -30 -6 -64q-38 -221 -271 -221q-127 0 -186 52t-59 156
q0 51 11 105l13 66q22 114 60.5 181t111.5 102.5t189 35.5q128 0 179 -3z" />
    <glyph glyph-name="uniF807" unicode="&#xf807;" horiz-adv-x="595" 
d="M314 0h-238l277 502h-272l69 178h458l-17 -144z" />
    <glyph glyph-name="uniF808" unicode="&#xf808;" horiz-adv-x="595" 
d="M550 184q-18 -101 -86 -150.5t-202 -49.5q-132 0 -191.5 47.5t-59.5 124.5q0 20 3 39q21 123 131 167q-58 37 -58 113q0 9 2 27q22 194 271 194q113 0 175.5 -40.5t62.5 -122.5q0 -17 -5 -49q-18 -92 -109 -130q70 -39 70 -126q0 -23 -4 -44zM224 212q-3 -15 -3 -26
q0 -47 58 -47q32 0 47 14.5t21 46.5q3 14 3 25q0 24 -13 36t-44 12q-57 0 -69 -61zM281 489q-2 -5 -2 -22q0 -43 55 -43q28 0 43 12.5t20 41.5q2 5 2 22q0 43 -55 43q-52 0 -63 -54z" />
    <glyph glyph-name="uniF809" unicode="&#xf809;" horiz-adv-x="595" 
d="M383 452q3 18 3 32q0 52 -47 52q-27 0 -42 -15t-23 -53q-3 -18 -3 -32q0 -52 47 -52q27 0 42 15t23 53zM24 1l64 168q10 0 34 -1t71 -1q72 0 101.5 14.5t46.5 65.5q-31 -19 -77 -19q-198 0 -198 183q0 29 6 64q38 221 271 221q127 0 186 -52t59 -156q0 -51 -11 -105
l-13 -66q-22 -114 -60.5 -181t-111.5 -102.5t-189 -35.5q-128 0 -179 3z" />
    <glyph glyph-name="uniF80A" unicode="&#xf80a;" 
d="M292 592l5 25q6 33 6 48t-5 19.5t-16 4.5q-17 0 -24.5 -12.5t-16.5 -60.5l-5 -25q-7 -40 -7 -48q0 -15 5 -19.5t17 -4.5q17 0 24.5 12.5t16.5 60.5zM456 625l-9 -47q-17 -94 -65 -136.5t-137 -42.5q-85 0 -129 35.5t-44 102.5q0 19 5 46l9 47q17 94 65 136.5t137 42.5
q85 0 129 -35.5t44 -102.5q0 -19 -5 -46z" />
    <glyph glyph-name="uniF80B" unicode="&#xf80b;" 
d="M123 677l49 123h216l-52 -269h80l-45 -123h-304l45 123h61l28 146h-78z" />
    <glyph glyph-name="uniF80C" unicode="&#xf80c;" 
d="M248 522l-1 -4h169l-37 -110h-304l15 77q22 117 107 147l63 21q13 5 18 10t5 15q0 15 -22 15q-99 0 -138 -2l40 107q39 3 126 3q145 0 145 -98q0 -13 -3 -30q-8 -43 -31 -68.5t-68 -40.5l-53 -18q-28 -10 -31 -24z" />
    <glyph glyph-name="uniF80D" unicode="&#xf80d;" 
d="M237 557h-113l38 98h95q13 0 20 5q8 6 8 18q0 16 -24 16q-92 0 -135 -1l43 107q41 1 146 1q61 0 92 -24t31 -66q0 -14 -3 -29q-11 -50 -60 -73q42 -20 42 -74q0 -6 -2 -20q-17 -108 -174 -108h-177l41 108q35 -1 127 -1q15 0 22 5q9 7 9 21q0 17 -26 17z" />
    <glyph glyph-name="uniF80E" unicode="&#xf80e;" 
d="M449 584l-45 -111h-20l-13 -65h-126l13 65h-194l12 96l150 231h143l-144 -216h55l13 70l129 19l-17 -89h44z" />
    <glyph glyph-name="uniF80F" unicode="&#xf80f;" 
d="M244 517q12 0 20 5q10 7 10 20q0 16 -26 16h-135l47 242h293l-35 -105h-150l-6 -33h39q130 0 130 -103q0 -21 -4 -38q-21 -114 -171 -114q-142 0 -175 2l35 109q48 -1 128 -1z" />
    <glyph glyph-name="uniF810" unicode="&#xf810;" 
d="M323 696q-37 0 -55 -10.5t-26 -39.5q19 16 66 16q125 0 125 -105q0 -16 -3 -34q-11 -67 -61 -95.5t-119 -28.5q-169 0 -169 132q0 21 5 53l8 43q17 92 72.5 133t163.5 41q71 0 121 -2l-39 -105q-37 2 -89 2zM223 537q-1 -3 -1 -12q0 -26 32 -26q31 0 38 31q1 4 1 12
q0 26 -32 26q-33 0 -38 -31z" />
    <glyph glyph-name="uniF811" unicode="&#xf811;" 
d="M280 408h-171l168 269h-165l47 123h316l-20 -98z" />
    <glyph glyph-name="uniF812" unicode="&#xf812;" 
d="M453 687q-6 -29 -19.5 -46t-40.5 -30q42 -23 42 -76q0 -19 -2 -25q-11 -58 -57.5 -84.5t-131.5 -26.5q-177 0 -177 106q0 13 3 28q12 65 71 88q-27 23 -27 61q0 19 2 25q18 102 174 102q165 0 165 -100q0 -6 -2 -22zM219 538l-2 -14q0 -27 33 -27q16 0 24.5 7t13.5 26
q2 10 2 13q0 27 -34 27q-29 0 -37 -32zM249 685q-1 -3 -1 -11q0 -24 31 -24q17 0 24.5 7t10.5 23q1 3 1 11q0 24 -31 24q-29 0 -35 -30z" />
    <glyph glyph-name="uniF813" unicode="&#xf813;" 
d="M212 512q37 0 55 10.5t26 39.5q-19 -16 -66 -16q-125 0 -125 105q0 16 3 34q11 67 61 95.5t119 28.5q169 0 169 -132q0 -21 -5 -53l-8 -43q-17 -92 -72.5 -133t-163.5 -41q-71 0 -121 2l39 105q37 -2 89 -2zM312 671q1 3 1 12q0 26 -32 26q-31 0 -38 -31q-1 -4 -1 -12
q0 -26 32 -26q33 0 38 31z" />
    <glyph glyph-name="uniF814" unicode="&#xf814;" 
d="M191 65l5 25q6 33 6 48t-5 19.5t-16 4.5q-17 0 -24.5 -12.5t-16.5 -60.5l-5 -25q-7 -40 -7 -48q0 -15 5 -19.5t17 -4.5q17 0 24.5 12.5t16.5 60.5zM355 98l-9 -47q-17 -94 -65 -136.5t-137 -42.5q-85 0 -129 35.5t-44 102.5q0 19 5 46l9 47q17 94 65 136.5t137 42.5
q85 0 129 -35.5t44 -102.5q0 -19 -5 -46z" />
    <glyph glyph-name="uniF815" unicode="&#xf815;" 
d="M22 150l49 123h216l-52 -269h80l-45 -123h-304l45 123h61l28 146h-78z" />
    <glyph glyph-name="uniF816" unicode="&#xf816;" 
d="M147 -5l-1 -4h169l-37 -110h-304l15 77q22 117 107 147l63 21q13 5 18 10t5 15q0 15 -22 15q-99 0 -138 -2l40 107q39 3 126 3q145 0 145 -98q0 -14 -3 -30q-8 -43 -31 -68.5t-68 -40.5l-53 -18q-28 -10 -31 -24z" />
    <glyph glyph-name="uniF817" unicode="&#xf817;" 
d="M136 30h-113l38 98h95q13 0 20 5q8 6 8 18q0 16 -24 16q-92 0 -135 -1l43 107q41 1 146 1q61 0 92 -24t31 -66q0 -14 -3 -29q-11 -50 -60 -73q42 -20 42 -74q0 -6 -2 -20q-17 -108 -174 -108h-177l41 108q35 -1 127 -1q15 0 22 5q9 7 9 21q0 17 -26 17z" />
    <glyph glyph-name="uniF818" unicode="&#xf818;" 
d="M348 57l-45 -111h-20l-13 -65h-126l13 65h-194l12 96l150 231h143l-144 -216h55l13 70l129 19l-17 -89h44z" />
    <glyph glyph-name="uniF819" unicode="&#xf819;" 
d="M143 -10q12 0 20 5q10 7 10 20q0 16 -26 16h-135l47 242h293l-35 -105h-150l-6 -33h39q130 0 130 -103q0 -21 -4 -38q-21 -114 -171 -114q-142 0 -175 2l35 109q48 -1 128 -1z" />
    <glyph glyph-name="uniF81A" unicode="&#xf81a;" 
d="M222 169q-37 0 -55 -10.5t-26 -39.5q19 16 66 16q125 0 125 -105q0 -16 -3 -34q-11 -67 -61 -95.5t-119 -28.5q-169 0 -169 132q0 21 5 53l8 43q17 92 72.5 133t163.5 41q71 0 121 -2l-39 -105q-37 2 -89 2zM122 10q-1 -3 -1 -12q0 -26 32 -26q31 0 38 31q1 4 1 12
q0 26 -32 26q-33 0 -38 -31z" />
    <glyph glyph-name="uniF81B" unicode="&#xf81b;" 
d="M179 -119h-171l168 269h-165l47 123h316l-20 -98z" />
    <glyph glyph-name="uniF81C" unicode="&#xf81c;" 
d="M352 160q-6 -29 -19.5 -46t-40.5 -30q42 -23 42 -76q0 -19 -2 -25q-11 -58 -57.5 -84.5t-131.5 -26.5q-177 0 -177 106q0 13 3 28q12 65 71 88q-27 22 -27 61q0 19 2 25q18 102 174 102q165 0 165 -100q0 -6 -2 -22zM118 11q0 -3 -0.5 -6t-1 -5t-0.5 -3q0 -27 33 -27
q16 0 24.5 7t13.5 26q2 10 2 13q0 27 -34 27q-29 0 -37 -32zM148 158q-1 -3 -1 -11q0 -24 31 -24q17 0 24.5 7t10.5 23q1 3 1 11q0 24 -31 24q-29 0 -35 -30z" />
    <glyph glyph-name="uniF81D" unicode="&#xf81d;" 
d="M111 -15q37 0 55 10.5t26 39.5q-19 -16 -66 -16q-125 0 -125 105q0 16 3 34q11 67 61 95.5t119 28.5q169 0 169 -132q0 -21 -5 -53l-8 -43q-17 -92 -72.5 -133t-163.5 -41q-71 0 -121 2l39 105q37 -2 89 -2zM211 144q1 3 1 12q0 26 -32 26q-31 0 -38 -31q-1 -4 -1 -12
q0 -26 32 -26q33 0 38 31z" />
    <glyph glyph-name="NULL" horiz-adv-x="0" 
 />
    <glyph glyph-name="CR" horiz-adv-x="333" 
 />
    <glyph glyph-name="i.locl" horiz-adv-x="294" 
d="M-14 0l103 530h220l-103 -530h-220zM234 755q107 0 107 -69q0 -61 -34.5 -85t-100.5 -24q-107 0 -107 69q0 61 34.5 85t100.5 24z" />
    <glyph glyph-name="glyph469" horiz-adv-x="500" 
d="M87 772l125 149h193l-155 -149h-163zM320 772l125 149h193l-155 -149h-163z" />
    <glyph glyph-name="glyph470" horiz-adv-x="500" 
d="M16 -251l33 91q17 0 41 -0.5t40 -0.5q22 0 29 7q9 9 9 23q0 15 -29 15q-33 0 -64 -1l30 81q38 2 75 2q127 0 127 -87q0 -6 -2 -24q-10 -59 -53.5 -84t-129.5 -25q-62 0 -106 3z" />
    <glyph glyph-name="glyph471" horiz-adv-x="500" 
d="M260 763h-121l1 6q15 94 49 130t93 36q45 0 95 -26l6 -3q31 -17 54 -17q11 0 16.5 6.5t10.5 28.5l1 5h121l-1 -6q-15 -94 -49 -129.5t-93 -35.5q-48 0 -95 25l-6 3q-31 17 -54 17q-11 0 -16.5 -6.5t-10.5 -28.5z" />
    <glyph glyph-name="glyph472" horiz-adv-x="500" 
d="M209 22l108 -22q-42 -29 -62.5 -47t-20.5 -32q0 -17 38 -17h27l-58 -139h-36q-25 0 -41 0.5t-39.5 5t-37.5 12.5t-24.5 24t-10.5 38q0 46 32 83t125 94z" />
    <glyph glyph-name="glyph473" horiz-adv-x="500" 
d="M413 859l2 14q0 33 -41 33q-26 0 -37.5 -11t-17.5 -36l-2 -14q0 -33 42 -33q26 0 37 10.5t17 36.5zM219 859q8 64 50 99.5t113 35.5q62 0 97 -28t35 -83q0 -8 -2 -24q-8 -64 -50 -99.5t-113 -35.5q-62 0 -96.5 28t-34.5 84q0 15 1 23z" />
    <glyph glyph-name="glyph474" horiz-adv-x="500" 
d="M327 920l37 -62l61 62h188l-154 -148h-217l-95 148h180z" />
    <glyph glyph-name="glyph475" horiz-adv-x="500" 
d="M174 772l27 137h348l-27 -137h-348z" />
    <glyph glyph-name="glyph476" horiz-adv-x="500" 
d="M140 826q0 57 25.5 80t86.5 23q91 0 91 -69q0 -57 -26 -80.5t-86 -23.5q-45 0 -68 18.5t-23 51.5zM381 826q0 57 25.5 80t86.5 23q91 0 91 -69q0 -57 -26 -80.5t-86 -23.5q-45 0 -68 18.5t-23 51.5z" />
    <glyph glyph-name="glyph477" horiz-adv-x="500" 
d="M376 934q107 0 107 -69q0 -61 -34.5 -85t-100.5 -24q-107 0 -107 69q0 61 34.5 85t100.5 24z" />
    <glyph glyph-name="glyph478" horiz-adv-x="500" 
d="M401 772l-37 62l-61 -62h-188l154 148h217l95 -148h-180z" />
    <glyph glyph-name="glyph479" horiz-adv-x="500" 
d="M182 772l137 149h223l-170 -149h-190z" />
    <glyph glyph-name="glyph480" horiz-adv-x="500" 
d="M434 921l79 -149h-190l-112 149h223z" />
    <glyph glyph-name="glyph481" horiz-adv-x="500" 
d="M368 865q25 0 38 13.5t18 48.5h144q-15 -84 -64 -124.5t-145 -40.5q-90 0 -132 35t-42 95q0 17 3 35h142q-1 -7 -1 -19q0 -43 39 -43z" />
    <glyph glyph-name="glyph482" horiz-adv-x="500" 
d="M177 -291h-136l58 100q-26 18 -26 51q0 88 114 88q89 0 89 -67q0 -40 -39 -92z" />
    <glyph glyph-name="glyph483" horiz-adv-x="500" 
d="M258 743h174l-79 -196h-137z" />
    <glyph glyph-name="glyph485" horiz-adv-x="500" 
d="M322 816h136l-58 -100q26 -18 26 -51q0 -88 -114 -88q-89 0 -89 67q0 40 39 92z" />
    <glyph glyph-name="glyph486" horiz-adv-x="500" 
d="M379 772h-199l133 131h228z" />
    <glyph glyph-name="glyph487" horiz-adv-x="500" 
d="M297 772h-178l161 129h188l109 -129h-168l-46 52z" />
    <glyph glyph-name="glyph488" horiz-adv-x="500" 
d="M257 743h173l-68 -170h-140z" />
    <glyph glyph-name="parenleft.case" horiz-adv-x="405" 
d="M362 69l-61 -157h-37q-140 0 -197.5 53.5t-57.5 155.5q0 53 15 133l39 202q38 195 112 269t229 74h100l-61 -157h-17q-72 0 -100.5 -34t-52.5 -153l-39 -201q-14 -73 -14 -108q0 -46 21.5 -61.5t74.5 -15.5h46z" />
    <glyph glyph-name="parenright.case" horiz-adv-x="405" 
d="M78 642l61 157h37q140 0 197.5 -53.5t57.5 -155.5q0 -53 -15 -133l-39 -202q-38 -195 -112 -269t-229 -74h-100l61 157h17q72 0 100.5 34t52.5 153l39 201q14 73 14 108q0 46 -21.5 61.5t-74.5 15.5h-46z" />
    <glyph glyph-name="hyphen.case" horiz-adv-x="422" 
d="M381 267h-375l72 189h375z" />
    <glyph glyph-name="slash.case" horiz-adv-x="474" 
d="M328 712h231l-377 -712h-231z" />
    <glyph glyph-name="at.case" horiz-adv-x="846" 
d="M721 119l-61 -164q-65 -4 -180 -4q-227 0 -333.5 66t-106.5 229q0 70 14 135q20 108 55 177.5t93 110.5t133 57t186 16q333 0 333 -213q0 -33 -7 -65l-31 -161q-14 -69 -46 -95.5t-101 -32.5q-72 -5 -125 -5q-122 0 -175.5 33t-53.5 106q0 27 6 58q27 144 206 144
q85 0 119 -25l3 13q2 14 2 20q0 32 -31.5 44.5t-107.5 12.5q-121 0 -177 -39.5t-76 -145.5q-15 -85 -15 -125q0 -87 62.5 -118.5t232.5 -31.5q118 0 182 3zM563 306q25 0 45 3l7 34q2 14 2 16q0 32 -46 32q-24 0 -35 -8.5t-15 -29.5q-2 -14 -2 -19q0 -17 10 -22.5t34 -5.5z
" />
    <glyph glyph-name="bracketleft.case" horiz-adv-x="416" 
d="M372 71l-61 -159h-338l173 888h367l-61 -159h-130l-111 -570h161z" />
    <glyph glyph-name="backslash.case" horiz-adv-x="474" 
d="M89 712h207l125 -712h-207z" />
    <glyph glyph-name="bracketright.case" horiz-adv-x="416" 
d="M79 641l61 159h338l-173 -888h-367l61 159h130l111 570h-161z" />
    <glyph glyph-name="braceleft.case" horiz-adv-x="425" 
d="M350 572l-18 -93q-10 -53 -32.5 -81t-71.5 -42q59 -17 59 -91q0 -16 -3 -34l-18 -93q-3 -16 -3 -29q0 -23 13 -32.5t45 -9.5h64l-60 -155h-65q-208 0 -208 151q0 24 4 45l20 103q3 13 3 24q0 37 -40 37h-29l32 168h30q28 0 41 14.5t19 45.5l20 104q22 106 86.5 151
t182.5 45h106l-60 -155h-33q-41 0 -58.5 -15.5t-25.5 -57.5z" />
    <glyph glyph-name="braceright.case" horiz-adv-x="425" 
d="M111 140l18 93q10 53 32.5 81t71.5 42q-59 17 -59 91q0 16 3 34l18 93q3 16 3 29q0 23 -13 32.5t-45 9.5h-64l60 155h65q208 0 208 -151q0 -24 -4 -45l-20 -103q-3 -13 -3 -24q0 -37 40 -37h29l-32 -168h-30q-28 0 -41 -14.5t-19 -45.5l-20 -104q-22 -106 -86.5 -151
t-182.5 -45h-106l60 155h33q41 0 58.5 15.5t25.5 57.5z" />
    <glyph glyph-name="guilsinglleft.case" horiz-adv-x="356" 
d="M348 407l-160 -60l135 -68l-36 -186l-267 148l42 216l324 147z" />
    <glyph glyph-name="bullet.case" horiz-adv-x="440" 
d="M418 358q0 -92 -42.5 -136t-137.5 -44t-137.5 44t-42.5 136t42.5 136t137.5 44t137.5 -44t42.5 -136z" />
    <glyph glyph-name="endash.case" horiz-adv-x="500" 
d="M-1 263l37 189h500l-37 -189h-500z" />
    <glyph glyph-name="emdash.case" horiz-adv-x="1000" 
d="M-1 264l37 189h1000l-37 -189h-1000z" />
    <glyph glyph-name="guilsinglright.case" horiz-adv-x="356" 
d="M40 290l160 60l-135 68l36 186l267 -148l-42 -216l-324 -147z" />
    <glyph glyph-name="exclamdown.case" horiz-adv-x="304" 
d="M98 480h190l-8 -96q-9 -99 -28 -193l-37 -191h-230l37 191q16 82 48 193zM110 605q0 63 29.5 91.5t95.5 28.5q99 0 99 -79q0 -63 -29.5 -91.5t-95.5 -28.5q-99 0 -99 79z" />
    <glyph glyph-name="guillemotleft.case" horiz-adv-x="577" 
d="M20 241l42 216l265 148l-38 -196l-132 -62l107 -68l-36 -186zM300 241l42 216l265 148l-38 -196l-132 -62l107 -68l-36 -186z" />
    <glyph glyph-name="guillemotright.case" horiz-adv-x="577" 
d="M589 457l-42 -216l-265 -148l38 196l132 62l-107 68l36 186zM309 457l-42 -216l-265 -148l38 196l132 62l-107 68l36 186z" />
    </font>
</defs>
</svg>
