<?xml version="1.0" standalone="no"?>
<!DOCTYPE svg PUBLIC "-//W3C//DTD SVG 1.1//EN" "http://www.w3.org/Graphics/SVG/1.1/DTD/svg11.dtd" >
<svg>
<metadata>
Created by FontForge 20120731 at Tue Dec 15 21:08:26 2015
 By ,,,
Copyright 2014 Dalton Maag Ltd. Modification of this file requires prior written permission from Dalton Maag Ltd.
</metadata>
<defs>
<font id="Prometo-Light" horiz-adv-x="372" >
  <font-face 
    font-family="Prometo"
    font-weight="300"
    font-stretch="normal"
    units-per-em="1000"
    panose-1="2 11 4 4 3 2 3 6 2 3"
    ascent="800"
    descent="-200"
    x-height="514"
    cap-height="712"
    bbox="-199 -232 1187 956"
    underline-thickness="93"
    underline-position="-54"
    unicode-range="U+0008-FB04"
  />
<missing-glyph horiz-adv-x="500" 
d="M450 0h-400v750h400v-750zM100 50h300v650h-300v-650z" />
    <glyph glyph-name="uniF603" unicode="ft" horiz-adv-x="683" 
d="M289 694q-95 0 -127 -34t-32 -146h193l-11 -50h-182v-464h-58v521q0 126 48 175t165 49q43 0 83 -2l-11 -51q-46 2 -68 2zM384 174v461l58 11v-132h211l-11 -50h-200v-289q0 -75 24 -99.5t98 -24.5h77l-11 -51h-66q-104 0 -142 35.5t-38 138.5z" />
    <glyph glyph-name="uniFB00" unicode="ff" horiz-adv-x="638" 
d="M605 694q-95 0 -127.5 -34t-32.5 -146h196l-11 -50h-185v-464h-58v521q0 126 48 175t165 49q36 0 86 -2l-11 -51q-46 2 -70 2zM289 694q-95 0 -127 -34t-32 -146h196l-11 -50h-185v-464h-58v521q0 126 48 175t165 49q37 0 83 -2l-11 -51q-46 2 -68 2z" />
    <glyph glyph-name="uniFB01" unicode="fi" horiz-adv-x="513" 
d="M307 694q-105 0 -141 -39.5t-36 -140.5h191l-11 -50h-180v-464h-58v502q0 132 51.5 187.5t183.5 55.5q27 0 123 -2l-11 -51q-62 2 -112 2zM383 514h58v-514h-58v514z" />
    <glyph glyph-name="uniFB02" unicode="fl" horiz-adv-x="525" 
d="M285 745q31 0 65 -2l-11 -51q-24 2 -50 2q-95 0 -127 -34t-32 -146h193l-11 -50h-182v-464h-58v521q0 126 48 175t165 49zM395 0v743h58v-743h-58z" />
    <glyph glyph-name="uniFB03" unicode="ffi" horiz-adv-x="832" 
d="M625 694q-104 0 -140 -39.5t-36 -140.5h192l-11 -50h-181v-464h-58v502q0 132 51 187.5t183 55.5q36 0 124 -2l-11 -51q-86 2 -113 2zM702 514h58v-514h-58v514zM289 694q-95 0 -127 -34t-32 -146h196l-11 -50h-185v-464h-58v521q0 126 48 175t165 49q45 0 83 -2l-11 -51
q-58 2 -68 2z" />
    <glyph glyph-name="uniFB04" unicode="ffl" horiz-adv-x="844" 
d="M289 694q-95 0 -127 -34t-32 -146h196l-11 -50h-185v-464h-58v521q0 126 48 175t165 49q41 0 83 -2l-11 -51q-38 2 -68 2zM603 745q27 0 65 -2l-11 -51q-30 2 -50 2q-95 0 -127 -34t-32 -146h193l-11 -50h-182v-464h-58v521q0 126 48 175t165 49zM714 0v743h58v-743h-58z
" />
    <glyph glyph-name="f_f_t.liga" unicode="fft" horiz-adv-x="999" 
d="M289 694q-95 0 -127 -34t-32 -146h196l-11 -50h-185v-464h-58v521q0 126 48 175t165 49q41 0 83 -2l-11 -51q-42 2 -68 2zM605 694q-95 0 -127 -34t-32 -146h192l-11 -50h-181v-464h-59v521q0 126 48 175t165 49q38 0 84 -2l-11 -51q-46 2 -68 2zM699 174v461l58 11v-132
h211l-11 -50h-200v-289q0 -75 24 -99.5t98 -24.5h77l-11 -51h-66q-104 0 -142 35.5t-38 138.5z" />
    <glyph glyph-name=".notdef" horiz-adv-x="500" 
d="M450 0h-400v750h400v-750zM100 50h300v650h-300v-650z" />
    <glyph glyph-name=".null" horiz-adv-x="0" 
 />
    <glyph glyph-name="nonmarkingreturn" horiz-adv-x="333" 
 />
    <glyph glyph-name="uni0008" horiz-adv-x="0" 
 />
    <glyph glyph-name="uni0008" horiz-adv-x="0" 
 />
    <glyph glyph-name="uni0008" horiz-adv-x="0" 
 />
    <glyph glyph-name="uni0009" unicode="&#x9;" horiz-adv-x="250" 
 />
    <glyph glyph-name="uni0009" unicode="&#xd;" horiz-adv-x="250" 
 />
    <glyph glyph-name="space" unicode=" " horiz-adv-x="250" 
 />
    <glyph glyph-name="exclam" unicode="!" horiz-adv-x="211" 
d="M129 176h-46l-6 184q0 15 -0.5 83t-0.5 85v184h60v-184q0 -17 -0.5 -85t-0.5 -83zM151 40q0 -47 -45 -47t-45 47t45 47t45 -47z" />
    <glyph glyph-name="quotedbl" unicode="&#x22;" horiz-adv-x="322" 
d="M101 487h-46l-6 118q-1 24 -1 85v53h60v-53q0 -37 -2 -85zM267 487h-46l-6 118q-1 24 -1 85v53h60v-53q0 -37 -2 -85z" />
    <glyph glyph-name="numbersign" unicode="#" horiz-adv-x="667" 
d="M384 0l27 184h-203l-27 -184h-53l27 184h-109l10 49h106l32 214h-111l10 49h108l28 184h53l-28 -184h203l27 184h53l-27 -184h111l-10 -49h-109l-31 -214h113l-11 -49h-109l-27 -184h-53zM247 447l-32 -214h203l31 214h-202z" />
    <glyph glyph-name="dollar" unicode="$" horiz-adv-x="595" 
d="M310 -96h-48v96q-163 0 -198 2l11 52q35 -2 187 -2v272l-46 9q-148 30 -148 163v16q0 78 47.5 119.5t146.5 49.5v79h48v-78q132 0 185 -2l-11 -52q-104 2 -174 2v-258l43 -7q86 -15 124 -53t38 -117v-13q0 -87 -49 -131t-156 -50v-97zM457 187q0 63 -28.5 89t-118.5 40
v-263q81 5 114 36.5t33 97.5zM125 507q0 -57 28 -85.5t109 -39.5v247q-76 -5 -106.5 -34t-30.5 -88z" />
    <glyph glyph-name="percent" unicode="%" horiz-adv-x="839" 
d="M178 0l425 680h57l-425 -680h-57zM653 38q64 0 86.5 27.5t22.5 108.5v44q0 81 -22.5 108.5t-86.5 27.5q-65 0 -87.5 -27.5t-22.5 -108.5v-44q0 -81 22.5 -108.5t87.5 -27.5zM653 -9q-88 0 -125 41.5t-37 137.5v52q0 96 37 137.5t125 41.5t124.5 -41.5t36.5 -137.5v-52
q0 -96 -36.5 -137.5t-124.5 -41.5zM186 326q64 0 86.5 27.5t22.5 108.5v44q0 81 -22.5 108.5t-86.5 27.5q-65 0 -87.5 -27.5t-22.5 -108.5v-44q0 -81 22.5 -108.5t87.5 -27.5zM186 279q-88 0 -125 41.5t-37 137.5v52q0 96 37 137.5t125 41.5t124.5 -41.5t36.5 -137.5v-52
q0 -96 -36.5 -137.5t-124.5 -41.5z" />
    <glyph glyph-name="ampersand" unicode="&#x26;" horiz-adv-x="644" 
d="M120 203v-10q0 -75 35 -108.5t123 -33.5h196v298h-181q-99 0 -136 -36.5t-37 -109.5zM481 0h-196q-118 0 -171 45.5t-53 145.5v13q0 143 119 171q-102 32 -102 163v8q0 169 210 169q121 0 172 -2l-11 -52q-33 0 -81 1t-80 1q-84 0 -118 -29t-34 -92v-10q0 -66 32.5 -98.5
t126.5 -32.5h309l-11 -52h-61v-292q0 -32 -11 -44.5t-40 -12.5z" />
    <glyph glyph-name="quotesingle" unicode="'" horiz-adv-x="156" 
d="M101 487h-46l-6 118q-1 24 -1 85v53h60v-53q0 -37 -2 -85z" />
    <glyph glyph-name="parenleft" unicode="(" horiz-adv-x="325" 
d="M305 -123l-11 -52h-13q-52 0 -83.5 6t-60 25t-42.5 56.5t-22 98.5t-8 154v207q0 93 8 154t22 98.5t42.5 56.5t60 25t83.5 6h24l-11 -52h-13q-43 0 -65.5 -4t-44 -18.5t-30.5 -46.5t-14.5 -84t-5.5 -135v-207q0 -83 5.5 -135t14.5 -84t30.5 -46.5t44 -18.5t65.5 -4h24z
" />
    <glyph glyph-name="parenright" unicode=")" horiz-adv-x="325" 
d="M20 660l11 52h13q52 0 83.5 -6t60 -25t42.5 -56.5t22 -98.5t8 -154v-207q0 -93 -8 -154t-22 -98.5t-42.5 -56.5t-60 -25t-83.5 -6h-24l11 52h13q43 0 65.5 4t44 18.5t30.5 46.5t14.5 84t5.5 135v207q0 83 -5.5 135t-14.5 84t-30.5 46.5t-44 18.5t-65.5 4h-24z" />
    <glyph glyph-name="asterisk" unicode="*" horiz-adv-x="412" 
d="M287 374l-81 123l-81 -123l-40 28l83 115l-132 41l14 46l133 -46l-3 144h52l-3 -144l133 46l14 -46l-133 -41l84 -115z" />
    <glyph glyph-name="plus" unicode="+" horiz-adv-x="595" 
d="M326 556v-190h180v-52h-180v-190h-57v190h-180v52h180v190h57z" />
    <glyph glyph-name="comma" unicode="," horiz-adv-x="174" 
d="M113 -22l-60 -130h-44l58 153q-25 10 -25 42q0 47 46 47q45 0 45 -47q0 -26 -20 -65z" />
    <glyph glyph-name="hyphen" unicode="-" horiz-adv-x="359" 
d="M313 267h-278l11 53h278z" />
    <glyph glyph-name="period" unicode="." horiz-adv-x="174" 
d="M132 42q0 -47 -45 -47t-45 47q0 48 45 48t45 -48z" />
    <glyph glyph-name="slash" unicode="/" horiz-adv-x="382" 
d="M289 712h59l-255 -712h-59z" />
    <glyph glyph-name="zero" unicode="0" horiz-adv-x="598" 
d="M299 36q102 0 140.5 48.5t38.5 189.5v131q0 141 -38.5 190t-140.5 49q-101 0 -139 -48.5t-38 -190.5v-131q0 -141 38 -189.5t139 -48.5zM299 696q131 0 185 -67.5t54 -220.5v-136q0 -153 -54 -220.5t-185 -67.5q-132 0 -185 67t-53 221v136q0 154 53 221t185 67z" />
    <glyph glyph-name="one" unicode="1" horiz-adv-x="400" 
d="M379 50l-10 -50h-325l11 50h131v580h-138l11 50h185v-630h135z" />
    <glyph glyph-name="two" unicode="2" horiz-adv-x="526" 
d="M334 325l-116 -48q-63 -25 -85 -58.5t-22 -99.5v-67h349l-10 -52h-397v113q0 85 31.5 133t111.5 81l115 48q54 22 74.5 49.5t20.5 81.5q0 67 -30.5 95.5t-104.5 28.5q-151 0 -198 -2l10 52q45 2 187 2q102 0 148.5 -41.5t46.5 -127.5v-12q0 -68 -31.5 -108.5t-99.5 -67.5
z" />
    <glyph glyph-name="three" unicode="3" horiz-adv-x="505" 
d="M49 628l11 52q40 2 181 2q102 0 151 -39.5t49 -121.5v-12q0 -119 -94 -155q57 -14 82.5 -51.5t25.5 -104.5v-14q0 -95 -51 -140.5t-164 -45.5q-156 0 -211 2l11 52q45 -2 206 -2q81 0 115.5 31.5t34.5 103.5v12q0 67 -32.5 97.5t-111.5 30.5h-169l10 52h160
q68 0 98.5 31.5t30.5 94.5v12q0 62 -32 88.5t-110 26.5q-146 0 -191 -2z" />
    <glyph glyph-name="four" unicode="4" horiz-adv-x="529" 
d="M513 207l-11 -51h-76v-156h-57v156h-341v44l280 480h62l-278 -473h277v240l57 10v-250h87z" />
    <glyph glyph-name="five" unicode="5" horiz-adv-x="511" 
d="M458 224v-28q0 -111 -51.5 -154.5t-181.5 -43.5q-135 0 -177 2l11 53q65 -3 166 -3q103 0 138 29t35 118v27q0 78 -34 103.5t-129 25.5h-171v327h368l-11 -51h-301v-225h120q122 0 170 -40t48 -140z" />
    <glyph glyph-name="six" unicode="6" horiz-adv-x="540" 
d="M117 435v-74q45 72 168 72q106 0 157.5 -50t51.5 -164v-18q0 -217 -216 -217q-113 0 -166 54t-53 180v207q0 143 55 200t190 57q101 0 146 -2l-10 -52q-46 2 -137 2q-109 0 -147.5 -43t-38.5 -152zM278 34q81 0 119 38.5t38 130.5v14q0 93 -35.5 129.5t-116.5 36.5
q-35 0 -62 -6t-52 -21t-38.5 -47t-13.5 -79v-22q0 -97 38 -135.5t123 -38.5z" />
    <glyph glyph-name="seven" unicode="7" horiz-adv-x="474" 
d="M188 0h-63l247 629h-363l11 51h413v-47z" />
    <glyph glyph-name="eight" unicode="8" horiz-adv-x="549" 
d="M275 696q112 0 163 -43.5t51 -127.5v-17q0 -57 -28.5 -96t-79.5 -54q57 -15 89 -56t32 -106v-22q0 -98 -56 -144t-171 -46q-113 0 -169.5 46t-56.5 144v22q0 65 32 106t88 56q-51 15 -79 54t-28 96v17q0 171 213 171zM275 333q-92 0 -129.5 -34t-37.5 -106v-15
q0 -77 39.5 -110.5t127.5 -33.5t128 33.5t40 110.5v15q0 71 -38 105.5t-130 34.5zM276 647q-86 0 -121.5 -29t-35.5 -93v-17q0 -62 34.5 -94t121.5 -32q88 0 122.5 32t34.5 94v17q0 65 -35 93.5t-121 28.5z" />
    <glyph glyph-name="nine" unicode="9" horiz-adv-x="540" 
d="M424 245v74q-45 -72 -168 -72q-106 0 -157.5 50t-51.5 164v18q0 217 216 217q114 0 166 -54t52 -180v-207q0 -143 -55 -200t-190 -57q-106 0 -146 2l11 52q45 -2 137 -2q109 0 147.5 43t38.5 152zM263 646q-82 0 -119.5 -38.5t-37.5 -130.5v-14q0 -93 35.5 -129.5
t115.5 -36.5q76 0 121.5 32t45.5 122v21q0 97 -38.5 135.5t-122.5 38.5z" />
    <glyph glyph-name="colon" unicode=":" horiz-adv-x="174" 
d="M132 42q0 -47 -45 -47t-45 47q0 48 45 48t45 -48zM132 471q0 -47 -45 -47t-45 47q0 48 45 48t45 -48z" />
    <glyph glyph-name="semicolon" unicode=";" horiz-adv-x="174" 
d="M113 -22l-60 -130h-44l58 153q-25 10 -25 42q0 47 46 47q45 0 45 -47q0 -26 -20 -65zM132 471q0 -47 -45 -47t-45 47q0 48 45 48t45 -48z" />
    <glyph glyph-name="less" unicode="&#x3c;" horiz-adv-x="595" 
d="M91 314v53l414 178v-55l-353 -150l353 -148v-57z" />
    <glyph glyph-name="equal" unicode="=" horiz-adv-x="595" 
d="M89 418v52h417v-52h-417zM89 213v52h417v-52h-417z" />
    <glyph glyph-name="greater" unicode="&#x3e;" horiz-adv-x="595" 
d="M504 367v-53l-414 -179v57l352 148l-352 150v55z" />
    <glyph glyph-name="question" unicode="?" horiz-adv-x="455" 
d="M220 378l53 27q44 20 60 47.5t16 81.5q0 72 -31.5 100t-122.5 28q-13 0 -34 -0.5t-59.5 -1t-77.5 -0.5l10 51q59 2 160 2q116 0 165.5 -40t49.5 -129v-18q0 -61 -24 -98.5t-81 -66.5l-56 -27q-42 -21 -53 -44t-11 -77v-38h-58v38q0 68 19 103t75 62zM200 40
q0 -47 -45 -47t-45 47t45 47t45 -47z" />
    <glyph glyph-name="at" unicode="@" horiz-adv-x="733" 
d="M663 346v-273q0 -33 -12 -44.5t-49 -11.5h-146q-102 0 -149 36.5t-47 119.5v15q0 86 44.5 124.5t142.5 38.5q116 0 160 -50v45q0 93 -48.5 129.5t-176.5 36.5q-145 0 -203.5 -51.5t-58.5 -195.5v-157q0 -158 64.5 -212.5t248.5 -54.5q111 0 171 3l-11 -51q-57 -3 -160 -3
q-210 0 -289.5 67t-79.5 251v157q0 165 74 231.5t244 66.5q147 0 214 -50t67 -167zM455 68h152v124q0 63 -41 86.5t-113 23.5q-74 0 -105.5 -23t-31.5 -91v-13q0 -58 30 -82.5t109 -24.5z" />
    <glyph glyph-name="A" unicode="A" horiz-adv-x="657" 
d="M572 0l-86 228h-319l-85 -228h-60l276 712h62l275 -712h-63zM326 650l-140 -369h280z" />
    <glyph glyph-name="B" unicode="B" horiz-adv-x="615" 
d="M81 0v712h260q112 0 161.5 -40.5t49.5 -130.5v-12q0 -120 -99 -155q117 -28 117 -168v-14q0 -98 -56.5 -145t-172.5 -47h-260zM140 344v-291h201q91 0 130 32t39 108v14q0 75 -37 106t-124 31h-209zM493 527v14q0 64 -34 91t-118 27h-201v-262h207q75 0 110.5 31t35.5 99
z" />
    <glyph glyph-name="C" unicode="C" horiz-adv-x="565" 
d="M361 52q58 0 154 2l-12 -54q-82 -2 -142 -2q-170 0 -235 66t-65 232v121q0 166 65.5 231.5t235.5 65.5q105 0 154 -2l-12 -54q-38 2 -143 2q-76 0 -121.5 -11t-72 -41t-36 -74t-9.5 -117v-121q0 -144 49 -194t190 -50z" />
    <glyph glyph-name="D" unicode="D" horiz-adv-x="676" 
d="M81 0v712h227q168 0 237.5 -74.5t69.5 -241.5v-79q0 -168 -69.5 -242.5t-237.5 -74.5h-227zM140 658v-604h168q140 0 193 58t53 207v75q0 148 -53 206t-193 58h-168z" />
    <glyph glyph-name="E" unicode="E" horiz-adv-x="593" 
d="M81 712h457l-12 -54h-386v-265h373l-12 -54h-361v-285h398l-12 -54h-445v712z" />
    <glyph glyph-name="F" unicode="F" horiz-adv-x="558" 
d="M81 712h442l-12 -54h-371v-270h345l-12 -54h-333v-334h-59v712z" />
    <glyph glyph-name="G" unicode="G" horiz-adv-x="635" 
d="M374 355h199v-296q0 -34 -11 -46.5t-42 -12.5h-156q-172 0 -237.5 65t-65.5 226v130q0 161 66.5 227t241.5 66q132 0 185 -2l-11 -54q-51 2 -176 2q-147 0 -196 -48t-49 -192v-127q0 -143 49.5 -191t191.5 -48h152v247h-153z" />
    <glyph glyph-name="H" unicode="H" horiz-adv-x="696" 
d="M556 712h59v-712h-59v338h-416v-338h-59v712h59v-320h416v320z" />
    <glyph glyph-name="I" unicode="I" horiz-adv-x="221" 
d="M81 712h59v-712h-59v712z" />
    <glyph glyph-name="J" unicode="J" horiz-adv-x="456" 
d="M27 1l11 54q37 -2 135 -2q94 0 121.5 38.5t27.5 158.5v462h59v-467q0 -139 -43 -192.5t-165 -53.5q-44 0 -146 2z" />
    <glyph glyph-name="K" unicode="K" horiz-adv-x="620" 
d="M140 712v-325l361 325h74l-377 -340l412 -372h-84l-386 349v-349h-59v712h59z" />
    <glyph glyph-name="L" unicode="L" horiz-adv-x="541" 
d="M81 712h59v-658h374l-12 -54h-421v712z" />
    <glyph glyph-name="M" unicode="M" horiz-adv-x="807" 
d="M428 217h-47l-241 400v-617h-59v712h65l261 -435l253 435h66v-712h-59v622z" />
    <glyph glyph-name="N" unicode="N" horiz-adv-x="699" 
d="M81 712h54l424 -615v615h59v-712h-55l-423 613v-613h-59v712z" />
    <glyph glyph-name="O" unicode="O" horiz-adv-x="699" 
d="M349 35q129 0 178.5 53.5t49.5 195.5v145q0 141 -50 195t-178 54q-129 0 -178 -53.5t-49 -195.5v-145q0 -140 50 -194.5t177 -54.5zM349 -18q-158 0 -223 70.5t-65 230.5v147q0 157 65 229t223 72q159 0 224 -70.5t65 -230.5v-147q0 -157 -65 -229t-224 -72z" />
    <glyph glyph-name="P" unicode="P" horiz-adv-x="607" 
d="M318 298h-178v-298h-59v712h237q133 0 189 -44.5t56 -150.5v-24q0 -105 -57 -150t-188 -45zM504 498v14q0 86 -40 116t-146 30h-178v-306h178q107 0 146.5 30t39.5 116z" />
    <glyph glyph-name="Q" unicode="Q" horiz-adv-x="699" 
d="M349 -18q-158 0 -223 70.5t-65 230.5v147q0 157 65 229t223 72q159 0 224 -70.5t65 -230.5v-147q0 -129 -42.5 -199.5t-141.5 -91.5l153 -123h-91l-139 114q-11 -1 -28 -1zM349 35q129 0 178.5 53.5t49.5 195.5v145q0 141 -50 195t-178 54q-129 0 -178 -53.5t-49 -195.5
v-145q0 -140 50 -194.5t177 -54.5z" />
    <glyph glyph-name="R" unicode="R" horiz-adv-x="620" 
d="M349 299h-209v-299h-59v712h237q131 0 188 -44.5t57 -152.5v-19q0 -86 -36.5 -131t-117.5 -59l187 -306h-68zM504 500v11q0 86 -39.5 116.5t-146.5 30.5h-178v-305h178q108 0 147 30t39 117z" />
    <glyph glyph-name="S" unicode="S" horiz-adv-x="566" 
d="M224 403l142 -23q83 -15 120 -55.5t37 -123.5v-12q0 -101 -59 -146t-198 -45q-154 0 -223 2l11 54q61 -2 212 -2q116 0 157 30.5t41 113.5q0 62 -25.5 90t-96.5 40l-136 23q-88 14 -124 55t-36 120v14q0 85 57 130.5t188 45.5q139 0 212 -2l-12 -54q-67 2 -202 2
q-104 0 -144 -29.5t-40 -99.5q0 -60 24.5 -88t94.5 -40z" />
    <glyph glyph-name="T" unicode="T" horiz-adv-x="624" 
d="M39 712h558l-12 -54h-244v-658h-59v658h-255z" />
    <glyph glyph-name="U" unicode="U" horiz-adv-x="670" 
d="M335 -18q-150 0 -205 65.5t-55 217.5v447h59v-447q0 -134 43.5 -182t157.5 -48q118 0 159.5 48.5t41.5 181.5v447h59v-447q0 -154 -57.5 -218.5t-202.5 -64.5z" />
    <glyph glyph-name="V" unicode="V" horiz-adv-x="632" 
d="M22 712h64l231 -638l233 638h60l-262 -712h-63z" />
    <glyph glyph-name="W" unicode="W" horiz-adv-x="868" 
d="M631 80l148 632h57l-172 -712h-65l-166 627l-167 -627h-65l-169 712h61l144 -632l169 632h58z" />
    <glyph glyph-name="X" unicode="X" horiz-adv-x="642" 
d="M602 712l-248 -338l273 -374h-71l-237 329l-237 -329h-67l272 374l-245 338h69l212 -295l212 295h67z" />
    <glyph glyph-name="Y" unicode="Y" horiz-adv-x="618" 
d="M16 712h66l230 -353l227 353h63l-262 -404v-308h-59v308z" />
    <glyph glyph-name="Z" unicode="Z" horiz-adv-x="587" 
d="M39 0v51l418 607h-398l11 54h455v-52l-417 -606h435l-11 -54h-493z" />
    <glyph glyph-name="bracketleft" unicode="[" horiz-adv-x="333" 
d="M90 712h228l-12 -53h-160v-781h172l-12 -53h-216v887z" />
    <glyph glyph-name="backslash" unicode="\" horiz-adv-x="382" 
d="M34 712h60l254 -712h-60z" />
    <glyph glyph-name="bracketright" unicode="]" horiz-adv-x="333" 
d="M243 -175h-228l12 53h160v781h-172l12 53h216v-887z" />
    <glyph glyph-name="asciicircum" unicode="^" horiz-adv-x="595" 
d="M105 409l162 303h61l163 -303h-62l-133 249l-130 -249h-61z" />
    <glyph glyph-name="underscore" unicode="_" horiz-adv-x="500" 
d="M0 -178v54h500v-54h-500z" />
    <glyph glyph-name="grave" unicode="`" horiz-adv-x="500" 
d="M226 725l119 -126h-61l-129 126h71z" />
    <glyph glyph-name="a" unicode="a" horiz-adv-x="538" 
d="M103 167v-13q0 -55 29.5 -79t107.5 -24h170v120q0 60 -39 83.5t-119 23.5h-13q-75 0 -105.5 -24.5t-30.5 -86.5zM466 344v-287q0 -34 -12.5 -45.5t-49.5 -11.5h-164q-103 0 -148 36t-45 117v14q0 84 45.5 122t147.5 38q130 0 170 -49v60q0 73 -33 100t-130 27
q-108 0 -152 -3l11 52q74 2 141 2q119 0 169 -39.5t50 -132.5z" />
    <glyph glyph-name="b" unicode="b" horiz-adv-x="575" 
d="M301 479q-82 0 -126.5 -31t-44.5 -120v-111q0 -107 37 -144.5t132 -37.5q92 0 128.5 37.5t36.5 144.5v78q0 109 -38 146.5t-125 37.5zM305 530q114 0 166 -53t52 -180v-80q0 -128 -53.5 -180.5t-172.5 -52.5q-120 0 -172.5 52t-52.5 180v527h58v-281q40 68 175 68z" />
    <glyph glyph-name="c" unicode="c" horiz-adv-x="464" 
d="M279 49q63 0 137 2l-11 -51q-62 -2 -126 -2q-127 0 -177 53.5t-50 177.5v56q0 127 52 179t175 52q99 0 136 -2l-11 -51q-34 2 -125 2q-98 0 -133 -36t-35 -144v-56q0 -103 35.5 -141.5t132.5 -38.5z" />
    <glyph glyph-name="d" unicode="d" horiz-adv-x="568" 
d="M278 51h160v271q0 94 -42.5 125.5t-123.5 31.5q-89 0 -125 -37.5t-36 -140.5v-65q0 -110 35 -147.5t132 -37.5zM434 0h-158q-122 0 -173 52.5t-51 183.5v65q0 122 53 175.5t164 53.5q120 0 169 -62v275h58v-686q0 -34 -12 -45.5t-50 -11.5z" />
    <glyph glyph-name="e" unicode="e" horiz-adv-x="531" 
d="M426 242h-316q0 -114 32.5 -153.5t130.5 -39.5q47 0 169 2l-11 -51q-90 -2 -158 -2q-126 0 -173.5 56t-47.5 179v63q0 125 51.5 179.5t164.5 54.5q111 0 161 -48t50 -154v-24q0 -40 -10.5 -51t-42.5 -11zM267 481q-88 0 -122.5 -38.5t-34.5 -151.5h315v34q0 88 -36 122
t-122 34z" />
    <glyph glyph-name="f" unicode="f" horiz-adv-x="329" 
d="M289 694q-95 0 -127 -34t-32 -146h203l-11 -50h-192v-464h-58v521q0 126 48 175t165 49q65 0 92 -2l-11 -51q-54 2 -77 2z" />
    <glyph glyph-name="g" unicode="g" horiz-adv-x="573" 
d="M275 69q79 0 124 31t45 117v91q0 100 -37 135.5t-132 35.5q-94 0 -129 -36t-35 -139v-59q0 -105 36.5 -140.5t127.5 -35.5zM444 35v51q-41 -68 -174 -68q-115 0 -166.5 51.5t-51.5 172.5v64q0 121 52.5 172.5t171.5 51.5q124 0 174.5 -52t50.5 -169v-274
q0 -117 -52.5 -164.5t-179.5 -47.5q-99 0 -162 3l12 51q59 -3 150 -3q99 0 137 34t38 127z" />
    <glyph glyph-name="h" unicode="h" horiz-adv-x="571" 
d="M130 0h-58v743h58v-275q41 62 168 62q99 0 150 -39.5t51 -135.5v-355h-58v348q0 74 -33 102.5t-115 28.5q-77 0 -120 -27t-43 -96v-356z" />
    <glyph glyph-name="i" unicode="i" horiz-adv-x="202" 
d="M72 0v514h58v-514h-58zM144 659q0 -44 -43 -44t-43 44t43 44t43 -44z" />
    <glyph glyph-name="j" unicode="j" horiz-adv-x="202" 
d="M-103 -175l11 49q25 -1 62 -1q61 0 81.5 23t20.5 91v527h58v-526q0 -94 -35 -129.5t-124 -35.5q-36 0 -74 2zM144 659q0 -44 -43 -44t-43 44t43 44t43 -44z" />
    <glyph glyph-name="k" unicode="k" horiz-adv-x="512" 
d="M130 743v-442l263 213h80l-285 -229l314 -285h-80l-292 264v-264h-58v743h58z" />
    <glyph glyph-name="l" unicode="l" horiz-adv-x="202" 
d="M72 0v743h58v-743h-58z" />
    <glyph glyph-name="m" unicode="m" horiz-adv-x="842" 
d="M130 0h-58v362q0 88 48 128t140 40q127 0 161 -77q38 77 161 77q93 0 140.5 -38.5t47.5 -129.5v-362h-58v357q0 67 -30 94.5t-100 27.5t-100.5 -26.5t-30.5 -91.5v-361h-59v357q0 67 -31 94.5t-101 27.5q-71 0 -100.5 -29t-29.5 -94v-356z" />
    <glyph glyph-name="n" unicode="n" horiz-adv-x="571" 
d="M130 0h-58v343q0 94 46 140.5t168 46.5q123 0 168 -45.5t45 -141.5v-343h-58v337q0 39 -4.5 62t-20 43t-47 28.5t-83.5 8.5t-84 -8.5t-47.5 -29t-20 -43.5t-4.5 -61v-337z" />
    <glyph glyph-name="o" unicode="o" horiz-adv-x="556" 
d="M278 530q122 0 174 -51.5t52 -183.5v-76q0 -131 -52.5 -183t-173.5 -52t-173.5 52t-52.5 183v76q0 131 52.5 183t173.5 52zM445 219v76q0 108 -36.5 146t-130.5 38q-95 0 -131 -37t-36 -147v-76q0 -108 36.5 -146t130.5 -38q95 0 131 37t36 147z" />
    <glyph glyph-name="p" unicode="p" horiz-adv-x="573" 
d="M299 35q97 0 130 39.5t33 146.5v74q0 111 -37 147.5t-128 36.5q-92 0 -129.5 -36.5t-37.5 -147.5v-95q0 -93 43 -129t126 -36zM298 530q56 0 95 -10t69 -35.5t44.5 -72.5t14.5 -117v-74q0 -132 -52 -184.5t-170 -52.5q-123 0 -169 70v-229h-58v470q0 132 55 183.5
t171 51.5z" />
    <glyph glyph-name="q" unicode="q" horiz-adv-x="574" 
d="M273 35q81 0 126 31.5t45 120.5v110q0 107 -37.5 144.5t-131.5 37.5q-92 0 -128 -37t-36 -145v-78q0 -109 37.5 -146.5t124.5 -37.5zM269 -16q-114 0 -165.5 53t-51.5 180v80q0 128 53 180.5t172 52.5q120 0 172.5 -52t52.5 -180v-473h-58v227q-43 -68 -175 -68z" />
    <glyph glyph-name="r" unicode="r" horiz-adv-x="391" 
d="M130 0h-58v339q0 100 43.5 138.5t138.5 38.5q87 0 110 -1l-11 -52q-34 2 -96 2q-75 0 -101 -27.5t-26 -105.5v-332z" />
    <glyph glyph-name="s" unicode="s" horiz-adv-x="495" 
d="M195 296l105 -10q79 -8 112 -42t33 -92v-9q0 -73 -43 -109t-147 -36q-164 0 -214 2l11 51q40 -2 205 -2q78 0 104.5 20t26.5 77q0 43 -21 62t-77 24l-107 10q-73 8 -106 40t-33 91v11q0 67 45 99.5t140 32.5q154 0 205 -2l-11 -51q-45 2 -197 2q-70 0 -98 -18.5
t-28 -63.5q0 -41 19 -61t76 -26z" />
    <glyph glyph-name="t" unicode="t" 
d="M72 174v470l58 11v-141h211l-11 -50h-200v-289q0 -75 24 -99.5t98 -24.5h77l-11 -51h-66q-104 0 -142 35.5t-38 138.5z" />
    <glyph glyph-name="u" unicode="u" horiz-adv-x="566" 
d="M283 -16q-120 0 -165.5 44.5t-45.5 142.5v343h58v-337q0 -39 5 -62t20.5 -43t46.5 -28.5t81 -8.5t81 8t46.5 27.5t20.5 43t5 63.5v337h58v-343q0 -95 -45.5 -141t-165.5 -46z" />
    <glyph glyph-name="v" unicode="v" horiz-adv-x="509" 
d="M19 514h64l173 -454l174 454h60l-202 -514h-67z" />
    <glyph glyph-name="w" unicode="w" horiz-adv-x="739" 
d="M497 0l-128 439l-127 -439h-62l-156 514h60l128 -449l129 449h60l128 -451l130 451h56l-156 -514h-62z" />
    <glyph glyph-name="x" unicode="x" horiz-adv-x="496" 
d="M41 514h66l143 -200l143 200h64l-176 -240l200 -274h-66l-168 234l-169 -234h-63l201 274z" />
    <glyph glyph-name="y" unicode="y" horiz-adv-x="566" 
d="M103 -174l11 51q44 -3 150 -3q97 0 134 34t37 127v40q-39 -57 -160 -57q-113 0 -158 43t-45 143v310h58v-303q0 -39 4.5 -62t19.5 -43t45.5 -28.5t79.5 -8.5q94 0 125.5 32.5t31.5 113.5v299h58v-479q0 -117 -52 -164.5t-177 -47.5q-110 0 -162 3z" />
    <glyph glyph-name="z" unicode="z" horiz-adv-x="484" 
d="M435 469l-325 -418h333l-11 -51h-393v45l325 419h-316l11 50h376v-45z" />
    <glyph glyph-name="braceleft" unicode="{" horiz-adv-x="367" 
d="M299 712h53l-12 -51h-42q-69 0 -92 -23t-23 -79v-175q0 -50 -14 -76.5t-45 -39.5q31 -13 45 -39t14 -76v-175q0 -56 23 -79t92 -23h54l-12 -51h-41q-97 0 -135 36t-38 111v178q0 52 -18 72.5t-67 20.5h-21v50h21q49 0 67 21t18 73v178q0 74 38 110.5t135 36.5z" />
    <glyph glyph-name="bar" unicode="|" horiz-adv-x="207" 
d="M75 -175v918h57v-918h-57z" />
    <glyph glyph-name="braceright" unicode="}" horiz-adv-x="367" 
d="M68 -175h-53l12 51h42q69 0 92 23t23 79v176q0 50 14 76.5t45 39.5q-31 13 -45 39t-14 76v174q0 56 -23 79t-92 23h-54l12 51h41q97 0 135 -36.5t38 -110.5v-177q0 -52 18 -72.5t67 -20.5h21v-50h-21q-49 0 -67 -21t-18 -73v-179q0 -75 -38 -111t-135 -36z" />
    <glyph glyph-name="asciitilde" unicode="~" horiz-adv-x="595" 
d="M463 416h52v-27q0 -123 -95 -123q-46 0 -118 44l-15 9q-42 25 -62.5 34.5t-43.5 9.5q-48 0 -48 -69v-27h-52v27q0 123 95 123q46 0 118 -44l15 -9q42 -25 62.5 -34.5t43.5 -9.5q48 0 48 69v27z" />
    <glyph glyph-name="uni00A0" unicode="&#xa0;" horiz-adv-x="250" 
 />
    <glyph glyph-name="exclamdown" unicode="&#xa1;" horiz-adv-x="211" 
d="M82 336h46l6 -184q0 -15 0.5 -83t0.5 -85v-184h-60v184q0 17 0.5 85t0.5 83zM60 472q0 47 45 47t45 -47t-45 -47t-45 47z" />
    <glyph glyph-name="cent" unicode="&#xa2;" horiz-adv-x="595" 
d="M350 613v-97h5q69 0 127 -2l-11 -51q-54 2 -117 2h-4v-416h6q98 0 129 2l-11 -51q-62 -2 -124 -2v-94h-48v96q-103 6 -143.5 60t-40.5 169v58q0 113 43 166t141 61v99h48zM177 287v-58q0 -92 27 -132.5t98 -46.5v414q-72 -6 -98.5 -44.5t-26.5 -132.5z" />
    <glyph glyph-name="sterling" unicode="&#xa3;" horiz-adv-x="595" 
d="M512 53l-11 -53h-445l12 53h71v276h-83l11 51h72v51q0 139 58.5 195t199.5 56q57 0 109 -3l-10 -53q-29 3 -101 3q-117 0 -158 -40.5t-41 -161.5v-47h240l-11 -51h-229v-276h316z" />
    <glyph glyph-name="currency" unicode="&#xa4;" horiz-adv-x="595" 
d="M137 354q0 -68 43.5 -113t116.5 -45t116.5 45t43.5 113t-43.5 113t-116.5 45t-116.5 -45t-43.5 -113zM506 354q0 -71 -44 -128l68 -67l-35 -35l-69 67q-57 -44 -129 -44t-129 44l-68 -67l-36 35l68 67q-44 57 -44 128t44 128l-68 67l36 35l68 -67q55 44 129 44t129 -44
l69 67l35 -35l-68 -67q44 -57 44 -128z" />
    <glyph glyph-name="yen" unicode="&#xa5;" horiz-adv-x="595" 
d="M93 304v48h151l-196 328h65l186 -318l187 318h62l-199 -328h154v-48h-176v-96h176v-49h-176v-159h-59v159h-175v49h175v96h-175z" />
    <glyph glyph-name="brokenbar" unicode="&#xa6;" horiz-adv-x="207" 
d="M132 437h-57v306h57v-306zM132 131v-306h-57v306h57z" />
    <glyph glyph-name="section" unicode="&#xa7;" horiz-adv-x="554" 
d="M233 449l79 -7q98 -9 141 -47t43 -118v-10q0 -102 -87 -145q82 -34 82 -132v-8q0 -83 -50.5 -124.5t-164.5 -41.5q-168 0 -218 2l11 51q45 -2 208 -2q90 0 123.5 28t33.5 88q0 51 -26.5 77t-95.5 32l-78 7q-100 8 -142 46.5t-42 116.5v10q0 56 24 93.5t65 52.5
q-85 32 -85 131v11q0 76 49 115.5t161 39.5q136 0 212 -3l-9 -51q-57 3 -204 3q-91 0 -122 -24.5t-31 -82.5q0 -54 24.5 -78t98.5 -30zM307 389l-54 5q-16 1 -30 1q-117 0 -117 -124q0 -62 29 -88t105 -32l47 -4q34 -2 37 -2q116 0 116 124q0 63 -28.5 88.5t-104.5 31.5z
" />
    <glyph glyph-name="dieresis" unicode="&#xa8;" horiz-adv-x="500" 
d="M215 657q0 -42 -41 -42t-41 42t41 42t41 -42zM367 657q0 -23 -10 -32.5t-31 -9.5q-41 0 -41 42q0 23 10 32.5t31 9.5q41 0 41 -42z" />
    <glyph glyph-name="copyright" unicode="&#xa9;" horiz-adv-x="819" 
d="M527 574l-10 -47q-27 1 -77 1q-75 0 -103.5 -29.5t-28.5 -118.5v-47q0 -89 29 -119t115 -30q52 0 75 1l-11 -47q-40 -2 -74 -2q-105 0 -146.5 46.5t-41.5 149.5v48q0 105 42.5 150.5t141.5 45.5q41 0 89 -2zM772 356q0 -194 -79.5 -275t-282.5 -81q-202 0 -282.5 80.5
t-80.5 275.5q0 194 80 275t283 81t282.5 -80t79.5 -276zM723 356q0 90 -13.5 146t-49 94.5t-95 54t-155.5 15.5t-156 -15t-95.5 -53.5t-48.5 -94.5t-13 -147t13 -147t48.5 -94t95.5 -53.5t156 -15.5t155.5 15.5t95 53.5t49 94.5t13.5 146.5z" />
    <glyph glyph-name="ordfeminine" unicode="&#xaa;" horiz-adv-x="439" 
d="M94 439v-11q0 -45 23 -62t79 -17h130v89q0 47 -28 65t-88 18h-11q-61 0 -83 -18.5t-22 -63.5zM376 579v-227q0 -27 -9.5 -37t-35.5 -10h-136q-78 0 -114 28t-36 95v12q0 65 36 95t120 30q88 0 125 -39v49q0 53 -23.5 73.5t-95.5 20.5q-54 0 -126 -2l10 45q56 2 116 2
q91 0 130 -30.5t39 -104.5z" />
    <glyph glyph-name="guillemotleft" unicode="&#xab;" horiz-adv-x="498" 
d="M33 240v53l199 178v-65l-153 -140l153 -139v-66zM252 240v53l199 178v-65l-153 -140l153 -139v-66z" />
    <glyph glyph-name="logicalnot" unicode="&#xac;" horiz-adv-x="595" 
d="M425 407h-360v52h417v-242h-57v190z" />
    <glyph glyph-name="uni00AD" unicode="&#xad;" horiz-adv-x="359" 
d="M313 267h-278l11 53h278z" />
    <glyph glyph-name="registered" unicode="&#xae;" horiz-adv-x="584" 
d="M547 484q0 -138 -59.5 -194t-195.5 -56t-195 56t-59 194t59 194t195 56t195.5 -56t59.5 -194zM84 484q0 -119 45 -163.5t163 -44.5q119 0 164 44.5t45 163.5t-45 163.5t-164 44.5q-118 0 -163 -44.5t-45 -163.5zM394 539v-9q0 -56 -46 -72l58 -101h-52l-51 94h-59v-94
h-47v263h105q48 0 70 -19t22 -62zM348 530v7q0 26 -11 35t-42 9h-52v-91h52q31 0 42 8t11 32z" />
    <glyph glyph-name="overscore" unicode="&#xaf;" horiz-adv-x="500" 
d="M119 626v48h261v-48h-261z" />
    <glyph glyph-name="degree" unicode="&#xb0;" horiz-adv-x="352" 
d="M328 598q0 -70 -39 -107t-113 -37t-112.5 37t-38.5 107t38.5 107t112.5 37t113 -37t39 -107zM278 598q0 52 -24 76.5t-78 24.5t-78 -24.5t-24 -76.5t24 -76.5t78 -24.5t78 24.5t24 76.5z" />
    <glyph glyph-name="plusminus" unicode="&#xb1;" horiz-adv-x="595" 
d="M89 1v52h417v-52h-417zM326 562v-190h180v-52h-180v-190h-57v190h-180v52h180v190h57z" />
    <glyph glyph-name="uni00B2" unicode="&#xb2;" 
d="M225 473l-67 -23q-33 -12 -43.5 -29.5t-10.5 -61.5v-25h214l-9 -46h-255v68q0 60 18.5 89.5t70.5 47.5l59 20q38 12 50.5 25.5t12.5 42.5q0 31 -17.5 43t-62.5 12q-53 0 -123 -2l9 45q26 2 112 2q69 0 100.5 -22.5t31.5 -72.5v-8q0 -42 -20.5 -65.5t-69.5 -39.5z" />
    <glyph glyph-name="uni00B3" unicode="&#xb3;" 
d="M309 586v-6q0 -69 -59 -83q32 -7 51 -31t19 -62v-6q0 -57 -36.5 -84t-119.5 -27q-81 0 -113 2l9 46q34 -2 107 -2q57 0 79 14t22 52v5q0 39 -20 53.5t-76 14.5h-89l9 44h76q53 0 72 14.5t19 46.5v6q0 30 -18 41t-64 11q-72 0 -115 -1l9 46q40 1 108 1t99 -23t31 -72z" />
    <glyph glyph-name="acute" unicode="&#xb4;" horiz-adv-x="500" 
d="M155 599l119 126h71l-129 -126h-61z" />
    <glyph glyph-name="uni00B5" unicode="&#xb5;" horiz-adv-x="567" 
d="M433 0h-145q-123 0 -159 54v-229h-57v689h58v-313q0 -84 30.5 -117t127.5 -33h149v463h58v-457q0 -34 -12 -45.5t-50 -11.5z" />
    <glyph glyph-name="paragraph" unicode="&#xb6;" horiz-adv-x="642" 
d="M250 712h312v-887h-53v841h-138v-841h-53v465h-68q-110 0 -164.5 54t-54.5 152v8q0 208 219 208z" />
    <glyph glyph-name="middot" unicode="&#xb7;" horiz-adv-x="174" 
d="M132 341q0 -47 -45 -47t-45 47q0 48 45 48t45 -48z" />
    <glyph glyph-name="cedilla" unicode="&#xb8;" horiz-adv-x="500" 
d="M293 -118q0 21 -11.5 29.5t-42.5 8.5q-33 0 -56 -1l11 41q27 1 52 1q52 0 75.5 -17.5t23.5 -57.5v-7q0 -42 -24 -60t-81 -18q-48 0 -87 3l12 41q42 -2 74 -2q31 0 42.5 8.5t11.5 30.5z" />
    <glyph glyph-name="uni00B9" unicode="&#xb9;" 
d="M216 334h100l-9 -46h-241l9 46h91v301h-100l10 45h140v-346z" />
    <glyph glyph-name="ordmasculine" unicode="&#xba;" horiz-adv-x="458" 
d="M229 344q74 0 101 29t27 105v62q0 76 -27 105t-101 29t-101 -29t-27 -105v-62q0 -76 27 -105t101 -29zM229 299q-95 0 -138.5 41t-43.5 137v64q0 95 43.5 136.5t138.5 41.5t138.5 -41.5t43.5 -136.5v-64q0 -96 -43.5 -137t-138.5 -41z" />
    <glyph glyph-name="guillemotright" unicode="&#xbb;" horiz-adv-x="498" 
d="M465 293v-53l-199 -179v66l152 139l-152 140v65zM246 293v-53l-199 -179v66l152 139l-152 140v65z" />
    <glyph glyph-name="onequarter" unicode="&#xbc;" horiz-adv-x="839" 
d="M188 0l425 680h57l-425 -680h-57zM699 392l-148 -258h154v116l49 8v-124h61l-10 -44h-51v-90h-49v90h-208v40l149 262h53zM216 334h100l-9 -46h-241l9 46h91v301h-100l10 45h140v-346z" />
    <glyph glyph-name="onehalf" unicode="&#xbd;" horiz-adv-x="839" 
d="M177 0l425 680h57l-425 -680h-57zM692 185l-67 -23q-33 -12 -43.5 -29.5t-10.5 -61.5v-25h214l-9 -46h-255v68q0 60 18.5 89.5t70.5 47.5l59 20q38 12 50.5 25.5t12.5 42.5q0 31 -17.5 43t-62.5 12q-53 0 -123 -2l9 45q26 2 112 2q69 0 100.5 -22.5t31.5 -72.5v-8
q0 -42 -20.5 -65.5t-69.5 -39.5zM216 334h100l-9 -46h-241l9 46h91v301h-100l10 45h140v-346z" />
    <glyph glyph-name="threequarters" unicode="&#xbe;" horiz-adv-x="839" 
d="M194 0l425 680h57l-425 -680h-57zM699 392l-148 -258h154v116l49 8v-124h61l-10 -44h-51v-90h-49v90h-208v40l149 262h53zM309 586v-6q0 -69 -59 -83q32 -7 51 -31t19 -62v-6q0 -57 -36.5 -84t-119.5 -27q-81 0 -113 2l9 46q34 -2 107 -2q57 0 79 14t22 52v5
q0 39 -20 53.5t-76 14.5h-89l9 44h76q53 0 72 14.5t19 46.5v6q0 30 -18 41t-64 11q-72 0 -115 -1l9 46q40 1 108 1t99 -23t31 -72z" />
    <glyph glyph-name="questiondown" unicode="&#xbf;" horiz-adv-x="455" 
d="M235 134l-53 -27q-44 -20 -60 -47.5t-16 -81.5q0 -72 31.5 -100t122.5 -28q13 0 34 0.5t59.5 1t77.5 0.5l-10 -51q-59 -2 -160 -2q-116 0 -165.5 40t-49.5 129v18q0 61 24 98.5t81 66.5l56 27q42 21 53 44t11 77v38h58v-38q0 -68 -19 -103t-75 -62zM255 472q0 47 45 47
t45 -47t-45 -47t-45 47z" />
    <glyph glyph-name="Agrave" unicode="&#xc0;" horiz-adv-x="657" 
d="M572 0l-86 228h-319l-85 -228h-60l276 712h62l275 -712h-63zM326 650l-140 -369h280zM189 892h76l117 -119h-63z" />
    <glyph glyph-name="Aacute" unicode="&#xc1;" horiz-adv-x="657" 
d="M572 0l-86 228h-319l-85 -228h-60l276 712h62l275 -712h-63zM326 650l-140 -369h280zM397 892h76l-130 -119h-63z" />
    <glyph glyph-name="Acircumflex" unicode="&#xc2;" horiz-adv-x="657" 
d="M572 0l-86 228h-319l-85 -228h-60l276 712h62l275 -712h-63zM326 650l-140 -369h280zM417 773l-89 79l-89 -79h-63l121 115h62l121 -115h-63z" />
    <glyph glyph-name="Atilde" unicode="&#xc3;" horiz-adv-x="657" 
d="M572 0l-86 228h-319l-85 -228h-60l276 712h62l275 -712h-63zM326 650l-140 -369h280zM334 793l-28 15q-35 19 -56 19q-32 0 -32 -48v-9h-45v9q0 96 73 96q35 0 77 -23l27 -15q35 -19 56 -19q32 0 32 48v9h45v-9q0 -96 -73 -96q-29 0 -76 23z" />
    <glyph glyph-name="Adieresis" unicode="&#xc4;" horiz-adv-x="657" 
d="M572 0l-86 228h-319l-85 -228h-60l276 712h62l275 -712h-63zM326 650l-140 -369h280zM292 816q0 -43 -42 -43t-42 43t42 43t42 -43zM448 816q0 -43 -42 -43q-41 0 -41 43t41 43q42 0 42 -43z" />
    <glyph glyph-name="Aring" unicode="&#xc5;" horiz-adv-x="657" 
d="M210 792q0 54 30.5 83t87.5 29t87.5 -29t30.5 -83q0 -86 -76 -107l265 -685h-63l-86 228h-319l-85 -228h-60l265 684q-77 20 -77 108zM326 650l-140 -369h280zM399 792q0 39 -16.5 55t-54.5 16t-54.5 -16t-16.5 -55t16.5 -55t54.5 -16t54.5 16t16.5 55z" />
    <glyph glyph-name="AE" unicode="&#xc6;" horiz-adv-x="957" 
d="M231 286h214v361h-5zM445 233h-244l-134 -233h-62l417 712h480l-12 -54h-386v-265h373l-12 -54h-361v-285h398l-12 -54h-445v233z" />
    <glyph glyph-name="Ccedilla" unicode="&#xc7;" horiz-adv-x="565" 
d="M361 52q58 0 154 2l-12 -54q-82 -2 -142 -2q-170 0 -235 66t-65 232v121q0 166 65.5 231.5t235.5 65.5q105 0 154 -2l-12 -54q-38 2 -143 2q-76 0 -121.5 -11t-72 -41t-36 -74t-9.5 -117v-121q0 -144 49 -194t190 -50zM309 -82q-39 0 -58 -1l11 43q15 1 56 1q53 0 76 -18
t23 -58v-7q0 -40 -24.5 -58.5t-80.5 -18.5q-71 0 -91 3l12 43q30 -2 76 -2q31 0 42 7.5t11 29.5q0 21 -11 28.5t-42 7.5z" />
    <glyph glyph-name="Egrave" unicode="&#xc8;" horiz-adv-x="593" 
d="M81 712h457l-12 -54h-386v-265h373l-12 -54h-361v-285h398l-12 -54h-445v712zM192 892h76l117 -119h-63z" />
    <glyph glyph-name="Eacute" unicode="&#xc9;" horiz-adv-x="593" 
d="M81 712h457l-12 -54h-386v-265h373l-12 -54h-361v-285h398l-12 -54h-445v712zM358 892h76l-130 -119h-63z" />
    <glyph glyph-name="Ecircumflex" unicode="&#xca;" horiz-adv-x="593" 
d="M81 712h457l-12 -54h-386v-265h373l-12 -54h-361v-285h398l-12 -54h-445v712zM396 773l-89 79l-89 -79h-63l121 115h62l121 -115h-63z" />
    <glyph glyph-name="Edieresis" unicode="&#xcb;" horiz-adv-x="593" 
d="M81 712h457l-12 -54h-386v-265h373l-12 -54h-361v-285h398l-12 -54h-445v712zM268 816q0 -43 -42 -43t-42 43t42 43t42 -43zM424 816q0 -43 -42 -43q-41 0 -41 43t41 43q42 0 42 -43z" />
    <glyph glyph-name="Igrave" unicode="&#xcc;" horiz-adv-x="221" 
d="M81 712h59v-712h-59v712zM-32 892h76l117 -119h-63z" />
    <glyph glyph-name="Iacute" unicode="&#xcd;" horiz-adv-x="221" 
d="M81 712h59v-712h-59v712zM187 892h76l-130 -119h-63z" />
    <glyph glyph-name="Icircumflex" unicode="&#xce;" horiz-adv-x="221" 
d="M81 712h59v-712h-59v712zM200 773l-89 79l-89 -79h-63l121 115h62l121 -115h-63z" />
    <glyph glyph-name="Idieresis" unicode="&#xcf;" horiz-adv-x="221" 
d="M81 712h59v-712h-59v712zM75 816q0 -43 -42 -43t-42 43t42 43t42 -43zM231 816q0 -43 -42 -43q-41 0 -41 43t41 43q42 0 42 -43z" />
    <glyph glyph-name="Eth" unicode="&#xd0;" horiz-adv-x="696" 
d="M101 0v334h-71v50h71v328h227q168 0 237.5 -74.5t69.5 -241.5v-79q0 -168 -69.5 -242.5t-237.5 -74.5h-227zM160 658v-274h189v-50h-189v-280h168q140 0 193 58t53 207v75q0 148 -53 206t-193 58h-168z" />
    <glyph glyph-name="Ntilde" unicode="&#xd1;" horiz-adv-x="699" 
d="M81 712h54l424 -615v615h59v-712h-55l-423 613v-613h-59v712zM357 793l-28 15q-35 19 -56 19q-32 0 -32 -48v-9h-45v9q0 96 73 96q35 0 77 -23l27 -15q35 -19 56 -19q32 0 32 48v9h45v-9q0 -96 -73 -96q-29 0 -76 23z" />
    <glyph glyph-name="Ograve" unicode="&#xd2;" horiz-adv-x="699" 
d="M349 35q129 0 178.5 53.5t49.5 195.5v145q0 141 -50 195t-178 54q-129 0 -178 -53.5t-49 -195.5v-145q0 -140 50 -194.5t177 -54.5zM349 -18q-158 0 -223 70.5t-65 230.5v147q0 157 65 229t223 72q159 0 224 -70.5t65 -230.5v-147q0 -157 -65 -229t-224 -72zM234 892h76
l117 -119h-63z" />
    <glyph glyph-name="Oacute" unicode="&#xd3;" horiz-adv-x="699" 
d="M349 35q129 0 178.5 53.5t49.5 195.5v145q0 141 -50 195t-178 54q-129 0 -178 -53.5t-49 -195.5v-145q0 -140 50 -194.5t177 -54.5zM349 -18q-158 0 -223 70.5t-65 230.5v147q0 157 65 229t223 72q159 0 224 -70.5t65 -230.5v-147q0 -157 -65 -229t-224 -72zM386 892h76
l-130 -119h-63z" />
    <glyph glyph-name="Ocircumflex" unicode="&#xd4;" horiz-adv-x="699" 
d="M349 35q129 0 178.5 53.5t49.5 195.5v145q0 141 -50 195t-178 54q-129 0 -178 -53.5t-49 -195.5v-145q0 -140 50 -194.5t177 -54.5zM349 -18q-158 0 -223 70.5t-65 230.5v147q0 157 65 229t223 72q159 0 224 -70.5t65 -230.5v-147q0 -157 -65 -229t-224 -72zM438 773
l-89 79l-89 -79h-63l121 115h62l121 -115h-63z" />
    <glyph glyph-name="Otilde" unicode="&#xd5;" horiz-adv-x="699" 
d="M349 35q129 0 178.5 53.5t49.5 195.5v145q0 141 -50 195t-178 54q-129 0 -178 -53.5t-49 -195.5v-145q0 -140 50 -194.5t177 -54.5zM349 -18q-158 0 -223 70.5t-65 230.5v147q0 157 65 229t223 72q159 0 224 -70.5t65 -230.5v-147q0 -157 -65 -229t-224 -72zM355 793
l-28 15q-35 19 -56 19q-32 0 -32 -48v-9h-45v9q0 96 73 96q35 0 77 -23l27 -15q35 -19 56 -19q32 0 32 48v9h45v-9q0 -96 -73 -96q-29 0 -76 23z" />
    <glyph glyph-name="Odieresis" unicode="&#xd6;" horiz-adv-x="699" 
d="M349 35q129 0 178.5 53.5t49.5 195.5v145q0 141 -50 195t-178 54q-129 0 -178 -53.5t-49 -195.5v-145q0 -140 50 -194.5t177 -54.5zM349 -18q-158 0 -223 70.5t-65 230.5v147q0 157 65 229t223 72q159 0 224 -70.5t65 -230.5v-147q0 -157 -65 -229t-224 -72zM313 816
q0 -43 -42 -43t-42 43t42 43t42 -43zM469 816q0 -43 -42 -43q-41 0 -41 43t41 43q42 0 42 -43z" />
    <glyph glyph-name="multiply" unicode="&#xd7;" horiz-adv-x="595" 
d="M481 486l-145 -145l147 -145l-40 -40l-146 146l-145 -146l-40 39l147 146l-145 146l40 38l144 -144l143 143z" />
    <glyph glyph-name="Oslash" unicode="&#xd8;" horiz-adv-x="699" 
d="M349 -18q-94 0 -158 26l-51 -97h-56l64 121q-47 35 -67 95.5t-20 155.5v147q0 157 65 229t223 72q97 0 154 -25l51 96h56l-63 -119q91 -66 91 -253v-147q0 -157 -65 -229t-224 -72zM349 35q129 0 178.5 53.5t49.5 195.5v145q0 148 -57 202l-303 -574q47 -22 132 -22z
M122 429v-145q0 -146 53 -199l303 573q-48 20 -129 20q-129 0 -178 -53.5t-49 -195.5z" />
    <glyph glyph-name="Ugrave" unicode="&#xd9;" horiz-adv-x="670" 
d="M335 -18q-150 0 -205 65.5t-55 217.5v447h59v-447q0 -134 43.5 -182t157.5 -48q118 0 159.5 48.5t41.5 181.5v447h59v-447q0 -154 -57.5 -218.5t-202.5 -64.5zM210 892h76l117 -119h-63z" />
    <glyph glyph-name="Uacute" unicode="&#xda;" horiz-adv-x="670" 
d="M335 -18q-150 0 -205 65.5t-55 217.5v447h59v-447q0 -134 43.5 -182t157.5 -48q118 0 159.5 48.5t41.5 181.5v447h59v-447q0 -154 -57.5 -218.5t-202.5 -64.5zM378 892h76l-130 -119h-63z" />
    <glyph glyph-name="Ucircumflex" unicode="&#xdb;" horiz-adv-x="670" 
d="M335 -18q-150 0 -205 65.5t-55 217.5v447h59v-447q0 -134 43.5 -182t157.5 -48q118 0 159.5 48.5t41.5 181.5v447h59v-447q0 -154 -57.5 -218.5t-202.5 -64.5zM423 773l-89 79l-89 -79h-63l121 115h62l121 -115h-63z" />
    <glyph glyph-name="Udieresis" unicode="&#xdc;" horiz-adv-x="670" 
d="M335 -18q-150 0 -205 65.5t-55 217.5v447h59v-447q0 -134 43.5 -182t157.5 -48q118 0 159.5 48.5t41.5 181.5v447h59v-447q0 -154 -57.5 -218.5t-202.5 -64.5zM299 816q0 -43 -42 -43t-42 43t42 43t42 -43zM455 816q0 -43 -42 -43q-41 0 -41 43t41 43q42 0 42 -43z" />
    <glyph glyph-name="Yacute" unicode="&#xdd;" horiz-adv-x="618" 
d="M16 712h66l230 -353l227 353h63l-262 -404v-308h-59v308zM353 892h76l-130 -119h-63z" />
    <glyph glyph-name="Thorn" unicode="&#xde;" horiz-adv-x="602" 
d="M140 712v-139h178q133 0 189 -44.5t56 -150.5v-24q0 -105 -57 -150t-188 -45h-178v-159h-59v712h59zM504 359v14q0 86 -40 116t-146 30h-178v-306h178q107 0 146.5 30t39.5 116z" />
    <glyph glyph-name="germandbls" unicode="&#xdf;" horiz-adv-x="555" 
d="M484 572v-8q0 -58 -26.5 -98t-70.5 -55q128 -27 128 -184v-16q0 -112 -50.5 -162.5t-164.5 -50.5q-42 0 -68 2l11 51q30 -2 60 -2q83 0 118.5 35t35.5 127v15q0 81 -35.5 118t-122.5 37h-62l10 52h48q70 0 101.5 32.5t31.5 97.5v8q0 129 -143 129q-80 0 -117.5 -41
t-37.5 -137v-522h-58v522q0 228 213 228q199 0 199 -178z" />
    <glyph glyph-name="agrave" unicode="&#xe0;" horiz-adv-x="538" 
d="M103 167v-13q0 -55 29.5 -79t107.5 -24h170v120q0 60 -39 83.5t-119 23.5h-13q-75 0 -105.5 -24.5t-30.5 -86.5zM466 344v-287q0 -34 -12.5 -45.5t-49.5 -11.5h-164q-103 0 -148 36t-45 117v14q0 84 45.5 122t147.5 38q130 0 170 -49v60q0 73 -33 100t-130 27
q-108 0 -152 -3l11 52q74 2 141 2q119 0 169 -39.5t50 -132.5zM224 725l119 -126h-61l-129 126h71z" />
    <glyph glyph-name="aacute" unicode="&#xe1;" horiz-adv-x="538" 
d="M103 167v-13q0 -55 29.5 -79t107.5 -24h170v120q0 60 -39 83.5t-119 23.5h-13q-75 0 -105.5 -24.5t-30.5 -86.5zM466 344v-287q0 -34 -12.5 -45.5t-49.5 -11.5h-164q-103 0 -148 36t-45 117v14q0 84 45.5 122t147.5 38q130 0 170 -49v60q0 73 -33 100t-130 27
q-108 0 -152 -3l11 52q74 2 141 2q119 0 169 -39.5t50 -132.5zM201 599l119 126h71l-129 -126h-61z" />
    <glyph glyph-name="acircumflex" unicode="&#xe2;" horiz-adv-x="538" 
d="M103 167v-13q0 -55 29.5 -79t107.5 -24h170v120q0 60 -39 83.5t-119 23.5h-13q-75 0 -105.5 -24.5t-30.5 -86.5zM466 344v-287q0 -34 -12.5 -45.5t-49.5 -11.5h-164q-103 0 -148 36t-45 117v14q0 84 45.5 122t147.5 38q130 0 170 -49v60q0 73 -33 100t-130 27
q-108 0 -152 -3l11 52q74 2 141 2q119 0 169 -39.5t50 -132.5zM238 723h61l112 -124h-59l-84 86l-83 -86h-59z" />
    <glyph glyph-name="atilde" unicode="&#xe3;" horiz-adv-x="538" 
d="M103 167v-13q0 -55 29.5 -79t107.5 -24h170v120q0 60 -39 83.5t-119 23.5h-13q-75 0 -105.5 -24.5t-30.5 -86.5zM466 344v-287q0 -34 -12.5 -45.5t-49.5 -11.5h-164q-103 0 -148 36t-45 117v14q0 84 45.5 122t147.5 38q130 0 170 -49v60q0 73 -33 100t-130 27
q-108 0 -152 -3l11 52q74 2 141 2q119 0 169 -39.5t50 -132.5zM269 619l-32 18q-27 17 -50 17q-32 0 -32 -50v-7h-44v8q0 95 75 95q34 0 71 -22l32 -18q27 -17 51 -17q32 0 32 50v7h43v-8q0 -95 -74 -95q-35 0 -72 22z" />
    <glyph glyph-name="adieresis" unicode="&#xe4;" horiz-adv-x="538" 
d="M103 167v-13q0 -55 29.5 -79t107.5 -24h170v120q0 60 -39 83.5t-119 23.5h-13q-75 0 -105.5 -24.5t-30.5 -86.5zM466 344v-287q0 -34 -12.5 -45.5t-49.5 -11.5h-164q-103 0 -148 36t-45 117v14q0 84 45.5 122t147.5 38q130 0 170 -49v60q0 73 -33 100t-130 27
q-108 0 -152 -3l11 52q74 2 141 2q119 0 169 -39.5t50 -132.5zM235 657q0 -42 -41 -42t-41 42t41 42t41 -42zM387 657q0 -23 -10 -32.5t-31 -9.5q-41 0 -41 42q0 23 10 32.5t31 9.5q41 0 41 -42z" />
    <glyph glyph-name="aring" unicode="&#xe5;" horiz-adv-x="538" 
d="M103 167v-13q0 -55 29.5 -79t107.5 -24h170v120q0 60 -39 83.5t-119 23.5h-13q-75 0 -105.5 -24.5t-30.5 -86.5zM466 344v-287q0 -34 -12.5 -45.5t-49.5 -11.5h-164q-103 0 -148 36t-45 117v14q0 84 45.5 122t147.5 38q130 0 170 -49v60q0 73 -33 100t-130 27
q-108 0 -152 -3l11 52q74 2 141 2q119 0 169 -39.5t50 -132.5zM150 680q0 54 30.5 83t87.5 29t87.5 -29t30.5 -83t-30.5 -83t-87.5 -29t-87.5 29t-30.5 83zM339 680q0 39 -16.5 55t-54.5 16t-54.5 -16t-16.5 -55t16.5 -55t54.5 -16t54.5 16t16.5 55z" />
    <glyph glyph-name="ae" unicode="&#xe6;" horiz-adv-x="889" 
d="M627 530q105 0 157.5 -46.5t52.5 -153.5v-9q0 -40 -11 -51t-43 -11h-317q0 -129 33.5 -169.5t138.5 -40.5q103 0 162 2l-11 -51q-104 -2 -150 -2q-91 0 -139.5 25t-64.5 79q-37 -102 -193 -102h-9q-93 0 -139.5 36t-46.5 115v8q0 80 46 115t147 35h170v27q0 82 -37 105.5
t-142 23.5q-93 0 -136 -3l11 52q88 2 141 2q84 0 129 -17t66 -59q44 90 185 90zM231 51h10q92 0 130.5 36t38.5 140v33h-169q-78 0 -108 -22t-30 -78v-8q0 -54 30.5 -77.5t97.5 -23.5zM627 481q-88 0 -124.5 -37t-36.5 -136h317v18q0 89 -36 122t-120 33z" />
    <glyph glyph-name="ccedilla" unicode="&#xe7;" horiz-adv-x="464" 
d="M279 49q63 0 137 2l-11 -51q-62 -2 -126 -2q-127 0 -177 53.5t-50 177.5v56q0 127 52 179t175 52q99 0 136 -2l-11 -51q-34 2 -125 2q-98 0 -133 -36t-35 -144v-56q0 -103 35.5 -141.5t132.5 -38.5zM287 -118q0 21 -11.5 29.5t-42.5 8.5q-33 0 -56 -1l11 41q27 1 52 1
q52 0 75.5 -17.5t23.5 -57.5v-7q0 -42 -24 -60t-81 -18q-48 0 -87 3l12 41q42 -2 74 -2q31 0 42.5 8.5t11.5 30.5z" />
    <glyph glyph-name="egrave" unicode="&#xe8;" horiz-adv-x="531" 
d="M426 242h-316q0 -114 32.5 -153.5t130.5 -39.5q47 0 169 2l-11 -51q-90 -2 -158 -2q-126 0 -173.5 56t-47.5 179v63q0 125 51.5 179.5t164.5 54.5q111 0 161 -48t50 -154v-24q0 -40 -10.5 -51t-42.5 -11zM267 481q-88 0 -122.5 -38.5t-34.5 -151.5h315v34q0 88 -36 122
t-122 34zM232 725l119 -126h-61l-129 126h71z" />
    <glyph glyph-name="eacute" unicode="&#xe9;" horiz-adv-x="531" 
d="M426 242h-316q0 -114 32.5 -153.5t130.5 -39.5q47 0 169 2l-11 -51q-90 -2 -158 -2q-126 0 -173.5 56t-47.5 179v63q0 125 51.5 179.5t164.5 54.5q111 0 161 -48t50 -154v-24q0 -40 -10.5 -51t-42.5 -11zM267 481q-88 0 -122.5 -38.5t-34.5 -151.5h315v34q0 88 -36 122
t-122 34zM203 599l119 126h71l-129 -126h-61z" />
    <glyph glyph-name="ecircumflex" unicode="&#xea;" horiz-adv-x="531" 
d="M426 242h-316q0 -114 32.5 -153.5t130.5 -39.5q47 0 169 2l-11 -51q-90 -2 -158 -2q-126 0 -173.5 56t-47.5 179v63q0 125 51.5 179.5t164.5 54.5q111 0 161 -48t50 -154v-24q0 -40 -10.5 -51t-42.5 -11zM267 481q-88 0 -122.5 -38.5t-34.5 -151.5h315v34q0 88 -36 122
t-122 34zM237 723h61l112 -124h-59l-84 86l-83 -86h-59z" />
    <glyph glyph-name="edieresis" unicode="&#xeb;" horiz-adv-x="531" 
d="M426 242h-316q0 -114 32.5 -153.5t130.5 -39.5q47 0 169 2l-11 -51q-90 -2 -158 -2q-126 0 -173.5 56t-47.5 179v63q0 125 51.5 179.5t164.5 54.5q111 0 161 -48t50 -154v-24q0 -40 -10.5 -51t-42.5 -11zM267 481q-88 0 -122.5 -38.5t-34.5 -151.5h315v34q0 88 -36 122
t-122 34zM233 657q0 -42 -41 -42t-41 42t41 42t41 -42zM385 657q0 -23 -10 -32.5t-31 -9.5q-41 0 -41 42q0 23 10 32.5t31 9.5q41 0 41 -42z" />
    <glyph glyph-name="igrave" unicode="&#xec;" horiz-adv-x="202" 
d="M72 0v514h58v-514h-58zM25 725l119 -126h-61l-129 126h71z" />
    <glyph glyph-name="iacute" unicode="&#xed;" horiz-adv-x="202" 
d="M72 0v514h58v-514h-58zM60 599l119 126h71l-129 -126h-61z" />
    <glyph glyph-name="icircumflex" unicode="&#xee;" horiz-adv-x="202" 
d="M72 0v514h58v-514h-58zM72 723h61l112 -124h-59l-84 86l-83 -86h-59z" />
    <glyph glyph-name="idieresis" unicode="&#xef;" horiz-adv-x="202" 
d="M72 0v514h58v-514h-58zM67 657q0 -42 -41 -42t-41 42t41 42t41 -42zM219 657q0 -23 -10 -32.5t-31 -9.5q-41 0 -41 42q0 23 10 32.5t31 9.5q41 0 41 -42z" />
    <glyph glyph-name="eth" unicode="&#xf0;" horiz-adv-x="570" 
d="M510 672l14 -43l-77 -27q57 -93 57 -246v-133q0 -132 -54.5 -186t-175.5 -54q-119 0 -170.5 56t-51.5 178v25q0 128 55.5 181t164.5 53q124 0 174 -73q-4 114 -52 181l-158 -57l-14 42l142 50q-42 44 -119 74l36 41q89 -37 139 -95zM446 225v36q0 97 -42.5 130.5
t-126.5 33.5q-91 0 -129 -39t-38 -146v-21q0 -105 36 -145t128 -40q64 0 99 14t54 56t19 121z" />
    <glyph glyph-name="ntilde" unicode="&#xf1;" horiz-adv-x="571" 
d="M130 0h-58v343q0 94 46 140.5t168 46.5q123 0 168 -45.5t45 -141.5v-343h-58v337q0 39 -4.5 62t-20 43t-47 28.5t-83.5 8.5t-84 -8.5t-47.5 -29t-20 -43.5t-4.5 -61v-337zM292 619l-32 18q-27 17 -50 17q-32 0 -32 -50v-7h-44v8q0 95 75 95q34 0 71 -22l32 -18
q27 -17 51 -17q32 0 32 50v7h43v-8q0 -95 -74 -95q-35 0 -72 22z" />
    <glyph glyph-name="ograve" unicode="&#xf2;" horiz-adv-x="556" 
d="M278 530q122 0 174 -51.5t52 -183.5v-76q0 -131 -52.5 -183t-173.5 -52t-173.5 52t-52.5 183v76q0 131 52.5 183t173.5 52zM445 219v76q0 108 -36.5 146t-130.5 38q-95 0 -131 -37t-36 -147v-76q0 -108 36.5 -146t130.5 -38q95 0 131 37t36 147zM224 725l119 -126h-61
l-129 126h71z" />
    <glyph glyph-name="oacute" unicode="&#xf3;" horiz-adv-x="556" 
d="M278 530q122 0 174 -51.5t52 -183.5v-76q0 -131 -52.5 -183t-173.5 -52t-173.5 52t-52.5 183v76q0 131 52.5 183t173.5 52zM445 219v76q0 108 -36.5 146t-130.5 38q-95 0 -131 -37t-36 -147v-76q0 -108 36.5 -146t130.5 -38q95 0 131 37t36 147zM211 599l119 126h71
l-129 -126h-61z" />
    <glyph glyph-name="ocircumflex" unicode="&#xf4;" horiz-adv-x="556" 
d="M278 530q122 0 174 -51.5t52 -183.5v-76q0 -131 -52.5 -183t-173.5 -52t-173.5 52t-52.5 183v76q0 131 52.5 183t173.5 52zM445 219v76q0 108 -36.5 146t-130.5 38q-95 0 -131 -37t-36 -147v-76q0 -108 36.5 -146t130.5 -38q95 0 131 37t36 147zM248 723h61l112 -124h-59
l-84 86l-83 -86h-59z" />
    <glyph glyph-name="otilde" unicode="&#xf5;" horiz-adv-x="556" 
d="M278 530q122 0 174 -51.5t52 -183.5v-76q0 -131 -52.5 -183t-173.5 -52t-173.5 52t-52.5 183v76q0 131 52.5 183t173.5 52zM445 219v76q0 108 -36.5 146t-130.5 38q-95 0 -131 -37t-36 -147v-76q0 -108 36.5 -146t130.5 -38q95 0 131 37t36 147zM284 619l-32 18
q-27 17 -50 17q-32 0 -32 -50v-7h-44v8q0 95 75 95q34 0 71 -22l32 -18q27 -17 51 -17q32 0 32 50v7h43v-8q0 -95 -74 -95q-35 0 -72 22z" />
    <glyph glyph-name="odieresis" unicode="&#xf6;" horiz-adv-x="556" 
d="M278 530q122 0 174 -51.5t52 -183.5v-76q0 -131 -52.5 -183t-173.5 -52t-173.5 52t-52.5 183v76q0 131 52.5 183t173.5 52zM445 219v76q0 108 -36.5 146t-130.5 38q-95 0 -131 -37t-36 -147v-76q0 -108 36.5 -146t130.5 -38q95 0 131 37t36 147zM243 657q0 -42 -41 -42
t-41 42t41 42t41 -42zM395 657q0 -23 -10 -32.5t-31 -9.5q-41 0 -41 42q0 23 10 32.5t31 9.5q41 0 41 -42z" />
    <glyph glyph-name="divide" unicode="&#xf7;" horiz-adv-x="595" 
d="M297 223q43 0 43 -46q0 -45 -43 -45t-43 45q0 46 43 46zM297 552q43 0 43 -46q0 -45 -43 -45t-43 45q0 46 43 46zM89 316v52h417v-52h-417z" />
    <glyph glyph-name="oslash" unicode="&#xf8;" horiz-adv-x="556" 
d="M278 530q71 0 115 -16l40 73h52l-51 -93q70 -51 70 -199v-76q0 -131 -52.5 -183t-173.5 -52q-73 0 -117 16l-39 -70h-52l50 91q-68 51 -68 198v76q0 131 52.5 183t173.5 52zM445 219v76q0 109 -39 148l-219 -396q32 -12 91 -12q95 0 131 37t36 147zM111 295v-76
q0 -110 37 -147l219 395q-32 12 -89 12q-95 0 -131 -37t-36 -147z" />
    <glyph glyph-name="ugrave" unicode="&#xf9;" horiz-adv-x="566" 
d="M283 -16q-120 0 -165.5 44.5t-45.5 142.5v343h58v-337q0 -39 5 -62t20.5 -43t46.5 -28.5t81 -8.5t81 8t46.5 27.5t20.5 43t5 63.5v337h58v-343q0 -95 -45.5 -141t-165.5 -46zM235 725l119 -126h-61l-129 126h71z" />
    <glyph glyph-name="uacute" unicode="&#xfa;" horiz-adv-x="566" 
d="M283 -16q-120 0 -165.5 44.5t-45.5 142.5v343h58v-337q0 -39 5 -62t20.5 -43t46.5 -28.5t81 -8.5t81 8t46.5 27.5t20.5 43t5 63.5v337h58v-343q0 -95 -45.5 -141t-165.5 -46zM210 599l119 126h71l-129 -126h-61z" />
    <glyph glyph-name="ucircumflex" unicode="&#xfb;" horiz-adv-x="566" 
d="M283 -16q-120 0 -165.5 44.5t-45.5 142.5v343h58v-337q0 -39 5 -62t20.5 -43t46.5 -28.5t81 -8.5t81 8t46.5 27.5t20.5 43t5 63.5v337h58v-343q0 -95 -45.5 -141t-165.5 -46zM253 723h61l112 -124h-59l-84 86l-83 -86h-59z" />
    <glyph glyph-name="udieresis" unicode="&#xfc;" horiz-adv-x="566" 
d="M283 -16q-120 0 -165.5 44.5t-45.5 142.5v343h58v-337q0 -39 5 -62t20.5 -43t46.5 -28.5t81 -8.5t81 8t46.5 27.5t20.5 43t5 63.5v337h58v-343q0 -95 -45.5 -141t-165.5 -46zM248 657q0 -42 -41 -42t-41 42t41 42t41 -42zM400 657q0 -23 -10 -32.5t-31 -9.5q-41 0 -41 42
q0 23 10 32.5t31 9.5q41 0 41 -42z" />
    <glyph glyph-name="yacute" unicode="&#xfd;" horiz-adv-x="566" 
d="M103 -174l11 51q44 -3 150 -3q97 0 134 34t37 127v40q-39 -57 -160 -57q-113 0 -158 43t-45 143v310h58v-303q0 -39 4.5 -62t19.5 -43t45.5 -28.5t79.5 -8.5q94 0 125.5 32.5t31.5 113.5v299h58v-479q0 -117 -52 -164.5t-177 -47.5q-110 0 -162 3zM210 599l119 126h71
l-129 -126h-61z" />
    <glyph glyph-name="thorn" unicode="&#xfe;" horiz-adv-x="573" 
d="M462 221v74q0 109 -37.5 146.5t-124.5 37.5q-81 0 -125.5 -31t-44.5 -120v-128q0 -93 43 -129t126 -36q97 0 130 39.5t33 146.5zM521 297v-76q0 -132 -52 -184.5t-170 -52.5q-123 0 -169 70v-229h-58v918h58v-281q40 68 174 68q114 0 165.5 -53t51.5 -180z" />
    <glyph glyph-name="ydieresis" unicode="&#xff;" horiz-adv-x="566" 
d="M103 -174l11 51q44 -3 150 -3q97 0 134 34t37 127v40q-39 -57 -160 -57q-113 0 -158 43t-45 143v310h58v-303q0 -39 4.5 -62t19.5 -43t45.5 -28.5t79.5 -8.5q94 0 125.5 32.5t31.5 113.5v299h58v-479q0 -117 -52 -164.5t-177 -47.5q-110 0 -162 3zM248 657q0 -42 -41 -42
t-41 42t41 42t41 -42zM400 657q0 -23 -10 -32.5t-31 -9.5q-41 0 -41 42q0 23 10 32.5t31 9.5q41 0 41 -42z" />
    <glyph glyph-name="Amacron" unicode="&#x100;" horiz-adv-x="657" 
d="M572 0l-86 228h-319l-85 -228h-60l276 712h62l275 -712h-63zM326 650l-140 -369h280zM198 792v48h261v-48h-261z" />
    <glyph glyph-name="amacron" unicode="&#x101;" horiz-adv-x="538" 
d="M103 167v-13q0 -55 29.5 -79t107.5 -24h170v120q0 60 -39 83.5t-119 23.5h-13q-75 0 -105.5 -24.5t-30.5 -86.5zM466 344v-287q0 -34 -12.5 -45.5t-49.5 -11.5h-164q-103 0 -148 36t-45 117v14q0 84 45.5 122t147.5 38q130 0 170 -49v60q0 73 -33 100t-130 27
q-108 0 -152 -3l11 52q74 2 141 2q119 0 169 -39.5t50 -132.5zM141 626v48h261v-48h-261z" />
    <glyph glyph-name="Abreve" unicode="&#x102;" horiz-adv-x="657" 
d="M572 0l-86 228h-319l-85 -228h-60l276 712h62l275 -712h-63zM326 650l-140 -369h280zM328 771q-74 0 -109 30t-35 93h52q0 -41 21 -60.5t71 -19.5t71 19.5t21 60.5h52q0 -63 -35 -93t-109 -30z" />
    <glyph glyph-name="abreve" unicode="&#x103;" horiz-adv-x="538" 
d="M103 167v-13q0 -55 29.5 -79t107.5 -24h170v120q0 60 -39 83.5t-119 23.5h-13q-75 0 -105.5 -24.5t-30.5 -86.5zM466 344v-287q0 -34 -12.5 -45.5t-49.5 -11.5h-164q-103 0 -148 36t-45 117v14q0 84 45.5 122t147.5 38q130 0 170 -49v60q0 73 -33 100t-130 27
q-108 0 -152 -3l11 52q74 2 141 2q119 0 169 -39.5t50 -132.5zM270 596q-143 0 -143 123h51q0 -40 21 -59.5t71 -19.5t71 19.5t21 59.5h51q0 -123 -143 -123z" />
    <glyph glyph-name="Aogonek" unicode="&#x104;" horiz-adv-x="657" 
d="M635 -135l-11 -48h-43q-88 0 -88 63q0 64 79 120l-86 228h-319l-85 -228h-60l276 712h62l275 -712q-88 -56 -88 -108q0 -27 43 -27h45zM326 650l-140 -369h280z" />
    <glyph glyph-name="aogonek" unicode="&#x105;" horiz-adv-x="538" 
d="M448 6q-72 -60 -72 -114q0 -27 43 -27h45l-11 -48h-43q-45 0 -66 15t-21 48q0 63 62 120h-145q-103 0 -148 36t-45 117v14q0 84 45.5 122t147.5 38q130 0 170 -49v60q0 73 -33 100t-130 27q-108 0 -152 -3l11 52q74 2 141 2q119 0 169 -39.5t50 -132.5v-287
q0 -35 -18 -51zM103 167v-13q0 -55 29.5 -79t107.5 -24h170v120q0 60 -39 83.5t-119 23.5h-13q-75 0 -105.5 -24.5t-30.5 -86.5z" />
    <glyph glyph-name="Cacute" unicode="&#x106;" horiz-adv-x="565" 
d="M361 52q58 0 154 2l-12 -54q-82 -2 -142 -2q-170 0 -235 66t-65 232v121q0 166 65.5 231.5t235.5 65.5q105 0 154 -2l-12 -54q-38 2 -143 2q-76 0 -121.5 -11t-72 -41t-36 -74t-9.5 -117v-121q0 -144 49 -194t190 -50zM380 892h76l-130 -119h-63z" />
    <glyph glyph-name="cacute" unicode="&#x107;" horiz-adv-x="464" 
d="M279 49q63 0 137 2l-11 -51q-62 -2 -126 -2q-127 0 -177 53.5t-50 177.5v56q0 127 52 179t175 52q99 0 136 -2l-11 -51q-34 2 -125 2q-98 0 -133 -36t-35 -144v-56q0 -103 35.5 -141.5t132.5 -38.5zM202 599l119 126h71l-129 -126h-61z" />
    <glyph glyph-name="Ccircumflex" unicode="&#x108;" horiz-adv-x="565" 
d="M361 52q58 0 154 2l-12 -54q-82 -2 -142 -2q-170 0 -235 66t-65 232v121q0 166 65.5 231.5t235.5 65.5q105 0 154 -2l-12 -54q-38 2 -143 2q-76 0 -121.5 -11t-72 -41t-36 -74t-9.5 -117v-121q0 -144 49 -194t190 -50zM417 773l-89 79l-89 -79h-63l121 115h62l121 -115
h-63z" />
    <glyph glyph-name="ccircumflex" unicode="&#x109;" horiz-adv-x="464" 
d="M279 49q63 0 137 2l-11 -51q-62 -2 -126 -2q-127 0 -177 53.5t-50 177.5v56q0 127 52 179t175 52q99 0 136 -2l-11 -51q-34 2 -125 2q-98 0 -133 -36t-35 -144v-56q0 -103 35.5 -141.5t132.5 -38.5zM232 723h61l112 -124h-59l-84 86l-83 -86h-59z" />
    <glyph glyph-name="Cdotaccent" unicode="&#x10a;" horiz-adv-x="565" 
d="M361 52q58 0 154 2l-12 -54q-82 -2 -142 -2q-170 0 -235 66t-65 232v121q0 166 65.5 231.5t235.5 65.5q105 0 154 -2l-12 -54q-38 2 -143 2q-76 0 -121.5 -11t-72 -41t-36 -74t-9.5 -117v-121q0 -144 49 -194t190 -50zM377 816q0 -43 -42 -43q-41 0 -41 43t41 43
q42 0 42 -43z" />
    <glyph glyph-name="cdotaccent" unicode="&#x10b;" horiz-adv-x="464" 
d="M279 49q63 0 137 2l-11 -51q-62 -2 -126 -2q-127 0 -177 53.5t-50 177.5v56q0 127 52 179t175 52q99 0 136 -2l-11 -51q-34 2 -125 2q-98 0 -133 -36t-35 -144v-56q0 -103 35.5 -141.5t132.5 -38.5zM311 659q0 -44 -43 -44t-43 44t43 44t43 -44z" />
    <glyph glyph-name="Ccaron" unicode="&#x10c;" horiz-adv-x="565" 
d="M361 52q58 0 154 2l-12 -54q-82 -2 -142 -2q-170 0 -235 66t-65 232v121q0 166 65.5 231.5t235.5 65.5q105 0 154 -2l-12 -54q-38 2 -143 2q-76 0 -121.5 -11t-72 -41t-36 -74t-9.5 -117v-121q0 -144 49 -194t190 -50zM181 888h63l89 -80l89 80h64l-122 -115h-62z" />
    <glyph glyph-name="ccaron" unicode="&#x10d;" horiz-adv-x="464" 
d="M279 49q63 0 137 2l-11 -51q-62 -2 -126 -2q-127 0 -177 53.5t-50 177.5v56q0 127 52 179t175 52q99 0 136 -2l-11 -51q-34 2 -125 2q-98 0 -133 -36t-35 -144v-56q0 -103 35.5 -141.5t132.5 -38.5zM294 599h-61l-112 124h59l83 -87l84 87h59z" />
    <glyph glyph-name="Dcaron" unicode="&#x10e;" horiz-adv-x="676" 
d="M81 0v712h227q168 0 237.5 -74.5t69.5 -241.5v-79q0 -168 -69.5 -242.5t-237.5 -74.5h-227zM140 658v-604h168q140 0 193 58t53 207v75q0 148 -53 206t-193 58h-168zM170 888h63l89 -80l89 80h64l-122 -115h-62z" />
    <glyph glyph-name="dcaron" unicode="&#x10f;" horiz-adv-x="611" 
d="M278 51h160v271q0 94 -42.5 125.5t-123.5 31.5q-89 0 -125 -37.5t-36 -140.5v-65q0 -110 35 -147.5t132 -37.5zM434 0h-158q-122 0 -173 52.5t-51 183.5v65q0 122 53 175.5t164 53.5q120 0 169 -62v275h58v-686q0 -34 -12 -45.5t-50 -11.5zM563 743h55l-21 -175h-41z" />
    <glyph glyph-name="Dcroat" unicode="&#x110;" horiz-adv-x="696" 
d="M101 0v334h-71v50h71v328h227q168 0 237.5 -74.5t69.5 -241.5v-79q0 -168 -69.5 -242.5t-237.5 -74.5h-227zM160 658v-274h189v-50h-189v-280h168q140 0 193 58t53 207v75q0 148 -53 206t-193 58h-168z" />
    <glyph glyph-name="dslash" unicode="&#x111;" horiz-adv-x="568" 
d="M434 0h-158q-122 0 -173 52.5t-51 183.5v65q0 122 53 175.5t164 53.5q120 0 169 -62v142h-207v47h207v86h58v-86h70v-47h-70v-553q0 -34 -12 -45.5t-50 -11.5zM278 51h160v271q0 94 -42.5 125.5t-123.5 31.5q-89 0 -125 -37.5t-36 -140.5v-65q0 -110 35 -147.5t132 -37.5
z" />
    <glyph glyph-name="Emacron" unicode="&#x112;" horiz-adv-x="593" 
d="M81 712h457l-12 -54h-386v-265h373l-12 -54h-361v-285h398l-12 -54h-445v712zM175 792v48h261v-48h-261z" />
    <glyph glyph-name="emacron" unicode="&#x113;" horiz-adv-x="531" 
d="M426 242h-316q0 -114 32.5 -153.5t130.5 -39.5q47 0 169 2l-11 -51q-90 -2 -158 -2q-126 0 -173.5 56t-47.5 179v63q0 125 51.5 179.5t164.5 54.5q111 0 161 -48t50 -154v-24q0 -40 -10.5 -51t-42.5 -11zM267 481q-88 0 -122.5 -38.5t-34.5 -151.5h315v34q0 88 -36 122
t-122 34zM137 626v48h261v-48h-261z" />
    <glyph glyph-name="Ebreve" unicode="&#x114;" horiz-adv-x="593" 
d="M81 712h457l-12 -54h-386v-265h373l-12 -54h-361v-285h398l-12 -54h-445v712zM315 771q-74 0 -109 30t-35 93h52q0 -41 21 -60.5t71 -19.5t71 19.5t21 60.5h52q0 -63 -35 -93t-109 -30z" />
    <glyph glyph-name="ebreve" unicode="&#x115;" horiz-adv-x="531" 
d="M426 242h-316q0 -114 32.5 -153.5t130.5 -39.5q47 0 169 2l-11 -51q-90 -2 -158 -2q-126 0 -173.5 56t-47.5 179v63q0 125 51.5 179.5t164.5 54.5q111 0 161 -48t50 -154v-24q0 -40 -10.5 -51t-42.5 -11zM267 481q-88 0 -122.5 -38.5t-34.5 -151.5h315v34q0 88 -36 122
t-122 34zM268 596q-143 0 -143 123h51q0 -40 21 -59.5t71 -19.5t71 19.5t21 59.5h51q0 -123 -143 -123z" />
    <glyph glyph-name="Edotaccent" unicode="&#x116;" horiz-adv-x="593" 
d="M81 712h457l-12 -54h-386v-265h373l-12 -54h-361v-285h398l-12 -54h-445v712zM347 816q0 -43 -42 -43q-41 0 -41 43t41 43q42 0 42 -43z" />
    <glyph glyph-name="edotaccent" unicode="&#x117;" horiz-adv-x="531" 
d="M426 242h-316q0 -114 32.5 -153.5t130.5 -39.5q47 0 169 2l-11 -51q-90 -2 -158 -2q-126 0 -173.5 56t-47.5 179v63q0 125 51.5 179.5t164.5 54.5q111 0 161 -48t50 -154v-24q0 -40 -10.5 -51t-42.5 -11zM267 481q-88 0 -122.5 -38.5t-34.5 -151.5h315v34q0 88 -36 122
t-122 34zM307 659q0 -44 -43 -44t-43 44t43 44t43 -44z" />
    <glyph glyph-name="Eogonek" unicode="&#x118;" horiz-adv-x="593" 
d="M526 -135l-11 -48h-43q-88 0 -88 63q0 67 81 120h-384v712h457l-12 -54h-386v-265h373l-12 -54h-361v-285h398l-12 -54q-88 -56 -88 -108q0 -27 43 -27h45z" />
    <glyph glyph-name="eogonek" unicode="&#x119;" horiz-adv-x="531" 
d="M442 51l-11 -51q-88 -56 -88 -108q0 -27 43 -27h45l-11 -48h-43q-45 0 -66 15t-21 48q0 64 79 119q-32 -1 -96 -1q-126 0 -173.5 56t-47.5 179v63q0 125 51.5 179.5t164.5 54.5q111 0 161 -48t50 -154v-24q0 -40 -10.5 -51t-42.5 -11h-316q0 -114 32.5 -153.5
t130.5 -39.5q47 0 169 2zM267 481q-88 0 -122.5 -38.5t-34.5 -151.5h315v34q0 88 -36 122t-122 34z" />
    <glyph glyph-name="Ecaron" unicode="&#x11a;" horiz-adv-x="593" 
d="M81 712h457l-12 -54h-386v-265h373l-12 -54h-361v-285h398l-12 -54h-445v712zM152 888h63l89 -80l89 80h64l-122 -115h-62z" />
    <glyph glyph-name="ecaron" unicode="&#x11b;" horiz-adv-x="531" 
d="M426 242h-316q0 -114 32.5 -153.5t130.5 -39.5q47 0 169 2l-11 -51q-90 -2 -158 -2q-126 0 -173.5 56t-47.5 179v63q0 125 51.5 179.5t164.5 54.5q111 0 161 -48t50 -154v-24q0 -40 -10.5 -51t-42.5 -11zM267 481q-88 0 -122.5 -38.5t-34.5 -151.5h315v34q0 88 -36 122
t-122 34zM298 599h-61l-112 124h59l83 -87l84 87h59z" />
    <glyph glyph-name="Gcircumflex" unicode="&#x11c;" horiz-adv-x="635" 
d="M374 355h199v-296q0 -34 -11 -46.5t-42 -12.5h-156q-172 0 -237.5 65t-65.5 226v130q0 161 66.5 227t241.5 66q132 0 185 -2l-11 -54q-51 2 -176 2q-147 0 -196 -48t-49 -192v-127q0 -143 49.5 -191t191.5 -48h152v247h-153zM437 773l-89 79l-89 -79h-63l121 115h62
l121 -115h-63z" />
    <glyph glyph-name="gcircumflex" unicode="&#x11d;" horiz-adv-x="573" 
d="M275 69q79 0 124 31t45 117v91q0 100 -37 135.5t-132 35.5q-94 0 -129 -36t-35 -139v-59q0 -105 36.5 -140.5t127.5 -35.5zM444 35v51q-41 -68 -174 -68q-115 0 -166.5 51.5t-51.5 172.5v64q0 121 52.5 172.5t171.5 51.5q124 0 174.5 -52t50.5 -169v-274
q0 -117 -52.5 -164.5t-179.5 -47.5q-99 0 -162 3l12 51q59 -3 150 -3q99 0 137 34t38 127zM244 723h61l112 -124h-59l-84 86l-83 -86h-59z" />
    <glyph glyph-name="Gbreve" unicode="&#x11e;" horiz-adv-x="635" 
d="M374 355h199v-296q0 -34 -11 -46.5t-42 -12.5h-156q-172 0 -237.5 65t-65.5 226v130q0 161 66.5 227t241.5 66q132 0 185 -2l-11 -54q-51 2 -176 2q-147 0 -196 -48t-49 -192v-127q0 -143 49.5 -191t191.5 -48h152v247h-153zM340 771q-74 0 -109 30t-35 93h52
q0 -41 21 -60.5t71 -19.5t71 19.5t21 60.5h52q0 -63 -35 -93t-109 -30z" />
    <glyph glyph-name="gbreve" unicode="&#x11f;" horiz-adv-x="573" 
d="M275 69q79 0 124 31t45 117v91q0 100 -37 135.5t-132 35.5q-94 0 -129 -36t-35 -139v-59q0 -105 36.5 -140.5t127.5 -35.5zM444 35v51q-41 -68 -174 -68q-115 0 -166.5 51.5t-51.5 172.5v64q0 121 52.5 172.5t171.5 51.5q124 0 174.5 -52t50.5 -169v-274
q0 -117 -52.5 -164.5t-179.5 -47.5q-99 0 -162 3l12 51q59 -3 150 -3q99 0 137 34t38 127zM272 596q-143 0 -143 123h51q0 -40 21 -59.5t71 -19.5t71 19.5t21 59.5h51q0 -123 -143 -123z" />
    <glyph glyph-name="Gdotaccent" unicode="&#x120;" horiz-adv-x="635" 
d="M374 355h199v-296q0 -34 -11 -46.5t-42 -12.5h-156q-172 0 -237.5 65t-65.5 226v130q0 161 66.5 227t241.5 66q132 0 185 -2l-11 -54q-51 2 -176 2q-147 0 -196 -48t-49 -192v-127q0 -143 49.5 -191t191.5 -48h152v247h-153zM389 816q0 -43 -42 -43q-41 0 -41 43t41 43
q42 0 42 -43z" />
    <glyph glyph-name="gdotaccent" unicode="&#x121;" horiz-adv-x="573" 
d="M275 69q79 0 124 31t45 117v91q0 100 -37 135.5t-132 35.5q-94 0 -129 -36t-35 -139v-59q0 -105 36.5 -140.5t127.5 -35.5zM444 35v51q-41 -68 -174 -68q-115 0 -166.5 51.5t-51.5 172.5v64q0 121 52.5 172.5t171.5 51.5q124 0 174.5 -52t50.5 -169v-274
q0 -117 -52.5 -164.5t-179.5 -47.5q-99 0 -162 3l12 51q59 -3 150 -3q99 0 137 34t38 127zM320 659q0 -44 -43 -44t-43 44t43 44t43 -44z" />
    <glyph glyph-name="Gcommaaccent" unicode="&#x122;" horiz-adv-x="635" 
d="M374 355h199v-296q0 -34 -11 -46.5t-42 -12.5h-156q-172 0 -237.5 65t-65.5 226v130q0 161 66.5 227t241.5 66q132 0 185 -2l-11 -54q-51 2 -176 2q-147 0 -196 -48t-49 -192v-127q0 -143 49.5 -191t191.5 -48h152v247h-153zM342 -232h-45l35 91q-23 11 -23 39
q0 43 43 43q42 0 42 -42q0 -16 -14 -49z" />
    <glyph glyph-name="gcommaaccent" unicode="&#x123;" horiz-adv-x="573" 
d="M275 69q79 0 124 31t45 117v91q0 100 -37 135.5t-132 35.5q-94 0 -129 -36t-35 -139v-59q0 -105 36.5 -140.5t127.5 -35.5zM444 35v51q-41 -68 -174 -68q-115 0 -166.5 51.5t-51.5 172.5v64q0 121 52.5 172.5t171.5 51.5q124 0 174.5 -52t50.5 -169v-274
q0 -117 -52.5 -164.5t-179.5 -47.5q-99 0 -162 3l12 51q59 -3 150 -3q99 0 137 34t38 127zM283 788h46l-35 -91q23 -11 23 -39q0 -43 -43 -43q-42 0 -42 42q0 20 15 49z" />
    <glyph glyph-name="Hcircumflex" unicode="&#x124;" horiz-adv-x="696" 
d="M556 712h59v-712h-59v338h-416v-338h-59v712h59v-320h416v320zM437 773l-89 79l-89 -79h-63l121 115h62l121 -115h-63z" />
    <glyph glyph-name="hcircumflex" unicode="&#x125;" horiz-adv-x="571" 
d="M130 0h-58v743h58v-275q41 62 168 62q99 0 150 -39.5t51 -135.5v-355h-58v348q0 74 -33 102.5t-115 28.5q-77 0 -120 -27t-43 -96v-356zM313 772l-88 79l-88 -79h-60l119 113h59l118 -113h-60z" />
    <glyph glyph-name="Hbar" unicode="&#x126;" horiz-adv-x="754" 
d="M585 712h59v-127h80v-49h-80v-536h-59v338h-416v-338h-59v536h-80v49h80v127h59v-127h416v127zM169 392h416v144h-416v-144z" />
    <glyph glyph-name="hbar" unicode="&#x127;" horiz-adv-x="571" 
d="M130 0h-58v610h-70v47h70v86h58v-86h207v-47h-207v-142q41 62 168 62q99 0 150 -39.5t51 -135.5v-355h-58v348q0 74 -33 102.5t-115 28.5q-77 0 -120 -27t-43 -96v-356z" />
    <glyph glyph-name="Itilde" unicode="&#x128;" horiz-adv-x="221" 
d="M81 712h59v-712h-59v712zM117 793l-28 15q-35 19 -56 19q-32 0 -32 -48v-9h-45v9q0 96 73 96q35 0 77 -23l27 -15q35 -19 56 -19q32 0 32 48v9h45v-9q0 -96 -73 -96q-29 0 -76 23z" />
    <glyph glyph-name="itilde" unicode="&#x129;" horiz-adv-x="202" 
d="M72 0v514h58v-514h-58zM108 619l-32 18q-27 17 -50 17q-32 0 -32 -50v-7h-44v8q0 95 75 95q34 0 71 -22l32 -18q27 -17 51 -17q32 0 32 50v7h43v-8q0 -95 -74 -95q-35 0 -72 22z" />
    <glyph glyph-name="Imacron" unicode="&#x12a;" horiz-adv-x="221" 
d="M81 712h59v-712h-59v712zM-19 792v48h261v-48h-261z" />
    <glyph glyph-name="imacron" unicode="&#x12b;" horiz-adv-x="202" 
d="M72 0v514h58v-514h-58zM-28 626v48h261v-48h-261z" />
    <glyph glyph-name="Ibreve" unicode="&#x12c;" horiz-adv-x="221" 
d="M81 712h59v-712h-59v712zM111 771q-74 0 -109 30t-35 93h52q0 -41 21 -60.5t71 -19.5t71 19.5t21 60.5h52q0 -63 -35 -93t-109 -30z" />
    <glyph glyph-name="ibreve" unicode="&#x12d;" horiz-adv-x="202" 
d="M72 0v514h58v-514h-58zM102 596q-143 0 -143 123h51q0 -40 21 -59.5t71 -19.5t71 19.5t21 59.5h51q0 -123 -143 -123z" />
    <glyph glyph-name="Iogonek" unicode="&#x12e;" horiz-adv-x="221" 
d="M140 -135l-11 -48h-43q-88 0 -88 63q0 68 83 121v711h59v-712q-88 -56 -88 -108q0 -27 43 -27h45z" />
    <glyph glyph-name="iogonek" unicode="&#x12f;" horiz-adv-x="202" 
d="M72 514h58v-514q-88 -56 -88 -108q0 -27 43 -27h45l-11 -48h-43q-45 0 -66 15t-21 48q0 67 83 121v513zM144 659q0 -44 -43 -44t-43 44t43 44t43 -44z" />
    <glyph glyph-name="Idot" unicode="&#x130;" horiz-adv-x="221" 
d="M81 712h59v-712h-59v712zM153 816q0 -43 -42 -43q-41 0 -41 43t41 43q42 0 42 -43z" />
    <glyph glyph-name="dotlessi" unicode="&#x131;" horiz-adv-x="202" 
d="M72 0v514h58v-514h-58z" />
    <glyph glyph-name="IJ" unicode="&#x132;" horiz-adv-x="677" 
d="M81 712h59v-712h-59v712zM248 1l11 54q37 -2 135 -2q94 0 121.5 38.5t27.5 158.5v462h59v-467q0 -139 -43 -192.5t-165 -53.5q-44 0 -146 2z" />
    <glyph glyph-name="ij" unicode="&#x133;" horiz-adv-x="404" 
d="M72 0v514h58v-514h-58zM144 659q0 -44 -43 -44t-43 44t43 44t43 -44zM99 -175l11 49q25 -1 62 -1q61 0 81.5 23t20.5 91v527h58v-526q0 -94 -35 -129.5t-124 -35.5q-36 0 -74 2zM346 659q0 -44 -43 -44t-43 44t43 44t43 -44z" />
    <glyph glyph-name="Jcircumflex" unicode="&#x134;" horiz-adv-x="456" 
d="M27 1l11 54q37 -2 135 -2q94 0 121.5 38.5t27.5 158.5v462h59v-467q0 -139 -43 -192.5t-165 -53.5q-44 0 -146 2zM434 773l-89 79l-89 -79h-63l121 115h62l121 -115h-63z" />
    <glyph glyph-name="jcircumflex" unicode="&#x135;" horiz-adv-x="202" 
d="M-103 -175l11 50q16 -2 62 -2q61 0 81.5 23t20.5 91v527h58v-526q0 -94 -35 -129.5t-124 -35.5q-36 0 -74 2zM74 723h61l112 -124h-59l-84 86l-83 -86h-59z" />
    <glyph glyph-name="Kcommaaccent" unicode="&#x136;" horiz-adv-x="620" 
d="M140 712v-325l361 325h74l-377 -340l412 -372h-84l-386 349v-349h-59v712h59zM292 -232h-45l35 91q-23 11 -23 39q0 43 43 43q42 0 42 -42q0 -16 -14 -49z" />
    <glyph glyph-name="kcommaaccent" unicode="&#x137;" horiz-adv-x="512" 
d="M130 743v-442l263 213h80l-285 -229l314 -285h-80l-292 264v-264h-58v743h58zM210 -102q0 43 42 43t42 -42q0 -20 -15 -49l-37 -82h-44l34 92q-22 9 -22 38z" />
    <glyph glyph-name="kgreenlandic" unicode="&#x138;" horiz-adv-x="511" 
d="M130 514v-234l265 234h78l-285 -249l313 -265h-80l-291 243v-243h-58v514h58z" />
    <glyph glyph-name="Lacute" unicode="&#x139;" horiz-adv-x="541" 
d="M81 712h59v-658h374l-12 -54h-421v712zM224 892h76l-130 -119h-63z" />
    <glyph glyph-name="lacute" unicode="&#x13a;" horiz-adv-x="202" 
d="M72 0v743h58v-743h-58zM181 876h76l-128 -104h-63z" />
    <glyph glyph-name="Lcommaaccent" unicode="&#x13b;" horiz-adv-x="541" 
d="M81 712h59v-658h374l-12 -54h-421v712zM281 -232h-45l35 91q-23 11 -23 39q0 43 43 43q42 0 42 -42q0 -16 -14 -49z" />
    <glyph glyph-name="lcommaaccent" unicode="&#x13c;" horiz-adv-x="202" 
d="M72 0v743h58v-743h-58zM61 -102q0 43 42 43t42 -42q0 -20 -15 -49l-37 -82h-44l34 92q-22 9 -22 38z" />
    <glyph glyph-name="Lcaron" unicode="&#x13d;" horiz-adv-x="541" 
d="M81 712h59v-658h374l-12 -54h-421v712zM256 763h55l-21 -175h-41z" />
    <glyph glyph-name="lcaron" unicode="&#x13e;" horiz-adv-x="245" 
d="M72 0v743h58v-743h-58zM198 743h55l-21 -175h-41z" />
    <glyph glyph-name="Ldot" unicode="&#x13f;" horiz-adv-x="541" 
d="M81 712h59v-658h374l-12 -54h-421v712zM403 399q0 -47 -45 -47t-45 47q0 48 45 48t45 -48z" />
    <glyph glyph-name="ldot" unicode="&#x140;" horiz-adv-x="302" 
d="M72 0v743h58v-743h-58zM297 384q0 -47 -45 -47t-45 47q0 48 45 48t45 -48z" />
    <glyph glyph-name="Lslash" unicode="&#x141;" horiz-adv-x="571" 
d="M111 712h59v-326l213 136v-58l-213 -136v-274h374l-12 -54h-421v290l-81 -51v58l81 51v364z" />
    <glyph glyph-name="lslash" unicode="&#x142;" horiz-adv-x="231" 
d="M86 0v345l-81 -72v62l81 71v337h58v-286l82 73v-61l-82 -73v-396h-58z" />
    <glyph glyph-name="Nacute" unicode="&#x143;" horiz-adv-x="699" 
d="M81 712h54l424 -615v615h59v-712h-55l-423 613v-613h-59v712zM400 892h76l-130 -119h-63z" />
    <glyph glyph-name="nacute" unicode="&#x144;" horiz-adv-x="571" 
d="M130 0h-58v343q0 94 46 140.5t168 46.5q123 0 168 -45.5t45 -141.5v-343h-58v337q0 39 -4.5 62t-20 43t-47 28.5t-83.5 8.5t-84 -8.5t-47.5 -29t-20 -43.5t-4.5 -61v-337zM222 599l119 126h71l-129 -126h-61z" />
    <glyph glyph-name="Ncommaaccent" unicode="&#x145;" horiz-adv-x="699" 
d="M81 712h54l424 -615v615h59v-712h-55l-423 613v-613h-59v712zM338 -232h-45l35 91q-23 11 -23 39q0 43 43 43q42 0 42 -42q0 -16 -14 -49z" />
    <glyph glyph-name="ncommaaccent" unicode="&#x146;" horiz-adv-x="571" 
d="M130 0h-58v343q0 94 46 140.5t168 46.5q123 0 168 -45.5t45 -141.5v-343h-58v337q0 39 -4.5 62t-20 43t-47 28.5t-83.5 8.5t-84 -8.5t-47.5 -29t-20 -43.5t-4.5 -61v-337zM247 -102q0 43 42 43t42 -42q0 -20 -15 -49l-37 -82h-44l34 92q-22 9 -22 38z" />
    <glyph glyph-name="Ncaron" unicode="&#x147;" horiz-adv-x="699" 
d="M81 712h54l424 -615v615h59v-712h-55l-423 613v-613h-59v712zM194 888h63l89 -80l89 80h64l-122 -115h-62z" />
    <glyph glyph-name="ncaron" unicode="&#x148;" horiz-adv-x="571" 
d="M130 0h-58v343q0 94 46 140.5t168 46.5q123 0 168 -45.5t45 -141.5v-343h-58v337q0 39 -4.5 62t-20 43t-47 28.5t-83.5 8.5t-84 -8.5t-47.5 -29t-20 -43.5t-4.5 -61v-337zM317 599h-61l-112 124h59l83 -87l84 87h59z" />
    <glyph glyph-name="napostrophe" unicode="&#x149;" horiz-adv-x="588" 
d="M147 0h-58v343q0 94 46 140.5t168 46.5q123 0 168 -45.5t45 -141.5v-343h-58v337q0 39 -4.5 62t-20 43t-47 28.5t-83.5 8.5t-84 -8.5t-47.5 -29t-20 -43.5t-4.5 -61v-337zM84 736q44 0 44 -45q0 -22 -17 -53l-55 -117h-45l51 130q-21 12 -21 39q0 46 43 46z" />
    <glyph glyph-name="Eng" unicode="&#x14a;" horiz-adv-x="699" 
d="M557 9l-417 604v-613h-59v712h54l424 -615v615h59v-642q0 -139 -43 -192.5t-165 -53.5q-84 0 -116 2l11 54q29 -2 105 -2q80 0 110.5 27.5t36.5 103.5z" />
    <glyph glyph-name="eng" unicode="&#x14b;" horiz-adv-x="571" 
d="M441 -13v350q0 39 -4.5 62t-20 43t-47 28.5t-83.5 8.5t-84 -8.5t-47.5 -29t-20 -43.5t-4.5 -61v-337h-58v343q0 94 46 140.5t168 46.5q123 0 168 -45.5t45 -141.5v-355q0 -94 -35.5 -129.5t-123.5 -35.5q-36 0 -74 2l11 50q16 -2 62 -2q61 0 81.5 23t20.5 91z" />
    <glyph glyph-name="Omacron" unicode="&#x14c;" horiz-adv-x="699" 
d="M349 35q129 0 178.5 53.5t49.5 195.5v145q0 141 -50 195t-178 54q-129 0 -178 -53.5t-49 -195.5v-145q0 -140 50 -194.5t177 -54.5zM349 -18q-158 0 -223 70.5t-65 230.5v147q0 157 65 229t223 72q159 0 224 -70.5t65 -230.5v-147q0 -157 -65 -229t-224 -72zM219 792v48
h261v-48h-261z" />
    <glyph glyph-name="omacron" unicode="&#x14d;" horiz-adv-x="556" 
d="M278 530q122 0 174 -51.5t52 -183.5v-76q0 -131 -52.5 -183t-173.5 -52t-173.5 52t-52.5 183v76q0 131 52.5 183t173.5 52zM445 219v76q0 108 -36.5 146t-130.5 38q-95 0 -131 -37t-36 -147v-76q0 -108 36.5 -146t130.5 -38q95 0 131 37t36 147zM148 626v48h261v-48h-261
z" />
    <glyph glyph-name="Obreve" unicode="&#x14e;" horiz-adv-x="699" 
d="M349 35q129 0 178.5 53.5t49.5 195.5v145q0 141 -50 195t-178 54q-129 0 -178 -53.5t-49 -195.5v-145q0 -140 50 -194.5t177 -54.5zM349 -18q-158 0 -223 70.5t-65 230.5v147q0 157 65 229t223 72q159 0 224 -70.5t65 -230.5v-147q0 -157 -65 -229t-224 -72zM349 771
q-74 0 -109 30t-35 93h52q0 -41 21 -60.5t71 -19.5t71 19.5t21 60.5h52q0 -63 -35 -93t-109 -30z" />
    <glyph glyph-name="obreve" unicode="&#x14f;" horiz-adv-x="556" 
d="M278 530q122 0 174 -51.5t52 -183.5v-76q0 -131 -52.5 -183t-173.5 -52t-173.5 52t-52.5 183v76q0 131 52.5 183t173.5 52zM445 219v76q0 108 -36.5 146t-130.5 38q-95 0 -131 -37t-36 -147v-76q0 -108 36.5 -146t130.5 -38q95 0 131 37t36 147zM278 596q-143 0 -143 123
h51q0 -40 21 -59.5t71 -19.5t71 19.5t21 59.5h51q0 -123 -143 -123z" />
    <glyph glyph-name="Ohungarumlaut" unicode="&#x150;" horiz-adv-x="699" 
d="M349 35q129 0 178.5 53.5t49.5 195.5v145q0 141 -50 195t-178 54q-129 0 -178 -53.5t-49 -195.5v-145q0 -140 50 -194.5t177 -54.5zM349 -18q-158 0 -223 70.5t-65 230.5v147q0 157 65 229t223 72q159 0 224 -70.5t65 -230.5v-147q0 -157 -65 -229t-224 -72zM317 892h73
l-105 -119h-62zM470 892h74l-106 -119h-62z" />
    <glyph glyph-name="ohungarumlaut" unicode="&#x151;" horiz-adv-x="556" 
d="M278 530q122 0 174 -51.5t52 -183.5v-76q0 -131 -52.5 -183t-173.5 -52t-173.5 52t-52.5 183v76q0 131 52.5 183t173.5 52zM445 219v76q0 108 -36.5 146t-130.5 38q-95 0 -131 -37t-36 -147v-76q0 -108 36.5 -146t130.5 -38q95 0 131 37t36 147zM157 599l90 126h64
l-99 -126h-55zM302 599l90 126h64l-99 -126h-55z" />
    <glyph glyph-name="OE" unicode="&#x152;" horiz-adv-x="989" 
d="M934 54l-12 -54h-575q-156 0 -221 70t-65 227v118q0 154 65.5 225.5t220.5 71.5h587l-12 -54h-386v-265h373l-12 -54h-361v-285h398zM346 53h131v606h-131q-125 0 -174.5 -53.5t-49.5 -191.5v-116q0 -137 50 -191t174 -54z" />
    <glyph glyph-name="oe" unicode="&#x153;" horiz-adv-x="924" 
d="M278 35q96 0 131.5 37.5t35.5 146.5v75q0 108 -36 146.5t-131 38.5t-131 -37t-36 -147v-76q0 -108 36.5 -146t130.5 -38zM675 -2q-84 0 -130 20.5t-69 68.5q-22 -57 -70 -80t-128 -23q-121 0 -173.5 52t-52.5 183v76q0 131 52.5 183t173.5 52q80 0 126 -23.5t70 -75.5
q22 51 67 75t123 24q109 0 158.5 -48t49.5 -154v-24q0 -40 -10.5 -51t-42.5 -11h-318q0 -116 34.5 -154.5t139.5 -38.5q72 0 160 2l-11 -51q-82 -2 -149 -2zM664 481q-93 0 -128 -38t-35 -152h317v35q0 88 -35.5 121.5t-118.5 33.5z" />
    <glyph glyph-name="Racute" unicode="&#x154;" horiz-adv-x="620" 
d="M349 299h-209v-299h-59v712h237q131 0 188 -44.5t57 -152.5v-19q0 -86 -36.5 -131t-117.5 -59l187 -306h-68zM504 500v11q0 86 -39.5 116.5t-146.5 30.5h-178v-305h178q108 0 147 30t39 117zM347 892h76l-130 -119h-63z" />
    <glyph glyph-name="racute" unicode="&#x155;" horiz-adv-x="391" 
d="M130 0h-58v339q0 100 43.5 138.5t138.5 38.5q87 0 110 -1l-11 -52q-34 2 -96 2q-75 0 -101 -27.5t-26 -105.5v-332zM164 599l119 126h71l-129 -126h-61z" />
    <glyph glyph-name="Rcommaaccent" unicode="&#x156;" horiz-adv-x="620" 
d="M349 299h-209v-299h-59v712h237q131 0 188 -44.5t57 -152.5v-19q0 -86 -36.5 -131t-117.5 -59l187 -306h-68zM504 500v11q0 86 -39.5 116.5t-146.5 30.5h-178v-305h178q108 0 147 30t39 117zM310 -232h-45l35 91q-23 11 -23 39q0 43 43 43q42 0 42 -42q0 -16 -14 -49z
" />
    <glyph glyph-name="rcommaaccent" unicode="&#x157;" horiz-adv-x="391" 
d="M130 0h-58v339q0 100 43.5 138.5t138.5 38.5q87 0 110 -1l-11 -52q-34 2 -96 2q-75 0 -101 -27.5t-26 -105.5v-332zM61 -102q0 43 42 43t42 -42q0 -20 -15 -49l-37 -82h-44l34 92q-22 9 -22 38z" />
    <glyph glyph-name="Rcaron" unicode="&#x158;" horiz-adv-x="620" 
d="M349 299h-209v-299h-59v712h237q131 0 188 -44.5t57 -152.5v-19q0 -86 -36.5 -131t-117.5 -59l187 -306h-68zM504 500v11q0 86 -39.5 116.5t-146.5 30.5h-178v-305h178q108 0 147 30t39 117zM153 888h63l89 -80l89 80h64l-122 -115h-62z" />
    <glyph glyph-name="rcaron" unicode="&#x159;" horiz-adv-x="391" 
d="M130 0h-58v339q0 100 43.5 138.5t138.5 38.5q87 0 110 -1l-11 -52q-34 2 -96 2q-75 0 -101 -27.5t-26 -105.5v-332zM251 599h-61l-112 124h59l83 -87l84 87h59z" />
    <glyph glyph-name="Sacute" unicode="&#x15a;" horiz-adv-x="566" 
d="M224 403l142 -23q83 -15 120 -55.5t37 -123.5v-12q0 -101 -59 -146t-198 -45q-154 0 -223 2l11 54q61 -2 212 -2q116 0 157 30.5t41 113.5q0 62 -25.5 90t-96.5 40l-136 23q-88 14 -124 55t-36 120v14q0 85 57 130.5t188 45.5q139 0 212 -2l-12 -54q-67 2 -202 2
q-104 0 -144 -29.5t-40 -99.5q0 -60 24.5 -88t94.5 -40zM329 892h76l-130 -119h-63z" />
    <glyph glyph-name="sacute" unicode="&#x15b;" horiz-adv-x="495" 
d="M195 296l105 -10q79 -8 112 -42t33 -92v-9q0 -73 -43 -109t-147 -36q-164 0 -214 2l11 51q40 -2 205 -2q78 0 104.5 20t26.5 77q0 43 -21 62t-77 24l-107 10q-73 8 -106 40t-33 91v11q0 67 45 99.5t140 32.5q154 0 205 -2l-11 -51q-45 2 -197 2q-70 0 -98 -18.5
t-28 -63.5q0 -41 19 -61t76 -26zM184 599l119 126h71l-129 -126h-61z" />
    <glyph glyph-name="Scircumflex" unicode="&#x15c;" horiz-adv-x="566" 
d="M224 403l142 -23q83 -15 120 -55.5t37 -123.5v-12q0 -101 -59 -146t-198 -45q-154 0 -223 2l11 54q61 -2 212 -2q116 0 157 30.5t41 113.5q0 62 -25.5 90t-96.5 40l-136 23q-88 14 -124 55t-36 120v14q0 85 57 130.5t188 45.5q139 0 212 -2l-12 -54q-67 2 -202 2
q-104 0 -144 -29.5t-40 -99.5q0 -60 24.5 -88t94.5 -40zM376 773l-89 79l-89 -79h-63l121 115h62l121 -115h-63z" />
    <glyph glyph-name="scircumflex" unicode="&#x15d;" horiz-adv-x="495" 
d="M195 296l105 -10q79 -8 112 -42t33 -92v-9q0 -73 -43 -109t-147 -36q-164 0 -214 2l11 51q40 -2 205 -2q78 0 104.5 20t26.5 77q0 43 -21 62t-77 24l-107 10q-73 8 -106 40t-33 91v11q0 67 45 99.5t140 32.5q154 0 205 -2l-11 -51q-45 2 -197 2q-70 0 -98 -18.5
t-28 -63.5q0 -41 19 -61t76 -26zM217 723h61l112 -124h-59l-84 86l-83 -86h-59z" />
    <glyph glyph-name="Scedilla" unicode="&#x15e;" horiz-adv-x="566" 
d="M224 403l142 -23q83 -15 120 -55.5t37 -123.5v-12q0 -101 -59 -146t-198 -45q-154 0 -223 2l11 54q61 -2 212 -2q116 0 157 30.5t41 113.5q0 62 -25.5 90t-96.5 40l-136 23q-88 14 -124 55t-36 120v14q0 85 57 130.5t188 45.5q139 0 212 -2l-12 -54q-67 2 -202 2
q-104 0 -144 -29.5t-40 -99.5q0 -60 24.5 -88t94.5 -40zM254 -82q-39 0 -58 -1l11 43q15 1 56 1q53 0 76 -18t23 -58v-7q0 -40 -24.5 -58.5t-80.5 -18.5q-71 0 -91 3l12 43q30 -2 76 -2q31 0 42 7.5t11 29.5q0 21 -11 28.5t-42 7.5z" />
    <glyph glyph-name="scedilla" unicode="&#x15f;" horiz-adv-x="495" 
d="M195 296l105 -10q79 -8 112 -42t33 -92v-9q0 -73 -43 -109t-147 -36q-164 0 -214 2l11 51q40 -2 205 -2q78 0 104.5 20t26.5 77q0 43 -21 62t-77 24l-107 10q-73 8 -106 40t-33 91v11q0 67 45 99.5t140 32.5q154 0 205 -2l-11 -51q-45 2 -197 2q-70 0 -98 -18.5
t-28 -63.5q0 -41 19 -61t76 -26zM282 -118q0 21 -11.5 29.5t-42.5 8.5q-33 0 -56 -1l11 41q27 1 52 1q52 0 75.5 -17.5t23.5 -57.5v-7q0 -42 -24 -60t-81 -18q-48 0 -87 3l12 41q42 -2 74 -2q31 0 42.5 8.5t11.5 30.5z" />
    <glyph glyph-name="Scaron" unicode="&#x160;" horiz-adv-x="566" 
d="M224 403l142 -23q83 -15 120 -55.5t37 -123.5v-12q0 -101 -59 -146t-198 -45q-154 0 -223 2l11 54q61 -2 212 -2q116 0 157 30.5t41 113.5q0 62 -25.5 90t-96.5 40l-136 23q-88 14 -124 55t-36 120v14q0 85 57 130.5t188 45.5q139 0 212 -2l-12 -54q-67 2 -202 2
q-104 0 -144 -29.5t-40 -99.5q0 -60 24.5 -88t94.5 -40zM134 888h63l89 -80l89 80h64l-122 -115h-62z" />
    <glyph glyph-name="scaron" unicode="&#x161;" horiz-adv-x="495" 
d="M195 296l105 -10q79 -8 112 -42t33 -92v-9q0 -73 -43 -109t-147 -36q-164 0 -214 2l11 51q40 -2 205 -2q78 0 104.5 20t26.5 77q0 43 -21 62t-77 24l-107 10q-73 8 -106 40t-33 91v11q0 67 45 99.5t140 32.5q154 0 205 -2l-11 -51q-45 2 -197 2q-70 0 -98 -18.5
t-28 -63.5q0 -41 19 -61t76 -26zM277 599h-61l-112 124h59l83 -87l84 87h59z" />
    <glyph glyph-name="Tcommaaccent" unicode="&#x162;" horiz-adv-x="624" 
d="M39 712h558l-12 -54h-244v-658h-59v658h-255zM296 -82q-39 0 -58 -1l11 43q15 1 56 1q53 0 76 -18t23 -58v-7q0 -40 -24.5 -58.5t-80.5 -18.5q-71 0 -91 3l12 43q30 -2 76 -2q31 0 42 7.5t11 29.5q0 21 -11 28.5t-42 7.5z" />
    <glyph glyph-name="tcommaaccent" unicode="&#x163;" 
d="M72 174v470l58 11v-141h211l-11 -50h-200v-289q0 -75 24 -99.5t98 -24.5h77l-11 -51h-66q-104 0 -142 35.5t-38 138.5zM235 -118q0 21 -11.5 29.5t-42.5 8.5q-33 0 -56 -1l11 41q27 1 52 1q52 0 75.5 -17.5t23.5 -57.5v-7q0 -42 -24 -60t-81 -18q-48 0 -87 3l12 41
q42 -2 74 -2q31 0 42.5 8.5t11.5 30.5z" />
    <glyph glyph-name="Tcaron" unicode="&#x164;" horiz-adv-x="624" 
d="M39 712h558l-12 -54h-244v-658h-59v658h-255zM160 888h63l89 -80l89 80h64l-122 -115h-62z" />
    <glyph glyph-name="tcaron" unicode="&#x165;" 
d="M72 174v470l58 11v-141h211l-11 -50h-200v-289q0 -75 24 -99.5t98 -24.5h77l-11 -51h-66q-104 0 -142 35.5t-38 138.5zM202 743h55l-20 -168h-42z" />
    <glyph glyph-name="Tbar" unicode="&#x166;" horiz-adv-x="624" 
d="M39 712h558l-12 -54h-244v-286h180v-50h-180v-322h-59v322h-181v50h181v286h-255z" />
    <glyph glyph-name="tbar" unicode="&#x167;" horiz-adv-x="383" 
d="M79 174v80h-62v48h62v342l58 11v-141h211l-11 -50h-200v-162h193v-48h-193v-79q0 -75 24 -99.5t98 -24.5h77l-11 -51h-66q-104 0 -142 35.5t-38 138.5z" />
    <glyph glyph-name="Utilde" unicode="&#x168;" horiz-adv-x="670" 
d="M335 -18q-150 0 -205 65.5t-55 217.5v447h59v-447q0 -134 43.5 -182t157.5 -48q118 0 159.5 48.5t41.5 181.5v447h59v-447q0 -154 -57.5 -218.5t-202.5 -64.5zM341 793l-28 15q-35 19 -56 19q-32 0 -32 -48v-9h-45v9q0 96 73 96q35 0 77 -23l27 -15q35 -19 56 -19
q32 0 32 48v9h45v-9q0 -96 -73 -96q-29 0 -76 23z" />
    <glyph glyph-name="utilde" unicode="&#x169;" horiz-adv-x="566" 
d="M283 -16q-120 0 -165.5 44.5t-45.5 142.5v343h58v-337q0 -39 5 -62t20.5 -43t46.5 -28.5t81 -8.5t81 8t46.5 27.5t20.5 43t5 63.5v337h58v-343q0 -95 -45.5 -141t-165.5 -46zM289 619l-32 18q-27 17 -50 17q-32 0 -32 -50v-7h-44v8q0 95 75 95q34 0 71 -22l32 -18
q27 -17 51 -17q32 0 32 50v7h43v-8q0 -95 -74 -95q-35 0 -72 22z" />
    <glyph glyph-name="Umacron" unicode="&#x16a;" horiz-adv-x="670" 
d="M335 -18q-150 0 -205 65.5t-55 217.5v447h59v-447q0 -134 43.5 -182t157.5 -48q118 0 159.5 48.5t41.5 181.5v447h59v-447q0 -154 -57.5 -218.5t-202.5 -64.5zM205 792v48h261v-48h-261z" />
    <glyph glyph-name="umacron" unicode="&#x16b;" horiz-adv-x="566" 
d="M283 -16q-120 0 -165.5 44.5t-45.5 142.5v343h58v-337q0 -39 5 -62t20.5 -43t46.5 -28.5t81 -8.5t81 8t46.5 27.5t20.5 43t5 63.5v337h58v-343q0 -95 -45.5 -141t-165.5 -46zM153 626v48h261v-48h-261z" />
    <glyph glyph-name="Ubreve" unicode="&#x16c;" horiz-adv-x="670" 
d="M335 -18q-150 0 -205 65.5t-55 217.5v447h59v-447q0 -134 43.5 -182t157.5 -48q118 0 159.5 48.5t41.5 181.5v447h59v-447q0 -154 -57.5 -218.5t-202.5 -64.5zM335 771q-74 0 -109 30t-35 93h52q0 -41 21 -60.5t71 -19.5t71 19.5t21 60.5h52q0 -63 -35 -93t-109 -30z" />
    <glyph glyph-name="ubreve" unicode="&#x16d;" horiz-adv-x="566" 
d="M283 -16q-120 0 -165.5 44.5t-45.5 142.5v343h58v-337q0 -39 5 -62t20.5 -43t46.5 -28.5t81 -8.5t81 8t46.5 27.5t20.5 43t5 63.5v337h58v-343q0 -95 -45.5 -141t-165.5 -46zM283 596q-143 0 -143 123h51q0 -40 21 -59.5t71 -19.5t71 19.5t21 59.5h51q0 -123 -143 -123z
" />
    <glyph glyph-name="Uring" unicode="&#x16e;" horiz-adv-x="670" 
d="M335 -18q-150 0 -205 65.5t-55 217.5v447h59v-447q0 -134 43.5 -182t157.5 -48q118 0 159.5 48.5t41.5 181.5v447h59v-447q0 -154 -57.5 -218.5t-202.5 -64.5zM217 844q0 54 30.5 83t87.5 29t87.5 -29t30.5 -83t-30.5 -83t-87.5 -29t-87.5 29t-30.5 83zM406 844
q0 39 -16.5 55t-54.5 16t-54.5 -16t-16.5 -55t16.5 -55t54.5 -16t54.5 16t16.5 55z" />
    <glyph glyph-name="uring" unicode="&#x16f;" horiz-adv-x="566" 
d="M283 -16q-120 0 -165.5 44.5t-45.5 142.5v343h58v-337q0 -39 5 -62t20.5 -43t46.5 -28.5t81 -8.5t81 8t46.5 27.5t20.5 43t5 63.5v337h58v-343q0 -95 -45.5 -141t-165.5 -46zM165 680q0 54 30.5 83t87.5 29t87.5 -29t30.5 -83t-30.5 -83t-87.5 -29t-87.5 29t-30.5 83z
M354 680q0 39 -16.5 55t-54.5 16t-54.5 -16t-16.5 -55t16.5 -55t54.5 -16t54.5 16t16.5 55z" />
    <glyph glyph-name="Uhungarumlaut" unicode="&#x170;" horiz-adv-x="670" 
d="M335 -18q-150 0 -205 65.5t-55 217.5v447h59v-447q0 -134 43.5 -182t157.5 -48q118 0 159.5 48.5t41.5 181.5v447h59v-447q0 -154 -57.5 -218.5t-202.5 -64.5zM292 892h73l-105 -119h-62zM445 892h74l-106 -119h-62z" />
    <glyph glyph-name="uhungarumlaut" unicode="&#x171;" horiz-adv-x="566" 
d="M283 -16q-120 0 -165.5 44.5t-45.5 142.5v343h58v-337q0 -39 5 -62t20.5 -43t46.5 -28.5t81 -8.5t81 8t46.5 27.5t20.5 43t5 63.5v337h58v-343q0 -95 -45.5 -141t-165.5 -46zM161 599l90 126h64l-99 -126h-55zM306 599l90 126h64l-99 -126h-55z" />
    <glyph glyph-name="Uogonek" unicode="&#x172;" horiz-adv-x="670" 
d="M335 -18q-150 0 -205 65.5t-55 217.5v447h59v-447q0 -134 43.5 -182t157.5 -48q118 0 159.5 48.5t41.5 181.5v447h59v-447q0 -112 -26.5 -170t-86.5 -89q-50 -25 -75 -56.5t-25 -57.5q0 -27 43 -27h45l-11 -48h-43q-88 0 -88 63q0 52 59 105q-24 -3 -52 -3z" />
    <glyph glyph-name="uogonek" unicode="&#x173;" horiz-adv-x="566" 
d="M283 -16q-120 0 -165.5 44.5t-45.5 142.5v343h58v-337q0 -39 5 -62t20.5 -43t46.5 -28.5t81 -8.5t81 8t46.5 27.5t20.5 43t5 63.5v337h58v-343q0 -116 -66 -157q-107 -70 -107 -122q0 -27 43 -27h45l-11 -48h-43q-45 0 -66 15t-21 48q0 52 61 106q-30 -2 -46 -2z" />
    <glyph glyph-name="Wcircumflex" unicode="&#x174;" horiz-adv-x="868" 
d="M631 80l148 632h57l-172 -712h-65l-166 627l-167 -627h-65l-169 712h61l144 -632l169 632h58zM523 773l-89 79l-89 -79h-63l121 115h62l121 -115h-63z" />
    <glyph glyph-name="wcircumflex" unicode="&#x175;" horiz-adv-x="739" 
d="M497 0l-128 439l-127 -439h-62l-156 514h60l128 -449l129 449h60l128 -451l130 451h56l-156 -514h-62zM340 723h61l112 -124h-59l-84 86l-83 -86h-59z" />
    <glyph glyph-name="Ycircumflex" unicode="&#x176;" horiz-adv-x="618" 
d="M16 712h66l230 -353l227 353h63l-262 -404v-308h-59v308zM398 773l-89 79l-89 -79h-63l121 115h62l121 -115h-63z" />
    <glyph glyph-name="ycircumflex" unicode="&#x177;" horiz-adv-x="566" 
d="M103 -174l11 51q44 -3 150 -3q97 0 134 34t37 127v40q-39 -57 -160 -57q-113 0 -158 43t-45 143v310h58v-303q0 -39 4.5 -62t19.5 -43t45.5 -28.5t79.5 -8.5q94 0 125.5 32.5t31.5 113.5v299h58v-479q0 -117 -52 -164.5t-177 -47.5q-110 0 -162 3zM253 723h61l112 -124
h-59l-84 86l-83 -86h-59z" />
    <glyph glyph-name="Ydieresis" unicode="&#x178;" horiz-adv-x="618" 
d="M16 712h66l230 -353l227 353h63l-262 -404v-308h-59v308zM273 816q0 -43 -42 -43t-42 43t42 43t42 -43zM429 816q0 -43 -42 -43q-41 0 -41 43t41 43q42 0 42 -43z" />
    <glyph glyph-name="Zacute" unicode="&#x179;" horiz-adv-x="587" 
d="M39 0v51l418 607h-398l11 54h455v-52l-417 -606h435l-11 -54h-493zM352 892h76l-130 -119h-63z" />
    <glyph glyph-name="zacute" unicode="&#x17a;" horiz-adv-x="484" 
d="M435 469l-325 -418h333l-11 -51h-393v45l325 419h-316l11 50h376v-45zM170 599l119 126h71l-129 -126h-61z" />
    <glyph glyph-name="Zdotaccent" unicode="&#x17b;" horiz-adv-x="587" 
d="M39 0v51l418 607h-398l11 54h455v-52l-417 -606h435l-11 -54h-493zM332 816q0 -43 -42 -43q-41 0 -41 43t41 43q42 0 42 -43z" />
    <glyph glyph-name="zdotaccent" unicode="&#x17c;" horiz-adv-x="484" 
d="M435 469l-325 -418h333l-11 -51h-393v45l325 419h-316l11 50h376v-45zM288 659q0 -44 -43 -44t-43 44t43 44t43 -44z" />
    <glyph glyph-name="Zcaron" unicode="&#x17d;" horiz-adv-x="587" 
d="M39 0v51l418 607h-398l11 54h455v-52l-417 -606h435l-11 -54h-493zM142 888h63l89 -80l89 80h64l-122 -115h-62z" />
    <glyph glyph-name="zcaron" unicode="&#x17e;" horiz-adv-x="484" 
d="M435 469l-325 -418h333l-11 -51h-393v45l325 419h-316l11 50h376v-45zM273 599h-61l-112 124h59l83 -87l84 87h59z" />
    <glyph glyph-name="longs" unicode="&#x17f;" horiz-adv-x="202" 
d="M130 523v-523h-58v521q0 126 48 175t167 49q29 0 71 -2l-11 -51q-32 2 -59 2q-92 0 -125 -33.5t-33 -137.5z" />
    <glyph glyph-name="florin" unicode="&#x192;" horiz-adv-x="329" 
d="M130 464v-476q0 -94 -35 -129.5t-124 -35.5q-36 0 -74 2l11 49q25 -1 62 -1q61 0 81.5 23t20.5 91v534q0 126 48 175t165 49q65 0 92 -2l-11 -51q-54 2 -77 2q-95 0 -127 -34t-32 -146h203l-11 -50h-192z" />
    <glyph glyph-name="Scommaaccent" unicode="&#x218;" horiz-adv-x="566" 
d="M224 403l142 -23q83 -15 120 -55.5t37 -123.5v-12q0 -101 -59 -146t-198 -45q-154 0 -223 2l11 54q61 -2 212 -2q116 0 157 30.5t41 113.5q0 62 -25.5 90t-96.5 40l-136 23q-88 14 -124 55t-36 120v14q0 85 57 130.5t188 45.5q139 0 212 -2l-12 -54q-67 2 -202 2
q-104 0 -144 -29.5t-40 -99.5q0 -60 24.5 -88t94.5 -40zM278 -232h-45l35 91q-23 11 -23 39q0 43 43 43q42 0 42 -42q0 -16 -14 -49z" />
    <glyph glyph-name="scommaaccent" unicode="&#x219;" horiz-adv-x="495" 
d="M195 296l105 -10q79 -8 112 -42t33 -92v-9q0 -73 -43 -109t-147 -36q-164 0 -214 2l11 51q40 -2 205 -2q78 0 104.5 20t26.5 77q0 43 -21 62t-77 24l-107 10q-73 8 -106 40t-33 91v11q0 67 45 99.5t140 32.5q154 0 205 -2l-11 -51q-45 2 -197 2q-70 0 -98 -18.5
t-28 -63.5q0 -41 19 -61t76 -26zM198 -102q0 43 42 43t42 -42q0 -20 -15 -49l-37 -82h-44l34 92q-22 9 -22 38z" />
    <glyph glyph-name="uni021A" unicode="&#x21a;" horiz-adv-x="624" 
d="M39 712h558l-12 -54h-244v-658h-59v658h-255zM303 -232h-45l35 91q-23 11 -23 39q0 43 43 43q42 0 42 -42q0 -16 -14 -49z" />
    <glyph glyph-name="uni021B" unicode="&#x21b;" 
d="M72 174v470l58 11v-141h211l-11 -50h-200v-289q0 -75 24 -99.5t98 -24.5h77l-11 -51h-66q-104 0 -142 35.5t-38 138.5zM155 -102q0 43 42 43t42 -42q0 -20 -15 -49l-37 -82h-44l34 92q-22 9 -22 38z" />
    <glyph glyph-name="uni0237" unicode="&#x237;" horiz-adv-x="202" 
d="M-103 -175l11 50q16 -2 62 -2q61 0 81.5 23t20.5 91v527h58v-526q0 -94 -35 -129.5t-124 -35.5q-36 0 -74 2z" />
    <glyph glyph-name="afii57929" unicode="&#x2bc;" horiz-adv-x="243" 
d="M131 736q44 0 44 -45q0 -22 -17 -53l-55 -117h-45l51 130q-21 12 -21 39q0 46 43 46z" />
    <glyph glyph-name="circumflex" unicode="&#x2c6;" horiz-adv-x="500" 
d="M220 723h61l112 -124h-59l-84 86l-83 -86h-59z" />
    <glyph glyph-name="caron" unicode="&#x2c7;" horiz-adv-x="500" 
d="M281 599h-61l-112 124h59l83 -87l84 87h59z" />
    <glyph glyph-name="uni02C9" unicode="&#x2c9;" horiz-adv-x="500" 
d="M119 626v48h261v-48h-261z" />
    <glyph glyph-name="breve" unicode="&#x2d8;" horiz-adv-x="500" 
d="M250 596q-143 0 -143 123h51q0 -40 21 -59.5t71 -19.5t71 19.5t21 59.5h51q0 -123 -143 -123z" />
    <glyph glyph-name="dotaccent" unicode="&#x2d9;" horiz-adv-x="500" 
d="M293 659q0 -44 -43 -44t-43 44t43 44t43 -44z" />
    <glyph glyph-name="ring" unicode="&#x2da;" horiz-adv-x="500" 
d="M132 680q0 54 30.5 83t87.5 29t87.5 -29t30.5 -83t-30.5 -83t-87.5 -29t-87.5 29t-30.5 83zM321 680q0 39 -16.5 55t-54.5 16t-54.5 -16t-16.5 -55t16.5 -55t54.5 -16t54.5 16t16.5 55z" />
    <glyph glyph-name="ogonek" unicode="&#x2db;" horiz-adv-x="500" 
d="M319 -135l-11 -48h-43q-45 0 -66 15t-21 48q0 68 94 128l47 -8q-88 -56 -88 -108q0 -27 43 -27h45z" />
    <glyph glyph-name="tilde" unicode="&#x2dc;" horiz-adv-x="500" 
d="M256 619l-32 18q-27 17 -50 17q-32 0 -32 -50v-7h-44v8q0 95 75 95q34 0 71 -22l32 -18q27 -17 51 -17q32 0 32 50v7h43v-8q0 -95 -74 -95q-35 0 -72 22z" />
    <glyph glyph-name="hungarumlaut" unicode="&#x2dd;" horiz-adv-x="500" 
d="M102 599l90 126h64l-99 -126h-55zM247 599l90 126h64l-99 -126h-55z" />
    <glyph glyph-name="increment" unicode="&#x394;" horiz-adv-x="651" 
d="M629 0h-607l273 712h62zM324 652l-222 -599h445z" />
    <glyph glyph-name="Omega" unicode="&#x3a9;" horiz-adv-x="713" 
d="M67 368v44q0 174 70.5 246.5t217.5 72.5t218 -72.5t71 -246.5v-44q0 -122 -34 -195.5t-101 -120.5h157l-11 -52h-226v45q84 58 119 126t35 199v42q0 151 -52.5 208.5t-175.5 57.5q-122 0 -174.5 -57.5t-52.5 -208.5v-42q0 -131 35 -199t119 -126v-45h-235l11 52h143
q-66 47 -100 121t-34 195z" />
    <glyph glyph-name="mu" unicode="&#x3bc;" horiz-adv-x="567" 
d="M433 0h-145q-123 0 -159 54v-229h-57v689h58v-313q0 -84 30.5 -117t127.5 -33h149v463h58v-457q0 -34 -12 -45.5t-50 -11.5z" />
    <glyph glyph-name="pi" unicode="&#x3c0;" horiz-adv-x="618" 
d="M115 463h-91l11 51h559l-11 -51h-81v-463h-58v463h-270v-463h-59v463z" />
    <glyph glyph-name="Wgrave" unicode="&#x1e80;" horiz-adv-x="868" 
d="M631 80l148 632h57l-172 -712h-65l-166 627l-167 -627h-65l-169 712h61l144 -632l169 632h58zM308 892h76l117 -119h-63z" />
    <glyph glyph-name="wgrave" unicode="&#x1e81;" horiz-adv-x="739" 
d="M497 0l-128 439l-127 -439h-62l-156 514h60l128 -449l129 449h60l128 -451l130 451h56l-156 -514h-62zM313 725l119 -126h-61l-129 126h71z" />
    <glyph glyph-name="Wacute" unicode="&#x1e82;" horiz-adv-x="868" 
d="M631 80l148 632h57l-172 -712h-65l-166 627l-167 -627h-65l-169 712h61l144 -632l169 632h58zM492 892h76l-130 -119h-63z" />
    <glyph glyph-name="wacute" unicode="&#x1e83;" horiz-adv-x="739" 
d="M497 0l-128 439l-127 -439h-62l-156 514h60l128 -449l129 449h60l128 -451l130 451h56l-156 -514h-62zM295 599l119 126h71l-129 -126h-61z" />
    <glyph glyph-name="Wdieresis" unicode="&#x1e84;" horiz-adv-x="868" 
d="M631 80l148 632h57l-172 -712h-65l-166 627l-167 -627h-65l-169 712h61l144 -632l169 632h58zM398 816q0 -43 -42 -43t-42 43t42 43t42 -43zM554 816q0 -43 -42 -43q-41 0 -41 43t41 43q42 0 42 -43z" />
    <glyph glyph-name="wdieresis" unicode="&#x1e85;" horiz-adv-x="739" 
d="M497 0l-128 439l-127 -439h-62l-156 514h60l128 -449l129 449h60l128 -451l130 451h56l-156 -514h-62zM335 657q0 -42 -41 -42t-41 42t41 42t41 -42zM487 657q0 -23 -10 -32.5t-31 -9.5q-41 0 -41 42q0 23 10 32.5t31 9.5q41 0 41 -42z" />
    <glyph glyph-name="Ygrave" unicode="&#x1ef2;" horiz-adv-x="618" 
d="M16 712h66l230 -353l227 353h63l-262 -404v-308h-59v308zM185 892h76l117 -119h-63z" />
    <glyph glyph-name="ygrave" unicode="&#x1ef3;" horiz-adv-x="566" 
d="M103 -174l11 51q44 -3 150 -3q97 0 134 34t37 127v40q-39 -57 -160 -57q-113 0 -158 43t-45 143v310h58v-303q0 -39 4.5 -62t19.5 -43t45.5 -28.5t79.5 -8.5q94 0 125.5 32.5t31.5 113.5v299h58v-479q0 -117 -52 -164.5t-177 -47.5q-110 0 -162 3zM234 725l119 -126h-61
l-129 126h71z" />
    <glyph glyph-name="endash" unicode="&#x2013;" horiz-adv-x="500" 
d="M0 251v53h500v-53h-500z" />
    <glyph glyph-name="emdash" unicode="&#x2014;" horiz-adv-x="1000" 
d="M0 251v53h1000v-53h-1000z" />
    <glyph glyph-name="quoteleft" unicode="&#x2018;" horiz-adv-x="184" 
d="M65 597l56 119h41l-56 -141q25 -10 25 -39q0 -45 -44 -45q-42 0 -42 42q0 21 20 64z" />
    <glyph glyph-name="quoteright" unicode="&#x2019;" horiz-adv-x="184" 
d="M119 614l-56 -119h-41l56 140q-25 7 -25 39q0 45 44 45q42 0 42 -41q0 -22 -20 -64z" />
    <glyph glyph-name="quotesinglbase" unicode="&#x201a;" horiz-adv-x="169" 
d="M109 -17l-56 -119h-41l56 140q-25 7 -25 39q0 45 44 45q42 0 42 -41q0 -21 -20 -64z" />
    <glyph glyph-name="quotedblleft" unicode="&#x201c;" horiz-adv-x="346" 
d="M65 597l56 119h41l-56 -141q25 -10 25 -39q0 -45 -44 -45q-42 0 -42 42q0 21 20 64zM227 597l56 119h41l-56 -141q25 -10 25 -39q0 -45 -44 -45q-42 0 -42 42q0 21 20 64z" />
    <glyph glyph-name="quotedblright" unicode="&#x201d;" horiz-adv-x="346" 
d="M119 614l-56 -119h-41l56 140q-25 7 -25 39q0 45 44 45q42 0 42 -41q0 -22 -20 -64zM281 614l-56 -119h-41l56 140q-25 7 -25 39q0 45 44 45q42 0 42 -41q0 -22 -20 -64z" />
    <glyph glyph-name="quotedblbase" unicode="&#x201e;" horiz-adv-x="331" 
d="M110 -16l-56 -119h-41l56 140q-25 7 -25 39q0 45 44 45q42 0 42 -41q0 -22 -20 -64zM271 -16l-56 -119h-41l56 140q-25 7 -25 39q0 45 44 45q42 0 42 -41q0 -22 -20 -64z" />
    <glyph glyph-name="dagger" unicode="&#x2020;" horiz-adv-x="495" 
d="M218 412h-190l11 52h179v248h56v-248h193l-11 -52h-182v-587h-56v587z" />
    <glyph glyph-name="daggerdbl" unicode="&#x2021;" horiz-adv-x="495" 
d="M218 72h-190l11 52h179v291h-190l11 52h179v245h56v-245h193l-11 -52h-182v-291h193l-11 -52h-182v-247h-56v247z" />
    <glyph glyph-name="bullet" unicode="&#x2022;" horiz-adv-x="346" 
d="M271 280q0 -50 -23 -74t-75 -24t-75 24t-23 74t23 74t75 24t75 -24t23 -74z" />
    <glyph glyph-name="ellipsis" unicode="&#x2026;" horiz-adv-x="1000" 
d="M210 42q0 -47 -45 -47t-45 47q0 48 45 48t45 -48zM549 42q0 -47 -45 -47t-45 47q0 48 45 48t45 -48zM879 42q0 -47 -45 -47t-45 47q0 48 45 48t45 -48z" />
    <glyph glyph-name="perthousand" unicode="&#x2030;" horiz-adv-x="1212" 
d="M178 0l425 680h57l-425 -680h-57zM653 38q64 0 86.5 27.5t22.5 108.5v44q0 81 -22.5 108.5t-86.5 27.5q-65 0 -87.5 -27.5t-22.5 -108.5v-44q0 -81 22.5 -108.5t87.5 -27.5zM653 -9q-88 0 -125 41.5t-37 137.5v52q0 96 37 137.5t125 41.5t124.5 -41.5t36.5 -137.5v-52
q0 -96 -36.5 -137.5t-124.5 -41.5zM1026 38q64 0 86.5 27.5t22.5 108.5v44q0 81 -22.5 108.5t-86.5 27.5q-65 0 -87.5 -27.5t-22.5 -108.5v-44q0 -81 22.5 -108.5t87.5 -27.5zM1026 -9q-88 0 -125 41.5t-37 137.5v52q0 96 37 137.5t125 41.5t124.5 -41.5t36.5 -137.5v-52
q0 -96 -36.5 -137.5t-124.5 -41.5zM186 326q64 0 86.5 27.5t22.5 108.5v44q0 81 -22.5 108.5t-86.5 27.5q-65 0 -87.5 -27.5t-22.5 -108.5v-44q0 -81 22.5 -108.5t87.5 -27.5zM186 279q-88 0 -125 41.5t-37 137.5v52q0 96 37 137.5t125 41.5t124.5 -41.5t36.5 -137.5v-52
q0 -96 -36.5 -137.5t-124.5 -41.5z" />
    <glyph glyph-name="guilsinglleft" unicode="&#x2039;" horiz-adv-x="306" 
d="M33 238v56l226 170v-65l-176 -133l176 -132v-66z" />
    <glyph glyph-name="guilsinglright" unicode="&#x203a;" horiz-adv-x="306" 
d="M273 294v-56l-226 -170v65l176 133l-176 132v66z" />
    <glyph glyph-name="fraction" unicode="&#x2044;" horiz-adv-x="85" 
d="M-199 0l425 680h57l-425 -680h-57z" />
    <glyph glyph-name="uni2070" unicode="&#x2070;" 
d="M186 326q64 0 86.5 27.5t22.5 108.5v44q0 81 -22.5 108.5t-86.5 27.5q-65 0 -87.5 -27.5t-22.5 -108.5v-44q0 -81 22.5 -108.5t87.5 -27.5zM186 279q-88 0 -125 41.5t-37 137.5v52q0 96 37 137.5t125 41.5t124.5 -41.5t36.5 -137.5v-52q0 -96 -36.5 -137.5t-124.5 -41.5z
" />
    <glyph glyph-name="uni2074" unicode="&#x2074;" 
d="M232 680l-148 -258h154v116l49 8v-124h61l-10 -44h-51v-90h-49v90h-208v40l149 262h53z" />
    <glyph glyph-name="uni2075" unicode="&#x2075;" 
d="M179 478h-117v202h239l-10 -46h-181v-112h71q80 0 109.5 -24.5t29.5 -87.5v-9q0 -60 -35 -87t-116 -27q-92 0 -118 2l10 45q23 0 56 -1t55 -1q55 0 76 15t21 56v6q0 42 -17 55.5t-73 13.5z" />
    <glyph glyph-name="uni2076" unicode="&#x2076;" 
d="M301 680l-9 -46q-27 1 -86 1q-67 0 -90.5 -22.5t-23.5 -78.5v-30q27 37 102 37q68 0 102 -30t34 -97v-8q0 -127 -144 -127q-72 0 -108 32t-36 104v115q0 81 38 116t126 35q64 0 95 -1zM186 497q-50 0 -72 -18t-22 -67v-4q0 -47 21.5 -65.5t71.5 -18.5t72 18.5t22 65.5v5
q0 47 -21.5 65.5t-71.5 18.5z" />
    <glyph glyph-name="uni2077" unicode="&#x2077;" 
d="M161 288h-55l159 346h-216l10 46h259v-41z" />
    <glyph glyph-name="uni2078" unicode="&#x2078;" 
d="M186 279q-146 0 -146 114v7q0 76 71 96q-29 8 -45.5 30.5t-16.5 54.5v7q0 101 137 101q136 0 136 -101v-7q0 -68 -63 -85q73 -20 73 -96v-7q0 -114 -146 -114zM186 322q48 0 71.5 16.5t23.5 56.5v7q-2 39 -23 55.5t-72 16.5q-52 0 -73.5 -17t-21.5 -55v-7q0 -40 23 -56.5
t72 -16.5zM186 516q47 0 66.5 15.5t19.5 48.5v6q0 33 -19.5 47t-66.5 14t-66.5 -14t-19.5 -47v-6q0 -34 18.5 -49t67.5 -15z" />
    <glyph glyph-name="uni2079" unicode="&#x2079;" 
d="M69 288l9 46q27 -1 87 -1q66 0 89.5 22.5t23.5 78.5v29q-27 -36 -102 -36q-68 0 -101.5 30t-33.5 97v8q0 127 143 127q72 0 108 -32t36 -104v-115q0 -80 -38 -115.5t-125 -35.5q-67 0 -96 1zM184 471q50 0 72 18t22 67v5q0 47 -21.5 65t-71.5 18t-72 -18t-22 -65v-5
q0 -49 21.5 -67t71.5 -18z" />
    <glyph glyph-name="uni2080" unicode="&#x2080;" 
d="M186 38q64 0 86.5 27.5t22.5 108.5v44q0 81 -22.5 108.5t-86.5 27.5q-65 0 -87.5 -27.5t-22.5 -108.5v-44q0 -81 22.5 -108.5t87.5 -27.5zM186 -9q-88 0 -125 41.5t-37 137.5v52q0 96 37 137.5t125 41.5t124.5 -41.5t36.5 -137.5v-52q0 -96 -36.5 -137.5t-124.5 -41.5z
" />
    <glyph glyph-name="uni2081" unicode="&#x2081;" 
d="M216 46h100l-9 -46h-241l9 46h91v301h-100l10 45h140v-346z" />
    <glyph glyph-name="uni2082" unicode="&#x2082;" 
d="M225 185l-67 -23q-33 -12 -43.5 -29.5t-10.5 -61.5v-25h214l-9 -46h-255v68q0 60 18.5 89.5t70.5 47.5l59 20q38 12 50.5 25.5t12.5 42.5q0 31 -17.5 43t-62.5 12q-53 0 -123 -2l9 45q26 2 112 2q69 0 100.5 -22.5t31.5 -72.5v-8q0 -42 -20.5 -65.5t-69.5 -39.5z" />
    <glyph glyph-name="uni2083" unicode="&#x2083;" 
d="M309 298v-6q0 -69 -59 -83q32 -7 51 -31t19 -62v-6q0 -57 -36.5 -84t-119.5 -27q-81 0 -113 2l9 46q34 -2 107 -2q57 0 79 14t22 52v5q0 39 -20 53.5t-76 14.5h-89l9 44h76q53 0 72 14.5t19 46.5v6q0 30 -18 41t-64 11q-72 0 -115 -1l9 46q40 1 108 1t99 -23t31 -72z" />
    <glyph glyph-name="uni2084" unicode="&#x2084;" 
d="M232 392l-148 -258h154v116l49 8v-124h61l-10 -44h-51v-90h-49v90h-208v40l149 262h53z" />
    <glyph glyph-name="uni2085" unicode="&#x2085;" 
d="M179 190h-117v202h239l-10 -46h-181v-112h71q80 0 109.5 -24.5t29.5 -87.5v-9q0 -60 -35 -87t-116 -27q-92 0 -118 2l10 45q23 0 56 -1t55 -1q55 0 76 15t21 56v6q0 42 -17 55.5t-73 13.5z" />
    <glyph glyph-name="uni2086" unicode="&#x2086;" 
d="M301 392l-9 -46q-27 1 -86 1q-67 0 -90.5 -22.5t-23.5 -78.5v-30q27 37 102 37q68 0 102 -30t34 -97v-8q0 -127 -144 -127q-72 0 -108 32t-36 104v115q0 81 38 116t126 35q64 0 95 -1zM186 209q-50 0 -72 -18t-22 -67v-4q0 -47 21.5 -65.5t71.5 -18.5t72 18.5t22 65.5v5
q0 47 -21.5 65.5t-71.5 18.5z" />
    <glyph glyph-name="uni2087" unicode="&#x2087;" 
d="M161 0h-55l159 346h-216l10 46h259v-41z" />
    <glyph glyph-name="uni2088" unicode="&#x2088;" 
d="M186 -9q-146 0 -146 114v7q0 76 71 96q-29 8 -45.5 30.5t-16.5 54.5v7q0 101 137 101q136 0 136 -101v-7q0 -68 -63 -85q73 -20 73 -96v-7q0 -114 -146 -114zM186 34q48 0 71.5 16.5t23.5 56.5v7q-2 39 -23 55.5t-72 16.5q-52 0 -73.5 -17t-21.5 -55v-7q0 -40 23 -56.5
t72 -16.5zM186 228q47 0 66.5 15.5t19.5 48.5v6q0 33 -19.5 47t-66.5 14t-66.5 -14t-19.5 -47v-6q0 -34 18.5 -49t67.5 -15z" />
    <glyph glyph-name="uni2089" unicode="&#x2089;" 
d="M69 0l9 46q27 -1 87 -1q66 0 89.5 22.5t23.5 78.5v29q-27 -36 -102 -36q-68 0 -101.5 30t-33.5 97v8q0 127 143 127q72 0 108 -32t36 -104v-115q0 -80 -38 -115.5t-125 -35.5q-67 0 -96 1zM184 183q50 0 72 18t22 67v5q0 47 -21.5 65t-71.5 18t-72 -18t-22 -65v-5
q0 -49 21.5 -67t71.5 -18z" />
    <glyph glyph-name="Euro" unicode="&#x20ac;" horiz-adv-x="595" 
d="M471 401h-286v-120h297l-11 -48h-283q6 -104 55 -143.5t167 -39.5q37 0 119 2l-12 -52q-70 -2 -108 -2q-148 0 -209.5 53t-69.5 182h-86l10 48h75v120h-85l10 48h76q8 125 72 179t212 54q41 0 111 -2l-11 -52q-56 2 -100 2q-124 0 -171.5 -39t-53.5 -142h293z" />
    <glyph glyph-name="uni20B9" unicode="&#x20b9;" horiz-adv-x="595" 
d="M82 449v52h293q-4 74 -42.5 101t-138.5 27h-112v51h445l-10 -50h-148q59 -36 64 -129h94l-10 -52h-84q-5 -88 -58 -130t-163 -42h-45l315 -277h-82l-318 283v44h124q90 0 127.5 28.5t41.5 93.5h-293z" />
    <glyph glyph-name="uni20BA" unicode="&#x20ba;" horiz-adv-x="595" 
d="M462 219v25l54 12v-35q0 -122 -57.5 -171.5t-206.5 -49.5h-112v219l-75 -34v50l75 34v138l-75 -34v51l75 33v223h55v-198l215 96v-51l-215 -96v-138l215 96v-50l-215 -96v-190h57q124 0 167 34.5t43 131.5z" />
    <glyph glyph-name="afii61289" unicode="&#x2113;" horiz-adv-x="370" 
d="M102 141v69q-4 -5 -25.5 -28.5t-29.5 -33.5l-29 33l84 89v276q0 178 119 178q108 0 108 -135q0 -84 -38 -150.5t-138 -179.5v-108q0 -67 17.5 -94t57.5 -27q48 0 91 29l19 -38q-50 -38 -116 -38q-120 0 -120 158zM153 553v-230q69 82 97 138.5t28 124.5q0 49 -14.5 69.5
t-45.5 20.5q-32 0 -48.5 -28t-16.5 -95z" />
    <glyph glyph-name="trademark" unicode="&#x2122;" horiz-adv-x="833" 
d="M398 712h51l134 -213l129 213h52v-372h-48v300l-117 -190h-36l-119 190v-300h-46v372zM15 712h315l-9 -44h-128v-328h-50v328h-137z" />
    <glyph glyph-name="uni2126" unicode="&#x2126;" horiz-adv-x="713" 
d="M67 368v44q0 174 70.5 246.5t217.5 72.5t218 -72.5t71 -246.5v-44q0 -122 -34 -195.5t-101 -120.5h157l-11 -52h-226v45q84 58 119 126t35 199v42q0 151 -52.5 208.5t-175.5 57.5q-122 0 -174.5 -57.5t-52.5 -208.5v-42q0 -131 35 -199t119 -126v-45h-235l11 52h143
q-66 47 -100 121t-34 195z" />
    <glyph glyph-name="estimated" unicode="&#x212e;" horiz-adv-x="785" 
d="M389 656q-143 0 -212 -69v-211h431v211q-82 69 -219 69zM669 164l22 -15q-56 -87 -126 -123t-172 -36q-161 0 -255 99.5t-94 250.5t92.5 248t252.5 97q162 0 256 -94.5t96 -250.5h-564v-245q78 -78 217 -78q95 0 160.5 34t114.5 113z" />
    <glyph glyph-name="uni2150" unicode="&#x2150;" horiz-adv-x="839" 
d="M179 0l425 680h57l-425 -680h-57zM628 0h-55l159 346h-216l10 46h259v-41zM216 334h100l-9 -46h-241l9 46h91v301h-100l10 45h140v-346z" />
    <glyph glyph-name="uni2151" unicode="&#x2151;" horiz-adv-x="839" 
d="M181 0l425 680h57l-425 -680h-57zM536 0l9 46q27 -1 87 -1q66 0 89.5 22.5t23.5 78.5v29q-27 -36 -102 -36q-68 0 -101.5 30t-33.5 97v8q0 127 143 127q72 0 108 -32t36 -104v-115q0 -80 -38 -115.5t-125 -35.5q-67 0 -96 1zM651 183q50 0 72 18t22 67v5q0 47 -21.5 65
t-71.5 18t-72 -18t-22 -65v-5q0 -49 21.5 -67t71.5 -18zM216 334h100l-9 -46h-241l9 46h91v301h-100l10 45h140v-346z" />
    <glyph glyph-name="onethird" unicode="&#x2153;" horiz-adv-x="839" 
d="M177 0l425 680h57l-425 -680h-57zM776 298v-6q0 -69 -59 -83q32 -7 51 -31t19 -62v-6q0 -57 -36.5 -84t-119.5 -27q-81 0 -113 2l9 46q34 -2 107 -2q57 0 79 14t22 52v5q0 39 -20 53.5t-76 14.5h-89l9 44h76q53 0 72 14.5t19 46.5v6q0 30 -18 41t-64 11q-72 0 -115 -1
l9 46q40 1 108 1t99 -23t31 -72zM216 334h100l-9 -46h-241l9 46h91v301h-100l10 45h140v-346z" />
    <glyph glyph-name="twothirds" unicode="&#x2154;" horiz-adv-x="839" 
d="M178 0l425 680h57l-425 -680h-57zM776 298v-6q0 -69 -59 -83q32 -7 51 -31t19 -62v-6q0 -57 -36.5 -84t-119.5 -27q-81 0 -113 2l9 46q34 -2 107 -2q57 0 79 14t22 52v5q0 39 -20 53.5t-76 14.5h-89l9 44h76q53 0 72 14.5t19 46.5v6q0 30 -18 41t-64 11q-72 0 -115 -1
l9 46q40 1 108 1t99 -23t31 -72zM225 473l-67 -23q-33 -12 -43.5 -29.5t-10.5 -61.5v-25h214l-9 -46h-255v68q0 60 18.5 89.5t70.5 47.5l59 20q38 12 50.5 25.5t12.5 42.5q0 31 -17.5 43t-62.5 12q-53 0 -123 -2l9 45q26 2 112 2q69 0 100.5 -22.5t31.5 -72.5v-8
q0 -42 -20.5 -65.5t-69.5 -39.5z" />
    <glyph glyph-name="uni2155" unicode="&#x2155;" horiz-adv-x="839" 
d="M178 0l425 680h57l-425 -680h-57zM646 190h-117v202h239l-10 -46h-181v-112h71q80 0 109.5 -24.5t29.5 -87.5v-9q0 -60 -35 -87t-116 -27q-92 0 -118 2l10 45q22 0 55 -1t56 -1q55 0 76 15t21 56v6q0 42 -17 55.5t-73 13.5zM216 334h100l-9 -46h-241l9 46h91v301h-100
l10 45h140v-346z" />
    <glyph glyph-name="uni2156" unicode="&#x2156;" horiz-adv-x="839" 
d="M177 0l425 680h57l-425 -680h-57zM646 190h-117v202h239l-10 -46h-181v-112h71q80 0 109.5 -24.5t29.5 -87.5v-9q0 -60 -35 -87t-116 -27q-92 0 -118 2l10 45q22 0 55 -1t56 -1q55 0 76 15t21 56v6q0 42 -17 55.5t-73 13.5zM225 473l-67 -23q-33 -12 -43.5 -29.5
t-10.5 -61.5v-25h214l-9 -46h-255v68q0 60 18.5 89.5t70.5 47.5l59 20q38 12 50.5 25.5t12.5 42.5q0 31 -17.5 43t-62.5 12q-53 0 -123 -2l9 45q26 2 112 2q69 0 100.5 -22.5t31.5 -72.5v-8q0 -42 -20.5 -65.5t-69.5 -39.5z" />
    <glyph glyph-name="uni2157" unicode="&#x2157;" horiz-adv-x="839" 
d="M167 0l425 680h57l-425 -680h-57zM646 190h-117v202h239l-10 -46h-181v-112h71q80 0 109.5 -24.5t29.5 -87.5v-9q0 -60 -35 -87t-116 -27q-92 0 -118 2l10 45q22 0 55 -1t56 -1q55 0 76 15t21 56v6q0 42 -17 55.5t-73 13.5zM309 586v-6q0 -69 -59 -83q32 -7 51 -31
t19 -62v-6q0 -57 -36.5 -84t-119.5 -27q-81 0 -113 2l9 46q34 -2 107 -2q57 0 79 14t22 52v5q0 39 -20 53.5t-76 14.5h-89l9 44h76q53 0 72 14.5t19 46.5v6q0 30 -18 41t-64 11q-72 0 -115 -1l9 46q40 1 108 1t99 -23t31 -72z" />
    <glyph glyph-name="uni2158" unicode="&#x2158;" horiz-adv-x="839" 
d="M177 0l425 680h57l-425 -680h-57zM646 190h-117v202h239l-10 -46h-181v-112h71q80 0 109.5 -24.5t29.5 -87.5v-9q0 -60 -35 -87t-116 -27q-92 0 -118 2l10 45q22 0 55 -1t56 -1q55 0 76 15t21 56v6q0 42 -17 55.5t-73 13.5zM232 680l-148 -258h154v116l49 8v-124h61
l-10 -44h-51v-90h-49v90h-208v40l149 262h53z" />
    <glyph glyph-name="uni2159" unicode="&#x2159;" horiz-adv-x="839" 
d="M190 0l425 680h57l-425 -680h-57zM768 392l-9 -46q-27 1 -86 1q-67 0 -90.5 -22.5t-23.5 -78.5v-30q27 37 102 37q68 0 102 -30t34 -97v-8q0 -127 -144 -127q-72 0 -108 32t-36 104v115q0 81 38 116t126 35q64 0 95 -1zM653 209q-50 0 -72 -18t-22 -67v-4
q0 -47 21.5 -65.5t71.5 -18.5t72 18.5t22 65.5v5q0 47 -21.5 65.5t-71.5 18.5zM216 334h100l-9 -46h-241l9 46h91v301h-100l10 45h140v-346z" />
    <glyph glyph-name="uni215A" unicode="&#x215a;" horiz-adv-x="839" 
d="M179 0l425 680h57l-425 -680h-57zM768 392l-9 -46q-27 1 -86 1q-67 0 -90.5 -22.5t-23.5 -78.5v-30q27 37 102 37q68 0 102 -30t34 -97v-8q0 -127 -144 -127q-72 0 -108 32t-36 104v115q0 81 38 116t126 35q64 0 95 -1zM653 209q-50 0 -72 -18t-22 -67v-4
q0 -47 21.5 -65.5t71.5 -18.5t72 18.5t22 65.5v5q0 47 -21.5 65.5t-71.5 18.5zM179 478h-117v202h239l-10 -46h-181v-112h71q80 0 109.5 -24.5t29.5 -87.5v-9q0 -60 -35 -87t-116 -27q-92 0 -118 2l10 45q23 0 56 -1t55 -1q55 0 76 15t21 56v6q0 42 -17 55.5t-73 13.5z" />
    <glyph glyph-name="oneeighth" unicode="&#x215b;" horiz-adv-x="839" 
d="M182 0l425 680h57l-425 -680h-57zM653 -9q-146 0 -146 114v7q0 76 71 96q-29 8 -45.5 30.5t-16.5 54.5v7q0 101 137 101q136 0 136 -101v-7q0 -68 -63 -85q73 -20 73 -96v-7q0 -114 -146 -114zM653 34q48 0 71.5 16.5t23.5 56.5v7q-2 39 -23 55.5t-72 16.5
q-52 0 -73.5 -17t-21.5 -55v-7q0 -40 23 -56.5t72 -16.5zM653 228q47 0 66.5 15.5t19.5 48.5v6q0 33 -19.5 47t-66.5 14t-66.5 -14t-19.5 -47v-6q0 -34 18.5 -49t67.5 -15zM216 334h100l-9 -46h-241l9 46h91v301h-100l10 45h140v-346z" />
    <glyph glyph-name="threeeighths" unicode="&#x215c;" horiz-adv-x="839" 
d="M173 0l425 680h57l-425 -680h-57zM653 -9q-146 0 -146 114v7q0 76 71 96q-29 8 -45.5 30.5t-16.5 54.5v7q0 101 137 101q136 0 136 -101v-7q0 -68 -63 -85q73 -20 73 -96v-7q0 -114 -146 -114zM653 34q48 0 71.5 16.5t23.5 56.5v7q-2 39 -23 55.5t-72 16.5
q-52 0 -73.5 -17t-21.5 -55v-7q0 -40 23 -56.5t72 -16.5zM653 228q47 0 66.5 15.5t19.5 48.5v6q0 33 -19.5 47t-66.5 14t-66.5 -14t-19.5 -47v-6q0 -34 18.5 -49t67.5 -15zM309 586v-6q0 -69 -59 -83q32 -7 51 -31t19 -62v-6q0 -57 -36.5 -84t-119.5 -27q-81 0 -113 2l9 46
q34 -2 107 -2q57 0 79 14t22 52v5q0 39 -20 53.5t-76 14.5h-89l9 44h76q53 0 72 14.5t19 46.5v6q0 30 -18 41t-64 11q-72 0 -115 -1l9 46q40 1 108 1t99 -23t31 -72z" />
    <glyph glyph-name="fiveeighths" unicode="&#x215d;" horiz-adv-x="839" 
d="M175 0l425 680h57l-425 -680h-57zM653 -9q-146 0 -146 114v7q0 76 71 96q-29 8 -45.5 30.5t-16.5 54.5v7q0 101 137 101q136 0 136 -101v-7q0 -68 -63 -85q73 -20 73 -96v-7q0 -114 -146 -114zM653 34q48 0 71.5 16.5t23.5 56.5v7q-2 39 -23 55.5t-72 16.5
q-52 0 -73.5 -17t-21.5 -55v-7q0 -40 23 -56.5t72 -16.5zM653 228q47 0 66.5 15.5t19.5 48.5v6q0 33 -19.5 47t-66.5 14t-66.5 -14t-19.5 -47v-6q0 -34 18.5 -49t67.5 -15zM179 478h-117v202h239l-10 -46h-181v-112h71q80 0 109.5 -24.5t29.5 -87.5v-9q0 -60 -35 -87
t-116 -27q-92 0 -118 2l10 45q23 0 56 -1t55 -1q55 0 76 15t21 56v6q0 42 -17 55.5t-73 13.5z" />
    <glyph glyph-name="seveneighths" unicode="&#x215e;" horiz-adv-x="839" 
d="M139 0l425 680h57l-425 -680h-57zM653 -9q-146 0 -146 114v7q0 76 71 96q-29 8 -45.5 30.5t-16.5 54.5v7q0 101 137 101q136 0 136 -101v-7q0 -68 -63 -85q73 -20 73 -96v-7q0 -114 -146 -114zM653 34q48 0 71.5 16.5t23.5 56.5v7q-2 39 -23 55.5t-72 16.5
q-52 0 -73.5 -17t-21.5 -55v-7q0 -40 23 -56.5t72 -16.5zM653 228q47 0 66.5 15.5t19.5 48.5v6q0 33 -19.5 47t-66.5 14t-66.5 -14t-19.5 -47v-6q0 -34 18.5 -49t67.5 -15zM161 288h-55l159 346h-216l10 46h259v-41z" />
    <glyph glyph-name="partialdiff" unicode="&#x2202;" horiz-adv-x="596" 
d="M286 463q68 0 112.5 -27t60.5 -67q16 89 16 143q0 97 -47.5 135t-162.5 38q-51 0 -126 -4l17 51q59 4 110 4q142 0 203.5 -51.5t61.5 -175.5q0 -50 -29 -228q-28 -164 -85.5 -230.5t-171.5 -66.5q-95 0 -148.5 47t-53.5 140q0 22 5 60q36 232 238 232zM104 223
q-4 -25 -4 -50q0 -139 150 -139q81 0 124.5 45.5t58.5 144.5q5 24 5 51q0 138 -151 138q-81 0 -124 -45.5t-59 -144.5z" />
    <glyph glyph-name="uni2206" unicode="&#x2206;" horiz-adv-x="651" 
d="M629 0h-607l273 712h62zM324 652l-222 -599h445z" />
    <glyph glyph-name="product" unicode="&#x220f;" horiz-adv-x="738" 
d="M716 712l-11 -51h-88v-749h-59v749h-378v-749h-59v749h-99l11 51h683z" />
    <glyph glyph-name="summation" unicode="&#x2211;" horiz-adv-x="526" 
d="M326 332l-239 -365h425l-11 -54h-481v51l238 365l-218 332v51h469l-11 -54h-388z" />
    <glyph glyph-name="minus" unicode="&#x2212;" horiz-adv-x="595" 
d="M89 316v52h417v-52h-417z" />
    <glyph glyph-name="uni2215" unicode="&#x2215;" horiz-adv-x="85" 
d="M-199 0l425 680h57l-425 -680h-57z" />
    <glyph glyph-name="uni2219" unicode="&#x2219;" horiz-adv-x="174" 
d="M132 357q0 -47 -45 -47t-45 47q0 48 45 48t45 -48z" />
    <glyph glyph-name="radical" unicode="&#x221a;" horiz-adv-x="614" 
d="M122 435l-117 -63v56l151 81l171 -450l238 820h59l-263 -884h-67z" />
    <glyph glyph-name="infinity" unicode="&#x221e;" horiz-adv-x="692" 
d="M85 352v-8q0 -113 102 -113q42 0 73 24.5t58 92.5q-26 67 -57.5 92t-73.5 25q-102 0 -102 -113zM346 298q-49 -117 -162 -117q-70 0 -111 42t-41 119v12q0 77 41 118.5t111 41.5q114 0 162 -116q47 116 162 116q70 0 111 -42t41 -119v-11q0 -77 -41 -119t-111 -42
q-117 0 -162 117zM606 344v7q0 114 -101 114q-42 0 -74.5 -25t-56.5 -92q24 -67 56.5 -92t74.5 -25q101 0 101 113z" />
    <glyph glyph-name="integral" unicode="&#x222b;" horiz-adv-x="310" 
d="M18 -188l8 52q34 -2 67 -2q56 0 76.5 19t20.5 67q0 38 -10 94l-108 594q-12 65 -12 107q0 136 156 136q31 0 77 -2l-9 -52q-40 2 -67 2q-56 0 -76.5 -19t-20.5 -67q0 -40 10 -93l108 -595q12 -65 12 -107q0 -136 -155 -136q-47 0 -77 2z" />
    <glyph glyph-name="approxequal" unicode="&#x2248;" horiz-adv-x="595" 
d="M463 287h52v-27q0 -123 -95 -123q-46 0 -118 44l-15 9q-42 25 -62.5 34.5t-43.5 9.5q-48 0 -48 -69v-27h-52v27q0 123 95 123q46 0 118 -44l15 -9q42 -25 62.5 -34.5t43.5 -9.5q48 0 48 69v27zM463 511h52v-27q0 -123 -95 -123q-46 0 -118 44l-15 9q-42 25 -62.5 34.5
t-43.5 9.5q-48 0 -48 -69v-27h-52v27q0 123 95 123q46 0 118 -44l15 -9q42 -25 62.5 -34.5t43.5 -9.5q48 0 48 69v27z" />
    <glyph glyph-name="notequal" unicode="&#x2260;" horiz-adv-x="595" 
d="M89 418v52h259l66 108h55l-66 -108h103v-52h-135l-93 -153h228v-52h-260l-66 -109h-55l66 109h-102v52h134l93 153h-227z" />
    <glyph glyph-name="lessequal" unicode="&#x2264;" horiz-adv-x="595" 
d="M89 1v52h417v-52h-417zM91 316v53l414 178v-55l-353 -150l353 -148v-57z" />
    <glyph glyph-name="greaterequal" unicode="&#x2265;" horiz-adv-x="595" 
d="M89 1v52h417v-52h-417zM504 369v-53l-414 -179v57l352 148l-352 150v55z" />
    <glyph glyph-name="lozenge" unicode="&#x25ca;" horiz-adv-x="583" 
d="M555 356l-237 -356h-52l-238 356l237 356h52zM93 356l199 -298l198 298l-199 297z" />
    <glyph glyph-name="uniF001" unicode="&#xf001;" horiz-adv-x="513" 
d="M307 694q-105 0 -141 -39.5t-36 -140.5h191l-11 -50h-180v-464h-58v502q0 132 51.5 187.5t183.5 55.5q27 0 123 -2l-11 -51q-62 2 -112 2zM383 514h58v-514h-58v514z" />
    <glyph glyph-name="uniF002" unicode="&#xf002;" horiz-adv-x="525" 
d="M285 745q31 0 65 -2l-11 -51q-24 2 -50 2q-95 0 -127 -34t-32 -146h193l-11 -50h-182v-464h-58v521q0 126 48 175t165 49zM395 0v743h58v-743h-58z" />
    <glyph glyph-name="uniF507" unicode="&#xf507;" horiz-adv-x="839" 
d="M178 0l425 680h57l-425 -680h-57zM628 0h-55l159 346h-216l10 46h259v-41zM225 473l-67 -23q-33 -12 -43.5 -29.5t-10.5 -61.5v-25h214l-9 -46h-255v68q0 60 18.5 89.5t70.5 47.5l59 20q38 12 50.5 25.5t12.5 42.5q0 31 -17.5 43t-62.5 12q-53 0 -123 -2l9 45q26 2 112 2
q69 0 100.5 -22.5t31.5 -72.5v-8q0 -42 -20.5 -65.5t-69.5 -39.5z" />
    <glyph glyph-name="uniF508" unicode="&#xf508;" horiz-adv-x="839" 
d="M165 0l425 680h57l-425 -680h-57zM628 0h-55l159 346h-216l10 46h259v-41zM309 586v-6q0 -69 -59 -83q32 -7 51 -31t19 -62v-6q0 -57 -36.5 -84t-119.5 -27q-81 0 -113 2l9 46q34 -2 107 -2q57 0 79 14t22 52v5q0 39 -20 53.5t-76 14.5h-89l9 44h76q53 0 72 14.5t19 46.5
v6q0 30 -18 41t-64 11q-72 0 -115 -1l9 46q40 1 108 1t99 -23t31 -72z" />
    <glyph glyph-name="uniF509" unicode="&#xf509;" horiz-adv-x="839" 
d="M177 0l425 680h57l-425 -680h-57zM628 0h-55l159 346h-216l10 46h259v-41zM232 680l-148 -258h154v116l49 8v-124h61l-10 -44h-51v-90h-49v90h-208v40l149 262h53z" />
    <glyph glyph-name="uniF50A" unicode="&#xf50a;" horiz-adv-x="839" 
d="M165 0l425 680h57l-425 -680h-57zM628 0h-55l159 346h-216l10 46h259v-41zM179 478h-117v202h239l-10 -46h-181v-112h71q80 0 109.5 -24.5t29.5 -87.5v-9q0 -60 -35 -87t-116 -27q-92 0 -118 2l10 45q23 0 56 -1t55 -1q55 0 76 15t21 56v6q0 42 -17 55.5t-73 13.5z" />
    <glyph glyph-name="uniF50B" unicode="&#xf50b;" horiz-adv-x="839" 
d="M173 0l425 680h57l-425 -680h-57zM628 0h-55l159 346h-216l10 46h259v-41zM301 680l-9 -46q-27 1 -86 1q-67 0 -90.5 -22.5t-23.5 -78.5v-30q27 37 102 37q68 0 102 -30t34 -97v-8q0 -127 -144 -127q-72 0 -108 32t-36 104v115q0 81 38 116t126 35q64 0 95 -1zM186 497
q-50 0 -72 -18t-22 -67v-4q0 -47 21.5 -65.5t71.5 -18.5t72 18.5t22 65.5v5q0 47 -21.5 65.5t-71.5 18.5z" />
    <glyph glyph-name="uniF50D" unicode="&#xf50d;" horiz-adv-x="839" 
d="M181 0l425 680h57l-425 -680h-57zM536 0l9 46q27 -1 87 -1q66 0 89.5 22.5t23.5 78.5v29q-27 -36 -102 -36q-68 0 -101.5 30t-33.5 97v8q0 127 143 127q72 0 108 -32t36 -104v-115q0 -80 -38 -115.5t-125 -35.5q-67 0 -96 1zM651 183q50 0 72 18t22 67v5q0 47 -21.5 65
t-71.5 18t-72 -18t-22 -65v-5q0 -49 21.5 -67t71.5 -18zM225 473l-67 -23q-33 -12 -43.5 -29.5t-10.5 -61.5v-25h214l-9 -46h-255v68q0 60 18.5 89.5t70.5 47.5l59 20q38 12 50.5 25.5t12.5 42.5q0 31 -17.5 43t-62.5 12q-53 0 -123 -2l9 45q26 2 112 2q69 0 100.5 -22.5
t31.5 -72.5v-8q0 -42 -20.5 -65.5t-69.5 -39.5z" />
    <glyph glyph-name="uniF50E" unicode="&#xf50e;" horiz-adv-x="839" 
d="M180 0l425 680h57l-425 -680h-57zM536 0l9 46q27 -1 87 -1q66 0 89.5 22.5t23.5 78.5v29q-27 -36 -102 -36q-68 0 -101.5 30t-33.5 97v8q0 127 143 127q72 0 108 -32t36 -104v-115q0 -80 -38 -115.5t-125 -35.5q-67 0 -96 1zM651 183q50 0 72 18t22 67v5q0 47 -21.5 65
t-71.5 18t-72 -18t-22 -65v-5q0 -49 21.5 -67t71.5 -18zM232 680l-148 -258h154v116l49 8v-124h61l-10 -44h-51v-90h-49v90h-208v40l149 262h53z" />
    <glyph glyph-name="uniF50F" unicode="&#xf50f;" horiz-adv-x="839" 
d="M176 0l425 680h57l-425 -680h-57zM536 0l9 46q27 -1 87 -1q66 0 89.5 22.5t23.5 78.5v29q-27 -36 -102 -36q-68 0 -101.5 30t-33.5 97v8q0 127 143 127q72 0 108 -32t36 -104v-115q0 -80 -38 -115.5t-125 -35.5q-67 0 -96 1zM651 183q50 0 72 18t22 67v5q0 47 -21.5 65
t-71.5 18t-72 -18t-22 -65v-5q0 -49 21.5 -67t71.5 -18zM179 478h-117v202h239l-10 -46h-181v-112h71q80 0 109.5 -24.5t29.5 -87.5v-9q0 -60 -35 -87t-116 -27q-92 0 -118 2l10 45q23 0 56 -1t55 -1q55 0 76 15t21 56v6q0 42 -17 55.5t-73 13.5z" />
    <glyph glyph-name="uniF510" unicode="&#xf510;" horiz-adv-x="839" 
d="M139 0l425 680h57l-425 -680h-57zM536 0l9 46q27 -1 87 -1q66 0 89.5 22.5t23.5 78.5v29q-27 -36 -102 -36q-68 0 -101.5 30t-33.5 97v8q0 127 143 127q72 0 108 -32t36 -104v-115q0 -80 -38 -115.5t-125 -35.5q-67 0 -96 1zM651 183q50 0 72 18t22 67v5q0 47 -21.5 65
t-71.5 18t-72 -18t-22 -65v-5q0 -49 21.5 -67t71.5 -18zM161 288h-55l159 346h-216l10 46h259v-41z" />
    <glyph glyph-name="uniF511" unicode="&#xf511;" horiz-adv-x="839" 
d="M178 0l425 680h57l-425 -680h-57zM536 0l9 46q27 -1 87 -1q66 0 89.5 22.5t23.5 78.5v29q-27 -36 -102 -36q-68 0 -101.5 30t-33.5 97v8q0 127 143 127q72 0 108 -32t36 -104v-115q0 -80 -38 -115.5t-125 -35.5q-67 0 -96 1zM651 183q50 0 72 18t22 67v5q0 47 -21.5 65
t-71.5 18t-72 -18t-22 -65v-5q0 -49 21.5 -67t71.5 -18zM186 279q-146 0 -146 114v7q0 76 71 96q-29 8 -45.5 30.5t-16.5 54.5v7q0 101 137 101q136 0 136 -101v-7q0 -68 -63 -85q73 -20 73 -96v-7q0 -114 -146 -114zM186 322q48 0 71.5 16.5t23.5 56.5v7q-2 39 -23 55.5
t-72 16.5q-52 0 -73.5 -17t-21.5 -55v-7q0 -40 23 -56.5t72 -16.5zM186 516q47 0 66.5 15.5t19.5 48.5v6q0 33 -19.5 47t-66.5 14t-66.5 -14t-19.5 -47v-6q0 -34 18.5 -49t67.5 -15z" />
    <glyph glyph-name="uniF6C3" unicode="&#xf6c3;" horiz-adv-x="500" 
d="M214 -102q0 43 42 43t42 -42q0 -20 -15 -49l-37 -82h-44l34 92q-22 9 -22 38z" />
    <glyph glyph-name="uniF800" unicode="&#xf800;" horiz-adv-x="595" 
d="M298 36q102 0 140.5 48.5t38.5 189.5v131q0 141 -38.5 190t-140.5 49q-101 0 -139 -48.5t-38 -190.5v-131q0 -141 38 -189.5t139 -48.5zM298 696q131 0 185 -67.5t54 -220.5v-136q0 -153 -54 -220.5t-185 -67.5q-132 0 -185 67t-53 221v136q0 154 53 221t185 67z" />
    <glyph glyph-name="uniF801" unicode="&#xf801;" horiz-adv-x="595" 
d="M461 50l-10 -50h-325l11 50h131v580h-138l11 50h185v-630h135z" />
    <glyph glyph-name="uniF802" unicode="&#xf802;" horiz-adv-x="595" 
d="M362 325l-116 -48q-63 -25 -85 -58.5t-22 -99.5v-67h349l-10 -52h-397v113q0 85 31.5 133t111.5 81l115 48q54 22 74.5 49.5t20.5 81.5q0 67 -30.5 95.5t-104.5 28.5q-151 0 -198 -2l10 52q45 2 187 2q102 0 148.5 -41.5t46.5 -127.5v-12q0 -68 -31.5 -108.5t-99.5 -67.5
z" />
    <glyph glyph-name="uniF803" unicode="&#xf803;" horiz-adv-x="595" 
d="M91 628l11 52q40 2 181 2q102 0 151 -39.5t49 -121.5v-12q0 -119 -94 -155q57 -14 82.5 -51.5t25.5 -104.5v-14q0 -95 -51 -140.5t-164 -45.5q-156 0 -211 2l11 52q45 -2 206 -2q81 0 115.5 31.5t34.5 103.5v12q0 67 -32.5 97.5t-111.5 30.5h-169l10 52h160
q68 0 98.5 31.5t30.5 94.5v12q0 62 -32 88.5t-110 26.5q-146 0 -191 -2z" />
    <glyph glyph-name="uniF804" unicode="&#xf804;" horiz-adv-x="595" 
d="M533 207l-11 -51h-76v-156h-57v156h-341v44l280 480h62l-278 -473h277v240l57 10v-250h87z" />
    <glyph glyph-name="uniF805" unicode="&#xf805;" horiz-adv-x="595" 
d="M498 224v-28q0 -111 -51.5 -154.5t-181.5 -43.5q-135 0 -177 2l11 53q65 -3 166 -3q103 0 138 29t35 118v27q0 78 -34 103.5t-129 25.5h-171v327h368l-11 -51h-301v-225h120q122 0 170 -40t48 -140z" />
    <glyph glyph-name="uniF806" unicode="&#xf806;" horiz-adv-x="595" 
d="M146 435v-74q45 72 168 72q106 0 157.5 -50t51.5 -164v-18q0 -217 -216 -217q-113 0 -166 54t-53 180v207q0 143 55 200t190 57q101 0 146 -2l-10 -52q-46 2 -137 2q-109 0 -147.5 -43t-38.5 -152zM307 34q81 0 119 38.5t38 130.5v14q0 93 -35.5 129.5t-116.5 36.5
q-35 0 -62 -6t-52 -21t-38.5 -47t-13.5 -79v-22q0 -97 38 -135.5t123 -38.5z" />
    <glyph glyph-name="uniF807" unicode="&#xf807;" horiz-adv-x="595" 
d="M248 0h-63l247 629h-363l11 51h413v-47z" />
    <glyph glyph-name="uniF808" unicode="&#xf808;" horiz-adv-x="595" 
d="M297 696q112 0 163 -43.5t51 -127.5v-17q0 -57 -28.5 -96t-79.5 -54q57 -15 89 -56t32 -106v-22q0 -98 -56 -144t-171 -46q-113 0 -169.5 46t-56.5 144v22q0 65 32 106t88 56q-51 15 -79 54t-28 96v17q0 171 213 171zM297 333q-92 0 -129.5 -34t-37.5 -106v-15
q0 -77 39.5 -110.5t127.5 -33.5t128 33.5t40 110.5v15q0 71 -38 105.5t-130 34.5zM298 647q-86 0 -121.5 -29t-35.5 -93v-17q0 -62 34.5 -94t121.5 -32q88 0 122.5 32t34.5 94v17q0 65 -35 93.5t-121 28.5z" />
    <glyph glyph-name="uniF809" unicode="&#xf809;" horiz-adv-x="595" 
d="M450 245v74q-45 -72 -168 -72q-106 0 -157.5 50t-51.5 164v18q0 217 216 217q114 0 166 -54t52 -180v-207q0 -143 -55 -200t-190 -57q-106 0 -146 2l11 52q45 -2 137 -2q109 0 147.5 43t38.5 152zM289 646q-82 0 -119.5 -38.5t-37.5 -130.5v-14q0 -93 35.5 -129.5
t115.5 -36.5q76 0 121.5 32t45.5 122v21q0 97 -38.5 135.5t-122.5 38.5z" />
    <glyph glyph-name="uniF80A" unicode="&#xf80a;" 
d="M186 446q64 0 86.5 27.5t22.5 108.5v44q0 81 -22.5 108.5t-86.5 27.5q-65 0 -87.5 -27.5t-22.5 -108.5v-44q0 -81 22.5 -108.5t87.5 -27.5zM186 399q-88 0 -125 41.5t-37 137.5v52q0 96 37 137.5t125 41.5t124.5 -41.5t36.5 -137.5v-52q0 -96 -36.5 -137.5t-124.5 -41.5z
" />
    <glyph glyph-name="uniF80B" unicode="&#xf80b;" 
d="M216 454h100l-9 -46h-241l9 46h91v301h-100l10 45h140v-346z" />
    <glyph glyph-name="uniF80C" unicode="&#xf80c;" 
d="M225 593l-67 -23q-33 -12 -43.5 -29.5t-10.5 -61.5v-25h214l-9 -46h-255v68q0 60 18.5 89.5t70.5 47.5l59 20q38 12 50.5 25.5t12.5 42.5q0 31 -17.5 43t-62.5 12q-53 0 -123 -2l9 45q26 2 112 2q69 0 100.5 -22.5t31.5 -72.5v-8q0 -42 -20.5 -65.5t-69.5 -39.5z" />
    <glyph glyph-name="uniF80D" unicode="&#xf80d;" 
d="M309 706v-6q0 -69 -59 -83q32 -7 51 -31t19 -62v-6q0 -57 -36.5 -84t-119.5 -27q-81 0 -113 2l9 46q34 -2 107 -2q57 0 79 14t22 52v5q0 39 -20 53.5t-76 14.5h-89l9 44h76q53 0 72 14.5t19 46.5v6q0 30 -18 41t-64 11q-72 0 -115 -1l9 46q40 1 108 1t99 -23t31 -72z" />
    <glyph glyph-name="uniF80E" unicode="&#xf80e;" 
d="M232 800l-148 -258h154v116l49 8v-124h61l-10 -44h-51v-90h-49v90h-208v40l149 262h53z" />
    <glyph glyph-name="uniF80F" unicode="&#xf80f;" 
d="M179 598h-117v202h239l-10 -46h-181v-112h71q80 0 109.5 -24.5t29.5 -87.5v-9q0 -60 -35 -87t-116 -27q-92 0 -118 2l10 45q23 0 56 -1t55 -1q55 0 76 15t21 56v6q0 42 -17 55.5t-73 13.5z" />
    <glyph glyph-name="uniF810" unicode="&#xf810;" 
d="M301 800l-9 -46q-27 1 -86 1q-67 0 -90.5 -22.5t-23.5 -78.5v-30q27 37 102 37q68 0 102 -30t34 -97v-8q0 -127 -144 -127q-72 0 -108 32t-36 104v115q0 81 38 116t126 35q64 0 95 -1zM186 617q-50 0 -72 -18t-22 -67v-4q0 -47 21.5 -65.5t71.5 -18.5t72 18.5t22 65.5v5
q0 47 -21.5 65.5t-71.5 18.5z" />
    <glyph glyph-name="uniF811" unicode="&#xf811;" 
d="M161 408h-55l159 346h-216l10 46h259v-41z" />
    <glyph glyph-name="uniF812" unicode="&#xf812;" 
d="M186 399q-146 0 -146 114v7q0 76 71 96q-29 8 -45.5 30.5t-16.5 54.5v7q0 101 137 101q136 0 136 -101v-7q0 -68 -63 -85q73 -20 73 -96v-7q0 -114 -146 -114zM186 442q48 0 71.5 16.5t23.5 56.5v7q-2 39 -23 55.5t-72 16.5q-52 0 -73.5 -17t-21.5 -55v-7q0 -40 23 -56.5
t72 -16.5zM186 636q47 0 66.5 15.5t19.5 48.5v6q0 33 -19.5 47t-66.5 14t-66.5 -14t-19.5 -47v-6q0 -34 18.5 -49t67.5 -15z" />
    <glyph glyph-name="uniF813" unicode="&#xf813;" 
d="M69 408l9 46q27 -1 87 -1q66 0 89.5 22.5t23.5 78.5v29q-27 -36 -102 -36q-68 0 -101.5 30t-33.5 97v8q0 127 143 127q72 0 108 -32t36 -104v-115q0 -80 -38 -115.5t-125 -35.5q-67 0 -96 1zM184 591q50 0 72 18t22 67v5q0 47 -21.5 65t-71.5 18t-72 -18t-22 -65v-5
q0 -49 21.5 -67t71.5 -18z" />
    <glyph glyph-name="uniF814" unicode="&#xf814;" 
d="M186 -81q64 0 86.5 27.5t22.5 108.5v44q0 81 -22.5 108.5t-86.5 27.5q-65 0 -87.5 -27.5t-22.5 -108.5v-44q0 -81 22.5 -108.5t87.5 -27.5zM186 -128q-88 0 -125 41.5t-37 137.5v52q0 96 37 137.5t125 41.5t124.5 -41.5t36.5 -137.5v-52q0 -96 -36.5 -137.5t-124.5 -41.5
z" />
    <glyph glyph-name="uniF815" unicode="&#xf815;" 
d="M216 -73h100l-9 -46h-241l9 46h91v301h-100l10 45h140v-346z" />
    <glyph glyph-name="uniF816" unicode="&#xf816;" 
d="M225 66l-67 -23q-33 -12 -43.5 -29.5t-10.5 -61.5v-25h214l-9 -46h-255v68q0 60 18.5 89.5t70.5 47.5l59 20q38 12 50.5 25.5t12.5 42.5q0 31 -17.5 43t-62.5 12q-53 0 -123 -2l9 45q26 2 112 2q69 0 100.5 -22.5t31.5 -72.5v-8q0 -42 -20.5 -65.5t-69.5 -39.5z" />
    <glyph glyph-name="uniF817" unicode="&#xf817;" 
d="M309 179v-6q0 -69 -59 -83q32 -7 51 -31t19 -62v-6q0 -57 -36.5 -84t-119.5 -27q-81 0 -113 2l9 46q34 -2 107 -2q57 0 79 14t22 52v5q0 39 -20 53.5t-76 14.5h-89l9 44h76q53 0 72 14.5t19 46.5v6q0 30 -18 41t-64 11q-72 0 -115 -1l9 46q40 1 108 1t99 -23t31 -72z" />
    <glyph glyph-name="uniF818" unicode="&#xf818;" 
d="M232 273l-148 -258h154v116l49 8v-124h61l-10 -44h-51v-90h-49v90h-208v40l149 262h53z" />
    <glyph glyph-name="uniF819" unicode="&#xf819;" 
d="M179 71h-117v202h239l-10 -46h-181v-112h71q80 0 109.5 -24.5t29.5 -87.5v-9q0 -60 -35 -87t-116 -27q-92 0 -118 2l10 45q23 0 56 -1t55 -1q55 0 76 15t21 56v6q0 42 -17 55.5t-73 13.5z" />
    <glyph glyph-name="uniF81A" unicode="&#xf81a;" 
d="M301 273l-9 -46q-27 1 -86 1q-67 0 -90.5 -22.5t-23.5 -78.5v-30q27 37 102 37q68 0 102 -30t34 -97v-8q0 -127 -144 -127q-72 0 -108 32t-36 104v115q0 81 38 116t126 35q64 0 95 -1zM186 90q-50 0 -72 -18t-22 -67v-4q0 -47 21.5 -65.5t71.5 -18.5t72 18.5t22 65.5v5
q0 47 -21.5 65.5t-71.5 18.5z" />
    <glyph glyph-name="uniF81B" unicode="&#xf81b;" 
d="M161 -119h-55l159 346h-216l10 46h259v-41z" />
    <glyph glyph-name="uniF81C" unicode="&#xf81c;" 
d="M186 -128q-146 0 -146 114v7q0 76 71 96q-29 8 -45.5 30.5t-16.5 54.5v7q0 101 137 101q136 0 136 -101v-7q0 -68 -63 -85q73 -20 73 -96v-7q0 -114 -146 -114zM186 -85q48 0 71.5 16.5t23.5 56.5v7q-2 39 -23 55.5t-72 16.5q-52 0 -73.5 -17t-21.5 -55v-7
q0 -40 23 -56.5t72 -16.5zM186 109q47 0 66.5 15.5t19.5 48.5v6q0 33 -19.5 47t-66.5 14t-66.5 -14t-19.5 -47v-6q0 -34 18.5 -49t67.5 -15z" />
    <glyph glyph-name="uniF81D" unicode="&#xf81d;" 
d="M69 -119l9 46q27 -1 87 -1q66 0 89.5 22.5t23.5 78.5v29q-27 -36 -102 -36q-68 0 -101.5 30t-33.5 97v8q0 127 143 127q72 0 108 -32t36 -104v-115q0 -80 -38 -115.5t-125 -35.5q-67 0 -96 1zM184 64q50 0 72 18t22 67v5q0 47 -21.5 65t-71.5 18t-72 -18t-22 -65v-5
q0 -49 21.5 -67t71.5 -18z" />
    <glyph glyph-name="NULL" horiz-adv-x="0" 
 />
    <glyph glyph-name="CR" horiz-adv-x="333" 
 />
    <glyph glyph-name="i.locl" horiz-adv-x="202" 
d="M72 0v514h58v-514h-58zM144 659q0 -44 -43 -44t-43 44t43 44t43 -44z" />
    <glyph glyph-name="glyph469" horiz-adv-x="500" 
d="M184 892h73l-105 -119h-62zM337 892h74l-106 -119h-62z" />
    <glyph glyph-name="glyph470" horiz-adv-x="500" 
d="M239 -82q-39 0 -58 -1l11 43q15 1 56 1q53 0 76 -18t23 -58v-7q0 -40 -24.5 -58.5t-80.5 -18.5q-71 0 -91 3l12 43q30 -2 76 -2q31 0 42 7.5t11 29.5q0 21 -11 28.5t-42 7.5z" />
    <glyph glyph-name="glyph471" horiz-adv-x="500" 
d="M256 793l-28 15q-35 19 -56 19q-32 0 -32 -48v-9h-45v9q0 96 73 96q35 0 77 -23l27 -15q35 -19 56 -19q32 0 32 48v9h45v-9q0 -96 -73 -96q-29 0 -76 23z" />
    <glyph glyph-name="glyph472" horiz-adv-x="500" 
d="M319 -135l-11 -48h-43q-88 0 -88 63q0 70 94 128l48 -8q-88 -56 -88 -108q0 -27 43 -27h45z" />
    <glyph glyph-name="glyph473" horiz-adv-x="500" 
d="M132 844q0 54 30.5 83t87.5 29t87.5 -29t30.5 -83t-30.5 -83t-87.5 -29t-87.5 29t-30.5 83zM321 844q0 39 -16.5 55t-54.5 16t-54.5 -16t-16.5 -55t16.5 -55t54.5 -16t54.5 16t16.5 55z" />
    <glyph glyph-name="glyph474" horiz-adv-x="500" 
d="M98 888h63l89 -80l89 80h64l-122 -115h-62z" />
    <glyph glyph-name="glyph475" horiz-adv-x="500" 
d="M119 792v48h261v-48h-261z" />
    <glyph glyph-name="glyph476" horiz-adv-x="500" 
d="M214 816q0 -43 -42 -43t-42 43t42 43t42 -43zM370 816q0 -43 -42 -43q-41 0 -41 43t41 43q42 0 42 -43z" />
    <glyph glyph-name="glyph477" horiz-adv-x="500" 
d="M292 816q0 -43 -42 -43q-41 0 -41 43t41 43q42 0 42 -43z" />
    <glyph glyph-name="glyph478" horiz-adv-x="500" 
d="M340 773l-89 79l-89 -79h-63l121 115h62l121 -115h-63z" />
    <glyph glyph-name="glyph479" horiz-adv-x="500" 
d="M268 892h76l-130 -119h-63z" />
    <glyph glyph-name="glyph480" horiz-adv-x="500" 
d="M156 892h76l117 -119h-63z" />
    <glyph glyph-name="glyph481" horiz-adv-x="500" 
d="M250 771q-74 0 -109 30t-35 93h52q0 -41 21 -60.5t71 -19.5t71 19.5t21 60.5h52q0 -63 -35 -93t-109 -30z" />
    <glyph glyph-name="glyph482" horiz-adv-x="500" 
d="M247 -232h-45l35 91q-23 11 -23 39q0 43 43 43q42 0 42 -42q0 -16 -14 -49z" />
    <glyph glyph-name="glyph483" horiz-adv-x="500" 
d="M227 743h55l-21 -175h-41z" />
    <glyph glyph-name="glyph485" horiz-adv-x="500" 
d="M252 788h46l-35 -91q23 -11 23 -39q0 -43 -43 -43q-42 0 -42 42q0 20 15 49z" />
    <glyph glyph-name="glyph486" horiz-adv-x="500" 
d="M269 876h76l-128 -104h-63z" />
    <glyph glyph-name="glyph487" horiz-adv-x="500" 
d="M338 772l-88 79l-88 -79h-60l119 113h59l118 -113h-60z" />
    <glyph glyph-name="glyph488" horiz-adv-x="500" 
d="M226 743h55l-20 -168h-42z" />
    <glyph glyph-name="parenleft.case" horiz-adv-x="325" 
d="M305 -36l-11 -52h-13q-52 0 -83.5 6t-60 25t-42.5 56.5t-22 98.5t-8 154v207q0 93 8 154t22 98.5t42.5 56.5t60 25t83.5 6h24l-11 -52h-13q-43 0 -65.5 -4t-44 -18.5t-30.5 -46.5t-14.5 -84t-5.5 -135v-207q0 -83 5.5 -135t14.5 -84t30.5 -46.5t44 -18.5t65.5 -4h24z" />
    <glyph glyph-name="parenright.case" horiz-adv-x="325" 
d="M20 747l11 52h13q52 0 83.5 -6t60 -25t42.5 -56.5t22 -98.5t8 -154v-207q0 -93 -8 -154t-22 -98.5t-42.5 -56.5t-60 -25t-83.5 -6h-24l11 52h13q43 0 65.5 4t44 18.5t30.5 46.5t14.5 84t5.5 135v207q0 83 -5.5 135t-14.5 84t-30.5 46.5t-44 18.5t-65.5 4h-24z" />
    <glyph glyph-name="hyphen.case" horiz-adv-x="359" 
d="M313 330h-278l11 53h278z" />
    <glyph glyph-name="slash.case" horiz-adv-x="382" 
d="M289 712h59l-255 -712h-59z" />
    <glyph glyph-name="at.case" horiz-adv-x="733" 
d="M663 525v-273q0 -33 -12 -44.5t-49 -11.5h-146q-102 0 -149 36.5t-47 119.5v15q0 86 44.5 124.5t142.5 38.5q116 0 160 -50v45q0 93 -48.5 129.5t-176.5 36.5q-145 0 -203.5 -51.5t-58.5 -195.5v-157q0 -158 64.5 -212.5t248.5 -54.5q111 0 171 3l-11 -51q-57 -3 -160 -3
q-210 0 -289.5 67t-79.5 251v157q0 165 74 231.5t244 66.5q147 0 214 -50t67 -167zM455 247h152v124q0 63 -41 86.5t-113 23.5q-74 0 -105.5 -23t-31.5 -91v-13q0 -58 30 -82.5t109 -24.5z" />
    <glyph glyph-name="bracketleft.case" horiz-adv-x="333" 
d="M90 799h228l-12 -53h-160v-781h172l-12 -53h-216v887z" />
    <glyph glyph-name="backslash.case" horiz-adv-x="382" 
d="M34 712h60l254 -712h-60z" />
    <glyph glyph-name="bracketright.case" horiz-adv-x="333" 
d="M243 -88h-228l12 53h160v781h-172l12 53h216v-887z" />
    <glyph glyph-name="braceleft.case" horiz-adv-x="367" 
d="M299 799h53l-12 -51h-42q-69 0 -92 -23t-23 -79v-175q0 -50 -14 -76.5t-45 -39.5q31 -13 45 -39t14 -76v-175q0 -56 23 -79t92 -23h54l-12 -51h-41q-97 0 -135 36t-38 111v178q0 52 -18 72.5t-67 20.5h-21v50h21q49 0 67 21t18 73v178q0 74 38 110.5t135 36.5z" />
    <glyph glyph-name="braceright.case" horiz-adv-x="367" 
d="M68 -88h-53l12 51h42q69 0 92 23t23 79v176q0 50 14 76.5t45 39.5q-31 13 -45 39t-14 76v174q0 56 -23 79t-92 23h-54l12 51h41q97 0 135 -36.5t38 -110.5v-177q0 -52 18 -72.5t67 -20.5h21v-50h-21q-49 0 -67 -21t-18 -73v-179q0 -75 -38 -111t-135 -36z" />
    <glyph glyph-name="guilsinglleft.case" horiz-adv-x="306" 
d="M33 328v56l226 170v-65l-176 -133l176 -132v-66z" />
    <glyph glyph-name="bullet.case" horiz-adv-x="346" 
d="M271 356q0 -50 -23 -74t-75 -24t-75 24t-23 74t23 74t75 24t75 -24t23 -74z" />
    <glyph glyph-name="endash.case" horiz-adv-x="500" 
d="M0 329v53h500v-53h-500z" />
    <glyph glyph-name="emdash.case" horiz-adv-x="1000" 
d="M0 329v53h1000v-53h-1000z" />
    <glyph glyph-name="guilsinglright.case" horiz-adv-x="306" 
d="M273 384v-56l-226 -170v65l176 133l-176 132v66z" />
    <glyph glyph-name="exclamdown.case" horiz-adv-x="211" 
d="M82 536h46l6 -184q0 -15 0.5 -83t0.5 -85v-184h-60v184q0 17 0.5 85t0.5 83zM60 672q0 47 45 47t45 -47t-45 -47t-45 47z" />
    <glyph glyph-name="guillemotleft.case" horiz-adv-x="498" 
d="M33 330v53l199 178v-65l-153 -140l153 -139v-66zM252 330v53l199 178v-65l-153 -140l153 -139v-66z" />
    <glyph glyph-name="guillemotright.case" horiz-adv-x="498" 
d="M465 383v-53l-199 -179v66l152 139l-152 140v65zM246 383v-53l-199 -179v66l152 139l-152 140v65z" />
    </font>
</defs>
</svg>
