<?xml version="1.0" standalone="no"?>
<!DOCTYPE svg PUBLIC "-//W3C//DTD SVG 1.1//EN" "http://www.w3.org/Graphics/SVG/1.1/DTD/svg11.dtd" >
<svg>
<metadata>
Created by FontForge 20120731 at Tue Dec 15 21:08:27 2015
 By ,,,
Copyright 2014 Dalton Maag Ltd. Modification of this file requires prior written permission from Dalton Maag Ltd.
</metadata>
<defs>
<font id="Prometo-ThinItalic" horiz-adv-x="369" >
  <font-face 
    font-family="Prometo"
    font-weight="250"
    font-style="italic"
    font-stretch="normal"
    units-per-em="1000"
    panose-1="2 11 3 4 3 2 3 13 2 3"
    ascent="800"
    descent="-200"
    x-height="513"
    cap-height="712"
    bbox="-230 -222 1172 953"
    underline-thickness="93"
    underline-position="-54"
    slope="-11"
    unicode-range="U+0008-FB04"
  />
<missing-glyph horiz-adv-x="500" 
d="M450 0h-400v750h400v-750zM100 50h300v650h-300v-650z" />
    <glyph glyph-name="uniF603" unicode="ft" horiz-adv-x="678" 
d="M362 709q-90 0 -130.5 -38t-65.5 -158h204l-15 -35h-196l-93 -478h-38l100 512q26 133 77.5 183t158.5 50q13 0 42.5 -1t35.5 -1l-15 -36q-30 2 -65 2zM495 653l-27 -140h209l-15 -35h-201l-58 -301q-6 -33 -6 -56q0 -47 26 -66t85 -19h76l-15 -36h-60q-77 0 -113.5 25.5
t-36.5 89.5q0 34 7 66l90 465z" />
    <glyph glyph-name="uniFB00" unicode="ff" horiz-adv-x="621" 
d="M362 709q-90 0 -130.5 -38t-65.5 -158h204l-15 -35h-196l-93 -478h-38l100 512q26 133 77.5 183t158.5 50q13 0 42.5 -1t35.5 -1l-15 -36q-30 2 -65 2zM666 709q-90 0 -130.5 -38t-65.5 -158h204l-15 -35h-196l-93 -478h-38l100 512q26 133 77.5 183t158.5 50
q13 0 42.5 -1t35.5 -1l-15 -36q-30 2 -65 2z" />
    <glyph glyph-name="uniFB01" unicode="fi" horiz-adv-x="496" 
d="M412 709q-116 0 -168.5 -38t-77.5 -158h204l-15 -35h-196l-93 -478h-38l100 512q26 133 90 183t196 50q16 0 52 -1t42 -1l-15 -36q-38 2 -81 2zM330 0l100 513h38l-100 -513h-38z" />
    <glyph glyph-name="uniFB02" unicode="fl" horiz-adv-x="496" 
d="M362 709q-90 0 -130.5 -38t-65.5 -158h204l-15 -35h-196l-93 -478h-38l100 512q26 133 77.5 183t158.5 50q46 0 70 -2l-15 -36q-26 2 -57 2zM330 0l145 743h38l-145 -743h-38z" />
    <glyph glyph-name="uniFB03" unicode="ffi" horiz-adv-x="800" 
d="M362 709q-90 0 -130.5 -38t-65.5 -158h204l-15 -35h-196l-93 -478h-38l100 512q26 133 77.5 183t158.5 50q13 0 42.5 -1t35.5 -1l-15 -36q-30 2 -65 2zM716 709q-116 0 -168.5 -38t-77.5 -158h204l-15 -35h-196l-93 -478h-38l100 512q26 133 90 183t196 50q16 0 52 -1
t42 -1l-15 -36q-38 2 -81 2zM634 0l100 513h38l-100 -513h-38z" />
    <glyph glyph-name="uniFB04" unicode="ffl" horiz-adv-x="800" 
d="M362 709q-90 0 -130.5 -38t-65.5 -158h204l-15 -35h-196l-93 -478h-38l100 512q26 133 77.5 183t158.5 50q13 0 42.5 -1t35.5 -1l-15 -36q-30 2 -65 2zM666 709q-90 0 -130.5 -38t-65.5 -158h204l-15 -35h-196l-93 -478h-38l100 512q26 133 77.5 183t158.5 50q46 0 70 -2
l-15 -36q-26 2 -57 2zM634 0l145 743h38l-145 -743h-38z" />
    <glyph glyph-name="f_f_t.liga" unicode="fft" horiz-adv-x="982" 
d="M666 709q-90 0 -130.5 -38t-65.5 -158h204l-15 -35h-196l-93 -478h-38l100 512q26 133 77.5 183t158.5 50q13 0 42.5 -1t35.5 -1l-15 -36q-30 2 -65 2zM799 653l-27 -140h209l-15 -35h-201l-58 -301q-6 -33 -6 -56q0 -47 26 -66t85 -19h76l-15 -36h-60q-77 0 -113.5 25.5
t-36.5 89.5q0 34 7 66l90 465zM362 709q-90 0 -130.5 -38t-65.5 -158h204l-15 -35h-196l-93 -478h-38l100 512q26 133 77.5 183t158.5 50q13 0 42.5 -1t35.5 -1l-15 -36q-30 2 -65 2z" />
    <glyph glyph-name=".notdef" horiz-adv-x="500" 
d="M450 0h-400v750h400v-750zM100 50h300v650h-300v-650z" />
    <glyph glyph-name=".null" horiz-adv-x="0" 
 />
    <glyph glyph-name="nonmarkingreturn" horiz-adv-x="333" 
 />
    <glyph glyph-name="uni0008" horiz-adv-x="0" 
 />
    <glyph glyph-name="uni0008" horiz-adv-x="0" 
 />
    <glyph glyph-name="uni0008" horiz-adv-x="0" 
 />
    <glyph glyph-name="uni0009" unicode="&#x9;" horiz-adv-x="250" 
 />
    <glyph glyph-name="uni0009" unicode="&#xd;" horiz-adv-x="250" 
 />
    <glyph glyph-name="space" unicode=" " horiz-adv-x="250" 
 />
    <glyph glyph-name="exclam" unicode="!" horiz-adv-x="169" 
d="M153 712h39l-32 -171q-18 -102 -40 -199l-37 -176h-33l32 176q3 19 20 103t19 98zM48 72q31 0 31 -33q0 -43 -39 -43q-31 0 -31 33q0 43 39 43z" />
    <glyph glyph-name="quotedbl" unicode="&#x22;" horiz-adv-x="306" 
d="M297 697l9 46h40l-9 -46q-2 -10 -8.5 -43.5t-10.5 -49.5l-26 -117h-30l18 117q10 62 17 93zM141 697l9 46h40l-9 -46q-2 -10 -8.5 -43.5t-10.5 -49.5l-26 -117h-30l18 117q10 62 17 93z" />
    <glyph glyph-name="numbersign" unicode="#" horiz-adv-x="660" 
d="M641 456h-110l-78 -232h112l-14 -34h-109l-64 -190h-36l64 190h-218l-64 -190h-36l64 190h-114l14 34h111l78 232h-113l14 34h111l64 190h36l-64 -190h218l64 190h36l-64 -190h112zM277 456l-78 -232h218l78 232h-218z" />
    <glyph glyph-name="dollar" unicode="$" horiz-adv-x="595" 
d="M34 3l15 36q89 -4 144 -4h31l58 299l-33 10q-131 41 -131 142q0 21 8 55q20 72 72.5 104t151.5 35l15 78h34l-15 -78q127 0 181 -2l-15 -36q-48 2 -173 2l-55 -282l43 -12q68 -21 100 -53.5t32 -85.5q0 -19 -7 -54q-19 -85 -74 -118t-164 -39l-19 -96h-34l18 95h-28
q-66 0 -155 4zM349 314l-34 10l-56 -288q87 4 133 31.5t61 94.5q6 24 6 44q0 41 -26.5 65.5t-83.5 42.5zM163 536q-7 -24 -7 -47q0 -80 104 -108l30 -9l53 271q-82 -3 -123.5 -27.5t-56.5 -79.5z" />
    <glyph glyph-name="percent" unicode="%" horiz-adv-x="830" 
d="M131 0l554 680h44l-554 -680h-44zM385 507l-10 -51q-18 -95 -58 -136t-120 -41q-137 0 -137 123q0 26 6 59l10 51q18 94 59 135.5t120 41.5q136 0 136 -123q0 -28 -6 -59zM112 511l-10 -52q-6 -31 -6 -56q0 -51 26 -70.5t78 -19.5q59 0 90.5 29t48.5 116l10 51q6 33 6 57
q0 50 -26 69.5t-76 19.5q-62 0 -93 -29t-48 -115zM797 219l-10 -51q-18 -95 -58 -136t-120 -41q-137 0 -137 123q0 26 6 59l10 51q18 94 59 135.5t120 41.5q136 0 136 -123q0 -28 -6 -59zM524 223l-10 -52q-6 -31 -6 -56q0 -51 26 -70.5t78 -19.5q59 0 90.5 29t48.5 116
l10 51q6 33 6 57q0 50 -26 69.5t-76 19.5q-62 0 -93 -29t-48 -115z" />
    <glyph glyph-name="ampersand" unicode="&#x26;" horiz-adv-x="637" 
d="M66 230q17 63 50 99t96 50q-75 27 -75 117q0 27 5 51q16 90 76.5 129t181.5 39q111 0 145 -2l-16 -38q-62 2 -112 2q-115 0 -165.5 -23.5t-69.5 -97.5q-9 -34 -9 -59q0 -104 150 -104h290l-16 -37h-58l-60 -317q-3 -16 -10.5 -23t-28.5 -12q-67 -13 -140 -13
q-245 0 -245 161q0 38 11 78zM299 27q77 0 140 11l62 318h-173q-108 0 -156 -26.5t-67 -101.5q-11 -38 -11 -73q0 -72 53.5 -100t151.5 -28z" />
    <glyph glyph-name="quotesingle" unicode="'" horiz-adv-x="150" 
d="M141 697l9 46h40l-9 -46q-2 -10 -8.5 -43.5t-10.5 -49.5l-26 -117h-30l18 117q10 62 17 93z" />
    <glyph glyph-name="parenleft" unicode="(" horiz-adv-x="299" 
d="M367 712l-15 -36h-5q-112 0 -158 -65.5t-86 -275.5l-26 -133q-26 -135 -26 -205q0 -74 28 -105t94 -31h29l-15 -36h-16q-83 0 -120 40.5t-37 130.5q0 70 26 206l26 133q45 228 100 302.5t186 74.5h15z" />
    <glyph glyph-name="parenright" unicode=")" horiz-adv-x="299" 
d="M-62 -175l15 36h5q112 0 158 65.5t86 275.5l26 133q26 135 26 205q0 74 -28 105t-94 31h-29l15 36h16q83 0 120 -41t37 -130q0 -69 -26 -206l-26 -133q-23 -118 -44 -186.5t-54.5 -113.5t-76.5 -61t-111 -16h-15z" />
    <glyph glyph-name="asterisk" unicode="*" horiz-adv-x="395" 
d="M310 383l-63 125l-107 -125l-26 22l111 120l-124 43l14 29l125 -44l28 144h35l-32 -146l139 46l5 -32l-141 -43l67 -122z" />
    <glyph glyph-name="plus" unicode="+" horiz-adv-x="595" 
d="M253 126l38 195h-186l7 37h186l38 195h39l-38 -195h186l-7 -37h-186l-38 -195h-39z" />
    <glyph glyph-name="comma" unicode="," horiz-adv-x="160" 
d="M45 72q32 0 32 -34q0 -17 -18 -49l-85 -136h-34l82 146q-15 5 -15 31q0 42 38 42z" />
    <glyph glyph-name="hyphen" unicode="-" horiz-adv-x="365" 
d="M59 314h277l-15 -36h-277z" />
    <glyph glyph-name="period" unicode="." horiz-adv-x="160" 
d="M41 72q31 0 31 -33q0 -43 -39 -43q-31 0 -31 33q0 43 39 43z" />
    <glyph glyph-name="slash" unicode="/" horiz-adv-x="368" 
d="M30 0h-40l387 712h40z" />
    <glyph glyph-name="zero" unicode="0" horiz-adv-x="595" 
d="M549 380l-17 -88q-31 -167 -89 -237.5t-182 -70.5q-104 0 -150 46.5t-46 139.5q0 50 15 130l17 88q31 167 89 237.5t182 70.5q103 0 149.5 -47t46.5 -140q0 -49 -15 -129zM136 390l-19 -98q-14 -75 -14 -122q0 -85 39.5 -117.5t120.5 -32.5q51 0 84 10t61.5 39.5t48 82
t36.5 137.5l19 98q14 61 14 122q0 85 -39.5 117.5t-120.5 32.5q-68 0 -108 -19.5t-70.5 -78.5t-51.5 -171z" />
    <glyph glyph-name="one" unicode="1" horiz-adv-x="400" 
d="M-5 0l15 35h132l119 610h-139l15 35h168l-126 -645h143l-15 -35h-312z" />
    <glyph glyph-name="two" unicode="2" horiz-adv-x="511" 
d="M498 497q-13 -66 -50.5 -100t-109.5 -64l-98 -39q-82 -33 -117 -72t-50 -120l-13 -66h346l-15 -36h-376l21 108q18 91 59.5 137t133.5 83l98 39q64 25 94 55.5t39 81.5q4 21 4 44q0 48 -31 73t-108 25q-113 0 -177 -4l14 36q84 4 168 4q174 0 174 -132q0 -26 -6 -53z" />
    <glyph glyph-name="three" unicode="3" horiz-adv-x="478" 
d="M184 -2q-97 0 -207 2l15 36q16 0 83 -1t103 -1q87 0 135 35t59 115q3 22 3 41q0 61 -33.5 85t-110.5 24h-135l15 36h147q75 0 117.5 32.5t51.5 105.5q3 22 3 40q0 55 -30.5 76.5t-101.5 21.5q-130 0 -173 -2l15 36q45 2 165 2q84 0 124 -33t40 -102q0 -20 -3 -44
q-18 -127 -130 -155q77 -24 77 -125q0 -20 -3 -44q-12 -86 -67.5 -133.5t-158.5 -47.5z" />
    <glyph glyph-name="four" unicode="4" horiz-adv-x="502" 
d="M351 0h-37l32 164h-337l6 29l370 487h45l-367 -480h290l49 249l38 6l-50 -255h88l-15 -36h-80z" />
    <glyph glyph-name="five" unicode="5" horiz-adv-x="490" 
d="M180 34q91 0 139.5 37.5t63.5 125.5q5 32 5 51q0 61 -38 86.5t-119 25.5h-143l62 320h343l-15 -35h-297l-48 -249h105q99 0 144 -36t45 -112q0 -26 -6 -61q-33 -189 -240 -189q-129 0 -179 2l15 36q17 0 79.5 -1t83.5 -1z" />
    <glyph glyph-name="six" unicode="6" horiz-adv-x="532" 
d="M133 394l-6 -33q46 66 157 66q193 0 193 -176q0 -29 -4 -56q-17 -118 -75.5 -164.5t-148.5 -46.5q-191 0 -191 177q0 31 9 83l27 144q32 173 96.5 233.5t203.5 60.5q36 0 116 -2l-15 -36q-32 2 -104 2q-59 0 -94.5 -7.5t-69.5 -33t-56 -76.5t-38 -135zM103 235
q-8 -43 -8 -73q0 -74 39 -108t118 -34q78 0 121 36.5t60 129.5q7 34 7 66q0 72 -40 105.5t-121 33.5q-75 0 -117 -33.5t-59 -122.5z" />
    <glyph glyph-name="seven" unicode="7" horiz-adv-x="444" 
d="M76 645l15 35h395l-6 -31l-372 -649h-43l375 645h-364z" />
    <glyph glyph-name="eight" unicode="8" horiz-adv-x="533" 
d="M39 200q30 140 160 163q-88 32 -88 126q0 26 6 53q34 154 213 154q193 0 193 -143q0 -24 -6 -54q-12 -60 -50 -97.5t-100 -47.5q101 -28 101 -144q0 -30 -5 -55q-33 -171 -229 -171q-201 0 -201 159q0 27 6 57zM427 163q5 32 5 49q0 128 -163 128q-87 0 -132.5 -34
t-59.5 -109q-6 -28 -6 -53q0 -64 40 -94t127 -30q84 0 129.5 35t59.5 108zM326 660q-75 0 -116.5 -28.5t-55.5 -97.5q-5 -32 -5 -47q0 -56 38 -83.5t121 -27.5q77 0 118 31.5t54 97.5q5 32 5 48q0 55 -37.5 81t-121.5 26z" />
    <glyph glyph-name="nine" unicode="9" horiz-adv-x="532" 
d="M175 34q46 0 76 4t61 18.5t51.5 42t38.5 73.5t31 114l6 32q-45 -65 -157 -65q-193 0 -193 176q0 29 4 56q17 118 75.5 164.5t148.5 46.5q191 0 191 -178q0 -36 -8 -82l-28 -144q-17 -90 -40 -146t-59.5 -89.5t-83 -46t-117.5 -12.5q-68 0 -116 2l15 36q19 -2 104 -2z
M464 445q7 35 7 72q0 74 -39 108.5t-118 34.5q-78 0 -121 -37t-60 -129q-7 -32 -7 -66q0 -72 40 -105.5t121 -33.5q75 0 117.5 33.5t59.5 122.5z" />
    <glyph glyph-name="colon" unicode=":" horiz-adv-x="160" 
d="M128 517q31 0 31 -33q0 -43 -39 -43q-31 0 -31 33q0 43 39 43zM41 72q31 0 31 -33q0 -43 -39 -43q-31 0 -31 33q0 43 39 43z" />
    <glyph glyph-name="semicolon" unicode=";" horiz-adv-x="160" 
d="M45 72q32 0 32 -34q0 -17 -18 -49l-85 -136h-34l82 146q-15 5 -15 31q0 42 38 42zM128 517q31 0 31 -33q0 -43 -39 -43q-31 0 -31 33q0 43 39 43z" />
    <glyph glyph-name="less" unicode="&#x3c;" horiz-adv-x="595" 
d="M131 318l7 38l394 182l-8 -40l-353 -162l293 -147l-7 -37z" />
    <glyph glyph-name="equal" unicode="=" horiz-adv-x="595" 
d="M146 465h385l-8 -37h-385zM105 255h385l-8 -37h-385z" />
    <glyph glyph-name="greater" unicode="&#x3e;" horiz-adv-x="595" 
d="M500 372l-7 -38l-394 -182l8 40l352 162l-292 147l7 37z" />
    <glyph glyph-name="question" unicode="?" horiz-adv-x="448" 
d="M275 714q87 0 133.5 -32.5t46.5 -108.5q0 -24 -2 -33q-5 -36 -17 -64t-25.5 -46t-37.5 -34t-41 -24t-46 -20q-69 -29 -89.5 -50.5t-32.5 -82.5l-10 -53h-39l11 58q13 73 41.5 102t105.5 59q69 28 99 58.5t39 95.5q3 20 3 35q0 57 -35 80.5t-110 23.5q-105 0 -157 -2
l16 36q27 0 69.5 1t77.5 1zM115 72q31 0 31 -33q0 -43 -39 -43q-31 0 -31 33q0 43 39 43z" />
    <glyph glyph-name="at" unicode="@" horiz-adv-x="726" 
d="M663 336l-52 -277q-4 -21 -11.5 -28t-28.5 -11q-54 -10 -129 -10q-96 0 -146.5 31t-50.5 103q0 28 7 57q16 77 63 113.5t139 36.5q130 0 160 -72l10 51q6 31 6 58q0 69 -47.5 104t-157.5 35q-152 0 -220 -68.5t-105 -242.5q-22 -100 -22 -174q0 -118 71 -167t244 -49
q75 0 119 3l-15 -37q-37 -2 -113 -2q-181 0 -261.5 58t-80.5 198q0 68 20 168q20 95 46.5 158t69 107t102.5 64t145 20q244 0 244 -171q0 -26 -6 -56zM445 46q65 0 126 9l21 112q5 27 5 44q0 56 -35.5 80.5t-110.5 24.5q-70 0 -109 -25.5t-52 -95.5q-5 -24 -5 -47
q0 -61 40.5 -81.5t119.5 -20.5z" />
    <glyph glyph-name="A" unicode="A" horiz-adv-x="631" 
d="M16 0h-41l409 712h39l133 -712h-39l-44 238h-322zM395 665l-223 -390h295z" />
    <glyph glyph-name="B" unicode="B" horiz-adv-x="604" 
d="M35 0l139 712h217q193 0 193 -145q0 -25 -6 -55q-24 -117 -133 -143q98 -26 98 -140q0 -30 -5 -54q-17 -90 -83.5 -132.5t-194.5 -42.5h-225zM333 352h-191l-61 -316h185q102 0 159.5 32t72.5 110q6 30 6 53q0 66 -42.5 93.5t-128.5 27.5zM385 676h-179l-57 -288h179
q96 0 147.5 29t64.5 100q5 28 5 46q0 61 -40.5 87t-119.5 26z" />
    <glyph glyph-name="C" unicode="C" horiz-adv-x="567" 
d="M589 712l-15 -37q-25 0 -74 1t-60 1q-65 0 -111.5 -13t-87.5 -47.5t-69.5 -98t-47.5 -160.5q-15 -76 -15 -132q0 -107 54 -149t169 -42q23 0 72 1t62 1l-15 -37q-50 -2 -122 -2q-140 0 -200.5 55.5t-60.5 166.5q0 55 18 147q21 103 51.5 170.5t75.5 106.5t100.5 54.5
t133.5 15.5q31 0 82.5 -1t59.5 -1z" />
    <glyph glyph-name="D" unicode="D" horiz-adv-x="660" 
d="M613 347q-37 -193 -124.5 -270t-251.5 -77h-202l139 712h200q132 0 193 -57t61 -174q0 -59 -15 -134zM370 675h-165l-124 -638h162q148 0 221.5 70.5t107.5 239.5q16 74 16 134q0 102 -52 148t-166 46z" />
    <glyph glyph-name="E" unicode="E" horiz-adv-x="583" 
d="M519 385l-15 -37h-362l-61 -311h399l-15 -37h-430l139 712h430l-15 -37h-383l-57 -290h370z" />
    <glyph glyph-name="F" unicode="F" horiz-adv-x="537" 
d="M74 0h-39l139 712h412l-15 -37h-365l-58 -295h342l-15 -37h-334z" />
    <glyph glyph-name="G" unicode="G" horiz-adv-x="623" 
d="M349 -2q-153 0 -217 54.5t-64 165.5q0 57 18 149q21 103 51.5 170.5t75.5 106.5t100.5 54.5t133.5 15.5q111 0 176 -3l-15 -37q-72 3 -167 3q-66 0 -112.5 -13t-87.5 -47t-69.5 -97.5t-47.5 -160.5q-15 -78 -15 -133q0 -111 58 -151t185 -40q79 0 125 8l52 267h-155
l15 37h187l-59 -302q-4 -21 -12 -28.5t-29 -10.5q-47 -8 -127 -8z" />
    <glyph glyph-name="H" unicode="H" horiz-adv-x="682" 
d="M647 712h39l-139 -712h-39l67 347h-434l-67 -347h-39l139 712h39l-65 -329h434z" />
    <glyph glyph-name="I" unicode="I" horiz-adv-x="209" 
d="M174 712h39l-139 -712h-39z" />
    <glyph glyph-name="J" unicode="J" horiz-adv-x="421" 
d="M107 38q91 0 128.5 34.5t52.5 113.5l103 526h39l-103 -526q-19 -100 -67.5 -143t-153.5 -43q-85 0 -126 2l15 38q31 -2 112 -2z" />
    <glyph glyph-name="K" unicode="K" horiz-adv-x="606" 
d="M633 712l-451 -340l359 -372h-53l-344 358l-70 -358h-39l139 712h39l-63 -323l428 323h55z" />
    <glyph glyph-name="L" unicode="L" horiz-adv-x="524" 
d="M213 712l-132 -675h370l-15 -37h-401l139 712h39z" />
    <glyph glyph-name="M" unicode="M" horiz-adv-x="785" 
d="M401 223h-28l-174 433l-127 -656h-37l139 712h41l178 -447l356 447h40l-139 -712h-37l125 647z" />
    <glyph glyph-name="N" unicode="N" horiz-adv-x="681" 
d="M648 712h37l-139 -712h-35l-313 652l-126 -652h-37l139 712h35l312 -653z" />
    <glyph glyph-name="O" unicode="O" horiz-adv-x="687" 
d="M599 351q17 99 17 158q0 107 -47 146t-149 39q-61 0 -103.5 -13t-81 -48.5t-65 -102t-44.5 -168.5q-17 -99 -17 -158q0 -107 47 -146t149 -39q61 0 103.5 13t81 48.5t65 102t44.5 168.5zM639 348q-35 -203 -112.5 -284.5t-224.5 -81.5q-122 0 -177 51t-55 172
q0 68 16 160q35 203 112.5 284.5t224.5 81.5q121 0 176.5 -51.5t55.5 -171.5q0 -68 -16 -160z" />
    <glyph glyph-name="P" unicode="P" horiz-adv-x="589" 
d="M322 307h-188l-60 -307h-39l139 712h196q114 0 170 -37.5t56 -120.5q0 -22 -5 -54q-17 -108 -82.5 -150.5t-186.5 -42.5zM366 675h-161l-64 -331h182q109 0 159 33t68 117q7 37 7 57q0 69 -48 96.5t-143 27.5z" />
    <glyph glyph-name="Q" unicode="Q" horiz-adv-x="687" 
d="M639 348q-30 -174 -91.5 -258t-168.5 -102l123 -119h-56l-116 114q-9 -1 -28 -1q-122 0 -177 51t-55 172q0 68 16 160q35 203 112.5 284.5t224.5 81.5q121 0 176.5 -51.5t55.5 -171.5q0 -68 -16 -160zM599 351q17 99 17 158q0 107 -47 146t-149 39q-61 0 -103.5 -13
t-81 -48.5t-65 -102t-44.5 -168.5q-17 -99 -17 -158q0 -107 47 -146t149 -39q61 0 103.5 13t81 48.5t65 102t44.5 168.5z" />
    <glyph glyph-name="R" unicode="R" horiz-adv-x="613" 
d="M538 0h-43l-139 308q-11 -1 -34 -1h-188l-60 -307h-39l139 712h196q114 0 170 -37.5t56 -120.5q0 -22 -5 -54q-15 -90 -62.5 -134.5t-131.5 -54.5zM366 675h-161l-64 -331h182q109 0 159 33t68 117q7 37 7 57q0 69 -48 96.5t-143 27.5z" />
    <glyph glyph-name="S" unicode="S" horiz-adv-x="528" 
d="M2 2l15 36q93 -4 178 -4q109 0 158.5 29.5t67.5 104.5q7 25 7 52q0 43 -24.5 69.5t-77.5 44.5l-99 32q-67 21 -98 55t-31 85q0 28 9 61q21 81 79 114t170 33q131 0 187 -2l-15 -36q-48 2 -174 2q-100 0 -145 -25t-63 -89q-8 -27 -8 -53q0 -46 27 -70.5t74 -38.5l102 -33
q128 -41 128 -147q0 -30 -7 -57q-21 -93 -82.5 -130t-185.5 -37q-99 0 -192 4z" />
    <glyph glyph-name="T" unicode="T" horiz-adv-x="601" 
d="M645 675h-244l-131 -675h-39l131 675h-250l15 37h533z" />
    <glyph glyph-name="U" unicode="U" horiz-adv-x="656" 
d="M626 712h39l-94 -481q-27 -139 -92 -194t-183 -55q-113 0 -169 44t-56 141q0 39 9 89l89 456h39l-90 -461q-9 -47 -9 -82q0 -83 46.5 -117t138.5 -34q105 0 160 46.5t80 175.5z" />
    <glyph glyph-name="V" unicode="V" horiz-adv-x="612" 
d="M115 712h38l113 -662l368 662h41l-399 -712h-38z" />
    <glyph glyph-name="W" unicode="W" horiz-adv-x="841" 
d="M157 0l-33 712h38l27 -660l302 660h38l41 -660l285 660h40l-313 -712h-43l-41 651l-298 -651h-43z" />
    <glyph glyph-name="X" unicode="X" horiz-adv-x="613" 
d="M667 712l-314 -346l195 -366h-43l-181 341l-312 -341h-47l342 373l-183 339h43l168 -314l286 314h46z" />
    <glyph glyph-name="Y" unicode="Y" horiz-adv-x="591" 
d="M107 712h41l164 -365l304 365h46l-335 -400l-60 -312h-39l61 312z" />
    <glyph glyph-name="Z" unicode="Z" horiz-adv-x="569" 
d="M144 675l15 37h439l-7 -36l-540 -639h430l-15 -37h-471l7 35l541 640h-399z" />
    <glyph glyph-name="bracketleft" unicode="[" horiz-adv-x="331" 
d="M384 675h-164l-159 -813h173l-15 -37h-203l173 887h210z" />
    <glyph glyph-name="backslash" unicode="\" horiz-adv-x="368" 
d="M130 712h36l112 -712h-36z" />
    <glyph glyph-name="bracketright" unicode="]" horiz-adv-x="331" 
d="M-63 -175l15 37h164l159 813h-173l15 37h203l-173 -887h-210z" />
    <glyph glyph-name="asciicircum" unicode="^" horiz-adv-x="595" 
d="M466 411l-86 266l-189 -266h-44l218 301h42l100 -301h-41z" />
    <glyph glyph-name="underscore" unicode="_" horiz-adv-x="500" 
d="M-80 -175l7 38h498l-7 -38h-498z" />
    <glyph glyph-name="grave" unicode="`" horiz-adv-x="500" 
d="M302 725l101 -126h-39l-109 126h47z" />
    <glyph glyph-name="a" unicode="a" horiz-adv-x="535" 
d="M238 -9q-101 0 -152.5 31t-51.5 104q0 24 6 52q17 77 67.5 112t137.5 35q140 0 174 -72l13 66q7 37 7 57q0 54 -34 78.5t-113 24.5q-117 0 -152 -2l15 36q26 2 141 2q179 0 179 -137q0 -33 -7 -65l-54 -273q-5 -21 -13 -28t-28 -11q-56 -10 -135 -10zM242 27q55 0 134 9
l20 105q5 27 5 44q0 58 -39 81.5t-118 23.5q-73 0 -112.5 -27.5t-53.5 -90.5q-5 -27 -5 -43q0 -32 12 -53t37 -31.5t52.5 -14t67.5 -3.5z" />
    <glyph glyph-name="b" unicode="b" horiz-adv-x="570" 
d="M255 -16q-92 0 -140 40.5t-48 134.5q0 44 12 106l93 478h38l-58 -297q58 83 183 83q92 0 140 -42t48 -138q0 -51 -11 -106q-25 -137 -82.5 -198t-174.5 -61zM260 20q93 0 140.5 48.5t71.5 172.5q13 70 13 111q0 77 -36.5 109t-118.5 32q-87 0 -138 -49.5t-74 -171.5
q-13 -70 -13 -111q0 -77 36.5 -109t118.5 -32z" />
    <glyph glyph-name="c" unicode="c" horiz-adv-x="450" 
d="M253 34q34 0 104 2l-15 -36q-18 -2 -96 -2q-106 0 -153 43.5t-47 127.5q0 48 12 105q15 74 39 122.5t61 74t78.5 35t100.5 9.5q27 0 99 -2l-15 -36q-46 2 -89 2q-106 0 -158 -42t-77 -165q-12 -58 -12 -100q0 -79 41.5 -108.5t126.5 -29.5z" />
    <glyph glyph-name="d" unicode="d" horiz-adv-x="559" 
d="M57 269q12 65 31.5 112.5t42.5 75.5t54.5 44.5t61 22t66.5 5.5q65 0 109 -22.5t58 -61.5l58 298h38l-137 -702q-5 -22 -13.5 -29.5t-27.5 -10.5q-54 -10 -124 -10q-119 0 -173 42t-54 139q0 46 10 97zM310 493q-42 0 -72 -8.5t-58.5 -31t-48.5 -67.5t-33 -114
q-11 -61 -11 -98q0 -80 44 -113.5t145 -33.5q60 0 124 9l56 284q5 32 5 49q0 124 -151 124z" />
    <glyph glyph-name="e" unicode="e" horiz-adv-x="512" 
d="M279 244h-189q-7 -38 -7 -71q0 -70 39 -104.5t127 -34.5q93 0 138 3l-15 -36q-43 -3 -122 -3q-108 0 -156 44t-48 128q0 52 13 105q32 140 91.5 197t166.5 57q167 0 167 -118q0 -22 -6 -46q-15 -64 -60.5 -92.5t-138.5 -28.5zM316 494q-91 0 -142.5 -49.5t-76.5 -166.5
h181q78 0 113.5 20t47.5 72q5 25 5 39q0 85 -128 85z" />
    <glyph glyph-name="f" unicode="f" horiz-adv-x="317" 
d="M362 709q-90 0 -130.5 -38t-65.5 -158h204l-15 -35h-196l-93 -478h-38l100 512q26 133 77.5 183t158.5 50q13 0 42.5 -1t35.5 -1l-15 -36q-30 2 -65 2z" />
    <glyph glyph-name="g" unicode="g" horiz-adv-x="571" 
d="M315 529q94 0 141.5 -39.5t47.5 -131.5q0 -47 -10 -97l-42 -216q-23 -117 -74 -169.5t-167 -52.5q-10 0 -72 1t-100 1l15 36q27 0 88 -1t70 -1q94 0 139 42t63 144l10 51q-57 -78 -182 -78q-94 0 -142.5 40.5t-48.5 133.5q0 43 10 94q25 129 81 186t173 57zM310 493
q-94 0 -139.5 -44t-69.5 -161q-11 -61 -11 -98q0 -74 37.5 -105t119.5 -31q88 0 137 45.5t72 159.5q11 61 11 98q0 74 -37.5 105t-119.5 31z" />
    <glyph glyph-name="h" unicode="h" horiz-adv-x="562" 
d="M28 0l145 743h38l-55 -278q54 64 169 64q95 0 136.5 -36t41.5 -107q0 -35 -7 -67l-62 -319h-38l63 324q6 33 6 59q0 61 -35.5 85.5t-108.5 24.5q-84 0 -128.5 -37t-62.5 -127l-64 -329h-38z" />
    <glyph glyph-name="i" unicode="i" horiz-adv-x="194" 
d="M28 0l100 513h38l-100 -513h-38zM176 693q28 0 28 -30q0 -40 -35 -40q-29 0 -29 30q0 40 36 40z" />
    <glyph glyph-name="j" unicode="j" horiz-adv-x="194" 
d="M29 5l98 508h38l-98 -508q-20 -105 -58 -143.5t-124 -38.5q-41 0 -57 1l15 36q13 -1 45 -1q64 0 93.5 30t47.5 116zM175 693q28 0 28 -30q0 -40 -35 -40q-29 0 -29 30q0 40 36 40z" />
    <glyph glyph-name="k" unicode="k" horiz-adv-x="501" 
d="M435 0h-49l-268 269l-52 -269h-38l145 743h38l-87 -447l324 217h59l-349 -234z" />
    <glyph glyph-name="l" unicode="l" horiz-adv-x="194" 
d="M28 0l145 743h38l-145 -743h-38z" />
    <glyph glyph-name="m" unicode="m" horiz-adv-x="824" 
d="M381 0h-38l66 339q6 31 6 54q0 55 -31 77.5t-92 22.5q-72 0 -107.5 -33t-51.5 -116l-67 -344h-38l69 356q18 92 63.5 132.5t131.5 40.5q131 0 151 -89q25 47 64.5 68t102.5 21q84 0 121 -32.5t37 -97.5q0 -33 -7 -65l-65 -334h-38l66 339q6 31 6 54q0 55 -31 77.5
t-92 22.5q-72 0 -107.5 -33t-51.5 -116z" />
    <glyph glyph-name="n" unicode="n" horiz-adv-x="562" 
d="M66 0h-38l64 331q20 105 72.5 151.5t153.5 46.5q185 0 185 -145q0 -25 -7 -65l-62 -319h-38l63 324q6 32 6 56q0 62 -37.5 87.5t-111.5 25.5q-84 0 -126 -36.5t-60 -127.5z" />
    <glyph glyph-name="o" unicode="o" horiz-adv-x="550" 
d="M235 -16q-92 0 -140 42t-48 138q0 51 11 106q25 137 82.5 198t174.5 61q92 0 140 -42t48 -138q0 -51 -11 -106q-25 -137 -82.5 -198t-174.5 -61zM240 20q93 0 140.5 48.5t71.5 172.5q13 70 13 111q0 77 -36.5 109t-118.5 32q-93 0 -140.5 -48.5t-71.5 -172.5
q-13 -70 -13 -111q0 -77 36.5 -109t118.5 -32z" />
    <glyph glyph-name="p" unicode="p" horiz-adv-x="570" 
d="M258 -16q-144 0 -175 101l-51 -260h-38l87 445q27 139 82.5 199t169.5 60q93 0 141.5 -42t48.5 -139q0 -50 -11 -105q-25 -137 -82.5 -198t-171.5 -61zM260 20q93 0 140.5 48.5t71.5 172.5q12 63 12 107q0 78 -37 111.5t-117 33.5q-93 0 -140.5 -48.5t-71.5 -172.5
q-13 -70 -13 -111q0 -77 36.5 -109t118.5 -32z" />
    <glyph glyph-name="q" unicode="q" horiz-adv-x="570" 
d="M312 529q93 0 141 -41t48 -137q0 -47 -12 -108l-82 -418h-38l47 241q-58 -82 -182 -82q-92 0 -140 42t-48 138q0 51 11 106q25 137 82.5 198t172.5 61zM309 493q-93 0 -140.5 -48.5t-71.5 -172.5q-13 -70 -13 -111q0 -77 36.5 -109t118.5 -32q87 0 137.5 49.5t73.5 171.5
q12 61 12 107q0 77 -36.5 111t-116.5 34z" />
    <glyph glyph-name="r" unicode="r" horiz-adv-x="370" 
d="M129 323l-63 -323h-38l64 327q22 112 74.5 150t145.5 38q12 0 41.5 -1t36.5 -1l-15 -36q-34 2 -67 2q-78 0 -120 -31.5t-59 -124.5z" />
    <glyph glyph-name="s" unicode="s" horiz-adv-x="472" 
d="M355 116q5 22 5 35q0 57 -80 80l-114 32q-98 28 -98 105q0 20 4 35q15 65 63.5 88.5t137.5 23.5q81 0 176 -4l-14 -36q-75 4 -181 4q-67 0 -101 -18t-44 -62q-4 -15 -4 -29q0 -27 17.5 -44t59.5 -29l107 -30q58 -17 83.5 -43.5t25.5 -68.5q0 -20 -7 -48q-9 -35 -26.5 -57
t-61 -37t-113.5 -15q-143 0 -188 2l15 36q59 -2 174 -2q89 0 121 20t43 62z" />
    <glyph glyph-name="t" unicode="t" horiz-adv-x="374" 
d="M192 653l-27 -140h209l-15 -35h-201l-58 -301q-6 -33 -6 -56q0 -47 26 -66t85 -19h76l-15 -36h-60q-77 0 -113.5 25.5t-36.5 89.5q0 34 7 66l90 465z" />
    <glyph glyph-name="u" unicode="u" horiz-adv-x="557" 
d="M491 513h38l-64 -329q-22 -110 -72 -155t-152 -45q-182 0 -182 145q0 33 7 65l62 319h38l-63 -324q-6 -31 -6 -57q0 -62 36.5 -87t109.5 -25q84 0 125 36.5t59 127.5z" />
    <glyph glyph-name="v" unicode="v" horiz-adv-x="485" 
d="M70 513h39l91 -472l274 472h41l-298 -513h-47z" />
    <glyph glyph-name="w" unicode="w" horiz-adv-x="710" 
d="M385 513h41l45 -464l225 464h39l-252 -513h-42l-45 460l-225 -460h-42l-54 513h37l46 -464z" />
    <glyph glyph-name="x" unicode="x" horiz-adv-x="470" 
d="M365 0l-131 246l-224 -246h-45l252 275l-126 238h40l112 -213l191 213h45l-220 -242l146 -271h-40z" />
    <glyph glyph-name="y" unicode="y" horiz-adv-x="562" 
d="M202 -141q94 0 139 42.5t63 143.5l7 37q-49 -64 -168 -64q-178 0 -178 145q0 25 7 65l55 285h38l-56 -290q-6 -33 -6 -59q0 -61 35.5 -85.5t108.5 -24.5q84 0 128.5 37t62.5 127l57 295h38l-90 -466q-24 -118 -75 -171t-167 -53q-10 0 -72 1t-100 1l15 36q27 0 88 -1
t70 -1z" />
    <glyph glyph-name="z" unicode="z" horiz-adv-x="472" 
d="M-3 0l5 29l412 449h-318l15 35h359l-5 -29l-412 -449h336l-15 -35h-377z" />
    <glyph glyph-name="braceleft" unicode="{" horiz-adv-x="375" 
d="M278 -140l-16 -35h-36q-76 0 -110.5 28t-34.5 83q0 16 5 48l31 160q5 32 5 45q0 33 -17 47.5t-57 14.5h-24l7 34h24q53 0 75.5 22t34.5 85l34 172q15 81 53 114.5t131 33.5h51l-16 -35h-36q-77 0 -104 -24t-40 -90l-35 -173q-12 -60 -30 -86t-54 -38q41 -18 41 -77
q0 -15 -5 -47l-31 -162q-5 -28 -5 -41q0 -40 26 -59.5t88 -19.5h45z" />
    <glyph glyph-name="bar" unicode="|" horiz-adv-x="203" 
d="M-2 -175l178 918h39l-178 -918h-39z" />
    <glyph glyph-name="braceright" unicode="}" horiz-adv-x="375" 
d="M102 677l16 35h36q77 0 111 -27.5t34 -82.5q0 -16 -5 -48l-31 -160q-5 -32 -5 -45q0 -33 17 -47.5t57 -14.5h24l-7 -34h-24q-53 0 -75.5 -22t-34.5 -85l-34 -172q-17 -82 -53.5 -115.5t-130.5 -33.5h-51l16 35h36q76 0 103.5 24.5t40.5 90.5l35 173q12 60 30 86t54 38
q-41 18 -41 77q0 15 5 47l31 162q5 28 5 41q0 40 -26 59t-88 19h-45z" />
    <glyph glyph-name="asciitilde" unicode="~" horiz-adv-x="595" 
d="M318 318l-10 8q-2 2 -12.5 10t-13 10t-11.5 8t-13 8t-11.5 6.5t-13 5.5t-13 2.5t-14.5 1.5q-56 0 -72 -77l-7 -34h-34l7 34q22 111 105 111q30 0 51.5 -10.5t55.5 -36.5l10 -8q2 -2 12.5 -10t13 -10t11.5 -8t13 -8t11.5 -6.5t13 -5.5t13 -2.5t14.5 -1.5q55 0 72 77l7 34
h34l-7 -34q-22 -111 -105 -111q-30 0 -51.5 10.5t-55.5 36.5z" />
    <glyph glyph-name="uni00A0" unicode="&#xa0;" horiz-adv-x="250" 
 />
    <glyph glyph-name="exclamdown" unicode="&#xa1;" horiz-adv-x="169" 
d="M16 -202h-39l32 171q18 102 40 199l37 176h33l-32 -176q-3 -19 -20 -103t-19 -98zM121 441q-31 0 -31 33q0 43 39 43q31 0 31 -33q0 -43 -39 -43z" />
    <glyph glyph-name="cent" unicode="&#xa2;" horiz-adv-x="595" 
d="M329 34q34 0 104 2l-15 -36q-18 -2 -96 -2q-22 0 -33 1l-18 -95h-34l19 99q-72 12 -103 53.5t-31 112.5q0 48 12 105q25 124 78 176.5t143 61.5l20 101h34l-19 -98h23q27 0 99 -2l-15 -36q-46 2 -89 2h-25l-87 -444q11 -1 33 -1zM161 172q0 -63 25.5 -93.5t76.5 -39.5
l85 436q-74 -10 -114 -54t-61 -149q-12 -58 -12 -100z" />
    <glyph glyph-name="sterling" unicode="&#xa3;" horiz-adv-x="595" 
d="M74 339l15 35h77l9 46q30 152 96.5 207t220.5 55q23 0 81 -2l-15 -37q-54 2 -72 2q-137 0 -192.5 -44t-80.5 -181l-9 -46h244l-15 -35h-236l-59 -302h317l-16 -37h-432l16 37h77l59 302h-85z" />
    <glyph glyph-name="currency" unicode="&#xa4;" horiz-adv-x="595" 
d="M520 354q0 -74 -46 -130l72 -71l-25 -25l-72 71q-56 -45 -130 -45t-130 45l-72 -71l-25 25l72 71q-46 56 -46 130t46 130l-72 71l25 25l72 -71q56 45 130 45t130 -45l72 71l25 -25l-72 -71q46 -56 46 -130zM483 354q0 71 -44 117.5t-120 46.5t-120 -46.5t-44 -117.5
t44 -117.5t120 -46.5t120 46.5t44 117.5z" />
    <glyph glyph-name="yen" unicode="&#xa5;" horiz-adv-x="595" 
d="M481 168h-180l-33 -168h-39l33 168h-180l6 35h180l21 105h-180l7 35h167l-135 337h40l128 -331l255 331h43l-263 -337h164l-7 -35h-180l-21 -105h180z" />
    <glyph glyph-name="brokenbar" unicode="&#xa6;" horiz-adv-x="203" 
d="M117 437l59 306h39l-59 -306h-39zM-2 -175l59 306h39l-59 -306h-39z" />
    <glyph glyph-name="section" unicode="&#xa7;" horiz-adv-x="534" 
d="M190 -147q67 0 106.5 14t54 33t23.5 53q6 23 6 42q0 75 -95 97l-96 23q-131 31 -131 133q0 36 17 82q31 89 123 108q-88 32 -88 111q0 21 4 36q15 70 70 99.5t157 29.5q59 0 184 -5l-14 -36q-93 5 -180 5q-82 0 -125 -22t-54 -73q-4 -15 -4 -34q0 -34 24 -56.5t82 -36.5
l97 -23q131 -32 131 -133q0 -36 -17 -82q-32 -89 -126 -108q80 -35 80 -113q0 -34 -9 -60q-18 -60 -65 -90t-156 -30q-168 0 -218 2l14 36q118 -2 205 -2zM200 149l27 -6q29 -7 63 -7q107 0 140 96q13 35 13 66q0 79 -103 101l-27 6q-29 7 -63 7q-107 0 -140 -96
q-13 -35 -13 -66q0 -79 103 -101z" />
    <glyph glyph-name="dieresis" unicode="&#xa8;" horiz-adv-x="500" 
d="M264 693q28 0 28 -30q0 -40 -35 -40q-29 0 -29 30q0 40 36 40zM401 693q28 0 28 -30q0 -40 -35 -40q-29 0 -29 30q0 40 36 40z" />
    <glyph glyph-name="copyright" unicode="&#xa9;" horiz-adv-x="814" 
d="M311 381v-49q0 -93 33 -128t123 -35q27 0 73 2l-7 -33q-38 -2 -70 -2q-105 0 -146 45.5t-41 150.5v49q0 108 43 151.5t139 43.5q34 0 82 -2l-7 -33q-48 2 -75 2q-79 0 -113 -34t-34 -128zM784 356q0 -191 -78.5 -271.5t-278.5 -80.5t-278.5 80.5t-78.5 271.5t78.5 271.5
t278.5 80.5t278.5 -80.5t78.5 -271.5zM750 356q0 91 -14 149t-50.5 98t-98.5 56.5t-160 16.5t-160 -16.5t-98.5 -56.5t-50.5 -98t-14 -149t14 -149t50.5 -98t98.5 -56.5t160 -16.5t160 16.5t98.5 56.5t50.5 98t14 149z" />
    <glyph glyph-name="ordfeminine" unicode="&#xaa;" horiz-adv-x="439" 
d="M287 682q-89 0 -122 -1l13 32q32 1 113 1q76 0 109.5 -27.5t33.5 -80.5q0 -21 -6 -51l-42 -210q-4 -20 -12 -27.5t-29 -10.5q-40 -7 -103 -7q-158 0 -158 105q0 15 5 43q12 59 49.5 87t111.5 28q106 0 136 -50l9 46q5 32 5 45q0 42 -25.5 60t-87.5 18zM246 332
q48 0 106 7l15 76q4 20 4 39q0 42 -28 59.5t-93 17.5q-60 0 -89 -18.5t-38 -68.5q-4 -20 -4 -34q0 -47 31.5 -62.5t95.5 -15.5z" />
    <glyph glyph-name="guillemotleft" unicode="&#xab;" horiz-adv-x="472" 
d="M34 276l226 181l-10 -49l-186 -151l127 -150l-8 -44l-156 181zM235 276l226 181l-10 -49l-186 -151l127 -150l-8 -44l-156 181z" />
    <glyph glyph-name="logicalnot" unicode="&#xac;" horiz-adv-x="595" 
d="M475 220h-39l38 197h-364l7 37h403z" />
    <glyph glyph-name="uni00AD" unicode="&#xad;" horiz-adv-x="365" 
d="M59 314h277l-15 -36h-277z" />
    <glyph glyph-name="registered" unicode="&#xae;" horiz-adv-x="582" 
d="M586 484q0 -136 -59 -191.5t-192 -55.5t-192 55.5t-59 191.5t59 191.5t192 55.5t192 -55.5t59 -191.5zM335 699q-123 0 -170 -46t-47 -169t47 -169t170 -46t170 46t47 169t-47 169t-170 46zM432 538v-6q0 -56 -47 -71l59 -104h-41l-54 98h-70v-98h-36v263h95
q51 0 72.5 -18.5t21.5 -63.5zM396 532v6q0 30 -12 40t-46 10h-59v-101h59q34 0 46 9.5t12 35.5z" />
    <glyph glyph-name="overscore" unicode="&#xaf;" horiz-adv-x="500" 
d="M201 633l7 34h244l-7 -34h-244z" />
    <glyph glyph-name="degree" unicode="&#xb0;" horiz-adv-x="361" 
d="M395 598q0 -67 -37.5 -103.5t-109.5 -36.5t-109.5 36.5t-37.5 103.5t37.5 103.5t109.5 36.5t109.5 -36.5t37.5 -103.5zM136 598q0 -109 112 -109t112 109t-112 109t-112 -109z" />
    <glyph glyph-name="plusminus" unicode="&#xb1;" horiz-adv-x="595" 
d="M454 1h-411l7 37h411zM253 126l38 195h-186l7 37h186l38 195h39l-38 -195h186l-7 -37h-186l-38 -195h-39z" />
    <glyph glyph-name="uni00B2" unicode="&#xb2;" 
d="M315 321l-14 -33h-235l12 62q12 57 37 85.5t86 52.5l55 22q52 20 64 43q8 19 8 43q0 27 -17 39.5t-58 12.5q-36 0 -114 -2l13 33q90 2 101 2q111 0 111 -82q0 -39 -14 -63q-20 -33 -82 -58l-55 -22q-51 -21 -71 -41.5t-28 -64.5l-5 -29h206z" />
    <glyph glyph-name="uni00B3" unicode="&#xb3;" 
d="M63 290l13 32q11 0 52.5 -0.5t53.5 -0.5q59 0 87.5 18t35.5 65q2 16 2 22q0 30 -17 42.5t-56 12.5h-100l13 32h87q83 0 100 56q4 12 4 29q0 50 -76 50q-7 0 -52.5 -0.5t-64.5 -0.5l14 33q22 0 60.5 0.5t43.5 0.5q58 0 84.5 -19.5t26.5 -59.5q0 -23 -6 -41
q-17 -49 -74 -63q50 -17 50 -73q0 -8 -2 -24q-16 -114 -161 -114q-86 0 -118 3z" />
    <glyph glyph-name="acute" unicode="&#xb4;" horiz-adv-x="500" 
d="M229 599l147 126h54l-156 -126h-45z" />
    <glyph glyph-name="uni00B5" unicode="&#xb5;" horiz-adv-x="558" 
d="M262 -9q-152 0 -183 81l-47 -247h-38l134 688h38l-62 -316q-6 -30 -6 -54q0 -64 41.5 -90t126.5 -26q55 0 132 9l94 477h38l-93 -474q-5 -21 -12.5 -27.5t-27.5 -10.5q-56 -10 -135 -10z" />
    <glyph glyph-name="paragraph" unicode="&#xb6;" horiz-adv-x="631" 
d="M463 -175h-38l166 854h-153l-166 -854h-39l91 469h-70q-85 0 -135 38.5t-50 121.5q0 28 6 62q20 101 84.5 148.5t174.5 47.5h302z" />
    <glyph glyph-name="middot" unicode="&#xb7;" horiz-adv-x="160" 
d="M101 379q31 0 31 -33q0 -43 -39 -43q-31 0 -31 33q0 43 39 43z" />
    <glyph glyph-name="cedilla" unicode="&#xb8;" horiz-adv-x="500" 
d="M157 -163q38 0 54.5 10t21.5 35q1 3 1 12q0 32 -45 32q-44 0 -68 -1l16 33q9 1 58 1q76 0 76 -61q0 -10 -1 -17q-6 -43 -35 -60t-83 -17q-49 0 -83 2l16 33q48 -2 72 -2z" />
    <glyph glyph-name="uni00B9" unicode="&#xb9;" 
d="M141 647l14 33h132l-70 -359h106l-14 -33h-230l14 33h89l64 326h-105z" />
    <glyph glyph-name="ordmasculine" unicode="&#xba;" horiz-adv-x="450" 
d="M249 332q72 0 106.5 35t52.5 130q10 47 10 86q0 56 -27.5 79.5t-89.5 23.5q-72 0 -106.5 -35t-52.5 -130q-10 -47 -10 -86q0 -56 27.5 -79.5t89.5 -23.5zM243 300q-74 0 -110.5 31.5t-36.5 104.5q0 35 9 83q21 108 64.5 153.5t137.5 45.5q73 0 110 -31.5t37 -104.5
q0 -35 -9 -83q-21 -108 -64.5 -153.5t-137.5 -45.5z" />
    <glyph glyph-name="guillemotright" unicode="&#xbb;" horiz-adv-x="472" 
d="M439 244l-226 -181l10 49l185 150l-126 151l8 44l156 -181zM238 244l-226 -181l10 49l185 150l-126 151l8 44l156 -181z" />
    <glyph glyph-name="onequarter" unicode="&#xbc;" horiz-adv-x="822" 
d="M146 0l554 680h44l-554 -680h-44zM769 129l-14 -33h-58l-18 -96h-33l18 96h-213l5 28l198 268h38l-192 -263h171l24 123l34 6l-25 -129h65zM141 647l14 33h132l-70 -359h106l-14 -33h-230l14 33h89l64 326h-105z" />
    <glyph glyph-name="onehalf" unicode="&#xbd;" horiz-adv-x="822" 
d="M127 0l554 680h44l-554 -680h-44zM712 33l-14 -33h-235l12 62q12 57 37 85.5t86 52.5l55 22q52 20 64 43q8 19 8 43q0 27 -17 39.5t-58 12.5q-36 0 -114 -2l13 33q90 2 101 2q111 0 111 -82q0 -39 -14 -63q-20 -33 -82 -58l-55 -22q-51 -21 -71 -41.5t-28 -64.5l-5 -29
h206zM141 647l14 33h132l-70 -359h106l-14 -33h-230l14 33h89l64 326h-105z" />
    <glyph glyph-name="threequarters" unicode="&#xbe;" horiz-adv-x="822" 
d="M146 0l554 680h44l-554 -680h-44zM769 129l-14 -33h-58l-18 -96h-33l18 96h-213l5 28l198 268h38l-192 -263h171l24 123l34 6l-25 -129h65zM63 290l13 32q11 0 52.5 -0.5t53.5 -0.5q59 0 87.5 18t35.5 65q2 16 2 22q0 30 -17 42.5t-56 12.5h-100l13 32h87q83 0 100 56
q4 12 4 29q0 50 -76 50q-7 0 -52.5 -0.5t-64.5 -0.5l14 33q22 0 60.5 0.5t43.5 0.5q58 0 84.5 -19.5t26.5 -59.5q0 -23 -6 -41q-17 -49 -74 -63q50 -17 50 -73q0 -8 -2 -24q-16 -114 -161 -114q-86 0 -118 3z" />
    <glyph glyph-name="questiondown" unicode="&#xbf;" horiz-adv-x="449" 
d="M174 -204q-87 0 -133.5 32.5t-46.5 108.5q0 24 2 33q5 36 17 64t25.5 46t37.5 34t41 24t46 20q69 29 89.5 50.5t32.5 82.5l10 53h39l-11 -58q-15 -74 -42.5 -102.5t-104.5 -58.5q-69 -28 -99 -58.5t-39 -95.5q-3 -20 -3 -35q0 -57 35 -80.5t110 -23.5q105 0 157 2
l-16 -36q-27 0 -69.5 -1t-77.5 -1zM334 441q-31 0 -31 33q0 43 39 43q31 0 31 -33q0 -43 -39 -43z" />
    <glyph glyph-name="Agrave" unicode="&#xc0;" horiz-adv-x="631" 
d="M16 0h-41l409 712h39l133 -712h-39l-44 238h-322zM395 665l-223 -390h295zM371 892l98 -119h-41l-106 119h49z" />
    <glyph glyph-name="Aacute" unicode="&#xc1;" horiz-adv-x="631" 
d="M16 0h-41l409 712h39l133 -712h-39l-44 238h-322zM395 665l-223 -390h295zM362 773l138 119h55l-147 -119h-46z" />
    <glyph glyph-name="Acircumflex" unicode="&#xc2;" horiz-adv-x="631" 
d="M16 0h-41l409 712h39l133 -712h-39l-44 238h-322zM395 665l-223 -390h295zM512 773l-78 86l-114 -86h-46l141 113h39l99 -113h-41z" />
    <glyph glyph-name="Atilde" unicode="&#xc3;" horiz-adv-x="631" 
d="M16 0h-41l409 712h39l133 -712h-39l-44 238h-322zM395 665l-223 -390h295zM430 796l-28 19q-31 20 -46 20q-20 0 -30 -13t-19 -49h-34q19 94 87 94q28 0 61 -23l29 -19q31 -20 46 -20q20 0 30 13t19 49h34q-19 -94 -87 -94q-29 0 -62 23z" />
    <glyph glyph-name="Adieresis" unicode="&#xc4;" horiz-adv-x="631" 
d="M16 0h-41l409 712h39l133 -712h-39l-44 238h-322zM395 665l-223 -390h295zM360 850q29 0 29 -31q0 -41 -36 -41q-30 0 -30 31q0 41 37 41zM497 850q29 0 29 -31q0 -41 -36 -41q-30 0 -30 31q0 41 37 41z" />
    <glyph glyph-name="Aring" unicode="&#xc5;" horiz-adv-x="631" 
d="M433 903q48 0 76.5 -23t28.5 -64q0 -7 -2 -21q-18 -98 -109 -108l129 -687h-39l-44 238h-322l-135 -238h-41l397 692q-65 18 -65 81q0 6 2 22q9 51 40 79.5t84 28.5zM395 665l-223 -390h295zM430 871q-37 0 -57.5 -17.5t-27.5 -58.5q-2 -14 -2 -19q0 -57 72 -57
q37 0 57.5 17.5t27.5 58.5q2 14 2 19q0 57 -72 57z" />
    <glyph glyph-name="AE" unicode="&#xc6;" horiz-adv-x="941" 
d="M962 712l-15 -37h-383l-57 -290h370l-15 -37h-362l-61 -311h399l-15 -37h-430l46 238h-252l-187 -238h-45l564 712h443zM518 659l-302 -384h231l75 384h-4z" />
    <glyph glyph-name="Ccedilla" unicode="&#xc7;" horiz-adv-x="567" 
d="M589 712l-15 -37q-25 0 -74 1t-60 1q-65 0 -111.5 -13t-87.5 -47.5t-69.5 -98t-47.5 -160.5q-15 -76 -15 -132q0 -107 54 -149t169 -42q23 0 72 1t62 1l-15 -37q-50 -2 -122 -2q-140 0 -200.5 55.5t-60.5 166.5q0 55 18 147q21 103 51.5 170.5t75.5 106.5t100.5 54.5
t133.5 15.5q31 0 82.5 -1t59.5 -1zM343 -122q-5 -34 -36 -54.5t-83 -20.5q-47 0 -81 2l16 35q26 -2 71 -2q68 0 78 47q1 7 1 10q0 17 -12 23t-38 6q-47 0 -64 -1l16 35q15 1 50 1q84 0 84 -62q0 -5 -2 -19z" />
    <glyph glyph-name="Egrave" unicode="&#xc8;" horiz-adv-x="583" 
d="M519 385l-15 -37h-362l-61 -311h399l-15 -37h-430l139 712h430l-15 -37h-383l-57 -290h370zM375 892l98 -119h-41l-106 119h49z" />
    <glyph glyph-name="Eacute" unicode="&#xc9;" horiz-adv-x="583" 
d="M519 385l-15 -37h-362l-61 -311h399l-15 -37h-430l139 712h430l-15 -37h-383l-57 -290h370zM335 773l138 119h55l-147 -119h-46z" />
    <glyph glyph-name="Ecircumflex" unicode="&#xca;" horiz-adv-x="583" 
d="M519 385l-15 -37h-362l-61 -311h399l-15 -37h-430l139 712h430l-15 -37h-383l-57 -290h370zM500 773l-78 86l-114 -86h-46l141 113h39l99 -113h-41z" />
    <glyph glyph-name="Edieresis" unicode="&#xcb;" horiz-adv-x="583" 
d="M519 385l-15 -37h-362l-61 -311h399l-15 -37h-430l139 712h430l-15 -37h-383l-57 -290h370zM347 850q29 0 29 -31q0 -41 -36 -41q-30 0 -30 31q0 41 37 41zM484 850q29 0 29 -31q0 -41 -36 -41q-30 0 -30 31q0 41 37 41z" />
    <glyph glyph-name="Igrave" unicode="&#xcc;" horiz-adv-x="209" 
d="M174 712h39l-139 -712h-39zM139 892l98 -119h-41l-106 119h49z" />
    <glyph glyph-name="Iacute" unicode="&#xcd;" horiz-adv-x="209" 
d="M174 712h39l-139 -712h-39zM172 773l138 119h55l-147 -119h-46z" />
    <glyph glyph-name="Icircumflex" unicode="&#xce;" horiz-adv-x="209" 
d="M174 712h39l-139 -712h-39zM296 773l-78 86l-114 -86h-46l141 113h39l99 -113h-41z" />
    <glyph glyph-name="Idieresis" unicode="&#xcf;" horiz-adv-x="209" 
d="M174 712h39l-139 -712h-39zM149 850q29 0 29 -31q0 -41 -36 -41q-30 0 -30 31q0 41 37 41zM286 850q29 0 29 -31q0 -41 -36 -41q-30 0 -30 31q0 41 37 41z" />
    <glyph glyph-name="Eth" unicode="&#xd0;" horiz-adv-x="678" 
d="M631 347q-37 -193 -124.5 -270t-251.5 -77h-202l66 341h-73l7 36h73l66 335h200q132 0 193 -57t61 -174q0 -59 -15 -134zM388 675h-165l-58 -298h195l-7 -36h-195l-59 -304h162q148 0 221.5 70.5t107.5 239.5q16 74 16 134q0 102 -52 148t-166 46z" />
    <glyph glyph-name="Ntilde" unicode="&#xd1;" horiz-adv-x="681" 
d="M648 712h37l-139 -712h-35l-313 652l-126 -652h-37l139 712h35l312 -653zM446 796l-28 19q-31 20 -46 20q-20 0 -30 -13t-19 -49h-34q19 94 87 94q28 0 61 -23l29 -19q31 -20 46 -20q20 0 30 13t19 49h34q-19 -94 -87 -94q-29 0 -62 23z" />
    <glyph glyph-name="Ograve" unicode="&#xd2;" horiz-adv-x="687" 
d="M599 351q17 99 17 158q0 107 -47 146t-149 39q-61 0 -103.5 -13t-81 -48.5t-65 -102t-44.5 -168.5q-17 -99 -17 -158q0 -107 47 -146t149 -39q61 0 103.5 13t81 48.5t65 102t44.5 168.5zM639 348q-35 -203 -112.5 -284.5t-224.5 -81.5q-122 0 -177 51t-55 172
q0 68 16 160q35 203 112.5 284.5t224.5 81.5q121 0 176.5 -51.5t55.5 -171.5q0 -68 -16 -160zM419 892l98 -119h-41l-106 119h49z" />
    <glyph glyph-name="Oacute" unicode="&#xd3;" horiz-adv-x="687" 
d="M599 351q17 99 17 158q0 107 -47 146t-149 39q-61 0 -103.5 -13t-81 -48.5t-65 -102t-44.5 -168.5q-17 -99 -17 -158q0 -107 47 -146t149 -39q61 0 103.5 13t81 48.5t65 102t44.5 168.5zM639 348q-35 -203 -112.5 -284.5t-224.5 -81.5q-122 0 -177 51t-55 172
q0 68 16 160q35 203 112.5 284.5t224.5 81.5q121 0 176.5 -51.5t55.5 -171.5q0 -68 -16 -160zM370 773l138 119h55l-147 -119h-46z" />
    <glyph glyph-name="Ocircumflex" unicode="&#xd4;" horiz-adv-x="687" 
d="M599 351q17 99 17 158q0 107 -47 146t-149 39q-61 0 -103.5 -13t-81 -48.5t-65 -102t-44.5 -168.5q-17 -99 -17 -158q0 -107 47 -146t149 -39q61 0 103.5 13t81 48.5t65 102t44.5 168.5zM639 348q-35 -203 -112.5 -284.5t-224.5 -81.5q-122 0 -177 51t-55 172
q0 68 16 160q35 203 112.5 284.5t224.5 81.5q121 0 176.5 -51.5t55.5 -171.5q0 -68 -16 -160zM541 773l-78 86l-114 -86h-46l141 113h39l99 -113h-41z" />
    <glyph glyph-name="Otilde" unicode="&#xd5;" horiz-adv-x="687" 
d="M599 351q17 99 17 158q0 107 -47 146t-149 39q-61 0 -103.5 -13t-81 -48.5t-65 -102t-44.5 -168.5q-17 -99 -17 -158q0 -107 47 -146t149 -39q61 0 103.5 13t81 48.5t65 102t44.5 168.5zM639 348q-35 -203 -112.5 -284.5t-224.5 -81.5q-122 0 -177 51t-55 172
q0 68 16 160q35 203 112.5 284.5t224.5 81.5q121 0 176.5 -51.5t55.5 -171.5q0 -68 -16 -160zM454 796l-28 19q-31 20 -46 20q-20 0 -30 -13t-19 -49h-34q19 94 87 94q28 0 61 -23l29 -19q31 -20 46 -20q20 0 30 13t19 49h34q-19 -94 -87 -94q-29 0 -62 23z" />
    <glyph glyph-name="Odieresis" unicode="&#xd6;" horiz-adv-x="687" 
d="M599 351q17 99 17 158q0 107 -47 146t-149 39q-61 0 -103.5 -13t-81 -48.5t-65 -102t-44.5 -168.5q-17 -99 -17 -158q0 -107 47 -146t149 -39q61 0 103.5 13t81 48.5t65 102t44.5 168.5zM639 348q-35 -203 -112.5 -284.5t-224.5 -81.5q-122 0 -177 51t-55 172
q0 68 16 160q35 203 112.5 284.5t224.5 81.5q121 0 176.5 -51.5t55.5 -171.5q0 -68 -16 -160zM385 850q29 0 29 -31q0 -41 -36 -41q-30 0 -30 31q0 41 37 41zM522 850q29 0 29 -31q0 -41 -36 -41q-30 0 -30 31q0 41 37 41z" />
    <glyph glyph-name="multiply" unicode="&#xd7;" horiz-adv-x="595" 
d="M425 168l-114 145l-171 -146l-23 28l171 147l-117 151l29 24l118 -149l173 149l24 -28l-175 -150l116 -147z" />
    <glyph glyph-name="Oslash" unicode="&#xd8;" horiz-adv-x="687" 
d="M639 348q-35 -203 -112.5 -284.5t-224.5 -81.5q-104 0 -159 37l-77 -107h-43l93 130q-46 52 -46 163q0 68 16 160q35 203 112.5 284.5t224.5 81.5q104 0 160 -38l77 108h43l-94 -131q46 -52 46 -162q0 -68 -16 -160zM109 204q0 -89 31 -129l420 587q-44 32 -140 32
q-61 0 -103.5 -13t-81 -48.5t-65 -102t-44.5 -168.5q-17 -99 -17 -158zM599 351q17 99 17 158q0 85 -31 128l-420 -587q44 -31 140 -31q61 0 103.5 13t81 48.5t65 102t44.5 168.5z" />
    <glyph glyph-name="Ugrave" unicode="&#xd9;" horiz-adv-x="656" 
d="M626 712h39l-94 -481q-27 -139 -92 -194t-183 -55q-113 0 -169 44t-56 141q0 39 9 89l89 456h39l-90 -461q-9 -47 -9 -82q0 -83 46.5 -117t138.5 -34q105 0 160 46.5t80 175.5zM387 892l98 -119h-41l-106 119h49z" />
    <glyph glyph-name="Uacute" unicode="&#xda;" horiz-adv-x="656" 
d="M626 712h39l-94 -481q-27 -139 -92 -194t-183 -55q-113 0 -169 44t-56 141q0 39 9 89l89 456h39l-90 -461q-9 -47 -9 -82q0 -83 46.5 -117t138.5 -34q105 0 160 46.5t80 175.5zM339 773l138 119h55l-147 -119h-46z" />
    <glyph glyph-name="Ucircumflex" unicode="&#xdb;" horiz-adv-x="656" 
d="M626 712h39l-94 -481q-27 -139 -92 -194t-183 -55q-113 0 -169 44t-56 141q0 39 9 89l89 456h39l-90 -461q-9 -47 -9 -82q0 -83 46.5 -117t138.5 -34q105 0 160 46.5t80 175.5zM526 773l-78 86l-114 -86h-46l141 113h39l99 -113h-41z" />
    <glyph glyph-name="Udieresis" unicode="&#xdc;" horiz-adv-x="656" 
d="M626 712h39l-94 -481q-27 -139 -92 -194t-183 -55q-113 0 -169 44t-56 141q0 39 9 89l89 456h39l-90 -461q-9 -47 -9 -82q0 -83 46.5 -117t138.5 -34q105 0 160 46.5t80 175.5zM364 850q29 0 29 -31q0 -41 -36 -41q-30 0 -30 31q0 41 37 41zM501 850q29 0 29 -31
q0 -41 -36 -41q-30 0 -30 31q0 41 37 41z" />
    <glyph glyph-name="Yacute" unicode="&#xdd;" horiz-adv-x="591" 
d="M107 712h41l164 -365l304 365h46l-335 -400l-60 -312h-39l61 312zM325 773l138 119h55l-147 -119h-46z" />
    <glyph glyph-name="Thorn" unicode="&#xde;" horiz-adv-x="589" 
d="M35 0l139 712h39l-28 -141h158q114 0 170 -37.5t56 -120.5q0 -22 -5 -54q-17 -108 -82.5 -150.5t-186.5 -42.5h-189l-32 -166h-39zM339 534h-161l-65 -331h183q109 0 158.5 32.5t67.5 117.5q7 37 7 57q0 69 -47.5 96.5t-142.5 27.5z" />
    <glyph glyph-name="germandbls" unicode="&#xdf;" horiz-adv-x="540" 
d="M183 3l11 34q15 -3 43 -3q40 0 71.5 7t64 25.5t53.5 57.5t29 97q2 9 2 38q0 130 -142 130h-54l14 36h44q69 0 113 30t59 108q4 17 4 41q0 111 -141 111q-79 0 -122 -42t-63 -145l-103 -528h-38l104 533q22 113 75.5 165t150.5 52q89 0 131.5 -39.5t42.5 -106.5
q0 -20 -5 -48q-24 -125 -129 -151q95 -31 95 -148q0 -12 -2 -38q-25 -220 -254 -220q-29 0 -54 4z" />
    <glyph glyph-name="agrave" unicode="&#xe0;" horiz-adv-x="535" 
d="M238 -9q-101 0 -152.5 31t-51.5 104q0 24 6 52q17 77 67.5 112t137.5 35q140 0 174 -72l13 66q7 37 7 57q0 54 -34 78.5t-113 24.5q-117 0 -152 -2l15 36q26 2 141 2q179 0 179 -137q0 -33 -7 -65l-54 -273q-5 -21 -13 -28t-28 -11q-56 -10 -135 -10zM242 27q55 0 134 9
l20 105q5 27 5 44q0 58 -39 81.5t-118 23.5q-73 0 -112.5 -27.5t-53.5 -90.5q-5 -27 -5 -43q0 -32 12 -53t37 -31.5t52.5 -14t67.5 -3.5zM290 725l101 -126h-39l-109 126h47z" />
    <glyph glyph-name="aacute" unicode="&#xe1;" horiz-adv-x="535" 
d="M238 -9q-101 0 -152.5 31t-51.5 104q0 24 6 52q17 77 67.5 112t137.5 35q140 0 174 -72l13 66q7 37 7 57q0 54 -34 78.5t-113 24.5q-117 0 -152 -2l15 36q26 2 141 2q179 0 179 -137q0 -33 -7 -65l-54 -273q-5 -21 -13 -28t-28 -11q-56 -10 -135 -10zM242 27q55 0 134 9
l20 105q5 27 5 44q0 58 -39 81.5t-118 23.5q-73 0 -112.5 -27.5t-53.5 -90.5q-5 -27 -5 -43q0 -32 12 -53t37 -31.5t52.5 -14t67.5 -3.5zM259 599l147 126h54l-156 -126h-45z" />
    <glyph glyph-name="acircumflex" unicode="&#xe2;" horiz-adv-x="535" 
d="M238 -9q-101 0 -152.5 31t-51.5 104q0 24 6 52q17 77 67.5 112t137.5 35q140 0 174 -72l13 66q7 37 7 57q0 54 -34 78.5t-113 24.5q-117 0 -152 -2l15 36q26 2 141 2q179 0 179 -137q0 -33 -7 -65l-54 -273q-5 -21 -13 -28t-28 -11q-56 -10 -135 -10zM242 27q55 0 134 9
l20 105q5 27 5 44q0 58 -39 81.5t-118 23.5q-73 0 -112.5 -27.5t-53.5 -90.5q-5 -27 -5 -43q0 -32 12 -53t37 -31.5t52.5 -14t67.5 -3.5zM415 599l-69 92l-106 -92h-46l136 123h39l88 -123h-42z" />
    <glyph glyph-name="atilde" unicode="&#xe3;" horiz-adv-x="535" 
d="M238 -9q-101 0 -152.5 31t-51.5 104q0 24 6 52q17 77 67.5 112t137.5 35q140 0 174 -72l13 66q7 37 7 57q0 54 -34 78.5t-113 24.5q-117 0 -152 -2l15 36q26 2 141 2q179 0 179 -137q0 -33 -7 -65l-54 -273q-5 -21 -13 -28t-28 -11q-56 -10 -135 -10zM242 27q55 0 134 9
l20 105q5 27 5 44q0 58 -39 81.5t-118 23.5q-73 0 -112.5 -27.5t-53.5 -90.5q-5 -27 -5 -43q0 -32 12 -53t37 -31.5t52.5 -14t67.5 -3.5zM339 622l-28 19q-28 20 -46 20t-29 -14t-20 -48h-31q11 55 31.5 74.5t49.5 19.5q28 0 64 -23l29 -19q31 -20 46 -20q18 0 29 14t20 48
h31q-19 -94 -80 -94q-33 0 -66 23z" />
    <glyph glyph-name="adieresis" unicode="&#xe4;" horiz-adv-x="535" 
d="M238 -9q-101 0 -152.5 31t-51.5 104q0 24 6 52q17 77 67.5 112t137.5 35q140 0 174 -72l13 66q7 37 7 57q0 54 -34 78.5t-113 24.5q-117 0 -152 -2l15 36q26 2 141 2q179 0 179 -137q0 -33 -7 -65l-54 -273q-5 -21 -13 -28t-28 -11q-56 -10 -135 -10zM242 27q55 0 134 9
l20 105q5 27 5 44q0 58 -39 81.5t-118 23.5q-73 0 -112.5 -27.5t-53.5 -90.5q-5 -27 -5 -43q0 -32 12 -53t37 -31.5t52.5 -14t67.5 -3.5zM276 693q28 0 28 -30q0 -40 -35 -40q-29 0 -29 30q0 40 36 40zM413 693q28 0 28 -30q0 -40 -35 -40q-29 0 -29 30q0 40 36 40z" />
    <glyph glyph-name="aring" unicode="&#xe5;" horiz-adv-x="535" 
d="M238 -9q-101 0 -152.5 31t-51.5 104q0 24 6 52q17 77 67.5 112t137.5 35q140 0 174 -72l13 66q7 37 7 57q0 54 -34 78.5t-113 24.5q-117 0 -152 -2l15 36q26 2 141 2q179 0 179 -137q0 -33 -7 -65l-54 -273q-5 -21 -13 -28t-28 -11q-56 -10 -135 -10zM242 27q55 0 134 9
l20 105q5 27 5 44q0 58 -39 81.5t-118 23.5q-73 0 -112.5 -27.5t-53.5 -90.5q-5 -27 -5 -43q0 -32 12 -53t37 -31.5t52.5 -14t67.5 -3.5zM355 756q-37 0 -57.5 -17.5t-27.5 -58.5q-2 -14 -2 -19q0 -57 72 -57q37 0 57.5 17.5t27.5 58.5q2 14 2 19q0 57 -72 57zM358 788
q48 0 76.5 -23t28.5 -64q0 -7 -2 -21q-9 -51 -40 -79.5t-84 -28.5q-48 0 -76.5 23t-28.5 64q0 7 2 21q9 51 40 79.5t84 28.5z" />
    <glyph glyph-name="ae" unicode="&#xe6;" horiz-adv-x="879" 
d="M298 515q157 0 178 -105q66 111 219 111q158 0 158 -107q0 -13 -5 -38q-15 -56 -59 -81t-138 -25h-189q-12 -52 -12 -95q0 -70 39 -105t127 -35q93 0 138 3l-15 -36q-43 -3 -122 -3q-168 0 -198 114q-48 -121 -214 -121q-171 0 -171 126q0 21 7 54q16 69 67 101.5
t146 32.5h177l3 13q7 37 7 57q0 54 -34 78.5t-113 24.5q-69 0 -107 -1t-44 -1l15 36q27 2 140 2zM205 27q90 0 137.5 38t69.5 141l13 66h-170q-80 0 -120 -23.5t-55 -81.5q-6 -25 -6 -47q0 -93 131 -93zM695 486q-94 0 -145.5 -41.5t-79.5 -140.5h180q79 0 113 17t46 60
q4 13 4 30q0 75 -118 75z" />
    <glyph glyph-name="ccedilla" unicode="&#xe7;" horiz-adv-x="450" 
d="M253 34q34 0 104 2l-15 -36q-18 -2 -96 -2q-106 0 -153 43.5t-47 127.5q0 48 12 105q15 74 39 122.5t61 74t78.5 35t100.5 9.5q27 0 99 -2l-15 -36q-46 2 -89 2q-106 0 -158 -42t-77 -165q-12 -58 -12 -100q0 -79 41.5 -108.5t126.5 -29.5zM162 -163q38 0 54.5 10
t21.5 35q1 3 1 12q0 32 -45 32q-44 0 -68 -1l16 33q9 1 58 1q76 0 76 -61q0 -10 -1 -17q-6 -43 -35 -60t-83 -17q-49 0 -83 2l16 33q48 -2 72 -2z" />
    <glyph glyph-name="egrave" unicode="&#xe8;" horiz-adv-x="512" 
d="M279 244h-189q-7 -38 -7 -71q0 -70 39 -104.5t127 -34.5q93 0 138 3l-15 -36q-43 -3 -122 -3q-108 0 -156 44t-48 128q0 52 13 105q32 140 91.5 197t166.5 57q167 0 167 -118q0 -22 -6 -46q-15 -64 -60.5 -92.5t-138.5 -28.5zM316 494q-91 0 -142.5 -49.5t-76.5 -166.5
h181q78 0 113.5 20t47.5 72q5 25 5 39q0 85 -128 85zM295 725l101 -126h-39l-109 126h47z" />
    <glyph glyph-name="eacute" unicode="&#xe9;" horiz-adv-x="512" 
d="M279 244h-189q-7 -38 -7 -71q0 -70 39 -104.5t127 -34.5q93 0 138 3l-15 -36q-43 -3 -122 -3q-108 0 -156 44t-48 128q0 52 13 105q32 140 91.5 197t166.5 57q167 0 167 -118q0 -22 -6 -46q-15 -64 -60.5 -92.5t-138.5 -28.5zM316 494q-91 0 -142.5 -49.5t-76.5 -166.5
h181q78 0 113.5 20t47.5 72q5 25 5 39q0 85 -128 85zM272 599l147 126h54l-156 -126h-45z" />
    <glyph glyph-name="ecircumflex" unicode="&#xea;" horiz-adv-x="512" 
d="M279 244h-189q-7 -38 -7 -71q0 -70 39 -104.5t127 -34.5q93 0 138 3l-15 -36q-43 -3 -122 -3q-108 0 -156 44t-48 128q0 52 13 105q32 140 91.5 197t166.5 57q167 0 167 -118q0 -22 -6 -46q-15 -64 -60.5 -92.5t-138.5 -28.5zM316 494q-91 0 -142.5 -49.5t-76.5 -166.5
h181q78 0 113.5 20t47.5 72q5 25 5 39q0 85 -128 85zM416 599l-69 92l-106 -92h-46l136 123h39l88 -123h-42z" />
    <glyph glyph-name="edieresis" unicode="&#xeb;" horiz-adv-x="512" 
d="M279 244h-189q-7 -38 -7 -71q0 -70 39 -104.5t127 -34.5q93 0 138 3l-15 -36q-43 -3 -122 -3q-108 0 -156 44t-48 128q0 52 13 105q32 140 91.5 197t166.5 57q167 0 167 -118q0 -22 -6 -46q-15 -64 -60.5 -92.5t-138.5 -28.5zM316 494q-91 0 -142.5 -49.5t-76.5 -166.5
h181q78 0 113.5 20t47.5 72q5 25 5 39q0 85 -128 85zM275 693q28 0 28 -30q0 -40 -35 -40q-29 0 -29 30q0 40 36 40zM412 693q28 0 28 -30q0 -40 -35 -40q-29 0 -29 30q0 40 36 40z" />
    <glyph glyph-name="igrave" unicode="&#xec;" horiz-adv-x="194" 
d="M28 0l100 513h38l-100 -513h-38zM92 725l101 -126h-39l-109 126h47z" />
    <glyph glyph-name="iacute" unicode="&#xed;" horiz-adv-x="194" 
d="M28 0l100 513h38l-100 -513h-38zM127 599l147 126h54l-156 -126h-45z" />
    <glyph glyph-name="icircumflex" unicode="&#xee;" horiz-adv-x="194" 
d="M28 0l100 513h38l-100 -513h-38zM242 599l-69 92l-106 -92h-46l136 123h39l88 -123h-42z" />
    <glyph glyph-name="idieresis" unicode="&#xef;" horiz-adv-x="194" 
d="M28 0l100 513h38l-100 -513h-38zM104 693q28 0 28 -30q0 -40 -35 -40q-29 0 -29 30q0 40 36 40zM241 693q28 0 28 -30q0 -40 -35 -40q-29 0 -29 30q0 40 36 40z" />
    <glyph glyph-name="eth" unicode="&#xf0;" horiz-adv-x="566" 
d="M577 667l11 -30l-99 -35q28 -69 28 -157q0 -91 -37 -256q-25 -108 -80.5 -156.5t-165.5 -48.5q-94 0 -142.5 39t-48.5 130q0 39 9 90q23 124 79.5 179t172.5 55q141 0 174 -98q3 33 3 63q0 84 -26 147l-156 -55l-10 30l152 54q-30 51 -78 90l30 23q55 -46 83 -100z
M239 20q94 0 140 42.5t67 154.5q11 57 11 92q0 71 -37.5 101.5t-120.5 30.5q-93 0 -140 -43t-68 -154q-10 -47 -10 -91q0 -73 37.5 -103t120.5 -30z" />
    <glyph glyph-name="ntilde" unicode="&#xf1;" horiz-adv-x="562" 
d="M66 0h-38l64 331q20 105 72.5 151.5t153.5 46.5q185 0 185 -145q0 -25 -7 -65l-62 -319h-38l63 324q6 32 6 56q0 62 -37.5 87.5t-111.5 25.5q-84 0 -126 -36.5t-60 -127.5zM345 622l-28 19q-28 20 -46 20t-29 -14t-20 -48h-31q11 55 31.5 74.5t49.5 19.5q28 0 64 -23
l29 -19q31 -20 46 -20q18 0 29 14t20 48h31q-19 -94 -80 -94q-33 0 -66 23z" />
    <glyph glyph-name="ograve" unicode="&#xf2;" horiz-adv-x="550" 
d="M235 -16q-92 0 -140 42t-48 138q0 51 11 106q25 137 82.5 198t174.5 61q92 0 140 -42t48 -138q0 -51 -11 -106q-25 -137 -82.5 -198t-174.5 -61zM240 20q93 0 140.5 48.5t71.5 172.5q13 70 13 111q0 77 -36.5 109t-118.5 32q-93 0 -140.5 -48.5t-71.5 -172.5
q-13 -70 -13 -111q0 -77 36.5 -109t118.5 -32zM289 725l101 -126h-39l-109 126h47z" />
    <glyph glyph-name="oacute" unicode="&#xf3;" horiz-adv-x="550" 
d="M235 -16q-92 0 -140 42t-48 138q0 51 11 106q25 137 82.5 198t174.5 61q92 0 140 -42t48 -138q0 -51 -11 -106q-25 -137 -82.5 -198t-174.5 -61zM240 20q93 0 140.5 48.5t71.5 172.5q13 70 13 111q0 77 -36.5 109t-118.5 32q-93 0 -140.5 -48.5t-71.5 -172.5
q-13 -70 -13 -111q0 -77 36.5 -109t118.5 -32zM270 599l147 126h54l-156 -126h-45z" />
    <glyph glyph-name="ocircumflex" unicode="&#xf4;" horiz-adv-x="550" 
d="M235 -16q-92 0 -140 42t-48 138q0 51 11 106q25 137 82.5 198t174.5 61q92 0 140 -42t48 -138q0 -51 -11 -106q-25 -137 -82.5 -198t-174.5 -61zM240 20q93 0 140.5 48.5t71.5 172.5q13 70 13 111q0 77 -36.5 109t-118.5 32q-93 0 -140.5 -48.5t-71.5 -172.5
q-13 -70 -13 -111q0 -77 36.5 -109t118.5 -32zM419 599l-69 92l-106 -92h-46l136 123h39l88 -123h-42z" />
    <glyph glyph-name="otilde" unicode="&#xf5;" horiz-adv-x="550" 
d="M235 -16q-92 0 -140 42t-48 138q0 51 11 106q25 137 82.5 198t174.5 61q92 0 140 -42t48 -138q0 -51 -11 -106q-25 -137 -82.5 -198t-174.5 -61zM240 20q93 0 140.5 48.5t71.5 172.5q13 70 13 111q0 77 -36.5 109t-118.5 32q-93 0 -140.5 -48.5t-71.5 -172.5
q-13 -70 -13 -111q0 -77 36.5 -109t118.5 -32zM343 622l-28 19q-28 20 -46 20t-29 -14t-20 -48h-31q11 55 31.5 74.5t49.5 19.5q28 0 64 -23l29 -19q31 -20 46 -20q18 0 29 14t20 48h31q-19 -94 -80 -94q-33 0 -66 23z" />
    <glyph glyph-name="odieresis" unicode="&#xf6;" horiz-adv-x="550" 
d="M235 -16q-92 0 -140 42t-48 138q0 51 11 106q25 137 82.5 198t174.5 61q92 0 140 -42t48 -138q0 -51 -11 -106q-25 -137 -82.5 -198t-174.5 -61zM240 20q93 0 140.5 48.5t71.5 172.5q13 70 13 111q0 77 -36.5 109t-118.5 32q-93 0 -140.5 -48.5t-71.5 -172.5
q-13 -70 -13 -111q0 -77 36.5 -109t118.5 -32zM276 693q28 0 28 -30q0 -40 -35 -40q-29 0 -29 30q0 40 36 40zM413 693q28 0 28 -30q0 -40 -35 -40q-29 0 -29 30q0 40 36 40z" />
    <glyph glyph-name="divide" unicode="&#xf7;" horiz-adv-x="595" 
d="M345 547q31 0 31 -33q0 -43 -39 -43q-31 0 -31 33q0 43 39 43zM281 214q31 0 31 -33q0 -43 -39 -43q-31 0 -31 33q0 43 39 43zM516 324h-411l7 37h411z" />
    <glyph glyph-name="oslash" unicode="&#xf8;" horiz-adv-x="550" 
d="M235 -16q-82 0 -126 30l-64 -84h-42l81 106q-37 45 -37 128q0 51 11 106q25 137 82.5 198t174.5 61q76 0 122 -28l66 86h42l-82 -108q40 -41 40 -130q0 -51 -11 -106q-25 -137 -82.5 -198t-174.5 -61zM240 20q93 0 140.5 48.5t71.5 172.5q13 70 13 111q0 61 -26 96
l-307 -404q35 -24 108 -24zM85 161q0 -61 23 -93l306 403q-37 22 -104 22q-93 0 -140.5 -48.5t-71.5 -172.5q-13 -70 -13 -111z" />
    <glyph glyph-name="ugrave" unicode="&#xf9;" horiz-adv-x="557" 
d="M491 513h38l-64 -329q-22 -110 -72 -155t-152 -45q-182 0 -182 145q0 33 7 65l62 319h38l-63 -324q-6 -31 -6 -57q0 -62 36.5 -87t109.5 -25q84 0 125 36.5t59 127.5zM292 725l101 -126h-39l-109 126h47z" />
    <glyph glyph-name="uacute" unicode="&#xfa;" horiz-adv-x="557" 
d="M491 513h38l-64 -329q-22 -110 -72 -155t-152 -45q-182 0 -182 145q0 33 7 65l62 319h38l-63 -324q-6 -31 -6 -57q0 -62 36.5 -87t109.5 -25q84 0 125 36.5t59 127.5zM272 599l147 126h54l-156 -126h-45z" />
    <glyph glyph-name="ucircumflex" unicode="&#xfb;" horiz-adv-x="557" 
d="M491 513h38l-64 -329q-22 -110 -72 -155t-152 -45q-182 0 -182 145q0 33 7 65l62 319h38l-63 -324q-6 -31 -6 -57q0 -62 36.5 -87t109.5 -25q84 0 125 36.5t59 127.5zM426 599l-69 92l-106 -92h-46l136 123h39l88 -123h-42z" />
    <glyph glyph-name="udieresis" unicode="&#xfc;" horiz-adv-x="557" 
d="M491 513h38l-64 -329q-22 -110 -72 -155t-152 -45q-182 0 -182 145q0 33 7 65l62 319h38l-63 -324q-6 -31 -6 -57q0 -62 36.5 -87t109.5 -25q84 0 125 36.5t59 127.5zM280 693q28 0 28 -30q0 -40 -35 -40q-29 0 -29 30q0 40 36 40zM417 693q28 0 28 -30q0 -40 -35 -40
q-29 0 -29 30q0 40 36 40z" />
    <glyph glyph-name="yacute" unicode="&#xfd;" horiz-adv-x="562" 
d="M202 -141q94 0 139 42.5t63 143.5l7 37q-49 -64 -168 -64q-178 0 -178 145q0 25 7 65l55 285h38l-56 -290q-6 -33 -6 -59q0 -61 35.5 -85.5t108.5 -24.5q84 0 128.5 37t62.5 127l57 295h38l-90 -466q-24 -118 -75 -171t-167 -53q-10 0 -72 1t-100 1l15 36q27 0 88 -1
t70 -1zM268 599l147 126h54l-156 -126h-45z" />
    <glyph glyph-name="thorn" unicode="&#xfe;" horiz-adv-x="570" 
d="M-6 -175l179 918h38l-58 -297q58 83 182 83q92 0 140 -42t48 -138q0 -51 -11 -106q-25 -137 -82.5 -198t-171.5 -61q-144 0 -175 101l-51 -260h-38zM330 493q-87 0 -138 -49.5t-74 -171.5q-13 -70 -13 -111q0 -77 36.5 -109t118.5 -32q93 0 140.5 48.5t71.5 172.5
q13 70 13 111q0 77 -36.5 109t-118.5 32z" />
    <glyph glyph-name="ydieresis" unicode="&#xff;" horiz-adv-x="562" 
d="M202 -141q94 0 139 42.5t63 143.5l7 37q-49 -64 -168 -64q-178 0 -178 145q0 25 7 65l55 285h38l-56 -290q-6 -33 -6 -59q0 -61 35.5 -85.5t108.5 -24.5q84 0 128.5 37t62.5 127l57 295h38l-90 -466q-24 -118 -75 -171t-167 -53q-10 0 -72 1t-100 1l15 36q27 0 88 -1
t70 -1zM281 693q28 0 28 -30q0 -40 -35 -40q-29 0 -29 30q0 40 36 40zM418 693q28 0 28 -30q0 -40 -35 -40q-29 0 -29 30q0 40 36 40z" />
    <glyph glyph-name="Amacron" unicode="&#x100;" horiz-adv-x="631" 
d="M16 0h-41l409 712h39l133 -712h-39l-44 238h-322zM395 665l-223 -390h295zM291 796l7 34h244l-7 -34h-244z" />
    <glyph glyph-name="amacron" unicode="&#x101;" horiz-adv-x="535" 
d="M238 -9q-101 0 -152.5 31t-51.5 104q0 24 6 52q17 77 67.5 112t137.5 35q140 0 174 -72l13 66q7 37 7 57q0 54 -34 78.5t-113 24.5q-117 0 -152 -2l15 36q26 2 141 2q179 0 179 -137q0 -33 -7 -65l-54 -273q-5 -21 -13 -28t-28 -11q-56 -10 -135 -10zM242 27q55 0 134 9
l20 105q5 27 5 44q0 58 -39 81.5t-118 23.5q-73 0 -112.5 -27.5t-53.5 -90.5q-5 -27 -5 -43q0 -32 12 -53t37 -31.5t52.5 -14t67.5 -3.5zM221 633l7 34h244l-7 -34h-244z" />
    <glyph glyph-name="Abreve" unicode="&#x102;" horiz-adv-x="631" 
d="M16 0h-41l409 712h39l133 -712h-39l-44 238h-322zM395 665l-223 -390h295zM413 804q98 0 114 88h33q-21 -119 -147 -119q-125 0 -125 95q0 6 2 24h33q-1 -7 -1 -17q0 -37 20 -54t71 -17z" />
    <glyph glyph-name="abreve" unicode="&#x103;" horiz-adv-x="535" 
d="M238 -9q-101 0 -152.5 31t-51.5 104q0 24 6 52q17 77 67.5 112t137.5 35q140 0 174 -72l13 66q7 37 7 57q0 54 -34 78.5t-113 24.5q-117 0 -152 -2l15 36q26 2 141 2q179 0 179 -137q0 -33 -7 -65l-54 -273q-5 -21 -13 -28t-28 -11q-56 -10 -135 -10zM242 27q55 0 134 9
l20 105q5 27 5 44q0 58 -39 81.5t-118 23.5q-73 0 -112.5 -27.5t-53.5 -90.5q-5 -27 -5 -43q0 -32 12 -53t37 -31.5t52.5 -14t67.5 -3.5zM327 625q98 0 114 88h33q-21 -119 -147 -119q-125 0 -125 95q0 6 2 24h33q-1 -7 -1 -17q0 -37 20 -54t71 -17z" />
    <glyph glyph-name="Aogonek" unicode="&#x104;" horiz-adv-x="631" 
d="M16 0h-41l409 712h39l133 -712q-117 -67 -117 -117q0 -13 9.5 -19t19 -7t26.5 -1h34l-15 -34h-31q-83 0 -83 53q0 68 117 131l-43 232h-322zM395 665l-223 -390h295z" />
    <glyph glyph-name="aogonek" unicode="&#x105;" horiz-adv-x="535" 
d="M391 5q-66 -40 -91.5 -68t-25.5 -54q0 -13 9.5 -19t19 -7t26.5 -1h34l-15 -34h-29q-83 0 -83 53q0 62 88 120q-36 -4 -86 -4q-101 0 -152.5 31t-51.5 104q0 24 6 52q17 77 67.5 112t137.5 35q140 0 174 -72l13 66q7 37 7 57q0 54 -34 78.5t-113 24.5q-117 0 -152 -2
l15 36q26 2 141 2q179 0 179 -137q0 -33 -7 -65l-54 -273q-4 -24 -23 -35zM242 27q55 0 134 9l20 105q5 27 5 44q0 58 -39 81.5t-118 23.5q-73 0 -112.5 -27.5t-53.5 -90.5q-5 -27 -5 -43q0 -32 12 -53t37 -31.5t52.5 -14t67.5 -3.5z" />
    <glyph glyph-name="Cacute" unicode="&#x106;" horiz-adv-x="567" 
d="M589 712l-15 -37q-25 0 -74 1t-60 1q-65 0 -111.5 -13t-87.5 -47.5t-69.5 -98t-47.5 -160.5q-15 -76 -15 -132q0 -107 54 -149t169 -42q23 0 72 1t62 1l-15 -37q-50 -2 -122 -2q-140 0 -200.5 55.5t-60.5 166.5q0 55 18 147q21 103 51.5 170.5t75.5 106.5t100.5 54.5
t133.5 15.5q31 0 82.5 -1t59.5 -1zM358 773l138 119h55l-147 -119h-46z" />
    <glyph glyph-name="cacute" unicode="&#x107;" horiz-adv-x="450" 
d="M253 34q34 0 104 2l-15 -36q-18 -2 -96 -2q-106 0 -153 43.5t-47 127.5q0 48 12 105q15 74 39 122.5t61 74t78.5 35t100.5 9.5q27 0 99 -2l-15 -36q-46 2 -89 2q-106 0 -158 -42t-77 -165q-12 -58 -12 -100q0 -79 41.5 -108.5t126.5 -29.5zM249 599l147 126h54l-156 -126
h-45z" />
    <glyph glyph-name="Ccircumflex" unicode="&#x108;" horiz-adv-x="567" 
d="M589 712l-15 -37q-25 0 -74 1t-60 1q-65 0 -111.5 -13t-87.5 -47.5t-69.5 -98t-47.5 -160.5q-15 -76 -15 -132q0 -107 54 -149t169 -42q23 0 72 1t62 1l-15 -37q-50 -2 -122 -2q-140 0 -200.5 55.5t-60.5 166.5q0 55 18 147q21 103 51.5 170.5t75.5 106.5t100.5 54.5
t133.5 15.5q31 0 82.5 -1t59.5 -1zM507 773l-78 86l-114 -86h-46l141 113h39l99 -113h-41z" />
    <glyph glyph-name="ccircumflex" unicode="&#x109;" horiz-adv-x="450" 
d="M253 34q34 0 104 2l-15 -36q-18 -2 -96 -2q-106 0 -153 43.5t-47 127.5q0 48 12 105q15 74 39 122.5t61 74t78.5 35t100.5 9.5q27 0 99 -2l-15 -36q-46 2 -89 2q-106 0 -158 -42t-77 -165q-12 -58 -12 -100q0 -79 41.5 -108.5t126.5 -29.5zM399 599l-69 92l-106 -92h-46
l136 123h39l88 -123h-42z" />
    <glyph glyph-name="Cdotaccent" unicode="&#x10a;" horiz-adv-x="567" 
d="M589 712l-15 -37q-25 0 -74 1t-60 1q-65 0 -111.5 -13t-87.5 -47.5t-69.5 -98t-47.5 -160.5q-15 -76 -15 -132q0 -107 54 -149t169 -42q23 0 72 1t62 1l-15 -37q-50 -2 -122 -2q-140 0 -200.5 55.5t-60.5 166.5q0 55 18 147q21 103 51.5 170.5t75.5 106.5t100.5 54.5
t133.5 15.5q31 0 82.5 -1t59.5 -1zM436 849q28 0 28 -30q0 -40 -35 -40q-29 0 -29 30q0 40 36 40z" />
    <glyph glyph-name="cdotaccent" unicode="&#x10b;" horiz-adv-x="450" 
d="M253 34q34 0 104 2l-15 -36q-18 -2 -96 -2q-106 0 -153 43.5t-47 127.5q0 48 12 105q15 74 39 122.5t61 74t78.5 35t100.5 9.5q27 0 99 -2l-15 -36q-46 2 -89 2q-106 0 -158 -42t-77 -165q-12 -58 -12 -100q0 -79 41.5 -108.5t126.5 -29.5zM339 693q28 0 28 -30
q0 -40 -35 -40q-29 0 -29 30q0 40 36 40z" />
    <glyph glyph-name="Ccaron" unicode="&#x10c;" horiz-adv-x="567" 
d="M589 712l-15 -37q-25 0 -74 1t-60 1q-65 0 -111.5 -13t-87.5 -47.5t-69.5 -98t-47.5 -160.5q-15 -76 -15 -132q0 -107 54 -149t169 -42q23 0 72 1t62 1l-15 -37q-50 -2 -122 -2q-140 0 -200.5 55.5t-60.5 166.5q0 55 18 147q21 103 51.5 170.5t75.5 106.5t100.5 54.5
t133.5 15.5q31 0 82.5 -1t59.5 -1zM342 886l78 -86l113 86h46l-142 -113h-39l-98 113h42z" />
    <glyph glyph-name="ccaron" unicode="&#x10d;" horiz-adv-x="450" 
d="M253 34q34 0 104 2l-15 -36q-18 -2 -96 -2q-106 0 -153 43.5t-47 127.5q0 48 12 105q15 74 39 122.5t61 74t78.5 35t100.5 9.5q27 0 99 -2l-15 -36q-46 2 -89 2q-106 0 -158 -42t-77 -165q-12 -58 -12 -100q0 -79 41.5 -108.5t126.5 -29.5zM203 722h42l69 -92l106 92h46
l-136 -123h-39z" />
    <glyph glyph-name="Dcaron" unicode="&#x10e;" horiz-adv-x="660" 
d="M613 347q-37 -193 -124.5 -270t-251.5 -77h-202l139 712h200q132 0 193 -57t61 -174q0 -59 -15 -134zM370 675h-165l-124 -638h162q148 0 221.5 70.5t107.5 239.5q16 74 16 134q0 102 -52 148t-166 46zM327 886l78 -86l113 86h46l-142 -113h-39l-98 113h42z" />
    <glyph glyph-name="dcaron" unicode="&#x10f;" horiz-adv-x="588" 
d="M57 269q12 65 31.5 112.5t42.5 75.5t54.5 44.5t61 22t66.5 5.5q65 0 109 -22.5t58 -61.5l58 298h38l-137 -702q-5 -22 -13.5 -29.5t-27.5 -10.5q-54 -10 -124 -10q-119 0 -173 42t-54 139q0 46 10 97zM310 493q-42 0 -72 -8.5t-58.5 -31t-48.5 -67.5t-33 -114
q-11 -61 -11 -98q0 -80 44 -113.5t145 -33.5q60 0 124 9l56 284q5 32 5 49q0 124 -151 124zM650 743h38l-49 -167h-29z" />
    <glyph glyph-name="Dcroat" unicode="&#x110;" horiz-adv-x="678" 
d="M631 347q-37 -193 -124.5 -270t-251.5 -77h-202l66 341h-73l7 36h73l66 335h200q132 0 193 -57t61 -174q0 -59 -15 -134zM388 675h-165l-58 -298h195l-7 -36h-195l-59 -304h162q148 0 221.5 70.5t107.5 239.5q16 74 16 134q0 102 -52 148t-166 46z" />
    <glyph glyph-name="dslash" unicode="&#x111;" horiz-adv-x="559" 
d="M57 269q28 151 91 205.5t165 54.5q65 0 109 -22.5t58 -61.5l33 173h-213l7 34h213l18 91h38l-18 -91h77l-7 -34h-77l-112 -577q-5 -22 -13.5 -29.5t-27.5 -10.5q-54 -10 -124 -10q-119 0 -173 42t-54 139q0 46 10 97zM310 493q-42 0 -72 -8.5t-58.5 -31t-48.5 -67.5
t-33 -114q-11 -61 -11 -98q0 -80 44 -113.5t145 -33.5q60 0 124 9l56 284q5 32 5 49q0 124 -151 124z" />
    <glyph glyph-name="Emacron" unicode="&#x112;" horiz-adv-x="583" 
d="M519 385l-15 -37h-362l-61 -311h399l-15 -37h-430l139 712h430l-15 -37h-383l-57 -290h370zM279 796l7 34h244l-7 -34h-244z" />
    <glyph glyph-name="emacron" unicode="&#x113;" horiz-adv-x="512" 
d="M279 244h-189q-7 -38 -7 -71q0 -70 39 -104.5t127 -34.5q93 0 138 3l-15 -36q-43 -3 -122 -3q-108 0 -156 44t-48 128q0 52 13 105q32 140 91.5 197t166.5 57q167 0 167 -118q0 -22 -6 -46q-15 -64 -60.5 -92.5t-138.5 -28.5zM316 494q-91 0 -142.5 -49.5t-76.5 -166.5
h181q78 0 113.5 20t47.5 72q5 25 5 39q0 85 -128 85zM217 633l7 34h244l-7 -34h-244z" />
    <glyph glyph-name="Ebreve" unicode="&#x114;" horiz-adv-x="583" 
d="M519 385l-15 -37h-362l-61 -311h399l-15 -37h-430l139 712h430l-15 -37h-383l-57 -290h370zM411 804q98 0 114 88h33q-21 -119 -147 -119q-125 0 -125 95q0 6 2 24h33q-1 -7 -1 -17q0 -37 20 -54t71 -17z" />
    <glyph glyph-name="ebreve" unicode="&#x115;" horiz-adv-x="512" 
d="M279 244h-189q-7 -38 -7 -71q0 -70 39 -104.5t127 -34.5q93 0 138 3l-15 -36q-43 -3 -122 -3q-108 0 -156 44t-48 128q0 52 13 105q32 140 91.5 197t166.5 57q167 0 167 -118q0 -22 -6 -46q-15 -64 -60.5 -92.5t-138.5 -28.5zM316 494q-91 0 -142.5 -49.5t-76.5 -166.5
h181q78 0 113.5 20t47.5 72q5 25 5 39q0 85 -128 85zM338 625q98 0 114 88h33q-21 -119 -147 -119q-125 0 -125 95q0 6 2 24h33q-1 -7 -1 -17q0 -37 20 -54t71 -17z" />
    <glyph glyph-name="Edotaccent" unicode="&#x116;" horiz-adv-x="583" 
d="M519 385l-15 -37h-362l-61 -311h399l-15 -37h-430l139 712h430l-15 -37h-383l-57 -290h370zM408 849q28 0 28 -30q0 -40 -35 -40q-29 0 -29 30q0 40 36 40z" />
    <glyph glyph-name="edotaccent" unicode="&#x117;" horiz-adv-x="512" 
d="M279 244h-189q-7 -38 -7 -71q0 -70 39 -104.5t127 -34.5q93 0 138 3l-15 -36q-43 -3 -122 -3q-108 0 -156 44t-48 128q0 52 13 105q32 140 91.5 197t166.5 57q167 0 167 -118q0 -22 -6 -46q-15 -64 -60.5 -92.5t-138.5 -28.5zM316 494q-91 0 -142.5 -49.5t-76.5 -166.5
h181q78 0 113.5 20t47.5 72q5 25 5 39q0 85 -128 85zM343 693q28 0 28 -30q0 -40 -35 -40q-29 0 -29 30q0 40 36 40z" />
    <glyph glyph-name="Eogonek" unicode="&#x118;" horiz-adv-x="583" 
d="M434 -144l-15 -34h-31q-83 0 -83 53q0 66 104 125h-374l139 712h430l-15 -37h-383l-57 -290h370l-15 -37h-362l-61 -311h399l-15 -37h-4q-65 -38 -90.5 -65t-25.5 -52q0 -13 9.5 -19t19 -7t26.5 -1h34z" />
    <glyph glyph-name="eogonek" unicode="&#x119;" horiz-adv-x="512" 
d="M344 -144l-15 -34h-29q-83 0 -83 53q0 64 99 124q-20 -1 -66 -1q-108 0 -156 44t-48 128q0 42 13 105q32 146 94.5 200t163.5 54q167 0 167 -118q0 -22 -6 -46q-15 -64 -60.5 -92.5t-138.5 -28.5h-189q-7 -38 -7 -71q0 -70 39 -104.5t127 -34.5q93 0 138 3l-15 -36
q-117 -66 -117 -118q0 -13 9.5 -19t19 -7t26.5 -1h34zM316 494q-91 0 -142.5 -49.5t-76.5 -166.5h181q78 0 113.5 20t47.5 72q5 25 5 39q0 85 -128 85z" />
    <glyph glyph-name="Ecaron" unicode="&#x11a;" horiz-adv-x="583" 
d="M519 385l-15 -37h-362l-61 -311h399l-15 -37h-430l139 712h430l-15 -37h-383l-57 -290h370zM316 886l78 -86l113 86h46l-142 -113h-39l-98 113h42z" />
    <glyph glyph-name="ecaron" unicode="&#x11b;" horiz-adv-x="512" 
d="M279 244h-189q-7 -38 -7 -71q0 -70 39 -104.5t127 -34.5q93 0 138 3l-15 -36q-43 -3 -122 -3q-108 0 -156 44t-48 128q0 52 13 105q32 140 91.5 197t166.5 57q167 0 167 -118q0 -22 -6 -46q-15 -64 -60.5 -92.5t-138.5 -28.5zM316 494q-91 0 -142.5 -49.5t-76.5 -166.5
h181q78 0 113.5 20t47.5 72q5 25 5 39q0 85 -128 85zM221 722h42l69 -92l106 92h46l-136 -123h-39z" />
    <glyph glyph-name="Gcircumflex" unicode="&#x11c;" horiz-adv-x="623" 
d="M349 -2q-153 0 -217 54.5t-64 165.5q0 57 18 149q21 103 51.5 170.5t75.5 106.5t100.5 54.5t133.5 15.5q111 0 176 -3l-15 -37q-72 3 -167 3q-66 0 -112.5 -13t-87.5 -47t-69.5 -97.5t-47.5 -160.5q-15 -78 -15 -133q0 -111 58 -151t185 -40q79 0 125 8l52 267h-155
l15 37h187l-59 -302q-4 -21 -12 -28.5t-29 -10.5q-47 -8 -127 -8zM543 773l-78 86l-114 -86h-46l141 113h39l99 -113h-41z" />
    <glyph glyph-name="gcircumflex" unicode="&#x11d;" horiz-adv-x="571" 
d="M315 529q94 0 141.5 -39.5t47.5 -131.5q0 -47 -10 -97l-42 -216q-23 -117 -74 -169.5t-167 -52.5q-10 0 -72 1t-100 1l15 36q27 0 88 -1t70 -1q94 0 139 42t63 144l10 51q-57 -78 -182 -78q-94 0 -142.5 40.5t-48.5 133.5q0 43 10 94q25 129 81 186t173 57zM310 493
q-94 0 -139.5 -44t-69.5 -161q-11 -61 -11 -98q0 -74 37.5 -105t119.5 -31q88 0 137 45.5t72 159.5q11 61 11 98q0 74 -37.5 105t-119.5 31zM423 599l-69 92l-106 -92h-46l136 123h39l88 -123h-42z" />
    <glyph glyph-name="Gbreve" unicode="&#x11e;" horiz-adv-x="623" 
d="M349 -2q-153 0 -217 54.5t-64 165.5q0 57 18 149q21 103 51.5 170.5t75.5 106.5t100.5 54.5t133.5 15.5q111 0 176 -3l-15 -37q-72 3 -167 3q-66 0 -112.5 -13t-87.5 -47t-69.5 -97.5t-47.5 -160.5q-15 -78 -15 -133q0 -111 58 -151t185 -40q79 0 125 8l52 267h-155
l15 37h187l-59 -302q-4 -21 -12 -28.5t-29 -10.5q-47 -8 -127 -8zM429 804q98 0 114 88h33q-21 -119 -147 -119q-125 0 -125 95q0 6 2 24h33q-1 -7 -1 -17q0 -37 20 -54t71 -17z" />
    <glyph glyph-name="gbreve" unicode="&#x11f;" horiz-adv-x="571" 
d="M315 529q94 0 141.5 -39.5t47.5 -131.5q0 -47 -10 -97l-42 -216q-23 -117 -74 -169.5t-167 -52.5q-10 0 -72 1t-100 1l15 36q27 0 88 -1t70 -1q94 0 139 42t63 144l10 51q-57 -78 -182 -78q-94 0 -142.5 40.5t-48.5 133.5q0 43 10 94q25 129 81 186t173 57zM310 493
q-94 0 -139.5 -44t-69.5 -161q-11 -61 -11 -98q0 -74 37.5 -105t119.5 -31q88 0 137 45.5t72 159.5q11 61 11 98q0 74 -37.5 105t-119.5 31zM344 625q98 0 114 88h33q-21 -119 -147 -119q-125 0 -125 95q0 6 2 24h33q-1 -7 -1 -17q0 -37 20 -54t71 -17z" />
    <glyph glyph-name="Gdotaccent" unicode="&#x120;" horiz-adv-x="623" 
d="M349 -2q-153 0 -217 54.5t-64 165.5q0 57 18 149q21 103 51.5 170.5t75.5 106.5t100.5 54.5t133.5 15.5q111 0 176 -3l-15 -37q-72 3 -167 3q-66 0 -112.5 -13t-87.5 -47t-69.5 -97.5t-47.5 -160.5q-15 -78 -15 -133q0 -111 58 -151t185 -40q79 0 125 8l52 267h-155
l15 37h187l-59 -302q-4 -21 -12 -28.5t-29 -10.5q-47 -8 -127 -8zM461 849q28 0 28 -30q0 -40 -35 -40q-29 0 -29 30q0 40 36 40z" />
    <glyph glyph-name="gdotaccent" unicode="&#x121;" horiz-adv-x="571" 
d="M315 529q94 0 141.5 -39.5t47.5 -131.5q0 -47 -10 -97l-42 -216q-23 -117 -74 -169.5t-167 -52.5q-10 0 -72 1t-100 1l15 36q27 0 88 -1t70 -1q94 0 139 42t63 144l10 51q-57 -78 -182 -78q-94 0 -142.5 40.5t-48.5 133.5q0 43 10 94q25 129 81 186t173 57zM310 493
q-94 0 -139.5 -44t-69.5 -161q-11 -61 -11 -98q0 -74 37.5 -105t119.5 -31q88 0 137 45.5t72 159.5q11 61 11 98q0 74 -37.5 105t-119.5 31zM359 693q28 0 28 -30q0 -40 -35 -40q-29 0 -29 30q0 40 36 40z" />
    <glyph glyph-name="Gcommaaccent" unicode="&#x122;" horiz-adv-x="623" 
d="M349 -2q-153 0 -217 54.5t-64 165.5q0 57 18 149q21 103 51.5 170.5t75.5 106.5t100.5 54.5t133.5 15.5q111 0 176 -3l-15 -37q-72 3 -167 3q-66 0 -112.5 -13t-87.5 -47t-69.5 -97.5t-47.5 -160.5q-15 -78 -15 -133q0 -111 58 -151t185 -40q79 0 125 8l52 267h-155
l15 37h187l-59 -302q-4 -21 -12 -28.5t-29 -10.5q-47 -8 -127 -8zM253 -99q0 39 36 39q28 0 28 -29q0 -18 -21 -52l-51 -81h-32l52 96q-12 5 -12 27z" />
    <glyph glyph-name="gcommaaccent" unicode="&#x123;" horiz-adv-x="571" 
d="M315 529q94 0 141.5 -39.5t47.5 -131.5q0 -47 -10 -97l-42 -216q-23 -117 -74 -169.5t-167 -52.5q-10 0 -72 1t-100 1l15 36q27 0 88 -1t70 -1q94 0 139 42t63 144l10 51q-57 -78 -182 -78q-94 0 -142.5 40.5t-48.5 133.5q0 43 10 94q25 129 81 186t173 57zM310 493
q-94 0 -139.5 -44t-69.5 -161q-11 -61 -11 -98q0 -74 37.5 -105t119.5 -31q88 0 137 45.5t72 159.5q11 61 11 98q0 74 -37.5 105t-119.5 31zM366 662q0 -39 -36 -39q-28 0 -28 29q0 18 21 52l51 81h32l-52 -96q12 -5 12 -27z" />
    <glyph glyph-name="Hcircumflex" unicode="&#x124;" horiz-adv-x="682" 
d="M647 712h39l-139 -712h-39l67 347h-434l-67 -347h-39l139 712h39l-65 -329h434zM532 773l-78 86l-114 -86h-46l141 113h39l99 -113h-41z" />
    <glyph glyph-name="hcircumflex" unicode="&#x125;" horiz-adv-x="562" 
d="M28 0l145 743h38l-55 -278q54 64 169 64q95 0 136.5 -36t41.5 -107q0 -35 -7 -67l-62 -319h-38l63 324q6 33 6 59q0 61 -35.5 85.5t-108.5 24.5q-84 0 -128.5 -37t-62.5 -127l-64 -329h-38zM412 772l-79 87l-113 -87h-46l142 113h39l98 -113h-41z" />
    <glyph glyph-name="Hbar" unicode="&#x126;" horiz-adv-x="740" 
d="M676 712h39l-27 -138h83l-7 -35h-83l-105 -539h-39l67 347h-434l-67 -347h-39l105 539h-85l7 35h85l27 138h39l-27 -138h434zM177 383h434l31 156h-434z" />
    <glyph glyph-name="hbar" unicode="&#x127;" horiz-adv-x="562" 
d="M28 0l120 618h-74l7 34h74l18 91h38l-18 -91h215l-7 -34h-215l-30 -153q54 64 169 64q95 0 136.5 -36t41.5 -107q0 -35 -7 -67l-62 -319h-38l63 324q6 33 6 59q0 61 -35.5 85.5t-108.5 24.5q-84 0 -128.5 -37t-62.5 -127l-64 -329h-38z" />
    <glyph glyph-name="Itilde" unicode="&#x128;" horiz-adv-x="209" 
d="M174 712h39l-139 -712h-39zM210 796l-28 19q-31 20 -46 20q-20 0 -30 -13t-19 -49h-34q19 94 87 94q28 0 61 -23l29 -19q31 -20 46 -20q20 0 30 13t19 49h34q-19 -94 -87 -94q-29 0 -62 23z" />
    <glyph glyph-name="itilde" unicode="&#x129;" horiz-adv-x="194" 
d="M28 0l100 513h38l-100 -513h-38zM168 622l-28 19q-28 20 -46 20t-29 -14t-20 -48h-31q11 55 31.5 74.5t49.5 19.5q28 0 64 -23l29 -19q31 -20 46 -20q18 0 29 14t20 48h31q-19 -94 -80 -94q-33 0 -66 23z" />
    <glyph glyph-name="Imacron" unicode="&#x12a;" horiz-adv-x="209" 
d="M174 712h39l-139 -712h-39zM73 796l7 34h244l-7 -34h-244z" />
    <glyph glyph-name="imacron" unicode="&#x12b;" horiz-adv-x="194" 
d="M28 0l100 513h38l-100 -513h-38zM41 633l7 34h244l-7 -34h-244z" />
    <glyph glyph-name="Ibreve" unicode="&#x12c;" horiz-adv-x="209" 
d="M174 712h39l-139 -712h-39zM207 804q98 0 114 88h33q-21 -119 -147 -119q-125 0 -125 95q0 6 2 24h33q-1 -7 -1 -17q0 -37 20 -54t71 -17z" />
    <glyph glyph-name="ibreve" unicode="&#x12d;" horiz-adv-x="194" 
d="M28 0l100 513h38l-100 -513h-38zM161 625q98 0 114 88h33q-21 -119 -147 -119q-125 0 -125 95q0 6 2 24h33q-1 -7 -1 -17q0 -37 20 -54t71 -17z" />
    <glyph glyph-name="Iogonek" unicode="&#x12e;" horiz-adv-x="209" 
d="M48 -144l-15 -34h-31q-83 0 -83 53q0 68 117 132l138 705h39l-139 -712q-115 -66 -115 -117q0 -13 9.5 -19t19 -7t26.5 -1h34z" />
    <glyph glyph-name="iogonek" unicode="&#x12f;" horiz-adv-x="194" 
d="M38 -144l-15 -34h-29q-83 0 -83 53q0 68 118 132l99 506h38l-100 -513q-117 -67 -117 -117q0 -13 9.5 -19t19 -7t26.5 -1h34zM176 693q28 0 28 -30q0 -40 -35 -40q-29 0 -29 30q0 40 36 40z" />
    <glyph glyph-name="Idot" unicode="&#x130;" horiz-adv-x="209" 
d="M174 712h39l-139 -712h-39zM213 849q28 0 28 -30q0 -40 -35 -40q-29 0 -29 30q0 40 36 40z" />
    <glyph glyph-name="dotlessi" unicode="&#x131;" horiz-adv-x="194" 
d="M28 0l100 513h38l-100 -513h-38z" />
    <glyph glyph-name="IJ" unicode="&#x132;" horiz-adv-x="630" 
d="M174 712h39l-139 -712h-39zM316 38q91 0 128.5 34.5t52.5 113.5l103 526h39l-103 -526q-19 -100 -67.5 -143t-153.5 -43q-85 0 -126 2l15 38q31 -2 112 -2z" />
    <glyph glyph-name="ij" unicode="&#x133;" horiz-adv-x="388" 
d="M28 0l100 513h38l-100 -513h-38zM176 693q28 0 28 -30q0 -40 -35 -40q-29 0 -29 30q0 40 36 40zM223 5l98 508h38l-98 -508q-20 -105 -58 -143.5t-124 -38.5q-41 0 -57 1l15 36q13 -1 45 -1q64 0 93.5 30t47.5 116zM369 693q28 0 28 -30q0 -40 -35 -40q-29 0 -29 30
q0 40 36 40z" />
    <glyph glyph-name="Jcircumflex" unicode="&#x134;" horiz-adv-x="421" 
d="M107 38q91 0 128.5 34.5t52.5 113.5l103 526h39l-103 -526q-19 -100 -67.5 -143t-153.5 -43q-85 0 -126 2l15 38q31 -2 112 -2zM511 773l-78 86l-114 -86h-46l141 113h39l99 -113h-41z" />
    <glyph glyph-name="jcircumflex" unicode="&#x135;" horiz-adv-x="194" 
d="M29 5l98 508h38l-98 -508q-20 -105 -58 -143.5t-124 -38.5q-41 0 -57 1l15 36q13 -1 45 -1q64 0 93.5 30t47.5 116zM243 599l-69 92l-106 -92h-46l136 123h39l88 -123h-42z" />
    <glyph glyph-name="Kcommaaccent" unicode="&#x136;" horiz-adv-x="606" 
d="M633 712l-451 -340l359 -372h-53l-344 358l-70 -358h-39l139 712h39l-63 -323l428 323h55zM228 -99q0 39 36 39q28 0 28 -29q0 -18 -21 -52l-51 -81h-32l52 96q-12 5 -12 27z" />
    <glyph glyph-name="kcommaaccent" unicode="&#x137;" horiz-adv-x="501" 
d="M435 0h-49l-268 269l-52 -269h-38l145 743h38l-87 -447l324 217h59l-349 -234zM187 -99q0 39 36 39q28 0 28 -29q0 -18 -21 -52l-51 -81h-32l52 96q-12 5 -12 27z" />
    <glyph glyph-name="kgreenlandic" unicode="&#x138;" horiz-adv-x="501" 
d="M435 0h-49l-273 249l-47 -249h-38l100 513h38l-47 -237l329 237h59l-354 -253z" />
    <glyph glyph-name="Lacute" unicode="&#x139;" horiz-adv-x="524" 
d="M213 712l-132 -675h370l-15 -37h-401l139 712h39zM172 773l138 119h55l-147 -119h-46z" />
    <glyph glyph-name="lacute" unicode="&#x13a;" horiz-adv-x="194" 
d="M28 0l145 743h38l-145 -743h-38zM171 772l128 104h49l-136 -104h-41z" />
    <glyph glyph-name="Lcommaaccent" unicode="&#x13b;" horiz-adv-x="524" 
d="M213 712l-132 -675h370l-15 -37h-401l139 712h39zM205 -99q0 39 36 39q28 0 28 -29q0 -18 -21 -52l-51 -81h-32l52 96q-12 5 -12 27z" />
    <glyph glyph-name="lcommaaccent" unicode="&#x13c;" horiz-adv-x="194" 
d="M28 0l145 743h38l-145 -743h-38zM-5 -99q0 39 36 39q28 0 28 -29q0 -18 -21 -52l-51 -81h-32l52 96q-12 5 -12 27z" />
    <glyph glyph-name="Lcaron" unicode="&#x13d;" horiz-adv-x="524" 
d="M213 712l-132 -675h370l-15 -37h-401l139 712h39zM348 763h38l-49 -167h-29z" />
    <glyph glyph-name="lcaron" unicode="&#x13e;" horiz-adv-x="223" 
d="M28 0l145 743h38l-145 -743h-38zM286 743h38l-49 -167h-29z" />
    <glyph glyph-name="Ldot" unicode="&#x13f;" horiz-adv-x="524" 
d="M213 712l-132 -675h370l-15 -37h-401l139 712h39zM395 436q31 0 31 -33q0 -43 -39 -43q-31 0 -31 33q0 43 39 43z" />
    <glyph glyph-name="ldot" unicode="&#x140;" horiz-adv-x="272" 
d="M28 0l145 743h38l-145 -743h-38zM261 424q31 0 31 -33q0 -43 -39 -43q-31 0 -31 33q0 43 39 43z" />
    <glyph glyph-name="Lslash" unicode="&#x141;" horiz-adv-x="549" 
d="M238 712l-67 -341l248 144l-8 -42l-248 -144l-57 -292h370l-15 -37h-401l59 305l-90 -52l8 42l90 52l72 365h39z" />
    <glyph glyph-name="lslash" unicode="&#x142;" horiz-adv-x="222" 
d="M42 0l71 367l-102 -79l9 45l102 79l65 331h38l-59 -301l103 80l-9 -45l-103 -80l-77 -397h-38z" />
    <glyph glyph-name="Nacute" unicode="&#x143;" horiz-adv-x="681" 
d="M648 712h37l-139 -712h-35l-313 652l-126 -652h-37l139 712h35l312 -653zM373 773l138 119h55l-147 -119h-46z" />
    <glyph glyph-name="nacute" unicode="&#x144;" horiz-adv-x="562" 
d="M66 0h-38l64 331q20 105 72.5 151.5t153.5 46.5q185 0 185 -145q0 -25 -7 -65l-62 -319h-38l63 324q6 32 6 56q0 62 -37.5 87.5t-111.5 25.5q-84 0 -126 -36.5t-60 -127.5zM269 599l147 126h54l-156 -126h-45z" />
    <glyph glyph-name="Ncommaaccent" unicode="&#x145;" horiz-adv-x="681" 
d="M648 712h37l-139 -712h-35l-313 652l-126 -652h-37l139 712h35l312 -653zM253 -99q0 39 36 39q28 0 28 -29q0 -18 -21 -52l-51 -81h-32l52 96q-12 5 -12 27z" />
    <glyph glyph-name="ncommaaccent" unicode="&#x146;" horiz-adv-x="562" 
d="M66 0h-38l64 331q20 105 72.5 151.5t153.5 46.5q185 0 185 -145q0 -25 -7 -65l-62 -319h-38l63 324q6 32 6 56q0 62 -37.5 87.5t-111.5 25.5q-84 0 -126 -36.5t-60 -127.5zM197 -99q0 39 36 39q28 0 28 -29q0 -18 -21 -52l-51 -81h-32l52 96q-12 5 -12 27z" />
    <glyph glyph-name="Ncaron" unicode="&#x147;" horiz-adv-x="681" 
d="M648 712h37l-139 -712h-35l-313 652l-126 -652h-37l139 712h35l312 -653zM351 886l78 -86l113 86h46l-142 -113h-39l-98 113h42z" />
    <glyph glyph-name="ncaron" unicode="&#x148;" horiz-adv-x="562" 
d="M66 0h-38l64 331q20 105 72.5 151.5t153.5 46.5q185 0 185 -145q0 -25 -7 -65l-62 -319h-38l63 324q6 32 6 56q0 62 -37.5 87.5t-111.5 25.5q-84 0 -126 -36.5t-60 -127.5zM231 722h42l69 -92l106 92h46l-136 -123h-39z" />
    <glyph glyph-name="napostrophe" unicode="&#x149;" horiz-adv-x="565" 
d="M69 0h-38l64 331q20 105 72.5 151.5t153.5 46.5q185 0 185 -145q0 -25 -7 -65l-62 -319h-38l63 324q6 32 6 56q0 62 -37.5 87.5t-111.5 25.5q-84 0 -126 -36.5t-60 -127.5zM180 650l-73 -118h-34l71 128q-12 7 -12 31q0 41 37 41q31 0 31 -32q0 -18 -20 -50z" />
    <glyph glyph-name="Eng" unicode="&#x14a;" horiz-adv-x="681" 
d="M648 712h37l-139 -712q-18 -94 -67 -134.5t-152 -40.5q-27 0 -72 1t-54 1l15 38q31 -2 112 -2q89 0 127 34.5t53 108.5l-310 646l-126 -652h-37l139 712h35l312 -653z" />
    <glyph glyph-name="eng" unicode="&#x14b;" horiz-adv-x="562" 
d="M397 5l62 319q6 32 6 56q0 62 -37.5 87.5t-111.5 25.5q-84 0 -126 -36.5t-60 -127.5l-64 -329h-38l64 331q20 105 72.5 151.5t153.5 46.5q185 0 185 -145q0 -25 -7 -65l-61 -314q-20 -105 -58 -143.5t-124 -38.5q-41 0 -57 1l15 36q13 -1 45 -1q64 0 93.5 30t47.5 116z
" />
    <glyph glyph-name="Omacron" unicode="&#x14c;" horiz-adv-x="687" 
d="M599 351q17 99 17 158q0 107 -47 146t-149 39q-61 0 -103.5 -13t-81 -48.5t-65 -102t-44.5 -168.5q-17 -99 -17 -158q0 -107 47 -146t149 -39q61 0 103.5 13t81 48.5t65 102t44.5 168.5zM639 348q-35 -203 -112.5 -284.5t-224.5 -81.5q-122 0 -177 51t-55 172
q0 68 16 160q35 203 112.5 284.5t224.5 81.5q121 0 176.5 -51.5t55.5 -171.5q0 -68 -16 -160zM315 796l7 34h244l-7 -34h-244z" />
    <glyph glyph-name="omacron" unicode="&#x14d;" horiz-adv-x="550" 
d="M235 -16q-92 0 -140 42t-48 138q0 51 11 106q25 137 82.5 198t174.5 61q92 0 140 -42t48 -138q0 -51 -11 -106q-25 -137 -82.5 -198t-174.5 -61zM240 20q93 0 140.5 48.5t71.5 172.5q13 70 13 111q0 77 -36.5 109t-118.5 32q-93 0 -140.5 -48.5t-71.5 -172.5
q-13 -70 -13 -111q0 -77 36.5 -109t118.5 -32zM212 633l7 34h244l-7 -34h-244z" />
    <glyph glyph-name="Obreve" unicode="&#x14e;" horiz-adv-x="687" 
d="M599 351q17 99 17 158q0 107 -47 146t-149 39q-61 0 -103.5 -13t-81 -48.5t-65 -102t-44.5 -168.5q-17 -99 -17 -158q0 -107 47 -146t149 -39q61 0 103.5 13t81 48.5t65 102t44.5 168.5zM639 348q-35 -203 -112.5 -284.5t-224.5 -81.5q-122 0 -177 51t-55 172
q0 68 16 160q35 203 112.5 284.5t224.5 81.5q121 0 176.5 -51.5t55.5 -171.5q0 -68 -16 -160zM449 804q98 0 114 88h33q-21 -119 -147 -119q-125 0 -125 95q0 6 2 24h33q-1 -7 -1 -17q0 -37 20 -54t71 -17z" />
    <glyph glyph-name="obreve" unicode="&#x14f;" horiz-adv-x="550" 
d="M235 -16q-92 0 -140 42t-48 138q0 51 11 106q25 137 82.5 198t174.5 61q92 0 140 -42t48 -138q0 -51 -11 -106q-25 -137 -82.5 -198t-174.5 -61zM240 20q93 0 140.5 48.5t71.5 172.5q13 70 13 111q0 77 -36.5 109t-118.5 32q-93 0 -140.5 -48.5t-71.5 -172.5
q-13 -70 -13 -111q0 -77 36.5 -109t118.5 -32zM340 625q98 0 114 88h33q-21 -119 -147 -119q-125 0 -125 95q0 6 2 24h33q-1 -7 -1 -17q0 -37 20 -54t71 -17z" />
    <glyph glyph-name="Ohungarumlaut" unicode="&#x150;" horiz-adv-x="687" 
d="M599 351q17 99 17 158q0 107 -47 146t-149 39q-61 0 -103.5 -13t-81 -48.5t-65 -102t-44.5 -168.5q-17 -99 -17 -158q0 -107 47 -146t149 -39q61 0 103.5 13t81 48.5t65 102t44.5 168.5zM639 348q-35 -203 -112.5 -284.5t-224.5 -81.5q-122 0 -177 51t-55 172
q0 68 16 160q35 203 112.5 284.5t224.5 81.5q121 0 176.5 -51.5t55.5 -171.5q0 -68 -16 -160zM321 773l109 119h48l-116 -119h-41zM457 773l109 119h48l-116 -119h-41z" />
    <glyph glyph-name="ohungarumlaut" unicode="&#x151;" horiz-adv-x="550" 
d="M235 -16q-92 0 -140 42t-48 138q0 51 11 106q25 137 82.5 198t174.5 61q92 0 140 -42t48 -138q0 -51 -11 -106q-25 -137 -82.5 -198t-174.5 -61zM240 20q93 0 140.5 48.5t71.5 172.5q13 70 13 111q0 77 -36.5 109t-118.5 32q-93 0 -140.5 -48.5t-71.5 -172.5
q-13 -70 -13 -111q0 -77 36.5 -109t118.5 -32zM223 599l116 126h50l-123 -126h-43zM359 599l116 126h50l-123 -126h-43z" />
    <glyph glyph-name="OE" unicode="&#x152;" horiz-adv-x="999" 
d="M935 385l-15 -37h-362l-61 -311h399l-15 -37h-557q-132 0 -193 57t-61 174q0 59 15 134q37 193 124.5 270t251.5 77h559l-15 -37h-383l-57 -290h370zM328 37h130l125 638h-128q-148 0 -221.5 -70.5t-107.5 -239.5q-16 -74 -16 -134q0 -102 52 -148t166 -46z" />
    <glyph glyph-name="oe" unicode="&#x153;" horiz-adv-x="912" 
d="M315 529q82 0 127.5 -33t56.5 -105q34 77 87.5 107.5t130.5 30.5q167 0 167 -118q0 -22 -6 -46q-15 -64 -60.5 -92.5t-138.5 -28.5h-189q-7 -38 -7 -71q0 -70 39 -104.5t127 -34.5q93 0 138 3l-15 -36q-43 -3 -122 -3q-172 0 -196 121q-56 -127 -219 -127
q-94 0 -141 40.5t-47 135.5q0 38 11 102q25 137 82.5 198t174.5 61zM240 28q94 0 141 46.5t71 166.5q13 70 13 111q0 77 -36.5 109t-118.5 32q-93 0 -140.5 -48.5t-71.5 -172.5q-12 -63 -12 -107q0 -75 36 -106t118 -31zM716 494q-91 0 -142.5 -49.5t-76.5 -166.5h181
q78 0 113.5 20t47.5 72q5 25 5 39q0 85 -128 85z" />
    <glyph glyph-name="Racute" unicode="&#x154;" horiz-adv-x="613" 
d="M538 0h-43l-139 308q-11 -1 -34 -1h-188l-60 -307h-39l139 712h196q114 0 170 -37.5t56 -120.5q0 -22 -5 -54q-15 -90 -62.5 -134.5t-131.5 -54.5zM366 675h-161l-64 -331h182q109 0 159 33t68 117q7 37 7 57q0 69 -48 96.5t-143 27.5zM325 773l138 119h55l-147 -119h-46
z" />
    <glyph glyph-name="racute" unicode="&#x155;" horiz-adv-x="370" 
d="M129 323l-63 -323h-38l64 327q22 112 74.5 150t145.5 38q12 0 41.5 -1t36.5 -1l-15 -36q-34 2 -67 2q-78 0 -120 -31.5t-59 -124.5zM226 599l147 126h54l-156 -126h-45z" />
    <glyph glyph-name="Rcommaaccent" unicode="&#x156;" horiz-adv-x="613" 
d="M538 0h-43l-139 308q-11 -1 -34 -1h-188l-60 -307h-39l139 712h196q114 0 170 -37.5t56 -120.5q0 -22 -5 -54q-15 -90 -62.5 -134.5t-131.5 -54.5zM366 675h-161l-64 -331h182q109 0 159 33t68 117q7 37 7 57q0 69 -48 96.5t-143 27.5zM229 -99q0 39 36 39q28 0 28 -29
q0 -18 -21 -52l-51 -81h-32l52 96q-12 5 -12 27z" />
    <glyph glyph-name="rcommaaccent" unicode="&#x157;" horiz-adv-x="370" 
d="M129 323l-63 -323h-38l64 327q22 112 74.5 150t145.5 38q12 0 41.5 -1t36.5 -1l-15 -36q-34 2 -67 2q-78 0 -120 -31.5t-59 -124.5zM5 -99q0 39 36 39q28 0 28 -29q0 -18 -21 -52l-51 -81h-32l52 96q-12 5 -12 27z" />
    <glyph glyph-name="Rcaron" unicode="&#x158;" horiz-adv-x="613" 
d="M538 0h-43l-139 308q-11 -1 -34 -1h-188l-60 -307h-39l139 712h196q114 0 170 -37.5t56 -120.5q0 -22 -5 -54q-15 -90 -62.5 -134.5t-131.5 -54.5zM366 675h-161l-64 -331h182q109 0 159 33t68 117q7 37 7 57q0 69 -48 96.5t-143 27.5zM315 886l78 -86l113 86h46
l-142 -113h-39l-98 113h42z" />
    <glyph glyph-name="rcaron" unicode="&#x159;" horiz-adv-x="370" 
d="M129 323l-63 -323h-38l64 327q22 112 74.5 150t145.5 38q12 0 41.5 -1t36.5 -1l-15 -36q-34 2 -67 2q-78 0 -120 -31.5t-59 -124.5zM169 722h42l69 -92l106 92h46l-136 -123h-39z" />
    <glyph glyph-name="Sacute" unicode="&#x15a;" horiz-adv-x="528" 
d="M2 2l15 36q93 -4 178 -4q109 0 158.5 29.5t67.5 104.5q7 25 7 52q0 43 -24.5 69.5t-77.5 44.5l-99 32q-67 21 -98 55t-31 85q0 28 9 61q21 81 79 114t170 33q131 0 187 -2l-15 -36q-48 2 -174 2q-100 0 -145 -25t-63 -89q-8 -27 -8 -53q0 -46 27 -70.5t74 -38.5l102 -33
q128 -41 128 -147q0 -30 -7 -57q-21 -93 -82.5 -130t-185.5 -37q-99 0 -192 4zM291 773l138 119h55l-147 -119h-46z" />
    <glyph glyph-name="sacute" unicode="&#x15b;" horiz-adv-x="472" 
d="M355 116q5 22 5 35q0 57 -80 80l-114 32q-98 28 -98 105q0 20 4 35q15 65 63.5 88.5t137.5 23.5q81 0 176 -4l-14 -36q-75 4 -181 4q-67 0 -101 -18t-44 -62q-4 -15 -4 -29q0 -27 17.5 -44t59.5 -29l107 -30q58 -17 83.5 -43.5t25.5 -68.5q0 -20 -7 -48q-9 -35 -26.5 -57
t-61 -37t-113.5 -15q-143 0 -188 2l15 36q59 -2 174 -2q89 0 121 20t43 62zM225 599l147 126h54l-156 -126h-45z" />
    <glyph glyph-name="Scircumflex" unicode="&#x15c;" horiz-adv-x="528" 
d="M2 2l15 36q93 -4 178 -4q109 0 158.5 29.5t67.5 104.5q7 25 7 52q0 43 -24.5 69.5t-77.5 44.5l-99 32q-67 21 -98 55t-31 85q0 28 9 61q21 81 79 114t170 33q131 0 187 -2l-15 -36q-48 2 -174 2q-100 0 -145 -25t-63 -89q-8 -27 -8 -53q0 -46 27 -70.5t74 -38.5l102 -33
q128 -41 128 -147q0 -30 -7 -57q-21 -93 -82.5 -130t-185.5 -37q-99 0 -192 4zM464 773l-78 86l-114 -86h-46l141 113h39l99 -113h-41z" />
    <glyph glyph-name="scircumflex" unicode="&#x15d;" horiz-adv-x="472" 
d="M355 116q5 22 5 35q0 57 -80 80l-114 32q-98 28 -98 105q0 20 4 35q15 65 63.5 88.5t137.5 23.5q81 0 176 -4l-14 -36q-75 4 -181 4q-67 0 -101 -18t-44 -62q-4 -15 -4 -29q0 -27 17.5 -44t59.5 -29l107 -30q58 -17 83.5 -43.5t25.5 -68.5q0 -20 -7 -48q-9 -35 -26.5 -57
t-61 -37t-113.5 -15q-143 0 -188 2l15 36q59 -2 174 -2q89 0 121 20t43 62zM377 599l-69 92l-106 -92h-46l136 123h39l88 -123h-42z" />
    <glyph glyph-name="Scedilla" unicode="&#x15e;" horiz-adv-x="528" 
d="M2 2l15 36q93 -4 178 -4q109 0 158.5 29.5t67.5 104.5q7 25 7 52q0 43 -24.5 69.5t-77.5 44.5l-99 32q-67 21 -98 55t-31 85q0 28 9 61q21 81 79 114t170 33q131 0 187 -2l-15 -36q-48 2 -174 2q-100 0 -145 -25t-63 -89q-8 -27 -8 -53q0 -46 27 -70.5t74 -38.5l102 -33
q128 -41 128 -147q0 -30 -7 -57q-21 -93 -82.5 -130t-185.5 -37q-99 0 -192 4zM279 -122q-5 -34 -36 -54.5t-83 -20.5q-47 0 -81 2l16 35q26 -2 71 -2q68 0 78 47q1 7 1 10q0 17 -12 23t-38 6q-47 0 -64 -1l16 35q15 1 50 1q84 0 84 -62q0 -5 -2 -19z" />
    <glyph glyph-name="scedilla" unicode="&#x15f;" horiz-adv-x="472" 
d="M355 116q5 22 5 35q0 57 -80 80l-114 32q-98 28 -98 105q0 20 4 35q15 65 63.5 88.5t137.5 23.5q81 0 176 -4l-14 -36q-75 4 -181 4q-67 0 -101 -18t-44 -62q-4 -15 -4 -29q0 -27 17.5 -44t59.5 -29l107 -30q58 -17 83.5 -43.5t25.5 -68.5q0 -20 -7 -48q-9 -35 -26.5 -57
t-61 -37t-113.5 -15q-143 0 -188 2l15 36q59 -2 174 -2q89 0 121 20t43 62zM116 -163q38 0 54.5 10t21.5 35q1 3 1 12q0 32 -45 32q-44 0 -68 -1l16 33q9 1 58 1q76 0 76 -61q0 -10 -1 -17q-6 -43 -35 -60t-83 -17q-49 0 -83 2l16 33q48 -2 72 -2z" />
    <glyph glyph-name="Scaron" unicode="&#x160;" horiz-adv-x="528" 
d="M2 2l15 36q93 -4 178 -4q109 0 158.5 29.5t67.5 104.5q7 25 7 52q0 43 -24.5 69.5t-77.5 44.5l-99 32q-67 21 -98 55t-31 85q0 28 9 61q21 81 79 114t170 33q131 0 187 -2l-15 -36q-48 2 -174 2q-100 0 -145 -25t-63 -89q-8 -27 -8 -53q0 -46 27 -70.5t74 -38.5l102 -33
q128 -41 128 -147q0 -30 -7 -57q-21 -93 -82.5 -130t-185.5 -37q-99 0 -192 4zM285 886l78 -86l113 86h46l-142 -113h-39l-98 113h42z" />
    <glyph glyph-name="scaron" unicode="&#x161;" horiz-adv-x="472" 
d="M355 116q5 22 5 35q0 57 -80 80l-114 32q-98 28 -98 105q0 20 4 35q15 65 63.5 88.5t137.5 23.5q81 0 176 -4l-14 -36q-75 4 -181 4q-67 0 -101 -18t-44 -62q-4 -15 -4 -29q0 -27 17.5 -44t59.5 -29l107 -30q58 -17 83.5 -43.5t25.5 -68.5q0 -20 -7 -48q-9 -35 -26.5 -57
t-61 -37t-113.5 -15q-143 0 -188 2l15 36q59 -2 174 -2q89 0 121 20t43 62zM167 722h42l69 -92l106 92h46l-136 -123h-39z" />
    <glyph glyph-name="Tcommaaccent" unicode="&#x162;" horiz-adv-x="601" 
d="M645 675h-244l-131 -675h-39l131 675h-250l15 37h533zM313 -122q-5 -34 -36 -54.5t-83 -20.5q-47 0 -81 2l16 35q26 -2 71 -2q68 0 78 47q1 7 1 10q0 17 -12 23t-38 6q-47 0 -64 -1l16 35q15 1 50 1q84 0 84 -62q0 -5 -2 -19z" />
    <glyph glyph-name="tcommaaccent" unicode="&#x163;" horiz-adv-x="374" 
d="M192 653l-27 -140h209l-15 -35h-201l-58 -301q-6 -33 -6 -56q0 -47 26 -66t85 -19h76l-15 -36h-60q-77 0 -113.5 25.5t-36.5 89.5q0 34 7 66l90 465zM107 -163q38 0 54.5 10t21.5 35q1 3 1 12q0 32 -45 32q-44 0 -68 -1l16 33q9 1 58 1q76 0 76 -61q0 -10 -1 -17
q-6 -43 -35 -60t-83 -17q-49 0 -83 2l16 33q48 -2 72 -2z" />
    <glyph glyph-name="Tcaron" unicode="&#x164;" horiz-adv-x="601" 
d="M645 675h-244l-131 -675h-39l131 675h-250l15 37h533zM320 886l78 -86l113 86h46l-142 -113h-39l-98 113h42z" />
    <glyph glyph-name="tcaron" unicode="&#x165;" horiz-adv-x="374" 
d="M192 653l-27 -140h209l-15 -35h-201l-58 -301q-6 -33 -6 -56q0 -47 26 -66t85 -19h76l-15 -36h-60q-77 0 -113.5 25.5t-36.5 89.5q0 34 7 66l90 465zM281 743h38l-49 -167h-29z" />
    <glyph glyph-name="Tbar" unicode="&#x166;" horiz-adv-x="601" 
d="M645 675h-244l-60 -308h188l-7 -35h-188l-64 -332h-39l64 332h-188l7 35h188l60 308h-250l15 37h533z" />
    <glyph glyph-name="tbar" unicode="&#x167;" horiz-adv-x="381" 
d="M199 653l-27 -140h209l-15 -35h-201l-35 -182h189l-7 -35h-189l-16 -84q-6 -33 -6 -56q0 -47 26 -66t85 -19h76l-15 -36h-60q-77 0 -113.5 25.5t-36.5 89.5q0 34 7 66l15 80h-64l7 35h64l68 350z" />
    <glyph glyph-name="Utilde" unicode="&#x168;" horiz-adv-x="656" 
d="M626 712h39l-94 -481q-27 -139 -92 -194t-183 -55q-113 0 -169 44t-56 141q0 39 9 89l89 456h39l-90 -461q-9 -47 -9 -82q0 -83 46.5 -117t138.5 -34q105 0 160 46.5t80 175.5zM446 796l-28 19q-31 20 -46 20q-20 0 -30 -13t-19 -49h-34q19 94 87 94q28 0 61 -23l29 -19
q31 -20 46 -20q20 0 30 13t19 49h34q-19 -94 -87 -94q-29 0 -62 23z" />
    <glyph glyph-name="utilde" unicode="&#x169;" horiz-adv-x="557" 
d="M491 513h38l-64 -329q-22 -110 -72 -155t-152 -45q-182 0 -182 145q0 33 7 65l62 319h38l-63 -324q-6 -31 -6 -57q0 -62 36.5 -87t109.5 -25q84 0 125 36.5t59 127.5zM352 622l-28 19q-28 20 -46 20t-29 -14t-20 -48h-31q11 55 31.5 74.5t49.5 19.5q28 0 64 -23l29 -19
q31 -20 46 -20q18 0 29 14t20 48h31q-19 -94 -80 -94q-33 0 -66 23z" />
    <glyph glyph-name="Umacron" unicode="&#x16a;" horiz-adv-x="656" 
d="M626 712h39l-94 -481q-27 -139 -92 -194t-183 -55q-113 0 -169 44t-56 141q0 39 9 89l89 456h39l-90 -461q-9 -47 -9 -82q0 -83 46.5 -117t138.5 -34q105 0 160 46.5t80 175.5zM301 796l7 34h244l-7 -34h-244z" />
    <glyph glyph-name="umacron" unicode="&#x16b;" horiz-adv-x="557" 
d="M491 513h38l-64 -329q-22 -110 -72 -155t-152 -45q-182 0 -182 145q0 33 7 65l62 319h38l-63 -324q-6 -31 -6 -57q0 -62 36.5 -87t109.5 -25q84 0 125 36.5t59 127.5zM219 633l7 34h244l-7 -34h-244z" />
    <glyph glyph-name="Ubreve" unicode="&#x16c;" horiz-adv-x="656" 
d="M626 712h39l-94 -481q-27 -139 -92 -194t-183 -55q-113 0 -169 44t-56 141q0 39 9 89l89 456h39l-90 -461q-9 -47 -9 -82q0 -83 46.5 -117t138.5 -34q105 0 160 46.5t80 175.5zM433 804q98 0 114 88h33q-21 -119 -147 -119q-125 0 -125 95q0 6 2 24h33q-1 -7 -1 -17
q0 -37 20 -54t71 -17z" />
    <glyph glyph-name="ubreve" unicode="&#x16d;" horiz-adv-x="557" 
d="M491 513h38l-64 -329q-22 -110 -72 -155t-152 -45q-182 0 -182 145q0 33 7 65l62 319h38l-63 -324q-6 -31 -6 -57q0 -62 36.5 -87t109.5 -25q84 0 125 36.5t59 127.5zM346 625q98 0 114 88h33q-21 -119 -147 -119q-125 0 -125 95q0 6 2 24h33q-1 -7 -1 -17q0 -37 20 -54
t71 -17z" />
    <glyph glyph-name="Uring" unicode="&#x16e;" horiz-adv-x="656" 
d="M626 712h39l-94 -481q-27 -139 -92 -194t-183 -55q-113 0 -169 44t-56 141q0 39 9 89l89 456h39l-90 -461q-9 -47 -9 -82q0 -83 46.5 -117t138.5 -34q105 0 160 46.5t80 175.5zM444 921q-37 0 -57.5 -17.5t-27.5 -58.5q-2 -14 -2 -19q0 -57 72 -57q37 0 57.5 17.5
t27.5 58.5q2 14 2 19q0 57 -72 57zM447 953q48 0 76.5 -23t28.5 -64q0 -7 -2 -21q-9 -51 -40 -79.5t-84 -28.5q-48 0 -76.5 23t-28.5 64q0 7 2 21q9 51 40 79.5t84 28.5z" />
    <glyph glyph-name="uring" unicode="&#x16f;" horiz-adv-x="557" 
d="M491 513h38l-64 -329q-22 -110 -72 -155t-152 -45q-182 0 -182 145q0 33 7 65l62 319h38l-63 -324q-6 -31 -6 -57q0 -62 36.5 -87t109.5 -25q84 0 125 36.5t59 127.5zM359 756q-37 0 -57.5 -17.5t-27.5 -58.5q-2 -14 -2 -19q0 -57 72 -57q37 0 57.5 17.5t27.5 58.5
q2 14 2 19q0 57 -72 57zM362 788q48 0 76.5 -23t28.5 -64q0 -7 -2 -21q-9 -51 -40 -79.5t-84 -28.5q-48 0 -76.5 23t-28.5 64q0 7 2 21q9 51 40 79.5t84 28.5z" />
    <glyph glyph-name="Uhungarumlaut" unicode="&#x170;" horiz-adv-x="656" 
d="M626 712h39l-94 -481q-27 -139 -92 -194t-183 -55q-113 0 -169 44t-56 141q0 39 9 89l89 456h39l-90 -461q-9 -47 -9 -82q0 -83 46.5 -117t138.5 -34q105 0 160 46.5t80 175.5zM302 773l109 119h48l-116 -119h-41zM438 773l109 119h48l-116 -119h-41z" />
    <glyph glyph-name="uhungarumlaut" unicode="&#x171;" horiz-adv-x="557" 
d="M491 513h38l-64 -329q-22 -110 -72 -155t-152 -45q-182 0 -182 145q0 33 7 65l62 319h38l-63 -324q-6 -31 -6 -57q0 -62 36.5 -87t109.5 -25q84 0 125 36.5t59 127.5zM222 599l116 126h50l-123 -126h-43zM358 599l116 126h50l-123 -126h-43z" />
    <glyph glyph-name="Uogonek" unicode="&#x172;" horiz-adv-x="656" 
d="M388 -144l-15 -34h-31q-83 0 -83 53q0 57 78 109q-26 -2 -41 -2q-113 0 -169 44t-56 141q0 39 9 89l89 456h39l-90 -461q-9 -47 -9 -82q0 -83 46.5 -117t138.5 -34q105 0 160 46.5t80 175.5l92 472h39l-94 -481q-20 -100 -57.5 -155t-99.5 -77q-115 -64 -115 -116
q0 -13 9.5 -19t19 -7t26.5 -1h34z" />
    <glyph glyph-name="uogonek" unicode="&#x173;" horiz-adv-x="557" 
d="M313 -144l-15 -34h-29q-83 0 -83 53q0 55 79 110q-7 -1 -24 -1q-182 0 -182 145q0 33 7 65l62 319h38l-63 -324q-6 -31 -6 -57q0 -62 36.5 -87t109.5 -25q84 0 125 36.5t59 127.5l64 329h38l-64 -329q-16 -82 -46.5 -126.5t-84.5 -61.5q-110 -63 -110 -113q0 -13 9.5 -19
t19 -7t26.5 -1h34z" />
    <glyph glyph-name="Wcircumflex" unicode="&#x174;" horiz-adv-x="841" 
d="M157 0l-33 712h38l27 -660l302 660h38l41 -660l285 660h40l-313 -712h-43l-41 651l-298 -651h-43zM613 773l-78 86l-114 -86h-46l141 113h39l99 -113h-41z" />
    <glyph glyph-name="wcircumflex" unicode="&#x175;" horiz-adv-x="710" 
d="M385 513h41l45 -464l225 464h39l-252 -513h-42l-45 460l-225 -460h-42l-54 513h37l46 -464zM501 599l-69 92l-106 -92h-46l136 123h39l88 -123h-42z" />
    <glyph glyph-name="Ycircumflex" unicode="&#x176;" horiz-adv-x="591" 
d="M107 712h41l164 -365l304 365h46l-335 -400l-60 -312h-39l61 312zM484 773l-78 86l-114 -86h-46l141 113h39l99 -113h-41z" />
    <glyph glyph-name="ycircumflex" unicode="&#x177;" horiz-adv-x="562" 
d="M202 -141q94 0 139 42.5t63 143.5l7 37q-49 -64 -168 -64q-178 0 -178 145q0 25 7 65l55 285h38l-56 -290q-6 -33 -6 -59q0 -61 35.5 -85.5t108.5 -24.5q84 0 128.5 37t62.5 127l57 295h38l-90 -466q-24 -118 -75 -171t-167 -53q-10 0 -72 1t-100 1l15 36q27 0 88 -1
t70 -1zM433 599l-69 92l-106 -92h-46l136 123h39l88 -123h-42z" />
    <glyph glyph-name="Ydieresis" unicode="&#x178;" horiz-adv-x="591" 
d="M107 712h41l164 -365l304 365h46l-335 -400l-60 -312h-39l61 312zM335 850q29 0 29 -31q0 -41 -36 -41q-30 0 -30 31q0 41 37 41zM472 850q29 0 29 -31q0 -41 -36 -41q-30 0 -30 31q0 41 37 41z" />
    <glyph glyph-name="Zacute" unicode="&#x179;" horiz-adv-x="569" 
d="M144 675l15 37h439l-7 -36l-540 -639h430l-15 -37h-471l7 35l541 640h-399zM320 773l138 119h55l-147 -119h-46z" />
    <glyph glyph-name="zacute" unicode="&#x17a;" horiz-adv-x="472" 
d="M-3 0l5 29l412 449h-318l15 35h359l-5 -29l-412 -449h336l-15 -35h-377zM225 599l147 126h54l-156 -126h-45z" />
    <glyph glyph-name="Zdotaccent" unicode="&#x17b;" horiz-adv-x="569" 
d="M144 675l15 37h439l-7 -36l-540 -639h430l-15 -37h-471l7 35l541 640h-399zM390 849q28 0 28 -30q0 -40 -35 -40q-29 0 -29 30q0 40 36 40z" />
    <glyph glyph-name="zdotaccent" unicode="&#x17c;" horiz-adv-x="472" 
d="M-3 0l5 29l412 449h-318l15 35h359l-5 -29l-412 -449h336l-15 -35h-377zM306 693q28 0 28 -30q0 -40 -35 -40q-29 0 -29 30q0 40 36 40z" />
    <glyph glyph-name="Zcaron" unicode="&#x17d;" horiz-adv-x="569" 
d="M144 675l15 37h439l-7 -36l-540 -639h430l-15 -37h-471l7 35l541 640h-399zM315 886l78 -86l113 86h46l-142 -113h-39l-98 113h42z" />
    <glyph glyph-name="zcaron" unicode="&#x17e;" horiz-adv-x="472" 
d="M-3 0l5 29l412 449h-318l15 35h359l-5 -29l-412 -449h336l-15 -35h-377zM188 722h42l69 -92l106 92h46l-136 -123h-39z" />
    <glyph glyph-name="longs" unicode="&#x17f;" horiz-adv-x="194" 
d="M165 507l-99 -507h-38l100 512q26 133 77.5 183t158.5 50q37 0 59 -2l-15 -36q-22 2 -46 2q-91 0 -131.5 -38.5t-65.5 -163.5z" />
    <glyph glyph-name="florin" unicode="&#x192;" horiz-adv-x="317" 
d="M166 513h204l-15 -35h-196l-92 -472q-20 -105 -58 -143.5t-124 -38.5q-41 0 -57 1l15 36q13 -1 45 -1q64 0 93.5 30t47.5 116l99 506q26 133 77.5 183t158.5 50q13 0 42.5 -1t35.5 -1l-15 -36q-30 2 -65 2q-90 0 -130.5 -38t-65.5 -158z" />
    <glyph glyph-name="Scommaaccent" unicode="&#x218;" horiz-adv-x="528" 
d="M2 2l15 36q93 -4 178 -4q109 0 158.5 29.5t67.5 104.5q7 25 7 52q0 43 -24.5 69.5t-77.5 44.5l-99 32q-67 21 -98 55t-31 85q0 28 9 61q21 81 79 114t170 33q131 0 187 -2l-15 -36q-48 2 -174 2q-100 0 -145 -25t-63 -89q-8 -27 -8 -53q0 -46 27 -70.5t74 -38.5l102 -33
q128 -41 128 -147q0 -30 -7 -57q-21 -93 -82.5 -130t-185.5 -37q-99 0 -192 4zM182 -99q0 39 36 39q28 0 28 -29q0 -18 -21 -52l-51 -81h-32l52 96q-12 5 -12 27z" />
    <glyph glyph-name="scommaaccent" unicode="&#x219;" horiz-adv-x="472" 
d="M355 116q5 22 5 35q0 57 -80 80l-114 32q-98 28 -98 105q0 20 4 35q15 65 63.5 88.5t137.5 23.5q81 0 176 -4l-14 -36q-75 4 -181 4q-67 0 -101 -18t-44 -62q-4 -15 -4 -29q0 -27 17.5 -44t59.5 -29l107 -30q58 -17 83.5 -43.5t25.5 -68.5q0 -20 -7 -48q-9 -35 -26.5 -57
t-61 -37t-113.5 -15q-143 0 -188 2l15 36q59 -2 174 -2q89 0 121 20t43 62zM130 -99q0 39 36 39q28 0 28 -29q0 -18 -21 -52l-51 -81h-32l52 96q-12 5 -12 27z" />
    <glyph glyph-name="uni021A" unicode="&#x21a;" horiz-adv-x="601" 
d="M645 675h-244l-131 -675h-39l131 675h-250l15 37h533zM204 -99q0 39 36 39q28 0 28 -29q0 -18 -21 -52l-51 -81h-32l52 96q-12 5 -12 27z" />
    <glyph glyph-name="uni021B" unicode="&#x21b;" horiz-adv-x="374" 
d="M192 653l-27 -140h209l-15 -35h-201l-58 -301q-6 -33 -6 -56q0 -47 26 -66t85 -19h76l-15 -36h-60q-77 0 -113.5 25.5t-36.5 89.5q0 34 7 66l90 465zM111 -99q0 39 36 39q28 0 28 -29q0 -18 -21 -52l-51 -81h-32l52 96q-12 5 -12 27z" />
    <glyph glyph-name="uni0237" unicode="&#x237;" horiz-adv-x="194" 
d="M29 5l98 508h38l-98 -508q-20 -105 -58 -143.5t-124 -38.5q-41 0 -57 1l15 36q13 -1 45 -1q64 0 93.5 30t47.5 116z" />
    <glyph glyph-name="afii57929" unicode="&#x2bc;" horiz-adv-x="238" 
d="M223 650l-73 -118h-34l71 128q-12 7 -12 31q0 41 37 41q31 0 31 -32q0 -18 -20 -50z" />
    <glyph glyph-name="circumflex" unicode="&#x2c6;" horiz-adv-x="500" 
d="M407 599l-69 92l-106 -92h-46l136 123h39l88 -123h-42z" />
    <glyph glyph-name="caron" unicode="&#x2c7;" horiz-adv-x="500" 
d="M209 722h42l69 -92l106 92h46l-136 -123h-39z" />
    <glyph glyph-name="uni02C9" unicode="&#x2c9;" horiz-adv-x="500" 
d="M201 633l7 34h244l-7 -34h-244z" />
    <glyph glyph-name="breve" unicode="&#x2d8;" horiz-adv-x="500" 
d="M327 625q98 0 114 88h33q-21 -119 -147 -119q-125 0 -125 95q0 6 2 24h33q-1 -7 -1 -17q0 -37 20 -54t71 -17z" />
    <glyph glyph-name="dotaccent" unicode="&#x2d9;" horiz-adv-x="500" 
d="M332 693q28 0 28 -30q0 -40 -35 -40q-29 0 -29 30q0 40 36 40z" />
    <glyph glyph-name="ring" unicode="&#x2da;" horiz-adv-x="500" 
d="M340 756q-37 0 -57.5 -17.5t-27.5 -58.5q-2 -14 -2 -19q0 -57 72 -57q37 0 57.5 17.5t27.5 58.5q2 14 2 19q0 57 -72 57zM343 788q48 0 76.5 -23t28.5 -64q0 -7 -2 -21q-9 -51 -40 -79.5t-84 -28.5q-48 0 -76.5 23t-28.5 64q0 7 2 21q9 51 40 79.5t84 28.5z" />
    <glyph glyph-name="ogonek" unicode="&#x2db;" horiz-adv-x="500" 
d="M238 -144l-15 -34h-29q-83 0 -83 53q0 70 123 136l32 -11q-117 -67 -117 -117q0 -13 9.5 -19t19 -7t26.5 -1h34z" />
    <glyph glyph-name="tilde" unicode="&#x2dc;" horiz-adv-x="500" 
d="M330 622l-28 19q-28 20 -46 20t-29 -14t-20 -48h-31q11 55 31.5 74.5t49.5 19.5q28 0 64 -23l29 -19q31 -20 46 -20q18 0 29 14t20 48h31q-19 -94 -80 -94q-33 0 -66 23z" />
    <glyph glyph-name="hungarumlaut" unicode="&#x2dd;" horiz-adv-x="500" 
d="M178 599l116 126h50l-123 -126h-43zM314 599l116 126h50l-123 -126h-43z" />
    <glyph glyph-name="increment" unicode="&#x394;" horiz-adv-x="631" 
d="M556 0h-581l409 712h39zM395 665l-359 -629h474z" />
    <glyph glyph-name="Omega" unicode="&#x3a9;" horiz-adv-x="691" 
d="M635 367q-25 -121 -71.5 -198.5t-135.5 -131.5h170l-15 -37h-221l6 32q103 65 150.5 133.5t74.5 204.5q16 77 16 137q0 107 -49.5 147t-140.5 40q-43 0 -78.5 -7t-73 -28.5t-65 -57t-49.5 -95.5t-33 -142q-7 -61 -7 -93q0 -74 23.5 -130t78.5 -109l-6 -32h-208l15 37h149
q-92 92 -92 234q0 47 7 96q25 193 111 278.5t228 85.5q114 0 173 -53.5t59 -171.5q0 -65 -16 -139z" />
    <glyph glyph-name="mu" unicode="&#x3bc;" horiz-adv-x="558" 
d="M262 -9q-152 0 -183 81l-47 -247h-38l134 688h38l-62 -316q-6 -30 -6 -54q0 -64 41.5 -90t126.5 -26q55 0 132 9l94 477h38l-93 -474q-5 -21 -12.5 -27.5t-27.5 -10.5q-56 -10 -135 -10z" />
    <glyph glyph-name="pi" unicode="&#x3c0;" horiz-adv-x="613" 
d="M532 477l-92 -477h-39l92 477h-289l-92 -477h-39l92 477h-97l15 36h553l-15 -36h-89z" />
    <glyph glyph-name="Wgrave" unicode="&#x1e80;" horiz-adv-x="841" 
d="M157 0l-33 712h38l27 -660l302 660h38l41 -660l285 660h40l-313 -712h-43l-41 651l-298 -651h-43zM472 892l98 -119h-41l-106 119h49z" />
    <glyph glyph-name="wgrave" unicode="&#x1e81;" horiz-adv-x="710" 
d="M385 513h41l45 -464l225 464h39l-252 -513h-42l-45 460l-225 -460h-42l-54 513h37l46 -464zM366 725l101 -126h-39l-109 126h47z" />
    <glyph glyph-name="Wacute" unicode="&#x1e82;" horiz-adv-x="841" 
d="M157 0l-33 712h38l27 -660l302 660h38l41 -660l285 660h40l-313 -712h-43l-41 651l-298 -651h-43zM458 773l138 119h55l-147 -119h-46z" />
    <glyph glyph-name="wacute" unicode="&#x1e83;" horiz-adv-x="710" 
d="M385 513h41l45 -464l225 464h39l-252 -513h-42l-45 460l-225 -460h-42l-54 513h37l46 -464zM360 599l147 126h54l-156 -126h-45z" />
    <glyph glyph-name="Wdieresis" unicode="&#x1e84;" horiz-adv-x="841" 
d="M157 0l-33 712h38l27 -660l302 660h38l41 -660l285 660h40l-313 -712h-43l-41 651l-298 -651h-43zM455 850q29 0 29 -31q0 -41 -36 -41q-30 0 -30 31q0 41 37 41zM592 850q29 0 29 -31q0 -41 -36 -41q-30 0 -30 31q0 41 37 41z" />
    <glyph glyph-name="wdieresis" unicode="&#x1e85;" horiz-adv-x="710" 
d="M385 513h41l45 -464l225 464h39l-252 -513h-42l-45 460l-225 -460h-42l-54 513h37l46 -464zM362 693q28 0 28 -30q0 -40 -35 -40q-29 0 -29 30q0 40 36 40zM499 693q28 0 28 -30q0 -40 -35 -40q-29 0 -29 30q0 40 36 40z" />
    <glyph glyph-name="Ygrave" unicode="&#x1ef2;" horiz-adv-x="591" 
d="M107 712h41l164 -365l304 365h46l-335 -400l-60 -312h-39l61 312zM359 892l98 -119h-41l-106 119h49z" />
    <glyph glyph-name="ygrave" unicode="&#x1ef3;" horiz-adv-x="562" 
d="M202 -141q94 0 139 42.5t63 143.5l7 37q-49 -64 -168 -64q-178 0 -178 145q0 25 7 65l55 285h38l-56 -290q-6 -33 -6 -59q0 -61 35.5 -85.5t108.5 -24.5q84 0 128.5 37t62.5 127l57 295h38l-90 -466q-24 -118 -75 -171t-167 -53q-10 0 -72 1t-100 1l15 36q27 0 88 -1
t70 -1zM294 725l101 -126h-39l-109 126h47z" />
    <glyph glyph-name="endash" unicode="&#x2013;" horiz-adv-x="500" 
d="M0 259l7 36h500l-7 -36h-500z" />
    <glyph glyph-name="emdash" unicode="&#x2014;" horiz-adv-x="1000" 
d="M0 259l7 36h1000l-7 -36h-1000z" />
    <glyph glyph-name="quoteleft" unicode="&#x2018;" horiz-adv-x="155" 
d="M119 582l76 122h31l-76 -135q15 -5 15 -30q0 -39 -36 -39q-30 0 -30 32q0 18 20 50z" />
    <glyph glyph-name="quoteright" unicode="&#x2019;" horiz-adv-x="155" 
d="M171 627l-76 -122h-31l76 135q-15 4 -15 30q0 39 36 39q30 0 30 -32q0 -18 -20 -50z" />
    <glyph glyph-name="quotesinglbase" unicode="&#x201a;" horiz-adv-x="151" 
d="M45 -5l-76 -122h-31l76 135q-15 4 -15 30q0 39 36 39q30 0 30 -32q0 -18 -20 -50z" />
    <glyph glyph-name="quotedblleft" unicode="&#x201c;" horiz-adv-x="295" 
d="M119 582l76 122h31l-76 -135q15 -5 15 -30q0 -39 -36 -39q-30 0 -30 32q0 18 20 50zM260 582l76 122h31l-76 -135q15 -5 15 -30q0 -39 -36 -39q-30 0 -30 32q0 18 20 50z" />
    <glyph glyph-name="quotedblright" unicode="&#x201d;" horiz-adv-x="295" 
d="M171 627l-76 -122h-31l76 135q-15 4 -15 30q0 39 36 39q30 0 30 -32q0 -18 -20 -50zM312 627l-76 -122h-31l76 135q-15 4 -15 30q0 39 36 39q30 0 30 -32q0 -18 -20 -50z" />
    <glyph glyph-name="quotedblbase" unicode="&#x201e;" horiz-adv-x="292" 
d="M46 -4l-76 -122h-31l76 135q-15 5 -15 30q0 39 36 39q30 0 30 -32q0 -18 -20 -50zM186 -4l-76 -122h-31l76 135q-15 5 -15 30q0 39 36 39q30 0 30 -32q0 -18 -20 -50z" />
    <glyph glyph-name="dagger" unicode="&#x2020;" horiz-adv-x="495" 
d="M484 422h-185l-117 -597h-39l116 597h-190l15 36h182l50 254h39l-49 -254h193z" />
    <glyph glyph-name="daggerdbl" unicode="&#x2021;" horiz-adv-x="495" 
d="M193 81h-190l15 36h182l59 305h-190l15 36h182l50 254h39l-50 -254h193l-15 -36h-185l-59 -305h193l-15 -36h-185l-50 -256h-39z" />
    <glyph glyph-name="bullet" unicode="&#x2022;" horiz-adv-x="314" 
d="M248 280q0 -44 -20 -65t-66 -21t-66 21t-20 65t20 65t66 21t66 -21t20 -65z" />
    <glyph glyph-name="ellipsis" unicode="&#x2026;" horiz-adv-x="1000" 
d="M127 72q31 0 31 -33q0 -43 -39 -43q-31 0 -31 33q0 43 39 43zM467 72q31 0 31 -33q0 -43 -39 -43q-31 0 -31 33q0 43 39 43zM796 72q31 0 31 -33q0 -43 -39 -43q-31 0 -31 33q0 43 39 43z" />
    <glyph glyph-name="perthousand" unicode="&#x2030;" horiz-adv-x="1199" 
d="M130 0l554 680h44l-554 -680h-44zM797 219l-10 -51q-18 -95 -58 -136t-120 -41q-137 0 -137 123q0 26 6 59l10 51q18 94 59 135.5t120 41.5q136 0 136 -123q0 -28 -6 -59zM524 223l-10 -52q-6 -31 -6 -56q0 -51 26 -70.5t78 -19.5q59 0 90.5 29t48.5 116l10 51q6 33 6 57
q0 50 -26 69.5t-76 19.5q-62 0 -93 -29t-48 -115zM1166 219l-10 -51q-18 -95 -58 -136t-120 -41q-137 0 -137 123q0 26 6 59l10 51q18 94 59 135.5t120 41.5q136 0 136 -123q0 -28 -6 -59zM893 223l-10 -52q-6 -32 -6 -56q0 -51 26 -70.5t78 -19.5q59 0 90.5 29t48.5 116
l10 51q6 33 6 57q0 50 -26 69.5t-76 19.5q-62 0 -93 -29t-48 -115zM385 507l-10 -51q-18 -95 -58 -136t-120 -41q-137 0 -137 123q0 26 6 59l10 51q18 94 59 135.5t120 41.5q136 0 136 -123q0 -28 -6 -59zM112 511l-10 -52q-6 -31 -6 -56q0 -51 26 -70.5t78 -19.5
q59 0 90.5 29t48.5 116l10 51q6 33 6 57q0 50 -26 69.5t-76 19.5q-62 0 -93 -29t-48 -115z" />
    <glyph glyph-name="guilsinglleft" unicode="&#x2039;" horiz-adv-x="303" 
d="M290 446l-10 -50l-211 -140l156 -141l-8 -43l-190 170l7 34z" />
    <glyph glyph-name="guilsinglright" unicode="&#x203a;" horiz-adv-x="303" 
d="M14 72l10 50l211 140l-156 141l8 43l190 -170l-7 -34z" />
    <glyph glyph-name="fraction" unicode="&#x2044;" horiz-adv-x="105" 
d="M-230 0l554 680h44l-554 -680h-44z" />
    <glyph glyph-name="uni2070" unicode="&#x2070;" 
d="M388 507l-10 -51q-18 -95 -58 -136t-120 -41q-137 0 -137 123q0 26 6 59l10 51q18 94 59 135.5t120 41.5q136 0 136 -123q0 -28 -6 -59zM115 511l-10 -52q-6 -31 -6 -56q0 -51 26 -70.5t78 -19.5q59 0 90.5 29t48.5 116l10 51q6 33 6 57q0 50 -26 69.5t-76 19.5
q-62 0 -93 -29t-48 -115z" />
    <glyph glyph-name="uni2074" unicode="&#x2074;" 
d="M372 417l-14 -33h-58l-18 -96h-33l18 96h-213l5 28l198 268h38l-192 -263h171l24 123l34 6l-25 -129h65z" />
    <glyph glyph-name="uni2075" unicode="&#x2075;" 
d="M67 288l14 34q31 -1 100 -1q81 0 106 44q13 24 13 59q0 34 -19 48t-60 14h-111l38 194h227l-14 -34h-186l-25 -127h70q118 0 118 -92q0 -51 -23 -83q-40 -57 -139 -57q-65 0 -109 1z" />
    <glyph glyph-name="uni2076" unicode="&#x2076;" 
d="M271 681q27 0 54.5 -0.5t47.5 -0.5l-14 -33q-4 0 -35 0.5t-57 0.5q-54 0 -83 -22.5t-41 -79.5l-8 -39q30 32 103 32q119 0 119 -105q0 -44 -14 -76q-31 -79 -140 -79q-123 0 -123 107q0 18 5 43l23 116q15 74 53.5 105t109.5 31zM207 312q81 0 103 55q11 27 11 62
q0 44 -24 60.5t-69 16.5q-49 0 -74.5 -18.5t-34.5 -67.5q-3 -18 -3 -33q0 -39 21.5 -57t69.5 -18z" />
    <glyph glyph-name="uni2077" unicode="&#x2077;" 
d="M122 647l14 33h246l-4 -30l-200 -362h-40l200 359h-216z" />
    <glyph glyph-name="uni2078" unicode="&#x2078;" 
d="M221 480q-62 0 -89 -28q-24 -28 -24 -74q0 -66 97 -66q68 0 93 34q20 27 20 65q0 69 -97 69zM255 656q-50 0 -73 -16q-31 -22 -31 -72q0 -30 22 -43t71 -14q60 0 83 27q20 23 20 61q0 57 -92 57zM259 689q60 0 91.5 -23t31.5 -65q0 -56 -34 -87q-18 -18 -45 -24
q50 -18 50 -78q0 -51 -28 -88q-35 -45 -127 -45q-127 0 -127 93q0 66 40 102q19 18 48 24q-43 17 -43 71q0 62 40 93q37 27 103 27z" />
    <glyph glyph-name="uni2079" unicode="&#x2079;" 
d="M186 287q-27 0 -54.5 0.5t-47.5 0.5l14 33q4 0 35 -0.5t57 -0.5q54 0 83 22.5t41 79.5l8 39q-30 -32 -103 -32q-119 0 -119 105q0 44 14 76q31 79 140 79q123 0 123 -107q0 -18 -5 -43l-23 -116q-15 -74 -53.5 -105t-109.5 -31zM250 656q-81 0 -103 -55q-11 -27 -11 -62
q0 -44 23.5 -60.5t69.5 -16.5q49 0 74.5 18.5t34.5 67.5q3 18 3 33q0 39 -21.5 57t-69.5 18z" />
    <glyph glyph-name="uni2080" unicode="&#x2080;" 
d="M332 219l-10 -51q-18 -95 -58 -136t-120 -41q-137 0 -137 123q0 26 6 59l10 51q18 94 59 135.5t120 41.5q136 0 136 -123q0 -28 -6 -59zM59 223l-10 -52q-6 -31 -6 -56q0 -51 26 -70.5t78 -19.5q59 0 90.5 29t48.5 116l10 51q6 33 6 57q0 50 -26 69.5t-76 19.5
q-62 0 -93 -29t-48 -115z" />
    <glyph glyph-name="uni2081" unicode="&#x2081;" 
d="M85 359l14 33h132l-70 -359h106l-14 -33h-230l14 33h89l64 326h-105z" />
    <glyph glyph-name="uni2082" unicode="&#x2082;" 
d="M259 33l-14 -33h-235l12 62q12 57 37 85.5t86 52.5l55 22q52 20 64 43q8 19 8 43q0 27 -17 39.5t-58 12.5q-36 0 -114 -2l13 33q90 2 101 2q111 0 111 -82q0 -39 -14 -63q-20 -33 -82 -58l-55 -22q-51 -21 -71 -41.5t-28 -64.5l-5 -29h206z" />
    <glyph glyph-name="uni2083" unicode="&#x2083;" 
d="M7 2l13 32q11 0 52.5 -0.5t53.5 -0.5q59 0 87.5 18t35.5 65q2 16 2 22q0 30 -17 42.5t-56 12.5h-100l13 32h87q83 0 100 56q4 12 4 29q0 50 -76 50q-7 0 -52.5 -0.5t-64.5 -0.5l14 33q22 0 60.5 0.5t43.5 0.5q58 0 84.5 -19.5t26.5 -59.5q0 -23 -6 -41q-17 -49 -74 -63
q50 -17 50 -73q0 -8 -2 -24q-16 -114 -161 -114q-86 0 -118 3z" />
    <glyph glyph-name="uni2084" unicode="&#x2084;" 
d="M316 129l-14 -33h-58l-18 -96h-33l18 96h-213l5 28l198 268h38l-192 -263h171l24 123l34 6l-25 -129h65z" />
    <glyph glyph-name="uni2085" unicode="&#x2085;" 
d="M11 0l14 34q31 -1 100 -1q81 0 106 44q13 24 13 59q0 34 -19 48t-60 14h-111l38 194h227l-14 -34h-186l-25 -127h70q118 0 118 -92q0 -51 -23 -83q-40 -57 -139 -57q-65 0 -109 1z" />
    <glyph glyph-name="uni2086" unicode="&#x2086;" 
d="M215 393q27 0 54.5 -0.5t47.5 -0.5l-14 -33q-4 0 -35 0.5t-57 0.5q-54 0 -83 -22.5t-41 -79.5l-8 -39q30 32 103 32q119 0 119 -105q0 -44 -14 -76q-31 -79 -140 -79q-123 0 -123 107q0 18 5 43l23 116q15 74 53.5 105t109.5 31zM151 24q81 0 103 55q11 27 11 62
q0 44 -24 60.5t-69 16.5q-49 0 -74.5 -18.5t-34.5 -67.5q-3 -18 -3 -33q0 -39 21.5 -57t69.5 -18z" />
    <glyph glyph-name="uni2087" unicode="&#x2087;" 
d="M66 359l14 33h246l-4 -30l-200 -362h-40l200 359h-216z" />
    <glyph glyph-name="uni2088" unicode="&#x2088;" 
d="M165 192q-62 0 -89 -28q-24 -28 -24 -74q0 -66 97 -66q68 0 93 34q20 27 20 65q0 69 -97 69zM199 368q-50 0 -73 -16q-31 -22 -31 -72q0 -30 22 -43t71 -14q60 0 83 27q20 23 20 61q0 57 -92 57zM203 401q60 0 91.5 -23t31.5 -65q0 -56 -34 -87q-18 -18 -45 -24
q50 -18 50 -78q0 -51 -28 -88q-35 -45 -127 -45q-127 0 -127 93q0 66 40 102q19 18 48 24q-43 17 -43 71q0 62 40 93q37 27 103 27z" />
    <glyph glyph-name="uni2089" unicode="&#x2089;" 
d="M130 -1q-27 0 -54.5 0.5t-47.5 0.5l14 33q4 0 35 -0.5t57 -0.5q54 0 83 22.5t41 79.5l8 39q-30 -32 -103 -32q-119 0 -119 105q0 44 14 76q31 79 140 79q123 0 123 -107q0 -18 -5 -43l-23 -116q-15 -74 -53.5 -105t-109.5 -31zM194 368q-81 0 -103 -55q-11 -27 -11 -62
q0 -44 23.5 -60.5t69.5 -16.5q49 0 74.5 18.5t34.5 67.5q3 18 3 33q0 39 -21.5 57t-69.5 18z" />
    <glyph glyph-name="Euro" unicode="&#x20ac;" horiz-adv-x="595" 
d="M74 407l14 35h81q38 136 111.5 187t208.5 51q83 0 104 -2l-15 -37q-58 2 -96 2q-115 0 -176 -40.5t-97 -160.5h297l-14 -35h-292q-4 -15 -13 -58q-4 -18 -12 -74h298l-14 -35h-288q-1 -11 -1 -31q0 -97 49 -135.5t160 -38.5q77 0 102 2l-15 -37q-21 -2 -89 -2
q-133 0 -189 52t-56 157q0 22 1 33h-92l14 35h81l12 75q2 10 4 19.5t4.5 20.5t3.5 17h-86z" />
    <glyph glyph-name="uni20B9" unicode="&#x20b9;" horiz-adv-x="595" 
d="M303 643h-127l7 37h415l-14 -37h-155q52 -31 52 -113q0 -7 -2 -31h84l-15 -37h-75q-20 -94 -79 -134.5t-170 -40.5h-63l249 -287h-49l-253 293l6 31h126q82 0 129.5 31.5t64.5 106.5h-293l7 37h292q2 22 2 32q0 60 -33 86t-106 26z" />
    <glyph glyph-name="uni20BA" unicode="&#x20ba;" horiz-adv-x="595" 
d="M270 680l-42 -213l229 101l-7 -38l-229 -101l-30 -150l229 101l-7 -38l-229 -101l-40 -204h81q115 0 165 39t70 146l4 21l40 10l-6 -31q-23 -119 -80 -170.5t-193 -51.5h-123l44 227l-86 -38l7 38l87 38l29 150l-86 -38l7 38l86 38l45 227h35z" />
    <glyph glyph-name="afii61289" unicode="&#x2113;" horiz-adv-x="356" 
d="M305 45l16 -27q-49 -36 -107 -36q-55 0 -81.5 35.5t-26.5 112.5v93q-27 -30 -58 -67l-22 20l80 92v289q0 167 108 167q96 0 96 -129q0 -83 -34.5 -148t-133.5 -183v-130q0 -66 17.5 -92t54.5 -26q50 0 91 29zM142 557v-245q73 91 102.5 150t29.5 133q0 52 -15.5 73
t-48.5 21q-34 0 -51 -29.5t-17 -102.5z" />
    <glyph glyph-name="trademark" unicode="&#x2122;" horiz-adv-x="818" 
d="M755 340h-32l62 321l-168 -207h-26l-89 208l-63 -322h-32l72 372h35l97 -224l179 224h37zM101 712h303l-14 -34h-130l-66 -338h-35l66 338h-138z" />
    <glyph glyph-name="uni2126" unicode="&#x2126;" horiz-adv-x="691" 
d="M635 367q-25 -121 -71.5 -198.5t-135.5 -131.5h170l-15 -37h-221l6 32q103 65 150.5 133.5t74.5 204.5q16 77 16 137q0 107 -49.5 147t-140.5 40q-43 0 -78.5 -7t-73 -28.5t-65 -57t-49.5 -95.5t-33 -142q-7 -61 -7 -93q0 -74 23.5 -130t78.5 -109l-6 -32h-208l15 37h149
q-92 92 -92 234q0 47 7 96q25 193 111 278.5t228 85.5q114 0 173 -53.5t59 -171.5q0 -65 -16 -139z" />
    <glyph glyph-name="estimated" unicode="&#x212e;" horiz-adv-x="785" 
d="M410 656q-143 0 -212 -69v-211h431v211q-82 69 -219 69zM690 164l22 -15q-56 -87 -126 -123t-172 -36q-161 0 -255 99.5t-94 250.5t92.5 248t252.5 97q162 0 256 -94.5t96 -250.5h-564v-245q78 -78 217 -78q95 0 160.5 34t114.5 113z" />
    <glyph glyph-name="uni2150" unicode="&#x2150;" horiz-adv-x="822" 
d="M126 0l554 680h44l-554 -680h-44zM519 359l14 33h246l-4 -30l-200 -362h-40l200 359h-216zM141 647l14 33h132l-70 -359h106l-14 -33h-230l14 33h89l64 326h-105z" />
    <glyph glyph-name="uni2151" unicode="&#x2151;" horiz-adv-x="822" 
d="M127 0l554 680h44l-554 -680h-44zM583 -1q-27 0 -54.5 0.5t-47.5 0.5l14 33q4 0 35 -0.5t57 -0.5q54 0 83 22.5t41 79.5l8 39q-30 -32 -103 -32q-119 0 -119 105q0 44 14 76q31 79 140 79q123 0 123 -107q0 -18 -5 -43l-23 -116q-15 -74 -53.5 -105t-109.5 -31zM647 368
q-81 0 -103 -55q-11 -27 -11 -62q0 -44 23.5 -60.5t69.5 -16.5q49 0 74.5 18.5t34.5 67.5q3 18 3 33q0 39 -21.5 57t-69.5 18zM141 647l14 33h132l-70 -359h106l-14 -33h-230l14 33h89l64 326h-105z" />
    <glyph glyph-name="onethird" unicode="&#x2153;" horiz-adv-x="822" 
d="M130 0l554 680h44l-554 -680h-44zM460 2l13 32q11 0 52.5 -0.5t53.5 -0.5q59 0 87.5 18t35.5 65q2 16 2 22q0 30 -17 42.5t-56 12.5h-100l13 32h87q83 0 100 56q4 12 4 29q0 50 -76 50q-7 0 -52.5 -0.5t-64.5 -0.5l14 33q22 0 60.5 0.5t43.5 0.5q58 0 84.5 -19.5
t26.5 -59.5q0 -23 -6 -41q-17 -49 -74 -63q50 -17 50 -73q0 -8 -2 -24q-17 -114 -161 -114q-86 0 -118 3zM141 647l14 33h132l-70 -359h106l-14 -33h-230l14 33h89l64 326h-105z" />
    <glyph glyph-name="twothirds" unicode="&#x2154;" horiz-adv-x="822" 
d="M130 0l554 680h44l-554 -680h-44zM460 2l13 32q11 0 52.5 -0.5t53.5 -0.5q59 0 87.5 18t35.5 65q2 16 2 22q0 30 -17 42.5t-56 12.5h-100l13 32h87q83 0 100 56q4 12 4 29q0 50 -76 50q-7 0 -52.5 -0.5t-64.5 -0.5l14 33q22 0 60.5 0.5t43.5 0.5q58 0 84.5 -19.5
t26.5 -59.5q0 -23 -6 -41q-17 -49 -74 -63q50 -17 50 -73q0 -8 -2 -24q-17 -114 -161 -114q-86 0 -118 3zM315 321l-14 -33h-235l12 62q12 57 37 85.5t86 52.5l55 22q52 20 64 43q8 19 8 43q0 27 -17 39.5t-58 12.5q-36 0 -114 -2l13 33q90 2 101 2q111 0 111 -82
q0 -39 -14 -63q-20 -33 -82 -58l-55 -22q-51 -21 -71 -41.5t-28 -64.5l-5 -29h206z" />
    <glyph glyph-name="uni2155" unicode="&#x2155;" horiz-adv-x="822" 
d="M120 0l554 680h44l-554 -680h-44zM464 0l14 34q31 -1 100 -1q81 0 106 44q13 24 13 59q0 34 -19 48t-60 14h-111l38 194h227l-14 -34h-186l-25 -127h70q118 0 118 -92q0 -51 -23 -83q-40 -57 -139 -57q-65 0 -109 1zM141 647l14 33h132l-70 -359h106l-14 -33h-230l14 33
h89l64 326h-105z" />
    <glyph glyph-name="uni2156" unicode="&#x2156;" horiz-adv-x="822" 
d="M120 0l554 680h44l-554 -680h-44zM464 0l14 34q31 -1 100 -1q81 0 106 44q13 24 13 59q0 34 -19 48t-60 14h-111l38 194h227l-14 -34h-186l-25 -127h70q118 0 118 -92q0 -51 -23 -83q-40 -57 -139 -57q-65 0 -109 1zM315 321l-14 -33h-235l12 62q12 57 37 85.5t86 52.5
l55 22q52 20 64 43q8 19 8 43q0 27 -17 39.5t-58 12.5q-36 0 -114 -2l13 33q90 2 101 2q111 0 111 -82q0 -39 -14 -63q-20 -33 -82 -58l-55 -22q-51 -21 -71 -41.5t-28 -64.5l-5 -29h206z" />
    <glyph glyph-name="uni2157" unicode="&#x2157;" horiz-adv-x="822" 
d="M113 0l554 680h44l-554 -680h-44zM464 0l14 34q31 -1 100 -1q81 0 106 44q13 24 13 59q0 34 -19 48t-60 14h-111l38 194h227l-14 -34h-186l-25 -127h70q118 0 118 -92q0 -51 -23 -83q-40 -57 -139 -57q-65 0 -109 1zM63 290l13 32q11 0 52.5 -0.5t53.5 -0.5q59 0 87.5 18
t35.5 65q2 16 2 22q0 30 -17 42.5t-56 12.5h-100l13 32h87q83 0 100 56q4 12 4 29q0 50 -76 50q-7 0 -52.5 -0.5t-64.5 -0.5l14 33q22 0 60.5 0.5t43.5 0.5q58 0 84.5 -19.5t26.5 -59.5q0 -23 -6 -41q-17 -49 -74 -63q50 -17 50 -73q0 -8 -2 -24q-16 -114 -161 -114
q-86 0 -118 3z" />
    <glyph glyph-name="uni2158" unicode="&#x2158;" horiz-adv-x="822" 
d="M113 0l554 680h44l-554 -680h-44zM464 0l14 34q31 -1 100 -1q81 0 106 44q13 24 13 59q0 34 -19 48t-60 14h-111l38 194h227l-14 -34h-186l-25 -127h70q118 0 118 -92q0 -51 -23 -83q-40 -57 -139 -57q-65 0 -109 1zM373 417l-14 -33h-58l-18 -96h-33l18 96h-213l5 28
l198 268h38l-192 -263h171l24 123l34 6l-25 -129h65z" />
    <glyph glyph-name="uni2159" unicode="&#x2159;" horiz-adv-x="822" 
d="M134 0l554 680h44l-554 -680h-44zM668 393q27 0 54.5 -0.5t47.5 -0.5l-14 -33q-4 0 -35 0.5t-57 0.5q-54 0 -83 -22.5t-41 -79.5l-8 -39q30 32 103 32q119 0 119 -105q0 -44 -14 -76q-31 -79 -140 -79q-123 0 -123 107q0 18 5 43l23 116q15 74 53.5 105t109.5 31zM604 24
q81 0 103 55q11 27 11 62q0 44 -24 60.5t-69 16.5q-49 0 -74.5 -18.5t-34.5 -67.5q-3 -18 -3 -33q0 -39 21.5 -57t69.5 -18zM141 647l14 33h132l-70 -359h106l-14 -33h-230l14 33h89l64 326h-105z" />
    <glyph glyph-name="uni215A" unicode="&#x215a;" horiz-adv-x="822" 
d="M128 0l554 680h44l-554 -680h-44zM668 393q27 0 54.5 -0.5t47.5 -0.5l-14 -33q-4 0 -35 0.5t-57 0.5q-54 0 -83 -22.5t-41 -79.5l-8 -39q30 32 103 32q119 0 119 -105q0 -44 -14 -76q-31 -79 -140 -79q-123 0 -123 107q0 18 5 43l23 116q15 74 53.5 105t109.5 31zM604 24
q81 0 103 55q11 27 11 62q0 44 -24 60.5t-69 16.5q-49 0 -74.5 -18.5t-34.5 -67.5q-3 -18 -3 -33q0 -39 21.5 -57t69.5 -18zM67 288l14 34q31 -1 100 -1q81 0 106 44q13 24 13 59q0 34 -19 48t-60 14h-111l38 194h227l-14 -34h-186l-25 -127h70q118 0 118 -92q0 -51 -23 -83
q-40 -57 -139 -57q-65 0 -109 1z" />
    <glyph glyph-name="oneeighth" unicode="&#x215b;" horiz-adv-x="822" 
d="M128 0l554 680h44l-554 -680h-44zM618 192q-62 0 -89 -28q-24 -28 -24 -74q0 -66 97 -66q68 0 93 34q20 27 20 65q0 69 -97 69zM652 368q-50 0 -73 -16q-31 -22 -31 -72q0 -30 22 -43t71 -14q60 0 83 27q20 23 20 61q0 57 -92 57zM656 401q60 0 91.5 -23t31.5 -65
q0 -56 -34 -87q-18 -18 -45 -24q50 -18 50 -78q0 -51 -28 -88q-34 -45 -127 -45q-127 0 -127 93q0 66 40 102q20 18 48 24q-43 17 -43 71q0 62 40 93q37 27 103 27zM141 647l14 33h132l-70 -359h106l-14 -33h-230l14 33h89l64 326h-105z" />
    <glyph glyph-name="threeeighths" unicode="&#x215c;" horiz-adv-x="822" 
d="M120 0l554 680h44l-554 -680h-44zM618 192q-62 0 -89 -28q-24 -28 -24 -74q0 -66 97 -66q68 0 93 34q20 27 20 65q0 69 -97 69zM652 368q-50 0 -73 -16q-31 -22 -31 -72q0 -30 22 -43t71 -14q60 0 83 27q20 23 20 61q0 57 -92 57zM656 401q60 0 91.5 -23t31.5 -65
q0 -56 -34 -87q-18 -18 -45 -24q50 -18 50 -78q0 -51 -28 -88q-34 -45 -127 -45q-127 0 -127 93q0 66 40 102q20 18 48 24q-43 17 -43 71q0 62 40 93q37 27 103 27zM63 290l13 32q11 0 52.5 -0.5t53.5 -0.5q59 0 87.5 18t35.5 65q2 16 2 22q0 30 -17 42.5t-56 12.5h-100
l13 32h87q83 0 100 56q4 12 4 29q0 50 -76 50q-7 0 -52.5 -0.5t-64.5 -0.5l14 33q22 0 60.5 0.5t43.5 0.5q58 0 84.5 -19.5t26.5 -59.5q0 -23 -6 -41q-17 -49 -74 -63q50 -17 50 -73q0 -8 -2 -24q-16 -114 -161 -114q-86 0 -118 3z" />
    <glyph glyph-name="fiveeighths" unicode="&#x215d;" horiz-adv-x="822" 
d="M120 0l554 680h44l-554 -680h-44zM618 192q-62 0 -89 -28q-24 -28 -24 -74q0 -66 97 -66q68 0 93 34q20 27 20 65q0 69 -97 69zM652 368q-50 0 -73 -16q-31 -22 -31 -72q0 -30 22 -43t71 -14q60 0 83 27q20 23 20 61q0 57 -92 57zM656 401q60 0 91.5 -23t31.5 -65
q0 -56 -34 -87q-18 -18 -45 -24q50 -18 50 -78q0 -51 -28 -88q-34 -45 -127 -45q-127 0 -127 93q0 66 40 102q20 18 48 24q-43 17 -43 71q0 62 40 93q37 27 103 27zM67 288l14 34q31 -1 100 -1q81 0 106 44q13 24 13 59q0 34 -19 48t-60 14h-111l38 194h227l-14 -34h-186
l-25 -127h70q118 0 118 -92q0 -51 -23 -83q-40 -57 -139 -57q-65 0 -109 1z" />
    <glyph glyph-name="seveneighths" unicode="&#x215e;" horiz-adv-x="822" 
d="M618 192q-62 0 -89 -28q-24 -28 -24 -74q0 -66 97 -66q68 0 93 34q20 27 20 65q0 69 -97 69zM652 368q-50 0 -73 -16q-31 -22 -31 -72q0 -30 22 -43t71 -14q60 0 83 27q20 23 20 61q0 57 -92 57zM656 401q60 0 91.5 -23t31.5 -65q0 -56 -34 -87q-18 -18 -45 -24
q50 -18 50 -78q0 -51 -28 -88q-34 -45 -127 -45q-127 0 -127 93q0 66 40 102q20 18 48 24q-43 17 -43 71q0 62 40 93q37 27 103 27zM122 647l14 33h246l-4 -30l-200 -362h-40l200 359h-216zM86 0l554 680h44l-554 -680h-44z" />
    <glyph glyph-name="partialdiff" unicode="&#x2202;" horiz-adv-x="595" 
d="M304 463q77 0 124 -35t52 -98q49 155 49 226q0 73 -44 108.5t-148 35.5q-45 0 -108 -4l18 36q44 4 98 4q118 0 170 -46t52 -132q0 -90 -51 -240q-44 -135 -86.5 -207t-90 -99.5t-120.5 -27.5q-185 0 -185 149q0 37 12 87q28 117 88.5 180t169.5 63zM428 202q20 57 20 105
q0 120 -146 120q-88 0 -138 -48t-80 -162q-11 -49 -11 -78q0 -121 149 -121q33 0 59.5 7t54.5 26t51 57t41 94z" />
    <glyph glyph-name="uni2206" unicode="&#x2206;" horiz-adv-x="631" 
d="M556 0h-581l409 712h39zM395 665l-359 -629h474z" />
    <glyph glyph-name="product" unicode="&#x220f;" horiz-adv-x="734" 
d="M120 712h676l-15 -36h-96l-148 -764h-39l148 764h-396l-148 -764h-39l148 764h-105z" />
    <glyph glyph-name="summation" unicode="&#x2211;" horiz-adv-x="496" 
d="M556 675h-389l157 -346l-310 -379h411l-15 -37h-454l7 35l316 386l-155 343l6 35h441z" />
    <glyph glyph-name="minus" unicode="&#x2212;" horiz-adv-x="595" 
d="M516 324h-411l7 37h411z" />
    <glyph glyph-name="uni2215" unicode="&#x2215;" horiz-adv-x="105" 
d="M-230 0l554 680h44l-554 -680h-44z" />
    <glyph glyph-name="uni2219" unicode="&#x2219;" horiz-adv-x="161" 
d="M105 396q31 0 31 -33q0 -43 -39 -43q-31 0 -31 33q0 43 39 43z" />
    <glyph glyph-name="radical" unicode="&#x221a;" horiz-adv-x="597" 
d="M248 -5l-86 450l-118 -58l8 41l140 71l85 -465l410 845h42l-435 -884h-46z" />
    <glyph glyph-name="infinity" unicode="&#x221e;" horiz-adv-x="681" 
d="M90 350q-4 -21 -4 -38q0 -91 90 -91q40 0 76.5 26t85.5 100q-21 75 -50.5 100.5t-73.5 25.5q-45 0 -80.5 -32t-43.5 -91zM626 345q4 21 4 38q0 91 -90 91q-40 0 -76.5 -26t-85.5 -100q18 -74 49 -100t75 -26q46 0 80.5 32t43.5 91zM353 313q-83 -126 -181 -126
q-56 0 -90 30t-34 93q0 15 5 47q14 73 60.5 111.5t106.5 38.5q109 0 143 -125q83 126 181 126q56 0 90 -30t34 -93q0 -15 -5 -47q-14 -73 -60.5 -111.5t-106.5 -38.5q-110 0 -143 125z" />
    <glyph glyph-name="integral" unicode="&#x222b;" horiz-adv-x="288" 
d="M4 -153q61 0 89 22t38 74q7 40 7 94l7 615q0 54 7 96q14 70 54 100.5t120 30.5q33 0 63 -2l-15 -37q-34 2 -53 2q-63 0 -91.5 -22t-38.5 -74q-7 -40 -7 -94l-7 -615q0 -54 -7 -96q-14 -70 -53.5 -100.5t-119.5 -30.5q-34 0 -64 2l15 37q30 -2 56 -2z" />
    <glyph glyph-name="approxequal" unicode="&#x2248;" horiz-adv-x="595" 
d="M293 189l-10 8q-2 2 -12.5 10t-13 10t-11.5 8t-13 8t-11.5 6.5t-13 5.5t-13 2.5t-14.5 1.5q-56 0 -72 -77l-7 -34h-34l7 34q22 111 105 111q30 0 51.5 -10.5t55.5 -36.5l10 -8q2 -2 12.5 -10t13 -10t11.5 -8t13 -8t11.5 -6.5t13 -5.5t13 -2.5t14.5 -1.5q56 0 72 77l7 34
h34l-7 -34q-22 -111 -105 -111q-30 0 -51.5 10.5t-55.5 36.5zM336 413l-10 8q-2 2 -12.5 10t-13 10t-11.5 8t-13 8t-11.5 6.5t-13 5.5t-13 2.5t-14.5 1.5q-56 0 -72 -77l-7 -34h-34l7 34q22 111 105 111q30 0 51.5 -10.5t55.5 -36.5l10 -8q2 -2 12.5 -10t13 -10t11.5 -8
t13 -8t11.5 -6.5t13 -5.5t13 -2.5t14.5 -1.5q55 0 72 77l7 34h34l-7 -34q-22 -111 -105 -111q-30 0 -51.5 10.5t-55.5 36.5z" />
    <glyph glyph-name="notequal" unicode="&#x2260;" horiz-adv-x="595" 
d="M146 465h255l94 114h41l-95 -114h90l-8 -37h-112l-143 -173h222l-8 -37h-245l-94 -114h-40l94 114h-100l8 37h122l143 173h-232z" />
    <glyph glyph-name="lessequal" unicode="&#x2264;" horiz-adv-x="595" 
d="M451 1h-411l7 37h411zM131 318l7 38l394 182l-8 -40l-353 -162l293 -147l-7 -37z" />
    <glyph glyph-name="greaterequal" unicode="&#x2265;" horiz-adv-x="595" 
d="M458 1h-411l7 37h411zM500 372l-7 -38l-394 -182l8 40l352 162l-292 147l7 37z" />
    <glyph glyph-name="lozenge" unicode="&#x25ca;" horiz-adv-x="575" 
d="M560 356l-304 -356h-34l-167 356l304 356h34zM97 352l147 -314l274 322l-147 313z" />
    <glyph glyph-name="uniF001" unicode="&#xf001;" horiz-adv-x="496" 
d="M412 709q-116 0 -168.5 -38t-77.5 -158h204l-15 -35h-196l-93 -478h-38l100 512q26 133 90 183t196 50q16 0 52 -1t42 -1l-15 -36q-38 2 -81 2zM330 0l100 513h38l-100 -513h-38z" />
    <glyph glyph-name="uniF002" unicode="&#xf002;" horiz-adv-x="496" 
d="M362 709q-90 0 -130.5 -38t-65.5 -158h204l-15 -35h-196l-93 -478h-38l100 512q26 133 77.5 183t158.5 50q46 0 70 -2l-15 -36q-26 2 -57 2zM330 0l145 743h38l-145 -743h-38z" />
    <glyph glyph-name="uniF507" unicode="&#xf507;" horiz-adv-x="822" 
d="M126 0l554 680h44l-554 -680h-44zM519 359l14 33h246l-4 -30l-200 -362h-40l200 359h-216zM315 321l-14 -33h-235l12 62q12 57 37 85.5t86 52.5l55 22q52 20 64 43q8 19 8 43q0 27 -17 39.5t-58 12.5q-36 0 -114 -2l13 33q90 2 101 2q111 0 111 -82q0 -39 -14 -63
q-20 -33 -82 -58l-55 -22q-51 -21 -71 -41.5t-28 -64.5l-5 -29h206z" />
    <glyph glyph-name="uniF508" unicode="&#xf508;" horiz-adv-x="822" 
d="M107 0l554 680h44l-554 -680h-44zM519 359l14 33h246l-4 -30l-200 -362h-40l200 359h-216zM63 290l13 32q11 0 52.5 -0.5t53.5 -0.5q59 0 87.5 18t35.5 65q2 16 2 22q0 30 -17 42.5t-56 12.5h-100l13 32h87q83 0 100 56q4 12 4 29q0 50 -76 50q-7 0 -52.5 -0.5
t-64.5 -0.5l14 33q22 0 60.5 0.5t43.5 0.5q58 0 84.5 -19.5t26.5 -59.5q0 -23 -6 -41q-17 -49 -74 -63q50 -17 50 -73q0 -8 -2 -24q-16 -114 -161 -114q-86 0 -118 3z" />
    <glyph glyph-name="uniF509" unicode="&#xf509;" horiz-adv-x="822" 
d="M117 0l554 680h44l-554 -680h-44zM519 359l14 33h246l-4 -30l-200 -362h-40l200 359h-216zM373 417l-14 -33h-58l-18 -96h-33l18 96h-213l5 28l198 268h38l-192 -263h171l24 123l34 6l-25 -129h65z" />
    <glyph glyph-name="uniF50A" unicode="&#xf50a;" horiz-adv-x="822" 
d="M113 0l554 680h44l-554 -680h-44zM519 359l14 33h246l-4 -30l-200 -362h-40l200 359h-216zM67 288l14 34q31 -1 100 -1q81 0 106 44q13 24 13 59q0 34 -19 48t-60 14h-111l38 194h227l-14 -34h-186l-25 -127h70q118 0 118 -92q0 -51 -23 -83q-40 -57 -139 -57
q-65 0 -109 1z" />
    <glyph glyph-name="uniF50B" unicode="&#xf50b;" horiz-adv-x="822" 
d="M113 0l554 680h44l-554 -680h-44zM519 359l14 33h246l-4 -30l-200 -362h-40l200 359h-216zM271 681q27 0 54.5 -0.5t47.5 -0.5l-14 -33q-4 0 -35 0.5t-57 0.5q-54 0 -83 -22.5t-41 -79.5l-8 -39q30 32 103 32q119 0 119 -105q0 -44 -14 -76q-31 -79 -140 -79
q-123 0 -123 107q0 18 5 43l23 116q15 74 53.5 105t109.5 31zM207 312q81 0 103 55q11 27 11 62q0 44 -24 60.5t-69 16.5q-49 0 -74.5 -18.5t-34.5 -67.5q-3 -18 -3 -33q0 -39 21.5 -57t69.5 -18z" />
    <glyph glyph-name="uniF50D" unicode="&#xf50d;" horiz-adv-x="822" 
d="M127 0l554 680h44l-554 -680h-44zM583 -1q-27 0 -54.5 0.5t-47.5 0.5l14 33q4 0 35 -0.5t57 -0.5q54 0 83 22.5t41 79.5l8 39q-30 -32 -103 -32q-119 0 -119 105q0 44 14 76q31 79 140 79q123 0 123 -107q0 -18 -5 -43l-23 -116q-15 -74 -53.5 -105t-109.5 -31zM647 368
q-81 0 -103 -55q-11 -27 -11 -62q0 -44 23.5 -60.5t69.5 -16.5q49 0 74.5 18.5t34.5 67.5q3 18 3 33q0 39 -21.5 57t-69.5 18zM315 321l-14 -33h-235l12 62q12 57 37 85.5t86 52.5l55 22q52 20 64 43q8 19 8 43q0 27 -17 39.5t-58 12.5q-36 0 -114 -2l13 33q90 2 101 2
q111 0 111 -82q0 -39 -14 -63q-20 -33 -82 -58l-55 -22q-51 -21 -71 -41.5t-28 -64.5l-5 -29h206z" />
    <glyph glyph-name="uniF50E" unicode="&#xf50e;" horiz-adv-x="822" 
d="M122 0l554 680h44l-554 -680h-44zM583 -1q-27 0 -54.5 0.5t-47.5 0.5l14 33q4 0 35 -0.5t57 -0.5q54 0 83 22.5t41 79.5l8 39q-30 -32 -103 -32q-119 0 -119 105q0 44 14 76q31 79 140 79q123 0 123 -107q0 -18 -5 -43l-23 -116q-15 -74 -53.5 -105t-109.5 -31zM647 368
q-81 0 -103 -55q-11 -27 -11 -62q0 -44 23.5 -60.5t69.5 -16.5q49 0 74.5 18.5t34.5 67.5q3 18 3 33q0 39 -21.5 57t-69.5 18zM373 417l-14 -33h-58l-18 -96h-33l18 96h-213l5 28l198 268h38l-192 -263h171l24 123l34 6l-25 -129h65z" />
    <glyph glyph-name="uniF50F" unicode="&#xf50f;" horiz-adv-x="822" 
d="M115 0l554 680h44l-554 -680h-44zM583 -1q-27 0 -54.5 0.5t-47.5 0.5l14 33q4 0 35 -0.5t57 -0.5q54 0 83 22.5t41 79.5l8 39q-30 -32 -103 -32q-119 0 -119 105q0 44 14 76q31 79 140 79q123 0 123 -107q0 -18 -5 -43l-23 -116q-15 -74 -53.5 -105t-109.5 -31zM647 368
q-81 0 -103 -55q-11 -27 -11 -62q0 -44 23.5 -60.5t69.5 -16.5q49 0 74.5 18.5t34.5 67.5q3 18 3 33q0 39 -21.5 57t-69.5 18zM67 288l14 34q31 -1 100 -1q81 0 106 44q13 24 13 59q0 34 -19 48t-60 14h-111l38 194h227l-14 -34h-186l-25 -127h70q118 0 118 -92
q0 -51 -23 -83q-40 -57 -139 -57q-65 0 -109 1z" />
    <glyph glyph-name="uniF510" unicode="&#xf510;" horiz-adv-x="822" 
d="M583 -1q-27 0 -54.5 0.5t-47.5 0.5l14 33q4 0 35 -0.5t57 -0.5q54 0 83 22.5t41 79.5l8 39q-30 -32 -103 -32q-119 0 -119 105q0 44 14 76q31 79 140 79q123 0 123 -107q0 -18 -5 -43l-23 -116q-15 -74 -53.5 -105t-109.5 -31zM647 368q-81 0 -103 -55q-11 -27 -11 -62
q0 -44 23.5 -60.5t69.5 -16.5q49 0 74.5 18.5t34.5 67.5q3 18 3 33q0 39 -21.5 57t-69.5 18zM122 647l14 33h246l-4 -30l-200 -362h-40l200 359h-216zM90 0l554 680h44l-554 -680h-44z" />
    <glyph glyph-name="uniF511" unicode="&#xf511;" horiz-adv-x="822" 
d="M131 0l554 680h44l-554 -680h-44zM583 -1q-27 0 -54.5 0.5t-47.5 0.5l14 33q4 0 35 -0.5t57 -0.5q54 0 83 22.5t41 79.5l8 39q-30 -32 -103 -32q-119 0 -119 105q0 44 14 76q31 79 140 79q123 0 123 -107q0 -18 -5 -43l-23 -116q-15 -74 -53.5 -105t-109.5 -31zM647 368
q-81 0 -103 -55q-11 -27 -11 -62q0 -44 23.5 -60.5t69.5 -16.5q49 0 74.5 18.5t34.5 67.5q3 18 3 33q0 39 -21.5 57t-69.5 18zM221 480q-62 0 -89 -28q-24 -28 -24 -74q0 -66 97 -66q68 0 93 34q20 27 20 65q0 69 -97 69zM255 656q-50 0 -73 -16q-31 -22 -31 -72
q0 -30 22 -43t71 -14q60 0 83 27q20 23 20 61q0 57 -92 57zM259 689q60 0 91.5 -23t31.5 -65q0 -56 -34 -87q-18 -18 -45 -24q50 -18 50 -78q0 -51 -28 -88q-35 -45 -127 -45q-127 0 -127 93q0 66 40 102q19 18 48 24q-43 17 -43 71q0 62 40 93q37 27 103 27z" />
    <glyph glyph-name="uniF6C3" unicode="&#xf6c3;" horiz-adv-x="500" 
d="M157 -99q0 39 36 39q28 0 28 -29q0 -18 -21 -52l-51 -81h-32l52 96q-12 5 -12 27z" />
    <glyph glyph-name="uniF800" unicode="&#xf800;" horiz-adv-x="595" 
d="M549 380l-17 -88q-31 -167 -89 -237.5t-182 -70.5q-104 0 -150 46.5t-46 139.5q0 50 15 130l17 88q31 167 89 237.5t182 70.5q103 0 149.5 -47t46.5 -140q0 -49 -15 -129zM136 390l-19 -98q-14 -75 -14 -122q0 -85 39.5 -117.5t120.5 -32.5q51 0 84 10t61.5 39.5t48 82
t36.5 137.5l19 98q14 61 14 122q0 85 -39.5 117.5t-120.5 32.5q-68 0 -108 -19.5t-70.5 -78.5t-51.5 -171z" />
    <glyph glyph-name="uniF801" unicode="&#xf801;" horiz-adv-x="595" 
d="M79 0l15 35h132l119 610h-139l15 35h168l-126 -645h143l-15 -35h-312z" />
    <glyph glyph-name="uniF802" unicode="&#xf802;" horiz-adv-x="595" 
d="M528 497q-13 -66 -50.5 -100t-109.5 -64l-98 -39q-82 -33 -117 -72t-50 -120l-13 -66h346l-15 -36h-376l21 108q18 91 59.5 137t133.5 83l98 39q64 25 94 55.5t39 81.5q4 21 4 44q0 48 -31 73t-108 25q-113 0 -177 -4l14 36q84 4 168 4q174 0 174 -132q0 -26 -6 -53z" />
    <glyph glyph-name="uniF803" unicode="&#xf803;" horiz-adv-x="595" 
d="M236 -2q-97 0 -207 2l15 36q16 0 83 -1t103 -1q87 0 135 35t59 115q3 22 3 41q0 61 -33.5 85t-110.5 24h-135l15 36h147q75 0 117.5 32.5t51.5 105.5q3 22 3 40q0 55 -30.5 76.5t-101.5 21.5q-130 0 -173 -2l15 36q45 2 165 2q84 0 124 -33t40 -102q0 -20 -3 -44
q-18 -127 -130 -155q77 -24 77 -125q0 -20 -3 -44q-12 -86 -67.5 -133.5t-158.5 -47.5z" />
    <glyph glyph-name="uniF804" unicode="&#xf804;" horiz-adv-x="595" 
d="M390 0h-37l32 164h-337l6 29l370 487h45l-367 -480h290l49 249l38 6l-50 -255h88l-15 -36h-80z" />
    <glyph glyph-name="uniF805" unicode="&#xf805;" horiz-adv-x="595" 
d="M225 34q91 0 139.5 37.5t63.5 125.5q5 32 5 51q0 61 -38 86.5t-119 25.5h-143l62 320h343l-15 -35h-297l-48 -249h105q99 0 144 -36t45 -112q0 -26 -6 -61q-33 -189 -240 -189q-129 0 -179 2l15 36q17 0 79.5 -1t83.5 -1z" />
    <glyph glyph-name="uniF806" unicode="&#xf806;" horiz-adv-x="595" 
d="M162 394l-6 -33q46 66 157 66q193 0 193 -176q0 -29 -4 -56q-17 -118 -75.5 -164.5t-148.5 -46.5q-191 0 -191 177q0 31 9 83l27 144q32 173 96.5 233.5t203.5 60.5q36 0 116 -2l-15 -36q-32 2 -104 2q-59 0 -94.5 -7.5t-69.5 -33t-56 -76.5t-38 -135zM132 235
q-8 -43 -8 -73q0 -74 39 -108t118 -34q78 0 121 36.5t60 129.5q7 34 7 66q0 72 -40 105.5t-121 33.5q-74 0 -116.5 -33.5t-59.5 -122.5z" />
    <glyph glyph-name="uniF807" unicode="&#xf807;" horiz-adv-x="595" 
d="M147 645l15 35h395l-6 -31l-372 -649h-43l375 645h-364z" />
    <glyph glyph-name="uniF808" unicode="&#xf808;" horiz-adv-x="595" 
d="M71 200q30 140 160 163q-88 32 -88 126q0 26 6 53q34 154 213 154q193 0 193 -143q0 -24 -6 -54q-12 -60 -50 -97.5t-100 -47.5q101 -28 101 -144q0 -30 -5 -55q-33 -171 -229 -171q-201 0 -201 159q0 27 6 57zM459 163q5 32 5 49q0 128 -163 128q-87 0 -132.5 -34
t-59.5 -109q-6 -28 -6 -53q0 -64 40 -94t127 -30q84 0 129.5 35t59.5 108zM358 660q-75 0 -116.5 -28.5t-55.5 -97.5q-5 -32 -5 -47q0 -56 38 -83.5t121 -27.5q77 0 118 31.5t54 97.5q5 32 5 48q0 55 -37.5 81t-121.5 26z" />
    <glyph glyph-name="uniF809" unicode="&#xf809;" horiz-adv-x="595" 
d="M207 34q46 0 76 4t61 18.5t51.5 42t38.5 73.5t31 114l6 32q-45 -65 -157 -65q-193 0 -193 176q0 29 4 56q17 118 75.5 164.5t148.5 46.5q191 0 191 -178q0 -36 -8 -82l-28 -144q-17 -90 -40 -146t-59.5 -89.5t-83 -46t-117.5 -12.5q-68 0 -116 2l15 36q19 -2 104 -2z
M496 445q7 35 7 72q0 74 -39 108.5t-118 34.5q-78 0 -121 -37t-60 -129q-7 -32 -7 -66q0 -72 40 -105.5t121 -33.5q75 0 117.5 33.5t59.5 122.5z" />
    <glyph glyph-name="uniF80A" unicode="&#xf80a;" 
d="M411 627l-10 -51q-18 -95 -58 -136t-120 -41q-137 0 -137 123q0 26 6 59l10 51q18 94 59 135.5t120 41.5q136 0 136 -123q0 -28 -6 -59zM138 631l-10 -52q-6 -31 -6 -56q0 -51 26 -70.5t78 -19.5q59 0 90.5 29t48.5 116l10 51q6 33 6 57q0 50 -26 69.5t-76 19.5
q-62 0 -93 -29t-48 -115z" />
    <glyph glyph-name="uniF80B" unicode="&#xf80b;" 
d="M165 767l14 33h132l-70 -359h106l-14 -33h-230l14 33h89l64 326h-105z" />
    <glyph glyph-name="uniF80C" unicode="&#xf80c;" 
d="M339 441l-14 -33h-235l12 62q12 57 37 85.5t86 52.5l55 22q52 20 64 43q8 19 8 43q0 27 -17 39.5t-58 12.5q-36 0 -114 -2l13 33q90 2 101 2q111 0 111 -82q0 -39 -14 -63q-20 -33 -82 -58l-55 -22q-51 -21 -71 -41.5t-28 -64.5l-5 -29h206z" />
    <glyph glyph-name="uniF80D" unicode="&#xf80d;" 
d="M87 410l13 32q11 0 52.5 -0.5t53.5 -0.5q59 0 87.5 18t35.5 65q2 16 2 22q0 30 -17 42.5t-56 12.5h-100l13 32h87q83 0 100 56q4 12 4 29q0 50 -76 50q-7 0 -52.5 -0.5t-64.5 -0.5l14 33q22 0 60.5 0.5t43.5 0.5q58 0 84.5 -19.5t26.5 -59.5q0 -23 -6 -41
q-17 -49 -74 -63q50 -17 50 -73q0 -8 -2 -24q-16 -114 -161 -114q-86 0 -118 3z" />
    <glyph glyph-name="uniF80E" unicode="&#xf80e;" 
d="M396 537l-14 -33h-58l-18 -96h-33l18 96h-213l5 28l198 268h38l-192 -263h171l24 123l34 6l-25 -129h65z" />
    <glyph glyph-name="uniF80F" unicode="&#xf80f;" 
d="M91 408l14 34q31 -1 100 -1q81 0 106 44q13 24 13 59q0 34 -19 48t-60 14h-111l38 194h227l-14 -34h-186l-25 -127h70q118 0 118 -92q0 -51 -23 -83q-40 -57 -139 -57q-65 0 -109 1z" />
    <glyph glyph-name="uniF810" unicode="&#xf810;" 
d="M295 801q27 0 54.5 -0.5t47.5 -0.5l-14 -33q-4 0 -35 0.5t-57 0.5q-54 0 -83 -22.5t-41 -79.5l-8 -39q30 32 103 32q119 0 119 -105q0 -44 -14 -76q-31 -79 -140 -79q-123 0 -123 107q0 18 5 43l23 116q15 74 53.5 105t109.5 31zM231 432q81 0 103 55q11 27 11 62
q0 44 -24 60.5t-69 16.5q-49 0 -74.5 -18.5t-34.5 -67.5q-3 -18 -3 -33q0 -39 21.5 -57t69.5 -18z" />
    <glyph glyph-name="uniF811" unicode="&#xf811;" 
d="M146 767l14 33h246l-4 -30l-200 -362h-40l200 359h-216z" />
    <glyph glyph-name="uniF812" unicode="&#xf812;" 
d="M245 600q-62 0 -89 -28q-24 -28 -24 -74q0 -66 97 -66q68 0 93 34q20 27 20 65q0 69 -97 69zM279 776q-50 0 -73 -16q-31 -22 -31 -72q0 -30 22 -43t71 -14q60 0 83 27q20 23 20 61q0 57 -92 57zM283 809q60 0 91.5 -23t31.5 -65q0 -56 -34 -87q-18 -18 -45 -24
q50 -18 50 -78q0 -51 -28 -88q-35 -45 -127 -45q-127 0 -127 93q0 66 40 102q19 18 48 24q-43 17 -43 71q0 62 40 93q37 27 103 27z" />
    <glyph glyph-name="uniF813" unicode="&#xf813;" 
d="M210 407q-27 0 -54.5 0.5t-47.5 0.5l14 33q4 0 35 -0.5t57 -0.5q54 0 83 22.5t41 79.5l8 39q-30 -32 -103 -32q-119 0 -119 105q0 44 14 76q31 79 140 79q123 0 123 -107q0 -18 -5 -43l-23 -116q-15 -74 -53.5 -105t-109.5 -31zM274 776q-81 0 -103 -55q-11 -27 -11 -62
q0 -44 23.5 -60.5t69.5 -16.5q49 0 74.5 18.5t34.5 67.5q3 18 3 33q0 39 -21.5 57t-69.5 18z" />
    <glyph glyph-name="uniF814" unicode="&#xf814;" 
d="M310 100l-10 -51q-18 -95 -58 -136t-120 -41q-137 0 -137 123q0 26 6 59l10 51q18 94 59 135.5t120 41.5q136 0 136 -123q0 -27 -6 -59zM37 104l-10 -52q-6 -31 -6 -56q0 -51 26 -70.5t78 -19.5q59 0 90.5 29t48.5 116l10 51q6 33 6 57q0 50 -26 69.5t-76 19.5
q-62 0 -93 -29t-48 -115z" />
    <glyph glyph-name="uniF815" unicode="&#xf815;" 
d="M63 240l14 33h132l-70 -359h106l-14 -33h-230l14 33h89l64 326h-105z" />
    <glyph glyph-name="uniF816" unicode="&#xf816;" 
d="M237 -86l-14 -33h-235l12 62q12 57 37 85.5t86 52.5l55 22q52 20 64 43q8 19 8 43q0 27 -17 39.5t-58 12.5q-36 0 -114 -2l13 33q90 2 101 2q111 0 111 -82q0 -39 -14 -63q-20 -33 -82 -58l-55 -22q-51 -21 -71 -41.5t-28 -64.5l-5 -29h206z" />
    <glyph glyph-name="uniF817" unicode="&#xf817;" 
d="M-15 -117l13 32q11 0 52.5 -0.5t53.5 -0.5q59 0 87.5 18t35.5 65q2 16 2 22q0 30 -17 42.5t-56 12.5h-100l13 32h87q83 0 100 56q4 12 4 29q0 50 -76 50q-7 0 -52.5 -0.5t-64.5 -0.5l14 33q22 0 60.5 0.5t43.5 0.5q58 0 84.5 -19.5t26.5 -59.5q0 -23 -6 -41
q-17 -49 -74 -63q50 -17 50 -73q0 -8 -2 -24q-16 -114 -161 -114q-86 0 -118 3z" />
    <glyph glyph-name="uniF818" unicode="&#xf818;" 
d="M294 10l-14 -33h-58l-18 -96h-33l18 96h-213l5 28l198 268h38l-192 -263h171l24 123l34 6l-25 -129h65z" />
    <glyph glyph-name="uniF819" unicode="&#xf819;" 
d="M-11 -119l14 34q31 -1 100 -1q81 0 106 44q13 24 13 59q0 34 -19 48t-60 14h-111l38 194h227l-14 -34h-186l-25 -127h70q118 0 118 -92q0 -51 -23 -83q-40 -57 -139 -57q-65 0 -109 1z" />
    <glyph glyph-name="uniF81A" unicode="&#xf81a;" 
d="M193 274q27 0 54.5 -0.5t47.5 -0.5l-14 -33q-4 0 -35 0.5t-57 0.5q-54 0 -83 -22.5t-41 -79.5l-8 -39q30 32 103 32q119 0 119 -105q0 -44 -14 -76q-31 -79 -140 -79q-123 0 -123 107q0 18 5 43l23 116q15 74 53.5 105t109.5 31zM129 -95q81 0 103 55q11 27 11 62
q0 44 -24 60.5t-69 16.5q-49 0 -74.5 -18.5t-34.5 -67.5q-3 -18 -3 -33q0 -39 21.5 -57t69.5 -18z" />
    <glyph glyph-name="uniF81B" unicode="&#xf81b;" 
d="M44 240l14 33h246l-4 -30l-200 -362h-40l200 359h-216z" />
    <glyph glyph-name="uniF81C" unicode="&#xf81c;" 
d="M143 73q-62 0 -89 -28q-24 -29 -24 -74q0 -66 97 -66q68 0 93 34q20 27 20 65q0 69 -97 69zM177 249q-50 0 -73 -16q-31 -22 -31 -72q0 -30 22 -43t71 -14q60 0 83 27q20 23 20 61q0 57 -92 57zM181 282q60 0 91.5 -23t31.5 -65q0 -56 -34 -87q-18 -18 -45 -24
q50 -18 50 -78q0 -51 -28 -88q-35 -45 -127 -45q-127 0 -127 93q0 66 40 102q19 18 48 24q-43 17 -43 71q0 62 40 93q37 27 103 27z" />
    <glyph glyph-name="uniF81D" unicode="&#xf81d;" 
d="M108 -120q-27 0 -54.5 0.5t-47.5 0.5l14 33q4 0 35 -0.5t57 -0.5q54 0 83 22.5t41 79.5l8 39q-30 -32 -103 -32q-119 0 -119 105q0 44 14 76q31 79 140 79q123 0 123 -107q0 -18 -5 -43l-23 -116q-15 -74 -53.5 -105t-109.5 -31zM172 249q-81 0 -103 -55q-11 -27 -11 -62
q0 -44 23.5 -60.5t69.5 -16.5q49 0 74.5 18.5t34.5 67.5q3 18 3 33q0 39 -21.5 57t-69.5 18z" />
    <glyph glyph-name="NULL" horiz-adv-x="0" 
 />
    <glyph glyph-name="CR" horiz-adv-x="333" 
 />
    <glyph glyph-name="i.locl" horiz-adv-x="194" 
d="M28 0l100 513h38l-100 -513h-38zM176 693q28 0 28 -30q0 -40 -35 -40q-29 0 -29 30q0 40 36 40z" />
    <glyph glyph-name="glyph469" horiz-adv-x="500" 
d="M216 773l109 119h48l-116 -119h-41zM352 773l109 119h48l-116 -119h-41z" />
    <glyph glyph-name="glyph470" horiz-adv-x="500" 
d="M269 -122q-5 -34 -36 -54.5t-83 -20.5q-47 0 -81 2l16 35q26 -2 71 -2q68 0 78 47q1 7 1 10q0 17 -12 23t-38 6q-47 0 -64 -1l16 35q15 1 50 1q84 0 84 -62q0 -5 -2 -19z" />
    <glyph glyph-name="glyph471" horiz-adv-x="500" 
d="M364 796l-28 19q-31 20 -46 20q-20 0 -30 -13t-19 -49h-34q19 94 87 94q28 0 61 -23l29 -19q31 -20 46 -20q20 0 30 13t19 49h34q-19 -94 -87 -94q-29 0 -62 23z" />
    <glyph glyph-name="glyph472" horiz-adv-x="500" 
d="M239 -144l-15 -34h-31q-83 0 -83 53q0 70 125 136l32 -11q-117 -67 -117 -117q0 -13 9.5 -19t19 -7t26.5 -1h34z" />
    <glyph glyph-name="glyph473" horiz-adv-x="500" 
d="M372 921q-37 0 -57.5 -17.5t-27.5 -58.5q-2 -14 -2 -19q0 -57 72 -57q37 0 57.5 17.5t27.5 58.5q2 14 2 19q0 57 -72 57zM375 953q48 0 76.5 -23t28.5 -64q0 -7 -2 -21q-9 -51 -40 -79.5t-84 -28.5q-48 0 -76.5 23t-28.5 64q0 7 2 21q9 51 40 79.5t84 28.5z" />
    <glyph glyph-name="glyph474" horiz-adv-x="500" 
d="M275 886l78 -86l113 86h46l-142 -113h-39l-98 113h42z" />
    <glyph glyph-name="glyph475" horiz-adv-x="500" 
d="M233 796l7 34h244l-7 -34h-244z" />
    <glyph glyph-name="glyph476" horiz-adv-x="500" 
d="M294 850q29 0 29 -31q0 -41 -36 -41q-30 0 -30 31q0 41 37 41zM431 850q29 0 29 -31q0 -41 -36 -41q-30 0 -30 31q0 41 37 41z" />
    <glyph glyph-name="glyph477" horiz-adv-x="500" 
d="M362 849q28 0 28 -30q0 -40 -35 -40q-29 0 -29 30q0 40 36 40z" />
    <glyph glyph-name="glyph478" horiz-adv-x="500" 
d="M449 773l-78 86l-114 -86h-46l141 113h39l99 -113h-41z" />
    <glyph glyph-name="glyph479" horiz-adv-x="500" 
d="M266 773l138 119h55l-147 -119h-46z" />
    <glyph glyph-name="glyph480" horiz-adv-x="500" 
d="M338 892l98 -119h-41l-106 119h49z" />
    <glyph glyph-name="glyph481" horiz-adv-x="500" 
d="M362 804q98 0 114 88h33q-21 -119 -147 -119q-125 0 -125 95q0 6 2 24h33q-1 -7 -1 -17q0 -37 20 -54t71 -17z" />
    <glyph glyph-name="glyph482" horiz-adv-x="500" 
d="M152 -99q0 39 36 39q28 0 28 -29q0 -18 -21 -52l-51 -81h-32l52 96q-12 5 -12 27z" />
    <glyph glyph-name="glyph483" horiz-adv-x="500" 
d="M330 743h38l-49 -167h-29z" />
    <glyph glyph-name="glyph485" horiz-adv-x="500" 
d="M354 662q0 -39 -36 -39q-28 0 -28 29q0 18 21 52l51 81h32l-52 -96q12 -5 12 -27z" />
    <glyph glyph-name="glyph486" horiz-adv-x="500" 
d="M273 772l128 104h49l-136 -104h-41z" />
    <glyph glyph-name="glyph487" horiz-adv-x="500" 
d="M450 772l-79 87l-113 -87h-46l142 113h39l98 -113h-41z" />
    <glyph glyph-name="glyph488" horiz-adv-x="500" 
d="M330 743h38l-49 -167h-29z" />
    <glyph glyph-name="parenleft.case" horiz-adv-x="299" 
d="M384 799l-15 -36h-5q-112 0 -158 -65.5t-86 -275.5l-26 -133q-26 -135 -26 -205q0 -74 28 -105t94 -31h29l-15 -36h-16q-83 0 -120 40.5t-37 130.5q0 69 26 206l26 133q45 228 100 302.5t186 74.5h15z" />
    <glyph glyph-name="parenright.case" horiz-adv-x="299" 
d="M-45 -88l15 36h5q112 0 158 65.5t86 275.5l26 133q26 135 26 205q0 74 -28 105t-94 31h-29l15 36h16q83 0 120 -41t37 -130q0 -70 -26 -206l-26 -133q-23 -118 -44 -186.5t-54.5 -113.5t-76.5 -61t-111 -16h-15z" />
    <glyph glyph-name="hyphen.case" horiz-adv-x="365" 
d="M71 374h277l-15 -36h-277z" />
    <glyph glyph-name="slash.case" horiz-adv-x="368" 
d="M30 0h-40l387 712h40z" />
    <glyph glyph-name="at.case" horiz-adv-x="726" 
d="M697 515l-52 -277q-4 -21 -11.5 -28t-28.5 -11q-54 -10 -129 -10q-96 0 -146.5 31t-50.5 103q0 28 7 57q16 77 63 113.5t139 36.5q130 0 160 -72l10 51q6 32 6 58q0 69 -47.5 104t-157.5 35q-152 0 -220 -68.5t-105 -242.5q-22 -100 -22 -174q0 -118 71 -167t244 -49
q75 0 119 3l-15 -37q-37 -2 -113 -2q-181 0 -261.5 58t-80.5 198q0 68 20 168q20 95 46.5 158t69 107t102.5 64t145 20q244 0 244 -171q0 -26 -6 -56zM479 225q65 0 126 9l21 112q5 27 5 44q0 56 -35.5 80.5t-110.5 24.5q-70 0 -109 -25.5t-52 -95.5q-5 -24 -5 -47
q0 -61 40.5 -81.5t119.5 -20.5z" />
    <glyph glyph-name="bracketleft.case" horiz-adv-x="331" 
d="M401 762h-164l-159 -813h173l-15 -37h-203l173 887h210z" />
    <glyph glyph-name="backslash.case" horiz-adv-x="368" 
d="M130 712h36l112 -712h-36z" />
    <glyph glyph-name="bracketright.case" horiz-adv-x="331" 
d="M-46 -88l15 37h164l159 813h-173l15 37h203l-173 -887h-210z" />
    <glyph glyph-name="braceleft.case" horiz-adv-x="375" 
d="M295 -53l-16 -35h-36q-76 0 -110.5 28t-34.5 83q0 16 5 48l31 160q5 32 5 45q0 33 -17 47.5t-57 14.5h-24l7 34h24q53 0 75.5 22t34.5 85l34 172q15 81 53 114.5t131 33.5h51l-16 -35h-36q-77 0 -104 -24t-40 -90l-35 -173q-12 -60 -30 -86t-54 -38q41 -18 41 -77
q0 -15 -5 -47l-31 -162q-5 -28 -5 -41q0 -40 26 -59.5t88 -19.5h45z" />
    <glyph glyph-name="braceright.case" horiz-adv-x="375" 
d="M119 764l16 35h36q77 0 111 -27.5t34 -82.5q0 -16 -5 -48l-31 -160q-5 -32 -5 -45q0 -33 17 -47.5t57 -14.5h24l-7 -34h-24q-53 0 -75.5 -22t-34.5 -85l-34 -172q-17 -82 -53.5 -115.5t-130.5 -33.5h-51l16 35h36q76 0 103.5 24.5t40.5 90.5l35 173q12 60 30 86t54 38
q-41 18 -41 77q0 15 5 47l31 162q5 28 5 41q0 40 -26 59t-88 19h-45z" />
    <glyph glyph-name="guilsinglleft.case" horiz-adv-x="303" 
d="M309 543l-10 -50l-211 -140l156 -141l-8 -43l-190 170l7 34z" />
    <glyph glyph-name="bullet.case" horiz-adv-x="314" 
d="M263 356q0 -44 -20 -65t-66 -21t-66 21t-20 65t20 65t66 21t66 -21t20 -65z" />
    <glyph glyph-name="endash.case" horiz-adv-x="500" 
d="M16 338l7 36h500l-7 -36h-500z" />
    <glyph glyph-name="emdash.case" horiz-adv-x="1000" 
d="M16 338l7 36h1000l-7 -36h-1000z" />
    <glyph glyph-name="guilsinglright.case" horiz-adv-x="303" 
d="M33 169l10 50l211 140l-156 141l8 43l190 -170l-7 -34z" />
    <glyph glyph-name="exclamdown.case" horiz-adv-x="169" 
d="M55 0h-39l32 171q18 102 40 199l37 176h33l-32 -176q-3 -19 -20 -103t-19 -98zM160 643q-31 0 -31 33q0 43 39 43q31 0 31 -33q0 -43 -39 -43z" />
    <glyph glyph-name="guillemotleft.case" horiz-adv-x="472" 
d="M51 363l226 181l-10 -49l-186 -151l127 -150l-8 -44l-156 181zM252 363l226 181l-10 -49l-186 -151l127 -150l-8 -44l-156 181z" />
    <glyph glyph-name="guillemotright.case" horiz-adv-x="472" 
d="M456 331l-226 -181l10 49l185 150l-126 151l8 44l156 -181zM255 331l-226 -181l10 49l185 150l-126 151l8 44l156 -181z" />
    </font>
</defs>
</svg>
