<?xml version="1.0" encoding="UTF-8" ?>
<!DOCTYPE svg PUBLIC "-//W3C//DTD SVG 1.1//EN" "http://www.w3.org/Graphics/SVG/1.1/DTD/svg11.dtd">
<svg width="136pt" height="90pt" viewBox="0 0 136 90" version="1.1" xmlns="http://www.w3.org/2000/svg">
<g id="#77787cff">
<path fill="#77787c" opacity="1.00" d=" M 0.00 0.00 L 136.00 0.00 L 136.00 90.00 L 0.00 90.00 L 0.00 0.00 M 18.79 35.71 C 17.65 48.44 18.59 61.40 18.35 74.22 C 27.36 68.05 35.74 60.99 44.15 54.05 C 39.59 48.60 34.00 44.16 29.16 38.98 C 42.46 48.54 54.90 59.25 68.04 69.03 C 81.20 59.33 93.59 48.62 106.79 38.97 C 102.22 44.35 96.59 48.69 91.89 53.96 C 100.37 60.79 108.79 67.73 117.63 74.10 C 117.69 61.21 117.81 48.31 117.58 35.42 C 109.32 29.04 101.25 22.43 92.97 16.07 C 84.42 22.25 76.61 29.40 68.00 35.50 C 59.39 29.40 51.59 22.25 43.02 16.08 C 34.98 22.65 26.29 28.56 18.79 35.71 Z" />
</g>
<g id="#fafafaff">
</g>
</svg>
