<?xml version="1.0" encoding="utf-8"?>
<!-- Generator: Adobe Illustrator 18.1.1, SVG Export Plug-In . SVG Version: 6.00 Build 0)  -->
<svg version="1.1" id="Layer_1" xmlns:svg="http://www.w3.org/2000/svg"
	 xmlns="http://www.w3.org/2000/svg" xmlns:xlink="http://www.w3.org/1999/xlink" x="0px" y="0px" viewBox="0 0 640 480"
	 enable-background="new 0 0 640 480" xml:space="preserve">
<rect id="svgEditorBackground" y="28.2" fill="none" width="640" height="423.5"/>
<g id="workspace">
</g>
<g transform="matrix(1 0 0 1 -7.105427357601002e-15 -1.7763568394002505e-15)">
	<g id="_x23_fafafaff">
		<path id="svg_1" fill="#FFFFFF" d="M0,28.2h640v423.5H0V28.2 M88.4,196.3c-0.6,61.6-0.2,121.9-1.1,183.4l122.3-98.3l-72.3-69.7
			c62.6,45,121.1,95.4,181.4,141.9c63.5-46.2,121.8-96.6,183.9-142c-21.5,25.3-72.6,71.9-72.6,71.9l123.5,94.8V194.4l-115.9-90.6
			c-40.2,29.1-77,62.7-117.5,91.4c-40.5-28.7-77.2-62.4-117.6-91.4c-37.8,30.9-79.4,64-114,92L88.4,196.3z"/>
	</g>
	<g id="_x23_77787c">
	</g>
</g>
<polygon id="e1_polygon" points="87.3,379.7 87.3,195 202.3,103.8 318.4,193.9 437.2,103.3 553.4,194.4 553.4,378.3 429.9,283.5 
	501.3,212.7 319,354.3 138.3,212.3 209.6,281.4 "/>
</svg>
