<?xml version="1.0" standalone="no"?>
<!DOCTYPE svg PUBLIC "-//W3C//DTD SVG 1.1//EN" "http://www.w3.org/Graphics/SVG/1.1/DTD/svg11.dtd" >
<svg xmlns="http://www.w3.org/2000/svg">
<metadata></metadata>
<defs>
<font id="tisaproitalicbold" horiz-adv-x="1167" >
<font-face units-per-em="2048" ascent="1638" descent="-410" />
<missing-glyph horiz-adv-x="407" />
<glyph unicode=" "  horiz-adv-x="407" />
<glyph unicode="&#x09;" horiz-adv-x="407" />
<glyph unicode="&#xa0;" horiz-adv-x="407" />
<glyph unicode="!" horiz-adv-x="595" d="M47 139q0 74 50 123t124 49q77 0 122.5 -44t45.5 -128t-47 -132t-121 -48q-174 0 -174 180zM147 461l15 956q139 47 276 47q67 0 94 -6l-170 -997q-52 -10 -106 -10q-57 0 -109 10z" />
<glyph unicode="&#x22;" horiz-adv-x="866" d="M35 877q57 302 84 589q135 0 252 -32q-11 -107 -61.5 -284.5t-98.5 -295.5q-78 0 -176 23zM471 877q57 302 84 589q135 0 252 -32q-11 -107 -61.5 -284.5t-98.5 -295.5q-78 0 -176 23z" />
<glyph unicode="#" horiz-adv-x="1368" d="M8 274q14 90 58 177h196l70 243h-217q10 71 57 176h207l63 230q101 24 236 24l-60 -254h295l62 230q105 24 237 24l-59 -254h193q0 -32 -10.5 -88t-22.5 -88h-205l-61 -243h190q0 -32 -10.5 -88.5t-22.5 -88.5h-207l-63 -268q-46 -12 -135 -12t-129 12l75 268h-280 l-66 -268q-43 -12 -133 -12q-88 0 -129 12l76 268h-205zM504 444h295l69 254h-301z" />
<glyph unicode="$" horiz-adv-x="1294" d="M160 113q0 128 47 235q162 0 274 -41l-14 -127q59 -30 143 -30q77 0 117.5 34.5t40.5 100.5q0 41 -27.5 72t-71.5 52t-97.5 40.5t-107 44.5t-97.5 57.5t-71.5 86.5t-27.5 124q0 148 91 245.5t251 125.5l19 151q107 29 262 29l-23 -178q136 -18 246 -80q0 -61 -15 -136.5 t-38 -125.5q-70 0 -144.5 17t-117.5 44l10 96q-46 17 -92 17q-64 0 -97.5 -29t-33.5 -80q0 -38 27.5 -66.5t71 -48t96 -39t105.5 -45.5t96.5 -60t71 -90.5t27.5 -129.5q0 -167 -97 -269t-263 -137l-21 -174q-34 -10 -133 -10q-92 0 -133 10l21 166q-170 19 -293 94 q-2 18 -2 54z" />
<glyph unicode="%" horiz-adv-x="1988" d="M88 756q0 179 113.5 287t302.5 108q151 0 232 -75.5t81 -223.5q0 -178 -115 -281.5t-303 -103.5q-152 0 -231.5 72.5t-79.5 216.5zM334 776q0 -65 25.5 -100t72.5 -35q63 0 99 57.5t36 143.5q0 133 -94 133q-66 0 -102.5 -58t-36.5 -141zM432 20l897 1151 q52 -2 118.5 -17t111.5 -36l-934 -1218q-43 9 -105.5 49t-87.5 71zM1149 248q0 179 113.5 287t302.5 108q151 0 232 -75.5t81 -223.5q0 -178 -115 -281.5t-303 -103.5q-152 0 -231.5 72.5t-79.5 216.5zM1395 268q0 -65 25.5 -100t72.5 -35q63 0 99 57.5t36 143.5 q0 133 -94 133q-66 0 -102.5 -58t-36.5 -141z" />
<glyph unicode="&#x26;" horiz-adv-x="1685" d="M96 326q0 150 98.5 267t239.5 155v18q-147 85 -147 274q0 80 28.5 148.5t75 114t107 78t122.5 47t123 14.5q51 0 101.5 -11t98.5 -35t84.5 -58.5t58.5 -85.5t22 -113q0 -129 -85 -236t-202 -135v-18q158 -125 305 -281q36 74 62.5 173.5t34.5 188.5l397 33 q0 -35 -19.5 -96.5t-39.5 -89.5q-34 -19 -111 -31q-65 -202 -174 -356q44 -48 76 -90q96 -12 139 -27q22 -90 22 -174h-362q-44 75 -86 123q-205 -164 -471 -164q-95 0 -180 20.5t-158 62t-116.5 115t-43.5 169.5zM389 373q0 -109 69 -161t183 -52q175 0 297 116 q-170 202 -381 367q-168 -102 -168 -270zM575 1077q0 -65 28 -114.5t89 -92.5q66 41 101.5 104t35.5 136q0 76 -32 113t-78 37q-53 0 -98.5 -45t-45.5 -138z" />
<glyph unicode="'" horiz-adv-x="430" d="M35 877q57 302 84 589q135 0 252 -32q-11 -107 -61.5 -284.5t-98.5 -295.5q-78 0 -176 23z" />
<glyph unicode="(" horiz-adv-x="663" d="M133 397q0 288 75 573.5t234 592.5q43 22 132 38.5t155 16.5q-146 -279 -225.5 -618.5t-79.5 -661.5q0 -378 92 -696q-41 -25 -110.5 -51.5t-122.5 -39.5q-150 432 -150 846z" />
<glyph unicode=")" horiz-adv-x="628" d="M-63 -365q284 561 284 1291q0 363 -69 628q43 31 110.5 55.5t126.5 28.5q123 -366 123 -800q0 -322 -81 -621.5t-269 -671.5q-55 11 -121.5 37t-103.5 53z" />
<glyph unicode="*" horiz-adv-x="911" d="M45 1040l160 52q81 26 119 34l2 17q-27 2 -111 33l-139 53q9 44 44 111t68 100l129 -107q18 -14 40 -40t30 -40l16 11q-18 52 -18 108v156q86 22 219 22l-37 -178q-5 -24 -19.5 -57.5t-31.5 -54.5l16 -13q46 50 93 82l151 107q26 -30 57.5 -84t49.5 -97l-193 -79 q-58 -24 -115 -31l-2 -17q40 -2 109 -28l170 -60q-19 -44 -66.5 -111.5t-80.5 -97.5l-127 127q-57 57 -70 82l-14 -10q16 -50 16 -115l4 -174q-47 -12 -113 -12q-69 0 -116 12l45 174q6 22 20.5 56.5t24.5 50.5l-13 12q-12 -12 -47.5 -42.5t-38.5 -33.5l-147 -120 q-26 31 -53 94.5t-31 107.5z" />
<glyph unicode="+" d="M47 444q10 118 49 222h344l45 376q128 31 263 31l-41 -407h356q5 -44 -0.5 -109t-18.5 -113h-362l-41 -399q-43 -12 -133 -12q-88 0 -141 12l47 399h-367z" />
<glyph unicode="," horiz-adv-x="446" d="M-55 -348q109 244 145 375l-108 24q18 51 51 109t63 88q41 14 111 14q113 0 211 -31q-45 -153 -142 -347t-180 -310q-39 12 -88 36t-63 42z" />
<glyph unicode="-" horiz-adv-x="702" d="M33 451q10 126 51 229h518q2 -8 2 -25v-26q0 -105 -20 -178h-551z" />
<glyph unicode="." horiz-adv-x="575" d="M76 172q0 81 54 133.5t136 52.5q84 0 133.5 -48.5t49.5 -137.5q0 -90 -51.5 -143.5t-131.5 -53.5q-190 0 -190 197z" />
<glyph unicode="/" horiz-adv-x="929" d="M-55 -279l856 1840q137 0 254 -31l-873 -1909q-49 9 -126.5 42t-110.5 58z" />
<glyph unicode="0" horiz-adv-x="1280" d="M43 463q0 308 178.5 495t474.5 187q236 0 362 -128.5t126 -379.5q0 -307 -180.5 -492.5t-477.5 -185.5q-238 0 -360.5 126.5t-122.5 377.5zM356 479q0 -154 54 -238.5t157 -84.5q90 0 160.5 65.5t107.5 172.5t37 235q0 152 -55 236.5t-162 84.5q-95 0 -164.5 -68 t-102 -173t-32.5 -230z" />
<glyph unicode="1" horiz-adv-x="919" d="M14 0q28 106 72 174q34 14 95.5 30.5t103.5 22.5l73 654l-278 -39q25 139 65 205q90 32 233 61.5t302 36.5l-94 -918q47 -4 113.5 -18.5t103.5 -28.5q6 -30 4 -88.5t-10 -91.5h-783z" />
<glyph unicode="2" horiz-adv-x="1118" d="M33 197q37 30 110 80.5t140 95.5t143 104.5t131.5 113t92 114t36.5 114.5q0 60 -34 90.5t-97 30.5q-89 0 -154 -37l-22 -176q-99 -51 -256 -55q-8 82 -8 133q0 137 28 235q238 105 469 105q89 0 160.5 -14t128 -43.5t87 -81t30.5 -121.5q0 -57 -22.5 -115.5t-55.5 -107 t-87.5 -101.5t-101 -91t-114 -84.5t-108 -71.5t-101.5 -62v-25q334 12 551 41q-2 -54 -15 -137.5t-28 -130.5h-891z" />
<glyph unicode="3" horiz-adv-x="1087" d="M-35 27q72 -24 171.5 -39t170.5 -15q78 0 145.5 19.5t115.5 65.5t48 112q0 101 -92.5 148t-294.5 47q0 89 39 196q74 3 141.5 18.5t126.5 43.5t94.5 76t35.5 110q0 66 -40.5 99.5t-101.5 33.5q-69 0 -135 -24l-16 -132q-41 -24 -114 -40t-140 -19q-25 160 12 330 q106 41 229.5 64.5t225.5 23.5q81 0 152.5 -17.5t129 -52.5t91.5 -93t34 -132q0 -118 -86.5 -216.5t-197.5 -131.5v-19q110 -22 175.5 -88.5t65.5 -179.5q0 -106 -56.5 -194t-149 -144t-206 -86.5t-231.5 -30.5q-170 0 -309 47q-19 37 -29.5 107.5t-3.5 112.5z" />
<glyph unicode="4" horiz-adv-x="1165" d="M-20 289q282 423 696 856l305 -47l-68 -744h154q6 -35 3 -103t-15 -114h-160l-31 -334q-55 -14 -139 -14q-102 0 -154 14l33 334h-598zM299 340q76 12 174 12h154l26 289q8 97 39 201h-24q-89 -92 -193.5 -228.5t-175.5 -248.5v-25z" />
<glyph unicode="5" horiz-adv-x="1071" d="M-12 14q156 -39 295 -39q141 0 235 67t94 196q0 93 -54 134.5t-161 41.5q-118 0 -315 -41l121 737h807q-13 -135 -58 -258q-234 13 -522 20l-33 -272q55 16 138 16q181 0 289 -86t108 -262q0 -121 -55.5 -220t-146.5 -160.5t-201.5 -94.5t-227.5 -33q-149 0 -281 39 q-19 37 -29 104t-3 111z" />
<glyph unicode="6" d="M59 477q0 186 61 348t163.5 273.5t238.5 175t285 63.5q140 0 237 -57q18 -40 28 -112.5t1 -116.5q-49 29 -132.5 50t-147.5 21q-54 0 -108.5 -18.5t-110.5 -60t-102.5 -119.5t-72.5 -185h25q90 107 260 107q173 0 268 -103t95 -270q0 -147 -74 -265t-201 -183.5 t-280 -65.5q-212 0 -322.5 133.5t-110.5 384.5zM367 420q0 -124 42 -194t121 -70q94 0 154.5 89t60.5 210q0 186 -161 186q-55 0 -110 -22.5t-97 -59.5q-10 -72 -10 -139z" />
<glyph unicode="7" horiz-adv-x="1103" d="M23 721l65 383h950l27 -189q-214 -297 -365 -566t-241 -539q-77 -15 -160 -15q-90 0 -170 17q109 285 255.5 519t365.5 505v24h-435q-31 -103 -75 -182q-45 0 -114 13t-103 30z" />
<glyph unicode="8" horiz-adv-x="1163" d="M45 295q0 144 88 245.5t215 116.5v19q-91 42 -138.5 105t-47.5 167q0 78 28.5 143.5t76.5 110.5t112 76t134.5 45t145.5 14q80 0 151 -16.5t131.5 -50.5t96 -94t35.5 -140q0 -122 -76 -208t-174 -107v-19q224 -90 224 -309q0 -104 -47 -188.5t-126 -137t-178.5 -80.5 t-208.5 -28q-63 0 -122 9.5t-118.5 33.5t-103 61t-71 96.5t-27.5 135.5zM346 336q0 -97 53 -143t129 -46q83 0 150 49.5t67 143.5q0 28 -7 52t-15.5 41.5t-30 37.5t-34.5 30.5t-46.5 29.5t-49 26.5t-58.5 28.5q-71 -35 -114.5 -100.5t-43.5 -149.5zM440 1010q0 -38 15 -68.5 t47.5 -57t66.5 -46t90 -45.5q55 39 88 98t33 121q0 78 -47 113.5t-110 35.5q-28 0 -57.5 -7.5t-59 -23.5t-48 -47.5t-18.5 -72.5z" />
<glyph unicode="9" d="M23 47q58 -27 148 -45t157 -18q46 0 89.5 9.5t92.5 36t90 68.5t79 111.5t62 159.5h-24q-49 -53 -110.5 -81t-153.5 -28q-178 0 -272.5 105.5t-94.5 275.5q0 221 154 362.5t387 141.5q216 0 327 -134.5t111 -392.5q0 -181 -53.5 -339.5t-148 -272.5t-229.5 -180t-292 -66 q-155 0 -283 64q-21 42 -33 109.5t-3 113.5zM383 664q0 -95 41 -147t113 -52q130 0 229 102q8 52 8 109q0 130 -46 203t-130 73q-94 0 -154.5 -84.5t-60.5 -203.5z" />
<glyph unicode=":" horiz-adv-x="520" d="M47 172q0 81 54.5 133.5t136.5 52.5q83 0 132.5 -48.5t49.5 -137.5q0 -90 -51 -143.5t-131 -53.5q-191 0 -191 197zM119 858q0 79 52 129.5t132 50.5q83 0 131.5 -47t48.5 -133q0 -90 -50 -141t-130 -51q-184 0 -184 192z" />
<glyph unicode=";" horiz-adv-x="716" d="M-25 -348q113 253 146 375l-109 24q18 51 51.5 109t63.5 88q43 14 111 14q113 0 211 -31q-49 -157 -144.5 -349t-177.5 -308q-43 14 -89.5 36.5t-62.5 41.5zM137 858q0 79 52.5 129.5t132.5 50.5q83 0 131.5 -47t48.5 -133q0 -90 -50 -141t-130 -51q-185 0 -185 192z" />
<glyph unicode="&#x3c;" d="M158 467l35 178l661 449q48 -24 104.5 -68t83.5 -80l-571 -381v-22l453 -353q-19 -41 -77 -106.5t-99 -91.5z" />
<glyph unicode="=" d="M86 240q10 114 49 219h848q5 -45 0 -108t-18 -111h-879zM135 641q10 114 49 219h848q5 -45 0 -108t-18 -111h-879z" />
<glyph unicode="&#x3e;" d="M154 180l546 352v25l-483 387q80 77 217 131l553 -450l-8 -166l-692 -486q-34 24 -78 93.5t-55 113.5z" />
<glyph unicode="?" horiz-adv-x="897" d="M20 1182q0 107 13 227q93 31 224 54.5t228 23.5q178 0 280.5 -71t102.5 -199q0 -68 -24.5 -128t-63 -104t-85.5 -83.5t-94 -73.5t-85.5 -67.5t-63 -73t-24.5 -81.5q0 -72 33 -119q-41 -29 -109.5 -54.5t-122.5 -29.5q-35 38 -57 94.5t-22 110.5t21.5 103t56.5 87.5 t76.5 75t83.5 71t77 69t56.5 76t21.5 84.5q0 48 -33 84t-100 36q-59 0 -127 -26l-17 -181q-83 -46 -239 -59q-7 82 -7 154zM156 139q0 74 50 123t124 49q77 0 122.5 -44t45.5 -128t-47 -132t-121 -48q-174 0 -174 180z" />
<glyph unicode="@" horiz-adv-x="2070" d="M49 350q0 231 89.5 440.5t242 361.5t365.5 241.5t450 89.5q166 0 309.5 -45t251.5 -128.5t170 -212t62 -286.5q0 -118 -30.5 -229t-98 -213t-164.5 -180.5t-239 -129t-314 -59.5q-30 50 -43 137h-19q-112 -137 -276 -137q-120 0 -193 86t-73 254q0 126 45.5 256 t126.5 225q75 88 182 138.5t235 50.5q101 0 193 -31t152 -80l-138 -598q4 -36 17 -63q101 21 179.5 78t125 133.5t70.5 162t24 172.5q0 124 -50 222.5t-134.5 159.5t-191 92.5t-224.5 31.5q-179 0 -339.5 -73t-273.5 -195.5t-179 -289.5t-66 -349q0 -303 173 -483.5 t478 -180.5q125 0 269.5 36.5t259.5 97.5q20 -22 45.5 -72t33.5 -82q-145 -86 -321 -131t-346 -45q-387 0 -611.5 225.5t-224.5 601.5zM823 401q0 -97 23 -137.5t74 -40.5q42 0 87 25t72 65l107 496q-30 10 -68 10q-113 0 -196 -108q-49 -65 -74 -148t-25 -162z" />
<glyph unicode="A" horiz-adv-x="1546" d="M-31 0q15 81 66 184q49 22 100 31l629 1258h221l375 -1252q58 -11 104 -31q17 -78 17 -190h-623q6 36 26.5 93t39.5 93q62 21 127 33q-28 42 -56 135l-16 58h-485l-27 -68q-28 -70 -74 -133q67 -6 133 -25q25 -98 25 -186h-582zM582 602h352l-72 279q-14 52 -27.5 143.5 t-13.5 149.5h-24q-8 -56 -37.5 -145.5t-54.5 -147.5z" />
<glyph unicode="B" horiz-adv-x="1376" d="M18 6q4 37 22 94t34 90q58 20 137 31l90 1016q-83 8 -129 20q-1 15 -1 34q0 27 2 63q4 62 11 94q359 27 537 27q163 0 284.5 -37.5t195 -121t73.5 -204.5q0 -112 -65.5 -207t-168.5 -127v-18q117 -33 183.5 -111t66.5 -194q0 -99 -36.5 -179.5t-97.5 -133.5t-144 -89 t-173 -51.5t-188 -15.5q-297 0 -633 20zM520 190q57 -8 133 -8q324 0 324 248q0 113 -78.5 169t-212.5 56h-129zM569 850h123q133 0 204 53.5t71 171.5q0 101 -73.5 154t-207.5 53q-36 0 -86 -8z" />
<glyph unicode="C" horiz-adv-x="1304" d="M74 635q0 188 65.5 350t176 272.5t258.5 173t311 62.5q218 0 397 -96q-22 -223 -74 -398q-57 0 -127.5 17.5t-113.5 42.5l18 201q-59 30 -135 30q-193 0 -320 -172.5t-127 -449.5q0 -238 97.5 -353.5t271.5 -115.5q81 0 196.5 21t207.5 56q0 -42 -20.5 -105t-47.5 -103 q-213 -109 -432 -109q-279 0 -440.5 184.5t-161.5 491.5z" />
<glyph unicode="D" horiz-adv-x="1507" d="M16 10q5 39 22 97t34 88q49 18 137 30l88 998q-77 8 -129 18q-1 15 -1 35q0 26 2 62q4 64 11 96q111 14 282.5 25t272.5 11q338 0 529.5 -160t191.5 -479q0 -164 -40.5 -303t-110.5 -238t-164 -169t-202.5 -103.5t-225.5 -33.5q-418 0 -697 26zM520 197q72 -11 139 -11 q222 0 354 157t132 443q0 241 -116.5 362.5t-319.5 121.5q-56 0 -111 -10z" />
<glyph unicode="E" horiz-adv-x="1308" d="M8 0q5 40 21.5 97t33.5 87q51 20 142 33l90 1022q-79 8 -129 25q-2 18 -2 42t2 54q3 60 12 92h1082l-35 -371q-133 0 -224 31q-10 62 -10 148h-397l-29 -424h318q4 22 24 90q98 30 221 30l-28 -419q-40 -4 -75 -4q-83 0 -144 20q-11 46 -11 94h-319l-35 -450h387 q13 87 43 165q40 13 112 22t126 9l-31 -393h-1145z" />
<glyph unicode="F" horiz-adv-x="1189" d="M10 0q4 38 21 95.5t32 88.5q48 19 142 33l82 1022q-79 8 -129 25q-3 21 -3 53q0 19 1 42q3 62 12 93h1042l-32 -389q-52 0 -118 10t-108 25q-14 86 -14 162h-352l-29 -461h274q9 53 27 98q104 33 219 33l-35 -443q-24 -2 -53 -2.5t-61 2.5q-66 5 -105 19q-5 36 -10 104 h-270l-25 -393q107 -7 197 -29q7 -32 7 -82v-12q-1 -58 -9 -94h-703z" />
<glyph unicode="G" horiz-adv-x="1501" d="M80 606q0 253 107.5 455t302.5 317t442 115q245 0 440 -127q-8 -82 -30.5 -195t-45.5 -178q-54 0 -130.5 18.5t-108.5 37.5l20 208q-74 41 -176 41q-134 0 -245 -81.5t-177.5 -235.5t-66.5 -352q0 -457 370 -457q68 0 170 12l37 348q-140 0 -248 23q-16 82 -16 184h733 q-8 -94 -43 -184q-70 -16 -141 -20l-41 -474q-106 -36 -270.5 -69t-290.5 -33q-284 0 -438 174t-154 473z" />
<glyph unicode="H" horiz-adv-x="1685" d="M12 0q6 40 23.5 97.5t34.5 86.5q48 19 141 33l96 1022q-79 8 -129 25q-1 14 -1 32q1 27 3 64q4 61 13 92h569q1 -9 1 -20q1 -30 -5 -74q-8 -62 -19 -94q-63 -19 -135 -23l-29 -401h572l37 399q-70 8 -117 25q-1 13 -1 29q0 31 3 71q4 60 14 88h570q1 -9 1 -20 q0 -30 -6 -74q-8 -62 -18 -94q-71 -19 -149 -23l-80 -1024q80 -6 158 -29q4 -23 4 -57q0 -17 -1 -38q-3 -61 -12 -93h-645q6 40 22.5 97t30.5 87q48 20 129 33l39 420h-569l-33 -420q74 -6 144 -29q4 -23 4 -57q0 -17 -1 -38q-3 -61 -12 -93h-647z" />
<glyph unicode="I" horiz-adv-x="806" d="M10 0q6 40 23.5 97.5t34.5 86.5q51 20 141 33l96 1022q-79 8 -129 25q-1 15 -1 35q0 26 2 61q4 61 13 92h586q1 -10 1 -23q-1 -27 -5 -71q-6 -62 -16 -94q-71 -19 -150 -23l-84 -1024q80 -6 158 -29q4 -23 4 -61q0 -15 -1 -33q-2 -62 -11 -94h-662z" />
<glyph unicode="J" horiz-adv-x="739" d="M-158 -211q338 190 379 653l70 797q-98 7 -168 25q-2 16 -2 37q0 25 3 57q4 61 13 94h623q1 -9 1 -20q0 -29 -5 -74q-8 -62 -19 -94q-66 -19 -147 -23l-55 -745q-23 -304 -179 -525t-432 -346q-27 28 -51.5 77t-30.5 87z" />
<glyph unicode="K" horiz-adv-x="1519" d="M16 0q6 40 23.5 97.5t34.5 86.5q45 17 141 33l96 1022q-79 8 -129 25q-1 14 -1 32q1 27 3 64q4 61 13 92h569q1 -9 1 -20q1 -30 -5 -74q-8 -62 -19 -94q-64 -19 -133 -23l-32 -412h124l240 304q48 67 105 108q-55 7 -103 21q-7 36 -7 92.5t5 97.5h571q-16 -110 -55 -203 q-46 -9 -127 -14l-407 -481l379 -543l131 8q-3 -48 -25.5 -113.5t-48.5 -105.5q-138 -34 -285 -41l-428 682h-82l-35 -424q71 -6 142 -29q4 -24 4 -61v-34q-2 -61 -12 -93h-648z" />
<glyph unicode="L" horiz-adv-x="1286" d="M14 0q6 40 23.5 97.5t34.5 86.5q57 21 141 33l96 1022q-79 8 -129 25q-1 14 -1 32q1 27 3 64q4 61 13 92h641q1 -8 1 -19q0 -29 -6 -75q-8 -62 -20 -94q-88 -19 -205 -23l-82 -1040h394q19 102 49 200q44 16 117 25.5t128 9.5l-38 -436h-1160z" />
<glyph unicode="M" horiz-adv-x="1976" d="M10 0q17 106 51 184q49 20 119 33l96 1022q-71 8 -118 25q-1 15 -1 35q0 26 2 61q4 61 13 92h539l192 -739q19 -71 31 -188.5t12 -207.5h25q10 76 42 186.5t62 174.5l355 774h520q1 -9 1 -20q1 -28 -5 -72q-8 -62 -17 -96q-71 -19 -149 -23l-86 -1032q75 -6 155 -25 q5 -29 5 -67q0 -13 -1 -26q-2 -54 -8 -91h-608q5 39 20.5 96.5t30.5 87.5q64 23 127 33l94 1004h-24q-59 -242 -119 -381l-365 -863h-221l-215 879q-15 68 -27 173t-12 183h-24l-84 -997q66 -7 127 -29q3 -21 3 -52q0 -19 -1 -42q-3 -61 -12 -92h-525z" />
<glyph unicode="N" horiz-adv-x="1581" d="M10 0q17 106 51 184q54 20 132 33l96 1022q-79 8 -129 25q-1 15 -1 35q0 26 2 61q4 61 13 92h510l346 -799q58 -132 72 -309h24l84 895q-86 7 -149 25q-1 14 -1 33q0 27 2 63q4 60 15 92h502q1 -9 1 -20q0 -30 -6 -74q-8 -62 -18 -94q-58 -19 -135 -23l-106 -1257h-328 l-373 886q-27 63 -49 149t-26 150h-25l-76 -952q77 -7 146 -29q4 -23 4 -57q0 -17 -1 -38q-3 -61 -12 -93h-565z" />
<glyph unicode="O" horiz-adv-x="1458" d="M96 616q0 253 91 452.5t260 312t387 112.5q270 0 421.5 -172t151.5 -498q0 -256 -92 -452t-261.5 -304t-391.5 -108q-274 0 -420 168.5t-146 488.5zM418 631q0 -223 72.5 -346t209.5 -123q117 0 207.5 91t136.5 239t46 327q0 224 -74.5 348.5t-214.5 124.5 q-93 0 -167.5 -55.5t-120.5 -149t-70.5 -210.5t-24.5 -246z" />
<glyph unicode="P" horiz-adv-x="1275" d="M16 0q7 42 23.5 98.5t32.5 85.5q59 22 141 33l82 1016q-65 0 -131 12q-2 18 -2 45q0 58 10 154q89 10 254.5 19.5t263.5 9.5q291 0 440.5 -93.5t149.5 -306.5q0 -104 -32.5 -191.5t-88.5 -148t-130.5 -103t-158 -62t-172.5 -19.5q-95 0 -153 14l-25 -346q109 -7 203 -29 q7 -29 7 -76v-19q-2 -61 -11 -93h-703zM557 758q63 -13 145 -13q119 0 197 73.5t78 211.5q0 123 -73.5 184.5t-213.5 61.5q-70 0 -104 -6z" />
<glyph unicode="Q" horiz-adv-x="1527" d="M92 616q0 189 54 351.5t150 278.5t235 181.5t303 65.5q270 0 423.5 -172t153.5 -498q0 -216 -67 -386.5t-191 -282.5v-19q75 -75 164.5 -146t122.5 -75l178 20q0 -56 -23.5 -126.5t-54.5 -126.5q-21 -10 -71 -21.5t-72 -11.5q-75 0 -216.5 115t-250.5 243 q-124 -47 -268 -47q-275 0 -422.5 168.5t-147.5 488.5zM414 631q0 -222 74.5 -345.5t211.5 -123.5q117 0 208.5 91t138.5 239.5t47 326.5q0 223 -76.5 348t-216.5 125q-93 0 -168 -55.5t-122 -148.5t-72 -210.5t-25 -246.5z" />
<glyph unicode="R" horiz-adv-x="1413" d="M12 0q6 40 23.5 97.5t34.5 86.5q45 17 141 33l94 1012q-77 0 -131 14q-2 18 -2 40q0 65 14 159q245 31 566 31q116 0 212 -23.5t168 -70.5t112 -123t40 -175q0 -153 -90.5 -269.5t-230.5 -164.5q66 -152 142.5 -276t119.5 -158l108 12q0 -47 -18 -111.5t-41 -101.5 q-43 -13 -129 -27.5t-137 -17.5q-51 41 -154.5 241t-167.5 390q-81 0 -139 14l-29 -395q77 -7 146 -29q4 -23 4 -57q0 -17 -1 -38q-3 -61 -12 -93h-643zM563 803q56 -12 158 -12q107 0 183.5 65t76.5 182q0 112 -73.5 175t-196.5 63q-51 0 -113 -8z" />
<glyph unicode="S" horiz-adv-x="1196" d="M57 35q20 220 72 405q53 0 129 -10.5t119 -26.5l-19 -213q108 -43 203 -43q112 0 179 56t67 159q0 56 -33 100.5t-85.5 75.5t-116 60.5t-127 66.5t-116 83t-85.5 119.5t-33 166.5q0 213 139 336t387 123q96 0 206 -19.5t200 -52.5q-6 -75 -29 -183.5t-49 -182.5 q-51 0 -119 15t-110 36l16 168q-62 33 -131 33q-101 0 -161 -52.5t-60 -132.5q0 -48 26 -88t68 -68.5t96.5 -58.5t110.5 -56.5t110.5 -64t96.5 -80t68 -106t26 -139.5q0 -109 -32.5 -195t-87.5 -143t-133.5 -94.5t-166.5 -53.5t-190 -16q-247 0 -435 76z" />
<glyph unicode="T" horiz-adv-x="1284" d="M68 1065l32 387h1246l-33 -393q-142 0 -234 28q-13 70 -13 139q0 17 1 34h-217l-76 -1043q103 -7 195 -29q6 -29 6 -74q-1 -10 -1 -20q-2 -60 -9 -94h-736q4 37 24 93t38 89q83 24 170 35l92 1043h-209q-16 -88 -43 -166q-86 -29 -233 -29z" />
<glyph unicode="U" horiz-adv-x="1468" d="M96 1452h592q1 -10 1 -23q-1 -27 -5 -71q-6 -62 -16 -94q-67 -19 -140 -23l-49 -678q-2 -25 -2 -71q0 -164 62.5 -245t195.5 -81q158 0 241 107t99 290l58 676q-69 7 -121 25q-1 17 -1 39q-1 27 1 59q4 60 14 90h487q1 -10 1 -23q0 -27 -4 -71q-6 -62 -17 -94 q-54 -19 -125 -23l-49 -663q-11 -141 -54 -252t-120.5 -194.5t-198.5 -128t-280 -44.5q-256 0 -379 122t-123 370q0 30 4 96l59 698q-76 8 -129 23q-7 52 -7 102q0 42 5 82z" />
<glyph unicode="V" horiz-adv-x="1435" d="M78 1452h635q-4 -37 -22 -96t-36 -101q-22 -6 -74 -11t-79 -5q58 -114 80 -215l98 -428q39 -167 41 -283h24q30 139 89 283l167 422q51 129 119 225q-71 4 -135 21q-9 32 -16.5 92t-7.5 96h559q-13 -116 -47 -197q-51 -12 -111 -16l-582 -1264h-245l-332 1266 q-47 6 -103 25q-22 82 -22 186z" />
<glyph unicode="W" horiz-adv-x="2062" d="M61 1452h594q-12 -104 -51 -197q-43 -16 -135 -16q35 -71 61 -213l56 -354q30 -216 30 -412h23q4 78 27.5 191.5t50.5 197.5l287 821h280l113 -782q18 -110 18 -412h25q13 97 36 204t46 169l143 377q50 133 104 215q-53 3 -112 21q-21 103 -21 190h502q-13 -116 -47 -197 q-49 -13 -104 -16l-506 -1262h-262l-111 848q-16 141 -16 353h-25q-20 -210 -68 -344l-297 -859h-290l-234 1266q-64 12 -98 25q-19 69 -19 186z" />
<glyph unicode="X" horiz-adv-x="1486" d="M-41 0q15 96 61 182q50 17 121 27l422 573l-262 455q-58 9 -115 29q-24 91 -24 186h637q-5 -39 -21 -98.5t-33 -98.5q-43 -12 -114 -16q20 -17 48.5 -54t43.5 -65l119 -215l139 232q26 48 86 108q-44 3 -88 21q-21 86 -21 186h515q-5 -42 -21.5 -102t-34.5 -95 q-57 -13 -106 -16l-367 -514l307 -508q48 -3 129 -24q19 -107 19 -193h-635q15 87 57 188q49 14 101 19q-42 34 -103 141l-139 236l-133 -222q-40 -64 -127 -151q50 -3 110 -21q19 -86 19 -190h-590z" />
<glyph unicode="Y" horiz-adv-x="1314" d="M68 1452h608q-9 -81 -49 -197q-44 -11 -121 -16q32 -28 61 -104l78 -201q42 -110 45 -211h25q10 50 33.5 110t46.5 99l131 217q26 45 80 92q-56 7 -97 25q-18 92 -18 186h520q-13 -116 -47 -197q-52 -13 -107 -16l-464 -694l-23 -328q103 -7 195 -29q5 -26 5 -65v-30 q-3 -60 -12 -93h-731q4 36 24.5 92t39.5 90q81 24 170 35l28 318l-309 706q-47 6 -98 25q-15 60 -15 146q0 19 1 40z" />
<glyph unicode="Z" horiz-adv-x="1261" d="M20 0l13 182l790 1051v24h-381q-22 -118 -45 -192q-122 -27 -250 -27l37 414h1039l-17 -182l-768 -1045v-24h418q12 55 53 200q39 16 113 26.5t133 10.5l-37 -438h-1098z" />
<glyph unicode="[" horiz-adv-x="688" d="M63 -434l193 2040h426q1 -30 -8.5 -89.5t-20.5 -93.5q-65 -14 -133 -18l-139 -1641q94 -9 160 -28q5 -28 -1 -83.5t-16 -86.5h-461z" />
<glyph unicode="\" horiz-adv-x="870" d="M-25 1485q34 35 99 75.5t114 51.5l545 -1897q-37 -22 -119 -47t-129 -30z" />
<glyph unicode="]" horiz-adv-x="696" d="M-84 -434q12 95 41 176q60 14 154 22l155 1643q-63 3 -129 16q-3 32 3 93.5t16 89.5h411l-176 -2040h-475z" />
<glyph unicode="^" d="M139 776l436 627l193 20l319 -671q-42 -32 -106.5 -67t-112.5 -48l-157 342q-16 38 -32.5 98.5t-19.5 102.5h-24q-33 -107 -92 -195l-258 -375q-42 28 -84.5 78t-61.5 88z" />
<glyph unicode="_" horiz-adv-x="1024" d="M-57 -510q10 118 47 209h1061q3 -44 -1.5 -105t-17.5 -104h-1089z" />
<glyph unicode="`" horiz-adv-x="890" d="M186 1505q40 32 124 59t145 27l211 -393q-29 -24 -86 -44.5t-93 -20.5z" />
<glyph unicode="a" horiz-adv-x="1103" d="M23 354q0 125 38.5 245.5t112.5 215.5q164 209 447 209q95 0 184.5 -30t157.5 -76l-82 -691q0 -18 8 -34l143 14q0 -36 -17.5 -93.5t-37.5 -90.5q-52 -22 -151.5 -40t-163.5 -18q-42 73 -54 166h-18q-42 -76 -113.5 -121t-167.5 -45q-129 0 -207.5 96.5t-78.5 292.5z M319 375q0 -193 103 -193q92 0 168 101l80 548q-30 9 -70 9q-56 0 -109.5 -35.5t-89.5 -89.5q-40 -60 -61 -156.5t-21 -183.5z" />
<glyph unicode="b" horiz-adv-x="1114" d="M47 37l156 1243l-140 -14q0 34 17 96.5t37 81.5q97 57 260 57q60 0 127 -18l-29 -299q-13 -149 -67 -326h30q27 72 96.5 119t176.5 47q56 0 108 -22.5t96 -66.5t70.5 -121t26.5 -175q0 -137 -45 -278.5t-121 -225.5q-156 -170 -410 -170q-166 0 -389 72zM356 174 q30 -12 82 -12q49 0 99.5 21t80.5 57q45 53 69 147.5t24 198.5q0 225 -113 225q-49 0 -100 -35.5t-84 -85.5z" />
<glyph unicode="c" horiz-adv-x="985" d="M33 358q0 140 39 265.5t116 218.5q72 85 178 133.5t232 48.5q167 0 313 -90q0 -153 -69 -301q-53 0 -120.5 17t-103.5 44l15 127q-27 10 -62 10q-101 0 -159 -88q-42 -63 -62 -157.5t-20 -182.5q0 -104 41.5 -154t126.5 -50q75 0 169 25t162 59q0 -44 -20 -105t-47 -100 q-155 -113 -328 -113q-199 0 -300 103.5t-101 289.5z" />
<glyph unicode="d" horiz-adv-x="1120" d="M18 348q0 121 38 244.5t106 220.5q64 93 176 152t231 59q82 0 142 -29l39 285l-140 -14q0 34 17 96.5t37 81.5q97 57 260 57q58 0 125 -18l-146 -1256q0 -18 8 -34l144 14q0 -36 -17.5 -93.5t-38.5 -90.5q-52 -22 -151.5 -40t-163.5 -18q-41 71 -53 166h-19 q-44 -76 -117 -121t-171 -45q-137 0 -221.5 95t-84.5 288zM322 375q0 -104 28 -148.5t84 -44.5q96 0 182 99l70 542q-47 13 -82 13q-58 0 -109.5 -31t-84.5 -82q-44 -64 -66 -160.5t-22 -187.5z" />
<glyph unicode="e" horiz-adv-x="962" d="M23 352q0 132 39.5 265.5t113.5 226.5q146 180 389 180q151 0 233.5 -69.5t82.5 -194.5q0 -52 -15 -98t-54.5 -92.5t-101.5 -81.5t-163 -60.5t-232 -34.5v-26q0 -89 34 -126.5t104 -37.5q85 0 187.5 25.5t174.5 62.5q0 -42 -18 -103.5t-41 -101.5q-68 -51 -162 -86 t-203 -35q-368 0 -368 387zM334 578q83 6 139 23t81.5 43t34.5 50.5t9 55.5q0 92 -72 92q-41 0 -79 -29t-64 -74q-36 -57 -49 -161z" />
<glyph unicode="f" horiz-adv-x="753" d="M2 786q6 46 23.5 100.5t35.5 84.5q69 30 129 41l13 90q15 107 57.5 188t104.5 128.5t135.5 71t158.5 23.5q119 0 265 -49q0 -61 -21 -147.5t-49 -145.5q-52 0 -116.5 18t-102.5 42l12 94q-15 6 -31 6q-51 0 -90.5 -56t-52.5 -167l-14 -119h268q3 -25 3 -62q0 -18 -1 -39 q-2 -62 -10 -102h-283l-106 -1077q-72 -14 -168 -14q-81 0 -127 14l133 1077h-166z" />
<glyph unicode="g" horiz-adv-x="1044" d="M-8 -287q0 58 14 105q83 -50 171 -77.5t157 -27.5q62 0 105 17t68 51t38 72.5t20 93.5q13 113 62 223h-33q-40 -84 -111.5 -134t-167.5 -50q-138 0 -218.5 93.5t-80.5 287.5q0 123 39 240.5t113 211.5q163 205 446 205q95 0 185.5 -30t158.5 -76l-94 -883 q-10 -95 -30 -171.5t-59.5 -147.5t-96 -119t-142.5 -76.5t-196 -28.5q-163 0 -315 49q-33 81 -33 172zM313 389q0 -102 28.5 -143t86.5 -41q50 0 102 42.5t91 119.5l45 464q-30 9 -72 9q-56 0 -109.5 -34.5t-89.5 -86.5q-40 -59 -61 -152.5t-21 -177.5z" />
<glyph unicode="h" horiz-adv-x="1153" d="M43 8l172 1272l-139 -14q0 35 16.5 97.5t36.5 80.5q97 57 260 57q56 0 123 -18l-31 -295q-15 -153 -69 -332h30q106 168 289 168q53 0 98 -14.5t84 -46t61.5 -88.5t22.5 -134q0 -33 -4 -80t-12 -110t-14 -106t-18 -119.5t-15 -98.5q0 -18 8 -34l150 14q0 -36 -17.5 -93.5 t-38.5 -90.5q-52 -22 -151.5 -40t-163.5 -18q-30 29 -62 91t-32 98q75 392 75 534q0 127 -92 127q-52 0 -102.5 -44.5t-87.5 -104.5l-72 -658q-79 -14 -174 -14q-82 0 -131 14z" />
<glyph unicode="i" horiz-adv-x="602" d="M18 776q0 33 16.5 96t35.5 82q99 58 262 58q57 0 127 -19l-90 -766q0 -18 8 -34l143 14q0 -36 -17.5 -93.5t-37.5 -90.5q-53 -22 -150 -40t-161 -18q-31 29 -63 91.5t-32 97.5l103 634zM172 1391q0 76 50.5 126t125.5 50q78 0 125 -46.5t47 -129.5q0 -87 -48.5 -138 t-123.5 -51q-176 0 -176 189z" />
<glyph unicode="j" horiz-adv-x="571" d="M-180 -362q97 100 174 256t100 329l76 565l-143 -12q0 33 16.5 96.5t34.5 81.5q99 58 262 58q57 0 127 -19l-78 -694q-47 -438 -424 -784q-40 18 -82 53t-63 70zM156 1391q0 76 50.5 126t125.5 50q78 0 125 -46.5t47 -129.5q0 -87 -48.5 -138t-123.5 -51q-176 0 -176 189 z" />
<glyph unicode="k" horiz-adv-x="1071" d="M37 8l158 1272l-140 -14q0 34 17 96.5t37 81.5q97 57 260 57q60 0 127 -18l-103 -961q179 113 303 246q0 21 -8 37l-131 -6q5 45 26 100.5t46 77.5q41 16 130.5 25.5t149.5 9.5q26 -23 59 -96t33 -113q-73 -90 -147 -163t-172 -138q78 -163 192 -318l121 15 q0 -39 -17 -102.5t-38 -102.5q-80 -30 -240 -43q-116 135 -245 424q-37 -21 -78 -37l-35 -330q-79 -14 -174 -14q-82 0 -131 14z" />
<glyph unicode="l" horiz-adv-x="583" d="M47 154l152 1126l-140 -14q0 34 17 96.5t37 81.5q97 57 260 57q60 0 127 -18l-144 -1256q0 -16 9 -34l143 14q0 -36 -17.5 -93.5t-37.5 -90.5q-53 -22 -150 -40t-162 -18q-30 29 -62 91t-32 98z" />
<glyph unicode="m" horiz-adv-x="1705" d="M27 776q0 33 16.5 96.5t34.5 81.5q89 58 219 58q56 0 115 -19l-19 -176h31q98 207 303 207q93 0 159 -48.5t85 -150.5h18q88 199 293 199q52 0 96.5 -14.5t83 -46t60.5 -88.5t22 -134q0 -33 -4 -80t-12 -110t-14 -106t-18 -119.5t-15 -98.5q0 -18 8 -34l149 14 q0 -36 -17.5 -93.5t-37.5 -90.5q-52 -22 -151.5 -40t-163.5 -18q-30 29 -62 91t-32 98q75 392 75 534q0 127 -90 127q-47 0 -95 -40.5t-81 -96.5l-76 -670q-79 -14 -168 -14q-83 0 -129 14q36 215 62 414.5t26 265.5q0 59 -24 93t-72 34q-45 0 -91 -42t-79 -97l-74 -668 q-79 -14 -174 -14q-82 0 -131 14l117 780z" />
<glyph unicode="n" horiz-adv-x="1155" d="M25 776q0 33 16.5 96.5t34.5 81.5q89 58 219 58q56 0 115 -19l-19 -176h31q102 207 311 207q53 0 98 -14.5t84 -46t61.5 -88.5t22.5 -134q0 -33 -4 -80t-12 -110t-14 -106t-18 -119.5t-15 -98.5q0 -18 8 -34l150 14q0 -36 -17.5 -93.5t-38.5 -90.5q-52 -22 -151.5 -40 t-163.5 -18q-30 29 -62 91t-32 98q76 397 76 534q0 127 -93 127q-49 0 -98.5 -41.5t-83.5 -97.5l-74 -668q-79 -14 -174 -14q-82 0 -131 14l117 780z" />
<glyph unicode="o" horiz-adv-x="1067" d="M33 395q0 208 88 365q69 123 186 193.5t275 70.5q193 0 295 -108.5t102 -321.5q0 -228 -105 -393q-69 -110 -182.5 -173t-265.5 -63q-194 0 -293.5 108t-99.5 322zM336 395q0 -124 31.5 -179.5t97.5 -55.5q109 0 164 127q49 111 49 301q0 128 -28.5 185.5t-94.5 57.5 q-107 0 -166 -131q-53 -116 -53 -305z" />
<glyph unicode="p" horiz-adv-x="1105" d="M-12 -465l168 1253l-144 -12q0 33 16.5 96.5t34.5 81.5q89 58 220 58q55 0 114 -19l-18 -176h31q99 207 313 207q131 0 213 -98t82 -295q0 -136 -40.5 -271.5t-115.5 -224.5q-65 -77 -165.5 -123.5t-215.5 -46.5q-75 0 -145 25l-43 -455q-79 -14 -174 -14q-82 0 -131 14z M356 172q32 -12 78 -12q128 0 193 80q51 62 73.5 160t22.5 200q0 117 -30.5 165t-92.5 48q-55 0 -100 -35.5t-88 -111.5z" />
<glyph unicode="q" horiz-adv-x="1083" d="M29 354q0 126 39.5 246t115.5 215q167 209 451 209q96 0 187 -30t159 -76l-113 -1164q0 -17 9 -35l143 15q0 -37 -17.5 -95t-37.5 -90q-52 -22 -147.5 -39.5t-158.5 -17.5q-30 29 -61 91t-31 98l21 253q3 47 21 112.5t38 107.5h-33q-39 -86 -110.5 -137.5t-167.5 -51.5 q-141 0 -224 95.5t-83 293.5zM330 373q0 -105 29.5 -148t89.5 -43q51 0 102 44t90 124l47 481q-30 9 -70 9q-58 0 -113 -35.5t-91 -89.5q-40 -62 -62 -159t-22 -183z" />
<glyph unicode="r" horiz-adv-x="802" d="M4 776q0 33 16.5 96.5t34.5 81.5q89 58 219 58q56 0 115 -19l-22 -217h30q68 248 269 248q56 0 100 -14q20 -58 20 -136q0 -90 -22 -145q-63 37 -146 37q-71 0 -127 -45.5t-90 -120.5l-55 -592q-75 -14 -172 -14q-85 0 -131 14l104 780z" />
<glyph unicode="s" horiz-adv-x="913" d="M-8 190q31 48 113.5 78.5t162.5 30.5q4 -71 37.5 -111.5t81.5 -40.5q43 0 77 30t34 77q0 29 -21.5 53.5t-55.5 44.5t-75.5 41.5t-82.5 50t-75 63.5t-55.5 89t-21.5 119q0 136 111 222.5t294 86.5q147 0 303 -70q-2 -56 -17.5 -133.5t-37.5 -132.5q-57 0 -123 17t-100 40 l8 86q-28 17 -64 17q-39 0 -67.5 -25.5t-28.5 -66.5q0 -28 22 -53.5t57 -46.5t77.5 -44t85.5 -52t78 -62.5t57 -83t22 -107.5q0 -71 -25 -129t-67.5 -97t-100.5 -65.5t-122 -38.5t-133 -12q-161 0 -251.5 55t-96.5 170z" />
<glyph unicode="t" horiz-adv-x="776" d="M-4 786q6 46 23.5 100.5t35.5 84.5q65 30 123 41l64 217q38 20 115.5 36.5t134.5 16.5l-35 -293h276q3 -25 3 -62q0 -19 -1 -39q-2 -62 -10 -102h-295l-45 -444q-2 -20 -2 -37q-1 -45 15 -69q22 -33 89 -33q78 0 191 37q0 -46 -20 -110t-48 -101q-134 -64 -258 -64 q-272 0 -272 260q0 72 22.5 239t51.5 322h-158z" />
<glyph unicode="u" horiz-adv-x="1159" d="M20 776q0 33 16.5 96t35.5 82q99 58 262 58q57 0 127 -19q-74 -562 -74 -692q0 -127 82 -127q48 0 96 35t82 82l68 497l-127 -10q0 33 16 95t35 81q96 58 252 58q57 0 123 -19l-74 -766q0 -18 8 -34l142 14q0 -36 -17.5 -93.5t-38.5 -90.5q-52 -22 -151 -40t-162 -18 q-41 71 -53 176h-19q-100 -176 -305 -176q-51 0 -94.5 14.5t-81.5 46t-60 88.5t-22 134q0 144 78 540z" />
<glyph unicode="v" horiz-adv-x="1011" d="M-51 780q0 34 14.5 98.5t30.5 84.5q96 49 221 49q57 0 119 -19l86 -532q24 -158 24 -250h25q140 309 221 561q0 15 -8 35l-143 -12q3 46 21.5 102.5t41.5 79.5q41 17 136 32t145 15q27 -21 62.5 -92.5t35.5 -108.5q-137 -340 -469 -874l-276 43l-162 801z" />
<glyph unicode="w" horiz-adv-x="1667" d="M-18 780q0 34 14.5 98.5t30.5 84.5q103 49 223 49q61 0 123 -19l49 -518q10 -97 10 -264h25q129 417 215 778l387 27l67 -533q19 -148 19 -272h24q117 296 195 565q0 15 -8 35l-129 -10q3 46 21.5 102.5t41.5 79.5q36 14 117.5 27.5t122.5 13.5q27 -21 63.5 -92.5 t36.5 -108.5q-158 -398 -411 -874l-312 47l-69 762h-25q-114 -404 -264 -809l-340 47l-103 797z" />
<glyph unicode="x" horiz-adv-x="1089" d="M-8 164q0 56 10 98l127 -51q56 51 126 127.5t122 144.5q-61 135 -129 314l-123 -19q0 34 12.5 95.5t26.5 84.5q85 54 219 54q57 0 100 -11q14 -35 50 -138.5t61 -162.5h18q70 128 127 281q65 16 158 16q95 0 158 -16q-116 -194 -353 -506q36 -91 81 -173.5t73 -115.5 l154 21q0 -40 -14.5 -98.5t-34.5 -96.5q-72 -34 -279 -59q-37 30 -88 123t-90 192h-19q-89 -140 -252 -315q-145 40 -225 96q-16 44 -16 115z" />
<glyph unicode="y" horiz-adv-x="1001" d="M-66 -233q240 71 359 206l-217 830l-125 -8q0 32 16.5 96t32.5 84q91 43 219 43q52 0 113 -21l114 -524q30 -140 33 -262h25q84 215 182 555q0 15 -8 35l-139 -8q5 46 24.5 101.5t42.5 78.5q42 16 134 27.5t145 11.5q24 -21 55 -93t31 -110q-98 -258 -239 -535.5 t-240 -396.5q-109 -128 -222 -221t-250 -150q-31 40 -58.5 123t-27.5 138z" />
<glyph unicode="z" horiz-adv-x="993" d="M10 135l527 651v25h-183q-24 -75 -63 -137q-48 0 -118.5 11.5t-102.5 25.5l43 279h798l13 -140l-529 -651v-25q91 3 228 14q20 72 53 136q44 8 113 9h12q61 0 108 -9l-61 -324h-825z" />
<glyph unicode="{" horiz-adv-x="716" d="M61 520q3 36 18.5 91.5t29.5 90.5q81 8 109 54t38 147l35 361q7 82 32.5 144.5t77 114t141 81t214.5 34.5q-5 -44 -22 -102t-38 -90q-115 -18 -127 -172l-28 -354q-19 -231 -160 -297v-19q71 -30 98.5 -97.5t18.5 -184.5l-35 -406q-15 -177 117 -186q5 -31 -4.5 -98.5 t-22.5 -94.5q-122 6 -203 33t-123 74.5t-56 105.5t-7 137l35 408q10 116 -16 167t-122 58z" />
<glyph unicode="|" horiz-adv-x="602" d="M66 -387l184 1943q107 29 239 29l-170 -1972q-40 -12 -122 -12q-81 0 -131 12z" />
<glyph unicode="}" horiz-adv-x="722" d="M-59.5 -370q2.5 65 12.5 96q61 3 102 46.5t47 114.5l35 412q11 120 46 191.5t110 111.5l2 19q-65 40 -88 108.5t-14 173.5l30 352q9 97 -23 142t-112 53q3 35 25.5 94t44.5 92q88 -7 152.5 -30t103 -56t60 -79.5t27 -93.5t1.5 -103l-29 -365q-5 -42 -3 -79t11 -64.5 t37.5 -44.5t77.5 -21q16 -75 16 -184q-91 -6 -131.5 -51.5t-48.5 -147.5l-33 -415q-5 -66 -20 -117.5t-47 -98t-81.5 -77.5t-125 -51t-176.5 -25q-11 32 -8.5 97z" />
<glyph unicode="~" d="M100 537q52 77 135 124.5t173 47.5q51 0 100 -15.5t82 -34t78 -34t88 -15.5q48 0 89.5 25.5t63.5 60.5q35 -7 76 -31t66 -51q-55 -100 -151 -164.5t-198 -64.5q-58 0 -108 15.5t-79 33.5t-70.5 33.5t-86.5 15.5q-50 0 -96.5 -28t-71.5 -66q-27 21 -54 66t-36 82z" />
<glyph unicode="&#xa1;" horiz-adv-x="595" d="M-4 -424l162 961q65 30 157 30q35 0 58 -6l-13 -985q-60 -18 -180 -18q-121 0 -184 18zM127 881q0 74 50 123t124 49q77 0 122.5 -44t45.5 -128t-47 -132.5t-121 -48.5q-174 0 -174 181z" />
<glyph unicode="&#xa2;" horiz-adv-x="1294" d="M205 442q0 125 44 256t120 215q115 125 299 166l18 129q47 12 124 21.5t136 9.5l-22 -158q115 -20 211 -77q0 -152 -70 -302q-52 0 -119.5 17.5t-103.5 44.5l14 127q-33 10 -74 10q-116 0 -186 -90q-86 -111 -86 -315q0 -122 45 -175t147 -53q77 0 177.5 25.5t173.5 58.5 q0 -43 -20.5 -104.5t-47.5 -100.5q-100 -67 -194 -92l-19 -174q-34 -10 -131 -10q-92 0 -133 10l18 160q-160 26 -240.5 130.5t-80.5 270.5z" />
<glyph unicode="&#xa3;" horiz-adv-x="1294" d="M68 0q16 86 51 162q47 32 123 59q52 78 74 136.5t22 125.5h-162q6 82 37 170h119q-6 41 -6 86q0 192 125 302t364 110q171 0 334 -70q0 -70 -17.5 -155.5t-41.5 -141.5q-122 6 -218 64l13 96q-40 19 -88 19q-56 0 -93.5 -17.5t-57 -51t-27 -72t-7.5 -91.5q0 -43 6 -78 h357q8 -91 -14 -170h-345q0 -81 -43.5 -159t-99.5 -111l-2 -18h356q18 58 52 116q115 25 215 19l-37 -330h-989z" />
<glyph unicode="&#xa4;" horiz-adv-x="1294" d="M88 94l160 164q-51 80 -51 207q0 100 30.5 193t89.5 157l-118 158q30 36 77 73.5t91 53.5l102 -168q106 53 231 53q112 0 207 -45l135 156q41 -13 84.5 -48t63.5 -67l-154 -156q58 -89 58 -209q0 -102 -37 -200.5t-99 -163.5l119 -158q-26 -37 -70.5 -66.5t-95.5 -39.5 l-100 153q-100 -47 -225 -47q-128 0 -217 47l-144 -159q-43 13 -80.5 44.5t-56.5 67.5zM461 502q0 -95 40 -151t111 -56q91 0 153 86t62 205q0 92 -41 145t-114 53q-94 0 -152.5 -84t-58.5 -198z" />
<glyph unicode="&#xa5;" horiz-adv-x="1294" d="M137 1104h563q-10 -105 -45 -199q-36 -20 -98 -33q33 -33 47 -77l27 -76q29 -81 37 -135h22q26 79 68 135l53 78q36 50 70 77q-49 22 -64 37q-20 105 -6 193h477q-5 -46 -22 -107.5t-37 -97.5q-45 -18 -105 -25l-153 -198h135q8 -80 -12 -156h-244l-57 -76l-5 -32h281 q8 -80 -12 -156h-287l-6 -53q36 -5 92 -18.5t82 -24.5q4 -30 1 -80t-11 -80h-680q13 60 55 147q56 30 150 58l6 51h-295q6 78 35 156h278v2l-57 106h-219q6 78 35 156h102l-109 203q-48 13 -82 34q-20 120 -10 191z" />
<glyph unicode="&#xa6;" horiz-adv-x="579" d="M57 -387l76 801q126 32 254 32l-72 -833q-41 -12 -125 -12t-133 12zM172 813l68 741q126 33 245 33l-63 -774q-40 -12 -123 -12t-127 12z" />
<glyph unicode="&#xa7;" horiz-adv-x="1099" d="M-6 -143q33 43 122 75.5t167 32.5q15 -180 155 -180q76 0 123 46t47 116q0 37 -21 69t-56 54t-79 46t-90.5 45.5t-90.5 51.5t-79 63t-56 82.5t-21 108.5q0 54 21.5 114t51.5 95q45 27 125 44t144 17q-70 -92 -70 -198q0 -43 27.5 -79t71.5 -62.5t97 -53t106 -58t97 -70 t71.5 -96.5t27.5 -130q0 -100 -38.5 -177.5t-107.5 -125.5t-159 -72.5t-197 -24.5q-177 0 -278.5 66.5t-110.5 200.5zM217 1137q0 167 115 263.5t305 96.5q188 0 358 -86q-19 -177 -55 -295q-57 0 -122 14t-101 35l12 121q-52 27 -106 27q-59 0 -94 -34.5t-35 -90.5 q0 -38 25.5 -70t66 -56t90 -48.5t99 -55.5t90 -68t66 -93.5t25.5 -126.5q0 -78 -40 -158.5t-101 -130.5q-40 8 -94 42.5t-82 63.5q41 59 41 140q0 40 -25.5 73.5t-66.5 59t-90 51t-98.5 55t-90.5 65t-66.5 88.5t-25.5 118z" />
<glyph unicode="&#xa8;" horiz-adv-x="1085" d="M133 1333q0 67 45 111.5t111 44.5q70 0 111.5 -41.5t41.5 -114.5q0 -78 -42.5 -123t-110.5 -45q-76 0 -116 42.5t-40 125.5zM653 1333q0 67 45 111.5t111 44.5q70 0 112 -41.5t42 -114.5q0 -78 -43 -123t-111 -45q-76 0 -116 42.5t-40 125.5z" />
<glyph unicode="&#xa9;" horiz-adv-x="1644" d="M84 600q0 171 67 327t179 268.5t264.5 179.5t318.5 67q190 0 338 -85t228 -235t80 -338q0 -168 -66.5 -320.5t-179 -263t-267 -176t-323.5 -65.5q-289 0 -464 175.5t-175 465.5zM264 627q0 -224 136 -367t354 -143q126 0 241 52t198.5 139t133 206t49.5 248 q0 145 -60 264t-172 189.5t-255 70.5q-122 0 -237 -53t-200 -141.5t-136.5 -211t-51.5 -253.5zM428 627q0 142 70 255.5t181 173.5t239 60q66 0 140.5 -16.5t123.5 -42.5q-3 -47 -20.5 -133t-33.5 -136q-54 0 -110 13t-90 33l10 100q-16 8 -49 8q-71 0 -122.5 -87.5 t-51.5 -209.5q0 -102 41.5 -144t126.5 -42q47 0 111 9.5t108 25.5q0 -32 -18 -81.5t-40 -82.5q-130 -62 -268 -62q-163 0 -255.5 97.5t-92.5 261.5z" />
<glyph unicode="&#xaa;" horiz-adv-x="843" d="M49 391q6 88 39 174h625q8 -90 -15 -174h-649zM61 897q0 84 26.5 167t76.5 142q116 137 311 137q143 0 260 -69l-51 -426q0 -17 8 -29l92 10q0 -28 -11.5 -73t-24.5 -70q-35 -15 -111.5 -28t-126.5 -13q-27 46 -35 109h-12q-29 -50 -79.5 -79.5t-115.5 -29.5 q-94 0 -150.5 62.5t-56.5 189.5zM285 924q0 -115 73 -115q58 0 105 59l51 332q-21 6 -43 6q-37 0 -71.5 -22t-57.5 -56q-57 -77 -57 -204z" />
<glyph unicode="&#xab;" horiz-adv-x="1267" d="M66 528q107 201 260 402q64 23 152 39t157 16q-144 -238 -242 -457q41 -209 119 -403q-45 -25 -120.5 -45t-131.5 -23q-134 264 -194 471zM600 535q105 198 260 401q64 23 150.5 39t154.5 16q-130 -214 -241 -456q43 -216 118 -404q-45 -25 -118.5 -46t-126.5 -22 q-136 261 -197 472z" />
<glyph unicode="&#xac;" d="M92 453q10 121 51 225h897l-47 -428q-44 -14 -125 -14q-82 0 -143 14l31 203h-664z" />
<glyph unicode="&#xad;" d="M74 436q10 125 51 228h905q5 -46 0 -112.5t-18 -115.5h-938z" />
<glyph unicode="&#xae;" horiz-adv-x="1155" d="M74 1051q0 257 173.5 427.5t436.5 170.5q222 0 343.5 -120.5t121.5 -330.5q0 -167 -79 -305t-219.5 -217.5t-313.5 -79.5q-223 0 -343 121t-120 334zM213 1071q0 -164 89 -262t257 -98q127 0 229.5 61.5t159 166t56.5 230.5q0 164 -87.5 262.5t-254.5 98.5 q-128 0 -231.5 -63t-160.5 -168t-57 -228zM313 881q4 23 31 86q36 16 57 18l31 281q-21 0 -51 6q-4 49 10 100q98 10 252 10q97 0 157 -36.5t60 -102.5q0 -112 -104 -156q24 -61 53 -102l61 6q-7 -51 -30 -100q-84 -23 -154 -23q-62 113 -84 201q-21 0 -33 4l-10 -86 q25 -4 47 -18q0 -46 -10 -88h-283zM578 1176q30 -5 53 -5q29 0 48 14.5t19 41.5q0 43 -67 43h-43z" />
<glyph unicode="&#xaf;" horiz-adv-x="1085" d="M209 1223q10 118 47 209h641q5 -39 0.5 -101.5t-16.5 -107.5h-672z" />
<glyph unicode="&#xb0;" horiz-adv-x="802" d="M104 995q0 157 97.5 252.5t255.5 95.5q130 0 205 -63t75 -180q0 -166 -94 -259t-258 -93q-138 0 -209.5 63t-71.5 184zM322 1030q0 -51 23 -81.5t63 -30.5q50 0 81 45t31 112q0 44 -22.5 71.5t-61.5 27.5q-52 0 -83 -41t-31 -103z" />
<glyph unicode="&#xb1;" d="M51 0q11 110 53 211h826q5 -30 0.5 -98t-15.5 -113h-864zM129 662q10 94 51 204h285l45 324q104 22 246 22l-37 -346h301q5 -28 1 -94.5t-15 -109.5h-308l-34 -336q-58 -15 -125 -15q-83 0 -136 15l41 336h-315z" />
<glyph unicode="&#xb2;" horiz-adv-x="788" d="M53 772l19 156q32 28 84.5 67t97 70.5t93.5 71.5t83.5 75t57 75t22.5 77q0 66 -82 66q-22 0 -54.5 -5.5t-45.5 -11.5l-6 -90q-36 -13 -92.5 -21t-96.5 -8q-10 76 -10 213q167 80 346 80q130 0 206.5 -44.5t76.5 -139.5q0 -42 -16.5 -84t-41.5 -77t-65.5 -71.5t-76 -63 t-86 -57.5t-83.5 -49.5t-80 -42.5v-14q168 0 418 17q-13 -102 -39 -189h-629z" />
<glyph unicode="&#xb3;" horiz-adv-x="788" d="M123.5 879q-5.5 60 3.5 102q47 -23 120 -38t124 -15t82.5 19.5t31.5 60.5q0 47 -53.5 64.5t-195.5 17.5q0 37 9.5 87t22.5 80q122 2 185 27t63 84q0 57 -63 57q-36 0 -60 -8l-6 -67q-31 -12 -86.5 -19.5t-93.5 -7.5q-14 85 -14 205q63 26 150.5 42.5t150.5 16.5 q70 0 128.5 -19.5t97 -63.5t38.5 -107q0 -71 -45.5 -124.5t-118.5 -72.5v-18q137 -27 137 -160q0 -86 -56 -147.5t-141 -89t-188 -27.5q-120 0 -203 26q-14 35 -19.5 95z" />
<glyph unicode="&#xb4;" horiz-adv-x="890" d="M203 1231l289 346q62 0 147 -27.5t117 -64.5l-420 -369q-37 13 -77.5 48.5t-55.5 66.5z" />
<glyph unicode="&#xb5;" horiz-adv-x="1273" d="M-27 -496q141 928 207 1477q42 15 140.5 26t152.5 11q-70 -344 -70 -541q0 -147 40.5 -223t117.5 -76q59 0 114 40t97 101q0 133 25 318.5t57 345.5q43 16 127 25.5t139 9.5q-90 -445 -90 -678q0 -91 17 -126.5t49 -35.5q59 0 104 25q-2 -40 -19.5 -99t-37.5 -88 q-72 -51 -168 -51q-83 0 -128 57t-48 134h-19q-18 -36 -37.5 -64.5t-51.5 -60t-79.5 -49t-105.5 -17.5q-197 0 -232 187h-24q29 -242 29 -461q0 -97 -17 -258q-84 3 -165 23t-124 48z" />
<glyph unicode="&#xb6;" horiz-adv-x="1286" d="M33 1014q0 236 172 359.5t504 123.5q366 0 587 -18q0 -31 -5 -83.5t-11 -74.5q-43 -2 -147 -2l-125 -1305q-40 -8 -90 -8q-53 0 -107 8l125 1321q-94 11 -201 11l-139 -1512q0 -18 16 -39l568 60q0 -23 -12.5 -69.5t-24.5 -72.5q-110 -30 -330.5 -62t-316.5 -34 q-34 27 -68.5 91t-34.5 97l84 885q-50 -4 -94 -4q-64 0 -123.5 18t-111.5 55t-83.5 103t-31.5 152z" />
<glyph unicode="&#xb7;" horiz-adv-x="692" d="M176 506q0 73 47.5 118.5t122.5 45.5t120.5 -43.5t45.5 -120.5q0 -83 -45.5 -128.5t-120.5 -45.5q-170 0 -170 174z" />
<glyph unicode="&#xb8;" horiz-adv-x="890" d="M215 -371q61 8 103 38t42 77q0 65 -96 88l105 184q71 19 182 19l-49 -148q47 -11 77.5 -48t30.5 -93q0 -65 -48 -120t-117 -85.5t-142 -36.5q-29 20 -53 54.5t-35 70.5z" />
<glyph unicode="&#xb9;" horiz-adv-x="788" d="M135 772q10 74 47 143q57 17 107 23l49 455l-158 -15q13 91 51 158q187 42 363 51l-64 -651q69 -4 121 -16q9 -77 -2 -148h-514z" />
<glyph unicode="&#xba;" horiz-adv-x="849" d="M72 391q6 88 39 174h606q8 -90 -15 -174h-630zM98 944q0 158 84 262q112 137 314 137q144 0 226.5 -73t82.5 -207q0 -169 -90 -283q-110 -135 -305 -135q-150 0 -231 77.5t-81 221.5zM328 961q0 -72 26.5 -113t75.5 -41q59 0 98 51q50 65 50 186q0 63 -27.5 102.5 t-73.5 39.5q-71 0 -110 -58t-39 -167z" />
<glyph unicode="&#xbb;" horiz-adv-x="1253" d="M70 137q142 234 213 391q-48 194 -117 394q45 24 122.5 45.5t129.5 21.5q123 -239 190 -461q-101 -180 -307 -471q-58 3 -121.5 25.5t-109.5 54.5zM604 143q112 180 211 392q-42 184 -115 393q43 24 119 45.5t127 21.5q133 -260 191 -460q-113 -202 -308 -472 q-56 3 -118.5 25.5t-106.5 54.5z" />
<glyph unicode="&#xbc;" horiz-adv-x="1896" d="M92 657q10 76 47 144q52 16 107 22l49 455l-158 -14q13 90 51 157q192 44 363 52l-64 -652q69 -4 121 -16q9 -77 -2 -148h-514zM305 35l1143 1470q135 0 233 -45l-1183 -1550q-58 13 -112 49t-81 76zM1069 168l16 131l375 485h264l-49 -446h97q4 -31 0 -84t-13 -86h-98 l-16 -176q-29 -10 -111 -10q-80 0 -119 10l19 176h-365zM1303 332q35 6 77 6h72l14 125q6 61 23 123h-14l-172 -240v-14z" />
<glyph unicode="&#xbd;" horiz-adv-x="1896" d="M55 657q10 76 47 144q52 16 107 22l49 455l-158 -14q12 88 52 157q192 44 362 52l-63 -652q68 -4 120 -16q9 -77 -2 -148h-514zM225 35l1143 1470q136 0 234 -45l-1184 -1550q-58 13 -112 49t-81 76zM1116 -14l19 155q37 31 103 79.5t118.5 88t105 85.5t82 93t29.5 91 q0 65 -82 65q-64 0 -100 -16l-7 -90q-36 -13 -92 -21t-96 -8q-10 76 -10 213q167 80 346 80q130 0 206.5 -45t76.5 -140q0 -49 -20 -96.5t-59.5 -90t-79.5 -77t-98.5 -71t-97 -58.5t-94.5 -51v-14q183 0 418 16q-13 -100 -39 -188h-629z" />
<glyph unicode="&#xbe;" horiz-adv-x="1896" d="M76.5 764.5q-5.5 59.5 3.5 101.5q47 -23 120 -38t124 -15t82.5 19.5t31.5 60.5q0 47 -54 64.5t-196 17.5q0 37 10 87t23 81q123 2 185.5 26.5t62.5 83.5q0 58 -63 58q-36 0 -60 -8l-6 -68q-31 -12 -86.5 -19.5t-93.5 -7.5q-15 91 -15 205q63 26 150.5 43t150.5 17 q70 0 128.5 -19.5t97.5 -64t39 -107.5q0 -71 -45.5 -124.5t-118.5 -72.5v-18q137 -27 137 -160q0 -86 -56 -147.5t-141 -89t-188 -27.5q-117 0 -203 27q-14 35 -19.5 94.5zM270 35l1143 1470q136 0 234 -45l-1184 -1550q-58 13 -112 49t-81 76zM1014 168l16 131l375 485h264 l-49 -446h96q5 -31 1 -84.5t-13 -85.5h-98l-17 -176q-29 -10 -110 -10q-80 0 -119 10l18 176h-364zM1247 332q35 6 78 6h72l14 125q6 61 23 123h-15l-172 -240v-14z" />
<glyph unicode="&#xbf;" horiz-adv-x="931" d="M-35 -211q0 67 25 127t64.5 104.5t87.5 84t95.5 74t87 67.5t64.5 71t25 78q0 73 -33 123q46 27 113.5 49.5t121.5 26.5q33 -34 56.5 -89t23.5 -106q0 -54 -22 -104t-57.5 -89t-78 -76t-85.5 -72t-78.5 -69.5t-57.5 -76t-22 -84.5q0 -49 31 -85t98 -36q62 0 127 27l18 180 q83 46 240 59q4 -78 4 -129q0 -129 -12 -252q-89 -32 -220.5 -54.5t-232.5 -22.5q-178 0 -280.5 73t-102.5 201zM352 881q0 74 50 123t124 49q77 0 122.5 -44t45.5 -128t-47 -132.5t-121 -48.5q-174 0 -174 181z" />
<glyph unicode="&#xc0;" horiz-adv-x="1546" d="M-31 0q15 81 66 184q49 22 100 31l629 1258h221l375 -1252q58 -11 104 -31q17 -78 17 -190h-623q6 36 26.5 93t39.5 93q62 21 127 33q-28 42 -56 135l-16 58h-485l-27 -68q-28 -70 -74 -133q67 -6 133 -25q25 -98 25 -186h-582zM459 1765q36 50 108 109t127 80l410 -221 q-8 -42 -35.5 -100.5t-54.5 -88.5zM582 602h352l-72 279q-14 52 -27.5 143.5t-13.5 149.5h-24q-8 -56 -37.5 -145.5t-54.5 -147.5z" />
<glyph unicode="&#xc1;" horiz-adv-x="1546" d="M-31 0q15 81 66 184q49 22 100 31l629 1258h221l375 -1252q58 -11 104 -31q17 -78 17 -190h-623q6 36 26.5 93t39.5 93q62 21 127 33q-28 42 -56 135l-16 58h-485l-27 -68q-28 -70 -74 -133q67 -6 133 -25q25 -98 25 -186h-582zM582 602h352l-72 279q-14 52 -27.5 143.5 t-13.5 149.5h-24q-8 -56 -37.5 -145.5t-54.5 -147.5zM698 1634.5q-5 58.5 0 96.5l490 233q38 -34 77 -99.5t54 -121.5l-606 -205q-10 38 -15 96.5z" />
<glyph unicode="&#xc2;" horiz-adv-x="1546" d="M-31 0q15 81 66 184q49 22 100 31l629 1258h221l375 -1252q58 -11 104 -31q17 -78 17 -190h-623q6 36 26.5 93t39.5 93q62 21 127 33q-28 42 -56 135l-16 58h-485l-27 -68q-28 -70 -74 -133q67 -6 133 -25q25 -98 25 -186h-582zM459 1718l325 207h267l286 -221 q-15 -40 -54 -90t-73 -72l-325 166l-389 -174q-37 67 -37 184zM582 602h352l-72 279q-14 52 -27.5 143.5t-13.5 149.5h-24q-8 -56 -37.5 -145.5t-54.5 -147.5z" />
<glyph unicode="&#xc3;" horiz-adv-x="1546" d="M-31 0q15 81 66 184q49 22 100 31l629 1258h221l375 -1252q58 -11 104 -31q17 -78 17 -190h-623q6 36 26.5 93t39.5 93q62 21 127 33q-28 42 -56 135l-16 58h-485l-27 -68q-28 -70 -74 -133q67 -6 133 -25q25 -98 25 -186h-582zM406 1675q32 101 114.5 165.5t210.5 64.5 q56 0 104.5 -14.5t77 -32t69 -32t83.5 -14.5q85 0 121 84q92 0 166 -41q-7 -54 -31 -104t-65 -92.5t-106 -68t-144 -25.5q-51 0 -97.5 15t-75.5 33t-71.5 33t-85.5 15q-42 0 -74 -28.5t-45 -61.5q-46 7 -85.5 36t-65.5 68zM582 602h352l-72 279q-14 52 -27.5 143.5 t-13.5 149.5h-24q-8 -56 -37.5 -145.5t-54.5 -147.5z" />
<glyph unicode="&#xc4;" horiz-adv-x="1546" d="M-31 0q15 81 66 184q49 22 100 31l629 1258h221l375 -1252q58 -11 104 -31q17 -78 17 -190h-623q6 36 26.5 93t39.5 93q62 21 127 33q-28 42 -56 135l-16 58h-485l-27 -68q-28 -70 -74 -133q67 -6 133 -25q25 -98 25 -186h-582zM385 1731q0 69 50 114t124 45 q76 0 123 -42.5t47 -116.5q0 -79 -48 -124.5t-122 -45.5q-84 0 -129 43t-45 127zM582 602h352l-72 279q-14 52 -27.5 143.5t-13.5 149.5h-24q-8 -56 -37.5 -145.5t-54.5 -147.5zM1018 1731q0 69 50 114t124 45q76 0 123 -42.5t47 -116.5q0 -79 -48 -124.5t-122 -45.5 q-84 0 -129 43t-45 127z" />
<glyph unicode="&#xc5;" horiz-adv-x="1546" d="M-31 0q15 81 66 184q49 22 100 31l621 1241q-138 41 -138 195q0 124 86 197t234 73q121 0 185.5 -52t64.5 -157q0 -96 -53 -161.5t-146 -92.5l371 -1237q58 -11 104 -31q17 -78 17 -190h-623q6 36 26.5 93t39.5 93q62 21 127 33q-28 42 -56 135l-16 58h-485l-27 -68 q-28 -70 -74 -133q67 -6 133 -25q25 -98 25 -186h-582zM582 602h352l-72 279q-14 52 -27.5 143.5t-13.5 149.5h-24q-8 -56 -37.5 -145.5t-54.5 -147.5zM797 1671q0 -39 24.5 -60.5t67.5 -21.5q51 0 86 28.5t35 76.5q0 39 -27 59.5t-68 20.5q-53 0 -85.5 -29t-32.5 -74z" />
<glyph unicode="&#xc6;" horiz-adv-x="2045" d="M-41 0q14 89 57 184q47 21 99 31l688 1024q-91 7 -162 25q-4 31 -2 95t12 93h1346l-35 -371q-132 0 -223 31q-10 62 -10 148h-398l-28 -424h317q2 14 25 90q98 30 221 30l-29 -419q-132 -12 -219 16q-10 42 -10 94h-320l-35 -450h387q13 87 43 165q40 13 112 22t126 9 l-31 -393h-1142q5 40 21.5 97t33.5 87q53 20 139 33l25 266h-408l-92 -139q-43 -69 -107 -133q79 -8 136 -25q11 -32 17.5 -88.5t4.5 -97.5h-559zM672 670h319l49 565h-26q-63 -141 -135 -250z" />
<glyph unicode="&#xc7;" horiz-adv-x="1304" d="M74 635q0 188 65.5 350t176 272.5t258.5 173t311 62.5q218 0 397 -96q-22 -223 -74 -398q-57 0 -127.5 17.5t-113.5 42.5l18 201q-59 30 -135 30q-193 0 -320 -172.5t-127 -449.5q0 -238 97.5 -353.5t271.5 -115.5q81 0 196.5 21t207.5 56q0 -42 -20.5 -105t-47.5 -103 q-137 -72 -305 -99l-25 -82q54 -10 92.5 -51t38.5 -106q0 -62 -31.5 -114t-83 -85.5t-112 -54.5t-123.5 -27q-31 20 -57.5 57t-38.5 76q68 10 110.5 41.5t42.5 85.5q0 39 -30 63.5t-78 34.5l80 158q-240 29 -377 209t-137 461z" />
<glyph unicode="&#xc8;" horiz-adv-x="1308" d="M8 0q5 40 21.5 97t33.5 87q51 20 142 33l90 1022q-79 8 -129 25q-3 36 0 96.5t12 91.5h1082l-35 -371q-133 0 -224 31q-10 62 -10 148h-397l-29 -424h318q4 22 24 90q98 30 221 30l-28 -419q-132 -12 -219 16q-11 46 -11 94h-319l-35 -450h387q13 87 43 165q40 13 112 22 t126 9l-31 -393h-1145zM332 1765q36 50 108 109t127 80l410 -221q-8 -42 -35.5 -100.5t-54.5 -88.5z" />
<glyph unicode="&#xc9;" horiz-adv-x="1308" d="M8 0q5 40 21.5 97t33.5 87q51 20 142 33l90 1022q-79 8 -129 25q-3 36 0 96.5t12 91.5h1082l-35 -371q-133 0 -224 31q-10 62 -10 148h-397l-29 -424h318q4 22 24 90q98 30 221 30l-28 -419q-132 -12 -219 16q-11 46 -11 94h-319l-35 -450h387q13 87 43 165q40 13 112 22 t126 9l-31 -393h-1145zM608 1634.5q-5 58.5 0 96.5l490 233q38 -34 77 -99.5t54 -121.5l-606 -205q-10 38 -15 96.5z" />
<glyph unicode="&#xca;" horiz-adv-x="1308" d="M8 0q5 40 21.5 97t33.5 87q51 20 142 33l90 1022q-79 8 -129 25q-3 36 0 96.5t12 91.5h1082l-35 -371q-133 0 -224 31q-10 62 -10 148h-397l-29 -424h318q4 22 24 90q98 30 221 30l-28 -419q-132 -12 -219 16q-11 46 -11 94h-319l-35 -450h387q13 87 43 165q40 13 112 22 t126 9l-31 -393h-1145zM344 1718l326 207h266l287 -221q-15 -40 -54 -90t-73 -72l-326 166l-389 -174q-37 67 -37 184z" />
<glyph unicode="&#xcb;" horiz-adv-x="1308" d="M8 0q5 40 21.5 97t33.5 87q51 20 142 33l90 1022q-79 8 -129 25q-3 36 0 96.5t12 91.5h1082l-35 -371q-133 0 -224 31q-10 62 -10 148h-397l-29 -424h318q4 22 24 90q98 30 221 30l-28 -419q-132 -12 -219 16q-11 46 -11 94h-319l-35 -450h387q13 87 43 165q40 13 112 22 t126 9l-31 -393h-1145zM264 1731q0 69 50 114t124 45q76 0 123 -42.5t47 -116.5q0 -79 -48 -124.5t-122 -45.5q-84 0 -129 43t-45 127zM897 1731q0 69 50 114t124 45q76 0 123 -42.5t47 -116.5q0 -79 -48 -124.5t-122 -45.5q-84 0 -129 43t-45 127z" />
<glyph unicode="&#xcc;" horiz-adv-x="806" d="M10 0q6 40 23.5 97.5t34.5 86.5q51 20 141 33l96 1022q-79 8 -129 25q-3 35 1 96t13 92h586q3 -32 -3.5 -94.5t-16.5 -93.5q-71 -19 -150 -23l-84 -1024q80 -6 158 -29q5 -32 3 -94.5t-11 -93.5h-662zM53 1765q36 50 108.5 109t127.5 80l409 -221q-8 -42 -35.5 -100.5 t-54.5 -88.5z" />
<glyph unicode="&#xcd;" horiz-adv-x="806" d="M10 0q6 40 23.5 97.5t34.5 86.5q51 20 141 33l96 1022q-79 8 -129 25q-3 35 1 96t13 92h586q3 -32 -3.5 -94.5t-16.5 -93.5q-71 -19 -150 -23l-84 -1024q80 -6 158 -29q5 -32 3 -94.5t-11 -93.5h-662zM350 1634.5q-5 58.5 0 96.5l490 233q38 -34 77 -99.5t54 -121.5 l-606 -205q-10 38 -15 96.5z" />
<glyph unicode="&#xce;" horiz-adv-x="806" d="M10 0q6 40 23.5 97.5t34.5 86.5q51 20 141 33l96 1022q-79 8 -129 25q-3 35 1 96t13 92h586q3 -32 -3.5 -94.5t-16.5 -93.5q-71 -19 -150 -23l-84 -1024q80 -6 158 -29q5 -32 3 -94.5t-11 -93.5h-662zM78 1718l325 207h267l286 -221q-15 -40 -54 -90t-73 -72l-325 166 l-389 -174q-37 67 -37 184z" />
<glyph unicode="&#xcf;" horiz-adv-x="806" d="M10 0q6 40 23.5 97.5t34.5 86.5q51 20 141 33l96 1022q-79 8 -129 25q-3 35 1 96t13 92h586q3 -32 -3.5 -94.5t-16.5 -93.5q-71 -19 -150 -23l-84 -1024q80 -6 158 -29q5 -32 3 -94.5t-11 -93.5h-662zM39 1731q0 69 50 114t124 45q76 0 123 -42.5t47 -116.5 q0 -79 -48 -124.5t-122 -45.5q-84 0 -129 43t-45 127zM610 1731q0 69 50 114t124 45q76 0 123 -42.5t47 -116.5q0 -79 -48 -124.5t-122 -45.5q-84 0 -129 43t-45 127z" />
<glyph unicode="&#xd0;" horiz-adv-x="1525" d="M33 10q5 40 21.5 97.5t33.5 87.5q49 18 137 30l35 400h-139q11 107 43 190h112l37 408q-77 8 -129 18q-3 34 1.5 97.5t11.5 95.5q111 14 283 25t272 11q338 0 529.5 -160t191.5 -479q0 -164 -40.5 -303t-110.5 -238t-164.5 -169t-203 -103.5t-225.5 -33.5q-417 0 -696 26 zM537 197q72 -11 139 -11q221 0 353 157t132 443q0 241 -116.5 362.5t-319.5 121.5q-56 0 -111 -10l-32 -445h315q5 -37 0.5 -92t-14.5 -98h-316z" />
<glyph unicode="&#xd1;" horiz-adv-x="1581" d="M10 0q17 106 51 184q54 20 132 33l96 1022q-79 8 -129 25q-3 35 1 96t13 92h510l346 -799q58 -132 72 -309h24l84 895q-86 7 -149 25q-3 36 1.5 96.5t14.5 91.5h502q3 -31 -4.5 -93.5t-18.5 -94.5q-58 -19 -135 -23l-106 -1257h-328l-373 886q-27 63 -49 149t-26 150h-25 l-76 -952q77 -7 146 -29q6 -34 3 -95t-12 -93h-565zM426 1675q32 101 115 165.5t211 64.5q56 0 104.5 -14.5t77 -32t68.5 -32t83 -14.5q85 0 121 84q92 0 166 -41q-7 -54 -31 -104t-65 -92.5t-106 -68t-144 -25.5q-51 0 -97.5 15t-75.5 33t-71.5 33t-85.5 15 q-42 0 -73.5 -28.5t-44.5 -61.5q-47 7 -87 36t-65 68z" />
<glyph unicode="&#xd2;" horiz-adv-x="1458" d="M96 616q0 253 91 452.5t260 312t387 112.5q270 0 421.5 -172t151.5 -498q0 -256 -92 -452t-261.5 -304t-391.5 -108q-274 0 -420 168.5t-146 488.5zM397 1765q36 50 108.5 109t127.5 80l409 -221q-8 -42 -35.5 -100.5t-54.5 -88.5zM418 631q0 -223 72.5 -346t209.5 -123 q117 0 207.5 91t136.5 239t46 327q0 224 -74.5 348.5t-214.5 124.5q-93 0 -167.5 -55.5t-120.5 -149t-70.5 -210.5t-24.5 -246z" />
<glyph unicode="&#xd3;" horiz-adv-x="1458" d="M96 616q0 253 91 452.5t260 312t387 112.5q270 0 421.5 -172t151.5 -498q0 -256 -92 -452t-261.5 -304t-391.5 -108q-274 0 -420 168.5t-146 488.5zM418 631q0 -223 72.5 -346t209.5 -123q117 0 207.5 91t136.5 239t46 327q0 224 -74.5 348.5t-214.5 124.5 q-93 0 -167.5 -55.5t-120.5 -149t-70.5 -210.5t-24.5 -246zM685.5 1634.5q-4.5 58.5 0.5 96.5l490 233q38 -34 77 -99.5t54 -121.5l-607 -205q-10 38 -14.5 96.5z" />
<glyph unicode="&#xd4;" horiz-adv-x="1458" d="M96 616q0 253 91 452.5t260 312t387 112.5q270 0 421.5 -172t151.5 -498q0 -256 -92 -452t-261.5 -304t-391.5 -108q-274 0 -420 168.5t-146 488.5zM418 631q0 -223 72.5 -346t209.5 -123q117 0 207.5 91t136.5 239t46 327q0 224 -74.5 348.5t-214.5 124.5 q-93 0 -167.5 -55.5t-120.5 -149t-70.5 -210.5t-24.5 -246zM420 1718l325 207h267l286 -221q-15 -40 -54 -90t-73 -72l-325 166l-389 -174q-37 67 -37 184z" />
<glyph unicode="&#xd5;" horiz-adv-x="1458" d="M96 616q0 253 91 452.5t260 312t387 112.5q270 0 421.5 -172t151.5 -498q0 -256 -92 -452t-261.5 -304t-391.5 -108q-274 0 -420 168.5t-146 488.5zM367 1675q32 101 114.5 165.5t210.5 64.5q56 0 104.5 -14.5t77 -32t69 -32t83.5 -14.5q85 0 121 84q92 0 166 -41 q-7 -54 -31 -104t-65 -92.5t-106 -68t-144 -25.5q-51 0 -97 15t-75.5 33t-72 33t-85.5 15q-42 0 -74 -28.5t-45 -61.5q-46 7 -85.5 36t-65.5 68zM418 631q0 -223 72.5 -346t209.5 -123q117 0 207.5 91t136.5 239t46 327q0 224 -74.5 348.5t-214.5 124.5q-93 0 -167.5 -55.5 t-120.5 -149t-70.5 -210.5t-24.5 -246z" />
<glyph unicode="&#xd6;" horiz-adv-x="1458" d="M96 616q0 253 91 452.5t260 312t387 112.5q270 0 421.5 -172t151.5 -498q0 -256 -92 -452t-261.5 -304t-391.5 -108q-274 0 -420 168.5t-146 488.5zM315 1731q0 69 50 114t124 45q76 0 123 -42.5t47 -116.5q0 -79 -48 -124.5t-122 -45.5q-84 0 -129 43t-45 127zM418 631 q0 -223 72.5 -346t209.5 -123q117 0 207.5 91t136.5 239t46 327q0 224 -74.5 348.5t-214.5 124.5q-93 0 -167.5 -55.5t-120.5 -149t-70.5 -210.5t-24.5 -246zM1030 1731q0 69 50 114t124 45q76 0 123 -42.5t47 -116.5q0 -79 -48 -124.5t-122 -45.5q-84 0 -129 43t-45 127z " />
<glyph unicode="&#xd7;" d="M57 238l353 309l-287 319q37 37 97 75t114 58l250 -294l323 294q50 -17 101 -53.5t77 -71.5l-362 -323l278 -311q-24 -40 -83.5 -92.5t-108.5 -77.5l-258 317l-344 -324q-40 26 -85.5 80.5t-64.5 94.5z" />
<glyph unicode="&#xd8;" horiz-adv-x="1558" d="M-61 18l262 275q-51 139 -51 323q0 254 92 453t263 311.5t394 112.5q216 0 358 -109l160 168q46 -9 119.5 -43t108.5 -61l-240 -244q76 -158 76 -381q0 -256 -93.5 -452t-266 -304t-398.5 -108q-252 0 -393 135l-232 -241q-36 22 -89 77t-70 88zM471 631q0 -32 4 -94 l610 630q-77 125 -219 125q-96 0 -172.5 -55.5t-124.5 -149t-73 -210.5t-25 -246zM524 324q73 -162 238 -162q121 0 214 91t140 239t47 327q0 83 -12 154z" />
<glyph unicode="&#xd9;" horiz-adv-x="1468" d="M96 1452h592q3 -32 -3.5 -94.5t-16.5 -93.5q-67 -19 -140 -23l-49 -678q-2 -25 -2 -71q0 -164 62.5 -245t195.5 -81q158 0 241 107t99 290l58 676q-69 7 -121 25q-3 37 0.5 97.5t13.5 90.5h487q3 -32 -3.5 -94.5t-16.5 -93.5q-54 -19 -125 -23l-49 -663 q-11 -141 -54 -252t-120.5 -194.5t-198.5 -128t-280 -44.5q-256 0 -379 122t-123 370q0 30 4 96l59 698q-76 8 -129 23q-13 96 -2 184zM426 1765q36 50 108.5 109t127.5 80l409 -221q-8 -42 -35.5 -100.5t-54.5 -88.5z" />
<glyph unicode="&#xda;" horiz-adv-x="1468" d="M96 1452h592q3 -32 -3.5 -94.5t-16.5 -93.5q-67 -19 -140 -23l-49 -678q-2 -25 -2 -71q0 -164 62.5 -245t195.5 -81q158 0 241 107t99 290l58 676q-69 7 -121 25q-3 37 0.5 97.5t13.5 90.5h487q3 -32 -3.5 -94.5t-16.5 -93.5q-54 -19 -125 -23l-49 -663 q-11 -141 -54 -252t-120.5 -194.5t-198.5 -128t-280 -44.5q-256 0 -379 122t-123 370q0 30 4 96l59 698q-76 8 -129 23q-13 96 -2 184zM728.5 1634.5q-4.5 58.5 0.5 96.5l490 233q38 -34 77 -99.5t54 -121.5l-607 -205q-10 38 -14.5 96.5z" />
<glyph unicode="&#xdb;" horiz-adv-x="1468" d="M96 1452h592q3 -32 -3.5 -94.5t-16.5 -93.5q-67 -19 -140 -23l-49 -678q-2 -25 -2 -71q0 -164 62.5 -245t195.5 -81q158 0 241 107t99 290l58 676q-69 7 -121 25q-3 37 0.5 97.5t13.5 90.5h487q3 -32 -3.5 -94.5t-16.5 -93.5q-54 -19 -125 -23l-49 -663 q-11 -141 -54 -252t-120.5 -194.5t-198.5 -128t-280 -44.5q-256 0 -379 122t-123 370q0 30 4 96l59 698q-76 8 -129 23q-13 96 -2 184zM451 1718l325 207h266l287 -221q-15 -40 -54 -90t-73 -72l-325 166l-390 -174q-36 65 -36 184z" />
<glyph unicode="&#xdc;" horiz-adv-x="1468" d="M96 1452h592q3 -32 -3.5 -94.5t-16.5 -93.5q-67 -19 -140 -23l-49 -678q-2 -25 -2 -71q0 -164 62.5 -245t195.5 -81q158 0 241 107t99 290l58 676q-69 7 -121 25q-3 37 0.5 97.5t13.5 90.5h487q3 -32 -3.5 -94.5t-16.5 -93.5q-54 -19 -125 -23l-49 -663 q-11 -141 -54 -252t-120.5 -194.5t-198.5 -128t-280 -44.5q-256 0 -379 122t-123 370q0 30 4 96l59 698q-76 8 -129 23q-13 96 -2 184zM387 1731q0 69 50 114t124 45q76 0 123 -42.5t47 -116.5q0 -79 -48 -124.5t-122 -45.5q-84 0 -129 43t-45 127zM1020 1731q0 69 50 114 t124 45q76 0 123 -42.5t47 -116.5q0 -79 -48 -124.5t-122 -45.5q-84 0 -129 43t-45 127z" />
<glyph unicode="&#xdd;" horiz-adv-x="1314" d="M68 1452h608q-9 -81 -49 -197q-44 -11 -121 -16q32 -28 61 -104l78 -201q42 -110 45 -211h25q10 50 33.5 110t46.5 99l131 217q26 45 80 92q-56 7 -97 25q-18 92 -18 186h520q-13 -116 -47 -197q-52 -13 -107 -16l-464 -694l-23 -328q103 -7 195 -29q7 -35 4.5 -95 t-11.5 -93h-731q4 36 24.5 92t39.5 90q81 24 170 35l28 318l-309 706q-47 6 -98 25q-18 73 -14 186zM603.5 1634.5q-4.5 58.5 0.5 96.5l490 233q38 -34 77 -99.5t54 -121.5l-607 -205q-10 38 -14.5 96.5z" />
<glyph unicode="&#xde;" horiz-adv-x="1318" d="M16 0q6 40 23.5 97.5t34.5 86.5q45 17 141 33l96 1022q-79 8 -129 25q-3 35 1.5 96t13.5 92h579q3 -32 -3.5 -94.5t-16.5 -93.5q-71 -19 -150 -23l-6 -90q53 4 156 4q253 0 398.5 -91.5t145.5 -270.5q0 -95 -34 -174.5t-91 -133.5t-134 -91.5t-161.5 -54.5t-174.5 -17 q-105 0 -173 16l-6 -121q80 -6 158 -29q5 -32 3 -94.5t-11 -93.5h-660zM547 530q71 -14 182 -14q116 0 190 63.5t74 182.5q0 91 -77 143.5t-205 52.5q-10 0 -133 -6z" />
<glyph unicode="&#xdf;" horiz-adv-x="1384" d="M27 -291l135 1063q-78 8 -133 33q-3 35 2.5 91t13.5 93h152q44 247 201 379.5t405 132.5q81 0 156 -14t143.5 -44t109.5 -85t41 -129q0 -53 -17.5 -98t-43 -74t-56 -58.5t-56 -52t-43 -52.5t-17.5 -63q0 -38 22.5 -71.5t57 -58.5t74 -57t74 -64.5t57 -83.5t22.5 -111 q0 -197 -134.5 -308.5t-346.5 -111.5q-95 0 -168.5 20t-124.5 70t-57 127q25 42 116.5 77.5t175.5 35.5q6 -70 37 -104.5t80 -34.5q53 0 87 44t34 113q0 38 -17.5 70.5t-45.5 57.5t-61.5 49t-67.5 50.5t-62 56.5t-45.5 73t-17.5 94q0 62 19 114t47 84.5t61 63.5t61 54t47 54 t19 64q0 59 -57 89t-130 30q-134 0 -216 -109t-101 -293l-127 -1206q-72 -14 -172 -14q-87 0 -133 14z" />
<glyph unicode="&#xe0;" horiz-adv-x="1103" d="M23 354q0 125 38.5 245.5t112.5 215.5q164 209 447 209q95 0 184.5 -30t157.5 -76l-82 -691q0 -18 8 -34l143 14q0 -36 -17.5 -93.5t-37.5 -90.5q-52 -22 -151.5 -40t-163.5 -18q-42 73 -54 166h-18q-42 -76 -113.5 -121t-167.5 -45q-129 0 -207.5 96.5t-78.5 292.5z M319 375q0 -193 103 -193q92 0 168 101l80 548q-30 9 -70 9q-56 0 -109.5 -35.5t-89.5 -89.5q-40 -60 -61 -156.5t-21 -183.5zM344 1505q40 32 123.5 59t144.5 27l211 -393q-29 -24 -85.5 -44.5t-92.5 -20.5z" />
<glyph unicode="&#xe1;" horiz-adv-x="1103" d="M23 354q0 125 38.5 245.5t112.5 215.5q164 209 447 209q95 0 184.5 -30t157.5 -76l-82 -691q0 -18 8 -34l143 14q0 -36 -17.5 -93.5t-37.5 -90.5q-52 -22 -151.5 -40t-163.5 -18q-42 73 -54 166h-18q-42 -76 -113.5 -121t-167.5 -45q-129 0 -207.5 96.5t-78.5 292.5z M319 375q0 -193 103 -193q92 0 168 101l80 548q-30 9 -70 9q-56 0 -109.5 -35.5t-89.5 -89.5q-40 -60 -61 -156.5t-21 -183.5zM401 1231l289 346q62 0 147 -27.5t117 -64.5l-419 -369q-37 13 -78 48.5t-56 66.5z" />
<glyph unicode="&#xe2;" horiz-adv-x="1103" d="M23 354q0 125 38.5 245.5t112.5 215.5q164 209 447 209q95 0 184.5 -30t157.5 -76l-82 -691q0 -18 8 -34l143 14q0 -36 -17.5 -93.5t-37.5 -90.5q-52 -22 -151.5 -40t-163.5 -18q-42 73 -54 166h-18q-42 -76 -113.5 -121t-167.5 -45q-129 0 -207.5 96.5t-78.5 292.5z M248 1296l276 252l209 13l234 -318q-22 -34 -66.5 -67.5t-83.5 -45.5l-209 216l-289 -220q-24 26 -45 77.5t-26 92.5zM319 375q0 -193 103 -193q92 0 168 101l80 548q-30 9 -70 9q-56 0 -109.5 -35.5t-89.5 -89.5q-40 -60 -61 -156.5t-21 -183.5z" />
<glyph unicode="&#xe3;" horiz-adv-x="1103" d="M23 354q0 125 38.5 245.5t112.5 215.5q164 209 447 209q95 0 184.5 -30t157.5 -76l-82 -691q0 -18 8 -34l143 14q0 -36 -17.5 -93.5t-37.5 -90.5q-52 -22 -151.5 -40t-163.5 -18q-42 73 -54 166h-18q-42 -76 -113.5 -121t-167.5 -45q-129 0 -207.5 96.5t-78.5 292.5z M199 1274q25 97 97.5 158t186.5 61q59 0 105.5 -21.5t85 -43t78.5 -21.5q41 0 64.5 20t41.5 56q108 0 162 -35q-17 -109 -98.5 -190.5t-210.5 -81.5q-55 0 -101.5 22t-88 44t-83.5 22q-76 0 -106 -78q-42 6 -80 31t-53 57zM319 375q0 -193 103 -193q92 0 168 101l80 548 q-30 9 -70 9q-56 0 -109.5 -35.5t-89.5 -89.5q-40 -60 -61 -156.5t-21 -183.5z" />
<glyph unicode="&#xe4;" horiz-adv-x="1103" d="M23 354q0 125 38.5 245.5t112.5 215.5q164 209 447 209q95 0 184.5 -30t157.5 -76l-82 -691q0 -18 8 -34l143 14q0 -36 -17.5 -93.5t-37.5 -90.5q-52 -22 -151.5 -40t-163.5 -18q-42 73 -54 166h-18q-42 -76 -113.5 -121t-167.5 -45q-129 0 -207.5 96.5t-78.5 292.5z M195 1333q0 67 44.5 111.5t110.5 44.5q70 0 112 -41.5t42 -114.5q0 -78 -43 -123t-111 -45q-75 0 -115 42.5t-40 125.5zM319 375q0 -193 103 -193q92 0 168 101l80 548q-30 9 -70 9q-56 0 -109.5 -35.5t-89.5 -89.5q-40 -60 -61 -156.5t-21 -183.5zM715 1333 q0 67 44.5 111.5t110.5 44.5q70 0 112 -41.5t42 -114.5q0 -78 -43 -123t-111 -45q-75 0 -115 42.5t-40 125.5z" />
<glyph unicode="&#xe5;" horiz-adv-x="1103" d="M23 354q0 125 38.5 245.5t112.5 215.5q164 209 447 209q95 0 184.5 -30t157.5 -76l-82 -691q0 -18 8 -34l143 14q0 -36 -17.5 -93.5t-37.5 -90.5q-52 -22 -151.5 -40t-163.5 -18q-42 73 -54 166h-18q-42 -76 -113.5 -121t-167.5 -45q-129 0 -207.5 96.5t-78.5 292.5z M319 375q0 -193 103 -193q92 0 168 101l80 548q-30 9 -70 9q-56 0 -109.5 -35.5t-89.5 -89.5q-40 -60 -61 -156.5t-21 -183.5zM373 1341q0 123 76 200t210 77q100 0 155.5 -49.5t55.5 -151.5q0 -123 -79 -197.5t-209 -74.5q-209 0 -209 196zM526 1358q0 -82 74 -82 q53 0 85 36t32 97q0 43 -18 61.5t-54 18.5q-55 0 -87 -37t-32 -94z" />
<glyph unicode="&#xe6;" horiz-adv-x="1548" d="M33 229q0 87 35 160t95 121t138 74t164 26q98 0 180 -32q12 66 12 104q0 61 -39 92t-112 31t-175 -26.5t-167 -59.5q-6 21 -6 61q0 44 14.5 99.5t36.5 97.5q60 23 175 40t210 17q189 0 274 -129h19q83 119 270 119q153 0 234.5 -69.5t81.5 -194.5q0 -52 -15 -98 t-54 -92.5t-100.5 -81.5t-162 -60.5t-230.5 -34.5v-26q0 -89 33.5 -126.5t102.5 -37.5q85 0 186.5 25.5t173.5 62.5q0 -42 -18 -103.5t-41 -101.5q-68 -51 -161.5 -86t-201.5 -35q-241 0 -321 164h-19q-111 -164 -315 -164q-133 0 -215 65.5t-82 198.5zM328 285 q0 -58 34 -86.5t89 -28.5q99 0 172 86q-7 54 -7 96q0 50 5 86q-71 11 -117 11q-80 0 -128 -46t-48 -118zM930 582q80 6 134 22.5t79 42t34 49.5t9 54q0 88 -68 88q-40 0 -77.5 -28t-63.5 -71q-34 -58 -47 -157z" />
<glyph unicode="&#xe7;" horiz-adv-x="985" d="M33 358q0 140 39 265.5t116 218.5q72 85 178 133.5t232 48.5q167 0 313 -90q0 -153 -69 -301q-53 0 -120.5 17t-103.5 44l15 127q-27 10 -62 10q-101 0 -159 -88q-42 -63 -62 -157.5t-20 -182.5q0 -104 41.5 -154t126.5 -50q73 0 166.5 21.5t164.5 51.5q0 -44 -20 -104.5 t-47 -99.5q-117 -75 -232 -95l-26 -86q47 -11 77.5 -48t30.5 -93q0 -65 -48 -120t-117 -85.5t-142 -36.5q-29 20 -53 54.5t-35 70.5q61 8 103 38t42 77q0 65 -96 88l76 139q-154 23 -231.5 123.5t-77.5 263.5z" />
<glyph unicode="&#xe8;" horiz-adv-x="962" d="M23 352q0 132 39.5 265.5t113.5 226.5q146 180 389 180q151 0 233.5 -69.5t82.5 -194.5q0 -52 -15 -98t-54.5 -92.5t-101.5 -81.5t-163 -60.5t-232 -34.5v-26q0 -89 34 -126.5t104 -37.5q85 0 187.5 25.5t174.5 62.5q0 -42 -18 -103.5t-41 -101.5q-68 -51 -162 -86 t-203 -35q-368 0 -368 387zM268 1505q40 32 124 59t145 27l211 -393q-29 -24 -86 -44.5t-93 -20.5zM334 578q83 6 139 23t81.5 43t34.5 50.5t9 55.5q0 92 -72 92q-41 0 -79 -29t-64 -74q-36 -57 -49 -161z" />
<glyph unicode="&#xe9;" horiz-adv-x="962" d="M23 352q0 132 39.5 265.5t113.5 226.5q146 180 389 180q151 0 233.5 -69.5t82.5 -194.5q0 -52 -15 -98t-54.5 -92.5t-101.5 -81.5t-163 -60.5t-232 -34.5v-26q0 -89 34 -126.5t104 -37.5q85 0 187.5 25.5t174.5 62.5q0 -42 -18 -103.5t-41 -101.5q-68 -51 -162 -86 t-203 -35q-368 0 -368 387zM334 578q83 6 139 23t81.5 43t34.5 50.5t9 55.5q0 92 -72 92q-41 0 -79 -29t-64 -74q-36 -57 -49 -161zM356 1231l289 346q62 0 147 -27.5t117 -64.5l-420 -369q-37 13 -77.5 48.5t-55.5 66.5z" />
<glyph unicode="&#xea;" horiz-adv-x="962" d="M23 352q0 132 39.5 265.5t113.5 226.5q146 180 389 180q151 0 233.5 -69.5t82.5 -194.5q0 -52 -15 -98t-54.5 -92.5t-101.5 -81.5t-163 -60.5t-232 -34.5v-26q0 -89 34 -126.5t104 -37.5q85 0 187.5 25.5t174.5 62.5q0 -42 -18 -103.5t-41 -101.5q-68 -51 -162 -86 t-203 -35q-368 0 -368 387zM195 1296l276 252l209 13l233 -318q-22 -34 -66 -67.5t-83 -45.5l-209 216l-289 -220q-24 26 -45 77.5t-26 92.5zM334 578q83 6 139 23t81.5 43t34.5 50.5t9 55.5q0 92 -72 92q-41 0 -79 -29t-64 -74q-36 -57 -49 -161z" />
<glyph unicode="&#xeb;" horiz-adv-x="962" d="M23 352q0 132 39.5 265.5t113.5 226.5q146 180 389 180q151 0 233.5 -69.5t82.5 -194.5q0 -52 -15 -98t-54.5 -92.5t-101.5 -81.5t-163 -60.5t-232 -34.5v-26q0 -89 34 -126.5t104 -37.5q85 0 187.5 25.5t174.5 62.5q0 -42 -18 -103.5t-41 -101.5q-68 -51 -162 -86 t-203 -35q-368 0 -368 387zM123 1333q0 67 45 111.5t111 44.5q70 0 111.5 -41.5t41.5 -114.5q0 -78 -42.5 -123t-110.5 -45q-76 0 -116 42.5t-40 125.5zM334 578q83 6 139 23t81.5 43t34.5 50.5t9 55.5q0 92 -72 92q-41 0 -79 -29t-64 -74q-36 -57 -49 -161zM643 1333 q0 67 45 111.5t111 44.5q70 0 111.5 -41.5t41.5 -114.5q0 -78 -42.5 -123t-110.5 -45q-76 0 -116 42.5t-40 125.5z" />
<glyph unicode="&#xec;" horiz-adv-x="602" d="M23 776q0 33 16.5 96.5t34.5 81.5q99 58 262 58q57 0 127 -19l-96 -766q0 -18 8 -34l149 14q0 -36 -17.5 -93.5t-37.5 -90.5q-53 -22 -148.5 -40t-158.5 -18q-30 29 -62 91t-32 98l98 634zM41 1505q40 32 123.5 59t144.5 27l211 -393q-29 -24 -85.5 -44.5t-92.5 -20.5z " />
<glyph unicode="&#xed;" horiz-adv-x="602" d="M23 776q0 33 16.5 96.5t34.5 81.5q99 58 262 58q57 0 127 -19l-96 -766q0 -18 8 -34l149 14q0 -36 -17.5 -93.5t-37.5 -90.5q-53 -22 -148.5 -40t-158.5 -18q-30 29 -62 91t-32 98l98 634zM141 1231l289 346q62 0 147 -27.5t117 -64.5l-420 -369q-37 13 -77.5 48.5 t-55.5 66.5z" />
<glyph unicode="&#xee;" horiz-adv-x="602" d="M-29 1296l277 252l209 13l233 -318q-22 -34 -66 -67.5t-83 -45.5l-209 216l-289 -220q-24 26 -45.5 77.5t-26.5 92.5zM23 776q0 33 16.5 96.5t34.5 81.5q99 58 262 58q57 0 127 -19l-96 -766q0 -18 8 -34l149 14q0 -36 -17.5 -93.5t-37.5 -90.5q-53 -22 -148.5 -40 t-158.5 -18q-30 29 -62 91t-32 98l98 634z" />
<glyph unicode="&#xef;" horiz-adv-x="602" d="M-59 1333q0 67 44.5 111.5t110.5 44.5q70 0 112 -41.5t42 -114.5q0 -78 -43 -123t-111 -45q-75 0 -115 42.5t-40 125.5zM23 776q0 33 16.5 96.5t34.5 81.5q99 58 262 58q57 0 127 -19l-96 -766q0 -18 8 -34l149 14q0 -36 -17.5 -93.5t-37.5 -90.5q-53 -22 -148.5 -40 t-158.5 -18q-30 29 -62 91t-32 98l98 634zM410 1333q0 67 44.5 111.5t110.5 44.5q70 0 112 -41.5t42 -114.5q0 -78 -43 -123t-111 -45q-75 0 -115 42.5t-40 125.5z" />
<glyph unicode="&#xf0;" horiz-adv-x="1114" d="M41 365q0 119 34 229.5t95 195.5t153.5 136t202.5 51q129 0 203 -86h31q-36 171 -152 278l-280 -153q-29 68 -29 176l164 84q-83 35 -187 55q14 47 52.5 99.5t79.5 85.5q194 -51 307 -115l219 115q23 -25 52 -70.5t36 -75.5l-158 -84q191 -198 191 -541 q0 -164 -41.5 -305t-119.5 -247.5t-198.5 -167t-269.5 -60.5q-189 0 -287 99.5t-98 300.5zM336 403q0 -118 39.5 -177.5t111.5 -59.5q67 0 120 47t84.5 125t48 170.5t16.5 191.5q-28 32 -76 57t-102 25q-76 0 -132 -55t-83 -140t-27 -184z" />
<glyph unicode="&#xf1;" horiz-adv-x="1155" d="M25 776q0 33 16.5 96.5t34.5 81.5q89 58 219 58q56 0 115 -19l-19 -176h31q102 207 311 207q53 0 98 -14.5t84 -46t61.5 -88.5t22.5 -134q0 -33 -4 -80t-12 -110t-14 -106t-18 -119.5t-15 -98.5q0 -18 8 -34l150 14q0 -36 -17.5 -93.5t-38.5 -90.5q-52 -22 -151.5 -40 t-163.5 -18q-30 29 -62 91t-32 98q76 397 76 534q0 127 -93 127q-49 0 -98.5 -41.5t-83.5 -97.5l-74 -668q-79 -14 -174 -14q-82 0 -131 14l117 780zM227 1274q25 97 98 158t187 61q47 0 86.5 -13.5t63 -29.5t55 -29.5t63.5 -13.5q70 0 107 76q108 0 162 -35 q-17 -109 -99 -190.5t-211 -81.5q-43 0 -82.5 14t-64 30t-58 30t-67.5 14q-77 0 -107 -78q-42 6 -80 31t-53 57z" />
<glyph unicode="&#xf2;" horiz-adv-x="1067" d="M33 395q0 208 88 365q69 123 186 193.5t275 70.5q193 0 295 -108.5t102 -321.5q0 -228 -105 -393q-69 -110 -182.5 -173t-265.5 -63q-194 0 -293.5 108t-99.5 322zM311 1505q40 32 124 59t145 27l211 -393q-29 -24 -86 -44.5t-93 -20.5zM336 395q0 -124 31.5 -179.5 t97.5 -55.5q109 0 164 127q49 111 49 301q0 128 -28.5 185.5t-94.5 57.5q-107 0 -166 -131q-53 -116 -53 -305z" />
<glyph unicode="&#xf3;" horiz-adv-x="1067" d="M33 395q0 208 88 365q69 123 186 193.5t275 70.5q193 0 295 -108.5t102 -321.5q0 -228 -105 -393q-69 -110 -182.5 -173t-265.5 -63q-194 0 -293.5 108t-99.5 322zM336 395q0 -124 31.5 -179.5t97.5 -55.5q109 0 164 127q49 111 49 301q0 128 -28.5 185.5t-94.5 57.5 q-107 0 -166 -131q-53 -116 -53 -305zM387 1231l289 346q62 0 147 -27.5t117 -64.5l-420 -369q-37 13 -77.5 48.5t-55.5 66.5z" />
<glyph unicode="&#xf4;" horiz-adv-x="1067" d="M33 395q0 208 88 365q69 123 186 193.5t275 70.5q193 0 295 -108.5t102 -321.5q0 -228 -105 -393q-69 -110 -182.5 -173t-265.5 -63q-194 0 -293.5 108t-99.5 322zM227 1296l277 252l209 13l233 -318q-22 -34 -66 -67.5t-83 -45.5l-209 216l-289 -220q-24 26 -45.5 77.5 t-26.5 92.5zM336 395q0 -124 31.5 -179.5t97.5 -55.5q109 0 164 127q49 111 49 301q0 128 -28.5 185.5t-94.5 57.5q-107 0 -166 -131q-53 -116 -53 -305z" />
<glyph unicode="&#xf5;" horiz-adv-x="1067" d="M33 395q0 208 88 365q69 123 186 193.5t275 70.5q193 0 295 -108.5t102 -321.5q0 -228 -105 -393q-69 -110 -182.5 -173t-265.5 -63q-194 0 -293.5 108t-99.5 322zM182 1274q25 97 98 158t187 61q47 0 86.5 -13.5t63 -29.5t55 -29.5t63.5 -13.5q70 0 107 76 q108 0 162 -35q-17 -109 -99 -190.5t-211 -81.5q-43 0 -82.5 14t-64 30t-58 30t-67.5 14q-77 0 -107 -78q-42 6 -80 31t-53 57zM336 395q0 -124 31.5 -179.5t97.5 -55.5q109 0 164 127q49 111 49 301q0 128 -28.5 185.5t-94.5 57.5q-107 0 -166 -131q-53 -116 -53 -305z" />
<glyph unicode="&#xf6;" horiz-adv-x="1067" d="M33 395q0 208 88 365q69 123 186 193.5t275 70.5q193 0 295 -108.5t102 -321.5q0 -228 -105 -393q-69 -110 -182.5 -173t-265.5 -63q-194 0 -293.5 108t-99.5 322zM176 1333q0 67 45 111.5t111 44.5q70 0 111.5 -41.5t41.5 -114.5q0 -78 -42.5 -123t-110.5 -45 q-76 0 -116 42.5t-40 125.5zM336 395q0 -124 31.5 -179.5t97.5 -55.5q109 0 164 127q49 111 49 301q0 128 -28.5 185.5t-94.5 57.5q-107 0 -166 -131q-53 -116 -53 -305zM696 1333q0 67 45 111.5t111 44.5q70 0 112 -41.5t42 -114.5q0 -78 -43 -123t-111 -45 q-76 0 -116 42.5t-40 125.5z" />
<glyph unicode="&#xf7;" d="M68 444q10 120 49 224h925q5 -45 0 -110t-18 -114h-956zM371 166q0 59 41 98t102 39q64 0 102.5 -36t38.5 -101q0 -70 -39.5 -111t-101.5 -41q-69 0 -106 38.5t-37 113.5zM467 950q0 59 41 98t102 39q64 0 103 -36t39 -101q0 -70 -40 -110.5t-102 -40.5 q-70 0 -106.5 38.5t-36.5 112.5z" />
<glyph unicode="&#xf8;" horiz-adv-x="1126" d="M14 -10l107 133q-64 101 -64 272q0 209 90 365q71 123 190 193.5t281 70.5q116 0 203 -41l131 158q34 -13 78.5 -47.5t65.5 -63.5l-140 -166q68 -108 68 -270q0 -231 -106 -393q-71 -109 -187.5 -172.5t-271.5 -63.5q-124 0 -211 41l-142 -174q-22 20 -49.5 69t-42.5 89z M360 385l322 403q-30 43 -90 43q-112 0 -174 -131q-58 -116 -58 -305v-10zM399 205q33 -45 99 -45q116 0 174 127q51 110 51 301v18z" />
<glyph unicode="&#xf9;" horiz-adv-x="1159" d="M20 776q0 33 16.5 96t35.5 82q99 58 262 58q57 0 127 -19q-74 -562 -74 -692q0 -127 82 -127q48 0 96 35t82 82l68 497l-127 -10q0 33 16 95t35 81q96 58 252 58q57 0 123 -19l-74 -766q0 -18 8 -34l142 14q0 -36 -17.5 -93.5t-38.5 -90.5q-52 -22 -151 -40t-162 -18 q-41 71 -53 176h-19q-100 -176 -305 -176q-51 0 -94.5 14.5t-81.5 46t-60 88.5t-22 134q0 144 78 540zM315 1505q40 32 124 59t145 27l211 -393q-29 -24 -86 -44.5t-93 -20.5z" />
<glyph unicode="&#xfa;" horiz-adv-x="1159" d="M20 776q0 33 16.5 96t35.5 82q99 58 262 58q57 0 127 -19q-74 -562 -74 -692q0 -127 82 -127q48 0 96 35t82 82l68 497l-127 -10q0 33 16 95t35 81q96 58 252 58q57 0 123 -19l-74 -766q0 -18 8 -34l142 14q0 -36 -17.5 -93.5t-38.5 -90.5q-52 -22 -151 -40t-162 -18 q-41 71 -53 176h-19q-100 -176 -305 -176q-51 0 -94.5 14.5t-81.5 46t-60 88.5t-22 134q0 144 78 540zM418 1231l289 346q62 0 147 -27.5t117 -64.5l-420 -369q-37 13 -77.5 48.5t-55.5 66.5z" />
<glyph unicode="&#xfb;" horiz-adv-x="1159" d="M20 776q0 33 16.5 96t35.5 82q99 58 262 58q57 0 127 -19q-74 -562 -74 -692q0 -127 82 -127q48 0 96 35t82 82l68 497l-127 -10q0 33 16 95t35 81q96 58 252 58q57 0 123 -19l-74 -766q0 -18 8 -34l142 14q0 -36 -17.5 -93.5t-38.5 -90.5q-52 -22 -151 -40t-162 -18 q-41 71 -53 176h-19q-100 -176 -305 -176q-51 0 -94.5 14.5t-81.5 46t-60 88.5t-22 134q0 144 78 540zM268 1296l277 252l209 13l233 -318q-22 -34 -66 -67.5t-83 -45.5l-209 216l-289 -220q-24 26 -45.5 77.5t-26.5 92.5z" />
<glyph unicode="&#xfc;" horiz-adv-x="1159" d="M20 776q0 33 16.5 96t35.5 82q99 58 262 58q57 0 127 -19q-74 -562 -74 -692q0 -127 82 -127q48 0 96 35t82 82l68 497l-127 -10q0 33 16 95t35 81q96 58 252 58q57 0 123 -19l-74 -766q0 -18 8 -34l142 14q0 -36 -17.5 -93.5t-38.5 -90.5q-52 -22 -151 -40t-162 -18 q-41 71 -53 176h-19q-100 -176 -305 -176q-51 0 -94.5 14.5t-81.5 46t-60 88.5t-22 134q0 144 78 540zM178 1333q0 67 45 111.5t111 44.5q70 0 111.5 -41.5t41.5 -114.5q0 -78 -42.5 -123t-110.5 -45q-76 0 -116 42.5t-40 125.5zM698 1333q0 67 45 111.5t111 44.5 q70 0 112 -41.5t42 -114.5q0 -78 -43 -123t-111 -45q-76 0 -116 42.5t-40 125.5z" />
<glyph unicode="&#xfd;" horiz-adv-x="1001" d="M-66 -233q240 71 359 206l-217 830l-125 -8q0 32 16.5 96t32.5 84q91 43 219 43q52 0 113 -21l114 -524q30 -140 33 -262h25q84 215 182 555q0 15 -8 35l-139 -8q5 46 24.5 101.5t42.5 78.5q42 16 134 27.5t145 11.5q24 -21 55 -93t31 -110q-98 -258 -239 -535.5 t-240 -396.5q-109 -128 -222 -221t-250 -150q-31 40 -58.5 123t-27.5 138zM389 1231l289 346q62 0 147 -27.5t117 -64.5l-420 -369q-37 13 -77.5 48.5t-55.5 66.5z" />
<glyph unicode="&#xfe;" horiz-adv-x="1103" d="M-12 -465l219 1745l-139 -14q0 35 16.5 97.5t36.5 80.5q97 57 260 57q60 0 127 -18l-29 -299q-13 -150 -67 -326h30q25 69 95 117.5t168 48.5q61 0 114 -21t98.5 -64.5t72 -122t26.5 -183.5q0 -138 -45.5 -276t-122.5 -228q-67 -76 -161.5 -120t-197.5 -44q-86 0 -157 27 l-39 -457q-79 -14 -174 -14q-82 0 -131 14zM360 174q27 -12 91 -12q51 0 98.5 20.5t77.5 57.5q44 55 66 147.5t22 198.5q0 225 -113 225q-49 0 -100 -35.5t-84 -85.5z" />
<glyph unicode="&#xff;" horiz-adv-x="1001" d="M-66 -233q240 71 359 206l-217 830l-125 -8q0 32 16.5 96t32.5 84q91 43 219 43q52 0 113 -21l114 -524q30 -140 33 -262h25q84 215 182 555q0 15 -8 35l-139 -8q5 46 24.5 101.5t42.5 78.5q42 16 134 27.5t145 11.5q24 -21 55 -93t31 -110q-98 -258 -239 -535.5 t-240 -396.5q-109 -128 -222 -221t-250 -150q-31 40 -58.5 123t-27.5 138zM150 1333q0 67 44.5 111.5t110.5 44.5q70 0 112 -41.5t42 -114.5q0 -78 -43 -123t-111 -45q-75 0 -115 42.5t-40 125.5zM670 1333q0 67 44.5 111.5t110.5 44.5q70 0 112 -41.5t42 -114.5 q0 -78 -43 -123t-111 -45q-75 0 -115 42.5t-40 125.5z" />
<glyph unicode="&#x100;" horiz-adv-x="1546" d="M-31 0q15 81 66 184q49 22 100 31l629 1258h221l375 -1252q58 -11 104 -31q17 -78 17 -190h-623q6 36 26.5 93t39.5 93q62 21 127 33q-28 42 -56 135l-16 58h-485l-27 -68q-28 -70 -74 -133q67 -6 133 -25q25 -98 25 -186h-582zM449 1614q10 126 51 229h813 q5 -46 -0.5 -112.5t-18.5 -116.5h-845zM582 602h352l-72 279q-14 52 -27.5 143.5t-13.5 149.5h-24q-8 -56 -37.5 -145.5t-54.5 -147.5z" />
<glyph unicode="&#x101;" horiz-adv-x="1103" d="M23 354q0 125 38.5 245.5t112.5 215.5q164 209 447 209q95 0 184.5 -30t157.5 -76l-82 -691q0 -18 8 -34l143 14q0 -36 -17.5 -93.5t-37.5 -90.5q-52 -22 -151.5 -40t-163.5 -18q-42 73 -54 166h-18q-42 -76 -113.5 -121t-167.5 -45q-129 0 -207.5 96.5t-78.5 292.5z M279 1223q10 118 47 209h641q5 -40 0 -102t-17 -107h-671zM319 375q0 -193 103 -193q92 0 168 101l80 548q-30 9 -70 9q-56 0 -109.5 -35.5t-89.5 -89.5q-40 -60 -61 -156.5t-21 -183.5z" />
<glyph unicode="&#x102;" horiz-adv-x="1546" d="M-31 0q15 81 66 184q49 22 100 31l629 1258h221l375 -1252q58 -11 104 -31q17 -78 17 -190h-623q6 36 26.5 93t39.5 93q62 21 127 33q-28 42 -56 135l-16 58h-485l-27 -68q-28 -70 -74 -133q67 -6 133 -25q25 -98 25 -186h-582zM467 1864q28 30 88.5 56t118.5 32 q31 -160 217 -160q91 0 160.5 37.5t107.5 107.5q93 0 174 -57q-39 -148 -165.5 -236t-315.5 -88q-175 0 -274 81t-111 227zM582 602h352l-72 279q-14 52 -27.5 143.5t-13.5 149.5h-24q-8 -56 -37.5 -145.5t-54.5 -147.5z" />
<glyph unicode="&#x103;" horiz-adv-x="1103" d="M23 354q0 125 38.5 245.5t112.5 215.5q164 209 447 209q95 0 184.5 -30t157.5 -76l-82 -691q0 -18 8 -34l143 14q0 -36 -17.5 -93.5t-37.5 -90.5q-52 -22 -151.5 -40t-163.5 -18q-42 73 -54 166h-18q-42 -76 -113.5 -121t-167.5 -45q-129 0 -207.5 96.5t-78.5 292.5z M260 1462q25 25 76 46.5t100 29.5q12 -186 166 -186q74 0 125 44.5t88 131.5q45 -3 94 -17.5t76 -33.5q-44 -156 -152 -247t-264 -91q-150 0 -228 84.5t-81 238.5zM319 375q0 -193 103 -193q92 0 168 101l80 548q-30 9 -70 9q-56 0 -109.5 -35.5t-89.5 -89.5 q-40 -60 -61 -156.5t-21 -183.5z" />
<glyph unicode="&#x104;" horiz-adv-x="1546" d="M-31 0q15 81 66 184q49 22 100 31l629 1258h221l375 -1252q58 -11 104 -31q17 -78 17 -190h-164q-109 -52 -162 -106t-53 -125q0 -40 24.5 -60t67.5 -20q23 0 59 8q12 -28 20.5 -77.5t8.5 -90.5q-76 -31 -182 -31q-116 0 -196.5 57t-80.5 160q0 99 58.5 165t185.5 102v18 h-209q6 36 26.5 93t39.5 93q62 21 127 33q-28 42 -56 135l-16 58h-485l-27 -68q-28 -70 -74 -133q67 -6 133 -25q25 -98 25 -186h-582zM582 602h352l-72 279q-14 52 -27.5 143.5t-13.5 149.5h-24q-8 -56 -37.5 -145.5t-54.5 -147.5z" />
<glyph unicode="&#x105;" horiz-adv-x="1103" d="M23 354q0 125 38.5 245.5t112.5 215.5q164 209 447 209q95 0 184.5 -30t157.5 -76l-82 -691q0 -18 8 -34l143 14q0 -36 -17.5 -93.5t-37.5 -90.5q-234 -105 -234 -232q0 -36 23 -55t59 -19q25 0 52 9q26 -62 26 -150q-28 -13 -78.5 -22t-87.5 -9q-100 0 -168.5 50.5 t-68.5 146.5q0 70 40 131t115 100q-35 65 -47 158h-18q-42 -76 -113.5 -121t-167.5 -45q-129 0 -207.5 96.5t-78.5 292.5zM319 375q0 -193 103 -193q92 0 168 101l80 548q-30 9 -70 9q-56 0 -109.5 -35.5t-89.5 -89.5q-40 -60 -61 -156.5t-21 -183.5z" />
<glyph unicode="&#x106;" horiz-adv-x="1304" d="M74 635q0 188 65.5 350t176 272.5t258.5 173t311 62.5q218 0 397 -96q-22 -223 -74 -398q-57 0 -127.5 17.5t-113.5 42.5l18 201q-59 30 -135 30q-193 0 -320 -172.5t-127 -449.5q0 -238 97.5 -353.5t271.5 -115.5q81 0 196.5 21t207.5 56q0 -42 -20.5 -105t-47.5 -103 q-213 -109 -432 -109q-279 0 -440.5 184.5t-161.5 491.5zM726.5 1634.5q-4.5 58.5 0.5 96.5l490 233q38 -34 77 -99.5t54 -121.5l-607 -205q-10 38 -14.5 96.5z" />
<glyph unicode="&#x107;" horiz-adv-x="985" d="M33 358q0 140 39 265.5t116 218.5q72 85 178 133.5t232 48.5q167 0 313 -90q0 -153 -69 -301q-53 0 -120.5 17t-103.5 44l15 127q-27 10 -62 10q-101 0 -159 -88q-42 -63 -62 -157.5t-20 -182.5q0 -104 41.5 -154t126.5 -50q75 0 169 25t162 59q0 -44 -20 -105t-47 -100 q-155 -113 -328 -113q-199 0 -300 103.5t-101 289.5zM420 1231l289 346q62 0 147 -27.5t117 -64.5l-420 -369q-37 13 -77.5 48.5t-55.5 66.5z" />
<glyph unicode="&#x108;" horiz-adv-x="1304" d="M74 635q0 188 65.5 350t176 272.5t258.5 173t311 62.5q218 0 397 -96q-22 -223 -74 -398q-57 0 -127.5 17.5t-113.5 42.5l18 201q-59 30 -135 30q-193 0 -320 -172.5t-127 -449.5q0 -238 97.5 -353.5t271.5 -115.5q81 0 196.5 21t207.5 56q0 -42 -20.5 -105t-47.5 -103 q-213 -109 -432 -109q-279 0 -440.5 184.5t-161.5 491.5zM440 1718l326 207h266l287 -221q-15 -40 -54 -90t-73 -72l-326 166l-389 -174q-37 67 -37 184z" />
<glyph unicode="&#x109;" horiz-adv-x="985" d="M33 358q0 140 39 265.5t116 218.5q72 85 178 133.5t232 48.5q167 0 313 -90q0 -153 -69 -301q-53 0 -120.5 17t-103.5 44l15 127q-27 10 -62 10q-101 0 -159 -88q-42 -63 -62 -157.5t-20 -182.5q0 -104 41.5 -154t126.5 -50q75 0 169 25t162 59q0 -44 -20 -105t-47 -100 q-155 -113 -328 -113q-199 0 -300 103.5t-101 289.5zM240 1296l276 252l209 13l233 -318q-22 -34 -66 -67.5t-83 -45.5l-209 216l-289 -220q-24 26 -45 77.5t-26 92.5z" />
<glyph unicode="&#x10a;" horiz-adv-x="1304" d="M74 635q0 188 65.5 350t176 272.5t258.5 173t311 62.5q218 0 397 -96q-22 -223 -74 -398q-57 0 -127.5 17.5t-113.5 42.5l18 201q-59 30 -135 30q-193 0 -320 -172.5t-127 -449.5q0 -238 97.5 -353.5t271.5 -115.5q81 0 196.5 21t207.5 56q0 -42 -20.5 -105t-47.5 -103 q-213 -109 -432 -109q-279 0 -440.5 184.5t-161.5 491.5zM688 1731q0 70 51.5 116.5t128.5 46.5q78 0 126 -44t48 -119q0 -82 -49 -129.5t-125 -47.5q-87 0 -133.5 45t-46.5 132z" />
<glyph unicode="&#x10b;" horiz-adv-x="985" d="M33 358q0 140 39 265.5t116 218.5q72 85 178 133.5t232 48.5q167 0 313 -90q0 -153 -69 -301q-53 0 -120.5 17t-103.5 44l15 127q-27 10 -62 10q-101 0 -159 -88q-42 -63 -62 -157.5t-20 -182.5q0 -104 41.5 -154t126.5 -50q75 0 169 25t162 59q0 -44 -20 -105t-47 -100 q-155 -113 -328 -113q-199 0 -300 103.5t-101 289.5zM442 1335q0 70 46.5 116t115.5 46q73 0 116.5 -43t43.5 -119q0 -81 -44.5 -127.5t-115.5 -46.5q-79 0 -120.5 44t-41.5 130z" />
<glyph unicode="&#x10c;" horiz-adv-x="1304" d="M74 635q0 188 65.5 350t176 272.5t258.5 173t311 62.5q218 0 397 -96q-22 -223 -74 -398q-57 0 -127.5 17.5t-113.5 42.5l18 201q-59 30 -135 30q-193 0 -320 -172.5t-127 -449.5q0 -238 97.5 -353.5t271.5 -115.5q81 0 196.5 21t207.5 56q0 -42 -20.5 -105t-47.5 -103 q-213 -109 -432 -109q-279 0 -440.5 184.5t-161.5 491.5zM410 1812q29 32 95 62.5t120 38.5l266 -156l295 148q33 -11 70.5 -45t58.5 -66l-340 -235h-275z" />
<glyph unicode="&#x10d;" horiz-adv-x="985" d="M33 358q0 140 39 265.5t116 218.5q72 85 178 133.5t232 48.5q167 0 313 -90q0 -153 -69 -301q-53 0 -120.5 17t-103.5 44l15 127q-27 10 -62 10q-101 0 -159 -88q-42 -63 -62 -157.5t-20 -182.5q0 -104 41.5 -154t126.5 -50q75 0 169 25t162 59q0 -44 -20 -105t-47 -100 q-155 -113 -328 -113q-199 0 -300 103.5t-101 289.5zM205 1475q28 28 86 51t100 26l215 -198l271 200q35 -11 79.5 -39.5t67.5 -56.5l-352 -315l-223 -10z" />
<glyph unicode="&#x10e;" horiz-adv-x="1507" d="M16 10q5 39 22 97t34 88q49 18 137 30l88 998q-77 8 -129 18q-3 34 1 97.5t11 95.5q111 14 282.5 25t272.5 11q338 0 529.5 -160t191.5 -479q0 -164 -40.5 -303t-110.5 -238t-164 -169t-202.5 -103.5t-225.5 -33.5q-418 0 -697 26zM358 1812q29 32 95 62.5t120 38.5 l267 -156l295 148q33 -11 70.5 -45t58.5 -66l-340 -235h-275zM520 197q72 -11 139 -11q222 0 354 157t132 443q0 241 -116.5 362.5t-319.5 121.5q-56 0 -111 -10z" />
<glyph unicode="&#x10f;" horiz-adv-x="1120" d="M18 348q0 121 38 244.5t106 220.5q64 93 176 152t231 59q82 0 142 -29l39 285l-140 -14q0 34 17 96.5t37 81.5q97 57 260 57q58 0 125 -18l-146 -1256q0 -18 8 -34l144 14q0 -36 -17.5 -93.5t-38.5 -90.5q-52 -22 -151.5 -40t-163.5 -18q-41 71 -53 166h-19 q-44 -76 -117 -121t-171 -45q-137 0 -221.5 95t-84.5 288zM322 375q0 -104 28 -148.5t84 -44.5q96 0 182 99l70 542q-47 13 -82 13q-58 0 -109.5 -31t-84.5 -82q-44 -64 -66 -160.5t-22 -187.5zM1096 1024q73 134 118 295l-88 20q14 40 44 87.5t57 78.5q46 11 96 11 q93 0 174 -31q-33 -113 -116.5 -273.5t-155.5 -255.5q-29 7 -69.5 29t-59.5 39z" />
<glyph unicode="&#x110;" horiz-adv-x="1525" d="M33 10q5 40 21.5 97.5t33.5 87.5q49 18 137 30l35 400h-139q11 107 43 190h112l37 408q-77 8 -129 18q-3 34 1.5 97.5t11.5 95.5q111 14 283 25t272 11q338 0 529.5 -160t191.5 -479q0 -164 -40.5 -303t-110.5 -238t-164.5 -169t-203 -103.5t-225.5 -33.5q-417 0 -696 26 zM537 197q72 -11 139 -11q221 0 353 157t132 443q0 241 -116.5 362.5t-319.5 121.5q-56 0 -111 -10l-32 -445h315q5 -37 0.5 -92t-14.5 -98h-316z" />
<glyph unicode="&#x111;" horiz-adv-x="1226" d="M25 340q0 119 38 239.5t105 213.5q64 91 175.5 148.5t229.5 57.5q84 0 142 -28l14 116h-309q6 74 35 148h295l8 63l-140 -14q0 30 16.5 86.5t35.5 73.5q97 57 260 57q58 0 125 -18l-29 -248h123q8 -73 -12 -148h-129l-99 -860q0 -16 9 -34l143 14q0 -36 -17.5 -93.5 t-37.5 -90.5q-52 -22 -152 -40t-164 -18q-41 71 -53 166h-19q-44 -76 -117 -121t-171 -45q-137 0 -221 93t-84 282zM328 367q0 -99 28 -142t84 -43q98 0 183 99l67 518q-44 12 -82 12q-57 0 -108 -30t-84 -79q-44 -61 -66 -154.5t-22 -180.5z" />
<glyph unicode="&#x112;" horiz-adv-x="1308" d="M8 0q5 40 21.5 97t33.5 87q51 20 142 33l90 1022q-79 8 -129 25q-3 36 0 96.5t12 91.5h1082l-35 -371q-133 0 -224 31q-10 62 -10 148h-397l-29 -424h318q4 22 24 90q98 30 221 30l-28 -419q-132 -12 -219 16q-11 46 -11 94h-319l-35 -450h387q13 87 43 165q40 13 112 22 t126 9l-31 -393h-1145zM322 1614q10 126 51 229h813q5 -46 -0.5 -112.5t-18.5 -116.5h-845z" />
<glyph unicode="&#x113;" horiz-adv-x="962" d="M23 352q0 132 39.5 265.5t113.5 226.5q146 180 389 180q151 0 233.5 -69.5t82.5 -194.5q0 -52 -15 -98t-54.5 -92.5t-101.5 -81.5t-163 -60.5t-232 -34.5v-26q0 -89 34 -126.5t104 -37.5q85 0 187.5 25.5t174.5 62.5q0 -42 -18 -103.5t-41 -101.5q-68 -51 -162 -86 t-203 -35q-368 0 -368 387zM211 1223q10 118 47 209h641q5 -39 0.5 -101.5t-16.5 -107.5h-672zM334 578q83 6 139 23t81.5 43t34.5 50.5t9 55.5q0 92 -72 92q-41 0 -79 -29t-64 -74q-36 -57 -49 -161z" />
<glyph unicode="&#x114;" horiz-adv-x="1308" d="M8 0q5 40 21.5 97t33.5 87q51 20 142 33l90 1022q-79 8 -129 25q-3 36 0 96.5t12 91.5h1082l-35 -371q-133 0 -224 31q-10 62 -10 148h-397l-29 -424h318q4 22 24 90q98 30 221 30l-28 -419q-132 -12 -219 16q-11 46 -11 94h-319l-35 -450h387q13 87 43 165q40 13 112 22 t126 9l-31 -393h-1145zM350 1864q28 30 88.5 56t118.5 32q31 -160 217 -160q91 0 160.5 37.5t107.5 107.5q94 0 175 -57q-39 -148 -165.5 -236t-316.5 -88q-175 0 -274 81t-111 227z" />
<glyph unicode="&#x115;" horiz-adv-x="962" d="M23 352q0 132 39.5 265.5t113.5 226.5q146 180 389 180q151 0 233.5 -69.5t82.5 -194.5q0 -52 -15 -98t-54.5 -92.5t-101.5 -81.5t-163 -60.5t-232 -34.5v-26q0 -89 34 -126.5t104 -37.5q85 0 187.5 25.5t174.5 62.5q0 -42 -18 -103.5t-41 -101.5q-68 -51 -162 -86 t-203 -35q-368 0 -368 387zM190 1462q25 25 76.5 46.5t100.5 29.5q12 -186 165 -186q74 0 125 44.5t88 131.5q45 -3 94 -17.5t76 -33.5q-44 -156 -151.5 -247t-263.5 -91q-150 0 -228.5 84.5t-81.5 238.5zM334 578q83 6 139 23t81.5 43t34.5 50.5t9 55.5q0 92 -72 92 q-41 0 -79 -29t-64 -74q-36 -57 -49 -161z" />
<glyph unicode="&#x116;" horiz-adv-x="1308" d="M8 0q5 40 21.5 97t33.5 87q51 20 142 33l90 1022q-79 8 -129 25q-3 36 0 96.5t12 91.5h1082l-35 -371q-133 0 -224 31q-10 62 -10 148h-397l-29 -424h318q4 22 24 90q98 30 221 30l-28 -419q-132 -12 -219 16q-11 46 -11 94h-319l-35 -450h387q13 87 43 165q40 13 112 22 t126 9l-31 -393h-1145zM596 1731q0 70 51.5 116.5t128.5 46.5q78 0 126 -44t48 -119q0 -82 -49 -129.5t-125 -47.5q-87 0 -133.5 45t-46.5 132z" />
<glyph unicode="&#x117;" horiz-adv-x="962" d="M23 352q0 132 39.5 265.5t113.5 226.5q146 180 389 180q151 0 233.5 -69.5t82.5 -194.5q0 -52 -15 -98t-54.5 -92.5t-101.5 -81.5t-163 -60.5t-232 -34.5v-26q0 -89 34 -126.5t104 -37.5q85 0 187.5 25.5t174.5 62.5q0 -42 -18 -103.5t-41 -101.5q-68 -51 -162 -86 t-203 -35q-368 0 -368 387zM334 578q83 6 139 23t81.5 43t34.5 50.5t9 55.5q0 92 -72 92q-41 0 -79 -29t-64 -74q-36 -57 -49 -161zM391 1335q0 70 46.5 116t115.5 46q73 0 116.5 -43t43.5 -119q0 -81 -44.5 -127.5t-115.5 -46.5q-79 0 -120.5 44t-41.5 130z" />
<glyph unicode="&#x118;" horiz-adv-x="1308" d="M8 0q5 40 21.5 97t33.5 87q51 20 142 33l90 1022q-79 8 -129 25q-3 36 0 96.5t12 91.5h1082l-35 -371q-133 0 -224 31q-10 62 -10 148h-397l-29 -424h318q4 22 24 90q98 30 221 30l-28 -419q-132 -12 -219 16q-11 46 -11 94h-319l-35 -450h387q13 87 43 165q40 13 112 22 t126 9l-31 -393h-104q-109 -52 -162 -106t-53 -125q0 -40 24.5 -60t67.5 -20q23 0 59 8q12 -28 20.5 -77.5t8.5 -90.5q-34 -14 -88.5 -22.5t-94.5 -8.5q-116 0 -196 57t-80 160q0 206 248 267v18h-795z" />
<glyph unicode="&#x119;" horiz-adv-x="962" d="M23 352q0 132 39.5 265.5t113.5 226.5q146 180 389 180q151 0 233.5 -69.5t82.5 -194.5q0 -52 -15 -98t-54.5 -92.5t-101.5 -81.5t-163 -60.5t-232 -34.5v-26q0 -89 34 -126.5t104 -37.5q85 0 187.5 25.5t174.5 62.5q0 -42 -18 -103.5t-41 -101.5q-49 -38 -144 -80 q-96 -41 -147 -97t-51 -118q0 -36 23 -55t59 -19q24 0 51 9q26 -62 26 -150q-28 -13 -78 -22t-87 -9q-100 0 -169 50.5t-69 146.5q0 71 37.5 128.5t107.5 84.5v18q-143 19 -217.5 114.5t-74.5 264.5zM334 578q83 6 139 23t81.5 43t34.5 50.5t9 55.5q0 92 -72 92 q-41 0 -79 -29t-64 -74q-36 -57 -49 -161z" />
<glyph unicode="&#x11a;" horiz-adv-x="1308" d="M8 0q5 40 21.5 97t33.5 87q51 20 142 33l90 1022q-79 8 -129 25q-3 36 0 96.5t12 91.5h1082l-35 -371q-133 0 -224 31q-10 62 -10 148h-397l-29 -424h318q4 22 24 90q98 30 221 30l-28 -419q-132 -12 -219 16q-11 46 -11 94h-319l-35 -450h387q13 87 43 165q40 13 112 22 t126 9l-31 -393h-1145zM326 1812q29 32 95 62.5t120 38.5l266 -156l295 148q33 -11 70.5 -45t58.5 -66l-340 -235h-275z" />
<glyph unicode="&#x11b;" horiz-adv-x="962" d="M23 352q0 132 39.5 265.5t113.5 226.5q146 180 389 180q151 0 233.5 -69.5t82.5 -194.5q0 -52 -15 -98t-54.5 -92.5t-101.5 -81.5t-163 -60.5t-232 -34.5v-26q0 -89 34 -126.5t104 -37.5q85 0 187.5 25.5t174.5 62.5q0 -42 -18 -103.5t-41 -101.5q-68 -51 -162 -86 t-203 -35q-368 0 -368 387zM152 1475q28 28 86 51t100 26l215 -198l270 200q35 -11 80 -39.5t68 -56.5l-353 -315l-223 -10zM334 578q83 6 139 23t81.5 43t34.5 50.5t9 55.5q0 92 -72 92q-41 0 -79 -29t-64 -74q-36 -57 -49 -161z" />
<glyph unicode="&#x11c;" horiz-adv-x="1501" d="M80 606q0 253 107.5 455t302.5 317t442 115q245 0 440 -127q-8 -82 -30.5 -195t-45.5 -178q-54 0 -130.5 18.5t-108.5 37.5l20 208q-74 41 -176 41q-134 0 -245 -81.5t-177.5 -235.5t-66.5 -352q0 -457 370 -457q68 0 170 12l37 348q-140 0 -248 23q-16 82 -16 184h733 q-8 -94 -43 -184q-70 -16 -141 -20l-41 -474q-106 -36 -270.5 -69t-290.5 -33q-284 0 -438 174t-154 473zM453 1718l325 207h266l287 -221q-15 -40 -54 -90t-73 -72l-325 166l-390 -174q-36 65 -36 184z" />
<glyph unicode="&#x11d;" horiz-adv-x="1044" d="M-8 -287q0 58 14 105q83 -50 171 -77.5t157 -27.5q62 0 105 17t68 51t38 72.5t20 93.5q13 113 62 223h-33q-40 -84 -111.5 -134t-167.5 -50q-138 0 -218.5 93.5t-80.5 287.5q0 123 39 240.5t113 211.5q163 205 446 205q95 0 185.5 -30t158.5 -76l-94 -883 q-10 -95 -30 -171.5t-59.5 -147.5t-96 -119t-142.5 -76.5t-196 -28.5q-163 0 -315 49q-33 81 -33 172zM244 1296l276 252l209 13l234 -318q-22 -34 -66.5 -67.5t-83.5 -45.5l-209 216l-289 -220q-24 26 -45 77.5t-26 92.5zM313 389q0 -102 28.5 -143t86.5 -41q50 0 102 42.5 t91 119.5l45 464q-30 9 -72 9q-56 0 -109.5 -34.5t-89.5 -86.5q-40 -59 -61 -152.5t-21 -177.5z" />
<glyph unicode="&#x11e;" horiz-adv-x="1501" d="M80 606q0 253 107.5 455t302.5 317t442 115q245 0 440 -127q-8 -82 -30.5 -195t-45.5 -178q-54 0 -130.5 18.5t-108.5 37.5l20 208q-74 41 -176 41q-134 0 -245 -81.5t-177.5 -235.5t-66.5 -352q0 -457 370 -457q68 0 170 12l37 348q-140 0 -248 23q-16 82 -16 184h733 q-8 -94 -43 -184q-70 -16 -141 -20l-41 -474q-106 -36 -270.5 -69t-290.5 -33q-284 0 -438 174t-154 473zM463 1864q28 30 88.5 56t118.5 32q31 -160 217 -160q91 0 160.5 37.5t107.5 107.5q93 0 174 -57q-39 -148 -165.5 -236t-315.5 -88q-175 0 -274 81t-111 227z" />
<glyph unicode="&#x11f;" horiz-adv-x="1044" d="M-8 -287q0 58 14 105q83 -50 171 -77.5t157 -27.5q62 0 105 17t68 51t38 72.5t20 93.5q13 113 62 223h-33q-40 -84 -111.5 -134t-167.5 -50q-138 0 -218.5 93.5t-80.5 287.5q0 123 39 240.5t113 211.5q163 205 446 205q95 0 185.5 -30t158.5 -76l-94 -883 q-10 -95 -30 -171.5t-59.5 -147.5t-96 -119t-142.5 -76.5t-196 -28.5q-163 0 -315 49q-33 81 -33 172zM236 1462q25 25 76 46.5t100 29.5q12 -186 166 -186q74 0 125 44.5t88 131.5q45 -3 94 -17.5t76 -33.5q-44 -156 -152 -247t-264 -91q-150 0 -228 84.5t-81 238.5z M313 389q0 -102 28.5 -143t86.5 -41q50 0 102 42.5t91 119.5l45 464q-30 9 -72 9q-56 0 -109.5 -34.5t-89.5 -86.5q-40 -59 -61 -152.5t-21 -177.5z" />
<glyph unicode="&#x120;" horiz-adv-x="1501" d="M80 606q0 253 107.5 455t302.5 317t442 115q245 0 440 -127q-8 -82 -30.5 -195t-45.5 -178q-54 0 -130.5 18.5t-108.5 37.5l20 208q-74 41 -176 41q-134 0 -245 -81.5t-177.5 -235.5t-66.5 -352q0 -457 370 -457q68 0 170 12l37 348q-140 0 -248 23q-16 82 -16 184h733 q-8 -94 -43 -184q-70 -16 -141 -20l-41 -474q-106 -36 -270.5 -69t-290.5 -33q-284 0 -438 174t-154 473zM717 1731q0 70 51.5 116.5t128.5 46.5q78 0 126 -44t48 -119q0 -82 -49 -129.5t-125 -47.5q-87 0 -133.5 45t-46.5 132z" />
<glyph unicode="&#x121;" horiz-adv-x="1044" d="M-8 -287q0 58 14 105q83 -50 171 -77.5t157 -27.5q62 0 105 17t68 51t38 72.5t20 93.5q13 113 62 223h-33q-40 -84 -111.5 -134t-167.5 -50q-138 0 -218.5 93.5t-80.5 287.5q0 123 39 240.5t113 211.5q163 205 446 205q95 0 185.5 -30t158.5 -76l-94 -883 q-10 -95 -30 -171.5t-59.5 -147.5t-96 -119t-142.5 -76.5t-196 -28.5q-163 0 -315 49q-33 81 -33 172zM313 389q0 -102 28.5 -143t86.5 -41q50 0 102 42.5t91 119.5l45 464q-30 9 -72 9q-56 0 -109.5 -34.5t-89.5 -86.5q-40 -59 -61 -152.5t-21 -177.5zM418 1335 q0 70 46.5 116t115.5 46q73 0 116 -43t43 -119q0 -81 -44 -127.5t-115 -46.5q-79 0 -120.5 44t-41.5 130z" />
<glyph unicode="&#x122;" horiz-adv-x="1501" d="M80 606q0 253 107.5 455t302.5 317t442 115q245 0 440 -127q-8 -82 -30.5 -195t-45.5 -178q-54 0 -130.5 18.5t-108.5 37.5l20 208q-74 41 -176 41q-134 0 -245 -81.5t-177.5 -235.5t-66.5 -352q0 -457 370 -457q68 0 170 12l37 348q-140 0 -248 23q-16 82 -16 184h733 q-8 -94 -43 -184q-70 -16 -141 -20l-41 -474q-106 -36 -270.5 -69t-290.5 -33q-284 0 -438 174t-154 473zM471 -631q93 186 125 320l-104 22q18 46 48.5 99t57.5 81q54 13 107 13q97 0 188 -33q-29 -121 -117 -295.5t-164 -275.5q-35 9 -79.5 30.5t-61.5 38.5z" />
<glyph unicode="&#x123;" horiz-adv-x="1044" d="M-8 -287q0 58 14 105q83 -50 171 -77.5t157 -27.5q62 0 105 17t68 51t38 72.5t20 93.5q13 113 62 223h-33q-40 -84 -111.5 -134t-167.5 -50q-138 0 -218.5 93.5t-80.5 287.5q0 123 39 240.5t113 211.5q163 205 446 205q95 0 185.5 -30t158.5 -76l-94 -883 q-10 -95 -30 -171.5t-59.5 -147.5t-96 -119t-142.5 -76.5t-196 -28.5q-163 0 -315 49q-33 81 -33 172zM313 389q0 -102 28.5 -143t86.5 -41q50 0 102 42.5t91 119.5l45 464q-30 9 -72 9q-56 0 -109.5 -34.5t-89.5 -86.5q-40 -59 -61 -152.5t-21 -177.5zM401 1231 q38 107 100 219t126 195q52 18 174 18q-31 -64 -69.5 -159t-57.5 -156l108 -27q-12 -37 -46.5 -91t-65.5 -83q-71 8 -147 31t-122 53z" />
<glyph unicode="&#x124;" horiz-adv-x="1685" d="M12 0q6 40 23.5 97.5t34.5 86.5q48 19 141 33l96 1022q-79 8 -129 25q-3 35 1.5 96t13.5 92h569q3 -31 -4.5 -93.5t-18.5 -94.5q-63 -19 -135 -23l-29 -401h572l37 399q-70 8 -117 25q-2 40 2 99.5t14 88.5h570q3 -31 -4.5 -93.5t-18.5 -94.5q-71 -19 -149 -23l-80 -1024 q80 -6 158 -29q6 -34 3 -95t-12 -93h-645q6 40 22.5 97t30.5 87q48 20 129 33l39 420h-569l-33 -420q74 -6 144 -29q6 -34 3 -95t-12 -93h-647zM520 1718l326 207h266l287 -221q-15 -40 -54 -90t-73 -72l-326 166l-389 -174q-37 67 -37 184z" />
<glyph unicode="&#x125;" horiz-adv-x="1153" d="M-31 1692l318 202h260l276 -215q-15 -40 -51 -85.5t-70 -67.5l-315 162l-381 -170q-37 67 -37 174zM43 8l172 1272l-139 -14q0 35 16.5 97.5t36.5 80.5q97 57 260 57q56 0 123 -18l-31 -295q-15 -153 -69 -332h30q106 168 289 168q53 0 98 -14.5t84 -46t61.5 -88.5 t22.5 -134q0 -33 -4 -80t-12 -110t-14 -106t-18 -119.5t-15 -98.5q0 -18 8 -34l150 14q0 -36 -17.5 -93.5t-38.5 -90.5q-52 -22 -151.5 -40t-163.5 -18q-30 29 -62 91t-32 98q75 392 75 534q0 127 -92 127q-52 0 -102.5 -44.5t-87.5 -104.5l-72 -658q-79 -14 -174 -14 q-82 0 -131 14z" />
<glyph unicode="&#x126;" horiz-adv-x="1705" d="M23 0q6 41 23.5 98t33.5 86q48 19 141 33l70 731h-137q9 94 43 180h110l12 125q-74 7 -131 23q-3 33 1.5 89.5t13.5 86.5h569q3 -29 -4 -87t-18 -89q-73 -18 -134 -21l-10 -127h578l12 125q-65 7 -119 23q-2 37 2.5 92.5t14.5 83.5h569q3 -29 -4.5 -87t-18.5 -89 q-83 -18 -147 -21l-10 -127h135q8 -96 -14 -180h-136l-57 -731q80 -6 158 -29q6 -34 3.5 -95t-11.5 -93h-646q6 40 22.5 97t31.5 87q48 20 129 33l37 377h-574l-26 -377q73 -6 143 -29q6 -34 3.5 -95t-11.5 -93h-647zM580 797h575l12 151h-575z" />
<glyph unicode="&#x127;" d="M49 8l146 1077h-127q6 77 34 148h111l10 65l-139 -14q0 30 16 86.5t35 73.5q97 57 260 57q56 0 123 -18l-24 -250h337q8 -73 -12 -148h-344q-15 -104 -57 -247h31q106 168 288 168q53 0 98.5 -14t84.5 -44.5t61.5 -86.5t22.5 -132q0 -32 -4 -78t-12 -106.5t-15 -105 t-18 -115.5t-15 -97q0 -18 8 -34l150 14q0 -36 -17.5 -93.5t-38.5 -90.5q-52 -22 -151.5 -40t-163.5 -18q-30 29 -62 91t-32 98q76 386 76 520q0 123 -93 123q-51 0 -101.5 -44t-88.5 -102l-72 -643q-79 -14 -174 -14q-82 0 -131 14z" />
<glyph unicode="&#x128;" horiz-adv-x="806" d="M10 0q6 40 23.5 97.5t34.5 86.5q51 20 141 33l96 1022q-79 8 -129 25q-3 35 1 96t13 92h586q3 -32 -3.5 -94.5t-16.5 -93.5q-71 -19 -150 -23l-84 -1024q80 -6 158 -29q5 -32 3 -94.5t-11 -93.5h-662zM20 1675q32 101 115 165.5t211 64.5q56 0 104.5 -14.5t77 -32t69 -32 t83.5 -14.5q85 0 121 84q92 0 166 -41q-7 -54 -31 -104t-65 -92.5t-106 -68t-144 -25.5q-51 0 -97 15t-75.5 33t-72 33t-85.5 15q-42 0 -74 -28.5t-45 -61.5q-47 7 -87 36t-65 68z" />
<glyph unicode="&#x129;" horiz-adv-x="602" d="M-82 1274q25 97 98 158t187 61q47 0 86.5 -13.5t63 -29.5t55 -29.5t63.5 -13.5q70 0 107 76q107 0 161 -35q-17 -109 -98.5 -190.5t-210.5 -81.5q-43 0 -82.5 14t-64 30t-58 30t-67.5 14q-77 0 -107 -78q-42 6 -80 31t-53 57zM23 776q0 33 16.5 96.5t34.5 81.5 q99 58 262 58q57 0 127 -19l-96 -766q0 -18 8 -34l149 14q0 -36 -17.5 -93.5t-37.5 -90.5q-53 -22 -148.5 -40t-158.5 -18q-30 29 -62 91t-32 98l98 634z" />
<glyph unicode="&#x12a;" horiz-adv-x="806" d="M10 0q6 40 23.5 97.5t34.5 86.5q51 20 141 33l96 1022q-79 8 -129 25q-3 35 1 96t13 92h586q3 -32 -3.5 -94.5t-16.5 -93.5q-71 -19 -150 -23l-84 -1024q80 -6 158 -29q5 -32 3 -94.5t-11 -93.5h-662zM104 1614q10 123 52 229h743q5 -46 0 -113t-18 -116h-777z" />
<glyph unicode="&#x12b;" horiz-adv-x="602" d="M14 1223q10 118 47 209h588q5 -39 0.5 -101.5t-16.5 -107.5h-619zM23 776q0 33 16.5 96.5t34.5 81.5q99 58 262 58q57 0 127 -19l-96 -766q0 -18 8 -34l149 14q0 -36 -17.5 -93.5t-37.5 -90.5q-53 -22 -148.5 -40t-158.5 -18q-30 29 -62 91t-32 98l98 634z" />
<glyph unicode="&#x12c;" horiz-adv-x="806" d="M10 0q6 40 23.5 97.5t34.5 86.5q51 20 141 33l96 1022q-79 8 -129 25q-3 35 1 96t13 92h586q3 -32 -3.5 -94.5t-16.5 -93.5q-71 -19 -150 -23l-84 -1024q80 -6 158 -29q5 -32 3 -94.5t-11 -93.5h-662zM76 1864q28 30 88.5 56t118.5 32q31 -160 217 -160q91 0 160.5 37.5 t107.5 107.5q93 0 174 -57q-39 -148 -165.5 -236t-315.5 -88q-175 0 -274 81t-111 227z" />
<glyph unicode="&#x12d;" horiz-adv-x="602" d="M-12 1462q25 25 76 46.5t100 29.5q12 -186 166 -186q74 0 125 44.5t88 131.5q45 -3 94 -17.5t76 -33.5q-44 -156 -152 -247t-264 -91q-150 0 -228 84.5t-81 238.5zM23 776q0 33 16.5 96.5t34.5 81.5q99 58 262 58q57 0 127 -19l-96 -766q0 -18 8 -34l149 14 q0 -36 -17.5 -93.5t-37.5 -90.5q-53 -22 -148.5 -40t-158.5 -18q-30 29 -62 91t-32 98l98 634z" />
<glyph unicode="&#x12e;" horiz-adv-x="806" d="M10 0q6 40 23.5 97.5t34.5 86.5q51 20 141 33l96 1022q-79 8 -129 25q-3 35 1 96t13 92h586q3 -32 -3.5 -94.5t-16.5 -93.5q-71 -19 -150 -23l-84 -1024q80 -6 158 -29q5 -32 3 -94.5t-11 -93.5h-99q-109 -52 -162 -106t-53 -125q0 -40 25 -60t68 -20q23 0 59 8 q12 -28 20.5 -77.5t8.5 -90.5q-34 -14 -88.5 -22.5t-94.5 -8.5q-116 0 -196 57t-80 160q0 100 60.5 169.5t183.5 97.5v18h-314z" />
<glyph unicode="&#x12f;" horiz-adv-x="602" d="M-14 -258q0 80 45 137t123 84v19q-29 19 -60 77t-31 95l103 634l-143 -12q0 33 16.5 96.5t34.5 81.5q99 58 262 58q57 0 127 -19l-90 -766q0 -18 8 -34l143 14q0 -36 -17.5 -93.5t-37.5 -90.5q-113 -49 -176.5 -108.5t-63.5 -123.5q0 -36 23 -55t59 -19q24 0 51 9 q27 -64 27 -150q-28 -13 -78.5 -22t-87.5 -9q-100 0 -168.5 50.5t-68.5 146.5zM176 1391q0 76 50.5 126t125.5 50q78 0 125 -46.5t47 -129.5q0 -87 -48.5 -138t-123.5 -51q-176 0 -176 189z" />
<glyph unicode="&#x130;" horiz-adv-x="806" d="M10 0q6 40 23.5 97.5t34.5 86.5q51 20 141 33l96 1022q-79 8 -129 25q-3 35 1 96t13 92h586q3 -32 -3.5 -94.5t-16.5 -93.5q-71 -19 -150 -23l-84 -1024q80 -6 158 -29q5 -32 3 -94.5t-11 -93.5h-662zM322 1731q0 70 51.5 116.5t128.5 46.5q78 0 126 -44t48 -119 q0 -82 -49 -129.5t-125 -47.5q-87 0 -133.5 45t-46.5 132z" />
<glyph unicode="&#x131;" horiz-adv-x="602" d="M23 776q0 33 16.5 96.5t34.5 81.5q99 58 262 58q57 0 127 -19l-96 -766q0 -18 8 -34l149 14q0 -36 -17.5 -93.5t-37.5 -90.5q-53 -22 -148.5 -40t-158.5 -18q-30 29 -62 91t-32 98l98 634z" />
<glyph unicode="&#x133;" horiz-adv-x="1179" d="M23 776q0 33 16.5 96.5t34.5 81.5q99 58 262 58q57 0 127 -19l-90 -766q0 -18 8 -34l143 14q0 -36 -17.5 -93.5t-37.5 -90.5q-53 -22 -150 -40t-161 -18q-31 29 -63 91.5t-32 97.5l103 634zM176 1391q0 76 50.5 126t125.5 50q78 0 125 -46.5t47 -129.5q0 -87 -48.5 -138 t-123.5 -51q-176 0 -176 189zM422 -362q97 100 174 256t100 329l76 565l-143 -12q0 33 16.5 96.5t34.5 81.5q99 58 262 58q57 0 127 -19l-78 -694q-47 -438 -424 -784q-40 18 -82 53t-63 70zM758 1391q0 76 50.5 126t125.5 50q78 0 125 -46.5t47 -129.5q0 -87 -48.5 -138 t-123.5 -51q-176 0 -176 189z" />
<glyph unicode="&#x134;" horiz-adv-x="739" d="M-158 -211q338 190 379 653l70 797q-98 7 -168 25q-4 33 0.5 94t13.5 94h623q3 -31 -4.5 -93.5t-18.5 -94.5q-66 -19 -147 -23l-55 -745q-23 -304 -179 -525t-432 -346q-27 28 -51.5 77t-30.5 87zM41 1718l326 207h266l287 -221q-15 -40 -54 -90t-73 -72l-326 166 l-389 -174q-37 67 -37 184z" />
<glyph unicode="&#x135;" horiz-adv-x="571" d="M-180 -362q97 100 174 256t100 329l76 565l-143 -12q0 33 16.5 96.5t34.5 81.5q99 58 262 58q57 0 127 -19l-78 -694q-47 -438 -424 -784q-40 18 -82 53t-63 70zM8 1296l277 252l209 13l233 -318q-22 -34 -66 -67.5t-83 -45.5l-209 216l-289 -220q-24 26 -45.5 77.5 t-26.5 92.5z" />
<glyph unicode="&#x136;" horiz-adv-x="1519" d="M16 0q6 40 23.5 97.5t34.5 86.5q45 17 141 33l96 1022q-79 8 -129 25q-3 35 1.5 96t13.5 92h569q3 -31 -4.5 -93.5t-18.5 -94.5q-64 -19 -133 -23l-32 -412h124l240 304q48 67 105 108q-55 7 -103 21q-7 36 -7 92.5t5 97.5h571q-16 -110 -55 -203q-46 -9 -127 -14 l-407 -481l379 -543l131 8q-3 -48 -25.5 -113.5t-48.5 -105.5q-138 -34 -285 -41l-428 682h-82l-35 -424q71 -6 142 -29q6 -34 3.5 -95t-11.5 -93h-648zM528 -631q93 186 125 320l-104 22q18 46 48.5 99t57.5 81q54 13 107 13q97 0 188 -33q-30 -121 -117 -296t-163 -275 q-35 9 -80 30.5t-62 38.5z" />
<glyph unicode="&#x137;" horiz-adv-x="1071" d="M37 8l158 1272l-140 -14q0 34 17 96.5t37 81.5q97 57 260 57q60 0 127 -18l-103 -961q179 113 303 246q0 21 -8 37l-131 -6q5 45 26 100.5t46 77.5q41 16 130.5 25.5t149.5 9.5q26 -23 59 -96t33 -113q-73 -90 -147 -163t-172 -138q78 -163 192 -318l121 15 q0 -39 -17 -102.5t-38 -102.5q-80 -30 -240 -43q-116 135 -245 424q-37 -21 -78 -37l-35 -330q-79 -14 -174 -14q-82 0 -131 14zM254 -610q73 166 111 295l-101 20q50 118 105 176q47 13 102 13q101 0 184 -27q-33 -115 -116 -283t-152 -264q-30 8 -70.5 30.5t-62.5 39.5z " />
<glyph unicode="&#x138;" horiz-adv-x="1110" d="M25 776q0 35 16.5 97.5t36.5 80.5q99 58 260 58q61 0 127 -19l-47 -471q189 115 317 246q0 21 -8 37l-131 -6q7 46 28.5 101t45.5 77q43 16 132.5 25.5t149.5 9.5q24 -23 56 -96t32 -113q-146 -179 -333 -301q42 -85 99 -174t103 -144l121 15q0 -38 -17.5 -101.5 t-39.5 -103.5q-79 -30 -242 -43q-111 126 -248 424q-22 -12 -84 -37l-39 -330q-79 -14 -172 -14q-82 0 -131 14l107 783z" />
<glyph unicode="&#x139;" horiz-adv-x="1286" d="M14 0q6 40 23.5 97.5t34.5 86.5q57 21 141 33l96 1022q-79 8 -129 25q-3 35 1.5 96t13.5 92h641q3 -31 -5 -93.5t-20 -94.5q-88 -19 -205 -23l-82 -1040h394q19 102 49 200q44 16 117 25.5t128 9.5l-38 -436h-1160zM370.5 1634.5q-4.5 58.5 0.5 96.5l489 233 q38 -34 77 -99.5t54 -121.5l-606 -205q-10 38 -14.5 96.5z" />
<glyph unicode="&#x13a;" horiz-adv-x="583" d="M47 154l152 1126l-140 -14q0 34 17 96.5t37 81.5q97 57 260 57q60 0 127 -18l-144 -1256q0 -16 9 -34l143 14q0 -36 -17.5 -93.5t-37.5 -90.5q-53 -22 -150 -40t-162 -18q-30 29 -62 91t-32 98zM113 1716l497 238q38 -34 74 -94.5t51 -116.5l-606 -205q-23 85 -16 178z " />
<glyph unicode="&#x13b;" horiz-adv-x="1286" d="M14 0q6 40 23.5 97.5t34.5 86.5q57 21 141 33l96 1022q-79 8 -129 25q-3 35 1.5 96t13.5 92h641q3 -31 -5 -93.5t-20 -94.5q-88 -19 -205 -23l-82 -1040h394q19 102 49 200q44 16 117 25.5t128 9.5l-38 -436h-1160zM449 -631q91 182 124 320l-104 22q18 46 48.5 99 t57.5 81q54 13 107 13q97 0 188 -33q-30 -121 -117 -296t-163 -275q-35 9 -79.5 30.5t-61.5 38.5z" />
<glyph unicode="&#x13c;" horiz-adv-x="583" d="M-16 -610q70 159 110 295l-100 20q51 120 104 176q47 13 103 13q101 0 184 -27q-33 -115 -116 -283t-152 -264q-30 8 -70.5 30.5t-62.5 39.5zM47 154l152 1126l-140 -14q0 34 17 96.5t37 81.5q97 57 260 57q60 0 127 -18l-144 -1256q0 -16 9 -34l143 14 q0 -36 -17.5 -93.5t-37.5 -90.5q-53 -22 -150 -40t-162 -18q-30 29 -62 91t-32 98z" />
<glyph unicode="&#x13d;" horiz-adv-x="1306" d="M14 0q6 40 23.5 97.5t34.5 86.5q57 21 141 33l96 1022q-79 8 -129 25q-3 35 1.5 96t13.5 92h641q3 -31 -5 -93.5t-20 -94.5q-88 -19 -205 -23l-82 -1040h394q19 102 49 200q44 16 117 25.5t128 9.5l-38 -436h-1160zM918 930q92 169 131 323l-107 23q15 41 45.5 91.5 t59.5 82.5q61 14 114 14q97 0 185 -32q-32 -121 -124 -298t-171 -278q-36 9 -75 31t-58 43z" />
<glyph unicode="&#x13e;" horiz-adv-x="583" d="M47 154l152 1126l-140 -14q0 34 17 96.5t37 81.5q97 57 260 57q60 0 127 -18l-144 -1256q0 -16 9 -34l143 14q0 -36 -17.5 -93.5t-37.5 -90.5q-53 -22 -150 -40t-162 -18q-30 29 -62 91t-32 98zM557 1024q75 138 119 295l-88 20q15 40 44 88t56 78q46 11 96 11 q93 0 174 -31q-33 -113 -116.5 -273.5t-155.5 -255.5q-29 7 -69.5 29t-59.5 39z" />
<glyph unicode="&#x13f;" horiz-adv-x="1372" d="M14 0q6 40 23.5 97.5t34.5 86.5q57 21 141 33l96 1022q-79 8 -129 25q-3 35 1.5 96t13.5 92h641q3 -31 -5 -93.5t-20 -94.5q-88 -19 -205 -23l-82 -1040h394q19 102 49 200q44 16 117 25.5t128 9.5l-38 -436h-1160zM985 764q0 70 51.5 117t128.5 47q78 0 126 -44.5 t48 -119.5q0 -82 -49 -129t-125 -47q-87 0 -133.5 44.5t-46.5 131.5z" />
<glyph unicode="&#x140;" horiz-adv-x="921" d="M47 154l152 1126l-140 -14q0 34 17 96.5t37 81.5q97 57 260 57q60 0 127 -18l-144 -1256q0 -16 9 -34l143 14q0 -36 -17.5 -93.5t-37.5 -90.5q-53 -22 -150 -40t-162 -18q-30 29 -62 91t-32 98zM580 776q0 70 46 116t115 46q73 0 116.5 -43t43.5 -119q0 -81 -44.5 -127.5 t-115.5 -46.5q-78 0 -119.5 44t-41.5 130z" />
<glyph unicode="&#x141;" horiz-adv-x="1306" d="M25 0q6 41 23.5 98t33.5 86q57 21 141 33l27 279l-135 -80q-17 36 -27 98t-10 115l196 116l45 494q-79 8 -129 25q-3 35 1.5 96t13.5 92h641q3 -31 -5 -93.5t-20 -94.5q-88 -19 -205 -23l-28 -330l237 142q23 -24 52 -81t38 -93l-346 -209l-34 -469h393q19 102 49 200 q44 16 117 25.5t129 9.5l-39 -436h-1159z" />
<glyph unicode="&#x142;" horiz-adv-x="712" d="M-18 653l202 107l72 520l-139 -14q0 35 16.5 97.5t36.5 80.5q97 57 260 57q60 0 127 -18l-47 -418q-10 -89 -33 -176l137 76q20 -22 40.5 -70t23.5 -80l-209 -119l-55 -469q0 -18 8 -34l143 14q0 -36 -17.5 -93.5t-37.5 -90.5q-53 -22 -150 -40t-161 -18q-31 29 -63 91.5 t-32 97.5l29 229q9 86 35 172l-156 -88q-12 27 -21 86t-9 100z" />
<glyph unicode="&#x143;" horiz-adv-x="1581" d="M10 0q17 106 51 184q54 20 132 33l96 1022q-79 8 -129 25q-3 35 1 96t13 92h510l346 -799q58 -132 72 -309h24l84 895q-86 7 -149 25q-3 36 1.5 96.5t14.5 91.5h502q3 -31 -4.5 -93.5t-18.5 -94.5q-58 -19 -135 -23l-106 -1257h-328l-373 886q-27 63 -49 149t-26 150h-25 l-76 -952q77 -7 146 -29q6 -34 3 -95t-12 -93h-565zM749.5 1634.5q-4.5 58.5 0.5 96.5l489 233q38 -34 77 -99.5t54 -121.5l-606 -205q-10 38 -14.5 96.5z" />
<glyph unicode="&#x144;" horiz-adv-x="1155" d="M25 776q0 33 16.5 96.5t34.5 81.5q89 58 219 58q56 0 115 -19l-19 -176h31q102 207 311 207q53 0 98 -14.5t84 -46t61.5 -88.5t22.5 -134q0 -33 -4 -80t-12 -110t-14 -106t-18 -119.5t-15 -98.5q0 -18 8 -34l150 14q0 -36 -17.5 -93.5t-38.5 -90.5q-52 -22 -151.5 -40 t-163.5 -18q-30 29 -62 91t-32 98q76 397 76 534q0 127 -93 127q-49 0 -98.5 -41.5t-83.5 -97.5l-74 -668q-79 -14 -174 -14q-82 0 -131 14l117 780zM451 1231l288 346q63 0 148 -27.5t117 -64.5l-420 -369q-37 13 -77.5 48.5t-55.5 66.5z" />
<glyph unicode="&#x145;" horiz-adv-x="1581" d="M10 0q17 106 51 184q54 20 132 33l96 1022q-79 8 -129 25q-3 35 1 96t13 92h510l346 -799q58 -132 72 -309h24l84 895q-86 7 -149 25q-3 36 1.5 96.5t14.5 91.5h502q3 -31 -4.5 -93.5t-18.5 -94.5q-58 -19 -135 -23l-106 -1257h-328l-373 886q-27 63 -49 149t-26 150h-25 l-76 -952q77 -7 146 -29q6 -34 3 -95t-12 -93h-565zM510 -631q93 186 125 320l-105 22q18 46 49 99t58 81q54 13 106 13q98 0 189 -33q-29 -121 -117 -295.5t-164 -275.5q-35 9 -79.5 30.5t-61.5 38.5z" />
<glyph unicode="&#x146;" horiz-adv-x="1155" d="M25 776q0 33 16.5 96.5t34.5 81.5q89 58 219 58q56 0 115 -19l-19 -176h31q102 207 311 207q53 0 98 -14.5t84 -46t61.5 -88.5t22.5 -134q0 -33 -4 -80t-12 -110t-14 -106t-18 -119.5t-15 -98.5q0 -18 8 -34l150 14q0 -36 -17.5 -93.5t-38.5 -90.5q-52 -22 -151.5 -40 t-163.5 -18q-30 29 -62 91t-32 98q76 397 76 534q0 127 -93 127q-49 0 -98.5 -41.5t-83.5 -97.5l-74 -668q-79 -14 -174 -14q-82 0 -131 14l117 780zM276 -610q73 166 111 295l-100 20q51 120 104 176q47 13 103 13q101 0 184 -27q-33 -115 -116 -283t-152 -264 q-30 8 -71.5 30.5t-62.5 39.5z" />
<glyph unicode="&#x147;" horiz-adv-x="1581" d="M10 0q17 106 51 184q54 20 132 33l96 1022q-79 8 -129 25q-3 35 1 96t13 92h510l346 -799q58 -132 72 -309h24l84 895q-86 7 -149 25q-3 36 1.5 96.5t14.5 91.5h502q3 -31 -4.5 -93.5t-18.5 -94.5q-58 -19 -135 -23l-106 -1257h-328l-373 886q-27 63 -49 149t-26 150h-25 l-76 -952q77 -7 146 -29q6 -34 3 -95t-12 -93h-565zM446 1812q29 32 95 62.5t121 38.5l266 -156l295 148q33 -11 70.5 -45t58.5 -66l-340 -235h-275z" />
<glyph unicode="&#x148;" horiz-adv-x="1155" d="M25 776q0 33 16.5 96.5t34.5 81.5q89 58 219 58q56 0 115 -19l-19 -176h31q102 207 311 207q53 0 98 -14.5t84 -46t61.5 -88.5t22.5 -134q0 -33 -4 -80t-12 -110t-14 -106t-18 -119.5t-15 -98.5q0 -18 8 -34l150 14q0 -36 -17.5 -93.5t-38.5 -90.5q-52 -22 -151.5 -40 t-163.5 -18q-30 29 -62 91t-32 98q76 397 76 534q0 127 -93 127q-49 0 -98.5 -41.5t-83.5 -97.5l-74 -668q-79 -14 -174 -14q-82 0 -131 14l117 780zM262 1475q28 28 86.5 51t100.5 26l215 -198l270 200q35 -11 79.5 -39.5t67.5 -56.5l-352 -315l-223 -10z" />
<glyph unicode="&#x14a;" horiz-adv-x="1550" d="M10 0q17 106 51 184q54 20 132 33l100 1022q-79 8 -129 25q-3 35 1 96t13 92h459l381 -678q32 -59 53.5 -147t26.5 -170h24l72 782q-87 7 -150 25q-3 36 2 96.5t15 91.5h508q3 -31 -4.5 -93.5t-18.5 -94.5q-58 -19 -135 -23l-86 -1003q-12 -135 -51 -258t-97 -218.5 t-121 -168.5t-134 -128q-30 19 -61 55t-46 70q80 68 155.5 196t96.5 241l-438 761q-35 61 -59 151.5t-29 164.5h-25l-76 -887q77 -7 146 -29q6 -34 3.5 -95t-11.5 -93h-568z" />
<glyph unicode="&#x14b;" horiz-adv-x="1085" d="M25 776q0 33 16.5 96.5t34.5 81.5q89 58 219 58q56 0 115 -19l-19 -176h31q105 207 321 207q271 0 271 -307q0 -83 -15.5 -222t-33.5 -223q-39 -189 -150.5 -372t-271.5 -312q-40 18 -77 55.5t-56 77.5q201 189 260 515q51 278 51 432q0 75 -21.5 111t-72.5 36 q-56 0 -107.5 -40.5t-89.5 -98.5l-74 -668q-79 -14 -174 -14q-82 0 -131 14l117 780z" />
<glyph unicode="&#x14c;" horiz-adv-x="1458" d="M96 616q0 253 91 452.5t260 312t387 112.5q270 0 421.5 -172t151.5 -498q0 -256 -92 -452t-261.5 -304t-391.5 -108q-274 0 -420 168.5t-146 488.5zM375 1614q10 126 51 229h895q5 -46 0 -113t-18 -116h-928zM418 631q0 -223 72.5 -346t209.5 -123q117 0 207.5 91 t136.5 239t46 327q0 224 -74.5 348.5t-214.5 124.5q-93 0 -167.5 -55.5t-120.5 -149t-70.5 -210.5t-24.5 -246z" />
<glyph unicode="&#x14d;" horiz-adv-x="1067" d="M33 395q0 208 88 365q69 123 186 193.5t275 70.5q193 0 295 -108.5t102 -321.5q0 -228 -105 -393q-69 -110 -182.5 -173t-265.5 -63q-194 0 -293.5 108t-99.5 322zM244 1223q10 118 47 209h641q5 -40 0 -102t-17 -107h-671zM336 395q0 -124 31.5 -179.5t97.5 -55.5 q109 0 164 127q49 111 49 301q0 128 -28.5 185.5t-94.5 57.5q-107 0 -166 -131q-53 -116 -53 -305z" />
<glyph unicode="&#x14e;" horiz-adv-x="1458" d="M96 616q0 253 91 452.5t260 312t387 112.5q270 0 421.5 -172t151.5 -498q0 -256 -92 -452t-261.5 -304t-391.5 -108q-274 0 -420 168.5t-146 488.5zM418 631q0 -223 72.5 -346t209.5 -123q117 0 207.5 91t136.5 239t46 327q0 224 -74.5 348.5t-214.5 124.5 q-93 0 -167.5 -55.5t-120.5 -149t-70.5 -210.5t-24.5 -246zM428 1864q28 30 88.5 56t118.5 32q31 -160 217 -160q91 0 160.5 37.5t107.5 107.5q93 0 174 -57q-39 -148 -165.5 -236t-315.5 -88q-175 0 -274 81t-111 227z" />
<glyph unicode="&#x14f;" horiz-adv-x="1067" d="M33 395q0 208 88 365q69 123 186 193.5t275 70.5q193 0 295 -108.5t102 -321.5q0 -228 -105 -393q-69 -110 -182.5 -173t-265.5 -63q-194 0 -293.5 108t-99.5 322zM250 1462q25 25 76 46.5t100 29.5q12 -186 166 -186q74 0 125 44.5t88 131.5q45 -3 94 -17.5t76 -33.5 q-44 -156 -152 -247t-264 -91q-150 0 -228 84.5t-81 238.5zM336 395q0 -124 31.5 -179.5t97.5 -55.5q109 0 164 127q49 111 49 301q0 128 -28.5 185.5t-94.5 57.5q-107 0 -166 -131q-53 -116 -53 -305z" />
<glyph unicode="&#x150;" horiz-adv-x="1458" d="M96 616q0 253 91 452.5t260 312t387 112.5q270 0 421.5 -172t151.5 -498q0 -256 -92 -452t-261.5 -304t-391.5 -108q-274 0 -420 168.5t-146 488.5zM418 631q0 -223 72.5 -346t209.5 -123q117 0 207.5 91t136.5 239t46 327q0 224 -74.5 348.5t-214.5 124.5 q-93 0 -167.5 -55.5t-120.5 -149t-70.5 -210.5t-24.5 -246zM430 1679l352 332q62 -9 131.5 -49.5t108.5 -85.5l-494 -358q-30 23 -58.5 70.5t-39.5 90.5zM1024 1679l352 332q62 -9 131.5 -49.5t108.5 -85.5l-494 -358q-30 23 -58.5 70.5t-39.5 90.5z" />
<glyph unicode="&#x151;" horiz-adv-x="1067" d="M33 395q0 208 88 365q69 123 186 193.5t275 70.5q193 0 295 -108.5t102 -321.5q0 -228 -105 -393q-69 -110 -182.5 -173t-265.5 -63q-194 0 -293.5 108t-99.5 322zM221 1223l238 350q56 0 135.5 -27t110.5 -61l-353 -383q-38 13 -76.5 50t-54.5 71zM336 395 q0 -124 31.5 -179.5t97.5 -55.5q109 0 164 127q49 111 49 301q0 128 -28.5 185.5t-94.5 57.5q-107 0 -166 -131q-53 -116 -53 -305zM682 1223l238 350q56 0 135 -27t110 -61l-352 -383q-38 13 -76.5 50t-54.5 71z" />
<glyph unicode="&#x152;" horiz-adv-x="2045" d="M96 623q0 252 98 449.5t270.5 306t387.5 108.5q119 0 229 -35h916l-35 -371q-132 0 -223 31q-10 62 -10 148h-386l-28 -424h305q2 14 25 90q98 30 221 30l-29 -419q-132 -12 -219 16q-10 42 -10 94h-308l-34 -450h374q13 87 43 165q40 13 112 22t126 9l-31 -393h-944 q-118 -33 -246 -33q-292 0 -448 169.5t-156 486.5zM412 639q0 -231 84.5 -346t261.5 -115q117 0 205 43l90 1006q-81 51 -205 51q-108 0 -193 -51t-137 -139.5t-79 -202.5t-27 -246z" />
<glyph unicode="&#x153;" horiz-adv-x="1558" d="M33 395q0 207 88 367q66 121 180 191.5t268 70.5q100 0 178 -32t105 -87h18q37 58 124.5 88.5t183.5 30.5q145 0 225 -70.5t80 -193.5q0 -52 -14.5 -98t-53 -92.5t-98.5 -81.5t-158 -60.5t-225 -34.5v-26q0 -93 33 -128.5t108 -35.5t175 26.5t167 61.5q0 -42 -18 -103.5 t-41 -101.5q-66 -51 -159.5 -86t-201.5 -35q-103 0 -157.5 31t-94.5 90h-18q-125 -121 -311 -121q-188 0 -285.5 108.5t-97.5 321.5zM332 399q0 -128 31 -183.5t96 -55.5q104 0 159 127q50 114 50 301q0 127 -30 185t-93 58q-103 0 -158 -133q-55 -124 -55 -299zM948 582 q256 19 256 166q0 41 -18 65.5t-51 24.5q-38 0 -79.5 -29t-62.5 -68q-30 -59 -45 -159z" />
<glyph unicode="&#x154;" horiz-adv-x="1413" d="M12 0q6 40 23.5 97.5t34.5 86.5q45 17 141 33l94 1012q-77 0 -131 14q-6 73 12 199q245 31 566 31q116 0 212 -23.5t168 -70.5t112 -123t40 -175q0 -153 -90.5 -269.5t-230.5 -164.5q66 -152 142.5 -276t119.5 -158l108 12q0 -47 -18 -111.5t-41 -101.5 q-43 -13 -129 -27.5t-137 -17.5q-51 41 -154.5 241t-167.5 390q-81 0 -139 14l-29 -395q77 -7 146 -29q6 -34 3 -95t-12 -93h-643zM563 803q56 -12 158 -12q107 0 183.5 65t76.5 182q0 112 -73.5 175t-196.5 63q-51 0 -113 -8zM626.5 1634.5q-4.5 58.5 0.5 96.5l489 233 q38 -34 77 -99.5t54 -121.5l-606 -205q-10 38 -14.5 96.5z" />
<glyph unicode="&#x155;" horiz-adv-x="802" d="M4 776q0 33 16.5 96.5t34.5 81.5q89 58 219 58q56 0 115 -19l-22 -217h30q68 248 269 248q56 0 100 -14q20 -58 20 -136q0 -90 -22 -145q-63 37 -146 37q-71 0 -127 -45.5t-90 -120.5l-55 -592q-75 -14 -172 -14q-85 0 -131 14l104 780zM362 1231l289 346q62 0 147 -27.5 t117 -64.5l-419 -369q-37 13 -78 48.5t-56 66.5z" />
<glyph unicode="&#x156;" horiz-adv-x="1413" d="M12 0q6 40 23.5 97.5t34.5 86.5q45 17 141 33l94 1012q-77 0 -131 14q-6 73 12 199q245 31 566 31q116 0 212 -23.5t168 -70.5t112 -123t40 -175q0 -153 -90.5 -269.5t-230.5 -164.5q66 -152 142.5 -276t119.5 -158l108 12q0 -47 -18 -111.5t-41 -101.5 q-43 -13 -129 -27.5t-137 -17.5q-51 41 -154.5 241t-167.5 390q-81 0 -139 14l-29 -395q77 -7 146 -29q6 -34 3 -95t-12 -93h-643zM473 -631q93 186 125 320l-104 22q18 46 48.5 99t57.5 81q54 13 107 13q97 0 188 -33q-29 -121 -117 -295.5t-164 -275.5q-35 9 -79.5 30.5 t-61.5 38.5zM563 803q56 -12 158 -12q107 0 183.5 65t76.5 182q0 112 -73.5 175t-196.5 63q-51 0 -113 -8z" />
<glyph unicode="&#x157;" horiz-adv-x="802" d="M-78 -610q73 166 111 295l-101 20q50 118 105 176q47 13 102 13q102 0 185 -27q-33 -114 -116.5 -282.5t-152.5 -264.5q-30 8 -70.5 30.5t-62.5 39.5zM4 776q0 33 16.5 96.5t34.5 81.5q89 58 219 58q56 0 115 -19l-22 -217h30q68 248 269 248q56 0 100 -14 q20 -58 20 -136q0 -90 -22 -145q-63 37 -146 37q-71 0 -127 -45.5t-90 -120.5l-55 -592q-75 -14 -172 -14q-85 0 -131 14l104 780z" />
<glyph unicode="&#x158;" horiz-adv-x="1413" d="M12 0q6 40 23.5 97.5t34.5 86.5q45 17 141 33l94 1012q-77 0 -131 14q-6 73 12 199q245 31 566 31q116 0 212 -23.5t168 -70.5t112 -123t40 -175q0 -153 -90.5 -269.5t-230.5 -164.5q66 -152 142.5 -276t119.5 -158l108 12q0 -47 -18 -111.5t-41 -101.5 q-43 -13 -129 -27.5t-137 -17.5q-51 41 -154.5 241t-167.5 390q-81 0 -139 14l-29 -395q77 -7 146 -29q6 -34 3 -95t-12 -93h-643zM324 1812q29 32 95 62.5t120 38.5l266 -156l295 148q33 -11 70.5 -45t58.5 -66l-340 -235h-275zM563 803q56 -12 158 -12q107 0 183.5 65 t76.5 182q0 112 -73.5 175t-196.5 63q-51 0 -113 -8z" />
<glyph unicode="&#x159;" horiz-adv-x="802" d="M4 776q0 33 16.5 96.5t34.5 81.5q89 58 219 58q56 0 115 -19l-22 -217h30q68 248 269 248q56 0 100 -14q20 -58 20 -136q0 -90 -22 -145q-63 37 -146 37q-71 0 -127 -45.5t-90 -120.5l-55 -592q-75 -14 -172 -14q-85 0 -131 14l104 780zM158 1475q28 28 86 51t100 26 l215 -198l270 200q35 -11 80 -39.5t68 -56.5l-352 -315l-224 -10z" />
<glyph unicode="&#x15a;" horiz-adv-x="1183" d="M49 35q20 220 72 405q53 0 129 -10.5t119 -26.5l-19 -213q108 -43 203 -43q112 0 179 56t67 159q0 56 -33 100.5t-85.5 75.5t-116 60.5t-127 66.5t-116 83t-85.5 119.5t-33 166.5q0 213 139 336t387 123q96 0 206 -19.5t200 -52.5q-6 -75 -29 -183.5t-49 -182.5 q-51 0 -119.5 15t-110.5 36l17 168q-62 33 -131 33q-101 0 -161 -52.5t-60 -132.5q0 -48 26 -88t68 -68.5t96.5 -58.5t110.5 -56.5t110.5 -64t96.5 -80t68 -106t26 -139.5q0 -109 -32.5 -195t-88 -143t-134 -94.5t-166.5 -53.5t-190 -16q-246 0 -434 76zM571 1634.5 q-5 58.5 0 96.5l490 233q38 -34 77 -99.5t54 -121.5l-606 -205q-10 38 -15 96.5z" />
<glyph unicode="&#x15b;" horiz-adv-x="913" d="M-8 190q31 48 113.5 78.5t162.5 30.5q4 -71 37.5 -111.5t81.5 -40.5q43 0 77 30t34 77q0 29 -21.5 53.5t-55.5 44.5t-75.5 41.5t-82.5 50t-75 63.5t-55.5 89t-21.5 119q0 136 111 222.5t294 86.5q147 0 303 -70q-2 -56 -17.5 -133.5t-37.5 -132.5q-57 0 -123 17t-100 40 l8 86q-28 17 -64 17q-39 0 -67.5 -25.5t-28.5 -66.5q0 -28 22 -53.5t57 -46.5t77.5 -44t85.5 -52t78 -62.5t57 -83t22 -107.5q0 -71 -25 -129t-67.5 -97t-100.5 -65.5t-122 -38.5t-133 -12q-161 0 -251.5 55t-96.5 170zM334 1231l289 346q62 0 147 -27.5t117 -64.5 l-420 -369q-37 13 -77.5 48.5t-55.5 66.5z" />
<glyph unicode="&#x15c;" horiz-adv-x="1183" d="M49 35q20 220 72 405q53 0 129 -10.5t119 -26.5l-19 -213q108 -43 203 -43q112 0 179 56t67 159q0 56 -33 100.5t-85.5 75.5t-116 60.5t-127 66.5t-116 83t-85.5 119.5t-33 166.5q0 213 139 336t387 123q96 0 206 -19.5t200 -52.5q-6 -75 -29 -183.5t-49 -182.5 q-51 0 -119.5 15t-110.5 36l17 168q-62 33 -131 33q-101 0 -161 -52.5t-60 -132.5q0 -48 26 -88t68 -68.5t96.5 -58.5t110.5 -56.5t110.5 -64t96.5 -80t68 -106t26 -139.5q0 -109 -32.5 -195t-88 -143t-134 -94.5t-166.5 -53.5t-190 -16q-246 0 -434 76zM297 1718l326 207 h266l287 -221q-15 -40 -54 -90t-73 -72l-326 166l-389 -174q-37 67 -37 184z" />
<glyph unicode="&#x15d;" horiz-adv-x="913" d="M-8 190q31 48 113.5 78.5t162.5 30.5q4 -71 37.5 -111.5t81.5 -40.5q43 0 77 30t34 77q0 29 -21.5 53.5t-55.5 44.5t-75.5 41.5t-82.5 50t-75 63.5t-55.5 89t-21.5 119q0 136 111 222.5t294 86.5q147 0 303 -70q-2 -56 -17.5 -133.5t-37.5 -132.5q-57 0 -123 17t-100 40 l8 86q-28 17 -64 17q-39 0 -67.5 -25.5t-28.5 -66.5q0 -28 22 -53.5t57 -46.5t77.5 -44t85.5 -52t78 -62.5t57 -83t22 -107.5q0 -71 -25 -129t-67.5 -97t-100.5 -65.5t-122 -38.5t-133 -12q-161 0 -251.5 55t-96.5 170zM168 1296l276 252l209 13l234 -318 q-22 -34 -66.5 -67.5t-83.5 -45.5l-209 216l-288 -220q-24 26 -45.5 77.5t-26.5 92.5z" />
<glyph unicode="&#x15e;" horiz-adv-x="1183" d="M49 35q20 220 72 405q53 0 129 -10.5t119 -26.5l-19 -213q108 -43 203 -43q112 0 179 56t67 159q0 56 -33 100.5t-85.5 75.5t-116 60.5t-127 66.5t-116 83t-85.5 119.5t-33 166.5q0 213 139 336t387 123q96 0 206 -19.5t200 -52.5q-6 -75 -29 -183.5t-49 -182.5 q-51 0 -119.5 15t-110.5 36l17 168q-62 33 -131 33q-101 0 -161 -52.5t-60 -132.5q0 -48 26 -88t68 -68.5t96.5 -58.5t110.5 -56.5t110.5 -64t96.5 -80t68 -106t26 -139.5q0 -111 -33 -198.5t-94 -145t-138.5 -93t-173.5 -51.5l-24 -86q54 -10 92.5 -51t38.5 -106 q0 -62 -31.5 -114t-83 -85.5t-112 -54.5t-123.5 -27q-31 20 -58 57.5t-39 75.5q68 10 111 41.5t43 85.5q0 39 -30.5 63.5t-78.5 34.5l78 154q-222 7 -389 74z" />
<glyph unicode="&#x15f;" horiz-adv-x="913" d="M-8 190q31 48 113.5 78.5t162.5 30.5q4 -71 37.5 -111.5t81.5 -40.5q43 0 77 30t34 77q0 29 -21.5 53.5t-55.5 44.5t-75.5 41.5t-82.5 50t-75 63.5t-55.5 89t-21.5 119q0 136 111 222.5t294 86.5q147 0 303 -70q-2 -56 -17.5 -133.5t-37.5 -132.5q-57 0 -123 17t-100 40 l8 86q-28 17 -64 17q-39 0 -67.5 -25.5t-28.5 -66.5q0 -28 22 -53.5t57 -46.5t77.5 -44t85.5 -52t78 -62.5t57 -83t22 -107.5q0 -138 -86.5 -219t-226.5 -108l-29 -91q50 -10 83.5 -46t33.5 -91q0 -64 -49 -118t-120 -83.5t-146 -35.5q-29 20 -53 54.5t-35 70.5q65 8 109 37 t44 75q0 33 -29.5 54.5t-74.5 29.5l76 131q-282 19 -293 223z" />
<glyph unicode="&#x160;" horiz-adv-x="1183" d="M49 35q20 220 72 405q53 0 129 -10.5t119 -26.5l-19 -213q108 -43 203 -43q112 0 179 56t67 159q0 56 -33 100.5t-85.5 75.5t-116 60.5t-127 66.5t-116 83t-85.5 119.5t-33 166.5q0 213 139 336t387 123q96 0 206 -19.5t200 -52.5q-6 -75 -29 -183.5t-49 -182.5 q-51 0 -119.5 15t-110.5 36l17 168q-62 33 -131 33q-101 0 -161 -52.5t-60 -132.5q0 -48 26 -88t68 -68.5t96.5 -58.5t110.5 -56.5t110.5 -64t96.5 -80t68 -106t26 -139.5q0 -109 -32.5 -195t-88 -143t-134 -94.5t-166.5 -53.5t-190 -16q-246 0 -434 76zM268 1812 q29 32 95 62.5t120 38.5l267 -156l294 148q33 -11 71.5 -45t58.5 -66l-340 -235h-275z" />
<glyph unicode="&#x161;" horiz-adv-x="913" d="M-8 190q31 48 113.5 78.5t162.5 30.5q4 -71 37.5 -111.5t81.5 -40.5q43 0 77 30t34 77q0 29 -21.5 53.5t-55.5 44.5t-75.5 41.5t-82.5 50t-75 63.5t-55.5 89t-21.5 119q0 136 111 222.5t294 86.5q147 0 303 -70q-2 -56 -17.5 -133.5t-37.5 -132.5q-57 0 -123 17t-100 40 l8 86q-28 17 -64 17q-39 0 -67.5 -25.5t-28.5 -66.5q0 -28 22 -53.5t57 -46.5t77.5 -44t85.5 -52t78 -62.5t57 -83t22 -107.5q0 -71 -25 -129t-67.5 -97t-100.5 -65.5t-122 -38.5t-133 -12q-161 0 -251.5 55t-96.5 170zM135 1475q28 28 86.5 51t100.5 26l215 -198l270 200 q35 -11 79.5 -39.5t67.5 -56.5l-352 -315l-223 -10z" />
<glyph unicode="&#x162;" horiz-adv-x="1263" d="M68 1065l32 387h1246l-33 -393q-142 0 -234 28q-16 87 -12 173h-217l-76 -1043q103 -7 195 -29q7 -35 5.5 -94.5t-9.5 -93.5h-736q4 37 24 93t38 89q83 24 170 35l92 1043h-209q-16 -88 -43 -166q-86 -29 -233 -29zM340 -631q93 186 125 320l-105 22q18 46 49 99t58 81 q54 13 106 13q98 0 189 -33q-29 -121 -117 -295.5t-164 -275.5q-35 9 -79.5 30.5t-61.5 38.5z" />
<glyph unicode="&#x163;" horiz-adv-x="768" d="M-12 786q6 46 23.5 100.5t35.5 84.5q65 30 123 41l63 217q38 20 115.5 36.5t134.5 16.5l-34 -293h276q4 -38 2 -100.5t-10 -102.5h-295l-45 -444q-8 -73 13.5 -106t88.5 -33q78 0 191 37q0 -46 -20 -110t-48 -101q-134 -64 -258 -64q-272 0 -272 260q0 73 22.5 240.5 t50.5 320.5h-157zM78 -610q70 159 110 295l-100 20q50 118 105 176q47 13 102 13q101 0 184 -27q-33 -115 -116 -283t-152 -264q-30 8 -70.5 30.5t-62.5 39.5z" />
<glyph unicode="&#x164;" horiz-adv-x="1263" d="M68 1065l32 387h1246l-33 -393q-142 0 -234 28q-16 87 -12 173h-217l-76 -1043q103 -7 195 -29q7 -35 5.5 -94.5t-9.5 -93.5h-736q4 37 24 93t38 89q83 24 170 35l92 1043h-209q-16 -88 -43 -166q-86 -29 -233 -29zM305 1812q29 32 95 62.5t120 38.5l266 -156l295 148 q33 -11 70.5 -45t58.5 -66l-340 -235h-274z" />
<glyph unicode="&#x165;" horiz-adv-x="768" d="M-12 786q6 46 23.5 100.5t35.5 84.5q65 30 123 41l63 217q38 20 115.5 36.5t134.5 16.5l-34 -293h276q4 -38 2 -100.5t-10 -102.5h-295l-45 -444q-8 -73 13.5 -106t88.5 -33q78 0 191 37q0 -46 -20 -110t-48 -101q-134 -64 -258 -64q-272 0 -272 260q0 73 22.5 240.5 t50.5 320.5h-157zM655 1149q55 100 97 252l-88 20q15 40 44 88t56 78q42 10 96 10q96 0 174 -30q-33 -113 -105.5 -252t-144.5 -234q-29 7 -69.5 29t-59.5 39z" />
<glyph unicode="&#x166;" horiz-adv-x="1288" d="M80 1065l33 387h1245l-33 -393q-141 0 -233 28q-16 92 -13 173h-217l-33 -433h242q5 -37 0.5 -92t-14.5 -98h-240l-31 -420q103 -7 195 -29q7 -35 5.5 -94.5t-9.5 -93.5h-735q4 37 23.5 93.5t37.5 88.5q83 24 170 35l37 420h-250q11 107 43 190h223l39 433h-209 q-16 -88 -43 -166q-86 -29 -233 -29z" />
<glyph unicode="&#x167;" horiz-adv-x="796" d="M-27 424q9 87 41 174h113q6 38 18 104t15 84h-158q6 46 23.5 100.5t35.5 84.5q65 30 123 41l64 217q38 20 115.5 36.5t134.5 16.5l-35 -293h276q4 -38 2 -100.5t-10 -102.5h-295l-20 -188h248q8 -87 -15 -174h-250l-8 -82q-8 -73 13.5 -106t89.5 -33q77 0 190 37 q0 -46 -20 -110t-48 -101q-134 -64 -258 -64q-272 0 -272 260q0 65 16 199h-129z" />
<glyph unicode="&#x168;" horiz-adv-x="1468" d="M96 1452h592q3 -32 -3.5 -94.5t-16.5 -93.5q-67 -19 -140 -23l-49 -678q-2 -25 -2 -71q0 -164 62.5 -245t195.5 -81q158 0 241 107t99 290l58 676q-69 7 -121 25q-3 37 0.5 97.5t13.5 90.5h487q3 -32 -3.5 -94.5t-16.5 -93.5q-54 -19 -125 -23l-49 -663 q-11 -141 -54 -252t-120.5 -194.5t-198.5 -128t-280 -44.5q-256 0 -379 122t-123 370q0 30 4 96l59 698q-76 8 -129 23q-13 96 -2 184zM408 1675q32 101 114.5 165.5t210.5 64.5q56 0 104.5 -14.5t77 -32t69 -32t83.5 -14.5q85 0 121 84q92 0 166 -41q-7 -54 -31 -104 t-65 -92.5t-106 -68t-144 -25.5q-51 0 -97.5 15t-75.5 33t-71.5 33t-85.5 15q-42 0 -74 -28.5t-45 -61.5q-46 7 -85.5 36t-65.5 68z" />
<glyph unicode="&#x169;" horiz-adv-x="1159" d="M20 776q0 33 16.5 96t35.5 82q99 58 262 58q57 0 127 -19q-74 -562 -74 -692q0 -127 82 -127q48 0 96 35t82 82l68 497l-127 -10q0 33 16 95t35 81q96 58 252 58q57 0 123 -19l-74 -766q0 -18 8 -34l142 14q0 -36 -17.5 -93.5t-38.5 -90.5q-52 -22 -151 -40t-162 -18 q-41 71 -53 176h-19q-100 -176 -305 -176q-51 0 -94.5 14.5t-81.5 46t-60 88.5t-22 134q0 144 78 540zM180 1274q25 97 98 158t187 61q47 0 86.5 -13.5t63 -29.5t55 -29.5t63.5 -13.5q70 0 107 76q107 0 161 -35q-17 -109 -98.5 -190.5t-210.5 -81.5q-43 0 -82.5 14t-64 30 t-58 30t-67.5 14q-77 0 -107 -78q-42 6 -80 31t-53 57z" />
<glyph unicode="&#x16a;" horiz-adv-x="1468" d="M96 1452h592q3 -32 -3.5 -94.5t-16.5 -93.5q-67 -19 -140 -23l-49 -678q-2 -25 -2 -71q0 -164 62.5 -245t195.5 -81q158 0 241 107t99 290l58 676q-69 7 -121 25q-3 37 0.5 97.5t13.5 90.5h487q3 -32 -3.5 -94.5t-16.5 -93.5q-54 -19 -125 -23l-49 -663 q-11 -141 -54 -252t-120.5 -194.5t-198.5 -128t-280 -44.5q-256 0 -379 122t-123 370q0 30 4 96l59 698q-76 8 -129 23q-13 96 -2 184zM438 1614q10 126 51 229h814q5 -46 -0.5 -112.5t-18.5 -116.5h-846z" />
<glyph unicode="&#x16b;" horiz-adv-x="1159" d="M20 776q0 33 16.5 96t35.5 82q99 58 262 58q57 0 127 -19q-74 -562 -74 -692q0 -127 82 -127q48 0 96 35t82 82l68 497l-127 -10q0 33 16 95t35 81q96 58 252 58q57 0 123 -19l-74 -766q0 -18 8 -34l142 14q0 -36 -17.5 -93.5t-38.5 -90.5q-52 -22 -151 -40t-162 -18 q-41 71 -53 176h-19q-100 -176 -305 -176q-51 0 -94.5 14.5t-81.5 46t-60 88.5t-22 134q0 144 78 540zM270 1223q10 118 47 209h641q5 -39 0.5 -101.5t-16.5 -107.5h-672z" />
<glyph unicode="&#x16c;" horiz-adv-x="1468" d="M96 1452h592q3 -32 -3.5 -94.5t-16.5 -93.5q-67 -19 -140 -23l-49 -678q-2 -25 -2 -71q0 -164 62.5 -245t195.5 -81q158 0 241 107t99 290l58 676q-69 7 -121 25q-3 37 0.5 97.5t13.5 90.5h487q3 -32 -3.5 -94.5t-16.5 -93.5q-54 -19 -125 -23l-49 -663 q-11 -141 -54 -252t-120.5 -194.5t-198.5 -128t-280 -44.5q-256 0 -379 122t-123 370q0 30 4 96l59 698q-76 8 -129 23q-13 96 -2 184zM451 1864q28 31 88.5 56.5t117.5 31.5q31 -160 217 -160q91 0 161 37.5t108 107.5q93 0 174 -57q-39 -148 -165.5 -236t-315.5 -88 q-175 0 -274 81t-111 227z" />
<glyph unicode="&#x16d;" horiz-adv-x="1159" d="M20 776q0 33 16.5 96t35.5 82q99 58 262 58q57 0 127 -19q-74 -562 -74 -692q0 -127 82 -127q48 0 96 35t82 82l68 497l-127 -10q0 33 16 95t35 81q96 58 252 58q57 0 123 -19l-74 -766q0 -18 8 -34l142 14q0 -36 -17.5 -93.5t-38.5 -90.5q-52 -22 -151 -40t-162 -18 q-41 71 -53 176h-19q-100 -176 -305 -176q-51 0 -94.5 14.5t-81.5 46t-60 88.5t-22 134q0 144 78 540zM272 1462q25 25 76.5 46.5t100.5 29.5q12 -186 165 -186q74 0 125 44.5t88 131.5q45 -3 94 -17.5t76 -33.5q-44 -156 -151.5 -247t-263.5 -91q-150 0 -228.5 84.5 t-81.5 238.5z" />
<glyph unicode="&#x16e;" horiz-adv-x="1468" d="M96 1452h592q3 -32 -3.5 -94.5t-16.5 -93.5q-67 -19 -140 -23l-49 -678q-2 -25 -2 -71q0 -164 62.5 -245t195.5 -81q158 0 241 107t99 290l58 676q-69 7 -121 25q-3 37 0.5 97.5t13.5 90.5h487q3 -32 -3.5 -94.5t-16.5 -93.5q-54 -19 -125 -23l-49 -663 q-11 -141 -54 -252t-120.5 -194.5t-198.5 -128t-280 -44.5q-256 0 -379 122t-123 370q0 30 4 96l59 698q-76 8 -129 23q-13 96 -2 184zM596 1747q0 124 85.5 197t233.5 73q121 0 185.5 -52t64.5 -157q0 -127 -88.5 -198.5t-232.5 -71.5q-121 0 -184.5 53.5t-63.5 155.5z M774 1767q0 -39 24.5 -60t67.5 -21q51 0 86 28t35 76q0 39 -26.5 59.5t-67.5 20.5q-53 0 -86 -29t-33 -74z" />
<glyph unicode="&#x16f;" horiz-adv-x="1159" d="M20 776q0 33 16.5 96t35.5 82q99 58 262 58q57 0 127 -19q-74 -562 -74 -692q0 -127 82 -127q48 0 96 35t82 82l68 497l-127 -10q0 33 16 95t35 81q96 58 252 58q57 0 123 -19l-74 -766q0 -18 8 -34l142 14q0 -36 -17.5 -93.5t-38.5 -90.5q-52 -22 -151 -40t-162 -18 q-41 71 -53 176h-19q-100 -176 -305 -176q-51 0 -94.5 14.5t-81.5 46t-60 88.5t-22 134q0 144 78 540zM391 1341q0 123 76.5 200t210.5 77q100 0 155.5 -49.5t55.5 -151.5q0 -123 -79 -197.5t-210 -74.5q-209 0 -209 196zM545 1358q0 -82 73 -82q53 0 85 36t32 97 q0 43 -17.5 61.5t-53.5 18.5q-55 0 -87 -37t-32 -94z" />
<glyph unicode="&#x170;" horiz-adv-x="1468" d="M96 1452h592q3 -32 -3.5 -94.5t-16.5 -93.5q-67 -19 -140 -23l-49 -678q-2 -25 -2 -71q0 -164 62.5 -245t195.5 -81q158 0 241 107t99 290l58 676q-69 7 -121 25q-3 37 0.5 97.5t13.5 90.5h487q3 -32 -3.5 -94.5t-16.5 -93.5q-54 -19 -125 -23l-49 -663 q-11 -141 -54 -252t-120.5 -194.5t-198.5 -128t-280 -44.5q-256 0 -379 122t-123 370q0 30 4 96l59 698q-76 8 -129 23q-13 96 -2 184zM471 1679l352 332q62 -9 131.5 -49.5t108.5 -85.5l-494 -358q-30 23 -58.5 70.5t-39.5 90.5zM1065 1679l352 332q62 -9 131.5 -49.5 t108.5 -85.5l-494 -358q-30 23 -58.5 70.5t-39.5 90.5z" />
<glyph unicode="&#x171;" horiz-adv-x="1159" d="M20 776q0 33 16.5 96t35.5 82q99 58 262 58q57 0 127 -19q-74 -562 -74 -692q0 -127 82 -127q48 0 96 35t82 82l68 497l-127 -10q0 33 16 95t35 81q96 58 252 58q57 0 123 -19l-74 -766q0 -18 8 -34l142 14q0 -36 -17.5 -93.5t-38.5 -90.5q-52 -22 -151 -40t-162 -18 q-41 71 -53 176h-19q-100 -176 -305 -176q-51 0 -94.5 14.5t-81.5 46t-60 88.5t-22 134q0 144 78 540zM260 1223l238 350q56 0 135 -27t110 -61l-352 -383q-38 13 -76.5 50t-54.5 71zM721 1223l237 350q56 0 135.5 -27t110.5 -61l-352 -383q-38 13 -76.5 50t-54.5 71z" />
<glyph unicode="&#x172;" horiz-adv-x="1468" d="M96 1452h592q3 -32 -3.5 -94.5t-16.5 -93.5q-67 -19 -140 -23l-49 -678q-2 -25 -2 -71q0 -164 62.5 -245t195.5 -81q158 0 241 107t99 290l58 676q-69 7 -121 25q-3 37 0.5 97.5t13.5 90.5h487q3 -32 -3.5 -94.5t-16.5 -93.5q-54 -19 -125 -23l-49 -663 q-9 -126 -43 -229.5t-100.5 -187t-161.5 -130.5q-75 -37 -119 -62t-86 -57.5t-60 -67t-18 -75.5q0 -40 24.5 -60t67.5 -20q24 0 60 8q28 -65 28 -168q-76 -31 -182 -31q-116 0 -196 57t-80 160q0 176 174 226v18h-13q-215 0 -332.5 127.5t-117.5 364.5q0 30 4 96l59 698 q-76 8 -129 23q-13 96 -2 184z" />
<glyph unicode="&#x173;" horiz-adv-x="1159" d="M20 776q0 33 16.5 96t35.5 82q99 58 262 58q57 0 127 -19q-74 -562 -74 -692q0 -127 82 -127q48 0 96 35t82 82l68 497l-127 -10q0 33 16 95t35 81q96 58 252 58q57 0 123 -19l-74 -766q0 -18 8 -34l142 14q0 -36 -17.5 -93.5t-38.5 -90.5q-108 -48 -165.5 -107 t-57.5 -125q0 -36 23 -55t59 -19q24 0 51 9q27 -65 27 -150q-28 -13 -78.5 -22t-87.5 -9q-100 0 -169 50.5t-69 146.5q0 70 40 126.5t114 90.5v18q-19 25 -33.5 72t-19.5 92h-19q-100 -176 -305 -176q-51 0 -94.5 14.5t-81.5 46t-60 88.5t-22 134q0 144 78 540z" />
<glyph unicode="&#x174;" horiz-adv-x="2062" d="M61 1452h594q-13 -109 -51 -197q-19 -6 -64.5 -11t-70.5 -5q40 -82 61 -213l56 -354q30 -188 30 -412h23q6 83 29 198t49 191l287 821h280l113 -782q18 -126 18 -412h25q11 93 34.5 200.5t47.5 172.5l143 377q50 133 104 215q-53 3 -112 21q-21 82 -21 190h502 q-13 -116 -47 -197q-49 -13 -104 -16l-506 -1262h-262l-111 848q-16 141 -16 353h-25q-19 -197 -68 -344l-297 -859h-290l-234 1266q-47 6 -98 25q-19 81 -19 186zM719 1718l325 207h267l286 -221q-15 -40 -54 -90t-73 -72l-325 166l-389 -174q-37 67 -37 184z" />
<glyph unicode="&#x175;" horiz-adv-x="1667" d="M-18 780q0 34 14.5 98.5t30.5 84.5q103 49 223 49q61 0 123 -19l49 -518q10 -97 10 -264h25q129 417 215 778l387 27l67 -533q19 -148 19 -272h24q117 296 195 565q0 15 -8 35l-129 -10q3 46 21.5 102.5t41.5 79.5q36 14 117.5 27.5t122.5 13.5q27 -21 63.5 -92.5 t36.5 -108.5q-158 -398 -411 -874l-312 47l-69 762h-25q-114 -404 -264 -809l-340 47l-103 797zM537 1296l276 252l209 13l233 -318q-22 -34 -66 -67.5t-83 -45.5l-209 216l-289 -220q-24 26 -45 77.5t-26 92.5z" />
<glyph unicode="&#x176;" horiz-adv-x="1314" d="M68 1452h608q-9 -81 -49 -197q-44 -11 -121 -16q32 -28 61 -104l78 -201q42 -110 45 -211h25q10 50 33.5 110t46.5 99l131 217q26 45 80 92q-56 7 -97 25q-18 92 -18 186h520q-13 -116 -47 -197q-52 -13 -107 -16l-464 -694l-23 -328q103 -7 195 -29q7 -35 4.5 -95 t-11.5 -93h-731q4 36 24.5 92t39.5 90q81 24 170 35l28 318l-309 706q-47 6 -98 25q-18 73 -14 186zM342 1718l326 207h266l287 -221q-15 -40 -54 -90t-73 -72l-326 166l-389 -174q-37 67 -37 184z" />
<glyph unicode="&#x177;" horiz-adv-x="1001" d="M-66 -233q240 71 359 206l-217 830l-125 -8q0 32 16.5 96t32.5 84q91 43 219 43q52 0 113 -21l114 -524q30 -140 33 -262h25q84 215 182 555q0 15 -8 35l-139 -8q5 46 24.5 101.5t42.5 78.5q42 16 134 27.5t145 11.5q24 -21 55 -93t31 -110q-98 -258 -239 -535.5 t-240 -396.5q-109 -128 -222 -221t-250 -150q-31 40 -58.5 123t-27.5 138zM227 1296l277 252l209 13l233 -318q-22 -34 -66 -67.5t-83 -45.5l-209 216l-289 -220q-24 26 -45.5 77.5t-26.5 92.5z" />
<glyph unicode="&#x178;" horiz-adv-x="1314" d="M68 1452h608q-9 -81 -49 -197q-44 -11 -121 -16q32 -28 61 -104l78 -201q42 -110 45 -211h25q10 50 33.5 110t46.5 99l131 217q26 45 80 92q-56 7 -97 25q-18 92 -18 186h520q-13 -116 -47 -197q-52 -13 -107 -16l-464 -694l-23 -328q103 -7 195 -29q7 -35 4.5 -95 t-11.5 -93h-731q4 36 24.5 92t39.5 90q81 24 170 35l28 318l-309 706q-47 6 -98 25q-18 73 -14 186zM279 1731q0 69 50 114t124 45q76 0 123 -42.5t47 -116.5q0 -79 -48 -124.5t-122 -45.5q-84 0 -129 43t-45 127zM911 1731q0 69 50 114t124 45q76 0 123 -42.5t47 -116.5 q0 -79 -48 -124.5t-122 -45.5q-84 0 -129 43t-45 127z" />
<glyph unicode="&#x179;" horiz-adv-x="1261" d="M20 0l13 182l790 1051v24h-381q-22 -118 -45 -192q-122 -27 -250 -27l37 414h1039l-17 -182l-768 -1045v-24h418q12 55 53 200q39 16 113 26.5t133 10.5l-37 -438h-1098zM579.5 1634.5q-4.5 58.5 0.5 96.5l489 233q38 -34 77 -99.5t54 -121.5l-606 -205 q-10 38 -14.5 96.5z" />
<glyph unicode="&#x17a;" horiz-adv-x="993" d="M10 135l527 651v25h-183q-24 -75 -63 -137q-48 0 -118.5 11.5t-102.5 25.5l43 278h798l13 -139l-529 -651v-25q91 3 228 14q20 72 53 136q44 8 113 9t120 -9l-61 -324h-825zM371 1231l288 346q63 0 148 -27.5t117 -64.5l-420 -369q-37 13 -77.5 48.5t-55.5 66.5z" />
<glyph unicode="&#x17b;" horiz-adv-x="1261" d="M20 0l13 182l790 1051v24h-381q-22 -118 -45 -192q-122 -27 -250 -27l37 414h1039l-17 -182l-768 -1045v-24h418q12 55 53 200q39 16 113 26.5t133 10.5l-37 -438h-1098zM569 1731q0 70 52 116.5t129 46.5q78 0 126 -44t48 -119q0 -82 -49 -129.5t-125 -47.5 q-87 0 -134 45t-47 132z" />
<glyph unicode="&#x17c;" horiz-adv-x="993" d="M10 135l527 651v25h-183q-24 -75 -63 -137q-48 0 -118.5 11.5t-102.5 25.5l43 278h798l13 -139l-529 -651v-25q91 3 228 14q20 72 53 136q44 8 113 9t120 -9l-61 -324h-825zM397 1335q0 70 46.5 116t115.5 46q73 0 116.5 -43t43.5 -119q0 -81 -44.5 -127.5t-115.5 -46.5 q-79 0 -120.5 44t-41.5 130z" />
<glyph unicode="&#x17d;" horiz-adv-x="1261" d="M20 0l13 182l790 1051v24h-381q-22 -118 -45 -192q-122 -27 -250 -27l37 414h1039l-17 -182l-768 -1045v-24h418q12 55 53 200q39 16 113 26.5t133 10.5l-37 -438h-1098zM285 1812q29 32 95 62.5t120 38.5l266 -156l295 148q33 -11 70.5 -45t58.5 -66l-340 -235h-275z " />
<glyph unicode="&#x17e;" horiz-adv-x="993" d="M10 135l527 651v25h-183q-24 -75 -63 -137q-48 0 -118.5 11.5t-102.5 25.5l43 278h798l13 -139l-529 -651v-25q91 3 228 14q20 72 53 136q44 8 113 9t120 -9l-61 -324h-825zM174 1475q28 28 86 51t100 26l215 -198l271 200q35 -11 79.5 -39.5t67.5 -56.5l-352 -315 l-223 -10z" />
<glyph unicode="&#x192;" horiz-adv-x="1294" d="M-55 -285q7 64 34.5 160.5t57.5 167.5q41 -6 103.5 -23.5t99.5 -33.5l-17 -125q22 -11 56 -11q42 0 74 55t50 152l62 334h-234q6 88 41 184h226l28 158q19 108 67 190t114.5 131t141.5 73t157 24q65 0 137 -14t121 -39q-11 -64 -40 -151.5t-59 -153.5q-48 3 -107 22 t-87 41l18 92q-30 15 -53 15q-52 0 -87 -52.5t-48 -154.5l-25 -181h264q3 -39 -1 -93t-15 -91h-279l-47 -311q-17 -112 -64.5 -195.5t-115.5 -130.5t-143.5 -69.5t-159.5 -22.5q-148 0 -270 53z" />
<glyph unicode="&#x1fa;" horiz-adv-x="1546" d="M-31 0q15 81 66 184q49 22 100 31l621 1241q-138 41 -138 195q0 124 86 197t234 73q121 0 185.5 -52t64.5 -157q0 -96 -53 -161.5t-146 -92.5l371 -1237q58 -11 104 -31q17 -78 17 -190h-623q6 36 26.5 93t39.5 93q62 21 127 33q-28 42 -56 135l-16 58h-485l-27 -68 q-28 -70 -74 -133q67 -6 133 -25q25 -98 25 -186h-582zM582 602h352l-72 279q-14 52 -27.5 143.5t-13.5 149.5h-24q-8 -56 -37.5 -145.5t-54.5 -147.5zM669.5 2050q-4.5 58 0.5 96l489 234q38 -34 77 -99.5t54 -121.5l-606 -205q-10 38 -14.5 96zM797 1671q0 -39 24.5 -60.5 t67.5 -21.5q51 0 86 28.5t35 76.5q0 39 -27 59.5t-68 20.5q-53 0 -85.5 -29t-32.5 -74z" />
<glyph unicode="&#x1fb;" horiz-adv-x="1103" d="M23 354q0 125 38.5 245.5t112.5 215.5q164 209 447 209q95 0 184.5 -30t157.5 -76l-82 -691q0 -18 8 -34l143 14q0 -36 -17.5 -93.5t-37.5 -90.5q-52 -22 -151.5 -40t-163.5 -18q-42 73 -54 166h-18q-42 -76 -113.5 -121t-167.5 -45q-129 0 -207.5 96.5t-78.5 292.5z M319 375q0 -193 103 -193q92 0 168 101l80 548q-30 9 -70 9q-56 0 -109.5 -35.5t-89.5 -89.5q-40 -60 -61 -156.5t-21 -183.5zM373 1341q0 123 76 200t210 77q100 0 155.5 -49.5t55.5 -151.5q0 -123 -79 -197.5t-209 -74.5q-209 0 -209 196zM406 1769l288 347q62 0 147 -28 t117 -65l-419 -368q-37 13 -77.5 48t-55.5 66zM526 1358q0 -82 74 -82q53 0 85 36t32 97q0 43 -18 61.5t-54 18.5q-55 0 -87 -37t-32 -94z" />
<glyph unicode="&#x1fc;" horiz-adv-x="2045" d="M-41 0q14 89 57 184q47 21 99 31l688 1024q-91 7 -162 25q-4 31 -2 95t12 93h1346l-35 -371q-132 0 -223 31q-10 62 -10 148h-398l-28 -424h317q2 14 25 90q98 30 221 30l-29 -419q-132 -12 -219 16q-10 42 -10 94h-320l-35 -450h387q13 87 43 165q40 13 112 22t126 9 l-31 -393h-1142q5 40 21.5 97t33.5 87q53 20 139 33l25 266h-408l-92 -139q-43 -69 -107 -133q79 -8 136 -25q11 -32 17.5 -88.5t4.5 -97.5h-559zM672 670h319l49 565h-26q-63 -141 -135 -250zM1025.5 1634.5q-4.5 58.5 0.5 96.5l490 233q38 -34 77 -99.5t54 -121.5 l-607 -205q-10 38 -14.5 96.5z" />
<glyph unicode="&#x1fd;" horiz-adv-x="1548" d="M33 229q0 87 35 160t95 121t138 74t164 26q98 0 180 -32q12 66 12 104q0 61 -39 92t-112 31t-175 -26.5t-167 -59.5q-6 21 -6 61q0 44 14.5 99.5t36.5 97.5q60 23 175 40t210 17q189 0 274 -129h19q83 119 270 119q153 0 234.5 -69.5t81.5 -194.5q0 -52 -15 -98 t-54 -92.5t-100.5 -81.5t-162 -60.5t-230.5 -34.5v-26q0 -89 33.5 -126.5t102.5 -37.5q85 0 186.5 25.5t173.5 62.5q0 -42 -18 -103.5t-41 -101.5q-68 -51 -161.5 -86t-201.5 -35q-241 0 -321 164h-19q-111 -164 -315 -164q-133 0 -215 65.5t-82 198.5zM328 285 q0 -58 34 -86.5t89 -28.5q99 0 172 86q-7 54 -7 96q0 50 5 86q-71 11 -117 11q-80 0 -128 -46t-48 -118zM684 1231l289 346q62 0 147 -27.5t117 -64.5l-420 -369q-37 13 -77.5 48.5t-55.5 66.5zM930 582q80 6 134 22.5t79 42t34 49.5t9 54q0 88 -68 88q-40 0 -77.5 -28 t-63.5 -71q-34 -58 -47 -157z" />
<glyph unicode="&#x1fe;" horiz-adv-x="1558" d="M-61 18l262 275q-51 139 -51 323q0 254 92 453t263 311.5t394 112.5q216 0 358 -109l160 168q46 -9 119.5 -43t108.5 -61l-240 -244q76 -158 76 -381q0 -256 -93.5 -452t-266 -304t-398.5 -108q-252 0 -393 135l-232 -241q-36 22 -89 77t-70 88zM471 631q0 -32 4 -94 l610 630q-77 125 -219 125q-96 0 -172.5 -55.5t-124.5 -149t-73 -210.5t-25 -246zM524 324q73 -162 238 -162q121 0 214 91t140 239t47 327q0 83 -12 154zM733 1634.5q-5 58.5 0 96.5l490 233q38 -34 77 -99.5t54 -121.5l-606 -205q-10 38 -15 96.5z" />
<glyph unicode="&#x1ff;" horiz-adv-x="1126" d="M14 -10l107 133q-64 101 -64 272q0 209 90 365q71 123 190 193.5t281 70.5q116 0 203 -41l131 158q34 -13 78.5 -47.5t65.5 -63.5l-140 -166q68 -108 68 -270q0 -231 -106 -393q-71 -109 -187.5 -172.5t-271.5 -63.5q-124 0 -211 41l-142 -174q-22 20 -49.5 69t-42.5 89z M360 385l322 403q-30 43 -90 43q-112 0 -174 -131q-58 -116 -58 -305v-10zM399 205q33 -45 99 -45q116 0 174 127q51 110 51 301v18zM463 1231l289 346q62 0 147 -27.5t117 -64.5l-420 -369q-37 13 -77.5 48.5t-55.5 66.5z" />
<glyph unicode="&#x218;" horiz-adv-x="1183" d="M49 35q20 220 72 405q53 0 129 -10.5t119 -26.5l-19 -213q108 -43 203 -43q112 0 179 56t67 159q0 56 -33 100.5t-85.5 75.5t-116 60.5t-127 66.5t-116 83t-85.5 119.5t-33 166.5q0 213 139 336t387 123q96 0 206 -19.5t200 -52.5q-6 -75 -29 -183.5t-49 -182.5 q-51 0 -119.5 15t-110.5 36l17 168q-62 33 -131 33q-101 0 -161 -52.5t-60 -132.5q0 -48 26 -88t68 -68.5t96.5 -58.5t110.5 -56.5t110.5 -64t96.5 -80t68 -106t26 -139.5q0 -109 -32.5 -195t-88 -143t-134 -94.5t-166.5 -53.5t-190 -16q-246 0 -434 76zM319 -631 q93 186 125 320l-104 22q18 46 48.5 99t57.5 81q54 13 107 13q97 0 188 -33q-30 -121 -117 -296t-163 -275q-35 9 -80 30.5t-62 38.5z" />
<glyph unicode="&#x219;" horiz-adv-x="913" d="M-8 190q31 48 113.5 78.5t162.5 30.5q4 -71 37.5 -111.5t81.5 -40.5q43 0 77 30t34 77q0 29 -21.5 53.5t-55.5 44.5t-75.5 41.5t-82.5 50t-75 63.5t-55.5 89t-21.5 119q0 136 111 222.5t294 86.5q147 0 303 -70q-2 -56 -17.5 -133.5t-37.5 -132.5q-57 0 -123 17t-100 40 l8 86q-28 17 -64 17q-39 0 -67.5 -25.5t-28.5 -66.5q0 -28 22 -53.5t57 -46.5t77.5 -44t85.5 -52t78 -62.5t57 -83t22 -107.5q0 -71 -25 -129t-67.5 -97t-100.5 -65.5t-122 -38.5t-133 -12q-161 0 -251.5 55t-96.5 170zM145 -610q73 166 111 295l-100 20q51 120 104 176 q47 13 102 13q102 0 185 -27q-33 -115 -116 -283t-152 -264q-30 8 -71.5 30.5t-62.5 39.5z" />
<glyph unicode="&#x21b;" horiz-adv-x="768" d="M-12 786q6 46 23.5 100.5t35.5 84.5q65 30 123 41l63 217q38 20 115.5 36.5t134.5 16.5l-34 -293h276q4 -38 2 -100.5t-10 -102.5h-295l-45 -444q-8 -73 13.5 -106t88.5 -33q78 0 191 37q0 -46 -20 -110t-48 -101q-134 -64 -258 -64q-272 0 -272 260q0 73 22.5 240.5 t50.5 320.5h-157zM78 -610q70 159 110 295l-100 20q50 118 105 176q47 13 102 13q101 0 184 -27q-33 -115 -116 -283t-152 -264q-30 8 -70.5 30.5t-62.5 39.5z" />
<glyph unicode="&#x2c6;" horiz-adv-x="1085" d="M195 1296l276 252l209 13l233 -318q-22 -34 -66 -67.5t-83 -45.5l-209 216l-289 -220q-24 26 -45 77.5t-26 92.5z" />
<glyph unicode="&#x2c7;" horiz-adv-x="1085" d="M154 1475q28 28 86 51t100 26l215 -198l270 200q35 -11 80 -39.5t68 -56.5l-352 -315l-224 -10z" />
<glyph unicode="&#x2d8;" horiz-adv-x="1085" d="M211 1462q25 25 76 46.5t100 29.5q12 -186 166 -186q74 0 125 44.5t88 131.5q45 -3 94 -17.5t76 -33.5q-44 -156 -152 -247t-264 -91q-150 0 -228 84.5t-81 238.5z" />
<glyph unicode="&#x2d9;" horiz-adv-x="890" d="M289 1335q0 70 46.5 116t115.5 46q73 0 116 -43t43 -119q0 -81 -44 -127.5t-115 -46.5q-79 0 -120.5 44t-41.5 130z" />
<glyph unicode="&#x2da;" horiz-adv-x="890" d="M223 1341q0 123 76.5 200t210.5 77q100 0 155.5 -49.5t55.5 -151.5q0 -123 -79 -197.5t-210 -74.5q-209 0 -209 196zM377 1358q0 -82 74 -82q53 0 84.5 36t31.5 97q0 43 -17.5 61.5t-53.5 18.5q-55 0 -87 -37t-32 -94z" />
<glyph unicode="&#x2db;" horiz-adv-x="890" d="M215 -258q0 86 61.5 159t182.5 111q65 8 246 8q-246 -107 -246 -229q0 -36 23 -55t59 -19q24 0 51 9q26 -62 26 -150q-28 -13 -78 -22t-87 -9q-100 0 -169 50.5t-69 146.5z" />
<glyph unicode="&#x2dc;" horiz-adv-x="1085" d="M147 1274q25 97 98 158t187 61q47 0 86.5 -13.5t63 -29.5t55 -29.5t63.5 -13.5q70 0 107 76q108 0 162 -35q-17 -109 -99 -190.5t-211 -81.5q-43 0 -82.5 14t-64 30t-58 30t-67.5 14q-76 0 -106 -78q-42 6 -80.5 31t-53.5 57z" />
<glyph unicode="&#x2dd;" horiz-adv-x="1085" d="M88 1223l238 350q56 0 135 -27t110 -61l-352 -383q-38 13 -76.5 50t-54.5 71zM549 1223l237 350q56 0 135.5 -27t110.5 -61l-352 -383q-38 13 -76.5 50t-54.5 71z" />
<glyph unicode="&#x315;" horiz-adv-x="890" d="M276 1024q75 138 119 295l-88 20q14 40 44 87.5t57 78.5q46 11 96 11q93 0 174 -31q-33 -113 -116.5 -273.5t-155.5 -255.5q-29 7 -70 29t-60 39z" />
<glyph unicode="&#x3c0;" horiz-adv-x="1251" d="M4 649q-9 41 4 115t33 113q116 85 238.5 114t377.5 29q228 0 578 -19q7 -42 1 -116t-22 -131q-101 7 -204 10q-60 -262 -60 -426q0 -74 15 -109.5t57 -35.5q54 0 90 18q-2 -52 -19 -119t-42 -100q-27 -12 -74.5 -19.5t-85.5 -7.5q-112 0 -158.5 84.5t-46.5 233.5 q0 195 72 491q-75 10 -164 10q-30 0 -80 -4q-7 -202 -50 -423t-110 -404q-178 14 -266 88q66 154 111.5 347t52.5 370q-62 -9 -129 -39t-119 -70z" />
<glyph unicode="&#x1e80;" horiz-adv-x="2062" d="M61 1452h594q-13 -109 -51 -197q-19 -6 -64.5 -11t-70.5 -5q40 -82 61 -213l56 -354q30 -188 30 -412h23q6 83 29 198t49 191l287 821h280l113 -782q18 -126 18 -412h25q11 93 34.5 200.5t47.5 172.5l143 377q50 133 104 215q-53 3 -112 21q-21 82 -21 190h502 q-13 -116 -47 -197q-49 -13 -104 -16l-506 -1262h-262l-111 848q-16 141 -16 353h-25q-19 -197 -68 -344l-297 -859h-290l-234 1266q-47 6 -98 25q-19 81 -19 186zM692 1765q36 50 108.5 109t127.5 80l409 -221q-8 -42 -35.5 -100.5t-54.5 -88.5z" />
<glyph unicode="&#x1e81;" horiz-adv-x="1667" d="M-18 780q0 34 14.5 98.5t30.5 84.5q103 49 223 49q61 0 123 -19l49 -518q10 -97 10 -264h25q129 417 215 778l387 27l67 -533q19 -148 19 -272h24q117 296 195 565q0 15 -8 35l-129 -10q3 46 21.5 102.5t41.5 79.5q36 14 117.5 27.5t122.5 13.5q27 -21 63.5 -92.5 t36.5 -108.5q-158 -398 -411 -874l-312 47l-69 762h-25q-114 -404 -264 -809l-340 47l-103 797zM584 1505q40 32 123.5 59t144.5 27l211 -393q-29 -24 -85.5 -44.5t-92.5 -20.5z" />
<glyph unicode="&#x1e82;" horiz-adv-x="2062" d="M61 1452h594q-13 -109 -51 -197q-19 -6 -64.5 -11t-70.5 -5q40 -82 61 -213l56 -354q30 -188 30 -412h23q6 83 29 198t49 191l287 821h280l113 -782q18 -126 18 -412h25q11 93 34.5 200.5t47.5 172.5l143 377q50 133 104 215q-53 3 -112 21q-21 82 -21 190h502 q-13 -116 -47 -197q-49 -13 -104 -16l-506 -1262h-262l-111 848q-16 141 -16 353h-25q-19 -197 -68 -344l-297 -859h-290l-234 1266q-47 6 -98 25q-19 81 -19 186zM974.5 1634.5q-4.5 58.5 0.5 96.5l489 233q38 -34 77 -99.5t54 -121.5l-606 -205q-10 38 -14.5 96.5z" />
<glyph unicode="&#x1e83;" horiz-adv-x="1667" d="M-18 780q0 34 14.5 98.5t30.5 84.5q103 49 223 49q61 0 123 -19l49 -518q10 -97 10 -264h25q129 417 215 778l387 27l67 -533q19 -148 19 -272h24q117 296 195 565q0 15 -8 35l-129 -10q3 46 21.5 102.5t41.5 79.5q36 14 117.5 27.5t122.5 13.5q27 -21 63.5 -92.5 t36.5 -108.5q-158 -398 -411 -874l-312 47l-69 762h-25q-114 -404 -264 -809l-340 47l-103 797zM684 1231l289 346q62 0 147 -27.5t117 -64.5l-420 -369q-37 13 -77.5 48.5t-55.5 66.5z" />
<glyph unicode="&#x1e84;" horiz-adv-x="2062" d="M61 1452h594q-13 -109 -51 -197q-19 -6 -64.5 -11t-70.5 -5q40 -82 61 -213l56 -354q30 -188 30 -412h23q6 83 29 198t49 191l287 821h280l113 -782q18 -126 18 -412h25q11 93 34.5 200.5t47.5 172.5l143 377q50 133 104 215q-53 3 -112 21q-21 82 -21 190h502 q-13 -116 -47 -197q-49 -13 -104 -16l-506 -1262h-262l-111 848q-16 141 -16 353h-25q-19 -197 -68 -344l-297 -859h-290l-234 1266q-47 6 -98 25q-19 81 -19 186zM608 1731q0 69 50 114t124 45q76 0 123 -42.5t47 -116.5q0 -79 -48 -124.5t-122 -45.5q-84 0 -129 43 t-45 127zM1323 1731q0 69 50 114t124 45q76 0 123 -42.5t47 -116.5q0 -79 -48 -124.5t-122 -45.5q-84 0 -129 43t-45 127z" />
<glyph unicode="&#x1e85;" horiz-adv-x="1667" d="M-18 780q0 34 14.5 98.5t30.5 84.5q103 49 223 49q61 0 123 -19l49 -518q10 -97 10 -264h25q129 417 215 778l387 27l67 -533q19 -148 19 -272h24q117 296 195 565q0 15 -8 35l-129 -10q3 46 21.5 102.5t41.5 79.5q36 14 117.5 27.5t122.5 13.5q27 -21 63.5 -92.5 t36.5 -108.5q-158 -398 -411 -874l-312 47l-69 762h-25q-114 -404 -264 -809l-340 47l-103 797zM434 1333q0 67 45 111.5t111 44.5q70 0 111.5 -41.5t41.5 -114.5q0 -78 -42.5 -123t-110.5 -45q-76 0 -116 42.5t-40 125.5zM1036 1333q0 67 45 111.5t111 44.5q70 0 112 -41.5 t42 -114.5q0 -78 -43 -123t-111 -45q-76 0 -116 42.5t-40 125.5z" />
<glyph unicode="&#x1ef2;" horiz-adv-x="1314" d="M68 1452h608q-9 -81 -49 -197q-44 -11 -121 -16q32 -28 61 -104l78 -201q42 -110 45 -211h25q10 50 33.5 110t46.5 99l131 217q26 45 80 92q-56 7 -97 25q-18 92 -18 186h520q-13 -116 -47 -197q-52 -13 -107 -16l-464 -694l-23 -328q103 -7 195 -29q7 -35 4.5 -95 t-11.5 -93h-731q4 36 24.5 92t39.5 90q81 24 170 35l28 318l-309 706q-47 6 -98 25q-18 73 -14 186zM311 1765q36 50 108.5 109t127.5 80l409 -221q-8 -42 -35.5 -100.5t-54.5 -88.5z" />
<glyph unicode="&#x1ef3;" horiz-adv-x="1001" d="M-66 -233q240 71 359 206l-217 830l-125 -8q0 32 16.5 96t32.5 84q91 43 219 43q52 0 113 -21l114 -524q30 -140 33 -262h25q84 215 182 555q0 15 -8 35l-139 -8q5 46 24.5 101.5t42.5 78.5q42 16 134 27.5t145 11.5q24 -21 55 -93t31 -110q-98 -258 -239 -535.5 t-240 -396.5q-109 -128 -222 -221t-250 -150q-31 40 -58.5 123t-27.5 138zM289 1505q40 32 123.5 59t144.5 27l211 -393q-29 -24 -85.5 -44.5t-92.5 -20.5z" />
<glyph unicode="&#x2000;" horiz-adv-x="1190" />
<glyph unicode="&#x2001;" horiz-adv-x="2380" />
<glyph unicode="&#x2002;" horiz-adv-x="1190" />
<glyph unicode="&#x2003;" horiz-adv-x="2380" />
<glyph unicode="&#x2004;" horiz-adv-x="793" />
<glyph unicode="&#x2005;" horiz-adv-x="595" />
<glyph unicode="&#x2006;" horiz-adv-x="396" />
<glyph unicode="&#x2007;" horiz-adv-x="396" />
<glyph unicode="&#x2008;" horiz-adv-x="297" />
<glyph unicode="&#x2009;" horiz-adv-x="476" />
<glyph unicode="&#x200a;" horiz-adv-x="132" />
<glyph unicode="&#x2010;" horiz-adv-x="702" d="M33 451q10 126 51 229h518q2 -8 2 -25v-26q0 -105 -20 -178h-551z" />
<glyph unicode="&#x2011;" horiz-adv-x="702" d="M33 451q10 126 51 229h518q2 -8 2 -25v-26q0 -105 -20 -178h-551z" />
<glyph unicode="&#x2012;" horiz-adv-x="702" d="M33 451q10 126 51 229h518q2 -8 2 -25v-26q0 -105 -20 -178h-551z" />
<glyph unicode="&#x2013;" horiz-adv-x="1024" d="M61 461q10 123 50 217h809q0 -7 1 -22t1 -23q0 -99 -21 -172h-840z" />
<glyph unicode="&#x2014;" horiz-adv-x="2048" d="M102 461q10 123 50 217h1703q0 -7 1.5 -22t1.5 -23q0 -99 -21 -172h-1735z" />
<glyph unicode="&#x2018;" horiz-adv-x="528" d="M66 907q105 290 292 555q79 31 183 31q-57 -108 -116.5 -242t-84.5 -215l119 -28q-14 -40 -53.5 -101t-73.5 -90q-59 4 -142 33t-124 57z" />
<glyph unicode="&#x2019;" horiz-adv-x="573" d="M92 893q103 211 146 379l-115 26q21 52 54 109t63 86q54 14 112 14q93 0 195 -37q-43 -149 -142.5 -341.5t-185.5 -311.5q-36 10 -73.5 33t-53.5 43z" />
<glyph unicode="&#x201a;" horiz-adv-x="565" d="M-8 -367q101 215 151 396l-112 26q19 52 50.5 108t61.5 85q49 14 115 14q94 0 197 -35q-41 -150 -143.5 -350.5t-188.5 -318.5q-36 10 -76 33t-55 42z" />
<glyph unicode="&#x201b;" horiz-adv-x="542" d="M74 1462q103 41 225 41q43 0 80 -6q28 -37 48.5 -92.5t23.5 -104.5l-115 -26q6 -200 53 -402q-25 -19 -75.5 -38t-90.5 -25q-53 117 -96 303t-53 350z" />
<glyph unicode="&#x201c;" horiz-adv-x="1011" d="M35 907q103 286 295 557q79 31 176 31q-56 -107 -116 -242t-85 -217l119 -28q-14 -39 -55 -102t-74 -93q-62 6 -140.5 35t-119.5 59zM508 907q105 283 295 557q79 31 178 31q-57 -106 -117 -241.5t-84 -217.5l119 -28q-14 -39 -56 -102t-75 -93q-61 6 -140 35t-120 59z " />
<glyph unicode="&#x201d;" horiz-adv-x="964" d="M74 893q97 193 145 379l-115 26q21 52 54 109t63 86q49 14 113 14q98 0 190 -37q-43 -150 -142 -342.5t-185 -310.5q-35 10 -71 33t-52 43zM532 893q102 202 144 379l-115 26q20 50 54 108t63 87q49 14 113 14q98 0 190 -37q-41 -149 -141 -341t-187 -312 q-34 10 -70.5 33.5t-50.5 42.5z" />
<glyph unicode="&#x201e;" horiz-adv-x="1024" d="M-6 -358q103 218 143 387l-110 26q19 51 51 108.5t61 86.5q52 14 113 14q98 0 190 -37q-42 -151 -141 -348t-184 -313q-35 10 -71 33t-52 43zM455 -358q96 198 145 387l-113 26q21 54 53 110.5t62 84.5q49 14 111 14q100 0 192 -37q-43 -151 -143 -348t-184 -313 q-34 10 -70.5 33t-52.5 43z" />
<glyph unicode="&#x2020;" horiz-adv-x="1024" d="M96 797q10 116 47 207h260l25 409q138 41 311 41l-55 -450h299q5 -39 0.5 -100.5t-16.5 -106.5h-305l-150 -1155q-46 -11 -102 -11q-53 0 -99 11l78 1155h-293z" />
<glyph unicode="&#x2021;" horiz-adv-x="1024" d="M45 203q10 116 47 207h275l26 387h-293q10 116 47 207h261l24 407q138 41 311 41l-55 -448h293q5 -39 0.5 -100.5t-16.5 -106.5h-299l-52 -387h310q5 -40 0 -101t-17 -106h-319l-72 -559q-46 -11 -102 -11q-53 0 -99 11l37 559h-307z" />
<glyph unicode="&#x2022;" horiz-adv-x="1214" d="M289 506q0 138 89 223.5t230 85.5t230.5 -83t89.5 -226q0 -156 -89 -245t-231 -89q-156 0 -237.5 85.5t-81.5 248.5z" />
<glyph unicode="&#x2026;" horiz-adv-x="1923" d="M156 141q0 69 44 111.5t115 42.5t114.5 -41t43.5 -113q0 -80 -43.5 -123t-114.5 -43q-159 0 -159 166zM772 141q0 69 44.5 111.5t115.5 42.5t114.5 -41t43.5 -113q0 -80 -43.5 -123t-114.5 -43q-160 0 -160 166zM1386 141q0 69 44.5 111.5t115.5 42.5t114.5 -41 t43.5 -113q0 -80 -43.5 -123t-114.5 -43q-160 0 -160 166z" />
<glyph unicode="&#x202f;" horiz-adv-x="476" />
<glyph unicode="&#x2030;" horiz-adv-x="2856" d="M90 756q0 179 113.5 287t302.5 108q151 0 232 -75.5t81 -223.5q0 -178 -115 -281.5t-303 -103.5q-152 0 -231.5 72.5t-79.5 216.5zM336 776q0 -65 25.5 -100t72.5 -35q63 0 99 57.5t36 143.5q0 133 -94 133q-66 0 -102.5 -58t-36.5 -141zM434 20l897 1151 q52 -2 118.5 -17t111.5 -36l-934 -1218q-43 9 -105.5 49t-87.5 71zM1151 248q0 179 113.5 287t302.5 108q151 0 232 -75.5t81 -223.5q0 -178 -115 -281.5t-303 -103.5q-152 0 -231.5 72.5t-79.5 216.5zM1397 268q0 -65 25.5 -100t72.5 -35q63 0 99 57.5t36 143.5 q0 133 -94 133q-66 0 -102.5 -58t-36.5 -141zM2001 248q0 179 113.5 287t302.5 108q151 0 232 -75.5t81 -223.5q0 -178 -115 -281.5t-303 -103.5q-152 0 -231.5 72.5t-79.5 216.5zM2247 268q0 -65 25.5 -100t72.5 -35q63 0 99 57.5t36 143.5q0 133 -94 133q-66 0 -102.5 -58 t-36.5 -141z" />
<glyph unicode="&#x2039;" horiz-adv-x="737" d="M66 528q108 202 260 408q140 45 309 45q-142 -230 -242 -453q38 -202 121 -407q-47 -24 -123 -42t-133 -18q-132 261 -192 467z" />
<glyph unicode="&#x203a;" horiz-adv-x="722" d="M70 135q120 192 211 393q-45 195 -117 394q49 27 121 47t129 20q126 -239 192 -461q-107 -196 -309 -471q-114 9 -227 78z" />
<glyph unicode="&#x203e;" horiz-adv-x="1024" d="M-55 1294q10 118 47 209h1061q3 -44 -1.5 -105t-17.5 -104h-1089z" />
<glyph unicode="&#x2044;" horiz-adv-x="1327" d="M12 35l1143 1470q136 0 234 -45l-1184 -1550q-58 13 -112 49t-81 76z" />
<glyph unicode="&#x205f;" horiz-adv-x="595" />
<glyph unicode="&#x2074;" horiz-adv-x="788" d="M37 954l16 131l375 486h264l-49 -447h96q5 -31 1 -84.5t-13 -85.5h-98l-17 -176q-29 -10 -110 -10q-80 0 -119 10l18 176h-364zM270 1118q35 6 78 6h72l14 125q6 61 23 123h-15l-172 -239v-15z" />
<glyph unicode="&#x20ac;" horiz-adv-x="1294" d="M47 324q6 77 35 155h842q8 -77 -13 -155h-372q30 -80 94.5 -115t167.5 -35q75 0 171 16t173 43q0 -39 -20.5 -94t-49.5 -90q-74 -38 -181 -64t-208 -26q-191 0 -319 97.5t-168 267.5h-152zM72 573q6 82 34 156h125q78 191 257 306.5t411 115.5q201 0 358 -94 q0 -60 -19 -139t-42 -130q-56 0 -134 20t-120 44l10 86q-43 16 -106 16q-93 0 -169.5 -60t-117.5 -165h389q8 -80 -12 -156h-864z" />
<glyph unicode="&#x2113;" horiz-adv-x="1042" d="M88 506q32 18 135 80l41 395q12 113 52.5 202.5t99.5 145t129.5 84.5t146.5 29q124 0 202.5 -74t78.5 -215q0 -175 -123 -336t-352 -325q-15 -132 -15 -185q0 -65 21.5 -101t77.5 -36q43 0 97.5 32t108.5 93q38 -22 80 -57.5t60 -63.5q-174 -215 -396 -215 q-152 0 -245.5 75.5t-93.5 217.5q0 30 4 70q-82 -46 -86 -48q-16 43 -22 113t-1 119zM526 784q183 171 183 353q0 104 -56 104q-43 0 -74 -67t-38 -177z" />
<glyph unicode="&#x2122;" horiz-adv-x="2039" d="M102 1196l33 256h760l-31 -254q-82 0 -147 12q-8 35 -8 119h-117l-35 -364q62 -4 109 -19q4 -19 0.5 -59t-11.5 -64h-428q12 68 43 121q54 15 88 19l43 366h-112q-14 -60 -31 -110q-65 -23 -156 -23zM918 823q8 59 34 123q33 10 74 17l45 348q-70 11 -84 16q0 67 14 125 h371l72 -352q10 -49 18 -144h19q16 73 43 131l162 365h344q0 -53 -19 -127q-46 -12 -84 -12l-33 -346q50 -4 97 -21q5 -19 0.5 -59.5t-13.5 -63.5h-358q7 61 33 123q41 12 65 15l45 368h-18q-17 -67 -80 -201l-143 -315h-205l-68 332q-24 122 -24 184h-19l-37 -368 q40 -3 74 -17q3 -22 -1 -59.5t-11 -61.5h-313z" />
<glyph unicode="&#x2126;" horiz-adv-x="1681" d="M-51 0l31 332q138 0 217 -21q14 -54 14 -118h219v24q-57 41 -99.5 83t-80 101.5t-57 138.5t-19.5 177q0 164 57 307.5t154 244t231 158.5t283 58q174 0 308 -77.5t206 -215.5t72 -315q0 -116 -33 -226t-86.5 -193t-115 -144.5t-124.5 -96.5v-24h220q5 49 28 120 q95 25 228 25l-31 -338h-742l15 174q134 75 230.5 269t96.5 421q0 89 -17 165t-51.5 137.5t-93 96.5t-135.5 35q-95 0 -172 -53.5t-123.5 -141t-71 -193.5t-24.5 -218q0 -180 58.5 -312.5t156.5 -205.5l-16 -174h-733z" />
<glyph unicode="&#x212e;" horiz-adv-x="1800" d="M88 698q0 151 65 288.5t175 237.5t262.5 159t320.5 59q133 0 258 -37.5t226 -106.5t177 -160.5t117.5 -205t41.5 -234.5v-18h-1330q-10 0 -10 -8v-404q0 -28 19 -47q94 -102 225.5 -160.5t277.5 -58.5q157 0 293 65t234 179h121q-114 -134 -284.5 -210.5t-365.5 -76.5 q-168 0 -320.5 58.5t-262.5 157.5t-175 236t-65 287zM391 735q0 -10 10 -10h1020q3 0 6 3.5t3 6.5v400q0 33 -23 53q-94 97 -222 152t-272 55q-146 0 -276 -57t-225 -158q-21 -15 -21 -54v-391z" />
<glyph unicode="&#x2153;" horiz-adv-x="1896" d="M63 657q10 73 48 144q52 16 106 22l49 455l-157 -14q13 90 51 157q192 44 362 52l-63 -652q69 -4 121 -16q9 -77 -2 -148h-515zM254 35l1143 1470q135 0 233 -45l-1184 -1550q-57 13 -111 48.5t-81 76.5zM1147.5 93q-5.5 60 3.5 102q47 -23 120 -38.5t124 -15.5 t82.5 19.5t31.5 60.5q0 47 -53.5 64.5t-195.5 17.5q0 38 9.5 88t22.5 80q122 2 185 27t63 84q0 57 -63 57q-36 0 -60 -8l-6 -68q-31 -12 -86 -19t-94 -7q-14 85 -14 204q63 26 150.5 43t150.5 17q110 0 187 -49t77 -142q0 -71 -45.5 -124t-118.5 -72v-19q137 -27 137 -159 q0 -86 -55.5 -147.5t-141 -89.5t-188.5 -28q-117 0 -203 27q-14 35 -19.5 95z" />
<glyph unicode="&#x2154;" horiz-adv-x="1896" d="M18 657l19 156q32 28 84.5 67t97 70.5t93.5 71.5t83.5 75t57 75t22.5 77q0 66 -82 66q-22 0 -54.5 -5.5t-45.5 -11.5l-6 -90q-79 -28 -189 -28q-10 76 -10 213q167 80 346 80q130 0 206.5 -45t76.5 -140q0 -49 -20 -96.5t-59.5 -90t-79.5 -77t-98.5 -71t-97 -58.5 t-94.5 -51v-15q168 0 418 17q-13 -102 -39 -189h-629zM266 35l1143 1470q135 0 233 -45l-1183 -1550q-58 13 -112 49t-81 76zM1156.5 92.5q-5.5 59.5 2.5 102.5q47 -23 120 -38.5t124 -15.5t83 20t32 60q0 47 -54 64.5t-196 17.5q0 38 9.5 88t22.5 80q122 2 185 27t63 84 q0 57 -63 57q-36 0 -60 -8l-6 -68q-31 -12 -86 -19t-94 -7q-14 85 -14 204q63 26 150.5 43t150.5 17q110 0 187 -49t77 -142q0 -71 -45.5 -124t-118.5 -72v-19q137 -27 137 -159q0 -86 -55.5 -147.5t-141 -89.5t-188.5 -28q-116 0 -202 27q-14 35 -19.5 94.5z" />
<glyph unicode="&#x2202;" horiz-adv-x="1105" d="M33 358q0 108 37 211t101.5 183t160.5 129t205 49q163 0 215 -117h24q2 25 2 70q0 233 -77.5 342.5t-206.5 109.5q-67 0 -149 -23t-136 -57q-6 51 14 131t47 123q112 47 271 47q83 0 157 -23.5t139 -75.5t112.5 -127.5t74.5 -186.5t27 -246q0 -140 -23.5 -274t-74 -254.5 t-122 -211.5t-174.5 -144.5t-225 -53.5q-182 0 -290.5 108.5t-108.5 290.5zM315 360q0 -87 36.5 -137.5t103.5 -50.5q56 0 105 35.5t84.5 98t61 138.5t42.5 166q-37 45 -89.5 72t-105.5 27q-72 0 -128 -53.5t-83 -131.5t-27 -164z" />
<glyph unicode="&#x2206;" horiz-adv-x="1345" d="M-49 0l10 131l674 1339h223l410 -1316l-13 -154h-1304zM279 195h639l-175 604q-17 56 -33 174.5t-16 185.5h-24q-9 -69 -42.5 -184t-60.5 -172z" />
<glyph unicode="&#x220f;" horiz-adv-x="1525" d="M-90 -209q5 40 21.5 97t33.5 87q48 17 144 33l114 1231q-79 8 -129 25q-3 36 2 96.5t15 91.5h1437q3 -31 -4.5 -93.5t-17.5 -94.5q-66 -19 -148 -23l-100 -1233q86 -7 158 -28q5 -33 1.5 -95t-12.5 -94h-634q7 42 22 98.5t29 85.5q45 17 131 33l119 1249h-578l-100 -1249 q78 -7 143 -28q5 -33 2 -95.5t-12 -93.5h-637z" />
<glyph unicode="&#x2211;" horiz-adv-x="1214" d="M-115 -211l15 168l579 647l-438 674l16 174h1131l-35 -373q-132 0 -223 31q-10 46 -10 147h-545v-24q41 -23 91 -71.5t79 -94.5l266 -428l-334 -377q-49 -56 -121 -115.5t-127 -87.5v-24h611q17 89 43 166q41 13 113 21.5t126 8.5l-39 -442h-1198z" />
<glyph unicode="&#x2212;" d="M74 436q10 125 51 228h905q5 -46 0 -112.5t-18 -115.5h-938z" />
<glyph unicode="&#x221a;" horiz-adv-x="1124" d="M0 616q3 125 41 240l326 80l106 -459q13 -58 22 -160t9 -176h24q10 76 32.5 175.5t47.5 164.5l459 1194q53 -3 126.5 -23t115.5 -42l-688 -1721l-285 -34l-201 792z" />
<glyph unicode="&#x221e;" horiz-adv-x="1685" d="M39 496q0 84 31 163t86.5 141.5t140.5 100t184 37.5q123 0 219.5 -54.5t180.5 -148.5q84 89 199 145t235 56q145 0 227 -96t82 -240q0 -111 -58.5 -209.5t-162 -158.5t-225.5 -60q-213 0 -387 201q-199 -199 -433 -199q-153 0 -236 90.5t-83 231.5zM297 541 q0 -61 37 -100.5t96 -39.5q119 0 240 125q-128 176 -230 176q-59 0 -101 -47t-42 -114zM999 586q59 -83 114 -129.5t114 -46.5q61 0 102 44.5t41 108.5t-37.5 105t-91.5 41q-57 0 -124 -35t-118 -88z" />
<glyph unicode="&#x222b;" horiz-adv-x="696" d="M-168 -326q3 37 29 106t57 120q65 -45 125 -45q62 0 91 60.5t38 193.5q12 159 19.5 555t21.5 561q8 97 38 182.5t79.5 152t122 105.5t159.5 39t154 -29q31 -91 31 -239q-25 25 -67.5 39t-78.5 14q-79 0 -113 -67.5t-46 -204.5q-14 -156 -24.5 -553t-23.5 -555 q-9 -103 -35 -187t-72 -152.5t-121.5 -106.5t-174.5 -38q-117 0 -209 49z" />
<glyph unicode="&#x2248;" d="M82 369q51 49 128 86t155 37q56 0 109 -16t87.5 -35.5t81 -35.5t90.5 -16t93.5 20.5t82.5 53.5q26 -17 59 -60.5t44 -74.5q-44 -65 -124 -111.5t-194 -46.5q-56 0 -109 15.5t-87.5 34.5t-81.5 34.5t-92 15.5q-50 0 -113 -27t-102 -63q-27 63 -27 189zM131 778 q51 53 126.5 91t156.5 38q70 0 134.5 -25.5t122 -51t111.5 -25.5q45 0 94.5 20.5t84.5 53.5q26 -17 58.5 -61t43.5 -75q-45 -66 -124.5 -111.5t-193.5 -45.5q-56 0 -109.5 15.5t-88 34.5t-81 34.5t-91.5 15.5q-52 0 -115 -26.5t-100 -63.5q-29 68 -29 182z" />
<glyph unicode="&#x2260;" d="M76 242q10 118 47 213h262l137 190h-399q10 118 47 213h502l96 131q39 0 86 -10t78 -25l-72 -96h174q5 -43 0 -105t-18 -108h-305l-138 -190h412q5 -43 0 -105t-18 -108h-545l-125 -172q-26 6 -68 32t-59 48l66 92h-160z" />
<glyph unicode="&#x2264;" d="M68 0q11 110 53 211h835q5 -30 1 -98t-15 -113h-874zM203 717l26 147l645 410q46 -23 103.5 -69t85.5 -81l-518 -327v-25l430 -297q-17 -39 -77.5 -108t-96.5 -93z" />
<glyph unicode="&#x2265;" d="M84 0q8 97 47 211h830q11 -105 -19 -211h-858zM170 477l508 303v25l-422 315q36 38 99.5 83t115.5 69l545 -412l-8 -147l-703 -453q-32 26 -78.5 100t-56.5 117z" />
<glyph unicode="&#x25ca;" horiz-adv-x="1134" d="M31 694l477 770l274 29l318 -772l-477 -772l-269 -25zM328 748l141 -328q22 -54 38.5 -132.5t16.5 -135.5h25q14 59 45 140t59 128l144 246l-144 383q-14 40 -25.5 101t-11.5 103h-24q-7 -45 -29.5 -105t-46.5 -99z" />
<glyph unicode="&#xe000;" horiz-adv-x="1013" d="M0 0v1014h1014v-1014h-1014z" />
<glyph unicode="&#xfb00;" horiz-adv-x="1474" d="M-14 786q6 46 23.5 100.5t35.5 84.5q69 30 129 41l10 65q32 210 151.5 311t291.5 101q117 0 260 -49q0 -61 -21 -147.5t-49 -145.5q-52 0 -117 17.5t-102 41.5l12 94q-21 7 -37 7q-45 0 -76.5 -55t-43.5 -169l-11 -94h467l17 113q20 138 87.5 232.5t160.5 136.5t206 42 q119 0 265 -49q0 -61 -21 -147.5t-49 -145.5q-52 0 -116.5 18t-102.5 42l12 94q-15 6 -31 6q-51 0 -90.5 -56t-52.5 -167l-14 -119h268q4 -38 2 -100.5t-10 -102.5h-283l-106 -1077q-72 -14 -168 -14q-81 0 -127 14l133 1077h-469l-78 -778q-72 -14 -164 -14q-69 0 -123 14 l97 778h-166z" />
<glyph unicode="&#xfb01;" horiz-adv-x="1339" d="M-14 786q6 46 23.5 100.5t35.5 84.5q69 30 129 41l8 51q36 222 203.5 336t421.5 114q246 0 440 -71q0 -65 -21 -160t-50 -156q-58 0 -134 18.5t-116 41.5l12 110q-76 27 -162 27q-125 0 -218 -67t-107 -193l-9 -74h236q4 -38 2 -100.5t-10 -102.5h-250l-107 -1077 q-72 -14 -168 -14q-81 0 -127 14l134 1077h-166zM766 776q0 33 16.5 96.5t34.5 81.5q45 27 115.5 42.5t142.5 15.5q55 0 125 -19l-90 -766q0 -18 8 -34l144 14q0 -36 -17.5 -93.5t-38.5 -90.5q-53 -22 -150 -40t-161 -18q-30 29 -62 91t-32 98l102 634z" />
<glyph unicode="&#xfb02;" horiz-adv-x="1320" d="M-14 786q6 46 23.5 100.5t35.5 84.5q69 30 129 41l8 47q26 154 113 257.5t212 150t284 46.5q100 0 225 -18.5t215 -56.5l-137 -1211q0 -18 8 -34l143 14q0 -36 -17.5 -93.5t-37.5 -90.5q-53 -22 -150 -40t-161 -18q-31 29 -63 91.5t-32 97.5l156 1144q-83 25 -166 25 q-126 0 -217.5 -65.5t-105.5 -198.5l-9 -70h269q4 -39 1.5 -101t-10.5 -102h-282l-107 -1077q-72 -14 -168 -14q-81 0 -127 14l134 1077h-166z" />
<glyph unicode="&#xfb03;" horiz-adv-x="2076" d="M-14 786q6 46 23.5 100.5t35.5 84.5q69 30 129 41l10 65q32 210 151.5 311t291.5 101q117 0 260 -49q0 -61 -21 -147.5t-49 -145.5q-52 0 -117 17.5t-102 41.5l12 94q-21 7 -37 7q-45 0 -76.5 -55t-43.5 -169l-11 -94h465l13 74q23 149 110.5 251.5t217.5 150.5t296 48 q247 0 441 -71q0 -65 -21.5 -160t-50.5 -156q-58 0 -134 18.5t-116 41.5l12 110q-76 27 -162 27q-125 0 -218 -67t-107 -193l-8 -74h235q4 -38 2 -100.5t-10 -102.5h-250l-106 -1077q-72 -14 -168 -14q-81 0 -127 14l133 1077h-469l-78 -778q-72 -14 -164 -14q-69 0 -123 14 l97 778h-166zM1503 776q0 33 16.5 96.5t34.5 81.5q45 27 115.5 42.5t142.5 15.5q55 0 125 -19l-90 -766q0 -18 8 -34l144 14q0 -36 -17.5 -93.5t-37.5 -90.5q-52 -22 -150 -40t-162 -18q-30 29 -62 91t-32 98l102 634z" />
<glyph unicode="&#xfb04;" horiz-adv-x="2058" d="M-14 786q6 46 23.5 100.5t35.5 84.5q69 30 129 41l10 65q32 210 151.5 311t291.5 101q117 0 260 -49q0 -61 -21 -147.5t-49 -145.5q-52 0 -117 17.5t-102 41.5l12 94q-21 7 -37 7q-45 0 -76.5 -55t-43.5 -169l-11 -94h465l13 70q28 153 114.5 256.5t211 150.5t282.5 47 q100 0 225 -18.5t215 -56.5l-137 -1211q0 -18 8 -34l143 14q0 -36 -17.5 -93.5t-37.5 -90.5q-53 -22 -150 -40t-161 -18q-30 29 -62 91t-32 98l155 1144q-83 25 -166 25q-126 0 -217.5 -65.5t-105.5 -198.5l-8 -70h268q4 -38 2 -100.5t-10 -102.5h-283l-106 -1077 q-72 -14 -168 -14q-81 0 -127 14l133 1077h-469l-78 -778q-72 -14 -164 -14q-69 0 -123 14l97 778h-166z" />
<glyph horiz-adv-x="890" d="M244 -600q73 162 110 285l-100 20q51 120 104 176q47 13 103 13q101 0 184 -27q-33 -113 -116 -277.5t-152 -259.5q-30 8 -70.5 30.5t-62.5 39.5z" />
<glyph horiz-adv-x="1210" d="M20 0q13 86 52 162q51 34 123 59l75 680q-69 7 -127 31q-7 91 15 172h956l-39 -313q-118 0 -207 26q-26 57 -30 96h-275l-24 -264h186q20 38 53 64q75 22 168 22l-43 -358q-99 -10 -176 12q-18 36 -18 76h-189l-24 -270h292q21 64 50 110q118 25 217 19l-37 -324h-998z M270 1536q28 28 86.5 51.5t100.5 26.5l233 -184l289 186q35 -11 79.5 -39.5t67.5 -56.5l-366 -301l-230 -11z" />
<glyph horiz-adv-x="1028" d="M61 1614q10 123 52 229h813q5 -46 -0.5 -112.5t-18.5 -116.5h-846z" />
<glyph d="M82 518q51 49 128 86t155 37q70 0 134 -25.5t121.5 -51t112.5 -25.5q44 0 93.5 20t82.5 53q26 -17 59 -60.5t44 -74.5q-44 -65 -124 -111.5t-194 -46.5q-56 0 -109 16t-87.5 34.5t-81.5 34.5t-92 16q-50 0 -113 -27t-102 -63q-27 63 -27 188zM131 928q51 53 126.5 91 t156.5 38q56 0 109 -16t88 -35.5t81.5 -35.5t89.5 -16q45 0 94.5 20.5t84.5 53.5q26 -17 58.5 -60.5t43.5 -74.5q-46 -66 -125.5 -112t-192.5 -46q-56 0 -109.5 16t-88 34.5t-81 34.5t-91.5 16q-52 0 -115 -27t-100 -64q-29 68 -29 183z" />
<glyph d="M53 0q8 97 47 211h830q11 -105 -19 -211h-858zM152 821q10 96 51 205h284l45 332q104 22 246 22l-37 -354h301q5 -28 1 -95t-15 -110h-307l-37 -346q-54 -14 -125 -14q-86 0 -135 14l43 346h-315z" />
<glyph horiz-adv-x="1366" d="M-49 0q6 42 20 88t29 72q50 38 117 61l495 889l252 31l295 -934q42 -5 86 -25q24 -78 21 -182h-154q-207 -94 -207 -201q0 -35 24.5 -53t63.5 -18q32 0 56 8q26 -62 26 -150q-28 -13 -79.5 -21.5t-90.5 -8.5q-103 0 -173 49t-70 143q0 85 59.5 149.5t161.5 84.5v18h-201 q17 83 68 174q46 20 94 31q-21 32 -35 88l-10 41h-363l-16 -35q-14 -35 -55 -86q52 -7 102 -29q9 -30 13 -86t1 -98h-530zM516 504h246l-39 143q-11 39 -20 106t-9 109h-24q-24 -98 -76 -200z" />
<glyph horiz-adv-x="966" d="M14 150q0 55 23.5 103.5t59.5 81t77 65t77 57.5t59.5 56.5t23.5 64.5q0 37 -17 71q50 28 120.5 52t123.5 28q27 -24 48.5 -71t21.5 -87q0 -53 -27 -99.5t-65 -79t-76 -62t-65 -62.5t-27 -67q0 -66 86 -66q41 0 80 17l12 96q45 12 125.5 23.5t132.5 11.5q4 -55 1 -135 t-11 -136q-70 -21 -195.5 -37t-222.5 -16q-173 0 -269 50.5t-96 140.5zM334 985q0 68 48 114t116 46q71 0 115 -43t44 -117q0 -80 -45 -126t-114 -46q-78 0 -121 44t-43 128z" />
<glyph horiz-adv-x="1165" d="M63 1679l353 332q62 -9 131 -49.5t108 -85.5l-493 -358q-30 23 -59 71t-40 90zM657 1679l353 332q62 -9 131 -49.5t108 -85.5l-493 -358q-30 23 -59 71t-40 90z" />
<glyph horiz-adv-x="1015" d="M29 1812q29 32 95 62.5t120 38.5l266 -156l295 148q33 -11 70.5 -45t58.5 -66l-340 -235h-275z" />
<glyph horiz-adv-x="2215" d="M12 0q19 99 51 162q51 34 123 59l82 680q-72 7 -125 31q-7 85 13 172h477l260 -481q26 -48 58 -136.5t40 -148.5h25l67 563q-91 7 -157 31q-4 36 -1 87.5t11 84.5h512q3 -57 -23 -174q-55 -21 -122 -29l-101 -905l-303 -33l-305 563q-23 43 -51 126.5t-35 140.5h-25 l-59 -578q84 -14 133 -41q2 -36 -2 -91t-12 -83h-531zM1438 111q6 88 39 174h581q8 -93 -14 -174h-606zM1464 664q0 158 84 262q112 137 314 137q144 0 226.5 -73.5t82.5 -207.5q0 -168 -90 -282q-110 -135 -305 -135q-150 0 -231 77.5t-81 221.5zM1694 680q0 -72 26.5 -113 t75.5 -41q59 0 98 52q50 65 50 186q0 63 -27.5 102t-73.5 39q-71 0 -110 -57q-39 -58 -39 -168z" />
<glyph horiz-adv-x="1355" d="M72 1104h624q0 -74 -28 -172q-87 -24 -170 -31l-41 -436q-4 -58 -4 -78q0 -111 42.5 -165t137.5 -54q230 0 260 272l49 461q-75 7 -137 31q0 33 6.5 88t15.5 84h521q0 -63 -33 -174q-54 -21 -133 -29l-45 -440q-22 -229 -166.5 -365.5t-384.5 -136.5q-228 0 -333.5 98 t-105.5 295q0 38 7 99l47 442q-61 12 -115 37q-14 60 -14 174z" />
<glyph horiz-adv-x="1183" d="M37 0q19 99 51 162q51 34 123 59l16 141l-98 -53q-23 58 -18 174l141 80l41 338q-69 7 -127 31q-4 106 14 172h631q1 -28 -8.5 -83t-20.5 -91q-83 -21 -198 -29l-21 -192l234 131q22 -23 45.5 -71t29.5 -81l-329 -178l-33 -324q172 0 278 19q21 77 60 151q39 8 99.5 11.5 t105.5 -0.5l-39 -367h-977z" />
<glyph horiz-adv-x="1196" d="M55 1104h557q-10 -105 -45 -199q-36 -20 -98 -33q33 -33 47 -77l29 -82q26 -72 35 -135h22q25 76 74 141l53 78q36 50 70 77q-49 22 -64 37q-20 105 -6 193h477q-5 -46 -22 -107.5t-37 -97.5q-46 -18 -105 -25l-331 -430l-27 -231q36 -5 92 -18.5t82 -24.5q5 -31 1 -85 t-13 -85h-674q14 70 59 158q54 29 148 57l22 186l-254 478q-46 13 -81 34q-21 123 -11 191zM285 1372l295 238l215 12l249 -303q-22 -34 -66 -67.5t-83 -45.5l-227 201l-312 -205q-24 26 -45 77.5t-26 92.5z" />
<glyph horiz-adv-x="1800" d="M61 1104h527q-14 -117 -49 -197q-35 -21 -111 -35q13 -28 27.5 -80.5t17.5 -84.5l27 -250q13 -146 8 -226h22q20 123 60 228l227 635l322 30l63 -667q12 -130 2 -226h25q16 97 63 222l92 270q7 28 31.5 75t46.5 76q-60 18 -84 39q-23 103 -12 191h469q-5 -47 -20 -108 t-33 -97q-50 -18 -101 -25l-366 -880l-320 -31l-57 623q-13 144 0 252h-25q-15 -125 -61 -252l-209 -592l-336 -31l-153 909q-19 6 -45.5 22t-36.5 28q-21 93 -11 182zM625 1372l295 238l215 12l249 -303q-22 -34 -66 -67.5t-83 -45.5l-227 201l-312 -205q-24 26 -45 77.5 t-26 92.5z" />
<glyph horiz-adv-x="1366" d="M-49 0q6 42 20 88t29 72q50 38 117 61l495 889l252 31l295 -934q42 -5 86 -25q24 -78 21 -182h-584q17 83 68 174q46 20 94 31q-21 32 -35 88l-10 41h-363l-16 -35q-14 -35 -55 -86q52 -7 102 -29q9 -30 13 -86t1 -98h-530zM461 1567q40 32 123.5 59t144.5 27l232 -379 q-29 -24 -86 -45t-93 -21zM516 504h246l-39 143q-11 39 -20 106t-9 109h-24q-24 -98 -76 -200z" />
<glyph horiz-adv-x="911" d="M211 1307l309 331q62 0 147 -27.5t117 -64.5l-440 -354q-37 13 -77.5 48.5t-55.5 66.5z" />
<glyph horiz-adv-x="798" d="M16 0q13 86 52 162q52 35 122 59l78 680q-69 7 -127 31q-7 91 15 172h573q0 -87 -27 -174q-63 -22 -143 -29l-67 -686q91 -14 147 -41q3 -32 -1 -88t-13 -86h-609zM35 1335q26 97 102.5 158t194.5 61q49 0 90.5 -13.5t65.5 -29.5t57 -29.5t67 -13.5q74 0 111 76 q108 0 162 -35q-17 -108 -103 -190t-219 -82q-57 0 -105.5 22t-92 44t-86.5 22q-81 0 -111 -78q-42 6 -80 31t-53 57z" />
<glyph horiz-adv-x="1314" d="M51 432q0 147 55 277t151 223.5t231 148t288 54.5q110 0 210.5 -28t170.5 -79q0 -67 -19 -150t-44 -143q-64 3 -137.5 18t-118.5 35l12 136q-52 22 -113 22q-157 0 -257.5 -133.5t-100.5 -349.5q0 -165 65.5 -232t190.5 -67q57 0 135 10l25 201q-105 11 -181 41 q-12 66 -8 164h631q-6 -36 -23.5 -82.5t-35.5 -75.5q-44 -29 -97 -43l-30 -330q-91 -34 -234 -62t-262 -28q-245 0 -374.5 123t-129.5 350zM373 1524q25 25 76 46t100 29q12 -174 184 -174q154 0 236 164q45 -3 94 -17.5t76 -33.5q-47 -150 -160.5 -238t-278.5 -88 q-158 0 -241 82t-86 230z" />
<glyph horiz-adv-x="1210" d="M20 0q13 86 52 162q51 34 123 59l75 680q-69 7 -127 31q-7 91 15 172h956l-39 -313q-118 0 -207 26q-26 57 -30 96h-275l-24 -264h186q20 38 53 64q75 22 168 22l-43 -358q-99 -10 -176 12q-18 36 -18 76h-189l-24 -270h292q21 64 50 110q118 25 217 19l-37 -324h-998z M272 1284q10 118 47 209h723q5 -39 0.5 -101.5t-16.5 -107.5h-754z" />
<glyph horiz-adv-x="1380" d="M18 0q18 96 52 162q51 34 123 59l83 680q-68 7 -126 31q-4 106 14 172h547q3 -61 -27 -174q-42 -20 -115 -29l-24 -246h104l139 160q51 55 99 86q-54 12 -82 33q-20 78 -8 170h534q-5 -39 -20.5 -94t-32.5 -88q-47 -19 -115 -31l-293 -307q74 -125 156 -235.5t121 -147.5 l123 10q-3 -46 -23.5 -112t-42.5 -105q-119 -25 -237 -31q-68 53 -163 191t-186 315h-92l-26 -258q71 -12 121 -41q3 -31 -1.5 -85.5t-13.5 -84.5h-588zM416 -600q73 162 110 285l-100 20q51 120 104 176q47 13 103 13q101 0 184 -27q-33 -113 -116 -277.5t-152 -259.5 q-30 8 -70.5 30.5t-62.5 39.5z" />
<glyph horiz-adv-x="933" d="M139 1634.5q-5 58.5 0 96.5l490 233q38 -34 77 -99.5t54 -121.5l-606 -205q-10 38 -15 96.5z" />
<glyph horiz-adv-x="1210" d="M20 0q13 86 52 162q51 34 123 59l75 680q-69 7 -127 31q-7 91 15 172h956l-39 -313q-118 0 -207 26q-26 57 -30 96h-275l-24 -264h186q20 38 53 64q75 22 168 22l-43 -358q-99 -10 -176 12q-18 36 -18 76h-189l-24 -270h292q21 64 50 110q118 25 217 19l-37 -324h-998z M516 1397q0 70 47.5 116t118.5 46q74 0 119 -43t45 -119q0 -81 -46 -127.5t-118 -46.5q-80 0 -123 44t-43 130z" />
<glyph horiz-adv-x="1355" d="M72 1104h624q0 -74 -28 -172q-87 -24 -170 -31l-41 -436q-4 -58 -4 -78q0 -111 42.5 -165t137.5 -54q230 0 260 272l49 461q-75 7 -137 31q0 33 6.5 88t15.5 84h521q0 -63 -33 -174q-54 -21 -133 -29l-45 -440q-22 -229 -166.5 -365.5t-384.5 -136.5q-228 0 -333.5 98 t-105.5 295q0 38 7 99l47 442q-61 12 -115 37q-14 60 -14 174zM502 1403q0 125 81 201.5t226 76.5q225 0 225 -202q0 -125 -84.5 -201t-224.5 -76q-223 0 -223 201zM662 1421q0 -78 79 -78q59 0 94 34t35 91q0 42 -18.5 59t-58.5 17q-61 0 -96 -34.5t-35 -88.5z" />
<glyph horiz-adv-x="1173" d="M-14 0l20 219q45 47 125 119.5t152 134.5t152 142t137 151t95 152t38 153q0 79 -38 120.5t-110 41.5q-38 0 -88.5 -10.5t-83.5 -28.5l-16 -182q-48 -22 -114 -36.5t-120 -14.5q-29 164 -29 380q94 43 224.5 72t251.5 29q131 0 230.5 -34t160.5 -109.5t61 -184.5 q0 -373 -700 -850v-24h395q15 97 47 170q110 26 230 26l-41 -436h-979z" />
<glyph horiz-adv-x="1478" d="M12 0q19 99 51 162q51 34 123 59l82 680q-72 7 -125 31q-7 85 13 172h477l252 -481q25 -49 55.5 -137.5t38.5 -147.5h25l67 563q-93 7 -158 31q-10 81 11 172h512q3 -57 -23 -174q-55 -21 -123 -29l-100 -905l-303 -33l-295 563q-23 42 -50 125.5t-34 141.5h-25l-59 -578 q84 -14 133 -41q2 -36 -2 -91t-12 -83h-531zM461 -600q73 162 110 285l-100 20q51 120 104 176q47 13 103 13q101 0 184 -27q-33 -113 -116 -277.5t-152 -259.5q-30 8 -70.5 30.5t-62.5 39.5z" />
<glyph horiz-adv-x="1327" d="M61 461q0 198 84.5 351.5t236 238t345.5 84.5q236 0 368 -129.5t132 -374.5q0 -198 -87 -352t-239.5 -237t-343.5 -83q-239 0 -367.5 129.5t-128.5 372.5zM373 483q0 -152 61 -239.5t170 -87.5q136 0 225 133.5t89 326.5q0 152 -60 239t-168 87q-94 0 -167.5 -65 t-111.5 -169t-38 -225z" />
<glyph horiz-adv-x="1355" d="M72 1104h624q0 -74 -28 -172q-87 -24 -170 -31l-41 -436q-4 -58 -4 -78q0 -111 42.5 -165t137.5 -54q230 0 260 272l49 461q-75 7 -137 31q0 33 6.5 88t15.5 84h521q0 -63 -33 -174q-54 -21 -133 -29l-45 -440q-22 -229 -166.5 -365.5t-384.5 -136.5q-228 0 -333.5 98 t-105.5 295q0 38 7 99l47 442q-61 12 -115 37q-14 60 -14 174zM350 1284q10 118 47 209h723q5 -39 0.5 -101.5t-16.5 -107.5h-754z" />
<glyph horiz-adv-x="1355" d="M72 1104h624q0 -74 -28 -172q-87 -24 -170 -31l-41 -436q-4 -58 -4 -78q0 -111 42.5 -165t137.5 -54q230 0 260 272l49 461q-75 7 -137 31q0 33 6.5 88t15.5 84h521q0 -63 -33 -174q-54 -21 -133 -29l-45 -440q-22 -229 -166.5 -365.5t-384.5 -136.5q-228 0 -333.5 98 t-105.5 295q0 38 7 99l47 442q-61 12 -115 37q-14 60 -14 174zM436 1567q40 32 124 59t145 27l231 -379q-29 -24 -85.5 -45t-92.5 -21z" />
<glyph horiz-adv-x="1327" d="M61 461q0 198 84.5 351.5t236 238t345.5 84.5q236 0 368 -129.5t132 -374.5q0 -198 -87 -352t-239.5 -237t-343.5 -83q-239 0 -367.5 129.5t-128.5 372.5zM360 1524q25 25 76 46t101 29q12 -174 184 -174q153 0 235 164q45 -3 94 -17.5t76 -33.5q-47 -151 -160.5 -238.5 t-277.5 -87.5q-158 0 -241.5 82t-86.5 230zM373 483q0 -152 61 -239.5t170 -87.5q136 0 225 133.5t89 326.5q0 152 -60 239t-168 87q-94 0 -167.5 -65t-111.5 -169t-38 -225z" />
<glyph horiz-adv-x="1073" d="M35 113q0 128 47 235q162 0 274 -41l-14 -133q54 -31 137 -31q75 0 115.5 38.5t40.5 107.5q0 38 -21 67.5t-54.5 49t-77 40t-89 38t-89 44.5t-77 59.5t-54.5 83.5t-21 115q0 162 124.5 260.5t329.5 98.5q101 0 201.5 -23.5t175.5 -66.5q0 -58 -15.5 -135t-37.5 -127 q-70 0 -144.5 17t-117.5 44l10 100q-39 17 -88 17q-63 0 -94 -33.5t-31 -87.5q0 -40 26.5 -70t68.5 -50.5t93 -41t101.5 -48t92.5 -63t68.5 -94.5t26.5 -135q0 -127 -70 -216.5t-182.5 -131t-255.5 -41.5q-232 0 -395 100q-4 24 -4 54zM233 -600q76 168 111 285l-100 20 q51 120 104 176q47 13 103 13q101 0 184 -27q-33 -113 -116 -277.5t-152 -259.5q-30 8 -71.5 30.5t-62.5 39.5z" />
<glyph horiz-adv-x="1341" d="M23 2q7 39 23 92t30 76q68 41 121 55l82 672q-65 4 -129 23q-3 31 2 89t14 85q273 28 510 28q181 0 312.5 -50.5t206.5 -157.5t75 -263q0 -131 -38 -241t-103.5 -187.5t-153.5 -131.5t-188 -79.5t-207 -25.5q-322 0 -557 16zM334 1516q28 28 86 51t100 26l234 -184 l288 186q35 -11 80 -39.5t68 -56.5l-367 -301l-229 -10zM498 193q58 -7 106 -7q164 0 255 114.5t91 320.5q0 307 -286 307q-56 0 -91 -6z" />
<glyph horiz-adv-x="798" d="M16 0q13 86 52 162q52 35 122 59l78 680q-69 7 -127 31q-7 91 15 172h573q0 -87 -27 -174q-63 -22 -143 -29l-67 -686q91 -14 147 -41q3 -32 -1 -88t-13 -86h-609z" />
<glyph d="M158 616l35 179l661 448q48 -24 104.5 -67.5t83.5 -79.5l-571 -381v-23l453 -352q-19 -41 -77 -107t-99 -92z" />
<glyph d="M39 289q274 434 659 856l293 -47l-67 -744h106q6 -35 3 -103t-15 -114h-113l-31 -334q-55 -14 -141 -14q-101 0 -153 14l32 334h-546zM356 338q64 12 142 12h135l29 289q8 101 38 201h-24q-79 -92 -169.5 -229t-150.5 -249v-24z" />
<glyph horiz-adv-x="694" d="M143 410q0 216 67 420t214 438q44 21 132.5 37t152.5 16q-279 -469 -279 -948q0 -315 100 -545q-36 -30 -102.5 -57.5t-122.5 -36.5q-162 329 -162 676z" />
<glyph horiz-adv-x="593" d="M59 764q0 83 56 136.5t141 53.5t135.5 -49.5t50.5 -140.5q0 -93 -52.5 -148t-133.5 -55q-197 0 -197 203z" />
<glyph horiz-adv-x="1118" d="M10 279q81 -45 186.5 -76t182.5 -31q116 0 189 74t73 205q0 121 -63 171t-177 50q-54 0 -140.5 -10t-145.5 -23l129 762h809q-8 -134 -49 -256h-549l-39 -285q49 14 129 14q190 0 304 -98.5t114 -300.5q0 -128 -49.5 -229t-135 -162.5t-193 -93t-229.5 -31.5 q-172 0 -293 41q-31 49 -46.5 132.5t-6.5 146.5z" />
<glyph horiz-adv-x="1388" d="M-35 10l176 176q-57 117 -57 275q0 198 86 351.5t239.5 238t350.5 84.5q172 0 293 -70l164 156q30 -11 80.5 -54.5t62.5 -70.5l-168 -166q74 -123 74 -299q0 -198 -88.5 -352t-243 -237t-348.5 -83q-196 0 -318 84l-209 -205q-25 24 -56.5 79.5t-37.5 92.5zM395 483 q0 -41 6 -71l480 462q-62 68 -158 68q-97 0 -173 -65t-115.5 -169t-39.5 -225zM455 246q65 -90 178 -90q140 0 231.5 133.5t91.5 326.5q0 64 -8 105zM516 1307l309 331q63 0 148 -27.5t117 -64.5l-441 -354q-37 13 -77.5 48.5t-55.5 66.5z" />
<glyph d="M86 389q10 114 49 219h848q5 -45 0 -108t-18 -111h-879zM135 791q10 114 49 219h848q5 -45 0 -108t-18 -111h-879z" />
<glyph horiz-adv-x="1265" d="M18 2q6 38 23 91.5t31 76.5q70 42 118 55l82 680q-66 4 -129 23q0 34 6.5 91t14.5 83q234 20 477 20q121 0 212.5 -15t159.5 -47t103 -86.5t35 -129.5q0 -90 -59 -157.5t-166 -90.5v-18q115 -24 171 -84t56 -166q0 -91 -48.5 -159t-136 -107.5t-198 -58.5t-244.5 -19 q-88 0 -258.5 6t-249.5 12zM492 178q40 -6 106 -6q238 0 238 158q0 80 -49.5 115.5t-147.5 35.5h-117zM541 666h106q88 0 140.5 36t52.5 107q0 66 -47.5 98.5t-133.5 32.5q-40 0 -90 -4z" />
<glyph d="M-20 510q176 109 525 281t570 264q-1 -201 -44.5 -559.5t-88.5 -561.5q-187 86 -494.5 270t-467.5 306zM410 514q54 -43 161.5 -106t176.5 -93q17 75 30 188t13 189q-75 -27 -196 -83.5t-185 -94.5z" />
<glyph d="M23 0l120 989h967l-106 -989h-981z" />
<glyph horiz-adv-x="2291" d="M68 1065l32 387h1248q90 23 176 23q53 0 123 -19l-27 -268q-14 -148 -70 -332h31q106 168 289 168q53 0 98 -14.5t84 -46t61.5 -88.5t22.5 -134q0 -33 -4 -80t-12 -110t-14 -106t-18 -119.5t-15 -98.5q0 -18 8 -34l149 14q0 -36 -17.5 -93.5t-37.5 -90.5 q-52 -22 -151.5 -40t-163.5 -18q-31 29 -63 91.5t-32 97.5q76 397 76 534q0 127 -92 127q-52 0 -102.5 -44.5t-87.5 -104.5l-72 -658q-79 -14 -174 -14q-82 0 -131 14l168 1252h-508l-76 -1043q103 -7 195 -29q7 -36 5 -95t-10 -93h-735q4 37 24 93t38 89q83 24 170 35 l92 1043h-201q-16 -88 -43 -166q-86 -29 -233 -29zM319 -631q93 186 125 320l-104 22q18 46 48.5 99t57.5 81q54 13 107 13q97 0 188 -33q-30 -121 -117 -296t-163 -275q-35 9 -80 30.5t-62 38.5z" />
<glyph horiz-adv-x="1355" d="M72 1104h624q0 -74 -28 -172q-87 -24 -170 -31l-41 -436q-4 -58 -4 -78q0 -111 42.5 -165t137.5 -54q230 0 260 272l49 461q-75 7 -137 31q0 33 6.5 88t15.5 84h521q0 -63 -33 -174q-54 -21 -133 -29l-45 -440q-22 -229 -166.5 -365.5t-384.5 -136.5q-228 0 -333.5 98 t-105.5 295q0 38 7 99l47 442q-61 12 -115 37q-14 60 -14 174zM383 1524q25 25 76 46t100 29q12 -174 184 -174q154 0 236 164q45 -3 94 -17.5t76 -33.5q-47 -151 -160.5 -238.5t-277.5 -87.5q-158 0 -241.5 82t-86.5 230z" />
<glyph horiz-adv-x="2291" d="M68 1065l32 387h1248q90 23 176 23q53 0 123 -19l-27 -268q-14 -148 -70 -332h31q106 168 289 168q53 0 98 -14.5t84 -46t61.5 -88.5t22.5 -134q0 -33 -4 -80t-12 -110t-14 -106t-18 -119.5t-15 -98.5q0 -18 8 -34l149 14q0 -36 -17.5 -93.5t-37.5 -90.5 q-52 -22 -151.5 -40t-163.5 -18q-31 29 -63 91.5t-32 97.5q76 397 76 534q0 127 -92 127q-52 0 -102.5 -44.5t-87.5 -104.5l-72 -658q-79 -14 -174 -14q-82 0 -131 14l168 1252h-508l-76 -1043q103 -7 195 -29q7 -36 5 -95t-10 -93h-735q4 37 24 93t38 89q83 24 170 35 l92 1043h-201q-16 -88 -43 -166q-86 -29 -233 -29zM287 1812q29 32 95 62.5t120 38.5l266 -156l295 148q33 -11 70.5 -45t58.5 -66l-340 -235h-274z" />
<glyph horiz-adv-x="798" d="M16 0q13 86 52 162q52 35 122 59l78 680q-69 7 -127 31q-7 91 15 172h573q0 -87 -27 -174q-63 -22 -143 -29l-67 -686q91 -14 147 -41q3 -32 -1 -88t-13 -86h-609zM84 1372l295 238l215 12l250 -303q-22 -34 -66.5 -67.5t-83.5 -45.5l-227 201l-311 -205 q-24 26 -45.5 77.5t-26.5 92.5z" />
<glyph horiz-adv-x="1064" d="M84 877q57 302 84 589q135 0 252 -32q-11 -107 -61.5 -284.5t-98.5 -295.5q-78 0 -176 23zM520 877q57 302 84 589q135 0 252 -32q-11 -107 -61.5 -284.5t-98.5 -295.5q-78 0 -176 23z" />
<glyph horiz-adv-x="1355" d="M72 1104h624q0 -74 -28 -172q-87 -24 -170 -31l-41 -436q-4 -58 -4 -78q0 -111 42.5 -165t137.5 -54q230 0 260 272l49 461q-75 7 -137 31q0 33 6.5 88t15.5 84h521q0 -63 -33 -174q-54 -21 -133 -29l-45 -440q-22 -229 -166.5 -365.5t-384.5 -136.5q-228 0 -333.5 98 t-105.5 295q0 38 7 99l47 442q-61 12 -115 37q-14 60 -14 174zM305 1395q0 67 45 111t111 44q70 0 111.5 -41t41.5 -114q0 -78 -42.5 -123t-110.5 -45q-76 0 -116 42.5t-40 125.5zM866 1395q0 67 45 111t111 44q70 0 112 -41t42 -114q0 -78 -43 -123t-111 -45 q-76 0 -116 42.5t-40 125.5z" />
<glyph horiz-adv-x="1142" d="M16 0q18 96 52 162q52 35 122 59l82 680q-69 7 -127 31q-4 103 15 172h631q1 -28 -8.5 -83t-20.5 -91q-83 -21 -199 -29l-74 -715q173 0 279 19q22 81 59 151q39 8 99.5 11.5t105.5 -0.5l-39 -367h-977z" />
<glyph horiz-adv-x="1366" d="M-49 0q6 42 20 88t29 72q50 38 117 61l495 889l252 31l295 -934q42 -5 86 -25q24 -78 21 -182h-584q17 83 68 174q46 20 94 31q-21 32 -35 88l-10 41h-363l-16 -35q-14 -35 -55 -86q52 -7 102 -29q9 -30 13 -86t1 -98h-530zM362 1284q10 115 48 209h723q5 -40 0 -102 t-17 -107h-754zM516 504h246l-39 143q-11 39 -20 106t-9 109h-24q-24 -98 -76 -200z" />
<glyph horiz-adv-x="1658" d="M86 627q0 189 66.5 350t183.5 274.5t282 177.5t357 64q296 0 476.5 -146.5t180.5 -406.5q0 -258 -177.5 -425.5t-496.5 -182.5q-35 57 -38 127h-19q-23 -50 -79 -87.5t-120 -37.5q-91 0 -149.5 68.5t-58.5 197.5q0 200 120 332q127 143 320 143q159 0 283 -86l-78 -424 q0 -23 4 -39q91 23 156.5 89.5t95.5 148.5t30 170q0 127 -66.5 216.5t-172 130t-238.5 40.5q-193 0 -341 -84.5t-227 -234.5t-79 -343q0 -248 136 -389t392 -141q184 0 385 92q24 -22 49.5 -62t34.5 -69q-238 -131 -510 -131q-333 0 -517.5 175t-184.5 493zM737 641 q0 -127 62 -127q53 0 102 59l64 338q-17 7 -39 7q-35 0 -69 -19.5t-58 -52.5q-62 -85 -62 -205z" />
<glyph horiz-adv-x="1267" d="M57 563q0 187 42 346.5t122 278.5t204.5 186.5t279.5 67.5q462 0 462 -613q0 -256 -76 -451.5t-225 -307t-352 -111.5q-228 0 -342.5 149t-114.5 455zM381 557q0 -391 178 -391q68 0 124.5 60t91.5 158t54 217t19 243q0 395 -184 395q-73 0 -129.5 -63.5t-88.5 -166.5 t-48.5 -218.5t-16.5 -233.5z" />
<glyph horiz-adv-x="1210" d="M20 0q13 86 52 162q51 34 123 59l75 680q-69 7 -127 31q-7 91 15 172h956l-39 -313q-118 0 -207 26q-26 57 -30 96h-275l-24 -264h186q20 38 53 64q75 22 168 22l-43 -358q-99 -10 -176 12q-18 36 -18 76h-189l-24 -270h292q21 64 50 110q118 25 217 19l-37 -324h-998z M238 1395q0 67 44.5 111t110.5 44q70 0 112 -41t42 -114q0 -78 -43 -123t-111 -45q-75 0 -115 42.5t-40 125.5zM799 1395q0 67 44.5 111t110.5 44q70 0 112 -41t42 -114q0 -78 -43 -123t-111 -45q-75 0 -115 42.5t-40 125.5z" />
<glyph horiz-adv-x="520" d="M47 416q0 81 54.5 133.5t136.5 52.5q83 0 132.5 -48.5t49.5 -137.5q0 -90 -51 -143.5t-131 -53.5q-191 0 -191 197zM119 1102q0 79 52 129.5t132 50.5q83 0 131.5 -47t48.5 -133q0 -90 -50 -141.5t-130 -51.5q-184 0 -184 193z" />
<glyph horiz-adv-x="716" d="M76 205q0 81 54 133.5t136 52.5q84 0 133.5 -48.5t49.5 -137.5q0 -90 -51.5 -143.5t-131.5 -53.5q-190 0 -190 197zM147 858q0 79 52.5 129.5t132.5 50.5q83 0 131.5 -47t48.5 -133q0 -90 -50 -141t-130 -51q-185 0 -185 192z" />
<glyph horiz-adv-x="1073" d="M35 113q0 128 47 235q162 0 274 -41l-14 -133q54 -31 137 -31q75 0 115.5 38.5t40.5 107.5q0 38 -21 67.5t-54.5 49t-77 40t-89 38t-89 44.5t-77 59.5t-54.5 83.5t-21 115q0 162 124.5 260.5t329.5 98.5q101 0 201.5 -23.5t175.5 -66.5q0 -58 -15.5 -135t-37.5 -127 q-70 0 -144.5 17t-117.5 44l10 100q-39 17 -88 17q-63 0 -94 -33.5t-31 -87.5q0 -40 26.5 -70t68.5 -50.5t93 -41t101.5 -48t92.5 -63t68.5 -94.5t26.5 -135q0 -127 -70 -216.5t-182.5 -131t-255.5 -41.5q-232 0 -395 100q-4 24 -4 54z" />
<glyph horiz-adv-x="1267" d="M66 758q105 198 260 401q64 23 152 39t157 16q-146 -241 -242 -456q42 -211 119 -404q-45 -24 -120.5 -44t-131.5 -23q-134 264 -194 471zM600 764q105 198 260 401q65 23 151.5 39.5t153.5 16.5q-128 -211 -241 -457q43 -216 118 -404q-45 -25 -118.5 -45.5 t-126.5 -21.5q-136 263 -197 471z" />
<glyph horiz-adv-x="843" d="M49 489q6 90 39 175h625q8 -91 -15 -175h-649zM61 995q0 84 26.5 167.5t76.5 142.5q116 137 311 137q142 0 260 -70l-51 -426q0 -16 8 -28l92 10q0 -28 -11.5 -74t-24.5 -70q-35 -15 -111.5 -28t-126.5 -13q-27 46 -35 109h-12q-29 -50 -79.5 -79.5t-115.5 -29.5 q-94 0 -150.5 62.5t-56.5 189.5zM285 1022q0 -115 73 -115q57 0 105 60l51 331q-24 7 -43 7q-37 0 -71.5 -22t-57.5 -56q-28 -38 -42.5 -94t-14.5 -111z" />
<glyph horiz-adv-x="1187" d="M25 309q74 -49 188 -85t188 -36q283 0 365 443h-25q-48 -62 -109 -94.5t-159 -32.5q-184 0 -287.5 112t-103.5 291q0 243 152.5 389t398.5 146q465 0 465 -537q0 -283 -83.5 -497t-241.5 -331.5t-370 -117.5q-187 0 -331 66q-25 51 -41 139t-6 145zM397 920 q0 -98 41.5 -152.5t122.5 -54.5q59 0 117 29t102 73q8 82 8 129q0 71 -9 124.5t-24.5 87t-38.5 54.5t-48 29t-56 8q-101 0 -158 -94.5t-57 -232.5z" />
<glyph horiz-adv-x="1126" d="M199 1372l295 238l215 12l249 -303q-22 -34 -66 -67.5t-83 -45.5l-227 201l-312 -205q-24 26 -45 77.5t-26 92.5z" />
<glyph horiz-adv-x="911" d="M188 1567q40 32 124 59t145 27l231 -379q-29 -24 -85.5 -45t-92.5 -21z" />
<glyph horiz-adv-x="1366" d="M-49 0q6 42 20 88t29 72q50 38 117 61l483 869q-119 38 -119 186q0 125 81 201.5t226 76.5q226 0 226 -202q0 -81 -37 -143.5t-105 -96.5l287 -905q42 -5 86 -25q24 -78 21 -182h-584q17 83 68 174q46 20 94 31q-21 32 -35 88l-10 41h-363l-16 -35q-14 -35 -55 -86 q52 -7 102 -29q9 -30 13 -86t1 -98h-530zM516 504h246l-39 143q-11 39 -20 106t-9 109h-24q-24 -98 -76 -200zM641 1294q0 -77 80 -77q59 0 94 33.5t35 90.5q0 41 -19 58.5t-59 17.5q-61 0 -96 -34.5t-35 -88.5z" />
<glyph horiz-adv-x="1241" d="M53 1104h568q-13 -105 -56 -197q-44 -21 -129 -35q37 -70 60 -167l65 -283q19 -82 19 -170h22q8 39 27.5 97t36.5 87l122 269q39 86 107 169q-57 17 -94 39q-23 88 -10 191h481q-4 -44 -23 -105.5t-39 -99.5q-41 -18 -100 -25l-453 -880l-278 -31l-238 909 q-19 6 -45.5 22t-36.5 28q-16 88 -6 182z" />
<glyph horiz-adv-x="716" d="M-25 -348q112 250 146 375l-109 24q18 51 51.5 109t63.5 88q41 14 111 14q113 0 211 -31q-45 -153 -142 -347t-180 -310q-39 12 -88.5 36t-63.5 42z" />
<glyph horiz-adv-x="1073" d="M35 113q0 128 47 235q162 0 274 -41l-14 -133q54 -31 137 -31q75 0 115.5 38.5t40.5 107.5q0 38 -21 67.5t-54.5 49t-77 40t-89 38t-89 44.5t-77 59.5t-54.5 83.5t-21 115q0 162 124.5 260.5t329.5 98.5q101 0 201.5 -23.5t175.5 -66.5q0 -58 -15.5 -135t-37.5 -127 q-70 0 -144.5 17t-117.5 44l10 100q-39 17 -88 17q-63 0 -94 -33.5t-31 -87.5q0 -40 26.5 -70t68.5 -50.5t93 -41t101.5 -48t92.5 -63t68.5 -94.5t26.5 -135q0 -161 -106 -258t-281 -123l-27 -78q50 -10 83.5 -46t33.5 -91q0 -64 -49 -118t-120 -83.5t-146 -35.5 q-29 20 -53 54.5t-35 70.5q65 8 109 37t44 75q0 33 -29.5 54.5t-74.5 29.5l71 127q-189 13 -323 96q-4 24 -4 54z" />
<glyph horiz-adv-x="798" d="M16 0q13 86 52 162q52 35 122 59l78 680q-69 7 -127 31q-7 91 15 172h573q0 -87 -27 -174q-63 -22 -143 -29l-67 -686q91 -14 147 -41q3 -32 -1 -88t-13 -86h-609zM162 1567q40 32 123.5 59t144.5 27l232 -379q-29 -24 -86 -45t-93 -21z" />
<glyph horiz-adv-x="1366" d="M-49 0q6 42 20 88t29 72q50 38 117 61l495 889l252 31l295 -934q42 -5 86 -25q24 -78 21 -182h-584q17 83 68 174q46 20 94 31q-21 32 -35 88l-10 41h-363l-16 -35q-14 -35 -55 -86q52 -7 102 -29q9 -30 13 -86t1 -98h-530zM395 1372l295 238l215 12l250 -303 q-22 -34 -66 -67.5t-83 -45.5l-228 201l-311 -205q-24 26 -45.5 77.5t-26.5 92.5zM516 504h246l-39 143q-11 39 -20 106t-9 109h-24q-24 -98 -76 -200z" />
<glyph horiz-adv-x="1187" d="M20 0q18 96 52 162q51 34 123 59l81 680q-66 3 -124 19q-2 34 5 92.5t17 87.5q77 8 231 15t240 7q246 0 371 -72t125 -239q0 -102 -43 -182t-115.5 -129t-161.5 -74t-188 -25q-77 0 -117 7l-18 -193q39 -5 95 -18.5t81 -24.5q5 -31 1 -86t-13 -86h-642zM530 600 q40 -6 115 -6q84 0 134 48t50 138q0 72 -44.5 113t-116.5 41q-62 0 -105 -6z" />
<glyph horiz-adv-x="1388" d="M-35 10l176 176q-57 117 -57 275q0 198 86 351.5t239.5 238t350.5 84.5q172 0 293 -70l164 156q30 -11 80.5 -54.5t62.5 -70.5l-168 -166q74 -123 74 -299q0 -198 -88.5 -352t-243 -237t-348.5 -83q-196 0 -318 84l-209 -205q-25 24 -56.5 79.5t-37.5 92.5zM395 483 q0 -41 6 -71l480 462q-62 68 -158 68q-97 0 -173 -65t-115.5 -169t-39.5 -225zM455 246q65 -90 178 -90q140 0 231.5 133.5t91.5 326.5q0 64 -8 105z" />
<glyph horiz-adv-x="1366" d="M-49 0q6 42 20 88t29 72q50 38 117 61l483 869q-119 38 -119 186q0 125 81 201.5t226 76.5q226 0 226 -202q0 -81 -37 -143.5t-105 -96.5l287 -905q42 -5 86 -25q24 -78 21 -182h-584q17 83 68 174q46 20 94 31q-21 32 -35 88l-10 41h-363l-16 -35q-14 -35 -55 -86 q52 -7 102 -29q9 -30 13 -86t1 -98h-530zM508 1702l309 332q62 0 147 -27.5t117 -64.5l-440 -355q-37 13 -77.5 48.5t-55.5 66.5zM516 504h246l-39 143q-11 39 -20 106t-9 109h-24q-24 -98 -76 -200zM641 1294q0 -77 80 -77q59 0 94 33.5t35 90.5q0 41 -19 58.5t-59 17.5 q-61 0 -96 -34.5t-35 -88.5z" />
<glyph horiz-adv-x="595" d="M57 12l162 961q64 31 158 31q22 0 57 -7l-12 -985q-68 -18 -180 -18t-185 18zM188 1321q0 74 50 123t124 49q77 0 122.5 -44.5t45.5 -127.5t-47 -131.5t-121 -48.5q-174 0 -174 180z" />
<glyph horiz-adv-x="1011" d="M27 1675q32 101 114.5 165.5t210.5 64.5q56 0 104.5 -14.5t77 -32t69 -32t83.5 -14.5q85 0 121 84q92 0 166 -41q-7 -54 -31 -104t-65 -92.5t-106 -68t-144 -25.5q-51 0 -97 15t-75.5 33t-72 33t-85.5 15q-42 0 -74 -28.5t-45 -61.5q-46 7 -85.5 36t-65.5 68z" />
<glyph horiz-adv-x="1509" d="M18 0q18 96 52 162q51 34 123 59l86 680q-69 7 -127 31q-4 106 14 172h555q3 -61 -27 -174q-55 -21 -129 -29l-26 -252h409l31 252q-50 6 -102 31q-4 99 16 172h541q0 -87 -27 -174q-63 -22 -143 -29l-72 -686q91 -14 147 -41q3 -32 -1 -88t-13 -86h-582q18 97 48 162 q42 32 106 59l29 238h-408l-29 -244q79 -14 127 -41q3 -32 -1 -88t-13 -86h-584zM442 1372l295 238l215 12l250 -303q-22 -34 -66 -67.5t-83 -45.5l-228 201l-311 -205q-24 26 -45.5 77.5t-26.5 92.5z" />
<glyph horiz-adv-x="688" d="M94 -254l182 1946h426q1 -30 -8 -90t-20 -93q-65 -14 -133 -18l-129 -1546q88 -8 159 -29q5 -28 -0.5 -84t-15.5 -86h-461z" />
<glyph horiz-adv-x="1007" d="M49 1718l326 207h266l287 -221q-15 -40 -54 -90t-73 -72l-326 166l-389 -174q-37 67 -37 184z" />
<glyph horiz-adv-x="737" d="M66 758q106 199 260 407q140 45 309 45q-144 -233 -242 -452q38 -204 121 -408q-46 -24 -122 -41.5t-134 -17.5q-132 261 -192 467z" />
<glyph horiz-adv-x="1294" d="M23 0q6 41 23.5 98t33.5 86q45 17 141 33q107 192 107 377h-193q5 86 43 197h148q-15 84 -15 153q0 238 131 368t387 130q190 0 361 -60q-11 -156 -66 -352q-56 0 -123.5 13.5t-105.5 31.5l14 142q-37 16 -96 16q-117 0 -166 -75.5t-49 -209.5q0 -90 12 -157h369 q3 -43 -1 -100t-17 -97h-355q0 -103 -48 -203t-124 -176v-18h447q9 82 41 165q41 13 113.5 22t127.5 9l-37 -393h-1103z" />
<glyph horiz-adv-x="2048" d="M102 647q11 124 50 217h1703q3 -46 -1 -109.5t-17 -107.5h-1735z" />
<glyph horiz-adv-x="1210" d="M20 0q13 86 52 162q51 34 123 59l75 680q-69 7 -127 31q-7 91 15 172h956l-39 -313q-118 0 -207 26q-26 57 -30 96h-275l-24 -264h186q20 38 53 64q75 22 168 22l-43 -358q-99 -10 -176 12q-18 36 -18 76h-189l-24 -270h292q21 64 50 110q118 25 217 19l-37 -324h-998z M373 1567q40 32 123.5 59t144.5 27l231 -379q-29 -24 -85.5 -45t-92.5 -21z" />
<glyph horiz-adv-x="1327" d="M61 461q0 198 84.5 351.5t236 238t345.5 84.5q236 0 368 -129.5t132 -374.5q0 -198 -87 -352t-239.5 -237t-343.5 -83q-239 0 -367.5 129.5t-128.5 372.5zM373 483q0 -152 61 -239.5t170 -87.5q136 0 225 133.5t89 326.5q0 152 -60 239t-168 87q-94 0 -167.5 -65 t-111.5 -169t-38 -225zM524 1307l310 331q62 0 147 -27.5t117 -64.5l-441 -354q-37 13 -77.5 48.5t-55.5 66.5z" />
<glyph horiz-adv-x="1366" d="M-49 0q6 42 20 88t29 72q50 38 117 61l495 889l252 31l295 -934q42 -5 86 -25q24 -78 21 -182h-584q17 83 68 174q46 20 94 31q-21 32 -35 88l-10 41h-363l-16 -35q-14 -35 -55 -86q52 -7 102 -29q9 -30 13 -86t1 -98h-530zM322 1395q0 67 44.5 111t110.5 44 q70 0 112 -41t42 -114q0 -78 -43 -123t-111 -45q-75 0 -115 42.5t-40 125.5zM516 504h246l-39 143q-11 39 -20 106t-9 109h-24q-24 -98 -76 -200zM883 1395q0 67 44.5 111t110.5 44q70 0 112 -41t42 -114q0 -78 -43 -123t-111 -45q-75 0 -115 42.5t-40 125.5z" />
<glyph horiz-adv-x="1851" d="M-14 786q6 46 23.5 100.5t35.5 84.5q69 30 129 41l8 47q26 154 113 257.5t212 150t284 46.5q100 0 225.5 -19t220.5 -56l-25 -254q-13 -149 -67 -326h31q27 72 96 119t176 47q56 0 108 -22.5t96 -66.5t70.5 -121t26.5 -175q0 -137 -45 -278.5t-121 -225.5 q-156 -170 -409 -170q-167 0 -390 72l158 1263q-83 25 -168 25q-59 0 -112 -15.5t-98.5 -46t-75.5 -83t-37 -121.5l-9 -70h269q4 -39 1.5 -101t-10.5 -102h-282l-107 -1077q-72 -14 -168 -14q-81 0 -127 14l134 1077h-166zM1094 174q30 -12 82 -12q49 0 99.5 21t80.5 57 q45 53 68.5 147.5t23.5 198.5q0 225 -113 225q-49 0 -100 -35.5t-84 -85.5z" />
<glyph horiz-adv-x="782" d="M-68 -141q274 159 306 485l53 553q-41 3 -95 14t-83 21q-4 36 -1 87.5t11 84.5h620q2 -34 -6 -89t-20 -85q-54 -22 -135 -31l-41 -510q-20 -246 -154.5 -423.5t-376.5 -270.5q-25 25 -48.5 74t-29.5 90z" />
<glyph horiz-adv-x="716" d="M-25 -348q112 250 146 375l-109 24q18 51 51.5 109t63.5 88q41 14 111 14q113 0 211 -31q-45 -153 -142 -347t-180 -310q-39 12 -88.5 36t-63.5 42zM137 858q0 79 52.5 129.5t132.5 50.5q83 0 131.5 -47t48.5 -133q0 -90 -50 -141t-130 -51q-185 0 -185 192z" />
<glyph d="M51 465q0 188 88.5 341.5t246 241t351.5 87.5q190 0 340 -95q0 -70 -22 -162t-49 -155q-55 0 -132 17.5t-118 39.5l16 142q-37 16 -92 16q-124 0 -212.5 -127t-88.5 -317q0 -156 70 -223.5t204 -67.5q73 0 162 15.5t162 43.5q0 -45 -20.5 -108.5t-49.5 -104.5 q-71 -38 -172 -64t-196 -26q-225 0 -356.5 139t-131.5 367zM340 1372l295 238l215 12l250 -303q-22 -34 -66.5 -67.5t-83.5 -45.5l-227 201l-311 -205q-24 26 -45.5 77.5t-26.5 92.5z" />
<glyph horiz-adv-x="1314" d="M51 432q0 147 55 277t151 223.5t231 148t288 54.5q110 0 210.5 -28t170.5 -79q0 -67 -19 -150t-44 -143q-64 3 -137.5 18t-118.5 35l12 136q-52 22 -113 22q-157 0 -257.5 -133.5t-100.5 -349.5q0 -165 65.5 -232t190.5 -67q57 0 135 10l25 201q-105 11 -181 41 q-12 66 -8 164h631q-6 -36 -23.5 -82.5t-35.5 -75.5q-44 -29 -97 -43l-30 -330q-91 -34 -234 -62t-262 -28q-245 0 -374.5 123t-129.5 350zM362 1372l295 238l215 12l250 -303q-22 -34 -66 -67.5t-83 -45.5l-228 201l-311 -205q-24 26 -45.5 77.5t-26.5 92.5z" />
<glyph horiz-adv-x="999" d="M59 1864q28 30 88.5 56t118.5 32q31 -160 217 -160q91 0 161 37.5t108 107.5q93 0 174 -57q-39 -148 -165.5 -236t-316.5 -88q-175 0 -274 81t-111 227z" />
<glyph d="M45 371l18 186l592 862h328l-74 -837h142q5 -27 2.5 -98t-13.5 -113h-149l-17 -185q100 -8 166 -26q7 -31 5 -80t-9 -80h-665q18 97 61 162q54 18 150 31l20 178h-557zM338 565q90 17 160 17h129l30 317q15 147 50 252h-25l-344 -561v-25z" />
<glyph horiz-adv-x="1800" d="M61 1104h527q-14 -117 -49 -197q-35 -21 -111 -35q13 -28 27.5 -80.5t17.5 -84.5l27 -250q13 -146 8 -226h22q20 123 60 228l227 635l322 30l63 -667q12 -130 2 -226h25q16 97 63 222l92 270q7 28 31.5 75t46.5 76q-60 18 -84 39q-23 103 -12 191h469q-5 -47 -20 -108 t-33 -97q-50 -18 -101 -25l-366 -880l-320 -31l-57 623q-13 144 0 252h-25q-15 -125 -61 -252l-209 -592l-336 -31l-153 909q-19 6 -45.5 22t-36.5 28q-21 93 -11 182zM508 1395q0 67 45 111t111 44q70 0 111.5 -41t41.5 -114q0 -78 -42.5 -123t-110.5 -45q-76 0 -116 42.5 t-40 125.5zM1180 1395q0 67 44.5 111t110.5 44q70 0 112 -41t42 -114q0 -78 -43 -123t-111 -45q-75 0 -115 42.5t-40 125.5z" />
<glyph horiz-adv-x="1128" d="M20 0q18 92 52 154q43 28 121 55l86 704q-74 8 -129 29q-4 88 14 162h575q2 -28 -6 -80t-18 -82q-54 -18 -150 -27l-4 -53q32 4 64 4q221 0 329.5 -59t108.5 -203q0 -88 -40 -158t-108 -113t-151.5 -65t-175.5 -22q-48 0 -88 6l-6 -53q92 -14 149 -37q5 -29 1 -81.5 t-13 -80.5h-611zM510 420q40 -4 70 -4q102 0 157.5 32t55.5 109q0 133 -170 133q-36 0 -86 -4z" />
<glyph horiz-adv-x="608" d="M82 -84l55 457q111 30 248 30l-49 -487q-47 -12 -127 -12q-75 0 -127 12zM178 717l55 432q105 31 238 31l-49 -463q-44 -12 -121 -12q-73 0 -123 12z" />
<glyph d="M2 27q69 -24 164.5 -39t163.5 -15q74 0 138.5 19.5t110.5 65.5t46 112q0 101 -86 148t-275 47q0 89 39 196q69 3 132 18.5t118 43.5t88 76t33 110q0 66 -36.5 99.5t-90.5 33.5q-63 0 -121 -24l-16 -132q-41 -24 -114 -40t-140 -19q-25 160 12 330q103 41 221.5 64.5 t216.5 23.5q106 0 192.5 -30t143.5 -98.5t57 -166.5q0 -119 -84 -217t-194 -131v-19q107 -22 171 -88.5t64 -179.5q0 -106 -54.5 -194t-144 -144t-199 -86.5t-224.5 -30.5q-163 0 -299 47q-19 37 -29.5 107.5t-3.5 112.5z" />
<glyph horiz-adv-x="798" d="M16 0q13 86 52 162q52 35 122 59l78 680q-69 7 -127 31q-7 91 15 172h573q0 -87 -27 -174q-63 -22 -143 -29l-67 -686q91 -14 147 -41q3 -32 -1 -88t-13 -86h-609zM100 1284q10 118 47 209h654q5 -40 0 -102t-17 -107h-684z" />
<glyph horiz-adv-x="1478" d="M12 0q19 99 51 162q51 34 123 59l82 680q-72 7 -125 31q-7 85 13 172h477l252 -481q25 -49 55.5 -137.5t38.5 -147.5h25l67 563q-93 7 -158 31q-10 81 11 172h512q3 -57 -23 -174q-55 -21 -123 -29l-100 -905l-303 -33l-295 563q-23 42 -50 125.5t-34 141.5h-25l-59 -578 q84 -14 133 -41q2 -36 -2 -91t-12 -83h-531zM412 1536q28 28 86 51.5t100 26.5l233 -184l289 186q35 -11 80 -39.5t68 -56.5l-367 -301l-229 -11z" />
<glyph horiz-adv-x="1073" d="M35 113q0 128 47 235q162 0 274 -41l-14 -133q54 -31 137 -31q75 0 115.5 38.5t40.5 107.5q0 38 -21 67.5t-54.5 49t-77 40t-89 38t-89 44.5t-77 59.5t-54.5 83.5t-21 115q0 162 124.5 260.5t329.5 98.5q101 0 201.5 -23.5t175.5 -66.5q0 -58 -15.5 -135t-37.5 -127 q-70 0 -144.5 17t-117.5 44l10 100q-39 17 -88 17q-63 0 -94 -33.5t-31 -87.5q0 -40 26.5 -70t68.5 -50.5t93 -41t101.5 -48t92.5 -63t68.5 -94.5t26.5 -135q0 -127 -70 -216.5t-182.5 -131t-255.5 -41.5q-232 0 -395 100q-4 24 -4 54zM236 1372l294 238l215 12l250 -303 q-22 -34 -66 -67.5t-83 -45.5l-228 201l-311 -205q-24 26 -45 77.5t-26 92.5z" />
<glyph d="M45 35q54 -22 134 -36.5t143 -14.5q43 0 84 9.5t86.5 36t84 68.5t73 111.5t57.5 159.5h-25q-92 -109 -242 -109q-163 0 -248.5 105.5t-85.5 275.5q0 222 145 363t367 141q205 0 309.5 -134.5t104.5 -392.5q0 -242 -86 -437.5t-243.5 -308t-356.5 -112.5q-140 0 -264 52 q-21 42 -33.5 110t-3.5 113zM401 664q0 -94 37 -146.5t99 -52.5q54 0 106.5 27.5t91.5 74.5q8 52 8 109q0 129 -41 203.5t-112 74.5q-81 0 -135 -86t-54 -204z" />
<glyph horiz-adv-x="702" d="M33 637q10 126 51 229h518q5 -46 0 -113t-18 -116h-551z" />
<glyph horiz-adv-x="942" d="M276 1731q0 70 52 116.5t129 46.5q78 0 126 -44t48 -119q0 -82 -49 -129.5t-125 -47.5q-87 0 -134 45t-47 132z" />
<glyph d="M76 391q10 118 47 213h262l137 191h-399q10 118 47 213h502l96 131q39 0 86 -10t78 -25l-72 -96h174q5 -43 0 -105t-18 -108h-305l-138 -191h412q5 -43 0 -105t-18 -108h-545l-125 -172q-26 6 -68 32t-59 48l66 92h-160z" />
<glyph d="M59 14q146 -39 279 -39t222 67t89 196q0 93 -50 134.5t-150 41.5q-110 0 -295 -41l120 737h775q-13 -135 -58 -258q-226 14 -491 20l-33 -272q52 16 127 16q170 0 272.5 -86t102.5 -262q0 -121 -53 -220t-141 -160.5t-194.5 -94.5t-218.5 -33q-141 0 -270 39 q-19 37 -29.5 104.5t-3.5 110.5z" />
<glyph horiz-adv-x="1073" d="M35 113q0 128 47 235q162 0 274 -41l-14 -133q54 -31 137 -31q75 0 115.5 38.5t40.5 107.5q0 38 -21 67.5t-54.5 49t-77 40t-89 38t-89 44.5t-77 59.5t-54.5 83.5t-21 115q0 162 124.5 260.5t329.5 98.5q101 0 201.5 -23.5t175.5 -66.5q0 -58 -15.5 -135t-37.5 -127 q-70 0 -144.5 17t-117.5 44l10 100q-39 17 -88 17q-63 0 -94 -33.5t-31 -87.5q0 -40 26.5 -70t68.5 -50.5t93 -41t101.5 -48t92.5 -63t68.5 -94.5t26.5 -135q0 -127 -70 -216.5t-182.5 -131t-255.5 -41.5q-232 0 -395 100q-4 24 -4 54zM430 1307l309 331q63 0 148 -27.5 t117 -64.5l-441 -354q-37 13 -77.5 48.5t-55.5 66.5z" />
<glyph d="M154 330l546 352v25l-483 387q80 77 217 131l553 -451l-8 -166l-692 -485q-34 24 -78 93.5t-55 113.5z" />
<glyph horiz-adv-x="2045" d="M-14 786q6 46 23.5 100.5t35.5 84.5q69 30 129 41l10 65q32 210 151.5 311t291.5 101q117 0 260 -49q0 -61 -21 -147.5t-49 -145.5q-52 0 -117 17.5t-102 41.5l12 94q-21 7 -37 7q-45 0 -76.5 -55t-43.5 -169l-11 -94h465l13 74q37 222 204 336t420 114q247 0 441 -71 q0 -65 -21.5 -160t-50.5 -156q-58 0 -134 18.5t-116 41.5l12 110q-76 27 -162 27q-125 0 -218 -67t-107 -193l-8 -74h235q4 -38 2 -100.5t-10 -102.5h-250l-78 -778q-72 -14 -164 -14q-76 0 -122 14l96 778h-469l-107 -1077q-72 -14 -168 -14q-81 0 -127 14l134 1077h-166z M1294 -362q97 100 174.5 256t100.5 329l76 565l-138 -12q0 33 16.5 96t35.5 82q45 27 115.5 42.5t142.5 15.5q55 0 125 -19l-78 -694q-47 -438 -424 -784q-40 18 -82.5 53t-63.5 70z" />
</font>
</defs>
</svg>
