<?xml version="1.0" standalone="no"?>
<!DOCTYPE svg PUBLIC "-//W3C//DTD SVG 1.1//EN" "http://www.w3.org/Graphics/SVG/1.1/DTD/svg11.dtd" >
<svg xmlns="http://www.w3.org/2000/svg">
<metadata></metadata>
<defs>
<font id="tisaproitalic" horiz-adv-x="1167" >
<font-face units-per-em="2048" ascent="1638" descent="-410" />
<missing-glyph horiz-adv-x="391" />
<glyph unicode=" "  horiz-adv-x="391" />
<glyph unicode="&#x09;" horiz-adv-x="391" />
<glyph unicode="&#xa0;" horiz-adv-x="391" />
<glyph unicode="!" horiz-adv-x="555" d="M63 115q0 54 37 90.5t90 36.5q58 0 92.5 -34t34.5 -93q0 -64 -35.5 -102t-91.5 -38q-127 0 -127 140zM154 430l43 971q23 12 68.5 20.5t78.5 8.5q40 0 76 -9l-135 -991q-24 -6 -68 -6q-42 0 -63 6z" />
<glyph unicode="&#x22;" horiz-adv-x="700" d="M47 1014q42 204 68 432q95 0 170 -21q-8 -78 -47 -211.5t-76 -222.5q-24 0 -60.5 7t-54.5 16zM385 1014q42 204 68 432q95 0 170 -21q-8 -78 -47 -211.5t-76 -222.5q-24 0 -60.5 7t-54.5 16z" />
<glyph unicode="#" horiz-adv-x="1126" d="M33 283q6 48 37 108h178l80 340h-195q6 49 37 109h190l54 219q61 14 137 14l-55 -233h274l53 219q61 14 138 14l-56 -233h178q0 -53 -18 -109h-191l-77 -340h192q0 -52 -18 -108h-205l-64 -279q-30 -6 -79 -6q-43 0 -64 6l66 279h-269l-63 -279q-30 -6 -80 -6 q-42 0 -63 6l65 279h-182zM387 391h270l80 340h-272z" />
<glyph unicode="$" horiz-adv-x="1294" d="M172 96q0 55 12.5 116t30.5 99q94 0 147 -22l-16 -162q69 -53 199 -53q96 0 158.5 50.5t62.5 135.5q0 46 -26.5 84.5t-68.5 66t-93.5 54t-102.5 56t-93 64.5t-68.5 87t-26.5 116q0 121 83.5 204t219.5 104l16 139q47 14 123 14l-14 -149q135 -8 266 -64q0 -130 -47 -252 q-93 0 -135 33l14 146q-66 32 -149 32q-91 0 -145 -44.5t-54 -112.5q0 -42 26 -78t68 -63.5t92.5 -55t101.5 -59.5t93 -68.5t68 -89.5t26 -117q0 -141 -86 -226t-225 -110l-15 -174q-20 -4 -71 -4q-44 0 -68 4l14 162q-182 3 -313 82q-4 28 -4 55z" />
<glyph unicode="%" horiz-adv-x="1988" d="M168 731q0 168 95.5 269.5t258.5 101.5q133 0 206 -67t73 -193q0 -177 -94 -274t-258 -97q-137 0 -209 65.5t-72 194.5zM324 743q0 -82 35.5 -127t101.5 -45q90 0 136 69t46 191q0 79 -33 124.5t-98 45.5q-93 0 -140.5 -71t-47.5 -187zM502 6l841 1108q51 -3 113 -31 l-848 -1136q-23 4 -58.5 24t-47.5 35zM1145 225q0 168 95.5 269.5t258.5 101.5q133 0 206 -67t73 -193q0 -177 -94.5 -274t-258.5 -97q-136 0 -208 65.5t-72 194.5zM1300 238q0 -82 36 -127t102 -45q90 0 136 69t46 191q0 79 -33 124.5t-98 45.5q-93 0 -141 -71t-48 -187z " />
<glyph unicode="&#x26;" horiz-adv-x="1613" d="M125 305q0 157 92 276t227 162v11q-145 102 -145 280q0 96 36.5 171t97 118.5t130.5 65.5t144 22q60 0 113.5 -14t99.5 -43.5t73 -82.5t27 -124q0 -132 -91 -244t-202 -147v-11q95 -68 193.5 -159.5t171.5 -179.5q92 170 110 405l299 25q-3 -54 -35 -115 q-52 -21 -127 -33q-55 -232 -157 -389q51 -66 116 -166q100 -4 154 -18q12 -40 12 -115h-297q-55 87 -110 164q-202 -205 -496 -205q-88 0 -162.5 18t-137.5 56.5t-99.5 108t-36.5 163.5zM315 346q0 -254 285 -254q233 0 379 172q-186 224 -453 422q-97 -50 -154 -136 t-57 -204zM477 1094q0 -85 40 -145t126 -130q93 48 148 131.5t55 179.5q0 90 -46 128t-116 38q-38 0 -72 -10t-65.5 -31.5t-50.5 -63t-19 -97.5z" />
<glyph unicode="'" horiz-adv-x="362" d="M47 1014q42 204 68 432q95 0 170 -21q-8 -78 -47 -211.5t-76 -222.5q-24 0 -60.5 7t-54.5 16z" />
<glyph unicode="(" horiz-adv-x="593" d="M172 346q0 299 66.5 577t212.5 590q27 14 78 25.5t85 11.5q-132 -262 -202 -609t-70 -681q0 -341 78 -639q-22 -14 -61.5 -27t-69.5 -16q-117 359 -117 768z" />
<glyph unicode=")" horiz-adv-x="593" d="M-43 -379q134 280 203 625t69 688q0 334 -59 573q20 16 56.5 32t70.5 22q102 -324 102 -709q0 -327 -73.5 -623.5t-243.5 -648.5q-69 10 -125 41z" />
<glyph unicode="*" horiz-adv-x="782" d="M61 1004l193 96q36 16 68 20v10q-38 5 -62 19l-164 90q14 57 54 117l165 -117q25 -19 41 -45l11 6q-16 42 -13 62l17 202q47 15 114 15l-30 -217q-3 -27 -25 -66l8 -6q27 31 51 47l175 111q15 -12 35.5 -41t29.5 -52l-203 -106q-23 -12 -63 -16v-11q35 -4 59 -18l168 -92 q-7 -23 -29.5 -60.5t-37.5 -52.5l-158 123q-31 23 -41 47l-10 -6q17 -38 14 -66l-14 -211q-24 -6 -60 -6q-32 0 -59 6l33 211q6 32 24 64l-8 6q-40 -40 -49 -45l-182 -119q-37 48 -52 101z" />
<glyph unicode="+" d="M88 487q0 63 25 136h376l46 413q63 19 151 19l-39 -432h387q7 -67 -8 -136h-391l-45 -434q-31 -8 -92 -8q-51 0 -72 8l49 434h-387z" />
<glyph unicode="," horiz-adv-x="372" d="M-41 -258q84 181 117 293l-78 20q37 87 84 138q33 8 80 8q80 0 141 -25q-37 -110 -113.5 -257.5t-134.5 -225.5q-22 6 -52.5 21.5t-43.5 27.5z" />
<glyph unicode="-" horiz-adv-x="671" d="M53 479q0 30 9 76.5t20 75.5h444q2 -14 2 -41q0 -63 -10 -111h-465z" />
<glyph unicode="." horiz-adv-x="479" d="M63 111q0 54 36 89.5t89 35.5q56 0 89.5 -33t33.5 -92q0 -62 -34 -99t-89 -37q-125 0 -125 136z" />
<glyph unicode="/" horiz-adv-x="837" d="M-66 -287l838 1823q27 5 69 2t72 -10l-852 -1870q-24 3 -68 22t-59 33z" />
<glyph unicode="0" horiz-adv-x="1216" d="M72 434q0 312 151 493t422 181q416 0 416 -475q0 -308 -152.5 -491t-427.5 -183q-206 0 -307.5 117t-101.5 358zM258 449q0 -183 60 -272t188 -89q93 0 165.5 42t117.5 115.5t68.5 170t23.5 209.5q0 177 -63.5 266.5t-199.5 89.5q-95 0 -166 -42t-112.5 -116.5 t-61.5 -168t-20 -205.5z" />
<glyph unicode="1" horiz-adv-x="837" d="M31 0q13 56 45 104q100 33 207 48l94 784l-287 -37q9 60 45 127q78 26 196 51.5t232 30.5l-98 -967q124 -11 213 -30q11 -52 0 -111h-647z" />
<glyph unicode="2" horiz-adv-x="1058" d="M49 147q37 31 111.5 87.5t141 105.5t143.5 114.5t132 123.5t91.5 122.5t36.5 120.5q0 154 -193 154q-100 0 -207 -47l-20 -168q-56 -27 -135 -27q-9 47 -9 111q0 92 23 176q184 88 373 88q164 0 262 -61.5t98 -184.5q0 -71 -38 -148t-91 -138.5t-132.5 -130.5 t-139.5 -112t-137 -97t-101 -72v-14q304 3 614 24q-4 -105 -26 -174h-789z" />
<glyph unicode="3" horiz-adv-x="989" d="M-20 -55q51 -16 133 -25.5t149 -9.5q94 0 172 26t131 87t53 149q0 112 -93.5 162.5t-313.5 50.5q0 79 27 131q77 3 149 23t133 55t98 92t37 127q0 162 -196 162q-103 0 -201 -37l-16 -147q-49 -27 -140 -27q-19 129 9 268q178 76 376 76q75 0 138 -14.5t113.5 -44.5 t79 -82.5t28.5 -122.5q0 -130 -89 -231.5t-214 -139.5v-10q56 -6 102.5 -23.5t85 -48t60.5 -79.5t22 -113q0 -94 -49 -177t-127 -137.5t-173.5 -86t-189.5 -31.5q-141 0 -270 38q-12 23 -19.5 66t-4.5 74z" />
<glyph unicode="4" horiz-adv-x="1048" d="M0 274q274 396 645 834l182 -33l-73 -770h172q7 -68 -8 -137h-177l-32 -356q-21 -7 -88 -7q-65 0 -89 7l39 356h-555zM184 301q54 4 121 4h283l57 492q14 110 25 151h-15q-173 -197 -471 -633v-14z" />
<glyph unicode="5" horiz-adv-x="983" d="M-8 -59q46 -13 121 -24t129 -11q157 0 265.5 86.5t108.5 238.5q0 110 -66 158.5t-204 48.5q-120 0 -240 -26l109 655h672q-7 -97 -41 -182q-167 10 -522 18l-54 -358q88 20 179 20q168 0 262 -78.5t94 -240.5q0 -111 -46.5 -203.5t-123.5 -151.5t-173 -91.5t-198 -32.5 q-68 0 -141 12t-107 24q-12 24 -19.5 66t-4.5 72z" />
<glyph unicode="6" horiz-adv-x="1105" d="M88 449q0 169 53.5 326t143 272t213.5 184t260 69q99 0 188 -36q12 -29 20 -72t5 -74q-80 41 -207 41q-177 0 -304 -134t-175 -394h14q38 68 114.5 110.5t184.5 42.5q166 0 258 -101t92 -261q0 -203 -132.5 -333t-334.5 -130q-189 0 -291 126.5t-102 363.5zM268 408 q0 -150 59 -238t169 -88q123 0 197.5 97t74.5 235q0 115 -58.5 178t-166.5 63q-79 0 -141.5 -33t-125.5 -102q-8 -63 -8 -112z" />
<glyph unicode="7" horiz-adv-x="972" d="M31 752l57 315h805l14 -135q-425 -615 -600 -1118q-42 -11 -92 -11q-61 0 -111 11q101 253 269.5 542t353.5 527v14h-514q-8 -36 -28.5 -89.5t-37.5 -80.5q-23 0 -60 8t-56 17z" />
<glyph unicode="8" horiz-adv-x="1089" d="M66 270q0 136 88 245.5t221 158.5v10q-182 76 -182 260q0 71 25.5 131t67.5 101t97.5 69.5t115.5 41.5t122 13q66 0 124 -16t107 -48t77.5 -87t28.5 -127q0 -116 -71 -211.5t-182 -136.5v-10q101 -41 157 -110t56 -189q0 -100 -40 -179.5t-106 -127.5t-147.5 -73.5 t-169.5 -25.5q-56 0 -109 9.5t-104.5 33t-90 58t-62 89t-23.5 121.5zM246 303q0 -119 61.5 -173t161.5 -54q40 0 78 8t74 27.5t63 48t43 72.5t16 98q0 48 -14.5 88t-35 67t-60 54t-72 43.5t-88.5 42.5q-107 -44 -167 -126.5t-60 -195.5zM360 983q0 -40 14 -74.5t32.5 -57.5 t56 -48.5t64.5 -39.5t77 -38q92 44 140.5 120t48.5 159q0 50 -18 88.5t-47.5 59.5t-62.5 31.5t-67 10.5t-71 -9.5t-76.5 -31t-65 -65.5t-25.5 -105z" />
<glyph unicode="9" horiz-adv-x="1089" d="M27 -49q40 -14 111.5 -24.5t123.5 -10.5q182 0 308.5 132t168.5 388h-14q-35 -70 -112 -110.5t-187 -40.5q-168 0 -258 100t-90 260q0 202 132.5 332.5t332.5 130.5q190 0 288.5 -128.5t98.5 -375.5q0 -232 -83 -423t-232.5 -302.5t-335.5 -111.5q-127 0 -232 43 q-29 74 -20 141zM256 664q0 -117 56.5 -183.5t168.5 -66.5q160 0 267 139q8 78 8 141q0 139 -59.5 217t-168.5 78q-124 0 -198 -92.5t-74 -232.5z" />
<glyph unicode=":" horiz-adv-x="716" d="M102 143q0 54 35.5 89.5t89.5 35.5q56 0 89.5 -33t33.5 -92q0 -62 -34 -98.5t-89 -36.5q-125 0 -125 135zM170 823q0 54 34.5 88.5t88.5 34.5q55 0 88 -32t33 -91q0 -60 -34.5 -95.5t-86.5 -35.5q-123 0 -123 131z" />
<glyph unicode=";" horiz-adv-x="716" d="M6 -258q81 169 117 293l-78 20q39 93 84 138q33 8 80 8q80 0 141 -25q-35 -109 -111.5 -255.5t-136.5 -227.5q-23 6 -52.5 21.5t-43.5 27.5zM160 823q0 54 34.5 88.5t88.5 34.5q55 0 87.5 -32t32.5 -91q0 -60 -34 -95.5t-86 -35.5q-123 0 -123 131z" />
<glyph unicode="&#x3c;" d="M207 492l20 122l629 449q30 -16 64.5 -43t50.5 -49l-584 -414v-14l479 -396q-9 -25 -46 -67.5t-60 -56.5z" />
<glyph unicode="=" d="M119 295q0 65 24 139h813q7 -68 -8 -139h-829zM158 662q0 65 24 139h807q7 -68 -8 -139h-823z" />
<glyph unicode="&#x3e;" d="M188 135l574 408v14l-494 404q20 23 57 49.5t72 44.5l539 -443l-6 -120l-664 -482q-19 14 -45.5 56.5t-32.5 68.5z" />
<glyph unicode="?" horiz-adv-x="784" d="M23 1169q0 121 10 213q64 31 173.5 55.5t192.5 24.5q170 0 260.5 -72t90.5 -198q0 -63 -23.5 -120.5t-61.5 -101.5t-83.5 -84.5t-91 -78t-83.5 -74t-61.5 -80.5t-23.5 -90q0 -63 30 -121q-26 -20 -74 -37t-90 -22q-49 79 -49 180q0 66 42 130.5t101.5 118.5t119 107 t101.5 117t42 129q0 74 -47.5 122t-149.5 48q-37 0 -86 -14.5t-78 -34.5l-18 -194q-61 -33 -141 -33q-2 35 -2 110zM139 115q0 54 37 90.5t90 36.5q58 0 92.5 -34t34.5 -93q0 -64 -35.5 -102t-91.5 -38q-127 0 -127 140z" />
<glyph unicode="@" horiz-adv-x="1976" d="M59 342q0 233 81.5 440t222.5 356.5t340.5 236.5t426.5 87q161 0 298.5 -43.5t239 -125.5t159 -207t57.5 -281q0 -116 -32 -226.5t-96.5 -208.5t-156 -174.5t-218 -125.5t-273.5 -60q-32 74 -35 142h-10q-55 -70 -136.5 -106t-158.5 -36q-110 0 -170.5 72.5t-60.5 224.5 q0 130 43 258t120 219q150 181 383 181q87 0 161 -24.5t118 -61.5l-135 -672q0 -23 8 -51q115 12 212.5 72.5t160.5 149t98 195t35 213.5q0 134 -52.5 240.5t-142.5 171.5t-202.5 99t-239.5 34q-189 0 -355 -74.5t-284 -202.5t-186 -305.5t-68 -377.5q0 -327 177 -516 t499 -189q124 0 254.5 29t228.5 78q12 -15 26.5 -46t18.5 -53q-121 -65 -275 -101t-302 -36q-370 0 -574.5 215t-204.5 590zM707 348q0 -201 143 -201q65 0 129.5 37t105.5 101l111 544q-44 33 -133 33q-151 0 -250 -143q-51 -72 -78.5 -175t-27.5 -196z" />
<glyph unicode="A" horiz-adv-x="1458" d="M-6 0q10 56 39 109q41 14 102 22l633 1319h117l364 -1315q63 -4 119 -18q12 -54 12 -117h-491q10 61 33 111q55 14 151 24q-40 69 -63 168l-39 156h-516l-76 -174q-37 -88 -82 -158q80 -4 154 -18q4 -15 9 -53t5 -56h-471zM500 575h446l-123 469q-28 114 -28 195h-15 q-18 -74 -75 -199z" />
<glyph unicode="B" horiz-adv-x="1300" d="M25 4q10 60 30 109q66 18 154 26l119 1159q-93 0 -148 7q-2 23 1 61.5t9 60.5q275 17 480 17q210 0 344.5 -87.5t134.5 -248.5q0 -132 -74 -225.5t-194 -120.5v-10q128 -27 201 -104t73 -195q0 -96 -30.5 -174t-83.5 -130.5t-126.5 -87.5t-157.5 -51t-179 -16 q-356 0 -553 10zM391 129q79 -8 184 -8q394 0 394 313q0 124 -91 186t-245 62h-189zM453 807h186q330 0 330 285q0 112 -91.5 169.5t-246.5 57.5q-90 0 -131 -4z" />
<glyph unicode="C" horiz-adv-x="1243" d="M96 575q0 161 37 302.5t103.5 247.5t156.5 182.5t199.5 115.5t228.5 39q217 0 367 -78q-17 -186 -58 -340q-30 0 -72.5 10t-66.5 23l21 209q-95 45 -215 45q-229 0 -366.5 -191t-137.5 -526q0 -246 106 -370.5t293 -124.5q81 0 187.5 21t181.5 50q0 -26 -11.5 -67.5 t-25.5 -63.5q-88 -43 -201.5 -71.5t-216.5 -28.5q-232 0 -371 171.5t-139 444.5z" />
<glyph unicode="D" horiz-adv-x="1439" d="M27 4q10 60 30 109q66 18 154 26l119 1139q-109 0 -148 6q-2 19 1 61t7 62q276 29 500 29q183 0 323.5 -69.5t223 -212t82.5 -341.5q0 -207 -54.5 -367t-151 -258t-223 -148t-276.5 -50q-232 0 -587 14zM395 127q88 -6 187 -6q546 0 546 674q0 250 -132.5 382t-358.5 132 q-87 0 -137 -9z" />
<glyph unicode="E" horiz-adv-x="1181" d="M14 0q9 56 31 109q64 17 158 26l119 1155q-92 4 -148 15q-2 18 -2 36q0 39 10 80h924l-31 -301q-58 0 -112 15q-13 93 -13 161h-458l-50 -520h365q11 57 31 111q50 16 118 16l-36 -379q-26 -3 -62 -0.5t-55 8.5q-10 67 -10 121h-359l-47 -524h455q22 110 43 176 q54 14 131 14l-31 -319h-971z" />
<glyph unicode="F" horiz-adv-x="1071" d="M18 0q9 56 31 109q64 17 158 26l119 1155q-92 4 -148 15q-2 18 -2 36q0 39 10 80h889l-28 -307q-74 0 -117 14q-8 66 -12 168h-422l-50 -536h334q13 64 31 112q53 17 119 17l-37 -381q-20 -2 -39 -2q-41 0 -78 10q-8 50 -8 121h-332l-45 -504q132 -8 191 -20 q4 -22 2.5 -56.5t-6.5 -56.5h-560z" />
<glyph unicode="G" horiz-adv-x="1431" d="M96 555q0 274 95 479.5t271 316.5t410 111q227 0 381 -106q-6 -72 -23.5 -170t-33.5 -150q-27 0 -71.5 11t-67.5 22l20 201q-108 65 -235 65q-119 0 -220.5 -49.5t-176 -142.5t-116.5 -235t-42 -318q0 -239 115 -364.5t307 -125.5q109 0 254 31l38 426q-147 4 -258 21 q-12 44 -12 120h625q-7 -48 -29 -125q-61 -12 -153 -16l-44 -500q-92 -35 -234 -66.5t-255 -31.5q-265 0 -405 157.5t-140 438.5z" />
<glyph unicode="H" horiz-adv-x="1581" d="M20 0q9 56 31 109q64 17 158 26l119 1155q-92 4 -148 15q-2 18 -2 36q0 39 10 80h480q1 -11 1 -21q0 -50 -16 -93q-73 -14 -155 -17l-45 -483h682l51 483q-79 4 -146 15q-3 22 0.5 59.5t8.5 56.5h483q1 -12 1 -23q0 -50 -15 -91q-77 -14 -162 -17l-105 -1157 q116 -8 172 -20q4 -22 2.5 -56.5t-6.5 -56.5h-530q8 47 29 109q61 17 149 26l51 539h-676l-49 -541q108 -6 160 -20q4 -22 2.5 -56.5t-6.5 -56.5h-529z" />
<glyph unicode="I" horiz-adv-x="716" d="M16 0q9 56 31 109q64 17 158 26l119 1155q-92 4 -148 15q-2 18 -2 36q0 39 10 80h486q1 -11 1 -21q0 -50 -16 -93q-77 -14 -161 -17l-105 -1157q116 -8 172 -20q4 -22 2.5 -56.5t-6.5 -56.5h-541z" />
<glyph unicode="J" horiz-adv-x="694" d="M-145 -266q185 110 285.5 282.5t123.5 415.5l80 858q-95 3 -174 15q-2 18 -2 36q0 40 10 80h516q1 -10 1 -20q0 -45 -15 -94q-77 -14 -162 -17l-69 -807q-25 -298 -164 -517.5t-377 -334.5q-13 15 -30 48t-23 55z" />
<glyph unicode="K" horiz-adv-x="1302" d="M29 0q10 60 30 109q65 18 156 26l119 1155q-92 4 -148 15q-3 22 0.5 59.5t8.5 56.5h473q3 -20 -1.5 -55.5t-11.5 -58.5q-74 -14 -151 -17l-47 -508h112l303 387q21 28 57 66.5t56 52.5q-65 3 -129 15q-10 58 -10 118h442q-7 -59 -37 -121q-34 -8 -116 -12l-449 -540 l399 -623l127 8q0 -30 -8 -70t-20 -63q-109 -24 -219 -35l-424 705h-92l-50 -537q94 -7 148 -20q4 -22 2.5 -56.5t-6.5 -56.5h-514z" />
<glyph unicode="L" horiz-adv-x="1159" d="M25 0q10 60 30 109q72 19 156 26l119 1155q-92 4 -148 15q-2 18 -2 36q0 39 10 80h512q1 -12 1 -23q0 -50 -15 -91q-108 -17 -188 -17l-105 -1159h467q13 102 47 205q54 14 131 14l-32 -350h-983z" />
<glyph unicode="M" horiz-adv-x="1796" d="M16 0q6 40 27 104q72 20 145 27l115 1159q-83 4 -145 15q-2 18 -2 36q0 39 10 80h397l236 -954q24 -103 35 -262h14q37 132 90 254l422 962h395q1 -6 1 -14q0 -17 -4 -43q-4 -38 -11 -57q-76 -13 -166 -17l-98 -1157q110 -8 168 -20q4 -18 4 -40q0 -33 -9 -73h-514 q8 47 29 109q63 18 145 26l113 1151h-14q-34 -142 -101 -295l-438 -1018h-127l-235 985q-41 163 -54 328h-14l-98 -1157q82 -7 129 -20q3 -18 1 -54t-7 -55h-439z" />
<glyph unicode="N" horiz-adv-x="1495" d="M18 0q8 47 29 109q65 17 152 26l120 1155q-78 3 -145 15q-2 18 -2 36q0 39 10 80h393l435 -1024q41 -93 61 -223h14l113 1116q-85 4 -147 15q-1 17 -1 33q0 47 9 83h430q1 -6 1 -14q0 -17 -4 -43q-4 -38 -11 -57q-65 -13 -146 -17l-119 -1302h-227l-467 1134 q-33 88 -47 144h-14l-103 -1133q107 -8 162 -20q4 -20 2.5 -56.5t-6.5 -56.5h-492z" />
<glyph unicode="O" horiz-adv-x="1462" d="M100 580q0 262 82.5 461.5t238 310t363.5 110.5q249 0 393 -159t144 -449q0 -269 -80.5 -470.5t-235 -313t-364.5 -111.5q-263 0 -402 158.5t-139 462.5zM295 604q0 -236 94.5 -372t265.5 -136q151 0 259 95.5t161 259t53 378.5q0 223 -96 360.5t-260 137.5 q-121 0 -214 -56t-149.5 -155.5t-85 -228.5t-28.5 -283z" />
<glyph unicode="P" horiz-adv-x="1173" d="M18 0q9 56 31 109q72 19 156 26l98 1153q-104 0 -145 6q-2 17 -2 36q0 40 10 89q247 23 500 23q213 0 342 -97t129 -282q0 -118 -41 -214t-111.5 -157t-160.5 -94t-191 -33q-93 0 -215 17l-29 -449q130 -8 203 -20q4 -20 2.5 -57.5t-6.5 -55.5h-570zM428 702 q98 -10 205 -10q148 0 234.5 88t86.5 262q0 134 -89 202.5t-247 68.5q-71 0 -145 -8z" />
<glyph unicode="Q" horiz-adv-x="1478" d="M92 580q0 264 81 462.5t236.5 309t366.5 110.5q250 0 393.5 -159t143.5 -449q0 -273 -87.5 -480.5t-230.5 -295.5v-10q83 -61 194 -117.5t150 -56.5l136 18q0 -36 -10.5 -86t-24.5 -78q-85 -29 -133 -29q-66 0 -212 88.5t-257 184.5q-104 -33 -205 -33 q-264 0 -402.5 158.5t-138.5 462.5zM287 604q0 -237 94 -372.5t266 -135.5q152 0 260.5 96.5t160.5 260t52 376.5q0 224 -94.5 361t-261.5 137q-122 0 -215 -55t-149.5 -154t-84.5 -228.5t-28 -285.5z" />
<glyph unicode="R" horiz-adv-x="1288" d="M25 0q10 60 30 109q72 19 156 26l108 1157q-85 0 -147 6q-2 17 -2 36q0 40 10 89q273 21 486 21q136 0 241.5 -38t170.5 -120t65 -199q0 -163 -96.5 -275.5t-245.5 -158.5q71 -181 150 -344.5t102 -181.5l121 8q0 -30 -8.5 -71t-20.5 -64q-87 -23 -221 -35 q-35 26 -114 205.5t-181 462.5q-115 0 -191 10l-43 -510q102 -6 154 -18q4 -20 2.5 -58.5t-6.5 -56.5h-520zM444 754q68 -6 201 -6q140 0 228 82.5t88 238.5q0 124 -94 186t-251 62q-68 0 -124 -6z" />
<glyph unicode="S" horiz-adv-x="1126" d="M61 37q13 169 54 344q29 0 77 -7t70 -16l-18 -208q92 -60 239 -60t227.5 71t80.5 201q0 67 -32 119t-83 87t-112.5 67t-123 67.5t-112.5 78t-83 110t-32 153.5q0 194 120.5 306t342.5 112q77 0 175 -17t177 -44q-24 -208 -59 -311q-30 0 -69 8t-62 20l18 178 q-68 41 -176 41q-135 0 -211 -67t-76 -174q0 -68 32.5 -121.5t84 -89t114 -67.5t125 -68t114 -79.5t84 -111.5t32.5 -156q0 -120 -43 -208.5t-119 -138.5t-168 -73.5t-203 -23.5q-219 0 -385 78z" />
<glyph unicode="T" horiz-adv-x="1134" d="M55 1110l31 311h1092l-31 -319q-58 0 -119 14q-12 82 -12 180h-314l-96 -1163q117 -8 180 -20q4 -22 2.5 -56.5t-6.5 -56.5h-561q8 48 33 109q66 17 168 26l110 1161h-307q-10 -58 -43 -174q-58 -12 -127 -12z" />
<glyph unicode="U" horiz-adv-x="1392" d="M82 1421h508q2 -20 -3 -57.5t-12 -56.5q-80 -14 -172 -17l-57 -747q-6 -60 -6 -107q0 -167 76.5 -255.5t226.5 -88.5q114 0 199.5 60.5t130.5 157t57 220.5l74 760q-74 4 -133 15q-3 20 -0.5 59t8.5 57h418q1 -7 1 -16q0 -15 -3 -39q-5 -38 -13 -59q-67 -14 -139 -17 l-57 -745q-10 -132 -50.5 -238t-112 -184.5t-182 -121t-253.5 -42.5q-219 0 -327.5 113t-108.5 331q0 49 8 123l71 762q-71 3 -143 17q-8 38 -8 78q0 19 2 38z" />
<glyph unicode="V" horiz-adv-x="1394" d="M76 1421h520q-3 -52 -37 -118q-74 -9 -180 -13q15 -32 36.5 -97t33.5 -118l163 -700q25 -120 33 -248h14q27 106 74 221l303 752q50 122 97 188q-75 3 -148 21q-12 50 -12 112h452q-2 -25 -11.5 -62t-20.5 -59q-41 -6 -113 -10l-571 -1317h-183l-323 1315q-39 2 -113 19 q-14 54 -14 114z" />
<glyph unicode="W" horiz-adv-x="1959" d="M84 1421h502q-3 -47 -35 -118q-101 -12 -176 -15q28 -78 43 -188l98 -764q10 -75 10 -203h15q19 96 41 158l376 1147h209l127 -1108q1 -12 4 -49.5t5 -74.5t2 -63h14q14 82 39 152l282 842q29 88 64 151q-68 3 -139 21q-11 57 -11 112h424q-4 -68 -30 -121 q-22 -5 -105 -10l-477 -1317h-201l-123 1137q-6 55 -6 190h-14q-18 -108 -47 -196l-363 -1131h-217l-190 1315q-45 3 -107 19q-14 54 -14 114z" />
<glyph unicode="X" horiz-adv-x="1374" d="M-29 0q9 52 33 106q40 12 113 21l454 625l-284 534q-60 4 -107 17q-16 58 -16 118h489q-3 -52 -30 -121q-63 -6 -154 -10q41 -48 96 -147l168 -309l209 327q49 79 102 129q-58 3 -124 15q-13 47 -13 116h406q0 -24 -8.5 -62t-18.5 -61q-34 -6 -94 -6l-401 -565l325 -596 q65 -4 117 -16q16 -58 16 -115h-495q8 65 30 109q65 14 144 20q-43 41 -103 150l-192 358l-236 -385q-47 -73 -100 -123q83 -3 143 -18q13 -54 13 -111h-482z" />
<glyph unicode="Y" horiz-adv-x="1200" d="M76 1421h481q-3 -56 -29 -114q-62 -11 -166 -15q41 -64 70 -139l127 -330q27 -75 35 -139h14q17 50 66 133l194 332q58 95 101 141q-74 4 -129 17q-13 50 -13 114h402q0 -53 -25 -118q-44 -8 -96 -11l-461 -737l-33 -422q115 -8 177 -20q4 -18 4 -40q0 -32 -9 -73h-559 q8 48 33 109q66 17 168 26l43 422l-285 729q-49 4 -100 17q-12 43 -12 84q0 17 2 34z" />
<glyph unicode="Z" horiz-adv-x="1144" d="M27 0l14 143l819 1129v14h-528q-13 -82 -51 -188q-83 -15 -138 -15l33 338h889l-14 -145l-791 -1122v-15h563q23 120 49 201q59 18 138 18l-35 -358h-948z" />
<glyph unicode="[" horiz-adv-x="600" d="M70 -395l196 1929h295q7 -49 -12 -113q-55 -12 -139 -16l-154 -1671q91 -4 158 -19q10 -46 -4 -110h-340z" />
<glyph unicode="\" horiz-adv-x="796" d="M55 1493q16 20 53.5 44.5t65.5 31.5l494 -1862q-20 -13 -64 -26.5t-78 -16.5z" />
<glyph unicode="]" horiz-adv-x="600" d="M-57 -395q-1 20 4.5 55.5t13.5 56.5q76 12 158 15l170 1673q-84 4 -131 14q-3 23 -0.5 59.5t8.5 55.5h293l-180 -1929h-336z" />
<glyph unicode="^" d="M152 762l401 604l123 12l305 -633q-22 -15 -59 -32t-62 -23l-192 418q-38 82 -56 137h-14q-27 -60 -74 -129l-297 -450q-18 12 -42 42.5t-33 53.5z" />
<glyph unicode="_" horiz-adv-x="1024" d="M-29 -473q0 62 23 121h1042q6 -53 -6 -121h-1059z" />
<glyph unicode="`" horiz-adv-x="858" d="M162 1425q31 22 86.5 37t103.5 15l185 -324q-20 -14 -62 -28.5t-69 -14.5z" />
<glyph unicode="a" horiz-adv-x="1069" d="M37 332q0 130 35 251t100 212q147 202 381 202q174 0 305 -92l-98 -751q0 -18 10 -43l160 14q0 -22 -10.5 -57.5t-22.5 -55.5q-44 -18 -121.5 -32.5t-122.5 -14.5q-39 66 -53 152h-10q-53 -77 -132 -114.5t-157 -37.5q-121 0 -192.5 90.5t-71.5 276.5zM213 354 q0 -126 45.5 -188t126.5 -62q62 0 120 40.5t95 109.5l84 604q-54 31 -133 31t-144 -43t-106 -111q-43 -72 -65.5 -179t-22.5 -202z" />
<glyph unicode="b" horiz-adv-x="1060" d="M82 20l156 1332l-148 -17q0 17 12.5 55t24.5 50q92 47 201 47q52 0 84 -8l-31 -297q-23 -223 -59 -359h20q96 174 293 174q58 0 107 -19t89.5 -59t63.5 -111t23 -167q0 -155 -42 -292t-120 -228q-67 -76 -160.5 -116t-200.5 -40q-157 0 -313 55zM258 113q66 -25 139 -25 q157 0 238 100q104 129 104 404q0 266 -186 266q-64 0 -131 -51t-100 -115z" />
<glyph unicode="c" horiz-adv-x="907" d="M33 338q0 276 141 469q65 87 166.5 138.5t210.5 51.5q137 0 229 -73q0 -132 -53 -248q-27 0 -61 7.5t-52 18.5l15 146q-50 31 -105 31q-68 0 -126 -35t-97 -96q-84 -133 -84 -363q0 -142 46 -206t140 -64q65 0 152.5 28t149.5 62q0 -25 -9 -61.5t-20 -59.5 q-65 -48 -156 -83.5t-184 -35.5q-151 0 -227 98t-76 275z" />
<glyph unicode="d" horiz-adv-x="1083" d="M37 328q0 130 34 252t99 211q68 97 166 151.5t215 54.5q78 0 164 -39l53 394l-147 -17q0 17 12 55t24 50q92 47 201 47q52 0 84 -8l-164 -1325q0 -18 10 -43l158 14q0 -22 -10.5 -57.5t-22.5 -55.5q-45 -19 -120 -33t-121 -14q-38 75 -51 152h-11q-58 -77 -139.5 -114.5 t-163.5 -37.5q-124 0 -197 88.5t-73 274.5zM213 354q0 -245 180 -245q66 0 126.5 38t101.5 107l77 594q-56 37 -141 37q-80 0 -145.5 -43t-108.5 -111q-46 -69 -68 -174.5t-22 -202.5z" />
<glyph unicode="e" horiz-adv-x="899" d="M39 313q0 147 37 283t117 231q65 77 156.5 123.5t197.5 46.5q109 0 172 -60.5t63 -164.5q0 -326 -561 -348v-62q0 -249 170 -249q68 0 155 27t152 69q0 -63 -24 -113q-65 -57 -158 -94t-199 -37q-135 0 -206.5 91t-71.5 257zM233 543q98 3 169.5 18t112 34.5t64 49 t30.5 56t7 61.5q0 56 -26 90.5t-80 34.5q-63 0 -119 -35t-90 -94q-51 -84 -68 -215z" />
<glyph unicode="f" horiz-adv-x="616" d="M35 844q6 51 39 106q58 22 131 35l14 111q13 104 51 182.5t92.5 125t118.5 69t137 22.5q101 0 199 -35q0 -51 -17.5 -122.5t-39.5 -118.5q-23 0 -55.5 10t-53.5 22l19 129q-24 15 -64 15q-82 0 -145 -66.5t-80 -216.5l-19 -149h254q2 -19 2 -39q0 -38 -8 -80h-256 l-121 -1151q-50 -8 -102 -8q-56 0 -80 8l142 1151h-158z" />
<glyph unicode="g" horiz-adv-x="1040" d="M-8 -313q0 31 6 55q168 -100 315 -100q130 0 197.5 85t91.5 238q17 110 39 176h-20q-56 -84 -138 -125t-164 -41q-124 0 -197 89t-73 274q0 129 35 249t100 210q148 200 383 200q170 0 301 -92l-88 -831q-11 -99 -29.5 -179t-54.5 -154.5t-86.5 -124.5t-127 -80 t-173.5 -30q-157 0 -293 56q-24 53 -24 125zM225 360q0 -124 46.5 -184.5t131.5 -60.5q64 0 125.5 42t100.5 113l71 586q-58 33 -137 33q-78 0 -142.5 -42.5t-107.5 -109.5q-44 -70 -66 -175t-22 -202z" />
<glyph unicode="h" horiz-adv-x="1124" d="M80 4l166 1348l-148 -17q0 17 12.5 55t24.5 50q92 47 201 47q52 0 84 -8l-31 -297q-17 -172 -57 -348h20q104 163 310 163q237 0 237 -254q0 -55 -15.5 -178t-37 -262t-23.5 -158q0 -17 11 -34l157 16q0 -23 -10.5 -58.5t-22.5 -56.5q-49 -19 -122.5 -33t-118.5 -14 q-29 33 -50.5 79t-21.5 73q80 444 80 569q0 82 -37 129t-110 47q-82 0 -151.5 -60.5t-96.5 -129.5l-76 -668q-50 -8 -98 -8q-52 0 -76 8z" />
<glyph unicode="i" horiz-adv-x="573" d="M43 834q0 17 12.5 54.5t24.5 49.5q92 47 203 47q52 0 84 -8l-103 -832q0 -14 10 -34l160 16q0 -23 -10.5 -58.5t-22.5 -56.5q-49 -18 -123.5 -32.5t-119.5 -14.5q-29 33 -50.5 79t-21.5 73l107 733zM213 1335q0 49 32.5 81t80.5 32q50 0 80 -30t30 -83q0 -56 -31 -88.5 t-79 -32.5q-113 0 -113 121z" />
<glyph unicode="j" horiz-adv-x="563" d="M-119 -397q99 101 174 246t95 307l83 694l-149 -16q0 17 12.5 54.5t24.5 49.5q92 47 203 47q52 0 84 -8l-82 -768q-40 -370 -363 -678q-22 8 -47.5 30t-34.5 42zM236 1335q0 49 32 81t80 32q50 0 80.5 -30t30.5 -83q0 -56 -31.5 -88.5t-79.5 -32.5q-112 0 -112 121z" />
<glyph unicode="k" horiz-adv-x="1019" d="M84 4l160 1348l-148 -17q0 17 12.5 55t24.5 50q92 47 199 47q52 0 84 -8l-113 -1035q119 74 239.5 182.5t190.5 196.5q0 16 -6 31l-145 -6q0 25 12.5 61t30.5 54q110 22 229 22q16 -21 34.5 -66t18.5 -65q-43 -78 -145.5 -186t-218.5 -191q58 -118 123 -224.5t106 -152.5 l121 23q1 -23 -6.5 -58.5t-18.5 -56.5q-32 -18 -91 -34t-103 -21q-46 48 -116 175.5t-138 277.5q-65 -42 -127 -70l-35 -332q-50 -8 -98 -8q-52 0 -76 8z" />
<glyph unicode="l" horiz-adv-x="581" d="M90 117l162 1235l-148 -17q0 17 12.5 55t24.5 50q92 47 201 47q52 0 84 -8l-158 -1334q0 -12 11 -34l159 16q0 -23 -10 -59t-22 -56q-49 -18 -124 -32.5t-120 -14.5q-29 33 -50.5 79t-21.5 73z" />
<glyph unicode="m" horiz-adv-x="1656" d="M49 834q0 17 12.5 54.5t24.5 49.5q31 20 83.5 33.5t104.5 13.5q43 0 70 -8l-18 -166h20q37 76 117 131t194 55q204 0 226 -186h10q32 78 114 132t197 54q232 0 232 -249q0 -55 -15.5 -178.5t-37 -265t-23.5 -159.5q0 -19 10 -34l158 16q0 -23 -10.5 -58.5t-22.5 -56.5 q-47 -19 -121.5 -33t-120.5 -14q-29 33 -50 79t-21 73q80 450 80 573q0 81 -34.5 126.5t-105.5 45.5q-70 0 -136.5 -56t-100.5 -128l-76 -674q-50 -8 -96 -8q-50 0 -74 8q80 540 80 701q0 76 -35.5 116.5t-103.5 40.5q-75 0 -143 -57t-101 -127l-76 -674q-50 -8 -98 -8 q-52 0 -76 8l113 846z" />
<glyph unicode="n" horiz-adv-x="1116" d="M45 834q0 17 12.5 54.5t24.5 49.5q31 20 83.5 33.5t104.5 13.5q43 0 70 -8l-18 -166h20q102 186 315 186q238 0 238 -254q0 -55 -15.5 -178t-37 -262t-23.5 -158q0 -19 10 -34l158 16q0 -23 -10.5 -58.5t-22.5 -56.5q-49 -19 -122.5 -33t-118.5 -14q-29 33 -50.5 79 t-21.5 73q80 444 80 569q0 176 -139 176q-78 0 -147.5 -57t-102.5 -127l-76 -674q-50 -8 -98 -8q-52 0 -76 8l113 846z" />
<glyph unicode="o" horiz-adv-x="999" d="M39 358q0 248 102 414q66 105 166 165t219 60q158 0 248 -100t90 -283q0 -281 -127 -462q-62 -88 -156 -137.5t-204 -49.5q-165 0 -251.5 100t-86.5 293zM217 377q0 -136 46 -213.5t134 -77.5q131 0 211 141q80 140 80 369q0 128 -46 205.5t-132 77.5q-74 0 -133.5 -44.5 t-97.5 -119.5q-62 -124 -62 -338z" />
<glyph unicode="p" horiz-adv-x="1085" d="M37 -459l164 1309l-146 -16q0 17 12.5 54.5t24.5 49.5q31 20 84 33.5t105 13.5q42 0 69 -8l-20 -154h20q54 80 125.5 127t179.5 47q57 0 105.5 -19t89 -59.5t63.5 -112t23 -167.5q0 -155 -41 -291t-119 -227q-64 -76 -155 -116t-193 -40q-46 0 -94 11t-74 30l-49 -465 q-50 -8 -98 -8q-52 0 -76 8zM270 117q74 -29 152 -29q152 0 233 100q103 121 103 402q0 268 -185 268q-66 0 -132.5 -50t-100.5 -116z" />
<glyph unicode="q" horiz-adv-x="1050" d="M49 332q0 132 34.5 252t100.5 211q150 202 387 202q172 0 303 -92l-124 -1220q0 -15 10 -35l155 14q0 -23 -8 -57t-20 -53q-46 -17 -121 -32.5t-115 -15.5q-26 32 -47.5 79.5t-21.5 72.5l28 299q7 81 35 174h-20q-56 -85 -137.5 -125.5t-165.5 -40.5q-124 0 -198.5 90.5 t-74.5 276.5zM225 354q0 -126 48 -188t133 -62q65 0 127.5 41.5t101.5 114.5l72 596q-58 33 -140 33q-80 0 -144.5 -42.5t-107.5 -111.5q-46 -71 -68 -176.5t-22 -204.5z" />
<glyph unicode="r" horiz-adv-x="751" d="M37 834q0 17 12.5 54.5t24.5 49.5q31 20 83.5 33.5t104.5 13.5q43 0 70 -8l-27 -207h21q32 97 102.5 162t169.5 65q58 0 98 -18q15 -44 15 -92q0 -47 -15 -94q-62 41 -139 41t-141.5 -52t-100.5 -149l-63 -629q-50 -8 -98 -8q-52 0 -76 8l110 846z" />
<glyph unicode="s" horiz-adv-x="841" d="M12 172q15 30 66 52t100 22q4 -89 46 -126.5t126 -37.5q68 0 115 37t47 100q0 41 -21 76t-54 62t-73 53.5t-80.5 55.5t-73.5 62t-54 79.5t-21 101.5q0 127 88 207.5t250 80.5q125 0 236 -51q0 -98 -39 -227q-25 0 -60.5 9.5t-52.5 21.5l10 112q-56 27 -123 27 q-63 0 -104 -32.5t-41 -90.5q0 -41 21 -78t54 -65t73 -55.5t80.5 -57t73.5 -62t54 -77t21 -95.5q0 -103 -54.5 -175t-137 -104t-181.5 -32q-132 0 -211.5 50t-79.5 157z" />
<glyph unicode="t" horiz-adv-x="710" d="M53 844q7 58 39 106q48 23 117 35l59 238q22 14 61 23t70 9l-30 -292h282q2 -19 2 -39q0 -38 -8 -80h-295l-57 -582q-2 -22 -2 -41q1 -53 17 -82q22 -39 83 -39q78 0 174 39q0 -58 -26 -108q-117 -66 -238 -66q-188 0 -188 203q0 78 28 284t60 392h-148z" />
<glyph unicode="u" horiz-adv-x="1134" d="M43 834q0 17 12.5 54.5t24.5 49.5q92 47 203 47q52 0 84 -8q-25 -189 -50.5 -415.5t-25.5 -282.5q0 -175 143 -175q73 0 140 43t106 111l78 592l-142 -16q0 17 12.5 55.5t24.5 50.5q85 45 195 45q50 0 82 -8l-94 -825q0 -4 3.5 -19.5t6.5 -19.5l153 14q0 -23 -10 -59 t-22 -56q-46 -17 -121.5 -32t-120.5 -15q-40 66 -51 158h-10q-103 -158 -318 -158q-37 0 -69.5 7t-63.5 25t-53 45.5t-35.5 71.5t-13.5 101q0 88 28.5 289t53.5 346z" />
<glyph unicode="v" horiz-adv-x="974" d="M-29 838q0 17 11 54.5t22 49.5q27 18 85 30t114 13q40 0 73 -10l101 -664q17 -110 20 -207h15q172 337 313 721q0 19 -8 35l-168 -14q2 25 14.5 58.5t30.5 51.5q33 16 115.5 28.5t124.5 12.5q25 -25 45 -69t20 -66q-218 -492 -471 -913l-162 43l-153 860z" />
<glyph unicode="w" horiz-adv-x="1484" d="M4 838q0 17 11 54.5t22 49.5q28 19 84 31t112 12q39 0 72 -10l49 -635q4 -43 4 -234h15q67 168 150 422.5t134 438.5l215 20l74 -647q8 -76 8 -234h15q177 405 276 719q0 19 -8 35l-137 -10q2 26 15 62t30 53q29 11 93.5 21.5t96.5 10.5q26 -25 48 -69t22 -66 q-151 -415 -401 -913l-181 43l-84 813h-14q-52 -183 -148 -440.5t-171 -415.5l-177 43l-82 860z" />
<glyph unicode="x" horiz-adv-x="1011" d="M-33 96q0 32 8 56l119 -48q68 68 154 175t147 204q-66 162 -145 373l-135 -18q0 17 12 54t23 50q24 18 70.5 30t90.5 13q48 0 72 -8q84 -210 139 -379h10q145 220 205 360q31 9 80 9t94 -9q-58 -105 -153.5 -245t-177.5 -242q54 -129 108 -239t70 -121l141 26 q1 -24 -6.5 -60t-18.5 -57q-33 -20 -100 -40.5t-115 -26.5q-25 9 -81.5 121.5t-120.5 273.5h-11q-171 -268 -303 -395q-37 9 -87 32t-79 44q-10 30 -10 67z" />
<glyph unicode="y" horiz-adv-x="976" d="M-37 -324q255 79 373 283l-211 895l-145 -14q0 17 10.5 53.5t21.5 48.5q28 19 83.5 31t111.5 12q41 0 74 -10l129 -590q19 -93 28 -250h15q190 362 290 690q0 19 -8 35l-164 -14q2 25 14.5 58.5t30.5 51.5q34 16 112.5 28.5t119.5 12.5q25 -25 45 -69t20 -66 q-93 -250 -245 -551t-252 -442q-93 -131 -191.5 -214t-216.5 -134q-18 29 -31.5 73.5t-13.5 81.5z" />
<glyph unicode="z" horiz-adv-x="921" d="M8 88l580 746v14h-328q-16 -67 -57 -143q-65 0 -111 18l37 240h674l8 -89l-582 -745v-14q209 0 373 18q15 60 55 143q23 5 58.5 6t58.5 -3l-53 -279h-705z" />
<glyph unicode="{" horiz-adv-x="630" d="M55 535q6 58 35 114q35 4 60.5 16.5t41.5 31t27 49.5t16.5 62.5t10.5 78.5l35 323q16 160 92.5 246.5t249.5 93.5q-1 -23 -14 -62t-25 -61q-67 -9 -98 -55.5t-42 -148.5l-30 -324q-11 -124 -54 -199t-129 -102v-10q80 -24 106 -91t17 -192l-28 -377q-8 -107 17 -162.5 t89 -62.5q3 -21 0 -60.5t-10 -56.5q-82 3 -138 26.5t-85 66t-39 95.5t-4 124l28 372q6 83 2.5 140t-34.5 88t-97 37z" />
<glyph unicode="|" horiz-adv-x="532" d="M66 -375l194 1911q47 14 123 14l-182 -1925q-27 -6 -76 -6q-38 0 -59 6z" />
<glyph unicode="}" horiz-adv-x="630" d="M-53.5 -354.5q-0.5 39.5 4.5 57.5q67 3 109 55.5t51 145.5l36 381q13 135 53 207t130 96v10q-76 27 -103.5 97t-19.5 192l22 319q9 122 -17.5 172.5t-105.5 57.5q3 24 18.5 59t29.5 55q63 -6 109.5 -26.5t73 -50t41.5 -71t18.5 -83t0.5 -92.5l-22 -328q-4 -70 -3 -124 t29 -88t88 -38q15 -51 15 -114q-97 -7 -138 -59t-53 -179l-39 -379q-8 -76 -26.5 -131t-54.5 -100.5t-96 -71t-144 -29.5q-6 20 -6.5 59.5z" />
<glyph unicode="~" d="M141 524q50 63 119.5 100.5t149.5 37.5q51 0 99.5 -16t81 -34.5t77.5 -34.5t88 -16q53 0 97 26.5t71 63.5q52 -17 86 -47q-45 -77 -123.5 -123.5t-169.5 -46.5q-58 0 -108.5 16t-80.5 34.5t-72 34.5t-87 16q-91 0 -179 -101q-31 24 -49 90z" />
<glyph unicode="&#xa1;" horiz-adv-x="555" d="M39 -436l131 958q48 19 129 19l-41 -977q-50 -13 -108 -13q-57 0 -111 13zM129 860q0 54 36.5 90.5t90.5 36.5q58 0 92.5 -34t34.5 -93q0 -65 -35 -102t-92 -37q-127 0 -127 139z" />
<glyph unicode="&#xa2;" horiz-adv-x="1294" d="M229 428q0 253 148 434q103 125 268 164l14 123q47 14 123 14l-10 -123q134 -6 223 -73q0 -132 -53 -248q-27 0 -61 7.5t-52 18.5l15 146q-53 31 -113 31q-67 0 -126 -31.5t-101 -87.5q-90 -118 -90 -328q0 -128 48.5 -187t147.5 -59q136 0 322 93q0 -25 -9 -61.5 t-20 -59.5q-106 -76 -231 -107l-15 -174q-20 -4 -71 -4q-40 0 -64 4l15 160q-152 1 -230 93t-78 255z" />
<glyph unicode="&#xa3;" horiz-adv-x="1294" d="M70 0q3 19 14.5 50t21.5 48q52 29 130 43q102 142 108 340h-168q0 56 25 121h139q-8 98 -8 141q0 369 420 369q140 0 270 -51q0 -53 -15.5 -133t-31.5 -119q-76 0 -125 27l14 135q-68 24 -131 24q-124 0 -177.5 -68t-53.5 -192q0 -18 1 -40t2.5 -50t2.5 -43h360 q10 -55 -6 -121h-356q-8 -111 -47.5 -207.5t-102.5 -138.5v-10h480q14 74 49 154q46 13 110 10l-34 -289h-891z" />
<glyph unicode="&#xa4;" horiz-adv-x="1294" d="M123 86l143 164q-55 88 -55 225q0 217 113 352l-105 158q9 20 35 42.5t51 29.5l105 -156q104 68 241 68q131 0 223 -64l125 146q25 -4 50 -22t36 -38l-139 -160q64 -89 64 -219q0 -229 -123 -368l110 -162q-12 -20 -44.5 -41t-59.5 -27l-102 152q-94 -55 -224 -55 q-137 0 -223 59l-139 -160q-23 6 -48 29.5t-34 46.5zM356 502q0 -126 60 -202.5t162 -76.5q134 0 208 104t74 269q0 114 -59.5 187t-159.5 73q-137 0 -211 -97.5t-74 -256.5z" />
<glyph unicode="&#xa5;" horiz-adv-x="1294" d="M164 1067h452q-7 -60 -24 -106q-70 -23 -150 -29q38 -47 62 -107l90 -217q20 -48 29 -92h14q23 51 51 92l150 219q48 69 90 105q-75 11 -117 29q-13 49 -6 106h360q-8 -61 -30 -111q-41 -17 -88 -20l-250 -365h194q6 -43 -6 -98h-256l-49 -72l-6 -63h289q6 -40 -7 -98 h-292l-11 -109q89 -7 162 -25q11 -55 0 -106h-518q8 50 37 98q66 30 143 43l10 99h-311q0 39 19 98h301l6 47l-39 88h-258q0 42 18 98h197l-154 353q-54 16 -100 45q-8 51 -2 98z" />
<glyph unicode="&#xa6;" horiz-adv-x="522" d="M70 -377l75 746q58 16 131 16l-69 -762q-27 -6 -78 -6q-38 0 -59 6zM190 848l72 688q47 14 127 14l-65 -702q-27 -6 -76 -6q-37 0 -58 6z" />
<glyph unicode="&#xa7;" horiz-adv-x="1024" d="M18 -174q19 27 71.5 50.5t94.5 23.5q29 -185 195 -185q113 0 180.5 61.5t67.5 160.5q0 55 -28 99.5t-73 74.5t-99 57.5t-108 57t-99 64.5t-73 88t-28 120q0 54 21 115.5t50 95.5q27 20 82.5 35.5t98.5 17.5q-42 -42 -67 -103t-25 -122q0 -48 28 -88.5t72.5 -70t98.5 -58 t107.5 -60.5t98 -70t72.5 -95t28 -126q0 -123 -60.5 -208t-158 -123.5t-223.5 -38.5q-139 0 -224 57t-100 170zM213 1130q0 158 100.5 245t270.5 87q163 0 307 -65q-10 -111 -51 -258q-78 0 -129 28l18 152q-83 33 -158 33q-92 0 -144 -46.5t-52 -129.5q0 -47 26 -86 t68 -67.5t92.5 -56.5t100.5 -59.5t92 -69.5t68 -94t26 -125q0 -167 -139 -288q-23 6 -54.5 25.5t-46.5 37.5q82 89 82 195q0 52 -26.5 94.5t-68.5 72t-92.5 56.5t-101.5 56.5t-93 63.5t-68.5 85t-26.5 114z" />
<glyph unicode="&#xa8;" horiz-adv-x="858" d="M131 1266q0 44 30.5 74t74.5 30q45 0 73.5 -28t28.5 -76q0 -51 -29 -82t-73 -31q-105 0 -105 113zM535 1266q0 44 30 74t74 30q45 0 73.5 -28t28.5 -76q0 -51 -29 -82t-73 -31q-104 0 -104 113z" />
<glyph unicode="&#xa9;" horiz-adv-x="1628" d="M115 602q0 222 102 408t277.5 293.5t384.5 107.5q182 0 327.5 -85.5t226 -233t80.5 -328.5q0 -163 -61 -311.5t-164.5 -257t-248.5 -172.5t-306 -64q-179 0 -321 84t-219.5 230.5t-77.5 328.5zM236 618q0 -154 67 -281t187 -200.5t268 -73.5q131 0 249 55t202.5 148 t134 220.5t49.5 267.5q0 151 -68 277t-190.5 200t-272.5 74q-171 0 -315 -92t-227.5 -250t-83.5 -345zM475 629q0 104 34.5 190.5t94.5 145t139.5 90.5t169.5 32q120 0 205 -40q-14 -129 -39 -226q-26 0 -60.5 7t-51.5 18l12 115q-39 20 -88 20q-106 0 -173 -89.5 t-67 -238.5q0 -247 201 -247q109 0 203 38q0 -21 -10 -52.5t-21 -51.5q-116 -57 -246 -57q-143 0 -223 93t-80 253z" />
<glyph unicode="&#xaa;" horiz-adv-x="768" d="M59 885q0 80 26 156t73 133q104 126 276 126q137 0 221 -59l-61 -461l6 -30l92 10q3 -44 -18 -86q-35 -15 -89.5 -26t-88.5 -11q-34 47 -37 96h-10q-37 -49 -93 -73.5t-112 -24.5q-83 0 -134 61.5t-51 188.5zM86 424q0 62 23 121h520q7 -55 -6 -121h-537zM209 905 q0 -78 30 -116.5t80 -38.5q40 0 77.5 24.5t62.5 67.5l49 346q-33 20 -86 20q-89 0 -152 -88q-61 -84 -61 -215z" />
<glyph unicode="&#xab;" horiz-adv-x="1064" d="M109 512q98 185 231 381q31 12 85.5 21.5t96.5 9.5q-134 -229 -221 -412q49 -177 131 -389q-23 -12 -67 -23t-78 -14q-95 192 -178 426zM479 520q98 186 234 381q31 12 85.5 21.5t96.5 9.5q-122 -202 -221 -412q43 -155 129 -387q-23 -12 -67 -23t-79 -14 q-98 197 -178 424z" />
<glyph unicode="&#xac;" d="M125 485q0 63 25 140h841l-33 -359q-27 -8 -86 -8q-46 0 -67 8l24 219h-704z" />
<glyph unicode="&#xad;" d="M111 479q0 62 26 142h862q7 -70 -8 -142h-880z" />
<glyph unicode="&#xae;" horiz-adv-x="1028" d="M129 1059q0 222 134.5 366t350.5 144q171 0 273 -103.5t102 -271.5q0 -119 -39.5 -218.5t-106 -164t-153.5 -100t-184 -35.5q-172 0 -274.5 105.5t-102.5 277.5zM227 1075q0 -138 80 -225.5t215 -87.5q161 0 265 115t104 288q0 139 -80.5 227.5t-216.5 88.5 q-166 0 -266.5 -115.5t-100.5 -290.5zM326 899q3 24 14 45q23 10 57 14l35 338q-27 0 -51 4q-2 8 -1.5 28t3.5 30q94 8 180 8q97 0 148 -29.5t51 -99.5q0 -52 -36 -90.5t-81 -44.5q53 -118 70 -146l53 2q-3 -30 -14 -55q-58 -13 -109 -16q-47 97 -86 203q-27 0 -55 4 l-12 -136q27 0 57 -10q6 -24 2 -49h-225zM508 1153q16 -4 65 -4q40 0 69.5 21.5t29.5 58.5q0 41 -29.5 57.5t-93.5 16.5q-11 0 -29 -3z" />
<glyph unicode="&#xaf;" horiz-adv-x="858" d="M184 1186q0 64 25 133h487q7 -67 -8 -133h-504z" />
<glyph unicode="&#xb0;" horiz-adv-x="753" d="M141 989q0 139 82.5 225t214.5 86q109 0 172.5 -58.5t63.5 -162.5q0 -147 -78.5 -231t-214.5 -84q-117 0 -178.5 57t-61.5 168zM276 1012q0 -65 31.5 -103.5t83.5 -38.5q72 0 111 53t39 140q0 60 -30 95.5t-83 35.5q-73 0 -112.5 -49t-39.5 -133z" />
<glyph unicode="&#xb1;" d="M109 0q0 52 24 131h770q7 -65 -8 -131h-786zM193 696q0 57 22 125h309l39 348q59 19 144 19l-35 -367h317q7 -63 -8 -125h-322l-34 -364q-27 -8 -86 -8q-47 0 -66 8l39 364h-319z" />
<glyph unicode="&#xb2;" horiz-adv-x="788" d="M72 786l12 123q30 27 91.5 73t114 86.5t105.5 89t84 99.5t31 97q0 45 -28 64.5t-91 19.5q-64 0 -125 -35l-4 -113q-41 -14 -115 -14q-6 94 -6 209q130 65 273 65q260 0 260 -176q0 -49 -24 -100t-58.5 -91.5t-85.5 -85t-90 -73t-88 -62.5t-66 -47v-10q162 0 395 17 q-3 -71 -20 -136h-565z" />
<glyph unicode="&#xb3;" horiz-adv-x="788" d="M114.5 866.5q-3.5 41.5 0.5 69.5q43 -18 107 -32.5t118 -14.5q72 0 115 27.5t43 84.5q0 60 -61 83.5t-208 23.5q0 60 21 109q268 0 268 145q0 82 -102 82q-50 0 -99 -17l-6 -94q-50 -16 -123 -16q-6 59 -6 186q46 20 120.5 33.5t131.5 13.5q104 0 174 -42t70 -126 q0 -78 -54 -136.5t-135 -65.5v-11q70 -7 120 -48t50 -109q0 -122 -96 -181t-248 -59q-104 0 -188 23q-9 30 -12.5 71.5z" />
<glyph unicode="&#xb4;" horiz-adv-x="858" d="M297 1178l256 319q38 -6 87.5 -29.5t72.5 -46.5l-334 -340q-22 12 -46 40.5t-36 56.5z" />
<glyph unicode="&#xb5;" horiz-adv-x="1159" d="M-10 -506q142 935 203 1464q24 10 82 17.5t90 7.5q-23 -126 -48.5 -327t-25.5 -298q0 -122 43 -181.5t137 -59.5q78 0 150 47.5t108 111.5q24 367 84 682q21 9 75.5 17t84.5 8q-80 -513 -80 -725q0 -76 14.5 -111.5t50.5 -35.5q49 0 103 24q-1 -29 -11.5 -67.5 t-21.5 -59.5q-71 -43 -139 -43q-135 0 -152 185h-10q-17 -36 -41.5 -66.5t-61 -58.5t-89 -44t-115.5 -16q-194 0 -223 201h-15q15 -195 15 -297q0 -193 -25 -420q-41 1 -96 15.5t-86 29.5z" />
<glyph unicode="&#xb6;" horiz-adv-x="1114" d="M51 1040q0 200 151 308t419 108q298 0 485 -18q0 -79 -16 -119q-41 -2 -146 -2l-123 -1376q-8 -4 -63 -4q-56 0 -72 4l139 1396q-24 1 -155 6l-146 -1548q0 -15 11 -37l423 45q0 -56 -28 -110q-88 -26 -239 -48.5t-238 -25.5q-28 32 -50 80.5t-22 71.5l96 958 q-27 -2 -69 -2q-71 0 -132.5 16.5t-113 52t-81.5 98t-30 146.5z" />
<glyph unicode="&#xb7;" horiz-adv-x="514" d="M117 506q0 60 40 99.5t99 39.5q62 0 98.5 -36.5t36.5 -102.5q0 -68 -37 -109t-98 -41q-139 0 -139 150z" />
<glyph unicode="&#xb8;" horiz-adv-x="815" d="M233 -395q65 11 107.5 45.5t42.5 87.5q0 39 -25.5 67t-66.5 37l86 172q54 13 110 13l-45 -148q43 -12 76 -46t33 -83q0 -89 -83 -151t-187 -70q-35 35 -48 76z" />
<glyph unicode="&#xb9;" horiz-adv-x="788" d="M137 786q7 51 33 97q37 10 113 18l51 508l-158 -16q7 61 33 108q104 30 287 41l-54 -645q72 -4 125 -12q11 -46 2 -99h-432z" />
<glyph unicode="&#xba;" horiz-adv-x="782" d="M84 424q0 64 22 121h547q7 -55 -6 -121h-563zM117 893q0 158 71 262q46 69 118.5 107t160.5 38q115 0 177.5 -65t62.5 -191q0 -79 -25 -155.5t-66 -134.5q-90 -119 -262 -119q-117 0 -177 65.5t-60 192.5zM266 915q0 -180 113 -180q72 0 129 86q49 73 49 211 q0 170 -108 170q-46 0 -84 -26.5t-60 -71.5q-39 -79 -39 -189z" />
<glyph unicode="&#xbb;" horiz-adv-x="1064" d="M104 129q128 221 205 383q-42 158 -123 377q25 17 65.5 29t74.5 12q129 -273 174 -418q-86 -160 -264 -426q-31 1 -71.5 14.5t-60.5 28.5zM481 137q128 221 205 383q-35 135 -123 377q25 17 66.5 29t75.5 12q129 -273 174 -418q-95 -175 -267 -428q-30 1 -70 15.5 t-61 29.5z" />
<glyph unicode="&#xbc;" horiz-adv-x="1896" d="M225 672q7 49 33 96q37 10 113 18l51 508l-158 -16q7 61 33 108q104 30 287 41l-54 -645q72 -4 125 -12q11 -46 2 -98h-432zM350 12l1102 1444q62 0 117 -20l-1118 -1493q-26 6 -57.5 28t-43.5 41zM1047 190l10 99l366 461h181l-37 -445h108q6 -52 -6 -115h-110l-15 -186 q-30 -6 -82 -6q-41 0 -65 6l18 186h-368zM1204 303q29 2 90 2h129l23 201q9 73 20 121h-8l-254 -316v-8z" />
<glyph unicode="&#xbd;" horiz-adv-x="1896" d="M213 672q7 49 33 96q38 10 112 18l52 508l-158 -16q7 61 33 108q104 30 286 41l-53 -645q72 -4 125 -12q11 -46 2 -98h-432zM317 12l1102 1444q62 0 117 -20l-1118 -1493q-26 6 -57.5 28t-43.5 41zM1049 0l12 123q30 27 91.5 72.5t114 86.5t105.5 89t84 99t31 97 q0 45 -28 64.5t-91 19.5q-64 0 -125 -35l-4 -112q-43 -15 -115 -15q-6 94 -6 209q132 66 273 66q260 0 260 -176q0 -49 -24 -100t-58.5 -91.5t-85.5 -85t-90 -73t-88 -62.5t-66 -47v-10q176 0 395 16q-3 -70 -20 -135h-565z" />
<glyph unicode="&#xbe;" horiz-adv-x="1896" d="M208.5 751.5q-3.5 41.5 0.5 69.5q43 -18 107 -32.5t118 -14.5q72 0 115 28t43 85q0 59 -60 82.5t-208 23.5q0 62 20 109q268 0 268 145q0 82 -102 82q-52 0 -98 -16l-6 -94q-53 -17 -123 -17q-7 69 -7 187q46 20 120.5 33.5t131.5 13.5q104 0 174 -42t70 -126 q0 -79 -53.5 -137.5t-134.5 -65.5v-10q70 -7 120 -48.5t50 -109.5q0 -122 -96 -181t-248 -59q-105 0 -189 23q-9 30 -12.5 71.5zM365 12l1101 1444q62 0 117 -20l-1118 -1493q-25 6 -56.5 28t-43.5 41zM1047 190l10 99l366 461h181l-37 -445h108q6 -52 -6 -115h-110 l-15 -186q-30 -6 -82 -6q-41 0 -65 6l18 186h-368zM1204 303q29 2 90 2h129l23 201q9 73 20 121h-8l-254 -316v-8z" />
<glyph unicode="&#xbf;" horiz-adv-x="878" d="M-16 -217q0 63 23.5 119t61.5 99t83.5 82.5t91 75.5t83.5 72t61.5 79t23.5 89q0 59 -31 119q26 20 74.5 37.5t89.5 22.5q49 -74 49 -177q0 -55 -30 -109.5t-75 -97t-98 -90.5t-98 -90.5t-75 -96t-30 -107.5q0 -73 47.5 -119.5t149.5 -46.5q38 0 86.5 13.5t77.5 33.5 l18 194q56 33 142 33q2 -14 2 -47v-49q0 -81 -11 -228q-63 -30 -172.5 -53.5t-193.5 -23.5q-171 0 -260.5 70.5t-89.5 195.5zM358 860q0 54 36.5 90.5t90.5 36.5q58 0 92.5 -34t34.5 -93q0 -65 -35 -102t-92 -37q-127 0 -127 139z" />
<glyph unicode="&#xc0;" horiz-adv-x="1458" d="M-6 0q10 56 39 109q41 14 102 22l633 1319h117l364 -1315q63 -4 119 -18q12 -54 12 -117h-491q10 61 33 111q55 14 151 24q-40 69 -63 168l-39 156h-516l-76 -174q-37 -88 -82 -158q80 -4 154 -18q4 -15 9 -53t5 -56h-471zM459 1731q26 35 72 71t83 51l357 -200 q-3 -25 -23.5 -63.5t-40.5 -55.5zM500 575h446l-123 469q-28 114 -28 195h-15q-18 -74 -75 -199z" />
<glyph unicode="&#xc1;" horiz-adv-x="1458" d="M-6 0q10 56 39 109q41 14 102 22l633 1319h117l364 -1315q63 -4 119 -18q12 -54 12 -117h-491q10 61 33 111q55 14 151 24q-40 69 -63 168l-39 156h-516l-76 -174q-37 -88 -82 -158q80 -4 154 -18q4 -15 9 -53t5 -56h-471zM500 575h446l-123 469q-28 114 -28 195h-15 q-18 -74 -75 -199zM722 1590.5q-3 42.5 1 70.5l412 207q27 -22 53 -70t37 -90l-492 -184q-8 24 -11 66.5z" />
<glyph unicode="&#xc2;" horiz-adv-x="1458" d="M-6 0q10 56 39 109q41 14 102 22l633 1319h117l364 -1315q63 -4 119 -18q12 -54 12 -117h-491q10 61 33 111q55 14 151 24q-40 69 -63 168l-39 156h-516l-76 -174q-37 -88 -82 -158q80 -4 154 -18q4 -15 9 -53t5 -56h-471zM494 1636l249 191h207l230 -205 q-11 -25 -35 -54t-47 -42l-264 155l-314 -168q-11 22 -18.5 59t-7.5 64zM500 575h446l-123 469q-28 114 -28 195h-15q-18 -74 -75 -199z" />
<glyph unicode="&#xc3;" horiz-adv-x="1458" d="M-6 0q10 56 39 109q41 14 102 22l633 1319h117l364 -1315q63 -4 119 -18q12 -54 12 -117h-491q10 61 33 111q55 14 151 24q-40 69 -63 168l-39 156h-516l-76 -174q-37 -88 -82 -158q80 -4 154 -18q4 -15 9 -53t5 -56h-471zM453 1591q23 84 88.5 138.5t160.5 54.5 q57 0 106.5 -21.5t92 -43t82.5 -21.5q45 0 75 26.5t38 63.5q48 0 106 -23q-13 -91 -79.5 -158t-172.5 -67q-48 0 -98.5 22.5t-97 45t-84.5 22.5q-46 0 -80 -28.5t-47 -67.5q-23 4 -51 22.5t-39 34.5zM500 575h446l-123 469q-28 114 -28 195h-15q-18 -74 -75 -199z" />
<glyph unicode="&#xc4;" horiz-adv-x="1458" d="M-6 0q10 56 39 109q41 14 102 22l633 1319h117l364 -1315q63 -4 119 -18q12 -54 12 -117h-491q10 61 33 111q55 14 151 24q-40 69 -63 168l-39 156h-516l-76 -174q-37 -88 -82 -158q80 -4 154 -18q4 -15 9 -53t5 -56h-471zM469 1679q0 47 35 80t86 33q52 0 85.5 -30.5 t33.5 -82.5q0 -54 -34 -87t-85 -33q-59 0 -90 31t-31 89zM500 575h446l-123 469q-28 114 -28 195h-15q-18 -74 -75 -199zM942 1679q0 47 35 80t86 33q52 0 85.5 -30.5t33.5 -82.5q0 -54 -34 -87t-85 -33q-59 0 -90 31t-31 89z" />
<glyph unicode="&#xc5;" horiz-adv-x="1458" d="M-6 0q10 56 39 109q41 14 102 22l627 1307q-172 21 -172 184q0 111 71.5 175.5t204.5 64.5q106 0 168 -49.5t62 -137.5q0 -100 -56 -161t-153 -76l362 -1303q63 -4 119 -18q12 -54 12 -117h-491q10 61 33 111q55 14 151 24q-40 69 -63 168l-39 156h-516l-76 -174 q-37 -88 -82 -158q80 -4 154 -18q4 -15 9 -53t5 -56h-471zM500 575h446l-123 469q-28 114 -28 195h-15q-18 -74 -75 -199zM723 1632q0 -96 108 -96q59 0 92 32.5t33 94.5q0 96 -102 96q-62 0 -96.5 -32.5t-34.5 -94.5z" />
<glyph unicode="&#xc6;" horiz-adv-x="1828" d="M-25 0q10 61 37 109q37 14 97 22l727 1159q-108 4 -172 15q-3 23 -0.5 60t8.5 56h1081l-31 -301q-58 0 -112 15q-13 93 -13 161h-446l-51 -540h354q11 55 31 110q53 17 119 17l-37 -379q-26 -3 -62 -0.5t-55 8.5q-10 67 -10 121h-348l-45 -504h442q22 110 43 176 q54 14 131 14l-31 -319h-944q7 55 29 109q56 17 145 26l33 338h-401l-111 -186q-76 -122 -104 -158q98 -4 143 -14q12 -40 12 -115h-459zM563 590h344l74 706h-14q-33 -91 -88 -182z" />
<glyph unicode="&#xc7;" horiz-adv-x="1243" d="M96 575q0 161 37 302.5t103.5 247.5t156.5 182.5t199.5 115.5t228.5 39q217 0 367 -78q-17 -186 -58 -340q-30 0 -72.5 10t-66.5 23l21 209q-95 45 -215 45q-229 0 -366.5 -191t-137.5 -526q0 -246 106 -370.5t293 -124.5q81 0 187.5 21t181.5 50q0 -26 -11.5 -67.5 t-25.5 -63.5q-152 -74 -319 -94l-23 -98q57 -9 94 -46.5t37 -92.5q0 -97 -89.5 -168t-199.5 -82q-40 40 -55 90q77 21 117.5 54.5t40.5 94.5q0 41 -32 69.5t-81 39.5l61 135q-220 12 -349.5 181t-129.5 433z" />
<glyph unicode="&#xc8;" horiz-adv-x="1181" d="M14 0q9 56 31 109q64 17 158 26l119 1155q-92 4 -148 15q-7 57 8 116h924l-31 -301q-58 0 -112 15q-13 93 -13 161h-458l-50 -520h365q11 57 31 111q50 16 118 16l-36 -379q-26 -3 -62 -0.5t-55 8.5q-10 67 -10 121h-359l-47 -524h455q22 110 43 176q54 14 131 14 l-31 -319h-971zM322 1731q26 35 72 71t83 51l357 -200q-3 -25 -23.5 -63.5t-40.5 -55.5z" />
<glyph unicode="&#xc9;" horiz-adv-x="1181" d="M14 0q9 56 31 109q64 17 158 26l119 1155q-92 4 -148 15q-7 57 8 116h924l-31 -301q-58 0 -112 15q-13 93 -13 161h-458l-50 -520h365q11 57 31 111q50 16 118 16l-36 -379q-26 -3 -62 -0.5t-55 8.5q-10 67 -10 121h-359l-47 -524h455q22 110 43 176q54 14 131 14 l-31 -319h-971zM583 1590.5q-3 42.5 1 70.5l411 207q27 -22 53 -70t37 -90l-491 -184q-8 24 -11 66.5z" />
<glyph unicode="&#xca;" horiz-adv-x="1181" d="M14 0q9 56 31 109q64 17 158 26l119 1155q-92 4 -148 15q-7 57 8 116h924l-31 -301q-58 0 -112 15q-13 93 -13 161h-458l-50 -520h365q11 57 31 111q50 16 118 16l-36 -379q-26 -3 -62 -0.5t-55 8.5q-10 67 -10 121h-359l-47 -524h455q22 110 43 176q54 14 131 14 l-31 -319h-971zM350 1636l250 191h207l229 -205q-11 -25 -35 -54t-47 -42l-264 155l-313 -168q-11 22 -19 59.5t-8 63.5z" />
<glyph unicode="&#xcb;" horiz-adv-x="1181" d="M14 0q9 56 31 109q64 17 158 26l119 1155q-92 4 -148 15q-7 57 8 116h924l-31 -301q-58 0 -112 15q-13 93 -13 161h-458l-50 -520h365q11 57 31 111q50 16 118 16l-36 -379q-26 -3 -62 -0.5t-55 8.5q-10 67 -10 121h-359l-47 -524h455q22 110 43 176q54 14 131 14 l-31 -319h-971zM332 1679q0 47 35 80t86 33q52 0 85 -30.5t33 -82.5q0 -54 -33.5 -87t-84.5 -33q-59 0 -90 31t-31 89zM805 1679q0 47 35 80t86 33q52 0 85 -30.5t33 -82.5q0 -54 -33.5 -87t-84.5 -33q-59 0 -90 31t-31 89z" />
<glyph unicode="&#xcc;" horiz-adv-x="716" d="M16 0q9 56 31 109q64 17 158 26l119 1155q-92 4 -148 15q-7 57 8 116h486q4 -62 -15 -114q-77 -14 -161 -17l-105 -1157q116 -8 172 -20q4 -22 2.5 -56.5t-6.5 -56.5h-541zM57 1731q26 35 72.5 71t83.5 51l356 -200q-3 -25 -23 -63.5t-40 -55.5z" />
<glyph unicode="&#xcd;" horiz-adv-x="716" d="M16 0q9 56 31 109q64 17 158 26l119 1155q-92 4 -148 15q-7 57 8 116h486q4 -62 -15 -114q-77 -14 -161 -17l-105 -1157q116 -8 172 -20q4 -22 2.5 -56.5t-6.5 -56.5h-541zM327 1590.5q-3 42.5 1 70.5l411 207q27 -22 53 -70t37 -90l-491 -184q-8 24 -11 66.5z" />
<glyph unicode="&#xce;" horiz-adv-x="716" d="M16 0q9 56 31 109q64 17 158 26l119 1155q-92 4 -148 15q-7 57 8 116h486q4 -62 -15 -114q-77 -14 -161 -17l-105 -1157q116 -8 172 -20q4 -22 2.5 -56.5t-6.5 -56.5h-541zM100 1636l250 191h207l229 -205q-11 -26 -34.5 -54.5t-46.5 -41.5l-265 155l-313 -168 q-11 22 -19 59.5t-8 63.5z" />
<glyph unicode="&#xcf;" horiz-adv-x="716" d="M16 0q9 56 31 109q64 17 158 26l119 1155q-92 4 -148 15q-7 57 8 116h486q4 -62 -15 -114q-77 -14 -161 -17l-105 -1157q116 -8 172 -20q4 -22 2.5 -56.5t-6.5 -56.5h-541zM117 1679q0 47 35 80t86 33q52 0 85 -30.5t33 -82.5q0 -54 -33.5 -87t-84.5 -33q-59 0 -90 31 t-31 89zM528 1679q0 47 35 80t86 33q52 0 85.5 -30.5t33.5 -82.5q0 -54 -34 -87t-85 -33q-59 0 -90 31t-31 89z" />
<glyph unicode="&#xd0;" horiz-adv-x="1449" d="M49 4q9 56 31 109q66 18 153 26l54 512h-168q0 59 24 125h156l53 502q-108 0 -147 6q-2 19 1 61t7 62q276 29 500 29q137 0 251 -40.5t198.5 -117.5t131.5 -196t47 -269q0 -166 -35.5 -302.5t-99 -232.5t-152 -161.5t-193 -96t-224.5 -30.5q-233 0 -588 14zM418 127 q88 -6 186 -6q547 0 547 674q0 250 -133 382t-359 132q-87 0 -137 -9l-47 -524h369q8 -47 -6 -125h-373z" />
<glyph unicode="&#xd1;" horiz-adv-x="1495" d="M18 0q8 47 29 109q65 17 152 26l120 1155q-78 3 -145 15q-7 57 8 116h393l435 -1024q41 -93 61 -223h14l113 1116q-85 4 -147 15q-4 68 8 116h430q2 -20 -2.5 -57.5t-11.5 -56.5q-65 -13 -146 -17l-119 -1302h-227l-467 1134q-33 88 -47 144h-14l-103 -1133 q107 -8 162 -20q4 -20 2.5 -56.5t-6.5 -56.5h-492zM465 1591q23 84 89 138.5t161 54.5q57 0 106.5 -21.5t91.5 -43t82 -21.5q45 0 75 26.5t38 63.5q48 0 106 -23q-13 -91 -79 -158t-172 -67q-48 0 -99 22.5t-97.5 45t-84.5 22.5q-46 0 -80 -28.5t-47 -67.5q-23 4 -51 22.5 t-39 34.5z" />
<glyph unicode="&#xd2;" horiz-adv-x="1462" d="M100 580q0 262 82.5 461.5t238 310t363.5 110.5q249 0 393 -159t144 -449q0 -269 -80.5 -470.5t-235 -313t-364.5 -111.5q-263 0 -402 158.5t-139 462.5zM295 604q0 -236 94.5 -372t265.5 -136q151 0 259 95.5t161 259t53 378.5q0 223 -96 360.5t-260 137.5 q-121 0 -214 -56t-149.5 -155.5t-85 -228.5t-28.5 -283zM426 1731q26 35 72.5 71t83.5 51l356 -200q-3 -25 -23.5 -63.5t-40.5 -55.5z" />
<glyph unicode="&#xd3;" horiz-adv-x="1462" d="M100 580q0 262 82.5 461.5t238 310t363.5 110.5q249 0 393 -159t144 -449q0 -269 -80.5 -470.5t-235 -313t-364.5 -111.5q-263 0 -402 158.5t-139 462.5zM295 604q0 -236 94.5 -372t265.5 -136q151 0 259 95.5t161 259t53 378.5q0 223 -96 360.5t-260 137.5 q-121 0 -214 -56t-149.5 -155.5t-85 -228.5t-28.5 -283zM669 1590.5q-3 42.5 1 70.5l411 207q27 -22 53 -70t37 -90l-491 -184q-8 24 -11 66.5z" />
<glyph unicode="&#xd4;" horiz-adv-x="1462" d="M100 580q0 262 82.5 461.5t238 310t363.5 110.5q249 0 393 -159t144 -449q0 -269 -80.5 -470.5t-235 -313t-364.5 -111.5q-263 0 -402 158.5t-139 462.5zM295 604q0 -236 94.5 -372t265.5 -136q151 0 259 95.5t161 259t53 378.5q0 223 -96 360.5t-260 137.5 q-121 0 -214 -56t-149.5 -155.5t-85 -228.5t-28.5 -283zM457 1636l250 191h206l230 -205q-11 -25 -35 -54t-47 -42l-264 155l-314 -168q-11 22 -18.5 59t-7.5 64z" />
<glyph unicode="&#xd5;" horiz-adv-x="1462" d="M100 580q0 262 82.5 461.5t238 310t363.5 110.5q249 0 393 -159t144 -449q0 -269 -80.5 -470.5t-235 -313t-364.5 -111.5q-263 0 -402 158.5t-139 462.5zM295 604q0 -236 94.5 -372t265.5 -136q151 0 259 95.5t161 259t53 378.5q0 223 -96 360.5t-260 137.5 q-121 0 -214 -56t-149.5 -155.5t-85 -228.5t-28.5 -283zM430 1591q23 84 89 138.5t161 54.5q57 0 106.5 -21.5t92 -43t82.5 -21.5q44 0 74 26.5t38 63.5q49 0 107 -23q-13 -91 -79.5 -158t-172.5 -67q-48 0 -99 22.5t-97.5 45t-84.5 22.5q-46 0 -80 -28.5t-47 -67.5 q-23 4 -51 22.5t-39 34.5z" />
<glyph unicode="&#xd6;" horiz-adv-x="1462" d="M100 580q0 262 82.5 461.5t238 310t363.5 110.5q249 0 393 -159t144 -449q0 -269 -80.5 -470.5t-235 -313t-364.5 -111.5q-263 0 -402 158.5t-139 462.5zM295 604q0 -236 94.5 -372t265.5 -136q151 0 259 95.5t161 259t53 378.5q0 223 -96 360.5t-260 137.5 q-121 0 -214 -56t-149.5 -155.5t-85 -228.5t-28.5 -283zM389 1679q0 47 35 80t86 33q52 0 85.5 -30.5t33.5 -82.5q0 -54 -34 -87t-85 -33q-59 0 -90 31t-31 89zM956 1679q0 47 35 80t86 33q52 0 85.5 -30.5t33.5 -82.5q0 -54 -34 -87t-85 -33q-59 0 -90 31t-31 89z" />
<glyph unicode="&#xd7;" d="M98 209l369 340l-297 354q18 19 52 42.5t61 33.5l282 -334l355 332q25 -9 57 -30.5t49 -41.5l-383 -356l299 -344q-16 -23 -50.5 -55t-57.5 -44l-285 347l-363 -349q-19 11 -47 45.5t-41 59.5z" />
<glyph unicode="&#xd8;" horiz-adv-x="1517" d="M-6 33l196 200q-65 133 -65 347q0 262 83.5 461.5t242 310t370.5 110.5q250 0 398 -157l188 200q27 -13 58 -39t44 -49l-215 -225q72 -141 72 -338q0 -269 -82 -470.5t-239 -313t-371 -111.5q-268 0 -412 162l-215 -219q-15 19 -32 60t-21 71zM319 604q0 -124 27 -223 l741 788q-102 158 -278 158q-124 0 -219.5 -56t-153.5 -155.5t-87.5 -228.5t-29.5 -283zM397 262q96 -166 291 -166q155 0 266 95.5t165.5 259.5t54.5 378q0 117 -31 215z" />
<glyph unicode="&#xd9;" horiz-adv-x="1392" d="M82 1421h508q2 -20 -3 -57.5t-12 -56.5q-80 -14 -172 -17l-57 -747q-6 -60 -6 -107q0 -167 76.5 -255.5t226.5 -88.5q114 0 199.5 60.5t130.5 157t57 220.5l74 760q-74 4 -133 15q-3 20 -0.5 59t8.5 57h418q3 -18 -2 -55.5t-13 -58.5q-67 -14 -139 -17l-57 -745 q-10 -132 -50.5 -238t-112 -184.5t-182 -121t-253.5 -42.5q-219 0 -327.5 113t-108.5 331q0 49 8 123l71 762q-71 3 -143 17q-11 55 -6 116zM418 1731q26 35 72 71t83 51l357 -200q-3 -25 -23.5 -63.5t-40.5 -55.5z" />
<glyph unicode="&#xda;" horiz-adv-x="1392" d="M82 1421h508q2 -20 -3 -57.5t-12 -56.5q-80 -14 -172 -17l-57 -747q-6 -60 -6 -107q0 -167 76.5 -255.5t226.5 -88.5q114 0 199.5 60.5t130.5 157t57 220.5l74 760q-74 4 -133 15q-3 20 -0.5 59t8.5 57h418q3 -18 -2 -55.5t-13 -58.5q-67 -14 -139 -17l-57 -745 q-10 -132 -50.5 -238t-112 -184.5t-182 -121t-253.5 -42.5q-219 0 -327.5 113t-108.5 331q0 49 8 123l71 762q-71 3 -143 17q-11 55 -6 116zM671 1590.5q-3 42.5 1 70.5l411 207q27 -22 53.5 -70t37.5 -90l-492 -184q-8 24 -11 66.5z" />
<glyph unicode="&#xdb;" horiz-adv-x="1392" d="M82 1421h508q2 -20 -3 -57.5t-12 -56.5q-80 -14 -172 -17l-57 -747q-6 -60 -6 -107q0 -167 76.5 -255.5t226.5 -88.5q114 0 199.5 60.5t130.5 157t57 220.5l74 760q-74 4 -133 15q-3 20 -0.5 59t8.5 57h418q3 -18 -2 -55.5t-13 -58.5q-67 -14 -139 -17l-57 -745 q-10 -132 -50.5 -238t-112 -184.5t-182 -121t-253.5 -42.5q-219 0 -327.5 113t-108.5 331q0 49 8 123l71 762q-71 3 -143 17q-11 55 -6 116zM453 1636l249 191h207l230 -205q-11 -25 -35 -54t-47 -42l-264 155l-314 -168q-11 22 -18.5 59t-7.5 64z" />
<glyph unicode="&#xdc;" horiz-adv-x="1392" d="M82 1421h508q2 -20 -3 -57.5t-12 -56.5q-80 -14 -172 -17l-57 -747q-6 -60 -6 -107q0 -167 76.5 -255.5t226.5 -88.5q114 0 199.5 60.5t130.5 157t57 220.5l74 760q-74 4 -133 15q-3 20 -0.5 59t8.5 57h418q3 -18 -2 -55.5t-13 -58.5q-67 -14 -139 -17l-57 -745 q-10 -132 -50.5 -238t-112 -184.5t-182 -121t-253.5 -42.5q-219 0 -327.5 113t-108.5 331q0 49 8 123l71 762q-71 3 -143 17q-11 55 -6 116zM432 1679q0 47 35 80t86 33q52 0 85.5 -30.5t33.5 -82.5q0 -54 -34 -87t-85 -33q-59 0 -90 31t-31 89zM905 1679q0 47 35 80t86 33 q52 0 85.5 -30.5t33.5 -82.5q0 -54 -34 -87t-85 -33q-59 0 -90 31t-31 89z" />
<glyph unicode="&#xdd;" horiz-adv-x="1200" d="M76 1421h481q-3 -56 -29 -114q-62 -11 -166 -15q41 -64 70 -139l127 -330q27 -75 35 -139h14q17 50 66 133l194 332q58 95 101 141q-74 4 -129 17q-13 50 -13 114h402q0 -53 -25 -118q-44 -8 -96 -11l-461 -737l-33 -422q115 -8 177 -20q10 -45 -5 -113h-559q8 48 33 109 q66 17 168 26l43 422l-285 729q-49 4 -100 17q-17 61 -10 118zM568.5 1590q-3.5 42 0.5 71l412 207q27 -22 53 -70t37 -90l-491 -184q-8 24 -11.5 66z" />
<glyph unicode="&#xde;" horiz-adv-x="1173" d="M18 0q9 56 31 109q71 18 158 26l119 1155q-92 4 -148 15q-7 52 8 116h486q3 -21 -2 -57t-13 -57q-77 -14 -161 -17l-13 -139q98 8 166 8q213 0 342 -96.5t129 -278.5q0 -119 -41 -215.5t-111.5 -158t-160.5 -94.5t-191 -33q-118 0 -210 14l-15 -164q130 -8 203 -20 q4 -20 2.5 -57.5t-6.5 -55.5h-572zM416 418q79 -8 200 -8q148 0 235 88.5t87 263.5q0 132 -89 200t-247 68q-53 0 -131 -8z" />
<glyph unicode="&#xdf;" horiz-adv-x="1234" d="M96 846q0 70 15 117h147q66 532 526 532q59 0 114 -11.5t104.5 -36t79.5 -69.5t30 -106q0 -48 -15 -90t-39 -72t-53 -57.5t-58 -52.5t-53 -50.5t-39 -58t-15 -68.5q0 -40 17 -75t44.5 -61.5t61 -52t66.5 -54t60.5 -60t44.5 -76.5t17 -98q0 -184 -113 -282.5t-297 -98.5 q-130 0 -208 50t-78 157q14 30 67 52t99 22q4 -89 44.5 -126.5t122.5 -37.5q85 0 140 59.5t55 147.5q0 46 -17.5 85t-45.5 67t-62 54.5t-67.5 54.5t-61.5 58.5t-45.5 74t-17.5 95.5q0 66 21 120.5t53 88.5t69 66.5t69 57.5t53 59.5t21 72.5q0 47 -29.5 78t-69 42t-87.5 11 q-159 0 -241.5 -104.5t-106.5 -315.5l-137 -1261q-50 -8 -103 -8q-56 0 -80 8l144 1138q-86 4 -146 15z" />
<glyph unicode="&#xe0;" horiz-adv-x="1069" d="M37 332q0 130 35 251t100 212q147 202 381 202q174 0 305 -92l-98 -751q0 -18 10 -43l160 14q0 -22 -10.5 -57.5t-22.5 -55.5q-44 -18 -121.5 -32.5t-122.5 -14.5q-39 66 -53 152h-10q-53 -77 -132 -114.5t-157 -37.5q-121 0 -192.5 90.5t-71.5 276.5zM213 354 q0 -126 45.5 -188t126.5 -62q62 0 120 40.5t95 109.5l84 604q-54 31 -133 31t-144 -43t-106 -111q-43 -72 -65.5 -179t-22.5 -202zM340 1425q31 22 86.5 37t103.5 15l185 -324q-20 -14 -62 -28.5t-69 -14.5z" />
<glyph unicode="&#xe1;" horiz-adv-x="1069" d="M37 332q0 130 35 251t100 212q147 202 381 202q174 0 305 -92l-98 -751q0 -18 10 -43l160 14q0 -22 -10.5 -57.5t-22.5 -55.5q-44 -18 -121.5 -32.5t-122.5 -14.5q-39 66 -53 152h-10q-53 -77 -132 -114.5t-157 -37.5q-121 0 -192.5 90.5t-71.5 276.5zM213 354 q0 -126 45.5 -188t126.5 -62q62 0 120 40.5t95 109.5l84 604q-54 31 -133 31t-144 -43t-106 -111q-43 -72 -65.5 -179t-22.5 -202zM444 1178l256 319q38 -6 87.5 -29.5t72.5 -46.5l-334 -340q-22 12 -46 40.5t-36 56.5z" />
<glyph unicode="&#xe2;" horiz-adv-x="1069" d="M37 332q0 130 35 251t100 212q147 202 381 202q174 0 305 -92l-98 -751q0 -18 10 -43l160 14q0 -22 -10.5 -57.5t-22.5 -55.5q-44 -18 -121.5 -32.5t-122.5 -14.5q-39 66 -53 152h-10q-53 -77 -132 -114.5t-157 -37.5q-121 0 -192.5 90.5t-71.5 276.5zM213 354 q0 -126 45.5 -188t126.5 -62q62 0 120 40.5t95 109.5l84 604q-54 31 -133 31t-144 -43t-106 -111q-43 -72 -65.5 -179t-22.5 -202zM289 1200l227 246l164 14l192 -289q-42 -54 -120 -69l-166 203l-244 -222q-17 13 -32.5 49t-20.5 68z" />
<glyph unicode="&#xe3;" horiz-adv-x="1069" d="M37 332q0 130 35 251t100 212q147 202 381 202q174 0 305 -92l-98 -751q0 -18 10 -43l160 14q0 -22 -10.5 -57.5t-22.5 -55.5q-44 -18 -121.5 -32.5t-122.5 -14.5q-39 66 -53 152h-10q-53 -77 -132 -114.5t-157 -37.5q-121 0 -192.5 90.5t-71.5 276.5zM213 354 q0 -126 45.5 -188t126.5 -62q62 0 120 40.5t95 109.5l84 604q-54 31 -133 31t-144 -43t-106 -111q-43 -72 -65.5 -179t-22.5 -202zM256 1188q24 84 78.5 135t142.5 51q51 0 120 -43t112 -43q76 0 102 82q41 0 78 -18q-12 -85 -68.5 -150t-150.5 -65q-48 0 -122.5 45 t-109.5 45q-37 0 -69 -26t-45 -60q-19 0 -39 14t-29 33z" />
<glyph unicode="&#xe4;" horiz-adv-x="1069" d="M37 332q0 130 35 251t100 212q147 202 381 202q174 0 305 -92l-98 -751q0 -18 10 -43l160 14q0 -22 -10.5 -57.5t-22.5 -55.5q-44 -18 -121.5 -32.5t-122.5 -14.5q-39 66 -53 152h-10q-53 -77 -132 -114.5t-157 -37.5q-121 0 -192.5 90.5t-71.5 276.5zM213 354 q0 -126 45.5 -188t126.5 -62q62 0 120 40.5t95 109.5l84 604q-54 31 -133 31t-144 -43t-106 -111q-43 -72 -65.5 -179t-22.5 -202zM260 1266q0 44 30.5 74t74.5 30q45 0 73.5 -28t28.5 -76q0 -51 -29 -82t-73 -31q-105 0 -105 113zM664 1266q0 44 30 74t74 30q45 0 73.5 -28 t28.5 -76q0 -51 -29 -82t-73 -31q-104 0 -104 113z" />
<glyph unicode="&#xe5;" horiz-adv-x="1069" d="M37 332q0 130 35 251t100 212q147 202 381 202q174 0 305 -92l-98 -751q0 -18 10 -43l160 14q0 -22 -10.5 -57.5t-22.5 -55.5q-44 -18 -121.5 -32.5t-122.5 -14.5q-39 66 -53 152h-10q-53 -77 -132 -114.5t-157 -37.5q-121 0 -192.5 90.5t-71.5 276.5zM213 354 q0 -126 45.5 -188t126.5 -62q62 0 120 40.5t95 109.5l84 604q-54 31 -133 31t-144 -43t-106 -111q-43 -72 -65.5 -179t-22.5 -202zM358 1274q0 110 64.5 177t177.5 67q83 0 135.5 -46.5t52.5 -123.5q0 -113 -66 -177.5t-171 -64.5q-94 0 -143.5 42.5t-49.5 125.5zM471 1290 q0 -46 24 -70t68 -24q55 0 86 37.5t31 105.5q0 41 -24.5 66t-63.5 25q-60 0 -90.5 -37t-30.5 -103z" />
<glyph unicode="&#xe6;" horiz-adv-x="1460" d="M43 205q0 108 57.5 191.5t148 125t195.5 41.5q109 0 177 -35q18 101 18 158q0 86 -39 128t-121 42q-62 0 -148.5 -28.5t-144.5 -65.5q-6 21 -6 57q0 55 19 99q54 30 154 54.5t177 24.5q214 0 246 -155h10q33 62 122 108.5t198 46.5q107 0 169 -60.5t62 -164.5 q0 -53 -13.5 -97.5t-51 -90t-98.5 -78t-162.5 -55t-235.5 -27.5v-62q0 -249 170 -249q68 0 155 27t152 69q0 -63 -24 -113q-150 -131 -352 -131q-102 0 -163 49.5t-75 126.5h-10q-35 -70 -127 -123t-209 -53q-109 0 -179.5 60.5t-70.5 179.5zM215 250q0 -74 43.5 -109 t118.5 -35q69 0 132.5 31.5t100.5 79.5q-6 43 -6 96q0 59 6 121q-63 17 -133 17q-118 0 -190 -55t-72 -146zM786 543q99 3 171.5 18t114 34.5t65.5 49t31.5 56.5t7.5 61q0 56 -27.5 90.5t-83.5 34.5q-62 0 -118.5 -35t-92.5 -94q-51 -84 -68 -215z" />
<glyph unicode="&#xe7;" horiz-adv-x="907" d="M33 338q0 276 141 469q65 87 166.5 138.5t210.5 51.5q137 0 229 -73q0 -132 -53 -248q-27 0 -61 7.5t-52 18.5l15 146q-50 31 -105 31q-68 0 -126 -35t-97 -96q-84 -133 -84 -363q0 -142 46 -206t140 -64q65 0 152.5 28t149.5 62q0 -25 -9 -61.5t-20 -59.5 q-121 -89 -266 -113l-27 -92q43 -13 76 -48t33 -81q0 -85 -84.5 -149t-186.5 -72q-33 33 -47 76q63 11 106.5 47t43.5 86q0 36 -26.5 64.5t-66.5 39.5l62 125q-130 13 -195 109.5t-65 261.5z" />
<glyph unicode="&#xe8;" horiz-adv-x="899" d="M39 313q0 147 37 283t117 231q65 77 156.5 123.5t197.5 46.5q109 0 172 -60.5t63 -164.5q0 -326 -561 -348v-62q0 -249 170 -249q68 0 155 27t152 69q0 -63 -24 -113q-65 -57 -158 -94t-199 -37q-135 0 -206.5 91t-71.5 257zM233 543q98 3 169.5 18t112 34.5t64 49 t30.5 56t7 61.5q0 56 -26 90.5t-80 34.5q-63 0 -119 -35t-90 -94q-51 -84 -68 -215zM264 1425q30 22 86.5 37t104.5 15l184 -324q-20 -14 -62 -28.5t-69 -14.5z" />
<glyph unicode="&#xe9;" horiz-adv-x="899" d="M39 313q0 147 37 283t117 231q65 77 156.5 123.5t197.5 46.5q109 0 172 -60.5t63 -164.5q0 -326 -561 -348v-62q0 -249 170 -249q68 0 155 27t152 69q0 -63 -24 -113q-65 -57 -158 -94t-199 -37q-135 0 -206.5 91t-71.5 257zM233 543q98 3 169.5 18t112 34.5t64 49 t30.5 56t7 61.5q0 56 -26 90.5t-80 34.5q-63 0 -119 -35t-90 -94q-51 -84 -68 -215zM401 1178l256 319q38 -6 87.5 -29.5t72.5 -46.5l-334 -340q-22 12 -46 40.5t-36 56.5z" />
<glyph unicode="&#xea;" horiz-adv-x="899" d="M39 313q0 147 37 283t117 231q65 77 156.5 123.5t197.5 46.5q109 0 172 -60.5t63 -164.5q0 -326 -561 -348v-62q0 -249 170 -249q68 0 155 27t152 69q0 -63 -24 -113q-65 -57 -158 -94t-199 -37q-135 0 -206.5 91t-71.5 257zM233 543q98 3 169.5 18t112 34.5t64 49 t30.5 56t7 61.5q0 56 -26 90.5t-80 34.5q-63 0 -119 -35t-90 -94q-51 -84 -68 -215zM244 1200l227 246l164 14l192 -289q-42 -54 -120 -69l-166 203l-244 -222q-17 13 -32.5 49t-20.5 68z" />
<glyph unicode="&#xeb;" horiz-adv-x="899" d="M39 313q0 147 37 283t117 231q65 77 156.5 123.5t197.5 46.5q109 0 172 -60.5t63 -164.5q0 -326 -561 -348v-62q0 -249 170 -249q68 0 155 27t152 69q0 -63 -24 -113q-65 -57 -158 -94t-199 -37q-135 0 -206.5 91t-71.5 257zM221 1266q0 44 30.5 74t74.5 30 q45 0 73.5 -28t28.5 -76q0 -51 -29 -82t-73 -31q-105 0 -105 113zM233 543q98 3 169.5 18t112 34.5t64 49t30.5 56t7 61.5q0 56 -26 90.5t-80 34.5q-63 0 -119 -35t-90 -94q-51 -84 -68 -215zM625 1266q0 44 30 74t74 30q45 0 73.5 -28t28.5 -76q0 -51 -29 -82t-73 -31 q-104 0 -104 113z" />
<glyph unicode="&#xec;" horiz-adv-x="573" d="M35 1425q31 22 86.5 37t103.5 15l185 -324q-20 -14 -62 -28.5t-69 -14.5zM43 834q0 17 12.5 54.5t24.5 49.5q92 47 203 47q52 0 84 -8l-103 -832q0 -14 10 -34l160 16q0 -23 -10.5 -58.5t-22.5 -56.5q-49 -18 -123.5 -32.5t-119.5 -14.5q-29 33 -50.5 79t-21.5 73 l107 733z" />
<glyph unicode="&#xed;" horiz-adv-x="573" d="M43 834q0 17 12.5 54.5t24.5 49.5q92 47 203 47q52 0 84 -8l-103 -832q0 -14 10 -34l160 16q0 -23 -10.5 -58.5t-22.5 -56.5q-49 -18 -123.5 -32.5t-119.5 -14.5q-29 33 -50.5 79t-21.5 73l107 733zM174 1178l256 319q38 -6 87.5 -29.5t72.5 -46.5l-334 -340 q-22 12 -46 40.5t-36 56.5z" />
<glyph unicode="&#xee;" horiz-adv-x="573" d="M20 1200l228 246l164 14l192 -289q-42 -54 -121 -69l-166 203l-243 -222q-17 13 -33 49t-21 68zM43 834q0 17 12.5 54.5t24.5 49.5q92 47 203 47q52 0 84 -8l-103 -832q0 -14 10 -34l160 16q0 -23 -10.5 -58.5t-22.5 -56.5q-49 -18 -123.5 -32.5t-119.5 -14.5 q-29 33 -50.5 79t-21.5 73l107 733z" />
<glyph unicode="&#xef;" horiz-adv-x="573" d="M20 1266q0 45 30 74.5t75 29.5q46 0 74 -27.5t28 -76.5q0 -52 -28.5 -82.5t-73.5 -30.5q-105 0 -105 113zM43 834q0 17 12.5 54.5t24.5 49.5q92 47 203 47q52 0 84 -8l-103 -832q0 -14 10 -34l160 16q0 -23 -10.5 -58.5t-22.5 -56.5q-49 -18 -123.5 -32.5t-119.5 -14.5 q-29 33 -50.5 79t-21.5 73l107 733zM375 1266q0 45 29.5 74.5t74.5 29.5q47 0 75 -27.5t28 -76.5q0 -52 -29 -82.5t-74 -30.5q-104 0 -104 113z" />
<glyph unicode="&#xf0;" horiz-adv-x="1048" d="M35 377q0 114 32.5 218.5t90.5 184.5t146 128t192 48q88 0 149 -31t84 -73h14q-40 216 -141 326l-242 -136q-20 48 -20 115l170 98q-109 71 -293 109q9 30 30.5 64t43.5 53q234 -48 371 -148l215 123q14 -15 31.5 -45.5t23.5 -50.5l-184 -105q165 -182 165 -518 q0 -118 -17 -226.5t-56.5 -209.5t-98 -174.5t-147.5 -117.5t-199 -44q-169 0 -264.5 107t-95.5 305zM207 399q0 -149 54.5 -229t154.5 -80q73 0 131.5 40.5t94.5 104.5t60 151t33.5 173t9.5 176q-93 90 -221 90q-103 0 -176 -58.5t-107 -153t-34 -214.5z" />
<glyph unicode="&#xf1;" horiz-adv-x="1116" d="M45 834q0 17 12.5 54.5t24.5 49.5q31 20 83.5 33.5t104.5 13.5q43 0 70 -8l-18 -166h20q102 186 315 186q238 0 238 -254q0 -55 -15.5 -178t-37 -262t-23.5 -158q0 -19 10 -34l158 16q0 -23 -10.5 -58.5t-22.5 -56.5q-49 -19 -122.5 -33t-118.5 -14q-29 33 -50.5 79 t-21.5 73q80 444 80 569q0 176 -139 176q-78 0 -147.5 -57t-102.5 -127l-76 -674q-50 -8 -98 -8q-52 0 -76 8l113 846zM262 1188q24 84 78.5 135t142.5 51q51 0 120 -43t112 -43q76 0 102 82q41 0 78 -18q-12 -85 -68.5 -150t-150.5 -65q-48 0 -122.5 45t-109.5 45 q-37 0 -69 -26t-45 -60q-19 0 -39 14t-29 33z" />
<glyph unicode="&#xf2;" horiz-adv-x="999" d="M39 358q0 248 102 414q66 105 166 165t219 60q158 0 248 -100t90 -283q0 -281 -127 -462q-62 -88 -156 -137.5t-204 -49.5q-165 0 -251.5 100t-86.5 293zM217 377q0 -136 46 -213.5t134 -77.5q131 0 211 141q80 140 80 369q0 128 -46 205.5t-132 77.5q-74 0 -133.5 -44.5 t-97.5 -119.5q-62 -124 -62 -338zM317 1425q30 22 86.5 37t104.5 15l184 -324q-20 -14 -62 -28.5t-69 -14.5z" />
<glyph unicode="&#xf3;" horiz-adv-x="999" d="M39 358q0 248 102 414q66 105 166 165t219 60q158 0 248 -100t90 -283q0 -281 -127 -462q-62 -88 -156 -137.5t-204 -49.5q-165 0 -251.5 100t-86.5 293zM217 377q0 -136 46 -213.5t134 -77.5q131 0 211 141q80 140 80 369q0 128 -46 205.5t-132 77.5q-74 0 -133.5 -44.5 t-97.5 -119.5q-62 -124 -62 -338zM403 1178l256 319q38 -6 87.5 -29.5t72.5 -46.5l-334 -340q-22 12 -46 40.5t-36 56.5z" />
<glyph unicode="&#xf4;" horiz-adv-x="999" d="M39 358q0 248 102 414q66 105 166 165t219 60q158 0 248 -100t90 -283q0 -281 -127 -462q-62 -88 -156 -137.5t-204 -49.5q-165 0 -251.5 100t-86.5 293zM217 377q0 -136 46 -213.5t134 -77.5q131 0 211 141q80 140 80 369q0 128 -46 205.5t-132 77.5q-74 0 -133.5 -44.5 t-97.5 -119.5q-62 -124 -62 -338zM248 1200l227 246l164 14l192 -289q-42 -54 -120 -69l-166 203l-244 -222q-17 13 -32.5 49t-20.5 68z" />
<glyph unicode="&#xf5;" horiz-adv-x="999" d="M39 358q0 248 102 414q66 105 166 165t219 60q158 0 248 -100t90 -283q0 -281 -127 -462q-62 -88 -156 -137.5t-204 -49.5q-165 0 -251.5 100t-86.5 293zM217 377q0 -136 46 -213.5t134 -77.5q131 0 211 141q80 140 80 369q0 128 -46 205.5t-132 77.5q-74 0 -133.5 -44.5 t-97.5 -119.5q-62 -124 -62 -338zM221 1188q24 84 78.5 135t142.5 51q42 0 81.5 -21.5t77 -43t73.5 -21.5q76 0 102 82q40 0 78 -18q-12 -85 -68.5 -150t-150.5 -65q-48 0 -122.5 45t-109.5 45q-37 0 -69 -26t-45 -60q-19 0 -39 14t-29 33z" />
<glyph unicode="&#xf6;" horiz-adv-x="999" d="M39 358q0 248 102 414q66 105 166 165t219 60q158 0 248 -100t90 -283q0 -281 -127 -462q-62 -88 -156 -137.5t-204 -49.5q-165 0 -251.5 100t-86.5 293zM217 377q0 -136 46 -213.5t134 -77.5q131 0 211 141q80 140 80 369q0 128 -46 205.5t-132 77.5q-74 0 -133.5 -44.5 t-97.5 -119.5q-62 -124 -62 -338zM238 1266q0 44 30 74t74 30q45 0 73.5 -28t28.5 -76q0 -51 -29 -82t-73 -31q-104 0 -104 113zM641 1266q0 44 30 74t74 30q45 0 74 -28t29 -76q0 -51 -29.5 -82t-73.5 -31q-104 0 -104 113z" />
<glyph unicode="&#xf7;" d="M106 483q0 59 27 138h877q7 -65 -9 -138h-895zM412 145q0 47 32 79t78 32q48 0 78.5 -30t30.5 -81q0 -54 -31 -86t-78 -32q-110 0 -110 118zM485 965q0 47 32.5 78.5t78.5 31.5q48 0 78.5 -29.5t30.5 -80.5q0 -54 -31 -86.5t-78 -32.5q-111 0 -111 119z" />
<glyph unicode="&#xf8;" horiz-adv-x="1056" d="M-18 -18l131 153q-41 90 -41 223q0 249 104 414q66 105 166.5 165t222.5 60q142 0 228 -77l120 139q20 -10 47 -32t37 -38l-137 -160q45 -92 45 -215q0 -281 -127 -462q-64 -89 -158.5 -138t-207.5 -49q-145 0 -234 80l-141 -166q-15 15 -32 46.5t-23 56.5zM248 377 q0 -47 6 -90l434 508q-49 84 -139 84q-76 0 -137 -44t-101 -120q-63 -126 -63 -338zM289 174q48 -88 143 -88q133 0 217 141q82 143 82 369q0 46 -6 86z" />
<glyph unicode="&#xf9;" horiz-adv-x="1134" d="M49 834q0 17 12.5 54.5t24.5 49.5q92 47 203 47q52 0 84 -8q-25 -189 -50.5 -415.5t-25.5 -282.5q0 -175 143 -175q73 0 140 43t106 111l78 592l-141 -16q0 18 12 56t24 50q85 45 195 45q50 0 82 -8l-94 -825q0 -4 3.5 -19.5t6.5 -19.5l154 14q0 -23 -10.5 -58.5 t-22.5 -56.5q-46 -17 -121.5 -32t-120.5 -15q-40 66 -51 158h-10q-103 -158 -318 -158q-37 0 -69.5 7t-63.5 25t-53 45.5t-35.5 71.5t-13.5 101q0 88 28.5 289t53.5 346zM338 1425q31 22 86.5 37t103.5 15l185 -324q-20 -14 -62 -28.5t-69 -14.5z" />
<glyph unicode="&#xfa;" horiz-adv-x="1134" d="M49 834q0 17 12.5 54.5t24.5 49.5q92 47 203 47q52 0 84 -8q-25 -189 -50.5 -415.5t-25.5 -282.5q0 -175 143 -175q73 0 140 43t106 111l78 592l-141 -16q0 18 12 56t24 50q85 45 195 45q50 0 82 -8l-94 -825q0 -4 3.5 -19.5t6.5 -19.5l154 14q0 -23 -10.5 -58.5 t-22.5 -56.5q-46 -17 -121.5 -32t-120.5 -15q-40 66 -51 158h-10q-103 -158 -318 -158q-37 0 -69.5 7t-63.5 25t-53 45.5t-35.5 71.5t-13.5 101q0 88 28.5 289t53.5 346zM440 1178l256 319q38 -6 87.5 -29.5t72.5 -46.5l-334 -340q-22 12 -46 40.5t-36 56.5z" />
<glyph unicode="&#xfb;" horiz-adv-x="1134" d="M49 834q0 17 12.5 54.5t24.5 49.5q92 47 203 47q52 0 84 -8q-25 -189 -50.5 -415.5t-25.5 -282.5q0 -175 143 -175q73 0 140 43t106 111l78 592l-141 -16q0 18 12 56t24 50q85 45 195 45q50 0 82 -8l-94 -825q0 -4 3.5 -19.5t6.5 -19.5l154 14q0 -23 -10.5 -58.5 t-22.5 -56.5q-46 -17 -121.5 -32t-120.5 -15q-40 66 -51 158h-10q-103 -158 -318 -158q-37 0 -69.5 7t-63.5 25t-53 45.5t-35.5 71.5t-13.5 101q0 88 28.5 289t53.5 346zM307 1200l228 246l163 14l193 -289q-42 -54 -121 -69l-166 203l-244 -222q-17 13 -32.5 49t-20.5 68z " />
<glyph unicode="&#xfc;" horiz-adv-x="1134" d="M49 834q0 17 12.5 54.5t24.5 49.5q92 47 203 47q52 0 84 -8q-25 -189 -50.5 -415.5t-25.5 -282.5q0 -175 143 -175q73 0 140 43t106 111l78 592l-141 -16q0 18 12 56t24 50q85 45 195 45q50 0 82 -8l-94 -825q0 -4 3.5 -19.5t6.5 -19.5l154 14q0 -23 -10.5 -58.5 t-22.5 -56.5q-46 -17 -121.5 -32t-120.5 -15q-40 66 -51 158h-10q-103 -158 -318 -158q-37 0 -69.5 7t-63.5 25t-53 45.5t-35.5 71.5t-13.5 101q0 88 28.5 289t53.5 346zM276 1266q0 44 30.5 74t74.5 30q45 0 73.5 -28t28.5 -76q0 -51 -29 -82t-73 -31q-105 0 -105 113z M680 1266q0 44 30 74t74 30q45 0 74 -28t29 -76q0 -51 -29.5 -82t-73.5 -31q-104 0 -104 113z" />
<glyph unicode="&#xfd;" horiz-adv-x="976" d="M-37 -324q255 79 373 283l-211 895l-145 -14q0 17 10.5 53.5t21.5 48.5q28 19 83.5 31t111.5 12q41 0 74 -10l129 -590q19 -93 28 -250h15q190 362 290 690q0 19 -8 35l-164 -14q2 25 14.5 58.5t30.5 51.5q34 16 112.5 28.5t119.5 12.5q25 -25 45 -69t20 -66 q-93 -250 -245 -551t-252 -442q-93 -131 -191.5 -214t-216.5 -134q-18 29 -31.5 73.5t-13.5 81.5zM391 1178l256 319q38 -6 87.5 -29.5t72.5 -46.5l-334 -340q-22 12 -46 40.5t-36 56.5z" />
<glyph unicode="&#xfe;" horiz-adv-x="1097" d="M43 -459l219 1811l-147 -17q0 17 12.5 55t24.5 50q92 47 200 47q52 0 84 -8l-30 -297q-24 -229 -60 -359h21q51 81 119 127.5t180 46.5q57 0 105.5 -19t89.5 -59.5t64 -112t23 -167.5q0 -155 -42 -291t-120 -227q-66 -75 -157 -115.5t-193 -40.5q-47 0 -95.5 11t-74.5 30 l-49 -465q-50 -8 -98 -8q-52 0 -76 8zM276 117q74 -29 154 -29q152 0 236 100q104 123 104 402q0 268 -186 268q-67 0 -135.5 -50.5t-102.5 -115.5z" />
<glyph unicode="&#xff;" horiz-adv-x="976" d="M-37 -324q255 79 373 283l-211 895l-145 -14q0 17 10.5 53.5t21.5 48.5q28 19 83.5 31t111.5 12q41 0 74 -10l129 -590q19 -93 28 -250h15q190 362 290 690q0 19 -8 35l-164 -14q2 25 14.5 58.5t30.5 51.5q34 16 112.5 28.5t119.5 12.5q25 -25 45 -69t20 -66 q-93 -250 -245 -551t-252 -442q-93 -131 -191.5 -214t-216.5 -134q-18 29 -31.5 73.5t-13.5 81.5zM209 1266q0 44 30 74t74 30q45 0 74 -28t29 -76q0 -51 -29.5 -82t-73.5 -31q-104 0 -104 113zM612 1266q0 44 30.5 74t74.5 30q45 0 73.5 -28t28.5 -76q0 -51 -29 -82 t-73 -31q-105 0 -105 113z" />
<glyph unicode="&#x100;" horiz-adv-x="1458" d="M-6 0q10 56 39 109q41 14 102 22l633 1319h117l364 -1315q63 -4 119 -18q12 -54 12 -117h-491q10 61 33 111q55 14 151 24q-40 69 -63 168l-39 156h-516l-76 -174q-37 -88 -82 -158q80 -4 154 -18q4 -15 9 -53t5 -56h-471zM492 1602q0 67 26 147h627q7 -73 -8 -147h-645z M500 575h446l-123 469q-28 114 -28 195h-15q-18 -74 -75 -199z" />
<glyph unicode="&#x101;" horiz-adv-x="1069" d="M37 332q0 130 35 251t100 212q147 202 381 202q174 0 305 -92l-98 -751q0 -18 10 -43l160 14q0 -22 -10.5 -57.5t-22.5 -55.5q-44 -18 -121.5 -32.5t-122.5 -14.5q-39 66 -53 152h-10q-53 -77 -132 -114.5t-157 -37.5q-121 0 -192.5 90.5t-71.5 276.5zM213 354 q0 -126 45.5 -188t126.5 -62q62 0 120 40.5t95 109.5l84 604q-54 31 -133 31t-144 -43t-106 -111q-43 -72 -65.5 -179t-22.5 -202zM309 1186q0 64 25 133h487q7 -67 -8 -133h-504z" />
<glyph unicode="&#x102;" horiz-adv-x="1458" d="M-6 0q10 56 39 109q41 14 102 22l633 1319h117l364 -1315q63 -4 119 -18q12 -54 12 -117h-491q10 61 33 111q55 14 151 24q-40 69 -63 168l-39 156h-516l-76 -174q-37 -88 -82 -158q80 -4 154 -18q4 -15 9 -53t5 -56h-471zM487 1757q22 22 59 39.5t72 20.5 q32 -127 199 -127q85 0 142.5 32.5t80.5 94.5q32 0 70 -11t59 -28q-33 -114 -128 -179t-234 -65q-140 0 -224 59t-96 164zM500 575h446l-123 469q-28 114 -28 195h-15q-18 -74 -75 -199z" />
<glyph unicode="&#x103;" horiz-adv-x="1069" d="M37 332q0 130 35 251t100 212q147 202 381 202q174 0 305 -92l-98 -751q0 -18 10 -43l160 14q0 -22 -10.5 -57.5t-22.5 -55.5q-44 -18 -121.5 -32.5t-122.5 -14.5q-39 66 -53 152h-10q-53 -77 -132 -114.5t-157 -37.5q-121 0 -192.5 90.5t-71.5 276.5zM213 354 q0 -126 45.5 -188t126.5 -62q62 0 120 40.5t95 109.5l84 604q-54 31 -133 31t-144 -43t-106 -111q-43 -72 -65.5 -179t-22.5 -202zM283 1380q44 44 120 54q9 -189 146 -189q142 0 196 187q67 -4 111 -33q-27 -133 -111.5 -213t-212.5 -80q-122 0 -184 70.5t-65 203.5z" />
<glyph unicode="&#x104;" horiz-adv-x="1458" d="M-6 0q10 56 39 109q41 14 102 22l633 1319h117l364 -1315q63 -4 119 -18q12 -54 12 -117h-170q-109 -57 -162 -119.5t-53 -142.5q0 -56 35.5 -86.5t89.5 -30.5q31 0 49 6q21 -42 21 -100q-51 -19 -119 -19q-98 0 -165.5 53t-67.5 152q0 92 65 171.5t182 105.5v10h-196 q10 61 33 111q55 14 151 24q-40 69 -63 168l-39 156h-516l-76 -174q-37 -88 -82 -158q80 -4 154 -18q4 -15 9 -53t5 -56h-471zM500 575h446l-123 469q-28 114 -28 195h-15q-18 -74 -75 -199z" />
<glyph unicode="&#x105;" horiz-adv-x="1069" d="M37 332q0 130 35 251t100 212q147 202 381 202q174 0 305 -92l-98 -749q0 -18 10 -43l160 14q0 -22 -10.5 -57.5t-22.5 -55.5q-231 -85 -231 -233q0 -50 28.5 -75t71.5 -25q21 0 53 8q7 -13 13 -46t6 -57q-52 -20 -123 -20q-87 0 -146 48t-59 136q0 138 143 217 q-39 67 -53 150h-10q-53 -77 -132 -114.5t-157 -37.5q-121 0 -192.5 90.5t-71.5 276.5zM213 354q0 -126 45.5 -188t126.5 -62q62 0 120 40.5t95 109.5l84 604q-54 31 -133 31t-144 -43t-106 -111q-43 -72 -65.5 -179t-22.5 -202z" />
<glyph unicode="&#x106;" horiz-adv-x="1243" d="M96 575q0 161 37 302.5t103.5 247.5t156.5 182.5t199.5 115.5t228.5 39q217 0 367 -78q-17 -186 -58 -340q-30 0 -72.5 10t-66.5 23l21 209q-95 45 -215 45q-229 0 -366.5 -191t-137.5 -526q0 -246 106 -370.5t293 -124.5q81 0 187.5 21t181.5 50q0 -26 -11.5 -67.5 t-25.5 -63.5q-88 -43 -201.5 -71.5t-216.5 -28.5q-232 0 -371 171.5t-139 444.5zM706 1590.5q-3 42.5 1 70.5l411 207q27 -22 53 -70t37 -90l-491 -184q-8 24 -11 66.5z" />
<glyph unicode="&#x107;" horiz-adv-x="907" d="M33 338q0 276 141 469q65 87 166.5 138.5t210.5 51.5q137 0 229 -73q0 -132 -53 -248q-27 0 -61 7.5t-52 18.5l15 146q-50 31 -105 31q-68 0 -126 -35t-97 -96q-84 -133 -84 -363q0 -142 46 -206t140 -64q65 0 152.5 28t149.5 62q0 -25 -9 -61.5t-20 -59.5 q-65 -48 -156 -83.5t-184 -35.5q-151 0 -227 98t-76 275zM438 1178l256 319q38 -6 87.5 -29.5t72.5 -46.5l-334 -340q-22 12 -46 40.5t-36 56.5z" />
<glyph unicode="&#x108;" horiz-adv-x="1243" d="M96 575q0 161 37 302.5t103.5 247.5t156.5 182.5t199.5 115.5t228.5 39q217 0 367 -78q-17 -186 -58 -340q-30 0 -72.5 10t-66.5 23l21 209q-95 45 -215 45q-229 0 -366.5 -191t-137.5 -526q0 -246 106 -370.5t293 -124.5q81 0 187.5 21t181.5 50q0 -26 -11.5 -67.5 t-25.5 -63.5q-88 -43 -201.5 -71.5t-216.5 -28.5q-232 0 -371 171.5t-139 444.5zM485 1636l250 191h207l229 -205q-11 -26 -34.5 -54.5t-46.5 -41.5l-265 155l-313 -168q-11 22 -19 59.5t-8 63.5z" />
<glyph unicode="&#x109;" horiz-adv-x="907" d="M33 338q0 276 141 469q65 87 166.5 138.5t210.5 51.5q137 0 229 -73q0 -132 -53 -248q-27 0 -61 7.5t-52 18.5l15 146q-50 31 -105 31q-68 0 -126 -35t-97 -96q-84 -133 -84 -363q0 -142 46 -206t140 -64q65 0 152.5 28t149.5 62q0 -25 -9 -61.5t-20 -59.5 q-65 -48 -156 -83.5t-184 -35.5q-151 0 -227 98t-76 275zM258 1200l227 246l164 14l193 -289q-42 -54 -121 -69l-166 203l-244 -222q-17 13 -32.5 49t-20.5 68z" />
<glyph unicode="&#x10a;" horiz-adv-x="1243" d="M96 575q0 161 37 302.5t103.5 247.5t156.5 182.5t199.5 115.5t228.5 39q217 0 367 -78q-17 -186 -58 -340q-30 0 -72.5 10t-66.5 23l21 209q-95 45 -215 45q-229 0 -366.5 -191t-137.5 -526q0 -246 106 -370.5t293 -124.5q81 0 187.5 21t181.5 50q0 -26 -11.5 -67.5 t-25.5 -63.5q-88 -43 -201.5 -71.5t-216.5 -28.5q-232 0 -371 171.5t-139 444.5zM709 1694q0 51 32.5 81.5t83.5 30.5t81 -29t30 -83q0 -56 -31 -87.5t-80 -31.5q-116 0 -116 119z" />
<glyph unicode="&#x10b;" horiz-adv-x="907" d="M33 338q0 276 141 469q65 87 166.5 138.5t210.5 51.5q137 0 229 -73q0 -132 -53 -248q-27 0 -61 7.5t-52 18.5l15 146q-50 31 -105 31q-68 0 -126 -35t-97 -96q-84 -133 -84 -363q0 -142 46 -206t140 -64q65 0 152.5 28t149.5 62q0 -25 -9 -61.5t-20 -59.5 q-65 -48 -156 -83.5t-184 -35.5q-151 0 -227 98t-76 275zM444 1262q0 49 31.5 79.5t79.5 30.5q49 0 78 -28.5t29 -81.5q0 -54 -30 -85.5t-77 -31.5q-111 0 -111 117z" />
<glyph unicode="&#x10c;" horiz-adv-x="1243" d="M96 575q0 161 37 302.5t103.5 247.5t156.5 182.5t199.5 115.5t228.5 39q217 0 367 -78q-17 -186 -58 -340q-30 0 -72.5 10t-66.5 23l21 209q-95 45 -215 45q-229 0 -366.5 -191t-137.5 -526q0 -246 106 -370.5t293 -124.5q81 0 187.5 21t181.5 50q0 -26 -11.5 -67.5 t-25.5 -63.5q-88 -43 -201.5 -71.5t-216.5 -28.5q-232 0 -371 171.5t-139 444.5zM463 1769q57 43 133 56l240 -148l249 144q20 -7 46.5 -30.5t35.5 -41.5l-256 -215h-213z" />
<glyph unicode="&#x10d;" horiz-adv-x="907" d="M33 338q0 276 141 469q65 87 166.5 138.5t210.5 51.5q137 0 229 -73q0 -132 -53 -248q-27 0 -61 7.5t-52 18.5l15 146q-50 31 -105 31q-68 0 -126 -35t-97 -96q-84 -133 -84 -363q0 -142 46 -206t140 -64q65 0 152.5 28t149.5 62q0 -25 -9 -61.5t-20 -59.5 q-65 -48 -156 -83.5t-184 -35.5q-151 0 -227 98t-76 275zM252 1405q19 20 55.5 35.5t67.5 17.5l182 -213l225 215q24 -5 53 -20.5t42 -32.5l-269 -297l-164 -14z" />
<glyph unicode="&#x10e;" horiz-adv-x="1439" d="M27 4q10 60 30 109q66 18 154 26l119 1139q-109 0 -148 6q-2 19 1 61t7 62q276 29 500 29q183 0 323.5 -69.5t223 -212t82.5 -341.5q0 -207 -54.5 -367t-151 -258t-223 -148t-276.5 -50q-232 0 -587 14zM395 127q88 -6 187 -6q546 0 546 674q0 250 -132.5 382t-358.5 132 q-87 0 -137 -9zM397 1769q57 43 133 56l240 -148l250 144q20 -7 46.5 -30.5t35.5 -41.5l-256 -215h-213z" />
<glyph unicode="&#x10f;" horiz-adv-x="1083" d="M37 328q0 130 34 252t99 211q68 97 166 151.5t215 54.5q78 0 164 -39l53 394l-147 -17q0 17 12 55t24 50q92 47 201 47q52 0 84 -8l-164 -1325q0 -18 10 -43l158 14q0 -22 -10.5 -57.5t-22.5 -55.5q-45 -19 -120 -33t-121 -14q-38 75 -51 152h-11q-58 -77 -139.5 -114.5 t-163.5 -37.5q-124 0 -197 88.5t-73 274.5zM213 354q0 -245 180 -245q66 0 126.5 38t101.5 107l77 594q-56 37 -141 37q-80 0 -145.5 -43t-108.5 -111q-46 -69 -68 -174.5t-22 -202.5zM993 1067q58 113 107 262l-70 14q9 27 30 61.5t40 55.5q30 6 69 6q70 0 125 -22 q-27 -92 -96 -222.5t-121 -199.5q-25 6 -49.5 19.5t-34.5 25.5z" />
<glyph unicode="&#x110;" horiz-adv-x="1449" d="M49 4q9 56 31 109q66 18 153 26l54 512h-168q0 59 24 125h156l53 502q-108 0 -147 6q-2 19 1 61t7 62q276 29 500 29q137 0 251 -40.5t198.5 -117.5t131.5 -196t47 -269q0 -166 -35.5 -302.5t-99 -232.5t-152 -161.5t-193 -96t-224.5 -30.5q-233 0 -588 14zM418 127 q88 -6 186 -6q547 0 547 674q0 250 -133 382t-359 132q-87 0 -137 -9l-47 -524h369q8 -47 -6 -125h-373z" />
<glyph unicode="&#x111;" horiz-adv-x="1103" d="M47 328q0 130 34 252t99 211q68 97 166 151.5t215 54.5q78 0 164 -39l25 172h-293q0 53 20 111h285l16 111l-147 -17q0 17 12.5 55t24.5 50q92 47 200 47q52 0 84 -8l-30 -238h151q7 -51 -6 -111h-158l-121 -976q0 -16 11 -43l157 14q0 -22 -10 -57.5t-22 -55.5 q-45 -19 -120.5 -33t-121.5 -14q-38 75 -51 152l-13 -4q-58 -77 -138.5 -114.5t-162.5 -37.5q-124 0 -197 90t-73 277zM223 354q0 -126 47.5 -188t132.5 -62q65 0 126 40t102 110l78 594q-56 37 -142 37q-80 0 -145.5 -43t-108.5 -111q-46 -69 -68 -174.5t-22 -202.5z" />
<glyph unicode="&#x112;" horiz-adv-x="1181" d="M14 0q9 56 31 109q64 17 158 26l119 1155q-92 4 -148 15q-7 57 8 116h924l-31 -301q-58 0 -112 15q-13 93 -13 161h-458l-50 -520h365q11 57 31 111q50 16 118 16l-36 -379q-26 -3 -62 -0.5t-55 8.5q-10 67 -10 121h-359l-47 -524h455q22 110 43 176q54 14 131 14 l-31 -319h-971zM352 1602q0 64 27 147h627q7 -70 -9 -147h-645z" />
<glyph unicode="&#x113;" horiz-adv-x="899" d="M39 313q0 147 37 283t117 231q65 77 156.5 123.5t197.5 46.5q109 0 172 -60.5t63 -164.5q0 -326 -561 -348v-62q0 -249 170 -249q68 0 155 27t152 69q0 -63 -24 -113q-65 -57 -158 -94t-199 -37q-135 0 -206.5 91t-71.5 257zM233 543q98 3 169.5 18t112 34.5t64 49 t30.5 56t7 61.5q0 56 -26 90.5t-80 34.5q-63 0 -119 -35t-90 -94q-51 -84 -68 -215zM264 1186q0 64 25 133h487q7 -67 -8 -133h-504z" />
<glyph unicode="&#x114;" horiz-adv-x="1181" d="M14 0q9 56 31 109q64 17 158 26l119 1155q-92 4 -148 15q-7 57 8 116h924l-31 -301q-58 0 -112 15q-13 93 -13 161h-458l-50 -520h365q11 57 31 111q50 16 118 16l-36 -379q-26 -3 -62 -0.5t-55 8.5q-10 67 -10 121h-359l-47 -524h455q22 110 43 176q54 14 131 14 l-31 -319h-971zM344 1757q22 22 59 39.5t72 20.5q32 -127 199 -127q85 0 142.5 32.5t80.5 94.5q32 0 70 -11t59 -28q-33 -114 -128 -179t-234 -65q-140 0 -224 59t-96 164z" />
<glyph unicode="&#x115;" horiz-adv-x="899" d="M39 313q0 147 37 283t117 231q65 77 156.5 123.5t197.5 46.5q109 0 172 -60.5t63 -164.5q0 -326 -561 -348v-62q0 -249 170 -249q68 0 155 27t152 69q0 -63 -24 -113q-65 -57 -158 -94t-199 -37q-135 0 -206.5 91t-71.5 257zM233 543q98 3 169.5 18t112 34.5t64 49 t30.5 56t7 61.5q0 56 -26 90.5t-80 34.5q-63 0 -119 -35t-90 -94q-51 -84 -68 -215zM242 1380q44 44 120 54q9 -189 146 -189q70 0 120.5 48t76.5 139q66 -4 110 -33q-27 -133 -111 -213t-212 -80q-122 0 -184.5 70.5t-65.5 203.5z" />
<glyph unicode="&#x116;" horiz-adv-x="1181" d="M14 0q9 56 31 109q64 17 158 26l119 1155q-92 4 -148 15q-7 57 8 116h924l-31 -301q-58 0 -112 15q-13 93 -13 161h-458l-50 -520h365q11 57 31 111q50 16 118 16l-36 -379q-26 -3 -62 -0.5t-55 8.5q-10 67 -10 121h-359l-47 -524h455q22 110 43 176q54 14 131 14 l-31 -319h-971zM575 1694q0 50 32.5 81t84.5 31q51 0 81 -29t30 -83q0 -56 -31 -87.5t-80 -31.5q-117 0 -117 119z" />
<glyph unicode="&#x117;" horiz-adv-x="899" d="M39 313q0 147 37 283t117 231q65 77 156.5 123.5t197.5 46.5q109 0 172 -60.5t63 -164.5q0 -326 -561 -348v-62q0 -249 170 -249q68 0 155 27t152 69q0 -63 -24 -113q-65 -57 -158 -94t-199 -37q-135 0 -206.5 91t-71.5 257zM233 543q98 3 169.5 18t112 34.5t64 49 t30.5 56t7 61.5q0 56 -26 90.5t-80 34.5q-63 0 -119 -35t-90 -94q-51 -84 -68 -215zM416 1262q0 49 31 79.5t79 30.5q49 0 78 -28.5t29 -81.5q0 -54 -30 -85.5t-77 -31.5q-110 0 -110 117z" />
<glyph unicode="&#x118;" horiz-adv-x="1181" d="M14 0q9 56 31 109q64 17 158 26l119 1155q-92 4 -148 15q-7 57 8 116h924l-31 -301q-58 0 -112 15q-13 93 -13 161h-458l-50 -520h365q11 57 31 111q50 16 118 16l-36 -379q-26 -3 -62 -0.5t-55 8.5q-10 67 -10 121h-359l-47 -524h455q22 110 43 176q54 14 131 14 l-31 -319h-70q-109 -57 -162 -119.5t-53 -142.5q0 -56 35.5 -86.5t89.5 -30.5q31 0 49 6q21 -42 21 -100q-51 -19 -119 -19q-98 0 -165.5 53t-67.5 152q0 92 65.5 171.5t182.5 105.5v10h-777z" />
<glyph unicode="&#x119;" horiz-adv-x="899" d="M39 313q0 147 37 283t117 231q65 77 156.5 123.5t197.5 46.5q109 0 172 -60.5t63 -164.5q0 -326 -561 -348v-62q0 -249 170 -249q68 0 155 27t152 69q0 -63 -24 -113q-56 -46 -135 -84q-112 -53 -162.5 -105.5t-50.5 -125.5q0 -50 28.5 -75t71.5 -25q21 0 53 8 q7 -13 13 -46t6 -57q-52 -20 -123 -20q-87 0 -146 48t-59 136q0 69 37.5 125t107.5 80v10q-131 0 -203.5 92t-72.5 256zM233 543q98 3 169.5 18t112 34.5t64 49t30.5 56t7 61.5q0 56 -26 90.5t-80 34.5q-63 0 -119 -35t-90 -94q-51 -84 -68 -215z" />
<glyph unicode="&#x11a;" horiz-adv-x="1181" d="M14 0q9 56 31 109q64 17 158 26l119 1155q-92 4 -148 15q-7 57 8 116h924l-31 -301q-58 0 -112 15q-13 93 -13 161h-458l-50 -520h365q11 57 31 111q50 16 118 16l-36 -379q-26 -3 -62 -0.5t-55 8.5q-10 67 -10 121h-359l-47 -524h455q22 110 43 176q54 14 131 14 l-31 -319h-971zM332 1769q57 43 133 56l240 -148l249 144q20 -7 46.5 -30.5t35.5 -41.5l-256 -215h-213z" />
<glyph unicode="&#x11b;" horiz-adv-x="899" d="M39 313q0 147 37 283t117 231q65 77 156.5 123.5t197.5 46.5q109 0 172 -60.5t63 -164.5q0 -326 -561 -348v-62q0 -249 170 -249q68 0 155 27t152 69q0 -63 -24 -113q-65 -57 -158 -94t-199 -37q-135 0 -206.5 91t-71.5 257zM229 1405q19 20 55.5 35.5t67.5 17.5 l183 -213l225 215q24 -5 52.5 -20.5t41.5 -32.5l-268 -297l-164 -14zM233 543q98 3 169.5 18t112 34.5t64 49t30.5 56t7 61.5q0 56 -26 90.5t-80 34.5q-63 0 -119 -35t-90 -94q-51 -84 -68 -215z" />
<glyph unicode="&#x11c;" horiz-adv-x="1431" d="M96 555q0 274 95 479.5t271 316.5t410 111q227 0 381 -106q-6 -72 -23.5 -170t-33.5 -150q-27 0 -71.5 11t-67.5 22l20 201q-108 65 -235 65q-119 0 -220.5 -49.5t-176 -142.5t-116.5 -235t-42 -318q0 -239 115 -364.5t307 -125.5q109 0 254 31l38 426q-147 4 -258 21 q-12 44 -12 120h625q-7 -48 -29 -125q-61 -12 -153 -16l-44 -500q-92 -35 -234 -66.5t-255 -31.5q-265 0 -405 157.5t-140 438.5zM520 1636l250 191h207l229 -205q-11 -25 -35 -54t-47 -42l-264 155l-313 -168q-11 22 -19 59.5t-8 63.5z" />
<glyph unicode="&#x11d;" horiz-adv-x="1040" d="M-8 -313q0 31 6 55q168 -100 315 -100q130 0 197.5 85t91.5 238q17 110 39 176h-20q-56 -84 -138 -125t-164 -41q-124 0 -197 89t-73 274q0 129 35 249t100 210q148 200 383 200q170 0 301 -92l-88 -831q-11 -99 -29.5 -179t-54.5 -154.5t-86.5 -124.5t-127 -80 t-173.5 -30q-157 0 -293 56q-24 53 -24 125zM225 360q0 -124 46.5 -184.5t131.5 -60.5q64 0 125.5 42t100.5 113l71 586q-58 33 -137 33q-78 0 -142.5 -42.5t-107.5 -109.5q-44 -70 -66 -175t-22 -202zM276 1200l228 246l164 14l192 -289q-42 -54 -121 -69l-166 203 l-243 -222q-17 13 -33 49t-21 68z" />
<glyph unicode="&#x11e;" horiz-adv-x="1431" d="M96 555q0 274 95 479.5t271 316.5t410 111q227 0 381 -106q-6 -72 -23.5 -170t-33.5 -150q-27 0 -71.5 11t-67.5 22l20 201q-108 65 -235 65q-119 0 -220.5 -49.5t-176 -142.5t-116.5 -235t-42 -318q0 -239 115 -364.5t307 -125.5q109 0 254 31l38 426q-147 4 -258 21 q-12 44 -12 120h625q-7 -48 -29 -125q-61 -12 -153 -16l-44 -500q-92 -35 -234 -66.5t-255 -31.5q-265 0 -405 157.5t-140 438.5zM512 1757q22 22 59 39.5t72 20.5q32 -127 199 -127q85 0 142.5 32.5t80.5 94.5q32 0 70 -11t59 -28q-33 -114 -128 -179t-235 -65t-223.5 59 t-95.5 164z" />
<glyph unicode="&#x11f;" horiz-adv-x="1040" d="M-8 -313q0 31 6 55q168 -100 315 -100q130 0 197.5 85t91.5 238q17 110 39 176h-20q-56 -84 -138 -125t-164 -41q-124 0 -197 89t-73 274q0 129 35 249t100 210q148 200 383 200q170 0 301 -92l-88 -831q-11 -99 -29.5 -179t-54.5 -154.5t-86.5 -124.5t-127 -80 t-173.5 -30q-157 0 -293 56q-24 53 -24 125zM225 360q0 -124 46.5 -184.5t131.5 -60.5q64 0 125.5 42t100.5 113l71 586q-58 33 -137 33q-78 0 -142.5 -42.5t-107.5 -109.5q-44 -70 -66 -175t-22 -202zM279 1380q44 44 120 54q9 -189 146 -189q142 0 196 187q67 -4 111 -33 q-27 -133 -111.5 -213t-212.5 -80q-122 0 -184 70.5t-65 203.5z" />
<glyph unicode="&#x120;" horiz-adv-x="1431" d="M96 555q0 274 95 479.5t271 316.5t410 111q227 0 381 -106q-6 -72 -23.5 -170t-33.5 -150q-27 0 -71.5 11t-67.5 22l20 201q-108 65 -235 65q-119 0 -220.5 -49.5t-176 -142.5t-116.5 -235t-42 -318q0 -239 115 -364.5t307 -125.5q109 0 254 31l38 426q-147 4 -258 21 q-12 44 -12 120h625q-7 -48 -29 -125q-61 -12 -153 -16l-44 -500q-92 -35 -234 -66.5t-255 -31.5q-265 0 -405 157.5t-140 438.5zM739 1694q0 50 32.5 81t84.5 31q51 0 81 -29t30 -83q0 -56 -31 -87.5t-80 -31.5q-117 0 -117 119z" />
<glyph unicode="&#x121;" horiz-adv-x="1040" d="M-8 -313q0 31 6 55q168 -100 315 -100q130 0 197.5 85t91.5 238q17 110 39 176h-20q-56 -84 -138 -125t-164 -41q-124 0 -197 89t-73 274q0 129 35 249t100 210q148 200 383 200q170 0 301 -92l-88 -831q-11 -99 -29.5 -179t-54.5 -154.5t-86.5 -124.5t-127 -80 t-173.5 -30q-157 0 -293 56q-24 53 -24 125zM225 360q0 -124 46.5 -184.5t131.5 -60.5q64 0 125.5 42t100.5 113l71 586q-58 33 -137 33q-78 0 -142.5 -42.5t-107.5 -109.5q-44 -70 -66 -175t-22 -202zM451 1262q0 49 31 79.5t79 30.5q49 0 78 -28.5t29 -81.5 q0 -54 -30 -85.5t-77 -31.5q-110 0 -110 117z" />
<glyph unicode="&#x122;" horiz-adv-x="1431" d="M96 555q0 274 95 479.5t271 316.5t410 111q227 0 381 -106q-6 -72 -23.5 -170t-33.5 -150q-27 0 -71.5 11t-67.5 22l20 201q-108 65 -235 65q-119 0 -220.5 -49.5t-176 -142.5t-116.5 -235t-42 -318q0 -239 115 -364.5t307 -125.5q109 0 254 31l38 426q-147 4 -258 21 q-12 44 -12 120h625q-7 -48 -29 -125q-61 -12 -153 -16l-44 -500q-92 -35 -234 -66.5t-255 -31.5q-265 0 -405 157.5t-140 438.5zM502 -496q55 100 116 265l-75 16q11 29 33 65t42 56q40 8 74 8q80 0 135 -25q-28 -93 -100.5 -223t-130.5 -207q-24 6 -52.5 20t-41.5 25z" />
<glyph unicode="&#x123;" horiz-adv-x="1040" d="M-8 -313q0 31 6 55q168 -100 315 -100q130 0 197.5 85t91.5 238q17 110 39 176h-20q-56 -84 -138 -125t-164 -41q-124 0 -197 89t-73 274q0 129 35 249t100 210q148 200 383 200q170 0 301 -92l-88 -831q-11 -99 -29.5 -179t-54.5 -154.5t-86.5 -124.5t-127 -80 t-173.5 -30q-157 0 -293 56q-24 53 -24 125zM225 360q0 -124 46.5 -184.5t131.5 -60.5q64 0 125.5 42t100.5 113l71 586q-58 33 -137 33q-78 0 -142.5 -42.5t-107.5 -109.5q-44 -70 -66 -175t-22 -202zM469 1163q31 85 78.5 173.5t93.5 152.5q15 7 52.5 13.5t66.5 6.5 q-75 -154 -107 -260l84 -18q-7 -25 -35.5 -66.5t-52.5 -64.5q-116 14 -180 63z" />
<glyph unicode="&#x124;" horiz-adv-x="1581" d="M20 0q9 56 31 109q64 17 158 26l119 1155q-92 4 -148 15q-7 57 8 116h480q4 -62 -15 -114q-73 -14 -155 -17l-45 -483h682l51 483q-79 4 -146 15q-3 22 0.5 59.5t8.5 56.5h483q4 -64 -14 -114q-77 -14 -162 -17l-105 -1157q116 -8 172 -20q4 -22 2.5 -56.5t-6.5 -56.5 h-530q8 47 29 109q61 17 149 26l51 539h-676l-49 -541q108 -6 160 -20q4 -22 2.5 -56.5t-6.5 -56.5h-529zM535 1636l249 191h207l230 -205q-11 -25 -35 -54t-47 -42l-265 155l-313 -168q-11 22 -18.5 59t-7.5 64z" />
<glyph unicode="&#x125;" horiz-adv-x="1124" d="M20 1642l250 191h203l229 -205q-10 -24 -32.5 -49t-46.5 -39l-265 156l-313 -168q-25 48 -25 114zM80 4l166 1348l-148 -17q0 17 12.5 55t24.5 50q92 47 201 47q52 0 84 -8l-31 -297q-17 -172 -57 -348h20q104 163 310 163q237 0 237 -254q0 -55 -15.5 -178t-37 -262 t-23.5 -158q0 -17 11 -34l157 16q0 -23 -10.5 -58.5t-22.5 -56.5q-49 -19 -122.5 -33t-118.5 -14q-29 33 -50.5 79t-21.5 73q80 444 80 569q0 82 -37 129t-110 47q-82 0 -151.5 -60.5t-96.5 -129.5l-76 -668q-50 -8 -98 -8q-52 0 -76 8z" />
<glyph unicode="&#x126;" horiz-adv-x="1613" d="M37 0q9 56 31 109q64 17 157 26l90 877h-139q0 56 23 112h127l18 166q-90 4 -147 15q-7 57 8 116h479q4 -64 -14 -114q-73 -14 -156 -17l-16 -166h686l18 166q-78 3 -145 15q-7 57 8 116h483q4 -64 -14 -114q-77 -14 -162 -17l-16 -166h141q7 -51 -6 -112h-145l-78 -879 q116 -8 172 -20q4 -22 2.5 -56.5t-6.5 -56.5h-531q8 47 29 109q61 17 149 26l52 539h-676l-49 -541q107 -5 159 -20q4 -22 2.5 -56.5t-6.5 -56.5h-528zM469 807h682l20 205h-684z" />
<glyph unicode="&#x127;" horiz-adv-x="1138" d="M86 1124q0 51 20 109h134l14 119l-148 -17q0 17 12.5 55t24.5 50q92 47 201 47q52 0 84 -8l-27 -246h328q6 -49 -6 -109h-332q-16 -129 -51 -290h20q104 163 310 163q237 0 237 -254q0 -55 -15.5 -178t-37 -262t-23.5 -158q0 -17 11 -34l157 16q0 -23 -10 -59t-22 -56 q-49 -19 -123 -33t-119 -14q-29 33 -50.5 79t-21.5 73q80 444 80 569q0 82 -37 129t-110 47q-82 0 -151.5 -60.5t-96.5 -129.5l-76 -668q-50 -8 -98 -8q-52 0 -76 8l137 1120h-139z" />
<glyph unicode="&#x128;" horiz-adv-x="716" d="M16 0q9 56 31 109q64 17 158 26l119 1155q-92 4 -148 15q-7 57 8 116h486q4 -62 -15 -114q-77 -14 -161 -17l-105 -1157q116 -8 172 -20q4 -22 2.5 -56.5t-6.5 -56.5h-541zM51 1591q23 84 89 138.5t161 54.5q57 0 106.5 -21.5t92 -43t82.5 -21.5q44 0 74 26.5t38 63.5 q50 0 107 -23q-13 -91 -79.5 -158t-172.5 -67q-48 0 -99 22.5t-97.5 45t-84.5 22.5q-46 0 -80 -28.5t-47 -67.5q-23 4 -51 22.5t-39 34.5z" />
<glyph unicode="&#x129;" horiz-adv-x="573" d="M-16 1188q24 84 78.5 135t142.5 51q42 0 81.5 -21.5t76.5 -43t73 -21.5q77 0 103 82q39 0 77 -18q-12 -85 -68.5 -150t-150.5 -65q-48 0 -122 45t-109 45q-37 0 -69.5 -26t-45.5 -60q-19 0 -38.5 14t-28.5 33zM43 834q0 17 12.5 54.5t24.5 49.5q92 47 203 47q52 0 84 -8 l-103 -832q0 -14 10 -34l160 16q0 -23 -10.5 -58.5t-22.5 -56.5q-49 -18 -123.5 -32.5t-119.5 -14.5q-29 33 -50.5 79t-21.5 73l107 733z" />
<glyph unicode="&#x12a;" horiz-adv-x="716" d="M16 0q9 56 31 109q64 17 158 26l119 1155q-92 4 -148 15q-7 57 8 116h486q4 -62 -15 -114q-77 -14 -161 -17l-105 -1157q116 -8 172 -20q4 -22 2.5 -56.5t-6.5 -56.5h-541zM141 1602q0 64 27 147h569q7 -73 -8 -147h-588z" />
<glyph unicode="&#x12b;" horiz-adv-x="573" d="M43 834q0 17 12.5 54.5t24.5 49.5q92 47 203 47q52 0 84 -8l-103 -832q0 -14 10 -34l160 16q0 -23 -10.5 -58.5t-22.5 -56.5q-49 -18 -123.5 -32.5t-119.5 -14.5q-29 33 -50.5 79t-21.5 73l107 733zM66 1186q0 67 24 133h438q7 -67 -8 -133h-454z" />
<glyph unicode="&#x12c;" horiz-adv-x="716" d="M16 0q9 56 31 109q64 17 158 26l119 1155q-92 4 -148 15q-7 57 8 116h486q4 -62 -15 -114q-77 -14 -161 -17l-105 -1157q116 -8 172 -20q4 -22 2.5 -56.5t-6.5 -56.5h-541zM96 1757q22 22 59 39.5t72 20.5q32 -127 199 -127q85 0 142.5 32.5t80.5 94.5q32 0 70 -11 t59 -28q-33 -114 -128 -179t-234 -65q-140 0 -224 59t-96 164z" />
<glyph unicode="&#x12d;" horiz-adv-x="573" d="M18 1380q44 44 121 54q9 -189 146 -189q142 0 196 187q67 -4 111 -33q-27 -133 -111.5 -213t-212.5 -80q-122 0 -184.5 70.5t-65.5 203.5zM43 834q0 17 12.5 54.5t24.5 49.5q92 47 203 47q52 0 84 -8l-103 -832q0 -14 10 -34l160 16q0 -23 -10.5 -58.5t-22.5 -56.5 q-49 -18 -123.5 -32.5t-119.5 -14.5q-29 33 -50.5 79t-21.5 73l107 733z" />
<glyph unicode="&#x12e;" horiz-adv-x="716" d="M16 0q9 56 31 109q64 17 158 26l119 1155q-92 4 -148 15q-7 57 8 116h486q4 -62 -15 -114q-77 -14 -161 -17l-105 -1157q116 -8 172 -20q4 -22 2.5 -56.5t-6.5 -56.5h-90q-109 -57 -162 -119.5t-53 -142.5q0 -56 35.5 -86.5t89.5 -30.5q31 0 49 6q20 -40 20 -100 q-51 -19 -118 -19q-98 0 -166 53t-68 152q0 94 65.5 171.5t182.5 105.5v10h-326z" />
<glyph unicode="&#x12f;" horiz-adv-x="573" d="M20 -250q0 69 36.5 123t105.5 84v10q-30 30 -53 76t-23 74l107 733l-150 -16q0 17 12.5 54.5t24.5 49.5q92 47 203 47q52 0 84 -8l-103 -832q0 -14 10 -34l160 16q0 -23 -10.5 -58.5t-22.5 -56.5q-120 -49 -172.5 -104t-52.5 -127q0 -50 28.5 -75t71.5 -25q22 0 54 8 q7 -13 12.5 -45.5t5.5 -57.5q-52 -20 -123 -20q-87 0 -146 48t-59 136zM213 1335q0 49 32.5 81t80.5 32q50 0 80 -30t30 -83q0 -56 -31 -88.5t-79 -32.5q-113 0 -113 121z" />
<glyph unicode="&#x130;" horiz-adv-x="716" d="M16 0q9 56 31 109q64 17 158 26l119 1155q-92 4 -148 15q-7 57 8 116h486q4 -62 -15 -114q-77 -14 -161 -17l-105 -1157q116 -8 172 -20q4 -22 2.5 -56.5t-6.5 -56.5h-541zM315 1694q0 50 32.5 81t84.5 31q51 0 81 -29t30 -83q0 -56 -31 -87.5t-80 -31.5q-117 0 -117 119 z" />
<glyph unicode="&#x131;" horiz-adv-x="573" d="M43 834q0 17 12.5 54.5t24.5 49.5q92 47 203 47q52 0 84 -8l-103 -832q0 -14 10 -34l160 16q0 -23 -10.5 -58.5t-22.5 -56.5q-49 -18 -123.5 -32.5t-119.5 -14.5q-29 33 -50.5 79t-21.5 73l107 733z" />
<glyph unicode="&#x133;" horiz-adv-x="1136" d="M43 834q0 17 12.5 54.5t24.5 49.5q92 47 203 47q52 0 84 -8l-103 -832q0 -14 10 -34l160 16q0 -23 -10.5 -58.5t-22.5 -56.5q-49 -18 -123.5 -32.5t-119.5 -14.5q-29 33 -50.5 79t-21.5 73l107 733zM213 1335q0 49 32.5 81t80.5 32q50 0 80 -30t30 -83q0 -56 -31 -88.5 t-79 -32.5q-113 0 -113 121zM455 -397q99 100 173 245.5t95 307.5l84 694l-150 -16q0 17 12.5 54.5t24.5 49.5q92 47 203 47q52 0 84 -8l-82 -768q-41 -371 -362 -678q-22 8 -47.5 30t-34.5 42zM809 1335q0 49 32.5 81t80.5 32q50 0 80 -30t30 -83q0 -56 -31 -88.5 t-79 -32.5q-113 0 -113 121z" />
<glyph unicode="&#x134;" horiz-adv-x="694" d="M-145 -266q185 110 285.5 282.5t123.5 415.5l80 858q-95 3 -174 15q-7 57 8 116h516q4 -54 -14 -114q-77 -14 -162 -17l-69 -807q-25 -298 -164 -517.5t-377 -334.5q-13 15 -30 48t-23 55zM115 1636l250 191h206l230 -205q-11 -25 -35 -54t-47 -42l-264 155l-314 -168 q-11 22 -18.5 59t-7.5 64z" />
<glyph unicode="&#x135;" horiz-adv-x="563" d="M-119 -397q99 101 174 246t95 307l83 694l-149 -16q0 17 12.5 54.5t24.5 49.5q92 47 203 47q52 0 84 -8l-82 -768q-40 -370 -363 -678q-22 8 -47.5 30t-34.5 42zM39 1200l227 246l164 14l193 -289q-42 -54 -121 -69l-166 203l-244 -222q-17 13 -32.5 49t-20.5 68z" />
<glyph unicode="&#x136;" horiz-adv-x="1302" d="M29 0q10 60 30 109q65 18 156 26l119 1155q-92 4 -148 15q-3 22 0.5 59.5t8.5 56.5h473q3 -20 -1.5 -55.5t-11.5 -58.5q-74 -14 -151 -17l-47 -508h112l303 387q21 28 57 66.5t56 52.5q-65 3 -129 15q-10 58 -10 118h442q-7 -59 -37 -121q-34 -8 -116 -12l-449 -540 l399 -623l127 8q0 -30 -8 -70t-20 -63q-109 -24 -219 -35l-424 705h-92l-50 -537q94 -7 148 -20q4 -22 2.5 -56.5t-6.5 -56.5h-514zM481 -496q58 105 117 265l-76 16q11 28 33.5 64.5t42.5 56.5q40 8 74 8q80 0 135 -25q-28 -92 -101 -222t-131 -208q-24 6 -52.5 20 t-41.5 25z" />
<glyph unicode="&#x137;" horiz-adv-x="1019" d="M84 4l160 1348l-148 -17q0 17 12.5 55t24.5 50q92 47 199 47q52 0 84 -8l-113 -1035q119 74 239.5 182.5t190.5 196.5q0 16 -6 31l-145 -6q0 25 12.5 61t30.5 54q110 22 229 22q16 -21 34.5 -66t18.5 -65q-43 -78 -145.5 -186t-218.5 -191q58 -118 123 -224.5t106 -152.5 l121 23q1 -23 -6.5 -58.5t-18.5 -56.5q-32 -18 -91 -34t-103 -21q-46 48 -116 175.5t-138 277.5q-65 -42 -127 -70l-35 -332q-50 -8 -98 -8q-52 0 -76 8zM266 -496q47 93 105 252l-72 15q25 65 70 114q34 9 73 9q64 0 121 -23q-29 -90 -96.5 -218.5t-116.5 -193.5 q-45 11 -84 45z" />
<glyph unicode="&#x138;" horiz-adv-x="1073" d="M80 834q0 17 12.5 54.5t24.5 49.5q92 47 198 47q52 0 84 -8l-61 -543q124 76 250.5 188t195.5 201q0 16 -6 31l-145 -6q0 25 12.5 61t30.5 54q110 22 229 22q16 -21 34.5 -66t18.5 -65q-43 -78 -150 -189.5t-224 -195.5q58 -114 124.5 -220t106.5 -149l123 23 q1 -23 -6.5 -58.5t-18.5 -56.5q-35 -19 -91.5 -34.5t-102.5 -20.5q-47 45 -120.5 171t-141.5 271q-53 -34 -129 -71l-33 -320q-50 -8 -98 -8q-52 0 -76 8l104 846z" />
<glyph unicode="&#x139;" horiz-adv-x="1159" d="M25 0q10 60 30 109q72 19 156 26l119 1155q-92 4 -148 15q-7 57 8 116h512q4 -64 -14 -114q-108 -17 -188 -17l-105 -1159h467q13 102 47 205q54 14 131 14l-32 -350h-983zM294 1590.5q-3 42.5 1 70.5l412 207q27 -22 53 -70t37 -90l-492 -184q-8 24 -11 66.5z" />
<glyph unicode="&#x13a;" horiz-adv-x="581" d="M90 117l162 1235l-148 -17q0 17 12.5 55t24.5 50q92 47 201 47q52 0 84 -8l-158 -1334q0 -12 11 -34l159 16q0 -23 -10 -59t-22 -56q-49 -18 -124 -32.5t-120 -14.5q-29 33 -50.5 79t-21.5 73zM215 1673l412 207q28 -24 54 -64t36 -79l-492 -185q-20 61 -10 121z" />
<glyph unicode="&#x13b;" horiz-adv-x="1159" d="M25 0q10 60 30 109q72 19 156 26l119 1155q-92 4 -148 15q-7 57 8 116h512q4 -64 -14 -114q-108 -17 -188 -17l-105 -1159h467q13 102 47 205q54 14 131 14l-32 -350h-983zM399 -496q58 105 117 265l-76 16q11 28 33.5 64.5t42.5 56.5q40 8 74 8q80 0 135 -25 q-28 -93 -100.5 -223t-130.5 -207q-60 15 -95 45z" />
<glyph unicode="&#x13c;" horiz-adv-x="581" d="M4 -496q47 93 105 252l-72 15q25 67 69 114q34 9 74 9q64 0 121 -23q-29 -90 -96.5 -218.5t-116.5 -193.5q-45 11 -84 45zM90 117l162 1235l-148 -17q0 17 12.5 55t24.5 50q92 47 201 47q52 0 84 -8l-158 -1334q0 -12 11 -34l159 16q0 -23 -10 -59t-22 -56 q-49 -18 -124 -32.5t-120 -14.5q-29 33 -50.5 79t-21.5 73z" />
<glyph unicode="&#x13d;" horiz-adv-x="1159" d="M25 0q10 60 30 109q72 19 156 26l119 1155q-92 4 -148 15q-7 57 8 116h512q4 -64 -14 -114q-108 -17 -188 -17l-105 -1159h467q13 102 47 205q54 14 131 14l-32 -350h-983zM750 993q83 179 120 289l-71 16q9 28 31 64.5t42 56.5q31 8 78 8q78 0 131 -24 q-30 -99 -105.5 -239t-133.5 -216q-26 6 -54.5 20t-37.5 25z" />
<glyph unicode="&#x13e;" horiz-adv-x="581" d="M90 117l162 1235l-148 -17q0 17 12.5 55t24.5 50q92 47 201 47q52 0 84 -8l-158 -1334q0 -12 11 -34l159 16q0 -23 -10 -59t-22 -56q-49 -18 -124 -32.5t-120 -14.5q-29 33 -50.5 79t-21.5 73zM473 1067q58 113 107 262l-70 14q9 27 30 61.5t40 55.5q30 6 69 6 q70 0 125 -22q-27 -92 -96 -222.5t-121 -199.5q-25 6 -49.5 19.5t-34.5 25.5z" />
<glyph unicode="&#x13f;" horiz-adv-x="1292" d="M25 0q10 60 30 109q72 19 156 26l119 1155q-92 4 -148 15q-7 57 8 116h512q4 -64 -14 -114q-108 -17 -188 -17l-105 -1159h467q13 102 47 205q54 14 131 14l-32 -350h-983zM967 727q0 51 32.5 82t83.5 31t81 -29.5t30 -83.5q0 -56 -31 -87.5t-80 -31.5q-116 0 -116 119z " />
<glyph unicode="&#x140;" horiz-adv-x="743" d="M90 117l162 1235l-148 -17q0 17 12.5 55t24.5 50q92 47 201 47q52 0 84 -8l-158 -1334q0 -12 11 -34l159 16q0 -23 -10 -59t-22 -56q-49 -18 -124 -32.5t-120 -14.5q-29 33 -50.5 79t-21.5 73zM510 702q0 49 31.5 80t79.5 31t77 -29t29 -82q0 -54 -29.5 -85t-76.5 -31 q-111 0 -111 116z" />
<glyph unicode="&#x141;" horiz-adv-x="1187" d="M47 0q9 56 31 109q73 19 155 26l41 397l-168 -104q-18 56 -18 139l203 123l61 600q-90 4 -147 15q-7 57 8 116h512q4 -64 -14 -114q-108 -17 -189 -17l-45 -499l346 208q16 -19 35 -50.5t25 -51.5l-420 -260l-45 -506h467q13 102 47 205q54 14 131 14l-33 -350h-983z" />
<glyph unicode="&#x142;" horiz-adv-x="630" d="M6 590l187 112l86 650l-148 -17q0 17 12.5 55t24.5 50q92 47 201 47q52 0 84 -8l-64 -525q-9 -89 -27 -153l164 98q12 -14 28.5 -43.5t20.5 -46.5l-219 -133l-61 -531q0 -14 10 -34l160 16q0 -23 -10.5 -58.5t-22.5 -56.5q-49 -18 -124 -32.5t-120 -14.5q-29 33 -50 79 t-21 73l41 321q14 99 26 137l-161 -98q-17 53 -17 113z" />
<glyph unicode="&#x143;" horiz-adv-x="1495" d="M18 0q8 47 29 109q65 17 152 26l120 1155q-78 3 -145 15q-7 57 8 116h393l435 -1024q41 -93 61 -223h14l113 1116q-85 4 -147 15q-4 68 8 116h430q2 -20 -2.5 -57.5t-11.5 -56.5q-65 -13 -146 -17l-119 -1302h-227l-467 1134q-33 88 -47 144h-14l-103 -1133 q107 -8 162 -20q4 -20 2.5 -56.5t-6.5 -56.5h-492zM738.5 1590q-3.5 42 0.5 71l412 207q27 -22 53 -70t37 -90l-491 -184q-8 24 -11.5 66z" />
<glyph unicode="&#x144;" horiz-adv-x="1116" d="M45 834q0 17 12.5 54.5t24.5 49.5q31 20 83.5 33.5t104.5 13.5q43 0 70 -8l-18 -166h20q102 186 315 186q238 0 238 -254q0 -55 -15.5 -178t-37 -262t-23.5 -158q0 -19 10 -34l158 16q0 -23 -10.5 -58.5t-22.5 -56.5q-49 -19 -122.5 -33t-118.5 -14q-29 33 -50.5 79 t-21.5 73q80 444 80 569q0 176 -139 176q-78 0 -147.5 -57t-102.5 -127l-76 -674q-50 -8 -98 -8q-52 0 -76 8l113 846zM457 1178l256 319q38 -6 87 -29.5t72 -46.5l-333 -340q-22 12 -46 40.5t-36 56.5z" />
<glyph unicode="&#x145;" horiz-adv-x="1495" d="M18 0q8 47 29 109q65 17 152 26l120 1155q-78 3 -145 15q-7 57 8 116h393l435 -1024q41 -93 61 -223h14l113 1116q-85 4 -147 15q-4 68 8 116h430q2 -20 -2.5 -57.5t-11.5 -56.5q-65 -13 -146 -17l-119 -1302h-227l-467 1134q-33 88 -47 144h-14l-103 -1133 q107 -8 162 -20q4 -20 2.5 -56.5t-6.5 -56.5h-492zM504 -496q58 105 117 265l-76 16q11 28 33.5 64.5t42.5 56.5q40 8 73 8q80 0 135 -25q-28 -93 -100.5 -223t-130.5 -207q-24 6 -52.5 20t-41.5 25z" />
<glyph unicode="&#x146;" horiz-adv-x="1116" d="M45 834q0 17 12.5 54.5t24.5 49.5q31 20 83.5 33.5t104.5 13.5q43 0 70 -8l-18 -166h20q102 186 315 186q238 0 238 -254q0 -55 -15.5 -178t-37 -262t-23.5 -158q0 -19 10 -34l158 16q0 -23 -10.5 -58.5t-22.5 -56.5q-49 -19 -122.5 -33t-118.5 -14q-29 33 -50.5 79 t-21.5 73q80 444 80 569q0 176 -139 176q-78 0 -147.5 -57t-102.5 -127l-76 -674q-50 -8 -98 -8q-52 0 -76 8l113 846zM276 -496q47 93 105 252l-72 15q25 65 70 114q35 9 74 9q63 0 120 -23q-29 -90 -96.5 -218.5t-116.5 -193.5q-45 11 -84 45z" />
<glyph unicode="&#x147;" horiz-adv-x="1495" d="M18 0q8 47 29 109q65 17 152 26l120 1155q-78 3 -145 15q-7 57 8 116h393l435 -1024q41 -93 61 -223h14l113 1116q-85 4 -147 15q-4 68 8 116h430q2 -20 -2.5 -57.5t-11.5 -56.5q-65 -13 -146 -17l-119 -1302h-227l-467 1134q-33 88 -47 144h-14l-103 -1133 q107 -8 162 -20q4 -20 2.5 -56.5t-6.5 -56.5h-492zM492 1769q57 43 133 56l239 -148l250 144q20 -7 46.5 -30.5t35.5 -41.5l-256 -215h-213z" />
<glyph unicode="&#x148;" horiz-adv-x="1116" d="M45 834q0 17 12.5 54.5t24.5 49.5q31 20 83.5 33.5t104.5 13.5q43 0 70 -8l-18 -166h20q102 186 315 186q238 0 238 -254q0 -55 -15.5 -178t-37 -262t-23.5 -158q0 -19 10 -34l158 16q0 -23 -10.5 -58.5t-22.5 -56.5q-49 -19 -122.5 -33t-118.5 -14q-29 33 -50.5 79 t-21.5 73q80 444 80 569q0 176 -139 176q-78 0 -147.5 -57t-102.5 -127l-76 -674q-50 -8 -98 -8q-52 0 -76 8l113 846zM289 1405q19 20 55.5 35.5t67.5 17.5l182 -213l225 215q24 -5 52.5 -20.5t41.5 -32.5l-268 -297l-164 -14z" />
<glyph unicode="&#x14a;" horiz-adv-x="1490" d="M18 0q8 47 29 109q65 17 152 26l120 1155q-78 3 -145 15q-7 57 8 116h406l391 -782q36 -70 65.5 -173t34.5 -167h15l100 991q-85 4 -147 15q-4 68 8 116h430q2 -20 -3 -57.5t-12 -56.5q-66 -13 -145 -17l-113 -1157q-39 -383 -348 -639q-45 19 -67 64q86 76 161 193 t97 233l-539 1138q-25 53 -47 144h-14l-103 -1133q107 -8 162 -20q4 -20 2.5 -56.5t-6.5 -56.5h-492z" />
<glyph unicode="&#x14b;" horiz-adv-x="1058" d="M45 834q0 17 12.5 54.5t24.5 49.5q31 20 83.5 33.5t104.5 13.5q43 0 70 -8l-18 -166h20q106 186 320 186q237 0 237 -254q0 -80 -18.5 -224.5t-34.5 -223.5q-86 -416 -365 -680q-21 8 -45.5 30t-34.5 44q83 82 157.5 230.5t105.5 293.5q21 100 41 250t20 223 q0 176 -139 176q-78 0 -148.5 -57t-105.5 -127l-76 -674q-50 -8 -98 -8q-52 0 -76 8l113 846z" />
<glyph unicode="&#x14c;" horiz-adv-x="1462" d="M100 580q0 262 82.5 461.5t238 310t363.5 110.5q249 0 393 -159t144 -449q0 -269 -80.5 -470.5t-235 -313t-364.5 -111.5q-263 0 -402 158.5t-139 462.5zM295 604q0 -236 94.5 -372t265.5 -136q151 0 259 95.5t161 259t53 378.5q0 223 -96 360.5t-260 137.5 q-121 0 -214 -56t-149.5 -155.5t-85 -228.5t-28.5 -283zM416 1602q0 67 26 147h732q7 -70 -9 -147h-749z" />
<glyph unicode="&#x14d;" horiz-adv-x="999" d="M39 358q0 248 102 414q66 105 166 165t219 60q158 0 248 -100t90 -283q0 -281 -127 -462q-62 -88 -156 -137.5t-204 -49.5q-165 0 -251.5 100t-86.5 293zM217 377q0 -136 46 -213.5t134 -77.5q131 0 211 141q80 140 80 369q0 128 -46 205.5t-132 77.5q-74 0 -133.5 -44.5 t-97.5 -119.5q-62 -124 -62 -338zM274 1186q0 64 25 133h487q7 -67 -8 -133h-504z" />
<glyph unicode="&#x14e;" horiz-adv-x="1462" d="M100 580q0 262 82.5 461.5t238 310t363.5 110.5q249 0 393 -159t144 -449q0 -269 -80.5 -470.5t-235 -313t-364.5 -111.5q-263 0 -402 158.5t-139 462.5zM295 604q0 -236 94.5 -372t265.5 -136q151 0 259 95.5t161 259t53 378.5q0 223 -96 360.5t-260 137.5 q-121 0 -214 -56t-149.5 -155.5t-85 -228.5t-28.5 -283zM467 1757q22 22 59 39.5t72 20.5q32 -127 199 -127q85 0 142.5 32.5t80.5 94.5q32 0 70 -11t59 -28q-33 -114 -128 -179t-235 -65t-223.5 59t-95.5 164z" />
<glyph unicode="&#x14f;" horiz-adv-x="999" d="M39 358q0 248 102 414q66 105 166 165t219 60q158 0 248 -100t90 -283q0 -281 -127 -462q-62 -88 -156 -137.5t-204 -49.5q-165 0 -251.5 100t-86.5 293zM217 377q0 -136 46 -213.5t134 -77.5q131 0 211 141q80 140 80 369q0 128 -46 205.5t-132 77.5q-74 0 -133.5 -44.5 t-97.5 -119.5q-62 -124 -62 -338zM264 1380q44 44 121 54q9 -189 145 -189q70 0 120.5 48t76.5 139q67 -4 111 -33q-27 -133 -111.5 -213t-212.5 -80q-122 0 -184.5 70.5t-65.5 203.5z" />
<glyph unicode="&#x150;" horiz-adv-x="1462" d="M100 580q0 262 82.5 461.5t238 310t363.5 110.5q249 0 393 -159t144 -449q0 -269 -80.5 -470.5t-235 -313t-364.5 -111.5q-263 0 -402 158.5t-139 462.5zM295 604q0 -236 94.5 -372t265.5 -136q151 0 259 95.5t161 259t53 378.5q0 223 -96 360.5t-260 137.5 q-121 0 -214 -56t-149.5 -155.5t-85 -228.5t-28.5 -283zM522 1610l266 266q39 -11 81 -38.5t67 -55.5l-354 -277q-17 15 -36.5 48.5t-23.5 56.5zM944 1610l266 266q39 -11 81 -38.5t67 -55.5l-354 -277q-17 15 -36.5 48.5t-23.5 56.5z" />
<glyph unicode="&#x151;" horiz-adv-x="999" d="M39 358q0 248 102 414q66 105 166 165t219 60q158 0 248 -100t90 -283q0 -281 -127 -462q-62 -88 -156 -137.5t-204 -49.5q-165 0 -251.5 100t-86.5 293zM217 377q0 -136 46 -213.5t134 -77.5q131 0 211 141q80 140 80 369q0 128 -46 205.5t-132 77.5q-74 0 -133.5 -44.5 t-97.5 -119.5q-62 -124 -62 -338zM276 1161l216 326q40 -5 89.5 -24t73.5 -40l-295 -350q-23 10 -48 37t-36 51zM623 1161l215 326q40 -5 89.5 -24t73.5 -40l-294 -350q-23 10 -48 36.5t-36 51.5z" />
<glyph unicode="&#x152;" horiz-adv-x="1894" d="M100 600q0 257 88.5 449.5t257 298.5t398.5 106q122 0 215 -35v2h760l-31 -301q-59 0 -113 15q-12 86 -12 161h-446l-52 -520h355q12 63 30 111q50 16 119 16l-37 -379q-26 -3 -61.5 -0.5t-54.5 8.5q-11 74 -11 121h-348l-45 -524h442q22 110 43 176q54 14 132 14 l-31 -319h-785q-102 -35 -237 -35q-289 0 -432.5 157t-143.5 478zM297 625q0 -264 99 -396.5t306 -132.5q132 0 226 41l114 1123q-98 67 -237 67q-126 0 -224 -54.5t-159.5 -150.5t-93 -222t-31.5 -275z" />
<glyph unicode="&#x153;" horiz-adv-x="1511" d="M39 358q0 248 102 414q66 105 166 165t219 60q111 0 184.5 -47.5t100.5 -128.5h10q45 74 140.5 125t205.5 51q108 0 171 -60.5t63 -164.5q0 -53 -13.5 -98t-51.5 -90t-98.5 -77.5t-161.5 -55t-234 -27.5v-62q0 -249 168 -249q68 0 155 27t152 69q0 -61 -25 -113 q-150 -131 -352 -131q-91 0 -149.5 42.5t-79.5 113.5h-11q-49 -70 -133.5 -113t-189.5 -43q-165 0 -251.5 100t-86.5 293zM217 377q0 -136 46 -213.5t134 -77.5q131 0 211 141q80 140 80 369q0 128 -46 205.5t-132 77.5q-74 0 -133.5 -44.5t-97.5 -119.5q-62 -124 -62 -338z M852 543q98 3 169.5 18t112 34.5t64 49t30.5 56t7 61.5q0 56 -26.5 90.5t-80.5 34.5q-62 0 -118 -35t-90 -94q-51 -84 -68 -215z" />
<glyph unicode="&#x154;" horiz-adv-x="1288" d="M25 0q10 60 30 109q72 19 156 26l108 1157q-85 0 -147 6q-7 53 8 125q273 21 486 21q136 0 241.5 -38t170.5 -120t65 -199q0 -163 -96.5 -275.5t-245.5 -158.5q71 -181 150 -344.5t102 -181.5l121 8q0 -30 -8.5 -71t-20.5 -64q-87 -23 -221 -35q-35 26 -114 205.5 t-181 462.5q-115 0 -191 10l-43 -510q102 -6 154 -18q4 -20 2.5 -58.5t-6.5 -56.5h-520zM444 754q68 -6 201 -6q140 0 228 82.5t88 238.5q0 124 -94 186t-251 62q-68 0 -124 -6zM599 1590.5q-3 42.5 1 70.5l412 207q27 -22 53 -70t37 -90l-492 -184q-8 24 -11 66.5z" />
<glyph unicode="&#x155;" horiz-adv-x="751" d="M37 834q0 17 12.5 54.5t24.5 49.5q31 20 83.5 33.5t104.5 13.5q43 0 70 -8l-27 -207h21q32 97 102.5 162t169.5 65q58 0 98 -18q15 -44 15 -92q0 -47 -15 -94q-62 41 -139 41t-141.5 -52t-100.5 -149l-63 -629q-50 -8 -98 -8q-52 0 -76 8l110 846zM371 1178l256 319 q38 -6 87 -29.5t72 -46.5l-333 -340q-22 12 -46 40.5t-36 56.5z" />
<glyph unicode="&#x156;" horiz-adv-x="1288" d="M25 0q10 60 30 109q72 19 156 26l108 1157q-85 0 -147 6q-7 53 8 125q273 21 486 21q136 0 241.5 -38t170.5 -120t65 -199q0 -163 -96.5 -275.5t-245.5 -158.5q71 -181 150 -344.5t102 -181.5l121 8q0 -30 -8.5 -71t-20.5 -64q-87 -23 -221 -35q-35 26 -114 205.5 t-181 462.5q-115 0 -191 10l-43 -510q102 -6 154 -18q4 -20 2.5 -58.5t-6.5 -56.5h-520zM432 -496q58 105 117 265l-76 16q11 28 33.5 64.5t42.5 56.5q40 8 74 8q80 0 135 -25q-28 -92 -101 -222t-131 -208q-24 6 -52.5 20t-41.5 25zM444 754q68 -6 201 -6q140 0 228 82.5 t88 238.5q0 124 -94 186t-251 62q-68 0 -124 -6z" />
<glyph unicode="&#x157;" horiz-adv-x="751" d="M-51 -496q43 86 104 252l-71 15q25 67 69 114q35 9 74 9q63 0 121 -23q-29 -90 -96.5 -218.5t-116.5 -193.5q-45 11 -84 45zM37 834q0 17 12.5 54.5t24.5 49.5q31 20 83.5 33.5t104.5 13.5q43 0 70 -8l-27 -207h21q32 97 102.5 162t169.5 65q58 0 98 -18q15 -44 15 -92 q0 -47 -15 -94q-62 41 -139 41t-141.5 -52t-100.5 -149l-63 -629q-50 -8 -98 -8q-52 0 -76 8l110 846z" />
<glyph unicode="&#x158;" horiz-adv-x="1288" d="M25 0q10 60 30 109q72 19 156 26l108 1157q-85 0 -147 6q-7 53 8 125q273 21 486 21q136 0 241.5 -38t170.5 -120t65 -199q0 -163 -96.5 -275.5t-245.5 -158.5q71 -181 150 -344.5t102 -181.5l121 8q0 -30 -8.5 -71t-20.5 -64q-87 -23 -221 -35q-35 26 -114 205.5 t-181 462.5q-115 0 -191 10l-43 -510q102 -6 154 -18q4 -20 2.5 -58.5t-6.5 -56.5h-520zM354 1769q57 43 133 56l240 -148l250 144q20 -7 46.5 -30.5t35.5 -41.5l-256 -215h-213zM444 754q68 -6 201 -6q140 0 228 82.5t88 238.5q0 124 -94 186t-251 62q-68 0 -124 -6z" />
<glyph unicode="&#x159;" horiz-adv-x="751" d="M37 834q0 17 12.5 54.5t24.5 49.5q31 20 83.5 33.5t104.5 13.5q43 0 70 -8l-27 -207h21q32 97 102.5 162t169.5 65q58 0 98 -18q15 -44 15 -92q0 -47 -15 -94q-62 41 -139 41t-141.5 -52t-100.5 -149l-63 -629q-50 -8 -98 -8q-52 0 -76 8l110 846zM207 1405 q19 20 55.5 35.5t67.5 17.5l182 -213l225 215q24 -5 52.5 -20.5t41.5 -32.5l-268 -297l-164 -14z" />
<glyph unicode="&#x15a;" horiz-adv-x="1126" d="M61 37q13 169 54 344q29 0 77 -7t70 -16l-18 -208q92 -60 239 -60t227.5 71t80.5 201q0 67 -32 119t-83 87t-112.5 67t-123 67.5t-112.5 78t-83 110t-32 153.5q0 194 120.5 306t342.5 112q77 0 175 -17t177 -44q-24 -208 -59 -311q-30 0 -69 8t-62 20l18 178 q-68 41 -176 41q-135 0 -211 -67t-76 -174q0 -68 32.5 -121.5t84 -89t114 -67.5t125 -68t114 -79.5t84 -111.5t32.5 -156q0 -120 -43 -208.5t-119 -138.5t-168 -73.5t-203 -23.5q-219 0 -385 78zM544 1590.5q-3 42.5 1 70.5l411 207q27 -22 53.5 -70t37.5 -90l-492 -184 q-8 24 -11 66.5z" />
<glyph unicode="&#x15b;" horiz-adv-x="841" d="M12 172q15 30 66 52t100 22q4 -89 46 -126.5t126 -37.5q68 0 115 37t47 100q0 41 -21 76t-54 62t-73 53.5t-80.5 55.5t-73.5 62t-54 79.5t-21 101.5q0 127 88 207.5t250 80.5q125 0 236 -51q0 -98 -39 -227q-25 0 -60.5 9.5t-52.5 21.5l10 112q-56 27 -123 27 q-63 0 -104 -32.5t-41 -90.5q0 -41 21 -78t54 -65t73 -55.5t80.5 -57t73.5 -62t54 -77t21 -95.5q0 -103 -54.5 -175t-137 -104t-181.5 -32q-132 0 -211.5 50t-79.5 157zM348 1178l256 319q38 -6 87.5 -29.5t72.5 -46.5l-334 -340q-22 12 -46 40.5t-36 56.5z" />
<glyph unicode="&#x15c;" horiz-adv-x="1126" d="M61 37q13 169 54 344q29 0 77 -7t70 -16l-18 -208q92 -60 239 -60t227.5 71t80.5 201q0 67 -32 119t-83 87t-112.5 67t-123 67.5t-112.5 78t-83 110t-32 153.5q0 194 120.5 306t342.5 112q77 0 175 -17t177 -44q-24 -208 -59 -311q-30 0 -69 8t-62 20l18 178 q-68 41 -176 41q-135 0 -211 -67t-76 -174q0 -68 32.5 -121.5t84 -89t114 -67.5t125 -68t114 -79.5t84 -111.5t32.5 -156q0 -120 -43 -208.5t-119 -138.5t-168 -73.5t-203 -23.5q-219 0 -385 78zM330 1636l250 191h206l230 -205q-11 -25 -35 -54t-47 -42l-264 155l-314 -168 q-11 22 -18.5 59t-7.5 64z" />
<glyph unicode="&#x15d;" horiz-adv-x="841" d="M12 172q15 30 66 52t100 22q4 -89 46 -126.5t126 -37.5q68 0 115 37t47 100q0 41 -21 76t-54 62t-73 53.5t-80.5 55.5t-73.5 62t-54 79.5t-21 101.5q0 127 88 207.5t250 80.5q125 0 236 -51q0 -98 -39 -227q-25 0 -60.5 9.5t-52.5 21.5l10 112q-56 27 -123 27 q-63 0 -104 -32.5t-41 -90.5q0 -41 21 -78t54 -65t73 -55.5t80.5 -57t73.5 -62t54 -77t21 -95.5q0 -103 -54.5 -175t-137 -104t-181.5 -32q-132 0 -211.5 50t-79.5 157zM186 1200l228 246l164 14l192 -289q-42 -54 -121 -69l-166 203l-243 -222q-17 13 -33 49t-21 68z" />
<glyph unicode="&#x15e;" horiz-adv-x="1126" d="M61 37q13 169 54 344q29 0 77 -7t70 -16l-18 -208q92 -60 239 -60t227.5 71t80.5 201q0 67 -32 119t-83 87t-112.5 67t-123 67.5t-112.5 78t-83 110t-32 153.5q0 194 120.5 306t342.5 112q77 0 175 -17t177 -44q-24 -208 -59 -311q-30 0 -69 8t-62 20l18 178 q-68 41 -176 41q-135 0 -211 -67t-76 -174q0 -68 32.5 -121.5t84 -89t114 -67.5t125 -68t114 -79.5t84 -111.5t32.5 -156q0 -106 -33.5 -188t-95 -133t-137.5 -80t-170 -39l-23 -96q57 -9 94 -46.5t37 -92.5q0 -97 -89.5 -168t-199.5 -82q-40 40 -55 90q77 21 117.5 54.5 t40.5 94.5q0 41 -32 69.5t-81 39.5l60 133q-197 6 -351 78z" />
<glyph unicode="&#x15f;" horiz-adv-x="841" d="M12 172q15 30 66 52t100 22q4 -89 46 -126.5t126 -37.5q68 0 115 37t47 100q0 41 -21 76t-54 62t-73 53.5t-80.5 55.5t-73.5 62t-54 79.5t-21 101.5q0 127 88 207.5t250 80.5q125 0 236 -51q0 -98 -39 -227q-25 0 -60.5 9.5t-52.5 21.5l10 112q-56 27 -123 27 q-63 0 -104 -32.5t-41 -90.5q0 -41 21 -78t54 -65t73 -55.5t80.5 -57t73.5 -62t54 -77t21 -95.5q0 -129 -80.5 -206t-206.5 -99l-29 -92q43 -13 76 -48t33 -81q0 -85 -84 -149t-186 -72q-33 33 -47 76q63 11 106 47t43 86q0 36 -26.5 64.5t-65.5 39.5l61 125 q-118 5 -188 55.5t-70 149.5z" />
<glyph unicode="&#x160;" horiz-adv-x="1126" d="M61 37q13 169 54 344q29 0 77 -7t70 -16l-18 -208q92 -60 239 -60t227.5 71t80.5 201q0 67 -32 119t-83 87t-112.5 67t-123 67.5t-112.5 78t-83 110t-32 153.5q0 194 120.5 306t342.5 112q77 0 175 -17t177 -44q-24 -208 -59 -311q-30 0 -69 8t-62 20l18 178 q-68 41 -176 41q-135 0 -211 -67t-76 -174q0 -68 32.5 -121.5t84 -89t114 -67.5t125 -68t114 -79.5t84 -111.5t32.5 -156q0 -120 -43 -208.5t-119 -138.5t-168 -73.5t-203 -23.5q-219 0 -385 78zM311 1769q57 43 133 56l240 -148l250 144q20 -7 46.5 -30.5t35.5 -41.5 l-256 -215h-213z" />
<glyph unicode="&#x161;" horiz-adv-x="841" d="M12 172q15 30 66 52t100 22q4 -89 46 -126.5t126 -37.5q68 0 115 37t47 100q0 41 -21 76t-54 62t-73 53.5t-80.5 55.5t-73.5 62t-54 79.5t-21 101.5q0 127 88 207.5t250 80.5q125 0 236 -51q0 -98 -39 -227q-25 0 -60.5 9.5t-52.5 21.5l10 112q-56 27 -123 27 q-63 0 -104 -32.5t-41 -90.5q0 -41 21 -78t54 -65t73 -55.5t80.5 -57t73.5 -62t54 -77t21 -95.5q0 -103 -54.5 -175t-137 -104t-181.5 -32q-132 0 -211.5 50t-79.5 157zM166 1405q19 20 55.5 35.5t67.5 17.5l182 -213l225 215q24 -5 53 -20.5t42 -32.5l-269 -297l-164 -14z " />
<glyph unicode="&#x162;" horiz-adv-x="1134" d="M55 1110l31 311h1092l-31 -319q-58 0 -119 14q-12 82 -12 180h-314l-96 -1163q117 -8 180 -20q4 -22 2.5 -56.5t-6.5 -56.5h-561q8 48 33 109q66 17 168 26l110 1161h-307q-10 -58 -43 -174q-58 -12 -127 -12zM274 -496q58 105 117 265l-76 16q11 28 33.5 64.5t42.5 56.5 q40 8 74 8q80 0 135 -25q-28 -93 -100.5 -223t-130.5 -207q-60 15 -95 45z" />
<glyph unicode="&#x163;" horiz-adv-x="710" d="M53 844q7 58 39 106q48 23 117 35l59 238q22 14 61 23t70 9l-30 -292h282q7 -54 -6 -119h-295l-57 -582q-8 -84 14.5 -123t83.5 -39q78 0 174 39q0 -58 -26 -108q-117 -66 -238 -66q-188 0 -188 203q0 78 28 284t60 392h-148zM117 -496q43 86 104 252l-71 15 q25 67 69 114q34 9 74 9q64 0 121 -23q-29 -90 -96.5 -218.5t-116.5 -193.5q-45 11 -84 45z" />
<glyph unicode="&#x164;" horiz-adv-x="1134" d="M55 1110l31 311h1092l-31 -319q-58 0 -119 14q-12 82 -12 180h-314l-96 -1163q117 -8 180 -20q4 -22 2.5 -56.5t-6.5 -56.5h-561q8 48 33 109q66 17 168 26l110 1161h-307q-10 -58 -43 -174q-58 -12 -127 -12zM289 1769q57 43 133 56l240 -148l249 144q20 -7 46.5 -30.5 t35.5 -41.5l-256 -215h-213z" />
<glyph unicode="&#x165;" horiz-adv-x="753" d="M53 844q7 58 39 106q48 23 117 35l59 238q22 14 61 23t70 9l-30 -292h282q7 -54 -6 -119h-295l-57 -582q-8 -84 14.5 -123t83.5 -39q78 0 174 39q0 -58 -26 -108q-117 -66 -238 -66q-188 0 -188 203q0 78 28 284t60 392h-148zM633 1067q55 107 106 262l-69 14 q9 27 29.5 61.5t39.5 55.5q30 6 70 6q70 0 125 -22q-27 -92 -96 -222.5t-121 -199.5q-25 6 -49.5 19.5t-34.5 25.5z" />
<glyph unicode="&#x166;" d="M72 1110l30 311h1092l-31 -319q-58 0 -119 14q-12 82 -12 180h-313l-43 -510h248q8 -47 -6 -124h-252l-43 -529q117 -8 180 -20q4 -22 2.5 -56.5t-6.5 -56.5h-561q8 52 32 109q66 17 168 26l49 527h-249q0 58 24 124h238l49 510h-307q-10 -58 -43 -174q-58 -12 -127 -12z " />
<glyph unicode="&#x167;" horiz-adv-x="741" d="M29 453q0 50 20 108h125q18 129 45 283h-147q7 58 39 106q49 23 116 35l60 238q22 14 61 23t70 9l-31 -292h283q7 -54 -6 -119h-295l-29 -283h262q6 -49 -6 -108h-266l-19 -191q-8 -84 14.5 -123t84.5 -39q78 0 174 39q0 -56 -27 -108q-117 -66 -238 -66q-188 0 -188 203 q0 81 27 285h-129z" />
<glyph unicode="&#x168;" horiz-adv-x="1392" d="M82 1421h508q2 -20 -3 -57.5t-12 -56.5q-80 -14 -172 -17l-57 -747q-6 -60 -6 -107q0 -167 76.5 -255.5t226.5 -88.5q114 0 199.5 60.5t130.5 157t57 220.5l74 760q-74 4 -133 15q-3 20 -0.5 59t8.5 57h418q3 -18 -2 -55.5t-13 -58.5q-67 -14 -139 -17l-57 -745 q-10 -132 -50.5 -238t-112 -184.5t-182 -121t-253.5 -42.5q-219 0 -327.5 113t-108.5 331q0 49 8 123l71 762q-71 3 -143 17q-11 55 -6 116zM412 1591q23 84 89 138.5t161 54.5q57 0 106.5 -21.5t91.5 -43t82 -21.5q44 0 74.5 26.5t38.5 63.5q49 0 106 -23 q-13 -91 -79.5 -158t-172.5 -67q-48 0 -98.5 22.5t-97 45t-84.5 22.5q-46 0 -80 -28.5t-47 -67.5q-23 4 -51 22.5t-39 34.5z" />
<glyph unicode="&#x169;" horiz-adv-x="1134" d="M49 834q0 17 12.5 54.5t24.5 49.5q92 47 203 47q52 0 84 -8q-25 -189 -50.5 -415.5t-25.5 -282.5q0 -175 143 -175q73 0 140 43t106 111l78 592l-141 -16q0 18 12 56t24 50q85 45 195 45q50 0 82 -8l-94 -825q0 -4 3.5 -19.5t6.5 -19.5l154 14q0 -23 -10.5 -58.5 t-22.5 -56.5q-46 -17 -121.5 -32t-120.5 -15q-40 66 -51 158h-10q-103 -158 -318 -158q-37 0 -69.5 7t-63.5 25t-53 45.5t-35.5 71.5t-13.5 101q0 88 28.5 289t53.5 346zM270 1188q24 84 79 135t143 51q52 0 120 -43t111 -43q76 0 102 82q41 0 78 -18q-12 -85 -68.5 -150 t-150.5 -65q-48 0 -122 45t-109 45q-37 0 -69.5 -26t-45.5 -60q-19 0 -39 14t-29 33z" />
<glyph unicode="&#x16a;" horiz-adv-x="1392" d="M82 1421h508q2 -20 -3 -57.5t-12 -56.5q-80 -14 -172 -17l-57 -747q-6 -60 -6 -107q0 -167 76.5 -255.5t226.5 -88.5q114 0 199.5 60.5t130.5 157t57 220.5l74 760q-74 4 -133 15q-3 20 -0.5 59t8.5 57h418q3 -18 -2 -55.5t-13 -58.5q-67 -14 -139 -17l-57 -745 q-10 -132 -50.5 -238t-112 -184.5t-182 -121t-253.5 -42.5q-219 0 -327.5 113t-108.5 331q0 49 8 123l71 762q-71 3 -143 17q-11 55 -6 116zM465 1602q0 64 27 147h626q7 -73 -8 -147h-645z" />
<glyph unicode="&#x16b;" horiz-adv-x="1134" d="M49 834q0 17 12.5 54.5t24.5 49.5q92 47 203 47q52 0 84 -8q-25 -189 -50.5 -415.5t-25.5 -282.5q0 -175 143 -175q73 0 140 43t106 111l78 592l-141 -16q0 18 12 56t24 50q85 45 195 45q50 0 82 -8l-94 -825q0 -4 3.5 -19.5t6.5 -19.5l154 14q0 -23 -10.5 -58.5 t-22.5 -56.5q-46 -17 -121.5 -32t-120.5 -15q-40 66 -51 158h-10q-103 -158 -318 -158q-37 0 -69.5 7t-63.5 25t-53 45.5t-35.5 71.5t-13.5 101q0 88 28.5 289t53.5 346zM326 1186q0 67 24 133h488q7 -64 -9 -133h-503z" />
<glyph unicode="&#x16c;" horiz-adv-x="1392" d="M82 1421h508q2 -20 -3 -57.5t-12 -56.5q-80 -14 -172 -17l-57 -747q-6 -60 -6 -107q0 -167 76.5 -255.5t226.5 -88.5q114 0 199.5 60.5t130.5 157t57 220.5l74 760q-74 4 -133 15q-3 20 -0.5 59t8.5 57h418q3 -18 -2 -55.5t-13 -58.5q-67 -14 -139 -17l-57 -745 q-10 -132 -50.5 -238t-112 -184.5t-182 -121t-253.5 -42.5q-219 0 -327.5 113t-108.5 331q0 49 8 123l71 762q-71 3 -143 17q-11 55 -6 116zM455 1757q22 22 59 39.5t72 20.5q32 -127 198 -127q85 0 143 33t81 94q32 0 70 -11t59 -28q-33 -114 -128 -179t-235 -65t-223.5 59 t-95.5 164z" />
<glyph unicode="&#x16d;" horiz-adv-x="1134" d="M49 834q0 17 12.5 54.5t24.5 49.5q92 47 203 47q52 0 84 -8q-25 -189 -50.5 -415.5t-25.5 -282.5q0 -175 143 -175q73 0 140 43t106 111l78 592l-141 -16q0 18 12 56t24 50q85 45 195 45q50 0 82 -8l-94 -825q0 -4 3.5 -19.5t6.5 -19.5l154 14q0 -23 -10.5 -58.5 t-22.5 -56.5q-46 -17 -121.5 -32t-120.5 -15q-40 66 -51 158h-10q-103 -158 -318 -158q-37 0 -69.5 7t-63.5 25t-53 45.5t-35.5 71.5t-13.5 101q0 88 28.5 289t53.5 346zM317 1380q44 44 121 54q9 -189 146 -189q142 0 196 187q67 -4 111 -33q-27 -133 -111.5 -213 t-212.5 -80q-122 0 -184.5 70.5t-65.5 203.5z" />
<glyph unicode="&#x16e;" horiz-adv-x="1392" d="M82 1421h508q2 -20 -3 -57.5t-12 -56.5q-80 -14 -172 -17l-57 -747q-6 -60 -6 -107q0 -167 76.5 -255.5t226.5 -88.5q114 0 199.5 60.5t130.5 157t57 220.5l74 760q-74 4 -133 15q-3 20 -0.5 59t8.5 57h418q3 -18 -2 -55.5t-13 -58.5q-67 -14 -139 -17l-57 -745 q-10 -132 -50.5 -238t-112 -184.5t-182 -121t-253.5 -42.5q-219 0 -327.5 113t-108.5 331q0 49 8 123l71 762q-71 3 -143 17q-11 55 -6 116zM549 1692q0 111 71.5 175t204.5 64q106 0 168 -49t62 -137q0 -116 -74.5 -179t-196.5 -63q-235 0 -235 189zM682 1702q0 -46 28 -71 t81 -25q59 0 91.5 32.5t32.5 94.5q0 96 -102 96q-62 0 -96.5 -32.5t-34.5 -94.5z" />
<glyph unicode="&#x16f;" horiz-adv-x="1134" d="M49 834q0 17 12.5 54.5t24.5 49.5q92 47 203 47q52 0 84 -8q-25 -189 -50.5 -415.5t-25.5 -282.5q0 -175 143 -175q73 0 140 43t106 111l78 592l-141 -16q0 18 12 56t24 50q85 45 195 45q50 0 82 -8l-94 -825q0 -4 3.5 -19.5t6.5 -19.5l154 14q0 -23 -10.5 -58.5 t-22.5 -56.5q-46 -17 -121.5 -32t-120.5 -15q-40 66 -51 158h-10q-103 -158 -318 -158q-37 0 -69.5 7t-63.5 25t-53 45.5t-35.5 71.5t-13.5 101q0 88 28.5 289t53.5 346zM379 1274q0 110 64.5 177t177.5 67q83 0 135.5 -46.5t52.5 -123.5q0 -113 -66.5 -177.5t-171.5 -64.5 q-94 0 -143 42.5t-49 125.5zM492 1290q0 -46 24 -70t68 -24q54 0 85 37.5t31 105.5q0 41 -24.5 66t-63.5 25q-60 0 -90 -37t-30 -103z" />
<glyph unicode="&#x170;" horiz-adv-x="1392" d="M82 1421h508q2 -20 -3 -57.5t-12 -56.5q-80 -14 -172 -17l-57 -747q-6 -60 -6 -107q0 -167 76.5 -255.5t226.5 -88.5q114 0 199.5 60.5t130.5 157t57 220.5l74 760q-74 4 -133 15q-3 20 -0.5 59t8.5 57h418q3 -18 -2 -55.5t-13 -58.5q-67 -14 -139 -17l-57 -745 q-10 -132 -50.5 -238t-112 -184.5t-182 -121t-253.5 -42.5q-219 0 -327.5 113t-108.5 331q0 49 8 123l71 762q-71 3 -143 17q-11 55 -6 116zM504 1610l266 266q39 -11 81 -38.5t67 -55.5l-355 -277q-17 15 -35.5 48.5t-23.5 56.5zM926 1610l266 266q39 -11 80.5 -38.5 t66.5 -55.5l-354 -277q-17 15 -35.5 48.5t-23.5 56.5z" />
<glyph unicode="&#x171;" horiz-adv-x="1134" d="M49 834q0 17 12.5 54.5t24.5 49.5q92 47 203 47q52 0 84 -8q-25 -189 -50.5 -415.5t-25.5 -282.5q0 -175 143 -175q73 0 140 43t106 111l78 592l-141 -16q0 18 12 56t24 50q85 45 195 45q50 0 82 -8l-94 -825q0 -4 3.5 -19.5t6.5 -19.5l154 14q0 -23 -10.5 -58.5 t-22.5 -56.5q-46 -17 -121.5 -32t-120.5 -15q-40 66 -51 158h-10q-103 -158 -318 -158q-37 0 -69.5 7t-63.5 25t-53 45.5t-35.5 71.5t-13.5 101q0 88 28.5 289t53.5 346zM346 1161l215 326q40 -5 90 -24t74 -40l-295 -350q-23 10 -48 37t-36 51zM692 1161l215 326 q40 -5 90 -24t74 -40l-295 -350q-23 10 -48 36.5t-36 51.5z" />
<glyph unicode="&#x172;" horiz-adv-x="1392" d="M82 1421h508q2 -20 -3 -57.5t-12 -56.5q-80 -14 -172 -17l-57 -749q-6 -60 -6 -107q0 -166 77 -254t226 -88q114 0 199.5 60.5t130.5 156.5t57 219l74 762q-74 4 -133 15q-3 20 -0.5 59t8.5 57h418q3 -18 -2 -55.5t-13 -58.5q-67 -14 -139 -17l-57 -747 q-31 -403 -336 -539q-240 -108 -240 -272q0 -53 35.5 -82t89.5 -29q31 0 49 6q21 -42 21 -100q-51 -19 -119 -19q-98 0 -165.5 51.5t-67.5 147.5q0 76 43.5 141.5t126.5 100.5v10h-35q-219 0 -327.5 113t-108.5 329q0 49 8 123l71 764q-71 3 -143 17q-11 55 -6 116z" />
<glyph unicode="&#x173;" horiz-adv-x="1134" d="M43 834q0 17 12.5 54.5t24.5 49.5q92 47 203 47q52 0 84 -8q-25 -189 -50.5 -415.5t-25.5 -282.5q0 -175 143 -175q73 0 140 43t106 111l78 592l-142 -16q0 17 12.5 55.5t24.5 50.5q85 45 195 45q50 0 82 -8l-94 -825q0 -4 3.5 -19.5t6.5 -19.5l153 14q0 -23 -10 -59 t-22 -56q-222 -82 -222 -231q0 -50 29 -75t72 -25q21 0 53 8q7 -13 13 -46t6 -57q-52 -20 -123 -20q-87 0 -146 48t-59 136q0 67 38 124t109 85v10q-23 20 -40.5 64.5t-22.5 89.5h-10q-103 -158 -318 -158q-37 0 -69.5 7t-63.5 25t-53 45.5t-35.5 71.5t-13.5 101 q0 88 28.5 289t53.5 346z" />
<glyph unicode="&#x174;" horiz-adv-x="1959" d="M84 1421h502q-3 -47 -35 -118q-101 -12 -176 -15q28 -78 43 -188l98 -764q10 -75 10 -203h15q16 80 41 158l376 1147h209l127 -1108q11 -107 11 -187h14q10 57 39 152l282 842q29 88 64 151q-73 3 -139 21q-11 57 -11 112h424q-4 -68 -30 -121q-39 -6 -105 -10 l-477 -1317h-201l-123 1137q-6 53 -6 190h-14q-10 -72 -47 -196l-363 -1131h-217l-190 1315q-46 3 -107 19q-14 54 -14 114zM737 1636l250 191h207l229 -205q-11 -25 -35 -54t-47 -42l-264 155l-313 -168q-11 22 -19 59.5t-8 63.5z" />
<glyph unicode="&#x175;" horiz-adv-x="1484" d="M4 838q0 17 11 54.5t22 49.5q28 19 84 31t112 12q39 0 72 -10l49 -635q4 -43 4 -234h15q67 168 150 422.5t134 438.5l215 20l74 -647q8 -76 8 -234h15q177 405 276 719q0 19 -8 35l-137 -10q2 26 15 62t30 53q29 11 93.5 21.5t96.5 10.5q26 -25 48 -69t22 -66 q-151 -415 -401 -913l-181 43l-84 813h-14q-52 -183 -148 -440.5t-171 -415.5l-177 43l-82 860zM487 1200l228 246l164 14l192 -289q-42 -54 -121 -69l-166 203l-243 -222q-17 13 -33 49t-21 68z" />
<glyph unicode="&#x176;" horiz-adv-x="1200" d="M76 1421h481q-3 -56 -29 -114q-62 -11 -166 -15q41 -64 70 -139l127 -330q27 -75 35 -139h14q17 50 66 133l194 332q58 95 101 141q-74 4 -129 17q-13 50 -13 114h402q0 -53 -25 -118q-44 -8 -96 -11l-461 -737l-33 -422q115 -8 177 -20q10 -45 -5 -113h-559q8 48 33 109 q66 17 168 26l43 422l-285 729q-49 4 -100 17q-17 61 -10 118zM346 1636l250 191h207l229 -205q-11 -25 -35 -54t-47 -42l-264 155l-313 -168q-11 22 -19 59.5t-8 63.5z" />
<glyph unicode="&#x177;" horiz-adv-x="976" d="M-37 -324q255 79 373 283l-211 895l-145 -14q0 17 10.5 53.5t21.5 48.5q28 19 83.5 31t111.5 12q41 0 74 -10l129 -590q19 -93 28 -250h15q190 362 290 690q0 19 -8 35l-164 -14q2 25 14.5 58.5t30.5 51.5q34 16 112.5 28.5t119.5 12.5q25 -25 45 -69t20 -66 q-93 -250 -245 -551t-252 -442q-93 -131 -191.5 -214t-216.5 -134q-18 29 -31.5 73.5t-13.5 81.5zM233 1200l228 246l164 14l192 -289q-42 -54 -121 -69l-166 203l-243 -222q-17 13 -33 49t-21 68z" />
<glyph unicode="&#x178;" horiz-adv-x="1200" d="M76 1421h481q-3 -56 -29 -114q-62 -11 -166 -15q41 -64 70 -139l127 -330q27 -75 35 -139h14q17 50 66 133l194 332q58 95 101 141q-74 4 -129 17q-13 50 -13 114h402q0 -53 -25 -118q-44 -8 -96 -11l-461 -737l-33 -422q115 -8 177 -20q10 -45 -5 -113h-559q8 48 33 109 q66 17 168 26l43 422l-285 729q-49 4 -100 17q-17 61 -10 118zM322 1679q0 47 34.5 80t85.5 33q52 0 85.5 -30.5t33.5 -82.5q0 -54 -34 -87t-85 -33q-58 0 -89 30.5t-31 89.5zM795 1679q0 47 34.5 80t85.5 33q52 0 85.5 -30.5t33.5 -82.5q0 -54 -34 -87t-85 -33 q-59 0 -89.5 30.5t-30.5 89.5z" />
<glyph unicode="&#x179;" horiz-adv-x="1144" d="M27 0l14 143l819 1129v14h-528q-13 -82 -51 -188q-83 -15 -138 -15l33 338h889l-14 -145l-791 -1122v-15h563q23 120 49 201q59 18 138 18l-35 -358h-948zM574.5 1590q-3.5 42 0.5 71l412 207q27 -22 53 -70t37 -90l-491 -184q-8 24 -11.5 66z" />
<glyph unicode="&#x17a;" horiz-adv-x="925" d="M8 88l580 746v14h-328q-16 -67 -57 -143q-65 0 -111 18l37 240h674l8 -89l-582 -745v-14q209 0 373 18q15 60 55 143q23 5 58.5 6t58.5 -3l-53 -279h-705zM399 1178l256 319q38 -6 87.5 -29.5t72.5 -46.5l-334 -340q-22 12 -46 40.5t-36 56.5z" />
<glyph unicode="&#x17b;" horiz-adv-x="1144" d="M27 0l14 143l819 1129v14h-528q-13 -82 -51 -188q-83 -15 -138 -15l33 338h889l-14 -145l-791 -1122v-15h563q23 120 49 201q59 18 138 18l-35 -358h-948zM559 1694q0 50 32.5 81t84.5 31q51 0 80.5 -29t29.5 -83q0 -56 -30.5 -87.5t-79.5 -31.5q-117 0 -117 119z" />
<glyph unicode="&#x17c;" horiz-adv-x="921" d="M8 88l580 746v14h-328q-16 -67 -57 -143q-65 0 -111 18l37 240h674l8 -89l-582 -745v-14q209 0 373 18q15 60 55 143q23 5 58.5 6t58.5 -3l-53 -279h-705zM401 1262q0 49 31.5 79.5t79.5 30.5t77 -28.5t29 -81.5q0 -54 -29.5 -85.5t-76.5 -31.5q-111 0 -111 117z" />
<glyph unicode="&#x17d;" horiz-adv-x="1144" d="M27 0l14 143l819 1129v14h-528q-13 -82 -51 -188q-83 -15 -138 -15l33 338h889l-14 -145l-791 -1122v-15h563q23 120 49 201q59 18 138 18l-35 -358h-948zM317 1769q57 43 134 56l239 -148l250 144q20 -7 46.5 -30.5t35.5 -41.5l-256 -215h-213z" />
<glyph unicode="&#x17e;" horiz-adv-x="921" d="M8 88l580 746v14h-328q-16 -67 -57 -143q-65 0 -111 18l37 240h674l8 -89l-582 -745v-14q209 0 373 18q15 60 55 143q23 5 58.5 6t58.5 -3l-53 -279h-705zM219 1405q19 20 55.5 35.5t67.5 17.5l182 -213l226 215q24 -5 52.5 -20.5t41.5 -32.5l-269 -297l-163 -14z" />
<glyph unicode="&#x192;" horiz-adv-x="1294" d="M2 -291q16 127 66 262q59 -8 110 -32l-20 -148q20 -12 57 -12q33 0 64 13.5t62 42t55.5 82t37.5 126.5l70 369h-244q0 55 25 120h241l33 173q24 132 90 225.5t149 135.5t175 42q93 0 178 -35q-28 -151 -72 -244q-21 1 -52 11.5t-46 21.5l23 127q-24 15 -60 15 q-73 0 -135.5 -62.5t-85.5 -204.5l-33 -205h281q10 -54 -6 -120h-295l-54 -334q-17 -105 -60 -185t-101.5 -126.5t-124.5 -69.5t-137 -23q-103 0 -191 35z" />
<glyph unicode="&#x1fa;" horiz-adv-x="1458" d="M-6 0q10 56 39 109q41 14 102 22l627 1307q-172 21 -172 184q0 111 71.5 175.5t204.5 64.5q106 0 168 -49.5t62 -137.5q0 -100 -56 -161t-153 -76l362 -1303q63 -4 119 -18q12 -54 12 -117h-491q10 61 33 111q55 14 151 24q-40 69 -63 168l-39 156h-516l-76 -174 q-37 -88 -82 -158q80 -4 154 -18q4 -15 9 -53t5 -56h-471zM500 575h446l-123 469q-28 114 -28 195h-15q-18 -74 -75 -199zM640 1938.5q-3 42.5 1 70.5l412 207q27 -22 53 -70t37 -90l-492 -184q-8 24 -11 66.5zM723 1632q0 -96 108 -96q59 0 92 32.5t33 94.5q0 96 -102 96 q-62 0 -96.5 -32.5t-34.5 -94.5z" />
<glyph unicode="&#x1fb;" horiz-adv-x="1069" d="M37 332q0 130 35 251t100 212q147 202 381 202q174 0 305 -92l-98 -751q0 -18 10 -43l160 14q0 -22 -10.5 -57.5t-22.5 -55.5q-44 -18 -121.5 -32.5t-122.5 -14.5q-39 66 -53 152h-10q-53 -77 -132 -114.5t-157 -37.5q-121 0 -192.5 90.5t-71.5 276.5zM213 354 q0 -126 45.5 -188t126.5 -62q62 0 120 40.5t95 109.5l84 604q-54 31 -133 31t-144 -43t-106 -111q-43 -72 -65.5 -179t-22.5 -202zM358 1274q0 110 64.5 177t177.5 67q83 0 135.5 -46.5t52.5 -123.5q0 -113 -66 -177.5t-171 -64.5q-94 0 -143.5 42.5t-49.5 125.5zM440 1655 l256 319q38 -6 87.5 -29.5t72.5 -46.5l-334 -339q-22 12 -46 40t-36 56zM471 1290q0 -46 24 -70t68 -24q55 0 86 37.5t31 105.5q0 41 -24.5 66t-63.5 25q-60 0 -90.5 -37t-30.5 -103z" />
<glyph unicode="&#x1fc;" horiz-adv-x="1828" d="M-25 0q10 61 37 109q37 14 97 22l727 1159q-108 4 -172 15q-3 23 -0.5 60t8.5 56h1081l-31 -301q-58 0 -112 15q-13 93 -13 161h-446l-51 -540h354q11 55 31 110q53 17 119 17l-37 -379q-26 -3 -62 -0.5t-55 8.5q-10 67 -10 121h-348l-45 -504h442q22 110 43 176 q54 14 131 14l-31 -319h-944q7 55 29 109q56 17 145 26l33 338h-401l-111 -186q-76 -122 -104 -158q98 -4 143 -14q12 -40 12 -115h-459zM563 590h344l74 706h-14q-33 -91 -88 -182zM955.5 1590q-3.5 42 0.5 71l412 207q27 -22 53 -70t37 -90l-491 -184q-8 24 -11.5 66z" />
<glyph unicode="&#x1fd;" horiz-adv-x="1460" d="M43 205q0 108 57.5 191.5t148 125t195.5 41.5q109 0 177 -35q18 101 18 158q0 86 -39 128t-121 42q-62 0 -148.5 -28.5t-144.5 -65.5q-6 21 -6 57q0 55 19 99q54 30 154 54.5t177 24.5q214 0 246 -155h10q33 62 122 108.5t198 46.5q107 0 169 -60.5t62 -164.5 q0 -53 -13.5 -97.5t-51 -90t-98.5 -78t-162.5 -55t-235.5 -27.5v-62q0 -249 170 -249q68 0 155 27t152 69q0 -63 -24 -113q-150 -131 -352 -131q-102 0 -163 49.5t-75 126.5h-10q-35 -70 -127 -123t-209 -53q-109 0 -179.5 60.5t-70.5 179.5zM215 250q0 -74 43.5 -109 t118.5 -35q69 0 132.5 31.5t100.5 79.5q-6 43 -6 96q0 59 6 121q-63 17 -133 17q-118 0 -190 -55t-72 -146zM680 1178l256 319q38 -6 87.5 -29.5t72.5 -46.5l-334 -340q-22 12 -46 40.5t-36 56.5zM786 543q99 3 171.5 18t114 34.5t65.5 49t31.5 56.5t7.5 61q0 56 -27.5 90.5 t-83.5 34.5q-62 0 -118.5 -35t-92.5 -94q-51 -84 -68 -215z" />
<glyph unicode="&#x1fe;" horiz-adv-x="1517" d="M-6 33l196 200q-65 133 -65 347q0 262 83.5 461.5t242 310t370.5 110.5q250 0 398 -157l188 200q27 -13 58 -39t44 -49l-215 -225q72 -141 72 -338q0 -269 -82 -470.5t-239 -313t-371 -111.5q-268 0 -412 162l-215 -219q-15 19 -32 60t-21 71zM319 604q0 -124 27 -223 l741 788q-102 158 -278 158q-124 0 -219.5 -56t-153.5 -155.5t-87.5 -228.5t-29.5 -283zM397 262q96 -166 291 -166q155 0 266 95.5t165.5 259.5t54.5 378q0 117 -31 215zM691 1590.5q-3 42.5 1 70.5l412 207q27 -22 53 -70t37 -90l-492 -184q-8 24 -11 66.5z" />
<glyph unicode="&#x1ff;" horiz-adv-x="1056" d="M-18 -18l131 153q-41 90 -41 223q0 249 104 414q66 105 166.5 165t222.5 60q142 0 228 -77l120 139q20 -10 47 -32t37 -38l-137 -160q45 -92 45 -215q0 -281 -127 -462q-64 -89 -158.5 -138t-207.5 -49q-145 0 -234 80l-141 -166q-15 15 -32 46.5t-23 56.5zM248 377 q0 -47 6 -90l434 508q-49 84 -139 84q-76 0 -137 -44t-101 -120q-63 -126 -63 -338zM289 174q48 -88 143 -88q133 0 217 141q82 143 82 369q0 46 -6 86zM436 1178l256 319q38 -6 87.5 -29.5t72.5 -46.5l-334 -340q-22 12 -46 40.5t-36 56.5z" />
<glyph unicode="&#x218;" horiz-adv-x="1126" d="M61 37q13 169 54 344q29 0 77 -7t70 -16l-18 -208q92 -60 239 -60t227.5 71t80.5 201q0 67 -32 119t-83 87t-112.5 67t-123 67.5t-112.5 78t-83 110t-32 153.5q0 194 120.5 306t342.5 112q77 0 175 -17t177 -44q-24 -208 -59 -311q-30 0 -69 8t-62 20l18 178 q-68 41 -176 41q-135 0 -211 -67t-76 -174q0 -68 32.5 -121.5t84 -89t114 -67.5t125 -68t114 -79.5t84 -111.5t32.5 -156q0 -120 -43 -208.5t-119 -138.5t-168 -73.5t-203 -23.5q-219 0 -385 78zM326 -496q55 100 116 265l-75 16q11 29 33 65t42 56q40 8 74 8q80 0 135 -25 q-28 -93 -100.5 -223t-130.5 -207q-24 6 -52.5 20t-41.5 25z" />
<glyph unicode="&#x219;" horiz-adv-x="841" d="M12 172q15 30 66 52t100 22q4 -89 46 -126.5t126 -37.5q68 0 115 37t47 100q0 41 -21 76t-54 62t-73 53.5t-80.5 55.5t-73.5 62t-54 79.5t-21 101.5q0 127 88 207.5t250 80.5q125 0 236 -51q0 -98 -39 -227q-25 0 -60.5 9.5t-52.5 21.5l10 112q-56 27 -123 27 q-63 0 -104 -32.5t-41 -90.5q0 -41 21 -78t54 -65t73 -55.5t80.5 -57t73.5 -62t54 -77t21 -95.5q0 -103 -54.5 -175t-137 -104t-181.5 -32q-132 0 -211.5 50t-79.5 157zM184 -496q47 93 105 252l-72 15q25 65 70 114q35 9 73 9q64 0 121 -23q-29 -90 -96.5 -218.5 t-116.5 -193.5q-45 11 -84 45z" />
<glyph unicode="&#x21b;" horiz-adv-x="710" d="M53 844q7 58 39 106q48 23 117 35l59 238q22 14 61 23t70 9l-30 -292h282q7 -54 -6 -119h-295l-57 -582q-8 -84 14.5 -123t83.5 -39q78 0 174 39q0 -58 -26 -108q-117 -66 -238 -66q-188 0 -188 203q0 78 28 284t60 392h-148zM117 -496q43 86 104 252l-71 15 q25 67 69 114q34 9 74 9q64 0 121 -23q-29 -90 -96.5 -218.5t-116.5 -193.5q-45 11 -84 45z" />
<glyph unicode="&#x2c6;" horiz-adv-x="858" d="M135 1200l227 246l164 14l193 -289q-42 -54 -121 -69l-166 203l-244 -222q-17 13 -32.5 49t-20.5 68z" />
<glyph unicode="&#x2c7;" horiz-adv-x="858" d="M154 1405q19 20 55 35.5t67 17.5l183 -213l225 215q24 -5 52.5 -20.5t41.5 -32.5l-268 -297l-164 -14z" />
<glyph unicode="&#x2d8;" horiz-adv-x="858" d="M188 1380q44 44 121 54q9 -189 146 -189q142 0 196 187q67 -4 111 -33q-27 -133 -111.5 -213t-212.5 -80q-122 0 -184.5 70.5t-65.5 203.5z" />
<glyph unicode="&#x2d9;" horiz-adv-x="858" d="M330 1262q0 49 31 79.5t79 30.5q49 0 78 -28.5t29 -81.5q0 -54 -30 -85.5t-77 -31.5q-110 0 -110 117z" />
<glyph unicode="&#x2da;" horiz-adv-x="858" d="M211 1274q0 110 64.5 177t177.5 67q83 0 135.5 -46.5t52.5 -123.5q0 -113 -66.5 -177.5t-171.5 -64.5q-94 0 -143 42.5t-49 125.5zM324 1290q0 -46 24 -70t68 -24q54 0 85 37.5t31 105.5q0 41 -24.5 66t-63.5 25q-60 0 -90 -37t-30 -103z" />
<glyph unicode="&#x2db;" horiz-adv-x="815" d="M170 -250q0 83 58 150t178 108q54 8 143 8q-117 -55 -170 -108t-53 -127q0 -50 28.5 -75t71.5 -25q21 0 53 8q7 -13 13 -46t6 -57q-52 -20 -123 -20q-87 0 -146 48t-59 136z" />
<glyph unicode="&#x2dc;" horiz-adv-x="858" d="M143 1188q24 84 79 135t143 51q42 0 81.5 -21.5t76.5 -43t73 -21.5q76 0 102 82q40 0 78 -18q-12 -85 -68.5 -150t-150.5 -65q-48 0 -122 45t-109 45q-37 0 -69.5 -26t-45.5 -60q-19 0 -39 14t-29 33z" />
<glyph unicode="&#x2dd;" horiz-adv-x="815" d="M109 1161l215 326q40 -5 89.5 -24t73.5 -40l-294 -350q-23 10 -48 37t-36 51zM455 1161l215 326q40 -5 90 -24t74 -40l-295 -350q-23 10 -48 36.5t-36 51.5z" />
<glyph unicode="&#x315;" horiz-adv-x="815" d="M254 1067q55 107 106 262l-69 14q9 27 29.5 61.5t39.5 55.5q30 6 70 6q70 0 125 -22q-27 -92 -96 -222.5t-121 -199.5q-25 6 -49.5 19.5t-34.5 25.5z" />
<glyph unicode="&#x3c0;" horiz-adv-x="1138" d="M1.5 758q5.5 49 18.5 84q122 143 488 143q319 0 557 -14q3 -32 -1 -86.5t-13 -87.5q-24 1 -65.5 4t-76.5 5t-67 3q-23 -124 -41.5 -288.5t-18.5 -262.5q0 -70 13 -101.5t45 -31.5q33 0 73 16q0 -37 -10.5 -83.5t-23.5 -69.5q-48 -23 -109 -23q-145 0 -145 260 q0 110 23.5 282.5t51.5 305.5q-79 6 -182 6q-71 0 -108 -2q-14 -242 -52 -475t-102 -391q-43 6 -91 25t-75 40q68 149 113 363.5t59 427.5q-72 -8 -144.5 -42.5t-115.5 -84.5q-6 29 -0.5 78z" />
<glyph unicode="&#x1e80;" horiz-adv-x="1959" d="M84 1421h502q-3 -47 -35 -118q-101 -12 -176 -15q28 -78 43 -188l98 -764q10 -75 10 -203h15q16 80 41 158l376 1147h209l127 -1108q11 -107 11 -187h14q10 57 39 152l282 842q29 88 64 151q-73 3 -139 21q-11 57 -11 112h424q-4 -68 -30 -121q-39 -6 -105 -10 l-477 -1317h-201l-123 1137q-6 53 -6 190h-14q-10 -72 -47 -196l-363 -1131h-217l-190 1315q-46 3 -107 19q-14 54 -14 114zM690 1731q26 35 72.5 71t83.5 51l356 -200q-3 -25 -23 -63.5t-40 -55.5z" />
<glyph unicode="&#x1e81;" horiz-adv-x="1484" d="M4 838q0 17 11 54.5t22 49.5q28 19 84 31t112 12q39 0 72 -10l49 -635q4 -43 4 -234h15q67 168 150 422.5t134 438.5l215 20l74 -647q8 -76 8 -234h15q177 405 276 719q0 19 -8 35l-137 -10q2 26 15 62t30 53q29 11 93.5 21.5t96.5 10.5q26 -25 48 -69t22 -66 q-151 -415 -401 -913l-181 43l-84 813h-14q-52 -183 -148 -440.5t-171 -415.5l-177 43l-82 860zM543 1425q31 22 86.5 37t103.5 15l185 -324q-20 -14 -62.5 -28.5t-69.5 -14.5z" />
<glyph unicode="&#x1e82;" horiz-adv-x="1959" d="M84 1421h502q-3 -47 -35 -118q-101 -12 -176 -15q28 -78 43 -188l98 -764q10 -75 10 -203h15q16 80 41 158l376 1147h209l127 -1108q11 -107 11 -187h14q10 57 39 152l282 842q29 88 64 151q-73 3 -139 21q-11 57 -11 112h424q-4 -68 -30 -121q-39 -6 -105 -10 l-477 -1317h-201l-123 1137q-6 53 -6 190h-14q-10 -72 -47 -196l-363 -1131h-217l-190 1315q-46 3 -107 19q-14 54 -14 114zM951.5 1590q-3.5 42 0.5 71l412 207q27 -22 53 -70t37 -90l-491 -184q-8 24 -11.5 66z" />
<glyph unicode="&#x1e83;" horiz-adv-x="1484" d="M4 838q0 17 11 54.5t22 49.5q28 19 84 31t112 12q39 0 72 -10l49 -635q4 -43 4 -234h15q67 168 150 422.5t134 438.5l215 20l74 -647q8 -76 8 -234h15q177 405 276 719q0 19 -8 35l-137 -10q2 26 15 62t30 53q29 11 93.5 21.5t96.5 10.5q26 -25 48 -69t22 -66 q-151 -415 -401 -913l-181 43l-84 813h-14q-52 -183 -148 -440.5t-171 -415.5l-177 43l-82 860zM651 1178l256 319q38 -6 87.5 -29.5t72.5 -46.5l-334 -340q-22 12 -46 40.5t-36 56.5z" />
<glyph unicode="&#x1e84;" horiz-adv-x="1959" d="M84 1421h502q-3 -47 -35 -118q-101 -12 -176 -15q28 -78 43 -188l98 -764q10 -75 10 -203h15q16 80 41 158l376 1147h209l127 -1108q11 -107 11 -187h14q10 57 39 152l282 842q29 88 64 151q-73 3 -139 21q-11 57 -11 112h424q-4 -68 -30 -121q-39 -6 -105 -10 l-477 -1317h-201l-123 1137q-6 53 -6 190h-14q-10 -72 -47 -196l-363 -1131h-217l-190 1315q-46 3 -107 19q-14 54 -14 114zM657 1679q0 47 35 80t86 33q52 0 85.5 -30.5t33.5 -82.5q0 -54 -34 -87t-85 -33q-59 0 -90 31t-31 89zM1212 1679q0 47 35 80t86 33 q52 0 85.5 -30.5t33.5 -82.5q0 -54 -34 -87t-85 -33q-59 0 -90 31t-31 89z" />
<glyph unicode="&#x1e85;" horiz-adv-x="1484" d="M4 838q0 17 11 54.5t22 49.5q28 19 84 31t112 12q39 0 72 -10l49 -635q4 -43 4 -234h15q67 168 150 422.5t134 438.5l215 20l74 -647q8 -76 8 -234h15q177 405 276 719q0 19 -8 35l-137 -10q2 26 15 62t30 53q29 11 93.5 21.5t96.5 10.5q26 -25 48 -69t22 -66 q-151 -415 -401 -913l-181 43l-84 813h-14q-52 -183 -148 -440.5t-171 -415.5l-177 43l-82 860zM426 1266q0 44 30 74t74 30q45 0 74 -28t29 -76q0 -51 -29.5 -82t-73.5 -31q-104 0 -104 113zM899 1266q0 44 30.5 74t74.5 30q45 0 73.5 -28t28.5 -76q0 -51 -29 -82t-73 -31 q-105 0 -105 113z" />
<glyph unicode="&#x1ef2;" horiz-adv-x="1200" d="M76 1421h481q-3 -56 -29 -114q-62 -11 -166 -15q41 -64 70 -139l127 -330q27 -75 35 -139h14q17 50 66 133l194 332q58 95 101 141q-74 4 -129 17q-13 50 -13 114h402q0 -53 -25 -118q-44 -8 -96 -11l-461 -737l-33 -422q115 -8 177 -20q10 -45 -5 -113h-559q8 48 33 109 q66 17 168 26l43 422l-285 729q-49 4 -100 17q-17 61 -10 118zM307 1731q26 35 72.5 71t83.5 51l356 -200q-3 -25 -23 -63.5t-40 -55.5z" />
<glyph unicode="&#x1ef3;" horiz-adv-x="976" d="M-37 -324q255 79 373 283l-211 895l-145 -14q0 17 10.5 53.5t21.5 48.5q28 19 83.5 31t111.5 12q41 0 74 -10l129 -590q19 -93 28 -250h15q190 362 290 690q0 19 -8 35l-164 -14q2 25 14.5 58.5t30.5 51.5q34 16 112.5 28.5t119.5 12.5q25 -25 45 -69t20 -66 q-93 -250 -245 -551t-252 -442q-93 -131 -191.5 -214t-216.5 -134q-18 29 -31.5 73.5t-13.5 81.5zM270 1425q30 22 86.5 37t104.5 15l184 -324q-20 -14 -62 -28.5t-69 -14.5z" />
<glyph unicode="&#x2000;" horiz-adv-x="1108" />
<glyph unicode="&#x2001;" horiz-adv-x="2216" />
<glyph unicode="&#x2002;" horiz-adv-x="1108" />
<glyph unicode="&#x2003;" horiz-adv-x="2216" />
<glyph unicode="&#x2004;" horiz-adv-x="738" />
<glyph unicode="&#x2005;" horiz-adv-x="554" />
<glyph unicode="&#x2006;" horiz-adv-x="369" />
<glyph unicode="&#x2007;" horiz-adv-x="369" />
<glyph unicode="&#x2008;" horiz-adv-x="277" />
<glyph unicode="&#x2009;" horiz-adv-x="443" />
<glyph unicode="&#x200a;" horiz-adv-x="123" />
<glyph unicode="&#x2010;" horiz-adv-x="671" d="M53 479q0 30 9 76.5t20 75.5h444q2 -14 2 -41q0 -63 -10 -111h-465z" />
<glyph unicode="&#x2011;" horiz-adv-x="671" d="M53 479q0 30 9 76.5t20 75.5h444q2 -14 2 -41q0 -63 -10 -111h-465z" />
<glyph unicode="&#x2012;" horiz-adv-x="671" d="M53 479q0 30 9 76.5t20 75.5h444q2 -14 2 -41q0 -63 -10 -111h-465z" />
<glyph unicode="&#x2013;" horiz-adv-x="1024" d="M14 489q0 29 8 71.5t19 68.5h864q2 -6 2 -19v-18q0 -51 -10 -103h-883z" />
<glyph unicode="&#x2014;" horiz-adv-x="2048" d="M14 489q0 28 8.5 71t18.5 69h1888q2 -12 2 -37q0 -58 -10 -103h-1907z" />
<glyph unicode="&#x2018;" horiz-adv-x="456" d="M102 1016q41 108 103.5 222t122.5 196q69 18 125 18q-40 -75 -86.5 -178.5t-67.5 -165.5l78 -21q-9 -26 -38.5 -69.5t-53.5 -67.5q-115 13 -183 66z" />
<glyph unicode="&#x2019;" horiz-adv-x="518" d="M152 985q86 180 116 307l-73 21q38 90 77 135q31 8 70 8q74 0 137 -24q-35 -110 -112 -262.5t-136 -235.5q-43 15 -79 51z" />
<glyph unicode="&#x201a;" horiz-adv-x="518" d="M4 -270q89 181 123 307l-80 20q37 87 82 136q31 8 74 8q71 0 141 -25q-36 -110 -116 -262.5t-140 -235.5q-47 15 -84 52z" />
<glyph unicode="&#x201b;" horiz-adv-x="528" d="M119 1434q68 20 147 20q37 0 64 -6q34 -53 49 -133l-90 -23q3 -118 39 -307q-13 -10 -44 -23t-53 -18q-33 85 -67.5 232t-44.5 258z" />
<glyph unicode="&#x201c;" horiz-adv-x="792" d="M57 1016q86 233 217 418q69 18 121 18q-101 -199 -147 -344l71 -21q-10 -27 -38 -70t-50 -67q-103 13 -174 66zM408 1016q86 233 217 418q69 18 118 18q-101 -199 -147 -344l72 -21q-10 -27 -38 -70t-50 -67q-101 12 -172 66z" />
<glyph unicode="&#x201d;" horiz-adv-x="792" d="M113 987q33 69 66.5 157t47.5 148l-71 21q32 85 75 135q27 8 66 8q70 0 133 -24q-35 -111 -109.5 -262.5t-130.5 -233.5q-41 15 -77 51zM475 987q87 182 113 305l-72 21q35 85 76 135q27 8 67 8q72 0 132 -24q-33 -109 -107 -260t-131 -236q-21 7 -44 22.5t-34 28.5z" />
<glyph unicode="&#x201e;" horiz-adv-x="868" d="M0 -270q90 193 117 307l-74 20q37 89 78 136q27 8 67 8q70 0 136 -25q-35 -110 -111 -262.5t-133 -235.5q-43 15 -80 52zM356 -270q90 193 117 307l-74 20q37 89 78 136q27 8 68 8q69 0 135 -25q-35 -110 -111 -262.5t-133 -235.5q-43 15 -80 52z" />
<glyph unicode="&#x2020;" horiz-adv-x="1024" d="M143 854q0 60 23 119h283l34 432q75 22 185 22l-54 -454h318q7 -54 -6 -119h-330l-135 -1192q-21 -6 -58 -6q-38 0 -59 6l92 1192h-293z" />
<glyph unicode="&#x2021;" horiz-adv-x="1024" d="M96 248q0 58 23 117h297l35 491h-293q0 60 22 117h283l35 432q75 22 184 22l-53 -454h309q6 -53 -6 -117h-322l-53 -491h328q6 -53 -6 -117h-338l-66 -586q-21 -6 -57 -6q-39 0 -60 6l45 586h-307z" />
<glyph unicode="&#x2022;" horiz-adv-x="1015" d="M244 504q0 115 76.5 190.5t189.5 75.5q120 0 189 -69t69 -197q0 -131 -71 -208t-187 -77q-134 0 -200 70.5t-66 214.5z" />
<glyph unicode="&#x2026;" horiz-adv-x="1546" d="M63 111q0 54 36 89.5t89 35.5q56 0 89.5 -33t33.5 -92q0 -62 -34 -99t-89 -37q-125 0 -125 136zM586 111q0 54 36 89.5t89 35.5q56 0 89.5 -33t33.5 -92q0 -62 -34 -99t-89 -37q-125 0 -125 136zM1102 111q0 54 36 89.5t89 35.5q56 0 89.5 -33t33.5 -92q0 -62 -34 -99 t-89 -37q-125 0 -125 136z" />
<glyph unicode="&#x202f;" horiz-adv-x="443" />
<glyph unicode="&#x2030;" horiz-adv-x="2856" d="M168 731q0 168 95.5 269.5t258.5 101.5q133 0 206 -67t73 -193q0 -177 -94 -274t-258 -97q-137 0 -209 65.5t-72 194.5zM324 743q0 -82 35.5 -127t101.5 -45q90 0 136 69t46 191q0 79 -33 124.5t-98 45.5q-93 0 -140.5 -71t-47.5 -187zM502 6l841 1108q51 -3 113 -31 l-848 -1136q-23 4 -58.5 24t-47.5 35zM1124 225q0 168 96 269.5t259 101.5q133 0 205.5 -66.5t72.5 -193.5q0 -177 -94 -274t-258 -97q-137 0 -209 65.5t-72 194.5zM1280 238q0 -82 35.5 -127t101.5 -45q90 0 136 69t46 191q0 79 -33 124.5t-98 45.5q-93 0 -140.5 -71 t-47.5 -187zM1933 225q0 168 96 269.5t259 101.5q133 0 205.5 -66.5t72.5 -193.5q0 -177 -94 -274t-258 -97q-137 0 -209 65.5t-72 194.5zM2089 238q0 -82 35.5 -127t101.5 -45q90 0 136 69t46 191q0 79 -33 124.5t-98 45.5q-93 0 -140.5 -71t-47.5 -187z" />
<glyph unicode="&#x2039;" horiz-adv-x="692" d="M109 512q95 180 233 383q31 12 84.5 21.5t95.5 9.5q-129 -221 -221 -414q48 -173 131 -389q-57 -29 -143 -37q-102 206 -180 426z" />
<glyph unicode="&#x203a;" horiz-adv-x="686" d="M104 129q128 221 205 383q-40 151 -123 377q25 17 65.5 29t74.5 12q129 -273 174 -418q-97 -179 -264 -426q-31 1 -71.5 14.5t-60.5 28.5z" />
<glyph unicode="&#x203e;" horiz-adv-x="1024" d="M-31 1360q0 62 23 121h1044q6 -53 -6 -121h-1061z" />
<glyph unicode="&#x2044;" horiz-adv-x="1218" d="M12 12l1102 1444q62 0 117 -20l-1118 -1493q-26 6 -57.5 28t-43.5 41z" />
<glyph unicode="&#x205f;" horiz-adv-x="554" />
<glyph unicode="&#x2074;" horiz-adv-x="788" d="M76 977l10 98l367 461h180l-37 -444h109q6 -48 -7 -115h-110l-15 -186q-35 -7 -81 -7q-38 0 -66 7l18 186h-368zM233 1090q29 2 91 2h129l22 200q8 64 21 121h-9l-254 -315v-8z" />
<glyph unicode="&#x20ac;" horiz-adv-x="1294" d="M51 334q0 47 21 104h731q6 -45 -6 -104h-394q29 -108 104.5 -162.5t188.5 -54.5q135 0 303 53q0 -26 -11.5 -67.5t-24.5 -63.5q-69 -34 -166 -57t-183 -23q-169 0 -278.5 103.5t-136.5 271.5h-148zM76 580q0 50 20 104h137q67 190 221 307t349 117q164 0 282 -80 q0 -147 -51 -252q-29 0 -67.5 8t-59.5 19l17 145q-66 39 -142 39q-130 0 -225.5 -80t-138.5 -223h403q6 -45 -6 -104h-739z" />
<glyph unicode="&#x2113;" horiz-adv-x="1015" d="M93 388q-3 46 1 69q92 52 139 84l46 442q11 107 46 190t85 132.5t108 74.5t121 25q94 0 153.5 -62.5t59.5 -183.5q0 -352 -459 -680q-18 -106 -18 -198q0 -185 141 -185q72 0 125.5 26.5t110.5 92.5q17 -9 40 -27.5t35 -33.5q-129 -189 -338 -189q-128 0 -205 71t-77 218 q0 62 10 127q-11 -6 -51 -28t-62 -34q-8 23 -11 69zM410 651q146 117 214 235t68 255q0 71 -24 107t-62 36q-61 0 -105 -72t-57 -213z" />
<glyph unicode="&#x2122;" horiz-adv-x="1769" d="M154 1206l22 215h569l-20 -213q-47 0 -84 6q-8 49 -8 125h-127l-33 -413q61 -3 117 -15q2 -11 1 -36.5t-5 -36.5h-369q4 32 25 71q43 11 102 15l43 415h-121q-14 -79 -30 -118q-31 -15 -82 -15zM760 838q4 39 22 71q41 11 84 15l47 407q-73 6 -92 10q0 53 8 80h267 l94 -356q19 -70 22 -143h11q28 90 55 143l178 356h252q0 -44 -12 -80q-54 -8 -90 -8l-33 -409q59 -3 98 -15q4 -38 -4 -71h-319q4 39 22 71q41 11 84 15l43 409h-10q-17 -71 -68 -174l-157 -332h-132l-90 334q-23 87 -26 172h-10l-39 -411q36 0 75 -11q5 -42 -4 -73h-276z " />
<glyph unicode="&#x2126;" horiz-adv-x="1591" d="M-33 0l31 313q73 0 127 -12q10 -68 10 -156h258v15q-98 64 -160.5 196t-62.5 310q0 359 187 577.5t489 218.5q250 0 396.5 -162.5t146.5 -431.5q0 -122 -30.5 -240t-80 -209.5t-112 -159t-128.5 -99.5v-15h275q12 70 37 160q61 14 133 14l-29 -319h-616l12 131 q147 82 246.5 279t99.5 436q0 99 -20.5 183.5t-62.5 153.5t-113.5 108.5t-165.5 39.5q-97 0 -177 -38.5t-134.5 -103.5t-91.5 -153t-54 -184.5t-17 -200.5q0 -172 61 -308t159 -212l-13 -131h-600z" />
<glyph unicode="&#x212e;" horiz-adv-x="1800" d="M111 684q0 148 63.5 282.5t170.5 232t255.5 155t312.5 57.5q163 0 311 -57.5t255 -155t170 -232t63 -282.5v-18h-1296q-10 0 -10 -9v-391q0 -27 18 -45q92 -101 219.5 -158t271.5 -57q153 0 286 63.5t231 176.5h114q-109 -131 -275.5 -206t-357.5 -75q-163 0 -312 57 t-256 153.5t-170.5 229.5t-63.5 279zM406 723q0 -10 10 -10h997q8 0 8 10v389q0 30 -22 49q-94 97 -219 151t-265 54q-143 0 -269 -56t-220 -157q-20 -14 -20 -49v-381z" />
<glyph unicode="&#x2153;" horiz-adv-x="1896" d="M207 672q7 49 33 96q38 10 112 18l51 508l-157 -16q7 61 33 108q104 30 286 41l-53 -645q72 -4 125 -12q11 -46 2 -98h-432zM307 12l1102 1444q62 0 117 -20l-1118 -1493q-26 6 -57.5 28t-43.5 41zM1103.5 80q-3.5 42 0.5 70q118 -48 225 -48q72 0 115 28t43 85 q0 60 -60.5 83.5t-207.5 23.5q0 61 20 108q268 0 268 145q0 82 -102 82q-52 0 -98 -16l-7 -94q-53 -17 -122 -17q-7 69 -7 187q46 20 120.5 33.5t131.5 13.5q104 0 174 -42t70 -126q0 -79 -53.5 -137.5t-134.5 -65.5v-10q70 -7 120 -48.5t50 -109.5q0 -83 -48 -138t-123 -78 t-173 -23q-109 0 -189 22q-9 30 -12.5 72z" />
<glyph unicode="&#x2154;" horiz-adv-x="1896" d="M182 672l13 123q30 27 91.5 72.5t114 86.5t105.5 89t84 99t31 97q0 45 -28 64.5t-91 19.5q-64 0 -125 -35l-4 -112q-44 -15 -115 -15q-6 95 -6 209q132 66 272 66q260 0 260 -176q0 -58 -30.5 -116.5t-86.5 -112.5t-102 -91t-111.5 -82.5t-80.5 -56.5v-10q176 0 395 16 q-3 -70 -20 -135h-566zM344 12l1102 1444q62 0 117 -20l-1119 -1493q-25 6 -56.5 28t-43.5 41zM1109.5 80q-3.5 42 0.5 70q118 -48 225 -48q72 0 115 28t43 85q0 60 -60.5 83.5t-207.5 23.5q0 61 20 108q268 0 268 145q0 82 -102 82q-52 0 -98 -16l-6 -94q-53 -17 -123 -17 q-6 59 -6 187q46 20 120.5 33.5t131.5 13.5q104 0 173.5 -42t69.5 -126q0 -79 -53.5 -137.5t-134.5 -65.5v-10q70 -7 120 -48.5t50 -109.5q0 -83 -48 -138t-123 -78t-173 -23q-109 0 -189 22q-9 30 -12.5 72z" />
<glyph unicode="&#x2202;" horiz-adv-x="1097" d="M43 334q0 146 58.5 274t169 208.5t247.5 80.5q105 0 180 -42.5t99 -98.5h14q2 37 2 110q0 111 -20 197.5t-53 141.5t-80.5 90t-98.5 49t-110 14q-54 0 -122.5 -19.5t-119.5 -46.5q-3 38 10 92t33 89q105 43 235 43q99 0 185 -39t155.5 -116t109.5 -205t40 -292 q0 -132 -19.5 -257.5t-62.5 -242t-105 -204t-155 -139.5t-205 -52q-179 0 -283 97.5t-104 267.5zM215 332q0 -112 54.5 -175t158.5 -63q80 0 145 45.5t108 124.5t70 169.5t42 195.5q-96 131 -248 131q-80 0 -144.5 -35.5t-104 -96t-60.5 -136.5t-21 -160z" />
<glyph unicode="&#x2206;" horiz-adv-x="1255" d="M-31 0l8 96l644 1346h159l367 -1323l-8 -119h-1170zM170 127h762l-213 827q-53 199 -53 295h-15q-24 -95 -112 -288z" />
<glyph unicode="&#x220f;" horiz-adv-x="1466" d="M-63 -201q10 60 30 109q64 17 158 26l141 1352q-92 4 -143 14q-3 23 0 62.5t8 58.5h1331q3 -21 -1.5 -59t-12.5 -59q-74 -14 -156 -17l-123 -1354q116 -8 172 -20q4 -22 2.5 -56.5t-6.5 -56.5h-520q4 27 27 109q62 18 143 26l141 1358h-698l-123 -1360q105 -6 154 -20 q4 -22 2.5 -56.5t-6.5 -56.5h-520z" />
<glyph unicode="&#x2211;" horiz-adv-x="1148" d="M-96 -201l14 129l594 666l-430 706l10 121h1008l-33 -331q-67 0 -121 14q-12 77 -12 188h-653v-14q61 -58 114 -143l310 -517l-457 -520q-60 -69 -137 -127v-14h718q16 106 45 195q61 14 136 14l-37 -367h-1069z" />
<glyph unicode="&#x2212;" d="M111 479q0 62 26 142h862q7 -70 -8 -142h-880z" />
<glyph unicode="&#x221a;" horiz-adv-x="1067" d="M-2 647q4 82 37 150l233 53l121 -571q21 -104 25 -242h14q36 129 82 248l522 1317q77 -11 135 -43l-659 -1659l-199 -25l-178 805z" />
<glyph unicode="&#x221e;" horiz-adv-x="1697" d="M45 492q0 108 45.5 200.5t137.5 151.5t212 59q119 0 215 -57t207 -187q221 242 445 242q142 0 218.5 -82.5t76.5 -216.5q0 -112 -49 -207t-140.5 -153t-206.5 -58q-118 0 -213.5 63t-197.5 187q-111 -119 -221 -183.5t-234 -64.5q-141 0 -218 85.5t-77 220.5zM195 532 q0 -88 54.5 -144t145.5 -56q87 0 171.5 52.5t154.5 139.5q-177 221 -313 221q-91 0 -152 -59t-61 -154zM936 571q45 -58 75 -92.5t69.5 -69.5t79 -51t83.5 -16q99 0 155 63.5t56 157.5q0 89 -55 141t-144 52q-153 0 -319 -185z" />
<glyph unicode="&#x222b;" horiz-adv-x="667" d="M-123 -330q1 27 19.5 74.5t35.5 71.5q48 -33 97 -33q40 0 68.5 15t46 38.5t29.5 68.5t18 88t12 113q13 148 34 547t35 545q42 461 359 461q56 0 100 -19q21 -61 21 -139q-51 31 -125 31q-43 0 -75 -17.5t-52.5 -45.5t-35 -75t-22 -93t-14.5 -113q-15 -147 -29.5 -543.5 t-27.5 -538.5q-10 -106 -33 -187t-64 -145.5t-107 -99t-155 -34.5q-77 0 -135 30z" />
<glyph unicode="&#x2248;" d="M117 389q118 92 237 92q60 0 115 -17t90 -38t83.5 -38t96.5 -17q45 0 83.5 16t90.5 53q14 -14 34 -46t26 -50q-121 -117 -262 -117q-63 0 -116.5 17t-86 37.5t-81.5 37.5t-103 17q-91 0 -197 -78q-19 53 -10 131zM152 760q118 92 237 92q60 0 115 -17.5t90 -38t83.5 -38 t96.5 -17.5q45 0 83 16t91 54q14 -14 34 -46t26 -50q-51 -49 -119.5 -83t-143.5 -34q-63 0 -116.5 17t-86 37.5t-81.5 37.5t-103 17q-90 0 -196 -78q-19 53 -10 131z" />
<glyph unicode="&#x2260;" d="M131 297q0 66 23 133h272l162 236h-416q0 66 23 133h473l116 170q62 0 111 -17l-104 -153h215q6 -62 -9 -133h-288l-158 -236h418q7 -65 -8 -133h-490l-131 -195q-19 5 -50.5 24t-43.5 34l94 137h-209z" />
<glyph unicode="&#x2264;" d="M123 0q0 52 24 131h771q7 -62 -9 -131h-786zM248 705l18 110l627 428q24 -12 56.5 -39.5t49.5 -50.5l-573 -389v-14l477 -373q-8 -22 -44.5 -67.5t-55.5 -55.5z" />
<glyph unicode="&#x2265;" d="M98 0q0 48 25 131h770q7 -65 -8 -131h-787zM174 371l569 379v14l-499 381q18 20 61.5 49t71.5 41l536 -422l-6 -108l-651 -459q-17 12 -46.5 57t-35.5 68z" />
<glyph unicode="&#x25ca;" horiz-adv-x="1042" d="M33 692l440 744l184 22l304 -739l-435 -746l-209 -18zM217 727l176 -455q29 -72 49 -170h15q27 79 86 181l231 403l-170 432q-31 74 -57 185h-15q-32 -90 -90 -189z" />
<glyph unicode="&#xe000;" horiz-adv-x="983" d="M0 0v983h983v-983h-983z" />
<glyph unicode="&#xfb00;" horiz-adv-x="1247" d="M35 844q6 51 39 106q58 22 131 35l12 90q28 204 134 302t255 98q98 0 193 -35q0 -50 -17.5 -125t-38.5 -117q-23 0 -55 10t-49 23l18 129q-22 14 -61 14q-79 0 -140 -62.5t-77 -203.5l-17 -145h469l19 133q28 203 137 301t262 98q102 0 197 -35q0 -50 -17 -124.5 t-38 -116.5q-25 0 -58.5 9.5t-50.5 22.5l18 129q-24 15 -63 15q-38 0 -73 -13.5t-68 -42.5t-56 -83.5t-30 -127.5l-17 -165h252q7 -54 -6 -119h-254l-121 -1151q-50 -8 -102 -8q-56 0 -80 8l141 1151h-469l-88 -840q-50 -8 -100 -8q-54 0 -78 8l105 840h-158z" />
<glyph unicode="&#xfb01;" horiz-adv-x="1189" d="M35 844q6 51 39 106q58 22 131 35l4 35q29 247 156 361t360 114q159 0 305 -47q0 -53 -19 -128.5t-44 -127.5q-27 0 -64.5 11t-56.5 24l20 135q-61 20 -145 20q-160 0 -243.5 -80t-106.5 -270l-9 -69h236q7 -54 -6 -119h-238l-121 -1151q-50 -8 -102 -8q-56 0 -80 8 l142 1151h-158zM664 834q0 17 12 54.5t24 49.5q88 47 201 47q50 0 82 -8l-102 -832q0 -14 10 -34l160 16q0 -23 -10.5 -58.5t-22.5 -56.5q-49 -18 -124 -32.5t-120 -14.5q-29 33 -50.5 79t-21.5 73l107 733z" />
<glyph unicode="&#xfb02;" horiz-adv-x="1198" d="M35 844q6 51 39 106q58 22 131 35l4 37q27 242 156 357.5t360 115.5q156 0 313 -53l-153 -1297q0 -14 10 -34l160 16q0 -23 -10.5 -58.5t-22.5 -56.5q-49 -18 -124 -32.5t-120 -14.5q-29 33 -50 79t-21 73l163 1247q-61 20 -147 20q-160 0 -244.5 -81t-107.5 -271l-9 -69 h254q7 -54 -6 -119h-256l-121 -1151q-50 -8 -102 -8q-56 0 -80 8l142 1151h-158z" />
<glyph unicode="&#xfb03;" horiz-adv-x="1820" d="M35 844q6 51 39 106q58 22 131 35l12 90q28 204 134 302t255 98q98 0 193 -35q0 -50 -17.5 -125t-38.5 -117q-23 0 -55 10t-49 23l18 129q-22 14 -61 14q-79 0 -140 -62.5t-77 -203.5l-17 -145h472l6 57q26 244 154.5 359.5t361.5 115.5q159 0 305 -47q0 -53 -19.5 -128 t-44.5 -128q-27 0 -64 11t-56 24l20 135q-61 20 -145 20q-160 0 -244 -80.5t-107 -269.5l-8 -69h236q7 -54 -6 -119h-238l-121 -1151q-50 -8 -102 -8q-56 0 -80 8l139 1151h-467l-88 -840q-50 -8 -100 -8q-54 0 -78 8l105 840h-158zM1294 834q0 17 12.5 54.5t24.5 49.5 q88 47 201 47q50 0 82 -8l-103 -832q0 -12 11 -34l159 16q0 -23 -10 -59t-22 -56q-49 -18 -124 -32.5t-120 -14.5q-29 33 -50.5 79t-21.5 73l107 733z" />
<glyph unicode="&#xfb04;" horiz-adv-x="1828" d="M35 844q6 51 39 106q58 22 131 35l12 90q28 204 134 302t255 98q98 0 193 -35q0 -50 -17.5 -125t-38.5 -117q-23 0 -55 10t-49 23l18 129q-22 14 -61 14q-79 0 -140 -62.5t-77 -203.5l-17 -145h469l9 59q34 243 160 358t356 115q156 0 313 -53l-153 -1297q0 -14 10 -34 l160 16q0 -23 -10.5 -58.5t-22.5 -56.5q-49 -18 -124 -32.5t-120 -14.5q-29 33 -50.5 79t-21.5 73l164 1247q-61 20 -147 20q-160 0 -245 -81t-108 -271l-8 -69h254q7 -54 -6 -119h-256l-121 -1151q-50 -8 -102 -8q-56 0 -80 8l141 1151h-469l-88 -840q-50 -8 -100 -8 q-54 0 -78 8l105 840h-158z" />
<glyph horiz-adv-x="815" d="M158 -487q82 159 110 258l-69 14q34 80 69 117q30 6 66 6q58 0 129 -23q-29 -88 -100 -218.5t-121 -198.5q-23 6 -47.5 19.5t-36.5 25.5z" />
<glyph horiz-adv-x="1134" d="M29 0q1 18 13.5 48.5t23.5 49.5q53 29 129 43l88 801q-83 4 -136 14q-2 22 2 58.5t11 52.5h821l-35 -279q-57 0 -96 17q-19 47 -31 139h-370l-35 -340h278q26 58 43 80q43 19 94 25l-38 -334q-44 -3 -101 10q-8 39 -8 100h-279l-32 -360h391q14 74 49 154q46 14 111 10 l-35 -289h-858zM311 1458q20 21 56.5 40t68.5 22l203 -209l240 205q49 -15 90 -60l-273 -285l-176 -6z" />
<glyph horiz-adv-x="815" d="M61 1602q0 64 27 147h627q7 -73 -8 -147h-646z" />
<glyph d="M117 539q118 92 237 92q60 0 115 -17.5t90 -38t83.5 -38t96.5 -17.5q45 0 83 16t91 54q14 -14 34 -46t26 -50q-121 -117 -262 -117q-63 0 -116.5 17t-86 37t-81.5 37t-103 17q-92 0 -197 -77q-19 53 -10 131zM152 909q118 92 237 92q60 0 115 -17t90 -38t83.5 -38 t96.5 -17q45 0 83 16t91 54q14 -14 34 -46.5t26 -50.5q-51 -49 -119.5 -82.5t-143.5 -33.5q-63 0 -116.5 17t-86 37t-81.5 37t-103 17q-90 0 -196 -78q-19 53 -10 131z" />
<glyph d="M111 0q0 52 24 131h770q7 -65 -8 -131h-786zM193 846q0 57 22 125h309l39 348q56 18 144 18l-35 -366h317q7 -63 -8 -125h-322l-34 -365q-27 -8 -86 -8q-47 0 -66 8l39 365h-319z" />
<glyph horiz-adv-x="1284" d="M-37 0q7 55 29 92q50 32 119 51l489 934l160 23l278 -975q49 -4 97 -19q15 -49 18 -106h-152q-99 -50 -145.5 -101t-46.5 -122q0 -53 32 -79t81 -26q30 0 51 6q6 -14 12 -47t6 -57q-45 -18 -119 -18q-95 0 -158 48t-63 138q0 89 56 154t163 94v10h-165q7 49 38 98 q60 25 123 33q-35 64 -47 117l-16 76h-443l-41 -86q-26 -58 -67 -109q70 -11 121 -29q14 -47 14 -100h-424zM416 442h354l-92 365q-19 69 -23 145h-14q-13 -55 -57 -149z" />
<glyph horiz-adv-x="870" d="M70 143q0 50 19 93.5t48.5 75.5t66 61.5t73 55t66 50.5t48.5 54.5t19 60.5q0 47 -23 94q57 37 152 41q19 -22 32 -58.5t13 -68.5q0 -54 -32.5 -102.5t-78.5 -85.5t-92 -72t-78.5 -77.5t-32.5 -86.5q0 -40 32 -64t99 -24q72 0 115 21l14 112q59 25 138 25q6 -102 -11 -242 q-55 -20 -149.5 -34.5t-167.5 -14.5q-131 0 -200.5 48t-69.5 138zM346 952q0 63 35 100.5t90 37.5q63 0 96 -35.5t33 -102.5q0 -57 -36.5 -93t-92.5 -36q-57 0 -91 34.5t-34 94.5z" />
<glyph horiz-adv-x="815" d="M63 1610l267 266q39 -11 80.5 -38.5t66.5 -55.5l-354 -277q-17 15 -36.5 48.5t-23.5 56.5zM485 1610l267 266q39 -11 80.5 -38.5t66.5 -55.5l-354 -277q-17 15 -36.5 48.5t-23.5 56.5z" />
<glyph horiz-adv-x="1253" d="M31 0q1 18 13.5 48.5t23.5 49.5q53 29 129 43l94 801q-62 3 -135 14q-2 23 1.5 59t10.5 52h438q0 -17 -7 -57.5t-13 -57.5q-61 -7 -127 -10l-35 -342h117l239 266q43 47 76 66q-66 11 -106 29q-14 51 -7 106h402q-6 -47 -37 -111q-40 -13 -100 -20l-359 -385 q115 -170 221 -307t127 -140l111 9q0 -27 -9 -62.5t-20 -56.5q-86 -28 -174 -31q-52 10 -146 133.5t-270 390.5h-77l-39 -356q72 -6 153 -25q11 -55 0 -106h-495z" />
<glyph horiz-adv-x="815" d="M29 1769q57 43 133 56l239 -148l250 144q20 -7 46.5 -30.5t35.5 -41.5l-256 -215h-213z" />
<glyph horiz-adv-x="2064" d="M23 0q3 19 14.5 50t21.5 48q51 28 129 43l95 801q-69 3 -133 14q-2 24 0.5 59.5t9.5 51.5h379l292 -711q42 -96 62 -209h14l84 795q-97 4 -157 14q-2 23 1.5 59t10.5 52h422q0 -17 -7.5 -56t-13.5 -59q-54 -6 -125 -10l-100 -938l-219 -27l-336 828q-30 78 -39 113h-14 l-84 -787q68 -6 147 -25q11 -55 0 -106h-454zM1366 154q0 61 23 120h546q7 -55 -6 -120h-563zM1399 623q0 158 71 262q46 69 118.5 107t160.5 38q115 0 177.5 -65t62.5 -191q0 -79 -25 -156.5t-66 -134.5q-89 -118 -262 -118q-117 0 -177 65.5t-60 192.5zM1548 645 q0 -180 113 -180q72 0 129 86q49 73 49 211q0 170 -108 170q-46 0 -84 -26.5t-60 -71.5q-39 -79 -39 -189z" />
<glyph horiz-adv-x="1261" d="M82 1067h475q0 -55 -20 -109q-73 -12 -162 -16l-51 -530q-5 -57 -5 -68q0 -54 12 -97.5t38 -79.5t72.5 -55.5t111.5 -19.5q133 0 212.5 86.5t92.5 220.5l55 543q-77 4 -129 14q0 70 13 111h405q-7 -77 -20 -113q-50 -8 -125 -12l-51 -549q-19 -191 -151.5 -312.5 t-332.5 -121.5q-202 0 -290.5 92.5t-88.5 259.5q0 34 7 92l55 533q-75 9 -117 22q-6 34 -6 109z" />
<glyph horiz-adv-x="1069" d="M47 0q1 18 13.5 48.5t23.5 49.5q53 29 129 43l29 258l-125 -71q-15 44 -15 121l154 86l43 407q-62 3 -135 14q-2 23 1.5 59t10.5 52h494q0 -17 -7.5 -56.5t-13.5 -54.5q-103 -11 -182 -14l-31 -315l303 170q43 -48 52 -92l-367 -211l-35 -373q212 0 346 14q21 108 45 168 q18 6 55 9.5t58 0.5l-35 -313h-811z" />
<glyph horiz-adv-x="1118" d="M76 1067h452q-7 -60 -24 -106q-70 -23 -150 -29q38 -47 62 -107l90 -217q20 -48 29 -92h14q23 51 51 92l150 219q48 69 90 105q-75 11 -117 29q-13 49 -6 106h360q-8 -61 -30 -111q-41 -16 -89 -20l-366 -535l-27 -270q89 -7 162 -25q11 -55 0 -106h-518q8 50 37 98 q66 30 143 43l25 244l-236 539q-54 16 -100 45q-8 51 -2 98zM299 1276l242 242l186 8l217 -273q-12 -22 -46 -49.5t-60 -36.5l-215 213l-265 -227q-19 18 -35.5 54.5t-23.5 68.5z" />
<glyph horiz-adv-x="1650" d="M84 1067h432q-5 -43 -27 -106q-70 -23 -145 -29q32 -99 43 -197l53 -418q11 -97 11 -190h14q19 77 59 195l258 733l215 22l80 -762q10 -110 10 -188h15q25 102 59 195l148 409q48 139 90 201q-70 11 -117 29q-13 49 -6 106h356q-7 -56 -30 -111q-40 -16 -89 -20 l-360 -946l-203 -23l-71 735q-13 123 -13 244h-14q-22 -108 -74 -250l-246 -706l-217 -23l-129 953q-59 17 -94 47q-12 48 -8 100zM584 1276l241 242l187 8l217 -273q-11 -22 -46 -49t-61 -37l-215 213l-264 -227q-19 18 -35.5 54.5t-23.5 68.5z" />
<glyph horiz-adv-x="1284" d="M-37 0q7 55 29 92q50 32 119 51l489 934l160 23l278 -975q49 -4 97 -19q15 -49 18 -106h-448q7 49 38 98q60 25 123 33q-35 64 -47 117l-16 76h-443l-41 -86q-26 -58 -67 -109q70 -11 121 -29q14 -47 14 -100h-424zM416 442h354l-92 365q-19 69 -23 145h-14 q-13 -55 -57 -149zM426 1483q30 24 93.5 40.5t115.5 16.5l201 -309q-17 -18 -58 -32.5t-73 -14.5z" />
<glyph horiz-adv-x="815" d="M229 1251l277 308q37 -9 84.5 -35.5t68.5 -50.5l-352 -320q-21 13 -44.5 41.5t-33.5 56.5z" />
<glyph horiz-adv-x="733" d="M27 0q8 51 36 98q52 29 130 43l94 801q-62 3 -135 14q-2 23 1.5 59t10.5 52h452q0 -18 -6 -57t-12 -56q-57 -8 -143 -12l-86 -813q82 -7 151 -23q11 -55 0 -106h-493zM70 1270q23 81 79 127.5t146 46.5q48 0 90 -21t79.5 -42t74.5 -21q35 0 62 25t38 61q42 0 90 -23 q-15 -87 -72.5 -149t-150.5 -62q-48 0 -126.5 43t-119.5 43q-38 0 -71 -27t-44 -63q-20 3 -42.5 23t-32.5 39z" />
<glyph horiz-adv-x="1236" d="M74 416q0 191 82 346.5t230 245.5t333 90q187 0 317 -88q0 -58 -13.5 -126t-33.5 -118q-26 0 -66 8.5t-63 18.5l17 139q-82 49 -175 49q-202 0 -317 -143t-115 -398q0 -169 81 -258.5t218 -89.5q70 0 195 19l35 282q-101 10 -195 33q-11 55 -4 109h510q-8 -40 -39 -105 q-54 -26 -106 -35l-39 -362q-75 -28 -197 -51t-233 -23q-192 0 -307 127t-115 330zM385 1452q20 19 58.5 33.5t74.5 17.5q7 -94 47 -139t115 -45q154 0 211 186q26 -1 64 -13t59 -24q-37 -139 -125.5 -219t-226.5 -80q-261 0 -277 283z" />
<glyph horiz-adv-x="1134" d="M29 0q1 18 13.5 48.5t23.5 49.5q53 29 129 43l88 801q-83 4 -136 14q-2 22 2 58.5t11 52.5h821l-35 -279q-57 0 -96 17q-19 47 -31 139h-370l-35 -340h278q26 58 43 80q43 19 94 25l-38 -334q-44 -3 -101 10q-8 39 -8 100h-279l-32 -360h391q14 74 49 154q46 14 111 10 l-35 -289h-858zM317 1255q0 63 27 142h545q7 -71 -8 -142h-564z" />
<glyph horiz-adv-x="1253" d="M31 0q1 18 13.5 48.5t23.5 49.5q53 29 129 43l94 801q-62 3 -135 14q-2 23 1.5 59t10.5 52h438q0 -17 -7 -57.5t-13 -57.5q-61 -7 -127 -10l-35 -342h117l239 266q43 47 76 66q-66 11 -106 29q-14 51 -7 106h402q-6 -47 -37 -111q-40 -13 -100 -20l-359 -385 q115 -170 221 -307t127 -140l111 9q0 -27 -9 -62.5t-20 -56.5q-86 -28 -174 -31q-52 10 -146 133.5t-270 390.5h-77l-39 -356q72 -6 153 -25q11 -55 0 -106h-495zM420 -487q82 159 110 258l-69 14q34 80 69 117q30 6 66 6q58 0 129 -23q-29 -88 -100 -218.5t-121 -198.5 q-23 6 -47.5 19.5t-36.5 25.5z" />
<glyph horiz-adv-x="815" d="M138.5 1590q-3.5 42 0.5 71l412 207q27 -22 53 -70t37 -90l-491 -184q-8 24 -11.5 66z" />
<glyph horiz-adv-x="1134" d="M29 0q1 18 13.5 48.5t23.5 49.5q53 29 129 43l88 801q-83 4 -136 14q-2 22 2 58.5t11 52.5h821l-35 -279q-57 0 -96 17q-19 47 -31 139h-370l-35 -340h278q26 58 43 80q43 19 94 25l-38 -334q-44 -3 -101 10q-8 39 -8 100h-279l-32 -360h391q14 74 49 154q46 14 111 10 l-35 -289h-858zM516 1346q0 51 31.5 81.5t81.5 30.5q51 0 79.5 -29t28.5 -83q0 -56 -30 -87.5t-78 -31.5q-113 0 -113 119z" />
<glyph horiz-adv-x="1261" d="M82 1067h475q0 -55 -20 -109q-73 -12 -162 -16l-51 -530q-5 -57 -5 -68q0 -54 12 -97.5t38 -79.5t72.5 -55.5t111.5 -19.5q133 0 212.5 86.5t92.5 220.5l55 543q-77 4 -129 14q0 70 13 111h405q-7 -77 -20 -113q-50 -8 -125 -12l-51 -549q-19 -191 -151.5 -312.5 t-332.5 -121.5q-202 0 -290.5 92.5t-88.5 259.5q0 34 7 92l55 533q-75 9 -117 22q-6 34 -6 109zM451 1360q0 111 70 176.5t190 65.5q90 0 146 -48t56 -129q0 -119 -68 -184t-183 -65q-211 0 -211 184zM569 1372q0 -100 103 -100q56 0 88.5 35t32.5 98q0 45 -27 71.5 t-70 26.5q-59 0 -93 -34.5t-34 -96.5z" />
<glyph horiz-adv-x="1067" d="M8 0l15 154q49 57 150.5 154.5t191 185.5t179 190t142.5 205t53 192q0 93 -57.5 142t-167.5 49q-114 0 -219 -55l-10 -181q-58 -28 -131 -28q-19 156 -19 301q193 102 408 102q179 0 285 -71.5t106 -221.5q0 -88 -42.5 -187.5t-104.5 -183t-149 -176.5t-158.5 -156.5 t-152 -135t-110.5 -101.5v-14h512q20 107 43 178q59 18 139 18l-32 -360h-871z" />
<glyph horiz-adv-x="1341" d="M23 0q3 19 14.5 50t21.5 48q51 28 129 43l95 801q-69 3 -133 14q-2 24 0.5 59.5t9.5 51.5h379l292 -711q42 -96 62 -209h14l84 795q-97 4 -157 14q-2 23 1.5 59t10.5 52h422q0 -17 -7.5 -56t-13.5 -59q-54 -6 -125 -10l-100 -938l-219 -27l-336 828q-30 78 -39 113h-14 l-84 -787q68 -6 147 -25q11 -55 0 -106h-454zM428 -487q84 163 111 258l-70 14q34 78 70 117q30 6 65 6q58 0 129 -23q-29 -88 -100 -218.5t-121 -198.5q-23 6 -47.5 19.5t-36.5 25.5z" />
<glyph horiz-adv-x="1239" d="M61 422q0 297 162.5 486.5t419.5 189.5q210 0 331.5 -118.5t121.5 -336.5q0 -305 -162 -494.5t-418 -189.5q-217 0 -336 120.5t-119 342.5zM248 440q0 -162 76 -259t206 -97q115 0 203 73t134 194t46 267q0 159 -77 258t-207 99q-93 0 -167 -42.5t-120 -117t-70 -170 t-24 -205.5z" />
<glyph horiz-adv-x="1261" d="M82 1067h475q0 -55 -20 -109q-73 -12 -162 -16l-51 -530q-5 -57 -5 -68q0 -54 12 -97.5t38 -79.5t72.5 -55.5t111.5 -19.5q133 0 212.5 86.5t92.5 220.5l55 543q-77 4 -129 14q0 70 13 111h405q-7 -77 -20 -113q-50 -8 -125 -12l-51 -549q-19 -191 -151.5 -312.5 t-332.5 -121.5q-202 0 -290.5 92.5t-88.5 259.5q0 34 7 92l55 533q-75 9 -117 22q-6 34 -6 109zM385 1255q0 63 27 142h544q7 -71 -8 -142h-563z" />
<glyph horiz-adv-x="1261" d="M82 1067h475q0 -55 -20 -109q-73 -12 -162 -16l-51 -530q-5 -57 -5 -68q0 -54 12 -97.5t38 -79.5t72.5 -55.5t111.5 -19.5q133 0 212.5 86.5t92.5 220.5l55 543q-77 4 -129 14q0 70 13 111h405q-7 -77 -20 -113q-50 -8 -125 -12l-51 -549q-19 -191 -151.5 -312.5 t-332.5 -121.5q-202 0 -290.5 92.5t-88.5 259.5q0 34 7 92l55 533q-75 9 -117 22q-6 34 -6 109zM395 1483q30 24 93.5 40.5t115.5 16.5l201 -309q-17 -18 -58 -32.5t-73 -14.5z" />
<glyph horiz-adv-x="1239" d="M61 422q0 297 162.5 486.5t419.5 189.5q210 0 331.5 -118.5t121.5 -336.5q0 -305 -162 -494.5t-418 -189.5q-217 0 -336 120.5t-119 342.5zM248 440q0 -162 76 -259t206 -97q115 0 203 73t134 194t46 267q0 159 -77 258t-207 99q-93 0 -167 -42.5t-120 -117t-70 -170 t-24 -205.5zM356 1452q20 19 58.5 33.5t74.5 17.5q7 -94 47 -139t115 -45q154 0 211 186q26 -1 64 -13t59 -24q-37 -139 -125.5 -219t-226.5 -80q-261 0 -277 283z" />
<glyph horiz-adv-x="1001" d="M53 96q0 55 12.5 116t30.5 99q95 0 148 -22l-17 -158q67 -53 193 -53q91 0 151 49.5t60 132.5q0 46 -25.5 84.5t-66 66t-89.5 54t-98.5 56t-90 64.5t-66 87t-25.5 116q0 138 104.5 226t264.5 88q161 0 309 -74q0 -124 -45 -250q-93 0 -135 33l12 139q-23 15 -63 28 t-78 13q-86 0 -137.5 -43.5t-51.5 -109.5q0 -42 25.5 -78t66 -63.5t89.5 -55t97.5 -59.5t89 -68.5t66 -89.5t25.5 -117q0 -87 -34.5 -155t-94.5 -109.5t-135.5 -62.5t-161.5 -21q-192 0 -326 82q-4 28 -4 55zM248 -487q82 159 110 258l-69 14q34 80 69 117q30 6 66 6 q58 0 129 -23q-29 -88 -100 -218.5t-121 -198.5q-23 6 -47.5 19.5t-36.5 25.5z" />
<glyph horiz-adv-x="1247" d="M33 2q1 18 14 49t25 49q52 28 127 43l88 795q-82 0 -140 10q0 21 6.5 59.5t12.5 51.5q244 22 457 22q233 0 363 -110.5t130 -327.5q0 -153 -48.5 -277.5t-131 -204t-188 -122.5t-222.5 -43q-278 0 -493 6zM348 1458q20 21 56.5 40t68.5 22l203 -209l239 205 q23 -7 49.5 -25t41.5 -35l-273 -285l-176 -6zM375 125q65 -6 141 -6q191 0 303.5 135t112.5 367q0 164 -99 252t-260 88q-62 0 -120 -7z" />
<glyph horiz-adv-x="733" d="M27 0q8 51 36 98q52 29 130 43l94 801q-62 3 -135 14q-2 23 1.5 59t10.5 52h452q0 -18 -6 -57t-12 -56q-57 -8 -143 -12l-86 -813q82 -7 151 -23q11 -55 0 -106h-493z" />
<glyph d="M207 641l20 123l629 448q30 -16 64.5 -43t50.5 -49l-584 -413v-15l479 -395q-9 -25 -46 -68t-60 -57z" />
<glyph d="M66 274q264 392 632 834l183 -33l-74 -770h172q7 -68 -8 -137h-176l-33 -356q-21 -7 -88 -7q-64 0 -88 7l39 356h-543zM250 301q58 4 117 4h274l55 486q14 110 25 151h-14q-183 -212 -457 -627v-14z" />
<glyph horiz-adv-x="614" d="M164 367q0 220 63.5 433.5t198.5 448.5q25 14 75 24.5t83 10.5q-116 -200 -181 -452t-65 -498q0 -298 94 -529q-21 -12 -64 -26t-71 -17q-133 283 -133 605z" />
<glyph horiz-adv-x="604" d="M117 735q0 60 40 99.5t99 39.5q62 0 98.5 -36t36.5 -103q0 -68 -37 -108.5t-98 -40.5q-139 0 -139 149z" />
<glyph horiz-adv-x="987" d="M2 188q172 -90 328 -90q142 0 228.5 93t86.5 251q0 254 -280 254q-108 0 -242 -24l115 698h694q-7 -101 -31 -174h-555l-57 -391q97 20 180 20q77 0 143 -22t117.5 -65.5t81 -114t29.5 -160.5q0 -122 -41.5 -219t-114 -158.5t-166 -94t-201.5 -32.5q-157 0 -284 43 q-15 32 -25 89.5t-6 96.5z" />
<glyph horiz-adv-x="1286" d="M-25 -10l164 168q-61 104 -61 264q0 297 165 486.5t425 189.5q189 0 309 -94l141 143q23 -11 51 -35t39 -45l-151 -154q71 -110 71 -270q0 -305 -164 -494.5t-423 -189.5q-205 0 -326 102l-190 -192q-14 18 -30 56t-20 65zM264 440q0 -80 21 -145l579 586q-81 94 -209 94 q-126 0 -216.5 -74.5t-132.5 -193.5t-42 -267zM334 190q79 -106 219 -106q118 0 208.5 73t137.5 194t47 267q0 84 -26 164zM535 1251l276 308q38 -9 85.5 -35.5t68.5 -50.5l-353 -320q-21 12 -44 41t-33 57z" />
<glyph d="M119 444q0 66 24 140h813q7 -68 -8 -140h-829zM158 811q0 65 24 139h807q7 -68 -8 -139h-823z" />
<glyph horiz-adv-x="1163" d="M29 -2q1 18 13.5 48.5t23.5 49.5q53 29 129 43l88 807q-84 4 -140 15q0 59 19 110q169 10 420 10q186 0 295.5 -65.5t109.5 -190.5q0 -97 -51 -165t-143 -91v-10q91 -22 141.5 -76.5t50.5 -138.5q0 -74 -26.5 -134t-71.5 -100.5t-107 -68t-131 -39.5t-145 -12 q-217 0 -475 8zM371 121q71 -6 137 -6q137 0 216 52.5t79 156.5q0 84 -68 128t-182 44h-145zM418 614h143q117 0 182.5 51t65.5 150q0 70 -67 108t-177 38q-75 0 -116 -3z" />
<glyph d="M-4 494q165 107 491.5 280.5t526.5 263.5q-11 -201 -52 -556.5t-77 -547.5q-174 90 -459.5 269.5t-429.5 290.5zM266 494q73 -56 238.5 -156.5t261.5 -149.5q20 105 42 295t28 303q-107 -47 -295.5 -143t-274.5 -149z" />
<glyph d="M23 0l112 973h924l-115 -973h-921z" />
<glyph horiz-adv-x="2117" d="M55 1110l31 311h1075q85 19 152 19q50 0 86 -8l-25 -254q-18 -186 -57 -344h20q104 163 310 163q237 0 237 -254q0 -55 -15.5 -178t-37 -262t-23.5 -158q0 -17 11 -34l157 16q0 -23 -10 -59t-22 -56q-49 -19 -123 -33t-119 -14q-29 33 -50.5 79t-21.5 73q80 444 80 569 q0 82 -37 129t-110 47q-82 0 -151.5 -60.5t-96.5 -129.5l-76 -668q-50 -8 -98 -8q-52 0 -76 8l158 1292h-539l-96 -1163q117 -8 180 -20q4 -22 2.5 -56.5t-6.5 -56.5h-561q8 48 33 109q67 17 167 26l111 1161h-289q-10 -58 -43 -174q-58 -12 -127 -12zM254 -496 q58 105 117 265l-76 16q11 28 33.5 64.5t42.5 56.5q40 8 73 8q81 0 136 -25q-28 -92 -101 -222t-131 -208q-24 6 -52.5 20t-41.5 25z" />
<glyph horiz-adv-x="1261" d="M82 1067h475q0 -55 -20 -109q-73 -12 -162 -16l-51 -530q-5 -57 -5 -68q0 -54 12 -97.5t38 -79.5t72.5 -55.5t111.5 -19.5q133 0 212.5 86.5t92.5 220.5l55 543q-77 4 -129 14q0 70 13 111h405q-7 -77 -20 -113q-50 -8 -125 -12l-51 -549q-19 -191 -151.5 -312.5 t-332.5 -121.5q-202 0 -290.5 92.5t-88.5 259.5q0 34 7 92l55 533q-75 9 -117 22q-6 34 -6 109zM385 1452q20 19 58.5 33.5t74.5 17.5q7 -94 47 -139t115 -45q154 0 211 186q26 -1 64 -13t59 -24q-37 -139 -125.5 -219t-226.5 -80q-261 0 -277 283z" />
<glyph horiz-adv-x="2117" d="M55 1110l31 311h1075q85 19 152 19q50 0 86 -8l-25 -254q-18 -186 -57 -344h20q104 163 310 163q237 0 237 -254q0 -55 -15.5 -178t-37 -262t-23.5 -158q0 -17 11 -34l157 16q0 -23 -10 -59t-22 -56q-49 -19 -123 -33t-119 -14q-29 33 -50.5 79t-21.5 73q80 444 80 569 q0 82 -37 129t-110 47q-82 0 -151.5 -60.5t-96.5 -129.5l-76 -668q-50 -8 -98 -8q-52 0 -76 8l158 1292h-539l-96 -1163q117 -8 180 -20q4 -22 2.5 -56.5t-6.5 -56.5h-561q8 48 33 109q67 17 167 26l111 1161h-289q-10 -58 -43 -174q-58 -12 -127 -12zM256 1769 q57 43 133 56l240 -148l250 144q20 -7 46.5 -30.5t35.5 -41.5l-256 -215h-213z" />
<glyph horiz-adv-x="733" d="M27 0q8 51 36 98q52 29 130 43l94 801q-62 3 -135 14q-2 23 1.5 59t10.5 52h452q0 -18 -6 -57t-12 -56q-57 -8 -143 -12l-86 -813q82 -7 151 -23q11 -55 0 -106h-493zM88 1276l242 242l186 8l217 -273q-12 -22 -46 -49.5t-60 -36.5l-215 213l-265 -227q-19 18 -35.5 54.5 t-23.5 68.5z" />
<glyph horiz-adv-x="1064" d="M109 1014q40 193 67 432q95 0 170 -21q-8 -78 -47 -211.5t-76 -222.5q-24 0 -60 7t-54 16zM446 1014q42 204 68 432q95 0 170 -21q-8 -78 -47 -211.5t-76 -222.5q-24 0 -60.5 7t-54.5 16z" />
<glyph horiz-adv-x="1261" d="M82 1067h475q0 -55 -20 -109q-73 -12 -162 -16l-51 -530q-5 -57 -5 -68q0 -54 12 -97.5t38 -79.5t72.5 -55.5t111.5 -19.5q133 0 212.5 86.5t92.5 220.5l55 543q-77 4 -129 14q0 70 13 111h405q-7 -77 -20 -113q-50 -8 -125 -12l-51 -549q-19 -191 -151.5 -312.5 t-332.5 -121.5q-202 0 -290.5 92.5t-88.5 259.5q0 34 7 92l55 533q-75 9 -117 22q-6 34 -6 109zM358 1335q0 46 31.5 77.5t77.5 31.5q47 0 76.5 -29.5t29.5 -79.5q0 -53 -30.5 -84.5t-75.5 -31.5q-53 0 -81 29.5t-28 86.5zM776 1335q0 46 31.5 77.5t77.5 31.5 q47 0 76.5 -29.5t29.5 -79.5q0 -53 -30.5 -84.5t-75.5 -31.5q-53 0 -81 29.5t-28 86.5z" />
<glyph horiz-adv-x="1054" d="M27 0q4 45 36 98q52 29 130 43l86 801q-63 3 -136 14q-2 22 2 58.5t11 52.5h493q0 -17 -7 -56.5t-13 -54.5q-102 -11 -183 -14l-77 -821q212 0 346 14q21 108 45 168q18 6 54.5 9.5t57.5 0.5l-34 -313h-811z" />
<glyph horiz-adv-x="1284" d="M-37 0q7 55 29 92q50 32 119 51l489 934l160 23l278 -975q49 -4 97 -19q15 -49 18 -106h-448q7 49 38 98q60 25 123 33q-35 64 -47 117l-16 76h-443l-41 -86q-26 -58 -67 -109q70 -11 121 -29q14 -47 14 -100h-424zM391 1255q0 63 27 142h545q7 -68 -9 -142h-563z M416 442h354l-92 365q-19 69 -23 145h-14q-13 -55 -57 -149z" />
<glyph horiz-adv-x="1607" d="M106 614q0 238 107.5 432.5t295 305t415.5 110.5q171 0 306.5 -61t216.5 -181.5t81 -283.5q0 -114 -41.5 -217t-118 -183.5t-193.5 -130t-260 -55.5q-19 51 -22 103h-10q-41 -52 -100 -77.5t-115 -25.5q-81 0 -127.5 54t-46.5 169q0 97 33.5 190.5t93.5 160.5 q118 133 288 133q136 0 215 -68l-94 -479q0 -13 4 -29q72 5 132.5 35.5t101 76t68.5 103t40.5 115t12.5 113.5q0 100 -41 180t-110 129.5t-156.5 75.5t-184.5 26q-138 0 -258.5 -53.5t-205 -145.5t-133 -219t-48.5 -270q0 -255 144.5 -408t398.5 -153q175 0 325 70 q31 -45 43 -101q-197 -96 -409 -96q-303 0 -475.5 176.5t-172.5 478.5zM649 610q0 -75 24 -108t70 -33q41 0 82 24.5t70 65.5l78 385q-43 19 -82 19q-99 0 -166 -93q-38 -54 -57 -125t-19 -135z" />
<glyph horiz-adv-x="1181" d="M96 530q0 180 35 337t103 279.5t177 193.5t248 71q192 0 287.5 -142t95.5 -444q0 -179 -34 -333t-101 -274.5t-176 -189.5t-248 -69q-196 0 -291.5 138.5t-95.5 432.5zM285 543q0 -226 53.5 -339.5t165.5 -113.5q84 0 153 63t112 168t66 237t23 276q0 448 -229 448 q-90 0 -158.5 -65.5t-107.5 -175t-58.5 -236t-19.5 -262.5z" />
<glyph horiz-adv-x="1134" d="M29 0q1 18 13.5 48.5t23.5 49.5q53 29 129 43l88 801q-83 4 -136 14q-2 22 2 58.5t11 52.5h821l-35 -279q-57 0 -96 17q-19 47 -31 139h-370l-35 -340h278q26 58 43 80q43 19 94 25l-38 -334q-44 -3 -101 10q-8 39 -8 100h-279l-32 -360h391q14 74 49 154q46 14 111 10 l-35 -289h-858zM289 1335q0 46 31 77.5t77 31.5q47 0 77 -29.5t30 -79.5q0 -53 -30.5 -84.5t-76.5 -31.5q-108 0 -108 116zM707 1335q0 46 31 77.5t77 31.5q47 0 77 -29.5t30 -79.5q0 -53 -30.5 -84.5t-76.5 -31.5q-108 0 -108 116z" />
<glyph horiz-adv-x="444" d="M76 354q0 54 36 89.5t89 35.5q56 0 89.5 -33t33.5 -92q0 -62 -34 -98.5t-89 -36.5q-125 0 -125 135zM143 1085q0 54 35 88.5t88 34.5q54 0 87.5 -33t33.5 -90q0 -60 -34.5 -95.5t-86.5 -35.5q-123 0 -123 131z" />
<glyph horiz-adv-x="716" d="M102 143q0 54 36 89.5t89 35.5q56 0 89.5 -33t33.5 -92q0 -62 -34 -98.5t-89 -36.5q-125 0 -125 135zM170 823q0 54 35 88.5t88 34.5q54 0 87.5 -33t33.5 -90q0 -60 -34.5 -95.5t-86.5 -35.5q-123 0 -123 131z" />
<glyph horiz-adv-x="1001" d="M53 96q0 55 12.5 116t30.5 99q95 0 148 -22l-17 -158q67 -53 193 -53q91 0 151 49.5t60 132.5q0 46 -25.5 84.5t-66 66t-89.5 54t-98.5 56t-90 64.5t-66 87t-25.5 116q0 138 104.5 226t264.5 88q161 0 309 -74q0 -124 -45 -250q-93 0 -135 33l12 139q-23 15 -63 28 t-78 13q-86 0 -137.5 -43.5t-51.5 -109.5q0 -42 25.5 -78t66 -63.5t89.5 -55t97.5 -59.5t89 -68.5t66 -89.5t25.5 -117q0 -87 -34.5 -155t-94.5 -109.5t-135.5 -62.5t-161.5 -21q-192 0 -326 82q-4 28 -4 55z" />
<glyph horiz-adv-x="1064" d="M109 741q98 185 231 381q31 12 85.5 21.5t96.5 9.5q-134 -229 -221 -412q49 -177 131 -389q-23 -12 -67 -23t-78 -14q-95 192 -178 426zM479 750q96 182 234 380q31 12 85.5 21.5t96.5 9.5q-124 -206 -221 -411q44 -159 129 -388q-22 -12 -66.5 -22.5t-79.5 -13.5 q-98 197 -178 424z" />
<glyph horiz-adv-x="768" d="M59 995q0 80 26 156t73 133q105 127 276 127q137 0 221 -59l-61 -461q0 -1 6 -31l92 10q3 -44 -18 -86q-34 -15 -88.5 -25.5t-89.5 -10.5q-34 47 -37 96h-10q-37 -49 -93 -74t-112 -25q-83 0 -134 61.5t-51 188.5zM86 535q0 61 23 120h520q7 -55 -6 -120h-537zM209 1016 q0 -78 30 -117t80 -39q40 0 77.5 24.5t62.5 67.5l49 346q-35 21 -86 21q-89 0 -152 -88q-61 -84 -61 -215z" />
<glyph horiz-adv-x="1069" d="M39 201q67 -36 159 -63t171 -27q78 0 140.5 30t114.5 95.5t89 177t57 266.5h-14q-34 -65 -109 -108.5t-170 -43.5q-184 0 -282.5 101t-98.5 266q0 229 128.5 372.5t324.5 143.5q225 0 323.5 -122.5t98.5 -411.5q0 -193 -40.5 -359t-117.5 -291t-196.5 -196.5 t-268.5 -71.5q-154 0 -278 47q-16 34 -26.5 95t-4.5 100zM279 913q0 -121 62.5 -187.5t184.5 -66.5q135 0 252 138q8 71 8 149q0 174 -60 259t-189 85q-117 0 -187.5 -109t-70.5 -268z" />
<glyph horiz-adv-x="815" d="M104 1276l242 242l186 8l218 -273q-11 -22 -46 -49t-61 -37l-215 213l-264 -227q-19 18 -36 54.5t-24 68.5z" />
<glyph horiz-adv-x="815" d="M154 1483q30 24 93 40.5t115 16.5l201 -309q-17 -18 -58 -32.5t-73 -14.5z" />
<glyph horiz-adv-x="1284" d="M-37 0q7 55 29 92q50 32 119 51l483 924q-133 30 -133 178q0 111 70 176.5t190 65.5q90 0 146.5 -47.5t56.5 -128.5q0 -91 -42 -151.5t-116 -84.5l272 -950q49 -4 97 -19q15 -49 18 -106h-448q7 49 38 98q60 25 123 33q-35 64 -47 117l-16 76h-443l-41 -86 q-26 -58 -67 -109q70 -11 121 -29q14 -47 14 -100h-424zM416 442h354l-92 365q-19 69 -23 145h-14q-13 -55 -57 -149zM580 1257q0 -100 102 -100q56 0 88.5 35t32.5 98q0 45 -26.5 72t-69.5 27q-59 0 -93 -35t-34 -97z" />
<glyph horiz-adv-x="1146" d="M39 1067h469q-6 -51 -29 -106q-77 -22 -160 -29q43 -91 64 -201l90 -422q19 -91 23 -186h14q41 130 72 196l217 476q32 76 73 137q-72 11 -120 29q-14 51 -7 106h392q-7 -53 -35 -111q-47 -17 -98 -20l-443 -946l-190 -23l-219 955q-64 18 -107 45q-12 54 -6 100z" />
<glyph horiz-adv-x="716" d="M6 -258q84 181 117 293l-78 20q37 87 84 138q33 8 80 8q80 0 141 -25q-37 -110 -113.5 -257.5t-134.5 -225.5q-22 6 -52.5 21.5t-43.5 27.5z" />
<glyph horiz-adv-x="1001" d="M53 96q0 55 12.5 116t30.5 99q95 0 148 -22l-17 -158q67 -53 193 -53q91 0 151 49.5t60 132.5q0 46 -25.5 84.5t-66 66t-89.5 54t-98.5 56t-90 64.5t-66 87t-25.5 116q0 138 104.5 226t264.5 88q161 0 309 -74q0 -124 -45 -250q-93 0 -135 33l12 139q-23 15 -63 28 t-78 13q-86 0 -137.5 -43.5t-51.5 -109.5q0 -42 25.5 -78t66 -63.5t89.5 -55t97.5 -59.5t89 -68.5t66 -89.5t25.5 -117q0 -143 -87 -228t-228 -110l-27 -94q43 -8 74.5 -43.5t31.5 -85.5q0 -64 -43 -115.5t-102 -79t-121 -34.5q-41 41 -59 82q65 15 106 49t41 86 q0 37 -25 64t-65 38l60 123q-175 3 -308 82q-4 28 -4 55z" />
<glyph horiz-adv-x="733" d="M27 0q8 51 36 98q52 29 130 43l94 801q-62 3 -135 14q-2 23 1.5 59t10.5 52h452q0 -18 -6 -57t-12 -56q-57 -8 -143 -12l-86 -813q82 -7 151 -23q11 -55 0 -106h-493zM137 1483q30 24 93.5 40.5t115.5 16.5l201 -309q-17 -18 -58 -32.5t-73 -14.5z" />
<glyph horiz-adv-x="1284" d="M-37 0q7 55 29 92q50 32 119 51l489 934l160 23l278 -975q49 -4 97 -19q15 -49 18 -106h-448q7 49 38 98q60 25 123 33q-35 64 -47 117l-16 76h-443l-41 -86q-26 -58 -67 -109q70 -11 121 -29q14 -47 14 -100h-424zM365 1276l241 242l187 8l217 -273q-11 -22 -46 -49 t-61 -37l-215 213l-264 -227q-19 18 -35.5 54.5t-23.5 68.5zM416 442h354l-92 365q-19 69 -23 145h-14q-13 -55 -57 -149z" />
<glyph horiz-adv-x="1097" d="M33 0q1 18 13.5 48.5t23.5 49.5q53 29 129 43l86 799q-78 4 -135 14q-3 20 0.5 56.5t9.5 54.5q243 14 442 14q391 0 391 -284q0 -94 -36 -168.5t-96 -119t-132.5 -68t-150.5 -23.5q-86 0 -172 12l-31 -295q95 -7 180 -27q11 -55 0 -106h-522zM416 545q63 -8 159 -8 q108 0 174 62.5t66 178.5q0 87 -63.5 132.5t-169.5 45.5q-61 0 -127 -4z" />
<glyph horiz-adv-x="1286" d="M-25 -10l164 168q-61 104 -61 264q0 297 165 486.5t425 189.5q189 0 309 -94l141 143q23 -11 51 -35t39 -45l-151 -154q71 -110 71 -270q0 -305 -164 -494.5t-423 -189.5q-205 0 -326 102l-190 -192q-14 18 -30 56t-20 65zM264 440q0 -80 21 -145l579 586q-81 94 -209 94 q-126 0 -216.5 -74.5t-132.5 -193.5t-42 -267zM334 190q79 -106 219 -106q118 0 208.5 73t137.5 194t47 267q0 84 -26 164z" />
<glyph horiz-adv-x="1284" d="M-37 0q7 55 29 92q50 32 119 51l483 924q-133 30 -133 178q0 111 70 176.5t190 65.5q90 0 146.5 -47.5t56.5 -128.5q0 -91 -42 -151.5t-116 -84.5l272 -950q49 -4 97 -19q15 -49 18 -106h-448q7 49 38 98q60 25 123 33q-35 64 -47 117l-16 76h-443l-41 -86 q-26 -58 -67 -109q70 -11 121 -29q14 -47 14 -100h-424zM416 442h354l-92 365q-19 69 -23 145h-14q-13 -55 -57 -149zM518 1624l277 307q37 -9 84.5 -35.5t68.5 -50.5l-352 -319q-21 13 -44.5 41.5t-33.5 56.5zM580 1257q0 -100 102 -100q56 0 88.5 35t32.5 98 q0 45 -26.5 72t-69.5 27q-59 0 -93 -35t-34 -97z" />
<glyph horiz-adv-x="555" d="M113 6l131 959q45 18 129 18l-41 -977q-46 -12 -109 -12q-61 0 -110 12zM203 1305q0 54 37 90.5t90 36.5q58 0 92.5 -34t34.5 -93q0 -64 -35.5 -102t-91.5 -38q-127 0 -127 140z" />
<glyph horiz-adv-x="815" d="M27 1591q23 84 88.5 138.5t160.5 54.5q57 0 106.5 -21.5t92 -43t82.5 -21.5q45 0 75 26.5t38 63.5q48 0 106 -23q-13 -91 -79.5 -158t-172.5 -67q-48 0 -98.5 22.5t-97 45t-84.5 22.5q-46 0 -80 -28.5t-47 -67.5q-23 4 -51 22.5t-39 34.5z" />
<glyph horiz-adv-x="1417" d="M31 0q1 18 13.5 48.5t23.5 49.5q53 29 129 43l94 801q-62 3 -135 14q-2 23 1.5 59t10.5 52h436q0 -73 -18 -113q-53 -9 -133 -12l-37 -342h512l41 342q-55 3 -125 14q-2 23 1.5 59t10.5 52h436q0 -20 -6 -57.5t-14 -55.5q-56 -8 -137 -12l-88 -813q82 -7 151 -23 q11 -55 0 -106h-479q8 42 35 98q58 28 123 41l38 342h-509l-39 -352q72 -7 139 -23q11 -55 0 -106h-475zM440 1276l242 242l186 8l217 -273q-12 -22 -46 -49.5t-60 -36.5l-215 213l-264 -227q-19 18 -36 54.5t-24 68.5z" />
<glyph horiz-adv-x="600" d="M88 -170l176 1761h295q3 -21 -1.5 -57.5t-10.5 -58.5q-59 -9 -139 -13l-134 -1503q104 -4 158 -16q4 -22 2.5 -56.5t-6.5 -56.5h-340z" />
<glyph horiz-adv-x="815" d="M49 1636l250 191h207l229 -205q-11 -25 -35 -54t-47 -42l-264 155l-313 -168q-11 22 -19 59.5t-8 63.5z" />
<glyph horiz-adv-x="692" d="M109 741q95 180 233 383q31 12 84.5 21.5t95.5 9.5q-129 -221 -221 -414q48 -173 131 -389q-57 -29 -143 -37q-102 206 -180 426z" />
<glyph horiz-adv-x="1071" d="M23 98l682 830v14h-414q-8 -35 -28 -85t-38 -77q-25 0 -62 7t-50 16l30 264h779l6 -100l-670 -832v-14q266 0 459 20q21 91 59 168q28 8 70 10t67 -2l-61 -317h-819zM262 1458q20 21 56.5 40t68.5 22l203 -209l239 205q23 -7 49.5 -25t41.5 -35l-273 -285l-176 -6z" />
<glyph horiz-adv-x="1294" d="M45 0q10 53 39 106q71 26 147 33q115 192 115 482h-180q0 58 24 120h152q-6 59 -6 174q0 245 112.5 370.5t364.5 125.5q58 0 131.5 -13t120.5 -32q-13 -163 -55 -293q-69 0 -121 27l14 168q-75 22 -131 22q-252 0 -252 -362q0 -106 8 -187h394q9 -52 -7 -120h-385 q-9 -148 -51 -279t-110 -203v-10h508q21 111 43 182q58 15 131 15l-31 -326h-975z" />
<glyph horiz-adv-x="2048" d="M14 676q0 28 8.5 70.5t18.5 68.5h1888q7 -69 -8 -139h-1907z" />
<glyph horiz-adv-x="1134" d="M29 0q1 18 13.5 48.5t23.5 49.5q53 29 129 43l88 801q-83 4 -136 14q-2 22 2 58.5t11 52.5h821l-35 -279q-57 0 -96 17q-19 47 -31 139h-370l-35 -340h278q26 58 43 80q43 19 94 25l-38 -334q-44 -3 -101 10q-8 39 -8 100h-279l-32 -360h391q14 74 49 154q46 14 111 10 l-35 -289h-858zM330 1483q30 24 93.5 40.5t115.5 16.5l200 -309q-17 -18 -58 -32.5t-73 -14.5z" />
<glyph horiz-adv-x="1294" d="M141 35q14 173 52 332q28 0 74.5 -7t68.5 -16l-19 -199q85 -57 232 -57q141 0 214 68.5t73 195.5q0 64 -30.5 113t-78.5 82t-106.5 62.5t-117.5 63.5t-107 75.5t-78.5 108t-30.5 151.5q0 166 93.5 270.5t266.5 126.5l21 178q47 14 123 14l-17 -188q166 -7 303 -55 q-22 -184 -59 -303q-30 0 -68 8t-59 20l18 168q-73 39 -168 39q-132 0 -204 -62.5t-72 -166.5q0 -50 19 -90t51 -69t73.5 -54t88 -48t92.5 -48t87.5 -57.5t73.5 -71.5t51 -96t19 -126q0 -384 -397 -432l-21 -229q-20 -4 -72 -4q-43 0 -67 4l20 223q-192 6 -342 76z" />
<glyph horiz-adv-x="1284" d="M-37 0q7 55 29 92q50 32 119 51l489 934l160 23l278 -975q49 -4 97 -19q15 -49 18 -106h-448q7 49 38 98q60 25 123 33q-35 64 -47 117l-16 76h-443l-41 -86q-26 -58 -67 -109q70 -11 121 -29q14 -47 14 -100h-424zM367 1335q0 46 31 77.5t77 31.5q47 0 77 -29.5 t30 -79.5q0 -53 -30.5 -84.5t-76.5 -31.5q-108 0 -108 116zM416 442h354l-92 365q-19 69 -23 145h-14q-13 -55 -57 -149zM784 1335q0 46 31.5 77.5t77.5 31.5q47 0 76.5 -29.5t29.5 -79.5q0 -53 -30.5 -84.5t-75.5 -31.5q-53 0 -81 29.5t-28 86.5z" />
<glyph horiz-adv-x="1681" d="M35 844q6 51 39 106q64 24 131 35l4 37q28 241 156.5 357t359.5 116q147 0 301 -53l-25 -260q-24 -236 -59 -359h21q96 174 292 174q58 0 107 -19t89.5 -59t63.5 -111t23 -167q0 -155 -42 -292t-120 -228q-67 -76 -160 -116t-200 -40q-158 0 -314 55l158 1344 q-61 20 -143 20q-159 0 -241 -81t-105 -271l-9 -69h254q7 -54 -6 -119h-256l-121 -1151q-50 -8 -102 -8q-56 0 -80 8l142 1151h-158zM879 113q66 -25 139 -25q156 0 237 100q105 130 105 404q0 266 -186 266q-64 0 -131.5 -51t-100.5 -115z" />
<glyph horiz-adv-x="716" d="M6 -258q84 181 117 293l-78 20q37 87 84 138q33 8 80 8q80 0 141 -25q-37 -110 -113.5 -257.5t-134.5 -225.5q-22 6 -52.5 21.5t-43.5 27.5zM113 823q0 54 35 88.5t88 34.5q54 0 87 -33t33 -90q0 -60 -34 -95.5t-86 -35.5q-123 0 -123 131z" />
<glyph horiz-adv-x="1105" d="M76 424q0 184 79.5 338.5t220.5 245t312 90.5q165 0 283 -80q0 -155 -56 -273q-75 0 -124 27l18 166q-66 39 -141 39q-177 0 -287.5 -140t-110.5 -378q0 -170 78.5 -257t214.5 -87q72 0 162 15.5t156 37.5q0 -26 -11.5 -67.5t-25.5 -63.5q-69 -33 -163 -55.5t-181 -22.5 q-194 0 -309 132t-115 333zM362 1276l242 242l187 8l217 -273q-11 -22 -46 -49t-61 -37l-215 213l-264 -227q-19 18 -36 54.5t-24 68.5z" />
<glyph horiz-adv-x="1236" d="M74 416q0 191 82 346.5t230 245.5t333 90q187 0 317 -88q0 -58 -13.5 -126t-33.5 -118q-26 0 -66 8.5t-63 18.5l17 139q-82 49 -175 49q-202 0 -317 -143t-115 -398q0 -169 81 -258.5t218 -89.5q70 0 195 19l35 282q-101 10 -195 33q-11 55 -4 109h510q-8 -40 -39 -105 q-54 -26 -106 -35l-39 -362q-75 -28 -197 -51t-233 -23q-192 0 -307 127t-115 330zM377 1276l241 242l187 8l217 -273q-11 -22 -46 -49t-61 -37l-215 213l-264 -227q-19 18 -35.5 54.5t-23.5 68.5z" />
<glyph horiz-adv-x="815" d="M59 1757q22 22 59 39.5t72 20.5q32 -127 199 -127q85 0 142.5 32.5t80.5 94.5q32 0 70 -11t59 -28q-33 -114 -128 -179t-234 -65q-140 0 -224 59t-96 164z" />
<glyph d="M76 389l14 143l619 857h157l-67 -865h174q7 -66 -8 -135h-177l-20 -262q83 -4 158 -18q4 -22 4 -57t-4 -52h-510q7 57 30 109q95 20 150 22l22 258h-542zM244 520q46 4 118 4h271l45 496q7 92 22 160h-14l-442 -645v-15z" />
<glyph horiz-adv-x="1650" d="M84 1067h432q-5 -43 -27 -106q-70 -23 -145 -29q32 -99 43 -197l53 -418q11 -97 11 -190h14q19 77 59 195l258 733l215 22l80 -762q10 -110 10 -188h15q25 102 59 195l148 409q48 139 90 201q-70 11 -117 29q-13 49 -6 106h356q-7 -56 -30 -111q-40 -16 -89 -20 l-360 -946l-203 -23l-71 735q-13 123 -13 244h-14q-22 -108 -74 -250l-246 -706l-217 -23l-129 953q-59 17 -94 47q-12 48 -8 100zM541 1335q0 46 31 77.5t77 31.5q47 0 77 -29.5t30 -79.5q0 -53 -30.5 -84.5t-76.5 -31.5q-108 0 -108 116zM1032 1335q0 46 31.5 77.5 t77.5 31.5q47 0 76.5 -29.5t29.5 -79.5q0 -53 -30.5 -84.5t-75.5 -31.5q-53 0 -81 29.5t-28 86.5z" />
<glyph horiz-adv-x="1060" d="M33 0q1 18 13.5 48.5t23.5 49.5q53 29 129 43l94 801q-62 3 -135 14q-2 23 1.5 59t10.5 52h453q0 -17 -6.5 -56.5t-12.5 -56.5q-58 -8 -143 -12l-10 -86q45 2 131 2q391 0 391 -278q0 -87 -36.5 -156t-97 -110.5t-133 -63t-151.5 -21.5q-83 0 -168 9l-12 -109 q95 -7 180 -27q11 -53 0 -102h-522zM399 354q47 -4 154 -4q108 0 175 56.5t67 160.5q0 81 -64 124.5t-170 43.5q-33 0 -123 -4z" />
<glyph horiz-adv-x="522" d="M84 -72l47 445q58 16 131 16l-41 -461q-27 -6 -78 -6q-38 0 -59 6zM158 727l43 397q51 15 127 15l-37 -412q-27 -6 -76 -6q-36 0 -57 6z" />
<glyph d="M51 -55q51 -16 134 -25.5t151 -9.5q94 0 172 26t131 87t53 149q0 112 -93.5 162.5t-313.5 50.5q0 81 26 131q77 3 149 23t133.5 55t98.5 92t37 127q0 87 -54.5 124.5t-142.5 37.5q-104 0 -200 -29l-17 -151q-50 -27 -139 -27q-19 133 8 272q182 68 377 68q75 0 138 -14.5 t113.5 -44.5t79 -82.5t28.5 -122.5q0 -130 -89.5 -231.5t-214.5 -139.5v-10q56 -6 102.5 -23.5t85.5 -48t61 -79.5t22 -113q0 -94 -49 -177t-127 -137.5t-173.5 -86t-189.5 -31.5q-68 0 -145.5 12t-126.5 28q-13 26 -20.5 66.5t-4.5 71.5z" />
<glyph horiz-adv-x="733" d="M27 0q8 51 36 98q52 29 130 43l94 801q-62 3 -135 14q-2 23 1.5 59t10.5 52h452q0 -18 -6 -57t-12 -56q-57 -8 -143 -12l-86 -813q82 -7 151 -23q11 -55 0 -106h-493zM135 1255q0 28 8.5 72t18.5 70h495q7 -71 -8 -142h-514z" />
<glyph horiz-adv-x="1341" d="M23 0q3 19 14.5 50t21.5 48q51 28 129 43l95 801q-69 3 -133 14q-2 24 0.5 59.5t9.5 51.5h379l292 -711q42 -96 62 -209h14l84 795q-97 4 -157 14q-2 23 1.5 59t10.5 52h422q0 -17 -7.5 -56t-13.5 -59q-54 -6 -125 -10l-100 -938l-219 -27l-336 828q-30 78 -39 113h-14 l-84 -787q68 -6 147 -25q11 -55 0 -106h-454zM408 1458q20 22 56 40.5t68 21.5l203 -209l240 205q49 -15 90 -60l-272 -285l-177 -6z" />
<glyph horiz-adv-x="1001" d="M53 96q0 55 12.5 116t30.5 99q95 0 148 -22l-17 -158q67 -53 193 -53q91 0 151 49.5t60 132.5q0 46 -25.5 84.5t-66 66t-89.5 54t-98.5 56t-90 64.5t-66 87t-25.5 116q0 138 104.5 226t264.5 88q161 0 309 -74q0 -124 -45 -250q-93 0 -135 33l12 139q-23 15 -63 28 t-78 13q-86 0 -137.5 -43.5t-51.5 -109.5q0 -42 25.5 -78t66 -63.5t89.5 -55t97.5 -59.5t89 -68.5t66 -89.5t25.5 -117q0 -87 -34.5 -155t-94.5 -109.5t-135.5 -62.5t-161.5 -21q-192 0 -326 82q-4 28 -4 55zM238 1276l241 242l187 8l217 -273q-11 -22 -46 -49t-61 -37 l-215 213l-264 -227q-19 18 -35.5 54.5t-23.5 68.5z" />
<glyph d="M68 -49q40 -14 112.5 -24.5t124.5 -10.5q182 0 308.5 132t168.5 388h-14q-33 -69 -112 -110t-187 -41q-168 0 -258 100t-90 260q0 202 132.5 332.5t332.5 130.5q190 0 288.5 -128.5t98.5 -375.5q0 -232 -83 -423t-232.5 -302.5t-335.5 -111.5q-61 0 -125.5 12t-104.5 28 q-12 26 -20 70t-4 74zM299 664q0 -117 56.5 -183.5t168.5 -66.5q160 0 267 139q8 78 8 141q0 139 -59.5 217t-168.5 78q-124 0 -198 -92.5t-74 -232.5z" />
<glyph horiz-adv-x="671" d="M53 666q0 30 9 76t20 75h444q9 -64 -8 -151h-465z" />
<glyph horiz-adv-x="815" d="M215 1694q0 50 32.5 81t84.5 31q51 0 80.5 -29t29.5 -83q0 -56 -30.5 -87.5t-79.5 -31.5q-117 0 -117 119z" />
<glyph d="M131 446q0 67 23 134h272l162 235h-416q0 66 23 133h473l116 170q65 0 111 -16l-104 -154h215q6 -62 -9 -133h-288l-158 -235h418q7 -66 -8 -134h-490l-131 -194q-19 5 -50.5 23.5t-43.5 33.5l94 137h-209z" />
<glyph d="M78 -59q46 -13 121.5 -24t128.5 -11q157 0 265.5 86.5t108.5 238.5q0 110 -66 158.5t-204 48.5q-119 0 -239 -26l108 655h672q-7 -97 -41 -182q-167 10 -522 18l-54 -358q88 20 179 20q168 0 262 -78.5t94 -240.5q0 -111 -46.5 -203.5t-123.5 -151.5t-173 -91.5 t-198 -32.5q-132 0 -248 38q-12 24 -19.5 65t-4.5 71z" />
<glyph horiz-adv-x="1001" d="M53 96q0 55 12.5 116t30.5 99q95 0 148 -22l-17 -158q67 -53 193 -53q91 0 151 49.5t60 132.5q0 46 -25.5 84.5t-66 66t-89.5 54t-98.5 56t-90 64.5t-66 87t-25.5 116q0 138 104.5 226t264.5 88q161 0 309 -74q0 -124 -45 -250q-93 0 -135 33l12 139q-23 15 -63 28 t-78 13q-86 0 -137.5 -43.5t-51.5 -109.5q0 -42 25.5 -78t66 -63.5t89.5 -55t97.5 -59.5t89 -68.5t66 -89.5t25.5 -117q0 -87 -34.5 -155t-94.5 -109.5t-135.5 -62.5t-161.5 -21q-192 0 -326 82q-4 28 -4 55zM438 1251l277 308q37 -9 84.5 -35.5t68.5 -50.5l-352 -320 q-21 13 -44.5 41.5t-33.5 56.5z" />
<glyph d="M188 285l574 407v15l-494 403q20 23 57 49.5t72 44.5l539 -442l-6 -121l-664 -481q-19 14 -45.5 56.5t-32.5 68.5z" />
<glyph horiz-adv-x="1783" d="M35 844q6 51 39 106q58 22 131 35l12 90q28 204 134 302t255 98q98 0 193 -35q0 -50 -17.5 -125t-38.5 -117q-23 0 -55 10t-49 23l18 129q-22 14 -61 14q-79 0 -140 -62.5t-77 -203.5l-17 -145h472l6 57q26 244 158 359.5t372 115.5q159 0 309 -51q0 -53 -19.5 -129.5 t-43.5 -128.5q-27 0 -64.5 11t-56.5 24l21 135q-62 26 -150 26q-167 0 -254 -80t-111 -270l-8 -69h236q7 -54 -6 -119h-238l-88 -840q-50 -8 -100 -8q-54 0 -78 8l104 840h-469l-121 -1151q-50 -8 -102 -8q-56 0 -80 8l142 1151h-158zM1096 -397q98 101 172 247t96 306 l94 694l-149 -16q0 17 12.5 54.5t24.5 49.5q92 47 202 47q52 0 84 -8l-92 -768q-24 -195 -120 -367.5t-242 -310.5q-22 8 -47.5 30t-34.5 42z" />
<glyph horiz-adv-x="2269" d="M35 844q6 51 39 106q58 22 131 35l12 90q28 204 134 302t255 98q98 0 193 -35q0 -50 -17.5 -125t-38.5 -117q-23 0 -55 10t-49 23l18 129q-22 14 -61 14q-79 0 -140 -62.5t-77 -203.5l-17 -145h472l6 59q48 473 512 473q154 0 311 -53l-111 -998q119 74 236.5 179.5 t187.5 193.5q0 16 -6 31l-145 -6q0 25 12.5 60.5t30.5 53.5q115 23 229 23q16 -21 34.5 -66t18.5 -65q-43 -78 -142.5 -183t-215.5 -188q58 -118 123 -224.5t106 -152.5l121 23q1 -23 -6 -59t-18 -56q-32 -18 -91.5 -34t-103.5 -21q-46 48 -116 175.5t-138 277.5 q-65 -42 -127 -70l-35 -332q-50 -8 -98 -8q-52 0 -76 8l164 1360q-61 20 -147 20q-160 0 -243 -81t-106 -271l-8 -69h254q7 -54 -6 -119h-256l-121 -1151q-50 -8 -102 -8q-56 0 -80 8l141 1151h-469l-88 -840q-50 -8 -100 -8q-54 0 -78 8l105 840h-158z" />
<glyph horiz-adv-x="2379" d="M35 844q6 51 39 106q58 22 131 35l12 90q28 204 134 302t255 98q98 0 193 -35q0 -50 -17.5 -125t-38.5 -117q-23 0 -55 10t-49 23l18 129q-22 14 -61 14q-79 0 -140 -62.5t-77 -203.5l-17 -145h472l6 59q48 473 512 473q154 0 311 -53l-27 -260q-17 -172 -57 -348h20 q104 163 310 163q237 0 237 -254q0 -55 -15.5 -177.5t-36.5 -263t-23 -157.5q0 -19 10 -34l157 16q0 -23 -10 -59t-22 -56q-49 -19 -123 -33t-119 -14q-29 33 -50.5 79t-21.5 73q80 444 80 569q0 82 -37 129t-110 47q-82 0 -151.5 -60.5t-96.5 -129.5l-76 -668 q-50 -8 -98 -8q-52 0 -76 8l170 1360q-61 20 -147 20q-160 0 -243 -81t-106 -271l-8 -69h254q7 -54 -6 -119h-256l-121 -1151q-50 -8 -102 -8q-56 0 -80 8l141 1151h-469l-88 -840q-50 -8 -100 -8q-54 0 -78 8l105 840h-158z" />
<glyph horiz-adv-x="686" d="M104 358q128 221 205 383q-40 151 -123 377q25 17 65.5 29t74.5 12q129 -273 174 -418q-97 -179 -264 -426q-31 1 -71.5 14.5t-60.5 28.5z" />
<glyph d="M98 147q36 31 108 87.5t136 105.5t138.5 114.5t127 123.5t88 122.5t35.5 120.5q0 154 -178 154q-96 0 -193 -43l-20 -172q-56 -27 -135 -27q-8 41 -8 111q0 96 22 176q180 88 359 88q158 0 252 -61.5t94 -184.5q0 -71 -36.5 -148t-88 -138.5t-128 -130t-134.5 -112 t-132 -97t-98 -72.5v-14q290 3 588 24q-4 -101 -27 -174h-762z" />
<glyph d="M98 0q0 48 25 131h768q7 -65 -8 -131h-785zM174 438l567 420v14l-497 422q18 20 61.5 49t71.5 41l536 -462l-6 -109l-651 -500q-17 12 -46.5 57t-35.5 68z" />
<glyph horiz-adv-x="1097" d="M57 762l37 305h930l-35 -303q-60 4 -100 20q-21 69 -25 160h-235l-80 -813q88 -7 166 -25q11 -55 0 -106h-522q7 42 36 98q64 30 146 43l84 803h-238q-16 -83 -53 -162q-50 -20 -111 -20zM236 -487q82 159 110 258l-70 14q34 78 70 117q30 6 66 6q58 0 129 -23 q-29 -87 -100 -218t-122 -199q-50 12 -83 45z" />
<glyph d="M125 635q0 62 25 139h841l-33 -358q-27 -8 -86 -8q-46 0 -67 8l24 219h-704z" />
<glyph horiz-adv-x="1105" d="M76 424q0 184 79.5 338.5t220.5 245t312 90.5q165 0 283 -80q0 -155 -56 -273q-75 0 -124 27l18 166q-66 39 -141 39q-177 0 -287.5 -140t-110.5 -378q0 -170 78.5 -257t214.5 -87q72 0 162 15.5t156 37.5q0 -26 -11.5 -67.5t-25.5 -63.5q-69 -33 -163 -55.5t-181 -22.5 q-194 0 -309 132t-115 333zM352 1458q20 21 56.5 40t68.5 22l203 -209l240 205q49 -15 90 -60l-273 -285l-176 -6z" />
<glyph horiz-adv-x="1261" d="M82 1067h475q0 -55 -20 -109q-73 -12 -162 -16l-51 -530q-5 -57 -5 -68q0 -54 12 -97.5t38 -79.5t72.5 -55.5t111.5 -19.5q133 0 212.5 86.5t92.5 220.5l55 543q-77 4 -129 14q0 70 13 111h405q-7 -77 -20 -113q-50 -8 -125 -12l-51 -549q-19 -191 -151.5 -312.5 t-332.5 -121.5q-202 0 -290.5 92.5t-88.5 259.5q0 34 7 92l55 533q-75 9 -117 22q-6 34 -6 109zM348 1270q23 81 79 127.5t146 46.5q48 0 90 -21t79.5 -42t74.5 -21q35 0 62.5 25t38.5 61q42 0 90 -23q-15 -87 -73 -149t-151 -62q-48 0 -126 43t-119 43q-38 0 -71 -27 t-44 -63q-20 3 -43 23t-33 39z" />
<glyph horiz-adv-x="1249" d="M-31 0q3 18 15 49t22 45q25 14 66.5 28t70.5 19l349 414l-220 367q-57 9 -112 34q-12 46 -8 111h430q-6 -52 -25 -106q-59 -19 -117 -23q41 -38 82 -104l115 -189l158 203q30 41 82 86q-54 6 -113 29q-9 54 -6 104h381q-4 -52 -29 -109q-47 -15 -98 -22l-318 -385 l260 -420q50 -7 111 -31q16 -53 16 -100h-469q5 40 33 98q65 26 123 35q-45 36 -80 96l-135 224l-184 -240q-40 -54 -76 -82q65 -7 133 -31q10 -42 10 -100h-467z" />
<glyph horiz-adv-x="815" d="M219 1360q0 111 70 176.5t190 65.5q90 0 146.5 -48t56.5 -129q0 -119 -68.5 -184t-183.5 -65q-211 0 -211 184zM338 1372q0 -100 102 -100q56 0 88.5 35t32.5 98q0 45 -26.5 71.5t-69.5 26.5q-59 0 -93 -34.5t-34 -96.5z" />
<glyph horiz-adv-x="1134" d="M29 0q1 18 13.5 48.5t23.5 49.5q53 29 129 43l88 801q-83 4 -136 14q-2 22 2 58.5t11 52.5h821l-35 -279q-57 0 -96 17q-19 47 -31 139h-370l-35 -340h278q26 58 43 80q43 19 94 25l-38 -334q-44 -3 -101 10q-8 39 -8 100h-279l-32 -360h391q14 74 49 154q46 14 111 10 l-35 -289h-858z" />
<glyph horiz-adv-x="733" d="M27 0q8 51 36 98q52 29 130 43l94 801q-62 3 -135 14q-2 23 1.5 59t10.5 52h452q0 -18 -6 -57t-12 -56q-57 -8 -143 -12l-86 -813q82 -7 151 -23q11 -55 0 -106h-493zM94 1452q20 19 58.5 33.5t74.5 17.5q7 -94 47 -139t115 -45q154 0 211 186q26 -1 64 -13t59 -24 q-37 -139 -125.5 -219t-226.5 -80q-261 0 -277 283z" />
<glyph horiz-adv-x="1196" d="M37 0q1 18 13.5 48.5t23.5 49.5q53 29 129 43l88 803q-79 4 -135 14q-3 20 0.5 56.5t9.5 54.5q171 10 430 10q189 0 296 -69t107 -205q0 -118 -63.5 -210t-202.5 -128q68 -143 127.5 -254.5t73.5 -114.5l108 8q0 -24 -11 -60.5t-23 -57.5q-90 -23 -197 -29 q-31 17 -87.5 139.5t-148.5 352.5q-63 0 -161 10l-35 -332q69 -6 137 -23q11 -55 0 -106h-479zM381 -487q84 163 111 258l-70 14q34 78 70 117q30 6 65 6q58 0 129 -23q-29 -88 -100 -218.5t-121 -198.5q-23 6 -47.5 19.5t-36.5 25.5zM422 569q77 -6 164 -6 q108 0 171.5 58.5t63.5 173.5q0 82 -65.5 121.5t-184.5 39.5q-83 0 -110 -2z" />
<glyph d="M76 434q0 308 144 491t398 183q197 0 295.5 -117t98.5 -358q0 -199 -63.5 -350.5t-188.5 -237.5t-297 -86q-195 0 -291 117t-96 358zM262 449q0 -183 55 -272t172 -89q110 0 189 74.5t116 194t37 268.5q0 177 -57.5 266.5t-181.5 89.5q-69 0 -125 -28.5t-93.5 -77.5 t-63 -117t-37 -145t-11.5 -164z" />
<glyph d="M121 449q0 227 90 423t245 312t337 116q100 0 186 -36q12 -25 20 -68.5t7 -75.5q-37 18 -101.5 28.5t-113.5 10.5q-173 0 -300.5 -135.5t-173.5 -392.5h15q39 69 115 111t184 42q166 0 258 -101t92 -261q0 -203 -132.5 -333t-334.5 -130q-189 0 -291 126.5t-102 363.5z M301 408q0 -150 58.5 -238t168.5 -88q123 0 198 97t75 235q0 114 -59 177.5t-167 63.5q-79 0 -141 -33t-125 -102q-8 -63 -8 -112z" />
<glyph horiz-adv-x="1294" d="M145 1370h482q-3 -57 -29 -115q-55 -10 -166 -14q41 -64 70 -139l106 -279q27 -75 35 -139h14q17 50 66 133l164 281q60 98 100 141q-79 4 -129 16q-12 47 -12 115h401q0 -57 -24 -119q-34 -6 -97 -10l-319 -510h199q8 -55 -7 -108h-262l-41 -68l-8 -94h303 q8 -58 -6 -109h-305l-16 -227q97 -7 176 -19q10 -46 -4 -106h-560q7 41 33 104q87 18 168 25l23 223h-299q0 50 22 109h287l10 96l-26 66h-279q0 46 23 108h215l-197 504q-54 4 -100 16q-18 64 -11 119z" />
<glyph d="M184 1010l33 360h836l-15 -158q-368 -645 -577 -1208q-42 -10 -96 -10q-73 0 -115 10q198 473 629 1182v14h-519q-11 -77 -43 -176q-61 -14 -133 -14z" />
<glyph horiz-adv-x="1071" d="M23 98l682 830v14h-414q-8 -35 -28 -85t-38 -77q-25 0 -62 7t-50 16l30 264h779l6 -100l-670 -832v-14q266 0 459 20q21 91 59 168q28 8 70 10t67 -2l-61 -317h-819zM473 1346q0 51 31.5 81.5t81.5 30.5t79 -29t29 -83q0 -56 -30 -87.5t-78 -31.5q-113 0 -113 119z" />
<glyph horiz-adv-x="1341" d="M23 0q3 19 14.5 50t21.5 48q51 28 129 43l95 801q-69 3 -133 14q-2 24 0.5 59.5t9.5 51.5h379l292 -711q42 -96 62 -209h14l84 795q-97 4 -157 14q-2 23 1.5 59t10.5 52h422q0 -17 -7.5 -56t-13.5 -59q-54 -6 -125 -10l-100 -938l-219 -27l-336 828q-30 78 -39 113h-14 l-84 -787q68 -6 147 -25q11 -55 0 -106h-454zM399 1270q23 81 79.5 127.5t146.5 46.5q48 0 89.5 -21t79 -42t74.5 -21q35 0 62.5 25t38.5 61q42 0 90 -23q-15 -87 -72.5 -149t-150.5 -62q-48 0 -126.5 43t-119.5 43q-38 0 -71 -27t-44 -63q-20 3 -43 23t-33 39z" />
</font>
</defs>
</svg>
