<?xml version="1.0" encoding="UTF-8" standalone="no"?>
<!-- Created with Inkscape (http://www.inkscape.org/) -->

<svg
   xmlns:dc="http://purl.org/dc/elements/1.1/"
   xmlns:cc="http://creativecommons.org/ns#"
   xmlns:rdf="http://www.w3.org/1999/02/22-rdf-syntax-ns#"
   xmlns:svg="http://www.w3.org/2000/svg"
   xmlns:xlink="http://www.w3.org/1999/xlink"
   xmlns="http://www.w3.org/2000/svg"
   version="1.1"
   x="0"
   y="0"
   width="1724"
   height="424"
   viewBox="0 0 1724 424"
   xml:space="preserve">

  <defs>

    <path id="addmember" d="M 8.8125,2 C 8.4355,2 8.077,2.0615 7.75,2.1875 7.422,2.3155 7.119,2.50325 6.875,2.78125 6.63,3.05925 6.4545,3.433 6.3125,3.875 6.1695,4.317 6.09375,4.861 6.09375,5.5 c 0,0.487 0.04325,0.942 0.15625,1.375 0.112,0.432 0.27675,0.81525 0.46875,1.15625 0.052,0.146 0.085,0.28025 0.125,0.40625 C 6.87675,8.5455 6.9065,8.646 6.9375,8.75 6.9665,8.855 6.987,8.95 7,9 l 0,1.0625 C 6.794,10.1515 6.5845,10.26 6.3125,10.375 6.0405,10.488 5.7415,10.59075 5.4375,10.71875 5.1355,10.84575 4.83825,10.999 4.53125,11.125 4.22425,11.253 3.903,11.35875 3.625,11.46875 3.347,11.57875 3.1,11.666 2.875,11.75 2.65,11.838 2.48275,11.92475 2.34375,11.96875 2.07375,12.06475 1.8605,12.181 1.6875,12.375 c -0.171,0.192 -0.30725,0.38975 -0.40625,0.59375 -0.12,0.233 -0.22325,0.491 -0.28125,0.75 l 0,1.21875 8,0 C 8.998,14.5865 8.994,13.017 9,12 c 0.004,-0.766 2.0645,-0.964 3.6875,-1 -0.175,-0.071 -0.35825,-0.14575 -0.53125,-0.21875 -0.288,-0.12 -0.57175,-0.23075 -0.84375,-0.34375 -0.27,-0.113 -0.50875,-0.2255 -0.71875,-0.3125 l 0,-1.09375 c 0,-0.049 -7.5e-4,-0.138 0.03125,-0.25 C 10.657,8.67125 10.71,8.5585 10.75,8.4375 10.795,8.2985 10.85425,8.157 10.90625,8 11.09925,7.658 11.23375,7.27075 11.34375,6.84375 11.45175,6.41675 11.5,5.974 11.5,5.5 c 0,-0.644 -0.07675,-1.21325 -0.21875,-1.65625 -0.143,-0.446 -0.3155,-0.7875 -0.5625,-1.0625 -0.249,-0.275 -0.547,-0.46875 -0.875,-0.59375 C 9.51775,2.0645 9.1825,2 8.8125,2 z m 5.875,8 c -0.34,0 -0.625,0.285 -0.625,0.625 l 0,2.4375 -2.4375,0 c -0.341,0 -0.625,0.285 -0.625,0.625 l 0,0.625 c 0,0.339 0.284,0.625 0.625,0.625 l 2.4375,0 0,2.4375 c 0,0.34 0.285,0.625 0.625,0.625 l 0.625,0 c 0.341,0 0.625,-0.285 0.625,-0.625 l 0,-2.4375 2.4375,0 c 0.34,0 0.625,-0.286 0.625,-0.625 l 0,-0.625 c 0,-0.339 -0.285,-0.625 -0.625,-0.625 l -2.4375,0 0,-2.4375 c 0,-0.34 -0.284,-0.625 -0.625,-0.625 l -0.625,0 z"/>

    <path id="settingsalt" d="M 9,2 9,4.09375 C 8.091,4.24775 7.25225,4.611 6.53125,5.125 L 5.0625,3.625 3.625,5.0625 5.125,6.53125 C 4.613,7.25225 4.24775,8.089 4.09375,9 L 2,9 l 0,2 2.09375,0 c 0.153,0.91 0.51825,1.74775 1.03125,2.46875 l -1.5,1.46875 1.4375,1.4375 1.46875,-1.5 C 7.25225,15.389 8.091,15.75225 9,15.90625 L 9,18 l 2,0 0,-2.09375 c 0.91,-0.154 1.74775,-0.51725 2.46875,-1.03125 l 1.46875,1.5 1.4375,-1.4375 -1.5,-1.46875 C 15.389,12.74775 15.75225,11.911 15.90625,11 L 18,11 18,9 15.90625,9 C 15.75225,8.09 15.389,7.25225 14.875,6.53125 l 1.5,-1.46875 -1.4375,-1.4375 -1.46875,1.5 C 12.74775,4.611 11.911,4.24775 11,4.09375 L 11,2 9,2 z m 1,4 c 2.209,0 4,1.79 4,4 0,2.21 -1.791,4 -4,4 C 7.79,14 6,12.209 6,10 6,7.79 7.791,6 10,6 z m 0,3 c -0.552,0 -1,0.448 -1,1 0,0.554 0.448,1 1,1 0.553,0 0.999,-0.446 1,-1 0,-0.552 -0.447,-1 -1,-1 z"/>

    <path id="people" d="m 10,4 c -0.335,0 -2.6875,-0.01275 -2.6875,3.5625 0,2.2752498 1,1.6300007 1,3.90625 0,0.97425 -0.65525,0.64975 -2.65625,1.625 C 3.91925,13.942097 3,14.400999 3,17 l 7,0 7,0 c 0,-2.598002 -0.9505,-3.056903 -2.6875,-3.90625 -2.001,-0.974251 -2.65625,-0.64975 -2.65625,-1.625 0,-2.27525 1,-1.6310002 1,-3.90625 C 12.65625,3.9872502 10.334,4 10,4 z"/>

    <path id="people_shade" d="m 4.1875,5.09375 c -0.249,0 -2.0625,0.00756 -2.0625,2.6875 0,1.7046887 0.75,1.2015613 0.75,2.90625 0,0.730438 -0.36275,0.663177 -1.21875,1.21875 C 0.44325,12.694643 0,12.894249 0,14.84375 l 2.0625,0 c 0.492,-1.49585 1.58875,-2.046267 2.96875,-2.71875 0.425,-0.208839 0.803,-0.345844 1.125,-0.46875 -0.368,-0.331744 -0.4375,-0.406183 -0.4375,-0.96875 0,-1.7046887 0.71875,-1.2015613 0.71875,-2.90625 0,-2.6799386 -1.999,-2.6875 -2.25,-2.6875 z m 11.625,0 c -0.25,0 -2.25,0.00756 -2.25,2.6875 0,1.7046887 0.71875,1.2015613 0.71875,2.90625 0,0.563567 -0.0635,0.634008 -0.4375,0.96875 0.204,0.07594 0.4445,0.173333 0.6875,0.28125 0.141,0.06195 0.2825,0.11156 0.4375,0.1875 1.38,0.671484 2.47875,1.221901 2.96875,2.71875 l 2.0625,0 c 0,-1.949501 -0.44525,-2.149107 -1.65625,-2.9375 -0.858,-0.555573 -1.21875,-0.488312 -1.21875,-1.21875 0,-1.7046887 0.75,-1.2015613 0.75,-2.90625 0,-2.6799386 -1.8135,-2.6875 -2.0625,-2.6875 z"/>

    <path id="questions" d="m 9.987,13.558023 c -0.256,0 -0.477,0.099 -0.663,0.298 -0.184,0.197 -0.278,0.433 -0.278,0.707 0,0.274 0.094,0.509 0.278,0.707 0.186,0.197 0.408,0.296 0.663,0.296 0.257,0 0.479,-0.099 0.665,-0.296 0.184,-0.197 0.278,-0.433 0.278,-0.707 0,-0.274 -0.094,-0.509 -0.278,-0.707 -0.186,-0.199 -0.408,-0.298 -0.665,-0.298 l 0,0 z m 2.184,-8.386 c -0.257,-0.238 -0.56,-0.421 -0.906,-0.548 -0.348,-0.126 -0.721,-0.189 -1.119,-0.189 -0.838,0 -1.54,0.251 -2.104,0.752 -0.566,0.501 -0.912,1.194 -1.035,2.077 l 1.456,0.152 c 0.057,-0.508 0.23,-0.919 0.521,-1.232 0.29,-0.314 0.668,-0.472 1.134,-0.472 0.209,0 0.406,0.042 0.592,0.123 0.186,0.081 0.345,0.192 0.479,0.335 0.133,0.141 0.239,0.311 0.32,0.508 0.081,0.199 0.121,0.414 0.121,0.647 0,0.235 -0.04,0.445 -0.121,0.631 -0.081,0.188 -0.183,0.366 -0.307,0.532 -0.123,0.168 -0.262,0.33 -0.414,0.487 -0.152,0.157 -0.304,0.312 -0.456,0.464 -0.191,0.193 -0.349,0.357 -0.477,0.495 -0.129,0.136 -0.231,0.278 -0.307,0.425 -0.076,0.147 -0.133,0.312 -0.171,0.495 -0.037,0.181 -0.057,0.409 -0.057,0.684 v 0.927 h 1.37 v -0.67 c 0,-0.212 0.01,-0.39 0.028,-0.532 0.019,-0.141 0.055,-0.27 0.107,-0.387 0.053,-0.116 0.125,-0.228 0.215,-0.335 0.091,-0.107 0.21,-0.236 0.364,-0.388 l 0.142,-0.137 0.856,-0.943 c 0.191,-0.252 0.338,-0.524 0.443,-0.814 0.104,-0.288 0.156999,-0.626 0.156999,-1.011 0,-0.446 -0.074,-0.844 -0.221999,-1.194 -0.152,-0.35 -0.352,-0.645 -0.609,-0.882 l 0,0 z"/>

    <path id="questions_shade" d="m 10,-9.77e-4 c -5.523,0 -10,4.477 -10,10.001 0,5.523 4.477,10 10,10 5.521999,0 10.000999,-4.477 10.000999,-10.001 0,-5.523 -4.479,-10 -10.000999,-10 l 0,0 z m 0,18.036 c -4.438,0 -8.035,-3.597 -8.035,-8.035 0,-4.438 3.597,-8.035 8.035,-8.035 4.437999,0 8.034999,3.597 8.034999,8.035 0.001,4.438 -3.597,8.035 -8.034999,8.035 l 0,0 z"/>

    <path id="sliders" d="M 1.999991,11 V 9.001 h 16.001 V 11 h -16.001 l 0,0 z m 3.999,1.001 c -0.552,0 -1,-0.448 -1,-1.001 V 9.001 c 0,-0.553 0.448,-1.001 1,-1.001 0.553,0 1.001,0.448 1.001,1.001 V 11 c 0.001,0.553 -0.447,1.001 -1.001,1.001 l 0,0 z"/>

    <path id="sliders_shade" d="M 1.999991,17.001 V 15 h 16.001 v 2.001 h -16.001 l 0,0 z m 0,-12 V 3 h 16.001 v 2.001 h -16.001 l 0,0 z m 11.999,1 c -0.552,0 -1,-0.448 -1,-1 V 3 c 0,-0.552 0.448,-1 1,-1 0.553,0 1.001,0.448 1.001,1 v 2.001 c 0,0.552 -0.448,1 -1.001,1 l 0,0 z M 11.000991,18 c -0.553,0 -1.001,-0.448 -1.001,-1 v -2 c 0,-0.552 0.448,-1 1.001,-1 0.552,0 1,0.448 1,1 v 2.001 c -0.001,0.551 -0.449,0.999 -1,0.999 l 0,0 z"/>

    <path id="lock" transform="translate(3,2)" d="M11,6.062v-2c0-2.209-1.791-4-4-4H6c-2.209,0-4,1.791-4,4v2 c-1.105,0-2,0.895-2,2v6c0,1.105,0.895,2,2,2h9c1.105,0,2-0.895,2-2v-6C13,6.958,12.105,6.062,11,6.062z M7,10.971v2.592 c0,0.276-0.224,0.5-0.5,0.5S6,13.839,6,13.562v-2.592c-0.581-0.207-1-0.756-1-1.408c0-0.828,0.672-1.5,1.5-1.5S8,8.734,8,9.562 C8,10.215,7.581,10.764,7,10.971z M9,6.062H4v-2c0-1.105,0.895-2,2-2h1c1.105,0,2,0.895,2,2V6.062z"/>

    <path id="tools" d="M 11,8 H 9 C 8.448,8 8,8.448 8,9 v 2 c 0,0.552 0.448,1 1,1 h 2 c 0.552,0 1,-0.448 1,-1 V 9 C 12,8.448 11.552,8 11,8 z"/>

    <path id="tools_shade" d="M 5,2 H 3 C 2.448,2 2,2.448 2,3 V 5 C 2,5.552 2.448,6 3,6 H 5 C 5.552,6 6,5.552 6,5 V 3 C 6,2.448 5.552,2 5,2 z m 6,0 H 9 C 8.448,2 8,2.448 8,3 v 2 c 0,0.552 0.448,1 1,1 h 2 c 0.552,0 1,-0.448 1,-1 V 3 C 12,2.448 11.552,2 11,2 z m 6,0 h -2 c -0.552,0 -1,0.448 -1,1 v 2 c 0,0.552 0.448,1 1,1 h 2 c 0.552,0 1,-0.448 1,-1 V 3 C 18,2.448 17.552,2 17,2 z M 5,8 H 3 C 2.448,8 2,8.448 2,9 v 2 c 0,0.552 0.448,1 1,1 h 2 c 0.552,0 1,-0.448 1,-1 V 9 C 6,8.448 5.552,8 5,8 z m 12,0 h -2 c -0.552,0 -1,0.448 -1,1 v 2 c 0,0.552 0.448,1 1,1 h 2 c 0.552,0 1,-0.448 1,-1 V 9 C 18,8.448 17.552,8 17,8 z M 5,14 H 3 c -0.552,0 -1,0.448 -1,1 v 2 c 0,0.552 0.448,1 1,1 h 2 c 0.552,0 1,-0.448 1,-1 V 15 C 6,14.448 5.552,14 5,14 z m 6,0 H 9 c -0.552,0 -1,0.448 -1,1 v 2 c 0,0.552 0.448,1 1,1 h 2 c 0.552,0 1,-0.448 1,-1 v -2 c 0,-0.552 -0.448,-1 -1,-1 z m 6,0 h -2 c -0.552,0 -1,0.448 -1,1 v 2 c 0,0.552 0.448,1 1,1 h 2 c 0.552,0 1,-0.448 1,-1 v -2 c 0,-0.552 -0.448,-1 -1,-1 z"/>

    <path id="arrow" d="M 5.71875,8 C 5.32275,8 5,8.32375 5,8.71875 c 0,0.202 0.08275,0.37 0.21875,0.5 L 9.5,12.8125 C 9.629,12.9335 9.807,13 10,13 c 0.193,0 0.372,-0.0655 0.5,-0.1875 L 14.78125,9.21875 C 14.91625,9.08875 15,8.92075 15,8.71875 15,8.32375 14.67625,8 14.28125,8 c -0.193,0 -0.372,0.0635 -0.5,0.1875 L 10,11.28125 6.21875,8.1875 C 6.09075,8.0635 5.90975,8 5.71875,8 z"/>

    <path id="logout" d="M 3,2 C 2.448,2 2,2.448 2,3 l 0,14 c 0,0.552 0.448,1 1,1 l 2,0 3,0 2,0 c 0.552,0 1,-0.447 1,-1 0,-0.552 -0.448,-1 -1,-1 L 8,16 5,16 4,16 4,15 4,5 4,4 7,4 10,4 C 10.552,4 11,3.552 11,3 11,2.447 10.552,2 10,2 L 7,2 5,2 3,2 z m 11,4 0,3 -6,0 c -0.552,0 -1,0.448 -1,1 0,0.552 0.448,1 1,1 l 6,0 0,3 4,-4 -4,-4 z"/>

    <path id="loupe" d="M 8.40625,3 C 5.42825,3.002 3.018,5.397 3,8.375 c -0.02,2.992 2.38,5.45075 5.375,5.46875 l 0.03125,0 c 0.862,0 1.68325,-0.2045 2.40625,-0.5625 0.02,-0.011 0.0405,-0.02225 0.0625,-0.03125 0.103,-0.049 0.22275,-0.08775 0.34375,-0.09375 l 0.03125,0 c 0.219,0 0.4065,0.09175 0.5625,0.21875 0.051,0.041 0.11625,0.076 0.15625,0.125 0.505,0.51 1.542,1.608 2.875,3.125 0.009,0.012 0.01925,0.02025 0.03125,0.03125 0.468,0.491 1.29925,0.4265 1.78125,-0.0625 0.481,-0.491 0.462,-1.316 0,-1.75 -0.009,-0.009 -0.02025,-0.02125 -0.03125,-0.03125 -1.524,-1.324 -2.56675,-2.29325 -3.09375,-2.78125 -0.066,-0.046 -0.1355,-0.09525 -0.1875,-0.15625 -0.13,-0.158 -0.21875,-0.37475 -0.21875,-0.59375 0,-0.04 0.02725,-0.05575 0.03125,-0.09375 0.011,-0.077 0.0023,-0.14875 0.03125,-0.21875 0.02,-0.052 0.06275,-0.10725 0.09375,-0.15625 0.349,-0.709 0.5565,-1.49975 0.5625,-2.34375 C 13.86175,5.47675 11.4325,3.018 8.4375,3 8.4255,2.998 8.41725,3 8.40625,3 z m 0,1.375 0.03125,0 c 1.079,0.006 2.08575,0.45175 2.84375,1.21875 0.758,0.767 1.16325,1.76675 1.15625,2.84375 -0.003,0.477 -0.088,0.94 -0.25,1.375 -0.202,0.544 -0.5135,1.04775 -0.9375,1.46875 -0.439,0.435 -0.96225,0.77375 -1.53125,0.96875 -0.418,0.144 -0.8585,0.21875 -1.3125,0.21875 l -0.03125,0 c -2.227,-0.014 -4.014,-1.8375 -4,-4.0625 C 4.389,6.19625 6.19425,4.375 8.40625,4.375 z"/>

    <path id="radio" d="m 11.16681,9.3557 c -0.12665,-0.3599 -0.0384,-0.7616 0.22767,-1.0351 0.3478,-0.3574 0.56201,-0.8454 0.56201,-1.3835 0,-1.0961 -0.88855,-1.9848 -1.9848,-1.9848 -1.09617,0 -1.98463,0.8887 -1.98463,1.9848 0,0.5522 0.22566,1.0515 0.58972,1.4111 0.27673,0.2733 0.37079,0.6823 0.24168,1.0491 l -3.46373,9.8427 h 1.85461 c 0.86925,-2.4709 4.71194,-2.4714 5.58132,0 h 1.85461 l -3.47846,-9.8843 z m -1.16681,1.9508 0.67757,1.9263 h -1.35514 l 0.67757,-1.9263 z m -1.60733,4.5694 0.39189,-1.1139 h 2.43092 l 0.39185,1.1139 h -3.21466 z m 4.26294,-6.6637 c 0.58225,-0.5823 0.94238,-1.3866 0.94238,-2.2752 0,-0.8885 -0.36013,-1.6929 -0.94238,-2.2752 l 1.18953,-1.1895 c 0.88667,0.8866 1.43515,2.1116 1.43515,3.4647 0,1.3531 -0.54848,2.578 -1.43515,3.4648 l -1.18953,-1.1896 z m -6.50084,1.1896 1.18953,-1.1896 c -0.58225,-0.5823 -0.94237,-1.3866 -0.94237,-2.2752 0,-0.8885 0.36012,-1.6929 0.94237,-2.2752 l -1.18953,-1.1895 c -0.88667,0.8866 -1.43515,2.1116 -1.43515,3.4647 4e-5,1.3531 0.54848,2.578 1.43515,3.4648 z m 9.92259,-9.1618 -1.17931,1.1793 c 1.1562,1.1562 1.87131,2.7534 1.87131,4.5177 0,1.7643 -0.71511,3.3615 -1.87131,4.5177 l 1.17935,1.1793 c 1.45796,-1.458 2.35979,-3.4722 2.35979,-5.697 0,-2.2248 -0.90179,-4.239 -2.35983,-5.697 z m -10.9755,1.1793 -1.17931,-1.1793 c -1.458,1.458 -2.35974,3.4722 -2.35974,5.697 0,2.2248 0.90174,4.239 2.35974,5.6971 l 1.17931,-1.1794 c -1.1562,-1.1562 -1.87125,-2.7534 -1.87125,-4.5177 0,-1.7643 0.71505,-3.3615 1.87125,-4.5177 z" />

    <path id="person" d="m 10,4 c -0.335,0 -2.6875,-0.01275 -2.6875,3.5625 0,2.2752498 1,1.6300007 1,3.90625 0,0.97425 -0.65525,0.64975 -2.65625,1.625 C 3.91925,13.942097 3,14.400999 3,17 l 7,0 7,0 c 0,-2.598002 -0.9505,-3.056903 -2.6875,-3.90625 -2.001,-0.974251 -2.65625,-0.64975 -2.65625,-1.625 0,-2.27525 1,-1.6310002 1,-3.90625 C 12.65625,3.9872502 10.334,4 10,4 z"/>

    <path id="plus" d="M 9,5 C 8.448,5 8,5.448 8,6 L 8,8 6,8 C 5.448,8 5,8.448 5,9 l 0,1 c 0,0.552 0.448,1 1,1 l 2,0 0,2 c 0,0.552 0.448,1 1,1 l 1,0 c 0.552,0 1,-0.448 1,-1 l 0,-2 2,0 c 0.552,0 1,-0.448 1,-1 L 14,9 C 14,8.448 13.552,8 13,8 L 11,8 11,6 C 11,5.448 10.552,5 10,5 L 9,5 z M 5,1 h 9 c 2.209,0 4,1.791 4,4 v 9 c 0,2.209 -1.791,4 -4,4 H 5 C 2.791,18 1,16.209 1,14 V 5 C 1,2.791 2.791,1 5,1 z"/>

    <path id="book" d="m 18.23067,13.90192 c -2.86279,0.21515 -5.22174,0.712 -7.1677,1.48412 v -9.61334 c 2.00381,-1.24659 4.81667,-1.72444 7.1677,-1.92165 v 10.05087 z m -9.14744,1.48412 c -1.946,-0.77212 -4.30495,-1.26891 -7.16769,-1.48412 v -10.05093 c 2.35103,0.19727 5.1639,0.67506 7.16769,1.92165 v 9.6134 z m 11.79397,-11.32793 v 11.37047 l -0.72505,0.1165 v -11.48698 -2.30041 c -3.89504,0.11885 -7.58233,0.74503 -10.07902,2.2993 -2.49679,-1.55427 -6.18396,-2.18045 -10.07901,-2.2993 v 2.30041 11.48698 l -0.72504,-0.1165 v -11.37047 h -1.19434 v 12.75904 h 9.05654 c 1.47842,0 1.64067,0.90734 2.94185,0.90734 1.30363,0 1.46065,-0.90734 2.94191,-0.90734 h 9.0597 v -12.75904 h -1.19754 z"/>

    <path id="speech" d="m 15.96875,11.4875 c 0.80724,0.58039 1.3125,1.43806 1.3125,2.375 0,0.91904 -0.3777,1.49185 -0.9375,2.0625 0.11375,0.84733 0.375,1.59375 0.375,1.59375 0,0 -0.80096,-0.21401 -1.71875,-0.75 -2.71114,0.71888 -4.57619,-0.34268 -5.28125,-1.6875 2.90569,-0.16818 5.14833,-1.65171 6.25,-3.59375 z m -6.84375,-7.6875 c 3.37986,0 6.125,2.18996 6.125,4.90625 -4e-5,2.81161 -3.22905,5.97872 -8.6875,4.53125 -1.42747,0.8336 -2.6875,1.15625 -2.6875,1.15625 0,0 0.41676,-1.15096 0.59375,-2.46875 -0.87068,-0.88747 -1.5,-1.78939 -1.5,-3.21875 0,-2.71629 2.77636,-4.90625 6.15625,-4.90625 z m 0,-1.5 c -4.02074,0 -7.625,2.70442 -7.625,6.40625 0,1.31305 0.48283,2.6247 1.3125,3.625 0.0351,1.17226 -0.66545,2.8376 -1.28125,4.0625 1.65041,-0.30101 3.99843,-0.96724 5.0625,-1.625 0.62447,0.15336 1.22736,0.26824 1.8125,0.3125 0.73763,2.08739 3.32504,3.6618 6.65625,2.84375 0.72024,0.44517 2.28917,0.92116 3.40625,1.125 -0.41678,-0.82912 -0.86748,-1.98786 -0.84375,-2.78125 0.5615,-0.67707 0.875,-1.54883 0.875,-2.4375 0,-1.45489 -0.8111,-2.66359 -2.03125,-3.4375 0.17272,-0.5386 0.25,-1.12321 0.25,-1.6875 0,-3.72215 -3.59818,-6.40625 -7.59375,-6.40625 z"/>

    <path id="stackoverflow" d="m 18.46875,-3.6875 -2.15625,0.34375 1.65625,10 2.1875,-0.375 -1.6875,-9.96875 z M 11.625,-1.46875 9.84375,-0.1875 15.75,8.0625 17.53125,6.78125 11.625,-1.46875 z m -4.9375,4.6875 -1.125,1.875 8.65625,5.25 L 15.375,8.4375 6.6875,3.21875 z m -2.375,4.9375 -0.59375,2.09375 9.75,2.75 0.59375,-2.09375 -9.75,-2.75 z M 0,11.28125 0,22 l 16.78125,0 0,-10.65625 -2.03125,0 0,8.5625 -12.875,0 L 1.9375,11.3125 0,11.28125 z M 3.40625,12.5 3.1875,14.6875 l 10.09375,1 L 13.5,13.46875 3.40625,12.5 z m -0.25,3.875 0,2.125 10.09375,0 0,-2.125 -10.09375,0 z"/>

    <path id="apis_shade" transform="translate(2,2.5)" d="M11,11c-1.105,0-2,0.895-2,2s0.895,2,2,2s2-0.895,2-2 S12.105,11,11,11z M2,3C0.895,3,0,3.895,0,5s0.895,2,2,2s2-0.895,2-2S3.105,3,2,3z M14,0c-1.105,0-2,0.895-2,2s0.895,2,2,2 s2-0.895,2-2S15.105,0,14,0z"/>

    <path id="apis" transform="translate(2,2.5)" d="M8.5,3C10.433,3,12,4.567,12,6.5S10.433,10,8.5,10S5,8.433,5,6.5 S6.567,3,8.5,3z"/>

    <path id="document" d="M 12.77189,0.5 H 2 v 19 h 15.46586 v -14.28459 l -4.69397,-4.71541 z m 0,2.65594 2.05256,2.05947 h -2.05256 v -2.05947 z m -8.92723,14.4994 v -15.31068 h 7.06131 v 4.72694 h 4.71523 v 10.58374 h -11.77654 z"/>

    <!-- use following group as linked group of icons in one line -->
    <g id="allicons">
      <use x="0"   y="0" xlink:href="#addmember" />
      <use x="100" y="0" xlink:href="#settingsalt" />
      <use x="200" y="0" xlink:href="#people" />
      <use x="300" y="0" xlink:href="#questions" />
      <use x="400" y="0" xlink:href="#sliders" />
      <use x="500" y="0" xlink:href="#lock" />
      <use x="600" y="0" xlink:href="#tools" />
      <use x="700" y="0" xlink:href="#arrow" />
      <use x="800" y="0" xlink:href="#logout" />
      <use x="900" y="0" xlink:href="#loupe" />
      <use x="1000" y="0" xlink:href="#radio" />
      <use x="1100" y="0" xlink:href="#person" />
      <use x="1200" y="0" xlink:href="#plus" />
      <use x="1300" y="0" xlink:href="#book" />
      <use x="1400" y="0" xlink:href="#speech" />
      <use x="1500" y="0" xlink:href="#stackoverflow" />
      <use x="1600" y="0" xlink:href="#apis" />
      <use x="1700" y="0" xlink:href="#document" />
    </g>
    <g id="allicons_shade">
      <use x="200" y="0" xlink:href="#people_shade" />
      <use x="300" y="0" xlink:href="#questions_shade" />
      <use x="400" y="0" xlink:href="#sliders_shade" />
      <use x="600" y="0" xlink:href="#tools_shade" />
      <use x="1600" y="0" xlink:href="#apis_shade" />
    </g>

    <g id="triple_states">
      <use x="0"   y="0" xlink:href="#allicons_shade" />
      <use x="0"   y="0" xlink:href="#addmember" />
      <use x="200" y="0" xlink:href="#people" />
      <use x="300" y="0" xlink:href="#questions" />
      <use x="400" y="0" xlink:href="#sliders" />
      <use x="600" y="0" xlink:href="#tools" />
      <use x="800" y="0" xlink:href="#logout" />
      <use x="1000" y="0" xlink:href="#radio" />
      <use x="1100" y="0" xlink:href="#person" />
      <use x="1300" y="0" xlink:href="#book" />
      <use x="1400" y="0" xlink:href="#speech" />
      <use x="1500" y="0" xlink:href="#stackoverflow" />
      <use x="1600" y="0" xlink:href="#apis" />
    </g>

  </defs>

  <g style="pointer-events:none" pointer-events="none">

  <use x="0" y="0" xlink:href="#addmember" fill="#ffffff" />
  <use x="200" y="0" xlink:href="#people" fill="#ffffff" />
  <use x="200" y="0" xlink:href="#people_shade" fill="#ffffff" />
  <use x="600" y="0" xlink:href="#tools" fill="#ffffff" />
  <use x="600" y="0" xlink:href="#tools_shade" fill="#ffffff" />

  <use x="1200" y="0" xlink:href="#plus" fill="#ffffff" />
  <use x="400" y="0" xlink:href="#sliders" fill="#ffffff" />
  <use x="400" y="0" xlink:href="#sliders_shade" fill="#ffffff" />
  <use x="1600" y="0" xlink:href="#apis" fill="#ffffff" />
  <use x="1600" y="0" xlink:href="#apis_shade" fill="#ffffff" />

  <use x="0" y="100" xlink:href="#allicons" fill="#718cff" />
  <use x="0" y="100" xlink:href="#allicons_shade" fill="#6D73A9" />

  <use x="0" y="200" xlink:href="#triple_states" fill="#a5a7ff" />

  <use x="0" y="300" xlink:href="#allicons" fill="#718cff" />
  <use x="0" y="300" xlink:href="#allicons_shade" fill="#718cff" />

  <use x="500" y="400" xlink:href="#lock" fill="#d5d5d5" />
  <use x="700" y="400" xlink:href="#arrow" fill="#d5d5d5" />
  <use x="900" y="400" xlink:href="#loupe" fill="#d5d5d5" />
  <use x="1200" y="400" xlink:href="#plus" fill="#d5d5d5" />
  <use x="1700" y="400" xlink:href="#document" fill="#d5d5d5" />

  <use x="200" y="400" xlink:href="#people" fill="#718cff" />
  <use x="200" y="400" xlink:href="#people_shade" fill="#b8c5dc" />

  <use x="400" y="400" xlink:href="#sliders" fill="#718cff" />
  <use x="400" y="400" xlink:href="#sliders_shade" fill="#b8c5dc" />

  </g>
</svg>