<?xml version="1.0" encoding="utf-8"?>
<!-- Generator: Adobe Illustrator 18.1.1, SVG Export Plug-In . SVG Version: 6.00 Build 0)  -->
<svg version="1.1" id="Layer_1" xmlns="http://www.w3.org/2000/svg" xmlns:xlink="http://www.w3.org/1999/xlink" x="0px" y="0px"
	 viewBox="94 97 800 600" enable-background="new 94 97 800 600" xml:space="preserve">
<g id="_x23_f7f7f8ff">
</g>
<g id="_x23_989d9fff">
	<path fill="#989D9F" d="M353.7,285.6c10.8-1,21.7-0.3,32.6-0.4C375.5,285.9,364.6,285.7,353.7,285.6z"/>
	<path fill="#989D9F" d="M352.3,339.3c0-17.5-0.7-35.1,0.4-52.6C352.5,304.2,353.1,321.8,352.3,339.3z"/>
	<path fill="#989D9F" d="M367.8,345.1c-0.9-15.1-0.6-30.4-0.2-45.5c0.1,3.1,0.2,6.2,0.2,9.4C367.9,321,367.8,333.1,367.8,345.1z"/>
</g>
<g id="_x23_787e80ff">
	<path fill="#787E80" d="M386.3,285.3c34.5-0.5,69-0.5,103.4,0c22,0.8,44,0.3,66,0.3c26.2,0.3,52.4,0.1,78.6,0.1h1.1l0.4,0.1
		l0,108.6l0,114.4h-2.1h-17c-85.9,0.7-171.9,0-257.8,0.3c-3.4,0.4-7.6-0.8-6.9-5.1c0.1-54.9-0.4-109.8,0.3-164.7
		c0.8-17.5,0.2-35.1,0.4-52.6l0-1.1l1.1,0C364.6,285.7,375.5,285.9,386.3,285.3 M489.9,288.9c-44.7,0.5-89.3-0.1-134,0
		c-0.1,65.4,0.3,130.9,0.2,196.4c2.6,0,5.3,0,7.9,0c0.1-57.7,0-115.5,0.3-173.2c0,0-1.5-15.4,2.1-15.4c41.1-0.9,82.3-0.7,123.4-0.4
		c44.1,1.1,88.3,0.7,132.4,0.4c0.3,0.3,0.8,0.9,1.1,1.2c0.3,32.1-0.8,64.3,0.5,96.4c0.5,30.3,0,60.5,0.2,90.8c2.6,0,5.3,0,7.9,0
		c0.2-30.3-0.3-60.5,0.2-90.8c1-35.1,0.7-70.3,0.2-105.5C584.9,287.8,537.3,288,489.9,288.9 M367.7,299.6
		c-0.5,15.1-0.8,30.4,0.2,45.5c0.4,46.7,0,93.4,0.2,140.1c8.4-0.1,16.7-0.2,25.1-0.3l0.3,0c0-5.5,0-12.6,0.3-16.2
		c1.4-4.2,7.4-3.7,11.2-3.9c15.4,0.4,30.8,0,46.1,0.1c3.7,0.2,9.4,0,10.2,4.7c0.3,5.1,0.3,10.4,0.3,15.6c21.8,0.1,44.2,1.6,65.9-0.8
		c-0.6-2.5,0.4-4,0.4-4c1.3-2.4,6-6.1,10.4-5c17.8,2.8,35.8,0.9,53.7,1.5c4.1,0.4,3.4,7.6,3.4,8.1c0,0,16.6,0,24.7,0
		c0.2-30.3-0.2-60.8,0.2-91.1c0.9-31.4,0.7-63,0.1-94.4c-4.4,0-8.9-0.1-13.3-0.1c-21.2-0.5-42.4-0.4-63.6,0
		c-17.9-0.2-35.8-0.8-53.6,0.2c-31.2,0.3-62.5,0.3-93.7,0C386.7,298.9,377.1,299.2,367.7,299.6 M398,471.5c20,1.2,39.4,0.1,59.4,0.7
		c-0.1-1.3,1.7,4,1.7,4s-45.2-2.5-63.3-2.4l0,0 M535.3,479.2c0,2-0.1,3.9-0.1,5.9c4.2,0.1,8.5,0.1,12.7-0.1
		c-0.1-1.4-0.2-2.8-0.2-4.1c-3.3-0.5-6.5-1.1-9.7-1.6C537,479.3,536.2,479.2,535.3,479.2 M551.3,481.1c0,1.3-0.1,2.7-0.1,4
		c0.5,0,1.3,0,1.7,0h26.5h12.5V481L551.3,481.1 M431.8,488.8c-25.3,0.5-50.6-0.1-75.9,0c0,1.4-0.1,2.8-0.1,4.2c0,4,0,8.1,0,12.2
		c92.1-0.4,184.1-0.1,276.2,0c0-4,0-12.1,0-12.1c0-1.3,0-2.7,0-4c-15.3-0.2-30.6,0.1-45.8-0.2C534.8,488,483.2,487.8,431.8,488.8z"
		/>
</g>
<g id="_x23_979c9eff">
	<path fill="#979C9E" d="M489.7,285.3c22.3,0,44.6-0.5,66.9,0.2l-0.9,0C533.7,285.6,511.7,286.1,489.7,285.3z"/>
	<path fill="#979C9E" d="M635.7,394.3"/>
</g>
<g id="_x23_b1b5b7ff">
	<path fill="#B1B5B7" d="M556.6,285.5c25.9,0,51.9-0.7,77.7,0.1c-26.2,0.1-52.4,0.2-78.6-0.1L556.6,285.5z"/>
</g>
<g id="_x23_92989bff">
	<path fill="#92989B" d="M489.9,288.9c47.5-0.8,95-1.1,142.5-0.1C584.9,288.4,537.3,289.2,489.9,288.9z"/>
</g>
<g id="_x23_c2c7ccff">
	<path fill="#C2C7CC" d="M355.9,288.9c44.7-0.1,89.3,0.5,134,0c47.5,0.3,95-0.4,142.5-0.1c-0.5,35.1-0.1,70.3-0.2,105.5
		c-0.5,30.3,0,60.5-0.2,90.8c-2.6,0-5.3,0-7.9,0c-0.2-30.3,0.2-60.6-0.2-90.8c-0.3-32.1,0.8-64.3-0.5-96.4c-0.3-0.3-0.8-0.9-1.1-1.2
		c-44.1-0.4-88.3-0.4-132.4-0.4c-41.1-0.2-82.3-0.5-123.4,0.4c-3.2,0-2.1,10.7-2.1,15.4c-0.4,57.7-0.3,115.5-0.3,173.2
		c-2.6,0-5.3,0-7.9,0C356.2,419.8,355.8,354.3,355.9,288.9z"/>
	<path fill="#C2C7CC" d="M355.8,493c92.1-0.1,184.1-0.1,276.2,0l0,12.1c-92.1-0.1-184.1-0.4-276.2,0
		C355.7,501.1,355.7,497.1,355.8,493z"/>
</g>
<g id="_x23_8a9092ff">
	<path fill="#8A9092" d="M632.4,288.7c0.5,35.1,0.8,70.3-0.2,105.5C632.2,359,631.9,323.9,632.4,288.7z"/>
	<path fill="#8A9092" d="M623.3,297.8c1.3,32.1,0.2,64.3,0.5,96.4C622.6,362.1,623.6,329.9,623.3,297.8z"/>
</g>
<g id="_x23_93999cff">
	<path fill="#93999C" d="M489.8,296.1c44.1,0,88.3,0,132.4,0.4C578.1,296.8,533.9,297.2,489.8,296.1z"/>
</g>
<g id="_x23_969b9dff">
	<path fill="#969B9D" d="M367.7,299.6c9.5-0.5,19-0.7,28.5,0.2C386.6,299.8,377.1,300,367.7,299.6z"/>
	<path fill="#969B9D" d="M489.9,299.8c17.8-1,35.7-0.5,53.6-0.2l0.9,0C526.2,300.1,508,299.8,489.9,299.8z"/>
</g>
<g id="_x23_b5b9bbff">
	<path fill="#B5B9BB" d="M543.5,299.6c21.2-0.4,42.4-0.5,63.6,0c-20.9,0.1-41.8,0.1-62.7,0L543.5,299.6z"/>
</g>
<g id="_x23_f3f5f7ff">
</g>
<g id="_x23_999e9fff">
	<path fill="#999E9F" d="M620.3,299.8c0.6,31.4,0.8,63-0.1,94.4c0-28.4,0-56.8,0-85.1C620.1,305.9,620.2,302.8,620.3,299.8z"/>
</g>
<g id="_x23_feffffff">
</g>
<g id="_x23_85c0f0ff">
	<path fill="#85C0F0" d="M403.7,331.6c11.2-2.6,20.7,5.8,31.4,7.3c14.6,2.8,26.6-8.9,41-8c12.7-0.5,23.3,8.7,36,8.1
		c12.1,1,22.2-7.6,34.1-7.7c14.1-0.9,26.4,7.6,40.3,9c-7.5,6.6-18.7-1.1-26.8-3.7c-20.9-8.5-39.7,13.8-60.6,4.5
		c-13.5-7.1-30-8-43.6-0.6c-18.2,7.8-35.9-3.5-53.6-6.6C402,332.6,402.6,331.9,403.7,331.6z"/>
	<path fill="#85C0F0" d="M403.6,351.6c11.2-2.6,20.7,5.7,31.4,7.2c14.6,2.8,26.6-8.9,41-8c12.7-0.5,23.3,8.7,36,8.1
		c11.8,1,21.6-7.2,33.1-7.7c14.5-1.3,27.1,7.4,41.1,9c-7.3,6.6-18.7-1.1-26.7-3.8c-20.9-8.5-39.7,13.8-60.6,4.5
		c-13.5-7.1-30-8-43.6-0.6c-18.2,7.8-35.8-3.5-53.5-6.6C401.9,352.6,402.5,351.9,403.6,351.6z"/>
	<path fill="#85C0F0" d="M403.7,371.6c11.2-2.5,20.7,5.8,31.4,7.3c14.6,2.9,26.6-8.9,41-8c12.7-0.5,23.3,8.7,36,8.1
		c11.8,1,21.6-7.2,33.1-7.7c14.5-1.3,27,7.4,41.1,9c-7.2,6.6-18.7-1.1-26.7-3.8c-20.9-8.5-39.7,13.8-60.6,4.5
		c-13.5-7.1-30-8-43.6-0.6c-18.2,7.8-35.9-3.5-53.6-6.6C402.1,372.7,402.7,372,403.7,371.6z"/>
	<path fill="#85C0F0" d="M403.7,391.6c11.2-2.5,20.7,5.8,31.4,7.3c14.6,2.9,26.6-8.9,41-8c12.7-0.5,23.3,8.7,36,8.1
		c11.8,1,21.6-7.2,33.1-7.7c14.5-1.3,27,7.4,41.1,9c-7.2,6.6-18.7-1.1-26.7-3.8c-20.9-8.5-39.7,13.8-60.6,4.5
		c-13.4-7.1-30-8-43.5-0.6c-18.2,7.8-35.9-3.5-53.6-6.6C402.1,392.7,402.7,392,403.7,391.6z"/>
	<path fill="#85C0F0" d="M403.6,411.7c17.3-1.5,33.9,14,51.6,4.4c19.1-11.4,39.5,0.6,58.7,4.2c-3.5,5.6-14.2,1.1-19.9-1.3
		c-13.5-7.7-29.3-3.5-42.5,2.5c-16.4,6.2-31.3-5.1-47.2-7.1C402.2,414.7,400.8,411.8,403.6,411.7z"/>
</g>
<g id="_x23_82b5ddff">
	<path fill="#82B5DD" d="M535.3,479.2c0.9,0,1.7,0,2.6,0.1c-0.8,1,0.8-1,0,0c3.7,0.6,6,1,9.7,1.6c0.2-0.7-0.2,0.8,0,0
		c0.1,1.4,0.1,2.8,0.2,4.1c-4.2,0.2-8.5,0.2-12.7,0.1C535.2,483.1,535.3,481.2,535.3,479.2z"/>
</g>
<g id="_x23_bdc0c1ff">
</g>
<g id="_x23_fcfcfcff">
	<path fill="#FCFCFC" d="M551.3,481.1l40.6-0.1v4.2c-3.9,0.1-7.8,0-11.8,0c-9.1,0.1-18.1,0-27.2,0c-0.5,0-1.4,0-1.8,0
		C551.2,483.8,551.2,482.5,551.3,481.1z"/>
</g>
<g id="_x23_afb3b4ff">
	<path fill="#AFB3B4" d="M461.6,485.3c21.9-0.4,43.8,0.8,65.6-0.8C505.5,486.9,483.4,485.4,461.6,485.3z"/>
</g>
<g id="_x23_989d9eff">
	<path fill="#989D9E" d="M552.9,485.2l27.2,0L552.9,485.2z"/>
</g>
<g id="_x23_969c9fff">
	<path fill="#969C9F" d="M431.8,488.8c51.4-1,102.9-0.8,154.3,0C534.7,489,483.3,488.6,431.8,488.8z"/>
</g>
<g id="_x23_d9dee2ff">
	<path fill="#D9DEE2" d="M355.9,488.8c25.3-0.1,50.6,0.6,75.9,0c51.4-0.3,102.9,0.1,154.3,0c15.3,0.4,30.6,0.1,45.8,0.2
		c0,1.3,0,2.6,0,4c-92.1,0-184.1-0.1-276.2,0C355.8,491.6,355.9,490.2,355.9,488.8z"/>
</g>
<g id="_x23_999ea0ff">
	<path fill="#999EA0" d="M616.7,508.7L616.7,508.7L616.7,508.7z"/>
</g>
<path fill="#85C0F0" d="M536.9,424.3c-3.9,5.2-14.3,0.2-19.8-2.4"/>
<path fill="#85C0F0" d="M517.2,421.9c3.8-6.5,14.3-0.6,19.7,2.4"/>
<path fill="#85C0F0" d="M558.8,425.9c-3.9,5.2-14.3,0.2-19.8-2.4"/>
<path fill="#85C0F0" d="M539,423.5c3.8-6.5,14.3-0.6,19.7,2.4"/>
<path fill="#85C0F0" d="M578.5,425.8c-3.9,5.2-14.3,0.2-19.8-2.4"/>
<path fill="#85C0F0" d="M558.8,423.4c3.8-6.5,14.3-0.6,19.7,2.4"/>
</svg>
